<?xml version="1.0" encoding="utf-8" standalone="no"?>
<!DOCTYPE svg PUBLIC "-//W3C//DTD SVG 1.1//EN"
  "http://www.w3.org/Graphics/SVG/1.1/DTD/svg11.dtd">
<!-- Created with matplotlib (http://matplotlib.org/) -->
<svg height="72pt" version="1.1" viewBox="0 0 72 72" width="72pt" xmlns="http://www.w3.org/2000/svg" xmlns:xlink="http://www.w3.org/1999/xlink">
 <defs>
  <style type="text/css">
*{stroke-linecap:butt;stroke-linejoin:round;}
  </style>
 </defs>
 <g id="figure_1">
  <g id="patch_1">
   <path d="
M0 72
L72 72
L72 0
L0 0
z
" style="fill:none;"/>
  </g>
  <g id="axes_1">
   <g id="PatchCollection_1">
    <defs>
     <path d="
M36 -7.5
C43.5583 -7.5 50.808 -10.5029 56.1525 -15.8475
C61.4971 -21.192 64.5 -28.4417 64.5 -36
C64.5 -43.5583 61.4971 -50.808 56.1525 -56.1525
C50.808 -61.4971 43.5583 -64.5 36 -64.5
C28.4417 -64.5 21.192 -61.4971 15.8475 -56.1525
C10.5029 -50.808 7.5 -43.5583 7.5 -36
C7.5 -28.4417 10.5029 -21.192 15.8475 -15.8475
C21.192 -10.5029 28.4417 -7.5 36 -7.5
z
" id="C0_0_a811fe30f3"/>
     <path d="
M63.2266 -43.6825
L62.9627 -43.7755
L62.6979 -43.8436
L62.4325 -43.8879
L62.1667 -43.9098
L61.9006 -43.9106
L61.6344 -43.8917
L61.3681 -43.8547
L61.1017 -43.801
L60.8353 -43.7321
L60.5687 -43.6493
L60.3021 -43.5541
L60.0354 -43.4475
L59.7686 -43.3309
L59.5018 -43.2054
L59.2348 -43.0719
L58.9679 -42.9314
L58.7009 -42.7847
L58.4339 -42.6327
L58.1669 -42.476
L57.9001 -42.3154
L57.6334 -42.1513
L57.3669 -41.9843
L57.1006 -41.8149
L56.8347 -41.6436
L56.5691 -41.4706
L56.304 -41.2965
L56.0394 -41.1214
L55.7753 -40.9457
L55.5118 -40.7696
L55.249 -40.5934
L54.9869 -40.4172
L54.7255 -40.2413
L54.465 -40.0657
L54.2053 -39.8907
L53.9466 -39.7163
L53.6887 -39.5427
L53.4319 -39.3699
L53.176 -39.198
L52.9211 -39.0272
L52.6673 -38.8575
L52.4145 -38.6888
L52.1629 -38.5214
L51.9123 -38.3551
L51.6627 -38.1901
L51.4143 -38.0263
L51.167 -37.8637
L50.9208 -37.7025
L50.6757 -37.5426
L50.4317 -37.3839
L50.1887 -37.2265
L49.9468 -37.0704
L49.706 -36.9156
L49.4662 -36.7621
L49.2274 -36.6098
L48.9896 -36.4588
L48.7528 -36.3089
L48.5169 -36.1603
L48.282 -36.0129
L48.0479 -35.8666
L47.8147 -35.7215
L47.5823 -35.5775
L47.3508 -35.4346
L47.12 -35.2927
L46.8899 -35.1519
L46.6606 -35.0121
L46.4319 -34.8733
L46.2039 -34.7355
L45.9764 -34.5986
L45.7495 -34.4626
L45.5231 -34.3274
L45.2972 -34.1931
L45.0717 -34.0597
L44.8466 -33.927
L44.6219 -33.7951
L44.3975 -33.6639
L44.1734 -33.5334
L43.9494 -33.4036
L43.7257 -33.2745
L43.5021 -33.1459
L43.2786 -33.018
L43.0551 -32.8906
L42.8317 -32.7637
L42.6082 -32.6374
L42.3846 -32.5115
L42.1609 -32.3861
L41.937 -32.2611
L41.4885 -32.1365
L41.2638 -32.0123
L41.0387 -31.8884
L40.8132 -31.7649
L40.5873 -31.6416
L40.3608 -31.5186
L40.1338 -31.3958
L39.9062 -31.2733
L39.6779 -31.1509
L39.449 -31.0287
L39.2192 -30.9066
L38.9887 -30.7847
L38.7573 -30.6629
L38.5251 -30.5411
L38.2918 -30.4193
L38.0576 -30.2976
L37.8223 -30.1759
L37.586 -30.0542
L37.3485 -29.9324
L37.1098 -29.8105
L36.8698 -29.6886
L36.6286 -29.5666
L36.386 -29.4444
L36.142 -29.3221
L35.8966 -29.1996
L35.6497 -29.0769
L35.4013 -28.954
L35.1513 -28.8308
L34.8997 -28.7075
L34.6465 -28.5838
L34.3915 -28.4599
L34.1348 -28.3357
L33.8764 -28.2112
L33.6161 -28.0863
L33.3539 -27.9611
L33.0899 -27.8355
L32.824 -27.7095
L32.5561 -27.5832
L32.2862 -27.4564
L32.0144 -27.3292
L31.7405 -27.2016
L31.4646 -27.0735
L31.1867 -26.945
L30.9068 -26.816
L30.6248 -26.6865
L30.3408 -26.5566
L30.0548 -26.4261
L29.7667 -26.2951
L29.4767 -26.1635
L29.1848 -26.0314
L28.891 -25.8988
L28.5953 -25.7655
L28.2978 -25.6317
L27.9987 -25.4973
L27.6979 -25.3622
L27.3956 -25.2265
L27.0919 -25.09
L26.7869 -24.9529
L26.4808 -24.815
L26.1737 -24.6764
L25.8659 -24.5369
L25.5575 -24.3965
L25.2488 -24.2551
L24.94 -24.1128
L24.6313 -23.9693
L24.3232 -23.8246
L24.016 -23.6786
L23.71 -23.5312
L23.4057 -23.3822
L23.1035 -23.2314
L22.8039 -23.0787
L22.5075 -22.9239
L22.2148 -22.7666
L21.9265 -22.6066
L21.6434 -22.4436
L21.3661 -22.2773
L21.0955 -22.1073
L20.8325 -21.9331
L20.5779 -21.7543
L20.3329 -21.5704
L20.0985 -21.3808
L19.8756 -21.1851
L19.6656 -20.9825
L19.4695 -20.7725
L19.2884 -20.5545
L19.1236 -20.328
L18.9761 -20.0923
L18.8469 -19.847
L18.737 -19.5917
L18.6473 -19.3262
L18.5785 -19.0501
L18.531 -18.7636
L18.5053 -18.4666
L18.5017 -18.1595
L18.52 -17.8427
L18.5604 -17.5167
L18.6224 -17.1823
L18.7057 -16.8401
L18.8099 -16.4912
L18.9344 -16.1364
L19.0784 -15.7768
L19.2414 -15.4132
L19.4226 -15.0469
L19.6213 -14.6786
L19.8366 -14.3095
L20.0678 -13.9404
L20.3142 -13.5722
L20.575 -13.2058
L20.8495 -12.842
L21.137 -12.4814
L21.4368 -12.1248
L21.7481 -11.7728
L22.1343 -11.426
L22.5709 -11.1004
L23.0117 -10.8622
L23.4564 -10.6316
L23.905 -10.4088
L24.3572 -10.1938
L24.813 -9.98664
L25.2721 -9.78741
L25.7346 -9.59616
L26.2001 -9.41295
L26.6687 -9.23785
L27.1401 -9.07089
L27.6142 -8.91214
L28.0909 -8.76164
L28.5699 -8.61943
L29.0512 -8.48557
L29.5347 -8.36009
L30.0201 -8.24303
L30.5073 -8.13442
L30.9962 -8.0343
L31.4867 -7.9427
L31.9785 -7.85964
L32.4715 -7.78516
L32.9656 -7.71927
L33.4606 -7.662
L33.9564 -7.61336
L34.4529 -7.57336
L34.9497 -7.54203
L35.447 -7.51936
L35.9443 -7.50537
L36.4417 -7.50005
L36.939 -7.50342
L37.436 -7.51547
L37.9325 -7.5362
L38.4285 -7.5656
L38.9237 -7.60365
L39.418 -7.65036
L39.9113 -7.70571
L40.4034 -7.76967
L40.8942 -7.84223
L41.3834 -7.92337
L41.871 -8.01306
L42.3569 -8.11128
L42.8408 -8.21799
L43.3226 -8.33316
L43.8022 -8.45676
L44.2794 -8.58875
L44.754 -8.72909
L45.2261 -8.87774
L45.6953 -9.03465
L46.1615 -9.19978
L46.6247 -9.37306
L47.0846 -9.55446
L47.5411 -9.74392
L47.9942 -9.94137
L48.4435 -10.1468
L48.8891 -10.36
L49.3308 -10.5811
L49.7684 -10.8099
L50.2018 -11.0464
L50.6309 -11.2905
L51.0555 -11.5421
L51.4755 -11.8012
L51.8908 -12.0676
L52.3013 -12.3414
L52.7068 -12.6223
L53.1072 -12.9103
L53.5025 -13.2054
L53.8923 -13.5075
L54.2768 -13.8164
L54.6556 -14.132
L55.0288 -14.4543
L55.3962 -14.7832
L55.7577 -15.1185
L56.1132 -15.4602
L56.4625 -15.8081
L56.8056 -16.1622
L57.1423 -16.5224
L57.4727 -16.8885
L57.7965 -17.2604
L58.1136 -17.638
L58.424 -18.0212
L58.7276 -18.4098
L59.0242 -18.8039
L59.3139 -19.2031
L59.5964 -19.6075
L59.8718 -20.0169
L60.1398 -20.4311
L60.4006 -20.8501
L60.6538 -21.2737
L60.8996 -21.7018
L61.1378 -22.1343
L61.3684 -22.5709
L61.5912 -23.0117
L61.8062 -23.4564
L62.0134 -23.905
L62.2126 -24.3572
L62.4038 -24.813
L62.587 -25.2721
L62.7622 -25.7346
L62.9291 -26.2001
L63.0879 -26.6687
L63.2384 -27.1401
L63.3806 -27.6142
L63.5144 -28.0909
L63.6399 -28.5699
L63.757 -29.0512
L63.8656 -29.5347
L63.9657 -30.0201
L64.0573 -30.5073
L64.1404 -30.9962
L64.2148 -31.4867
L64.2807 -31.9785
L64.338 -32.4715
L64.3866 -32.9656
L64.4266 -33.4606
L64.458 -33.9564
L64.4806 -34.4529
L64.4946 -34.9497
L64.4999 -35.447
L64.4966 -35.9443
L64.4845 -36.4417
L64.4638 -36.939
L64.4344 -37.436
L64.3963 -37.9325
L64.3496 -38.4285
L64.2943 -38.9237
L64.2303 -39.418
L64.1578 -39.9113
L64.0766 -40.4034
L63.9869 -40.8942
L63.8887 -41.3834
L63.782 -41.871
L63.6668 -42.3569
z
" id="C0_1_8152ac1d25"/>
     <path d="
M49.8859 -60.8371
L49.4272 -60.935
L48.9687 -61.0271
L48.5109 -61.113
L48.0541 -61.1926
L47.5988 -61.2659
L47.1451 -61.3327
L46.6936 -61.3931
L46.2443 -61.4471
L45.7977 -61.4946
L45.3539 -61.5358
L44.9131 -61.5708
L44.4755 -61.5995
L44.0412 -61.6221
L43.6105 -61.6387
L43.1834 -61.6495
L42.7601 -61.6545
L42.3406 -61.6539
L41.925 -61.6479
L41.5133 -61.6365
L41.1057 -61.6199
L40.7021 -61.5983
L40.3026 -61.5717
L39.9072 -61.5404
L39.5159 -61.5044
L39.1286 -61.4639
L38.7455 -61.419
L38.3664 -61.3699
L37.9913 -61.3166
L37.6202 -61.2593
L37.2531 -61.1981
L36.89 -61.1331
L36.5307 -61.0645
L36.1752 -60.9923
L35.8236 -60.9166
L35.4756 -60.8375
L35.1313 -60.7551
L34.7907 -60.6696
L34.4535 -60.5808
L34.1199 -60.4891
L33.7897 -60.3943
L33.4628 -60.2967
L33.1392 -60.1962
L32.8188 -60.0929
L32.5016 -59.9869
L32.1874 -59.8782
L31.8763 -59.7668
L31.5681 -59.6529
L31.2628 -59.5364
L30.9603 -59.4174
L30.6605 -59.2959
L30.3634 -59.1719
L30.0689 -59.0455
L29.777 -58.9167
L29.4875 -58.7855
L29.2004 -58.6519
L28.9157 -58.516
L28.6333 -58.3777
L28.3531 -58.2371
L28.0751 -58.0941
L27.7992 -57.9488
L27.5253 -57.8011
L27.2534 -57.6511
L26.9834 -57.4987
L26.7154 -57.3439
L26.4491 -57.1868
L26.1847 -57.0273
L25.9219 -56.8653
L25.6609 -56.7009
L25.4015 -56.5341
L25.1436 -56.3648
L24.8874 -56.1929
L24.6326 -56.0186
L24.3792 -55.8416
L24.1273 -55.6621
L23.8768 -55.4799
L23.6276 -55.295
L23.3797 -55.1074
L23.1331 -54.917
L22.8878 -54.7239
L22.6437 -54.5278
L22.4007 -54.3289
L22.1589 -54.127
L21.9183 -53.9221
L21.6788 -53.7141
L21.4404 -53.503
L21.2031 -53.2887
L20.9669 -53.0712
L20.7318 -52.8504
L20.4977 -52.6262
L20.2646 -52.3986
L20.0326 -52.1675
L19.8016 -51.9328
L19.5717 -51.6944
L19.3429 -51.4524
L19.1151 -51.2066
L18.8884 -50.9569
L18.6628 -50.7033
L18.4383 -50.4456
L18.2149 -50.184
L17.9926 -49.9181
L17.7716 -49.648
L17.5518 -49.3737
L17.3332 -49.0949
L17.1159 -48.8117
L16.9 -48.524
L16.6854 -48.2316
L16.4723 -47.9346
L16.2607 -47.6329
L16.0507 -47.3263
L15.8423 -47.0149
L15.6356 -46.6986
L15.4306 -46.3773
L15.2276 -46.051
L15.0265 -45.7197
L14.8274 -45.3832
L14.6304 -45.0416
L14.4357 -44.6948
L14.2432 -44.3429
L14.0532 -43.9858
L13.8658 -43.6236
L13.6809 -43.2562
L13.4988 -42.8837
L13.3196 -42.5062
L13.1433 -42.1236
L12.9701 -41.7362
L12.8001 -41.344
L12.6334 -40.9471
L12.4701 -40.5457
L12.3102 -40.1399
L12.1539 -39.73
L12.0012 -39.3162
L11.8521 -38.8988
L11.7069 -38.478
L11.5653 -38.0541
L11.4275 -37.6277
L11.2934 -37.199
L11.163 -36.7686
L11.0362 -36.3369
L10.9128 -35.9045
L10.7927 -35.4721
L10.6756 -35.0403
L10.5614 -34.6099
L10.4496 -34.1816
L10.3399 -33.7564
L10.2319 -33.335
L10.1251 -32.9186
L10.0188 -32.508
L9.91246 -32.1045
L9.80543 -31.7091
L9.69695 -31.3229
L9.58626 -30.9472
L9.47257 -30.583
L9.35509 -30.2315
L9.23306 -29.8937
L9.10575 -29.5707
L8.97249 -29.2633
L8.8327 -28.9724
L8.68593 -28.6985
L8.39342 -28.4422
L8.27406 -28.92
L8.16315 -29.4028
L8.06072 -29.8877
L7.96679 -30.3745
L7.88141 -30.8629
L7.80459 -31.353
L7.73636 -31.8444
L7.67674 -32.3371
L7.62574 -32.831
L7.58339 -33.3258
L7.5497 -33.8214
L7.52467 -34.3176
L7.50832 -34.8144
L7.50064 -35.3116
L7.50165 -35.8089
L7.51133 -36.3063
L7.5297 -36.8036
L7.55673 -37.3007
L7.59243 -37.7974
L7.63679 -38.2935
L7.68978 -38.7889
L7.7514 -39.2835
L7.82162 -39.7771
L7.90043 -40.2695
L7.98779 -40.7607
L8.08369 -41.2504
L8.18809 -41.7384
L8.30096 -42.2248
L8.42227 -42.7092
L8.55198 -43.1916
L8.69006 -43.6718
L8.83645 -44.1497
L8.99111 -44.625
L9.154 -45.0978
L9.32507 -45.5678
L9.50427 -46.0349
L9.69153 -46.4989
L9.88681 -46.9597
L10.09 -47.4172
L10.3012 -47.8712
L10.5201 -48.3215
L10.7468 -48.7682
L10.9813 -49.2109
L11.2233 -49.6496
L11.4729 -50.0842
L11.7299 -50.5145
L11.9943 -50.9403
L12.2661 -51.3616
L12.5451 -51.7782
L12.8312 -52.19
L13.1244 -52.5969
L13.4245 -52.9987
L13.7316 -53.3954
L14.0454 -53.7867
L14.3659 -54.1726
L14.693 -54.553
L15.0266 -54.9278
L15.3665 -55.2968
L15.7128 -55.6599
L16.0652 -56.017
L16.4237 -56.368
L16.7882 -56.7128
L17.1585 -57.0513
L17.5346 -57.3834
L17.9163 -57.7089
L18.3035 -58.0279
L18.696 -58.3402
L19.0939 -58.6456
L19.4969 -58.9441
L19.9049 -59.2357
L20.3179 -59.5202
L20.7356 -59.7975
L21.1579 -60.0676
L21.5848 -60.3303
L22.0161 -60.5856
L22.4516 -60.8335
L22.8913 -61.0737
L23.3349 -61.3064
L23.7825 -61.5313
L24.2337 -61.7484
L24.6885 -61.9577
L25.1468 -62.1591
L25.6083 -62.3526
L26.0731 -62.538
L26.5408 -62.7153
L27.0115 -62.8845
L27.4848 -63.0455
L27.9608 -63.1982
L28.4392 -63.3427
L28.92 -63.4788
L29.4028 -63.6066
L29.8877 -63.7259
L30.3745 -63.8368
L30.8629 -63.9393
L31.353 -64.0332
L31.8444 -64.1186
L32.3371 -64.1954
L32.831 -64.2636
L33.3258 -64.3233
L33.8214 -64.3743
L34.3176 -64.4166
L34.8144 -64.4503
L35.3116 -64.4753
L35.8089 -64.4917
L36.3063 -64.4994
L36.8036 -64.4984
L37.3007 -64.4887
L37.7974 -64.4703
L38.2935 -64.4433
L38.7889 -64.4076
L39.2835 -64.3632
L39.7771 -64.3102
L40.2695 -64.2486
L40.7607 -64.1784
L41.2504 -64.0996
L41.7384 -64.0122
L42.2248 -63.9163
L42.7092 -63.8119
L43.1916 -63.699
L43.6718 -63.5777
L44.1497 -63.448
L44.625 -63.3099
L45.0978 -63.1636
L45.5678 -63.0089
L46.0349 -62.846
L46.4989 -62.6749
L46.9597 -62.4957
L47.4172 -62.3085
L47.8712 -62.1132
L48.3215 -61.91
L48.7682 -61.6988
L49.2109 -61.4799
z
" id="C0_2_cf8242ac74"/>
    </defs>
    <g clip-path="url(#p1bffca34e9)">
     <use style="fill:#ff0000;stroke:#000000;stroke-width:2.0;" x="0.0" xlink:href="#C0_0_a811fe30f3" y="72.0"/>
    </g>
    <g clip-path="url(#p1bffca34e9)">
     <use style="fill:#ffffff;stroke:#000000;stroke-width:2.0;" x="0.0" xlink:href="#C0_1_8152ac1d25" y="72.0"/>
    </g>
    <g clip-path="url(#p1bffca34e9)">
     <use style="fill:#ffffff;stroke:#000000;stroke-width:2.0;" x="0.0" xlink:href="#C0_2_cf8242ac74" y="72.0"/>
    </g>
   </g>
  </g>
 </g>
 <defs>
  <clipPath id="p1bffca34e9">
   <rect height="72.0" width="72.0" x="0.0" y="0.0"/>
  </clipPath>
 </defs>
</svg>
