<?xml version="1.0" encoding="utf-8" standalone="no"?>
<!DOCTYPE svg PUBLIC "-//W3C//DTD SVG 1.1//EN"
  "http://www.w3.org/Graphics/SVG/1.1/DTD/svg11.dtd">
<!-- Created with matplotlib (http://matplotlib.org/) -->
<svg height="72pt" version="1.1" viewBox="0 0 72 72" width="72pt" xmlns="http://www.w3.org/2000/svg" xmlns:xlink="http://www.w3.org/1999/xlink">
 <defs>
  <style type="text/css">
*{stroke-linecap:butt;stroke-linejoin:round;}
  </style>
 </defs>
 <g id="figure_1">
  <g id="patch_1">
   <path d="
M0 72
L72 72
L72 0
L0 0
z
" style="fill:none;"/>
  </g>
  <g id="axes_1">
   <g id="PatchCollection_1">
    <defs>
     <path d="
M36 -7.5
C43.5583 -7.5 50.808 -10.5029 56.1525 -15.8475
C61.4971 -21.192 64.5 -28.4417 64.5 -36
C64.5 -43.5583 61.4971 -50.808 56.1525 -56.1525
C50.808 -61.4971 43.5583 -64.5 36 -64.5
C28.4417 -64.5 21.192 -61.4971 15.8475 -56.1525
C10.5029 -50.808 7.5 -43.5583 7.5 -36
C7.5 -28.4417 10.5029 -21.192 15.8475 -15.8475
C21.192 -10.5029 28.4417 -7.5 36 -7.5
z
" id="C0_0_a811fe30f3"/>
     <path d="
M40.0331 -52.5005
L40.3121 -52.3893
L40.5897 -52.2745
L40.8657 -52.1561
L41.1402 -52.0341
L41.4131 -51.9084
L41.6844 -51.7792
L41.9541 -51.6464
L42.2221 -51.51
L42.4884 -51.37
L42.7531 -51.2264
L43.016 -51.0793
L43.2771 -50.9286
L43.5365 -50.7743
L43.794 -50.6165
L44.0496 -50.4551
L44.3034 -50.2902
L44.5552 -50.1216
L44.8051 -49.9495
L45.053 -49.7739
L45.2988 -49.5947
L45.5425 -49.4119
L45.784 -49.2255
L46.0234 -49.0356
L46.2606 -48.842
L46.4954 -48.6449
L46.7279 -48.4443
L46.958 -48.24
L47.1856 -48.0322
L47.4107 -47.8207
L47.6333 -47.6057
L47.8531 -47.3871
L48.0703 -47.165
L48.2846 -46.9393
L48.4961 -46.71
L48.7047 -46.4771
L48.9102 -46.2407
L49.1126 -46.0008
L49.3118 -45.7573
L49.5078 -45.5103
L49.7004 -45.2598
L49.8895 -45.0058
L50.0751 -44.7483
L50.257 -44.4875
L50.4352 -44.2232
L50.6096 -43.9555
L50.7799 -43.6844
L50.9463 -43.4101
L51.1084 -43.1324
L51.2663 -42.8515
L51.4197 -42.5675
L51.5687 -42.2803
L51.713 -41.99
L51.8526 -41.6966
L51.9873 -41.4003
L52.1171 -41.1011
L52.2417 -40.7991
L52.3611 -40.4944
L52.4751 -40.1869
L52.5837 -39.8769
L52.6867 -39.5644
L52.7839 -39.2495
L52.8753 -38.9323
L52.9608 -38.6129
L53.0401 -38.2915
L53.1132 -37.9681
L53.1801 -37.6429
L53.2405 -37.316
L53.2943 -36.9876
L53.3415 -36.6577
L53.382 -36.3265
L53.4156 -35.9943
L53.4422 -35.661
L53.4618 -35.327
L53.4743 -34.9923
L53.4796 -34.6571
L53.4776 -34.3216
L53.4683 -33.986
L53.4516 -33.6504
L53.4275 -33.3151
L53.3958 -32.9802
L53.3567 -32.6459
L53.3099 -32.3124
L53.2557 -31.9798
L53.1938 -31.6485
L53.1244 -31.3185
L53.0474 -30.99
L52.9628 -30.6633
L52.8707 -30.3386
L52.7712 -30.016
L52.6642 -29.6956
L52.5498 -29.3778
L52.4281 -29.0626
L52.2992 -28.7503
L52.1631 -28.4411
L52.0199 -28.135
L51.8697 -27.8322
L51.7127 -27.533
L51.5489 -27.2375
L51.3785 -26.9458
L51.2016 -26.6581
L51.0183 -26.3745
L50.8288 -26.0951
L50.6332 -25.82
L50.4317 -25.5495
L50.2244 -25.2835
L50.0114 -25.0223
L49.793 -24.7658
L49.5694 -24.5142
L49.3406 -24.2676
L49.1068 -24.026
L48.8682 -23.7896
L48.6251 -23.5583
L48.3774 -23.3322
L48.1256 -23.1115
L47.8696 -22.8961
L47.6097 -22.686
L47.346 -22.4814
L47.0787 -22.2822
L46.808 -22.0884
L46.534 -21.9001
L46.257 -21.7173
L45.977 -21.5399
L45.6942 -21.3681
L45.4087 -21.2017
L45.1208 -21.0408
L44.8306 -20.8854
L44.5382 -20.7354
L44.2437 -20.5909
L43.9473 -20.4518
L43.6491 -20.318
L43.3493 -20.1897
L43.0479 -20.0666
L42.7452 -19.9489
L42.4411 -19.8365
L42.1359 -19.7293
L41.8296 -19.6273
L41.5223 -19.5304
L41.2142 -19.4387
L40.9054 -19.3521
L40.5958 -19.2705
L40.2857 -19.1939
L39.9751 -19.1223
L39.664 -19.0557
L39.3527 -18.9939
L39.0411 -18.9369
L38.7293 -18.8848
L38.4174 -18.8374
L38.1055 -18.7947
L37.7936 -18.7567
L37.4818 -18.7233
L37.1702 -18.6946
L36.8587 -18.6704
L36.5475 -18.6507
L36.2366 -18.6355
L35.9261 -18.6247
L35.6159 -18.6183
L35.3062 -18.6163
L34.997 -18.6187
L34.6884 -18.6254
L34.3803 -18.6363
L34.0728 -18.6515
L33.7659 -18.6709
L33.4598 -18.6945
L33.1543 -18.7222
L32.8496 -18.7541
L32.5457 -18.7901
L32.2426 -18.8302
L31.9403 -18.8744
L31.6388 -18.9226
L31.3383 -18.9749
L31.0387 -19.0312
L30.7401 -19.0914
L30.4424 -19.1557
L30.1457 -19.224
L29.85 -19.2962
L29.5554 -19.3723
L29.2619 -19.4524
L28.9695 -19.5365
L28.6782 -19.6245
L28.3881 -19.7164
L28.0991 -19.8122
L27.8114 -19.9119
L27.5249 -20.0156
L27.2397 -20.1232
L26.9558 -20.2347
L26.6732 -20.3502
L26.392 -20.4696
L26.1122 -20.5929
L25.8338 -20.7201
L25.5569 -20.8513
L25.2814 -20.9865
L25.0076 -21.1256
L24.7353 -21.2687
L24.4646 -21.4158
L24.1956 -21.5669
L23.9283 -21.7219
L23.6627 -21.881
L23.399 -22.0441
L23.1371 -22.2113
L22.8771 -22.3825
L22.6191 -22.5578
L22.3631 -22.7371
L22.1091 -22.9206
L21.8573 -23.1081
L21.6077 -23.2998
L21.3604 -23.4956
L21.1154 -23.6955
L20.8728 -23.8996
L20.6327 -24.1078
L20.3951 -24.3202
L20.1602 -24.5368
L19.928 -24.7576
L19.6986 -24.9826
L19.4721 -25.2117
L19.2486 -25.4451
L19.0282 -25.6827
L18.811 -25.9244
L18.597 -26.1704
L18.3865 -26.4205
L18.1794 -26.6748
L17.976 -26.9333
L17.7762 -27.196
L17.5803 -27.4628
L17.3884 -27.7337
L17.2005 -28.0086
L17.0168 -28.2877
L16.8375 -28.5708
L16.6626 -28.8578
L16.4923 -29.1488
L16.3267 -29.4437
L16.166 -29.7425
L16.0103 -30.045
L15.8597 -30.3513
L15.7144 -30.6613
L15.5746 -30.9748
L15.4403 -31.2918
L15.3117 -31.6122
L15.1889 -31.936
L15.0722 -32.263
L14.9616 -32.5931
L14.8573 -32.9262
L14.7595 -33.2622
L14.6682 -33.6009
L14.5836 -33.9423
L14.5058 -34.2861
L14.435 -34.6323
L14.3714 -34.9806
L14.3149 -35.3309
L14.2658 -35.6831
L14.2242 -36.0369
L14.1902 -36.3922
L14.1638 -36.7488
L14.1452 -37.1064
L14.1345 -37.465
L14.1318 -37.8242
L14.1371 -38.1838
L14.1504 -38.5437
L14.1719 -38.9037
L14.2017 -39.2634
L14.2396 -39.6227
L14.2858 -39.9812
L14.3403 -40.3389
L14.4031 -40.6955
L14.4742 -41.0506
L14.5536 -41.4042
L14.6412 -41.7559
L14.737 -42.1055
L14.841 -42.4527
L14.9531 -42.7974
L15.0733 -43.1393
L15.2014 -43.4782
L15.3373 -43.8139
L15.481 -44.1461
L15.6324 -44.4746
L15.7913 -44.7993
L15.9576 -45.1199
L16.1311 -45.4362
L16.3118 -45.7481
L16.4994 -46.0554
L16.6938 -46.3578
L16.8949 -46.6554
L17.1024 -46.9478
L17.3161 -47.235
L17.536 -47.5168
L17.7617 -47.7931
L17.9932 -48.0638
L18.2301 -48.3288
L18.4724 -48.588
L18.7198 -48.8412
L18.972 -49.0885
L19.229 -49.3298
L19.4905 -49.5649
L19.7563 -49.7939
L20.0262 -50.0167
L20.3 -50.2333
L20.5776 -50.4436
L20.8586 -50.6476
L21.143 -50.8453
L21.4305 -51.0367
L21.7209 -51.2219
L22.0141 -51.4007
L22.31 -51.5733
L22.6082 -51.7396
L22.9087 -51.8996
L23.2112 -52.0535
L23.5157 -52.2012
L23.8219 -52.3427
L24.1298 -52.4781
L24.4391 -52.6075
L24.7498 -52.7309
L25.0616 -52.8483
L25.3745 -52.9598
L25.6883 -53.0655
L26.0029 -53.1653
L26.3182 -53.2595
L26.6341 -53.3479
L26.9504 -53.4308
L27.2671 -53.508
L27.5841 -53.5798
L27.9012 -53.6462
L28.2184 -53.7072
L28.5356 -53.7629
L28.8526 -53.8133
L29.1695 -53.8586
L29.4862 -53.8988
L29.8025 -53.9339
L30.1185 -53.964
L30.4339 -53.9893
L30.7489 -54.0096
L31.0633 -54.0252
L31.3771 -54.036
L31.6901 -54.0421
L32.0025 -54.0436
L32.3141 -54.0405
L32.6248 -54.0328
L32.9347 -54.0208
L33.2437 -54.0043
L33.5517 -53.9834
L33.8588 -53.9582
L34.1648 -53.9287
L34.4699 -53.8951
L34.7738 -53.8572
L35.0766 -53.8152
L35.3783 -53.7691
L35.6789 -53.7189
L35.9782 -53.6647
L36.2764 -53.6065
L36.5733 -53.5444
L36.869 -53.4783
L37.1634 -53.4083
L37.4566 -53.3345
L37.7484 -53.2569
L38.0388 -53.1754
L38.3279 -53.0902
L38.6157 -53.0012
L38.902 -52.9084
L39.1869 -52.812
L39.4704 -52.7118
z
" id="C0_1_6413bbdce4"/>
    </defs>
    <g clip-path="url(#p1bffca34e9)">
     <use style="fill:#ffffff;stroke:#000000;stroke-width:2.0;" x="0.0" xlink:href="#C0_0_a811fe30f3" y="72.0"/>
    </g>
    <g clip-path="url(#p1bffca34e9)">
     <use style="fill:#ff0000;stroke:#000000;stroke-width:2.0;" x="0.0" xlink:href="#C0_1_6413bbdce4" y="72.0"/>
    </g>
   </g>
  </g>
 </g>
 <defs>
  <clipPath id="p1bffca34e9">
   <rect height="72.0" width="72.0" x="0.0" y="0.0"/>
  </clipPath>
 </defs>
</svg>
