<?xml version="1.0" encoding="utf-8" standalone="no"?>
<!DOCTYPE svg PUBLIC "-//W3C//DTD SVG 1.1//EN"
  "http://www.w3.org/Graphics/SVG/1.1/DTD/svg11.dtd">
<!-- Created with matplotlib (http://matplotlib.org/) -->
<svg height="72pt" version="1.1" viewBox="0 0 72 72" width="72pt" xmlns="http://www.w3.org/2000/svg" xmlns:xlink="http://www.w3.org/1999/xlink">
 <defs>
  <style type="text/css">
*{stroke-linecap:butt;stroke-linejoin:round;}
  </style>
 </defs>
 <g id="figure_1">
  <g id="patch_1">
   <path d="
M0 72
L72 72
L72 0
L0 0
z
" style="fill:none;"/>
  </g>
  <g id="axes_1">
   <g id="PatchCollection_1">
    <defs>
     <path d="
M36 -7.5
C43.5583 -7.5 50.808 -10.5029 56.1525 -15.8475
C61.4971 -21.192 64.5 -28.4417 64.5 -36
C64.5 -43.5583 61.4971 -50.808 56.1525 -56.1525
C50.808 -61.4971 43.5583 -64.5 36 -64.5
C28.4417 -64.5 21.192 -61.4971 15.8475 -56.1525
C10.5029 -50.808 7.5 -43.5583 7.5 -36
C7.5 -28.4417 10.5029 -21.192 15.8475 -15.8475
C21.192 -10.5029 28.4417 -7.5 36 -7.5
z
" id="C0_0_a811fe30f3"/>
     <path d="
M24.4034 -10.1171
L24.3294 -10.4477
L24.2425 -10.7898
L24.1461 -11.1413
L24.0434 -11.5009
L23.9368 -11.8671
L23.828 -12.2387
L23.7188 -12.6147
L23.6103 -12.9943
L23.5036 -13.3767
L23.3993 -13.7611
L23.2981 -14.147
L23.2004 -14.5339
L23.1066 -14.9212
L23.017 -15.3085
L22.9316 -15.6955
L22.8507 -16.0817
L22.7743 -16.4669
L22.7025 -16.8508
L22.6352 -17.2331
L22.5724 -17.6136
L22.514 -17.9921
L22.46 -18.3684
L22.4104 -18.7424
L22.3649 -19.1139
L22.3236 -19.4827
L22.2863 -19.8489
L22.2529 -20.2123
L22.2232 -20.5727
L22.1973 -20.9303
L22.1749 -21.2848
L22.1559 -21.6363
L22.1402 -21.9848
L22.1278 -22.3301
L22.1185 -22.6724
L22.1121 -23.0115
L22.1087 -23.3476
L22.1081 -23.6806
L22.1101 -24.0105
L22.1147 -24.3374
L22.1219 -24.6613
L22.1314 -24.9822
L22.1433 -25.3002
L22.1574 -25.6153
L22.1737 -25.9276
L22.1921 -26.237
L22.2125 -26.5437
L22.2349 -26.8477
L22.2592 -27.1491
L22.2853 -27.4479
L22.3132 -27.7442
L22.3428 -28.0381
L22.3741 -28.3295
L22.407 -28.6187
L22.4416 -28.9055
L22.4776 -29.1902
L22.5152 -29.4728
L22.5542 -29.7533
L22.5947 -30.0318
L22.6365 -30.3083
L22.6798 -30.583
L22.7244 -30.856
L22.7703 -31.1272
L22.8176 -31.3967
L22.8661 -31.6647
L22.9159 -31.9311
L22.9669 -32.1961
L23.0192 -32.4597
L23.0727 -32.722
L23.1275 -32.9831
L23.1834 -33.2429
L23.2406 -33.5017
L23.299 -33.7593
L23.3585 -34.016
L23.4193 -34.2718
L23.4813 -34.5267
L23.5445 -34.7809
L23.6089 -35.0343
L23.6746 -35.287
L23.7414 -35.5391
L23.8095 -35.7907
L23.8789 -36.0418
L24.0213 -36.2925
L24.0945 -36.5429
L24.169 -36.7929
L24.2448 -37.0428
L24.322 -37.2924
L24.4005 -37.542
L24.4804 -37.7915
L24.5617 -38.041
L24.6445 -38.2906
L24.7287 -38.5403
L24.8145 -38.7902
L24.9018 -39.0403
L24.9906 -39.2908
L25.081 -39.5416
L25.1731 -39.7929
L25.2668 -40.0446
L25.3623 -40.2968
L25.4595 -40.5497
L25.5585 -40.8032
L25.6593 -41.0574
L25.762 -41.3123
L25.8666 -41.5681
L25.9733 -41.8247
L26.0819 -42.0823
L26.1926 -42.3408
L26.3055 -42.6003
L26.4205 -42.8609
L26.5378 -43.1226
L26.6574 -43.3855
L26.7794 -43.6496
L26.9038 -43.915
L27.0307 -44.1817
L27.1602 -44.4497
L27.2923 -44.7191
L27.4271 -44.9899
L27.5647 -45.2622
L27.7052 -45.536
L27.8486 -45.8113
L27.9949 -46.0882
L28.1444 -46.3666
L28.297 -46.6467
L28.4529 -46.9284
L28.612 -47.2117
L28.7746 -47.4968
L28.9406 -47.7834
L29.1102 -48.0718
L29.2835 -48.3618
L29.4605 -48.6535
L29.6412 -48.9468
L29.8259 -49.2418
L30.0145 -49.5383
L30.2072 -49.8365
L30.4039 -50.1362
L30.6049 -50.4374
L30.81 -50.74
L31.0195 -51.044
L31.2333 -51.3493
L31.4515 -51.6559
L31.6741 -51.9635
L31.9012 -52.2723
L32.1327 -52.5819
L32.3687 -52.8924
L32.6091 -53.2036
L32.8539 -53.5153
L33.1031 -53.8274
L33.3565 -54.1397
L33.614 -54.4521
L33.8755 -54.7644
L34.1409 -55.0763
L34.4098 -55.3878
L34.6819 -55.6985
L34.957 -56.0083
L35.2345 -56.317
L35.514 -56.6243
L35.7948 -56.93
L36.0761 -57.2339
L36.357 -57.5358
L36.6364 -57.8355
L36.9128 -58.1327
L37.1846 -58.4275
L37.4498 -58.7195
L37.7059 -59.0088
L37.95 -59.2953
L38.1786 -59.579
L38.3873 -59.8602
L38.5715 -60.1388
L38.7257 -60.4152
L38.8441 -60.6898
L38.9211 -60.9629
L38.9516 -61.2349
L38.9317 -61.5058
L38.8594 -61.7758
L38.7346 -62.0446
L38.5592 -62.3115
L38.3366 -62.5757
L38.0711 -62.8363
L37.7674 -63.0921
L37.4302 -63.3419
L37.0638 -63.5847
L36.6721 -63.8195
L36.2584 -64.0455
L35.8258 -64.2618
L35.3282 -64.4679
L34.8311 -64.4921
L34.3343 -64.476
L33.838 -64.4513
L33.3424 -64.4179
L32.8475 -64.3758
L32.3537 -64.3251
L31.8609 -64.2658
L31.3694 -64.1978
L30.8794 -64.1213
L30.3908 -64.0362
L29.904 -63.9426
L29.4191 -63.8404
L28.9361 -63.7298
L28.4553 -63.6107
L27.9768 -63.4832
L27.5008 -63.3474
L27.0273 -63.2032
L26.5566 -63.0507
L26.0887 -62.89
L25.6239 -62.7211
L25.1622 -62.544
L24.7038 -62.3589
L24.2489 -62.1658
L23.7975 -61.9646
L23.3499 -61.7556
L22.9061 -61.5387
L22.4663 -61.314
L22.0307 -61.0817
L21.5992 -60.8416
L21.1722 -60.5941
L20.7497 -60.339
L20.3318 -60.0765
L19.9187 -59.8067
L19.5105 -59.5296
L19.1073 -59.2454
L18.7093 -58.954
L18.3165 -58.6557
L17.9292 -58.3505
L17.5473 -58.0385
L17.171 -57.7198
L16.8005 -57.3944
L16.4359 -57.0625
L16.0772 -56.7242
L15.7245 -56.3797
L15.3781 -56.0288
L15.0379 -55.6719
L14.7041 -55.309
L14.3768 -54.9403
L14.056 -54.5657
L13.742 -54.1855
L13.4347 -53.7998
L13.1344 -53.4086
L12.8409 -53.0121
L12.5546 -52.6105
L12.2753 -52.2038
L12.0034 -51.7921
L11.7387 -51.3757
L11.4814 -50.9545
L11.2315 -50.5288
L10.9893 -50.0987
L10.7546 -49.6643
L10.5276 -49.2257
L10.3084 -48.7831
L10.097 -48.3366
L9.89351 -47.8863
L9.69796 -47.4325
L9.51042 -46.9751
L9.33096 -46.5144
L9.15961 -46.0505
L8.99645 -45.5835
L8.8415 -45.1136
L8.69484 -44.641
L8.55648 -44.1657
L8.42649 -43.6879
L8.3049 -43.2077
L8.19174 -42.7254
L8.08706 -42.2411
L7.99087 -41.7548
L7.90322 -41.2668
L7.82413 -40.7771
L7.75362 -40.286
L7.69171 -39.7937
L7.63843 -39.3001
L7.59378 -38.8056
L7.55779 -38.3102
L7.53046 -37.814
L7.51181 -37.3174
L7.50183 -36.8203
L7.50053 -36.323
L7.50792 -35.8256
L7.52398 -35.3282
L7.54872 -34.8311
L7.58212 -34.3343
L7.62418 -33.838
L7.67489 -33.3424
L7.73422 -32.8475
L7.80216 -32.3537
L7.87869 -31.8609
L7.96379 -31.3694
L8.05743 -30.8794
L8.15958 -30.3908
L8.2702 -29.904
L8.38928 -29.4191
L8.51677 -28.9361
L8.65263 -28.4553
L8.79681 -27.9768
L8.94929 -27.5008
L9.11 -27.0273
L9.27891 -26.5566
L9.45596 -26.0887
L9.64109 -25.6239
L9.83425 -25.1622
L10.0354 -24.7038
L10.2444 -24.2489
L10.4613 -23.7975
L10.686 -23.3499
L10.9183 -22.9061
L11.1584 -22.4663
L11.4059 -22.0307
L11.661 -21.5992
L11.9235 -21.1722
L12.1933 -20.7497
L12.4704 -20.3318
L12.7546 -19.9187
L13.046 -19.5105
L13.3443 -19.1073
L13.6495 -18.7093
L13.9615 -18.3165
L14.2802 -17.9292
L14.6056 -17.5473
L14.9375 -17.171
L15.2758 -16.8005
L15.6203 -16.4359
L15.9712 -16.0772
L16.3281 -15.7245
L16.691 -15.3781
L17.0597 -15.0379
L17.4343 -14.7041
L17.8145 -14.3768
L18.2002 -14.056
L18.5914 -13.742
L18.9879 -13.4347
L19.3895 -13.1344
L19.7962 -12.8409
L20.2079 -12.5546
L20.6243 -12.2753
L21.0455 -12.0034
L21.4712 -11.7387
L21.9013 -11.4814
L22.3357 -11.2315
L22.7743 -10.9893
L23.2169 -10.7546
L23.6634 -10.5276
z
" id="C0_1_62dff701b7"/>
     <path d="
M36.6158 -7.67769
L37.0586 -7.89243
L37.5011 -8.11332
L37.9415 -8.34033
L38.3787 -8.57336
L38.8116 -8.81223
L39.2393 -9.05672
L39.661 -9.30658
L40.0762 -9.5615
L40.4845 -9.8212
L40.8854 -10.0854
L41.2787 -10.3536
L41.6641 -10.6257
L42.0415 -10.9013
L42.4108 -11.1801
L42.7719 -11.4617
L43.1247 -11.746
L43.4694 -12.0325
L43.8059 -12.321
L44.1342 -12.6113
L44.4545 -12.9032
L44.7669 -13.1963
L45.0713 -13.4904
L45.3681 -13.7855
L45.6572 -14.0812
L45.9389 -14.3774
L46.2132 -14.674
L46.4803 -14.9707
L46.7405 -15.2675
L46.9937 -15.5642
L47.2402 -15.8606
L47.4802 -16.1568
L47.7138 -16.4526
L47.9411 -16.7479
L48.1624 -17.0426
L48.3777 -17.3367
L48.5872 -17.6302
L48.7912 -17.9229
L48.9896 -18.2148
L49.1828 -18.5059
L49.3707 -18.7962
L49.5536 -19.0856
L49.7316 -19.3742
L49.9049 -19.6619
L50.0735 -19.9486
L50.2375 -20.2345
L50.3972 -20.5195
L50.5526 -20.8037
L50.7039 -21.0869
L50.8511 -21.3693
L50.9944 -21.6509
L51.1338 -21.9317
L51.2695 -22.2117
L51.4016 -22.4909
L51.5301 -22.7694
L51.6552 -23.0472
L51.7769 -23.3244
L51.8953 -23.6009
L52.0106 -23.8769
L52.1226 -24.1523
L52.2317 -24.4272
L52.3377 -24.7017
L52.4408 -24.9757
L52.5411 -25.2494
L52.6385 -25.5228
L52.7332 -25.7959
L52.8252 -26.0687
L52.9146 -26.3415
L53.0014 -26.6141
L53.0856 -26.8866
L53.1674 -27.1591
L53.2466 -27.4317
L53.3235 -27.7044
L53.3979 -27.9772
L53.47 -28.2503
L53.5398 -28.5236
L53.6072 -28.7973
L53.6723 -29.0714
L53.7352 -29.3459
L53.7959 -29.6209
L53.8543 -29.8965
L53.9105 -30.1727
L53.9645 -30.4496
L54.0162 -30.7273
L54.0658 -31.0058
L54.1132 -31.2852
L54.1584 -31.5656
L54.2014 -31.847
L54.2422 -32.1294
L54.2808 -32.413
L54.3172 -32.6979
L54.3513 -32.984
L54.3832 -33.2714
L54.4129 -33.5603
L54.4402 -33.8507
L54.4652 -34.1426
L54.4879 -34.4361
L54.5082 -34.7314
L54.5261 -35.0284
L54.5416 -35.3272
L54.5545 -35.6279
L54.565 -35.9306
L54.5728 -36.2353
L54.5781 -36.5422
L54.5806 -36.8512
L54.5804 -37.1625
L54.5774 -37.476
L54.5716 -37.792
L54.5628 -38.1104
L54.551 -38.4313
L54.5362 -38.7548
L54.5181 -39.0809
L54.4968 -39.4097
L54.4722 -39.7412
L54.4442 -40.0756
L54.4126 -40.4128
L54.3774 -40.7529
L54.3385 -41.096
L54.2957 -41.4422
L54.249 -41.7913
L54.1982 -42.1436
L54.1432 -42.4989
L54.0839 -42.8574
L54.0201 -43.2191
L53.9517 -43.5839
L53.8787 -43.952
L53.8007 -44.3232
L53.7178 -44.6976
L53.6297 -45.0752
L53.5363 -45.456
L53.4375 -45.8398
L53.333 -46.2267
L53.2229 -46.6167
L53.1068 -47.0095
L52.9847 -47.4053
L52.8564 -47.8038
L52.7218 -48.2049
L52.5808 -48.6086
L52.4332 -49.0147
L52.2789 -49.423
L52.1178 -49.8334
L51.9498 -50.2457
L51.775 -50.6595
L51.5931 -51.0748
L51.4042 -51.4913
L51.2084 -51.9086
L51.0056 -52.3265
L50.7961 -52.7446
L50.5798 -53.1626
L50.3572 -53.5801
L50.1284 -53.9966
L49.8938 -54.4118
L49.6541 -54.8252
L49.4098 -55.2363
L49.1618 -55.6445
L48.911 -56.0491
L48.6588 -56.4497
L48.4067 -56.8455
L48.1567 -57.2358
L47.9111 -57.6197
L47.6728 -57.9964
L47.4454 -58.3649
L47.2329 -58.7242
L47.0401 -59.0731
L46.8725 -59.4104
L46.7358 -59.735
L46.6356 -60.0457
L46.5772 -60.3415
L46.5643 -60.6215
L46.5991 -60.8853
L46.6818 -61.1327
L46.8105 -61.3639
L46.9819 -61.5791
L47.1919 -61.7788
L47.9414 -61.9637
L48.3912 -61.8777
L48.8372 -61.6653
L49.2793 -61.4452
L49.7174 -61.2172
L50.1513 -60.9816
L50.5809 -60.7384
L51.0061 -60.4877
L51.4266 -60.2295
L51.8425 -59.9639
L52.2536 -59.691
L52.6597 -59.4109
L53.0607 -59.1237
L53.4565 -58.8294
L53.847 -58.5282
L54.2321 -58.2201
L54.6116 -57.9052
L54.9855 -57.5837
L55.3536 -57.2556
L55.7157 -56.921
L56.0719 -56.5801
L56.422 -56.2329
L56.7658 -55.8795
L57.1033 -55.52
L57.4344 -55.1546
L57.7589 -54.7834
L58.0769 -54.4065
L58.3881 -54.0239
L58.6924 -53.6359
L58.9899 -53.2425
L59.2804 -52.8438
L59.5637 -52.44
L59.8399 -52.0312
L60.1089 -51.6175
L60.3705 -51.1991
L60.6246 -50.776
L60.8713 -50.3484
L61.1104 -49.9165
L61.3418 -49.4803
L61.5655 -49.04
L61.7815 -48.5958
L61.9895 -48.1477
L62.1897 -47.6959
L62.3819 -47.2405
L62.566 -46.7817
L62.7421 -46.3197
L62.91 -45.8544
L63.0697 -45.3862
L63.2212 -44.9152
L63.3644 -44.4414
L63.4992 -43.965
L63.6257 -43.4862
L63.7437 -43.0051
L63.8533 -42.5219
L63.9544 -42.0368
L64.047 -41.5497
L64.1311 -41.061
L64.2066 -40.5708
L64.2735 -40.0791
L64.3318 -39.5862
L64.3814 -39.0922
L64.4224 -38.5973
L64.4548 -38.1016
L64.4784 -37.6052
L64.4934 -37.1084
L64.4998 -36.6112
L64.4974 -36.1138
L64.4864 -35.6164
L64.4667 -35.1191
L64.4383 -34.6221
L64.4012 -34.1255
L64.3555 -33.6295
L64.3012 -33.1341
L64.2383 -32.6397
L64.1667 -32.1463
L64.0866 -31.6541
L63.9979 -31.1631
L63.9006 -30.6737
L63.7949 -30.1859
L63.6807 -29.6998
L63.5581 -29.2157
L63.4271 -28.7336
L63.2877 -28.2538
L63.1401 -27.7763
L62.9841 -27.3013
L62.82 -26.829
L62.6476 -26.3594
L62.4672 -25.8928
L62.2786 -25.4293
L62.0821 -24.969
L61.8777 -24.5121
L61.6653 -24.0586
L61.4452 -23.6088
L61.2172 -23.1628
L60.9816 -22.7207
L60.7384 -22.2826
L60.4877 -21.8487
L60.2295 -21.4191
L59.9639 -20.9939
L59.691 -20.5734
L59.4109 -20.1575
L59.1237 -19.7464
L58.8294 -19.3403
L58.5282 -18.9393
L58.2201 -18.5435
L57.9052 -18.153
L57.5837 -17.7679
L57.2556 -17.3884
L56.921 -17.0145
L56.5801 -16.6464
L56.2329 -16.2843
L55.8795 -15.9281
L55.52 -15.578
L55.1546 -15.2342
L54.7834 -14.8967
L54.4065 -14.5656
L54.0239 -14.2411
L53.6359 -13.9231
L53.2425 -13.6119
L52.8438 -13.3076
L52.44 -13.0101
L52.0312 -12.7196
L51.6175 -12.4363
L51.1991 -12.1601
L50.776 -11.8911
L50.3484 -11.6295
L49.9165 -11.3754
L49.4803 -11.1287
L49.04 -10.8896
L48.5958 -10.6582
L48.1477 -10.4345
L47.6959 -10.2185
L47.2405 -10.0105
L46.7817 -9.81029
L46.3197 -9.6181
L45.8544 -9.43395
L45.3862 -9.2579
L44.9152 -9.08999
L44.4414 -8.93027
L43.965 -8.77881
L43.4862 -8.63563
L43.0051 -8.50079
L42.5219 -8.37432
L42.0368 -8.25628
L41.5497 -8.14668
L41.061 -8.04556
L40.5708 -7.95297
L40.0791 -7.86891
L39.5862 -7.79342
L39.0922 -7.72653
L38.5973 -7.66825
L38.1016 -7.6186
L37.6052 -7.57759
z
" id="C0_2_951e3d6aa3"/>
    </defs>
    <g clip-path="url(#p1bffca34e9)">
     <use style="fill:#ffffff;stroke:#000000;stroke-width:2.0;" x="0.0" xlink:href="#C0_0_a811fe30f3" y="72.0"/>
    </g>
    <g clip-path="url(#p1bffca34e9)">
     <use style="fill:#ff0000;stroke:#000000;stroke-width:2.0;" x="0.0" xlink:href="#C0_1_62dff701b7" y="72.0"/>
    </g>
    <g clip-path="url(#p1bffca34e9)">
     <use style="fill:#ff0000;stroke:#000000;stroke-width:2.0;" x="0.0" xlink:href="#C0_2_951e3d6aa3" y="72.0"/>
    </g>
   </g>
  </g>
 </g>
 <defs>
  <clipPath id="p1bffca34e9">
   <rect height="72.0" width="72.0" x="0.0" y="0.0"/>
  </clipPath>
 </defs>
</svg>
