<?xml version="1.0" encoding="utf-8" standalone="no"?>
<!DOCTYPE svg PUBLIC "-//W3C//DTD SVG 1.1//EN"
  "http://www.w3.org/Graphics/SVG/1.1/DTD/svg11.dtd">
<!-- Created with matplotlib (http://matplotlib.org/) -->
<svg height="72pt" version="1.1" viewBox="0 0 72 72" width="72pt" xmlns="http://www.w3.org/2000/svg" xmlns:xlink="http://www.w3.org/1999/xlink">
 <defs>
  <style type="text/css">
*{stroke-linecap:butt;stroke-linejoin:round;}
  </style>
 </defs>
 <g id="figure_1">
  <g id="patch_1">
   <path d="
M0 72
L72 72
L72 0
L0 0
z
" style="fill:none;"/>
  </g>
  <g id="axes_1">
   <g id="PatchCollection_1">
    <defs>
     <path d="
M36 -7.5
C43.5583 -7.5 50.808 -10.5029 56.1525 -15.8475
C61.4971 -21.192 64.5 -28.4417 64.5 -36
C64.5 -43.5583 61.4971 -50.808 56.1525 -56.1525
C50.808 -61.4971 43.5583 -64.5 36 -64.5
C28.4417 -64.5 21.192 -61.4971 15.8475 -56.1525
C10.5029 -50.808 7.5 -43.5583 7.5 -36
C7.5 -28.4417 10.5029 -21.192 15.8475 -15.8475
C21.192 -10.5029 28.4417 -7.5 36 -7.5
z
" id="C0_0_a811fe30f3"/>
     <path d="
M64.4415 -37.3091
L64.2238 -37.547
L63.9973 -37.758
L63.7628 -37.9426
L63.5209 -38.1014
L63.272 -38.2353
L63.0169 -38.3454
L62.756 -38.4331
L62.4899 -38.4997
L62.2189 -38.5468
L61.9435 -38.5758
L61.6642 -38.5883
L61.3812 -38.5858
L61.095 -38.5697
L60.8059 -38.5414
L60.5142 -38.5021
L60.2202 -38.453
L59.9242 -38.3953
L59.6263 -38.3298
L59.327 -38.2576
L59.0264 -38.1794
L58.7247 -38.096
L58.4222 -38.0082
L58.119 -37.9164
L57.8154 -37.8213
L57.5115 -37.7234
L57.2075 -37.6231
L56.9036 -37.5207
L56.5999 -37.4167
L56.2965 -37.3114
L55.9936 -37.205
L55.6913 -37.0979
L55.3898 -36.9902
L55.089 -36.8821
L54.7892 -36.7738
L54.4904 -36.6655
L54.1926 -36.5573
L53.896 -36.4493
L53.6007 -36.3417
L53.3066 -36.2344
L53.0138 -36.1277
L52.7224 -36.0216
L52.4324 -35.9162
L52.1438 -35.8114
L51.8567 -35.7074
L51.5711 -35.6041
L51.287 -35.5017
L51.0044 -35.4001
L50.7233 -35.2994
L50.4437 -35.1996
L50.1656 -35.1006
L49.889 -35.0026
L49.614 -34.9054
L49.3403 -34.8092
L49.0682 -34.7138
L48.7975 -34.6194
L48.5282 -34.5258
L48.2603 -34.4332
L47.9938 -34.3414
L47.7286 -34.2505
L47.4647 -34.1605
L47.2021 -34.0713
L46.9407 -33.9829
L46.6805 -33.8954
L46.4215 -33.8086
L46.1636 -33.7227
L45.9068 -33.6375
L45.651 -33.5531
L45.3962 -33.4694
L45.1424 -33.3864
L44.8895 -33.3042
L44.6374 -33.2226
L44.3862 -33.1417
L44.1358 -33.0614
L43.886 -32.9818
L43.637 -32.9027
L43.3886 -32.8243
L43.1407 -32.7465
L42.8934 -32.6692
L42.6466 -32.5924
L42.4002 -32.5162
L42.1542 -32.4405
L41.9085 -32.3652
L41.6631 -32.2904
L41.4179 -32.2161
L41.1729 -32.1422
L40.928 -32.0688
L40.6832 -31.9957
L40.4384 -31.923
L40.1936 -31.8507
L39.7037 -31.7787
L39.4584 -31.7071
L39.213 -31.6358
L38.9672 -31.5648
L38.7211 -31.4941
L38.4746 -31.4236
L38.2276 -31.3535
L37.9801 -31.2835
L37.7321 -31.2138
L37.4834 -31.1443
L37.2341 -31.075
L36.984 -31.0059
L36.7332 -30.937
L36.4815 -30.8682
L36.2289 -30.7996
L35.9754 -30.7312
L35.7209 -30.6628
L35.4654 -30.5945
L35.2087 -30.5264
L34.9509 -30.4583
L34.6919 -30.3904
L34.4317 -30.3224
L34.1701 -30.2546
L33.9071 -30.1867
L33.6427 -30.1189
L33.3769 -30.0512
L33.1096 -29.9834
L32.8406 -29.9156
L32.5701 -29.8478
L32.2979 -29.78
L32.024 -29.7122
L31.7484 -29.6443
L31.4709 -29.5764
L31.1917 -29.5084
L30.9105 -29.4404
L30.6275 -29.3722
L30.3425 -29.304
L30.0555 -29.2357
L29.7665 -29.1672
L29.4755 -29.0987
L29.1824 -29.03
L28.8873 -28.9612
L28.5901 -28.8922
L28.2908 -28.8231
L27.9893 -28.7538
L27.6858 -28.6843
L27.3802 -28.6146
L27.0726 -28.5447
L26.7628 -28.4745
L26.4511 -28.4041
L26.1373 -28.3334
L25.8216 -28.2624
L25.504 -28.1911
L25.1846 -28.1194
L24.8634 -28.0472
L24.5406 -27.9747
L24.2162 -27.9016
L23.8904 -27.8281
L23.5633 -27.7539
L23.235 -27.679
L22.9058 -27.6034
L22.5757 -27.527
L22.2451 -27.4496
L21.914 -27.3711
L21.5829 -27.2915
L21.252 -27.2105
L20.9215 -27.1281
L20.5919 -27.0439
L20.2635 -26.9578
L19.9367 -26.8696
L19.6119 -26.7789
L19.2898 -26.6855
L18.9707 -26.5889
L18.6553 -26.4888
L18.3442 -26.3848
L18.0381 -26.2763
L17.7377 -26.1628
L17.444 -26.0437
L17.1576 -25.9183
L16.8796 -25.7859
L16.6108 -25.6458
L16.3525 -25.497
L16.1055 -25.3388
L15.871 -25.1702
L15.6502 -24.9903
L15.4441 -24.7983
L15.2538 -24.5932
L15.0804 -24.3743
L14.9249 -24.1409
L14.788 -23.8925
L14.6707 -23.6287
L14.5734 -23.3493
L14.4967 -23.0543
L14.4408 -22.7439
L14.4059 -22.4187
L14.3919 -22.0792
L14.3987 -21.7263
L14.4261 -21.361
L14.4736 -20.9843
L14.5408 -20.5975
L14.6272 -20.2018
L14.7321 -19.7985
L14.855 -19.3889
L14.9953 -18.9741
L15.1522 -18.5555
L15.3252 -18.1341
L15.5135 -17.7111
L15.7166 -17.2875
L15.9338 -16.8643
L16.1645 -16.4423
L16.408 -16.0225
L16.6638 -15.6057
L16.9665 -15.1924
L17.3396 -14.7874
L17.7184 -14.4584
L18.1028 -14.136
L18.4926 -13.8203
L18.8877 -13.5113
L19.2881 -13.2092
L19.6935 -12.914
L20.1039 -12.6259
L20.5192 -12.3449
L20.9392 -12.071
L21.3637 -11.8045
L21.7928 -11.5453
L22.2261 -11.2936
L22.6637 -11.0494
L23.1053 -10.8129
L23.5508 -10.5839
L24.0001 -10.3628
L24.4531 -10.1494
L24.9096 -9.94392
L25.3695 -9.74637
L25.8326 -9.55681
L26.2988 -9.37531
L26.768 -9.20192
L27.24 -9.03669
L27.7146 -8.87968
L28.1918 -8.73092
L28.6713 -8.59048
L29.1531 -8.45838
L29.637 -8.33467
L30.1228 -8.21939
L30.6104 -8.11257
L31.0996 -8.01425
L31.5904 -7.92445
L32.0825 -7.8432
L32.5757 -7.77053
L33.07 -7.70646
L33.5652 -7.65101
L34.0612 -7.60419
L34.5577 -7.56602
L35.0547 -7.53652
L35.552 -7.51568
L36.0494 -7.50352
L36.5467 -7.50004
L37.044 -7.50524
L37.5409 -7.51913
L38.0373 -7.54168
L38.5331 -7.57291
L39.0281 -7.6128
L39.5223 -7.66133
L40.0153 -7.71849
L40.5071 -7.78427
L40.9976 -7.85865
L41.4865 -7.94159
L41.9738 -8.03309
L42.4592 -8.1331
L42.9427 -8.2416
L43.424 -8.35855
L43.9031 -8.48393
L44.3798 -8.61769
L44.8539 -8.75979
L45.3253 -8.91018
L45.7939 -9.06883
L46.2596 -9.23568
L46.722 -9.41069
L47.1813 -9.59379
L47.6371 -9.78494
L48.0893 -9.98407
L48.5379 -10.1911
L48.9827 -10.406
L49.4235 -10.6288
L49.8602 -10.8592
L50.2927 -11.0973
L50.7209 -11.343
L51.1445 -11.5962
L51.5636 -11.8568
L51.9779 -12.1248
L52.3873 -12.4001
L52.7918 -12.6825
L53.1911 -12.9721
L53.5852 -13.2686
L53.974 -13.5721
L54.3572 -13.8824
L54.7349 -14.1995
L55.1069 -14.5232
L55.473 -14.8534
L55.8332 -15.1901
L56.1874 -15.5331
L56.5354 -15.8824
L56.8772 -16.2378
L57.2126 -16.5992
L57.5416 -16.9665
L57.864 -17.3396
L58.1797 -17.7184
L58.4887 -18.1028
L58.7908 -18.4926
L59.086 -18.8877
L59.3741 -19.2881
L59.6551 -19.6935
L59.929 -20.1039
L60.1955 -20.5192
L60.4547 -20.9392
L60.7064 -21.3637
L60.9506 -21.7928
L61.1871 -22.2261
L61.4161 -22.6637
L61.6372 -23.1053
L61.8506 -23.5508
L62.0561 -24.0001
L62.2536 -24.4531
L62.4432 -24.9096
L62.6247 -25.3695
L62.7981 -25.8326
L62.9633 -26.2988
L63.1203 -26.768
L63.2691 -27.24
L63.4095 -27.7146
L63.5416 -28.1918
L63.6653 -28.6713
L63.7806 -29.1531
L63.8874 -29.637
L63.9858 -30.1228
L64.0755 -30.6104
L64.1568 -31.0996
L64.2295 -31.5904
L64.2935 -32.0825
L64.349 -32.5757
L64.3958 -33.07
L64.434 -33.5652
L64.4635 -34.0612
L64.4843 -34.5577
L64.4965 -35.0547
L64.5 -35.552
L64.4948 -36.0494
z
" id="C0_1_bcd25c5484"/>
     <path d="
M55.0333 -57.1772
L54.5996 -57.4016
L54.1647 -57.6193
L53.7289 -57.8302
L53.2926 -58.0339
L52.8562 -58.2304
L52.42 -58.4195
L51.9842 -58.6012
L51.5492 -58.7753
L51.1153 -58.9419
L50.6826 -59.101
L50.2514 -59.2526
L49.8219 -59.3969
L49.3944 -59.5338
L48.9688 -59.6635
L48.5456 -59.7861
L48.1246 -59.9016
L47.7062 -60.0103
L47.2904 -60.1122
L46.8772 -60.2075
L46.4668 -60.2963
L46.0593 -60.3787
L45.6547 -60.455
L45.2531 -60.5252
L44.8544 -60.5895
L44.4588 -60.6481
L44.0662 -60.701
L43.6767 -60.7485
L43.2903 -60.7906
L42.9069 -60.8276
L42.5266 -60.8594
L42.1493 -60.8863
L41.7751 -60.9084
L41.4039 -60.9258
L41.0356 -60.9387
L40.6703 -60.9471
L40.308 -60.9511
L39.9484 -60.9508
L39.5918 -60.9465
L39.2379 -60.938
L38.8867 -60.9256
L38.5383 -60.9094
L38.1924 -60.8893
L37.8492 -60.8656
L37.5085 -60.8382
L37.1703 -60.8073
L36.8344 -60.7728
L36.501 -60.735
L36.1698 -60.6937
L35.8409 -60.6492
L35.5142 -60.6014
L35.1896 -60.5503
L34.8671 -60.4961
L34.5466 -60.4388
L34.228 -60.3783
L33.9113 -60.3148
L33.5965 -60.2483
L33.2834 -60.1787
L32.972 -60.1062
L32.6623 -60.0306
L32.3541 -59.9522
L32.0475 -59.8708
L31.7424 -59.7864
L31.4387 -59.6992
L31.1363 -59.609
L30.8353 -59.5159
L30.5355 -59.4198
L30.237 -59.3209
L29.9395 -59.219
L29.6432 -59.1141
L29.348 -59.0063
L29.0537 -58.8955
L28.7604 -58.7817
L28.468 -58.6649
L28.1764 -58.5451
L27.8857 -58.4221
L27.5957 -58.2961
L27.3065 -58.1669
L27.018 -58.0345
L26.7301 -57.8989
L26.4428 -57.76
L26.1561 -57.6179
L25.8699 -57.4723
L25.5842 -57.3234
L25.2991 -57.1711
L25.0143 -57.0152
L24.73 -56.8557
L24.4461 -56.6926
L24.1626 -56.5259
L23.8794 -56.3553
L23.5965 -56.181
L23.314 -56.0028
L23.0318 -55.8206
L22.7499 -55.6343
L22.4682 -55.444
L22.1869 -55.2494
L21.9058 -55.0506
L21.6251 -54.8474
L21.3446 -54.6398
L21.0644 -54.4277
L20.7846 -54.2109
L20.505 -53.9895
L20.2259 -53.7633
L19.9471 -53.5321
L19.6687 -53.2961
L19.3908 -53.0549
L19.1134 -52.8087
L18.8365 -52.5571
L18.5602 -52.3003
L18.2845 -52.038
L18.0095 -51.7703
L17.7353 -51.4969
L17.462 -51.2179
L17.1895 -50.9332
L16.9181 -50.6427
L16.6478 -50.3462
L16.3787 -50.0439
L16.1109 -49.7355
L15.8445 -49.4212
L15.5796 -49.1007
L15.3164 -48.7741
L15.0549 -48.4415
L14.7954 -48.1027
L14.5379 -47.7578
L14.2826 -47.4068
L14.0296 -47.0498
L13.7791 -46.6869
L13.5313 -46.3181
L13.2862 -45.9435
L13.0441 -45.5633
L12.805 -45.1777
L12.5691 -44.7868
L12.3366 -44.3909
L12.1076 -43.9903
L11.8822 -43.5853
L11.6605 -43.1763
L11.4425 -42.7636
L11.2284 -42.3478
L11.0182 -41.9294
L10.8119 -41.5089
L10.6094 -41.0871
L10.4108 -40.6646
L10.2158 -40.2422
L10.0244 -39.8209
L9.83634 -39.4016
L9.65136 -38.9853
L9.46913 -38.5732
L9.28929 -38.1664
L9.11137 -37.7663
L8.93488 -37.3741
L8.75926 -36.9912
L8.58391 -36.6192
L8.4082 -36.2592
L8.23146 -35.9129
L8.05306 -35.5815
L7.87237 -35.2662
L7.50513 -34.9681
L7.50003 -35.4591
L7.50362 -35.9565
L7.51588 -36.4539
L7.53682 -36.9512
L7.56643 -37.4482
L7.6047 -37.9447
L7.65162 -38.4406
L7.70717 -38.9358
L7.77134 -39.4301
L7.84412 -39.9234
L7.92546 -40.4154
L8.01536 -40.9062
L8.11379 -41.3954
L8.22071 -41.883
L8.33609 -42.3687
L8.4599 -42.8526
L8.59209 -43.3344
L8.73264 -43.8139
L8.88149 -44.291
L9.0386 -44.7656
L9.20393 -45.2376
L9.37741 -45.7067
L9.55901 -46.1729
L9.74866 -46.636
L9.94631 -47.0958
L10.1519 -47.5523
L10.3653 -48.0052
L10.5866 -48.4545
L10.8156 -48.9
L11.0523 -49.3415
L11.2966 -49.779
L11.5484 -50.2123
L11.8076 -50.6413
L12.0742 -51.0658
L12.3482 -51.4857
L12.6293 -51.9009
L12.9175 -52.3113
L13.2128 -52.7167
L13.515 -53.117
L13.824 -53.5121
L14.1398 -53.9018
L14.4623 -54.2861
L14.7913 -54.6649
L15.1268 -55.0379
L15.4686 -55.4051
L15.8167 -55.7665
L16.171 -56.1218
L16.5313 -56.471
L16.8975 -56.8139
L17.2695 -57.1505
L17.6473 -57.4807
L18.0306 -57.8043
L18.4194 -58.1213
L18.8136 -58.4315
L19.213 -58.7349
L19.6175 -59.0314
L20.027 -59.3209
L20.4414 -59.6032
L20.8605 -59.8784
L21.2842 -60.1463
L21.7124 -60.4069
L22.1449 -60.66
L22.5817 -60.9056
L23.0226 -61.1436
L23.4674 -61.3739
L23.916 -61.5965
L24.3683 -61.8114
L24.8242 -62.0183
L25.2834 -62.2174
L25.7459 -62.4084
L26.2116 -62.5914
L26.6802 -62.7663
L27.1517 -62.9331
L27.6259 -63.0916
L28.1026 -63.2419
L28.5817 -63.3839
L29.0631 -63.5176
L29.5466 -63.6429
L30.032 -63.7597
L30.5193 -63.8681
L31.0082 -63.968
L31.4987 -64.0594
L31.9905 -64.1423
L32.4836 -64.2166
L32.9777 -64.2822
L33.4728 -64.3393
L33.9686 -64.3877
L34.465 -64.4275
L34.9619 -64.4586
L35.4591 -64.4811
L35.9565 -64.4949
L36.4539 -64.5
L36.9512 -64.4964
L37.4482 -64.4841
L37.9447 -64.4632
L38.4406 -64.4336
L38.9358 -64.3953
L39.4301 -64.3484
L39.9234 -64.2928
L40.4154 -64.2287
L40.9062 -64.1559
L41.3954 -64.0745
L41.883 -63.9846
L42.3687 -63.8862
L42.8526 -63.7793
L43.3344 -63.6639
L43.8139 -63.5401
L44.291 -63.4079
L44.7656 -63.2674
L45.2376 -63.1185
L45.7067 -62.9614
L46.1729 -62.7961
L46.636 -62.6226
L47.0958 -62.441
L47.5523 -62.2513
L48.0052 -62.0537
L48.4545 -61.8481
L48.9 -61.6347
L49.3415 -61.4134
L49.779 -61.1844
L50.2123 -60.9477
L50.6413 -60.7034
L51.0658 -60.4516
L51.4857 -60.1924
L51.9009 -59.9258
L52.3113 -59.6518
L52.7167 -59.3707
L53.117 -59.0825
L53.5121 -58.7872
L53.9018 -58.485
L54.2861 -58.176
L54.6649 -57.8602
z
" id="C0_2_9c370d4733"/>
    </defs>
    <g clip-path="url(#p1bffca34e9)">
     <use style="fill:#ff0000;stroke:#000000;stroke-width:2.0;" x="0.0" xlink:href="#C0_0_a811fe30f3" y="72.0"/>
    </g>
    <g clip-path="url(#p1bffca34e9)">
     <use style="fill:#ffffff;stroke:#000000;stroke-width:2.0;" x="0.0" xlink:href="#C0_1_bcd25c5484" y="72.0"/>
    </g>
    <g clip-path="url(#p1bffca34e9)">
     <use style="fill:#ffffff;stroke:#000000;stroke-width:2.0;" x="0.0" xlink:href="#C0_2_9c370d4733" y="72.0"/>
    </g>
   </g>
  </g>
 </g>
 <defs>
  <clipPath id="p1bffca34e9">
   <rect height="72.0" width="72.0" x="0.0" y="0.0"/>
  </clipPath>
 </defs>
</svg>
