<?xml version="1.0" encoding="utf-8" standalone="no"?>
<!DOCTYPE svg PUBLIC "-//W3C//DTD SVG 1.1//EN"
  "http://www.w3.org/Graphics/SVG/1.1/DTD/svg11.dtd">
<!-- Created with matplotlib (http://matplotlib.org/) -->
<svg height="72pt" version="1.1" viewBox="0 0 72 72" width="72pt" xmlns="http://www.w3.org/2000/svg" xmlns:xlink="http://www.w3.org/1999/xlink">
 <defs>
  <style type="text/css">
*{stroke-linecap:butt;stroke-linejoin:round;}
  </style>
 </defs>
 <g id="figure_1">
  <g id="patch_1">
   <path d="
M0 72
L72 72
L72 0
L0 0
z
" style="fill:none;"/>
  </g>
  <g id="axes_1">
   <g id="PatchCollection_1">
    <defs>
     <path d="
M36 -7.5
C43.5583 -7.5 50.808 -10.5029 56.1525 -15.8475
C61.4971 -21.192 64.5 -28.4417 64.5 -36
C64.5 -43.5583 61.4971 -50.808 56.1525 -56.1525
C50.808 -61.4971 43.5583 -64.5 36 -64.5
C28.4417 -64.5 21.192 -61.4971 15.8475 -56.1525
C10.5029 -50.808 7.5 -43.5583 7.5 -36
C7.5 -28.4417 10.5029 -21.192 15.8475 -15.8475
C21.192 -10.5029 28.4417 -7.5 36 -7.5
z
" id="C0_0_a811fe30f3"/>
     <path d="
M49.3107 -61.0906
L49.4136 -60.8107
L49.5021 -60.5316
L49.5766 -60.2535
L49.6376 -59.9765
L49.6855 -59.7008
L49.7206 -59.4266
L49.7435 -59.154
L49.7547 -58.883
L49.7545 -58.6138
L49.7435 -58.3464
L49.7221 -58.0808
L49.6908 -57.8171
L49.6501 -57.5553
L49.6005 -57.2955
L49.5423 -57.0376
L49.4761 -56.7816
L49.4023 -56.5275
L49.3212 -56.2753
L49.2333 -56.0251
L49.139 -55.7767
L49.0387 -55.5301
L48.9327 -55.2854
L48.8213 -55.0425
L48.7049 -54.8014
L48.5838 -54.5621
L48.4583 -54.3244
L48.3287 -54.0885
L48.1953 -53.8542
L48.0582 -53.6216
L47.9178 -53.3907
L47.7743 -53.1613
L47.6279 -52.9334
L47.4788 -52.7071
L47.3272 -52.4824
L47.1733 -52.2591
L47.0172 -52.0373
L46.8591 -51.8169
L46.6991 -51.5979
L46.5374 -51.3803
L46.3742 -51.1641
L46.2095 -50.9492
L46.0434 -50.7356
L45.8761 -50.5233
L45.7077 -50.3123
L45.5382 -50.1025
L45.3677 -49.8939
L45.1963 -49.6865
L45.0242 -49.4802
L44.8512 -49.2751
L44.6776 -49.071
L44.5033 -48.8681
L44.3284 -48.6662
L44.153 -48.4654
L43.9771 -48.2655
L43.8008 -48.0666
L43.624 -47.8687
L43.4468 -47.6717
L43.2692 -47.4755
L43.0913 -47.2803
L42.913 -47.0859
L42.7345 -46.8923
L42.5556 -46.6995
L42.3765 -46.5074
L42.1971 -46.3161
L42.0174 -46.1255
L41.8374 -45.9356
L41.6572 -45.7463
L41.4767 -45.5576
L41.296 -45.3696
L41.115 -45.1821
L40.9337 -44.9951
L40.7522 -44.8087
L40.5704 -44.6227
L40.3883 -44.4373
L40.2059 -44.2522
L40.0232 -44.0676
L39.8401 -43.8833
L39.6567 -43.6994
L39.473 -43.5159
L39.2889 -43.3326
L39.1044 -43.1496
L38.9196 -42.9669
L38.7343 -42.7844
L38.5485 -42.6021
L38.1757 -42.42
L37.9885 -42.2381
L37.8008 -42.0563
L37.6126 -41.8746
L37.4237 -41.693
L37.2343 -41.5114
L37.0443 -41.3299
L36.8537 -41.1484
L36.6624 -40.9669
L36.4704 -40.7854
L36.2776 -40.6039
L36.0842 -40.4223
L35.8899 -40.2406
L35.6949 -40.0589
L35.499 -39.877
L35.3023 -39.695
L35.1047 -39.5129
L34.9062 -39.3306
L34.7068 -39.1481
L34.5064 -38.9655
L34.305 -38.7827
L34.1026 -38.5997
L33.8992 -38.4165
L33.6947 -38.2331
L33.489 -38.0494
L33.2823 -37.8656
L33.0744 -37.6815
L32.8652 -37.4973
L32.6549 -37.3128
L32.4434 -37.1281
L32.2305 -36.9432
L32.0164 -36.7582
L31.801 -36.5729
L31.5842 -36.3875
L31.366 -36.202
L31.1464 -36.0163
L30.9254 -35.8306
L30.703 -35.6448
L30.4791 -35.4589
L30.2537 -35.2731
L30.0268 -35.0873
L29.7983 -34.9016
L29.5683 -34.7161
L29.3367 -34.5307
L29.1036 -34.3456
L28.8688 -34.1609
L28.6324 -33.9765
L28.3944 -33.7927
L28.1547 -33.6094
L27.9134 -33.4267
L27.6703 -33.2448
L27.4256 -33.0638
L27.1793 -32.8838
L26.9312 -32.7049
L26.6814 -32.5272
L26.43 -32.3509
L26.1768 -32.1761
L25.9219 -32.003
L25.6654 -31.8318
L25.4071 -31.6627
L25.1472 -31.4958
L24.8856 -31.3314
L24.6223 -31.1696
L24.3574 -31.0107
L24.0908 -30.855
L23.8227 -30.7027
L23.5529 -30.554
L23.2816 -30.4092
L23.0087 -30.2687
L22.7344 -30.1327
L22.4585 -30.0016
L22.1813 -29.8756
L21.9026 -29.7551
L21.6226 -29.6404
L21.3414 -29.5319
L21.0589 -29.43
L20.7752 -29.3349
L20.4905 -29.2472
L20.2047 -29.167
L19.918 -29.0948
L19.6305 -29.0311
L19.3423 -28.976
L19.0535 -28.93
L18.7642 -28.8934
L18.4745 -28.8665
L18.1847 -28.8497
L17.8948 -28.8432
L17.605 -28.8474
L17.3156 -28.8624
L17.0266 -28.8884
L16.7383 -28.9257
L16.4509 -28.9744
L16.1647 -29.0347
L15.8798 -29.1066
L15.5965 -29.1902
L15.3151 -29.2855
L15.0357 -29.3925
L14.7587 -29.5112
L14.4843 -29.6414
L14.2127 -29.7831
L13.9442 -29.9361
L13.6792 -30.1003
L13.4177 -30.2754
L13.1601 -30.4613
L12.9066 -30.6577
L12.6575 -30.8644
L12.413 -31.081
L12.1732 -31.3073
L11.9385 -31.5429
L11.709 -31.7876
L11.4849 -32.0411
L11.2665 -32.303
L11.0537 -32.573
L10.8469 -32.8507
L10.6462 -33.1359
L10.4517 -33.4281
L10.2635 -33.7271
L10.0818 -34.0325
L9.90665 -34.3441
L9.73812 -34.6614
L9.57632 -34.9842
L9.42132 -35.3122
L9.27318 -35.6451
L9.13196 -35.9826
L8.9977 -36.3243
L8.87044 -36.6701
L8.7502 -37.0197
L8.63701 -37.3728
L8.53088 -37.7291
L8.43183 -38.0885
L8.33985 -38.4506
L8.25494 -38.8153
L8.1771 -39.1824
L8.10631 -39.5516
L8.04257 -39.9228
L7.98584 -40.2957
L7.97404 -40.6702
L8.06865 -41.1764
L8.17177 -41.6648
L8.28336 -42.1514
L8.4034 -42.6361
L8.53184 -43.1188
L8.66866 -43.5994
L8.81379 -44.0776
L8.96721 -44.5534
L9.12886 -45.0265
L9.2987 -45.4969
L9.47667 -45.9645
L9.66272 -46.4289
L9.85679 -46.8903
L10.0588 -47.3482
L10.2688 -47.8028
L10.4865 -48.2537
L10.7121 -48.7009
L10.9453 -49.1443
L11.1862 -49.5836
L11.4347 -50.0188
L11.6906 -50.4497
L11.9539 -50.8762
L12.2246 -51.2982
L12.5025 -51.7156
L12.7875 -52.1281
L13.0796 -52.5357
L13.3787 -52.9383
L13.6847 -53.3358
L13.9975 -53.7279
L14.317 -54.1147
L14.6431 -54.4959
L14.9757 -54.8715
L15.3147 -55.2414
L15.6601 -55.6054
L16.0116 -55.9634
L16.3692 -56.3153
L16.7327 -56.6611
L17.1022 -57.0005
L17.4774 -57.3336
L17.8582 -57.6602
L18.2446 -57.9801
L18.6364 -58.2934
L19.0334 -58.5999
L19.4357 -58.8995
L19.843 -59.1921
L20.2552 -59.4776
L20.6722 -59.756
L21.0938 -60.0272
L21.52 -60.2911
L21.9506 -60.5475
L22.3855 -60.7965
L22.8246 -61.0379
L23.2676 -61.2717
L23.7146 -61.4978
L24.1653 -61.7161
L24.6195 -61.9266
L25.0773 -62.1292
L25.5384 -62.3238
L26.0026 -62.5105
L26.47 -62.689
L26.9402 -62.8594
L27.4131 -63.0216
L27.8887 -63.1756
L28.3668 -63.3214
L28.8472 -63.4588
L29.3297 -63.5878
L29.8143 -63.7084
L30.3008 -63.8206
L30.789 -63.9243
L31.2788 -64.0196
L31.7701 -64.1062
L32.2626 -64.1844
L32.7563 -64.2539
L33.2509 -64.3148
L33.7464 -64.3671
L34.2426 -64.4108
L34.7393 -64.4458
L35.2364 -64.4721
L35.7337 -64.4898
L36.2311 -64.4988
L36.7285 -64.4991
L37.2256 -64.4907
L37.7224 -64.4736
L38.2186 -64.4479
L38.7141 -64.4135
L39.2088 -64.3705
L39.7026 -64.3188
L40.1952 -64.2585
L40.6865 -64.1895
L41.1764 -64.112
L41.6648 -64.026
L42.1514 -63.9313
L42.6361 -63.8282
L43.1188 -63.7166
L43.5994 -63.5966
L44.0776 -63.4682
L44.5534 -63.3313
L45.0265 -63.1862
L45.4969 -63.0328
L45.9645 -62.8711
L46.4289 -62.7013
L46.8903 -62.5233
L47.3482 -62.3373
L47.8028 -62.1432
L48.2537 -61.9412
L48.7009 -61.7312
z
" id="C0_1_ec5e4f3ef2"/>
     <path d="
M64.0364 -30.9588
L63.8605 -30.6242
L63.6818 -30.2935
L63.5004 -29.9666
L63.3164 -29.6435
L63.1299 -29.3243
L62.941 -29.0089
L62.7497 -28.6973
L62.556 -28.3895
L62.36 -28.0855
L62.1619 -27.7853
L61.9616 -27.4888
L61.7592 -27.196
L61.5547 -26.9069
L61.3483 -26.6214
L61.1398 -26.3396
L60.9295 -26.0612
L60.7173 -25.7865
L60.5032 -25.5152
L60.2873 -25.2473
L60.0696 -24.9828
L59.8502 -24.7217
L59.6291 -24.4639
L59.4062 -24.2094
L59.1817 -23.9581
L58.9555 -23.71
L58.7276 -23.465
L58.4981 -23.2231
L58.267 -22.9842
L58.0342 -22.7484
L57.7999 -22.5155
L57.5639 -22.2855
L57.3263 -22.0584
L57.0871 -21.8342
L56.8463 -21.6127
L56.6039 -21.394
L56.3599 -21.178
L56.1142 -20.9647
L55.867 -20.7541
L55.618 -20.546
L55.3675 -20.3406
L55.1152 -20.1377
L54.8613 -19.9373
L54.6057 -19.7394
L54.3483 -19.5439
L54.0893 -19.3509
L53.8284 -19.1603
L53.5658 -18.972
L53.3014 -18.7861
L53.0352 -18.6026
L52.7672 -18.4213
L52.4972 -18.2424
L52.2254 -18.0657
L51.9517 -17.8913
L51.676 -17.7192
L51.3983 -17.5492
L51.1187 -17.3815
L50.837 -17.2161
L50.5532 -17.0528
L50.2674 -16.8917
L49.9794 -16.7328
L49.6893 -16.5761
L49.397 -16.4216
L49.1025 -16.2693
L48.8058 -16.1191
L48.5068 -15.9712
L48.2056 -15.8254
L47.902 -15.6819
L47.596 -15.5406
L47.2877 -15.4014
L46.977 -15.2645
L46.6638 -15.1299
L46.3482 -14.9975
L46.0302 -14.8674
L45.7096 -14.7395
L45.3866 -14.6139
L45.061 -14.4907
L44.7329 -14.3698
L44.4022 -14.2513
L44.069 -14.1351
L43.7332 -14.0213
L43.3948 -13.91
L43.0539 -13.801
L42.7104 -13.6946
L42.3643 -13.5906
L42.0157 -13.4891
L41.6645 -13.3902
L41.3109 -13.2938
L40.9547 -13.2
L40.5961 -13.1088
L40.2351 -13.0202
L39.8717 -12.9342
L39.5059 -12.8508
L39.1379 -12.7701
L38.7676 -12.692
L38.3952 -12.6166
L38.0207 -12.5438
L37.6442 -12.4737
L37.2658 -12.4063
L36.8856 -12.3415
L36.5037 -12.2792
L36.1202 -12.2196
L35.7353 -12.1625
L35.349 -12.108
L34.9615 -12.0558
L34.573 -12.0061
L34.1837 -11.9587
L33.7936 -11.9136
L33.403 -11.8706
L33.0121 -11.8297
L32.6211 -11.7907
L32.2301 -11.7536
L31.8395 -11.7181
L31.4493 -11.6842
L31.06 -11.6517
L30.6716 -11.6204
L30.2845 -11.5901
L29.8989 -11.5607
L29.515 -11.5318
L29.1332 -11.5034
L28.7537 -11.4752
L28.3767 -11.447
L28.0025 -11.4185
L27.6314 -11.3894
L27.2637 -11.3596
L26.8996 -11.3288
L26.5394 -11.2967
L26.1833 -11.2632
L25.8315 -11.2279
L25.4843 -11.1906
L25.1419 -11.1512
L24.8046 -11.1095
L24.4724 -11.0651
L24.1457 -11.0181
L23.8245 -10.9682
L23.509 -10.9153
L23.1994 -10.8594
L23.2945 -10.8002
L23.7416 -10.4888
L24.1925 -10.271
L24.647 -10.061
L25.105 -9.85884
L25.5663 -9.66468
L26.0307 -9.47855
L26.4982 -9.30049
L26.9686 -9.13057
L27.4417 -8.96884
L27.9175 -8.81533
L28.3957 -8.67011
L28.8762 -8.53321
L29.3589 -8.40468
L29.8436 -8.28456
L30.3302 -8.17288
L30.8185 -8.06967
L31.3084 -7.97497
L31.7997 -7.88881
L32.2923 -7.81121
L32.7861 -7.7422
L33.2808 -7.6818
L33.7763 -7.63002
L34.2725 -7.58688
L34.7693 -7.5524
L35.2664 -7.52659
L35.7637 -7.50944
L36.2611 -7.50098
L36.7585 -7.5012
L37.2556 -7.51009
L37.7523 -7.52767
L38.2485 -7.55392
L38.744 -7.58883
L39.2386 -7.6324
L39.7323 -7.68461
L40.2249 -7.74545
L40.7161 -7.81489
L41.2059 -7.89291
L41.6942 -7.9795
L42.1807 -8.07463
L42.6653 -8.17826
L43.1479 -8.29036
L43.6283 -8.41091
L44.1063 -8.53985
L44.582 -8.67717
L45.055 -8.82281
L45.5252 -8.97672
L45.9925 -9.13887
L46.4568 -9.3092
L46.918 -9.48765
L47.3757 -9.67419
L47.8301 -9.86874
L48.2808 -10.0713
L48.7278 -10.2817
L49.1709 -10.4999
L49.6099 -10.7259
L50.0449 -10.9596
L50.4755 -11.201
L50.9018 -11.4499
L51.3235 -11.7062
L51.7406 -11.97
L52.1528 -12.2411
L52.5601 -12.5194
L52.9624 -12.8049
L53.3596 -13.0975
L53.7514 -13.397
L54.1378 -13.7034
L54.5187 -14.0166
L54.894 -14.3365
L55.2635 -14.663
L55.6271 -14.996
L55.9848 -15.3354
L56.3363 -15.6811
L56.6817 -16.0329
L57.0208 -16.3909
L57.3535 -16.7548
L57.6796 -17.1246
L57.9992 -17.5002
L58.3121 -17.8814
L58.6181 -18.2681
L58.9173 -18.6602
L59.2095 -19.0575
L59.4946 -19.4601
L59.7726 -19.8677
L60.0433 -20.2802
L60.3067 -20.6974
L60.5627 -21.1194
L60.8113 -21.5459
L61.0522 -21.9767
L61.2855 -22.4119
L61.5112 -22.8512
L61.729 -23.2945
L61.939 -23.7416
L62.1412 -24.1925
L62.3353 -24.647
L62.5215 -25.105
L62.6995 -25.5663
L62.8694 -26.0307
L63.0312 -26.4982
L63.1847 -26.9686
L63.3299 -27.4417
L63.4668 -27.9175
L63.5953 -28.3957
L63.7154 -28.8762
L63.8271 -29.3589
L63.9303 -29.8436
z
" id="C0_2_64f5293b81"/>
    </defs>
    <g clip-path="url(#p1bffca34e9)">
     <use style="fill:#ffffff;stroke:#000000;stroke-width:2.0;" x="0.0" xlink:href="#C0_0_a811fe30f3" y="72.0"/>
    </g>
    <g clip-path="url(#p1bffca34e9)">
     <use style="fill:#ff0000;stroke:#000000;stroke-width:2.0;" x="0.0" xlink:href="#C0_1_ec5e4f3ef2" y="72.0"/>
    </g>
    <g clip-path="url(#p1bffca34e9)">
     <use style="fill:#ff0000;stroke:#000000;stroke-width:2.0;" x="0.0" xlink:href="#C0_2_64f5293b81" y="72.0"/>
    </g>
   </g>
  </g>
 </g>
 <defs>
  <clipPath id="p1bffca34e9">
   <rect height="72.0" width="72.0" x="0.0" y="0.0"/>
  </clipPath>
 </defs>
</svg>
