<?xml version="1.0" encoding="utf-8" standalone="no"?>
<!DOCTYPE svg PUBLIC "-//W3C//DTD SVG 1.1//EN"
  "http://www.w3.org/Graphics/SVG/1.1/DTD/svg11.dtd">
<!-- Created with matplotlib (http://matplotlib.org/) -->
<svg height="72pt" version="1.1" viewBox="0 0 72 72" width="72pt" xmlns="http://www.w3.org/2000/svg" xmlns:xlink="http://www.w3.org/1999/xlink">
 <defs>
  <style type="text/css">
*{stroke-linecap:butt;stroke-linejoin:round;}
  </style>
 </defs>
 <g id="figure_1">
  <g id="patch_1">
   <path d="
M0 72
L72 72
L72 0
L0 0
z
" style="fill:none;"/>
  </g>
  <g id="axes_1">
   <g id="PatchCollection_1">
    <defs>
     <path d="
M36 -7.5
C43.5583 -7.5 50.808 -10.5029 56.1525 -15.8475
C61.4971 -21.192 64.5 -28.4417 64.5 -36
C64.5 -43.5583 61.4971 -50.808 56.1525 -56.1525
C50.808 -61.4971 43.5583 -64.5 36 -64.5
C28.4417 -64.5 21.192 -61.4971 15.8475 -56.1525
C10.5029 -50.808 7.5 -43.5583 7.5 -36
C7.5 -28.4417 10.5029 -21.192 15.8475 -15.8475
C21.192 -10.5029 28.4417 -7.5 36 -7.5
z
" id="C0_0_a811fe30f3"/>
     <path d="
M64.0213 -30.9399
L63.847 -31.0345
L63.6714 -31.1272
L63.4945 -31.218
L63.3163 -31.3069
L63.1369 -31.3941
L62.9561 -31.4795
L62.774 -31.5632
L62.5907 -31.6453
L62.4061 -31.7259
L62.2202 -31.8049
L62.033 -31.8824
L61.8445 -31.9585
L61.6546 -32.0332
L61.4635 -32.1065
L61.2711 -32.1785
L60.8821 -32.2493
L60.6856 -32.3187
L60.4876 -32.3869
L60.2883 -32.454
L60.0875 -32.5198
L59.8853 -32.5845
L59.6816 -32.6481
L59.4764 -32.7106
L59.2697 -32.7719
L59.0615 -32.8323
L58.8516 -32.8915
L58.6402 -32.9498
L58.4272 -33.007
L58.2125 -33.0632
L57.9961 -33.1184
L57.778 -33.1726
L57.5582 -33.2259
L57.3367 -33.2782
L57.1133 -33.3295
L56.8881 -33.3798
L56.661 -33.4292
L56.4321 -33.4776
L56.2012 -33.5251
L55.9684 -33.5716
L55.7336 -33.6171
L55.4968 -33.6616
L55.258 -33.7052
L55.0171 -33.7478
L54.7741 -33.7893
L54.529 -33.8299
L54.2818 -33.8694
L54.0324 -33.9078
L53.7807 -33.9452
L53.5269 -33.9815
L53.2708 -34.0167
L53.0125 -34.0508
L52.7519 -34.0837
L52.489 -34.1154
L52.2237 -34.1458
L51.9562 -34.175
L51.6863 -34.2029
L51.4141 -34.2295
L51.1396 -34.2546
L50.8627 -34.2783
L50.5835 -34.3006
L50.3019 -34.3213
L50.0181 -34.3404
L49.7319 -34.3579
L49.4435 -34.3736
L49.1528 -34.3876
L48.8599 -34.3997
L48.5649 -34.4098
L48.2677 -34.418
L47.9684 -34.424
L47.6671 -34.4279
L47.3638 -34.4295
L47.0587 -34.4287
L46.7517 -34.4254
L46.443 -34.4195
L46.1327 -34.4109
L45.8209 -34.3994
L45.5076 -34.385
L45.1931 -34.3675
L44.8774 -34.3468
L44.5607 -34.3227
L44.2432 -34.2951
L43.9249 -34.2638
L43.6061 -34.2287
L43.287 -34.1895
L42.9677 -34.1463
L42.6484 -34.0987
L42.3294 -34.0466
L42.0108 -33.9898
L41.6928 -33.9281
L41.3758 -33.8614
L41.0599 -33.7895
L40.7454 -33.7122
L40.4325 -33.6294
L40.1214 -33.5408
L39.8125 -33.4463
L39.5059 -33.3457
L39.2019 -33.2389
L38.9008 -33.1258
L38.6027 -33.0063
L38.3079 -32.8802
L38.0167 -32.7474
L37.7292 -32.6079
L37.4456 -32.4616
L37.1662 -32.3086
L36.8911 -32.1487
L36.6204 -31.982
L36.3544 -31.8086
L36.0931 -31.6286
L35.8367 -31.4419
L35.5853 -31.2488
L35.3389 -31.0493
L35.0976 -30.8437
L34.8614 -30.6322
L34.6305 -30.4148
L34.4047 -30.1919
L34.1842 -29.9637
L33.9689 -29.7304
L33.7587 -29.4922
L33.5538 -29.2496
L33.354 -29.0027
L33.1592 -28.7518
L32.9695 -28.4972
L32.7848 -28.2392
L32.6049 -27.978
L32.43 -27.714
L32.2597 -27.4474
L32.0942 -27.1786
L31.9332 -26.9076
L31.7768 -26.6349
L31.6249 -26.3606
L31.4773 -26.0851
L31.334 -25.8084
L31.1949 -25.5309
L31.0599 -25.2528
L30.9289 -24.9741
L30.8019 -24.6953
L30.6788 -24.4163
L30.5594 -24.1374
L30.4438 -23.8588
L30.3318 -23.5805
L30.2234 -23.3027
L30.1185 -23.0256
L30.017 -22.7492
L29.9188 -22.4737
L29.8239 -22.1991
L29.7323 -21.9256
L29.6438 -21.6532
L29.5584 -21.3821
L29.476 -21.1122
L29.3965 -20.8436
L29.32 -20.5764
L29.2464 -20.3107
L29.1755 -20.0464
L29.1074 -19.7836
L29.042 -19.5224
L28.9792 -19.2627
L28.919 -19.0046
L28.8614 -18.7482
L28.8064 -18.4933
L28.7538 -18.24
L28.7036 -17.9884
L28.6558 -17.7384
L28.6104 -17.4901
L28.5674 -17.2433
L28.5266 -16.9982
L28.4881 -16.7547
L28.4518 -16.5128
L28.4178 -16.2724
L28.386 -16.0337
L28.3563 -15.7964
L28.3288 -15.5608
L28.3034 -15.3266
L28.2802 -15.0939
L28.259 -14.8627
L28.24 -14.6329
L28.223 -14.4046
L28.2081 -14.1776
L28.1952 -13.9521
L28.1844 -13.7278
L28.1757 -13.5049
L28.169 -13.2833
L28.1644 -13.063
L28.1618 -12.8438
L28.1614 -12.6259
L28.1629 -12.4092
L28.1666 -12.1937
L28.1723 -11.9792
L28.1802 -11.7659
L28.1902 -11.5536
L28.2023 -11.3424
L28.2166 -11.1322
L28.2331 -10.923
L28.2518 -10.7148
L28.2727 -10.5075
L28.296 -10.3011
L28.3215 -10.0956
L28.3494 -9.89097
L28.3796 -9.68719
L28.4123 -9.48423
L28.4475 -9.28207
L28.4851 -9.0807
L28.5254 -8.88008
L28.9598 -8.6802
L29.4429 -8.38323
L29.9279 -8.26457
L30.4148 -8.15435
L30.9034 -8.05262
L31.3936 -7.9594
L31.8851 -7.87473
L32.378 -7.79862
L32.8719 -7.7311
L33.3667 -7.67219
L33.8624 -7.62191
L34.3587 -7.58028
L34.8555 -7.5473
L35.3527 -7.52299
L35.8501 -7.50735
L36.3475 -7.50039
L36.8448 -7.50212
L37.3418 -7.51252
L37.8385 -7.53161
L38.3345 -7.55936
L38.8299 -7.59578
L39.3244 -7.64085
L39.8179 -7.69455
L40.3102 -7.75688
L40.8012 -7.82782
L41.2908 -7.90733
L41.7787 -7.9954
L42.2649 -8.09201
L42.7492 -8.19711
L43.2314 -8.31068
L43.7114 -8.43269
L44.1891 -8.56309
L44.6643 -8.70186
L45.1368 -8.84893
L45.6065 -9.00428
L46.0734 -9.16785
L46.5371 -9.33959
L46.9977 -9.51946
L47.4549 -9.70739
L47.9086 -9.90333
L48.3586 -10.1072
L48.805 -10.319
L49.2474 -10.5386
L49.6857 -10.766
L50.12 -11.001
L50.5499 -11.2437
L50.9753 -11.4938
L51.3963 -11.7515
L51.8125 -12.0166
L52.2239 -12.2889
L52.6303 -12.5685
L53.0317 -12.8552
L53.428 -13.149
L53.8189 -13.4497
L54.2043 -13.7573
L54.5843 -14.0717
L54.9585 -14.3927
L55.327 -14.7203
L55.6896 -15.0545
L56.0462 -15.3949
L56.3967 -15.7417
L56.741 -16.0947
L57.079 -16.4537
L57.4106 -16.8186
L57.7356 -17.1894
L58.054 -17.566
L58.3657 -17.9481
L58.6706 -18.3357
L58.9685 -18.7288
L59.2595 -19.1271
L59.5434 -19.5305
L59.8201 -19.9389
L60.0896 -20.3523
L60.3517 -20.7704
L60.6064 -21.1931
L60.8536 -21.6204
L61.0933 -22.052
L61.3253 -22.4879
L61.5495 -22.9279
L61.766 -23.3718
L61.9747 -23.8197
L62.1754 -24.2712
L62.3682 -24.7263
L62.5529 -25.1848
L62.7296 -25.6467
L62.8981 -26.1117
L63.0584 -26.5797
L63.2105 -27.0505
L63.3543 -27.5241
L63.4897 -28.0003
L63.6168 -28.4789
L63.7354 -28.9598
L63.8456 -29.4429
L63.9474 -29.9279
z
" id="C0_1_3d530f4287"/>
     <path d="
M43.4292 -63.5097
L43.2907 -63.3594
L43.1517 -63.2076
L43.0123 -63.0543
L42.8724 -62.8995
L42.732 -62.7431
L42.591 -62.5851
L42.4494 -62.4255
L42.3073 -62.2643
L42.1645 -62.1014
L42.0211 -61.9369
L41.877 -61.7707
L41.7323 -61.6027
L41.5868 -61.433
L41.4405 -61.2615
L41.2935 -61.0882
L41.1456 -60.9131
L40.9969 -60.7361
L40.8473 -60.5573
L40.6969 -60.3766
L40.5455 -60.1939
L40.3932 -60.0093
L40.2398 -59.8228
L40.0855 -59.6342
L39.9301 -59.4437
L39.7736 -59.2512
L39.6161 -59.0566
L39.4574 -58.8599
L39.2975 -58.6612
L39.1364 -58.4605
L38.9741 -58.2576
L38.8105 -58.0527
L38.6456 -57.8456
L38.4794 -57.6365
L38.3118 -57.4253
L38.1428 -57.2119
L37.9724 -56.9965
L37.8005 -56.7791
L37.6271 -56.5595
L37.4522 -56.338
L37.2757 -56.1144
L37.0976 -55.8889
L36.9178 -55.6614
L36.7364 -55.432
L36.5532 -55.2008
L36.3683 -54.9678
L36.1815 -54.733
L35.9929 -54.4966
L35.8025 -54.2586
L35.6101 -54.0191
L35.4157 -53.7782
L35.2194 -53.536
L35.0209 -53.2926
L34.8204 -53.0481
L34.6177 -52.8027
L34.4128 -52.5565
L34.2057 -52.3096
L33.9962 -52.0623
L33.7844 -51.8146
L33.5702 -51.5667
L33.3535 -51.319
L33.1344 -51.0714
L32.9126 -50.8244
L32.6882 -50.578
L32.4611 -50.3325
L32.2313 -50.0882
L31.9987 -49.8452
L31.7632 -49.6039
L31.5248 -49.3645
L31.2835 -49.1272
L31.0391 -48.8923
L30.7917 -48.6601
L30.5413 -48.4308
L30.2877 -48.2046
L30.0309 -47.9819
L29.771 -47.7628
L29.508 -47.5476
L29.2417 -47.3364
L28.9723 -47.1296
L28.6998 -46.9272
L28.4241 -46.7295
L28.1455 -46.5366
L27.8638 -46.3486
L27.5792 -46.1656
L27.2918 -45.9878
L27.0017 -45.8151
L26.7089 -45.6476
L26.4137 -45.4853
L26.1162 -45.3283
L25.8165 -45.1764
L25.5148 -45.0297
L25.2112 -44.8881
L24.906 -44.7514
L24.5993 -44.6196
L24.2914 -44.4927
L23.9823 -44.3703
L23.6724 -44.2525
L23.3618 -44.1391
L23.0508 -44.03
L22.7394 -43.9249
L22.428 -43.8237
L22.1167 -43.7263
L21.8057 -43.6326
L21.4951 -43.5423
L21.1853 -43.4553
L20.8762 -43.3715
L20.5681 -43.2906
L20.2612 -43.2127
L19.9555 -43.1374
L19.6513 -43.0648
L19.3486 -42.9946
L19.0476 -42.9267
L18.7483 -42.861
L18.451 -42.7975
L18.1556 -42.7359
L17.8623 -42.6762
L17.5711 -42.6182
L17.2822 -42.562
L16.9955 -42.5073
L16.7112 -42.4541
L16.4293 -42.4024
L16.1498 -42.352
L15.8728 -42.3028
L15.5983 -42.2549
L15.3263 -42.2081
L15.0569 -42.1624
L14.7901 -42.1177
L14.5259 -42.074
L14.2642 -42.0312
L14.0051 -41.9893
L13.7487 -41.9481
L13.4948 -41.9078
L13.2435 -41.8682
L12.9947 -41.8293
L12.7485 -41.7911
L12.5049 -41.7535
L12.2638 -41.7166
L12.0251 -41.6802
L11.789 -41.6443
L11.5553 -41.609
L11.324 -41.5741
L11.0951 -41.5398
L10.8686 -41.5058
L10.6445 -41.4724
L10.4226 -41.4393
L10.2031 -41.4066
L9.98572 -41.3743
L9.7706 -41.3424
L9.55766 -41.3108
L9.34687 -41.2795
L9.13819 -41.2486
L8.93158 -41.218
L8.72702 -41.1877
L8.52447 -41.1576
L8.3239 -41.1279
L8.05884 -41.0984
L8.16111 -41.6162
L8.27186 -42.103
L8.39106 -42.5879
L8.51867 -43.0708
L8.65465 -43.5516
L8.79896 -44.0301
L8.95155 -44.5061
L9.11239 -44.9795
L9.28141 -45.4502
L9.45857 -45.918
L9.64382 -46.3828
L9.83709 -46.8444
L10.0383 -47.3028
L10.2475 -47.7576
L10.4645 -48.2089
L10.6893 -48.6565
L10.9218 -49.1003
L11.1619 -49.54
L11.4096 -49.9756
L11.6648 -50.407
L11.9273 -50.8339
L12.1973 -51.2564
L12.4744 -51.6742
L12.7588 -52.0872
L13.0502 -52.4953
L13.3486 -52.8984
L13.6539 -53.2964
L13.9661 -53.6891
L14.2849 -54.0764
L14.6103 -54.4582
L14.9423 -54.8343
L15.2807 -55.2048
L15.6254 -55.5694
L15.9763 -55.928
L16.3333 -56.2805
L16.6962 -56.6269
L17.0651 -56.967
L17.4397 -57.3007
L17.82 -57.6279
L18.2059 -57.9485
L18.5971 -58.2625
L18.9936 -58.5696
L19.3954 -58.8699
L19.8021 -59.1632
L20.2139 -59.4495
L20.6304 -59.7286
L21.0516 -60.0005
L21.4774 -60.2651
L21.9075 -60.5223
L22.342 -60.772
L22.7807 -61.0142
L23.2233 -61.2487
L23.6699 -61.4756
L24.1202 -61.6947
L24.5741 -61.906
L25.0315 -62.1094
L25.4923 -62.3048
L25.9562 -62.4922
L26.4233 -62.6716
L26.8932 -62.8428
L27.3659 -63.0059
L27.8412 -63.1607
L28.319 -63.3072
L28.7992 -63.4455
L29.2816 -63.5753
L29.766 -63.6968
L30.2523 -63.8098
L30.7403 -63.9144
L31.23 -64.0105
L31.7211 -64.098
L32.2135 -64.177
L32.707 -64.2473
L33.2016 -64.3091
L33.697 -64.3623
L34.1931 -64.4068
L34.6898 -64.4427
L35.1869 -64.4699
L35.6842 -64.4884
L36.1816 -64.4983
L36.6789 -64.4994
L37.1761 -64.4919
L37.6729 -64.4757
L38.1692 -64.4509
L38.6648 -64.4173
L39.1596 -64.3751
L39.6534 -64.3243
L40.1462 -64.2649
L40.6376 -64.1968
L41.1277 -64.1201
L41.6162 -64.0349
L42.103 -63.9412
L42.5879 -63.8389
z
" id="C0_2_0e01bb9562"/>
    </defs>
    <g clip-path="url(#p1bffca34e9)">
     <use style="fill:#ffffff;stroke:#000000;stroke-width:2.0;" x="0.0" xlink:href="#C0_0_a811fe30f3" y="72.0"/>
    </g>
    <g clip-path="url(#p1bffca34e9)">
     <use style="fill:#ff0000;stroke:#000000;stroke-width:2.0;" x="0.0" xlink:href="#C0_1_3d530f4287" y="72.0"/>
    </g>
    <g clip-path="url(#p1bffca34e9)">
     <use style="fill:#ff0000;stroke:#000000;stroke-width:2.0;" x="0.0" xlink:href="#C0_2_0e01bb9562" y="72.0"/>
    </g>
   </g>
  </g>
 </g>
 <defs>
  <clipPath id="p1bffca34e9">
   <rect height="72.0" width="72.0" x="0.0" y="0.0"/>
  </clipPath>
 </defs>
</svg>
