<?xml version="1.0" encoding="utf-8" standalone="no"?>
<!DOCTYPE svg PUBLIC "-//W3C//DTD SVG 1.1//EN"
  "http://www.w3.org/Graphics/SVG/1.1/DTD/svg11.dtd">
<!-- Created with matplotlib (http://matplotlib.org/) -->
<svg height="72pt" version="1.1" viewBox="0 0 72 72" width="72pt" xmlns="http://www.w3.org/2000/svg" xmlns:xlink="http://www.w3.org/1999/xlink">
 <defs>
  <style type="text/css">
*{stroke-linecap:butt;stroke-linejoin:round;}
  </style>
 </defs>
 <g id="figure_1">
  <g id="patch_1">
   <path d="
M0 72
L72 72
L72 0
L0 0
z
" style="fill:none;"/>
  </g>
  <g id="axes_1">
   <g id="PatchCollection_1">
    <defs>
     <path d="
M36 -7.5
C43.5583 -7.5 50.808 -10.5029 56.1525 -15.8475
C61.4971 -21.192 64.5 -28.4417 64.5 -36
C64.5 -43.5583 61.4971 -50.808 56.1525 -56.1525
C50.808 -61.4971 43.5583 -64.5 36 -64.5
C28.4417 -64.5 21.192 -61.4971 15.8475 -56.1525
C10.5029 -50.808 7.5 -43.5583 7.5 -36
C7.5 -28.4417 10.5029 -21.192 15.8475 -15.8475
C21.192 -10.5029 28.4417 -7.5 36 -7.5
z
" id="C0_0_a811fe30f3"/>
     <path d="
M17.0607 -57.2329
L17.2754 -57.139
L17.4854 -57.0374
L17.691 -56.9284
L17.892 -56.8123
L18.0888 -56.6893
L18.2813 -56.5597
L18.4696 -56.4238
L18.6539 -56.2819
L18.8344 -56.1341
L19.011 -55.9808
L19.1839 -55.8222
L19.3533 -55.6585
L19.5193 -55.49
L19.6819 -55.3169
L19.8413 -55.1394
L19.9977 -54.9577
L20.151 -54.772
L20.3015 -54.5825
L20.4492 -54.3894
L20.5943 -54.1929
L20.7368 -53.9932
L20.8768 -53.7904
L21.0145 -53.5846
L21.1499 -53.3762
L21.2832 -53.1651
L21.4143 -52.9515
L21.5435 -52.7357
L21.6707 -52.5176
L21.7961 -52.2974
L21.9198 -52.0753
L22.0417 -51.8514
L22.1621 -51.6257
L22.2809 -51.3984
L22.3982 -51.1696
L22.5141 -50.9393
L22.6286 -50.7077
L22.7418 -50.4747
L22.8537 -50.2406
L22.9645 -50.0054
L23.0741 -49.7691
L23.1826 -49.5318
L23.2901 -49.2935
L23.3965 -49.0544
L23.502 -48.8145
L23.6066 -48.5737
L23.7102 -48.3323
L23.813 -48.0901
L23.915 -47.8473
L24.0163 -47.6039
L24.1167 -47.3599
L24.2165 -47.1154
L24.3155 -46.8703
L24.4139 -46.6247
L24.5117 -46.3787
L24.6089 -46.1322
L24.7055 -45.8852
L24.8015 -45.6378
L24.897 -45.39
L24.992 -45.1419
L25.0865 -44.8933
L25.1806 -44.6443
L25.2742 -44.395
L25.3674 -44.1453
L25.4601 -43.8952
L25.5525 -43.6448
L25.6445 -43.394
L25.7361 -43.1428
L25.8274 -42.8913
L25.9184 -42.6394
L26.009 -42.3871
L26.0993 -42.1345
L26.1894 -41.8814
L26.2791 -41.628
L26.3686 -41.3742
L26.4579 -41.12
L26.5469 -40.8653
L26.6356 -40.6102
L26.8124 -40.3547
L26.9005 -40.0988
L26.9884 -39.8423
L27.0761 -39.5854
L27.1635 -39.3281
L27.2508 -39.0702
L27.3379 -38.8118
L27.4248 -38.5529
L27.5115 -38.2934
L27.598 -38.0334
L27.6844 -37.7729
L27.7705 -37.5118
L27.8565 -37.25
L27.9423 -36.9877
L28.0279 -36.7248
L28.1133 -36.4612
L28.1985 -36.197
L28.2835 -35.9321
L28.3683 -35.6666
L28.4528 -35.4004
L28.5372 -35.1335
L28.6212 -34.8658
L28.7051 -34.5975
L28.7886 -34.3285
L28.8719 -34.0587
L28.9549 -33.7882
L29.0376 -33.517
L29.1199 -33.245
L29.2019 -32.9722
L29.2834 -32.6987
L29.3646 -32.4244
L29.4454 -32.1493
L29.5256 -31.8735
L29.6054 -31.5969
L29.6847 -31.3196
L29.7633 -31.0414
L29.8414 -30.7625
L29.9189 -30.4829
L29.9956 -30.2025
L30.0716 -29.9214
L30.1469 -29.6395
L30.2212 -29.3569
L30.2948 -29.0737
L30.3673 -28.7897
L30.4389 -28.5051
L30.5094 -28.2198
L30.5787 -27.9339
L30.6468 -27.6475
L30.7137 -27.3604
L30.7792 -27.0728
L30.8432 -26.7847
L30.9057 -26.4962
L30.9666 -26.2072
L31.0258 -25.9178
L31.0831 -25.6281
L31.1386 -25.338
L31.192 -25.0477
L31.2433 -24.7573
L31.2923 -24.4666
L31.339 -24.1759
L31.3832 -23.8852
L31.4248 -23.5945
L31.4636 -23.3039
L31.4996 -23.0135
L31.5325 -22.7233
L31.5624 -22.4335
L31.5889 -22.1441
L31.612 -21.8552
L31.6315 -21.5668
L31.6473 -21.2792
L31.6592 -20.9923
L31.667 -20.7062
L31.6707 -20.4211
L31.67 -20.1371
L31.6649 -19.8543
L31.655 -19.5727
L31.6404 -19.2925
L31.6209 -19.0138
L31.5962 -18.7367
L31.5663 -18.4614
L31.531 -18.1879
L31.4902 -17.9164
L31.4438 -17.647
L31.3916 -17.3798
L31.3335 -17.115
L31.2694 -16.8527
L31.1992 -16.5931
L31.1228 -16.3362
L31.0401 -16.0822
L30.951 -15.8312
L30.8556 -15.5834
L30.7536 -15.3389
L30.6451 -15.0978
L30.53 -14.8603
L30.4083 -14.6266
L30.2799 -14.3966
L30.145 -14.1707
L30.0034 -13.9489
L29.8552 -13.7314
L29.7004 -13.5182
L29.5391 -13.3096
L29.3712 -13.1056
L29.1969 -12.9063
L29.0162 -12.712
L28.8292 -12.5227
L28.6359 -12.3385
L28.4364 -12.1596
L28.2309 -11.9861
L28.0194 -11.818
L27.802 -11.6555
L27.5788 -11.4987
L27.35 -11.3477
L27.1157 -11.2026
L26.876 -11.0634
L26.631 -10.9304
L26.3808 -10.8035
L26.1256 -10.6829
L25.8656 -10.5686
L25.6007 -10.4607
L25.3313 -10.3593
L25.0574 -10.2645
L24.7791 -10.1763
L24.4967 -10.0949
L24.0083 -10.0202
L23.5589 -10.1456
L23.1133 -10.3589
L22.6716 -10.5799
L22.234 -10.8087
L21.8005 -11.0451
L21.3714 -11.2892
L20.9468 -11.5407
L20.5267 -11.7998
L20.1114 -12.0662
L19.7009 -12.3399
L19.2953 -12.6208
L18.8949 -12.9088
L18.4996 -13.2038
L18.1097 -13.5058
L17.7253 -13.8147
L17.3464 -14.1303
L16.9732 -14.4526
L16.6057 -14.7814
L16.2442 -15.1167
L15.8887 -15.4584
L15.5394 -15.8063
L15.1962 -16.1603
L14.8594 -16.5204
L14.5291 -16.8865
L14.2053 -17.2583
L13.8881 -17.6359
L13.5776 -18.0191
L13.274 -18.4077
L12.9773 -18.8017
L12.6877 -19.201
L12.4051 -19.6053
L12.1297 -20.0147
L11.8616 -20.4289
L11.6008 -20.8479
L11.3475 -21.2715
L11.1017 -21.6995
L10.8634 -22.132
L10.6328 -22.5686
L10.41 -23.0093
L10.1949 -23.454
L9.98773 -23.9026
L9.78845 -24.3548
L9.59716 -24.8105
L9.41391 -25.2697
L9.23876 -25.7321
L9.07176 -26.1976
L8.91297 -26.6662
L8.76242 -27.1376
L8.62017 -27.6117
L8.48626 -28.0883
L8.36074 -28.5673
L8.24363 -29.0487
L8.13498 -29.5321
L8.03481 -30.0175
L7.94316 -30.5047
L7.86006 -30.9936
L7.78553 -31.484
L7.7196 -31.9758
L7.66228 -32.4689
L7.61359 -32.963
L7.57355 -33.458
L7.54217 -33.9538
L7.51946 -34.4502
L7.50542 -34.9471
L7.50006 -35.4443
L7.50338 -35.9417
L7.51539 -36.4391
L7.53607 -36.9364
L7.56542 -37.4333
L7.60343 -37.9299
L7.65009 -38.4258
L7.70539 -38.9211
L7.7693 -39.4154
L7.84182 -39.9087
L7.92291 -40.4008
L8.01256 -40.8915
L8.11073 -41.3808
L8.21739 -41.8684
L8.33252 -42.3543
L8.45608 -42.8382
L8.58803 -43.32
L8.72832 -43.7996
L8.87693 -44.2768
L9.03379 -44.7515
L9.19887 -45.2235
L9.37212 -45.6928
L9.55347 -46.159
L9.74288 -46.6222
L9.94029 -47.0821
L10.1456 -47.5387
L10.3589 -47.9917
L10.5799 -48.4411
L10.8087 -48.8867
L11.0451 -49.3284
L11.2892 -49.766
L11.5407 -50.1995
L11.7998 -50.6286
L12.0662 -51.0532
L12.3399 -51.4733
L12.6208 -51.8886
L12.9088 -52.2991
L13.2038 -52.7047
L13.5058 -53.1051
L13.8147 -53.5004
L14.1303 -53.8903
L14.4526 -54.2747
L14.7814 -54.6536
L15.1167 -55.0268
L15.4584 -55.3943
L15.8063 -55.7558
L16.1603 -56.1113
L16.5204 -56.4606
z
" id="C0_1_edb0bb047f"/>
     <path d="
M47.7142 -61.8805
L47.8542 -61.62
L47.9941 -61.3582
L48.1335 -61.0949
L48.2724 -60.8303
L48.4108 -60.5644
L48.5484 -60.2973
L48.6852 -60.029
L48.8211 -59.7596
L48.956 -59.4892
L49.0899 -59.2177
L49.2227 -58.9453
L49.3542 -58.672
L49.4846 -58.3978
L49.6136 -58.1227
L49.7413 -57.8469
L49.8676 -57.5703
L49.9924 -57.293
L50.1158 -57.015
L50.2377 -56.7364
L50.3581 -56.4571
L50.4769 -56.1773
L50.5941 -55.8969
L50.7097 -55.6159
L50.8237 -55.3344
L50.936 -55.0525
L51.0467 -54.77
L51.1558 -54.4871
L51.2632 -54.2037
L51.3689 -53.9199
L51.4729 -53.6357
L51.5753 -53.3511
L51.6759 -53.0661
L51.7749 -52.7806
L51.8722 -52.4948
L51.9678 -52.2086
L52.0617 -51.922
L52.154 -51.6351
L52.2445 -51.3478
L52.3334 -51.06
L52.4207 -50.7719
L52.5062 -50.4834
L52.5902 -50.1946
L52.6724 -49.9053
L52.7531 -49.6156
L52.8321 -49.3255
L52.9094 -49.035
L52.9852 -48.7441
L53.0593 -48.4528
L53.1318 -48.161
L53.2027 -47.8687
L53.272 -47.576
L53.3398 -47.2828
L53.4059 -46.9891
L53.4705 -46.6949
L53.5335 -46.4002
L53.595 -46.105
L53.6549 -45.8092
L53.7132 -45.5128
L53.7701 -45.2159
L53.8253 -44.9184
L53.8791 -44.6202
L53.9313 -44.3215
L53.982 -44.0221
L54.0312 -43.7221
L54.0789 -43.4214
L54.1251 -43.12
L54.1697 -42.8179
L54.2129 -42.5151
L54.2546 -42.2116
L54.2948 -41.9073
L54.3335 -41.6023
L54.3707 -41.2965
L54.4064 -40.9899
L54.4407 -40.6826
L54.4735 -40.3744
L54.5048 -40.0654
L54.5347 -39.7556
L54.563 -39.445
L54.59 -39.1335
L54.6155 -38.8212
L54.6395 -38.508
L54.6621 -38.194
L54.6832 -37.8791
L54.7029 -37.5633
L54.7212 -37.2467
L54.738 -36.9292
L54.7535 -36.6108
L54.7675 -36.2916
L54.7801 -35.9716
L54.7913 -35.6506
L54.8011 -35.3289
L54.8096 -35.0063
L54.8167 -34.6829
L54.8225 -34.3587
L54.8269 -34.0338
L54.83 -33.708
L54.8319 -33.3815
L54.8324 -33.0544
L54.8317 -32.7265
L54.8298 -32.398
L54.8267 -32.0688
L54.8223 -31.739
L54.8169 -31.4088
L54.8103 -31.0779
L54.8027 -30.7467
L54.7941 -30.415
L54.7844 -30.0829
L54.7738 -29.7505
L54.7623 -29.4179
L54.75 -29.0851
L54.7369 -28.7521
L54.7231 -28.4191
L54.7086 -28.086
L54.6935 -27.7531
L54.6779 -27.4203
L54.6618 -27.0877
L54.6453 -26.7554
L54.6286 -26.4235
L54.6117 -26.0921
L54.5947 -25.7613
L54.5776 -25.4312
L54.5607 -25.1018
L54.5439 -24.7733
L54.5275 -24.4458
L54.5115 -24.1194
L54.4959 -23.7941
L54.4811 -23.4701
L54.467 -23.1476
L54.4538 -22.8265
L54.4416 -22.5071
L54.4306 -22.1895
L54.4208 -21.8737
L54.4124 -21.5599
L54.4056 -21.2482
L54.4004 -20.9388
L54.397 -20.6316
L54.3956 -20.327
L54.3962 -20.0249
L54.399 -19.7255
L54.4041 -19.429
L54.4116 -19.1353
L54.4216 -18.8447
L54.4343 -18.5573
L54.4498 -18.2732
L54.4681 -17.9924
L54.4894 -17.7151
L54.5138 -17.4415
L54.5412 -17.1715
L54.5719 -16.9053
L54.6059 -16.643
L54.6433 -16.3847
L54.684 -16.1305
L54.7282 -15.8805
L54.776 -15.6347
L54.8273 -15.3933
L54.8821 -15.1563
L55.4171 -14.9239
L55.7782 -15.1379
L56.1333 -15.4799
L56.4823 -15.8282
L56.825 -16.1827
L57.1614 -16.5432
L57.4914 -16.9096
L57.8148 -17.2818
L58.1315 -17.6597
L58.4415 -18.0432
L58.7447 -18.4322
L59.041 -18.8266
L59.3302 -19.2261
L59.6123 -19.6308
L59.8873 -20.0405
L60.1549 -20.455
L60.4152 -20.8742
L60.6681 -21.2981
L60.9135 -21.7264
L61.1512 -22.1591
L61.3813 -22.596
L61.6037 -23.037
L61.8183 -23.482
L62.025 -23.9307
L62.2237 -24.3832
L62.4145 -24.8391
L62.5973 -25.2985
L62.7719 -25.7611
L62.9384 -26.2269
L63.0967 -26.6956
L63.2467 -27.1672
L63.3884 -27.6414
L63.5218 -28.1182
L63.6468 -28.5974
L63.7634 -29.0788
L63.8715 -29.5624
L63.9712 -30.0479
L64.0623 -30.5352
L64.1448 -31.0242
L64.2188 -31.5148
L64.2842 -32.0066
L64.341 -32.4997
L64.3892 -32.9939
L64.4287 -33.489
L64.4595 -33.9848
L64.4817 -34.4813
L64.4952 -34.9782
L64.5 -35.4754
L64.4961 -35.9728
L64.4836 -36.4702
L64.4624 -36.9675
L64.4325 -37.4644
L64.3939 -37.9609
L64.3467 -38.4568
L64.2909 -38.952
L64.2264 -39.4463
L64.1534 -39.9395
L64.0717 -40.4315
L63.9816 -40.9222
L63.8828 -41.4114
L63.7757 -41.8989
L63.66 -42.3846
L63.5359 -42.8684
L63.4034 -43.3501
L63.2626 -43.8295
L63.1135 -44.3066
L62.9561 -44.7811
L62.7905 -45.253
L62.6168 -45.722
L62.4349 -46.1881
L62.245 -46.6511
L62.0471 -47.1108
L61.8413 -47.5671
L61.6275 -48.02
L61.406 -48.4691
L61.1768 -48.9145
L60.9398 -49.3559
L60.6953 -49.7933
L60.4433 -50.2264
L60.1838 -50.6553
L59.9169 -51.0796
L59.6428 -51.4994
L59.3614 -51.9144
L59.073 -52.3246
L58.7775 -52.7299
L58.475 -53.13
L58.1658 -53.5249
L57.8497 -53.9145
L57.5271 -54.2986
L57.1978 -54.6771
L56.8621 -55.05
L56.5201 -55.4171
L56.1718 -55.7782
L55.8173 -56.1333
L55.4568 -56.4823
L55.0904 -56.825
L54.7182 -57.1614
L54.3403 -57.4914
L53.9568 -57.8148
L53.5678 -58.1315
L53.1734 -58.4415
L52.7739 -58.7447
L52.3692 -59.041
L51.9595 -59.3302
L51.545 -59.6123
L51.1258 -59.8873
L50.7019 -60.1549
L50.2736 -60.4152
L49.8409 -60.6681
L49.404 -60.9135
L48.963 -61.1512
L48.518 -61.3813
z
" id="C0_2_5267d18068"/>
    </defs>
    <g clip-path="url(#p1bffca34e9)">
     <use style="fill:#ff0000;stroke:#000000;stroke-width:2.0;" x="0.0" xlink:href="#C0_0_a811fe30f3" y="72.0"/>
    </g>
    <g clip-path="url(#p1bffca34e9)">
     <use style="fill:#ffffff;stroke:#000000;stroke-width:2.0;" x="0.0" xlink:href="#C0_1_edb0bb047f" y="72.0"/>
    </g>
    <g clip-path="url(#p1bffca34e9)">
     <use style="fill:#ffffff;stroke:#000000;stroke-width:2.0;" x="0.0" xlink:href="#C0_2_5267d18068" y="72.0"/>
    </g>
   </g>
  </g>
 </g>
 <defs>
  <clipPath id="p1bffca34e9">
   <rect height="72.0" width="72.0" x="0.0" y="0.0"/>
  </clipPath>
 </defs>
</svg>
