<?xml version="1.0" encoding="utf-8" standalone="no"?>
<!DOCTYPE svg PUBLIC "-//W3C//DTD SVG 1.1//EN"
  "http://www.w3.org/Graphics/SVG/1.1/DTD/svg11.dtd">
<!-- Created with matplotlib (http://matplotlib.org/) -->
<svg height="72pt" version="1.1" viewBox="0 0 72 72" width="72pt" xmlns="http://www.w3.org/2000/svg" xmlns:xlink="http://www.w3.org/1999/xlink">
 <defs>
  <style type="text/css">
*{stroke-linecap:butt;stroke-linejoin:round;}
  </style>
 </defs>
 <g id="figure_1">
  <g id="patch_1">
   <path d="
M0 72
L72 72
L72 0
L0 0
z
" style="fill:none;"/>
  </g>
  <g id="axes_1">
   <g id="PatchCollection_1">
    <defs>
     <path d="
M36 -7.5
C43.5583 -7.5 50.808 -10.5029 56.1525 -15.8475
C61.4971 -21.192 64.5 -28.4417 64.5 -36
C64.5 -43.5583 61.4971 -50.808 56.1525 -56.1525
C50.808 -61.4971 43.5583 -64.5 36 -64.5
C28.4417 -64.5 21.192 -61.4971 15.8475 -56.1525
C10.5029 -50.808 7.5 -43.5583 7.5 -36
C7.5 -28.4417 10.5029 -21.192 15.8475 -15.8475
C21.192 -10.5029 28.4417 -7.5 36 -7.5
z
" id="C0_0_a811fe30f3"/>
     <path d="
M22.9957 -10.7756
L23.0588 -10.9978
L23.134 -11.2163
L23.2211 -11.4312
L23.3198 -11.6426
L23.4295 -11.8504
L23.5499 -12.0548
L23.6805 -12.2558
L23.8211 -12.4535
L23.971 -12.648
L24.1299 -12.8396
L24.2973 -13.0282
L24.4728 -13.2141
L24.6559 -13.3974
L24.8462 -13.5783
L25.0432 -13.7568
L25.2465 -13.9333
L25.4558 -14.1077
L25.6705 -14.2803
L25.8902 -14.4512
L26.1147 -14.6206
L26.3435 -14.7885
L26.5762 -14.9552
L26.8125 -15.1206
L27.0521 -15.2851
L27.2947 -15.4485
L27.5399 -15.6111
L27.7875 -15.773
L28.0371 -15.9342
L28.2887 -16.0948
L28.5418 -16.2548
L28.7962 -16.4144
L29.0518 -16.5737
L29.3084 -16.7326
L29.5657 -16.8912
L29.8237 -17.0495
L30.082 -17.2077
L30.3406 -17.3657
L30.5993 -17.5236
L30.858 -17.6814
L31.1166 -17.8391
L31.3749 -17.9968
L31.6329 -18.1544
L31.8905 -18.3121
L32.1476 -18.4697
L32.404 -18.6274
L32.6598 -18.7852
L32.9148 -18.9429
L33.1691 -19.1008
L33.4225 -19.2588
L33.675 -19.4168
L33.9266 -19.5749
L34.1773 -19.7332
L34.4269 -19.8916
L34.6756 -20.0501
L34.9232 -20.2087
L35.1698 -20.3675
L35.4153 -20.5264
L35.6597 -20.6855
L35.903 -20.8448
L36.1453 -21.0043
L36.3865 -21.1639
L36.6266 -21.3238
L36.8656 -21.4839
L37.1036 -21.6442
L37.3404 -21.8047
L37.5763 -21.9655
L37.8111 -22.1265
L38.0449 -22.2878
L38.2776 -22.4494
L38.5094 -22.6113
L38.7402 -22.7735
L38.97 -22.936
L39.199 -23.0988
L39.427 -23.262
L39.6541 -23.4256
L39.8803 -23.5896
L40.1057 -23.7539
L40.3302 -23.9187
L40.554 -24.0839
L40.777 -24.2495
L40.9992 -24.4157
L41.2208 -24.5823
L41.4416 -24.7494
L41.6617 -24.917
L41.8812 -25.0852
L42.1001 -25.254
L42.3184 -25.4233
L42.5362 -25.5932
L42.9701 -25.7638
L43.1863 -25.935
L43.402 -26.1069
L43.6173 -26.2794
L43.8322 -26.4527
L44.0468 -26.6267
L44.261 -26.8014
L44.4748 -26.9769
L44.6884 -27.1532
L44.9016 -27.3303
L45.1146 -27.5083
L45.3274 -27.6871
L45.54 -27.8668
L45.7524 -28.0474
L45.9647 -28.2289
L46.1768 -28.4113
L46.3887 -28.5947
L46.6006 -28.7791
L46.8125 -28.9644
L47.0242 -29.1508
L47.236 -29.3382
L47.4477 -29.5267
L47.6594 -29.7162
L47.8712 -29.9068
L48.0829 -30.0985
L48.2948 -30.2913
L48.5067 -30.4853
L48.7187 -30.6803
L48.9308 -30.8765
L49.143 -31.0738
L49.3553 -31.2723
L49.5678 -31.4719
L49.7804 -31.6727
L49.9931 -31.8746
L50.2061 -32.0777
L50.4192 -32.2819
L50.6324 -32.4872
L50.8459 -32.6937
L51.0596 -32.9012
L51.2734 -33.1098
L51.4874 -33.3195
L51.7017 -33.5302
L51.9161 -33.7419
L52.1308 -33.9545
L52.3456 -34.1681
L52.5607 -34.3825
L52.7759 -34.5977
L52.9914 -34.8136
L53.2071 -35.0302
L53.4229 -35.2474
L53.639 -35.4651
L53.8552 -35.6833
L54.0717 -35.9017
L54.2883 -36.1204
L54.5052 -36.3391
L54.7222 -36.5578
L54.9394 -36.7763
L55.1568 -36.9944
L55.3745 -37.2121
L55.5923 -37.429
L55.8103 -37.6452
L56.0286 -37.8602
L56.2471 -38.0739
L56.4658 -38.2861
L56.6848 -38.4966
L56.9041 -38.705
L57.1236 -38.9111
L57.3435 -39.1147
L57.5638 -39.3153
L57.7844 -39.5127
L58.0054 -39.7066
L58.2269 -39.8966
L58.4489 -40.0822
L58.6714 -40.2633
L58.8944 -40.4392
L59.1181 -40.6098
L59.3424 -40.7744
L59.5675 -40.9328
L59.7933 -41.0844
L60.0198 -41.2289
L60.2472 -41.3657
L60.4754 -41.4945
L60.7044 -41.6148
L60.9344 -41.7261
L61.1652 -41.828
L61.397 -41.9202
L61.6296 -42.0021
L61.863 -42.0733
L62.0973 -42.1336
L62.3322 -42.1825
L62.5679 -42.2197
L62.8041 -42.2449
L63.0408 -42.2578
L63.2778 -42.2581
L63.515 -42.2456
L63.7522 -42.2201
L63.9222 -42.1815
L64.0176 -41.7097
L64.1045 -41.2215
L64.1828 -40.7318
L64.2525 -40.2406
L64.3136 -39.7481
L64.3661 -39.2544
L64.4099 -38.7598
L64.4451 -38.2643
L64.4716 -37.7681
L64.4895 -37.2714
L64.4987 -36.7743
L64.4991 -36.277
L64.491 -35.7796
L64.4741 -35.2823
L64.4486 -34.7851
L64.4144 -34.2884
L64.3715 -33.7921
L64.32 -33.2966
L64.2599 -32.8018
L64.1911 -32.3081
L64.1138 -31.8154
L64.0279 -31.3241
L63.9335 -30.8341
L63.8306 -30.3458
L63.7191 -29.8591
L63.5993 -29.3743
L63.471 -28.8916
L63.3344 -28.411
L63.1894 -27.9327
L63.0362 -27.4569
L62.8747 -26.9837
L62.7051 -26.5132
L62.5273 -26.0456
L62.3414 -25.5811
L62.1475 -25.1197
L61.9456 -24.6616
L61.7359 -24.207
L61.5182 -23.756
L61.2929 -23.3087
L61.0598 -22.8653
L60.8191 -22.4259
L60.5708 -21.9906
L60.315 -21.5596
L60.0519 -21.1329
L59.7814 -20.7108
L59.5036 -20.2934
L59.2187 -19.8808
L58.9267 -19.473
L58.6278 -19.0703
L58.3219 -18.6728
L58.0093 -18.2805
L57.6899 -17.8936
L57.364 -17.5123
L57.0315 -17.1365
L56.6926 -16.7666
L56.3475 -16.4024
L55.9961 -16.0443
L55.6386 -15.6922
L55.2752 -15.3463
L54.9059 -15.0067
L54.5308 -14.6735
L54.1501 -14.3468
L53.7638 -14.0267
L53.3722 -13.7133
L52.9752 -13.4067
L52.5731 -13.1069
L52.1659 -12.8142
L51.7538 -12.5285
L51.3369 -12.2499
L50.9153 -11.9786
L50.4892 -11.7146
L50.0587 -11.458
L49.6239 -11.2088
L49.1849 -10.9672
L48.742 -10.7333
L48.2951 -10.507
L47.8445 -10.2885
L47.3903 -10.0779
L46.9326 -9.87509
L46.4716 -9.68028
L46.0074 -9.49349
L45.5402 -9.31477
L45.07 -9.14418
L44.5971 -8.98177
L44.1216 -8.82759
L43.6436 -8.68169
L43.1632 -8.54411
L42.6807 -8.41489
L42.1962 -8.29408
L41.7097 -8.18171
L41.2215 -8.0778
L40.7318 -7.98241
L40.2406 -7.89555
L39.7481 -7.81725
L39.2544 -7.74753
L38.7598 -7.68642
L38.2643 -7.63394
L37.7681 -7.59009
L37.2714 -7.5549
L36.7743 -7.52837
L36.277 -7.51052
L35.7796 -7.50135
L35.2823 -7.50085
L34.7851 -7.50904
L34.2884 -7.5259
L33.7921 -7.55144
L33.2966 -7.58565
L32.8018 -7.62851
L32.3081 -7.68001
L31.8154 -7.74014
L31.3241 -7.80888
L30.8341 -7.8862
L30.3458 -7.97209
L29.8591 -8.06652
L29.3743 -8.16945
L28.8916 -8.28086
L28.411 -8.40072
L27.9327 -8.52898
L27.4569 -8.66561
L26.9837 -8.81057
L26.5132 -8.96381
L26.0456 -9.12528
L25.5811 -9.29494
L25.1197 -9.47274
L24.6616 -9.65861
L24.207 -9.85251
L23.756 -10.0544
z
" id="C0_1_872ef1da60"/>
     <path d="
M8.30966 -29.936
L8.50243 -30.0923
L8.69421 -30.2578
L8.88509 -30.432
L9.07516 -30.6143
L9.26454 -30.8044
L9.45333 -31.0017
L9.64164 -31.2058
L9.82957 -31.4162
L10.0172 -31.6325
L10.2047 -31.8541
L10.3921 -32.0808
L10.5796 -32.312
L10.7671 -32.5473
L10.9548 -32.7863
L11.1428 -33.0287
L11.3312 -33.274
L11.5199 -33.5219
L11.7091 -33.7721
L11.8987 -34.0243
L12.0889 -34.2781
L12.2797 -34.5332
L12.4711 -34.7895
L12.6631 -35.0465
L12.8558 -35.3041
L13.0491 -35.5621
L13.2431 -35.8202
L13.4378 -36.0783
L13.6331 -36.3361
L13.8292 -36.5935
L14.0259 -36.8504
L14.2233 -37.1066
L14.4213 -37.3619
L14.6201 -37.6163
L14.8194 -37.8696
L15.0194 -38.1217
L15.22 -38.3726
L15.4212 -38.6221
L15.623 -38.8703
L15.8254 -39.1169
L16.0283 -39.362
L16.2318 -39.6056
L16.4359 -39.8475
L16.6404 -40.0877
L16.8455 -40.3263
L17.0511 -40.5631
L17.2572 -40.7981
L17.4637 -41.0314
L17.6708 -41.263
L17.8783 -41.4927
L18.0862 -41.7206
L18.2946 -41.9467
L18.5035 -42.171
L18.7128 -42.3936
L18.9226 -42.6143
L19.1328 -42.8333
L19.3435 -43.0505
L19.5546 -43.2659
L19.7661 -43.4796
L19.9781 -43.6915
L20.1906 -43.9017
L20.4036 -44.1103
L20.617 -44.3171
L20.8309 -44.5223
L21.0453 -44.7259
L21.2603 -44.9279
L21.4757 -45.1282
L21.6917 -45.327
L21.9082 -45.5243
L22.1253 -45.72
L22.3429 -45.9142
L22.5612 -46.107
L22.7801 -46.2983
L22.9996 -46.4882
L23.2197 -46.6767
L23.4406 -46.8638
L23.6621 -47.0496
L23.8843 -47.234
L24.1073 -47.4171
L24.331 -47.599
L24.5555 -47.7796
L24.7809 -47.959
L25.007 -48.1371
L25.234 -48.3141
L25.4619 -48.4899
L25.6908 -48.6646
L25.9205 -48.8381
L26.1512 -49.0105
L26.3829 -49.1819
L26.6157 -49.3521
L26.8495 -49.5214
L27.0843 -49.6896
L27.3203 -49.8568
L27.5574 -50.023
L27.7957 -50.1882
L28.0351 -50.3524
L28.2758 -50.5157
L28.5177 -50.6781
L28.761 -50.8395
L29.0055 -51
L29.2513 -51.1596
L29.4985 -51.3183
L29.7471 -51.4762
L29.9972 -51.6331
L30.2486 -51.7892
L30.5016 -51.9445
L30.756 -52.0989
L31.0119 -52.2524
L31.2694 -52.4051
L31.5284 -52.557
L31.789 -52.708
L32.0512 -52.8582
L32.315 -53.0076
L32.5805 -53.1562
L32.8475 -53.3039
L33.1163 -53.4508
L33.3867 -53.5968
L33.6587 -53.7421
L33.9324 -53.8865
L34.2078 -54.03
L34.4849 -54.1728
L34.7636 -54.3147
L35.044 -54.4557
L35.326 -54.5959
L35.6096 -54.7353
L35.8948 -54.8738
L36.1816 -55.0114
L36.4699 -55.1483
L36.7597 -55.2842
L37.051 -55.4193
L37.3437 -55.5536
L37.6377 -55.687
L37.933 -55.8195
L38.2295 -55.9513
L38.5271 -56.0822
L38.8258 -56.2123
L39.1254 -56.3416
L39.4258 -56.4701
L39.727 -56.5979
L40.0288 -56.7249
L40.331 -56.8513
L40.6336 -56.9769
L40.9363 -57.102
L41.239 -57.2265
L41.5415 -57.3505
L41.8436 -57.474
L42.1451 -57.5972
L42.4458 -57.72
L42.7454 -57.8427
L43.0438 -57.9652
L43.3405 -58.0877
L43.6355 -58.2103
L43.9283 -58.3331
L44.2187 -58.4563
L44.5064 -58.5799
L44.7909 -58.7042
L45.0721 -58.8294
L45.3495 -58.9555
L45.6228 -59.0828
L45.8916 -59.2114
L46.1554 -59.3416
L46.414 -59.4736
L46.667 -59.6074
L46.9138 -59.7435
L47.1542 -59.8819
L47.3877 -60.0229
L47.6139 -60.1667
L47.8324 -60.3134
L48.0428 -60.4634
L48.2448 -60.6166
L48.4379 -60.7734
L48.6218 -60.9339
L48.7961 -61.0982
L48.5632 -61.2664
L48.1148 -61.5816
L47.6628 -61.7969
L47.2072 -62.0044
L46.7481 -62.204
L46.2858 -62.3956
L45.8204 -62.5792
L45.352 -62.7546
L44.8807 -62.9219
L44.4067 -63.0811
L43.9302 -63.2319
L43.4512 -63.3745
L42.97 -63.5087
L42.4866 -63.6346
L42.0013 -63.752
L41.5141 -63.861
L41.0253 -63.9615
L40.5349 -64.0535
L40.0432 -64.1369
L39.5502 -64.2117
L39.0561 -64.278
L38.5612 -64.3357
L38.0654 -64.3847
L37.569 -64.4251
L37.0721 -64.4568
L36.5749 -64.4798
L36.0775 -64.4942
L35.5801 -64.4999
L35.0828 -64.4969
L34.5858 -64.4852
L34.0893 -64.4649
L33.5933 -64.4359
L33.098 -64.3982
L32.6037 -64.3519
L32.1103 -64.2969
L31.6182 -64.2333
L31.1274 -64.1611
L30.6381 -64.0804
L30.1504 -63.9911
L29.6645 -63.8932
L29.1805 -63.7869
L28.6986 -63.6721
L28.2189 -63.5488
L27.7416 -63.4172
L27.2668 -63.2772
L26.7946 -63.129
L26.3253 -62.9724
L25.8589 -62.8077
L25.3956 -62.6347
L24.9356 -62.4537
L24.4789 -62.2646
L24.0257 -62.0675
L23.5761 -61.8624
L23.1304 -61.6495
L22.6886 -61.4288
L22.2508 -61.2003
L21.8172 -60.9642
L21.3879 -60.7204
L20.9631 -60.4691
L20.5429 -60.2104
L20.1273 -59.9442
L19.7166 -59.6708
L19.3109 -59.3902
L18.9102 -59.1025
L18.5148 -58.8077
L18.1247 -58.5059
L17.74 -58.1974
L17.3609 -57.882
L16.9875 -57.56
L16.6198 -57.2314
L16.2581 -56.8964
L15.9023 -56.555
L15.5527 -56.2073
L15.2094 -55.8535
L14.8723 -55.4936
L14.5417 -55.1278
L14.2176 -54.7561
L13.9002 -54.3788
L13.5895 -53.9958
L13.2856 -53.6074
L12.9887 -53.2136
L12.6987 -52.8145
L12.4159 -52.4104
L12.1402 -52.0012
L11.8718 -51.5872
L11.6107 -51.1684
L11.3571 -50.745
L11.111 -50.3171
L10.8725 -49.8848
L10.6416 -49.4483
L10.4184 -49.0078
L10.2031 -48.5632
L9.99558 -48.1148
L9.796 -47.6628
L9.6044 -47.2072
L9.42084 -46.7481
L9.24537 -46.2858
L9.07806 -45.8204
L8.91894 -45.352
L8.76808 -44.8807
L8.62551 -44.4067
L8.49128 -43.9302
L8.36543 -43.4512
L8.24799 -42.97
L8.13901 -42.4866
L8.03852 -42.0013
L7.94654 -41.5141
L7.86311 -41.0253
L7.78825 -40.5349
L7.72199 -40.0432
L7.66433 -39.5502
L7.61531 -39.0561
L7.57494 -38.5612
L7.54322 -38.0654
L7.52017 -37.569
L7.5058 -37.0721
L7.50011 -36.5749
L7.50309 -36.0775
L7.51476 -35.5801
L7.53511 -35.0828
L7.56412 -34.5858
L7.6018 -34.0893
L7.64813 -33.5933
L7.70309 -33.098
L7.76668 -32.6037
L7.83886 -32.1103
L7.91962 -31.6182
L8.00894 -31.1274
z
" id="C0_2_c7d104678b"/>
    </defs>
    <g clip-path="url(#p1bffca34e9)">
     <use style="fill:#ff0000;stroke:#000000;stroke-width:2.0;" x="0.0" xlink:href="#C0_0_a811fe30f3" y="72.0"/>
    </g>
    <g clip-path="url(#p1bffca34e9)">
     <use style="fill:#ffffff;stroke:#000000;stroke-width:2.0;" x="0.0" xlink:href="#C0_1_872ef1da60" y="72.0"/>
    </g>
    <g clip-path="url(#p1bffca34e9)">
     <use style="fill:#ffffff;stroke:#000000;stroke-width:2.0;" x="0.0" xlink:href="#C0_2_c7d104678b" y="72.0"/>
    </g>
   </g>
  </g>
 </g>
 <defs>
  <clipPath id="p1bffca34e9">
   <rect height="72.0" width="72.0" x="0.0" y="0.0"/>
  </clipPath>
 </defs>
</svg>
