<?xml version="1.0" encoding="utf-8" standalone="no"?>
<!DOCTYPE svg PUBLIC "-//W3C//DTD SVG 1.1//EN"
  "http://www.w3.org/Graphics/SVG/1.1/DTD/svg11.dtd">
<!-- Created with matplotlib (http://matplotlib.org/) -->
<svg height="72pt" version="1.1" viewBox="0 0 72 72" width="72pt" xmlns="http://www.w3.org/2000/svg" xmlns:xlink="http://www.w3.org/1999/xlink">
 <defs>
  <style type="text/css">
*{stroke-linecap:butt;stroke-linejoin:round;}
  </style>
 </defs>
 <g id="figure_1">
  <g id="patch_1">
   <path d="
M0 72
L72 72
L72 0
L0 0
z
" style="fill:none;"/>
  </g>
  <g id="axes_1">
   <g id="PatchCollection_1">
    <defs>
     <path d="
M36 -7.5
C43.5583 -7.5 50.808 -10.5029 56.1525 -15.8475
C61.4971 -21.192 64.5 -28.4417 64.5 -36
C64.5 -43.5583 61.4971 -50.808 56.1525 -56.1525
C50.808 -61.4971 43.5583 -64.5 36 -64.5
C28.4417 -64.5 21.192 -61.4971 15.8475 -56.1525
C10.5029 -50.808 7.5 -43.5583 7.5 -36
C7.5 -28.4417 10.5029 -21.192 15.8475 -15.8475
C21.192 -10.5029 28.4417 -7.5 36 -7.5
z
" id="C0_0_a811fe30f3"/>
     <path d="
M44.0978 -8.69066
L44.2064 -8.9583
L44.2836 -9.22396
L44.3297 -9.48723
L44.3456 -9.74787
L44.3325 -10.0057
L44.2919 -10.2609
L44.2255 -10.5134
L44.1352 -10.7634
L44.023 -11.0114
L43.8908 -11.2575
L43.7407 -11.5022
L43.5747 -11.7457
L43.3946 -11.9883
L43.2022 -12.2303
L42.999 -12.4721
L42.7866 -12.7137
L42.5663 -12.9554
L42.3394 -13.1974
L42.107 -13.4397
L41.87 -13.6824
L41.6294 -13.9255
L41.3859 -14.1692
L41.1404 -14.4133
L40.8933 -14.658
L40.6453 -14.9031
L40.3968 -15.1486
L40.1484 -15.3945
L39.9003 -15.6407
L39.653 -15.8871
L39.4066 -16.1338
L39.1616 -16.3805
L38.918 -16.6273
L38.6762 -16.874
L38.4362 -17.1207
L38.1982 -17.3671
L37.9624 -17.6133
L37.7288 -17.8593
L37.4975 -18.1048
L37.2686 -18.35
L37.0422 -18.5947
L36.8183 -18.8388
L36.5969 -19.0824
L36.378 -19.3254
L36.1617 -19.5678
L35.948 -19.8095
L35.7369 -20.0505
L35.5283 -20.2907
L35.3223 -20.5302
L35.1188 -20.769
L34.9178 -21.0069
L34.7192 -21.2441
L34.5232 -21.4805
L34.3295 -21.7161
L34.1382 -21.9509
L33.9493 -22.1849
L33.7626 -22.4181
L33.5782 -22.6506
L33.3961 -22.8823
L33.2161 -23.1132
L33.0382 -23.3434
L32.8624 -23.5729
L32.6887 -23.8017
L32.5169 -24.0298
L32.3471 -24.2573
L32.1792 -24.4841
L32.0132 -24.7103
L31.8489 -24.936
L31.6864 -25.1611
L31.5256 -25.3857
L31.3665 -25.6099
L31.209 -25.8336
L31.0531 -26.0569
L30.8987 -26.2798
L30.7458 -26.5024
L30.5944 -26.7247
L30.4444 -26.9467
L30.2957 -27.1685
L30.1483 -27.3901
L30.0023 -27.6116
L29.8574 -27.833
L29.7138 -28.0543
L29.5714 -28.2756
L29.43 -28.497
L29.2898 -28.7184
L29.1506 -28.94
L29.0125 -29.1617
L28.8753 -29.3836
L28.7391 -29.6058
L28.6038 -29.8283
L28.4693 -30.0512
L28.203 -30.2744
L28.0711 -30.4982
L27.9399 -30.7224
L27.8095 -30.9471
L27.6797 -31.1725
L27.5507 -31.3985
L27.4223 -31.6252
L27.2945 -31.8527
L27.1674 -32.0809
L27.0408 -32.3101
L26.9148 -32.5401
L26.7893 -32.7711
L26.6644 -33.0032
L26.5399 -33.2363
L26.4159 -33.4705
L26.2924 -33.7059
L26.1694 -33.9425
L26.0467 -34.1805
L25.9245 -34.4198
L25.8026 -34.6605
L25.6812 -34.9026
L25.5601 -35.1463
L25.4394 -35.3915
L25.319 -35.6384
L25.199 -35.887
L25.0793 -36.1373
L24.9599 -36.3894
L24.8409 -36.6434
L24.7222 -36.8992
L24.6037 -37.1571
L24.4856 -37.417
L24.3678 -37.6789
L24.2503 -37.943
L24.1332 -38.2093
L24.0163 -38.4777
L23.8998 -38.7485
L23.7836 -39.0216
L23.6677 -39.2971
L23.5522 -39.575
L23.4371 -39.8554
L23.3223 -40.1383
L23.2079 -40.4237
L23.0939 -40.7117
L22.9803 -41.0022
L22.8672 -41.2955
L22.7545 -41.5913
L22.6423 -41.8898
L22.5306 -42.191
L22.4194 -42.4949
L22.3088 -42.8015
L22.1987 -43.1107
L22.0892 -43.4226
L21.9804 -43.737
L21.8721 -44.0541
L21.7645 -44.3737
L21.6576 -44.6958
L21.5513 -45.0203
L21.4458 -45.3471
L21.3409 -45.6761
L21.2367 -46.0072
L21.1332 -46.3402
L21.0304 -46.6751
L20.9281 -47.0115
L20.8265 -47.3494
L20.7253 -47.6885
L20.6246 -48.0285
L20.5242 -48.3692
L20.424 -48.7101
L20.3238 -49.0511
L20.2235 -49.3915
L20.1228 -49.7311
L20.0214 -50.0693
L19.919 -50.4056
L19.8152 -50.7393
L19.7096 -51.0697
L19.6016 -51.3962
L19.4906 -51.7179
L19.376 -52.0339
L19.2569 -52.3431
L19.1326 -52.6446
L19.002 -52.9371
L18.8642 -53.2194
L18.718 -53.49
L18.5623 -53.7477
L18.3959 -53.9907
L18.2176 -54.2177
L18.0264 -54.4269
L17.8211 -54.6169
L17.6009 -54.7862
L17.3651 -54.9334
L17.1134 -55.0573
L16.8455 -55.1567
L16.5616 -55.231
L16.2621 -55.2795
L15.9477 -55.302
L15.6194 -55.2984
L15.2783 -55.2689
L14.9257 -55.2139
L14.5683 -55.1339
L14.2437 -54.7865
L13.9257 -54.4096
L13.6145 -54.0271
L13.31 -53.6391
L13.0125 -53.2458
L12.722 -52.8471
L12.4386 -52.4434
L12.1623 -52.0346
L11.8933 -51.621
L11.6317 -51.2026
L11.3774 -50.7795
L11.1307 -50.352
L10.8916 -49.9201
L10.6601 -49.4839
L10.4363 -49.0437
L10.2203 -48.5995
L10.0121 -48.1514
L9.81191 -47.6996
L9.61966 -47.2443
L9.43544 -46.7855
L9.25932 -46.3235
L9.09134 -45.8583
L8.93156 -45.3901
L8.78002 -44.9191
L8.63678 -44.4453
L8.50187 -43.969
L8.37534 -43.4902
L8.25722 -43.0091
L8.14755 -42.5259
L8.04637 -42.0408
L7.9537 -41.5538
L7.86957 -41.0651
L7.79401 -40.5748
L7.72705 -40.0832
L7.66869 -39.5903
L7.61897 -39.0963
L7.57789 -38.6014
L7.54547 -38.1057
L7.52172 -37.6093
L7.50664 -37.1125
L7.50024 -36.6153
L7.50253 -36.1179
L7.51349 -35.6205
L7.53313 -35.1232
L7.56144 -34.6262
L7.59842 -34.1296
L7.64404 -33.6336
L7.69831 -33.1382
L7.76119 -32.6438
L7.83268 -32.1504
L7.91274 -31.6581
L8.00136 -31.1672
L8.09851 -30.6777
L8.20416 -30.1899
L8.31828 -29.7038
L8.44083 -29.2197
L8.57177 -28.7376
L8.71107 -28.2578
L8.85868 -27.7802
L9.01456 -27.3052
L9.17866 -26.8329
L9.35093 -26.3633
L9.53131 -25.8967
L9.71976 -25.4331
L9.91621 -24.9728
L10.1206 -24.5158
L10.3329 -24.0624
L10.553 -23.6125
L10.7808 -23.1664
L11.0164 -22.7243
L11.2595 -22.2862
L11.5102 -21.8522
L11.7683 -21.4226
L12.0339 -20.9974
L12.3067 -20.5768
L12.5867 -20.1609
L12.8739 -19.7498
L13.1681 -19.3437
L13.4693 -18.9426
L13.7773 -18.5467
L14.0921 -18.1562
L14.4136 -17.771
L14.7416 -17.3915
L15.0762 -17.0176
L15.4171 -16.6495
L15.7642 -16.2872
L16.1176 -15.931
L16.477 -15.5809
L16.8423 -15.237
L17.2135 -14.8995
L17.5904 -14.5683
L17.9729 -14.2437
L18.3609 -13.9257
L18.7542 -13.6145
L19.1529 -13.31
L19.5566 -13.0125
L19.9654 -12.722
L20.379 -12.4386
L20.7974 -12.1623
L21.2205 -11.8933
L21.648 -11.6317
L22.0799 -11.3774
L22.5161 -11.1307
L22.9563 -10.8916
L23.4005 -10.6601
L23.8486 -10.4363
L24.3004 -10.2203
L24.7557 -10.0121
L25.2145 -9.81191
L25.6765 -9.61966
L26.1417 -9.43544
L26.6099 -9.25932
L27.0809 -9.09134
L27.5547 -8.93156
L28.031 -8.78002
L28.5098 -8.63678
L28.9909 -8.50187
L29.4741 -8.37534
L29.9592 -8.25722
L30.4462 -8.14755
L30.9349 -8.04637
L31.4252 -7.9537
L31.9168 -7.86957
L32.4097 -7.79401
L32.9037 -7.72705
L33.3986 -7.66869
L33.8943 -7.61897
L34.3907 -7.57789
L34.8875 -7.54547
L35.3847 -7.52172
L35.8821 -7.50664
L36.3795 -7.50024
L36.8768 -7.50253
L37.3738 -7.51349
L37.8704 -7.53313
L38.3664 -7.56144
L38.8618 -7.59842
L39.3562 -7.64404
L39.8496 -7.69831
L40.3419 -7.76119
L40.8328 -7.83268
L41.3223 -7.91274
L41.8101 -8.00136
L42.2962 -8.09851
L42.7803 -8.20416
L43.2624 -8.31828
z
" id="C0_1_425227c402"/>
     <path d="
M57.1899 -17.1899
L57.2614 -17.5725
L57.3395 -17.9653
L57.4227 -18.367
L57.5094 -18.7766
L57.5982 -19.193
L57.6879 -19.6154
L57.7773 -20.0427
L57.8656 -20.4741
L57.9519 -20.9089
L58.0355 -21.3462
L58.1158 -21.7855
L58.1922 -22.226
L58.2644 -22.6672
L58.3321 -23.1085
L58.3949 -23.5495
L58.4526 -23.9897
L58.5051 -24.4287
L58.5523 -24.8662
L58.5941 -25.3018
L58.6304 -25.7352
L58.6614 -26.1661
L58.6869 -26.5943
L58.7071 -27.0196
L58.7219 -27.4418
L58.7316 -27.8607
L58.7361 -28.2761
L58.7356 -28.6881
L58.7301 -29.0963
L58.7198 -29.5008
L58.7049 -29.9015
L58.6853 -30.2983
L58.6613 -30.6911
L58.633 -31.08
L58.6004 -31.4649
L58.5638 -31.8458
L58.5232 -32.2227
L58.4788 -32.5956
L58.4306 -32.9645
L58.3789 -33.3294
L58.3236 -33.6904
L58.2649 -34.0475
L58.203 -34.4007
L58.1378 -34.7501
L58.0696 -35.0958
L57.9983 -35.4377
L57.9241 -35.776
L57.8471 -36.1106
L57.7674 -36.4417
L57.685 -36.7693
L57.5999 -37.0935
L57.5123 -37.4144
L57.4223 -37.732
L57.3298 -38.0463
L57.2349 -38.3575
L57.1378 -38.6656
L57.0383 -38.9708
L56.9367 -39.2729
L56.8329 -39.5723
L56.7269 -39.8688
L56.6188 -40.1626
L56.5086 -40.4537
L56.3964 -40.7423
L56.2822 -41.0284
L56.1659 -41.312
L56.0476 -41.5932
L55.9274 -41.8721
L55.8052 -42.1488
L55.681 -42.4233
L55.5549 -42.6958
L55.4269 -42.9661
L55.2969 -43.2345
L55.1649 -43.501
L55.031 -43.7656
L54.8951 -44.0284
L54.7573 -44.2894
L54.6174 -44.5488
L54.4756 -44.8066
L54.3318 -45.0628
L54.1859 -45.3174
L54.038 -45.5707
L53.888 -45.8225
L53.7359 -46.0729
L53.5817 -46.3221
L53.4253 -46.57
L53.2667 -46.8166
L53.1059 -47.0621
L52.9428 -47.3065
L52.7775 -47.5498
L52.6097 -47.7921
L52.4397 -48.0333
L52.2671 -48.2736
L52.0921 -48.513
L51.9146 -48.7515
L51.7345 -48.9891
L51.5518 -49.2259
L51.3664 -49.4619
L51.1783 -49.6971
L50.9873 -49.9316
L50.7935 -50.1653
L50.5968 -50.3984
L50.3971 -50.6308
L50.1943 -50.8625
L49.9885 -51.0935
L49.7794 -51.324
L49.567 -51.5538
L49.3513 -51.783
L49.1322 -52.0116
L48.9097 -52.2396
L48.6835 -52.4669
L48.4537 -52.6937
L48.2201 -52.9198
L47.9828 -53.1453
L47.7415 -53.3702
L47.4963 -53.5944
L47.2469 -53.8179
L46.9935 -54.0407
L46.7358 -54.2627
L46.4737 -54.484
L46.2073 -54.7045
L45.9363 -54.9241
L45.6607 -55.1428
L45.3805 -55.3606
L45.0956 -55.5773
L44.8057 -55.793
L44.511 -56.0075
L44.2113 -56.2208
L43.9066 -56.4328
L43.5967 -56.6435
L43.2816 -56.8527
L42.9614 -57.0603
L42.6358 -57.2662
L42.3049 -57.4704
L41.9686 -57.6727
L41.6269 -57.873
L41.2799 -58.0712
L40.9275 -58.2671
L40.5697 -58.4607
L40.2065 -58.6518
L39.8381 -58.8403
L39.4645 -59.026
L39.0857 -59.2088
L38.7019 -59.3885
L38.3133 -59.5651
L37.9199 -59.7385
L37.5221 -59.9084
L37.12 -60.0749
L36.7139 -60.2377
L36.3042 -60.3969
L35.8912 -60.5523
L35.4753 -60.704
L35.0571 -60.8519
L34.637 -60.996
L34.2158 -61.1364
L33.7939 -61.2733
L33.3723 -61.4068
L32.9518 -61.537
L32.5334 -61.6644
L32.118 -61.7892
L31.7069 -61.912
L31.3013 -62.0332
L30.9026 -62.1535
L30.5122 -62.2736
L30.1319 -62.3943
L29.7631 -62.5165
L29.4078 -62.6412
L29.0676 -62.7694
L28.7444 -62.9023
L28.4399 -63.0408
L28.578 -63.186
L29.0594 -63.5166
L29.5429 -63.642
L30.0283 -63.7589
L30.5156 -63.8673
L31.0045 -63.9673
L31.4949 -64.0588
L31.9868 -64.1417
L32.4798 -64.216
L32.9739 -64.2818
L33.469 -64.3389
L33.9648 -64.3874
L34.4612 -64.4272
L34.9581 -64.4584
L35.4554 -64.481
L35.9527 -64.4948
L36.4501 -64.5
L36.9474 -64.4964
L37.4444 -64.4842
L37.9409 -64.4634
L38.4369 -64.4338
L38.9321 -64.3956
L39.4264 -64.3488
L39.9196 -64.2933
L40.4117 -64.2292
L40.9024 -64.1565
L41.3917 -64.0752
L41.8792 -63.9854
L42.365 -63.887
L42.8489 -63.7801
L43.3307 -63.6648
L43.8102 -63.5411
L44.2874 -63.4089
L44.762 -63.2685
L45.234 -63.1197
L45.7032 -62.9626
L46.1694 -62.7974
L46.6325 -62.6239
L47.0923 -62.4424
L47.5488 -62.2528
L48.0018 -62.0552
L48.4511 -61.8497
L48.8966 -61.6363
L49.3382 -61.4151
L49.7757 -61.1862
L50.2091 -60.9495
L50.6381 -60.7053
L51.0626 -60.4536
L51.4826 -60.1944
L51.8978 -59.9278
L52.3082 -59.654
L52.7136 -59.3729
L53.114 -59.0847
L53.5091 -58.7895
L53.8989 -58.4874
L54.2832 -58.1784
L54.662 -57.8626
L55.0351 -57.5402
L55.4024 -57.2112
L55.7637 -56.8758
L56.1191 -56.534
L56.4683 -56.1859
L56.8113 -55.8317
L57.148 -55.4715
L57.4782 -55.1053
L57.8019 -54.7333
L58.1189 -54.3556
L58.4292 -53.9723
L58.7326 -53.5836
L59.0292 -53.1894
L59.3187 -52.7901
L59.6011 -52.3856
L59.8763 -51.9762
L60.1443 -51.5618
L60.4049 -51.1428
L60.6581 -50.7191
L60.9037 -50.2909
L61.1418 -49.8584
L61.3722 -49.4216
L61.5949 -48.9808
L61.8098 -48.536
L62.0168 -48.0874
L62.2159 -47.6352
L62.407 -47.1793
L62.5901 -46.7201
L62.765 -46.2576
L62.9319 -45.792
L63.0905 -45.3234
L63.2408 -44.8519
L63.3829 -44.3778
L63.5166 -43.9011
L63.642 -43.422
L63.7589 -42.9406
L63.8673 -42.4571
L63.9673 -41.9717
L64.0588 -41.4844
L64.1417 -40.9955
L64.216 -40.5051
L64.2818 -40.0132
L64.3389 -39.5202
L64.3874 -39.0261
L64.4272 -38.531
L64.4584 -38.0352
L64.481 -37.5388
L64.4948 -37.0419
L64.5 -36.5446
L64.4964 -36.0473
L64.4842 -35.5499
L64.4634 -35.0526
L64.4338 -34.5556
L64.3956 -34.0591
L64.3488 -33.5631
L64.2933 -33.0679
L64.2292 -32.5736
L64.1565 -32.0804
L64.0752 -31.5883
L63.9854 -31.0976
L63.887 -30.6083
L63.7801 -30.1208
L63.6648 -29.635
L63.5411 -29.1511
L63.4089 -28.6693
L63.2685 -28.1898
L63.1197 -27.7126
L62.9626 -27.238
L62.7974 -26.766
L62.6239 -26.2968
L62.4424 -25.8306
L62.2528 -25.3675
L62.0552 -24.9077
L61.8497 -24.4512
L61.6363 -23.9982
L61.4151 -23.5489
L61.1862 -23.1034
L60.9495 -22.6618
L60.7053 -22.2243
L60.4536 -21.7909
L60.1944 -21.3619
L59.9278 -20.9374
L59.654 -20.5174
L59.3729 -20.1022
L59.0847 -19.6918
L58.7895 -19.2864
L58.4874 -18.886
L58.1784 -18.4909
L57.8626 -18.1011
z
" id="C0_2_3974e3faec"/>
    </defs>
    <g clip-path="url(#p1bffca34e9)">
     <use style="fill:#ff0000;stroke:#000000;stroke-width:2.0;" x="0.0" xlink:href="#C0_0_a811fe30f3" y="72.0"/>
    </g>
    <g clip-path="url(#p1bffca34e9)">
     <use style="fill:#ffffff;stroke:#000000;stroke-width:2.0;" x="0.0" xlink:href="#C0_1_425227c402" y="72.0"/>
    </g>
    <g clip-path="url(#p1bffca34e9)">
     <use style="fill:#ffffff;stroke:#000000;stroke-width:2.0;" x="0.0" xlink:href="#C0_2_3974e3faec" y="72.0"/>
    </g>
   </g>
  </g>
 </g>
 <defs>
  <clipPath id="p1bffca34e9">
   <rect height="72.0" width="72.0" x="0.0" y="0.0"/>
  </clipPath>
 </defs>
</svg>
