<?xml version="1.0" encoding="utf-8" standalone="no"?>
<!DOCTYPE svg PUBLIC "-//W3C//DTD SVG 1.1//EN"
  "http://www.w3.org/Graphics/SVG/1.1/DTD/svg11.dtd">
<!-- Created with matplotlib (http://matplotlib.org/) -->
<svg height="72pt" version="1.1" viewBox="0 0 72 72" width="72pt" xmlns="http://www.w3.org/2000/svg" xmlns:xlink="http://www.w3.org/1999/xlink">
 <defs>
  <style type="text/css">
*{stroke-linecap:butt;stroke-linejoin:round;}
  </style>
 </defs>
 <g id="figure_1">
  <g id="patch_1">
   <path d="
M0 72
L72 72
L72 0
L0 0
z
" style="fill:none;"/>
  </g>
  <g id="axes_1">
   <g id="PatchCollection_1">
    <defs>
     <path d="
M36 -7.5
C43.5583 -7.5 50.808 -10.5029 56.1525 -15.8475
C61.4971 -21.192 64.5 -28.4417 64.5 -36
C64.5 -43.5583 61.4971 -50.808 56.1525 -56.1525
C50.808 -61.4971 43.5583 -64.5 36 -64.5
C28.4417 -64.5 21.192 -61.4971 15.8475 -56.1525
C10.5029 -50.808 7.5 -43.5583 7.5 -36
C7.5 -28.4417 10.5029 -21.192 15.8475 -15.8475
C21.192 -10.5029 28.4417 -7.5 36 -7.5
z
" id="C0_0_a811fe30f3"/>
     <path d="
M58.82 -19.2649
L58.6235 -19.4009
L58.4227 -19.5332
L58.2178 -19.6622
L58.0092 -19.7882
L57.7972 -19.9114
L57.5822 -20.032
L57.3643 -20.1501
L57.1439 -20.2661
L56.9212 -20.38
L56.6964 -20.4921
L56.4698 -20.6024
L56.2415 -20.7111
L56.0118 -20.8183
L55.7807 -20.9242
L55.5485 -21.0288
L55.3153 -21.1323
L55.0812 -21.2347
L54.8464 -21.3362
L54.611 -21.4367
L54.375 -21.5364
L54.1386 -21.6354
L53.9018 -21.7336
L53.6648 -21.8311
L53.4276 -21.9281
L53.1903 -22.0245
L52.9529 -22.1204
L52.7154 -22.2159
L52.4781 -22.3109
L52.2407 -22.4055
L52.0035 -22.4997
L51.7664 -22.5937
L51.5295 -22.6873
L51.2928 -22.7806
L51.0563 -22.8737
L50.82 -22.9666
L50.5839 -23.0593
L50.348 -23.1518
L50.1124 -23.2442
L49.8771 -23.3364
L49.642 -23.4285
L49.4071 -23.5205
L49.1725 -23.6125
L48.9381 -23.7044
L48.7039 -23.7963
L48.4699 -23.8881
L48.2361 -23.9799
L48.0025 -24.0718
L47.769 -24.1637
L47.5357 -24.2556
L47.3025 -24.3476
L47.0694 -24.4397
L46.8363 -24.5319
L46.6033 -24.6242
L46.3704 -24.7166
L46.1374 -24.8092
L45.9044 -24.9019
L45.6713 -24.9949
L45.4382 -25.0879
L45.2049 -25.1812
L44.9715 -25.2748
L44.7379 -25.3685
L44.5041 -25.4625
L44.2701 -25.5568
L44.0357 -25.6514
L43.5661 -25.7462
L43.3307 -25.8414
L43.095 -25.9369
L42.8587 -26.0327
L42.622 -26.1289
L42.3848 -26.2254
L42.147 -26.3224
L41.9086 -26.4197
L41.6696 -26.5175
L41.4299 -26.6156
L41.1895 -26.7143
L40.9484 -26.8133
L40.7064 -26.9129
L40.4637 -27.0129
L40.2201 -27.1134
L39.9756 -27.2145
L39.7302 -27.316
L39.4838 -27.4181
L39.2364 -27.5208
L38.9879 -27.624
L38.7384 -27.7277
L38.4878 -27.832
L38.236 -27.937
L37.983 -28.0425
L37.7288 -28.1486
L37.4733 -28.2553
L37.2165 -28.3627
L36.9585 -28.4706
L36.699 -28.5792
L36.4382 -28.6884
L36.1759 -28.7982
L35.9122 -28.9087
L35.6471 -29.0197
L35.3804 -29.1314
L35.1122 -29.2437
L34.8424 -29.3566
L34.5711 -29.47
L34.2982 -29.5841
L34.0236 -29.6987
L33.7475 -29.8138
L33.4696 -29.9295
L33.1902 -30.0456
L32.909 -30.1622
L32.6262 -30.2792
L32.3417 -30.3966
L32.0556 -30.5143
L31.7677 -30.6323
L31.4782 -30.7506
L31.1871 -30.869
L30.8943 -30.9875
L30.5998 -31.1061
L30.3038 -31.2246
L30.0062 -31.3429
L29.707 -31.461
L29.4063 -31.5788
L29.1041 -31.6961
L28.8005 -31.8128
L28.4955 -31.9288
L28.1892 -32.0439
L27.8817 -32.158
L27.5729 -32.2709
L27.263 -32.3824
L26.9521 -32.4923
L26.6402 -32.6004
L26.3274 -32.7065
L26.0139 -32.8103
L25.6997 -32.9115
L25.385 -33.01
L25.0698 -33.1054
L24.7544 -33.1973
L24.4387 -33.2856
L24.123 -33.3698
L23.8075 -33.4495
L23.4922 -33.5245
L23.1773 -33.5943
L22.863 -33.6585
L22.5495 -33.7167
L22.2369 -33.7686
L21.9254 -33.8136
L21.6153 -33.8514
L21.3067 -33.8816
L20.9998 -33.9037
L20.6948 -33.9172
L20.3919 -33.9219
L20.0914 -33.9173
L19.7934 -33.903
L19.4983 -33.8787
L19.2061 -33.8442
L18.9171 -33.7991
L18.6316 -33.7431
L18.3498 -33.6762
L18.0719 -33.5981
L17.7981 -33.5087
L17.5286 -33.408
L17.2637 -33.2961
L17.0035 -33.1728
L16.7483 -33.0384
L16.4982 -32.8929
L16.2535 -32.7365
L16.0142 -32.5695
L15.7807 -32.392
L15.553 -32.2045
L15.3312 -32.0072
L15.1156 -31.8004
L14.9063 -31.5845
L14.7033 -31.3598
L14.5068 -31.1269
L14.3169 -30.8859
L14.1336 -30.6374
L13.9571 -30.3818
L13.7874 -30.1194
L13.6246 -29.8506
L13.4686 -29.5759
L13.3196 -29.2956
L13.1775 -29.01
L13.0425 -28.7196
L12.9144 -28.4247
L12.7934 -28.1256
L12.6793 -27.8227
L12.5722 -27.5163
L12.4721 -27.2066
L12.3789 -26.894
L12.2927 -26.5787
L12.2133 -26.261
L12.1408 -25.9412
L12.0751 -25.6195
L12.0162 -25.2961
L11.964 -24.9712
L11.9185 -24.645
L11.8797 -24.3177
L11.8474 -23.9895
L11.8217 -23.6605
L11.8024 -23.331
L11.7896 -23.001
L11.7832 -22.6706
L11.7831 -22.3401
L11.7892 -22.0096
L11.8017 -21.679
L11.8203 -21.3486
L12.039 -21.0185
L12.3119 -20.5689
L12.5921 -20.1531
L12.8794 -19.7421
L13.1738 -19.336
L13.4751 -18.935
L13.7832 -18.5393
L14.0982 -18.1488
L14.4198 -17.7638
L14.7479 -17.3843
L15.0826 -17.0105
L15.4236 -16.6425
L15.7709 -16.2804
L16.1243 -15.9243
L16.4838 -15.5743
L16.8493 -15.2306
L17.2206 -14.8931
L17.5976 -14.5621
L17.9802 -14.2376
L18.3683 -13.9198
L18.7618 -13.6086
L19.1605 -13.3043
L19.5643 -13.0069
L19.9732 -12.7166
L20.3869 -12.4333
L20.8054 -12.1571
L21.2285 -11.8883
L21.6562 -11.6268
L22.0881 -11.3727
L22.5244 -11.1261
L22.9647 -10.8871
L23.409 -10.6557
L23.8571 -10.4321
L24.309 -10.2163
L24.7644 -10.0083
L25.2232 -9.80819
L25.6853 -9.61609
L26.1506 -9.43203
L26.6188 -9.25606
L27.0899 -9.08823
L27.5637 -8.92861
L28.0401 -8.77723
L28.5189 -8.63414
L29 -8.49939
L29.4832 -8.37302
L29.9684 -8.25506
L30.4555 -8.14555
L30.9442 -8.04453
L31.4345 -7.95202
L31.9262 -7.86806
L32.4191 -7.79266
L32.9131 -7.72586
L33.408 -7.66767
L33.9037 -7.61811
L34.4001 -7.5772
L34.897 -7.54494
L35.3941 -7.52135
L35.8915 -7.50644
L36.3889 -7.50021
L36.8862 -7.50265
L37.3832 -7.51378
L37.8798 -7.53359
L38.3759 -7.56206
L38.8712 -7.5992
L39.3656 -7.64499
L39.859 -7.69942
L40.3512 -7.76247
L40.8421 -7.83412
L41.3315 -7.91434
L41.8193 -8.00313
L42.3054 -8.10044
L42.7895 -8.20625
L43.2715 -8.32053
L43.7513 -8.44324
L44.2288 -8.57434
L44.7037 -8.7138
L45.1761 -8.86156
L45.6456 -9.0176
L46.1121 -9.18185
L46.5756 -9.35427
L47.0359 -9.53481
L47.4928 -9.72341
L47.9462 -9.92002
L48.396 -10.1246
L48.842 -10.337
L49.2841 -10.5572
L49.7221 -10.7852
L50.1559 -11.0209
L50.5855 -11.2642
L51.0106 -11.515
L51.4311 -11.7733
L51.8469 -12.039
L52.2579 -12.3119
L52.664 -12.5921
L53.065 -12.8794
L53.4607 -13.1738
L53.8512 -13.4751
L54.2362 -13.7832
L54.6157 -14.0982
L54.9895 -14.4198
L55.3575 -14.7479
L55.7196 -15.0826
L56.0757 -15.4236
L56.4257 -15.7709
L56.7694 -16.1243
L57.1069 -16.4838
L57.4379 -16.8493
L57.7624 -17.2206
L58.0802 -17.5976
L58.3914 -17.9802
z
" id="C0_1_12042a86ae"/>
     <path d="
M59.9876 -51.2052
L59.7015 -51.3667
L59.4153 -51.5241
L59.1292 -51.6776
L58.8431 -51.8272
L58.5571 -51.9729
L58.2711 -52.1148
L57.9853 -52.2529
L57.6997 -52.3874
L57.4142 -52.5183
L57.129 -52.6455
L56.8439 -52.7693
L56.5591 -52.8896
L56.2745 -53.0066
L55.9901 -53.1202
L55.7059 -53.2305
L55.422 -53.3376
L55.1383 -53.4416
L54.8548 -53.5425
L54.5715 -53.6403
L54.2884 -53.7351
L54.0054 -53.827
L53.7227 -53.916
L53.4401 -54.0021
L53.1576 -54.0855
L52.8752 -54.1661
L52.5929 -54.2439
L52.3106 -54.3192
L52.0284 -54.3918
L51.7462 -54.4618
L51.464 -54.5292
L51.1817 -54.5942
L50.8994 -54.6566
L50.6169 -54.7166
L50.3343 -54.7742
L50.0515 -54.8294
L49.7685 -54.8823
L49.4852 -54.9328
L49.2017 -54.9809
L48.9179 -55.0268
L48.6337 -55.0705
L48.3491 -55.1119
L48.064 -55.151
L47.7786 -55.1879
L47.4926 -55.2227
L47.206 -55.2552
L46.9189 -55.2855
L46.6311 -55.3137
L46.3427 -55.3397
L46.0536 -55.3636
L45.7637 -55.3853
L45.4731 -55.4049
L45.1816 -55.4223
L44.8893 -55.4376
L44.596 -55.4508
L44.3019 -55.4618
L44.0067 -55.4706
L43.7105 -55.4773
L43.4132 -55.4819
L43.1149 -55.4842
L42.8154 -55.4844
L42.5147 -55.4825
L42.2128 -55.4783
L41.9096 -55.4719
L41.6052 -55.4634
L41.2995 -55.4526
L40.9923 -55.4395
L40.6838 -55.4242
L40.3739 -55.4067
L40.0625 -55.3868
L39.7497 -55.3647
L39.4353 -55.3402
L39.1194 -55.3134
L38.802 -55.2843
L38.4829 -55.2528
L38.1623 -55.2189
L37.84 -55.1827
L37.5162 -55.144
L37.1906 -55.1029
L36.8635 -55.0593
L36.5346 -55.0133
L36.2041 -54.9649
L35.8719 -54.914
L35.5381 -54.8606
L35.2026 -54.8048
L34.8654 -54.7465
L34.5267 -54.6857
L34.1863 -54.6224
L33.8443 -54.5567
L33.5007 -54.4886
L33.1556 -54.4181
L32.8091 -54.3451
L32.461 -54.2699
L32.1116 -54.1923
L31.7609 -54.1124
L31.4088 -54.0303
L31.0555 -53.9461
L30.7011 -53.8598
L30.3456 -53.7716
L29.9891 -53.6815
L29.6318 -53.5895
L29.2736 -53.496
L28.9148 -53.4009
L28.5554 -53.3044
L28.1955 -53.2068
L27.8353 -53.1081
L27.4749 -53.0087
L27.1144 -52.9086
L26.754 -52.8081
L26.3939 -52.7075
L26.0341 -52.6071
L25.6749 -52.5072
L25.3164 -52.4079
L24.9587 -52.3098
L24.6022 -52.2131
L24.2468 -52.1181
L23.8929 -52.0254
L23.5406 -51.9351
L23.19 -51.8478
L22.8415 -51.7639
L22.495 -51.6837
L22.1509 -51.6077
L21.8093 -51.5363
L21.4705 -51.4699
L21.1344 -51.4089
L20.8015 -51.3536
L20.4717 -51.3045
L20.1454 -51.2619
L19.8226 -51.2261
L19.5034 -51.1973
L19.1882 -51.1758
L18.8769 -51.1619
L18.5697 -51.1556
L18.2668 -51.1571
L17.9683 -51.1665
L17.6743 -51.1839
L17.3849 -51.2091
L17.1001 -51.2422
L16.8202 -51.2831
L16.5451 -51.3316
L16.275 -51.3877
L16.01 -51.451
L15.75 -51.5216
L15.4952 -51.599
L15.2457 -51.6831
L15.0014 -51.7735
L14.7624 -51.8702
L14.5288 -51.9727
L14.3007 -52.0808
L14.0779 -52.1943
L13.8606 -52.3128
L13.6487 -52.4362
L13.4424 -52.564
L13.2416 -52.6962
L13.3149 -52.8324
L13.6194 -53.2521
L13.9308 -53.6454
L14.2489 -54.0333
L14.5736 -54.4157
L14.9048 -54.7925
L15.2425 -55.1636
L15.5865 -55.5289
L15.9367 -55.8882
L16.293 -56.2414
L16.6553 -56.5885
L17.0236 -56.9293
L17.3975 -57.2637
L17.7772 -57.5916
L18.1624 -57.913
L18.5531 -58.2277
L18.949 -58.5356
L19.3502 -58.8367
L19.7564 -59.1308
L20.1676 -59.4178
L20.5836 -59.6978
L21.0042 -59.9705
L21.4295 -60.2359
L21.8592 -60.4939
L22.2932 -60.7445
L22.7314 -60.9875
L23.1736 -61.2229
L23.6197 -61.4506
L24.0696 -61.6706
L24.5232 -61.8827
L24.9802 -62.087
L25.4406 -62.2833
L25.9042 -62.4717
L26.3709 -62.6519
L26.8405 -62.8241
L27.3129 -62.988
L27.7879 -63.1438
L28.2655 -63.2912
L28.7454 -63.4304
L29.2275 -63.5612
L29.7117 -63.6836
L30.1978 -63.7976
L30.6856 -63.9031
L31.1751 -64.0001
L31.666 -64.0886
L32.1583 -64.1685
L32.6518 -64.2399
L33.1462 -64.3026
L33.6415 -64.3568
L34.1376 -64.4022
L34.6342 -64.4391
L35.1312 -64.4673
L35.6285 -64.4868
L36.1259 -64.4976
L36.6233 -64.4997
L37.1205 -64.4932
L37.6173 -64.478
L38.1137 -64.4541
L38.6094 -64.4215
L39.1043 -64.3803
L39.5982 -64.3304
L40.0911 -64.2719
L40.5827 -64.2048
L41.0729 -64.1291
L41.5616 -64.0449
L42.0486 -63.9521
L42.5338 -63.8508
L43.0169 -63.7409
L43.4979 -63.6227
L43.9766 -63.496
L44.4529 -63.361
L44.9267 -63.2176
L45.3977 -63.0659
L45.8658 -62.906
L46.331 -62.7379
L46.793 -62.5617
L47.2517 -62.3773
L47.7069 -62.1849
L48.1586 -61.9846
L48.6066 -61.7763
L49.0508 -61.5602
L49.491 -61.3363
L49.9271 -61.1046
L50.3589 -60.8654
L50.7864 -60.6185
L51.2094 -60.3642
L51.6277 -60.1024
L52.0412 -59.8333
L52.4499 -59.5569
L52.8536 -59.2734
L53.2521 -58.9827
L53.6454 -58.6851
L54.0333 -58.3806
L54.4157 -58.0692
L54.7925 -57.7511
L55.1636 -57.4264
L55.5289 -57.0952
L55.8882 -56.7575
L56.2414 -56.4135
L56.5885 -56.0633
L56.9293 -55.707
L57.2637 -55.3447
L57.5916 -54.9764
L57.913 -54.6025
L58.2277 -54.2228
L58.5356 -53.8376
L58.8367 -53.4469
L59.1308 -53.051
L59.4178 -52.6498
L59.6978 -52.2436
z
" id="C0_2_b9f64536ea"/>
    </defs>
    <g clip-path="url(#p1bffca34e9)">
     <use style="fill:#ff0000;stroke:#000000;stroke-width:2.0;" x="0.0" xlink:href="#C0_0_a811fe30f3" y="72.0"/>
    </g>
    <g clip-path="url(#p1bffca34e9)">
     <use style="fill:#ffffff;stroke:#000000;stroke-width:2.0;" x="0.0" xlink:href="#C0_1_12042a86ae" y="72.0"/>
    </g>
    <g clip-path="url(#p1bffca34e9)">
     <use style="fill:#ffffff;stroke:#000000;stroke-width:2.0;" x="0.0" xlink:href="#C0_2_b9f64536ea" y="72.0"/>
    </g>
   </g>
  </g>
 </g>
 <defs>
  <clipPath id="p1bffca34e9">
   <rect height="72.0" width="72.0" x="0.0" y="0.0"/>
  </clipPath>
 </defs>
</svg>
