<?xml version="1.0" encoding="utf-8" standalone="no"?>
<!DOCTYPE svg PUBLIC "-//W3C//DTD SVG 1.1//EN"
  "http://www.w3.org/Graphics/SVG/1.1/DTD/svg11.dtd">
<!-- Created with matplotlib (http://matplotlib.org/) -->
<svg height="72pt" version="1.1" viewBox="0 0 72 72" width="72pt" xmlns="http://www.w3.org/2000/svg" xmlns:xlink="http://www.w3.org/1999/xlink">
 <defs>
  <style type="text/css">
*{stroke-linecap:butt;stroke-linejoin:round;}
  </style>
 </defs>
 <g id="figure_1">
  <g id="patch_1">
   <path d="
M0 72
L72 72
L72 0
L0 0
z
" style="fill:none;"/>
  </g>
  <g id="axes_1">
   <g id="PatchCollection_1">
    <defs>
     <path d="
M36 -7.5
C43.5583 -7.5 50.808 -10.5029 56.1525 -15.8475
C61.4971 -21.192 64.5 -28.4417 64.5 -36
C64.5 -43.5583 61.4971 -50.808 56.1525 -56.1525
C50.808 -61.4971 43.5583 -64.5 36 -64.5
C28.4417 -64.5 21.192 -61.4971 15.8475 -56.1525
C10.5029 -50.808 7.5 -43.5583 7.5 -36
C7.5 -28.4417 10.5029 -21.192 15.8475 -15.8475
C21.192 -10.5029 28.4417 -7.5 36 -7.5
z
" id="C0_0_a811fe30f3"/>
     <path d="
M46.3265 -62.3061
L46.2391 -62.0402
L46.1518 -61.7749
L46.0647 -61.5103
L45.9777 -61.2464
L45.8908 -60.9835
L45.8042 -60.7214
L45.7177 -60.4604
L45.6315 -60.2005
L45.5455 -59.9418
L45.4597 -59.6842
L45.3741 -59.4278
L45.2888 -59.1728
L45.2038 -58.919
L45.1191 -58.6665
L45.0346 -58.4153
L44.9504 -58.1655
L44.8665 -57.917
L44.7828 -57.6698
L44.6995 -57.424
L44.6164 -57.1795
L44.5337 -56.9363
L44.4512 -56.6943
L44.369 -56.4537
L44.2871 -56.2143
L44.2055 -55.9762
L44.1241 -55.7392
L44.043 -55.5035
L43.9622 -55.2689
L43.8816 -55.0353
L43.8012 -54.8029
L43.7211 -54.5715
L43.6412 -54.3411
L43.5615 -54.1117
L43.482 -53.8832
L43.4027 -53.6555
L43.3235 -53.4287
L43.2446 -53.2027
L43.1657 -52.9775
L43.087 -52.7529
L43.0084 -52.529
L42.93 -52.3057
L42.8516 -52.083
L42.7732 -51.8608
L42.695 -51.6391
L42.6168 -51.4177
L42.5386 -51.1968
L42.4604 -50.9761
L42.3822 -50.7557
L42.304 -50.5355
L42.2258 -50.3155
L42.1475 -50.0956
L42.0691 -49.8757
L41.9906 -49.6558
L41.912 -49.4359
L41.8333 -49.2159
L41.7544 -48.9957
L41.6754 -48.7753
L41.5961 -48.5546
L41.437 -48.3335
L41.3571 -48.1121
L41.2769 -47.8902
L41.1964 -47.6678
L41.1156 -47.4449
L41.0345 -47.2213
L40.953 -46.9971
L40.8712 -46.7721
L40.7889 -46.5463
L40.7062 -46.3196
L40.6231 -46.092
L40.5395 -45.8634
L40.4554 -45.6338
L40.3708 -45.403
L40.2856 -45.1711
L40.1999 -44.9379
L40.1136 -44.7034
L40.0267 -44.4675
L39.9391 -44.2302
L39.8509 -43.9914
L39.7619 -43.7509
L39.6723 -43.5088
L39.5819 -43.265
L39.4907 -43.0194
L39.3987 -42.772
L39.3059 -42.5226
L39.2123 -42.2711
L39.1177 -42.0176
L39.0222 -41.762
L38.9258 -41.5041
L38.8285 -41.2439
L38.7301 -40.9813
L38.6306 -40.7163
L38.5302 -40.4487
L38.4286 -40.1786
L38.3259 -39.9057
L38.2221 -39.6301
L38.1171 -39.3517
L38.0109 -39.0704
L37.9034 -38.7861
L37.7947 -38.4987
L37.6848 -38.2082
L37.5735 -37.9146
L37.4608 -37.6177
L37.3468 -37.3174
L37.2315 -37.0138
L37.1147 -36.7067
L36.9965 -36.3961
L36.8768 -36.082
L36.7557 -35.7642
L36.6331 -35.4428
L36.5091 -35.1177
L36.3835 -34.7888
L36.2565 -34.4562
L36.1279 -34.1197
L35.9979 -33.7794
L35.8664 -33.4353
L35.7334 -33.0874
L35.5989 -32.7355
L35.463 -32.3799
L35.3257 -32.0205
L35.1871 -31.6573
L35.0472 -31.2903
L34.906 -30.9197
L34.7636 -30.5455
L34.6201 -30.1677
L34.4756 -29.7866
L34.3303 -29.4021
L34.1842 -29.0144
L34.0375 -28.6238
L33.8904 -28.2302
L33.7431 -27.834
L33.5958 -27.4353
L33.4489 -27.0343
L33.3027 -26.6314
L33.1577 -26.2268
L33.0143 -25.8209
L32.8732 -25.4139
L32.7352 -25.0064
L32.6012 -24.5987
L32.4724 -24.1915
L32.3506 -23.7853
L32.2376 -23.3809
L32.1363 -22.9792
L32.0501 -22.5812
L31.9837 -22.1885
L31.943 -21.8027
L31.9356 -21.4261
L31.9698 -21.0612
L32.0543 -20.7113
L32.1956 -20.3795
L32.3964 -20.0686
L32.6544 -19.7802
L32.9633 -19.5146
L33.3145 -19.2704
L33.6997 -19.0459
L34.1112 -18.839
L34.543 -18.6478
L34.9902 -18.4709
L35.449 -18.3071
L35.9164 -18.1553
L36.3901 -18.015
L36.8683 -17.8855
L37.3495 -17.7663
L37.8324 -17.6572
L38.3161 -17.5577
L38.7996 -17.4677
L39.2822 -17.3869
L39.7634 -17.3149
L40.2424 -17.2517
L40.7189 -17.1969
L41.1925 -17.1504
L41.6627 -17.1119
L42.1292 -17.0813
L42.5918 -17.0584
L43.0502 -17.0429
L43.5041 -17.0346
L43.9535 -17.0333
L44.398 -17.0388
L44.8377 -17.0509
L45.2723 -17.0695
L45.7018 -17.0943
L46.126 -17.125
L46.5451 -17.1616
L46.9588 -17.2039
L47.3671 -17.2516
L47.7702 -17.3046
L48.1678 -17.3626
L48.5602 -17.4256
L48.9471 -17.4934
L49.3288 -17.5658
L49.7053 -17.6426
L50.0764 -17.7237
L50.4425 -17.8091
L50.8034 -17.8984
L51.1592 -17.9916
L51.51 -18.0887
L51.8559 -18.1894
L52.197 -18.2936
L52.5332 -18.4013
L52.8648 -18.5123
L53.1918 -18.6266
L53.5142 -18.7441
L53.8321 -18.8647
L54.1457 -18.9882
L54.4549 -19.1147
L54.76 -19.2441
L55.0609 -19.3763
L55.3578 -19.5113
L55.6507 -19.6489
L55.9398 -19.7893
L56.2251 -19.9322
L56.5066 -20.0778
L56.7845 -20.2259
L57.0589 -20.3765
L57.3298 -20.5297
L57.5973 -20.6853
L57.8615 -20.8434
L58.1224 -21.004
L58.3801 -21.167
L58.6347 -21.3325
L58.8863 -21.5004
L59.1349 -21.6709
L59.3806 -21.8438
L59.6234 -22.0191
L59.8635 -22.197
L60.1007 -22.3774
L60.3354 -22.5604
L60.5673 -22.7459
L60.7967 -22.934
L61.0236 -23.1248
L61.248 -23.3183
L61.4699 -23.5145
L61.6894 -23.7134
L61.9968 -23.9152
L62.1967 -24.3202
L62.3886 -24.7757
L62.5724 -25.2346
L62.7482 -25.6968
L62.9158 -26.1621
L63.0752 -26.6305
L63.2264 -27.1016
L63.3693 -27.5755
L63.5038 -28.052
L63.63 -28.5308
L63.7478 -29.012
L63.8571 -29.4953
L63.9579 -29.9805
L64.0502 -30.4676
L64.1339 -30.9564
L64.2091 -31.4467
L64.2757 -31.9384
L64.3337 -32.4313
L64.383 -32.9253
L64.4237 -33.4203
L64.4557 -33.916
L64.4791 -34.4124
L64.4938 -34.9093
L64.4998 -35.4065
L64.4972 -35.9039
L64.4858 -36.4013
L64.4658 -36.8985
L64.4371 -37.3956
L64.3998 -37.8921
L64.3538 -38.3881
L64.2991 -38.8834
L64.2359 -39.3778
L64.164 -39.8712
L64.0836 -40.3634
L63.9946 -40.8543
L63.897 -41.3436
L63.791 -41.8314
L63.6765 -42.3174
L63.5536 -42.8014
L63.4223 -43.2834
L63.2826 -43.7632
L63.1347 -44.2406
L62.9784 -44.7155
L62.814 -45.1877
L62.6413 -45.6572
L62.4606 -46.1237
L62.2718 -46.5871
L62.075 -47.0473
L61.8703 -47.5041
L61.6576 -47.9574
L61.4372 -48.4071
L61.209 -48.853
L60.9731 -49.295
L60.7297 -49.7329
L60.4786 -50.1667
L60.2202 -50.5961
L59.9543 -51.0211
L59.6812 -51.4415
L59.4008 -51.8572
L59.1134 -52.2681
L58.8188 -52.674
L58.5174 -53.0748
L58.209 -53.4705
L57.8939 -53.8608
L57.5722 -54.2457
L57.2438 -54.625
L56.909 -54.9987
L56.5679 -55.3665
L56.2204 -55.7285
L55.8668 -56.0844
L55.5072 -56.4343
L55.1416 -56.7779
L54.7701 -57.1152
L54.393 -57.446
L54.0102 -57.7703
L53.622 -58.088
L53.2284 -58.399
L52.8296 -58.7031
L52.4256 -59.0003
L52.0166 -59.2906
L51.6028 -59.5737
L51.1841 -59.8496
L50.7609 -60.1183
L50.3332 -60.3796
L49.9011 -60.6335
L49.4648 -60.8799
L49.0243 -61.1187
L48.5799 -61.3499
L48.1317 -61.5733
L47.6798 -61.789
L47.2243 -61.9968
z
" id="C0_1_853c78613c"/>
     <path d="
M10.0947 -47.8796
L10.0813 -47.5821
L10.0716 -47.2857
L10.0656 -46.9902
L10.0631 -46.6958
L10.0641 -46.4022
L10.0686 -46.1094
L10.0766 -45.8174
L10.088 -45.5261
L10.1029 -45.2353
L10.1211 -44.9452
L10.1427 -44.6555
L10.1676 -44.3662
L10.1959 -44.0773
L10.2275 -43.7887
L10.2625 -43.5002
L10.3008 -43.212
L10.3425 -42.9238
L10.3875 -42.6357
L10.436 -42.3475
L10.4878 -42.0593
L10.543 -41.7709
L10.6017 -41.4823
L10.6639 -41.1934
L10.7295 -40.9043
L10.7988 -40.6147
L10.8716 -40.3247
L10.948 -40.0342
L11.0282 -39.7432
L11.112 -39.4515
L11.1997 -39.1593
L11.2912 -38.8663
L11.3867 -38.5726
L11.4861 -38.2781
L11.5896 -37.9827
L11.6971 -37.6865
L11.809 -37.3894
L11.925 -37.0913
L12.0455 -36.7922
L12.1704 -36.4921
L12.2999 -36.191
L12.4341 -35.8887
L12.5729 -35.5854
L12.7167 -35.2809
L12.8654 -34.9753
L13.0191 -34.6685
L13.1781 -34.3605
L13.3423 -34.0513
L13.5119 -33.741
L13.6871 -33.4295
L13.8679 -33.1168
L14.0544 -32.8029
L14.2469 -32.4879
L14.4454 -32.1718
L14.65 -31.8546
L14.8608 -31.5364
L15.0781 -31.2172
L15.3019 -30.897
L15.5323 -30.5759
L15.7695 -30.2541
L16.0135 -29.9315
L16.2645 -29.6082
L16.5226 -29.2844
L16.7879 -28.9602
L17.0605 -28.6356
L17.3404 -28.3108
L17.6278 -27.986
L17.9226 -27.6612
L18.225 -27.3367
L18.535 -27.0126
L18.8526 -26.689
L19.1778 -26.3662
L19.5105 -26.0444
L19.8507 -25.7236
L20.1984 -25.4043
L20.5534 -25.0865
L20.9156 -24.7704
L21.2847 -24.4564
L21.6605 -24.1446
L22.0428 -23.8352
L22.431 -23.5284
L22.8249 -23.2244
L23.2237 -22.9233
L23.6268 -22.6254
L24.0333 -22.3307
L24.4422 -22.0392
L24.852 -21.7509
L25.261 -21.4656
L25.667 -21.183
L26.0672 -20.9027
L26.4578 -20.6238
L26.8339 -20.3451
L27.1894 -20.065
L27.5165 -19.7815
L27.8065 -19.492
L28.0506 -19.1938
L28.2418 -18.8846
L28.3773 -18.5634
L28.459 -18.2305
L28.4929 -17.8874
L28.4872 -17.5364
L28.4501 -17.18
L28.3886 -16.8204
L28.3087 -16.4595
L28.2149 -16.0986
L28.1107 -15.739
L27.9986 -15.3816
L27.8806 -15.0272
L27.7584 -14.6763
L27.633 -14.3295
L27.5055 -13.987
L27.3766 -13.6493
L27.2467 -13.3166
L27.1165 -12.9892
L26.9864 -12.6671
L26.8565 -12.3505
L26.7273 -12.0396
L26.5988 -11.7344
L26.4713 -11.435
L26.3449 -11.1414
L26.2198 -10.8537
L26.096 -10.5719
L25.9736 -10.2958
L25.8527 -10.0256
L25.7332 -9.76124
L25.1392 -9.50258
L24.681 -9.65058
L24.2262 -9.84414
L23.775 -10.0457
L23.3276 -10.2551
L22.884 -10.4724
L22.4444 -10.6974
L22.0089 -10.9302
L21.5777 -11.1706
L21.1509 -11.4185
L20.7286 -11.674
L20.311 -11.9368
L19.8981 -12.207
L19.4902 -12.4845
L19.0873 -12.7691
L18.6895 -13.0607
L18.297 -13.3594
L17.9099 -13.665
L17.5283 -13.9773
L17.1523 -14.2964
L16.7821 -14.6221
L16.4177 -14.9543
L16.0593 -15.2929
L15.707 -15.6378
L15.3609 -15.9889
L15.021 -16.3461
L14.6875 -16.7093
L14.3605 -17.0784
L14.0401 -17.4532
L13.7264 -17.8337
L13.4195 -18.2197
L13.1195 -18.6111
L12.8264 -19.0079
L12.5404 -19.4098
L12.2615 -19.8167
L11.9899 -20.2286
L11.7256 -20.6453
L11.4687 -21.0667
L11.2192 -21.4926
L10.9773 -21.923
L10.743 -22.3576
L10.5164 -22.7964
L10.2976 -23.2392
L10.0866 -23.6859
L9.88352 -24.1363
L9.68837 -24.5904
L9.50124 -25.0479
L9.32218 -25.5088
L9.15124 -25.9728
L8.98849 -26.44
L8.83396 -26.91
L8.6877 -27.3828
L8.54977 -27.8582
L8.4202 -28.3361
L8.29903 -28.8164
L8.18629 -29.2988
L8.08203 -29.7833
L7.98628 -30.2696
L7.89905 -30.7577
L7.82039 -31.2474
L7.75031 -31.7386
L7.68883 -32.231
L7.63598 -32.7246
L7.59177 -33.2192
L7.55622 -33.7147
L7.52932 -34.2108
L7.5111 -34.7075
L7.50156 -35.2046
L7.5007 -35.7019
L7.50852 -36.1993
L7.52501 -36.6967
L7.55019 -37.1938
L7.58402 -37.6906
L7.62652 -38.1869
L7.67765 -38.6824
L7.73742 -39.1772
L7.80579 -39.671
L7.88275 -40.1637
L7.96828 -40.6551
L8.06234 -41.1451
L8.16492 -41.6336
L8.27597 -42.1203
L8.39547 -42.6052
L8.52338 -43.088
L8.65965 -43.5687
L8.80426 -44.0471
L8.95715 -44.523
L9.11827 -44.9963
L9.28759 -45.4669
L9.46504 -45.9346
L9.65058 -46.3993
L9.84414 -46.8608
z
" id="C0_2_84129d4b99"/>
    </defs>
    <g clip-path="url(#p1bffca34e9)">
     <use style="fill:#ff0000;stroke:#000000;stroke-width:2.0;" x="0.0" xlink:href="#C0_0_a811fe30f3" y="72.0"/>
    </g>
    <g clip-path="url(#p1bffca34e9)">
     <use style="fill:#ffffff;stroke:#000000;stroke-width:2.0;" x="0.0" xlink:href="#C0_1_853c78613c" y="72.0"/>
    </g>
    <g clip-path="url(#p1bffca34e9)">
     <use style="fill:#ffffff;stroke:#000000;stroke-width:2.0;" x="0.0" xlink:href="#C0_2_84129d4b99" y="72.0"/>
    </g>
   </g>
  </g>
 </g>
 <defs>
  <clipPath id="p1bffca34e9">
   <rect height="72.0" width="72.0" x="0.0" y="0.0"/>
  </clipPath>
 </defs>
</svg>
