<?xml version="1.0" encoding="utf-8" standalone="no"?>
<!DOCTYPE svg PUBLIC "-//W3C//DTD SVG 1.1//EN"
  "http://www.w3.org/Graphics/SVG/1.1/DTD/svg11.dtd">
<!-- Created with matplotlib (http://matplotlib.org/) -->
<svg height="72pt" version="1.1" viewBox="0 0 72 72" width="72pt" xmlns="http://www.w3.org/2000/svg" xmlns:xlink="http://www.w3.org/1999/xlink">
 <defs>
  <style type="text/css">
*{stroke-linecap:butt;stroke-linejoin:round;}
  </style>
 </defs>
 <g id="figure_1">
  <g id="patch_1">
   <path d="
M0 72
L72 72
L72 0
L0 0
z
" style="fill:none;"/>
  </g>
  <g id="axes_1">
   <g id="PatchCollection_1">
    <defs>
     <path d="
M36 -7.5
C43.5583 -7.5 50.808 -10.5029 56.1525 -15.8475
C61.4971 -21.192 64.5 -28.4417 64.5 -36
C64.5 -43.5583 61.4971 -50.808 56.1525 -56.1525
C50.808 -61.4971 43.5583 -64.5 36 -64.5
C28.4417 -64.5 21.192 -61.4971 15.8475 -56.1525
C10.5029 -50.808 7.5 -43.5583 7.5 -36
C7.5 -28.4417 10.5029 -21.192 15.8475 -15.8475
C21.192 -10.5029 28.4417 -7.5 36 -7.5
z
" id="C0_0_a811fe30f3"/>
     <path d="
M17.9166 -14.0607
L17.7373 -14.4211
L17.5951 -14.7747
L17.4896 -15.1206
L17.4202 -15.458
L17.3852 -15.7867
L17.3827 -16.1067
L17.4103 -16.4182
L17.4655 -16.7218
L17.5455 -17.0179
L17.6478 -17.3074
L17.7699 -17.5907
L17.9094 -17.8685
L18.0642 -18.1416
L18.2325 -18.4103
L18.4124 -18.6751
L18.6026 -18.9365
L18.8015 -19.1947
L19.0082 -19.4502
L19.2214 -19.703
L19.4403 -19.9534
L19.664 -20.2016
L19.8919 -20.4477
L20.1233 -20.6918
L20.3575 -20.9339
L20.5942 -21.1741
L20.8328 -21.4125
L21.0729 -21.6491
L21.3142 -21.8839
L21.5563 -22.1169
L21.799 -22.3482
L22.042 -22.5777
L22.2851 -22.8055
L22.5281 -23.0315
L22.7707 -23.2557
L23.0128 -23.4783
L23.2543 -23.699
L23.4951 -23.918
L23.7349 -24.1353
L23.9738 -24.3509
L24.2117 -24.5647
L24.4484 -24.7768
L24.6839 -24.9871
L24.9181 -25.1958
L25.151 -25.4028
L25.3826 -25.6081
L25.6129 -25.8118
L25.8417 -26.0138
L26.0692 -26.2142
L26.2952 -26.4131
L26.5197 -26.6103
L26.7429 -26.8061
L26.9646 -27.0003
L27.185 -27.193
L27.4039 -27.3843
L27.6214 -27.5742
L27.8375 -27.7626
L28.0523 -27.9498
L28.2658 -28.1356
L28.4779 -28.3201
L28.6888 -28.5033
L28.8984 -28.6853
L29.1068 -28.8662
L29.3141 -29.0459
L29.5201 -29.2245
L29.7251 -29.402
L29.929 -29.5786
L30.1318 -29.7541
L30.3336 -29.9286
L30.5345 -30.1023
L30.7344 -30.275
L30.9334 -30.447
L31.1316 -30.6181
L31.329 -30.7885
L31.5256 -30.9582
L31.7215 -31.1272
L31.9168 -31.2955
L32.1114 -31.4633
L32.3054 -31.6305
L32.4988 -31.7972
L32.6918 -31.9634
L32.8842 -32.1291
L33.0763 -32.2945
L33.268 -32.4595
L33.4594 -32.6242
L33.6505 -32.7886
L33.8413 -32.9527
L34.032 -33.1167
L34.2225 -33.2805
L34.4129 -33.4441
L34.6032 -33.6077
L34.9839 -33.7713
L35.1743 -33.9348
L35.3649 -34.0984
L35.5556 -34.262
L35.7466 -34.4258
L35.9378 -34.5897
L36.1293 -34.7538
L36.3212 -34.9181
L36.5135 -35.0827
L36.7062 -35.2477
L36.8995 -35.4129
L37.0932 -35.5786
L37.2876 -35.7447
L37.4826 -35.9112
L37.6783 -36.0783
L37.8747 -36.2459
L38.0719 -36.4141
L38.2699 -36.5829
L38.4688 -36.7524
L38.6686 -36.9226
L38.8694 -37.0935
L39.0713 -37.2652
L39.2742 -37.4377
L39.4782 -37.6111
L39.6833 -37.7853
L39.8897 -37.9605
L40.0974 -38.1366
L40.3063 -38.3138
L40.5166 -38.492
L40.7283 -38.6712
L40.9415 -38.8516
L41.1561 -39.0331
L41.3723 -39.2157
L41.5901 -39.3996
L41.8095 -39.5847
L42.0306 -39.771
L42.2534 -39.9587
L42.478 -40.1476
L42.7043 -40.3379
L42.9325 -40.5295
L43.1626 -40.7225
L43.3946 -40.9169
L43.6285 -41.1127
L43.8645 -41.3099
L44.1024 -41.5086
L44.3424 -41.7086
L44.5844 -41.9101
L44.8286 -42.1129
L45.0749 -42.3172
L45.3232 -42.5228
L45.5738 -42.7298
L45.8265 -42.9381
L46.0813 -43.1477
L46.3384 -43.3586
L46.5976 -43.5706
L46.859 -43.7837
L47.1225 -43.9979
L47.3882 -44.213
L47.656 -44.429
L47.9259 -44.6457
L48.1979 -44.863
L48.472 -45.0808
L48.7481 -45.2988
L49.0262 -45.5169
L49.3062 -45.7349
L49.5881 -45.9525
L49.8718 -46.1694
L50.1573 -46.3854
L50.4446 -46.6001
L50.7336 -46.8132
L51.0242 -47.024
L51.3165 -47.2323
L51.6103 -47.4374
L51.9056 -47.6387
L52.2023 -47.8356
L52.5006 -48.0271
L52.8004 -48.2124
L53.1016 -48.3905
L53.4043 -48.5602
L53.7087 -48.7202
L54.0146 -48.8689
L54.3223 -49.0048
L54.6319 -49.126
L54.9434 -49.2303
L55.257 -49.3155
L55.5728 -49.3792
L55.8908 -49.4188
L56.2109 -49.4319
L56.533 -49.4159
L56.8567 -49.3686
L57.1817 -49.2882
L57.5072 -49.1734
L57.8324 -49.0236
L58.1564 -48.8386
L58.478 -48.6192
L58.7962 -48.3667
L59.1098 -48.0829
L59.4178 -47.7698
L59.7191 -47.4297
L60.0127 -47.065
L60.2978 -46.6782
L60.5737 -46.2714
L60.8398 -45.8469
L61.0954 -45.4068
L61.3401 -44.9528
L61.5736 -44.4869
L61.7956 -44.0104
L62.0058 -43.525
L62.2041 -43.032
L62.3904 -42.5325
L62.5646 -42.0276
L62.7268 -41.5185
L62.877 -41.0061
L63.0152 -40.4911
L63.1417 -39.9745
L63.2564 -39.4568
L63.3597 -38.9388
L63.4515 -38.4211
L63.5323 -37.9043
L63.6021 -37.3888
L63.6611 -36.875
L63.7098 -36.3636
L63.7482 -35.8547
L63.7766 -35.3488
L63.7953 -34.8461
L63.8045 -34.3471
L63.8046 -33.8518
L63.7957 -33.3605
L63.7781 -32.8735
L63.7521 -32.3909
L63.7179 -31.9129
L63.6758 -31.4395
L63.626 -30.971
L63.5687 -30.5073
L63.5043 -30.0487
L63.4328 -29.5951
L63.3546 -29.1466
L63.2698 -28.7032
L63.1787 -28.265
L63.0815 -27.8319
L62.9782 -27.4041
L62.8692 -26.9814
L62.7211 -26.5639
L62.544 -26.0887
L62.3589 -25.6239
L62.1658 -25.1622
L61.9646 -24.7038
L61.7556 -24.2489
L61.5387 -23.7976
L61.314 -23.3499
L61.0817 -22.9061
L60.8416 -22.4663
L60.5941 -22.0307
L60.339 -21.5992
L60.0765 -21.1722
L59.8067 -20.7497
L59.5296 -20.3318
L59.2454 -19.9187
L58.954 -19.5105
L58.6557 -19.1073
L58.3505 -18.7093
L58.0385 -18.3166
L57.7198 -17.9292
L57.3944 -17.5473
L57.0625 -17.1711
L56.7243 -16.8005
L56.3797 -16.4359
L56.0289 -16.0772
L55.6719 -15.7245
L55.309 -15.3781
L54.9403 -15.0379
L54.5657 -14.7041
L54.1855 -14.3768
L53.7998 -14.056
L53.4086 -13.742
L53.0121 -13.4347
L52.6105 -13.1344
L52.2038 -12.8409
L51.7921 -12.5546
L51.3757 -12.2754
L50.9545 -12.0034
L50.5288 -11.7387
L50.0987 -11.4814
L49.6643 -11.2315
L49.2257 -10.9893
L48.7831 -10.7546
L48.3366 -10.5276
L47.8863 -10.3084
L47.4325 -10.097
L46.9751 -9.89351
L46.5144 -9.69796
L46.0505 -9.51043
L45.5835 -9.33096
L45.1136 -9.15962
L44.641 -8.99645
L44.1657 -8.84151
L43.6879 -8.69484
L43.2078 -8.55649
L42.7254 -8.42649
L42.2411 -8.3049
L41.7548 -8.19174
L41.2668 -8.08706
L40.7771 -7.99087
L40.2861 -7.90322
L39.7937 -7.82413
L39.3001 -7.75362
L38.8056 -7.69171
L38.3102 -7.63843
L37.8141 -7.59378
L37.3174 -7.55779
L36.8203 -7.53046
L36.323 -7.51181
L35.8256 -7.50183
L35.3282 -7.50053
L34.8311 -7.50792
L34.3343 -7.52398
L33.838 -7.54872
L33.3424 -7.58212
L32.8476 -7.62418
L32.3537 -7.67489
L31.8609 -7.73422
L31.3695 -7.80216
L30.8794 -7.87869
L30.3909 -7.96379
L29.904 -8.05742
L29.4191 -8.15957
L28.9361 -8.2702
L28.4553 -8.38928
L27.9768 -8.51677
L27.5008 -8.65262
L27.0273 -8.79681
L26.5566 -8.94929
L26.0887 -9.11
L25.6239 -9.27891
L25.1622 -9.45595
L24.7038 -9.64108
L24.2489 -9.83424
L23.7976 -10.0354
L23.3499 -10.2444
L22.9061 -10.4613
L22.4663 -10.686
L22.0307 -10.9183
L21.5992 -11.1584
L21.1722 -11.4059
L20.7497 -11.661
L20.3318 -11.9235
L19.9187 -12.1933
L19.5105 -12.4704
L19.1073 -12.7546
L18.7093 -13.046
L18.3166 -13.3443
z
" id="C0_1_975329ab7e"/>
     <path d="
M9.26358 -45.8418
L9.44176 -46.2263
L9.62365 -46.6044
L9.80909 -46.9762
L9.99795 -47.3418
L10.1901 -47.7013
L10.3854 -48.0547
L10.5838 -48.4023
L10.7851 -48.744
L10.9893 -49.0801
L11.1963 -49.4107
L11.4059 -49.7358
L11.6181 -50.0555
L11.8329 -50.37
L12.0501 -50.6794
L12.2698 -50.9837
L12.4918 -51.2831
L12.7161 -51.5777
L12.9427 -51.8675
L13.1715 -52.1527
L13.4025 -52.4333
L13.6357 -52.7095
L13.8711 -52.9814
L14.1086 -53.2489
L14.3482 -53.5123
L14.5899 -53.7715
L14.8337 -54.0267
L15.0796 -54.2779
L15.3277 -54.5253
L15.5778 -54.7688
L15.8301 -55.0085
L16.0845 -55.2446
L16.341 -55.477
L16.5997 -55.7058
L16.8606 -55.9311
L17.1238 -56.1529
L17.3891 -56.3714
L17.6567 -56.5864
L17.9267 -56.7981
L18.1989 -57.0065
L18.4736 -57.2116
L18.7506 -57.4135
L19.0301 -57.6122
L19.3121 -57.8077
L19.5967 -58
L19.8838 -58.1892
L20.1736 -58.3753
L20.4661 -58.5583
L20.7614 -58.7381
L21.0594 -58.9149
L21.3603 -59.0886
L21.6642 -59.2591
L21.971 -59.4266
L22.2809 -59.5909
L22.594 -59.7521
L22.9102 -59.9101
L23.2296 -60.065
L23.5524 -60.2166
L23.8786 -60.365
L24.2082 -60.5102
L24.5413 -60.652
L24.8781 -60.7905
L25.2186 -60.9255
L25.5627 -61.0571
L25.9108 -61.1851
L26.2627 -61.3095
L26.6186 -61.4303
L26.9785 -61.5473
L27.3426 -61.6605
L27.7108 -61.7697
L28.0833 -61.8749
L28.4601 -61.9761
L28.8413 -62.073
L29.227 -62.1655
L29.6172 -62.2536
L30.012 -62.3372
L30.4114 -62.416
L30.8155 -62.49
L31.2243 -62.559
L31.6379 -62.6228
L32.0564 -62.6814
L32.4796 -62.7345
L32.9078 -62.782
L33.3408 -62.8237
L33.7787 -62.8594
L34.2216 -62.8889
L34.6693 -62.9122
L35.1218 -62.9289
L35.5792 -62.9388
L36.0414 -62.9419
L36.5083 -62.9378
L36.9798 -62.9264
L37.4559 -62.9075
L37.9365 -62.8808
L38.4214 -62.8463
L38.9105 -62.8037
L39.4036 -62.7528
L39.9006 -62.6934
L40.4012 -62.6255
L40.9052 -62.5487
L41.4124 -62.4631
L41.9225 -62.3686
L42.4352 -62.2649
L42.9501 -62.1521
L43.4669 -62.0302
L43.9852 -61.8991
L44.5045 -61.759
L45.0245 -61.61
L45.5446 -61.4522
L46.0644 -61.286
L46.5832 -61.1116
L47.1005 -60.9296
L47.6157 -60.7404
L48.128 -60.5447
L48.6368 -60.3435
L49.1414 -60.1375
L49.6409 -59.9281
L50.1346 -59.7165
L50.6216 -59.5044
L51.101 -59.2935
L51.5719 -59.0859
L52.0335 -58.8838
L52.4848 -58.6897
L52.9249 -58.5061
L53.353 -58.3358
L53.4272 -58.1814
L53.0309 -58.5509
L52.6295 -58.8516
L52.2231 -59.1454
L51.8116 -59.4321
L51.3954 -59.7116
L50.9745 -59.984
L50.549 -60.249
L50.1191 -60.5067
L49.6849 -60.7568
L49.2465 -60.9995
L48.8041 -61.2345
L48.3577 -61.4619
L47.9077 -61.6814
L47.4539 -61.8932
L46.9967 -62.0971
L46.5362 -62.293
L46.0724 -62.4809
L45.6056 -62.6608
L45.1359 -62.8325
L44.6633 -62.996
L44.1881 -63.1514
L43.7105 -63.2984
L43.2304 -63.4372
L42.7482 -63.5676
L42.2639 -63.6896
L41.7778 -63.8031
L41.2898 -63.9082
L40.8003 -64.0048
L40.3092 -64.0928
L39.8169 -64.1723
L39.3234 -64.2433
L38.8289 -64.3056
L38.3335 -64.3593
L37.8375 -64.4043
L37.3408 -64.4407
L36.8438 -64.4684
L36.3465 -64.4875
L35.8491 -64.4979
L35.3517 -64.4996
L34.8545 -64.4926
L34.3577 -64.477
L33.8614 -64.4526
L33.3657 -64.4196
L32.8709 -64.378
L32.377 -64.3277
L31.8842 -64.2688
L31.3926 -64.2012
L30.9025 -64.1251
L30.4139 -64.0404
L29.927 -63.9472
L29.4419 -63.8454
L28.9589 -63.7352
L28.478 -63.6165
L27.9994 -63.4894
L27.5232 -63.354
L27.0496 -63.2102
L26.5787 -63.0581
L26.1107 -62.8978
L25.6457 -62.7292
L25.1839 -62.5526
L24.7254 -62.3678
L24.2703 -62.175
L23.8188 -61.9743
L23.3709 -61.7656
L22.927 -61.5491
L22.487 -61.3248
L22.0511 -61.0928
L21.6195 -60.8531
L21.1922 -60.6059
L20.7695 -60.3512
L20.3514 -60.089
L19.9381 -59.8196
L19.5297 -59.5428
L19.1262 -59.2589
L18.728 -58.9679
L18.335 -58.67
L17.9473 -58.3651
L17.5652 -58.0534
L17.1887 -57.7349
L16.8179 -57.4099
L16.4529 -57.0783
L16.0939 -56.7404
L15.741 -56.396
L15.3943 -56.0455
L15.0538 -55.6889
L14.7197 -55.3263
L14.3921 -54.9578
L14.071 -54.5835
L13.7567 -54.2036
L13.4491 -53.8181
L13.1484 -53.4272
L12.8546 -53.0309
L12.5679 -52.6295
L12.2884 -52.2231
L12.016 -51.8116
L11.751 -51.3954
L11.4933 -50.9745
L11.2432 -50.549
L11.0005 -50.1191
L10.7655 -49.6849
L10.5381 -49.2465
L10.3186 -48.8041
L10.1068 -48.3577
L9.90293 -47.9077
L9.707 -47.4539
L9.51909 -46.9967
z
" id="C0_2_91c5a888c0"/>
    </defs>
    <g clip-path="url(#p1bffca34e9)">
     <use style="fill:#ff0000;stroke:#000000;stroke-width:2.0;" x="0.0" xlink:href="#C0_0_a811fe30f3" y="72.0"/>
    </g>
    <g clip-path="url(#p1bffca34e9)">
     <use style="fill:#ffffff;stroke:#000000;stroke-width:2.0;" x="0.0" xlink:href="#C0_1_975329ab7e" y="72.0"/>
    </g>
    <g clip-path="url(#p1bffca34e9)">
     <use style="fill:#ffffff;stroke:#000000;stroke-width:2.0;" x="0.0" xlink:href="#C0_2_91c5a888c0" y="72.0"/>
    </g>
   </g>
  </g>
 </g>
 <defs>
  <clipPath id="p1bffca34e9">
   <rect height="72.0" width="72.0" x="0.0" y="0.0"/>
  </clipPath>
 </defs>
</svg>
