<?xml version="1.0" encoding="utf-8" standalone="no"?>
<!DOCTYPE svg PUBLIC "-//W3C//DTD SVG 1.1//EN"
  "http://www.w3.org/Graphics/SVG/1.1/DTD/svg11.dtd">
<!-- Created with matplotlib (http://matplotlib.org/) -->
<svg height="72pt" version="1.1" viewBox="0 0 72 72" width="72pt" xmlns="http://www.w3.org/2000/svg" xmlns:xlink="http://www.w3.org/1999/xlink">
 <defs>
  <style type="text/css">
*{stroke-linecap:butt;stroke-linejoin:round;}
  </style>
 </defs>
 <g id="figure_1">
  <g id="patch_1">
   <path d="
M0 72
L72 72
L72 0
L0 0
z
" style="fill:none;"/>
  </g>
  <g id="axes_1">
   <g id="PatchCollection_1">
    <defs>
     <path d="
M36 -7.5
C43.5583 -7.5 50.808 -10.5029 56.1525 -15.8475
C61.4971 -21.192 64.5 -28.4417 64.5 -36
C64.5 -43.5583 61.4971 -50.808 56.1525 -56.1525
C50.808 -61.4971 43.5583 -64.5 36 -64.5
C28.4417 -64.5 21.192 -61.4971 15.8475 -56.1525
C10.5029 -50.808 7.5 -43.5583 7.5 -36
C7.5 -28.4417 10.5029 -21.192 15.8475 -15.8475
C21.192 -10.5029 28.4417 -7.5 36 -7.5
z
" id="C0_0_a811fe30f3"/>
     <path d="
M57.7451 -54.3378
L57.4257 -54.3992
L57.1149 -54.4381
L56.8131 -54.4547
L56.5207 -54.4492
L56.2379 -54.4221
L55.9649 -54.374
L55.7017 -54.3056
L55.4481 -54.2177
L55.2038 -54.1112
L54.9686 -53.9871
L54.742 -53.8464
L54.5236 -53.6901
L54.3128 -53.5194
L54.1092 -53.3353
L53.9121 -53.1389
L53.7211 -52.9311
L53.5356 -52.7131
L53.3551 -52.4857
L53.1791 -52.2499
L53.0072 -52.0066
L52.8389 -51.7564
L52.6739 -51.5003
L52.5118 -51.2388
L52.3523 -50.9728
L52.1951 -50.7026
L52.0399 -50.4291
L51.8865 -50.1525
L51.7348 -49.8735
L51.5845 -49.5924
L51.4354 -49.3097
L51.2875 -49.0257
L51.1406 -48.7407
L50.9946 -48.4552
L50.8494 -48.1692
L50.7049 -47.8832
L50.5611 -47.5972
L50.418 -47.3116
L50.2753 -47.0266
L50.1333 -46.7421
L49.9916 -46.4586
L49.8505 -46.1759
L49.7098 -45.8944
L49.5694 -45.6141
L49.4295 -45.335
L49.2899 -45.0573
L49.1507 -44.781
L49.0118 -44.5062
L48.8733 -44.2329
L48.7351 -43.9612
L48.5972 -43.6911
L48.4596 -43.4227
L48.3223 -43.1559
L48.1853 -42.8908
L48.0485 -42.6273
L47.9121 -42.3656
L47.7759 -42.1055
L47.6399 -41.8471
L47.5042 -41.5903
L47.3687 -41.3352
L47.2335 -41.0817
L47.0985 -40.8298
L46.9636 -40.5795
L46.829 -40.3308
L46.6946 -40.0836
L46.5603 -39.8379
L46.4261 -39.5937
L46.2921 -39.3509
L46.1582 -39.1095
L46.0244 -38.8695
L45.8908 -38.6308
L45.7571 -38.3934
L45.6236 -38.1573
L45.4901 -37.9223
L45.3566 -37.6885
L45.2231 -37.4559
L45.0896 -37.2243
L44.956 -36.9938
L44.8224 -36.7643
L44.6887 -36.5357
L44.5549 -36.308
L44.421 -36.0812
L44.2869 -35.8553
L44.1527 -35.6301
L44.0183 -35.4056
L43.8837 -35.1818
L43.7488 -34.9587
L43.6137 -34.7362
L43.4782 -34.5142
L43.3425 -34.2927
L43.2064 -34.0717
L43.07 -33.8511
L42.9332 -33.6309
L42.6582 -33.411
L42.5201 -33.1914
L42.3814 -32.9721
L42.2422 -32.7529
L42.1025 -32.534
L41.9621 -32.3151
L41.8212 -32.0963
L41.6796 -31.8775
L41.5374 -31.6586
L41.3944 -31.4398
L41.2507 -31.2208
L41.1062 -31.0017
L40.961 -30.7824
L40.8149 -30.5628
L40.668 -30.343
L40.5202 -30.1229
L40.3715 -29.9024
L40.2218 -29.6816
L40.0712 -29.4603
L39.9195 -29.2385
L39.7668 -29.0162
L39.6131 -28.7934
L39.4582 -28.57
L39.3023 -28.3459
L39.1451 -28.1212
L38.9868 -27.8958
L38.8273 -27.6697
L38.6665 -27.4428
L38.5044 -27.2152
L38.3411 -26.9866
L38.1764 -26.7573
L38.0104 -26.527
L37.8431 -26.2959
L37.6743 -26.0637
L37.5041 -25.8306
L37.3326 -25.5966
L37.1595 -25.3614
L36.985 -25.1253
L36.8091 -24.8881
L36.6317 -24.6498
L36.4528 -24.4104
L36.2724 -24.1699
L36.0906 -23.9283
L35.9073 -23.6856
L35.7226 -23.4417
L35.5364 -23.1967
L35.3489 -22.9505
L35.1599 -22.7032
L34.9696 -22.4547
L34.7781 -22.2052
L34.5853 -21.9544
L34.3913 -21.7026
L34.1963 -21.4497
L34.0002 -21.1957
L33.8033 -20.9406
L33.6055 -20.6844
L33.4071 -20.4273
L33.2082 -20.1692
L33.0089 -19.9101
L32.8095 -19.6501
L32.6101 -19.3893
L32.4109 -19.1276
L32.2123 -18.865
L32.0145 -18.6018
L31.8177 -18.3378
L31.6224 -18.0731
L31.429 -17.8078
L31.2378 -17.5419
L31.0493 -17.2754
L30.8639 -17.0085
L30.6824 -16.741
L30.5051 -16.4731
L30.3329 -16.2048
L30.1663 -15.936
L30.0062 -15.6669
L29.8533 -15.3974
L29.7086 -15.1275
L29.5729 -14.8572
L29.4473 -14.5865
L29.3328 -14.3155
L29.2304 -14.044
L29.1413 -13.7721
L29.0665 -13.4998
L29.0073 -13.227
L28.9647 -12.9538
L28.9399 -12.6803
L28.9339 -12.4064
L28.9475 -12.1322
L28.9817 -11.858
L29.0372 -11.5838
L29.1146 -11.3099
L29.2143 -11.0366
L29.3365 -10.7642
L29.4814 -10.493
L29.6488 -10.2236
L29.8385 -9.95632
L30.0502 -9.69173
L30.2833 -9.43036
L30.5371 -9.17279
L30.8109 -8.91958
L31.1039 -8.67132
L31.4152 -8.42857
L31.7439 -8.19191
L32.2152 -7.96186
L32.7087 -7.75243
L33.2033 -7.69068
L33.6987 -7.63755
L34.1948 -7.59306
L34.6915 -7.55723
L35.1886 -7.53005
L35.6859 -7.51155
L36.1833 -7.50173
L36.6807 -7.50059
L37.1778 -7.50813
L37.6746 -7.52435
L38.1709 -7.54924
L38.6665 -7.5828
L39.1613 -7.62501
L39.6551 -7.67587
L40.1479 -7.73536
L40.6393 -7.80345
L41.1294 -7.88014
L41.6179 -7.96539
L42.1047 -8.05918
L42.5896 -8.16148
L43.0725 -8.27226
L43.5532 -8.39149
L44.0317 -8.51912
L44.5077 -8.65513
L44.9811 -8.79947
L45.4518 -8.95209
L45.9196 -9.11295
L46.3844 -9.282
L46.846 -9.4592
L47.3043 -9.64447
L47.7592 -9.83777
L48.2105 -10.039
L48.6581 -10.2482
L49.1018 -10.4653
L49.5415 -10.6901
L49.9771 -10.9226
L50.4084 -11.1627
L50.8354 -11.4104
L51.2578 -11.6656
L51.6756 -11.9283
L52.0886 -12.1982
L52.4967 -12.4754
L52.8998 -12.7598
L53.2978 -13.0512
L53.6904 -13.3497
L54.0777 -13.655
L54.4595 -13.9671
L54.8356 -14.286
L55.206 -14.6115
L55.5706 -14.9435
L55.9292 -15.2819
L56.2817 -15.6266
L56.6281 -15.9775
L56.9682 -16.3345
L57.3018 -16.6975
L57.629 -17.0664
L57.9496 -17.441
L58.2636 -17.8213
L58.5707 -18.2072
L58.871 -18.5984
L59.1642 -18.995
L59.4505 -19.3968
L59.7296 -19.8036
L60.0014 -20.2153
L60.266 -20.6318
L60.5232 -21.0531
L60.7729 -21.4788
L61.015 -21.909
L61.2495 -22.3435
L61.4764 -22.7822
L61.6955 -23.2249
L61.9067 -23.6714
L62.1101 -24.1218
L62.3055 -24.5757
L62.4929 -25.0331
L62.6722 -25.4939
L62.8434 -25.9578
L63.0064 -26.4249
L63.1612 -26.8948
L63.3077 -27.3675
L63.4459 -27.8429
L63.5758 -28.3207
L63.6972 -28.8009
L63.8102 -29.2832
L63.9147 -29.7676
L64.0108 -30.2539
L64.0983 -30.742
L64.1772 -31.2316
L64.2476 -31.7227
L64.3093 -32.2152
L64.3624 -32.7087
L64.4069 -33.2033
L64.4428 -33.6987
L64.4699 -34.1948
L64.4884 -34.6915
L64.4983 -35.1886
L64.4994 -35.6859
L64.4919 -36.1833
L64.4757 -36.6807
L64.4508 -37.1778
L64.4172 -37.6746
L64.375 -38.1709
L64.3241 -38.6665
L64.2646 -39.1613
L64.1965 -39.6551
L64.1199 -40.1479
L64.0346 -40.6393
L63.9408 -41.1294
L63.8385 -41.6179
L63.7277 -42.1047
L63.6085 -42.5896
L63.4809 -43.0725
L63.3449 -43.5532
L63.2005 -44.0317
L63.0479 -44.5077
L62.887 -44.9811
L62.718 -45.4518
L62.5408 -45.9196
L62.3555 -46.3844
L62.1622 -46.846
L61.961 -47.3043
L61.7518 -47.7592
L61.5347 -48.2105
L61.3099 -48.6581
L61.0774 -49.1018
L60.8373 -49.5415
L60.5896 -49.9771
L60.3344 -50.4084
L60.0717 -50.8354
L59.8018 -51.2578
L59.5246 -51.6756
L59.2402 -52.0886
L58.9488 -52.4967
L58.6503 -52.8998
L58.345 -53.2978
z
" id="C0_1_8c48e27a80"/>
     <path d="
M39.9027 -64.2008
L39.5015 -64.0844
L39.0958 -63.9659
L38.6865 -63.8449
L38.2744 -63.7211
L37.8604 -63.5943
L37.4453 -63.4641
L37.0298 -63.3305
L36.6145 -63.1932
L36.2 -63.0523
L35.7869 -62.9075
L35.3757 -62.7589
L34.9668 -62.6065
L34.5607 -62.4503
L34.1576 -62.2903
L33.758 -62.1266
L33.362 -61.9593
L32.97 -61.7884
L32.5822 -61.614
L32.1988 -61.4363
L31.8198 -61.2552
L31.4456 -61.0711
L31.0761 -60.8839
L30.7115 -60.6938
L30.3518 -60.5009
L29.9972 -60.3053
L29.6476 -60.1072
L29.303 -59.9066
L28.9636 -59.7037
L28.6293 -59.4986
L28.3 -59.2913
L27.9758 -59.082
L27.6567 -58.8708
L27.3426 -58.6578
L27.0334 -58.443
L26.7291 -58.2266
L26.4298 -58.0086
L26.1352 -57.7892
L25.8454 -57.5683
L25.5602 -57.346
L25.2797 -57.1224
L25.0037 -56.8976
L24.7322 -56.6717
L24.4652 -56.4445
L24.2024 -56.2163
L23.9439 -55.987
L23.6896 -55.7567
L23.4394 -55.5254
L23.1932 -55.2931
L22.951 -55.0599
L22.7126 -54.8258
L22.4781 -54.5908
L22.2473 -54.3549
L22.0201 -54.1181
L21.7966 -53.8804
L21.5765 -53.6418
L21.3599 -53.4024
L21.1467 -53.1622
L20.9369 -52.921
L20.7302 -52.679
L20.5268 -52.4361
L20.3265 -52.1922
L20.1292 -51.9475
L19.935 -51.7018
L19.7437 -51.4552
L19.5553 -51.2076
L19.3698 -50.959
L19.187 -50.7094
L19.007 -50.4588
L18.8297 -50.207
L18.6551 -49.9542
L18.4831 -49.7003
L18.3137 -49.4451
L18.1467 -49.1888
L17.9823 -48.9312
L17.8204 -48.6724
L17.6609 -48.4123
L17.5038 -48.1507
L17.349 -47.8878
L17.1966 -47.6235
L17.0466 -47.3577
L16.8988 -47.0903
L16.7533 -46.8214
L16.6101 -46.5508
L16.4691 -46.2786
L16.3304 -46.0047
L16.1939 -45.7289
L16.0596 -45.4514
L15.9275 -45.172
L15.7976 -44.8906
L15.6699 -44.6073
L15.5445 -44.3219
L15.4212 -44.0344
L15.3002 -43.7448
L15.1814 -43.4529
L15.0649 -43.1588
L14.9506 -42.8624
L14.8386 -42.5636
L14.7288 -42.2623
L14.6214 -41.9585
L14.5163 -41.6522
L14.4136 -41.3433
L14.3133 -41.0317
L14.2155 -40.7173
L14.1201 -40.4002
L14.0272 -40.0802
L13.9369 -39.7573
L13.8491 -39.4315
L13.7641 -39.1027
L13.6817 -38.7707
L13.6021 -38.4357
L13.5253 -38.0976
L13.4514 -37.7562
L13.3805 -37.4116
L13.3126 -37.0636
L13.2477 -36.7124
L13.186 -36.3578
L13.1275 -35.9998
L13.0724 -35.6385
L13.0206 -35.2737
L12.9723 -34.9054
L12.9276 -34.5337
L12.8865 -34.1586
L12.8491 -33.78
L12.8155 -33.3979
L12.7858 -33.0125
L12.7601 -32.6237
L12.7385 -32.2316
L12.721 -31.8361
L12.7077 -31.4375
L12.6987 -31.0357
L12.694 -30.6308
L12.6938 -30.223
L12.698 -29.8123
L12.7068 -29.3989
L12.7201 -28.9829
L12.7379 -28.5646
L12.7603 -28.144
L12.7873 -27.7215
L12.8188 -27.2971
L12.8547 -26.8712
L12.895 -26.444
L12.9396 -26.0159
L12.9882 -25.5871
L13.0408 -25.158
L13.0971 -24.7289
L13.1569 -24.3003
L13.2198 -23.8725
L13.2855 -23.4461
L13.3535 -23.0215
L13.4233 -22.5992
L13.4945 -22.1797
L13.5665 -21.7637
L13.6384 -21.3516
L13.7097 -20.9441
L13.7795 -20.5419
L13.8469 -20.1455
L13.9111 -19.7557
L13.971 -19.3732
L14.0256 -18.9985
L14.074 -18.6323
L14.115 -18.2753
L13.7238 -17.9282
L13.4169 -18.2231
L13.1169 -18.6145
L12.8239 -19.0113
L12.538 -19.4133
L12.2592 -19.8203
L11.9876 -20.2322
L11.7234 -20.6489
L11.4665 -21.0704
L11.2171 -21.4963
L10.9753 -21.9267
L10.741 -22.3614
L10.5145 -22.8002
L10.2958 -23.243
L10.0848 -23.6897
L9.88181 -24.1402
L9.68673 -24.5943
L9.49966 -25.0519
L9.32067 -25.5128
L9.14981 -25.9769
L8.98712 -26.444
L8.83266 -26.9141
L8.68648 -27.3869
L8.54862 -27.8623
L8.41912 -28.3403
L8.29802 -28.8205
L8.18536 -29.303
L8.08117 -29.7874
L7.98549 -30.2738
L7.89834 -30.7619
L7.81975 -31.2517
L7.74974 -31.7428
L7.68834 -32.2353
L7.63557 -32.7289
L7.59143 -33.2235
L7.55595 -33.719
L7.52913 -34.2151
L7.51098 -34.7118
L7.50151 -35.2089
L7.50073 -35.7062
L7.50862 -36.2036
L7.52519 -36.701
L7.55044 -37.1981
L7.58435 -37.6949
L7.62692 -38.1911
L7.67813 -38.6867
L7.73797 -39.1815
L7.80642 -39.6753
L7.88345 -40.168
L7.96905 -40.6594
L8.06319 -41.1494
L8.16584 -41.6378
L8.27696 -42.1245
L8.39653 -42.6093
L8.52451 -43.0922
L8.66086 -43.5728
L8.80554 -44.0512
L8.9585 -44.5271
L9.11969 -45.0004
L9.28908 -45.471
L9.4666 -45.9386
L9.65221 -46.4033
L9.84584 -46.8648
L10.0474 -47.323
L10.2569 -47.7777
L10.4743 -48.2288
L10.6994 -48.6763
L10.9322 -49.1198
L11.1727 -49.5594
L11.4207 -49.9948
L11.6762 -50.426
L11.9391 -50.8527
L12.2094 -51.275
L12.4869 -51.6926
L12.7715 -52.1054
L13.0633 -52.5133
L13.362 -52.9162
L13.6676 -53.3139
L13.98 -53.7063
L14.2992 -54.0934
L14.6249 -54.4749
L14.9571 -54.8509
L15.2958 -55.221
L15.6408 -55.5854
L15.9919 -55.9437
L16.3492 -56.296
L16.7124 -56.6421
L17.0816 -56.9819
L17.4565 -57.3153
L17.837 -57.6422
L18.2231 -57.9626
L18.6145 -58.2762
L19.0113 -58.5831
L19.4133 -58.8831
L19.8203 -59.1761
L20.2322 -59.462
L20.6489 -59.7408
L21.0704 -60.0124
L21.4963 -60.2766
L21.9267 -60.5335
L22.3614 -60.7829
L22.8002 -61.0247
L23.243 -61.259
L23.6897 -61.4855
L24.1402 -61.7042
L24.5943 -61.9152
L25.0519 -62.1182
L25.5128 -62.3133
L25.9769 -62.5003
L26.444 -62.6793
L26.9141 -62.8502
L27.3869 -63.0129
L27.8623 -63.1673
L28.3403 -63.3135
L28.8205 -63.4514
L29.303 -63.5809
L29.7874 -63.702
L30.2738 -63.8146
L30.7619 -63.9188
L31.2517 -64.0145
L31.7428 -64.1017
L32.2353 -64.1802
L32.7289 -64.2503
L33.2235 -64.3117
L33.719 -64.3644
L34.2151 -64.4086
L34.7118 -64.4441
L35.2089 -64.4709
L35.7062 -64.489
L36.2036 -64.4985
L36.701 -64.4993
L37.1981 -64.4914
L37.6949 -64.4748
L38.1911 -64.4496
L38.6867 -64.4156
L39.1815 -64.3731
z
" id="C0_2_77e77df16d"/>
    </defs>
    <g clip-path="url(#p1bffca34e9)">
     <use style="fill:#ff0000;stroke:#000000;stroke-width:2.0;" x="0.0" xlink:href="#C0_0_a811fe30f3" y="72.0"/>
    </g>
    <g clip-path="url(#p1bffca34e9)">
     <use style="fill:#ffffff;stroke:#000000;stroke-width:2.0;" x="0.0" xlink:href="#C0_1_8c48e27a80" y="72.0"/>
    </g>
    <g clip-path="url(#p1bffca34e9)">
     <use style="fill:#ffffff;stroke:#000000;stroke-width:2.0;" x="0.0" xlink:href="#C0_2_77e77df16d" y="72.0"/>
    </g>
   </g>
  </g>
 </g>
 <defs>
  <clipPath id="p1bffca34e9">
   <rect height="72.0" width="72.0" x="0.0" y="0.0"/>
  </clipPath>
 </defs>
</svg>
