<?xml version="1.0" encoding="utf-8" standalone="no"?>
<!DOCTYPE svg PUBLIC "-//W3C//DTD SVG 1.1//EN"
  "http://www.w3.org/Graphics/SVG/1.1/DTD/svg11.dtd">
<!-- Created with matplotlib (http://matplotlib.org/) -->
<svg height="72pt" version="1.1" viewBox="0 0 72 72" width="72pt" xmlns="http://www.w3.org/2000/svg" xmlns:xlink="http://www.w3.org/1999/xlink">
 <defs>
  <style type="text/css">
*{stroke-linecap:butt;stroke-linejoin:round;}
  </style>
 </defs>
 <g id="figure_1">
  <g id="patch_1">
   <path d="
M0 72
L72 72
L72 0
L0 0
z
" style="fill:none;"/>
  </g>
  <g id="axes_1">
   <g id="PatchCollection_1">
    <defs>
     <path d="
M36 -7.5
C43.5583 -7.5 50.808 -10.5029 56.1525 -15.8475
C61.4971 -21.192 64.5 -28.4417 64.5 -36
C64.5 -43.5583 61.4971 -50.808 56.1525 -56.1525
C50.808 -61.4971 43.5583 -64.5 36 -64.5
C28.4417 -64.5 21.192 -61.4971 15.8475 -56.1525
C10.5029 -50.808 7.5 -43.5583 7.5 -36
C7.5 -28.4417 10.5029 -21.192 15.8475 -15.8475
C21.192 -10.5029 28.4417 -7.5 36 -7.5
z
" id="C0_0_a811fe30f3"/>
     <path d="
M7.78357 -39.4513
L7.97579 -39.4406
L8.16795 -39.4297
L8.36007 -39.4185
L8.55219 -39.4072
L8.74433 -39.3956
L8.93653 -39.3838
L9.12883 -39.3717
L9.32125 -39.3595
L9.51383 -39.3471
L9.70662 -39.3344
L9.89964 -39.3216
L10.0929 -39.3085
L10.2866 -39.2953
L10.4806 -39.2818
L10.675 -39.2682
L10.8698 -39.2543
L11.0651 -39.2403
L11.261 -39.226
L11.4575 -39.2116
L11.6546 -39.197
L11.8523 -39.1821
L12.0508 -39.1671
L12.4503 -39.1518
L12.6513 -39.1363
L12.8532 -39.1207
L13.0562 -39.1048
L13.2602 -39.0887
L13.4653 -39.0723
L13.6716 -39.0558
L13.8791 -39.039
L14.0879 -39.022
L14.2981 -39.0047
L14.5096 -38.9872
L14.7227 -38.9694
L14.9373 -38.9514
L15.1535 -38.9331
L15.3713 -38.9146
L15.5909 -38.8958
L15.8124 -38.8767
L16.0357 -38.8573
L16.261 -38.8377
L16.4883 -38.8177
L16.7177 -38.7974
L16.9493 -38.7768
L17.1832 -38.7559
L17.4194 -38.7347
L17.6581 -38.7131
L17.8992 -38.6911
L18.143 -38.6688
L18.3894 -38.6462
L18.6386 -38.6231
L18.8907 -38.5997
L19.1457 -38.5758
L19.4037 -38.5516
L19.6649 -38.5269
L19.9293 -38.5018
L20.197 -38.4763
L20.4681 -38.4503
L20.7427 -38.4238
L21.0209 -38.3969
L21.3029 -38.3694
L21.5886 -38.3415
L21.8781 -38.313
L22.1717 -38.2841
L22.4694 -38.2545
L22.7712 -38.2244
L23.0773 -38.1938
L23.3878 -38.1625
L23.7027 -38.1307
L24.0222 -38.0982
L24.3463 -38.0652
L24.6752 -38.0315
L25.0088 -37.9971
L25.3474 -37.9621
L25.6908 -37.9264
L26.0394 -37.89
L26.393 -37.8529
L26.7517 -37.8152
L27.1157 -37.7767
L27.4849 -37.7374
L27.8594 -37.6975
L28.2392 -37.6568
L28.6244 -37.6153
L29.0148 -37.5731
L29.4106 -37.5301
L29.8118 -37.4864
L30.2182 -37.4419
L30.6298 -37.3967
L31.0466 -37.3508
L31.4686 -37.304
L31.8955 -37.2566
L32.3274 -37.2085
L32.764 -37.1597
L33.2053 -37.1102
L33.6511 -37.0601
L34.1011 -37.0094
L34.5551 -36.9582
L35.013 -36.9065
L35.4744 -36.8544
L35.939 -36.802
L36.4065 -36.7495
L36.8765 -36.6969
L37.3484 -36.6445
L37.8219 -36.5925
L38.296 -36.5414
L38.7701 -36.4916
L39.2428 -36.444
L39.7122 -36.3998
L40.1754 -36.361
L40.627 -36.3311
L41.0569 -36.3169
L41.4454 -36.3313
L41.7633 -36.3997
L41.9925 -36.5603
L42.1497 -36.8357
L42.2632 -37.2033
L42.3519 -37.6246
L42.4257 -38.0739
L42.4893 -38.5379
L42.5455 -39.0097
L42.5957 -39.4854
L42.6409 -39.9626
L42.6816 -40.4399
L42.7182 -40.9161
L42.751 -41.3905
L42.7802 -41.8624
L42.806 -42.3313
L42.8285 -42.7967
L42.8479 -43.2584
L42.8641 -43.7158
L42.8774 -44.1689
L42.8878 -44.6173
L42.8954 -45.0609
L42.9002 -45.4994
L42.9025 -45.9326
L42.9021 -46.3605
L42.8993 -46.783
L42.8941 -47.1998
L42.8865 -47.611
L42.8767 -48.0166
L42.8646 -48.4163
L42.8505 -48.8103
L42.8343 -49.1985
L42.8161 -49.5809
L42.796 -49.9576
L42.7741 -50.3284
L42.7503 -50.6936
L42.7249 -51.0531
L42.6977 -51.4069
L42.669 -51.7552
L42.6387 -52.098
L42.6068 -52.4353
L42.5735 -52.7673
L42.5388 -53.094
L42.5028 -53.4155
L42.4654 -53.7319
L42.4267 -54.0433
L42.3868 -54.3498
L42.3456 -54.6515
L42.3033 -54.9485
L42.2598 -55.2409
L42.2153 -55.5287
L42.1696 -55.8121
L42.1228 -56.0913
L42.0751 -56.3662
L42.0263 -56.637
L41.9765 -56.9038
L41.9257 -57.1667
L41.874 -57.4258
L41.8213 -57.6812
L41.7676 -57.933
L41.713 -58.1813
L41.6575 -58.4262
L41.6011 -58.6678
L41.5438 -58.9061
L41.4855 -59.1413
L41.4264 -59.3735
L41.3663 -59.6027
L41.3053 -59.829
L41.2434 -60.0525
L41.1806 -60.2734
L41.1168 -60.4916
L41.0522 -60.7073
L40.9865 -60.9205
L40.9199 -61.1313
L40.8524 -61.3398
L40.7838 -61.546
L40.7143 -61.7501
L40.6437 -61.952
L40.5721 -62.152
L40.4994 -62.3499
L40.4257 -62.5459
L40.3508 -62.7401
L40.2748 -62.9325
L40.1977 -63.1231
L40.1194 -63.3121
L40.0398 -63.4994
L39.959 -63.6852
L39.8769 -63.8695
L39.7934 -64.0523
L39.3016 -64.2336
L38.807 -64.3081
L38.3116 -64.3614
L37.8155 -64.4061
L37.3188 -64.4421
L36.8218 -64.4695
L36.3245 -64.4881
L35.8271 -64.4982
L35.3297 -64.4995
L34.8325 -64.4921
L34.3357 -64.4761
L33.8395 -64.4514
L33.3438 -64.418
L32.849 -64.376
L32.3551 -64.3253
L31.8624 -64.266
L31.3709 -64.1981
L30.8808 -64.1215
L30.3923 -64.0365
L29.9055 -63.9429
L29.4205 -63.8407
L28.9375 -63.7301
L28.4567 -63.6111
L27.9782 -63.4836
L27.5022 -63.3478
L27.0287 -63.2036
L26.558 -63.0512
L26.0901 -62.8905
L25.6252 -62.7216
L25.1636 -62.5446
L24.7052 -62.3595
L24.2502 -62.1663
L23.7989 -61.9652
L23.3512 -61.7562
L22.9074 -61.5393
L22.4676 -61.3147
L22.0319 -61.0824
L21.6005 -60.8424
L21.1734 -60.5948
L20.7509 -60.3397
L20.333 -60.0773
L19.9199 -59.8075
L19.5117 -59.5304
L19.1085 -59.2462
L18.7105 -58.9549
L18.3177 -58.6566
L17.9303 -58.3514
L17.5484 -58.0394
L17.1721 -57.7207
L16.8016 -57.3954
L16.4369 -57.0635
L16.0782 -56.7253
L15.7255 -56.3807
L15.3791 -56.0299
L15.0389 -55.673
L14.705 -55.3101
L14.3777 -54.9413
L14.057 -54.5668
L13.7429 -54.1866
L13.4356 -53.8009
L13.1352 -53.4097
L12.8418 -53.0133
L12.5554 -52.6117
L12.2762 -52.205
L12.0041 -51.7933
L11.7394 -51.3769
L11.4821 -50.9558
L11.2323 -50.5301
L10.99 -50.1
L10.7553 -49.6656
L10.5283 -49.227
L10.309 -48.7844
L10.0976 -48.3379
L9.89409 -47.8877
L9.69852 -47.4338
L9.51096 -46.9764
L9.33147 -46.5157
L9.1601 -46.0518
L8.99691 -45.5849
L8.84195 -45.115
L8.69525 -44.6423
L8.55688 -44.1671
L8.42686 -43.6893
L8.30524 -43.2092
L8.19206 -42.7268
L8.08735 -42.2425
L7.99114 -41.7562
L7.90346 -41.2682
L7.82435 -40.7786
z
" id="C0_1_c7abcdc616"/>
     <path d="
M32.3315 -7.89386
L32.4587 -8.0479
L32.5848 -8.2034
L32.7099 -8.3604
L32.8341 -8.51892
L32.9573 -8.679
L33.0796 -8.84068
L33.2012 -9.004
L33.3219 -9.16898
L33.4419 -9.33568
L33.5612 -9.50415
L33.6799 -9.67442
L33.7979 -9.84654
L33.9153 -10.0206
L34.0323 -10.1966
L34.1487 -10.3746
L34.2646 -10.5546
L34.3801 -10.7368
L34.4953 -10.9212
L34.61 -11.1078
L34.7244 -11.2967
L34.8385 -11.488
L34.9523 -11.6818
L35.0659 -11.878
L35.1792 -12.0769
L35.2924 -12.2784
L35.4053 -12.4827
L35.5182 -12.6897
L35.6309 -12.8997
L35.7435 -13.1126
L35.856 -13.3286
L35.9684 -13.5477
L36.0808 -13.7701
L36.1932 -13.9958
L36.3056 -14.2249
L36.418 -14.4575
L36.5304 -14.6938
L36.6428 -14.9337
L36.7553 -15.1774
L36.8679 -15.425
L36.9805 -15.6767
L37.0932 -15.9324
L37.2059 -16.1923
L37.3188 -16.4565
L37.4317 -16.7252
L37.5447 -16.9984
L37.6578 -17.2761
L37.7709 -17.5586
L37.8842 -17.846
L37.9975 -18.1383
L38.1108 -18.4356
L38.2242 -18.738
L38.3376 -19.0457
L38.451 -19.3587
L38.5644 -19.6771
L38.6778 -20.0011
L38.7911 -20.3306
L38.9042 -20.6658
L39.0173 -21.0068
L39.1301 -21.3535
L39.2428 -21.7062
L39.3552 -22.0647
L39.4673 -22.4293
L39.5791 -22.7998
L39.6904 -23.1764
L39.8013 -23.559
L39.9117 -23.9476
L40.0214 -24.3423
L40.1306 -24.7429
L40.239 -25.1495
L40.3467 -25.5619
L40.4535 -25.9802
L40.5594 -26.4041
L40.6642 -26.8336
L40.7681 -27.2685
L40.8708 -27.7087
L40.9724 -28.1539
L41.0727 -28.6039
L41.1717 -29.0585
L41.2695 -29.5173
L41.366 -29.9799
L41.4612 -30.4461
L41.5552 -30.9152
L41.6482 -31.3866
L41.7406 -31.8596
L41.8326 -32.333
L41.9253 -32.8053
L42.02 -33.2742
L42.1192 -33.7359
L42.2279 -34.1833
L42.3558 -34.6032
L42.5221 -34.9699
L42.7557 -35.2447
L43.074 -35.4048
L43.4602 -35.4724
L43.8854 -35.4857
L44.3303 -35.4701
L44.7849 -35.4384
L45.2437 -35.3975
L45.7039 -35.3507
L46.1637 -35.3001
L46.6217 -35.2471
L47.0773 -35.1922
L47.5297 -35.1363
L47.9783 -35.0795
L48.4229 -35.0221
L48.863 -34.9645
L49.2984 -34.9067
L49.7288 -34.8489
L50.1539 -34.7912
L50.5736 -34.7336
L50.9878 -34.6763
L51.3962 -34.6193
L51.7988 -34.5626
L52.1955 -34.5063
L52.5862 -34.4505
L52.9708 -34.3951
L53.3494 -34.3402
L53.7218 -34.2858
L54.0882 -34.2319
L54.4484 -34.1786
L54.8026 -34.1258
L55.1507 -34.0736
L55.4928 -34.0219
L55.829 -33.9709
L56.1592 -33.9204
L56.4836 -33.8704
L56.8023 -33.8211
L57.1152 -33.7723
L57.4226 -33.7241
L57.7245 -33.6764
L58.021 -33.6293
L58.3121 -33.5828
L58.5981 -33.5368
L58.8789 -33.4913
L59.1547 -33.4464
L59.4257 -33.4019
L59.6918 -33.358
L59.9533 -33.3146
L60.2102 -33.2716
L60.4626 -33.2292
L60.7107 -33.1871
L60.9546 -33.1456
L61.1943 -33.1044
L61.4299 -33.0637
L61.6617 -33.0234
L61.8896 -32.9835
L62.1138 -32.944
L62.3344 -32.9049
L62.5514 -32.8661
L62.765 -32.8276
L62.9753 -32.7895
L63.1824 -32.7517
L63.3863 -32.7142
L63.5871 -32.677
L63.785 -32.6401
L63.98 -32.6035
L64.2263 -32.5671
L64.1532 -32.0594
L64.0715 -31.5674
L63.9813 -31.0767
L63.8826 -30.5876
L63.7754 -30.1001
L63.6597 -29.6143
L63.5356 -29.1306
L63.4031 -28.6489
L63.2623 -28.1694
L63.1132 -27.6924
L62.9558 -27.2179
L62.7902 -26.746
L62.6164 -26.277
L62.4345 -25.8109
L62.2446 -25.3479
L62.0467 -24.8882
L61.8408 -24.4319
L61.6271 -23.9791
L61.4055 -23.5299
L61.1763 -23.0845
L60.9393 -22.6431
L60.6948 -22.2058
L60.4427 -21.7726
L60.1832 -21.3438
L59.9163 -20.9195
L59.6422 -20.4997
L59.3608 -20.0847
L59.0723 -19.6745
L58.7768 -19.2693
L58.4744 -18.8691
L58.1651 -18.4742
L57.849 -18.0847
L57.5263 -17.7006
L57.1971 -17.322
L56.8614 -16.9492
L56.5193 -16.5822
L56.171 -16.221
L55.8165 -15.8659
L55.456 -15.517
L55.0896 -15.1742
L54.7174 -14.8379
L54.3394 -14.5079
L53.9559 -14.1845
L53.5669 -13.8678
L53.1726 -13.5578
L52.773 -13.2546
L52.3683 -12.9584
L51.9586 -12.6692
L51.5441 -12.387
L51.1248 -12.1121
L50.701 -11.8445
L50.2726 -11.5842
L49.8399 -11.3313
L49.403 -11.086
L48.962 -10.8483
L48.517 -10.6182
L48.0683 -10.3958
L47.6158 -10.1813
L47.1599 -9.97459
L46.7005 -9.77583
L46.2379 -9.58505
L45.7721 -9.40233
L45.3034 -9.2277
L44.8318 -9.06123
L44.3576 -8.90297
L43.8808 -8.75296
L43.4016 -8.61125
L42.9201 -8.47788
L42.4365 -8.3529
L41.951 -8.23634
L41.4637 -8.12823
L40.9747 -8.02862
L40.4842 -7.93753
L39.9923 -7.85498
L39.4992 -7.78101
L39.005 -7.71563
L38.51 -7.65887
L38.0141 -7.61074
L37.5177 -7.57126
L37.0207 -7.54044
L36.5235 -7.51828
L36.0261 -7.50481
L35.5287 -7.50001
L35.0315 -7.5039
L34.5345 -7.51646
L34.038 -7.5377
L33.5421 -7.56761
L33.0469 -7.60619
z
" id="C0_2_9be9cbc592"/>
    </defs>
    <g clip-path="url(#p1bffca34e9)">
     <use style="fill:#ffffff;stroke:#000000;stroke-width:2.0;" x="0.0" xlink:href="#C0_0_a811fe30f3" y="72.0"/>
    </g>
    <g clip-path="url(#p1bffca34e9)">
     <use style="fill:#ff0000;stroke:#000000;stroke-width:2.0;" x="0.0" xlink:href="#C0_1_c7abcdc616" y="72.0"/>
    </g>
    <g clip-path="url(#p1bffca34e9)">
     <use style="fill:#ff0000;stroke:#000000;stroke-width:2.0;" x="0.0" xlink:href="#C0_2_9be9cbc592" y="72.0"/>
    </g>
   </g>
  </g>
 </g>
 <defs>
  <clipPath id="p1bffca34e9">
   <rect height="72.0" width="72.0" x="0.0" y="0.0"/>
  </clipPath>
 </defs>
</svg>
