<?xml version="1.0" encoding="utf-8" standalone="no"?>
<!DOCTYPE svg PUBLIC "-//W3C//DTD SVG 1.1//EN"
  "http://www.w3.org/Graphics/SVG/1.1/DTD/svg11.dtd">
<!-- Created with matplotlib (http://matplotlib.org/) -->
<svg height="72pt" version="1.1" viewBox="0 0 72 72" width="72pt" xmlns="http://www.w3.org/2000/svg" xmlns:xlink="http://www.w3.org/1999/xlink">
 <defs>
  <style type="text/css">
*{stroke-linecap:butt;stroke-linejoin:round;}
  </style>
 </defs>
 <g id="figure_1">
  <g id="patch_1">
   <path d="
M0 72
L72 72
L72 0
L0 0
z
" style="fill:none;"/>
  </g>
  <g id="axes_1">
   <g id="PatchCollection_1">
    <defs>
     <path d="
M36 -7.5
C43.5583 -7.5 50.808 -10.5029 56.1525 -15.8475
C61.4971 -21.192 64.5 -28.4417 64.5 -36
C64.5 -43.5583 61.4971 -50.808 56.1525 -56.1525
C50.808 -61.4971 43.5583 -64.5 36 -64.5
C28.4417 -64.5 21.192 -61.4971 15.8475 -56.1525
C10.5029 -50.808 7.5 -43.5583 7.5 -36
C7.5 -28.4417 10.5029 -21.192 15.8475 -15.8475
C21.192 -10.5029 28.4417 -7.5 36 -7.5
z
" id="C0_0_a811fe30f3"/>
     <path d="
M30.6137 -8.01361
L30.6474 -8.18943
L30.6811 -8.36644
L30.7147 -8.54468
L30.7484 -8.72418
L30.782 -8.905
L30.8156 -9.08719
L30.8493 -9.27077
L30.883 -9.45581
L30.9167 -9.64235
L30.9505 -9.83044
L30.9843 -10.0201
L31.0183 -10.2115
L31.0523 -10.4045
L31.0864 -10.5993
L31.1206 -10.796
L31.1549 -10.9945
L31.1893 -11.1949
L31.2239 -11.3973
L31.2586 -11.6018
L31.2934 -11.8084
L31.3284 -12.0172
L31.3636 -12.2282
L31.3989 -12.4415
L31.4344 -12.6572
L31.4701 -12.8754
L31.506 -13.096
L31.5421 -13.3192
L31.5784 -13.5451
L31.6149 -13.7737
L31.6516 -14.005
L31.6885 -14.2393
L31.7256 -14.4764
L31.763 -14.7166
L31.8006 -14.9599
L31.8384 -15.2063
L31.8765 -15.4559
L31.9147 -15.7088
L31.9532 -15.9651
L31.992 -16.2249
L32.0309 -16.4882
L32.07 -16.755
L32.1094 -17.0255
L32.1489 -17.2997
L32.1886 -17.5778
L32.2285 -17.8596
L32.2685 -18.1454
L32.3087 -18.4351
L32.3489 -18.7289
L32.3893 -19.0267
L32.4297 -19.3287
L32.47 -19.6347
L32.5104 -19.945
L32.5507 -20.2595
L32.5909 -20.5781
L32.6308 -20.901
L32.6706 -21.2281
L32.71 -21.5595
L32.7489 -21.895
L32.7874 -22.2346
L32.8253 -22.5784
L32.8625 -22.9261
L32.8988 -23.2779
L32.9341 -23.6334
L32.9682 -23.9926
L33.001 -24.3555
L33.0322 -24.7217
L33.0616 -25.091
L33.0889 -25.4634
L33.1139 -25.8384
L33.1361 -26.2159
L33.1553 -26.5954
L33.1711 -26.9766
L33.1829 -27.3591
L33.1902 -27.7424
L33.1925 -28.126
L33.189 -28.5093
L33.1792 -28.8916
L33.1622 -29.2724
L33.1371 -29.6507
L33.103 -30.0259
L33.0588 -30.397
L33.0036 -30.7631
L32.9362 -31.1233
L32.8555 -31.4766
L32.7604 -31.822
L32.6498 -32.1586
L32.5229 -32.4855
L32.3787 -32.802
L32.2169 -33.1074
L32.0371 -33.4013
L31.8393 -33.6834
L31.6237 -33.9535
L31.3908 -34.2118
L31.1416 -34.4586
L30.877 -34.6941
L30.5981 -34.919
L30.3063 -35.1339
L30.0028 -35.3393
L29.689 -35.5358
L29.3662 -35.7242
L29.0358 -35.905
L28.6987 -36.0789
L28.3564 -36.2462
L28.0096 -36.4077
L27.6594 -36.5636
L27.3067 -36.7144
L26.9523 -36.8604
L26.5968 -37.0021
L26.2409 -37.1396
L25.8852 -37.2732
L25.5301 -37.4033
L25.1762 -37.5298
L24.8238 -37.6532
L24.4733 -37.7735
L24.125 -37.8908
L23.7792 -38.0054
L23.4362 -38.1173
L23.096 -38.2266
L22.759 -38.3335
L22.4252 -38.438
L22.0949 -38.5403
L21.768 -38.6404
L21.4448 -38.7383
L21.1252 -38.8343
L20.8094 -38.9282
L20.4973 -39.0203
L20.189 -39.1105
L19.8846 -39.1988
L19.5839 -39.2855
L19.2871 -39.3704
L18.9941 -39.4538
L18.7049 -39.5355
L18.4194 -39.6156
L18.1377 -39.6943
L17.8596 -39.7715
L17.5852 -39.8473
L17.3144 -39.9217
L17.0472 -39.9947
L16.7834 -40.0664
L16.523 -40.1369
L16.2661 -40.2061
L16.0124 -40.2742
L15.762 -40.341
L15.5148 -40.4067
L15.2707 -40.4713
L15.0296 -40.5349
L14.7915 -40.5973
L14.5564 -40.6588
L14.324 -40.7193
L14.0945 -40.7788
L13.8677 -40.8373
L13.6435 -40.8949
L13.4219 -40.9517
L13.2028 -41.0076
L12.9861 -41.0626
L12.7718 -41.1168
L12.5599 -41.1702
L12.3501 -41.2228
L12.1426 -41.2747
L11.9372 -41.3258
L11.7338 -41.3762
L11.5324 -41.4259
L11.333 -41.4749
L11.1354 -41.5232
L10.9397 -41.5708
L10.7457 -41.6178
L10.5535 -41.6642
L10.3629 -41.71
L10.1739 -41.7551
L9.98641 -41.7997
L9.80044 -41.8437
L9.61591 -41.8871
L9.43278 -41.9299
L9.25099 -41.9722
L9.0705 -42.014
L8.89126 -42.0552
L8.71322 -42.0959
L8.53635 -42.1361
L8.36059 -42.1758
L8.08167 -41.7286
L7.98595 -41.2405
L7.89875 -40.7508
L7.82012 -40.2596
L7.75007 -39.7672
L7.68863 -39.2736
L7.63581 -38.779
L7.59163 -38.2835
L7.5561 -37.7874
L7.52924 -37.2907
L7.51105 -36.7936
L7.50154 -36.2963
L7.50071 -35.7989
L7.50856 -35.3015
L7.52509 -34.8044
L7.55029 -34.3076
L7.58416 -33.8114
L7.62669 -33.3158
L7.67785 -32.821
L7.73765 -32.3272
L7.80605 -31.8345
L7.88305 -31.3431
L7.9686 -30.8531
L8.0627 -30.3647
L8.1653 -29.8779
L8.27639 -29.3931
L8.39592 -28.9102
L8.52385 -28.4296
L8.66016 -27.9512
L8.8048 -27.4753
L8.95771 -27.002
L9.11887 -26.5314
L9.28822 -26.0637
L9.4657 -25.599
L9.65126 -25.1375
L9.84485 -24.6793
L10.0464 -24.2246
L10.2559 -23.7734
L10.4732 -23.326
L10.6983 -22.8824
L10.931 -22.4428
L11.1715 -22.0074
L11.4195 -21.5762
L11.6749 -21.1494
L11.9378 -20.7271
L12.208 -20.3095
L12.4855 -19.8967
L12.7701 -19.4887
L13.0618 -19.0858
L13.3605 -18.6881
L13.6661 -18.2956
L13.9785 -17.9085
L14.2976 -17.5269
L14.6233 -17.151
L14.9555 -16.7808
L15.2941 -16.4164
L15.639 -16.0581
L15.9902 -15.7057
L16.3474 -15.3596
L16.7106 -15.0198
L17.0797 -14.6863
L17.4546 -14.3594
L17.8351 -14.039
L18.2211 -13.7253
L18.6126 -13.4184
L19.0093 -13.1184
L19.4112 -12.8254
L19.8182 -12.5394
L20.2301 -12.2606
L20.6468 -11.9889
L21.0682 -11.7247
L21.4942 -11.4678
L21.9245 -11.2183
L22.3592 -10.9765
L22.798 -10.7422
L23.2408 -10.5156
L23.6875 -10.2968
L24.138 -10.0859
L24.592 -9.8828
L25.0496 -9.68768
L25.5105 -9.50058
L25.9745 -9.32154
L26.4417 -9.15064
L26.9117 -8.98791
L27.3845 -8.83341
L27.8599 -8.68719
L28.3379 -8.54929
L28.8181 -8.41975
L29.3005 -8.2986
L29.785 -8.1859
z
" id="C0_1_0ff85ec892"/>
     <path d="
M63.6394 -29.8242
L63.4637 -29.8639
L63.2868 -29.9041
L63.1087 -29.9448
L62.9295 -29.986
L62.749 -30.0278
L62.5672 -30.0701
L62.3841 -30.1129
L62.1996 -30.1563
L62.0136 -30.2003
L61.8261 -30.2449
L61.6371 -30.29
L61.4465 -30.3358
L61.2543 -30.3822
L61.0603 -30.4292
L60.8646 -30.4768
L60.667 -30.5251
L60.4676 -30.5741
L60.2662 -30.6238
L60.0628 -30.6742
L59.8574 -30.7253
L59.6499 -30.7772
L59.4401 -30.8298
L59.2282 -30.8832
L59.0139 -30.9374
L58.7972 -30.9924
L58.5781 -31.0483
L58.3565 -31.1051
L58.1323 -31.1627
L57.9055 -31.2212
L57.676 -31.2807
L57.4436 -31.3412
L57.2085 -31.4027
L56.9704 -31.4651
L56.7293 -31.5287
L56.4852 -31.5933
L56.238 -31.659
L55.9876 -31.7258
L55.7339 -31.7939
L55.477 -31.8631
L55.2166 -31.9336
L54.9528 -32.0053
L54.6856 -32.0783
L54.4148 -32.1527
L54.1404 -32.2285
L53.8623 -32.3057
L53.5806 -32.3844
L53.2951 -32.4645
L53.0059 -32.5462
L52.7129 -32.6296
L52.4161 -32.7145
L52.1154 -32.8012
L51.811 -32.8895
L51.5027 -32.9797
L51.1906 -33.0718
L50.8748 -33.1657
L50.5552 -33.2617
L50.232 -33.3596
L49.9051 -33.4597
L49.5748 -33.562
L49.241 -33.6665
L48.904 -33.7734
L48.5638 -33.8827
L48.2208 -33.9946
L47.875 -34.1092
L47.5267 -34.2265
L47.1762 -34.3468
L46.8238 -34.4702
L46.4699 -34.5967
L46.1148 -34.7268
L45.7591 -34.8604
L45.4032 -34.9979
L45.0477 -35.1396
L44.6933 -35.2856
L44.3406 -35.4364
L43.9904 -35.5923
L43.6436 -35.7538
L43.3013 -35.9211
L42.9642 -36.095
L42.6338 -36.2758
L42.311 -36.4642
L41.9972 -36.6607
L41.6937 -36.8661
L41.4019 -37.081
L41.123 -37.3059
L40.8584 -37.5414
L40.6092 -37.7882
L40.3763 -38.0465
L40.1607 -38.3166
L39.9629 -38.5987
L39.7831 -38.8926
L39.6213 -39.198
L39.4771 -39.5145
L39.3502 -39.8414
L39.2396 -40.178
L39.1445 -40.5234
L39.0638 -40.8767
L38.9964 -41.2369
L38.9412 -41.603
L38.897 -41.9741
L38.8629 -42.3493
L38.8378 -42.7276
L38.8208 -43.1084
L38.811 -43.4907
L38.8075 -43.874
L38.8098 -44.2576
L38.8171 -44.6409
L38.8289 -45.0234
L38.8447 -45.4046
L38.8639 -45.7841
L38.8861 -46.1616
L38.9111 -46.5366
L38.9384 -46.909
L38.9678 -47.2783
L38.999 -47.6445
L39.0318 -48.0074
L39.0659 -48.3666
L39.1012 -48.7221
L39.1375 -49.0739
L39.1747 -49.4216
L39.2126 -49.7654
L39.2511 -50.105
L39.29 -50.4405
L39.3294 -50.7719
L39.3692 -51.099
L39.4091 -51.4219
L39.4493 -51.7405
L39.4896 -52.055
L39.53 -52.3653
L39.5703 -52.6713
L39.6107 -52.9733
L39.6511 -53.2711
L39.6913 -53.5649
L39.7315 -53.8546
L39.7715 -54.1404
L39.8114 -54.4222
L39.8511 -54.7003
L39.8906 -54.9745
L39.93 -55.245
L39.9691 -55.5118
L40.008 -55.7751
L40.0468 -56.0349
L40.0853 -56.2912
L40.1235 -56.5441
L40.1616 -56.7937
L40.1994 -57.0401
L40.237 -57.2834
L40.2744 -57.5236
L40.3115 -57.7607
L40.3484 -57.995
L40.3851 -58.2263
L40.4216 -58.4549
L40.4579 -58.6808
L40.494 -58.904
L40.5299 -59.1246
L40.5656 -59.3428
L40.6011 -59.5585
L40.6364 -59.7718
L40.6716 -59.9828
L40.7066 -60.1916
L40.7414 -60.3982
L40.7761 -60.6027
L40.8107 -60.8051
L40.8451 -61.0055
L40.8794 -61.204
L40.9136 -61.4007
L40.9477 -61.5955
L40.9817 -61.7885
L41.0157 -61.9799
L41.0495 -62.1696
L41.0833 -62.3577
L41.117 -62.5442
L41.1507 -62.7292
L41.1844 -62.9128
L41.218 -63.095
L41.2516 -63.2758
L41.2853 -63.4553
L41.3189 -63.6336
L41.874 -63.8106
L42.3598 -63.8881
L42.8437 -63.7813
L43.3255 -63.6661
L43.8051 -63.5425
L44.2823 -63.4104
L44.7569 -63.27
L45.2289 -63.1213
L45.6981 -62.9644
L46.1644 -62.7992
L46.6275 -62.6258
L47.0874 -62.4444
L47.5439 -62.2549
L47.9969 -62.0574
L48.4463 -61.852
L48.8918 -61.6386
L49.3335 -61.4175
L49.771 -61.1887
L50.2044 -60.9521
L50.6335 -60.708
L51.0581 -60.4563
L51.4781 -60.1972
L51.8934 -59.9307
L52.3038 -59.6569
L52.7093 -59.376
L53.1097 -59.0879
L53.5049 -58.7927
L53.8947 -58.4907
L54.2791 -58.1817
L54.658 -57.866
L55.0311 -57.5437
L55.3984 -57.2148
L55.7599 -56.8794
L56.1153 -56.5377
L56.4646 -56.1897
L56.8077 -55.8356
L57.1444 -55.4754
L57.4747 -55.1093
L57.7984 -54.7373
L58.1155 -54.3597
L58.4259 -53.9765
L58.7294 -53.5878
L59.026 -53.1937
L59.3156 -52.7944
L59.5981 -52.39
L59.8734 -51.9806
L60.1415 -51.5663
L60.4021 -51.1473
L60.6554 -50.7236
L60.9011 -50.2955
L61.1393 -49.8631
L61.3698 -49.4264
L61.5925 -48.9856
L61.8075 -48.5408
L62.0146 -48.0923
L62.2138 -47.64
L62.405 -47.1842
L62.5881 -46.725
L62.7632 -46.2626
L62.9301 -45.797
L63.0888 -45.3284
L63.2393 -44.857
L63.3814 -44.3829
L63.5152 -43.9062
L63.6407 -43.4271
L63.7577 -42.9458
L63.8662 -42.4623
L63.9663 -41.9769
L64.0578 -41.4897
L64.1408 -41.0008
L64.2153 -40.5103
L64.2811 -40.0185
L64.3383 -39.5255
L64.3869 -39.0314
L64.4269 -38.5363
L64.4581 -38.0405
L64.4808 -37.5441
L64.4947 -37.0472
L64.5 -36.55
L64.4965 -36.0526
L64.4844 -35.5552
L64.4636 -35.0579
L64.4342 -34.561
L64.3961 -34.0644
L64.3493 -33.5685
L64.2939 -33.0733
L64.2299 -32.5789
L64.1573 -32.0857
L64.0761 -31.5936
L63.9864 -31.1028
z
" id="C0_2_826bbde18a"/>
    </defs>
    <g clip-path="url(#p1bffca34e9)">
     <use style="fill:#ffffff;stroke:#000000;stroke-width:2.0;" x="0.0" xlink:href="#C0_0_a811fe30f3" y="72.0"/>
    </g>
    <g clip-path="url(#p1bffca34e9)">
     <use style="fill:#ff0000;stroke:#000000;stroke-width:2.0;" x="0.0" xlink:href="#C0_1_0ff85ec892" y="72.0"/>
    </g>
    <g clip-path="url(#p1bffca34e9)">
     <use style="fill:#ff0000;stroke:#000000;stroke-width:2.0;" x="0.0" xlink:href="#C0_2_826bbde18a" y="72.0"/>
    </g>
   </g>
  </g>
 </g>
 <defs>
  <clipPath id="p1bffca34e9">
   <rect height="72.0" width="72.0" x="0.0" y="0.0"/>
  </clipPath>
 </defs>
</svg>
