<?xml version="1.0" encoding="utf-8" standalone="no"?>
<!DOCTYPE svg PUBLIC "-//W3C//DTD SVG 1.1//EN"
  "http://www.w3.org/Graphics/SVG/1.1/DTD/svg11.dtd">
<!-- Created with matplotlib (http://matplotlib.org/) -->
<svg height="72pt" version="1.1" viewBox="0 0 72 72" width="72pt" xmlns="http://www.w3.org/2000/svg" xmlns:xlink="http://www.w3.org/1999/xlink">
 <defs>
  <style type="text/css">
*{stroke-linecap:butt;stroke-linejoin:round;}
  </style>
 </defs>
 <g id="figure_1">
  <g id="patch_1">
   <path d="
M0 72
L72 72
L72 0
L0 0
z
" style="fill:none;"/>
  </g>
  <g id="axes_1">
   <g id="PatchCollection_1">
    <defs>
     <path d="
M36 -7.5
C43.5583 -7.5 50.808 -10.5029 56.1525 -15.8475
C61.4971 -21.192 64.5 -28.4417 64.5 -36
C64.5 -43.5583 61.4971 -50.808 56.1525 -56.1525
C50.808 -61.4971 43.5583 -64.5 36 -64.5
C28.4417 -64.5 21.192 -61.4971 15.8475 -56.1525
C10.5029 -50.808 7.5 -43.5583 7.5 -36
C7.5 -28.4417 10.5029 -21.192 15.8475 -15.8475
C21.192 -10.5029 28.4417 -7.5 36 -7.5
z
" id="C0_0_a811fe30f3"/>
     <path d="
M38.8852 -64.3152
L38.8304 -64.113
L38.7768 -63.9109
L38.7242 -63.7089
L38.6726 -63.5071
L38.622 -63.3053
L38.5723 -63.1036
L38.5235 -62.9019
L38.4755 -62.7004
L38.4283 -62.4988
L38.382 -62.2973
L38.3363 -62.0958
L38.2914 -61.8943
L38.2472 -61.6928
L38.2036 -61.4912
L38.1606 -61.2895
L38.1182 -61.0878
L38.0764 -60.8858
L38.0352 -60.6837
L37.9945 -60.4814
L37.9543 -60.2789
L37.9146 -60.076
L37.8753 -59.8729
L37.8365 -59.6694
L37.7981 -59.4656
L37.7601 -59.2613
L37.7226 -59.0565
L37.6854 -58.8513
L37.6485 -58.6455
L37.612 -58.4391
L37.5758 -58.2321
L37.54 -58.0244
L37.5044 -57.816
L37.4341 -57.6068
L37.3994 -57.3967
L37.3649 -57.1858
L37.3307 -56.974
L37.2967 -56.7612
L37.2629 -56.5474
L37.2293 -56.3325
L37.1959 -56.1165
L37.1627 -55.8993
L37.1297 -55.6808
L37.0968 -55.4611
L37.0641 -55.24
L37.0316 -55.0174
L36.9992 -54.7934
L36.967 -54.5679
L36.9349 -54.3407
L36.9029 -54.1119
L36.871 -53.8814
L36.8393 -53.6491
L36.8076 -53.4149
L36.7761 -53.1788
L36.7447 -52.9406
L36.7133 -52.7005
L36.6821 -52.4582
L36.651 -52.2137
L36.6199 -51.9669
L36.5889 -51.7178
L36.5581 -51.4663
L36.5273 -51.2123
L36.4966 -50.9557
L36.466 -50.6965
L36.4354 -50.4345
L36.405 -50.1698
L36.3747 -49.9023
L36.3444 -49.6317
L36.3143 -49.3582
L36.2843 -49.0816
L36.2543 -48.8018
L36.2246 -48.5188
L36.1949 -48.2325
L36.1654 -47.9428
L36.1361 -47.6496
L36.1069 -47.353
L36.078 -47.0527
L36.0492 -46.7488
L36.0207 -46.4412
L35.9924 -46.1297
L35.9645 -45.8145
L35.9368 -45.4954
L35.9094 -45.1723
L35.8825 -44.8453
L35.8559 -44.5143
L35.8298 -44.1792
L35.8042 -43.8401
L35.7792 -43.4969
L35.7548 -43.1496
L35.731 -42.7982
L35.7081 -42.4428
L35.6859 -42.0833
L35.6646 -41.7198
L35.6444 -41.3524
L35.6252 -40.9811
L35.6073 -40.606
L35.5908 -40.2272
L35.5757 -39.8448
L35.5624 -39.459
L35.5509 -39.07
L35.5414 -38.6779
L35.5343 -38.283
L35.5297 -37.8855
L35.528 -37.4857
L35.5294 -37.0841
L35.5345 -36.6809
L35.5435 -36.2766
L35.557 -35.8716
L35.5755 -35.4666
L35.5997 -35.0622
L35.6303 -34.659
L35.6681 -34.2578
L35.714 -33.8595
L35.769 -33.4651
L35.8344 -33.0756
L35.9114 -32.6923
L36.0013 -32.3164
L36.1056 -31.9495
L36.2257 -31.5928
L36.3632 -31.2481
L36.5194 -30.9167
L36.6955 -30.6004
L36.8923 -30.3002
L37.1103 -30.0175
L37.3497 -29.7531
L37.6099 -29.5074
L37.8901 -29.2807
L38.1893 -29.0727
L38.5058 -28.883
L38.838 -28.7107
L39.1842 -28.5549
L39.5425 -28.4147
L39.9112 -28.2889
L40.2887 -28.1765
L40.6735 -28.0764
L41.0641 -27.9877
L41.4593 -27.9096
L41.8579 -27.8411
L42.2589 -27.7816
L42.6615 -27.7305
L43.0647 -27.6871
L43.4679 -27.6509
L43.8705 -27.6215
L44.2719 -27.5984
L44.6715 -27.5812
L45.0691 -27.5696
L45.4641 -27.5633
L45.8562 -27.5619
L46.2452 -27.5653
L46.6309 -27.5731
L47.0128 -27.5851
L47.391 -27.6012
L47.7653 -27.6211
L48.1354 -27.6446
L48.5013 -27.6716
L48.8629 -27.7019
L49.2202 -27.7354
L49.573 -27.7719
L49.9214 -27.8112
L50.2652 -27.8534
L50.6046 -27.8981
L50.9395 -27.9454
L51.2699 -27.9952
L51.5958 -28.0472
L51.9173 -28.1015
L52.2343 -28.1579
L52.547 -28.2164
L52.8554 -28.2769
L53.1595 -28.3393
L53.4594 -28.4036
L53.7552 -28.4696
L54.0468 -28.5374
L54.3344 -28.6068
L54.6181 -28.6779
L54.8979 -28.7505
L55.1739 -28.8247
L55.4461 -28.9003
L55.7147 -28.9774
L55.9797 -29.056
L56.2412 -29.1359
L56.4992 -29.2172
L56.7539 -29.2999
L57.0053 -29.3839
L57.2535 -29.4691
L57.4986 -29.5557
L57.7406 -29.6436
L57.9796 -29.7327
L58.2157 -29.8231
L58.4489 -29.9147
L58.6794 -30.0076
L58.9072 -30.1017
L59.1323 -30.1971
L59.3549 -30.2938
L59.575 -30.3917
L59.7926 -30.4909
L60.0079 -30.5914
L60.2208 -30.6931
L60.4315 -30.7962
L60.64 -30.9006
L60.8463 -31.0064
L61.0506 -31.1136
L61.2528 -31.2221
L61.4531 -31.332
L61.6514 -31.4434
L61.8479 -31.5563
L62.0425 -31.6707
L62.2353 -31.7866
L62.4264 -31.9041
L62.6157 -32.0233
L62.8034 -32.1441
L62.9895 -32.2666
L63.174 -32.3908
L63.3569 -32.5168
L63.5383 -32.6447
L63.7182 -32.7745
L63.8967 -32.9063
L64.0737 -33.0401
L64.2492 -33.1759
L64.4148 -33.3139
L64.4489 -33.7978
L64.4743 -34.2941
L64.4911 -34.7908
L64.4992 -35.288
L64.4986 -35.7853
L64.4893 -36.2827
L64.4714 -36.78
L64.4447 -37.2771
L64.4095 -37.7738
L64.3655 -38.27
L64.3129 -38.7655
L64.2517 -39.2601
L64.1819 -39.7537
L64.1035 -40.2462
L64.0165 -40.7374
L63.9211 -41.2271
L63.8171 -41.7153
L63.7046 -42.2017
L63.5837 -42.6863
L63.4544 -43.1687
L63.3167 -43.6491
L63.1707 -44.127
L63.0164 -44.6025
L62.8539 -45.0754
L62.6832 -45.5455
L62.5044 -46.0128
L62.3175 -46.4769
L62.1226 -46.9379
L61.9198 -47.3955
L61.709 -47.8497
L61.4904 -48.3003
L61.2641 -48.7471
L61.03 -49.19
L60.7884 -49.6289
L60.5392 -50.0637
L60.2825 -50.4941
L60.0184 -50.9202
L59.747 -51.3417
L59.4683 -51.7586
L59.1825 -52.1706
L58.8897 -52.5777
L58.5899 -52.9798
L58.2831 -53.3767
L57.9697 -53.7683
L57.6495 -54.1545
L57.3227 -54.5351
L56.9894 -54.9101
L56.6497 -55.2794
L56.3038 -55.6428
L55.9516 -56.0002
L55.5934 -56.3515
L55.2292 -56.6966
L54.8592 -57.0354
L54.4834 -57.3678
L54.102 -57.6936
L53.715 -58.0129
L53.3227 -58.3255
L52.9251 -58.6313
L52.5223 -58.9301
L52.1145 -59.222
L51.7018 -59.5068
L51.2843 -59.7845
L50.8622 -60.0549
L50.4355 -60.318
L50.0045 -60.5737
L49.5691 -60.8219
L49.1297 -61.0625
L48.6862 -61.2955
L48.2389 -61.5208
L47.7878 -61.7383
L47.3332 -61.948
L46.8751 -62.1498
L46.4136 -62.3436
L45.949 -62.5293
L45.4814 -62.707
L45.0109 -62.8766
L44.5377 -63.038
L44.0618 -63.1911
L43.5835 -63.336
L43.1029 -63.4725
L42.6201 -63.6007
L42.1353 -63.7205
L41.6487 -63.8318
L41.1603 -63.9346
L40.6703 -64.0289
L40.1789 -64.1147
L39.6863 -64.192
z
" id="C0_1_2e00d8120d"/>
     <path d="
M7.65072 -38.5392
L7.7978 -38.3702
L7.94695 -38.2024
L8.09821 -38.0356
L8.2516 -37.8698
L8.40716 -37.705
L8.56491 -37.5411
L8.72491 -37.3781
L8.88719 -37.2159
L9.05179 -37.0545
L9.21875 -36.8938
L9.38813 -36.7338
L9.55996 -36.5745
L9.7343 -36.4157
L9.91121 -36.2575
L10.0907 -36.0999
L10.2729 -35.9427
L10.4578 -35.7861
L10.6456 -35.6298
L10.8361 -35.4739
L11.0296 -35.3184
L11.2261 -35.1633
L11.4256 -35.0084
L11.6282 -34.8538
L11.834 -34.6995
L12.0431 -34.5454
L12.2554 -34.3915
L12.4712 -34.2378
L12.6905 -34.0843
L12.9134 -33.9309
L13.1398 -33.7777
L13.37 -33.6245
L13.604 -33.4715
L13.8418 -33.3186
L14.0836 -33.1657
L14.3293 -33.0129
L14.5792 -32.8602
L14.8333 -32.7076
L15.0916 -32.5549
L15.3543 -32.4024
L15.6214 -32.2499
L15.8929 -32.0974
L16.1689 -31.945
L16.4496 -31.7927
L16.7349 -31.6404
L17.0249 -31.4882
L17.3197 -31.336
L17.6193 -31.184
L17.9237 -31.032
L18.233 -30.8802
L18.5472 -30.7284
L18.8663 -30.5768
L19.1903 -30.4254
L19.5191 -30.274
L19.8528 -30.1229
L20.1912 -29.9718
L20.5344 -29.821
L20.8822 -29.6703
L21.2346 -29.5197
L21.5913 -29.3692
L21.9523 -29.2189
L22.3174 -29.0686
L22.6862 -28.9183
L23.0586 -28.7679
L23.4343 -28.6174
L23.8129 -28.4666
L24.194 -28.3154
L24.5771 -28.1636
L24.9617 -28.011
L25.3472 -27.8574
L25.733 -27.7023
L26.1182 -27.5455
L26.5019 -27.3865
L26.8832 -27.2248
L27.261 -27.0597
L27.6339 -26.8905
L28.0007 -26.7164
L28.3599 -26.5364
L28.7097 -26.3496
L29.0486 -26.1549
L29.3747 -25.951
L29.6862 -25.7369
L29.9817 -25.5114
L30.2595 -25.2736
L30.5185 -25.0227
L30.7579 -24.7582
L30.9774 -24.48
L31.1769 -24.1883
L31.3569 -23.8836
L31.5185 -23.5668
L31.6627 -23.2389
L31.7909 -22.9011
L31.9045 -22.5548
L32.005 -22.2013
L32.0939 -21.8418
L32.1725 -21.4777
L32.242 -21.1101
L32.3037 -20.7401
L32.3584 -20.3685
L32.4071 -19.9963
L32.4506 -19.6243
L32.4895 -19.2531
L32.5245 -18.8833
L32.5561 -18.5155
L32.5847 -18.1501
L32.6108 -17.7876
L32.6346 -17.4282
L32.6565 -17.0723
L32.6768 -16.7202
L32.6956 -16.372
L32.7133 -16.028
L32.7298 -15.6883
L32.7454 -15.3531
L32.7603 -15.0225
L32.7745 -14.6965
L32.7882 -14.3752
L32.8014 -14.0586
L32.8142 -13.7469
L32.8266 -13.4399
L32.8389 -13.1378
L32.8509 -12.8404
L32.8628 -12.5478
L32.8745 -12.2599
L32.8862 -11.9767
L32.8978 -11.6982
L32.9094 -11.4243
L32.921 -11.1549
L32.9327 -10.89
L32.9444 -10.6295
L32.9561 -10.3733
L32.968 -10.1214
L32.9799 -9.87367
L32.992 -9.63006
L33.0042 -9.39047
L33.0165 -9.15483
L33.0289 -8.92306
L33.0415 -8.69506
L33.0543 -8.47076
L33.0672 -8.25008
L33.0803 -8.03292
L32.5819 -7.81921
L32.0886 -7.70572
L31.5965 -7.76968
L31.1057 -7.84225
L30.6165 -7.92339
L30.1289 -8.01308
L29.643 -8.1113
L29.1591 -8.21801
L28.6773 -8.33319
L28.1977 -8.45679
L27.7205 -8.58878
L27.2459 -8.72913
L26.7738 -8.87778
L26.3046 -9.03469
L25.8384 -9.19981
L25.3752 -9.3731
L24.9153 -9.5545
L24.4588 -9.74396
L24.0057 -9.94141
L23.5564 -10.1468
L23.1108 -10.3601
L22.6691 -10.5811
L22.2315 -10.81
L21.7981 -11.0465
L21.3691 -11.2905
L20.9444 -11.5422
L20.5244 -11.8012
L20.1091 -12.0677
L19.6986 -12.3414
L19.2931 -12.6223
L18.8927 -12.9104
L18.4975 -13.2055
L18.1076 -13.5075
L17.7231 -13.8164
L17.3443 -14.1321
L16.9711 -14.4544
L16.6037 -14.7832
L16.2422 -15.1186
L15.8868 -15.4603
L15.5374 -15.8082
L15.1943 -16.1623
L14.8576 -16.5225
L14.5273 -16.8885
L14.2035 -17.2604
L13.8863 -17.638
L13.5759 -18.0212
L13.2724 -18.4099
L12.9757 -18.8039
L12.6861 -19.2032
L12.4035 -19.6076
L12.1282 -20.017
L11.8601 -20.4312
L11.5994 -20.8502
L11.3461 -21.2738
L11.1003 -21.7019
L10.8621 -22.1344
L10.6316 -22.571
L10.4088 -23.0118
L10.1938 -23.4565
L9.9866 -23.9051
L9.78737 -24.3573
L9.59612 -24.8131
L9.41292 -25.2722
L9.23781 -25.7347
L9.07086 -26.2002
L8.91211 -26.6688
L8.76161 -27.1402
L8.6194 -27.6143
L8.48554 -28.091
L8.36006 -28.57
L8.243 -29.0513
L8.1344 -29.5348
L8.03428 -30.0202
L7.94268 -30.5074
L7.85963 -30.9963
L7.78514 -31.4868
L7.71926 -31.9786
L7.66199 -32.4716
L7.61335 -32.9657
L7.57335 -33.4607
L7.54202 -33.9565
L7.51935 -34.453
L7.50536 -34.9499
L7.50005 -35.4471
L7.50343 -35.9445
L7.51548 -36.4419
L7.53621 -36.9391
L7.5656 -37.4361
z
" id="C0_2_991b3980fc"/>
    </defs>
    <g clip-path="url(#p1bffca34e9)">
     <use style="fill:#ffffff;stroke:#000000;stroke-width:2.0;" x="0.0" xlink:href="#C0_0_a811fe30f3" y="72.0"/>
    </g>
    <g clip-path="url(#p1bffca34e9)">
     <use style="fill:#ff0000;stroke:#000000;stroke-width:2.0;" x="0.0" xlink:href="#C0_1_2e00d8120d" y="72.0"/>
    </g>
    <g clip-path="url(#p1bffca34e9)">
     <use style="fill:#ff0000;stroke:#000000;stroke-width:2.0;" x="0.0" xlink:href="#C0_2_991b3980fc" y="72.0"/>
    </g>
   </g>
  </g>
 </g>
 <defs>
  <clipPath id="p1bffca34e9">
   <rect height="72.0" width="72.0" x="0.0" y="0.0"/>
  </clipPath>
 </defs>
</svg>
