<?xml version="1.0" encoding="utf-8" standalone="no"?>
<!DOCTYPE svg PUBLIC "-//W3C//DTD SVG 1.1//EN"
  "http://www.w3.org/Graphics/SVG/1.1/DTD/svg11.dtd">
<!-- Created with matplotlib (http://matplotlib.org/) -->
<svg height="72pt" version="1.1" viewBox="0 0 72 72" width="72pt" xmlns="http://www.w3.org/2000/svg" xmlns:xlink="http://www.w3.org/1999/xlink">
 <defs>
  <style type="text/css">
*{stroke-linecap:butt;stroke-linejoin:round;}
  </style>
 </defs>
 <g id="figure_1">
  <g id="patch_1">
   <path d="
M0 72
L72 72
L72 0
L0 0
z
" style="fill:none;"/>
  </g>
  <g id="axes_1">
   <g id="PatchCollection_1">
    <defs>
     <path d="
M36 -7.5
C43.5583 -7.5 50.808 -10.5029 56.1525 -15.8475
C61.4971 -21.192 64.5 -28.4417 64.5 -36
C64.5 -43.5583 61.4971 -50.808 56.1525 -56.1525
C50.808 -61.4971 43.5583 -64.5 36 -64.5
C28.4417 -64.5 21.192 -61.4971 15.8475 -56.1525
C10.5029 -50.808 7.5 -43.5583 7.5 -36
C7.5 -28.4417 10.5029 -21.192 15.8475 -15.8475
C21.192 -10.5029 28.4417 -7.5 36 -7.5
z
" id="C0_0_a811fe30f3"/>
     <path d="
M32.5709 -7.7077
L32.5626 -7.94183
L32.5653 -8.17732
L32.5784 -8.41404
L32.6013 -8.65189
L32.6334 -8.8908
L32.6742 -9.13067
L32.723 -9.37142
L32.7794 -9.61299
L32.8428 -9.8553
L32.9127 -10.0983
L32.9886 -10.3419
L33.0701 -10.5861
L33.1567 -10.8307
L33.2481 -11.0758
L33.3437 -11.3213
L33.4434 -11.5671
L33.5467 -11.8133
L33.6532 -12.0596
L33.7628 -12.3062
L33.875 -12.5529
L33.9897 -12.7997
L34.1066 -13.0465
L34.2254 -13.2934
L34.3459 -13.5403
L34.468 -13.787
L34.5914 -14.0337
L34.716 -14.2803
L34.8416 -14.5267
L34.968 -14.773
L35.0952 -15.019
L35.223 -15.2647
L35.3512 -15.5102
L35.4799 -15.7555
L35.6088 -16.0004
L35.738 -16.245
L35.8672 -16.4892
L35.9965 -16.7331
L36.1258 -16.9767
L36.255 -17.2198
L36.384 -17.4626
L36.5129 -17.7051
L36.6415 -17.9471
L36.7699 -18.1888
L36.898 -18.43
L37.0257 -18.6709
L37.153 -18.9114
L37.28 -19.1516
L37.4066 -19.3913
L37.5328 -19.6308
L37.6585 -19.8698
L37.7838 -20.1086
L37.9086 -20.347
L38.0329 -20.5852
L38.1568 -20.823
L38.2802 -21.0606
L38.4032 -21.2979
L38.5257 -21.535
L38.6477 -21.7718
L38.7692 -22.0085
L38.8903 -22.245
L39.0109 -22.4814
L39.1311 -22.7176
L39.2508 -22.9537
L39.3701 -23.1898
L39.489 -23.4258
L39.6075 -23.6618
L39.7255 -23.8978
L39.8432 -24.1339
L39.9605 -24.37
L40.0774 -24.6062
L40.194 -24.8425
L40.3102 -25.079
L40.4261 -25.3156
L40.5417 -25.5525
L40.657 -25.7896
L40.772 -26.027
L40.8867 -26.2647
L41.1154 -26.5028
L41.2294 -26.7412
L41.3433 -26.9801
L41.4569 -27.2193
L41.5703 -27.4591
L41.6836 -27.6993
L41.7968 -27.9401
L41.9098 -28.1815
L42.0227 -28.4235
L42.1355 -28.6661
L42.2482 -28.9094
L42.3609 -29.1534
L42.4735 -29.3981
L42.5861 -29.6436
L42.6987 -29.8899
L42.8113 -30.137
L42.924 -30.385
L43.0366 -30.6338
L43.1493 -30.8836
L43.2621 -31.1344
L43.375 -31.3861
L43.488 -31.6389
L43.6011 -31.8926
L43.7144 -32.1475
L43.8278 -32.4034
L43.9414 -32.6604
L44.0551 -32.9186
L44.1691 -33.1779
L44.2833 -33.4383
L44.3978 -33.7
L44.5126 -33.9629
L44.6276 -34.2269
L44.7429 -34.4922
L44.8586 -34.7588
L44.9746 -35.0266
L45.0909 -35.2956
L45.2077 -35.5659
L45.3248 -35.8374
L45.4424 -36.1101
L45.5605 -36.3841
L45.679 -36.6593
L45.798 -36.9356
L45.9176 -37.2132
L46.0377 -37.4919
L46.1584 -37.7717
L46.2798 -38.0525
L46.4018 -38.3344
L46.5244 -38.6173
L46.6478 -38.9011
L46.772 -39.1857
L46.897 -39.4712
L47.0228 -39.7573
L47.1495 -40.0441
L47.2772 -40.3313
L47.4059 -40.619
L47.5357 -40.907
L47.6665 -41.1952
L47.7986 -41.4834
L47.932 -41.7715
L48.0667 -42.0593
L48.2028 -42.3467
L48.3404 -42.6335
L48.4797 -42.9195
L48.6207 -43.2045
L48.7635 -43.4882
L48.9083 -43.7704
L49.0551 -44.0509
L49.2041 -44.3295
L49.3555 -44.6057
L49.5093 -44.8794
L49.6657 -45.1503
L49.825 -45.4179
L49.9871 -45.682
L50.1524 -45.9423
L50.321 -46.1983
L50.493 -46.4498
L50.6687 -46.6962
L50.8482 -46.9373
L51.0316 -47.1726
L51.2192 -47.4017
L51.4112 -47.6242
L51.6076 -47.8398
L51.8086 -48.0479
L52.0144 -48.2483
L52.2251 -48.4404
L52.4408 -48.6239
L52.6615 -48.7985
L52.8873 -48.9637
L53.1183 -49.1192
L53.3544 -49.2648
L53.5957 -49.4
L53.842 -49.5246
L54.0934 -49.6384
L54.3496 -49.7412
L54.6105 -49.8326
L54.8761 -49.9127
L55.146 -49.9812
L55.4201 -50.038
L55.6981 -50.0831
L55.9797 -50.1164
L56.2647 -50.1379
L56.5527 -50.1476
L56.8435 -50.1456
L57.1367 -50.1319
L57.432 -50.1065
L57.729 -50.0697
L58.0275 -50.0214
L58.327 -49.9618
L58.6272 -49.8912
L58.9278 -49.8095
L59.2285 -49.7171
L59.5288 -49.614
L59.8286 -49.5004
L60.1274 -49.3767
L60.4251 -49.2428
L60.7212 -49.0991
L61.0155 -48.9458
L61.3078 -48.783
L61.5978 -48.6109
L61.8507 -48.4298
L62.0562 -47.9997
L62.2537 -47.5467
L62.4433 -47.0902
L62.6248 -46.6303
L62.7982 -46.1672
L62.9634 -45.701
L63.1204 -45.2318
L63.2691 -44.7598
L63.4096 -44.2852
L63.5417 -43.808
L63.6654 -43.3284
L63.7807 -42.8466
L63.8875 -42.3628
L63.9858 -41.877
L64.0756 -41.3894
L64.1568 -40.9001
L64.2295 -40.4094
L64.2936 -39.9173
L64.349 -39.424
L64.3958 -38.9297
L64.434 -38.4345
L64.4635 -37.9386
L64.4843 -37.442
L64.4965 -36.9451
L64.5 -36.4478
L64.4948 -35.9504
L64.4809 -35.453
L64.4583 -34.9558
L64.4271 -34.4589
L64.3872 -33.9625
L64.3386 -33.4667
L64.2815 -32.9716
L64.2157 -32.4775
L64.1413 -31.9845
L64.0584 -31.4926
L63.9669 -31.0022
L63.8669 -30.5133
L63.7583 -30.026
L63.6414 -29.5406
L63.516 -29.0571
L63.3822 -28.5758
L63.2401 -28.0967
L63.0897 -27.62
L62.9311 -27.1459
L62.7642 -26.6744
L62.5892 -26.2058
L62.4061 -25.7402
L62.215 -25.2777
L62.0158 -24.8185
L61.8088 -24.3627
L61.5939 -23.9105
L61.3711 -23.4619
L61.1407 -23.0171
L60.9026 -22.5763
L60.6569 -22.1396
L60.4037 -21.7071
L60.1431 -21.2789
L59.8751 -20.8553
L59.5998 -20.4362
L59.3174 -20.0219
L59.0278 -19.6125
L58.7312 -19.208
L58.4277 -18.8087
L58.1174 -18.4146
L57.8004 -18.0259
L57.4767 -17.6426
L57.1464 -17.2649
L56.8097 -16.893
L56.4667 -16.5268
L56.1174 -16.1666
L55.7621 -15.8124
L55.4007 -15.4644
L55.0333 -15.1226
L54.6602 -14.7872
L54.2814 -14.4583
L53.8971 -14.1359
L53.5072 -13.8202
L53.1121 -13.5112
L52.7117 -13.2091
L52.3063 -12.9139
L51.8959 -12.6258
L51.4806 -12.3447
L51.0606 -12.0709
L50.6361 -11.8044
L50.207 -11.5452
L49.7737 -11.2935
L49.3361 -11.0493
L48.8945 -10.8127
L48.449 -10.5838
L47.9997 -10.3627
L47.5467 -10.1493
L47.0902 -9.94382
L46.6303 -9.74627
L46.1672 -9.55672
L45.701 -9.37523
L45.2318 -9.20184
L44.7598 -9.03662
L44.2852 -8.8796
L43.808 -8.73086
L43.3284 -8.59041
L42.8466 -8.45832
L42.3628 -8.33462
L41.877 -8.21934
L41.3894 -8.11252
L40.9001 -8.0142
L40.4094 -7.92441
L39.9173 -7.84317
L39.424 -7.7705
L38.9297 -7.70643
L38.4345 -7.65098
L37.9386 -7.60417
L37.442 -7.56601
L36.9451 -7.53651
L36.4478 -7.51567
L35.9504 -7.50352
L35.453 -7.50004
L34.9558 -7.50525
L34.4589 -7.51914
L33.9625 -7.5417
L33.4667 -7.57293
z
" id="C0_1_61c26bc4aa"/>
     <path d="
M10.356 -23.8743
L10.3911 -24.2169
L10.4285 -24.5595
L10.4683 -24.9019
L10.5105 -25.2439
L10.5553 -25.5853
L10.6025 -25.9259
L10.6523 -26.2655
L10.7046 -26.6041
L10.7595 -26.9414
L10.817 -27.2774
L10.8771 -27.6119
L10.9398 -27.9449
L11.0049 -28.2763
L11.0727 -28.6059
L11.1429 -28.9337
L11.2156 -29.2597
L11.2907 -29.5838
L11.3683 -29.906
L11.4482 -30.2261
L11.5305 -30.5442
L11.6151 -30.8603
L11.702 -31.1743
L11.7912 -31.4862
L11.8825 -31.7961
L11.9761 -32.1038
L12.0718 -32.4094
L12.1695 -32.713
L12.2694 -33.0144
L12.3713 -33.3138
L12.4752 -33.6111
L12.5811 -33.9063
L12.6889 -34.1996
L12.7987 -34.4908
L12.9104 -34.78
L13.0239 -35.0672
L13.1393 -35.3526
L13.2565 -35.636
L13.3755 -35.9175
L13.4963 -36.1972
L13.6189 -36.475
L13.7433 -36.7511
L13.8694 -37.0254
L13.9972 -37.298
L14.1268 -37.569
L14.2581 -37.8382
L14.3911 -38.1059
L14.5257 -38.372
L14.6621 -38.6366
L14.8002 -38.8997
L14.94 -39.1613
L15.0815 -39.4215
L15.2246 -39.6803
L15.3695 -39.9377
L15.5161 -40.1939
L15.6643 -40.4488
L15.8143 -40.7024
L15.9661 -40.9548
L16.1195 -41.2061
L16.2748 -41.4562
L16.4317 -41.7052
L16.5905 -41.9532
L16.751 -42.2001
L16.9134 -42.4461
L17.0776 -42.6911
L17.2436 -42.9351
L17.4115 -43.1783
L17.5812 -43.4206
L17.7529 -43.662
L17.9265 -43.9027
L18.102 -44.1425
L18.2796 -44.3817
L18.4591 -44.62
L18.6406 -44.8577
L18.8242 -45.0948
L19.0099 -45.3311
L19.1976 -45.5669
L19.3875 -45.802
L19.5796 -46.0366
L19.7738 -46.2706
L19.9703 -46.504
L20.169 -46.737
L20.3699 -46.9694
L20.5732 -47.2013
L20.7788 -47.4328
L20.9868 -47.6638
L21.1972 -47.8943
L21.4099 -48.1244
L21.6252 -48.3541
L21.8429 -48.5833
L22.063 -48.8121
L22.2858 -49.0405
L22.511 -49.2685
L22.7388 -49.4961
L22.9692 -49.7232
L23.2022 -49.95
L23.4378 -50.1763
L23.6761 -50.4022
L23.917 -50.6277
L24.1605 -50.8528
L24.4067 -51.0775
L24.6555 -51.3016
L24.907 -51.5254
L25.1612 -51.7486
L25.4179 -51.9714
L25.6773 -52.1937
L25.9393 -52.4154
L26.2038 -52.6367
L26.4709 -52.8573
L26.7404 -53.0774
L27.0124 -53.297
L27.2867 -53.5159
L27.5634 -53.7342
L27.8423 -53.9519
L28.1233 -54.1689
L28.4064 -54.3852
L28.6914 -54.6008
L28.9783 -54.8158
L29.2669 -55.03
L29.557 -55.2435
L29.8485 -55.4562
L30.1413 -55.6682
L30.4351 -55.8795
L30.7298 -56.0901
L31.0251 -56.2999
L31.3208 -56.509
L31.6166 -56.7173
L31.9124 -56.9251
L32.2078 -57.1321
L32.5025 -57.3386
L32.7962 -57.5445
L33.0885 -57.7499
L33.3793 -57.9548
L33.6679 -58.1594
L33.9542 -58.3636
L34.2377 -58.5676
L34.5181 -58.7715
L34.7948 -58.9753
L35.0675 -59.1791
L35.3357 -59.3831
L35.5991 -59.5873
L35.8572 -59.7919
L36.1096 -59.997
L36.3558 -60.2026
L36.5955 -60.4089
L36.8282 -60.616
L37.0535 -60.824
L37.271 -61.0329
L37.4805 -61.2428
L37.6816 -61.4538
L37.8739 -61.666
L38.0572 -61.8793
L38.2312 -62.0937
L38.3958 -62.3094
L38.5507 -62.5262
L38.6957 -62.7441
L38.8308 -62.963
L38.9559 -63.183
L39.0709 -63.4038
L39.1757 -63.6254
L39.2703 -63.8476
L38.8877 -64.0704
L38.3925 -64.3533
L37.8965 -64.3994
L37.3999 -64.4368
L36.9029 -64.4656
L36.4056 -64.4857
L35.9082 -64.4971
L35.4108 -64.4999
L34.9136 -64.4939
L34.4168 -64.4793
L33.9204 -64.456
L33.4246 -64.424
L32.9296 -64.3834
L32.4356 -64.3341
L31.9427 -64.2762
L31.451 -64.2097
L30.9606 -64.1346
L30.4719 -64.0509
L29.9847 -63.9587
L29.4995 -63.858
L29.0162 -63.7488
L28.535 -63.6311
L28.0561 -63.505
L27.5797 -63.3705
L27.1057 -63.2277
L26.6345 -63.0766
L26.1662 -62.9172
L25.7009 -62.7497
L25.2386 -62.574
L24.7797 -62.3902
L24.3242 -62.1984
L23.8722 -61.9986
L23.424 -61.7908
L22.9795 -61.5753
L22.5391 -61.3519
L22.1027 -61.1208
L21.6706 -60.882
L21.2428 -60.6357
L20.8195 -60.3819
L20.4009 -60.1206
L19.987 -59.852
L19.578 -59.5761
L19.1739 -59.2931
L18.775 -59.0029
L18.3814 -58.7057
L17.9931 -58.4017
L17.6103 -58.0908
L17.2331 -57.7731
L16.8616 -57.4489
L16.496 -57.1181
L16.1363 -56.7809
L15.7826 -56.4373
L15.4351 -56.0875
L15.0939 -55.7316
L14.7591 -55.3697
L14.4307 -55.0019
L14.1088 -54.6283
L13.7937 -54.249
L13.4853 -53.8642
L13.1838 -53.4739
L12.8892 -53.0783
L12.6016 -52.6775
L12.3212 -52.2716
L12.048 -51.8608
L11.7821 -51.4451
L11.5236 -51.0248
L11.2725 -50.5998
L11.029 -50.1704
L10.793 -49.7367
L10.5648 -49.2988
L10.3443 -48.8569
L10.1316 -48.411
L9.92675 -47.9614
L9.72988 -47.5081
L9.54101 -47.0513
L9.36019 -46.5911
L9.1875 -46.1277
L9.02297 -45.6613
L8.86666 -45.1918
L8.71861 -44.7196
L8.57888 -44.2448
L8.4475 -43.7674
L8.3245 -43.2876
L8.20994 -42.8057
L8.10385 -42.3216
L8.00625 -41.8357
L7.91718 -41.3479
L7.83667 -40.8585
L7.76473 -40.3677
L7.70139 -39.8755
L7.64668 -39.3821
L7.6006 -38.8877
L7.56317 -38.3925
L7.5344 -37.8965
L7.51431 -37.3999
L7.50289 -36.9029
L7.50015 -36.4056
L7.50609 -35.9082
L7.52071 -35.4108
L7.54401 -34.9136
L7.57598 -34.4168
L7.6166 -33.9204
L7.66587 -33.4246
L7.72377 -32.9296
L7.79028 -32.4356
L7.86539 -31.9427
L7.94907 -31.451
L8.04129 -30.9606
L8.14203 -30.4719
L8.25125 -29.9847
L8.36893 -29.4995
L8.49502 -29.0162
L8.62949 -28.535
L8.7723 -28.0561
L8.9234 -27.5797
L9.08275 -27.1057
L9.2503 -26.6345
L9.426 -26.1662
L9.60979 -25.7009
L9.80162 -25.2386
L10.0014 -24.7797
z
" id="C0_2_7ff1ed96e2"/>
    </defs>
    <g clip-path="url(#p1bffca34e9)">
     <use style="fill:#ff0000;stroke:#000000;stroke-width:2.0;" x="0.0" xlink:href="#C0_0_a811fe30f3" y="72.0"/>
    </g>
    <g clip-path="url(#p1bffca34e9)">
     <use style="fill:#ffffff;stroke:#000000;stroke-width:2.0;" x="0.0" xlink:href="#C0_1_61c26bc4aa" y="72.0"/>
    </g>
    <g clip-path="url(#p1bffca34e9)">
     <use style="fill:#ffffff;stroke:#000000;stroke-width:2.0;" x="0.0" xlink:href="#C0_2_7ff1ed96e2" y="72.0"/>
    </g>
   </g>
  </g>
 </g>
 <defs>
  <clipPath id="p1bffca34e9">
   <rect height="72.0" width="72.0" x="0.0" y="0.0"/>
  </clipPath>
 </defs>
</svg>
