<?xml version="1.0" encoding="utf-8" standalone="no"?>
<!DOCTYPE svg PUBLIC "-//W3C//DTD SVG 1.1//EN"
  "http://www.w3.org/Graphics/SVG/1.1/DTD/svg11.dtd">
<!-- Created with matplotlib (http://matplotlib.org/) -->
<svg height="72pt" version="1.1" viewBox="0 0 72 72" width="72pt" xmlns="http://www.w3.org/2000/svg" xmlns:xlink="http://www.w3.org/1999/xlink">
 <defs>
  <style type="text/css">
*{stroke-linecap:butt;stroke-linejoin:round;}
  </style>
 </defs>
 <g id="figure_1">
  <g id="patch_1">
   <path d="
M0 72
L72 72
L72 0
L0 0
z
" style="fill:none;"/>
  </g>
  <g id="axes_1">
   <g id="PatchCollection_1">
    <defs>
     <path d="
M36 -7.5
C43.5583 -7.5 50.808 -10.5029 56.1525 -15.8475
C61.4971 -21.192 64.5 -28.4417 64.5 -36
C64.5 -43.5583 61.4971 -50.808 56.1525 -56.1525
C50.808 -61.4971 43.5583 -64.5 36 -64.5
C28.4417 -64.5 21.192 -61.4971 15.8475 -56.1525
C10.5029 -50.808 7.5 -43.5583 7.5 -36
C7.5 -28.4417 10.5029 -21.192 15.8475 -15.8475
C21.192 -10.5029 28.4417 -7.5 36 -7.5
z
" id="C0_0_a811fe30f3"/>
     <path d="
M20.8036 -11.8895
L20.9065 -12.0551
L21.0082 -12.2231
L21.1087 -12.3934
L21.2079 -12.5661
L21.3059 -12.7411
L21.4028 -12.9183
L21.4985 -13.0979
L21.5932 -13.2797
L21.6868 -13.4637
L21.7793 -13.65
L21.8709 -13.8384
L21.9614 -14.0291
L22.0509 -14.222
L22.1395 -14.417
L22.2272 -14.6143
L22.3139 -14.8137
L22.3997 -15.0153
L22.4846 -15.219
L22.5686 -15.4249
L22.6517 -15.6329
L22.7339 -15.8431
L22.8152 -16.0554
L22.8957 -16.2699
L22.9753 -16.4865
L23.0541 -16.7052
L23.132 -16.9261
L23.209 -17.149
L23.2852 -17.3742
L23.3604 -17.6014
L23.4348 -17.8308
L23.5084 -18.0623
L23.581 -18.2959
L23.6527 -18.5316
L23.7235 -18.7694
L23.7934 -19.0093
L23.8623 -19.2513
L23.9302 -19.4954
L23.9972 -19.7416
L24.0632 -19.9899
L24.1282 -20.2403
L24.1921 -20.4927
L24.255 -20.7471
L24.3167 -21.0036
L24.3774 -21.2622
L24.4369 -21.5227
L24.4952 -21.7853
L24.5523 -22.0498
L24.6082 -22.3163
L24.6628 -22.5847
L24.7161 -22.8551
L24.7681 -23.1274
L24.8187 -23.4015
L24.8678 -23.6775
L24.9155 -23.9554
L24.9617 -24.235
L25.0063 -24.5164
L25.0494 -24.7996
L25.0908 -25.0844
L25.1305 -25.3709
L25.1684 -25.6591
L25.2046 -25.9488
L25.239 -26.2401
L25.2715 -26.5329
L25.3021 -26.8271
L25.3307 -27.1228
L25.3573 -27.4198
L25.3818 -27.7181
L25.4042 -28.0177
L25.4245 -28.3185
L25.4425 -28.6204
L25.4582 -28.9234
L25.4717 -29.2275
L25.4828 -29.5325
L25.4916 -29.8384
L25.4978 -30.1452
L25.5017 -30.4527
L25.503 -30.761
L25.5018 -31.0699
L25.498 -31.3793
L25.4916 -31.6893
L25.4826 -31.9996
L25.4709 -32.3104
L25.4565 -32.6214
L25.4395 -32.9326
L25.4197 -33.244
L25.3972 -33.5554
L25.372 -33.8669
L25.344 -34.1782
L25.3133 -34.4894
L25.2799 -34.8003
L25.2438 -35.111
L25.2049 -35.4212
L25.1634 -35.7311
L25.1191 -36.0403
L25.0722 -36.349
L25.0227 -36.6571
L24.9705 -36.9644
L24.9157 -37.2709
L24.8585 -37.5765
L24.7986 -37.8812
L24.7364 -38.1849
L24.6717 -38.4875
L24.6046 -38.7891
L24.5352 -39.0894
L24.4634 -39.3885
L24.3895 -39.6862
L24.3134 -39.9827
L24.2351 -40.2777
L24.1547 -40.5712
L24.0724 -40.8633
L23.9881 -41.1538
L23.9018 -41.4426
L23.8138 -41.7299
L23.7239 -42.0154
L23.6323 -42.2992
L23.5391 -42.5812
L23.4442 -42.8614
L23.3478 -43.1398
L23.2499 -43.4162
L23.1505 -43.6908
L23.0498 -43.9634
L22.9477 -44.2341
L22.8444 -44.5027
L22.7398 -44.7693
L22.6341 -45.0339
L22.5272 -45.2964
L22.4193 -45.5569
L22.3104 -45.8152
L22.2005 -46.0714
L22.0896 -46.3254
L21.9778 -46.5773
L21.8652 -46.8271
L21.7518 -47.0746
L21.6376 -47.32
L21.5227 -47.5631
L21.4071 -47.8041
L21.2908 -48.0428
L21.1739 -48.2793
L21.0563 -48.5136
L20.9382 -48.7456
L20.8195 -48.9754
L20.7002 -49.203
L20.5805 -49.4283
L20.4602 -49.6513
L20.3395 -49.8721
L20.2183 -50.0906
L20.0967 -50.3069
L19.9747 -50.521
L19.8522 -50.7327
L19.7294 -50.9422
L19.6061 -51.1495
L19.4824 -51.3545
L19.3584 -51.5572
L19.234 -51.7576
L19.1092 -51.9558
L18.9841 -52.1517
L18.8585 -52.3454
L18.7326 -52.5367
L18.6064 -52.7258
L18.4797 -52.9126
L18.3527 -53.0971
L18.2253 -53.2794
L18.0974 -53.4593
L17.9692 -53.6369
L17.8406 -53.8122
L17.7115 -53.9852
L17.582 -54.1558
L17.452 -54.3241
L17.3216 -54.4901
L17.1906 -54.6537
L17.0592 -54.8149
L16.9272 -54.9737
L16.7947 -55.13
L16.6617 -55.284
L16.528 -55.4354
L16.3937 -55.5844
L16.2588 -55.7309
L16.1232 -55.8748
L15.9869 -56.0162
L15.5012 -55.8002
L15.1587 -55.4394
L14.8226 -55.0727
L14.493 -54.7002
L14.1699 -54.322
L13.8535 -53.9383
L13.5438 -53.549
L13.2409 -53.1544
L12.945 -52.7546
L12.6561 -52.3497
L12.3743 -51.9398
L12.0997 -51.5251
L11.8324 -51.1056
L11.5725 -50.6815
L11.32 -50.2529
L11.075 -49.82
L10.8376 -49.3829
L10.6079 -48.9417
L10.3859 -48.4966
L10.1717 -48.0477
L9.96533 -47.5951
L9.76693 -47.139
L9.57653 -46.6794
L9.39417 -46.2166
L9.21992 -45.7508
L9.05382 -45.2819
L8.89594 -44.8102
L8.7463 -44.3358
L8.60498 -43.8589
L8.47199 -43.3796
L8.34739 -42.8981
L8.23121 -42.4144
L8.1235 -41.9288
L8.02427 -41.4414
L7.93357 -40.9523
L7.85141 -40.4617
L7.77783 -39.9698
L7.71285 -39.4766
L7.65648 -38.9824
L7.60875 -38.4873
L7.56966 -37.9914
L7.53924 -37.495
L7.51748 -36.998
L7.5044 -36.5008
L7.5 -36.0034
L7.50428 -35.506
L7.51724 -35.0087
L7.53888 -34.5118
L7.56919 -34.0153
L7.60816 -33.5194
L7.65577 -33.0243
L7.71202 -32.5301
L7.77689 -32.0369
L7.85035 -31.545
L7.93239 -31.0544
L8.02298 -30.5653
L8.12209 -30.0778
L8.22969 -29.5922
L8.34575 -29.1085
L8.47024 -28.6269
L8.60311 -28.1476
L8.74432 -27.6706
L8.89384 -27.1962
L9.05162 -26.7245
L9.2176 -26.2556
L9.39174 -25.7897
L9.57399 -25.3269
L9.76429 -24.8673
L9.96258 -24.4111
L10.1688 -23.9584
L10.3829 -23.5095
L10.6048 -23.0643
L10.8344 -22.623
L11.0717 -22.1859
L11.3166 -21.7529
L11.569 -21.3243
L11.8288 -20.9002
L12.096 -20.4806
L12.3705 -20.0658
L12.6522 -19.6558
L12.941 -19.2509
L13.2369 -18.851
L13.5396 -18.4563
L13.8492 -18.067
L14.1656 -17.6831
L14.4886 -17.3049
L14.8181 -16.9323
L15.1541 -16.5655
L15.4965 -16.2047
L15.8451 -15.8499
L16.1998 -15.5012
L16.5606 -15.1587
L16.9273 -14.8226
L17.2998 -14.493
L17.678 -14.1699
L18.0617 -13.8535
L18.451 -13.5438
L18.8456 -13.2409
L19.2454 -12.945
L19.6503 -12.6561
L20.0602 -12.3743
z
" id="C0_1_450c4aa3d6"/>
     <path d="
M56.0131 -15.9838
L55.8768 -16.1252
L55.7412 -16.2691
L55.6063 -16.4156
L55.472 -16.5646
L55.3383 -16.716
L55.2053 -16.87
L55.0728 -17.0263
L54.9408 -17.1851
L54.8094 -17.3463
L54.6784 -17.5099
L54.548 -17.6759
L54.418 -17.8442
L54.2885 -18.0148
L54.1594 -18.1878
L54.0308 -18.3631
L53.9026 -18.5407
L53.7747 -18.7206
L53.6473 -18.9029
L53.5203 -19.0874
L53.3936 -19.2742
L53.2674 -19.4633
L53.1415 -19.6546
L53.0159 -19.8483
L52.8908 -20.0442
L52.766 -20.2424
L52.6416 -20.4428
L52.5176 -20.6455
L52.3939 -20.8505
L52.2706 -21.0578
L52.1478 -21.2673
L52.0253 -21.479
L51.9033 -21.6931
L51.7817 -21.9094
L51.6605 -22.1279
L51.5398 -22.3487
L51.4195 -22.5717
L51.2998 -22.797
L51.1805 -23.0246
L51.0618 -23.2544
L50.9437 -23.4864
L50.8261 -23.7207
L50.7092 -23.9572
L50.5929 -24.1959
L50.4773 -24.4369
L50.3624 -24.68
L50.2482 -24.9254
L50.1348 -25.1729
L50.0222 -25.4227
L49.9104 -25.6746
L49.7995 -25.9286
L49.6896 -26.1848
L49.5807 -26.4431
L49.4728 -26.7036
L49.3659 -26.9661
L49.2602 -27.2307
L49.1556 -27.4973
L49.0523 -27.7659
L48.9502 -28.0366
L48.8495 -28.3092
L48.7501 -28.5838
L48.6522 -28.8602
L48.5558 -29.1386
L48.4609 -29.4188
L48.3677 -29.7008
L48.2761 -29.9846
L48.1862 -30.2701
L48.0982 -30.5574
L48.0119 -30.8462
L47.9276 -31.1367
L47.8453 -31.4288
L47.7649 -31.7223
L47.6866 -32.0173
L47.6105 -32.3138
L47.5366 -32.6115
L47.4648 -32.9106
L47.3954 -33.2109
L47.3283 -33.5125
L47.2636 -33.8151
L47.2014 -34.1188
L47.1415 -34.4235
L47.0843 -34.7291
L47.0295 -35.0356
L46.9773 -35.3429
L46.9278 -35.651
L46.8809 -35.9597
L46.8366 -36.2689
L46.7951 -36.5788
L46.7562 -36.889
L46.7201 -37.1997
L46.6867 -37.5106
L46.656 -37.8218
L46.628 -38.1331
L46.6028 -38.4446
L46.5803 -38.756
L46.5605 -39.0674
L46.5435 -39.3786
L46.5291 -39.6896
L46.5174 -40.0004
L46.5084 -40.3107
L46.502 -40.6207
L46.4982 -40.9301
L46.497 -41.239
L46.4983 -41.5473
L46.5022 -41.8548
L46.5084 -42.1616
L46.5172 -42.4675
L46.5283 -42.7725
L46.5418 -43.0766
L46.5575 -43.3796
L46.5755 -43.6815
L46.5958 -43.9823
L46.6182 -44.2819
L46.6427 -44.5802
L46.6693 -44.8772
L46.6979 -45.1729
L46.7285 -45.4671
L46.761 -45.7599
L46.7954 -46.0512
L46.8316 -46.3409
L46.8695 -46.6291
L46.9092 -46.9156
L46.9506 -47.2004
L46.9937 -47.4836
L47.0383 -47.765
L47.0845 -48.0446
L47.1322 -48.3225
L47.1813 -48.5985
L47.2319 -48.8726
L47.2839 -49.1449
L47.3372 -49.4153
L47.3918 -49.6837
L47.4477 -49.9502
L47.5048 -50.2147
L47.5631 -50.4773
L47.6226 -50.7378
L47.6833 -50.9964
L47.745 -51.2529
L47.8079 -51.5073
L47.8718 -51.7597
L47.9368 -52.0101
L48.0028 -52.2584
L48.0698 -52.5046
L48.1377 -52.7487
L48.2066 -52.9907
L48.2765 -53.2306
L48.3473 -53.4684
L48.419 -53.7041
L48.4916 -53.9377
L48.5652 -54.1692
L48.6396 -54.3986
L48.7148 -54.6258
L48.791 -54.851
L48.868 -55.0739
L48.9459 -55.2948
L49.0247 -55.5135
L49.1043 -55.7301
L49.1848 -55.9446
L49.2661 -56.1569
L49.3483 -56.3671
L49.4314 -56.5751
L49.5154 -56.781
L49.6003 -56.9847
L49.6861 -57.1863
L49.7728 -57.3857
L49.8605 -57.583
L49.9491 -57.778
L50.0386 -57.9709
L50.1291 -58.1616
L50.2207 -58.35
L50.3132 -58.5363
L50.4068 -58.7203
L50.5015 -58.9021
L50.5972 -59.0817
L50.6941 -59.2589
L50.7921 -59.4339
L50.8913 -59.6066
L50.9918 -59.7769
L51.6159 -59.9449
L52.0296 -59.841
L52.4384 -59.5648
L52.8422 -59.2815
L53.2409 -58.9911
L53.6344 -58.6936
L54.0224 -58.3893
L54.405 -58.0781
L54.782 -57.7602
L55.1532 -57.4357
L55.5186 -57.1046
L55.8781 -56.7671
L56.2315 -56.4233
L56.5787 -56.0733
L56.9197 -55.7171
L57.2543 -55.355
L57.5824 -54.9869
L57.904 -54.6131
L58.2189 -54.2336
L58.527 -53.8486
L58.8283 -53.4581
L59.1226 -53.0623
L59.4098 -52.6613
L59.6899 -52.2552
L59.9629 -51.8441
L60.2285 -51.4283
L60.4867 -51.0077
L60.7375 -50.5826
L60.9807 -50.153
L61.2163 -49.7191
L61.4443 -49.2811
L61.6645 -48.839
L61.8768 -48.3929
L62.0813 -47.9431
L62.2779 -47.4897
L62.4664 -47.0328
L62.6469 -46.5725
L62.8193 -46.109
L62.9835 -45.6424
L63.1395 -45.1729
L63.2872 -44.7005
L63.4266 -44.2256
L63.5576 -43.7481
L63.6803 -43.2682
L63.7945 -42.7862
L63.9002 -42.3021
L63.9975 -41.816
L64.0862 -41.3282
L64.1664 -40.8388
L64.238 -40.3479
L64.301 -39.8556
L64.3553 -39.3622
L64.4011 -38.8678
L64.4382 -38.3725
L64.4666 -37.8765
L64.4863 -37.3799
L64.4974 -36.8828
L64.4998 -36.3855
L64.4935 -35.8881
L64.4785 -35.3908
L64.4549 -34.8936
L64.4226 -34.3967
L64.3816 -33.9004
L64.332 -33.4046
L64.2737 -32.9097
L64.2069 -32.4157
L64.1314 -31.9228
L64.0474 -31.4312
L63.9548 -30.9409
L63.8537 -30.4522
L63.7442 -29.9651
L63.6262 -29.4799
L63.4997 -28.9967
L63.3649 -28.5157
L63.2218 -28.0369
L63.0703 -27.5605
L62.9107 -27.0867
L62.7428 -26.6156
L62.5667 -26.1474
L62.3826 -25.6822
L62.1905 -25.2201
L61.9903 -24.7613
L61.7823 -24.3059
L61.5664 -23.8541
L61.3427 -23.406
L61.1113 -22.9617
L60.8722 -22.5214
L60.6256 -22.0852
L60.3715 -21.6532
L60.1099 -21.2256
L59.841 -20.8026
L59.5648 -20.3841
L59.2815 -19.9704
L58.9911 -19.5616
L58.6936 -19.1578
L58.3893 -18.7591
L58.0781 -18.3656
L57.7602 -17.9776
L57.4357 -17.595
L57.1046 -17.218
L56.7671 -16.8468
z
" id="C0_2_d8f4269c01"/>
    </defs>
    <g clip-path="url(#p1bffca34e9)">
     <use style="fill:#ffffff;stroke:#000000;stroke-width:2.0;" x="0.0" xlink:href="#C0_0_a811fe30f3" y="72.0"/>
    </g>
    <g clip-path="url(#p1bffca34e9)">
     <use style="fill:#ff0000;stroke:#000000;stroke-width:2.0;" x="0.0" xlink:href="#C0_1_450c4aa3d6" y="72.0"/>
    </g>
    <g clip-path="url(#p1bffca34e9)">
     <use style="fill:#ff0000;stroke:#000000;stroke-width:2.0;" x="0.0" xlink:href="#C0_2_d8f4269c01" y="72.0"/>
    </g>
   </g>
  </g>
 </g>
 <defs>
  <clipPath id="p1bffca34e9">
   <rect height="72.0" width="72.0" x="0.0" y="0.0"/>
  </clipPath>
 </defs>
</svg>
