<?xml version="1.0" encoding="utf-8" standalone="no"?>
<!DOCTYPE svg PUBLIC "-//W3C//DTD SVG 1.1//EN"
  "http://www.w3.org/Graphics/SVG/1.1/DTD/svg11.dtd">
<!-- Created with matplotlib (http://matplotlib.org/) -->
<svg height="72pt" version="1.1" viewBox="0 0 72 72" width="72pt" xmlns="http://www.w3.org/2000/svg" xmlns:xlink="http://www.w3.org/1999/xlink">
 <defs>
  <style type="text/css">
*{stroke-linecap:butt;stroke-linejoin:round;}
  </style>
 </defs>
 <g id="figure_1">
  <g id="patch_1">
   <path d="
M0 72
L72 72
L72 0
L0 0
z
" style="fill:none;"/>
  </g>
  <g id="axes_1">
   <g id="PatchCollection_1">
    <defs>
     <path d="
M36 -7.5
C43.5583 -7.5 50.808 -10.5029 56.1525 -15.8475
C61.4971 -21.192 64.5 -28.4417 64.5 -36
C64.5 -43.5583 61.4971 -50.808 56.1525 -56.1525
C50.808 -61.4971 43.5583 -64.5 36 -64.5
C28.4417 -64.5 21.192 -61.4971 15.8475 -56.1525
C10.5029 -50.808 7.5 -43.5583 7.5 -36
C7.5 -28.4417 10.5029 -21.192 15.8475 -15.8475
C21.192 -10.5029 28.4417 -7.5 36 -7.5
z
" id="C0_0_a811fe30f3"/>
     <path d="
M41.797 -8.18761
L41.5396 -8.36602
L41.2917 -8.55212
L41.0528 -8.74531
L40.8227 -8.94502
L40.601 -9.15072
L40.3872 -9.36192
L40.181 -9.57814
L39.982 -9.79894
L39.79 -10.0239
L39.6045 -10.2527
L39.4253 -10.4848
L39.2522 -10.7201
L39.0848 -10.9582
L38.9228 -11.1987
L38.7661 -11.4415
L38.6144 -11.6862
L38.4675 -11.9326
L38.3251 -12.1806
L38.1871 -12.4299
L38.0533 -12.6803
L37.9235 -12.9317
L37.7976 -13.1839
L37.6753 -13.4368
L37.5565 -13.6902
L37.4412 -13.944
L37.3291 -14.1982
L37.2201 -14.4525
L37.1141 -14.7069
L37.0111 -14.9614
L36.9107 -15.2158
L36.8131 -15.4702
L36.718 -15.7243
L36.6254 -15.9783
L36.5352 -16.232
L36.4472 -16.4854
L36.3615 -16.7384
L36.2779 -16.9911
L36.1964 -17.2434
L36.1169 -17.4953
L36.0393 -17.7468
L35.9635 -17.9978
L35.8895 -18.2484
L35.8172 -18.4986
L35.7467 -18.7483
L35.6777 -18.9976
L35.6103 -19.2465
L35.5444 -19.4949
L35.48 -19.743
L35.417 -19.9906
L35.3554 -20.2379
L35.2951 -20.4848
L35.2361 -20.7314
L35.1784 -20.9777
L35.1219 -21.2237
L35.0666 -21.4694
L35.0125 -21.7149
L34.9595 -21.9601
L34.9075 -22.2052
L34.8567 -22.4502
L34.8069 -22.695
L34.7581 -22.9398
L34.7102 -23.1845
L34.6634 -23.4292
L34.6175 -23.6739
L34.5725 -23.9187
L34.5284 -24.1636
L34.4852 -24.4087
L34.4429 -24.6539
L34.4014 -24.8994
L34.3607 -25.1451
L34.3209 -25.3911
L34.2819 -25.6375
L34.2062 -25.8843
L34.1695 -26.1315
L34.1336 -26.3792
L34.0984 -26.6274
L34.064 -26.8762
L34.0303 -27.1256
L33.9974 -27.3756
L33.9652 -27.6264
L33.9337 -27.8779
L33.9029 -28.1303
L33.8729 -28.3835
L33.8435 -28.6375
L33.8149 -28.8926
L33.787 -29.1486
L33.7599 -29.4056
L33.7334 -29.6637
L33.7078 -29.923
L33.6828 -30.1835
L33.6586 -30.4452
L33.6351 -30.7081
L33.6124 -30.9724
L33.5905 -31.2381
L33.5693 -31.5051
L33.549 -31.7737
L33.5295 -32.0437
L33.5108 -32.3154
L33.4929 -32.5886
L33.4759 -32.8634
L33.4598 -33.14
L33.4446 -33.4183
L33.4303 -33.6983
L33.417 -33.9802
L33.4047 -34.2639
L33.3934 -34.5495
L33.3832 -34.8371
L33.374 -35.1266
L33.366 -35.418
L33.3591 -35.7115
L33.3535 -36.007
L33.3491 -36.3046
L33.346 -36.6042
L33.3442 -36.906
L33.3439 -37.2098
L33.345 -37.5158
L33.3476 -37.8239
L33.3519 -38.1341
L33.3578 -38.4464
L33.3654 -38.7608
L33.3749 -39.0772
L33.3862 -39.3957
L33.3996 -39.7162
L33.415 -40.0387
L33.4327 -40.3631
L33.4526 -40.6894
L33.4749 -41.0175
L33.4998 -41.3473
L33.5274 -41.6787
L33.5577 -42.0116
L33.591 -42.346
L33.6274 -42.6816
L33.6671 -43.0184
L33.7102 -43.3561
L33.757 -43.6947
L33.8075 -44.0339
L33.8622 -44.3735
L33.9211 -44.7133
L33.9845 -45.053
L34.0527 -45.3924
L34.1259 -45.7312
L34.2044 -46.0691
L34.2885 -46.4058
L34.3785 -46.7408
L34.4748 -47.0739
L34.5777 -47.4046
L34.6875 -47.7324
L34.8047 -48.057
L34.9295 -48.3778
L35.0625 -48.6943
L35.2039 -49.0061
L35.3541 -49.3125
L35.5137 -49.6131
L35.6828 -49.9071
L35.8619 -50.1941
L36.0513 -50.4734
L36.2512 -50.7445
L36.462 -51.0068
L36.6839 -51.2597
L36.9169 -51.5026
L37.1611 -51.7351
L37.4166 -51.9566
L37.6832 -52.1667
L37.9609 -52.3651
L38.2492 -52.5514
L38.5481 -52.7253
L38.857 -52.8866
L39.1755 -53.0352
L39.5031 -53.1709
L39.8392 -53.2938
L40.1832 -53.4038
L40.5345 -53.5011
L40.8924 -53.5857
L41.2563 -53.6578
L41.6254 -53.7176
L41.9991 -53.7654
L42.3767 -53.8014
L42.7576 -53.8258
L43.1412 -53.839
L43.5267 -53.8413
L43.9137 -53.833
L44.3016 -53.8143
L44.6899 -53.7856
L45.0781 -53.7473
L45.4657 -53.6997
L45.8523 -53.643
L46.2375 -53.5776
L46.6209 -53.5039
L47.0023 -53.422
L47.3812 -53.3324
L47.7573 -53.2353
L48.1306 -53.1309
L48.5006 -53.0197
L48.8672 -52.9018
L49.2302 -52.7775
L49.5894 -52.6471
L49.9447 -52.5108
L50.2959 -52.3688
L50.6429 -52.2214
L50.9857 -52.0688
L51.3241 -51.9112
L51.6581 -51.7488
L51.9875 -51.5819
L52.3125 -51.4105
L52.6328 -51.2348
L52.9485 -51.0551
L53.2596 -50.8716
L53.5661 -50.6842
L53.8679 -50.4933
L54.165 -50.2988
L54.4576 -50.1011
L54.7455 -49.9001
L55.0288 -49.6961
L55.3076 -49.489
L55.5817 -49.2791
L55.8514 -49.0663
L56.1166 -48.8509
L56.3773 -48.6329
L56.6337 -48.4123
L56.8856 -48.1893
L57.1332 -47.9638
L57.3765 -47.7361
L57.6156 -47.506
L57.8505 -47.2737
L58.0812 -47.0393
L58.3077 -46.8027
L58.5302 -46.564
L58.7487 -46.3232
L58.9631 -46.0804
L59.1736 -45.8355
L59.3802 -45.5887
L59.5829 -45.3399
L59.7817 -45.0891
L59.9768 -44.8364
L60.168 -44.5817
L60.3555 -44.325
L60.5393 -44.0664
L60.7195 -43.8059
L60.8959 -43.5434
L61.0688 -43.2789
L61.238 -43.0124
L61.4036 -42.744
L61.5656 -42.4735
L61.7241 -42.201
L61.879 -41.9265
L62.0304 -41.6499
L62.1782 -41.3712
L62.3225 -41.0903
L62.4633 -40.8073
L62.6005 -40.5221
L62.7342 -40.2346
L62.8643 -39.9449
L62.9909 -39.6529
L63.1139 -39.3585
L63.2333 -39.0618
L63.3491 -38.7626
L63.4612 -38.461
L63.5696 -38.1568
L63.6743 -37.8501
L63.7753 -37.5407
L63.8724 -37.2287
L63.9657 -36.914
L64.0551 -36.5965
L64.1406 -36.2762
L64.222 -35.953
L64.2993 -35.6269
L64.3725 -35.2979
L64.4415 -34.9657
L64.4388 -34.6306
L64.4018 -34.1327
L64.3563 -33.6367
L64.3021 -33.1414
L64.2392 -32.6469
L64.1678 -32.1535
L64.0878 -31.6612
L63.9992 -31.1703
L63.9021 -30.6808
L63.7965 -30.193
L63.6825 -29.7069
L63.56 -29.2227
L63.4291 -28.7407
L63.2898 -28.2608
L63.1423 -27.7832
L62.9864 -27.3082
L62.8224 -26.8359
L62.6502 -26.3663
L62.4699 -25.8996
L62.2815 -25.4361
L62.085 -24.9757
L61.8807 -24.5187
L61.6685 -24.0652
L61.4484 -23.6153
L61.2206 -23.1693
L60.9851 -22.7271
L60.742 -22.2889
L60.4914 -21.855
L60.2333 -21.4253
L59.9678 -21.0001
L59.6951 -20.5795
L59.4151 -20.1635
L59.1279 -19.7524
L58.8338 -19.3462
L58.5326 -18.9451
L58.2246 -18.5492
L57.9099 -18.1586
L57.5884 -17.7735
L57.2604 -17.3938
L56.926 -17.0199
L56.5851 -16.6518
L56.238 -16.2895
L55.8847 -15.9332
L55.5253 -15.5831
L55.16 -15.2392
L54.7889 -14.9016
L54.412 -14.5704
L54.0295 -14.2457
L53.6416 -13.9277
L53.2483 -13.6164
L52.8497 -13.3119
L52.4459 -13.0144
L52.0372 -12.7238
L51.6236 -12.4403
L51.2052 -12.164
L50.7822 -11.895
L50.3547 -11.6333
L49.9228 -11.379
L49.4867 -11.1323
L49.0465 -10.8931
L48.6023 -10.6615
L48.1542 -10.4377
L47.7025 -10.2216
L47.2472 -10.0134
L46.7884 -9.81315
L46.3264 -9.62085
L45.8612 -9.43658
L45.3931 -9.26041
L44.922 -9.09238
L44.4483 -8.93254
L43.972 -8.78095
L43.4932 -8.63766
L43.0122 -8.50269
L42.529 -8.37611
z
" id="C0_1_38c6d57040"/>
     <path d="
M7.60822 -37.7009
L7.71311 -38.0292
L7.82214 -38.3569
L7.93532 -38.6839
L8.05268 -39.0103
L8.17427 -39.3361
L8.30009 -39.6614
L8.4302 -39.9861
L8.56462 -40.3103
L8.70339 -40.6341
L8.84656 -40.9573
L8.99416 -41.2801
L9.14624 -41.6024
L9.30285 -41.9242
L9.46402 -42.2457
L9.6298 -42.5666
L9.80025 -42.8872
L9.97541 -43.2073
L10.1553 -43.527
L10.3401 -43.8462
L10.5297 -44.1649
L10.7242 -44.4832
L10.9236 -44.801
L11.1281 -45.1182
L11.3376 -45.4349
L11.5521 -45.7511
L11.7719 -46.0666
L11.9968 -46.3815
L12.2269 -46.6957
L12.4622 -47.0092
L12.7028 -47.322
L12.9487 -47.6339
L13.1999 -47.945
L13.4564 -48.2551
L13.7182 -48.5643
L13.9853 -48.8724
L14.2577 -49.1794
L14.5354 -49.4852
L14.8183 -49.7898
L15.1064 -50.0931
L15.3996 -50.395
L15.6978 -50.6954
L16.0011 -50.9943
L16.3091 -51.2916
L16.622 -51.5873
L16.9394 -51.8812
L17.2612 -52.1734
L17.5873 -52.4637
L17.9174 -52.7521
L18.2513 -53.0385
L18.5888 -53.323
L18.9295 -53.6054
L19.2732 -53.8859
L19.6195 -54.1643
L19.968 -54.4406
L20.3184 -54.715
L20.6702 -54.9875
L21.0229 -55.258
L21.3762 -55.5267
L21.7293 -55.7938
L22.0819 -56.0592
L22.4333 -56.3232
L22.783 -56.5858
L23.1304 -56.8474
L23.4748 -57.108
L23.8156 -57.3678
L24.1522 -57.6272
L24.4841 -57.8863
L24.8107 -58.1453
L25.1313 -58.4044
L25.4456 -58.6639
L25.753 -58.924
L26.0532 -59.1847
L26.3459 -59.4464
L26.6307 -59.7089
L26.9075 -59.9726
L27.1761 -60.2372
L27.4366 -60.503
L27.689 -60.7697
L27.9334 -61.0373
L28.1699 -61.3058
L28.3987 -61.5749
L28.6202 -61.8444
L28.8346 -62.1141
L29.0423 -62.3839
L29.2435 -62.6533
L29.4387 -62.9223
L29.6282 -63.1906
L29.8124 -63.4578
L29.4784 -63.7237
L28.9952 -63.7438
L28.5141 -63.6258
L28.0353 -63.4993
L27.5589 -63.3645
L27.0851 -63.2213
L26.6141 -63.0698
L26.1459 -62.9101
L25.6806 -62.7422
L25.2186 -62.5662
L24.7598 -62.382
L24.3044 -62.1898
L23.8526 -61.9897
L23.4045 -61.7816
L22.9602 -61.5657
L22.52 -61.342
L22.0838 -61.1105
L21.6518 -60.8714
L21.2242 -60.6248
L20.8012 -60.3706
L20.3827 -60.109
L19.969 -59.8401
L19.5602 -59.5639
L19.1564 -59.2805
L18.7578 -58.9901
L18.3643 -58.6926
L17.9763 -58.3883
L17.5938 -58.0771
L17.2168 -57.7591
L16.8456 -57.4346
L16.4802 -57.1035
L16.1207 -56.766
L15.7674 -56.4222
L15.4201 -56.0721
L15.0792 -55.716
L14.7446 -55.3538
L14.4165 -54.9857
L14.095 -54.6119
L13.7801 -54.2324
L13.472 -53.8473
L13.1708 -53.4568
L12.8765 -53.0609
L12.5893 -52.6599
L12.3091 -52.2538
L12.0363 -51.8428
L11.7707 -51.4269
L11.5125 -51.0063
L11.2617 -50.5812
L11.0185 -50.1516
L10.7829 -49.7177
L10.555 -49.2796
L10.3348 -48.8375
L10.1225 -48.3915
L9.918 -47.9417
L9.72147 -47.4882
L9.53295 -47.0313
L9.35249 -46.571
L9.18015 -46.1074
L9.01598 -45.6408
L8.86003 -45.1713
L8.71235 -44.699
L8.57297 -44.224
L8.44196 -43.7465
L8.31933 -43.2667
L8.20514 -42.7846
L8.09942 -42.3005
L8.00219 -41.8144
L7.91349 -41.3266
L7.83335 -40.8372
L7.76179 -40.3462
L7.69883 -39.854
L7.64449 -39.3606
L7.59878 -38.8662
z
" id="C0_2_a21d9492da"/>
    </defs>
    <g clip-path="url(#p1bffca34e9)">
     <use style="fill:#ffffff;stroke:#000000;stroke-width:2.0;" x="0.0" xlink:href="#C0_0_a811fe30f3" y="72.0"/>
    </g>
    <g clip-path="url(#p1bffca34e9)">
     <use style="fill:#ff0000;stroke:#000000;stroke-width:2.0;" x="0.0" xlink:href="#C0_1_38c6d57040" y="72.0"/>
    </g>
    <g clip-path="url(#p1bffca34e9)">
     <use style="fill:#ff0000;stroke:#000000;stroke-width:2.0;" x="0.0" xlink:href="#C0_2_a21d9492da" y="72.0"/>
    </g>
   </g>
  </g>
 </g>
 <defs>
  <clipPath id="p1bffca34e9">
   <rect height="72.0" width="72.0" x="0.0" y="0.0"/>
  </clipPath>
 </defs>
</svg>
