<?xml version="1.0" encoding="utf-8" standalone="no"?>
<!DOCTYPE svg PUBLIC "-//W3C//DTD SVG 1.1//EN"
  "http://www.w3.org/Graphics/SVG/1.1/DTD/svg11.dtd">
<!-- Created with matplotlib (http://matplotlib.org/) -->
<svg height="72pt" version="1.1" viewBox="0 0 72 72" width="72pt" xmlns="http://www.w3.org/2000/svg" xmlns:xlink="http://www.w3.org/1999/xlink">
 <defs>
  <style type="text/css">
*{stroke-linecap:butt;stroke-linejoin:round;}
  </style>
 </defs>
 <g id="figure_1">
  <g id="patch_1">
   <path d="
M0 72
L72 72
L72 0
L0 0
z
" style="fill:none;"/>
  </g>
  <g id="axes_1">
   <g id="PatchCollection_1">
    <defs>
     <path d="
M36 -7.5
C43.5583 -7.5 50.808 -10.5029 56.1525 -15.8475
C61.4971 -21.192 64.5 -28.4417 64.5 -36
C64.5 -43.5583 61.4971 -50.808 56.1525 -56.1525
C50.808 -61.4971 43.5583 -64.5 36 -64.5
C28.4417 -64.5 21.192 -61.4971 15.8475 -56.1525
C10.5029 -50.808 7.5 -43.5583 7.5 -36
C7.5 -28.4417 10.5029 -21.192 15.8475 -15.8475
C21.192 -10.5029 28.4417 -7.5 36 -7.5
z
" id="C0_0_a811fe30f3"/>
     <path d="
M60.0264 -51.069
L59.7317 -51.1411
L59.4418 -51.1945
L59.1571 -51.2291
L58.8778 -51.2453
L58.6043 -51.2431
L58.3369 -51.2229
L58.0756 -51.185
L57.8206 -51.13
L57.5719 -51.0582
L57.3295 -50.9703
L57.0932 -50.8669
L56.8629 -50.7487
L56.6384 -50.6164
L56.4195 -50.4707
L56.2059 -50.3125
L55.9974 -50.1425
L55.7936 -49.9614
L55.5942 -49.7701
L55.3989 -49.5693
L55.2074 -49.3597
L55.0195 -49.1421
L54.8348 -48.9171
L54.653 -48.6854
L54.4739 -48.4477
L54.2972 -48.2046
L54.1227 -47.9566
L53.9502 -47.7042
L53.7796 -47.4481
L53.6105 -47.1886
L53.4429 -46.9261
L53.2766 -46.6612
L53.1115 -46.3942
L52.9475 -46.1254
L52.7844 -45.8552
L52.6222 -45.5839
L52.4608 -45.3117
L52.3001 -45.0389
L52.14 -44.7658
L51.9806 -44.4926
L51.8217 -44.2195
L51.6633 -43.9466
L51.5053 -43.6741
L51.3478 -43.4022
L51.1908 -43.131
L51.0341 -42.8605
L50.8777 -42.5911
L50.7217 -42.3226
L50.5661 -42.0552
L50.4107 -41.7891
L50.2557 -41.5241
L50.1009 -41.2605
L49.9465 -40.9982
L49.7923 -40.7373
L49.6383 -40.4778
L49.4846 -40.2198
L49.3312 -39.9632
L49.1779 -39.7082
L49.0249 -39.4546
L48.8722 -39.2025
L48.7196 -38.952
L48.5672 -38.7029
L48.415 -38.4553
L48.2629 -38.2092
L48.111 -37.9646
L47.9593 -37.7215
L47.8077 -37.4798
L47.6562 -37.2395
L47.5049 -37.0006
L47.3536 -36.7631
L47.2024 -36.5269
L47.0512 -36.292
L46.9002 -36.0585
L46.7491 -35.8262
L46.598 -35.5951
L46.447 -35.3652
L46.2959 -35.1365
L46.1448 -34.9089
L45.9936 -34.6824
L45.8424 -34.457
L45.691 -34.2326
L45.5395 -34.0092
L45.3879 -33.7867
L45.2361 -33.5651
L45.0841 -33.3444
L44.9319 -33.1246
L44.7794 -32.9055
L44.6267 -32.6872
L44.4738 -32.4697
L44.3205 -32.2528
L44.1668 -32.0365
L44.0129 -31.8209
L43.8585 -31.6058
L43.7037 -31.3913
L43.5485 -31.1772
L43.2366 -30.9636
L43.0799 -30.7504
L42.9227 -30.5376
L42.7649 -30.3252
L42.6065 -30.113
L42.4474 -29.9011
L42.2877 -29.6894
L42.1273 -29.478
L41.9662 -29.2667
L41.8044 -29.0555
L41.6417 -28.8444
L41.4783 -28.6333
L41.314 -28.4223
L41.1489 -28.2112
L40.9828 -28.0001
L40.8159 -27.789
L40.648 -27.5776
L40.4791 -27.3662
L40.3092 -27.1546
L40.1383 -26.9427
L39.9663 -26.7306
L39.7932 -26.5183
L39.619 -26.3056
L39.4436 -26.0926
L39.2671 -25.8793
L39.0894 -25.6655
L38.9105 -25.4514
L38.7303 -25.2368
L38.5488 -25.0218
L38.3661 -24.8063
L38.182 -24.5902
L37.9967 -24.3737
L37.81 -24.1566
L37.6219 -23.9389
L37.4325 -23.7207
L37.2417 -23.5018
L37.0496 -23.2824
L36.856 -23.0623
L36.6611 -22.8416
L36.4648 -22.6202
L36.2672 -22.3982
L36.0682 -22.1755
L35.8678 -21.9521
L35.6662 -21.7281
L35.4632 -21.5034
L35.259 -21.278
L35.0536 -21.0519
L34.8471 -20.8251
L34.6394 -20.5977
L34.4307 -20.3696
L34.2211 -20.1409
L34.0106 -19.9115
L33.7993 -19.6814
L33.5873 -19.4507
L33.3748 -19.2194
L33.1618 -18.9875
L32.9486 -18.755
L32.7353 -18.5219
L32.5221 -18.2883
L32.3092 -18.0541
L32.0968 -17.8194
L31.8852 -17.5841
L31.6746 -17.3483
L31.4653 -17.112
L31.2577 -16.8753
L31.052 -16.638
L30.8487 -16.4002
L30.6481 -16.1619
L30.4508 -15.9231
L30.2571 -15.6838
L30.0676 -15.4439
L29.8828 -15.2034
L29.7033 -14.9624
L29.5297 -14.7207
L29.3627 -14.4783
L29.2029 -14.2351
L29.051 -13.9911
L28.9079 -13.7463
L28.7742 -13.5005
L28.6508 -13.2537
L28.5384 -13.0059
L28.438 -12.7568
L28.3503 -12.5066
L28.2762 -12.2551
L28.2165 -12.0023
L28.1719 -11.7482
L28.1431 -11.4927
L28.131 -11.236
L28.136 -10.978
L28.1589 -10.7189
L28.2 -10.4588
L28.2597 -10.1979
L28.3383 -9.93638
L28.4362 -9.67451
L28.5533 -9.41259
L28.6897 -9.15099
L28.8453 -8.89007
L29.0199 -8.63025
L29.5023 -8.37198
L29.9876 -8.25059
L30.4747 -8.14142
L30.9635 -8.04073
L31.4538 -7.94856
L31.9455 -7.86493
L32.4385 -7.78987
L32.9325 -7.72341
L33.4275 -7.66556
L33.9232 -7.61634
L34.4196 -7.57577
L34.9165 -7.54385
L35.4137 -7.5206
L35.9111 -7.50603
L36.4085 -7.50014
L36.9058 -7.50293
L37.4028 -7.5144
L37.8993 -7.53454
L38.3953 -7.56336
L38.8906 -7.60084
L39.385 -7.64697
L39.8784 -7.70174
L40.3705 -7.76512
L40.8614 -7.83711
L41.3507 -7.91768
L41.8385 -8.0068
L42.3244 -8.10444
L42.8085 -8.21059
L43.2904 -8.3252
L43.7702 -8.44823
L44.2475 -8.57967
L44.7224 -8.71945
L45.1946 -8.86754
L45.664 -9.0239
L46.1304 -9.18848
L46.5938 -9.36122
L47.0539 -9.54208
L47.5107 -9.731
L47.964 -9.92792
L48.4136 -10.1328
L48.8594 -10.3455
L49.3014 -10.5661
L49.7392 -10.7944
L50.1729 -11.0304
L50.6023 -11.2739
L51.0272 -11.5251
L51.4476 -11.7836
L51.8632 -12.0496
L52.274 -12.3228
L52.6799 -12.6033
L53.0806 -12.8909
L53.4762 -13.1855
L53.8664 -13.4871
L54.2512 -13.7955
L54.6305 -14.1107
L55.0041 -14.4325
L55.3718 -14.761
L55.7337 -15.0959
L56.0896 -15.4371
L56.4393 -15.7847
L56.7828 -16.1384
L57.12 -16.4981
L57.4508 -16.8638
L57.775 -17.2353
L58.0926 -17.6125
L58.4035 -17.9954
L58.7075 -18.3837
L59.0046 -18.7773
L59.2947 -19.1763
L59.5777 -19.5803
L59.8536 -19.9894
L60.1221 -20.4033
L60.3834 -20.822
L60.6371 -21.2453
L60.8834 -21.6731
L61.1221 -22.1052
L61.3532 -22.5416
L61.5765 -22.9821
L61.7921 -23.4266
L61.9998 -23.8749
L62.1995 -24.3268
L62.3913 -24.7824
L62.575 -25.2413
L62.7507 -25.7036
L62.9182 -26.1689
L63.0775 -26.6373
L63.2286 -27.1085
L63.3713 -27.5824
L63.5057 -28.0589
L63.6318 -28.5378
L63.7494 -29.019
L63.8586 -29.5023
L63.9593 -29.9876
L64.0514 -30.4747
L64.1351 -30.9635
L64.2101 -31.4538
L64.2766 -31.9455
L64.3344 -32.4385
L64.3837 -32.9325
L64.4242 -33.4275
L64.4561 -33.9232
L64.4794 -34.4196
L64.494 -34.9165
L64.4999 -35.4137
L64.4971 -35.9111
L64.4856 -36.4085
L64.4655 -36.9058
L64.4366 -37.4028
L64.3992 -37.8993
L64.353 -38.3953
L64.2983 -38.8906
L64.2349 -39.385
L64.1629 -39.8784
L64.0823 -40.3705
L63.9932 -40.8614
L63.8956 -41.3507
L63.7894 -41.8385
L63.6748 -42.3244
L63.5518 -42.8085
L63.4203 -43.2904
L63.2805 -43.7702
L63.1325 -44.2475
L62.9761 -44.7224
L62.8115 -45.1946
L62.6388 -45.664
L62.4579 -46.1304
L62.269 -46.5938
L62.0721 -47.0539
L61.8672 -47.5107
L61.6545 -47.964
L61.4339 -48.4136
L61.2056 -48.8594
L60.9696 -49.3014
L60.7261 -49.7392
L60.4749 -50.1729
z
" id="C0_1_ee43b4ab32"/>
     <path d="
M42.6925 -63.4976
L42.3932 -63.3615
L42.0848 -63.2268
L41.7682 -63.0931
L41.4442 -62.96
L41.1135 -62.8271
L40.7769 -62.6941
L40.4351 -62.5607
L40.0888 -62.4266
L39.7388 -62.2914
L39.3857 -62.155
L39.03 -62.0172
L38.6724 -61.8776
L38.3135 -61.7363
L37.9537 -61.593
L37.5935 -61.4477
L37.2333 -61.3002
L36.8736 -61.1505
L36.5148 -60.9985
L36.1571 -60.8442
L35.8009 -60.6876
L35.4465 -60.5286
L35.0941 -60.3674
L34.744 -60.2038
L34.3964 -60.038
L34.0515 -59.87
L33.7095 -59.6998
L33.3704 -59.5274
L33.0344 -59.3529
L32.7017 -59.1764
L32.3723 -58.9979
L32.0463 -58.8175
L31.7238 -58.6353
L31.4048 -58.4512
L31.0894 -58.2654
L30.7776 -58.0779
L30.4695 -57.8889
L30.165 -57.6982
L29.8642 -57.5061
L29.567 -57.3125
L29.2735 -57.1175
L28.9836 -56.9211
L28.6974 -56.7235
L28.4147 -56.5246
L28.1356 -56.3245
L27.8601 -56.1232
L27.588 -55.9208
L27.3194 -55.7172
L27.0543 -55.5127
L26.7925 -55.307
L26.5341 -55.1004
L26.2789 -54.8927
L26.027 -54.6841
L25.7783 -54.4745
L25.5328 -54.264
L25.2903 -54.0525
L25.0509 -53.8401
L24.8145 -53.6269
L24.581 -53.4127
L24.3504 -53.1976
L24.1226 -52.9816
L23.8976 -52.7647
L23.6754 -52.5469
L23.4558 -52.3281
L23.2389 -52.1085
L23.0245 -51.8879
L22.8127 -51.6664
L22.6034 -51.4439
L22.3965 -51.2205
L22.192 -50.9961
L21.9899 -50.7706
L21.7901 -50.5442
L21.5925 -50.3167
L21.3972 -50.0881
L21.2041 -49.8584
L21.0131 -49.6276
L20.8242 -49.3956
L20.6374 -49.1625
L20.4526 -48.9282
L20.2698 -48.6926
L20.089 -48.4557
L19.9101 -48.2176
L19.7332 -47.9781
L19.5581 -47.7372
L19.3849 -47.4949
L19.2135 -47.2511
L19.0439 -47.0058
L18.8761 -46.759
L18.7101 -46.5107
L18.5458 -46.2607
L18.3833 -46.009
L18.2225 -45.7557
L18.0633 -45.5005
L17.9059 -45.2436
L17.7501 -44.9849
L17.5961 -44.7242
L17.4436 -44.4616
L17.2929 -44.197
L17.1438 -43.9304
L16.9964 -43.6617
L16.8506 -43.3909
L16.7065 -43.1179
L16.564 -42.8426
L16.4233 -42.5651
L16.2842 -42.2852
L16.1468 -42.0029
L16.0111 -41.7183
L15.8772 -41.4311
L15.745 -41.1414
L15.6146 -40.8491
L15.4859 -40.5542
L15.3591 -40.2567
L15.2341 -39.9564
L15.111 -39.6533
L14.9898 -39.3475
L14.8705 -39.0388
L14.7532 -38.7273
L14.6379 -38.4128
L14.5246 -38.0954
L14.4135 -37.7751
L14.3044 -37.4517
L14.1976 -37.1253
L14.0929 -36.7959
L13.9906 -36.4634
L13.8906 -36.1279
L13.7929 -35.7893
L13.6977 -35.4476
L13.6049 -35.1029
L13.5147 -34.7552
L13.427 -34.4044
L13.342 -34.0507
L13.2596 -33.694
L13.18 -33.3344
L13.1031 -32.972
L13.0291 -32.6069
L12.9579 -32.239
L12.8895 -31.8686
L12.8241 -31.4957
L12.7616 -31.1205
L12.702 -30.7431
L12.6454 -30.3636
L12.5916 -29.9822
L12.5408 -29.5992
L12.4928 -29.2147
L12.4476 -28.8289
L12.4052 -28.4421
L12.3654 -28.0545
L12.3282 -27.6666
L12.2933 -27.2785
L12.2607 -26.8907
L12.2301 -26.5034
L12.2014 -26.1171
L12.1743 -25.7323
L12.1484 -25.3493
L12.1236 -24.9686
L12.0993 -24.5907
L12.0753 -24.2162
L12.0512 -23.8455
L12.0263 -23.4794
L12.0003 -23.1182
L11.9727 -22.7627
L11.9427 -22.4135
L11.91 -22.0712
L11.8738 -21.7364
L11.8336 -21.4097
L11.4746 -21.0919
L11.225 -21.4826
L10.9829 -21.9129
L10.7484 -22.3474
L10.5217 -22.7861
L10.3026 -23.2288
L10.0915 -23.6754
L9.88818 -24.1257
L9.69284 -24.5797
L9.50552 -25.0372
L9.32627 -25.498
L9.15515 -25.962
L8.9922 -26.429
L8.83748 -26.899
L8.69103 -27.3717
L8.5529 -27.8471
L8.42313 -28.3249
L8.30176 -28.8051
L8.18883 -29.2875
L8.08437 -29.7719
L7.98842 -30.2582
L7.901 -30.7463
L7.82213 -31.236
L7.75185 -31.7271
L7.69017 -32.2195
L7.63712 -32.7131
L7.59271 -33.2077
L7.55695 -33.7031
L7.52985 -34.1992
L7.51143 -34.6959
L7.50168 -35.193
L7.50062 -35.6903
L7.50823 -36.1877
L7.52453 -36.685
L7.5495 -37.1822
L7.58313 -37.679
L7.62543 -38.1753
L7.67636 -38.6709
L7.73592 -39.1657
L7.80409 -39.6595
L7.88085 -40.1522
L7.96618 -40.6437
L8.06005 -41.1337
L8.16242 -41.6222
L8.27328 -42.1089
L8.39258 -42.5938
L8.52029 -43.0767
L8.65637 -43.5575
L8.80078 -44.0359
L8.95348 -44.5119
L9.11441 -44.9853
L9.28354 -45.456
L9.4608 -45.9237
L9.64614 -46.3885
L9.83952 -46.8501
L10.0409 -47.3084
L10.2501 -47.7632
L10.4672 -48.2145
L10.6921 -48.662
L10.9247 -49.1057
L11.1649 -49.5454
L11.4127 -49.9809
L11.6679 -50.4122
L11.9306 -50.8392
L12.2006 -51.2615
L12.4779 -51.6793
L12.7623 -52.0923
L13.0538 -52.5003
L13.3523 -52.9034
L13.6577 -53.3013
L13.9699 -53.6939
L14.2889 -54.0811
L14.6144 -54.4628
L14.9464 -54.8389
L15.2849 -55.2093
L15.6296 -55.5738
L15.9806 -55.9323
L16.3377 -56.2848
L16.7007 -56.6311
L17.0697 -56.9711
L17.4444 -57.3048
L17.8247 -57.6319
L18.2106 -57.9524
L18.6019 -58.2663
L18.9985 -58.5734
L19.4003 -58.8736
L19.8072 -59.1668
L20.219 -59.453
L20.6355 -59.732
L21.0568 -60.0038
L21.4826 -60.2683
L21.9129 -60.5254
L22.3474 -60.775
L22.7861 -61.0171
L23.2288 -61.2516
L23.6754 -61.4783
L24.1257 -61.6974
L24.5797 -61.9085
L25.0372 -62.1118
L25.498 -62.3072
L25.962 -62.4945
L26.429 -62.6737
L26.899 -62.8449
L27.3717 -63.0078
L27.8471 -63.1625
L28.3249 -63.309
L28.8051 -63.4471
L29.2875 -63.5769
L29.7719 -63.6982
L30.2582 -63.8112
L30.7463 -63.9156
L31.236 -64.0116
L31.7271 -64.099
L32.2195 -64.1779
L32.7131 -64.2481
L33.2077 -64.3098
L33.7031 -64.3629
L34.1992 -64.4073
L34.6959 -64.4431
L35.193 -64.4701
L35.6903 -64.4886
L36.1877 -64.4983
L36.685 -64.4994
L37.1822 -64.4918
L37.679 -64.4755
L38.1753 -64.4505
L38.6709 -64.4169
L39.1657 -64.3746
L39.6595 -64.3236
L40.1522 -64.2641
L40.6437 -64.1959
L41.1337 -64.1191
L41.6222 -64.0338
L42.1089 -63.94
z
" id="C0_2_b8f0d76e6c"/>
    </defs>
    <g clip-path="url(#p1bffca34e9)">
     <use style="fill:#ff0000;stroke:#000000;stroke-width:2.0;" x="0.0" xlink:href="#C0_0_a811fe30f3" y="72.0"/>
    </g>
    <g clip-path="url(#p1bffca34e9)">
     <use style="fill:#ffffff;stroke:#000000;stroke-width:2.0;" x="0.0" xlink:href="#C0_1_ee43b4ab32" y="72.0"/>
    </g>
    <g clip-path="url(#p1bffca34e9)">
     <use style="fill:#ffffff;stroke:#000000;stroke-width:2.0;" x="0.0" xlink:href="#C0_2_b8f0d76e6c" y="72.0"/>
    </g>
   </g>
  </g>
 </g>
 <defs>
  <clipPath id="p1bffca34e9">
   <rect height="72.0" width="72.0" x="0.0" y="0.0"/>
  </clipPath>
 </defs>
</svg>
