<?xml version="1.0" encoding="utf-8" standalone="no"?>
<!DOCTYPE svg PUBLIC "-//W3C//DTD SVG 1.1//EN"
  "http://www.w3.org/Graphics/SVG/1.1/DTD/svg11.dtd">
<!-- Created with matplotlib (http://matplotlib.org/) -->
<svg height="72pt" version="1.1" viewBox="0 0 72 72" width="72pt" xmlns="http://www.w3.org/2000/svg" xmlns:xlink="http://www.w3.org/1999/xlink">
 <defs>
  <style type="text/css">
*{stroke-linecap:butt;stroke-linejoin:round;}
  </style>
 </defs>
 <g id="figure_1">
  <g id="patch_1">
   <path d="
M0 72
L72 72
L72 0
L0 0
z
" style="fill:none;"/>
  </g>
  <g id="axes_1">
   <g id="PatchCollection_1">
    <defs>
     <path d="
M36 -7.5
C43.5583 -7.5 50.808 -10.5029 56.1525 -15.8475
C61.4971 -21.192 64.5 -28.4417 64.5 -36
C64.5 -43.5583 61.4971 -50.808 56.1525 -56.1525
C50.808 -61.4971 43.5583 -64.5 36 -64.5
C28.4417 -64.5 21.192 -61.4971 15.8475 -56.1525
C10.5029 -50.808 7.5 -43.5583 7.5 -36
C7.5 -28.4417 10.5029 -21.192 15.8475 -15.8475
C21.192 -10.5029 28.4417 -7.5 36 -7.5
z
" id="C0_0_a811fe30f3"/>
     <path d="
M32.0798 -7.82792
L32.1467 -8.07239
L32.2316 -8.31817
L32.3327 -8.56528
L32.4484 -8.81374
L32.5772 -9.06357
L32.7174 -9.3148
L32.8676 -9.56743
L33.0267 -9.82146
L33.1932 -10.0769
L33.3663 -10.3336
L33.5447 -10.5917
L33.7277 -10.851
L33.9144 -11.1114
L34.104 -11.373
L34.2959 -11.6356
L34.4896 -11.8991
L34.6844 -12.1635
L34.8799 -12.4286
L35.0757 -12.6943
L35.2715 -12.9605
L35.4668 -13.2272
L35.6614 -13.4943
L35.8551 -13.7615
L36.0477 -14.0289
L36.2388 -14.2963
L36.4285 -14.5637
L36.6165 -14.831
L36.8027 -15.0981
L36.9871 -15.3649
L37.1695 -15.6313
L37.3498 -15.8973
L37.5281 -16.1628
L37.7042 -16.4278
L37.8781 -16.6923
L38.0499 -16.9561
L38.2194 -17.2192
L38.3867 -17.4816
L38.5518 -17.7433
L38.7147 -18.0042
L38.8754 -18.2644
L39.0338 -18.5237
L39.1901 -18.7823
L39.3443 -19.04
L39.4962 -19.2968
L39.6461 -19.5529
L39.794 -19.8081
L39.9397 -20.0624
L40.0835 -20.316
L40.2253 -20.5687
L40.3651 -20.8207
L40.503 -21.0718
L40.6391 -21.3222
L40.7733 -21.5718
L40.9057 -21.8207
L41.0363 -22.0688
L41.1653 -22.3163
L41.2925 -22.5632
L41.4181 -22.8094
L41.5421 -23.055
L41.6646 -23.3001
L41.7855 -23.5446
L41.9049 -23.7886
L42.0228 -24.0321
L42.1393 -24.2753
L42.2544 -24.518
L42.3682 -24.7604
L42.4806 -25.0025
L42.5918 -25.2443
L42.7017 -25.4859
L42.8103 -25.7273
L42.9178 -25.9686
L43.0241 -26.2097
L43.1293 -26.4508
L43.2334 -26.6919
L43.3363 -26.933
L43.4383 -27.1743
L43.5392 -27.4156
L43.6391 -27.6571
L43.7381 -27.8989
L43.8361 -28.1409
L43.9331 -28.3832
L44.1246 -28.6259
L44.2191 -28.8691
L44.3127 -29.1127
L44.4055 -29.3568
L44.4975 -29.6015
L44.5887 -29.8468
L44.6791 -30.0929
L44.7688 -30.3396
L44.8578 -30.5871
L44.946 -30.8355
L45.0336 -31.0848
L45.1205 -31.335
L45.2067 -31.5862
L45.2922 -31.8384
L45.3771 -32.0918
L45.4613 -32.3463
L45.5449 -32.6021
L45.6279 -32.8591
L45.7103 -33.1175
L45.792 -33.3772
L45.8732 -33.6384
L45.9537 -33.9011
L46.0337 -34.1653
L46.1131 -34.4311
L46.1919 -34.6987
L46.27 -34.9679
L46.3476 -35.2389
L46.4247 -35.5117
L46.5011 -35.7864
L46.5769 -36.063
L46.6521 -36.3416
L46.7268 -36.6223
L46.8008 -36.905
L46.8742 -37.1899
L46.947 -37.4769
L47.0192 -37.7662
L47.0907 -38.0577
L47.1616 -38.3516
L47.2319 -38.6477
L47.3014 -38.9463
L47.3703 -39.2473
L47.4386 -39.5507
L47.5061 -39.8566
L47.5729 -40.165
L47.639 -40.4758
L47.7044 -40.7892
L47.769 -41.1052
L47.8329 -41.4236
L47.896 -41.7446
L47.9584 -42.068
L48.02 -42.394
L48.0808 -42.7224
L48.1408 -43.0532
L48.2002 -43.3864
L48.2587 -43.722
L48.3165 -44.0597
L48.3736 -44.3996
L48.4301 -44.7416
L48.4859 -45.0855
L48.541 -45.4313
L48.5957 -45.7788
L48.6499 -46.1277
L48.7037 -46.478
L48.7573 -46.8295
L48.8107 -47.1819
L48.8642 -47.5349
L48.9178 -47.8883
L48.9718 -48.2418
L49.0265 -48.5951
L49.0821 -48.9477
L49.1388 -49.2993
L49.1971 -49.6494
L49.2574 -49.9976
L49.3202 -50.3433
L49.3858 -50.686
L49.455 -51.025
L49.5283 -51.3597
L49.6064 -51.6893
L49.6901 -52.0131
L49.7803 -52.3303
L49.8777 -52.6399
L49.9833 -52.9412
L50.0981 -53.233
L50.223 -53.5144
L50.359 -53.7845
L50.5072 -54.042
L50.6682 -54.2862
L50.843 -54.5158
L51.0323 -54.73
L51.2366 -54.928
L51.4561 -55.1088
L51.6912 -55.2719
L51.9418 -55.4165
L52.2076 -55.5424
L52.4882 -55.6492
L52.783 -55.7367
L53.0913 -55.8049
L53.4122 -55.8539
L53.7447 -55.8838
L54.0877 -55.8949
L54.4402 -55.8876
L54.801 -55.8621
L55.169 -55.819
L55.5432 -55.7587
L55.9225 -55.6817
L56.3059 -55.5885
L56.6923 -55.4796
L57.1503 -55.3554
L57.4805 -55.1027
L57.8041 -54.7307
L58.1211 -54.3529
L58.4313 -53.9696
L58.7348 -53.5808
L59.0312 -53.1866
L59.3207 -52.7873
L59.6031 -52.3827
L59.8783 -51.9732
L60.1462 -51.5589
L60.4067 -51.1398
L60.6598 -50.7161
L60.9054 -50.2879
L61.1434 -49.8553
L61.3738 -49.4186
L61.5964 -48.9777
L61.8113 -48.5329
L62.0182 -48.0843
L62.2173 -47.6319
L62.4083 -47.1761
L62.5913 -46.7168
L62.7662 -46.2543
L62.933 -45.7887
L63.0916 -45.32
L63.2419 -44.8486
L63.3839 -44.3744
L63.5175 -43.8977
L63.6428 -43.4186
L63.7597 -42.9372
L63.8681 -42.4537
L63.968 -41.9683
L64.0594 -41.481
L64.1422 -40.9921
L64.2165 -40.5016
L64.2822 -40.0098
L64.3393 -39.5167
L64.3877 -39.0226
L64.4275 -38.5275
L64.4586 -38.0317
L64.4811 -37.5353
L64.4949 -37.0384
L64.5 -36.5411
L64.4964 -36.0437
L64.4841 -35.5463
L64.4632 -35.0491
L64.4336 -34.5521
L64.3953 -34.0556
L64.3484 -33.5596
L64.2929 -33.0645
L64.2287 -32.5701
L64.1559 -32.0769
L64.0746 -31.5848
L63.9847 -31.0941
L63.8863 -30.6049
L63.7794 -30.1173
L63.664 -29.6315
L63.5402 -29.1477
L63.408 -28.6659
L63.2674 -28.1864
L63.1186 -27.7093
L62.9615 -27.2346
L62.7962 -26.7627
L62.6227 -26.2935
L62.4411 -25.8274
L62.2515 -25.3643
L62.0538 -24.9044
L61.8482 -24.448
L61.6348 -23.995
L61.4135 -23.5458
L61.1845 -23.1003
L60.9478 -22.6587
L60.7036 -22.2212
L60.4518 -21.7879
L60.1925 -21.3589
L59.9259 -20.9344
L59.652 -20.5145
L59.3709 -20.0993
L59.0827 -19.6889
L58.7874 -19.2835
L58.4852 -18.8832
L58.1762 -18.4881
L57.8604 -18.0984
L57.5379 -17.7141
L57.2089 -17.3354
L56.8734 -16.9623
L56.5316 -16.5951
L56.1835 -16.2337
L55.8292 -15.8784
L55.4689 -15.5292
L55.1027 -15.1863
L54.7307 -14.8497
L54.3529 -14.5195
L53.9696 -14.1959
L53.5808 -13.8789
L53.1866 -13.5687
L52.7873 -13.2652
L52.3827 -12.9688
L51.9732 -12.6793
L51.5589 -12.3969
L51.1398 -12.1217
L50.7161 -11.8538
L50.2879 -11.5933
L49.8553 -11.3402
L49.4186 -11.0946
L48.9777 -10.8566
L48.5329 -10.6262
L48.0843 -10.4036
L47.6319 -10.1887
L47.1761 -9.98178
L46.7168 -9.78274
L46.2543 -9.59168
L45.7887 -9.40867
L45.32 -9.23375
L44.8486 -9.067
L44.3744 -8.90844
L43.8977 -8.75814
L43.4186 -8.61613
L42.9372 -8.48247
L42.4537 -8.35719
L41.9683 -8.24033
L41.481 -8.13192
L40.9921 -8.03201
L40.5016 -7.94061
L40.0098 -7.85776
L39.5167 -7.78348
L39.0226 -7.7178
L38.5275 -7.66073
L38.0317 -7.6123
L37.5353 -7.57251
L37.0384 -7.54138
L36.5411 -7.51892
L36.0437 -7.50514
L35.5463 -7.50003
L35.0491 -7.50361
L34.5521 -7.51587
L34.0556 -7.5368
L33.5596 -7.56641
L33.0645 -7.60467
L32.5701 -7.65159
z
" id="C0_1_c919353b91"/>
     <path d="
M14.9561 -16.8173
L14.848 -17.2199
L14.7422 -17.6254
L14.6391 -18.0332
L14.5394 -18.4426
L14.4433 -18.8533
L14.3513 -19.2648
L14.2636 -19.6765
L14.1806 -20.0882
L14.1023 -20.4993
L14.0289 -20.9096
L13.9606 -21.3188
L13.8973 -21.7266
L13.8391 -22.1327
L13.7861 -22.537
L13.7381 -22.939
L13.6953 -23.3388
L13.6574 -23.7361
L13.6246 -24.1308
L13.5966 -24.5228
L13.5735 -24.9119
L13.555 -25.298
L13.5412 -25.6811
L13.5319 -26.0611
L13.5271 -26.4379
L13.5265 -26.8115
L13.5302 -27.1818
L13.5379 -27.5489
L13.5496 -27.9127
L13.5652 -28.2732
L13.5846 -28.6304
L13.6077 -28.9843
L13.6343 -29.335
L13.6644 -29.6824
L13.6979 -30.0265
L13.7346 -30.3675
L13.7746 -30.7053
L13.8176 -31.0401
L13.8637 -31.3717
L13.9127 -31.7003
L13.9645 -32.0259
L14.0192 -32.3486
L14.0766 -32.6684
L14.1366 -32.9853
L14.1992 -33.2995
L14.2643 -33.611
L14.332 -33.9199
L14.402 -34.2261
L14.4744 -34.5298
L14.5492 -34.8311
L14.6262 -35.1299
L14.7055 -35.4264
L14.787 -35.7207
L14.8707 -36.0127
L14.9565 -36.3025
L15.0444 -36.5902
L15.1345 -36.876
L15.2266 -37.1597
L15.3208 -37.4416
L15.417 -37.7216
L15.5152 -37.9998
L15.6155 -38.2763
L15.7178 -38.5511
L15.822 -38.8243
L15.9283 -39.096
L16.0366 -39.3662
L16.1469 -39.635
L16.2592 -39.9024
L16.3734 -40.1684
L16.4898 -40.4333
L16.6081 -40.6969
L16.7285 -40.9594
L16.8509 -41.2207
L16.9754 -41.4811
L17.1021 -41.7404
L17.2308 -41.9988
L17.3616 -42.2563
L17.4947 -42.5129
L17.6299 -42.7688
L17.7673 -43.0239
L17.907 -43.2782
L18.049 -43.532
L18.1933 -43.7851
L18.3399 -44.0376
L18.489 -44.2896
L18.6404 -44.5411
L18.7944 -44.7921
L18.9508 -45.0427
L19.1099 -45.2929
L19.2715 -45.5428
L19.4359 -45.7924
L19.6029 -46.0416
L19.7727 -46.2906
L19.9454 -46.5394
L20.1209 -46.788
L20.2993 -47.0363
L20.4808 -47.2846
L20.6653 -47.5326
L20.8529 -47.7806
L21.0438 -48.0285
L21.2379 -48.2762
L21.4353 -48.5239
L21.636 -48.7716
L21.8403 -49.0191
L22.048 -49.2666
L22.2594 -49.5141
L22.4744 -49.7614
L22.6932 -50.0088
L22.9157 -50.256
L23.1422 -50.5032
L23.3725 -50.7503
L23.6069 -50.9972
L23.8454 -51.244
L24.088 -51.4906
L24.3348 -51.7371
L24.5859 -51.9833
L24.8413 -52.2293
L25.1011 -52.4749
L25.3653 -52.7202
L25.6341 -52.965
L25.9073 -53.2094
L26.1851 -53.4533
L26.4675 -53.6966
L26.7546 -53.9392
L27.0462 -54.1811
L27.3425 -54.4221
L27.6434 -54.6623
L27.9489 -54.9015
L28.2589 -55.1397
L28.5735 -55.3767
L28.8925 -55.6124
L29.2158 -55.8468
L29.5434 -56.0797
L29.8751 -56.3112
L30.2108 -56.541
L30.5503 -56.7691
L30.8933 -56.9953
L31.2396 -57.2198
L31.5889 -57.4422
L31.941 -57.6627
L32.2954 -57.881
L32.6517 -58.0973
L33.0094 -58.3115
L33.368 -58.5235
L33.727 -58.7335
L34.0857 -58.9415
L34.4434 -59.1475
L34.7992 -59.3517
L35.1523 -59.5542
L35.5018 -59.7552
L35.8467 -59.9551
L36.1858 -60.154
L36.518 -60.3524
L36.842 -60.5505
L37.1566 -60.7489
L37.4603 -60.9479
L37.7519 -61.1481
L38.0298 -61.3499
L38.2928 -61.554
L38.5395 -61.7606
L38.7687 -61.9704
L38.9792 -62.1837
L39.1701 -62.4009
L39.3406 -62.6221
L39.4901 -62.8476
L39.6181 -63.0773
L39.7244 -63.3112
L39.8091 -63.5492
L39.8723 -63.7909
L39.4477 -64.0359
L38.9535 -64.2907
L38.4583 -64.3466
L37.9624 -64.3938
L37.4659 -64.4324
L36.9689 -64.4623
L36.4717 -64.4835
L35.9743 -64.4961
L35.4769 -64.5
L34.9796 -64.4952
L34.4827 -64.4817
L33.9863 -64.4596
L33.4904 -64.4288
L32.9953 -64.3893
L32.5012 -64.3412
L32.0081 -64.2844
L31.5162 -64.219
L31.0257 -64.1451
L30.5367 -64.0625
L30.0493 -63.9715
L29.5638 -63.8718
L29.0803 -63.7637
L28.5988 -63.6472
L28.1196 -63.5222
L27.6428 -63.3889
L27.1685 -63.2472
L26.697 -63.0971
L26.2282 -62.9389
L25.7625 -62.7724
L25.2999 -62.5978
L24.8405 -62.4151
L24.3845 -62.2243
L23.9321 -62.0256
L23.4833 -61.8189
L23.0383 -61.6043
L22.5973 -61.382
L22.1604 -61.1519
L21.7277 -60.9142
L21.2994 -60.6688
L20.8755 -60.416
L20.4562 -60.1557
L20.0417 -59.8881
L19.632 -59.6132
L19.2273 -59.3311
L18.8277 -59.0418
L18.4334 -58.7456
L18.0444 -58.4425
L17.6608 -58.1325
L17.2829 -57.8157
L16.9107 -57.4923
L16.5442 -57.1624
L16.1837 -56.826
L15.8293 -56.4833
L15.4809 -56.1343
L15.1389 -55.7792
L14.8032 -55.4181
L14.4739 -55.0511
L14.1512 -54.6783
L13.8352 -54.2997
L13.5259 -53.9156
L13.2234 -53.5261
L12.9279 -53.1312
L12.6394 -52.7311
L12.358 -52.3258
L12.0839 -51.9157
L11.817 -51.5006
L11.5575 -51.0809
L11.3054 -50.6565
L11.0609 -50.2277
L10.8239 -49.7946
L10.5946 -49.3572
L10.3731 -48.9158
L10.1594 -48.4704
L9.9535 -48.0213
L9.75557 -47.5685
L9.56563 -47.1121
L9.38375 -46.6524
L9.20997 -46.1895
L9.04435 -45.7234
L8.88695 -45.2544
L8.7378 -44.7825
L8.59696 -44.308
L8.46446 -43.8309
L8.34036 -43.3515
L8.22468 -42.8698
L8.11745 -42.386
L8.01873 -41.9003
L7.92852 -41.4128
L7.84687 -40.9236
L7.77379 -40.433
L7.70931 -39.9409
L7.65345 -39.4477
L7.60622 -38.9535
L7.56764 -38.4583
L7.53772 -37.9624
L7.51647 -37.4659
L7.5039 -36.9689
L7.50001 -36.4717
L7.5048 -35.9743
L7.51827 -35.4769
L7.54042 -34.9796
L7.57123 -34.4827
L7.61071 -33.9863
L7.65883 -33.4904
L7.71558 -32.9953
L7.78095 -32.5012
L7.85492 -32.0081
L7.93746 -31.5162
L8.02855 -31.0257
L8.12815 -30.5367
L8.23625 -30.0493
L8.35281 -29.5638
L8.47779 -29.0803
L8.61115 -28.5988
L8.75285 -28.1196
L8.90285 -27.6428
L9.06111 -27.1685
L9.22757 -26.697
L9.40219 -26.2282
L9.58491 -25.7625
L9.77568 -25.2999
L9.97443 -24.8405
L10.1811 -24.3845
L10.3957 -23.9321
L10.618 -23.4833
L10.8481 -23.0383
L11.0858 -22.5973
L11.3312 -22.1604
L11.584 -21.7277
L11.8443 -21.2994
L12.1119 -20.8755
L12.3868 -20.4562
L12.6689 -20.0417
L12.9582 -19.632
L13.2544 -19.2273
L13.5575 -18.8277
L13.8675 -18.4334
L14.1843 -18.0444
L14.5077 -17.6608
z
" id="C0_2_5d539f908c"/>
    </defs>
    <g clip-path="url(#p1bffca34e9)">
     <use style="fill:#ff0000;stroke:#000000;stroke-width:2.0;" x="0.0" xlink:href="#C0_0_a811fe30f3" y="72.0"/>
    </g>
    <g clip-path="url(#p1bffca34e9)">
     <use style="fill:#ffffff;stroke:#000000;stroke-width:2.0;" x="0.0" xlink:href="#C0_1_c919353b91" y="72.0"/>
    </g>
    <g clip-path="url(#p1bffca34e9)">
     <use style="fill:#ffffff;stroke:#000000;stroke-width:2.0;" x="0.0" xlink:href="#C0_2_5d539f908c" y="72.0"/>
    </g>
   </g>
  </g>
 </g>
 <defs>
  <clipPath id="p1bffca34e9">
   <rect height="72.0" width="72.0" x="0.0" y="0.0"/>
  </clipPath>
 </defs>
</svg>
