<?xml version="1.0" encoding="utf-8" standalone="no"?>
<!DOCTYPE svg PUBLIC "-//W3C//DTD SVG 1.1//EN"
  "http://www.w3.org/Graphics/SVG/1.1/DTD/svg11.dtd">
<!-- Created with matplotlib (http://matplotlib.org/) -->
<svg height="72pt" version="1.1" viewBox="0 0 72 72" width="72pt" xmlns="http://www.w3.org/2000/svg" xmlns:xlink="http://www.w3.org/1999/xlink">
 <defs>
  <style type="text/css">
*{stroke-linecap:butt;stroke-linejoin:round;}
  </style>
 </defs>
 <g id="figure_1">
  <g id="patch_1">
   <path d="
M0 72
L72 72
L72 0
L0 0
z
" style="fill:none;"/>
  </g>
  <g id="axes_1">
   <g id="PatchCollection_1">
    <defs>
     <path d="
M36 -7.5
C43.5583 -7.5 50.808 -10.5029 56.1525 -15.8475
C61.4971 -21.192 64.5 -28.4417 64.5 -36
C64.5 -43.5583 61.4971 -50.808 56.1525 -56.1525
C50.808 -61.4971 43.5583 -64.5 36 -64.5
C28.4417 -64.5 21.192 -61.4971 15.8475 -56.1525
C10.5029 -50.808 7.5 -43.5583 7.5 -36
C7.5 -28.4417 10.5029 -21.192 15.8475 -15.8475
C21.192 -10.5029 28.4417 -7.5 36 -7.5
z
" id="C0_0_a811fe30f3"/>
     <path d="
M22.9965 -61.1274
L23.0873 -60.9082
L23.1779 -60.6896
L23.2682 -60.4714
L23.3582 -60.2539
L23.4481 -60.0369
L23.5377 -59.8206
L23.6271 -59.6049
L23.7163 -59.3898
L23.8053 -59.1754
L23.8942 -58.9616
L23.9828 -58.7486
L24.0712 -58.5361
L24.1595 -58.3243
L24.2477 -58.1132
L24.3356 -57.9026
L24.4235 -57.6927
L24.5112 -57.4834
L24.5987 -57.2747
L24.6862 -57.0665
L24.7736 -56.8588
L24.8608 -56.6516
L24.948 -56.4449
L25.0352 -56.2387
L25.1222 -56.0329
L25.2093 -55.8275
L25.2963 -55.6224
L25.3833 -55.4176
L25.4703 -55.2132
L25.5573 -55.009
L25.6443 -54.805
L25.7314 -54.6012
L25.8186 -54.3975
L25.9058 -54.1939
L25.9931 -53.9904
L26.0806 -53.7869
L26.1682 -53.5833
L26.2559 -53.3797
L26.3438 -53.176
L26.4318 -52.9721
L26.5201 -52.7681
L26.6086 -52.5637
L26.6974 -52.3591
L26.7864 -52.1542
L26.8757 -51.9488
L26.9653 -51.7431
L27.1454 -51.5368
L27.2361 -51.33
L27.3271 -51.1226
L27.4185 -50.9146
L27.5104 -50.7059
L27.6027 -50.4965
L27.6955 -50.2862
L27.7888 -50.0752
L27.8827 -49.8632
L27.9771 -49.6503
L28.072 -49.4363
L28.1676 -49.2213
L28.2638 -49.0052
L28.3607 -48.7879
L28.4582 -48.5693
L28.5565 -48.3495
L28.6554 -48.1282
L28.7552 -47.9056
L28.8557 -47.6815
L28.9571 -47.4558
L29.0593 -47.2286
L29.1623 -46.9997
L29.2663 -46.769
L29.3712 -46.5365
L29.4771 -46.3022
L29.584 -46.066
L29.6918 -45.8277
L29.8008 -45.5874
L29.9108 -45.345
L30.0219 -45.1003
L30.1342 -44.8534
L30.2476 -44.6042
L30.3622 -44.3526
L30.4781 -44.0985
L30.5952 -43.8418
L30.7136 -43.5826
L30.8333 -43.3206
L30.9543 -43.056
L31.0767 -42.7885
L31.2005 -42.5181
L31.3257 -42.2448
L31.4523 -41.9685
L31.5804 -41.6892
L31.7099 -41.4067
L31.841 -41.121
L31.9735 -40.832
L32.1076 -40.5398
L32.2432 -40.2442
L32.3803 -39.9452
L32.5189 -39.6428
L32.659 -39.3369
L32.8007 -39.0275
L32.9439 -38.7145
L33.0885 -38.3979
L33.2346 -38.0777
L33.3821 -37.754
L33.5309 -37.4266
L33.6811 -37.0956
L33.8325 -36.761
L33.9851 -36.4228
L34.1388 -36.0811
L34.2934 -35.7358
L34.4489 -35.3871
L34.6051 -35.035
L34.7618 -34.6796
L34.9189 -34.3209
L35.076 -33.9592
L35.2331 -33.5944
L35.3898 -33.2268
L35.5457 -32.8566
L35.7006 -32.4838
L35.8538 -32.1087
L36.0051 -31.7316
L36.1537 -31.3527
L36.2991 -30.9723
L36.4405 -30.5907
L36.577 -30.2082
L36.7076 -29.8253
L36.8313 -29.4424
L36.9467 -29.06
L37.0523 -28.6786
L37.1464 -28.2989
L37.2271 -27.9214
L37.2924 -27.5469
L37.34 -27.1761
L37.3675 -26.8101
L37.3724 -26.4495
L37.3525 -26.0954
L37.3055 -25.7487
L37.2299 -25.4102
L37.1245 -25.0808
L36.9888 -24.7612
L36.8232 -24.4518
L36.6286 -24.1531
L36.4068 -23.8652
L36.1597 -23.5882
L35.8896 -23.3218
L35.599 -23.066
L35.2903 -22.8204
L34.9658 -22.5847
L34.6277 -22.3587
L34.2781 -22.142
L33.9187 -21.9344
L33.551 -21.7355
L33.1767 -21.5452
L32.7968 -21.3633
L32.4126 -21.1894
L32.025 -21.0234
L31.635 -20.8652
L31.2432 -20.7146
L30.8505 -20.5714
L30.4573 -20.4354
L30.0642 -20.3065
L29.6717 -20.1846
L29.2803 -20.0694
L28.8903 -19.9609
L28.502 -19.859
L28.1157 -19.7634
L27.7317 -19.674
L27.3502 -19.5907
L26.9714 -19.5134
L26.5955 -19.4418
L26.2226 -19.376
L25.8528 -19.3156
L25.4863 -19.2607
L25.1232 -19.2111
L24.7634 -19.1665
L24.4071 -19.127
L24.0544 -19.0924
L23.7051 -19.0625
L23.3595 -19.0372
L23.0174 -19.0165
L22.6789 -19.0002
L22.3439 -18.9882
L22.0125 -18.9803
L21.6847 -18.9766
L21.3603 -18.9768
L21.0394 -18.9809
L20.722 -18.9888
L20.4079 -19.0005
L20.0972 -19.0157
L19.7898 -19.0345
L19.4856 -19.0568
L19.1847 -19.0824
L18.8868 -19.1114
L18.5921 -19.1436
L18.3003 -19.1791
L18.0115 -19.2177
L17.7256 -19.2593
L17.4425 -19.3041
L17.1622 -19.3518
L16.8846 -19.4024
L16.6096 -19.456
L16.3372 -19.5125
L16.0674 -19.5718
L15.7999 -19.6339
L15.5348 -19.6989
L15.2721 -19.7666
L15.0116 -19.8371
L14.7532 -19.9103
L14.497 -19.9863
L14.2429 -20.065
L13.9908 -20.1465
L13.7406 -20.2307
L13.4923 -20.3176
L13.2458 -20.4073
L13.0012 -20.4998
L12.7582 -20.595
L12.5169 -20.6931
L12.2772 -20.7939
L12.039 -20.8976
L11.8024 -21.0042
L11.4688 -21.1137
L11.2193 -21.4924
L10.9774 -21.9228
L10.7431 -22.3574
L10.5165 -22.7962
L10.2977 -23.239
L10.0867 -23.6857
L9.8836 -24.1361
L9.68845 -24.5902
L9.50132 -25.0477
L9.32225 -25.5086
L9.15131 -25.9727
L8.98855 -26.4398
L8.83402 -26.9098
L8.68776 -27.3826
L8.54983 -27.858
L8.42025 -28.3359
L8.29908 -28.8162
L8.18634 -29.2986
L8.08208 -29.7831
L7.98632 -30.2694
L7.89909 -30.7575
L7.82042 -31.2472
L7.75034 -31.7384
L7.68886 -32.2308
L7.636 -32.7244
L7.59179 -33.219
L7.55623 -33.7145
L7.52933 -34.2106
L7.51111 -34.7073
L7.50156 -35.2044
L7.5007 -35.7017
L7.50851 -36.1991
L7.52501 -36.6965
L7.55017 -37.1936
L7.58401 -37.6904
L7.6265 -38.1866
L7.67763 -38.6822
L7.73739 -39.177
L7.80576 -39.6708
L7.88272 -40.1635
L7.96824 -40.6549
L8.0623 -41.1449
L8.16487 -41.6334
L8.27592 -42.1201
L8.39542 -42.605
L8.52332 -43.0878
L8.65959 -43.5685
L8.80419 -44.0469
L8.95708 -44.5228
L9.1182 -44.9961
L9.28751 -45.4667
L9.46496 -45.9344
L9.65049 -46.3991
L9.84405 -46.8606
L10.0456 -47.3189
L10.255 -47.7736
L10.4723 -48.2248
L10.6973 -48.6722
L10.9301 -49.1158
L11.1705 -49.5554
L11.4184 -49.9909
L11.6739 -50.4221
L11.9367 -50.8489
L12.2069 -51.2712
L12.4843 -51.6888
L12.7689 -52.1017
L13.0606 -52.5096
L13.3593 -52.9126
L13.6648 -53.3103
L13.9772 -53.7028
L14.2963 -54.0899
L14.6219 -54.4715
L14.9541 -54.8475
L15.2927 -55.2177
L15.6376 -55.5821
L15.9887 -55.9405
L16.3459 -56.2928
L16.7091 -56.639
L17.0782 -56.9789
L17.453 -57.3123
L17.8335 -57.6393
L18.2195 -57.9597
L18.611 -58.2734
L19.0077 -58.5803
L19.4096 -58.8804
L19.8166 -59.1735
L20.2285 -59.4595
L20.6452 -59.7383
L21.0665 -60.01
L21.4924 -60.2743
L21.9228 -60.5312
L22.3574 -60.7807
z
" id="C0_1_f86e7d78fc"/>
     <path d="
M60.3434 -50.7198
L60.3331 -50.4602
L60.3197 -50.2017
L60.3035 -49.9442
L60.2843 -49.6875
L60.2624 -49.4317
L60.2376 -49.1767
L60.2101 -48.9224
L60.1798 -48.6687
L60.1468 -48.4156
L60.111 -48.163
L60.0726 -47.9109
L60.0315 -47.6591
L59.9878 -47.4077
L59.9414 -47.1565
L59.8923 -46.9055
L59.8406 -46.6546
L59.7862 -46.4038
L59.7291 -46.153
L59.6693 -45.9021
L59.6069 -45.6511
L59.5417 -45.3999
L59.4739 -45.1485
L59.4032 -44.8968
L59.3298 -44.6447
L59.2536 -44.3922
L59.1746 -44.1392
L59.0927 -43.8857
L59.0079 -43.6316
L58.9202 -43.3769
L58.8295 -43.1215
L58.7358 -42.8653
L58.639 -42.6083
L58.5391 -42.3504
L58.436 -42.0916
L58.3297 -41.8319
L58.2202 -41.5711
L58.1073 -41.3093
L57.991 -41.0464
L57.8713 -40.7823
L57.748 -40.517
L57.6212 -40.2505
L57.4907 -39.9827
L57.3564 -39.7135
L57.2184 -39.443
L57.0765 -39.171
L56.9306 -38.8977
L56.7807 -38.6228
L56.6267 -38.3465
L56.4685 -38.0686
L56.3061 -37.7892
L56.1393 -37.5082
L55.9681 -37.2256
L55.7923 -36.9414
L55.612 -36.6556
L55.427 -36.3682
L55.2373 -36.0791
L55.0427 -35.7884
L54.8433 -35.4962
L54.639 -35.2023
L54.4296 -34.9068
L54.2152 -34.6098
L53.9956 -34.3112
L53.7709 -34.0112
L53.541 -33.7096
L53.3059 -33.4067
L53.0656 -33.1024
L52.8201 -32.7969
L52.5694 -32.49
L52.3135 -32.1821
L52.0525 -31.873
L51.7865 -31.5629
L51.5155 -31.252
L51.2398 -30.9401
L50.9594 -30.6276
L50.6747 -30.3145
L50.3857 -30.0008
L50.0929 -29.6867
L49.7965 -29.3723
L49.497 -29.0576
L49.1948 -28.7428
L48.8906 -28.428
L48.585 -28.1132
L48.2786 -27.7984
L47.9725 -27.4838
L47.6677 -27.1693
L47.3652 -26.8549
L47.0666 -26.5405
L46.7733 -26.226
L46.4871 -25.9113
L46.21 -25.5961
L45.9442 -25.2803
L45.6921 -24.9633
L45.4561 -24.6449
L45.2389 -24.3247
L45.0429 -24.0022
L44.8704 -23.6772
L44.7232 -23.3491
L44.6027 -23.018
L44.5094 -22.6836
L44.4432 -22.3462
L44.4033 -22.006
L44.3884 -21.6634
L44.3964 -21.3189
L44.4255 -20.9731
L44.4732 -20.6267
L44.5374 -20.2803
L44.616 -19.9344
L44.707 -19.5898
L44.8085 -19.2468
L44.9191 -18.906
L45.0372 -18.5679
L45.1617 -18.2327
L45.2915 -17.901
L45.4255 -17.5729
L45.5631 -17.2487
L45.7035 -16.9288
L45.846 -16.6131
L45.9902 -16.3021
L46.1356 -15.9957
L46.2818 -15.694
L46.4284 -15.3973
L46.5752 -15.1056
L46.7219 -14.8188
L46.8682 -14.5371
L47.014 -14.2605
L47.1591 -13.989
L47.3033 -13.7226
L47.4466 -13.4613
L47.5889 -13.205
L47.7299 -12.9538
L47.8698 -12.7075
L48.0084 -12.4662
L48.1457 -12.2297
L48.2816 -11.9981
L48.4161 -11.7712
L48.5492 -11.549
L48.6809 -11.3314
L48.8111 -11.1184
L48.9399 -10.9098
L49.5209 -10.7056
L49.9567 -10.9114
L50.3882 -11.1512
L50.8154 -11.3986
L51.238 -11.6534
L51.656 -11.9157
L52.0693 -12.1853
L52.4776 -12.4622
L52.8809 -12.7462
L53.2791 -13.0373
L53.672 -13.3354
L54.0596 -13.6405
L54.4416 -13.9523
L54.818 -14.2708
L55.1887 -14.596
L55.5536 -14.9277
L55.9124 -15.2658
L56.2653 -15.6102
L56.6119 -15.9608
L56.9523 -16.3175
L57.2863 -16.6803
L57.6138 -17.0489
L57.9347 -17.4233
L58.2489 -17.8033
L58.5564 -18.1889
L58.857 -18.5799
L59.1506 -18.9762
L59.4372 -19.3777
L59.7166 -19.7843
L59.9888 -20.1958
L60.2537 -20.6121
L60.5112 -21.0331
L60.7613 -21.4587
L61.0038 -21.8887
L61.2387 -22.3229
L61.4659 -22.7614
L61.6853 -23.2039
L61.8969 -23.6503
L62.1007 -24.1004
L62.2964 -24.5542
L62.4842 -25.0115
L62.6639 -25.4721
L62.8355 -25.9359
L62.9989 -26.4028
L63.1541 -26.8726
L63.301 -27.3452
L63.4396 -27.8204
L63.5698 -28.2981
L63.6917 -28.7782
L63.8051 -29.2604
L63.91 -29.7447
L64.0064 -30.231
L64.0943 -30.7189
L64.1737 -31.2085
L64.2444 -31.6996
L64.3066 -32.1919
L64.3601 -32.6854
L64.405 -33.18
L64.4413 -33.6753
L64.4689 -34.1714
L64.4878 -34.6681
L64.498 -35.1651
L64.4996 -35.6624
L64.4924 -36.1598
L64.4766 -36.6572
L64.4521 -37.1544
L64.419 -37.6512
L64.3772 -38.1475
L64.3267 -38.6431
L64.2676 -39.138
L64.1999 -39.6319
L64.1237 -40.1247
L64.0388 -40.6162
L63.9454 -41.1063
L63.8435 -41.5949
L63.7332 -42.0817
L63.6143 -42.5668
L63.4871 -43.0498
L63.3515 -43.5306
L63.2075 -44.0092
L63.0553 -44.4853
L62.8948 -44.9589
L62.7261 -45.4297
L62.5493 -45.8976
L62.3644 -46.3626
L62.1715 -46.8243
L61.9706 -47.2828
L61.7618 -47.7378
L61.5452 -48.1893
L61.3207 -48.6371
L61.0886 -49.081
L60.8488 -49.5209
z
" id="C0_2_bf58d4cb83"/>
    </defs>
    <g clip-path="url(#p1bffca34e9)">
     <use style="fill:#ff0000;stroke:#000000;stroke-width:2.0;" x="0.0" xlink:href="#C0_0_a811fe30f3" y="72.0"/>
    </g>
    <g clip-path="url(#p1bffca34e9)">
     <use style="fill:#ffffff;stroke:#000000;stroke-width:2.0;" x="0.0" xlink:href="#C0_1_f86e7d78fc" y="72.0"/>
    </g>
    <g clip-path="url(#p1bffca34e9)">
     <use style="fill:#ffffff;stroke:#000000;stroke-width:2.0;" x="0.0" xlink:href="#C0_2_bf58d4cb83" y="72.0"/>
    </g>
   </g>
  </g>
 </g>
 <defs>
  <clipPath id="p1bffca34e9">
   <rect height="72.0" width="72.0" x="0.0" y="0.0"/>
  </clipPath>
 </defs>
</svg>
