<?xml version="1.0" encoding="utf-8" standalone="no"?>
<!DOCTYPE svg PUBLIC "-//W3C//DTD SVG 1.1//EN"
  "http://www.w3.org/Graphics/SVG/1.1/DTD/svg11.dtd">
<!-- Created with matplotlib (http://matplotlib.org/) -->
<svg height="72pt" version="1.1" viewBox="0 0 72 72" width="72pt" xmlns="http://www.w3.org/2000/svg" xmlns:xlink="http://www.w3.org/1999/xlink">
 <defs>
  <style type="text/css">
*{stroke-linecap:butt;stroke-linejoin:round;}
  </style>
 </defs>
 <g id="figure_1">
  <g id="patch_1">
   <path d="
M0 72
L72 72
L72 0
L0 0
z
" style="fill:none;"/>
  </g>
  <g id="axes_1">
   <g id="PatchCollection_1">
    <defs>
     <path d="
M36 -7.5
C43.5583 -7.5 50.808 -10.5029 56.1525 -15.8475
C61.4971 -21.192 64.5 -28.4417 64.5 -36
C64.5 -43.5583 61.4971 -50.808 56.1525 -56.1525
C50.808 -61.4971 43.5583 -64.5 36 -64.5
C28.4417 -64.5 21.192 -61.4971 15.8475 -56.1525
C10.5029 -50.808 7.5 -43.5583 7.5 -36
C7.5 -28.4417 10.5029 -21.192 15.8475 -15.8475
C21.192 -10.5029 28.4417 -7.5 36 -7.5
z
" id="C0_0_a811fe30f3"/>
     <path d="
M41.8988 -8.25216
L41.7961 -8.45861
L41.7039 -8.66986
L41.622 -8.88568
L41.5502 -9.10587
L41.4881 -9.33024
L41.4355 -9.55857
L41.392 -9.7907
L41.3574 -10.0264
L41.3311 -10.2655
L41.313 -10.5079
L41.3027 -10.7533
L41.2997 -11.0017
L41.3038 -11.2528
L41.3145 -11.5064
L41.3315 -11.7625
L41.3545 -12.0209
L41.3831 -12.2814
L41.4169 -12.5439
L41.4557 -12.8083
L41.4991 -13.0744
L41.5467 -13.3421
L41.5984 -13.6113
L41.6537 -13.8819
L41.7124 -14.1537
L41.7743 -14.4267
L41.8391 -14.7008
L41.9065 -14.9757
L41.9763 -15.2516
L42.0483 -15.5281
L42.1223 -15.8054
L42.1981 -16.0832
L42.2754 -16.3615
L42.3542 -16.6402
L42.4342 -16.9193
L42.5154 -17.1987
L42.5974 -17.4782
L42.6803 -17.7579
L42.7639 -18.0377
L42.848 -18.3176
L42.9327 -18.5974
L43.0176 -18.8771
L43.1029 -19.1568
L43.1883 -19.4363
L43.2738 -19.7156
L43.3593 -19.9947
L43.4448 -20.2736
L43.5302 -20.5521
L43.6154 -20.8304
L43.7004 -21.1083
L43.7851 -21.3859
L43.8695 -21.6632
L43.9535 -21.94
L44.0372 -22.2165
L44.1204 -22.4926
L44.2032 -22.7682
L44.2855 -23.0435
L44.3673 -23.3183
L44.4486 -23.5928
L44.5293 -23.8668
L44.6095 -24.1404
L44.6891 -24.4136
L44.7681 -24.6864
L44.8465 -24.9588
L44.9243 -25.2309
L45.0015 -25.5026
L45.078 -25.7739
L45.154 -26.0449
L45.2293 -26.3155
L45.304 -26.5859
L45.378 -26.8559
L45.4514 -27.1257
L45.5242 -27.3952
L45.5964 -27.6645
L45.6679 -27.9336
L45.7388 -28.2025
L45.809 -28.4712
L45.8787 -28.7398
L45.9477 -29.0082
L46.0161 -29.2766
L46.0839 -29.5448
L46.1511 -29.8131
L46.2177 -30.0813
L46.2837 -30.3495
L46.3491 -30.6178
L46.4139 -30.8861
L46.4782 -31.1545
L46.5419 -31.423
L46.6676 -31.6917
L46.7296 -31.9606
L46.791 -32.2296
L46.852 -32.4989
L46.9123 -32.7684
L46.9722 -33.0382
L47.0316 -33.3083
L47.0904 -33.5788
L47.1487 -33.8496
L47.2066 -34.1209
L47.2639 -34.3925
L47.3208 -34.6646
L47.3772 -34.9372
L47.4331 -35.2102
L47.4886 -35.4838
L47.5436 -35.758
L47.5982 -36.0327
L47.6523 -36.308
L47.706 -36.5839
L47.7593 -36.8605
L47.8121 -37.1377
L47.8646 -37.4156
L47.9167 -37.6942
L47.9683 -37.9736
L48.0197 -38.2536
L48.0706 -38.5344
L48.1212 -38.816
L48.1714 -39.0983
L48.2214 -39.3814
L48.271 -39.6653
L48.3203 -39.9499
L48.3693 -40.2354
L48.4181 -40.5217
L48.4665 -40.8087
L48.5148 -41.0966
L48.5629 -41.3852
L48.6107 -41.6746
L48.6584 -41.9648
L48.7059 -42.2557
L48.7533 -42.5473
L48.8007 -42.8397
L48.8479 -43.1327
L48.8952 -43.4263
L48.9424 -43.7206
L48.9897 -44.0155
L49.0371 -44.3109
L49.0846 -44.6067
L49.1323 -44.903
L49.1803 -45.1997
L49.2285 -45.4966
L49.2771 -45.7939
L49.3261 -46.0912
L49.3756 -46.3887
L49.4257 -46.6861
L49.4764 -46.9835
L49.5279 -47.2806
L49.5802 -47.5774
L49.6334 -47.8738
L49.6877 -48.1696
L49.7431 -48.4648
L49.7998 -48.7591
L49.8579 -49.0525
L49.9176 -49.3447
L49.9789 -49.6356
L50.0421 -49.9251
L50.1072 -50.2129
L50.1745 -50.499
L50.2442 -50.7829
L50.3163 -51.0647
L50.3912 -51.344
L50.469 -51.6206
L50.5499 -51.8944
L50.6341 -52.165
L50.7218 -52.4322
L50.8133 -52.6958
L50.9088 -52.9556
L51.0085 -53.2111
L51.1126 -53.4623
L51.2214 -53.7087
L51.335 -53.9502
L51.4538 -54.1865
L51.5778 -54.4172
L51.7074 -54.642
L51.8427 -54.8608
L51.9838 -55.0732
L52.1311 -55.2789
L52.2846 -55.4776
L52.4445 -55.6691
L52.6108 -55.8531
L52.7838 -56.0293
L52.9635 -56.1975
L53.1499 -56.3574
L53.3431 -56.5087
L53.5432 -56.6513
L53.75 -56.7849
L53.9636 -56.9093
L54.184 -57.0242
L54.411 -57.1295
L54.6446 -57.225
L55.1376 -57.3106
L55.5033 -57.1187
L55.863 -56.7815
L56.2167 -56.438
L56.5642 -56.0882
L56.9054 -55.7323
L57.2403 -55.3704
L57.5687 -55.0026
L57.8905 -54.629
L58.2057 -54.2498
L58.5141 -53.8649
L58.8157 -53.4747
L59.1103 -53.0791
L59.3978 -52.6783
L59.6782 -52.2724
L59.9515 -51.8616
L60.2174 -51.446
L60.4759 -51.0256
L60.727 -50.6007
L60.9706 -50.1713
L61.2065 -49.7376
L61.4348 -49.2997
L61.6553 -48.8577
L61.868 -48.4119
L62.0729 -47.9622
L62.2697 -47.509
L62.4586 -47.0522
L62.6395 -46.592
L62.8122 -46.1286
L62.9767 -45.6622
L63.133 -45.1928
L63.2811 -44.7206
L63.4209 -44.2457
L63.5523 -43.7683
L63.6753 -43.2886
L63.7898 -42.8066
L63.896 -42.3226
L63.9936 -41.8366
L64.0827 -41.3489
L64.1632 -40.8595
L64.2351 -40.3686
L64.2985 -39.8765
L64.3532 -39.3831
L64.3993 -38.8887
L64.4368 -38.3934
L64.4656 -37.8974
L64.4857 -37.4009
L64.4971 -36.9039
L64.4999 -36.4066
L64.4939 -35.9092
L64.4793 -35.4118
L64.456 -34.9146
L64.4241 -34.4177
L64.3835 -33.9213
L64.3342 -33.4256
L64.2764 -32.9306
L64.2099 -32.4366
L64.1348 -31.9436
L64.0511 -31.4519
L63.9589 -30.9616
L63.8582 -30.4728
L63.749 -29.9857
L63.6313 -29.5004
L63.5052 -29.0171
L63.3708 -28.536
L63.228 -28.0571
L63.0769 -27.5806
L62.9176 -27.1067
L62.75 -26.6355
L62.5744 -26.1671
L62.3906 -25.7018
L62.1988 -25.2395
L61.999 -24.7806
L61.7913 -24.3251
L61.5757 -23.8731
L61.3523 -23.4248
L61.1212 -22.9804
L60.8825 -22.5399
L60.6362 -22.1036
L60.3824 -21.6714
L60.1211 -21.2436
L59.8525 -20.8203
L59.5767 -20.4017
L59.2936 -19.9878
L59.0035 -19.5787
L58.7063 -19.1747
L58.4023 -18.7758
L58.0914 -18.3822
L57.7738 -17.9939
L57.4495 -17.6111
L57.1187 -17.2339
L56.7815 -16.8624
L56.438 -16.4967
L56.0882 -16.137
L55.7323 -15.7833
L55.3704 -15.4358
L55.0026 -15.0946
L54.629 -14.7597
L54.2498 -14.4313
L53.8649 -14.1095
L53.4747 -13.7943
L53.0791 -13.4859
L52.6783 -13.1843
L52.2724 -12.8897
L51.8616 -12.6022
L51.446 -12.3218
L51.0256 -12.0485
L50.6007 -11.7826
L50.1713 -11.5241
L49.7376 -11.273
L49.2997 -11.0294
L48.8577 -10.7935
L48.4119 -10.5652
L47.9622 -10.3447
L47.509 -10.132
L47.0522 -9.92714
L46.592 -9.73025
L46.1286 -9.54137
L45.6622 -9.36054
L45.1928 -9.18783
L44.7206 -9.02328
L44.2457 -8.86696
L43.7683 -8.7189
L43.2886 -8.57914
L42.8066 -8.44774
z
" id="C0_1_ff8700ea4e"/>
     <path d="
M17.1558 -14.6597
L17.1935 -14.9126
L17.2266 -15.1709
L17.2554 -15.4343
L17.2802 -15.7025
L17.3012 -15.9753
L17.3189 -16.2524
L17.3335 -16.5336
L17.3452 -16.8185
L17.3545 -17.1071
L17.3615 -17.399
L17.3665 -17.6939
L17.3698 -17.9917
L17.3717 -18.2921
L17.3723 -18.595
L17.3719 -18.9
L17.3707 -19.2071
L17.3688 -19.516
L17.3666 -19.8264
L17.3641 -20.1383
L17.3615 -20.4515
L17.359 -20.7658
L17.3567 -21.081
L17.3547 -21.397
L17.3532 -21.7136
L17.3523 -22.0307
L17.352 -22.3483
L17.3525 -22.6661
L17.3539 -22.984
L17.3561 -23.302
L17.3594 -23.6199
L17.3637 -23.9377
L17.3691 -24.2552
L17.3757 -24.5724
L17.3835 -24.8892
L17.3925 -25.2056
L17.4028 -25.5214
L17.4144 -25.8366
L17.4274 -26.1512
L17.4417 -26.4651
L17.4573 -26.7783
L17.4744 -27.0908
L17.4929 -27.4024
L17.5127 -27.7132
L17.534 -28.0231
L17.5568 -28.3322
L17.5809 -28.6403
L17.6065 -28.9476
L17.6335 -29.2539
L17.662 -29.5593
L17.6919 -29.8638
L17.7232 -30.1673
L17.756 -30.4699
L17.7902 -30.7715
L17.8259 -31.0722
L17.8629 -31.372
L17.9014 -31.6709
L17.9413 -31.9688
L17.9826 -32.2658
L18.0254 -32.562
L18.0695 -32.8573
L18.1151 -33.1517
L18.162 -33.4453
L18.2104 -33.7381
L18.2601 -34.0301
L18.3113 -34.3213
L18.3638 -34.6118
L18.4177 -34.9015
L18.4731 -35.1906
L18.5298 -35.4789
L18.5879 -35.7666
L18.6474 -36.0537
L18.7083 -36.3401
L18.7705 -36.626
L18.8342 -36.9114
L18.8993 -37.1962
L18.9658 -37.4805
L19.0336 -37.7644
L19.1029 -38.0478
L19.1736 -38.3308
L19.2458 -38.6134
L19.3193 -38.8957
L19.3943 -39.1777
L19.4707 -39.4593
L19.5486 -39.7407
L19.628 -40.0219
L19.7087 -40.3028
L19.791 -40.5836
L19.8748 -40.8642
L19.96 -41.1447
L20.0468 -41.4251
L20.135 -41.7054
L20.2248 -41.9856
L20.3161 -42.2658
L20.409 -42.5461
L20.5034 -42.8263
L20.5994 -43.1066
L20.6969 -43.3869
L20.7961 -43.6674
L20.8969 -43.9479
L20.9992 -44.2286
L21.1032 -44.5094
L21.2089 -44.7904
L21.3162 -45.0716
L21.4251 -45.3529
L21.5357 -45.6345
L21.648 -45.9163
L21.762 -46.1983
L21.8776 -46.4805
L21.995 -46.7631
L22.114 -47.0458
L22.2348 -47.3289
L22.3573 -47.6122
L22.4815 -47.8957
L22.6074 -48.1796
L22.735 -48.4637
L22.8643 -48.7481
L22.9953 -49.0327
L23.1279 -49.3176
L23.2623 -49.6027
L23.3983 -49.8881
L23.5359 -50.1737
L23.6752 -50.4595
L23.816 -50.7454
L23.9584 -51.0315
L24.1023 -51.3178
L24.2476 -51.6042
L24.3944 -51.8906
L24.5426 -52.1771
L24.6921 -52.4637
L24.8428 -52.7502
L24.9947 -53.0366
L25.1478 -53.323
L25.3018 -53.6092
L25.4568 -53.8952
L25.6125 -54.181
L25.769 -54.4665
L25.9261 -54.7517
L26.0836 -55.0365
L26.2414 -55.3208
L26.3994 -55.6046
L26.5573 -55.8879
L26.7151 -56.1705
L26.8725 -56.4524
L27.0293 -56.7336
L27.1854 -57.0139
L27.3404 -57.2934
L27.4942 -57.5719
L27.6466 -57.8493
L27.7971 -58.1256
L27.9457 -58.4008
L28.0919 -58.6747
L28.2355 -58.9473
L28.3762 -59.2185
L28.5137 -59.4882
L28.6476 -59.7564
L28.7776 -60.023
L28.9034 -60.2879
L29.0246 -60.551
L29.1408 -60.8123
L29.2518 -61.0717
L29.3571 -61.3291
L29.4565 -61.5844
L29.5494 -61.8376
L29.6357 -62.0885
L29.715 -62.3372
L29.7868 -62.5834
L29.851 -62.8272
L29.9072 -63.0684
L29.9551 -63.3069
L29.9944 -63.5427
L29.5209 -63.7757
L29.0375 -63.7538
L28.5562 -63.6364
L28.0772 -63.5107
L27.6006 -63.3766
L27.1266 -63.2342
L26.6553 -63.0834
L26.1868 -62.9245
L25.7213 -62.7573
L25.259 -62.5819
L24.7999 -62.3985
L24.3442 -62.207
L23.8921 -62.0076
L23.4437 -61.8002
L22.9991 -61.5849
L22.5584 -61.3619
L22.1219 -61.1311
L21.6896 -60.8927
L21.2616 -60.6467
L20.8381 -60.3932
L20.4193 -60.1323
L20.0052 -59.864
L19.5959 -59.5884
L19.1917 -59.3057
L18.7925 -59.0159
L18.3987 -58.719
L18.0101 -58.4152
L17.6271 -58.1046
L17.2497 -57.7873
L16.8779 -57.4633
L16.512 -57.1328
L16.1521 -56.7959
L15.7981 -56.4526
L15.4504 -56.1031
L15.1089 -55.7475
L14.7737 -55.3858
L14.445 -55.0183
L14.1229 -54.6449
L13.8075 -54.2659
L13.4988 -53.8813
L13.1969 -53.4913
L12.902 -53.0959
L12.6142 -52.6953
L12.3334 -52.2897
L12.0599 -51.8791
L11.7937 -51.4636
L11.5348 -51.0434
L11.2834 -50.6187
L11.0396 -50.1895
L10.8033 -49.7559
L10.5747 -49.3182
L10.3538 -48.8765
L10.1408 -48.4308
L9.93563 -47.9813
L9.7384 -47.5282
L9.54918 -47.0715
L9.36801 -46.6115
L9.19495 -46.1483
L9.03006 -45.6819
L8.87339 -45.2126
L8.72498 -44.7405
L8.58487 -44.2658
L8.45312 -43.7885
L8.32976 -43.3089
L8.21483 -42.827
L8.10836 -42.343
L8.01038 -41.8572
L7.92094 -41.3695
L7.84004 -40.8802
L7.76772 -40.3894
L7.70401 -39.8973
L7.64891 -39.4039
L7.60245 -38.9096
L7.56464 -38.4144
L7.53549 -37.9184
L7.51501 -37.4218
L7.50321 -36.9248
L7.50009 -36.4276
L7.50565 -35.9302
L7.51988 -35.4328
L7.5428 -34.9356
L7.57438 -34.4387
L7.61462 -33.9423
L7.66351 -33.4465
L7.72103 -32.9515
L7.78716 -32.4574
L7.86189 -31.9644
L7.94519 -31.4727
L8.03704 -30.9823
L8.1374 -30.4934
L8.24625 -30.0062
L8.36355 -29.5209
L8.48927 -29.0375
L8.62337 -28.5562
L8.76582 -28.0772
L8.91655 -27.6006
L9.07554 -27.1266
L9.24273 -26.6553
L9.41807 -26.1868
L9.6015 -25.7213
L9.79298 -25.259
L9.99244 -24.7999
L10.1998 -24.3442
L10.4151 -23.8921
L10.6381 -23.4437
L10.8689 -22.9991
L11.1073 -22.5584
L11.3533 -22.1219
L11.6068 -21.6896
L11.8677 -21.2616
L12.136 -20.8381
L12.4116 -20.4193
L12.6943 -20.0052
L12.9841 -19.5959
L13.281 -19.1917
L13.5848 -18.7925
L13.8954 -18.3987
L14.2127 -18.0101
L14.5367 -17.6271
L14.8672 -17.2497
L15.2041 -16.8779
L15.5474 -16.512
L15.8969 -16.1521
L16.2525 -15.7981
L16.6142 -15.4504
z
" id="C0_2_471073dd90"/>
    </defs>
    <g clip-path="url(#p1bffca34e9)">
     <use style="fill:#ff0000;stroke:#000000;stroke-width:2.0;" x="0.0" xlink:href="#C0_0_a811fe30f3" y="72.0"/>
    </g>
    <g clip-path="url(#p1bffca34e9)">
     <use style="fill:#ffffff;stroke:#000000;stroke-width:2.0;" x="0.0" xlink:href="#C0_1_ff8700ea4e" y="72.0"/>
    </g>
    <g clip-path="url(#p1bffca34e9)">
     <use style="fill:#ffffff;stroke:#000000;stroke-width:2.0;" x="0.0" xlink:href="#C0_2_471073dd90" y="72.0"/>
    </g>
   </g>
  </g>
 </g>
 <defs>
  <clipPath id="p1bffca34e9">
   <rect height="72.0" width="72.0" x="0.0" y="0.0"/>
  </clipPath>
 </defs>
</svg>
