<?xml version="1.0" encoding="utf-8" standalone="no"?>
<!DOCTYPE svg PUBLIC "-//W3C//DTD SVG 1.1//EN"
  "http://www.w3.org/Graphics/SVG/1.1/DTD/svg11.dtd">
<!-- Created with matplotlib (http://matplotlib.org/) -->
<svg height="72pt" version="1.1" viewBox="0 0 72 72" width="72pt" xmlns="http://www.w3.org/2000/svg" xmlns:xlink="http://www.w3.org/1999/xlink">
 <defs>
  <style type="text/css">
*{stroke-linecap:butt;stroke-linejoin:round;}
  </style>
 </defs>
 <g id="figure_1">
  <g id="patch_1">
   <path d="
M0 72
L72 72
L72 0
L0 0
z
" style="fill:none;"/>
  </g>
  <g id="axes_1">
   <g id="PatchCollection_1">
    <defs>
     <path d="
M36 -7.5
C43.5583 -7.5 50.808 -10.5029 56.1525 -15.8475
C61.4971 -21.192 64.5 -28.4417 64.5 -36
C64.5 -43.5583 61.4971 -50.808 56.1525 -56.1525
C50.808 -61.4971 43.5583 -64.5 36 -64.5
C28.4417 -64.5 21.192 -61.4971 15.8475 -56.1525
C10.5029 -50.808 7.5 -43.5583 7.5 -36
C7.5 -28.4417 10.5029 -21.192 15.8475 -15.8475
C21.192 -10.5029 28.4417 -7.5 36 -7.5
z
" id="C0_0_a811fe30f3"/>
     <path d="
M63.7975 -41.4329
L63.5731 -41.24
L63.3477 -41.046
L63.1211 -40.8513
L62.8936 -40.6563
L62.6651 -40.4614
L62.4357 -40.267
L62.2056 -40.0732
L61.9748 -39.8803
L61.7434 -39.6885
L61.5115 -39.498
L61.2791 -39.309
L61.0463 -39.1215
L60.8132 -38.9358
L60.58 -38.7517
L60.3465 -38.5696
L60.113 -38.3893
L59.8795 -38.211
L59.6459 -38.0347
L59.4125 -37.8604
L59.1792 -37.6882
L58.946 -37.518
L58.7131 -37.3498
L58.4804 -37.1837
L58.248 -37.0197
L58.0159 -36.8577
L57.7842 -36.6976
L57.5527 -36.5396
L57.3217 -36.3836
L57.091 -36.2295
L56.8608 -36.0773
L56.6309 -35.927
L56.4014 -35.7785
L56.1723 -35.6319
L55.9436 -35.4871
L55.7154 -35.344
L55.4875 -35.2026
L55.2599 -35.0629
L55.0328 -34.9249
L54.8059 -34.7884
L54.5794 -34.6535
L54.3533 -34.5202
L54.1274 -34.3883
L53.9018 -34.2579
L53.6764 -34.1289
L53.4512 -34.0012
L53.2263 -33.8749
L53.0015 -33.7499
L52.7768 -33.6262
L52.5523 -33.5037
L52.3278 -33.3824
L52.1033 -33.2622
L51.8789 -33.1432
L51.6544 -33.0253
L51.4299 -32.9084
L51.2052 -32.7926
L50.9804 -32.6777
L50.7554 -32.5638
L50.5302 -32.4509
L50.3048 -32.3388
L50.079 -32.2276
L49.8528 -32.1172
L49.6263 -32.0077
L49.3993 -31.8989
L49.1719 -31.7909
L48.9439 -31.6836
L48.4862 -31.577
L48.2563 -31.4711
L48.0257 -31.3658
L47.7944 -31.2612
L47.5622 -31.1571
L47.3292 -31.0537
L47.0952 -30.9508
L46.8603 -30.8484
L46.6243 -30.7465
L46.3873 -30.6452
L46.1491 -30.5442
L45.9098 -30.4438
L45.6692 -30.3438
L45.4273 -30.2441
L45.184 -30.1449
L44.9394 -30.0461
L44.6933 -29.9476
L44.4457 -29.8494
L44.1965 -29.7516
L43.9456 -29.6541
L43.6931 -29.5569
L43.4388 -29.4599
L43.1827 -29.3633
L42.9248 -29.2669
L42.6649 -29.1707
L42.4031 -29.0748
L42.1392 -28.9791
L41.8732 -28.8836
L41.6051 -28.7883
L41.3348 -28.6932
L41.0622 -28.5983
L40.7873 -28.5035
L40.51 -28.409
L40.2302 -28.3146
L39.9481 -28.2203
L39.6633 -28.1263
L39.3761 -28.0324
L39.0861 -27.9386
L38.7936 -27.845
L38.4983 -27.7515
L38.2003 -27.6582
L37.8995 -27.565
L37.5959 -27.4719
L37.2894 -27.379
L36.9801 -27.2862
L36.6679 -27.1936
L36.3529 -27.1011
L36.0349 -27.0088
L35.714 -26.9166
L35.3903 -26.8245
L35.0637 -26.7325
L34.7343 -26.6407
L34.402 -26.549
L34.067 -26.4574
L33.7293 -26.3659
L33.3889 -26.2745
L33.046 -26.1831
L32.7007 -26.0918
L32.353 -26.0006
L32.003 -25.9093
L31.6511 -25.8179
L31.2972 -25.7264
L30.9417 -25.6348
L30.5846 -25.5429
L30.2263 -25.4507
L29.8671 -25.3581
L29.5072 -25.2649
L29.1469 -25.171
L28.7867 -25.0763
L28.4269 -24.9806
L28.0681 -24.8836
L27.7105 -24.7851
L27.3549 -24.6849
L27.0018 -24.5826
L26.6519 -24.4778
L26.3058 -24.3702
L25.9642 -24.2593
L25.6281 -24.1446
L25.2982 -24.0255
L24.9756 -23.9015
L24.661 -23.7718
L24.3557 -23.6358
L24.0607 -23.4927
L23.7769 -23.3417
L23.5057 -23.1821
L23.2479 -23.013
L23.0047 -22.8337
L22.777 -22.6435
L22.5657 -22.4417
L22.3716 -22.2278
L22.1954 -22.0015
L22.0375 -21.7625
L21.8982 -21.5108
L21.7777 -21.2465
L21.676 -20.9698
L21.593 -20.6814
L21.5283 -20.3817
L21.4816 -20.0716
L21.4524 -19.7519
L21.4402 -19.4235
L21.4443 -19.0874
L21.4642 -18.7446
L21.4992 -18.3961
L21.5487 -18.0428
L21.612 -17.6856
L21.6886 -17.3256
L21.7778 -16.9635
L21.8792 -16.6002
L21.992 -16.2363
L22.1159 -15.8726
L22.2503 -15.5098
L22.3947 -15.1484
L22.5487 -14.7889
L22.7118 -14.4318
L22.8836 -14.0777
L23.0639 -13.7268
L23.2521 -13.3796
L23.4479 -13.0363
L23.651 -12.6974
L23.8611 -12.3629
L24.0779 -12.0332
L24.301 -11.7085
L24.5303 -11.3889
L24.7654 -11.0746
L25.0061 -10.7657
L25.2522 -10.4623
L25.5035 -10.1646
L25.7597 -9.87265
L26.0206 -9.58644
L26.4875 -9.30608
L26.9578 -9.13438
L27.4308 -8.97246
L27.9065 -8.81876
L28.3847 -8.67335
L28.8651 -8.53626
L29.3478 -8.40754
L29.8325 -8.28722
L30.319 -8.17535
L30.8073 -8.07194
L31.2971 -7.97705
L31.7884 -7.89069
L32.281 -7.8129
L32.7747 -7.74369
L33.2694 -7.68309
L33.7649 -7.63111
L34.2611 -7.58778
L34.7579 -7.5531
L35.255 -7.52708
L35.7523 -7.50974
L36.2497 -7.50108
L36.7471 -7.50109
L37.2442 -7.50979
L37.7409 -7.52717
L38.2371 -7.55322
L38.7326 -7.58794
L39.2273 -7.63131
L39.721 -7.68332
L40.2136 -7.74395
L40.7049 -7.8132
L41.1947 -7.89103
L41.683 -7.97742
L42.1695 -8.07235
L42.6542 -8.17578
L43.1368 -8.28769
L43.6173 -8.40804
L44.0954 -8.5368
L44.5711 -8.67392
L45.0441 -8.81937
L45.5144 -8.9731
L45.9819 -9.13505
L46.4462 -9.3052
L46.9074 -9.48347
L47.3653 -9.66982
L47.8197 -9.86419
L48.2705 -10.0665
L48.7175 -10.2768
L49.1607 -10.4948
L49.5999 -10.7207
L50.0349 -10.9542
L50.4657 -11.1954
L50.8921 -11.4441
L51.3139 -11.7003
L51.731 -11.9639
L52.1434 -12.2348
L52.5509 -12.513
L52.9533 -12.7983
L53.3505 -13.0907
L53.7425 -13.39
L54.129 -13.6963
L54.51 -14.0093
L54.8854 -14.3291
L55.2551 -14.6554
L55.6188 -14.9883
L55.9766 -15.3275
L56.3283 -15.6731
L56.6739 -16.0248
L57.0131 -16.3826
L57.3459 -16.7464
L57.6722 -17.1161
L57.9919 -17.4915
L58.305 -17.8725
L58.6112 -18.2591
L58.9105 -18.6511
L59.2029 -19.0484
L59.4882 -19.4508
L59.7663 -19.8583
L60.0372 -20.2706
L60.3008 -20.6878
L60.5569 -21.1097
L60.8056 -21.536
L61.0468 -21.9668
L61.2803 -22.4019
L61.5061 -22.8411
L61.7241 -23.2843
L61.9343 -23.7313
L62.1366 -24.1822
L62.331 -24.6366
L62.5173 -25.0945
L62.6955 -25.5557
L62.8656 -26.02
L63.0275 -26.4875
L63.1812 -26.9578
L63.3266 -27.4308
L63.4637 -27.9065
L63.5925 -28.3847
L63.7128 -28.8651
L63.8247 -29.3478
L63.9281 -29.8325
L64.0229 -30.319
L64.1093 -30.8073
L64.1871 -31.2971
L64.2563 -31.7884
L64.3169 -32.281
L64.3689 -32.7747
L64.4122 -33.2694
L64.4469 -33.7649
L64.4729 -34.2611
L64.4903 -34.7579
L64.4989 -35.255
L64.4989 -35.7523
L64.4902 -36.2497
L64.4728 -36.7471
L64.4468 -37.2442
L64.4121 -37.7409
L64.3687 -38.2371
L64.3167 -38.7326
L64.256 -39.2273
L64.1868 -39.721
L64.109 -40.2136
z
" id="C0_1_0fa6fda33c"/>
     <path d="
M45.602 -62.658
L45.228 -62.614
L44.8583 -62.5653
L44.4931 -62.5121
L44.1324 -62.4546
L43.7761 -62.3929
L43.4242 -62.3271
L43.0767 -62.2575
L42.7335 -62.1841
L42.3945 -62.1071
L42.0599 -62.0266
L41.7294 -61.9429
L41.403 -61.8559
L41.0807 -61.7658
L40.7623 -61.6727
L40.4479 -61.5767
L40.1373 -61.478
L39.8305 -61.3766
L39.5273 -61.2725
L39.2278 -61.166
L38.9318 -61.0571
L38.6393 -60.9458
L38.3502 -60.8322
L38.0643 -60.7164
L37.7817 -60.5984
L37.5022 -60.4783
L37.2258 -60.3562
L36.9524 -60.2321
L36.6818 -60.106
L36.4141 -59.978
L36.1492 -59.8481
L35.8869 -59.7163
L35.6272 -59.5827
L35.3701 -59.4473
L35.1154 -59.3101
L34.8631 -59.1712
L34.6131 -59.0305
L34.3653 -58.888
L34.1197 -58.7439
L33.8762 -58.598
L33.6348 -58.4504
L33.3954 -58.3011
L33.1578 -58.15
L32.9221 -57.9973
L32.6882 -57.8428
L32.456 -57.6866
L32.2255 -57.5286
L31.9967 -57.3688
L31.7693 -57.2073
L31.5435 -57.044
L31.3191 -56.8788
L31.0962 -56.7119
L30.8745 -56.543
L30.6542 -56.3723
L30.4351 -56.1996
L30.2172 -56.025
L30.0005 -55.8485
L29.7849 -55.6699
L29.5704 -55.4893
L29.3569 -55.3065
L29.1444 -55.1217
L28.9328 -54.9347
L28.7221 -54.7455
L28.5124 -54.554
L28.3034 -54.3603
L28.0953 -54.1642
L27.8879 -53.9657
L27.6813 -53.7647
L27.4754 -53.5613
L27.2702 -53.3553
L27.0657 -53.1468
L26.8618 -52.9355
L26.6585 -52.7216
L26.4559 -52.5049
L26.2538 -52.2853
L26.0523 -52.0628
L25.8513 -51.8374
L25.6508 -51.609
L25.4509 -51.3775
L25.2515 -51.1429
L25.0526 -50.905
L24.8542 -50.6639
L24.6563 -50.4194
L24.4589 -50.1715
L24.262 -49.9201
L24.0657 -49.6652
L23.8698 -49.4067
L23.6745 -49.1446
L23.4797 -48.8786
L23.2855 -48.6089
L23.0918 -48.3354
L22.8987 -48.0579
L22.7063 -47.7765
L22.5145 -47.491
L22.3234 -47.2015
L22.133 -46.9079
L21.9433 -46.61
L21.7544 -46.308
L21.5663 -46.0018
L21.3791 -45.6913
L21.1928 -45.3765
L21.0074 -45.0575
L20.8231 -44.7341
L20.6398 -44.4065
L20.4576 -44.0746
L20.2766 -43.7385
L20.0968 -43.3982
L19.9182 -43.0538
L19.741 -42.7053
L19.5651 -42.3529
L19.3906 -41.9966
L19.2176 -41.6365
L19.0461 -41.2729
L18.8761 -40.9059
L18.7076 -40.5358
L18.5407 -40.1626
L18.3753 -39.7868
L18.2114 -39.4086
L18.049 -39.0284
L17.888 -38.6465
L17.7284 -38.2633
L17.57 -37.8794
L17.4128 -37.4952
L17.2564 -37.1113
L17.1008 -36.7285
L16.9456 -36.3472
L16.7906 -35.9684
L16.6355 -35.5928
L16.4797 -35.2213
L16.3229 -34.8549
L16.1645 -34.4946
L16.0041 -34.1415
L15.841 -33.7967
L15.6745 -33.4614
L15.504 -33.1367
L15.3288 -32.8238
L15.1483 -32.524
L14.9617 -32.2383
L14.7686 -31.9678
L14.5683 -31.7134
L14.3605 -31.4759
L14.1448 -31.2559
L13.9212 -31.0539
L13.6896 -30.8702
L13.4501 -30.7048
L13.203 -30.5576
L12.9488 -30.4284
L12.6878 -30.3168
L12.4207 -30.2222
L12.1481 -30.1441
L11.8708 -30.0819
L11.5894 -30.0347
L11.3047 -30.002
L11.0174 -29.9829
L10.7282 -29.9769
L10.4377 -29.9832
L10.1466 -30.0011
L9.85551 -30.0302
L9.56488 -30.0697
L9.27526 -30.1192
L8.9871 -30.1781
L8.70084 -30.2461
L8.41684 -30.3225
L7.96368 -30.4072
L7.87859 -30.88
L7.80207 -31.3701
L7.73414 -31.8616
L7.67482 -32.3543
L7.62412 -32.8482
L7.58208 -33.343
L7.54868 -33.8386
L7.52396 -34.3349
L7.5079 -34.8317
L7.50053 -35.3289
L7.50184 -35.8262
L7.51183 -36.3236
L7.53049 -36.8209
L7.55783 -37.318
L7.59383 -37.8147
L7.63849 -38.3108
L7.69178 -38.8062
L7.7537 -39.3007
L7.82422 -39.7943
L7.90333 -40.2867
L7.99099 -40.7777
L8.08718 -41.2674
L8.19188 -41.7554
L8.30505 -42.2417
L8.42665 -42.726
L8.55665 -43.2084
L8.69501 -43.6885
L8.84169 -44.1663
L8.99665 -44.6416
L9.15982 -45.1142
L9.33118 -45.5841
L9.51065 -46.0511
L9.6982 -46.515
L9.89376 -46.9757
L10.0973 -47.433
L10.3087 -47.8869
L10.5279 -48.3372
L10.7549 -48.7837
L10.9896 -49.2263
L11.2318 -49.6648
L11.4817 -50.0992
L11.739 -50.5294
L12.0037 -50.955
L12.2757 -51.3762
L12.5549 -51.7926
L12.8413 -52.2043
L13.1347 -52.611
L13.4351 -53.0126
L13.7424 -53.4091
L14.0564 -53.8002
L14.3772 -54.186
L14.7045 -54.5662
L15.0383 -54.9407
L15.3785 -55.3095
L15.725 -55.6724
L16.0776 -56.0293
L16.4363 -56.3801
L16.801 -56.7247
L17.1715 -57.063
L17.5478 -57.3948
L17.9297 -57.7202
L18.317 -58.0389
L18.7098 -58.3509
L19.1078 -58.6561
L19.511 -58.9544
L19.9192 -59.2457
L20.3323 -59.53
L20.7502 -59.807
L21.1727 -60.0768
L21.5998 -60.3393
L22.0312 -60.5944
L22.4669 -60.842
L22.9067 -61.082
L23.3505 -61.3143
L23.7981 -61.539
L24.2495 -61.7559
L24.7044 -61.9649
L25.1628 -62.166
L25.6245 -62.3592
L26.0893 -62.5443
L26.5572 -62.7213
L27.0279 -62.8902
L27.5014 -63.0509
L27.9774 -63.2034
L28.4559 -63.3476
L28.9367 -63.4834
L29.4197 -63.6109
L29.9046 -63.7299
L30.3915 -63.8406
L30.88 -63.9427
L31.3701 -64.0363
L31.8616 -64.1214
L32.3543 -64.1979
L32.8482 -64.2659
L33.343 -64.3252
L33.8386 -64.3759
L34.3349 -64.4179
L34.8317 -64.4513
L35.3289 -64.476
L35.8262 -64.4921
L36.3236 -64.4995
L36.8209 -64.4982
L37.318 -64.4882
L37.8147 -64.4695
L38.3108 -64.4422
L38.8062 -64.4062
L39.3007 -64.3615
L39.7943 -64.3082
L40.2867 -64.2463
L40.7777 -64.1758
L41.2674 -64.0967
L41.7554 -64.009
L42.2417 -63.9128
L42.726 -63.8081
L43.2084 -63.695
L43.6885 -63.5734
L44.1663 -63.4433
L44.6416 -63.305
L45.1142 -63.1583
z
" id="C0_2_826b78b740"/>
    </defs>
    <g clip-path="url(#p1bffca34e9)">
     <use style="fill:#ff0000;stroke:#000000;stroke-width:2.0;" x="0.0" xlink:href="#C0_0_a811fe30f3" y="72.0"/>
    </g>
    <g clip-path="url(#p1bffca34e9)">
     <use style="fill:#ffffff;stroke:#000000;stroke-width:2.0;" x="0.0" xlink:href="#C0_1_0fa6fda33c" y="72.0"/>
    </g>
    <g clip-path="url(#p1bffca34e9)">
     <use style="fill:#ffffff;stroke:#000000;stroke-width:2.0;" x="0.0" xlink:href="#C0_2_826b78b740" y="72.0"/>
    </g>
   </g>
  </g>
 </g>
 <defs>
  <clipPath id="p1bffca34e9">
   <rect height="72.0" width="72.0" x="0.0" y="0.0"/>
  </clipPath>
 </defs>
</svg>
