<?xml version="1.0" encoding="utf-8" standalone="no"?>
<!DOCTYPE svg PUBLIC "-//W3C//DTD SVG 1.1//EN"
  "http://www.w3.org/Graphics/SVG/1.1/DTD/svg11.dtd">
<!-- Created with matplotlib (http://matplotlib.org/) -->
<svg height="72pt" version="1.1" viewBox="0 0 72 72" width="72pt" xmlns="http://www.w3.org/2000/svg" xmlns:xlink="http://www.w3.org/1999/xlink">
 <defs>
  <style type="text/css">
*{stroke-linecap:butt;stroke-linejoin:round;}
  </style>
 </defs>
 <g id="figure_1">
  <g id="patch_1">
   <path d="
M0 72
L72 72
L72 0
L0 0
z
" style="fill:none;"/>
  </g>
  <g id="axes_1">
   <g id="PatchCollection_1">
    <defs>
     <path d="
M36 -7.5
C43.5583 -7.5 50.808 -10.5029 56.1525 -15.8475
C61.4971 -21.192 64.5 -28.4417 64.5 -36
C64.5 -43.5583 61.4971 -50.808 56.1525 -56.1525
C50.808 -61.4971 43.5583 -64.5 36 -64.5
C28.4417 -64.5 21.192 -61.4971 15.8475 -56.1525
C10.5029 -50.808 7.5 -43.5583 7.5 -36
C7.5 -28.4417 10.5029 -21.192 15.8475 -15.8475
C21.192 -10.5029 28.4417 -7.5 36 -7.5
z
" id="C0_0_a811fe30f3"/>
     <path d="
M62.501 -25.7923
L62.2037 -25.5133
L61.9049 -25.2645
L61.6056 -25.0475
L61.307 -24.863
L61.01 -24.7119
L60.7152 -24.5941
L60.4234 -24.5094
L60.135 -24.457
L59.8502 -24.4356
L59.569 -24.4437
L59.2914 -24.4794
L59.0173 -24.5405
L58.7463 -24.6249
L58.4781 -24.7304
L58.2124 -24.8547
L57.9489 -24.9959
L57.6872 -25.1518
L57.4271 -25.3207
L57.1683 -25.501
L56.9106 -25.6911
L56.6538 -25.8896
L56.3977 -26.0953
L56.1422 -26.3072
L55.8873 -26.5242
L55.6329 -26.7454
L55.379 -26.9702
L55.1255 -27.1977
L54.8724 -27.4275
L54.6198 -27.6589
L54.3677 -27.8915
L54.1161 -28.1248
L53.865 -28.3586
L53.6146 -28.5923
L53.3647 -28.8258
L53.1156 -29.0589
L52.8673 -29.2912
L52.6197 -29.5225
L52.3729 -29.7528
L52.1271 -29.9818
L51.8821 -30.2094
L51.6382 -30.4355
L51.3952 -30.6601
L51.1533 -30.8829
L50.9125 -31.104
L50.6727 -31.3233
L50.4341 -31.5407
L50.1966 -31.7563
L49.9603 -31.9699
L49.7252 -32.1816
L49.4912 -32.3914
L49.2584 -32.5992
L49.0268 -32.8051
L48.7964 -33.009
L48.5671 -33.211
L48.3391 -33.411
L48.1122 -33.6091
L47.8865 -33.8054
L47.6619 -33.9998
L47.4385 -34.1924
L47.2161 -34.3831
L46.9949 -34.5721
L46.7747 -34.7593
L46.5555 -34.9448
L46.3374 -35.1287
L46.1203 -35.3109
L45.9041 -35.4915
L45.6888 -35.6705
L45.4745 -35.848
L45.261 -36.0241
L45.0484 -36.1987
L44.8365 -36.3718
L44.6254 -36.5437
L44.4151 -36.7142
L44.2054 -36.8834
L43.9964 -37.0513
L43.7879 -37.2181
L43.5801 -37.3837
L43.3728 -37.5482
L43.166 -37.7117
L42.9596 -37.8741
L42.7537 -38.0354
L42.5481 -38.1959
L42.3428 -38.3554
L42.1378 -38.514
L41.9331 -38.6719
L41.7286 -38.8289
L41.5242 -38.9851
L41.3199 -39.1406
L41.1157 -39.2955
L40.9115 -39.4497
L40.7072 -39.6033
L40.5029 -39.7563
L40.2985 -39.9087
L40.0939 -40.0607
L39.684 -40.2122
L39.4786 -40.3633
L39.2729 -40.514
L39.0668 -40.6644
L38.8602 -40.8144
L38.6531 -40.9641
L38.4455 -41.1136
L38.2372 -41.2628
L38.0284 -41.4119
L37.8188 -41.5607
L37.6085 -41.7095
L37.3974 -41.8582
L37.1854 -42.0068
L36.9726 -42.1554
L36.7588 -42.3039
L36.544 -42.4526
L36.3282 -42.6012
L36.1112 -42.75
L35.8932 -42.8988
L35.6739 -43.0478
L35.4533 -43.197
L35.2315 -43.3464
L35.0083 -43.496
L34.7837 -43.6458
L34.5576 -43.7959
L34.3301 -43.9464
L34.1009 -44.0971
L33.8702 -44.2482
L33.6378 -44.3997
L33.4037 -44.5515
L33.1679 -44.7038
L32.9302 -44.8565
L32.6907 -45.0096
L32.4493 -45.1633
L32.206 -45.3174
L31.9607 -45.472
L31.7133 -45.6271
L31.4639 -45.7828
L31.2125 -45.939
L30.9588 -46.0957
L30.7031 -46.2531
L30.4451 -46.411
L30.1849 -46.5695
L29.9225 -46.7285
L29.6579 -46.8882
L29.391 -47.0485
L29.1218 -47.2093
L28.8503 -47.3708
L28.5766 -47.5328
L28.3007 -47.6955
L28.0225 -47.8587
L27.7422 -48.0225
L27.4596 -48.1869
L27.175 -48.3519
L26.8884 -48.5174
L26.5997 -48.6835
L26.3092 -48.8501
L26.0169 -49.0172
L25.7229 -49.1849
L25.4275 -49.3532
L25.1306 -49.5219
L24.8326 -49.6912
L24.5335 -49.861
L24.2338 -50.0314
L23.9335 -50.2023
L23.633 -50.3739
L23.3326 -50.546
L23.0328 -50.7189
L22.7338 -50.8925
L22.4362 -51.067
L22.1404 -51.2425
L21.8472 -51.419
L21.557 -51.5969
L21.2707 -51.7762
L20.989 -51.9573
L20.7129 -52.1404
L20.4433 -52.326
L20.1813 -52.5144
L19.9283 -52.7061
L19.6856 -52.9016
L19.4546 -53.1017
L19.2371 -53.3071
L19.0348 -53.5185
L18.8495 -53.7367
L18.6833 -53.9628
L18.538 -54.1976
L18.4158 -54.442
L18.3185 -54.697
L18.2478 -54.9633
L18.2054 -55.2415
L18.1923 -55.532
L18.2095 -55.835
L18.2574 -56.1502
L18.3362 -56.4772
L18.4454 -56.8153
L18.5844 -57.1633
L18.7523 -57.5201
L18.948 -57.8843
L19.1701 -58.2543
L19.4173 -58.6286
L19.741 -59.0057
L20.152 -59.4072
L20.5678 -59.6874
L20.9884 -59.9603
L21.4134 -60.226
L21.843 -60.4843
L22.2768 -60.7352
L22.7148 -60.9785
L23.1569 -61.2142
L23.6029 -61.4422
L24.0527 -61.6625
L24.5061 -61.8749
L24.963 -62.0795
L25.4232 -62.2761
L25.8867 -62.4647
L26.3533 -62.6453
L26.8228 -62.8177
L27.2951 -62.982
L27.77 -63.1381
L28.2475 -63.2858
L28.7273 -63.4253
L29.2093 -63.5564
L29.6934 -63.6792
L30.1795 -63.7935
L30.6673 -63.8993
L31.1567 -63.9966
L31.6476 -64.0854
L32.1398 -64.1657
L32.6332 -64.2374
L33.1276 -64.3004
L33.6229 -64.3549
L34.1189 -64.4007
L34.6155 -64.4379
L35.1125 -64.4664
L35.6098 -64.4862
L36.1072 -64.4973
L36.6046 -64.4998
L37.1018 -64.4936
L37.5987 -64.4787
L38.095 -64.4551
L38.5908 -64.4229
L39.0857 -64.382
L39.5797 -64.3325
L40.0726 -64.2743
L40.5643 -64.2075
L41.0545 -64.1321
L41.5433 -64.0482
L42.0303 -63.9557
L42.5156 -63.8547
L42.9988 -63.7452
L43.4799 -63.6273
L43.9587 -63.5009
L44.4351 -63.3662
L44.9089 -63.2231
L45.38 -63.0718
L45.8483 -62.9122
L46.3135 -62.7444
L46.7756 -62.5684
L47.2345 -62.3844
L47.6899 -62.1923
L48.1417 -61.9922
L48.5899 -61.7843
L49.0342 -61.5684
L49.4745 -61.3448
L49.9108 -61.1135
L50.3428 -60.8745
L50.7704 -60.6279
L51.1935 -60.3739
L51.612 -60.1124
L52.0258 -59.8435
L52.4347 -59.5674
L52.8385 -59.2842
L53.2373 -58.9938
L53.6307 -58.6964
L54.0188 -58.3921
L54.4015 -58.081
L54.7785 -57.7632
L55.1498 -57.4387
L55.5152 -57.1077
L55.8748 -56.7703
L56.2282 -56.4265
L56.5755 -56.0766
L56.9166 -55.7205
L57.2512 -55.3584
L57.5794 -54.9904
L57.901 -54.6166
L58.216 -54.2372
L58.5242 -53.8522
L58.8255 -53.4617
L59.1199 -53.066
L59.4072 -52.665
L59.6874 -52.259
L59.9603 -51.848
L60.226 -51.4322
L60.4843 -51.0116
L60.7352 -50.5866
L60.9785 -50.157
L61.2142 -49.7232
L61.4422 -49.2852
L61.6625 -48.8431
L61.8749 -48.3971
L62.0795 -47.9473
L62.2761 -47.4939
L62.4647 -47.037
L62.6453 -46.5768
L62.8177 -46.1133
L62.982 -45.6467
L63.1381 -45.1772
L63.2858 -44.7049
L63.4253 -44.23
L63.5564 -43.7525
L63.6792 -43.2727
L63.7935 -42.7907
L63.8993 -42.3066
L63.9966 -41.8205
L64.0854 -41.3327
L64.1657 -40.8433
L64.2374 -40.3524
L64.3004 -39.8602
L64.3549 -39.3668
L64.4007 -38.8724
L64.4379 -38.3771
L64.4664 -37.8811
L64.4862 -37.3845
L64.4973 -36.8875
L64.4998 -36.3902
L64.4936 -35.8928
L64.4787 -35.3954
L64.4551 -34.8982
L64.4229 -34.4013
L64.382 -33.905
L64.3325 -33.4092
L64.2743 -32.9143
L64.2075 -32.4203
L64.1321 -31.9274
L64.0482 -31.4357
L63.9557 -30.9455
L63.8547 -30.4567
L63.7452 -29.9697
L63.6273 -29.4844
L63.5009 -29.0012
L63.3662 -28.5201
L63.2231 -28.0413
L63.0718 -27.5649
L62.9122 -27.0911
z
" id="C0_1_a9b5596c61"/>
     <path d="
M52.2991 -12.6343
L51.8427 -12.4994
L51.3787 -12.3634
L50.9082 -12.2278
L50.4321 -12.0938
L49.9516 -11.9626
L49.4674 -11.8351
L48.9804 -11.7122
L48.4914 -11.5945
L48.001 -11.4826
L47.51 -11.377
L47.0189 -11.278
L46.5283 -11.1859
L46.0387 -11.1009
L45.5506 -11.0231
L45.0644 -10.9527
L44.5806 -10.8896
L44.0994 -10.8339
L43.6211 -10.7855
L43.1462 -10.7445
L42.6748 -10.7106
L42.2072 -10.6837
L41.7435 -10.6639
L41.2839 -10.6508
L40.8287 -10.6444
L40.3779 -10.6444
L39.9316 -10.6509
L39.49 -10.6634
L39.053 -10.682
L38.6209 -10.7064
L38.1935 -10.7364
L37.771 -10.7718
L37.3534 -10.8126
L36.9406 -10.8585
L36.5327 -10.9094
L36.1297 -10.965
L35.7315 -11.0253
L35.3381 -11.0901
L34.9494 -11.1593
L34.5655 -11.2326
L34.1863 -11.31
L33.8117 -11.3913
L33.4416 -11.4765
L33.0761 -11.5653
L32.715 -11.6578
L32.3582 -11.7536
L32.0058 -11.8529
L31.6575 -11.9554
L31.3134 -12.0611
L30.9734 -12.1698
L30.6374 -12.2816
L30.3053 -12.3963
L29.977 -12.5139
L29.6525 -12.6342
L29.3317 -12.7573
L29.0144 -12.8831
L28.7007 -13.0115
L28.3904 -13.1424
L28.0835 -13.2759
L27.7798 -13.4119
L27.4794 -13.5503
L27.182 -13.6912
L26.8878 -13.8344
L26.5965 -13.98
L26.3081 -14.128
L26.0225 -14.2783
L25.7397 -14.431
L25.4596 -14.5859
L25.1821 -14.7432
L24.9072 -14.9028
L24.6347 -15.0647
L24.3647 -15.2289
L24.0971 -15.3954
L23.8318 -15.5642
L23.5687 -15.7354
L23.3078 -15.9089
L23.049 -16.0849
L22.7924 -16.2632
L22.5377 -16.4439
L22.2851 -16.627
L22.0344 -16.8127
L21.7855 -17.0008
L21.5385 -17.1915
L21.2934 -17.3848
L21.0499 -17.5806
L20.8082 -17.7792
L20.5682 -17.9804
L20.3299 -18.1844
L20.0931 -18.3911
L19.858 -18.6007
L19.6244 -18.8133
L19.3924 -19.0287
L19.1619 -19.2472
L18.9328 -19.4688
L18.7053 -19.6935
L18.4792 -19.9214
L18.2546 -20.1526
L18.0315 -20.3871
L17.8097 -20.6251
L17.5895 -20.8665
L17.3706 -21.1115
L17.1532 -21.3601
L16.9372 -21.6125
L16.7227 -21.8686
L16.5097 -22.1287
L16.2982 -22.3927
L16.0882 -22.6608
L15.8797 -22.9331
L15.6727 -23.2095
L15.4674 -23.4904
L15.2637 -23.7756
L15.0617 -24.0654
L14.8615 -24.3598
L14.663 -24.6589
L14.4664 -24.9628
L14.2716 -25.2716
L14.0789 -25.5854
L13.8882 -25.9043
L13.6996 -26.2284
L13.5133 -26.5578
L13.3292 -26.8925
L13.1476 -27.2327
L12.9685 -27.5785
L12.7921 -27.9299
L12.6183 -28.287
L12.4475 -28.6498
L12.2797 -29.0186
L12.115 -29.3932
L11.9536 -29.7738
L11.7957 -30.1604
L11.6413 -30.5531
L11.4907 -30.9519
L11.344 -31.3567
L11.2015 -31.7677
L11.0632 -32.1848
L10.9294 -32.6079
L10.8002 -33.0371
L10.6758 -33.4722
L10.5564 -33.9132
L10.4422 -34.36
L10.3333 -34.8125
L10.23 -35.2704
L10.1323 -35.7337
L10.0405 -36.202
L9.95463 -36.6752
L9.87484 -37.1529
L9.80122 -37.6348
L9.73383 -38.1205
L9.67271 -38.6097
L9.61783 -39.1017
L9.56915 -39.5961
L9.52654 -40.0923
L9.48984 -40.5896
L9.45878 -41.0872
L9.43303 -41.5843
L9.41216 -42.0801
L9.39563 -42.5734
L9.38277 -43.0632
L9.37279 -43.5484
L9.36475 -44.0275
L9.35758 -44.4991
L9.35003 -44.9619
L9.34073 -45.4141
L9.0979 -45.8541
L8.93779 -45.4089
L8.78593 -44.938
L8.64235 -44.4643
L8.5071 -43.988
L8.38024 -43.5094
L8.26178 -43.0284
L8.15177 -42.5453
L8.05025 -42.0602
L7.95724 -41.5733
L7.87277 -41.0846
L7.79687 -40.5944
L7.72956 -40.1029
L7.67086 -39.61
L7.62079 -39.1161
L7.57937 -38.6212
L7.5466 -38.1255
L7.5225 -37.6292
L7.50708 -37.1324
L7.50033 -36.6352
L7.50227 -36.1378
L7.51288 -35.6404
L7.53218 -35.1431
L7.56014 -34.6461
L7.59677 -34.1494
L7.64205 -33.6534
L7.69597 -33.158
L7.75851 -32.6636
L7.82965 -32.1701
L7.90938 -31.6778
L7.99766 -31.1868
L8.09447 -30.6973
L8.19978 -30.2094
L8.31355 -29.7233
L8.43577 -29.239
L8.56638 -28.7569
L8.70534 -28.2769
L8.85262 -27.7993
L9.00817 -27.3242
L9.17194 -26.8517
L9.34388 -26.382
L9.52394 -25.9153
L9.71207 -25.4516
L9.9082 -24.9912
L10.1123 -24.534
L10.3243 -24.0804
L10.544 -23.6304
L10.7716 -23.1842
L11.0068 -22.7419
L11.2497 -22.3036
L11.5 -21.8695
L11.7579 -21.4397
L12.0231 -21.0144
L12.2956 -20.5936
L12.5754 -20.1774
L12.8623 -19.7662
L13.1562 -19.3598
L13.4571 -18.9585
L13.7649 -18.5625
L14.0794 -18.1717
L14.4006 -17.7863
L14.7284 -17.4065
L15.0627 -17.0324
L15.4033 -16.6641
L15.7502 -16.3016
L16.1033 -15.9451
L16.4625 -15.5948
L16.8276 -15.2507
L17.1985 -14.9128
L17.5752 -14.5814
L17.9575 -14.2566
L18.3453 -13.9383
L18.7384 -13.6268
L19.1368 -13.3221
L19.5404 -13.0243
L19.9489 -12.7335
L20.3624 -12.4498
L20.7806 -12.1732
L21.2035 -11.9039
L21.6308 -11.642
L22.0626 -11.3875
L22.4985 -11.1404
L22.9386 -10.901
L23.3827 -10.6692
L23.8306 -10.4451
L24.2822 -10.2288
L24.7374 -10.0203
L25.1961 -9.81977
L25.658 -9.6272
L26.123 -9.44266
L26.5911 -9.26621
L27.062 -9.0979
L27.5357 -8.93779
L28.012 -8.78593
L28.4906 -8.64235
L28.9716 -8.5071
L29.4547 -8.38024
L29.9398 -8.26178
L30.4267 -8.15177
L30.9154 -8.05025
L31.4056 -7.95724
L31.8971 -7.87277
L32.39 -7.79687
L32.8839 -7.72956
L33.3788 -7.67086
L33.8745 -7.62079
L34.3708 -7.57937
L34.8676 -7.5466
L35.3648 -7.5225
L35.8622 -7.50708
L36.3596 -7.50033
L36.8569 -7.50227
L37.3539 -7.51288
L37.8506 -7.53218
L38.3466 -7.56014
L38.842 -7.59677
L39.3364 -7.64205
L39.8299 -7.69597
L40.3222 -7.75851
L40.8132 -7.82965
L41.3027 -7.90938
L41.7906 -7.99766
L42.2767 -8.09447
L42.761 -8.19978
L43.2431 -8.31355
L43.7231 -8.43577
L44.2007 -8.56638
L44.6758 -8.70534
L45.1483 -8.85262
L45.618 -9.00817
L46.0847 -9.17194
L46.5484 -9.34388
L47.0088 -9.52394
L47.466 -9.71207
L47.9196 -9.9082
L48.3696 -10.1123
L48.8158 -10.3243
L49.2581 -10.544
L49.6964 -10.7716
L50.1305 -11.0068
L50.5603 -11.2497
L50.9856 -11.5
L51.4064 -11.7579
L51.8226 -12.0231
z
" id="C0_2_27fb3ceb5f"/>
    </defs>
    <g clip-path="url(#p1bffca34e9)">
     <use style="fill:#ffffff;stroke:#000000;stroke-width:2.0;" x="0.0" xlink:href="#C0_0_a811fe30f3" y="72.0"/>
    </g>
    <g clip-path="url(#p1bffca34e9)">
     <use style="fill:#ff0000;stroke:#000000;stroke-width:2.0;" x="0.0" xlink:href="#C0_1_a9b5596c61" y="72.0"/>
    </g>
    <g clip-path="url(#p1bffca34e9)">
     <use style="fill:#ff0000;stroke:#000000;stroke-width:2.0;" x="0.0" xlink:href="#C0_2_27fb3ceb5f" y="72.0"/>
    </g>
   </g>
  </g>
 </g>
 <defs>
  <clipPath id="p1bffca34e9">
   <rect height="72.0" width="72.0" x="0.0" y="0.0"/>
  </clipPath>
 </defs>
</svg>
