<?xml version="1.0" encoding="utf-8" standalone="no"?>
<!DOCTYPE svg PUBLIC "-//W3C//DTD SVG 1.1//EN"
  "http://www.w3.org/Graphics/SVG/1.1/DTD/svg11.dtd">
<!-- Created with matplotlib (http://matplotlib.org/) -->
<svg height="72pt" version="1.1" viewBox="0 0 72 72" width="72pt" xmlns="http://www.w3.org/2000/svg" xmlns:xlink="http://www.w3.org/1999/xlink">
 <defs>
  <style type="text/css">
*{stroke-linecap:butt;stroke-linejoin:round;}
  </style>
 </defs>
 <g id="figure_1">
  <g id="patch_1">
   <path d="
M0 72
L72 72
L72 0
L0 0
z
" style="fill:none;"/>
  </g>
  <g id="axes_1">
   <g id="PatchCollection_1">
    <defs>
     <path d="
M36 -7.5
C43.5583 -7.5 50.808 -10.5029 56.1525 -15.8475
C61.4971 -21.192 64.5 -28.4417 64.5 -36
C64.5 -43.5583 61.4971 -50.808 56.1525 -56.1525
C50.808 -61.4971 43.5583 -64.5 36 -64.5
C28.4417 -64.5 21.192 -61.4971 15.8475 -56.1525
C10.5029 -50.808 7.5 -43.5583 7.5 -36
C7.5 -28.4417 10.5029 -21.192 15.8475 -15.8475
C21.192 -10.5029 28.4417 -7.5 36 -7.5
z
" id="C0_0_a811fe30f3"/>
     <path d="
M60.6359 -50.2463
L60.5082 -49.9742
L60.3779 -49.7065
L60.2454 -49.4429
L60.1107 -49.1834
L59.974 -48.9278
L59.8355 -48.6761
L59.6954 -48.4282
L59.5537 -48.184
L59.4106 -47.9433
L59.2662 -47.7061
L59.1206 -47.4723
L58.9739 -47.2417
L58.8261 -47.0143
L58.6775 -46.7901
L58.5279 -46.5688
L58.3776 -46.3504
L58.2265 -46.1349
L58.0747 -45.9221
L57.9223 -45.7119
L57.7692 -45.5043
L57.6156 -45.2992
L57.4615 -45.0965
L57.3068 -44.8961
L57.1517 -44.6979
L56.9961 -44.502
L56.84 -44.3081
L56.6835 -44.1162
L56.5265 -43.9263
L56.3692 -43.7383
L56.2114 -43.552
L56.0532 -43.3675
L55.8945 -43.1847
L55.7354 -43.0034
L55.5759 -42.8238
L55.4159 -42.6455
L55.2554 -42.4687
L55.0945 -42.2933
L54.9331 -42.1191
L54.7712 -41.9462
L54.6087 -41.7744
L54.4457 -41.6038
L54.282 -41.4342
L54.1178 -41.2656
L53.953 -41.098
L53.7875 -40.9313
L53.6213 -40.7654
L53.4544 -40.6003
L53.2867 -40.436
L53.1183 -40.2723
L52.949 -40.1093
L52.7789 -39.9469
L52.6079 -39.785
L52.263 -39.6236
L52.0891 -39.4627
L51.9141 -39.3022
L51.738 -39.1421
L51.5608 -38.9822
L51.3823 -38.8227
L51.2026 -38.6633
L51.0217 -38.5041
L50.8394 -38.3451
L50.6556 -38.1862
L50.4705 -38.0273
L50.2838 -37.8684
L50.0956 -37.7095
L49.9058 -37.5506
L49.7143 -37.3915
L49.521 -37.2323
L49.326 -37.0728
L49.1291 -36.9132
L48.9303 -36.7532
L48.7295 -36.593
L48.5266 -36.4324
L48.3216 -36.2714
L48.1145 -36.11
L47.905 -35.9482
L47.6932 -35.7858
L47.479 -35.623
L47.2623 -35.4595
L47.043 -35.2955
L46.8211 -35.1308
L46.5965 -34.9654
L46.369 -34.7994
L46.1387 -34.6326
L45.9054 -34.465
L45.669 -34.2967
L45.4295 -34.1275
L45.1867 -33.9575
L44.9406 -33.7866
L44.6911 -33.6149
L44.4381 -33.4422
L44.1815 -33.2685
L43.9213 -33.094
L43.6572 -32.9184
L43.3893 -32.7418
L43.1175 -32.5643
L42.8416 -32.3857
L42.5616 -32.2061
L42.2773 -32.0255
L41.9888 -31.8439
L41.6958 -31.6612
L41.3984 -31.4776
L41.0965 -31.2929
L40.7899 -31.1072
L40.4786 -30.9205
L40.1626 -30.7329
L39.8417 -30.5444
L39.5159 -30.355
L39.1852 -30.1647
L38.8494 -29.9736
L38.5087 -29.7818
L38.1629 -29.5892
L37.8119 -29.396
L37.4559 -29.2023
L37.0948 -29.008
L36.7285 -28.8134
L36.3572 -28.6184
L35.9808 -28.4232
L35.5994 -28.2279
L35.213 -28.0326
L34.8217 -27.8374
L34.4256 -27.6425
L34.0248 -27.448
L33.6194 -27.2541
L33.2095 -27.0609
L32.7953 -26.8685
L32.3769 -26.6772
L31.9545 -26.487
L31.5284 -26.2984
L31.0987 -26.1113
L30.6656 -25.926
L30.2295 -25.7428
L29.7906 -25.5619
L29.3492 -25.3834
L28.9056 -25.2078
L28.4602 -25.0353
L28.0133 -24.8664
L27.5657 -24.7014
L27.1178 -24.5412
L26.671 -24.3871
L26.2278 -24.2417
L25.7969 -24.1116
L25.4118 -24.0196
L25.1186 -24.0581
L24.8764 -24.3479
L24.6529 -24.7674
L24.4403 -25.2238
L24.2361 -25.694
L24.0398 -26.1712
L23.851 -26.6525
L23.6694 -27.1364
L23.4952 -27.6219
L23.3281 -28.1083
L23.1681 -28.595
L23.0152 -29.0814
L22.8694 -29.5672
L22.7306 -30.0519
L22.5987 -30.5351
L22.4736 -31.0164
L22.3553 -31.4956
L22.2437 -31.9722
L22.1386 -32.446
L22.0399 -32.9168
L21.9475 -33.3842
L21.8613 -33.8481
L21.7812 -34.3082
L21.707 -34.7643
L21.6385 -35.2164
L21.5757 -35.6641
L21.5183 -36.1074
L21.4663 -36.5462
L21.4195 -36.9804
L21.3777 -37.4098
L21.3408 -37.8345
L21.3086 -38.2543
L21.281 -38.6692
L21.2579 -39.0792
L21.2391 -39.4843
L21.2245 -39.8844
L21.2139 -40.2797
L21.2072 -40.67
L21.2043 -41.0554
L21.205 -41.436
L21.2093 -41.8117
L21.217 -42.1827
L21.228 -42.549
L21.2423 -42.9106
L21.2596 -43.2676
L21.2799 -43.6201
L21.3031 -43.9681
L21.3292 -44.3117
L21.358 -44.6511
L21.3894 -44.9862
L21.4234 -45.3172
L21.4599 -45.6441
L21.4988 -45.967
L21.5401 -46.2861
L21.5837 -46.6014
L21.6295 -46.9129
L21.6775 -47.2209
L21.7277 -47.5253
L21.78 -47.8263
L21.8343 -48.1239
L21.8906 -48.4182
L21.9489 -48.7094
L22.0092 -48.9975
L22.0713 -49.2826
L22.1354 -49.5648
L22.2013 -49.8442
L22.269 -50.1208
L22.3386 -50.3948
L22.41 -50.6661
L22.4832 -50.935
L22.5581 -51.2015
L22.6349 -51.4656
L22.7134 -51.7275
L22.7937 -51.9872
L22.8758 -52.2447
L22.9596 -52.5003
L23.0452 -52.7539
L23.1327 -53.0055
L23.2219 -53.2554
L23.313 -53.5035
L23.4059 -53.7499
L23.5006 -53.9947
L23.5973 -54.238
L23.6958 -54.4797
L23.7963 -54.7201
L23.8987 -54.959
L24.0031 -55.1966
L24.1095 -55.433
L24.218 -55.6682
L24.3285 -55.9023
L24.4413 -56.1352
L24.5562 -56.3671
L24.6733 -56.598
L24.7927 -56.828
L24.9145 -57.0571
L25.0386 -57.2854
L25.1652 -57.5128
L25.2944 -57.7395
L25.4261 -57.9654
L25.5604 -58.1907
L25.6975 -58.4154
L25.8374 -58.6394
L25.9801 -58.8629
L26.1258 -59.0858
L26.2746 -59.3082
L26.4265 -59.5301
L26.5817 -59.7515
L26.7402 -59.9726
L26.9021 -60.1932
L27.0676 -60.4133
L27.2368 -60.6331
L27.4098 -60.8526
L27.5867 -61.0716
L27.7676 -61.2903
L27.9527 -61.5086
L28.1421 -61.7265
L28.336 -61.9441
L28.5346 -62.1612
L28.7379 -62.378
L28.9462 -62.5943
L29.1596 -62.8102
L29.3783 -63.0255
L29.6025 -63.2403
L29.8324 -63.4545
L30.2855 -63.6681
L30.7737 -63.9212
L31.2634 -64.0167
L31.7546 -64.1036
L32.2471 -64.182
L32.7408 -64.2518
L33.2354 -64.313
L33.7309 -64.3656
L34.227 -64.4095
L34.7237 -64.4448
L35.2208 -64.4714
L35.7181 -64.4893
L36.2155 -64.4986
L36.7129 -64.4992
L37.21 -64.4911
L37.7068 -64.4743
L38.203 -64.4488
L38.6986 -64.4147
L39.1933 -64.372
L39.6871 -64.3205
L40.1798 -64.2605
L40.6712 -64.1918
L41.1611 -64.1146
L41.6495 -64.0288
L42.1362 -63.9344
L42.6209 -63.8316
L43.1037 -63.7203
L43.5843 -63.6005
L44.0626 -63.4723
L44.5385 -63.3358
L45.0117 -63.1909
L45.4822 -63.0377
L45.9498 -62.8763
L46.4144 -62.7068
L46.8758 -62.529
L47.3339 -62.3432
L47.7886 -62.1494
L48.2396 -61.9476
L48.687 -61.7379
L49.1304 -61.5204
L49.5699 -61.2951
L50.0052 -61.0621
L50.4363 -60.8214
L50.8629 -60.5732
L51.2851 -60.3176
L51.7025 -60.0545
L52.1152 -59.784
L52.523 -59.5064
L52.9258 -59.2215
L53.3234 -58.9296
L53.7157 -58.6307
L54.1026 -58.325
L54.484 -58.0124
L54.8598 -57.6931
L55.2299 -57.3672
L55.594 -57.0348
L55.9523 -56.696
L56.3044 -56.3509
L56.6503 -55.9996
L56.99 -55.6421
L57.3233 -55.2788
L57.65 -54.9095
L57.9702 -54.5345
L58.2837 -54.1538
L58.5904 -53.7676
L58.8902 -53.376
L59.183 -52.9791
L59.4688 -52.577
L59.7474 -52.1699
L60.0188 -51.7578
L60.2829 -51.341
z
" id="C0_1_2143587ac1"/>
     <path d="
M41.9298 -8.12881
L41.6249 -8.22831
L41.3192 -8.33299
L41.0128 -8.44295
L40.7056 -8.55828
L40.3975 -8.67908
L40.0886 -8.80545
L39.7789 -8.93751
L39.4682 -9.07535
L39.1568 -9.2191
L38.8444 -9.36887
L38.5312 -9.52478
L38.2171 -9.68695
L37.9022 -9.8555
L37.5865 -10.0306
L37.27 -10.2123
L36.9528 -10.4007
L36.6348 -10.596
L36.3162 -10.7984
L35.997 -11.0079
L35.6772 -11.2246
L35.357 -11.4487
L35.0364 -11.6803
L34.7155 -11.9196
L34.3944 -12.1665
L34.0733 -12.4213
L33.7521 -12.684
L33.4311 -12.9547
L33.1105 -13.2335
L32.7902 -13.5205
L32.4706 -13.8157
L32.1518 -14.1191
L31.8339 -14.4309
L31.5171 -14.751
L31.2016 -15.0794
L30.8877 -15.4161
L30.5755 -15.7612
L30.2652 -16.1144
L29.9572 -16.4758
L29.6515 -16.8453
L29.3485 -17.2228
L29.0483 -17.608
L28.7512 -18.0009
L28.4576 -18.4012
L28.1674 -18.8088
L27.8811 -19.2233
L27.5989 -19.6444
L27.3209 -20.0717
L27.0472 -20.5048
L26.7781 -20.9431
L26.5136 -21.3856
L26.2535 -21.8309
L25.997 -22.2763
L25.7422 -22.7149
L25.481 -23.1237
L25.1803 -23.4101
L24.7945 -23.453
L24.365 -23.3738
L23.9246 -23.265
L23.4817 -23.1493
L23.0388 -23.0334
L22.5972 -22.9197
L22.1575 -22.8094
L21.7202 -22.7032
L21.2858 -22.6014
L20.8545 -22.5043
L20.4267 -22.4122
L20.0026 -22.325
L19.5824 -22.2429
L19.1664 -22.1659
L18.7548 -22.094
L18.3478 -22.0274
L17.9455 -21.9658
L17.548 -21.9094
L17.1555 -21.8581
L16.7681 -21.8119
L16.3859 -21.7708
L16.0089 -21.7346
L15.6372 -21.7033
L15.2709 -21.6769
L14.91 -21.6553
L14.5544 -21.6384
L14.2043 -21.6262
L13.8596 -21.6185
L13.5202 -21.6153
L13.1862 -21.6166
L12.8576 -21.6221
L12.5342 -21.6319
L12.216 -21.6459
L11.903 -21.664
L11.6718 -21.6861
L11.9346 -21.1545
L12.2047 -20.7322
L12.4821 -20.3145
L12.7666 -19.9016
L13.0583 -19.4936
L13.3569 -19.0906
L13.6624 -18.6928
L13.9747 -18.3003
L14.2937 -17.9131
L14.6193 -17.5315
L14.9514 -17.1555
L15.29 -16.7852
L15.6349 -16.4208
L15.9859 -16.0623
L16.3431 -15.7099
L16.7062 -15.3637
L17.0752 -15.0238
L17.45 -14.6903
L17.8305 -14.3633
L18.2164 -14.0428
L18.6078 -13.7291
L19.0045 -13.4221
L19.4064 -13.122
L19.8133 -12.8289
L20.2252 -12.5428
L20.6418 -12.2639
L21.0631 -11.9922
L21.489 -11.7278
L21.9193 -11.4708
L22.3539 -11.2213
L22.7927 -10.9793
L23.2354 -10.745
L23.6821 -10.5183
L24.1325 -10.2994
L24.5865 -10.0884
L25.044 -9.8852
L25.5049 -9.68998
L25.9689 -9.50278
L26.436 -9.32365
L26.906 -9.15265
L27.3788 -8.98982
L27.8542 -8.83522
L28.3321 -8.6889
L28.8123 -8.5509
L29.2947 -8.42125
L29.7792 -8.30001
L30.2655 -8.18721
L30.7536 -8.08288
L31.2433 -7.98705
L31.7345 -7.89975
L32.2269 -7.82102
L32.7205 -7.75086
L33.2151 -7.68932
L33.7105 -7.63639
L34.2066 -7.59211
L34.7033 -7.55648
L35.2004 -7.52951
L35.6977 -7.51122
L36.1951 -7.5016
L36.6925 -7.50067
L37.1896 -7.50841
L37.6864 -7.52484
L38.1827 -7.54994
L38.6783 -7.5837
L39.1731 -7.62612
L39.6669 -7.67719
L40.1596 -7.73688
L40.651 -7.80518
L41.141 -7.88207
z
" id="C0_2_8a11732d56"/>
    </defs>
    <g clip-path="url(#p1bffca34e9)">
     <use style="fill:#ff0000;stroke:#000000;stroke-width:2.0;" x="0.0" xlink:href="#C0_0_a811fe30f3" y="72.0"/>
    </g>
    <g clip-path="url(#p1bffca34e9)">
     <use style="fill:#ffffff;stroke:#000000;stroke-width:2.0;" x="0.0" xlink:href="#C0_1_2143587ac1" y="72.0"/>
    </g>
    <g clip-path="url(#p1bffca34e9)">
     <use style="fill:#ffffff;stroke:#000000;stroke-width:2.0;" x="0.0" xlink:href="#C0_2_8a11732d56" y="72.0"/>
    </g>
   </g>
  </g>
 </g>
 <defs>
  <clipPath id="p1bffca34e9">
   <rect height="72.0" width="72.0" x="0.0" y="0.0"/>
  </clipPath>
 </defs>
</svg>
