<?xml version="1.0" encoding="utf-8" standalone="no"?>
<!DOCTYPE svg PUBLIC "-//W3C//DTD SVG 1.1//EN"
  "http://www.w3.org/Graphics/SVG/1.1/DTD/svg11.dtd">
<!-- Created with matplotlib (http://matplotlib.org/) -->
<svg height="72pt" version="1.1" viewBox="0 0 72 72" width="72pt" xmlns="http://www.w3.org/2000/svg" xmlns:xlink="http://www.w3.org/1999/xlink">
 <defs>
  <style type="text/css">
*{stroke-linecap:butt;stroke-linejoin:round;}
  </style>
 </defs>
 <g id="figure_1">
  <g id="patch_1">
   <path d="
M0 72
L72 72
L72 0
L0 0
z
" style="fill:none;"/>
  </g>
  <g id="axes_1">
   <g id="PatchCollection_1">
    <defs>
     <path d="
M36 -7.5
C43.5583 -7.5 50.808 -10.5029 56.1525 -15.8475
C61.4971 -21.192 64.5 -28.4417 64.5 -36
C64.5 -43.5583 61.4971 -50.808 56.1525 -56.1525
C50.808 -61.4971 43.5583 -64.5 36 -64.5
C28.4417 -64.5 21.192 -61.4971 15.8475 -56.1525
C10.5029 -50.808 7.5 -43.5583 7.5 -36
C7.5 -28.4417 10.5029 -21.192 15.8475 -15.8475
C21.192 -10.5029 28.4417 -7.5 36 -7.5
z
" id="C0_0_a811fe30f3"/>
     <path d="
M64.2814 -33.0346
L64.1853 -33.5146
L64.0682 -33.9627
L63.9299 -34.3738
L63.7702 -34.7436
L63.5894 -35.0681
L63.3879 -35.3451
L63.1666 -35.5739
L62.927 -35.7559
L62.6706 -35.8941
L62.3991 -35.9927
L62.1144 -36.0566
L61.8181 -36.0907
L61.5119 -36.0998
L61.1971 -36.0883
L60.8751 -36.0597
L60.5468 -36.0174
L60.2132 -35.964
L59.8751 -35.9017
L59.5333 -35.8323
L59.1884 -35.7573
L58.8409 -35.6779
L58.4914 -35.5953
L58.1402 -35.5101
L57.7879 -35.4232
L57.4348 -35.3351
L57.0812 -35.2462
L56.7275 -35.1571
L56.3739 -35.0679
L56.0207 -34.9791
L55.6682 -34.8907
L55.3166 -34.803
L54.966 -34.7163
L54.6166 -34.6305
L54.2688 -34.5458
L53.9224 -34.4622
L53.5778 -34.38
L53.235 -34.299
L52.8942 -34.2194
L52.5554 -34.1412
L52.2188 -34.0643
L51.8843 -33.9889
L51.5521 -33.9149
L51.2222 -33.8423
L50.8946 -33.7711
L50.5694 -33.7013
L50.2467 -33.6329
L49.9263 -33.5659
L49.6084 -33.5003
L49.293 -33.436
L48.9799 -33.373
L48.6693 -33.3113
L48.3612 -33.2509
L48.0554 -33.1918
L47.752 -33.1338
L47.4509 -33.0771
L47.1522 -33.0215
L46.8557 -32.9671
L46.5615 -32.9138
L46.2695 -32.8616
L45.9796 -32.8105
L45.6919 -32.7604
L45.4062 -32.7113
L45.1225 -32.6632
L44.8408 -32.6161
L44.561 -32.5699
L44.2831 -32.5247
L44.0069 -32.4803
L43.7325 -32.4368
L43.4598 -32.3942
L43.1887 -32.3523
L42.9192 -32.3113
L42.6512 -32.2711
L42.3847 -32.2316
L42.1195 -32.1929
L41.8557 -32.1549
L41.5931 -32.1176
L41.3317 -32.081
L41.0715 -32.045
L40.8123 -32.0098
L40.5542 -31.9751
L40.297 -31.9411
L40.0407 -31.9077
L39.7853 -31.8749
L39.5306 -31.8427
L39.2766 -31.811
L39.0233 -31.7799
L38.7705 -31.7493
L38.5183 -31.7193
L38.2665 -31.6898
L38.0151 -31.6608
L37.764 -31.6323
L37.5132 -31.6043
L37.2626 -31.5768
L37.0121 -31.5497
L36.5114 -31.5231
L36.2609 -31.497
L36.0104 -31.4713
L35.7597 -31.4461
L35.5088 -31.4213
L35.2575 -31.397
L35.0059 -31.3731
L34.7539 -31.3496
L34.5013 -31.3265
L34.2482 -31.3039
L33.9945 -31.2817
L33.7402 -31.2598
L33.485 -31.2384
L33.2291 -31.2174
L32.9723 -31.1969
L32.7145 -31.1767
L32.4558 -31.157
L32.196 -31.1376
L31.935 -31.1187
L31.6729 -31.1002
L31.4095 -31.0821
L31.1448 -31.0644
L30.8787 -31.0472
L30.6111 -31.0304
L30.342 -31.014
L30.0714 -30.9981
L29.7991 -30.9826
L29.525 -30.9676
L29.2493 -30.9531
L28.9717 -30.939
L28.6922 -30.9254
L28.4107 -30.9123
L28.1273 -30.8997
L27.8418 -30.8876
L27.5541 -30.8761
L27.2643 -30.8651
L26.9722 -30.8546
L26.6779 -30.8447
L26.3812 -30.8354
L26.0821 -30.8267
L25.7806 -30.8187
L25.4767 -30.8112
L25.1702 -30.8044
L24.8611 -30.7983
L24.5495 -30.7929
L24.2353 -30.7882
L23.9184 -30.7842
L23.5989 -30.781
L23.2767 -30.7785
L22.9519 -30.7769
L22.6244 -30.776
L22.2942 -30.776
L21.9613 -30.7768
L21.6259 -30.7785
L21.2878 -30.7811
L20.9471 -30.7846
L20.604 -30.789
L20.2584 -30.7943
L19.9104 -30.8005
L19.5602 -30.8077
L19.2078 -30.8158
L18.8532 -30.8249
L18.4968 -30.8348
L18.1385 -30.8456
L17.7786 -30.8572
L17.4173 -30.8696
L17.0547 -30.8827
L16.6912 -30.8964
L16.3268 -30.9106
L15.962 -30.9252
L15.5971 -30.94
L15.2323 -30.9548
L14.8682 -30.9693
L14.505 -30.9832
L14.1434 -30.996
L13.7838 -31.0074
L13.4269 -31.0166
L13.0733 -31.0231
L12.724 -31.0258
L12.3798 -31.0237
L12.0417 -31.0154
L11.7112 -30.9993
L11.3895 -30.9735
L11.0785 -30.9355
L10.78 -30.8824
L10.4964 -30.8108
L10.2302 -30.7169
L9.98406 -30.5962
L9.76074 -30.4444
L9.56284 -30.257
L9.39253 -30.0302
L9.25135 -29.7614
L9.14012 -29.4497
L9.05884 -29.0957
L9.00692 -28.7019
L8.9833 -28.2721
L8.98665 -27.8106
L9.02199 -27.3221
L9.18647 -26.811
L9.35912 -26.3416
L9.53988 -25.8751
L9.7287 -25.4117
L9.92553 -24.9515
L10.1303 -24.4947
L10.3429 -24.0414
L10.5634 -23.5917
L10.7916 -23.1458
L11.0275 -22.7039
L11.271 -22.2659
L11.522 -21.8322
L11.7805 -21.4028
L12.0464 -20.9778
L12.3195 -20.5574
L12.5999 -20.1417
L12.8874 -19.7308
L13.1819 -19.3249
L13.4834 -18.9241
L13.7918 -18.5285
L14.1069 -18.1382
L14.4287 -17.7533
L14.757 -17.374
L15.0919 -17.0004
L15.4331 -16.6325
L15.7805 -16.2706
L16.1341 -15.9146
L16.4938 -15.5648
L16.8594 -15.2212
L17.2308 -14.8839
L17.608 -14.5531
L17.9908 -14.2288
L18.379 -13.9111
L18.7726 -13.6002
L19.1715 -13.2961
L19.5755 -12.9989
L19.9845 -12.7087
L20.3983 -12.4256
L20.817 -12.1497
L21.2402 -11.881
L21.6679 -11.6197
L22.1001 -11.3658
L22.5364 -11.1195
L22.9768 -10.8807
L23.4213 -10.6495
L23.8695 -10.4261
L24.3214 -10.2105
L24.7769 -10.0027
L25.2358 -9.80281
L25.698 -9.61093
L26.1634 -9.42709
L26.6317 -9.25134
L27.1029 -9.08375
L27.5768 -8.92435
L28.0532 -8.77319
L28.5321 -8.63033
L29.0132 -8.49581
L29.4965 -8.36967
L29.9818 -8.25194
L30.4689 -8.14267
L30.9577 -8.04188
L31.448 -7.9496
L31.9397 -7.86587
L32.4326 -7.79071
L32.9266 -7.72415
L33.4216 -7.6662
L33.9173 -7.61687
L34.4137 -7.5762
L34.9106 -7.54418
L35.4078 -7.52083
L35.9052 -7.50615
L36.4026 -7.50016
L36.8999 -7.50284
L37.3969 -7.51421
L37.8934 -7.53425
L38.3894 -7.56297
L38.8847 -7.60034
L39.3791 -7.64637
L39.8725 -7.70103
L40.3647 -7.76432
L40.8556 -7.8362
L41.3449 -7.91667
L41.8327 -8.00568
L42.3187 -8.10323
L42.8027 -8.20927
L43.2847 -8.32378
L43.7645 -8.44672
L44.2419 -8.57805
L44.7167 -8.71774
L45.189 -8.86573
L45.6584 -9.02199
L46.1249 -9.18647
L46.5883 -9.35912
L47.0485 -9.53988
L47.5053 -9.7287
L47.9586 -9.92553
L48.4083 -10.1303
L48.8542 -10.3429
L49.2961 -10.5634
L49.7341 -10.7916
L50.1678 -11.0275
L50.5972 -11.271
L51.0222 -11.522
L51.4426 -11.7805
L51.8583 -12.0464
L52.2692 -12.3195
L52.6751 -12.5999
L53.0759 -12.8874
L53.4715 -13.1819
L53.8618 -13.4834
L54.2467 -13.7918
L54.626 -14.1069
L54.9996 -14.4287
L55.3675 -14.757
L55.7294 -15.0919
L56.0854 -15.4331
L56.4352 -15.7805
L56.7788 -16.1341
L57.1161 -16.4938
L57.4469 -16.8594
L57.7712 -17.2308
L58.0889 -17.608
L58.3998 -17.9908
L58.7039 -18.379
L59.0011 -18.7726
L59.2913 -19.1715
L59.5744 -19.5755
L59.8503 -19.9845
L60.119 -20.3983
L60.3803 -20.817
L60.6342 -21.2402
L60.8805 -21.6679
L61.1193 -22.1001
L61.3505 -22.5364
L61.5739 -22.9768
L61.7895 -23.4213
L61.9973 -23.8695
L62.1972 -24.3214
L62.3891 -24.7769
L62.5729 -25.2358
L62.7487 -25.698
L62.9163 -26.1634
L63.0757 -26.6317
L63.2268 -27.1029
L63.3697 -27.5768
L63.5042 -28.0532
L63.6303 -28.5321
L63.7481 -29.0132
L63.8573 -29.4965
L63.9581 -29.9818
L64.0504 -30.4689
L64.1341 -30.9577
L64.2093 -31.448
L64.2759 -31.9397
z
" id="C0_1_c24ecc8057"/>
     <path d="
M62.9731 -45.1848
L62.6847 -45.6283
L62.3889 -46.0818
L62.0855 -46.5417
L61.7746 -47.0049
L61.456 -47.4689
L61.1301 -47.9315
L60.7969 -48.391
L60.4568 -48.8458
L60.1102 -49.2949
L59.7574 -49.7371
L59.3988 -50.1716
L59.0349 -50.5979
L58.666 -51.0152
L58.2926 -51.4232
L57.9152 -51.8215
L57.534 -52.2099
L57.1497 -52.5882
L56.7625 -52.9562
L56.3728 -53.3138
L55.9811 -53.6611
L55.5877 -53.998
L55.1929 -54.3245
L54.797 -54.6408
L54.4004 -54.9469
L54.0034 -55.2429
L53.6061 -55.529
L53.209 -55.8052
L52.8121 -56.0719
L52.4157 -56.3291
L52.0201 -56.577
L51.6253 -56.8158
L51.2317 -57.0457
L50.8392 -57.267
L50.4481 -57.4797
L50.0584 -57.6841
L49.6704 -57.8804
L49.284 -58.0688
L48.8994 -58.2495
L48.5166 -58.4227
L48.1357 -58.5886
L47.7568 -58.7474
L47.3799 -58.8992
L47.005 -59.0443
L46.6321 -59.1828
L46.2613 -59.3149
L45.8927 -59.4408
L45.526 -59.5606
L45.1615 -59.6745
L44.7991 -59.7827
L44.4387 -59.8852
L44.0804 -59.9823
L43.7241 -60.0741
L43.3698 -60.1607
L43.0175 -60.2423
L42.6671 -60.3189
L42.3186 -60.3906
L41.972 -60.4577
L41.6272 -60.5202
L41.2841 -60.5782
L40.9428 -60.6318
L40.6032 -60.681
L40.2652 -60.7261
L39.9288 -60.767
L39.594 -60.8038
L39.2606 -60.8367
L38.9286 -60.8657
L38.5979 -60.8907
L38.2686 -60.912
L37.9406 -60.9296
L37.6137 -60.9434
L37.2879 -60.9536
L36.9632 -60.9602
L36.6396 -60.9633
L36.3169 -60.9628
L35.9951 -60.9588
L35.6741 -60.9513
L35.3539 -60.9404
L35.0344 -60.9261
L34.7155 -60.9083
L34.3973 -60.8871
L34.0795 -60.8626
L33.7623 -60.8346
L33.4455 -60.8032
L33.129 -60.7684
L32.8128 -60.7302
L32.4969 -60.6886
L32.1812 -60.6436
L31.8656 -60.5951
L31.55 -60.5431
L31.2345 -60.4876
L30.9189 -60.4286
L30.6033 -60.366
L30.2874 -60.2998
L29.9714 -60.23
L29.6552 -60.1565
L29.3386 -60.0792
L29.0217 -59.9981
L28.7044 -59.9132
L28.3867 -59.8243
L28.0684 -59.7315
L27.7497 -59.6346
L27.4303 -59.5336
L27.1104 -59.4284
L26.7897 -59.3189
L26.4685 -59.2051
L26.1464 -59.0868
L25.8237 -58.9639
L25.5001 -58.8363
L25.1758 -58.7041
L24.8506 -58.5669
L24.5246 -58.4247
L24.1977 -58.2775
L23.8699 -58.125
L23.5413 -57.9672
L23.2118 -57.8039
L22.8814 -57.635
L22.5501 -57.4604
L22.2179 -57.2799
L21.8849 -57.0933
L21.5511 -56.9005
L21.2166 -56.7013
L20.8812 -56.4957
L20.5452 -56.2834
L20.2085 -56.0642
L19.8712 -55.838
L19.5334 -55.6046
L19.1951 -55.3639
L18.8565 -55.1157
L18.5177 -54.8597
L18.1787 -54.5959
L17.8397 -54.324
L17.5009 -54.0439
L17.1623 -53.7554
L16.8241 -53.4582
L16.4865 -53.1524
L16.1497 -52.8377
L15.814 -52.5138
L15.4794 -52.1808
L15.1462 -51.8385
L14.8148 -51.4867
L14.4853 -51.1253
L14.158 -50.7543
L13.8332 -50.3736
L13.5113 -49.9831
L13.1925 -49.5827
L12.8771 -49.1726
L12.5655 -48.7527
L12.2581 -48.3231
L11.9552 -47.8839
L11.6572 -47.4352
L11.3644 -46.9774
L11.0772 -46.5106
L10.7959 -46.0353
L10.521 -45.5518
L10.2527 -45.0606
L9.9913 -44.5624
L9.73711 -44.058
L9.49034 -43.5481
L9.25115 -43.034
L9.01961 -42.5167
L8.79572 -41.9979
L8.57932 -41.4794
L8.37014 -40.9631
L8.16768 -40.4517
L7.97126 -39.9481
L7.77608 -39.4557
L7.84944 -39.9573
L7.93138 -40.4493
L8.02187 -40.9399
L8.12088 -41.429
L8.22838 -41.9165
L8.34434 -42.4021
L8.46873 -42.8858
L8.6015 -43.3674
L8.74262 -43.8468
L8.89204 -44.3238
L9.04972 -44.7982
L9.21561 -45.27
L9.38965 -45.7389
L9.57181 -46.2049
L9.76201 -46.6677
L9.9602 -47.1273
L10.1663 -47.5836
L10.3803 -48.0363
L10.6021 -48.4853
L10.8317 -48.9305
L11.0689 -49.3718
L11.3137 -49.809
L11.566 -50.242
L11.8257 -50.6707
L12.0929 -51.0949
L12.3673 -51.5145
L12.6489 -51.9293
L12.9376 -52.3394
L13.2333 -52.7444
L13.536 -53.1444
L13.8455 -53.5391
L14.1618 -53.9285
L14.4847 -54.3124
L14.8142 -54.6907
L15.1501 -55.0634
L15.4924 -55.4302
L15.8409 -55.7911
L16.1956 -56.146
L16.5563 -56.4948
L16.9229 -56.8373
L17.2954 -57.1735
L17.6735 -57.5032
L18.0572 -57.8263
L18.4464 -58.1429
L18.8409 -58.4526
L19.2407 -58.7556
L19.6455 -59.0516
L20.0554 -59.3405
L20.4701 -59.6224
L20.8895 -59.8971
L21.3135 -60.1645
L21.742 -60.4245
L22.1749 -60.6771
L22.6119 -60.9222
L23.0531 -61.1597
L23.4981 -61.3895
L23.947 -61.6116
L24.3996 -61.8259
L24.8557 -62.0323
L25.3152 -62.2308
L25.7779 -62.4213
L26.2438 -62.6037
L26.7126 -62.7781
L27.1842 -62.9443
L27.6586 -63.1023
L28.1355 -63.252
L28.6147 -63.3934
L29.0963 -63.5265
L29.5799 -63.6512
L30.0655 -63.7675
L30.5529 -63.8753
L31.0419 -63.9746
L31.5325 -64.0654
L32.0244 -64.1477
L32.5176 -64.2214
L33.0118 -64.2864
L33.5069 -64.3429
L34.0027 -64.3907
L34.4992 -64.4299
L34.9961 -64.4605
L35.4934 -64.4823
L35.9908 -64.4955
L36.4882 -64.5
L36.9854 -64.4958
L37.4824 -64.483
L37.9789 -64.4614
L38.4747 -64.4312
L38.9699 -64.3924
L39.4641 -64.3448
L39.9573 -64.2887
L40.4493 -64.2239
L40.9399 -64.1506
L41.429 -64.0686
L41.9165 -63.9781
L42.4021 -63.8791
L42.8858 -63.7716
L43.3674 -63.6557
L43.8468 -63.5313
L44.3238 -63.3985
L44.7982 -63.2574
L45.27 -63.108
L45.7389 -62.9503
L46.2049 -62.7844
L46.6677 -62.6103
L47.1273 -62.4282
L47.5836 -62.238
L48.0363 -62.0398
L48.4853 -61.8337
L48.9305 -61.6197
L49.3718 -61.3979
L49.809 -61.1683
L50.242 -60.9311
L50.6707 -60.6863
L51.0949 -60.434
L51.5145 -60.1743
L51.9293 -59.9071
L52.3394 -59.6327
L52.7444 -59.3511
L53.1444 -59.0624
L53.5391 -58.7667
L53.9285 -58.464
L54.3124 -58.1545
L54.6907 -57.8382
L55.0634 -57.5153
L55.4302 -57.1858
L55.7911 -56.8499
L56.146 -56.5076
L56.4948 -56.1591
L56.8373 -55.8044
L57.1735 -55.4437
L57.5032 -55.0771
L57.8263 -54.7046
L58.1429 -54.3265
L58.4526 -53.9428
L58.7556 -53.5536
L59.0516 -53.1591
L59.3405 -52.7593
L59.6224 -52.3545
L59.8971 -51.9446
L60.1645 -51.5299
L60.4245 -51.1105
L60.6771 -50.6865
L60.9222 -50.258
L61.1597 -49.8251
L61.3895 -49.3881
L61.6116 -48.9469
L61.8259 -48.5019
L62.0323 -48.053
L62.2308 -47.6004
L62.4213 -47.1443
L62.6037 -46.6848
L62.7781 -46.2221
z
" id="C0_2_587582cf8c"/>
    </defs>
    <g clip-path="url(#p1bffca34e9)">
     <use style="fill:#ff0000;stroke:#000000;stroke-width:2.0;" x="0.0" xlink:href="#C0_0_a811fe30f3" y="72.0"/>
    </g>
    <g clip-path="url(#p1bffca34e9)">
     <use style="fill:#ffffff;stroke:#000000;stroke-width:2.0;" x="0.0" xlink:href="#C0_1_c24ecc8057" y="72.0"/>
    </g>
    <g clip-path="url(#p1bffca34e9)">
     <use style="fill:#ffffff;stroke:#000000;stroke-width:2.0;" x="0.0" xlink:href="#C0_2_587582cf8c" y="72.0"/>
    </g>
   </g>
  </g>
 </g>
 <defs>
  <clipPath id="p1bffca34e9">
   <rect height="72.0" width="72.0" x="0.0" y="0.0"/>
  </clipPath>
 </defs>
</svg>
