<?xml version="1.0" encoding="utf-8" standalone="no"?>
<!DOCTYPE svg PUBLIC "-//W3C//DTD SVG 1.1//EN"
  "http://www.w3.org/Graphics/SVG/1.1/DTD/svg11.dtd">
<!-- Created with matplotlib (http://matplotlib.org/) -->
<svg height="72pt" version="1.1" viewBox="0 0 72 72" width="72pt" xmlns="http://www.w3.org/2000/svg" xmlns:xlink="http://www.w3.org/1999/xlink">
 <defs>
  <style type="text/css">
*{stroke-linecap:butt;stroke-linejoin:round;}
  </style>
 </defs>
 <g id="figure_1">
  <g id="patch_1">
   <path d="
M0 72
L72 72
L72 0
L0 0
z
" style="fill:none;"/>
  </g>
  <g id="axes_1">
   <g id="PatchCollection_1">
    <defs>
     <path d="
M36 -7.5
C43.5583 -7.5 50.808 -10.5029 56.1525 -15.8475
C61.4971 -21.192 64.5 -28.4417 64.5 -36
C64.5 -43.5583 61.4971 -50.808 56.1525 -56.1525
C50.808 -61.4971 43.5583 -64.5 36 -64.5
C28.4417 -64.5 21.192 -61.4971 15.8475 -56.1525
C10.5029 -50.808 7.5 -43.5583 7.5 -36
C7.5 -28.4417 10.5029 -21.192 15.8475 -15.8475
C21.192 -10.5029 28.4417 -7.5 36 -7.5
z
" id="C0_0_a811fe30f3"/>
     <path d="
M46.2993 -35.7124
L46.2521 -35.4561
L46.2035 -35.2
L46.1534 -34.944
L46.1019 -34.688
L46.049 -34.432
L45.9947 -34.176
L45.9388 -33.9198
L45.8815 -33.6635
L45.8226 -33.4069
L45.7623 -33.15
L45.7003 -32.8928
L45.6368 -32.6352
L45.5716 -32.3771
L45.5048 -32.1186
L45.4364 -31.8595
L45.3662 -31.5998
L45.2942 -31.3394
L45.2205 -31.0784
L45.145 -30.8166
L45.0676 -30.554
L44.9883 -30.2906
L44.907 -30.0263
L44.8237 -29.7611
L44.7384 -29.4949
L44.651 -29.2277
L44.5614 -28.9594
L44.4696 -28.69
L44.3756 -28.4195
L44.2793 -28.1479
L44.1805 -27.875
L44.0793 -27.6009
L43.9756 -27.3255
L43.8693 -27.0489
L43.7604 -26.7709
L43.6487 -26.4916
L43.5342 -26.2109
L43.4168 -25.9289
L43.2965 -25.6456
L43.1732 -25.3608
L43.0467 -25.0747
L42.9169 -24.7871
L42.7839 -24.4983
L42.6475 -24.208
L42.5075 -23.9165
L42.364 -23.6236
L42.2168 -23.3295
L42.0658 -23.0342
L41.9109 -22.7377
L41.752 -22.4401
L41.5889 -22.1415
L41.4217 -21.8419
L41.25 -21.5415
L41.074 -21.2403
L40.8934 -20.9385
L40.708 -20.6362
L40.5179 -20.3335
L40.3229 -20.0306
L40.1228 -19.7278
L39.9175 -19.4251
L39.707 -19.1229
L39.491 -18.8213
L39.2695 -18.5206
L39.0423 -18.2211
L38.8093 -17.9232
L38.5704 -17.6272
L38.3255 -17.3334
L38.0744 -17.0422
L37.817 -16.7542
L37.5532 -16.4698
L37.2828 -16.1895
L37.0058 -15.914
L36.722 -15.6438
L36.4313 -15.3796
L36.1336 -15.1222
L35.8287 -14.8725
L35.5166 -14.6313
L35.1971 -14.3995
L34.8701 -14.1783
L34.5355 -13.9687
L34.1934 -13.772
L33.8435 -13.5894
L33.486 -13.4223
L33.1209 -13.272
L32.7481 -13.1401
L32.368 -13.0279
L31.9807 -12.9366
L31.5867 -12.8677
L31.1863 -12.8221
L30.7802 -12.8008
L30.3691 -12.8043
L29.9537 -12.8329
L29.5351 -12.8866
L29.1143 -12.9651
L28.6923 -13.0679
L28.2701 -13.194
L27.8489 -13.3425
L27.4296 -13.5122
L27.0134 -13.7018
L26.601 -13.9099
L26.1933 -14.1353
L25.7911 -14.3766
L25.395 -14.6325
L25.0057 -14.9019
L24.6236 -15.1835
L24.2491 -15.4762
L23.8827 -15.779
L23.5246 -16.0909
L23.1751 -16.4111
L22.8344 -16.7385
L22.5026 -17.0726
L22.1798 -17.4125
L21.866 -17.7575
L21.5614 -18.107
L21.2659 -18.4605
L20.9795 -18.8173
L20.702 -19.177
L20.4336 -19.539
L20.174 -19.9031
L19.9231 -20.2687
L19.6809 -20.6354
L19.4472 -21.0031
L19.2219 -21.3712
L19.0047 -21.7396
L18.7957 -22.1079
L18.5945 -22.476
L18.401 -22.8436
L18.2151 -23.2106
L18.0366 -23.5766
L17.8653 -23.9416
L17.701 -24.3055
L17.5436 -24.668
L17.3929 -25.0291
L17.2488 -25.3887
L17.1109 -25.7466
L16.9793 -26.1029
L16.8538 -26.4574
L16.7341 -26.8101
L16.6201 -27.1609
L16.5117 -27.5098
L16.4087 -27.8568
L16.3109 -28.2019
L16.2184 -28.5449
L16.1308 -28.886
L16.0481 -29.2251
L15.9701 -29.5623
L15.8968 -29.8975
L15.828 -30.2307
L15.7635 -30.562
L15.7034 -30.8913
L15.6474 -31.2188
L15.5955 -31.5445
L15.5476 -31.8683
L15.5036 -32.1903
L15.4634 -32.5105
L15.427 -32.829
L15.3941 -33.1459
L15.3649 -33.4611
L15.3392 -33.7748
L15.3169 -34.0869
L15.2979 -34.3975
L15.2823 -34.7066
L15.27 -35.0144
L15.2609 -35.3208
L15.2549 -35.6259
L15.2521 -35.9298
L15.2523 -36.2324
L15.2556 -36.534
L15.2619 -36.8344
L15.2712 -37.1339
L15.2835 -37.4323
L15.2987 -37.7298
L15.3168 -38.0265
L15.3378 -38.3223
L15.3617 -38.6174
L15.3884 -38.9117
L15.418 -39.2054
L15.4505 -39.4985
L15.4859 -39.7911
L15.5241 -40.0832
L15.5652 -40.3748
L15.6092 -40.666
L15.6561 -40.9569
L15.7058 -41.2475
L15.7585 -41.5378
L15.8142 -41.828
L15.8728 -42.118
L15.9344 -42.408
L15.9991 -42.6979
L16.0668 -42.9878
L16.1376 -43.2777
L16.2115 -43.5678
L16.2886 -43.8579
L16.3689 -44.1483
L16.4526 -44.4389
L16.5395 -44.7297
L16.6298 -45.0209
L16.7236 -45.3124
L16.8209 -45.6043
L16.9217 -45.8966
L17.0262 -46.1893
L17.1345 -46.4825
L17.2465 -46.7762
L17.3624 -47.0704
L17.4822 -47.3652
L17.6061 -47.6605
L17.7342 -47.9564
L17.8665 -48.253
L18.0031 -48.5501
L18.1442 -48.8479
L18.2898 -49.1462
L18.4401 -49.4452
L18.5952 -49.7449
L18.7551 -50.0451
L18.9201 -50.3459
L19.0902 -50.6473
L19.2656 -50.9492
L19.4464 -51.2517
L19.6328 -51.5546
L19.8248 -51.8579
L20.0227 -52.1616
L20.2266 -52.4657
L20.4365 -52.7699
L20.6528 -53.0743
L20.8755 -53.3788
L21.1047 -53.6833
L21.3407 -53.9876
L21.5836 -54.2916
L21.8336 -54.5952
L22.0907 -54.8983
L22.3552 -55.2007
L22.6272 -55.5022
L22.9069 -55.8025
L23.1944 -56.1016
L23.4899 -56.3992
L23.7935 -56.695
L24.1052 -56.9888
L24.4253 -57.2803
L24.7539 -57.5691
L25.0909 -57.855
L25.4366 -58.1377
L25.791 -58.4166
L26.1541 -58.6916
L26.526 -58.962
L26.9066 -59.2276
L27.296 -59.4877
L27.694 -59.742
L28.1007 -59.9898
L28.5157 -60.2307
L28.9391 -60.464
L29.3706 -60.689
L29.8098 -60.9052
L30.2565 -61.1118
L30.7102 -61.3082
L31.1706 -61.4935
L31.637 -61.6668
L32.1089 -61.8275
L32.5854 -61.9746
L33.0659 -62.1072
L33.5493 -62.2244
L34.0346 -62.3251
L34.5207 -62.4085
L35.0064 -62.4736
L35.4902 -62.5193
L35.9708 -62.545
L36.4466 -62.5496
L36.9162 -62.5326
L37.378 -62.4934
L37.8305 -62.4316
L38.2724 -62.3471
L38.7024 -62.2401
L39.1195 -62.1109
L39.5229 -61.9601
L39.912 -61.7887
L40.2863 -61.5975
L40.6458 -61.3879
L40.9904 -61.1611
L41.3203 -60.9184
L41.6358 -60.6613
L41.9373 -60.391
L42.2251 -60.1088
L42.4999 -59.8161
L42.7619 -59.5139
L43.0119 -59.2033
L43.2502 -58.8854
L43.4773 -58.5611
L43.6938 -58.2312
L43.8999 -57.8965
L44.0963 -57.5577
L44.2832 -57.2156
L44.4611 -56.8706
L44.6303 -56.5233
L44.7913 -56.1742
L44.9442 -55.8238
L45.0895 -55.4724
L45.2274 -55.1205
L45.3582 -54.7684
L45.4823 -54.4164
L45.5998 -54.0648
L45.7111 -53.7138
L45.8164 -53.3637
L45.9158 -53.0146
L46.0098 -52.6668
L46.0983 -52.3204
L46.1817 -51.9756
L46.2602 -51.6325
L46.334 -51.2911
L46.4031 -50.9517
L46.4679 -50.6143
L46.5285 -50.279
L46.5849 -49.9458
L46.6375 -49.6148
L46.6863 -49.286
L46.7315 -48.9594
L46.7732 -48.6352
L46.8115 -48.3132
L46.8466 -47.9936
L46.8786 -47.6763
L46.9075 -47.3613
L46.9336 -47.0485
L46.9569 -46.7381
L46.9774 -46.4299
L46.9954 -46.124
L47.0108 -45.8203
L47.0238 -45.5188
L47.0344 -45.2194
L47.0428 -44.9221
L47.049 -44.6269
L47.053 -44.3338
L47.0549 -44.0426
L47.0548 -43.7534
L47.0528 -43.4661
L47.0488 -43.1806
L47.043 -42.8969
L47.0354 -42.6149
L47.026 -42.3347
L47.0149 -42.0561
L47.0021 -41.779
L46.9877 -41.5035
L46.9716 -41.2295
L46.954 -40.9568
L46.9349 -40.6855
L46.9142 -40.4156
L46.892 -40.1468
L46.8683 -39.8793
L46.8432 -39.6129
L46.8166 -39.3475
L46.7886 -39.0832
L46.7593 -38.8198
L46.7285 -38.5573
L46.6963 -38.2956
L46.6627 -38.0347
L46.6278 -37.7746
L46.5915 -37.5151
L46.5539 -37.2562
L46.5149 -36.9978
L46.4745 -36.74
L46.4328 -36.4826
L46.3897 -36.2255
z
" id="C0_1_a6b04433a9"/>
    </defs>
    <g clip-path="url(#p1bffca34e9)">
     <use style="fill:#ffffff;stroke:#000000;stroke-width:2.0;" x="0.0" xlink:href="#C0_0_a811fe30f3" y="72.0"/>
    </g>
    <g clip-path="url(#p1bffca34e9)">
     <use style="fill:#ff0000;stroke:#000000;stroke-width:2.0;" x="0.0" xlink:href="#C0_1_a6b04433a9" y="72.0"/>
    </g>
   </g>
  </g>
 </g>
 <defs>
  <clipPath id="p1bffca34e9">
   <rect height="72.0" width="72.0" x="0.0" y="0.0"/>
  </clipPath>
 </defs>
</svg>
