<?xml version="1.0" encoding="utf-8" standalone="no"?>
<!DOCTYPE svg PUBLIC "-//W3C//DTD SVG 1.1//EN"
  "http://www.w3.org/Graphics/SVG/1.1/DTD/svg11.dtd">
<!-- Created with matplotlib (http://matplotlib.org/) -->
<svg height="72pt" version="1.1" viewBox="0 0 72 72" width="72pt" xmlns="http://www.w3.org/2000/svg" xmlns:xlink="http://www.w3.org/1999/xlink">
 <defs>
  <style type="text/css">
*{stroke-linecap:butt;stroke-linejoin:round;}
  </style>
 </defs>
 <g id="figure_1">
  <g id="patch_1">
   <path d="
M0 72
L72 72
L72 0
L0 0
z
" style="fill:none;"/>
  </g>
  <g id="axes_1">
   <g id="PatchCollection_1">
    <defs>
     <path d="
M36 -7.5
C43.5583 -7.5 50.808 -10.5029 56.1525 -15.8475
C61.4971 -21.192 64.5 -28.4417 64.5 -36
C64.5 -43.5583 61.4971 -50.808 56.1525 -56.1525
C50.808 -61.4971 43.5583 -64.5 36 -64.5
C28.4417 -64.5 21.192 -61.4971 15.8475 -56.1525
C10.5029 -50.808 7.5 -43.5583 7.5 -36
C7.5 -28.4417 10.5029 -21.192 15.8475 -15.8475
C21.192 -10.5029 28.4417 -7.5 36 -7.5
z
" id="C0_0_a811fe30f3"/>
     <path d="
M64.044 -40.1846
L63.8651 -40.0114
L63.6856 -39.8409
L63.5054 -39.6731
L63.3247 -39.508
L63.1434 -39.3453
L62.9616 -39.1851
L62.7794 -39.0273
L62.5967 -38.8718
L62.4135 -38.7185
L62.2299 -38.5673
L62.0458 -38.4183
L61.8613 -38.2713
L61.6764 -38.1262
L61.4911 -37.983
L61.3053 -37.8417
L61.1191 -37.7021
L60.9325 -37.5643
L60.7454 -37.4281
L60.5579 -37.2935
L60.3699 -37.1605
L60.1814 -37.0289
L59.9924 -36.8988
L59.8028 -36.7701
L59.6127 -36.6427
L59.422 -36.5166
L59.2308 -36.3917
L59.0388 -36.268
L58.8463 -36.1455
L58.653 -36.0241
L58.4591 -35.9038
L58.2643 -35.7845
L58.0688 -35.6662
L57.8725 -35.5488
L57.6753 -35.4323
L57.4773 -35.3167
L57.2782 -35.2019
L56.8773 -35.088
L56.6752 -34.9748
L56.472 -34.8623
L56.2677 -34.7505
L56.0622 -34.6394
L55.8554 -34.5289
L55.6474 -34.4191
L55.438 -34.3098
L55.2272 -34.201
L55.015 -34.0928
L54.8012 -33.985
L54.5859 -33.8778
L54.369 -33.7709
L54.1505 -33.6645
L53.9302 -33.5585
L53.7081 -33.4528
L53.4842 -33.3475
L53.2584 -33.2425
L53.0306 -33.1377
L52.8007 -33.0333
L52.5688 -32.9291
L52.3347 -32.8252
L52.0984 -32.7215
L51.8598 -32.618
L51.6189 -32.5146
L51.3755 -32.4115
L51.1296 -32.3085
L50.8812 -32.2056
L50.6301 -32.1028
L50.3763 -32.0002
L50.1197 -31.8976
L49.8603 -31.7952
L49.598 -31.6928
L49.3326 -31.5904
L49.0642 -31.4881
L48.7927 -31.3859
L48.5179 -31.2837
L48.2399 -31.1815
L47.9585 -31.0794
L47.6737 -30.9773
L47.3855 -30.8752
L47.0937 -30.7731
L46.7983 -30.671
L46.4992 -30.5689
L46.1965 -30.4668
L45.8899 -30.3647
L45.5795 -30.2627
L45.2653 -30.1606
L44.9472 -30.0586
L44.6251 -29.9565
L44.2991 -29.8545
L43.9691 -29.7525
L43.6351 -29.6505
L43.2971 -29.5486
L42.9551 -29.4466
L42.6092 -29.3447
L42.2593 -29.2428
L41.9056 -29.1409
L41.548 -29.0391
L41.1866 -28.9372
L40.8216 -28.8353
L40.453 -28.7334
L40.081 -28.6315
L39.7058 -28.5294
L39.3274 -28.4272
L38.9462 -28.3248
L38.5624 -28.2222
L38.1762 -28.1192
L37.7881 -28.0158
L37.3982 -27.9118
L37.0071 -27.8072
L36.6151 -27.7016
L36.2229 -27.595
L35.831 -27.487
L35.44 -27.3774
L35.0507 -27.2659
L34.6639 -27.1519
L34.2804 -27.0351
L33.9014 -26.915
L33.5279 -26.7908
L33.1611 -26.6619
L32.8023 -26.5274
L32.4531 -26.3866
L32.1149 -26.2383
L31.7893 -26.0815
L31.4779 -25.9152
L31.1824 -25.7381
L30.9042 -25.5492
L30.6447 -25.3474
L30.405 -25.1319
L30.186 -24.9019
L29.9882 -24.6571
L29.8117 -24.3974
L29.6563 -24.1229
L29.5215 -23.8342
L29.4065 -23.5321
L29.3105 -23.2176
L29.2322 -22.892
L29.1705 -22.5565
L29.1243 -22.2124
L29.0924 -21.8611
L29.0738 -21.504
L29.0673 -21.1421
L29.072 -20.7766
L29.0872 -20.4086
L29.1118 -20.0391
L29.1453 -19.6688
L29.187 -19.2987
L29.2363 -18.9293
L29.2925 -18.5612
L29.3554 -18.1952
L29.4243 -17.8315
L29.499 -17.4707
L29.579 -17.113
L29.664 -16.759
L29.7537 -16.4087
L29.8478 -16.0625
L29.9461 -15.7205
L30.0483 -15.383
L30.1542 -15.0501
L30.2636 -14.7219
L30.3763 -14.3986
L30.4921 -14.0801
L30.6109 -13.7666
L30.7325 -13.4581
L30.8568 -13.1546
L30.9837 -12.8562
L31.113 -12.5628
L31.2446 -12.2744
L31.3785 -11.9911
L31.5145 -11.7127
L31.6526 -11.4393
L31.7927 -11.1708
L31.9346 -10.9072
L32.0784 -10.6485
L32.224 -10.3944
L32.3714 -10.1451
L32.5204 -9.90042
L32.671 -9.66032
L32.8233 -9.42473
L32.9772 -9.19357
L33.1326 -8.96679
L33.2895 -8.74432
L33.4479 -8.52607
L33.6079 -8.31199
L33.7693 -8.102
L33.9322 -7.89604
L34.4199 -7.69403
L34.9168 -7.54383
L35.414 -7.52059
L35.9114 -7.50603
L36.4088 -7.50014
L36.9061 -7.50293
L37.4031 -7.51441
L37.8996 -7.53456
L38.3956 -7.56338
L38.8909 -7.60086
L39.3853 -7.647
L39.8787 -7.70177
L40.3708 -7.76516
L40.8617 -7.83716
L41.351 -7.91773
L41.8388 -8.00685
L42.3247 -8.1045
L42.8088 -8.21065
L43.2907 -8.32527
L43.7704 -8.44831
L44.2478 -8.57975
L44.7227 -8.71954
L45.1949 -8.86764
L45.6643 -9.024
L46.1307 -9.18858
L46.5941 -9.36133
L47.0542 -9.54219
L47.511 -9.73111
L47.9642 -9.92804
L48.4139 -10.1329
L48.8597 -10.3456
L49.3016 -10.5662
L49.7395 -10.7945
L50.1732 -11.0305
L50.6026 -11.2741
L51.0275 -11.5252
L51.4478 -11.7838
L51.8635 -12.0497
L52.2743 -12.323
L52.6801 -12.6035
L53.0809 -12.891
L53.4764 -13.1857
L53.8667 -13.4872
L54.2515 -13.7957
L54.6307 -14.1109
L55.0043 -14.4327
L55.372 -14.7612
L55.7339 -15.0961
L56.0898 -15.4374
L56.4395 -15.7849
L56.783 -16.1386
L57.1202 -16.4983
L57.451 -16.864
L57.7752 -17.2355
L58.0928 -17.6128
L58.4036 -17.9956
L58.7077 -18.3839
L59.0048 -18.7776
L59.2949 -19.1765
L59.5779 -19.5806
L59.8537 -19.9896
L60.1223 -20.4035
L60.3835 -20.8222
L60.6373 -21.2455
L60.8836 -21.6733
L61.1223 -22.1055
L61.3533 -22.5419
L61.5767 -22.9824
L61.7922 -23.4268
L61.9999 -23.8751
L62.1996 -24.3271
L62.3914 -24.7826
L62.5752 -25.2416
L62.7508 -25.7038
L62.9183 -26.1692
L63.0776 -26.6376
L63.2286 -27.1088
L63.3714 -27.5827
L63.5058 -28.0592
L63.6319 -28.5381
L63.7495 -29.0193
L63.8586 -29.5026
L63.9593 -29.9879
L64.0515 -30.475
L64.1351 -30.9638
L64.2102 -31.4541
L64.2766 -31.9458
L64.3345 -32.4388
L64.3837 -32.9328
L64.4243 -33.4278
L64.4562 -33.9235
L64.4794 -34.4199
L64.494 -34.9168
L64.4999 -35.414
L64.4971 -35.9114
L64.4856 -36.4088
L64.4654 -36.9061
L64.4366 -37.4031
L64.3991 -37.8996
L64.353 -38.3956
L64.2982 -38.8909
z
" id="C0_1_8d79131909"/>
     <path d="
M37.8944 -64.3691
L37.7071 -64.1952
L37.523 -64.0204
L37.342 -63.8448
L37.1641 -63.6684
L36.989 -63.4912
L36.8168 -63.3133
L36.6474 -63.1346
L36.4805 -62.9552
L36.3163 -62.775
L36.1545 -62.5942
L35.9951 -62.4127
L35.8381 -62.2305
L35.6833 -62.0476
L35.5306 -61.8641
L35.3801 -61.6798
L35.2316 -61.4948
L35.085 -61.3091
L34.9403 -61.1226
L34.7975 -60.9355
L34.6564 -60.7475
L34.5171 -60.5588
L34.3794 -60.3693
L34.2433 -60.1789
L34.1088 -59.9877
L33.9757 -59.7956
L33.8441 -59.6026
L33.7138 -59.4087
L33.585 -59.2138
L33.4574 -59.0179
L33.331 -58.821
L33.2059 -58.623
L33.082 -58.4239
L32.9591 -58.2236
L32.8374 -58.0222
L32.7167 -57.8195
L32.5971 -57.6156
L32.4784 -57.4103
L32.3606 -57.2037
L32.2438 -56.9956
L32.1278 -56.7861
L32.0127 -56.5751
L31.8985 -56.3625
L31.785 -56.1483
L31.6723 -55.9325
L31.5603 -55.7149
L31.449 -55.4955
L31.3384 -55.2743
L31.2285 -55.0512
L31.1193 -54.8262
L31.0106 -54.5991
L30.9026 -54.37
L30.7952 -54.1387
L30.6883 -53.9052
L30.582 -53.6694
L30.4762 -53.4313
L30.3709 -53.1908
L30.2662 -52.9478
L30.162 -52.7022
L30.0582 -52.4541
L29.9549 -52.2032
L29.8521 -51.9496
L29.7498 -51.6932
L29.6479 -51.4339
L29.5465 -51.1716
L29.4455 -50.9062
L29.3449 -50.6377
L29.2448 -50.366
L29.1452 -50.0911
L29.046 -49.8128
L28.9472 -49.5311
L28.8489 -49.2459
L28.7511 -48.9572
L28.6537 -48.6648
L28.5568 -48.3688
L28.4604 -48.069
L28.3645 -47.7654
L28.269 -47.4579
L28.1741 -47.1465
L28.0797 -46.8311
L27.9859 -46.5116
L27.8926 -46.1881
L27.7998 -45.8605
L27.7077 -45.5288
L27.6161 -45.1929
L27.5252 -44.8528
L27.4349 -44.5085
L27.3452 -44.1601
L27.2561 -43.8075
L27.1677 -43.4507
L27.08 -43.0899
L26.9929 -42.725
L26.9065 -42.3561
L26.8207 -41.9833
L26.7355 -41.6068
L26.651 -41.2266
L26.567 -40.8429
L26.4835 -40.4558
L26.4004 -40.0656
L26.3177 -39.6725
L26.2352 -39.2768
L26.1529 -38.8788
L26.0706 -38.4787
L25.988 -38.0771
L25.905 -37.6743
L25.8213 -37.2709
L25.7366 -36.8673
L25.6505 -36.4643
L25.5625 -36.0625
L25.4721 -35.6626
L25.3788 -35.2656
L25.2819 -34.8725
L25.1805 -34.4841
L25.0738 -34.1018
L24.9608 -33.7268
L24.8404 -33.3604
L24.7114 -33.0041
L24.5727 -32.6593
L24.4229 -32.3276
L24.2607 -32.0105
L24.0851 -31.7095
L23.8951 -31.4257
L23.6897 -31.1602
L23.4687 -30.9138
L23.2316 -30.6871
L22.9788 -30.48
L22.7108 -30.2925
L22.4283 -30.1241
L22.1323 -29.9741
L21.8242 -29.8416
L21.5052 -29.7256
L21.1767 -29.6249
L20.8401 -29.5387
L20.4968 -29.4657
L20.148 -29.4051
L19.7949 -29.3558
L19.4386 -29.317
L19.0801 -29.2879
L18.7203 -29.2678
L18.36 -29.256
L17.9999 -29.252
L17.6406 -29.2552
L17.2828 -29.2651
L16.9269 -29.2814
L16.5734 -29.3035
L16.2226 -29.3312
L15.875 -29.3641
L15.5307 -29.402
L15.1901 -29.4445
L14.8533 -29.4914
L14.5206 -29.5425
L14.1921 -29.5976
L13.8679 -29.6565
L13.5481 -29.719
L13.2329 -29.785
L12.9223 -29.8542
L12.6163 -29.9266
L12.315 -30.002
L12.0184 -30.0803
L11.7265 -30.1614
L11.4392 -30.2452
L11.1567 -30.3316
L10.8788 -30.4204
L10.6055 -30.5117
L10.3369 -30.6053
L10.0727 -30.7012
L9.81309 -30.7992
L9.5579 -30.8994
L9.30709 -31.0017
L9.06061 -31.106
L8.81839 -31.2123
L8.58037 -31.3206
L8.34648 -31.4308
L8.11665 -31.5428
L7.76257 -31.6568
L7.69951 -32.1402
L7.64507 -32.6336
L7.59927 -33.1281
L7.56211 -33.6234
L7.53362 -34.1194
L7.51381 -34.616
L7.50266 -35.113
L7.5002 -35.6103
L7.50642 -36.1077
L7.52132 -36.6051
L7.5449 -37.1023
L7.57714 -37.5991
L7.61804 -38.0955
L7.66759 -38.5912
L7.72576 -39.0861
L7.79255 -39.5801
L7.86793 -40.0731
L7.95188 -40.5647
L8.04437 -41.055
L8.14538 -41.5437
L8.25488 -42.0308
L8.37282 -42.516
L8.49919 -42.9992
L8.63392 -43.4803
L8.777 -43.9591
L8.92836 -44.4355
L9.08798 -44.9093
L9.25579 -45.3805
L9.43174 -45.8487
L9.61579 -46.314
L9.80788 -46.7761
L10.0079 -47.2349
L10.2159 -47.6903
L10.4318 -48.1421
L10.6554 -48.5903
L10.8867 -49.0346
L11.1257 -49.4749
L11.3723 -49.9112
L11.6264 -50.3432
L11.8879 -50.7708
L12.1567 -51.1939
L12.4328 -51.6124
L12.7161 -52.0262
L13.0065 -52.435
L13.3039 -52.8389
L13.6082 -53.2376
L13.9193 -53.6311
L14.2371 -54.0192
L14.5616 -54.4018
L14.8926 -54.7788
L15.23 -55.1501
L15.5738 -55.5156
L15.9238 -55.8751
L16.2799 -56.2286
L16.642 -56.5759
L17.0099 -56.9169
L17.3837 -57.2515
L17.7632 -57.5797
L18.1482 -57.9013
L18.5386 -58.2163
L18.9344 -58.5245
L19.3354 -58.8258
L19.7414 -59.1201
L20.1524 -59.4074
L20.5682 -59.6876
L20.9887 -59.9606
L21.4138 -60.2263
L21.8434 -60.4846
L22.2772 -60.7354
L22.7152 -60.9787
L23.1573 -61.2144
L23.6033 -61.4424
L24.0531 -61.6627
L24.5065 -61.8751
L24.9634 -62.0797
L25.4236 -62.2763
L25.8871 -62.4649
L26.3537 -62.6454
L26.8232 -62.8179
L27.2955 -62.9822
L27.7705 -63.1382
L28.2479 -63.286
L28.7277 -63.4254
L29.2098 -63.5566
L29.6939 -63.6793
L30.1799 -63.7936
L30.6677 -63.8994
L31.1571 -63.9967
L31.648 -64.0855
L32.1402 -64.1658
L32.6336 -64.2374
L33.1281 -64.3005
L33.6234 -64.3549
L34.1194 -64.4007
L34.616 -64.4379
L35.113 -64.4664
L35.6103 -64.4862
L36.1077 -64.4973
L36.6051 -64.4998
L37.1023 -64.4936
z
" id="C0_2_ab32a09b9f"/>
    </defs>
    <g clip-path="url(#p1bffca34e9)">
     <use style="fill:#ffffff;stroke:#000000;stroke-width:2.0;" x="0.0" xlink:href="#C0_0_a811fe30f3" y="72.0"/>
    </g>
    <g clip-path="url(#p1bffca34e9)">
     <use style="fill:#ff0000;stroke:#000000;stroke-width:2.0;" x="0.0" xlink:href="#C0_1_8d79131909" y="72.0"/>
    </g>
    <g clip-path="url(#p1bffca34e9)">
     <use style="fill:#ff0000;stroke:#000000;stroke-width:2.0;" x="0.0" xlink:href="#C0_2_ab32a09b9f" y="72.0"/>
    </g>
   </g>
  </g>
 </g>
 <defs>
  <clipPath id="p1bffca34e9">
   <rect height="72.0" width="72.0" x="0.0" y="0.0"/>
  </clipPath>
 </defs>
</svg>
