<?xml version="1.0" encoding="utf-8" standalone="no"?>
<!DOCTYPE svg PUBLIC "-//W3C//DTD SVG 1.1//EN"
  "http://www.w3.org/Graphics/SVG/1.1/DTD/svg11.dtd">
<!-- Created with matplotlib (http://matplotlib.org/) -->
<svg height="72pt" version="1.1" viewBox="0 0 72 72" width="72pt" xmlns="http://www.w3.org/2000/svg" xmlns:xlink="http://www.w3.org/1999/xlink">
 <defs>
  <style type="text/css">
*{stroke-linecap:butt;stroke-linejoin:round;}
  </style>
 </defs>
 <g id="figure_1">
  <g id="patch_1">
   <path d="
M0 72
L72 72
L72 0
L0 0
z
" style="fill:none;"/>
  </g>
  <g id="axes_1">
   <g id="PatchCollection_1">
    <defs>
     <path d="
M36 -7.5
C43.5583 -7.5 50.808 -10.5029 56.1525 -15.8475
C61.4971 -21.192 64.5 -28.4417 64.5 -36
C64.5 -43.5583 61.4971 -50.808 56.1525 -56.1525
C50.808 -61.4971 43.5583 -64.5 36 -64.5
C28.4417 -64.5 21.192 -61.4971 15.8475 -56.1525
C10.5029 -50.808 7.5 -43.5583 7.5 -36
C7.5 -28.4417 10.5029 -21.192 15.8475 -15.8475
C21.192 -10.5029 28.4417 -7.5 36 -7.5
z
" id="C0_0_a811fe30f3"/>
     <path d="
M38.9879 -64.2079
L39.3957 -63.9267
L39.792 -63.638
L40.177 -63.3427
L40.5507 -63.0416
L40.9133 -62.7354
L41.265 -62.4246
L41.606 -62.1098
L41.9364 -61.7917
L42.2565 -61.4705
L42.5666 -61.1469
L42.8667 -60.8213
L43.1572 -60.4939
L43.4383 -60.1653
L43.7102 -59.8356
L43.9731 -59.5053
L44.2273 -59.1746
L44.4731 -58.8438
L44.7106 -58.5131
L44.9401 -58.1827
L45.1619 -57.8528
L45.3761 -57.5237
L45.583 -57.1954
L45.7828 -56.8682
L45.9758 -56.5421
L46.1621 -56.2172
L46.3419 -55.8938
L46.5156 -55.5718
L46.6832 -55.2514
L46.8449 -54.9326
L47.001 -54.6154
L47.1517 -54.3
L47.2971 -53.9863
L47.4373 -53.6745
L47.5727 -53.3644
L47.7032 -53.0561
L47.8291 -52.7497
L47.9506 -52.4451
L48.0677 -52.1423
L48.1807 -51.8413
L48.2895 -51.5422
L48.3945 -51.2448
L48.4957 -50.9491
L48.5932 -50.6552
L48.6871 -50.363
L48.7776 -50.0725
L48.8648 -49.7836
L48.9487 -49.4963
L49.0295 -49.2105
L49.1072 -48.9262
L49.1819 -48.6434
L49.2538 -48.362
L49.3228 -48.082
L49.3892 -47.8033
L49.4529 -47.5258
L49.514 -47.2496
L49.5726 -46.9745
L49.6288 -46.7004
L49.6825 -46.4275
L49.734 -46.1555
L49.7831 -45.8844
L49.8301 -45.6142
L49.8748 -45.3448
L49.9174 -45.0762
L49.9579 -44.8082
L49.9963 -44.5409
L50.0328 -44.2742
L50.0672 -44.0079
L50.0997 -43.7421
L50.1302 -43.4767
L50.1589 -43.2116
L50.1857 -42.9468
L50.2106 -42.6821
L50.2337 -42.4176
L50.2549 -42.1532
L50.2744 -41.8887
L50.3079 -41.6242
L50.322 -41.3596
L50.3344 -41.0948
L50.3449 -40.8298
L50.3538 -40.5644
L50.3608 -40.2986
L50.3661 -40.0324
L50.3696 -39.7657
L50.3713 -39.4985
L50.3713 -39.2305
L50.3694 -38.9619
L50.3658 -38.6925
L50.3603 -38.4223
L50.353 -38.1511
L50.3438 -37.879
L50.3327 -37.6058
L50.3197 -37.3315
L50.3047 -37.056
L50.2878 -36.7793
L50.2689 -36.5013
L50.2479 -36.2219
L50.2249 -35.941
L50.1997 -35.6587
L50.1724 -35.3747
L50.1429 -35.0891
L50.1111 -34.8018
L50.077 -34.5127
L50.0406 -34.2217
L50.0017 -33.9288
L49.9603 -33.6339
L49.9164 -33.337
L49.8699 -33.0379
L49.8208 -32.7367
L49.7688 -32.4332
L49.714 -32.1275
L49.6563 -31.8194
L49.5956 -31.5088
L49.5319 -31.1958
L49.4649 -30.8802
L49.3946 -30.5621
L49.321 -30.2414
L49.2439 -29.918
L49.1632 -29.5918
L49.0789 -29.2629
L48.9907 -28.9313
L48.8985 -28.5968
L48.8024 -28.2595
L48.702 -27.9193
L48.5973 -27.5763
L48.4882 -27.2303
L48.3745 -26.8816
L48.256 -26.5299
L48.1327 -26.1754
L48.0044 -25.8181
L47.8709 -25.458
L47.732 -25.0952
L47.5877 -24.7297
L47.4378 -24.3616
L47.282 -23.9909
L47.1204 -23.6179
L46.9526 -23.2425
L46.7785 -22.8649
L46.598 -22.4853
L46.4109 -22.1038
L46.217 -21.7207
L46.0163 -21.336
L45.8085 -20.9501
L45.5934 -20.5631
L45.3711 -20.1754
L45.1412 -19.7872
L44.9037 -19.3989
L44.6584 -19.0109
L44.4053 -18.6234
L44.1442 -18.2371
L43.8749 -17.8522
L43.5975 -17.4695
L43.3117 -17.0894
L43.0175 -16.7126
L42.7148 -16.3399
L42.4035 -15.9722
L42.0834 -15.6105
L41.7545 -15.2561
L41.4166 -14.9104
L41.0695 -14.5753
L40.7128 -14.2533
L40.3463 -13.9473
L39.9696 -13.6616
L39.5821 -13.4014
L39.1834 -13.1734
L38.7733 -12.9855
L38.3524 -12.8462
L37.922 -12.762
L37.4845 -12.7359
L37.0425 -12.7656
L36.5987 -12.8448
L36.1554 -12.9658
L35.7144 -13.1209
L35.277 -13.3034
L34.8442 -13.5083
L34.4168 -13.7315
L33.9954 -13.97
L33.5805 -14.2214
L33.1724 -14.484
L32.7714 -14.7561
L32.3777 -15.0367
L31.9916 -15.3245
L31.6131 -15.6188
L31.2424 -15.9188
L30.8795 -16.2238
L30.5244 -16.5331
L30.1773 -16.8463
L29.838 -17.1628
L29.5066 -17.4821
L29.183 -17.8038
L28.8671 -18.1276
L28.559 -18.453
L28.2585 -18.7797
L27.9655 -19.1074
L27.6799 -19.4357
L27.4017 -19.7646
L27.1306 -20.0936
L26.8667 -20.4226
L26.6096 -20.7513
L26.3595 -21.0796
L26.1159 -21.4072
L25.879 -21.7341
L25.6484 -22.06
L25.424 -22.3849
L25.2058 -22.7086
L24.9936 -23.0311
L24.7871 -23.3522
L24.5864 -23.6718
L24.3911 -23.9899
L24.2013 -24.3065
L24.0167 -24.6214
L23.8372 -24.9347
L23.6627 -25.2463
L23.4931 -25.5561
L23.3281 -25.8643
L23.1678 -26.1706
L23.0119 -26.4753
L22.8603 -26.7781
L22.713 -27.0792
L22.5697 -27.3786
L22.4305 -27.6763
L22.2951 -27.9723
L22.1636 -28.2666
L22.0357 -28.5593
L21.9113 -28.8503
L21.7905 -29.1398
L21.6731 -29.4277
L21.5589 -29.7141
L21.448 -29.9991
L21.3402 -30.2826
L21.2354 -30.5648
L21.1337 -30.8456
L21.0348 -31.1251
L20.9388 -31.4035
L20.8455 -31.6806
L20.755 -31.9566
L20.6671 -32.2316
L20.5817 -32.5055
L20.4989 -32.7785
L20.4186 -33.0505
L20.3407 -33.3217
L20.2652 -33.5921
L20.1921 -33.8618
L20.1212 -34.1308
L20.0526 -34.3992
L19.9862 -34.6671
L19.922 -34.9344
L19.8599 -35.2013
L19.8 -35.4679
L19.7422 -35.7341
L19.6864 -36.0001
L19.6327 -36.2659
L19.581 -36.5316
L19.5314 -36.7972
L19.4837 -37.0628
L19.438 -37.3284
L19.3943 -37.5942
L19.3526 -37.8602
L19.3129 -38.1265
L19.2751 -38.3931
L19.2392 -38.66
L19.2054 -38.9274
L19.1735 -39.1953
L19.1436 -39.4638
L19.1157 -39.733
L19.0897 -40.0029
L19.0658 -40.2735
L19.0439 -40.545
L19.0241 -40.8174
L19.0064 -41.0908
L18.9907 -41.3652
L18.9772 -41.6408
L18.9659 -41.9175
L18.9567 -42.1955
L18.9498 -42.4748
L18.9452 -42.7555
L18.9429 -43.0377
L18.943 -43.3214
L18.9455 -43.6067
L18.9505 -43.8936
L18.958 -44.1822
L18.9681 -44.4727
L18.9809 -44.765
L18.9965 -45.0593
L19.0149 -45.3555
L19.0362 -45.6538
L19.0605 -45.9543
L19.0879 -46.2569
L19.1184 -46.5618
L19.1523 -46.869
L19.1895 -47.1785
L19.2303 -47.4905
L19.2746 -47.805
L19.3227 -48.122
L19.3747 -48.4416
L19.4307 -48.7638
L19.4909 -49.0887
L19.5553 -49.4164
L19.6242 -49.7468
L19.6978 -50.0799
L19.7762 -50.4159
L19.8595 -50.7548
L19.948 -51.0965
L20.0418 -51.441
L20.1412 -51.7885
L20.2464 -52.1388
L20.3576 -52.4919
L20.4749 -52.8479
L20.5988 -53.2066
L20.7293 -53.5682
L20.8667 -53.9324
L21.0113 -54.2992
L21.1634 -54.6686
L21.3231 -55.0404
L21.4909 -55.4145
L21.667 -55.7909
L21.8516 -56.1693
L22.0451 -56.5496
L22.2477 -56.9317
L22.4598 -57.3152
L22.6817 -57.7
L22.9137 -58.0858
L23.156 -58.4724
L23.409 -58.8594
L23.6731 -59.2465
L23.9484 -59.6333
L24.2353 -60.0195
L24.5342 -60.4046
L24.8452 -60.788
L25.1687 -61.1694
L25.5049 -61.5481
L25.854 -61.9235
L26.2164 -62.2949
L26.6504 -62.6616
L27.1217 -62.9228
L27.5957 -63.0818
L28.0723 -63.2327
L28.5512 -63.3752
L29.0325 -63.5094
L29.5158 -63.6352
L30.0012 -63.7526
L30.4883 -63.8615
L30.9772 -63.962
L31.4676 -64.0539
L31.9593 -64.1373
L32.4523 -64.2121
L32.9464 -64.2783
L33.4413 -64.3359
L33.9371 -64.3849
L34.4335 -64.4252
L34.9304 -64.4569
L35.4276 -64.4799
L35.925 -64.4943
L36.4224 -64.4999
L36.9197 -64.4969
L37.4167 -64.4852
L37.9132 -64.4648
L38.4092 -64.4357
z
" id="C0_1_f74c503414"/>
     <path d="
M45.333 -9.19219
L44.8142 -9.24263
L44.2964 -9.30163
L43.7803 -9.36827
L43.2662 -9.4414
L42.7548 -9.51941
L42.2467 -9.60022
L41.7426 -9.68098
L41.2435 -9.75786
L40.7501 -9.8258
L40.2636 -9.87825
L39.7848 -9.90741
L39.3145 -9.90511
L38.8527 -9.86475
L38.3985 -9.78362
L37.9501 -9.66394
L37.5055 -9.51192
L37.0625 -9.33543
L36.6193 -9.14214
L36.1747 -8.9385
L35.7279 -8.72957
L35.2783 -8.51921
L34.8257 -8.31029
L34.3699 -8.10501
L33.911 -7.90501
L33.936 -7.71156
L34.4324 -7.57484
L34.9293 -7.54314
L35.4265 -7.52012
L35.9239 -7.50577
L36.4213 -7.5001
L36.9185 -7.50311
L37.4155 -7.51481
L37.9121 -7.53518
L38.4081 -7.56422
L38.9033 -7.60192
L39.3977 -7.64827
L39.891 -7.70326
L40.3832 -7.76687
L40.874 -7.83907
L41.3633 -7.91986
L41.851 -8.0092
L42.3369 -8.10706
L42.8209 -8.21343
L43.3028 -8.32825
L43.7825 -8.45151
L44.2598 -8.58315
L44.7345 -8.72315
z
" id="C0_2_1829225812"/>
    </defs>
    <g clip-path="url(#p1bffca34e9)">
     <use style="fill:#ffffff;stroke:#000000;stroke-width:2.0;" x="0.0" xlink:href="#C0_0_a811fe30f3" y="72.0"/>
    </g>
    <g clip-path="url(#p1bffca34e9)">
     <use style="fill:#ff0000;stroke:#000000;stroke-width:2.0;" x="0.0" xlink:href="#C0_1_f74c503414" y="72.0"/>
    </g>
    <g clip-path="url(#p1bffca34e9)">
     <use style="fill:#ff0000;stroke:#000000;stroke-width:2.0;" x="0.0" xlink:href="#C0_2_1829225812" y="72.0"/>
    </g>
   </g>
  </g>
 </g>
 <defs>
  <clipPath id="p1bffca34e9">
   <rect height="72.0" width="72.0" x="0.0" y="0.0"/>
  </clipPath>
 </defs>
</svg>
