<?xml version="1.0" encoding="utf-8" standalone="no"?>
<!DOCTYPE svg PUBLIC "-//W3C//DTD SVG 1.1//EN"
  "http://www.w3.org/Graphics/SVG/1.1/DTD/svg11.dtd">
<!-- Created with matplotlib (http://matplotlib.org/) -->
<svg height="72pt" version="1.1" viewBox="0 0 72 72" width="72pt" xmlns="http://www.w3.org/2000/svg" xmlns:xlink="http://www.w3.org/1999/xlink">
 <defs>
  <style type="text/css">
*{stroke-linecap:butt;stroke-linejoin:round;}
  </style>
 </defs>
 <g id="figure_1">
  <g id="patch_1">
   <path d="
M0 72
L72 72
L72 0
L0 0
z
" style="fill:none;"/>
  </g>
  <g id="axes_1">
   <g id="PatchCollection_1">
    <defs>
     <path d="
M36 -7.5
C43.5583 -7.5 50.808 -10.5029 56.1525 -15.8475
C61.4971 -21.192 64.5 -28.4417 64.5 -36
C64.5 -43.5583 61.4971 -50.808 56.1525 -56.1525
C50.808 -61.4971 43.5583 -64.5 36 -64.5
C28.4417 -64.5 21.192 -61.4971 15.8475 -56.1525
C10.5029 -50.808 7.5 -43.5583 7.5 -36
C7.5 -28.4417 10.5029 -21.192 15.8475 -15.8475
C21.192 -10.5029 28.4417 -7.5 36 -7.5
z
" id="C0_0_a811fe30f3"/>
     <path d="
M18.6949 -58.4649
L18.7823 -58.3071
L18.8705 -58.1489
L18.9593 -57.9903
L19.049 -57.8311
L19.1395 -57.6714
L19.3229 -57.5111
L19.4158 -57.3501
L19.5096 -57.1885
L19.6043 -57.0262
L19.6999 -56.8631
L19.7965 -56.6992
L19.894 -56.5345
L19.9925 -56.3688
L20.0921 -56.2022
L20.1927 -56.0346
L20.2943 -55.8659
L20.3971 -55.6962
L20.501 -55.5252
L20.606 -55.3531
L20.7123 -55.1797
L20.8198 -55.005
L20.9286 -54.8289
L21.0387 -54.6514
L21.1501 -54.4724
L21.263 -54.2918
L21.3772 -54.1097
L21.4929 -53.9259
L21.6102 -53.7403
L21.729 -53.553
L21.8494 -53.3638
L21.9714 -53.1726
L22.0952 -52.9795
L22.2206 -52.7844
L22.3479 -52.5871
L22.477 -52.3876
L22.608 -52.1858
L22.7409 -51.9817
L22.8759 -51.7753
L23.0129 -51.5663
L23.152 -51.3548
L23.2932 -51.1406
L23.4367 -50.9238
L23.5824 -50.7041
L23.7305 -50.4816
L23.8809 -50.2562
L24.0338 -50.0278
L24.1892 -49.7963
L24.3472 -49.5616
L24.5077 -49.3237
L24.671 -49.0824
L24.837 -48.8378
L25.0057 -48.5897
L25.1773 -48.3381
L25.3518 -48.0829
L25.5293 -47.824
L25.7097 -47.5613
L25.8932 -47.2949
L26.0798 -47.0245
L26.2695 -46.7503
L26.4624 -46.472
L26.6585 -46.1897
L26.8578 -45.9033
L27.0603 -45.6128
L27.2661 -45.3182
L27.4752 -45.0193
L27.6875 -44.7163
L27.9031 -44.409
L28.122 -44.0975
L28.344 -43.7817
L28.5692 -43.4618
L28.7974 -43.1376
L29.0287 -42.8094
L29.2629 -42.477
L29.4999 -42.1405
L29.7395 -41.8001
L29.9815 -41.4558
L30.2259 -41.1078
L30.4721 -40.756
L30.7201 -40.4008
L30.9694 -40.0422
L31.2195 -39.6804
L31.4699 -39.3156
L31.72 -38.948
L31.9689 -38.5779
L32.2156 -38.2056
L32.4588 -37.8313
L32.6969 -37.4555
L32.9278 -37.0785
L33.1487 -36.7008
L33.3559 -36.3231
L33.5446 -35.946
L33.7089 -35.5703
L33.841 -35.197
L33.9322 -34.8274
L33.9737 -34.4628
L33.9589 -34.1045
L33.8851 -33.7537
L33.7548 -33.411
L33.5746 -33.0762
L33.3533 -32.7489
L33.0996 -32.4283
L32.821 -32.1134
L32.5238 -31.8037
L32.2127 -31.4986
L31.8914 -31.1977
L31.5628 -30.9008
L31.229 -30.6077
L30.8917 -30.3183
L30.5523 -30.0327
L30.2118 -29.7508
L29.8712 -29.4727
L29.5311 -29.1984
L29.1922 -28.9279
L28.8549 -28.6613
L28.5196 -28.3986
L28.1867 -28.1399
L27.8565 -27.8851
L27.5292 -27.6344
L27.2051 -27.3877
L26.8843 -27.1451
L26.567 -26.9066
L26.2532 -26.6721
L25.9432 -26.4417
L25.637 -26.2153
L25.3347 -25.993
L25.0362 -25.7747
L24.7417 -25.5604
L24.4511 -25.35
L24.1644 -25.1436
L23.8818 -24.941
L23.603 -24.7422
L23.3282 -24.5472
L23.0573 -24.3559
L22.7903 -24.1682
L22.527 -23.9841
L22.2676 -23.8036
L22.0118 -23.6265
L21.7597 -23.4529
L21.5113 -23.2825
L21.2663 -23.1154
L21.0249 -22.9516
L20.7868 -22.7908
L20.5521 -22.6331
L20.3207 -22.4784
L20.0925 -22.3266
L19.8674 -22.1777
L19.6454 -22.0316
L19.4263 -21.8882
L19.2102 -21.7474
L18.9969 -21.6092
L18.7863 -21.4736
L18.5784 -21.3404
L18.3732 -21.2097
L18.1705 -21.0812
L17.9702 -20.9551
L17.7723 -20.8311
L17.5768 -20.7094
L17.3835 -20.5897
L17.1924 -20.4721
L17.0034 -20.3565
L16.8165 -20.2429
L16.6315 -20.1312
L16.4485 -20.0213
L16.2673 -19.9132
L16.0879 -19.8069
L15.9102 -19.7023
L15.7342 -19.5994
L15.5597 -19.4982
L15.3868 -19.3985
L15.2154 -19.3004
L15.0454 -19.2038
L14.8768 -19.1087
L14.7095 -19.0151
L14.5434 -18.9228
L14.3786 -18.832
L14.2149 -18.7426
L14.0522 -18.6544
L13.8906 -18.5676
L13.73 -18.4821
L13.3359 -18.3978
L13.0378 -18.7203
L12.7467 -19.1184
L12.4626 -19.5218
L12.1857 -19.9301
L11.9161 -20.3433
L11.6538 -20.7613
L11.399 -21.184
L11.1516 -21.6111
L10.9118 -22.0427
L10.6796 -22.4785
L10.4552 -22.9184
L10.2385 -23.3623
L10.0297 -23.81
L9.82878 -24.2615
L9.63585 -24.7165
L9.45094 -25.175
L9.27412 -25.6367
L9.10544 -26.1017
L8.94495 -26.5696
L8.79271 -27.0404
L8.64875 -27.5139
L8.51312 -27.9901
L8.38587 -28.4686
L8.26702 -28.9495
L8.15663 -29.4325
L8.05472 -29.9175
L7.96131 -30.4044
L7.87645 -30.8929
L7.80016 -31.3831
L7.73246 -31.8746
L7.67336 -32.3674
L7.6229 -32.8613
L7.58108 -33.3561
L7.54792 -33.8518
L7.52342 -34.3481
L7.5076 -34.8449
L7.50045 -35.342
L7.50199 -35.8394
L7.51221 -36.3368
L7.5311 -36.8341
L7.55867 -37.3312
L7.5949 -37.8278
L7.63979 -38.3239
L7.69331 -38.8193
L7.75546 -39.3138
L7.8262 -39.8073
L7.90553 -40.2997
L7.99342 -40.7907
L8.08984 -41.2803
L8.19476 -41.7683
L8.30816 -42.2545
L8.42998 -42.7388
L8.56021 -43.2211
L8.69879 -43.7011
L8.84569 -44.1789
L9.00086 -44.6541
L9.16425 -45.1267
L9.33582 -45.5965
L9.51551 -46.0634
L9.70327 -46.5272
L9.89904 -46.9878
L10.1028 -47.4451
L10.3144 -47.8989
L10.5338 -48.349
L10.761 -48.7954
L10.9959 -49.2379
L11.2384 -49.6764
L11.4884 -50.1107
L11.7459 -50.5407
L12.0108 -50.9663
L12.283 -51.3873
L12.5624 -51.8036
L12.849 -52.2151
L13.1426 -52.6217
L13.4432 -53.0232
L13.7506 -53.4195
L14.0648 -53.8105
L14.3857 -54.1961
L14.7132 -54.5762
L15.0472 -54.9506
L15.3876 -55.3192
L15.7342 -55.6819
L16.087 -56.0387
L16.4459 -56.3893
L16.8107 -56.7337
L17.1814 -57.0718
L17.5578 -57.4035
L17.9398 -57.7287
z
" id="C0_1_6a9c006d93"/>
     <path d="
M58.3303 -53.6069
L58.2118 -53.4709
L58.0924 -53.3346
L57.9721 -53.1982
L57.8508 -53.0614
L57.7285 -52.9243
L57.6052 -52.7869
L57.4808 -52.649
L57.3554 -52.5108
L57.2288 -52.372
L57.1011 -52.2328
L56.9723 -52.0929
L56.8422 -51.9525
L56.7109 -51.8114
L56.5783 -51.6697
L56.4443 -51.5272
L56.3091 -51.3839
L56.1724 -51.2399
L56.0343 -51.0949
L55.8947 -50.9491
L55.7536 -50.8023
L55.6109 -50.6545
L55.4666 -50.5056
L55.3206 -50.3557
L55.1729 -50.2046
L55.0234 -50.0523
L54.8721 -49.8988
L54.7189 -49.744
L54.5638 -49.5878
L54.4067 -49.4302
L54.2475 -49.2712
L54.0862 -49.1107
L53.9228 -48.9486
L53.7571 -48.7849
L53.5891 -48.6196
L53.4188 -48.4525
L53.246 -48.2836
L53.0708 -48.1129
L52.8929 -47.9403
L52.7125 -47.7657
L52.5293 -47.5891
L52.3433 -47.4104
L52.1545 -47.2296
L51.9628 -47.0466
L51.7681 -46.8614
L51.5702 -46.6738
L51.3693 -46.4839
L51.1651 -46.2915
L50.9576 -46.0966
L50.7467 -45.8992
L50.5324 -45.6991
L50.3146 -45.4964
L50.0931 -45.291
L49.868 -45.0827
L49.6391 -44.8717
L49.4065 -44.6577
L49.1699 -44.4408
L48.9294 -44.2209
L48.6849 -43.998
L48.4364 -43.772
L48.1837 -43.5429
L47.927 -43.3107
L47.666 -43.0752
L47.4008 -42.8366
L47.1314 -42.5947
L46.8577 -42.3496
L46.5797 -42.1012
L46.2975 -41.8496
L46.0111 -41.5946
L45.7204 -41.3365
L45.4257 -41.0751
L45.1268 -40.8104
L44.8239 -40.5426
L44.5171 -40.2716
L44.2066 -39.9975
L43.8924 -39.7203
L43.5749 -39.4401
L43.2542 -39.157
L42.9306 -38.8711
L42.6045 -38.5823
L42.2762 -38.2908
L41.9462 -37.9967
L41.6152 -37.7001
L41.2837 -37.401
L40.9527 -37.0995
L40.6233 -36.7957
L40.2966 -36.4896
L39.9746 -36.1813
L39.6593 -35.8706
L39.3535 -35.5575
L39.061 -35.2417
L38.7865 -34.9229
L38.5363 -34.6005
L38.318 -34.274
L38.1405 -33.9423
L38.0124 -33.6048
L37.9408 -33.2608
L37.9281 -32.9103
L37.9721 -32.5537
L38.066 -32.1922
L38.2013 -31.8271
L38.3694 -31.4596
L38.5626 -31.091
L38.7748 -30.7223
L39.0014 -30.3542
L39.2387 -29.9875
L39.484 -29.6226
L39.735 -29.2601
L39.9901 -28.9003
L40.2481 -28.5435
L40.5079 -28.1901
L40.7687 -27.8402
L41.0297 -27.4942
L41.2905 -27.1522
L41.5505 -26.8142
L41.8095 -26.4806
L42.0669 -26.1514
L42.3227 -25.8267
L42.5765 -25.5067
L42.8282 -25.1912
L43.0775 -24.8805
L43.3244 -24.5746
L43.5686 -24.2734
L43.8102 -23.9771
L44.0491 -23.6855
L44.2851 -23.3988
L44.5183 -23.1168
L44.7485 -22.8396
L44.9758 -22.5671
L45.2002 -22.2993
L45.4216 -22.0361
L45.6401 -21.7775
L45.8556 -21.5235
L46.0682 -21.2739
L46.2779 -21.0287
L46.4847 -20.7878
L46.6887 -20.5512
L46.8898 -20.3188
L47.0882 -20.0905
L47.2839 -19.8662
L47.4768 -19.6458
L47.6672 -19.4293
L47.8549 -19.2166
L48.0401 -19.0076
L48.2228 -18.8022
L48.4031 -18.6003
L48.5811 -18.4019
L48.7567 -18.2068
L48.93 -18.0151
L49.1011 -17.8265
L49.2701 -17.641
L49.437 -17.4586
L49.6019 -17.2792
L49.7647 -17.1026
L49.9257 -16.9289
L50.0848 -16.7579
L50.242 -16.5895
L50.3975 -16.4238
L50.5514 -16.2606
L50.7035 -16.0998
L50.8541 -15.9414
L51.0031 -15.7854
L51.1507 -15.6316
L51.2968 -15.48
L51.4415 -15.3306
L51.5849 -15.1832
L51.727 -15.0379
L51.8678 -14.8945
L52.0075 -14.753
L52.146 -14.6135
L52.2835 -14.4757
L52.4199 -14.3397
L52.5553 -14.2053
L52.6897 -14.0727
L52.8232 -13.9417
L52.9559 -13.8123
L53.0877 -13.6844
L53.2188 -13.558
L53.7621 -13.4331
L54.1484 -13.712
L54.5292 -14.0253
L54.9043 -14.3454
L55.2736 -14.6721
L55.6371 -15.0053
L55.9946 -15.3448
L56.346 -15.6907
L56.6912 -16.0428
L57.0301 -16.4009
L57.3626 -16.765
L57.6885 -17.1349
L58.0079 -17.5106
L58.3206 -17.892
L58.6265 -18.2788
L58.9255 -18.6711
L59.2175 -19.0686
L59.5024 -19.4713
L59.7802 -19.879
L60.0507 -20.2916
L60.3139 -20.709
L60.5697 -21.1311
L60.818 -21.5577
L61.0588 -21.9887
L61.2919 -22.424
L61.5173 -22.8634
L61.7349 -23.3068
L61.9447 -23.754
L62.1466 -24.2051
L62.3406 -24.6596
L62.5265 -25.1177
L62.7043 -25.5791
L62.874 -26.0436
L63.0355 -26.5112
L63.1888 -26.9816
L63.3338 -27.4548
L63.4704 -27.9306
L63.5987 -28.4089
L63.7186 -28.8895
L63.8301 -29.3722
L63.9331 -29.857
L64.0275 -30.3436
L64.1134 -30.832
L64.1908 -31.3219
L64.2596 -31.8133
L64.3197 -32.3059
L64.3713 -32.7997
L64.4142 -33.2944
L64.4484 -33.79
L64.474 -34.2862
L64.4909 -34.783
L64.4991 -35.2801
L64.4987 -35.7775
L64.4895 -36.2749
L64.4717 -36.7722
L64.4452 -37.2693
L64.4101 -37.766
L64.3663 -38.2622
L64.3138 -38.7576
L64.2528 -39.2523
L64.1831 -39.7459
L64.1048 -40.2384
L64.018 -40.7297
L63.9226 -41.2194
L63.8188 -41.7076
L63.7064 -42.1941
L63.5856 -42.6786
L63.4565 -43.1612
L63.3189 -43.6415
L63.1731 -44.1195
L63.0189 -44.5951
L62.8565 -45.068
L62.686 -45.5381
L62.5073 -46.0054
L62.3205 -46.4696
L62.1258 -46.9306
L61.923 -47.3883
L61.7124 -47.8426
L61.4939 -48.2932
L61.2677 -48.74
L61.0338 -49.183
L60.7922 -49.622
L60.5431 -50.0568
L60.2866 -50.4874
L60.0226 -50.9135
L59.7513 -51.3351
L59.4728 -51.752
L59.1871 -52.1641
L58.8944 -52.5713
z
" id="C0_2_2920e5b208"/>
    </defs>
    <g clip-path="url(#p1bffca34e9)">
     <use style="fill:#ffffff;stroke:#000000;stroke-width:2.0;" x="0.0" xlink:href="#C0_0_a811fe30f3" y="72.0"/>
    </g>
    <g clip-path="url(#p1bffca34e9)">
     <use style="fill:#ff0000;stroke:#000000;stroke-width:2.0;" x="0.0" xlink:href="#C0_1_6a9c006d93" y="72.0"/>
    </g>
    <g clip-path="url(#p1bffca34e9)">
     <use style="fill:#ff0000;stroke:#000000;stroke-width:2.0;" x="0.0" xlink:href="#C0_2_2920e5b208" y="72.0"/>
    </g>
   </g>
  </g>
 </g>
 <defs>
  <clipPath id="p1bffca34e9">
   <rect height="72.0" width="72.0" x="0.0" y="0.0"/>
  </clipPath>
 </defs>
</svg>
