<?xml version="1.0" encoding="utf-8" standalone="no"?>
<!DOCTYPE svg PUBLIC "-//W3C//DTD SVG 1.1//EN"
  "http://www.w3.org/Graphics/SVG/1.1/DTD/svg11.dtd">
<!-- Created with matplotlib (http://matplotlib.org/) -->
<svg height="72pt" version="1.1" viewBox="0 0 72 72" width="72pt" xmlns="http://www.w3.org/2000/svg" xmlns:xlink="http://www.w3.org/1999/xlink">
 <defs>
  <style type="text/css">
*{stroke-linecap:butt;stroke-linejoin:round;}
  </style>
 </defs>
 <g id="figure_1">
  <g id="patch_1">
   <path d="
M0 72
L72 72
L72 0
L0 0
z
" style="fill:none;"/>
  </g>
  <g id="axes_1">
   <g id="PatchCollection_1">
    <defs>
     <path d="
M36 -7.5
C43.5583 -7.5 50.808 -10.5029 56.1525 -15.8475
C61.4971 -21.192 64.5 -28.4417 64.5 -36
C64.5 -43.5583 61.4971 -50.808 56.1525 -56.1525
C50.808 -61.4971 43.5583 -64.5 36 -64.5
C28.4417 -64.5 21.192 -61.4971 15.8475 -56.1525
C10.5029 -50.808 7.5 -43.5583 7.5 -36
C7.5 -28.4417 10.5029 -21.192 15.8475 -15.8475
C21.192 -10.5029 28.4417 -7.5 36 -7.5
z
" id="C0_0_a811fe30f3"/>
     <path d="
M58.4132 -53.2089
L58.3109 -52.8356
L58.1863 -52.4662
L58.0466 -52.0999
L57.8954 -51.7364
L57.7349 -51.3754
L57.5665 -51.0169
L57.3913 -50.6609
L57.21 -50.3077
L57.0233 -49.9572
L56.8316 -49.6095
L56.6354 -49.2648
L56.4352 -48.9232
L56.2313 -48.5848
L56.0241 -48.2497
L55.8138 -47.9179
L55.6009 -47.5897
L55.3856 -47.2649
L55.1681 -46.9438
L54.9488 -46.6264
L54.7278 -46.3126
L54.5054 -46.0027
L54.2819 -45.6965
L54.0574 -45.3942
L53.8321 -45.0957
L53.6061 -44.801
L53.3798 -44.5103
L53.1532 -44.2233
L52.9264 -43.9402
L52.6997 -43.6609
L52.473 -43.3854
L52.2466 -43.1137
L52.0206 -42.8457
L51.7949 -42.5814
L51.5698 -42.3207
L51.3453 -42.0636
L51.1214 -41.8101
L50.8983 -41.5601
L50.6759 -41.3135
L50.4543 -41.0702
L50.2336 -40.8303
L50.0138 -40.5937
L49.7949 -40.3602
L49.5769 -40.1299
L49.3599 -39.9026
L49.1439 -39.6783
L48.9288 -39.457
L48.7147 -39.2384
L48.5016 -39.0227
L48.2895 -38.8096
L48.0783 -38.5993
L47.8681 -38.3914
L47.6588 -38.1861
L47.4505 -37.9832
L47.243 -37.7827
L47.0365 -37.5845
L46.8308 -37.3885
L46.6259 -37.1947
L46.4218 -37.0029
L46.2186 -36.8132
L46.016 -36.6255
L45.8142 -36.4397
L45.6131 -36.2557
L45.4126 -36.0735
L45.2127 -35.8931
L45.0134 -35.7142
L44.8147 -35.537
L44.6164 -35.3614
L44.4186 -35.1872
L44.2213 -35.0144
L44.0243 -34.843
L43.8276 -34.673
L43.6313 -34.5042
L43.4352 -34.3366
L43.2393 -34.1702
L43.0435 -34.0049
L42.8479 -33.8406
L42.6524 -33.6774
L42.4569 -33.5151
L42.2614 -33.3538
L42.0658 -33.1933
L41.87 -33.0336
L41.6742 -32.8747
L41.4781 -32.7165
L41.2817 -32.559
L41.0851 -32.4022
L40.6906 -32.2459
L40.4928 -32.0902
L40.2944 -31.9351
L40.0954 -31.7804
L39.8958 -31.6261
L39.6955 -31.4723
L39.4945 -31.3187
L39.2927 -31.1656
L39.0901 -31.0126
L38.8866 -30.86
L38.6821 -30.7075
L38.4766 -30.5552
L38.2701 -30.4031
L38.0624 -30.251
L37.8535 -30.0991
L37.6434 -29.9471
L37.4319 -29.7952
L37.2191 -29.6432
L37.0048 -29.4912
L36.7891 -29.339
L36.5717 -29.1868
L36.3528 -29.0344
L36.1321 -28.8818
L35.9097 -28.729
L35.6854 -28.576
L35.4593 -28.4227
L35.2311 -28.2692
L35.0009 -28.1153
L34.7687 -27.9611
L34.5342 -27.8066
L34.2975 -27.6517
L34.0584 -27.4964
L33.817 -27.3407
L33.573 -27.1846
L33.3266 -27.0281
L33.0775 -26.8711
L32.8257 -26.7137
L32.5712 -26.5558
L32.3138 -26.3975
L32.0535 -26.2387
L31.7903 -26.0794
L31.524 -25.9197
L31.2545 -25.7595
L30.9819 -25.5989
L30.706 -25.4379
L30.4268 -25.2764
L30.1442 -25.1145
L29.8581 -24.9523
L29.5686 -24.7897
L29.2755 -24.6268
L28.9787 -24.4637
L28.6783 -24.3003
L28.3742 -24.1368
L28.0663 -23.9731
L27.7546 -23.8093
L27.4391 -23.6456
L27.1198 -23.482
L26.7966 -23.3185
L26.4695 -23.1553
L26.1386 -22.9924
L25.8038 -22.8299
L25.4651 -22.6681
L25.1226 -22.5069
L24.7763 -22.3465
L24.4262 -22.1871
L24.0725 -22.0287
L23.7151 -21.8717
L23.3541 -21.716
L22.9897 -21.562
L22.6218 -21.4097
L22.2508 -21.2594
L21.8765 -21.1113
L21.4993 -20.9656
L21.1193 -20.8226
L20.7365 -20.6824
L20.3513 -20.5454
L19.9637 -20.4118
L19.5741 -20.282
L19.1826 -20.1561
L18.7894 -20.0347
L18.3949 -19.918
L17.9992 -19.8066
L17.6028 -19.701
L17.2059 -19.6019
L16.8089 -19.5103
L16.4123 -19.4274
L16.0168 -19.3555
L15.6236 -19.2982
L15.2346 -19.2623
L14.8543 -19.2621
L14.4906 -19.3276
L14.1517 -19.5105
L13.8376 -19.8439
L13.5444 -20.2937
L13.2695 -20.8077
L13.0114 -21.3551
L12.7695 -21.9213
L12.5434 -22.4988
L12.3329 -23.0836
L12.1377 -23.673
L11.9576 -24.2653
L11.7923 -24.8591
L11.6418 -25.4533
L11.5056 -26.0469
L11.3836 -26.6393
L11.2754 -27.2295
L11.1807 -27.8171
L11.0992 -28.4014
L11.0305 -28.9818
L10.9743 -29.5579
L10.9301 -30.1293
L10.8977 -30.6955
L10.8766 -31.2562
L10.8664 -31.811
L10.8667 -32.3597
L10.8771 -32.9019
L10.8973 -33.4376
L10.9269 -33.9664
L10.9654 -34.4882
L11.0125 -35.0028
L11.0678 -35.5102
L11.131 -36.0103
L11.2017 -36.5029
L11.2796 -36.9881
L11.3643 -37.4658
L11.4555 -37.9359
L11.5529 -38.3986
L11.6562 -38.8539
L11.7651 -39.3017
L11.8793 -39.7421
L11.9987 -40.1752
L12.1229 -40.6011
L12.2516 -41.0197
L12.3847 -41.4313
L12.522 -41.836
L12.6632 -42.2337
L12.8082 -42.6247
L12.9568 -43.009
L13.1087 -43.3867
L13.2639 -43.758
L13.4222 -44.123
L13.5835 -44.4818
L13.7475 -44.8345
L13.9143 -45.1813
L14.0836 -45.5223
L14.2554 -45.8576
L14.4296 -46.1874
L14.6061 -46.5116
L14.7848 -46.8306
L14.9656 -47.1444
L15.1485 -47.4531
L15.3333 -47.7568
L15.5201 -48.0558
L15.7088 -48.35
L15.8993 -48.6395
L16.0916 -48.9246
L16.2857 -49.2053
L16.4816 -49.4818
L16.6791 -49.754
L16.8783 -50.0222
L17.0792 -50.2864
L17.2818 -50.5468
L17.486 -50.8034
L17.6918 -51.0562
L17.8993 -51.3055
L18.1085 -51.5513
L18.3193 -51.7936
L18.5318 -52.0326
L18.746 -52.2684
L18.9618 -52.5009
L19.1794 -52.7303
L19.3987 -52.9567
L19.6198 -53.1801
L19.8427 -53.4006
L20.0674 -53.6182
L20.294 -53.833
L20.5224 -54.0451
L20.7528 -54.2545
L20.9852 -54.4613
L21.2195 -54.6654
L21.456 -54.8671
L21.6945 -55.0662
L21.9352 -55.2629
L22.1781 -55.4572
L22.4233 -55.6491
L22.6709 -55.8386
L22.9208 -56.0258
L23.1732 -56.2107
L23.4281 -56.3933
L23.6855 -56.5736
L23.9457 -56.7517
L24.2085 -56.9276
L24.4742 -57.1012
L24.7428 -57.2727
L25.0143 -57.4418
L25.2888 -57.6088
L25.5665 -57.7736
L25.8474 -57.9361
L26.1316 -58.0963
L26.4191 -58.2543
L26.7102 -58.41
L27.0048 -58.5634
L27.3031 -58.7145
L27.6051 -58.8631
L27.911 -59.0094
L28.2209 -59.1531
L28.5349 -59.2944
L28.853 -59.4331
L29.1754 -59.5691
L29.5022 -59.7024
L29.8336 -59.833
L30.1695 -59.9606
L30.5101 -60.0854
L30.8556 -60.2071
L31.206 -60.3256
L31.5615 -60.4409
L31.9222 -60.5528
L32.2881 -60.6612
L32.6595 -60.766
L33.0363 -60.867
L33.4188 -60.964
L33.807 -61.057
L34.201 -61.1457
L34.601 -61.2299
L35.0069 -61.3096
L35.419 -61.3843
L35.8373 -61.4541
L36.2619 -61.5185
L36.6928 -61.5774
L37.1301 -61.6306
L37.574 -61.6778
L38.0243 -61.7186
L38.4812 -61.7529
L38.9448 -61.7803
L39.4149 -61.8005
L39.8916 -61.8132
L40.3749 -61.8181
L40.8648 -61.8148
L41.3611 -61.803
L41.8639 -61.7823
L42.3729 -61.7524
L42.8882 -61.7128
L43.4095 -61.6632
L43.9367 -61.6032
L44.4696 -61.5323
L45.0079 -61.4503
L45.5514 -61.3566
L46.0998 -61.2508
L46.6528 -61.1326
L47.21 -61.0016
L47.771 -60.8574
L48.3354 -60.6995
L48.9026 -60.5276
L49.4722 -60.3413
L50.0437 -60.1404
L50.6163 -59.9244
L51.1895 -59.6931
L51.7625 -59.4462
L52.3346 -59.1835
L52.905 -58.9048
L53.4726 -58.6099
L54.0365 -58.2987
L54.465 -57.9712
L54.8411 -57.7093
L55.2114 -57.3837
L55.5759 -57.0516
L55.9344 -56.7131
L56.2868 -56.3683
L56.6331 -56.0173
L56.9731 -55.6602
L57.3067 -55.2971
L57.6338 -54.9282
L57.9543 -54.5534
L58.2681 -54.1731
z
" id="C0_1_25280ed83e"/>
     <path d="
M17.434 -14.4069
L17.0093 -14.9074
L16.5964 -15.4148
L16.1954 -15.9266
L15.8064 -16.4389
L15.4289 -16.9443
L15.0614 -17.4282
L14.7003 -17.8601
L14.338 -18.188
L13.967 -18.378
L13.8641 -18.4639
L14.1807 -18.0487
L14.5041 -17.6651
L14.8339 -17.2871
L15.1702 -16.9148
L15.5129 -16.5483
L15.8618 -16.1877
L16.2168 -15.8332
L16.5778 -15.4848
L16.9448 -15.1426
z
" id="C0_2_ebc1bc6414"/>
    </defs>
    <g clip-path="url(#p1bffca34e9)">
     <use style="fill:#ff0000;stroke:#000000;stroke-width:2.0;" x="0.0" xlink:href="#C0_0_a811fe30f3" y="72.0"/>
    </g>
    <g clip-path="url(#p1bffca34e9)">
     <use style="fill:#ffffff;stroke:#000000;stroke-width:2.0;" x="0.0" xlink:href="#C0_1_25280ed83e" y="72.0"/>
    </g>
    <g clip-path="url(#p1bffca34e9)">
     <use style="fill:#ffffff;stroke:#000000;stroke-width:2.0;" x="0.0" xlink:href="#C0_2_ebc1bc6414" y="72.0"/>
    </g>
   </g>
  </g>
 </g>
 <defs>
  <clipPath id="p1bffca34e9">
   <rect height="72.0" width="72.0" x="0.0" y="0.0"/>
  </clipPath>
 </defs>
</svg>
