<?xml version="1.0" encoding="utf-8" standalone="no"?>
<!DOCTYPE svg PUBLIC "-//W3C//DTD SVG 1.1//EN"
  "http://www.w3.org/Graphics/SVG/1.1/DTD/svg11.dtd">
<!-- Created with matplotlib (http://matplotlib.org/) -->
<svg height="72pt" version="1.1" viewBox="0 0 72 72" width="72pt" xmlns="http://www.w3.org/2000/svg" xmlns:xlink="http://www.w3.org/1999/xlink">
 <defs>
  <style type="text/css">
*{stroke-linecap:butt;stroke-linejoin:round;}
  </style>
 </defs>
 <g id="figure_1">
  <g id="patch_1">
   <path d="
M0 72
L72 72
L72 0
L0 0
z
" style="fill:none;"/>
  </g>
  <g id="axes_1">
   <g id="PatchCollection_1">
    <defs>
     <path d="
M36 -7.5
C43.5583 -7.5 50.808 -10.5029 56.1525 -15.8475
C61.4971 -21.192 64.5 -28.4417 64.5 -36
C64.5 -43.5583 61.4971 -50.808 56.1525 -56.1525
C50.808 -61.4971 43.5583 -64.5 36 -64.5
C28.4417 -64.5 21.192 -61.4971 15.8475 -56.1525
C10.5029 -50.808 7.5 -43.5583 7.5 -36
C7.5 -28.4417 10.5029 -21.192 15.8475 -15.8475
C21.192 -10.5029 28.4417 -7.5 36 -7.5
z
" id="C0_0_a811fe30f3"/>
     <path d="
M56.1661 -16.0716
L55.8452 -16.1259
L55.5286 -16.1961
L55.2158 -16.2803
L54.9068 -16.3771
L54.6014 -16.485
L54.2993 -16.603
L54.0004 -16.7299
L53.7047 -16.8647
L53.4121 -17.0066
L53.1224 -17.1548
L52.8356 -17.3087
L52.5516 -17.4676
L52.2705 -17.631
L51.9921 -17.7984
L51.7164 -17.9693
L51.4435 -18.1434
L51.1733 -18.3202
L50.9058 -18.4994
L50.641 -18.6808
L50.3788 -18.864
L50.1192 -19.0488
L49.8623 -19.2349
L49.6079 -19.4222
L49.3562 -19.6105
L49.107 -19.7995
L48.8603 -19.9892
L48.6162 -20.1794
L48.3746 -20.3699
L48.1354 -20.5607
L47.8986 -20.7516
L47.6643 -20.9425
L47.4323 -21.1334
L47.2026 -21.3242
L46.9753 -21.5148
L46.7502 -21.7052
L46.5273 -21.8953
L46.3066 -22.085
L46.088 -22.2744
L45.8715 -22.4633
L45.6571 -22.6518
L45.4446 -22.8399
L45.2342 -23.0274
L45.0256 -23.2145
L44.8189 -23.4011
L44.614 -23.5872
L44.4109 -23.7727
L44.2095 -23.9578
L44.0098 -24.1423
L43.8117 -24.3264
L43.6152 -24.5099
L43.4202 -24.693
L43.2267 -24.8756
L43.0346 -25.0578
L42.8439 -25.2395
L42.6545 -25.4208
L42.4664 -25.6018
L42.2796 -25.7823
L42.0939 -25.9625
L41.9094 -26.1424
L41.726 -26.322
L41.5436 -26.5014
L41.3622 -26.6805
L41.1818 -26.8594
L41.0023 -27.0381
L40.8236 -27.2167
L40.6458 -27.3952
L40.4687 -27.5736
L40.2923 -27.7519
L40.1166 -27.9302
L39.9416 -28.1086
L39.7671 -28.287
L39.5932 -28.4656
L39.4198 -28.6442
L39.2468 -28.8231
L39.0743 -29.0022
L38.9021 -29.1815
L38.7303 -29.3611
L38.5587 -29.541
L38.2162 -29.7213
L38.0453 -29.9021
L37.8744 -30.0833
L37.7036 -30.265
L37.5329 -30.4473
L37.3622 -30.6301
L37.1914 -30.8136
L37.0205 -30.9977
L36.8495 -31.1826
L36.6783 -31.3683
L36.5069 -31.5548
L36.3353 -31.7421
L36.1634 -31.9304
L35.9912 -32.1197
L35.8186 -32.3099
L35.6456 -32.5012
L35.4722 -32.6936
L35.2983 -32.8872
L35.1239 -33.0821
L34.9489 -33.2781
L34.7733 -33.4755
L34.5972 -33.6743
L34.4203 -33.8745
L34.2428 -34.0762
L34.0646 -34.2795
L33.8856 -34.4843
L33.7058 -34.6908
L33.5252 -34.8989
L33.3438 -35.1089
L33.1614 -35.3206
L32.9782 -35.5343
L32.794 -35.7499
L32.6089 -35.9674
L32.4228 -36.187
L32.2357 -36.4087
L32.0476 -36.6326
L31.8584 -36.8587
L31.6682 -37.087
L31.4769 -37.3177
L31.2845 -37.5508
L31.0911 -37.7864
L30.8965 -38.0244
L30.7009 -38.265
L30.5042 -38.5081
L30.3064 -38.754
L30.1076 -39.0025
L29.9077 -39.2538
L29.7068 -39.5079
L29.5049 -39.7648
L29.302 -40.0246
L29.0983 -40.2873
L28.8936 -40.553
L28.6882 -40.8216
L28.4821 -41.0933
L28.2753 -41.368
L28.068 -41.6457
L27.8602 -41.9265
L27.652 -42.2104
L27.4437 -42.4974
L27.2353 -42.7875
L27.027 -43.0806
L26.8189 -43.3768
L26.6114 -43.6761
L26.4046 -43.9783
L26.1987 -44.2836
L25.994 -44.5918
L25.791 -44.9028
L25.5898 -45.2167
L25.3909 -45.5334
L25.1947 -45.8528
L25.0017 -46.1747
L24.8124 -46.4992
L24.6274 -46.8261
L24.4475 -47.1554
L24.2733 -47.4868
L24.1057 -47.8203
L23.9457 -48.1557
L23.7944 -48.493
L23.6529 -48.8319
L23.5227 -49.1723
L23.4053 -49.514
L23.3024 -49.8569
L23.2158 -50.2007
L23.1476 -50.5452
L23.1 -50.8902
L23.0753 -51.2354
L23.0755 -51.5805
L23.1029 -51.9251
L23.1594 -52.2687
L23.2466 -52.6109
L23.3653 -52.9511
L23.516 -53.2887
L23.6986 -53.6228
L23.9123 -53.9529
L24.1556 -54.278
L24.4268 -54.5975
L24.7239 -54.9106
L25.0447 -55.2166
L25.3868 -55.5149
L25.7481 -55.8048
L26.1264 -56.0859
L26.5197 -56.3578
L26.9262 -56.6201
L27.344 -56.8725
L27.7717 -57.1148
L28.2078 -57.3468
L28.6511 -57.5684
L29.1003 -57.7795
L29.5544 -57.9801
L30.0125 -58.1701
L30.4737 -58.3497
L30.9371 -58.5188
L31.4021 -58.6776
L31.8681 -58.8262
L32.3343 -58.9647
L32.8004 -59.0932
L33.2657 -59.2119
L33.7299 -59.321
L34.1926 -59.4206
L34.6534 -59.5111
L35.112 -59.5925
L35.568 -59.6651
L36.0213 -59.729
L36.4716 -59.7846
L36.9187 -59.832
L37.3624 -59.8715
L37.8025 -59.9032
L38.2389 -59.9273
L38.6716 -59.9442
L39.1003 -59.954
L39.525 -59.9568
L39.9456 -59.953
L40.3622 -59.9427
L40.7745 -59.9261
L41.1827 -59.9034
L41.5866 -59.8748
L41.9864 -59.8404
L42.3819 -59.8005
L42.7731 -59.7551
L43.1602 -59.7046
L43.5431 -59.6489
L43.9218 -59.5883
L44.2964 -59.5229
L44.6669 -59.4528
L45.0333 -59.3782
L45.3958 -59.2991
L45.7543 -59.2158
L46.1089 -59.1283
L46.4596 -59.0367
L46.8066 -58.9411
L47.1498 -58.8417
L47.4893 -58.7384
L47.8253 -58.6314
L48.1577 -58.5207
L48.4866 -58.4065
L48.8121 -58.2887
L49.1342 -58.1675
L49.453 -58.0429
L49.7686 -57.915
L50.0811 -57.7837
L50.3904 -57.6492
L50.6967 -57.5114
L51 -57.3704
L51.3003 -57.2263
L51.5978 -57.079
L51.8925 -56.9286
L52.1845 -56.7751
L52.4738 -56.6185
L52.7604 -56.4587
L53.0444 -56.2959
L53.3259 -56.1299
L53.605 -55.9609
L53.8816 -55.7887
L54.1558 -55.6135
L54.4276 -55.435
L54.6972 -55.2534
L54.9645 -55.0686
L55.2296 -54.8806
L55.4924 -54.6894
L55.7532 -54.4948
L56.0118 -54.297
L56.2683 -54.0958
L56.5228 -53.8912
L56.7752 -53.6831
L57.0256 -53.4716
L57.2739 -53.2564
L57.5203 -53.0377
L57.7648 -52.8153
L58.0072 -52.5892
L58.2477 -52.3592
L58.4863 -52.1254
L58.7229 -51.8876
L58.9575 -51.6458
L59.1902 -51.3999
L59.4208 -51.1499
L59.6495 -50.8955
L59.8761 -50.6368
L60.1007 -50.3736
L60.3233 -50.1058
L60.5437 -49.8334
L60.7619 -49.5563
L60.978 -49.2743
L61.1918 -48.9873
L61.4033 -48.6952
L61.6124 -48.398
L61.819 -48.0954
L62.0231 -47.7874
L62.2246 -47.4739
L62.4168 -47.1547
L62.5994 -46.6959
L62.774 -46.2333
L62.9404 -45.7675
L63.0986 -45.2987
L63.2485 -44.8271
L63.3901 -44.3529
L63.5234 -43.876
L63.6483 -43.3968
L63.7648 -42.9153
L63.8728 -42.4317
L63.9723 -41.9462
L64.0633 -41.4589
L64.1458 -40.9698
L64.2197 -40.4793
L64.285 -39.9874
L64.3417 -39.4943
L64.3897 -39.0001
L64.4291 -38.505
L64.4598 -38.0092
L64.4819 -37.5127
L64.4953 -37.0158
L64.5 -36.5186
L64.496 -36.0212
L64.4834 -35.5238
L64.462 -35.0265
L64.432 -34.5296
L64.3934 -34.0331
L64.3461 -33.5372
L64.2901 -33.042
L64.2256 -32.5478
L64.1524 -32.0545
L64.0707 -31.5625
L63.9804 -31.0719
L63.8816 -30.5827
L63.7743 -30.0952
L63.6585 -29.6095
L63.5344 -29.1258
L63.4018 -28.6441
L63.2609 -28.1647
L63.1117 -27.6877
L62.9542 -27.2132
L62.7885 -26.7413
L62.6146 -26.2723
L62.4327 -25.8063
L62.2427 -25.3434
L62.0447 -24.8837
L61.8387 -24.4274
L61.6249 -23.9746
L61.4033 -23.5255
L61.1739 -23.0802
L60.9369 -22.6388
L60.6923 -22.2015
L60.4402 -21.7684
L60.1806 -21.3396
L59.9136 -20.9153
L59.6394 -20.4956
L59.358 -20.0806
L59.0694 -19.6704
L58.7739 -19.2653
L58.4713 -18.8652
L58.162 -18.4703
L57.8459 -18.0808
L57.5231 -17.6968
L57.1938 -17.3183
L56.858 -16.9455
z
" id="C0_1_eebed6a3e8"/>
     <path d="
M9.68144 -25.2133
L9.59495 -25.5858
L9.51304 -25.9616
L9.43578 -26.3407
L9.36326 -26.7233
L9.29555 -27.1093
L9.23277 -27.4987
L9.175 -27.8917
L9.12235 -28.2883
L9.07493 -28.6885
L9.03285 -29.0923
L8.99624 -29.4997
L8.9652 -29.9109
L8.93987 -30.3257
L8.92039 -30.7442
L8.90688 -31.1664
L8.89949 -31.5923
L8.89836 -32.0219
L8.90363 -32.4551
L8.91545 -32.892
L8.93398 -33.3325
L8.95936 -33.7766
L8.99175 -34.2242
L9.03129 -34.6752
L9.07814 -35.1296
L9.13245 -35.5873
L9.19435 -36.0481
L9.26401 -36.5121
L9.34153 -36.9789
L9.42707 -37.4486
L9.52072 -37.9208
L9.6226 -38.3956
L9.7328 -38.8726
L9.8514 -39.3516
L9.97844 -39.8325
L10.114 -40.315
L10.258 -40.7988
L10.4105 -41.2836
L10.5714 -41.7692
L10.7407 -42.2553
L10.9181 -42.7414
L11.1035 -43.2273
L11.2966 -43.7125
L11.4971 -44.1968
L11.7047 -44.6796
L11.9188 -45.1606
L12.1388 -45.6394
L12.3641 -46.1154
L12.5938 -46.5883
L12.827 -47.0576
L13.0625 -47.5227
L13.299 -47.9834
L13.5352 -48.439
L13.7692 -48.8891
L13.9992 -49.3333
L14.2231 -49.7712
L14.4387 -50.2024
L14.6438 -50.6265
L14.8359 -51.0434
L15.0127 -51.4527
L15.1723 -51.8544
L15.3129 -52.2484
L15.4332 -52.6349
L15.5326 -53.014
L15.611 -53.3859
L15.6689 -53.7508
L15.7074 -54.1092
L15.728 -54.4612
L15.7322 -54.8072
L15.722 -55.1476
L15.6992 -55.4824
L15.243 -55.812
L14.9054 -55.5294
L14.5741 -55.1642
L14.2494 -54.7931
L13.9313 -54.4163
L13.6199 -54.0339
L13.3154 -53.646
L13.0177 -53.2527
L12.7271 -52.8542
L12.4435 -52.4506
L12.1671 -52.0419
L11.898 -51.6283
L11.6362 -51.21
L11.3819 -50.787
L11.135 -50.3596
L10.8957 -49.9277
L10.6641 -49.4917
L10.4402 -49.0515
L10.224 -48.6073
L10.0157 -48.1593
L9.81538 -47.7076
L9.62298 -47.2524
L9.43862 -46.7937
L9.26236 -46.3317
L9.09424 -45.8665
L8.93431 -45.3984
L8.78263 -44.9274
L8.63923 -44.4537
L8.50418 -43.9774
L8.3775 -43.4986
L8.25923 -43.0176
L8.14941 -42.5345
L8.04808 -42.0494
L7.95526 -41.5624
L7.87098 -41.0737
L7.79527 -40.5835
L7.72815 -40.0919
L7.66965 -39.599
L7.61977 -39.105
L7.57854 -38.6101
L7.54597 -38.1144
L7.52206 -37.6181
L7.50683 -37.1212
L7.50028 -36.6241
L7.50241 -36.1267
L7.51322 -35.6293
L7.53271 -35.132
L7.56087 -34.635
L7.59769 -34.1383
L7.64316 -33.6423
L7.69727 -33.147
L7.76001 -32.6525
L7.83134 -32.1591
L7.91126 -31.6668
L7.99973 -31.1758
L8.09673 -30.6864
L8.20223 -30.1985
L8.31619 -29.7124
L8.43859 -29.2282
L8.56939 -28.7461
L8.70854 -28.2662
L8.85601 -27.7886
L9.01174 -27.3136
L9.17569 -26.8412
L9.34782 -26.3716
z
" id="C0_2_902fb9a4c2"/>
    </defs>
    <g clip-path="url(#p1bffca34e9)">
     <use style="fill:#ffffff;stroke:#000000;stroke-width:2.0;" x="0.0" xlink:href="#C0_0_a811fe30f3" y="72.0"/>
    </g>
    <g clip-path="url(#p1bffca34e9)">
     <use style="fill:#ff0000;stroke:#000000;stroke-width:2.0;" x="0.0" xlink:href="#C0_1_eebed6a3e8" y="72.0"/>
    </g>
    <g clip-path="url(#p1bffca34e9)">
     <use style="fill:#ff0000;stroke:#000000;stroke-width:2.0;" x="0.0" xlink:href="#C0_2_902fb9a4c2" y="72.0"/>
    </g>
   </g>
  </g>
 </g>
 <defs>
  <clipPath id="p1bffca34e9">
   <rect height="72.0" width="72.0" x="0.0" y="0.0"/>
  </clipPath>
 </defs>
</svg>
