<?xml version="1.0" encoding="utf-8" standalone="no"?>
<!DOCTYPE svg PUBLIC "-//W3C//DTD SVG 1.1//EN"
  "http://www.w3.org/Graphics/SVG/1.1/DTD/svg11.dtd">
<!-- Created with matplotlib (http://matplotlib.org/) -->
<svg height="72pt" version="1.1" viewBox="0 0 72 72" width="72pt" xmlns="http://www.w3.org/2000/svg" xmlns:xlink="http://www.w3.org/1999/xlink">
 <defs>
  <style type="text/css">
*{stroke-linecap:butt;stroke-linejoin:round;}
  </style>
 </defs>
 <g id="figure_1">
  <g id="patch_1">
   <path d="
M0 72
L72 72
L72 0
L0 0
z
" style="fill:none;"/>
  </g>
  <g id="axes_1">
   <g id="PatchCollection_1">
    <defs>
     <path d="
M36 -7.5
C43.5583 -7.5 50.808 -10.5029 56.1525 -15.8475
C61.4971 -21.192 64.5 -28.4417 64.5 -36
C64.5 -43.5583 61.4971 -50.808 56.1525 -56.1525
C50.808 -61.4971 43.5583 -64.5 36 -64.5
C28.4417 -64.5 21.192 -61.4971 15.8475 -56.1525
C10.5029 -50.808 7.5 -43.5583 7.5 -36
C7.5 -28.4417 10.5029 -21.192 15.8475 -15.8475
C21.192 -10.5029 28.4417 -7.5 36 -7.5
z
" id="C0_0_a811fe30f3"/>
     <path d="
M50.8257 -60.2918
L50.4245 -60.3225
L50.0417 -60.3281
L49.6789 -60.3084
L49.3378 -60.263
L49.0193 -60.1921
L48.7243 -60.0961
L48.4528 -59.9755
L48.2048 -59.8314
L47.9796 -59.6648
L47.776 -59.4771
L47.5927 -59.2698
L47.4281 -59.0445
L47.2806 -58.8028
L47.1484 -58.5463
L47.0298 -58.2766
L46.9231 -57.9951
L46.8268 -57.7032
L46.7395 -57.4022
L46.6599 -57.0932
L46.5867 -56.7773
L46.5192 -56.4556
L46.4562 -56.1288
L46.3971 -55.7978
L46.3411 -55.4633
L46.2878 -55.1259
L46.2365 -54.7862
L46.1869 -54.4448
L46.1385 -54.1022
L46.0911 -53.7586
L46.0444 -53.4147
L45.9982 -53.0706
L45.9523 -52.7268
L45.9065 -52.3834
L45.8607 -52.0408
L45.8148 -51.6992
L45.7686 -51.3588
L45.7222 -51.0198
L45.6754 -50.6823
L45.6283 -50.3465
L45.5807 -50.0125
L45.5327 -49.6804
L45.4842 -49.3503
L45.4352 -49.0223
L45.3857 -48.6965
L45.3357 -48.3729
L45.2852 -48.0516
L45.2343 -47.7325
L45.1828 -47.4158
L45.1308 -47.1015
L45.0784 -46.7895
L45.0255 -46.4799
L44.9721 -46.1727
L44.9183 -45.8679
L44.864 -45.5654
L44.8093 -45.2652
L44.7542 -44.9673
L44.6986 -44.6717
L44.6427 -44.3784
L44.5864 -44.0873
L44.5296 -43.7984
L44.4725 -43.5116
L44.415 -43.227
L44.3572 -42.9444
L44.299 -42.6638
L44.2404 -42.3852
L44.1815 -42.1085
L44.1222 -41.8337
L44.0626 -41.5607
L44.0026 -41.2895
L43.9423 -41.0199
L43.8816 -40.752
L43.8206 -40.4858
L43.7593 -40.221
L43.6976 -39.9578
L43.6356 -39.696
L43.5732 -39.4355
L43.5104 -39.1764
L43.4473 -38.9186
L43.3838 -38.6619
L43.3199 -38.4064
L43.2557 -38.1519
L43.191 -37.8985
L43.126 -37.646
L43.0606 -37.3945
L42.9947 -37.1438
L42.9284 -36.8939
L42.8617 -36.6447
L42.7945 -36.3962
L42.7269 -36.1483
L42.6588 -35.901
L42.5903 -35.6542
L42.5212 -35.4078
L42.4516 -35.1618
L42.3815 -34.9161
L42.2397 -34.6707
L42.1679 -34.4256
L42.0955 -34.1805
L42.0226 -33.9356
L41.949 -33.6908
L41.8747 -33.4459
L41.7998 -33.2009
L41.7243 -32.9558
L41.648 -32.7106
L41.571 -32.4651
L41.4932 -32.2193
L41.4147 -31.9732
L41.3354 -31.7266
L41.2553 -31.4796
L41.1744 -31.2321
L41.0926 -30.984
L41.0099 -30.7354
L40.9263 -30.486
L40.8418 -30.2359
L40.7563 -29.985
L40.6698 -29.7333
L40.5823 -29.4807
L40.4938 -29.2272
L40.4042 -28.9727
L40.3135 -28.7171
L40.2217 -28.4605
L40.1287 -28.2027
L40.0345 -27.9437
L39.9392 -27.6835
L39.8425 -27.422
L39.7446 -27.1592
L39.6454 -26.895
L39.5449 -26.6294
L39.443 -26.3624
L39.3397 -26.0938
L39.235 -25.8237
L39.1289 -25.5521
L39.0212 -25.2788
L38.9121 -25.0039
L38.8014 -24.7273
L38.6891 -24.4491
L38.5753 -24.1691
L38.4599 -23.8874
L38.3428 -23.6039
L38.2241 -23.3186
L38.1038 -23.0316
L37.9818 -22.7428
L37.8581 -22.4522
L37.7327 -22.1598
L37.6056 -21.8656
L37.4769 -21.5697
L37.3465 -21.272
L37.2144 -20.9725
L37.0808 -20.6714
L36.9455 -20.3687
L36.8087 -20.0643
L36.6704 -19.7584
L36.5307 -19.451
L36.3897 -19.1421
L36.2475 -18.832
L36.1041 -18.5205
L35.9597 -18.2079
L35.8145 -17.8942
L35.6687 -17.5796
L35.5224 -17.2642
L35.376 -16.9481
L35.2297 -16.6314
L35.0838 -16.3143
L34.9387 -15.997
L34.7949 -15.6797
L34.6528 -15.3625
L34.513 -15.0456
L34.3761 -14.7293
L34.243 -14.4137
L34.1143 -14.0991
L33.9912 -13.7858
L33.8745 -13.4739
L33.7656 -13.1637
L33.6659 -12.8555
L33.5768 -12.5496
L33.5 -12.2462
L33.4375 -11.9457
L33.3912 -11.6484
L33.3633 -11.3546
L33.356 -11.0647
L33.3716 -10.7791
L33.4125 -10.4982
L33.4808 -10.2225
L33.5783 -9.95244
L33.7068 -9.68855
L33.8673 -9.43143
L34.0605 -9.18167
L34.2866 -8.93991
L34.5452 -8.7068
L34.8353 -8.483
L35.1557 -8.26917
L35.5046 -8.06593
L35.8803 -7.87387
L36.2805 -7.69356
L36.7781 -7.52548
L37.2752 -7.51062
L37.7719 -7.52854
L38.268 -7.55513
L38.7635 -7.59039
L39.2581 -7.6343
L39.7518 -7.68685
L40.2443 -7.74802
L40.7355 -7.8178
L41.2252 -7.89617
L41.7134 -7.98309
L42.1998 -8.07855
L42.6844 -8.18252
L43.1669 -8.29496
L43.6472 -8.41583
L44.1252 -8.54511
L44.6007 -8.68276
L45.0736 -8.82872
L45.5437 -8.98296
L46.0109 -9.14543
L46.4751 -9.31608
L46.9361 -9.49486
L47.3937 -9.68171
L47.8479 -9.87658
L48.2985 -10.0794
L48.7453 -10.2901
L49.1883 -10.5087
L49.6272 -10.735
L50.062 -10.969
L50.4924 -11.2107
L50.9185 -11.4599
L51.3401 -11.7165
L51.7569 -11.9806
L52.169 -12.252
L52.5761 -12.5306
L52.9782 -12.8163
L53.3751 -13.1092
L53.7667 -13.409
L54.1529 -13.7156
L54.5336 -14.0291
L54.9087 -14.3493
L55.2779 -14.676
L55.6413 -15.0093
L55.9988 -15.3489
L56.3501 -15.6948
L56.6952 -16.047
L57.034 -16.4052
L57.3665 -16.7693
L57.6924 -17.1393
L58.0117 -17.5151
L58.3243 -17.8965
L58.6301 -18.2834
L58.929 -18.6757
L59.2209 -19.0733
L59.5057 -19.4761
L59.7834 -19.8838
L60.0539 -20.2965
L60.317 -20.714
L60.5727 -21.1361
L60.8209 -21.5628
L61.0616 -21.9938
L61.2946 -22.4291
L61.5199 -22.8686
L61.7375 -23.3121
L61.9472 -23.7594
L62.149 -24.2104
L62.3428 -24.665
L62.5286 -25.1231
L62.7064 -25.5845
L62.876 -26.0491
L63.0374 -26.5167
L63.1906 -26.9872
L63.3354 -27.4605
L63.472 -27.9363
L63.6002 -28.4146
L63.72 -28.8952
L63.8314 -29.378
L63.9342 -29.8628
L64.0286 -30.3494
L64.1144 -30.8378
L64.1917 -31.3278
L64.2603 -31.8191
L64.3204 -32.3118
L64.3718 -32.8056
L64.4146 -33.3003
L64.4488 -33.7959
L64.4743 -34.2921
L64.4911 -34.7889
L64.4992 -35.286
L64.4986 -35.7833
L64.4894 -36.2808
L64.4715 -36.7781
L64.4449 -37.2752
L64.4096 -37.7719
L64.3657 -38.268
L64.3132 -38.7635
L64.252 -39.2581
L64.1822 -39.7518
L64.1038 -40.2443
L64.0169 -40.7355
L63.9214 -41.2252
L63.8175 -41.7134
L63.705 -42.1998
L63.5842 -42.6844
L63.4549 -43.1669
L63.3172 -43.6472
L63.1713 -44.1252
L63.017 -44.6007
L62.8546 -45.0736
L62.6839 -45.5437
L62.5051 -46.0109
L62.3183 -46.4751
L62.1234 -46.9361
L61.9206 -47.3937
L61.7099 -47.8479
L61.4913 -48.2985
L61.265 -48.7453
L61.031 -49.1883
L60.7893 -49.6272
L60.5401 -50.062
L60.2835 -50.4924
L60.0194 -50.9185
L59.748 -51.3401
L59.4694 -51.7569
L59.1837 -52.169
L58.8908 -52.5761
L58.591 -52.9782
L58.2844 -53.3751
L57.9709 -53.7667
L57.6507 -54.1529
L57.324 -54.5336
L56.9907 -54.9087
L56.6511 -55.2779
L56.3052 -55.6413
L55.953 -55.9988
L55.5948 -56.3501
L55.2307 -56.6952
L54.8607 -57.034
L54.4849 -57.3665
L54.1035 -57.6924
L53.7166 -58.0117
L53.3243 -58.3243
L52.9267 -58.6301
L52.5239 -58.929
L52.1162 -59.2209
L51.7035 -59.5057
L51.286 -59.7834
z
" id="C0_1_dac796c7f5"/>
     <path d="
M35.3035 -64.3522
L34.8772 -64.1795
L34.4421 -64.0038
L34.0002 -63.8245
L33.5533 -63.6411
L33.103 -63.4533
L32.6507 -63.2606
L32.1978 -63.0629
L31.7454 -62.8601
L31.2945 -62.6521
L30.8461 -62.439
L30.401 -62.2206
L29.9598 -61.9973
L29.5232 -61.769
L29.0917 -61.5359
L28.6657 -61.2982
L28.2456 -61.0561
L27.8318 -60.8099
L27.4245 -60.5596
L27.0239 -60.3056
L26.6303 -60.048
L26.2438 -59.7871
L25.8644 -59.5231
L25.4922 -59.2563
L25.1274 -58.9868
L24.7699 -58.7148
L24.4197 -58.4405
L24.0769 -58.1643
L23.7413 -57.8861
L23.4129 -57.6062
L23.0917 -57.3248
L22.7776 -57.0421
L22.4705 -56.7581
L22.1704 -56.473
L21.877 -56.187
L21.5904 -55.9001
L21.3104 -55.6125
L21.0369 -55.3244
L20.7698 -55.0357
L20.509 -54.7466
L20.2543 -54.4571
L20.0056 -54.1674
L19.7628 -53.8775
L19.5258 -53.5874
L19.2944 -53.2972
L19.0686 -53.007
L18.8483 -52.7168
L18.6332 -52.4266
L18.4233 -52.1365
L18.2185 -51.8464
L18.0186 -51.5565
L17.8236 -51.2666
L17.6334 -50.9769
L17.4477 -50.6873
L17.2666 -50.3978
L17.09 -50.1085
L16.9177 -49.8192
L16.7496 -49.5301
L16.5857 -49.2411
L16.4259 -48.9521
L16.2701 -48.6632
L16.1182 -48.3744
L15.97 -48.0856
L15.8257 -47.7967
L15.685 -47.5078
L15.548 -47.2189
L15.4145 -46.9298
L15.2844 -46.6407
L15.1578 -46.3513
L15.0346 -46.0617
L14.9147 -45.7719
L14.798 -45.4818
L14.6845 -45.1914
L14.5743 -44.9005
L14.4671 -44.6093
L14.3631 -44.3176
L14.2621 -44.0254
L14.1641 -43.7326
L14.0691 -43.4392
L13.9771 -43.1451
L13.8881 -42.8503
L13.8019 -42.5547
L13.7187 -42.2583
L13.6383 -41.9611
L13.5609 -41.6629
L13.4863 -41.3637
L13.4146 -41.0634
L13.3457 -40.7621
L13.2797 -40.4595
L13.2166 -40.1558
L13.1564 -39.8508
L13.099 -39.5444
L13.0445 -39.2366
L12.993 -38.9274
L12.9444 -38.6166
L12.8987 -38.3042
L12.8561 -37.9902
L12.8165 -37.6745
L12.7799 -37.357
L12.7464 -37.0377
L12.716 -36.7165
L12.6888 -36.3933
L12.6649 -36.068
L12.6442 -35.7408
L12.6268 -35.4113
L12.6129 -35.0797
L12.6023 -34.7457
L12.5954 -34.4095
L12.592 -34.0709
L12.5923 -33.7298
L12.5963 -33.3863
L12.6042 -33.0402
L12.6161 -32.6915
L12.6319 -32.3402
L12.6519 -31.9862
L12.6761 -31.6295
L12.7046 -31.27
L12.7376 -30.9076
L12.7751 -30.5425
L12.8173 -30.1744
L12.8643 -29.8035
L12.9162 -29.4296
L12.9732 -29.0528
L13.0354 -28.6731
L13.103 -28.2904
L13.176 -27.9048
L13.2546 -27.5163
L13.339 -27.1248
L13.4293 -26.7305
L13.5257 -26.3333
L13.6282 -25.9334
L13.7372 -25.5307
L13.8526 -25.1253
L13.9747 -24.7174
L14.1036 -24.3069
L14.2394 -23.8941
L14.3823 -23.4791
L14.5323 -23.0619
L14.6897 -22.6427
L14.8544 -22.2217
L15.0266 -21.7992
L15.2064 -21.3752
L15.3937 -20.95
L15.5887 -20.5239
L15.7912 -20.097
L16.0014 -19.6698
L16.219 -19.2425
L16.444 -18.8154
L16.6762 -18.3888
L16.9154 -17.9631
L17.1612 -17.5388
L17.4134 -17.1161
L17.6715 -16.6956
L17.9348 -16.2776
L18.2029 -15.8626
L18.4749 -15.4511
L18.75 -15.0436
L19.027 -14.6405
L19.3048 -14.2424
L19.5819 -13.8498
L19.8569 -13.4632
L20.128 -13.0831
L20.3932 -12.71
L20.6503 -12.3444
L20.408 -11.9868
L19.994 -12.1433
L19.5849 -12.4191
L19.1808 -12.702
L18.7818 -12.9921
L18.3881 -13.2891
L17.9997 -13.5931
L17.6168 -13.9038
L17.2396 -14.2213
L16.868 -14.5455
L16.5022 -14.8762
L16.1424 -15.2133
L15.7887 -15.5567
L15.4411 -15.9064
L15.0997 -16.2622
L14.7647 -16.624
L14.4362 -16.9917
L14.1143 -17.3652
L13.799 -17.7444
L13.4905 -18.1292
L13.1889 -18.5193
L12.8942 -18.9148
L12.6065 -19.3156
L12.326 -19.7213
L12.0526 -20.1321
L11.7866 -20.5477
L11.528 -20.968
L11.2768 -21.3928
L11.0331 -21.8222
L10.797 -22.2558
L10.5686 -22.6936
L10.348 -23.1355
L10.1352 -23.5813
L9.9302 -24.0309
L9.73319 -24.4841
L9.54418 -24.9409
L9.36323 -25.401
L9.1904 -25.8643
L9.02573 -26.3307
L8.86928 -26.8001
L8.72109 -27.2722
L8.58121 -27.7471
L8.44968 -28.2244
L8.32655 -28.7041
L8.21184 -29.186
L8.1056 -29.67
L8.00786 -30.156
L7.91864 -30.6437
L7.83798 -31.133
L7.76589 -31.6239
L7.70241 -32.116
L7.64754 -32.6094
L7.60132 -33.1038
L7.56374 -33.599
L7.53482 -34.095
L7.51458 -34.5916
L7.50301 -35.0886
L7.50012 -35.5859
L7.50592 -36.0833
L7.52039 -36.5806
L7.54354 -37.0778
L7.57535 -37.5747
L7.61583 -38.0711
L7.66495 -38.5669
L7.7227 -39.0619
L7.78907 -39.5559
L7.86403 -40.0489
L7.94756 -40.5406
L8.03963 -41.0309
L8.14022 -41.5198
L8.2493 -42.0069
L8.36683 -42.4922
L8.49278 -42.9755
L8.62711 -43.4567
L8.76977 -43.9357
L8.92073 -44.4122
L9.07994 -44.8861
L9.24735 -45.3574
L9.42291 -45.8258
L9.60656 -46.2912
L9.79826 -46.7534
L9.99793 -47.2124
L10.2055 -47.668
L10.421 -48.12
L10.6442 -48.5684
L10.8752 -49.0129
L11.1138 -49.4534
L11.36 -49.8898
L11.6137 -50.322
L11.8749 -50.7499
L12.1433 -51.1732
L12.4191 -51.592
L12.702 -52.006
L12.9921 -52.4151
L13.2891 -52.8192
L13.5931 -53.2182
L13.9038 -53.6119
L14.2213 -54.0003
L14.5455 -54.3832
L14.8762 -54.7604
L15.2133 -55.132
L15.5567 -55.4978
L15.9064 -55.8576
L16.2622 -56.2113
L16.624 -56.5589
L16.9917 -56.9003
L17.3652 -57.2353
L17.7444 -57.5638
L18.1292 -57.8857
L18.5193 -58.201
L18.9148 -58.5095
L19.3156 -58.8111
L19.7213 -59.1058
L20.1321 -59.3935
L20.5477 -59.674
L20.968 -59.9474
L21.3928 -60.2134
L21.8222 -60.472
L22.2558 -60.7232
L22.6936 -60.9669
L23.1355 -61.203
L23.5813 -61.4314
L24.0309 -61.652
L24.4841 -61.8648
L24.9409 -62.0698
L25.401 -62.2668
L25.8643 -62.4558
L26.3307 -62.6368
L26.8001 -62.8096
L27.2722 -62.9743
L27.7471 -63.1307
L28.2244 -63.2789
L28.7041 -63.4188
L29.186 -63.5503
L29.67 -63.6735
L30.156 -63.7882
L30.6437 -63.8944
L31.133 -63.9921
L31.6239 -64.0814
L32.116 -64.162
L32.6094 -64.2341
L33.1038 -64.2976
L33.599 -64.3525
L34.095 -64.3987
L34.5916 -64.4363
z
" id="C0_2_038208c9b9"/>
    </defs>
    <g clip-path="url(#p1bffca34e9)">
     <use style="fill:#ff0000;stroke:#000000;stroke-width:2.0;" x="0.0" xlink:href="#C0_0_a811fe30f3" y="72.0"/>
    </g>
    <g clip-path="url(#p1bffca34e9)">
     <use style="fill:#ffffff;stroke:#000000;stroke-width:2.0;" x="0.0" xlink:href="#C0_1_dac796c7f5" y="72.0"/>
    </g>
    <g clip-path="url(#p1bffca34e9)">
     <use style="fill:#ffffff;stroke:#000000;stroke-width:2.0;" x="0.0" xlink:href="#C0_2_038208c9b9" y="72.0"/>
    </g>
   </g>
  </g>
 </g>
 <defs>
  <clipPath id="p1bffca34e9">
   <rect height="72.0" width="72.0" x="0.0" y="0.0"/>
  </clipPath>
 </defs>
</svg>
