<?xml version="1.0" encoding="utf-8" standalone="no"?>
<!DOCTYPE svg PUBLIC "-//W3C//DTD SVG 1.1//EN"
  "http://www.w3.org/Graphics/SVG/1.1/DTD/svg11.dtd">
<!-- Created with matplotlib (http://matplotlib.org/) -->
<svg height="72pt" version="1.1" viewBox="0 0 72 72" width="72pt" xmlns="http://www.w3.org/2000/svg" xmlns:xlink="http://www.w3.org/1999/xlink">
 <defs>
  <style type="text/css">
*{stroke-linecap:butt;stroke-linejoin:round;}
  </style>
 </defs>
 <g id="figure_1">
  <g id="patch_1">
   <path d="
M0 72
L72 72
L72 0
L0 0
z
" style="fill:none;"/>
  </g>
  <g id="axes_1">
   <g id="PatchCollection_1">
    <defs>
     <path d="
M36 -7.5
C43.5583 -7.5 50.808 -10.5029 56.1525 -15.8475
C61.4971 -21.192 64.5 -28.4417 64.5 -36
C64.5 -43.5583 61.4971 -50.808 56.1525 -56.1525
C50.808 -61.4971 43.5583 -64.5 36 -64.5
C28.4417 -64.5 21.192 -61.4971 15.8475 -56.1525
C10.5029 -50.808 7.5 -43.5583 7.5 -36
C7.5 -28.4417 10.5029 -21.192 15.8475 -15.8475
C21.192 -10.5029 28.4417 -7.5 36 -7.5
z
" id="C0_0_a811fe30f3"/>
     <path d="
M52.5777 -12.9207
L52.7021 -13.2837
L52.8176 -13.6443
L52.9244 -14.0023
L53.0231 -14.3577
L53.1139 -14.7103
L53.1973 -15.06
L53.2735 -15.4069
L53.3429 -15.7508
L53.4058 -16.0917
L53.4625 -16.4295
L53.5132 -16.7643
L53.5582 -17.096
L53.5978 -17.4247
L53.6323 -17.7503
L53.6618 -18.0728
L53.6865 -18.3923
L53.7067 -18.7088
L53.7225 -19.0222
L53.7342 -19.3328
L53.742 -19.6404
L53.7459 -19.9452
L53.7461 -20.2472
L53.7429 -20.5463
L53.7362 -20.8428
L53.7264 -21.1366
L53.7134 -21.4278
L53.6974 -21.7164
L53.6786 -22.0026
L53.657 -22.2863
L53.6327 -22.5677
L53.6058 -22.8467
L53.5764 -23.1235
L53.5446 -23.3982
L53.5104 -23.6707
L53.474 -23.9412
L53.4354 -24.2097
L53.3946 -24.4763
L53.3518 -24.741
L53.3069 -25.004
L53.26 -25.2652
L53.2112 -25.5249
L53.1605 -25.7829
L53.1079 -26.0394
L53.0535 -26.2945
L52.9973 -26.5481
L52.9393 -26.8005
L52.8796 -27.0516
L52.8182 -27.3015
L52.7551 -27.5503
L52.6903 -27.798
L52.6238 -28.0447
L52.5557 -28.2905
L52.4859 -28.5353
L52.4145 -28.7794
L52.3414 -29.0227
L52.2667 -29.2654
L52.1904 -29.5074
L52.1124 -29.7488
L52.0328 -29.9897
L51.8686 -30.2301
L51.7839 -30.4702
L51.6976 -30.7099
L51.6096 -30.9493
L51.5199 -31.1885
L51.4284 -31.4276
L51.3352 -31.6665
L51.2402 -31.9054
L51.1433 -32.1443
L51.0447 -32.3832
L50.9441 -32.6223
L50.8417 -32.8615
L50.7373 -33.101
L50.631 -33.3407
L50.5226 -33.5807
L50.4123 -33.8212
L50.2998 -34.062
L50.1852 -34.3034
L50.0684 -34.5453
L49.9495 -34.7877
L49.8282 -35.0309
L49.7046 -35.2747
L49.5787 -35.5192
L49.4503 -35.7645
L49.3195 -36.0106
L49.1861 -36.2576
L49.0501 -36.5056
L48.9114 -36.7545
L48.77 -37.0043
L48.6258 -37.2553
L48.4788 -37.5073
L48.3288 -37.7604
L48.1757 -38.0147
L48.0196 -38.2701
L47.8604 -38.5268
L47.6978 -38.7847
L47.532 -39.0439
L47.3627 -39.3043
L47.19 -39.5661
L47.0137 -39.8292
L46.8337 -40.0937
L46.65 -40.3595
L46.4624 -40.6267
L46.2709 -40.8952
L46.0753 -41.165
L45.8757 -41.4362
L45.6718 -41.7088
L45.4637 -41.9826
L45.2511 -42.2577
L45.0341 -42.534
L44.8124 -42.8115
L44.5861 -43.0902
L44.3551 -43.3699
L44.1192 -43.6506
L43.8784 -43.9322
L43.6326 -44.2147
L43.3817 -44.4979
L43.1256 -44.7816
L42.8643 -45.0658
L42.5977 -45.3503
L42.3258 -45.635
L42.0485 -45.9196
L41.7657 -46.2039
L41.4774 -46.4878
L41.1837 -46.771
L40.8844 -47.0531
L40.5796 -47.3339
L40.2693 -47.6131
L39.9535 -47.8903
L39.6323 -48.1651
L39.3057 -48.4371
L38.9737 -48.7057
L38.6366 -48.9705
L38.2943 -49.2307
L37.947 -49.4859
L37.595 -49.7351
L37.2383 -49.9776
L36.8772 -50.2125
L36.5121 -50.4387
L36.1431 -50.6551
L35.7707 -50.8602
L35.3952 -51.0527
L35.0171 -51.2309
L34.6369 -51.3929
L34.2553 -51.5368
L33.8728 -51.6602
L33.4902 -51.7611
L33.1083 -51.837
L32.7279 -51.8858
L32.3498 -51.9055
L31.9748 -51.8946
L31.6037 -51.852
L31.2373 -51.7775
L30.876 -51.6715
L30.5205 -51.5352
L30.1711 -51.3701
L29.8281 -51.1785
L29.4918 -50.9625
L29.1624 -50.7247
L28.84 -50.4673
L28.5248 -50.1928
L28.2167 -49.903
L27.9158 -49.6001
L27.6221 -49.2856
L27.3357 -48.9612
L27.0566 -48.6283
L26.7846 -48.2879
L26.5199 -47.9414
L26.2624 -47.5895
L26.0119 -47.2332
L25.7685 -46.8733
L25.5321 -46.5104
L25.3026 -46.1452
L25.08 -45.7782
L24.8641 -45.41
L24.6548 -45.0409
L24.4521 -44.6715
L24.2558 -44.302
L24.0658 -43.9329
L23.8821 -43.5643
L23.7044 -43.1966
L23.5327 -42.83
L23.3669 -42.4648
L23.2068 -42.101
L23.0523 -41.739
L22.9032 -41.3788
L22.7595 -41.0206
L22.621 -40.6645
L22.4876 -40.3106
L22.3591 -39.959
L22.2355 -39.6097
L22.1166 -39.2629
L22.0023 -38.9185
L21.8925 -38.5766
L21.7871 -38.2373
L21.6858 -37.9005
L21.5888 -37.5663
L21.4957 -37.2347
L21.4066 -36.9056
L21.3212 -36.5791
L21.2396 -36.2551
L21.1617 -35.9337
L21.0872 -35.6147
L21.0162 -35.2983
L20.9485 -34.9843
L20.8841 -34.6726
L20.8229 -34.3634
L20.7648 -34.0564
L20.7097 -33.7518
L20.6576 -33.4493
L20.6083 -33.1491
L20.5619 -32.8509
L20.5183 -32.5549
L20.4773 -32.2608
L20.439 -31.9688
L20.4033 -31.6786
L20.3702 -31.3903
L20.3395 -31.1037
L20.3113 -30.8189
L20.2855 -30.5357
L20.2621 -30.2542
L20.241 -29.9742
L20.2222 -29.6957
L20.2057 -29.4186
L20.1914 -29.1429
L20.1794 -28.8684
L20.1695 -28.5953
L20.1618 -28.3232
L20.1562 -28.0523
L20.1528 -27.7825
L20.1515 -27.5136
L20.1523 -27.2457
L20.1552 -26.9786
L20.1603 -26.7124
L20.1674 -26.4469
L20.1766 -26.1821
L20.1879 -25.9179
L20.2013 -25.6543
L20.2168 -25.3911
L20.2344 -25.1285
L20.2541 -24.8662
L20.276 -24.6042
L20.3 -24.3426
L20.3262 -24.0811
L20.3546 -23.8198
L20.3852 -23.5586
L20.4181 -23.2974
L20.4532 -23.0362
L20.4907 -22.775
L20.5305 -22.5136
L20.5726 -22.2521
L20.6172 -21.9903
L20.6643 -21.7283
L20.7139 -21.4659
L20.7661 -21.2031
L20.8209 -20.9399
L20.8783 -20.6761
L20.9385 -20.4119
L21.0016 -20.147
L21.0675 -19.8816
L21.1363 -19.6154
L21.2082 -19.3485
L21.2832 -19.0809
L21.3615 -18.8124
L21.4429 -18.5431
L21.5278 -18.2729
L21.6162 -18.0017
L21.7081 -17.7296
L21.8038 -17.4565
L21.9033 -17.1824
L22.0067 -16.9072
L22.1141 -16.6309
L22.2258 -16.3536
L22.3418 -16.0751
L22.4622 -15.7955
L22.5873 -15.5147
L22.7172 -15.2327
L22.8521 -14.9497
L22.992 -14.6654
L23.1373 -14.38
L23.288 -14.0935
L23.4445 -13.8059
L23.6068 -13.5172
L23.7752 -13.2275
L23.9499 -12.9368
L24.1311 -12.6451
L24.3192 -12.3525
L24.5142 -12.0591
L24.7165 -11.765
L24.9263 -11.4703
L25.1438 -11.1751
L25.3695 -10.8794
L25.6034 -10.5835
L25.846 -10.2875
L26.0976 -9.99153
L26.3583 -9.69583
L26.6286 -9.40059
L27.0931 -9.10604
L27.567 -8.92755
L28.0434 -8.77623
L28.5222 -8.6332
L29.0033 -8.4985
L29.4865 -8.37219
L29.9718 -8.25428
L30.4588 -8.14483
L30.9476 -8.04387
L31.4378 -7.95142
L31.9295 -7.86751
L32.4224 -7.79218
L32.9164 -7.72544
L33.4114 -7.6673
L33.9071 -7.6178
L34.4035 -7.57695
L34.9003 -7.54475
L35.3975 -7.52122
L35.8949 -7.50637
L36.3923 -7.50019
L36.8896 -7.5027
L37.3866 -7.51389
L37.8832 -7.53375
L38.3792 -7.56229
L38.8745 -7.59948
L39.3689 -7.64533
L39.8623 -7.69982
L40.3545 -7.76293
L40.8454 -7.83463
L41.3349 -7.91492
L41.8226 -8.00376
L42.3087 -8.10113
L42.7928 -8.207
L43.2748 -8.32133
L43.7546 -8.4441
L44.232 -8.57526
L44.707 -8.71477
L45.1793 -8.8626
L45.6487 -9.01869
L46.1153 -9.183
L46.5788 -9.35548
L47.039 -9.53607
L47.4959 -9.72473
L47.9493 -9.92138
L48.399 -10.126
L48.845 -10.3385
L49.2871 -10.5588
L49.7251 -10.7868
L50.1589 -11.0226
L50.5884 -11.2659
L51.0135 -11.5168
L51.434 -11.7751
L51.8498 -12.0408
z
" id="C0_1_2987d86638"/>
     <path d="
M44.9848 -62.8693
L44.5831 -62.7997
L44.1795 -62.7231
L43.774 -62.6394
L43.3668 -62.5485
L42.958 -62.4506
L42.5476 -62.3455
L42.1358 -62.2334
L41.7226 -62.1142
L41.3084 -61.9881
L40.893 -61.8552
L40.4768 -61.7156
L40.0598 -61.5696
L39.6422 -61.4173
L39.2242 -61.259
L38.806 -61.0952
L38.3876 -60.9263
L37.9693 -60.7527
L37.5511 -60.575
L37.1334 -60.3941
L36.7161 -60.2107
L36.2995 -60.0257
L35.8836 -59.8405
L35.4684 -59.6562
L35.0541 -59.4744
L34.6406 -59.2968
L34.2279 -59.1254
L33.8158 -58.9621
L33.4043 -58.8093
L32.993 -58.6691
L32.5817 -58.5438
L32.1701 -58.4354
L31.7578 -58.3454
L31.3447 -58.2748
L30.9303 -58.224
L30.5146 -58.1926
L30.0973 -58.1798
L29.6784 -58.1839
L29.2581 -58.203
L28.8365 -58.235
L28.4136 -58.2776
L27.9898 -58.3288
L27.5654 -58.3864
L27.1406 -58.4487
L26.7156 -58.514
L26.2909 -58.5807
L25.8666 -58.6477
L25.4431 -58.7139
L25.0205 -58.7783
L24.5993 -58.8401
L24.1795 -58.8987
L23.7614 -58.9535
L23.3452 -59.004
L22.9312 -59.0499
L22.5194 -59.0908
L22.1101 -59.1264
L21.7034 -59.1565
L21.2994 -59.1811
L20.8983 -59.1998
L20.5002 -59.2127
L20.1051 -59.2196
L20.0441 -59.2205
L20.4587 -59.6148
L20.878 -59.8897
L21.3019 -60.1573
L21.7303 -60.4175
L22.163 -60.6703
L22.6 -60.9156
L23.041 -61.1533
L23.486 -61.3833
L23.9348 -61.6056
L24.3872 -61.8201
L24.8432 -62.0268
L25.3026 -62.2255
L25.7653 -62.4162
L26.231 -62.5989
L26.6998 -62.7734
L27.1714 -62.9399
L27.6457 -63.0981
L28.1225 -63.248
L28.6017 -63.3897
L29.0832 -63.523
L29.5667 -63.6479
L30.0523 -63.7644
L30.5396 -63.8725
L31.0286 -63.972
L31.5191 -64.0631
L32.011 -64.1455
L32.5041 -64.2195
L32.9983 -64.2848
L33.4934 -64.3415
L33.9892 -64.3896
L34.4857 -64.429
L34.9826 -64.4597
L35.4799 -64.4818
L35.9772 -64.4953
L36.4746 -64.5
L36.9719 -64.496
L37.4689 -64.4834
L37.9654 -64.4621
L38.4613 -64.4322
L38.9564 -64.3935
L39.4507 -64.3462
L39.9439 -64.2903
L40.4359 -64.2258
L40.9266 -64.1527
L41.4157 -64.071
L41.9032 -63.9807
L42.3889 -63.8819
L42.8727 -63.7747
L43.3544 -63.6589
L43.8338 -63.5348
L44.3108 -63.4022
z
" id="C0_2_474b323d4b"/>
    </defs>
    <g clip-path="url(#p1bffca34e9)">
     <use style="fill:#ffffff;stroke:#000000;stroke-width:2.0;" x="0.0" xlink:href="#C0_0_a811fe30f3" y="72.0"/>
    </g>
    <g clip-path="url(#p1bffca34e9)">
     <use style="fill:#ff0000;stroke:#000000;stroke-width:2.0;" x="0.0" xlink:href="#C0_1_2987d86638" y="72.0"/>
    </g>
    <g clip-path="url(#p1bffca34e9)">
     <use style="fill:#ff0000;stroke:#000000;stroke-width:2.0;" x="0.0" xlink:href="#C0_2_474b323d4b" y="72.0"/>
    </g>
   </g>
  </g>
 </g>
 <defs>
  <clipPath id="p1bffca34e9">
   <rect height="72.0" width="72.0" x="0.0" y="0.0"/>
  </clipPath>
 </defs>
</svg>
