<?xml version="1.0" encoding="utf-8" standalone="no"?>
<!DOCTYPE svg PUBLIC "-//W3C//DTD SVG 1.1//EN"
  "http://www.w3.org/Graphics/SVG/1.1/DTD/svg11.dtd">
<!-- Created with matplotlib (http://matplotlib.org/) -->
<svg height="72pt" version="1.1" viewBox="0 0 72 72" width="72pt" xmlns="http://www.w3.org/2000/svg" xmlns:xlink="http://www.w3.org/1999/xlink">
 <defs>
  <style type="text/css">
*{stroke-linecap:butt;stroke-linejoin:round;}
  </style>
 </defs>
 <g id="figure_1">
  <g id="patch_1">
   <path d="
M0 72
L72 72
L72 0
L0 0
z
" style="fill:none;"/>
  </g>
  <g id="axes_1">
   <g id="PatchCollection_1">
    <defs>
     <path d="
M36 -7.5
C43.5583 -7.5 50.808 -10.5029 56.1525 -15.8475
C61.4971 -21.192 64.5 -28.4417 64.5 -36
C64.5 -43.5583 61.4971 -50.808 56.1525 -56.1525
C50.808 -61.4971 43.5583 -64.5 36 -64.5
C28.4417 -64.5 21.192 -61.4971 15.8475 -56.1525
C10.5029 -50.808 7.5 -43.5583 7.5 -36
C7.5 -28.4417 10.5029 -21.192 15.8475 -15.8475
C21.192 -10.5029 28.4417 -7.5 36 -7.5
z
" id="C0_0_a811fe30f3"/>
     <path d="
M44.2102 -63.0311
L44.1566 -62.7459
L44.094 -62.4597
L44.0236 -62.1725
L43.9464 -61.8846
L43.8634 -61.5961
L43.7753 -61.3071
L43.6828 -61.0178
L43.5866 -60.7283
L43.4872 -60.4389
L43.3851 -60.1495
L43.2807 -59.8604
L43.1743 -59.5716
L43.0663 -59.2834
L42.957 -58.9958
L42.8466 -58.7088
L42.7354 -58.4227
L42.6235 -58.1375
L42.5111 -57.8533
L42.3984 -57.5702
L42.2855 -57.2882
L42.1726 -57.0074
L42.0597 -56.7278
L41.947 -56.4496
L41.8344 -56.1728
L41.7222 -55.8973
L41.6103 -55.6233
L41.4988 -55.3507
L41.3878 -55.0796
L41.2773 -54.81
L41.1673 -54.5419
L41.0579 -54.2754
L40.9491 -54.0103
L40.8408 -53.7468
L40.7332 -53.4847
L40.6262 -53.2242
L40.5199 -52.9652
L40.4142 -52.7076
L40.3091 -52.4515
L40.2047 -52.1968
L40.101 -51.9435
L39.9978 -51.6916
L39.8953 -51.4411
L39.7935 -51.1918
L39.6922 -50.9439
L39.5915 -50.6972
L39.4915 -50.4517
L39.392 -50.2074
L39.2931 -49.9643
L39.1947 -49.7222
L39.0969 -49.4812
L38.9996 -49.2412
L38.9028 -49.0022
L38.8064 -48.7641
L38.7106 -48.5269
L38.6152 -48.2905
L38.5202 -48.0549
L38.4256 -47.8201
L38.3315 -47.5859
L38.2377 -47.3524
L38.1442 -47.1195
L38.0511 -46.8871
L37.9583 -46.6552
L37.8658 -46.4238
L37.7735 -46.1927
L37.6816 -45.962
L37.5898 -45.7316
L37.4982 -45.5014
L37.4069 -45.2714
L37.3157 -45.0416
L37.2246 -44.8118
L37.1337 -44.5821
L37.0429 -44.3523
L36.9521 -44.1224
L36.8614 -43.8924
L36.6802 -43.6623
L36.5895 -43.4319
L36.4988 -43.2011
L36.4081 -42.9701
L36.3173 -42.7386
L36.2265 -42.5066
L36.1355 -42.2742
L36.0443 -42.0411
L35.9531 -41.8075
L35.8616 -41.5731
L35.7699 -41.338
L35.678 -41.1021
L35.5859 -40.8653
L35.4934 -40.6276
L35.4007 -40.3889
L35.3077 -40.1492
L35.2143 -39.9084
L35.1206 -39.6664
L35.0264 -39.4232
L34.9319 -39.1787
L34.837 -38.9329
L34.7415 -38.6857
L34.6456 -38.437
L34.5493 -38.1868
L34.4523 -37.9351
L34.3549 -37.6817
L34.2568 -37.4266
L34.1582 -37.1697
L34.0589 -36.911
L33.959 -36.6505
L33.8585 -36.388
L33.7572 -36.1236
L33.6552 -35.857
L33.5525 -35.5884
L33.4491 -35.3176
L33.3448 -35.0447
L33.2398 -34.7694
L33.1339 -34.4918
L33.0271 -34.2119
L32.9195 -33.9295
L32.811 -33.6447
L32.7016 -33.3574
L32.5912 -33.0675
L32.4798 -32.7751
L32.3675 -32.4801
L32.2541 -32.1824
L32.1397 -31.8821
L32.0243 -31.5791
L31.9077 -31.2734
L31.7901 -30.965
L31.6713 -30.654
L31.5514 -30.3402
L31.4303 -30.0238
L31.308 -29.7047
L31.1845 -29.383
L31.0597 -29.0587
L30.9336 -28.732
L30.8062 -28.4028
L30.6775 -28.0712
L30.5474 -27.7374
L30.4159 -27.4014
L30.2829 -27.0634
L30.1484 -26.7235
L30.0123 -26.382
L29.8745 -26.039
L29.735 -25.6947
L29.5937 -25.3494
L29.4505 -25.0033
L29.3052 -24.6569
L29.1577 -24.3104
L29.0079 -23.9643
L28.8555 -23.6189
L28.7003 -23.2749
L28.542 -22.9328
L28.3803 -22.5932
L28.2149 -22.2568
L28.0453 -21.9244
L27.8709 -21.597
L27.6912 -21.2755
L27.5055 -20.961
L27.3131 -20.6549
L27.113 -20.3586
L26.9043 -20.0735
L26.686 -19.8015
L26.457 -19.5443
L26.216 -19.3039
L25.9621 -19.0824
L25.6943 -18.8818
L25.4116 -18.7041
L25.1136 -18.5513
L24.8001 -18.4247
L24.4711 -18.3258
L24.1271 -18.2552
L23.7692 -18.2132
L23.3985 -18.1997
L23.0165 -18.214
L22.6248 -18.2552
L22.2251 -18.322
L21.819 -18.4132
L21.4083 -18.527
L20.9945 -18.6621
L20.579 -18.817
L20.1632 -18.9902
L19.7482 -19.1803
L19.3352 -19.3861
L18.9251 -19.6064
L18.5187 -19.8401
L18.1169 -20.0862
L17.7201 -20.3438
L17.3292 -20.6119
L16.9444 -20.8898
L16.5663 -21.1767
L16.1952 -21.472
L15.8314 -21.7749
L15.4752 -22.0849
L15.1269 -22.4014
L14.7865 -22.7239
L14.4543 -23.0518
L14.1303 -23.3848
L13.8146 -23.7223
L13.5072 -24.064
L13.2083 -24.4095
L12.9178 -24.7583
L12.6356 -25.1102
L12.3618 -25.4649
L12.0964 -25.822
L11.8392 -26.1812
L11.5902 -26.5424
L11.3493 -26.9052
L11.1164 -27.2694
L10.8914 -27.6348
L10.6743 -28.0013
L10.4649 -28.3686
L10.2632 -28.7366
L10.0689 -29.1051
L9.88201 -29.4739
L9.7024 -29.843
L9.52994 -30.2123
L9.36452 -30.5815
L9.20602 -30.9507
L9.05431 -31.3197
L8.90929 -31.6885
L8.77084 -32.0569
L8.63885 -32.425
L8.5132 -32.7927
L8.39379 -33.1598
L8.28052 -33.5265
L8.17328 -33.8926
L8.07197 -34.2581
L7.9765 -34.623
L7.88677 -34.9873
L7.8027 -35.351
L7.7242 -35.7141
L7.65119 -36.0765
L7.5836 -36.4383
L7.5296 -36.7994
L7.55659 -37.2985
L7.59226 -37.7952
L7.63657 -38.2913
L7.68953 -38.7867
L7.75111 -39.2813
L7.82129 -39.7749
L7.90006 -40.2674
L7.98739 -40.7585
L8.08324 -41.2482
L8.18761 -41.7363
L8.30044 -42.2226
L8.42172 -42.7071
L8.55139 -43.1895
L8.68943 -43.6697
L8.83578 -44.1475
L8.99041 -44.6229
L9.15326 -45.0957
L9.3243 -45.5657
L9.50346 -46.0328
L9.69069 -46.4968
L9.88593 -46.9576
L10.0891 -47.4151
L10.3002 -47.8692
L10.5191 -48.3196
L10.7458 -48.7662
L10.9802 -49.209
L11.2222 -49.6477
L11.4717 -50.0823
L11.7288 -50.5126
L11.9932 -50.9384
L12.2649 -51.3597
L12.5438 -51.7764
L12.8299 -52.1882
L13.1231 -52.5951
L13.4232 -52.997
L13.7302 -53.3936
L14.044 -53.785
L14.3645 -54.1709
L14.6915 -54.5514
L15.0251 -54.9261
L15.365 -55.2951
L15.7112 -55.6583
L16.0636 -56.0154
L16.4221 -56.3664
L16.7866 -56.7113
L17.1569 -57.0498
L17.5329 -57.3819
L17.9146 -57.7075
L18.3017 -58.0265
L18.6943 -58.3388
L19.0921 -58.6443
L19.4951 -58.9428
L19.9031 -59.2344
L20.316 -59.5189
L20.7337 -59.7963
L21.1561 -60.0664
L21.5829 -60.3291
L22.0142 -60.5845
L22.4497 -60.8324
L22.8893 -61.0727
L23.333 -61.3053
L23.7805 -61.5303
L24.2317 -61.7475
L24.6865 -61.9568
L25.1447 -62.1583
L25.6063 -62.3517
L26.071 -62.5372
L26.5388 -62.7145
L27.0094 -62.8837
L27.4827 -63.0448
L27.9587 -63.1975
L28.4371 -63.342
L28.9178 -63.4782
L29.4007 -63.606
L29.8856 -63.7254
L30.3723 -63.8364
L30.8608 -63.9388
L31.3508 -64.0328
L31.8422 -64.1182
L32.3349 -64.1951
L32.8288 -64.2634
L33.3236 -64.323
L33.8192 -64.374
L34.3154 -64.4164
L34.8122 -64.4502
L35.3093 -64.4752
L35.8067 -64.4916
L36.3041 -64.4993
L36.8014 -64.4984
L37.2985 -64.4887
L37.7952 -64.4704
L38.2913 -64.4434
L38.7867 -64.4077
L39.2813 -64.3634
L39.7749 -64.3105
L40.2674 -64.2489
L40.7585 -64.1787
L41.2482 -64.0999
L41.7363 -64.0126
L42.2226 -63.9168
L42.7071 -63.8124
L43.1895 -63.6996
L43.6697 -63.5783
z
" id="C0_1_7ad764166b"/>
     <path d="
M64.4741 -34.8403
L64.3835 -34.4883
L64.2891 -34.1405
L64.191 -33.7968
L64.0892 -33.4571
L63.984 -33.1212
L63.8754 -32.7892
L63.7634 -32.4609
L63.6481 -32.1362
L63.5295 -31.8151
L63.4078 -31.4974
L63.283 -31.183
L63.1551 -30.8719
L63.0241 -30.564
L62.8901 -30.2592
L62.7532 -29.9574
L62.6133 -29.6586
L62.4705 -29.3626
L62.3248 -29.0694
L62.1762 -28.779
L62.0247 -28.4912
L61.8703 -28.2059
L61.7131 -27.9232
L61.5529 -27.6429
L61.3899 -27.365
L61.2241 -27.0894
L61.0553 -26.816
L60.8836 -26.5449
L60.709 -26.2759
L60.5314 -26.009
L60.3508 -25.7441
L60.1673 -25.4812
L59.9807 -25.2203
L59.791 -24.9613
L59.5982 -24.7042
L59.4023 -24.4488
L59.2032 -24.1953
L59.0009 -23.9435
L58.7953 -23.6934
L58.5863 -23.445
L58.374 -23.1983
L58.1583 -22.9532
L57.939 -22.7098
L57.7162 -22.4679
L57.4898 -22.2276
L57.2597 -21.9889
L57.0259 -21.7518
L56.7882 -21.5162
L56.5467 -21.2822
L56.3011 -21.0497
L56.0516 -20.8188
L55.7979 -20.5894
L55.54 -20.3616
L55.2779 -20.1355
L55.0113 -19.9109
L54.7404 -19.688
L54.4649 -19.4667
L54.1847 -19.2471
L53.8999 -19.0293
L53.6103 -18.8132
L53.3158 -18.5989
L53.0163 -18.3865
L52.7118 -18.1761
L52.4021 -17.9676
L52.0872 -17.7612
L51.767 -17.5569
L51.4413 -17.3547
L51.1102 -17.1549
L50.7735 -16.9574
L50.4312 -16.7624
L50.0832 -16.57
L49.7293 -16.3802
L49.3696 -16.1932
L49.0041 -16.0091
L48.6325 -15.8281
L48.255 -15.6501
L47.8715 -15.4754
L47.4818 -15.3042
L47.0862 -15.1365
L46.6844 -14.9724
L46.2766 -14.8122
L45.8627 -14.656
L45.4429 -14.504
L45.0171 -14.3562
L44.5854 -14.2128
L44.148 -14.0741
L43.7049 -13.94
L43.2563 -13.8108
L42.8024 -13.6865
L42.3434 -13.5674
L41.8795 -13.4534
L41.4109 -13.3447
L40.9381 -13.2413
L40.4613 -13.1432
L39.9809 -13.0505
L39.4974 -12.9631
L39.0112 -12.8809
L38.523 -12.8037
L38.0334 -12.7314
L37.543 -12.6637
L37.0527 -12.6001
L36.5632 -12.5403
L36.0757 -12.4836
L35.591 -12.4294
L35.1105 -12.3767
L34.6353 -12.3246
L34.1669 -12.2719
L33.7069 -12.2174
L33.2567 -12.1593
L32.8181 -12.0963
L32.3928 -12.0265
L31.9825 -11.9482
L31.5888 -11.8596
L31.213 -11.7592
L30.8564 -11.6456
L30.5198 -11.5177
L30.2036 -11.375
L29.9079 -11.2173
L29.6323 -11.0449
L29.3761 -10.8584
L29.1385 -10.6588
L28.9183 -10.4474
L28.7144 -10.2255
L28.5255 -9.99451
L28.3504 -9.75593
L28.1879 -9.51111
L28.0371 -9.26131
L27.897 -9.00773
L28.234 -8.75145
L28.7138 -8.57849
L29.1957 -8.44713
L29.6798 -8.32416
L30.1658 -8.20963
L30.6535 -8.10356
L31.1429 -8.00598
L31.6337 -7.91694
L32.1259 -7.83645
L32.6193 -7.76453
L33.1137 -7.70122
L33.609 -7.64653
L34.105 -7.60048
L34.6016 -7.56307
L35.0986 -7.53433
L35.5958 -7.51426
L36.0932 -7.50287
L36.5906 -7.50015
L37.0878 -7.50612
L37.5847 -7.52077
L38.0811 -7.54409
L38.5768 -7.57608
L39.0718 -7.61673
L39.5658 -7.66602
L40.0588 -7.72395
L40.5505 -7.79049
L41.0408 -7.86562
L41.5296 -7.94932
L42.0167 -8.04157
L42.5019 -8.14233
L42.9852 -8.25158
L43.4664 -8.36928
L43.9453 -8.4954
L44.4217 -8.62989
L44.8956 -8.77272
L45.3668 -8.92385
L45.8351 -9.08322
L46.3005 -9.2508
L46.7627 -9.42652
L47.2216 -9.61033
L47.6771 -9.80219
L48.1291 -10.002
L48.5773 -10.2098
L49.0217 -10.4254
L49.4622 -10.6488
L49.8986 -10.8799
L50.3307 -11.1187
L50.7584 -11.365
L51.1817 -11.6189
L51.6003 -11.8802
L52.0142 -12.1488
L52.4232 -12.4247
L52.8272 -12.7078
L53.2261 -12.9979
L53.6197 -13.2951
L54.008 -13.5992
L54.3908 -13.9101
L54.768 -14.2278
L55.1394 -14.5521
L55.505 -14.8829
L55.8647 -15.2201
L56.2184 -15.5637
L56.5659 -15.9135
L56.9071 -16.2694
L57.2419 -16.6313
L57.5703 -16.9992
L57.8921 -17.3728
L58.2072 -17.7521
L58.5156 -18.1369
L58.8171 -18.5272
L59.1117 -18.9228
L59.3992 -19.3236
L59.6796 -19.7295
L59.9528 -20.1404
L60.2187 -20.5561
L60.4772 -20.9765
L60.7282 -21.4014
L60.9717 -21.8308
L61.2076 -22.2646
L61.4359 -22.7025
L61.6564 -23.1444
L61.869 -23.5903
L62.0738 -24.04
L62.2707 -24.4933
L62.4595 -24.9501
L62.6403 -25.4102
L62.813 -25.8736
L62.9775 -26.3401
L63.1338 -26.8095
L63.2818 -27.2817
L63.4215 -27.7566
L63.5529 -28.234
L63.6758 -28.7138
L63.7904 -29.1957
L63.8964 -29.6798
L63.994 -30.1658
L64.0831 -30.6535
L64.1636 -31.1429
L64.2355 -31.6337
L64.2988 -32.1259
L64.3535 -32.6193
L64.3995 -33.1137
L64.4369 -33.609
z
" id="C0_2_24cd603479"/>
    </defs>
    <g clip-path="url(#p1bffca34e9)">
     <use style="fill:#ff0000;stroke:#000000;stroke-width:2.0;" x="0.0" xlink:href="#C0_0_a811fe30f3" y="72.0"/>
    </g>
    <g clip-path="url(#p1bffca34e9)">
     <use style="fill:#ffffff;stroke:#000000;stroke-width:2.0;" x="0.0" xlink:href="#C0_1_7ad764166b" y="72.0"/>
    </g>
    <g clip-path="url(#p1bffca34e9)">
     <use style="fill:#ffffff;stroke:#000000;stroke-width:2.0;" x="0.0" xlink:href="#C0_2_24cd603479" y="72.0"/>
    </g>
   </g>
  </g>
 </g>
 <defs>
  <clipPath id="p1bffca34e9">
   <rect height="72.0" width="72.0" x="0.0" y="0.0"/>
  </clipPath>
 </defs>
</svg>
