<?xml version="1.0" encoding="utf-8" standalone="no"?>
<!DOCTYPE svg PUBLIC "-//W3C//DTD SVG 1.1//EN"
  "http://www.w3.org/Graphics/SVG/1.1/DTD/svg11.dtd">
<!-- Created with matplotlib (http://matplotlib.org/) -->
<svg height="72pt" version="1.1" viewBox="0 0 72 72" width="72pt" xmlns="http://www.w3.org/2000/svg" xmlns:xlink="http://www.w3.org/1999/xlink">
 <defs>
  <style type="text/css">
*{stroke-linecap:butt;stroke-linejoin:round;}
  </style>
 </defs>
 <g id="figure_1">
  <g id="patch_1">
   <path d="
M0 72
L72 72
L72 0
L0 0
z
" style="fill:none;"/>
  </g>
  <g id="axes_1">
   <g id="PatchCollection_1">
    <defs>
     <path d="
M36 -7.5
C43.5583 -7.5 50.808 -10.5029 56.1525 -15.8475
C61.4971 -21.192 64.5 -28.4417 64.5 -36
C64.5 -43.5583 61.4971 -50.808 56.1525 -56.1525
C50.808 -61.4971 43.5583 -64.5 36 -64.5
C28.4417 -64.5 21.192 -61.4971 15.8475 -56.1525
C10.5029 -50.808 7.5 -43.5583 7.5 -36
C7.5 -28.4417 10.5029 -21.192 15.8475 -15.8475
C21.192 -10.5029 28.4417 -7.5 36 -7.5
z
" id="C0_0_a811fe30f3"/>
     <path d="
M47.8653 -61.6923
L47.9011 -61.4269
L47.9199 -61.1633
L47.9226 -60.9017
L47.9099 -60.642
L47.8827 -60.3843
L47.8417 -60.1285
L47.7877 -59.8747
L47.7216 -59.6227
L47.6441 -59.3726
L47.5561 -59.1242
L47.4583 -58.8775
L47.3514 -58.6325
L47.2361 -58.389
L47.113 -58.147
L46.9829 -57.9064
L46.8462 -57.6671
L46.7036 -57.4292
L46.5556 -57.1925
L46.4027 -56.9571
L46.2453 -56.7227
L46.0838 -56.4895
L45.9188 -56.2574
L45.7505 -56.0264
L45.5793 -55.7964
L45.4056 -55.5674
L45.2296 -55.3394
L45.0516 -55.1123
L44.8719 -54.8863
L44.6906 -54.6612
L44.5081 -54.437
L44.3245 -54.2138
L44.14 -53.9915
L43.9548 -53.7701
L43.769 -53.5496
L43.5827 -53.3301
L43.3962 -53.1114
L43.2095 -52.8937
L43.0226 -52.6768
L42.8358 -52.4608
L42.6491 -52.2457
L42.4625 -52.0315
L42.2762 -51.8181
L42.0901 -51.6056
L41.9045 -51.3939
L41.7192 -51.183
L41.5343 -50.9729
L41.35 -50.7636
L41.1661 -50.5552
L40.9828 -50.3474
L40.8001 -50.1404
L40.6179 -49.9342
L40.4363 -49.7286
L40.2553 -49.5238
L40.0749 -49.3196
L39.8951 -49.1161
L39.7159 -48.9132
L39.5373 -48.7109
L39.3593 -48.5092
L39.182 -48.3081
L39.0052 -48.1074
L38.829 -47.9073
L38.6533 -47.7077
L38.4782 -47.5085
L38.3037 -47.3098
L38.1297 -47.1114
L37.9562 -46.9135
L37.7831 -46.7158
L37.6106 -46.5185
L37.4385 -46.3215
L37.2668 -46.1247
L37.0955 -45.9282
L36.9246 -45.7318
L36.7541 -45.5356
L36.5839 -45.3395
L36.414 -45.1436
L36.2444 -44.9476
L36.075 -44.7518
L35.9059 -44.5559
L35.737 -44.36
L35.5682 -44.164
L35.3996 -43.9679
L35.2312 -43.7717
L35.0628 -43.5754
L34.7262 -43.3788
L34.558 -43.182
L34.3897 -42.9849
L34.2214 -42.7876
L34.053 -42.5899
L33.8845 -42.3918
L33.7159 -42.1933
L33.547 -41.9944
L33.3781 -41.7951
L33.2088 -41.5952
L33.0394 -41.3948
L32.8696 -41.1938
L32.6995 -40.9922
L32.5291 -40.79
L32.3583 -40.5871
L32.1871 -40.3835
L32.0155 -40.1792
L31.8434 -39.9741
L31.6709 -39.7682
L31.4978 -39.5615
L31.3241 -39.3539
L31.1499 -39.1455
L30.9751 -38.9361
L30.7996 -38.7258
L30.6235 -38.5146
L30.4466 -38.3023
L30.2691 -38.089
L30.0908 -37.8747
L29.9117 -37.6593
L29.7318 -37.4428
L29.5511 -37.2253
L29.3695 -37.0066
L29.187 -36.7868
L29.0036 -36.5658
L28.8193 -36.3437
L28.634 -36.1205
L28.4477 -35.8961
L28.2604 -35.6705
L28.0721 -35.4437
L27.8827 -35.2158
L27.6922 -34.9868
L27.5006 -34.7566
L27.3079 -34.5254
L27.114 -34.293
L26.9189 -34.0596
L26.7227 -33.8252
L26.5252 -33.5898
L26.3265 -33.3534
L26.1265 -33.1162
L25.9252 -32.8783
L25.7227 -32.6395
L25.5188 -32.4002
L25.3135 -32.1603
L25.1069 -31.9199
L24.899 -31.6792
L24.6896 -31.4383
L24.4788 -31.1973
L24.2665 -30.9565
L24.0527 -30.7158
L23.8375 -30.4757
L23.6206 -30.2361
L23.4023 -29.9974
L23.1823 -29.7599
L22.9606 -29.5236
L22.7373 -29.2891
L22.5122 -29.0564
L22.2854 -28.826
L22.0567 -28.5982
L21.8261 -28.3733
L21.5936 -28.1519
L21.359 -27.9342
L21.1224 -27.7207
L20.8835 -27.512
L20.6424 -27.3085
L20.3989 -27.1107
L20.153 -26.9192
L19.9045 -26.7346
L19.6534 -26.5574
L19.3996 -26.3884
L19.143 -26.2281
L18.8835 -26.0772
L18.621 -25.9363
L18.3556 -25.8061
L18.087 -25.6872
L17.8154 -25.5804
L17.5407 -25.4861
L17.2629 -25.4051
L16.9822 -25.3379
L16.6985 -25.285
L16.4121 -25.2468
L16.1231 -25.2239
L15.8317 -25.2165
L15.5381 -25.2249
L15.2427 -25.2493
L14.9457 -25.2899
L14.6475 -25.3467
L14.3484 -25.4198
L14.049 -25.509
L13.7495 -25.6141
L13.4505 -25.7351
L13.1523 -25.8716
L12.8555 -26.0233
L12.5604 -26.1898
L12.2676 -26.3708
L11.9774 -26.5658
L11.6904 -26.7744
L11.4069 -26.9961
L11.1273 -27.2304
L10.852 -27.4768
L10.5814 -27.7348
L10.3159 -28.0038
L10.0556 -28.2835
L9.80105 -28.5733
L9.55239 -28.8727
L9.3099 -29.1812
L9.07383 -29.4983
L8.84439 -29.8236
L8.62177 -30.1566
L8.40614 -30.4969
L8.19766 -30.844
L7.99647 -31.1975
L7.80267 -31.5571
L7.72653 -31.9223
L7.66825 -32.4138
L7.61859 -32.9078
L7.57759 -33.4027
L7.54524 -33.8984
L7.52156 -34.3948
L7.50655 -34.8917
L7.50023 -35.3888
L7.50258 -35.8862
L7.51362 -36.3836
L7.53333 -36.8809
L7.56171 -37.3779
L7.59876 -37.8745
L7.64446 -38.3706
L7.69879 -38.8659
L7.76175 -39.3603
L7.83331 -39.8537
L7.91344 -40.346
L8.00214 -40.8369
L8.09936 -41.3263
L8.20508 -41.8141
L8.31926 -42.3002
L8.44188 -42.7843
L8.5729 -43.2664
L8.71226 -43.7462
L8.85994 -44.2237
L9.01589 -44.6987
L9.18006 -45.171
L9.35239 -45.6406
L9.53284 -46.1072
L9.72136 -46.5707
L9.91788 -47.031
L10.1223 -47.488
L10.3347 -47.9414
L10.5549 -48.3912
L10.7828 -48.8372
L11.0184 -49.2794
L11.2616 -49.7174
L11.5123 -50.1513
L11.7705 -50.5809
L12.0361 -51.0061
L12.309 -51.4267
L12.5891 -51.8425
L12.8763 -52.2536
L13.1706 -52.6597
L13.4718 -53.0607
L13.7799 -53.4565
L14.0948 -53.8471
L14.4163 -54.2321
L14.7444 -54.6117
L15.079 -54.9855
L15.4199 -55.3536
L15.7672 -55.7158
L16.1205 -56.0719
L16.48 -56.422
L16.8454 -56.7658
L17.2166 -57.1033
L17.5935 -57.4344
L17.9761 -57.759
L18.3641 -58.0769
L18.7575 -58.3881
L19.1562 -58.6925
L19.56 -58.9899
L19.9688 -59.2804
L20.3825 -59.5638
L20.8009 -59.8399
L21.224 -60.1089
L21.6516 -60.3705
L22.0835 -60.6246
L22.5197 -60.8713
L22.96 -61.1104
L23.4042 -61.3418
L23.8523 -61.5655
L24.3041 -61.7815
L24.7595 -61.9896
L25.2183 -62.1897
L25.6804 -62.3819
L26.1456 -62.5661
L26.6138 -62.7421
L27.0849 -62.91
L27.5587 -63.0697
L28.035 -63.2212
L28.5138 -63.3644
L28.9949 -63.4992
L29.4781 -63.6257
L29.9633 -63.7437
L30.4503 -63.8533
L30.939 -63.9544
L31.4293 -64.047
L31.9209 -64.1311
L32.4138 -64.2066
L32.9078 -64.2735
L33.4027 -64.3318
L33.8984 -64.3814
L34.3948 -64.4224
L34.8917 -64.4548
L35.3888 -64.4784
L35.8862 -64.4934
L36.3836 -64.4998
L36.8809 -64.4974
L37.3779 -64.4864
L37.8745 -64.4667
L38.3706 -64.4383
L38.8659 -64.4012
L39.3603 -64.3555
L39.8537 -64.3012
L40.346 -64.2383
L40.8369 -64.1667
L41.3263 -64.0866
L41.8141 -63.9979
L42.3002 -63.9006
L42.7843 -63.7949
L43.2664 -63.6807
L43.7462 -63.5581
L44.2237 -63.4271
L44.6987 -63.2877
L45.171 -63.1401
L45.6406 -62.9841
L46.1072 -62.8199
L46.5707 -62.6476
L47.031 -62.4672
L47.488 -62.2786
z
" id="C0_1_167326b6fc"/>
     <path d="
M64.1358 -39.6749
L64.0515 -39.2723
L63.963 -38.8729
L63.8703 -38.4767
L63.7736 -38.0839
L63.673 -37.6946
L63.5684 -37.3091
L63.46 -36.9272
L63.3479 -36.5493
L63.2322 -36.1752
L63.1129 -35.805
L62.9902 -35.4389
L62.8642 -35.0768
L62.7349 -34.7187
L62.6025 -34.3647
L62.467 -34.0148
L62.3285 -33.6689
L62.1872 -33.3271
L62.043 -32.9893
L61.8961 -32.6556
L61.7466 -32.3258
L61.5945 -32
L61.4399 -31.6781
L61.2829 -31.3601
L61.1236 -31.0459
L60.9619 -30.7356
L60.798 -30.4289
L60.632 -30.126
L60.4638 -29.8267
L60.2935 -29.531
L60.1212 -29.2388
L59.9469 -28.9501
L59.7707 -28.6648
L59.5925 -28.3829
L59.4124 -28.1042
L59.2305 -27.8288
L59.0468 -27.5566
L58.8613 -27.2876
L58.674 -27.0216
L58.4849 -26.7586
L58.2941 -26.4986
L58.1015 -26.2414
L57.9072 -25.9871
L57.7112 -25.7356
L57.5135 -25.4868
L57.3141 -25.2407
L57.1129 -24.9972
L56.91 -24.7563
L56.7054 -24.518
L56.4991 -24.2821
L56.291 -24.0486
L56.0812 -23.8175
L55.8696 -23.5887
L55.6563 -23.3622
L55.4411 -23.138
L55.2242 -22.916
L55.0054 -22.6961
L54.7847 -22.4784
L54.5622 -22.2627
L54.3378 -22.0491
L54.1114 -21.8375
L53.8831 -21.628
L53.6527 -21.4203
L53.4204 -21.2146
L53.186 -21.0108
L52.9495 -20.8088
L52.7109 -20.6087
L52.4701 -20.4105
L52.2271 -20.214
L51.9819 -20.0193
L51.7344 -19.8264
L51.4845 -19.6352
L51.2324 -19.4458
L50.9778 -19.2581
L50.7207 -19.0721
L50.4612 -18.8879
L50.1991 -18.7053
L49.9344 -18.5244
L49.6671 -18.3452
L49.3971 -18.1678
L49.1244 -17.992
L48.8489 -17.8179
L48.5706 -17.6455
L48.2894 -17.4749
L48.0053 -17.306
L47.7183 -17.1388
L47.4282 -16.9734
L47.1351 -16.8098
L46.8389 -16.648
L46.5396 -16.4879
L46.2371 -16.3298
L45.9314 -16.1735
L45.6224 -16.0191
L45.3101 -15.8666
L44.9945 -15.7161
L44.6756 -15.5676
L44.3532 -15.4211
L44.0275 -15.2767
L43.6983 -15.1345
L43.3657 -14.9943
L43.0297 -14.8564
L42.6902 -14.7207
L42.3472 -14.5873
L42.0008 -14.4562
L41.6509 -14.3276
L41.2976 -14.2013
L40.9409 -14.0775
L40.5808 -13.9562
L40.2175 -13.8375
L39.8508 -13.7214
L39.481 -13.6079
L39.108 -13.4971
L38.732 -13.389
L38.353 -13.2836
L37.9713 -13.181
L37.5868 -13.0812
L37.1997 -12.9841
L36.8103 -12.8898
L36.4186 -12.7983
L36.0249 -12.7095
L35.6293 -12.6234
L35.2322 -12.5399
L34.8336 -12.4591
L34.434 -12.3807
L34.0336 -12.3048
L33.6327 -12.2311
L33.2317 -12.1596
L32.8308 -12.09
L32.4305 -12.0223
L32.0312 -11.9561
L31.6333 -11.8912
L31.2372 -11.8274
L30.8433 -11.7644
L30.4522 -11.7019
L30.0644 -11.6394
L29.6803 -11.5767
L29.3005 -11.5134
L28.9254 -11.449
L28.5557 -11.3831
L28.1918 -11.3153
L27.8343 -11.2451
L27.4837 -11.1721
L27.1405 -11.0959
L26.8052 -11.016
L26.4782 -10.932
L26.1599 -10.8436
L25.8508 -10.7504
L25.5512 -10.6522
L25.2614 -10.5486
L24.9817 -10.4395
L24.7123 -10.3247
L24.4533 -10.2041
L24.6511 -10.0777
L25.1091 -9.85707
L25.5704 -9.66299
L26.0349 -9.47692
L26.5024 -9.29894
L26.9728 -9.12909
L27.446 -8.96743
L27.9217 -8.814
L28.4 -8.66885
L28.8805 -8.53203
L29.3632 -8.40358
L29.8479 -8.28353
L30.3345 -8.17192
L30.8229 -8.06879
L31.3128 -7.97417
L31.8041 -7.88808
L32.2967 -7.81056
L32.7905 -7.74163
L33.2852 -7.6813
L33.7807 -7.6296
L34.2769 -7.58654
L34.7737 -7.55213
L35.2708 -7.5264
L35.7682 -7.50933
L36.2656 -7.50094
L36.7629 -7.50124
L37.26 -7.51021
L37.7567 -7.52787
L38.2529 -7.55419
L38.7484 -7.58918
L39.243 -7.63283
L39.7367 -7.68512
L40.2292 -7.74603
L40.7205 -7.81554
L41.2103 -7.89365
L41.6985 -7.98031
L42.185 -8.07551
L42.6696 -8.17922
L43.1522 -8.2914
L43.6325 -8.41202
L44.1106 -8.54104
L44.5862 -8.67843
L45.0592 -8.82414
L45.5294 -8.97813
L45.9967 -9.14035
L46.461 -9.31075
L46.9221 -9.48928
L47.3798 -9.67589
L47.8341 -9.87052
L48.2848 -10.0731
L48.7317 -10.2836
L49.1748 -10.5019
L49.6138 -10.728
L50.0487 -10.9618
L50.4794 -11.2032
L50.9056 -11.4521
L51.3273 -11.7086
L51.7443 -11.9724
L52.1565 -12.2436
L52.5638 -12.522
L52.966 -12.8075
L53.3631 -13.1001
L53.7549 -13.3997
L54.1412 -13.7062
L54.5221 -14.0194
L54.8973 -14.3394
L55.2667 -14.6659
L55.6303 -14.999
L55.9879 -15.3384
L56.3395 -15.6842
L56.6848 -16.0361
L57.0238 -16.3941
L57.3564 -16.7581
L57.6825 -17.128
L58.002 -17.5036
L58.3148 -17.8848
L58.6208 -18.2715
L58.9199 -18.6637
L59.2121 -19.0611
L59.4971 -19.4637
L59.775 -19.8713
L60.0457 -20.2839
L60.309 -20.7012
L60.565 -21.1232
L60.8134 -21.5497
L61.0543 -21.9806
L61.2876 -22.4158
L61.5131 -22.8551
L61.7309 -23.2985
L61.9409 -23.7457
L62.1429 -24.1966
L62.337 -24.6511
L62.5231 -25.1091
L62.7011 -25.5704
L62.8709 -26.0349
L63.0326 -26.5024
L63.186 -26.9728
L63.3311 -27.446
L63.468 -27.9217
L63.5964 -28.4
L63.7165 -28.8805
L63.8281 -29.3632
L63.9312 -29.8479
L64.0258 -30.3345
L64.1119 -30.8229
L64.1894 -31.3128
L64.2584 -31.8041
L64.3187 -32.2967
L64.3704 -32.7905
L64.4135 -33.2852
L64.4479 -33.7807
L64.4736 -34.2769
L64.4907 -34.7737
L64.4991 -35.2708
L64.4988 -35.7682
L64.4898 -36.2656
L64.4721 -36.7629
L64.4458 -37.26
L64.4108 -37.7567
L64.3672 -38.2529
z
" id="C0_2_dddcf5996d"/>
    </defs>
    <g clip-path="url(#p1bffca34e9)">
     <use style="fill:#ff0000;stroke:#000000;stroke-width:2.0;" x="0.0" xlink:href="#C0_0_a811fe30f3" y="72.0"/>
    </g>
    <g clip-path="url(#p1bffca34e9)">
     <use style="fill:#ffffff;stroke:#000000;stroke-width:2.0;" x="0.0" xlink:href="#C0_1_167326b6fc" y="72.0"/>
    </g>
    <g clip-path="url(#p1bffca34e9)">
     <use style="fill:#ffffff;stroke:#000000;stroke-width:2.0;" x="0.0" xlink:href="#C0_2_dddcf5996d" y="72.0"/>
    </g>
   </g>
  </g>
 </g>
 <defs>
  <clipPath id="p1bffca34e9">
   <rect height="72.0" width="72.0" x="0.0" y="0.0"/>
  </clipPath>
 </defs>
</svg>
