<?xml version="1.0" encoding="utf-8" standalone="no"?>
<!DOCTYPE svg PUBLIC "-//W3C//DTD SVG 1.1//EN"
  "http://www.w3.org/Graphics/SVG/1.1/DTD/svg11.dtd">
<!-- Created with matplotlib (http://matplotlib.org/) -->
<svg height="72pt" version="1.1" viewBox="0 0 72 72" width="72pt" xmlns="http://www.w3.org/2000/svg" xmlns:xlink="http://www.w3.org/1999/xlink">
 <defs>
  <style type="text/css">
*{stroke-linecap:butt;stroke-linejoin:round;}
  </style>
 </defs>
 <g id="figure_1">
  <g id="patch_1">
   <path d="
M0 72
L72 72
L72 0
L0 0
z
" style="fill:none;"/>
  </g>
  <g id="axes_1">
   <g id="PatchCollection_1">
    <defs>
     <path d="
M36 -7.5
C43.5583 -7.5 50.808 -10.5029 56.1525 -15.8475
C61.4971 -21.192 64.5 -28.4417 64.5 -36
C64.5 -43.5583 61.4971 -50.808 56.1525 -56.1525
C50.808 -61.4971 43.5583 -64.5 36 -64.5
C28.4417 -64.5 21.192 -61.4971 15.8475 -56.1525
C10.5029 -50.808 7.5 -43.5583 7.5 -36
C7.5 -28.4417 10.5029 -21.192 15.8475 -15.8475
C21.192 -10.5029 28.4417 -7.5 36 -7.5
z
" id="C0_0_a811fe30f3"/>
     <path d="
M14.9554 -17.0552
L15.1634 -17.1588
L15.3693 -17.2664
L15.573 -17.3778
L15.7747 -17.4928
L15.9744 -17.6112
L16.1722 -17.7327
L16.3683 -17.8572
L16.5625 -17.9844
L16.7551 -18.1143
L16.9461 -18.2467
L17.1355 -18.3813
L17.3235 -18.5181
L17.5099 -18.657
L17.695 -18.7978
L17.8787 -18.9404
L18.0611 -19.0848
L18.2422 -19.2307
L18.4222 -19.3782
L18.601 -19.5272
L18.7786 -19.6775
L18.9552 -19.8291
L19.1307 -19.982
L19.3053 -20.136
L19.4789 -20.2912
L19.6516 -20.4475
L19.8234 -20.6048
L19.9943 -20.7631
L20.1644 -20.9223
L20.3338 -21.0825
L20.5024 -21.2436
L20.6704 -21.4055
L20.8376 -21.5683
L21.0042 -21.7319
L21.1702 -21.8964
L21.3356 -22.0616
L21.5005 -22.2276
L21.6649 -22.3944
L21.8288 -22.562
L21.9922 -22.7303
L22.1553 -22.8994
L22.3179 -23.0692
L22.4802 -23.2399
L22.6421 -23.4113
L22.8038 -23.5834
L22.9651 -23.7564
L23.1263 -23.9301
L23.2872 -24.1046
L23.4479 -24.2799
L23.6084 -24.4561
L23.7688 -24.6331
L23.9291 -24.8109
L24.0894 -24.9896
L24.4096 -25.1692
L24.5698 -25.3496
L24.7299 -25.531
L24.8901 -25.7133
L25.0503 -25.8966
L25.2107 -26.0809
L25.3711 -26.2662
L25.5317 -26.4525
L25.6924 -26.6398
L25.8534 -26.8283
L26.0145 -27.0178
L26.1758 -27.2085
L26.3374 -27.4003
L26.4992 -27.5933
L26.6613 -27.7875
L26.8238 -27.983
L26.9865 -28.1797
L27.1495 -28.3778
L27.3129 -28.5771
L27.4767 -28.7779
L27.6408 -28.98
L27.8053 -29.1836
L27.9702 -29.3886
L28.1355 -29.5951
L28.3012 -29.8031
L28.4674 -30.0127
L28.6339 -30.2239
L28.8009 -30.4367
L28.9683 -30.6511
L29.1361 -30.8673
L29.3044 -31.0851
L29.473 -31.3047
L29.6421 -31.526
L29.8116 -31.7492
L29.9814 -31.9742
L30.1517 -32.2011
L30.3223 -32.4299
L30.4932 -32.6606
L30.6644 -32.8932
L30.8358 -33.1279
L31.0076 -33.3645
L31.1795 -33.6032
L31.3515 -33.8439
L31.5237 -34.0867
L31.696 -34.3316
L31.8682 -34.5787
L32.0404 -34.8278
L32.2124 -35.0791
L32.3842 -35.3326
L32.5557 -35.5882
L32.7269 -35.846
L32.8975 -36.106
L33.0675 -36.3682
L33.2369 -36.6326
L33.4054 -36.8992
L33.5729 -37.1679
L33.7393 -37.4389
L33.9045 -37.712
L34.0682 -37.9872
L34.2303 -38.2646
L34.3907 -38.5441
L34.5491 -38.8257
L34.7053 -39.1093
L34.859 -39.395
L35.0102 -39.6826
L35.1585 -39.9722
L35.3036 -40.2636
L35.4454 -40.5569
L35.5834 -40.852
L35.7175 -41.1488
L35.8474 -41.4472
L35.9726 -41.7472
L36.093 -42.0487
L36.2082 -42.3516
L36.3178 -42.6559
L36.4215 -42.9613
L36.519 -43.2679
L36.6099 -43.5755
L36.694 -43.884
L36.7708 -44.1933
L36.84 -44.5033
L36.9013 -44.8138
L36.9545 -45.1246
L36.9991 -45.4357
L37.035 -45.7469
L37.0619 -46.058
L37.0795 -46.3689
L37.0877 -46.6794
L37.0863 -46.9893
L37.0751 -47.2985
L37.0541 -47.6067
L37.0231 -47.9138
L36.9822 -48.2196
L36.9312 -48.5238
L36.8703 -48.8264
L36.7996 -49.1271
L36.719 -49.4257
L36.6288 -49.7221
L36.529 -50.0159
L36.42 -50.3071
L36.3018 -50.5954
L36.1747 -50.8807
L36.0391 -51.1628
L35.895 -51.4415
L35.7429 -51.7167
L35.583 -51.9882
L35.4155 -52.2558
L35.2409 -52.5194
L35.0594 -52.779
L34.8713 -53.0342
L34.6769 -53.2851
L34.4765 -53.5316
L34.2705 -53.7734
L34.0591 -54.0106
L33.8426 -54.2431
L33.6213 -54.4707
L33.3955 -54.6935
L33.1654 -54.9113
L32.9313 -55.1242
L32.6934 -55.332
L32.4521 -55.5347
L32.2074 -55.7324
L31.9596 -55.925
L31.709 -56.1125
L31.4558 -56.2948
L31.2 -56.472
L30.9419 -56.644
L30.6817 -56.8109
L30.4196 -56.9728
L30.1556 -57.1295
L29.8899 -57.2811
L29.6227 -57.4276
L29.3541 -57.5691
L29.0842 -57.7056
L28.8131 -57.8371
L28.5408 -57.9636
L28.2676 -58.0852
L27.9935 -58.2019
L27.7186 -58.3137
L27.4429 -58.4206
L27.1665 -58.5228
L26.8895 -58.6201
L26.6119 -58.7127
L26.3338 -58.8006
L26.0553 -58.8838
L25.7763 -58.9624
L25.497 -59.0363
L25.2173 -59.1057
L24.9373 -59.1704
L24.657 -59.2306
L24.3764 -59.2863
L24.0956 -59.3375
L23.8145 -59.3842
L23.5333 -59.4265
L23.2518 -59.4643
L22.9701 -59.4976
L22.6882 -59.5266
L22.4061 -59.5511
L22.1238 -59.5712
L21.8414 -59.5869
L21.5587 -59.5982
L21.2758 -59.6051
L20.9928 -59.6076
L20.7095 -59.6057
L20.426 -59.5993
L20.1422 -59.5885
L19.6821 -59.5732
L19.2768 -59.3661
L18.8765 -59.0778
L18.4815 -58.7824
L18.0919 -58.4801
L17.7077 -58.1709
L17.329 -57.855
L16.9561 -57.5324
L16.5889 -57.2033
L16.2277 -56.8677
L15.8725 -56.5257
L15.5234 -56.1775
L15.1806 -55.8232
L14.8441 -55.4628
L14.514 -55.0965
L14.1905 -54.7244
L13.8736 -54.3465
L13.5635 -53.9631
L13.2602 -53.5742
L12.9638 -53.18
L12.6745 -52.7805
L12.3922 -52.3759
L12.1172 -51.9663
L11.8494 -51.5519
L11.589 -51.1327
L11.336 -50.7089
L11.0905 -50.2806
L10.8526 -49.848
L10.6224 -49.4112
L10.3999 -48.9702
L10.1852 -48.5254
L9.97836 -48.0767
L9.77946 -47.6243
L9.58853 -47.1684
L9.40566 -46.7091
L9.23088 -46.2465
L9.06426 -45.7808
L8.90584 -45.3121
L8.75568 -44.8406
L8.61381 -44.3664
L8.48029 -43.8897
L8.35515 -43.4105
L8.23843 -42.9291
L8.13017 -42.4456
L8.0304 -41.9601
L7.93914 -41.4728
L7.85644 -40.9838
L7.78231 -40.4933
L7.71677 -40.0015
L7.65985 -39.5084
L7.61156 -39.0142
L7.57191 -38.5192
L7.54093 -38.0234
L7.51862 -37.5269
L7.50498 -37.03
L7.50002 -36.5328
L7.50375 -36.0354
L7.51615 -35.538
L7.53723 -35.0407
L7.56698 -34.5438
L7.60539 -34.0472
L7.65245 -33.5513
L7.70814 -33.0561
L7.77246 -32.5618
L7.84537 -32.0686
L7.92686 -31.5766
L8.0169 -31.0859
L8.11546 -30.5967
L8.22252 -30.1091
L8.33803 -29.6234
L8.46198 -29.1396
L8.59431 -28.6578
L8.73499 -28.1783
L8.88398 -27.7012
L9.04122 -27.2267
L9.20668 -26.7548
L9.3803 -26.2857
L9.56203 -25.8196
L9.75181 -25.3565
L9.94958 -24.8967
L10.1553 -24.4403
L10.3689 -23.9875
L10.5903 -23.5382
L10.8194 -23.0928
L11.0562 -22.6513
L11.3006 -22.2139
L11.5525 -21.7806
L11.8119 -21.3518
L12.0786 -20.9273
L12.3527 -20.5075
L12.6339 -20.0923
L12.9222 -19.6821
L13.2176 -19.2768
L13.5199 -18.8765
L13.8291 -18.4815
L14.145 -18.0919
L14.4676 -17.7077
z
" id="C0_1_2b8ce51e31"/>
     <path d="
M52.0809 -12.5355
L52.2014 -12.7927
L52.3189 -13.0504
L52.4336 -13.3087
L52.5455 -13.5675
L52.6546 -13.8269
L52.7609 -14.0869
L52.8646 -14.3475
L52.9657 -14.6087
L53.0641 -14.8706
L53.16 -15.1332
L53.2534 -15.3965
L53.3443 -15.6605
L53.4327 -15.9253
L53.5188 -16.1909
L53.6024 -16.4573
L53.6838 -16.7246
L53.7628 -16.9928
L53.8394 -17.2618
L53.9139 -17.5319
L53.9861 -17.8029
L54.056 -18.0749
L54.1238 -18.348
L54.1893 -18.6221
L54.2528 -18.8974
L54.314 -19.1739
L54.3731 -19.4515
L54.4301 -19.7304
L54.485 -20.0105
L54.5378 -20.2919
L54.5885 -20.5747
L54.6371 -20.8588
L54.6836 -21.1444
L54.728 -21.4314
L54.7704 -21.7199
L54.8108 -22.0099
L54.849 -22.3014
L54.8852 -22.5946
L54.9194 -22.8893
L54.9515 -23.1857
L54.9815 -23.4839
L55.0095 -23.7837
L55.0354 -24.0853
L55.0593 -24.3887
L55.0811 -24.6938
L55.1008 -25.0009
L55.1185 -25.3098
L55.134 -25.6205
L55.1476 -25.9332
L55.159 -26.2479
L55.1684 -26.5645
L55.1757 -26.883
L55.1809 -27.2036
L55.184 -27.5261
L55.1851 -27.8507
L55.1841 -28.1772
L55.181 -28.5058
L55.1759 -28.8364
L55.1687 -29.1691
L55.1595 -29.5037
L55.1483 -29.8404
L55.1351 -30.179
L55.1199 -30.5196
L55.1028 -30.8621
L55.0838 -31.2066
L55.0629 -31.5529
L55.0402 -31.9011
L55.0156 -32.2511
L54.9894 -32.6029
L54.9615 -32.9563
L54.932 -33.3114
L54.9009 -33.6681
L54.8684 -34.0263
L54.8346 -34.386
L54.7996 -34.7469
L54.7634 -35.1092
L54.7262 -35.4725
L54.6881 -35.837
L54.6493 -36.2024
L54.6099 -36.5686
L54.5701 -36.9355
L54.5301 -37.3031
L54.4901 -37.671
L54.4503 -38.0393
L54.4108 -38.4078
L54.3719 -38.7762
L54.3339 -39.1445
L54.2969 -39.5125
L54.2613 -39.8801
L54.2273 -40.247
L54.1952 -40.6131
L54.1652 -40.9783
L54.1376 -41.3423
L54.1127 -41.705
L54.0908 -42.0663
L54.0721 -42.4259
L54.0569 -42.7836
L54.0454 -43.1394
L54.0378 -43.4931
L54.0345 -43.8444
L54.0355 -44.1933
L54.0412 -44.5396
L54.0515 -44.8831
L54.0667 -45.2238
L54.0869 -45.5615
L54.1121 -45.896
L54.1424 -46.2273
L54.1778 -46.5552
L54.2183 -46.8798
L54.2639 -47.2007
L54.3145 -47.5181
L54.37 -47.8318
L54.4303 -48.1417
L54.4953 -48.4478
L54.5648 -48.7501
L54.6386 -49.0484
L54.7167 -49.3428
L54.7987 -49.6331
L54.8845 -49.9195
L54.9738 -50.2018
L55.0665 -50.48
L55.1624 -50.7541
L55.2611 -51.0242
L55.3626 -51.2901
L55.4665 -51.5519
L55.5727 -51.8096
L55.681 -52.0632
L55.7911 -52.3127
L55.903 -52.558
L56.0163 -52.7994
L56.1309 -53.0366
L56.2467 -53.2698
L56.3635 -53.499
L56.4812 -53.7242
L56.5995 -53.9453
L56.7184 -54.1626
L56.8378 -54.3759
L56.9575 -54.5853
L57.0775 -54.7909
L57.5549 -54.9927
L57.877 -54.645
L58.1925 -54.266
L58.5012 -53.8814
L58.803 -53.4914
L59.0979 -53.096
L59.3857 -52.6954
L59.6665 -52.2898
L59.94 -51.8792
L60.2062 -51.4637
L60.4651 -51.0435
L60.7165 -50.6188
L60.9604 -50.1896
L61.1967 -49.7561
L61.4253 -49.3184
L61.6461 -48.8766
L61.8592 -48.4309
L62.0643 -47.9814
L62.2615 -47.5283
L62.4508 -47.0716
L62.6319 -46.6116
L62.805 -46.1484
L62.9699 -45.682
L63.1266 -45.2128
L63.275 -44.7407
L63.4151 -44.2659
L63.5468 -43.7886
L63.6702 -43.309
L63.7851 -42.8271
L63.8916 -42.3432
L63.9896 -41.8573
L64.079 -41.3696
L64.1599 -40.8803
L64.2323 -40.3895
L64.296 -39.8974
L64.3511 -39.4041
L64.3975 -38.9097
L64.4354 -38.4145
L64.4645 -37.9185
L64.485 -37.422
L64.4968 -36.925
L64.4999 -36.4277
L64.4944 -35.9303
L64.4801 -35.4329
L64.4572 -34.9357
L64.4256 -34.4388
L64.3854 -33.9424
L64.3365 -33.4466
L64.279 -32.9516
L64.2129 -32.4575
L64.1381 -31.9646
L64.0548 -31.4728
L63.963 -30.9824
L63.8626 -30.4935
L63.7538 -30.0064
L63.6365 -29.521
L63.5108 -29.0376
L63.3767 -28.5563
L63.2342 -28.0774
L63.0835 -27.6008
L62.9245 -27.1267
L62.7573 -26.6554
L62.582 -26.187
L62.3985 -25.7215
L62.2071 -25.2591
L62.0076 -24.8
L61.8002 -24.3444
L61.585 -23.8922
L61.362 -23.4438
L61.1312 -22.9992
L60.8928 -22.5586
L60.6468 -22.122
L60.3933 -21.6897
L60.1324 -21.2617
L59.8641 -20.8382
L59.5885 -20.4194
L59.3058 -20.0053
L59.0159 -19.596
L58.7191 -19.1918
L58.4153 -18.7927
L58.1047 -18.3988
L57.7874 -18.0103
L57.4634 -17.6272
L57.1329 -17.2498
L56.796 -16.878
L56.4527 -16.5121
L56.1032 -16.1522
L55.7476 -15.7982
L55.3859 -15.4505
L55.0184 -15.1089
L54.645 -14.7738
L54.266 -14.4451
L53.8814 -14.123
L53.4914 -13.8075
L53.096 -13.4988
L52.6954 -13.197
z
" id="C0_2_4e4a2a1a56"/>
    </defs>
    <g clip-path="url(#p1bffca34e9)">
     <use style="fill:#ffffff;stroke:#000000;stroke-width:2.0;" x="0.0" xlink:href="#C0_0_a811fe30f3" y="72.0"/>
    </g>
    <g clip-path="url(#p1bffca34e9)">
     <use style="fill:#ff0000;stroke:#000000;stroke-width:2.0;" x="0.0" xlink:href="#C0_1_2b8ce51e31" y="72.0"/>
    </g>
    <g clip-path="url(#p1bffca34e9)">
     <use style="fill:#ff0000;stroke:#000000;stroke-width:2.0;" x="0.0" xlink:href="#C0_2_4e4a2a1a56" y="72.0"/>
    </g>
   </g>
  </g>
 </g>
 <defs>
  <clipPath id="p1bffca34e9">
   <rect height="72.0" width="72.0" x="0.0" y="0.0"/>
  </clipPath>
 </defs>
</svg>
