<?xml version="1.0" encoding="utf-8" standalone="no"?>
<!DOCTYPE svg PUBLIC "-//W3C//DTD SVG 1.1//EN"
  "http://www.w3.org/Graphics/SVG/1.1/DTD/svg11.dtd">
<!-- Created with matplotlib (http://matplotlib.org/) -->
<svg height="72pt" version="1.1" viewBox="0 0 72 72" width="72pt" xmlns="http://www.w3.org/2000/svg" xmlns:xlink="http://www.w3.org/1999/xlink">
 <defs>
  <style type="text/css">
*{stroke-linecap:butt;stroke-linejoin:round;}
  </style>
 </defs>
 <g id="figure_1">
  <g id="patch_1">
   <path d="
M0 72
L72 72
L72 0
L0 0
z
" style="fill:none;"/>
  </g>
  <g id="axes_1">
   <g id="PatchCollection_1">
    <defs>
     <path d="
M36 -7.5
C43.5583 -7.5 50.808 -10.5029 56.1525 -15.8475
C61.4971 -21.192 64.5 -28.4417 64.5 -36
C64.5 -43.5583 61.4971 -50.808 56.1525 -56.1525
C50.808 -61.4971 43.5583 -64.5 36 -64.5
C28.4417 -64.5 21.192 -61.4971 15.8475 -56.1525
C10.5029 -50.808 7.5 -43.5583 7.5 -36
C7.5 -28.4417 10.5029 -21.192 15.8475 -15.8475
C21.192 -10.5029 28.4417 -7.5 36 -7.5
z
" id="C0_0_a811fe30f3"/>
     <path d="
M17.6318 -14.4184
L17.826 -14.5646
L18.0059 -14.7271
L18.172 -14.9055
L18.3247 -15.0989
L18.4646 -15.3067
L18.5924 -15.528
L18.709 -15.7621
L18.815 -16.0081
L18.9115 -16.2652
L18.9992 -16.5324
L19.0789 -16.8091
L19.1516 -17.0944
L19.2181 -17.3874
L19.279 -17.6876
L19.3352 -17.994
L19.3873 -18.3061
L19.436 -18.6231
L19.4818 -18.9445
L19.5252 -19.2697
L19.5668 -19.5982
L19.6069 -19.9294
L19.646 -20.2629
L19.6843 -20.5982
L19.7223 -20.9349
L19.7601 -21.2727
L19.7981 -21.6112
L19.8363 -21.9501
L19.8751 -22.2891
L19.9144 -22.628
L19.9546 -22.9664
L19.9956 -23.3042
L20.0376 -23.6412
L20.0806 -23.9772
L20.1248 -24.312
L20.17 -24.6455
L20.2165 -24.9775
L20.2643 -25.308
L20.3132 -25.6368
L20.3634 -25.9638
L20.4149 -26.2889
L20.4677 -26.6122
L20.5217 -26.9335
L20.577 -27.2527
L20.6335 -27.57
L20.6913 -27.8851
L20.7503 -28.1981
L20.8105 -28.5089
L20.8718 -28.8177
L20.9344 -29.1243
L20.9981 -29.4287
L21.063 -29.731
L21.129 -30.0312
L21.1961 -30.3292
L21.2642 -30.6252
L21.3335 -30.9191
L21.4038 -31.211
L21.4751 -31.5008
L21.5474 -31.7887
L21.6208 -32.0746
L21.6951 -32.3585
L21.7705 -32.6406
L21.8467 -32.9209
L21.924 -33.1994
L22.0022 -33.4761
L22.0813 -33.7511
L22.1614 -34.0244
L22.2424 -34.2961
L22.3243 -34.5662
L22.4071 -34.8349
L22.4908 -35.102
L22.5755 -35.3677
L22.6611 -35.632
L22.7475 -35.895
L22.8349 -36.1567
L22.9233 -36.4171
L23.0125 -36.6764
L23.1027 -36.9346
L23.1938 -37.1916
L23.2858 -37.4477
L23.3788 -37.7027
L23.4728 -37.9569
L23.5677 -38.2101
L23.6636 -38.4625
L23.7605 -38.7141
L23.8584 -38.965
L23.9573 -39.2152
L24.0573 -39.4648
L24.1583 -39.7138
L24.3636 -39.9622
L24.4679 -40.2102
L24.5733 -40.4577
L24.6798 -40.7048
L24.7876 -40.9516
L24.8965 -41.1981
L25.0066 -41.4443
L25.118 -41.6903
L25.2307 -41.9361
L25.3446 -42.1819
L25.4599 -42.4275
L25.5765 -42.6731
L25.6945 -42.9188
L25.8139 -43.1645
L25.9348 -43.4102
L26.0571 -43.6561
L26.1809 -43.9022
L26.3062 -44.1486
L26.4332 -44.3951
L26.5617 -44.642
L26.6918 -44.8892
L26.8236 -45.1367
L26.9572 -45.3847
L27.0924 -45.6331
L27.2294 -45.882
L27.3683 -46.1313
L27.509 -46.3812
L27.6516 -46.6317
L27.7961 -46.8827
L27.9426 -47.1344
L28.091 -47.3867
L28.2415 -47.6397
L28.3941 -47.8933
L28.5487 -48.1477
L28.7055 -48.4028
L28.8645 -48.6586
L29.0257 -48.9152
L29.189 -49.1725
L29.3547 -49.4306
L29.5226 -49.6894
L29.6928 -49.9491
L29.8654 -50.2095
L30.0403 -50.4707
L30.2176 -50.7326
L30.3972 -50.9954
L30.5792 -51.2588
L30.7635 -51.523
L30.9502 -51.7879
L31.1393 -52.0535
L31.3306 -52.3197
L31.5243 -52.5865
L31.7202 -52.854
L31.9184 -53.122
L32.1186 -53.3905
L32.321 -53.6594
L32.5253 -53.9288
L32.7315 -54.1985
L32.9394 -54.4685
L33.149 -54.7387
L33.36 -55.0091
L33.5723 -55.2796
L33.7857 -55.5501
L34 -55.8206
L34.2148 -56.0909
L34.4299 -56.361
L34.645 -56.6309
L34.8597 -56.9003
L35.0736 -57.1694
L35.2862 -57.4379
L35.4971 -57.7058
L35.7057 -57.9731
L35.9114 -58.2397
L36.1137 -58.5055
L36.3117 -58.7704
L36.5047 -59.0345
L36.6919 -59.2976
L36.8724 -59.5599
L37.0453 -59.8211
L37.2095 -60.0814
L37.3641 -60.3407
L37.508 -60.5991
L37.6399 -60.8565
L37.7588 -61.113
L37.8635 -61.3686
L37.9528 -61.6233
L38.0257 -61.877
L38.081 -62.1299
L38.1178 -62.3818
L38.1351 -62.6326
L38.1322 -62.8824
L38.1083 -63.131
L38.0629 -63.3781
L37.9956 -63.6236
L37.9063 -63.8673
L37.7948 -64.1088
L37.3041 -64.3478
L36.8071 -64.4701
L36.3097 -64.4886
L35.8123 -64.4983
L35.315 -64.4994
L34.8178 -64.4918
L34.321 -64.4755
L33.8248 -64.4505
L33.3292 -64.4169
L32.8344 -64.3746
L32.3405 -64.3236
L31.8478 -64.2641
L31.3564 -64.1959
L30.8663 -64.1191
L30.3778 -64.0338
L29.8911 -63.94
L29.4062 -63.8376
L28.9233 -63.7267
L28.4425 -63.6074
L27.9641 -63.4797
L27.4881 -63.3436
L27.0147 -63.1992
L26.5441 -63.0465
L26.0763 -62.8856
L25.6115 -62.7165
L25.1499 -62.5392
L24.6917 -62.3539
L24.2368 -62.1605
L23.7856 -61.9591
L23.338 -61.7499
L22.8943 -61.5328
L22.4546 -61.3079
L22.0191 -61.0754
L21.5878 -60.8351
L21.1609 -60.5874
L20.7385 -60.3321
L20.3207 -60.0694
L19.9078 -59.7994
L19.4997 -59.5221
L19.0967 -59.2377
L18.6988 -58.9462
L18.3061 -58.6477
L17.9189 -58.3423
L17.5372 -58.0301
L17.1611 -57.7112
L16.7907 -57.3856
L16.4262 -57.0536
L16.0677 -56.7151
L15.7152 -56.3704
L15.3689 -56.0194
L15.0289 -55.6623
L14.6953 -55.2993
L14.3681 -54.9303
L14.0476 -54.5556
L13.7337 -54.1753
L13.4266 -53.7894
L13.1264 -53.3981
L12.8332 -53.0015
L12.547 -52.5997
L12.268 -52.1928
L11.9962 -51.7811
L11.7317 -51.3645
L11.4746 -50.9432
L11.225 -50.5174
L10.9829 -50.0872
L10.7484 -49.6526
L10.5217 -49.2139
L10.3027 -48.7712
L10.0915 -48.3246
L9.88819 -47.8743
L9.69285 -47.4203
L9.50553 -46.9628
L9.32628 -46.502
L9.15515 -46.0381
L8.9922 -45.571
L8.83748 -45.101
L8.69104 -44.6283
L8.55291 -44.1529
L8.42314 -43.6751
L8.30177 -43.1949
L8.18884 -42.7125
L8.08438 -42.2281
L7.98842 -41.7418
L7.901 -41.2537
L7.82213 -40.764
L7.75185 -40.2729
L7.69018 -39.7805
L7.63712 -39.2869
L7.59271 -38.7924
L7.55695 -38.2969
L7.52985 -37.8008
L7.51143 -37.3041
L7.50168 -36.8071
L7.50062 -36.3097
L7.50823 -35.8123
L7.52453 -35.315
L7.5495 -34.8178
L7.58313 -34.321
L7.62542 -33.8248
L7.67636 -33.3292
L7.73592 -32.8344
L7.80409 -32.3405
L7.88085 -31.8478
L7.96618 -31.3564
L8.06004 -30.8663
L8.16242 -30.3778
L8.27327 -29.8911
L8.39257 -29.4062
L8.52028 -28.9233
L8.65637 -28.4425
L8.80078 -27.9641
L8.95347 -27.4881
L9.1144 -27.0147
L9.28353 -26.5441
L9.46079 -26.0763
L9.64614 -25.6115
L9.83951 -25.1499
L10.0409 -24.6917
L10.2501 -24.2368
L10.4672 -23.7856
L10.6921 -23.338
L10.9246 -22.8943
L11.1649 -22.4546
L11.4126 -22.0191
L11.6679 -21.5878
L11.9306 -21.1609
L12.2006 -20.7385
L12.4779 -20.3207
L12.7623 -19.9078
L13.0538 -19.4997
L13.3523 -19.0967
L13.6577 -18.6988
L13.9699 -18.3061
L14.2888 -17.9189
L14.6144 -17.5372
L14.9464 -17.1611
L15.2849 -16.7907
L15.6296 -16.4262
L15.9806 -16.0677
L16.3377 -15.7152
L16.7007 -15.3689
L17.0697 -15.0289
z
" id="C0_1_b8be25e37d"/>
     <path d="
M34.3542 -7.68048
L34.5318 -7.89877
L34.7247 -8.11706
L34.9317 -8.33557
L35.1516 -8.55453
L35.3833 -8.77414
L35.6254 -8.99463
L35.8769 -9.21619
L36.1365 -9.439
L36.4031 -9.66321
L36.6759 -9.88896
L36.9536 -10.1163
L37.2355 -10.3455
L37.5208 -10.5764
L37.8085 -10.8091
L38.098 -11.0437
L38.3887 -11.2801
L38.6799 -11.5184
L38.971 -11.7584
L39.2617 -12.0002
L39.5514 -12.2437
L39.8397 -12.4888
L40.1263 -12.7354
L40.4109 -12.9835
L40.6931 -13.233
L40.9728 -13.4837
L41.2497 -13.7357
L41.5237 -13.9888
L41.7945 -14.2429
L42.0621 -14.4979
L42.3262 -14.7537
L42.5869 -15.0103
L42.8441 -15.2675
L43.0976 -15.5253
L43.3474 -15.7836
L43.5936 -16.0424
L43.836 -16.3015
L44.0747 -16.5609
L44.3096 -16.8205
L44.5408 -17.0802
L44.7683 -17.3401
L44.9921 -17.6001
L45.2122 -17.8601
L45.4287 -18.12
L45.6416 -18.3799
L45.8509 -18.6397
L46.0566 -18.8994
L46.2589 -19.159
L46.4578 -19.4184
L46.6533 -19.6776
L46.8454 -19.9366
L47.0343 -20.1954
L47.22 -20.454
L47.4025 -20.7124
L47.5819 -20.9705
L47.7582 -21.2285
L47.9316 -21.4862
L48.102 -21.7438
L48.2695 -22.0011
L48.4342 -22.2583
L48.5961 -22.5153
L48.7552 -22.7721
L48.9118 -23.0288
L49.0656 -23.2854
L49.217 -23.5419
L49.3658 -23.7984
L49.5121 -24.0548
L49.656 -24.3112
L49.7976 -24.5676
L49.9368 -24.824
L50.0737 -25.0806
L50.2084 -25.3372
L50.3409 -25.594
L50.4712 -25.851
L50.5994 -26.1082
L50.7255 -26.3656
L50.8496 -26.6233
L50.9716 -26.8814
L51.0917 -27.1399
L51.2098 -27.3987
L51.3259 -27.658
L51.4402 -27.9179
L51.5526 -28.1782
L51.6632 -28.4392
L51.772 -28.7008
L51.8789 -28.9631
L51.9841 -29.2261
L52.0875 -29.4899
L52.1892 -29.7545
L52.2891 -30.0199
L52.3874 -30.2864
L52.4839 -30.5537
L52.5787 -30.8221
L52.6719 -31.0916
L52.7634 -31.3622
L52.8532 -31.634
L52.9414 -31.907
L53.0279 -32.1813
L53.1127 -32.457
L53.1959 -32.734
L53.2774 -33.0124
L53.3573 -33.2924
L53.4355 -33.5739
L53.512 -33.857
L53.5868 -34.1418
L53.6599 -34.4282
L53.7313 -34.7165
L53.8009 -35.0065
L53.8688 -35.2984
L53.935 -35.5922
L53.9993 -35.888
L54.0618 -36.1858
L54.1225 -36.4857
L54.1813 -36.7877
L54.2383 -37.0919
L54.2932 -37.3982
L54.3463 -37.7068
L54.3973 -38.0178
L54.4463 -38.331
L54.4933 -38.6466
L54.5381 -38.9647
L54.5808 -39.2851
L54.6213 -39.6081
L54.6596 -39.9335
L54.6956 -40.2615
L54.7292 -40.592
L54.7605 -40.9251
L54.7894 -41.2608
L54.8158 -41.599
L54.8396 -41.9398
L54.861 -42.2831
L54.8797 -42.6291
L54.8957 -42.9775
L54.9091 -43.3285
L54.9197 -43.6819
L54.9276 -44.0378
L54.9326 -44.396
L54.9348 -44.7566
L54.9342 -45.1193
L54.9307 -45.4843
L54.9243 -45.8512
L54.915 -46.2201
L54.9028 -46.5908
L54.8878 -46.9632
L54.87 -47.3371
L54.8495 -47.7123
L54.8263 -48.0887
L54.8005 -48.466
L54.7722 -48.844
L54.7416 -49.2224
L54.7089 -49.601
L54.6742 -49.9795
L54.6378 -50.3576
L54.5999 -50.7348
L54.561 -51.111
L54.5212 -51.4855
L54.4812 -51.8581
L54.4412 -52.2283
L54.4019 -52.5956
L54.3638 -52.9594
L54.3275 -53.3193
L54.2938 -53.6747
L54.2633 -54.0251
L54.237 -54.3697
L54.2155 -54.708
L54.2 -55.0393
L54.1912 -55.363
L54.1902 -55.6784
L54.1979 -55.9848
L54.2154 -56.2816
L54.2436 -56.568
L54.2835 -56.8435
L54.3358 -57.1075
L54.4014 -57.3594
L54.9041 -57.5985
L55.2735 -57.328
L55.6369 -56.9949
L55.9944 -56.6553
L56.3458 -56.3094
L56.691 -55.9574
L57.0299 -55.5993
L57.3624 -55.2352
L57.6884 -54.8652
L58.0078 -54.4895
L58.3205 -54.1082
L58.6264 -53.7213
L58.9254 -53.3291
L59.2174 -52.9316
L59.5023 -52.5289
L59.7801 -52.1212
L60.0506 -51.7086
L60.3138 -51.2911
L60.5696 -50.8691
L60.8179 -50.4425
L61.0587 -50.0115
L61.2918 -49.5762
L61.5172 -49.1368
L61.7348 -48.6934
L61.9446 -48.2461
L62.1466 -47.7951
L62.3405 -47.3405
L62.5264 -46.8825
L62.7042 -46.4211
L62.8739 -45.9566
L63.0354 -45.489
L63.1887 -45.0186
L63.3337 -44.5454
L63.4704 -44.0695
L63.5987 -43.5913
L63.7186 -43.1107
L63.83 -42.628
L63.933 -42.1432
L64.0275 -41.6565
L64.1134 -41.1682
L64.1908 -40.6783
L64.2596 -40.1869
L64.3197 -39.6943
L64.3713 -39.2005
L64.4142 -38.7058
L64.4484 -38.2102
L64.474 -37.714
L64.4909 -37.2172
L64.4991 -36.7201
L64.4987 -36.2228
L64.4895 -35.7253
L64.4717 -35.228
L64.4452 -34.7309
L64.4101 -34.2342
L64.3663 -33.738
L64.3138 -33.2426
L64.2528 -32.7479
L64.1831 -32.2543
L64.1048 -31.7618
L64.018 -31.2705
L63.9227 -30.7808
L63.8188 -30.2926
L63.7065 -29.8061
L63.5857 -29.3216
L63.4565 -28.839
L63.319 -28.3587
L63.1731 -27.8807
L63.019 -27.4051
L62.8566 -26.9322
L62.6861 -26.462
L62.5074 -25.9948
L62.3206 -25.5306
L62.1259 -25.0695
L61.9231 -24.6119
L61.7125 -24.1576
L61.494 -23.707
L61.2678 -23.2601
L61.0339 -22.8171
L60.7923 -22.3782
L60.5432 -21.9433
L60.2867 -21.5128
L60.0227 -21.0867
L59.7514 -20.6651
L59.4729 -20.2482
L59.1872 -19.836
L58.8945 -19.4288
L58.5948 -19.0267
L58.2882 -18.6297
L57.9748 -18.238
L57.6547 -17.8517
L57.328 -17.471
L56.9949 -17.0959
L56.6553 -16.7265
L56.3094 -16.3631
L55.9574 -16.0056
L55.5993 -15.6542
L55.2352 -15.309
L54.8652 -14.9701
L54.4895 -14.6376
L54.1082 -14.3116
L53.7213 -13.9922
L53.3291 -13.6795
L52.9316 -13.3736
L52.5289 -13.0746
L52.1212 -12.7826
L51.7086 -12.4977
L51.2911 -12.2199
L50.8691 -11.9494
L50.4425 -11.6862
L50.0115 -11.4304
L49.5762 -11.1821
L49.1368 -10.9413
L48.6934 -10.7082
L48.2461 -10.4828
L47.7951 -10.2652
L47.3405 -10.0554
L46.8825 -9.85345
L46.4211 -9.65951
L45.9566 -9.4736
L45.489 -9.29576
L45.0186 -9.12606
L44.5454 -8.96455
L44.0695 -8.81127
L43.5913 -8.66628
L43.1107 -8.52961
L42.628 -8.4013
L42.1432 -8.28141
L41.6565 -8.16996
L41.1682 -8.06698
L40.6783 -7.97252
L40.1869 -7.88659
L39.6943 -7.80922
L39.2005 -7.74045
L38.7058 -7.68028
L38.2102 -7.62873
L37.714 -7.58583
L37.2172 -7.55159
L36.7201 -7.52601
L36.2228 -7.5091
L35.7253 -7.50087
L35.228 -7.50132
z
" id="C0_2_bbf73fc7f1"/>
    </defs>
    <g clip-path="url(#p1bffca34e9)">
     <use style="fill:#ffffff;stroke:#000000;stroke-width:2.0;" x="0.0" xlink:href="#C0_0_a811fe30f3" y="72.0"/>
    </g>
    <g clip-path="url(#p1bffca34e9)">
     <use style="fill:#ff0000;stroke:#000000;stroke-width:2.0;" x="0.0" xlink:href="#C0_1_b8be25e37d" y="72.0"/>
    </g>
    <g clip-path="url(#p1bffca34e9)">
     <use style="fill:#ff0000;stroke:#000000;stroke-width:2.0;" x="0.0" xlink:href="#C0_2_bbf73fc7f1" y="72.0"/>
    </g>
   </g>
  </g>
 </g>
 <defs>
  <clipPath id="p1bffca34e9">
   <rect height="72.0" width="72.0" x="0.0" y="0.0"/>
  </clipPath>
 </defs>
</svg>
