<?xml version="1.0" encoding="utf-8" standalone="no"?>
<!DOCTYPE svg PUBLIC "-//W3C//DTD SVG 1.1//EN"
  "http://www.w3.org/Graphics/SVG/1.1/DTD/svg11.dtd">
<!-- Created with matplotlib (http://matplotlib.org/) -->
<svg height="72pt" version="1.1" viewBox="0 0 72 72" width="72pt" xmlns="http://www.w3.org/2000/svg" xmlns:xlink="http://www.w3.org/1999/xlink">
 <defs>
  <style type="text/css">
*{stroke-linecap:butt;stroke-linejoin:round;}
  </style>
 </defs>
 <g id="figure_1">
  <g id="patch_1">
   <path d="
M0 72
L72 72
L72 0
L0 0
z
" style="fill:none;"/>
  </g>
  <g id="axes_1">
   <g id="PatchCollection_1">
    <defs>
     <path d="
M36 -7.5
C43.5583 -7.5 50.808 -10.5029 56.1525 -15.8475
C61.4971 -21.192 64.5 -28.4417 64.5 -36
C64.5 -43.5583 61.4971 -50.808 56.1525 -56.1525
C50.808 -61.4971 43.5583 -64.5 36 -64.5
C28.4417 -64.5 21.192 -61.4971 15.8475 -56.1525
C10.5029 -50.808 7.5 -43.5583 7.5 -36
C7.5 -28.4417 10.5029 -21.192 15.8475 -15.8475
C21.192 -10.5029 28.4417 -7.5 36 -7.5
z
" id="C0_0_a811fe30f3"/>
     <path d="
M9.67004 -46.4101
L9.89873 -46.3878
L10.126 -46.3552
L10.3517 -46.3124
L10.5758 -46.2597
L10.7984 -46.1976
L11.0195 -46.1263
L11.239 -46.0461
L11.4569 -45.9573
L11.6732 -45.8604
L11.8881 -45.7556
L12.1015 -45.6433
L12.3134 -45.5237
L12.5239 -45.3973
L12.7331 -45.2643
L12.9409 -45.1251
L13.1475 -44.98
L13.3528 -44.8293
L13.557 -44.6733
L13.76 -44.5123
L13.962 -44.3466
L14.1629 -44.1765
L14.3629 -44.0023
L14.5619 -43.8242
L14.7601 -43.6424
L14.9574 -43.4573
L15.154 -43.2691
L15.3497 -43.0779
L15.5448 -42.8841
L15.7392 -42.6878
L15.9329 -42.4892
L16.126 -42.2885
L16.3186 -42.0858
L16.5106 -41.8815
L16.702 -41.6756
L16.893 -41.4682
L17.0835 -41.2595
L17.2736 -41.0498
L17.4632 -40.839
L17.6524 -40.6273
L17.8413 -40.4148
L18.0297 -40.2017
L18.2178 -39.9879
L18.4056 -39.7737
L18.5931 -39.5592
L18.7802 -39.3443
L18.9671 -39.1291
L19.1537 -38.9138
L19.34 -38.6984
L19.5261 -38.483
L19.7119 -38.2676
L19.8976 -38.0522
L20.083 -37.837
L20.2682 -37.6219
L20.4533 -37.4069
L20.6381 -37.1922
L20.8228 -36.9778
L21.0074 -36.7636
L21.1919 -36.5498
L21.3762 -36.3362
L21.5604 -36.1231
L21.7445 -35.9102
L21.9286 -35.6978
L22.1125 -35.4857
L22.2965 -35.274
L22.4804 -35.0627
L22.6642 -34.8518
L22.8481 -34.6413
L23.0319 -34.4312
L23.2158 -34.2215
L23.3997 -34.0122
L23.5837 -33.8033
L23.7677 -33.5948
L23.9519 -33.3867
L24.1361 -33.179
L24.3204 -32.9716
L24.5049 -32.7646
L24.6895 -32.5579
L24.8742 -32.3516
L25.0592 -32.1456
L25.2443 -31.9399
L25.4296 -31.7346
L25.6152 -31.5295
L25.801 -31.3246
L25.9871 -31.1201
L26.1735 -30.9157
L26.3601 -30.7116
L26.7343 -30.5078
L26.922 -30.3041
L27.1099 -30.1005
L27.2983 -29.8972
L27.487 -29.6939
L27.6762 -29.4908
L27.8657 -29.2878
L28.0557 -29.0849
L28.2462 -28.8821
L28.4371 -28.6793
L28.6284 -28.4765
L28.8203 -28.2738
L29.0127 -28.071
L29.2055 -27.8682
L29.3989 -27.6654
L29.5928 -27.4626
L29.7873 -27.2596
L29.9823 -27.0566
L30.1778 -26.8534
L30.374 -26.6502
L30.5706 -26.4468
L30.7679 -26.2432
L30.9657 -26.0394
L31.1641 -25.8355
L31.363 -25.6314
L31.5626 -25.427
L31.7626 -25.2224
L31.9633 -25.0175
L32.1645 -24.8124
L32.3662 -24.607
L32.5684 -24.4013
L32.7712 -24.1953
L32.9745 -23.9889
L33.1782 -23.7823
L33.3823 -23.5752
L33.5869 -23.3679
L33.7919 -23.1601
L33.9973 -22.952
L34.2029 -22.7435
L34.4089 -22.5346
L34.615 -22.3252
L34.8214 -22.1155
L35.0279 -21.9053
L35.2345 -21.6947
L35.4411 -21.4836
L35.6476 -21.2721
L35.854 -21.0601
L36.0602 -20.8477
L36.2661 -20.6347
L36.4716 -20.4213
L36.6766 -20.2074
L36.8811 -19.9929
L37.0848 -19.778
L37.2877 -19.5625
L37.4897 -19.3465
L37.6906 -19.13
L37.8903 -18.9129
L38.0886 -18.6953
L38.2854 -18.4771
L38.4805 -18.2583
L38.6737 -18.0389
L38.8649 -17.819
L39.0539 -17.5984
L39.2404 -17.3772
L39.4242 -17.1554
L39.6052 -16.9329
L39.7831 -16.7098
L39.9577 -16.486
L40.1287 -16.2615
L40.2959 -16.0363
L40.4591 -15.8103
L40.6179 -15.5837
L40.7721 -15.3563
L40.9214 -15.1281
L41.0656 -14.8992
L41.2043 -14.6695
L41.3373 -14.439
L41.4643 -14.2077
L41.585 -13.9756
L41.699 -13.7427
L41.8062 -13.509
L41.9063 -13.2745
L41.9988 -13.0392
L42.0836 -12.8032
L42.1605 -12.5664
L42.229 -12.3289
L42.289 -12.0908
L42.3402 -11.852
L42.3824 -11.6127
L42.4154 -11.3728
L42.4389 -11.1325
L42.4527 -10.8919
L42.4567 -10.6509
L42.4507 -10.4098
L42.4346 -10.1687
L42.4081 -9.92756
L42.3713 -9.68664
L42.3239 -9.44603
L42.2659 -9.20588
L42.1972 -8.96636
L42.1178 -8.72761
L42.0276 -8.48982
L41.5631 -8.25315
L41.0744 -8.04822
L40.5842 -7.95539
L40.0926 -7.8711
L39.5997 -7.79538
L39.1058 -7.72825
L38.6109 -7.66973
L38.1152 -7.61984
L37.6188 -7.5786
L37.122 -7.54601
L36.6248 -7.52209
L36.1275 -7.50685
L35.63 -7.50028
L35.1327 -7.5024
L34.6357 -7.5132
L34.1391 -7.53267
L33.6431 -7.56082
L33.1477 -7.59763
L32.6533 -7.64309
L32.1598 -7.69719
L31.6675 -7.7599
L31.1766 -7.83123
L30.6871 -7.91113
L30.1992 -7.99959
L29.7131 -8.09657
L29.229 -8.20206
L28.7468 -8.31602
L28.2669 -8.4384
L27.7894 -8.56919
L27.3143 -8.70832
L26.8419 -8.85578
L26.3723 -9.0115
L25.9056 -9.17544
L25.442 -9.34755
L24.9816 -9.52778
L24.5246 -9.71607
L24.071 -9.91238
L23.6211 -10.1166
L23.175 -10.3288
L22.7327 -10.5487
L22.2945 -10.7764
L21.8605 -11.0118
L21.4308 -11.2548
L21.0055 -11.5053
L20.5848 -11.7633
L20.1688 -12.0287
L19.7576 -12.3014
L19.3514 -12.5813
L18.9502 -12.8683
L18.5543 -13.1624
L18.1636 -13.4635
L17.7784 -13.7714
L17.3987 -14.086
L17.0247 -14.4074
L16.6565 -14.7353
L16.2941 -15.0697
L15.9378 -15.4105
L15.5876 -15.7575
L15.2435 -16.1108
L14.9059 -16.47
L14.5746 -16.8353
L14.2499 -17.2063
L13.9318 -17.5831
L13.6204 -17.9655
L13.3158 -18.3534
L13.0182 -18.7467
L12.7275 -19.1452
L12.4439 -19.5488
L12.1675 -19.9575
L11.8984 -20.3711
L11.6366 -20.7894
L11.3822 -21.2123
L11.1354 -21.6398
L10.8961 -22.0716
L10.6644 -22.5077
L10.4405 -22.9478
L10.2243 -23.392
L10.0161 -23.84
L9.81567 -24.2917
L9.62327 -24.747
L9.4389 -25.2056
L9.26262 -25.6676
L9.09448 -26.1328
L8.93454 -26.6009
L8.78285 -27.0719
L8.63945 -27.5456
L8.50438 -28.0219
L8.37768 -28.5006
L8.2594 -28.9816
L8.14957 -29.4648
L8.04822 -29.9499
L7.95539 -30.4369
L7.8711 -30.9256
L7.79538 -31.4158
L7.72825 -31.9074
L7.66973 -32.4003
L7.61984 -32.8942
L7.5786 -33.3891
L7.54601 -33.8848
L7.52209 -34.3812
L7.50685 -34.878
L7.50028 -35.3752
L7.5024 -35.8725
L7.5132 -36.37
L7.53267 -36.8673
L7.56082 -37.3643
L7.59763 -37.8609
L7.64309 -38.3569
L7.69719 -38.8523
L7.7599 -39.3467
L7.83123 -39.8402
L7.91113 -40.3325
L7.99959 -40.8234
L8.09657 -41.3129
L8.20206 -41.8008
L8.31602 -42.2869
L8.4384 -42.771
L8.56919 -43.2532
L8.70832 -43.7331
L8.85578 -44.2106
L9.0115 -44.6857
L9.17544 -45.1581
z
" id="C0_1_5c6810cd0e"/>
     <path d="
M30.1161 -63.7804
L30.3106 -63.6075
L30.5106 -63.4347
L30.7158 -63.2621
L30.9258 -63.0895
L31.1403 -62.9168
L31.359 -62.744
L31.5817 -62.5711
L31.8079 -62.3979
L32.0375 -62.2244
L32.2701 -62.0505
L32.5055 -61.8762
L32.7433 -61.7014
L32.9834 -61.5261
L33.2255 -61.3503
L33.4694 -61.1738
L33.7148 -60.9967
L33.9615 -60.819
L34.2094 -60.6405
L34.4582 -60.4614
L34.7077 -60.2815
L34.9579 -60.1009
L35.2084 -59.9195
L35.4592 -59.7373
L35.7101 -59.5544
L35.961 -59.3707
L36.2117 -59.1862
L36.4622 -59.0009
L36.7122 -58.8148
L36.9618 -58.6279
L37.2108 -58.4402
L37.4592 -58.2517
L37.7067 -58.0625
L37.9535 -57.8725
L38.1993 -57.6817
L38.4442 -57.4902
L38.6881 -57.2979
L38.9309 -57.1049
L39.1726 -56.9111
L39.4132 -56.7166
L39.6525 -56.5214
L39.8906 -56.3254
L40.1275 -56.1288
L40.363 -55.9314
L40.5973 -55.7333
L40.8302 -55.5345
L41.0618 -55.335
L41.2921 -55.1349
L41.521 -54.934
L41.7485 -54.7325
L41.9746 -54.5302
L42.1994 -54.3273
L42.4228 -54.1237
L42.6448 -53.9194
L42.8654 -53.7144
L43.0847 -53.5087
L43.3026 -53.3023
L43.5192 -53.0952
L43.7344 -52.8874
L43.9482 -52.6789
L44.1608 -52.4697
L44.372 -52.2597
L44.582 -52.0491
L44.7906 -51.8376
L44.998 -51.6254
L45.2041 -51.4125
L45.409 -51.1987
L45.6127 -50.9842
L45.8151 -50.7689
L46.0164 -50.5527
L46.2165 -50.3358
L46.4154 -50.1179
L46.6131 -49.8993
L46.8098 -49.6797
L47.0053 -49.4593
L47.1998 -49.2379
L47.3931 -49.0157
L47.5854 -48.7925
L47.7767 -48.5683
L47.9669 -48.3432
L48.1561 -48.1171
L48.3443 -47.8899
L48.5316 -47.6618
L48.7179 -47.4326
L48.9032 -47.2023
L49.0876 -46.9709
L49.2711 -46.7385
L49.4536 -46.5049
L49.6353 -46.2702
L49.8161 -46.0343
L49.996 -45.7972
L50.175 -45.559
L50.3533 -45.3195
L50.5306 -45.0788
L50.7072 -44.8369
L50.8829 -44.5937
L51.0579 -44.3492
L51.232 -44.1034
L51.4054 -43.8564
L51.5779 -43.608
L51.7497 -43.3582
L51.9208 -43.1072
L52.0911 -42.8548
L52.2606 -42.601
L52.4293 -42.3458
L52.5974 -42.0893
L52.7647 -41.8315
L52.9312 -41.5722
L53.0971 -41.3116
L53.2621 -41.0496
L53.4265 -40.7862
L53.5902 -40.5215
L53.7531 -40.2554
L53.9153 -39.988
L54.0768 -39.7192
L54.2376 -39.4492
L54.3977 -39.1778
L54.557 -38.9053
L54.7157 -38.6315
L54.8736 -38.3565
L55.0309 -38.0803
L55.1875 -37.8031
L55.3433 -37.5247
L55.4985 -37.2454
L55.653 -36.9651
L55.8069 -36.6839
L55.9601 -36.4019
L56.1126 -36.1191
L56.2645 -35.8357
L56.4158 -35.5517
L56.5664 -35.2672
L56.7165 -34.9823
L56.866 -34.6971
L57.015 -34.4118
L57.1634 -34.1264
L57.3114 -33.841
L57.4589 -33.5559
L57.6059 -33.2712
L57.7526 -32.987
L57.899 -32.7034
L58.0451 -32.4208
L58.1909 -32.1391
L58.3366 -31.8586
L58.4821 -31.5796
L58.6276 -31.3021
L58.7731 -31.0265
L58.9187 -30.7529
L59.0644 -30.4816
L59.2104 -30.2128
L59.3567 -29.9467
L59.5035 -29.6836
L59.6508 -29.4237
L59.7986 -29.1673
L59.9472 -28.9147
L60.0966 -28.666
L60.2469 -28.4217
L60.3982 -28.1819
L60.5507 -27.947
L60.7043 -27.7171
L60.8593 -27.4927
L61.0157 -27.2739
L61.1736 -27.0609
L61.3332 -26.8542
L61.4944 -26.6539
L61.6574 -26.4603
L61.8222 -26.2737
L61.989 -26.0943
L62.1577 -25.9222
L62.3285 -25.7579
L62.7084 -25.6014
L62.8779 -26.0545
L63.0392 -26.5221
L63.1923 -26.9926
L63.3371 -27.4659
L63.4735 -27.9418
L63.6016 -28.4201
L63.7213 -28.9007
L63.8326 -29.3835
L63.9354 -29.8683
L64.0296 -30.355
L64.1153 -30.8434
L64.1925 -31.3334
L64.2611 -31.8248
L64.321 -32.3174
L64.3724 -32.8112
L64.4151 -33.306
L64.4491 -33.8016
L64.4745 -34.2978
L64.4912 -34.7946
L64.4992 -35.2917
L64.4986 -35.789
L64.4892 -36.2865
L64.4712 -36.7838
L64.4445 -37.2809
L64.4092 -37.7776
L64.3651 -38.2737
L64.3125 -38.7692
L64.2512 -39.2638
L64.1813 -39.7574
L64.1029 -40.2499
L64.0159 -40.7411
L63.9203 -41.2308
L63.8162 -41.719
L63.7037 -42.2054
L63.5827 -42.6899
L63.4534 -43.1724
L63.3156 -43.6527
L63.1696 -44.1306
L63.0152 -44.6061
L62.8527 -45.079
L62.6819 -45.5491
L62.503 -46.0163
L62.3161 -46.4804
L62.1211 -46.9413
L61.9182 -47.399
L61.7074 -47.8531
L61.4888 -48.3036
L61.2624 -48.7504
L61.0283 -49.1933
L60.7865 -49.6322
L60.5372 -50.0669
L60.2805 -50.4974
L60.0164 -50.9234
L59.7449 -51.3449
L59.4662 -51.7617
L59.1803 -52.1737
L58.8874 -52.5808
L58.5876 -52.9828
L58.2808 -53.3796
L57.9673 -53.7712
L57.647 -54.1573
L57.3202 -54.538
L56.9869 -54.9129
L56.6472 -55.2821
L56.3012 -55.6455
L55.949 -56.0028
L55.5907 -56.3541
L55.2265 -56.6991
L54.8564 -57.0379
L54.4805 -57.3702
L54.0991 -57.6961
L53.7121 -58.0153
L53.3197 -58.3278
L52.9221 -58.6335
L52.5193 -58.9324
L52.1115 -59.2242
L51.6987 -59.509
L51.2812 -59.7866
L50.859 -60.0569
L50.4323 -60.3199
L50.0012 -60.5756
L49.5658 -60.8237
L49.1263 -61.0643
L48.6828 -61.2972
L48.2355 -61.5225
L47.7844 -61.7399
L47.3297 -61.9495
L46.8716 -62.1512
L46.4102 -62.345
L45.9455 -62.5307
L45.4779 -62.7084
L45.0074 -62.8779
L44.5341 -63.0392
L44.0582 -63.1923
L43.5799 -63.3371
L43.0993 -63.4735
L42.6165 -63.6016
L42.1317 -63.7213
L41.645 -63.8326
L41.1566 -63.9354
L40.6666 -64.0296
L40.1752 -64.1153
L39.6826 -64.1925
L39.1888 -64.2611
L38.694 -64.321
L38.1984 -64.3724
L37.7022 -64.4151
L37.2054 -64.4491
L36.7083 -64.4745
L36.211 -64.4912
L35.7135 -64.4992
L35.2162 -64.4986
L34.7191 -64.4892
L34.2224 -64.4712
L33.7263 -64.4445
L33.2308 -64.4092
L32.7362 -64.3651
L32.2426 -64.3125
L31.7501 -64.2512
L31.2589 -64.1813
L30.7692 -64.1029
z
" id="C0_2_99a26d5542"/>
    </defs>
    <g clip-path="url(#p1bffca34e9)">
     <use style="fill:#ff0000;stroke:#000000;stroke-width:2.0;" x="0.0" xlink:href="#C0_0_a811fe30f3" y="72.0"/>
    </g>
    <g clip-path="url(#p1bffca34e9)">
     <use style="fill:#ffffff;stroke:#000000;stroke-width:2.0;" x="0.0" xlink:href="#C0_1_5c6810cd0e" y="72.0"/>
    </g>
    <g clip-path="url(#p1bffca34e9)">
     <use style="fill:#ffffff;stroke:#000000;stroke-width:2.0;" x="0.0" xlink:href="#C0_2_99a26d5542" y="72.0"/>
    </g>
   </g>
  </g>
 </g>
 <defs>
  <clipPath id="p1bffca34e9">
   <rect height="72.0" width="72.0" x="0.0" y="0.0"/>
  </clipPath>
 </defs>
</svg>
