<?xml version="1.0" encoding="utf-8" standalone="no"?>
<!DOCTYPE svg PUBLIC "-//W3C//DTD SVG 1.1//EN"
  "http://www.w3.org/Graphics/SVG/1.1/DTD/svg11.dtd">
<!-- Created with matplotlib (http://matplotlib.org/) -->
<svg height="72pt" version="1.1" viewBox="0 0 72 72" width="72pt" xmlns="http://www.w3.org/2000/svg" xmlns:xlink="http://www.w3.org/1999/xlink">
 <defs>
  <style type="text/css">
*{stroke-linecap:butt;stroke-linejoin:round;}
  </style>
 </defs>
 <g id="figure_1">
  <g id="patch_1">
   <path d="
M0 72
L72 72
L72 0
L0 0
z
" style="fill:none;"/>
  </g>
  <g id="axes_1">
   <g id="PatchCollection_1">
    <defs>
     <path d="
M36 -7.5
C43.5583 -7.5 50.808 -10.5029 56.1525 -15.8475
C61.4971 -21.192 64.5 -28.4417 64.5 -36
C64.5 -43.5583 61.4971 -50.808 56.1525 -56.1525
C50.808 -61.4971 43.5583 -64.5 36 -64.5
C28.4417 -64.5 21.192 -61.4971 15.8475 -56.1525
C10.5029 -50.808 7.5 -43.5583 7.5 -36
C7.5 -28.4417 10.5029 -21.192 15.8475 -15.8475
C21.192 -10.5029 28.4417 -7.5 36 -7.5
z
" id="C0_0_a811fe30f3"/>
     <path d="
M47.1827 -9.88179
L46.836 -9.93837
L46.5043 -10.0113
L46.1882 -10.1002
L45.888 -10.2048
L45.6042 -10.3246
L45.3366 -10.4592
L45.0853 -10.608
L44.8502 -10.7703
L44.6308 -10.9457
L44.4268 -11.1335
L44.2377 -11.3329
L44.0629 -11.5434
L43.9016 -11.7641
L43.7531 -11.9944
L43.6168 -12.2337
L43.4918 -12.4812
L43.3773 -12.7364
L43.2726 -12.9985
L43.1769 -13.267
L43.0896 -13.5413
L43.0099 -13.8208
L42.9372 -14.1051
L42.8709 -14.3936
L42.8104 -14.6859
L42.7551 -14.9815
L42.7046 -15.28
L42.6584 -15.5811
L42.6161 -15.8843
L42.5773 -16.1894
L42.5417 -16.496
L42.5089 -16.8039
L42.4786 -17.1127
L42.4506 -17.4223
L42.4246 -17.7323
L42.4004 -18.0427
L42.3779 -18.3531
L42.3567 -18.6634
L42.3368 -18.9735
L42.318 -19.2832
L42.3002 -19.5923
L42.2833 -19.9007
L42.2671 -20.2084
L42.2515 -20.5152
L42.2365 -20.8211
L42.222 -21.1258
L42.2079 -21.4295
L42.1942 -21.732
L42.1807 -22.0332
L42.1675 -22.3332
L42.1545 -22.6319
L42.1416 -22.9292
L42.1289 -23.2251
L42.1162 -23.5196
L42.1035 -23.8127
L42.0909 -24.1044
L42.0783 -24.3946
L42.0656 -24.6835
L42.0529 -24.9709
L42.0402 -25.2569
L42.0273 -25.5415
L42.0144 -25.8247
L42.0013 -26.1065
L41.9881 -26.387
L41.9748 -26.6661
L41.9614 -26.944
L41.9478 -27.2205
L41.9341 -27.4959
L41.9202 -27.77
L41.9061 -28.0429
L41.8918 -28.3147
L41.8774 -28.5854
L41.8628 -28.8551
L41.848 -29.1237
L41.833 -29.3913
L41.8178 -29.6579
L41.8024 -29.9237
L41.7868 -30.1885
L41.7709 -30.4526
L41.7549 -30.7159
L41.7387 -30.9785
L41.7222 -31.2403
L41.7055 -31.5016
L41.6886 -31.7622
L41.6714 -32.0223
L41.654 -32.2819
L41.6364 -32.5411
L41.6186 -32.7999
L41.6004 -33.0583
L41.5821 -33.3164
L41.5635 -33.5742
L41.5446 -33.8319
L41.5255 -34.0894
L41.5062 -34.3467
L41.4666 -34.6041
L41.4464 -34.8614
L41.426 -35.1188
L41.4053 -35.3762
L41.3843 -35.6338
L41.363 -35.8916
L41.3414 -36.1496
L41.3195 -36.4079
L41.2973 -36.6666
L41.2748 -36.9257
L41.252 -37.1852
L41.2289 -37.4451
L41.2054 -37.7057
L41.1817 -37.9668
L41.1576 -38.2285
L41.1332 -38.491
L41.1085 -38.7541
L41.0834 -39.0181
L41.058 -39.2829
L41.0322 -39.5485
L41.0061 -39.8151
L40.9796 -40.0826
L40.9528 -40.3512
L40.9256 -40.6208
L40.8981 -40.8916
L40.8702 -41.1634
L40.842 -41.4365
L40.8133 -41.7108
L40.7844 -41.9864
L40.755 -42.2632
L40.7253 -42.5414
L40.6952 -42.821
L40.6648 -43.1021
L40.6341 -43.3845
L40.603 -43.6685
L40.5715 -43.9539
L40.5397 -44.2409
L40.5077 -44.5295
L40.4753 -44.8196
L40.4426 -45.1113
L40.4096 -45.4047
L40.3764 -45.6996
L40.343 -45.9962
L40.3094 -46.2945
L40.2756 -46.5943
L40.2416 -46.8958
L40.2076 -47.199
L40.1735 -47.5037
L40.1394 -47.81
L40.1054 -48.1179
L40.0715 -48.4273
L40.0377 -48.7382
L40.0043 -49.0505
L39.9711 -49.3642
L39.9384 -49.6792
L39.9063 -49.9955
L39.8748 -50.313
L39.8441 -50.6316
L39.8143 -50.9511
L39.7856 -51.2715
L39.7582 -51.5926
L39.7323 -51.9144
L39.7081 -52.2366
L39.6857 -52.5591
L39.6656 -52.8818
L39.6479 -53.2044
L39.6329 -53.5267
L39.6211 -53.8486
L39.6128 -54.1697
L39.6083 -54.4899
L39.6082 -54.8088
L39.6128 -55.1261
L39.6228 -55.4416
L39.6386 -55.7549
L39.6609 -56.0657
L39.6903 -56.3736
L39.7274 -56.6781
L39.773 -56.9789
L39.8278 -57.2755
L39.8926 -57.5676
L39.9681 -57.8544
L40.0552 -58.1357
L40.1546 -58.4109
L40.2672 -58.6793
L40.3936 -58.9406
L40.5345 -59.1941
L40.6907 -59.4393
L40.8627 -59.6756
L41.0509 -59.9025
L41.2557 -60.1194
L41.4773 -60.3259
L41.7159 -60.5214
L41.9715 -60.7055
L42.2437 -60.8777
L42.5324 -61.0376
L42.8371 -61.185
L43.1573 -61.3195
L43.4922 -61.4408
L43.8412 -61.5487
L44.2035 -61.6431
L44.5781 -61.7238
L44.9642 -61.7907
L45.3607 -61.8438
L45.7668 -61.8831
L46.1815 -61.9086
L46.6038 -61.9204
L47.0328 -61.9185
L47.4676 -61.9031
L47.9072 -61.8743
L48.3804 -61.8323
L48.8265 -61.6705
L49.2687 -61.4506
L49.7069 -61.2228
L50.1409 -60.9874
L50.5706 -60.7444
L50.9959 -60.4938
L51.4165 -60.2358
L51.8325 -59.9704
L52.2437 -59.6977
L52.6499 -59.4178
L53.0511 -59.1307
L53.447 -58.8366
L53.8377 -58.5355
L54.2229 -58.2276
L54.6025 -57.9129
L54.9765 -57.5916
L55.3447 -57.2636
L55.7071 -56.9292
L56.0634 -56.5884
L56.4136 -56.2413
L56.7576 -55.8881
L57.0952 -55.5288
L57.4265 -55.1635
L57.7512 -54.7925
L58.0693 -54.4157
L58.3806 -54.0332
L58.6852 -53.6453
L58.9828 -53.252
L59.2734 -52.8535
L59.557 -52.4498
L59.8334 -52.0412
L60.1025 -51.6276
L60.3642 -51.2093
L60.6186 -50.7863
L60.8654 -50.3588
L61.1047 -49.927
L61.3363 -49.4909
L61.5602 -49.0507
L61.7763 -48.6065
L61.9846 -48.1585
L62.185 -47.7068
L62.3773 -47.2515
L62.5617 -46.7928
L62.7379 -46.3308
L62.9061 -45.8657
L63.066 -45.3976
L63.2176 -44.9266
L63.361 -44.4528
L63.4961 -43.9765
L63.6227 -43.4978
L63.741 -43.0168
L63.8508 -42.5336
L63.9521 -42.0485
L64.0449 -41.5615
L64.1292 -41.0728
L64.2049 -40.5826
L64.272 -40.091
L64.3304 -39.5981
L64.3803 -39.1042
L64.4215 -38.6093
L64.4541 -38.1136
L64.478 -37.6172
L64.4932 -37.1204
L64.4997 -36.6232
L64.4976 -36.1258
L64.4868 -35.6284
L64.4672 -35.1311
L64.4391 -34.6341
L64.4022 -34.1375
L64.3567 -33.6414
L64.3026 -33.1461
L64.2399 -32.6516
L64.1685 -32.1582
L64.0886 -31.6659
L64.0001 -31.175
L63.9031 -30.6855
L63.7976 -30.1976
L63.6836 -29.7116
L63.5612 -29.2274
L63.4304 -28.7453
L63.2912 -28.2654
L63.1437 -27.7878
L62.988 -27.3128
L62.824 -26.8404
L62.6519 -26.3708
L62.4716 -25.9041
L62.2833 -25.4405
L62.087 -24.9801
L61.8827 -24.5231
L61.6705 -24.0695
L61.4506 -23.6196
L61.2228 -23.1735
L60.9874 -22.7313
L60.7444 -22.2931
L60.4938 -21.8591
L60.2358 -21.4294
L59.9704 -21.0041
L59.6977 -20.5835
L59.4178 -20.1675
L59.1307 -19.7563
L58.8366 -19.3501
L58.5355 -18.9489
L58.2276 -18.553
L57.9129 -18.1623
L57.5916 -17.7771
L57.2636 -17.3975
L56.9292 -17.0235
L56.5884 -16.6553
L56.2413 -16.2929
L55.8881 -15.9366
L55.5288 -15.5864
L55.1635 -15.2424
L54.7925 -14.9048
L54.4157 -14.5735
L54.0332 -14.2488
L53.6453 -13.9307
L53.252 -13.6194
L52.8535 -13.3148
L52.4498 -13.0172
L52.0412 -12.7266
L51.6276 -12.443
L51.2093 -12.1666
L50.7863 -11.8975
L50.3588 -11.6358
L49.927 -11.3814
L49.4909 -11.1346
L49.0507 -10.8953
L48.6065 -10.6637
L48.1585 -10.4398
L47.7068 -10.2237
z
" id="C0_1_004f6c39df"/>
     <path d="
M23.7212 -10.3734
L23.3976 -10.6833
L23.0762 -10.9967
L22.7574 -11.3133
L22.4418 -11.6329
L22.1299 -11.9554
L21.822 -12.2806
L21.5185 -12.6082
L21.2196 -12.9381
L20.9258 -13.2701
L20.6371 -13.6039
L20.3538 -13.9395
L20.0761 -14.2765
L19.804 -14.6148
L19.5378 -14.9542
L19.2773 -15.2946
L19.0228 -15.6359
L18.7743 -15.9777
L18.5317 -16.32
L18.2951 -16.6627
L18.0644 -17.0056
L17.8397 -17.3486
L17.6209 -17.6916
L17.4079 -18.0345
L17.2008 -18.3771
L16.9994 -18.7194
L16.8037 -19.0612
L16.6137 -19.4026
L16.4291 -19.7435
L16.25 -20.0837
L16.0763 -20.4233
L15.9079 -20.7621
L15.7446 -21.1001
L15.5865 -21.4374
L15.4334 -21.7738
L15.2852 -22.1093
L15.1419 -22.4439
L15.0034 -22.7777
L14.8695 -23.1105
L14.7402 -23.4424
L14.6154 -23.7733
L14.495 -24.1034
L14.3789 -24.4325
L14.2671 -24.7607
L14.1595 -25.0879
L14.056 -25.4143
L13.9565 -25.7398
L13.8609 -26.0645
L13.7693 -26.3883
L13.6814 -26.7112
L13.5973 -27.0334
L13.5169 -27.3549
L13.4401 -27.6756
L13.3669 -27.9956
L13.2973 -28.3149
L13.231 -28.6336
L13.1683 -28.9517
L13.1088 -29.2693
L13.0528 -29.5863
L13 -29.9029
L12.9505 -30.219
L12.9041 -30.5347
L12.861 -30.85
L12.8211 -31.1651
L12.7842 -31.4799
L12.7505 -31.7944
L12.7198 -32.1088
L12.6922 -32.4231
L12.6677 -32.7372
L12.6462 -33.0513
L12.6277 -33.3655
L12.6123 -33.6797
L12.5998 -33.9939
L12.5903 -34.3084
L12.5839 -34.623
L12.5804 -34.9379
L12.58 -35.253
L12.5826 -35.5685
L12.5882 -35.8844
L12.5968 -36.2007
L12.6085 -36.5175
L12.6233 -36.8348
L12.6411 -37.1527
L12.6621 -37.4712
L12.6862 -37.7904
L12.7135 -38.1103
L12.7439 -38.4309
L12.7776 -38.7523
L12.8146 -39.0745
L12.8548 -39.3976
L12.8984 -39.7217
L12.9454 -40.0467
L12.9959 -40.3726
L13.0498 -40.6996
L13.1072 -41.0277
L13.1682 -41.3568
L13.2329 -41.6871
L13.3012 -42.0185
L13.3733 -42.3512
L13.4493 -42.685
L13.5291 -43.02
L13.6129 -43.3563
L13.7006 -43.6939
L13.7925 -44.0327
L13.8886 -44.3729
L13.9888 -44.7143
L14.0934 -45.057
L14.2024 -45.4011
L14.3158 -45.7464
L14.4338 -46.093
L14.5564 -46.4409
L14.6837 -46.7901
L14.8157 -47.1405
L14.9526 -47.4921
L15.0945 -47.8449
L15.2413 -48.1988
L15.3932 -48.5538
L15.5502 -48.9099
L15.7123 -49.2669
L15.8798 -49.6248
L16.0525 -49.9836
L16.2306 -50.3431
L16.4141 -50.7033
L16.6029 -51.064
L16.7972 -51.4252
L16.9969 -51.7868
L17.2021 -52.1486
L17.4127 -52.5105
L17.6286 -52.8723
L17.8499 -53.234
L18.0764 -53.5953
L18.308 -53.9562
L18.5447 -54.3163
L18.7863 -54.6757
L19.0325 -55.034
L19.2833 -55.391
L19.5383 -55.7467
L19.7972 -56.1008
L20.0598 -56.4531
L20.3257 -56.8033
L20.5945 -57.1514
L20.8656 -57.4971
L21.1387 -57.8402
L21.4131 -58.1804
L21.6882 -58.5177
L21.9634 -58.8519
L22.2378 -59.1827
L22.5108 -59.51
L22.7814 -59.8337
L23.0489 -60.1537
L23.3121 -60.4698
L23.5702 -60.7819
L23.8222 -61.0899
L24.0669 -61.3939
L24.3034 -61.6937
L24.0401 -61.9893
L23.5904 -61.8691
L23.1445 -61.6564
L22.7026 -61.4359
L22.2647 -61.2077
L21.8309 -60.9718
L21.4015 -60.7283
L20.9766 -60.4772
L20.5562 -60.2187
L20.1405 -59.9528
L19.7297 -59.6797
L19.3238 -59.3993
L18.9229 -59.1117
L18.5273 -58.8172
L18.137 -58.5157
L17.7522 -58.2073
L17.3729 -57.8922
L16.9993 -57.5704
L16.6314 -57.242
L16.2695 -56.9072
L15.9136 -56.5659
L15.5638 -56.2185
L15.2202 -55.8648
L14.883 -55.5051
L14.5522 -55.1395
L14.2279 -54.7681
L13.9102 -54.3909
L13.5993 -54.0081
L13.2952 -53.6198
L12.998 -53.2262
L12.7079 -52.8273
L12.4248 -52.4233
L12.1489 -52.0143
L11.8802 -51.6004
L11.619 -51.1818
L11.3651 -50.7585
L11.1187 -50.3308
L10.88 -49.8987
L10.6488 -49.4623
L10.4254 -49.0219
L10.2098 -48.5774
L10.0021 -48.1292
L9.80224 -47.6772
L9.61038 -47.2217
L9.42657 -46.7628
L9.25084 -46.3006
L9.08327 -45.8353
L8.92389 -45.3669
L8.77276 -44.8957
L8.62993 -44.4219
L8.49543 -43.9454
L8.36931 -43.4665
L8.25161 -42.9853
L8.14236 -42.5021
L8.04159 -42.0168
L7.94935 -41.5297
L7.86564 -41.0409
L7.79051 -40.5506
L7.72397 -40.0589
L7.66604 -39.5659
L7.61674 -39.0719
L7.57609 -38.577
L7.5441 -38.0812
L7.52077 -37.5848
L7.50612 -37.088
L7.50015 -36.5908
L7.50286 -36.0934
L7.51426 -35.596
L7.53432 -35.0987
L7.56306 -34.6017
L7.60046 -34.1051
L7.64652 -33.6091
L7.70121 -33.1138
L7.76452 -32.6194
L7.83643 -32.1261
L7.91691 -31.6339
L8.00596 -31.143
L8.10353 -30.6536
L8.2096 -30.1659
L8.32413 -29.6799
L8.44709 -29.1959
L8.57845 -28.7139
L8.71816 -28.2341
L8.86618 -27.7568
L9.02246 -27.2819
L9.18697 -26.8097
L9.35964 -26.3402
L9.54042 -25.8737
L9.72927 -25.4104
L9.92611 -24.9502
L10.1309 -24.4934
L10.3436 -24.0401
L10.5641 -23.5904
L10.7923 -23.1445
L11.0282 -22.7026
L11.2717 -22.2647
L11.5228 -21.8309
L11.7813 -21.4015
L12.0472 -20.9766
L12.3203 -20.5562
L12.6007 -20.1405
L12.8883 -19.7297
L13.1828 -19.3238
L13.4843 -18.9229
L13.7927 -18.5273
L14.1078 -18.137
L14.4296 -17.7522
L14.758 -17.3729
L15.0928 -16.9993
L15.4341 -16.6314
L15.7815 -16.2695
L16.1352 -15.9136
L16.4949 -15.5638
L16.8605 -15.2202
L17.2319 -14.883
L17.6091 -14.5522
L17.9919 -14.2279
L18.3802 -13.9102
L18.7738 -13.5993
L19.1727 -13.2952
L19.5767 -12.998
L19.9857 -12.7079
L20.3996 -12.4248
L20.8182 -12.1489
L21.2415 -11.8802
L21.6692 -11.619
L22.1013 -11.3651
L22.5377 -11.1187
L22.9781 -10.88
z
" id="C0_2_4652956257"/>
    </defs>
    <g clip-path="url(#p1bffca34e9)">
     <use style="fill:#ff0000;stroke:#000000;stroke-width:2.0;" x="0.0" xlink:href="#C0_0_a811fe30f3" y="72.0"/>
    </g>
    <g clip-path="url(#p1bffca34e9)">
     <use style="fill:#ffffff;stroke:#000000;stroke-width:2.0;" x="0.0" xlink:href="#C0_1_004f6c39df" y="72.0"/>
    </g>
    <g clip-path="url(#p1bffca34e9)">
     <use style="fill:#ffffff;stroke:#000000;stroke-width:2.0;" x="0.0" xlink:href="#C0_2_4652956257" y="72.0"/>
    </g>
   </g>
  </g>
 </g>
 <defs>
  <clipPath id="p1bffca34e9">
   <rect height="72.0" width="72.0" x="0.0" y="0.0"/>
  </clipPath>
 </defs>
</svg>
