<?xml version="1.0" encoding="utf-8" standalone="no"?>
<!DOCTYPE svg PUBLIC "-//W3C//DTD SVG 1.1//EN"
  "http://www.w3.org/Graphics/SVG/1.1/DTD/svg11.dtd">
<!-- Created with matplotlib (http://matplotlib.org/) -->
<svg height="72pt" version="1.1" viewBox="0 0 72 72" width="72pt" xmlns="http://www.w3.org/2000/svg" xmlns:xlink="http://www.w3.org/1999/xlink">
 <defs>
  <style type="text/css">
*{stroke-linecap:butt;stroke-linejoin:round;}
  </style>
 </defs>
 <g id="figure_1">
  <g id="patch_1">
   <path d="
M0 72
L72 72
L72 0
L0 0
z
" style="fill:none;"/>
  </g>
  <g id="axes_1">
   <g id="PatchCollection_1">
    <defs>
     <path d="
M36 -7.5
C43.5583 -7.5 50.808 -10.5029 56.1525 -15.8475
C61.4971 -21.192 64.5 -28.4417 64.5 -36
C64.5 -43.5583 61.4971 -50.808 56.1525 -56.1525
C50.808 -61.4971 43.5583 -64.5 36 -64.5
C28.4417 -64.5 21.192 -61.4971 15.8475 -56.1525
C10.5029 -50.808 7.5 -43.5583 7.5 -36
C7.5 -28.4417 10.5029 -21.192 15.8475 -15.8475
C21.192 -10.5029 28.4417 -7.5 36 -7.5
z
" id="C0_0_a811fe30f3"/>
     <path d="
M64.0173 -31.4484
L63.9471 -31.8531
L63.8678 -32.2516
L63.7799 -32.6439
L63.6837 -33.0299
L63.5798 -33.4094
L63.4683 -33.7823
L63.3498 -34.1488
L63.2245 -34.5087
L63.0929 -34.862
L62.9551 -35.2088
L62.8116 -35.5491
L62.6626 -35.8829
L62.5084 -36.2102
L62.3494 -36.5311
L62.1857 -36.8458
L62.0177 -37.1542
L61.8455 -37.4564
L61.6695 -37.7525
L61.4897 -38.0426
L61.3065 -38.3268
L61.12 -38.6052
L60.9304 -38.8779
L60.7379 -39.1449
L60.5426 -39.4064
L60.3448 -39.6626
L60.1444 -39.9134
L59.9418 -40.159
L59.737 -40.3995
L59.5301 -40.635
L59.3212 -40.8655
L59.1105 -41.0913
L58.898 -41.3124
L58.6839 -41.5289
L58.4681 -41.7409
L58.2509 -41.9484
L58.0322 -42.1517
L57.8121 -42.3507
L57.5908 -42.5456
L57.3682 -42.7365
L57.1443 -42.9234
L56.9193 -43.1064
L56.6932 -43.2856
L56.466 -43.4611
L56.2377 -43.633
L56.0084 -43.8013
L55.7781 -43.9662
L55.5469 -44.1276
L55.3146 -44.2857
L55.0814 -44.4405
L54.8473 -44.592
L54.6122 -44.7405
L54.3762 -44.8858
L54.1393 -45.028
L53.9015 -45.1673
L53.6628 -45.3037
L53.4231 -45.4372
L53.1825 -45.5678
L52.9409 -45.6956
L52.6984 -45.8207
L52.455 -45.9431
L52.2106 -46.0628
L51.9652 -46.1799
L51.7187 -46.2943
L51.4713 -46.4063
L50.9733 -46.5156
L50.7227 -46.6225
L50.471 -46.7268
L50.2182 -46.8288
L49.9642 -46.9282
L49.7091 -47.0253
L49.4527 -47.1199
L49.1952 -47.2121
L48.9364 -47.302
L48.6763 -47.3895
L48.4149 -47.4746
L48.1521 -47.5574
L47.888 -47.6378
L47.6226 -47.7159
L47.3556 -47.7916
L47.0873 -47.8649
L46.8175 -47.9359
L46.5461 -48.0045
L46.2733 -48.0707
L45.9988 -48.1345
L45.7228 -48.1959
L45.4452 -48.2549
L45.1659 -48.3114
L44.885 -48.3654
L44.6023 -48.417
L44.318 -48.466
L44.0319 -48.5124
L43.744 -48.5562
L43.4544 -48.5974
L43.1629 -48.636
L42.8697 -48.6718
L42.5746 -48.7048
L42.2777 -48.7351
L41.979 -48.7625
L41.6784 -48.787
L41.376 -48.8085
L41.0717 -48.827
L40.7655 -48.8423
L40.4575 -48.8546
L40.1477 -48.8636
L39.8361 -48.8693
L39.5227 -48.8716
L39.2076 -48.8705
L38.8907 -48.8658
L38.5721 -48.8576
L38.2519 -48.8456
L37.9301 -48.8298
L37.6068 -48.8101
L37.282 -48.7864
L36.9558 -48.7586
L36.6284 -48.7267
L36.2997 -48.6904
L35.9699 -48.6497
L35.6391 -48.6045
L35.3075 -48.5546
L34.9751 -48.5
L34.6421 -48.4405
L34.3087 -48.3759
L33.975 -48.3063
L33.6413 -48.2313
L33.3077 -48.151
L32.9744 -48.0652
L32.6417 -47.9737
L32.3098 -47.8764
L31.979 -47.7733
L31.6495 -47.664
L31.3216 -47.5486
L30.9957 -47.4269
L30.672 -47.2987
L30.3509 -47.164
L30.0327 -47.0225
L29.7178 -46.8743
L29.4066 -46.7192
L29.0994 -46.557
L28.7966 -46.3877
L28.4988 -46.2112
L28.2062 -46.0273
L27.9193 -45.8362
L27.6385 -45.6376
L27.3643 -45.4315
L27.0971 -45.2179
L26.8372 -44.9969
L26.5851 -44.7683
L26.3412 -44.5323
L26.1059 -44.2889
L25.8795 -44.0382
L25.6623 -43.7802
L25.4546 -43.5151
L25.2568 -43.2431
L25.0691 -42.9642
L24.8916 -42.6788
L24.7246 -42.387
L24.5682 -42.0891
L24.4225 -41.7853
L24.2874 -41.476
L24.1632 -41.1614
L24.0496 -40.8419
L23.9468 -40.5179
L23.8545 -40.1896
L23.7727 -39.8574
L23.7013 -39.5217
L23.64 -39.1829
L23.5886 -38.8413
L23.547 -38.4973
L23.5149 -38.1513
L23.4921 -37.8036
L23.4783 -37.4546
L23.4733 -37.1045
L23.4768 -36.7538
L23.4884 -36.4028
L23.508 -36.0518
L23.5353 -35.7009
L23.57 -35.3507
L23.6118 -35.0012
L23.6604 -34.6527
L23.7156 -34.3055
L23.7771 -33.9598
L23.8447 -33.6158
L23.918 -33.2737
L23.997 -32.9336
L24.0813 -32.5957
L24.1707 -32.2602
L24.265 -31.9272
L24.364 -31.5968
L24.4675 -31.2691
L24.5752 -30.9442
L24.6871 -30.6223
L24.8028 -30.3033
L24.9223 -29.9874
L25.0454 -29.6745
L25.1719 -29.3649
L25.3017 -29.0584
L25.4346 -28.7552
L25.5705 -28.4553
L25.7093 -28.1586
L25.8508 -27.8652
L25.995 -27.5752
L26.1416 -27.2885
L26.2907 -27.005
L26.4422 -26.7249
L26.5958 -26.4481
L26.7516 -26.1745
L26.9095 -25.9043
L27.0694 -25.6372
L27.2312 -25.3734
L27.3948 -25.1128
L27.5603 -24.8554
L27.7275 -24.6011
L27.8964 -24.35
L28.0669 -24.1019
L28.239 -23.8569
L28.4127 -23.6149
L28.588 -23.3759
L28.7647 -23.1399
L28.9429 -22.9067
L29.1226 -22.6765
L29.3036 -22.449
L29.4861 -22.2244
L29.6699 -22.0026
L29.8552 -21.7835
L30.0418 -21.5671
L30.2297 -21.3534
L30.419 -21.1423
L30.6097 -20.9338
L30.8017 -20.7278
L30.995 -20.5244
L31.1897 -20.3235
L31.3858 -20.1251
L31.5833 -19.9291
L31.7821 -19.7356
L31.9823 -19.5444
L32.1839 -19.3556
L32.387 -19.1691
L32.5915 -18.9849
L32.7974 -18.803
L33.0049 -18.6235
L33.2138 -18.4461
L33.4243 -18.271
L33.6364 -18.0981
L33.85 -17.9275
L34.0653 -17.759
L34.2822 -17.5928
L34.5008 -17.4287
L34.7211 -17.2668
L34.9431 -17.107
L35.167 -16.9495
L35.3926 -16.7941
L35.6202 -16.6409
L35.8496 -16.4899
L36.0809 -16.341
L36.3143 -16.1944
L36.5497 -16.05
L36.7871 -15.9078
L37.0267 -15.7679
L37.2684 -15.6303
L37.5124 -15.4949
L37.7586 -15.3619
L38.0071 -15.2312
L38.258 -15.103
L38.5112 -14.9771
L38.767 -14.8538
L39.0252 -14.7329
L39.286 -14.6147
L39.5494 -14.499
L39.8155 -14.3861
L40.0842 -14.2758
L40.3558 -14.1684
L40.6301 -14.0639
L40.9073 -13.9623
L41.1875 -13.8638
L41.4706 -13.7684
L41.7567 -13.6762
L42.0459 -13.5874
L42.3382 -13.5019
L42.6336 -13.42
L42.9323 -13.3417
L43.2341 -13.2672
L43.5393 -13.1966
L43.8478 -13.13
L44.1596 -13.0676
L44.4748 -13.0095
L44.7934 -12.9559
L45.1154 -12.9069
L45.4409 -12.8627
L45.7698 -12.8235
L46.1021 -12.7895
L46.4379 -12.7608
L46.7772 -12.7378
L47.1199 -12.7204
L47.466 -12.7091
L47.8155 -12.704
L48.1683 -12.7054
L48.5244 -12.7134
L48.8837 -12.7284
L49.2461 -12.7506
L49.6115 -12.7803
L49.9799 -12.8177
L50.3511 -12.8631
L50.725 -12.9168
L51.1014 -12.979
L51.4802 -13.0502
L51.861 -13.1304
L52.2438 -13.2202
L52.6283 -13.3197
L53.0143 -13.4292
L53.4013 -13.5491
L53.7892 -13.6796
L54.2172 -13.821
L54.5969 -14.0823
L54.971 -14.4036
L55.3393 -14.7314
L55.7017 -15.0658
L56.0581 -15.4065
L56.4084 -15.7535
L56.7525 -16.1066
L57.0902 -16.4658
L57.4216 -16.831
L57.7464 -17.202
L58.0646 -17.5787
L58.376 -17.961
L58.6807 -18.3488
L58.9784 -18.742
L59.2692 -19.1405
L59.5528 -19.5441
L59.8293 -19.9527
L60.0985 -20.3662
L60.3604 -20.7845
L60.6148 -21.2074
L60.8618 -21.6348
L61.1012 -22.0665
L61.3329 -22.5026
L61.5569 -22.9427
L61.7732 -23.3868
L61.9816 -23.8348
L62.182 -24.2864
L62.3745 -24.7416
L62.559 -25.2003
L62.7354 -25.6622
L62.9036 -26.1273
L63.0636 -26.5954
L63.2154 -27.0664
L63.3589 -27.5401
L63.4941 -28.0163
L63.6209 -28.495
L63.7393 -28.976
L63.8492 -29.4591
L63.9506 -29.9443
L64.0436 -30.4312
z
" id="C0_1_057e0c529a"/>
     <path d="
M17.897 -57.9361
L17.6705 -57.5839
L17.446 -57.2289
L17.2232 -56.8713
L17.002 -56.5113
L16.7824 -56.149
L16.5642 -55.7846
L16.3472 -55.4183
L16.1312 -55.0502
L15.9162 -54.6807
L15.7019 -54.3098
L15.4882 -53.9378
L15.2749 -53.5648
L15.0618 -53.1911
L14.8487 -52.8168
L14.6356 -52.442
L14.4222 -52.067
L14.2084 -51.6918
L13.994 -51.3167
L13.7791 -50.9418
L13.5634 -50.5671
L13.3469 -50.1927
L13.1296 -49.8188
L12.9114 -49.4454
L12.6924 -49.0725
L12.4725 -48.7002
L12.2519 -48.3284
L12.0307 -47.9573
L11.8088 -47.5866
L11.5866 -47.2166
L11.3641 -46.847
L11.1415 -46.4778
L10.9191 -46.1091
L10.697 -45.7407
L10.4754 -45.3726
L10.2546 -45.0048
L10.0349 -44.6371
L9.81644 -44.2695
L9.59952 -43.902
L9.38438 -43.5344
L9.17127 -43.1668
L8.96041 -42.7991
L8.75206 -42.4313
L8.54643 -42.0632
L8.34374 -41.6949
L8.14421 -41.3264
L8.02575 -40.9576
L8.12511 -41.449
L8.23296 -41.9364
L8.34926 -42.4219
L8.47399 -42.9056
L8.60711 -43.3871
L8.74857 -43.8664
L8.89833 -44.3432
L9.05634 -44.8176
L9.22257 -45.2892
L9.39695 -45.758
L9.57943 -46.2239
L9.76996 -46.6866
L9.96848 -47.1461
L10.1749 -47.6022
L10.3892 -48.0547
L10.6114 -48.5036
L10.8412 -48.9486
L11.0787 -49.3898
L11.3238 -49.8268
L11.5765 -50.2596
L11.8365 -50.6881
L12.1039 -51.1121
L12.3787 -51.5315
L12.6605 -51.9462
L12.9496 -52.356
L13.2456 -52.7609
L13.5485 -53.1606
L13.8583 -53.5551
L14.1749 -53.9443
L14.4981 -54.328
L14.8278 -54.7061
L15.164 -55.0785
L15.5065 -55.4451
L15.8553 -55.8058
L16.2102 -56.1604
L16.5712 -56.5089
L16.938 -56.8512
L17.3107 -57.1871
z
" id="C0_2_a65fcdda20"/>
    </defs>
    <g clip-path="url(#p1bffca34e9)">
     <use style="fill:#ff0000;stroke:#000000;stroke-width:2.0;" x="0.0" xlink:href="#C0_0_a811fe30f3" y="72.0"/>
    </g>
    <g clip-path="url(#p1bffca34e9)">
     <use style="fill:#ffffff;stroke:#000000;stroke-width:2.0;" x="0.0" xlink:href="#C0_1_057e0c529a" y="72.0"/>
    </g>
    <g clip-path="url(#p1bffca34e9)">
     <use style="fill:#ffffff;stroke:#000000;stroke-width:2.0;" x="0.0" xlink:href="#C0_2_a65fcdda20" y="72.0"/>
    </g>
   </g>
  </g>
 </g>
 <defs>
  <clipPath id="p1bffca34e9">
   <rect height="72.0" width="72.0" x="0.0" y="0.0"/>
  </clipPath>
 </defs>
</svg>
