<?xml version="1.0" encoding="utf-8" standalone="no"?>
<!DOCTYPE svg PUBLIC "-//W3C//DTD SVG 1.1//EN"
  "http://www.w3.org/Graphics/SVG/1.1/DTD/svg11.dtd">
<!-- Created with matplotlib (http://matplotlib.org/) -->
<svg height="72pt" version="1.1" viewBox="0 0 72 72" width="72pt" xmlns="http://www.w3.org/2000/svg" xmlns:xlink="http://www.w3.org/1999/xlink">
 <defs>
  <style type="text/css">
*{stroke-linecap:butt;stroke-linejoin:round;}
  </style>
 </defs>
 <g id="figure_1">
  <g id="patch_1">
   <path d="
M0 72
L72 72
L72 0
L0 0
z
" style="fill:none;"/>
  </g>
  <g id="axes_1">
   <g id="PatchCollection_1">
    <defs>
     <path d="
M36 -7.5
C43.5583 -7.5 50.808 -10.5029 56.1525 -15.8475
C61.4971 -21.192 64.5 -28.4417 64.5 -36
C64.5 -43.5583 61.4971 -50.808 56.1525 -56.1525
C50.808 -61.4971 43.5583 -64.5 36 -64.5
C28.4417 -64.5 21.192 -61.4971 15.8475 -56.1525
C10.5029 -50.808 7.5 -43.5583 7.5 -36
C7.5 -28.4417 10.5029 -21.192 15.8475 -15.8475
C21.192 -10.5029 28.4417 -7.5 36 -7.5
z
" id="C0_0_a811fe30f3"/>
     <path d="
M22.2635 -27.8466
L22.2704 -28.128
L22.2808 -28.4092
L22.2945 -28.6904
L22.3115 -28.9715
L22.332 -29.2524
L22.3557 -29.5333
L22.3828 -29.8139
L22.4133 -30.0945
L22.4471 -30.3748
L22.4842 -30.655
L22.5246 -30.9351
L22.5684 -31.2149
L22.6154 -31.4945
L22.6659 -31.7738
L22.7196 -32.053
L22.7767 -32.3318
L22.8372 -32.6104
L22.901 -32.8887
L22.9682 -33.1667
L23.0387 -33.4443
L23.1127 -33.7216
L23.19 -33.9985
L23.2708 -34.275
L23.355 -34.551
L23.4427 -34.8266
L23.5338 -35.1016
L23.6285 -35.3761
L23.7266 -35.65
L23.8282 -35.9234
L23.9334 -36.196
L24.0422 -36.468
L24.1545 -36.7392
L24.2705 -37.0097
L24.3901 -37.2793
L24.5133 -37.548
L24.6402 -37.8157
L24.7708 -38.0825
L24.9051 -38.3481
L25.0432 -38.6127
L25.185 -38.876
L25.3306 -39.138
L25.48 -39.3987
L25.6333 -39.658
L25.7904 -39.9158
L25.9513 -40.1719
L26.1162 -40.4264
L26.2849 -40.6791
L26.4575 -40.93
L26.6341 -41.1789
L26.8147 -41.4257
L26.9992 -41.6703
L27.1876 -41.9126
L27.38 -42.1526
L27.5764 -42.39
L27.7768 -42.6248
L27.9812 -42.8568
L28.1895 -43.086
L28.4018 -43.3121
L28.6181 -43.5351
L28.8384 -43.7548
L29.0625 -43.9712
L29.2906 -44.1839
L29.5226 -44.393
L29.7585 -44.5982
L29.9982 -44.7994
L30.2417 -44.9965
L30.489 -45.1894
L30.74 -45.3778
L30.9947 -45.5616
L31.253 -45.7407
L31.5149 -45.915
L31.7802 -46.0842
L32.049 -46.2483
L32.3212 -46.4071
L32.5967 -46.5604
L32.8753 -46.7082
L33.1571 -46.8502
L33.4418 -46.9864
L33.7295 -47.1166
L34.02 -47.2407
L34.3132 -47.3586
L34.609 -47.4702
L34.9072 -47.5754
L35.2078 -47.674
L35.5105 -47.766
L35.8154 -47.8512
L36.1222 -47.9297
L36.4308 -48.0014
L36.7411 -48.0661
L37.0528 -48.1239
L37.3659 -48.1746
L37.6802 -48.2183
L37.9956 -48.2549
L38.3119 -48.2844
L38.6288 -48.3068
L38.9464 -48.3221
L39.2644 -48.3303
L39.5826 -48.3314
L39.9009 -48.3254
L40.2192 -48.3124
L40.5372 -48.2924
L40.8549 -48.2655
L41.172 -48.2317
L41.4884 -48.191
L41.804 -48.1436
L42.1186 -48.0896
L42.432 -48.0289
L42.7442 -47.9617
L43.055 -47.8881
L43.3642 -47.8082
L43.6717 -47.722
L43.9774 -47.6297
L44.2812 -47.5314
L44.583 -47.4272
L44.8825 -47.3172
L45.1798 -47.2015
L45.4747 -47.0803
L45.7671 -46.9536
L46.057 -46.8215
L46.3441 -46.6843
L46.6285 -46.542
L46.9101 -46.3947
L47.1887 -46.2425
L47.4643 -46.0856
L47.7369 -45.9241
L48.0063 -45.7581
L48.2725 -45.5877
L48.5355 -45.4131
L48.7951 -45.2343
L49.0514 -45.0514
L49.3043 -44.8646
L49.5538 -44.6739
L49.7997 -44.4796
L50.0421 -44.2816
L50.281 -44.08
L50.5163 -43.8751
L50.7479 -43.6668
L50.9759 -43.4553
L51.2002 -43.2406
L51.4209 -43.0228
L51.6378 -42.8021
L51.851 -42.5784
L52.0605 -42.352
L52.2662 -42.1227
L52.4681 -41.8909
L52.6662 -41.6564
L52.8606 -41.4194
L53.0512 -41.1799
L53.2379 -40.938
L53.4209 -40.6937
L53.6 -40.4472
L53.7753 -40.1985
L53.9468 -39.9476
L54.1144 -39.6945
L54.2782 -39.4394
L54.4381 -39.1822
L54.5942 -38.9231
L54.7465 -38.662
L54.8949 -38.3991
L55.0394 -38.1343
L55.18 -37.8676
L55.3168 -37.5992
L55.4497 -37.329
L55.5787 -37.0571
L55.7038 -36.7835
L55.825 -36.5082
L55.9423 -36.2313
L56.0556 -35.9529
L56.165 -35.6728
L56.2705 -35.3912
L56.372 -35.108
L56.4695 -34.8233
L56.563 -34.5372
L56.6525 -34.2496
L56.7379 -33.9605
L56.8193 -33.67
L56.8966 -33.3781
L56.9699 -33.0848
L57.0389 -32.7901
L57.1039 -32.4941
L57.1646 -32.1968
L57.2211 -31.8981
L57.2734 -31.5982
L57.3214 -31.2969
L57.3651 -30.9944
L57.4044 -30.6907
L57.4393 -30.3857
L57.4698 -30.0796
L57.4958 -29.7723
L57.5173 -29.4638
L57.5342 -29.1542
L57.5465 -28.8434
L57.5541 -28.5316
L57.557 -28.2188
L57.5551 -27.9049
L57.5484 -27.59
L57.5368 -27.2742
L57.5202 -26.9575
L57.4986 -26.6398
L57.4719 -26.3213
L57.4401 -26.002
L57.4031 -25.682
L57.3608 -25.3612
L57.3131 -25.0397
L57.26 -24.7177
L57.2014 -24.3951
L57.1372 -24.072
L57.0674 -23.7484
L56.9918 -23.4245
L56.9105 -23.1003
L56.8232 -22.7759
L56.73 -22.4514
L56.6308 -22.1268
L56.5254 -21.8023
L56.4139 -21.4779
L56.296 -21.1537
L56.1719 -20.8299
L56.0412 -20.5065
L55.9041 -20.1837
L55.7604 -19.8616
L55.6101 -19.5403
L55.453 -19.22
L55.2891 -18.9008
L55.1184 -18.5828
L54.9407 -18.2662
L54.7561 -17.9512
L54.5645 -17.6379
L54.3657 -17.3266
L54.1599 -17.0173
L53.9468 -16.7102
L53.7266 -16.4057
L53.4992 -16.1037
L53.2645 -15.8047
L53.0226 -15.5087
L52.7734 -15.2161
L52.517 -14.9269
L52.2534 -14.6415
L51.9826 -14.3601
L51.7046 -14.0829
L51.4195 -13.8102
L51.1273 -13.5422
L50.8282 -13.2792
L50.5222 -13.0214
L50.2094 -12.769
L49.8899 -12.5224
L49.5638 -12.2818
L49.2313 -12.0474
L48.8926 -11.8195
L48.5477 -11.5983
L48.197 -11.3842
L47.8405 -11.1773
L47.4786 -10.9779
L47.1113 -10.7862
L46.739 -10.6025
L46.362 -10.427
L45.9804 -10.2598
L45.5946 -10.1013
L45.2049 -9.95152
L44.8115 -9.81072
L44.4148 -9.67906
L44.015 -9.55669
L43.6127 -9.44375
L43.208 -9.34037
L42.8013 -9.24665
L42.393 -9.16269
L41.9834 -9.08857
L41.5729 -9.02434
L41.1619 -8.97005
L40.7507 -8.92572
L40.3396 -8.89137
L39.9291 -8.86697
L39.5194 -8.85251
L39.111 -8.84793
L38.7041 -8.85319
L38.2991 -8.86819
L37.8964 -8.89285
L37.4962 -8.92706
L37.0989 -8.9707
L36.7047 -9.02363
L36.3139 -9.0857
L35.9268 -9.15676
L35.5437 -9.23663
L35.1647 -9.32513
L34.7902 -9.42208
L34.4204 -9.52727
L34.0553 -9.64049
L33.6953 -9.76155
L33.3405 -9.89022
L32.9911 -10.0263
L32.6471 -10.1695
L32.3088 -10.3197
L31.9762 -10.4766
L31.6495 -10.6399
L31.3287 -10.8096
L31.0139 -10.9852
L30.7052 -11.1667
L30.4027 -11.3538
L30.1063 -11.5462
L29.8161 -11.7437
L29.5322 -11.9462
L29.2545 -12.1534
L28.9831 -12.3651
L28.7179 -12.5811
L28.4589 -12.8012
L28.2062 -13.0252
L27.9597 -13.2529
L27.7194 -13.4841
L27.4851 -13.7188
L27.257 -13.9566
L27.0349 -14.1974
L26.8189 -14.4411
L26.6087 -14.6875
L26.4045 -14.9365
L26.2061 -15.1878
L26.0134 -15.4415
L25.8265 -15.6973
L25.6452 -15.9551
L25.4694 -16.2148
L25.2992 -16.4762
L25.1344 -16.7394
L24.975 -17.0041
L24.8208 -17.2702
L24.6719 -17.5377
L24.5281 -17.8065
L24.3894 -18.0765
L24.2557 -18.3476
L24.127 -18.6196
L24.0031 -18.8927
L23.884 -19.1666
L23.7697 -19.4413
L23.66 -19.7168
L23.555 -19.9929
L23.4544 -20.2697
L23.3584 -20.5471
L23.2667 -20.8249
L23.1795 -21.1033
L23.0965 -21.3821
L23.0177 -21.6613
L22.9431 -21.9409
L22.8727 -22.2207
L22.8063 -22.5009
L22.744 -22.7813
L22.6856 -23.062
L22.6312 -23.3428
L22.5807 -23.6238
L22.534 -23.905
L22.4911 -24.1863
L22.4519 -24.4677
L22.4165 -24.7492
L22.3848 -25.0307
L22.3567 -25.3123
L22.3322 -25.594
L22.3113 -25.8756
L22.294 -26.1573
L22.2802 -26.4389
L22.27 -26.7205
L22.2632 -27.0021
L22.2598 -27.2837
z
" id="C0_1_8b4bc2e1d4"/>
    </defs>
    <g clip-path="url(#p1bffca34e9)">
     <use style="fill:#ff0000;stroke:#000000;stroke-width:2.0;" x="0.0" xlink:href="#C0_0_a811fe30f3" y="72.0"/>
    </g>
    <g clip-path="url(#p1bffca34e9)">
     <use style="fill:#ffffff;stroke:#000000;stroke-width:2.0;" x="0.0" xlink:href="#C0_1_8b4bc2e1d4" y="72.0"/>
    </g>
   </g>
  </g>
 </g>
 <defs>
  <clipPath id="p1bffca34e9">
   <rect height="72.0" width="72.0" x="0.0" y="0.0"/>
  </clipPath>
 </defs>
</svg>
