<?xml version="1.0" encoding="utf-8" standalone="no"?>
<!DOCTYPE svg PUBLIC "-//W3C//DTD SVG 1.1//EN"
  "http://www.w3.org/Graphics/SVG/1.1/DTD/svg11.dtd">
<!-- Created with matplotlib (http://matplotlib.org/) -->
<svg height="72pt" version="1.1" viewBox="0 0 72 72" width="72pt" xmlns="http://www.w3.org/2000/svg" xmlns:xlink="http://www.w3.org/1999/xlink">
 <defs>
  <style type="text/css">
*{stroke-linecap:butt;stroke-linejoin:round;}
  </style>
 </defs>
 <g id="figure_1">
  <g id="patch_1">
   <path d="
M0 72
L72 72
L72 0
L0 0
z
" style="fill:none;"/>
  </g>
  <g id="axes_1">
   <g id="PatchCollection_1">
    <defs>
     <path d="
M36 -7.5
C43.5583 -7.5 50.808 -10.5029 56.1525 -15.8475
C61.4971 -21.192 64.5 -28.4417 64.5 -36
C64.5 -43.5583 61.4971 -50.808 56.1525 -56.1525
C50.808 -61.4971 43.5583 -64.5 36 -64.5
C28.4417 -64.5 21.192 -61.4971 15.8475 -56.1525
C10.5029 -50.808 7.5 -43.5583 7.5 -36
C7.5 -28.4417 10.5029 -21.192 15.8475 -15.8475
C21.192 -10.5029 28.4417 -7.5 36 -7.5
z
" id="C0_0_a811fe30f3"/>
     <path d="
M56.0238 -56.1132
L55.6791 -56.0284
L55.3373 -55.9369
L54.9984 -55.8393
L54.6625 -55.736
L54.3297 -55.6276
L53.9999 -55.5145
L53.6734 -55.3971
L53.35 -55.2757
L53.0298 -55.1507
L52.713 -55.0223
L52.3994 -54.8909
L52.0892 -54.7567
L51.7822 -54.62
L51.4787 -54.4809
L51.1785 -54.3398
L50.8816 -54.1968
L50.5881 -54.052
L50.2979 -53.9058
L50.011 -53.7581
L49.7273 -53.6092
L49.447 -53.4592
L49.1698 -53.3083
L48.8959 -53.1564
L48.6251 -53.0039
L48.3574 -52.8507
L48.0928 -52.6969
L47.8311 -52.5426
L47.5725 -52.3879
L47.3167 -52.2329
L47.0638 -52.0776
L46.8137 -51.9221
L46.5664 -51.7664
L46.3217 -51.6106
L46.0797 -51.4547
L45.8402 -51.2987
L45.6032 -51.1427
L45.3687 -50.9866
L45.1365 -50.8306
L44.9067 -50.6746
L44.6791 -50.5187
L44.4537 -50.3628
L44.2304 -50.207
L44.0092 -50.0512
L43.79 -49.8955
L43.5727 -49.7398
L43.3573 -49.5842
L43.1436 -49.4287
L42.9318 -49.2732
L42.7216 -49.1177
L42.513 -48.9623
L42.3061 -48.8069
L42.1006 -48.6514
L41.8965 -48.496
L41.6938 -48.3404
L41.4925 -48.1849
L41.2924 -48.0292
L41.0936 -47.8734
L40.8958 -47.7175
L40.6992 -47.5615
L40.5036 -47.4052
L40.309 -47.2487
L40.1154 -47.092
L39.9226 -46.9351
L39.7306 -46.7778
L39.5394 -46.6202
L39.3489 -46.4622
L39.159 -46.3039
L38.9698 -46.1451
L38.7811 -45.9858
L38.593 -45.8261
L38.4052 -45.6658
L38.2179 -45.5049
L37.8443 -45.3434
L37.6579 -45.1812
L37.4717 -45.0184
L37.2856 -44.8548
L37.0997 -44.6905
L36.9138 -44.5253
L36.7279 -44.3592
L36.542 -44.1923
L36.3561 -44.0244
L36.1699 -43.8555
L35.9836 -43.6855
L35.7971 -43.5145
L35.6103 -43.3423
L35.4232 -43.1689
L35.2358 -42.9943
L35.0479 -42.8183
L34.8596 -42.6411
L34.6708 -42.4624
L34.4814 -42.2822
L34.2915 -42.1006
L34.1009 -41.9173
L33.9096 -41.7325
L33.7177 -41.5459
L33.525 -41.3576
L33.3315 -41.1675
L33.1371 -40.9755
L32.9419 -40.7816
L32.7457 -40.5857
L32.5486 -40.3877
L32.3505 -40.1875
L32.1514 -39.9852
L31.9512 -39.7806
L31.7499 -39.5737
L31.5475 -39.3644
L31.3439 -39.1526
L31.1391 -38.9383
L30.933 -38.7214
L30.7258 -38.5017
L30.5172 -38.2794
L30.3073 -38.0542
L30.0962 -37.826
L29.8836 -37.595
L29.6698 -37.3608
L29.4545 -37.1236
L29.238 -36.8832
L29.02 -36.6395
L28.8006 -36.3925
L28.5799 -36.1421
L28.3579 -35.8883
L28.1345 -35.6309
L27.9098 -35.3699
L27.6837 -35.1053
L27.4565 -34.837
L27.228 -34.5649
L26.9983 -34.2891
L26.7675 -34.0094
L26.5357 -33.7257
L26.3029 -33.4382
L26.0692 -33.1467
L25.8348 -32.8512
L25.5996 -32.5517
L25.3639 -32.2482
L25.1277 -31.9407
L24.8912 -31.6291
L24.6546 -31.3135
L24.4181 -30.994
L24.1818 -30.6705
L23.9459 -30.3431
L23.7108 -30.0118
L23.4766 -29.6767
L23.2437 -29.338
L23.0123 -28.9955
L22.7829 -28.6496
L22.5559 -28.3002
L22.3317 -27.9475
L22.1109 -27.5916
L21.894 -27.2328
L21.6818 -26.8711
L21.4752 -26.5068
L21.2753 -26.1399
L21.0832 -25.7709
L20.9007 -25.3998
L20.7297 -25.027
L20.573 -24.6528
L20.4341 -24.2774
L20.3174 -23.9012
L20.2287 -23.5248
L20.1755 -23.1485
L20.166 -22.7733
L20.2088 -22.3999
L20.3104 -22.0294
L20.4735 -21.6632
L20.6956 -21.3027
L20.9705 -20.9492
L21.2895 -20.6037
L21.6445 -20.2672
L22.0279 -19.9402
L22.4337 -19.6231
L22.8573 -19.3162
L23.2949 -19.0198
L23.7436 -18.734
L24.2012 -18.4588
L24.6659 -18.1943
L25.136 -17.9405
L25.6104 -17.6975
L26.0879 -17.4652
L26.5677 -17.2435
L27.0489 -17.0324
L27.5308 -16.8317
L28.0129 -16.6414
L28.4944 -16.4612
L28.975 -16.2911
L29.4542 -16.1309
L29.9315 -15.9804
L30.4067 -15.8393
L30.8793 -15.7076
L31.349 -15.5849
L31.8157 -15.4712
L32.279 -15.3661
L32.7387 -15.2694
L33.1947 -15.1809
L33.6468 -15.1005
L34.0949 -15.0278
L34.5387 -14.9626
L34.9783 -14.9047
L35.4136 -14.854
L35.8444 -14.81
L36.2707 -14.7728
L36.6925 -14.742
L37.1097 -14.7174
L37.5223 -14.6988
L37.9304 -14.6861
L38.3339 -14.679
L38.7329 -14.6773
L39.1273 -14.6809
L39.5172 -14.6897
L39.9026 -14.7033
L40.2836 -14.7217
L40.6603 -14.7448
L41.0326 -14.7723
L41.4006 -14.8042
L41.7645 -14.8402
L42.1242 -14.8803
L42.4798 -14.9243
L42.8315 -14.9722
L43.1792 -15.0238
L43.5231 -15.079
L43.8632 -15.1377
L44.1996 -15.1998
L44.5324 -15.2653
L44.8617 -15.334
L45.1875 -15.4059
L45.51 -15.4809
L45.8291 -15.5589
L46.145 -15.6399
L46.4578 -15.7238
L46.7676 -15.8106
L47.0743 -15.9002
L47.3782 -15.9926
L47.6793 -16.0877
L47.9776 -16.1855
L48.2732 -16.286
L48.5663 -16.3892
L48.8568 -16.4949
L49.1449 -16.6033
L49.4306 -16.7143
L49.714 -16.8278
L49.9952 -16.944
L50.2742 -17.0627
L50.5511 -17.184
L50.826 -17.3078
L51.0989 -17.4342
L51.3699 -17.5633
L51.639 -17.6949
L51.9064 -17.8292
L52.172 -17.9661
L52.4359 -18.1056
L52.6982 -18.2479
L52.959 -18.3929
L53.2182 -18.5407
L53.4759 -18.6912
L53.7323 -18.8446
L53.9872 -19.0009
L54.2408 -19.1601
L54.4931 -19.3222
L54.7442 -19.4874
L54.994 -19.6557
L55.2426 -19.8271
L55.4901 -20.0018
L55.7365 -20.1797
L55.9817 -20.3609
L56.2259 -20.5456
L56.469 -20.7338
L56.7111 -20.9255
L56.9522 -21.121
L57.1923 -21.3201
L57.4314 -21.5231
L57.6694 -21.7301
L57.9066 -21.9411
L58.1427 -22.1562
L58.3778 -22.3756
L58.6119 -22.5994
L58.845 -22.8277
L59.0771 -23.0605
L59.3082 -23.2981
L59.5381 -23.5406
L59.7669 -23.788
L59.9946 -24.0406
L60.221 -24.2985
L60.4462 -24.5618
L60.6701 -24.8307
L60.8926 -25.1053
L61.1137 -25.3858
L61.3332 -25.6723
L61.551 -25.9651
L61.7671 -26.2643
L61.9814 -26.5701
L62.1937 -26.8826
L62.4039 -27.2021
L62.6119 -27.5287
L62.8175 -27.8626
L63.0204 -28.2041
L63.2207 -28.5533
L63.4179 -28.9104
L63.6121 -29.2756
L63.8028 -29.6492
L63.9653 -30.0313
L64.0569 -30.5051
L64.14 -30.994
L64.2145 -31.4844
L64.2804 -31.9762
L64.3378 -32.4693
L64.3864 -32.9634
L64.4265 -33.4584
L64.4579 -33.9542
L64.4806 -34.4506
L64.4946 -34.9475
L64.4999 -35.4447
L64.4966 -35.9421
L64.4846 -36.4395
L64.4639 -36.9368
L64.4346 -37.4337
L64.3965 -37.9303
L64.3499 -38.4262
L64.2946 -38.9215
L64.2306 -39.4158
L64.1581 -39.9091
L64.077 -40.4012
L63.9874 -40.8919
L63.8892 -41.3812
L63.7825 -41.8688
L63.6674 -42.3547
L63.5438 -42.8386
L63.4119 -43.3204
L63.2716 -43.8
L63.1229 -44.2772
L62.9661 -44.7519
L62.801 -45.2239
L62.6277 -45.6931
L62.4464 -46.1594
L62.257 -46.6226
L62.0595 -47.0825
L61.8542 -47.5391
L61.641 -47.9921
L61.4199 -48.4415
L61.1911 -48.8871
L60.9547 -49.3288
L60.7106 -49.7664
L60.459 -50.1998
L60.2 -50.6289
L59.9336 -51.0536
L59.6599 -51.4736
L59.379 -51.889
L59.091 -52.2995
L58.7959 -52.705
L58.4939 -53.1054
L58.1851 -53.5007
L57.8694 -53.8906
L57.5472 -54.275
L57.2183 -54.6539
L56.883 -55.0271
L56.5414 -55.3946
z
" id="C0_1_d1d74b4e0b"/>
     <path d="
M8.08914 -41.5622
L8.11285 -41.1256
L8.14401 -40.6859
L8.18278 -40.243
L8.22934 -39.7969
L8.28386 -39.3478
L8.34652 -38.8957
L8.41749 -38.4407
L8.49696 -37.983
L8.5851 -37.5225
L8.68208 -37.0595
L8.78809 -36.5941
L8.90328 -36.1264
L9.02781 -35.6567
L9.16185 -35.185
L9.30554 -34.7116
L9.459 -34.2367
L9.62238 -33.7606
L9.79576 -33.2834
L9.97924 -32.8055
L10.1729 -32.3271
L10.3768 -31.8485
L10.5908 -31.3701
L10.8152 -30.8921
L11.0496 -30.4149
L11.2941 -29.9389
L11.5486 -29.4644
L11.8127 -28.9919
L12.0863 -28.5216
L12.369 -28.0541
L12.6602 -27.5896
L12.9595 -27.1286
L13.2661 -26.6716
L13.5789 -26.2189
L13.8968 -25.771
L14.2182 -25.3281
L14.541 -24.8907
L14.8626 -24.4591
L15.1794 -24.0336
L15.4868 -23.6143
L15.7789 -23.2014
L16.0483 -22.7948
L16.2863 -22.3942
L16.4845 -21.999
L16.6358 -21.6086
L16.7375 -21.2222
L16.7917 -20.8388
L16.8045 -20.458
L16.7839 -20.0794
L16.7382 -19.7027
L16.6742 -19.328
L16.5977 -18.9554
L16.5131 -18.585
L16.4235 -18.2169
L16.3315 -17.8514
L16.2389 -17.4884
L16.1474 -17.1283
L16.0578 -16.7712
L15.9711 -16.4171
L15.4109 -16.0663
L15.0701 -16.2937
L14.7357 -16.656
L14.4077 -17.0243
L14.0864 -17.3983
L13.7717 -17.7779
L13.4638 -18.1632
L13.1627 -18.5538
L12.8687 -18.9498
L12.5816 -19.3509
L12.3017 -19.7572
L12.029 -20.1684
L11.7636 -20.5844
L11.5056 -21.0051
L11.2551 -21.4303
L11.0121 -21.86
L10.7767 -22.294
L10.549 -22.7322
L10.329 -23.1745
L10.1169 -23.6206
L9.9126 -24.0705
L9.71629 -24.524
L9.52799 -24.9811
L9.34775 -25.4415
L9.17563 -25.9051
L9.01168 -26.3718
L8.85595 -26.8414
L8.70849 -27.3138
L8.56934 -27.7888
L8.43855 -28.2664
L8.31615 -28.7463
L8.20218 -29.2284
L8.09669 -29.7126
L7.99969 -30.1987
L7.91122 -30.6866
L7.83131 -31.176
L7.75998 -31.667
L7.69725 -32.1593
L7.64314 -32.6527
L7.59767 -33.1472
L7.56085 -33.6425
L7.5327 -34.1385
L7.51322 -34.6352
L7.50241 -35.1322
L7.50028 -35.6295
L7.50684 -36.1269
L7.52207 -36.6243
L7.54598 -37.1214
L7.57856 -37.6183
L7.61979 -38.1146
L7.66967 -38.6103
L7.72818 -39.1052
L7.7953 -39.5992
L7.87101 -40.092
L7.95529 -40.5837
z
" id="C0_2_79fe076a1a"/>
    </defs>
    <g clip-path="url(#p1bffca34e9)">
     <use style="fill:#ffffff;stroke:#000000;stroke-width:2.0;" x="0.0" xlink:href="#C0_0_a811fe30f3" y="72.0"/>
    </g>
    <g clip-path="url(#p1bffca34e9)">
     <use style="fill:#ff0000;stroke:#000000;stroke-width:2.0;" x="0.0" xlink:href="#C0_1_d1d74b4e0b" y="72.0"/>
    </g>
    <g clip-path="url(#p1bffca34e9)">
     <use style="fill:#ff0000;stroke:#000000;stroke-width:2.0;" x="0.0" xlink:href="#C0_2_79fe076a1a" y="72.0"/>
    </g>
   </g>
  </g>
 </g>
 <defs>
  <clipPath id="p1bffca34e9">
   <rect height="72.0" width="72.0" x="0.0" y="0.0"/>
  </clipPath>
 </defs>
</svg>
