<?xml version="1.0" encoding="utf-8" standalone="no"?>
<!DOCTYPE svg PUBLIC "-//W3C//DTD SVG 1.1//EN"
  "http://www.w3.org/Graphics/SVG/1.1/DTD/svg11.dtd">
<!-- Created with matplotlib (http://matplotlib.org/) -->
<svg height="72pt" version="1.1" viewBox="0 0 72 72" width="72pt" xmlns="http://www.w3.org/2000/svg" xmlns:xlink="http://www.w3.org/1999/xlink">
 <defs>
  <style type="text/css">
*{stroke-linecap:butt;stroke-linejoin:round;}
  </style>
 </defs>
 <g id="figure_1">
  <g id="patch_1">
   <path d="
M0 72
L72 72
L72 0
L0 0
z
" style="fill:none;"/>
  </g>
  <g id="axes_1">
   <g id="PatchCollection_1">
    <defs>
     <path d="
M36 -7.5
C43.5583 -7.5 50.808 -10.5029 56.1525 -15.8475
C61.4971 -21.192 64.5 -28.4417 64.5 -36
C64.5 -43.5583 61.4971 -50.808 56.1525 -56.1525
C50.808 -61.4971 43.5583 -64.5 36 -64.5
C28.4417 -64.5 21.192 -61.4971 15.8475 -56.1525
C10.5029 -50.808 7.5 -43.5583 7.5 -36
C7.5 -28.4417 10.5029 -21.192 15.8475 -15.8475
C21.192 -10.5029 28.4417 -7.5 36 -7.5
z
" id="C0_0_a811fe30f3"/>
     <path d="
M28.1788 -63.3608
L28.3416 -63.1759
L28.4955 -62.985
L28.6408 -62.7885
L28.778 -62.5868
L28.9074 -62.3801
L29.0293 -62.1688
L29.1441 -61.9531
L29.2521 -61.7333
L29.3537 -61.5098
L29.4493 -61.2827
L29.539 -61.0523
L29.6233 -60.8188
L29.7024 -60.5825
L29.7766 -60.3436
L29.8461 -60.1022
L29.9114 -59.8586
L29.9725 -59.6129
L30.0297 -59.3654
L30.0833 -59.1161
L30.1334 -58.8653
L30.1803 -58.613
L30.2242 -58.3595
L30.2652 -58.1048
L30.3035 -57.8491
L30.3392 -57.5924
L30.3726 -57.3349
L30.4038 -57.0767
L30.4328 -56.8179
L30.4599 -56.5585
L30.4851 -56.2987
L30.5085 -56.0385
L30.5303 -55.7779
L30.5506 -55.5171
L30.5694 -55.2561
L30.5868 -54.9949
L30.603 -54.7337
L30.618 -54.4723
L30.6318 -54.211
L30.6446 -53.9497
L30.6563 -53.6884
L30.6671 -53.4271
L30.6771 -53.166
L30.6861 -52.905
L30.6944 -52.6441
L30.702 -52.3834
L30.7088 -52.1228
L30.715 -51.8624
L30.7206 -51.6022
L30.7255 -51.3422
L30.73 -51.0823
L30.7338 -50.8226
L30.7372 -50.563
L30.7402 -50.3037
L30.7426 -50.0445
L30.7447 -49.7854
L30.7463 -49.5265
L30.7476 -49.2677
L30.7485 -49.009
L30.749 -48.7504
L30.7492 -48.4919
L30.7491 -48.2335
L30.7487 -47.9751
L30.748 -47.7167
L30.747 -47.4584
L30.7458 -47.2
L30.7443 -46.9415
L30.7426 -46.6831
L30.7406 -46.4245
L30.7384 -46.1658
L30.736 -45.9069
L30.7333 -45.6479
L30.7304 -45.3887
L30.7274 -45.1293
L30.7241 -44.8696
L30.7206 -44.6096
L30.7131 -44.3493
L30.709 -44.0887
L30.7047 -43.8277
L30.7003 -43.5664
L30.6956 -43.3046
L30.6908 -43.0423
L30.6857 -42.7795
L30.6805 -42.5162
L30.6751 -42.2524
L30.6694 -41.988
L30.6636 -41.723
L30.6575 -41.4573
L30.6513 -41.1909
L30.6448 -40.9239
L30.6381 -40.6561
L30.6311 -40.3876
L30.6239 -40.1183
L30.6165 -39.8481
L30.6088 -39.5771
L30.6008 -39.3053
L30.5926 -39.0325
L30.584 -38.7588
L30.5752 -38.4842
L30.566 -38.2086
L30.5566 -37.932
L30.5467 -37.6544
L30.5365 -37.3758
L30.5259 -37.0961
L30.515 -36.8153
L30.5036 -36.5334
L30.4917 -36.2505
L30.4794 -35.9664
L30.4666 -35.6812
L30.4533 -35.3948
L30.4394 -35.1074
L30.425 -34.8188
L30.41 -34.529
L30.3943 -34.2381
L30.3779 -33.9461
L30.3608 -33.6529
L30.3429 -33.3586
L30.3243 -33.0632
L30.3048 -32.7668
L30.2844 -32.4692
L30.263 -32.1707
L30.2406 -31.8711
L30.2171 -31.5705
L30.1925 -31.2691
L30.1667 -30.9667
L30.1396 -30.6635
L30.1112 -30.3596
L30.0813 -30.0549
L30.0499 -29.7496
L30.0169 -29.4437
L29.9821 -29.1373
L29.9456 -28.8305
L29.9071 -28.5234
L29.8666 -28.2161
L29.8239 -27.9087
L29.779 -27.6013
L29.7316 -27.2941
L29.6817 -26.9871
L29.629 -26.6806
L29.5735 -26.3747
L29.515 -26.0694
L29.4533 -25.7651
L29.3883 -25.4619
L29.3197 -25.16
L29.2474 -24.8595
L29.1712 -24.5607
L29.0909 -24.2637
L29.0063 -23.9689
L28.9172 -23.6764
L28.8234 -23.3864
L28.7246 -23.0993
L28.6208 -22.8152
L28.5116 -22.5345
L28.3968 -22.2573
L28.2764 -21.984
L28.15 -21.7148
L28.0175 -21.45
L27.8786 -21.1899
L27.7334 -20.9347
L27.5815 -20.6847
L27.4229 -20.4402
L27.2574 -20.2015
L27.0849 -19.9688
L26.9054 -19.7424
L26.7188 -19.5225
L26.525 -19.3094
L26.3241 -19.1034
L26.1161 -18.9046
L25.901 -18.7132
L25.6788 -18.5295
L25.4498 -18.3537
L25.2139 -18.1859
L24.9713 -18.0262
L24.7222 -17.8749
L24.4669 -17.7321
L24.2053 -17.5978
L23.938 -17.4722
L23.6649 -17.3553
L23.3865 -17.2473
L23.1029 -17.1481
L22.8145 -17.0578
L22.5215 -16.9765
L22.2243 -16.9041
L21.9231 -16.8407
L21.6182 -16.7863
L21.31 -16.7407
L20.9987 -16.7041
L20.6847 -16.6763
L20.3682 -16.6574
L20.0496 -16.6472
L19.7291 -16.6457
L19.407 -16.6528
L19.0835 -16.6685
L18.7591 -16.6926
L18.4338 -16.7252
L18.1081 -16.766
L17.782 -16.815
L17.4559 -16.8722
L17.13 -16.9373
L16.8045 -17.0104
L16.4796 -17.0913
L16.1556 -17.1799
L15.8325 -17.2761
L15.5106 -17.3799
L15.1901 -17.491
L14.8711 -17.6094
L14.5538 -17.7351
L14.2383 -17.8678
L13.9248 -18.0076
L13.5271 -18.1543
L13.2246 -18.4723
L12.9291 -18.8672
L12.6406 -19.2673
L12.3592 -19.6725
L12.085 -20.0827
L11.8181 -20.4977
L11.5585 -20.9174
L11.3064 -21.3417
L11.0619 -21.7705
L10.8249 -22.2037
L10.5956 -22.641
L10.374 -23.0824
L10.1602 -23.5277
L9.95432 -23.9769
L9.75636 -24.4297
L9.56639 -24.886
L9.38447 -25.3457
L9.21066 -25.8086
L9.04501 -26.2747
L8.88758 -26.7437
L8.7384 -27.2156
L8.59752 -27.6901
L8.46499 -28.1671
L8.34085 -28.6466
L8.22513 -29.1282
L8.11788 -29.612
L8.01911 -30.0977
L7.92887 -30.5852
L7.84718 -31.0744
L7.77407 -31.565
L7.70956 -32.057
L7.65366 -32.5502
L7.6064 -33.0445
L7.56778 -33.5397
L7.53783 -34.0356
L7.51654 -34.5321
L7.50394 -35.029
L7.50001 -35.5263
L7.50476 -36.0237
L7.5182 -36.5211
L7.54031 -37.0183
L7.57109 -37.5152
L7.61053 -38.0117
L7.65861 -38.5075
L7.71533 -39.0026
L7.78067 -39.4968
L7.8546 -39.9899
L7.9371 -40.4818
L8.02816 -40.9723
L8.12773 -41.4613
L8.23579 -41.9487
L8.35231 -42.4342
L8.47726 -42.9178
L8.61058 -43.3992
L8.75225 -43.8784
L8.90222 -44.3553
L9.06045 -44.8295
L9.22687 -45.3011
L9.40146 -45.7698
L9.58415 -46.2356
L9.77488 -46.6983
L9.9736 -47.1576
L10.1803 -47.6136
L10.3948 -48.0661
L10.6171 -48.5149
L10.8471 -48.9598
L11.0848 -49.4009
L11.3301 -49.8378
L11.5829 -50.2705
L11.8432 -50.6989
L12.1108 -51.1228
L12.3857 -51.5421
L12.6678 -51.9566
L12.957 -52.3663
L13.2532 -52.771
L13.5563 -53.1706
L13.8663 -53.565
L14.183 -53.954
L14.5063 -54.3376
L14.8362 -54.7156
L15.1726 -55.0878
L15.5153 -55.4543
L15.8642 -55.8148
L16.2193 -56.1693
L16.5804 -56.5176
L16.9474 -56.8597
L17.3202 -57.1955
L17.6987 -57.5248
L18.0828 -57.8475
L18.4723 -58.1636
L18.8672 -58.4729
L19.2673 -58.7754
L19.6725 -59.0709
L20.0827 -59.3594
L20.4977 -59.6408
L20.9174 -59.915
L21.3417 -60.1819
L21.7705 -60.4415
L22.2037 -60.6936
L22.641 -60.9381
L23.0824 -61.1751
L23.5277 -61.4044
L23.9769 -61.626
L24.4297 -61.8398
L24.886 -62.0457
L25.3457 -62.2436
L25.8086 -62.4336
L26.2747 -62.6155
L26.7437 -62.7893
L27.2156 -62.955
z
" id="C0_1_20f865c57e"/>
     <path d="
M58.3336 -53.6504
L58.412 -53.313
L58.4868 -52.976
L58.558 -52.6397
L58.6256 -52.3041
L58.6898 -51.9691
L58.7504 -51.635
L58.8075 -51.3017
L58.8611 -50.9693
L58.9114 -50.6378
L58.9582 -50.3072
L59.0018 -49.9776
L59.0419 -49.6489
L59.0789 -49.3213
L59.1126 -48.9947
L59.1431 -48.6692
L59.1704 -48.3447
L59.1946 -48.0212
L59.2158 -47.6988
L59.2339 -47.3775
L59.2491 -47.0572
L59.2612 -46.7379
L59.2705 -46.4197
L59.2769 -46.1025
L59.2804 -45.7863
L59.2812 -45.4711
L59.2791 -45.1569
L59.2743 -44.8436
L59.2669 -44.5313
L59.2567 -44.2199
L59.2439 -43.9095
L59.2284 -43.5999
L59.2104 -43.2911
L59.1898 -42.9832
L59.1666 -42.676
L59.1409 -42.3697
L59.1128 -42.0641
L59.0821 -41.7592
L59.0489 -41.4549
L59.0133 -41.1514
L58.9753 -40.8484
L58.9349 -40.5461
L58.892 -40.2443
L58.8467 -39.943
L58.7991 -39.6423
L58.749 -39.342
L58.6966 -39.0421
L58.6418 -38.7426
L58.5846 -38.4435
L58.5251 -38.1448
L58.4631 -37.8463
L58.3989 -37.5481
L58.3322 -37.2502
L58.2632 -36.9524
L58.1918 -36.6549
L58.118 -36.3575
L58.0418 -36.0601
L57.9633 -35.7629
L57.8823 -35.4658
L57.7989 -35.1686
L57.7131 -34.8715
L57.6249 -34.5743
L57.5342 -34.2771
L57.441 -33.9798
L57.3454 -33.6823
L57.2472 -33.3848
L57.1466 -33.0871
L57.0435 -32.7892
L56.9378 -32.4911
L56.8295 -32.1928
L56.7187 -31.8942
L56.6053 -31.5954
L56.4893 -31.2963
L56.3707 -30.9969
L56.2495 -30.6972
L56.1256 -30.3972
L55.999 -30.0968
L55.8697 -29.7961
L55.7378 -29.4951
L55.6031 -29.1937
L55.4657 -28.8919
L55.3256 -28.5898
L55.1827 -28.2873
L55.0371 -27.9845
L54.8888 -27.6813
L54.7376 -27.3777
L54.5837 -27.0738
L54.4271 -26.7696
L54.2677 -26.4651
L54.1055 -26.1602
L53.9406 -25.855
L53.773 -25.5496
L53.6027 -25.244
L53.4297 -24.9381
L53.2541 -24.632
L53.0759 -24.3257
L52.8951 -24.0193
L52.7118 -23.7128
L52.526 -23.4062
L52.3379 -23.0996
L52.1474 -22.793
L51.9547 -22.4864
L51.7598 -22.18
L51.5628 -21.8737
L51.3639 -21.5675
L51.1631 -21.2617
L50.9607 -20.9561
L50.7566 -20.6508
L50.5512 -20.346
L50.3444 -20.0416
L50.1366 -19.7377
L49.9279 -19.4343
L49.7184 -19.1316
L49.5085 -18.8296
L49.2983 -18.5282
L49.088 -18.2277
L48.8779 -17.928
L48.6683 -17.6291
L48.4594 -17.3312
L48.2515 -17.0343
L48.045 -16.7384
L47.84 -16.4436
L47.6369 -16.1499
L47.436 -15.8574
L47.2376 -15.5661
L47.0421 -15.2761
L46.8498 -14.9873
L46.6609 -14.6999
L46.4758 -14.4138
L46.2949 -14.1291
L46.1183 -13.8459
L45.9465 -13.5641
L45.7796 -13.2839
L45.618 -13.0052
L45.462 -12.7281
L45.3117 -12.4526
L45.1673 -12.1789
L45.0292 -11.9068
L44.8974 -11.6366
L44.7721 -11.3681
L44.6534 -11.1016
L44.5415 -10.8371
L44.4364 -10.5745
L44.3382 -10.3141
L44.2469 -10.0558
L44.1626 -9.79982
L44.0853 -9.54611
L44.0149 -9.29479
L43.9514 -9.04596
L44.4207 -8.79969
L44.8946 -8.77239
L45.3658 -8.9235
L45.8341 -9.08286
L46.2994 -9.25041
L46.7617 -9.42611
L47.2206 -9.60991
L47.6761 -9.80175
L48.1281 -10.0016
L48.5763 -10.2093
L49.0207 -10.4249
L49.4612 -10.6483
L49.8976 -10.8794
L50.3297 -11.1181
L50.7575 -11.3645
L51.1807 -11.6183
L51.5994 -11.8796
L52.0133 -12.1482
L52.4223 -12.4241
L52.8263 -12.7071
L53.2252 -12.9973
L53.6189 -13.2945
L54.0071 -13.5985
L54.3899 -13.9094
L54.7671 -14.2271
L55.1386 -14.5513
L55.5042 -14.8821
L55.8639 -15.2194
L56.2176 -15.5629
L56.5651 -15.9127
L56.9063 -16.2686
L57.2412 -16.6305
L57.5696 -16.9983
L57.8914 -17.3719
L58.2065 -17.7512
L58.5149 -18.1361
L58.8164 -18.5263
L59.111 -18.9219
L59.3986 -19.3227
L59.679 -19.7286
L59.9522 -20.1395
L60.2181 -20.5551
L60.4766 -20.9755
L60.7277 -21.4005
L60.9712 -21.8299
L61.2071 -22.2636
L61.4354 -22.7015
L61.6559 -23.1434
L61.8686 -23.5893
L62.0734 -24.0389
L62.2702 -24.4922
L62.4591 -24.949
L62.6399 -25.4092
L62.8126 -25.8726
L62.9771 -26.339
L63.1334 -26.8085
L63.2815 -27.2807
L63.4212 -27.7556
L63.5526 -28.2329
L63.6756 -28.7127
L63.7901 -29.1947
L63.8962 -29.6787
L63.9938 -30.1647
L64.0829 -30.6524
L64.1634 -31.1418
L64.2353 -31.6326
L64.2986 -32.1248
L64.3534 -32.6182
L64.3994 -33.1126
L64.4369 -33.6079
L64.4656 -34.1039
L64.4857 -34.6004
L64.4971 -35.0974
L64.4999 -35.5947
L64.4939 -36.0921
L64.4793 -36.5895
L64.456 -37.0867
L64.424 -37.5836
L64.3834 -38.08
L64.3341 -38.5757
L64.2762 -39.0707
L64.2097 -39.5647
L64.1346 -40.0576
L64.0509 -40.5494
L63.9586 -41.0397
L63.8579 -41.5285
L63.7487 -42.0156
L63.631 -42.5008
L63.5049 -42.9841
L63.3704 -43.4653
L63.2276 -43.9442
L63.0765 -44.4207
L62.9171 -44.8946
L62.7496 -45.3658
L62.5739 -45.8341
L62.3901 -46.2994
L62.1983 -46.7617
L61.9984 -47.2206
L61.7907 -47.6761
L61.5751 -48.1281
L61.3517 -48.5763
L61.1206 -49.0207
L60.8819 -49.4612
L60.6355 -49.8976
L60.3817 -50.3297
L60.1204 -50.7575
L59.8518 -51.1807
L59.5759 -51.5994
L59.2929 -52.0133
L59.0027 -52.4223
L58.7055 -52.8263
z
" id="C0_2_003c4738de"/>
    </defs>
    <g clip-path="url(#p1bffca34e9)">
     <use style="fill:#ffffff;stroke:#000000;stroke-width:2.0;" x="0.0" xlink:href="#C0_0_a811fe30f3" y="72.0"/>
    </g>
    <g clip-path="url(#p1bffca34e9)">
     <use style="fill:#ff0000;stroke:#000000;stroke-width:2.0;" x="0.0" xlink:href="#C0_1_20f865c57e" y="72.0"/>
    </g>
    <g clip-path="url(#p1bffca34e9)">
     <use style="fill:#ff0000;stroke:#000000;stroke-width:2.0;" x="0.0" xlink:href="#C0_2_003c4738de" y="72.0"/>
    </g>
   </g>
  </g>
 </g>
 <defs>
  <clipPath id="p1bffca34e9">
   <rect height="72.0" width="72.0" x="0.0" y="0.0"/>
  </clipPath>
 </defs>
</svg>
