<?xml version="1.0" encoding="utf-8" standalone="no"?>
<!DOCTYPE svg PUBLIC "-//W3C//DTD SVG 1.1//EN"
  "http://www.w3.org/Graphics/SVG/1.1/DTD/svg11.dtd">
<!-- Created with matplotlib (http://matplotlib.org/) -->
<svg height="72pt" version="1.1" viewBox="0 0 72 72" width="72pt" xmlns="http://www.w3.org/2000/svg" xmlns:xlink="http://www.w3.org/1999/xlink">
 <defs>
  <style type="text/css">
*{stroke-linecap:butt;stroke-linejoin:round;}
  </style>
 </defs>
 <g id="figure_1">
  <g id="patch_1">
   <path d="
M0 72
L72 72
L72 0
L0 0
z
" style="fill:none;"/>
  </g>
  <g id="axes_1">
   <g id="PatchCollection_1">
    <defs>
     <path d="
M36 -7.5
C43.5583 -7.5 50.808 -10.5029 56.1525 -15.8475
C61.4971 -21.192 64.5 -28.4417 64.5 -36
C64.5 -43.5583 61.4971 -50.808 56.1525 -56.1525
C50.808 -61.4971 43.5583 -64.5 36 -64.5
C28.4417 -64.5 21.192 -61.4971 15.8475 -56.1525
C10.5029 -50.808 7.5 -43.5583 7.5 -36
C7.5 -28.4417 10.5029 -21.192 15.8475 -15.8475
C21.192 -10.5029 28.4417 -7.5 36 -7.5
z
" id="C0_0_a811fe30f3"/>
     <path d="
M22.6098 -61.1121
L22.9286 -61.0452
L23.2283 -60.9589
L23.5084 -60.8534
L23.7687 -60.7293
L24.009 -60.587
L24.2296 -60.4273
L24.431 -60.2509
L24.6138 -60.0587
L24.7789 -59.8516
L24.9272 -59.6304
L25.0599 -59.3963
L25.1781 -59.1501
L25.283 -58.8929
L25.3759 -58.6255
L25.4579 -58.349
L25.5301 -58.0642
L25.5937 -57.772
L25.6496 -57.4731
L25.6987 -57.1682
L25.742 -56.8582
L25.7802 -56.5436
L25.8141 -56.2251
L25.8442 -55.9031
L25.8712 -55.5783
L25.8955 -55.2511
L25.9176 -54.922
L25.938 -54.5913
L25.9569 -54.2594
L25.9747 -53.9267
L25.9917 -53.5935
L26.008 -53.26
L26.024 -52.9266
L26.0398 -52.5935
L26.0555 -52.2608
L26.0713 -51.9289
L26.0873 -51.5978
L26.1036 -51.2677
L26.1203 -50.9388
L26.1374 -50.6113
L26.155 -50.2851
L26.1732 -49.9604
L26.192 -49.6374
L26.2114 -49.316
L26.2315 -48.9964
L26.2523 -48.6786
L26.2737 -48.3627
L26.2959 -48.0487
L26.3188 -47.7365
L26.3424 -47.4264
L26.3667 -47.1181
L26.3917 -46.8119
L26.4175 -46.5076
L26.4439 -46.2054
L26.4711 -45.905
L26.499 -45.6067
L26.5275 -45.3103
L26.5568 -45.0158
L26.5867 -44.7232
L26.6173 -44.4324
L26.6486 -44.1436
L26.6805 -43.8565
L26.713 -43.5712
L26.7463 -43.2877
L26.7801 -43.0058
L26.8146 -42.7257
L26.8496 -42.4471
L26.8853 -42.1701
L26.9216 -41.8947
L26.9586 -41.6207
L26.9961 -41.3482
L27.0342 -41.077
L27.0729 -40.8073
L27.1121 -40.5387
L27.152 -40.2715
L27.1925 -40.0054
L27.2335 -39.7405
L27.2751 -39.4766
L27.3173 -39.2138
L27.3601 -38.9519
L27.4035 -38.691
L27.4474 -38.4309
L27.492 -38.1717
L27.5372 -37.9132
L27.5829 -37.6555
L27.6293 -37.3984
L27.6762 -37.1419
L27.7238 -36.8859
L27.772 -36.6304
L27.8208 -36.3754
L27.8703 -36.1208
L27.9204 -35.8664
L27.9712 -35.6124
L28.0747 -35.3586
L28.1275 -35.1049
L28.1809 -34.8514
L28.2351 -34.5979
L28.29 -34.3445
L28.3457 -34.0909
L28.4021 -33.8373
L28.4592 -33.5836
L28.5171 -33.3296
L28.5758 -33.0753
L28.6353 -32.8208
L28.6957 -32.5658
L28.7569 -32.3105
L28.8189 -32.0547
L28.8818 -31.7984
L28.9456 -31.5414
L29.0103 -31.2839
L29.076 -31.0257
L29.1426 -30.7667
L29.2102 -30.507
L29.2787 -30.2465
L29.3483 -29.9851
L29.419 -29.7227
L29.4906 -29.4594
L29.5634 -29.195
L29.6373 -28.9296
L29.7123 -28.6631
L29.7884 -28.3954
L29.8657 -28.1266
L29.9442 -27.8565
L30.0239 -27.5851
L30.1049 -27.3124
L30.1871 -27.0383
L30.2706 -26.7628
L30.3555 -26.4859
L30.4416 -26.2075
L30.5291 -25.9277
L30.6179 -25.6463
L30.7082 -25.3634
L30.7998 -25.0788
L30.8928 -24.7927
L30.9873 -24.505
L31.0832 -24.2157
L31.1805 -23.9247
L31.2793 -23.6321
L31.3795 -23.3379
L31.4812 -23.042
L31.5843 -22.7444
L31.6888 -22.4453
L31.7948 -22.1445
L31.9021 -21.8422
L32.0107 -21.5383
L32.1207 -21.2328
L32.2319 -20.9259
L32.3443 -20.6176
L32.4578 -20.3079
L32.5724 -19.9968
L32.6879 -19.6846
L32.8042 -19.3711
L32.9213 -19.0566
L33.0388 -18.7411
L33.1568 -18.4247
L33.2749 -18.1076
L33.3929 -17.7898
L33.5107 -17.4716
L33.6278 -17.153
L33.744 -16.8342
L33.859 -16.5154
L33.9722 -16.1968
L34.0832 -15.8786
L34.1916 -15.5609
L34.2967 -15.2439
L34.3978 -14.928
L34.4944 -14.6134
L34.5855 -14.3002
L34.6704 -13.9888
L34.748 -13.6795
L34.8174 -13.3725
L34.8774 -13.0682
L34.9268 -12.7669
L34.9644 -12.4689
L34.9888 -12.1746
L34.9986 -11.8843
L34.9923 -11.5985
L34.9686 -11.3176
L34.9261 -11.0419
L34.8634 -10.7719
L34.7793 -10.5081
L34.6727 -10.251
L34.5427 -10.001
L34.3887 -9.75865
L34.2102 -9.52441
L34.007 -9.2988
L33.7793 -9.0823
L33.5273 -8.87541
L33.2518 -8.6786
L32.9534 -8.49231
L32.6331 -8.31696
L32.2921 -8.15296
L31.9315 -8.00067
L31.4302 -7.86042
L30.9399 -7.86876
L30.4512 -7.9528
L29.9642 -8.04538
L29.479 -8.14648
L28.9958 -8.25606
L28.5147 -8.3741
L28.0359 -8.50054
L27.5595 -8.63537
L27.0857 -8.77853
L26.6147 -8.92998
L26.1464 -9.08968
L25.6812 -9.25758
L25.2191 -9.43362
L24.7603 -9.61775
L24.305 -9.80992
L23.8532 -10.0101
L23.4051 -10.2181
L22.9608 -10.4341
L22.5205 -10.6578
L22.0843 -10.8892
L21.6524 -11.1283
L21.2248 -11.3749
L20.8017 -11.6291
L20.3832 -11.8906
L19.9695 -12.1596
L19.5607 -12.4357
L19.1569 -12.7191
L18.7583 -13.0095
L18.3648 -13.307
L17.9768 -13.6114
L17.5942 -13.9225
L17.2173 -14.2405
L16.846 -14.565
L16.4806 -14.8961
L16.1212 -15.2336
L15.7678 -15.5774
L15.4206 -15.9274
L15.0796 -16.2836
L14.745 -16.6458
L14.4169 -17.0138
L14.0953 -17.3877
L13.7805 -17.7672
L13.4724 -18.1522
L13.1711 -18.5427
L12.8768 -18.9386
L12.5896 -19.3396
L12.3095 -19.7457
L12.0366 -20.1567
L11.771 -20.5726
L11.5128 -20.9931
L11.262 -21.4183
L11.0188 -21.8479
L10.7832 -22.2818
L10.5553 -22.7198
L10.3351 -23.1619
L10.1227 -23.608
L9.91825 -24.0578
L9.72171 -24.5112
L9.53318 -24.9682
L9.35272 -25.4285
L9.18036 -25.892
L9.01618 -26.3586
L8.86022 -26.8281
L8.71253 -27.3004
L8.57314 -27.7754
L8.44212 -28.2529
L8.31948 -28.7327
L8.20528 -29.2148
L8.09954 -29.6989
L8.00231 -30.185
L7.9136 -30.6728
L7.83345 -31.1622
L7.76187 -31.6531
L7.6989 -32.1454
L7.64455 -32.6388
L7.59884 -33.1332
L7.56177 -33.6285
L7.53337 -34.1246
L7.51365 -34.6212
L7.50259 -35.1182
L7.50022 -35.6155
L7.50653 -36.1129
L7.52152 -36.6102
L7.54519 -37.1074
L7.57752 -37.6043
L7.61851 -38.1006
L7.66815 -38.5964
L7.72641 -39.0913
L7.79329 -39.5853
L7.86876 -40.0782
L7.9528 -40.5698
L8.04538 -41.0601
L8.14648 -41.5488
L8.25606 -42.0358
L8.3741 -42.521
L8.50054 -43.0042
L8.63537 -43.4853
L8.77853 -43.9641
L8.92998 -44.4405
L9.08968 -44.9143
L9.25758 -45.3853
L9.43362 -45.8536
L9.61775 -46.3188
L9.80992 -46.7809
L10.0101 -47.2397
L10.2181 -47.695
L10.4341 -48.1468
L10.6578 -48.5949
L10.8892 -49.0392
L11.1283 -49.4795
L11.3749 -49.9157
L11.6291 -50.3476
L11.8906 -50.7752
L12.1596 -51.1983
L12.4357 -51.6168
L12.7191 -52.0305
L13.0095 -52.4393
L13.307 -52.8431
L13.6114 -53.2417
L13.9225 -53.6352
L14.2405 -54.0232
L14.565 -54.4058
L14.8961 -54.7827
L15.2336 -55.154
L15.5774 -55.5194
L15.9274 -55.8788
L16.2836 -56.2322
L16.6458 -56.5794
L17.0138 -56.9204
L17.3877 -57.255
L17.7672 -57.5831
L18.1522 -57.9047
L18.5427 -58.2195
L18.9386 -58.5276
L19.3396 -58.8289
L19.7457 -59.1232
L20.1567 -59.4104
L20.5726 -59.6905
L20.9931 -59.9634
L21.4183 -60.229
L21.8479 -60.4872
z
" id="C0_1_efd71faee5"/>
     <path d="
M40.4114 -64.0394
L40.7439 -63.8021
L41.0839 -63.5614
L41.4298 -63.3172
L41.7804 -63.0695
L42.1345 -62.818
L42.4907 -62.5629
L42.8482 -62.304
L43.2058 -62.0414
L43.5629 -61.7752
L43.9185 -61.5055
L44.272 -61.2324
L44.6228 -60.9559
L44.9703 -60.6764
L45.3141 -60.3938
L45.6538 -60.1085
L45.9889 -59.8205
L46.3192 -59.53
L46.6444 -59.2373
L46.9643 -58.9425
L47.2787 -58.6458
L47.5875 -58.3474
L47.8905 -58.0474
L48.1877 -57.746
L48.479 -57.4434
L48.7643 -57.1397
L49.0437 -56.8352
L49.3171 -56.5298
L49.5845 -56.2238
L49.846 -55.9173
L50.1016 -55.6104
L50.3514 -55.3032
L50.5953 -54.9959
L50.8336 -54.6885
L51.0662 -54.3811
L51.2932 -54.0738
L51.5147 -53.7667
L51.7307 -53.4598
L51.9415 -53.1532
L52.147 -52.847
L52.3474 -52.5411
L52.5428 -52.2357
L52.7332 -51.9308
L52.9187 -51.6264
L53.0995 -51.3226
L53.2756 -51.0193
L53.4472 -50.7166
L53.6142 -50.4144
L53.7769 -50.1129
L53.9353 -49.8119
L54.0895 -49.5116
L54.2395 -49.2118
L54.3855 -48.9126
L54.5276 -48.614
L54.6658 -48.316
L54.8002 -48.0185
L54.9308 -47.7215
L55.0579 -47.425
L55.1813 -47.1289
L55.3013 -46.8334
L55.4178 -46.5382
L55.5309 -46.2434
L55.6408 -45.949
L55.7473 -45.6549
L55.8507 -45.3611
L55.9509 -45.0675
L56.048 -44.7742
L56.1421 -44.481
L56.2332 -44.1879
L56.3213 -43.895
L56.4065 -43.602
L56.4888 -43.3091
L56.5683 -43.0161
L56.645 -42.723
L56.7188 -42.4298
L56.79 -42.1363
L56.8583 -41.8427
L56.924 -41.5487
L56.987 -41.2544
L57.0474 -40.9597
L57.105 -40.6645
L57.1601 -40.3689
L57.2124 -40.0727
L57.2622 -39.7759
L57.3094 -39.4785
L57.3539 -39.1803
L57.3958 -38.8814
L57.4351 -38.5816
L57.4717 -38.281
L57.5058 -37.9795
L57.5371 -37.677
L57.5658 -37.3734
L57.5919 -37.0687
L57.6152 -36.7629
L57.6358 -36.4559
L57.6537 -36.1476
L57.6688 -35.838
L57.6811 -35.527
L57.6905 -35.2146
L57.6971 -34.9008
L57.7008 -34.5854
L57.7016 -34.2684
L57.6993 -33.9497
L57.694 -33.6294
L57.6856 -33.3074
L57.6741 -32.9835
L57.6593 -32.6579
L57.6413 -32.3303
L57.62 -32.0008
L57.5952 -31.6694
L57.567 -31.3359
L57.5353 -31.0004
L57.5 -30.6628
L57.461 -30.3231
L57.4182 -29.9812
L57.3716 -29.6372
L57.3211 -29.2909
L57.2665 -28.9424
L57.2079 -28.5917
L57.145 -28.2387
L57.0779 -27.8835
L57.0064 -27.526
L56.9303 -27.1662
L56.8497 -26.8041
L56.7645 -26.4399
L56.6744 -26.0734
L56.5795 -25.7047
L56.4797 -25.3338
L56.3747 -24.9609
L56.2647 -24.5859
L56.1494 -24.2089
L56.0287 -23.8299
L55.9027 -23.4491
L55.7712 -23.0666
L55.6342 -22.6824
L55.4916 -22.2967
L55.3434 -21.9096
L55.1896 -21.5212
L55.0301 -21.1317
L54.865 -20.7413
L54.6942 -20.3501
L54.5179 -19.9583
L54.3361 -19.5662
L54.1489 -19.1739
L53.9564 -18.7817
L53.759 -18.3899
L53.5566 -17.9988
L53.3497 -17.6085
L53.1386 -17.2194
L52.9236 -16.8318
L52.7051 -16.4461
L52.4838 -16.0626
L52.2601 -15.6815
L52.0347 -15.3034
L51.8085 -14.9284
L51.5822 -14.5571
L51.3568 -14.1898
L51.1334 -13.8268
L50.913 -13.4685
L50.6971 -13.1154
L50.4868 -12.7677
L50.2837 -12.4259
L50.0892 -12.0902
L49.9048 -11.761
L49.7323 -11.4387
L50.085 -11.1234
L50.5152 -11.2237
L50.9411 -11.4733
L51.3624 -11.7304
L51.779 -11.9948
L52.1908 -12.2666
L52.5977 -12.5456
L52.9995 -12.8317
L53.3961 -13.1249
L53.7874 -13.4251
L54.1734 -13.7322
L54.5537 -14.046
L54.9285 -14.3665
L55.2974 -14.6936
L55.6605 -15.0272
L56.0176 -15.3672
L56.3686 -15.7134
L56.7134 -16.0659
L57.0519 -16.4244
L57.384 -16.7889
L57.7095 -17.1592
L58.0285 -17.5353
L58.3407 -17.917
L58.6462 -18.3042
L58.9447 -18.6968
L59.2362 -19.0946
L59.5207 -19.4977
L59.798 -19.9057
L60.0681 -20.3186
L60.3308 -20.7364
L60.5861 -21.1587
L60.8339 -21.5856
L61.0742 -22.0169
L61.3068 -22.4524
L61.5317 -22.8921
L61.7488 -23.3358
L61.9581 -23.7833
L62.1595 -24.2345
L62.3529 -24.6894
L62.5383 -25.1476
L62.7156 -25.6092
L62.8848 -26.0739
L63.0457 -26.5417
L63.1985 -27.0123
L63.3429 -27.4857
L63.4791 -27.9617
L63.6068 -28.4401
L63.7261 -28.9209
L63.837 -29.4037
L63.9395 -29.8886
L64.0334 -30.3754
L64.1187 -30.8639
L64.1955 -31.3539
L64.2638 -31.8453
L64.3234 -32.338
L64.3743 -32.8319
L64.4167 -33.3267
L64.4504 -33.8223
L64.4754 -34.3185
L64.4917 -34.8153
L64.4994 -35.3125
L64.4983 -35.8098
L64.4886 -36.3072
L64.4703 -36.8046
L64.4432 -37.3016
L64.4075 -37.7983
L64.3631 -38.2944
L64.3101 -38.7899
L64.2485 -39.2844
L64.1782 -39.778
L64.0994 -40.2705
L64.012 -40.7616
L63.9161 -41.2513
L63.8117 -41.7393
L63.6988 -42.2257
L63.5775 -42.7101
L63.4478 -43.1925
L63.3097 -43.6727
L63.1633 -44.1505
L63.0086 -44.6259
L62.8457 -45.0987
L62.6746 -45.5687
L62.4954 -46.0357
L62.3081 -46.4997
L62.1128 -46.9605
L61.9096 -47.418
L61.6984 -47.872
L61.4795 -48.3224
L61.2527 -48.769
L61.0183 -49.2117
L60.7763 -49.6504
L60.5267 -50.085
L60.2696 -50.5152
L60.0052 -50.9411
L59.7334 -51.3624
L59.4544 -51.779
L59.1683 -52.1908
L58.8751 -52.5977
L58.5749 -52.9995
L58.2678 -53.3961
L57.954 -53.7874
L57.6335 -54.1734
L57.3064 -54.5537
L56.9728 -54.9285
L56.6328 -55.2974
L56.2866 -55.6605
L55.9341 -56.0176
L55.5756 -56.3686
L55.2111 -56.7134
L54.8408 -57.0519
L54.4647 -57.384
L54.083 -57.7095
L53.6958 -58.0285
L53.3032 -58.3407
L52.9054 -58.6462
L52.5023 -58.9447
L52.0943 -59.2362
L51.6814 -59.5207
L51.2636 -59.798
L50.8413 -60.0681
L50.4144 -60.3308
L49.9831 -60.5861
L49.5476 -60.8339
L49.1079 -61.0742
L48.6642 -61.3068
L48.2167 -61.5317
L47.7655 -61.7488
L47.3106 -61.9581
L46.8524 -62.1595
L46.3908 -62.3529
L45.9261 -62.5383
L45.4583 -62.7156
L44.9877 -62.8848
L44.5143 -63.0457
L44.0383 -63.1985
L43.5599 -63.3429
L43.0791 -63.4791
L42.5963 -63.6068
L42.1114 -63.7261
L41.6246 -63.837
L41.1361 -63.9395
z
" id="C0_2_60ccb7077a"/>
    </defs>
    <g clip-path="url(#p1bffca34e9)">
     <use style="fill:#ff0000;stroke:#000000;stroke-width:2.0;" x="0.0" xlink:href="#C0_0_a811fe30f3" y="72.0"/>
    </g>
    <g clip-path="url(#p1bffca34e9)">
     <use style="fill:#ffffff;stroke:#000000;stroke-width:2.0;" x="0.0" xlink:href="#C0_1_efd71faee5" y="72.0"/>
    </g>
    <g clip-path="url(#p1bffca34e9)">
     <use style="fill:#ffffff;stroke:#000000;stroke-width:2.0;" x="0.0" xlink:href="#C0_2_60ccb7077a" y="72.0"/>
    </g>
   </g>
  </g>
 </g>
 <defs>
  <clipPath id="p1bffca34e9">
   <rect height="72.0" width="72.0" x="0.0" y="0.0"/>
  </clipPath>
 </defs>
</svg>
