<?xml version="1.0" encoding="utf-8" standalone="no"?>
<!DOCTYPE svg PUBLIC "-//W3C//DTD SVG 1.1//EN"
  "http://www.w3.org/Graphics/SVG/1.1/DTD/svg11.dtd">
<!-- Created with matplotlib (http://matplotlib.org/) -->
<svg height="72pt" version="1.1" viewBox="0 0 72 72" width="72pt" xmlns="http://www.w3.org/2000/svg" xmlns:xlink="http://www.w3.org/1999/xlink">
 <defs>
  <style type="text/css">
*{stroke-linecap:butt;stroke-linejoin:round;}
  </style>
 </defs>
 <g id="figure_1">
  <g id="patch_1">
   <path d="
M0 72
L72 72
L72 0
L0 0
z
" style="fill:none;"/>
  </g>
  <g id="axes_1">
   <g id="PatchCollection_1">
    <defs>
     <path d="
M36 -7.5
C43.5583 -7.5 50.808 -10.5029 56.1525 -15.8475
C61.4971 -21.192 64.5 -28.4417 64.5 -36
C64.5 -43.5583 61.4971 -50.808 56.1525 -56.1525
C50.808 -61.4971 43.5583 -64.5 36 -64.5
C28.4417 -64.5 21.192 -61.4971 15.8475 -56.1525
C10.5029 -50.808 7.5 -43.5583 7.5 -36
C7.5 -28.4417 10.5029 -21.192 15.8475 -15.8475
C21.192 -10.5029 28.4417 -7.5 36 -7.5
z
" id="C0_0_a811fe30f3"/>
     <path d="
M8.79673 -28.2162
L8.97776 -28.4231
L9.17296 -28.6068
L9.38153 -28.7683
L9.60263 -28.9085
L9.83543 -29.0288
L10.0791 -29.1306
L10.3327 -29.2152
L10.5955 -29.2841
L10.8666 -29.3388
L11.1454 -29.3808
L11.4311 -29.4112
L11.7229 -29.4316
L12.0203 -29.443
L12.3226 -29.4465
L12.6293 -29.4432
L12.9398 -29.4341
L13.2537 -29.4198
L13.5704 -29.4012
L13.8896 -29.379
L14.2108 -29.3537
L14.5337 -29.3259
L14.858 -29.296
L15.1832 -29.2646
L15.5092 -29.2318
L15.8357 -29.1982
L16.1624 -29.1639
L16.4891 -29.1292
L16.8155 -29.0943
L17.1415 -29.0594
L17.467 -29.0247
L17.7917 -28.9902
L18.1155 -28.9563
L18.4383 -28.9228
L18.76 -28.89
L19.0804 -28.8579
L19.3995 -28.8266
L19.7172 -28.796
L20.0334 -28.7664
L20.348 -28.7376
L20.661 -28.7097
L20.9724 -28.6828
L21.2821 -28.6569
L21.5901 -28.6319
L21.8964 -28.6079
L22.2009 -28.5849
L22.5036 -28.5628
L22.8045 -28.5418
L23.1037 -28.5217
L23.4011 -28.5025
L23.6968 -28.4844
L23.9907 -28.4672
L24.2829 -28.4509
L24.5734 -28.4355
L24.8622 -28.4211
L25.1494 -28.4076
L25.4349 -28.395
L25.7188 -28.3832
L26.0012 -28.3723
L26.282 -28.3623
L26.5614 -28.3531
L26.8393 -28.3447
L27.1159 -28.3371
L27.391 -28.3304
L27.6649 -28.3244
L27.9374 -28.3192
L28.2088 -28.3148
L28.479 -28.3111
L28.748 -28.3082
L29.016 -28.306
L29.283 -28.3045
L29.5489 -28.3038
L29.814 -28.3037
L30.0782 -28.3044
L30.3415 -28.3057
L30.6041 -28.3078
L30.866 -28.3105
L31.1272 -28.3139
L31.3878 -28.3179
L31.6478 -28.3227
L31.9074 -28.328
L32.1665 -28.3341
L32.4252 -28.3408
L32.6835 -28.3481
L32.9416 -28.3561
L33.1995 -28.3648
L33.4572 -28.3741
L33.7148 -28.384
L34.2298 -28.3946
L34.4874 -28.4059
L34.745 -28.4178
L35.0029 -28.4303
L35.2609 -28.4435
L35.5192 -28.4574
L35.7779 -28.4719
L36.0369 -28.4872
L36.2964 -28.5031
L36.5563 -28.5196
L36.8168 -28.5369
L37.078 -28.5548
L37.3397 -28.5735
L37.6022 -28.5929
L37.8655 -28.613
L38.1296 -28.6338
L38.3946 -28.6553
L38.6605 -28.6776
L38.9274 -28.7007
L39.1954 -28.7245
L39.4644 -28.7492
L39.7346 -28.7746
L40.006 -28.8008
L40.2787 -28.8278
L40.5527 -28.8557
L40.828 -28.8844
L41.1047 -28.9139
L41.3829 -28.9444
L41.6626 -28.9757
L41.9439 -29.0079
L42.2267 -29.0411
L42.5112 -29.0752
L42.7974 -29.1102
L43.0853 -29.1462
L43.3749 -29.1832
L43.6664 -29.2212
L43.9597 -29.2602
L44.2548 -29.3002
L44.5519 -29.3412
L44.8509 -29.3833
L45.1518 -29.4265
L45.4547 -29.4707
L45.7596 -29.516
L46.0664 -29.5624
L46.3753 -29.6098
L46.6862 -29.6584
L46.9991 -29.7081
L47.314 -29.7589
L47.6308 -29.8107
L47.9497 -29.8636
L48.2704 -29.9176
L48.5931 -29.9727
L48.9176 -30.0287
L49.2439 -30.0858
L49.5719 -30.1438
L49.9017 -30.2026
L50.233 -30.2624
L50.5658 -30.3229
L50.9001 -30.3841
L51.2356 -30.4459
L51.5723 -30.5081
L51.91 -30.5708
L52.2486 -30.6336
L52.5879 -30.6965
L52.9276 -30.7592
L53.2677 -30.8216
L53.6079 -30.8834
L53.948 -30.9442
L54.2876 -31.0038
L54.6265 -31.0619
L54.9645 -31.1179
L55.3011 -31.1715
L55.6361 -31.2221
L55.969 -31.2691
L56.2995 -31.312
L56.627 -31.3499
L56.9513 -31.3821
L57.2717 -31.4077
L57.5878 -31.4257
L57.8989 -31.4352
L58.2046 -31.435
L58.5041 -31.4238
L58.7969 -31.4005
L59.0823 -31.3637
L59.3596 -31.312
L59.6281 -31.2441
L59.8872 -31.1587
L60.136 -31.0545
L60.374 -30.9304
L60.6005 -30.7854
L60.8148 -30.6186
L61.0166 -30.4296
L61.2051 -30.2179
L61.3801 -29.9836
L61.5411 -29.7269
L61.6878 -29.4482
L61.82 -29.1483
L61.9376 -28.828
L62.0404 -28.4885
L62.1283 -28.131
L62.2013 -27.7567
L62.2595 -27.3671
L62.3028 -26.9635
L62.3315 -26.5473
L62.3457 -26.1199
L62.3454 -25.6826
L62.191 -25.2366
L61.9909 -24.7624
L61.7828 -24.307
L61.5669 -23.8552
L61.3433 -23.4071
L61.1119 -22.9628
L60.8728 -22.5225
L60.6262 -22.0863
L60.3721 -21.6543
L60.1106 -21.2267
L59.8417 -20.8036
L59.5655 -20.3851
L59.2822 -19.9714
L58.9918 -19.5626
L58.6944 -19.1588
L58.39 -18.7601
L58.0789 -18.3666
L57.761 -17.9785
L57.4365 -17.596
L57.1054 -17.219
L56.768 -16.8477
L56.4242 -16.4823
L56.0742 -16.1228
L55.718 -15.7694
L55.3559 -15.4221
L54.9879 -15.0811
L54.6141 -14.7465
L54.2346 -14.4184
L53.8495 -14.0968
L53.459 -13.7819
L53.0633 -13.4738
L52.6623 -13.1725
L52.2562 -12.8782
L51.8452 -12.5909
L51.4293 -12.3107
L51.0088 -12.0378
L50.5837 -11.7722
L50.1541 -11.5139
L49.7202 -11.2632
L49.2822 -11.0199
L48.8401 -10.7842
L48.3941 -10.5563
L47.9443 -10.3361
L47.4908 -10.1237
L47.0339 -9.91916
L46.5736 -9.72259
L46.1101 -9.53402
L45.6436 -9.35352
L45.174 -9.18113
L44.7017 -9.01691
L44.2267 -8.86091
L43.7493 -8.71318
L43.2694 -8.57376
L42.7874 -8.44269
L42.3033 -8.32002
L41.8172 -8.20578
L41.3294 -8.1
L40.84 -8.00273
L40.3491 -7.91398
L39.8569 -7.83379
L39.3635 -7.76218
L38.869 -7.69917
L38.3737 -7.64478
L37.8777 -7.59902
L37.3811 -7.56192
L36.8841 -7.53348
L36.3868 -7.51372
L35.8894 -7.50262
L35.392 -7.50021
L34.8948 -7.50649
L34.398 -7.52144
L33.9016 -7.54506
L33.4059 -7.57736
L32.9109 -7.61831
L32.417 -7.6679
L31.9241 -7.72613
L31.4324 -7.79297
L30.9421 -7.8684
L30.4534 -7.9524
L29.9664 -8.04494
L29.4812 -8.146
L28.9979 -8.25555
L28.5169 -8.37354
L28.0381 -8.49995
L27.5617 -8.63474
L27.0879 -8.77786
L26.6168 -8.92928
L26.1485 -9.08894
L25.6833 -9.2568
L25.2212 -9.4328
L24.7624 -9.6169
L24.307 -9.80903
L23.8552 -10.0091
L23.4071 -10.2172
L22.9628 -10.4331
L22.5225 -10.6567
L22.0863 -10.8881
L21.6543 -11.1272
L21.2267 -11.3738
L20.8036 -11.6279
L20.3851 -11.8894
L19.9714 -12.1583
L19.5626 -12.4345
L19.1588 -12.7178
L18.7601 -13.0082
L18.3666 -13.3056
L17.9785 -13.61
L17.596 -13.9211
L17.219 -14.239
L16.8477 -14.5635
L16.4823 -14.8946
L16.1228 -15.232
L15.7694 -15.5758
L15.4221 -15.9258
L15.0811 -16.282
L14.7465 -16.6441
L14.4184 -17.0121
L14.0968 -17.3859
L13.7819 -17.7654
L13.4738 -18.1505
L13.1725 -18.541
L12.8782 -18.9367
L12.5909 -19.3377
L12.3107 -19.7438
L12.0378 -20.1548
L11.7722 -20.5707
L11.5139 -20.9912
L11.2632 -21.4163
L11.0199 -21.8459
L10.7842 -22.2798
L10.5563 -22.7178
L10.3361 -23.1599
L10.1237 -23.6059
L9.91916 -24.0557
L9.72259 -24.5092
L9.53402 -24.9661
L9.35352 -25.4264
L9.18113 -25.8899
L9.01691 -26.3564
L8.86091 -26.826
z
" id="C0_1_6e9f590321"/>
     <path d="
M9.89116 -47.1221
L10.2074 -47.45
L10.5279 -47.7769
L10.8522 -48.1018
L11.1802 -48.4239
L11.5116 -48.7427
L11.8461 -49.0575
L12.1835 -49.3678
L12.5234 -49.6732
L12.8657 -49.9733
L13.2101 -50.2677
L13.5563 -50.5562
L13.9041 -50.8386
L14.2532 -51.1147
L14.6034 -51.3844
L14.9544 -51.6476
L15.3062 -51.9042
L15.6584 -52.1543
L16.0108 -52.3976
L16.3634 -52.6344
L16.7159 -52.8646
L17.0682 -53.0882
L17.4201 -53.3052
L17.7715 -53.5159
L18.1223 -53.7202
L18.4724 -53.9182
L18.8216 -54.11
L19.1698 -54.2958
L19.5171 -54.4756
L19.8633 -54.6494
L20.2083 -54.8176
L20.5521 -54.98
L20.8946 -55.137
L21.2359 -55.2885
L21.5758 -55.4347
L21.9143 -55.5757
L22.2515 -55.7116
L22.5872 -55.8425
L22.9215 -55.9686
L23.2544 -56.0899
L23.5859 -56.2066
L23.916 -56.3187
L24.2446 -56.4264
L24.5719 -56.5297
L24.8977 -56.6288
L25.2222 -56.7238
L25.5454 -56.8147
L25.8672 -56.9016
L26.1877 -56.9846
L26.507 -57.0638
L26.8251 -57.1392
L27.1419 -57.2111
L27.4576 -57.2793
L27.7722 -57.344
L28.0857 -57.4053
L28.3982 -57.4631
L28.7097 -57.5177
L29.0202 -57.5689
L29.3299 -57.617
L29.6386 -57.6619
L29.9466 -57.7036
L30.2538 -57.7423
L30.5603 -57.778
L30.8661 -57.8106
L31.1714 -57.8403
L31.476 -57.8671
L31.7802 -57.8909
L32.0839 -57.9119
L32.3872 -57.93
L32.6902 -57.9453
L32.9928 -57.9578
L33.2952 -57.9674
L33.5975 -57.9743
L33.8996 -57.9785
L34.2016 -57.9798
L34.5036 -57.9784
L34.8056 -57.9742
L35.1077 -57.9673
L35.4099 -57.9576
L35.7123 -57.9451
L36.015 -57.9299
L36.318 -57.9118
L36.6213 -57.891
L36.925 -57.8673
L37.2291 -57.8407
L37.5338 -57.8114
L37.839 -57.7791
L38.1449 -57.7439
L38.4514 -57.7057
L38.7586 -57.6646
L39.0666 -57.6204
L39.3754 -57.5732
L39.685 -57.5229
L39.9955 -57.4694
L40.307 -57.4127
L40.6195 -57.3528
L40.9331 -57.2896
L41.2477 -57.2231
L41.5634 -57.1531
L41.8803 -57.0797
L42.1983 -57.0027
L42.5177 -56.9222
L42.8382 -56.838
L43.1601 -56.75
L43.4833 -56.6582
L43.8079 -56.5625
L44.1338 -56.4628
L44.4611 -56.3591
L44.7898 -56.2513
L45.12 -56.1392
L45.4516 -56.0228
L45.7846 -55.9021
L46.119 -55.7768
L46.455 -55.6469
L46.7923 -55.5124
L47.131 -55.3731
L47.4712 -55.229
L47.8127 -55.0799
L48.1556 -54.9257
L48.4998 -54.7664
L48.8452 -54.6019
L49.1919 -54.4321
L49.5397 -54.2568
L49.8886 -54.0761
L50.2385 -53.8899
L50.5893 -53.698
L50.941 -53.5004
L51.2934 -53.2972
L51.6464 -53.0881
L52 -52.8732
L52.3539 -52.6526
L52.7081 -52.4261
L53.0624 -52.1938
L53.4166 -51.9557
L53.7705 -51.7119
L54.1241 -51.4625
L54.477 -51.2076
L54.8292 -50.9472
L55.1804 -50.6817
L55.5304 -50.4113
L55.879 -50.1361
L56.2259 -49.8565
L56.571 -49.5728
L56.914 -49.2855
L57.2547 -48.9951
L57.5929 -48.7021
L57.9283 -48.4071
L58.2608 -48.1109
L58.59 -47.8142
L58.916 -47.518
L59.2384 -47.2232
L59.5571 -46.931
L59.8719 -46.6425
L60.1828 -46.3591
L60.4897 -46.0821
L60.7925 -45.813
L61.0911 -45.5533
L61.3856 -45.3047
L61.6759 -45.0688
L61.9622 -44.8472
L62.2444 -44.6414
L62.5225 -44.4529
L62.7968 -44.2831
L63.0671 -44.1332
L63.2075 -44.0039
L63.0553 -44.4853
L62.8948 -44.9589
L62.7261 -45.4297
L62.5493 -45.8976
L62.3644 -46.3626
L62.1715 -46.8243
L61.9706 -47.2828
L61.7618 -47.7378
L61.5452 -48.1893
L61.3207 -48.6371
L61.0886 -49.0809
L60.8488 -49.5209
L60.6014 -49.9567
L60.3466 -50.3882
L60.0843 -50.8154
L59.8147 -51.238
L59.5378 -51.656
L59.2538 -52.0693
L58.9627 -52.4776
L58.6646 -52.8809
L58.3595 -53.2791
L58.0477 -53.672
L57.7292 -54.0596
L57.404 -54.4416
L57.0723 -54.818
L56.7342 -55.1887
L56.3898 -55.5536
L56.0392 -55.9124
L55.6825 -56.2653
L55.3197 -56.6119
L54.9511 -56.9523
L54.5768 -57.2863
L54.1967 -57.6138
L53.8111 -57.9347
L53.4201 -58.2489
L53.0238 -58.5564
L52.6223 -58.857
L52.2157 -59.1506
L51.8042 -59.4372
L51.3879 -59.7166
L50.9669 -59.9888
L50.5413 -60.2537
L50.1113 -60.5112
L49.6771 -60.7613
L49.2386 -61.0038
L48.7961 -61.2387
L48.3497 -61.4659
L47.8996 -61.6853
L47.4458 -61.8969
L46.9885 -62.1007
L46.5279 -62.2964
L46.0641 -62.4842
L45.5972 -62.6639
L45.1274 -62.8355
L44.6548 -62.9989
L44.1796 -63.1541
L43.7019 -63.301
L43.2218 -63.4396
L42.7396 -63.5698
L42.2553 -63.6917
L41.769 -63.8051
L41.2811 -63.91
L40.7915 -64.0064
L40.3004 -64.0943
L39.8081 -64.1737
L39.3146 -64.2444
L38.82 -64.3066
L38.3247 -64.3601
L37.8286 -64.405
L37.3319 -64.4413
L36.8349 -64.4689
L36.3376 -64.4878
L35.8402 -64.498
L35.3428 -64.4996
L34.8456 -64.4924
L34.3488 -64.4766
L33.8525 -64.4521
L33.3569 -64.419
L32.862 -64.3772
L32.3681 -64.3267
L31.8753 -64.2676
L31.3838 -64.1999
L30.8937 -64.1237
L30.4051 -64.0388
L29.9183 -63.9454
L29.4332 -63.8435
L28.9502 -63.7332
L28.4694 -63.6143
L27.9908 -63.4871
L27.5147 -63.3515
L27.0411 -63.2075
L26.5703 -63.0553
L26.1024 -62.8948
L25.6374 -62.7261
L25.1757 -62.5493
L24.7172 -62.3644
L24.2622 -62.1715
L23.8107 -61.9706
L23.3629 -61.7618
L22.9191 -61.5452
L22.4791 -61.3207
L22.0433 -61.0886
L21.6118 -60.8488
L21.1846 -60.6014
L20.762 -60.3466
L20.344 -60.0843
L19.9307 -59.8147
L19.5224 -59.5378
L19.1191 -59.2538
L18.7209 -58.9627
L18.328 -58.6646
L17.9404 -58.3595
L17.5584 -58.0477
L17.182 -57.7292
L16.8113 -57.404
L16.4464 -57.0723
L16.0876 -56.7342
L15.7347 -56.3898
L15.3881 -56.0392
L15.0477 -55.6825
L14.7137 -55.3197
L14.3862 -54.9511
L14.0653 -54.5768
L13.7511 -54.1967
L13.4436 -53.8111
L13.143 -53.4201
L12.8494 -53.0238
L12.5628 -52.6223
L12.2834 -52.2157
L12.0112 -51.8042
L11.7463 -51.3879
L11.4888 -50.9669
L11.2387 -50.5413
L10.9962 -50.1113
L10.7613 -49.6771
L10.5341 -49.2386
L10.3147 -48.7961
L10.1031 -48.3497
z
" id="C0_2_edb294cb2a"/>
    </defs>
    <g clip-path="url(#p1bffca34e9)">
     <use style="fill:#ff0000;stroke:#000000;stroke-width:2.0;" x="0.0" xlink:href="#C0_0_a811fe30f3" y="72.0"/>
    </g>
    <g clip-path="url(#p1bffca34e9)">
     <use style="fill:#ffffff;stroke:#000000;stroke-width:2.0;" x="0.0" xlink:href="#C0_1_6e9f590321" y="72.0"/>
    </g>
    <g clip-path="url(#p1bffca34e9)">
     <use style="fill:#ffffff;stroke:#000000;stroke-width:2.0;" x="0.0" xlink:href="#C0_2_edb294cb2a" y="72.0"/>
    </g>
   </g>
  </g>
 </g>
 <defs>
  <clipPath id="p1bffca34e9">
   <rect height="72.0" width="72.0" x="0.0" y="0.0"/>
  </clipPath>
 </defs>
</svg>
