<?xml version="1.0" encoding="utf-8" standalone="no"?>
<!DOCTYPE svg PUBLIC "-//W3C//DTD SVG 1.1//EN"
  "http://www.w3.org/Graphics/SVG/1.1/DTD/svg11.dtd">
<!-- Created with matplotlib (http://matplotlib.org/) -->
<svg height="72pt" version="1.1" viewBox="0 0 72 72" width="72pt" xmlns="http://www.w3.org/2000/svg" xmlns:xlink="http://www.w3.org/1999/xlink">
 <defs>
  <style type="text/css">
*{stroke-linecap:butt;stroke-linejoin:round;}
  </style>
 </defs>
 <g id="figure_1">
  <g id="patch_1">
   <path d="
M0 72
L72 72
L72 0
L0 0
z
" style="fill:none;"/>
  </g>
  <g id="axes_1">
   <g id="PatchCollection_1">
    <defs>
     <path d="
M36 -7.5
C43.5583 -7.5 50.808 -10.5029 56.1525 -15.8475
C61.4971 -21.192 64.5 -28.4417 64.5 -36
C64.5 -43.5583 61.4971 -50.808 56.1525 -56.1525
C50.808 -61.4971 43.5583 -64.5 36 -64.5
C28.4417 -64.5 21.192 -61.4971 15.8475 -56.1525
C10.5029 -50.808 7.5 -43.5583 7.5 -36
C7.5 -28.4417 10.5029 -21.192 15.8475 -15.8475
C21.192 -10.5029 28.4417 -7.5 36 -7.5
z
" id="C0_0_a811fe30f3"/>
     <path d="
M9.17156 -45.398
L9.38228 -45.4082
L9.5925 -45.4165
L9.80226 -45.423
L10.0116 -45.4277
L10.2205 -45.4307
L10.429 -45.432
L10.6372 -45.4318
L10.8451 -45.43
L11.0527 -45.4268
L11.2601 -45.4221
L11.4672 -45.416
L11.6742 -45.4085
L11.8811 -45.3997
L12.0879 -45.3897
L12.2946 -45.3783
L12.5013 -45.3658
L12.7081 -45.352
L12.9149 -45.3371
L13.1219 -45.3209
L13.329 -45.3037
L13.5363 -45.2853
L13.7439 -45.2658
L13.9518 -45.2453
L14.16 -45.2236
L14.3686 -45.2009
L14.5776 -45.1771
L14.7872 -45.1523
L15.2079 -45.1264
L15.4192 -45.0995
L15.6312 -45.0715
L15.8439 -45.0425
L16.0574 -45.0125
L16.2717 -44.9814
L16.487 -44.9493
L16.7031 -44.9161
L16.9203 -44.8819
L17.1386 -44.8466
L17.3579 -44.8103
L17.5784 -44.7729
L17.8002 -44.7344
L18.0232 -44.6949
L18.2476 -44.6542
L18.4733 -44.6124
L18.7006 -44.5695
L18.9293 -44.5254
L19.1596 -44.4802
L19.3916 -44.4337
L19.6253 -44.3861
L19.8607 -44.3373
L20.0979 -44.2872
L20.3371 -44.2358
L20.5782 -44.1831
L20.8213 -44.1291
L21.0665 -44.0738
L21.3138 -44.0171
L21.5633 -43.959
L21.8151 -43.8994
L22.0693 -43.8384
L22.3258 -43.7759
L22.5848 -43.7118
L22.8463 -43.6462
L23.1104 -43.5789
L23.3771 -43.51
L23.6466 -43.4394
L23.9188 -43.3671
L24.1938 -43.293
L24.4716 -43.2171
L24.7524 -43.1393
L25.0362 -43.0596
L25.323 -42.978
L25.6128 -42.8943
L25.9058 -42.8086
L26.2018 -42.7207
L26.5011 -42.6307
L26.8035 -42.5385
L27.1091 -42.444
L27.418 -42.3471
L27.7301 -42.2479
L28.0454 -42.1461
L28.3639 -42.0419
L28.6857 -41.9351
L29.0106 -41.8256
L29.3386 -41.7134
L29.6696 -41.5984
L30.0037 -41.4806
L30.3406 -41.3598
L30.6804 -41.2361
L31.0228 -41.1092
L31.3678 -40.9792
L31.7151 -40.846
L32.0646 -40.7094
L32.4161 -40.5694
L32.7692 -40.4259
L33.1238 -40.2788
L33.4795 -40.1279
L33.8359 -39.9733
L34.1926 -39.8147
L34.5492 -39.652
L34.9051 -39.4851
L35.2599 -39.3138
L35.6127 -39.138
L35.9631 -38.9574
L36.31 -38.7719
L36.6527 -38.5812
L36.9902 -38.385
L37.3213 -38.1831
L37.645 -37.9752
L37.9598 -37.7609
L38.2645 -37.5397
L38.5575 -37.3114
L38.8373 -37.0754
L39.1022 -36.8313
L39.3506 -36.5786
L39.581 -36.3168
L39.7919 -36.0457
L39.982 -35.7648
L40.1502 -35.4739
L40.296 -35.1728
L40.4189 -34.8618
L40.5189 -34.5409
L40.5964 -34.2106
L40.6521 -33.8713
L40.6869 -33.5239
L40.702 -33.1691
L40.6987 -32.8078
L40.6784 -32.4409
L40.6424 -32.0693
L40.592 -31.694
L40.5287 -31.3158
L40.4535 -30.9356
L40.3677 -30.5542
L40.2724 -30.1722
L40.1683 -29.7904
L40.0565 -29.4093
L39.9378 -29.0295
L39.8128 -28.6514
L39.6822 -28.2756
L39.5466 -27.9023
L39.4065 -27.532
L39.2624 -27.1649
L39.1147 -26.8014
L38.9639 -26.4415
L38.8103 -26.0857
L38.6541 -25.7339
L38.4958 -25.3864
L38.3355 -25.0433
L38.1736 -24.7047
L38.0101 -24.3707
L37.8454 -24.0413
L37.6796 -23.7166
L37.5129 -23.3967
L37.3454 -23.0815
L37.1773 -22.771
L37.0086 -22.4653
L36.8395 -22.1644
L36.6701 -21.8682
L36.5005 -21.5767
L36.3307 -21.2899
L36.1609 -21.0077
L35.991 -20.73
L35.8212 -20.4569
L35.6515 -20.1882
L35.4819 -19.924
L35.3124 -19.664
L35.1432 -19.4084
L34.9742 -19.1569
L34.8054 -18.9096
L34.6369 -18.6663
L34.4687 -18.427
L34.3007 -18.1916
L34.1331 -17.96
L33.9657 -17.7322
L33.7986 -17.5081
L33.6318 -17.2875
L33.4653 -17.0705
L33.299 -16.857
L33.133 -16.6468
L32.9672 -16.4399
L32.8016 -16.2363
L32.6363 -16.0358
L32.4711 -15.8384
L32.3061 -15.644
L32.1412 -15.4526
L31.9765 -15.2641
L31.8118 -15.0784
L31.6472 -14.8955
L31.4826 -14.7153
L31.3181 -14.5377
L31.1535 -14.3627
L30.9888 -14.1902
L30.824 -14.0202
L30.6591 -13.8527
L30.494 -13.6875
L30.3288 -13.5246
L30.1633 -13.364
L29.9975 -13.2057
L29.8313 -13.0495
L29.6648 -12.8955
L29.4979 -12.7436
L29.3306 -12.5938
L29.1627 -12.446
L28.9944 -12.3002
L28.8254 -12.1563
L28.6558 -12.0145
L28.4855 -11.8745
L28.3145 -11.7364
L28.1426 -11.6002
L27.97 -11.4659
L27.7964 -11.3334
L27.6219 -11.2027
L27.4464 -11.0738
L27.2699 -10.9467
L27.0922 -10.8214
L26.9133 -10.6978
L26.7332 -10.5761
L26.5518 -10.4561
L26.369 -10.3379
L26.1847 -10.2215
L25.999 -10.1069
L25.8116 -9.99409
L25.6226 -9.88312
L25.4319 -9.77399
L24.9252 -9.66672
L24.4686 -9.73978
L24.0155 -9.93706
L23.566 -10.1423
L23.1204 -10.3554
L22.6786 -10.5763
L22.241 -10.8049
L21.8075 -11.0413
L21.3783 -11.2852
L20.9536 -11.5366
L20.5334 -11.7956
L20.118 -12.0618
L19.7074 -12.3354
L19.3018 -12.6162
L18.9013 -12.9041
L18.5059 -13.199
L18.1159 -13.5009
L17.7314 -13.8097
L17.3524 -14.1252
L16.9791 -14.4473
L16.6116 -14.7761
L16.25 -15.1113
L15.8944 -15.4528
L15.5449 -15.8006
L15.2017 -16.1546
L14.8648 -16.5146
L14.5343 -16.8806
L14.2104 -17.2523
L13.8931 -17.6298
L13.5826 -18.0129
L13.2789 -18.4014
L12.982 -18.7954
L12.6923 -19.1945
L12.4096 -19.5988
L12.1341 -20.0081
L11.8658 -20.4222
L11.6049 -20.8411
L11.3515 -21.2646
L11.1055 -21.6926
L10.8672 -22.125
L10.6365 -22.5616
L10.4135 -23.0022
L10.1983 -23.4469
L9.99099 -23.8953
L9.79159 -24.3475
L9.60017 -24.8032
L9.41679 -25.2623
L9.24151 -25.7246
L9.07438 -26.1901
L8.91545 -26.6586
L8.76477 -27.13
L8.62239 -27.604
L8.48835 -28.0806
L8.36269 -28.5596
L8.24544 -29.0409
L8.13665 -29.5243
L8.03635 -30.0097
L7.94457 -30.4969
L7.86133 -30.9857
L7.78666 -31.4761
L7.72059 -31.9679
L7.66313 -32.4609
L7.61431 -32.955
L7.57413 -33.45
L7.54261 -33.9458
L7.51975 -34.4422
L7.50557 -34.9391
L7.50008 -35.4363
L7.50326 -35.9337
L7.51512 -36.4311
L7.53567 -36.9284
L7.56488 -37.4254
L7.60275 -37.9219
L7.64927 -38.4179
L7.70443 -38.9131
L7.76821 -39.4075
L7.84059 -39.9008
L7.92154 -40.3929
L8.01105 -40.8837
L8.10908 -41.373
L8.21561 -41.8606
L8.33061 -42.3465
L8.45403 -42.8304
L8.58584 -43.3123
L8.726 -43.7919
L8.87447 -44.2692
z
" id="C0_1_2f1832a989"/>
     <path d="
M46.727 -62.3559
L46.7912 -62.1448
L46.8537 -61.9318
L46.9146 -61.7169
L46.9739 -61.4999
L47.0315 -61.2809
L47.0876 -61.0597
L47.1421 -60.8363
L47.195 -60.6106
L47.2464 -60.3826
L47.2962 -60.1522
L47.3444 -59.9193
L47.3911 -59.6839
L47.4362 -59.4459
L47.4797 -59.2052
L47.5217 -58.9617
L47.5621 -58.7154
L47.6009 -58.4661
L47.6381 -58.2139
L47.6737 -57.9587
L47.7076 -57.7003
L47.74 -57.4388
L47.7707 -57.1739
L47.7997 -56.9057
L47.8271 -56.6341
L47.8527 -56.359
L47.8767 -56.0803
L47.8989 -55.798
L47.9194 -55.512
L47.938 -55.2222
L47.9549 -54.9286
L47.97 -54.6311
L47.9833 -54.3297
L47.9947 -54.0243
L48.0042 -53.7148
L48.0119 -53.4012
L48.0177 -53.0834
L48.0216 -52.7615
L48.0235 -52.4354
L48.0236 -52.1051
L48.0218 -51.7705
L48.018 -51.4317
L48.0124 -51.0887
L48.0049 -50.7415
L47.9956 -50.3901
L47.9846 -50.0345
L47.9718 -49.6749
L47.9573 -49.3112
L47.9413 -48.9437
L47.9238 -48.5723
L47.905 -48.1972
L47.885 -47.8186
L47.864 -47.4366
L47.8423 -47.0514
L47.8199 -46.6633
L47.7973 -46.2725
L47.7748 -45.8792
L47.7528 -45.4839
L47.7317 -45.0868
L47.712 -44.6884
L47.6943 -44.2891
L47.6793 -43.8893
L47.6678 -43.4897
L47.6606 -43.0908
L47.6587 -42.6933
L47.6632 -42.2978
L47.6751 -41.9051
L47.6959 -41.516
L47.7267 -41.1313
L47.7691 -40.7518
L47.8243 -40.3783
L47.8938 -40.0116
L47.9788 -39.6526
L48.0804 -39.3017
L48.1993 -38.9596
L48.3361 -38.6266
L48.491 -38.303
L48.6638 -37.9887
L48.8539 -37.6836
L49.0606 -37.3876
L49.2826 -37.1
L49.5188 -36.8206
L49.7677 -36.5489
L50.0278 -36.2841
L50.2977 -36.0259
L50.5759 -35.7737
L50.8611 -35.527
L51.152 -35.2855
L51.4474 -35.0486
L51.7463 -34.816
L52.0475 -34.5875
L52.3504 -34.3626
L52.6541 -34.1413
L52.9578 -33.9233
L53.2611 -33.7085
L53.5632 -33.4965
L53.8638 -33.2874
L54.1625 -33.0811
L54.4588 -32.8773
L54.7524 -32.676
L55.043 -32.4773
L55.3305 -32.2808
L55.6146 -32.0867
L55.8951 -31.8949
L56.1719 -31.7053
L56.4449 -31.5178
L56.714 -31.3324
L56.979 -31.1491
L57.24 -30.9679
L57.4969 -30.7886
L57.7497 -30.6112
L57.9983 -30.4358
L58.2428 -30.2623
L58.4831 -30.0906
L58.7193 -29.9206
L58.9514 -29.7525
L59.1794 -29.586
L59.4034 -29.4212
L59.6234 -29.2581
L59.8395 -29.0965
L60.0517 -28.9365
L60.26 -28.778
L60.4645 -28.621
L60.6654 -28.4654
L60.8625 -28.3112
L61.0561 -28.1584
L61.2461 -28.0068
L61.4327 -27.8566
L61.6158 -27.7075
L61.7956 -27.5596
L61.9722 -27.4129
L62.1455 -27.2672
L62.3157 -27.1226
L62.4828 -26.979
L62.6469 -26.8363
L63.0831 -26.6946
L63.2339 -27.1256
L63.3763 -27.5996
L63.5104 -28.0762
L63.6362 -28.5552
L63.7535 -29.0364
L63.8624 -29.5198
L63.9628 -30.0052
L64.0546 -30.4923
L64.1379 -30.9812
L64.2127 -31.4716
L64.2788 -31.9633
L64.3364 -32.4563
L64.3853 -32.9504
L64.4255 -33.4454
L64.4571 -33.9412
L64.4801 -34.4376
L64.4943 -34.9345
L64.4999 -35.4317
L64.4968 -35.9291
L64.485 -36.4265
L64.4646 -36.9237
L64.4354 -37.4207
L64.3976 -37.9173
L64.3512 -38.4133
L64.2961 -38.9085
L64.2324 -39.4029
L64.1601 -39.8962
L64.0793 -40.3883
L63.9898 -40.8791
L63.8919 -41.3684
L63.7854 -41.8561
L63.6705 -42.342
L63.5472 -42.8259
L63.4154 -43.3078
L63.2753 -43.7875
L63.1269 -44.2647
L62.9703 -44.7395
L62.8054 -45.2116
L62.6324 -45.6809
L62.4512 -46.1472
L62.262 -46.6105
L62.0648 -47.0705
L61.8597 -47.5272
L61.6466 -47.9803
L61.4258 -48.4298
L61.1972 -48.8755
L60.961 -49.3173
L60.7171 -49.755
L60.4657 -50.1885
L60.2069 -50.6177
L59.9407 -51.0425
L59.6672 -51.4627
L59.3864 -51.8781
L59.0986 -52.2888
L58.8037 -52.6944
L58.5019 -53.095
L58.1932 -53.4904
L57.8778 -53.8805
L57.5557 -54.2651
L57.227 -54.6441
L56.8919 -55.0175
L56.5504 -55.385
L56.2026 -55.7467
L55.8487 -56.1023
L55.4888 -56.4519
L55.1229 -56.7951
L54.7512 -57.1321
L54.3737 -57.4626
L53.9907 -57.7866
L53.6022 -58.104
L53.2083 -58.4146
L52.8092 -58.7184
L52.405 -59.0152
L51.9957 -59.3051
L51.5816 -59.5878
L51.1628 -59.8634
L50.7393 -60.1317
L50.3114 -60.3927
L49.8791 -60.6462
L49.4425 -60.8922
L49.0019 -61.1306
L48.5573 -61.3614
L48.1089 -61.5845
L47.6568 -61.7997
z
" id="C0_2_11ca73af07"/>
    </defs>
    <g clip-path="url(#p1bffca34e9)">
     <use style="fill:#ffffff;stroke:#000000;stroke-width:2.0;" x="0.0" xlink:href="#C0_0_a811fe30f3" y="72.0"/>
    </g>
    <g clip-path="url(#p1bffca34e9)">
     <use style="fill:#ff0000;stroke:#000000;stroke-width:2.0;" x="0.0" xlink:href="#C0_1_2f1832a989" y="72.0"/>
    </g>
    <g clip-path="url(#p1bffca34e9)">
     <use style="fill:#ff0000;stroke:#000000;stroke-width:2.0;" x="0.0" xlink:href="#C0_2_11ca73af07" y="72.0"/>
    </g>
   </g>
  </g>
 </g>
 <defs>
  <clipPath id="p1bffca34e9">
   <rect height="72.0" width="72.0" x="0.0" y="0.0"/>
  </clipPath>
 </defs>
</svg>
