<?xml version="1.0" encoding="utf-8" standalone="no"?>
<!DOCTYPE svg PUBLIC "-//W3C//DTD SVG 1.1//EN"
  "http://www.w3.org/Graphics/SVG/1.1/DTD/svg11.dtd">
<!-- Created with matplotlib (http://matplotlib.org/) -->
<svg height="72pt" version="1.1" viewBox="0 0 72 72" width="72pt" xmlns="http://www.w3.org/2000/svg" xmlns:xlink="http://www.w3.org/1999/xlink">
 <defs>
  <style type="text/css">
*{stroke-linecap:butt;stroke-linejoin:round;}
  </style>
 </defs>
 <g id="figure_1">
  <g id="patch_1">
   <path d="
M0 72
L72 72
L72 0
L0 0
z
" style="fill:none;"/>
  </g>
  <g id="axes_1">
   <g id="PatchCollection_1">
    <defs>
     <path d="
M36 -7.5
C43.5583 -7.5 50.808 -10.5029 56.1525 -15.8475
C61.4971 -21.192 64.5 -28.4417 64.5 -36
C64.5 -43.5583 61.4971 -50.808 56.1525 -56.1525
C50.808 -61.4971 43.5583 -64.5 36 -64.5
C28.4417 -64.5 21.192 -61.4971 15.8475 -56.1525
C10.5029 -50.808 7.5 -43.5583 7.5 -36
C7.5 -28.4417 10.5029 -21.192 15.8475 -15.8475
C21.192 -10.5029 28.4417 -7.5 36 -7.5
z
" id="C0_0_a811fe30f3"/>
     <path d="
M35.7852 -64.3725
L35.8718 -64.1507
L35.9462 -63.9258
L36.0088 -63.698
L36.0599 -63.4675
L36.0999 -63.2344
L36.1292 -62.9989
L36.1481 -62.7611
L36.1571 -62.5212
L36.1566 -62.2794
L36.147 -62.0358
L36.1288 -61.7904
L36.1023 -61.5435
L36.068 -61.295
L36.0263 -61.0452
L35.9776 -60.7942
L35.9224 -60.5419
L35.861 -60.2885
L35.7939 -60.0342
L35.7213 -59.7789
L35.6437 -59.5228
L35.5614 -59.266
L35.4748 -59.0084
L35.3841 -58.7503
L35.2897 -58.4915
L35.1919 -58.2324
L35.091 -57.9727
L34.9872 -57.7128
L34.8807 -57.4525
L34.7719 -57.192
L34.6609 -56.9314
L34.548 -56.6705
L34.4333 -56.4096
L34.3171 -56.1487
L34.1995 -55.8878
L34.0806 -55.6269
L33.9607 -55.3661
L33.8399 -55.1054
L33.7183 -54.8449
L33.596 -54.5846
L33.4731 -54.3245
L33.3498 -54.0647
L33.2262 -53.8051
L33.1023 -53.5458
L32.9782 -53.2869
L32.854 -53.0283
L32.7298 -52.77
L32.6056 -52.5121
L32.4816 -52.2546
L32.3577 -51.9975
L32.2339 -51.7407
L32.1105 -51.4844
L31.9873 -51.2285
L31.8644 -50.9729
L31.7419 -50.7178
L31.6197 -50.4631
L31.498 -50.2088
L31.3767 -49.9549
L31.2558 -49.7014
L31.1354 -49.4482
L31.0155 -49.1954
L30.8961 -48.943
L30.7772 -48.691
L30.6587 -48.4393
L30.5408 -48.1879
L30.4235 -47.9368
L30.3066 -47.686
L30.1903 -47.4355
L30.0745 -47.1852
L29.9592 -46.9352
L29.8444 -46.6854
L29.7302 -46.4358
L29.6165 -46.1863
L29.5033 -45.937
L29.3906 -45.6879
L29.2783 -45.4388
L29.1666 -45.1898
L29.0554 -44.9409
L28.9446 -44.6919
L28.8343 -44.443
L28.7244 -44.1941
L28.615 -43.9451
L28.5061 -43.696
L28.3975 -43.4469
L28.2894 -43.1975
L28.1816 -42.9481
L28.0743 -42.6984
L27.8607 -42.4485
L27.7545 -42.1984
L27.6486 -41.948
L27.543 -41.6972
L27.4378 -41.4462
L27.3328 -41.1948
L27.2282 -40.943
L27.1238 -40.6908
L27.0197 -40.4381
L26.9158 -40.1849
L26.8122 -39.9313
L26.7088 -39.6771
L26.6057 -39.4224
L26.5027 -39.1671
L26.3999 -38.9112
L26.2973 -38.6546
L26.1949 -38.3974
L26.0926 -38.1395
L25.9905 -37.8809
L25.8884 -37.6216
L25.7865 -37.3615
L25.6847 -37.1007
L25.5829 -36.8391
L25.4812 -36.5766
L25.3796 -36.3134
L25.278 -36.0493
L25.1764 -35.7844
L25.0749 -35.5186
L24.9733 -35.2519
L24.8717 -34.9844
L24.7701 -34.716
L24.6684 -34.4467
L24.5666 -34.1765
L24.4647 -33.9054
L24.3627 -33.6335
L24.2606 -33.3606
L24.1583 -33.087
L24.0558 -32.8124
L23.9532 -32.537
L23.8503 -32.2608
L23.7472 -31.9839
L23.6438 -31.7061
L23.54 -31.4276
L23.436 -31.1485
L23.3316 -30.8687
L23.2268 -30.5883
L23.1215 -30.3073
L23.0157 -30.0259
L22.9095 -29.7441
L22.8026 -29.4619
L22.6952 -29.1794
L22.5871 -28.8968
L22.4783 -28.614
L22.3686 -28.3313
L22.2582 -28.0487
L22.1468 -27.7663
L22.0345 -27.4843
L21.921 -27.2027
L21.8065 -26.9219
L21.6907 -26.6418
L21.5736 -26.3626
L21.455 -26.0846
L21.3349 -25.8079
L21.2132 -25.5327
L21.0897 -25.2592
L20.9644 -24.9876
L20.837 -24.7182
L20.7074 -24.4511
L20.5756 -24.1867
L20.4413 -23.9252
L20.3044 -23.6668
L20.1648 -23.4118
L20.0222 -23.1606
L19.8765 -22.9134
L19.7276 -22.6706
L19.5752 -22.4323
L19.4192 -22.1991
L19.2594 -21.9711
L19.0957 -21.7488
L18.9278 -21.5324
L18.7556 -21.3224
L18.579 -21.119
L18.3978 -20.9226
L18.2118 -20.7335
L18.021 -20.5521
L17.8253 -20.3787
L17.6244 -20.2137
L17.4185 -20.0573
L17.2073 -19.9099
L16.9909 -19.7717
L16.7693 -19.643
L16.5424 -19.5242
L16.3103 -19.4155
L16.0731 -19.3171
L15.8309 -19.2291
L15.5837 -19.152
L15.3316 -19.0857
L15.0749 -19.0305
L14.8137 -18.9865
L14.5482 -18.9539
L14.2786 -18.9327
L14.0052 -18.9231
L13.7281 -18.9251
L13.4477 -18.9387
L13.1642 -18.964
L12.8452 -19.001
L12.5587 -19.3836
L12.2794 -19.7903
L12.0073 -20.2019
L11.7425 -20.6182
L11.4851 -21.0393
L11.2351 -21.4649
L10.9927 -21.895
L10.758 -22.3294
L10.5309 -22.7679
L10.3115 -23.2104
L10.1 -23.6569
L9.89641 -24.1071
L9.70075 -24.5609
L9.5131 -25.0182
L9.33351 -25.4789
L9.16205 -25.9427
L8.99876 -26.4097
L8.8437 -26.8795
L8.69691 -27.3521
L8.55844 -27.8274
L8.42832 -28.3052
L8.30661 -28.7852
L8.19333 -29.2675
L8.08852 -29.7519
L7.99221 -30.2381
L7.90444 -30.7261
L7.82522 -31.2157
L7.75458 -31.7068
L7.69255 -32.1992
L7.63914 -32.6927
L7.59437 -33.1872
L7.55825 -33.6826
L7.5308 -34.1787
L7.51202 -34.6754
L7.50191 -35.1724
L7.50049 -35.6697
L7.50775 -36.1672
L7.52369 -36.6645
L7.5483 -37.1617
L7.58157 -37.6585
L7.62351 -38.1548
L7.67409 -38.6504
L7.73329 -39.1453
L7.80111 -39.6391
L7.87752 -40.1319
L7.96249 -40.6234
L8.056 -41.1135
L8.15803 -41.602
L8.26853 -42.0889
L8.38749 -42.5739
L8.51485 -43.0568
L8.65059 -43.5377
L8.79466 -44.0162
L8.94701 -44.4923
L9.1076 -44.9658
L9.27639 -45.4366
L9.45332 -45.9045
L9.63833 -46.3694
L9.83138 -46.8311
L10.0324 -47.2895
L10.2413 -47.7445
L10.4581 -48.1959
L10.6826 -48.6436
L10.9149 -49.0874
L11.1548 -49.5273
L11.4023 -49.963
L11.6572 -50.3945
L11.9196 -50.8216
L12.1893 -51.2442
L12.4663 -51.6621
L12.7504 -52.0753
L13.0417 -52.4836
L13.3399 -52.8868
L13.645 -53.2849
L13.9569 -53.6778
L14.2756 -54.0652
L14.6008 -54.4472
L14.9326 -54.8235
L15.2708 -55.1941
L15.6153 -55.5589
L15.966 -55.9177
L16.3228 -56.2704
L16.6856 -56.6169
L17.0543 -56.9572
L17.4288 -57.2911
L17.8089 -57.6185
L18.1946 -57.9393
L18.5857 -58.2535
L18.9821 -58.5608
L19.3836 -58.8613
L19.7903 -59.1548
L20.2019 -59.4413
L20.6182 -59.7206
L21.0393 -59.9927
L21.4649 -60.2575
L21.895 -60.5149
L22.3294 -60.7649
L22.7679 -61.0073
L23.2104 -61.242
L23.6569 -61.4691
L24.1071 -61.6885
L24.5609 -61.9
L25.0182 -62.1036
L25.4789 -62.2993
L25.9427 -62.4869
L26.4097 -62.6665
L26.8795 -62.8379
L27.3521 -63.0012
L27.8274 -63.1563
L28.3052 -63.3031
L28.7852 -63.4416
L29.2675 -63.5717
L29.7519 -63.6934
L30.2381 -63.8067
L30.7261 -63.9115
L31.2157 -64.0078
L31.7068 -64.0956
L32.1992 -64.1748
L32.6927 -64.2454
L33.1872 -64.3075
L33.6826 -64.3609
L34.1787 -64.4056
L34.6754 -64.4417
L35.1724 -64.4692
z
" id="C0_1_b12a071048"/>
     <path d="
M58.8478 -52.7492
L58.8109 -52.4569
L58.7756 -52.1604
L58.7417 -51.8601
L58.709 -51.5562
L58.6771 -51.2489
L58.6459 -50.9388
L58.6151 -50.6259
L58.5845 -50.3105
L58.5539 -49.993
L58.5231 -49.6736
L58.492 -49.3526
L58.4603 -49.0301
L58.428 -48.7063
L58.3949 -48.3816
L58.3608 -48.0561
L58.3257 -47.7299
L58.2895 -47.4033
L58.252 -47.0765
L58.2132 -46.7495
L58.1731 -46.4226
L58.1315 -46.0958
L58.0884 -45.7694
L58.0438 -45.4434
L57.9975 -45.1179
L57.9497 -44.793
L57.9002 -44.469
L57.8491 -44.1457
L57.7962 -43.8234
L57.7417 -43.502
L57.6854 -43.1817
L57.6275 -42.8625
L57.5678 -42.5444
L57.5063 -42.2276
L57.4432 -41.912
L57.3783 -41.5977
L57.3117 -41.2848
L57.2435 -40.9732
L57.1735 -40.6629
L57.1018 -40.3541
L57.0284 -40.0466
L56.9534 -39.7406
L56.8767 -39.436
L56.7983 -39.1329
L56.7183 -38.8311
L56.6367 -38.5308
L56.5535 -38.232
L56.4686 -37.9345
L56.3822 -37.6385
L56.2942 -37.3438
L56.2046 -37.0505
L56.1134 -36.7586
L56.0206 -36.4681
L55.9263 -36.1789
L55.8305 -35.891
L55.7331 -35.6044
L55.6342 -35.3191
L55.5337 -35.035
L55.4317 -34.7521
L55.3282 -34.4704
L55.2232 -34.1899
L55.1167 -33.9106
L55.0086 -33.6323
L54.899 -33.3552
L54.7879 -33.0791
L54.6752 -32.804
L54.5611 -32.5299
L54.4454 -32.2569
L54.3281 -31.9847
L54.2093 -31.7135
L54.089 -31.4431
L53.9671 -31.1736
L53.8436 -30.905
L53.7185 -30.6371
L53.5919 -30.37
L53.4636 -30.1036
L53.3338 -29.8379
L53.2023 -29.5729
L53.0692 -29.3086
L52.9344 -29.0448
L52.798 -28.7817
L52.6598 -28.5191
L52.52 -28.2571
L52.3785 -27.9956
L52.2352 -27.7346
L52.0902 -27.474
L51.9434 -27.2139
L51.7948 -26.9542
L51.6445 -26.6949
L51.4923 -26.4359
L51.3382 -26.1773
L51.1823 -25.9191
L51.0245 -25.6611
L50.8648 -25.4034
L50.7032 -25.146
L50.5396 -24.8889
L50.3741 -24.632
L50.2066 -24.3753
L50.0371 -24.1189
L49.8656 -23.8626
L49.6921 -23.6065
L49.5165 -23.3507
L49.3388 -23.0949
L49.1591 -22.8394
L48.9772 -22.584
L48.7933 -22.3288
L48.6072 -22.0737
L48.419 -21.8188
L48.2287 -21.564
L48.0362 -21.3094
L47.8417 -21.055
L47.6449 -20.8007
L47.446 -20.5466
L47.245 -20.2927
L47.0419 -20.039
L46.8367 -19.7854
L46.6294 -19.5321
L46.42 -19.2791
L46.2086 -19.0262
L45.9951 -18.7737
L45.7797 -18.5214
L45.5623 -18.2695
L45.3431 -18.0178
L45.1221 -17.7666
L44.8992 -17.5157
L44.6747 -17.2652
L44.4486 -17.0152
L44.2209 -16.7656
L43.9918 -16.5165
L43.7613 -16.2679
L43.5297 -16.0199
L43.2969 -15.7724
L43.0632 -15.5256
L42.8287 -15.2794
L42.5935 -15.0339
L42.3578 -14.789
L42.1219 -14.5449
L41.8858 -14.3015
L41.6499 -14.0589
L41.4142 -13.8171
L41.1792 -13.5761
L40.945 -13.3359
L40.7118 -13.0965
L40.48 -12.858
L40.2499 -12.6204
L40.0217 -12.3836
L39.7959 -12.1477
L39.5726 -11.9126
L39.3522 -11.6784
L39.1352 -11.4451
L38.9219 -11.2126
L38.7125 -10.9809
L38.5076 -10.75
L38.3075 -10.5199
L38.1125 -10.2906
L37.9231 -10.0621
L37.7396 -9.8343
L37.5625 -9.60722
L37.3921 -9.38084
L37.2287 -9.15516
L37.0728 -8.93016
L36.9247 -8.70584
L36.7846 -8.4822
L36.653 -8.25925
L36.5302 -8.03699
L36.4163 -7.81546
L36.8101 -7.59468
L37.3072 -7.51152
L37.8038 -7.52999
L38.2999 -7.55714
L38.7954 -7.59295
L39.2899 -7.63742
L39.7835 -7.69053
L40.2759 -7.75225
L40.767 -7.82259
L41.2567 -7.9015
L41.7447 -7.98898
L42.2311 -8.08499
L42.7155 -8.1895
L43.1978 -8.30248
L43.678 -8.4239
L44.1558 -8.55372
L44.6312 -8.6919
L45.1039 -8.8384
L45.5739 -8.99317
L46.0409 -9.15617
L46.5049 -9.32734
L46.9656 -9.50665
L47.4231 -9.69402
L47.877 -9.8894
L48.3274 -10.0927
L48.7739 -10.304
L49.2166 -10.523
L49.6553 -10.7498
L50.0898 -10.9843
L50.52 -11.2265
L50.9458 -11.4761
L51.367 -11.7333
L51.7836 -11.9978
L52.1953 -12.2697
L52.6021 -12.5487
L53.0039 -12.835
L53.4005 -13.1282
L53.7918 -13.4285
L54.1776 -13.7356
L54.5579 -14.0495
L54.9326 -14.3701
L55.3015 -14.6973
L55.6645 -15.0309
L56.0216 -15.371
L56.3725 -15.7173
L56.7172 -16.0698
L57.0556 -16.4284
L57.3876 -16.793
L57.7131 -17.1634
L58.032 -17.5395
L58.3442 -17.9212
L58.6495 -18.3085
L58.948 -18.7012
L59.2394 -19.0991
L59.5238 -19.5022
L59.801 -19.9103
L60.071 -20.3233
L60.3337 -20.741
L60.5889 -21.1635
L60.8366 -21.5904
L61.0768 -22.0217
L61.3093 -22.4573
L61.5341 -22.897
L61.7512 -23.3407
L61.9604 -23.7883
L62.1617 -24.2396
L62.355 -24.6944
L62.5403 -25.1527
L62.7175 -25.6143
L62.8866 -26.0791
L63.0475 -26.5469
L63.2001 -27.0176
L63.3445 -27.491
L63.4805 -27.967
L63.6082 -28.4455
L63.7274 -28.9262
L63.8382 -29.4091
L63.9406 -29.894
L64.0344 -30.3808
L64.1196 -30.8693
L64.1963 -31.3593
L64.2645 -31.8508
L64.324 -32.3435
L64.3749 -32.8374
L64.4171 -33.3322
L64.4507 -33.8278
L64.4756 -34.3241
L64.4918 -34.8209
L64.4994 -35.318
L64.4983 -35.8154
L64.4885 -36.3128
L64.47 -36.8101
L64.4429 -37.3072
L64.407 -37.8038
L64.3626 -38.2999
L64.3095 -38.7954
L64.2477 -39.2899
L64.1774 -39.7835
L64.0985 -40.2759
L64.011 -40.767
L63.915 -41.2567
L63.8105 -41.7447
L63.6975 -42.2311
L63.5761 -42.7155
L63.4463 -43.1978
L63.3081 -43.678
L63.1616 -44.1558
L63.0068 -44.6312
L62.8438 -45.1039
L62.6727 -45.5739
L62.4934 -46.0409
L62.306 -46.5049
L62.1106 -46.9656
L61.9073 -47.4231
L61.696 -47.877
L61.477 -48.3274
L61.2502 -48.7739
L61.0157 -49.2166
L60.7735 -49.6553
L60.5239 -50.0898
L60.2667 -50.52
L60.0022 -50.9458
L59.7303 -51.367
L59.4513 -51.7836
z
" id="C0_2_95e6363b13"/>
    </defs>
    <g clip-path="url(#p1bffca34e9)">
     <use style="fill:#ffffff;stroke:#000000;stroke-width:2.0;" x="0.0" xlink:href="#C0_0_a811fe30f3" y="72.0"/>
    </g>
    <g clip-path="url(#p1bffca34e9)">
     <use style="fill:#ff0000;stroke:#000000;stroke-width:2.0;" x="0.0" xlink:href="#C0_1_b12a071048" y="72.0"/>
    </g>
    <g clip-path="url(#p1bffca34e9)">
     <use style="fill:#ff0000;stroke:#000000;stroke-width:2.0;" x="0.0" xlink:href="#C0_2_95e6363b13" y="72.0"/>
    </g>
   </g>
  </g>
 </g>
 <defs>
  <clipPath id="p1bffca34e9">
   <rect height="72.0" width="72.0" x="0.0" y="0.0"/>
  </clipPath>
 </defs>
</svg>
