<?xml version="1.0" encoding="utf-8" standalone="no"?>
<!DOCTYPE svg PUBLIC "-//W3C//DTD SVG 1.1//EN"
  "http://www.w3.org/Graphics/SVG/1.1/DTD/svg11.dtd">
<!-- Created with matplotlib (http://matplotlib.org/) -->
<svg height="72pt" version="1.1" viewBox="0 0 72 72" width="72pt" xmlns="http://www.w3.org/2000/svg" xmlns:xlink="http://www.w3.org/1999/xlink">
 <defs>
  <style type="text/css">
*{stroke-linecap:butt;stroke-linejoin:round;}
  </style>
 </defs>
 <g id="figure_1">
  <g id="patch_1">
   <path d="
M0 72
L72 72
L72 0
L0 0
z
" style="fill:none;"/>
  </g>
  <g id="axes_1">
   <g id="PatchCollection_1">
    <defs>
     <path d="
M36 -7.5
C43.5583 -7.5 50.808 -10.5029 56.1525 -15.8475
C61.4971 -21.192 64.5 -28.4417 64.5 -36
C64.5 -43.5583 61.4971 -50.808 56.1525 -56.1525
C50.808 -61.4971 43.5583 -64.5 36 -64.5
C28.4417 -64.5 21.192 -61.4971 15.8475 -56.1525
C10.5029 -50.808 7.5 -43.5583 7.5 -36
C7.5 -28.4417 10.5029 -21.192 15.8475 -15.8475
C21.192 -10.5029 28.4417 -7.5 36 -7.5
z
" id="C0_0_a811fe30f3"/>
     <path d="
M35.2787 -7.53911
L35.3983 -7.72981
L35.5151 -7.92101
L35.6293 -8.11268
L35.7408 -8.30481
L35.8498 -8.49739
L35.9564 -8.69041
L36.0606 -8.88386
L36.1626 -9.07774
L36.2625 -9.27205
L36.3603 -9.46679
L36.456 -9.66198
L36.5499 -9.85762
L36.6418 -10.0537
L36.732 -10.2503
L36.8204 -10.4474
L36.9071 -10.6449
L36.9921 -10.843
L37.0756 -11.0417
L37.1576 -11.2409
L37.238 -11.4408
L37.3171 -11.6412
L37.3947 -11.8423
L37.471 -12.0441
L37.546 -12.2467
L37.6197 -12.4499
L37.6922 -12.654
L37.7635 -12.8588
L37.8336 -13.0646
L37.9025 -13.2712
L38.0372 -13.4787
L38.1029 -13.6873
L38.1676 -13.8968
L38.2313 -14.1074
L38.2941 -14.3191
L38.3558 -14.532
L38.4166 -14.746
L38.4765 -14.9613
L38.5355 -15.1779
L38.5936 -15.3958
L38.6509 -15.6151
L38.7072 -15.8358
L38.7628 -16.0581
L38.8174 -16.2818
L38.8713 -16.5072
L38.9243 -16.7342
L38.9766 -16.963
L39.028 -17.1935
L39.0786 -17.4258
L39.1284 -17.6601
L39.1774 -17.8962
L39.2256 -18.1344
L39.273 -18.3746
L39.3196 -18.617
L39.3654 -18.8616
L39.4104 -19.1084
L39.4546 -19.3575
L39.498 -19.609
L39.5405 -19.8629
L39.5821 -20.1194
L39.6229 -20.3784
L39.6629 -20.64
L39.7019 -20.9044
L39.74 -21.1715
L39.7772 -21.4414
L39.8135 -21.7142
L39.8487 -21.99
L39.883 -22.2688
L39.9162 -22.5506
L39.9483 -22.8356
L39.9793 -23.1238
L40.0092 -23.4152
L40.0379 -23.7099
L40.0654 -24.0079
L40.0916 -24.3093
L40.1164 -24.6142
L40.1399 -24.9225
L40.162 -25.2343
L40.1825 -25.5496
L40.2015 -25.8685
L40.2188 -26.191
L40.2344 -26.517
L40.2483 -26.8466
L40.2602 -27.1798
L40.2702 -27.5165
L40.2781 -27.8568
L40.2838 -28.2005
L40.2872 -28.5477
L40.2881 -28.8983
L40.2866 -29.2521
L40.2823 -29.6092
L40.2752 -29.9693
L40.2651 -30.3325
L40.2519 -30.6984
L40.2352 -31.067
L40.215 -31.438
L40.191 -31.8112
L40.1629 -32.1863
L40.1306 -32.5632
L40.0937 -32.9414
L40.0519 -33.3206
L40.0049 -33.7004
L39.9524 -34.0804
L39.8939 -34.46
L39.829 -34.8389
L39.7573 -35.2163
L39.6782 -35.5916
L39.5913 -35.9642
L39.496 -36.3333
L39.3916 -36.6982
L39.2776 -37.0578
L39.1533 -37.4114
L39.018 -37.7579
L38.8711 -38.0965
L38.7119 -38.4259
L38.5399 -38.7454
L38.3544 -39.0537
L38.155 -39.35
L37.9415 -39.6335
L37.7135 -39.9032
L37.4712 -40.1586
L37.2146 -40.3992
L36.944 -40.6245
L36.66 -40.8346
L36.3631 -41.0293
L36.0541 -41.2089
L35.7339 -41.3736
L35.4034 -41.524
L35.0636 -41.6605
L34.7154 -41.7838
L34.3599 -41.8945
L33.9981 -41.9933
L33.6309 -42.0808
L33.2592 -42.1578
L32.8837 -42.2249
L32.5055 -42.2827
L32.125 -42.3318
L31.7431 -42.3728
L31.3604 -42.4062
L30.9773 -42.4324
L30.5945 -42.452
L30.2124 -42.4653
L29.8315 -42.4727
L29.452 -42.4747
L29.0744 -42.4714
L28.699 -42.4633
L28.326 -42.4506
L27.9557 -42.4336
L27.5882 -42.4125
L27.2239 -42.3876
L26.8628 -42.359
L26.505 -42.3271
L26.1508 -42.2919
L25.8002 -42.2536
L25.4532 -42.2124
L25.11 -42.1685
L24.7706 -42.122
L24.4351 -42.073
L24.1035 -42.0216
L23.7757 -41.968
L23.4519 -41.9123
L23.1319 -41.8546
L22.8159 -41.7949
L22.5037 -41.7334
L22.1954 -41.6701
L21.8909 -41.6051
L21.5902 -41.5385
L21.2932 -41.4704
L21 -41.4008
L20.7104 -41.3297
L20.4244 -41.2573
L20.142 -41.1835
L19.863 -41.1085
L19.5875 -41.0322
L19.3154 -40.9547
L19.0466 -40.8761
L18.7811 -40.7963
L18.5187 -40.7153
L18.2595 -40.6333
L18.0033 -40.5503
L17.7502 -40.4662
L17.4999 -40.381
L17.2526 -40.2949
L17.008 -40.2077
L16.7662 -40.1195
L16.5271 -40.0304
L16.2906 -39.9403
L16.0566 -39.8491
L15.8251 -39.757
L15.5961 -39.664
L15.3694 -39.5699
L15.145 -39.4749
L14.9229 -39.3788
L14.703 -39.2818
L14.4852 -39.1837
L14.2695 -39.0846
L14.0558 -38.9845
L13.8441 -38.8833
L13.6343 -38.781
L13.4264 -38.6776
L13.2204 -38.5732
L13.0161 -38.4675
L12.8135 -38.3607
L12.6126 -38.2528
L12.4134 -38.1435
L12.2158 -38.0331
L12.0197 -37.9214
L11.8252 -37.8083
L11.6322 -37.6939
L11.4406 -37.5781
L11.2504 -37.4609
L11.0616 -37.3422
L10.8742 -37.2221
L10.6881 -37.1003
L10.5033 -36.977
L10.3198 -36.852
L10.1375 -36.7253
L9.95653 -36.5968
L9.77672 -36.4666
L9.59812 -36.3344
L9.4207 -36.2003
L9.24445 -36.0643
L9.06937 -35.9262
L8.89545 -35.7859
L8.72268 -35.6434
L8.55107 -35.4987
L8.38061 -35.3516
L8.21131 -35.202
L8.04318 -35.05
L7.87623 -34.8953
L7.71047 -34.7379
L7.54594 -34.5777
L7.57614 -34.4146
L7.6168 -33.9181
L7.66611 -33.4224
L7.72405 -32.9274
L7.79061 -32.4334
L7.86575 -31.9404
L7.94947 -31.4487
L8.04173 -30.9584
L8.1425 -30.4696
L8.25176 -29.9825
L8.36948 -29.4973
L8.49561 -29.014
L8.63012 -28.5328
L8.77297 -28.054
L8.92411 -27.5775
L9.08349 -27.1036
L9.25108 -26.6324
L9.42681 -26.1641
L9.61064 -25.6988
L9.80251 -25.2366
L10.0024 -24.7776
L10.2101 -24.3221
L10.4257 -23.8702
L10.6492 -23.4219
L10.8803 -22.9775
L11.1191 -22.5371
L11.3654 -22.1007
L11.6193 -21.6686
L11.8806 -21.2409
L12.1493 -20.8176
L12.4252 -20.399
L12.7082 -19.9851
L12.9984 -19.5761
L13.2956 -19.1721
L13.5997 -18.7732
L13.9107 -18.3796
L14.2283 -17.9914
L14.5526 -17.6086
L14.8834 -17.2314
L15.2207 -16.86
L15.5643 -16.4944
L15.9141 -16.1347
L16.27 -15.7811
L16.6319 -15.4336
L16.9998 -15.0924
L17.3734 -14.7575
L17.7527 -14.4292
L18.1376 -14.1074
L18.5279 -13.7923
L18.9235 -13.4839
L19.3243 -13.1824
L19.7302 -12.8879
L20.1411 -12.6003
L20.5568 -12.32
L20.9772 -12.0468
L21.4021 -11.7809
L21.8315 -11.5224
L22.2653 -11.2714
L22.7032 -11.0279
L23.1452 -10.792
L23.591 -10.5637
L24.0407 -10.3433
L24.494 -10.1306
L24.9508 -9.92584
L25.411 -9.729
L25.8744 -9.54017
L26.3409 -9.35939
L26.8103 -9.18673
L27.2825 -9.02224
L27.7574 -8.86597
L28.2348 -8.71796
L28.7146 -8.57826
L29.1965 -8.44692
L29.6806 -8.32397
L30.1666 -8.20944
L30.6543 -8.10339
L31.1437 -8.00583
L31.6346 -7.9168
L32.1267 -7.83632
L32.6201 -7.76442
L33.1145 -7.70112
L33.6098 -7.64645
L34.1058 -7.60041
L34.6024 -7.56302
z
" id="C0_1_9c9b15135d"/>
     <path d="
M64.2751 -37.7306
L64.0899 -37.8747
L63.9019 -38.0181
L63.711 -38.1607
L63.5173 -38.3027
L63.3205 -38.4439
L63.1208 -38.5845
L62.918 -38.7245
L62.7121 -38.8639
L62.503 -39.0026
L62.2906 -39.1409
L62.0749 -39.2786
L61.8558 -39.4157
L61.6333 -39.5524
L61.4072 -39.6886
L61.1776 -39.8243
L60.9443 -39.9596
L60.7073 -40.0945
L60.4665 -40.2289
L60.2219 -40.3629
L59.9733 -40.4966
L59.7208 -40.6298
L59.4643 -40.7627
L59.2037 -40.8952
L58.939 -41.0273
L58.6701 -41.1591
L58.397 -41.2906
L58.1197 -41.4218
L57.838 -41.5526
L57.552 -41.6831
L57.2617 -41.8133
L56.967 -41.9433
L56.668 -42.0729
L56.3646 -42.2024
L56.0568 -42.3316
L55.7448 -42.4606
L55.4285 -42.5894
L55.108 -42.7181
L54.7833 -42.8467
L54.4545 -42.9752
L54.1219 -43.1038
L53.7853 -43.2324
L53.4452 -43.3612
L53.1015 -43.4903
L52.7545 -43.6197
L52.4045 -43.7495
L52.0516 -43.8801
L51.6963 -44.0114
L51.3388 -44.1437
L50.9795 -44.2773
L50.6189 -44.4123
L50.2573 -44.5491
L49.8954 -44.688
L49.5336 -44.8294
L49.1726 -44.9737
L48.8131 -45.1214
L48.4557 -45.273
L48.1013 -45.429
L47.7506 -45.59
L47.4046 -45.7568
L47.0641 -45.9299
L46.7299 -46.1101
L46.403 -46.298
L46.0843 -46.4944
L45.7745 -46.6999
L45.4744 -46.9149
L45.1846 -47.1401
L44.9056 -47.3756
L44.6378 -47.6218
L44.3812 -47.8786
L44.136 -48.1459
L43.902 -48.4234
L43.6788 -48.7107
L43.4661 -49.0071
L43.2633 -49.312
L43.0699 -49.6246
L42.8851 -49.9441
L42.7083 -50.2695
L42.5388 -50.6002
L42.376 -50.9351
L42.2191 -51.2734
L42.0677 -51.6145
L41.9211 -51.9574
L41.7789 -52.3016
L41.6405 -52.6464
L41.5055 -52.9911
L41.3736 -53.3353
L41.2443 -53.6785
L41.1175 -54.0201
L40.9927 -54.3599
L40.8698 -54.6973
L40.7486 -55.0323
L40.6288 -55.3643
L40.5102 -55.6933
L40.3928 -56.0189
L40.2765 -56.341
L40.161 -56.6594
L40.0463 -56.9741
L39.9322 -57.2847
L39.8188 -57.5914
L39.706 -57.8939
L39.5936 -58.1923
L39.4817 -58.4865
L39.3701 -58.7764
L39.2588 -59.0621
L39.1479 -59.3434
L39.0372 -59.6206
L38.9267 -59.8934
L38.8164 -60.162
L38.7062 -60.4264
L38.5962 -60.6866
L38.4863 -60.9427
L38.3764 -61.1947
L38.2667 -61.4426
L38.1569 -61.6865
L38.0472 -61.9265
L37.9374 -62.1625
L37.8276 -62.3948
L37.7178 -62.6233
L37.6078 -62.8481
L37.4978 -63.0692
L37.3876 -63.2868
L37.2773 -63.5008
L37.1669 -63.7114
L37.0562 -63.9187
L36.9453 -64.1226
L37.3361 -64.3233
L37.8328 -64.4687
L38.3288 -64.441
L38.8242 -64.4047
L39.3187 -64.3597
L39.8122 -64.3061
L40.3046 -64.2439
L40.7956 -64.173
L41.2852 -64.0936
L41.7731 -64.0057
L42.2593 -63.9092
L42.7436 -63.8041
L43.2259 -63.6907
L43.7059 -63.5688
L44.1836 -63.4385
L44.6588 -63.2998
L45.1314 -63.1528
L45.6012 -62.9976
L46.068 -62.8341
L46.5318 -62.6624
L46.9924 -62.4827
L47.4496 -62.2948
L47.9034 -62.099
L48.3535 -61.8952
L48.7998 -61.6835
L49.2423 -61.464
L49.6807 -61.2367
L50.115 -61.0018
L50.5449 -60.7592
L50.9705 -60.5091
L51.3914 -60.2515
L51.8077 -59.9865
L52.2192 -59.7143
L52.6257 -59.4348
L53.0272 -59.1481
L53.4234 -58.8544
L53.8144 -58.5538
L54.1999 -58.2463
L54.5799 -57.932
L54.9543 -57.611
L55.3228 -57.2835
L55.6855 -56.9494
L56.0422 -56.609
L56.3927 -56.2623
L56.7371 -55.9094
L57.0752 -55.5505
L57.4068 -55.1856
L57.7319 -54.8149
L58.0504 -54.4384
L58.3621 -54.0563
L58.6671 -53.6687
L58.9651 -53.2758
L59.2562 -52.8776
L59.5402 -52.4742
L59.817 -52.0658
L60.0865 -51.6525
L60.3487 -51.2345
L60.6035 -50.8118
L60.8508 -50.3846
L61.0906 -49.953
L61.3226 -49.5172
L61.547 -49.0772
L61.7636 -48.6333
L61.9723 -48.1855
L62.1732 -47.734
L62.366 -47.279
L62.5509 -46.8205
L62.7276 -46.3587
L62.8962 -45.8937
L63.0566 -45.4257
L63.2088 -44.9549
L63.3526 -44.4813
L63.4882 -44.0052
L63.6154 -43.5266
L63.7341 -43.0457
L63.8444 -42.5627
L63.9463 -42.0777
L64.0396 -41.5908
L64.1243 -41.1022
L64.2006 -40.6121
L64.2682 -40.1205
L64.3272 -39.6277
L64.3776 -39.1338
z
" id="C0_2_028455e3fe"/>
    </defs>
    <g clip-path="url(#p1bffca34e9)">
     <use style="fill:#ff0000;stroke:#000000;stroke-width:2.0;" x="0.0" xlink:href="#C0_0_a811fe30f3" y="72.0"/>
    </g>
    <g clip-path="url(#p1bffca34e9)">
     <use style="fill:#ffffff;stroke:#000000;stroke-width:2.0;" x="0.0" xlink:href="#C0_1_9c9b15135d" y="72.0"/>
    </g>
    <g clip-path="url(#p1bffca34e9)">
     <use style="fill:#ffffff;stroke:#000000;stroke-width:2.0;" x="0.0" xlink:href="#C0_2_028455e3fe" y="72.0"/>
    </g>
   </g>
  </g>
 </g>
 <defs>
  <clipPath id="p1bffca34e9">
   <rect height="72.0" width="72.0" x="0.0" y="0.0"/>
  </clipPath>
 </defs>
</svg>
