<?xml version="1.0" encoding="utf-8" standalone="no"?>
<!DOCTYPE svg PUBLIC "-//W3C//DTD SVG 1.1//EN"
  "http://www.w3.org/Graphics/SVG/1.1/DTD/svg11.dtd">
<!-- Created with matplotlib (http://matplotlib.org/) -->
<svg height="72pt" version="1.1" viewBox="0 0 72 72" width="72pt" xmlns="http://www.w3.org/2000/svg" xmlns:xlink="http://www.w3.org/1999/xlink">
 <defs>
  <style type="text/css">
*{stroke-linecap:butt;stroke-linejoin:round;}
  </style>
 </defs>
 <g id="figure_1">
  <g id="patch_1">
   <path d="
M0 72
L72 72
L72 0
L0 0
z
" style="fill:none;"/>
  </g>
  <g id="axes_1">
   <g id="PatchCollection_1">
    <defs>
     <path d="
M36 -7.5
C43.5583 -7.5 50.808 -10.5029 56.1525 -15.8475
C61.4971 -21.192 64.5 -28.4417 64.5 -36
C64.5 -43.5583 61.4971 -50.808 56.1525 -56.1525
C50.808 -61.4971 43.5583 -64.5 36 -64.5
C28.4417 -64.5 21.192 -61.4971 15.8475 -56.1525
C10.5029 -50.808 7.5 -43.5583 7.5 -36
C7.5 -28.4417 10.5029 -21.192 15.8475 -15.8475
C21.192 -10.5029 28.4417 -7.5 36 -7.5
z
" id="C0_0_a811fe30f3"/>
     <path d="
M31.1439 -7.94155
L30.9053 -8.18254
L30.6856 -8.42769
L30.4853 -8.67651
L30.3046 -8.92854
L30.1438 -9.18331
L30.0027 -9.44041
L29.8815 -9.69943
L29.78 -9.96002
L29.698 -10.2218
L29.635 -10.4846
L29.5906 -10.748
L29.5642 -11.012
L29.5553 -11.2762
L29.563 -11.5405
L29.5867 -11.8049
L29.6254 -12.0692
L29.6784 -12.3334
L29.7448 -12.5974
L29.8237 -12.8611
L29.9143 -13.1247
L30.0156 -13.3879
L30.1269 -13.6509
L30.2473 -13.9136
L30.376 -14.176
L30.5124 -14.4381
L30.6556 -14.6999
L30.8051 -14.9614
L30.9601 -15.2226
L31.1202 -15.4834
L31.2846 -15.7438
L31.453 -16.0039
L31.6248 -16.2636
L31.7996 -16.5228
L31.977 -16.7815
L32.1565 -17.0398
L32.3379 -17.2975
L32.5209 -17.5547
L32.705 -17.8113
L32.8902 -18.0672
L33.076 -18.3225
L33.2624 -18.5771
L33.449 -18.831
L33.6357 -19.0842
L33.8224 -19.3365
L34.0089 -19.5881
L34.195 -19.8388
L34.3807 -20.0887
L34.5658 -20.3378
L34.7502 -20.5859
L34.9338 -20.8332
L35.1166 -21.0795
L35.2986 -21.325
L35.4795 -21.5695
L35.6595 -21.8131
L35.8384 -22.0557
L36.0163 -22.2974
L36.193 -22.5382
L36.3686 -22.7781
L36.543 -23.017
L36.7162 -23.255
L36.8883 -23.4921
L37.0592 -23.7284
L37.2289 -23.9637
L37.3974 -24.1982
L37.5647 -24.4318
L37.7308 -24.6646
L37.8958 -24.8967
L38.0596 -25.1279
L38.2222 -25.3583
L38.3837 -25.588
L38.5441 -25.817
L38.7034 -26.0454
L38.8616 -26.273
L39.0188 -26.5
L39.1749 -26.7265
L39.33 -26.9523
L39.4841 -27.1776
L39.6372 -27.4024
L39.7894 -27.6267
L39.9406 -27.8506
L40.091 -28.0741
L40.2404 -28.2972
L40.389 -28.5199
L40.5368 -28.7423
L40.6838 -28.9645
L40.8301 -29.1865
L40.9756 -29.4082
L41.1203 -29.6298
L41.2644 -29.8513
L41.4078 -30.0726
L41.5506 -30.294
L41.6927 -30.5153
L41.8343 -30.7367
L41.9753 -30.9581
L42.1158 -31.1797
L42.2557 -31.4014
L42.5342 -31.6233
L42.6728 -31.8454
L42.811 -32.0678
L42.9488 -32.2906
L43.0862 -32.5136
L43.2233 -32.7371
L43.3601 -32.961
L43.4967 -33.1854
L43.6329 -33.4103
L43.7689 -33.6358
L43.9047 -33.8618
L44.0403 -34.0885
L44.1758 -34.3159
L44.3111 -34.544
L44.4462 -34.7728
L44.5813 -35.0025
L44.7162 -35.2329
L44.8511 -35.4643
L44.986 -35.6966
L45.1209 -35.9298
L45.2557 -36.1641
L45.3905 -36.3993
L45.5254 -36.6357
L45.6604 -36.8731
L45.7954 -37.1117
L45.9305 -37.3514
L46.0657 -37.5924
L46.201 -37.8346
L46.3365 -38.078
L46.4721 -38.3228
L46.6079 -38.5689
L46.7439 -38.8163
L46.8801 -39.0651
L47.0164 -39.3153
L47.1531 -39.5669
L47.2899 -39.82
L47.4271 -40.0744
L47.5645 -40.3304
L47.7021 -40.5878
L47.8401 -40.8466
L47.9784 -41.107
L48.117 -41.3688
L48.256 -41.632
L48.3953 -41.8967
L48.5349 -42.1628
L48.675 -42.4303
L48.8154 -42.6991
L48.9563 -42.9693
L49.0976 -43.2408
L49.2394 -43.5134
L49.3816 -43.7872
L49.5244 -44.0621
L49.6676 -44.338
L49.8114 -44.6148
L49.9559 -44.8925
L50.1009 -45.1707
L50.2467 -45.4496
L50.3931 -45.7288
L50.5403 -46.0083
L50.6884 -46.2878
L50.8374 -46.5673
L50.9874 -46.8463
L51.1384 -47.1248
L51.2906 -47.4025
L51.4442 -47.679
L51.5991 -47.9542
L51.7556 -48.2276
L51.9137 -48.4989
L52.0738 -48.7677
L52.2359 -49.0336
L52.4003 -49.2962
L52.5672 -49.555
L52.7368 -49.8095
L52.9094 -50.0592
L53.0853 -50.3034
L53.2648 -50.5415
L53.4482 -50.773
L53.6359 -50.9972
L53.8282 -51.2133
L54.0254 -51.4206
L54.2279 -51.6183
L54.4361 -51.8058
L54.6503 -51.9821
L54.8709 -52.1465
L55.0981 -52.2982
L55.3323 -52.4364
L55.5736 -52.5603
L55.8223 -52.6692
L56.0784 -52.7624
L56.3421 -52.8392
L56.6132 -52.899
L56.8918 -52.9414
L57.1775 -52.9658
L57.4702 -52.9719
L57.7694 -52.9594
L58.0749 -52.9281
L58.3861 -52.8778
L58.7024 -52.8086
L59.0233 -52.7205
L59.3987 -52.6136
L59.6791 -52.2711
L59.9523 -51.8603
L60.2182 -51.4446
L60.4768 -51.0242
L60.7278 -50.5993
L60.9714 -50.1699
L61.2073 -49.7361
L61.4355 -49.2982
L61.656 -48.8563
L61.8687 -48.4104
L62.0735 -47.9608
L62.2704 -47.5075
L62.4592 -47.0507
L62.64 -46.5905
L62.8127 -46.1271
L62.9772 -45.6606
L63.1335 -45.1912
L63.2816 -44.719
L63.4213 -44.2441
L63.5527 -43.7667
L63.6757 -43.287
L63.7902 -42.805
L63.8963 -42.321
L63.9939 -41.835
L64.0829 -41.3473
L64.1634 -40.8579
L64.2354 -40.367
L64.2987 -39.8749
L64.3534 -39.3815
L64.3995 -38.8871
L64.4369 -38.3918
L64.4656 -37.8958
L64.4857 -37.3992
L64.4971 -36.9022
L64.4999 -36.4049
L64.4939 -35.9075
L64.4793 -35.4102
L64.456 -34.913
L64.424 -34.4161
L64.3833 -33.9197
L64.3341 -33.424
L64.2761 -32.929
L64.2096 -32.435
L64.1345 -31.942
L64.0508 -31.4503
L63.9586 -30.96
L63.8578 -30.4712
L63.7486 -29.9841
L63.6309 -29.4988
L63.5048 -29.0156
L63.3703 -28.5344
L63.2275 -28.0555
L63.0764 -27.579
L62.917 -27.1051
L62.7495 -26.6339
L62.5738 -26.1656
L62.39 -25.7003
L62.1981 -25.238
L61.9983 -24.7791
L61.7906 -24.3236
L61.575 -23.8716
L61.3516 -23.4234
L61.1205 -22.979
L60.8817 -22.5385
L60.6354 -22.1021
L60.3815 -21.67
L60.1202 -21.2422
L59.8516 -20.819
L59.5757 -20.4003
L59.2927 -19.9864
L59.0025 -19.5774
L58.7054 -19.1734
L58.4013 -18.7745
L58.0904 -18.3809
L57.7727 -17.9926
L57.4485 -17.6098
L57.1177 -17.2326
L56.7804 -16.8612
L56.4369 -16.4955
L56.0871 -16.1358
L55.7312 -15.7822
L55.3692 -15.4347
L55.0014 -15.0935
L54.6278 -14.7586
L54.2485 -14.4302
L53.8637 -14.1084
L53.4734 -13.7933
L53.0778 -13.4849
L52.677 -13.1834
L52.2711 -12.8888
L51.8603 -12.6013
L51.4446 -12.3209
L51.0242 -12.0477
L50.5993 -11.7818
L50.1699 -11.5232
L49.7361 -11.2722
L49.2982 -11.0286
L48.8563 -10.7927
L48.4104 -10.5645
L47.9608 -10.344
L47.5075 -10.1313
L47.0507 -9.92649
L46.5905 -9.72962
L46.1271 -9.54076
L45.6606 -9.35996
L45.1912 -9.18728
L44.719 -9.02276
L44.2441 -8.86646
L43.7667 -8.71843
L43.287 -8.5787
L42.805 -8.44733
L42.321 -8.32435
L41.835 -8.2098
L41.3473 -8.10372
L40.8579 -8.00613
L40.367 -7.91707
L39.8749 -7.83657
L39.3815 -7.76464
L38.8871 -7.70132
L38.3918 -7.64661
L37.8958 -7.60054
L37.3992 -7.56312
L36.9022 -7.53437
L36.4049 -7.51428
L35.9075 -7.50288
L35.4102 -7.50015
L34.913 -7.5061
L34.4161 -7.52074
L33.9197 -7.54405
L33.424 -7.57602
L32.929 -7.61666
L32.435 -7.66594
L31.942 -7.72385
z
" id="C0_1_09b74b947c"/>
     <path d="
M12.7877 -19.6079
L12.7698 -19.9638
L12.748 -20.3267
L12.7233 -20.6962
L12.6962 -21.0717
L12.6675 -21.4525
L12.6377 -21.8381
L12.6074 -22.2279
L12.5773 -22.6214
L12.5477 -23.0181
L12.5192 -23.4175
L12.4921 -23.819
L12.4669 -24.2223
L12.4438 -24.627
L12.4232 -25.0325
L12.4053 -25.4386
L12.3903 -25.8448
L12.3784 -26.2509
L12.3698 -26.6566
L12.3645 -27.0614
L12.3627 -27.4652
L12.3645 -27.8678
L12.37 -28.2688
L12.3791 -28.6681
L12.3918 -29.0656
L12.4083 -29.4609
L12.4285 -29.854
L12.4524 -30.2448
L12.4799 -30.633
L12.511 -31.0187
L12.5458 -31.4016
L12.5841 -31.7818
L12.6258 -32.1591
L12.671 -32.5335
L12.7196 -32.9049
L12.7715 -33.2733
L12.8267 -33.6386
L12.8851 -34.0009
L12.9466 -34.3601
L13.0112 -34.7162
L13.0787 -35.0692
L13.1492 -35.419
L13.2226 -35.7658
L13.2988 -36.1095
L13.3778 -36.4502
L13.4595 -36.7878
L13.5438 -37.1224
L13.6307 -37.454
L13.7202 -37.7826
L13.8121 -38.1084
L13.9065 -38.4313
L14.0033 -38.7513
L14.1025 -39.0685
L14.204 -39.383
L14.3077 -39.6948
L14.4137 -40.0039
L14.5219 -40.3104
L14.6323 -40.6143
L14.7448 -40.9158
L14.8595 -41.2147
L14.9763 -41.5113
L15.0951 -41.8055
L15.2161 -42.0974
L15.339 -42.3871
L15.4641 -42.6745
L15.5911 -42.9598
L15.7202 -43.243
L15.8513 -43.5241
L15.9843 -43.8033
L16.1194 -44.0805
L16.2565 -44.3558
L16.3957 -44.6292
L16.5368 -44.9009
L16.6799 -45.1708
L16.8251 -45.439
L16.9723 -45.7055
L17.1216 -45.9704
L17.2729 -46.2338
L17.4263 -46.4956
L17.5818 -46.756
L17.7395 -47.0149
L17.8992 -47.2724
L18.0612 -47.5286
L18.2253 -47.7834
L18.3917 -48.037
L18.5603 -48.2893
L18.7312 -48.5404
L18.9043 -48.7903
L19.0799 -49.0391
L19.2578 -49.2868
L19.4381 -49.5334
L19.6209 -49.779
L19.8062 -50.0235
L19.994 -50.267
L20.1844 -50.5096
L20.3775 -50.7512
L20.5732 -50.9919
L20.7716 -51.2316
L20.9728 -51.4705
L21.1768 -51.7084
L21.3837 -51.9455
L21.5935 -52.1818
L21.8063 -52.4171
L22.0221 -52.6517
L22.241 -52.8854
L22.463 -53.1182
L22.6882 -53.3503
L22.9167 -53.5814
L23.1485 -53.8118
L23.3836 -54.0413
L23.6222 -54.2699
L23.8643 -54.4976
L24.1099 -54.7244
L24.3591 -54.9504
L24.6119 -55.1753
L24.8685 -55.3994
L25.1288 -55.6224
L25.3929 -55.8444
L25.6609 -56.0653
L25.9328 -56.2852
L26.2087 -56.5039
L26.4885 -56.7214
L26.7724 -56.9377
L27.0603 -57.1527
L27.3524 -57.3663
L27.6485 -57.5786
L27.9488 -57.7894
L28.2533 -57.9987
L28.5619 -58.2064
L28.8746 -58.4124
L29.1915 -58.6167
L29.5126 -58.8192
L29.8377 -59.0198
L30.1668 -59.2185
L30.5 -59.4151
L30.837 -59.6096
L31.1779 -59.8019
L31.5226 -59.992
L31.8708 -60.1797
L32.2225 -60.365
L32.5776 -60.5479
L32.9357 -60.7282
L33.2968 -60.9059
L33.6606 -61.081
L34.0268 -61.2535
L34.3952 -61.4232
L34.7655 -61.5902
L35.1372 -61.7546
L35.51 -61.9162
L35.8836 -62.0753
L36.2574 -62.2317
L36.6309 -62.3857
L37.0037 -62.5373
L37.3751 -62.6866
L37.7446 -62.8338
L38.1115 -62.9791
L38.4751 -63.1228
L38.8347 -63.265
L39.1896 -63.4062
L39.5389 -63.5464
L39.8819 -63.6862
L40.2177 -63.8259
L40.0807 -63.9659
L39.5878 -64.2063
L39.0938 -64.2733
L38.5989 -64.3316
L38.1031 -64.3813
L37.6068 -64.4223
L37.1099 -64.4547
L36.6128 -64.4784
L36.1154 -64.4934
L35.618 -64.4998
L35.1207 -64.4974
L34.6237 -64.4864
L34.1271 -64.4667
L33.631 -64.4384
L33.1357 -64.4014
L32.6413 -64.3557
L32.1479 -64.3014
L31.6556 -64.2385
L31.1647 -64.1669
L30.6753 -64.0868
L30.1874 -63.9982
L29.7014 -63.901
L29.2172 -63.7953
L28.7352 -63.6811
L28.2553 -63.5585
L27.7778 -63.4275
L27.3028 -63.2882
L26.8305 -63.1405
L26.3609 -62.9846
L25.8943 -62.8205
L25.4308 -62.6482
L24.9705 -62.4677
L24.5135 -62.2793
L24.0601 -62.0828
L23.6102 -61.8783
L23.1642 -61.666
L22.7221 -61.4459
L22.284 -61.218
L21.85 -60.9824
L21.4204 -60.7392
L20.9953 -60.4885
L20.5747 -60.2303
L20.1588 -59.9648
L19.7477 -59.6919
L19.3416 -59.4118
L18.9406 -59.1246
L18.5447 -58.8304
L18.1542 -58.5292
L17.7691 -58.2211
L17.3896 -57.9063
L17.0157 -57.5847
L16.6476 -57.2567
L16.2854 -56.9221
L15.9292 -56.5812
L15.5791 -56.234
L15.2353 -55.8806
L14.8978 -55.5212
L14.5667 -55.1558
L14.2421 -54.7846
L13.9241 -54.4077
L13.6129 -54.0252
L13.3085 -53.6371
L13.011 -53.2437
L12.7205 -52.8451
L12.4371 -52.4413
L12.1609 -52.0325
L11.892 -51.6189
L11.6304 -51.2004
L11.3762 -50.7774
L11.1295 -50.3498
L10.8904 -49.9179
L10.6589 -49.4817
L10.4352 -49.0414
L10.2192 -48.5972
L10.0111 -48.1491
L9.81091 -47.6973
L9.6187 -47.242
L9.43453 -46.7832
L9.25844 -46.3211
L9.09051 -45.8559
L8.93077 -45.3877
L8.77927 -44.9167
L8.63607 -44.4429
L8.5012 -43.9665
L8.37471 -43.4877
L8.25664 -43.0067
L8.14701 -42.5235
L8.04587 -42.0383
L7.95325 -41.5513
L7.86916 -41.0626
L7.79365 -40.5723
L7.72673 -40.0807
L7.66842 -39.5878
L7.61874 -39.0938
L7.57771 -38.5989
L7.54533 -38.1031
L7.52162 -37.6068
L7.50659 -37.1099
L7.50023 -36.6128
L7.50256 -36.1154
L7.51357 -35.618
L7.53325 -35.1207
L7.56161 -34.6237
L7.59863 -34.1271
L7.6443 -33.631
L7.6986 -33.1357
L7.76153 -32.6413
L7.83306 -32.1479
L7.91317 -31.6556
L8.00184 -31.1647
L8.09903 -30.6753
L8.20472 -30.1874
L8.31888 -29.7014
L8.44148 -29.2172
L8.57246 -28.7352
L8.7118 -28.2553
L8.85945 -27.7778
L9.01538 -27.3028
L9.17952 -26.8305
L9.35183 -26.3609
L9.53225 -25.8943
L9.72074 -25.4308
L9.91724 -24.9705
L10.1217 -24.5135
L10.334 -24.0601
L10.5541 -23.6102
L10.782 -23.1642
L11.0176 -22.7221
L11.2608 -22.284
L11.5115 -21.85
L11.7697 -21.4204
L12.0352 -20.9953
L12.3081 -20.5747
z
" id="C0_2_5b89a64871"/>
    </defs>
    <g clip-path="url(#p1bffca34e9)">
     <use style="fill:#ff0000;stroke:#000000;stroke-width:2.0;" x="0.0" xlink:href="#C0_0_a811fe30f3" y="72.0"/>
    </g>
    <g clip-path="url(#p1bffca34e9)">
     <use style="fill:#ffffff;stroke:#000000;stroke-width:2.0;" x="0.0" xlink:href="#C0_1_09b74b947c" y="72.0"/>
    </g>
    <g clip-path="url(#p1bffca34e9)">
     <use style="fill:#ffffff;stroke:#000000;stroke-width:2.0;" x="0.0" xlink:href="#C0_2_5b89a64871" y="72.0"/>
    </g>
   </g>
  </g>
 </g>
 <defs>
  <clipPath id="p1bffca34e9">
   <rect height="72.0" width="72.0" x="0.0" y="0.0"/>
  </clipPath>
 </defs>
</svg>
