<?xml version="1.0" encoding="utf-8" standalone="no"?>
<!DOCTYPE svg PUBLIC "-//W3C//DTD SVG 1.1//EN"
  "http://www.w3.org/Graphics/SVG/1.1/DTD/svg11.dtd">
<!-- Created with matplotlib (http://matplotlib.org/) -->
<svg height="72pt" version="1.1" viewBox="0 0 72 72" width="72pt" xmlns="http://www.w3.org/2000/svg" xmlns:xlink="http://www.w3.org/1999/xlink">
 <defs>
  <style type="text/css">
*{stroke-linecap:butt;stroke-linejoin:round;}
  </style>
 </defs>
 <g id="figure_1">
  <g id="patch_1">
   <path d="
M0 72
L72 72
L72 0
L0 0
z
" style="fill:none;"/>
  </g>
  <g id="axes_1">
   <g id="PatchCollection_1">
    <defs>
     <path d="
M36 -7.5
C43.5583 -7.5 50.808 -10.5029 56.1525 -15.8475
C61.4971 -21.192 64.5 -28.4417 64.5 -36
C64.5 -43.5583 61.4971 -50.808 56.1525 -56.1525
C50.808 -61.4971 43.5583 -64.5 36 -64.5
C28.4417 -64.5 21.192 -61.4971 15.8475 -56.1525
C10.5029 -50.808 7.5 -43.5583 7.5 -36
C7.5 -28.4417 10.5029 -21.192 15.8475 -15.8475
C21.192 -10.5029 28.4417 -7.5 36 -7.5
z
" id="C0_0_a811fe30f3"/>
     <path d="
M40.1746 -7.8074
L40.1484 -7.98381
L40.1218 -8.16133
L40.0949 -8.34001
L40.0675 -8.51989
L40.0399 -8.70101
L40.0118 -8.88343
L39.9834 -9.0672
L39.9546 -9.25236
L39.9254 -9.43897
L39.8957 -9.62707
L39.8657 -9.81673
L39.8353 -10.008
L39.8044 -10.2009
L39.7731 -10.3955
L39.7414 -10.592
L39.7092 -10.7902
L39.6765 -10.9904
L39.6434 -11.1925
L39.6097 -11.3966
L39.5756 -11.6028
L39.541 -11.8112
L39.5058 -12.0218
L39.4701 -12.2346
L39.4338 -12.4499
L39.397 -12.6675
L39.3596 -12.8876
L39.3216 -13.1103
L39.2829 -13.3357
L39.2437 -13.5637
L39.2038 -13.7946
L39.1632 -14.0283
L39.1219 -14.2649
L39.0799 -14.5046
L39.0372 -14.7473
L38.9937 -14.9932
L38.9495 -15.2423
L38.9044 -15.4948
L38.8586 -15.7507
L38.8119 -16.01
L38.7643 -16.2729
L38.7158 -16.5393
L38.6664 -16.8095
L38.6161 -17.0834
L38.5647 -17.3612
L38.5124 -17.6428
L38.459 -17.9285
L38.4046 -18.2181
L38.349 -18.5118
L38.2923 -18.8096
L38.2344 -19.1115
L38.1753 -19.4177
L38.1149 -19.7281
L38.0532 -20.0427
L37.9902 -20.3617
L37.9257 -20.6849
L37.8598 -21.0124
L37.7924 -21.3441
L37.7234 -21.68
L37.6528 -22.0202
L37.5805 -22.3644
L37.5064 -22.7127
L37.4304 -23.065
L37.3525 -23.421
L37.2726 -23.7807
L37.1904 -24.1439
L37.106 -24.5104
L37.0192 -24.8799
L36.9298 -25.2522
L36.8376 -25.6269
L36.7425 -26.0037
L36.6442 -26.3822
L36.5425 -26.7618
L36.4371 -27.1421
L36.3276 -27.5224
L36.2137 -27.902
L36.0949 -28.2801
L35.9707 -28.6559
L35.8406 -29.0283
L35.7038 -29.3962
L35.5598 -29.7583
L35.4076 -30.1134
L35.2463 -30.4598
L35.075 -30.796
L34.8927 -31.1202
L34.6982 -31.4308
L34.4906 -31.726
L34.269 -32.0042
L34.0324 -32.2639
L33.7803 -32.504
L33.5125 -32.7237
L33.2289 -32.9226
L32.9299 -33.1009
L32.6162 -33.259
L32.2887 -33.3978
L31.9486 -33.5184
L31.5972 -33.6222
L31.2359 -33.7107
L30.866 -33.7854
L30.489 -33.8477
L30.1062 -33.8989
L29.7186 -33.9403
L29.3275 -33.9732
L28.9338 -33.9985
L28.5385 -34.0171
L28.1424 -34.0299
L27.7461 -34.0377
L27.3504 -34.041
L26.9558 -34.0403
L26.5628 -34.0363
L26.1718 -34.0293
L25.7833 -34.0197
L25.3976 -34.0077
L25.015 -33.9938
L24.6357 -33.9782
L24.26 -33.961
L23.8881 -33.9425
L23.5202 -33.9229
L23.1563 -33.9023
L22.7966 -33.8808
L22.4412 -33.8586
L22.0902 -33.8358
L21.7436 -33.8124
L21.4014 -33.7886
L21.0638 -33.7644
L20.7306 -33.7399
L20.402 -33.7151
L20.0779 -33.6901
L19.7582 -33.665
L19.443 -33.6398
L19.1322 -33.6144
L18.8258 -33.5891
L18.5237 -33.5637
L18.2259 -33.5383
L17.9323 -33.5129
L17.6428 -33.4876
L17.3575 -33.4623
L17.0762 -33.4371
L16.7988 -33.412
L16.5253 -33.387
L16.2556 -33.3621
L15.9896 -33.3373
L15.7272 -33.3126
L15.4685 -33.288
L15.2132 -33.2636
L14.9613 -33.2393
L14.7128 -33.2151
L14.4675 -33.191
L14.2254 -33.1671
L13.9863 -33.1432
L13.7503 -33.1195
L13.5173 -33.096
L13.287 -33.0725
L13.0596 -33.0492
L12.8349 -33.0259
L12.6128 -33.0028
L12.3932 -32.9798
L12.1762 -32.9569
L11.9616 -32.9341
L11.7493 -32.9114
L11.5393 -32.8888
L11.3315 -32.8663
L11.1258 -32.8438
L10.9222 -32.8214
L10.7207 -32.7991
L10.521 -32.7769
L10.3233 -32.7547
L10.1274 -32.7325
L9.9333 -32.7104
L9.7409 -32.6883
L9.55015 -32.6663
L9.36101 -32.6443
L9.17341 -32.6223
L8.98732 -32.6003
L8.80267 -32.5783
L8.61942 -32.5563
L8.43752 -32.5343
L8.25692 -32.5123
L8.07757 -32.4902
L7.89944 -32.4681
L7.7888 -31.953
L7.86373 -31.4613
L7.94722 -30.9709
L8.03927 -30.4821
L8.13983 -29.9949
L8.24887 -29.5096
L8.36637 -29.0263
L8.49229 -28.5451
L8.62658 -28.0661
L8.76922 -27.5896
L8.92015 -27.1157
L9.07933 -26.6444
L9.2467 -26.176
L9.42223 -25.7106
L9.60585 -25.2483
L9.79752 -24.7893
L9.99716 -24.3337
L10.2047 -23.8817
L10.4201 -23.4333
L10.6434 -22.9888
L10.8743 -22.5483
L11.1129 -22.1118
L11.3591 -21.6796
L11.6127 -21.2517
L11.8739 -20.8283
L12.1423 -20.4096
L12.418 -19.9956
L12.7009 -19.5865
L12.9909 -19.1824
L13.288 -18.7833
L13.5919 -18.3896
L13.9026 -18.0012
L14.2201 -17.6183
L14.5443 -17.241
L14.8749 -16.8694
L15.212 -16.5036
L15.5554 -16.1438
L15.9051 -15.79
L16.2609 -15.4424
L16.6226 -15.101
L16.9903 -14.766
L17.3638 -14.4375
L17.743 -14.1155
L18.1277 -13.8002
L18.5178 -13.4917
L18.9133 -13.19
L19.314 -12.8953
L19.7198 -12.6076
L20.1305 -12.327
L20.5461 -12.0537
L20.9664 -11.7876
L21.3912 -11.5289
L21.8205 -11.2777
L22.2542 -11.034
L22.692 -10.7979
L23.1338 -10.5695
L23.5796 -10.3488
L24.0292 -10.1359
L24.4824 -9.93096
L24.9391 -9.73392
L25.3992 -9.54488
L25.8625 -9.3639
L26.3289 -9.19104
L26.7983 -9.02634
L27.2704 -8.86985
L27.7453 -8.72163
L28.2226 -8.58172
L28.7023 -8.45016
L29.1842 -8.327
L29.6682 -8.21226
L30.1541 -8.10599
L30.6419 -8.00821
L31.1312 -7.91896
L31.622 -7.83827
L32.1142 -7.76615
L32.6075 -7.70263
L33.1019 -7.64773
L33.5971 -7.60147
L34.0931 -7.56386
L34.5897 -7.53492
L35.0867 -7.51464
L35.584 -7.50304
L36.0814 -7.50012
L36.5788 -7.50588
L37.076 -7.52032
L37.5728 -7.54343
L38.0692 -7.57522
L38.565 -7.61566
L39.06 -7.66475
L39.554 -7.72247
z
" id="C0_1_7dbadb8fb7"/>
     <path d="
M64.1006 -39.5319
L63.9224 -39.5098
L63.7431 -39.4877
L63.5625 -39.4657
L63.3806 -39.4437
L63.1973 -39.4217
L63.0127 -39.3997
L62.8266 -39.3777
L62.639 -39.3557
L62.4499 -39.3337
L62.2591 -39.3117
L62.0667 -39.2896
L61.8726 -39.2675
L61.6767 -39.2453
L61.479 -39.2231
L61.2793 -39.2009
L61.0778 -39.1786
L60.8742 -39.1562
L60.6685 -39.1337
L60.4607 -39.1112
L60.2507 -39.0886
L60.0384 -39.0659
L59.8238 -39.0431
L59.6068 -39.0202
L59.3872 -38.9972
L59.1651 -38.9741
L58.9404 -38.9508
L58.713 -38.9275
L58.4827 -38.904
L58.2497 -38.8805
L58.0137 -38.8568
L57.7746 -38.8329
L57.5325 -38.809
L57.2872 -38.7849
L57.0387 -38.7607
L56.7868 -38.7364
L56.5315 -38.712
L56.2728 -38.6874
L56.0104 -38.6627
L55.7444 -38.6379
L55.4747 -38.613
L55.2012 -38.588
L54.9238 -38.5629
L54.6425 -38.5377
L54.3572 -38.5124
L54.0677 -38.4871
L53.7741 -38.4617
L53.4763 -38.4363
L53.1742 -38.4109
L52.8678 -38.3856
L52.557 -38.3602
L52.2418 -38.335
L51.9221 -38.3099
L51.598 -38.2849
L51.2694 -38.2601
L50.9362 -38.2356
L50.5986 -38.2114
L50.2564 -38.1876
L49.9098 -38.1642
L49.5588 -38.1414
L49.2034 -38.1192
L48.8437 -38.0977
L48.4798 -38.0771
L48.1119 -38.0575
L47.74 -38.039
L47.3643 -38.0218
L46.985 -38.0062
L46.6024 -37.9923
L46.2167 -37.9803
L45.8282 -37.9707
L45.4372 -37.9637
L45.0442 -37.9597
L44.6496 -37.959
L44.2539 -37.9623
L43.8576 -37.9701
L43.4615 -37.9829
L43.0662 -38.0015
L42.6725 -38.0268
L42.2814 -38.0597
L41.8938 -38.1011
L41.511 -38.1523
L41.134 -38.2146
L40.7641 -38.2893
L40.4028 -38.3778
L40.0514 -38.4816
L39.7113 -38.6022
L39.3838 -38.741
L39.0701 -38.8991
L38.7711 -39.0774
L38.4875 -39.2763
L38.2197 -39.496
L37.9676 -39.7361
L37.731 -39.9958
L37.5094 -40.274
L37.3018 -40.5692
L37.1073 -40.8798
L36.925 -41.204
L36.7537 -41.5402
L36.5924 -41.8866
L36.4402 -42.2417
L36.2962 -42.6038
L36.1594 -42.9717
L36.0293 -43.3441
L35.9051 -43.7199
L35.7863 -44.098
L35.6724 -44.4776
L35.5629 -44.8579
L35.4575 -45.2382
L35.3558 -45.6178
L35.2575 -45.9963
L35.1624 -46.3731
L35.0702 -46.7478
L34.9808 -47.1201
L34.894 -47.4896
L34.8096 -47.8561
L34.7274 -48.2193
L34.6475 -48.579
L34.5696 -48.935
L34.4936 -49.2873
L34.4195 -49.6356
L34.3472 -49.9798
L34.2766 -50.32
L34.2076 -50.6559
L34.1402 -50.9876
L34.0743 -51.3151
L34.0098 -51.6383
L33.9468 -51.9573
L33.8851 -52.2719
L33.8247 -52.5823
L33.7656 -52.8885
L33.7077 -53.1904
L33.651 -53.4882
L33.5954 -53.7819
L33.541 -54.0715
L33.4876 -54.3572
L33.4353 -54.6388
L33.3839 -54.9166
L33.3336 -55.1905
L33.2842 -55.4607
L33.2357 -55.7271
L33.1881 -55.99
L33.1414 -56.2493
L33.0956 -56.5052
L33.0505 -56.7577
L33.0063 -57.0068
L32.9628 -57.2527
L32.9201 -57.4954
L32.8781 -57.7351
L32.8368 -57.9717
L32.7962 -58.2054
L32.7563 -58.4363
L32.7171 -58.6643
L32.6784 -58.8897
L32.6404 -59.1124
L32.603 -59.3325
L32.5662 -59.5501
L32.5299 -59.7654
L32.4942 -59.9782
L32.459 -60.1888
L32.4244 -60.3972
L32.3903 -60.6034
L32.3566 -60.8075
L32.3235 -61.0096
L32.2908 -61.2098
L32.2586 -61.408
L32.2269 -61.6045
L32.1956 -61.7991
L32.1647 -61.992
L32.1343 -62.1833
L32.1043 -62.3729
L32.0746 -62.561
L32.0454 -62.7476
L32.0166 -62.9328
L31.9882 -63.1166
L31.9601 -63.299
L31.9325 -63.4801
L31.9051 -63.66
L31.8782 -63.8387
L32.3182 -64.0162
L32.812 -64.2612
L33.3067 -64.3211
L33.8023 -64.3725
L34.2985 -64.4151
L34.7953 -64.4492
L35.2924 -64.4745
L35.7898 -64.4912
L36.2872 -64.4992
L36.7845 -64.4986
L37.2816 -64.4892
L37.7783 -64.4712
L38.2745 -64.4445
L38.7699 -64.4091
L39.2645 -64.3651
L39.7582 -64.3124
L40.2506 -64.2511
L40.7418 -64.1812
L41.2316 -64.1028
L41.7197 -64.0157
L42.2061 -63.9202
L42.6906 -63.8161
L43.1731 -63.7035
L43.6534 -63.5825
L44.1313 -63.4532
L44.6068 -63.3154
L45.0797 -63.1693
L45.5498 -63.015
L46.017 -62.8524
L46.4811 -62.6817
L46.942 -62.5028
L47.3996 -62.3158
L47.8538 -62.1208
L48.3043 -61.9179
L48.7511 -61.7071
L49.194 -61.4884
L49.6328 -61.262
L50.0676 -61.0279
L50.498 -60.7862
L50.924 -60.5369
L51.3455 -60.2801
L51.7623 -60.016
L52.1743 -59.7445
L52.5814 -59.4658
L52.9834 -59.1799
L53.3802 -58.887
L53.7718 -58.5871
L54.1579 -58.2803
L54.5385 -57.9668
L54.9135 -57.6465
L55.2827 -57.3197
L55.646 -56.9864
L56.0034 -56.6467
L56.3546 -56.3006
L56.6996 -55.9484
L57.0384 -55.5902
L57.3707 -55.2259
L57.6966 -54.8558
L58.0158 -54.48
L58.3283 -54.0985
L58.634 -53.7115
L58.9328 -53.3191
L59.2246 -52.9215
L59.5094 -52.5187
L59.787 -52.1108
L60.0573 -51.6981
L60.3203 -51.2806
L60.5759 -50.8584
L60.8241 -50.4317
L61.0646 -50.0006
L61.2976 -49.5652
L61.5228 -49.1257
L61.7402 -48.6822
L61.9498 -48.2348
L62.1515 -47.7837
L62.3453 -47.329
L62.531 -46.8709
L62.7086 -46.4095
L62.8781 -45.9448
L63.0394 -45.4772
L63.1925 -45.0067
L63.3373 -44.5334
L63.4737 -44.0575
L63.6018 -43.5792
L63.7215 -43.0986
L63.8327 -42.6158
L63.9355 -42.1309
L64.0298 -41.6443
L64.1155 -41.1559
L64.1926 -40.6659
z
" id="C0_2_de164fa650"/>
    </defs>
    <g clip-path="url(#p1bffca34e9)">
     <use style="fill:#ffffff;stroke:#000000;stroke-width:2.0;" x="0.0" xlink:href="#C0_0_a811fe30f3" y="72.0"/>
    </g>
    <g clip-path="url(#p1bffca34e9)">
     <use style="fill:#ff0000;stroke:#000000;stroke-width:2.0;" x="0.0" xlink:href="#C0_1_7dbadb8fb7" y="72.0"/>
    </g>
    <g clip-path="url(#p1bffca34e9)">
     <use style="fill:#ff0000;stroke:#000000;stroke-width:2.0;" x="0.0" xlink:href="#C0_2_de164fa650" y="72.0"/>
    </g>
   </g>
  </g>
 </g>
 <defs>
  <clipPath id="p1bffca34e9">
   <rect height="72.0" width="72.0" x="0.0" y="0.0"/>
  </clipPath>
 </defs>
</svg>
