<?xml version="1.0" encoding="utf-8" standalone="no"?>
<!DOCTYPE svg PUBLIC "-//W3C//DTD SVG 1.1//EN"
  "http://www.w3.org/Graphics/SVG/1.1/DTD/svg11.dtd">
<!-- Created with matplotlib (http://matplotlib.org/) -->
<svg height="72pt" version="1.1" viewBox="0 0 72 72" width="72pt" xmlns="http://www.w3.org/2000/svg" xmlns:xlink="http://www.w3.org/1999/xlink">
 <defs>
  <style type="text/css">
*{stroke-linecap:butt;stroke-linejoin:round;}
  </style>
 </defs>
 <g id="figure_1">
  <g id="patch_1">
   <path d="
M0 72
L72 72
L72 0
L0 0
z
" style="fill:none;"/>
  </g>
  <g id="axes_1">
   <g id="PatchCollection_1">
    <defs>
     <path d="
M36 -7.5
C43.5583 -7.5 50.808 -10.5029 56.1525 -15.8475
C61.4971 -21.192 64.5 -28.4417 64.5 -36
C64.5 -43.5583 61.4971 -50.808 56.1525 -56.1525
C50.808 -61.4971 43.5583 -64.5 36 -64.5
C28.4417 -64.5 21.192 -61.4971 15.8475 -56.1525
C10.5029 -50.808 7.5 -43.5583 7.5 -36
C7.5 -28.4417 10.5029 -21.192 15.8475 -15.8475
C21.192 -10.5029 28.4417 -7.5 36 -7.5
z
" id="C0_0_a811fe30f3"/>
     <path d="
M9.32117 -26.4653
L9.61464 -26.5354
L9.91865 -26.5948
L10.2313 -26.6458
L10.5512 -26.6905
L10.8769 -26.7305
L11.2075 -26.7671
L11.5419 -26.8013
L11.8794 -26.8338
L12.2193 -26.8653
L12.5611 -26.8962
L12.9041 -26.927
L13.248 -26.958
L13.5924 -26.9893
L13.9369 -27.0212
L14.2811 -27.0539
L14.6248 -27.0873
L14.9677 -27.1216
L15.3096 -27.1569
L15.6503 -27.1931
L15.9896 -27.2302
L16.3273 -27.2684
L16.6632 -27.3075
L16.9974 -27.3475
L17.3295 -27.3885
L17.6596 -27.4304
L17.9875 -27.4731
L18.3132 -27.5168
L18.6367 -27.5612
L18.9577 -27.6064
L19.2764 -27.6524
L19.5927 -27.699
L19.9066 -27.7464
L20.2179 -27.7944
L20.5269 -27.843
L20.8333 -27.8922
L21.1374 -27.942
L21.4389 -27.9923
L21.7381 -28.0431
L22.0348 -28.0944
L22.3291 -28.1462
L22.6211 -28.1983
L22.9108 -28.2509
L23.1981 -28.3039
L23.4833 -28.3573
L23.7662 -28.411
L24.047 -28.4651
L24.3256 -28.5195
L24.6022 -28.5742
L24.8768 -28.6293
L25.1494 -28.6846
L25.4201 -28.7403
L25.689 -28.7962
L25.956 -28.8524
L26.2214 -28.9089
L26.485 -28.9656
L26.747 -29.0226
L27.0075 -29.0799
L27.2664 -29.1375
L27.5239 -29.1953
L27.78 -29.2534
L28.0348 -29.3117
L28.2884 -29.3704
L28.5407 -29.4293
L28.7919 -29.4884
L29.042 -29.5479
L29.2911 -29.6077
L29.5392 -29.6677
L29.7865 -29.7281
L30.0329 -29.7887
L30.2785 -29.8497
L30.5235 -29.9111
L30.7677 -29.9727
L31.0114 -30.0347
L31.2546 -30.0971
L31.4973 -30.1598
L31.7396 -30.2229
L31.9816 -30.2865
L32.2233 -30.3504
L32.4648 -30.4147
L32.7061 -30.4795
L33.1885 -30.5448
L33.4297 -30.6105
L33.671 -30.6767
L33.9125 -30.7433
L34.1541 -30.8105
L34.3961 -30.8783
L34.6384 -30.9466
L34.881 -31.0154
L35.1242 -31.0849
L35.3678 -31.1549
L35.612 -31.2256
L35.8569 -31.297
L36.1025 -31.369
L36.3489 -31.4417
L36.5961 -31.5151
L36.8442 -31.5893
L37.0932 -31.6643
L37.3433 -31.74
L37.5944 -31.8165
L37.8467 -31.8939
L38.1002 -31.9722
L38.3549 -32.0513
L38.611 -32.1314
L38.8685 -32.2124
L39.1275 -32.2944
L39.388 -32.3774
L39.65 -32.4615
L39.9137 -32.5466
L40.1791 -32.6328
L40.4463 -32.7202
L40.7153 -32.8087
L40.9861 -32.8984
L41.2589 -32.9894
L41.5338 -33.0816
L41.8106 -33.1751
L42.0896 -33.27
L42.3708 -33.3662
L42.6541 -33.4638
L42.9398 -33.5629
L43.2277 -33.6634
L43.518 -33.7655
L43.8107 -33.8691
L44.1059 -33.9742
L44.4035 -34.081
L44.7037 -34.1894
L45.0064 -34.2996
L45.3117 -34.4114
L45.6196 -34.525
L45.9301 -34.6403
L46.2432 -34.7575
L46.559 -34.8764
L46.8774 -34.9973
L47.1984 -35.12
L47.522 -35.2446
L47.8483 -35.3711
L48.1771 -35.4995
L48.5084 -35.6298
L48.8422 -35.762
L49.1784 -35.8962
L49.517 -36.0322
L49.8579 -36.1702
L50.201 -36.3099
L50.5461 -36.4515
L50.8933 -36.5948
L51.2423 -36.7398
L51.593 -36.8863
L51.9452 -37.0343
L52.2989 -37.1837
L52.6537 -37.3343
L53.0096 -37.4859
L53.3663 -37.6382
L53.7235 -37.7911
L54.081 -37.9442
L54.4385 -38.0972
L54.7957 -38.2495
L55.1524 -38.4007
L55.5081 -38.55
L55.8625 -38.6968
L56.2152 -38.8401
L56.5657 -38.9787
L56.9135 -39.1112
L57.2581 -39.2359
L57.5988 -39.3505
L57.9349 -39.4527
L58.2656 -39.539
L58.5899 -39.6056
L58.9068 -39.648
L59.215 -39.6608
L59.5132 -39.6384
L59.8002 -39.5747
L60.0746 -39.4648
L60.3354 -39.3047
L60.5818 -39.0927
L60.8132 -38.8296
L61.0292 -38.5184
L61.23 -38.1637
L61.4154 -37.7707
L61.5857 -37.3451
L61.7409 -36.8921
L61.8812 -36.4163
L62.0069 -35.9219
L62.118 -35.4125
L62.2148 -34.8908
L62.2975 -34.3595
L62.3662 -33.8207
L62.4212 -33.2763
L62.4627 -32.7277
L62.4909 -32.1765
L62.5061 -31.6236
L62.5084 -31.0704
L62.4983 -30.5175
L62.4759 -29.9659
L62.4416 -29.4164
L62.3957 -28.8695
L62.3384 -28.3259
L62.2701 -27.786
L62.191 -27.2505
L62.1016 -26.7196
L62.0021 -26.1937
L61.8929 -25.6733
L61.7743 -25.1585
L61.6466 -24.6497
L61.5101 -24.1471
L61.3651 -23.6509
L61.1997 -23.1612
L60.9636 -22.6875
L60.7198 -22.2497
L60.4685 -21.8161
L60.2097 -21.3869
L59.9436 -20.9621
L59.6701 -20.5418
L59.3895 -20.1263
L59.1017 -19.7156
L58.8069 -19.3099
L58.5052 -18.9093
L58.1966 -18.5138
L57.8812 -18.1237
L57.5592 -17.7391
L57.2306 -17.36
L56.8955 -16.9865
L56.5541 -16.6189
L56.2064 -16.2572
L55.8526 -15.9015
L55.4927 -15.5519
L55.1268 -15.2085
L54.7552 -14.8715
L54.3778 -14.5409
L53.9949 -14.2169
L53.6064 -13.8994
L53.2126 -13.5887
L52.8135 -13.2849
L52.4094 -12.9879
L52.0002 -12.698
L51.5861 -12.4152
L51.1673 -12.1395
L50.7439 -11.8711
L50.316 -11.6101
L49.8837 -11.3565
L49.4473 -11.1104
L49.0067 -10.8719
L48.5621 -10.641
L48.1137 -10.4179
L47.6616 -10.2026
L47.206 -9.99508
L46.747 -9.79551
L46.2847 -9.60393
L45.8192 -9.42039
L45.3508 -9.24495
L44.8795 -9.07765
L44.4055 -8.91856
L43.929 -8.76772
L43.45 -8.62517
L42.9688 -8.49096
L42.4854 -8.36513
L42.0001 -8.24771
L41.5129 -8.13875
L41.0241 -8.03828
L40.5337 -7.94633
L40.042 -7.86292
L39.549 -7.78808
L39.0549 -7.72183
L38.5599 -7.6642
L38.0642 -7.6152
L37.5678 -7.57485
L37.0709 -7.54315
L36.5737 -7.52013
L36.0763 -7.50577
L35.5789 -7.5001
L35.0816 -7.50311
L34.5846 -7.5148
L34.0881 -7.53517
L33.5921 -7.5642
L33.0968 -7.6019
L32.6025 -7.64825
L32.1091 -7.70324
L31.617 -7.76684
L31.1262 -7.83905
L30.6369 -7.91983
L30.1492 -8.00917
L29.6633 -8.10703
L29.1793 -8.21339
L28.6974 -8.32821
L28.2177 -8.45147
L27.7404 -8.58311
L27.2656 -8.72311
L26.7935 -8.87141
L26.3242 -9.02798
L25.8578 -9.19276
L25.3945 -9.36571
L24.9344 -9.54678
L24.4777 -9.7359
L24.0246 -9.93302
L23.575 -10.1381
L23.1293 -10.351
L22.6875 -10.5718
L22.2497 -10.8003
L21.8161 -11.0364
L21.3869 -11.2802
L20.9621 -11.5315
L20.5418 -11.7903
L20.1263 -12.0564
L19.7156 -12.3299
L19.3099 -12.6105
L18.9093 -12.8983
L18.5138 -13.1931
L18.1237 -13.4948
L17.7391 -13.8034
L17.36 -14.1188
L16.9865 -14.4408
L16.6189 -14.7694
L16.2572 -15.1045
L15.9015 -15.4459
L15.5519 -15.7936
L15.2085 -16.1474
L14.8715 -16.5073
L14.5409 -16.8732
L14.2169 -17.2448
L13.8994 -17.6222
L13.5887 -18.0051
L13.2849 -18.3936
L12.9879 -18.7874
L12.698 -19.1865
L12.4152 -19.5906
L12.1395 -19.9998
L11.8711 -20.4139
L11.6101 -20.8327
L11.3565 -21.2561
L11.1104 -21.684
L10.8719 -22.1163
L10.641 -22.5527
L10.4179 -22.9933
L10.2026 -23.4379
L9.99508 -23.8863
L9.79551 -24.3384
L9.60393 -24.794
L9.42039 -25.253
z
" id="C0_1_61ce091076"/>
     <path d="
M10.8148 -49.3076
L11.1237 -49.7016
L11.4352 -50.0849
L11.749 -50.4576
L12.0649 -50.8198
L12.3825 -51.1718
L12.7016 -51.5138
L13.022 -51.846
L13.3434 -52.1686
L13.6657 -52.4818
L13.9887 -52.7858
L14.3122 -53.0809
L14.6361 -53.3673
L14.9602 -53.6452
L15.2843 -53.9148
L15.6084 -54.1762
L15.9324 -54.4299
L16.2562 -54.6758
L16.5797 -54.9143
L16.9028 -55.1455
L17.2254 -55.3696
L17.5476 -55.5869
L17.8692 -55.7974
L18.1902 -56.0014
L18.5107 -56.1991
L18.8305 -56.3906
L19.1496 -56.576
L19.4681 -56.7556
L19.7859 -56.9295
L20.103 -57.0978
L20.4195 -57.2608
L20.7353 -57.4184
L21.0505 -57.5708
L21.365 -57.7183
L21.6789 -57.8608
L21.9922 -57.9986
L22.3049 -58.1316
L22.6171 -58.2601
L22.9288 -58.3842
L23.24 -58.5038
L23.5508 -58.6192
L23.8612 -58.7303
L24.1712 -58.8374
L24.4809 -58.9404
L24.7903 -59.0394
L25.0995 -59.1346
L25.4084 -59.2259
L25.7173 -59.3134
L26.0261 -59.3973
L26.3348 -59.4774
L26.6435 -59.554
L26.9523 -59.627
L27.2612 -59.6965
L27.5703 -59.7624
L27.8796 -59.825
L28.1892 -59.8841
L28.4991 -59.9398
L28.8094 -59.9921
L29.1202 -60.041
L29.4315 -60.0866
L29.7434 -60.1289
L30.0559 -60.1678
L30.3691 -60.2034
L30.683 -60.2356
L30.9977 -60.2645
L31.3134 -60.2901
L31.6299 -60.3123
L31.9475 -60.3312
L32.2661 -60.3466
L32.5858 -60.3586
L32.9067 -60.3672
L33.2289 -60.3723
L33.5523 -60.3739
L33.8771 -60.372
L34.2034 -60.3664
L34.5311 -60.3572
L34.8603 -60.3443
L35.1912 -60.3277
L35.5237 -60.3072
L35.8579 -60.2829
L36.1939 -60.2546
L36.5318 -60.2223
L36.8715 -60.1859
L37.2131 -60.1453
L37.5568 -60.1005
L37.9025 -60.0513
L38.2502 -59.9976
L38.6001 -59.9394
L38.9521 -59.8765
L39.3064 -59.8089
L39.6628 -59.7363
L40.0216 -59.6587
L40.3827 -59.576
L40.7461 -59.488
L41.1118 -59.3946
L41.4799 -59.2957
L41.8503 -59.1911
L42.2232 -59.0806
L42.5984 -58.9641
L42.976 -58.8415
L43.3559 -58.7126
L43.7381 -58.5772
L44.1227 -58.4352
L44.5094 -58.2863
L44.8984 -58.1305
L45.2895 -57.9675
L45.6827 -57.7972
L46.0779 -57.6193
L46.475 -57.4338
L46.8738 -57.2404
L47.2743 -57.0389
L47.6764 -56.8293
L48.0798 -56.6113
L48.4845 -56.3848
L48.8901 -56.1496
L49.2967 -55.9056
L49.7038 -55.6527
L50.1114 -55.3907
L50.5192 -55.1196
L50.9268 -54.8392
L51.3341 -54.5496
L51.7407 -54.2507
L52.1463 -53.9425
L52.5506 -53.6251
L52.9533 -53.2985
L53.354 -52.9628
L53.7523 -52.6184
L54.1479 -52.2653
L54.5403 -51.9041
L54.9292 -51.535
L55.3142 -51.1586
L55.6949 -50.7757
L56.0709 -50.3869
L56.4419 -49.9935
L56.8074 -49.5965
L57.1671 -49.1975
L57.5208 -48.7985
L57.8683 -48.4017
L58.2094 -48.0099
L58.544 -47.6266
L58.8721 -47.2559
L59.1941 -46.9027
L59.5101 -46.5725
L59.8207 -46.2716
L60.1265 -46.006
L60.4281 -45.7813
L60.7262 -45.6019
L61.0211 -45.4697
L61.3132 -45.3845
L61.6025 -45.3437
L61.8888 -45.3433
L62.1716 -45.3784
L62.4507 -45.4439
L62.6715 -45.5351
L62.4921 -46.044
L62.3047 -46.5079
L62.1093 -46.9687
L61.9059 -47.4261
L61.6946 -47.88
L61.4755 -48.3303
L61.2486 -48.7769
L61.0141 -49.2195
L60.7719 -49.6582
L60.5222 -50.0927
L60.265 -50.5228
L60.0004 -50.9486
L59.7285 -51.3698
L59.4494 -51.7863
L59.1631 -52.198
L58.8698 -52.6048
L58.5695 -53.0065
L58.2623 -53.4031
L57.9484 -53.7943
L57.6278 -54.1802
L57.3005 -54.5604
L56.9668 -54.9351
L56.6267 -55.3039
L56.2804 -55.6669
L55.9278 -56.0239
L55.5692 -56.3748
L55.2046 -56.7195
L54.8342 -57.0579
L54.458 -57.3898
L54.0762 -57.7153
L53.6889 -58.0341
L53.2962 -58.3462
L52.8983 -58.6515
L52.4951 -58.9499
L52.087 -59.2413
L51.674 -59.5257
L51.2562 -59.8029
L50.8337 -60.0728
L50.4068 -60.3354
L49.9754 -60.5906
L49.5398 -60.8382
L49.1 -61.0784
L48.6563 -61.3108
L48.2087 -61.5356
L47.7574 -61.7526
L47.3025 -61.9618
L46.8442 -62.163
L46.3826 -62.3563
L45.9178 -62.5415
L45.45 -62.7187
L44.9793 -62.8877
L44.5058 -63.0485
L44.0298 -63.2011
L43.5514 -63.3454
L43.0706 -63.4814
L42.5877 -63.609
L42.1027 -63.7282
L41.616 -63.8389
L41.1275 -63.9412
L40.6374 -64.035
L40.1459 -64.1202
L39.6532 -64.1968
L39.1594 -64.2649
L38.6645 -64.3243
L38.1689 -64.3752
L37.6726 -64.4173
L37.1759 -64.4509
L36.6787 -64.4757
L36.1813 -64.4919
L35.6839 -64.4994
L35.1866 -64.4982
L34.6896 -64.4884
L34.1929 -64.4699
L33.6968 -64.4427
L33.2014 -64.4068
L32.7068 -64.3623
L32.2132 -64.3091
L31.7208 -64.2473
L31.2297 -64.1769
L30.7401 -64.0979
L30.252 -64.0104
L29.7657 -63.9143
L29.2813 -63.8098
L28.799 -63.6967
L28.3188 -63.5753
L27.841 -63.4454
L27.3657 -63.3072
L26.893 -63.1606
L26.423 -63.0058
L25.956 -62.8427
L25.4921 -62.6715
L25.0313 -62.4921
L24.5739 -62.3047
L24.12 -62.1093
L23.6697 -61.9059
L23.2231 -61.6946
L22.7805 -61.4755
L22.3418 -61.2486
L21.9073 -61.0141
L21.4772 -60.7719
L21.0514 -60.5222
L20.6302 -60.265
L20.2137 -60.0004
L19.802 -59.7285
L19.3952 -59.4494
L18.9935 -59.1631
L18.5969 -58.8698
L18.2057 -58.5695
L17.8198 -58.2623
L17.4396 -57.9484
L17.0649 -57.6278
L16.6961 -57.3005
L16.3331 -56.9668
L15.9761 -56.6267
L15.6252 -56.2804
L15.2805 -55.9278
L14.9421 -55.5692
L14.6102 -55.2046
L14.2847 -54.8342
L13.9659 -54.458
L13.6538 -54.0762
L13.3485 -53.6889
L13.0501 -53.2962
L12.7587 -52.8983
L12.4743 -52.4951
L12.1971 -52.087
L11.9272 -51.674
L11.6646 -51.2562
L11.4094 -50.8337
L11.1618 -50.4068
z
" id="C0_2_4ee13c285e"/>
    </defs>
    <g clip-path="url(#p1bffca34e9)">
     <use style="fill:#ff0000;stroke:#000000;stroke-width:2.0;" x="0.0" xlink:href="#C0_0_a811fe30f3" y="72.0"/>
    </g>
    <g clip-path="url(#p1bffca34e9)">
     <use style="fill:#ffffff;stroke:#000000;stroke-width:2.0;" x="0.0" xlink:href="#C0_1_61ce091076" y="72.0"/>
    </g>
    <g clip-path="url(#p1bffca34e9)">
     <use style="fill:#ffffff;stroke:#000000;stroke-width:2.0;" x="0.0" xlink:href="#C0_2_4ee13c285e" y="72.0"/>
    </g>
   </g>
  </g>
 </g>
 <defs>
  <clipPath id="p1bffca34e9">
   <rect height="72.0" width="72.0" x="0.0" y="0.0"/>
  </clipPath>
 </defs>
</svg>
