<?xml version="1.0" encoding="utf-8" standalone="no"?>
<!DOCTYPE svg PUBLIC "-//W3C//DTD SVG 1.1//EN"
  "http://www.w3.org/Graphics/SVG/1.1/DTD/svg11.dtd">
<!-- Created with matplotlib (http://matplotlib.org/) -->
<svg height="72pt" version="1.1" viewBox="0 0 72 72" width="72pt" xmlns="http://www.w3.org/2000/svg" xmlns:xlink="http://www.w3.org/1999/xlink">
 <defs>
  <style type="text/css">
*{stroke-linecap:butt;stroke-linejoin:round;}
  </style>
 </defs>
 <g id="figure_1">
  <g id="patch_1">
   <path d="
M0 72
L72 72
L72 0
L0 0
z
" style="fill:none;"/>
  </g>
  <g id="axes_1">
   <g id="PatchCollection_1">
    <defs>
     <path d="
M36 -7.5
C43.5583 -7.5 50.808 -10.5029 56.1525 -15.8475
C61.4971 -21.192 64.5 -28.4417 64.5 -36
C64.5 -43.5583 61.4971 -50.808 56.1525 -56.1525
C50.808 -61.4971 43.5583 -64.5 36 -64.5
C28.4417 -64.5 21.192 -61.4971 15.8475 -56.1525
C10.5029 -50.808 7.5 -43.5583 7.5 -36
C7.5 -28.4417 10.5029 -21.192 15.8475 -15.8475
C21.192 -10.5029 28.4417 -7.5 36 -7.5
z
" id="C0_0_a811fe30f3"/>
     <path d="
M51.4404 -59.7847
L51.4895 -59.4091
L51.5242 -59.0328
L51.546 -58.6561
L51.5564 -58.2797
L51.5565 -57.9037
L51.5475 -57.5287
L51.5299 -57.1547
L51.5047 -56.7822
L51.4724 -56.4114
L51.4336 -56.0424
L51.3888 -55.6755
L51.3384 -55.3108
L51.2829 -54.9485
L51.2226 -54.5888
L51.1578 -54.2317
L51.0889 -53.8775
L51.0162 -53.5261
L50.9399 -53.1777
L50.8604 -52.8324
L50.7778 -52.4902
L50.6923 -52.1512
L50.6042 -51.8155
L50.5137 -51.483
L50.4209 -51.1537
L50.326 -50.8278
L50.2292 -50.5052
L50.1306 -50.186
L50.0304 -49.87
L49.9287 -49.5574
L49.8255 -49.248
L49.7211 -48.9419
L49.6155 -48.639
L49.5088 -48.3394
L49.4011 -48.0429
L49.2924 -47.7496
L49.1829 -47.4593
L49.0727 -47.1721
L48.9617 -46.8878
L48.8501 -46.6065
L48.7378 -46.3281
L48.625 -46.0524
L48.5117 -45.7796
L48.3979 -45.5094
L48.2837 -45.2419
L48.169 -44.977
L48.054 -44.7145
L47.9386 -44.4545
L47.8229 -44.1969
L47.7068 -43.9416
L47.5905 -43.6886
L47.4738 -43.4377
L47.3569 -43.189
L47.2397 -42.9423
L47.1222 -42.6976
L47.0044 -42.4548
L46.8863 -42.2138
L46.768 -41.9747
L46.6494 -41.7372
L46.5305 -41.5015
L46.4114 -41.2672
L46.2919 -41.0346
L46.1721 -40.8033
L46.0521 -40.5735
L45.9316 -40.345
L45.8109 -40.1178
L45.6897 -39.8918
L45.5682 -39.6669
L45.4463 -39.4431
L45.324 -39.2203
L45.2013 -38.9985
L45.0781 -38.7775
L44.9544 -38.5574
L44.8302 -38.3381
L44.7055 -38.1196
L44.5803 -37.9016
L44.4545 -37.6843
L44.328 -37.4676
L44.201 -37.2513
L44.0733 -37.0354
L43.8158 -36.82
L43.6859 -36.6048
L43.5553 -36.3899
L43.4238 -36.1753
L43.2915 -35.9608
L43.1583 -35.7463
L43.0242 -35.532
L42.8892 -35.3176
L42.7531 -35.1031
L42.616 -34.8886
L42.4778 -34.6739
L42.3385 -34.4589
L42.198 -34.2437
L42.0564 -34.0282
L41.9135 -33.8122
L41.7693 -33.5959
L41.6238 -33.379
L41.4768 -33.1617
L41.3285 -32.9437
L41.1786 -32.7251
L41.0273 -32.5059
L40.8743 -32.2859
L40.7197 -32.0651
L40.5634 -31.8435
L40.4054 -31.621
L40.2455 -31.3976
L40.0838 -31.1732
L39.9202 -30.9478
L39.7546 -30.7214
L39.5869 -30.4938
L39.4172 -30.2651
L39.2452 -30.0353
L39.0711 -29.8041
L38.8946 -29.5718
L38.7158 -29.3381
L38.5346 -29.1031
L38.3509 -28.8667
L38.1646 -28.6289
L37.9757 -28.3897
L37.784 -28.149
L37.5896 -27.9068
L37.3924 -27.6631
L37.1923 -27.4179
L36.9891 -27.1712
L36.7829 -26.923
L36.5736 -26.6731
L36.3611 -26.4218
L36.1453 -26.1688
L35.9262 -25.9144
L35.7037 -25.6584
L35.4777 -25.4009
L35.2482 -25.1419
L35.0151 -24.8815
L34.7783 -24.6197
L34.5379 -24.3566
L34.2936 -24.0921
L34.0455 -23.8265
L33.7935 -23.5597
L33.5377 -23.2918
L33.2778 -23.023
L33.014 -22.7534
L32.7461 -22.483
L32.4741 -22.2121
L32.1981 -21.9408
L31.918 -21.6693
L31.6338 -21.3977
L31.3454 -21.1263
L31.053 -20.8553
L30.7565 -20.5849
L30.4558 -20.3156
L30.1512 -20.0475
L29.8425 -19.781
L29.5298 -19.5165
L29.2131 -19.2544
L28.8925 -18.9953
L28.5681 -18.7396
L28.2397 -18.488
L27.9076 -18.2412
L27.5717 -18
L27.2321 -17.7654
L26.8886 -17.5386
L26.5414 -17.321
L26.1902 -17.1144
L25.835 -16.9209
L25.4755 -16.7432
L25.1116 -16.5847
L24.7428 -16.4497
L24.369 -16.3434
L23.9898 -16.2719
L23.6054 -16.2416
L23.2162 -16.259
L22.8236 -16.3287
L22.429 -16.4527
L22.0346 -16.6295
L21.6426 -16.8548
L21.2547 -17.1226
L20.8727 -17.4266
L20.498 -17.7607
L20.1314 -18.1196
L19.774 -18.4989
L19.4263 -18.8952
L19.0887 -19.3055
L18.7617 -19.7274
L18.4455 -20.1589
L18.1402 -20.5985
L17.846 -21.0448
L17.563 -21.4965
L17.2911 -21.9526
L17.0303 -22.4122
L16.7805 -22.8745
L16.5417 -23.3387
L16.3138 -23.8042
L16.0965 -24.2705
L15.8898 -24.7369
L15.6935 -25.203
L15.5073 -25.6683
L15.3311 -26.1325
L15.1646 -26.5951
L15.0077 -27.0559
L14.8601 -27.5145
L14.7216 -27.9706
L14.5919 -28.4241
L14.4708 -28.8746
L14.3581 -29.3221
L14.2535 -29.7663
L14.1568 -30.207
L14.0677 -30.6442
L13.9861 -31.0777
L13.9117 -31.5075
L13.8443 -31.9334
L13.7836 -32.3554
L13.7295 -32.7735
L13.6818 -33.1875
L13.6401 -33.5975
L13.6044 -34.0035
L13.5745 -34.4055
L13.5501 -34.8034
L13.5312 -35.1973
L13.5174 -35.5871
L13.5088 -35.973
L13.505 -36.355
L13.506 -36.733
L13.5115 -37.1072
L13.5216 -37.4776
L13.536 -37.8442
L13.5546 -38.2071
L13.5773 -38.5664
L13.604 -38.9221
L13.6346 -39.2742
L13.669 -39.623
L13.707 -39.9683
L13.7486 -40.3103
L13.7938 -40.6492
L13.8423 -40.9848
L13.8943 -41.3174
L13.9495 -41.6469
L14.0079 -41.9735
L14.0695 -42.2972
L14.1342 -42.6182
L14.202 -42.9364
L14.2728 -43.252
L14.3465 -43.565
L14.4232 -43.8755
L14.5029 -44.1836
L14.5853 -44.4894
L14.6707 -44.7929
L14.7589 -45.0942
L14.8498 -45.3933
L14.9436 -45.6904
L15.0402 -45.9855
L15.1396 -46.2786
L15.2418 -46.5699
L15.3468 -46.8594
L15.4545 -47.1472
L15.5651 -47.4333
L15.6784 -47.7178
L15.7947 -48.0007
L15.9137 -48.2822
L16.0357 -48.5622
L16.1605 -48.8408
L16.2882 -49.1182
L16.419 -49.3942
L16.5527 -49.6691
L16.6894 -49.9428
L16.8293 -50.2154
L16.9722 -50.4869
L17.1183 -50.7574
L17.2677 -51.0269
L17.4203 -51.2955
L17.5763 -51.5632
L17.7357 -51.83
L17.8985 -52.096
L18.0649 -52.3613
L18.2349 -52.6258
L18.4086 -52.8895
L18.5861 -53.1526
L18.7674 -53.415
L18.9527 -53.6767
L19.142 -53.9379
L19.3355 -54.1984
L19.5332 -54.4583
L19.7353 -54.7176
L19.9418 -54.9763
L20.1528 -55.2345
L20.3686 -55.4921
L20.5892 -55.749
L20.8147 -56.0054
L21.0452 -56.2612
L21.281 -56.5163
L21.5221 -56.7708
L21.7686 -57.0246
L22.0208 -57.2776
L22.2788 -57.5299
L22.5427 -57.7814
L22.8127 -58.032
L23.0889 -58.2817
L23.3715 -58.5304
L23.6608 -58.778
L23.9568 -59.0244
L24.2597 -59.2695
L24.5698 -59.5133
L24.8871 -59.7555
L25.212 -59.9962
L25.5445 -60.2351
L25.8848 -60.472
L26.2332 -60.7069
L26.5899 -60.9395
L26.9549 -61.1697
L27.3286 -61.3972
L27.711 -61.6218
L28.1025 -61.8433
L28.503 -62.0614
L28.9129 -62.2759
L29.3322 -62.4864
L29.7611 -62.6927
L30.1999 -62.8944
L30.6485 -63.0912
L31.1071 -63.2828
L31.5759 -63.4686
L32.0548 -63.6484
L32.544 -63.8216
L33.0436 -63.9879
L33.5534 -64.1468
L34.041 -64.2977
L34.5375 -64.4326
L35.0344 -64.4624
L35.5317 -64.4836
L36.0291 -64.4962
L36.5265 -64.5
L37.0237 -64.4951
L37.5206 -64.4816
L38.0171 -64.4594
L38.5129 -64.4285
L39.008 -64.389
L39.5022 -64.3408
L39.9952 -64.284
L40.4871 -64.2186
L40.9776 -64.1446
L41.4666 -64.062
L41.9539 -63.9708
L42.4395 -63.8711
L42.923 -63.763
L43.4044 -63.6464
L43.8836 -63.5213
L44.3604 -63.3879
L44.8347 -63.2462
L45.3062 -63.0961
L45.7749 -62.9378
L46.2406 -62.7713
L46.7033 -62.5966
L47.1626 -62.4138
L47.6186 -62.223
L48.071 -62.0242
L48.5197 -61.8175
L48.9647 -61.6029
L49.4056 -61.3805
L49.8425 -61.1503
L50.2752 -60.9125
L50.7035 -60.6672
z
" id="C0_1_46df08f98e"/>
     <path d="
M37.9258 -7.57061
L37.3855 -7.6422
L36.843 -7.72486
L36.2983 -7.8187
L35.7519 -7.92382
L35.2042 -8.04029
L34.6556 -8.16815
L34.1065 -8.30739
L33.5573 -8.45796
L33.0085 -8.61974
L32.4606 -8.79255
L31.9141 -8.97615
L31.3696 -9.17019
L30.8275 -9.37421
L30.2885 -9.58759
L29.7533 -9.80958
L29.2224 -10.0392
L28.6965 -10.2751
L28.1763 -10.5158
L27.6627 -10.7591
L27.1564 -11.0024
L26.6583 -11.2423
L26.1693 -11.4746
L25.6905 -11.6941
L25.2229 -11.8946
L24.7672 -12.0693
L24.3241 -12.2119
L23.8936 -12.3176
L23.4752 -12.3841
L23.0677 -12.4127
L22.6697 -12.4074
L22.2796 -12.3738
L21.8958 -12.3182
L21.5172 -12.2461
L21.1428 -12.1625
L21.1205 -12.0714
L21.547 -11.6926
L21.9779 -11.4366
L22.413 -11.1881
L22.8523 -10.9472
L23.2957 -10.7139
L23.7428 -10.4882
L24.1937 -10.2704
L24.6482 -10.0604
L25.1062 -9.85831
L25.5675 -9.66418
L26.032 -9.47807
L26.4995 -9.30004
L26.9698 -9.13014
L27.443 -8.96842
L27.9187 -8.81494
L28.3969 -8.66974
L28.8775 -8.53286
L29.3602 -8.40436
L29.8449 -8.28425
L30.3315 -8.17259
L30.8198 -8.06941
L31.3097 -7.97474
L31.801 -7.8886
L32.2936 -7.81102
L32.7874 -7.74203
L33.2821 -7.68165
L33.7776 -7.6299
L34.2738 -7.58678
L34.7706 -7.55232
L35.2677 -7.52653
L35.765 -7.50941
L36.2624 -7.50097
L36.7598 -7.50121
L37.2569 -7.51013
z
" id="C0_2_a5b8cd8ccc"/>
    </defs>
    <g clip-path="url(#p1bffca34e9)">
     <use style="fill:#ffffff;stroke:#000000;stroke-width:2.0;" x="0.0" xlink:href="#C0_0_a811fe30f3" y="72.0"/>
    </g>
    <g clip-path="url(#p1bffca34e9)">
     <use style="fill:#ff0000;stroke:#000000;stroke-width:2.0;" x="0.0" xlink:href="#C0_1_46df08f98e" y="72.0"/>
    </g>
    <g clip-path="url(#p1bffca34e9)">
     <use style="fill:#ff0000;stroke:#000000;stroke-width:2.0;" x="0.0" xlink:href="#C0_2_a5b8cd8ccc" y="72.0"/>
    </g>
   </g>
  </g>
 </g>
 <defs>
  <clipPath id="p1bffca34e9">
   <rect height="72.0" width="72.0" x="0.0" y="0.0"/>
  </clipPath>
 </defs>
</svg>
