<?xml version="1.0" encoding="utf-8" standalone="no"?>
<!DOCTYPE svg PUBLIC "-//W3C//DTD SVG 1.1//EN"
  "http://www.w3.org/Graphics/SVG/1.1/DTD/svg11.dtd">
<!-- Created with matplotlib (http://matplotlib.org/) -->
<svg height="72pt" version="1.1" viewBox="0 0 72 72" width="72pt" xmlns="http://www.w3.org/2000/svg" xmlns:xlink="http://www.w3.org/1999/xlink">
 <defs>
  <style type="text/css">
*{stroke-linecap:butt;stroke-linejoin:round;}
  </style>
 </defs>
 <g id="figure_1">
  <g id="patch_1">
   <path d="
M0 72
L72 72
L72 0
L0 0
z
" style="fill:none;"/>
  </g>
  <g id="axes_1">
   <g id="PatchCollection_1">
    <defs>
     <path d="
M36 -7.5
C43.5583 -7.5 50.808 -10.5029 56.1525 -15.8475
C61.4971 -21.192 64.5 -28.4417 64.5 -36
C64.5 -43.5583 61.4971 -50.808 56.1525 -56.1525
C50.808 -61.4971 43.5583 -64.5 36 -64.5
C28.4417 -64.5 21.192 -61.4971 15.8475 -56.1525
C10.5029 -50.808 7.5 -43.5583 7.5 -36
C7.5 -28.4417 10.5029 -21.192 15.8475 -15.8475
C21.192 -10.5029 28.4417 -7.5 36 -7.5
z
" id="C0_0_a811fe30f3"/>
     <path d="
M11.7364 -50.8732
L11.6111 -50.4617
L11.5009 -50.0506
L11.4055 -49.6404
L11.3245 -49.2317
L11.2576 -48.8248
L11.2045 -48.4203
L11.1647 -48.0185
L11.1378 -47.6199
L11.1233 -47.2248
L11.1209 -46.8334
L11.13 -46.4461
L11.1502 -46.0631
L11.1809 -45.6845
L11.2219 -45.3105
L11.2725 -44.9413
L11.3324 -44.5771
L11.4011 -44.2178
L11.4782 -43.8637
L11.5633 -43.5147
L11.6559 -43.1709
L11.7558 -42.8323
L11.8624 -42.499
L11.9755 -42.1709
L12.0947 -41.8481
L12.2196 -41.5304
L12.35 -41.218
L12.4856 -40.9107
L12.6261 -40.6085
L12.7711 -40.3114
L12.9204 -40.0193
L13.0739 -39.7321
L13.2311 -39.4498
L13.3921 -39.1722
L13.5564 -38.8994
L13.7239 -38.6313
L13.8945 -38.3677
L14.0679 -38.1087
L14.244 -37.854
L14.4227 -37.6037
L14.6037 -37.3577
L14.787 -37.1158
L14.9724 -36.878
L15.1597 -36.6442
L15.349 -36.4144
L15.5401 -36.1884
L15.7328 -35.9661
L15.9272 -35.7476
L16.1231 -35.5326
L16.3204 -35.3211
L16.519 -35.1131
L16.719 -34.9085
L16.9202 -34.7072
L17.1227 -34.509
L17.3262 -34.314
L17.5309 -34.1221
L17.7366 -33.9332
L17.9433 -33.7473
L18.1511 -33.5642
L18.3597 -33.3839
L18.5694 -33.2063
L18.7799 -33.0314
L18.9914 -32.8592
L19.2037 -32.6895
L19.417 -32.5223
L19.6311 -32.3575
L19.8461 -32.1952
L20.0619 -32.0351
L20.2786 -31.8774
L20.4962 -31.7219
L20.7146 -31.5686
L20.9339 -31.4175
L21.1542 -31.2684
L21.3753 -31.1214
L21.5973 -30.9765
L21.8202 -30.8335
L22.0441 -30.6924
L22.269 -30.5533
L22.4948 -30.416
L22.7217 -30.2806
L22.9496 -30.147
L23.1785 -30.0152
L23.6395 -29.8851
L23.8717 -29.7568
L24.1051 -29.6301
L24.3397 -29.5052
L24.5754 -29.3819
L24.8124 -29.2602
L25.0507 -29.1402
L25.2903 -29.0218
L25.5313 -28.9049
L25.7736 -28.7897
L26.0173 -28.676
L26.2625 -28.5639
L26.5092 -28.4533
L26.7574 -28.3443
L27.0071 -28.2368
L27.2585 -28.1309
L27.5115 -28.0265
L27.7662 -27.9236
L28.0225 -27.8224
L28.2807 -27.7227
L28.5406 -27.6245
L28.8024 -27.5279
L29.066 -27.433
L29.3315 -27.3396
L29.599 -27.2479
L29.8684 -27.1578
L30.1399 -27.0694
L30.4134 -26.9827
L30.689 -26.8978
L30.9667 -26.8146
L31.2466 -26.7332
L31.5286 -26.6536
L31.8129 -26.5759
L32.0994 -26.5001
L32.3881 -26.4264
L32.6792 -26.3546
L32.9725 -26.2849
L33.2682 -26.2173
L33.5662 -26.152
L33.8666 -26.0889
L34.1693 -26.0281
L34.4745 -25.9698
L34.7819 -25.9139
L35.0918 -25.8606
L35.404 -25.81
L35.7185 -25.7622
L36.0354 -25.7172
L36.3545 -25.6751
L36.6759 -25.6361
L36.9996 -25.6003
L37.3254 -25.5678
L37.6533 -25.5387
L37.9833 -25.5132
L38.3152 -25.4914
L38.6491 -25.4734
L38.9848 -25.4594
L39.3222 -25.4495
L39.6611 -25.4439
L40.0015 -25.4429
L40.3433 -25.4465
L40.6862 -25.4549
L41.0301 -25.4683
L41.3748 -25.487
L41.7201 -25.5111
L42.0659 -25.5408
L42.4118 -25.5764
L42.7576 -25.618
L43.1031 -25.666
L43.4479 -25.7205
L43.7919 -25.7817
L44.1346 -25.85
L44.4757 -25.9255
L44.8149 -26.0086
L45.1518 -26.0994
L45.486 -26.1982
L45.8171 -26.3052
L46.1447 -26.4207
L46.4684 -26.545
L46.7877 -26.6782
L47.1022 -26.8205
L47.4115 -26.9722
L47.7149 -27.1335
L48.0122 -27.3044
L48.3029 -27.4852
L48.5865 -27.6759
L48.8625 -27.8766
L49.1307 -28.0873
L49.3905 -28.3081
L49.6416 -28.539
L49.8836 -28.7797
L50.1163 -29.0302
L50.3394 -29.2904
L50.5526 -29.56
L50.7557 -29.8388
L50.9486 -30.1264
L51.1311 -30.4226
L51.3032 -30.7269
L51.4647 -31.039
L51.6157 -31.3584
L51.7562 -31.6847
L51.8862 -32.0174
L52.0058 -32.3561
L52.1152 -32.7001
L52.2144 -33.0491
L52.3036 -33.4025
L52.383 -33.7599
L52.4528 -34.1207
L52.5131 -34.4845
L52.5642 -34.8509
L52.6063 -35.2193
L52.6396 -35.5893
L52.6643 -35.9606
L52.6808 -36.3326
L52.6891 -36.7052
L52.6896 -37.0778
L52.6825 -37.4502
L52.668 -37.822
L52.6464 -38.193
L52.6179 -38.5628
L52.5828 -38.9312
L52.5411 -39.298
L52.4933 -39.663
L52.4394 -40.0259
L52.3797 -40.3866
L52.3144 -40.7449
L52.2437 -41.1007
L52.1678 -41.4537
L52.0868 -41.8039
L52.001 -42.1513
L51.9106 -42.4956
L51.8156 -42.8367
L51.7162 -43.1747
L51.6127 -43.5095
L51.5051 -43.8409
L51.3936 -44.169
L51.2783 -44.4937
L51.1594 -44.815
L51.037 -45.1329
L50.9112 -45.4473
L50.7821 -45.7582
L50.6498 -46.0657
L50.5144 -46.3697
L50.376 -46.6702
L50.2348 -46.9673
L50.0907 -47.2609
L49.9439 -47.5511
L49.7945 -47.8379
L49.6424 -48.1214
L49.4879 -48.4015
L49.3308 -48.6782
L49.1714 -48.9517
L49.0096 -49.2219
L48.8456 -49.4889
L48.6792 -49.7526
L48.5107 -50.0132
L48.34 -50.2707
L48.1671 -50.5251
L47.9921 -50.7764
L47.815 -51.0248
L47.6359 -51.2701
L47.4547 -51.5125
L47.2714 -51.752
L47.0862 -51.9886
L46.8989 -52.2223
L46.7096 -52.4533
L46.5184 -52.6815
L46.3251 -52.9069
L46.1298 -53.1297
L45.9326 -53.3498
L45.7333 -53.5672
L45.532 -53.782
L45.3287 -53.9942
L45.1234 -54.2039
L44.916 -54.411
L44.7065 -54.6156
L44.495 -54.8177
L44.2813 -55.0174
L44.0655 -55.2146
L43.8476 -55.4093
L43.6274 -55.6016
L43.4051 -55.7915
L43.1805 -55.979
L42.9536 -56.1641
L42.7244 -56.3468
L42.4929 -56.5272
L42.259 -56.7051
L42.0226 -56.8807
L41.7838 -57.0538
L41.5424 -57.2246
L41.2985 -57.3929
L41.052 -57.5589
L40.8029 -57.7224
L40.5511 -57.8834
L40.2965 -58.042
L40.0391 -58.1981
L39.7789 -58.3516
L39.5158 -58.5026
L39.2497 -58.651
L38.9806 -58.7968
L38.7085 -58.9399
L38.4332 -59.0802
L38.1548 -59.2178
L37.8731 -59.3526
L37.5882 -59.4845
L37.2999 -59.6134
L37.0082 -59.7393
L36.7131 -59.8622
L36.4145 -59.9818
L36.1122 -60.0982
L35.8064 -60.2113
L35.4969 -60.3209
L35.1837 -60.427
L34.8667 -60.5294
L34.5458 -60.6281
L34.2211 -60.7229
L33.8925 -60.8137
L33.5599 -60.9004
L33.2234 -60.9827
L32.8828 -61.0607
L32.5381 -61.1341
L32.1894 -61.2028
L31.8366 -61.2666
L31.4797 -61.3253
L31.1187 -61.3787
L30.7536 -61.4268
L30.3844 -61.4692
L30.0111 -61.5057
L29.6338 -61.5362
L29.2525 -61.5604
L28.8672 -61.5782
L28.478 -61.5892
L28.085 -61.5933
L27.6883 -61.5901
L27.288 -61.5795
L26.8842 -61.5612
L26.477 -61.5349
L26.0667 -61.5004
L25.6534 -61.4574
L25.2373 -61.4057
L24.8186 -61.3449
L24.3975 -61.2747
L23.9745 -61.1951
L23.5497 -61.1055
L23.1235 -61.0059
L22.6962 -60.8959
L22.2683 -60.7754
L21.8402 -60.644
L21.4122 -60.5015
L20.985 -60.3479
L20.5462 -60.1827
L20.1307 -59.9464
L19.7199 -59.6731
L19.3141 -59.3925
L18.9135 -59.1048
L18.518 -58.8101
L18.1278 -58.5084
L17.7431 -58.1999
L17.3639 -57.8846
L16.9904 -57.5626
L16.6228 -57.2341
L16.261 -56.8991
L15.9052 -56.5577
L15.5555 -56.2101
L15.2121 -55.8563
L14.875 -55.4965
L14.5444 -55.1307
L14.2202 -54.7591
L13.9027 -54.3818
L13.592 -53.9989
L13.288 -53.6105
L12.991 -53.2168
L12.701 -52.8178
L12.4181 -52.4136
L12.1424 -52.0045
z
" id="C0_1_83e4891ab6"/>
     <path d="
M51.3943 -12.0667
L51.7344 -12.3791
L52.0722 -12.6948
L52.4078 -13.0133
L52.7412 -13.3345
L53.0726 -13.658
L53.4019 -13.9836
L53.7293 -14.3108
L54.0548 -14.6394
L54.3785 -14.969
L54.7006 -15.2994
L55.0212 -15.6302
L55.3403 -15.961
L55.6582 -16.2916
L55.9749 -16.6216
L56.2905 -16.9509
L56.6053 -17.2791
L56.9192 -17.606
L57.2323 -17.9314
L57.5449 -18.2552
L57.8568 -18.5772
L58.1683 -18.8973
L58.4792 -19.2155
L58.7897 -19.5317
L59.0996 -19.8459
L59.4089 -20.1582
L59.7177 -20.4687
L59.8046 -20.7773
L59.5274 -20.3286
L59.2431 -19.9156
L58.9518 -19.5074
L58.6534 -19.1043
L58.3481 -18.7063
L58.0361 -18.3135
L57.7173 -17.9262
L57.3919 -17.5444
L57.06 -17.1682
L56.7216 -16.7977
L56.377 -16.4331
L56.0261 -16.0744
L55.6692 -15.7218
L55.3062 -15.3754
L54.9374 -15.0353
L54.5628 -14.7015
L54.1826 -14.3743
L53.7968 -14.0536
L53.4056 -13.7396
L53.009 -13.4324
L52.6074 -13.1321
L52.2006 -12.8387
z
" id="C0_2_3a1c9b36c7"/>
    </defs>
    <g clip-path="url(#p1bffca34e9)">
     <use style="fill:#ffffff;stroke:#000000;stroke-width:2.0;" x="0.0" xlink:href="#C0_0_a811fe30f3" y="72.0"/>
    </g>
    <g clip-path="url(#p1bffca34e9)">
     <use style="fill:#ff0000;stroke:#000000;stroke-width:2.0;" x="0.0" xlink:href="#C0_1_83e4891ab6" y="72.0"/>
    </g>
    <g clip-path="url(#p1bffca34e9)">
     <use style="fill:#ff0000;stroke:#000000;stroke-width:2.0;" x="0.0" xlink:href="#C0_2_3a1c9b36c7" y="72.0"/>
    </g>
   </g>
  </g>
 </g>
 <defs>
  <clipPath id="p1bffca34e9">
   <rect height="72.0" width="72.0" x="0.0" y="0.0"/>
  </clipPath>
 </defs>
</svg>
