<?xml version="1.0" encoding="utf-8" standalone="no"?>
<!DOCTYPE svg PUBLIC "-//W3C//DTD SVG 1.1//EN"
  "http://www.w3.org/Graphics/SVG/1.1/DTD/svg11.dtd">
<!-- Created with matplotlib (http://matplotlib.org/) -->
<svg height="72pt" version="1.1" viewBox="0 0 72 72" width="72pt" xmlns="http://www.w3.org/2000/svg" xmlns:xlink="http://www.w3.org/1999/xlink">
 <defs>
  <style type="text/css">
*{stroke-linecap:butt;stroke-linejoin:round;}
  </style>
 </defs>
 <g id="figure_1">
  <g id="patch_1">
   <path d="
M0 72
L72 72
L72 0
L0 0
z
" style="fill:none;"/>
  </g>
  <g id="axes_1">
   <g id="PatchCollection_1">
    <defs>
     <path d="
M36 -7.5
C43.5583 -7.5 50.808 -10.5029 56.1525 -15.8475
C61.4971 -21.192 64.5 -28.4417 64.5 -36
C64.5 -43.5583 61.4971 -50.808 56.1525 -56.1525
C50.808 -61.4971 43.5583 -64.5 36 -64.5
C28.4417 -64.5 21.192 -61.4971 15.8475 -56.1525
C10.5029 -50.808 7.5 -43.5583 7.5 -36
C7.5 -28.4417 10.5029 -21.192 15.8475 -15.8475
C21.192 -10.5029 28.4417 -7.5 36 -7.5
z
" id="C0_0_a811fe30f3"/>
     <path d="
M9.05939 -45.0062
L9.19385 -44.769
L9.33589 -44.5409
L9.48529 -44.3219
L9.64182 -44.112
L9.80525 -43.9112
L9.97536 -43.7195
L10.1519 -43.5368
L10.3347 -43.363
L10.5234 -43.1981
L10.7179 -43.0419
L10.9179 -42.8943
L11.1231 -42.7551
L11.3335 -42.6242
L11.5487 -42.5013
L11.7685 -42.3863
L11.9928 -42.2791
L12.2212 -42.1792
L12.4536 -42.0867
L12.6898 -42.0011
L12.9296 -41.9223
L13.1728 -41.8501
L13.4192 -41.7841
L13.6686 -41.7242
L13.9209 -41.6701
L14.1758 -41.6216
L14.4332 -41.5784
L14.6929 -41.5404
L14.9549 -41.5071
L15.2188 -41.4786
L15.4846 -41.4544
L15.7521 -41.4344
L16.0213 -41.4184
L16.2919 -41.4062
L16.5638 -41.3976
L16.8369 -41.3923
L17.1112 -41.3902
L17.3864 -41.3912
L17.6626 -41.395
L17.9395 -41.4016
L18.2171 -41.4106
L18.4953 -41.422
L18.7741 -41.4357
L19.0532 -41.4515
L19.3327 -41.4692
L19.6126 -41.4888
L19.8926 -41.5101
L20.1728 -41.5331
L20.4531 -41.5575
L20.7334 -41.5834
L21.0138 -41.6106
L21.294 -41.6391
L21.5742 -41.6687
L21.8543 -41.6993
L22.1341 -41.731
L22.4138 -41.7636
L22.6932 -41.797
L22.9724 -41.8313
L23.2513 -41.8663
L23.5298 -41.902
L23.8081 -41.9383
L24.0859 -41.9752
L24.3635 -42.0127
L24.6406 -42.0506
L24.9174 -42.0891
L25.1938 -42.1279
L25.4698 -42.1672
L25.7454 -42.2068
L26.0206 -42.2467
L26.2954 -42.287
L26.5698 -42.3275
L26.8439 -42.3683
L27.1175 -42.4094
L27.3908 -42.4506
L27.6637 -42.4921
L27.9362 -42.5337
L28.2084 -42.5755
L28.4803 -42.6174
L28.7518 -42.6595
L29.0231 -42.7018
L29.294 -42.7441
L29.5647 -42.7866
L29.8351 -42.8291
L30.1053 -42.8718
L30.3752 -42.9145
L30.6449 -42.9573
L30.9145 -43.0002
L31.1839 -43.0432
L31.4531 -43.0863
L31.7222 -43.1294
L31.9912 -43.1726
L32.2601 -43.2159
L32.529 -43.2592
L32.7978 -43.3026
L33.0666 -43.3461
L33.6042 -43.3896
L33.8731 -43.4333
L34.142 -43.477
L34.411 -43.5208
L34.6802 -43.5646
L34.9494 -43.6086
L35.2188 -43.6527
L35.4884 -43.6968
L35.7582 -43.7411
L36.0283 -43.7855
L36.2985 -43.83
L36.569 -43.8746
L36.8398 -43.9194
L37.1108 -43.9643
L37.3822 -44.0094
L37.6539 -44.0547
L37.926 -44.1001
L38.1983 -44.1457
L38.4711 -44.1916
L38.7442 -44.2376
L39.0178 -44.2839
L39.2917 -44.3304
L39.566 -44.3772
L39.8408 -44.4242
L40.116 -44.4716
L40.3916 -44.5192
L40.6676 -44.5672
L40.944 -44.6155
L41.2209 -44.6642
L41.4982 -44.7133
L41.7759 -44.7628
L42.0541 -44.8128
L42.3326 -44.8632
L42.6115 -44.9141
L42.8908 -44.9656
L43.1705 -45.0175
L43.4504 -45.0701
L43.7307 -45.1233
L44.0113 -45.1772
L44.2921 -45.2317
L44.5731 -45.287
L44.8543 -45.343
L45.1356 -45.3999
L45.4171 -45.4576
L45.6985 -45.5163
L45.9799 -45.5759
L46.2613 -45.6366
L46.5425 -45.6983
L46.8235 -45.7612
L47.1042 -45.8253
L47.3845 -45.8907
L47.6644 -45.9574
L47.9438 -46.0255
L48.2225 -46.0952
L48.5004 -46.1664
L48.7775 -46.2393
L49.0537 -46.314
L49.3287 -46.3906
L49.6026 -46.4691
L49.8751 -46.5497
L50.1461 -46.6325
L50.4154 -46.7175
L50.683 -46.805
L50.9486 -46.8951
L51.2121 -46.9878
L51.4733 -47.0833
L51.732 -47.1817
L51.9881 -47.2833
L52.2413 -47.388
L52.4914 -47.4961
L52.7382 -47.6078
L52.9816 -47.7231
L53.2212 -47.8423
L53.4569 -47.9655
L53.6885 -48.0928
L53.9156 -48.2244
L54.1381 -48.3605
L54.3557 -48.5013
L54.5682 -48.6468
L54.7753 -48.7972
L54.9768 -48.9528
L55.1724 -49.1135
L55.3619 -49.2796
L55.545 -49.4511
L55.7214 -49.6282
L55.891 -49.811
L56.0535 -49.9996
L56.2086 -50.194
L56.3561 -50.3944
L56.4958 -50.6007
L56.6274 -50.813
L56.7507 -51.0313
L56.8655 -51.2556
L56.9717 -51.4859
L57.0689 -51.7222
L57.157 -51.9644
L57.2359 -52.2124
L57.3054 -52.4661
L57.3653 -52.7255
L57.4154 -52.9904
L57.4557 -53.2606
L57.486 -53.5361
L57.5061 -53.8166
L57.5161 -54.1019
L57.5157 -54.3918
L57.1883 -54.6862
L56.8524 -55.0606
L56.5102 -55.4275
L56.1617 -55.7884
L55.8071 -56.1434
L55.4464 -56.4922
L55.0799 -56.8347
L54.7075 -57.171
L54.3294 -57.5007
L53.9457 -57.8239
L53.5566 -58.1405
L53.1621 -58.4503
L52.7624 -58.7533
L52.3575 -59.0494
L51.9477 -59.3384
L51.5331 -59.6203
L51.1137 -59.895
L50.6897 -60.1625
L50.2612 -60.4226
L49.8284 -60.6752
L49.3914 -60.9204
L48.9503 -61.1579
L48.5052 -61.3878
L48.0564 -61.6099
L47.6038 -61.8243
L47.1478 -62.0308
L46.6883 -62.2293
L46.2256 -62.4199
L45.7598 -62.6024
L45.2909 -62.7768
L44.8193 -62.9431
L44.345 -63.1011
L43.8681 -63.2509
L43.3889 -63.3924
L42.9074 -63.5255
L42.4237 -63.6503
L41.9382 -63.7666
L41.4508 -63.8745
L40.9617 -63.9739
L40.4712 -64.0648
L39.9793 -64.1471
L39.4861 -64.2208
L38.992 -64.286
L38.4969 -64.3425
L38.001 -64.3904
L37.5045 -64.4297
L37.0076 -64.4603
L36.5104 -64.4822
L36.013 -64.4954
L35.5156 -64.5
L35.0183 -64.4959
L34.5214 -64.4831
L34.0249 -64.4616
L33.529 -64.4315
L33.0338 -64.3927
L32.5396 -64.3452
L32.0464 -64.2891
L31.5544 -64.2244
L31.0638 -64.1511
L30.5747 -64.0693
L30.0872 -63.9788
L29.6015 -63.8799
L29.1178 -63.7725
L28.6362 -63.6566
L28.1568 -63.5322
L27.6798 -63.3995
L27.2053 -63.2585
L26.7336 -63.1091
L26.2646 -62.9515
L25.7986 -62.7857
L25.3357 -62.6117
L24.8761 -62.4296
L24.4198 -62.2395
L23.9671 -62.0413
L23.5181 -61.8352
L23.0728 -61.6213
L22.6315 -61.3996
L22.1943 -61.1701
L21.7612 -60.9329
L21.3325 -60.6882
L20.9083 -60.4359
L20.4887 -60.1762
L20.0738 -59.9092
L19.6637 -59.6348
L19.2586 -59.3533
L18.8586 -59.0646
L18.4639 -58.7689
L18.0744 -58.4663
L17.6905 -58.1568
L17.3121 -57.8406
L16.9394 -57.5177
L16.5725 -57.1883
L16.2116 -56.8524
L15.8566 -56.5102
L15.5078 -56.1617
L15.1653 -55.8071
L14.829 -55.4464
L14.4993 -55.0799
L14.1761 -54.7075
L13.8595 -54.3294
L13.5497 -53.9457
L13.2467 -53.5566
L12.9506 -53.1621
L12.6616 -52.7624
L12.3797 -52.3575
L12.105 -51.9477
L11.8375 -51.5331
L11.5774 -51.1137
L11.3248 -50.6897
L11.0796 -50.2612
L10.8421 -49.8284
L10.6122 -49.3914
L10.3901 -48.9503
L10.1757 -48.5052
L9.96923 -48.0564
L9.77068 -47.6038
L9.58012 -47.1478
L9.39761 -46.6883
L9.2232 -46.2256
z
" id="C0_1_d71c5b53c3"/>
     <path d="
M14.7747 -17.2622
L15.0724 -17.2121
L15.3731 -17.1602
L15.6766 -17.1068
L15.9829 -17.0522
L16.2917 -16.9965
L16.6028 -16.94
L16.9162 -16.8829
L17.2316 -16.8255
L17.5489 -16.7678
L17.868 -16.7102
L18.1887 -16.6527
L18.5109 -16.5955
L18.8343 -16.5388
L19.159 -16.4828
L19.4848 -16.4275
L19.8115 -16.3731
L20.139 -16.3197
L20.4672 -16.2675
L20.796 -16.2165
L21.1253 -16.1669
L21.455 -16.1186
L21.785 -16.0719
L22.1152 -16.0267
L22.4455 -15.9831
L22.7759 -15.9412
L23.1062 -15.9011
L23.4364 -15.8627
L23.7664 -15.8262
L24.0962 -15.7915
L24.4256 -15.7588
L24.7547 -15.7279
L25.0834 -15.699
L25.4117 -15.6721
L25.7394 -15.6472
L26.0666 -15.6243
L26.3932 -15.6033
L26.7192 -15.5844
L27.0446 -15.5676
L27.3693 -15.5527
L27.6933 -15.5399
L28.0166 -15.5291
L28.3392 -15.5203
L28.661 -15.5136
L28.9822 -15.5089
L29.3025 -15.5062
L29.6221 -15.5056
L29.941 -15.5069
L30.259 -15.5102
L30.5763 -15.5156
L30.8929 -15.5229
L31.2086 -15.5322
L31.5237 -15.5435
L31.8379 -15.5567
L32.1515 -15.5719
L32.4643 -15.589
L32.7764 -15.6081
L33.0878 -15.6291
L33.3985 -15.6521
L33.7085 -15.6769
L34.0179 -15.7037
L34.3267 -15.7324
L34.6348 -15.763
L34.9423 -15.7954
L35.2492 -15.8298
L35.5556 -15.8661
L35.8614 -15.9042
L36.1667 -15.9443
L36.4715 -15.9862
L36.7758 -16.03
L37.0797 -16.0757
L37.3831 -16.1232
L37.6861 -16.1726
L37.9888 -16.224
L38.291 -16.2772
L38.593 -16.3322
L38.8946 -16.3892
L39.1959 -16.4481
L39.4969 -16.5088
L39.7977 -16.5715
L40.0982 -16.6361
L40.3986 -16.7026
L40.6988 -16.771
L40.9988 -16.8413
L41.2986 -16.9136
L41.5983 -16.9878
L41.898 -17.064
L42.1975 -17.1421
L42.497 -17.2222
L42.7964 -17.3043
L43.0958 -17.3883
L43.3952 -17.4744
L43.6946 -17.5625
L43.994 -17.6525
L44.2934 -17.7447
L44.5928 -17.8388
L44.8924 -17.935
L45.1919 -18.0333
L45.4916 -18.1336
L45.7913 -18.2361
L46.0911 -18.3406
L46.391 -18.4471
L46.691 -18.5558
L46.9911 -18.6666
L47.2912 -18.7796
L47.5915 -18.8946
L47.8919 -19.0118
L48.1923 -19.131
L48.4928 -19.2524
L48.7934 -19.3759
L49.0941 -19.5016
L49.3948 -19.6293
L49.6955 -19.7592
L49.9962 -19.8911
L50.2969 -20.0251
L50.5976 -20.1612
L50.8983 -20.2993
L51.1989 -20.4394
L51.4993 -20.5816
L51.7997 -20.7257
L52.0999 -20.8717
L52.3998 -21.0196
L52.6996 -21.1693
L52.999 -21.3208
L53.2982 -21.4741
L53.597 -21.629
L53.8953 -21.7855
L54.1932 -21.9436
L54.4906 -22.103
L54.7875 -22.2639
L55.0837 -22.426
L55.3793 -22.5893
L55.6741 -22.7536
L55.9681 -22.9189
L56.2613 -23.0849
L56.5536 -23.2516
L56.8449 -23.4188
L57.1351 -23.5864
L57.4243 -23.7541
L57.7122 -23.9219
L57.9989 -24.0895
L58.2843 -24.2567
L58.5683 -24.4233
L58.8508 -24.5892
L59.1319 -24.7541
L59.4113 -24.9177
L59.6891 -25.0799
L59.9651 -25.2403
L60.2393 -25.3988
L60.5117 -25.555
L60.7822 -25.7088
L61.0506 -25.8597
L61.317 -26.0077
L61.5812 -26.1523
L61.8433 -26.2933
L62.103 -26.4304
L62.3605 -26.5633
L62.6156 -26.6918
L62.8029 -26.8156
L62.6298 -26.3122
L62.4485 -25.8459
L62.2592 -25.3827
L62.0619 -24.9228
L61.8566 -24.4662
L61.6435 -24.0131
L61.4225 -23.5636
L61.1938 -23.118
L60.9575 -22.6763
L60.7135 -22.2386
L60.462 -21.8051
L60.203 -21.376
L59.9367 -20.9513
L59.6631 -20.5312
L59.3823 -20.1158
L59.0943 -19.7052
L58.7994 -19.2996
L58.4974 -18.8991
L58.1887 -18.5038
L57.8731 -18.1139
L57.5509 -17.7293
L57.2222 -17.3504
L56.8869 -16.9771
L56.5453 -16.6096
L56.1975 -16.2481
L55.8435 -15.8925
L55.4834 -15.5431
L55.1175 -15.1999
L54.7457 -14.863
L54.3681 -14.5326
L53.985 -14.2087
L53.5965 -13.8914
L53.2025 -13.5809
L52.8033 -13.2772
L52.399 -12.9805
L51.9897 -12.6907
L51.5755 -12.4081
L51.1566 -12.1326
L50.7331 -11.8644
L50.3051 -11.6036
L49.8727 -11.3502
L49.4361 -11.1043
L48.9954 -10.8659
L48.5507 -10.6353
L48.1023 -10.4123
L47.6501 -10.1972
L47.1944 -9.9899
L46.7353 -9.79054
L46.2729 -9.59916
L45.8073 -9.41583
L45.3388 -9.24059
L44.8675 -9.07351
L44.3934 -8.91462
L43.9168 -8.76399
L43.4378 -8.62165
L42.9565 -8.48765
L42.4731 -8.36204
L41.9877 -8.24484
L41.5005 -8.13609
L41.0116 -8.03584
L40.5212 -7.9441
L40.0294 -7.86091
L39.5364 -7.78629
L39.0423 -7.72026
L38.5473 -7.66285
L38.0515 -7.61407
L37.5551 -7.57393
L37.0582 -7.54246
L36.561 -7.51965
L36.0636 -7.50552
L35.5662 -7.50007
L35.069 -7.5033
L34.572 -7.51521
L34.0754 -7.5358
L33.5795 -7.56506
L33.0842 -7.60298
L32.5899 -7.64955
L32.0966 -7.70475
L31.6045 -7.76857
L31.1137 -7.841
L30.6244 -7.922
L30.1368 -8.01155
L29.6509 -8.10963
L29.167 -8.21621
L28.6851 -8.33125
L28.2055 -8.45471
L27.7283 -8.58657
L27.2536 -8.72678
L26.7815 -8.87529
L26.3122 -9.03207
L25.8459 -9.19706
L25.3827 -9.37022
L24.9228 -9.55149
L24.4662 -9.74081
L24.0131 -9.93814
L23.5636 -10.1434
L23.118 -10.3565
L22.6763 -10.5775
L22.2386 -10.8062
L21.8051 -11.0425
L21.376 -11.2865
L20.9513 -11.538
L20.5312 -11.797
L20.1158 -12.0633
L19.7052 -12.3369
L19.2996 -12.6177
L18.8991 -12.9057
L18.5038 -13.2006
L18.1139 -13.5026
L17.7293 -13.8113
L17.3504 -14.1269
L16.9771 -14.4491
L16.6096 -14.7778
L16.2481 -15.1131
L15.8925 -15.4547
L15.5431 -15.8025
L15.1999 -16.1565
z
" id="C0_2_943e3fefa5"/>
    </defs>
    <g clip-path="url(#p1bffca34e9)">
     <use style="fill:#ffffff;stroke:#000000;stroke-width:2.0;" x="0.0" xlink:href="#C0_0_a811fe30f3" y="72.0"/>
    </g>
    <g clip-path="url(#p1bffca34e9)">
     <use style="fill:#ff0000;stroke:#000000;stroke-width:2.0;" x="0.0" xlink:href="#C0_1_d71c5b53c3" y="72.0"/>
    </g>
    <g clip-path="url(#p1bffca34e9)">
     <use style="fill:#ff0000;stroke:#000000;stroke-width:2.0;" x="0.0" xlink:href="#C0_2_943e3fefa5" y="72.0"/>
    </g>
   </g>
  </g>
 </g>
 <defs>
  <clipPath id="p1bffca34e9">
   <rect height="72.0" width="72.0" x="0.0" y="0.0"/>
  </clipPath>
 </defs>
</svg>
