<?xml version="1.0" encoding="utf-8" standalone="no"?>
<!DOCTYPE svg PUBLIC "-//W3C//DTD SVG 1.1//EN"
  "http://www.w3.org/Graphics/SVG/1.1/DTD/svg11.dtd">
<!-- Created with matplotlib (http://matplotlib.org/) -->
<svg height="72pt" version="1.1" viewBox="0 0 72 72" width="72pt" xmlns="http://www.w3.org/2000/svg" xmlns:xlink="http://www.w3.org/1999/xlink">
 <defs>
  <style type="text/css">
*{stroke-linecap:butt;stroke-linejoin:round;}
  </style>
 </defs>
 <g id="figure_1">
  <g id="patch_1">
   <path d="
M0 72
L72 72
L72 0
L0 0
z
" style="fill:none;"/>
  </g>
  <g id="axes_1">
   <g id="PatchCollection_1">
    <defs>
     <path d="
M36 -7.5
C43.5583 -7.5 50.808 -10.5029 56.1525 -15.8475
C61.4971 -21.192 64.5 -28.4417 64.5 -36
C64.5 -43.5583 61.4971 -50.808 56.1525 -56.1525
C50.808 -61.4971 43.5583 -64.5 36 -64.5
C28.4417 -64.5 21.192 -61.4971 15.8475 -56.1525
C10.5029 -50.808 7.5 -43.5583 7.5 -36
C7.5 -28.4417 10.5029 -21.192 15.8475 -15.8475
C21.192 -10.5029 28.4417 -7.5 36 -7.5
z
" id="C0_0_a811fe30f3"/>
     <path d="
M10.962 -49.4561
L11.1471 -49.417
L11.3324 -49.3772
L11.518 -49.3365
L11.7038 -49.295
L11.8899 -49.2527
L12.0764 -49.2096
L12.2633 -49.1657
L12.4507 -49.121
L12.6385 -49.0756
L12.8268 -49.0293
L13.0157 -48.9822
L13.2052 -48.9343
L13.5862 -48.8856
L13.7778 -48.8361
L13.9703 -48.7857
L14.1635 -48.7346
L14.3576 -48.6826
L14.5527 -48.6297
L14.7488 -48.576
L14.9459 -48.5215
L15.1441 -48.466
L15.3435 -48.4097
L15.544 -48.3524
L15.7459 -48.2943
L15.949 -48.2352
L16.1535 -48.1752
L16.3595 -48.1141
L16.5669 -48.0521
L16.7758 -47.9892
L16.9864 -47.9251
L17.1987 -47.8601
L17.4126 -47.794
L17.6284 -47.7268
L17.846 -47.6584
L18.0656 -47.589
L18.2871 -47.5184
L18.5107 -47.4467
L18.7363 -47.3737
L18.9642 -47.2995
L19.1943 -47.2241
L19.4268 -47.1473
L19.6616 -47.0693
L19.8989 -46.99
L20.1388 -46.9093
L20.3812 -46.8271
L20.6263 -46.7436
L20.8742 -46.6587
L21.1248 -46.5722
L21.3784 -46.4843
L21.6349 -46.3948
L21.8944 -46.3038
L22.157 -46.2112
L22.4228 -46.1169
L22.6918 -46.0211
L22.9641 -45.9235
L23.2398 -45.8243
L23.5189 -45.7234
L23.8015 -45.6207
L24.0876 -45.5162
L24.3773 -45.41
L24.6706 -45.3021
L24.9677 -45.1923
L25.2685 -45.0807
L25.5731 -44.9673
L25.8815 -44.8521
L26.1937 -44.7351
L26.5098 -44.6163
L26.8298 -44.4958
L27.1536 -44.3735
L27.4814 -44.2495
L27.813 -44.1238
L28.1485 -43.9965
L28.4878 -43.8677
L28.8309 -43.7375
L29.1777 -43.6059
L29.5281 -43.473
L29.8821 -43.3391
L30.2396 -43.2042
L30.6005 -43.0685
L30.9645 -42.9323
L31.3317 -42.7959
L31.7017 -42.6594
L32.0743 -42.5232
L32.4495 -42.3877
L32.8268 -42.2533
L33.206 -42.1204
L33.5868 -41.9898
L33.9689 -41.8619
L34.3518 -41.7375
L34.7351 -41.6175
L35.1183 -41.5027
L35.501 -41.3942
L35.8826 -41.2932
L36.2624 -41.2009
L36.6398 -41.1189
L37.0142 -41.0486
L37.3847 -40.9919
L37.7508 -40.9504
L38.1115 -40.9259
L38.4663 -40.9202
L38.8145 -40.935
L39.1556 -40.9716
L39.4891 -41.0313
L39.8146 -41.1146
L40.1321 -41.2219
L40.4414 -41.3529
L40.7426 -41.5069
L41.0359 -41.6829
L41.3216 -41.8793
L41.5998 -42.0945
L41.8708 -42.3268
L42.1351 -42.5743
L42.3928 -42.8352
L42.6443 -43.1077
L42.8898 -43.3902
L43.1295 -43.6811
L43.3636 -43.9792
L43.5923 -44.2831
L43.8158 -44.5917
L44.0343 -44.9039
L44.2477 -45.219
L44.4563 -45.5361
L44.6602 -45.8544
L44.8595 -46.1734
L45.0541 -46.4925
L45.2443 -46.8113
L45.4302 -47.1292
L45.6116 -47.446
L45.7889 -47.7612
L45.962 -48.0746
L46.1309 -48.3859
L46.2959 -48.695
L46.4569 -49.0015
L46.614 -49.3055
L46.7672 -49.6067
L46.9167 -49.9049
L47.0626 -50.2002
L47.2048 -50.4925
L47.3435 -50.7816
L47.4787 -51.0675
L47.6105 -51.3503
L47.739 -51.6298
L47.8642 -51.906
L47.9862 -52.1791
L48.1051 -52.4488
L48.2209 -52.7154
L48.3338 -52.9788
L48.4437 -53.239
L48.5507 -53.496
L48.6549 -53.7499
L48.7564 -54.0008
L48.8551 -54.2486
L48.9513 -54.4935
L49.0449 -54.7355
L49.136 -54.9746
L49.2246 -55.2108
L49.3108 -55.4444
L49.3947 -55.6752
L49.4762 -55.9034
L49.5555 -56.129
L49.6326 -56.3521
L49.7076 -56.5727
L49.7804 -56.791
L49.8511 -57.0069
L49.9198 -57.2206
L49.9865 -57.4321
L50.0512 -57.6414
L50.114 -57.8487
L50.1749 -58.054
L50.2339 -58.2573
L50.291 -58.4587
L50.3464 -58.6583
L50.4 -58.8561
L50.4518 -59.0523
L50.5018 -59.2468
L50.5501 -59.4397
L50.5968 -59.6311
L50.6417 -59.821
L50.6849 -60.0095
L50.7265 -60.1967
L50.3064 -60.3825
L49.8741 -60.6491
L49.4375 -60.895
L48.9968 -61.1333
L48.5522 -61.364
L48.1037 -61.587
L47.6515 -61.8021
L47.1958 -62.0095
L46.7367 -62.2088
L46.2743 -62.4002
L45.8088 -62.5836
L45.3403 -62.7589
L44.869 -62.926
L44.3949 -63.0849
L43.9183 -63.2356
L43.4393 -63.3779
L42.958 -63.5119
L42.4746 -63.6376
L41.9892 -63.7548
L41.502 -63.8636
L41.0132 -63.9639
L40.5228 -64.0556
L40.031 -64.1388
L39.538 -64.2135
L39.0439 -64.2795
L38.5489 -64.337
L38.0531 -64.3858
L37.5567 -64.426
L37.0598 -64.4575
L36.5626 -64.4803
L36.0652 -64.4944
L35.5678 -64.4999
L35.0705 -64.4967
L34.5735 -64.4848
L34.077 -64.4643
L33.581 -64.435
L33.0858 -64.3972
L32.5915 -64.3506
L32.0981 -64.2954
L31.606 -64.2316
L31.1153 -64.1592
L30.626 -64.0783
L30.1383 -63.9887
L29.6524 -63.8907
L29.1685 -63.7841
L28.6867 -63.6691
L28.207 -63.5457
L27.7298 -63.4139
L27.2551 -63.2737
L26.783 -63.1252
L26.3137 -62.9684
L25.8474 -62.8035
L25.3842 -62.6303
L24.9242 -62.4491
L24.4676 -62.2598
L24.0145 -62.0625
L23.5651 -61.8573
L23.1194 -61.6441
L22.6777 -61.4232
L22.24 -61.1946
L21.8065 -60.9582
L21.3773 -60.7143
L20.9526 -60.4628
L20.5325 -60.2039
L20.1171 -59.9376
L19.7065 -59.664
L19.3009 -59.3832
L18.9004 -59.0953
L18.5051 -58.8003
L18.1151 -58.4984
L17.7306 -58.1896
L17.3516 -57.8741
L16.9783 -57.5519
L16.6108 -57.2232
L16.2492 -56.888
L15.8936 -56.5464
L15.5442 -56.1986
L15.2009 -55.8446
L14.8641 -55.4846
L14.5336 -55.1186
L14.2097 -54.7468
L13.8924 -54.3693
L13.5819 -53.9863
L13.2782 -53.5977
L12.9814 -53.2038
L12.6916 -52.8046
L12.409 -52.4003
L12.1335 -51.991
L11.8652 -51.5769
L11.6044 -51.158
L11.3509 -50.7344
z
" id="C0_1_f803997dbf"/>
     <path d="
M21.4024 -11.7139
L21.5469 -11.8373
L21.6911 -11.9617
L21.8351 -12.0871
L21.979 -12.2134
L22.1227 -12.3407
L22.2662 -12.4689
L22.4097 -12.5982
L22.5532 -12.7285
L22.6967 -12.8599
L22.8403 -12.9923
L22.9839 -13.1259
L23.1277 -13.2606
L23.2716 -13.3964
L23.4158 -13.5334
L23.5602 -13.6716
L23.7049 -13.811
L23.8499 -13.9518
L23.9953 -14.0938
L24.141 -14.2372
L24.2873 -14.3819
L24.434 -14.5281
L24.5812 -14.6757
L24.729 -14.8248
L24.8774 -14.9754
L25.0265 -15.1276
L25.1763 -15.2815
L25.3268 -15.4369
L25.478 -15.5941
L25.6301 -15.7531
L25.7831 -15.9139
L25.9369 -16.0765
L26.0917 -16.241
L26.2475 -16.4074
L26.4044 -16.5759
L26.5623 -16.7464
L26.7213 -16.919
L26.8815 -17.0938
L27.043 -17.2709
L27.2057 -17.4502
L27.3697 -17.6318
L27.535 -17.8159
L27.7018 -18.0024
L27.87 -18.1914
L28.0397 -18.383
L28.2109 -18.5772
L28.3837 -18.7741
L28.5582 -18.9738
L28.7343 -19.1763
L28.9122 -19.3817
L29.0918 -19.59
L29.2732 -19.8014
L29.4565 -20.0158
L29.6418 -20.2333
L29.8289 -20.454
L30.0181 -20.6779
L30.2092 -20.905
L30.4025 -21.1355
L30.5979 -21.3694
L30.7954 -21.6067
L30.9951 -21.8474
L31.1971 -22.0916
L31.4013 -22.3394
L31.6078 -22.5906
L31.8167 -22.8454
L32.0279 -23.1038
L32.2414 -23.3657
L32.4574 -23.6311
L32.6759 -23.9
L32.8967 -24.1724
L33.1201 -24.4483
L33.3459 -24.7274
L33.5742 -25.0099
L33.8051 -25.2955
L34.0384 -25.5841
L34.2743 -25.8757
L34.5127 -26.1699
L34.7537 -26.4667
L34.9972 -26.7657
L35.2432 -27.0667
L35.4918 -27.3693
L35.7429 -27.6733
L35.9967 -27.9781
L36.253 -28.2834
L36.5119 -28.5885
L36.7735 -28.8928
L37.0378 -29.1956
L37.3048 -29.4962
L37.5747 -29.7936
L37.8475 -30.0869
L38.1234 -30.3748
L38.4025 -30.6561
L38.685 -30.9294
L38.9711 -31.1931
L39.2611 -31.4457
L39.5551 -31.6852
L39.8536 -31.9097
L40.1568 -32.1175
L40.4649 -32.3065
L40.7783 -32.475
L41.097 -32.6215
L41.4212 -32.7448
L41.7509 -32.8439
L42.0859 -32.9185
L42.426 -32.9688
L42.7708 -32.9952
L43.1198 -32.9988
L43.4723 -32.9809
L43.8278 -32.9431
L44.1856 -32.8869
L44.545 -32.8142
L44.9054 -32.7267
L45.2661 -32.6259
L45.6265 -32.5136
L45.9861 -32.391
L46.3443 -32.2596
L46.7007 -32.1204
L47.055 -31.9745
L47.4066 -31.823
L47.7553 -31.6665
L48.1008 -31.506
L48.4428 -31.342
L48.7811 -31.1751
L49.1154 -31.0059
L49.4457 -30.8347
L49.7718 -30.6621
L50.0935 -30.4884
L50.4107 -30.3139
L50.7234 -30.1388
L51.0315 -29.9635
L51.3349 -29.7881
L51.6336 -29.6129
L51.9276 -29.438
L52.2168 -29.2636
L52.5014 -29.0898
L52.7812 -28.9167
L53.0563 -28.7444
L53.3267 -28.573
L53.5925 -28.4026
L53.8537 -28.2332
L54.1104 -28.0649
L54.3625 -27.8978
L54.6103 -27.7318
L54.8536 -27.567
L55.0926 -27.4034
L55.3274 -27.2411
L55.5581 -27.0799
L55.7846 -26.9201
L56.0071 -26.7614
L56.2256 -26.604
L56.4403 -26.4479
L56.6512 -26.2929
L56.8583 -26.1392
L57.0618 -25.9866
L57.2617 -25.8352
L57.4582 -25.6849
L57.6512 -25.5358
L57.8408 -25.3877
L58.0272 -25.2407
L58.2104 -25.0947
L58.3905 -24.9498
L58.5675 -24.8058
L58.7415 -24.6628
L58.9126 -24.5206
L59.0809 -24.3793
L59.2464 -24.2389
L59.4091 -24.0993
L59.5692 -23.9604
L59.7267 -23.8223
L59.8816 -23.6849
L60.0341 -23.5481
L60.1841 -23.4119
L60.3317 -23.2763
L60.477 -23.1413
L60.6201 -23.0068
L60.7609 -22.8727
L60.8995 -22.739
L60.8912 -22.6057
L60.6451 -22.1191
L60.3916 -21.6868
L60.1306 -21.2589
L59.8623 -20.8354
L59.5867 -20.4166
L59.3039 -20.0025
L59.014 -19.5933
L58.7171 -19.1891
L58.4133 -18.79
L58.1026 -18.3962
L57.7853 -18.0077
L57.4612 -17.6247
L57.1307 -17.2473
L56.7937 -16.8756
L56.4504 -16.5097
L56.1008 -16.1498
L55.7452 -15.7959
L55.3835 -15.4482
L55.0159 -15.1067
L54.6425 -14.7716
L54.2634 -14.4429
L53.8788 -14.1209
L53.4887 -13.8055
L53.0934 -13.4968
L52.6927 -13.195
L52.2871 -12.9002
L51.8764 -12.6124
L51.4609 -12.3317
L51.0407 -12.0582
L50.6159 -11.792
L50.1867 -11.5332
L49.7532 -11.2818
L49.3154 -11.038
L48.8736 -10.8018
L48.4279 -10.5732
L47.9784 -10.3524
L47.5252 -10.1395
L47.0686 -9.93434
L46.6085 -9.73716
L46.1453 -9.54799
L45.6789 -9.36688
L45.2096 -9.19387
L44.7375 -9.02903
L44.2627 -8.87241
L43.7854 -8.72405
L43.3058 -8.584
L42.8239 -8.4523
L42.3399 -8.329
L41.854 -8.21412
L41.3664 -8.1077
L40.877 -8.00978
L40.3862 -7.92039
L39.8941 -7.83955
L39.4008 -7.76729
L38.9064 -7.70363
L38.4112 -7.64859
L37.9152 -7.60218
L37.4186 -7.56442
L36.9217 -7.53533
L36.4244 -7.51491
L35.927 -7.50316
L35.4296 -7.50009
L34.9324 -7.50571
L34.4355 -7.52
L33.9391 -7.54297
L33.4433 -7.57461
L32.9483 -7.61491
L32.4543 -7.66385
L31.9613 -7.72143
L31.4695 -7.78762
L30.9791 -7.8624
L30.4903 -7.94575
L30.0031 -8.03765
L29.5178 -8.13807
L29.0344 -8.24697
L28.5531 -8.36433
L28.0742 -8.4901
L27.5976 -8.62426
L27.1236 -8.76675
L26.6523 -8.91754
L26.1838 -9.07658
L25.7184 -9.24382
L25.256 -9.41922
L24.797 -9.6027
L24.3413 -9.79423
L23.8892 -9.99374
L23.4408 -10.2012
L22.9962 -10.4165
L22.5556 -10.6396
L22.1191 -10.8704
z
" id="C0_2_c58463b1fd"/>
    </defs>
    <g clip-path="url(#p1bffca34e9)">
     <use style="fill:#ffffff;stroke:#000000;stroke-width:2.0;" x="0.0" xlink:href="#C0_0_a811fe30f3" y="72.0"/>
    </g>
    <g clip-path="url(#p1bffca34e9)">
     <use style="fill:#ff0000;stroke:#000000;stroke-width:2.0;" x="0.0" xlink:href="#C0_1_f803997dbf" y="72.0"/>
    </g>
    <g clip-path="url(#p1bffca34e9)">
     <use style="fill:#ff0000;stroke:#000000;stroke-width:2.0;" x="0.0" xlink:href="#C0_2_c58463b1fd" y="72.0"/>
    </g>
   </g>
  </g>
 </g>
 <defs>
  <clipPath id="p1bffca34e9">
   <rect height="72.0" width="72.0" x="0.0" y="0.0"/>
  </clipPath>
 </defs>
</svg>
