<?xml version="1.0" encoding="utf-8" standalone="no"?>
<!DOCTYPE svg PUBLIC "-//W3C//DTD SVG 1.1//EN"
  "http://www.w3.org/Graphics/SVG/1.1/DTD/svg11.dtd">
<!-- Created with matplotlib (http://matplotlib.org/) -->
<svg height="72pt" version="1.1" viewBox="0 0 72 72" width="72pt" xmlns="http://www.w3.org/2000/svg" xmlns:xlink="http://www.w3.org/1999/xlink">
 <defs>
  <style type="text/css">
*{stroke-linecap:butt;stroke-linejoin:round;}
  </style>
 </defs>
 <g id="figure_1">
  <g id="patch_1">
   <path d="
M0 72
L72 72
L72 0
L0 0
z
" style="fill:none;"/>
  </g>
  <g id="axes_1">
   <g id="PatchCollection_1">
    <defs>
     <path d="
M36 -7.5
C43.5583 -7.5 50.808 -10.5029 56.1525 -15.8475
C61.4971 -21.192 64.5 -28.4417 64.5 -36
C64.5 -43.5583 61.4971 -50.808 56.1525 -56.1525
C50.808 -61.4971 43.5583 -64.5 36 -64.5
C28.4417 -64.5 21.192 -61.4971 15.8475 -56.1525
C10.5029 -50.808 7.5 -43.5583 7.5 -36
C7.5 -28.4417 10.5029 -21.192 15.8475 -15.8475
C21.192 -10.5029 28.4417 -7.5 36 -7.5
z
" id="C0_0_a811fe30f3"/>
     <path d="
M49.691 -60.9437
L49.54 -60.8155
L49.3902 -60.686
L49.2416 -60.5552
L49.0939 -60.4231
L48.9473 -60.2898
L48.8016 -60.1553
L48.6569 -60.0195
L48.513 -59.8824
L48.3698 -59.7441
L48.2275 -59.6046
L48.0858 -59.4638
L47.9448 -59.3218
L47.8044 -59.1785
L47.6645 -59.0339
L47.5252 -58.8881
L47.3864 -58.7409
L47.248 -58.5924
L46.9723 -58.4426
L46.835 -58.2914
L46.6979 -58.1388
L46.5611 -57.9848
L46.4245 -57.8293
L46.2881 -57.6724
L46.1517 -57.514
L46.0155 -57.3541
L45.8794 -57.1926
L45.7432 -57.0295
L45.6071 -56.8648
L45.4709 -56.6985
L45.3346 -56.5304
L45.1982 -56.3606
L45.0617 -56.189
L44.925 -56.0156
L44.7882 -55.8404
L44.651 -55.6632
L44.5137 -55.484
L44.376 -55.3029
L44.238 -55.1197
L44.0997 -54.9344
L43.961 -54.7469
L43.8219 -54.5572
L43.6824 -54.3653
L43.5424 -54.171
L43.402 -53.9744
L43.2611 -53.7754
L43.1197 -53.5738
L42.9777 -53.3698
L42.8353 -53.1631
L42.6922 -52.9538
L42.5486 -52.7417
L42.4043 -52.5269
L42.2595 -52.3092
L42.1141 -52.0886
L41.968 -51.8651
L41.8213 -51.6385
L41.6741 -51.4088
L41.5261 -51.176
L41.3776 -50.94
L41.2284 -50.7007
L41.0787 -50.4581
L40.9284 -50.2121
L40.7775 -49.9627
L40.626 -49.7098
L40.4741 -49.4533
L40.3216 -49.1932
L40.1688 -48.9295
L40.0155 -48.6621
L39.8619 -48.3909
L39.7081 -48.116
L39.554 -47.8373
L39.3998 -47.5548
L39.2456 -47.2684
L39.0915 -46.9782
L38.9376 -46.6841
L38.7839 -46.3861
L38.6307 -46.0843
L38.4782 -45.7786
L38.3264 -45.4691
L38.1755 -45.1558
L38.0259 -44.8387
L37.8776 -44.518
L37.731 -44.1937
L37.5864 -43.8659
L37.4439 -43.5346
L37.3041 -43.2
L37.1672 -42.8623
L37.0336 -42.5215
L36.9038 -42.1779
L36.7782 -41.8317
L36.6574 -41.483
L36.5419 -41.1321
L36.4323 -40.7793
L36.3293 -40.4249
L36.2335 -40.069
L36.1458 -39.7122
L36.0668 -39.3548
L35.9975 -38.9971
L35.9386 -38.6395
L35.8911 -38.2825
L35.8557 -37.9266
L35.8335 -37.5721
L35.8253 -37.2197
L35.8318 -36.8696
L35.8538 -36.5226
L35.8919 -36.1789
L35.9466 -35.839
L36.0183 -35.5035
L36.1073 -35.1725
L36.2134 -34.8466
L36.3366 -34.5259
L36.4765 -34.2107
L36.6326 -33.9012
L36.8043 -33.5975
L36.9909 -33.2997
L37.1915 -33.0079
L37.4051 -32.722
L37.6308 -32.4421
L37.8677 -32.168
L38.1147 -31.8998
L38.3708 -31.6372
L38.6352 -31.3803
L38.9068 -31.129
L39.1849 -30.883
L39.4685 -30.6424
L39.7571 -30.4071
L40.0497 -30.1768
L40.3458 -29.9516
L40.6448 -29.7314
L40.946 -29.516
L41.2491 -29.3054
L41.5534 -29.0995
L41.8587 -28.8982
L42.1644 -28.7014
L42.4702 -28.5091
L42.7758 -28.3211
L43.081 -28.1375
L43.3854 -27.958
L43.6888 -27.7828
L43.9911 -27.6116
L44.2919 -27.4443
L44.5913 -27.2811
L44.8889 -27.1216
L45.1847 -26.966
L45.4786 -26.8141
L45.7705 -26.6658
L46.0603 -26.5211
L46.3479 -26.3799
L46.6333 -26.2421
L46.9164 -26.1076
L47.1972 -25.9765
L47.4756 -25.8486
L47.7517 -25.7238
L48.0254 -25.6022
L48.2968 -25.4835
L48.5657 -25.3679
L48.8324 -25.2551
L49.0966 -25.1451
L49.3586 -25.038
L49.6182 -24.9335
L49.8755 -24.8317
L50.1306 -24.7326
L50.3834 -24.6359
L50.634 -24.5418
L50.8825 -24.4501
L51.1289 -24.3608
L51.3732 -24.2739
L51.6155 -24.1892
L51.8558 -24.1068
L52.0941 -24.0266
L52.3306 -23.9486
L52.5652 -23.8727
L52.798 -23.7989
L53.029 -23.7271
L53.2584 -23.6573
L53.4861 -23.5896
L53.7122 -23.5237
L53.9367 -23.4598
L54.1598 -23.3978
L54.3814 -23.3376
L54.6016 -23.2793
L54.8205 -23.2227
L55.038 -23.168
L55.2544 -23.115
L55.4695 -23.0638
L55.6835 -23.0143
L55.8965 -22.9665
L56.1083 -22.9204
L56.3192 -22.876
L56.5292 -22.8333
L56.7383 -22.7923
L56.9465 -22.7529
L57.1539 -22.7152
L57.3606 -22.6792
L57.5666 -22.6448
L57.772 -22.6121
L57.9768 -22.5811
L58.181 -22.5517
L58.3847 -22.524
L58.588 -22.498
L58.7908 -22.4737
L58.9933 -22.4512
L59.1955 -22.4303
L59.3974 -22.4113
L59.5991 -22.394
L59.8006 -22.3785
L60.002 -22.3648
L60.2033 -22.353
L60.4045 -22.3431
L60.6057 -22.3352
L60.807 -22.3292
L61.1953 -22.3252
L61.424 -22.6791
L61.6449 -23.1209
L61.8579 -23.5665
L62.0632 -24.016
L62.2604 -24.4691
L62.4497 -24.9257
L62.6309 -25.3857
L62.804 -25.8489
L62.969 -26.3153
L63.1257 -26.7845
L63.2742 -27.2566
L63.4143 -27.7313
L63.5461 -28.2086
L63.6695 -28.6882
L63.7845 -29.1701
L63.891 -29.654
L63.9891 -30.1399
L64.0786 -30.6276
L64.1595 -31.1169
L64.2319 -31.6076
L64.2956 -32.0998
L64.3508 -32.5931
L64.3973 -33.0874
L64.4352 -33.5827
L64.4644 -34.0786
L64.4849 -34.5752
L64.4967 -35.0722
L64.4999 -35.5694
L64.4944 -36.0668
L64.4802 -36.5642
L64.4574 -37.0614
L64.4258 -37.5583
L64.3856 -38.0547
L64.3368 -38.5505
L64.2793 -39.0455
L64.2133 -39.5396
L64.1386 -40.0326
L64.0553 -40.5244
L63.9635 -41.0148
L63.8632 -41.5037
L63.7544 -41.9908
L63.6372 -42.4762
L63.5115 -42.9596
L63.3775 -43.4409
L63.2351 -43.9199
L63.0844 -44.3965
L62.9254 -44.8705
L62.7583 -45.3419
L62.583 -45.8104
L62.3996 -46.2759
L62.2082 -46.7382
L62.0088 -47.1973
L61.8015 -47.653
L61.5863 -48.1052
L61.3633 -48.5536
L61.1326 -48.9982
L60.8942 -49.4389
L60.6482 -49.8755
L60.3948 -50.3078
L60.1339 -50.7358
L59.8656 -51.1593
L59.5901 -51.5782
L59.3074 -51.9924
L59.0176 -52.4016
L58.7208 -52.8059
L58.4171 -53.2051
L58.1065 -53.599
L57.7892 -53.9875
L57.4653 -54.3706
L57.1348 -54.7481
L56.7979 -55.1198
L56.4547 -55.4858
L56.1052 -55.8458
L55.7496 -56.1997
L55.388 -56.5476
L55.0205 -56.8891
L54.6472 -57.2243
L54.2682 -57.553
L53.8836 -57.8752
L53.4936 -58.1907
L53.0983 -58.4994
L52.6978 -58.8013
L52.2921 -59.0962
L51.8815 -59.3841
L51.4661 -59.6649
L51.046 -59.9384
L50.6213 -60.2047
L50.1921 -60.4636
z
" id="C0_1_3f70142550"/>
     <path d="
M10.9984 -49.673
L11.1088 -49.5036
L11.2211 -49.3337
L11.3355 -49.1631
L11.4518 -48.9919
L11.5702 -48.8199
L11.6906 -48.6472
L11.8132 -48.4737
L11.9379 -48.2994
L12.0648 -48.1241
L12.1939 -47.9479
L12.3253 -47.7707
L12.4589 -47.5925
L12.5949 -47.4131
L12.7332 -47.2326
L12.874 -47.051
L13.0173 -46.868
L13.163 -46.6839
L13.3113 -46.4983
L13.4622 -46.3114
L13.6157 -46.1231
L13.7719 -45.9333
L13.9308 -45.742
L14.0925 -45.5491
L14.257 -45.3546
L14.4244 -45.1584
L14.5947 -44.9605
L14.7679 -44.7609
L14.9441 -44.5595
L15.1233 -44.3562
L15.3056 -44.1511
L15.491 -43.944
L15.6795 -43.735
L15.8711 -43.524
L16.0658 -43.3109
L16.2638 -43.0957
L16.4649 -42.8784
L16.6693 -42.659
L16.8768 -42.4373
L17.0875 -42.2135
L17.3014 -41.9873
L17.5185 -41.7589
L17.7386 -41.5282
L17.9617 -41.2951
L18.1879 -41.0597
L18.417 -40.8218
L18.6488 -40.5816
L18.8834 -40.3389
L19.1205 -40.0937
L19.3601 -39.8461
L19.6019 -39.5959
L19.8457 -39.3433
L20.0914 -39.0881
L20.3386 -38.8303
L20.5871 -38.57
L20.8365 -38.307
L21.0865 -38.0414
L21.3366 -37.7732
L21.5865 -37.5022
L21.8356 -37.2285
L22.0833 -36.9521
L22.3291 -36.6728
L22.5724 -36.3906
L22.8123 -36.1054
L23.0483 -35.8172
L23.2794 -35.5258
L23.5048 -35.2312
L23.7236 -34.9333
L23.9349 -34.6319
L24.1378 -34.327
L24.3313 -34.0184
L24.5145 -33.706
L24.6864 -33.3898
L24.8464 -33.0697
L24.9937 -32.7455
L25.1276 -32.4174
L25.2478 -32.0852
L25.3538 -31.7492
L25.4456 -31.4093
L25.5232 -31.0658
L25.5868 -30.7189
L25.6367 -30.3689
L25.6735 -30.0159
L25.6977 -29.6604
L25.7101 -29.3027
L25.7115 -28.9432
L25.7026 -28.5824
L25.6843 -28.2204
L25.6576 -27.8579
L25.6231 -27.4951
L25.5817 -27.1324
L25.5341 -26.7702
L25.4812 -26.4089
L25.4235 -26.0487
L25.3618 -25.6899
L25.2965 -25.3329
L25.2283 -24.9778
L25.1575 -24.625
L25.0848 -24.2746
L25.0104 -23.9269
L24.9348 -23.5819
L24.8582 -23.24
L24.781 -22.9012
L24.7034 -22.5656
L24.6256 -22.2333
L24.548 -21.9045
L24.4706 -21.5792
L24.3937 -21.2575
L24.3173 -20.9395
L24.2416 -20.6251
L24.1668 -20.3144
L24.0928 -20.0074
L24.0199 -19.7042
L23.948 -19.4048
L23.8773 -19.1091
L23.8078 -18.8171
L23.7396 -18.5288
L23.6726 -18.2443
L23.6069 -17.9633
L23.5426 -17.686
L23.4796 -17.4123
L23.4181 -17.1422
L23.3578 -16.8755
L23.299 -16.6122
L23.2416 -16.3524
L23.1856 -16.0959
L23.131 -15.8427
L23.0778 -15.5927
L23.0259 -15.3459
L22.9755 -15.1021
L22.9264 -14.8614
L22.8787 -14.6237
L22.8323 -14.3889
L22.7873 -14.157
L22.7436 -13.9278
L22.7012 -13.7014
L22.6601 -13.4776
L22.6203 -13.2563
L22.5818 -13.0377
L22.5446 -12.8214
L22.5086 -12.6076
L22.4739 -12.3961
L22.4404 -12.1869
L22.4081 -11.9799
L22.3771 -11.775
L22.3472 -11.5722
L22.3185 -11.3714
L21.7904 -11.1726
L21.3614 -11.295
L20.9369 -11.5467
L20.5169 -11.8059
L20.1017 -12.0725
L19.6913 -12.3464
L19.2859 -12.6274
L18.8856 -12.9156
L18.4904 -13.2108
L18.1007 -13.513
L17.7163 -13.822
L17.3376 -14.1378
L16.9645 -14.4602
L16.5972 -14.7892
L16.2358 -15.1246
L15.8805 -15.4664
L15.5313 -15.8145
L15.1883 -16.1687
L14.8516 -16.5289
L14.5214 -16.8951
L14.1978 -17.2671
L13.8807 -17.6448
L13.5705 -18.0281
L13.267 -18.4169
L12.9705 -18.811
L12.681 -19.2104
L12.3986 -19.6149
L12.1233 -20.0243
L11.8554 -20.4387
L11.5948 -20.8577
L11.3416 -21.2814
L11.096 -21.7096
L10.8579 -22.1421
L10.6275 -22.5789
L10.4049 -23.0197
L10.19 -23.4645
L9.98297 -23.9131
L9.78388 -24.3654
L9.59278 -24.8212
L9.40972 -25.2805
L9.23476 -25.743
L9.06795 -26.2086
L8.90935 -26.6772
L8.759 -27.1486
L8.61694 -27.6228
L8.48323 -28.0995
L8.3579 -28.5786
L8.24099 -29.06
L8.13253 -29.5434
L8.03257 -30.0289
L7.94112 -30.5161
L7.85822 -31.0051
L7.78389 -31.4955
L7.71816 -31.9874
L7.66104 -32.4804
L7.61256 -32.9745
L7.57272 -33.4696
L7.54154 -33.9654
L7.51903 -34.4618
L7.50519 -34.9587
L7.50004 -35.4559
L7.50356 -35.9533
L7.51577 -36.4507
L7.53665 -36.948
L7.56621 -37.445
L7.60442 -37.9415
L7.65129 -38.4374
L7.70679 -38.9326
L7.7709 -39.427
L7.84362 -39.9202
L7.92491 -40.4123
L8.01476 -40.903
L8.11313 -41.3922
L8.21999 -41.8798
L8.33532 -42.3656
L8.45907 -42.8495
L8.59121 -43.3313
L8.73171 -43.8108
L8.8805 -44.288
L9.03756 -44.7626
L9.20283 -45.2346
L9.37627 -45.7037
L9.55781 -46.1699
L9.74741 -46.633
L9.94501 -47.0929
L10.1505 -47.5493
L10.3639 -48.0023
L10.5852 -48.4516
z
" id="C0_2_b14be7ce9e"/>
    </defs>
    <g clip-path="url(#p1bffca34e9)">
     <use style="fill:#ffffff;stroke:#000000;stroke-width:2.0;" x="0.0" xlink:href="#C0_0_a811fe30f3" y="72.0"/>
    </g>
    <g clip-path="url(#p1bffca34e9)">
     <use style="fill:#ff0000;stroke:#000000;stroke-width:2.0;" x="0.0" xlink:href="#C0_1_3f70142550" y="72.0"/>
    </g>
    <g clip-path="url(#p1bffca34e9)">
     <use style="fill:#ff0000;stroke:#000000;stroke-width:2.0;" x="0.0" xlink:href="#C0_2_b14be7ce9e" y="72.0"/>
    </g>
   </g>
  </g>
 </g>
 <defs>
  <clipPath id="p1bffca34e9">
   <rect height="72.0" width="72.0" x="0.0" y="0.0"/>
  </clipPath>
 </defs>
</svg>
