<?xml version="1.0" encoding="utf-8" standalone="no"?>
<!DOCTYPE svg PUBLIC "-//W3C//DTD SVG 1.1//EN"
  "http://www.w3.org/Graphics/SVG/1.1/DTD/svg11.dtd">
<!-- Created with matplotlib (http://matplotlib.org/) -->
<svg height="72pt" version="1.1" viewBox="0 0 72 72" width="72pt" xmlns="http://www.w3.org/2000/svg" xmlns:xlink="http://www.w3.org/1999/xlink">
 <defs>
  <style type="text/css">
*{stroke-linecap:butt;stroke-linejoin:round;}
  </style>
 </defs>
 <g id="figure_1">
  <g id="patch_1">
   <path d="
M0 72
L72 72
L72 0
L0 0
z
" style="fill:none;"/>
  </g>
  <g id="axes_1">
   <g id="PatchCollection_1">
    <defs>
     <path d="
M36 -7.5
C43.5583 -7.5 50.808 -10.5029 56.1525 -15.8475
C61.4971 -21.192 64.5 -28.4417 64.5 -36
C64.5 -43.5583 61.4971 -50.808 56.1525 -56.1525
C50.808 -61.4971 43.5583 -64.5 36 -64.5
C28.4417 -64.5 21.192 -61.4971 15.8475 -56.1525
C10.5029 -50.808 7.5 -43.5583 7.5 -36
C7.5 -28.4417 10.5029 -21.192 15.8475 -15.8475
C21.192 -10.5029 28.4417 -7.5 36 -7.5
z
" id="C0_0_a811fe30f3"/>
     <path d="
M7.67257 -37.1704
L7.85994 -37.1048
L8.04782 -37.0408
L8.23622 -36.9783
L8.42517 -36.9173
L8.61466 -36.8576
L8.80471 -36.7993
L8.99534 -36.7423
L9.18657 -36.6865
L9.37841 -36.632
L9.57089 -36.5786
L9.76403 -36.5264
L9.95786 -36.4752
L10.1524 -36.4251
L10.3477 -36.376
L10.5437 -36.328
L10.7405 -36.2808
L10.9382 -36.2347
L11.1367 -36.1894
L11.3361 -36.145
L11.5365 -36.1015
L11.9401 -36.0588
L12.1434 -36.0169
L12.3479 -35.9758
L12.5534 -35.9355
L12.7601 -35.8959
L12.968 -35.8571
L13.1772 -35.819
L13.3877 -35.7817
L13.5994 -35.745
L13.8126 -35.709
L14.0272 -35.6737
L14.2433 -35.6391
L14.4609 -35.6051
L14.6801 -35.5718
L14.9009 -35.5391
L15.1234 -35.507
L15.3476 -35.4756
L15.5736 -35.4448
L15.8014 -35.4147
L16.0312 -35.3851
L16.2628 -35.3562
L16.4965 -35.3279
L16.7322 -35.3003
L16.9701 -35.2732
L17.2101 -35.2468
L17.4523 -35.221
L17.6968 -35.1959
L17.9437 -35.1714
L18.1929 -35.1476
L18.4446 -35.1245
L18.6988 -35.102
L18.9556 -35.0802
L19.215 -35.0591
L19.477 -35.0388
L19.7418 -35.0192
L20.0094 -35.0003
L20.2798 -34.9823
L20.5531 -34.965
L20.8293 -34.9486
L21.1085 -34.933
L21.3908 -34.9183
L21.6761 -34.9046
L21.9644 -34.8918
L22.256 -34.8799
L22.5507 -34.8691
L22.8486 -34.8594
L23.1497 -34.8508
L23.454 -34.8434
L23.7616 -34.8372
L24.0724 -34.8323
L24.3864 -34.8287
L24.7037 -34.8265
L25.0243 -34.8258
L25.348 -34.8267
L25.6748 -34.8292
L26.0048 -34.8334
L26.3377 -34.8395
L26.6737 -34.8475
L27.0125 -34.8575
L27.3541 -34.8697
L27.6984 -34.8841
L28.0451 -34.901
L28.3943 -34.9204
L28.7456 -34.9425
L29.0989 -34.9676
L29.454 -34.9957
L29.8106 -35.0271
L30.1685 -35.0619
L30.5273 -35.1005
L30.8867 -35.1431
L31.2464 -35.1899
L31.606 -35.2413
L31.9651 -35.2974
L32.3232 -35.3588
L32.6797 -35.4256
L33.0343 -35.4984
L33.3862 -35.5775
L33.735 -35.6632
L34.08 -35.7562
L34.4206 -35.8568
L34.7561 -35.9654
L35.0857 -36.0827
L35.4088 -36.209
L35.7248 -36.3448
L36.0329 -36.4906
L36.3324 -36.6469
L36.6228 -36.814
L36.9035 -36.9922
L37.1739 -37.1818
L37.4338 -37.3831
L37.6826 -37.596
L37.9202 -37.8206
L38.1465 -38.0569
L38.3613 -38.3045
L38.5646 -38.5632
L38.7567 -38.8325
L38.9377 -39.112
L39.1078 -39.4012
L39.2674 -39.6993
L39.4167 -40.0057
L39.5563 -40.3198
L39.6864 -40.6407
L39.8076 -40.9679
L39.9201 -41.3005
L40.0245 -41.6378
L40.1211 -41.9792
L40.2104 -42.3241
L40.2926 -42.6717
L40.3682 -43.0215
L40.4375 -43.373
L40.5008 -43.7257
L40.5584 -44.079
L40.6107 -44.4325
L40.6579 -44.7858
L40.7002 -45.1385
L40.7379 -45.4903
L40.7712 -45.8409
L40.8004 -46.1899
L40.8256 -46.5372
L40.847 -46.8825
L40.8648 -47.2256
L40.8792 -47.5662
L40.8903 -47.9043
L40.8982 -48.2397
L40.9032 -48.5723
L40.9053 -48.9019
L40.9046 -49.2285
L40.9013 -49.552
L40.8954 -49.8723
L40.8871 -50.1894
L40.8765 -50.5032
L40.8636 -50.8138
L40.8486 -51.121
L40.8315 -51.4249
L40.8124 -51.7255
L40.7913 -52.0227
L40.7684 -52.3166
L40.7436 -52.6072
L40.7171 -52.8946
L40.6889 -53.1786
L40.659 -53.4595
L40.6276 -53.7371
L40.5945 -54.0116
L40.56 -54.283
L40.5239 -54.5513
L40.4864 -54.8166
L40.4475 -55.0789
L40.4072 -55.3383
L40.3655 -55.5948
L40.3225 -55.8485
L40.2782 -56.0994
L40.2326 -56.3475
L40.1857 -56.5931
L40.1375 -56.8359
L40.0881 -57.0763
L40.0374 -57.3141
L39.9855 -57.5495
L39.9324 -57.7825
L39.878 -58.0131
L39.8224 -58.2415
L39.7656 -58.4676
L39.7076 -58.6916
L39.6483 -58.9134
L39.5878 -59.1332
L39.5261 -59.3509
L39.4632 -59.5667
L39.3989 -59.7805
L39.3335 -59.9925
L39.2667 -60.2026
L39.1986 -60.411
L39.1292 -60.6177
L39.0585 -60.8226
L38.9865 -61.0259
L38.913 -61.2276
L38.8382 -61.4278
L38.7619 -61.6264
L38.6841 -61.8235
L38.6049 -62.0193
L38.5241 -62.2136
L38.4418 -62.4065
L38.3579 -62.5981
L38.2724 -62.7884
L38.1851 -62.9774
L38.0962 -63.1652
L38.0054 -63.3517
L37.9129 -63.5371
L37.8184 -63.7213
L37.7221 -63.9043
L37.6237 -64.0863
L37.5233 -64.2671
L37.0271 -64.4468
L36.5299 -64.4815
L36.0325 -64.4951
L35.5351 -64.5
L35.0378 -64.4962
L34.5409 -64.4838
L34.0443 -64.4626
L33.5484 -64.4328
L33.0532 -64.3944
L32.559 -64.3473
L32.0657 -64.2915
L31.5737 -64.2271
L31.083 -64.1542
L30.5938 -64.0726
L30.1063 -63.9826
L29.6205 -63.8839
L29.1367 -63.7768
L28.655 -63.6613
L28.1756 -63.5373
L27.6985 -63.4049
L27.2239 -63.2642
L26.752 -63.1151
L26.283 -62.9578
L25.8168 -62.7923
L25.3538 -62.6187
L24.8941 -62.4369
L24.4377 -62.2471
L23.9848 -62.0492
L23.5356 -61.8435
L23.0902 -61.6299
L22.6487 -61.4084
L22.2113 -61.1792
L21.7781 -60.9424
L21.3493 -60.6979
L20.9249 -60.446
L20.505 -60.1866
L20.0899 -59.9198
L19.6797 -59.6457
L19.2744 -59.3644
L18.8742 -59.0761
L18.4793 -58.7806
L18.0896 -58.4783
L17.7054 -58.1691
L17.3268 -57.8531
L16.9539 -57.5305
L16.5868 -57.2013
L16.2256 -56.8657
L15.8704 -56.5237
L15.5214 -56.1755
L15.1786 -55.8211
L14.8421 -55.4607
L14.5121 -55.0943
L14.1886 -54.7222
L13.8718 -54.3443
L13.5617 -53.9609
L13.2585 -53.5719
L12.9621 -53.1777
L12.6728 -52.7781
L12.3906 -52.3735
L12.1156 -51.9639
L11.8479 -51.5494
L11.5875 -51.1302
L11.3345 -50.7064
L11.0891 -50.2781
L10.8513 -49.8455
L10.6211 -49.4086
L10.3986 -48.9677
L10.184 -48.5228
L9.97718 -48.0741
L9.77832 -47.6217
L9.58745 -47.1657
L9.40462 -46.7064
L9.22989 -46.2438
L9.06331 -45.7781
L8.90494 -45.3094
L8.75483 -44.8379
L8.61301 -44.3637
L8.47954 -43.8869
L8.35445 -43.4077
L8.23778 -42.9263
L8.12956 -42.4428
L8.02984 -41.9573
L7.93864 -41.4699
L7.85598 -40.981
L7.7819 -40.4905
L7.71641 -39.9986
L7.65954 -39.5055
L7.6113 -39.0114
L7.57171 -38.5163
z
" id="C0_1_81d652c993"/>
     <path d="
M34.5951 -7.69652
L34.7145 -7.86649
L34.8333 -8.03835
L34.9517 -8.21216
L35.0696 -8.38794
L35.1872 -8.56574
L35.3045 -8.74561
L35.4214 -8.92758
L35.5381 -9.11171
L35.6544 -9.29804
L35.7706 -9.48662
L35.8866 -9.67749
L36.0024 -9.87071
L36.1181 -10.0663
L36.2336 -10.2644
L36.3491 -10.465
L36.4645 -10.6681
L36.5799 -10.8739
L36.6952 -11.0823
L36.8106 -11.2934
L36.9261 -11.5073
L37.0416 -11.724
L37.1572 -11.9437
L37.2729 -12.1662
L37.3887 -12.3918
L37.5047 -12.6204
L37.6209 -12.8522
L37.7373 -13.087
L37.8539 -13.3251
L37.9708 -13.5665
L38.088 -13.8112
L38.2054 -14.0592
L38.3232 -14.3106
L38.4414 -14.5655
L38.5599 -14.8239
L38.6788 -15.0858
L38.7981 -15.3512
L38.9179 -15.6202
L39.0381 -15.8928
L39.1589 -16.1691
L39.2801 -16.4489
L39.402 -16.7324
L39.5244 -17.0195
L39.6475 -17.3101
L39.7713 -17.6044
L39.8958 -17.9022
L40.021 -18.2036
L40.1471 -18.5083
L40.274 -18.8164
L40.4019 -19.1278
L40.5307 -19.4424
L40.6607 -19.76
L40.7918 -20.0806
L40.9241 -20.4039
L41.0578 -20.7298
L41.193 -21.058
L41.3297 -21.3884
L41.4682 -21.7207
L41.6086 -22.0546
L41.751 -22.3897
L41.8957 -22.7258
L42.0428 -23.0624
L42.1927 -23.3992
L42.3454 -23.7357
L42.5015 -24.0713
L42.661 -24.4057
L42.8244 -24.7382
L42.9919 -25.0682
L43.1641 -25.3952
L43.3411 -25.7184
L43.5235 -26.0373
L43.7117 -26.3511
L43.906 -26.6591
L44.1068 -26.9608
L44.3146 -27.2554
L44.5296 -27.5422
L44.7523 -27.8209
L44.9828 -28.0907
L45.2213 -28.3512
L45.468 -28.6022
L45.723 -28.8433
L45.9861 -29.0744
L46.2572 -29.2953
L46.5362 -29.5062
L46.8226 -29.7072
L47.1162 -29.8984
L47.4164 -30.0802
L47.7228 -30.2529
L48.0348 -30.4168
L48.3519 -30.5726
L48.6734 -30.7205
L48.9988 -30.8612
L49.3275 -30.9949
L49.6588 -31.1223
L49.9922 -31.2438
L50.3272 -31.3598
L50.6632 -31.4707
L50.9998 -31.5769
L51.3365 -31.6788
L51.6728 -31.7768
L52.0084 -31.8711
L52.343 -31.962
L52.6761 -32.0499
L53.0074 -32.1349
L53.3368 -32.2174
L53.6639 -32.2974
L53.9885 -32.3752
L54.3105 -32.451
L54.6296 -32.5249
L54.9457 -32.5971
L55.2587 -32.6677
L55.5684 -32.7369
L55.8747 -32.8046
L56.1776 -32.8711
L56.4771 -32.9365
L56.7729 -33.0007
L57.0651 -33.0639
L57.3538 -33.1262
L57.6387 -33.1877
L57.92 -33.2483
L58.1976 -33.3081
L58.4716 -33.3673
L58.7419 -33.4257
L59.0086 -33.4836
L59.2717 -33.5409
L59.5312 -33.5976
L59.7871 -33.6539
L60.0396 -33.7097
L60.2886 -33.765
L60.5342 -33.82
L60.7764 -33.8745
L61.0153 -33.9287
L61.2509 -33.9826
L61.4833 -34.0362
L61.7126 -34.0895
L61.9387 -34.1425
L62.1618 -34.1953
L62.382 -34.2479
L62.5992 -34.3003
L62.8135 -34.3525
L63.025 -34.4045
L63.2338 -34.4564
L63.4399 -34.5082
L63.6434 -34.5599
L63.8443 -34.6115
L64.0426 -34.663
L64.2385 -34.7145
L64.4473 -34.7659
L64.4127 -34.2674
L64.3695 -33.7712
L64.3176 -33.2757
L64.2571 -32.781
L64.188 -32.2873
L64.1103 -31.7947
L64.0241 -31.3034
L63.9293 -30.8135
L63.826 -30.3252
L63.7143 -29.8386
L63.594 -29.3539
L63.4654 -28.8713
L63.3284 -28.3908
L63.1831 -27.9126
L63.0295 -27.4369
L62.8677 -26.9638
L62.6977 -26.4934
L62.5196 -26.0259
L62.3334 -25.5615
L62.1391 -25.1003
L61.9369 -24.6424
L61.7268 -24.1879
L61.5089 -23.737
L61.2832 -23.2899
L61.0498 -22.8467
L60.8087 -22.4074
L60.5601 -21.9723
L60.3041 -21.5415
L60.0406 -21.115
L59.7698 -20.6931
L59.4917 -20.2759
L59.2065 -19.8635
L58.9143 -19.4559
L58.615 -19.0534
L58.3089 -18.6561
L57.996 -18.2641
L57.6763 -17.8774
L57.3501 -17.4963
L57.0173 -17.1208
L56.6782 -16.7511
L56.3328 -16.3872
L55.9811 -16.0293
L55.6234 -15.6775
L55.2597 -15.3319
L54.8902 -14.9925
L54.5148 -14.6596
L54.1339 -14.3332
L53.7474 -14.0134
L53.3555 -13.7002
L52.9583 -13.3939
L52.556 -13.0944
L52.1486 -12.802
L51.7363 -12.5166
L51.3192 -12.2383
L50.8975 -11.9673
L50.4712 -11.7036
L50.0404 -11.4473
L49.6055 -11.1985
L49.1663 -10.9572
L48.7232 -10.7236
L48.2762 -10.4976
L47.8254 -10.2795
L47.3711 -10.0691
L46.9132 -9.86671
L46.4521 -9.67224
L45.9878 -9.48578
L45.5204 -9.30741
L45.0501 -9.13716
L44.5771 -8.9751
L44.1015 -8.82127
L43.6233 -8.67572
L43.1429 -8.53849
L42.6603 -8.40963
L42.1757 -8.28917
L41.6892 -8.17715
L41.2009 -8.07361
L40.7111 -7.97857
L40.2198 -7.89207
L39.7273 -7.81413
L39.2336 -7.74478
L38.7389 -7.68403
L38.2434 -7.63191
L37.7472 -7.58843
L37.2505 -7.55361
L36.7534 -7.52745
L36.256 -7.50996
L35.7586 -7.50115
L35.2613 -7.50102
z
" id="C0_2_1085a81061"/>
    </defs>
    <g clip-path="url(#p1bffca34e9)">
     <use style="fill:#ffffff;stroke:#000000;stroke-width:2.0;" x="0.0" xlink:href="#C0_0_a811fe30f3" y="72.0"/>
    </g>
    <g clip-path="url(#p1bffca34e9)">
     <use style="fill:#ff0000;stroke:#000000;stroke-width:2.0;" x="0.0" xlink:href="#C0_1_81d652c993" y="72.0"/>
    </g>
    <g clip-path="url(#p1bffca34e9)">
     <use style="fill:#ff0000;stroke:#000000;stroke-width:2.0;" x="0.0" xlink:href="#C0_2_1085a81061" y="72.0"/>
    </g>
   </g>
  </g>
 </g>
 <defs>
  <clipPath id="p1bffca34e9">
   <rect height="72.0" width="72.0" x="0.0" y="0.0"/>
  </clipPath>
 </defs>
</svg>
