<?xml version="1.0" encoding="utf-8" standalone="no"?>
<!DOCTYPE svg PUBLIC "-//W3C//DTD SVG 1.1//EN"
  "http://www.w3.org/Graphics/SVG/1.1/DTD/svg11.dtd">
<!-- Created with matplotlib (http://matplotlib.org/) -->
<svg height="72pt" version="1.1" viewBox="0 0 72 72" width="72pt" xmlns="http://www.w3.org/2000/svg" xmlns:xlink="http://www.w3.org/1999/xlink">
 <defs>
  <style type="text/css">
*{stroke-linecap:butt;stroke-linejoin:round;}
  </style>
 </defs>
 <g id="figure_1">
  <g id="patch_1">
   <path d="
M0 72
L72 72
L72 0
L0 0
z
" style="fill:none;"/>
  </g>
  <g id="axes_1">
   <g id="PatchCollection_1">
    <defs>
     <path d="
M36 -7.5
C43.5583 -7.5 50.808 -10.5029 56.1525 -15.8475
C61.4971 -21.192 64.5 -28.4417 64.5 -36
C64.5 -43.5583 61.4971 -50.808 56.1525 -56.1525
C50.808 -61.4971 43.5583 -64.5 36 -64.5
C28.4417 -64.5 21.192 -61.4971 15.8475 -56.1525
C10.5029 -50.808 7.5 -43.5583 7.5 -36
C7.5 -28.4417 10.5029 -21.192 15.8475 -15.8475
C21.192 -10.5029 28.4417 -7.5 36 -7.5
z
" id="C0_0_a811fe30f3"/>
     <path d="
M10.6069 -23.1039
L10.615 -23.4383
L10.6314 -23.7684
L10.6556 -24.0943
L10.6875 -24.4158
L10.7268 -24.733
L10.7733 -25.0459
L10.8267 -25.3543
L10.8868 -25.6584
L10.9533 -25.9581
L11.026 -26.2534
L11.1047 -26.5443
L11.1892 -26.8309
L11.2792 -27.1133
L11.3746 -27.3913
L11.4752 -27.6651
L11.5808 -27.9347
L11.6911 -28.2001
L11.8061 -28.4615
L11.9255 -28.7187
L12.0493 -28.972
L12.1771 -29.2213
L12.309 -29.4667
L12.4446 -29.7082
L12.584 -29.946
L12.727 -30.18
L12.8733 -30.4103
L13.0231 -30.637
L13.176 -30.8602
L13.332 -31.0798
L13.491 -31.296
L13.6529 -31.5087
L13.8177 -31.7182
L13.9851 -31.9243
L14.1551 -32.1273
L14.3277 -32.327
L14.5028 -32.5237
L14.6803 -32.7172
L14.8601 -32.9078
L15.0421 -33.0954
L15.2264 -33.2801
L15.4128 -33.4619
L15.6013 -33.6409
L15.7919 -33.8171
L15.9844 -33.9906
L16.1789 -34.1614
L16.3753 -34.3296
L16.5736 -34.4952
L16.7737 -34.6582
L16.9757 -34.8187
L17.1794 -34.9768
L17.3848 -35.1324
L17.592 -35.2856
L17.8009 -35.4364
L18.0114 -35.5848
L18.2236 -35.731
L18.4374 -35.8749
L18.6529 -36.0165
L18.87 -36.1559
L19.0886 -36.2931
L19.3089 -36.4281
L19.5307 -36.561
L19.979 -36.6917
L20.2055 -36.8203
L20.4336 -36.9468
L20.6632 -37.0713
L20.8943 -37.1936
L21.127 -37.314
L21.3612 -37.4322
L21.5969 -37.5485
L21.8342 -37.6627
L22.0731 -37.7749
L22.3134 -37.8851
L22.5554 -37.9933
L22.7988 -38.0995
L23.0439 -38.2037
L23.2904 -38.3059
L23.5386 -38.4061
L23.7883 -38.5043
L24.0395 -38.6005
L24.2923 -38.6947
L24.5467 -38.7868
L24.8027 -38.8769
L25.0602 -38.9649
L25.3193 -39.0509
L25.5799 -39.1348
L25.8422 -39.2166
L26.106 -39.2963
L26.3714 -39.3738
L26.6383 -39.4491
L26.9069 -39.5223
L27.177 -39.5932
L27.4486 -39.6619
L27.7218 -39.7283
L27.9965 -39.7924
L28.2728 -39.8542
L28.5505 -39.9135
L28.8298 -39.9704
L29.1106 -40.0249
L29.3928 -40.0768
L29.6765 -40.1261
L29.9615 -40.1729
L30.248 -40.2169
L30.5359 -40.2583
L30.8251 -40.2969
L31.1156 -40.3326
L31.4074 -40.3655
L31.7004 -40.3954
L31.9946 -40.4223
L32.2899 -40.4461
L32.5864 -40.4667
L32.8838 -40.4841
L33.1822 -40.4982
L33.4816 -40.5089
L33.7818 -40.5162
L34.0828 -40.52
L34.3844 -40.5201
L34.6867 -40.5166
L34.9896 -40.5092
L35.2929 -40.4981
L35.5966 -40.4829
L35.9005 -40.4637
L36.2046 -40.4404
L36.5088 -40.4129
L36.8129 -40.3811
L37.1169 -40.3449
L37.4206 -40.3042
L37.7239 -40.259
L38.0266 -40.209
L38.3287 -40.1544
L38.63 -40.0948
L38.9304 -40.0304
L39.2297 -39.961
L39.5277 -39.8865
L39.8244 -39.8068
L40.1196 -39.7219
L40.413 -39.6317
L40.7047 -39.5361
L40.9943 -39.435
L41.2818 -39.3285
L41.567 -39.2165
L41.8497 -39.0988
L42.1298 -38.9755
L42.4071 -38.8466
L42.6814 -38.712
L42.9526 -38.5717
L43.2205 -38.4257
L43.485 -38.274
L43.7459 -38.1166
L44.0031 -37.9535
L44.2565 -37.7847
L44.5058 -37.6104
L44.751 -37.4304
L44.9919 -37.245
L45.2283 -37.0541
L45.4603 -36.8578
L45.6876 -36.6562
L45.9102 -36.4494
L46.128 -36.2375
L46.3408 -36.0206
L46.5485 -35.7988
L46.7512 -35.5723
L46.9486 -35.3411
L47.1408 -35.1054
L47.3277 -34.8653
L47.5092 -34.6211
L47.6853 -34.3727
L47.8559 -34.1205
L48.0211 -33.8645
L48.1807 -33.6049
L48.3347 -33.3419
L48.4832 -33.0756
L48.6261 -32.8062
L48.7634 -32.5339
L48.8952 -32.2588
L49.0213 -31.9811
L49.1419 -31.7009
L49.2569 -31.4185
L49.3664 -31.134
L49.4704 -30.8475
L49.5688 -30.5593
L49.6618 -30.2693
L49.7494 -29.9779
L49.8315 -29.6852
L49.9083 -29.3912
L49.9797 -29.0961
L50.0459 -28.8002
L50.1067 -28.5034
L50.1624 -28.206
L50.2129 -27.908
L50.2583 -27.6096
L50.2987 -27.3108
L50.334 -27.0119
L50.3643 -26.7128
L50.3896 -26.4138
L50.4101 -26.1148
L50.4258 -25.8161
L50.4366 -25.5176
L50.4427 -25.2195
L50.4441 -24.9218
L50.4408 -24.6247
L50.433 -24.3281
L50.4205 -24.0322
L50.4035 -23.737
L50.3821 -23.4427
L50.3562 -23.1491
L50.3258 -22.8565
L50.2912 -22.5649
L50.2521 -22.2742
L50.2088 -21.9846
L50.1612 -21.6961
L50.1094 -21.4088
L50.0534 -21.1226
L49.9931 -20.8377
L49.9288 -20.554
L49.8603 -20.2716
L49.7877 -19.9905
L49.711 -19.7108
L49.6302 -19.4325
L49.5454 -19.1555
L49.4566 -18.8801
L49.3637 -18.6061
L49.2668 -18.3335
L49.166 -18.0625
L49.0611 -17.7931
L48.9522 -17.5251
L48.8394 -17.2588
L48.7225 -16.9941
L48.6017 -16.731
L48.4769 -16.4696
L48.3481 -16.2098
L48.2152 -15.9517
L48.0784 -15.6954
L47.9375 -15.4407
L47.7926 -15.1879
L47.6437 -14.9368
L47.4907 -14.6876
L47.3336 -14.4402
L47.1723 -14.1946
L47.007 -13.951
L46.8374 -13.7092
L46.6637 -13.4695
L46.4858 -13.2317
L46.3036 -12.996
L46.1172 -12.7623
L45.9265 -12.5307
L45.7314 -12.3013
L45.5319 -12.074
L45.328 -11.849
L45.1196 -11.6262
L44.9068 -11.4058
L44.6893 -11.1878
L44.4674 -10.9721
L44.2407 -10.759
L44.0094 -10.5485
L43.7734 -10.3405
L43.5326 -10.1353
L43.287 -9.9328
L43.0365 -9.73315
L42.7811 -9.53642
L42.5207 -9.34269
L42.2554 -9.15205
L41.9849 -8.9646
L41.7094 -8.78042
L41.4287 -8.59963
L41.1427 -8.42232
L40.8516 -8.24861
L40.5551 -8.07861
L40.0707 -7.91245
L39.5778 -7.79222
L39.0838 -7.72547
L38.5889 -7.66733
L38.0931 -7.61783
L37.5968 -7.57697
L37.0999 -7.54477
L36.6027 -7.52123
L36.1054 -7.50637
L35.6079 -7.50019
L35.1107 -7.5027
L34.6136 -7.51388
L34.1171 -7.53374
L33.621 -7.56227
L33.1257 -7.59946
L32.6313 -7.64531
L32.1379 -7.69979
L31.6457 -7.76289
L31.1548 -7.83459
L30.6654 -7.91488
L30.1776 -8.00371
L29.6916 -8.10108
L29.2075 -8.20694
L28.7255 -8.32127
L28.2457 -8.44403
L27.7682 -8.57519
L27.2933 -8.7147
L26.821 -8.86252
L26.3515 -9.0186
L25.8849 -9.18291
L25.4215 -9.35538
L24.9612 -9.53597
L24.5043 -9.72463
L24.0509 -9.92128
L23.6012 -10.1259
L23.1552 -10.3384
L22.7132 -10.5587
L22.2752 -10.7867
L21.8413 -11.0224
L21.4118 -11.2658
L20.9867 -11.5166
L20.5663 -11.775
L20.1505 -12.0407
L19.7395 -12.3137
L19.3335 -12.5939
L18.9325 -12.8812
L18.5368 -13.1756
L18.1464 -13.477
L17.7614 -13.7852
L17.382 -14.1002
L17.0082 -14.4218
L16.6402 -14.75
L16.2782 -15.0847
L15.9221 -15.4258
L15.5721 -15.7731
L15.2284 -16.1266
L14.891 -16.4861
L14.56 -16.8516
L14.2356 -17.2229
L13.9178 -17.6
L13.6067 -17.9826
L13.3024 -18.3707
L13.0051 -18.7642
L12.7148 -19.163
L12.4315 -19.5669
L12.1554 -19.9758
L11.8866 -20.3895
L11.6252 -20.8081
L11.3711 -21.2312
L11.1246 -21.6589
L10.8856 -22.0909
z
" id="C0_1_cc4fdb72ba"/>
     <path d="
M31.767 -64.1148
L32.1037 -64.0489
L32.4405 -63.9795
L32.7773 -63.9067
L33.1142 -63.8305
L33.4513 -63.7509
L33.7884 -63.6679
L34.1257 -63.5815
L34.4631 -63.4917
L34.8006 -63.3986
L35.1382 -63.3022
L35.476 -63.2024
L35.814 -63.0993
L36.152 -62.9928
L36.4903 -62.8832
L36.8286 -62.7702
L37.1671 -62.654
L37.5057 -62.5346
L37.8445 -62.412
L38.1834 -62.2862
L38.5224 -62.1573
L38.8615 -62.0253
L39.2007 -61.8902
L39.5401 -61.752
L39.8795 -61.6108
L40.2189 -61.4667
L40.5584 -61.3196
L40.898 -61.1696
L41.2376 -61.0168
L41.5771 -60.8613
L41.9167 -60.7029
L42.2562 -60.5419
L42.5957 -60.3783
L42.9352 -60.2122
L43.2745 -60.0435
L43.6137 -59.8725
L43.9528 -59.6991
L44.2917 -59.5234
L44.6304 -59.3456
L44.9689 -59.1656
L45.3072 -58.9836
L45.6452 -58.7998
L45.9829 -58.614
L46.3203 -58.4266
L46.6574 -58.2375
L46.9941 -58.0468
L47.3304 -57.8547
L47.6663 -57.6613
L48.0017 -57.4665
L48.3366 -57.2707
L48.671 -57.0738
L49.0049 -56.8759
L49.3382 -56.6772
L49.6709 -56.4777
L50.0029 -56.2776
L50.3342 -56.0769
L50.6649 -55.8758
L50.9947 -55.6743
L51.3238 -55.4724
L51.6521 -55.2704
L51.9795 -55.0682
L52.306 -54.866
L52.6315 -54.6637
L52.9561 -54.4616
L53.2796 -54.2595
L53.602 -54.0576
L53.9233 -53.8559
L54.2434 -53.6545
L54.5622 -53.4534
L54.8798 -53.2526
L55.196 -53.0522
L55.5109 -52.8521
L55.8243 -52.6524
L56.1362 -52.4531
L56.4465 -52.2542
L56.7552 -52.0556
L57.0623 -51.8574
L57.3676 -51.6596
L57.6711 -51.4622
L57.9728 -51.265
L58.2725 -51.0682
L58.5703 -50.8716
L58.8661 -50.6753
L59.1598 -50.4793
L59.4514 -50.2834
L59.7408 -50.0876
L60.0279 -49.892
L60.3128 -49.6964
L60.5953 -49.5009
L60.8755 -49.3053
L61.0396 -49.1098
L60.7982 -49.6114
L60.5493 -50.0463
L60.2929 -50.477
L60.0291 -50.9032
L59.758 -51.3249
L59.4796 -51.742
L59.1941 -52.1542
L58.9015 -52.5615
L58.602 -52.9638
L58.2956 -53.3609
L57.9823 -53.7527
L57.6624 -54.1391
L57.3359 -54.52
L57.0029 -54.8952
L56.6635 -55.2647
L56.3178 -55.6283
L55.9659 -55.986
L55.6079 -56.3375
L55.2439 -56.6829
L54.8741 -57.0219
L54.4985 -57.3546
L54.1173 -57.6807
L53.7306 -58.0003
L53.3385 -58.3131
L52.9411 -58.6191
L52.5386 -58.9183
L52.131 -59.2105
L51.7184 -59.4956
L51.3011 -59.7735
L50.8792 -60.0442
L50.4527 -60.3076
L50.0218 -60.5636
L49.5866 -60.8121
L49.1473 -61.053
L48.704 -61.2863
L48.2568 -61.5119
L47.8059 -61.7297
L47.3514 -61.9397
L46.8935 -62.1418
L46.4322 -62.336
L45.9677 -62.5221
L45.5002 -62.7001
L45.0298 -62.87
L44.5567 -63.0317
L44.0809 -63.1852
L43.6027 -63.3304
L43.1222 -63.4672
L42.6395 -63.5957
L42.1548 -63.7158
L41.6682 -63.8275
L41.1798 -63.9307
L40.69 -64.0253
L40.1986 -64.1115
L39.706 -64.189
L39.2123 -64.258
L38.7176 -64.3184
L38.222 -64.3701
L37.7258 -64.4132
L37.2291 -64.4477
L36.7319 -64.4735
L36.2346 -64.4906
L35.7372 -64.499
L35.2399 -64.4988
L34.7428 -64.4899
L34.246 -64.4723
L33.7499 -64.446
L33.2544 -64.411
L32.7597 -64.3674
L32.266 -64.3152
z
" id="C0_2_3657092420"/>
    </defs>
    <g clip-path="url(#p1bffca34e9)">
     <use style="fill:#ffffff;stroke:#000000;stroke-width:2.0;" x="0.0" xlink:href="#C0_0_a811fe30f3" y="72.0"/>
    </g>
    <g clip-path="url(#p1bffca34e9)">
     <use style="fill:#ff0000;stroke:#000000;stroke-width:2.0;" x="0.0" xlink:href="#C0_1_cc4fdb72ba" y="72.0"/>
    </g>
    <g clip-path="url(#p1bffca34e9)">
     <use style="fill:#ff0000;stroke:#000000;stroke-width:2.0;" x="0.0" xlink:href="#C0_2_3657092420" y="72.0"/>
    </g>
   </g>
  </g>
 </g>
 <defs>
  <clipPath id="p1bffca34e9">
   <rect height="72.0" width="72.0" x="0.0" y="0.0"/>
  </clipPath>
 </defs>
</svg>
