<?xml version="1.0" encoding="utf-8" standalone="no"?>
<!DOCTYPE svg PUBLIC "-//W3C//DTD SVG 1.1//EN"
  "http://www.w3.org/Graphics/SVG/1.1/DTD/svg11.dtd">
<!-- Created with matplotlib (http://matplotlib.org/) -->
<svg height="72pt" version="1.1" viewBox="0 0 72 72" width="72pt" xmlns="http://www.w3.org/2000/svg" xmlns:xlink="http://www.w3.org/1999/xlink">
 <defs>
  <style type="text/css">
*{stroke-linecap:butt;stroke-linejoin:round;}
  </style>
 </defs>
 <g id="figure_1">
  <g id="patch_1">
   <path d="
M0 72
L72 72
L72 0
L0 0
z
" style="fill:none;"/>
  </g>
  <g id="axes_1">
   <g id="PatchCollection_1">
    <defs>
     <path d="
M36 -7.5
C43.5583 -7.5 50.808 -10.5029 56.1525 -15.8475
C61.4971 -21.192 64.5 -28.4417 64.5 -36
C64.5 -43.5583 61.4971 -50.808 56.1525 -56.1525
C50.808 -61.4971 43.5583 -64.5 36 -64.5
C28.4417 -64.5 21.192 -61.4971 15.8475 -56.1525
C10.5029 -50.808 7.5 -43.5583 7.5 -36
C7.5 -28.4417 10.5029 -21.192 15.8475 -15.8475
C21.192 -10.5029 28.4417 -7.5 36 -7.5
z
" id="C0_0_a811fe30f3"/>
     <path d="
M8.28547 -42.156
L8.35036 -41.8165
L8.42267 -41.4819
L8.50227 -41.1523
L8.589 -40.8279
L8.68274 -40.5087
L8.78334 -40.1949
L8.89064 -39.8866
L9.00451 -39.5839
L9.12478 -39.2869
L9.25131 -38.9957
L9.38394 -38.7103
L9.52252 -38.4309
L9.66689 -38.1574
L9.8169 -37.89
L9.97239 -37.6286
L10.1332 -37.3734
L10.2992 -37.1243
L10.4702 -36.8814
L10.6461 -36.6448
L10.8266 -36.4143
L11.0117 -36.19
L11.2013 -35.972
L11.395 -35.7601
L11.5929 -35.5545
L11.7948 -35.355
L12.0005 -35.1617
L12.2098 -34.9745
L12.4227 -34.7934
L12.6389 -34.6184
L12.8585 -34.4493
L13.0812 -34.2863
L13.3068 -34.1291
L13.5354 -33.9778
L13.7667 -33.8324
L14.0006 -33.6926
L14.237 -33.5586
L14.4758 -33.4301
L14.7169 -33.3073
L14.9602 -33.1898
L15.2055 -33.0778
L15.4528 -32.9712
L15.7019 -32.8698
L15.9528 -32.7736
L16.2053 -32.6825
L16.4594 -32.5964
L16.715 -32.5153
L16.9719 -32.4391
L17.2302 -32.3676
L17.4897 -32.3009
L17.7503 -32.2388
L18.012 -32.1813
L18.2746 -32.1283
L18.5382 -32.0796
L18.8027 -32.0353
L19.0679 -31.9953
L19.3338 -31.9594
L19.6004 -31.9276
L19.8675 -31.8998
L20.1353 -31.876
L20.4035 -31.8561
L20.6721 -31.84
L20.9411 -31.8276
L21.2104 -31.8189
L21.48 -31.8138
L21.7499 -31.8122
L22.0199 -31.8141
L22.2902 -31.8194
L22.5605 -31.8281
L22.8309 -31.84
L23.1013 -31.8552
L23.3718 -31.8735
L23.6422 -31.8949
L23.9126 -31.9194
L24.1829 -31.9469
L24.4531 -31.9774
L24.7231 -32.0107
L24.993 -32.0469
L25.2626 -32.0859
L25.5321 -32.1277
L25.8013 -32.1722
L26.0703 -32.2193
L26.3389 -32.2691
L26.6073 -32.3215
L26.8753 -32.3765
L27.143 -32.4339
L27.4104 -32.4939
L27.6774 -32.5563
L27.944 -32.6211
L28.2102 -32.6883
L28.4759 -32.7578
L28.7412 -32.8297
L29.0061 -32.9038
L29.2705 -32.9803
L29.5345 -33.059
L29.7979 -33.1399
L30.0609 -33.223
L30.3233 -33.3083
L30.5852 -33.3958
L30.8466 -33.4854
L31.1074 -33.5771
L31.3677 -33.6709
L31.6273 -33.7669
L31.8864 -33.8649
L32.1449 -33.9649
L32.66 -34.0671
L32.9166 -34.1712
L33.1726 -34.2774
L33.4279 -34.3856
L33.6825 -34.4959
L33.9364 -34.6081
L34.1896 -34.7224
L34.442 -34.8386
L34.6937 -34.9568
L34.9447 -35.077
L35.1949 -35.1992
L35.4443 -35.3233
L35.6928 -35.4495
L35.9406 -35.5776
L36.1875 -35.7076
L36.4335 -35.8397
L36.6786 -35.9737
L36.9227 -36.1097
L37.166 -36.2477
L37.4082 -36.3877
L37.6495 -36.5296
L37.8897 -36.6735
L38.1289 -36.8195
L38.367 -36.9674
L38.6039 -37.1173
L38.8398 -37.2692
L39.0744 -37.4231
L39.3078 -37.5791
L39.54 -37.737
L39.7708 -37.897
L40.0003 -38.0591
L40.2285 -38.2231
L40.4552 -38.3893
L40.6804 -38.5574
L40.9042 -38.7277
L41.1264 -38.9
L41.3469 -39.0744
L41.5658 -39.2509
L41.783 -39.4295
L41.9985 -39.6102
L42.212 -39.7929
L42.4238 -39.9778
L42.6335 -40.1649
L42.8413 -40.354
L43.047 -40.5453
L43.2505 -40.7387
L43.4519 -40.9343
L43.6509 -41.132
L43.8476 -41.3319
L44.0419 -41.534
L44.2337 -41.7382
L44.423 -41.9445
L44.6095 -42.1531
L44.7934 -42.3638
L44.9744 -42.5766
L45.1525 -42.7916
L45.3276 -43.0088
L45.4997 -43.2281
L45.6686 -43.4496
L45.8342 -43.6733
L45.9965 -43.8991
L46.1554 -44.127
L46.3107 -44.357
L46.4624 -44.5891
L46.6104 -44.8234
L46.7546 -45.0597
L46.8948 -45.298
L47.031 -45.5384
L47.1631 -45.7809
L47.291 -46.0253
L47.4146 -46.2717
L47.5337 -46.5201
L47.6483 -46.7703
L47.7583 -47.0225
L47.8636 -47.2765
L47.964 -47.5323
L48.0595 -47.7899
L48.15 -48.0492
L48.2354 -48.3102
L48.3155 -48.5728
L48.3904 -48.8371
L48.4598 -49.1028
L48.5237 -49.3701
L48.582 -49.6387
L48.6346 -49.9087
L48.6814 -50.18
L48.7224 -50.4525
L48.7574 -50.7262
L48.7864 -51.001
L48.8093 -51.2767
L48.826 -51.5534
L48.8364 -51.831
L48.8405 -52.1092
L48.8381 -52.3882
L48.8293 -52.6677
L48.814 -52.9477
L48.7921 -53.2281
L48.7636 -53.5088
L48.7283 -53.7896
L48.6863 -54.0706
L48.6375 -54.3515
L48.5819 -54.6323
L48.5195 -54.9128
L48.4501 -55.1929
L48.3738 -55.4726
L48.2905 -55.7517
L48.2003 -56.0301
L48.1031 -56.3077
L47.9989 -56.5843
L47.8877 -56.8598
L47.7694 -57.1342
L47.6441 -57.4072
L47.5118 -57.6787
L47.3725 -57.9487
L47.2262 -58.2169
L47.0729 -58.4833
L46.9126 -58.7477
L46.7454 -59.0101
L46.5713 -59.2701
L46.3902 -59.5279
L46.2023 -59.7831
L46.0075 -60.0357
L45.806 -60.2855
L45.5977 -60.5324
L45.3827 -60.7763
L45.161 -61.017
L44.9327 -61.2544
L44.6979 -61.4885
L44.4565 -61.7189
L44.2088 -61.9457
L43.9546 -62.1686
L43.6942 -62.3876
L43.4276 -62.6025
L43.1547 -62.8132
L42.8758 -63.0196
L42.5909 -63.2215
L42.3001 -63.4189
L42.0035 -63.6115
L41.529 -63.7993
L41.0402 -63.9585
L40.5499 -64.0508
L40.0582 -64.1345
L39.5652 -64.2096
L39.0712 -64.2761
L38.5762 -64.334
L38.0805 -64.3833
L37.5841 -64.424
L37.0872 -64.4559
L36.59 -64.4793
L36.0927 -64.4939
L35.5953 -64.4998
L35.098 -64.4971
L34.601 -64.4857
L34.1044 -64.4656
L33.6084 -64.4369
L33.1131 -64.3995
L32.6187 -64.3534
L32.1254 -64.2987
L31.6332 -64.2354
L31.1423 -64.1635
L30.6529 -64.083
L30.1652 -63.9939
L29.6792 -63.8963
L29.1952 -63.7902
L28.7132 -63.6757
L28.2335 -63.5527
L27.7561 -63.4214
L27.2812 -63.2816
L26.809 -63.1336
L26.3396 -62.9773
L25.8731 -62.8128
L25.4097 -62.6401
L24.9495 -62.4593
L24.4927 -62.2705
L24.0394 -62.0736
L23.5898 -61.8688
L23.1439 -61.6561
L22.702 -61.4356
L22.264 -61.2074
L21.8303 -60.9715
L21.4009 -60.7279
L20.976 -60.4769
L20.5556 -60.2184
L20.1399 -59.9525
L19.7291 -59.6793
L19.3232 -59.3989
L18.9224 -59.1113
L18.5268 -58.8168
L18.1365 -58.5152
L17.7516 -58.2069
L17.3724 -57.8917
L16.9987 -57.5699
L16.6309 -57.2415
L16.269 -56.9067
L15.9131 -56.5654
L15.5633 -56.218
L15.2197 -55.8643
L14.8825 -55.5046
L14.5517 -55.139
L14.2274 -54.7675
L13.9098 -54.3903
L13.5989 -54.0076
L13.2948 -53.6193
L12.9976 -53.2256
L12.7074 -52.8268
L12.4244 -52.4228
L12.1485 -52.0137
L11.8799 -51.5998
L11.6186 -51.1812
L11.3647 -50.7579
L11.1184 -50.3302
L10.8796 -49.8981
L10.6485 -49.4617
L10.4251 -49.0212
L10.2095 -48.5768
L10.0018 -48.1285
L9.80196 -47.6766
L9.61011 -47.2211
L9.42631 -46.7622
L9.2506 -46.2999
L9.08303 -45.8346
L8.92367 -45.3663
L8.77255 -44.8951
L8.62973 -44.4212
L8.49524 -43.9447
L8.36914 -43.4658
z
" id="C0_1_541c0a9e4d"/>
     <path d="
M30.3217 -8.12966
L30.6718 -8.17831
L31.0214 -8.22977
L31.3706 -8.28403
L31.7194 -8.34109
L32.0676 -8.40092
L32.4153 -8.46353
L32.7623 -8.5289
L33.1088 -8.59703
L33.4546 -8.6679
L33.7998 -8.7415
L34.1443 -8.81782
L34.488 -8.89686
L34.831 -8.9786
L35.1732 -9.06303
L35.5146 -9.15013
L35.8552 -9.2399
L36.195 -9.33233
L36.534 -9.4274
L36.872 -9.5251
L37.2092 -9.62542
L37.5455 -9.72835
L37.8808 -9.83388
L38.2152 -9.94199
L38.5487 -10.0527
L38.8812 -10.1659
L39.2128 -10.2817
L39.5434 -10.4001
L39.8729 -10.521
L40.2015 -10.6444
L40.5291 -10.7703
L40.8556 -10.8987
L41.1812 -11.0296
L41.5056 -11.163
L41.8291 -11.2989
L42.1515 -11.4372
L42.4728 -11.578
L42.7931 -11.7213
L43.1123 -11.867
L43.4304 -12.0151
L43.7475 -12.1656
L44.0634 -12.3186
L44.3783 -12.474
L44.692 -12.6318
L45.0047 -12.792
L45.3162 -12.9545
L45.6266 -13.1195
L45.9359 -13.2868
L46.2441 -13.4566
L46.5512 -13.6286
L46.8571 -13.8031
L47.1618 -13.9798
L47.4654 -14.159
L47.7678 -14.3404
L48.0691 -14.5242
L48.3692 -14.7104
L48.6681 -14.8988
L48.9658 -15.0896
L49.2624 -15.2826
L49.5577 -15.478
L49.8518 -15.6756
L50.1447 -15.8755
L50.4363 -16.0777
L50.7267 -16.2822
L51.0158 -16.4889
L51.3037 -16.6978
L51.5903 -16.909
L51.8756 -17.1224
L52.1597 -17.338
L52.4423 -17.5558
L52.7237 -17.7758
L53.0037 -17.998
L53.2824 -18.2223
L53.5597 -18.4488
L53.8356 -18.6774
L54.1102 -18.908
L54.3833 -19.1408
L54.6549 -19.3757
L54.9252 -19.6126
L55.1939 -19.8515
L55.4612 -20.0924
L55.727 -20.3353
L55.9912 -20.5802
L56.2539 -20.8269
L56.5151 -21.0756
L56.7747 -21.3262
L57.0327 -21.5786
L57.289 -21.8328
L57.5438 -22.0888
L57.7968 -22.3465
L58.0482 -22.6059
L58.2979 -22.867
L58.5459 -23.1298
L58.7921 -23.3941
L59.0366 -23.6599
L59.2793 -23.9273
L59.5202 -24.1961
L59.7593 -24.4663
L59.9965 -24.7379
L60.2319 -25.0108
L60.4654 -25.285
L60.6969 -25.5604
L60.9266 -25.8369
L61.1543 -26.1145
L61.38 -26.3932
L61.6038 -26.6728
L61.8255 -26.9534
L62.0452 -27.2348
L62.2629 -27.5171
L62.4786 -27.8001
L62.6921 -28.0837
L62.9036 -28.368
L63.1129 -28.6529
L63.3201 -28.9382
L63.5252 -29.2239
L63.6324 -29.51
L63.5064 -29.0216
L63.3721 -28.5404
L63.2293 -28.0615
L63.0783 -27.585
L62.9191 -27.111
L62.7516 -26.6398
L62.576 -26.1714
L62.3923 -25.706
L62.2006 -25.2438
L62.0008 -24.7848
L61.7932 -24.3293
L61.5777 -23.8773
L61.3544 -23.4289
L61.1234 -22.9845
L60.8847 -22.544
L60.6385 -22.1075
L60.3847 -21.6754
L60.1235 -21.2475
L59.855 -20.8242
L59.5792 -20.4055
L59.2962 -19.9916
L59.0062 -19.5825
L58.7091 -19.1784
L58.4051 -18.7795
L58.0943 -18.3858
L57.7767 -17.9974
L57.4525 -17.6146
L57.1218 -17.2373
L56.7847 -16.8658
L56.4412 -16.5
L56.0915 -16.1403
L55.7356 -15.7866
L55.3738 -15.439
L55.006 -15.0977
L54.6325 -14.7627
L54.2533 -14.4343
L53.8685 -14.1124
L53.4783 -13.7972
L53.0828 -13.4887
L52.682 -13.1871
L52.2762 -12.8924
L51.8654 -12.6048
L51.4498 -12.3243
L51.0295 -12.051
L50.6046 -11.785
L50.1752 -11.5264
L49.7416 -11.2753
L49.3037 -11.0316
L48.8618 -10.7956
L48.416 -10.5673
L47.9664 -10.3467
L47.5131 -10.1339
L47.0564 -9.92899
L46.5963 -9.73203
L46.1329 -9.54307
L45.6665 -9.36217
L45.1971 -9.18938
L44.7249 -9.02476
L44.2501 -8.86836
L43.7727 -8.72022
L43.293 -8.58039
L42.811 -8.44891
L42.327 -8.32583
L41.8411 -8.21118
L41.3534 -8.10499
L40.864 -8.00729
L40.3732 -7.91813
L39.881 -7.83752
L39.3876 -7.76548
L38.8933 -7.70205
L38.398 -7.64724
L37.902 -7.60106
L37.4054 -7.56354
L36.9084 -7.53467
L36.4111 -7.51448
L35.9137 -7.50297
L35.4164 -7.50013
L34.9192 -7.50598
L34.4223 -7.5205
L33.9259 -7.5437
L33.4301 -7.57557
L32.9352 -7.6161
L32.4411 -7.66527
L31.9482 -7.72308
L31.4564 -7.78949
L30.9661 -7.86451
z
" id="C0_2_67e45f9b3a"/>
    </defs>
    <g clip-path="url(#p1bffca34e9)">
     <use style="fill:#ff0000;stroke:#000000;stroke-width:2.0;" x="0.0" xlink:href="#C0_0_a811fe30f3" y="72.0"/>
    </g>
    <g clip-path="url(#p1bffca34e9)">
     <use style="fill:#ffffff;stroke:#000000;stroke-width:2.0;" x="0.0" xlink:href="#C0_1_541c0a9e4d" y="72.0"/>
    </g>
    <g clip-path="url(#p1bffca34e9)">
     <use style="fill:#ffffff;stroke:#000000;stroke-width:2.0;" x="0.0" xlink:href="#C0_2_67e45f9b3a" y="72.0"/>
    </g>
   </g>
  </g>
 </g>
 <defs>
  <clipPath id="p1bffca34e9">
   <rect height="72.0" width="72.0" x="0.0" y="0.0"/>
  </clipPath>
 </defs>
</svg>
