<?xml version="1.0" encoding="utf-8" standalone="no"?>
<!DOCTYPE svg PUBLIC "-//W3C//DTD SVG 1.1//EN"
  "http://www.w3.org/Graphics/SVG/1.1/DTD/svg11.dtd">
<!-- Created with matplotlib (http://matplotlib.org/) -->
<svg height="72pt" version="1.1" viewBox="0 0 72 72" width="72pt" xmlns="http://www.w3.org/2000/svg" xmlns:xlink="http://www.w3.org/1999/xlink">
 <defs>
  <style type="text/css">
*{stroke-linecap:butt;stroke-linejoin:round;}
  </style>
 </defs>
 <g id="figure_1">
  <g id="patch_1">
   <path d="
M0 72
L72 72
L72 0
L0 0
z
" style="fill:none;"/>
  </g>
  <g id="axes_1">
   <g id="PatchCollection_1">
    <defs>
     <path d="
M36 -7.5
C43.5583 -7.5 50.808 -10.5029 56.1525 -15.8475
C61.4971 -21.192 64.5 -28.4417 64.5 -36
C64.5 -43.5583 61.4971 -50.808 56.1525 -56.1525
C50.808 -61.4971 43.5583 -64.5 36 -64.5
C28.4417 -64.5 21.192 -61.4971 15.8475 -56.1525
C10.5029 -50.808 7.5 -43.5583 7.5 -36
C7.5 -28.4417 10.5029 -21.192 15.8475 -15.8475
C21.192 -10.5029 28.4417 -7.5 36 -7.5
z
" id="C0_0_a811fe30f3"/>
     <path d="
M17.2311 -14.6822
L17.4645 -14.765
L17.6913 -14.8584
L17.9114 -14.962
L18.1249 -15.0755
L18.3319 -15.1985
L18.5325 -15.3307
L18.7268 -15.4719
L18.9149 -15.6216
L19.097 -15.7795
L19.2733 -15.9452
L19.4439 -16.1185
L19.609 -16.299
L19.7689 -16.4863
L19.9236 -16.6801
L20.0735 -16.88
L20.2187 -17.0858
L20.3594 -17.2971
L20.4959 -17.5136
L20.6284 -17.7351
L20.757 -17.9611
L20.8819 -18.1914
L21.0034 -18.4258
L21.1217 -18.6639
L21.2369 -18.9055
L21.3492 -19.1504
L21.4588 -19.3983
L21.5658 -19.649
L21.6704 -19.9022
L21.7728 -20.1578
L21.8731 -20.4155
L21.9714 -20.6752
L22.0679 -20.9366
L22.1626 -21.1997
L22.2558 -21.4641
L22.3475 -21.7299
L22.4377 -21.9968
L22.5267 -22.2647
L22.6145 -22.5335
L22.7012 -22.803
L22.7868 -23.0732
L22.8715 -23.3438
L22.9553 -23.615
L23.0383 -23.8864
L23.1205 -24.1581
L23.202 -24.43
L23.2829 -24.702
L23.3632 -24.974
L23.443 -25.246
L23.5222 -25.5179
L23.601 -25.7896
L23.6794 -26.0612
L23.7574 -26.3326
L23.835 -26.6037
L23.9124 -26.8745
L23.9895 -27.145
L24.0663 -27.4151
L24.1429 -27.6849
L24.2193 -27.9542
L24.2955 -28.2232
L24.3716 -28.4917
L24.4475 -28.7599
L24.5234 -29.0275
L24.5991 -29.2948
L24.6748 -29.5616
L24.7505 -29.828
L24.8261 -30.0939
L24.9017 -30.3594
L24.9773 -30.6245
L25.053 -30.8892
L25.1286 -31.1534
L25.2043 -31.4173
L25.2801 -31.6807
L25.356 -31.9438
L25.4319 -32.2066
L25.508 -32.469
L25.5841 -32.7311
L25.6604 -32.9929
L25.7368 -33.2544
L25.8134 -33.5157
L25.8901 -33.7767
L25.967 -34.0375
L26.0441 -34.2981
L26.1214 -34.5585
L26.1989 -34.8188
L26.2766 -35.079
L26.3545 -35.3391
L26.4327 -35.5991
L26.5111 -35.8591
L26.6686 -36.119
L26.7478 -36.379
L26.8273 -36.639
L26.907 -36.899
L26.987 -37.1592
L27.0673 -37.4195
L27.148 -37.6799
L27.2289 -37.9404
L27.3102 -38.2012
L27.3918 -38.4622
L27.4737 -38.7235
L27.5559 -38.985
L27.6385 -39.2468
L27.7215 -39.509
L27.8047 -39.7715
L27.8884 -40.0344
L27.9723 -40.2977
L28.0567 -40.5614
L28.1413 -40.8256
L28.2264 -41.0902
L28.3118 -41.3554
L28.3975 -41.6211
L28.4836 -41.8873
L28.57 -42.1541
L28.6567 -42.4214
L28.7438 -42.6894
L28.8312 -42.9579
L28.9188 -43.2271
L29.0068 -43.497
L29.0951 -43.7675
L29.1836 -44.0387
L29.2724 -44.3105
L29.3614 -44.5831
L29.4506 -44.8564
L29.5399 -45.1303
L29.6295 -45.405
L29.7191 -45.6804
L29.8088 -45.9566
L29.8986 -46.2334
L29.9884 -46.5109
L30.0782 -46.7892
L30.1678 -47.0681
L30.2574 -47.3478
L30.3467 -47.6281
L30.4358 -47.9091
L30.5246 -48.1907
L30.6129 -48.473
L30.7008 -48.7558
L30.7882 -49.0392
L30.8749 -49.3232
L30.9609 -49.6077
L31.046 -49.8926
L31.1302 -50.178
L31.2133 -50.4638
L31.2953 -50.7499
L31.3759 -51.0363
L31.4551 -51.323
L31.5326 -51.6099
L31.6084 -51.8968
L31.6822 -52.1838
L31.754 -52.4709
L31.8234 -52.7578
L31.8903 -53.0445
L31.9546 -53.331
L32.0159 -53.6172
L32.0741 -53.903
L32.1289 -54.1882
L32.1801 -54.4728
L32.2274 -54.7567
L32.2706 -55.0398
L32.3093 -55.3219
L32.3434 -55.603
L32.3725 -55.8829
L32.3964 -56.1614
L32.4146 -56.4386
L32.4271 -56.7141
L32.4333 -56.988
L32.4331 -57.26
L32.4261 -57.5299
L32.412 -57.7978
L32.3906 -58.0633
L32.3614 -58.3263
L32.3244 -58.5867
L32.279 -58.8443
L32.2252 -59.0989
L32.1627 -59.3503
L32.0911 -59.5983
L32.0104 -59.8429
L31.9203 -60.0837
L31.8206 -60.3206
L31.7112 -60.5533
L31.592 -60.7818
L31.4628 -61.0057
L31.3235 -61.2249
L31.1742 -61.4392
L31.0148 -61.6484
L30.8452 -61.8523
L30.6656 -62.0506
L30.4759 -62.2432
L30.2763 -62.4298
L30.0668 -62.6103
L29.8476 -62.7845
L29.6187 -62.9522
L29.3804 -63.1132
L29.1329 -63.2672
L28.8762 -63.4142
L28.3857 -63.5539
L27.9076 -63.464
L27.4319 -63.327
L26.9588 -63.1816
L26.4885 -63.0279
L26.0211 -62.866
L25.5567 -62.6959
L25.0955 -62.5177
L24.6376 -62.3314
L24.1832 -62.137
L23.7323 -61.9348
L23.2852 -61.7246
L22.842 -61.5066
L22.4028 -61.2808
L21.9678 -61.0473
L21.537 -60.8062
L21.1106 -60.5575
L20.6887 -60.3013
L20.2715 -60.0378
L19.8592 -59.7669
L19.4517 -59.4888
L19.0492 -59.2035
L18.652 -58.9112
L18.26 -58.6118
L17.8734 -58.3056
L17.4923 -57.9926
L17.1169 -57.6729
L16.7472 -57.3466
L16.3834 -57.0138
L16.0256 -56.6746
L15.6738 -56.3291
L15.3283 -55.9774
L14.989 -55.6196
L14.6562 -55.2559
L14.3298 -54.8862
L14.01 -54.5109
L13.697 -54.1298
L13.3907 -53.7433
L13.0913 -53.3514
L12.7989 -52.9541
L12.5136 -52.5517
L12.2354 -52.1443
L11.9645 -51.732
L11.7009 -51.3148
L11.4446 -50.893
L11.1959 -50.4667
L10.9547 -50.0359
L10.7212 -49.6009
L10.4953 -49.1617
L10.2772 -48.7185
L10.067 -48.2715
L9.86463 -47.8207
L9.67024 -47.3663
L9.48387 -46.9084
L9.30558 -46.4472
L9.13542 -45.9829
L8.97344 -45.5155
L8.8197 -45.0452
L8.67423 -44.5721
L8.53709 -44.0965
L8.40832 -43.6183
L8.28795 -43.1379
L8.17602 -42.6552
L8.07256 -42.1706
L7.97762 -41.684
L7.89121 -41.1958
L7.81336 -40.7059
L7.7441 -40.2146
L7.68344 -39.7221
L7.63141 -39.2284
L7.58802 -38.7337
L7.55329 -38.2382
L7.52722 -37.742
L7.50982 -37.2453
L7.5011 -36.7481
L7.50107 -36.2508
L7.50971 -35.7534
L7.52703 -35.2561
L7.55303 -34.7589
L7.58769 -34.2622
L7.63101 -33.766
L7.68296 -33.2705
L7.74355 -32.7758
L7.81274 -32.2821
L7.89051 -31.7895
L7.97685 -31.2982
L8.07173 -30.8084
L8.17511 -30.3201
L8.28697 -29.8335
L8.40727 -29.3488
L8.53597 -28.8662
L8.67304 -28.3857
L8.81844 -27.9076
L8.97211 -27.4319
L9.13402 -26.9588
L9.30411 -26.4885
L9.48233 -26.0211
L9.66863 -25.5567
L9.86295 -25.0955
L10.0652 -24.6376
L10.2754 -24.1832
L10.4934 -23.7323
L10.7192 -23.2852
L10.9527 -22.842
L11.1938 -22.4028
L11.4425 -21.9678
L11.6987 -21.537
L11.9622 -21.1106
L12.2331 -20.6887
L12.5112 -20.2715
L12.7965 -19.8592
L13.0888 -19.4517
L13.3882 -19.0492
L13.6944 -18.652
L14.0074 -18.26
L14.3271 -17.8734
L14.6534 -17.4923
L14.9862 -17.1169
L15.3254 -16.7472
L15.6709 -16.3834
L16.0226 -16.0256
L16.3804 -15.6738
L16.7441 -15.3283
z
" id="C0_1_b3a51d1ca2"/>
     <path d="
M43.3089 -8.61475
L43.4776 -8.86311
L43.6495 -9.11353
L43.8243 -9.36597
L44.0016 -9.62035
L44.1811 -9.87662
L44.3624 -10.1347
L44.5453 -10.3946
L44.7294 -10.6561
L44.9145 -10.9193
L45.1003 -11.184
L45.2865 -11.4502
L45.4729 -11.7179
L45.6594 -11.9868
L45.8456 -12.2571
L46.0314 -12.5286
L46.2166 -12.8012
L46.401 -13.0749
L46.5845 -13.3496
L46.767 -13.6253
L46.9482 -13.9018
L47.1281 -14.1792
L47.3066 -14.4573
L47.4836 -14.7361
L47.6589 -15.0156
L47.8325 -15.2957
L48.0043 -15.5764
L48.1743 -15.8575
L48.3424 -16.1391
L48.5085 -16.4211
L48.6726 -16.7034
L48.8346 -16.9861
L48.9946 -17.2691
L49.1524 -17.5524
L49.3082 -17.8358
L49.4617 -18.1195
L49.6131 -18.4033
L49.7623 -18.6873
L49.9093 -18.9714
L50.0541 -19.2557
L50.1967 -19.54
L50.3371 -19.8244
L50.4753 -20.1088
L50.6113 -20.3934
L50.7452 -20.6779
L50.8768 -20.9625
L51.0063 -21.2472
L51.1336 -21.5319
L51.2588 -21.8166
L51.3818 -22.1014
L51.5028 -22.3862
L51.6216 -22.671
L51.7384 -22.9559
L51.853 -23.2409
L51.9657 -23.5259
L52.0762 -23.8111
L52.1848 -24.0963
L52.2914 -24.3816
L52.3959 -24.6671
L52.4985 -24.9527
L52.5992 -25.2384
L52.6979 -25.5244
L52.7947 -25.8105
L52.8896 -26.0969
L52.9826 -26.3835
L53.0737 -26.6703
L53.1629 -26.9574
L53.2503 -27.2449
L53.3359 -27.5326
L53.4197 -27.8207
L53.5016 -28.1092
L53.5818 -28.3981
L53.6601 -28.6875
L53.7367 -28.9772
L53.8115 -29.2675
L53.8846 -29.5583
L53.9559 -29.8496
L54.0254 -30.1415
L54.0933 -30.434
L54.1594 -30.7271
L54.2238 -31.0208
L54.2864 -31.3153
L54.3474 -31.6104
L54.4066 -31.9063
L54.4641 -32.2029
L54.5199 -32.5003
L54.574 -32.7986
L54.6264 -33.0976
L54.6771 -33.3976
L54.7261 -33.6984
L54.7733 -34.0002
L54.8189 -34.3029
L54.8627 -34.6065
L54.9048 -34.9112
L54.9452 -35.2168
L54.9838 -35.5235
L55.0208 -35.8313
L55.0559 -36.1401
L55.0894 -36.45
L55.121 -36.761
L55.151 -37.0731
L55.1791 -37.3863
L55.2055 -37.7007
L55.2301 -38.0163
L55.253 -38.333
L55.274 -38.6508
L55.2933 -38.9699
L55.3107 -39.2901
L55.3264 -39.6114
L55.3402 -39.9339
L55.3523 -40.2576
L55.3625 -40.5824
L55.3709 -40.9084
L55.3776 -41.2354
L55.3824 -41.5635
L55.3854 -41.8928
L55.3867 -42.223
L55.3861 -42.5543
L55.3838 -42.8865
L55.3798 -43.2196
L55.374 -43.5537
L55.3666 -43.8885
L55.3574 -44.2242
L55.3466 -44.5606
L55.3343 -44.8976
L55.3203 -45.2352
L55.3049 -45.5733
L55.2879 -45.9118
L55.2696 -46.2507
L55.25 -46.5898
L55.2291 -46.9291
L55.207 -47.2684
L55.1838 -47.6077
L55.1597 -47.9467
L55.1346 -48.2854
L55.1089 -48.6237
L55.0824 -48.9614
L55.0555 -49.2984
L55.0283 -49.6345
L55.0008 -49.9695
L54.9733 -50.3034
L54.946 -50.6359
L54.9191 -50.9669
L54.8926 -51.2961
L54.867 -51.6235
L54.8423 -51.9487
L54.8188 -52.2717
L54.7968 -52.5922
L54.7765 -52.91
L54.7581 -53.225
L54.7419 -53.5369
L54.7282 -53.8454
L54.7172 -54.1505
L54.7093 -54.4519
L54.7047 -54.7493
L54.7036 -55.0426
L54.7064 -55.3316
L54.7133 -55.6161
L54.7245 -55.8958
L54.7404 -56.1705
L54.7611 -56.4401
L54.7869 -56.7044
L54.8181 -56.9632
L55.301 -57.2162
L55.664 -56.9696
L56.021 -56.6295
L56.372 -56.2832
L56.7167 -55.9307
L57.0551 -55.5721
L57.3871 -55.2076
L57.7126 -54.8372
L58.0315 -54.4611
L58.3437 -54.0793
L58.6491 -53.6921
L58.9475 -53.2994
L59.239 -52.9015
L59.5234 -52.4985
L59.8006 -52.0904
L60.0706 -51.6774
L60.3333 -51.2596
L60.5885 -50.8372
L60.8363 -50.4103
L61.0764 -49.9789
L61.309 -49.5434
L61.5338 -49.1036
L61.7509 -48.6599
L61.9601 -48.2124
L62.1614 -47.7611
L62.3547 -47.3063
L62.54 -46.848
L62.7173 -46.3864
L62.8863 -45.9216
L63.0472 -45.4538
L63.1999 -44.9831
L63.3443 -44.5097
L63.4803 -44.0337
L63.608 -43.5553
L63.7273 -43.0745
L63.8381 -42.5916
L63.9404 -42.1067
L64.0342 -41.6199
L64.1195 -41.1314
L64.1962 -40.6414
L64.2644 -40.1499
L64.3239 -39.6572
L64.3748 -39.1634
L64.417 -38.6686
L64.4506 -38.173
L64.4756 -37.6767
L64.4918 -37.1799
L64.4994 -36.6828
L64.4983 -36.1854
L64.4885 -35.688
L64.47 -35.1907
L64.4429 -34.6936
L64.4071 -34.1969
L64.3627 -33.7008
L64.3096 -33.2054
L64.2478 -32.7108
L64.1775 -32.2172
L64.0986 -31.7248
L64.0112 -31.2337
L63.9152 -30.7441
L63.8107 -30.256
L63.6977 -29.7697
L63.5763 -29.2853
L63.4465 -28.8029
L63.3083 -28.3227
L63.1618 -27.8449
L63.0071 -27.3695
L62.8441 -26.8968
L62.6729 -26.4268
L62.4936 -25.9598
L62.3063 -25.4958
L62.1109 -25.0351
L61.9076 -24.5776
L61.6964 -24.1237
L61.4773 -23.6733
L61.2505 -23.2267
L61.016 -22.784
L60.7739 -22.3454
L60.5242 -21.9109
L60.2671 -21.4806
L60.0026 -21.0548
L59.7307 -20.6336
L59.4517 -20.217
L59.1655 -19.8053
L58.8722 -19.3985
L58.572 -18.9967
L58.2649 -18.6001
L57.951 -18.2088
L57.6304 -17.823
L57.3032 -17.4426
L56.9696 -17.068
L56.6295 -16.699
L56.2832 -16.336
L55.9307 -15.979
L55.5721 -15.628
L55.2076 -15.2833
L54.8372 -14.9449
L54.4611 -14.6129
L54.0793 -14.2874
L53.6921 -13.9685
L53.2994 -13.6563
L52.9015 -13.3509
L52.4985 -13.0525
L52.0904 -12.761
L51.6774 -12.4766
L51.2596 -12.1994
L50.8372 -11.9294
L50.4103 -11.6667
L49.9789 -11.4115
L49.5434 -11.1637
L49.1036 -10.9236
L48.6599 -10.691
L48.2124 -10.4662
L47.7611 -10.2491
L47.3063 -10.0399
L46.848 -9.83861
L46.3864 -9.64527
L45.9216 -9.45996
L45.4538 -9.28274
L44.9831 -9.11365
L44.5097 -8.95275
L44.0337 -8.8001
z
" id="C0_2_17a348b7f0"/>
    </defs>
    <g clip-path="url(#p1bffca34e9)">
     <use style="fill:#ffffff;stroke:#000000;stroke-width:2.0;" x="0.0" xlink:href="#C0_0_a811fe30f3" y="72.0"/>
    </g>
    <g clip-path="url(#p1bffca34e9)">
     <use style="fill:#ff0000;stroke:#000000;stroke-width:2.0;" x="0.0" xlink:href="#C0_1_b3a51d1ca2" y="72.0"/>
    </g>
    <g clip-path="url(#p1bffca34e9)">
     <use style="fill:#ff0000;stroke:#000000;stroke-width:2.0;" x="0.0" xlink:href="#C0_2_17a348b7f0" y="72.0"/>
    </g>
   </g>
  </g>
 </g>
 <defs>
  <clipPath id="p1bffca34e9">
   <rect height="72.0" width="72.0" x="0.0" y="0.0"/>
  </clipPath>
 </defs>
</svg>
