<?xml version="1.0" encoding="utf-8" standalone="no"?>
<!DOCTYPE svg PUBLIC "-//W3C//DTD SVG 1.1//EN"
  "http://www.w3.org/Graphics/SVG/1.1/DTD/svg11.dtd">
<!-- Created with matplotlib (http://matplotlib.org/) -->
<svg height="72pt" version="1.1" viewBox="0 0 72 72" width="72pt" xmlns="http://www.w3.org/2000/svg" xmlns:xlink="http://www.w3.org/1999/xlink">
 <defs>
  <style type="text/css">
*{stroke-linecap:butt;stroke-linejoin:round;}
  </style>
 </defs>
 <g id="figure_1">
  <g id="patch_1">
   <path d="
M0 72
L72 72
L72 0
L0 0
z
" style="fill:none;"/>
  </g>
  <g id="axes_1">
   <g id="PatchCollection_1">
    <defs>
     <path d="
M36 -7.5
C43.5583 -7.5 50.808 -10.5029 56.1525 -15.8475
C61.4971 -21.192 64.5 -28.4417 64.5 -36
C64.5 -43.5583 61.4971 -50.808 56.1525 -56.1525
C50.808 -61.4971 43.5583 -64.5 36 -64.5
C28.4417 -64.5 21.192 -61.4971 15.8475 -56.1525
C10.5029 -50.808 7.5 -43.5583 7.5 -36
C7.5 -28.4417 10.5029 -21.192 15.8475 -15.8475
C21.192 -10.5029 28.4417 -7.5 36 -7.5
z
" id="C0_0_a811fe30f3"/>
     <path d="
M32.2251 -7.82804
L32.0647 -8.06944
L31.9275 -8.31467
L31.8129 -8.56331
L31.7204 -8.815
L31.6493 -9.0694
L31.5986 -9.32622
L31.5675 -9.58521
L31.5549 -9.84614
L31.5597 -10.1088
L31.5807 -10.3731
L31.6169 -10.6389
L31.667 -10.906
L31.7298 -11.1743
L31.8045 -11.4437
L31.8898 -11.7141
L31.9847 -11.9854
L32.0883 -12.2576
L32.1998 -12.5305
L32.3182 -12.8041
L32.4429 -13.0783
L32.5729 -13.3529
L32.7078 -13.628
L32.8469 -13.9033
L32.9897 -14.1789
L33.1355 -14.4546
L33.284 -14.7304
L33.4347 -15.0061
L33.5872 -15.2817
L33.7412 -15.5571
L33.8964 -15.8322
L34.0524 -16.1069
L34.2091 -16.3813
L34.3661 -16.6551
L34.5233 -16.9284
L34.6805 -17.201
L34.8375 -17.473
L34.9941 -17.7442
L35.1503 -18.0147
L35.3059 -18.2843
L35.4608 -18.5531
L35.6149 -18.821
L35.7682 -19.0879
L35.9205 -19.3539
L36.0718 -19.6188
L36.2221 -19.8828
L36.3713 -20.1458
L36.5194 -20.4077
L36.6663 -20.6685
L36.812 -20.9283
L36.9565 -21.1871
L37.0998 -21.4448
L37.242 -21.7014
L37.3828 -21.957
L37.5225 -22.2116
L37.6609 -22.4651
L37.7981 -22.7177
L37.9341 -22.9692
L38.0689 -23.2197
L38.2025 -23.4693
L38.335 -23.718
L38.4662 -23.9657
L38.5964 -24.2125
L38.7254 -24.4585
L38.8532 -24.7037
L38.98 -24.948
L39.1057 -25.1916
L39.2304 -25.4344
L39.3541 -25.6765
L39.4767 -25.918
L39.5984 -26.1588
L39.7191 -26.399
L39.8389 -26.6387
L39.9577 -26.8778
L40.0757 -27.1164
L40.1928 -27.3546
L40.3091 -27.5924
L40.4245 -27.8298
L40.5392 -28.0669
L40.6531 -28.3037
L40.7663 -28.5403
L40.8787 -28.7766
L40.9905 -29.0129
L41.1016 -29.249
L41.212 -29.485
L41.3218 -29.721
L41.431 -29.957
L41.5397 -30.1931
L41.6477 -30.4293
L41.7553 -30.6657
L41.9689 -30.9023
L42.0749 -31.1391
L42.1806 -31.3762
L42.2858 -31.6136
L42.3905 -31.8515
L42.4949 -32.0898
L42.599 -32.3285
L42.7027 -32.5678
L42.806 -32.8077
L42.9091 -33.0482
L43.0118 -33.2894
L43.1143 -33.5313
L43.2165 -33.774
L43.3185 -34.0174
L43.4203 -34.2618
L43.5219 -34.5071
L43.6232 -34.7533
L43.7244 -35.0005
L43.8255 -35.2488
L43.9264 -35.4982
L44.0272 -35.7487
L44.1278 -36.0004
L44.2284 -36.2534
L44.3288 -36.5077
L44.4293 -36.7632
L44.5296 -37.0202
L44.6299 -37.2786
L44.7302 -37.5384
L44.8304 -37.7997
L44.9306 -38.0625
L45.0308 -38.327
L45.1311 -38.593
L45.2313 -38.8607
L45.3316 -39.1301
L45.432 -39.4012
L45.5323 -39.674
L45.6328 -39.9486
L45.7333 -40.225
L45.8339 -40.5032
L45.9346 -40.7832
L46.0354 -41.0651
L46.1363 -41.3488
L46.2373 -41.6344
L46.3385 -41.9218
L46.4398 -42.2111
L46.5412 -42.5023
L46.6429 -42.7953
L46.7447 -43.09
L46.8467 -43.3866
L46.949 -43.6849
L47.0515 -43.985
L47.1543 -44.2866
L47.2575 -44.5899
L47.3609 -44.8946
L47.4647 -45.2008
L47.569 -45.5083
L47.6737 -45.8171
L47.779 -46.1269
L47.8848 -46.4376
L47.9913 -46.7492
L48.0986 -47.0614
L48.2066 -47.374
L48.3157 -47.6869
L48.4258 -47.9997
L48.5371 -48.3123
L48.6498 -48.6243
L48.764 -48.9355
L48.8799 -49.2455
L48.9978 -49.554
L49.1179 -49.8605
L49.2404 -50.1647
L49.3657 -50.466
L49.4941 -50.764
L49.6259 -51.0581
L49.7616 -51.3478
L49.9015 -51.6325
L50.0462 -51.9114
L50.1961 -52.184
L50.3518 -52.4493
L50.5137 -52.7068
L50.6825 -52.9556
L50.8587 -53.1948
L51.0429 -53.4235
L51.2357 -53.641
L51.4375 -53.8462
L51.649 -54.0384
L51.8705 -54.2166
L52.1024 -54.38
L52.3451 -54.5278
L52.5986 -54.6593
L52.8632 -54.7738
L53.1387 -54.8706
L53.4251 -54.9494
L53.7219 -55.0097
L54.029 -55.0511
L54.3456 -55.0736
L54.6713 -55.077
L55.0054 -55.0614
L55.3471 -55.0267
L55.6956 -54.9733
L56.0501 -54.9013
L56.4096 -54.8112
L56.7734 -54.7031
L57.1405 -54.5777
L57.5101 -54.4352
L57.8813 -54.2762
L58.2736 -54.1013
L58.5805 -53.7802
L58.8806 -53.3888
L59.1736 -52.9921
L59.4596 -52.5902
L59.7385 -52.1832
L60.0101 -51.7713
L60.2744 -51.3546
L60.5314 -50.9332
L60.7808 -50.5073
L61.0227 -50.077
L61.257 -49.6423
L61.4836 -49.2036
L61.7024 -48.7607
L61.9134 -48.3141
L62.1165 -47.8636
L62.3117 -47.4096
L62.4988 -46.952
L62.6778 -46.4911
L62.8488 -46.0271
L63.0115 -45.56
L63.1661 -45.0899
L63.3123 -44.6171
L63.4502 -44.1417
L63.5798 -43.6638
L63.701 -43.1836
L63.8137 -42.7011
L63.918 -42.2167
L64.0137 -41.7303
L64.101 -41.2422
L64.1796 -40.7525
L64.2497 -40.2613
L64.3112 -39.7689
L64.364 -39.2753
L64.4082 -38.7807
L64.4438 -38.2852
L64.4707 -37.7891
L64.4889 -37.2924
L64.4984 -36.7953
L64.4993 -36.298
L64.4915 -35.8006
L64.475 -35.3033
L64.4498 -34.8061
L64.416 -34.3093
L64.3735 -33.8131
L64.3223 -33.3175
L64.2626 -32.8227
L64.1942 -32.3289
L64.1172 -31.8362
L64.0317 -31.3448
L63.9376 -30.8548
L63.8351 -30.3663
L63.724 -29.8796
L63.6045 -29.3948
L63.4766 -28.9119
L63.3403 -28.4312
L63.1957 -27.9529
L63.0428 -27.4769
L62.8817 -27.0036
L62.7124 -26.533
L62.5349 -26.0653
L62.3494 -25.6006
L62.1558 -25.1391
L61.9543 -24.6809
L61.7449 -24.2261
L61.5276 -23.775
L61.3025 -23.3275
L61.0698 -22.8839
L60.8294 -22.4443
L60.5814 -22.0089
L60.326 -21.5777
L60.0631 -21.1509
L59.7929 -20.7286
L59.5155 -20.3109
L59.2309 -19.8981
L58.9392 -19.4901
L58.6406 -19.0872
L58.335 -18.6894
L58.0226 -18.2969
L57.7036 -17.9098
L57.3779 -17.5283
L57.0457 -17.1523
L56.7071 -16.7821
L56.3622 -16.4177
L56.0111 -16.0593
L55.6538 -15.707
L55.2906 -15.3608
L54.9216 -15.0209
L54.5467 -14.6875
L54.1663 -14.3605
L53.7802 -14.0401
L53.3888 -13.7264
L52.9921 -13.4195
L52.5902 -13.1194
L52.1832 -12.8264
L51.7713 -12.5404
L51.3546 -12.2615
L50.9332 -11.9899
L50.5073 -11.7256
L50.077 -11.4686
L49.6423 -11.2192
L49.2036 -10.9773
L48.7607 -10.743
L48.3141 -10.5164
L47.8636 -10.2976
L47.4096 -10.0866
L46.952 -9.88349
L46.4911 -9.68834
L46.0271 -9.50121
L45.56 -9.32215
L45.0899 -9.15122
L44.6171 -8.98846
L44.1417 -8.83394
L43.6638 -8.68768
L43.1836 -8.54975
L42.7011 -8.42018
L42.2167 -8.29901
L41.7303 -8.18628
L41.2422 -8.08202
L40.7525 -7.98626
L40.2613 -7.89904
L39.7689 -7.82038
L39.2753 -7.7503
L38.7807 -7.68883
L38.2852 -7.63598
L37.7891 -7.59177
L37.2924 -7.55621
L36.7953 -7.52932
L36.298 -7.5111
L35.8006 -7.50156
L35.3033 -7.5007
L34.8061 -7.50852
L34.3093 -7.52502
L33.8131 -7.55019
L33.3175 -7.58403
L32.8227 -7.62652
z
" id="C0_1_82fb6304f3"/>
     <path d="
M13.8493 -18.1719
L13.7376 -18.5788
L13.6272 -18.989
L13.5187 -19.4021
L13.4128 -19.8176
L13.3098 -20.235
L13.2102 -20.6539
L13.1144 -21.0737
L13.0225 -21.4941
L12.935 -21.9148
L12.8519 -22.3354
L12.7735 -22.7555
L12.6999 -23.1748
L12.6312 -23.5931
L12.5675 -24.0102
L12.5087 -24.4256
L12.455 -24.8394
L12.4063 -25.2512
L12.3627 -25.6608
L12.324 -26.0682
L12.2903 -26.4732
L12.2615 -26.8756
L12.2375 -27.2753
L12.2183 -27.6722
L12.2037 -28.0663
L12.1938 -28.4574
L12.1884 -28.8455
L12.1874 -29.2306
L12.1907 -29.6126
L12.1982 -29.9914
L12.2099 -30.3671
L12.2257 -30.7396
L12.2454 -31.109
L12.269 -31.4752
L12.2963 -31.8382
L12.3273 -32.198
L12.3619 -32.5548
L12.4001 -32.9083
L12.4416 -33.2588
L12.4865 -33.6063
L12.5346 -33.9507
L12.586 -34.2921
L12.6405 -34.6305
L12.698 -34.966
L12.7585 -35.2987
L12.8219 -35.6286
L12.8882 -35.9557
L12.9573 -36.28
L13.0291 -36.6017
L13.1037 -36.9208
L13.1809 -37.2373
L13.2607 -37.5513
L13.3431 -37.8629
L13.428 -38.1721
L13.5155 -38.4789
L13.6054 -38.7835
L13.6977 -39.0858
L13.7925 -39.386
L13.8896 -39.6841
L13.9891 -39.9801
L14.091 -40.2741
L14.1952 -40.5662
L14.3017 -40.8564
L14.4106 -41.1448
L14.5217 -41.4314
L14.6352 -41.7163
L14.7509 -41.9996
L14.869 -42.2812
L14.9894 -42.5613
L15.112 -42.8398
L15.237 -43.1169
L15.3644 -43.3926
L15.494 -43.667
L15.6261 -43.9401
L15.7605 -44.2118
L15.8972 -44.4824
L16.0364 -44.7518
L16.1781 -45.0201
L16.3222 -45.2873
L16.4687 -45.5535
L16.6178 -45.8187
L16.7695 -46.0829
L16.9237 -46.3462
L17.0805 -46.6086
L17.24 -46.8702
L17.4022 -47.1309
L17.5671 -47.3909
L17.7348 -47.6501
L17.9053 -47.9086
L18.0786 -48.1664
L18.2549 -48.4236
L18.4342 -48.6801
L18.6165 -48.9359
L18.8018 -49.1912
L18.9903 -49.4459
L19.1819 -49.7
L19.3768 -49.9536
L19.575 -50.2067
L19.7765 -50.4592
L19.9815 -50.7112
L20.19 -50.9626
L20.402 -51.2136
L20.6176 -51.464
L20.8369 -51.7139
L21.0599 -51.9633
L21.2868 -52.2122
L21.5175 -52.4605
L21.7522 -52.7082
L21.9909 -52.9554
L22.2337 -53.202
L22.4806 -53.4479
L22.7318 -53.6931
L22.9872 -53.9377
L23.2469 -54.1815
L23.511 -54.4246
L23.7796 -54.6668
L24.0526 -54.9082
L24.3302 -55.1486
L24.6124 -55.3881
L24.8993 -55.6265
L25.1908 -55.8638
L25.4869 -56.0999
L25.7878 -56.3348
L26.0935 -56.5683
L26.4038 -56.8004
L26.7189 -57.031
L27.0387 -57.26
L27.3631 -57.4874
L27.6922 -57.713
L28.0258 -57.9367
L28.364 -58.1585
L28.7065 -58.3782
L29.0533 -58.5958
L29.4043 -58.8111
L29.7593 -59.0241
L30.1181 -59.2347
L30.4805 -59.4429
L30.8463 -59.6484
L31.2152 -59.8514
L31.5869 -60.0516
L31.961 -60.2492
L32.3372 -60.444
L32.715 -60.6361
L33.094 -60.8255
L33.4737 -61.0121
L33.8535 -61.1962
L34.2328 -61.3777
L34.611 -61.5568
L34.9873 -61.7336
L35.3609 -61.9084
L35.7311 -62.0814
L36.097 -62.2527
L36.4576 -62.4228
L36.8121 -62.592
L37.1594 -62.7606
L37.4985 -62.929
L37.8283 -63.0977
L38.1479 -63.2671
L38.4562 -63.4377
L38.7522 -63.6099
L39.0349 -63.7841
L39.3036 -63.9607
L39.0802 -64.1403
L38.5853 -64.3331
L38.0895 -64.3825
L37.5932 -64.4233
L37.0963 -64.4554
L36.5991 -64.4789
L36.1017 -64.4937
L35.6043 -64.4998
L35.107 -64.4973
L34.61 -64.486
L34.1134 -64.4661
L33.6174 -64.4375
L33.1221 -64.4002
L32.6277 -64.3543
L32.1343 -64.2998
L31.6421 -64.2366
L31.1512 -64.1649
L30.6618 -64.0845
L30.1741 -63.9956
L29.6881 -63.8982
L29.204 -63.7923
L28.722 -63.6779
L28.2422 -63.555
L27.7647 -63.4238
L27.2898 -63.2843
L26.8175 -63.1364
L26.3481 -62.9802
L25.8815 -62.8159
L25.4181 -62.6433
L24.9579 -62.4627
L24.501 -62.274
L24.0477 -62.0773
L23.5979 -61.8726
L23.152 -61.6601
L22.71 -61.4397
L22.272 -61.2116
L21.8382 -60.9758
L21.4087 -60.7324
L20.9837 -60.4815
L20.5632 -60.2231
L20.1474 -59.9574
L19.7365 -59.6843
L19.3305 -59.404
L18.9296 -59.1166
L18.5339 -58.8222
L18.1435 -58.5208
L17.7586 -58.2125
L17.3792 -57.8975
L17.0055 -57.5758
L16.6376 -57.2476
L16.2755 -56.9128
L15.9195 -56.5717
L15.5696 -56.2243
L15.2259 -55.8708
L14.8886 -55.5112
L14.5577 -55.1457
L14.2333 -54.7743
L13.9155 -54.3973
L13.6045 -54.0146
L13.3003 -53.6264
L13.003 -53.2329
L12.7127 -52.8341
L12.4295 -52.4302
L12.1534 -52.0212
L11.8847 -51.6074
L11.6233 -51.1889
L11.3693 -50.7657
L11.1228 -50.338
L10.8839 -49.906
L10.6527 -49.4697
L10.4291 -49.0293
L10.2134 -48.5849
L10.0055 -48.1367
L9.80553 -47.6849
L9.61354 -47.2294
L9.42958 -46.7705
L9.25372 -46.3084
L9.08601 -45.8431
L8.9265 -45.3748
L8.77523 -44.9037
L8.63226 -44.4298
L8.49762 -43.9534
L8.37136 -43.4746
L8.25351 -42.9934
L8.14412 -42.5102
L8.04321 -42.0249
L7.95082 -41.5379
L7.86697 -41.0491
L7.7917 -40.5588
L7.72501 -40.0671
L7.66694 -39.5742
L7.6175 -39.0802
L7.5767 -38.5853
L7.54456 -38.0895
L7.52109 -37.5932
L7.5063 -37.0963
L7.50018 -36.5991
L7.50275 -36.1017
L7.51399 -35.6043
L7.53392 -35.107
L7.56251 -34.61
L7.59977 -34.1134
L7.64567 -33.6174
L7.70022 -33.1221
L7.76338 -32.6277
L7.83515 -32.1343
L7.91549 -31.6421
L8.00439 -31.1512
L8.10182 -30.6618
L8.20775 -30.1741
L8.32214 -29.6881
L8.44496 -29.204
L8.57618 -28.722
L8.71575 -28.2422
L8.86363 -27.7647
L9.01977 -27.2898
L9.18414 -26.8175
L9.35667 -26.3481
L9.53732 -25.8815
L9.72603 -25.4181
L9.92275 -24.9579
L10.1274 -24.501
L10.3399 -24.0477
L10.5603 -23.5979
L10.7884 -23.152
L11.0242 -22.71
L11.2676 -22.272
L11.5185 -21.8382
L11.7769 -21.4087
L12.0426 -20.9837
L12.3157 -20.5632
L12.596 -20.1474
L12.8834 -19.7365
L13.1778 -19.3305
L13.4792 -18.9296
z
" id="C0_2_59a590802e"/>
    </defs>
    <g clip-path="url(#p1bffca34e9)">
     <use style="fill:#ff0000;stroke:#000000;stroke-width:2.0;" x="0.0" xlink:href="#C0_0_a811fe30f3" y="72.0"/>
    </g>
    <g clip-path="url(#p1bffca34e9)">
     <use style="fill:#ffffff;stroke:#000000;stroke-width:2.0;" x="0.0" xlink:href="#C0_1_82fb6304f3" y="72.0"/>
    </g>
    <g clip-path="url(#p1bffca34e9)">
     <use style="fill:#ffffff;stroke:#000000;stroke-width:2.0;" x="0.0" xlink:href="#C0_2_59a590802e" y="72.0"/>
    </g>
   </g>
  </g>
 </g>
 <defs>
  <clipPath id="p1bffca34e9">
   <rect height="72.0" width="72.0" x="0.0" y="0.0"/>
  </clipPath>
 </defs>
</svg>
