<?xml version="1.0" encoding="utf-8" standalone="no"?>
<!DOCTYPE svg PUBLIC "-//W3C//DTD SVG 1.1//EN"
  "http://www.w3.org/Graphics/SVG/1.1/DTD/svg11.dtd">
<!-- Created with matplotlib (http://matplotlib.org/) -->
<svg height="72pt" version="1.1" viewBox="0 0 72 72" width="72pt" xmlns="http://www.w3.org/2000/svg" xmlns:xlink="http://www.w3.org/1999/xlink">
 <defs>
  <style type="text/css">
*{stroke-linecap:butt;stroke-linejoin:round;}
  </style>
 </defs>
 <g id="figure_1">
  <g id="patch_1">
   <path d="
M0 72
L72 72
L72 0
L0 0
z
" style="fill:none;"/>
  </g>
  <g id="axes_1">
   <g id="PatchCollection_1">
    <defs>
     <path d="
M36 -7.5
C43.5583 -7.5 50.808 -10.5029 56.1525 -15.8475
C61.4971 -21.192 64.5 -28.4417 64.5 -36
C64.5 -43.5583 61.4971 -50.808 56.1525 -56.1525
C50.808 -61.4971 43.5583 -64.5 36 -64.5
C28.4417 -64.5 21.192 -61.4971 15.8475 -56.1525
C10.5029 -50.808 7.5 -43.5583 7.5 -36
C7.5 -28.4417 10.5029 -21.192 15.8475 -15.8475
C21.192 -10.5029 28.4417 -7.5 36 -7.5
z
" id="C0_0_a811fe30f3"/>
     <path d="
M25.6147 -62.3627
L25.7985 -62.2372
L25.9798 -62.109
L26.1585 -61.9784
L26.3348 -61.8453
L26.5087 -61.7097
L26.6803 -61.5718
L26.8496 -61.4316
L27.0167 -61.2891
L27.1817 -61.1444
L27.3447 -60.9974
L27.5056 -60.8483
L27.6646 -60.697
L27.8216 -60.5437
L27.9769 -60.3882
L28.1303 -60.2306
L28.282 -60.071
L28.4319 -59.9094
L28.5802 -59.7457
L28.872 -59.58
L29.0155 -59.4123
L29.1575 -59.2426
L29.298 -59.0709
L29.4371 -58.8972
L29.5748 -58.7215
L29.7111 -58.5438
L29.846 -58.3641
L29.9795 -58.1824
L30.1118 -57.9986
L30.2428 -57.8129
L30.3725 -57.6251
L30.5009 -57.4353
L30.6281 -57.2434
L30.7541 -57.0495
L30.8789 -56.8534
L31.0024 -56.6553
L31.1248 -56.4551
L31.246 -56.2528
L31.3661 -56.0483
L31.4849 -55.8417
L31.6026 -55.6329
L31.7191 -55.4219
L31.8345 -55.2087
L31.9487 -54.9933
L32.0617 -54.7756
L32.1735 -54.5557
L32.2841 -54.3335
L32.3935 -54.1089
L32.5017 -53.8821
L32.6086 -53.6529
L32.7143 -53.4214
L32.8187 -53.1875
L32.9218 -52.9512
L33.0235 -52.7125
L33.1239 -52.4714
L33.2229 -52.2279
L33.3204 -51.9819
L33.4165 -51.7335
L33.511 -51.4826
L33.604 -51.2293
L33.6954 -50.9735
L33.7851 -50.7152
L33.8731 -50.4545
L33.9593 -50.1913
L34.0437 -49.9256
L34.1261 -49.6575
L34.2066 -49.3869
L34.285 -49.1139
L34.3613 -48.8386
L34.4354 -48.5608
L34.5071 -48.2806
L34.5765 -47.9982
L34.6433 -47.7134
L34.7076 -47.4264
L34.7691 -47.1372
L34.8279 -46.8458
L34.8837 -46.5524
L34.9364 -46.2569
L34.986 -45.9594
L35.0323 -45.66
L35.0751 -45.3588
L35.1144 -45.0558
L35.1499 -44.7512
L35.1816 -44.445
L35.2093 -44.1374
L35.2328 -43.8285
L35.252 -43.5183
L35.2668 -43.207
L35.2769 -42.8947
L35.2823 -42.5816
L35.2827 -42.2678
L35.2781 -41.9535
L35.2682 -41.6387
L35.2528 -41.3237
L35.232 -41.0086
L35.2054 -40.6936
L35.173 -40.3789
L35.1346 -40.0645
L35.0902 -39.7508
L35.0395 -39.4378
L34.9825 -39.1258
L34.9191 -38.8149
L34.8492 -38.5053
L34.7727 -38.1971
L34.6896 -37.8907
L34.5999 -37.586
L34.5034 -37.2834
L34.4003 -36.9829
L34.2905 -36.6847
L34.174 -36.389
L34.051 -36.096
L33.9213 -35.8057
L33.7853 -35.5183
L33.6428 -35.2339
L33.4941 -34.9527
L33.3392 -34.6747
L33.1784 -34.4
L33.0118 -34.1289
L32.8394 -33.8613
L32.6616 -33.5972
L32.4786 -33.3369
L32.2904 -33.0803
L32.0973 -32.8276
L31.8995 -32.5787
L31.6973 -32.3336
L31.4909 -32.0925
L31.2804 -31.8554
L31.0661 -31.6222
L30.8482 -31.393
L30.627 -31.1678
L30.4026 -30.9466
L30.1753 -30.7294
L29.9452 -30.5162
L29.7126 -30.307
L29.4778 -30.1017
L29.2407 -29.9004
L29.0018 -29.7031
L28.7611 -29.5096
L28.5188 -29.32
L28.2751 -29.1343
L28.0302 -28.9524
L27.7841 -28.7743
L27.5371 -28.6
L27.2893 -28.4294
L27.0408 -28.2625
L26.7917 -28.0993
L26.5422 -27.9396
L26.2924 -27.7836
L26.0424 -27.6311
L25.7922 -27.4821
L25.542 -27.3366
L25.2918 -27.1944
L25.0418 -27.0557
L24.792 -26.9203
L24.5424 -26.7882
L24.2932 -26.6594
L24.0443 -26.5337
L23.7959 -26.4113
L23.548 -26.292
L23.3006 -26.1758
L23.0538 -26.0627
L22.8075 -25.9526
L22.5619 -25.8455
L22.317 -25.7414
L22.0727 -25.6401
L21.8291 -25.5418
L21.5862 -25.4463
L21.3441 -25.3537
L21.1027 -25.2639
L20.862 -25.1768
L20.6221 -25.0925
L20.3829 -25.0109
L20.1445 -24.9319
L19.9068 -24.8557
L19.6699 -24.7821
L19.4337 -24.7111
L19.1983 -24.6427
L18.9636 -24.5769
L18.7296 -24.5137
L18.4963 -24.4531
L18.2637 -24.395
L18.0317 -24.3394
L17.8005 -24.2863
L17.5699 -24.2358
L17.3399 -24.1878
L17.1105 -24.1423
L16.8817 -24.0993
L16.6535 -24.0588
L16.4259 -24.0208
L16.1988 -23.9854
L15.9722 -23.9524
L15.7461 -23.922
L15.5205 -23.8941
L15.2954 -23.8688
L15.0706 -23.8461
L14.8463 -23.8259
L14.6224 -23.8083
L14.3988 -23.7934
L14.1756 -23.7811
L13.9527 -23.7715
L13.7302 -23.7646
L13.5079 -23.7604
L13.2858 -23.759
L13.064 -23.7605
L12.8424 -23.7648
L12.621 -23.772
L12.3998 -23.7821
L12.1788 -23.7953
L11.9579 -23.8115
L11.7371 -23.8309
L11.5165 -23.8534
L11.2959 -23.8792
L11.0754 -23.9083
L10.855 -23.9408
L10.6346 -23.9768
L10.4143 -24.0164
L10.194 -24.0596
L9.91243 -24.1065
L9.71613 -24.5244
L9.52783 -24.9815
L9.3476 -25.4419
L9.17548 -25.9055
L9.01154 -26.3722
L8.85582 -26.8418
L8.70836 -27.3142
L8.56922 -27.7892
L8.43844 -28.2668
L8.31605 -28.7467
L8.20209 -29.2288
L8.0966 -29.713
L7.99961 -30.1991
L7.91115 -30.687
L7.83125 -31.1765
L7.75992 -31.6674
L7.6972 -32.1597
L7.6431 -32.6531
L7.59764 -33.1476
L7.56083 -33.6429
L7.53268 -34.139
L7.5132 -34.6356
L7.5024 -35.1326
L7.50028 -35.6299
L7.50685 -36.1273
L7.52209 -36.6247
L7.54601 -37.1219
L7.57859 -37.6187
L7.61983 -38.115
L7.66972 -38.6107
L7.72823 -39.1057
L7.79536 -39.5996
L7.87108 -40.0925
L7.95537 -40.5841
L8.0482 -41.0743
L8.14954 -41.563
L8.25937 -42.05
L8.37765 -42.5351
L8.50434 -43.0182
L8.63941 -43.4992
L8.78281 -43.978
L8.9345 -44.4543
L9.09444 -44.928
L9.26257 -45.399
L9.43885 -45.8671
L9.62322 -46.3322
L9.81562 -46.7942
L10.016 -47.2529
L10.2243 -47.7082
L10.4404 -48.1599
L10.6644 -48.6079
L10.896 -49.052
L11.1353 -49.4922
L11.3822 -49.9283
L11.6365 -50.3601
L11.8983 -50.7876
L12.1675 -51.2105
L12.4439 -51.6288
L12.7274 -52.0424
L13.0181 -52.4511
L13.3157 -52.8547
L13.6203 -53.2532
L13.9317 -53.6465
L14.2498 -54.0344
L14.5745 -54.4168
L14.9058 -54.7936
L15.2435 -55.1646
L15.5875 -55.5299
L15.9377 -55.8892
L16.294 -56.2424
L16.6564 -56.5894
L17.0246 -56.9302
L17.3986 -57.2646
L17.7783 -57.5925
L18.1635 -57.9139
L18.5542 -58.2286
L18.9501 -58.5365
L19.3513 -58.8375
L19.7575 -59.1316
L20.1687 -59.4186
L20.5847 -59.6985
L21.0054 -59.9712
L21.4307 -60.2366
L21.8604 -60.4946
L22.2944 -60.7451
L22.7326 -60.9881
L23.1748 -61.2235
L23.621 -61.4512
L24.0709 -61.6712
L24.5244 -61.8833
L24.9815 -62.0876
z
" id="C0_1_19a30910c8"/>
     <path d="
M61.8548 -47.7647
L61.7476 -47.5638
L61.6386 -47.3621
L61.5278 -47.1594
L61.4152 -46.9557
L61.3009 -46.751
L61.1847 -46.5452
L61.0668 -46.3384
L60.9471 -46.1305
L60.8256 -45.9214
L60.7022 -45.7111
L60.577 -45.4996
L60.45 -45.2869
L60.3212 -45.0729
L60.1905 -44.8577
L60.058 -44.641
L59.9237 -44.4231
L59.7875 -44.2037
L59.6494 -43.9829
L59.5096 -43.7606
L59.3679 -43.5369
L59.2244 -43.3117
L59.0791 -43.0849
L58.9321 -42.8565
L58.7832 -42.6266
L58.6326 -42.395
L58.4802 -42.1618
L58.3262 -41.9269
L58.1704 -41.6903
L58.013 -41.452
L57.854 -41.2119
L57.6934 -40.97
L57.5313 -40.7264
L57.3677 -40.4809
L57.2027 -40.2336
L57.0363 -39.9845
L56.8687 -39.7334
L56.6998 -39.4805
L56.5297 -39.2256
L56.3586 -38.9689
L56.1865 -38.7102
L56.0135 -38.4495
L55.8397 -38.1868
L55.6652 -37.9222
L55.4902 -37.6556
L55.3148 -37.3869
L55.139 -37.1163
L54.963 -36.8436
L54.787 -36.5689
L54.611 -36.2921
L54.4353 -36.0134
L54.26 -35.7325
L54.0853 -35.4497
L53.9113 -35.1648
L53.7382 -34.8779
L53.5661 -34.5889
L53.3952 -34.2979
L53.2258 -34.005
L53.0579 -33.71
L52.8918 -33.413
L52.7276 -33.1141
L52.5655 -32.8133
L52.4056 -32.5105
L52.2481 -32.2059
L52.0932 -31.8995
L51.941 -31.5913
L51.7915 -31.2813
L51.6451 -30.9696
L51.5017 -30.6563
L51.3614 -30.3415
L51.2244 -30.0251
L51.0908 -29.7073
L50.9605 -29.3881
L50.8336 -29.0677
L50.7102 -28.7462
L50.5903 -28.4235
L50.4738 -28.0999
L50.3609 -27.7755
L50.2513 -27.4503
L50.1452 -27.1245
L50.0424 -26.7981
L49.9429 -26.4714
L49.8467 -26.1444
L49.7536 -25.8173
L49.6635 -25.4901
L49.5764 -25.1631
L49.4922 -24.8363
L49.4108 -24.5099
L49.3319 -24.1841
L49.2556 -23.8588
L49.1818 -23.5343
L49.1102 -23.2107
L49.0408 -22.888
L48.9734 -22.5665
L48.908 -22.2461
L48.8445 -21.9271
L48.7826 -21.6096
L48.7224 -21.2935
L48.6636 -20.979
L48.6063 -20.6663
L48.5502 -20.3553
L48.4954 -20.0462
L48.4416 -19.739
L48.3889 -19.4337
L48.337 -19.1306
L48.286 -18.8296
L48.2358 -18.5307
L48.1863 -18.234
L48.1373 -17.9396
L48.0889 -17.6475
L48.041 -17.3576
L47.9935 -17.0702
L47.9464 -16.7851
L47.8995 -16.5024
L47.8529 -16.2221
L47.8065 -15.9442
L47.7603 -15.6688
L47.7142 -15.3958
L47.6681 -15.1252
L47.6221 -14.8571
L47.5761 -14.5914
L47.53 -14.3282
L47.4838 -14.0673
L47.4376 -13.8089
L47.3912 -13.5529
L47.3446 -13.2992
L47.2979 -13.0479
L47.2509 -12.799
L47.2037 -12.5523
L47.1562 -12.308
L47.1085 -12.066
L47.0604 -11.8262
L47.012 -11.5887
L46.9633 -11.3534
L46.9142 -11.1202
L46.8647 -10.8892
L46.8148 -10.6604
L46.7646 -10.4336
L46.7138 -10.2089
L46.6626 -9.98628
L46.611 -9.76565
L47.0257 -9.547
L47.4827 -9.71914
L47.9362 -9.91557
L48.386 -10.1199
L48.8321 -10.3322
L49.2743 -10.5523
L49.7124 -10.7801
L50.1464 -11.0156
L50.576 -11.2587
L51.0012 -11.5094
L51.4218 -11.7675
L51.8378 -12.033
L52.2489 -12.3058
L52.655 -12.5858
L53.0561 -12.873
L53.452 -13.1672
L53.8426 -13.4683
L54.2277 -13.7763
L54.6073 -14.0911
L54.9812 -14.4126
L55.3494 -14.7406
L55.7116 -15.0751
L56.0679 -15.416
L56.418 -15.7631
L56.7619 -16.1164
L57.0995 -16.4758
L57.4306 -16.8411
L57.7552 -17.2123
L58.0732 -17.5892
L58.3845 -17.9716
L58.689 -18.3596
L58.9865 -18.753
L59.2771 -19.1516
L59.5605 -19.5553
L59.8368 -19.9641
L60.1058 -20.3777
L60.3675 -20.7961
L60.6217 -21.2191
L60.8685 -21.6466
L61.1077 -22.0785
L61.3392 -22.5146
L61.563 -22.9549
L61.779 -23.3991
L61.9872 -23.8472
L62.1875 -24.2989
L62.3797 -24.7542
L62.564 -25.213
L62.7401 -25.675
L62.9081 -26.1402
L63.0679 -26.6084
L63.2195 -27.0794
L63.3628 -27.5532
L63.4977 -28.0295
L63.6243 -28.5083
L63.7424 -28.9893
L63.8521 -29.4725
L63.9533 -29.9577
L64.046 -30.4447
L64.1302 -30.9334
L64.2058 -31.4236
L64.2728 -31.9152
L64.3311 -32.4081
L64.3809 -32.9021
L64.422 -33.397
L64.4544 -33.8927
L64.4782 -34.3891
L64.4933 -34.8859
L64.4997 -35.3831
L64.4975 -35.8805
L64.4866 -36.3779
L64.4669 -36.8752
L64.4387 -37.3722
L64.4017 -37.8688
L64.3561 -38.3649
L64.3019 -38.8602
L64.239 -39.3546
L64.1676 -39.848
L64.0875 -40.3403
L63.9989 -40.8312
L63.9018 -41.3207
L63.7962 -41.8085
L63.6821 -42.2946
L63.5596 -42.7787
L63.4287 -43.2608
L63.2894 -43.7407
L63.1418 -44.2182
L62.986 -44.6932
L62.8219 -45.1656
L62.6496 -45.6352
L62.4693 -46.1018
L62.2809 -46.5654
z
" id="C0_2_5d5b419ace"/>
    </defs>
    <g clip-path="url(#p1bffca34e9)">
     <use style="fill:#ffffff;stroke:#000000;stroke-width:2.0;" x="0.0" xlink:href="#C0_0_a811fe30f3" y="72.0"/>
    </g>
    <g clip-path="url(#p1bffca34e9)">
     <use style="fill:#ff0000;stroke:#000000;stroke-width:2.0;" x="0.0" xlink:href="#C0_1_19a30910c8" y="72.0"/>
    </g>
    <g clip-path="url(#p1bffca34e9)">
     <use style="fill:#ff0000;stroke:#000000;stroke-width:2.0;" x="0.0" xlink:href="#C0_2_5d5b419ace" y="72.0"/>
    </g>
   </g>
  </g>
 </g>
 <defs>
  <clipPath id="p1bffca34e9">
   <rect height="72.0" width="72.0" x="0.0" y="0.0"/>
  </clipPath>
 </defs>
</svg>
