<?xml version="1.0" encoding="utf-8" standalone="no"?>
<!DOCTYPE svg PUBLIC "-//W3C//DTD SVG 1.1//EN"
  "http://www.w3.org/Graphics/SVG/1.1/DTD/svg11.dtd">
<!-- Created with matplotlib (http://matplotlib.org/) -->
<svg height="72pt" version="1.1" viewBox="0 0 72 72" width="72pt" xmlns="http://www.w3.org/2000/svg" xmlns:xlink="http://www.w3.org/1999/xlink">
 <defs>
  <style type="text/css">
*{stroke-linecap:butt;stroke-linejoin:round;}
  </style>
 </defs>
 <g id="figure_1">
  <g id="patch_1">
   <path d="
M0 72
L72 72
L72 0
L0 0
z
" style="fill:none;"/>
  </g>
  <g id="axes_1">
   <g id="PatchCollection_1">
    <defs>
     <path d="
M36 -7.5
C43.5583 -7.5 50.808 -10.5029 56.1525 -15.8475
C61.4971 -21.192 64.5 -28.4417 64.5 -36
C64.5 -43.5583 61.4971 -50.808 56.1525 -56.1525
C50.808 -61.4971 43.5583 -64.5 36 -64.5
C28.4417 -64.5 21.192 -61.4971 15.8475 -56.1525
C10.5029 -50.808 7.5 -43.5583 7.5 -36
C7.5 -28.4417 10.5029 -21.192 15.8475 -15.8475
C21.192 -10.5029 28.4417 -7.5 36 -7.5
z
" id="C0_0_a811fe30f3"/>
     <path d="
M53.6014 -58.3445
L53.2799 -58.3295
L52.9738 -58.2923
L52.6835 -58.2332
L52.4095 -58.1525
L52.1518 -58.0509
L51.9104 -57.929
L51.6848 -57.7875
L51.4747 -57.6275
L51.2793 -57.45
L51.0979 -57.256
L50.9295 -57.0467
L50.7731 -56.8232
L50.6279 -56.5866
L50.4927 -56.3381
L50.3665 -56.0788
L50.2485 -55.8097
L50.1377 -55.5318
L50.0332 -55.2461
L49.9344 -54.9534
L49.8403 -54.6547
L49.7504 -54.3506
L49.6642 -54.0418
L49.581 -53.7291
L49.5003 -53.413
L49.4218 -53.0941
L49.3451 -52.7729
L49.2699 -52.4499
L49.1958 -52.1254
L49.1226 -51.8
L49.0502 -51.4739
L48.9782 -51.1475
L48.9066 -50.821
L48.8352 -50.4948
L48.7639 -50.1691
L48.6926 -49.844
L48.6212 -49.5199
L48.5497 -49.1968
L48.4779 -48.8749
L48.4059 -48.5544
L48.3335 -48.2354
L48.2609 -47.9179
L48.1878 -47.6022
L48.1144 -47.2882
L48.0406 -46.9761
L47.9664 -46.6659
L47.8918 -46.3576
L47.8168 -46.0514
L47.7413 -45.7471
L47.6655 -45.4449
L47.5892 -45.1448
L47.5126 -44.8467
L47.4355 -44.5508
L47.358 -44.2568
L47.2802 -43.965
L47.2019 -43.6752
L47.1232 -43.3875
L47.0442 -43.1018
L46.9648 -42.8181
L46.885 -42.5363
L46.8049 -42.2565
L46.7244 -41.9786
L46.6435 -41.7026
L46.5623 -41.4284
L46.4807 -41.156
L46.3987 -40.8853
L46.3164 -40.6164
L46.2337 -40.3491
L46.1506 -40.0835
L46.0672 -39.8194
L45.9834 -39.5569
L45.8993 -39.2959
L45.8147 -39.0363
L45.7298 -38.778
L45.6445 -38.5211
L45.5587 -38.2655
L45.4726 -38.0111
L45.3861 -37.7579
L45.2991 -37.5058
L45.2118 -37.2548
L45.1239 -37.0048
L45.0356 -36.7558
L44.9469 -36.5077
L44.8577 -36.2605
L44.7679 -36.014
L44.6777 -35.7684
L44.587 -35.5234
L44.4957 -35.2791
L44.4039 -35.0354
L44.3115 -34.7923
L44.2185 -34.5497
L44.1249 -34.3075
L44.0307 -34.0657
L43.8404 -33.8242
L43.7443 -33.5831
L43.6474 -33.3422
L43.5498 -33.1015
L43.4515 -32.8609
L43.3524 -32.6204
L43.2526 -32.38
L43.1519 -32.1395
L43.0504 -31.899
L42.948 -31.6584
L42.8448 -31.4176
L42.7407 -31.1766
L42.6356 -30.9353
L42.5296 -30.6938
L42.4225 -30.4519
L42.3145 -30.2096
L42.2054 -29.9669
L42.0953 -29.7236
L41.9841 -29.4799
L41.8717 -29.2355
L41.7582 -28.9905
L41.6435 -28.7449
L41.5276 -28.4985
L41.4104 -28.2514
L41.292 -28.0034
L41.1722 -27.7547
L41.0511 -27.505
L40.9287 -27.2544
L40.8049 -27.0029
L40.6796 -26.7504
L40.5529 -26.4968
L40.4247 -26.2422
L40.2949 -25.9865
L40.1637 -25.7296
L40.0309 -25.4716
L39.8964 -25.2124
L39.7604 -24.952
L39.6227 -24.6903
L39.4834 -24.4274
L39.3423 -24.1632
L39.1996 -23.8977
L39.0551 -23.6309
L38.909 -23.3628
L38.7611 -23.0933
L38.6114 -22.8226
L38.46 -22.5505
L38.3069 -22.277
L38.152 -22.0023
L37.9955 -21.7262
L37.8372 -21.4488
L37.6773 -21.1702
L37.5158 -20.8903
L37.3526 -20.6092
L37.188 -20.3269
L37.0219 -20.0434
L36.8545 -19.7589
L36.6858 -19.4732
L36.5159 -19.1866
L36.345 -18.8991
L36.1732 -18.6107
L36.0007 -18.3214
L35.8277 -18.0315
L35.6544 -17.7409
L35.481 -17.4498
L35.3078 -17.1582
L35.1352 -16.8663
L34.9635 -16.5742
L34.7931 -16.2819
L34.6244 -15.9896
L34.4579 -15.6973
L34.2942 -15.4053
L34.1339 -15.1137
L33.9776 -14.8224
L33.8261 -14.5318
L33.6803 -14.2418
L33.5409 -13.9527
L33.4091 -13.6645
L33.2859 -13.3774
L33.1723 -13.0915
L33.0698 -12.8068
L32.9795 -12.5236
L32.9028 -12.242
L32.8412 -11.962
L32.7961 -11.6837
L32.769 -11.4075
L32.7613 -11.1333
L32.7744 -10.8614
L32.8096 -10.592
L32.8679 -10.3254
L32.9504 -10.0617
L33.0578 -9.80138
L33.1907 -9.54475
L33.3491 -9.29221
L33.5333 -9.04421
L33.743 -8.80125
L33.9776 -8.56384
L34.2365 -8.33251
L34.5189 -8.10781
L34.8238 -7.89031
L35.3144 -7.68055
L35.8118 -7.50825
L36.3092 -7.50062
L36.8065 -7.50168
L37.3036 -7.51141
L37.8003 -7.52983
L38.2964 -7.55692
L38.7918 -7.59267
L39.2864 -7.63707
L39.78 -7.69011
L40.2724 -7.75178
L40.7635 -7.82205
L41.2532 -7.90091
L41.7413 -7.98832
L42.2276 -8.08427
L42.712 -8.18872
L43.1944 -8.30164
L43.6746 -8.423
L44.1524 -8.55276
L44.6278 -8.69088
L45.1005 -8.83732
L45.5705 -8.99203
L46.0376 -9.15497
L46.5016 -9.32609
L46.9623 -9.50533
L47.4198 -9.69264
L47.8738 -9.88797
L48.3241 -10.0913
L48.7708 -10.3024
L49.2135 -10.5214
L49.6522 -10.7482
L50.0867 -10.9826
L50.5169 -11.2247
L50.9428 -11.4743
L51.364 -11.7314
L51.7806 -11.9959
L52.1924 -12.2677
L52.5993 -12.5467
L53.001 -12.8329
L53.3977 -13.1261
L53.789 -13.4263
L54.1749 -13.7334
L54.5552 -14.0472
L54.9299 -14.3678
L55.2989 -14.6949
L55.6619 -15.0285
L56.019 -15.3685
L56.37 -15.7148
L56.7148 -16.0673
L57.0532 -16.4258
L57.3853 -16.7903
L57.7108 -17.1607
L58.0297 -17.5368
L58.3419 -17.9185
L58.6473 -18.3057
L58.9459 -18.6983
L59.2374 -19.0962
L59.5218 -19.4993
L59.7991 -19.9073
L60.0691 -20.3203
L60.3318 -20.738
L60.5871 -21.1604
L60.8349 -21.5873
L61.0751 -22.0186
L61.3077 -22.4542
L61.5326 -22.8939
L61.7497 -23.3375
L61.9589 -23.7851
L62.1603 -24.2363
L62.3537 -24.6912
L62.539 -25.1494
L62.7163 -25.611
L62.8854 -26.0758
L63.0464 -26.5436
L63.1991 -27.0142
L63.3435 -27.4876
L63.4796 -27.9636
L63.6073 -28.442
L63.7266 -28.9228
L63.8375 -29.4057
L63.9399 -29.8906
L64.0337 -30.3773
L64.1191 -30.8658
L64.1958 -31.3558
L64.264 -31.8473
L64.3236 -32.34
L64.3745 -32.8338
L64.4168 -33.3286
L64.4505 -33.8242
L64.4754 -34.3205
L64.4918 -34.8173
L64.4994 -35.3144
L64.4983 -35.8118
L64.4886 -36.3092
L64.4702 -36.8065
L64.4431 -37.3036
L64.4073 -37.8003
L64.3629 -38.2964
L64.3099 -38.7918
L64.2482 -39.2864
L64.1779 -39.78
L64.0991 -40.2724
L64.0117 -40.7635
L63.9157 -41.2532
L63.8113 -41.7413
L63.6984 -42.2276
L63.577 -42.712
L63.4472 -43.1944
L63.3091 -43.6746
L63.1627 -44.1524
L63.008 -44.6278
L62.845 -45.1005
L62.6739 -45.5705
L62.4947 -46.0376
L62.3074 -46.5016
L62.112 -46.9623
L61.9087 -47.4198
L61.6976 -47.8738
L61.4786 -48.3241
L61.2518 -48.7708
L61.0174 -49.2135
L60.7753 -49.6522
L60.5257 -50.0867
L60.2686 -50.5169
L60.0041 -50.9428
L59.7323 -51.364
L59.4533 -51.7806
L59.1671 -52.1924
L58.8739 -52.5993
L58.5737 -53.001
L58.2666 -53.3977
L57.9528 -53.789
L57.6322 -54.1749
L57.3051 -54.5552
L56.9715 -54.9299
L56.6315 -55.2989
L56.2852 -55.6619
L55.9327 -56.019
L55.5742 -56.37
L55.2097 -56.7148
L54.8393 -57.0532
L54.4632 -57.3853
L54.0815 -57.7108
z
" id="C0_1_2482934b6e"/>
     <path d="
M36.848 -64.4537
L36.4959 -64.276
L36.1344 -64.0967
L35.7649 -63.9156
L35.3888 -63.7323
L35.0074 -63.5463
L34.6219 -63.3574
L34.2334 -63.1653
L33.843 -62.97
L33.4516 -62.7712
L33.06 -62.5688
L32.6691 -62.3629
L32.2794 -62.1534
L31.8918 -61.9403
L31.5066 -61.7237
L31.1245 -61.5037
L30.7458 -61.2803
L30.371 -61.0536
L30.0003 -60.8238
L29.6341 -60.591
L29.2727 -60.3554
L28.9161 -60.117
L28.5647 -59.8761
L28.2185 -59.6327
L27.8776 -59.387
L27.5423 -59.1392
L27.2124 -58.8894
L26.8882 -58.6377
L26.5696 -58.3844
L26.2566 -58.1294
L25.9493 -57.873
L25.6475 -57.6152
L25.3514 -57.3562
L25.0608 -57.0961
L24.7758 -56.835
L24.4962 -56.5729
L24.222 -56.31
L23.9532 -56.0464
L23.6896 -55.7822
L23.4312 -55.5173
L23.178 -55.2519
L22.9298 -54.9861
L22.6865 -54.7199
L22.4481 -54.4533
L22.2146 -54.1864
L21.9857 -53.9192
L21.7614 -53.6518
L21.5416 -53.3842
L21.3263 -53.1164
L21.1153 -52.8485
L20.9086 -52.5804
L20.7061 -52.3122
L20.5077 -52.0439
L20.3133 -51.7755
L20.1228 -51.5069
L19.9361 -51.2383
L19.7533 -50.9695
L19.5741 -50.7007
L19.3985 -50.4317
L19.2265 -50.1625
L19.058 -49.8933
L18.8928 -49.6238
L18.731 -49.3541
L18.5725 -49.0843
L18.4172 -48.8141
L18.265 -48.5438
L18.1159 -48.2731
L17.9699 -48.0021
L17.8269 -47.7308
L17.6867 -47.459
L17.5495 -47.1869
L17.4151 -46.9143
L17.2835 -46.6412
L17.1546 -46.3675
L17.0285 -46.0933
L16.905 -45.8185
L16.7842 -45.543
L16.6659 -45.2668
L16.5503 -44.9898
L16.4372 -44.7121
L16.3266 -44.4335
L16.2185 -44.154
L16.1128 -43.8736
L16.0097 -43.5922
L15.9089 -43.3098
L15.8106 -43.0262
L15.7148 -42.7416
L15.6213 -42.4557
L15.5302 -42.1686
L15.4415 -41.8801
L15.3552 -41.5903
L15.2713 -41.2991
L15.1898 -41.0064
L15.1107 -40.7122
L15.034 -40.4164
L14.9598 -40.1189
L14.8879 -39.8197
L14.8186 -39.5188
L14.7517 -39.216
L14.6873 -38.9114
L14.6254 -38.6048
L14.5661 -38.2962
L14.5093 -37.9855
L14.4552 -37.6728
L14.4037 -37.3578
L14.3549 -37.0406
L14.3089 -36.7211
L14.2656 -36.3993
L14.2252 -36.0751
L14.1876 -35.7484
L14.153 -35.4192
L14.1214 -35.0874
L14.0928 -34.753
L14.0674 -34.4159
L14.0451 -34.0761
L14.0262 -33.7336
L14.0105 -33.3883
L13.9983 -33.0401
L13.9895 -32.689
L13.9844 -32.3351
L13.9829 -31.9782
L13.9852 -31.6183
L13.9913 -31.2555
L14.0013 -30.8897
L14.0154 -30.5208
L14.0336 -30.149
L14.056 -29.7741
L14.0827 -29.3963
L14.1139 -29.0155
L14.1496 -28.6317
L14.1899 -28.2451
L14.2348 -27.8555
L14.2846 -27.4632
L14.3393 -27.0681
L14.3989 -26.6704
L14.4635 -26.2701
L14.5333 -25.8673
L14.6082 -25.4622
L14.6884 -25.0548
L14.7737 -24.6454
L14.8644 -24.234
L14.9603 -23.821
L15.0614 -23.4064
L15.1678 -22.9905
L15.2792 -22.5736
L15.3957 -22.1558
L15.5171 -21.7376
L15.6433 -21.319
L15.7739 -20.9006
L15.9088 -20.4827
L16.0475 -20.0656
L16.1899 -19.6496
L16.3353 -19.2353
L16.4833 -18.8231
L16.6332 -18.4135
L16.7845 -18.0068
L16.9363 -17.6038
L17.0878 -17.2048
L17.2379 -16.8105
L17.3858 -16.4213
L17.5301 -16.038
L17.6697 -15.6612
L17.8033 -15.2913
L17.9293 -14.9291
L18.0465 -14.5751
L18.1533 -14.2299
L17.77 -13.8941
L17.3904 -14.093
L17.0165 -14.4145
L16.6484 -14.7426
L16.2862 -15.0771
L15.93 -15.418
L15.5799 -15.7652
L15.2361 -16.1186
L14.8985 -16.478
L14.5674 -16.8433
L14.2428 -17.2145
L13.9249 -17.5914
L13.6136 -17.974
L13.3092 -18.362
L13.0117 -18.7553
L12.7212 -19.154
L12.4378 -19.5577
L12.1616 -19.9665
L11.8926 -20.3802
L11.631 -20.7986
L11.3768 -21.2216
L11.13 -21.6492
L10.8909 -22.0811
L10.6594 -22.5173
L10.4357 -22.9575
L10.2197 -23.4018
L10.0116 -23.8499
L9.81137 -24.3016
L9.61914 -24.757
L9.43494 -25.2157
L9.25884 -25.6778
L9.09089 -26.143
L8.93113 -26.6112
L8.77962 -27.0823
L8.63639 -27.556
L8.50151 -28.0324
L8.375 -28.5111
L8.2569 -28.9922
L8.14726 -29.4754
L8.0461 -29.9606
L7.95345 -30.4476
L7.86935 -30.9363
L7.79382 -31.4265
L7.72687 -31.9182
L7.66854 -32.4111
L7.61885 -32.9051
L7.57779 -33.4
L7.5454 -33.8957
L7.52167 -34.3921
L7.50661 -34.8889
L7.50024 -35.3861
L7.50255 -35.8835
L7.51353 -36.3809
L7.5332 -36.8782
L7.56153 -37.3752
L7.59853 -37.8718
L7.64418 -38.3678
L7.69847 -38.8631
L7.76138 -39.3576
L7.83289 -39.851
L7.91298 -40.3432
L8.00162 -40.8342
L8.0988 -41.3236
L8.20447 -41.8114
L8.31861 -42.2975
L8.44118 -42.7816
L8.57215 -43.2637
L8.71147 -43.7436
L8.8591 -44.2211
L9.015 -44.6961
L9.17913 -45.1684
L9.35142 -45.638
L9.53182 -46.1046
L9.7203 -46.5681
L9.91677 -47.0285
L10.1212 -47.4854
L10.3335 -47.9389
L10.5536 -48.3887
L10.7815 -48.8348
L11.017 -49.2769
L11.2602 -49.715
L11.5109 -50.149
L11.7691 -50.5786
L12.0346 -51.0037
L12.3075 -51.4243
L12.5875 -51.8402
L12.8747 -52.2513
L13.1689 -52.6575
L13.4701 -53.0585
L13.7782 -53.4544
L14.093 -53.8449
L14.4145 -54.23
L14.7426 -54.6096
L15.0771 -54.9835
L15.418 -55.3516
L15.7652 -55.7138
L16.1186 -56.07
L16.478 -56.4201
L16.8433 -56.7639
L17.2145 -57.1015
L17.5914 -57.4326
L17.974 -57.7572
L18.362 -58.0751
L18.7553 -58.3864
L19.154 -58.6908
L19.5577 -58.9883
L19.9665 -59.2788
L20.3802 -59.5622
L20.7986 -59.8384
L21.2216 -60.1074
L21.6492 -60.369
L22.0811 -60.6232
L22.5173 -60.87
L22.9575 -61.1091
L23.4018 -61.3406
L23.8499 -61.5643
L24.3016 -61.7803
L24.757 -61.9884
L25.2157 -62.1886
L25.6778 -62.3809
L26.143 -62.5651
L26.6112 -62.7412
L27.0823 -62.9091
L27.556 -63.0689
L28.0324 -63.2204
L28.5111 -63.3636
L28.9922 -63.4985
L29.4754 -63.625
L29.9606 -63.7431
L30.4476 -63.8527
L30.9363 -63.9539
L31.4265 -64.0465
L31.9182 -64.1307
L32.4111 -64.2062
L32.9051 -64.2731
L33.4 -64.3315
L33.8957 -64.3812
L34.3921 -64.4222
L34.8889 -64.4546
L35.3861 -64.4783
L35.8835 -64.4934
z
" id="C0_2_3cdc35bc8c"/>
    </defs>
    <g clip-path="url(#p1bffca34e9)">
     <use style="fill:#ff0000;stroke:#000000;stroke-width:2.0;" x="0.0" xlink:href="#C0_0_a811fe30f3" y="72.0"/>
    </g>
    <g clip-path="url(#p1bffca34e9)">
     <use style="fill:#ffffff;stroke:#000000;stroke-width:2.0;" x="0.0" xlink:href="#C0_1_2482934b6e" y="72.0"/>
    </g>
    <g clip-path="url(#p1bffca34e9)">
     <use style="fill:#ffffff;stroke:#000000;stroke-width:2.0;" x="0.0" xlink:href="#C0_2_3cdc35bc8c" y="72.0"/>
    </g>
   </g>
  </g>
 </g>
 <defs>
  <clipPath id="p1bffca34e9">
   <rect height="72.0" width="72.0" x="0.0" y="0.0"/>
  </clipPath>
 </defs>
</svg>
