<?xml version="1.0" encoding="utf-8" standalone="no"?>
<!DOCTYPE svg PUBLIC "-//W3C//DTD SVG 1.1//EN"
  "http://www.w3.org/Graphics/SVG/1.1/DTD/svg11.dtd">
<!-- Created with matplotlib (http://matplotlib.org/) -->
<svg height="72pt" version="1.1" viewBox="0 0 72 72" width="72pt" xmlns="http://www.w3.org/2000/svg" xmlns:xlink="http://www.w3.org/1999/xlink">
 <defs>
  <style type="text/css">
*{stroke-linecap:butt;stroke-linejoin:round;}
  </style>
 </defs>
 <g id="figure_1">
  <g id="patch_1">
   <path d="
M0 72
L72 72
L72 0
L0 0
z
" style="fill:none;"/>
  </g>
  <g id="axes_1">
   <g id="PatchCollection_1">
    <defs>
     <path d="
M36 -7.5
C43.5583 -7.5 50.808 -10.5029 56.1525 -15.8475
C61.4971 -21.192 64.5 -28.4417 64.5 -36
C64.5 -43.5583 61.4971 -50.808 56.1525 -56.1525
C50.808 -61.4971 43.5583 -64.5 36 -64.5
C28.4417 -64.5 21.192 -61.4971 15.8475 -56.1525
C10.5029 -50.808 7.5 -43.5583 7.5 -36
C7.5 -28.4417 10.5029 -21.192 15.8475 -15.8475
C21.192 -10.5029 28.4417 -7.5 36 -7.5
z
" id="C0_0_a811fe30f3"/>
     <path d="
M43.2065 -45.696
L42.9565 -45.8461
L42.7047 -45.993
L42.4509 -46.1367
L42.1954 -46.2772
L41.938 -46.4145
L41.6788 -46.5485
L41.4179 -46.6793
L41.1553 -46.8068
L40.8909 -46.931
L40.6249 -47.0518
L40.3572 -47.1693
L40.0879 -47.2834
L39.817 -47.3942
L39.5446 -47.5014
L39.2706 -47.6053
L38.9951 -47.7056
L38.7181 -47.8025
L38.4397 -47.8958
L38.1598 -47.9855
L37.8786 -48.0716
L37.5959 -48.154
L37.312 -48.2328
L37.0268 -48.3079
L36.7403 -48.3792
L36.4525 -48.4467
L36.1636 -48.5104
L35.8735 -48.5702
L35.5823 -48.6261
L35.2901 -48.678
L34.9968 -48.726
L34.7025 -48.7699
L34.4072 -48.8097
L34.1111 -48.8454
L33.8141 -48.8769
L33.5163 -48.9041
L33.2177 -48.9271
L32.9184 -48.9458
L32.6185 -48.9601
L32.318 -48.9699
L32.017 -48.9753
L31.7155 -48.9762
L31.4136 -48.9725
L31.1113 -48.9641
L30.8088 -48.9511
L30.5061 -48.9333
L30.2032 -48.9108
L29.9003 -48.8834
L29.5974 -48.8511
L29.2946 -48.8139
L28.992 -48.7718
L28.6897 -48.7245
L28.3878 -48.6722
L28.0863 -48.6148
L27.7853 -48.5522
L27.485 -48.4843
L27.1854 -48.4112
L26.8867 -48.3328
L26.5889 -48.249
L26.2922 -48.1599
L25.9966 -48.0653
L25.7023 -47.9653
L25.4094 -47.8597
L25.118 -47.7487
L24.8282 -47.6321
L24.5402 -47.5099
L24.254 -47.3822
L23.9698 -47.2488
L23.6878 -47.1098
L23.4079 -46.9652
L23.1305 -46.815
L22.8556 -46.6591
L22.5833 -46.4976
L22.3138 -46.3304
L22.0471 -46.1576
L21.7836 -45.9792
L21.5232 -45.7952
L21.2661 -45.6057
L21.0125 -45.4106
L20.7624 -45.2101
L20.5161 -45.004
L20.2736 -44.7926
L20.0351 -44.5758
L19.8008 -44.3537
L19.5706 -44.1263
L19.3449 -43.8938
L19.1237 -43.6561
L18.9071 -43.4134
L18.6953 -43.1658
L18.4883 -42.9133
L18.2864 -42.656
L18.0896 -42.394
L17.898 -42.1275
L17.7117 -41.8564
L17.5309 -41.5811
L17.3556 -41.3014
L17.1859 -41.0177
L17.022 -40.7299
L16.8639 -40.4382
L16.7118 -40.1428
L16.5656 -39.8438
L16.4255 -39.5413
L16.2915 -39.2355
L16.1637 -38.9265
L16.0422 -38.6144
L15.927 -38.2994
L15.8182 -37.9816
L15.7158 -37.6613
L15.6198 -37.3385
L15.5304 -37.0134
L15.4475 -36.6861
L15.3712 -36.3569
L15.3014 -36.0258
L15.2382 -35.6931
L15.1817 -35.3588
L15.1318 -35.0231
L15.0885 -34.6863
L15.0518 -34.3483
L15.0217 -34.0095
L14.9983 -33.6699
L14.9814 -33.3297
L14.9712 -32.989
L14.9674 -32.648
L14.9703 -32.3068
L14.9796 -31.9657
L14.9954 -31.6246
L15.0177 -31.2838
L15.0464 -30.9434
L15.0814 -30.6035
L15.1228 -30.2642
L15.1704 -29.9257
L15.2243 -29.5882
L15.2843 -29.2517
L15.3505 -28.9163
L15.4228 -28.5823
L15.5011 -28.2496
L15.5853 -27.9184
L15.6755 -27.5888
L15.7715 -27.261
L15.8732 -26.9349
L15.9808 -26.6109
L16.0939 -26.2888
L16.2127 -25.9688
L16.337 -25.6511
L16.4668 -25.3357
L16.6019 -25.0227
L16.7424 -24.7122
L16.8882 -24.4042
L17.0392 -24.0989
L17.1953 -23.7964
L17.3564 -23.4966
L17.5226 -23.1997
L17.6937 -22.9058
L17.8697 -22.615
L18.0505 -22.3272
L18.236 -22.0426
L18.4261 -21.7612
L18.6209 -21.4831
L18.8202 -21.2084
L19.024 -20.9371
L19.2321 -20.6692
L19.4446 -20.405
L19.6614 -20.1443
L19.8824 -19.8872
L20.1075 -19.6339
L20.3368 -19.3843
L20.57 -19.1386
L20.8072 -18.8967
L21.0483 -18.6587
L21.2932 -18.4247
L21.5419 -18.1947
L21.7943 -17.9688
L22.0503 -17.747
L22.3099 -17.5293
L22.5731 -17.3159
L22.8397 -17.1067
L23.1097 -16.9018
L23.383 -16.7013
L23.6597 -16.5052
L23.9395 -16.3135
L24.2225 -16.1263
L24.5086 -15.9436
L24.7978 -15.7655
L25.0899 -15.5921
L25.3849 -15.4233
L25.6828 -15.2592
L25.9834 -15.0999
L26.2868 -14.9454
L26.5929 -14.7958
L26.9015 -14.651
L27.2127 -14.5113
L27.5263 -14.3765
L27.8423 -14.2467
L28.1607 -14.1221
L28.4813 -14.0025
L28.804 -13.8882
L29.1289 -13.7791
L29.4559 -13.6752
L29.7848 -13.5767
L30.1156 -13.4836
L30.4482 -13.3958
L30.7825 -13.3136
L31.1185 -13.2368
L31.456 -13.1656
L31.7951 -13.1
L32.1355 -13.04
L32.4772 -12.9857
L32.8202 -12.9372
L33.1643 -12.8944
L33.5094 -12.8574
L33.8555 -12.8264
L34.2023 -12.8012
L34.55 -12.7819
L34.8982 -12.7687
L35.247 -12.7615
L35.5961 -12.7603
L35.9456 -12.7652
L36.2953 -12.7763
L36.645 -12.7935
L36.9947 -12.8169
L37.3442 -12.8465
L37.6935 -12.8824
L38.0423 -12.9245
L38.3905 -12.973
L38.7381 -13.0277
L39.0849 -13.0888
L39.4307 -13.1562
L39.7754 -13.23
L40.1189 -13.3101
L40.461 -13.3966
L40.8016 -13.4895
L41.1405 -13.5888
L41.4776 -13.6944
L41.8127 -13.8063
L42.1458 -13.9246
L42.4765 -14.0492
L42.8048 -14.1801
L43.1305 -14.3173
L43.4535 -14.4607
L43.7736 -14.6103
L44.0906 -14.7661
L44.4044 -14.928
L44.7149 -15.0959
L45.0218 -15.2699
L45.325 -15.4498
L45.6243 -15.6356
L45.9197 -15.8272
L46.2109 -16.0246
L46.4978 -16.2276
L46.7802 -16.4362
L47.058 -16.6502
L47.331 -16.8697
L47.5991 -17.0945
L47.8622 -17.3244
L48.1201 -17.5594
L48.3727 -17.7994
L48.6199 -18.0442
L48.8614 -18.2937
L49.0973 -18.5478
L49.3273 -18.8064
L49.5514 -19.0693
L49.7695 -19.3364
L49.9814 -19.6075
L50.1871 -19.8826
L50.3865 -20.1613
L50.5794 -20.4437
L50.7659 -20.7295
L50.9458 -21.0186
L51.119 -21.3109
L51.2856 -21.6061
L51.4454 -21.9041
L51.5984 -22.2048
L51.7446 -22.5079
L51.8839 -22.8134
L52.0163 -23.1211
L52.1418 -23.4308
L52.2603 -23.7423
L52.3719 -24.0554
L52.4765 -24.3702
L52.5742 -24.6862
L52.6649 -25.0035
L52.7487 -25.3218
L52.8256 -25.641
L52.8956 -25.961
L52.9588 -26.2815
L53.0151 -26.6025
L53.0647 -26.9238
L53.1075 -27.2453
L53.1437 -27.5668
L53.1732 -27.8882
L53.1962 -28.2093
L53.2127 -28.5301
L53.2227 -28.8503
L53.2264 -29.17
L53.2237 -29.4889
L53.2149 -29.8069
L53.1999 -30.124
L53.1788 -30.4401
L53.1518 -30.7549
L53.1188 -31.0685
L53.0801 -31.3808
L53.0356 -31.6915
L52.9855 -32.0008
L52.9298 -32.3084
L52.8687 -32.6142
L52.8022 -32.9183
L52.7304 -33.2206
L52.6534 -33.5209
L52.5714 -33.8192
L52.4843 -34.1154
L52.3923 -34.4095
L52.2955 -34.7014
L52.1939 -34.9911
L52.0877 -35.2785
L51.977 -35.5636
L51.8617 -35.8463
L51.7421 -36.1265
L51.6182 -36.4043
L51.4901 -36.6796
L51.3578 -36.9523
L51.2215 -37.2225
L51.0812 -37.49
L50.9371 -37.7549
L50.7891 -38.0172
L50.6374 -38.2767
L50.482 -38.5335
L50.323 -38.7876
L50.1606 -39.0389
L49.9946 -39.2875
L49.8254 -39.5332
L49.6528 -39.7761
L49.4769 -40.0162
L49.2979 -40.2535
L49.1157 -40.4879
L48.9305 -40.7194
L48.7423 -40.948
L48.5512 -41.1737
L48.3572 -41.3965
L48.1603 -41.6164
L47.9607 -41.8333
L47.7584 -42.0473
L47.5533 -42.2584
L47.3457 -42.4665
L47.1355 -42.6716
L46.9227 -42.8738
L46.7074 -43.073
L46.4897 -43.2691
L46.2696 -43.4623
L46.0472 -43.6525
L45.8224 -43.8396
L45.5953 -44.0237
L45.3659 -44.2048
L45.1344 -44.3828
L44.9007 -44.5578
L44.6648 -44.7297
L44.4269 -44.8985
L44.1868 -45.0643
L43.9447 -45.2269
L43.7006 -45.3864
z
" id="C0_1_87d5516ac5"/>
    </defs>
    <g clip-path="url(#p1bffca34e9)">
     <use style="fill:#ffffff;stroke:#000000;stroke-width:2.0;" x="0.0" xlink:href="#C0_0_a811fe30f3" y="72.0"/>
    </g>
    <g clip-path="url(#p1bffca34e9)">
     <use style="fill:#ff0000;stroke:#000000;stroke-width:2.0;" x="0.0" xlink:href="#C0_1_87d5516ac5" y="72.0"/>
    </g>
   </g>
  </g>
 </g>
 <defs>
  <clipPath id="p1bffca34e9">
   <rect height="72.0" width="72.0" x="0.0" y="0.0"/>
  </clipPath>
 </defs>
</svg>
