<?xml version="1.0" encoding="utf-8" standalone="no"?>
<!DOCTYPE svg PUBLIC "-//W3C//DTD SVG 1.1//EN"
  "http://www.w3.org/Graphics/SVG/1.1/DTD/svg11.dtd">
<!-- Created with matplotlib (http://matplotlib.org/) -->
<svg height="72pt" version="1.1" viewBox="0 0 72 72" width="72pt" xmlns="http://www.w3.org/2000/svg" xmlns:xlink="http://www.w3.org/1999/xlink">
 <defs>
  <style type="text/css">
*{stroke-linecap:butt;stroke-linejoin:round;}
  </style>
 </defs>
 <g id="figure_1">
  <g id="patch_1">
   <path d="
M0 72
L72 72
L72 0
L0 0
z
" style="fill:none;"/>
  </g>
  <g id="axes_1">
   <g id="PatchCollection_1">
    <defs>
     <path d="
M36 -7.5
C43.5583 -7.5 50.808 -10.5029 56.1525 -15.8475
C61.4971 -21.192 64.5 -28.4417 64.5 -36
C64.5 -43.5583 61.4971 -50.808 56.1525 -56.1525
C50.808 -61.4971 43.5583 -64.5 36 -64.5
C28.4417 -64.5 21.192 -61.4971 15.8475 -56.1525
C10.5029 -50.808 7.5 -43.5583 7.5 -36
C7.5 -28.4417 10.5029 -21.192 15.8475 -15.8475
C21.192 -10.5029 28.4417 -7.5 36 -7.5
z
" id="C0_0_a811fe30f3"/>
     <path d="
M63.5958 -42.3601
L63.4545 -42.1628
L63.3108 -41.9689
L63.1648 -41.7784
L63.0167 -41.5912
L62.8665 -41.4072
L62.7141 -41.2263
L62.5598 -41.0484
L62.4035 -40.8735
L62.2453 -40.7013
L62.0853 -40.5319
L61.9234 -40.3652
L61.7597 -40.201
L61.5943 -40.0394
L61.4272 -39.8803
L61.2584 -39.7235
L61.0878 -39.569
L60.9156 -39.4168
L60.7418 -39.2668
L60.5663 -39.1189
L60.3892 -38.9732
L60.2105 -38.8294
L60.0302 -38.6876
L59.8483 -38.5477
L59.6647 -38.4098
L59.4796 -38.2736
L59.2928 -38.1393
L58.9144 -38.0067
L58.7227 -37.8758
L58.5294 -37.7466
L58.3345 -37.619
L58.1378 -37.493
L57.9395 -37.3686
L57.7394 -37.2458
L57.5377 -37.1244
L57.3342 -37.0046
L57.1289 -36.8862
L56.9218 -36.7693
L56.7129 -36.6538
L56.5022 -36.5397
L56.2896 -36.427
L56.0751 -36.3156
L55.8587 -36.2056
L55.6404 -36.097
L55.4201 -35.9897
L55.1978 -35.8837
L54.9735 -35.7791
L54.7471 -35.6758
L54.5187 -35.5738
L54.2881 -35.4731
L54.0554 -35.3737
L53.8205 -35.2757
L53.5834 -35.179
L53.3441 -35.0836
L53.1025 -34.9896
L52.8587 -34.8969
L52.6125 -34.8056
L52.364 -34.7157
L52.1131 -34.6273
L51.8598 -34.5402
L51.6041 -34.4547
L51.346 -34.3706
L51.0854 -34.288
L50.8224 -34.207
L50.5568 -34.1276
L50.2887 -34.0499
L50.0181 -33.9738
L49.745 -33.8995
L49.4694 -33.8269
L49.1912 -33.7562
L48.9104 -33.6873
L48.6272 -33.6204
L48.3414 -33.5556
L48.0531 -33.4928
L47.7623 -33.4322
L47.469 -33.3739
L47.1733 -33.3178
L46.8751 -33.2642
L46.5746 -33.2131
L46.2718 -33.1647
L45.9667 -33.1189
L45.6594 -33.076
L45.3499 -33.036
L45.0384 -32.9991
L44.7249 -32.9653
L44.4096 -32.9349
L44.0924 -32.908
L43.7736 -32.8847
L43.4533 -32.8651
L43.1316 -32.8495
L42.8085 -32.838
L42.4844 -32.8307
L42.1594 -32.8278
L41.8336 -32.8296
L41.5072 -32.8361
L41.1805 -32.8477
L40.8536 -32.8644
L40.5267 -32.8866
L40.2002 -32.9143
L39.8742 -32.9478
L39.5489 -32.9874
L39.2248 -33.0331
L38.9019 -33.0853
L38.5807 -33.1441
L38.2613 -33.2098
L37.9441 -33.2824
L37.6293 -33.3623
L37.3173 -33.4496
L37.0083 -33.5445
L36.7026 -33.647
L36.4004 -33.7574
L36.1022 -33.8758
L35.8081 -34.0022
L35.5183 -34.1368
L35.2332 -34.2796
L34.9529 -34.4305
L34.6776 -34.5897
L34.4076 -34.7571
L34.1431 -34.9325
L33.8841 -35.116
L33.6308 -35.3074
L33.3834 -35.5065
L33.1419 -35.7133
L32.9064 -35.9273
L32.6769 -36.1486
L32.4536 -36.3767
L32.2363 -36.6114
L32.0252 -36.8525
L31.8202 -37.0997
L31.6213 -37.3525
L31.4284 -37.6108
L31.2415 -37.8741
L31.0606 -38.1422
L30.8855 -38.4147
L30.7163 -38.6913
L30.5527 -38.9716
L30.3947 -39.2554
L30.2423 -39.5422
L30.0953 -39.8319
L29.9537 -40.124
L29.8172 -40.4183
L29.6859 -40.7145
L29.5596 -41.0124
L29.4383 -41.3116
L29.3217 -41.6119
L29.2098 -41.9132
L29.1026 -42.2151
L28.9998 -42.5174
L28.9015 -42.82
L28.8075 -43.1226
L28.7176 -43.4252
L28.6319 -43.7274
L28.5502 -44.0293
L28.4724 -44.3305
L28.3984 -44.6311
L28.3282 -44.9308
L28.2617 -45.2296
L28.1987 -45.5273
L28.1393 -45.8239
L28.0832 -46.1193
L28.0305 -46.4134
L27.9811 -46.7062
L27.9348 -46.9975
L27.8917 -47.2874
L27.8517 -47.5757
L27.8147 -47.8625
L27.7806 -48.1477
L27.7494 -48.4312
L27.721 -48.7131
L27.6954 -48.9933
L27.6725 -49.2719
L27.6523 -49.5487
L27.6347 -49.8238
L27.6197 -50.0972
L27.6072 -50.369
L27.5972 -50.6389
L27.5897 -50.9072
L27.5846 -51.1738
L27.582 -51.4387
L27.5816 -51.702
L27.5836 -51.9635
L27.5879 -52.2235
L27.5945 -52.4818
L27.6034 -52.7385
L27.6145 -52.9936
L27.6278 -53.2471
L27.6433 -53.4991
L27.661 -53.7496
L27.6809 -53.9986
L27.703 -54.2462
L27.7272 -54.4923
L27.7536 -54.737
L27.7821 -54.9803
L27.8128 -55.2222
L27.8457 -55.4628
L27.8807 -55.7022
L27.9179 -55.9402
L27.9573 -56.177
L27.9988 -56.4125
L28.0425 -56.6469
L28.0885 -56.8801
L28.1367 -57.1122
L28.1871 -57.3431
L28.2398 -57.573
L28.2947 -57.8017
L28.352 -58.0295
L28.4117 -58.2562
L28.4737 -58.482
L28.5381 -58.7067
L28.605 -58.9305
L28.6744 -59.1534
L28.7463 -59.3754
L28.8207 -59.5964
L28.8978 -59.8166
L28.9775 -60.0359
L29.06 -60.2544
L29.1453 -60.472
L29.2334 -60.6888
L29.3244 -60.9048
L29.4183 -61.12
L29.5153 -61.3344
L29.6154 -61.548
L29.7187 -61.7607
L29.8253 -61.9727
L29.9353 -62.1839
L30.0486 -62.3942
L30.1655 -62.6038
L30.2861 -62.8125
L30.4104 -63.0204
L30.5385 -63.2274
L30.6706 -63.4335
L30.8068 -63.6388
L30.9472 -63.8431
L31.4371 -64.0464
L31.9288 -64.1324
L32.4217 -64.2077
L32.9157 -64.2745
L33.4106 -64.3326
L33.9064 -64.3821
L34.4027 -64.423
L34.8996 -64.4552
L35.3968 -64.4787
L35.8942 -64.4936
L36.3916 -64.4998
L36.8889 -64.4973
L37.3859 -64.4861
L37.8825 -64.4663
L38.3785 -64.4378
L38.8738 -64.4006
L39.3682 -64.3547
L39.8616 -64.3003
L40.3538 -64.2372
L40.8447 -64.1655
L41.3341 -64.0852
L41.8219 -63.9964
L42.3079 -63.899
L42.792 -63.7932
L43.2741 -63.6788
L43.7539 -63.5561
L44.2313 -63.4249
L44.7063 -63.2854
L45.1786 -63.1376
L45.6481 -62.9815
L46.1146 -62.8173
L46.5781 -62.6448
L47.0383 -62.4642
L47.4952 -62.2756
L47.9486 -62.0789
L48.3984 -61.8743
L48.8443 -61.6618
L49.2864 -61.4416
L49.7244 -61.2135
L50.1582 -60.9778
L50.5878 -60.7345
L51.0128 -60.4836
L51.4333 -60.2253
L51.8491 -59.9596
L52.2601 -59.6866
L52.6661 -59.4064
L53.0671 -59.119
L53.4628 -58.8246
L53.8533 -58.5233
L54.2382 -58.2151
L54.6177 -57.9001
L54.9914 -57.5785
L55.3594 -57.2503
L55.7215 -56.9156
L56.0776 -56.5746
L56.4275 -56.2272
L56.7713 -55.8738
L57.1087 -55.5142
L57.4396 -55.1487
L57.7641 -54.7774
L58.0819 -54.4004
L58.393 -54.0178
L58.6973 -53.6296
L58.9946 -53.2361
L59.285 -52.8374
L59.5682 -52.4335
L59.8443 -52.0246
L60.1131 -51.6109
L60.3746 -51.1923
L60.6286 -50.7692
L60.8752 -50.3416
L61.1141 -49.9095
L61.3455 -49.4733
L61.5691 -49.0329
L61.7849 -48.5886
L61.9928 -48.1405
L62.1929 -47.6886
L62.3849 -47.2332
L62.5689 -46.7743
L62.7449 -46.3122
L62.9126 -45.847
L63.0722 -45.3787
L63.2236 -44.9076
L63.3666 -44.4337
L63.5013 -43.9573
L63.6276 -43.4785
z
" id="C0_1_be0f88d38b"/>
     <path d="
M40.849 -8.09109
L40.6443 -8.23526
L40.4392 -8.38203
L40.2338 -8.53141
L40.0281 -8.68343
L39.8219 -8.83809
L39.6152 -8.99542
L39.4081 -9.15544
L39.2004 -9.31815
L38.9922 -9.48358
L38.7834 -9.65175
L38.5739 -9.82265
L38.3638 -9.99631
L38.1529 -10.1727
L37.9414 -10.3519
L37.7291 -10.5339
L37.5159 -10.7187
L37.302 -10.9062
L37.0871 -11.0965
L36.8714 -11.2896
L36.6548 -11.4854
L36.4372 -11.684
L36.2186 -11.8853
L35.9989 -12.0892
L35.7782 -12.2959
L35.5565 -12.5052
L35.3336 -12.7171
L35.1095 -12.9315
L34.8843 -13.1484
L34.6578 -13.3678
L34.43 -13.5894
L34.201 -13.8134
L33.9706 -14.0396
L33.7389 -14.2678
L33.5057 -14.498
L33.2711 -14.7301
L33.035 -14.9639
L32.7973 -15.1993
L32.5581 -15.4362
L32.3172 -15.6744
L32.0746 -15.9137
L31.8303 -16.154
L31.5842 -16.395
L31.3362 -16.6365
L31.0864 -16.8785
L30.8345 -17.1205
L30.5806 -17.3624
L30.3246 -17.604
L30.0665 -17.845
L29.8061 -18.0852
L29.5435 -18.3243
L29.2785 -18.562
L29.0111 -18.7982
L28.7412 -19.0325
L28.4688 -19.2646
L28.1939 -19.4944
L27.9164 -19.7217
L27.6363 -19.9461
L27.3535 -20.1675
L27.068 -20.3856
L26.7799 -20.6003
L26.4892 -20.8115
L26.1959 -21.0189
L25.9 -21.2225
L25.6016 -21.4222
L25.3007 -21.6179
L24.9975 -21.8095
L24.6921 -21.9971
L24.3846 -22.1805
L24.075 -22.36
L23.7637 -22.5354
L23.4507 -22.7069
L23.1361 -22.8745
L22.8203 -23.0384
L22.5033 -23.1987
L22.1854 -23.3554
L21.8667 -23.5088
L21.5475 -23.659
L21.228 -23.806
L20.9084 -23.9502
L20.5888 -24.0916
L20.2695 -24.2304
L19.9506 -24.3668
L19.6325 -24.5008
L19.3151 -24.6328
L18.9988 -24.7627
L18.6837 -24.8908
L18.37 -25.0173
L18.0577 -25.1421
L17.7472 -25.2655
L17.4384 -25.3877
L17.1315 -25.5086
L16.8267 -25.6284
L16.5241 -25.7473
L16.2237 -25.8653
L15.9256 -25.9826
L15.63 -26.0991
L15.3369 -26.215
L15.0464 -26.3304
L14.7586 -26.4454
L14.4734 -26.5599
L14.191 -26.6742
L13.9113 -26.7881
L13.6345 -26.9019
L13.3605 -27.0155
L13.0894 -27.1291
L12.8211 -27.2426
L12.5558 -27.356
L12.2934 -27.4695
L12.0338 -27.5831
L11.7772 -27.6968
L11.5234 -27.8107
L11.2726 -27.9247
L11.0246 -28.039
L10.7795 -28.1535
L10.5372 -28.2684
L10.2978 -28.3835
L10.0611 -28.499
L9.82727 -28.6149
L9.59616 -28.7311
L9.36777 -28.8479
L9.14208 -28.965
L8.91906 -29.0827
L8.69867 -29.2009
L8.48089 -29.3197
L8.38423 -29.439
L8.51137 -28.9559
L8.64689 -28.475
L8.79074 -27.9964
L8.94287 -27.5203
L9.10325 -27.0467
L9.27182 -26.5758
L9.44853 -26.1079
L9.63333 -25.6429
L9.82617 -25.1811
L10.027 -24.7226
L10.2357 -24.2675
L10.4523 -23.816
L10.6766 -23.3682
L10.9087 -22.9242
L11.1484 -22.4843
L11.3956 -22.0484
L11.6504 -21.6168
L11.9126 -21.1896
L12.1821 -20.7669
L12.4589 -20.3489
L12.7428 -19.9356
L13.0339 -19.5272
L13.3319 -19.1238
L13.6368 -18.7255
L13.9486 -18.3326
L14.267 -17.945
L14.5921 -17.5629
L14.9237 -17.1864
L15.2617 -16.8156
L15.6061 -16.4507
L15.9566 -16.0917
L16.3133 -15.7389
L16.676 -15.3921
L17.0445 -15.0517
L17.4188 -14.7176
L17.7988 -14.3901
L18.1843 -14.0691
L18.5753 -13.7547
L18.9715 -13.4472
L19.373 -13.1465
L19.7795 -12.8528
L20.1909 -12.5662
L20.6072 -12.2867
L21.0281 -12.0144
L21.4536 -11.7494
L21.8836 -11.4918
L22.3178 -11.2416
L22.7562 -10.999
L23.1987 -10.7641
L23.645 -10.5368
L24.0951 -10.3172
L24.5489 -10.1055
L25.0061 -9.9017
L25.4667 -9.70582
L25.9304 -9.51796
L26.3973 -9.33816
L26.8671 -9.16648
L27.3396 -9.00298
L27.8148 -8.8477
L28.2925 -8.70069
L28.7725 -8.56199
L29.2547 -8.43166
L29.739 -8.30972
L30.2252 -8.19622
L30.7132 -8.09118
L31.2028 -7.99465
L31.6938 -7.90665
L32.1861 -7.8272
L32.6796 -7.75634
L33.1741 -7.69408
L33.6695 -7.64044
L34.1656 -7.59544
L34.6622 -7.5591
L35.1593 -7.53141
L35.6566 -7.5124
L36.154 -7.50207
L36.6514 -7.50042
L37.1485 -7.50744
L37.6453 -7.52315
L38.1417 -7.54753
L38.6373 -7.58058
L39.1322 -7.62229
L39.6261 -7.67264
L40.1189 -7.73162
z
" id="C0_2_581fd19cbf"/>
    </defs>
    <g clip-path="url(#p1bffca34e9)">
     <use style="fill:#ff0000;stroke:#000000;stroke-width:2.0;" x="0.0" xlink:href="#C0_0_a811fe30f3" y="72.0"/>
    </g>
    <g clip-path="url(#p1bffca34e9)">
     <use style="fill:#ffffff;stroke:#000000;stroke-width:2.0;" x="0.0" xlink:href="#C0_1_be0f88d38b" y="72.0"/>
    </g>
    <g clip-path="url(#p1bffca34e9)">
     <use style="fill:#ffffff;stroke:#000000;stroke-width:2.0;" x="0.0" xlink:href="#C0_2_581fd19cbf" y="72.0"/>
    </g>
   </g>
  </g>
 </g>
 <defs>
  <clipPath id="p1bffca34e9">
   <rect height="72.0" width="72.0" x="0.0" y="0.0"/>
  </clipPath>
 </defs>
</svg>
