<?xml version="1.0" encoding="utf-8" standalone="no"?>
<!DOCTYPE svg PUBLIC "-//W3C//DTD SVG 1.1//EN"
  "http://www.w3.org/Graphics/SVG/1.1/DTD/svg11.dtd">
<!-- Created with matplotlib (http://matplotlib.org/) -->
<svg height="72pt" version="1.1" viewBox="0 0 72 72" width="72pt" xmlns="http://www.w3.org/2000/svg" xmlns:xlink="http://www.w3.org/1999/xlink">
 <defs>
  <style type="text/css">
*{stroke-linecap:butt;stroke-linejoin:round;}
  </style>
 </defs>
 <g id="figure_1">
  <g id="patch_1">
   <path d="
M0 72
L72 72
L72 0
L0 0
z
" style="fill:none;"/>
  </g>
  <g id="axes_1">
   <g id="PatchCollection_1">
    <defs>
     <path d="
M36 -7.5
C43.5583 -7.5 50.808 -10.5029 56.1525 -15.8475
C61.4971 -21.192 64.5 -28.4417 64.5 -36
C64.5 -43.5583 61.4971 -50.808 56.1525 -56.1525
C50.808 -61.4971 43.5583 -64.5 36 -64.5
C28.4417 -64.5 21.192 -61.4971 15.8475 -56.1525
C10.5029 -50.808 7.5 -43.5583 7.5 -36
C7.5 -28.4417 10.5029 -21.192 15.8475 -15.8475
C21.192 -10.5029 28.4417 -7.5 36 -7.5
z
" id="C0_0_a811fe30f3"/>
     <path d="
M34.2658 -7.68914
L33.8769 -7.86023
L33.5083 -8.04301
L33.161 -8.237
L32.836 -8.44164
L32.534 -8.65637
L32.2555 -8.88058
L32.0008 -9.11367
L31.77 -9.35502
L31.5628 -9.60401
L31.3788 -9.86004
L31.2175 -10.1225
L31.078 -10.3909
L30.9594 -10.6646
L30.8606 -10.9431
L30.7805 -11.226
L30.7179 -11.5128
L30.6715 -11.8031
L30.6403 -12.0964
L30.6229 -12.3925
L30.6183 -12.691
L30.6254 -12.9916
L30.6431 -13.2939
L30.6705 -13.5978
L30.7066 -13.9028
L30.7507 -14.2089
L30.8019 -14.5157
L30.8597 -14.8231
L30.9232 -15.1308
L30.9919 -15.4386
L31.0653 -15.7465
L31.1429 -16.0541
L31.2242 -16.3614
L31.3088 -16.6683
L31.3963 -16.9745
L31.4864 -17.2799
L31.5788 -17.5845
L31.6732 -17.8881
L31.7693 -18.1906
L31.867 -18.492
L31.9659 -18.7921
L32.066 -19.0909
L32.167 -19.3883
L32.2689 -19.6843
L32.3713 -19.9788
L32.4743 -20.2718
L32.5777 -20.5632
L32.6814 -20.853
L32.7853 -21.1411
L32.8893 -21.4276
L32.9934 -21.7124
L33.0975 -21.9956
L33.2015 -22.277
L33.3054 -22.5568
L33.4091 -22.8349
L33.5126 -23.1113
L33.6159 -23.386
L33.7189 -23.6591
L33.8216 -23.9305
L33.924 -24.2003
L34.026 -24.4685
L34.1277 -24.7351
L34.229 -25.0002
L34.33 -25.2638
L34.4306 -25.5259
L34.5307 -25.7865
L34.6305 -26.0457
L34.73 -26.3035
L34.829 -26.5599
L34.9276 -26.815
L35.0259 -27.0689
L35.1237 -27.3216
L35.2212 -27.573
L35.3184 -27.8233
L35.4152 -28.0725
L35.5116 -28.3207
L35.6078 -28.5678
L35.7036 -28.814
L35.7991 -29.0592
L35.8943 -29.3036
L35.9892 -29.5471
L36.0839 -29.7899
L36.1783 -30.0319
L36.2725 -30.2733
L36.3665 -30.514
L36.4602 -30.7541
L36.5538 -30.9937
L36.6472 -31.2328
L36.7405 -31.4715
L36.8336 -31.7098
L36.9266 -31.9477
L37.0195 -32.1853
L37.1123 -32.4227
L37.2051 -32.6599
L37.2978 -32.897
L37.3905 -33.134
L37.5759 -33.3709
L37.6687 -33.6079
L37.7614 -33.8449
L37.8543 -34.082
L37.9473 -34.3193
L38.0403 -34.5568
L38.1335 -34.7945
L38.2269 -35.0325
L38.3204 -35.2709
L38.4141 -35.5098
L38.508 -35.749
L38.6022 -35.9888
L38.6966 -36.2291
L38.7913 -36.4701
L38.8864 -36.7117
L38.9817 -36.954
L39.0773 -37.197
L39.1734 -37.4409
L39.2698 -37.6856
L39.3666 -37.9311
L39.4639 -38.1777
L39.5616 -38.4252
L39.6598 -38.6737
L39.7585 -38.9234
L39.8577 -39.1741
L39.9575 -39.4261
L40.0578 -39.6792
L40.1587 -39.9336
L40.2603 -40.1892
L40.3624 -40.4462
L40.4653 -40.7046
L40.5688 -40.9644
L40.6731 -41.2256
L40.7781 -41.4883
L40.8839 -41.7525
L40.9905 -42.0182
L41.0979 -42.2855
L41.2061 -42.5544
L41.3152 -42.8248
L41.4252 -43.0969
L41.5362 -43.3706
L41.6481 -43.6459
L41.761 -43.9229
L41.875 -44.2015
L41.99 -44.4818
L42.106 -44.7637
L42.2232 -45.0472
L42.3416 -45.3322
L42.4612 -45.6189
L42.582 -45.907
L42.7041 -46.1967
L42.8275 -46.4877
L42.9522 -46.7801
L43.0784 -47.0738
L43.2061 -47.3687
L43.3353 -47.6646
L43.466 -47.9616
L43.5985 -48.2594
L43.7327 -48.5579
L43.8687 -48.857
L44.0066 -49.1564
L44.1465 -49.4561
L44.2885 -49.7557
L44.4327 -50.055
L44.5793 -50.3538
L44.7284 -50.6518
L44.8801 -50.9487
L45.0348 -51.244
L45.1924 -51.5376
L45.3533 -51.8288
L45.5178 -52.1173
L45.686 -52.4026
L45.8583 -52.6842
L46.0351 -52.9614
L46.2166 -53.2337
L46.4032 -53.5003
L46.5955 -53.7606
L46.7938 -54.0137
L46.9987 -54.2588
L47.2106 -54.495
L47.4301 -54.7214
L47.6578 -54.937
L47.8941 -55.1406
L48.1396 -55.3313
L48.3948 -55.508
L48.6602 -55.6696
L48.9362 -55.8149
L49.223 -55.943
L49.5208 -56.0529
L49.8296 -56.1437
L50.1495 -56.2145
L50.4801 -56.2648
L50.821 -56.2941
L51.1718 -56.3019
L51.5316 -56.288
L51.8998 -56.2525
L52.2754 -56.1954
L52.6575 -56.1171
L53.0449 -56.0178
L53.4367 -55.8981
L53.8317 -55.7585
L54.229 -55.5997
L54.6273 -55.4225
L55.0258 -55.2275
L55.4234 -55.0155
L55.8193 -54.7873
L56.2125 -54.5437
L56.6024 -54.2854
L56.9881 -54.0133
L57.3689 -53.7282
L57.7443 -53.4307
L58.1137 -53.1215
L58.4766 -52.8015
L58.8326 -52.4713
L59.1812 -52.1315
L59.522 -51.7828
L59.8549 -51.4258
L60.1795 -51.0611
L60.4957 -50.6893
L60.8031 -50.3109
L61.0905 -49.9264
L61.3226 -49.5173
L61.5469 -49.0774
L61.7635 -48.6334
L61.9723 -48.1857
L62.1731 -47.7342
L62.366 -47.2791
L62.5508 -46.8206
L62.7275 -46.3588
L62.8961 -45.8939
L63.0566 -45.4259
L63.2087 -44.9551
L63.3526 -44.4815
L63.4881 -44.0053
L63.6153 -43.5267
L63.7341 -43.0459
L63.8444 -42.5628
L63.9462 -42.0778
L64.0395 -41.5909
L64.1243 -41.1024
L64.2005 -40.6122
L64.2682 -40.1207
L64.3272 -39.6279
L64.3775 -39.134
L64.4193 -38.6391
L64.4524 -38.1435
L64.4768 -37.6472
L64.4925 -37.1504
L64.4996 -36.6532
L64.498 -36.1558
L64.4877 -35.6584
L64.4687 -35.1611
L64.441 -34.6641
L64.4047 -34.1674
L64.3597 -33.6713
L64.3061 -33.176
L64.2439 -32.6814
L64.1731 -32.1879
L64.0937 -31.6956
L64.0057 -31.2046
L63.9092 -30.715
L63.8042 -30.227
L63.6907 -29.7408
L63.5688 -29.2565
L63.4385 -28.7743
L63.2998 -28.2942
L63.1529 -27.8165
L62.9976 -27.3413
L62.8341 -26.8688
L62.6625 -26.399
L62.4827 -25.9321
L62.2949 -25.4684
L62.099 -25.0078
L61.8952 -24.5505
L61.6836 -24.0968
L61.4641 -23.6467
L61.2368 -23.2003
L61.0018 -22.7578
L60.7593 -22.3194
L60.5092 -21.8852
L60.2516 -21.4552
L59.9866 -21.0297
L59.7144 -20.6087
L59.4349 -20.1924
L59.1482 -19.781
L58.8546 -19.3744
L58.5539 -18.973
L58.2464 -18.5767
L57.9321 -18.1857
L57.6111 -17.8002
L57.2836 -17.4202
L56.9495 -17.0459
L56.6091 -16.6773
L56.2624 -16.3146
L55.9096 -15.9579
L55.5506 -15.6074
L55.1857 -15.263
L54.815 -14.925
L54.4385 -14.5933
L54.0565 -14.2682
L53.6689 -13.9497
L53.2759 -13.638
L52.8777 -13.333
L52.4743 -13.035
L52.0659 -12.7439
L51.6527 -12.4599
L51.2346 -12.1831
L50.8119 -11.9136
L50.3847 -11.6514
L49.9532 -11.3966
L49.5173 -11.1493
L49.0774 -10.9095
L48.6334 -10.6774
L48.1857 -10.4531
L47.7342 -10.2365
L47.2791 -10.0277
L46.8206 -9.82689
L46.3588 -9.63403
L45.8939 -9.4492
L45.4259 -9.27246
L44.9551 -9.10386
L44.4815 -8.94345
L44.0053 -8.79128
L43.5267 -8.6474
L43.0459 -8.51186
L42.5628 -8.38468
L42.0778 -8.26592
L41.5909 -8.15561
L41.1024 -8.05378
L40.6122 -7.96046
L40.1207 -7.87568
L39.6279 -7.79947
L39.134 -7.73185
L38.6391 -7.67284
L38.1435 -7.62246
L37.6472 -7.58072
L37.1504 -7.54764
L36.6532 -7.52323
L36.1558 -7.50749
L35.6584 -7.50043
L35.1611 -7.50205
z
" id="C0_1_9252b07d95"/>
     <path d="
M10.9317 -22.4816
L10.7696 -22.942
L10.6156 -23.4011
L10.4696 -23.8587
L10.3315 -24.3145
L10.2013 -24.7684
L10.0788 -25.2201
L9.96392 -25.6695
L9.8566 -26.1163
L9.7567 -26.5606
L9.66407 -27.0021
L9.57858 -27.4407
L9.50008 -27.8764
L9.42843 -28.309
L9.36348 -28.7385
L9.30508 -29.1649
L9.25307 -29.5879
L9.20732 -30.0077
L9.16767 -30.4242
L9.13397 -30.8374
L9.10608 -31.2472
L9.08385 -31.6537
L9.06716 -32.0568
L9.05585 -32.4565
L9.04981 -32.8529
L9.0489 -33.246
L9.05299 -33.6358
L9.06198 -34.0224
L9.07573 -34.4056
L9.09415 -34.7857
L9.11712 -35.1626
L9.14454 -35.5364
L9.17632 -35.9071
L9.21236 -36.2747
L9.25256 -36.6394
L9.29686 -37.0011
L9.34517 -37.3599
L9.3974 -37.7159
L9.4535 -38.0691
L9.5134 -38.4196
L9.57703 -38.7674
L9.64433 -39.1126
L9.71525 -39.4552
L9.78975 -39.7954
L9.86776 -40.1331
L9.94927 -40.4684
L10.0342 -40.8014
L10.1226 -41.1321
L10.2143 -41.4606
L10.3094 -41.7869
L10.4078 -42.1112
L10.5096 -42.4334
L10.6146 -42.7536
L10.7229 -43.0719
L10.8345 -43.3883
L10.9494 -43.7029
L11.0675 -44.0157
L11.1889 -44.3268
L11.3135 -44.6362
L11.4415 -44.9439
L11.5727 -45.2501
L11.7072 -45.5548
L11.8451 -45.8579
L11.9863 -46.1597
L12.1308 -46.46
L12.2788 -46.7589
L12.4301 -47.0565
L12.5849 -47.3529
L12.7432 -47.648
L12.905 -47.9418
L13.0704 -48.2345
L13.2393 -48.526
L13.4119 -48.8164
L13.5882 -49.1057
L13.7683 -49.3939
L13.9521 -49.681
L14.1398 -49.9671
L14.3314 -50.2522
L14.527 -50.5363
L14.7266 -50.8193
L14.9303 -51.1014
L15.1382 -51.3825
L15.3503 -51.6626
L15.5667 -51.9417
L15.7875 -52.2198
L16.0128 -52.497
L16.2427 -52.7731
L16.4771 -53.0482
L16.7163 -53.3223
L16.9602 -53.5953
L17.209 -53.8672
L17.4627 -54.138
L17.7215 -54.4076
L17.9855 -54.6761
L18.2546 -54.9433
L18.529 -55.2092
L18.8089 -55.4738
L19.0942 -55.7369
L19.385 -55.9986
L19.6815 -56.2588
L19.9837 -56.5173
L20.2918 -56.7741
L20.6056 -57.0291
L20.9255 -57.2823
L21.2514 -57.5335
L21.5833 -57.7826
L21.9214 -58.0294
L22.2656 -58.274
L22.6161 -58.5161
L22.9729 -58.7556
L23.3359 -58.9925
L23.7053 -59.2265
L24.0809 -59.4575
L24.4629 -59.6854
L24.8511 -59.91
L25.2455 -60.1311
L25.6461 -60.3487
L26.0528 -60.5625
L26.4655 -60.7724
L26.8841 -60.9783
L27.3084 -61.18
L27.7382 -61.3773
L28.1734 -61.5702
L28.6137 -61.7584
L29.0589 -61.9419
L29.5085 -62.1206
L29.9624 -62.2944
L30.4201 -62.4632
L30.8811 -62.627
L31.3451 -62.7858
L31.8114 -62.9396
L32.2796 -63.0885
L32.7489 -63.2326
L33.2186 -63.3719
L33.6881 -63.5069
L34.1566 -63.6376
L34.623 -63.7643
L35.0867 -63.8876
L35.5464 -64.0078
L36.0014 -64.1254
L36.4504 -64.2409
L36.8924 -64.3551
L36.8292 -64.4685
L36.3319 -64.4879
L35.8345 -64.4981
L35.3371 -64.4995
L34.84 -64.4923
L34.3432 -64.4764
L33.8469 -64.4518
L33.3512 -64.4186
L32.8564 -64.3766
L32.3625 -64.3261
L31.8697 -64.2669
L31.3782 -64.1991
L30.8881 -64.1228
L30.3996 -64.0378
L29.9127 -63.9443
L29.4277 -63.8423
L28.9447 -63.7318
L28.4639 -63.6129
L27.9854 -63.4856
L27.5093 -63.3499
L27.0358 -63.2058
L26.565 -63.0535
L26.0971 -62.8929
L25.6322 -62.7242
L25.1704 -62.5473
L24.712 -62.3623
L24.257 -62.1693
L23.8056 -61.9683
L23.3579 -61.7594
L22.914 -61.5426
L22.4741 -61.3181
L22.0384 -61.0859
L21.6069 -60.846
L21.1798 -60.5986
L20.7572 -60.3436
L20.3392 -60.0813
L19.9261 -59.8116
L19.5178 -59.5346
L19.1145 -59.2505
L18.7164 -58.9593
L18.3235 -58.6611
L17.936 -58.356
L17.5541 -58.0441
L17.1777 -57.7255
L16.8071 -57.4003
L16.4423 -57.0685
L16.0835 -56.7303
L15.7308 -56.3859
L15.3842 -56.0352
L15.0439 -55.6784
L14.71 -55.3156
L14.3826 -54.9469
L14.0617 -54.5725
L13.7476 -54.1923
L13.4402 -53.8067
L13.1397 -53.4156
L12.8461 -53.0193
L12.5596 -52.6177
L12.2803 -52.2111
L12.0081 -51.7995
L11.7433 -51.3831
L11.4859 -50.9621
L11.2359 -50.5365
L10.9935 -50.1064
L10.7587 -49.6721
L10.5316 -49.2336
L10.3122 -48.791
L10.1007 -48.3446
L9.89707 -47.8944
L9.70138 -47.4406
L9.5137 -46.9833
L9.33409 -46.5226
L9.1626 -46.0588
L8.99929 -45.5919
L8.8442 -45.122
L8.69738 -44.6494
L8.55888 -44.1742
L8.42874 -43.6964
L8.307 -43.2163
L8.19369 -42.7341
L8.08885 -42.2497
L7.99252 -41.7635
L7.90471 -41.2755
L7.82546 -40.7859
L7.7548 -40.2948
L7.69274 -39.8025
L7.6393 -39.3089
L7.5945 -38.8144
L7.55836 -38.319
L7.53088 -37.8229
L7.51207 -37.3263
L7.50193 -36.8292
L7.50048 -36.3319
L7.50771 -35.8345
L7.52362 -35.3371
L7.5482 -34.84
L7.58145 -34.3432
L7.62336 -33.8469
L7.6739 -33.3512
L7.73308 -32.8564
L7.80087 -32.3625
L7.87725 -31.8697
L7.96219 -31.3782
L8.05568 -30.8881
L8.15768 -30.3996
L8.26815 -29.9127
L8.38708 -29.4277
L8.51442 -28.9447
L8.65013 -28.4639
L8.79417 -27.9854
L8.94649 -27.5093
L9.10706 -27.0358
L9.27582 -26.565
L9.45272 -26.0971
L9.63771 -25.6322
L9.83073 -25.1704
L10.0317 -24.712
L10.2406 -24.257
L10.4574 -23.8056
L10.6819 -23.3579
z
" id="C0_2_9c3f28211a"/>
    </defs>
    <g clip-path="url(#p1bffca34e9)">
     <use style="fill:#ff0000;stroke:#000000;stroke-width:2.0;" x="0.0" xlink:href="#C0_0_a811fe30f3" y="72.0"/>
    </g>
    <g clip-path="url(#p1bffca34e9)">
     <use style="fill:#ffffff;stroke:#000000;stroke-width:2.0;" x="0.0" xlink:href="#C0_1_9252b07d95" y="72.0"/>
    </g>
    <g clip-path="url(#p1bffca34e9)">
     <use style="fill:#ffffff;stroke:#000000;stroke-width:2.0;" x="0.0" xlink:href="#C0_2_9c3f28211a" y="72.0"/>
    </g>
   </g>
  </g>
 </g>
 <defs>
  <clipPath id="p1bffca34e9">
   <rect height="72.0" width="72.0" x="0.0" y="0.0"/>
  </clipPath>
 </defs>
</svg>
