<?xml version="1.0" encoding="utf-8" standalone="no"?>
<!DOCTYPE svg PUBLIC "-//W3C//DTD SVG 1.1//EN"
  "http://www.w3.org/Graphics/SVG/1.1/DTD/svg11.dtd">
<!-- Created with matplotlib (http://matplotlib.org/) -->
<svg height="72pt" version="1.1" viewBox="0 0 72 72" width="72pt" xmlns="http://www.w3.org/2000/svg" xmlns:xlink="http://www.w3.org/1999/xlink">
 <defs>
  <style type="text/css">
*{stroke-linecap:butt;stroke-linejoin:round;}
  </style>
 </defs>
 <g id="figure_1">
  <g id="patch_1">
   <path d="
M0 72
L72 72
L72 0
L0 0
z
" style="fill:none;"/>
  </g>
  <g id="axes_1">
   <g id="PatchCollection_1">
    <defs>
     <path d="
M36 -7.5
C43.5583 -7.5 50.808 -10.5029 56.1525 -15.8475
C61.4971 -21.192 64.5 -28.4417 64.5 -36
C64.5 -43.5583 61.4971 -50.808 56.1525 -56.1525
C50.808 -61.4971 43.5583 -64.5 36 -64.5
C28.4417 -64.5 21.192 -61.4971 15.8475 -56.1525
C10.5029 -50.808 7.5 -43.5583 7.5 -36
C7.5 -28.4417 10.5029 -21.192 15.8475 -15.8475
C21.192 -10.5029 28.4417 -7.5 36 -7.5
z
" id="C0_0_a811fe30f3"/>
     <path d="
M7.91598 -32.1162
L8.12569 -31.9858
L8.33563 -31.8593
L8.54577 -31.7364
L8.75611 -31.6169
L8.96661 -31.5008
L9.17729 -31.388
L9.38812 -31.2783
L9.59911 -31.1716
L9.81027 -31.0679
L10.0216 -30.9669
L10.2331 -30.8687
L10.4447 -30.7732
L10.6566 -30.6801
L10.8687 -30.5896
L11.081 -30.5014
L11.2935 -30.4156
L11.5063 -30.332
L11.7194 -30.2506
L11.9328 -30.1713
L12.1466 -30.0941
L12.3607 -30.0188
L12.5752 -29.9456
L12.7902 -29.8742
L13.0056 -29.8046
L13.2216 -29.7369
L13.438 -29.6709
L13.655 -29.6066
L13.8727 -29.544
L14.091 -29.483
L14.31 -29.4236
L14.5297 -29.3658
L14.9714 -29.3096
L15.1936 -29.2548
L15.4167 -29.2016
L15.6407 -29.1498
L15.8657 -29.0994
L16.0918 -29.0505
L16.319 -29.0029
L16.5473 -28.9568
L16.7768 -28.912
L17.0076 -28.8685
L17.2397 -28.8264
L17.4731 -28.7857
L17.708 -28.7462
L17.9443 -28.7081
L18.1821 -28.6712
L18.4215 -28.6357
L18.6626 -28.6015
L18.9053 -28.5686
L19.1499 -28.537
L19.3962 -28.5067
L19.6444 -28.4777
L19.8945 -28.45
L20.1466 -28.4237
L20.4008 -28.3987
L20.6571 -28.3751
L20.9155 -28.3528
L21.1763 -28.3319
L21.4393 -28.3124
L21.7046 -28.2943
L21.9724 -28.2777
L22.2427 -28.2625
L22.5155 -28.2488
L22.7909 -28.2367
L23.069 -28.2261
L23.3498 -28.217
L23.6334 -28.2096
L23.9198 -28.2038
L24.2091 -28.1998
L24.5013 -28.1974
L24.7965 -28.1969
L25.0947 -28.1981
L25.3961 -28.2013
L25.7005 -28.2063
L26.0081 -28.2133
L26.3189 -28.2224
L26.6328 -28.2336
L26.9501 -28.2469
L27.2705 -28.2625
L27.5943 -28.2804
L27.9213 -28.3006
L28.2515 -28.3234
L28.585 -28.3486
L28.9218 -28.3765
L29.2617 -28.4071
L29.6047 -28.4404
L29.9509 -28.4767
L30.3 -28.516
L30.6521 -28.5585
L31.0071 -28.6041
L31.3647 -28.6531
L31.7249 -28.7056
L32.0875 -28.7617
L32.4523 -28.8216
L32.8192 -28.8853
L33.1878 -28.9531
L33.558 -29.0251
L33.9294 -29.1015
L34.3016 -29.1824
L34.6745 -29.2682
L35.0474 -29.3589
L35.42 -29.4548
L35.7919 -29.5561
L36.1623 -29.6632
L36.5308 -29.7762
L36.8966 -29.8955
L37.2591 -30.0213
L37.6175 -30.1541
L37.9709 -30.2942
L38.3184 -30.4419
L38.6591 -30.5977
L38.9918 -30.762
L39.3156 -30.9353
L39.6292 -31.118
L39.9316 -31.3106
L40.2216 -31.5135
L40.498 -31.7272
L40.7598 -31.9521
L41.006 -32.1885
L41.2358 -32.4366
L41.4483 -32.6967
L41.6432 -32.9687
L41.8201 -33.2526
L41.9789 -33.5481
L42.1197 -33.8548
L42.2428 -34.1723
L42.3487 -34.5
L42.438 -34.837
L42.5114 -35.1827
L42.5698 -35.5361
L42.614 -35.8964
L42.6448 -36.2626
L42.6632 -36.634
L42.6699 -37.0096
L42.6658 -37.3887
L42.6518 -37.7705
L42.6285 -38.1542
L42.5966 -38.5392
L42.5568 -38.9249
L42.5097 -39.3106
L42.4558 -39.6959
L42.3957 -40.0803
L42.3298 -40.4634
L42.2586 -40.8446
L42.1825 -41.2239
L42.1018 -41.6007
L42.0169 -41.9748
L41.9282 -42.346
L41.8358 -42.714
L41.7401 -43.0787
L41.6414 -43.4398
L41.5399 -43.7974
L41.4357 -44.1511
L41.3291 -44.5009
L41.2203 -44.8468
L41.1094 -45.1886
L40.9966 -45.5263
L40.882 -45.8598
L40.7658 -46.1892
L40.6481 -46.5144
L40.5289 -46.8354
L40.4085 -47.1522
L40.2869 -47.4648
L40.1642 -47.7733
L40.0405 -48.0776
L39.9158 -48.3778
L39.7902 -48.6739
L39.6638 -48.966
L39.5367 -49.2541
L39.4088 -49.5382
L39.2803 -49.8185
L39.1511 -50.095
L39.0213 -50.3676
L38.891 -50.6366
L38.7601 -50.9019
L38.6288 -51.1637
L38.4969 -51.4219
L38.3646 -51.6767
L38.2318 -51.9281
L38.0986 -52.1762
L37.9649 -52.421
L37.8308 -52.6627
L37.6963 -52.9012
L37.5613 -53.1367
L37.4259 -53.3692
L37.2901 -53.5989
L37.1538 -53.8256
L37.0171 -54.0496
L36.88 -54.2709
L36.7423 -54.4895
L36.6042 -54.7055
L36.4656 -54.9189
L36.3265 -55.1299
L36.1868 -55.3385
L36.0466 -55.5448
L35.9059 -55.7487
L35.7645 -55.9503
L35.6225 -56.1498
L35.4798 -56.3472
L35.3365 -56.5424
L35.1925 -56.7356
L35.0478 -56.9268
L34.9022 -57.116
L34.7559 -57.3034
L34.6088 -57.4888
L34.4608 -57.6725
L34.3118 -57.8544
L34.162 -58.0345
L34.0111 -58.2129
L33.8593 -58.3896
L33.7063 -58.5647
L33.5523 -58.7381
L33.3971 -58.91
L33.2407 -59.0803
L33.083 -59.2491
L32.9241 -59.4164
L32.7638 -59.5822
L32.6021 -59.7465
L32.4389 -59.9094
L32.2742 -60.0708
L32.1079 -60.2308
L31.94 -60.3894
L31.7704 -60.5466
L31.599 -60.7023
L31.4258 -60.8567
L31.2506 -61.0096
L31.0735 -61.1612
L30.8944 -61.3113
L30.7131 -61.46
L30.5296 -61.6073
L30.3439 -61.7531
L30.1557 -61.8974
L29.9652 -62.0403
L29.772 -62.1816
L29.5763 -62.3213
L29.3778 -62.4595
L29.1764 -62.596
L28.9722 -62.7308
L28.7649 -62.8639
L28.5545 -62.9952
L28.3407 -63.1247
L28.1237 -63.2522
L27.6436 -63.3776
L27.1693 -63.2474
L26.6977 -63.0974
L26.229 -62.9392
L25.7633 -62.7727
L25.3006 -62.5981
L24.8412 -62.4154
L24.3852 -62.2246
L23.9328 -62.0259
L23.484 -61.8192
L23.0391 -61.6047
L22.5981 -61.3824
L22.1611 -61.1523
L21.7284 -60.9146
L21.3001 -60.6693
L20.8762 -60.4164
L20.4569 -60.1562
L20.0423 -59.8885
L19.6327 -59.6136
L19.228 -59.3315
L18.8284 -59.0423
L18.434 -58.7461
L18.045 -58.443
L17.6615 -58.133
L17.2835 -57.8162
L16.9113 -57.4929
L16.5448 -57.1629
L16.1843 -56.8266
L15.8298 -56.4839
L15.4815 -56.1349
L15.1394 -55.7798
L14.8037 -55.4187
L14.4744 -55.0517
L14.1517 -54.6789
L13.8357 -54.3003
L13.5264 -53.9163
L13.2239 -53.5267
L12.9284 -53.1318
L12.6399 -52.7317
L12.3585 -52.3265
L12.0843 -51.9163
L11.8174 -51.5013
L11.5579 -51.0816
L11.3058 -50.6572
L11.0613 -50.2284
L10.8243 -49.7953
L10.595 -49.3579
L10.3735 -48.9165
L10.1597 -48.4712
L9.95383 -48.022
L9.75588 -47.5692
L9.56593 -47.1129
L9.38404 -46.6532
L9.21025 -46.1902
L9.04462 -45.7242
L8.8872 -45.2551
L8.73804 -44.7833
L8.59718 -44.3088
L8.46467 -43.8317
L8.34055 -43.3523
L8.22486 -42.8706
L8.11762 -42.3868
L8.01888 -41.9011
L7.92866 -41.4136
L7.84699 -40.9244
L7.7739 -40.4338
L7.70941 -39.9418
L7.65353 -39.4485
L7.60629 -38.9543
L7.5677 -38.4591
L7.53776 -37.9632
L7.5165 -37.4667
L7.50392 -36.9697
L7.50001 -36.4725
L7.50479 -35.9751
L7.51824 -35.4777
L7.54037 -34.9805
L7.57117 -34.4835
L7.61063 -33.9871
L7.65874 -33.4912
z
" id="C0_1_feeeab549a"/>
     <path d="
M44.0016 -8.82268
L44.1189 -9.04905
L44.2347 -9.27869
L44.3492 -9.51165
L44.4623 -9.74801
L44.5741 -9.98783
L44.6845 -10.2312
L44.7935 -10.4781
L44.9012 -10.7287
L45.0075 -10.983
L45.1124 -11.2412
L45.2161 -11.5031
L45.3183 -11.769
L45.4193 -12.0389
L45.5188 -12.3128
L45.6171 -12.5908
L45.7139 -12.8729
L45.8095 -13.1593
L45.9036 -13.4498
L45.9965 -13.7446
L46.0879 -14.0438
L46.1781 -14.3472
L46.2668 -14.6551
L46.3543 -14.9672
L46.4404 -15.2838
L46.5253 -15.6047
L46.6089 -15.93
L46.6912 -16.2595
L46.7723 -16.5934
L46.8523 -16.9315
L46.9312 -17.2737
L47.009 -17.62
L47.0859 -17.9703
L47.162 -18.3244
L47.2373 -18.6822
L47.312 -19.0436
L47.3863 -19.4083
L47.4603 -19.776
L47.5344 -20.1467
L47.6086 -20.5199
L47.6833 -20.8955
L47.7588 -21.2729
L47.8355 -21.6519
L47.9139 -22.032
L47.9943 -22.4127
L48.0772 -22.7936
L48.1634 -23.174
L48.2534 -23.5535
L48.3479 -23.9313
L48.4477 -24.3067
L48.5536 -24.6792
L48.6663 -25.048
L48.7869 -25.4122
L48.9161 -25.7713
L49.0548 -26.1245
L49.2038 -26.4712
L49.3638 -26.8107
L49.5354 -27.1426
L49.719 -27.4665
L49.9149 -27.782
L50.1231 -28.0892
L50.3436 -28.3879
L50.576 -28.6783
L50.8197 -28.9606
L51.0742 -29.2352
L51.3385 -29.5025
L51.6119 -29.7629
L51.8933 -30.017
L52.1818 -30.2652
L52.4763 -30.5081
L52.776 -30.7462
L53.0797 -30.9799
L53.3867 -31.2097
L53.6961 -31.4359
L54.0072 -31.659
L54.319 -31.8793
L54.6312 -32.097
L54.9429 -32.3125
L55.2537 -32.5258
L55.563 -32.7374
L55.8705 -32.9472
L56.1758 -33.1554
L56.4784 -33.3623
L56.7781 -33.5678
L57.0746 -33.7722
L57.3677 -33.9754
L57.6572 -34.1775
L57.9428 -34.3787
L58.2246 -34.5789
L58.5022 -34.7782
L58.7756 -34.9767
L59.0448 -35.1743
L59.3097 -35.3712
L59.5702 -35.5673
L59.8262 -35.7627
L60.0778 -35.9573
L60.325 -36.1513
L60.5677 -36.3446
L60.806 -36.5373
L61.0398 -36.7294
L61.2693 -36.9208
L61.4944 -37.1117
L61.7151 -37.3021
L61.9315 -37.4919
L62.1437 -37.6813
L62.3517 -37.8701
L62.5555 -38.0585
L62.7553 -38.2465
L62.951 -38.4341
L63.1427 -38.6213
L63.3304 -38.8082
L63.5143 -38.9948
L63.6944 -39.1812
L63.8708 -39.3672
L64.0434 -39.5531
L64.314 -39.7389
L64.3664 -39.2506
L64.4102 -38.7559
L64.4453 -38.2605
L64.4718 -37.7643
L64.4896 -37.2676
L64.4987 -36.7705
L64.4991 -36.2732
L64.4909 -35.7758
L64.4739 -35.2784
L64.4483 -34.7813
L64.4141 -34.2845
L64.3711 -33.7883
L64.3196 -33.2927
L64.2594 -32.798
L64.1906 -32.3043
L64.1132 -31.8116
L64.0272 -31.3203
L63.9327 -30.8303
L63.8297 -30.342
L63.7182 -29.8554
L63.5983 -29.3706
L63.47 -28.8879
L63.3333 -28.4073
L63.1883 -27.929
L63.035 -27.4532
L62.8734 -26.98
L62.7037 -26.5096
L62.5259 -26.042
L62.3399 -25.5775
L62.146 -25.1161
L61.944 -24.6581
L61.7342 -24.2035
L61.5165 -23.7525
L61.2911 -23.3053
L61.0579 -22.8619
L60.8172 -22.4225
L60.5688 -21.9872
L60.313 -21.5562
L60.0498 -21.1297
L59.7792 -20.7076
L59.5014 -20.2902
L59.2165 -19.8776
L58.9245 -19.4699
L58.6255 -19.0672
L58.3196 -18.6697
L58.0069 -18.2775
L57.6874 -17.8907
L57.3614 -17.5093
L57.0289 -17.1337
L56.69 -16.7637
L56.3448 -16.3996
L55.9934 -16.0415
L55.6358 -15.6895
L55.2723 -15.3437
L54.903 -15.0041
L54.5279 -14.671
L54.1471 -14.3443
L53.7608 -14.0243
L53.3691 -13.7109
L52.9721 -13.4043
L52.5699 -13.1046
L52.1627 -12.8119
L51.7506 -12.5263
L51.3337 -12.2478
L50.9121 -11.9765
L50.4859 -11.7125
L50.0554 -11.456
L49.6205 -11.2069
L49.1815 -10.9654
L48.7385 -10.7315
L48.2916 -10.5053
L47.841 -10.2869
L47.3868 -10.0763
L46.9291 -9.87355
L46.468 -9.6788
L46.0038 -9.49207
L45.5365 -9.31342
L45.0664 -9.14289
L44.5934 -8.98055
z
" id="C0_2_0a38baf6e5"/>
    </defs>
    <g clip-path="url(#p1bffca34e9)">
     <use style="fill:#ffffff;stroke:#000000;stroke-width:2.0;" x="0.0" xlink:href="#C0_0_a811fe30f3" y="72.0"/>
    </g>
    <g clip-path="url(#p1bffca34e9)">
     <use style="fill:#ff0000;stroke:#000000;stroke-width:2.0;" x="0.0" xlink:href="#C0_1_feeeab549a" y="72.0"/>
    </g>
    <g clip-path="url(#p1bffca34e9)">
     <use style="fill:#ff0000;stroke:#000000;stroke-width:2.0;" x="0.0" xlink:href="#C0_2_0a38baf6e5" y="72.0"/>
    </g>
   </g>
  </g>
 </g>
 <defs>
  <clipPath id="p1bffca34e9">
   <rect height="72.0" width="72.0" x="0.0" y="0.0"/>
  </clipPath>
 </defs>
</svg>
