<?xml version="1.0" encoding="utf-8" standalone="no"?>
<!DOCTYPE svg PUBLIC "-//W3C//DTD SVG 1.1//EN"
  "http://www.w3.org/Graphics/SVG/1.1/DTD/svg11.dtd">
<!-- Created with matplotlib (http://matplotlib.org/) -->
<svg height="72pt" version="1.1" viewBox="0 0 72 72" width="72pt" xmlns="http://www.w3.org/2000/svg" xmlns:xlink="http://www.w3.org/1999/xlink">
 <defs>
  <style type="text/css">
*{stroke-linecap:butt;stroke-linejoin:round;}
  </style>
 </defs>
 <g id="figure_1">
  <g id="patch_1">
   <path d="
M0 72
L72 72
L72 0
L0 0
z
" style="fill:none;"/>
  </g>
  <g id="axes_1">
   <g id="PatchCollection_1">
    <defs>
     <path d="
M36 -7.5
C43.5583 -7.5 50.808 -10.5029 56.1525 -15.8475
C61.4971 -21.192 64.5 -28.4417 64.5 -36
C64.5 -43.5583 61.4971 -50.808 56.1525 -56.1525
C50.808 -61.4971 43.5583 -64.5 36 -64.5
C28.4417 -64.5 21.192 -61.4971 15.8475 -56.1525
C10.5029 -50.808 7.5 -43.5583 7.5 -36
C7.5 -28.4417 10.5029 -21.192 15.8475 -15.8475
C21.192 -10.5029 28.4417 -7.5 36 -7.5
z
" id="C0_0_a811fe30f3"/>
     <path d="
M45.9421 -34.8392
L45.9209 -35.1073
L45.8978 -35.3754
L45.8727 -35.6434
L45.8457 -35.9114
L45.8168 -36.1794
L45.7858 -36.4475
L45.7529 -36.7157
L45.718 -36.984
L45.6811 -37.2524
L45.6422 -37.521
L45.6013 -37.7898
L45.5582 -38.0589
L45.5132 -38.3282
L45.466 -38.5977
L45.4167 -38.8676
L45.3652 -39.1378
L45.3116 -39.4084
L45.2558 -39.6793
L45.1977 -39.9506
L45.1373 -40.2223
L45.0746 -40.4945
L45.0096 -40.7671
L44.9422 -41.0401
L44.8724 -41.3136
L44.8 -41.5876
L44.7252 -41.8621
L44.6478 -42.137
L44.5677 -42.4124
L44.485 -42.6883
L44.3996 -42.9647
L44.3114 -43.2416
L44.2203 -43.5189
L44.1264 -43.7967
L44.0295 -44.0749
L43.9296 -44.3535
L43.8265 -44.6325
L43.7203 -44.9118
L43.6109 -45.1915
L43.4982 -45.4715
L43.3821 -45.7516
L43.2626 -46.032
L43.1395 -46.3125
L43.0128 -46.593
L42.8824 -46.8736
L42.7483 -47.154
L42.6102 -47.4343
L42.4683 -47.7143
L42.3223 -47.994
L42.1721 -48.2732
L42.0178 -48.5518
L41.8591 -48.8297
L41.6961 -49.1067
L41.5285 -49.3827
L41.3564 -49.6576
L41.1796 -49.9311
L40.998 -50.2031
L40.8115 -50.4734
L40.62 -50.7418
L40.4235 -51.0081
L40.2218 -51.272
L40.0149 -51.5333
L39.8027 -51.7918
L39.585 -52.0471
L39.3618 -52.299
L39.1331 -52.5472
L38.8987 -52.7914
L38.6585 -53.0312
L38.4126 -53.2663
L38.1608 -53.4963
L37.9032 -53.721
L37.6396 -53.9398
L37.37 -54.1524
L37.0945 -54.3585
L36.813 -54.5575
L36.5255 -54.7492
L36.232 -54.933
L35.9327 -55.1085
L35.6274 -55.2754
L35.3164 -55.4331
L34.9998 -55.5814
L34.6776 -55.7197
L34.35 -55.8477
L34.0171 -55.9651
L33.6792 -56.0713
L33.3365 -56.1662
L32.9893 -56.2494
L32.6377 -56.3206
L32.2821 -56.3796
L31.9228 -56.4262
L31.5602 -56.4601
L31.1947 -56.4814
L30.8265 -56.4898
L30.4561 -56.4854
L30.084 -56.4681
L29.7105 -56.4379
L29.3361 -56.395
L28.9612 -56.3395
L28.5863 -56.2715
L28.2117 -56.1912
L27.838 -56.0988
L27.4655 -55.9946
L27.0946 -55.8789
L26.7258 -55.752
L26.3595 -55.6141
L25.996 -55.4657
L25.6356 -55.3071
L25.2787 -55.1386
L24.9257 -54.9607
L24.5768 -54.7736
L24.2322 -54.5779
L23.8923 -54.3738
L23.5573 -54.1618
L23.2273 -53.9422
L22.9026 -53.7154
L22.5834 -53.4818
L22.2698 -53.2417
L21.9618 -52.9955
L21.6598 -52.7436
L21.3637 -52.4862
L21.0736 -52.2238
L20.7896 -51.9565
L20.5117 -51.6848
L20.24 -51.4089
L19.9746 -51.1291
L19.7154 -50.8456
L19.4624 -50.5588
L19.2157 -50.2688
L18.9752 -49.976
L18.7408 -49.6805
L18.5127 -49.3825
L18.2907 -49.0823
L18.0747 -48.78
L17.8648 -48.4759
L17.6609 -48.17
L17.463 -47.8626
L17.2709 -47.5538
L17.0846 -47.2438
L16.9041 -46.9326
L16.7292 -46.6204
L16.56 -46.3074
L16.3963 -45.9936
L16.238 -45.6791
L16.0852 -45.3641
L15.9377 -45.0485
L15.7954 -44.7326
L15.6583 -44.4163
L15.5263 -44.0997
L15.3993 -43.7829
L15.2773 -43.466
L15.1602 -43.149
L15.0479 -42.8319
L14.9404 -42.5148
L14.8376 -42.1978
L14.7394 -41.8808
L14.6457 -41.5638
L14.5566 -41.247
L14.472 -40.9303
L14.3917 -40.6137
L14.3158 -40.2973
L14.2442 -39.9811
L14.1768 -39.665
L14.1137 -39.3492
L14.0546 -39.0335
L13.9998 -38.718
L13.949 -38.4027
L13.9022 -38.0876
L13.8594 -37.7727
L13.8207 -37.4579
L13.7859 -37.1434
L13.755 -36.829
L13.728 -36.5147
L13.7049 -36.2006
L13.6856 -35.8866
L13.6702 -35.5727
L13.6587 -35.2589
L13.651 -34.9453
L13.6471 -34.6317
L13.647 -34.3181
L13.6507 -34.0047
L13.6583 -33.6912
L13.6697 -33.3778
L13.6849 -33.0643
L13.7039 -32.7509
L13.7268 -32.4374
L13.7536 -32.1239
L13.7842 -31.8104
L13.8187 -31.4968
L13.8572 -31.1831
L13.8996 -30.8693
L13.946 -30.5554
L13.9964 -30.2414
L14.0509 -29.9273
L14.1094 -29.6131
L14.1721 -29.2988
L14.2389 -28.9843
L14.3099 -28.6698
L14.3852 -28.3551
L14.4648 -28.0402
L14.5488 -27.7253
L14.6372 -27.4103
L14.73 -27.0951
L14.8274 -26.7799
L14.9293 -26.4646
L15.036 -26.1493
L15.1473 -25.834
L15.2635 -25.5186
L15.3845 -25.2034
L15.5104 -24.8882
L15.6414 -24.5731
L15.7775 -24.2581
L15.9187 -23.9434
L16.0652 -23.629
L16.217 -23.3149
L16.3743 -23.0012
L16.537 -22.688
L16.7054 -22.3753
L16.8794 -22.0632
L17.0591 -21.7519
L17.2447 -21.4414
L17.4362 -21.1319
L17.6337 -20.8234
L17.8374 -20.5161
L18.0471 -20.2101
L18.2631 -19.9055
L18.4854 -19.6026
L18.7142 -19.3015
L18.9493 -19.0022
L19.191 -18.7051
L19.4392 -18.4103
L19.6941 -18.1181
L19.9556 -17.8285
L20.2238 -17.5419
L20.4987 -17.2585
L20.7804 -16.9786
L21.0688 -16.7023
L21.3639 -16.43
L21.6658 -16.162
L21.9744 -15.8985
L22.2896 -15.6399
L22.6114 -15.3864
L22.9397 -15.1384
L23.2744 -14.8963
L23.6154 -14.6603
L23.9625 -14.4309
L24.3157 -14.2084
L24.6746 -13.9931
L25.0392 -13.7855
L25.4092 -13.5859
L25.7843 -13.3947
L26.1642 -13.2123
L26.5487 -13.0391
L26.9375 -12.8754
L27.3301 -12.7217
L27.7262 -12.5782
L28.1254 -12.4455
L28.5272 -12.3237
L28.9313 -12.2133
L29.337 -12.1146
L29.7441 -12.0278
L30.1519 -11.9532
L30.5599 -11.8911
L30.9676 -11.8416
L31.3744 -11.805
L31.7799 -11.7813
L32.1834 -11.7707
L32.5845 -11.7732
L32.9827 -11.7889
L33.3773 -11.8176
L33.768 -11.8595
L34.1543 -11.9142
L34.5356 -11.9817
L34.9117 -12.0619
L35.282 -12.1543
L35.6463 -12.2589
L36.0043 -12.3752
L36.3555 -12.503
L36.6999 -12.6419
L37.0372 -12.7914
L37.3671 -12.9513
L37.6896 -13.1211
L38.0045 -13.3003
L38.3117 -13.4885
L38.6113 -13.6854
L38.903 -13.8903
L39.187 -14.1029
L39.4633 -14.3228
L39.7318 -14.5495
L39.9927 -14.7826
L40.2459 -15.0217
L40.4917 -15.2664
L40.73 -15.5162
L40.961 -15.7708
L41.1848 -16.0298
L41.4015 -16.2929
L41.6113 -16.5598
L41.8142 -16.8301
L42.0104 -17.1035
L42.2001 -17.3797
L42.3834 -17.6584
L42.5605 -17.9394
L42.7314 -18.2225
L42.8963 -18.5073
L43.0554 -18.7937
L43.2088 -19.0815
L43.3567 -19.3704
L43.4992 -19.6604
L43.6364 -19.9511
L43.7685 -20.2426
L43.8955 -20.5345
L44.0178 -20.8268
L44.1352 -21.1194
L44.2481 -21.4121
L44.3565 -21.7048
L44.4605 -21.9975
L44.5602 -22.29
L44.6558 -22.5822
L44.7474 -22.8742
L44.8351 -23.1657
L44.9189 -23.4568
L44.9991 -23.7475
L45.0756 -24.0375
L45.1485 -24.327
L45.2181 -24.6158
L45.2842 -24.904
L45.3472 -25.1915
L45.4069 -25.4783
L45.4635 -25.7644
L45.5171 -26.0497
L45.5678 -26.3343
L45.6155 -26.6181
L45.6604 -26.9012
L45.7026 -27.1835
L45.7421 -27.465
L45.7789 -27.7458
L45.8131 -28.0259
L45.8449 -28.3052
L45.8741 -28.5837
L45.9009 -28.8616
L45.9253 -29.1387
L45.9473 -29.4152
L45.9671 -29.691
L45.9846 -29.9662
L45.9998 -30.2408
L46.0129 -30.5147
L46.0238 -30.7881
L46.0325 -31.061
L46.0392 -31.3333
L46.0437 -31.6051
L46.0462 -31.8765
L46.0467 -32.1474
L46.0451 -32.4179
L46.0415 -32.688
L46.036 -32.9578
L46.0284 -33.2273
L46.0189 -33.4965
L46.0074 -33.7654
L45.994 -34.0341
L45.9787 -34.3026
z
" id="C0_1_eb90ee5955"/>
    </defs>
    <g clip-path="url(#p1bffca34e9)">
     <use style="fill:#ffffff;stroke:#000000;stroke-width:2.0;" x="0.0" xlink:href="#C0_0_a811fe30f3" y="72.0"/>
    </g>
    <g clip-path="url(#p1bffca34e9)">
     <use style="fill:#ff0000;stroke:#000000;stroke-width:2.0;" x="0.0" xlink:href="#C0_1_eb90ee5955" y="72.0"/>
    </g>
   </g>
  </g>
 </g>
 <defs>
  <clipPath id="p1bffca34e9">
   <rect height="72.0" width="72.0" x="0.0" y="0.0"/>
  </clipPath>
 </defs>
</svg>
