<?xml version="1.0" encoding="utf-8" standalone="no"?>
<!DOCTYPE svg PUBLIC "-//W3C//DTD SVG 1.1//EN"
  "http://www.w3.org/Graphics/SVG/1.1/DTD/svg11.dtd">
<!-- Created with matplotlib (http://matplotlib.org/) -->
<svg height="72pt" version="1.1" viewBox="0 0 72 72" width="72pt" xmlns="http://www.w3.org/2000/svg" xmlns:xlink="http://www.w3.org/1999/xlink">
 <defs>
  <style type="text/css">
*{stroke-linecap:butt;stroke-linejoin:round;}
  </style>
 </defs>
 <g id="figure_1">
  <g id="patch_1">
   <path d="
M0 72
L72 72
L72 0
L0 0
z
" style="fill:none;"/>
  </g>
  <g id="axes_1">
   <g id="PatchCollection_1">
    <defs>
     <path d="
M36 -7.5
C43.5583 -7.5 50.808 -10.5029 56.1525 -15.8475
C61.4971 -21.192 64.5 -28.4417 64.5 -36
C64.5 -43.5583 61.4971 -50.808 56.1525 -56.1525
C50.808 -61.4971 43.5583 -64.5 36 -64.5
C28.4417 -64.5 21.192 -61.4971 15.8475 -56.1525
C10.5029 -50.808 7.5 -43.5583 7.5 -36
C7.5 -28.4417 10.5029 -21.192 15.8475 -15.8475
C21.192 -10.5029 28.4417 -7.5 36 -7.5
z
" id="C0_0_a811fe30f3"/>
     <path d="
M8.35924 -42.7059
L8.54121 -42.6677
L8.72387 -42.6283
L8.90724 -42.5877
L9.09134 -42.546
L9.27622 -42.5032
L9.46189 -42.4592
L9.83576 -42.4142
L10.024 -42.3681
L10.2132 -42.3209
L10.4033 -42.2727
L10.5944 -42.2234
L10.7866 -42.173
L10.9798 -42.1216
L11.174 -42.0691
L11.3694 -42.0155
L11.566 -41.9609
L11.7637 -41.9052
L11.9627 -41.8484
L12.163 -41.7906
L12.3645 -41.7316
L12.5674 -41.6716
L12.7716 -41.6105
L12.9773 -41.5483
L13.1844 -41.4849
L13.393 -41.4204
L13.6031 -41.3547
L13.8147 -41.2879
L14.028 -41.2199
L14.2428 -41.1507
L14.4594 -41.0802
L14.6776 -41.0085
L14.8975 -40.9356
L15.1192 -40.8614
L15.3427 -40.7859
L15.5681 -40.709
L15.7953 -40.6308
L16.0243 -40.5512
L16.2553 -40.4702
L16.4883 -40.3878
L16.7232 -40.3038
L16.9601 -40.2184
L17.199 -40.1315
L17.44 -40.043
L17.683 -39.9529
L17.928 -39.8612
L18.1752 -39.7678
L18.4244 -39.6727
L18.6757 -39.5759
L18.9291 -39.4773
L19.1846 -39.3768
L19.4421 -39.2745
L19.7017 -39.1703
L19.9634 -39.064
L20.2271 -38.9558
L20.4927 -38.8456
L20.7603 -38.7332
L21.0298 -38.6186
L21.3012 -38.5018
L21.5743 -38.3828
L21.8492 -38.2614
L22.1257 -38.1376
L22.4038 -38.0114
L22.6833 -37.8826
L22.9641 -37.7512
L23.2462 -37.6172
L23.5294 -37.4804
L23.8135 -37.3408
L24.0984 -37.1983
L24.3839 -37.0529
L24.6699 -36.9044
L24.9561 -36.7527
L25.2422 -36.5978
L25.5282 -36.4395
L25.8137 -36.2778
L26.0984 -36.1126
L26.3822 -35.9438
L26.6646 -35.7712
L26.9455 -35.5947
L27.2244 -35.4143
L27.501 -35.2298
L27.7751 -35.0411
L28.0462 -34.8482
L28.3139 -34.6508
L28.578 -34.4488
L28.838 -34.2423
L29.0935 -34.031
L29.3443 -33.8148
L29.5898 -33.5937
L29.8298 -33.3677
L30.064 -33.1365
L30.2919 -32.9003
L30.5133 -32.6588
L30.728 -32.4122
L30.9355 -32.1604
L31.1358 -31.9034
L31.3287 -31.6413
L31.5139 -31.3742
L31.6913 -31.1021
L31.861 -30.8252
L32.0228 -30.5436
L32.1767 -30.2575
L32.3228 -29.9671
L32.4611 -29.6725
L32.5917 -29.3741
L32.7148 -29.0721
L32.8305 -28.7666
L32.939 -28.4582
L33.0404 -28.1469
L33.1349 -27.8331
L33.2229 -27.5171
L33.3045 -27.1992
L33.3799 -26.8796
L33.4494 -26.5588
L33.5132 -26.237
L33.5716 -25.9144
L33.6248 -25.5914
L33.6731 -25.2682
L33.7166 -24.9451
L33.7556 -24.6222
L33.7903 -24.2999
L33.8209 -23.9784
L33.8477 -23.6579
L33.8707 -23.3385
L33.8903 -23.0205
L33.9065 -22.704
L33.9195 -22.3892
L33.9296 -22.0762
L33.9368 -21.7652
L33.9413 -21.4563
L33.9432 -21.1495
L33.9427 -20.845
L33.9399 -20.5429
L33.9348 -20.2433
L33.9277 -19.9462
L33.9186 -19.6516
L33.9075 -19.3597
L33.8946 -19.0705
L33.88 -18.784
L33.8638 -18.5002
L33.8459 -18.2192
L33.8266 -17.9409
L33.8058 -17.6655
L33.7836 -17.3929
L33.7601 -17.123
L33.7352 -16.856
L33.7092 -16.5917
L33.682 -16.3302
L33.6536 -16.0715
L33.6241 -15.8155
L33.5936 -15.5623
L33.562 -15.3117
L33.5293 -15.0638
L33.4957 -14.8186
L33.4612 -14.5759
L33.4257 -14.3359
L33.3893 -14.0984
L33.3519 -13.8634
L33.3137 -13.6309
L33.2746 -13.4008
L33.2347 -13.1731
L33.1939 -12.9479
L33.1523 -12.7249
L33.1098 -12.5042
L33.0665 -12.2858
L33.0224 -12.0696
L32.9774 -11.8556
L32.9316 -11.6437
L32.885 -11.434
L32.8375 -11.2263
L32.7892 -11.0206
L32.7401 -10.8169
L32.6901 -10.6151
L32.6392 -10.4153
L32.5875 -10.2174
L32.5348 -10.0213
L32.4813 -9.82702
L32.4269 -9.63453
L32.3715 -9.44379
L32.3151 -9.25477
L32.2578 -9.06744
L32.1995 -8.88177
L32.1402 -8.69773
L32.0798 -8.5153
L32.0183 -8.33445
L31.9557 -8.15515
L31.892 -7.97739
L31.4 -7.80114
L30.9098 -7.87368
L30.4212 -7.95825
L29.9343 -8.05135
L29.4492 -8.15298
L28.9661 -8.26308
L28.4852 -8.38163
L28.0065 -8.50859
L27.5303 -8.64393
L27.0567 -8.78761
L26.5858 -8.93957
L26.1177 -9.09977
L25.6527 -9.26817
L25.1908 -9.44471
L24.7322 -9.62934
L24.2771 -9.822
L23.8255 -10.0226
L23.3776 -10.2312
L22.9336 -10.4476
L22.4936 -10.6718
L22.0576 -10.9037
L21.6259 -11.1432
L21.1986 -11.3903
L20.7758 -11.6449
L20.3577 -11.907
L19.9443 -12.1763
L19.5358 -12.453
L19.1323 -12.7368
L18.7339 -13.0276
L18.3408 -13.3255
L17.9531 -13.6303
L17.5709 -13.9419
L17.1943 -14.2602
L16.8234 -14.5852
L16.4584 -14.9166
L16.0993 -15.2545
L15.7463 -15.5987
L15.3994 -15.9492
L15.0588 -16.3057
L14.7246 -16.6682
L14.3969 -17.0366
L14.0758 -17.4108
L13.7613 -17.7907
L13.4537 -18.1761
L13.1528 -18.5669
L12.859 -18.9631
L12.5722 -19.3644
L12.2925 -19.7708
L12.0201 -20.1821
L11.7549 -20.5983
L11.4972 -21.0192
L11.2469 -21.4446
L11.0041 -21.8744
L10.769 -22.3086
L10.5415 -22.7469
L10.3218 -23.1893
L10.1099 -23.6355
L9.90593 -24.0856
L9.70989 -24.5392
L9.52185 -24.9964
L9.34188 -25.4569
L9.17003 -25.9206
L9.00635 -26.3874
L8.8509 -26.8571
L8.70371 -27.3296
L8.56484 -27.8047
L8.43433 -28.2823
L8.31221 -28.7623
L8.19853 -29.2445
L8.09332 -29.7288
L7.9966 -30.2149
L7.90842 -30.7028
L7.8288 -31.1924
L7.75775 -31.6834
L7.69531 -32.1757
L7.64149 -32.6692
L7.59631 -33.1637
L7.55978 -33.659
L7.53191 -34.1551
L7.51272 -34.6517
L7.5022 -35.1488
L7.50036 -35.6461
L7.50721 -36.1435
L7.52273 -36.6408
L7.54693 -37.138
L7.57979 -37.6348
L7.62131 -38.1312
L7.67148 -38.6268
L7.73028 -39.1217
L7.79768 -39.6156
L7.87368 -40.1085
L7.95825 -40.6
L8.05135 -41.0902
L8.15298 -41.5788
z
" id="C0_1_56d3a74c7b"/>
     <path d="
M40.1206 -64.0187
L40.1325 -63.8304
L40.1446 -63.6408
L40.1568 -63.45
L40.1693 -63.2578
L40.182 -63.0643
L40.1949 -62.8695
L40.2079 -62.6733
L40.2212 -62.4756
L40.2346 -62.2764
L40.2482 -62.0758
L40.262 -61.8736
L40.2761 -61.6698
L40.2903 -61.4644
L40.3047 -61.2574
L40.3193 -61.0486
L40.3341 -60.8382
L40.3491 -60.6259
L40.3643 -60.4119
L40.3798 -60.196
L40.3955 -59.9782
L40.4114 -59.7584
L40.4276 -59.5367
L40.444 -59.313
L40.4606 -59.0872
L40.4776 -58.8593
L40.4948 -58.6293
L40.5123 -58.3971
L40.5301 -58.1627
L40.5482 -57.926
L40.5667 -57.6871
L40.5855 -57.4457
L40.6047 -57.2021
L40.6243 -56.956
L40.6443 -56.7074
L40.6647 -56.4564
L40.6855 -56.2029
L40.7068 -55.9468
L40.7287 -55.6882
L40.751 -55.4269
L40.7739 -55.1631
L40.7974 -54.8966
L40.8216 -54.6274
L40.8464 -54.3556
L40.8719 -54.0811
L40.8981 -53.8039
L40.9251 -53.524
L40.953 -53.2414
L40.9817 -52.9561
L41.0114 -52.6681
L41.0421 -52.3775
L41.0739 -52.0843
L41.1068 -51.7884
L41.141 -51.49
L41.1764 -51.1891
L41.2132 -50.8857
L41.2515 -50.5799
L41.2913 -50.2718
L41.3328 -49.9614
L41.376 -49.6489
L41.4212 -49.3343
L41.4683 -49.0178
L41.5176 -48.6994
L41.5692 -48.3794
L41.6233 -48.0578
L41.6799 -47.7348
L41.7393 -47.4106
L41.8016 -47.0854
L41.867 -46.7594
L41.9357 -46.4327
L42.0079 -46.1057
L42.0838 -45.7785
L42.1637 -45.4514
L42.2477 -45.1247
L42.3361 -44.7985
L42.429 -44.4733
L42.5269 -44.1492
L42.6297 -43.8266
L42.7379 -43.5058
L42.8516 -43.1871
L42.971 -42.8707
L43.0964 -42.557
L43.2279 -42.2463
L43.3657 -41.9388
L43.51 -41.6348
L43.6609 -41.3347
L43.8186 -41.0386
L43.983 -40.7467
L44.1543 -40.4594
L44.3325 -40.1767
L44.5174 -39.8988
L44.7092 -39.626
L44.9076 -39.3582
L45.1126 -39.0957
L45.324 -38.8384
L45.5416 -38.5864
L45.7651 -38.3397
L45.9944 -38.0983
L46.2291 -37.8623
L46.4688 -37.6315
L46.7134 -37.4058
L46.9625 -37.1854
L47.2157 -36.9699
L47.4727 -36.7594
L47.7332 -36.5538
L47.9967 -36.3529
L48.263 -36.1566
L48.5317 -35.9649
L48.8024 -35.7775
L49.0749 -35.5945
L49.3489 -35.4156
L49.6239 -35.2408
L49.8998 -35.0699
L50.1763 -34.9028
L50.4531 -34.7395
L50.73 -34.5798
L51.0067 -34.4235
L51.283 -34.2707
L51.5588 -34.1212
L51.8337 -33.975
L52.1078 -33.8318
L52.3807 -33.6917
L52.6525 -33.5546
L52.9228 -33.4203
L53.1916 -33.2888
L53.4589 -33.1601
L53.7244 -33.034
L53.9882 -32.9105
L54.2501 -32.7896
L54.51 -32.671
L54.768 -32.5549
L55.0239 -32.4411
L55.2777 -32.3296
L55.5294 -32.2203
L55.7789 -32.1131
L56.0263 -32.0081
L56.2714 -31.9051
L56.5144 -31.8042
L56.7551 -31.7052
L56.9936 -31.6081
L57.2299 -31.5129
L57.464 -31.4195
L57.6958 -31.3279
L57.9255 -31.2381
L58.153 -31.15
L58.3783 -31.0636
L58.6015 -30.9788
L58.8226 -30.8956
L59.0416 -30.8141
L59.2585 -30.734
L59.4734 -30.6555
L59.6863 -30.5785
L59.8972 -30.5029
L60.1061 -30.4288
L60.3131 -30.356
L60.5183 -30.2847
L60.7216 -30.2147
L60.9231 -30.1461
L61.1228 -30.0788
L61.3207 -30.0128
L61.517 -29.9481
L61.7116 -29.8846
L61.9046 -29.8224
L62.0959 -29.7615
L62.2857 -29.7018
L62.474 -29.6432
L62.6608 -29.5859
L62.8461 -29.5298
L63.03 -29.4749
L63.2126 -29.4212
L63.3938 -29.3686
L63.8111 -29.3173
L63.9155 -29.7715
L64.0115 -30.2578
L64.0989 -30.7459
L64.1778 -31.2356
L64.2481 -31.7267
L64.3098 -32.2191
L64.3628 -32.7127
L64.4073 -33.2072
L64.443 -33.7027
L64.4701 -34.1988
L64.4886 -34.6955
L64.4983 -35.1925
L64.4994 -35.6899
L64.4918 -36.1873
L64.4755 -36.6846
L64.4505 -37.1818
L64.4169 -37.6786
L64.3746 -38.1748
L64.3237 -38.6704
L64.2641 -39.1652
L64.196 -39.6591
L64.1192 -40.1518
L64.0339 -40.6433
L63.94 -41.1333
L63.8377 -41.6218
L63.7268 -42.1085
L63.6075 -42.5934
L63.4798 -43.0763
L63.3437 -43.5571
L63.1993 -44.0355
L63.0467 -44.5115
L62.8857 -44.9849
L62.7166 -45.4556
L62.5394 -45.9233
L62.354 -46.3881
L62.1606 -46.8497
L61.9593 -47.308
L61.7501 -47.7628
L61.533 -48.2141
L61.3081 -48.6616
L61.0755 -49.1053
L60.8353 -49.545
L60.5876 -49.9806
L60.3323 -50.4119
L60.0696 -50.8388
L59.7996 -51.2612
L59.5223 -51.6789
L59.2379 -52.0919
L58.9464 -52.5
L58.6479 -52.903
L58.3425 -53.3009
L58.0303 -53.6935
L57.7114 -54.0808
L57.3859 -54.4625
L57.0539 -54.8386
L56.7154 -55.209
L56.3707 -55.5735
L56.0197 -55.932
L55.6626 -56.2845
L55.2996 -56.6308
L54.9306 -56.9709
L54.5559 -57.3045
L54.1756 -57.6316
L53.7897 -57.9522
L53.3984 -58.266
L53.0018 -58.5731
L52.6 -58.8733
L52.1932 -59.1666
L51.7814 -59.4527
L51.3648 -59.7318
L50.9436 -60.0036
L50.5177 -60.2681
L50.0875 -60.5252
L49.653 -60.7748
L49.2143 -61.0169
L48.7716 -61.2514
L48.325 -61.4782
L47.8746 -61.6972
L47.4207 -61.9084
L46.9632 -62.1117
L46.5024 -62.307
L46.0384 -62.4943
L45.5714 -62.6736
L45.1014 -62.8447
L44.6287 -63.0077
L44.1533 -63.1624
L43.6755 -63.3089
L43.1953 -63.447
L42.7129 -63.5768
L42.2285 -63.6981
L41.7422 -63.8111
L41.2541 -63.9155
L40.7644 -64.0115
z
" id="C0_2_c44fcaf314"/>
    </defs>
    <g clip-path="url(#p1bffca34e9)">
     <use style="fill:#ff0000;stroke:#000000;stroke-width:2.0;" x="0.0" xlink:href="#C0_0_a811fe30f3" y="72.0"/>
    </g>
    <g clip-path="url(#p1bffca34e9)">
     <use style="fill:#ffffff;stroke:#000000;stroke-width:2.0;" x="0.0" xlink:href="#C0_1_56d3a74c7b" y="72.0"/>
    </g>
    <g clip-path="url(#p1bffca34e9)">
     <use style="fill:#ffffff;stroke:#000000;stroke-width:2.0;" x="0.0" xlink:href="#C0_2_c44fcaf314" y="72.0"/>
    </g>
   </g>
  </g>
 </g>
 <defs>
  <clipPath id="p1bffca34e9">
   <rect height="72.0" width="72.0" x="0.0" y="0.0"/>
  </clipPath>
 </defs>
</svg>
