<?xml version="1.0" encoding="utf-8" standalone="no"?>
<!DOCTYPE svg PUBLIC "-//W3C//DTD SVG 1.1//EN"
  "http://www.w3.org/Graphics/SVG/1.1/DTD/svg11.dtd">
<!-- Created with matplotlib (http://matplotlib.org/) -->
<svg height="72pt" version="1.1" viewBox="0 0 72 72" width="72pt" xmlns="http://www.w3.org/2000/svg" xmlns:xlink="http://www.w3.org/1999/xlink">
 <defs>
  <style type="text/css">
*{stroke-linecap:butt;stroke-linejoin:round;}
  </style>
 </defs>
 <g id="figure_1">
  <g id="patch_1">
   <path d="
M0 72
L72 72
L72 0
L0 0
z
" style="fill:none;"/>
  </g>
  <g id="axes_1">
   <g id="PatchCollection_1">
    <defs>
     <path d="
M36 -7.5
C43.5583 -7.5 50.808 -10.5029 56.1525 -15.8475
C61.4971 -21.192 64.5 -28.4417 64.5 -36
C64.5 -43.5583 61.4971 -50.808 56.1525 -56.1525
C50.808 -61.4971 43.5583 -64.5 36 -64.5
C28.4417 -64.5 21.192 -61.4971 15.8475 -56.1525
C10.5029 -50.808 7.5 -43.5583 7.5 -36
C7.5 -28.4417 10.5029 -21.192 15.8475 -15.8475
C21.192 -10.5029 28.4417 -7.5 36 -7.5
z
" id="C0_0_a811fe30f3"/>
     <path d="
M58.3038 -53.4796
L57.9776 -53.5778
L57.6579 -53.6531
L57.3453 -53.7055
L57.0404 -53.7354
L56.7433 -53.7431
L56.4543 -53.7292
L56.1735 -53.6943
L55.9009 -53.6393
L55.6364 -53.565
L55.3797 -53.4724
L55.1306 -53.3625
L54.8887 -53.2364
L54.6537 -53.0952
L54.425 -52.9398
L54.2024 -52.7715
L53.9854 -52.5913
L53.7735 -52.4001
L53.5663 -52.199
L53.3634 -51.9889
L53.1645 -51.7706
L52.9692 -51.545
L52.7771 -51.3129
L52.588 -51.075
L52.4017 -50.8319
L52.2178 -50.5842
L52.0361 -50.3327
L51.8564 -50.0777
L51.6787 -49.8198
L51.5026 -49.5594
L51.3281 -49.2969
L51.1551 -49.0328
L50.9835 -48.7673
L50.8131 -48.5008
L50.6438 -48.2335
L50.4757 -47.9658
L50.3087 -47.6978
L50.1426 -47.4298
L49.9775 -47.1619
L49.8133 -46.8944
L49.6499 -46.6274
L49.4874 -46.3611
L49.3258 -46.0955
L49.1649 -45.8308
L49.0047 -45.5671
L48.8454 -45.3044
L48.6867 -45.0429
L48.5288 -44.7826
L48.3715 -44.5235
L48.215 -44.2658
L48.0591 -44.0094
L47.9039 -43.7544
L47.7492 -43.5009
L47.5953 -43.2487
L47.4419 -42.998
L47.2891 -42.7488
L47.1369 -42.501
L46.9853 -42.2547
L46.8342 -42.0098
L46.6836 -41.7663
L46.5335 -41.5243
L46.384 -41.2837
L46.2349 -41.0445
L46.0863 -40.8067
L45.9381 -40.5702
L45.7904 -40.335
L45.643 -40.1012
L45.496 -39.8686
L45.3494 -39.6373
L45.2032 -39.4071
L45.0573 -39.1782
L44.9116 -38.9503
L44.7663 -38.7236
L44.6211 -38.498
L44.4763 -38.2733
L44.3316 -38.0497
L44.1871 -37.827
L44.0428 -37.6052
L43.8986 -37.3843
L43.7545 -37.1643
L43.6105 -36.945
L43.4666 -36.7264
L43.3227 -36.5086
L43.1788 -36.2915
L43.0348 -36.0749
L42.8909 -35.859
L42.7468 -35.6435
L42.6027 -35.4286
L42.4584 -35.2141
L42.314 -35.0001
L42.1694 -34.7864
L42.0246 -34.573
L41.8795 -34.3599
L41.5885 -34.1471
L41.4426 -33.9345
L41.2963 -33.722
L41.1496 -33.5096
L41.0024 -33.2973
L40.8549 -33.085
L40.7068 -32.8727
L40.5583 -32.6603
L40.4092 -32.4478
L40.2596 -32.2352
L40.1093 -32.0224
L39.9584 -31.8094
L39.8069 -31.5961
L39.6547 -31.3826
L39.5018 -31.1686
L39.3481 -30.9543
L39.1936 -30.7395
L39.0384 -30.5243
L38.8823 -30.3085
L38.7253 -30.0922
L38.5674 -29.8753
L38.4086 -29.6578
L38.2489 -29.4396
L38.0882 -29.2207
L37.9264 -29.0011
L37.7637 -28.7807
L37.5998 -28.5595
L37.4349 -28.3374
L37.2689 -28.1144
L37.1017 -27.8905
L36.9334 -27.6657
L36.7639 -27.4399
L36.5932 -27.2131
L36.4213 -26.9852
L36.2482 -26.7562
L36.0738 -26.5262
L35.8982 -26.295
L35.7213 -26.0627
L35.5431 -25.8292
L35.3637 -25.5945
L35.183 -25.3586
L35.0011 -25.1214
L34.8179 -24.883
L34.6335 -24.6433
L34.4479 -24.4024
L34.261 -24.1601
L34.073 -23.9166
L33.8839 -23.6718
L33.6938 -23.4256
L33.5026 -23.1782
L33.3104 -22.9294
L33.1174 -22.6794
L32.9236 -22.4281
L32.729 -22.1754
L32.5339 -21.9216
L32.3383 -21.6664
L32.1423 -21.4101
L31.9462 -21.1525
L31.7501 -20.8938
L31.5541 -20.6339
L31.3585 -20.3728
L31.1635 -20.1107
L30.9694 -19.8475
L30.7765 -19.5833
L30.5851 -19.318
L30.3954 -19.0518
L30.208 -18.7847
L30.0232 -18.5167
L29.8414 -18.2478
L29.6633 -17.9781
L29.4892 -17.7076
L29.3198 -17.4363
L29.1558 -17.1642
L28.9978 -16.8915
L28.8466 -16.618
L28.703 -16.3438
L28.5678 -16.0689
L28.4419 -15.7933
L28.3263 -15.517
L28.2221 -15.24
L28.1301 -14.9623
L28.0516 -14.6839
L27.9875 -14.4049
L27.939 -14.1251
L27.9071 -13.8448
L27.893 -13.5638
L27.8975 -13.2824
L27.9216 -13.0006
L27.966 -12.7186
L28.0314 -12.4366
L28.1185 -12.1549
L28.2274 -11.8737
L28.3586 -11.5934
L28.5119 -11.3144
L28.6873 -11.0372
L28.8846 -10.7622
L29.1032 -10.49
L29.3427 -10.2211
L29.6024 -9.95607
L29.8815 -9.69555
L30.1793 -9.44007
L30.4947 -9.1902
L30.827 -8.94651
L31.175 -8.70952
L31.538 -8.47975
L31.9149 -8.25765
L32.3047 -8.04369
L32.7858 -7.83825
L33.2805 -7.68183
L33.7761 -7.63004
L34.2723 -7.5869
L34.769 -7.55242
L35.2661 -7.5266
L35.7635 -7.50945
L36.2609 -7.50098
L36.7582 -7.50119
L37.2553 -7.51009
L37.752 -7.52766
L38.2482 -7.5539
L38.7437 -7.58881
L39.2384 -7.63238
L39.7321 -7.68458
L40.2246 -7.74541
L40.7159 -7.81485
L41.2057 -7.89287
L41.6939 -7.97946
L42.1804 -8.07458
L42.665 -8.1782
L43.1476 -8.2903
L43.628 -8.41085
L44.1061 -8.53979
L44.5817 -8.6771
L45.0547 -8.82273
L45.525 -8.97664
L45.9923 -9.13879
L46.4566 -9.30911
L46.9177 -9.48757
L47.3755 -9.6741
L47.8298 -9.86865
L48.2806 -10.0712
L48.7275 -10.2816
L49.1706 -10.4998
L49.6097 -10.7258
L50.0447 -10.9595
L50.4753 -11.2009
L50.9016 -11.4498
L51.3233 -11.7061
L51.7404 -11.9699
L52.1526 -12.241
L52.56 -12.5193
L52.9622 -12.8048
L53.3594 -13.0973
L53.7512 -13.3968
L54.1376 -13.7033
L54.5185 -14.0165
L54.8938 -14.3363
L55.2633 -14.6628
L55.6269 -14.9958
L55.9846 -15.3352
L56.3362 -15.6809
L56.6816 -16.0328
L57.0206 -16.3907
L57.3533 -16.7547
L57.6795 -17.1245
L57.999 -17.5
L58.3119 -17.8812
L58.618 -18.2679
L58.9172 -18.66
L59.2094 -19.0573
L59.4945 -19.4599
L59.7725 -19.8675
L60.0432 -20.28
L60.3066 -20.6972
L60.5626 -21.1192
L60.8111 -21.5457
L61.0521 -21.9765
L61.2854 -22.4117
L61.5111 -22.851
L61.7289 -23.2943
L61.9389 -23.7414
L62.1411 -24.1923
L62.3352 -24.6468
L62.5214 -25.1048
L62.6994 -25.5661
L62.8693 -26.0305
L63.0311 -26.498
L63.1846 -26.9684
L63.3298 -27.4415
L63.4667 -27.9172
L63.5953 -28.3954
L63.7154 -28.876
L63.8271 -29.3587
L63.9303 -29.8434
L64.025 -30.33
L64.1111 -30.8183
L64.1888 -31.3082
L64.2578 -31.7995
L64.3182 -32.2921
L64.37 -32.7858
L64.4131 -33.2805
L64.4476 -33.7761
L64.4734 -34.2723
L64.4906 -34.769
L64.499 -35.2661
L64.4988 -35.7635
L64.4899 -36.2609
L64.4723 -36.7582
L64.4461 -37.2553
L64.4112 -37.752
L64.3676 -38.2482
L64.3154 -38.7437
L64.2546 -39.2384
L64.1851 -39.7321
L64.1071 -40.2246
L64.0205 -40.7159
L63.9254 -41.2057
L63.8218 -41.6939
L63.7097 -42.1804
L63.5892 -42.665
L63.4602 -43.1476
L63.3229 -43.628
L63.1773 -44.1061
L63.0234 -44.5817
L62.8612 -45.0547
L62.6909 -45.525
L62.5124 -45.9923
L62.3259 -46.4566
L62.1314 -46.9177
L61.9288 -47.3755
L61.7184 -47.8298
L61.5002 -48.2806
L61.2742 -48.7275
L61.0405 -49.1706
L60.7991 -49.6097
L60.5502 -50.0447
L60.2939 -50.4753
L60.0301 -50.9016
L59.759 -51.3233
L59.4807 -51.7404
L59.1952 -52.1526
L58.9027 -52.56
z
" id="C0_1_aaaef39b36"/>
     <path d="
M39.2822 -64.2611
L38.8422 -64.1651
L38.4012 -64.0654
L37.9599 -63.9616
L37.519 -63.8535
L37.079 -63.7412
L36.6405 -63.6244
L36.204 -63.5032
L35.7699 -63.3775
L35.3387 -63.2473
L34.9108 -63.1126
L34.4863 -62.9735
L34.0658 -62.8301
L33.6493 -62.6825
L33.2371 -62.5306
L32.8295 -62.3748
L32.4266 -62.2149
L32.0285 -62.0513
L31.6353 -61.884
L31.2473 -61.7131
L30.8644 -61.5387
L30.4867 -61.3611
L30.1142 -61.1802
L29.7471 -60.9963
L29.3852 -60.8095
L29.0287 -60.6199
L28.6774 -60.4275
L28.3315 -60.2326
L27.9909 -60.0352
L27.6554 -59.8355
L27.3252 -59.6335
L27.0001 -59.4293
L26.6802 -59.2231
L26.3653 -59.0149
L26.0553 -58.8048
L25.7503 -58.5929
L25.4501 -58.3793
L25.1547 -58.164
L24.8641 -57.9471
L24.578 -57.7286
L24.2966 -57.5086
L24.0196 -57.2872
L23.747 -57.0644
L23.4787 -56.8403
L23.2147 -56.6148
L22.9549 -56.3881
L22.6991 -56.16
L22.4474 -55.9308
L22.1997 -55.7004
L21.9558 -55.4687
L21.7156 -55.2359
L21.4793 -55.002
L21.2465 -54.7668
L21.0174 -54.5306
L20.7917 -54.2932
L20.5695 -54.0546
L20.3507 -53.8149
L20.1352 -53.5741
L19.9229 -53.3321
L19.7139 -53.0889
L19.5079 -52.8445
L19.3051 -52.5989
L19.1052 -52.3521
L18.9083 -52.1041
L18.7144 -51.8548
L18.5233 -51.6042
L18.335 -51.3523
L18.1495 -51.0991
L17.9668 -50.8445
L17.7867 -50.5885
L17.6093 -50.3311
L17.4345 -50.0722
L17.2623 -49.8118
L17.0926 -49.5499
L16.9254 -49.2864
L16.7608 -49.0213
L16.5986 -48.7545
L16.4388 -48.4859
L16.2815 -48.2157
L16.1266 -47.9436
L15.9741 -47.6697
L15.8239 -47.3939
L15.6762 -47.1162
L15.5307 -46.8364
L15.3877 -46.5546
L15.2469 -46.2707
L15.1085 -45.9847
L14.9725 -45.6964
L14.8388 -45.4059
L14.7075 -45.1131
L14.5785 -44.8179
L14.452 -44.5202
L14.3278 -44.2201
L14.206 -43.9174
L14.0867 -43.6121
L13.9699 -43.3041
L13.8555 -42.9934
L13.7436 -42.6799
L13.6343 -42.3636
L13.5276 -42.0444
L13.4235 -41.7222
L13.3221 -41.397
L13.2234 -41.0687
L13.1275 -40.7373
L13.0344 -40.4027
L12.9441 -40.0649
L12.8568 -39.7238
L12.7725 -39.3794
L12.6913 -39.0315
L12.6132 -38.6803
L12.5383 -38.3256
L12.4667 -37.9674
L12.3984 -37.6057
L12.3336 -37.2404
L12.2723 -36.8716
L12.2146 -36.4991
L12.1606 -36.123
L12.1104 -35.7433
L12.064 -35.36
L12.0216 -34.973
L11.9833 -34.5825
L11.9491 -34.1884
L11.9191 -33.7907
L11.8935 -33.3895
L11.8723 -32.9848
L11.8556 -32.5768
L11.8435 -32.1655
L11.836 -31.7509
L11.8333 -31.3332
L11.8353 -30.9125
L11.8422 -30.4889
L11.854 -30.0627
L11.8706 -29.6338
L11.8922 -29.2026
L11.9186 -28.7693
L11.95 -28.334
L11.9862 -27.8971
L12.0271 -27.4587
L12.0727 -27.0193
L12.1228 -26.579
L12.1773 -26.1383
L12.2359 -25.6976
L12.2983 -25.2571
L12.3644 -24.8174
L12.4337 -24.3789
L12.5058 -23.942
L12.5802 -23.5073
L12.6565 -23.0754
L12.734 -22.6466
L12.8121 -22.2217
L12.8901 -21.8013
L12.9671 -21.3858
L13.0424 -20.9761
L13.1151 -20.5727
L13.1841 -20.1762
L13.2486 -19.7873
L13.3074 -19.4066
L13.3597 -19.0348
L13.085 -18.6725
L12.7928 -19.0544
L12.5076 -19.4569
L12.2296 -19.8644
L11.9588 -20.2769
L11.6953 -20.6941
L11.4393 -21.116
L11.1907 -21.5425
L10.9497 -21.9733
L10.7163 -22.4084
L10.4906 -22.8477
L10.2727 -23.2909
L10.0626 -23.7381
L9.86041 -24.1889
L9.66619 -24.6434
L9.48 -25.1013
L9.30188 -25.5626
L9.13189 -26.027
L8.97009 -26.4945
L8.81652 -26.9648
L8.67123 -27.438
L8.53427 -27.9137
L8.40567 -28.3919
L8.28548 -28.8724
L8.17373 -29.355
L8.07046 -29.8397
L7.97569 -30.3263
L7.88946 -30.8146
L7.8118 -31.3045
L7.74272 -31.7958
L7.68224 -32.2884
L7.6304 -32.7821
L7.58719 -33.2768
L7.55264 -33.7724
L7.52676 -34.2686
L7.50955 -34.7653
L7.50101 -35.2624
L7.50116 -35.7598
L7.50999 -36.2572
L7.5275 -36.7545
L7.55368 -37.2516
L7.58852 -37.7483
L7.63202 -38.2445
L7.68416 -38.74
L7.74493 -39.2347
L7.8143 -39.7284
L7.89226 -40.2209
L7.97878 -40.7122
L8.07384 -41.202
L8.1774 -41.6903
L8.28944 -42.1768
L8.40991 -42.6614
L8.5388 -43.144
L8.67604 -43.6245
L8.82161 -44.1026
L8.97546 -44.5782
L9.13755 -45.0512
L9.30781 -45.5215
L9.4862 -45.9888
L9.67267 -46.4532
L9.86717 -46.9143
L10.0696 -47.3721
L10.28 -47.8265
L10.4982 -48.2772
L10.7241 -48.7242
L10.9578 -49.1673
L11.199 -49.6065
L11.4479 -50.0414
L11.7042 -50.4721
L11.9679 -50.8984
L12.2389 -51.3202
L12.5172 -51.7373
L12.8026 -52.1496
L13.0951 -52.5569
L13.3946 -52.9593
L13.7009 -53.3564
L14.0141 -53.7483
L14.3339 -54.1348
L14.6604 -54.5157
L14.9933 -54.891
L15.3327 -55.2606
L15.6783 -55.6242
L16.0301 -55.982
L16.388 -56.3336
L16.7519 -56.679
L17.1217 -57.0181
L17.4972 -57.3508
L17.8783 -57.6771
L18.265 -57.9967
L18.657 -58.3096
L19.0544 -58.6157
L19.4569 -58.915
L19.8644 -59.2072
L20.2769 -59.4924
L20.6941 -59.7704
L21.116 -60.0412
L21.5425 -60.3047
L21.9733 -60.5607
L22.4084 -60.8093
L22.8477 -61.0503
L23.2909 -61.2837
L23.7381 -61.5094
L24.1889 -61.7273
L24.6434 -61.9374
L25.1013 -62.1396
L25.5626 -62.3338
L26.027 -62.52
L26.4945 -62.6981
L26.9648 -62.8681
L27.438 -63.0299
L27.9137 -63.1835
L28.3919 -63.3288
L28.8724 -63.4657
L29.355 -63.5943
L29.8397 -63.7145
L30.3263 -63.8263
L30.8146 -63.9295
L31.3045 -64.0243
L31.7958 -64.1105
L32.2884 -64.1882
L32.7821 -64.2573
L33.2768 -64.3178
L33.7724 -64.3696
L34.2686 -64.4128
L34.7653 -64.4474
L35.2624 -64.4732
L35.7598 -64.4905
L36.2572 -64.499
L36.7545 -64.4988
L37.2516 -64.49
L37.7483 -64.4725
L38.2445 -64.4463
L38.74 -64.4115
z
" id="C0_2_d769f09821"/>
    </defs>
    <g clip-path="url(#p1bffca34e9)">
     <use style="fill:#ff0000;stroke:#000000;stroke-width:2.0;" x="0.0" xlink:href="#C0_0_a811fe30f3" y="72.0"/>
    </g>
    <g clip-path="url(#p1bffca34e9)">
     <use style="fill:#ffffff;stroke:#000000;stroke-width:2.0;" x="0.0" xlink:href="#C0_1_aaaef39b36" y="72.0"/>
    </g>
    <g clip-path="url(#p1bffca34e9)">
     <use style="fill:#ffffff;stroke:#000000;stroke-width:2.0;" x="0.0" xlink:href="#C0_2_d769f09821" y="72.0"/>
    </g>
   </g>
  </g>
 </g>
 <defs>
  <clipPath id="p1bffca34e9">
   <rect height="72.0" width="72.0" x="0.0" y="0.0"/>
  </clipPath>
 </defs>
</svg>
