<?xml version="1.0" encoding="utf-8" standalone="no"?>
<!DOCTYPE svg PUBLIC "-//W3C//DTD SVG 1.1//EN"
  "http://www.w3.org/Graphics/SVG/1.1/DTD/svg11.dtd">
<!-- Created with matplotlib (http://matplotlib.org/) -->
<svg height="72pt" version="1.1" viewBox="0 0 72 72" width="72pt" xmlns="http://www.w3.org/2000/svg" xmlns:xlink="http://www.w3.org/1999/xlink">
 <defs>
  <style type="text/css">
*{stroke-linecap:butt;stroke-linejoin:round;}
  </style>
 </defs>
 <g id="figure_1">
  <g id="patch_1">
   <path d="
M0 72
L72 72
L72 0
L0 0
z
" style="fill:none;"/>
  </g>
  <g id="axes_1">
   <g id="PatchCollection_1">
    <defs>
     <path d="
M36 -7.5
C43.5583 -7.5 50.808 -10.5029 56.1525 -15.8475
C61.4971 -21.192 64.5 -28.4417 64.5 -36
C64.5 -43.5583 61.4971 -50.808 56.1525 -56.1525
C50.808 -61.4971 43.5583 -64.5 36 -64.5
C28.4417 -64.5 21.192 -61.4971 15.8475 -56.1525
C10.5029 -50.808 7.5 -43.5583 7.5 -36
C7.5 -28.4417 10.5029 -21.192 15.8475 -15.8475
C21.192 -10.5029 28.4417 -7.5 36 -7.5
z
" id="C0_0_a811fe30f3"/>
     <path d="
M53.4662 -58.3199
L53.1543 -58.2324
L52.8363 -58.146
L52.5134 -58.0599
L52.1865 -57.9738
L51.8567 -57.887
L51.5245 -57.7992
L51.1908 -57.7102
L50.856 -57.6196
L50.5209 -57.5272
L50.1858 -57.433
L49.8512 -57.3368
L49.5175 -57.2385
L49.1849 -57.1382
L48.8539 -57.0358
L48.5246 -56.9312
L48.1972 -56.8246
L47.872 -56.716
L47.5492 -56.6053
L47.2288 -56.4927
L46.911 -56.3782
L46.5958 -56.2619
L46.2835 -56.1439
L45.974 -56.0242
L45.6674 -55.9028
L45.3638 -55.7799
L45.0632 -55.6556
L44.7655 -55.5298
L44.4708 -55.4027
L44.1792 -55.2744
L43.8905 -55.1448
L43.6049 -55.0141
L43.3222 -54.8823
L43.0424 -54.7495
L42.7656 -54.6156
L42.4916 -54.4809
L42.2205 -54.3452
L41.9522 -54.2087
L41.6866 -54.0714
L41.4238 -53.9333
L41.1636 -53.7945
L40.906 -53.6549
L40.651 -53.5147
L40.3985 -53.3738
L40.1484 -53.2322
L39.9007 -53.0901
L39.6553 -52.9473
L39.4122 -52.8039
L39.1714 -52.66
L38.9326 -52.5154
L38.696 -52.3703
L38.4614 -52.2247
L38.2288 -52.0784
L37.9981 -51.9316
L37.7692 -51.7842
L37.5422 -51.6363
L37.3169 -51.4878
L37.0933 -51.3387
L36.8712 -51.189
L36.6508 -51.0386
L36.4319 -50.8877
L36.2144 -50.7361
L35.9983 -50.5839
L35.7835 -50.4311
L35.5701 -50.2775
L35.3578 -50.1232
L35.1468 -49.9682
L34.9368 -49.8125
L34.7279 -49.656
L34.5201 -49.4986
L34.3132 -49.3405
L34.1072 -49.1815
L33.9021 -49.0216
L33.6978 -48.8608
L33.4943 -48.6991
L33.0894 -48.5364
L32.8879 -48.3727
L32.687 -48.2079
L32.4866 -48.0421
L32.2866 -47.8751
L32.0872 -47.707
L31.8881 -47.5378
L31.6894 -47.3672
L31.491 -47.1954
L31.2929 -47.0223
L31.095 -46.8479
L30.8973 -46.672
L30.6997 -46.4947
L30.5023 -46.3159
L30.3049 -46.1356
L30.1076 -45.9536
L29.9103 -45.7701
L29.7129 -45.5848
L29.5155 -45.3979
L29.3179 -45.2091
L29.1202 -45.0185
L28.9224 -44.826
L28.7243 -44.6315
L28.5261 -44.435
L28.3275 -44.2365
L28.1287 -44.0359
L27.9295 -43.8331
L27.7301 -43.628
L27.5302 -43.4207
L27.33 -43.211
L27.1293 -42.9989
L26.9283 -42.7843
L26.7267 -42.5672
L26.5248 -42.3476
L26.3223 -42.1252
L26.1194 -41.9002
L25.9159 -41.6724
L25.712 -41.4417
L25.5075 -41.2082
L25.3026 -40.9718
L25.0971 -40.7324
L24.8911 -40.4899
L24.6846 -40.2443
L24.4775 -39.9956
L24.27 -39.7437
L24.062 -39.4885
L23.8536 -39.2301
L23.6447 -38.9684
L23.4354 -38.7034
L23.2257 -38.435
L23.0156 -38.1633
L22.8052 -37.8881
L22.5945 -37.6096
L22.3835 -37.3277
L22.1723 -37.0425
L21.9609 -36.7539
L21.7494 -36.462
L21.5378 -36.1669
L21.3261 -35.8686
L21.1145 -35.5672
L20.9029 -35.2629
L20.6914 -34.9557
L20.4801 -34.6458
L20.269 -34.3334
L20.0581 -34.0186
L19.8474 -33.7017
L19.6371 -33.383
L19.4271 -33.0628
L19.2173 -32.7414
L19.0079 -32.4192
L18.7987 -32.0966
L18.5897 -31.7743
L18.3809 -31.4527
L18.172 -31.1325
L17.963 -30.8144
L17.7536 -30.4993
L17.5436 -30.188
L17.3327 -29.8815
L17.1205 -29.5811
L16.9067 -29.2879
L16.6907 -29.0034
L16.4721 -28.729
L16.2502 -28.4664
L16.0244 -28.2173
L15.794 -27.9836
L15.5585 -27.7671
L15.317 -27.57
L15.0691 -27.3939
L14.8143 -27.2409
L14.5522 -27.1124
L14.2826 -27.0099
L14.0057 -26.9346
L13.7216 -26.8871
L13.4307 -26.8678
L13.1337 -26.8768
L12.8313 -26.9136
L12.5245 -26.9776
L12.2142 -27.0679
L11.9014 -27.1833
L11.5871 -27.3226
L11.2724 -27.4844
L10.9582 -27.6675
L10.6455 -27.8704
L10.3352 -28.0919
L10.028 -28.3307
L9.72464 -28.5855
L9.42587 -28.8554
L9.13226 -29.1392
L8.84436 -29.4359
L8.56267 -29.7446
L8.28761 -30.0645
L8.01958 -30.3948
L7.90386 -30.7348
L7.8247 -31.2191
L7.75412 -31.7102
L7.69215 -32.2026
L7.6388 -32.6961
L7.59409 -33.1907
L7.55803 -33.6861
L7.53064 -34.1822
L7.51192 -34.6788
L7.50187 -35.1759
L7.50051 -35.6732
L7.50783 -36.1706
L7.52383 -36.668
L7.5485 -37.1651
L7.58183 -37.6619
L7.62383 -38.1582
L7.67447 -38.6539
L7.73373 -39.1487
L7.80161 -39.6426
L7.87808 -40.1353
L7.96311 -40.6268
L8.05668 -41.1169
L8.15876 -41.6054
L8.26933 -42.0923
L8.38834 -42.5772
L8.51576 -43.0602
L8.65156 -43.541
L8.79568 -44.0195
L8.9481 -44.4956
L9.10875 -44.9691
L9.27759 -45.4398
L9.45457 -45.9077
L9.63964 -46.3726
L9.83274 -46.8343
L10.0338 -47.2927
L10.2428 -47.7476
L10.4596 -48.199
L10.6842 -48.6467
L10.9165 -49.0905
L11.1565 -49.5303
L11.404 -49.966
L11.659 -50.3975
L11.9215 -50.8246
L12.1912 -51.2471
L12.4683 -51.665
L12.7524 -52.0782
L13.0437 -52.4864
L13.342 -52.8896
L13.6471 -53.2877
L13.9591 -53.6805
L14.2778 -54.0679
L14.6031 -54.4498
L14.9349 -54.8261
L15.2731 -55.1967
L15.6177 -55.5614
L15.9685 -55.9201
L16.3253 -56.2728
L16.6882 -56.6193
L17.0569 -56.9596
L17.4314 -57.2934
L17.8116 -57.6208
L18.1973 -57.9415
L18.5884 -58.2556
L18.9848 -58.5629
L19.3864 -58.8634
L19.7931 -59.1569
L20.2047 -59.4433
L20.6211 -59.7226
L21.0423 -59.9946
L21.4679 -60.2593
L21.898 -60.5167
L22.3324 -60.7666
L22.7709 -61.0089
L23.2135 -61.2437
L23.66 -61.4707
L24.1102 -61.69
L24.5641 -61.9014
L25.0214 -62.105
L25.4821 -62.3006
L25.946 -62.4882
L26.4129 -62.6677
L26.8828 -62.8391
L27.3554 -63.0023
L27.8307 -63.1573
L28.3085 -63.3041
L28.7886 -63.4425
L29.2709 -63.5725
L29.7552 -63.6942
L30.2415 -63.8074
L30.7295 -63.9122
L31.2191 -64.0084
L31.7102 -64.0961
L32.2026 -64.1753
L32.6961 -64.2459
L33.1907 -64.3079
L33.6861 -64.3612
L34.1822 -64.4059
L34.6788 -64.442
L35.1759 -64.4694
L35.6732 -64.4881
L36.1706 -64.4981
L36.668 -64.4995
L37.1651 -64.4922
L37.6619 -64.4762
L38.1582 -64.4515
L38.6539 -64.4182
L39.1487 -64.3762
L39.6426 -64.3255
L40.1353 -64.2663
L40.6268 -64.1984
L41.1169 -64.1219
L41.6054 -64.0369
L42.0923 -63.9433
L42.5772 -63.8412
L43.0602 -63.7307
L43.541 -63.6117
L44.0195 -63.4842
L44.4956 -63.3484
L44.9691 -63.2043
L45.4398 -63.0519
L45.9077 -62.8913
L46.3726 -62.7224
L46.8343 -62.5454
L47.2927 -62.3604
L47.7476 -62.1673
L48.199 -61.9662
L48.6467 -61.7572
L49.0905 -61.5404
L49.5303 -61.3158
L49.966 -61.0835
L50.3975 -60.8435
L50.8246 -60.596
L51.2471 -60.341
L51.665 -60.0785
L52.0782 -59.8088
L52.4864 -59.5317
L52.8896 -59.2476
z
" id="C0_1_996fdb2611"/>
     <path d="
M63.9134 -40.8593
L63.7856 -40.4457
L63.6529 -40.0356
L63.5155 -39.6294
L63.3735 -39.2274
L63.2271 -38.83
L63.0763 -38.4374
L62.9213 -38.0498
L62.7624 -37.6675
L62.5996 -37.2906
L62.4333 -36.9192
L62.2634 -36.5534
L62.0902 -36.1932
L61.914 -35.8387
L61.7348 -35.4899
L61.5528 -35.1468
L61.3683 -34.8094
L61.1813 -34.4777
L60.9919 -34.1516
L60.8005 -33.8311
L60.607 -33.5161
L60.4116 -33.2066
L60.2145 -32.9025
L60.0157 -32.6036
L59.8154 -32.31
L59.6136 -32.0215
L59.4105 -31.7381
L59.2062 -31.4596
L59.0007 -31.1859
L58.7941 -30.917
L58.5864 -30.6528
L58.3778 -30.3931
L58.1684 -30.1379
L57.958 -29.887
L57.7469 -29.6404
L57.535 -29.3979
L57.3224 -29.1595
L57.1091 -28.9251
L56.8951 -28.6946
L56.6805 -28.4678
L56.4653 -28.2447
L56.2495 -28.0252
L56.0331 -27.8091
L55.8161 -27.5966
L55.5986 -27.3873
L55.3804 -27.1813
L55.1617 -26.9784
L54.9425 -26.7786
L54.7226 -26.5818
L54.5022 -26.388
L54.2811 -26.197
L54.0594 -26.0087
L53.8371 -25.8232
L53.6142 -25.6403
L53.3905 -25.46
L53.1662 -25.2823
L52.9412 -25.1069
L52.7154 -24.934
L52.4888 -24.7634
L52.2614 -24.595
L52.0332 -24.4289
L51.8041 -24.265
L51.5741 -24.1031
L51.3431 -23.9434
L51.1112 -23.7856
L50.8782 -23.6299
L50.6442 -23.4761
L50.409 -23.3242
L50.1727 -23.1741
L49.9352 -23.0259
L49.6965 -22.8794
L49.4564 -22.7347
L49.2151 -22.5918
L48.9723 -22.4505
L48.7281 -22.3109
L48.4823 -22.1729
L48.235 -22.0366
L47.9862 -21.9019
L47.7356 -21.7687
L47.4833 -21.6371
L47.2292 -21.5071
L46.9733 -21.3785
L46.7155 -21.2515
L46.4557 -21.1261
L46.1939 -21.0021
L45.93 -20.8796
L45.6639 -20.7586
L45.3957 -20.6391
L45.1251 -20.5212
L44.8521 -20.4047
L44.5768 -20.2897
L44.2989 -20.1763
L44.0185 -20.0643
L43.7354 -19.954
L43.4497 -19.8451
L43.1612 -19.7379
L42.8698 -19.6322
L42.5755 -19.5282
L42.2782 -19.4258
L41.9779 -19.3251
L41.6745 -19.2262
L41.3678 -19.1289
L41.0579 -19.0335
L40.7447 -18.9399
L40.4281 -18.8481
L40.108 -18.7583
L39.7845 -18.6704
L39.4573 -18.5846
L39.1265 -18.5008
L38.792 -18.4192
L38.4538 -18.3398
L38.1118 -18.2626
L37.766 -18.1878
L37.4163 -18.1153
L37.0628 -18.0454
L36.7053 -17.978
L36.3438 -17.9132
L35.9785 -17.8511
L35.6091 -17.7918
L35.2358 -17.7354
L34.8586 -17.6819
L34.4775 -17.6314
L34.0925 -17.584
L33.7036 -17.5398
L33.3111 -17.4988
L32.9148 -17.4611
L32.515 -17.4268
L32.1117 -17.3959
L31.705 -17.3684
L31.2952 -17.3444
L30.8824 -17.3239
L30.4668 -17.3069
L30.0486 -17.2934
L29.6281 -17.2834
L29.2055 -17.2766
L28.7813 -17.2732
L28.3557 -17.2728
L27.9291 -17.2754
L27.5021 -17.2807
L27.075 -17.2883
L26.6484 -17.298
L26.2229 -17.3093
L25.7992 -17.3218
L25.3779 -17.3347
L24.9598 -17.3474
L24.5459 -17.359
L24.1369 -17.3687
L23.7339 -17.3754
L23.338 -17.3779
L22.9503 -17.3748
L22.5721 -17.3647
L22.2044 -17.346
L21.8488 -17.3172
L21.5063 -17.2767
L21.1784 -17.2226
L20.8662 -17.1536
L20.5708 -17.0682
L20.2931 -16.9652
L20.034 -16.8439
L19.7939 -16.7035
L19.5733 -16.544
L19.3721 -16.3655
L19.1904 -16.1685
L19.0279 -15.9539
L18.8841 -15.7227
L18.7585 -15.476
L18.6507 -15.2153
L18.5598 -14.9419
L18.4853 -14.6572
L18.4266 -14.3625
L18.3831 -14.0591
L18.6839 -13.7484
L19.0816 -13.3637
L19.4844 -13.065
L19.8923 -12.7732
L20.3051 -12.4885
L20.7226 -12.2109
L21.1449 -11.9406
L21.5716 -11.6777
L22.0028 -11.4221
L22.4382 -11.1741
L22.8777 -10.9336
L23.3212 -10.7007
L23.7686 -10.4755
L24.2197 -10.2581
L24.6744 -10.0486
L25.1326 -9.84695
L25.5941 -9.65328
L26.0587 -9.46763
L26.5264 -9.29006
L26.9969 -9.12063
L27.4702 -8.95939
L27.9461 -8.80638
L28.4245 -8.66166
L28.9051 -8.52526
L29.3879 -8.39723
L29.8728 -8.27762
L30.3595 -8.16644
L30.8479 -8.06375
L31.3379 -7.96956
L31.8293 -7.88391
L32.3219 -7.80683
L32.8157 -7.73833
L33.3105 -7.67845
L33.8061 -7.62719
L34.3023 -7.58457
L34.7991 -7.55061
L35.2962 -7.52531
L35.7936 -7.50869
L36.291 -7.50075
L36.7883 -7.50149
L37.2854 -7.5109
L37.7821 -7.529
L38.2782 -7.55577
L38.7737 -7.59121
L39.2683 -7.63529
L39.7619 -7.68802
L40.2544 -7.74937
L40.7456 -7.81933
L41.2353 -7.89787
L41.7234 -7.98497
L42.2098 -8.08061
L42.6943 -8.18475
L43.1768 -8.29736
L43.657 -8.41841
L44.135 -8.54786
L44.6104 -8.68568
L45.0833 -8.83181
L45.5533 -8.98622
L46.0205 -9.14886
L46.4846 -9.31968
L46.9455 -9.49863
L47.4031 -9.68565
L47.8572 -9.88068
L48.3077 -10.0837
L48.7545 -10.2946
L49.1973 -10.5133
L49.6362 -10.7397
L50.0709 -10.9739
L50.5013 -11.2157
L50.9272 -11.4651
L51.3487 -11.7219
L51.7655 -11.9861
L52.1774 -12.2576
L52.5844 -12.5364
L52.9864 -12.8223
L53.3832 -13.1153
L53.7747 -13.4152
L54.1608 -13.722
L54.5414 -14.0356
L54.9163 -14.3559
L55.2855 -14.6828
L55.6488 -15.0162
L56.0061 -15.356
L56.3573 -15.702
L56.7023 -16.0543
L57.041 -16.4126
L57.3732 -16.7769
L57.699 -17.147
L58.0182 -17.5229
L58.3306 -17.9044
L58.6363 -18.2914
L58.935 -18.6839
L59.2268 -19.0816
L59.5115 -19.4844
L59.7891 -19.8923
L60.0594 -20.3051
L60.3223 -20.7226
L60.5779 -21.1449
L60.8259 -21.5716
L61.0664 -22.0028
L61.2993 -22.4382
L61.5245 -22.8777
L61.7419 -23.3212
L61.9514 -23.7686
L62.153 -24.2197
L62.3467 -24.6744
L62.5324 -25.1326
L62.7099 -25.5941
L62.8794 -26.0587
L63.0406 -26.5264
L63.1936 -26.9969
L63.3383 -27.4702
L63.4747 -27.9461
L63.6028 -28.4245
L63.7224 -28.9051
L63.8336 -29.3879
L63.9363 -29.8728
L64.0304 -30.3595
L64.1161 -30.8479
L64.1932 -31.3379
L64.2617 -31.8293
L64.3216 -32.3219
L64.3728 -32.8157
L64.4154 -33.3105
L64.4494 -33.8061
L64.4747 -34.3023
L64.4913 -34.7991
L64.4993 -35.2962
L64.4985 -35.7936
L64.4891 -36.291
L64.471 -36.7883
L64.4442 -37.2854
L64.4088 -37.7821
L64.3647 -38.2782
L64.312 -38.7737
L64.2506 -39.2683
L64.1807 -39.7619
z
" id="C0_2_50fead06df"/>
    </defs>
    <g clip-path="url(#p1bffca34e9)">
     <use style="fill:#ffffff;stroke:#000000;stroke-width:2.0;" x="0.0" xlink:href="#C0_0_a811fe30f3" y="72.0"/>
    </g>
    <g clip-path="url(#p1bffca34e9)">
     <use style="fill:#ff0000;stroke:#000000;stroke-width:2.0;" x="0.0" xlink:href="#C0_1_996fdb2611" y="72.0"/>
    </g>
    <g clip-path="url(#p1bffca34e9)">
     <use style="fill:#ff0000;stroke:#000000;stroke-width:2.0;" x="0.0" xlink:href="#C0_2_50fead06df" y="72.0"/>
    </g>
   </g>
  </g>
 </g>
 <defs>
  <clipPath id="p1bffca34e9">
   <rect height="72.0" width="72.0" x="0.0" y="0.0"/>
  </clipPath>
 </defs>
</svg>
