<?xml version="1.0" encoding="utf-8" standalone="no"?>
<!DOCTYPE svg PUBLIC "-//W3C//DTD SVG 1.1//EN"
  "http://www.w3.org/Graphics/SVG/1.1/DTD/svg11.dtd">
<!-- Created with matplotlib (http://matplotlib.org/) -->
<svg height="72pt" version="1.1" viewBox="0 0 72 72" width="72pt" xmlns="http://www.w3.org/2000/svg" xmlns:xlink="http://www.w3.org/1999/xlink">
 <defs>
  <style type="text/css">
*{stroke-linecap:butt;stroke-linejoin:round;}
  </style>
 </defs>
 <g id="figure_1">
  <g id="patch_1">
   <path d="
M0 72
L72 72
L72 0
L0 0
z
" style="fill:none;"/>
  </g>
  <g id="axes_1">
   <g id="PatchCollection_1">
    <defs>
     <path d="
M36 -7.5
C43.5583 -7.5 50.808 -10.5029 56.1525 -15.8475
C61.4971 -21.192 64.5 -28.4417 64.5 -36
C64.5 -43.5583 61.4971 -50.808 56.1525 -56.1525
C50.808 -61.4971 43.5583 -64.5 36 -64.5
C28.4417 -64.5 21.192 -61.4971 15.8475 -56.1525
C10.5029 -50.808 7.5 -43.5583 7.5 -36
C7.5 -28.4417 10.5029 -21.192 15.8475 -15.8475
C21.192 -10.5029 28.4417 -7.5 36 -7.5
z
" id="C0_0_a811fe30f3"/>
     <path d="
M31.2661 -64.0805
L31.2116 -63.8346
L31.1472 -63.5854
L31.0736 -63.3328
L30.9917 -63.0772
L30.9021 -62.8187
L30.8056 -62.5575
L30.703 -62.2937
L30.5949 -62.0275
L30.4818 -61.759
L30.3645 -61.4885
L30.2435 -61.216
L30.1193 -60.9417
L29.9923 -60.6658
L29.8632 -60.3883
L29.7322 -60.1095
L29.5997 -59.8294
L29.4661 -59.5483
L29.3318 -59.2662
L29.197 -58.9832
L29.062 -58.6995
L28.9271 -58.4151
L28.7924 -58.1303
L28.6582 -57.845
L28.5247 -57.5594
L28.3919 -57.2736
L28.2601 -56.9877
L28.1294 -56.7017
L27.9999 -56.4158
L27.8717 -56.13
L27.7449 -55.8443
L27.6195 -55.5589
L27.4956 -55.2737
L27.3733 -54.9889
L27.2527 -54.7045
L27.1337 -54.4205
L27.0164 -54.137
L26.9008 -53.854
L26.787 -53.5715
L26.6749 -53.2896
L26.5646 -53.0082
L26.456 -52.7275
L26.3492 -52.4474
L26.2442 -52.1679
L26.141 -51.889
L26.0395 -51.6108
L25.9397 -51.3332
L25.8417 -51.0563
L25.7454 -50.78
L25.6508 -50.5043
L25.5579 -50.2292
L25.4667 -49.9548
L25.3771 -49.681
L25.2892 -49.4077
L25.2029 -49.135
L25.1181 -48.8628
L25.035 -48.5912
L24.9534 -48.3201
L24.8733 -48.0494
L24.7948 -47.7792
L24.7177 -47.5094
L24.6421 -47.24
L24.5679 -46.971
L24.4952 -46.7023
L24.4239 -46.4339
L24.354 -46.1658
L24.2854 -45.898
L24.2182 -45.6303
L24.1523 -45.3628
L24.0878 -45.0954
L24.0245 -44.8281
L23.9625 -44.5609
L23.9018 -44.2937
L23.8423 -44.0265
L23.7841 -43.7592
L23.7271 -43.4918
L23.6713 -43.2243
L23.6167 -42.9565
L23.5633 -42.6886
L23.4599 -42.4204
L23.41 -42.1519
L23.3612 -41.883
L23.3136 -41.6138
L23.2671 -41.3441
L23.2217 -41.0739
L23.1774 -40.8032
L23.1342 -40.532
L23.0921 -40.2601
L23.0511 -39.9876
L23.0113 -39.7144
L22.9725 -39.4404
L22.9348 -39.1657
L22.8982 -38.8901
L22.8627 -38.6137
L22.8283 -38.3364
L22.795 -38.0581
L22.7628 -37.7788
L22.7316 -37.4985
L22.7016 -37.2171
L22.6727 -36.9345
L22.6449 -36.6508
L22.6182 -36.366
L22.5926 -36.0798
L22.5681 -35.7924
L22.5448 -35.5037
L22.5226 -35.2137
L22.5015 -34.9222
L22.4816 -34.6294
L22.4628 -34.3351
L22.4452 -34.0393
L22.4288 -33.742
L22.4135 -33.4432
L22.3994 -33.1429
L22.3865 -32.8409
L22.3748 -32.5374
L22.3643 -32.2322
L22.355 -31.9254
L22.3468 -31.617
L22.3399 -31.307
L22.3342 -30.9952
L22.3297 -30.6819
L22.3263 -30.3668
L22.3242 -30.0502
L22.3233 -29.7319
L22.3235 -29.412
L22.3248 -29.0905
L22.3273 -28.7675
L22.3309 -28.4429
L22.3356 -28.1169
L22.3413 -27.7894
L22.348 -27.4605
L22.3557 -27.1303
L22.3643 -26.7989
L22.3737 -26.4663
L22.3839 -26.1327
L22.3947 -25.798
L22.4061 -25.4625
L22.418 -25.1262
L22.4303 -24.7893
L22.4428 -24.4519
L22.4554 -24.1141
L22.4679 -23.7762
L22.4802 -23.4382
L22.492 -23.1005
L22.5031 -22.7631
L22.5133 -22.4263
L22.5223 -22.0903
L22.5298 -21.7554
L22.5356 -21.4218
L22.5393 -21.0898
L22.5405 -20.7597
L22.5389 -20.4317
L22.5341 -20.1062
L22.5256 -19.7835
L22.513 -19.464
L22.4958 -19.148
L22.4735 -18.8358
L22.4457 -18.5278
L22.4118 -18.2244
L22.3713 -17.9261
L22.3236 -17.6331
L22.2684 -17.3459
L22.2049 -17.0649
L22.1329 -16.7906
L22.0517 -16.5232
L21.961 -16.2631
L21.8604 -16.0109
L21.7495 -15.7668
L21.628 -15.5311
L21.4957 -15.3043
L21.3525 -15.0867
L21.1981 -14.8785
L21.0325 -14.6801
L20.8557 -14.4917
L20.6679 -14.3135
L20.4691 -14.1458
L20.2596 -13.9888
L20.0396 -13.8425
L19.8093 -13.7072
L19.5691 -13.583
L19.3195 -13.4699
L19.0607 -13.3681
L18.5698 -13.2777
L18.179 -13.4514
L17.7935 -13.759
L17.4136 -14.0734
L17.0394 -14.3945
L16.6709 -14.7222
L16.3083 -15.0563
L15.9518 -15.3969
L15.6013 -15.7437
L15.257 -16.0967
L14.9191 -16.4557
L14.5876 -16.8207
L14.2626 -17.1915
L13.9442 -17.5681
L13.6326 -17.9503
L13.3277 -18.3379
L13.0298 -18.731
L12.7389 -19.1293
L12.455 -19.5328
L12.1783 -19.9412
L11.9089 -20.3546
L11.6468 -20.7727
L11.3922 -21.1955
L11.145 -21.6228
L10.9054 -22.0544
L10.6735 -22.4903
L10.4492 -22.9303
L10.2328 -23.3743
L10.0242 -23.8222
L9.82346 -24.2737
L9.63073 -24.7289
L9.44604 -25.1874
L9.26944 -25.6493
L9.10099 -26.1143
L8.94072 -26.5823
L8.7887 -27.0532
L8.64497 -27.5268
L8.50956 -28.003
L8.38254 -28.4816
L8.26392 -28.9625
L8.15376 -29.4456
L8.05207 -29.9307
L7.9589 -30.4176
L7.87428 -30.9062
L7.79821 -31.3963
L7.73074 -31.8879
L7.67188 -32.3807
L7.62165 -32.8746
L7.58007 -33.3695
L7.54714 -33.8652
L7.52288 -34.3615
L7.50729 -34.8583
L7.50038 -35.3555
L7.50215 -35.8529
L7.51261 -36.3503
L7.53174 -36.8476
L7.55954 -37.3446
L7.596 -37.8412
L7.64112 -38.3373
L7.69488 -38.8327
L7.75726 -39.3272
L7.82824 -39.8207
L7.9078 -40.313
L7.99592 -40.804
L8.09257 -41.2935
L8.19772 -41.7815
L8.31134 -42.2676
L8.4334 -42.7519
L8.56385 -43.2341
L8.70266 -43.7141
L8.84978 -44.1918
L9.00517 -44.6669
L9.16879 -45.1394
L9.34058 -45.6092
L9.52049 -46.076
L9.70847 -46.5397
L9.90445 -47.0002
L10.1084 -47.4574
L10.3202 -47.9111
L10.5399 -48.3612
L10.7672 -48.8074
L11.0023 -49.2498
L11.245 -49.6882
L11.4953 -50.1224
L11.753 -50.5523
L12.0181 -50.9777
L12.2905 -51.3986
L12.5701 -51.8148
L12.8568 -52.2262
L13.1506 -52.6326
L13.4514 -53.034
L13.759 -53.4302
L14.0734 -53.821
L14.3945 -54.2065
L14.7222 -54.5864
L15.0563 -54.9606
L15.3969 -55.3291
L15.7437 -55.6917
L16.0967 -56.0482
L16.4557 -56.3987
L16.8207 -56.743
L17.1915 -57.0809
L17.5681 -57.4124
L17.9503 -57.7374
L18.3379 -58.0558
L18.731 -58.3674
L19.1293 -58.6723
L19.5328 -58.9702
L19.9412 -59.2611
L20.3546 -59.545
L20.7727 -59.8217
L21.1955 -60.0911
L21.6228 -60.3532
L22.0544 -60.6078
L22.4903 -60.855
L22.9303 -61.0946
L23.3743 -61.3265
L23.8222 -61.5508
L24.2737 -61.7672
L24.7289 -61.9758
L25.1874 -62.1765
L25.6493 -62.3693
L26.1143 -62.554
L26.5823 -62.7306
L27.0532 -62.899
L27.5268 -63.0593
L28.003 -63.2113
L28.4816 -63.355
L28.9625 -63.4904
L29.4456 -63.6175
L29.9307 -63.7361
L30.4176 -63.8462
z
" id="C0_1_90c7100f21"/>
     <path d="
M53.1279 -58.697
L53.1333 -58.4124
L53.1435 -58.1223
L53.158 -57.8272
L53.1761 -57.5274
L53.1974 -57.2233
L53.2213 -56.9154
L53.2473 -56.6041
L53.275 -56.2897
L53.3039 -55.9725
L53.3336 -55.653
L53.3639 -55.3313
L53.3944 -55.0078
L53.4248 -54.6828
L53.4548 -54.3565
L53.4842 -54.0293
L53.5128 -53.7012
L53.5404 -53.3726
L53.5669 -53.0437
L53.592 -52.7146
L53.6158 -52.3855
L53.638 -52.0565
L53.6586 -51.7279
L53.6774 -51.3998
L53.6945 -51.0723
L53.7098 -50.7455
L53.7232 -50.4195
L53.7347 -50.0945
L53.7443 -49.7704
L53.7519 -49.4475
L53.7576 -49.1257
L53.7612 -48.8051
L53.7629 -48.4857
L53.7627 -48.1678
L53.7604 -47.8511
L53.7563 -47.5359
L53.7501 -47.2221
L53.7421 -46.9097
L53.7321 -46.5988
L53.7202 -46.2894
L53.7065 -45.9814
L53.6909 -45.6749
L53.6734 -45.37
L53.6542 -45.0665
L53.6331 -44.7645
L53.6103 -44.4639
L53.5858 -44.1648
L53.5595 -43.8671
L53.5315 -43.5709
L53.5019 -43.276
L53.4705 -42.9825
L53.4376 -42.6904
L53.403 -42.3996
L53.3668 -42.11
L53.329 -41.8217
L53.2897 -41.5347
L53.2487 -41.2488
L53.2063 -40.9641
L53.1623 -40.6805
L53.1168 -40.3979
L53.0698 -40.1164
L53.0213 -39.836
L52.9713 -39.5565
L52.9198 -39.2779
L52.8669 -39.0002
L52.8124 -38.7233
L52.7566 -38.4473
L52.6992 -38.172
L52.6404 -37.8974
L52.5802 -37.6235
L52.5184 -37.3502
L52.4553 -37.0776
L52.3906 -36.8054
L52.3245 -36.5338
L52.257 -36.2627
L52.1879 -35.9919
L52.1174 -35.7216
L52.0454 -35.4515
L51.9719 -35.1818
L51.8968 -34.9123
L51.8203 -34.643
L51.7422 -34.3739
L51.6626 -34.1049
L51.5814 -33.836
L51.4986 -33.5672
L51.4143 -33.2983
L51.3284 -33.0294
L51.2408 -32.7604
L51.1516 -32.4913
L51.0607 -32.222
L50.9681 -31.9525
L50.8739 -31.6828
L50.7779 -31.4129
L50.6802 -31.1426
L50.5807 -30.8719
L50.4794 -30.6009
L50.3763 -30.3295
L50.2713 -30.0577
L50.1645 -29.7853
L50.0558 -29.5125
L49.9452 -29.2391
L49.8326 -28.9651
L49.7181 -28.6906
L49.6015 -28.4154
L49.483 -28.1396
L49.3624 -27.8631
L49.2397 -27.5859
L49.1149 -27.3081
L48.988 -27.0295
L48.859 -26.7501
L48.7278 -26.47
L48.5944 -26.1892
L48.4588 -25.9075
L48.3209 -25.6251
L48.1809 -25.3419
L48.0385 -25.0579
L47.8939 -24.7731
L47.747 -24.4875
L47.5979 -24.2011
L47.4464 -23.914
L47.2927 -23.6261
L47.1367 -23.3375
L46.9785 -23.0481
L46.818 -22.758
L46.6552 -22.4673
L46.4903 -22.1759
L46.3233 -21.884
L46.1541 -21.5914
L45.9829 -21.2983
L45.8097 -21.0048
L45.6346 -20.7107
L45.4577 -20.4164
L45.279 -20.1216
L45.0988 -19.8267
L44.917 -19.5315
L44.734 -19.2362
L44.5497 -18.9408
L44.3645 -18.6455
L44.1784 -18.3502
L43.9918 -18.0551
L43.8048 -17.7603
L43.6177 -17.4658
L43.4309 -17.1718
L43.2445 -16.8782
L43.059 -16.5853
L42.8747 -16.2931
L42.692 -16.0017
L42.5114 -15.7112
L42.3332 -15.4216
L42.158 -15.1332
L41.9863 -14.8459
L41.8185 -14.5598
L41.6554 -14.2751
L41.4974 -13.9918
L41.3451 -13.71
L41.1992 -13.4298
L41.0604 -13.1513
L40.9292 -12.8746
L40.8064 -12.5997
L40.6925 -12.3267
L40.5883 -12.0557
L40.4944 -11.7868
L40.4113 -11.5201
L40.3397 -11.2558
L40.28 -10.9938
L40.2329 -10.7343
L40.1987 -10.4775
L40.1778 -10.2235
L40.1705 -9.97244
L40.1772 -9.72443
L40.198 -9.47968
L40.233 -9.23836
L40.2823 -9.00066
L40.3459 -8.76678
L40.4238 -8.53692
L40.5159 -8.3113
L41.1462 -8.09014
L41.6346 -7.96847
L42.1213 -8.06255
L42.6062 -8.16514
L43.089 -8.27621
L43.5697 -8.39573
L44.0481 -8.52366
L44.524 -8.65995
L44.9973 -8.80457
L45.4679 -8.95748
L45.9356 -9.11862
L46.4003 -9.28796
L46.8618 -9.46542
L47.32 -9.65098
L47.7748 -9.84455
L48.2259 -10.0461
L48.6734 -10.2555
L49.1169 -10.4728
L49.5565 -10.6979
L49.992 -10.9307
L50.4232 -11.1711
L50.85 -11.4191
L51.2723 -11.6745
L51.6899 -11.9374
L52.1027 -12.2076
L52.5107 -12.4851
L52.9136 -12.7697
L53.3113 -13.0614
L53.7038 -13.36
L54.0909 -13.6656
L54.4725 -13.978
L54.8484 -14.2971
L55.2187 -14.6228
L55.583 -14.955
L55.9414 -15.2936
L56.2937 -15.6385
L56.6399 -15.9896
L56.9797 -16.3469
L57.3132 -16.7101
L57.6402 -17.0792
L57.9605 -17.454
L58.2742 -17.8345
L58.5811 -18.2205
L58.8811 -18.612
L59.1742 -19.0087
L59.4602 -19.4106
L59.739 -19.8176
L60.0107 -20.2295
L60.275 -20.6462
L60.5319 -21.0676
L60.7813 -21.4935
L61.0232 -21.9239
L61.2575 -22.3585
L61.484 -22.7973
L61.7028 -23.2401
L61.9138 -23.6868
L62.1169 -24.1373
L62.312 -24.5913
L62.4991 -25.0489
L62.6782 -25.5098
L62.8491 -25.9738
L63.0119 -26.441
L63.1664 -26.911
L63.3126 -27.3838
L63.4505 -27.8592
L63.5801 -28.3371
L63.7012 -28.8174
L63.8139 -29.2998
L63.9182 -29.7843
L64.0139 -30.2707
L64.1011 -30.7588
L64.1798 -31.2485
L64.2498 -31.7396
L64.3113 -32.2321
L64.3641 -32.7257
L64.4083 -33.2203
L64.4439 -33.7157
L64.4707 -34.2119
L64.4889 -34.7086
L64.4985 -35.2056
L64.4993 -35.703
L64.4915 -36.2004
L64.4749 -36.6977
L64.4498 -37.1949
L64.4159 -37.6916
L64.3734 -38.1879
L64.3222 -38.6835
L64.2624 -39.1783
L64.1941 -39.6721
L64.1171 -40.1648
L64.0315 -40.6562
L63.9374 -41.1462
L63.8349 -41.6346
L63.7238 -42.1213
L63.6043 -42.6062
L63.4763 -43.089
L63.34 -43.5697
L63.1954 -44.0481
L63.0425 -44.524
L62.8814 -44.9973
L62.712 -45.4679
L62.5346 -45.9356
L62.349 -46.4003
L62.1554 -46.8618
L61.9539 -47.32
L61.7445 -47.7748
L61.5272 -48.2259
L61.3021 -48.6734
L61.0693 -49.1169
L60.8289 -49.5565
L60.5809 -49.992
L60.3255 -50.4232
L60.0626 -50.85
L59.7924 -51.2723
L59.5149 -51.6899
L59.2303 -52.1027
L58.9386 -52.5107
L58.64 -52.9136
L58.3344 -53.3113
L58.022 -53.7038
L57.7029 -54.0909
L57.3772 -54.4725
L57.045 -54.8484
L56.7064 -55.2187
L56.3615 -55.583
L56.0104 -55.9414
L55.6531 -56.2937
L55.2899 -56.6399
L54.9208 -56.9797
L54.546 -57.3132
L54.1655 -57.6402
L53.7795 -57.9605
z
" id="C0_2_41fea524c9"/>
    </defs>
    <g clip-path="url(#p1bffca34e9)">
     <use style="fill:#ffffff;stroke:#000000;stroke-width:2.0;" x="0.0" xlink:href="#C0_0_a811fe30f3" y="72.0"/>
    </g>
    <g clip-path="url(#p1bffca34e9)">
     <use style="fill:#ff0000;stroke:#000000;stroke-width:2.0;" x="0.0" xlink:href="#C0_1_90c7100f21" y="72.0"/>
    </g>
    <g clip-path="url(#p1bffca34e9)">
     <use style="fill:#ff0000;stroke:#000000;stroke-width:2.0;" x="0.0" xlink:href="#C0_2_41fea524c9" y="72.0"/>
    </g>
   </g>
  </g>
 </g>
 <defs>
  <clipPath id="p1bffca34e9">
   <rect height="72.0" width="72.0" x="0.0" y="0.0"/>
  </clipPath>
 </defs>
</svg>
