<?xml version="1.0" encoding="utf-8" standalone="no"?>
<!DOCTYPE svg PUBLIC "-//W3C//DTD SVG 1.1//EN"
  "http://www.w3.org/Graphics/SVG/1.1/DTD/svg11.dtd">
<!-- Created with matplotlib (http://matplotlib.org/) -->
<svg height="72pt" version="1.1" viewBox="0 0 72 72" width="72pt" xmlns="http://www.w3.org/2000/svg" xmlns:xlink="http://www.w3.org/1999/xlink">
 <defs>
  <style type="text/css">
*{stroke-linecap:butt;stroke-linejoin:round;}
  </style>
 </defs>
 <g id="figure_1">
  <g id="patch_1">
   <path d="
M0 72
L72 72
L72 0
L0 0
z
" style="fill:none;"/>
  </g>
  <g id="axes_1">
   <g id="PatchCollection_1">
    <defs>
     <path d="
M36 -7.5
C43.5583 -7.5 50.808 -10.5029 56.1525 -15.8475
C61.4971 -21.192 64.5 -28.4417 64.5 -36
C64.5 -43.5583 61.4971 -50.808 56.1525 -56.1525
C50.808 -61.4971 43.5583 -64.5 36 -64.5
C28.4417 -64.5 21.192 -61.4971 15.8475 -56.1525
C10.5029 -50.808 7.5 -43.5583 7.5 -36
C7.5 -28.4417 10.5029 -21.192 15.8475 -15.8475
C21.192 -10.5029 28.4417 -7.5 36 -7.5
z
" id="C0_0_a811fe30f3"/>
     <path d="
M63.4024 -28.853
L63.2282 -28.9125
L63.0531 -28.9715
L62.8773 -29.0302
L62.7006 -29.0885
L62.5229 -29.1466
L62.3444 -29.2043
L62.1649 -29.2617
L61.9844 -29.3189
L61.8029 -29.3759
L61.4367 -29.4327
L61.252 -29.4893
L61.0661 -29.5457
L60.8789 -29.6019
L60.6906 -29.6581
L60.5009 -29.7141
L60.3099 -29.77
L60.1175 -29.8258
L59.9238 -29.8816
L59.7285 -29.9373
L59.5318 -29.993
L59.3335 -30.0487
L59.1336 -30.1044
L58.932 -30.1601
L58.7287 -30.2158
L58.5236 -30.2715
L58.3168 -30.3273
L58.108 -30.3832
L57.8973 -30.4392
L57.6847 -30.4952
L57.47 -30.5514
L57.2532 -30.6076
L57.0342 -30.664
L56.813 -30.7206
L56.5895 -30.7772
L56.3637 -30.8341
L56.1355 -30.891
L55.9048 -30.9482
L55.6716 -31.0056
L55.4357 -31.0631
L55.1973 -31.1208
L54.956 -31.1787
L54.712 -31.2368
L54.4652 -31.2951
L54.2154 -31.3536
L53.9626 -31.4123
L53.7068 -31.4713
L53.4479 -31.5304
L53.1857 -31.5897
L52.9204 -31.6492
L52.6518 -31.7089
L52.3798 -31.7688
L52.1044 -31.8288
L51.8255 -31.8889
L51.5431 -31.9492
L51.2572 -32.0096
L50.9676 -32.0701
L50.6744 -32.1307
L50.3775 -32.1912
L50.0769 -32.2518
L49.7726 -32.3123
L49.4645 -32.3727
L49.1526 -32.4329
L48.837 -32.493
L48.5175 -32.5528
L48.1943 -32.6122
L47.8674 -32.6713
L47.5367 -32.7298
L47.2023 -32.7877
L46.8644 -32.8449
L46.5229 -32.9012
L46.1779 -32.9566
L45.8296 -33.0109
L45.4781 -33.0638
L45.1234 -33.1153
L44.7658 -33.1652
L44.4054 -33.2131
L44.0425 -33.2589
L43.6773 -33.3023
L43.31 -33.343
L42.9409 -33.3806
L42.5704 -33.4148
L42.1987 -33.4453
L41.8263 -33.4715
L41.4536 -33.493
L41.081 -33.5093
L40.7091 -33.5198
L40.3383 -33.5239
L39.9692 -33.5209
L39.6025 -33.5102
L39.2388 -33.491
L38.8787 -33.4626
L38.5228 -33.424
L38.172 -33.3746
L37.8268 -33.3135
L37.488 -33.2399
L37.1561 -33.153
L36.8318 -33.0522
L36.5156 -32.9368
L36.208 -32.8065
L35.9092 -32.6608
L35.6197 -32.4996
L35.3395 -32.3229
L35.0687 -32.1309
L34.8073 -31.924
L34.5552 -31.7027
L34.3122 -31.4677
L34.0781 -31.2197
L33.8525 -30.9596
L33.6351 -30.6884
L33.4257 -30.407
L33.2238 -30.1165
L33.0291 -29.8178
L32.8412 -29.5119
L32.6599 -29.1997
L32.4849 -28.8822
L32.3157 -28.56
L32.1522 -28.2341
L31.9941 -27.9052
L31.8412 -27.5739
L31.6932 -27.2409
L31.5499 -26.9067
L31.4111 -26.5718
L31.2767 -26.2368
L31.1464 -25.902
L31.0202 -25.5679
L30.8979 -25.2347
L30.7793 -24.9029
L30.6643 -24.5726
L30.5528 -24.2441
L30.4448 -23.9177
L30.3399 -23.5936
L30.2383 -23.2719
L30.1397 -22.9527
L30.0442 -22.6362
L29.9515 -22.3226
L29.8616 -22.0118
L29.7745 -21.704
L29.6901 -21.3992
L29.6082 -21.0975
L29.5288 -20.799
L29.4519 -20.5036
L29.3774 -20.2113
L29.3052 -19.9222
L29.2352 -19.6364
L29.1675 -19.3536
L29.1019 -19.0741
L29.0384 -18.7976
L28.9769 -18.5243
L28.9174 -18.254
L28.8598 -17.9868
L28.8041 -17.7226
L28.7503 -17.4614
L28.6983 -17.2031
L28.648 -16.9476
L28.5994 -16.695
L28.5526 -16.4452
L28.5074 -16.1981
L28.4638 -15.9536
L28.4217 -15.7118
L28.3813 -15.4725
L28.3423 -15.2357
L28.3048 -15.0014
L28.2688 -14.7694
L28.2343 -14.5398
L28.2011 -14.3125
L28.1694 -14.0873
L28.139 -13.8643
L28.11 -13.6434
L28.0823 -13.4246
L28.056 -13.2077
L28.0309 -12.9927
L28.0071 -12.7796
L27.9847 -12.5683
L27.9635 -12.3588
L27.9435 -12.1509
L27.9248 -11.9447
L27.9074 -11.7401
L27.8912 -11.5371
L27.8762 -11.3355
L27.8625 -11.1353
L27.85 -10.9366
L27.8388 -10.7391
L27.8288 -10.543
L27.82 -10.3481
L27.8125 -10.1543
L27.8063 -9.96174
L27.8014 -9.77024
L27.7977 -9.57979
L27.7953 -9.39034
L27.7943 -9.20184
L27.7946 -9.01426
L28.2385 -8.82756
L28.7183 -8.5772
L29.2003 -8.44592
L29.6844 -8.32304
L30.1704 -8.20858
L30.6581 -8.10259
L31.1475 -8.0051
L31.6384 -7.91613
L32.1306 -7.83572
L32.624 -7.76389
L33.1184 -7.70066
L33.6137 -7.64605
L34.1097 -7.60008
L34.6063 -7.56276
L35.1033 -7.5341
L35.6006 -7.51411
L36.098 -7.5028
L36.5953 -7.50017
L37.0925 -7.50622
L37.5894 -7.52095
L38.0858 -7.54435
L38.5815 -7.57643
L39.0765 -7.61716
L39.5705 -7.66653
L40.0634 -7.72454
L40.5551 -7.79116
L41.0454 -7.86637
L41.5342 -7.95016
L42.0213 -8.04248
L42.5065 -8.14333
L42.9898 -8.25265
L43.4709 -8.37043
L43.9498 -8.49663
L44.4262 -8.63121
L44.9001 -8.77412
L45.3713 -8.92532
L45.8396 -9.08477
L46.3049 -9.25242
L46.7671 -9.42822
L47.2259 -9.61211
L47.6814 -9.80404
L48.1333 -10.004
L48.5816 -10.2118
L49.0259 -10.4275
L49.4664 -10.6509
L49.9027 -10.8821
L50.3348 -11.121
L50.7625 -11.3674
L51.1857 -11.6213
L51.6043 -11.8827
L52.0181 -12.1514
L52.4271 -12.4273
L52.831 -12.7105
L53.2299 -13.0007
L53.6234 -13.298
L54.0117 -13.6021
L54.3944 -13.9131
L54.7715 -14.2308
L55.1429 -14.5552
L55.5085 -14.886
L55.8681 -15.2234
L56.2217 -15.567
L56.5691 -15.9168
L56.9103 -16.2728
L57.2451 -16.6348
L57.5734 -17.0027
L57.8951 -17.3764
L58.2102 -17.7557
L58.5185 -18.1406
L58.8199 -18.5309
L59.1144 -18.9266
L59.4019 -19.3275
L59.6822 -19.7334
L59.9553 -20.1443
L60.2211 -20.56
L60.4796 -20.9805
L60.7306 -21.4055
L60.974 -21.8349
L61.2098 -22.2687
L61.438 -22.7066
L61.6584 -23.1486
L61.871 -23.5945
L62.0757 -24.0442
L62.2725 -24.4976
L62.4613 -24.9544
L62.642 -25.4146
L62.8146 -25.878
L62.979 -26.3445
L63.1352 -26.814
L63.2832 -27.2862
L63.4228 -27.7611
z
" id="C0_1_050b482835"/>
     <path d="
M44.1682 -63.2397
L44.0642 -63.0846
L43.96 -62.9283
L43.8557 -62.7705
L43.7513 -62.6113
L43.6466 -62.4507
L43.5417 -62.2887
L43.4366 -62.1251
L43.3311 -61.9599
L43.2254 -61.7932
L43.1193 -61.6248
L43.0128 -61.4547
L42.906 -61.2829
L42.7987 -61.1093
L42.6909 -60.9339
L42.5826 -60.7567
L42.4739 -60.5775
L42.3646 -60.3964
L42.2547 -60.2132
L42.1441 -60.028
L42.033 -59.8406
L41.9212 -59.6511
L41.8086 -59.4593
L41.6954 -59.2653
L41.5813 -59.0689
L41.4665 -58.8701
L41.3508 -58.6689
L41.2343 -58.4652
L41.1169 -58.2589
L40.9985 -58.05
L40.8792 -57.8384
L40.7589 -57.624
L40.6375 -57.4069
L40.5151 -57.1869
L40.3916 -56.9641
L40.267 -56.7382
L40.1412 -56.5094
L40.0142 -56.2774
L39.8859 -56.0424
L39.7564 -55.8042
L39.6256 -55.5628
L39.4934 -55.3181
L39.3598 -55.0702
L39.2248 -54.8189
L39.0884 -54.5642
L38.9505 -54.3062
L38.811 -54.0447
L38.67 -53.7799
L38.5274 -53.5115
L38.3831 -53.2398
L38.2371 -52.9646
L38.0894 -52.6859
L37.9399 -52.4039
L37.7886 -52.1186
L37.6355 -51.8299
L37.4804 -51.538
L37.3234 -51.2429
L37.1643 -50.9447
L37.0032 -50.6436
L36.8399 -50.3396
L36.6745 -50.033
L36.5068 -49.7238
L36.3367 -49.4124
L36.1642 -49.0989
L35.9892 -48.7836
L35.8116 -48.4668
L35.6313 -48.1488
L35.4481 -47.83
L35.2619 -47.5108
L35.0726 -47.1917
L34.88 -46.8731
L34.684 -46.5556
L34.4842 -46.2398
L34.2805 -45.9264
L34.0727 -45.6161
L33.8604 -45.3096
L33.6434 -45.0078
L33.4214 -44.7116
L33.1941 -44.4218
L32.961 -44.1395
L32.7219 -43.8655
L32.4764 -43.601
L32.2241 -43.3468
L31.9648 -43.1039
L31.6982 -42.8732
L31.424 -42.6554
L31.1421 -42.4513
L30.8524 -42.2613
L30.5548 -42.0859
L30.2496 -41.9252
L29.9369 -41.7792
L29.617 -41.6478
L29.2903 -41.5307
L28.9572 -41.4274
L28.6183 -41.3374
L28.2741 -41.2599
L27.9253 -41.1943
L27.5725 -41.1396
L27.2163 -41.0953
L26.8574 -41.0603
L26.4963 -41.034
L26.1336 -41.0156
L25.77 -41.0044
L25.4059 -40.9996
L25.0418 -41.0007
L24.6782 -41.007
L24.3156 -41.0181
L23.9542 -41.0333
L23.5945 -41.0523
L23.2368 -41.0746
L22.8814 -41.0998
L22.5284 -41.1277
L22.1783 -41.1578
L21.8311 -41.1899
L21.4871 -41.2238
L21.1465 -41.2593
L20.8092 -41.296
L20.4756 -41.3338
L20.1456 -41.3726
L19.8194 -41.4123
L19.497 -41.4526
L19.1785 -41.4934
L18.864 -41.5347
L18.5534 -41.5763
L18.2467 -41.6182
L17.9441 -41.6603
L17.6454 -41.7024
L17.3507 -41.7447
L17.0599 -41.7869
L16.7731 -41.8291
L16.4902 -41.8711
L16.2111 -41.9131
L15.9358 -41.9549
L15.6644 -41.9964
L15.3966 -42.0378
L15.1325 -42.0789
L14.8721 -42.1198
L14.6152 -42.1603
L14.3618 -42.2006
L14.1119 -42.2406
L13.8653 -42.2803
L13.6221 -42.3197
L13.3821 -42.3588
L13.1453 -42.3975
L12.9116 -42.4359
L12.6809 -42.474
L12.4533 -42.5118
L12.2285 -42.5492
L12.0066 -42.5863
L11.7875 -42.6231
L11.5712 -42.6596
L11.3574 -42.6958
L11.1463 -42.7317
L10.9377 -42.7673
L10.7315 -42.8025
L10.5278 -42.8375
L10.3263 -42.8723
L10.1272 -42.9067
L9.93029 -42.9409
L9.73553 -42.9748
L9.54288 -43.0085
L9.35227 -43.0419
L9.16365 -43.0752
L8.97696 -43.1081
L8.79216 -43.1409
L8.60919 -43.1735
L8.55609 -43.2058
L8.69442 -43.6865
L8.84106 -44.1643
L8.99598 -44.6396
L9.15912 -45.1122
L9.33044 -45.5821
L9.50988 -46.0491
L9.6974 -46.513
L9.89292 -46.9737
L10.0964 -47.4311
L10.3078 -47.885
L10.527 -48.3353
L10.7539 -48.7818
L10.9886 -49.2244
L11.2308 -49.663
L11.4806 -50.0974
L11.7379 -50.5276
L12.0026 -50.9533
L12.2745 -51.3744
L12.5537 -51.7909
L12.8401 -52.2026
L13.1335 -52.6093
L13.4338 -53.011
L13.7411 -53.4074
L14.0551 -53.7986
L14.3758 -54.1844
L14.7031 -54.5646
L15.0369 -54.9392
L15.377 -55.308
L15.7235 -55.6709
L16.0761 -56.0278
L16.4348 -56.3786
L16.7994 -56.7232
L17.1699 -57.0615
L17.5462 -57.3934
L17.928 -57.7188
L18.3154 -58.0376
L18.7081 -58.3496
L19.1062 -58.6548
L19.5093 -58.9532
L19.9175 -59.2445
L20.3306 -59.5288
L20.7484 -59.8059
L21.171 -60.0757
L21.598 -60.3382
L22.0294 -60.5933
L22.465 -60.8409
L22.9048 -61.081
L23.3486 -61.3134
L23.7962 -61.538
L24.2476 -61.755
L24.7025 -61.964
L25.1609 -62.1652
L25.6225 -62.3584
L26.0874 -62.5435
L26.5552 -62.7206
L27.0259 -62.8895
L27.4994 -63.0503
L27.9754 -63.2027
L28.4539 -63.347
L28.9347 -63.4828
L29.4177 -63.6104
L29.9026 -63.7295
L30.3894 -63.8401
L30.8779 -63.9423
L31.368 -64.0359
L31.8595 -64.1211
L32.3522 -64.1976
L32.8461 -64.2656
L33.3409 -64.325
L33.8365 -64.3757
L34.3328 -64.4178
L34.8296 -64.4512
L35.3268 -64.476
L35.8241 -64.492
L36.3215 -64.4995
L36.8189 -64.4982
L37.3159 -64.4882
L37.8126 -64.4696
L38.3087 -64.4423
L38.8041 -64.4063
L39.2987 -64.3617
L39.7922 -64.3085
L40.2846 -64.2466
L40.7757 -64.1761
L41.2653 -64.097
L41.7534 -64.0094
L42.2396 -63.9132
L42.724 -63.8086
L43.2063 -63.6954
L43.6865 -63.5739
z
" id="C0_2_d9a3236055"/>
    </defs>
    <g clip-path="url(#p1bffca34e9)">
     <use style="fill:#ffffff;stroke:#000000;stroke-width:2.0;" x="0.0" xlink:href="#C0_0_a811fe30f3" y="72.0"/>
    </g>
    <g clip-path="url(#p1bffca34e9)">
     <use style="fill:#ff0000;stroke:#000000;stroke-width:2.0;" x="0.0" xlink:href="#C0_1_050b482835" y="72.0"/>
    </g>
    <g clip-path="url(#p1bffca34e9)">
     <use style="fill:#ff0000;stroke:#000000;stroke-width:2.0;" x="0.0" xlink:href="#C0_2_d9a3236055" y="72.0"/>
    </g>
   </g>
  </g>
 </g>
 <defs>
  <clipPath id="p1bffca34e9">
   <rect height="72.0" width="72.0" x="0.0" y="0.0"/>
  </clipPath>
 </defs>
</svg>
