<?xml version="1.0" encoding="utf-8" standalone="no"?>
<!DOCTYPE svg PUBLIC "-//W3C//DTD SVG 1.1//EN"
  "http://www.w3.org/Graphics/SVG/1.1/DTD/svg11.dtd">
<!-- Created with matplotlib (http://matplotlib.org/) -->
<svg height="72pt" version="1.1" viewBox="0 0 72 72" width="72pt" xmlns="http://www.w3.org/2000/svg" xmlns:xlink="http://www.w3.org/1999/xlink">
 <defs>
  <style type="text/css">
*{stroke-linecap:butt;stroke-linejoin:round;}
  </style>
 </defs>
 <g id="figure_1">
  <g id="patch_1">
   <path d="
M0 72
L72 72
L72 0
L0 0
z
" style="fill:none;"/>
  </g>
  <g id="axes_1">
   <g id="PatchCollection_1">
    <defs>
     <path d="
M36 -7.5
C43.5583 -7.5 50.808 -10.5029 56.1525 -15.8475
C61.4971 -21.192 64.5 -28.4417 64.5 -36
C64.5 -43.5583 61.4971 -50.808 56.1525 -56.1525
C50.808 -61.4971 43.5583 -64.5 36 -64.5
C28.4417 -64.5 21.192 -61.4971 15.8475 -56.1525
C10.5029 -50.808 7.5 -43.5583 7.5 -36
C7.5 -28.4417 10.5029 -21.192 15.8475 -15.8475
C21.192 -10.5029 28.4417 -7.5 36 -7.5
z
" id="C0_0_a811fe30f3"/>
     <path d="
M49.555 -60.9319
L49.2253 -60.8818
L48.9134 -60.8107
L48.6196 -60.7191
L48.3437 -60.6077
L48.0857 -60.4772
L47.8449 -60.3288
L47.6209 -60.1632
L47.4128 -59.9817
L47.2197 -59.7852
L47.0407 -59.575
L46.8747 -59.3521
L46.7206 -59.1175
L46.5775 -58.8723
L46.4444 -58.6176
L46.3202 -58.3542
L46.2042 -58.083
L46.0954 -57.8049
L45.9931 -57.5207
L45.8966 -57.231
L45.8052 -56.9366
L45.7183 -56.638
L45.6355 -56.3359
L45.5562 -56.0307
L45.48 -55.723
L45.4066 -55.4131
L45.3356 -55.1015
L45.2666 -54.7886
L45.1996 -54.4747
L45.1341 -54.1601
L45.0701 -53.8451
L45.0073 -53.5299
L44.9456 -53.2148
L44.8848 -52.9
L44.8248 -52.5857
L44.7655 -52.272
L44.7068 -51.9592
L44.6487 -51.6473
L44.591 -51.3365
L44.5336 -51.0269
L44.4766 -50.7186
L44.4199 -50.4117
L44.3635 -50.1063
L44.3072 -49.8023
L44.2511 -49.4999
L44.1951 -49.1992
L44.1392 -48.9001
L44.0835 -48.6027
L44.0278 -48.307
L43.9722 -48.013
L43.9166 -47.7208
L43.861 -47.4303
L43.8055 -47.1415
L43.7499 -46.8545
L43.6944 -46.5692
L43.6388 -46.2856
L43.5832 -46.0038
L43.5276 -45.7235
L43.4719 -45.445
L43.4162 -45.168
L43.3604 -44.8926
L43.3046 -44.6188
L43.2486 -44.3465
L43.1927 -44.0757
L43.1366 -43.8064
L43.0805 -43.5385
L43.0242 -43.2719
L42.9678 -43.0066
L42.9114 -42.7427
L42.8548 -42.4799
L42.7981 -42.2184
L42.7413 -41.958
L42.6843 -41.6987
L42.6272 -41.4404
L42.5699 -41.1832
L42.5124 -40.9269
L42.4548 -40.6715
L42.397 -40.4169
L42.339 -40.1631
L42.2808 -39.9101
L42.2224 -39.6578
L42.1637 -39.4061
L42.1049 -39.155
L42.0458 -38.9045
L41.9864 -38.6544
L41.9268 -38.4048
L41.8669 -38.1555
L41.8067 -37.9066
L41.7462 -37.6579
L41.6854 -37.4095
L41.6243 -37.1613
L41.5011 -36.9131
L41.4389 -36.665
L41.3764 -36.417
L41.3135 -36.1689
L41.2502 -35.9207
L41.1864 -35.6723
L41.1223 -35.4237
L41.0577 -35.1749
L40.9926 -34.9258
L40.9271 -34.6763
L40.8611 -34.4264
L40.7945 -34.176
L40.7275 -33.9251
L40.6599 -33.6737
L40.5918 -33.4216
L40.5231 -33.1688
L40.4538 -32.9153
L40.3839 -32.661
L40.3134 -32.4059
L40.2423 -32.1499
L40.1705 -31.8929
L40.0981 -31.635
L40.025 -31.376
L39.9511 -31.116
L39.8766 -30.8548
L39.8014 -30.5924
L39.7254 -30.3288
L39.6486 -30.0639
L39.5711 -29.7977
L39.4928 -29.5301
L39.4137 -29.261
L39.3338 -28.9906
L39.253 -28.7186
L39.1714 -28.4451
L39.089 -28.17
L39.0057 -27.8933
L38.9216 -27.6149
L38.8366 -27.3348
L38.7507 -27.0531
L38.6639 -26.7695
L38.5763 -26.4842
L38.4878 -26.1971
L38.3984 -25.9082
L38.3082 -25.6175
L38.2171 -25.3249
L38.1252 -25.0305
L38.0324 -24.7342
L37.9389 -24.436
L37.8447 -24.136
L37.7497 -23.8341
L37.654 -23.5304
L37.5577 -23.2249
L37.4609 -22.9176
L37.3635 -22.6086
L37.2657 -22.2978
L37.1676 -21.9854
L37.0693 -21.6714
L36.9709 -21.3558
L36.8724 -21.0387
L36.7742 -20.7203
L36.6762 -20.4006
L36.5788 -20.0796
L36.4821 -19.7576
L36.3864 -19.4346
L36.2919 -19.1107
L36.1989 -18.7862
L36.1078 -18.4612
L36.0189 -18.1357
L35.9326 -17.8101
L35.8494 -17.4846
L35.7697 -17.1592
L35.6942 -16.8344
L35.6235 -16.5102
L35.5582 -16.187
L35.499 -15.865
L35.4469 -15.5446
L35.4026 -15.226
L35.3672 -14.9096
L35.3416 -14.5958
L35.3271 -14.2848
L35.3248 -13.9772
L35.3358 -13.6732
L35.3615 -13.3735
L35.4032 -13.0783
L35.4621 -12.7882
L35.5395 -12.5038
L35.6366 -12.2255
L35.7543 -11.9538
L35.8938 -11.6894
L36.0556 -11.4327
L36.2402 -11.1843
L36.4481 -10.9448
L36.6791 -10.7146
L36.9331 -10.4944
L37.2096 -10.2845
L37.5079 -10.0855
L37.8272 -9.89772
L38.1664 -9.72155
L38.5243 -9.55733
L38.8998 -9.40535
L39.2914 -9.26585
L39.698 -9.13903
L40.118 -9.02504
L40.5502 -8.92401
L40.9933 -8.83601
L41.4459 -8.76108
L41.907 -8.69922
L42.3754 -8.65042
L42.8498 -8.61462
L43.3294 -8.59173
L43.8395 -8.58165
L44.3166 -8.59942
L44.791 -8.74042
L45.2628 -8.88971
L45.7318 -9.04727
L46.1978 -9.21303
L46.6607 -9.38695
L47.1204 -9.56898
L47.5767 -9.75906
L48.0294 -9.95714
L48.4785 -10.1631
L48.9238 -10.377
L49.3651 -10.5987
L49.8024 -10.8281
L50.2355 -11.0652
L50.6642 -11.3099
L51.0885 -11.5621
L51.5081 -11.8217
L51.9231 -12.0888
L52.3332 -12.3631
L52.7383 -12.6446
L53.1383 -12.9332
L53.5331 -13.2288
L53.9226 -13.5314
L54.3066 -13.8408
L54.685 -14.157
L55.0578 -14.4798
L55.4247 -14.8092
L55.7857 -15.145
L56.1407 -15.4872
L56.4895 -15.8356
L56.8321 -16.1902
L57.1684 -16.5508
L57.4982 -16.9173
L57.8215 -17.2897
L58.1381 -17.6677
L58.448 -18.0513
L58.751 -18.4404
L59.0471 -18.8349
L59.3362 -19.2346
L59.6182 -19.6393
L59.893 -20.0491
L60.1605 -20.4637
L60.4206 -20.8831
L60.6733 -21.307
L60.9185 -21.7355
L61.1561 -22.1683
L61.3861 -22.6053
L61.6083 -23.0463
L61.8227 -23.4914
L62.0292 -23.9402
L62.2278 -24.3927
L62.4185 -24.8487
L62.601 -25.3082
L62.7755 -25.7709
L62.9418 -26.2367
L63.0999 -26.7055
L63.2498 -27.1771
L63.3913 -27.6514
L63.5245 -28.1282
L63.6494 -28.6075
L63.7658 -29.089
L63.8737 -29.5726
L63.9732 -30.0581
L64.0641 -30.5455
L64.1465 -31.0345
L64.2203 -31.5251
L64.2855 -32.017
L64.3421 -32.5101
L64.3901 -33.0043
L64.4294 -33.4994
L64.4601 -33.9952
L64.482 -34.4917
L64.4954 -34.9886
L64.5 -35.4858
L64.4959 -35.9832
L64.4832 -36.4806
L64.4618 -36.9779
L64.4317 -37.4748
L64.393 -37.9713
L64.3456 -38.4672
L64.2896 -38.9624
L64.225 -39.4566
L64.1517 -39.9498
L64.0699 -40.4418
L63.9796 -40.9325
L63.8807 -41.4216
L63.7733 -41.9091
L63.6575 -42.3948
L63.5332 -42.8785
L63.4006 -43.3601
L63.2596 -43.8395
L63.1103 -44.3166
L62.9527 -44.791
L62.787 -45.2628
L62.613 -45.7318
L62.431 -46.1978
L62.2409 -46.6607
L62.0429 -47.1204
L61.8369 -47.5767
L61.623 -48.0294
L61.4013 -48.4785
L61.1719 -48.9238
L60.9348 -49.3651
L60.6901 -49.8024
L60.4379 -50.2355
L60.1783 -50.6642
L59.9112 -51.0885
L59.6369 -51.5081
L59.3554 -51.9231
L59.0668 -52.3332
L58.7712 -52.7383
L58.4686 -53.1383
L58.1592 -53.5331
L57.843 -53.9226
L57.5202 -54.3066
L57.1908 -54.685
L56.855 -55.0578
L56.5128 -55.4247
L56.1644 -55.7857
L55.8098 -56.1407
L55.4492 -56.4895
L55.0827 -56.8321
L54.7103 -57.1684
L54.3323 -57.4982
L53.9487 -57.8215
L53.5596 -58.1381
L53.1651 -58.448
L52.7654 -58.751
L52.3607 -59.0471
L51.9509 -59.3362
L51.5363 -59.6182
L51.1169 -59.893
L50.693 -60.1605
L50.2645 -60.4206
z
" id="C0_1_575fb79427"/>
     <path d="
M28.1909 -63.4016
L27.7756 -63.1509
L27.364 -62.8956
L26.9567 -62.6359
L26.5542 -62.3719
L26.1569 -62.1038
L25.7651 -61.8318
L25.3793 -61.5562
L24.9996 -61.277
L24.6264 -60.9946
L24.2597 -60.7092
L23.8998 -60.4208
L23.5467 -60.1299
L23.2006 -59.8365
L22.8615 -59.5409
L22.5294 -59.2432
L22.2044 -58.9437
L21.8864 -58.6425
L21.5755 -58.3398
L21.2716 -58.0357
L20.9746 -57.7305
L20.6845 -57.4242
L20.4013 -57.1171
L20.1248 -56.8092
L19.8549 -56.5006
L19.5916 -56.1915
L19.3348 -55.8819
L19.0843 -55.5721
L18.8401 -55.262
L18.6021 -54.9517
L18.3701 -54.6413
L18.144 -54.3309
L17.9237 -54.0206
L17.7092 -53.7103
L17.5002 -53.4002
L17.2967 -53.0902
L17.0986 -52.7805
L16.9058 -52.471
L16.7181 -52.1618
L16.5354 -51.8528
L16.3577 -51.5442
L16.1848 -51.2359
L16.0167 -50.9278
L15.8532 -50.6201
L15.6942 -50.3128
L15.5397 -50.0057
L15.3896 -49.6989
L15.2438 -49.3925
L15.1021 -49.0863
L14.9646 -48.7803
L14.8311 -48.4746
L14.7015 -48.1692
L14.5758 -47.8639
L14.454 -47.5588
L14.3359 -47.2538
L14.2215 -46.9489
L14.1107 -46.6441
L14.0035 -46.3394
L13.8998 -46.0346
L13.7996 -45.7298
L13.7028 -45.425
L13.6094 -45.12
L13.5193 -44.8148
L13.4325 -44.5095
L13.349 -44.2039
L13.2686 -43.8981
L13.1915 -43.5919
L13.1175 -43.2853
L13.0467 -42.9783
L12.979 -42.6709
L12.9144 -42.3629
L12.8529 -42.0543
L12.7945 -41.7451
L12.7391 -41.4353
L12.6868 -41.1247
L12.6375 -40.8133
L12.5913 -40.5011
L12.5482 -40.188
L12.5081 -39.874
L12.4711 -39.559
L12.4371 -39.243
L12.4063 -38.9259
L12.3785 -38.6076
L12.3539 -38.2881
L12.3325 -37.9674
L12.3142 -37.6453
L12.2991 -37.3219
L12.2873 -36.9971
L12.2788 -36.6708
L12.2736 -36.343
L12.2717 -36.0136
L12.2732 -35.6826
L12.2783 -35.35
L12.2868 -35.0156
L12.2988 -34.6795
L12.3145 -34.3416
L12.3339 -34.0018
L12.3571 -33.6601
L12.384 -33.3165
L12.4149 -32.9709
L12.4497 -32.6233
L12.4885 -32.2736
L12.5315 -31.9219
L12.5787 -31.568
L12.6302 -31.2121
L12.6861 -30.8539
L12.7464 -30.4936
L12.8113 -30.1311
L12.8809 -29.7664
L12.9553 -29.3995
L13.0345 -29.0305
L13.1188 -28.6592
L13.2081 -28.2857
L13.3025 -27.91
L13.4023 -27.5322
L13.5075 -27.1523
L13.6182 -26.7703
L13.7344 -26.3862
L13.8564 -26.0002
L13.9842 -25.6123
L14.1179 -25.2225
L14.2575 -24.831
L14.4033 -24.4378
L14.5551 -24.043
L14.7132 -23.6468
L14.8776 -23.2493
L15.0482 -22.8506
L15.2252 -22.4508
L15.4086 -22.0502
L15.5983 -21.6489
L15.7943 -21.2471
L15.9966 -20.8449
L16.205 -20.4427
L16.4196 -20.0406
L16.6401 -19.6389
L16.8664 -19.2378
L17.0983 -18.8376
L17.3354 -18.4386
L17.5775 -18.041
L17.8242 -17.6452
L18.075 -17.2514
L18.3295 -16.86
L18.5871 -16.4713
L18.8471 -16.0855
L19.1087 -15.7031
L19.3712 -15.3243
L19.6337 -14.9494
L19.895 -14.5788
L20.1541 -14.2128
L20.4099 -13.8515
L20.6609 -13.4954
L20.9059 -13.1446
L21.1434 -12.7994
L21.3719 -12.46
L21.59 -12.1265
L21.7961 -11.7992
L21.9889 -11.4781
L21.7001 -11.1633
L21.272 -11.3472
L20.8484 -11.6005
L20.4294 -11.8613
L20.0152 -12.1294
L19.6058 -12.4047
L19.2015 -12.6873
L18.8022 -12.977
L18.4082 -13.2737
L18.0196 -13.5773
L17.6364 -13.8877
L17.2588 -14.2049
L16.8869 -14.5287
L16.5209 -14.859
L16.1608 -15.1958
L15.8067 -15.5389
L15.4588 -15.8883
L15.1171 -16.2438
L14.7818 -16.6053
L14.453 -16.9727
L14.1307 -17.3459
L13.8151 -17.7248
L13.5062 -18.1093
L13.2042 -18.4992
L12.9091 -18.8944
L12.6211 -19.2948
L12.3402 -19.7004
L12.0665 -20.1109
L11.8001 -20.5262
L11.5411 -20.9463
L11.2895 -21.3709
L11.0454 -21.8
L10.809 -22.2334
L10.5802 -22.671
L10.3591 -23.1127
L10.1459 -23.5583
L9.94054 -24.0077
L9.74312 -24.4607
L9.5537 -24.9173
L9.37233 -25.3772
L9.19908 -25.8404
L9.03399 -26.3067
L8.87711 -26.7759
L8.7285 -27.2479
L8.58819 -27.7226
L8.45624 -28.1998
L8.33267 -28.6794
L8.21753 -29.1612
L8.11085 -29.6451
L8.01267 -30.131
L7.92302 -30.6186
L7.84191 -31.1079
L7.76939 -31.5986
L7.70546 -32.0907
L7.65015 -32.584
L7.60348 -33.0783
L7.56546 -33.5736
L7.5361 -34.0695
L7.51541 -34.5661
L7.50339 -35.063
L7.50006 -35.5603
L7.50541 -36.0577
L7.51943 -36.5551
L7.54214 -37.0523
L7.57351 -37.5492
L7.61354 -38.0456
L7.66222 -38.5414
L7.71953 -39.0364
L7.78545 -39.5305
L7.85997 -40.0236
L7.94306 -40.5154
L8.03469 -41.0058
L8.13485 -41.4947
L8.24349 -41.9819
L8.36059 -42.4673
L8.48611 -42.9507
L8.62 -43.4321
L8.76224 -43.9111
L8.91278 -44.3878
L9.07156 -44.8618
L9.23855 -45.3332
L9.41369 -45.8018
L9.59693 -46.2673
L9.78821 -46.7298
L9.98748 -47.1889
L10.1947 -47.6447
L10.4097 -48.0969
L10.6326 -48.5454
L10.8631 -48.9901
L11.1014 -49.4309
L11.3472 -49.8675
L11.6005 -50.2999
L11.8613 -50.728
L12.1294 -51.1516
L12.4047 -51.5706
L12.6873 -51.9848
L12.977 -52.3942
L13.2737 -52.7985
L13.5773 -53.1978
L13.8877 -53.5918
L14.2049 -53.9804
L14.5287 -54.3636
L14.859 -54.7412
L15.1958 -55.1131
L15.5389 -55.4791
L15.8883 -55.8392
L16.2438 -56.1933
L16.6053 -56.5412
L16.9727 -56.8829
L17.3459 -57.2182
L17.7248 -57.547
L18.1093 -57.8693
L18.4992 -58.1849
L18.8944 -58.4938
L19.2948 -58.7958
L19.7004 -59.0909
L20.1109 -59.3789
L20.5262 -59.6598
L20.9463 -59.9335
L21.3709 -60.1999
L21.8 -60.4589
L22.2334 -60.7105
L22.671 -60.9546
L23.1127 -61.191
L23.5583 -61.4198
L24.0077 -61.6409
L24.4607 -61.8541
L24.9173 -62.0595
L25.3772 -62.2569
L25.8404 -62.4463
L26.3067 -62.6277
L26.7759 -62.8009
L27.2479 -62.966
z
" id="C0_2_c7777df084"/>
    </defs>
    <g clip-path="url(#p1bffca34e9)">
     <use style="fill:#ff0000;stroke:#000000;stroke-width:2.0;" x="0.0" xlink:href="#C0_0_a811fe30f3" y="72.0"/>
    </g>
    <g clip-path="url(#p1bffca34e9)">
     <use style="fill:#ffffff;stroke:#000000;stroke-width:2.0;" x="0.0" xlink:href="#C0_1_575fb79427" y="72.0"/>
    </g>
    <g clip-path="url(#p1bffca34e9)">
     <use style="fill:#ffffff;stroke:#000000;stroke-width:2.0;" x="0.0" xlink:href="#C0_2_c7777df084" y="72.0"/>
    </g>
   </g>
  </g>
 </g>
 <defs>
  <clipPath id="p1bffca34e9">
   <rect height="72.0" width="72.0" x="0.0" y="0.0"/>
  </clipPath>
 </defs>
</svg>
