<?xml version="1.0" encoding="utf-8" standalone="no"?>
<!DOCTYPE svg PUBLIC "-//W3C//DTD SVG 1.1//EN"
  "http://www.w3.org/Graphics/SVG/1.1/DTD/svg11.dtd">
<!-- Created with matplotlib (http://matplotlib.org/) -->
<svg height="72pt" version="1.1" viewBox="0 0 72 72" width="72pt" xmlns="http://www.w3.org/2000/svg" xmlns:xlink="http://www.w3.org/1999/xlink">
 <defs>
  <style type="text/css">
*{stroke-linecap:butt;stroke-linejoin:round;}
  </style>
 </defs>
 <g id="figure_1">
  <g id="patch_1">
   <path d="
M0 72
L72 72
L72 0
L0 0
z
" style="fill:none;"/>
  </g>
  <g id="axes_1">
   <g id="PatchCollection_1">
    <defs>
     <path d="
M36 -7.5
C43.5583 -7.5 50.808 -10.5029 56.1525 -15.8475
C61.4971 -21.192 64.5 -28.4417 64.5 -36
C64.5 -43.5583 61.4971 -50.808 56.1525 -56.1525
C50.808 -61.4971 43.5583 -64.5 36 -64.5
C28.4417 -64.5 21.192 -61.4971 15.8475 -56.1525
C10.5029 -50.808 7.5 -43.5583 7.5 -36
C7.5 -28.4417 10.5029 -21.192 15.8475 -15.8475
C21.192 -10.5029 28.4417 -7.5 36 -7.5
z
" id="C0_0_a811fe30f3"/>
     <path d="
M31.4362 -7.86778
L31.4649 -8.04652
L31.4934 -8.2265
L31.5216 -8.40775
L31.5496 -8.59032
L31.5773 -8.77423
L31.6047 -8.95954
L31.632 -9.14628
L31.6591 -9.3345
L31.6859 -9.52423
L31.7126 -9.71552
L31.7391 -9.90842
L31.7654 -10.103
L31.7915 -10.2992
L31.8175 -10.4972
L31.8433 -10.697
L31.869 -10.8986
L31.8946 -11.1021
L31.92 -11.3076
L31.9453 -11.5151
L31.9704 -11.7246
L31.9954 -11.9363
L32.0203 -12.1501
L32.0451 -12.3661
L32.0698 -12.5844
L32.0943 -12.805
L32.1187 -13.028
L32.143 -13.2535
L32.1671 -13.4814
L32.1912 -13.712
L32.2151 -13.9451
L32.2388 -14.181
L32.2624 -14.4195
L32.2859 -14.6609
L32.3091 -14.9051
L32.3322 -15.1523
L32.3552 -15.4024
L32.3779 -15.6555
L32.4004 -15.9118
L32.4226 -16.1711
L32.4447 -16.4337
L32.4664 -16.6994
L32.4878 -16.9685
L32.5089 -17.2409
L32.5297 -17.5166
L32.55 -17.7957
L32.57 -18.0783
L32.5894 -18.3644
L32.6084 -18.6539
L32.6267 -18.947
L32.6445 -19.2435
L32.6616 -19.5437
L32.678 -19.8473
L32.6936 -20.1545
L32.7082 -20.4651
L32.7219 -20.7793
L32.7346 -21.0969
L32.7461 -21.4179
L32.7563 -21.7422
L32.7651 -22.0698
L32.7724 -22.4006
L32.7781 -22.7344
L32.7819 -23.0712
L32.7837 -23.4109
L32.7833 -23.7532
L32.7806 -24.098
L32.7752 -24.4451
L32.767 -24.7943
L32.7556 -25.1453
L32.7409 -25.4979
L32.7224 -25.8518
L32.6999 -26.2066
L32.673 -26.5621
L32.6413 -26.9177
L32.6044 -27.2733
L32.5618 -27.6282
L32.5132 -27.982
L32.4579 -28.3343
L32.3955 -28.6846
L32.3254 -29.0322
L32.2472 -29.3767
L32.1602 -29.7175
L32.064 -30.054
L31.958 -30.3857
L31.8417 -30.712
L31.7147 -31.0324
L31.5765 -31.3464
L31.4269 -31.6535
L31.2655 -31.9534
L31.0924 -32.2456
L30.9073 -32.53
L30.7103 -32.8063
L30.5017 -33.0744
L30.2817 -33.3343
L30.0506 -33.5859
L29.8089 -33.8294
L29.5572 -34.0648
L29.2961 -34.2925
L29.0262 -34.5125
L28.7482 -34.7252
L28.4629 -34.9308
L28.1709 -35.1297
L27.873 -35.322
L27.5699 -35.5083
L27.2622 -35.6886
L26.9507 -35.8634
L26.636 -36.0329
L26.3186 -36.1973
L25.9992 -36.357
L25.6782 -36.5121
L25.3562 -36.6628
L25.0337 -36.8095
L24.7109 -36.9522
L24.3884 -37.0912
L24.0664 -37.2266
L23.7453 -37.3586
L23.4255 -37.4874
L23.107 -37.6129
L22.7903 -37.7355
L22.4754 -37.8552
L22.1627 -37.9721
L21.8521 -38.0863
L21.544 -38.198
L21.2384 -38.3072
L20.9355 -38.4139
L20.6353 -38.5183
L20.3379 -38.6205
L20.0434 -38.7205
L19.7519 -38.8184
L19.4633 -38.9143
L19.1777 -39.0082
L18.8952 -39.1002
L18.6158 -39.1903
L18.3394 -39.2786
L18.066 -39.3651
L17.7957 -39.45
L17.5285 -39.5332
L17.2643 -39.6148
L17.0031 -39.6948
L16.7448 -39.7733
L16.4896 -39.8503
L16.2372 -39.9259
L15.9877 -40
L15.741 -40.0728
L15.4971 -40.1443
L15.2559 -40.2145
L15.0174 -40.2834
L14.7816 -40.3511
L14.5484 -40.4176
L14.3177 -40.4829
L14.0896 -40.5471
L13.8638 -40.6102
L13.6405 -40.6722
L13.4195 -40.7331
L13.2008 -40.793
L12.9843 -40.8519
L12.77 -40.9098
L12.5578 -40.9667
L12.3477 -41.0227
L12.1396 -41.0778
L11.9335 -41.1319
L11.7293 -41.1852
L11.527 -41.2376
L11.3265 -41.2891
L11.1277 -41.3398
L10.9307 -41.3896
L10.7353 -41.4387
L10.5415 -41.487
L10.3493 -41.5344
L10.1586 -41.5811
L9.9694 -41.6271
L9.78162 -41.6722
L9.59522 -41.7167
L9.41016 -41.7604
L9.22639 -41.8033
L9.04388 -41.8455
L8.86257 -41.887
L8.68244 -41.9278
L8.50344 -41.9679
L8.32552 -42.0073
L8.04739 -41.5589
L7.95463 -41.0702
L7.87041 -40.58
L7.79476 -40.0884
L7.72771 -39.5955
L7.66926 -39.1015
L7.61945 -38.6066
L7.57828 -38.1109
L7.54577 -37.6146
L7.52193 -37.1177
L7.50676 -36.6205
L7.50027 -36.1232
L7.50246 -35.6258
L7.51333 -35.1285
L7.53288 -34.6314
L7.5611 -34.1348
L7.59798 -33.6388
L7.64352 -33.1435
L7.69769 -32.649
L7.76048 -32.1556
L7.83188 -31.6633
L7.91185 -31.1724
L8.00039 -30.6829
L8.09745 -30.195
L8.20301 -29.709
L8.31704 -29.2248
L8.4395 -28.7427
L8.57035 -28.2628
L8.70956 -27.7853
L8.85708 -27.3102
L9.01288 -26.8378
L9.17689 -26.3682
L9.34907 -25.9016
L9.52937 -25.438
L9.71773 -24.9776
L9.9141 -24.5206
L10.1184 -24.0671
L10.3306 -23.6172
L10.5506 -23.1711
L10.7784 -22.7289
L11.0139 -22.2908
L11.2569 -21.8568
L11.5075 -21.4271
L11.7656 -21.0019
L12.031 -20.5812
L12.3038 -20.1653
L12.5837 -19.7541
L12.8708 -19.3479
L13.165 -18.9468
L13.4661 -18.5509
L13.774 -18.1602
L14.0888 -17.7751
L14.4102 -17.3954
L14.7382 -17.0215
L15.0726 -16.6533
L15.4135 -16.291
L15.7606 -15.9347
L16.1138 -15.5846
L16.4732 -15.2406
L16.8384 -14.903
L17.2095 -14.5718
L17.5864 -14.2471
L17.9688 -13.9291
L18.3568 -13.6177
L18.7501 -13.3132
L19.1486 -13.0156
L19.5523 -12.725
L19.961 -12.4415
L20.3746 -12.1652
L20.793 -11.8961
L21.216 -11.6344
L21.6435 -11.3801
L22.0753 -11.1333
L22.5114 -10.894
L22.9517 -10.6625
L23.3958 -10.4386
L23.8439 -10.2225
L24.2956 -10.0143
L24.7509 -9.81398
L25.2096 -9.62164
L25.6716 -9.43734
L26.1368 -9.26113
L26.6049 -9.09307
L27.076 -8.9332
L27.5497 -8.78158
L28.026 -8.63824
L28.5048 -8.50325
L28.9858 -8.37662
L29.469 -8.25842
L29.9541 -8.14866
L30.4411 -8.04739
L30.9298 -7.95463
z
" id="C0_1_bc296aff63"/>
     <path d="
M63.6745 -29.9927
L63.4966 -30.0321
L63.3176 -30.0722
L63.1374 -30.113
L62.9561 -30.1545
L62.7736 -30.1967
L62.5898 -30.2396
L62.4048 -30.2833
L62.2184 -30.3278
L62.0306 -30.3729
L61.8414 -30.4189
L61.6507 -30.4656
L61.4585 -30.513
L61.2647 -30.5613
L61.0693 -30.6104
L60.8723 -30.6602
L60.6735 -30.7109
L60.473 -30.7624
L60.2707 -30.8148
L60.0665 -30.8681
L59.8604 -30.9222
L59.6523 -30.9773
L59.4422 -31.0333
L59.23 -31.0902
L59.0157 -31.1481
L58.7992 -31.207
L58.5805 -31.2669
L58.3595 -31.3278
L58.1362 -31.3898
L57.9104 -31.4529
L57.6823 -31.5171
L57.4516 -31.5824
L57.2184 -31.6489
L56.9826 -31.7166
L56.7441 -31.7855
L56.5029 -31.8557
L56.259 -31.9272
L56.0123 -32
L55.7628 -32.0741
L55.5104 -32.1497
L55.2552 -32.2267
L54.9969 -32.3052
L54.7357 -32.3852
L54.4715 -32.4668
L54.2043 -32.55
L53.934 -32.6349
L53.6606 -32.7214
L53.3842 -32.8097
L53.1048 -32.8998
L52.8223 -32.9918
L52.5367 -33.0857
L52.2481 -33.1816
L51.9566 -33.2795
L51.6621 -33.3795
L51.3647 -33.4817
L51.0645 -33.5861
L50.7616 -33.6928
L50.456 -33.802
L50.1479 -33.9137
L49.8373 -34.0279
L49.5246 -34.1448
L49.2097 -34.2645
L48.893 -34.3871
L48.5745 -34.5126
L48.2547 -34.6414
L47.9336 -34.7734
L47.6116 -34.9088
L47.2891 -35.0478
L46.9663 -35.1905
L46.6438 -35.3372
L46.3218 -35.4879
L46.0008 -35.643
L45.6814 -35.8027
L45.364 -35.9671
L45.0493 -36.1366
L44.7378 -36.3114
L44.4301 -36.4917
L44.127 -36.678
L43.8291 -36.8703
L43.5371 -37.0692
L43.2518 -37.2748
L42.9738 -37.4875
L42.7039 -37.7075
L42.4428 -37.9352
L42.1911 -38.1706
L41.9494 -38.4141
L41.7183 -38.6657
L41.4983 -38.9256
L41.2897 -39.1937
L41.0927 -39.47
L40.9076 -39.7544
L40.7345 -40.0466
L40.5731 -40.3465
L40.4235 -40.6536
L40.2853 -40.9676
L40.1583 -41.288
L40.042 -41.6143
L39.936 -41.946
L39.8398 -42.2825
L39.7528 -42.6233
L39.6746 -42.9678
L39.6045 -43.3154
L39.5421 -43.6657
L39.4868 -44.018
L39.4382 -44.3718
L39.3956 -44.7267
L39.3587 -45.0823
L39.327 -45.4379
L39.3001 -45.7934
L39.2776 -46.1482
L39.2591 -46.5021
L39.2444 -46.8547
L39.233 -47.2057
L39.2248 -47.5549
L39.2194 -47.902
L39.2167 -48.2468
L39.2163 -48.5891
L39.2181 -48.9288
L39.2219 -49.2656
L39.2276 -49.5994
L39.2349 -49.9302
L39.2437 -50.2578
L39.2539 -50.5821
L39.2654 -50.9031
L39.2781 -51.2207
L39.2918 -51.5349
L39.3064 -51.8455
L39.322 -52.1527
L39.3384 -52.4563
L39.3555 -52.7565
L39.3733 -53.053
L39.3916 -53.3461
L39.4106 -53.6356
L39.43 -53.9217
L39.45 -54.2043
L39.4703 -54.4834
L39.4911 -54.7591
L39.5122 -55.0315
L39.5336 -55.3006
L39.5553 -55.5663
L39.5774 -55.8289
L39.5996 -56.0882
L39.6221 -56.3445
L39.6448 -56.5976
L39.6678 -56.8477
L39.6909 -57.0949
L39.7141 -57.3391
L39.7376 -57.5805
L39.7612 -57.819
L39.7849 -58.0549
L39.8088 -58.288
L39.8329 -58.5186
L39.857 -58.7465
L39.8813 -58.972
L39.9057 -59.195
L39.9302 -59.4156
L39.9549 -59.6339
L39.9797 -59.8499
L40.0046 -60.0637
L40.0296 -60.2754
L40.0547 -60.4849
L40.08 -60.6924
L40.1054 -60.8979
L40.131 -61.1014
L40.1567 -61.303
L40.1825 -61.5028
L40.2085 -61.7008
L40.2346 -61.897
L40.2609 -62.0916
L40.2874 -62.2845
L40.3141 -62.4758
L40.3409 -62.6655
L40.368 -62.8537
L40.3953 -63.0405
L40.4227 -63.2258
L40.4504 -63.4097
L40.4784 -63.5922
L40.5066 -63.7735
L41.0543 -63.9535
L41.5431 -64.0482
L42.0301 -63.9558
L42.5153 -63.8548
L42.9986 -63.7453
L43.4797 -63.6273
L43.9585 -63.501
L44.4349 -63.3663
L44.9087 -63.2232
L45.3798 -63.0718
L45.8481 -62.9122
L46.3133 -62.7444
L46.7754 -62.5685
L47.2343 -62.3845
L47.6897 -62.1924
L48.1415 -61.9923
L48.5897 -61.7844
L49.034 -61.5685
L49.4743 -61.3449
L49.9106 -61.1136
L50.3426 -60.8746
L50.7702 -60.628
L51.1934 -60.374
L51.6119 -60.1125
L52.0256 -59.8437
L52.4345 -59.5676
L52.8383 -59.2843
L53.2371 -58.9939
L53.6306 -58.6965
L54.0187 -58.3923
L54.4013 -58.0811
L54.7783 -57.7633
L55.1496 -57.4389
L55.5151 -57.1079
L55.8746 -56.7704
L56.2281 -56.4267
L56.5754 -56.0767
L56.9164 -55.7206
L57.2511 -55.3585
L57.5793 -54.9906
L57.9009 -54.6168
L58.2159 -54.2373
L58.524 -53.8523
L58.8254 -53.4619
L59.1197 -53.0661
L59.4071 -52.6652
L59.6873 -52.2591
L59.9602 -51.8482
L60.2259 -51.4323
L60.4842 -51.0118
L60.7351 -50.5867
L60.9784 -50.1572
L61.2141 -49.7234
L61.4421 -49.2853
L61.6624 -48.8433
L61.8748 -48.3973
L62.0794 -47.9475
L62.276 -47.4941
L62.4646 -47.0372
L62.6452 -46.577
L62.8177 -46.1135
L62.9819 -45.6469
L63.138 -45.1774
L63.2858 -44.7051
L63.4253 -44.2302
L63.5564 -43.7527
L63.6791 -43.2729
L63.7934 -42.7909
L63.8993 -42.3068
L63.9966 -41.8208
L64.0854 -41.333
L64.1657 -40.8435
L64.2373 -40.3526
L64.3004 -39.8604
L64.3549 -39.367
L64.4007 -38.8726
L64.4378 -38.3773
L64.4663 -37.8813
L64.4862 -37.3847
L64.4973 -36.8877
L64.4998 -36.3904
L64.4936 -35.893
L64.4787 -35.3956
L64.4551 -34.8984
L64.4229 -34.4016
L64.382 -33.9052
L64.3325 -33.4095
L64.2743 -32.9145
L64.2075 -32.4205
L64.1322 -31.9276
L64.0482 -31.4359
L63.9558 -30.9457
z
" id="C0_2_eda13794bb"/>
    </defs>
    <g clip-path="url(#p1bffca34e9)">
     <use style="fill:#ffffff;stroke:#000000;stroke-width:2.0;" x="0.0" xlink:href="#C0_0_a811fe30f3" y="72.0"/>
    </g>
    <g clip-path="url(#p1bffca34e9)">
     <use style="fill:#ff0000;stroke:#000000;stroke-width:2.0;" x="0.0" xlink:href="#C0_1_bc296aff63" y="72.0"/>
    </g>
    <g clip-path="url(#p1bffca34e9)">
     <use style="fill:#ff0000;stroke:#000000;stroke-width:2.0;" x="0.0" xlink:href="#C0_2_eda13794bb" y="72.0"/>
    </g>
   </g>
  </g>
 </g>
 <defs>
  <clipPath id="p1bffca34e9">
   <rect height="72.0" width="72.0" x="0.0" y="0.0"/>
  </clipPath>
 </defs>
</svg>
