<?xml version="1.0" encoding="utf-8" standalone="no"?>
<!DOCTYPE svg PUBLIC "-//W3C//DTD SVG 1.1//EN"
  "http://www.w3.org/Graphics/SVG/1.1/DTD/svg11.dtd">
<!-- Created with matplotlib (http://matplotlib.org/) -->
<svg height="72pt" version="1.1" viewBox="0 0 72 72" width="72pt" xmlns="http://www.w3.org/2000/svg" xmlns:xlink="http://www.w3.org/1999/xlink">
 <defs>
  <style type="text/css">
*{stroke-linecap:butt;stroke-linejoin:round;}
  </style>
 </defs>
 <g id="figure_1">
  <g id="patch_1">
   <path d="
M0 72
L72 72
L72 0
L0 0
z
" style="fill:none;"/>
  </g>
  <g id="axes_1">
   <g id="PatchCollection_1">
    <defs>
     <path d="
M36 -7.5
C43.5583 -7.5 50.808 -10.5029 56.1525 -15.8475
C61.4971 -21.192 64.5 -28.4417 64.5 -36
C64.5 -43.5583 61.4971 -50.808 56.1525 -56.1525
C50.808 -61.4971 43.5583 -64.5 36 -64.5
C28.4417 -64.5 21.192 -61.4971 15.8475 -56.1525
C10.5029 -50.808 7.5 -43.5583 7.5 -36
C7.5 -28.4417 10.5029 -21.192 15.8475 -15.8475
C21.192 -10.5029 28.4417 -7.5 36 -7.5
z
" id="C0_0_a811fe30f3"/>
     <path d="
M23.0881 -10.8254
L23.2341 -11.0263
L23.3954 -11.2226
L23.5707 -11.4147
L23.759 -11.6032
L23.959 -11.7885
L24.1696 -11.9709
L24.3899 -12.151
L24.6188 -12.3291
L24.8553 -12.5055
L25.0986 -12.6805
L25.3478 -12.8545
L25.6021 -13.0278
L25.8609 -13.2004
L26.1235 -13.3728
L26.3891 -13.5449
L26.6574 -13.717
L26.9277 -13.8892
L27.1997 -14.0615
L27.4728 -14.2341
L27.7467 -14.4071
L28.021 -14.5805
L28.2954 -14.7542
L28.5696 -14.9285
L28.8433 -15.1032
L29.1164 -15.2783
L29.3886 -15.454
L29.6597 -15.6301
L29.9296 -15.8066
L30.1981 -15.9836
L30.465 -16.1611
L30.7303 -16.3389
L30.9939 -16.5171
L31.2557 -16.6957
L31.5156 -16.8746
L31.7735 -17.0538
L32.0295 -17.2333
L32.2834 -17.413
L32.5352 -17.593
L32.785 -17.7733
L33.0326 -17.9537
L33.2781 -18.1343
L33.5215 -18.3151
L33.7628 -18.496
L34.0019 -18.6771
L34.239 -18.8583
L34.474 -19.0396
L34.7068 -19.2211
L34.9377 -19.4026
L35.1665 -19.5843
L35.3933 -19.766
L35.6181 -19.9478
L35.841 -20.1298
L36.062 -20.3118
L36.2811 -20.494
L36.4984 -20.6762
L36.7139 -20.8586
L36.9277 -21.0411
L37.1397 -21.2237
L37.35 -21.4065
L37.5587 -21.5895
L37.7658 -21.7726
L37.9713 -21.9559
L38.1753 -22.1394
L38.3778 -22.3232
L38.5789 -22.5072
L38.7786 -22.6915
L38.977 -22.876
L39.174 -23.0609
L39.3698 -23.2461
L39.5644 -23.4317
L39.7578 -23.6176
L39.95 -23.804
L40.1411 -23.9908
L40.3312 -24.1781
L40.5202 -24.3659
L40.7083 -24.5542
L40.8954 -24.743
L41.0816 -24.9325
L41.267 -25.1226
L41.4515 -25.3133
L41.6352 -25.5048
L42.0005 -25.6969
L42.1821 -25.8898
L42.363 -26.0835
L42.5433 -26.2781
L42.7231 -26.4735
L42.9023 -26.6698
L43.081 -26.8671
L43.2592 -27.0654
L43.437 -27.2647
L43.6143 -27.465
L43.7913 -27.6665
L43.9679 -27.8691
L44.1443 -28.0729
L44.3203 -28.2779
L44.496 -28.4843
L44.6715 -28.6919
L44.8468 -28.9009
L45.0219 -29.1113
L45.1968 -29.3231
L45.3716 -29.5365
L45.5463 -29.7514
L45.7209 -29.9678
L45.8954 -30.1859
L46.0699 -30.4057
L46.2443 -30.6272
L46.4187 -30.8504
L46.5932 -31.0755
L46.7676 -31.3024
L46.9421 -31.5311
L47.1166 -31.7618
L47.2912 -31.9945
L47.4659 -32.2292
L47.6406 -32.466
L47.8155 -32.7048
L47.9904 -32.9458
L48.1654 -33.1889
L48.3406 -33.4342
L48.5159 -33.6817
L48.6913 -33.9315
L48.8668 -34.1835
L49.0425 -34.4379
L49.2182 -34.6946
L49.3941 -34.9536
L49.5701 -35.2149
L49.7462 -35.4786
L49.9224 -35.7446
L50.0987 -36.013
L50.2751 -36.2837
L50.4516 -36.5567
L50.6281 -36.8319
L50.8047 -37.1095
L50.9814 -37.3892
L51.1581 -37.6711
L51.3348 -37.955
L51.5116 -38.241
L51.6884 -38.5289
L51.8652 -38.8186
L52.042 -39.11
L52.2188 -39.4029
L52.3957 -39.6973
L52.5726 -39.9929
L52.7496 -40.2895
L52.9266 -40.587
L53.1038 -40.885
L53.2812 -41.1834
L53.4587 -41.4818
L53.6366 -41.7799
L53.8148 -42.0774
L53.9935 -42.3738
L54.1729 -42.6688
L54.3529 -42.9618
L54.5338 -43.2524
L54.7158 -43.5401
L54.8991 -43.8242
L55.0838 -44.1041
L55.2703 -44.3791
L55.4589 -44.6485
L55.6497 -44.9115
L55.8433 -45.1673
L56.0398 -45.4151
L56.2397 -45.6539
L56.4434 -45.8828
L56.6512 -46.1009
L56.8634 -46.3071
L57.0805 -46.5006
L57.3028 -46.6802
L57.5305 -46.8452
L57.7639 -46.9946
L58.0033 -47.1274
L58.2486 -47.2431
L58.5 -47.3408
L58.7574 -47.4199
L59.0208 -47.4801
L59.2897 -47.5208
L59.5641 -47.542
L59.8435 -47.5433
L60.1274 -47.5248
L60.4153 -47.4867
L60.7067 -47.429
L61.0011 -47.3521
L61.2976 -47.2563
L61.5958 -47.1421
L61.895 -47.0099
L62.1944 -46.8601
L62.57 -46.6935
L62.7458 -46.3095
L62.9136 -45.8443
L63.0731 -45.376
L63.2244 -44.9049
L63.3674 -44.431
L63.5021 -43.9546
L63.6283 -43.4757
L63.7462 -42.9946
L63.8556 -42.5114
L63.9565 -42.0262
L64.049 -41.5391
L64.1328 -41.0503
L64.2081 -40.56
L64.2748 -40.0684
L64.3329 -39.5754
L64.3824 -39.0814
L64.4232 -38.5865
L64.4554 -38.0908
L64.4789 -37.5944
L64.4937 -37.0975
L64.4998 -36.6003
L64.4973 -36.103
L64.486 -35.6056
L64.4661 -35.1083
L64.4376 -34.6113
L64.4003 -34.1147
L64.3545 -33.6186
L64.2999 -33.1234
L64.2368 -32.6289
L64.165 -32.1356
L64.0847 -31.6433
L63.9958 -31.1525
L63.8984 -30.6631
L63.7925 -30.1753
L63.6782 -29.6893
L63.5554 -29.2052
L63.4242 -28.7232
L63.2846 -28.2434
L63.1368 -27.7659
L62.9806 -27.291
L62.8163 -26.8187
L62.6438 -26.3492
L62.4631 -25.8827
L62.2744 -25.4192
L62.0778 -24.959
L61.8731 -24.5021
L61.6606 -24.0488
L61.4403 -23.599
L61.2122 -23.1531
L60.9764 -22.7111
L60.733 -22.2731
L60.4821 -21.8393
L60.2238 -21.4098
L59.958 -20.9847
L59.685 -20.5642
L59.4047 -20.1485
L59.1174 -19.7375
L58.8229 -19.3315
L58.5216 -18.9306
L58.2133 -18.5349
L57.8983 -18.1445
L57.5766 -17.7595
L57.2484 -17.3801
L56.9137 -17.0064
L56.5726 -16.6385
L56.2252 -16.2764
L55.8717 -15.9204
L55.5121 -15.5705
L55.1466 -15.2268
L54.7753 -14.8894
L54.3982 -14.5585
L54.0155 -14.2341
L53.6274 -13.9163
L53.2338 -13.6052
L52.8351 -13.301
L52.4312 -13.0037
L52.0223 -12.7134
L51.6085 -12.4302
L51.1899 -12.1541
L50.7667 -11.8853
L50.3391 -11.6239
L49.907 -11.3699
L49.4708 -11.1234
L49.0304 -10.8845
L48.586 -10.6532
L48.1379 -10.4297
L47.686 -10.2139
L47.2305 -10.006
L46.7717 -9.80601
L46.3095 -9.614
L45.8443 -9.43003
L45.376 -9.25415
L44.9049 -9.08642
L44.431 -8.92688
L43.9546 -8.7756
L43.4757 -8.6326
L42.9946 -8.49794
L42.5114 -8.37166
L42.0262 -8.2538
L41.5391 -8.14438
L41.0503 -8.04345
L40.56 -7.95104
L40.0684 -7.86717
L39.5754 -7.79187
L39.0814 -7.72517
L38.5865 -7.66707
L38.0908 -7.61761
L37.5944 -7.57679
L37.0975 -7.54463
L36.6003 -7.52114
L36.103 -7.50632
L35.6056 -7.50019
L35.1083 -7.50273
L34.6113 -7.51395
L34.1147 -7.53386
L33.6186 -7.56243
L33.1234 -7.59966
L32.6289 -7.64555
L32.1356 -7.70007
L31.6433 -7.76321
L31.1525 -7.83496
L30.6631 -7.91528
L30.1753 -8.00416
L29.6893 -8.10157
L29.2052 -8.20747
L28.7232 -8.32184
L28.2434 -8.44464
L27.7659 -8.57584
L27.291 -8.71539
L26.8187 -8.86325
L26.3492 -9.01937
L25.8827 -9.18372
L25.4192 -9.35623
L24.959 -9.53686
L24.5021 -9.72555
L24.0488 -9.92225
L23.599 -10.1269
z
" id="C0_1_344cec4a8b"/>
     <path d="
M9.51059 -25.4912
L9.59709 -25.8381
L9.68383 -26.1904
L9.77125 -26.5472
L9.85976 -26.9079
L9.9497 -27.2715
L10.0414 -27.6374
L10.1351 -28.005
L10.2309 -28.3736
L10.3292 -28.7428
L10.43 -29.112
L10.5334 -29.4808
L10.6395 -29.8488
L10.7484 -30.2155
L10.8601 -30.5807
L10.9746 -30.9441
L11.092 -31.3053
L11.2121 -31.6641
L11.3349 -32.0204
L11.4605 -32.3739
L11.5887 -32.7244
L11.7196 -33.0719
L11.853 -33.4162
L11.9888 -33.7572
L12.1271 -34.0948
L12.2677 -34.4289
L12.4106 -34.7595
L12.5556 -35.0866
L12.7028 -35.41
L12.852 -35.7298
L13.0031 -36.046
L13.1562 -36.3585
L13.311 -36.6674
L13.4677 -36.9727
L13.626 -37.2743
L13.786 -37.5724
L13.9475 -37.867
L14.1106 -38.158
L14.2751 -38.4455
L14.441 -38.7296
L14.6084 -39.0103
L14.777 -39.2876
L14.9469 -39.5617
L15.1181 -39.8325
L15.2905 -40.1001
L15.4641 -40.3646
L15.6388 -40.626
L15.8147 -40.8843
L15.9917 -41.1397
L16.1697 -41.3922
L16.3489 -41.6419
L16.5291 -41.8887
L16.7104 -42.1329
L16.8927 -42.3743
L17.076 -42.6132
L17.2604 -42.8495
L17.4458 -43.0833
L17.6322 -43.3147
L17.8196 -43.5437
L18.0081 -43.7703
L18.1977 -43.9947
L18.3883 -44.2169
L18.5799 -44.4369
L18.7727 -44.6548
L18.9665 -44.8707
L19.1614 -45.0846
L19.3575 -45.2965
L19.5547 -45.5065
L19.7531 -45.7146
L19.9527 -45.921
L20.1535 -46.1255
L20.3555 -46.3284
L20.5588 -46.5296
L20.7634 -46.7291
L20.9693 -46.9271
L21.1766 -47.1235
L21.3853 -47.3184
L21.5954 -47.5118
L21.807 -47.7038
L22.0201 -47.8943
L22.2347 -48.0835
L22.4509 -48.2714
L22.6687 -48.4579
L22.8882 -48.6432
L23.1094 -48.8272
L23.3323 -49.01
L23.5571 -49.1916
L23.7837 -49.372
L24.0121 -49.5512
L24.2425 -49.7293
L24.4749 -49.9063
L24.7094 -50.0822
L24.9459 -50.257
L25.1845 -50.4308
L25.4254 -50.6035
L25.6685 -50.7751
L25.9139 -50.9457
L26.1616 -51.1153
L26.4117 -51.2838
L26.6643 -51.4514
L26.9195 -51.6179
L27.1771 -51.7834
L27.4375 -51.9478
L27.7004 -52.1113
L27.9662 -52.2737
L28.2347 -52.435
L28.506 -52.5953
L28.7803 -52.7546
L29.0575 -52.9127
L29.3377 -53.0698
L29.6209 -53.2257
L29.9073 -53.3805
L30.1968 -53.5342
L30.4894 -53.6866
L30.7853 -53.8378
L31.0845 -53.9878
L31.3869 -54.1365
L31.6927 -54.2839
L32.0018 -54.4299
L32.3144 -54.5745
L32.6303 -54.7177
L32.9496 -54.8594
L33.2723 -54.9996
L33.5984 -55.1382
L33.928 -55.2752
L34.2609 -55.4106
L34.5971 -55.5442
L34.9367 -55.6761
L35.2796 -55.8062
L35.6256 -55.9345
L35.9748 -56.0609
L36.3271 -56.1855
L36.6822 -56.308
L37.0402 -56.4286
L37.4009 -56.5473
L37.7642 -56.6639
L38.1298 -56.7785
L38.4975 -56.8911
L38.8672 -57.0017
L39.2386 -57.1104
L39.6114 -57.2172
L39.9853 -57.3222
L40.36 -57.4254
L40.7351 -57.527
L41.1103 -57.6271
L41.485 -57.7258
L41.8589 -57.8234
L42.2314 -57.9201
L42.6019 -58.0162
L42.97 -58.1118
L43.3348 -58.2075
L43.6959 -58.3035
L44.0524 -58.4004
L44.4036 -58.4985
L44.7487 -58.5983
L45.087 -58.7004
L45.4175 -58.8054
L45.7394 -58.9139
L46.0519 -59.0265
L46.354 -59.1437
L46.6449 -59.2663
L46.9237 -59.3949
L47.1896 -59.53
L47.4419 -59.6721
L47.6799 -59.8217
L47.9029 -59.9793
L48.1103 -60.1451
L48.3018 -60.3194
L48.4769 -60.5022
L48.6353 -60.6936
L48.7769 -60.8936
L48.9017 -61.1018
L48.5811 -61.3181
L48.1329 -61.5728
L47.6809 -61.7884
L47.2255 -61.9963
L46.7666 -62.1962
L46.3044 -62.3881
L45.8391 -62.572
L45.3708 -62.7478
L44.8996 -62.9154
L44.4257 -63.0748
L43.9493 -63.226
L43.4704 -63.3689
L42.9893 -63.5035
L42.506 -63.6297
L42.0208 -63.7475
L41.5337 -63.8568
L41.0449 -63.9576
L40.5546 -64.0499
L40.0629 -64.1337
L39.57 -64.2089
L39.076 -64.2755
L38.581 -64.3335
L38.0853 -64.3829
L37.5889 -64.4236
L37.092 -64.4557
L36.5948 -64.4791
L36.0974 -64.4938
L35.6 -64.4998
L35.1028 -64.4972
L34.6057 -64.4859
L34.1092 -64.4659
L33.6131 -64.4372
L33.1179 -64.3999
L32.6235 -64.3539
L32.1301 -64.2993
L31.6379 -64.236
L31.147 -64.1642
L30.6576 -64.0838
L30.1699 -63.9948
L29.6839 -63.8973
L29.1998 -63.7913
L28.7178 -63.6768
L28.2381 -63.5539
L27.7606 -63.4227
L27.2857 -63.283
L26.8135 -63.1351
L26.3441 -62.9788
L25.8775 -62.8144
L25.4141 -62.6418
L24.9539 -62.4611
L24.4971 -62.2723
L24.0438 -62.0755
L23.5941 -61.8708
L23.1482 -61.6582
L22.7062 -61.4378
L22.2682 -61.2096
L21.8345 -60.9738
L21.405 -60.7303
L20.98 -60.4793
L20.5596 -60.2209
L20.1439 -59.955
L19.733 -59.6819
L19.3271 -59.4016
L18.9262 -59.1141
L18.5305 -58.8196
L18.1402 -58.5182
L17.7553 -58.2099
L17.376 -57.8948
L17.0023 -57.573
L16.6344 -57.2447
L16.2724 -56.9099
L15.9165 -56.5688
L15.5666 -56.2213
L15.223 -55.8677
L14.8857 -55.5081
L14.5548 -55.1425
L14.2305 -54.7711
L13.9128 -54.394
L13.6018 -54.0113
L13.2977 -53.623
L13.0004 -53.2295
L12.7102 -52.8306
L12.4271 -52.4267
L12.1511 -52.0177
L11.8824 -51.6038
L11.6211 -51.1852
L11.3671 -50.762
L11.1207 -50.3343
L10.8819 -49.9022
L10.6507 -49.4659
L10.4272 -49.0255
L10.2116 -48.5811
L10.0037 -48.1329
L9.80384 -47.6809
L9.61192 -47.2255
L9.42803 -46.7666
L9.25224 -46.3044
L9.0846 -45.8391
L8.92516 -45.3708
L8.77396 -44.8996
L8.63106 -44.4257
L8.4965 -43.9493
L8.37031 -43.4704
L8.25254 -42.9893
L8.14322 -42.506
L8.04238 -42.0208
L7.95006 -41.5337
L7.86629 -41.0449
L7.79109 -40.5546
L7.72448 -40.0629
L7.66648 -39.57
L7.61711 -39.076
L7.57639 -38.581
L7.54432 -38.0853
L7.52093 -37.5889
L7.50621 -37.092
L7.50017 -36.5948
L7.50281 -36.0974
L7.51413 -35.6
L7.53412 -35.1028
L7.56279 -34.6057
L7.60012 -34.1092
L7.64611 -33.6131
L7.70072 -33.1179
L7.76396 -32.6235
L7.8358 -32.1301
L7.91622 -31.6379
L8.0052 -31.147
L8.1027 -30.6576
L8.2087 -30.1699
L8.32316 -29.6839
L8.44605 -29.1998
L8.57734 -28.7178
L8.71698 -28.2381
L8.86494 -27.7606
L9.02115 -27.2857
L9.18559 -26.8135
z
" id="C0_2_5b8d6cd930"/>
    </defs>
    <g clip-path="url(#p1bffca34e9)">
     <use style="fill:#ffffff;stroke:#000000;stroke-width:2.0;" x="0.0" xlink:href="#C0_0_a811fe30f3" y="72.0"/>
    </g>
    <g clip-path="url(#p1bffca34e9)">
     <use style="fill:#ff0000;stroke:#000000;stroke-width:2.0;" x="0.0" xlink:href="#C0_1_344cec4a8b" y="72.0"/>
    </g>
    <g clip-path="url(#p1bffca34e9)">
     <use style="fill:#ff0000;stroke:#000000;stroke-width:2.0;" x="0.0" xlink:href="#C0_2_5b8d6cd930" y="72.0"/>
    </g>
   </g>
  </g>
 </g>
 <defs>
  <clipPath id="p1bffca34e9">
   <rect height="72.0" width="72.0" x="0.0" y="0.0"/>
  </clipPath>
 </defs>
</svg>
