<?xml version="1.0" encoding="utf-8" standalone="no"?>
<!DOCTYPE svg PUBLIC "-//W3C//DTD SVG 1.1//EN"
  "http://www.w3.org/Graphics/SVG/1.1/DTD/svg11.dtd">
<!-- Created with matplotlib (http://matplotlib.org/) -->
<svg height="72pt" version="1.1" viewBox="0 0 72 72" width="72pt" xmlns="http://www.w3.org/2000/svg" xmlns:xlink="http://www.w3.org/1999/xlink">
 <defs>
  <style type="text/css">
*{stroke-linecap:butt;stroke-linejoin:round;}
  </style>
 </defs>
 <g id="figure_1">
  <g id="patch_1">
   <path d="
M0 72
L72 72
L72 0
L0 0
z
" style="fill:none;"/>
  </g>
  <g id="axes_1">
   <g id="PatchCollection_1">
    <defs>
     <path d="
M36 -7.5
C43.5583 -7.5 50.808 -10.5029 56.1525 -15.8475
C61.4971 -21.192 64.5 -28.4417 64.5 -36
C64.5 -43.5583 61.4971 -50.808 56.1525 -56.1525
C50.808 -61.4971 43.5583 -64.5 36 -64.5
C28.4417 -64.5 21.192 -61.4971 15.8475 -56.1525
C10.5029 -50.808 7.5 -43.5583 7.5 -36
C7.5 -28.4417 10.5029 -21.192 15.8475 -15.8475
C21.192 -10.5029 28.4417 -7.5 36 -7.5
z
" id="C0_0_a811fe30f3"/>
     <path d="
M33.3532 -30.3681
L33.1431 -30.5095
L32.9334 -30.6517
L32.724 -30.7946
L32.5148 -30.9383
L32.3059 -31.0828
L32.0972 -31.2282
L31.8885 -31.3745
L31.6799 -31.5217
L31.4714 -31.6699
L31.2628 -31.8192
L31.0541 -31.9695
L30.8453 -32.1209
L30.6364 -32.2735
L30.4272 -32.4273
L30.2177 -32.5823
L30.008 -32.7387
L29.7979 -32.8964
L29.5875 -33.0554
L29.3766 -33.216
L29.1652 -33.378
L28.9533 -33.5416
L28.7409 -33.7067
L28.5279 -33.8736
L28.3142 -34.0421
L28.0999 -34.2124
L27.8849 -34.3846
L27.6692 -34.5586
L27.4527 -34.7346
L27.2354 -34.9126
L27.0173 -35.0926
L26.7983 -35.2748
L26.5785 -35.4592
L26.3578 -35.6458
L26.1361 -35.8347
L25.9136 -36.0261
L25.6901 -36.2198
L25.4656 -36.4161
L25.2401 -36.615
L25.0137 -36.8165
L24.7863 -37.0208
L24.5579 -37.2278
L24.3286 -37.4377
L24.0983 -37.6506
L23.867 -37.8664
L23.6349 -38.0853
L23.4018 -38.3073
L23.1679 -38.5325
L22.9332 -38.761
L22.6977 -38.9928
L22.4616 -39.2279
L22.2247 -39.4666
L21.9873 -39.7087
L21.7494 -39.9545
L21.5111 -40.2038
L21.2726 -40.4569
L21.0338 -40.7136
L20.795 -40.9742
L20.5564 -41.2386
L20.318 -41.5068
L20.08 -41.779
L19.8427 -42.0551
L19.6062 -42.3352
L19.3708 -42.6192
L19.1367 -42.9073
L18.9043 -43.1994
L18.6738 -43.4956
L18.4455 -43.7958
L18.2199 -44.1001
L17.9974 -44.4084
L17.7784 -44.7207
L17.5634 -45.0372
L17.353 -45.3576
L17.1478 -45.6821
L16.9485 -46.0105
L16.756 -46.343
L16.5711 -46.6795
L16.3949 -47.02
L16.2286 -47.3645
L16.0735 -47.7131
L15.9313 -48.0657
L15.8037 -48.4224
L15.6929 -48.7833
L15.6013 -49.1483
L15.5317 -49.5176
L15.4869 -49.8911
L15.4703 -50.2688
L15.4849 -50.6504
L15.534 -51.0355
L15.6199 -51.4236
L15.7444 -51.8138
L15.9082 -52.205
L16.1108 -52.5957
L16.3505 -52.9845
L16.6251 -53.3698
L16.9314 -53.75
L17.2663 -54.1238
L17.6265 -54.4899
L18.0087 -54.8472
L18.4101 -55.1948
L18.8281 -55.5319
L19.2603 -55.8579
L19.7046 -56.1723
L20.1592 -56.4749
L20.6224 -56.7654
L21.0927 -57.0435
L21.569 -57.3092
L22.0499 -57.5625
L22.5346 -57.8034
L23.022 -58.0319
L23.5113 -58.2482
L24.0017 -58.4524
L24.4926 -58.6447
L24.9834 -58.8252
L25.4734 -58.9943
L25.9623 -59.152
L26.4494 -59.2988
L26.9345 -59.4348
L27.417 -59.5603
L27.8968 -59.6756
L28.3734 -59.781
L28.8467 -59.8768
L29.3163 -59.9632
L29.7822 -60.0405
L30.244 -60.1091
L30.7017 -60.1691
L31.1551 -60.2209
L31.604 -60.2648
L32.0485 -60.301
L32.4884 -60.3298
L32.9237 -60.3514
L33.3543 -60.3661
L33.7801 -60.3741
L34.2013 -60.3757
L34.6177 -60.3711
L35.0293 -60.3605
L35.4363 -60.3441
L35.8386 -60.3221
L36.2362 -60.2948
L36.6291 -60.2623
L37.0175 -60.2247
L37.4014 -60.1823
L37.7808 -60.1352
L38.1557 -60.0836
L38.5263 -60.0276
L38.8926 -59.9673
L39.2547 -59.903
L39.6127 -59.8346
L39.9666 -59.7624
L40.3165 -59.6864
L40.6624 -59.6068
L41.0045 -59.5236
L41.3429 -59.4369
L41.6776 -59.3469
L42.0087 -59.2536
L42.3362 -59.157
L42.6603 -59.0573
L42.9811 -58.9545
L43.2986 -58.8487
L43.6128 -58.7399
L43.924 -58.6282
L44.232 -58.5135
L44.5372 -58.3961
L44.8394 -58.2758
L45.1388 -58.1527
L45.4355 -58.0269
L45.7294 -57.8983
L46.0208 -57.767
L46.3097 -57.633
L46.596 -57.4964
L46.88 -57.357
L47.1617 -57.2149
L47.441 -57.0702
L47.7182 -56.9228
L47.9932 -56.7726
L48.2661 -56.6198
L48.537 -56.4642
L48.8059 -56.3059
L49.0729 -56.1448
L49.338 -55.981
L49.6013 -55.8143
L49.8628 -55.6447
L50.1226 -55.4723
L50.3807 -55.297
L50.6371 -55.1187
L50.892 -54.9374
L51.1452 -54.7531
L51.397 -54.5657
L51.6472 -54.3751
L51.8959 -54.1813
L52.1433 -53.9842
L52.3892 -53.7839
L52.6337 -53.5801
L52.8768 -53.3729
L53.1185 -53.1622
L53.359 -52.9478
L53.598 -52.7298
L53.8358 -52.5081
L54.0722 -52.2825
L54.3073 -52.0529
L54.5411 -51.8194
L54.7736 -51.5818
L55.0047 -51.34
L55.2344 -51.0939
L55.4628 -50.8434
L55.6898 -50.5884
L55.9153 -50.3288
L56.1394 -50.0645
L56.3619 -49.7954
L56.5829 -49.5213
L56.8024 -49.2423
L57.0201 -48.958
L57.2361 -48.6685
L57.4504 -48.3736
L57.6628 -48.0731
L57.8732 -47.767
L58.0816 -47.4551
L58.2878 -47.1373
L58.4918 -46.8135
L58.6935 -46.4835
L58.8926 -46.1473
L59.0891 -45.8046
L59.2828 -45.4554
L59.4736 -45.0996
L59.6612 -44.7369
L59.8456 -44.3674
L60.0266 -43.9908
L60.2038 -43.6071
L60.3772 -43.2162
L60.5464 -42.818
L60.7113 -42.4123
L60.8716 -41.9991
L61.027 -41.5784
L61.1772 -41.15
L61.322 -40.714
L61.461 -40.2702
L61.594 -39.8187
L61.7205 -39.3595
L61.8403 -38.8926
L61.9529 -38.418
L62.058 -37.9358
L62.1552 -37.4461
L62.2441 -36.949
L62.3244 -36.4448
L62.3954 -35.9334
L62.4569 -35.4153
L62.5084 -34.8907
L62.5495 -34.3599
L62.5796 -33.8234
L62.5983 -33.2814
L62.6052 -32.7346
L62.5998 -32.1835
L62.5817 -31.6288
L62.5503 -31.0712
L62.5053 -30.5117
L62.4461 -29.9511
L62.3724 -29.3906
L62.2837 -28.8314
L62.1796 -28.2751
L62.0598 -27.7233
L61.9238 -27.1779
L61.7713 -26.641
L61.6021 -26.1152
L61.4159 -25.6032
L61.2126 -25.1083
L60.9921 -24.6338
L60.7544 -24.1833
L60.4998 -23.7605
L60.2289 -23.369
L59.9423 -23.0116
L59.6409 -22.6904
L59.3261 -22.4065
L58.9991 -22.1599
L58.6616 -21.9492
L58.315 -21.7723
L57.9609 -21.6267
L57.6005 -21.5094
L57.2352 -21.4175
L56.8659 -21.3481
L56.4936 -21.2988
L56.1192 -21.2671
L55.7433 -21.2513
L55.3666 -21.2494
L54.9894 -21.26
L54.6125 -21.2818
L54.236 -21.3137
L53.8604 -21.3546
L53.4861 -21.4037
L53.1132 -21.4603
L52.7421 -21.5237
L52.373 -21.5933
L52.0061 -21.6685
L51.6416 -21.7489
L51.2796 -21.834
L50.9203 -21.9234
L50.5638 -22.0168
L50.2103 -22.1139
L49.8598 -22.2143
L49.5124 -22.3177
L49.1682 -22.4239
L48.8273 -22.5327
L48.4897 -22.6438
L48.1555 -22.7571
L47.8246 -22.8723
L47.4971 -22.9893
L47.173 -23.1079
L46.8524 -23.228
L46.5352 -23.3494
L46.2214 -23.472
L45.9109 -23.5958
L45.6039 -23.7204
L45.3001 -23.846
L44.9997 -23.9724
L44.7026 -24.0995
L44.4087 -24.2272
L44.1179 -24.3555
L43.8303 -24.4842
L43.5458 -24.6135
L43.2644 -24.7431
L42.9859 -24.8731
L42.7103 -25.0033
L42.4376 -25.1339
L42.1677 -25.2647
L41.9006 -25.3956
L41.6361 -25.5268
L41.3742 -25.6582
L41.1149 -25.7896
L40.8581 -25.9213
L40.6037 -26.053
L40.3516 -26.1848
L40.1018 -26.3168
L39.8543 -26.4488
L39.6089 -26.581
L39.3656 -26.7132
L39.1243 -26.8456
L38.8849 -26.978
L38.6475 -27.1106
L38.4118 -27.2433
L38.178 -27.3761
L37.9458 -27.5091
L37.7152 -27.6422
L37.4863 -27.7755
L37.2588 -27.909
L37.0328 -28.0427
L36.8081 -28.1766
L36.5848 -28.3107
L36.3627 -28.4452
L36.1418 -28.5798
L35.9221 -28.7148
L35.7034 -28.8502
L35.4858 -28.9858
L35.2691 -29.1219
L35.0534 -29.2584
L34.8384 -29.3953
L34.6243 -29.5326
L34.4109 -29.6705
L34.1982 -29.8088
L33.9862 -29.9477
L33.7747 -30.0872
z
" id="C0_1_80a7157d87"/>
    </defs>
    <g clip-path="url(#p1bffca34e9)">
     <use style="fill:#ffffff;stroke:#000000;stroke-width:2.0;" x="0.0" xlink:href="#C0_0_a811fe30f3" y="72.0"/>
    </g>
    <g clip-path="url(#p1bffca34e9)">
     <use style="fill:#ff0000;stroke:#000000;stroke-width:2.0;" x="0.0" xlink:href="#C0_1_80a7157d87" y="72.0"/>
    </g>
   </g>
  </g>
 </g>
 <defs>
  <clipPath id="p1bffca34e9">
   <rect height="72.0" width="72.0" x="0.0" y="0.0"/>
  </clipPath>
 </defs>
</svg>
