<?xml version="1.0" encoding="utf-8" standalone="no"?>
<!DOCTYPE svg PUBLIC "-//W3C//DTD SVG 1.1//EN"
  "http://www.w3.org/Graphics/SVG/1.1/DTD/svg11.dtd">
<!-- Created with matplotlib (http://matplotlib.org/) -->
<svg height="72pt" version="1.1" viewBox="0 0 72 72" width="72pt" xmlns="http://www.w3.org/2000/svg" xmlns:xlink="http://www.w3.org/1999/xlink">
 <defs>
  <style type="text/css">
*{stroke-linecap:butt;stroke-linejoin:round;}
  </style>
 </defs>
 <g id="figure_1">
  <g id="patch_1">
   <path d="
M0 72
L72 72
L72 0
L0 0
z
" style="fill:none;"/>
  </g>
  <g id="axes_1">
   <g id="PatchCollection_1">
    <defs>
     <path d="
M36 -7.5
C43.5583 -7.5 50.808 -10.5029 56.1525 -15.8475
C61.4971 -21.192 64.5 -28.4417 64.5 -36
C64.5 -43.5583 61.4971 -50.808 56.1525 -56.1525
C50.808 -61.4971 43.5583 -64.5 36 -64.5
C28.4417 -64.5 21.192 -61.4971 15.8475 -56.1525
C10.5029 -50.808 7.5 -43.5583 7.5 -36
C7.5 -28.4417 10.5029 -21.192 15.8475 -15.8475
C21.192 -10.5029 28.4417 -7.5 36 -7.5
z
" id="C0_0_a811fe30f3"/>
     <path d="
M36.6315 -64.46
L37.0239 -64.3326
L37.4058 -64.1933
L37.777 -64.0426
L38.137 -63.8811
L38.4859 -63.7091
L38.8234 -63.5273
L39.1494 -63.3361
L39.4641 -63.1361
L39.7673 -62.9277
L40.0592 -62.7115
L40.34 -62.4879
L40.6096 -62.2576
L40.8684 -62.0209
L41.1164 -61.7783
L41.3541 -61.5303
L41.5815 -61.2774
L41.7989 -61.0198
L42.0066 -60.7581
L42.2049 -60.4925
L42.3941 -60.2236
L42.5744 -59.9515
L42.746 -59.6767
L42.9094 -59.3993
L43.0647 -59.1199
L43.2122 -58.8385
L43.3523 -58.5554
L43.485 -58.2709
L43.6108 -57.9853
L43.7299 -57.6986
L43.8425 -57.4111
L43.9488 -57.1231
L44.049 -56.8346
L44.1435 -56.5457
L44.2324 -56.2568
L44.3159 -55.9678
L44.3942 -55.6789
L44.4674 -55.3902
L44.5359 -55.1018
L44.5997 -54.8138
L44.6591 -54.5263
L44.7142 -54.2393
L44.7651 -53.953
L44.812 -53.6674
L44.855 -53.3825
L44.8943 -53.0984
L44.93 -52.8151
L44.9623 -52.5327
L44.9912 -52.2512
L45.0169 -51.9706
L45.0395 -51.6909
L45.059 -51.4122
L45.0756 -51.1345
L45.0894 -50.8577
L45.1004 -50.5819
L45.1089 -50.3071
L45.1147 -50.0333
L45.118 -49.7605
L45.1189 -49.4886
L45.1175 -49.2177
L45.1138 -48.9477
L45.1078 -48.6787
L45.0997 -48.4105
L45.0895 -48.1433
L45.0772 -47.8769
L45.0629 -47.6114
L45.0466 -47.3468
L45.0285 -47.0829
L45.0084 -46.8198
L44.9865 -46.5575
L44.9628 -46.2959
L44.9373 -46.035
L44.9101 -45.7747
L44.8812 -45.5151
L44.8505 -45.2561
L44.8182 -44.9976
L44.7843 -44.7397
L44.7487 -44.4823
L44.7116 -44.2254
L44.6728 -43.9689
L44.6325 -43.7128
L44.5906 -43.4571
L44.5471 -43.2017
L44.5021 -42.9466
L44.4555 -42.6918
L44.4074 -42.4372
L44.3578 -42.1828
L44.2539 -41.9285
L44.1997 -41.6744
L44.1439 -41.4203
L44.0866 -41.1663
L44.0277 -40.9123
L43.9673 -40.6583
L43.9053 -40.4042
L43.8417 -40.1501
L43.7766 -39.8958
L43.7098 -39.6414
L43.6414 -39.3867
L43.5714 -39.1319
L43.4997 -38.8768
L43.4263 -38.6214
L43.3513 -38.3657
L43.2745 -38.1096
L43.196 -37.8532
L43.1157 -37.5964
L43.0336 -37.3391
L42.9497 -37.0814
L42.8639 -36.8232
L42.7763 -36.5646
L42.6867 -36.3053
L42.5952 -36.0456
L42.5017 -35.7853
L42.4062 -35.5244
L42.3086 -35.2629
L42.2089 -35.0008
L42.1071 -34.738
L42.0031 -34.4747
L41.8968 -34.2107
L41.7883 -33.9461
L41.6775 -33.6808
L41.5643 -33.4149
L41.4487 -33.1484
L41.3306 -32.8813
L41.21 -32.6135
L41.0869 -32.3452
L40.9611 -32.0763
L40.8326 -31.8068
L40.7013 -31.5368
L40.5673 -31.2664
L40.4304 -30.9955
L40.2906 -30.7242
L40.1478 -30.4525
L40.0019 -30.1806
L39.8529 -29.9085
L39.7008 -29.6362
L39.5453 -29.3638
L39.3866 -29.0915
L39.2245 -28.8193
L39.0589 -28.5473
L38.8898 -28.2757
L38.717 -28.0045
L38.5407 -27.7339
L38.3605 -27.4641
L38.1765 -27.1952
L37.9887 -26.9273
L37.7969 -26.6607
L37.601 -26.3955
L37.401 -26.132
L37.1969 -25.8704
L36.9884 -25.6109
L36.7757 -25.3537
L36.5585 -25.0992
L36.3369 -24.8475
L36.1108 -24.5991
L35.8801 -24.3542
L35.6447 -24.1131
L35.4046 -23.8762
L35.1597 -23.6438
L34.9101 -23.4163
L34.6556 -23.1942
L34.3962 -22.9777
L34.1319 -22.7673
L33.8627 -22.5635
L33.5885 -22.3666
L33.3094 -22.1772
L33.0254 -21.9955
L32.7366 -21.8222
L32.4429 -21.6576
L32.1445 -21.5022
L31.8414 -21.3564
L31.5337 -21.2207
L31.2216 -21.0954
L30.9052 -20.9809
L30.5847 -20.8776
L30.2602 -20.7859
L29.932 -20.706
L29.6004 -20.6382
L29.2656 -20.5827
L28.9279 -20.5397
L28.5876 -20.5094
L28.245 -20.4918
L27.9005 -20.487
L27.5544 -20.495
L27.2071 -20.5158
L26.8589 -20.5493
L26.5103 -20.5952
L26.1617 -20.6536
L25.8133 -20.7242
L25.4656 -20.8066
L25.119 -20.9008
L24.7739 -21.0063
L24.4305 -21.1229
L24.0892 -21.2503
L23.7504 -21.388
L23.4144 -21.5357
L23.0814 -21.6931
L22.7518 -21.8598
L22.4258 -22.0354
L22.1037 -22.2195
L21.7856 -22.4117
L21.4718 -22.6117
L21.1625 -22.8191
L20.8579 -23.0336
L20.558 -23.2547
L20.2631 -23.4821
L19.9734 -23.7156
L19.6887 -23.9547
L19.4094 -24.1991
L19.1355 -24.4486
L18.8669 -24.7027
L18.6039 -24.9614
L18.3464 -25.2242
L18.0945 -25.4909
L17.8482 -25.7613
L17.6074 -26.0351
L17.3723 -26.3121
L17.1428 -26.592
L16.9189 -26.8747
L16.7006 -27.16
L16.4878 -27.4476
L16.2806 -27.7375
L16.0789 -28.0293
L15.8826 -28.3231
L15.6918 -28.6186
L15.5064 -28.9156
L15.3263 -29.2141
L15.1515 -29.514
L14.9819 -29.8151
L14.8175 -30.1173
L14.6583 -30.4205
L14.5042 -30.7247
L14.3551 -31.0297
L14.2109 -31.3354
L14.0717 -31.6419
L13.9374 -31.949
L13.8078 -32.2566
L13.6831 -32.5648
L13.563 -32.8734
L13.4476 -33.1825
L13.3368 -33.4919
L13.2306 -33.8017
L13.1289 -34.1118
L13.0317 -34.4221
L12.9388 -34.7328
L12.8504 -35.0436
L12.7663 -35.3547
L12.6865 -35.666
L12.611 -35.9775
L12.5397 -36.2892
L12.4726 -36.6011
L12.4097 -36.9131
L12.351 -37.2254
L12.2964 -37.5378
L12.2458 -37.8504
L12.1994 -38.1631
L12.157 -38.4761
L12.1187 -38.7893
L12.0844 -39.1027
L12.0542 -39.4163
L12.028 -39.7302
L12.0058 -40.0443
L11.9877 -40.3586
L11.9735 -40.6732
L11.9634 -40.9882
L11.9574 -41.3034
L11.9554 -41.619
L11.9575 -41.9349
L11.9637 -42.2511
L11.9739 -42.5677
L11.9884 -42.8847
L12.0069 -43.2021
L12.0297 -43.52
L12.0567 -43.8383
L12.0879 -44.157
L12.1235 -44.4762
L12.1634 -44.7959
L12.2077 -45.116
L12.2564 -45.4367
L12.3096 -45.7579
L12.3674 -46.0796
L12.4298 -46.4018
L12.4969 -46.7246
L12.5687 -47.048
L12.6453 -47.3718
L12.7268 -47.6963
L12.8133 -48.0212
L12.9048 -48.3467
L13.0014 -48.6727
L13.1032 -48.9993
L13.2104 -49.3263
L13.323 -49.6538
L13.441 -49.9818
L13.5647 -50.3102
L13.694 -50.6391
L13.8292 -50.9683
L13.9703 -51.2978
L14.1174 -51.6276
L14.2706 -51.9577
L14.4301 -52.2879
L14.596 -52.6182
L14.7684 -52.9486
L14.9474 -53.279
L15.1332 -53.6092
L15.3258 -53.9392
L15.5254 -54.269
L15.7321 -54.5983
L15.9461 -54.927
L16.1675 -55.2551
L16.3963 -55.5824
L16.6328 -55.9087
L16.877 -56.234
L17.129 -56.5579
L17.389 -56.8804
L17.6571 -57.2012
L17.9333 -57.5202
L18.2177 -57.837
L18.5105 -58.1516
L18.8867 -58.4636
L19.2871 -58.79
L19.6925 -59.0852
L20.1029 -59.3734
L20.5182 -59.6544
L20.9381 -59.9283
L21.3627 -60.1948
L21.7917 -60.454
L22.225 -60.7058
L22.6626 -60.95
L23.1042 -61.1866
L23.5497 -61.4155
L23.999 -61.6367
L24.452 -61.8501
L24.9085 -62.0556
L25.3683 -62.2532
L25.8315 -62.4427
L26.2977 -62.6242
L26.7668 -62.7977
L27.2388 -62.9629
L27.7134 -63.1199
L28.1906 -63.2687
L28.6702 -63.4092
L29.1519 -63.5413
L29.6358 -63.665
L30.1216 -63.7803
L30.6092 -63.8872
L31.0984 -63.9855
L31.5892 -64.0753
L32.0812 -64.1566
L32.5745 -64.2293
L33.0688 -64.2934
L33.564 -64.3489
L34.0599 -64.3957
L34.5565 -64.4339
L35.0535 -64.4634
L35.5507 -64.4843
L36.0481 -64.4965
z
" id="C0_1_bac8b2dde5"/>
     <path d="
M53.1506 -13.2772
L52.7695 -13.0704
L52.3842 -12.8674
L51.9947 -12.6682
L51.6011 -12.4729
L51.2035 -12.2815
L50.8021 -12.0941
L50.3968 -11.9106
L49.9879 -11.7311
L49.5754 -11.5556
L49.1595 -11.3842
L48.7403 -11.2167
L48.3181 -11.0533
L47.8929 -10.8938
L47.465 -10.7383
L47.0346 -10.5867
L46.6018 -10.439
L46.1669 -10.295
L45.7302 -10.1548
L45.2918 -10.0181
L44.852 -9.885
L44.4111 -9.75524
L43.9693 -9.6287
L43.5269 -9.50524
L43.0843 -9.38468
L42.6416 -9.26685
L42.1991 -9.15155
L41.7572 -9.03856
L41.3162 -8.92767
L40.8762 -8.81866
L40.4377 -8.7113
L40.0008 -8.60535
L39.5658 -8.50058
L39.133 -8.39677
L38.7026 -8.29369
L38.2748 -8.19113
L37.8498 -8.08891
L37.4278 -7.98683
L37.0089 -7.88475
L36.5933 -7.78253
L36.1811 -7.68007
L36.2691 -7.57727
L36.7665 -7.50127
L37.2636 -7.51031
L37.7603 -7.52802
L38.2564 -7.55441
L38.7519 -7.58947
L39.2466 -7.63317
L39.7402 -7.68552
L40.2328 -7.74649
L40.724 -7.81607
L41.2138 -7.89424
L41.702 -7.98096
L42.1885 -8.07622
L42.673 -8.17999
L43.1556 -8.29223
L43.636 -8.41291
L44.114 -8.542
L44.5896 -8.67944
L45.0625 -8.82521
L45.5327 -8.97926
L46 -9.14154
L46.4643 -9.312
L46.9253 -9.49059
L47.3831 -9.67725
L47.8373 -9.87194
L48.288 -10.0746
L48.7349 -10.2851
L49.1779 -10.5035
L49.617 -10.7296
L50.0518 -10.9635
L50.4824 -11.2049
L50.9086 -11.4539
L51.3303 -11.7104
L51.7472 -11.9743
L52.1594 -12.2455
L52.5667 -12.524
z
" id="C0_2_e278a75ca0"/>
    </defs>
    <g clip-path="url(#p1bffca34e9)">
     <use style="fill:#ffffff;stroke:#000000;stroke-width:2.0;" x="0.0" xlink:href="#C0_0_a811fe30f3" y="72.0"/>
    </g>
    <g clip-path="url(#p1bffca34e9)">
     <use style="fill:#ff0000;stroke:#000000;stroke-width:2.0;" x="0.0" xlink:href="#C0_1_bac8b2dde5" y="72.0"/>
    </g>
    <g clip-path="url(#p1bffca34e9)">
     <use style="fill:#ff0000;stroke:#000000;stroke-width:2.0;" x="0.0" xlink:href="#C0_2_e278a75ca0" y="72.0"/>
    </g>
   </g>
  </g>
 </g>
 <defs>
  <clipPath id="p1bffca34e9">
   <rect height="72.0" width="72.0" x="0.0" y="0.0"/>
  </clipPath>
 </defs>
</svg>
