<?xml version="1.0" encoding="utf-8" standalone="no"?>
<!DOCTYPE svg PUBLIC "-//W3C//DTD SVG 1.1//EN"
  "http://www.w3.org/Graphics/SVG/1.1/DTD/svg11.dtd">
<!-- Created with matplotlib (http://matplotlib.org/) -->
<svg height="72pt" version="1.1" viewBox="0 0 72 72" width="72pt" xmlns="http://www.w3.org/2000/svg" xmlns:xlink="http://www.w3.org/1999/xlink">
 <defs>
  <style type="text/css">
*{stroke-linecap:butt;stroke-linejoin:round;}
  </style>
 </defs>
 <g id="figure_1">
  <g id="patch_1">
   <path d="
M0 72
L72 72
L72 0
L0 0
z
" style="fill:none;"/>
  </g>
  <g id="axes_1">
   <g id="PatchCollection_1">
    <defs>
     <path d="
M36 -7.5
C43.5583 -7.5 50.808 -10.5029 56.1525 -15.8475
C61.4971 -21.192 64.5 -28.4417 64.5 -36
C64.5 -43.5583 61.4971 -50.808 56.1525 -56.1525
C50.808 -61.4971 43.5583 -64.5 36 -64.5
C28.4417 -64.5 21.192 -61.4971 15.8475 -56.1525
C10.5029 -50.808 7.5 -43.5583 7.5 -36
C7.5 -28.4417 10.5029 -21.192 15.8475 -15.8475
C21.192 -10.5029 28.4417 -7.5 36 -7.5
z
" id="C0_0_a811fe30f3"/>
     <path d="
M35.7115 -64.3512
L35.8295 -64.1484
L35.9428 -63.9441
L36.0517 -63.7385
L36.1564 -63.5315
L36.2568 -63.3234
L36.3533 -63.114
L36.446 -62.9036
L36.5349 -62.6922
L36.6203 -62.4798
L36.7022 -62.2665
L36.7808 -62.0523
L36.8562 -61.8372
L36.9285 -61.6214
L36.9978 -61.4049
L37.0641 -61.1876
L37.1277 -60.9696
L37.1886 -60.7509
L37.2468 -60.5316
L37.3025 -60.3116
L37.3557 -60.0911
L37.4065 -59.8699
L37.455 -59.6481
L37.5013 -59.4258
L37.5453 -59.2029
L37.5872 -58.9794
L37.6271 -58.7553
L37.6649 -58.5307
L37.7007 -58.3055
L37.7346 -58.0797
L37.7667 -57.8534
L37.7969 -57.6264
L37.8253 -57.3989
L37.8519 -57.1708
L37.8769 -56.942
L37.9001 -56.7127
L37.9217 -56.4827
L37.9417 -56.252
L37.9601 -56.0207
L37.977 -55.7887
L37.9923 -55.556
L38.006 -55.3226
L38.0183 -55.0885
L38.0384 -54.8537
L38.0463 -54.618
L38.0528 -54.3816
L38.0578 -54.1444
L38.0614 -53.9064
L38.0636 -53.6675
L38.0645 -53.4277
L38.0639 -53.187
L38.062 -52.9455
L38.0586 -52.703
L38.054 -52.4595
L38.0479 -52.2151
L38.0404 -51.9696
L38.0316 -51.7232
L38.0214 -51.4757
L38.0098 -51.2271
L37.9968 -50.9774
L37.9825 -50.7266
L37.9667 -50.4747
L37.9494 -50.2217
L37.9308 -49.9674
L37.9107 -49.712
L37.8892 -49.4554
L37.8661 -49.1975
L37.8416 -48.9384
L37.8156 -48.6781
L37.788 -48.4164
L37.7589 -48.1535
L37.7282 -47.8893
L37.6959 -47.6237
L37.662 -47.3569
L37.6264 -47.0887
L37.5891 -46.8192
L37.5501 -46.5483
L37.5094 -46.2762
L37.4669 -46.0027
L37.4225 -45.7278
L37.3763 -45.4516
L37.3282 -45.1742
L37.2782 -44.8954
L37.2261 -44.6153
L37.1721 -44.334
L37.116 -44.0514
L37.0577 -43.7677
L36.9973 -43.4827
L36.9346 -43.1966
L36.8696 -42.9093
L36.8023 -42.6211
L36.7326 -42.3317
L36.6605 -42.0415
L36.5858 -41.7503
L36.5085 -41.4583
L36.4286 -41.1655
L36.3459 -40.8721
L36.2604 -40.578
L36.1721 -40.2835
L36.0808 -39.9885
L35.9864 -39.6932
L35.889 -39.3977
L35.7883 -39.1022
L35.6844 -38.8067
L35.5771 -38.5113
L35.4664 -38.2163
L35.3521 -37.9218
L35.2341 -37.6279
L35.1125 -37.3348
L34.987 -37.0426
L34.8577 -36.7516
L34.7243 -36.462
L34.5868 -36.1738
L34.4452 -35.8874
L34.2993 -35.6029
L34.1491 -35.3205
L33.9944 -35.0405
L33.8352 -34.7631
L33.6714 -34.4884
L33.5029 -34.2168
L33.3298 -33.9485
L33.1518 -33.6836
L32.969 -33.4225
L32.7813 -33.1653
L32.5887 -32.9123
L32.3912 -32.6637
L32.1888 -32.4197
L31.9813 -32.1805
L31.769 -31.9464
L31.5517 -31.7175
L31.3296 -31.4941
L31.1026 -31.2763
L30.8708 -31.0642
L30.6344 -30.8581
L30.3933 -30.6581
L30.1478 -30.4643
L29.8979 -30.2769
L29.6438 -30.0959
L29.3855 -29.9214
L29.1233 -29.7536
L28.8573 -29.5924
L28.5877 -29.4379
L28.3147 -29.2902
L28.0385 -29.1492
L27.7592 -29.015
L27.4771 -28.8876
L27.1924 -28.7669
L26.9052 -28.6529
L26.6158 -28.5457
L26.3245 -28.445
L26.0313 -28.3509
L25.7366 -28.2633
L25.4406 -28.1821
L25.1433 -28.1073
L24.8452 -28.0387
L24.5462 -27.9763
L24.2467 -27.92
L23.9469 -27.8696
L23.6468 -27.8252
L23.3467 -27.7865
L23.0468 -27.7535
L22.7472 -27.726
L22.448 -27.704
L22.1495 -27.6874
L21.8517 -27.676
L21.5548 -27.6698
L21.2589 -27.6686
L20.9642 -27.6723
L20.6707 -27.6809
L20.3785 -27.6942
L20.0878 -27.7121
L19.7986 -27.7346
L19.511 -27.7616
L19.2252 -27.7929
L18.9411 -27.8284
L18.6588 -27.8682
L18.3785 -27.9121
L18.1 -27.9599
L17.8237 -28.0118
L17.5493 -28.0675
L17.2771 -28.127
L17.007 -28.1902
L16.739 -28.2571
L16.4733 -28.3277
L16.2098 -28.4017
L15.9485 -28.4793
L15.6895 -28.5603
L15.4328 -28.6446
L15.1784 -28.7324
L14.9263 -28.8234
L14.6765 -28.9176
L14.4291 -29.0151
L14.184 -29.1158
L13.9413 -29.2197
L13.7009 -29.3266
L13.4628 -29.4367
L13.2272 -29.5498
L12.9938 -29.666
L12.7629 -29.7852
L12.5342 -29.9075
L12.308 -30.0327
L12.0841 -30.161
L11.8625 -30.2923
L11.6433 -30.4265
L11.4265 -30.5638
L11.212 -30.7041
L10.9999 -30.8474
L10.7901 -30.9936
L10.5827 -31.1429
L10.3776 -31.2953
L10.1749 -31.4507
L9.97462 -31.6092
L9.77666 -31.7707
L9.58109 -31.9354
L9.38791 -32.1033
L9.19713 -32.2743
L9.00877 -32.4485
L8.82283 -32.626
L8.63934 -32.8068
L8.45832 -32.9909
L8.27978 -33.1783
L8.10375 -33.3692
L7.93025 -33.5635
L7.75932 -33.7614
L7.59099 -33.9628
L7.53141 -34.1678
L7.5124 -34.6624
L7.50207 -35.1594
L7.50042 -35.6567
L7.50745 -36.1542
L7.52316 -36.6515
L7.54754 -37.1487
L7.58059 -37.6455
L7.6223 -38.1418
L7.67265 -38.6375
L7.73164 -39.1323
L7.79923 -39.6262
L7.87541 -40.119
L7.96016 -40.6106
L8.05345 -41.1007
L8.15525 -41.5893
L8.26554 -42.0762
L8.38427 -42.5612
L8.51142 -43.0443
L8.64693 -43.5251
L8.79078 -44.0037
L8.94292 -44.4799
L9.1033 -44.9535
L9.27188 -45.4243
L9.44859 -45.8923
L9.6334 -46.3573
L9.82623 -46.8191
L10.027 -47.2776
L10.2358 -47.7327
L10.4523 -48.1842
L10.6767 -48.632
L10.9087 -49.0759
L11.1484 -49.5159
L11.3957 -49.9517
L11.6505 -50.3833
L11.9127 -50.8105
L12.1822 -51.2332
L12.459 -51.6513
L12.7429 -52.0646
L13.034 -52.473
L13.332 -52.8764
L13.6369 -53.2746
L13.9487 -53.6676
L14.2671 -54.0552
L14.5922 -54.4373
L14.9238 -54.8138
L15.2619 -55.1845
L15.6062 -55.5494
L15.9568 -55.9084
L16.3134 -56.2613
L16.6761 -56.608
L17.0446 -56.9484
L17.4189 -57.2825
L17.7989 -57.61
L18.1844 -57.931
L18.5754 -58.2454
L18.9716 -58.5529
L19.3731 -58.8536
L19.7796 -59.1473
L20.191 -59.4339
L20.6073 -59.7134
L21.0283 -59.9857
L21.4538 -60.2507
L21.8837 -60.5083
L22.318 -60.7584
L22.7564 -61.001
L23.1988 -61.236
L23.6452 -61.4633
L24.0953 -61.6828
L24.549 -61.8945
L25.0062 -62.0984
L25.4668 -62.2942
L25.9306 -62.4821
L26.3974 -62.6619
L26.8672 -62.8336
L27.3398 -62.9971
L27.815 -63.1524
L28.2926 -63.2994
L28.7727 -63.438
L29.2549 -63.5684
L29.7392 -63.6903
L30.2254 -63.8038
L30.7133 -63.9089
L31.2029 -64.0054
L31.6939 -64.0934
L32.1863 -64.1728
L32.6798 -64.2437
L33.1743 -64.3059
L33.6697 -64.3596
L34.1658 -64.4046
L34.6624 -64.4409
L35.1594 -64.4686
z
" id="C0_1_a3d15d38e2"/>
     <path d="
M64.333 -37.6097
L64.191 -37.3841
L64.0469 -37.1595
L63.9006 -36.9358
L63.7522 -36.7129
L63.6015 -36.4909
L63.4487 -36.2697
L63.2936 -36.0493
L63.1364 -35.8296
L62.977 -35.6106
L62.8153 -35.3922
L62.6514 -35.1745
L62.4853 -34.9574
L62.3169 -34.7409
L62.1463 -34.5249
L61.9734 -34.3094
L61.7982 -34.0945
L61.6207 -33.8799
L61.4409 -33.6658
L61.2588 -33.4521
L61.0743 -33.2387
L60.8874 -33.0257
L60.6982 -32.813
L60.5066 -32.6006
L60.3126 -32.3885
L60.1161 -32.1766
L59.9173 -31.965
L59.716 -31.7535
L59.5122 -31.5422
L59.306 -31.3311
L59.0973 -31.1201
L58.8862 -30.9092
L58.6725 -30.6984
L58.4564 -30.4876
L58.2377 -30.2769
L58.0166 -30.0663
L57.7929 -29.8556
L57.5667 -29.645
L57.3381 -29.4343
L57.107 -29.2236
L56.8734 -29.0129
L56.6373 -28.802
L56.3988 -28.5911
L56.1578 -28.3801
L55.9145 -28.1689
L55.6687 -27.9576
L55.4207 -27.7461
L55.1703 -27.5345
L54.9177 -27.3226
L54.6628 -27.1106
L54.4058 -26.8983
L54.1467 -26.6857
L53.8856 -26.4729
L53.6224 -26.2598
L53.3574 -26.0463
L53.0906 -25.8325
L52.822 -25.6184
L52.5518 -25.4038
L52.2801 -25.1888
L52.0069 -24.9734
L51.7325 -24.7575
L51.4569 -24.541
L51.1802 -24.3241
L50.9026 -24.1065
L50.6242 -23.8883
L50.3453 -23.6694
L50.0658 -23.4499
L49.7861 -23.2296
L49.5062 -23.0085
L49.2264 -22.7865
L48.9468 -22.5637
L48.6676 -22.34
L48.3889 -22.1153
L48.1111 -21.8896
L47.8342 -21.6628
L47.5584 -21.435
L47.284 -21.206
L47.0111 -20.9758
L46.74 -20.7444
L46.4707 -20.5118
L46.2035 -20.2779
L45.9386 -20.0427
L45.676 -19.8062
L45.4161 -19.5684
L45.1588 -19.3293
L44.9044 -19.0889
L44.653 -18.8471
L44.4047 -18.6041
L44.1596 -18.3599
L43.9178 -18.1144
L43.6794 -17.8678
L43.4445 -17.6201
L43.213 -17.3713
L42.9852 -17.1216
L42.7609 -16.871
L42.5402 -16.6196
L42.3232 -16.3675
L42.1098 -16.1149
L41.9 -15.8617
L41.6938 -15.6082
L41.4912 -15.3544
L41.2921 -15.1005
L41.0965 -14.8466
L40.9044 -14.5928
L40.7156 -14.3393
L40.5302 -14.0861
L40.348 -13.8334
L40.1691 -13.5814
L39.9933 -13.3301
L39.8205 -13.0796
L39.6507 -12.8301
L39.4838 -12.5817
L39.3198 -12.3345
L39.1586 -12.0886
L39 -11.8441
L38.8441 -11.6011
L38.6907 -11.3596
L38.5398 -11.1199
L38.3912 -10.8818
L38.2451 -10.6456
L38.1012 -10.4113
L37.9595 -10.1789
L37.82 -9.94851
L37.6825 -9.72019
L37.5471 -9.49397
L37.4136 -9.26991
L37.282 -9.04803
L37.1523 -8.82837
L37.0243 -8.61096
L36.8981 -8.39582
L36.7736 -8.18299
L36.6507 -7.97246
L36.5295 -7.76426
L36.9078 -7.5584
L37.4048 -7.51446
L37.9014 -7.53464
L38.3974 -7.5635
L38.8927 -7.60101
L39.387 -7.64718
L39.8804 -7.70198
L40.3726 -7.7654
L40.8634 -7.83742
L41.3528 -7.91802
L41.8405 -8.00718
L42.3264 -8.10486
L42.8105 -8.21104
L43.2924 -8.32568
L43.7721 -8.44876
L44.2495 -8.58022
L44.7243 -8.72004
L45.1965 -8.86817
L45.6659 -9.02456
L46.1323 -9.18917
L46.5957 -9.36195
L47.0558 -9.54284
L47.5126 -9.73179
L47.9658 -9.92874
L48.4154 -10.1336
L48.8613 -10.3464
L49.3032 -10.567
L49.741 -10.7953
L50.1747 -11.0313
L50.6041 -11.275
L51.029 -11.5261
L51.4493 -11.7847
L51.8649 -12.0507
L52.2757 -12.324
L52.6815 -12.6044
L53.0823 -12.8921
L53.4778 -13.1867
L53.868 -13.4883
L54.2528 -13.7968
L54.632 -14.112
L55.0056 -14.4339
L55.3733 -14.7623
L55.7352 -15.0973
L56.091 -15.4386
L56.4407 -15.7861
L56.7842 -16.1398
L57.1214 -16.4996
L57.4521 -16.8653
L57.7763 -17.2368
L58.0939 -17.6141
L58.4047 -17.9969
L58.7087 -18.3853
L59.0058 -18.779
L59.2959 -19.1779
L59.5789 -19.582
L59.8547 -19.9911
L60.1232 -20.405
L60.3844 -20.8237
L60.6382 -21.247
L60.8844 -21.6748
L61.1231 -22.107
L61.3541 -22.5434
L61.5774 -22.9839
L61.7929 -23.4284
L62.0006 -23.8767
L62.2003 -24.3287
L62.3921 -24.7842
L62.5758 -25.2432
L62.7514 -25.7055
L62.9189 -26.1708
L63.0781 -26.6392
L63.2292 -27.1104
L63.3719 -27.5844
L63.5063 -28.0609
L63.6323 -28.5398
L63.7499 -29.021
L63.859 -29.5043
L63.9597 -29.9896
L64.0518 -30.4767
L64.1354 -30.9655
L64.2104 -31.4558
L64.2768 -31.9476
L64.3347 -32.4405
L64.3838 -32.9346
L64.4244 -33.4295
L64.4563 -33.9253
L64.4795 -34.4217
L64.494 -34.9185
L64.4999 -35.4157
L64.497 -35.9131
L64.4855 -36.4105
z
" id="C0_2_6ab8a082bb"/>
    </defs>
    <g clip-path="url(#p1bffca34e9)">
     <use style="fill:#ffffff;stroke:#000000;stroke-width:2.0;" x="0.0" xlink:href="#C0_0_a811fe30f3" y="72.0"/>
    </g>
    <g clip-path="url(#p1bffca34e9)">
     <use style="fill:#ff0000;stroke:#000000;stroke-width:2.0;" x="0.0" xlink:href="#C0_1_a3d15d38e2" y="72.0"/>
    </g>
    <g clip-path="url(#p1bffca34e9)">
     <use style="fill:#ff0000;stroke:#000000;stroke-width:2.0;" x="0.0" xlink:href="#C0_2_6ab8a082bb" y="72.0"/>
    </g>
   </g>
  </g>
 </g>
 <defs>
  <clipPath id="p1bffca34e9">
   <rect height="72.0" width="72.0" x="0.0" y="0.0"/>
  </clipPath>
 </defs>
</svg>
