<?xml version="1.0" encoding="utf-8" standalone="no"?>
<!DOCTYPE svg PUBLIC "-//W3C//DTD SVG 1.1//EN"
  "http://www.w3.org/Graphics/SVG/1.1/DTD/svg11.dtd">
<!-- Created with matplotlib (http://matplotlib.org/) -->
<svg height="72pt" version="1.1" viewBox="0 0 72 72" width="72pt" xmlns="http://www.w3.org/2000/svg" xmlns:xlink="http://www.w3.org/1999/xlink">
 <defs>
  <style type="text/css">
*{stroke-linecap:butt;stroke-linejoin:round;}
  </style>
 </defs>
 <g id="figure_1">
  <g id="patch_1">
   <path d="
M0 72
L72 72
L72 0
L0 0
z
" style="fill:none;"/>
  </g>
  <g id="axes_1">
   <g id="PatchCollection_1">
    <defs>
     <path d="
M36 -7.5
C43.5583 -7.5 50.808 -10.5029 56.1525 -15.8475
C61.4971 -21.192 64.5 -28.4417 64.5 -36
C64.5 -43.5583 61.4971 -50.808 56.1525 -56.1525
C50.808 -61.4971 43.5583 -64.5 36 -64.5
C28.4417 -64.5 21.192 -61.4971 15.8475 -56.1525
C10.5029 -50.808 7.5 -43.5583 7.5 -36
C7.5 -28.4417 10.5029 -21.192 15.8475 -15.8475
C21.192 -10.5029 28.4417 -7.5 36 -7.5
z
" id="C0_0_a811fe30f3"/>
     <path d="
M23.2143 -61.2086
L23.2975 -60.986
L23.3663 -60.7543
L23.4214 -60.5139
L23.4632 -60.2651
L23.4925 -60.0083
L23.51 -59.744
L23.5164 -59.4726
L23.5127 -59.1944
L23.4995 -58.9099
L23.4777 -58.6196
L23.4481 -58.3237
L23.4114 -58.0227
L23.3685 -57.7171
L23.32 -57.4071
L23.2667 -57.0932
L23.2092 -56.7756
L23.1481 -56.4549
L23.084 -56.1312
L23.0175 -55.805
L22.9491 -55.4765
L22.8792 -55.146
L22.8082 -54.8139
L22.7365 -54.4803
L22.6646 -54.1456
L22.5926 -53.8099
L22.5208 -53.4735
L22.4496 -53.1367
L22.3792 -52.7996
L22.3097 -52.4623
L22.2413 -52.1252
L22.1742 -51.7883
L22.1085 -51.4517
L22.0444 -51.1157
L21.9819 -50.7804
L21.9211 -50.4458
L21.8621 -50.1121
L21.805 -49.7794
L21.7498 -49.4478
L21.6965 -49.1173
L21.6452 -48.7881
L21.5959 -48.4601
L21.5487 -48.1335
L21.5034 -47.8082
L21.4602 -47.4844
L21.419 -47.162
L21.3798 -46.8412
L21.3427 -46.5219
L21.3075 -46.2041
L21.2744 -45.8878
L21.2432 -45.5731
L21.214 -45.26
L21.1867 -44.9484
L21.1613 -44.6384
L21.1378 -44.3299
L21.1162 -44.023
L21.0965 -43.7175
L21.0785 -43.4136
L21.0624 -43.1112
L21.048 -42.8102
L21.0354 -42.5106
L21.0246 -42.2125
L21.0154 -41.9157
L21.0079 -41.6203
L21.0021 -41.3262
L20.998 -41.0334
L20.9954 -40.7418
L20.9945 -40.4514
L20.9952 -40.1621
L20.9974 -39.874
L21.0012 -39.587
L21.0065 -39.301
L21.0133 -39.016
L21.0217 -38.732
L21.0316 -38.4489
L21.0429 -38.1666
L21.0557 -37.8852
L21.07 -37.6045
L21.0857 -37.3246
L21.1029 -37.0454
L21.1216 -36.7668
L21.1416 -36.4888
L21.1631 -36.2113
L21.1861 -35.9343
L21.2105 -35.6578
L21.2363 -35.3817
L21.2635 -35.106
L21.2922 -34.8306
L21.3538 -34.5554
L21.3868 -34.2804
L21.4213 -34.0057
L21.4572 -33.731
L21.4946 -33.4564
L21.5334 -33.1819
L21.5737 -32.9073
L21.6156 -32.6327
L21.6589 -32.3579
L21.7038 -32.083
L21.7502 -31.8079
L21.7981 -31.5326
L21.8476 -31.257
L21.8987 -30.981
L21.9515 -30.7047
L22.0058 -30.4279
L22.0618 -30.1507
L22.1195 -29.873
L22.1788 -29.5948
L22.2399 -29.316
L22.3027 -29.0365
L22.3672 -28.7564
L22.4336 -28.4756
L22.5018 -28.1941
L22.5718 -27.9118
L22.6436 -27.6287
L22.7174 -27.3448
L22.7931 -27.0601
L22.8707 -26.7744
L22.9504 -26.4878
L23.032 -26.2003
L23.1157 -25.9118
L23.2014 -25.6223
L23.2893 -25.3319
L23.3792 -25.0404
L23.4714 -24.7478
L23.5656 -24.4542
L23.6621 -24.1596
L23.7609 -23.8639
L23.8618 -23.5671
L23.965 -23.2692
L24.0705 -22.9703
L24.1783 -22.6704
L24.2885 -22.3693
L24.4009 -22.0673
L24.5156 -21.7642
L24.6327 -21.4602
L24.752 -21.1552
L24.8737 -20.8493
L24.9976 -20.5425
L25.1237 -20.2348
L25.2521 -19.9264
L25.3826 -19.6173
L25.5153 -19.3074
L25.6499 -18.997
L25.7865 -18.6861
L25.925 -18.3747
L26.0652 -18.0629
L26.2071 -17.7509
L26.3504 -17.4388
L26.495 -17.1265
L26.6407 -16.8144
L26.7873 -16.5024
L26.9346 -16.1908
L27.0823 -15.8796
L27.2301 -15.569
L27.3776 -15.2591
L27.5246 -14.9501
L27.6706 -14.6422
L27.8152 -14.3356
L27.9578 -14.0303
L28.0981 -13.7266
L28.2353 -13.4246
L28.3691 -13.1246
L28.4985 -12.8267
L28.6231 -12.5311
L28.7421 -12.2381
L28.8547 -11.9478
L28.96 -11.6604
L29.0574 -11.3761
L29.1459 -11.0951
L29.2246 -10.8177
L29.2926 -10.544
L29.3492 -10.2743
L29.3934 -10.0087
L29.4244 -9.74758
L29.4413 -9.49102
L29.4435 -9.2393
L29.4302 -8.99265
L29.4009 -8.75131
L29.3549 -8.51551
L28.8722 -8.28552
L28.3917 -8.40571
L27.9135 -8.53431
L27.4378 -8.67128
L26.9647 -8.81657
L26.4943 -8.97014
L26.0269 -9.13194
L25.5624 -9.30193
L25.1012 -9.48005
L24.6433 -9.66625
L24.1888 -9.86048
L23.7379 -10.0627
L23.2908 -10.2727
L22.8475 -10.4907
L22.4083 -10.7164
L21.9732 -10.9497
L21.5423 -11.1908
L21.1159 -11.4394
L20.694 -11.6954
L20.2767 -11.9589
L19.8643 -12.2297
L19.4567 -12.5077
L19.0542 -12.7929
L18.6569 -13.0851
L18.2648 -13.3844
L17.8782 -13.6905
L17.4971 -14.0034
L17.1216 -14.323
L16.7518 -14.6493
L16.3879 -14.982
L16.03 -15.3211
L15.6782 -15.6665
L15.3326 -16.0182
L14.9932 -16.3759
L14.6603 -16.7396
L14.3338 -17.1091
L14.014 -17.4844
L13.7008 -17.8654
L13.3945 -18.2518
L13.095 -18.6437
L12.8025 -19.0409
L12.5171 -19.4432
L12.2388 -19.8506
L11.9678 -20.2629
L11.7041 -20.68
L11.4478 -21.1017
L11.199 -21.528
L10.9577 -21.9587
L10.724 -22.3937
L10.4981 -22.8328
L10.2799 -23.2759
L10.0696 -23.7229
L9.8671 -24.1737
L9.67261 -24.628
L9.48615 -25.0858
L9.30775 -25.547
L9.13749 -26.0113
L8.97541 -26.4787
L8.82157 -26.9489
L8.676 -27.422
L8.53875 -27.8976
L8.40987 -28.3757
L8.2894 -28.8561
L8.17736 -29.3387
L8.0738 -29.8234
L7.97875 -30.3099
L7.89223 -30.7981
L7.81428 -31.2879
L7.74491 -31.7792
L7.68414 -32.2718
L7.63201 -32.7655
L7.58851 -33.2601
L7.55367 -33.7556
L7.52749 -34.2518
L7.50998 -34.7485
L7.50116 -35.2457
L7.50101 -35.743
L7.50955 -36.2404
L7.52676 -36.7377
L7.55265 -37.2349
L7.58721 -37.7316
L7.63041 -38.2278
L7.68226 -38.7233
L7.74274 -39.218
L7.81182 -39.7118
L7.88949 -40.2043
L7.97572 -40.6957
L8.07049 -41.1855
L8.17377 -41.6738
L8.28552 -42.1604
L8.40571 -42.6451
L8.53431 -43.1278
L8.67128 -43.6083
L8.81657 -44.0865
L8.97014 -44.5622
L9.13194 -45.0353
L9.30193 -45.5057
L9.48005 -45.9731
L9.66625 -46.4376
L9.86048 -46.8988
L10.0627 -47.3567
L10.2727 -47.8112
L10.4907 -48.2621
L10.7164 -48.7092
L10.9497 -49.1525
L11.1908 -49.5917
L11.4394 -50.0268
L11.6954 -50.4577
L11.9589 -50.8841
L12.2297 -51.306
L12.5077 -51.7233
L12.7929 -52.1357
L13.0851 -52.5433
L13.3844 -52.9458
L13.6905 -53.3431
L14.0034 -53.7352
L14.323 -54.1218
L14.6493 -54.5029
L14.982 -54.8784
L15.3211 -55.2482
L15.6665 -55.6121
L16.0182 -55.97
L16.3759 -56.3218
L16.7396 -56.6674
L17.1091 -57.0068
L17.4844 -57.3397
L17.8654 -57.6662
L18.2518 -57.986
L18.6437 -58.2992
L19.0409 -58.6055
L19.4432 -58.905
L19.8506 -59.1975
L20.2629 -59.4829
L20.68 -59.7612
L21.1017 -60.0322
L21.528 -60.2959
L21.9587 -60.5522
L22.3937 -60.801
z
" id="C0_1_536a661c7c"/>
     <path d="
M42.5991 -63.4845
L42.5698 -63.2487
L42.5565 -63.0074
L42.5587 -62.7607
L42.5756 -62.509
L42.6066 -62.2524
L42.6508 -61.9913
L42.7074 -61.7257
L42.7754 -61.456
L42.8541 -61.1823
L42.9426 -60.9049
L43.04 -60.6239
L43.1453 -60.3396
L43.2579 -60.0522
L43.3769 -59.7619
L43.5015 -59.4689
L43.6309 -59.1733
L43.7647 -58.8754
L43.9019 -58.5754
L44.0422 -58.2734
L44.1848 -57.9697
L44.3294 -57.6644
L44.4754 -57.3578
L44.6224 -57.0499
L44.7699 -56.7409
L44.9177 -56.431
L45.0654 -56.1204
L45.2127 -55.8092
L45.3593 -55.4976
L45.505 -55.1856
L45.6496 -54.8735
L45.7929 -54.5612
L45.9348 -54.2491
L46.075 -53.9371
L46.2135 -53.6253
L46.3501 -53.3139
L46.4847 -53.003
L46.6174 -52.6926
L46.7479 -52.3827
L46.8763 -52.0736
L47.0024 -51.7652
L47.1263 -51.4575
L47.248 -51.1507
L47.3673 -50.8448
L47.4844 -50.5398
L47.5991 -50.2358
L47.7115 -49.9327
L47.8217 -49.6307
L47.9295 -49.3296
L48.035 -49.0297
L48.1382 -48.7308
L48.2391 -48.4329
L48.3379 -48.1361
L48.4344 -47.8404
L48.5286 -47.5458
L48.6208 -47.2522
L48.7107 -46.9596
L48.7986 -46.6681
L48.8843 -46.3777
L48.968 -46.0882
L49.0496 -45.7997
L49.1293 -45.5122
L49.2069 -45.2256
L49.2826 -44.9399
L49.3564 -44.6552
L49.4282 -44.3713
L49.4982 -44.0882
L49.5664 -43.8059
L49.6328 -43.5244
L49.6973 -43.2436
L49.7601 -42.9635
L49.8212 -42.684
L49.8805 -42.4052
L49.9382 -42.127
L49.9942 -41.8493
L50.0485 -41.5721
L50.1013 -41.2953
L50.1524 -41.019
L50.2019 -40.743
L50.2498 -40.4674
L50.2962 -40.1921
L50.3411 -39.917
L50.3844 -39.6421
L50.4263 -39.3673
L50.4666 -39.0927
L50.5054 -38.8181
L50.5428 -38.5436
L50.5787 -38.269
L50.6132 -37.9943
L50.6462 -37.7196
L50.6777 -37.4446
L50.7078 -37.1694
L50.7365 -36.894
L50.7637 -36.6183
L50.7895 -36.3422
L50.8139 -36.0657
L50.8369 -35.7887
L50.8584 -35.5112
L50.8784 -35.2332
L50.8971 -34.9546
L50.9143 -34.6754
L50.93 -34.3955
L50.9443 -34.1148
L50.9571 -33.8334
L50.9684 -33.5511
L50.9783 -33.268
L50.9867 -32.984
L50.9935 -32.699
L50.9988 -32.413
L51.0026 -32.126
L51.0048 -31.8379
L51.0055 -31.5486
L51.0046 -31.2582
L51.002 -30.9666
L50.9979 -30.6738
L50.9921 -30.3797
L50.9846 -30.0843
L50.9754 -29.7875
L50.9646 -29.4894
L50.952 -29.1898
L50.9376 -28.8888
L50.9215 -28.5864
L50.9035 -28.2825
L50.8838 -27.977
L50.8622 -27.6701
L50.8387 -27.3616
L50.8133 -27.0516
L50.786 -26.74
L50.7568 -26.4269
L50.7256 -26.1122
L50.6925 -25.7959
L50.6573 -25.4781
L50.6202 -25.1588
L50.581 -24.838
L50.5398 -24.5156
L50.4966 -24.1918
L50.4513 -23.8665
L50.4041 -23.5399
L50.3548 -23.2119
L50.3035 -22.8827
L50.2502 -22.5522
L50.195 -22.2206
L50.1379 -21.8879
L50.0789 -21.5542
L50.0181 -21.2196
L49.9556 -20.8843
L49.8915 -20.5483
L49.8258 -20.2117
L49.7587 -19.8748
L49.6903 -19.5377
L49.6208 -19.2004
L49.5504 -18.8633
L49.4792 -18.5265
L49.4074 -18.1901
L49.3354 -17.8544
L49.2635 -17.5197
L49.1918 -17.1861
L49.1208 -16.854
L49.0509 -16.5235
L48.9825 -16.195
L48.916 -15.8688
L48.8519 -15.5451
L48.7908 -15.2244
L48.7333 -14.9068
L48.68 -14.5929
L48.6315 -14.2829
L48.5886 -13.9773
L48.5519 -13.6763
L48.5223 -13.3804
L48.5005 -13.0901
L48.4873 -12.8056
L48.4836 -12.5274
L48.49 -12.256
L48.5075 -11.9917
L48.5368 -11.7349
L48.5786 -11.4861
L48.6337 -11.2457
L48.7025 -11.014
L48.7857 -10.7914
L49.3254 -10.5783
L49.763 -10.807
L50.1965 -11.0434
L50.6256 -11.2874
L51.0503 -11.539
L51.4704 -11.7979
L51.8857 -12.0643
L52.2963 -12.3379
L52.7019 -12.6188
L53.1023 -12.9068
L53.4976 -13.2018
L53.8876 -13.5037
L54.2721 -13.8125
L54.651 -14.1281
L55.0243 -14.4503
L55.3917 -14.7791
L55.7533 -15.1143
L56.1088 -15.4559
L56.4582 -15.8038
L56.8014 -16.1578
L57.1382 -16.5179
L57.4686 -16.8839
L57.7925 -17.2557
L58.1097 -17.6333
L58.4202 -18.0164
L58.7239 -18.405
L59.0206 -18.799
L59.3103 -19.1982
L59.593 -19.6025
L59.8684 -20.0118
L60.1366 -20.426
L60.3974 -20.8449
L60.6508 -21.2685
L60.8966 -21.6965
L61.1349 -22.1289
L61.3656 -22.5655
L61.5885 -23.0063
L61.8036 -23.4509
L62.0109 -23.8994
L62.2102 -24.3516
L62.4015 -24.8073
L62.5848 -25.2665
L62.76 -25.7289
L62.9271 -26.1944
L63.086 -26.6629
L63.2366 -27.1343
L63.3789 -27.6083
L63.5128 -28.085
L63.6384 -28.564
L63.7556 -29.0453
L63.8643 -29.5287
L63.9645 -30.0141
L64.0562 -30.5013
L64.1394 -30.9902
L64.214 -31.4806
L64.28 -31.9724
L64.3373 -32.4654
L64.3861 -32.9595
L64.4262 -33.4545
L64.4576 -33.9503
L64.4804 -34.4467
L64.4945 -34.9436
L64.4999 -35.4408
L64.4967 -35.9382
L64.4847 -36.4356
L64.4641 -36.9329
L64.4348 -37.4299
L64.3969 -37.9264
L64.3503 -38.4224
L64.295 -38.9176
L64.2312 -39.4119
L64.1587 -39.9052
L64.0777 -40.3973
L63.9881 -40.8881
L63.89 -41.3774
L63.7834 -41.865
L63.6683 -42.3509
L63.5448 -42.8348
L63.4129 -43.3166
L63.2727 -43.7963
L63.1241 -44.2735
L62.9673 -44.7482
L62.8023 -45.2203
L62.6291 -45.6895
L62.4478 -46.1558
L62.2585 -46.619
L62.0611 -47.0789
L61.8558 -47.5355
L61.6427 -47.9886
L61.4217 -48.438
L61.193 -48.8836
L60.9566 -49.3254
L60.7126 -49.763
L60.461 -50.1965
L60.2021 -50.6256
L59.9357 -51.0503
L59.6621 -51.4704
L59.3812 -51.8857
L59.0932 -52.2963
L58.7982 -52.7019
L58.4963 -53.1023
L58.1875 -53.4976
L57.8719 -53.8876
L57.5497 -54.2721
L57.2209 -54.651
L56.8857 -55.0243
L56.5441 -55.3917
L56.1962 -55.7533
L55.8422 -56.1088
L55.4821 -56.4582
L55.1161 -56.8014
L54.7443 -57.1382
L54.3667 -57.4686
L53.9836 -57.7925
L53.595 -58.1097
L53.201 -58.4202
L52.8018 -58.7239
L52.3975 -59.0206
L51.9882 -59.3103
L51.574 -59.593
L51.1551 -59.8684
L50.7315 -60.1366
L50.3035 -60.3974
L49.8711 -60.6508
L49.4345 -60.8966
L48.9937 -61.1349
L48.5491 -61.3656
L48.1006 -61.5885
L47.6484 -61.8036
L47.1927 -62.0109
L46.7335 -62.2102
L46.2711 -62.4015
L45.8056 -62.5848
L45.3371 -62.76
L44.8657 -62.9271
L44.3917 -63.086
L43.915 -63.2366
L43.436 -63.3789
z
" id="C0_2_1b0fc9b10b"/>
    </defs>
    <g clip-path="url(#p1bffca34e9)">
     <use style="fill:#ffffff;stroke:#000000;stroke-width:2.0;" x="0.0" xlink:href="#C0_0_a811fe30f3" y="72.0"/>
    </g>
    <g clip-path="url(#p1bffca34e9)">
     <use style="fill:#ff0000;stroke:#000000;stroke-width:2.0;" x="0.0" xlink:href="#C0_1_536a661c7c" y="72.0"/>
    </g>
    <g clip-path="url(#p1bffca34e9)">
     <use style="fill:#ff0000;stroke:#000000;stroke-width:2.0;" x="0.0" xlink:href="#C0_2_1b0fc9b10b" y="72.0"/>
    </g>
   </g>
  </g>
 </g>
 <defs>
  <clipPath id="p1bffca34e9">
   <rect height="72.0" width="72.0" x="0.0" y="0.0"/>
  </clipPath>
 </defs>
</svg>
