<?xml version="1.0" encoding="utf-8" standalone="no"?>
<!DOCTYPE svg PUBLIC "-//W3C//DTD SVG 1.1//EN"
  "http://www.w3.org/Graphics/SVG/1.1/DTD/svg11.dtd">
<!-- Created with matplotlib (http://matplotlib.org/) -->
<svg height="72pt" version="1.1" viewBox="0 0 72 72" width="72pt" xmlns="http://www.w3.org/2000/svg" xmlns:xlink="http://www.w3.org/1999/xlink">
 <defs>
  <style type="text/css">
*{stroke-linecap:butt;stroke-linejoin:round;}
  </style>
 </defs>
 <g id="figure_1">
  <g id="patch_1">
   <path d="
M0 72
L72 72
L72 0
L0 0
z
" style="fill:none;"/>
  </g>
  <g id="axes_1">
   <g id="PatchCollection_1">
    <defs>
     <path d="
M36 -7.5
C43.5583 -7.5 50.808 -10.5029 56.1525 -15.8475
C61.4971 -21.192 64.5 -28.4417 64.5 -36
C64.5 -43.5583 61.4971 -50.808 56.1525 -56.1525
C50.808 -61.4971 43.5583 -64.5 36 -64.5
C28.4417 -64.5 21.192 -61.4971 15.8475 -56.1525
C10.5029 -50.808 7.5 -43.5583 7.5 -36
C7.5 -28.4417 10.5029 -21.192 15.8475 -15.8475
C21.192 -10.5029 28.4417 -7.5 36 -7.5
z
" id="C0_0_a811fe30f3"/>
     <path d="
M57.7678 -54.3833
L57.5431 -54.3171
L57.3226 -54.2416
L57.1063 -54.1572
L56.8943 -54.064
L56.6865 -53.9622
L56.4829 -53.852
L56.2836 -53.7337
L56.0884 -53.6075
L55.8974 -53.4736
L55.7104 -53.3322
L55.5275 -53.1837
L55.3485 -53.0282
L55.1734 -52.866
L55.002 -52.6973
L54.8343 -52.5224
L54.6702 -52.3415
L54.5096 -52.1549
L54.3524 -51.9627
L54.1984 -51.7653
L54.0475 -51.5629
L53.8997 -51.3556
L53.7548 -51.1439
L53.6126 -50.9277
L53.4732 -50.7075
L53.3363 -50.4834
L53.2019 -50.2555
L53.0698 -50.0243
L52.94 -49.7897
L52.8123 -49.552
L52.6865 -49.3115
L52.5627 -49.0682
L52.4408 -48.8224
L52.3205 -48.5743
L52.2018 -48.324
L52.0847 -48.0716
L51.9691 -47.8174
L51.8547 -47.5614
L51.7417 -47.3038
L51.6299 -47.0447
L51.5192 -46.7844
L51.4096 -46.5228
L51.301 -46.2601
L51.1933 -45.9964
L51.0866 -45.7318
L50.9806 -45.4665
L50.8754 -45.2004
L50.7709 -44.9338
L50.667 -44.6666
L50.5638 -44.399
L50.4612 -44.131
L50.3591 -43.8628
L50.2574 -43.5942
L50.1563 -43.3255
L50.0555 -43.0567
L49.9552 -42.7878
L49.8552 -42.5188
L49.7555 -42.2499
L49.6561 -41.981
L49.557 -41.7122
L49.4581 -41.4436
L49.3594 -41.1751
L49.2609 -40.9068
L49.1626 -40.6386
L49.0645 -40.3707
L48.9664 -40.1031
L48.8685 -39.8357
L48.7707 -39.5686
L48.6729 -39.3017
L48.5752 -39.0352
L48.4775 -38.7689
L48.3798 -38.503
L48.2821 -38.2373
L48.1845 -37.972
L48.0867 -37.707
L47.989 -37.4423
L47.8912 -37.1779
L47.7933 -36.9138
L47.6954 -36.65
L47.5973 -36.3865
L47.4992 -36.1232
L47.4009 -35.8603
L47.3026 -35.5976
L47.204 -35.3351
L47.1054 -35.0729
L47.0065 -34.8109
L46.9075 -34.5492
L46.8084 -34.2876
L46.709 -34.0262
L46.6094 -33.765
L46.5097 -33.504
L46.4097 -33.243
L46.3095 -32.9823
L46.1084 -32.7216
L46.0075 -32.461
L45.9064 -32.2005
L45.805 -31.94
L45.7033 -31.6796
L45.6014 -31.4192
L45.4992 -31.1588
L45.3967 -30.8984
L45.2939 -30.638
L45.1909 -30.3775
L45.0876 -30.117
L44.984 -29.8564
L44.8801 -29.5956
L44.7759 -29.3348
L44.6715 -29.0739
L44.5667 -28.8128
L44.4617 -28.5515
L44.3564 -28.2901
L44.2509 -28.0285
L44.145 -27.7667
L44.0389 -27.5046
L43.9325 -27.2424
L43.8259 -26.9799
L43.7191 -26.7172
L43.612 -26.4542
L43.5048 -26.1909
L43.3973 -25.9274
L43.2896 -25.6636
L43.1818 -25.3994
L43.0739 -25.135
L42.9658 -24.8703
L42.8577 -24.6053
L42.7495 -24.34
L42.6412 -24.0744
L42.5329 -23.8085
L42.4247 -23.5423
L42.3165 -23.2758
L42.2085 -23.0089
L42.1006 -22.7418
L41.9929 -22.4745
L41.8854 -22.2068
L41.7783 -21.9389
L41.6715 -21.6707
L41.5652 -21.4023
L41.4593 -21.1337
L41.354 -20.8649
L41.2494 -20.5959
L41.1454 -20.3268
L41.0423 -20.0575
L40.9401 -19.7881
L40.8388 -19.5187
L40.7386 -19.2492
L40.6397 -18.9796
L40.542 -18.7101
L40.4458 -18.4407
L40.3511 -18.1713
L40.2581 -17.902
L40.1669 -17.633
L40.0777 -17.3641
L39.9906 -17.0956
L39.9058 -16.8273
L39.8234 -16.5594
L39.7436 -16.2919
L39.6666 -16.025
L39.5925 -15.7585
L39.5217 -15.4927
L39.4541 -15.2275
L39.3901 -14.963
L39.3299 -14.6994
L39.2736 -14.4366
L39.2215 -14.1748
L39.1738 -13.914
L39.1308 -13.6543
L39.0926 -13.3958
L39.0595 -13.1385
L39.0318 -12.8827
L39.0096 -12.6283
L38.9932 -12.3754
L38.9829 -12.1242
L38.9788 -11.8747
L38.9812 -11.627
L38.9904 -11.3814
L39.0066 -11.1378
L39.0299 -10.8964
L39.0607 -10.6573
L39.0991 -10.4206
L39.1453 -10.1865
L39.1994 -9.95505
L39.2618 -9.72644
L39.3326 -9.50079
L39.4119 -9.27825
L39.4998 -9.05895
L39.5966 -8.84306
L39.7023 -8.63071
L39.817 -8.42208
L39.9409 -8.21732
L40.074 -8.0166
L40.5696 -7.82009
L41.0598 -7.86872
L41.5485 -7.95275
L42.0356 -8.04533
L42.5208 -8.14642
L43.004 -8.256
L43.485 -8.37403
L43.9638 -8.50047
L44.4402 -8.63529
L44.914 -8.77845
L45.3851 -8.92989
L45.8533 -9.08959
L46.3185 -9.25748
L46.7806 -9.43351
L47.2394 -9.61764
L47.6948 -9.80981
L48.1466 -10.01
L48.5947 -10.218
L49.0389 -10.4339
L49.4792 -10.6576
L49.9154 -10.889
L50.3474 -11.1281
L50.775 -11.3748
L51.1981 -11.6289
L51.6165 -11.8905
L52.0302 -12.1594
L52.439 -12.4356
L52.8428 -12.7189
L53.2415 -13.0094
L53.6349 -13.3068
L54.023 -13.6112
L54.4056 -13.9224
L54.7825 -14.2403
L55.1537 -14.5648
L55.5191 -14.8959
L55.8786 -15.2334
L56.232 -15.5772
L56.5792 -15.9272
L56.9202 -16.2834
L57.2548 -16.6455
L57.5829 -17.0136
L57.9045 -17.3874
L58.2193 -17.7669
L58.5274 -18.152
L58.8287 -18.5425
L59.123 -18.9383
L59.4102 -19.3393
L59.6903 -19.7454
L59.9632 -20.1565
L60.2288 -20.5723
L60.4871 -20.9929
L60.7378 -21.418
L60.9811 -21.8476
L61.2167 -22.2815
L61.4446 -22.7196
L61.6648 -23.1617
L61.8772 -23.6077
L62.0816 -24.0575
L62.2782 -24.511
L62.4667 -24.9679
L62.6472 -25.4282
L62.8195 -25.8917
L62.9837 -26.3583
L63.1397 -26.8278
L63.2874 -27.3002
L63.4268 -27.7751
L63.5578 -28.2526
L63.6805 -28.7325
L63.7947 -29.2145
L63.9004 -29.6987
L63.9976 -30.1847
L64.0864 -30.6725
L64.1665 -31.1619
L64.2381 -31.6529
L64.3011 -32.1451
L64.3554 -32.6385
L64.4011 -33.1329
L64.4382 -33.6282
L64.4666 -34.1243
L64.4863 -34.6209
L64.4974 -35.1179
L64.4998 -35.6152
L64.4935 -36.1126
L64.4785 -36.61
L64.4548 -37.1072
L64.4225 -37.604
L64.3815 -38.1004
L64.3319 -38.5961
L64.2736 -39.091
L64.2067 -39.585
L64.1313 -40.0779
L64.0473 -40.5696
L63.9547 -41.0598
L63.8536 -41.5485
L63.744 -42.0356
L63.626 -42.5208
L63.4995 -43.004
L63.3647 -43.485
L63.2216 -43.9638
L63.0701 -44.4402
L62.9104 -44.914
L62.7425 -45.3851
L62.5665 -45.8533
L62.3824 -46.3185
L62.1902 -46.7806
L61.99 -47.2394
L61.782 -47.6948
L61.5661 -48.1466
L61.3424 -48.5947
L61.111 -49.0389
L60.8719 -49.4792
L60.6252 -49.9154
L60.3711 -50.3474
L60.1095 -50.775
L59.8406 -51.1981
L59.5644 -51.6165
L59.2811 -52.0302
L58.9906 -52.439
L58.6932 -52.8428
L58.3888 -53.2415
z
" id="C0_1_57bb51f7fb"/>
     <path d="
M31.8377 -64.0076
L31.7511 -63.7797
L31.6586 -63.5501
L31.5604 -63.3186
L31.4569 -63.0855
L31.3483 -62.8507
L31.2348 -62.6144
L31.1168 -62.3764
L30.9944 -62.1369
L30.868 -61.896
L30.7377 -61.6536
L30.604 -61.4098
L30.4669 -61.1647
L30.3267 -60.9183
L30.1837 -60.6706
L30.0381 -60.4217
L29.8901 -60.1716
L29.7399 -59.9204
L29.5878 -59.6681
L29.4339 -59.4148
L29.2785 -59.1604
L29.1217 -58.9051
L28.9637 -58.6488
L28.8047 -58.3917
L28.6448 -58.1337
L28.4842 -57.875
L28.3231 -57.6154
L28.1615 -57.3551
L27.9997 -57.0942
L27.8377 -56.8326
L27.6756 -56.5703
L27.5137 -56.3075
L27.3519 -56.0442
L27.1904 -55.7803
L27.0292 -55.5159
L26.8686 -55.2511
L26.7084 -54.9859
L26.5489 -54.7202
L26.39 -54.4542
L26.2319 -54.1878
L26.0746 -53.9212
L25.9182 -53.6542
L25.7626 -53.3869
L25.6081 -53.1194
L25.4545 -52.8516
L25.3019 -52.5836
L25.1505 -52.3154
L25.0001 -52.047
L24.8509 -51.7784
L24.7028 -51.5096
L24.5559 -51.2406
L24.4102 -50.9715
L24.2658 -50.7022
L24.1225 -50.4328
L23.9805 -50.1633
L23.8398 -49.8936
L23.7003 -49.6237
L23.5621 -49.3537
L23.4252 -49.0836
L23.2896 -48.8133
L23.1552 -48.5429
L23.0222 -48.2723
L22.8904 -48.0015
L22.7599 -47.7306
L22.6307 -47.4595
L22.5028 -47.1883
L22.3762 -46.9168
L22.2509 -46.6451
L22.1268 -46.3733
L22.004 -46.1012
L21.8825 -45.8288
L21.7622 -45.5563
L21.6432 -45.2834
L21.5254 -45.0103
L21.4089 -44.7369
L21.2936 -44.4631
L21.1796 -44.1891
L21.0667 -43.9147
L20.9551 -43.64
L20.8447 -43.3648
L20.7355 -43.0893
L20.6275 -42.8134
L20.5206 -42.5371
L20.415 -42.2603
L20.3105 -41.9831
L20.2072 -41.7054
L20.105 -41.4271
L20.004 -41.1484
L19.9041 -40.8692
L19.8054 -40.5893
L19.7078 -40.309
L19.6114 -40.028
L19.516 -39.7465
L19.4218 -39.4643
L19.3287 -39.1815
L19.2367 -38.898
L19.1458 -38.6139
L19.056 -38.3291
L18.9672 -38.0437
L18.8796 -37.7575
L18.793 -37.4706
L18.7076 -37.1829
L18.6232 -36.8946
L18.5398 -36.6055
L18.4576 -36.3156
L18.3764 -36.025
L18.2962 -35.7336
L18.2171 -35.4414
L18.1391 -35.1485
L18.0621 -34.8548
L17.9861 -34.5603
L17.9111 -34.2651
L17.8372 -33.969
L17.7643 -33.6723
L17.6924 -33.3747
L17.6215 -33.0765
L17.5517 -32.7775
L17.4828 -32.4778
L17.4148 -32.1774
L17.3479 -31.8763
L17.2819 -31.5746
L17.2168 -31.2722
L17.1527 -30.9693
L17.0894 -30.6658
L17.0271 -30.3618
L16.9656 -30.0573
L16.905 -29.7523
L16.8452 -29.447
L16.7862 -29.1414
L16.728 -28.8354
L16.6705 -28.5292
L16.6137 -28.2229
L16.5575 -27.9165
L16.502 -27.6101
L16.4471 -27.3037
L16.3927 -26.9975
L16.3388 -26.6915
L16.2854 -26.3859
L16.2322 -26.0807
L16.1794 -25.776
L16.1269 -25.4719
L16.0744 -25.1687
L16.0221 -24.8662
L15.9698 -24.5648
L15.9174 -24.2645
L15.8647 -23.9655
L15.8119 -23.6679
L15.7586 -23.3719
L15.7048 -23.0775
L15.6504 -22.785
L15.5953 -22.4946
L15.5393 -22.2063
L15.4824 -21.9205
L15.4243 -21.6371
L15.3649 -21.3565
L15.3042 -21.0788
L15.2419 -20.8042
L15.1778 -20.5328
L15.112 -20.265
L15.0441 -20.0008
L14.974 -19.7405
L14.9017 -19.4843
L14.8268 -19.2324
L14.7492 -18.985
L14.6689 -18.7422
L14.5856 -18.5044
L14.4992 -18.2717
L14.4095 -18.0442
L13.843 -17.8223
L13.5336 -18.0746
L13.231 -18.464
L12.9353 -18.8588
L12.6466 -19.2588
L12.3651 -19.6639
L12.0907 -20.0739
L11.8236 -20.4888
L11.5639 -20.9085
L11.3117 -21.3327
L11.0669 -21.7614
L10.8298 -22.1945
L10.6003 -22.6317
L10.3786 -23.073
L10.1647 -23.5183
L9.95859 -23.9673
L9.76046 -24.4201
L9.57032 -24.8763
L9.38824 -25.3359
L9.21425 -25.7988
L9.04843 -26.2648
L8.89082 -26.7338
L8.74146 -27.2056
L8.60041 -27.68
L8.4677 -28.157
L8.34338 -28.6364
L8.22749 -29.118
L8.12005 -29.6017
L8.02111 -30.0874
L7.93069 -30.5749
L7.84882 -31.064
L7.77553 -31.5546
L7.71083 -32.0466
L7.65475 -32.5398
L7.6073 -33.0341
L7.56851 -33.5292
L7.53837 -34.0251
L7.5169 -34.5216
L7.50411 -35.0185
L7.5 -35.5158
L7.50457 -36.0132
L7.51782 -36.5106
L7.53975 -37.0078
L7.57035 -37.5047
L7.6096 -38.0012
L7.65751 -38.4971
L7.71404 -38.9922
L7.7792 -39.4864
L7.85295 -39.9795
L7.93527 -40.4714
L8.02614 -40.962
L8.12554 -41.451
L8.23342 -41.9384
L8.34976 -42.424
L8.47453 -42.9076
L8.60768 -43.3891
L8.74917 -43.8683
L8.89897 -44.3452
L9.05702 -44.8195
L9.22327 -45.2912
L9.39769 -45.76
L9.5802 -46.2258
L9.77077 -46.6885
L9.96932 -47.148
L10.1758 -47.604
L10.3902 -48.0566
L10.6123 -48.5054
L10.8422 -48.9505
L11.0797 -49.3916
L11.3249 -49.8286
L11.5775 -50.2614
L11.8376 -50.6899
L12.1051 -51.1139
L12.3798 -51.5333
L12.6617 -51.9479
L12.9508 -52.3577
L13.2468 -52.7625
L13.5498 -53.1623
L13.8596 -53.5567
L14.1762 -53.9459
L14.4994 -54.3295
L14.8292 -54.7076
L15.1654 -55.08
L15.508 -55.4466
L15.8568 -55.8072
L16.2117 -56.1619
L16.5727 -56.5103
L16.9396 -56.8526
L17.3123 -57.1884
L17.6907 -57.5179
L18.0746 -57.8407
L18.464 -58.157
L18.8588 -58.4664
L19.2588 -58.769
L19.6639 -59.0647
L20.0739 -59.3534
L20.4888 -59.6349
L20.9085 -59.9093
L21.3327 -60.1764
L21.7614 -60.4361
L22.1945 -60.6883
L22.6317 -60.9331
L23.073 -61.1702
L23.5183 -61.3997
L23.9673 -61.6214
L24.4201 -61.8353
L24.8763 -62.0414
L25.3359 -62.2395
L25.7988 -62.4297
L26.2648 -62.6118
L26.7338 -62.7857
L27.2056 -62.9516
L27.68 -63.1092
L28.157 -63.2585
L28.6364 -63.3996
L29.118 -63.5323
L29.6017 -63.6566
L30.0874 -63.7725
L30.5749 -63.8799
L31.064 -63.9789
z
" id="C0_2_c572f33e6d"/>
    </defs>
    <g clip-path="url(#p1bffca34e9)">
     <use style="fill:#ff0000;stroke:#000000;stroke-width:2.0;" x="0.0" xlink:href="#C0_0_a811fe30f3" y="72.0"/>
    </g>
    <g clip-path="url(#p1bffca34e9)">
     <use style="fill:#ffffff;stroke:#000000;stroke-width:2.0;" x="0.0" xlink:href="#C0_1_57bb51f7fb" y="72.0"/>
    </g>
    <g clip-path="url(#p1bffca34e9)">
     <use style="fill:#ffffff;stroke:#000000;stroke-width:2.0;" x="0.0" xlink:href="#C0_2_c572f33e6d" y="72.0"/>
    </g>
   </g>
  </g>
 </g>
 <defs>
  <clipPath id="p1bffca34e9">
   <rect height="72.0" width="72.0" x="0.0" y="0.0"/>
  </clipPath>
 </defs>
</svg>
