<?xml version="1.0" encoding="utf-8" standalone="no"?>
<!DOCTYPE svg PUBLIC "-//W3C//DTD SVG 1.1//EN"
  "http://www.w3.org/Graphics/SVG/1.1/DTD/svg11.dtd">
<!-- Created with matplotlib (http://matplotlib.org/) -->
<svg height="72pt" version="1.1" viewBox="0 0 72 72" width="72pt" xmlns="http://www.w3.org/2000/svg" xmlns:xlink="http://www.w3.org/1999/xlink">
 <defs>
  <style type="text/css">
*{stroke-linecap:butt;stroke-linejoin:round;}
  </style>
 </defs>
 <g id="figure_1">
  <g id="patch_1">
   <path d="
M0 72
L72 72
L72 0
L0 0
z
" style="fill:none;"/>
  </g>
  <g id="axes_1">
   <g id="PatchCollection_1">
    <defs>
     <path d="
M36 -7.5
C43.5583 -7.5 50.808 -10.5029 56.1525 -15.8475
C61.4971 -21.192 64.5 -28.4417 64.5 -36
C64.5 -43.5583 61.4971 -50.808 56.1525 -56.1525
C50.808 -61.4971 43.5583 -64.5 36 -64.5
C28.4417 -64.5 21.192 -61.4971 15.8475 -56.1525
C10.5029 -50.808 7.5 -43.5583 7.5 -36
C7.5 -28.4417 10.5029 -21.192 15.8475 -15.8475
C21.192 -10.5029 28.4417 -7.5 36 -7.5
z
" id="C0_0_a811fe30f3"/>
     <path d="
M11.324 -21.8563
L11.3797 -22.1951
L11.4839 -22.48
L11.6366 -22.7094
L11.8348 -22.886
L12.0734 -23.0159
L12.3463 -23.107
L12.6473 -23.1674
L12.971 -23.2045
L13.3125 -23.2245
L13.6682 -23.2325
L14.0349 -23.2322
L14.4104 -23.2266
L14.7925 -23.2179
L15.1798 -23.2078
L15.5711 -23.1977
L15.9651 -23.1883
L16.3611 -23.1806
L16.7584 -23.1749
L17.1562 -23.1716
L17.554 -23.1711
L17.9514 -23.1735
L18.3479 -23.179
L18.7431 -23.1876
L19.1368 -23.1993
L19.5286 -23.2141
L19.9183 -23.2321
L20.3056 -23.2531
L20.6903 -23.277
L21.0723 -23.3039
L21.4515 -23.3337
L21.8276 -23.3661
L22.2006 -23.4012
L22.5704 -23.4388
L22.9368 -23.4789
L23.2999 -23.5213
L23.6595 -23.5659
L24.0157 -23.6127
L24.3684 -23.6615
L24.7175 -23.7123
L25.0631 -23.765
L25.4052 -23.8194
L25.7438 -23.8755
L26.0788 -23.9333
L26.4104 -23.9925
L26.7385 -24.0533
L27.0632 -24.1154
L27.3845 -24.1789
L27.7024 -24.2436
L28.0171 -24.3095
L28.3285 -24.3766
L28.6367 -24.4447
L28.9418 -24.514
L29.2438 -24.5842
L29.5428 -24.6554
L29.8389 -24.7275
L30.1321 -24.8005
L30.4224 -24.8743
L30.71 -24.949
L30.995 -25.0245
L31.2773 -25.1007
L31.5571 -25.1777
L31.8344 -25.2554
L32.1094 -25.3338
L32.382 -25.4129
L32.6524 -25.4927
L32.9206 -25.5732
L33.1866 -25.6543
L33.4507 -25.7361
L33.7128 -25.8185
L33.973 -25.9015
L34.2314 -25.9852
L34.488 -26.0695
L34.743 -26.1545
L34.9964 -26.2401
L35.2482 -26.3263
L35.4985 -26.4132
L35.7475 -26.5007
L35.9951 -26.5889
L36.2414 -26.6777
L36.4866 -26.7672
L36.7306 -26.8574
L36.9735 -26.9484
L37.2155 -27.04
L37.4565 -27.1323
L37.6966 -27.2254
L37.9359 -27.3193
L38.1745 -27.4139
L38.4124 -27.5093
L38.6496 -27.6056
L38.8863 -27.7027
L39.3583 -27.8006
L39.5937 -27.8995
L39.8287 -27.9992
L40.0635 -28.0999
L40.2981 -28.2015
L40.5325 -28.3042
L40.7668 -28.4078
L41.0012 -28.5125
L41.2355 -28.6183
L41.4699 -28.7252
L41.7045 -28.8332
L41.9392 -28.9425
L42.1742 -29.0529
L42.4095 -29.1646
L42.6452 -29.2776
L42.8813 -29.3919
L43.1178 -29.5076
L43.3549 -29.6247
L43.5925 -29.7433
L43.8307 -29.8633
L44.0697 -29.9849
L44.3093 -30.1082
L44.5497 -30.233
L44.7909 -30.3596
L45.033 -30.4879
L45.276 -30.618
L45.52 -30.7499
L45.765 -30.8838
L46.011 -31.0196
L46.2581 -31.1575
L46.5063 -31.2974
L46.7557 -31.4395
L47.0063 -31.5838
L47.2582 -31.7303
L47.5113 -31.8792
L47.7658 -32.0305
L48.0215 -32.1843
L48.2787 -32.3406
L48.5372 -32.4995
L48.7971 -32.6611
L49.0584 -32.8255
L49.3212 -32.9927
L49.5854 -33.1628
L49.8511 -33.3358
L50.1182 -33.512
L50.3868 -33.6912
L50.6568 -33.8736
L50.9282 -34.0594
L51.2011 -34.2484
L51.4753 -34.4409
L51.7508 -34.6369
L52.0277 -34.8365
L52.3058 -35.0397
L52.5852 -35.2466
L52.8656 -35.4572
L53.1472 -35.6717
L53.4297 -35.8901
L53.7132 -36.1124
L53.9974 -36.3387
L54.2824 -36.569
L54.5679 -36.8033
L54.8539 -37.0418
L55.1402 -37.2843
L55.4267 -37.5309
L55.7132 -37.7815
L55.9995 -38.0362
L56.2855 -38.2948
L56.571 -38.5574
L56.8557 -38.8238
L57.1395 -39.0939
L57.4222 -39.3674
L57.7036 -39.6444
L57.9834 -39.9243
L58.2615 -40.207
L58.5377 -40.4921
L58.8116 -40.7791
L59.0833 -41.0674
L59.3525 -41.3562
L59.6192 -41.6447
L59.8832 -41.9318
L60.1446 -42.216
L60.4035 -42.4955
L60.6601 -42.7681
L60.915 -43.0308
L61.1686 -43.2798
L61.4219 -43.5103
L61.676 -43.7161
L61.9324 -43.8895
L62.1926 -44.0215
L62.458 -44.1018
L62.7292 -44.1207
L63.0063 -44.0704
L63.2879 -43.9469
L63.5472 -43.751
L63.6705 -43.3076
L63.7855 -42.8257
L63.8919 -42.3418
L63.9899 -41.8559
L64.0793 -41.3682
L64.1602 -40.8789
L64.2325 -40.3881
L64.2961 -39.896
L64.3512 -39.4027
L64.3977 -38.9083
L64.4354 -38.4131
L64.4646 -37.9171
L64.485 -37.4205
L64.4968 -36.9236
L64.4999 -36.4263
L64.4943 -35.9289
L64.4801 -35.4315
L64.4571 -34.9343
L64.4255 -34.4374
L64.3853 -33.941
L64.3364 -33.4452
L64.2788 -32.9502
L64.2127 -32.4561
L64.1379 -31.9631
L64.0546 -31.4714
L63.9627 -30.981
L63.8623 -30.4921
L63.7535 -30.005
L63.6361 -29.5196
L63.5104 -29.0362
L63.3763 -28.555
L63.2338 -28.076
L63.083 -27.5994
L62.924 -27.1254
L62.7568 -26.6541
L62.5815 -26.1856
L62.398 -25.7201
L62.2065 -25.2578
L62.007 -24.7987
L61.7996 -24.3431
L61.5844 -23.891
L61.3613 -23.4425
L61.1305 -22.9979
L60.8921 -22.5573
L60.6461 -22.1208
L60.3926 -21.6885
L60.1316 -21.2605
L59.8633 -20.837
L59.5877 -20.4182
L59.305 -20.0041
L59.0151 -19.5949
L58.7182 -19.1906
L58.4144 -18.7915
L58.1038 -18.3977
L57.7865 -18.0092
L57.4625 -17.6261
L57.132 -17.2487
L56.795 -16.877
L56.4517 -16.5111
L56.1022 -16.1511
L55.7465 -15.7972
L55.3849 -15.4495
L55.0173 -15.108
L54.6439 -14.7728
L54.2649 -14.4442
L53.8803 -14.1221
L53.4903 -13.8067
L53.0949 -13.498
L52.6943 -13.1962
L52.2886 -12.9013
L51.878 -12.6134
L51.4625 -12.3327
L51.0423 -12.0592
L50.6176 -11.793
L50.1884 -11.5342
L49.7548 -11.2828
L49.3171 -11.0389
L48.8753 -10.8027
L48.4296 -10.5741
L47.9801 -10.3533
L47.527 -10.1403
L47.0703 -9.93511
L46.6103 -9.7379
L46.1471 -9.5487
L45.6807 -9.36755
L45.2114 -9.19452
L44.7393 -9.02965
L44.2646 -8.873
L43.7873 -8.72461
L43.3076 -8.58452
L42.8257 -8.45279
L42.3418 -8.32945
L41.8559 -8.21454
L41.3682 -8.10809
L40.8789 -8.01014
L40.3881 -7.92072
L39.896 -7.83984
L39.4027 -7.76755
L38.9083 -7.70386
L38.4131 -7.64878
L37.9171 -7.60234
L37.4205 -7.56455
L36.9236 -7.53542
L36.4263 -7.51497
L35.9289 -7.50319
L35.4315 -7.50009
L34.9343 -7.50567
L34.4374 -7.51993
L33.941 -7.54287
L33.4452 -7.57447
L32.9502 -7.61474
L32.4561 -7.66365
L31.9631 -7.72119
L31.4714 -7.78735
L30.981 -7.8621
L30.4921 -7.94542
L30.005 -8.03728
L29.5196 -8.13767
L29.0362 -8.24654
L28.555 -8.36386
L28.076 -8.48961
L27.5994 -8.62373
L27.1254 -8.76619
L26.6541 -8.91695
L26.1856 -9.07596
L25.7201 -9.24317
L25.2578 -9.41853
L24.7987 -9.60199
L24.3431 -9.79348
L23.891 -9.99296
L23.4425 -10.2004
L22.9979 -10.4156
L22.5573 -10.6387
L22.1208 -10.8695
L21.6885 -11.1079
L21.2605 -11.3539
L20.837 -11.6074
L20.4182 -11.8684
L20.0041 -12.1367
L19.5949 -12.4123
L19.1906 -12.695
L18.7915 -12.9849
L18.3977 -13.2818
L18.0092 -13.5856
L17.6261 -13.8962
L17.2487 -14.2135
L16.877 -14.5375
L16.5111 -14.868
L16.1511 -15.205
L15.7972 -15.5483
L15.4495 -15.8978
L15.108 -16.2535
L14.7728 -16.6151
L14.4442 -16.9827
L14.1221 -17.3561
L13.8067 -17.7351
L13.498 -18.1197
L13.1962 -18.5097
L12.9013 -18.9051
L12.6134 -19.3057
L12.3327 -19.7114
L12.0592 -20.122
L11.793 -20.5375
L11.5342 -20.9577
z
" id="C0_1_e201de2ddb"/>
     <path d="
M8.56453 -28.5492
L8.65513 -28.9663
L8.73491 -29.419
L8.80876 -29.8991
L8.88071 -30.3998
L8.95386 -30.9153
L9.03054 -31.441
L9.11246 -31.9734
L9.2008 -32.5095
L9.29639 -33.047
L9.39976 -33.5841
L9.5112 -34.1192
L9.63086 -34.6512
L9.75874 -35.179
L9.89477 -35.7016
L10.0388 -36.2186
L10.1906 -36.7291
L10.3499 -37.2328
L10.5164 -37.7292
L10.6898 -38.2181
L10.8699 -38.6991
L11.0561 -39.172
L11.2484 -39.6366
L11.4462 -40.0929
L11.6493 -40.5407
L11.8573 -40.98
L12.07 -41.4107
L12.2869 -41.8329
L12.5079 -42.2465
L12.7326 -42.6517
L12.9607 -43.0484
L13.192 -43.4368
L13.4262 -43.8169
L13.6631 -44.1889
L13.9025 -44.5527
L14.1441 -44.9087
L14.3877 -45.2569
L14.6332 -45.5974
L14.8804 -45.9303
L15.1291 -46.2559
L15.3791 -46.5742
L15.6304 -46.8855
L15.8827 -47.1898
L16.136 -47.4873
L16.3902 -47.7782
L16.6451 -48.0626
L16.9007 -48.3406
L17.1568 -48.6125
L17.4134 -48.8784
L17.6705 -49.1384
L17.9279 -49.3926
L18.1857 -49.6412
L18.4437 -49.8844
L18.702 -50.1223
L18.9605 -50.355
L19.2191 -50.5826
L19.4779 -50.8053
L19.7369 -51.0232
L19.9959 -51.2364
L20.2551 -51.4451
L20.5143 -51.6493
L20.7737 -51.8492
L21.0332 -52.0448
L21.2928 -52.2364
L21.5526 -52.4239
L21.8125 -52.6075
L22.0725 -52.7873
L22.3328 -52.9633
L22.5932 -53.1357
L22.8539 -53.3046
L23.1148 -53.4699
L23.376 -53.6319
L23.6376 -53.7905
L23.8994 -53.9459
L24.1617 -54.0981
L24.4245 -54.2472
L24.6876 -54.3932
L24.9513 -54.5362
L25.2156 -54.6762
L25.4804 -54.8134
L25.7459 -54.9477
L26.0121 -55.0792
L26.2791 -55.208
L26.5468 -55.3341
L26.8154 -55.4575
L27.0849 -55.5782
L27.3553 -55.6964
L27.6268 -55.8119
L27.8993 -55.9249
L28.173 -56.0354
L28.4478 -56.1434
L28.7239 -56.2489
L29.0013 -56.3519
L29.2801 -56.4524
L29.5603 -56.5505
L29.8421 -56.6461
L30.1254 -56.7393
L30.4104 -56.83
L30.6971 -56.9183
L30.9855 -57.0041
L31.2758 -57.0874
L31.5681 -57.1682
L31.8623 -57.2465
L32.1586 -57.3223
L32.4571 -57.3956
L32.7578 -57.4662
L33.0608 -57.5343
L33.3662 -57.5996
L33.674 -57.6623
L33.9844 -57.7223
L34.2974 -57.7794
L34.6131 -57.8337
L34.9315 -57.8851
L35.2528 -57.9336
L35.5771 -57.979
L35.9043 -58.0213
L36.2347 -58.0604
L36.5682 -58.0963
L36.905 -58.1288
L37.2451 -58.1578
L37.5886 -58.1834
L37.9356 -58.2052
L38.2862 -58.2233
L38.6404 -58.2375
L38.9983 -58.2477
L39.3599 -58.2538
L39.7254 -58.2556
L40.0948 -58.253
L40.4682 -58.2458
L40.8455 -58.2338
L41.227 -58.217
L41.6125 -58.1952
L42.0021 -58.1681
L42.396 -58.1356
L42.794 -58.0974
L43.1962 -58.0535
L43.6026 -58.0035
L44.0133 -57.9473
L44.4282 -57.8847
L44.8472 -57.8154
L45.2704 -57.7392
L45.6976 -57.6558
L46.1289 -57.5651
L46.5642 -57.4668
L47.0033 -57.3607
L47.4462 -57.2464
L47.8926 -57.1238
L48.3425 -56.9927
L48.7957 -56.8528
L49.2521 -56.7038
L49.7112 -56.5456
L50.1731 -56.3779
L50.6372 -56.2006
L51.1035 -56.0135
L51.5715 -55.8164
L52.0409 -55.6092
L52.5113 -55.3919
L52.9823 -55.1643
L53.4534 -54.9266
L53.9242 -54.6787
L54.3941 -54.4209
L54.8625 -54.1534
L55.3289 -53.8765
L55.7926 -53.5909
L56.2528 -53.2973
L56.7088 -52.9965
L57.1596 -52.69
L57.6045 -52.3793
L58.0421 -52.0667
L58.4714 -51.755
L58.891 -51.4479
L59.2991 -51.1504
L59.694 -50.8686
L60.0735 -50.6102
L60.3043 -50.3844
L60.0409 -50.8845
L59.7701 -51.3064
L59.492 -51.7237
L59.2068 -52.1361
L58.9146 -52.5437
L58.6153 -52.9462
L58.3092 -53.3435
L57.9963 -53.7355
L57.6766 -54.1222
L57.3504 -54.5033
L57.0177 -54.8788
L56.6786 -55.2486
L56.3331 -55.6124
L55.9815 -55.9703
L55.6238 -56.3222
L55.2601 -56.6678
L54.8905 -57.0071
L54.5152 -57.3401
L54.1343 -57.6665
L53.7478 -57.9863
L53.3559 -58.2995
L52.9587 -58.6058
L52.5564 -58.9053
L52.149 -59.1977
L51.7367 -59.4832
L51.3196 -59.7614
L50.8979 -60.0325
L50.4716 -60.2962
L50.0409 -60.5525
L49.6059 -60.8013
L49.1668 -61.0426
L48.7236 -61.2762
L48.2766 -61.5021
L47.8259 -61.7203
L47.3715 -61.9307
L46.9137 -62.1331
L46.4526 -62.3276
L45.9882 -62.514
L45.5209 -62.6924
L45.0506 -62.8627
L44.5776 -63.0247
L44.1019 -63.1786
L43.6238 -63.3241
L43.1434 -63.4614
L42.6608 -63.5902
L42.1762 -63.7107
L41.6897 -63.8227
L41.2014 -63.9263
L40.7116 -64.0213
L40.2203 -64.1078
L39.7278 -64.1858
L39.2341 -64.2552
L38.7394 -64.3159
L38.2439 -64.368
L37.7477 -64.4115
L37.251 -64.4464
L36.7539 -64.4725
L36.2565 -64.49
L35.7591 -64.4988
L35.2618 -64.499
L34.7647 -64.4904
L34.2679 -64.4732
L33.7717 -64.4473
L33.2762 -64.4128
L32.7815 -64.3695
L32.2878 -64.3177
L31.7952 -64.2572
L31.3039 -64.1881
L30.814 -64.1104
L30.3257 -64.0242
L29.8391 -63.9294
L29.3544 -63.8261
L28.8717 -63.7144
L28.3912 -63.5942
L27.9131 -63.4656
L27.4373 -63.3286
L26.9642 -63.1833
L26.4939 -63.0297
L26.0264 -62.8679
L25.562 -62.6979
L25.1007 -62.5198
L24.6428 -62.3336
L24.1884 -62.1393
L23.7375 -61.9371
L23.2904 -61.727
L22.8471 -61.5091
L22.4078 -61.2834
L21.9727 -61.05
L21.5419 -60.809
L21.1155 -60.5604
L20.6936 -60.3043
L20.2763 -60.0409
L19.8639 -59.7701
L19.4563 -59.492
L19.0538 -59.2068
L18.6565 -58.9146
L18.2645 -58.6153
L17.8778 -58.3092
L17.4967 -57.9963
L17.1212 -57.6766
L16.7514 -57.3504
L16.3876 -57.0177
L16.0297 -56.6786
L15.6778 -56.3331
L15.3322 -55.9815
L14.9929 -55.6238
L14.6599 -55.2601
L14.3335 -54.8905
L14.0137 -54.5152
L13.7005 -54.1343
L13.3942 -53.7478
L13.0947 -53.3559
L12.8023 -52.9587
L12.5168 -52.5564
L12.2386 -52.149
L11.9675 -51.7367
L11.7038 -51.3196
L11.4475 -50.8979
L11.1987 -50.4716
L10.9574 -50.0409
L10.7238 -49.6059
L10.4979 -49.1668
L10.2797 -48.7236
L10.0693 -48.2766
L9.86691 -47.8259
L9.67243 -47.3715
L9.48597 -46.9137
L9.30758 -46.4526
L9.13733 -45.9882
L8.97526 -45.5209
L8.82142 -45.0506
L8.67586 -44.5776
L8.53862 -44.1019
L8.40975 -43.6238
L8.28928 -43.1434
L8.17726 -42.6608
L8.07371 -42.1762
L7.97866 -41.6897
L7.89215 -41.2014
L7.81421 -40.7116
L7.74484 -40.2203
L7.68409 -39.7278
L7.63196 -39.2341
L7.58847 -38.7394
L7.55364 -38.2439
L7.52747 -37.7477
L7.50997 -37.251
L7.50115 -36.7539
L7.50102 -36.2565
L7.50956 -35.7591
L7.52679 -35.2618
L7.55268 -34.7647
L7.58724 -34.2679
L7.63046 -33.7717
L7.68232 -33.2762
L7.7428 -32.7815
L7.81189 -32.2878
L7.88957 -31.7952
L7.97581 -31.3039
L8.07059 -30.814
L8.17387 -30.3257
L8.28563 -29.8391
z
" id="C0_2_cf80a5ee2e"/>
    </defs>
    <g clip-path="url(#p1bffca34e9)">
     <use style="fill:#ff0000;stroke:#000000;stroke-width:2.0;" x="0.0" xlink:href="#C0_0_a811fe30f3" y="72.0"/>
    </g>
    <g clip-path="url(#p1bffca34e9)">
     <use style="fill:#ffffff;stroke:#000000;stroke-width:2.0;" x="0.0" xlink:href="#C0_1_e201de2ddb" y="72.0"/>
    </g>
    <g clip-path="url(#p1bffca34e9)">
     <use style="fill:#ffffff;stroke:#000000;stroke-width:2.0;" x="0.0" xlink:href="#C0_2_cf80a5ee2e" y="72.0"/>
    </g>
   </g>
  </g>
 </g>
 <defs>
  <clipPath id="p1bffca34e9">
   <rect height="72.0" width="72.0" x="0.0" y="0.0"/>
  </clipPath>
 </defs>
</svg>
