<?xml version="1.0" encoding="utf-8" standalone="no"?>
<!DOCTYPE svg PUBLIC "-//W3C//DTD SVG 1.1//EN"
  "http://www.w3.org/Graphics/SVG/1.1/DTD/svg11.dtd">
<!-- Created with matplotlib (http://matplotlib.org/) -->
<svg height="72pt" version="1.1" viewBox="0 0 72 72" width="72pt" xmlns="http://www.w3.org/2000/svg" xmlns:xlink="http://www.w3.org/1999/xlink">
 <defs>
  <style type="text/css">
*{stroke-linecap:butt;stroke-linejoin:round;}
  </style>
 </defs>
 <g id="figure_1">
  <g id="patch_1">
   <path d="
M0 72
L72 72
L72 0
L0 0
z
" style="fill:none;"/>
  </g>
  <g id="axes_1">
   <g id="PatchCollection_1">
    <defs>
     <path d="
M36 -7.5
C43.5583 -7.5 50.808 -10.5029 56.1525 -15.8475
C61.4971 -21.192 64.5 -28.4417 64.5 -36
C64.5 -43.5583 61.4971 -50.808 56.1525 -56.1525
C50.808 -61.4971 43.5583 -64.5 36 -64.5
C28.4417 -64.5 21.192 -61.4971 15.8475 -56.1525
C10.5029 -50.808 7.5 -43.5583 7.5 -36
C7.5 -28.4417 10.5029 -21.192 15.8475 -15.8475
C21.192 -10.5029 28.4417 -7.5 36 -7.5
z
" id="C0_0_a811fe30f3"/>
     <path d="
M19.3461 -12.9159
L19.2118 -13.2495
L19.1014 -13.5774
L19.0148 -13.8988
L18.9523 -14.2128
L18.9137 -14.519
L18.8988 -14.817
L18.9071 -15.1063
L18.9381 -15.3868
L18.991 -15.6586
L19.0648 -15.9216
L19.1587 -16.1762
L19.2715 -16.4225
L19.402 -16.6611
L19.5491 -16.8923
L19.7115 -17.1167
L19.8881 -17.3346
L20.0777 -17.5468
L20.279 -17.7536
L20.4911 -17.9555
L20.7128 -18.1531
L20.9431 -18.3468
L21.1812 -18.5369
L21.4261 -18.7239
L21.677 -18.9081
L21.9333 -19.0897
L22.1941 -19.2692
L22.4589 -19.4467
L22.727 -19.6224
L22.998 -19.7965
L23.2713 -19.9692
L23.5465 -20.1407
L23.8232 -20.311
L24.101 -20.4803
L24.3796 -20.6486
L24.6586 -20.816
L24.9379 -20.9827
L25.2171 -21.1485
L25.496 -21.3137
L25.7744 -21.4782
L26.0522 -21.6421
L26.3291 -21.8053
L26.605 -21.9679
L26.8799 -22.13
L27.1535 -22.2915
L27.4258 -22.4525
L27.6968 -22.6129
L27.9662 -22.7727
L28.2341 -22.9321
L28.5004 -23.0909
L28.7651 -23.2493
L29.0281 -23.4071
L29.2894 -23.5644
L29.549 -23.7213
L29.8068 -23.8776
L30.0629 -24.0335
L30.3173 -24.1889
L30.5699 -24.3439
L30.8207 -24.4984
L31.0699 -24.6524
L31.3173 -24.8061
L31.563 -24.9593
L31.807 -25.1121
L32.0494 -25.2645
L32.2901 -25.4165
L32.5293 -25.5682
L32.7669 -25.7195
L33.0029 -25.8705
L33.2374 -26.0212
L33.4705 -26.1716
L33.7021 -26.3217
L33.9323 -26.4716
L34.1612 -26.6212
L34.3888 -26.7706
L34.615 -26.9198
L34.8401 -27.0688
L35.0639 -27.2177
L35.2866 -27.3664
L35.5082 -27.515
L35.7287 -27.6636
L35.9482 -27.8121
L36.1668 -27.9605
L36.3844 -28.109
L36.6011 -28.2574
L36.8169 -28.406
L37.032 -28.5545
L37.2463 -28.7032
L37.4598 -28.852
L37.6728 -29.001
L37.8851 -29.1501
L38.0968 -29.2995
L38.308 -29.4491
L38.5187 -29.5989
L38.7289 -29.7491
L38.9387 -29.8996
L39.3574 -30.0504
L39.5663 -30.2016
L39.7749 -30.3533
L39.9834 -30.5054
L40.1918 -30.658
L40.4 -30.8111
L40.6082 -30.9648
L40.8163 -31.119
L41.0245 -31.2739
L41.2328 -31.4294
L41.4411 -31.5855
L41.6496 -31.7424
L41.8583 -31.9001
L42.0673 -32.0585
L42.2765 -32.2177
L42.486 -32.3778
L42.6958 -32.5388
L42.9061 -32.7007
L43.1168 -32.8635
L43.3279 -33.0273
L43.5395 -33.1922
L43.7517 -33.3581
L43.9644 -33.5251
L44.1778 -33.6932
L44.3918 -33.8624
L44.6064 -34.0329
L44.8218 -34.2046
L45.0379 -34.3775
L45.2548 -34.5517
L45.4725 -34.7272
L45.691 -34.9041
L45.9104 -35.0823
L46.1307 -35.262
L46.3519 -35.4431
L46.574 -35.6256
L46.7971 -35.8096
L47.0212 -35.9951
L47.2463 -36.1821
L47.4724 -36.3706
L47.6995 -36.5607
L47.9277 -36.7524
L48.1569 -36.9456
L48.3873 -37.1403
L48.6187 -37.3367
L48.8512 -37.5346
L49.0848 -37.7341
L49.3195 -37.9351
L49.5553 -38.1376
L49.7921 -38.3416
L50.0301 -38.5471
L50.2692 -38.754
L50.5093 -38.9623
L50.7504 -39.1718
L50.9926 -39.3826
L51.2359 -39.5945
L51.4801 -39.8075
L51.7253 -40.0215
L51.9714 -40.2362
L52.2185 -40.4517
L52.4665 -40.6676
L52.7153 -40.8839
L52.965 -41.1004
L53.2155 -41.3167
L53.4668 -41.5327
L53.7189 -41.7481
L53.9717 -41.9626
L54.2252 -42.1758
L54.4794 -42.3874
L54.7343 -42.5969
L54.9899 -42.8039
L55.2462 -43.0078
L55.5032 -43.2082
L55.7609 -43.4043
L56.0193 -43.5956
L56.2786 -43.7813
L56.5387 -43.9606
L56.7997 -44.1326
L57.0618 -44.2965
L57.3249 -44.4512
L57.5892 -44.5957
L57.8548 -44.7289
L58.1218 -44.8495
L58.3903 -44.9564
L58.6604 -45.0484
L58.9321 -45.1241
L59.2054 -45.1822
L59.4804 -45.2217
L59.7571 -45.2412
L60.0352 -45.2397
L60.3147 -45.2162
L60.5951 -45.17
L60.8764 -45.1002
L61.1579 -45.0065
L61.4393 -44.8885
L61.72 -44.7462
L61.9993 -44.5796
L62.2768 -44.3891
L62.5516 -44.1752
L62.8231 -43.9384
L63.0907 -43.6795
L63.3535 -43.3993
L63.6109 -43.0989
L63.7924 -42.7791
L63.8983 -42.3115
L63.9957 -41.8255
L64.0846 -41.3377
L64.1649 -40.8483
L64.2367 -40.3574
L64.2998 -39.8652
L64.3544 -39.3718
L64.4003 -38.8774
L64.4375 -38.3821
L64.4661 -37.8861
L64.486 -37.3895
L64.4973 -36.8925
L64.4998 -36.3952
L64.4937 -35.8978
L64.4789 -35.4004
L64.4554 -34.9032
L64.4233 -34.4064
L64.3825 -33.91
L64.333 -33.4142
L64.2749 -32.9193
L64.2082 -32.4253
L64.1329 -31.9324
L64.0491 -31.4407
L63.9567 -30.9504
L63.8558 -30.4616
L63.7464 -29.9746
L63.6285 -29.4893
L63.5023 -29.0061
L63.3676 -28.525
L63.2246 -28.0461
L63.0733 -27.5697
L62.9138 -27.0959
L62.7461 -26.6247
L62.5702 -26.1564
L62.3863 -25.6911
L62.1943 -25.229
L61.9943 -24.7701
L61.7864 -24.3147
L61.5707 -23.8628
L61.3471 -23.4146
L61.1159 -22.9703
L60.8769 -22.5299
L60.6305 -22.0936
L60.3765 -21.6616
L60.115 -21.2339
L59.8463 -20.8107
L59.5703 -20.3922
L59.287 -19.9784
L58.9967 -19.5694
L58.6994 -19.1655
L58.3952 -18.7667
L58.0842 -18.3732
L57.7664 -17.985
L57.442 -17.6024
L57.1111 -17.2253
L56.7737 -16.8539
L56.43 -16.4884
L56.0801 -16.1288
L55.7241 -15.7753
L55.3621 -15.4279
L54.9941 -15.0868
L54.6204 -14.7521
L54.241 -14.4238
L53.8561 -14.1022
L53.4657 -13.7872
L53.07 -13.4789
L52.6691 -13.1775
L52.2631 -12.8831
L51.8521 -12.5957
L51.4364 -12.3154
L51.0159 -12.0424
L50.5909 -11.7766
L50.1614 -11.5182
L49.7276 -11.2673
L49.2896 -11.0239
L48.8476 -10.7882
L48.4016 -10.5601
L47.9519 -10.3397
L47.4985 -10.1272
L47.0417 -9.92254
L46.5814 -9.72584
L46.118 -9.53714
L45.6515 -9.35649
L45.182 -9.18397
L44.7097 -9.01961
L44.2348 -8.86347
L43.7573 -8.7156
L43.2776 -8.57604
L42.7955 -8.44483
L42.3115 -8.32202
L41.8255 -8.20764
L41.3377 -8.10172
L40.8483 -8.0043
L40.3574 -7.91541
L39.8652 -7.83507
L39.3718 -7.76331
L38.8774 -7.70016
L38.3821 -7.64562
L37.8861 -7.59972
L37.3895 -7.56248
L36.8925 -7.53389
L36.3952 -7.51398
L35.8978 -7.50274
L35.4004 -7.50018
L34.9032 -7.50631
L34.4064 -7.52111
L33.91 -7.54459
L33.4142 -7.57674
L32.9193 -7.61754
L32.4253 -7.66699
L31.9324 -7.72507
L31.4407 -7.79177
L30.9504 -7.86705
L30.4616 -7.95091
L29.9746 -8.04331
L29.4893 -8.14423
L29.0061 -8.25363
L28.525 -8.37148
L28.0461 -8.49775
L27.5697 -8.63239
L27.0959 -8.77538
L26.6247 -8.92665
L26.1564 -9.08618
L25.6911 -9.2539
L25.229 -9.42976
L24.7701 -9.61372
L24.3147 -9.80572
L23.8628 -10.0057
L23.4146 -10.2136
L22.9703 -10.4293
L22.5299 -10.6529
L22.0936 -10.8841
L21.6616 -11.1231
L21.2339 -11.3695
L20.8107 -11.6235
L20.3922 -11.885
L19.9784 -12.1537
z
" id="C0_1_3a25537bd0"/>
     <path d="
M8.32731 -29.6028
L8.40032 -30.0242
L8.47481 -30.451
L8.55132 -30.8823
L8.63036 -31.3171
L8.71234 -31.7545
L8.79762 -32.1938
L8.88651 -32.6341
L8.97924 -33.0747
L9.07601 -33.515
L9.17697 -33.9544
L9.28221 -34.3923
L9.39181 -34.8282
L9.5058 -35.2617
L9.62418 -35.6924
L9.74693 -36.1199
L9.874 -36.544
L10.0053 -36.9642
L10.1409 -37.3804
L10.2805 -37.7924
L10.4241 -38.1999
L10.5716 -38.6027
L10.7229 -39.0009
L10.8778 -39.3941
L11.0363 -39.7824
L11.1981 -40.1657
L11.3633 -40.5439
L11.5316 -40.9169
L11.7029 -41.2847
L11.8771 -41.6474
L12.0542 -42.0049
L12.2339 -42.3572
L12.4162 -42.7043
L12.6009 -43.0463
L12.788 -43.3832
L12.9773 -43.7151
L13.1688 -44.0419
L13.3624 -44.3638
L13.5579 -44.6808
L13.7553 -44.9929
L13.9546 -45.3003
L14.1556 -45.6029
L14.3583 -45.9009
L14.5626 -46.1944
L14.7685 -46.4834
L14.9759 -46.7679
L15.1848 -47.0482
L15.3951 -47.3241
L15.6068 -47.5959
L15.8198 -47.8636
L16.0341 -48.1273
L16.2497 -48.387
L16.4666 -48.6429
L16.6847 -48.8949
L16.9041 -49.1433
L17.1246 -49.388
L17.3464 -49.6291
L17.5693 -49.8667
L17.7934 -50.1009
L18.0187 -50.3318
L18.2452 -50.5593
L18.4728 -50.7836
L18.7017 -51.0048
L18.9318 -51.2229
L19.1631 -51.4379
L19.3956 -51.6499
L19.6293 -51.8591
L19.8644 -52.0654
L20.1007 -52.2688
L20.3383 -52.4695
L20.5772 -52.6675
L20.8175 -52.8629
L21.0592 -53.0556
L21.3023 -53.2457
L21.5469 -53.4334
L21.7929 -53.6185
L22.0405 -53.8012
L22.2896 -53.9815
L22.5403 -54.1594
L22.7927 -54.3349
L23.0467 -54.5082
L23.3025 -54.6791
L23.56 -54.8478
L23.8193 -55.0142
L24.0805 -55.1784
L24.3436 -55.3404
L24.6087 -55.5002
L24.8758 -55.6579
L25.1449 -55.8133
L25.4162 -55.9666
L25.6897 -56.1178
L25.9653 -56.2668
L26.2433 -56.4136
L26.5236 -56.5583
L26.8064 -56.7009
L27.0916 -56.8413
L27.3793 -56.9795
L27.6696 -57.1155
L27.9626 -57.2493
L28.2583 -57.3809
L28.5567 -57.5103
L28.858 -57.6374
L29.1622 -57.7622
L29.4694 -57.8847
L29.7796 -58.0048
L30.0929 -58.1225
L30.4094 -58.2377
L30.7291 -58.3505
L31.0521 -58.4607
L31.3784 -58.5684
L31.7081 -58.6734
L32.0413 -58.7757
L32.378 -58.8752
L32.7183 -58.9719
L33.0622 -59.0657
L33.4098 -59.1566
L33.7611 -59.2443
L34.1162 -59.329
L34.4751 -59.4104
L34.8378 -59.4885
L35.2043 -59.5632
L35.5748 -59.6345
L35.9492 -59.7022
L36.3275 -59.7661
L36.7097 -59.8263
L37.0958 -59.8827
L37.4859 -59.935
L37.8798 -59.9833
L38.2777 -60.0274
L38.6793 -60.0672
L39.0847 -60.1026
L39.4938 -60.1335
L39.9065 -60.1599
L40.3227 -60.1816
L40.7424 -60.1985
L41.1653 -60.2107
L41.5914 -60.2179
L42.0204 -60.2203
L42.4522 -60.2177
L42.8867 -60.2101
L43.3234 -60.1975
L43.7623 -60.1799
L44.203 -60.1574
L44.6452 -60.1301
L45.0886 -60.0981
L45.5327 -60.0614
L45.9773 -60.0204
L46.4219 -59.9752
L46.866 -59.9261
L47.3092 -59.8734
L47.7508 -59.8176
L48.1904 -59.7591
L48.6273 -59.6984
L49.0608 -59.6361
L49.4905 -59.573
L49.9154 -59.5097
L50.335 -59.4471
L50.7484 -59.3861
L51.1548 -59.3277
L51.5535 -59.273
L51.9437 -59.2229
L52.0016 -59.1788
L51.5875 -59.5839
L51.1688 -59.8596
L50.7454 -60.128
L50.3175 -60.389
L49.8852 -60.6427
L49.4487 -60.8888
L49.0081 -61.1273
L48.5636 -61.3582
L48.1152 -61.5814
L47.6632 -61.7967
L47.2076 -62.0042
L46.7485 -62.2038
L46.2862 -62.3954
L45.8208 -62.579
L45.3524 -62.7545
L44.8811 -62.9218
L44.4071 -63.0809
L43.9306 -63.2318
L43.4516 -63.3744
L42.9704 -63.5086
L42.487 -63.6345
L42.0017 -63.7519
L41.5146 -63.8609
L41.0257 -63.9614
L40.5354 -64.0534
L40.0436 -64.1368
L39.5506 -64.2117
L39.0566 -64.278
L38.5616 -64.3356
L38.0658 -64.3846
L37.5694 -64.425
L37.0725 -64.4568
L36.5753 -64.4798
L36.078 -64.4942
L35.5806 -64.4999
L35.0833 -64.4969
L34.5863 -64.4853
L34.0897 -64.4649
L33.5937 -64.4359
L33.0985 -64.3982
L32.6041 -64.3519
L32.1108 -64.297
L31.6186 -64.2334
L31.1278 -64.1612
L30.6385 -64.0805
L30.1508 -63.9911
L29.6649 -63.8933
L29.1809 -63.787
L28.699 -63.6722
L28.2193 -63.549
L27.742 -63.4173
L27.2672 -63.2774
L26.7951 -63.1291
L26.3257 -62.9726
L25.8593 -62.8078
L25.396 -62.6349
L24.936 -62.4538
L24.4793 -62.2648
L24.0261 -62.0677
L23.5765 -61.8626
L23.1308 -61.6497
L22.6889 -61.429
L22.2512 -61.2005
L21.8176 -60.9644
L21.3883 -60.7206
L20.9635 -60.4693
L20.5432 -60.2106
L20.1277 -59.9445
L19.717 -59.6711
L19.3113 -59.3905
L18.9106 -59.1027
L18.5151 -58.8079
L18.125 -58.5062
L17.7403 -58.1976
L17.3612 -57.8823
L16.9878 -57.5603
L16.6201 -57.2317
L16.2584 -56.8967
L15.9027 -56.5553
L15.553 -56.2076
L15.2097 -55.8538
L14.8726 -55.4939
L14.542 -55.1281
L14.2179 -54.7564
L13.9005 -54.3791
L13.5898 -53.9961
L13.2859 -53.6077
L12.9889 -53.2139
L12.699 -52.8149
L12.4161 -52.4107
L12.1404 -52.0016
L11.872 -51.5875
L11.611 -51.1688
L11.3573 -50.7454
L11.1112 -50.3175
L10.8727 -49.8852
L10.6418 -49.4487
L10.4186 -49.0081
L10.2033 -48.5636
L9.99576 -48.1152
L9.79617 -47.6632
L9.60456 -47.2076
L9.42099 -46.7485
L9.24552 -46.2862
L9.0782 -45.8208
L8.91908 -45.3524
L8.76821 -44.8811
L8.62563 -44.4071
L8.49139 -43.9306
L8.36553 -43.4516
L8.24809 -42.9704
L8.13911 -42.487
L8.0386 -42.0017
L7.94662 -41.5146
L7.86318 -41.0257
L7.78832 -40.5354
L7.72204 -40.0436
L7.66438 -39.5506
L7.61535 -39.0566
L7.57497 -38.5616
L7.54324 -38.0658
L7.52019 -37.5694
L7.50581 -37.0725
L7.50011 -36.5753
L7.50309 -36.078
L7.51475 -35.5806
L7.53508 -35.0833
L7.56409 -34.5863
L7.60176 -34.0897
L7.64808 -33.5937
L7.70304 -33.0985
L7.76662 -32.6041
L7.83879 -32.1108
L7.91955 -31.6186
L8.00885 -31.1278
L8.10669 -30.6385
z
" id="C0_2_cb5fee2956"/>
    </defs>
    <g clip-path="url(#p1bffca34e9)">
     <use style="fill:#ff0000;stroke:#000000;stroke-width:2.0;" x="0.0" xlink:href="#C0_0_a811fe30f3" y="72.0"/>
    </g>
    <g clip-path="url(#p1bffca34e9)">
     <use style="fill:#ffffff;stroke:#000000;stroke-width:2.0;" x="0.0" xlink:href="#C0_1_3a25537bd0" y="72.0"/>
    </g>
    <g clip-path="url(#p1bffca34e9)">
     <use style="fill:#ffffff;stroke:#000000;stroke-width:2.0;" x="0.0" xlink:href="#C0_2_cb5fee2956" y="72.0"/>
    </g>
   </g>
  </g>
 </g>
 <defs>
  <clipPath id="p1bffca34e9">
   <rect height="72.0" width="72.0" x="0.0" y="0.0"/>
  </clipPath>
 </defs>
</svg>
