<?xml version="1.0" encoding="utf-8" standalone="no"?>
<!DOCTYPE svg PUBLIC "-//W3C//DTD SVG 1.1//EN"
  "http://www.w3.org/Graphics/SVG/1.1/DTD/svg11.dtd">
<!-- Created with matplotlib (http://matplotlib.org/) -->
<svg height="72pt" version="1.1" viewBox="0 0 72 72" width="72pt" xmlns="http://www.w3.org/2000/svg" xmlns:xlink="http://www.w3.org/1999/xlink">
 <defs>
  <style type="text/css">
*{stroke-linecap:butt;stroke-linejoin:round;}
  </style>
 </defs>
 <g id="figure_1">
  <g id="patch_1">
   <path d="
M0 72
L72 72
L72 0
L0 0
z
" style="fill:none;"/>
  </g>
  <g id="axes_1">
   <g id="PatchCollection_1">
    <defs>
     <path d="
M36 -7.5
C43.5583 -7.5 50.808 -10.5029 56.1525 -15.8475
C61.4971 -21.192 64.5 -28.4417 64.5 -36
C64.5 -43.5583 61.4971 -50.808 56.1525 -56.1525
C50.808 -61.4971 43.5583 -64.5 36 -64.5
C28.4417 -64.5 21.192 -61.4971 15.8475 -56.1525
C10.5029 -50.808 7.5 -43.5583 7.5 -36
C7.5 -28.4417 10.5029 -21.192 15.8475 -15.8475
C21.192 -10.5029 28.4417 -7.5 36 -7.5
z
" id="C0_0_a811fe30f3"/>
     <path d="
M34.3561 -64.3083
L34.7315 -64.0959
L35.0951 -63.8702
L35.4476 -63.6327
L35.7893 -63.3849
L36.1206 -63.1281
L36.4419 -62.8632
L36.7535 -62.5913
L37.0557 -62.3132
L37.3488 -62.0297
L37.6331 -61.7415
L37.9088 -61.4491
L38.1762 -61.1532
L38.4356 -60.8542
L38.6871 -60.5527
L38.9311 -60.249
L39.1676 -59.9435
L39.397 -59.6366
L39.6194 -59.3286
L39.8351 -59.0199
L40.0441 -58.7106
L40.2469 -58.401
L40.4434 -58.0914
L40.6339 -57.7819
L40.8187 -57.4728
L40.9978 -57.1643
L41.1714 -56.8564
L41.3397 -56.5493
L41.503 -56.2431
L41.6612 -55.938
L41.8146 -55.634
L41.9634 -55.3313
L42.1077 -55.0298
L42.2476 -54.7297
L42.3833 -54.4311
L42.5149 -54.1339
L42.6426 -53.8382
L42.7664 -53.544
L42.8865 -53.2513
L43.003 -52.9602
L43.116 -52.6707
L43.2257 -52.3828
L43.3321 -52.0964
L43.4354 -51.8116
L43.5356 -51.5284
L43.6329 -51.2467
L43.7273 -50.9665
L43.8189 -50.6878
L43.9079 -50.4105
L43.9942 -50.1347
L44.078 -49.8603
L44.1594 -49.5873
L44.2384 -49.3156
L44.3151 -49.0452
L44.3895 -48.776
L44.4618 -48.5081
L44.5319 -48.2413
L44.6 -47.9756
L44.6661 -47.711
L44.7303 -47.4474
L44.7925 -47.1848
L44.8529 -46.9231
L44.9116 -46.6622
L44.9684 -46.4022
L45.0236 -46.143
L45.0771 -45.8844
L45.1289 -45.6265
L45.1792 -45.3692
L45.2279 -45.1125
L45.275 -44.8562
L45.3207 -44.6003
L45.3649 -44.3449
L45.4076 -44.0897
L45.4489 -43.8348
L45.4889 -43.5801
L45.5274 -43.3256
L45.5646 -43.0711
L45.6005 -42.8166
L45.635 -42.5621
L45.6683 -42.3075
L45.7309 -42.0527
L45.7602 -41.7977
L45.7884 -41.5424
L45.8153 -41.2868
L45.8409 -41.0308
L45.8653 -40.7743
L45.8884 -40.5172
L45.9103 -40.2596
L45.931 -40.0013
L45.9504 -39.7423
L45.9685 -39.4825
L45.9855 -39.2218
L46.0011 -38.9602
L46.0155 -38.6977
L46.0286 -38.4341
L46.0404 -38.1693
L46.0509 -37.9034
L46.0601 -37.6363
L46.068 -37.3678
L46.0745 -37.098
L46.0796 -36.8267
L46.0833 -36.5539
L46.0856 -36.2795
L46.0865 -36.0034
L46.0859 -35.7257
L46.0837 -35.4461
L46.08 -35.1647
L46.0748 -34.8814
L46.0679 -34.5961
L46.0594 -34.3088
L46.0491 -34.0193
L46.0372 -33.7277
L46.0234 -33.4338
L46.0078 -33.1375
L45.9903 -32.839
L45.9708 -32.5379
L45.9493 -32.2344
L45.9258 -31.9284
L45.9001 -31.6197
L45.8723 -31.3083
L45.8421 -30.9943
L45.8096 -30.6774
L45.7747 -30.3578
L45.7373 -30.0353
L45.6973 -29.7099
L45.6546 -29.3816
L45.6091 -29.0503
L45.5607 -28.716
L45.5094 -28.3788
L45.4551 -28.0385
L45.3975 -27.6952
L45.3367 -27.3488
L45.2724 -26.9995
L45.2046 -26.6471
L45.1332 -26.2918
L45.058 -25.9336
L44.9789 -25.5725
L44.8958 -25.2085
L44.8085 -24.8418
L44.7168 -24.4724
L44.6207 -24.1005
L44.5199 -23.7262
L44.4143 -23.3495
L44.3038 -22.9707
L44.1882 -22.59
L44.0672 -22.2074
L43.9408 -21.8234
L43.8086 -21.438
L43.6706 -21.0517
L43.5265 -20.6647
L43.3761 -20.2773
L43.2191 -19.89
L43.0554 -19.5032
L42.8845 -19.1174
L42.7063 -18.7332
L42.5204 -18.3511
L42.3264 -17.9719
L42.1239 -17.5964
L41.9124 -17.2254
L41.6915 -16.8601
L41.4604 -16.5016
L41.2184 -16.1513
L40.9648 -15.8108
L40.6985 -15.4821
L40.4186 -15.1672
L40.1238 -14.8687
L39.813 -14.5893
L39.485 -14.332
L39.1391 -14.1001
L38.7746 -13.8965
L38.3916 -13.724
L37.9907 -13.5846
L37.5734 -13.4793
L37.1414 -13.4084
L36.6973 -13.3707
L36.2433 -13.3645
L35.7819 -13.3877
L35.3153 -13.4376
L34.8458 -13.5119
L34.3749 -13.608
L33.9044 -13.7239
L33.4355 -13.8575
L32.9694 -14.0071
L32.507 -14.1713
L32.0492 -14.3485
L31.5965 -14.5377
L31.1496 -14.7378
L30.709 -14.9477
L30.275 -15.1667
L29.848 -15.394
L29.4282 -15.6288
L29.0159 -15.8705
L28.6112 -16.1185
L28.2143 -16.3722
L27.8252 -16.6312
L27.4441 -16.8948
L27.071 -17.1627
L26.7058 -17.4345
L26.3486 -17.7097
L25.9993 -17.988
L25.6579 -18.2691
L25.3244 -18.5526
L24.9986 -18.8382
L24.6805 -19.1256
L24.3699 -19.4146
L24.0668 -19.705
L23.7711 -19.9965
L23.4826 -20.2889
L23.2012 -20.5821
L22.9267 -20.8758
L22.6591 -21.1699
L22.3983 -21.4643
L22.1439 -21.7588
L21.8961 -22.0532
L21.6545 -22.3476
L21.419 -22.6417
L21.1896 -22.9356
L20.966 -23.2291
L20.7481 -23.5221
L20.5359 -23.8146
L20.3291 -24.1066
L20.1277 -24.3979
L19.9314 -24.6887
L19.7403 -24.9787
L19.554 -25.268
L19.3726 -25.5567
L19.196 -25.8446
L19.0239 -26.1318
L18.8563 -26.4182
L18.693 -26.7039
L18.5341 -26.9889
L18.3793 -27.2731
L18.2285 -27.5567
L18.0818 -27.8396
L17.9389 -28.1218
L17.7998 -28.4033
L17.6644 -28.6843
L17.5327 -28.9646
L17.4044 -29.2444
L17.2797 -29.5237
L17.1583 -29.8024
L17.0403 -30.0807
L16.9255 -30.3587
L16.8139 -30.6362
L16.7054 -30.9134
L16.6001 -31.1903
L16.4977 -31.467
L16.3983 -31.7435
L16.3019 -32.0198
L16.2083 -32.296
L16.1176 -32.5722
L16.0297 -32.8484
L15.9445 -33.1247
L15.8621 -33.401
L15.7824 -33.6776
L15.7054 -33.9543
L15.631 -34.2313
L15.5593 -34.5087
L15.4902 -34.7864
L15.4237 -35.0646
L15.3597 -35.3433
L15.2984 -35.6225
L15.2397 -35.9024
L15.1835 -36.183
L15.1299 -36.4643
L15.0789 -36.7465
L15.0305 -37.0295
L14.9846 -37.3134
L14.9414 -37.5984
L14.9008 -37.8844
L14.8629 -38.1715
L14.8276 -38.4598
L14.7951 -38.7494
L14.7652 -39.0404
L14.7381 -39.3327
L14.7139 -39.6265
L14.6924 -39.9218
L14.6739 -40.2187
L14.6583 -40.5173
L14.6457 -40.8176
L14.6361 -41.1196
L14.6297 -41.4236
L14.6265 -41.7295
L14.6265 -42.0374
L14.6298 -42.3474
L14.6366 -42.6595
L14.6468 -42.9738
L14.6607 -43.2903
L14.6782 -43.6092
L14.6995 -43.9305
L14.7248 -44.2542
L14.7541 -44.5805
L14.7875 -44.9093
L14.8252 -45.2407
L14.8673 -45.5749
L14.9139 -45.9117
L14.9653 -46.2514
L15.0215 -46.5938
L15.0827 -46.9392
L15.1492 -47.2874
L15.221 -47.6386
L15.2983 -47.9928
L15.3814 -48.3499
L15.4704 -48.7101
L15.5657 -49.0732
L15.6672 -49.4394
L15.7754 -49.8086
L15.8905 -50.1808
L16.0126 -50.556
L16.142 -50.9341
L16.279 -51.315
L16.4239 -51.6989
L16.5769 -52.0854
L16.7383 -52.4747
L16.9084 -52.8665
L17.0875 -53.2607
L17.2759 -53.6573
L17.4738 -54.056
L17.6816 -54.4567
L17.8996 -54.8591
L18.1281 -55.2631
L18.3674 -55.6684
L18.6178 -56.0746
L18.8795 -56.4816
L19.153 -56.889
L19.4384 -57.2963
L19.7361 -57.7032
L20.0462 -58.1092
L20.3691 -58.5139
L20.7049 -58.9167
L21.0539 -59.317
L21.4161 -59.7142
L21.7918 -60.1076
L22.1808 -60.4964
L22.5984 -60.8799
L23.0394 -61.1525
L23.4844 -61.3825
L23.9332 -61.6049
L24.3856 -61.8194
L24.8416 -62.0261
L25.301 -62.2248
L25.7636 -62.4155
L26.2294 -62.5982
L26.6981 -62.7728
L27.1697 -62.9393
L27.644 -63.0975
L28.1208 -63.2475
L28.6 -63.3892
L29.0814 -63.5225
L29.565 -63.6475
L30.0505 -63.764
L30.5379 -63.8721
L31.0269 -63.9717
L31.5174 -64.0628
L32.0093 -64.1453
L32.5024 -64.2192
L32.9966 -64.2846
L33.4916 -64.3413
z
" id="C0_1_1af50ba9a6"/>
     <path d="
M49.3231 -10.9189
L48.786 -10.7959
L48.2473 -10.6813
L47.7076 -10.5745
L47.1678 -10.475
L46.6288 -10.382
L46.0917 -10.2945
L45.5576 -10.2113
L45.0278 -10.1309
L44.5037 -10.0516
L43.9868 -9.9711
L43.4788 -9.88705
L42.9814 -9.7967
L42.4962 -9.69715
L42.0247 -9.58558
L41.5679 -9.45949
L41.1263 -9.31702
L40.6998 -9.1572
L40.2875 -8.98011
L39.8881 -8.78676
L39.4999 -8.57893
L39.1208 -8.35889
L38.7491 -8.1291
L38.3828 -7.89201
L38.5218 -7.64992
L39.0168 -7.61179
L39.511 -7.66012
L40.004 -7.71709
L40.4959 -7.78267
L40.9864 -7.85685
L41.4753 -7.9396
L41.9626 -8.03089
L42.4481 -8.13071
L42.9316 -8.23902
L43.413 -8.35578
L43.8922 -8.48097
L44.3689 -8.61453
L44.8431 -8.75644
L45.3146 -8.90665
L45.7832 -9.06511
L46.2489 -9.23177
L46.7115 -9.40659
L47.1708 -9.58951
L47.6267 -9.78047
L48.079 -9.97942
L48.5277 -10.1863
z
" id="C0_2_b0a72aa63b"/>
    </defs>
    <g clip-path="url(#p1bffca34e9)">
     <use style="fill:#ffffff;stroke:#000000;stroke-width:2.0;" x="0.0" xlink:href="#C0_0_a811fe30f3" y="72.0"/>
    </g>
    <g clip-path="url(#p1bffca34e9)">
     <use style="fill:#ff0000;stroke:#000000;stroke-width:2.0;" x="0.0" xlink:href="#C0_1_1af50ba9a6" y="72.0"/>
    </g>
    <g clip-path="url(#p1bffca34e9)">
     <use style="fill:#ff0000;stroke:#000000;stroke-width:2.0;" x="0.0" xlink:href="#C0_2_b0a72aa63b" y="72.0"/>
    </g>
   </g>
  </g>
 </g>
 <defs>
  <clipPath id="p1bffca34e9">
   <rect height="72.0" width="72.0" x="0.0" y="0.0"/>
  </clipPath>
 </defs>
</svg>
