<?xml version="1.0" encoding="utf-8" standalone="no"?>
<!DOCTYPE svg PUBLIC "-//W3C//DTD SVG 1.1//EN"
  "http://www.w3.org/Graphics/SVG/1.1/DTD/svg11.dtd">
<!-- Created with matplotlib (http://matplotlib.org/) -->
<svg height="72pt" version="1.1" viewBox="0 0 72 72" width="72pt" xmlns="http://www.w3.org/2000/svg" xmlns:xlink="http://www.w3.org/1999/xlink">
 <defs>
  <style type="text/css">
*{stroke-linecap:butt;stroke-linejoin:round;}
  </style>
 </defs>
 <g id="figure_1">
  <g id="patch_1">
   <path d="
M0 72
L72 72
L72 0
L0 0
z
" style="fill:none;"/>
  </g>
  <g id="axes_1">
   <g id="PatchCollection_1">
    <defs>
     <path d="
M36 -7.5
C43.5583 -7.5 50.808 -10.5029 56.1525 -15.8475
C61.4971 -21.192 64.5 -28.4417 64.5 -36
C64.5 -43.5583 61.4971 -50.808 56.1525 -56.1525
C50.808 -61.4971 43.5583 -64.5 36 -64.5
C28.4417 -64.5 21.192 -61.4971 15.8475 -56.1525
C10.5029 -50.808 7.5 -43.5583 7.5 -36
C7.5 -28.4417 10.5029 -21.192 15.8475 -15.8475
C21.192 -10.5029 28.4417 -7.5 36 -7.5
z
" id="C0_0_a811fe30f3"/>
     <path d="
M9.09816 -26.6321
L9.30721 -26.6486
L9.5161 -26.6687
L9.72483 -26.6922
L9.9334 -26.7189
L10.1418 -26.7488
L10.3501 -26.7817
L10.5582 -26.8175
L10.7662 -26.8562
L10.9741 -26.8975
L11.1819 -26.9415
L11.3896 -26.988
L11.5972 -27.037
L11.8047 -27.0883
L12.0122 -27.1419
L12.2196 -27.1978
L12.427 -27.2558
L12.6344 -27.3158
L12.8418 -27.378
L13.0493 -27.4421
L13.2567 -27.5081
L13.4642 -27.576
L13.6718 -27.6458
L13.8795 -27.7174
L14.0873 -27.7907
L14.2952 -27.8657
L14.5032 -27.9425
L14.7115 -28.0209
L14.9198 -28.1009
L15.1284 -28.1825
L15.3372 -28.2657
L15.5463 -28.3505
L15.7556 -28.4369
L15.9652 -28.5247
L16.1751 -28.6141
L16.3853 -28.705
L16.8067 -28.7973
L17.018 -28.8912
L17.2296 -28.9865
L17.4417 -29.0832
L17.6542 -29.1814
L17.8671 -29.2811
L18.0806 -29.3822
L18.2945 -29.4848
L18.5089 -29.5889
L18.7238 -29.6943
L18.9393 -29.8013
L19.1553 -29.9097
L19.3719 -30.0195
L19.5891 -30.1309
L19.8069 -30.2437
L20.0253 -30.358
L20.2443 -30.4738
L20.464 -30.5911
L20.6844 -30.7099
L20.9053 -30.8302
L21.127 -30.9521
L21.3494 -31.0756
L21.5724 -31.2006
L21.7962 -31.3273
L22.0206 -31.4555
L22.2457 -31.5854
L22.4716 -31.7169
L22.6982 -31.85
L22.9254 -31.9849
L23.1534 -32.1214
L23.382 -32.2597
L23.6114 -32.3997
L23.8414 -32.5415
L24.0721 -32.685
L24.3035 -32.8304
L24.5355 -32.9776
L24.7681 -33.1267
L25.0013 -33.2776
L25.2351 -33.4305
L25.4694 -33.5853
L25.7042 -33.7421
L25.9395 -33.9008
L26.1753 -34.0616
L26.4114 -34.2244
L26.6479 -34.3892
L26.8846 -34.5562
L27.1217 -34.7253
L27.3589 -34.8965
L27.5962 -35.0699
L27.8335 -35.2455
L28.0709 -35.4233
L28.3081 -35.6034
L28.5452 -35.7858
L28.782 -35.9705
L29.0184 -36.1575
L29.2544 -36.3468
L29.4898 -36.5386
L29.7245 -36.7328
L29.9584 -36.9294
L30.1915 -37.1285
L30.4234 -37.3301
L30.6542 -37.5342
L30.8837 -37.7408
L31.1118 -37.9499
L31.3382 -38.1617
L31.5629 -38.376
L31.7857 -38.5929
L32.0064 -38.8124
L32.2248 -39.0346
L32.4409 -39.2594
L32.6544 -39.4869
L32.8651 -39.717
L33.0729 -39.9498
L33.2776 -40.1853
L33.479 -40.4234
L33.677 -40.6642
L33.8712 -40.9076
L34.0617 -41.1536
L34.2481 -41.4022
L34.4304 -41.6535
L34.6083 -41.9072
L34.7816 -42.1636
L34.9503 -42.4224
L35.1142 -42.6836
L35.2731 -42.9472
L35.4268 -43.2132
L35.5753 -43.4815
L35.7184 -43.7519
L35.856 -44.0245
L35.988 -44.2992
L36.1142 -44.5759
L36.2348 -44.8544
L36.3494 -45.1347
L36.4582 -45.4167
L36.5609 -45.7002
L36.6577 -45.9853
L36.7485 -46.2716
L36.8332 -46.5592
L36.9119 -46.8479
L36.9845 -47.1376
L37.0511 -47.428
L37.1118 -47.7192
L37.1665 -48.011
L37.2152 -48.3031
L37.2581 -48.5956
L37.2952 -48.8882
L37.3266 -49.1808
L37.3523 -49.4733
L37.3725 -49.7655
L37.3871 -50.0573
L37.3963 -50.3486
L37.4003 -50.6392
L37.3989 -50.929
L37.3925 -51.2178
L37.381 -51.5057
L37.3646 -51.7924
L37.3433 -52.0778
L37.3173 -52.3618
L37.2867 -52.6444
L37.2516 -52.9254
L37.212 -53.2046
L37.168 -53.4821
L37.1198 -53.7578
L37.0675 -54.0315
L37.0111 -54.3032
L36.9508 -54.5728
L36.8866 -54.8402
L36.8186 -55.1054
L36.7469 -55.3683
L36.6715 -55.6289
L36.5926 -55.887
L36.5103 -56.1428
L36.4245 -56.396
L36.3355 -56.6467
L36.2431 -56.8948
L36.1476 -57.1404
L36.0489 -57.3833
L35.9471 -57.6235
L35.8423 -57.8611
L35.7346 -58.0959
L35.6239 -58.328
L35.5103 -58.5574
L35.3939 -58.784
L35.2747 -59.0078
L35.1527 -59.2289
L35.0279 -59.4471
L34.9005 -59.6625
L34.7704 -59.8751
L34.6377 -60.0848
L34.5023 -60.2917
L34.3643 -60.4958
L34.2236 -60.697
L34.0805 -60.8953
L33.9347 -61.0908
L33.7864 -61.2834
L33.6354 -61.4732
L33.482 -61.66
L33.3259 -61.844
L33.1673 -62.0251
L33.0062 -62.2032
L32.8424 -62.3785
L32.676 -62.5508
L32.5071 -62.7203
L32.3355 -62.8867
L32.1612 -63.0502
L31.9843 -63.2108
L31.8047 -63.3684
L31.6223 -63.5229
L31.4372 -63.6745
L31.2494 -63.823
L30.7378 -63.9684
L30.2498 -64.01
L29.7635 -63.9139
L29.2791 -63.8093
L28.7967 -63.6962
L28.3166 -63.5747
L27.8388 -63.4448
L27.3635 -63.3065
L26.8908 -63.1599
L26.4209 -63.005
L25.9539 -62.8419
L25.4899 -62.6707
L25.0292 -62.4913
L24.5718 -62.3038
L24.1179 -62.1084
L23.6676 -61.9049
L23.221 -61.6936
L22.7784 -61.4745
L22.3398 -61.2476
L21.9053 -61.013
L21.4752 -60.7708
L21.0494 -60.521
L20.6282 -60.2638
L20.2117 -59.9991
L19.8001 -59.7272
L19.3933 -59.4481
L18.9916 -59.1618
L18.5951 -58.8684
L18.2039 -58.5681
L17.8181 -58.2609
L17.4378 -57.9469
L17.0632 -57.6263
L16.6944 -57.299
L16.3314 -56.9653
L15.9745 -56.6251
L15.6236 -56.2787
L15.2789 -55.9262
L14.9406 -55.5675
L14.6087 -55.2029
L14.2832 -54.8324
L13.9644 -54.4562
L13.6524 -54.0744
L13.3471 -53.6871
L13.0487 -53.2944
L12.7573 -52.8964
L12.473 -52.4933
L12.1959 -52.0851
L11.926 -51.6721
L11.6634 -51.2542
L11.4083 -50.8318
L11.1606 -50.4048
L10.9205 -49.9734
L10.6881 -49.5378
L10.4634 -49.098
L10.2464 -48.6542
L10.0373 -48.2066
L9.83608 -47.7553
L9.64285 -47.3004
L9.45764 -46.8421
L9.28052 -46.3804
L9.11154 -45.9156
L8.95075 -45.4478
L8.7982 -44.9771
L8.65393 -44.5036
L8.51799 -44.0276
L8.39043 -43.5491
L8.27127 -43.0684
L8.16057 -42.5854
L8.05834 -42.1005
L7.96462 -41.6137
L7.87944 -41.1252
L7.80283 -40.6351
L7.73481 -40.1436
L7.6754 -39.6509
L7.62462 -39.1571
L7.58247 -38.6622
L7.54899 -38.1666
L7.52417 -37.6703
L7.50803 -37.1735
L7.50056 -36.6764
L7.50178 -36.179
L7.51168 -35.6816
L7.53025 -35.1843
L7.5575 -34.6872
L7.59341 -34.1906
L7.63797 -33.6945
L7.69117 -33.1991
L7.753 -32.7045
L7.82343 -32.2109
L7.90244 -31.7185
L7.99002 -31.2274
L8.08612 -30.7378
L8.19073 -30.2498
L8.30381 -29.7635
L8.42532 -29.2791
L8.55523 -28.7967
L8.69351 -28.3166
L8.8401 -27.8388
z
" id="C0_1_c3dfa16fdb"/>
     <path d="
M40.9269 -7.97154
L41.0584 -8.17047
L41.1892 -8.37066
L41.3191 -8.57215
L41.4482 -8.77493
L41.5765 -8.97902
L41.704 -9.18442
L41.8307 -9.39114
L41.9567 -9.5992
L42.0819 -9.80861
L42.2064 -10.0194
L42.3301 -10.2315
L42.4532 -10.4451
L42.5756 -10.66
L42.6973 -10.8764
L42.8184 -11.0942
L42.9388 -11.3135
L43.0587 -11.5342
L43.1779 -11.7564
L43.2965 -11.9801
L43.4146 -12.2054
L43.5321 -12.4322
L43.649 -12.6605
L43.7655 -12.8905
L43.8814 -13.122
L43.9969 -13.3552
L44.1118 -13.59
L44.2264 -13.8265
L44.3404 -14.0646
L44.4541 -14.3044
L44.5673 -14.546
L44.6801 -14.7892
L44.7925 -15.0343
L44.9046 -15.2811
L45.0164 -15.5296
L45.1278 -15.78
L45.2388 -16.0322
L45.3496 -16.2862
L45.4601 -16.5421
L45.5703 -16.7998
L45.6803 -17.0594
L45.7901 -17.3208
L45.8996 -17.5842
L46.0089 -17.8494
L46.1181 -18.1165
L46.2271 -18.3855
L46.336 -18.6565
L46.4447 -18.9293
L46.5534 -19.204
L46.662 -19.4807
L46.7705 -19.7592
L46.879 -20.0396
L46.9875 -20.3219
L47.0961 -20.606
L47.2046 -20.8919
L47.3133 -21.1797
L47.422 -21.4692
L47.5309 -21.7606
L47.64 -22.0536
L47.7493 -22.3483
L47.8588 -22.6447
L47.9686 -22.9428
L48.0787 -23.2423
L48.1891 -23.5434
L48.2999 -23.846
L48.4112 -24.1499
L48.523 -24.4552
L48.6353 -24.7618
L48.7482 -25.0695
L48.8617 -25.3784
L48.9759 -25.6882
L49.0908 -25.9991
L49.2066 -26.3107
L49.3232 -26.6231
L49.4407 -26.9362
L49.5593 -27.2498
L49.6789 -27.5638
L49.7996 -27.8782
L49.9215 -28.1927
L50.0447 -28.5073
L50.1692 -28.8219
L50.2951 -29.1362
L50.4225 -29.4502
L50.5515 -29.7638
L50.682 -30.0768
L50.8142 -30.389
L50.9482 -30.7004
L51.0841 -31.0107
L51.2217 -31.3199
L51.3614 -31.6278
L51.503 -31.9343
L51.6467 -32.2391
L51.7924 -32.5423
L51.9403 -32.8436
L52.0904 -33.1429
L52.2426 -33.4401
L52.3971 -33.7351
L52.5538 -34.0277
L52.7128 -34.3178
L52.8739 -34.6054
L53.0374 -34.8903
L53.203 -35.1724
L53.3708 -35.4516
L53.5407 -35.7279
L53.7128 -36.0012
L53.8869 -36.2714
L54.063 -36.5384
L54.2411 -36.8022
L54.421 -37.0627
L54.6027 -37.3198
L54.786 -37.5737
L54.971 -37.8241
L55.1576 -38.0711
L55.3455 -38.3147
L55.5347 -38.5548
L55.7252 -38.7914
L55.9168 -39.0246
L56.1093 -39.2543
L56.3027 -39.4805
L56.4969 -39.7032
L56.6918 -39.9225
L56.8872 -40.1383
L57.0831 -40.3507
L57.2793 -40.5597
L57.4758 -40.7653
L57.6724 -40.9675
L57.869 -41.1663
L58.0655 -41.3618
L58.2619 -41.5541
L58.4581 -41.743
L58.6539 -41.9287
L58.8493 -42.1112
L59.0442 -42.2905
L59.2386 -42.4667
L59.4323 -42.6397
L59.6253 -42.8097
L59.8175 -42.9766
L60.009 -43.1405
L60.1995 -43.3014
L60.3892 -43.4593
L60.5778 -43.6143
L60.7655 -43.7664
L60.9521 -43.9157
L61.1376 -44.0621
L61.322 -44.2058
L61.5053 -44.3466
L61.6873 -44.4847
L61.8682 -44.6201
L62.0479 -44.7528
L62.2264 -44.8829
L62.4036 -45.0103
L62.5796 -45.1351
L63.0918 -45.2573
L63.2421 -44.8477
L63.3841 -44.3736
L63.5178 -43.8969
L63.643 -43.4177
L63.7599 -42.9363
L63.8683 -42.4529
L63.9682 -41.9674
L64.0595 -41.4801
L64.1424 -40.9912
L64.2166 -40.5007
L64.2823 -40.0089
L64.3394 -39.5158
L64.3878 -39.0217
L64.4276 -38.5266
L64.4587 -38.0308
L64.4811 -37.5344
L64.4949 -37.0375
L64.5 -36.5402
L64.4964 -36.0429
L64.4841 -35.5455
L64.4632 -35.0482
L64.4335 -34.5512
L64.3953 -34.0547
L64.3483 -33.5588
L64.2928 -33.0636
L64.2286 -32.5693
L64.1558 -32.076
L64.0744 -31.584
L63.9845 -31.0932
L63.8861 -30.604
L63.7792 -30.1164
L63.6638 -29.6307
L63.5399 -29.1468
L63.4077 -28.6651
L63.2672 -28.1855
L63.1183 -27.7084
L62.9612 -27.2338
L62.7959 -26.7618
L62.6224 -26.2927
L62.4408 -25.8265
L62.2511 -25.3635
L62.0534 -24.9036
L61.8479 -24.4472
L61.6344 -23.9942
L61.4131 -23.545
L61.1841 -23.0995
L60.9474 -22.6579
L60.7031 -22.2204
L60.4513 -21.7871
L60.1921 -21.3582
L59.9254 -20.9337
L59.6515 -20.5137
L59.3704 -20.0985
L59.0821 -19.6882
L58.7869 -19.2828
L58.4847 -18.8825
L58.1756 -18.4874
L57.8598 -18.0977
L57.5373 -17.7134
L57.2083 -17.3347
L56.8728 -16.9616
L56.5309 -16.5944
L56.1828 -16.2331
L55.8286 -15.8778
L55.4683 -15.5286
L55.102 -15.1857
L54.73 -14.8491
L54.3523 -14.5189
L53.9689 -14.1953
L53.5801 -13.8783
L53.1859 -13.5681
L52.7865 -13.2647
L52.382 -12.9682
L51.9725 -12.6788
L51.5581 -12.3964
L51.139 -12.1213
L50.7153 -11.8534
L50.2871 -11.5928
L49.8545 -11.3397
L49.4178 -11.0941
L48.9769 -10.8561
L48.5321 -10.6258
L48.0834 -10.4032
L47.6311 -10.1884
L47.1753 -9.98142
L46.716 -9.78239
L46.2535 -9.59134
L45.7878 -9.40835
L45.3192 -9.23345
L44.8477 -9.0667
L44.3736 -8.90816
L43.8969 -8.75788
L43.4177 -8.61589
L42.9363 -8.48224
L42.4529 -8.35697
L41.9674 -8.24013
L41.4801 -8.13174
z
" id="C0_2_0611033faf"/>
    </defs>
    <g clip-path="url(#p1bffca34e9)">
     <use style="fill:#ff0000;stroke:#000000;stroke-width:2.0;" x="0.0" xlink:href="#C0_0_a811fe30f3" y="72.0"/>
    </g>
    <g clip-path="url(#p1bffca34e9)">
     <use style="fill:#ffffff;stroke:#000000;stroke-width:2.0;" x="0.0" xlink:href="#C0_1_c3dfa16fdb" y="72.0"/>
    </g>
    <g clip-path="url(#p1bffca34e9)">
     <use style="fill:#ffffff;stroke:#000000;stroke-width:2.0;" x="0.0" xlink:href="#C0_2_0611033faf" y="72.0"/>
    </g>
   </g>
  </g>
 </g>
 <defs>
  <clipPath id="p1bffca34e9">
   <rect height="72.0" width="72.0" x="0.0" y="0.0"/>
  </clipPath>
 </defs>
</svg>
