<?xml version="1.0" encoding="utf-8" standalone="no"?>
<!DOCTYPE svg PUBLIC "-//W3C//DTD SVG 1.1//EN"
  "http://www.w3.org/Graphics/SVG/1.1/DTD/svg11.dtd">
<!-- Created with matplotlib (http://matplotlib.org/) -->
<svg height="72pt" version="1.1" viewBox="0 0 72 72" width="72pt" xmlns="http://www.w3.org/2000/svg" xmlns:xlink="http://www.w3.org/1999/xlink">
 <defs>
  <style type="text/css">
*{stroke-linecap:butt;stroke-linejoin:round;}
  </style>
 </defs>
 <g id="figure_1">
  <g id="patch_1">
   <path d="
M0 72
L72 72
L72 0
L0 0
z
" style="fill:none;"/>
  </g>
  <g id="axes_1">
   <g id="PatchCollection_1">
    <defs>
     <path d="
M36 -7.5
C43.5583 -7.5 50.808 -10.5029 56.1525 -15.8475
C61.4971 -21.192 64.5 -28.4417 64.5 -36
C64.5 -43.5583 61.4971 -50.808 56.1525 -56.1525
C50.808 -61.4971 43.5583 -64.5 36 -64.5
C28.4417 -64.5 21.192 -61.4971 15.8475 -56.1525
C10.5029 -50.808 7.5 -43.5583 7.5 -36
C7.5 -28.4417 10.5029 -21.192 15.8475 -15.8475
C21.192 -10.5029 28.4417 -7.5 36 -7.5
z
" id="C0_0_a811fe30f3"/>
     <path d="
M27.7135 -8.79048
L27.7636 -9.00632
L27.823 -9.22128
L27.8913 -9.43535
L27.9683 -9.64851
L28.0535 -9.86077
L28.1468 -10.0721
L28.2478 -10.2826
L28.3561 -10.4922
L28.4715 -10.701
L28.5936 -10.9089
L28.7221 -11.1161
L28.8568 -11.3225
L28.9973 -11.5282
L29.1433 -11.7331
L29.2946 -11.9375
L29.4508 -12.1412
L29.6116 -12.3443
L29.7768 -12.5469
L29.9461 -12.749
L30.1193 -12.9505
L30.2961 -13.1517
L30.4762 -13.3524
L30.6595 -13.5528
L30.8457 -13.7528
L31.0345 -13.9524
L31.2258 -14.1518
L31.4194 -14.3509
L31.6151 -14.5497
L31.8127 -14.7484
L32.0121 -14.9467
L32.213 -15.1449
L32.4153 -15.343
L32.6189 -15.5408
L32.8236 -15.7385
L33.0293 -15.9361
L33.2359 -16.1336
L33.4432 -16.3309
L33.6512 -16.5282
L33.8598 -16.7253
L34.0687 -16.9224
L34.2781 -17.1194
L34.4877 -17.3164
L34.6975 -17.5133
L34.9074 -17.7101
L35.1173 -17.9069
L35.3273 -18.1037
L35.5372 -18.3004
L35.7469 -18.4972
L35.9565 -18.6939
L36.1659 -18.8906
L36.375 -19.0873
L36.5838 -19.284
L36.7922 -19.4808
L37.0004 -19.6776
L37.2081 -19.8744
L37.4154 -20.0712
L37.6223 -20.2681
L37.8287 -20.4651
L38.0347 -20.6622
L38.2402 -20.8593
L38.4452 -21.0565
L38.6497 -21.2538
L38.8536 -21.4513
L39.0571 -21.6488
L39.2601 -21.8465
L39.4625 -22.0444
L39.6644 -22.2424
L39.8658 -22.4406
L40.0667 -22.6389
L40.2671 -22.8375
L40.4669 -23.0363
L40.6663 -23.2353
L40.8652 -23.4345
L41.0635 -23.634
L41.2614 -23.8338
L41.4589 -24.0339
L41.6558 -24.2342
L41.8524 -24.4349
L42.0485 -24.6359
L42.2441 -24.8373
L42.4394 -25.039
L42.6342 -25.2411
L42.8287 -25.4436
L43.0228 -25.6465
L43.4099 -25.8498
L43.603 -26.0535
L43.7957 -26.2578
L43.9882 -26.4624
L44.1803 -26.6676
L44.3722 -26.8733
L44.5639 -27.0795
L44.7553 -27.2862
L44.9465 -27.4935
L45.1375 -27.7014
L45.3282 -27.9098
L45.5189 -28.1188
L45.7093 -28.3284
L45.8996 -28.5386
L46.0898 -28.7494
L46.2798 -28.9609
L46.4698 -29.173
L46.6596 -29.3858
L46.8494 -29.5992
L47.0392 -29.8133
L47.2288 -30.0281
L47.4185 -30.2436
L47.6081 -30.4597
L47.7978 -30.6765
L47.9874 -30.8941
L48.1771 -31.1123
L48.3668 -31.3312
L48.5566 -31.5508
L48.7464 -31.771
L48.9363 -31.992
L49.1262 -32.2136
L49.3163 -32.4358
L49.5065 -32.6587
L49.6968 -32.8822
L49.8872 -33.1063
L50.0777 -33.331
L50.2684 -33.5562
L50.4593 -33.782
L50.6504 -34.0083
L50.8416 -34.235
L51.033 -34.4621
L51.2246 -34.6896
L51.4165 -34.9175
L51.6085 -35.1456
L51.8008 -35.374
L51.9934 -35.6025
L52.1862 -35.8311
L52.3793 -36.0597
L52.5726 -36.2884
L52.7663 -36.5168
L52.9602 -36.7451
L53.1545 -36.9731
L53.3492 -37.2006
L53.5442 -37.4277
L53.7395 -37.6541
L53.9353 -37.8798
L54.1315 -38.1046
L54.3281 -38.3285
L54.5251 -38.5512
L54.7226 -38.7726
L54.9206 -38.9926
L55.1192 -39.211
L55.3183 -39.4276
L55.5179 -39.6422
L55.7182 -39.8548
L55.9191 -40.065
L56.1207 -40.2727
L56.323 -40.4776
L56.526 -40.6796
L56.7299 -40.8784
L56.9345 -41.0739
L57.1399 -41.2657
L57.3463 -41.4536
L57.5535 -41.6373
L57.7617 -41.8167
L57.9709 -41.9915
L58.1811 -42.1614
L58.3924 -42.3261
L58.6048 -42.4854
L58.8182 -42.639
L59.0328 -42.7866
L59.2486 -42.928
L59.4655 -43.0629
L59.6836 -43.1911
L59.9029 -43.3122
L60.1234 -43.4261
L60.345 -43.5324
L60.5678 -43.6309
L60.7918 -43.7215
L61.0168 -43.8038
L61.2429 -43.8776
L61.4701 -43.9427
L61.6981 -43.999
L61.9271 -44.0462
L62.1569 -44.0841
L62.3874 -44.1126
L62.6186 -44.1316
L62.8502 -44.1408
L63.0823 -44.1401
L63.3147 -44.1295
L63.4589 -44.1088
L63.5879 -43.6327
L63.7086 -43.1524
L63.8207 -42.6698
L63.9244 -42.1852
L64.0196 -41.6987
L64.1063 -41.2105
L64.1844 -40.7207
L64.2539 -40.2294
L64.3149 -39.7369
L64.3672 -39.2432
L64.4108 -38.7486
L64.4458 -38.2531
L64.4721 -37.7569
L64.4898 -37.2602
L64.4988 -36.7631
L64.4991 -36.2658
L64.4907 -35.7684
L64.4736 -35.271
L64.4479 -34.7739
L64.4135 -34.2772
L64.3704 -33.7809
L64.3187 -33.2854
L64.2584 -32.7907
L64.1895 -32.2969
L64.112 -31.8043
L64.0259 -31.313
L63.9313 -30.8231
L63.8281 -30.3347
L63.7165 -29.8481
L63.5965 -29.3634
L63.468 -28.8807
L63.3312 -28.4002
L63.1861 -27.9219
L63.0326 -27.4462
L62.871 -26.973
L62.7011 -26.5026
L62.5232 -26.0351
L62.3371 -25.5706
L62.143 -25.1093
L61.941 -24.6513
L61.731 -24.1968
L61.5132 -23.7458
L61.2877 -23.2986
L61.0544 -22.8553
L60.8135 -22.416
L60.5651 -21.9808
L60.3092 -21.5499
L60.0458 -21.1233
L59.7752 -20.7014
L59.4973 -20.284
L59.2122 -19.8715
L58.9201 -19.4639
L58.621 -19.0613
L58.315 -18.6638
L58.0022 -18.2717
L57.6827 -17.8849
L57.3565 -17.5037
L57.0239 -17.1281
L56.6849 -16.7583
L56.3396 -16.3943
L55.9881 -16.0363
L55.6305 -15.6843
L55.2669 -15.3386
L54.8975 -14.9991
L54.5222 -14.6661
L54.1414 -14.3395
L53.755 -14.0196
L53.3632 -13.7063
L52.9662 -13.3998
L52.5639 -13.1002
L52.1566 -12.8076
L51.7444 -12.5221
L51.3274 -12.2437
L50.9058 -11.9725
L50.4795 -11.7087
L50.0489 -11.4522
L49.614 -11.2033
L49.175 -10.9619
L48.7319 -10.7281
L48.285 -10.502
L47.8343 -10.2837
L47.38 -10.0732
L46.9222 -9.8706
L46.4612 -9.67597
L45.9969 -9.48936
L45.5296 -9.31082
L45.0594 -9.14042
L44.5864 -8.9782
L44.1108 -8.8242
L43.6327 -8.67849
L43.1524 -8.5411
L42.6698 -8.41207
L42.1852 -8.29145
L41.6987 -8.17926
L41.2105 -8.07555
L40.7207 -7.98035
L40.2294 -7.89368
L39.7369 -7.81558
L39.2432 -7.74605
L38.7486 -7.68514
L38.2531 -7.63285
L37.7569 -7.5892
L37.2602 -7.55421
L36.7631 -7.52788
L36.2658 -7.51022
L35.7684 -7.50124
L35.271 -7.50094
L34.7739 -7.50932
L34.2772 -7.52639
L33.7809 -7.55212
L33.2854 -7.58652
L32.7907 -7.62958
L32.2969 -7.68128
L31.8043 -7.7416
L31.313 -7.81053
L30.8231 -7.88805
L30.3347 -7.97413
L29.8481 -8.06875
L29.3634 -8.17187
L28.8807 -8.28348
L28.4002 -8.40352
z
" id="C0_1_695fb8068d"/>
     <path d="
M8.85191 -28.0392
L9.03121 -28.1979
L9.2097 -28.3631
L9.38743 -28.5344
L9.56449 -28.7116
L9.74094 -28.8943
L9.91685 -29.0822
L10.0923 -29.275
L10.2673 -29.4725
L10.4421 -29.6743
L10.6165 -29.8802
L10.7908 -30.0898
L10.9649 -30.303
L11.1389 -30.5194
L11.3129 -30.7388
L11.487 -30.961
L11.6611 -31.1857
L11.8353 -31.4128
L12.0097 -31.6419
L12.1843 -31.8729
L12.3591 -32.1056
L12.5342 -32.3398
L12.7096 -32.5753
L12.8853 -32.812
L13.0613 -33.0497
L13.2378 -33.2881
L13.4146 -33.5273
L13.5919 -33.767
L13.7695 -34.0072
L13.9476 -34.2476
L14.1262 -34.4882
L14.3052 -34.7289
L14.4846 -34.9696
L14.6646 -35.2101
L14.845 -35.4505
L15.0259 -35.6905
L15.2073 -35.9302
L15.3892 -36.1695
L15.5716 -36.4082
L15.7544 -36.6464
L15.9378 -36.884
L16.1217 -37.121
L16.306 -37.3572
L16.4909 -37.5927
L16.6763 -37.8274
L16.8622 -38.0613
L17.0486 -38.2944
L17.2355 -38.5265
L17.4229 -38.7578
L17.6108 -38.9882
L17.7992 -39.2177
L17.9882 -39.4462
L18.1777 -39.6738
L18.3677 -39.9004
L18.5582 -40.126
L18.7493 -40.3507
L18.9409 -40.5744
L19.1331 -40.7971
L19.3258 -41.0188
L19.5191 -41.2396
L19.7129 -41.4594
L19.9073 -41.6782
L20.1023 -41.8961
L20.2979 -42.113
L20.4941 -42.329
L20.6909 -42.544
L20.8883 -42.7581
L21.0864 -42.9713
L21.2851 -43.1836
L21.4844 -43.395
L21.6845 -43.6056
L21.8852 -43.8152
L22.0866 -44.0241
L22.2887 -44.232
L22.4915 -44.4392
L22.6951 -44.6456
L22.8994 -44.8511
L23.1044 -45.0559
L23.3103 -45.26
L23.5169 -45.4633
L23.7244 -45.6658
L23.9327 -45.8677
L24.1418 -46.0688
L24.3517 -46.2693
L24.5626 -46.4691
L24.7743 -46.6682
L24.9869 -46.8668
L25.2005 -47.0647
L25.4149 -47.2619
L25.6304 -47.4586
L25.8467 -47.6547
L26.0641 -47.8503
L26.2825 -48.0453
L26.5018 -48.2398
L26.7222 -48.4337
L26.9436 -48.6271
L27.166 -48.8201
L27.3895 -49.0125
L27.6141 -49.2045
L27.8397 -49.396
L28.0664 -49.587
L28.2942 -49.7776
L28.5231 -49.9678
L28.7531 -50.1576
L28.9842 -50.3469
L29.2164 -50.5358
L29.4497 -50.7244
L29.6842 -50.9125
L29.9197 -51.1003
L30.1564 -51.2877
L30.3941 -51.4747
L30.6329 -51.6614
L30.8728 -51.8477
L31.1138 -52.0337
L31.3558 -52.2193
L31.5989 -52.4046
L31.843 -52.5895
L32.088 -52.7742
L32.334 -52.9585
L32.5809 -53.1424
L32.8288 -53.3261
L33.0774 -53.5095
L33.3269 -53.6925
L33.5771 -53.8753
L33.8281 -54.0578
L34.0796 -54.24
L34.3318 -54.4219
L34.5845 -54.6035
L34.8376 -54.7849
L35.0911 -54.966
L35.3449 -55.1469
L35.5989 -55.3275
L35.853 -55.508
L36.107 -55.6882
L36.361 -55.8682
L36.6147 -56.048
L36.868 -56.2277
L37.1209 -56.4073
L37.3731 -56.5867
L37.6246 -56.7661
L37.8751 -56.9454
L38.1245 -57.1246
L38.3727 -57.3039
L38.6194 -57.4831
L38.8645 -57.6625
L39.1078 -57.8419
L39.3491 -58.0215
L39.5882 -58.2013
L39.8248 -58.3814
L40.0588 -58.5617
L40.2899 -58.7423
L40.5179 -58.9234
L40.7425 -59.1049
L40.9635 -59.2869
L41.1806 -59.4694
L41.3937 -59.6526
L41.6024 -59.8364
L41.8064 -60.021
L42.0056 -60.2064
L42.1996 -60.3926
L42.3882 -60.5798
L42.5712 -60.7679
L42.7482 -60.957
L42.919 -61.1472
L43.0833 -61.3385
L43.241 -61.5309
L43.3916 -61.7246
L43.5351 -61.9194
L43.6712 -62.1154
L43.7996 -62.3127
L43.9202 -62.5113
L44.0326 -62.7111
L44.1368 -62.9121
L43.8028 -63.1143
L43.3232 -63.4111
L42.8414 -63.5431
L42.3575 -63.6667
L41.8717 -63.7819
L41.384 -63.8886
L40.8948 -63.9868
L40.404 -64.0765
L39.9119 -64.1577
L39.4187 -64.2302
L38.9243 -64.2942
L38.4291 -64.3496
L37.9332 -64.3963
L37.4366 -64.4344
L36.9396 -64.4638
L36.4424 -64.4845
L35.945 -64.4966
L35.4476 -64.4999
L34.9504 -64.4946
L34.4535 -64.4807
L33.9571 -64.458
L33.4613 -64.4267
L32.9662 -64.3867
L32.4721 -64.3381
L31.9791 -64.2808
L31.4873 -64.2149
L30.9969 -64.1405
L30.5079 -64.0574
L30.0207 -63.9658
L29.5353 -63.8657
L29.0519 -63.7571
L28.5705 -63.6401
L28.0915 -63.5146
L27.6148 -63.3807
L27.1407 -63.2385
L26.6693 -63.0881
L26.2007 -62.9293
L25.7352 -62.7624
L25.2727 -62.5873
L24.8135 -62.4041
L24.3578 -62.2128
L23.9055 -62.0136
L23.457 -61.8065
L23.0123 -61.5915
L22.5715 -61.3687
L22.1348 -61.1381
L21.7024 -60.8999
L21.2743 -60.6542
L20.8507 -60.4009
L20.4317 -60.1402
L20.0174 -59.8721
L19.608 -59.5968
L19.2036 -59.3142
L18.8044 -59.0246
L18.4103 -58.728
L18.0216 -58.4244
L17.6384 -58.114
L17.2608 -57.7969
L16.8889 -57.4731
L16.5228 -57.1428
L16.1627 -56.806
L15.8086 -56.4629
L15.4606 -56.1136
L15.1189 -55.7581
L14.7836 -55.3967
L14.4547 -55.0293
L14.1324 -54.6561
L13.8168 -54.2773
L13.5079 -53.8928
L13.2058 -53.503
L12.9107 -53.1078
L12.6227 -52.7073
L12.3417 -52.3018
L12.068 -51.8914
L11.8015 -51.476
L11.5424 -51.056
L11.2908 -50.6314
L11.0467 -50.2023
L10.8102 -49.7689
L10.5814 -49.3313
L10.3603 -48.8897
L10.147 -48.4441
L9.94162 -47.9947
L9.74416 -47.5417
L9.5547 -47.0852
L9.37329 -46.6253
L9.19999 -46.1621
L9.03486 -45.6959
L8.87794 -45.2267
L8.72928 -44.7546
L8.58893 -44.28
L8.45693 -43.8028
L8.33331 -43.3232
L8.21813 -42.8414
L8.11141 -42.3575
L8.01318 -41.8717
L7.92348 -41.384
L7.84233 -40.8948
L7.76976 -40.404
L7.70578 -39.9119
L7.65043 -39.4187
L7.60371 -38.9243
L7.56564 -38.4291
L7.53623 -37.9332
L7.51549 -37.4366
L7.50343 -36.9396
L7.50005 -36.4424
L7.50535 -35.945
L7.51933 -35.4476
L7.54199 -34.9504
L7.57332 -34.4535
L7.6133 -33.9571
L7.66193 -33.4613
L7.71919 -32.9662
L7.78507 -32.4721
L7.85954 -31.9791
L7.94259 -31.4873
L8.03418 -30.9969
L8.13428 -30.5079
L8.24288 -30.0207
L8.35993 -29.5353
L8.48541 -29.0519
z
" id="C0_2_1ae2032e60"/>
    </defs>
    <g clip-path="url(#p1bffca34e9)">
     <use style="fill:#ff0000;stroke:#000000;stroke-width:2.0;" x="0.0" xlink:href="#C0_0_a811fe30f3" y="72.0"/>
    </g>
    <g clip-path="url(#p1bffca34e9)">
     <use style="fill:#ffffff;stroke:#000000;stroke-width:2.0;" x="0.0" xlink:href="#C0_1_695fb8068d" y="72.0"/>
    </g>
    <g clip-path="url(#p1bffca34e9)">
     <use style="fill:#ffffff;stroke:#000000;stroke-width:2.0;" x="0.0" xlink:href="#C0_2_1ae2032e60" y="72.0"/>
    </g>
   </g>
  </g>
 </g>
 <defs>
  <clipPath id="p1bffca34e9">
   <rect height="72.0" width="72.0" x="0.0" y="0.0"/>
  </clipPath>
 </defs>
</svg>
