<?xml version="1.0" encoding="utf-8" standalone="no"?>
<!DOCTYPE svg PUBLIC "-//W3C//DTD SVG 1.1//EN"
  "http://www.w3.org/Graphics/SVG/1.1/DTD/svg11.dtd">
<!-- Created with matplotlib (http://matplotlib.org/) -->
<svg height="72pt" version="1.1" viewBox="0 0 72 72" width="72pt" xmlns="http://www.w3.org/2000/svg" xmlns:xlink="http://www.w3.org/1999/xlink">
 <defs>
  <style type="text/css">
*{stroke-linecap:butt;stroke-linejoin:round;}
  </style>
 </defs>
 <g id="figure_1">
  <g id="patch_1">
   <path d="
M0 72
L72 72
L72 0
L0 0
z
" style="fill:none;"/>
  </g>
  <g id="axes_1">
   <g id="PatchCollection_1">
    <defs>
     <path d="
M36 -7.5
C43.5583 -7.5 50.808 -10.5029 56.1525 -15.8475
C61.4971 -21.192 64.5 -28.4417 64.5 -36
C64.5 -43.5583 61.4971 -50.808 56.1525 -56.1525
C50.808 -61.4971 43.5583 -64.5 36 -64.5
C28.4417 -64.5 21.192 -61.4971 15.8475 -56.1525
C10.5029 -50.808 7.5 -43.5583 7.5 -36
C7.5 -28.4417 10.5029 -21.192 15.8475 -15.8475
C21.192 -10.5029 28.4417 -7.5 36 -7.5
z
" id="C0_0_a811fe30f3"/>
     <path d="
M46.8735 -25.6511
L46.9841 -25.9006
L47.0925 -26.1512
L47.1989 -26.4029
L47.3033 -26.6556
L47.4057 -26.9095
L47.5061 -27.1646
L47.6045 -27.4209
L47.7009 -27.6784
L47.7953 -27.9372
L47.8878 -28.1973
L47.9783 -28.4588
L48.0668 -28.7217
L48.1533 -28.986
L48.2378 -29.2518
L48.3203 -29.5192
L48.4009 -29.7881
L48.4794 -30.0586
L48.5559 -30.3307
L48.6303 -30.6046
L48.7026 -30.8801
L48.7729 -31.1575
L48.841 -31.4366
L48.907 -31.7176
L48.9708 -32.0005
L49.0324 -32.2853
L49.0917 -32.572
L49.1488 -32.8608
L49.2035 -33.1516
L49.2558 -33.4444
L49.3056 -33.7393
L49.353 -34.0364
L49.3979 -34.3356
L49.4401 -34.637
L49.4796 -34.9406
L49.5165 -35.2464
L49.5505 -35.5545
L49.5816 -35.8648
L49.6097 -36.1773
L49.6348 -36.4922
L49.6568 -36.8093
L49.6755 -37.1286
L49.6909 -37.4503
L49.7028 -37.7742
L49.7113 -38.1003
L49.716 -38.4286
L49.717 -38.7591
L49.7142 -39.0917
L49.7073 -39.4264
L49.6963 -39.7631
L49.681 -40.1019
L49.6612 -40.4424
L49.637 -40.7848
L49.608 -41.1289
L49.5741 -41.4746
L49.5353 -41.8218
L49.4912 -42.1704
L49.4418 -42.5201
L49.3869 -42.8709
L49.3262 -43.2225
L49.2597 -43.5747
L49.1871 -43.9275
L49.1082 -44.2804
L49.0229 -44.6333
L48.9309 -44.986
L48.8321 -45.338
L48.7262 -45.6891
L48.613 -46.039
L48.4924 -46.3873
L48.3641 -46.7337
L48.228 -47.0777
L48.0838 -47.4189
L47.9314 -47.7569
L47.7705 -48.0911
L47.601 -48.4212
L47.4228 -48.7466
L47.2355 -49.0668
L47.0392 -49.3812
L46.8337 -49.6893
L46.6189 -49.9906
L46.3947 -50.2843
L46.161 -50.5701
L45.9179 -50.8472
L45.6653 -51.1152
L45.4032 -51.3736
L45.1319 -51.6217
L44.8513 -51.8591
L44.5617 -52.0853
L44.2633 -52.2999
L43.9563 -52.5026
L43.641 -52.693
L43.3179 -52.8709
L42.9872 -53.036
L42.6494 -53.1882
L42.3049 -53.3274
L41.9543 -53.4536
L41.598 -53.5667
L41.2366 -53.6669
L40.8705 -53.7543
L40.5004 -53.829
L40.1268 -53.8912
L39.7501 -53.9413
L39.371 -53.9794
L38.99 -54.0059
L38.6075 -54.0211
L38.224 -54.0253
L37.8401 -54.0188
L37.4561 -54.0021
L37.0725 -53.9754
L36.6896 -53.9393
L36.3079 -53.8939
L35.9276 -53.8397
L35.5492 -53.7771
L35.1729 -53.7064
L34.7989 -53.6279
L34.4276 -53.542
L34.0591 -53.449
L33.6937 -53.3492
L33.3316 -53.243
L32.9729 -53.1307
L32.6177 -53.0125
L32.2663 -52.8888
L31.9187 -52.7598
L31.575 -52.6257
L31.2353 -52.4868
L30.8997 -52.3434
L30.5682 -52.1957
L30.241 -52.0439
L29.9179 -51.8881
L29.5991 -51.7287
L29.2846 -51.5658
L28.9744 -51.3996
L28.6685 -51.2302
L28.3668 -51.0578
L28.0694 -50.8825
L27.7763 -50.7046
L27.4874 -50.5241
L27.2027 -50.3411
L26.9222 -50.1559
L26.6458 -49.9684
L26.3735 -49.7788
L26.1052 -49.5872
L25.841 -49.3937
L25.5807 -49.1984
L25.3244 -49.0013
L25.0719 -48.8026
L24.8232 -48.6022
L24.5782 -48.4003
L24.337 -48.1969
L24.0994 -47.992
L23.8655 -47.7858
L23.635 -47.5782
L23.4081 -47.3693
L23.1846 -47.1591
L22.9644 -46.9477
L22.7476 -46.735
L22.5341 -46.5211
L22.3238 -46.3061
L22.1167 -46.0899
L21.9126 -45.8725
L21.7117 -45.654
L21.5138 -45.4344
L21.3189 -45.2136
L21.1269 -44.9917
L20.9378 -44.7686
L20.7515 -44.5444
L20.5681 -44.3191
L20.3874 -44.0925
L20.2094 -43.8649
L20.0342 -43.636
L19.8616 -43.406
L19.6916 -43.1747
L19.5242 -42.9422
L19.3594 -42.7084
L19.1971 -42.4734
L19.0373 -42.2371
L18.8801 -41.9994
L18.7253 -41.7604
L18.5729 -41.52
L18.423 -41.2781
L18.2755 -41.0349
L18.1304 -40.7901
L17.9877 -40.5438
L17.8474 -40.296
L17.7095 -40.0466
L17.5739 -39.7955
L17.4407 -39.5428
L17.3099 -39.2884
L17.1815 -39.0322
L17.0555 -38.7743
L16.9319 -38.5145
L16.8106 -38.2528
L16.6919 -37.9892
L16.5755 -37.7236
L16.4616 -37.456
L16.3502 -37.1864
L16.2414 -36.9146
L16.135 -36.6407
L16.0313 -36.3646
L15.9302 -36.0862
L15.8317 -35.8055
L15.736 -35.5225
L15.643 -35.2371
L15.5528 -34.9492
L15.4655 -34.6588
L15.3812 -34.3659
L15.2998 -34.0704
L15.2215 -33.7723
L15.1463 -33.4715
L15.0744 -33.168
L15.0057 -32.8618
L14.9405 -32.5527
L14.8787 -32.2408
L14.8206 -31.926
L14.7661 -31.6083
L14.7154 -31.2877
L14.6687 -30.9641
L14.626 -30.6375
L14.5875 -30.308
L14.5533 -29.9754
L14.5236 -29.6397
L14.4985 -29.301
L14.4781 -28.9593
L14.4626 -28.6146
L14.4522 -28.2668
L14.4471 -27.916
L14.4474 -27.5623
L14.4533 -27.2056
L14.4651 -26.846
L14.4828 -26.4836
L14.5068 -26.1184
L14.5372 -25.7505
L14.5742 -25.3801
L14.6181 -25.0071
L14.6691 -24.6318
L14.7274 -24.2542
L14.7933 -23.8746
L14.867 -23.493
L14.9487 -23.1097
L15.0387 -22.7249
L15.1372 -22.3388
L15.2444 -21.9517
L15.3607 -21.5638
L15.4863 -21.1755
L15.6213 -20.787
L15.766 -20.3986
L15.9207 -20.0109
L16.0856 -19.6242
L16.2608 -19.2389
L16.4465 -18.8554
L16.6429 -18.4743
L16.8502 -18.0962
L17.0685 -17.7214
L17.2979 -17.3507
L17.5385 -16.9846
L17.7903 -16.6237
L18.0533 -16.2688
L18.3274 -15.9204
L18.6127 -15.5793
L18.909 -15.2461
L19.2161 -14.9216
L19.5339 -14.6065
L19.862 -14.3015
L20.2001 -14.0073
L20.5479 -13.7245
L20.9049 -13.4538
L21.2707 -13.1958
L21.6447 -12.951
L22.0264 -12.72
L22.4152 -12.5032
L22.8104 -12.3009
L23.2113 -12.1136
L23.6174 -11.9414
L24.0278 -11.7846
L24.4418 -11.6431
L24.8588 -11.517
L25.2781 -11.4063
L25.6989 -11.3109
L26.1206 -11.2305
L26.5426 -11.165
L26.9642 -11.1139
L27.3849 -11.0771
L27.8041 -11.0541
L28.2213 -11.0446
L28.636 -11.048
L29.0479 -11.064
L29.4564 -11.0921
L29.8613 -11.1318
L30.2622 -11.1827
L30.6589 -11.2442
L31.051 -11.3159
L31.4384 -11.3973
L31.8208 -11.488
L32.1981 -11.5875
L32.5702 -11.6954
L32.9369 -11.8112
L33.2981 -11.9345
L33.6537 -12.0649
L34.0038 -12.202
L34.3481 -12.3454
L34.6869 -12.4949
L35.0199 -12.6499
L35.3472 -12.8103
L35.6689 -12.9757
L35.9849 -13.1457
L36.2953 -13.3201
L36.6001 -13.4987
L36.8995 -13.6811
L37.1933 -13.8672
L37.4818 -14.0567
L37.7649 -14.2493
L38.0427 -14.4449
L38.3154 -14.6433
L38.5829 -14.8443
L38.8454 -15.0477
L39.103 -15.2534
L39.3557 -15.4611
L39.6036 -15.6709
L39.8469 -15.8825
L40.0855 -16.0958
L40.3197 -16.3108
L40.5494 -16.5272
L40.7748 -16.745
L40.996 -16.9642
L41.2129 -17.1846
L41.4259 -17.4062
L41.6348 -17.6288
L41.8398 -17.8525
L42.041 -18.0771
L42.2385 -18.3027
L42.4323 -18.5291
L42.6226 -18.7564
L42.8093 -18.9844
L42.9927 -19.2132
L43.1726 -19.4427
L43.3493 -19.673
L43.5228 -19.9039
L43.6932 -20.1355
L43.8604 -20.3678
L44.0247 -20.6007
L44.186 -20.8342
L44.3445 -21.0684
L44.5001 -21.3032
L44.6529 -21.5387
L44.8031 -21.7748
L44.9506 -22.0115
L45.0954 -22.2489
L45.2377 -22.487
L45.3775 -22.7258
L45.5149 -22.9652
L45.6498 -23.2054
L45.7823 -23.4463
L45.9124 -23.6879
L46.0403 -23.9303
L46.1659 -24.1735
L46.2893 -24.4176
L46.4104 -24.6625
L46.5294 -24.9082
L46.6462 -25.1549
z
" id="C0_1_6746bf638b"/>
    </defs>
    <g clip-path="url(#p1bffca34e9)">
     <use style="fill:#ffffff;stroke:#000000;stroke-width:2.0;" x="0.0" xlink:href="#C0_0_a811fe30f3" y="72.0"/>
    </g>
    <g clip-path="url(#p1bffca34e9)">
     <use style="fill:#ff0000;stroke:#000000;stroke-width:2.0;" x="0.0" xlink:href="#C0_1_6746bf638b" y="72.0"/>
    </g>
   </g>
  </g>
 </g>
 <defs>
  <clipPath id="p1bffca34e9">
   <rect height="72.0" width="72.0" x="0.0" y="0.0"/>
  </clipPath>
 </defs>
</svg>
