<?xml version="1.0" encoding="utf-8" standalone="no"?>
<!DOCTYPE svg PUBLIC "-//W3C//DTD SVG 1.1//EN"
  "http://www.w3.org/Graphics/SVG/1.1/DTD/svg11.dtd">
<!-- Created with matplotlib (http://matplotlib.org/) -->
<svg height="72pt" version="1.1" viewBox="0 0 72 72" width="72pt" xmlns="http://www.w3.org/2000/svg" xmlns:xlink="http://www.w3.org/1999/xlink">
 <defs>
  <style type="text/css">
*{stroke-linecap:butt;stroke-linejoin:round;}
  </style>
 </defs>
 <g id="figure_1">
  <g id="patch_1">
   <path d="
M0 72
L72 72
L72 0
L0 0
z
" style="fill:none;"/>
  </g>
  <g id="axes_1">
   <g id="PatchCollection_1">
    <defs>
     <path d="
M36 -7.5
C43.5583 -7.5 50.808 -10.5029 56.1525 -15.8475
C61.4971 -21.192 64.5 -28.4417 64.5 -36
C64.5 -43.5583 61.4971 -50.808 56.1525 -56.1525
C50.808 -61.4971 43.5583 -64.5 36 -64.5
C28.4417 -64.5 21.192 -61.4971 15.8475 -56.1525
C10.5029 -50.808 7.5 -43.5583 7.5 -36
C7.5 -28.4417 10.5029 -21.192 15.8475 -15.8475
C21.192 -10.5029 28.4417 -7.5 36 -7.5
z
" id="C0_0_a811fe30f3"/>
     <path d="
M53.9591 -14.0854
L53.8436 -14.2315
L53.7282 -14.3784
L53.6127 -14.5263
L53.4972 -14.675
L53.3815 -14.8246
L53.2658 -14.9751
L53.1499 -15.1266
L53.0339 -15.279
L52.9177 -15.4323
L52.8012 -15.5867
L52.6845 -15.742
L52.4502 -15.8983
L52.3326 -16.0557
L52.2147 -16.2142
L52.0963 -16.3738
L51.9775 -16.5345
L51.8583 -16.6963
L51.7386 -16.8594
L51.6184 -17.0236
L51.4977 -17.1891
L51.3764 -17.3559
L51.2545 -17.524
L51.1321 -17.6934
L51.009 -17.8643
L50.8852 -18.0365
L50.7608 -18.2102
L50.6356 -18.3854
L50.5097 -18.5622
L50.383 -18.7405
L50.2555 -18.9205
L50.1272 -19.1021
L49.9981 -19.2854
L49.8681 -19.4705
L49.7372 -19.6574
L49.6053 -19.8461
L49.4725 -20.0367
L49.3388 -20.2293
L49.204 -20.4238
L49.0682 -20.6204
L48.9314 -20.819
L48.7935 -21.0198
L48.6546 -21.2228
L48.5145 -21.428
L48.3733 -21.6355
L48.231 -21.8453
L48.0875 -22.0574
L47.9429 -22.2721
L47.7971 -22.4892
L47.6502 -22.7088
L47.502 -22.931
L47.3527 -23.1558
L47.2022 -23.3833
L47.0505 -23.6136
L46.8976 -23.8466
L46.7436 -24.0824
L46.5884 -24.3211
L46.4321 -24.5627
L46.2746 -24.8072
L46.1161 -25.0547
L45.9566 -25.3052
L45.7961 -25.5588
L45.6347 -25.8155
L45.4723 -26.0752
L45.3092 -26.3381
L45.1453 -26.6042
L44.9808 -26.8734
L44.8157 -27.1458
L44.6502 -27.4214
L44.4844 -27.7002
L44.3184 -27.9822
L44.1524 -28.2673
L43.9865 -28.5557
L43.821 -28.8471
L43.656 -29.1417
L43.4917 -29.4394
L43.3285 -29.7401
L43.1665 -30.0438
L43.0062 -30.3504
L42.8476 -30.6599
L42.6914 -30.9721
L42.5377 -31.2871
L42.387 -31.6046
L42.2397 -31.9246
L42.0963 -32.247
L41.9573 -32.5717
L41.8231 -32.8984
L41.6944 -33.2271
L41.5716 -33.5576
L41.4554 -33.8898
L41.3465 -34.2234
L41.2453 -34.5583
L41.1526 -34.8943
L41.0689 -35.2311
L40.9949 -35.5686
L40.9313 -35.9066
L40.8785 -36.2448
L40.8371 -36.583
L40.8076 -36.921
L40.7904 -37.2586
L40.7858 -37.5954
L40.7941 -37.9314
L40.8154 -38.2663
L40.8497 -38.5999
L40.8972 -38.9319
L40.9575 -39.2622
L41.0305 -39.5906
L41.1159 -39.9168
L41.2132 -40.2408
L41.322 -40.5623
L41.4417 -40.8812
L41.5719 -41.1973
L41.7118 -41.5106
L41.861 -41.8208
L42.0187 -42.128
L42.1843 -42.4318
L42.3571 -42.7324
L42.5367 -43.0295
L42.7223 -43.323
L42.9133 -43.613
L43.1094 -43.8993
L43.3098 -44.1819
L43.5141 -44.4608
L43.7218 -44.7358
L43.9326 -45.0069
L44.1459 -45.2741
L44.3614 -45.5374
L44.5788 -45.7968
L44.7977 -46.0522
L45.0178 -46.3037
L45.2388 -46.5512
L45.4605 -46.7947
L45.6826 -47.0342
L45.9049 -47.2698
L46.1273 -47.5015
L46.3495 -47.7293
L46.5714 -47.9532
L46.7928 -48.1732
L47.0136 -48.3894
L47.2338 -48.6018
L47.4531 -48.8105
L47.6716 -49.0155
L47.889 -49.2168
L48.1054 -49.4144
L48.3207 -49.6086
L48.5349 -49.7991
L48.7478 -49.9862
L48.9595 -50.1699
L49.1699 -50.3502
L49.3791 -50.5272
L49.5869 -50.7009
L49.7933 -50.8713
L49.9985 -51.0387
L50.2023 -51.2029
L50.4048 -51.364
L50.606 -51.5222
L50.8058 -51.6773
L51.0043 -51.8296
L51.2015 -51.9791
L51.3975 -52.1257
L51.5922 -52.2696
L51.7857 -52.4107
L51.9779 -52.5493
L52.169 -52.6852
L52.3589 -52.8185
L52.5477 -52.9494
L52.7354 -53.0777
L52.922 -53.2036
L53.1076 -53.3272
L53.2922 -53.4483
L53.4758 -53.5672
L53.6585 -53.6838
L53.8403 -53.7981
L54.0213 -53.9102
L54.2014 -54.0201
L54.3808 -54.1279
L54.5594 -54.2335
L54.7373 -54.3371
L54.9145 -54.4386
L55.0912 -54.538
L55.2672 -54.6354
L55.4427 -54.7308
L55.6178 -54.8242
L55.7923 -54.9156
L55.9665 -55.0051
L56.1403 -55.0926
L56.3137 -55.1781
L56.4869 -55.2618
L56.6598 -55.3434
L57.1019 -55.4232
L57.433 -55.1562
L57.7576 -54.785
L58.0756 -54.4081
L58.3868 -54.0255
L58.6912 -53.6375
L58.9887 -53.2441
L59.2792 -52.8455
L59.5626 -52.4417
L59.8388 -52.0329
L60.1078 -51.6193
L60.3694 -51.2008
L60.6236 -50.7778
L60.8703 -50.3502
L61.1094 -49.9183
L61.3409 -49.4821
L61.5646 -49.0419
L61.7806 -48.5976
L61.9887 -48.1495
L62.1889 -47.6977
L62.3811 -47.2424
L62.5653 -46.7836
L62.7414 -46.3216
L62.9093 -45.8564
L63.0691 -45.3882
L63.2206 -44.9171
L63.3638 -44.4433
L63.4987 -43.967
L63.6252 -43.4882
L63.7433 -43.0071
L63.8529 -42.524
L63.954 -42.0388
L64.0467 -41.5518
L64.1308 -41.063
L64.2063 -40.5728
L64.2732 -40.0811
L64.3315 -39.5883
L64.3812 -39.0943
L64.4223 -38.5993
L64.4546 -38.1036
L64.4784 -37.6073
L64.4934 -37.1104
L64.4998 -36.6132
L64.4974 -36.1159
L64.4864 -35.6185
L64.4668 -35.1212
L64.4384 -34.6241
L64.4014 -34.1275
L64.3558 -33.6315
L64.3015 -33.1362
L64.2385 -32.6418
L64.167 -32.1483
L64.0869 -31.6561
L63.9983 -31.1652
L63.9011 -30.6757
L63.7954 -30.1879
L63.6812 -29.7018
L63.5586 -29.2177
L63.4277 -28.7356
L63.2883 -28.2558
L63.1407 -27.7783
L62.9848 -27.3033
L62.8206 -26.8309
L62.6483 -26.3614
L62.4679 -25.8948
L62.2794 -25.4312
L62.083 -24.9709
L61.8785 -24.514
L61.6662 -24.0605
L61.4461 -23.6107
L61.2182 -23.1646
L60.9826 -22.7225
L60.7395 -22.2844
L60.4887 -21.8505
L60.2306 -21.4209
L59.965 -20.9957
L59.6922 -20.5751
L59.4121 -20.1592
L59.1249 -19.7481
L58.8307 -19.342
L58.5295 -18.9409
L58.2214 -18.5451
L57.9066 -18.1546
L57.5851 -17.7695
L57.257 -17.3899
L56.9224 -17.016
L56.5815 -16.6479
L56.2343 -16.2857
L55.8809 -15.9296
L55.5215 -15.5795
L55.1562 -15.2356
L54.785 -14.8981
z
" id="C0_1_d26316d47c"/>
     <path d="
M15.2196 -16.5477
L15.3086 -16.7154
L15.3986 -16.8837
L15.4895 -17.0526
L15.5815 -17.2221
L15.6744 -17.3924
L15.7684 -17.5634
L15.8635 -17.7351
L15.9596 -17.9076
L16.0567 -18.081
L16.155 -18.2553
L16.2544 -18.4304
L16.3549 -18.6065
L16.4566 -18.7837
L16.5595 -18.9618
L16.6636 -19.141
L16.7689 -19.3214
L16.8754 -19.5029
L16.9832 -19.6856
L17.0923 -19.8695
L17.2028 -20.0547
L17.3145 -20.2413
L17.4277 -20.4292
L17.5422 -20.6186
L17.6582 -20.8095
L17.7756 -21.0018
L17.8944 -21.1957
L18.0148 -21.3913
L18.1367 -21.5884
L18.2602 -21.7873
L18.3852 -21.988
L18.5119 -22.1904
L18.6402 -22.3947
L18.7701 -22.6009
L18.9018 -22.809
L19.0351 -23.0192
L19.1702 -23.2314
L19.307 -23.4456
L19.4456 -23.6621
L19.586 -23.8807
L19.7282 -24.1015
L19.8722 -24.3246
L20.0181 -24.5501
L20.1658 -24.7779
L20.3154 -25.0082
L20.4668 -25.2409
L20.6201 -25.4761
L20.7753 -25.7138
L20.9324 -25.9542
L21.0913 -26.1972
L21.252 -26.4428
L21.4146 -26.6911
L21.5789 -26.9422
L21.745 -27.196
L21.9129 -27.4525
L22.0823 -27.7119
L22.2534 -27.9741
L22.426 -28.2392
L22.6 -28.5071
L22.7754 -28.7778
L22.952 -29.0515
L23.1298 -29.328
L23.3086 -29.6074
L23.4882 -29.8896
L23.6685 -30.1747
L23.8492 -30.4626
L24.0303 -30.7533
L24.2114 -31.0468
L24.3923 -31.3431
L24.5727 -31.6421
L24.7523 -31.9437
L24.9309 -32.2479
L25.1079 -32.5548
L25.2831 -32.8641
L25.4561 -33.1759
L25.6263 -33.49
L25.7933 -33.8064
L25.9566 -34.1251
L26.1157 -34.4459
L26.2699 -34.7687
L26.4188 -35.0934
L26.5616 -35.42
L26.6978 -35.7483
L26.8267 -36.0782
L26.9477 -36.4096
L27.0602 -36.7424
L27.1634 -37.0765
L27.257 -37.4117
L27.3403 -37.7479
L27.4127 -38.085
L27.474 -38.4227
L27.5237 -38.761
L27.5615 -39.0998
L27.5874 -39.4387
L27.6011 -39.7778
L27.6028 -40.1167
L27.5924 -40.4554
L27.5703 -40.7936
L27.5367 -41.1311
L27.4919 -41.4679
L27.4365 -41.8036
L27.3708 -42.1381
L27.2955 -42.4712
L27.2111 -42.8028
L27.1181 -43.1326
L27.0172 -43.4605
L26.909 -43.7863
L26.794 -44.1099
L26.6728 -44.4311
L26.5461 -44.7497
L26.4143 -45.0657
L26.2779 -45.3789
L26.1376 -45.6892
L25.9936 -45.9965
L25.8465 -46.3006
L25.6967 -46.6016
L25.5445 -46.8993
L25.3903 -47.1936
L25.2344 -47.4845
L25.0772 -47.7719
L24.9188 -48.0559
L24.7597 -48.3363
L24.5999 -48.6131
L24.4398 -48.8863
L24.2794 -49.1559
L24.119 -49.4219
L23.9588 -49.6843
L23.7988 -49.943
L23.6393 -50.1982
L23.4802 -50.4498
L23.3218 -50.6977
L23.1641 -50.9422
L23.0072 -51.1831
L22.8512 -51.4205
L22.6961 -51.6545
L22.542 -51.8851
L22.3889 -52.1122
L22.2369 -52.336
L22.0859 -52.5566
L21.9361 -52.7739
L21.7875 -52.9879
L21.64 -53.1989
L21.4937 -53.4067
L21.3485 -53.6115
L21.2045 -53.8132
L21.0617 -54.0121
L20.9201 -54.208
L20.7797 -54.4011
L20.6404 -54.5914
L20.5022 -54.7789
L20.3652 -54.9638
L20.2293 -55.146
L20.0945 -55.3256
L19.9608 -55.5027
L19.8282 -55.6773
L19.6966 -55.8495
L19.566 -56.0193
L19.4364 -56.1868
L19.3078 -56.352
L19.1801 -56.5149
L19.0534 -56.6757
L18.9275 -56.8343
L18.8025 -56.9908
L18.6784 -57.1452
L18.555 -57.2976
L18.4324 -57.448
L18.3106 -57.5965
L18.1895 -57.743
L18.0691 -57.8877
L17.5554 -58.0306
L17.179 -57.7266
L16.8084 -57.4014
L16.4436 -57.0697
L16.0848 -56.7315
L15.732 -56.3871
L15.3854 -56.0364
L15.0451 -55.6796
L14.7111 -55.3169
L14.3837 -54.9482
L14.0628 -54.5738
L13.7486 -54.1937
L13.4412 -53.8081
L13.1407 -53.417
L12.8471 -53.0206
L12.5606 -52.6191
L12.2812 -52.2125
L12.0091 -51.801
L11.7442 -51.3846
L11.4868 -50.9636
L11.2368 -50.538
L10.9943 -50.1079
L10.7595 -49.6736
L10.5324 -49.2351
L10.313 -48.7926
L10.1014 -48.3462
L9.89777 -47.896
L9.70205 -47.4422
L9.51434 -46.9849
L9.3347 -46.5243
L9.16319 -46.0604
L8.99984 -45.5935
L8.84473 -45.1237
L8.69788 -44.6511
L8.55935 -44.1758
L8.42918 -43.6981
L8.30741 -43.218
L8.19407 -42.7357
L8.0892 -42.2514
L7.99284 -41.7652
L7.905 -41.2772
L7.82573 -40.7876
L7.75503 -40.2965
L7.69294 -39.8042
L7.63947 -39.3107
L7.59465 -38.8161
L7.55847 -38.3207
L7.53096 -37.8246
L7.51212 -37.328
L7.50195 -36.8309
L7.50047 -36.3336
L7.50767 -35.8362
L7.52355 -35.3389
L7.5481 -34.8417
L7.58132 -34.3449
L7.62319 -33.8486
L7.67371 -33.3529
L7.73286 -32.8581
L7.80062 -32.3642
L7.87697 -31.8714
L7.96188 -31.3799
L8.05534 -30.8898
L8.15731 -30.4013
L8.26775 -29.9144
L8.38665 -29.4294
L8.51396 -28.9464
L8.64964 -28.4656
L8.79365 -27.987
L8.94595 -27.5109
L9.10649 -27.0374
L9.27522 -26.5666
L9.45209 -26.0987
L9.63705 -25.6338
L9.83004 -25.172
L10.031 -24.7136
L10.2399 -24.2586
L10.4566 -23.8071
L10.6811 -23.3594
L10.9133 -22.9156
L11.1532 -22.4757
L11.4006 -22.0399
L11.6555 -21.6084
L11.9178 -21.1813
L12.1875 -20.7587
L12.4644 -20.3407
L12.7485 -19.9275
L13.0397 -19.5192
L13.3378 -19.1159
L13.6429 -18.7178
L13.9548 -18.3249
L14.2734 -17.9374
L14.5986 -17.5554
z
" id="C0_2_9b1b43ff69"/>
    </defs>
    <g clip-path="url(#p1bffca34e9)">
     <use style="fill:#ffffff;stroke:#000000;stroke-width:2.0;" x="0.0" xlink:href="#C0_0_a811fe30f3" y="72.0"/>
    </g>
    <g clip-path="url(#p1bffca34e9)">
     <use style="fill:#ff0000;stroke:#000000;stroke-width:2.0;" x="0.0" xlink:href="#C0_1_d26316d47c" y="72.0"/>
    </g>
    <g clip-path="url(#p1bffca34e9)">
     <use style="fill:#ff0000;stroke:#000000;stroke-width:2.0;" x="0.0" xlink:href="#C0_2_9b1b43ff69" y="72.0"/>
    </g>
   </g>
  </g>
 </g>
 <defs>
  <clipPath id="p1bffca34e9">
   <rect height="72.0" width="72.0" x="0.0" y="0.0"/>
  </clipPath>
 </defs>
</svg>
