<?xml version="1.0" encoding="utf-8" standalone="no"?>
<!DOCTYPE svg PUBLIC "-//W3C//DTD SVG 1.1//EN"
  "http://www.w3.org/Graphics/SVG/1.1/DTD/svg11.dtd">
<!-- Created with matplotlib (http://matplotlib.org/) -->
<svg height="72pt" version="1.1" viewBox="0 0 72 72" width="72pt" xmlns="http://www.w3.org/2000/svg" xmlns:xlink="http://www.w3.org/1999/xlink">
 <defs>
  <style type="text/css">
*{stroke-linecap:butt;stroke-linejoin:round;}
  </style>
 </defs>
 <g id="figure_1">
  <g id="patch_1">
   <path d="
M0 72
L72 72
L72 0
L0 0
z
" style="fill:none;"/>
  </g>
  <g id="axes_1">
   <g id="PatchCollection_1">
    <defs>
     <path d="
M36 -7.5
C43.5583 -7.5 50.808 -10.5029 56.1525 -15.8475
C61.4971 -21.192 64.5 -28.4417 64.5 -36
C64.5 -43.5583 61.4971 -50.808 56.1525 -56.1525
C50.808 -61.4971 43.5583 -64.5 36 -64.5
C28.4417 -64.5 21.192 -61.4971 15.8475 -56.1525
C10.5029 -50.808 7.5 -43.5583 7.5 -36
C7.5 -28.4417 10.5029 -21.192 15.8475 -15.8475
C21.192 -10.5029 28.4417 -7.5 36 -7.5
z
" id="C0_0_a811fe30f3"/>
     <path d="
M32.7632 -7.82032
L32.9013 -8.10487
L33.0454 -8.39237
L33.1941 -8.68252
L33.346 -8.97508
L33.5001 -9.26976
L33.6556 -9.56632
L33.8117 -9.86449
L33.968 -10.164
L34.1238 -10.4647
L34.2789 -10.7663
L34.4328 -11.0685
L34.5854 -11.3713
L34.7364 -11.6743
L34.8856 -11.9773
L35.0329 -12.2803
L35.1782 -12.5831
L35.3213 -12.8854
L35.4623 -13.1871
L35.601 -13.4882
L35.7374 -13.7884
L35.8715 -14.0877
L36.0034 -14.386
L36.1329 -14.6831
L36.2601 -14.9791
L36.385 -15.2738
L36.5077 -15.5671
L36.6281 -15.859
L36.7463 -16.1495
L36.8623 -16.4385
L36.9761 -16.7259
L37.0879 -17.0119
L37.1975 -17.2962
L37.3052 -17.5789
L37.4108 -17.8601
L37.5145 -18.1397
L37.6163 -18.4176
L37.7163 -18.694
L37.8144 -18.9687
L37.9107 -19.242
L38.0054 -19.5136
L38.0983 -19.7837
L38.1896 -20.0524
L38.2793 -20.3195
L38.3675 -20.5852
L38.4541 -20.8494
L38.5393 -21.1123
L38.6231 -21.3739
L38.7054 -21.6341
L38.7864 -21.8931
L38.8661 -22.1508
L38.9445 -22.4073
L39.0217 -22.6628
L39.0976 -22.9171
L39.1724 -23.1703
L39.2461 -23.4226
L39.3186 -23.674
L39.3901 -23.9244
L39.4605 -24.174
L39.5299 -24.4228
L39.5984 -24.6708
L39.6659 -24.9182
L39.7324 -25.1649
L39.7981 -25.4111
L39.8629 -25.6567
L39.9268 -25.9018
L39.9899 -26.1466
L40.0523 -26.3909
L40.1138 -26.635
L40.1746 -26.8788
L40.2346 -27.1225
L40.294 -27.366
L40.3526 -27.6094
L40.4106 -27.8528
L40.4679 -28.0962
L40.5246 -28.3398
L40.5806 -28.5835
L40.6909 -28.8274
L40.7452 -29.0717
L40.7989 -29.3162
L40.8521 -29.5612
L40.9047 -29.8066
L40.9569 -30.0526
L41.0085 -30.2991
L41.0596 -30.5463
L41.1102 -30.7942
L41.1604 -31.0429
L41.2101 -31.2924
L41.2593 -31.5428
L41.3081 -31.7943
L41.3564 -32.0467
L41.4043 -32.3002
L41.4517 -32.5549
L41.4988 -32.8109
L41.5454 -33.0681
L41.5916 -33.3267
L41.6374 -33.5868
L41.6827 -33.8484
L41.7277 -34.1115
L41.7722 -34.3763
L41.8164 -34.6427
L41.8601 -34.911
L41.9034 -35.1811
L41.9463 -35.4531
L41.9888 -35.7272
L42.0308 -36.0033
L42.0725 -36.2815
L42.1137 -36.5619
L42.1544 -36.8446
L42.1947 -37.1296
L42.2346 -37.417
L42.274 -37.7069
L42.3129 -37.9993
L42.3513 -38.2944
L42.3892 -38.5921
L42.4266 -38.8926
L42.4635 -39.1958
L42.4998 -39.5019
L42.5355 -39.811
L42.5707 -40.123
L42.6053 -40.438
L42.6392 -40.7561
L42.6725 -41.0773
L42.7051 -41.4017
L42.7371 -41.7293
L42.7683 -42.0601
L42.7988 -42.3942
L42.8286 -42.7316
L42.8575 -43.0723
L42.8857 -43.4163
L42.913 -43.7636
L42.9395 -44.1143
L42.9651 -44.4682
L42.9898 -44.8254
L43.0136 -45.1858
L43.0365 -45.5495
L43.0584 -45.9162
L43.0794 -46.2861
L43.0995 -46.6589
L43.1186 -47.0345
L43.1369 -47.4129
L43.1542 -47.7939
L43.1707 -48.1774
L43.1865 -48.5631
L43.2015 -48.9508
L43.216 -49.3404
L43.23 -49.7315
L43.2437 -50.1239
L43.2573 -50.5172
L43.2712 -50.9111
L43.2855 -51.305
L43.3008 -51.6986
L43.3176 -52.0913
L43.3363 -52.4824
L43.3579 -52.8713
L43.3832 -53.2572
L43.4134 -53.6391
L43.4498 -54.016
L43.4941 -54.3866
L43.5484 -54.7495
L43.615 -55.1029
L43.6968 -55.4449
L43.797 -55.7733
L43.9192 -56.0855
L44.0669 -56.3788
L44.2436 -56.6501
L44.4525 -56.8966
L44.6956 -57.1157
L44.9735 -57.3053
L45.2858 -57.464
L45.6304 -57.5915
L46.0044 -57.6881
L46.4043 -57.7551
L46.8261 -57.7939
L47.2663 -57.8064
L47.7212 -57.7946
L48.1877 -57.7603
L48.663 -57.705
L49.1446 -57.6304
L49.6304 -57.5378
L50.1186 -57.4284
L50.6077 -57.3032
L51.0963 -57.1632
L51.5831 -57.0092
L52.0673 -56.8419
L52.5479 -56.6622
L53.0242 -56.4705
L53.4955 -56.2676
L53.9612 -56.0539
L54.4208 -55.83
L54.8739 -55.5965
L55.3201 -55.3538
L55.7591 -55.1023
L56.1906 -54.8425
L56.6143 -54.5748
L57.03 -54.2997
L57.4377 -54.0175
L57.8371 -53.7287
L58.2282 -53.4335
L58.6108 -53.1323
L58.985 -52.8255
L59.3506 -52.5134
L59.6981 -52.1963
L59.9708 -51.832
L60.2362 -51.416
L60.4942 -50.9953
L60.7447 -50.57
L60.9878 -50.1403
L61.2232 -49.7063
L61.4509 -49.2681
L61.6708 -48.8259
L61.883 -48.3797
L62.0872 -47.9298
L62.2836 -47.4763
L62.4719 -47.0193
L62.6521 -46.5589
L62.8242 -46.0953
L62.9882 -45.6286
L63.1439 -45.159
L63.2914 -44.6866
L63.4306 -44.2115
L63.5614 -43.734
L63.6838 -43.2541
L63.7977 -42.772
L63.9032 -42.2878
L64.0002 -41.8017
L64.0887 -41.3138
L64.1686 -40.8243
L64.24 -40.3334
L64.3027 -39.8411
L64.3568 -39.3477
L64.4023 -38.8532
L64.4391 -38.3579
L64.4673 -37.8618
L64.4868 -37.3652
L64.4976 -36.8682
L64.4997 -36.3709
L64.4932 -35.8735
L64.4779 -35.3761
L64.454 -34.8789
L64.4215 -34.3821
L64.3802 -33.8858
L64.3304 -33.3901
L64.2719 -32.8951
L64.2048 -32.4012
L64.129 -31.9083
L64.0448 -31.4167
L63.952 -30.9265
L63.8506 -30.4378
L63.7408 -29.9508
L63.6225 -29.4657
L63.4959 -28.9825
L63.3608 -28.5015
L63.2174 -28.0228
L63.0657 -27.5465
L62.9058 -27.0728
L62.7377 -26.6018
L62.5614 -26.1336
L62.3771 -25.6685
L62.1847 -25.2065
L61.9843 -24.7478
L61.7761 -24.2925
L61.5599 -23.8408
L61.336 -23.3928
L61.1044 -22.9487
L60.8651 -22.5085
L60.6182 -22.0724
L60.3639 -21.6406
L60.1021 -21.2131
L59.833 -20.7902
L59.5566 -20.3718
L59.273 -19.9583
L58.9824 -19.5496
L58.6848 -19.1459
L58.3802 -18.7474
L58.0688 -18.3541
L57.7507 -17.9662
L57.426 -17.5838
L57.0948 -17.207
L56.7571 -16.8359
L56.4131 -16.4707
L56.0629 -16.1114
L55.7066 -15.7582
L55.3442 -15.4111
L54.976 -15.0703
L54.602 -14.7359
L54.2224 -14.408
L53.8371 -14.0866
L53.4465 -13.7719
L53.0505 -13.464
L52.6494 -13.163
L52.2431 -12.8689
L51.832 -12.5818
L51.416 -12.3019
L50.9953 -12.0292
L50.57 -11.7638
L50.1403 -11.5058
L49.7063 -11.2553
L49.2681 -11.0122
L48.8259 -10.7768
L48.3797 -10.5491
L47.9298 -10.3292
L47.4763 -10.117
L47.0193 -9.91275
L46.5589 -9.71644
L46.0953 -9.52813
L45.6286 -9.34788
L45.159 -9.17575
L44.6866 -9.0118
L44.2115 -8.85606
L43.734 -8.70859
L43.2541 -8.56944
L42.772 -8.43864
L42.2878 -8.31624
L41.8017 -8.20227
L41.3138 -8.09676
L40.8243 -7.99976
L40.3334 -7.91129
L39.8411 -7.83137
L39.3477 -7.76003
L38.8532 -7.6973
L38.3579 -7.64318
L37.8618 -7.5977
L37.3652 -7.56088
L36.8682 -7.53272
L36.3709 -7.51323
L35.8735 -7.50241
L35.3761 -7.50028
L34.8789 -7.50683
L34.3821 -7.52206
L33.8858 -7.54596
L33.3901 -7.57853
z
" id="C0_1_4372614d1d"/>
     <path d="
M12.3448 -20.1607
L12.1853 -20.6079
L12.0356 -21.0516
L11.8954 -21.4915
L11.7643 -21.9277
L11.6422 -22.36
L11.5287 -22.7884
L11.4234 -23.2128
L11.3262 -23.6331
L11.2367 -24.0493
L11.1548 -24.4614
L11.08 -24.8694
L11.0123 -25.2733
L10.9512 -25.6731
L10.8967 -26.0688
L10.8484 -26.4605
L10.8062 -26.8481
L10.7699 -27.2318
L10.7392 -27.6115
L10.7139 -27.9873
L10.694 -28.3594
L10.6791 -28.7276
L10.6692 -29.0922
L10.6641 -29.4531
L10.6636 -29.8105
L10.6675 -30.1644
L10.6759 -30.5149
L10.6884 -30.862
L10.7051 -31.2058
L10.7258 -31.5465
L10.7503 -31.884
L10.7786 -32.2185
L10.8107 -32.55
L10.8463 -32.8787
L10.8854 -33.2046
L10.9279 -33.5277
L10.9738 -33.8482
L11.0231 -34.1662
L11.0755 -34.4816
L11.1311 -34.7947
L11.1898 -35.1054
L11.2517 -35.4139
L11.3165 -35.7202
L11.3843 -36.0244
L11.4551 -36.3266
L11.5288 -36.6268
L11.6054 -36.9252
L11.6849 -37.2217
L11.7673 -37.5165
L11.8525 -37.8096
L11.9405 -38.1012
L12.0313 -38.3912
L12.125 -38.6797
L12.2215 -38.9668
L12.3208 -39.2526
L12.4229 -39.5371
L12.5279 -39.8204
L12.6357 -40.1026
L12.7464 -40.3836
L12.8599 -40.6637
L12.9764 -40.9427
L13.0958 -41.2208
L13.2182 -41.4981
L13.3436 -41.7745
L13.4719 -42.0502
L13.6034 -42.3251
L13.7379 -42.5994
L13.8756 -42.8731
L14.0166 -43.1462
L14.1607 -43.4188
L14.3082 -43.6908
L14.459 -43.9624
L14.6132 -44.2336
L14.7709 -44.5045
L14.9321 -44.775
L15.097 -45.0451
L15.2655 -45.315
L15.4378 -45.5847
L15.6139 -45.8541
L15.794 -46.1233
L15.978 -46.3923
L16.1662 -46.6612
L16.3585 -46.9298
L16.5551 -47.1984
L16.756 -47.4668
L16.9614 -47.7351
L17.1714 -48.0032
L17.386 -48.2712
L17.6054 -48.5391
L17.8297 -48.8068
L18.059 -49.0743
L18.2934 -49.3417
L18.533 -49.6088
L18.7779 -49.8756
L19.0283 -50.1422
L19.2842 -50.4084
L19.5459 -50.6743
L19.8133 -50.9397
L20.0867 -51.2046
L20.3662 -51.469
L20.6518 -51.7327
L20.9436 -51.9957
L21.2419 -52.2578
L21.5467 -52.519
L21.8582 -52.7793
L22.1764 -53.0383
L22.5014 -53.2961
L22.8333 -53.5525
L23.1722 -53.8074
L23.5183 -54.0605
L23.8715 -54.3118
L24.2319 -54.5611
L24.5996 -54.8082
L24.9746 -55.0529
L25.3569 -55.2951
L25.7466 -55.5344
L26.1435 -55.7708
L26.5477 -56.004
L26.9591 -56.2338
L27.3776 -56.46
L27.803 -56.6824
L28.2352 -56.9007
L28.674 -57.1147
L29.1191 -57.3243
L29.5702 -57.5293
L30.027 -57.7294
L30.489 -57.9246
L30.9558 -58.1146
L31.4267 -58.2996
L31.9011 -58.4793
L32.378 -58.6539
L32.8567 -58.8234
L33.3359 -58.988
L33.8143 -59.1482
L34.2905 -59.3042
L34.7626 -59.4569
L35.2284 -59.607
L35.6855 -59.7556
L36.1309 -59.904
L36.5615 -60.0541
L36.9733 -60.2077
L37.3623 -60.3671
L37.7244 -60.5347
L38.0555 -60.713
L38.352 -60.904
L38.6113 -61.1095
L38.8321 -61.3304
L39.0144 -61.5668
L39.1595 -61.8179
L39.27 -62.0822
L39.3488 -62.358
L39.3992 -62.6432
L39.4245 -62.9357
L39.4276 -63.2337
L39.4113 -63.5353
L39.3779 -63.8389
L38.8538 -64.1433
L38.3585 -64.3568
L37.8625 -64.4022
L37.3658 -64.4391
L36.8688 -64.4673
L36.3715 -64.4868
L35.8741 -64.4976
L35.3767 -64.4997
L34.8796 -64.4932
L34.3827 -64.478
L33.8864 -64.4541
L33.3907 -64.4215
L32.8958 -64.3803
L32.4018 -64.3304
L31.9089 -64.2719
L31.4173 -64.2048
L30.9271 -64.1292
L30.4384 -64.0449
L29.9514 -63.9521
L29.4663 -63.8508
L28.9831 -63.741
L28.5021 -63.6227
L28.0234 -63.496
L27.5471 -63.361
L27.0734 -63.2176
L26.6024 -63.0659
L26.1342 -62.906
L25.6691 -62.7379
L25.2071 -62.5617
L24.7484 -62.3773
L24.2931 -62.1849
L23.8414 -61.9846
L23.3934 -61.7763
L22.9492 -61.5602
L22.509 -61.3363
L22.073 -61.1047
L21.6411 -60.8654
L21.2137 -60.6185
L20.7907 -60.3642
L20.3724 -60.1024
L19.9588 -59.8333
L19.5501 -59.5569
L19.1464 -59.2734
L18.7479 -58.9828
L18.3546 -58.6851
L17.9667 -58.3806
L17.5843 -58.0692
L17.2075 -57.7511
L16.8364 -57.4264
L16.4712 -57.0952
L16.1119 -56.7575
L15.7586 -56.4135
L15.4116 -56.0633
L15.0708 -55.707
L14.7363 -55.3447
L14.4084 -54.9765
L14.087 -54.6025
L13.7723 -54.2228
L13.4644 -53.8376
L13.1634 -53.447
L12.8692 -53.051
L12.5822 -52.6499
L12.3023 -52.2437
L12.0296 -51.8325
L11.7642 -51.4165
L11.5061 -50.9958
L11.2556 -50.5705
L11.0126 -50.1408
L10.7771 -49.7068
L10.5494 -49.2687
L10.3294 -48.8264
L10.1173 -48.3803
L9.91301 -47.9304
L9.71668 -47.4769
L9.52836 -47.0199
L9.3481 -46.5595
L9.17597 -46.0959
L9.012 -45.6292
L8.85625 -45.1596
L8.70878 -44.6872
L8.56961 -44.2121
L8.4388 -43.7346
L8.31639 -43.2547
L8.20241 -42.7726
L8.09689 -42.2884
L7.99988 -41.8023
L7.91139 -41.3144
L7.83146 -40.825
L7.76012 -40.334
L7.69737 -39.8417
L7.64324 -39.3483
L7.59776 -38.8538
L7.56092 -38.3585
L7.53275 -37.8625
L7.51325 -37.3658
L7.50242 -36.8688
L7.50028 -36.3715
L7.50682 -35.8741
L7.52203 -35.3767
L7.54592 -34.8796
L7.57848 -34.3827
L7.6197 -33.8864
L7.66956 -33.3907
L7.72805 -32.8958
L7.79516 -32.4018
L7.87085 -31.9089
L7.95511 -31.4173
L8.04792 -30.9271
L8.14924 -30.4384
L8.25904 -29.9514
L8.3773 -29.4663
L8.50396 -28.9831
L8.63901 -28.5021
L8.78239 -28.0234
L8.93405 -27.5471
L9.09397 -27.0734
L9.26208 -26.6024
L9.43833 -26.1342
L9.62267 -25.6691
L9.81505 -25.2071
L10.0154 -24.7484
L10.2237 -24.2931
L10.4398 -23.8414
L10.6637 -23.3934
L10.8953 -22.9492
L11.1346 -22.509
L11.3815 -22.073
L11.6358 -21.6411
L11.8976 -21.2137
z
" id="C0_2_efe1a4d917"/>
    </defs>
    <g clip-path="url(#p1bffca34e9)">
     <use style="fill:#ff0000;stroke:#000000;stroke-width:2.0;" x="0.0" xlink:href="#C0_0_a811fe30f3" y="72.0"/>
    </g>
    <g clip-path="url(#p1bffca34e9)">
     <use style="fill:#ffffff;stroke:#000000;stroke-width:2.0;" x="0.0" xlink:href="#C0_1_4372614d1d" y="72.0"/>
    </g>
    <g clip-path="url(#p1bffca34e9)">
     <use style="fill:#ffffff;stroke:#000000;stroke-width:2.0;" x="0.0" xlink:href="#C0_2_efe1a4d917" y="72.0"/>
    </g>
   </g>
  </g>
 </g>
 <defs>
  <clipPath id="p1bffca34e9">
   <rect height="72.0" width="72.0" x="0.0" y="0.0"/>
  </clipPath>
 </defs>
</svg>
