<?xml version="1.0" encoding="utf-8" standalone="no"?>
<!DOCTYPE svg PUBLIC "-//W3C//DTD SVG 1.1//EN"
  "http://www.w3.org/Graphics/SVG/1.1/DTD/svg11.dtd">
<!-- Created with matplotlib (http://matplotlib.org/) -->
<svg height="72pt" version="1.1" viewBox="0 0 72 72" width="72pt" xmlns="http://www.w3.org/2000/svg" xmlns:xlink="http://www.w3.org/1999/xlink">
 <defs>
  <style type="text/css">
*{stroke-linecap:butt;stroke-linejoin:round;}
  </style>
 </defs>
 <g id="figure_1">
  <g id="patch_1">
   <path d="
M0 72
L72 72
L72 0
L0 0
z
" style="fill:none;"/>
  </g>
  <g id="axes_1">
   <g id="PatchCollection_1">
    <defs>
     <path d="
M36 -7.5
C43.5583 -7.5 50.808 -10.5029 56.1525 -15.8475
C61.4971 -21.192 64.5 -28.4417 64.5 -36
C64.5 -43.5583 61.4971 -50.808 56.1525 -56.1525
C50.808 -61.4971 43.5583 -64.5 36 -64.5
C28.4417 -64.5 21.192 -61.4971 15.8475 -56.1525
C10.5029 -50.808 7.5 -43.5583 7.5 -36
C7.5 -28.4417 10.5029 -21.192 15.8475 -15.8475
C21.192 -10.5029 28.4417 -7.5 36 -7.5
z
" id="C0_0_a811fe30f3"/>
     <path d="
M14.7289 -17.1632
L14.9045 -17.3563
L15.1057 -17.5323
L15.3295 -17.6934
L15.5729 -17.842
L15.8334 -17.9802
L16.1085 -18.1099
L16.3959 -18.2328
L16.6938 -18.3503
L17.0004 -18.4637
L17.3143 -18.5741
L17.6341 -18.6823
L17.9588 -18.7891
L18.2872 -18.895
L18.6186 -19.0005
L18.9522 -19.1061
L19.2872 -19.2119
L19.6232 -19.3183
L19.9597 -19.4255
L20.296 -19.5335
L20.632 -19.6425
L20.9671 -19.7525
L21.3011 -19.8636
L21.6338 -19.9758
L21.9649 -20.0891
L22.2941 -20.2035
L22.6213 -20.3189
L22.9464 -20.4353
L23.2692 -20.5527
L23.5896 -20.6711
L23.9074 -20.7904
L24.2227 -20.9105
L24.5353 -21.0314
L24.8452 -21.153
L25.1524 -21.2754
L25.4567 -21.3984
L25.7583 -21.522
L26.057 -21.6462
L26.353 -21.7708
L26.6461 -21.896
L26.9364 -22.0215
L27.2239 -22.1475
L27.5086 -22.2738
L27.7906 -22.4005
L28.0699 -22.5275
L28.3465 -22.6547
L28.6205 -22.7822
L28.8918 -22.9099
L29.1607 -23.0378
L29.427 -23.166
L29.6908 -23.2943
L29.9523 -23.4228
L30.2114 -23.5514
L30.4682 -23.6802
L30.7228 -23.8091
L30.9752 -23.9382
L31.2255 -24.0674
L31.4737 -24.1968
L31.7198 -24.3263
L31.9641 -24.4559
L32.2064 -24.5857
L32.4469 -24.7157
L32.6857 -24.8458
L32.9227 -24.9761
L33.158 -25.1066
L33.3918 -25.2373
L33.6241 -25.3682
L33.8548 -25.4993
L34.0842 -25.6307
L34.3122 -25.7623
L34.5389 -25.8942
L34.7643 -26.0264
L34.9886 -26.1589
L35.2118 -26.2918
L35.4338 -26.425
L35.6549 -26.5586
L35.875 -26.6926
L36.0943 -26.827
L36.3126 -26.9619
L36.5302 -27.0973
L36.7471 -27.2332
L36.9633 -27.3696
L37.1788 -27.5065
L37.3938 -27.6441
L37.6083 -27.7823
L38.0359 -27.9212
L38.2491 -28.0607
L38.462 -28.201
L38.6747 -28.342
L38.8872 -28.4838
L39.0995 -28.6264
L39.3117 -28.7699
L39.5238 -28.9143
L39.7359 -29.0596
L39.9481 -29.2059
L40.1603 -29.3532
L40.3727 -29.5016
L40.5853 -29.651
L40.7981 -29.8016
L41.0112 -29.9534
L41.2246 -30.1064
L41.4384 -30.2606
L41.6526 -30.4161
L41.8673 -30.573
L42.0824 -30.7313
L42.2982 -30.8911
L42.5145 -31.0523
L42.7314 -31.2151
L42.949 -31.3795
L43.1673 -31.5455
L43.3864 -31.7132
L43.6063 -31.8827
L43.827 -32.0539
L44.0486 -32.227
L44.2711 -32.402
L44.4945 -32.5789
L44.7189 -32.7579
L44.9443 -32.9389
L45.1707 -33.1221
L45.3982 -33.3074
L45.6268 -33.4949
L45.8565 -33.6848
L46.0873 -33.8769
L46.3193 -34.0714
L46.5524 -34.2684
L46.7868 -34.4679
L47.0223 -34.6699
L47.2591 -34.8745
L47.4971 -35.0818
L47.7363 -35.2917
L47.9767 -35.5044
L48.2183 -35.7198
L48.4612 -35.9381
L48.7052 -36.1592
L48.9504 -36.3831
L49.1968 -36.61
L49.4443 -36.8398
L49.6929 -37.0725
L49.9425 -37.3082
L50.1932 -37.5468
L50.4449 -37.7883
L50.6975 -38.0328
L50.9509 -38.2801
L51.2052 -38.5303
L51.4602 -38.7832
L51.7158 -39.0389
L51.972 -39.2972
L52.2288 -39.5581
L52.486 -39.8213
L52.7435 -40.0867
L53.0012 -40.3542
L53.2591 -40.6236
L53.5171 -40.8945
L53.7751 -41.1668
L54.0329 -41.44
L54.2907 -41.7138
L54.5481 -41.9877
L54.8053 -42.2612
L55.0622 -42.5337
L55.3188 -42.8045
L55.5751 -43.0728
L55.8312 -43.3377
L56.0872 -43.5981
L56.3433 -43.8528
L56.5996 -44.1003
L56.8565 -44.339
L57.1142 -44.567
L57.3734 -44.7822
L57.6344 -44.982
L57.8978 -45.1639
L58.1643 -45.3248
L58.4344 -45.4615
L58.7088 -45.5708
L58.9879 -45.6494
L59.2719 -45.6942
L59.5608 -45.7028
L59.8545 -45.673
L60.1522 -45.6039
L60.4532 -45.495
L60.7564 -45.347
L61.0604 -45.1612
L61.364 -44.9396
L61.6658 -44.6845
L61.9644 -44.3984
L62.2587 -44.0841
L62.5474 -43.7441
L62.8296 -43.3809
L63.1043 -42.9969
L63.3707 -42.594
L63.6281 -42.1744
L63.8758 -41.7398
L64.0884 -41.2918
L64.1684 -40.8259
L64.2398 -40.3349
L64.3025 -39.8427
L64.3567 -39.3492
L64.4022 -38.8548
L64.439 -38.3594
L64.4672 -37.8634
L64.4867 -37.3668
L64.4976 -36.8698
L64.4997 -36.3725
L64.4932 -35.8751
L64.478 -35.3777
L64.4541 -34.8805
L64.4216 -34.3837
L64.3804 -33.8873
L64.3305 -33.3916
L64.2721 -32.8967
L64.205 -32.4027
L64.1293 -31.9099
L64.0451 -31.4183
L63.9523 -30.928
L63.851 -30.4393
L63.7412 -29.9524
L63.6229 -29.4672
L63.4963 -28.9841
L63.3613 -28.503
L63.2179 -28.0243
L63.0662 -27.548
L62.9063 -27.0743
L62.7382 -26.6033
L62.562 -26.1351
L62.3777 -25.67
L62.1853 -25.208
L61.985 -24.7493
L61.7767 -24.294
L61.5606 -23.8423
L61.3367 -23.3942
L61.1051 -22.9501
L60.8658 -22.5099
L60.619 -22.0738
L60.3647 -21.6419
L60.1029 -21.2145
L59.8338 -20.7915
L59.5575 -20.3731
L59.2739 -19.9596
L58.9833 -19.5509
L58.6857 -19.1472
L58.3812 -18.7487
L58.0698 -18.3554
L57.7517 -17.9674
L57.427 -17.585
L57.0958 -17.2082
L56.7582 -16.8371
L56.4142 -16.4719
L56.064 -16.1125
L55.7077 -15.7593
L55.3454 -15.4122
L54.9772 -15.0714
L54.6032 -14.737
L54.2236 -14.409
L53.8384 -14.0876
L53.4477 -13.7729
L53.0518 -13.465
L52.6506 -13.1639
L52.2444 -12.8698
L51.8333 -12.5827
L51.4173 -12.3028
L50.9966 -12.0301
L50.5713 -11.7647
L50.1417 -11.5066
L49.7077 -11.256
L49.2695 -11.013
L48.8273 -10.7776
L48.3812 -10.5498
L47.9313 -10.3298
L47.4777 -10.1177
L47.0207 -9.91338
L46.5603 -9.71704
L46.0967 -9.52871
L45.6301 -9.34844
L45.1605 -9.17628
L44.6881 -9.0123
L44.213 -8.85654
L43.7355 -8.70905
L43.2556 -8.56987
L42.7735 -8.43904
L42.2893 -8.31661
L41.8032 -8.20261
L41.3154 -8.09708
L40.8259 -8.00005
L40.3349 -7.91155
L39.8427 -7.83161
L39.3492 -7.76024
L38.8548 -7.69748
L38.3594 -7.64334
L37.8634 -7.59783
L37.3668 -7.56098
L36.8698 -7.53279
L36.3725 -7.51327
L35.8751 -7.50243
L35.3777 -7.50027
L34.8805 -7.5068
L34.3837 -7.522
L33.8873 -7.54587
L33.3916 -7.57841
L32.8967 -7.61961
L32.4027 -7.66946
L31.9099 -7.72793
L31.4183 -7.79502
L30.928 -7.8707
L30.4393 -7.95495
L29.9524 -8.04773
L29.4672 -8.14904
L28.9841 -8.25883
L28.503 -8.37706
L28.0243 -8.50372
L27.548 -8.63874
L27.0743 -8.78211
L26.6033 -8.93376
L26.1351 -9.09366
L25.67 -9.26175
L25.208 -9.43799
L24.7493 -9.62232
L24.294 -9.81468
L23.8423 -10.015
L23.3942 -10.2233
L22.9501 -10.4394
L22.5099 -10.6633
L22.0738 -10.8949
L21.6419 -11.1342
L21.2145 -11.381
L20.7915 -11.6353
L20.3731 -11.8971
L19.9596 -12.1662
L19.5509 -12.4425
L19.1472 -12.7261
L18.7487 -13.0167
L18.3554 -13.3143
L17.9674 -13.6188
L17.585 -13.9302
L17.2082 -14.2483
L16.8371 -14.573
L16.4719 -14.9042
L16.1125 -15.2418
L15.7593 -15.5858
L15.4122 -15.936
L15.0714 -16.2923
z
" id="C0_1_95fe9d3082"/>
     <path d="
M7.93716 -31.1768
L8.0048 -31.6918
L8.07962 -32.205
L8.16176 -32.7155
L8.25125 -33.2226
L8.34807 -33.7255
L8.45213 -34.2237
L8.5633 -34.7167
L8.68142 -35.2039
L8.80629 -35.6851
L8.93769 -36.1599
L9.07538 -36.6281
L9.21911 -37.0894
L9.36864 -37.5437
L9.52371 -37.9907
L9.68404 -38.4305
L9.84939 -38.863
L10.0195 -39.288
L10.1941 -39.7056
L10.373 -40.1158
L10.5558 -40.5185
L10.7425 -40.9139
L10.9328 -41.302
L11.1263 -41.6828
L11.3231 -42.0564
L11.5228 -42.423
L11.7252 -42.7825
L11.9303 -43.1351
L12.1377 -43.4809
L12.3475 -43.82
L12.5593 -44.1525
L12.7732 -44.4786
L12.9889 -44.7984
L13.2063 -45.112
L13.4254 -45.4194
L13.646 -45.721
L13.868 -46.0167
L14.0914 -46.3067
L14.316 -46.5911
L14.5418 -46.8701
L14.7688 -47.1438
L14.9968 -47.4122
L15.2258 -47.6756
L15.4558 -47.9341
L15.6867 -48.1877
L15.9185 -48.4366
L16.1511 -48.6809
L16.3846 -48.9207
L16.6189 -49.1561
L16.854 -49.3872
L17.0898 -49.6142
L17.3264 -49.8371
L17.5638 -50.056
L17.8019 -50.271
L18.0408 -50.4823
L18.2804 -50.6898
L18.5209 -50.8937
L18.7621 -51.0941
L19.0041 -51.2911
L19.2469 -51.4847
L19.4905 -51.675
L19.735 -51.8621
L19.9804 -52.046
L20.2267 -52.2268
L20.4739 -52.4047
L20.7221 -52.5796
L20.9713 -52.7515
L21.2215 -52.9207
L21.4728 -53.087
L21.7252 -53.2507
L21.9788 -53.4116
L22.2335 -53.5699
L22.4895 -53.7256
L22.7468 -53.8787
L23.0054 -54.0293
L23.2653 -54.1774
L23.5267 -54.3231
L23.7896 -54.4663
L24.054 -54.6072
L24.32 -54.7457
L24.5877 -54.8818
L24.857 -55.0156
L25.1281 -55.147
L25.401 -55.2762
L25.6759 -55.4031
L25.9526 -55.5276
L26.2314 -55.6499
L26.5123 -55.7699
L26.7953 -55.8876
L27.0805 -56.0031
L27.368 -56.1162
L27.6578 -56.227
L27.9501 -56.3355
L28.2449 -56.4417
L28.5422 -56.5455
L28.8422 -56.6469
L29.1449 -56.7459
L29.4504 -56.8424
L29.7588 -56.9365
L30.0701 -57.028
L30.3844 -57.117
L30.7019 -57.2033
L31.0225 -57.287
L31.3463 -57.3679
L31.6735 -57.4461
L32.0041 -57.5214
L32.3382 -57.5939
L32.6758 -57.6633
L33.0171 -57.7296
L33.3621 -57.7928
L33.7108 -57.8528
L34.0634 -57.9094
L34.4199 -57.9625
L34.7804 -58.0122
L35.1449 -58.0582
L35.5135 -58.1004
L35.8863 -58.1388
L36.2632 -58.1731
L36.6444 -58.2034
L37.0299 -58.2293
L37.4197 -58.2509
L37.8138 -58.2679
L38.2123 -58.2802
L38.6151 -58.2877
L39.0223 -58.2902
L39.4339 -58.2875
L39.8498 -58.2796
L40.27 -58.2661
L40.6944 -58.2471
L41.1231 -58.2222
L41.5559 -58.1914
L41.9927 -58.1545
L42.4334 -58.1114
L42.878 -58.0619
L43.3262 -58.0058
L43.7779 -57.9431
L44.2328 -57.8737
L44.6909 -57.7973
L45.1518 -57.7141
L45.6153 -57.6239
L46.0811 -57.5267
L46.5488 -57.4226
L47.0181 -57.3115
L47.4886 -57.1937
L47.9598 -57.0693
L48.4313 -56.9385
L48.9025 -56.8017
L49.3729 -56.6592
L49.8419 -56.5117
L50.3087 -56.3597
L50.7726 -56.2042
L51.2328 -56.0461
L51.6884 -55.8866
L52.1384 -55.7271
L52.5818 -55.5693
L53.0174 -55.4153
L53.444 -55.2672
L53.8603 -55.1276
L54.2649 -54.9994
L54.6564 -54.8856
L55.0333 -54.7895
L55.3943 -54.7143
L55.7381 -54.663
L56.0636 -54.6381
L56.3702 -54.6417
L56.6573 -54.6749
L56.9247 -54.7382
L56.9619 -54.8311
L56.6217 -55.3093
L56.2752 -55.6722
L55.9226 -56.0291
L55.5639 -56.3799
L55.1992 -56.7245
L54.8287 -57.0628
L54.4524 -57.3946
L54.0706 -57.72
L53.6832 -58.0387
L53.2904 -58.3507
L52.8924 -58.6559
L52.4892 -58.9542
L52.081 -59.2456
L51.6679 -59.5298
L51.25 -59.8069
L50.8275 -60.0767
L50.4005 -60.3392
L49.969 -60.5942
L49.5334 -60.8418
L49.0936 -61.0818
L48.6498 -61.3142
L48.2021 -61.5389
L47.7508 -61.7557
L47.2958 -61.9648
L46.8375 -62.1659
L46.3758 -62.359
L45.9109 -62.5442
L45.4431 -62.7212
L44.9724 -62.8901
L44.4989 -63.0508
L44.0228 -63.2033
L43.5443 -63.3475
L43.0635 -63.4833
L42.5806 -63.6108
L42.0956 -63.7299
L41.6088 -63.8405
L41.1203 -63.9426
L40.6302 -64.0363
L40.1387 -64.1214
L39.646 -64.1979
L39.1521 -64.2658
L38.6573 -64.3252
L38.1616 -64.3758
L37.6654 -64.4179
L37.1686 -64.4513
L36.6714 -64.476
L36.1741 -64.4921
L35.6766 -64.4995
L35.1793 -64.4982
L34.6823 -64.4882
L34.1856 -64.4695
L33.6895 -64.4422
L33.1941 -64.4062
L32.6995 -64.3615
L32.206 -64.3082
L31.7136 -64.2463
L31.2225 -64.1758
L30.7329 -64.0967
L30.2449 -64.0091
L29.7586 -63.9129
L29.2742 -63.8082
L28.7919 -63.695
L28.3118 -63.5734
L27.834 -63.4434
L27.3587 -63.3051
L26.886 -63.1584
L26.4162 -63.0034
L25.9492 -62.8403
L25.4853 -62.6689
L25.0246 -62.4894
L24.5672 -62.3019
L24.1133 -62.1064
L23.6631 -61.9028
L23.2166 -61.6915
L22.774 -61.4722
L22.3354 -61.2452
L21.901 -61.0106
L21.4709 -60.7683
L21.0452 -60.5185
L20.624 -60.2612
L20.2076 -59.9965
L19.796 -59.7245
L19.3892 -59.4452
L18.9876 -59.1589
L18.5911 -58.8654
L18.2 -58.565
L17.8142 -58.2578
L17.434 -57.9437
L17.0595 -57.623
L16.6907 -57.2957
L16.3278 -56.9619
L15.9709 -56.6217
L15.6201 -56.2752
L15.2755 -55.9226
L14.9372 -55.5639
L14.6054 -55.1992
L14.28 -54.8287
L13.9613 -54.4524
L13.6493 -54.0706
L13.3441 -53.6832
L13.0458 -53.2904
L12.7544 -52.8924
L12.4702 -52.4892
L12.1931 -52.081
L11.9233 -51.6679
L11.6608 -51.25
L11.4058 -50.8275
L11.1582 -50.4005
L10.9182 -49.969
L10.6858 -49.5334
L10.4611 -49.0936
L10.2443 -48.6498
L10.0352 -48.2021
L9.83411 -47.7508
L9.64095 -47.2958
L9.45583 -46.8375
L9.27879 -46.3758
L9.10989 -45.9109
L8.94918 -45.4431
L8.79671 -44.9724
L8.65253 -44.4989
L8.51667 -44.0228
L8.38919 -43.5443
L8.27012 -43.0635
L8.1595 -42.5806
L8.05736 -42.0956
L7.96373 -41.6088
L7.87863 -41.1203
L7.80211 -40.6302
L7.73417 -40.1387
L7.67485 -39.646
L7.62415 -39.1521
L7.5821 -38.6573
L7.5487 -38.1616
L7.52397 -37.6654
L7.50791 -37.1686
L7.50053 -36.6714
L7.50183 -36.1741
L7.51182 -35.6766
L7.53048 -35.1793
L7.55781 -34.6823
L7.59381 -34.1856
L7.63846 -33.6895
L7.69175 -33.1941
L7.75366 -32.6995
L7.82418 -32.206
z
" id="C0_2_f157897fd4"/>
    </defs>
    <g clip-path="url(#p1bffca34e9)">
     <use style="fill:#ff0000;stroke:#000000;stroke-width:2.0;" x="0.0" xlink:href="#C0_0_a811fe30f3" y="72.0"/>
    </g>
    <g clip-path="url(#p1bffca34e9)">
     <use style="fill:#ffffff;stroke:#000000;stroke-width:2.0;" x="0.0" xlink:href="#C0_1_95fe9d3082" y="72.0"/>
    </g>
    <g clip-path="url(#p1bffca34e9)">
     <use style="fill:#ffffff;stroke:#000000;stroke-width:2.0;" x="0.0" xlink:href="#C0_2_f157897fd4" y="72.0"/>
    </g>
   </g>
  </g>
 </g>
 <defs>
  <clipPath id="p1bffca34e9">
   <rect height="72.0" width="72.0" x="0.0" y="0.0"/>
  </clipPath>
 </defs>
</svg>
