<?xml version="1.0" encoding="utf-8" standalone="no"?>
<!DOCTYPE svg PUBLIC "-//W3C//DTD SVG 1.1//EN"
  "http://www.w3.org/Graphics/SVG/1.1/DTD/svg11.dtd">
<!-- Created with matplotlib (http://matplotlib.org/) -->
<svg height="72pt" version="1.1" viewBox="0 0 72 72" width="72pt" xmlns="http://www.w3.org/2000/svg" xmlns:xlink="http://www.w3.org/1999/xlink">
 <defs>
  <style type="text/css">
*{stroke-linecap:butt;stroke-linejoin:round;}
  </style>
 </defs>
 <g id="figure_1">
  <g id="patch_1">
   <path d="
M0 72
L72 72
L72 0
L0 0
z
" style="fill:none;"/>
  </g>
  <g id="axes_1">
   <g id="PatchCollection_1">
    <defs>
     <path d="
M36 -7.5
C43.5583 -7.5 50.808 -10.5029 56.1525 -15.8475
C61.4971 -21.192 64.5 -28.4417 64.5 -36
C64.5 -43.5583 61.4971 -50.808 56.1525 -56.1525
C50.808 -61.4971 43.5583 -64.5 36 -64.5
C28.4417 -64.5 21.192 -61.4971 15.8475 -56.1525
C10.5029 -50.808 7.5 -43.5583 7.5 -36
C7.5 -28.4417 10.5029 -21.192 15.8475 -15.8475
C21.192 -10.5029 28.4417 -7.5 36 -7.5
z
" id="C0_0_a811fe30f3"/>
     <path d="
M59.311 -52.3368
L59.0424 -52.3317
L58.7805 -52.3076
L58.5255 -52.265
L58.2772 -52.2046
L58.0356 -52.1271
L57.8006 -52.0333
L57.5719 -51.9241
L57.3492 -51.8001
L57.1322 -51.6625
L56.9207 -51.5118
L56.7142 -51.3492
L56.5125 -51.1754
L56.3151 -50.9912
L56.1218 -50.7975
L55.9322 -50.5951
L55.746 -50.3848
L55.5629 -50.1671
L55.3826 -49.943
L55.2047 -49.7129
L55.0292 -49.4775
L54.8556 -49.2374
L54.6839 -48.9932
L54.5139 -48.7453
L54.3453 -48.4941
L54.178 -48.2403
L54.0119 -47.984
L53.8469 -47.7258
L53.6828 -47.4659
L53.5195 -47.2047
L53.357 -46.9425
L53.1952 -46.6795
L53.034 -46.416
L52.8734 -46.1522
L52.7133 -45.8883
L52.5537 -45.6246
L52.3945 -45.361
L52.2358 -45.0979
L52.0774 -44.8354
L51.9195 -44.5735
L51.7618 -44.3125
L51.6045 -44.0523
L51.4475 -43.7931
L51.2908 -43.5349
L51.1344 -43.2779
L50.9782 -43.0221
L50.8224 -42.7674
L50.6668 -42.5141
L50.5114 -42.262
L50.3563 -42.0113
L50.2014 -41.762
L50.0468 -41.514
L49.8924 -41.2674
L49.7382 -41.0222
L49.5842 -40.7784
L49.4303 -40.536
L49.2767 -40.2949
L49.1233 -40.0553
L48.97 -39.817
L48.8168 -39.5801
L48.6638 -39.3445
L48.5109 -39.1102
L48.3581 -38.8772
L48.2054 -38.6455
L48.0528 -38.4151
L47.9003 -38.1858
L47.7478 -37.9578
L47.5954 -37.7309
L47.4429 -37.5052
L47.2905 -37.2805
L47.138 -37.0569
L46.9855 -36.8344
L46.833 -36.6128
L46.6803 -36.3922
L46.5276 -36.1726
L46.3747 -35.9538
L46.2217 -35.7359
L46.0685 -35.5188
L45.9152 -35.3025
L45.7616 -35.0869
L45.6078 -34.8721
L45.4537 -34.6579
L45.2994 -34.4443
L45.1447 -34.2313
L44.9897 -34.0189
L44.8343 -33.807
L44.6786 -33.5956
L44.5224 -33.3846
L44.3658 -33.174
L44.0511 -32.9637
L43.893 -32.7538
L43.7343 -32.5442
L43.5751 -32.3348
L43.4152 -32.1256
L43.2547 -31.9166
L43.0935 -31.7078
L42.9316 -31.499
L42.769 -31.2903
L42.6057 -31.0816
L42.4415 -30.8728
L42.2765 -30.6641
L42.1107 -30.4552
L41.9439 -30.2462
L41.7763 -30.0371
L41.6077 -29.8278
L41.4382 -29.6182
L41.2676 -29.4084
L41.096 -29.1983
L40.9234 -28.9878
L40.7496 -28.777
L40.5748 -28.5658
L40.3987 -28.3542
L40.2215 -28.1421
L40.0431 -27.9296
L39.8635 -27.7165
L39.6826 -27.5029
L39.5004 -27.2887
L39.3169 -27.0738
L39.1321 -26.8584
L38.9459 -26.6423
L38.7583 -26.4256
L38.5694 -26.2081
L38.3791 -25.99
L38.1873 -25.771
L37.9941 -25.5514
L37.7995 -25.3309
L37.6034 -25.1096
L37.4059 -24.8875
L37.2069 -24.6646
L37.0065 -24.4409
L36.8047 -24.2163
L36.6014 -23.9908
L36.3968 -23.7645
L36.1908 -23.5372
L35.9834 -23.3091
L35.7747 -23.0801
L35.5648 -22.8503
L35.3537 -22.6195
L35.1414 -22.3878
L34.928 -22.1553
L34.7137 -21.9219
L34.4984 -21.6876
L34.2823 -21.4524
L34.0656 -21.2164
L33.8482 -20.9795
L33.6305 -20.7419
L33.4125 -20.5033
L33.1945 -20.264
L32.9766 -20.0239
L32.759 -19.783
L32.5419 -19.5414
L32.3257 -19.299
L32.1107 -19.0558
L31.897 -18.8119
L31.6851 -18.5673
L31.4754 -18.322
L31.2682 -18.0759
L31.0639 -17.8291
L30.8631 -17.5816
L30.6662 -17.3333
L30.4737 -17.0843
L30.2863 -16.8344
L30.1045 -16.5838
L29.929 -16.3323
L29.7605 -16.0799
L29.5996 -15.8266
L29.4471 -15.5722
L29.3039 -15.3169
L29.1706 -15.0604
L29.0481 -14.8027
L28.9373 -14.5439
L28.839 -14.2837
L28.7539 -14.0223
L28.683 -13.7595
L28.6269 -13.4954
L28.5864 -13.2299
L28.5622 -12.9632
L28.5549 -12.6952
L28.5651 -12.4261
L28.5931 -12.156
L28.6394 -11.8851
L28.7042 -11.6136
L28.7877 -11.3419
L28.89 -11.0701
L29.011 -10.7986
L29.1505 -10.5278
L29.3084 -10.2581
L29.4844 -9.98999
L29.678 -9.72385
L29.889 -9.46016
L30.1166 -9.1994
L30.3605 -8.94204
L30.6201 -8.68857
L30.8947 -8.43945
L31.1838 -8.19514
L31.667 -7.95608
L32.1593 -7.8313
L32.6528 -7.75997
L33.1472 -7.69724
L33.6425 -7.64314
L34.1386 -7.59767
L34.6352 -7.56085
L35.1322 -7.5327
L35.6295 -7.51321
L36.1269 -7.50241
L36.6243 -7.50028
L37.1215 -7.50684
L37.6183 -7.52207
L38.1147 -7.54598
L38.6104 -7.57856
L39.1053 -7.6198
L39.5992 -7.66968
L40.0921 -7.72819
L40.5837 -7.79531
L41.0739 -7.87102
L41.5626 -7.9553
L42.0496 -8.04812
L42.5347 -8.14946
L43.0179 -8.25928
L43.4989 -8.37756
L43.9776 -8.50424
L44.4539 -8.6393
L44.9276 -8.7827
L45.3986 -8.93439
L45.8668 -9.09432
L46.3319 -9.26244
L46.7939 -9.43871
L47.2526 -9.62308
L47.7078 -9.81547
L48.1595 -10.0158
L48.6075 -10.2241
L49.0517 -10.4403
L49.4919 -10.6642
L49.928 -10.8958
L50.3598 -11.1351
L50.7872 -11.382
L51.2102 -11.6364
L51.6285 -11.8981
L52.0421 -12.1673
L52.4508 -12.4436
L52.8544 -12.7272
L53.2529 -13.0179
L53.6462 -13.3155
L54.0341 -13.6201
L54.4165 -13.9314
L54.7933 -14.2495
L55.1644 -14.5743
L55.5296 -14.9055
L55.8889 -15.2432
L56.2421 -15.5872
L56.5892 -15.9374
L56.9299 -16.2937
L57.2644 -16.6561
L57.5923 -17.0243
L57.9136 -17.3983
L58.2283 -17.778
L58.5362 -18.1632
L58.8373 -18.5539
L59.1314 -18.9498
L59.4184 -19.351
L59.6983 -19.7572
L59.971 -20.1684
L60.2364 -20.5844
L60.4944 -21.0051
L60.745 -21.4304
L60.988 -21.8601
L61.2234 -22.2941
L61.4511 -22.7323
L61.671 -23.1745
L61.8832 -23.6206
L62.0874 -24.0705
L62.2837 -24.5241
L62.472 -24.9811
L62.6523 -25.4415
L62.8244 -25.9051
L62.9883 -26.3718
L63.1441 -26.8414
L63.2915 -27.3138
L63.4307 -27.7889
L63.5615 -28.2664
L63.6839 -28.7463
L63.7978 -29.2285
L63.9033 -29.7126
L64.0003 -30.1987
L64.0888 -30.6866
L64.1687 -31.1761
L64.24 -31.667
L64.3028 -32.1593
L64.3569 -32.6528
L64.4023 -33.1472
L64.4391 -33.6425
L64.4673 -34.1386
L64.4868 -34.6352
L64.4976 -35.1322
L64.4997 -35.6295
L64.4932 -36.1269
L64.4779 -36.6243
L64.454 -37.1215
L64.4214 -37.6183
L64.3802 -38.1147
L64.3303 -38.6104
L64.2718 -39.1053
L64.2047 -39.5992
L64.129 -40.0921
L64.0447 -40.5837
L63.9519 -41.0739
L63.8505 -41.5626
L63.7407 -42.0496
L63.6224 -42.5347
L63.4958 -43.0179
L63.3607 -43.4989
L63.2173 -43.9776
L63.0656 -44.4539
L62.9057 -44.9276
L62.7376 -45.3986
L62.5613 -45.8668
L62.3769 -46.3319
L62.1845 -46.7939
L61.9842 -47.2526
L61.7759 -47.7078
L61.5597 -48.1595
L61.3358 -48.6075
L61.1042 -49.0517
L60.8649 -49.4919
L60.618 -49.928
L60.3636 -50.3598
L60.1019 -50.7872
L59.8327 -51.2102
z
" id="C0_1_85ea775b4b"/>
     <path d="
M40.4706 -64.0096
L40.1059 -63.884
L39.7382 -63.7563
L39.3681 -63.6265
L38.9964 -63.4943
L38.6236 -63.3596
L38.2502 -63.2222
L37.8769 -63.0821
L37.504 -62.9391
L37.1319 -62.7932
L36.7612 -62.6445
L36.3921 -62.4928
L36.025 -62.3382
L35.6601 -62.1806
L35.2978 -62.0202
L34.9383 -61.857
L34.5817 -61.691
L34.2284 -61.5223
L33.8784 -61.351
L33.5318 -61.1771
L33.1889 -61.0007
L32.8497 -60.8218
L32.5143 -60.6407
L32.1829 -60.4572
L31.8553 -60.2716
L31.5317 -60.0839
L31.2122 -59.8942
L30.8967 -59.7025
L30.5853 -59.509
L30.2779 -59.3137
L29.9746 -59.1167
L29.6754 -58.9181
L29.3801 -58.7178
L29.0889 -58.5161
L28.8017 -58.3129
L28.5184 -58.1083
L28.2391 -57.9023
L27.9635 -57.6951
L27.6919 -57.4866
L27.424 -57.2769
L27.1598 -57.066
L26.8993 -56.854
L26.6424 -56.641
L26.389 -56.4268
L26.1392 -56.2116
L25.8928 -55.9954
L25.6498 -55.7783
L25.4102 -55.5601
L25.1738 -55.341
L24.9407 -55.1209
L24.7107 -54.8999
L24.4838 -54.678
L24.2599 -54.4551
L24.039 -54.2313
L23.8211 -54.0066
L23.606 -53.7809
L23.3938 -53.5543
L23.1843 -53.3268
L22.9775 -53.0983
L22.7734 -52.8689
L22.5719 -52.6385
L22.3729 -52.4071
L22.1765 -52.1747
L21.9825 -51.9412
L21.791 -51.7067
L21.6018 -51.4711
L21.4149 -51.2345
L21.2304 -50.9967
L21.0481 -50.7578
L20.868 -50.5176
L20.6901 -50.2763
L20.5143 -50.0338
L20.3406 -49.7899
L20.169 -49.5448
L19.9994 -49.2983
L19.8319 -49.0504
L19.6663 -48.8012
L19.5027 -48.5504
L19.341 -48.2982
L19.1812 -48.0445
L19.0234 -47.7891
L18.8674 -47.5322
L18.7132 -47.2735
L18.5609 -47.0132
L18.4104 -46.7511
L18.2617 -46.4872
L18.1149 -46.2215
L17.9698 -45.9539
L17.8265 -45.6843
L17.685 -45.4128
L17.5452 -45.1391
L17.4073 -44.8635
L17.2711 -44.5856
L17.1367 -44.3056
L17.0041 -44.0233
L16.8733 -43.7387
L16.7444 -43.4518
L16.6172 -43.1625
L16.4919 -42.8708
L16.3684 -42.5765
L16.2468 -42.2797
L16.127 -41.9804
L16.0092 -41.6783
L15.8934 -41.3736
L15.7795 -41.0662
L15.6676 -40.756
L15.5577 -40.4429
L15.4498 -40.127
L15.3441 -39.8082
L15.2405 -39.4865
L15.1391 -39.1618
L15.0399 -38.8341
L14.9429 -38.5034
L14.8483 -38.1696
L14.756 -37.8328
L14.6661 -37.4928
L14.5786 -37.1498
L14.4937 -36.8036
L14.4112 -36.4544
L14.3314 -36.1021
L14.2542 -35.7467
L14.1797 -35.3882
L14.108 -35.0267
L14.039 -34.6621
L13.9729 -34.2947
L13.9096 -33.9243
L13.8493 -33.5512
L13.7919 -33.1752
L13.7375 -32.7967
L13.6861 -32.4155
L13.6376 -32.0319
L13.5922 -31.6461
L13.5498 -31.258
L13.5104 -30.868
L13.474 -30.4761
L13.4405 -30.0827
L13.4099 -29.6878
L13.382 -29.2918
L13.3568 -28.8949
L13.3342 -28.4974
L13.3141 -28.0995
L13.2961 -27.7017
L13.2803 -27.3042
L13.2662 -26.9075
L13.2537 -26.5118
L13.2425 -26.1178
L13.2322 -25.7257
L13.2225 -25.3361
L13.2129 -24.9495
L13.203 -24.5664
L13.1924 -24.1873
L13.1804 -23.8127
L13.1666 -23.4434
L13.1503 -23.0797
L13.131 -22.7224
L13.108 -22.372
L13.0807 -22.0291
L13.0484 -21.6944
L13.0105 -21.3683
L12.9664 -21.0515
L12.9154 -20.7444
L12.857 -20.4477
L12.7908 -20.1618
L12.2849 -19.887
L12.0127 -20.1935
L11.7478 -20.6098
L11.4902 -21.0307
L11.2401 -21.4563
L10.9976 -21.8863
L10.7626 -22.3205
L10.5354 -22.759
L10.3159 -23.2014
L10.1042 -23.6478
L9.90046 -24.0979
L9.70463 -24.5517
L9.51682 -25.0089
L9.33707 -25.4695
L9.16544 -25.9333
L9.00199 -26.4002
L8.84676 -26.87
L8.6998 -27.3425
L8.56116 -27.8178
L8.43088 -28.2955
L8.30899 -28.7755
L8.19554 -29.2577
L8.09056 -29.742
L7.99408 -30.2283
L7.90613 -30.7162
L7.82674 -31.2058
L7.75593 -31.6968
L7.69372 -32.1892
L7.64014 -32.6827
L7.59519 -33.1772
L7.5589 -33.6726
L7.53127 -34.1687
L7.51231 -34.6653
L7.50203 -35.1624
L7.50043 -35.6597
L7.50751 -36.1571
L7.52328 -36.6544
L7.54771 -37.1516
L7.58081 -37.6484
L7.62257 -38.1447
L7.67298 -38.6404
L7.73201 -39.1352
L7.79965 -39.6291
L7.87588 -40.1219
L7.96068 -40.6135
L8.05402 -41.1036
L8.15588 -41.5922
L8.26621 -42.079
L8.38499 -42.5641
L8.51219 -43.0471
L8.64776 -43.528
L8.79165 -44.0065
L8.94384 -44.4827
L9.10427 -44.9562
L9.27289 -45.4271
L9.44966 -45.895
L9.63451 -46.36
L9.82739 -46.8218
L10.0282 -47.2803
L10.237 -47.7353
L10.4536 -48.1868
L10.678 -48.6346
L10.9101 -49.0785
L11.1499 -49.5184
L11.3972 -49.9543
L11.652 -50.3858
L11.9142 -50.813
L12.1838 -51.2357
L12.4606 -51.6537
L12.7446 -52.067
L13.0357 -52.4754
L13.3338 -52.8787
L13.6387 -53.2769
L13.9505 -53.6699
L14.269 -54.0574
L14.5942 -54.4395
L14.9258 -54.8159
L15.2639 -55.1867
L15.6082 -55.5515
L15.9588 -55.9105
L16.3155 -56.2633
L16.6782 -56.61
L17.0468 -56.9504
L17.4212 -57.2844
L17.8012 -57.612
L18.1867 -57.9329
L18.5777 -58.2472
L18.974 -58.5547
L19.3755 -58.8553
L19.782 -59.149
L20.1935 -59.4356
L20.6098 -59.7151
L21.0307 -59.9873
L21.4563 -60.2522
L21.8863 -60.5098
L22.3205 -60.7599
L22.759 -61.0024
L23.2014 -61.2374
L23.6478 -61.4646
L24.0979 -61.6841
L24.5517 -61.8958
L25.0089 -62.0995
L25.4695 -62.2954
L25.9333 -62.4832
L26.4002 -62.6629
L26.87 -62.8346
L27.3425 -62.998
L27.8178 -63.1532
L28.2955 -63.3002
L28.7755 -63.4388
L29.2577 -63.5691
L29.742 -63.691
L30.2283 -63.8045
L30.7162 -63.9094
L31.2058 -64.0059
L31.6968 -64.0939
L32.1892 -64.1733
L32.6827 -64.2441
L33.1772 -64.3063
L33.6726 -64.3599
L34.1687 -64.4048
L34.6653 -64.4411
L35.1624 -64.4687
L35.6597 -64.4877
L36.1571 -64.498
L36.6544 -64.4996
L37.1516 -64.4925
L37.6484 -64.4767
L38.1447 -64.4523
L38.6404 -64.4192
L39.1352 -64.3774
L39.6291 -64.327
z
" id="C0_2_d41637c039"/>
    </defs>
    <g clip-path="url(#p1bffca34e9)">
     <use style="fill:#ff0000;stroke:#000000;stroke-width:2.0;" x="0.0" xlink:href="#C0_0_a811fe30f3" y="72.0"/>
    </g>
    <g clip-path="url(#p1bffca34e9)">
     <use style="fill:#ffffff;stroke:#000000;stroke-width:2.0;" x="0.0" xlink:href="#C0_1_85ea775b4b" y="72.0"/>
    </g>
    <g clip-path="url(#p1bffca34e9)">
     <use style="fill:#ffffff;stroke:#000000;stroke-width:2.0;" x="0.0" xlink:href="#C0_2_d41637c039" y="72.0"/>
    </g>
   </g>
  </g>
 </g>
 <defs>
  <clipPath id="p1bffca34e9">
   <rect height="72.0" width="72.0" x="0.0" y="0.0"/>
  </clipPath>
 </defs>
</svg>
