<?xml version="1.0" encoding="utf-8" standalone="no"?>
<!DOCTYPE svg PUBLIC "-//W3C//DTD SVG 1.1//EN"
  "http://www.w3.org/Graphics/SVG/1.1/DTD/svg11.dtd">
<!-- Created with matplotlib (http://matplotlib.org/) -->
<svg height="72pt" version="1.1" viewBox="0 0 72 72" width="72pt" xmlns="http://www.w3.org/2000/svg" xmlns:xlink="http://www.w3.org/1999/xlink">
 <defs>
  <style type="text/css">
*{stroke-linecap:butt;stroke-linejoin:round;}
  </style>
 </defs>
 <g id="figure_1">
  <g id="patch_1">
   <path d="
M0 72
L72 72
L72 0
L0 0
z
" style="fill:none;"/>
  </g>
  <g id="axes_1">
   <g id="PatchCollection_1">
    <defs>
     <path d="
M36 -7.5
C43.5583 -7.5 50.808 -10.5029 56.1525 -15.8475
C61.4971 -21.192 64.5 -28.4417 64.5 -36
C64.5 -43.5583 61.4971 -50.808 56.1525 -56.1525
C50.808 -61.4971 43.5583 -64.5 36 -64.5
C28.4417 -64.5 21.192 -61.4971 15.8475 -56.1525
C10.5029 -50.808 7.5 -43.5583 7.5 -36
C7.5 -28.4417 10.5029 -21.192 15.8475 -15.8475
C21.192 -10.5029 28.4417 -7.5 36 -7.5
z
" id="C0_0_a811fe30f3"/>
     <path d="
M37.1992 -7.55624
L37.1168 -7.76051
L37.0334 -7.96527
L36.9491 -8.1705
L36.8641 -8.37618
L36.7785 -8.58231
L36.6922 -8.78886
L36.6054 -8.99584
L36.5181 -9.20322
L36.4304 -9.41101
L36.3423 -9.6192
L36.2539 -9.82778
L36.1653 -10.0367
L36.0764 -10.2461
L35.9874 -10.4559
L35.8981 -10.666
L35.8088 -10.8765
L35.7193 -11.0874
L35.6298 -11.2988
L35.5401 -11.5105
L35.4505 -11.7227
L35.3608 -11.9352
L35.2711 -12.1482
L35.1814 -12.3617
L35.0917 -12.5756
L35.002 -12.79
L34.9123 -13.0048
L34.8227 -13.2202
L34.7331 -13.4361
L34.6435 -13.6525
L34.554 -13.8695
L34.4644 -14.087
L34.375 -14.3051
L34.2855 -14.5239
L34.1961 -14.7432
L34.1067 -14.9632
L34.0173 -15.1839
L33.928 -15.4053
L33.8386 -15.6274
L33.7493 -15.8503
L33.6599 -16.0739
L33.4812 -16.2983
L33.3918 -16.5236
L33.3023 -16.7497
L33.2128 -16.9766
L33.1233 -17.2045
L33.0337 -17.4333
L32.944 -17.6631
L32.8542 -17.8938
L32.7643 -18.1256
L32.6743 -18.3584
L32.5841 -18.5923
L32.4939 -18.8272
L32.4034 -19.0633
L32.3129 -19.3006
L32.2221 -19.539
L32.1311 -19.7787
L32.04 -20.0196
L31.9486 -20.2618
L31.857 -20.5053
L31.7651 -20.7501
L31.6729 -20.9962
L31.5805 -21.2438
L31.4878 -21.4927
L31.3947 -21.7431
L31.3014 -21.9949
L31.2076 -22.2483
L31.1135 -22.5031
L31.019 -22.7594
L30.9241 -23.0173
L30.8288 -23.2768
L30.733 -23.5378
L30.6367 -23.8005
L30.54 -24.0647
L30.4427 -24.3306
L30.3449 -24.5981
L30.2466 -24.8672
L30.1476 -25.138
L30.0481 -25.4105
L29.9479 -25.6846
L29.847 -25.9604
L29.7455 -26.2378
L29.6432 -26.5168
L29.5402 -26.7974
L29.4363 -27.0797
L29.3317 -27.3635
L29.2262 -27.6489
L29.1198 -27.9358
L29.0125 -28.2242
L28.9041 -28.5141
L28.7948 -28.8053
L28.6844 -29.0979
L28.5729 -29.3918
L28.4602 -29.687
L28.3463 -29.9832
L28.2312 -30.2806
L28.1147 -30.5789
L27.9968 -30.8782
L27.8774 -31.1782
L27.7566 -31.479
L27.6341 -31.7803
L27.51 -32.082
L27.384 -32.384
L27.2563 -32.6862
L27.1267 -32.9885
L26.995 -33.2905
L26.8612 -33.5923
L26.7252 -33.8935
L26.5869 -34.194
L26.4463 -34.4936
L26.3031 -34.7921
L26.1572 -35.0893
L26.0087 -35.3849
L25.8573 -35.6788
L25.7029 -35.9706
L25.5454 -36.2601
L25.3848 -36.5471
L25.2209 -36.8313
L25.0535 -37.1125
L24.8826 -37.3903
L24.7082 -37.6646
L24.53 -37.935
L24.3479 -38.2014
L24.1621 -38.4633
L23.9722 -38.7206
L23.7784 -38.9731
L23.5805 -39.2204
L23.3785 -39.4624
L23.1723 -39.6987
L22.9621 -39.9293
L22.7478 -40.1539
L22.5294 -40.3724
L22.307 -40.5845
L22.0806 -40.7901
L21.8504 -40.989
L21.6163 -41.1813
L21.3786 -41.3666
L21.1374 -41.5451
L20.8928 -41.7165
L20.6449 -41.8809
L20.3939 -42.0383
L20.1401 -42.1885
L19.8835 -42.3317
L19.6245 -42.4677
L19.3631 -42.5968
L19.0996 -42.7188
L18.8343 -42.8338
L18.5672 -42.942
L18.2987 -43.0433
L18.0289 -43.1378
L17.758 -43.2257
L17.4863 -43.307
L17.214 -43.3818
L16.9412 -43.4502
L16.6681 -43.5123
L16.3949 -43.5683
L16.1219 -43.6181
L15.8491 -43.662
L15.5768 -43.7
L15.305 -43.7322
L15.034 -43.7588
L14.7639 -43.7798
L14.4948 -43.7954
L14.2268 -43.8056
L13.9601 -43.8106
L13.6948 -43.8104
L13.4309 -43.8052
L13.1686 -43.795
L12.908 -43.7799
L12.649 -43.7601
L12.3919 -43.7356
L12.1367 -43.7064
L11.8834 -43.6727
L11.6321 -43.6345
L11.3829 -43.5919
L11.1358 -43.545
L10.8908 -43.4939
L10.648 -43.4385
L10.4074 -43.3789
L10.169 -43.3153
L9.93294 -43.2476
L9.69916 -43.1759
L9.46769 -43.1003
L9.23855 -43.0207
L9.01176 -42.9373
L8.78733 -42.8499
L8.56527 -42.7588
L8.34559 -42.6638
L8.16 -42.5651
L8.05782 -42.0979
L7.96415 -41.6111
L7.87902 -41.1226
L7.80245 -40.6325
L7.73447 -40.141
L7.67511 -39.6483
L7.62437 -39.1544
L7.58227 -38.6596
L7.54884 -38.164
L7.52406 -37.6677
L7.50797 -37.1709
L7.50055 -36.6738
L7.50181 -36.1764
L7.51175 -35.679
L7.53037 -35.1817
L7.55766 -34.6846
L7.59362 -34.1879
L7.63823 -33.6918
L7.69148 -33.1964
L7.75335 -32.7019
L7.82383 -32.2083
L7.90289 -31.7159
L7.9905 -31.2248
L8.08665 -30.7352
L8.1913 -30.2472
L8.30443 -29.7609
L8.42599 -29.2765
L8.55595 -28.7942
L8.69426 -28.314
L8.8409 -27.8363
L8.99581 -27.3609
L9.15894 -26.8883
L9.33025 -26.4184
L9.50969 -25.9514
L9.69719 -25.4875
L9.89271 -25.0267
L10.0962 -24.5694
L10.3075 -24.1155
L10.5267 -23.6652
L10.7537 -23.2187
L10.9883 -22.7761
L11.2306 -22.3375
L11.4803 -21.903
L11.7376 -21.4729
L12.0023 -21.0472
L12.2742 -20.626
L12.5534 -20.2095
L12.8398 -19.7979
L13.1332 -19.3911
L13.4335 -18.9895
L13.7408 -18.593
L14.0548 -18.2018
L14.3755 -17.816
L14.7027 -17.4358
L15.0365 -17.0612
L15.3767 -16.6924
L15.7231 -16.3295
L16.0757 -15.9726
L16.4344 -15.6217
L16.7991 -15.2771
L17.1695 -14.9388
L17.5458 -14.6069
L17.9276 -14.2815
L18.315 -13.9628
L18.7077 -13.6507
L19.1057 -13.3455
L19.5089 -13.0471
L19.9171 -12.7558
L20.3301 -12.4715
L20.748 -12.1944
L21.1705 -11.9246
L21.5975 -11.6621
L22.0289 -11.4069
L22.4646 -11.1593
L22.9043 -10.9193
L23.3481 -10.6869
L23.7957 -10.4622
L24.2471 -10.2453
L24.702 -10.0362
L25.1604 -9.83504
L25.622 -9.64185
L26.0869 -9.45668
L26.5547 -9.2796
L27.0254 -9.11067
L27.4989 -8.94992
L27.9749 -8.79741
L28.4534 -8.65319
L28.9342 -8.5173
L29.4171 -8.38978
L29.9021 -8.27067
L30.3889 -8.16
L30.8774 -8.05782
L31.3675 -7.96415
L31.859 -7.87902
L32.3517 -7.80245
L32.8456 -7.73447
L33.3404 -7.67511
L33.836 -7.62437
L34.3323 -7.58227
L34.8291 -7.54884
L35.3262 -7.52406
L35.8236 -7.50797
L36.321 -7.50055
z
" id="C0_1_8652cd4742"/>
     <path d="
M63.6548 -29.5878
L63.5045 -29.7755
L63.3532 -29.9626
L63.2009 -30.149
L63.0475 -30.3348
L62.8932 -30.5199
L62.7379 -30.7043
L62.5816 -30.888
L62.4243 -31.071
L62.2661 -31.2533
L62.1068 -31.435
L61.9466 -31.6159
L61.7854 -31.7962
L61.6233 -31.9758
L61.4601 -32.1547
L61.296 -32.333
L61.1309 -32.5107
L60.9648 -32.6877
L60.7977 -32.8642
L60.6296 -33.04
L60.4605 -33.2153
L60.2903 -33.39
L60.1192 -33.5642
L59.947 -33.7378
L59.7737 -33.911
L59.5994 -34.0836
L59.424 -34.2559
L59.2475 -34.4276
L59.07 -34.599
L58.8913 -34.7699
L58.7114 -34.9405
L58.5305 -35.1107
L58.3483 -35.2806
L58.165 -35.4502
L57.9805 -35.6195
L57.7947 -35.7886
L57.6077 -35.9574
L57.4194 -36.126
L57.2299 -36.2944
L57.039 -36.4626
L56.8468 -36.6307
L56.6533 -36.7987
L56.4584 -36.9666
L56.2621 -37.1343
L56.0644 -37.3021
L55.8652 -37.4698
L55.6646 -37.6375
L55.4624 -37.8052
L55.2588 -37.973
L55.0536 -38.1408
L54.8469 -38.3088
L54.6386 -38.4768
L54.4287 -38.6449
L54.2171 -38.8132
L54.0039 -38.9817
L53.7891 -39.1504
L53.5725 -39.3193
L53.3542 -39.4885
L53.1342 -39.6579
L52.9124 -39.8276
L52.6888 -39.9976
L52.4635 -40.1679
L52.2364 -40.3386
L52.0074 -40.5096
L51.7766 -40.6811
L51.5439 -40.8529
L51.3094 -41.0252
L51.0731 -41.1979
L50.8349 -41.3711
L50.5948 -41.5448
L50.3528 -41.719
L50.109 -41.8937
L49.8633 -42.069
L49.6158 -42.2449
L49.3664 -42.4213
L49.1152 -42.5984
L48.8623 -42.7761
L48.6075 -42.9544
L48.351 -43.1334
L48.0928 -43.3132
L47.833 -43.4936
L47.5715 -43.6748
L47.3085 -43.8567
L47.0439 -44.0395
L46.7779 -44.223
L46.5106 -44.4074
L46.2419 -44.5927
L45.9721 -44.7789
L45.7011 -44.9659
L45.4291 -45.154
L45.1563 -45.343
L44.8826 -45.533
L44.6084 -45.7241
L44.3336 -45.9163
L44.0584 -46.1097
L43.7831 -46.3042
L43.5077 -46.4999
L43.2324 -46.6969
L42.9575 -46.8952
L42.6831 -47.0949
L42.4095 -47.296
L42.1368 -47.4986
L41.8653 -47.7027
L41.5951 -47.9083
L41.3267 -48.1157
L41.0601 -48.3247
L40.7957 -48.5355
L40.5337 -48.7482
L40.2743 -48.9627
L40.018 -49.1792
L39.7648 -49.3977
L39.5152 -49.6183
L39.2693 -49.841
L39.0274 -50.0659
L38.7899 -50.293
L38.5569 -50.5223
L38.3287 -50.754
L38.1056 -50.9879
L37.8878 -51.2242
L37.6754 -51.4628
L37.4688 -51.7037
L37.2681 -51.9469
L37.0735 -52.1924
L36.8851 -52.4402
L36.7031 -52.69
L36.5275 -52.942
L36.3586 -53.1961
L36.1963 -53.452
L36.0407 -53.7098
L35.8919 -53.9693
L35.7499 -54.2304
L35.6147 -54.493
L35.4863 -54.7568
L35.3646 -55.0218
L35.2496 -55.2878
L35.1413 -55.5547
L35.0396 -55.8222
L34.9443 -56.0902
L34.8555 -56.3586
L34.773 -56.6271
L34.6967 -56.8956
L34.6265 -57.164
L34.5624 -57.4319
L34.504 -57.6994
L34.4515 -57.9662
L34.4045 -58.2323
L34.3631 -58.4973
L34.327 -58.7612
L34.2963 -59.0239
L34.2706 -59.2852
L34.25 -59.545
L34.2343 -59.8032
L34.2233 -60.0597
L34.2171 -60.3143
L34.2154 -60.567
L34.2181 -60.8177
L34.2252 -61.0663
L34.2366 -61.3128
L34.2522 -61.557
L34.2718 -61.7989
L34.2954 -62.0384
L34.323 -62.2755
L34.3543 -62.5101
L34.3894 -62.7423
L34.4282 -62.9719
L34.4707 -63.1989
L34.5167 -63.4233
L34.5662 -63.6451
L34.6191 -63.8642
L34.6754 -64.0807
L35.2243 -64.2945
L35.7216 -64.4894
L36.219 -64.4986
L36.7164 -64.4992
L37.2135 -64.491
L37.7103 -64.4742
L38.2065 -64.4486
L38.7021 -64.4145
L39.1968 -64.3716
L39.6906 -64.3201
L40.1832 -64.26
L40.6746 -64.1913
L41.1645 -64.114
L41.6529 -64.0282
L42.1396 -63.9338
L42.6244 -63.8308
L43.1071 -63.7195
L43.5877 -63.5996
L44.066 -63.4714
L44.5418 -63.3348
L45.0151 -63.1898
L45.4855 -63.0366
L45.9531 -62.8752
L46.4177 -62.7055
L46.8791 -62.5278
L47.3371 -62.3419
L47.7918 -62.148
L48.2428 -61.9462
L48.6901 -61.7364
L49.1335 -61.5188
L49.573 -61.2935
L50.0083 -61.0604
L50.4393 -60.8197
L50.8659 -60.5715
L51.288 -60.3157
L51.7055 -60.0526
L52.1181 -59.7821
L52.5259 -59.5044
L52.9286 -59.2195
L53.3262 -58.9275
L53.7184 -58.6286
L54.1053 -58.3228
L54.4867 -58.0102
L54.8624 -57.6908
L55.2324 -57.3649
L55.5966 -57.0324
L55.9547 -56.6936
L56.3068 -56.3484
L56.6527 -55.9971
L56.9924 -55.6396
L57.3256 -55.2762
L57.6523 -54.9069
L57.9724 -54.5318
L58.2859 -54.1511
L58.5925 -53.7649
L58.8923 -53.3732
L59.1851 -52.9763
L59.4708 -52.5742
L59.7494 -52.167
L60.0207 -51.7549
L60.2847 -51.338
L60.5414 -50.9165
L60.7905 -50.4904
L61.0321 -50.0599
L61.2661 -49.6251
L61.4924 -49.1861
L61.7109 -48.7432
L61.9216 -48.2963
L62.1244 -47.8457
L62.3192 -47.3915
L62.506 -46.9339
L62.6848 -46.4729
L62.8554 -46.0087
L63.0178 -45.5414
L63.172 -45.0713
L63.3179 -44.5984
L63.4555 -44.1229
L63.5848 -43.6449
L63.7056 -43.1645
L63.818 -42.682
L63.9219 -42.1975
L64.0173 -41.711
L64.1042 -41.2229
L64.1826 -40.7331
L64.2523 -40.2419
L64.3134 -39.7494
L64.3659 -39.2558
L64.4098 -38.7611
L64.445 -38.2656
L64.4716 -37.7695
L64.4894 -37.2728
L64.4986 -36.7757
L64.4992 -36.2784
L64.491 -35.781
L64.4742 -35.2836
L64.4486 -34.7865
L64.4145 -34.2897
L64.3716 -33.7935
L64.3201 -33.2979
L64.26 -32.8032
L64.1913 -32.3094
L64.114 -31.8168
L64.0282 -31.3254
L63.9338 -30.8355
z
" id="C0_2_9dfa5329fb"/>
    </defs>
    <g clip-path="url(#p1bffca34e9)">
     <use style="fill:#ff0000;stroke:#000000;stroke-width:2.0;" x="0.0" xlink:href="#C0_0_a811fe30f3" y="72.0"/>
    </g>
    <g clip-path="url(#p1bffca34e9)">
     <use style="fill:#ffffff;stroke:#000000;stroke-width:2.0;" x="0.0" xlink:href="#C0_1_8652cd4742" y="72.0"/>
    </g>
    <g clip-path="url(#p1bffca34e9)">
     <use style="fill:#ffffff;stroke:#000000;stroke-width:2.0;" x="0.0" xlink:href="#C0_2_9dfa5329fb" y="72.0"/>
    </g>
   </g>
  </g>
 </g>
 <defs>
  <clipPath id="p1bffca34e9">
   <rect height="72.0" width="72.0" x="0.0" y="0.0"/>
  </clipPath>
 </defs>
</svg>
