<?xml version="1.0" encoding="utf-8" standalone="no"?>
<!DOCTYPE svg PUBLIC "-//W3C//DTD SVG 1.1//EN"
  "http://www.w3.org/Graphics/SVG/1.1/DTD/svg11.dtd">
<!-- Created with matplotlib (http://matplotlib.org/) -->
<svg height="72pt" version="1.1" viewBox="0 0 72 72" width="72pt" xmlns="http://www.w3.org/2000/svg" xmlns:xlink="http://www.w3.org/1999/xlink">
 <defs>
  <style type="text/css">
*{stroke-linecap:butt;stroke-linejoin:round;}
  </style>
 </defs>
 <g id="figure_1">
  <g id="patch_1">
   <path d="
M0 72
L72 72
L72 0
L0 0
z
" style="fill:none;"/>
  </g>
  <g id="axes_1">
   <g id="PatchCollection_1">
    <defs>
     <path d="
M36 -7.5
C43.5583 -7.5 50.808 -10.5029 56.1525 -15.8475
C61.4971 -21.192 64.5 -28.4417 64.5 -36
C64.5 -43.5583 61.4971 -50.808 56.1525 -56.1525
C50.808 -61.4971 43.5583 -64.5 36 -64.5
C28.4417 -64.5 21.192 -61.4971 15.8475 -56.1525
C10.5029 -50.808 7.5 -43.5583 7.5 -36
C7.5 -28.4417 10.5029 -21.192 15.8475 -15.8475
C21.192 -10.5029 28.4417 -7.5 36 -7.5
z
" id="C0_0_a811fe30f3"/>
     <path d="
M32.742 -64.1783
L32.6775 -63.9822
L32.6155 -63.7857
L32.5557 -63.5886
L32.4982 -63.391
L32.4428 -63.1928
L32.3895 -62.9941
L32.3383 -62.7948
L32.289 -62.5949
L32.2416 -62.3944
L32.1961 -62.1933
L32.1524 -61.9915
L32.1104 -61.7891
L32.0702 -61.586
L32.0316 -61.3822
L31.9947 -61.1776
L31.9594 -60.9723
L31.9257 -60.7661
L31.8935 -60.5592
L31.8628 -60.3514
L31.8058 -60.1427
L31.7794 -59.9331
L31.7545 -59.7226
L31.731 -59.5111
L31.7088 -59.2986
L31.688 -59.085
L31.6685 -58.8704
L31.6504 -58.6546
L31.6336 -58.4377
L31.6181 -58.2196
L31.6038 -58.0002
L31.5909 -57.7796
L31.5793 -57.5577
L31.569 -57.3344
L31.5599 -57.1097
L31.5522 -56.8836
L31.5457 -56.656
L31.5405 -56.4269
L31.5367 -56.1963
L31.5341 -55.9641
L31.5328 -55.7302
L31.5329 -55.4946
L31.5343 -55.2573
L31.537 -55.0183
L31.5411 -54.7774
L31.5466 -54.5347
L31.5535 -54.2901
L31.5617 -54.0436
L31.5715 -53.7952
L31.5826 -53.5447
L31.5953 -53.2921
L31.6094 -53.0375
L31.6251 -52.7808
L31.6424 -52.5219
L31.6613 -52.2608
L31.6817 -51.9976
L31.7039 -51.732
L31.7278 -51.4643
L31.7534 -51.1942
L31.7808 -50.9218
L31.81 -50.647
L31.8411 -50.3699
L31.8741 -50.0905
L31.9092 -49.8087
L31.9462 -49.5245
L31.9854 -49.2379
L32.0267 -48.949
L32.0703 -48.6577
L32.1161 -48.3641
L32.1643 -48.0682
L32.2149 -47.77
L32.268 -47.4696
L32.3238 -47.167
L32.3822 -46.8623
L32.4433 -46.5555
L32.5074 -46.2467
L32.5743 -45.9361
L32.6444 -45.6236
L32.7176 -45.3095
L32.7941 -44.9938
L32.874 -44.6766
L32.9574 -44.3582
L33.0444 -44.0387
L33.1353 -43.7183
L33.23 -43.3972
L33.3289 -43.0756
L33.4319 -42.7537
L33.5394 -42.4318
L33.6514 -42.1102
L33.7681 -41.7891
L33.8897 -41.469
L34.0164 -41.15
L34.1484 -40.8326
L34.2858 -40.5171
L34.4289 -40.204
L34.5779 -39.8936
L34.7329 -39.5864
L34.8942 -39.2827
L35.0619 -38.9832
L35.2363 -38.6881
L35.4174 -38.398
L35.6056 -38.1134
L35.8008 -37.8347
L36.0033 -37.5624
L36.2132 -37.2969
L36.4305 -37.0386
L36.6553 -36.788
L36.8876 -36.5455
L37.1273 -36.3113
L37.3745 -36.0858
L37.629 -35.8692
L37.8907 -35.6618
L38.1593 -35.4637
L38.4348 -35.275
L38.7167 -35.0958
L39.0049 -34.9261
L39.299 -34.766
L39.5986 -34.6152
L39.9034 -34.4737
L40.213 -34.3413
L40.5269 -34.2179
L40.8449 -34.1033
L41.1664 -33.9971
L41.4911 -33.8992
L41.8185 -33.8093
L42.1483 -33.727
L42.48 -33.6522
L42.8132 -33.5845
L43.1477 -33.5236
L43.4829 -33.4693
L43.8187 -33.4213
L44.1547 -33.3793
L44.4905 -33.3429
L44.8259 -33.3121
L45.1607 -33.2865
L45.4945 -33.2658
L45.8272 -33.25
L46.1585 -33.2386
L46.4883 -33.2315
L46.8163 -33.2286
L47.1424 -33.2295
L47.4665 -33.2342
L47.7884 -33.2425
L48.108 -33.2542
L48.4252 -33.2691
L48.7398 -33.2871
L49.0519 -33.308
L49.3613 -33.3318
L49.668 -33.3583
L49.9719 -33.3873
L50.273 -33.4189
L50.5713 -33.4528
L50.8666 -33.4889
L51.1591 -33.5273
L51.4486 -33.5677
L51.7352 -33.6101
L52.0189 -33.6545
L52.2997 -33.7007
L52.5775 -33.7488
L52.8524 -33.7985
L53.1245 -33.85
L53.3936 -33.903
L53.6599 -33.9576
L53.9234 -34.0138
L54.1842 -34.0714
L54.4421 -34.1305
L54.6973 -34.191
L54.9498 -34.2528
L55.1997 -34.316
L55.4469 -34.3805
L55.6916 -34.4463
L55.9337 -34.5134
L56.1733 -34.5817
L56.4104 -34.6512
L56.6451 -34.722
L56.8774 -34.7939
L57.1074 -34.8671
L57.3351 -34.9414
L57.5605 -35.0169
L57.7838 -35.0936
L58.0048 -35.1715
L58.2237 -35.2506
L58.4405 -35.3308
L58.6553 -35.4122
L58.868 -35.4948
L59.0788 -35.5787
L59.2876 -35.6637
L59.4945 -35.7499
L59.6996 -35.8374
L59.9028 -35.9261
L60.1042 -36.0161
L60.3039 -36.1074
L60.5018 -36.2
L60.698 -36.2939
L60.8926 -36.3891
L61.0855 -36.4858
L61.2768 -36.5839
L61.4665 -36.6834
L61.6546 -36.7843
L61.8412 -36.8868
L62.0263 -36.9908
L62.2099 -37.0965
L62.392 -37.2037
L62.5726 -37.3126
L62.7517 -37.4232
L62.9294 -37.5356
L63.1057 -37.6498
L63.2806 -37.7658
L63.454 -37.8838
L63.626 -38.0037
L63.7966 -38.1257
L63.9658 -38.2497
L64.1335 -38.376
L64.2998 -38.5044
L64.3268 -38.6352
L64.2677 -39.1373
L64.2001 -39.6312
L64.1238 -40.1239
L64.039 -40.6155
L63.9456 -41.1056
L63.8437 -41.5942
L63.7333 -42.081
L63.6145 -42.5661
L63.4873 -43.0491
L63.3517 -43.5299
L63.2077 -44.0085
L63.0555 -44.4846
L62.8951 -44.9582
L62.7264 -45.429
L62.5496 -45.8969
L62.3647 -46.3619
L62.1718 -46.8237
L61.9709 -47.2821
L61.7621 -47.7372
L61.5455 -48.1886
L61.321 -48.6364
L61.0889 -49.0803
L60.8491 -49.5202
L60.6018 -49.956
L60.3469 -50.3876
L60.0847 -50.8148
L59.8151 -51.2374
L59.5382 -51.6554
L59.2542 -52.0687
L58.9631 -52.477
L58.665 -52.8804
L58.36 -53.2785
L58.0482 -53.6715
L57.7296 -54.059
L57.4045 -54.4411
L57.0728 -54.8175
L56.7347 -55.1882
L56.3903 -55.553
L56.0397 -55.9119
L55.683 -56.2647
L55.3203 -56.6114
L54.9517 -56.9518
L54.5773 -57.2858
L54.1973 -57.6133
L53.8117 -57.9342
L53.4207 -58.2485
L53.0244 -58.5559
L52.6229 -58.8565
L52.2163 -59.1502
L51.8048 -59.4367
L51.3885 -59.7162
L50.9675 -59.9884
L50.542 -60.2533
L50.112 -60.5108
L49.6777 -60.7609
L49.2392 -61.0034
L48.7967 -61.2383
L48.3504 -61.4655
L47.9002 -61.685
L47.4464 -61.8966
L46.9892 -62.1004
L46.5286 -62.2962
L46.0648 -62.4839
L45.5979 -62.6637
L45.1281 -62.8352
L44.6555 -62.9987
L44.1803 -63.1539
L43.7026 -63.3008
L43.2225 -63.4394
L42.7403 -63.5696
L42.256 -63.6915
L41.7697 -63.8049
L41.2818 -63.9099
L40.7922 -64.0063
L40.3011 -64.0942
L39.8088 -64.1736
L39.3153 -64.2443
L38.8208 -64.3065
L38.3254 -64.3601
L37.8293 -64.405
L37.3326 -64.4412
L36.8356 -64.4688
L36.3383 -64.4877
L35.8409 -64.498
L35.3435 -64.4996
L34.8464 -64.4924
L34.3495 -64.4766
L33.8532 -64.4522
L33.3576 -64.419
z
" id="C0_1_f8debbd139"/>
     <path d="
M7.73275 -33.2508
L7.92184 -33.1518
L8.11289 -33.0533
L8.30593 -32.9552
L8.50102 -32.8576
L8.69818 -32.7604
L8.89746 -32.6636
L9.09891 -32.5671
L9.30257 -32.4711
L9.50848 -32.3753
L9.71668 -32.2799
L9.92722 -32.1847
L10.1401 -32.0898
L10.3555 -31.9951
L10.5733 -31.9006
L10.7936 -31.8063
L11.0165 -31.7122
L11.242 -31.6182
L11.4702 -31.5244
L11.701 -31.4307
L11.9346 -31.337
L12.1709 -31.2434
L12.4101 -31.1499
L12.6521 -31.0563
L12.897 -30.9627
L13.1448 -30.8691
L13.3956 -30.7755
L13.6494 -30.6817
L13.9061 -30.5879
L14.1659 -30.4939
L14.4288 -30.3997
L14.6947 -30.3053
L14.9638 -30.2107
L15.2359 -30.1158
L15.5111 -30.0205
L15.7894 -29.925
L16.0708 -29.829
L16.3553 -29.7326
L16.6428 -29.6357
L16.9334 -29.5383
L17.2269 -29.4403
L17.5233 -29.3416
L17.8227 -29.2422
L18.1248 -29.142
L18.4297 -29.041
L18.7373 -28.9389
L19.0473 -28.8359
L19.3599 -28.7316
L19.6747 -28.6262
L19.9917 -28.5193
L20.3107 -28.411
L20.6315 -28.3011
L20.954 -28.1894
L21.2779 -28.0757
L21.6031 -27.96
L21.9293 -27.842
L22.2562 -27.7216
L22.5835 -27.5985
L22.9111 -27.4725
L23.2385 -27.3434
L23.5655 -27.2111
L23.8918 -27.0751
L24.2169 -26.9354
L24.5406 -26.7916
L24.8625 -26.6434
L25.1822 -26.4907
L25.4994 -26.3332
L25.8136 -26.1705
L26.1246 -26.0026
L26.432 -25.8291
L26.7354 -25.6498
L27.0346 -25.4646
L27.3293 -25.2734
L27.6191 -25.0759
L27.9039 -24.8722
L28.1834 -24.6621
L28.4575 -24.4458
L28.7261 -24.2232
L28.9891 -23.9945
L29.2464 -23.7597
L29.498 -23.5191
L29.7439 -23.2729
L29.9842 -23.0213
L30.219 -22.7648
L30.4483 -22.5034
L30.6723 -22.2377
L30.8912 -21.968
L31.105 -21.6947
L31.3141 -21.4181
L31.5185 -21.1387
L31.7184 -20.8568
L31.914 -20.5729
L32.1055 -20.2872
L32.2932 -20.0003
L32.477 -19.7124
L32.6573 -19.4238
L32.8342 -19.135
L33.0079 -18.8462
L33.1785 -18.5577
L33.3461 -18.2698
L33.5109 -17.9827
L33.6731 -17.6967
L33.8326 -17.412
L33.9898 -17.1288
L34.1446 -16.8474
L34.2972 -16.5677
L34.4476 -16.2901
L34.596 -16.0147
L34.7425 -15.7415
L34.8871 -15.4708
L35.0298 -15.2025
L35.1709 -14.9368
L35.3102 -14.6737
L35.448 -14.4134
L35.5843 -14.1558
L35.719 -13.9011
L35.8524 -13.6491
L35.9843 -13.4001
L36.115 -13.154
L36.2443 -12.9108
L36.3725 -12.6705
L36.4994 -12.4331
L36.6252 -12.1986
L36.75 -11.9671
L36.8736 -11.7384
L36.9963 -11.5126
L37.1179 -11.2897
L37.2387 -11.0697
L37.3585 -10.8524
L37.4774 -10.6379
L37.5955 -10.4262
L37.7128 -10.2172
L37.8294 -10.0109
L37.9452 -9.8072
L38.0603 -9.60615
L38.1747 -9.40768
L38.2885 -9.21175
L38.4017 -9.01832
L38.5143 -8.82735
L38.6263 -8.6388
L38.7378 -8.45263
L38.8489 -8.26881
L38.9595 -8.08728
L39.0696 -7.90801
L38.6905 -7.73097
L38.1949 -7.62728
L37.6987 -7.58465
L37.2019 -7.55067
L36.7048 -7.52535
L36.2074 -7.50872
L35.71 -7.50075
L35.2127 -7.50148
L34.7156 -7.51088
L34.2189 -7.52896
L33.7228 -7.55571
L33.2273 -7.59113
L32.7327 -7.6352
L32.2391 -7.68791
L31.7466 -7.74924
L31.2554 -7.81918
L30.7657 -7.8977
L30.2776 -7.98479
L29.7912 -8.08041
L29.3067 -8.18453
L28.8242 -8.29713
L28.3439 -8.41816
L27.866 -8.54759
L27.3905 -8.68539
L26.9177 -8.83151
L26.4476 -8.98591
L25.9804 -9.14853
L25.5163 -9.31933
L25.0554 -9.49826
L24.5978 -9.68526
L24.1437 -9.88028
L23.6932 -10.0833
L23.2464 -10.2941
L22.8036 -10.5128
L22.3647 -10.7393
L21.93 -10.9734
L21.4996 -11.2152
L21.0736 -11.4646
L20.6522 -11.7214
L20.2354 -11.9856
L19.8234 -12.2571
L19.4164 -12.5358
L19.0144 -12.8217
L18.6176 -13.1147
L18.226 -13.4146
L17.8399 -13.7214
L17.4594 -14.035
L17.0844 -14.3553
L16.7153 -14.6821
L16.352 -15.0155
L15.9947 -15.3553
L15.6434 -15.7013
L15.2984 -16.0536
L14.9597 -16.4119
L14.6274 -16.7761
L14.3016 -17.1463
L13.9825 -17.5221
L13.67 -17.9036
L13.3643 -18.2907
L13.0655 -18.6831
L12.7738 -19.0808
L12.489 -19.4836
L12.2115 -19.8915
L11.9412 -20.3042
L11.6782 -20.7218
L11.4226 -21.144
L11.1746 -21.5707
L10.934 -22.0019
L10.7012 -22.4373
L10.476 -22.8768
L10.2586 -23.3203
L10.049 -23.7677
L9.84735 -24.2188
L9.65366 -24.6735
L9.46799 -25.1317
L9.29041 -25.5931
L9.12096 -26.0578
L8.9597 -26.5254
L8.80668 -26.996
L8.66194 -27.4693
L8.52553 -27.9452
L8.39748 -28.4235
L8.27785 -28.9042
L8.16666 -29.387
L8.06394 -29.8718
L7.96974 -30.3585
L7.88408 -30.8469
L7.80697 -31.3369
L7.73846 -31.8283
z
" id="C0_2_ea7ca2943a"/>
    </defs>
    <g clip-path="url(#p1bffca34e9)">
     <use style="fill:#ffffff;stroke:#000000;stroke-width:2.0;" x="0.0" xlink:href="#C0_0_a811fe30f3" y="72.0"/>
    </g>
    <g clip-path="url(#p1bffca34e9)">
     <use style="fill:#ff0000;stroke:#000000;stroke-width:2.0;" x="0.0" xlink:href="#C0_1_f8debbd139" y="72.0"/>
    </g>
    <g clip-path="url(#p1bffca34e9)">
     <use style="fill:#ff0000;stroke:#000000;stroke-width:2.0;" x="0.0" xlink:href="#C0_2_ea7ca2943a" y="72.0"/>
    </g>
   </g>
  </g>
 </g>
 <defs>
  <clipPath id="p1bffca34e9">
   <rect height="72.0" width="72.0" x="0.0" y="0.0"/>
  </clipPath>
 </defs>
</svg>
