<?xml version="1.0" encoding="utf-8" standalone="no"?>
<!DOCTYPE svg PUBLIC "-//W3C//DTD SVG 1.1//EN"
  "http://www.w3.org/Graphics/SVG/1.1/DTD/svg11.dtd">
<!-- Created with matplotlib (http://matplotlib.org/) -->
<svg height="72pt" version="1.1" viewBox="0 0 72 72" width="72pt" xmlns="http://www.w3.org/2000/svg" xmlns:xlink="http://www.w3.org/1999/xlink">
 <defs>
  <style type="text/css">
*{stroke-linecap:butt;stroke-linejoin:round;}
  </style>
 </defs>
 <g id="figure_1">
  <g id="patch_1">
   <path d="
M0 72
L72 72
L72 0
L0 0
z
" style="fill:none;"/>
  </g>
  <g id="axes_1">
   <g id="PatchCollection_1">
    <defs>
     <path d="
M36 -7.5
C43.5583 -7.5 50.808 -10.5029 56.1525 -15.8475
C61.4971 -21.192 64.5 -28.4417 64.5 -36
C64.5 -43.5583 61.4971 -50.808 56.1525 -56.1525
C50.808 -61.4971 43.5583 -64.5 36 -64.5
C28.4417 -64.5 21.192 -61.4971 15.8475 -56.1525
C10.5029 -50.808 7.5 -43.5583 7.5 -36
C7.5 -28.4417 10.5029 -21.192 15.8475 -15.8475
C21.192 -10.5029 28.4417 -7.5 36 -7.5
z
" id="C0_0_a811fe30f3"/>
     <path d="
M59.1696 -19.4527
L58.852 -19.4643
L58.5364 -19.4843
L58.2229 -19.5121
L57.9116 -19.547
L57.6025 -19.5885
L57.2957 -19.6361
L56.9912 -19.6894
L56.689 -19.7479
L56.3892 -19.8112
L56.0919 -19.879
L55.7969 -19.9509
L55.5045 -20.0267
L55.2145 -20.106
L54.9269 -20.1886
L54.6419 -20.2743
L54.3593 -20.3627
L54.0792 -20.4538
L53.8016 -20.5473
L53.5264 -20.643
L53.2537 -20.7408
L52.9834 -20.8405
L52.7154 -20.942
L52.4499 -21.0452
L52.1867 -21.1498
L51.9258 -21.2559
L51.6672 -21.3633
L51.4108 -21.4719
L51.1566 -21.5817
L50.9046 -21.6925
L50.6548 -21.8042
L50.407 -21.9169
L50.1613 -22.0304
L49.9175 -22.1448
L49.6757 -22.2598
L49.4359 -22.3756
L49.1978 -22.492
L48.9616 -22.6091
L48.7272 -22.7267
L48.4944 -22.8449
L48.2633 -22.9636
L48.0339 -23.0829
L47.8059 -23.2026
L47.5795 -23.3229
L47.3546 -23.4436
L47.131 -23.5647
L46.9088 -23.6863
L46.6879 -23.8084
L46.4682 -23.9309
L46.2498 -24.0538
L46.0324 -24.1771
L45.8162 -24.301
L45.601 -24.4252
L45.3868 -24.5499
L45.1735 -24.6751
L44.9611 -24.8007
L44.7496 -24.9269
L44.5388 -25.0535
L44.3288 -25.1806
L44.1194 -25.3083
L43.9107 -25.4365
L43.7025 -25.5652
L43.4949 -25.6946
L43.2878 -25.8245
L43.0811 -25.9551
L42.8747 -26.0862
L42.6687 -26.2181
L42.463 -26.3506
L42.2575 -26.4839
L41.847 -26.6179
L41.6419 -26.7526
L41.4369 -26.8882
L41.2318 -27.0246
L41.0267 -27.1618
L40.8215 -27.2999
L40.6161 -27.4389
L40.4105 -27.5789
L40.2047 -27.7199
L39.9985 -27.8619
L39.7921 -28.0049
L39.5852 -28.1491
L39.3779 -28.2943
L39.1701 -28.4408
L38.9618 -28.5884
L38.7529 -28.7373
L38.5434 -28.8875
L38.3333 -29.039
L38.1224 -29.1919
L37.9108 -29.3462
L37.6983 -29.502
L37.4851 -29.6593
L37.2709 -29.8181
L37.0559 -29.9785
L36.8398 -30.1406
L36.6228 -30.3045
L36.4047 -30.47
L36.1855 -30.6374
L35.9653 -30.8066
L35.7438 -30.9777
L35.5212 -31.1508
L35.2973 -31.326
L35.0722 -31.5032
L34.8458 -31.6825
L34.6181 -31.864
L34.3891 -32.0477
L34.1587 -32.2338
L33.9269 -32.4222
L33.6937 -32.613
L33.4591 -32.8063
L33.2231 -33.0021
L32.9856 -33.2006
L32.7467 -33.4016
L32.5064 -33.6054
L32.2647 -33.812
L32.0215 -34.0213
L31.7769 -34.2336
L31.531 -34.4488
L31.2838 -34.6669
L31.0352 -34.8881
L30.7854 -35.1124
L30.5344 -35.3399
L30.2822 -35.5706
L30.029 -35.8045
L29.7749 -36.0416
L29.5198 -36.2821
L29.2641 -36.526
L29.0077 -36.7733
L28.7508 -37.024
L28.4936 -37.2782
L28.2363 -37.5359
L27.9791 -37.7971
L27.7221 -38.0618
L27.4658 -38.3301
L27.2102 -38.6019
L26.9558 -38.8773
L26.7028 -39.1562
L26.4517 -39.4387
L26.2029 -39.7248
L25.9568 -40.0143
L25.7139 -40.3074
L25.4748 -40.604
L25.2402 -40.904
L25.0107 -41.2074
L24.7871 -41.5143
L24.5702 -41.8244
L24.3609 -42.1379
L24.1603 -42.4547
L23.9696 -42.7746
L23.7899 -43.0977
L23.6225 -43.4239
L23.469 -43.7532
L23.3308 -44.0853
L23.2095 -44.4204
L23.1067 -44.7581
L23.0241 -45.0985
L22.9633 -45.4414
L22.9258 -45.7864
L22.9126 -46.1334
L22.925 -46.482
L22.9635 -46.8319
L23.0285 -47.1825
L23.12 -47.5334
L23.2374 -47.884
L23.38 -48.2336
L23.5468 -48.5816
L23.7364 -48.9273
L23.9474 -49.2701
L24.1783 -49.6093
L24.4275 -49.9443
L24.6935 -50.2746
L24.9747 -50.5997
L25.2697 -50.919
L25.5771 -51.2321
L25.8956 -51.5387
L26.2241 -51.8385
L26.5614 -52.1312
L26.9065 -52.4165
L27.2585 -52.6943
L27.6165 -52.9644
L27.9798 -53.2268
L28.3475 -53.4812
L28.7191 -53.7277
L29.0939 -53.9663
L29.4713 -54.1969
L29.8509 -54.4195
L30.2322 -54.6342
L30.6147 -54.841
L30.9981 -55.0399
L31.382 -55.2312
L31.766 -55.4148
L32.1499 -55.5908
L32.5334 -55.7594
L32.9162 -55.9206
L33.2982 -56.0747
L33.679 -56.2216
L34.0586 -56.3616
L34.4368 -56.4948
L34.8134 -56.6212
L35.1883 -56.7412
L35.5614 -56.8547
L35.9325 -56.9619
L36.3017 -57.063
L36.6687 -57.1581
L37.0336 -57.2473
L37.3964 -57.3308
L37.7569 -57.4087
L38.1151 -57.4812
L38.471 -57.5482
L38.8246 -57.6101
L39.1759 -57.6669
L39.5248 -57.7186
L39.8714 -57.7655
L40.2157 -57.8077
L40.5576 -57.8451
L40.8973 -57.8781
L41.2347 -57.9065
L41.5699 -57.9306
L41.9028 -57.9505
L42.2335 -57.9661
L42.5621 -57.9777
L42.8886 -57.9852
L43.213 -57.9888
L43.5353 -57.9885
L43.8557 -57.9843
L44.1741 -57.9765
L44.4905 -57.9649
L44.8052 -57.9497
L45.118 -57.9308
L45.4291 -57.9085
L45.7384 -57.8826
L46.0461 -57.8533
L46.3522 -57.8205
L46.6567 -57.7844
L46.9597 -57.7449
L47.2612 -57.702
L47.5614 -57.6558
L47.8602 -57.6062
L48.1576 -57.5534
L48.4539 -57.4973
L48.7489 -57.4379
L49.0428 -57.3752
L49.3356 -57.3093
L49.6273 -57.24
L49.918 -57.1674
L50.2078 -57.0916
L50.4967 -57.0124
L50.7847 -56.9298
L51.0719 -56.8439
L51.3583 -56.7545
L51.644 -56.6618
L51.929 -56.5655
L52.2134 -56.4658
L52.4972 -56.3625
L52.7804 -56.2557
L53.0631 -56.1452
L53.3453 -56.0309
L53.627 -55.913
L53.9083 -55.7912
L54.1893 -55.6656
L54.4698 -55.5359
L54.7501 -55.4023
L55.03 -55.2646
L55.3097 -55.1227
L55.589 -54.9765
L55.8682 -54.8259
L56.1471 -54.6709
L56.4257 -54.5113
L56.7042 -54.3471
L56.9824 -54.178
L57.2605 -54.0041
L57.5383 -53.8252
L57.8159 -53.6411
L58.0932 -53.4517
L58.3703 -53.2569
L58.6472 -53.0566
L58.9237 -52.8506
L59.1999 -52.6388
L59.5464 -52.4209
L59.823 -52.0567
L60.0924 -51.6433
L60.3544 -51.2252
L60.6091 -50.8024
L60.8562 -50.3751
L61.0958 -49.9434
L61.3277 -49.5075
L61.5519 -49.0675
L61.7683 -48.6234
L61.9769 -48.1756
L62.1775 -47.724
L62.3702 -47.2689
L62.5549 -46.8103
L62.7314 -46.3484
L62.8998 -45.8834
L63.0601 -45.4154
L63.212 -44.9445
L63.3557 -44.4708
L63.4911 -43.9946
L63.6181 -43.516
L63.7366 -43.0351
L63.8468 -42.552
L63.9484 -42.0669
L64.0415 -41.58
L64.1261 -41.0914
L64.2021 -40.6012
L64.2696 -40.1096
L64.3284 -39.6168
L64.3786 -39.1229
L64.4201 -38.628
L64.453 -38.1324
L64.4772 -37.636
L64.4928 -37.1392
L64.4996 -36.642
L64.4978 -36.1447
L64.4873 -35.6473
L64.4681 -35.15
L64.4403 -34.6529
L64.4038 -34.1563
L64.3586 -33.6602
L64.3048 -33.1649
L64.2424 -32.6704
L64.1714 -32.1769
L64.0918 -31.6846
L64.0036 -31.1936
L63.9069 -30.704
L63.8017 -30.2161
L63.6881 -29.7299
L63.566 -29.2457
L63.4355 -28.7635
L63.2966 -28.2835
L63.1495 -27.8059
L62.994 -27.3307
L62.8304 -26.8582
L62.6585 -26.3885
L62.4786 -25.9217
L62.2906 -25.458
L62.0946 -24.9975
L61.8906 -24.5403
L61.6787 -24.0867
L61.459 -23.6366
L61.2316 -23.1903
L60.9965 -22.748
L60.7537 -22.3096
L60.5035 -21.8755
L60.2457 -21.4456
L59.9806 -21.0202
L59.7082 -20.5993
z
" id="C0_1_2d01a9a921"/>
     <path d="
M12.5589 -19.827
L12.4467 -20.1665
L12.3386 -20.5091
L12.2345 -20.8549
L12.1345 -21.2039
L12.0387 -21.5561
L11.9471 -21.9116
L11.8597 -22.2705
L11.7767 -22.6327
L11.6982 -22.9984
L11.6241 -23.3675
L11.5545 -23.7401
L11.4896 -24.1163
L11.4294 -24.4961
L11.3741 -24.8794
L11.3236 -25.2664
L11.2782 -25.6569
L11.2378 -26.0512
L11.2026 -26.449
L11.1727 -26.8506
L11.1482 -27.2557
L11.1292 -27.6645
L11.1157 -28.077
L11.108 -28.493
L11.106 -28.9125
L11.1099 -29.3355
L11.1198 -29.762
L11.1357 -30.1918
L11.1578 -30.6249
L11.186 -31.0612
L11.2206 -31.5006
L11.2614 -31.9429
L11.3087 -32.3881
L11.3623 -32.836
L11.4223 -33.2865
L11.4887 -33.7392
L11.5614 -34.1942
L11.6404 -34.6511
L11.7256 -35.1097
L11.8168 -35.5698
L11.9139 -36.0311
L12.0166 -36.4934
L12.1248 -36.9563
L12.238 -37.4195
L12.3559 -37.8828
L12.478 -38.3457
L12.6038 -38.8078
L12.7325 -39.2689
L12.8636 -39.7284
L12.9962 -40.186
L13.1292 -40.6413
L13.2617 -41.0937
L13.3924 -41.5429
L13.5201 -41.9884
L13.6433 -42.4298
L13.7606 -42.8666
L13.8703 -43.2984
L13.9708 -43.7249
L14.0608 -44.1457
L14.1386 -44.5606
L14.203 -44.9692
L14.2529 -45.3715
L14.2877 -45.7675
L14.307 -46.157
L14.3106 -46.5403
L14.2988 -46.9173
L14.2724 -47.2884
L14.2323 -47.6538
L14.1794 -48.0136
L14.1152 -48.3682
L14.0408 -48.7177
L13.9576 -49.0624
L13.8669 -49.4026
L13.7701 -49.7382
L13.6682 -50.0697
L13.5624 -50.3969
L13.4537 -50.7202
L13.343 -51.0395
L13.231 -51.3551
L13.1186 -51.6668
L13.0064 -51.9749
L12.4191 -52.2793
L12.1434 -52.006
L11.8749 -51.592
L11.6137 -51.1733
L11.36 -50.7499
L11.1138 -50.3221
L10.8752 -49.8899
L10.6442 -49.4534
L10.421 -49.0129
L10.2055 -48.5684
L9.99795 -48.1201
L9.79827 -47.668
L9.60658 -47.2125
L9.42293 -46.7535
L9.24737 -46.2912
L9.07996 -45.8258
L8.92075 -45.3574
L8.76979 -44.8862
L8.62712 -44.4122
L8.49279 -43.9357
L8.36684 -43.4568
L8.24931 -42.9756
L8.14023 -42.4922
L8.03964 -42.0069
L7.94756 -41.5198
L7.86403 -41.031
L7.78907 -40.5406
L7.72271 -40.0489
L7.66495 -39.5559
L7.61583 -39.0619
L7.57536 -38.5669
L7.54354 -38.0712
L7.52039 -37.5748
L7.50592 -37.0779
L7.50012 -36.5807
L7.50301 -36.0833
L7.51458 -35.5859
L7.53482 -35.0886
L7.56373 -34.5916
L7.60131 -34.0951
L7.64754 -33.5991
L7.7024 -33.1038
L7.76589 -32.6094
L7.83797 -32.1161
L7.91863 -31.6239
L8.00785 -31.1331
L8.10559 -30.6437
L8.21183 -30.156
L8.32654 -29.6701
L8.44967 -29.1861
L8.5812 -28.7042
L8.72107 -28.2244
L8.86926 -27.7471
L9.02571 -27.2723
L9.19038 -26.8001
L9.36322 -26.3307
L9.54417 -25.8643
L9.73317 -25.401
L9.93018 -24.9409
L10.1351 -24.4842
L10.348 -24.0309
L10.5686 -23.5814
L10.797 -23.1356
L11.0331 -22.6937
L11.2767 -22.2558
L11.5279 -21.8222
L11.7866 -21.3929
L12.0526 -20.968
z
" id="C0_2_ca8b08770f"/>
    </defs>
    <g clip-path="url(#p1bffca34e9)">
     <use style="fill:#ff0000;stroke:#000000;stroke-width:2.0;" x="0.0" xlink:href="#C0_0_a811fe30f3" y="72.0"/>
    </g>
    <g clip-path="url(#p1bffca34e9)">
     <use style="fill:#ffffff;stroke:#000000;stroke-width:2.0;" x="0.0" xlink:href="#C0_1_2d01a9a921" y="72.0"/>
    </g>
    <g clip-path="url(#p1bffca34e9)">
     <use style="fill:#ffffff;stroke:#000000;stroke-width:2.0;" x="0.0" xlink:href="#C0_2_ca8b08770f" y="72.0"/>
    </g>
   </g>
  </g>
 </g>
 <defs>
  <clipPath id="p1bffca34e9">
   <rect height="72.0" width="72.0" x="0.0" y="0.0"/>
  </clipPath>
 </defs>
</svg>
