<?xml version="1.0" encoding="utf-8" standalone="no"?>
<!DOCTYPE svg PUBLIC "-//W3C//DTD SVG 1.1//EN"
  "http://www.w3.org/Graphics/SVG/1.1/DTD/svg11.dtd">
<!-- Created with matplotlib (http://matplotlib.org/) -->
<svg height="72pt" version="1.1" viewBox="0 0 72 72" width="72pt" xmlns="http://www.w3.org/2000/svg" xmlns:xlink="http://www.w3.org/1999/xlink">
 <defs>
  <style type="text/css">
*{stroke-linecap:butt;stroke-linejoin:round;}
  </style>
 </defs>
 <g id="figure_1">
  <g id="patch_1">
   <path d="
M0 72
L72 72
L72 0
L0 0
z
" style="fill:none;"/>
  </g>
  <g id="axes_1">
   <g id="PatchCollection_1">
    <defs>
     <path d="
M36 -7.5
C43.5583 -7.5 50.808 -10.5029 56.1525 -15.8475
C61.4971 -21.192 64.5 -28.4417 64.5 -36
C64.5 -43.5583 61.4971 -50.808 56.1525 -56.1525
C50.808 -61.4971 43.5583 -64.5 36 -64.5
C28.4417 -64.5 21.192 -61.4971 15.8475 -56.1525
C10.5029 -50.808 7.5 -43.5583 7.5 -36
C7.5 -28.4417 10.5029 -21.192 15.8475 -15.8475
C21.192 -10.5029 28.4417 -7.5 36 -7.5
z
" id="C0_0_a811fe30f3"/>
     <path d="
M55.8381 -56.4315
L55.5668 -56.3893
L55.3052 -56.3305
L55.0536 -56.2556
L54.812 -56.1649
L54.5803 -56.0589
L54.3585 -55.9381
L54.1464 -55.803
L53.9437 -55.6543
L53.7502 -55.4926
L53.5654 -55.3185
L53.389 -55.1327
L53.2205 -54.9358
L53.0596 -54.7286
L52.9057 -54.5116
L52.7583 -54.2857
L52.6171 -54.0513
L52.4815 -53.8092
L52.3511 -53.56
L52.2254 -53.3043
L52.1041 -53.0426
L51.9866 -52.7755
L51.8727 -52.5036
L51.762 -52.2273
L51.6542 -51.9471
L51.5489 -51.6635
L51.4459 -51.3768
L51.3449 -51.0875
L51.2456 -50.7959
L51.1479 -50.5024
L51.0516 -50.2073
L50.9564 -49.9109
L50.8623 -49.6134
L50.769 -49.3152
L50.6765 -49.0165
L50.5845 -48.7174
L50.4931 -48.4182
L50.4021 -48.1191
L50.3115 -47.8202
L50.2211 -47.5217
L50.1309 -47.2238
L50.0408 -46.9265
L49.9509 -46.6299
L49.8609 -46.3343
L49.771 -46.0396
L49.6811 -45.746
L49.5911 -45.4534
L49.501 -45.1621
L49.4108 -44.872
L49.3204 -44.5832
L49.2299 -44.2957
L49.1393 -44.0096
L49.0484 -43.7249
L48.9574 -43.4416
L48.8662 -43.1597
L48.7747 -42.8792
L48.6831 -42.6002
L48.5912 -42.3227
L48.499 -42.0465
L48.4066 -41.7719
L48.314 -41.4986
L48.2211 -41.2268
L48.1279 -40.9563
L48.0344 -40.6872
L47.9407 -40.4195
L47.8467 -40.1532
L47.7523 -39.8881
L47.6577 -39.6244
L47.5627 -39.3618
L47.4675 -39.1006
L47.3719 -38.8405
L47.276 -38.5816
L47.1797 -38.3238
L47.083 -38.0671
L46.986 -37.8114
L46.8887 -37.5568
L46.7909 -37.3032
L46.6927 -37.0505
L46.5942 -36.7987
L46.4952 -36.5478
L46.3958 -36.2977
L46.2959 -36.0484
L46.1956 -35.7998
L46.0948 -35.5519
L45.9935 -35.3047
L45.8917 -35.0582
L45.7894 -34.8122
L45.6866 -34.5667
L45.5832 -34.3217
L45.4793 -34.0772
L45.3747 -33.8331
L45.2696 -33.5894
L45.0575 -33.346
L44.9505 -33.1028
L44.8428 -32.8599
L44.7345 -32.6173
L44.6254 -32.3747
L44.5156 -32.1323
L44.4051 -31.89
L44.2938 -31.6477
L44.1817 -31.4054
L44.0688 -31.163
L43.9551 -30.9206
L43.8405 -30.678
L43.7251 -30.4353
L43.6087 -30.1924
L43.4915 -29.9492
L43.3733 -29.7057
L43.2542 -29.4619
L43.1341 -29.2178
L43.013 -28.9732
L42.8909 -28.7283
L42.7678 -28.4828
L42.6436 -28.2369
L42.5183 -27.9904
L42.3919 -27.7434
L42.2644 -27.4958
L42.1358 -27.2475
L42.006 -26.9985
L41.8751 -26.7489
L41.7429 -26.4986
L41.6096 -26.2475
L41.475 -25.9956
L41.3392 -25.743
L41.2022 -25.4895
L41.0639 -25.2352
L40.9244 -24.98
L40.7836 -24.724
L40.6415 -24.467
L40.4982 -24.2092
L40.3536 -23.9504
L40.2078 -23.6907
L40.0607 -23.4301
L39.9124 -23.1685
L39.7628 -22.906
L39.6121 -22.6425
L39.4602 -22.3781
L39.3072 -22.1127
L39.1531 -21.8464
L38.9979 -21.5792
L38.8418 -21.3111
L38.6847 -21.0422
L38.5268 -20.7723
L38.3681 -20.5016
L38.2087 -20.2301
L38.0487 -19.9578
L37.8883 -19.6848
L37.7276 -19.411
L37.5666 -19.1366
L37.4056 -18.8616
L37.2448 -18.5859
L37.0842 -18.3098
L36.9243 -18.0332
L36.7651 -17.7562
L36.6069 -17.4788
L36.45 -17.2012
L36.2948 -16.9234
L36.1415 -16.6454
L35.9905 -16.3673
L35.8422 -16.0892
L35.6969 -15.8113
L35.5552 -15.5335
L35.4176 -15.2559
L35.2845 -14.9786
L35.1565 -14.7018
L35.0341 -14.4254
L34.9181 -14.1496
L34.809 -13.8745
L34.7075 -13.6001
L34.6143 -13.3265
L34.5302 -13.0539
L34.4558 -12.7823
L34.392 -12.5118
L34.3395 -12.2425
L34.2991 -11.9746
L34.2716 -11.7082
L34.2576 -11.4433
L34.2578 -11.1802
L34.2731 -10.9191
L34.3039 -10.6599
L34.3508 -10.4031
L34.4143 -10.1487
L34.4947 -9.89706
L34.5926 -9.64837
L34.708 -9.40291
L34.8411 -9.16098
L34.9919 -8.92288
L35.1605 -8.68894
L35.3466 -8.45951
L35.5502 -8.23492
L35.7708 -8.01555
L36.0082 -7.80176
L36.5056 -7.59392
L37.0028 -7.50448
L37.4998 -7.51765
L37.9962 -7.53949
L38.4921 -7.57
L38.9872 -7.60917
L39.4814 -7.65698
L39.9745 -7.71343
L40.4665 -7.7785
L40.957 -7.85217
L41.4461 -7.9344
L41.9335 -8.02519
L42.4191 -8.1245
L42.9027 -8.2323
L43.3843 -8.34856
L43.8635 -8.47324
L44.3404 -8.6063
L44.8148 -8.74771
L45.2864 -8.89742
L45.7553 -9.05539
L46.2211 -9.22156
L46.6839 -9.3959
L47.1434 -9.57833
L47.5995 -9.76882
L48.052 -9.96729
L48.5009 -10.1737
L48.946 -10.388
L49.3872 -10.61
L49.8242 -10.8398
L50.2571 -11.0773
L50.6856 -11.3224
L51.1096 -11.575
L51.5291 -11.835
L51.9438 -12.1024
L52.3536 -12.377
L52.7585 -12.6589
L53.1583 -12.9478
L53.5528 -13.2438
L53.942 -13.5467
L54.3257 -13.8565
L54.7039 -14.173
L55.0763 -14.4962
L55.4429 -14.8259
L55.8037 -15.162
L56.1583 -15.5045
L56.5069 -15.8533
L56.8492 -16.2081
L57.1851 -16.569
L57.5146 -16.9359
L57.8375 -17.3085
L58.1538 -17.6868
L58.4634 -18.0707
L58.766 -18.4601
L59.0618 -18.8548
L59.3505 -19.2548
L59.6322 -19.6598
L59.9066 -20.0698
L60.1737 -20.4847
L60.4335 -20.9043
L60.6858 -21.3284
L60.9306 -21.7571
L61.1679 -22.1901
L61.3974 -22.6273
L61.6192 -23.0686
L61.8332 -23.5138
L62.0394 -23.9628
L62.2376 -24.4155
L62.4278 -24.8717
L62.61 -25.3313
L62.784 -25.7942
L62.9499 -26.2601
L63.1076 -26.7291
L63.2571 -27.2008
L63.3982 -27.6752
L63.531 -28.1522
L63.6554 -28.6316
L63.7714 -29.1132
L63.8789 -29.5969
L63.9779 -30.0825
L64.0684 -30.57
L64.1504 -31.0591
L64.2238 -31.5497
L64.2886 -32.0417
L64.3447 -32.5349
L64.3923 -33.0291
L64.4311 -33.5242
L64.4614 -34.0201
L64.4829 -34.5166
L64.4958 -35.0136
L64.5 -35.5108
L64.4955 -36.0082
L64.4824 -36.5056
L64.4605 -37.0028
L64.43 -37.4998
L64.3908 -37.9962
L64.343 -38.4921
L64.2866 -38.9872
L64.2215 -39.4814
L64.1478 -39.9745
L64.0656 -40.4665
L63.9748 -40.957
L63.8755 -41.4461
L63.7677 -41.9335
L63.6514 -42.4191
L63.5268 -42.9027
L63.3937 -43.3843
L63.2523 -43.8635
L63.1026 -44.3404
L62.9446 -44.8148
L62.7784 -45.2864
L62.6041 -45.7553
L62.4217 -46.2211
L62.2312 -46.6839
L62.0327 -47.1434
L61.8263 -47.5995
L61.612 -48.052
L61.39 -48.5009
L61.1602 -48.946
L60.9227 -49.3872
L60.6776 -49.8242
L60.425 -50.2571
L60.165 -50.6856
L59.8976 -51.1096
L59.623 -51.5291
L59.3411 -51.9438
L59.0522 -52.3536
L58.7562 -52.7585
L58.4533 -53.1583
L58.1435 -53.5528
L57.827 -53.942
L57.5038 -54.3257
L57.1741 -54.7039
L56.838 -55.0763
L56.4955 -55.4429
z
" id="C0_1_5a7ad62ba7"/>
     <path d="
M35.7401 -64.3896
L35.48 -64.1845
L35.2122 -63.9782
L34.9376 -63.7705
L34.657 -63.5613
L34.3713 -63.3504
L34.081 -63.1378
L33.7871 -62.9233
L33.4901 -62.7069
L33.1907 -62.4885
L32.8895 -62.2681
L32.5871 -62.0457
L32.2841 -61.8212
L31.9808 -61.5947
L31.6778 -61.3661
L31.3755 -61.1356
L31.0742 -60.9031
L30.7743 -60.6687
L30.4761 -60.4325
L30.18 -60.1945
L29.8861 -59.9548
L29.5946 -59.7135
L29.3059 -59.4706
L29.02 -59.2263
L28.7372 -58.9805
L28.4575 -58.7334
L28.181 -58.485
L27.908 -58.2355
L27.6384 -57.9849
L27.3724 -57.7333
L27.11 -57.4808
L26.8512 -57.2274
L26.5961 -56.9731
L26.3446 -56.7182
L26.0969 -56.4625
L25.8529 -56.2062
L25.6126 -55.9494
L25.3761 -55.6921
L25.1432 -55.4343
L24.914 -55.176
L24.6884 -54.9174
L24.4665 -54.6585
L24.2482 -54.3992
L24.0334 -54.1397
L23.8221 -53.8799
L23.6143 -53.6198
L23.4099 -53.3596
L23.2089 -53.0992
L23.0112 -52.8385
L22.8168 -52.5778
L22.6257 -52.3168
L22.4378 -52.0557
L22.253 -51.7945
L22.0713 -51.5331
L21.8926 -51.2715
L21.717 -51.0098
L21.5442 -50.7479
L21.3744 -50.4858
L21.2075 -50.2236
L21.0433 -49.9611
L20.8819 -49.6985
L20.7232 -49.4356
L20.5672 -49.1724
L20.4138 -48.909
L20.2629 -48.6453
L20.1146 -48.3813
L19.9688 -48.1169
L19.8255 -47.8521
L19.6846 -47.587
L19.546 -47.3214
L19.4099 -47.0554
L19.276 -46.7888
L19.1444 -46.5218
L19.015 -46.2542
L18.8879 -45.986
L18.763 -45.7172
L18.6402 -45.4477
L18.5196 -45.1775
L18.4011 -44.9065
L18.2847 -44.6348
L18.1703 -44.3623
L18.058 -44.0889
L17.9478 -43.8145
L17.8395 -43.5393
L17.7333 -43.263
L17.6291 -42.9858
L17.5268 -42.7074
L17.4266 -42.4279
L17.3283 -42.1473
L17.2319 -41.8654
L17.1375 -41.5823
L17.0451 -41.2978
L16.9546 -41.0121
L16.8661 -40.7249
L16.7795 -40.4363
L16.6949 -40.1462
L16.6122 -39.8545
L16.5316 -39.5613
L16.4529 -39.2665
L16.3762 -38.9699
L16.3015 -38.6717
L16.2289 -38.3717
L16.1583 -38.0699
L16.0897 -37.7662
L16.0233 -37.4606
L15.9589 -37.1531
L15.8967 -36.8436
L15.8366 -36.5321
L15.7788 -36.2186
L15.7231 -35.9029
L15.6697 -35.5851
L15.6185 -35.2652
L15.5697 -34.943
L15.5232 -34.6186
L15.4791 -34.292
L15.4374 -33.9631
L15.3981 -33.6319
L15.3614 -33.2984
L15.3272 -32.9626
L15.2955 -32.6244
L15.2665 -32.2839
L15.2402 -31.9411
L15.2165 -31.5959
L15.1956 -31.2484
L15.1775 -30.8986
L15.1622 -30.5464
L15.1498 -30.1921
L15.1402 -29.8354
L15.1336 -29.4766
L15.1298 -29.1157
L15.1291 -28.7527
L15.1314 -28.3876
L15.1366 -28.0207
L15.1448 -27.6519
L15.1561 -27.2813
L15.1703 -26.9091
L15.1875 -26.5354
L15.2076 -26.1603
L15.2306 -25.784
L15.2565 -25.4066
L15.2851 -25.0283
L15.3163 -24.6493
L15.3501 -24.2697
L15.3863 -23.8899
L15.4248 -23.51
L15.4654 -23.1304
L15.5078 -22.7512
L15.5519 -22.3727
L15.5973 -21.9953
L15.6439 -21.6193
L15.6911 -21.245
L15.7388 -20.8727
L15.7865 -20.5029
L15.8338 -20.136
L15.8801 -19.7722
L15.925 -19.4121
L15.968 -19.0561
L16.0084 -18.7045
L16.0456 -18.358
L16.0791 -18.0168
L16.1082 -17.6815
L16.1321 -17.3526
L16.1503 -17.0304
L16.162 -16.7155
L16.1666 -16.4083
L16.1634 -16.1092
L15.6643 -15.8186
L15.3189 -16.0323
L14.9799 -16.3902
L14.6472 -16.7541
L14.321 -17.1239
L14.0014 -17.4994
L13.6885 -17.8806
L13.3825 -18.2673
L13.0833 -18.6594
L12.7911 -19.0568
L12.5059 -19.4593
L12.2279 -19.8669
L11.9572 -20.2794
L11.6938 -20.6966
L11.4378 -21.1186
L11.1892 -21.545
L10.9482 -21.9759
L10.7149 -22.411
L10.4893 -22.8503
L10.2714 -23.2936
L10.0614 -23.7408
L9.85922 -24.1917
L9.66505 -24.6462
L9.4789 -25.1041
L9.30083 -25.5654
L9.13089 -26.0298
L8.96914 -26.4973
L8.81562 -26.9677
L8.67038 -27.4408
L8.53347 -27.9166
L8.40492 -28.3948
L8.28478 -28.8753
L8.17309 -29.358
L8.06986 -29.8427
L7.97515 -30.3292
L7.88897 -30.8176
L7.81136 -31.3074
L7.74233 -31.7988
L7.68191 -32.2914
L7.63011 -32.7851
L7.58696 -33.2798
L7.55246 -33.7753
L7.52663 -34.2716
L7.50947 -34.7683
L7.50099 -35.2654
L7.50119 -35.7628
L7.51007 -36.2602
L7.52763 -36.7575
L7.55386 -37.2546
L7.58876 -37.7513
L7.63231 -38.2475
L7.6845 -38.743
L7.74532 -39.2377
L7.81474 -39.7314
L7.89275 -40.2239
L7.97933 -40.7152
L8.07443 -41.205
L8.17805 -41.6932
L8.29014 -42.1797
L8.41066 -42.6643
L8.5396 -43.1469
L8.6769 -43.6273
L8.82252 -44.1054
L8.97642 -44.581
L9.13855 -45.0541
L9.30886 -45.5243
L9.4873 -45.9916
L9.67382 -46.4559
L9.86836 -46.9171
L10.0709 -47.3749
L10.2813 -47.8292
L10.4995 -48.2799
L10.7255 -48.7269
L10.9592 -49.17
L11.2005 -49.6091
L11.4494 -50.044
L11.7057 -50.4747
L11.9695 -50.901
L12.2406 -51.3227
L12.5189 -51.7398
L12.8044 -52.152
L13.0969 -52.5594
L13.3964 -52.9617
L13.7028 -53.3588
L14.016 -53.7506
L14.3359 -54.1371
L14.6624 -54.518
L14.9953 -54.8933
L15.3347 -55.2628
L15.6804 -55.6264
L16.0323 -55.9841
L16.3902 -56.3357
L16.7541 -56.6811
L17.1239 -57.0201
L17.4994 -57.3528
L17.8806 -57.679
L18.2673 -57.9986
L18.6594 -58.3115
L19.0568 -58.6175
L19.4593 -58.9167
L19.8669 -59.2089
L20.2794 -59.4941
L20.6966 -59.7721
L21.1186 -60.0428
L21.545 -60.3062
L21.9759 -60.5622
L22.411 -60.8108
L22.8503 -61.0518
L23.2936 -61.2851
L23.7408 -61.5107
L24.1917 -61.7286
L24.6462 -61.9386
L25.1041 -62.1408
L25.5654 -62.335
L26.0298 -62.5211
L26.4973 -62.6992
L26.9677 -62.8691
L27.4408 -63.0309
L27.9166 -63.1844
L28.3948 -63.3296
L28.8753 -63.4665
L29.358 -63.5951
L29.8427 -63.7152
L30.3292 -63.8269
L30.8176 -63.9301
L31.3074 -64.0249
L31.7988 -64.111
L32.2914 -64.1886
L32.7851 -64.2577
L33.2798 -64.3181
L33.7753 -64.3699
L34.2716 -64.413
L34.7683 -64.4475
z
" id="C0_2_62c6b9f7d0"/>
    </defs>
    <g clip-path="url(#p1bffca34e9)">
     <use style="fill:#ff0000;stroke:#000000;stroke-width:2.0;" x="0.0" xlink:href="#C0_0_a811fe30f3" y="72.0"/>
    </g>
    <g clip-path="url(#p1bffca34e9)">
     <use style="fill:#ffffff;stroke:#000000;stroke-width:2.0;" x="0.0" xlink:href="#C0_1_5a7ad62ba7" y="72.0"/>
    </g>
    <g clip-path="url(#p1bffca34e9)">
     <use style="fill:#ffffff;stroke:#000000;stroke-width:2.0;" x="0.0" xlink:href="#C0_2_62c6b9f7d0" y="72.0"/>
    </g>
   </g>
  </g>
 </g>
 <defs>
  <clipPath id="p1bffca34e9">
   <rect height="72.0" width="72.0" x="0.0" y="0.0"/>
  </clipPath>
 </defs>
</svg>
