<?xml version="1.0" encoding="utf-8" standalone="no"?>
<!DOCTYPE svg PUBLIC "-//W3C//DTD SVG 1.1//EN"
  "http://www.w3.org/Graphics/SVG/1.1/DTD/svg11.dtd">
<!-- Created with matplotlib (http://matplotlib.org/) -->
<svg height="72pt" version="1.1" viewBox="0 0 72 72" width="72pt" xmlns="http://www.w3.org/2000/svg" xmlns:xlink="http://www.w3.org/1999/xlink">
 <defs>
  <style type="text/css">
*{stroke-linecap:butt;stroke-linejoin:round;}
  </style>
 </defs>
 <g id="figure_1">
  <g id="patch_1">
   <path d="
M0 72
L72 72
L72 0
L0 0
z
" style="fill:none;"/>
  </g>
  <g id="axes_1">
   <g id="PatchCollection_1">
    <defs>
     <path d="
M36 -7.5
C43.5583 -7.5 50.808 -10.5029 56.1525 -15.8475
C61.4971 -21.192 64.5 -28.4417 64.5 -36
C64.5 -43.5583 61.4971 -50.808 56.1525 -56.1525
C50.808 -61.4971 43.5583 -64.5 36 -64.5
C28.4417 -64.5 21.192 -61.4971 15.8475 -56.1525
C10.5029 -50.808 7.5 -43.5583 7.5 -36
C7.5 -28.4417 10.5029 -21.192 15.8475 -15.8475
C21.192 -10.5029 28.4417 -7.5 36 -7.5
z
" id="C0_0_a811fe30f3"/>
     <path d="
M25.2753 -9.82678
L25.4849 -10.0433
L25.6805 -10.2757
L25.8642 -10.5216
L26.0378 -10.7792
L26.2028 -11.0466
L26.3606 -11.3224
L26.5122 -11.6053
L26.6585 -11.8942
L26.8003 -12.1882
L26.9381 -12.4863
L27.0725 -12.788
L27.2038 -13.0925
L27.3325 -13.3994
L27.4588 -13.708
L27.5829 -14.018
L27.7051 -14.329
L27.8255 -14.6406
L27.9442 -14.9525
L28.0614 -15.2644
L28.1772 -15.5761
L28.2916 -15.8873
L28.4047 -16.1978
L28.5166 -16.5075
L28.6273 -16.8161
L28.7369 -17.1236
L28.8454 -17.4297
L28.9529 -17.7345
L29.0593 -18.0377
L29.1647 -18.3393
L29.2691 -18.6392
L29.3726 -18.9374
L29.4751 -19.2337
L29.5768 -19.5283
L29.6775 -19.8209
L29.7773 -20.1116
L29.8763 -20.4004
L29.9745 -20.6873
L30.0718 -20.9722
L30.1683 -21.2551
L30.264 -21.5361
L30.3589 -21.8152
L30.4531 -22.0923
L30.5466 -22.3675
L30.6393 -22.6408
L30.7313 -22.9123
L30.8227 -23.182
L30.9134 -23.4498
L31.0034 -23.7159
L31.0928 -23.9803
L31.1816 -24.2429
L31.2698 -24.504
L31.3575 -24.7634
L31.4446 -25.0213
L31.5311 -25.2776
L31.6172 -25.5325
L31.7027 -25.786
L31.7878 -26.0381
L31.8724 -26.2889
L31.9566 -26.5385
L32.0404 -26.7868
L32.1237 -27.034
L32.2067 -27.28
L32.2894 -27.5251
L32.3717 -27.7691
L32.4537 -28.0122
L32.5354 -28.2544
L32.6168 -28.4958
L32.698 -28.7364
L32.7789 -28.9762
L32.8596 -29.2155
L32.9402 -29.4541
L33.0205 -29.6922
L33.1007 -29.9298
L33.1807 -30.1669
L33.2607 -30.4037
L33.3405 -30.6402
L33.4202 -30.8764
L33.4999 -31.1124
L33.5796 -31.3483
L33.6592 -31.584
L33.7389 -31.8198
L33.8982 -32.0556
L33.978 -32.2915
L34.0578 -32.5275
L34.1378 -32.7637
L34.2178 -33.0002
L34.298 -33.2371
L34.3784 -33.4743
L34.459 -33.712
L34.5397 -33.9501
L34.6207 -34.1889
L34.7019 -34.4283
L34.7834 -34.6683
L34.8652 -34.9091
L34.9472 -35.1508
L35.0296 -35.3932
L35.1123 -35.6367
L35.1954 -35.8811
L35.2789 -36.1266
L35.3628 -36.3732
L35.4471 -36.621
L35.5319 -36.87
L35.6171 -37.1203
L35.7028 -37.372
L35.789 -37.6252
L35.8758 -37.8798
L35.9631 -38.136
L36.0509 -38.3938
L36.1394 -38.6534
L36.2284 -38.9146
L36.3181 -39.1777
L36.4084 -39.4426
L36.4994 -39.7095
L36.591 -39.9784
L36.6834 -40.2493
L36.7764 -40.5224
L36.8702 -40.7976
L36.9647 -41.075
L37.06 -41.3548
L37.156 -41.6369
L37.2528 -41.9214
L37.3504 -42.2083
L37.4488 -42.4977
L37.548 -42.7897
L37.648 -43.0843
L37.7488 -43.3815
L37.8504 -43.6814
L37.9528 -43.984
L38.056 -44.2894
L38.1601 -44.5975
L38.2648 -44.9084
L38.3704 -45.2221
L38.4767 -45.5387
L38.5837 -45.858
L38.6914 -46.1802
L38.7997 -46.5053
L38.9086 -46.8331
L39.0181 -47.1638
L39.1281 -47.4972
L39.2385 -47.8333
L39.3492 -48.1721
L39.4602 -48.5135
L39.5713 -48.8575
L39.6824 -49.204
L39.7935 -49.5528
L39.9042 -49.9038
L40.0145 -50.2571
L40.1242 -50.6123
L40.233 -50.9694
L40.3406 -51.3282
L40.4468 -51.6885
L40.5512 -52.0501
L40.6534 -52.4128
L40.753 -52.7763
L40.8493 -53.1403
L40.9418 -53.5046
L41.0298 -53.8689
L41.1123 -54.2328
L41.1884 -54.5958
L41.2569 -54.9576
L41.3164 -55.3176
L41.3652 -55.6753
L41.4014 -56.0301
L41.4227 -56.3814
L41.4264 -56.7283
L41.4096 -57.0699
L41.3688 -57.4052
L41.3006 -57.7332
L41.2012 -58.0526
L41.0672 -58.3621
L40.8959 -58.6603
L40.6852 -58.946
L40.4343 -59.2178
L40.144 -59.4748
L39.816 -59.7162
L39.4531 -59.9414
L39.0588 -60.1502
L38.6367 -60.3425
L38.1907 -60.5184
L37.7244 -60.6781
L37.241 -60.8218
L36.7435 -60.9499
L36.2346 -61.0627
L35.7166 -61.1606
L35.1915 -61.2438
L34.6611 -61.3126
L34.127 -61.3675
L33.5905 -61.4087
L33.0529 -61.4366
L32.5151 -61.4515
L31.9782 -61.4538
L31.443 -61.4438
L30.9103 -61.4218
L30.3806 -61.3882
L29.8546 -61.3434
L29.3327 -61.2877
L28.8155 -61.2214
L28.3034 -61.145
L27.7967 -61.0587
L27.2957 -60.963
L26.8007 -60.8581
L26.312 -60.7445
L25.8296 -60.6225
L25.3539 -60.4923
L24.885 -60.3543
L24.4229 -60.209
L23.9677 -60.0564
L23.5197 -59.8971
L23.0786 -59.7311
L22.6447 -59.559
L22.218 -59.3808
L21.7984 -59.197
L21.3859 -59.0077
L20.9805 -58.8131
L20.5821 -58.6136
L20.1908 -58.4094
L19.8065 -58.2006
L19.429 -57.9874
L19.0584 -57.7701
L18.6946 -57.5489
L18.3374 -57.3239
L17.9869 -57.0952
L17.6428 -56.8631
L17.3052 -56.6277
L16.9739 -56.389
L16.6489 -56.1474
L16.3301 -55.9027
L16.0172 -55.6553
L15.7104 -55.4051
L15.4094 -55.1523
L15.1141 -54.897
L14.8246 -54.6391
L14.5406 -54.3789
L14.2621 -54.1164
L13.989 -53.8516
L13.7213 -53.5846
L13.4587 -53.3155
L13.2013 -53.0442
L12.9489 -52.7709
L12.7015 -52.4955
L12.459 -52.218
L12.2213 -51.9386
L11.9268 -51.6572
L11.6642 -51.2556
L11.4091 -50.8331
L11.1614 -50.4061
L10.9213 -49.9748
L10.6888 -49.5391
L10.4641 -49.0994
L10.2471 -48.6557
L10.0379 -48.2081
L9.83671 -47.7568
L9.64345 -47.3019
L9.45822 -46.8435
L9.28107 -46.3819
L9.11207 -45.9171
L8.95125 -45.4493
L8.79867 -44.9786
L8.65438 -44.5052
L8.51841 -44.0291
L8.39082 -43.5507
L8.27164 -43.0699
L8.16091 -42.587
L8.05865 -42.102
L7.96491 -41.6152
L7.8797 -41.1267
L7.80306 -40.6367
L7.73501 -40.1452
L7.67557 -39.6525
L7.62476 -39.1586
L7.58259 -38.6638
L7.54908 -38.1682
L7.52424 -37.6719
L7.50807 -37.1751
L7.50057 -36.678
L7.50176 -36.1806
L7.51163 -35.6832
L7.53018 -35.1859
L7.5574 -34.6888
L7.59328 -34.1922
L7.63782 -33.696
L7.69099 -33.2006
L7.75279 -32.7061
L7.82319 -32.2125
L7.90218 -31.7201
L7.98972 -31.229
L8.0858 -30.7394
L8.19038 -30.2513
L8.30343 -29.765
L8.42492 -29.2806
L8.55481 -28.7983
L8.69305 -28.3181
L8.83962 -27.8403
L8.99446 -27.365
L9.15752 -26.8923
L9.32876 -26.4223
L9.50813 -25.9553
L9.69557 -25.4914
L9.89101 -25.0306
L10.0944 -24.5732
L10.3057 -24.1193
L10.5248 -23.669
L10.7517 -23.2225
L10.9863 -22.7798
L11.2285 -22.3412
L11.4782 -21.9067
L11.7354 -21.4765
L12 -21.0508
L12.2719 -20.6296
L12.551 -20.2131
L12.8373 -19.8014
L13.1306 -19.3946
L13.4309 -18.9929
L13.7381 -18.5963
L14.0521 -18.2051
L14.3727 -17.8193
L14.6999 -17.439
L15.0337 -17.0644
L15.3738 -16.6955
L15.7201 -16.3326
L16.0727 -15.9756
L16.4313 -15.6247
L16.7959 -15.28
L17.1664 -14.9417
L17.5426 -14.6097
L17.9244 -14.2843
L18.3117 -13.9655
L18.7044 -13.6533
L19.1023 -13.348
L19.5054 -13.0496
L19.9136 -12.7582
L20.3266 -12.4739
L20.7444 -12.1967
L21.1669 -11.9268
L21.5939 -11.6642
L22.0252 -11.4091
L22.4609 -11.1614
L22.9006 -10.9213
L23.3443 -10.6888
L23.7919 -10.4641
L24.2432 -10.2471
L24.6981 -10.0379
z
" id="C0_1_63680c882a"/>
     <path d="
M59.992 -20.6388
L60.1509 -20.9669
L60.3046 -21.295
L60.4532 -21.6229
L60.5968 -21.9509
L60.7356 -22.2787
L60.8695 -22.6066
L60.9987 -22.9345
L61.1232 -23.2624
L61.2432 -23.5904
L61.3587 -23.9185
L61.4697 -24.2468
L61.5764 -24.5753
L61.6788 -24.904
L61.7769 -25.2329
L61.8708 -25.5622
L61.9606 -25.8919
L62.0462 -26.2219
L62.1277 -26.5524
L62.2052 -26.8835
L62.2787 -27.215
L62.3481 -27.5472
L62.4136 -27.88
L62.4751 -28.2136
L62.5327 -28.5479
L62.5863 -28.883
L62.6359 -29.2189
L62.6816 -29.5558
L62.7234 -29.8937
L62.7612 -30.2326
L62.795 -30.5726
L62.8248 -30.9137
L62.8506 -31.256
L62.8723 -31.5995
L62.89 -31.9444
L62.9036 -32.2906
L62.913 -32.6382
L62.9183 -32.9873
L62.9192 -33.3379
L62.9159 -33.6901
L62.9083 -34.0439
L62.8962 -34.3993
L62.8797 -34.7565
L62.8585 -35.1154
L62.8328 -35.4762
L62.8024 -35.8388
L62.7671 -36.2033
L62.727 -36.5697
L62.6819 -36.9381
L62.6317 -37.3085
L62.5763 -37.681
L62.5156 -38.0555
L62.4495 -38.4321
L62.3779 -38.8109
L62.3006 -39.1918
L62.2176 -39.5748
L62.1286 -39.96
L62.0335 -40.3473
L61.9323 -40.7368
L61.8247 -41.1284
L61.7106 -41.5222
L61.5899 -41.9181
L61.4624 -42.316
L61.3279 -42.716
L61.1862 -43.118
L61.0373 -43.5219
L60.8809 -43.9277
L60.7169 -44.3353
L60.5451 -44.7446
L60.3653 -45.1555
L60.1774 -45.5679
L59.9812 -45.9817
L59.7765 -46.3967
L59.5633 -46.8128
L59.3413 -47.2299
L59.1104 -47.6477
L58.8705 -48.0661
L58.6214 -48.4849
L58.3632 -48.9038
L58.0955 -49.3226
L57.8185 -49.7411
L57.532 -50.159
L57.2361 -50.576
L56.9306 -50.9918
L56.6157 -51.4061
L56.2915 -51.8186
L55.958 -52.229
L55.6154 -52.6368
L55.264 -53.0419
L54.904 -53.4437
L54.5357 -53.8421
L54.1597 -54.2365
L53.7764 -54.6266
L53.3865 -55.0122
L52.9908 -55.3928
L52.5902 -55.7682
L52.1859 -56.1381
L51.7791 -56.5023
L51.3714 -56.8605
L50.9646 -57.2127
L50.561 -57.5588
L50.1631 -57.8988
L49.7737 -58.233
L49.3963 -58.5617
L49.0344 -58.8852
L48.6921 -59.2041
L48.3734 -59.519
L48.082 -59.8308
L47.8214 -60.1402
L47.5939 -60.4477
L47.4006 -60.754
L47.2416 -61.0594
L47.1155 -61.3639
L47.02 -61.6675
L46.9522 -61.9698
L47.3875 -62.2705
L47.8418 -62.1261
L48.2924 -61.9234
L48.7393 -61.7128
L49.1823 -61.4943
L49.6212 -61.2681
L50.0561 -61.0342
L50.4866 -60.7927
L50.9128 -60.5436
L51.3344 -60.287
L51.7513 -60.0231
L52.1634 -59.7518
L52.5706 -59.4733
L52.9728 -59.1876
L53.3698 -58.8949
L53.7615 -58.5952
L54.1477 -58.2886
L54.5285 -57.9752
L54.9036 -57.6551
L55.273 -57.3285
L55.6364 -56.9953
L55.9939 -56.6558
L56.3454 -56.3099
L56.6906 -55.9579
L57.0295 -55.5998
L57.362 -55.2357
L57.688 -54.8657
L58.0074 -54.49
L58.3201 -54.1087
L58.626 -53.7219
L58.925 -53.3296
L59.217 -52.9321
L59.5019 -52.5294
L59.7797 -52.1217
L60.0502 -51.7091
L60.3135 -51.2917
L60.5693 -50.8696
L60.8176 -50.443
L61.0583 -50.0121
L61.2915 -49.5768
L61.5169 -49.1374
L61.7346 -48.694
L61.9444 -48.2467
L62.1463 -47.7957
L62.3402 -47.3411
L62.5262 -46.8831
L62.704 -46.4217
L62.8737 -45.9572
L63.0352 -45.4897
L63.1885 -45.0192
L63.3335 -44.546
L63.4702 -44.0702
L63.5985 -43.5919
L63.7184 -43.1113
L63.8299 -42.6286
L63.9329 -42.1438
L64.0274 -41.6572
L64.1133 -41.1688
L64.1907 -40.6789
L64.2595 -40.1876
L64.3196 -39.6949
L64.3712 -39.2012
L64.4141 -38.7064
L64.4484 -38.2109
L64.474 -37.7146
L64.4909 -37.2179
L64.4991 -36.7208
L64.4987 -36.2234
L64.4896 -35.726
L64.4718 -35.2287
L64.4453 -34.7316
L64.4101 -34.2349
L64.3664 -33.7387
L64.3139 -33.2432
L64.2529 -32.7486
L64.1832 -32.2549
L64.105 -31.7624
L64.0181 -31.2712
L63.9228 -30.7814
L63.819 -30.2932
L63.7066 -29.8068
L63.5859 -29.3222
L63.4567 -28.8397
L63.3192 -28.3593
L63.1733 -27.8813
L63.0192 -27.4058
L62.8568 -26.9328
L62.6863 -26.4627
L62.5076 -25.9954
L62.3209 -25.5312
L62.1261 -25.0702
L61.9234 -24.6125
L61.7128 -24.1582
L61.4943 -23.7076
L61.2681 -23.2607
L61.0342 -22.8177
L60.7927 -22.3788
L60.5436 -21.9439
L60.287 -21.5134
z
" id="C0_2_87ca41be5e"/>
    </defs>
    <g clip-path="url(#p1bffca34e9)">
     <use style="fill:#ff0000;stroke:#000000;stroke-width:2.0;" x="0.0" xlink:href="#C0_0_a811fe30f3" y="72.0"/>
    </g>
    <g clip-path="url(#p1bffca34e9)">
     <use style="fill:#ffffff;stroke:#000000;stroke-width:2.0;" x="0.0" xlink:href="#C0_1_63680c882a" y="72.0"/>
    </g>
    <g clip-path="url(#p1bffca34e9)">
     <use style="fill:#ffffff;stroke:#000000;stroke-width:2.0;" x="0.0" xlink:href="#C0_2_87ca41be5e" y="72.0"/>
    </g>
   </g>
  </g>
 </g>
 <defs>
  <clipPath id="p1bffca34e9">
   <rect height="72.0" width="72.0" x="0.0" y="0.0"/>
  </clipPath>
 </defs>
</svg>
