<?xml version="1.0" encoding="utf-8" standalone="no"?>
<!DOCTYPE svg PUBLIC "-//W3C//DTD SVG 1.1//EN"
  "http://www.w3.org/Graphics/SVG/1.1/DTD/svg11.dtd">
<!-- Created with matplotlib (http://matplotlib.org/) -->
<svg height="72pt" version="1.1" viewBox="0 0 72 72" width="72pt" xmlns="http://www.w3.org/2000/svg" xmlns:xlink="http://www.w3.org/1999/xlink">
 <defs>
  <style type="text/css">
*{stroke-linecap:butt;stroke-linejoin:round;}
  </style>
 </defs>
 <g id="figure_1">
  <g id="patch_1">
   <path d="
M0 72
L72 72
L72 0
L0 0
z
" style="fill:none;"/>
  </g>
  <g id="axes_1">
   <g id="PatchCollection_1">
    <defs>
     <path d="
M36 -7.5
C43.5583 -7.5 50.808 -10.5029 56.1525 -15.8475
C61.4971 -21.192 64.5 -28.4417 64.5 -36
C64.5 -43.5583 61.4971 -50.808 56.1525 -56.1525
C50.808 -61.4971 43.5583 -64.5 36 -64.5
C28.4417 -64.5 21.192 -61.4971 15.8475 -56.1525
C10.5029 -50.808 7.5 -43.5583 7.5 -36
C7.5 -28.4417 10.5029 -21.192 15.8475 -15.8475
C21.192 -10.5029 28.4417 -7.5 36 -7.5
z
" id="C0_0_a811fe30f3"/>
     <path d="
M14.5607 -54.5175
L14.8181 -54.5051
L15.0733 -54.4875
L15.3264 -54.465
L15.5773 -54.4377
L15.8262 -54.4059
L16.0731 -54.3698
L16.318 -54.3295
L16.561 -54.2853
L16.802 -54.2372
L17.0411 -54.1855
L17.2784 -54.1303
L17.514 -54.0717
L17.7477 -54.0099
L17.9798 -53.9449
L18.2101 -53.877
L18.4389 -53.8061
L18.666 -53.7325
L18.8917 -53.6561
L19.1158 -53.5772
L19.3384 -53.4957
L19.5597 -53.4118
L19.7795 -53.3255
L19.998 -53.2369
L20.2153 -53.1461
L20.4312 -53.0531
L20.646 -52.958
L20.8596 -52.8609
L21.0721 -52.7617
L21.2834 -52.6605
L21.4937 -52.5574
L21.703 -52.4524
L21.9114 -52.3456
L22.1188 -52.2369
L22.3253 -52.1264
L22.5309 -52.0141
L22.7357 -51.9001
L22.9397 -51.7843
L23.143 -51.6668
L23.3456 -51.5477
L23.5474 -51.4268
L23.7487 -51.3042
L23.9493 -51.18
L24.1493 -51.0541
L24.3489 -50.9265
L24.5478 -50.7973
L24.9444 -50.6664
L25.1421 -50.5339
L25.3394 -50.3996
L25.5363 -50.2637
L25.7328 -50.1262
L25.9291 -49.9869
L26.1251 -49.8459
L26.3209 -49.7033
L26.5164 -49.5588
L26.7118 -49.4127
L26.907 -49.2648
L27.102 -49.1151
L27.2969 -48.9637
L27.4917 -48.8104
L27.6864 -48.6553
L27.8811 -48.4984
L28.0757 -48.3395
L28.2703 -48.1788
L28.4648 -48.0162
L28.6594 -47.8516
L28.854 -47.685
L29.0486 -47.5164
L29.2432 -47.3458
L29.4379 -47.1731
L29.6326 -46.9984
L29.8274 -46.8215
L30.0222 -46.6425
L30.2171 -46.4612
L30.4121 -46.2778
L30.607 -46.0921
L30.8021 -45.9042
L30.9971 -45.7139
L31.1922 -45.5213
L31.3872 -45.3263
L31.5823 -45.1289
L31.7773 -44.929
L31.9723 -44.7267
L32.1671 -44.5218
L32.3619 -44.3144
L32.5564 -44.1044
L32.7508 -43.8918
L32.9449 -43.6766
L33.1387 -43.4587
L33.3322 -43.2381
L33.5252 -43.0148
L33.7178 -42.7888
L33.9097 -42.56
L34.1011 -42.3283
L34.2917 -42.0939
L34.4815 -41.8566
L34.6704 -41.6165
L34.8582 -41.3735
L35.0449 -41.1276
L35.2304 -40.8788
L35.4144 -40.6271
L35.5969 -40.3726
L35.7777 -40.1151
L35.9567 -39.8547
L36.1336 -39.5915
L36.3084 -39.3253
L36.4808 -39.0564
L36.6506 -38.7845
L36.8176 -38.5099
L36.9816 -38.2325
L37.1424 -37.9523
L37.2997 -37.6694
L37.4533 -37.3838
L37.6029 -37.0957
L37.7483 -36.805
L37.8892 -36.5118
L38.0252 -36.2162
L38.1562 -35.9183
L38.2817 -35.6181
L38.4016 -35.3157
L38.5155 -35.0113
L38.6231 -34.705
L38.724 -34.3968
L38.8181 -34.0869
L38.9049 -33.7754
L38.9842 -33.4624
L39.0557 -33.1481
L39.1191 -32.8326
L39.1742 -32.5162
L39.2207 -32.1989
L39.2584 -31.8809
L39.2871 -31.5624
L39.3065 -31.2436
L39.3166 -30.9246
L39.3172 -30.6057
L39.3083 -30.2871
L39.2896 -29.9688
L39.2613 -29.6513
L39.2233 -29.3345
L39.1756 -29.0188
L39.1184 -28.7043
L39.0516 -28.3913
L38.9754 -28.0799
L38.8899 -27.7704
L38.7954 -27.4628
L38.692 -27.1575
L38.5799 -26.8546
L38.4593 -26.5542
L38.3306 -26.2566
L38.194 -25.9619
L38.0498 -25.6702
L37.8982 -25.3818
L37.7395 -25.0967
L37.5741 -24.8151
L37.4023 -24.5371
L37.2243 -24.2628
L37.0404 -23.9923
L36.8509 -23.7258
L36.6562 -23.4632
L36.4566 -23.2048
L36.2522 -22.9505
L36.0434 -22.7005
L35.8304 -22.4547
L35.6135 -22.2133
L35.393 -21.9763
L35.169 -21.7437
L34.9419 -21.5155
L34.7118 -21.2918
L34.479 -21.0726
L34.2436 -20.8579
L34.0058 -20.6476
L33.7658 -20.4419
L33.5239 -20.2407
L33.2801 -20.0439
L33.0346 -19.8516
L32.7875 -19.6638
L32.539 -19.4804
L32.2893 -19.3014
L32.0384 -19.1268
L31.7864 -18.9565
L31.5334 -18.7906
L31.2797 -18.629
L31.0251 -18.4716
L30.7699 -18.3185
L30.514 -18.1696
L30.2576 -18.0248
L30.0008 -17.8842
L29.7435 -17.7476
L29.4859 -17.6151
L29.2279 -17.4866
L28.9697 -17.362
L28.7113 -17.2414
L28.4527 -17.1247
L28.1939 -17.0119
L27.9349 -16.9029
L27.6759 -16.7976
L27.4168 -16.6962
L27.1575 -16.5984
L26.8983 -16.5044
L26.6389 -16.4141
L26.3795 -16.3273
L26.1201 -16.2442
L25.8606 -16.1647
L25.6011 -16.0888
L25.3415 -16.0164
L25.0818 -15.9475
L24.8221 -15.8822
L24.5624 -15.8203
L24.3025 -15.762
L24.0426 -15.7071
L23.7825 -15.6556
L23.5224 -15.6077
L23.262 -15.5632
L23.0016 -15.5221
L22.7409 -15.4845
L22.4801 -15.4503
L22.219 -15.4196
L21.9577 -15.3924
L21.6962 -15.3687
L21.4343 -15.3485
L21.1722 -15.3318
L20.9097 -15.3186
L20.6468 -15.309
L20.3836 -15.303
L20.12 -15.3006
L19.8559 -15.3018
L19.5914 -15.3068
L19.3264 -15.3155
L19.0609 -15.3279
L18.7948 -15.3442
L18.5282 -15.3643
L18.261 -15.3884
L17.9932 -15.4164
L17.7248 -15.4485
L17.4557 -15.4847
L17.186 -15.5251
L16.9155 -15.5698
L16.6443 -15.6188
L16.3724 -15.6722
L16.0997 -15.7301
L15.651 -15.7927
L15.3058 -16.0459
L14.967 -16.404
L14.6345 -16.7682
L14.3086 -17.1382
L13.9893 -17.514
L13.6767 -17.8953
L13.3709 -18.2822
L13.0719 -18.6745
L12.78 -19.0721
L12.4951 -19.4748
L12.2174 -19.8826
L11.947 -20.2953
L11.6838 -20.7127
L11.4281 -21.1348
L11.1798 -21.5615
L10.9392 -21.9925
L10.7061 -22.4278
L10.4808 -22.8672
L10.2632 -23.3107
L10.0535 -23.758
L9.85163 -24.209
L9.65777 -24.6636
L9.47193 -25.1217
L9.29417 -25.5831
L9.12454 -26.0477
L8.96311 -26.5153
L8.8099 -26.9858
L8.66498 -27.459
L8.52839 -27.9348
L8.40017 -28.4131
L8.28035 -28.8937
L8.16897 -29.3765
L8.06608 -29.8613
L7.97169 -30.3479
L7.88584 -30.8363
L7.80855 -31.3263
L7.73985 -31.8176
L7.67976 -32.3103
L7.6283 -32.804
L7.58548 -33.2988
L7.55131 -33.7943
L7.52581 -34.2906
L7.50898 -34.7873
L7.50084 -35.2845
L7.50137 -35.7818
L7.51058 -36.2792
L7.52847 -36.7766
L7.55504 -37.2736
L7.59027 -37.7703
L7.63415 -38.2665
L7.68667 -38.762
L7.74782 -39.2566
L7.81758 -39.7503
L7.89591 -40.2428
L7.98281 -40.734
L8.07825 -41.2237
L8.18219 -41.7119
L8.2946 -42.1983
L8.41545 -42.6829
L8.5447 -43.1654
L8.68232 -43.6457
L8.82826 -44.1237
L8.98248 -44.5992
L9.14492 -45.0721
L9.31555 -45.5423
L9.4943 -46.0095
L9.68113 -46.4737
L9.87597 -46.9347
L10.0788 -47.3923
L10.2895 -47.8465
L10.508 -48.2971
L10.7343 -48.7439
L10.9683 -49.1869
L11.2099 -49.6258
L11.4591 -50.0606
L11.7157 -50.4911
L11.9798 -50.9172
L12.2511 -51.3388
L12.5297 -51.7556
L12.8154 -52.1677
L13.1082 -52.5749
L13.408 -52.977
L13.7147 -53.3739
L14.0281 -53.7655
z
" id="C0_1_e50bf31714"/>
     <path d="
M56.165 -56.1314
L56.2328 -55.8568
L56.2979 -55.581
L56.3605 -55.3038
L56.4205 -55.0252
L56.4779 -54.7453
L56.5328 -54.4639
L56.5852 -54.181
L56.635 -53.8966
L56.6824 -53.6106
L56.7273 -53.3231
L56.7697 -53.0339
L56.8096 -52.7431
L56.8471 -52.4506
L56.8821 -52.1564
L56.9147 -51.8604
L56.9448 -51.5626
L56.9725 -51.2631
L56.9977 -50.9616
L57.0205 -50.6583
L57.0409 -50.3531
L57.0588 -50.046
L57.0743 -49.7369
L57.0874 -49.4258
L57.0982 -49.1127
L57.1064 -48.7976
L57.1123 -48.4805
L57.1159 -48.1613
L57.117 -47.8401
L57.1158 -47.5168
L57.1122 -47.1914
L57.1063 -46.864
L57.098 -46.5345
L57.0875 -46.2028
L57.0747 -45.8692
L57.0597 -45.5334
L57.0424 -45.1956
L57.023 -44.8558
L57.0015 -44.5139
L56.9779 -44.1701
L56.9523 -43.8242
L56.9247 -43.4765
L56.8952 -43.1269
L56.8639 -42.7754
L56.8308 -42.4221
L56.7961 -42.0671
L56.7599 -41.7103
L56.7222 -41.352
L56.6831 -40.9921
L56.6429 -40.6306
L56.6016 -40.2678
L56.5593 -39.9036
L56.5162 -39.5382
L56.4726 -39.1715
L56.4284 -38.8039
L56.3841 -38.4352
L56.3396 -38.0657
L56.2953 -37.6954
L56.2513 -37.3245
L56.2078 -36.953
L56.1652 -36.5811
L56.1235 -36.2088
L56.083 -35.8364
L56.044 -35.4639
L56.0067 -35.0914
L55.9714 -34.7191
L55.9382 -34.3471
L55.9073 -33.9755
L55.8791 -33.6045
L55.8536 -33.234
L55.8311 -32.8644
L55.8118 -32.4956
L55.7958 -32.1278
L55.7833 -31.7611
L55.7743 -31.3956
L55.769 -31.0314
L55.7675 -30.6687
L55.7697 -30.3074
L55.7757 -29.9477
L55.7856 -29.5897
L55.7992 -29.2335
L55.8165 -28.8791
L55.8375 -28.5267
L55.862 -28.1762
L55.89 -27.8278
L55.9213 -27.4816
L55.9557 -27.1376
L55.9931 -26.7958
L56.0333 -26.4564
L56.0761 -26.1193
L56.1214 -25.7847
L56.1689 -25.4526
L56.2184 -25.123
L56.2698 -24.7959
L56.3228 -24.4715
L56.3772 -24.1497
L56.4329 -23.8306
L56.4896 -23.5142
L56.5472 -23.2006
L56.6054 -22.8897
L56.6641 -22.5815
L56.7232 -22.2762
L56.7824 -21.9737
L56.8417 -21.674
L56.9008 -21.3771
L56.9596 -21.0831
L57.0181 -20.7919
L57.076 -20.5035
L57.1334 -20.218
L57.1899 -19.9353
L57.2457 -19.6554
L57.3005 -19.3783
L57.3543 -19.104
L57.4071 -18.8324
L57.4587 -18.5636
L57.509 -18.2975
L57.5581 -18.0341
L57.6058 -17.7734
L57.9952 -17.5153
L58.3081 -17.8765
L58.6143 -18.2631
L58.9135 -18.6551
L59.2058 -19.0524
L59.491 -19.4549
L59.7691 -19.8624
L60.0399 -20.2749
L60.3034 -20.6921
L60.5595 -21.114
L60.8081 -21.5404
L61.0492 -21.9712
L61.2826 -22.4063
L61.5083 -22.8456
L61.7263 -23.2888
L61.9364 -23.7359
L62.1386 -24.1868
L62.3329 -24.6412
L62.5191 -25.0991
L62.6973 -25.5604
L62.8673 -26.0248
L63.0292 -26.4922
L63.1828 -26.9626
L63.3281 -27.4357
L63.4651 -27.9114
L63.5937 -28.3896
L63.714 -28.8701
L63.8258 -29.3527
L63.9291 -29.8374
L64.0239 -30.324
L64.1101 -30.8123
L64.1879 -31.3021
L64.257 -31.7935
L64.3175 -32.286
L64.3694 -32.7798
L64.4126 -33.2745
L64.4472 -33.77
L64.4731 -34.2662
L64.4904 -34.7629
L64.499 -35.26
L64.4989 -35.7574
L64.4901 -36.2548
L64.4726 -36.7521
L64.4465 -37.2492
L64.4117 -37.746
L64.3682 -38.2422
L64.3161 -38.7377
L64.2554 -39.2323
L64.1861 -39.726
L64.1081 -40.2186
L64.0217 -40.7099
L63.9266 -41.1997
L63.8231 -41.688
L63.7111 -42.1745
L63.5907 -42.6591
L63.4618 -43.1417
L63.3246 -43.6222
L63.1791 -44.1003
L63.0253 -44.5759
L62.8633 -45.049
L62.693 -45.5192
L62.5147 -45.9866
L62.3282 -46.4509
L62.1338 -46.9121
L61.9314 -47.3699
L61.7211 -47.8243
L61.5029 -48.2751
L61.277 -48.7221
L61.0434 -49.1652
L60.8021 -49.6044
L60.5533 -50.0394
L60.2971 -50.4701
L60.0334 -50.8964
L59.7624 -51.3182
L59.4841 -51.7353
L59.1988 -52.1476
L58.9063 -52.555
L58.6069 -52.9573
L58.3005 -53.3545
L57.9874 -53.7464
L57.6676 -54.1329
L57.3412 -54.5139
L57.0083 -54.8892
L56.669 -55.2588
z
" id="C0_2_0bd4594bc3"/>
    </defs>
    <g clip-path="url(#p1bffca34e9)">
     <use style="fill:#ffffff;stroke:#000000;stroke-width:2.0;" x="0.0" xlink:href="#C0_0_a811fe30f3" y="72.0"/>
    </g>
    <g clip-path="url(#p1bffca34e9)">
     <use style="fill:#ff0000;stroke:#000000;stroke-width:2.0;" x="0.0" xlink:href="#C0_1_e50bf31714" y="72.0"/>
    </g>
    <g clip-path="url(#p1bffca34e9)">
     <use style="fill:#ff0000;stroke:#000000;stroke-width:2.0;" x="0.0" xlink:href="#C0_2_0bd4594bc3" y="72.0"/>
    </g>
   </g>
  </g>
 </g>
 <defs>
  <clipPath id="p1bffca34e9">
   <rect height="72.0" width="72.0" x="0.0" y="0.0"/>
  </clipPath>
 </defs>
</svg>
