<?xml version="1.0" encoding="utf-8" standalone="no"?>
<!DOCTYPE svg PUBLIC "-//W3C//DTD SVG 1.1//EN"
  "http://www.w3.org/Graphics/SVG/1.1/DTD/svg11.dtd">
<!-- Created with matplotlib (http://matplotlib.org/) -->
<svg height="72pt" version="1.1" viewBox="0 0 72 72" width="72pt" xmlns="http://www.w3.org/2000/svg" xmlns:xlink="http://www.w3.org/1999/xlink">
 <defs>
  <style type="text/css">
*{stroke-linecap:butt;stroke-linejoin:round;}
  </style>
 </defs>
 <g id="figure_1">
  <g id="patch_1">
   <path d="
M0 72
L72 72
L72 0
L0 0
z
" style="fill:none;"/>
  </g>
  <g id="axes_1">
   <g id="PatchCollection_1">
    <defs>
     <path d="
M36 -7.5
C43.5583 -7.5 50.808 -10.5029 56.1525 -15.8475
C61.4971 -21.192 64.5 -28.4417 64.5 -36
C64.5 -43.5583 61.4971 -50.808 56.1525 -56.1525
C50.808 -61.4971 43.5583 -64.5 36 -64.5
C28.4417 -64.5 21.192 -61.4971 15.8475 -56.1525
C10.5029 -50.808 7.5 -43.5583 7.5 -36
C7.5 -28.4417 10.5029 -21.192 15.8475 -15.8475
C21.192 -10.5029 28.4417 -7.5 36 -7.5
z
" id="C0_0_a811fe30f3"/>
     <path d="
M60.1855 -50.9618
L59.8313 -51.0913
L59.4777 -51.2101
L59.1251 -51.3187
L58.7737 -51.4177
L58.4237 -51.5075
L58.0754 -51.5885
L57.7288 -51.6613
L57.3842 -51.7263
L57.0418 -51.7837
L56.7015 -51.8341
L56.3636 -51.8777
L56.0281 -51.9149
L55.6952 -51.946
L55.3648 -51.9713
L55.037 -51.9911
L54.7119 -52.0056
L54.3896 -52.0152
L54.0699 -52.02
L53.753 -52.0203
L53.4388 -52.0163
L53.1274 -52.0082
L52.8187 -51.9962
L52.5128 -51.9805
L52.2096 -51.9612
L51.9091 -51.9386
L51.6112 -51.9127
L51.316 -51.8838
L51.0234 -51.8519
L50.7334 -51.8172
L50.4459 -51.7798
L50.1608 -51.7398
L49.8782 -51.6974
L49.5981 -51.6526
L49.3202 -51.6055
L49.0446 -51.5562
L48.7713 -51.5048
L48.5002 -51.4514
L48.2312 -51.396
L47.9642 -51.3388
L47.6993 -51.2797
L47.4364 -51.2188
L47.1753 -51.1563
L46.9161 -51.0921
L46.6587 -51.0262
L46.403 -50.9588
L46.149 -50.8898
L45.8966 -50.8194
L45.6457 -50.7474
L45.3964 -50.674
L45.1484 -50.5993
L44.9019 -50.5231
L44.6566 -50.4455
L44.4126 -50.3666
L44.1698 -50.2863
L43.9282 -50.2048
L43.6876 -50.1219
L43.4481 -50.0377
L43.2095 -49.9521
L42.9718 -49.8653
L42.735 -49.7772
L42.499 -49.6878
L42.2637 -49.5971
L42.0291 -49.5051
L41.7951 -49.4118
L41.5617 -49.3171
L41.3289 -49.2212
L41.0965 -49.1239
L40.6329 -49.0252
L40.4015 -48.9252
L40.1705 -48.8238
L39.9396 -48.7209
L39.7089 -48.6167
L39.4783 -48.511
L39.2477 -48.4039
L39.0171 -48.2952
L38.7865 -48.185
L38.5558 -48.0733
L38.3249 -47.9601
L38.0938 -47.8452
L37.8625 -47.7286
L37.6309 -47.6104
L37.3989 -47.4905
L37.1666 -47.3689
L36.9338 -47.2454
L36.7005 -47.1202
L36.4667 -46.9931
L36.2324 -46.864
L35.9974 -46.733
L35.7618 -46.6001
L35.5254 -46.465
L35.2884 -46.3279
L35.0506 -46.1886
L34.812 -46.0471
L34.5725 -45.9034
L34.3322 -45.7574
L34.0909 -45.6089
L33.8487 -45.4581
L33.6055 -45.3048
L33.3614 -45.1489
L33.1162 -44.9904
L32.87 -44.8293
L32.6227 -44.6654
L32.3743 -44.4987
L32.1248 -44.3291
L31.8743 -44.1565
L31.6226 -43.981
L31.3698 -43.8023
L31.1159 -43.6205
L30.8609 -43.4355
L30.6048 -43.2471
L30.3476 -43.0554
L30.0894 -42.8601
L29.8301 -42.6614
L29.5699 -42.459
L29.3087 -42.253
L29.0466 -42.0432
L28.7837 -41.8295
L28.52 -41.612
L28.2557 -41.3904
L27.9907 -41.1648
L27.7253 -40.9351
L27.4595 -40.7011
L27.1934 -40.4629
L26.9272 -40.2204
L26.6611 -39.9735
L26.3952 -39.7222
L26.1297 -39.4663
L25.8648 -39.206
L25.6008 -38.941
L25.3379 -38.6714
L25.0764 -38.3972
L24.8166 -38.1183
L24.5589 -37.8347
L24.3035 -37.5464
L24.051 -37.2534
L23.8017 -36.9557
L23.5561 -36.6534
L23.3148 -36.3464
L23.0783 -36.0348
L22.8473 -35.7186
L22.6225 -35.3979
L22.4045 -35.0729
L22.1943 -34.7435
L21.9927 -34.4099
L21.8007 -34.0723
L21.6193 -33.7307
L21.4497 -33.3854
L21.2931 -33.0364
L21.1508 -32.6842
L21.0241 -32.3289
L20.9143 -31.9707
L20.823 -31.61
L20.7514 -31.2472
L20.7008 -30.8827
L20.6724 -30.5168
L20.6673 -30.15
L20.6861 -29.783
L20.7293 -29.4161
L20.7972 -29.05
L20.8895 -28.6854
L21.0058 -28.3227
L21.1454 -27.9626
L21.3073 -27.6056
L21.4903 -27.2524
L21.6931 -26.9035
L21.9144 -26.5593
L22.1527 -26.2203
L22.4066 -25.8869
L22.6747 -25.5595
L22.9557 -25.2383
L23.2483 -24.9236
L23.5513 -24.6157
L23.8637 -24.3148
L24.1843 -24.0209
L24.5123 -23.7343
L24.8467 -23.455
L25.1868 -23.1831
L25.5317 -22.9186
L25.8808 -22.6615
L26.2336 -22.412
L26.5893 -22.1698
L26.9474 -21.9351
L27.3076 -21.7077
L27.6692 -21.4877
L28.032 -21.2748
L28.3955 -21.0691
L28.7595 -20.8704
L29.1235 -20.6787
L29.4874 -20.4939
L29.8508 -20.3157
L30.2136 -20.1442
L30.5755 -19.9791
L30.9363 -19.8204
L31.2959 -19.668
L31.6541 -19.5216
L32.0108 -19.3813
L32.3658 -19.2468
L32.7191 -19.1179
L33.0706 -18.9947
L33.4201 -18.8769
L33.7677 -18.7645
L34.1132 -18.6572
L34.4567 -18.555
L34.798 -18.4578
L35.1372 -18.3654
L35.4742 -18.2777
L35.8091 -18.1946
L36.1418 -18.1159
L36.4723 -18.0417
L36.8006 -17.9717
L37.1267 -17.9059
L37.4507 -17.8441
L37.7726 -17.7863
L38.0923 -17.7324
L38.41 -17.6823
L38.7256 -17.6359
L39.0393 -17.5931
L39.3509 -17.5538
L39.6606 -17.518
L39.9684 -17.4857
L40.2743 -17.4566
L40.5784 -17.4308
L40.8808 -17.4082
L41.1814 -17.3887
L41.4804 -17.3724
L41.7777 -17.3591
L42.0735 -17.3487
L42.3677 -17.3414
L42.6605 -17.3369
L42.9519 -17.3353
L43.2419 -17.3365
L43.5307 -17.3406
L43.8181 -17.3474
L44.1044 -17.357
L44.3895 -17.3692
L44.6735 -17.3842
L44.9565 -17.4019
L45.2385 -17.4223
L45.5196 -17.4453
L45.7999 -17.471
L46.0793 -17.4994
L46.3579 -17.5304
L46.6358 -17.564
L46.9131 -17.6003
L47.1897 -17.6393
L47.4659 -17.681
L47.7415 -17.7253
L48.0166 -17.7724
L48.2914 -17.8221
L48.5658 -17.8747
L48.8399 -17.93
L49.1137 -17.988
L49.3873 -18.049
L49.6608 -18.1128
L49.9342 -18.1795
L50.2075 -18.2491
L50.4808 -18.3217
L50.7541 -18.3974
L51.0274 -18.4762
L51.3009 -18.5581
L51.5745 -18.6432
L51.8483 -18.7315
L52.1223 -18.8232
L52.3965 -18.9183
L52.6711 -19.0169
L52.9459 -19.119
L53.2211 -19.2248
L53.4967 -19.3343
L53.7727 -19.4476
L54.0491 -19.5648
L54.3259 -19.686
L54.6032 -19.8113
L54.881 -19.9408
L55.1592 -20.0747
L55.4379 -20.213
L55.7171 -20.3558
L55.9968 -20.5034
L56.277 -20.6558
L56.5577 -20.8132
L56.8388 -20.9757
L57.1203 -21.1435
L57.4023 -21.3166
L57.6846 -21.4954
L57.9672 -21.6799
L58.2502 -21.8704
L58.5333 -22.0669
L58.8167 -22.2698
L59.1001 -22.4791
L59.3835 -22.6951
L59.6668 -22.9179
L59.95 -23.1478
L60.2328 -23.385
L60.5152 -23.6298
L60.797 -23.8822
L61.078 -24.1426
L61.3582 -24.4111
L61.6372 -24.6881
L61.9149 -24.9737
L62.1911 -25.2682
L62.4655 -25.5718
L62.7379 -25.8847
L62.9286 -26.2072
L63.0873 -26.6671
L63.2379 -27.1385
L63.3801 -27.6126
L63.514 -28.0892
L63.6395 -28.5683
L63.7566 -29.0496
L63.8652 -29.533
L63.9654 -30.0184
L64.057 -30.5057
L64.1401 -30.9946
L64.2146 -31.485
L64.2805 -31.9768
L64.3378 -32.4698
L64.3865 -32.9639
L64.4265 -33.4589
L64.4579 -33.9547
L64.4806 -34.4512
L64.4946 -34.9481
L64.4999 -35.4453
L64.4966 -35.9427
L64.4846 -36.4401
L64.4639 -36.9373
L64.4345 -37.4343
L64.3965 -37.9309
L64.3498 -38.4268
L64.2945 -38.922
L64.2306 -39.4164
L64.158 -39.9096
L64.0769 -40.4017
L63.9873 -40.8925
L63.8891 -41.3818
L63.7824 -41.8694
L63.6672 -42.3552
L63.5437 -42.8391
L63.4117 -43.3209
L63.2714 -43.8005
L63.1228 -44.2777
L62.9659 -44.7524
L62.8008 -45.2245
L62.6275 -45.6937
L62.4462 -46.1599
L62.2567 -46.6231
L62.0593 -47.083
L61.854 -47.5396
L61.6407 -47.9926
L61.4197 -48.442
L61.1909 -48.8876
L60.9544 -49.3293
L60.7103 -49.7669
z
" id="C0_1_462d430f39"/>
     <path d="
M9.21322 -45.383
L9.2183 -44.953
L9.23005 -44.5204
L9.24854 -44.0851
L9.27379 -43.6473
L9.30583 -43.207
L9.34468 -42.7645
L9.39034 -42.3197
L9.44279 -41.873
L9.502 -41.4243
L9.56788 -40.9739
L9.64037 -40.522
L9.71934 -40.0686
L9.80464 -39.6141
L9.89608 -39.1587
L9.99342 -38.7024
L10.0964 -38.2457
L10.2047 -37.7886
L10.3178 -37.3315
L10.4354 -36.8746
L10.5569 -36.4181
L10.6818 -35.9623
L10.8092 -35.5075
L10.9385 -35.0539
L11.0688 -34.6018
L11.1991 -34.1513
L11.3283 -33.7028
L11.4553 -33.2565
L11.5788 -32.8125
L11.6977 -32.371
L11.8105 -31.9322
L11.9159 -31.4961
L12.0127 -31.0629
L12.0998 -30.6326
L12.1761 -30.205
L12.2409 -29.7803
L12.2935 -29.3583
L12.3338 -28.9389
L12.3618 -28.522
L12.3779 -28.1074
L12.3825 -27.6951
L12.3767 -27.2848
L12.3613 -26.8765
L12.3374 -26.47
L12.3063 -26.0654
L12.2691 -25.6626
L12.227 -25.2615
L12.1811 -24.8621
L12.1326 -24.4645
L12.0823 -24.0687
L12.0312 -23.6748
L11.9802 -23.2828
L11.93 -22.8927
L11.8812 -22.5047
L11.8344 -22.1188
L11.7903 -21.735
L11.3507 -21.3535
L11.1048 -21.694
L10.8664 -22.1264
L10.6358 -22.563
L10.4128 -23.0036
L10.1976 -23.4483
L9.99034 -23.8968
L9.79097 -24.3489
L9.59957 -24.8046
L9.41622 -25.2637
L9.24096 -25.7261
L9.07386 -26.1916
L8.91496 -26.6601
L8.76431 -27.1315
L8.62195 -27.6055
L8.48793 -28.0821
L8.3623 -28.5612
L8.24508 -29.0424
L8.13632 -29.5259
L8.03605 -30.0112
L7.94429 -30.4984
L7.86108 -30.9873
L7.78644 -31.4777
L7.72039 -31.9695
L7.66296 -32.4625
L7.61416 -32.9566
L7.57401 -33.4516
L7.54252 -33.9474
L7.51969 -34.4438
L7.50554 -34.9407
L7.50007 -35.4379
L7.50328 -35.9353
L7.51518 -36.4327
L7.53574 -36.93
L7.56498 -37.4269
L7.60288 -37.9235
L7.64943 -38.4195
L7.70462 -38.9147
L7.76843 -39.409
L7.84083 -39.9023
L7.92181 -40.3945
L8.01135 -40.8852
L8.10941 -41.3745
L8.21597 -41.8622
L8.33099 -42.348
L8.45444 -42.832
L8.58627 -43.3138
L8.72646 -43.7934
L8.87496 -44.2707
z
" id="C0_2_c598d7fa4d"/>
    </defs>
    <g clip-path="url(#p1bffca34e9)">
     <use style="fill:#ff0000;stroke:#000000;stroke-width:2.0;" x="0.0" xlink:href="#C0_0_a811fe30f3" y="72.0"/>
    </g>
    <g clip-path="url(#p1bffca34e9)">
     <use style="fill:#ffffff;stroke:#000000;stroke-width:2.0;" x="0.0" xlink:href="#C0_1_462d430f39" y="72.0"/>
    </g>
    <g clip-path="url(#p1bffca34e9)">
     <use style="fill:#ffffff;stroke:#000000;stroke-width:2.0;" x="0.0" xlink:href="#C0_2_c598d7fa4d" y="72.0"/>
    </g>
   </g>
  </g>
 </g>
 <defs>
  <clipPath id="p1bffca34e9">
   <rect height="72.0" width="72.0" x="0.0" y="0.0"/>
  </clipPath>
 </defs>
</svg>
