<?xml version="1.0" encoding="utf-8" standalone="no"?>
<!DOCTYPE svg PUBLIC "-//W3C//DTD SVG 1.1//EN"
  "http://www.w3.org/Graphics/SVG/1.1/DTD/svg11.dtd">
<!-- Created with matplotlib (http://matplotlib.org/) -->
<svg height="72pt" version="1.1" viewBox="0 0 72 72" width="72pt" xmlns="http://www.w3.org/2000/svg" xmlns:xlink="http://www.w3.org/1999/xlink">
 <defs>
  <style type="text/css">
*{stroke-linecap:butt;stroke-linejoin:round;}
  </style>
 </defs>
 <g id="figure_1">
  <g id="patch_1">
   <path d="
M0 72
L72 72
L72 0
L0 0
z
" style="fill:none;"/>
  </g>
  <g id="axes_1">
   <g id="PatchCollection_1">
    <defs>
     <path d="
M36 -7.5
C43.5583 -7.5 50.808 -10.5029 56.1525 -15.8475
C61.4971 -21.192 64.5 -28.4417 64.5 -36
C64.5 -43.5583 61.4971 -50.808 56.1525 -56.1525
C50.808 -61.4971 43.5583 -64.5 36 -64.5
C28.4417 -64.5 21.192 -61.4971 15.8475 -56.1525
C10.5029 -50.808 7.5 -43.5583 7.5 -36
C7.5 -28.4417 10.5029 -21.192 15.8475 -15.8475
C21.192 -10.5029 28.4417 -7.5 36 -7.5
z
" id="C0_0_a811fe30f3"/>
     <path d="
M24.6498 -10.0242
L24.6138 -10.2921
L24.6037 -10.5543
L24.6191 -10.8107
L24.6592 -11.0612
L24.7233 -11.3058
L24.8101 -11.5446
L24.9184 -11.778
L25.047 -12.0062
L25.1944 -12.2296
L25.3591 -12.4487
L25.5398 -12.6639
L25.7349 -12.8758
L25.943 -13.0847
L26.1628 -13.2911
L26.3929 -13.4955
L26.6322 -13.6981
L26.8795 -13.8994
L27.1337 -14.0997
L27.3939 -14.2992
L27.6591 -14.4981
L27.9286 -14.6968
L28.2015 -14.8952
L28.4772 -15.0936
L28.755 -15.2921
L29.0344 -15.4908
L29.315 -15.6897
L29.5961 -15.8888
L29.8774 -16.0883
L30.1586 -16.2881
L30.4394 -16.4882
L30.7193 -16.6886
L30.9982 -16.8893
L31.2758 -17.0903
L31.552 -17.2915
L31.8265 -17.493
L32.0992 -17.6947
L32.3699 -17.8965
L32.6386 -18.0984
L32.9052 -18.3005
L33.1694 -18.5026
L33.4314 -18.7047
L33.691 -18.9068
L33.9482 -19.1088
L34.2029 -19.3108
L34.4551 -19.5127
L34.7048 -19.7144
L34.952 -19.916
L35.1967 -20.1175
L35.4389 -20.3187
L35.6786 -20.5197
L35.9158 -20.7205
L36.1506 -20.9211
L36.3829 -21.1214
L36.6128 -21.3214
L36.8402 -21.5212
L37.0654 -21.7208
L37.2882 -21.9201
L37.5087 -22.1191
L37.727 -22.3179
L37.943 -22.5164
L38.1569 -22.7147
L38.3687 -22.9127
L38.5784 -23.1105
L38.7861 -23.3082
L38.9918 -23.5056
L39.1955 -23.7028
L39.3974 -23.8999
L39.5974 -24.0969
L39.7956 -24.2937
L39.9921 -24.4905
L40.1868 -24.6871
L40.3799 -24.8838
L40.5714 -25.0804
L40.7613 -25.2769
L40.9497 -25.4736
L41.1366 -25.6703
L41.322 -25.867
L41.5061 -26.0639
L41.6889 -26.261
L41.8703 -26.4582
L42.0505 -26.6556
L42.2295 -26.8533
L42.4073 -27.0513
L42.5839 -27.2496
L42.7595 -27.4483
L42.934 -27.6473
L43.1076 -27.8468
L43.2801 -28.0468
L43.4517 -28.2472
L43.6225 -28.4482
L43.9614 -28.6498
L44.1297 -28.8521
L44.2972 -29.055
L44.464 -29.2586
L44.6301 -29.463
L44.7955 -29.6681
L44.9604 -29.8741
L45.1246 -30.0811
L45.2883 -30.2889
L45.4515 -30.4977
L45.6142 -30.7076
L45.7764 -30.9185
L45.9381 -31.1305
L46.0994 -31.3438
L46.2604 -31.5582
L46.4209 -31.7739
L46.5812 -31.9909
L46.7411 -32.2093
L46.9007 -32.4291
L47.06 -32.6503
L47.219 -32.8731
L47.3778 -33.0974
L47.5364 -33.3233
L47.6948 -33.5509
L47.853 -33.7802
L48.011 -34.0113
L48.1688 -34.2442
L48.3265 -34.479
L48.484 -34.7157
L48.6414 -34.9543
L48.7987 -35.195
L48.9558 -35.4377
L49.1129 -35.6825
L49.2698 -35.9295
L49.4265 -36.1786
L49.5832 -36.43
L49.7397 -36.6837
L49.8962 -36.9397
L50.0525 -37.1981
L50.2086 -37.4589
L50.3646 -37.7221
L50.5205 -37.9877
L50.6762 -38.2558
L50.8317 -38.5265
L50.987 -38.7996
L51.1422 -39.0753
L51.297 -39.3535
L51.4517 -39.6342
L51.606 -39.9175
L51.7601 -40.2033
L51.9139 -40.4916
L52.0673 -40.7823
L52.2204 -41.0755
L52.3731 -41.371
L52.5255 -41.6689
L52.6774 -41.969
L52.8288 -42.2712
L52.9799 -42.5755
L53.1305 -42.8818
L53.2807 -43.1898
L53.4304 -43.4994
L53.5797 -43.8105
L53.7285 -44.1229
L53.877 -44.4362
L54.0252 -44.7503
L54.1731 -45.0649
L54.3208 -45.3796
L54.4684 -45.6942
L54.6161 -46.0081
L54.764 -46.321
L54.9122 -46.6324
L55.061 -46.9417
L55.2106 -47.2484
L55.3614 -47.5518
L55.5136 -47.8512
L55.6677 -48.1458
L55.824 -48.4348
L55.9831 -48.7174
L56.1454 -48.9924
L56.3116 -49.259
L56.4823 -49.5158
L56.6581 -49.7619
L56.8398 -49.9958
L57.028 -50.2164
L57.2233 -50.4223
L57.4266 -50.6122
L57.6384 -50.7848
L57.8592 -50.9387
L58.0895 -51.0728
L58.3296 -51.1859
L58.5797 -51.2771
L58.8399 -51.3454
L59.11 -51.3902
L59.3897 -51.411
L59.6785 -51.4074
L59.9758 -51.3794
L60.277 -51.3269
L60.5338 -50.9291
L60.7832 -50.5031
L61.025 -50.0727
L61.2592 -49.6381
L61.4858 -49.1993
L61.7045 -48.7564
L61.9154 -48.3097
L62.1185 -47.8592
L62.3135 -47.4051
L62.5006 -46.9475
L62.6796 -46.4866
L62.8504 -46.0225
L63.0131 -45.5554
L63.1675 -45.0853
L63.3137 -44.6125
L63.4516 -44.1371
L63.581 -43.6591
L63.7021 -43.1789
L63.8148 -42.6964
L63.919 -42.2119
L64.0146 -41.7255
L64.1018 -41.2374
L64.1803 -40.7477
L64.2503 -40.2565
L64.3117 -39.7641
L64.3645 -39.2705
L64.4086 -38.7759
L64.4441 -38.2804
L64.4709 -37.7843
L64.489 -37.2876
L64.4985 -36.7905
L64.4993 -36.2932
L64.4914 -35.7958
L64.4748 -35.2984
L64.4495 -34.8013
L64.4156 -34.3045
L64.373 -33.8082
L64.3218 -33.3127
L64.2619 -32.8179
L64.1935 -32.3241
L64.1164 -31.8314
L64.0308 -31.34
L63.9367 -30.85
L63.834 -30.3616
L63.7229 -29.8749
L63.6033 -29.39
L63.4753 -28.9072
L63.339 -28.4266
L63.1943 -27.9482
L63.0413 -27.4723
L62.8801 -26.999
L62.7107 -26.5284
L62.5332 -26.0607
L62.3475 -25.5961
L62.1539 -25.1346
L61.9523 -24.6764
L61.7428 -24.2217
L61.5254 -23.7706
L61.3003 -23.3232
L61.0675 -22.8796
L60.827 -22.4401
L60.579 -22.0046
L60.3234 -21.5735
L60.0605 -21.1467
L59.7903 -20.7245
L59.5127 -20.3069
L59.2281 -19.8941
L58.9363 -19.4862
L58.6376 -19.0833
L58.332 -18.6856
L58.0196 -18.2931
L57.7004 -17.9061
L57.3747 -17.5246
L57.0424 -17.1486
L56.7037 -16.7785
L56.3588 -16.4142
L56.0076 -16.0558
L55.6503 -15.7035
L55.2871 -15.3575
L54.9179 -15.0177
L54.5431 -14.6842
L54.1625 -14.3573
L53.7764 -14.037
L53.385 -13.7234
L52.9882 -13.4165
L52.5862 -13.1166
L52.1792 -12.8236
L51.7673 -12.5376
L51.3505 -12.2588
L50.9291 -11.9873
L50.5031 -11.723
L50.0727 -11.4662
L49.6381 -11.2168
L49.1993 -10.975
L48.7564 -10.7408
L48.3097 -10.5142
L47.8592 -10.2955
L47.4051 -10.0846
L46.9475 -9.88155
L46.4866 -9.68648
L46.0225 -9.49943
L45.5554 -9.32044
L45.0853 -9.14959
L44.6125 -8.98692
L44.1371 -8.83247
L43.6591 -8.6863
L43.1789 -8.54845
L42.6964 -8.41896
L42.2119 -8.29787
L41.7255 -8.18522
L41.2374 -8.08104
L40.7477 -7.98537
L40.2565 -7.89823
L39.7641 -7.81965
L39.2705 -7.74966
L38.7759 -7.68827
L38.2804 -7.6355
L37.7843 -7.59138
L37.2876 -7.55591
L36.7905 -7.5291
L36.2932 -7.51096
L35.7958 -7.50151
L35.2984 -7.50073
L34.8013 -7.50864
L34.3045 -7.52522
L33.8082 -7.55048
L33.3127 -7.5844
L32.8179 -7.62698
L32.3241 -7.6782
L31.8314 -7.73805
L31.34 -7.80651
L30.85 -7.88356
L30.3616 -7.96917
L29.8749 -8.06332
L29.39 -8.16598
L28.9072 -8.27711
L28.4266 -8.39669
L27.9482 -8.52468
L27.4723 -8.66104
L26.999 -8.80573
L26.5284 -8.9587
L26.0607 -9.11991
L25.5961 -9.28931
L25.1346 -9.46684
z
" id="C0_1_7a0c04108d"/>
     <path d="
M12.0128 -20.9343
L12.0668 -21.2569
L12.1134 -21.5924
L12.154 -21.9399
L12.1894 -22.2981
L12.2209 -22.6658
L12.2494 -23.042
L12.2758 -23.4256
L12.3011 -23.8156
L12.3259 -24.211
L12.3509 -24.6109
L12.3769 -25.0145
L12.4042 -25.421
L12.4334 -25.8297
L12.4649 -26.2399
L12.4989 -26.6509
L12.5358 -27.0623
L12.5758 -27.4735
L12.6191 -27.8841
L12.6657 -28.2935
L12.7159 -28.7015
L12.7696 -29.1077
L12.8269 -29.5117
L12.8878 -29.9134
L12.9524 -30.3123
L13.0206 -30.7084
L13.0923 -31.1015
L13.1675 -31.4913
L13.2462 -31.8777
L13.3282 -32.2606
L13.4136 -32.6399
L13.5022 -33.0155
L13.5939 -33.3873
L13.6888 -33.7553
L13.7865 -34.1194
L13.8872 -34.4795
L13.9907 -34.8357
L14.0969 -35.188
L14.2057 -35.5363
L14.3171 -35.8807
L14.4309 -36.2211
L14.5471 -36.5576
L14.6655 -36.8902
L14.7863 -37.219
L14.9091 -37.544
L15.0341 -37.8652
L15.1611 -38.1827
L15.29 -38.4965
L15.4209 -38.8066
L15.5536 -39.1133
L15.6881 -39.4164
L15.8243 -39.716
L15.9622 -40.0123
L16.1018 -40.3053
L16.243 -40.595
L16.3859 -40.8815
L16.5302 -41.1649
L16.6761 -41.4452
L16.8235 -41.7225
L16.9724 -41.9969
L17.1227 -42.2685
L17.2744 -42.5372
L17.4276 -42.8033
L17.5822 -43.0666
L17.7383 -43.3274
L17.8957 -43.5856
L18.0545 -43.8414
L18.2147 -44.0947
L18.3763 -44.3457
L18.5393 -44.5944
L18.7037 -44.8409
L18.8695 -45.0853
L19.0367 -45.3275
L19.2054 -45.5677
L19.3755 -45.8059
L19.5471 -46.0421
L19.7201 -46.2765
L19.8947 -46.509
L20.0708 -46.7398
L20.2484 -46.9688
L20.4276 -47.1961
L20.6084 -47.4219
L20.7908 -47.646
L20.9748 -47.8686
L21.1606 -48.0897
L21.3481 -48.3093
L21.5373 -48.5275
L21.7283 -48.7444
L21.9212 -48.9599
L22.1159 -49.1741
L22.3126 -49.387
L22.5112 -49.5987
L22.7118 -49.8093
L22.9145 -50.0186
L23.1193 -50.2268
L23.3262 -50.4339
L23.5353 -50.6399
L23.7467 -50.8448
L23.9604 -51.0487
L24.1764 -51.2516
L24.3949 -51.4535
L24.6158 -51.6544
L24.8393 -51.8543
L25.0653 -52.0532
L25.2941 -52.2512
L25.5255 -52.4483
L25.7597 -52.6444
L25.9968 -52.8395
L26.2368 -53.0338
L26.4798 -53.2271
L26.7258 -53.4195
L26.9749 -53.6109
L27.2273 -53.8013
L27.4828 -53.9908
L27.7417 -54.1793
L28.004 -54.3668
L28.2698 -54.5532
L28.5391 -54.7387
L28.812 -54.923
L29.0885 -55.1062
L29.3688 -55.2883
L29.6529 -55.4691
L29.9408 -55.6488
L30.2327 -55.8271
L30.5285 -56.0042
L30.8284 -56.1798
L31.1323 -56.3541
L31.4404 -56.5268
L31.7527 -56.6979
L32.0692 -56.8675
L32.3899 -57.0353
L32.7149 -57.2013
L33.0443 -57.3655
L33.3779 -57.5278
L33.7158 -57.688
L34.0581 -57.8461
L34.4046 -58.002
L34.7554 -58.1557
L35.1104 -58.3069
L35.4695 -58.4557
L35.8328 -58.602
L36.2 -58.7456
L36.571 -58.8864
L36.9459 -59.0245
L37.3242 -59.1597
L37.706 -59.292
L38.091 -59.4213
L38.4788 -59.5475
L38.8694 -59.6707
L39.2623 -59.7909
L39.6572 -59.908
L40.0537 -60.0221
L40.4514 -60.1332
L40.8498 -60.2415
L41.2483 -60.3471
L41.6464 -60.4501
L42.0434 -60.5508
L42.4386 -60.6495
L42.8312 -60.7465
L43.2204 -60.8422
L43.6053 -60.9369
L43.9848 -61.0314
L44.358 -61.126
L44.7236 -61.2216
L45.0806 -61.3188
L45.4277 -61.4183
L45.7636 -61.5212
L46.087 -61.6281
L46.3966 -61.74
L46.6911 -61.8578
L46.9693 -61.9823
L46.8003 -62.1145
L46.3384 -62.3743
L45.8733 -62.5588
L45.4052 -62.7351
L44.9342 -62.9034
L44.4605 -63.0634
L43.9843 -63.2152
L43.5056 -63.3587
L43.0246 -63.4939
L42.5415 -63.6207
L42.0564 -63.7391
L41.5694 -63.8491
L41.0808 -63.9505
L40.5906 -64.0435
L40.099 -64.1279
L39.6061 -64.2037
L39.1122 -64.2709
L38.6173 -64.3296
L38.1216 -64.3796
L37.6253 -64.4209
L37.1284 -64.4536
L36.6313 -64.4777
L36.1339 -64.493
L35.6365 -64.4997
L35.1392 -64.4977
L34.6422 -64.487
L34.1455 -64.4676
L33.6495 -64.4396
L33.1541 -64.4029
L32.6597 -64.3576
L32.1662 -64.3036
L31.6739 -64.241
L31.1829 -64.1698
L30.6934 -64.09
L30.2056 -64.0016
L29.7194 -63.9047
L29.2352 -63.7994
L28.7531 -63.6855
L28.2731 -63.5632
L27.7955 -63.4326
L27.3205 -63.2935
L26.848 -63.1462
L26.3784 -62.9906
L25.9116 -62.8267
L25.448 -62.6547
L24.9875 -62.4746
L24.5305 -62.2864
L24.0769 -62.0902
L23.6269 -61.8861
L23.1807 -61.674
L22.7384 -61.4542
L22.3002 -61.2266
L21.8661 -60.9913
L21.4363 -60.7484
L21.011 -60.498
L20.5903 -60.2401
L20.1742 -59.9748
L19.7629 -59.7022
L19.3566 -59.4224
L18.9554 -59.1354
L18.5594 -58.8414
L18.1686 -58.5405
L17.7833 -58.2327
L17.4036 -57.9181
L17.0295 -57.5968
L16.6612 -57.269
L16.2988 -56.9347
L15.9424 -56.594
L15.5921 -56.247
L15.248 -55.8939
L14.9102 -55.5347
L14.5789 -55.1695
L14.254 -54.7985
L13.9358 -54.4218
L13.6244 -54.0395
L13.3197 -53.6517
L13.022 -53.2585
L12.7312 -52.86
L12.4476 -52.4564
L12.1711 -52.0478
L11.9018 -51.6343
L11.64 -51.2161
L11.3855 -50.7932
L11.1385 -50.3658
L10.8991 -49.934
L10.6674 -49.498
L10.4433 -49.0579
L10.2271 -48.6138
L10.0187 -48.1658
L9.81822 -47.7142
L9.62571 -47.259
L9.44124 -46.8003
L9.26485 -46.3384
L9.09661 -45.8733
L8.93656 -45.4052
L8.78476 -44.9342
L8.64125 -44.4605
L8.50607 -43.9843
L8.37927 -43.5056
L8.26088 -43.0246
L8.15094 -42.5415
L8.04948 -42.0564
L7.95654 -41.5694
L7.87214 -41.0808
L7.79631 -40.5906
L7.72906 -40.099
L7.67043 -39.6061
L7.62043 -39.1122
L7.57908 -38.6173
L7.54638 -38.1216
L7.52235 -37.6253
L7.50699 -37.1284
L7.50031 -36.6313
L7.50232 -36.1339
L7.513 -35.6365
L7.53236 -35.1392
L7.5604 -34.6422
L7.59709 -34.1455
L7.64244 -33.6495
L7.69643 -33.1541
L7.75904 -32.6597
L7.83025 -32.1662
L7.91004 -31.6739
L7.99839 -31.1829
L8.09526 -30.6934
L8.20064 -30.2056
L8.31448 -29.7194
L8.43676 -29.2352
L8.56744 -28.7531
L8.70647 -28.2731
L8.85381 -27.7955
L9.00943 -27.3205
L9.17326 -26.848
L9.34527 -26.3784
L9.52539 -25.9116
L9.71358 -25.448
L9.90978 -24.9875
L10.1139 -24.5305
L10.326 -24.0769
L10.5458 -23.6269
L10.7734 -23.1807
L11.0087 -22.7384
L11.2516 -22.3002
L11.502 -21.8661
z
" id="C0_2_e73ff77690"/>
    </defs>
    <g clip-path="url(#p1bffca34e9)">
     <use style="fill:#ff0000;stroke:#000000;stroke-width:2.0;" x="0.0" xlink:href="#C0_0_a811fe30f3" y="72.0"/>
    </g>
    <g clip-path="url(#p1bffca34e9)">
     <use style="fill:#ffffff;stroke:#000000;stroke-width:2.0;" x="0.0" xlink:href="#C0_1_7a0c04108d" y="72.0"/>
    </g>
    <g clip-path="url(#p1bffca34e9)">
     <use style="fill:#ffffff;stroke:#000000;stroke-width:2.0;" x="0.0" xlink:href="#C0_2_e73ff77690" y="72.0"/>
    </g>
   </g>
  </g>
 </g>
 <defs>
  <clipPath id="p1bffca34e9">
   <rect height="72.0" width="72.0" x="0.0" y="0.0"/>
  </clipPath>
 </defs>
</svg>
