<?xml version="1.0" encoding="utf-8" standalone="no"?>
<!DOCTYPE svg PUBLIC "-//W3C//DTD SVG 1.1//EN"
  "http://www.w3.org/Graphics/SVG/1.1/DTD/svg11.dtd">
<!-- Created with matplotlib (http://matplotlib.org/) -->
<svg height="72pt" version="1.1" viewBox="0 0 72 72" width="72pt" xmlns="http://www.w3.org/2000/svg" xmlns:xlink="http://www.w3.org/1999/xlink">
 <defs>
  <style type="text/css">
*{stroke-linecap:butt;stroke-linejoin:round;}
  </style>
 </defs>
 <g id="figure_1">
  <g id="patch_1">
   <path d="
M0 72
L72 72
L72 0
L0 0
z
" style="fill:none;"/>
  </g>
  <g id="axes_1">
   <g id="PatchCollection_1">
    <defs>
     <path d="
M36 -7.5
C43.5583 -7.5 50.808 -10.5029 56.1525 -15.8475
C61.4971 -21.192 64.5 -28.4417 64.5 -36
C64.5 -43.5583 61.4971 -50.808 56.1525 -56.1525
C50.808 -61.4971 43.5583 -64.5 36 -64.5
C28.4417 -64.5 21.192 -61.4971 15.8475 -56.1525
C10.5029 -50.808 7.5 -43.5583 7.5 -36
C7.5 -28.4417 10.5029 -21.192 15.8475 -15.8475
C21.192 -10.5029 28.4417 -7.5 36 -7.5
z
" id="C0_0_a811fe30f3"/>
     <path d="
M54.4784 -14.531
L54.4615 -14.8215
L54.4448 -15.1138
L54.4278 -15.4075
L54.4104 -15.7024
L54.3925 -15.9983
L54.3738 -16.2948
L54.3542 -16.5917
L54.3336 -16.8889
L54.3118 -17.1862
L54.2889 -17.4833
L54.2646 -17.7801
L54.239 -18.0765
L54.2121 -18.3724
L54.1837 -18.6676
L54.1538 -18.962
L54.1225 -19.2555
L54.0897 -19.5481
L54.0554 -19.8397
L54.0196 -20.1301
L53.9823 -20.4194
L53.9435 -20.7076
L53.9033 -20.9944
L53.8616 -21.28
L53.8184 -21.5643
L53.7738 -21.8473
L53.7278 -22.129
L53.6803 -22.4092
L53.6315 -22.6882
L53.5814 -22.9658
L53.5299 -23.242
L53.477 -23.5168
L53.4229 -23.7904
L53.3675 -24.0626
L53.3108 -24.3335
L53.2528 -24.6031
L53.1936 -24.8714
L53.1333 -25.1385
L53.0717 -25.4043
L53.0089 -25.669
L52.9449 -25.9325
L52.8798 -26.1948
L52.8136 -26.4561
L52.7462 -26.7162
L52.6777 -26.9754
L52.608 -27.2335
L52.5373 -27.4907
L52.4654 -27.7469
L52.3925 -28.0023
L52.3184 -28.2568
L52.2433 -28.5105
L52.1671 -28.7634
L52.0898 -29.0156
L52.0114 -29.2671
L51.9319 -29.518
L51.8513 -29.7683
L51.7696 -30.018
L51.6868 -30.2673
L51.6029 -30.516
L51.518 -30.7643
L51.4318 -31.0123
L51.3446 -31.2599
L51.2562 -31.5072
L51.1667 -31.7543
L50.9842 -32.0011
L50.8912 -32.2478
L50.797 -32.4944
L50.7016 -32.7409
L50.6049 -32.9874
L50.507 -33.2339
L50.4079 -33.4805
L50.3075 -33.7271
L50.2058 -33.974
L50.1028 -34.221
L49.9984 -34.4682
L49.8927 -34.7158
L49.7856 -34.9636
L49.6771 -35.2118
L49.5672 -35.4605
L49.4559 -35.7096
L49.343 -35.9591
L49.2287 -36.2092
L49.1129 -36.4599
L48.9955 -36.7112
L48.8766 -36.9632
L48.7561 -37.2158
L48.6339 -37.4692
L48.5101 -37.7234
L48.3846 -37.9784
L48.2574 -38.2342
L48.1285 -38.4909
L47.9979 -38.7485
L47.8655 -39.0071
L47.7312 -39.2666
L47.5952 -39.5272
L47.4573 -39.7888
L47.3175 -40.0515
L47.1758 -40.3153
L47.0322 -40.5802
L46.8867 -40.8463
L46.7392 -41.1135
L46.5897 -41.382
L46.4383 -41.6516
L46.2848 -41.9225
L46.1294 -42.1947
L45.9719 -42.4681
L45.8125 -42.7427
L45.651 -43.0187
L45.4876 -43.2959
L45.3221 -43.5744
L45.1547 -43.8542
L44.9854 -44.1353
L44.8141 -44.4176
L44.641 -44.7012
L44.466 -44.986
L44.2893 -45.2721
L44.1108 -45.5594
L43.9307 -45.8478
L43.7491 -46.1374
L43.566 -46.4281
L43.3816 -46.7199
L43.1959 -47.0127
L43.0092 -47.3065
L42.8215 -47.6012
L42.6332 -47.8969
L42.4442 -48.1933
L42.255 -48.4905
L42.0656 -48.7885
L41.8765 -49.087
L41.6878 -49.3862
L41.4999 -49.6858
L41.3131 -49.9858
L41.1277 -50.2862
L40.9443 -50.5868
L40.7633 -50.8876
L40.585 -51.1885
L40.41 -51.4893
L40.2388 -51.7901
L40.072 -52.0907
L39.9103 -52.3911
L39.7541 -52.6911
L39.6041 -52.9906
L39.4612 -53.2897
L39.3258 -53.5881
L39.1987 -53.8858
L39.0807 -54.1827
L38.9724 -54.4787
L38.8745 -54.7737
L38.7878 -55.0676
L38.7128 -55.3604
L38.6501 -55.6518
L38.6004 -55.9417
L38.5641 -56.2301
L38.5416 -56.5168
L38.5332 -56.8016
L38.5393 -57.0844
L38.56 -57.3649
L38.5955 -57.643
L38.6456 -57.9185
L38.7104 -58.1912
L38.7897 -58.4608
L38.8832 -58.7271
L38.9907 -58.9899
L39.1118 -59.249
L39.2462 -59.504
L39.3933 -59.7547
L39.5528 -60.001
L39.7241 -60.2425
L39.9068 -60.479
L40.1002 -60.7104
L40.304 -60.9365
L40.5175 -61.1569
L40.7404 -61.3716
L40.972 -61.5803
L41.2119 -61.7829
L41.4596 -61.9793
L41.7147 -62.1693
L41.9767 -62.3528
L42.2452 -62.5297
L42.5198 -62.6999
L42.8002 -62.8633
L43.0859 -63.0198
L43.3766 -63.1693
L43.672 -63.3119
L44.15 -63.4474
L44.6254 -63.3098
L45.0981 -63.1635
L45.5681 -63.0088
L46.0352 -62.8459
L46.4992 -62.6748
L46.96 -62.4956
L47.4175 -62.3083
L47.8715 -62.1131
L48.3218 -61.9098
L48.7685 -61.6987
L49.2112 -61.4797
L49.6499 -61.253
L50.0845 -61.0186
L50.5147 -60.7766
L50.9406 -60.527
L51.3619 -60.2699
L51.7785 -60.0055
L52.1903 -59.7337
L52.5972 -59.4547
L52.999 -59.1686
L53.3956 -58.8754
L53.787 -58.5753
L54.1729 -58.2682
L54.5533 -57.9544
L54.928 -57.6339
L55.297 -57.3068
L55.6601 -56.9732
L56.0172 -56.6332
L56.3682 -56.287
L56.713 -55.9345
L57.0515 -55.576
L57.3836 -55.2116
L57.7092 -54.8412
L58.0281 -54.4652
L58.3404 -54.0835
L58.6458 -53.6963
L58.9443 -53.3037
L59.2359 -52.9058
L59.5204 -52.5028
L59.7977 -52.0948
L60.0677 -51.6819
L60.3305 -51.2641
L60.5858 -50.8418
L60.8336 -50.4149
L61.0739 -49.9836
L61.3065 -49.5481
L61.5314 -49.1084
L61.7486 -48.6648
L61.9579 -48.2172
L62.1593 -47.766
L62.3527 -47.3112
L62.5381 -46.8529
L62.7154 -46.3914
L62.8846 -45.9266
L63.0456 -45.4589
L63.1983 -44.9882
L63.3428 -44.5148
L63.4789 -44.0389
L63.6067 -43.5604
L63.726 -43.0797
L63.8369 -42.5968
L63.9393 -42.1119
L64.0333 -41.6252
L64.1186 -41.1367
L64.1955 -40.6467
L64.2637 -40.1553
L64.3233 -39.6625
L64.3743 -39.1687
L64.4166 -38.6739
L64.4503 -38.1783
L64.4753 -37.682
L64.4917 -37.1853
L64.4994 -36.6881
L64.4984 -36.1908
L64.4887 -35.6934
L64.4703 -35.196
L64.4432 -34.699
L64.4075 -34.2023
L64.3632 -33.7062
L64.3102 -33.2107
L64.2486 -32.7161
L64.1783 -32.2226
L64.0995 -31.7301
L64.0121 -31.239
L63.9162 -30.7493
L63.8118 -30.2612
L63.699 -29.7749
L63.5776 -29.2905
L63.4479 -28.8081
L63.3098 -28.3279
L63.1635 -27.85
L63.0088 -27.3746
L62.8459 -26.9019
L62.6748 -26.4319
L62.4956 -25.9648
L62.3083 -25.5008
L62.1131 -25.04
L61.9098 -24.5825
L61.6987 -24.1285
L61.4797 -23.6782
L61.253 -23.2315
L61.0186 -22.7888
L60.7766 -22.3501
L60.527 -21.9155
L60.2699 -21.4853
L60.0055 -21.0594
L59.7337 -20.6381
L59.4547 -20.2215
L59.1686 -19.8097
L58.8754 -19.4028
L58.5753 -19.001
L58.2682 -18.6044
L57.9544 -18.213
L57.6339 -17.8271
L57.3068 -17.4467
L56.9732 -17.072
L56.6332 -16.703
L56.287 -16.3399
L55.9345 -15.9828
L55.576 -15.6318
L55.2116 -15.287
z
" id="C0_1_a33a9c8a4c"/>
     <path d="
M28.1425 -8.81942
L27.9592 -9.08857
L27.7779 -9.35886
L27.5989 -9.63016
L27.4223 -9.90235
L27.2482 -10.1753
L27.0769 -10.4489
L26.9082 -10.7231
L26.7424 -10.9977
L26.5795 -11.2727
L26.4196 -11.5479
L26.2626 -11.8234
L26.1086 -12.0989
L25.9576 -12.3744
L25.8097 -12.65
L25.6647 -12.9254
L25.5228 -13.2007
L25.3838 -13.4758
L25.2478 -13.7506
L25.1148 -14.0251
L24.9846 -14.2994
L24.8574 -14.5733
L24.733 -14.8468
L24.6114 -15.1199
L24.4925 -15.3926
L24.3764 -15.6649
L24.263 -15.9367
L24.1522 -16.2081
L24.044 -16.479
L23.9384 -16.7495
L23.8352 -17.0195
L23.7346 -17.2891
L23.6363 -17.5583
L23.5405 -17.827
L23.4469 -18.0953
L23.3557 -18.3632
L23.2667 -18.6308
L23.1799 -18.898
L23.0952 -19.1648
L23.0127 -19.4313
L22.9323 -19.6976
L22.8539 -19.9635
L22.7776 -20.2293
L22.7032 -20.4948
L22.6308 -20.7602
L22.5602 -21.0254
L22.4916 -21.2904
L22.4248 -21.5555
L22.3598 -21.8204
L22.2966 -22.0854
L22.2351 -22.3504
L22.1754 -22.6155
L22.1175 -22.8806
L22.0612 -23.1459
L22.0065 -23.4115
L21.9535 -23.6772
L21.9022 -23.9432
L21.8524 -24.2095
L21.8043 -24.4762
L21.7577 -24.7433
L21.7127 -25.0108
L21.6692 -25.2788
L21.6272 -25.5474
L21.5868 -25.8165
L21.5479 -26.0863
L21.5105 -26.3567
L21.4746 -26.6279
L21.4402 -26.8998
L21.4073 -27.1726
L21.3758 -27.4462
L21.3459 -27.7207
L21.3174 -27.9961
L21.2904 -28.2726
L21.2649 -28.5502
L21.2408 -28.8288
L21.2183 -29.1086
L21.1972 -29.3896
L21.1776 -29.6718
L21.1595 -29.9553
L21.1429 -30.2402
L21.1279 -30.5264
L21.1143 -30.8141
L21.1023 -31.1033
L21.0919 -31.394
L21.0829 -31.6862
L21.0756 -31.9801
L21.0698 -32.2756
L21.0657 -32.5729
L21.0631 -32.8718
L21.0622 -33.1726
L21.0629 -33.4752
L21.0652 -33.7796
L21.0692 -34.0859
L21.075 -34.3942
L21.0824 -34.7044
L21.0915 -35.0166
L21.1024 -35.3307
L21.115 -35.647
L21.1294 -35.9653
L21.1456 -36.2856
L21.1636 -36.6081
L21.1834 -36.9326
L21.2049 -37.2593
L21.2284 -37.588
L21.2536 -37.9189
L21.2807 -38.2518
L21.3096 -38.5869
L21.3403 -38.924
L21.3729 -39.2631
L21.4072 -39.6043
L21.4434 -39.9474
L21.4813 -40.2925
L21.5209 -40.6394
L21.5622 -40.9882
L21.6052 -41.3387
L21.6497 -41.6909
L21.6958 -42.0447
L21.7433 -42.3999
L21.7922 -42.7566
L21.8423 -43.1145
L21.8935 -43.4735
L21.9457 -43.8336
L21.9988 -44.1944
L22.0525 -44.556
L22.1067 -44.9181
L22.1611 -45.2804
L22.2156 -45.6429
L22.2698 -46.0053
L22.3234 -46.3673
L22.3762 -46.7288
L22.4278 -47.0894
L22.4778 -47.4488
L22.5257 -47.8069
L22.5713 -48.1633
L22.6139 -48.5176
L22.6531 -48.8696
L22.6884 -49.219
L22.7191 -49.5653
L22.7448 -49.9082
L22.7649 -50.2474
L22.7786 -50.5825
L22.7854 -50.9132
L22.7848 -51.239
L22.776 -51.5596
L22.7585 -51.8747
L22.7318 -52.1838
L22.6953 -52.4867
L22.6485 -52.7831
L22.5911 -53.0725
L22.5227 -53.3548
L22.4429 -53.6296
L22.3517 -53.8967
L22.2488 -54.1559
L22.1343 -54.4069
L22.0082 -54.6497
L21.8706 -54.884
L21.7218 -55.1098
L21.5619 -55.3269
L21.3913 -55.5352
L21.2103 -55.7348
L21.0195 -55.9254
L20.8192 -56.1072
L20.6099 -56.2801
L20.3921 -56.4441
L20.1664 -56.5993
L19.9331 -56.7456
L19.6929 -56.883
L19.4462 -57.0117
L19.1935 -57.1317
L18.9354 -57.243
L18.6722 -57.3456
L18.4044 -57.4397
L18.1324 -57.5253
L17.8567 -57.6025
L17.1648 -57.6713
L16.7943 -57.3889
L16.4298 -57.0569
L16.0712 -56.7185
L15.7186 -56.3738
L15.3723 -56.0229
L15.0322 -55.6659
L14.6985 -55.3029
L14.3713 -54.934
L14.0507 -54.5594
L13.7368 -54.1791
L13.4296 -53.7932
L13.1294 -53.402
L12.8361 -53.0054
L12.5498 -52.6037
L12.2707 -52.1969
L11.9988 -51.7851
L11.7343 -51.3686
L11.4771 -50.9474
L11.2274 -50.5216
L10.9852 -50.0914
L10.7507 -49.6569
L10.5239 -49.2183
L10.3048 -48.7756
L10.0935 -48.329
L9.89015 -47.8787
L9.69474 -47.4248
L9.50734 -46.9674
L9.32801 -46.5066
L9.1568 -46.0426
L8.99377 -45.5756
L8.83897 -45.1057
L8.69244 -44.633
L8.55423 -44.1576
L8.42438 -43.6798
L8.30292 -43.1997
L8.18991 -42.7173
L8.08537 -42.2329
L7.98933 -41.7466
L7.90182 -41.2585
L7.82287 -40.7689
L7.7525 -40.2778
L7.69074 -39.7854
L7.6376 -39.2918
L7.59311 -38.7972
L7.55726 -38.3018
L7.53008 -37.8057
L7.51157 -37.309
L7.50174 -36.812
L7.50059 -36.3146
L7.50812 -35.8172
L7.52433 -35.3199
L7.54921 -34.8227
L7.58276 -34.3259
L7.62496 -33.8297
L7.67581 -33.334
L7.73529 -32.8392
L7.80338 -32.3454
L7.88005 -31.8527
L7.96529 -31.3612
L8.05907 -30.8711
L8.16137 -30.3826
L8.27214 -29.8959
L8.39136 -29.4109
L8.51898 -28.928
L8.65498 -28.4473
L8.79931 -27.9688
L8.95193 -27.4928
L9.11278 -27.0194
L9.28182 -26.5487
L9.459 -26.0809
L9.64427 -25.6161
L9.83756 -25.1545
L10.0388 -24.6962
L10.248 -24.2413
L10.465 -23.79
L10.6898 -23.3424
L10.9223 -22.8987
L11.1625 -22.459
L11.4102 -22.0234
L11.6654 -21.592
L11.928 -21.1651
L12.1979 -20.7426
L12.4751 -20.3248
L12.7595 -19.9118
L13.0509 -19.5037
L13.3493 -19.1006
L13.6547 -18.7027
L13.9668 -18.31
L14.2857 -17.9227
L14.6111 -17.5409
L14.9431 -17.1648
L15.2815 -16.7943
L15.6262 -16.4298
L15.9771 -16.0712
L16.3341 -15.7186
L16.6971 -15.3723
L17.066 -15.0322
L17.4406 -14.6985
L17.8209 -14.3713
L18.2068 -14.0507
L18.598 -13.7368
L18.9946 -13.4296
L19.3963 -13.1294
L19.8031 -12.8361
L20.2149 -12.5498
L20.6314 -12.2707
L21.0526 -11.9988
L21.4784 -11.7343
L21.9086 -11.4771
L22.3431 -11.2274
L22.7817 -10.9852
L23.2244 -10.7507
L23.671 -10.5239
L24.1213 -10.3048
L24.5752 -10.0935
L25.0326 -9.89015
L25.4934 -9.69474
L25.9574 -9.50734
L26.4244 -9.32801
L26.8943 -9.1568
L27.367 -8.99377
z
" id="C0_2_57ac2c8fff"/>
    </defs>
    <g clip-path="url(#p1bffca34e9)">
     <use style="fill:#ff0000;stroke:#000000;stroke-width:2.0;" x="0.0" xlink:href="#C0_0_a811fe30f3" y="72.0"/>
    </g>
    <g clip-path="url(#p1bffca34e9)">
     <use style="fill:#ffffff;stroke:#000000;stroke-width:2.0;" x="0.0" xlink:href="#C0_1_a33a9c8a4c" y="72.0"/>
    </g>
    <g clip-path="url(#p1bffca34e9)">
     <use style="fill:#ffffff;stroke:#000000;stroke-width:2.0;" x="0.0" xlink:href="#C0_2_57ac2c8fff" y="72.0"/>
    </g>
   </g>
  </g>
 </g>
 <defs>
  <clipPath id="p1bffca34e9">
   <rect height="72.0" width="72.0" x="0.0" y="0.0"/>
  </clipPath>
 </defs>
</svg>
