<?xml version="1.0" encoding="utf-8" standalone="no"?>
<!DOCTYPE svg PUBLIC "-//W3C//DTD SVG 1.1//EN"
  "http://www.w3.org/Graphics/SVG/1.1/DTD/svg11.dtd">
<!-- Created with matplotlib (http://matplotlib.org/) -->
<svg height="72pt" version="1.1" viewBox="0 0 72 72" width="72pt" xmlns="http://www.w3.org/2000/svg" xmlns:xlink="http://www.w3.org/1999/xlink">
 <defs>
  <style type="text/css">
*{stroke-linecap:butt;stroke-linejoin:round;}
  </style>
 </defs>
 <g id="figure_1">
  <g id="patch_1">
   <path d="
M0 72
L72 72
L72 0
L0 0
z
" style="fill:none;"/>
  </g>
  <g id="axes_1">
   <g id="PatchCollection_1">
    <defs>
     <path d="
M36 -7.5
C43.5583 -7.5 50.808 -10.5029 56.1525 -15.8475
C61.4971 -21.192 64.5 -28.4417 64.5 -36
C64.5 -43.5583 61.4971 -50.808 56.1525 -56.1525
C50.808 -61.4971 43.5583 -64.5 36 -64.5
C28.4417 -64.5 21.192 -61.4971 15.8475 -56.1525
C10.5029 -50.808 7.5 -43.5583 7.5 -36
C7.5 -28.4417 10.5029 -21.192 15.8475 -15.8475
C21.192 -10.5029 28.4417 -7.5 36 -7.5
z
" id="C0_0_a811fe30f3"/>
     <path d="
M37.7262 -40.8408
L37.4785 -40.9122
L37.2304 -40.9826
L36.982 -41.0521
L36.7331 -41.1207
L36.4838 -41.1884
L36.2339 -41.2552
L35.9835 -41.3212
L35.7324 -41.3862
L35.4807 -41.4504
L35.2282 -41.5137
L34.975 -41.5761
L34.721 -41.6377
L34.4661 -41.6984
L34.2103 -41.7582
L33.9535 -41.8172
L33.6957 -41.8753
L33.4369 -41.9325
L33.1769 -41.9888
L32.9158 -42.0442
L32.6535 -42.0987
L32.3899 -42.1523
L32.125 -42.205
L31.8588 -42.2567
L31.5912 -42.3074
L31.3221 -42.3572
L31.0516 -42.4059
L30.7795 -42.4536
L30.5059 -42.5003
L30.2306 -42.5458
L29.9537 -42.5903
L29.6751 -42.6335
L29.3948 -42.6756
L29.1127 -42.7165
L28.8288 -42.7561
L28.5431 -42.7944
L28.2555 -42.8313
L27.966 -42.8667
L27.6747 -42.9007
L27.3813 -42.9332
L27.0861 -42.9641
L26.7889 -42.9933
L26.4896 -43.0207
L26.1885 -43.0463
L25.8853 -43.07
L25.5801 -43.0917
L25.273 -43.1113
L24.9639 -43.1287
L24.6529 -43.1439
L24.34 -43.1566
L24.0252 -43.1667
L23.7085 -43.1742
L23.3901 -43.1789
L23.0699 -43.1807
L22.7481 -43.1793
L22.4247 -43.1747
L22.0998 -43.1666
L21.7736 -43.1549
L21.446 -43.1394
L21.1173 -43.1198
L20.7876 -43.096
L20.457 -43.0677
L20.1258 -43.0347
L19.794 -42.9966
L19.462 -42.9533
L19.1298 -42.9044
L18.7979 -42.8496
L18.4664 -42.7885
L18.1356 -42.7209
L17.8059 -42.6462
L17.4775 -42.5643
L17.1509 -42.4745
L16.8264 -42.3766
L16.5044 -42.27
L16.1854 -42.1542
L15.8698 -42.0288
L15.5583 -41.8933
L15.2512 -41.7471
L14.9491 -41.5898
L14.6527 -41.4207
L14.3626 -41.2394
L14.0793 -41.0454
L13.8036 -40.8382
L13.5361 -40.6173
L13.2776 -40.3824
L13.0286 -40.1331
L12.7898 -39.8692
L12.562 -39.5905
L12.3457 -39.297
L12.1415 -38.9888
L11.95 -38.6659
L11.7717 -38.3287
L11.607 -37.9776
L11.4562 -37.6132
L11.3197 -37.236
L11.1977 -36.8467
L11.0904 -36.4463
L10.9978 -36.0356
L10.92 -35.6155
L10.8569 -35.1869
L10.8084 -34.751
L10.7744 -34.3086
L10.7546 -33.8607
L10.7488 -33.4084
L10.7568 -32.9526
L10.7783 -32.4941
L10.8128 -32.0339
L10.86 -31.5728
L10.9197 -31.1116
L10.9913 -30.6509
L11.0744 -30.1915
L11.1688 -29.734
L11.274 -29.2791
L11.3895 -28.8271
L11.515 -28.3787
L11.65 -27.9342
L11.7942 -27.4941
L11.9471 -27.0588
L12.1084 -26.6285
L12.2777 -26.2035
L12.4546 -25.7842
L12.6387 -25.3706
L12.8298 -24.9631
L13.0273 -24.5618
L13.2311 -24.1667
L13.4408 -23.7781
L13.656 -23.396
L13.8766 -23.0205
L14.1021 -22.6517
L14.3323 -22.2895
L14.567 -21.9341
L14.8059 -21.5853
L15.0487 -21.2433
L15.2953 -20.9079
L15.5454 -20.5792
L15.7989 -20.2572
L16.0554 -19.9417
L16.3149 -19.6327
L16.5771 -19.3302
L16.8419 -19.0341
L17.1092 -18.7443
L17.3788 -18.4608
L17.6506 -18.1835
L17.9244 -17.9122
L18.2001 -17.647
L18.4776 -17.3878
L18.7569 -17.1344
L19.0378 -16.8867
L19.3202 -16.6448
L19.6041 -16.4084
L19.8893 -16.1775
L20.1759 -15.9521
L20.4637 -15.732
L20.7528 -15.5172
L21.043 -15.3076
L21.3343 -15.103
L21.6266 -14.9035
L21.92 -14.7089
L22.2145 -14.5192
L22.5099 -14.3343
L22.8063 -14.1541
L23.1036 -13.9786
L23.4019 -13.8076
L23.701 -13.6412
L24.0012 -13.4793
L24.3022 -13.3217
L24.6041 -13.1685
L24.907 -13.0197
L25.2108 -12.875
L25.5155 -12.7346
L25.8212 -12.5984
L26.1278 -12.4662
L26.4354 -12.3382
L26.744 -12.2142
L27.0536 -12.0942
L27.3642 -11.9782
L27.6759 -11.8661
L27.9887 -11.758
L28.3025 -11.6539
L28.6175 -11.5536
L28.9336 -11.4572
L29.2509 -11.3647
L29.5695 -11.2761
L29.8892 -11.1914
L30.2103 -11.1105
L30.5326 -11.0335
L30.8563 -10.9604
L31.1814 -10.8913
L31.5078 -10.826
L31.8357 -10.7646
L32.1651 -10.7072
L32.496 -10.6538
L32.8284 -10.6044
L33.1624 -10.559
L33.498 -10.5177
L33.8353 -10.4805
L34.1742 -10.4475
L34.5148 -10.4187
L34.8571 -10.3942
L35.2012 -10.374
L35.5471 -10.3581
L35.8948 -10.3467
L36.2443 -10.3398
L36.5957 -10.3376
L36.949 -10.3399
L37.3041 -10.347
L37.6612 -10.359
L38.0202 -10.3758
L38.3811 -10.3977
L38.744 -10.4247
L39.1087 -10.4569
L39.4754 -10.4944
L39.8441 -10.5374
L40.2146 -10.5859
L40.587 -10.6401
L40.9613 -10.7
L41.3374 -10.7659
L41.7153 -10.8378
L42.0949 -10.9159
L42.4762 -11.0004
L42.8591 -11.0912
L43.2436 -11.1887
L43.6296 -11.2929
L44.017 -11.404
L44.4056 -11.5222
L44.7954 -11.6475
L45.1862 -11.7801
L45.5779 -11.9203
L45.9704 -12.068
L46.3634 -12.2236
L46.7568 -12.3871
L47.1504 -12.5586
L47.544 -12.7383
L47.9373 -12.9264
L48.3301 -13.1229
L48.7221 -13.328
L49.113 -13.5417
L49.5024 -13.7642
L49.8902 -13.9956
L50.2758 -14.2359
L50.659 -14.4852
L51.0392 -14.7435
L51.4161 -15.0108
L51.7892 -15.2872
L52.1581 -15.5725
L52.5221 -15.8668
L52.8808 -16.1698
L53.2337 -16.4816
L53.58 -16.802
L53.9192 -17.1307
L54.2507 -17.4675
L54.5738 -17.8122
L54.8877 -18.1644
L55.1919 -18.5238
L55.4855 -18.8899
L55.7678 -19.2622
L56.038 -19.6403
L56.2955 -20.0236
L56.5394 -20.4115
L56.769 -20.8033
L56.9835 -21.1983
L57.1823 -21.5957
L57.3646 -21.9948
L57.5299 -22.3948
L57.6776 -22.7948
L57.8071 -23.194
L57.9182 -23.5917
L58.0105 -23.987
L58.0838 -24.3792
L58.1379 -24.7675
L58.173 -25.1513
L58.1892 -25.53
L58.1868 -25.9031
L58.166 -26.27
L58.1275 -26.6305
L58.0717 -26.9843
L57.9993 -27.331
L57.9111 -27.6707
L57.8077 -28.0031
L57.6899 -28.3282
L57.5585 -28.6461
L57.4145 -28.9567
L57.2585 -29.2603
L57.0913 -29.5569
L56.9138 -29.8466
L56.7268 -30.1295
L56.5308 -30.4059
L56.3267 -30.6759
L56.1151 -30.9397
L55.8966 -31.1974
L55.6718 -31.4492
L55.4414 -31.6953
L55.2057 -31.9358
L54.9654 -32.1709
L54.7209 -32.4008
L54.4725 -32.6255
L54.2208 -32.8453
L53.9661 -33.0603
L53.7087 -33.2706
L53.4489 -33.4763
L53.1872 -33.6776
L52.9237 -33.8747
L52.6587 -34.0675
L52.3924 -34.2563
L52.1251 -34.4411
L51.857 -34.6221
L51.5883 -34.7994
L51.319 -34.973
L51.0494 -35.1431
L50.7797 -35.3097
L50.5099 -35.473
L50.2402 -35.633
L49.9706 -35.7899
L49.7013 -35.9437
L49.4324 -36.0945
L49.1639 -36.2424
L48.8959 -36.3874
L48.6284 -36.5297
L48.3616 -36.6693
L48.0954 -36.8062
L47.8299 -36.9407
L47.5651 -37.0726
L47.301 -37.2022
L47.0378 -37.3294
L46.7753 -37.4543
L46.5136 -37.577
L46.2527 -37.6976
L45.9926 -37.8161
L45.7333 -37.9325
L45.4748 -38.0469
L45.2171 -38.1594
L44.9602 -38.27
L44.704 -38.3788
L44.4486 -38.4858
L44.1939 -38.5911
L43.94 -38.6947
L43.6867 -38.7966
L43.434 -38.8969
L43.182 -38.9957
L42.9306 -39.0929
L42.6798 -39.1887
L42.4295 -39.283
L42.1797 -39.3759
L41.9304 -39.4674
L41.6815 -39.5576
L41.433 -39.6464
L41.1849 -39.734
L40.9371 -39.8204
L40.6896 -39.9055
L40.4423 -39.9894
L40.1952 -40.0722
L39.9483 -40.1538
L39.7015 -40.2343
L39.4548 -40.3138
L39.2081 -40.3921
L38.9614 -40.4694
L38.7147 -40.5457
L38.4678 -40.6209
L38.2208 -40.6952
z
" id="C0_1_fb275074ea"/>
    </defs>
    <g clip-path="url(#p1bffca34e9)">
     <use style="fill:#ffffff;stroke:#000000;stroke-width:2.0;" x="0.0" xlink:href="#C0_0_a811fe30f3" y="72.0"/>
    </g>
    <g clip-path="url(#p1bffca34e9)">
     <use style="fill:#ff0000;stroke:#000000;stroke-width:2.0;" x="0.0" xlink:href="#C0_1_fb275074ea" y="72.0"/>
    </g>
   </g>
  </g>
 </g>
 <defs>
  <clipPath id="p1bffca34e9">
   <rect height="72.0" width="72.0" x="0.0" y="0.0"/>
  </clipPath>
 </defs>
</svg>
