<?xml version="1.0" encoding="utf-8" standalone="no"?>
<!DOCTYPE svg PUBLIC "-//W3C//DTD SVG 1.1//EN"
  "http://www.w3.org/Graphics/SVG/1.1/DTD/svg11.dtd">
<!-- Created with matplotlib (http://matplotlib.org/) -->
<svg height="72pt" version="1.1" viewBox="0 0 72 72" width="72pt" xmlns="http://www.w3.org/2000/svg" xmlns:xlink="http://www.w3.org/1999/xlink">
 <defs>
  <style type="text/css">
*{stroke-linecap:butt;stroke-linejoin:round;}
  </style>
 </defs>
 <g id="figure_1">
  <g id="patch_1">
   <path d="
M0 72
L72 72
L72 0
L0 0
z
" style="fill:none;"/>
  </g>
  <g id="axes_1">
   <g id="PatchCollection_1">
    <defs>
     <path d="
M36 -7.5
C43.5583 -7.5 50.808 -10.5029 56.1525 -15.8475
C61.4971 -21.192 64.5 -28.4417 64.5 -36
C64.5 -43.5583 61.4971 -50.808 56.1525 -56.1525
C50.808 -61.4971 43.5583 -64.5 36 -64.5
C28.4417 -64.5 21.192 -61.4971 15.8475 -56.1525
C10.5029 -50.808 7.5 -43.5583 7.5 -36
C7.5 -28.4417 10.5029 -21.192 15.8475 -15.8475
C21.192 -10.5029 28.4417 -7.5 36 -7.5
z
" id="C0_0_a811fe30f3"/>
     <path d="
M23.2718 -10.5104
L23.2943 -10.7501
L23.3308 -10.9865
L23.381 -11.2194
L23.4444 -11.449
L23.5204 -11.6752
L23.6087 -11.898
L23.7086 -12.1177
L23.8196 -12.3342
L23.9413 -12.5476
L24.0729 -12.7582
L24.2141 -12.9659
L24.3643 -13.171
L24.5229 -13.3737
L24.6894 -13.5739
L24.8632 -13.772
L25.044 -13.968
L25.2311 -14.162
L25.4241 -14.3543
L25.6226 -14.545
L25.826 -14.7341
L26.0341 -14.9218
L26.2463 -15.1082
L26.4624 -15.2935
L26.6818 -15.4777
L26.9044 -15.6608
L27.1297 -15.8431
L27.3574 -16.0245
L27.5874 -16.2052
L27.8192 -16.3852
L28.0526 -16.5645
L28.2875 -16.7433
L28.5235 -16.9215
L28.7605 -17.0993
L28.9983 -17.2766
L29.2367 -17.4534
L29.4755 -17.6299
L29.7147 -17.806
L29.9539 -17.9818
L30.1932 -18.1573
L30.4323 -18.3325
L30.6713 -18.5074
L30.9099 -18.6821
L31.1482 -18.8565
L31.3859 -19.0307
L31.6231 -19.2047
L31.8597 -19.3785
L32.0956 -19.5521
L32.3308 -19.7255
L32.5652 -19.8987
L32.7988 -20.0718
L33.0315 -20.2447
L33.2634 -20.4175
L33.4943 -20.5902
L33.7243 -20.7627
L33.9534 -20.9352
L34.1815 -21.1075
L34.4087 -21.2797
L34.6349 -21.4519
L34.8601 -21.624
L35.0843 -21.7961
L35.3076 -21.9681
L35.5299 -22.1401
L35.7513 -22.3121
L35.9717 -22.4841
L36.1911 -22.6561
L36.4097 -22.8282
L36.6273 -23.0003
L36.844 -23.1725
L37.0599 -23.3447
L37.2749 -23.5171
L37.4891 -23.6896
L37.7024 -23.8622
L37.915 -24.0349
L38.1268 -24.2079
L38.3379 -24.381
L38.5482 -24.5544
L38.7578 -24.7279
L38.9668 -24.9018
L39.1751 -25.0759
L39.3828 -25.2503
L39.5898 -25.425
L39.7964 -25.6001
L40.0023 -25.7756
L40.2078 -25.9514
L40.4128 -26.1277
L40.6173 -26.3043
L40.8214 -26.4815
L41.2285 -26.6591
L41.4314 -26.8372
L41.6341 -27.0159
L41.8365 -27.1951
L42.0386 -27.3749
L42.2405 -27.5553
L42.4421 -27.7363
L42.6436 -27.918
L42.845 -28.1003
L43.0462 -28.2834
L43.2473 -28.4672
L43.4483 -28.6517
L43.6493 -28.8371
L43.8503 -29.0232
L44.0513 -29.2101
L44.2523 -29.3979
L44.4534 -29.5866
L44.6545 -29.7761
L44.8558 -29.9666
L45.0572 -30.158
L45.2587 -30.3503
L45.4604 -30.5437
L45.6623 -30.738
L45.8645 -30.9333
L46.0668 -31.1297
L46.2694 -31.3271
L46.4723 -31.5256
L46.6755 -31.7252
L46.879 -31.9258
L47.0829 -32.1276
L47.287 -32.3304
L47.4916 -32.5344
L47.6965 -32.7394
L47.9019 -32.9456
L48.1076 -33.1529
L48.3138 -33.3614
L48.5203 -33.5709
L48.7274 -33.7815
L48.9349 -33.9932
L49.1429 -34.206
L49.3513 -34.4198
L49.5602 -34.6347
L49.7696 -34.8505
L49.9796 -35.0673
L50.19 -35.285
L50.4009 -35.5035
L50.6124 -35.7229
L50.8244 -35.943
L51.0369 -36.1638
L51.2499 -36.3852
L51.4635 -36.6072
L51.6776 -36.8295
L51.8923 -37.0523
L52.1075 -37.2752
L52.3233 -37.4982
L52.5396 -37.7213
L52.7565 -37.9441
L52.974 -38.1666
L53.1921 -38.3887
L53.4108 -38.6101
L53.63 -38.8306
L53.8499 -39.05
L54.0705 -39.2681
L54.2917 -39.4847
L54.5136 -39.6995
L54.7362 -39.9122
L54.9596 -40.1225
L55.1837 -40.3302
L55.4087 -40.5349
L55.6344 -40.7363
L55.8611 -40.9339
L56.0887 -41.1275
L56.3173 -41.3166
L56.5469 -41.5008
L56.7776 -41.6796
L57.0094 -41.8527
L57.2424 -42.0196
L57.4766 -42.1799
L57.7122 -42.3329
L57.949 -42.4783
L58.1873 -42.6155
L58.4269 -42.7441
L58.668 -42.8636
L58.9106 -42.9734
L59.1546 -43.0732
L59.4001 -43.1624
L59.647 -43.2406
L59.8952 -43.3073
L60.1449 -43.3622
L60.3957 -43.4048
L60.6477 -43.4349
L60.9008 -43.4521
L61.1547 -43.456
L61.4093 -43.4466
L61.6645 -43.4236
L61.92 -43.3867
L62.1756 -43.336
L62.431 -43.2713
L62.686 -43.1925
L62.9403 -43.0997
L63.1936 -42.993
L63.4456 -42.8722
L63.6961 -42.7377
L63.837 -42.5895
L63.9394 -42.1117
L64.0333 -41.625
L64.1187 -41.1365
L64.1955 -40.6465
L64.2637 -40.155
L64.3233 -39.6623
L64.3743 -39.1685
L64.4166 -38.6737
L64.4503 -38.1781
L64.4754 -37.6818
L64.4917 -37.1851
L64.4994 -36.6879
L64.4983 -36.1906
L64.4887 -35.6931
L64.4703 -35.1958
L64.4432 -34.6988
L64.4075 -34.2021
L64.3632 -33.7059
L64.3102 -33.2105
L64.2485 -32.7159
L64.1783 -32.2224
L64.0995 -31.7299
L64.0121 -31.2388
L63.9162 -30.7491
L63.8118 -30.261
L63.6989 -29.7747
L63.5776 -29.2903
L63.4479 -28.8079
L63.3098 -28.3277
L63.1634 -27.8498
L63.0087 -27.3744
L62.8458 -26.9017
L62.6747 -26.4317
L62.4955 -25.9646
L62.3083 -25.5006
L62.113 -25.0398
L61.9097 -24.5823
L61.6986 -24.1284
L61.4796 -23.678
L61.2529 -23.2313
L61.0185 -22.7886
L60.7765 -22.3499
L60.5269 -21.9153
L60.2698 -21.4851
L60.0054 -21.0592
L59.7336 -20.6379
L59.4546 -20.2213
L59.1685 -19.8095
L58.8753 -19.4027
L58.5751 -19.0008
L58.2681 -18.6042
L57.9543 -18.2129
L57.6338 -17.8269
L57.3067 -17.4466
L56.9731 -17.0718
L56.6331 -16.7028
L56.2868 -16.3398
L55.9344 -15.9827
L55.5759 -15.6316
L55.2114 -15.2868
L54.8411 -14.9484
L54.465 -14.6163
L54.0833 -14.2907
L53.6961 -13.9718
L53.3035 -13.6595
L52.9057 -13.3541
L52.5027 -13.0555
L52.0946 -12.764
L51.6817 -12.4795
L51.264 -12.2022
L50.8416 -11.9321
L50.4147 -11.6694
L49.9834 -11.4141
L49.5479 -11.1663
L49.1082 -10.926
L48.6646 -10.6934
L48.2171 -10.4685
L47.7658 -10.2513
L47.311 -10.042
L46.8527 -9.84065
L46.3912 -9.64723
L45.9264 -9.46184
L45.4587 -9.28453
L44.988 -9.11536
L44.5146 -8.95438
L44.0387 -8.80164
L43.5602 -8.65718
L43.0795 -8.52105
L42.5966 -8.39329
L42.1117 -8.27394
L41.625 -8.16304
L41.1365 -8.06061
L40.6465 -7.9667
L40.155 -7.88132
L39.6623 -7.80451
L39.1685 -7.73629
L38.6737 -7.67668
L38.1781 -7.62569
L37.6818 -7.58335
L37.1851 -7.54967
L36.6879 -7.52465
L36.1906 -7.5083
L35.6931 -7.50064
L35.1958 -7.50165
L34.6988 -7.51135
L34.2021 -7.52972
L33.7059 -7.55677
L33.2105 -7.59248
L32.7159 -7.63684
L32.2224 -7.68984
L31.7299 -7.75147
L31.2388 -7.8217
L30.7491 -7.90052
L30.261 -7.98789
L29.7747 -8.0838
L29.2903 -8.18821
L28.8079 -8.30109
L28.3277 -8.42241
L27.8498 -8.55213
L27.3744 -8.69021
L26.9017 -8.83661
L26.4317 -8.99128
L25.9646 -9.15418
L25.5006 -9.32526
L25.0398 -9.50447
L24.5823 -9.69174
L24.1284 -9.88703
z
" id="C0_1_8ee32b3a76"/>
     <path d="
M8.39618 -29.6506
L8.54808 -29.9112
L8.69985 -30.1775
L8.85168 -30.4489
L9.00374 -30.725
L9.15618 -31.0052
L9.30917 -31.2892
L9.46282 -31.5763
L9.61728 -31.8662
L9.77264 -32.1585
L9.929 -32.4528
L10.0865 -32.7487
L10.2451 -33.0458
L10.4049 -33.3438
L10.566 -33.6425
L10.7285 -33.9415
L10.8923 -34.2405
L11.0575 -34.5393
L11.224 -34.8377
L11.392 -35.1354
L11.5614 -35.4322
L11.7322 -35.728
L11.9044 -36.0226
L12.078 -36.3158
L12.253 -36.6075
L12.4293 -36.8976
L12.6069 -37.1859
L12.7859 -37.4724
L12.9662 -37.7569
L13.1477 -38.0394
L13.3304 -38.3199
L13.5143 -38.5981
L13.6995 -38.8742
L13.8857 -39.148
L14.0731 -39.4196
L14.2616 -39.6888
L14.4512 -39.9556
L14.6418 -40.2201
L14.8334 -40.4822
L15.026 -40.742
L15.2196 -40.9993
L15.4141 -41.2543
L15.6096 -41.5068
L15.806 -41.757
L16.0033 -42.0049
L16.2014 -42.2503
L16.4005 -42.4935
L16.6004 -42.7343
L16.8011 -42.9728
L17.0027 -43.209
L17.2051 -43.443
L17.4084 -43.6748
L17.6124 -43.9044
L17.8173 -44.1318
L18.023 -44.357
L18.2296 -44.5802
L18.437 -44.8012
L18.6452 -45.0203
L18.8542 -45.2373
L19.0641 -45.4523
L19.2748 -45.6654
L19.4864 -45.8765
L19.6989 -46.0858
L19.9122 -46.2932
L20.1265 -46.4988
L20.3416 -46.7026
L20.5577 -46.9046
L20.7748 -47.1049
L20.9928 -47.3036
L21.2118 -47.5005
L21.4318 -47.6958
L21.6528 -47.8895
L21.8749 -48.0817
L22.098 -48.2722
L22.3223 -48.4613
L22.5476 -48.6489
L22.7742 -48.835
L23.0019 -49.0196
L23.2308 -49.2029
L23.4609 -49.3847
L23.6923 -49.5652
L23.925 -49.7444
L24.159 -49.9222
L24.3943 -50.0987
L24.631 -50.2739
L24.8692 -50.4479
L25.1088 -50.6206
L25.3499 -50.792
L25.5924 -50.9623
L25.8366 -51.1314
L26.0823 -51.2992
L26.3296 -51.4659
L26.5786 -51.6315
L26.8292 -51.7958
L27.0816 -51.9591
L27.3357 -52.1212
L27.5916 -52.2821
L27.8493 -52.442
L28.1089 -52.6007
L28.3703 -52.7583
L28.6336 -52.9148
L28.8989 -53.0702
L29.1662 -53.2245
L29.4354 -53.3776
L29.7067 -53.5297
L29.98 -53.6806
L30.2554 -53.8304
L30.5329 -53.9791
L30.8125 -54.1266
L31.0942 -54.273
L31.3781 -54.4183
L31.6642 -54.5623
L31.9524 -54.7053
L32.2428 -54.847
L32.5355 -54.9875
L32.8303 -55.1269
L33.1273 -55.265
L33.4265 -55.4019
L33.7279 -55.5375
L34.0314 -55.6719
L34.337 -55.805
L34.6448 -55.9368
L34.9547 -56.0674
L35.2666 -56.1966
L35.5805 -56.3245
L35.8963 -56.4511
L36.214 -56.5764
L36.5335 -56.7004
L36.8548 -56.823
L37.1777 -56.9443
L37.5021 -57.0642
L37.828 -57.1829
L38.1552 -57.3002
L38.4836 -57.4163
L38.8131 -57.5311
L39.1435 -57.6447
L39.4746 -57.7572
L39.8063 -57.8685
L40.1383 -57.9787
L40.4705 -58.0879
L40.8026 -58.1961
L41.1344 -58.3035
L41.4656 -58.4102
L41.7961 -58.5162
L42.1254 -58.6217
L42.4533 -58.7268
L42.7794 -58.8316
L43.1035 -58.9363
L43.4252 -59.0412
L43.7442 -59.1463
L44.06 -59.2519
L44.3722 -59.3581
L44.6805 -59.4653
L44.9845 -59.5736
L45.2837 -59.6833
L45.5778 -59.7946
L45.8662 -59.9079
L46.1486 -60.0233
L46.4245 -60.1411
L46.6935 -60.2616
L46.9551 -60.3851
L47.209 -60.5117
L47.4547 -60.6418
L47.6919 -60.7756
L47.9201 -60.9132
L48.1389 -61.0549
L48.3482 -61.2009
L48.1945 -61.3512
L47.743 -61.7594
L47.288 -61.9683
L46.8296 -62.1693
L46.3679 -62.3623
L45.903 -62.5473
L45.4351 -62.7242
L44.9643 -62.8929
L44.4908 -63.0535
L44.0147 -63.2058
L43.5361 -63.3499
L43.0553 -63.4856
L42.5723 -63.6129
L42.0873 -63.7318
L41.6005 -63.8423
L41.1119 -63.9443
L40.6218 -64.0378
L40.1303 -64.1227
L39.6375 -64.1991
L39.1437 -64.2669
L38.6488 -64.3261
L38.1532 -64.3766
L37.6569 -64.4185
L37.1601 -64.4518
L36.6629 -64.4764
L36.1656 -64.4923
L35.6681 -64.4995
L35.1708 -64.4981
L34.6738 -64.4879
L34.1771 -64.4691
L33.681 -64.4416
L33.1856 -64.4055
L32.6911 -64.3607
L32.1976 -64.3073
L31.7052 -64.2452
L31.2141 -64.1745
L30.7245 -64.0953
L30.2366 -64.0075
L29.7503 -63.9112
L29.266 -63.8063
L28.7837 -63.693
L28.3036 -63.5713
L27.8259 -63.4411
L27.3506 -63.3026
L26.878 -63.1558
L26.4082 -63.0007
L25.9412 -62.8374
L25.4774 -62.6659
L25.0167 -62.4863
L24.5594 -62.2986
L24.1056 -62.1029
L23.6554 -61.8993
L23.209 -61.6878
L22.7665 -61.4684
L22.328 -61.2413
L21.8936 -61.0065
L21.4636 -60.7641
L21.038 -60.5141
L20.6169 -60.2567
L20.2005 -59.9919
L19.789 -59.7197
L19.3823 -59.4404
L18.9808 -59.1539
L18.5844 -58.8604
L18.1933 -58.5599
L17.8077 -58.2525
L17.4276 -57.9383
L17.0531 -57.6175
L16.6845 -57.29
L16.3217 -56.9561
L15.9649 -56.6158
L15.6142 -56.2693
L15.2697 -55.9165
L14.9315 -55.5577
L14.5998 -55.1929
L14.2745 -54.8223
L13.9559 -54.446
L13.644 -54.064
L13.3389 -53.6765
L13.0407 -53.2837
L12.7495 -52.8855
L12.4654 -52.4823
L12.1885 -52.074
L11.9188 -51.6608
L11.6564 -51.2428
L11.4015 -50.8202
L11.154 -50.3931
L10.9141 -49.9616
L10.6819 -49.5259
L10.4574 -49.086
L10.2406 -48.6422
L10.0317 -48.1945
L9.83074 -47.743
L9.63772 -47.288
L9.45274 -46.8296
L9.27584 -46.3679
L9.10707 -45.903
L8.94651 -45.4351
L8.79418 -44.9643
L8.65014 -44.4908
L8.51443 -44.0147
L8.38709 -43.5361
L8.26816 -43.0553
L8.15768 -42.5723
L8.05569 -42.0873
L7.9622 -41.6005
L7.87726 -41.1119
L7.80088 -40.6218
L7.73309 -40.1303
L7.67391 -39.6375
L7.62336 -39.1437
L7.58145 -38.6488
L7.5482 -38.1532
L7.52362 -37.6569
L7.50771 -37.1601
L7.50048 -36.6629
L7.50193 -36.1656
L7.51206 -35.6681
L7.53087 -35.1708
L7.55836 -34.6738
L7.5945 -34.1771
L7.6393 -33.681
L7.69274 -33.1856
L7.7548 -32.6911
L7.82546 -32.1976
L7.9047 -31.7052
L7.99251 -31.2141
L8.08884 -30.7245
z
" id="C0_2_4bc7877d63"/>
    </defs>
    <g clip-path="url(#p1bffca34e9)">
     <use style="fill:#ff0000;stroke:#000000;stroke-width:2.0;" x="0.0" xlink:href="#C0_0_a811fe30f3" y="72.0"/>
    </g>
    <g clip-path="url(#p1bffca34e9)">
     <use style="fill:#ffffff;stroke:#000000;stroke-width:2.0;" x="0.0" xlink:href="#C0_1_8ee32b3a76" y="72.0"/>
    </g>
    <g clip-path="url(#p1bffca34e9)">
     <use style="fill:#ffffff;stroke:#000000;stroke-width:2.0;" x="0.0" xlink:href="#C0_2_4bc7877d63" y="72.0"/>
    </g>
   </g>
  </g>
 </g>
 <defs>
  <clipPath id="p1bffca34e9">
   <rect height="72.0" width="72.0" x="0.0" y="0.0"/>
  </clipPath>
 </defs>
</svg>
