<?xml version="1.0" encoding="utf-8" standalone="no"?>
<!DOCTYPE svg PUBLIC "-//W3C//DTD SVG 1.1//EN"
  "http://www.w3.org/Graphics/SVG/1.1/DTD/svg11.dtd">
<!-- Created with matplotlib (http://matplotlib.org/) -->
<svg height="72pt" version="1.1" viewBox="0 0 72 72" width="72pt" xmlns="http://www.w3.org/2000/svg" xmlns:xlink="http://www.w3.org/1999/xlink">
 <defs>
  <style type="text/css">
*{stroke-linecap:butt;stroke-linejoin:round;}
  </style>
 </defs>
 <g id="figure_1">
  <g id="patch_1">
   <path d="
M0 72
L72 72
L72 0
L0 0
z
" style="fill:none;"/>
  </g>
  <g id="axes_1">
   <g id="PatchCollection_1">
    <defs>
     <path d="
M36 -7.5
C43.5583 -7.5 50.808 -10.5029 56.1525 -15.8475
C61.4971 -21.192 64.5 -28.4417 64.5 -36
C64.5 -43.5583 61.4971 -50.808 56.1525 -56.1525
C50.808 -61.4971 43.5583 -64.5 36 -64.5
C28.4417 -64.5 21.192 -61.4971 15.8475 -56.1525
C10.5029 -50.808 7.5 -43.5583 7.5 -36
C7.5 -28.4417 10.5029 -21.192 15.8475 -15.8475
C21.192 -10.5029 28.4417 -7.5 36 -7.5
z
" id="C0_0_a811fe30f3"/>
     <path d="
M44.5975 -8.96136
L44.5636 -9.14437
L44.5289 -9.32766
L44.4934 -9.51126
L44.4572 -9.69521
L44.4202 -9.87955
L44.3824 -10.0643
L44.3439 -10.2495
L44.3046 -10.4352
L44.2646 -10.6215
L44.2239 -10.8083
L44.1824 -10.9957
L44.1403 -11.1838
L44.0974 -11.3726
L44.0094 -11.5622
L43.9643 -11.7525
L43.9185 -11.9436
L43.8719 -12.1357
L43.8246 -12.3286
L43.7765 -12.5226
L43.7277 -12.7175
L43.6781 -12.9135
L43.6277 -13.1106
L43.5765 -13.3089
L43.5246 -13.5084
L43.4718 -13.7092
L43.4181 -13.9113
L43.3637 -14.1147
L43.3083 -14.3196
L43.2521 -14.526
L43.195 -14.7339
L43.137 -14.9434
L43.078 -15.1546
L43.0181 -15.3674
L42.9573 -15.5821
L42.8954 -15.7985
L42.8325 -16.0169
L42.7686 -16.2372
L42.7036 -16.4595
L42.6375 -16.6838
L42.5703 -16.9103
L42.502 -17.139
L42.4324 -17.37
L42.3617 -17.6033
L42.2898 -17.8389
L42.2166 -18.077
L42.1421 -18.3176
L42.0662 -18.5608
L41.9891 -18.8066
L41.9105 -19.0552
L41.8305 -19.3064
L41.749 -19.5605
L41.666 -19.8175
L41.5815 -20.0774
L41.4953 -20.3403
L41.4076 -20.6063
L41.3182 -20.8753
L41.2271 -21.1475
L41.1342 -21.4229
L41.0395 -21.7015
L40.943 -21.9834
L40.8446 -22.2687
L40.7443 -22.5572
L40.6419 -22.8492
L40.5375 -23.1445
L40.4311 -23.4432
L40.3224 -23.7453
L40.2116 -24.0508
L40.0985 -24.3597
L39.9831 -24.6719
L39.8653 -24.9875
L39.745 -25.3063
L39.6222 -25.6283
L39.4969 -25.9535
L39.3689 -26.2816
L39.2382 -26.6127
L39.1046 -26.9466
L38.9682 -27.2831
L38.8287 -27.622
L38.6862 -27.9631
L38.5404 -28.3063
L38.3914 -28.6511
L38.2389 -28.9974
L38.0828 -29.3447
L37.923 -29.6926
L37.7593 -30.0408
L37.5915 -30.3888
L37.4193 -30.7359
L37.2427 -31.0815
L37.0612 -31.4251
L36.8747 -31.7658
L36.6828 -32.1029
L36.4851 -32.4354
L36.2812 -32.7622
L36.0709 -33.0825
L35.8536 -33.3949
L35.6288 -33.6983
L35.3961 -33.9914
L35.1551 -34.2729
L34.9052 -34.5413
L34.6461 -34.7954
L34.3775 -35.0339
L34.099 -35.2555
L33.8106 -35.4594
L33.5123 -35.6447
L33.2042 -35.8109
L32.8866 -35.9576
L32.56 -36.0848
L32.2249 -36.1928
L31.8821 -36.2821
L31.5322 -36.3535
L31.1762 -36.4079
L30.8147 -36.4462
L30.4488 -36.4695
L30.0791 -36.4791
L29.7066 -36.4759
L29.3319 -36.4612
L28.9559 -36.4359
L28.579 -36.401
L28.202 -36.3575
L27.8255 -36.3062
L27.4498 -36.2479
L27.0756 -36.1833
L26.7031 -36.113
L26.3328 -36.0377
L25.965 -35.9578
L25.6001 -35.8739
L25.2382 -35.7863
L24.8796 -35.6955
L24.5245 -35.6019
L24.1731 -35.5057
L23.8255 -35.4072
L23.4819 -35.3068
L23.1423 -35.2046
L22.8069 -35.1008
L22.4757 -34.9957
L22.1487 -34.8894
L21.8261 -34.7821
L21.5079 -34.6739
L21.194 -34.565
L20.8845 -34.4554
L20.5793 -34.3453
L20.2785 -34.2348
L19.982 -34.1239
L19.6898 -34.0128
L19.4019 -33.9014
L19.1182 -33.7899
L18.8387 -33.6783
L18.5632 -33.5667
L18.2919 -33.455
L18.0246 -33.3434
L17.7612 -33.2318
L17.5017 -33.1203
L17.246 -33.009
L16.9941 -32.8977
L16.7458 -32.7866
L16.5012 -32.6756
L16.2601 -32.5648
L16.0225 -32.4542
L15.7883 -32.3437
L15.5574 -32.2334
L15.3298 -32.1232
L15.1053 -32.0133
L14.884 -31.9034
L14.6657 -31.7937
L14.4504 -31.6842
L14.238 -31.5748
L14.0285 -31.4655
L13.8217 -31.3563
L13.6176 -31.2471
L13.4161 -31.1381
L13.2173 -31.0291
L13.0209 -30.9201
L12.827 -30.8112
L12.6355 -30.7022
L12.4464 -30.5932
L12.2595 -30.4842
L12.0748 -30.3751
L11.8923 -30.2658
L11.7119 -30.1565
L11.5336 -30.047
L11.3573 -29.9373
L11.183 -29.8274
L11.0106 -29.7173
L10.8401 -29.6069
L10.6714 -29.4962
L10.5045 -29.3852
L10.3394 -29.2738
L10.176 -29.162
L10.0142 -29.0498
L9.85411 -28.9372
L9.69562 -28.824
L9.53871 -28.7103
L9.38335 -28.596
L9.22952 -28.4811
L9.07718 -28.3656
L8.92631 -28.2493
L8.7769 -28.1323
L8.79647 -28.0145
L8.94893 -27.5019
L9.10962 -27.0284
L9.27851 -26.5577
L9.45553 -26.0898
L9.64065 -25.625
L9.83379 -25.1633
L10.0349 -24.7049
L10.2439 -24.25
L10.4608 -23.7986
L10.6854 -23.3509
L10.9178 -22.9071
L11.1578 -22.4673
L11.4054 -22.0317
L11.6604 -21.6002
L11.9229 -21.1732
L12.1927 -20.7507
L12.4697 -20.3328
L12.754 -19.9197
L13.0453 -19.5115
L13.3436 -19.1083
L13.6488 -18.7102
L13.9608 -18.3175
L14.2795 -17.9301
L14.6048 -17.5482
L14.9367 -17.1719
L15.275 -16.8014
L15.6195 -16.4367
L15.9703 -16.078
L16.3272 -15.7253
L16.6901 -15.3788
L17.0589 -15.0387
L17.4334 -14.7048
L17.8136 -14.3775
L18.1993 -14.0568
L18.5905 -13.7427
L18.9869 -13.4354
L19.3886 -13.135
L19.7953 -12.8416
L20.2069 -12.5552
L20.6234 -12.276
L21.0445 -12.004
L21.4702 -11.7393
L21.9003 -11.482
L22.3347 -11.2321
L22.7733 -10.9898
L23.2159 -10.7551
L23.6624 -10.5281
L24.1126 -10.3089
L24.5665 -10.0975
L25.0238 -9.89397
L25.4845 -9.6984
L25.9484 -9.51085
L26.4154 -9.33136
L26.8853 -9.16
L27.3579 -8.99682
L27.8332 -8.84185
L28.311 -8.69517
L28.7911 -8.5568
L29.2735 -8.42678
L29.7578 -8.30517
L30.2441 -8.19199
L30.7321 -8.08729
L31.2217 -7.99109
L31.7128 -7.90341
L32.2052 -7.8243
L32.6987 -7.75377
L33.1933 -7.69184
L33.6887 -7.63854
L34.1848 -7.59388
L34.6815 -7.55786
L35.1785 -7.53052
L35.6758 -7.51184
L36.1732 -7.50184
L36.6706 -7.50053
L37.1678 -7.50789
L37.6646 -7.52393
L38.1608 -7.54865
L38.6565 -7.58203
L39.1513 -7.62407
L39.6452 -7.67476
L40.1379 -7.73407
L40.6294 -7.80199
L41.1195 -7.8785
L41.608 -7.96358
L42.0948 -8.0572
L42.5798 -8.15933
L43.0627 -8.26994
L43.5435 -8.38899
L44.0221 -8.51646
z
" id="C0_1_1e5b270413"/>
     <path d="
M63.2835 -44.0782
L63.0941 -44.097
L62.9034 -44.115
L62.7114 -44.1321
L62.518 -44.1483
L62.3233 -44.1636
L62.127 -44.178
L61.9293 -44.1916
L61.73 -44.2044
L61.5291 -44.2163
L61.3265 -44.2274
L61.1222 -44.2377
L60.9161 -44.2471
L60.7082 -44.2558
L60.4983 -44.2635
L60.2865 -44.2705
L60.0726 -44.2767
L59.8567 -44.282
L59.6386 -44.2865
L59.4182 -44.2902
L59.1956 -44.293
L58.9706 -44.295
L58.7431 -44.2962
L58.5132 -44.2965
L58.2807 -44.296
L58.0456 -44.2947
L57.8078 -44.2924
L57.5671 -44.2894
L57.3237 -44.2854
L57.0773 -44.2806
L56.8279 -44.2749
L56.5754 -44.2683
L56.3199 -44.2608
L56.0611 -44.2524
L55.799 -44.2431
L55.5335 -44.2328
L55.2647 -44.2217
L54.9923 -44.2096
L54.7164 -44.1966
L54.4369 -44.1826
L54.1537 -44.1678
L53.8667 -44.1519
L53.576 -44.1352
L53.2814 -44.1175
L52.9828 -44.0989
L52.6804 -44.0793
L52.3739 -44.0589
L52.0634 -44.0375
L51.7489 -44.0153
L51.4303 -43.9922
L51.1076 -43.9683
L50.7808 -43.9437
L50.4499 -43.9182
L50.1149 -43.8921
L49.7759 -43.8654
L49.4328 -43.8381
L49.0858 -43.8103
L48.7349 -43.7822
L48.3802 -43.7538
L48.0217 -43.7252
L47.6597 -43.6967
L47.2942 -43.6683
L46.9254 -43.6404
L46.5535 -43.613
L46.1787 -43.5864
L45.8012 -43.561
L45.4213 -43.537
L45.0394 -43.5148
L44.6558 -43.4948
L44.2707 -43.4776
L43.8848 -43.4636
L43.4984 -43.4533
L43.112 -43.4476
L42.7262 -43.447
L42.3417 -43.4524
L41.959 -43.4648
L41.579 -43.4849
L41.2022 -43.5139
L40.8296 -43.5529
L40.4619 -43.6029
L40.0999 -43.6652
L39.7445 -43.7408
L39.3964 -43.8308
L39.0563 -43.9361
L38.7249 -44.0575
L38.4028 -44.1956
L38.0902 -44.3509
L37.7874 -44.5232
L37.4946 -44.7126
L37.2117 -44.9184
L36.9384 -45.14
L36.6746 -45.3765
L36.4198 -45.6267
L36.1735 -45.8896
L35.9354 -46.1638
L35.7049 -46.448
L35.4815 -46.7411
L35.2647 -47.0418
L35.0542 -47.3488
L34.8494 -47.6612
L34.65 -47.9779
L34.4556 -48.298
L34.2659 -48.6205
L34.0806 -48.9448
L33.8996 -49.2702
L33.7224 -49.5959
L33.549 -49.9215
L33.3792 -50.2463
L33.2127 -50.5701
L33.0495 -50.8923
L32.8894 -51.2127
L32.7323 -51.5308
L32.5781 -51.8466
L32.4266 -52.1596
L32.2779 -52.4697
L32.1318 -52.7767
L31.9882 -53.0805
L31.8471 -53.3809
L31.7084 -53.6779
L31.572 -53.9713
L31.4379 -54.2612
L31.306 -54.5473
L31.1763 -54.8297
L31.0486 -55.1084
L30.923 -55.3834
L30.7994 -55.6546
L30.6778 -55.922
L30.558 -56.1858
L30.4401 -56.4458
L30.3241 -56.7021
L30.2097 -56.9548
L30.0971 -57.2039
L29.9862 -57.4494
L29.8769 -57.6914
L29.7692 -57.9299
L29.663 -58.165
L29.5583 -58.3967
L29.4551 -58.6252
L29.3533 -58.8504
L29.2529 -59.0724
L29.1539 -59.2913
L29.0562 -59.5072
L28.9597 -59.7201
L28.8645 -59.93
L28.7705 -60.1371
L28.6777 -60.3414
L28.586 -60.543
L28.4954 -60.7419
L28.4058 -60.9382
L28.3173 -61.1319
L28.2298 -61.3232
L28.1433 -61.5121
L28.0577 -61.6986
L27.9731 -61.8828
L27.8893 -62.0648
L27.8064 -62.2446
L27.7243 -62.4223
L27.643 -62.5979
L27.5625 -62.7715
L27.4828 -62.9432
L27.862 -63.113
L28.3399 -63.3134
L28.8202 -63.4513
L29.3026 -63.5808
L29.7871 -63.7019
L30.2735 -63.8146
L30.7616 -63.9188
L31.2513 -64.0144
L31.7425 -64.1016
L32.235 -64.1802
L32.7286 -64.2502
L33.2232 -64.3116
L33.7186 -64.3644
L34.2148 -64.4085
L34.7114 -64.444
L35.2085 -64.4709
L35.7059 -64.489
L36.2033 -64.4985
L36.7006 -64.4993
L37.1978 -64.4914
L37.6945 -64.4748
L38.1908 -64.4496
L38.6864 -64.4157
L39.1811 -64.3731
L39.6749 -64.3219
L40.1676 -64.2621
L40.659 -64.1936
L41.149 -64.1166
L41.6374 -64.031
L42.1242 -63.9369
L42.609 -63.8342
L43.0918 -63.7231
L43.5725 -63.6036
L44.0509 -63.4756
L44.5268 -63.3392
L45.0001 -63.1946
L45.4706 -63.0416
L45.9383 -62.8804
L46.403 -62.711
L46.8645 -62.5335
L47.3227 -62.3479
L47.7774 -62.1543
L48.2285 -61.9527
L48.676 -61.7432
L49.1195 -61.5259
L49.5591 -61.3008
L49.9945 -61.0679
L50.4257 -60.8275
L50.8524 -60.5795
L51.2747 -60.324
L51.6923 -60.061
L52.1051 -59.7908
L52.513 -59.5133
L52.9159 -59.2287
L53.3136 -58.9369
L53.7061 -58.6382
L54.0931 -58.3326
L54.4747 -58.0202
L54.8506 -57.7011
L55.2208 -57.3753
L55.5851 -57.0431
L55.9435 -56.7044
L56.2958 -56.3595
L56.6419 -56.0083
L56.9817 -55.651
L57.3151 -55.2878
L57.642 -54.9187
L57.9624 -54.5438
L58.276 -54.1633
L58.5829 -53.7772
L58.8829 -53.3857
L59.1759 -52.989
L59.4618 -52.587
L59.7406 -52.18
L60.0122 -51.7681
L60.2765 -51.3513
L60.5333 -50.9299
L60.7827 -50.504
L61.0246 -50.0736
L61.2588 -49.6389
L61.4853 -49.2001
L61.7041 -48.7573
L61.915 -48.3106
L62.1181 -47.8601
L62.3131 -47.406
L62.5002 -46.9484
L62.6792 -46.4876
L62.8501 -46.0235
L63.0128 -45.5563
L63.1672 -45.0863
z
" id="C0_2_82a3d8aaaa"/>
    </defs>
    <g clip-path="url(#p1bffca34e9)">
     <use style="fill:#ff0000;stroke:#000000;stroke-width:2.0;" x="0.0" xlink:href="#C0_0_a811fe30f3" y="72.0"/>
    </g>
    <g clip-path="url(#p1bffca34e9)">
     <use style="fill:#ffffff;stroke:#000000;stroke-width:2.0;" x="0.0" xlink:href="#C0_1_1e5b270413" y="72.0"/>
    </g>
    <g clip-path="url(#p1bffca34e9)">
     <use style="fill:#ffffff;stroke:#000000;stroke-width:2.0;" x="0.0" xlink:href="#C0_2_82a3d8aaaa" y="72.0"/>
    </g>
   </g>
  </g>
 </g>
 <defs>
  <clipPath id="p1bffca34e9">
   <rect height="72.0" width="72.0" x="0.0" y="0.0"/>
  </clipPath>
 </defs>
</svg>
