<?xml version="1.0" encoding="utf-8" standalone="no"?>
<!DOCTYPE svg PUBLIC "-//W3C//DTD SVG 1.1//EN"
  "http://www.w3.org/Graphics/SVG/1.1/DTD/svg11.dtd">
<!-- Created with matplotlib (http://matplotlib.org/) -->
<svg height="72pt" version="1.1" viewBox="0 0 72 72" width="72pt" xmlns="http://www.w3.org/2000/svg" xmlns:xlink="http://www.w3.org/1999/xlink">
 <defs>
  <style type="text/css">
*{stroke-linecap:butt;stroke-linejoin:round;}
  </style>
 </defs>
 <g id="figure_1">
  <g id="patch_1">
   <path d="
M0 72
L72 72
L72 0
L0 0
z
" style="fill:none;"/>
  </g>
  <g id="axes_1">
   <g id="PatchCollection_1">
    <defs>
     <path d="
M36 -7.5
C43.5583 -7.5 50.808 -10.5029 56.1525 -15.8475
C61.4971 -21.192 64.5 -28.4417 64.5 -36
C64.5 -43.5583 61.4971 -50.808 56.1525 -56.1525
C50.808 -61.4971 43.5583 -64.5 36 -64.5
C28.4417 -64.5 21.192 -61.4971 15.8475 -56.1525
C10.5029 -50.808 7.5 -43.5583 7.5 -36
C7.5 -28.4417 10.5029 -21.192 15.8475 -15.8475
C21.192 -10.5029 28.4417 -7.5 36 -7.5
z
" id="C0_0_a811fe30f3"/>
     <path d="
M11.4329 -21.5645
L11.5823 -21.6666
L11.7323 -21.7694
L11.8831 -21.8729
L12.1871 -21.9771
L12.3403 -22.0819
L12.4943 -22.1876
L12.6493 -22.2939
L12.8052 -22.401
L12.9621 -22.509
L13.1201 -22.6177
L13.2791 -22.7273
L13.4391 -22.8378
L13.6004 -22.9491
L13.7628 -23.0613
L13.9264 -23.1745
L14.0912 -23.2887
L14.2574 -23.4039
L14.4249 -23.5201
L14.5938 -23.6373
L14.7642 -23.7557
L14.936 -23.8752
L15.1093 -23.9958
L15.2842 -24.1176
L15.4607 -24.2406
L15.6389 -24.3649
L15.8188 -24.4905
L16.0005 -24.6174
L16.1839 -24.7457
L16.3692 -24.8754
L16.5564 -25.0066
L16.7456 -25.1392
L16.9367 -25.2734
L17.1299 -25.4091
L17.3252 -25.5464
L17.5227 -25.6854
L17.7223 -25.8261
L17.9242 -25.9686
L18.1283 -26.1128
L18.3348 -26.2588
L18.5436 -26.4068
L18.7549 -26.5566
L18.9686 -26.7085
L19.1848 -26.8623
L19.4035 -27.0182
L19.6248 -27.1762
L19.8487 -27.3364
L20.0752 -27.4988
L20.3043 -27.6635
L20.5361 -27.8304
L20.7706 -27.9997
L21.0078 -28.1714
L21.2477 -28.3456
L21.4903 -28.5223
L21.7356 -28.7015
L21.9835 -28.8833
L22.2341 -29.0677
L22.4872 -29.2548
L22.7429 -29.4447
L23.0012 -29.6373
L23.2618 -29.8328
L23.5248 -30.0311
L23.79 -30.2323
L24.0574 -30.4365
L24.3267 -30.6437
L24.5978 -30.8538
L24.8706 -31.0671
L25.1448 -31.2834
L25.4202 -31.5029
L25.6966 -31.7256
L25.9736 -31.9515
L26.251 -32.1807
L26.5283 -32.4132
L26.8052 -32.649
L27.0812 -32.8882
L27.3558 -33.1309
L27.6285 -33.3771
L27.8988 -33.6268
L28.1658 -33.8801
L28.4291 -34.1371
L28.6877 -34.3979
L28.941 -34.6624
L29.1879 -34.9309
L29.4277 -35.2034
L29.6594 -35.48
L29.8819 -35.7608
L30.0942 -36.0459
L30.2955 -36.3354
L30.4845 -36.6295
L30.6605 -36.928
L30.8225 -37.2313
L30.9697 -37.5392
L31.1015 -37.8518
L31.2173 -38.169
L31.3167 -38.4909
L31.3998 -38.8172
L31.4663 -39.1478
L31.5167 -39.4825
L31.5511 -39.821
L31.5702 -40.1629
L31.5746 -40.508
L31.565 -40.8557
L31.5424 -41.2058
L31.5075 -41.5577
L31.4613 -41.911
L31.4046 -42.2653
L31.3384 -42.6201
L31.2635 -42.9751
L31.1807 -43.3298
L31.0909 -43.6838
L30.9948 -44.0368
L30.893 -44.3885
L30.7861 -44.7385
L30.6749 -45.0865
L30.5598 -45.4323
L30.4413 -45.7756
L30.3198 -46.1162
L30.1959 -46.454
L30.0698 -46.7886
L29.9419 -47.1201
L29.8125 -47.4482
L29.6818 -47.7728
L29.5502 -48.0938
L29.4179 -48.4111
L29.285 -48.7246
L29.1518 -49.0344
L29.0184 -49.3402
L28.885 -49.6422
L28.7516 -49.9403
L28.6185 -50.2344
L28.4856 -50.5245
L28.3532 -50.8107
L28.2213 -51.0929
L28.0899 -51.3712
L27.9591 -51.6456
L27.8291 -51.9162
L27.6997 -52.1829
L27.5711 -52.4457
L27.4432 -52.7048
L27.3162 -52.9602
L27.19 -53.2119
L27.0647 -53.46
L26.9402 -53.7046
L26.8166 -53.9456
L26.6939 -54.1832
L26.572 -54.4173
L26.4511 -54.6482
L26.331 -54.8758
L26.2117 -55.1001
L26.0933 -55.3213
L25.9758 -55.5395
L25.859 -55.7546
L25.7431 -55.9668
L25.628 -56.176
L25.5137 -56.3825
L25.4001 -56.5862
L25.2873 -56.7871
L25.1752 -56.9855
L25.0638 -57.1812
L24.9531 -57.3745
L24.843 -57.5652
L24.7336 -57.7536
L24.6247 -57.9396
L24.5165 -58.1233
L24.4088 -58.3048
L24.3016 -58.4841
L24.195 -58.6612
L24.0888 -58.8363
L23.9831 -59.0093
L23.8778 -59.1804
L23.7729 -59.3495
L23.6684 -59.5168
L23.5642 -59.6821
L23.4603 -59.8457
L23.3568 -60.0076
L23.2534 -60.1677
L23.1503 -60.3261
L23.0474 -60.4829
L22.9447 -60.6381
L22.8421 -60.7918
L22.7396 -60.9439
L22.247 -61.0945
L21.8135 -60.9621
L21.3842 -60.7183
L20.9595 -60.4669
L20.5393 -60.2081
L20.1238 -59.9419
L19.7131 -59.6684
L19.3074 -59.3878
L18.9068 -59.1
L18.5114 -58.8051
L18.1213 -58.5033
L17.7367 -58.1947
L17.3576 -57.8793
L16.9843 -57.5572
L16.6167 -57.2286
L16.255 -56.8935
L15.8993 -56.552
L15.5498 -56.2043
L15.2064 -55.8504
L14.8694 -55.4904
L14.5389 -55.1246
L14.2149 -54.7529
L13.8975 -54.3755
L13.5869 -53.9925
L13.283 -53.604
L12.9861 -53.2102
L12.6962 -52.8111
L12.4135 -52.4069
L12.1379 -51.9977
L11.8695 -51.5836
L11.6085 -51.1648
L11.355 -50.7413
L11.1089 -50.3134
L10.8705 -49.8811
L10.6396 -49.4446
L10.4166 -49.0039
L10.2013 -48.5594
L9.99383 -48.111
L9.79431 -47.6589
L9.60278 -47.2032
L9.41929 -46.7442
L9.2439 -46.2818
L9.07665 -45.8164
L8.91761 -45.3479
L8.76682 -44.8766
L8.62432 -44.4026
L8.49016 -43.926
L8.36438 -43.4471
L8.24702 -42.9658
L8.13811 -42.4824
L8.03769 -41.9971
L7.94579 -41.5099
L7.86243 -41.0211
L7.78765 -40.5307
L7.72145 -40.0389
L7.66387 -39.546
L7.61493 -39.0519
L7.57463 -38.5569
L7.54298 -38.0611
L7.52001 -37.5647
L7.50571 -37.0678
L7.50009 -36.5706
L7.50316 -36.0732
L7.5149 -35.5758
L7.53532 -35.0786
L7.56441 -34.5816
L7.60216 -34.085
L7.64856 -33.589
L7.7036 -33.0938
L7.76726 -32.5994
L7.83952 -32.1061
L7.92035 -31.614
L8.00974 -31.1232
L8.10766 -30.6338
L8.21407 -30.1462
L8.32895 -29.6603
L8.45225 -29.1763
L8.58395 -28.6944
L8.72399 -28.2148
L8.87235 -27.7375
L9.02897 -27.2627
L9.1938 -26.7906
L9.3668 -26.3213
L9.54791 -25.8549
L9.73708 -25.3916
L9.93425 -24.9316
L10.1394 -24.4749
L10.3524 -24.0218
L10.5732 -23.5723
L10.8017 -23.1266
L11.0379 -22.6848
z
" id="C0_1_21ad0509e8"/>
     <path d="
M49.3045 -10.8666
L49.2387 -11.0358
L49.1725 -11.206
L49.1059 -11.3772
L49.0389 -11.5494
L48.9714 -11.7226
L48.9036 -11.897
L48.8352 -12.0726
L48.7663 -12.2493
L48.697 -12.4272
L48.6271 -12.6064
L48.5567 -12.7869
L48.4857 -12.9688
L48.4142 -13.152
L48.342 -13.3367
L48.2693 -13.5229
L48.1959 -13.7106
L48.1219 -13.9
L48.0472 -14.0909
L47.9718 -14.2836
L47.8957 -14.478
L47.8189 -14.6741
L47.7413 -14.8722
L47.663 -15.0721
L47.5839 -15.274
L47.504 -15.4779
L47.4232 -15.6839
L47.3416 -15.892
L47.2592 -16.1023
L47.1759 -16.3148
L47.0916 -16.5297
L47.0065 -16.7469
L46.9204 -16.9666
L46.8334 -17.1888
L46.7453 -17.4135
L46.6563 -17.6408
L46.5663 -17.8708
L46.4752 -18.1036
L46.3831 -18.3392
L46.29 -18.5776
L46.1958 -18.819
L46.1005 -19.0634
L46.0042 -19.3108
L45.9067 -19.5613
L45.8082 -19.815
L45.7085 -20.072
L45.6078 -20.3322
L45.506 -20.5958
L45.4031 -20.8628
L45.2991 -21.1332
L45.194 -21.4071
L45.0879 -21.6845
L44.9808 -21.9655
L44.8727 -22.2501
L44.7637 -22.5383
L44.6538 -22.8302
L44.543 -23.1258
L44.4314 -23.4251
L44.3191 -23.728
L44.2062 -24.0347
L44.0927 -24.345
L43.9788 -24.659
L43.8646 -24.9767
L43.7502 -25.2979
L43.6357 -25.6227
L43.5214 -25.951
L43.4074 -26.2827
L43.2939 -26.6178
L43.1813 -26.956
L43.0696 -27.2974
L42.9594 -27.6417
L42.8507 -27.9889
L42.7441 -28.3387
L42.64 -28.6909
L42.5387 -29.0454
L42.4407 -29.4019
L42.3467 -29.7601
L42.2571 -30.1198
L42.1726 -30.4806
L42.0938 -30.8423
L42.0216 -31.2045
L41.9566 -31.5667
L41.8997 -31.9287
L41.8518 -32.2899
L41.8138 -32.6501
L41.7865 -33.0086
L41.771 -33.3651
L41.768 -33.7191
L41.7784 -34.0702
L41.803 -34.418
L41.8425 -34.762
L41.8973 -35.1018
L41.9681 -35.4373
L42.0548 -35.768
L42.1577 -36.0937
L42.2766 -36.4143
L42.4111 -36.7297
L42.5607 -37.0397
L42.725 -37.3444
L42.903 -37.6437
L43.0939 -37.9377
L43.2968 -38.2265
L43.5107 -38.5102
L43.7346 -38.7888
L43.9676 -39.0625
L44.2086 -39.3313
L44.4567 -39.5955
L44.711 -39.8551
L44.9708 -40.1101
L45.235 -40.3608
L45.5031 -40.6072
L45.7743 -40.8494
L46.048 -41.0874
L46.3236 -41.3214
L46.6006 -41.5514
L46.8784 -41.7774
L47.1567 -41.9997
L47.435 -42.2181
L47.713 -42.4328
L47.9904 -42.6438
L48.2669 -42.8512
L48.5421 -43.055
L48.816 -43.2553
L49.0882 -43.4521
L49.3587 -43.6455
L49.6272 -43.8356
L49.8936 -44.0224
L50.1577 -44.2059
L50.4196 -44.3862
L50.6791 -44.5633
L50.9361 -44.7374
L51.1906 -44.9085
L51.4426 -45.0765
L51.6919 -45.2417
L51.9386 -45.4039
L52.1826 -45.5634
L52.424 -45.72
L52.6627 -45.874
L52.8988 -46.0253
L53.1322 -46.174
L53.3631 -46.3202
L53.5913 -46.4639
L53.8169 -46.6051
L54.0399 -46.7439
L54.2605 -46.8804
L54.4785 -47.0147
L54.6941 -47.1466
L54.9073 -47.2764
L55.1182 -47.4041
L55.3267 -47.5297
L55.5329 -47.6532
L55.7369 -47.7747
L55.9387 -47.8943
L56.1383 -48.012
L56.3359 -48.1278
L56.5314 -48.2418
L56.725 -48.354
L56.9166 -48.4645
L57.1062 -48.5732
L57.2941 -48.6803
L57.4801 -48.7858
L57.6644 -48.8897
L57.847 -48.992
L58.028 -49.0928
L58.2074 -49.1921
L58.3852 -49.29
L58.5615 -49.3864
L58.7363 -49.4815
L58.9098 -49.5751
L59.0819 -49.6674
L59.2526 -49.7584
L59.4221 -49.8481
L59.5904 -49.9365
L59.7575 -50.0237
L59.9235 -50.1096
L60.0884 -50.1943
L60.2522 -50.2778
L60.8143 -50.3601
L61.0552 -50.0179
L61.2884 -49.5827
L61.5139 -49.1433
L61.7317 -48.7
L61.9416 -48.2528
L62.1436 -47.8018
L62.3377 -47.3473
L62.5237 -46.8893
L62.7017 -46.428
L62.8715 -45.9635
L63.0331 -45.496
L63.1865 -45.0256
L63.3316 -44.5524
L63.4684 -44.0766
L63.5969 -43.5984
L63.7169 -43.1178
L63.8285 -42.6351
L63.9316 -42.1504
L64.0261 -41.6638
L64.1122 -41.1754
L64.1897 -40.6855
L64.2586 -40.1942
L64.3189 -39.7016
L64.3706 -39.2078
L64.4136 -38.7131
L64.448 -38.2176
L64.4737 -37.7213
L64.4907 -37.2246
L64.4991 -36.7275
L64.4987 -36.2301
L64.4897 -35.7327
L64.4721 -35.2354
L64.4457 -34.7383
L64.4107 -34.2416
L64.367 -33.7454
L64.3147 -33.2499
L64.2537 -32.7552
L64.1842 -32.2616
L64.1061 -31.7691
L64.0194 -31.2778
L63.9241 -30.788
L63.8204 -30.2998
L63.7082 -29.8133
L63.5875 -29.3287
L63.4585 -28.8462
L63.3211 -28.3658
L63.1753 -27.8877
L63.0213 -27.4122
L62.8591 -26.9392
L62.6886 -26.469
L62.5101 -26.0017
L62.3234 -25.5374
L62.1288 -25.0764
L61.9262 -24.6186
L61.7157 -24.1643
L61.4973 -23.7137
L61.2712 -23.2667
L61.0374 -22.8237
L60.796 -22.3846
L60.547 -21.9498
L60.2905 -21.5191
L60.0267 -21.0929
L59.7555 -20.6713
L59.4771 -20.2543
L59.1915 -19.8421
L58.8989 -19.4348
L58.5993 -19.0326
L58.2928 -18.6356
L57.9795 -18.2438
L57.6595 -17.8574
L57.3329 -17.4766
L56.9998 -17.1014
L56.6604 -16.732
L56.3146 -16.3684
L55.9627 -16.0108
L55.6046 -15.6593
L55.2406 -15.314
L54.8707 -14.975
L54.4951 -14.6425
L54.1139 -14.3164
L53.7271 -13.9969
L53.335 -13.6841
L52.9375 -13.3781
L52.5349 -13.079
L52.1273 -12.7869
L51.7147 -12.5019
L51.2974 -12.224
L50.8754 -11.9534
L50.4488 -11.6901
L50.0179 -11.4341
z
" id="C0_2_b8d436abfa"/>
    </defs>
    <g clip-path="url(#p1bffca34e9)">
     <use style="fill:#ffffff;stroke:#000000;stroke-width:2.0;" x="0.0" xlink:href="#C0_0_a811fe30f3" y="72.0"/>
    </g>
    <g clip-path="url(#p1bffca34e9)">
     <use style="fill:#ff0000;stroke:#000000;stroke-width:2.0;" x="0.0" xlink:href="#C0_1_21ad0509e8" y="72.0"/>
    </g>
    <g clip-path="url(#p1bffca34e9)">
     <use style="fill:#ff0000;stroke:#000000;stroke-width:2.0;" x="0.0" xlink:href="#C0_2_b8d436abfa" y="72.0"/>
    </g>
   </g>
  </g>
 </g>
 <defs>
  <clipPath id="p1bffca34e9">
   <rect height="72.0" width="72.0" x="0.0" y="0.0"/>
  </clipPath>
 </defs>
</svg>
