<?xml version="1.0" encoding="utf-8" standalone="no"?>
<!DOCTYPE svg PUBLIC "-//W3C//DTD SVG 1.1//EN"
  "http://www.w3.org/Graphics/SVG/1.1/DTD/svg11.dtd">
<!-- Created with matplotlib (http://matplotlib.org/) -->
<svg height="72pt" version="1.1" viewBox="0 0 72 72" width="72pt" xmlns="http://www.w3.org/2000/svg" xmlns:xlink="http://www.w3.org/1999/xlink">
 <defs>
  <style type="text/css">
*{stroke-linecap:butt;stroke-linejoin:round;}
  </style>
 </defs>
 <g id="figure_1">
  <g id="patch_1">
   <path d="
M0 72
L72 72
L72 0
L0 0
z
" style="fill:none;"/>
  </g>
  <g id="axes_1">
   <g id="PatchCollection_1">
    <defs>
     <path d="
M36 -7.5
C43.5583 -7.5 50.808 -10.5029 56.1525 -15.8475
C61.4971 -21.192 64.5 -28.4417 64.5 -36
C64.5 -43.5583 61.4971 -50.808 56.1525 -56.1525
C50.808 -61.4971 43.5583 -64.5 36 -64.5
C28.4417 -64.5 21.192 -61.4971 15.8475 -56.1525
C10.5029 -50.808 7.5 -43.5583 7.5 -36
C7.5 -28.4417 10.5029 -21.192 15.8475 -15.8475
C21.192 -10.5029 28.4417 -7.5 36 -7.5
z
" id="C0_0_a811fe30f3"/>
     <path d="
M30.5545 -8.16106
L30.5747 -8.37718
L30.5903 -8.59546
L30.6015 -8.8158
L30.6084 -9.03811
L30.6112 -9.26228
L30.6102 -9.48823
L30.6056 -9.71588
L30.5976 -9.94514
L30.5862 -10.1759
L30.5718 -10.4082
L30.5544 -10.6418
L30.5343 -10.8768
L30.5116 -11.113
L30.4863 -11.3504
L30.4588 -11.589
L30.429 -11.8286
L30.3972 -12.0693
L30.3634 -12.3109
L30.3278 -12.5534
L30.2904 -12.7968
L30.2514 -13.0411
L30.2109 -13.2862
L30.169 -13.532
L30.1257 -13.7785
L30.0811 -14.0257
L30.0354 -14.2736
L29.9886 -14.5221
L29.9407 -14.7712
L29.8919 -15.0209
L29.8421 -15.2711
L29.7915 -15.5218
L29.7401 -15.773
L29.688 -16.0248
L29.6352 -16.277
L29.5818 -16.5296
L29.5278 -16.7827
L29.4732 -17.0362
L29.4181 -17.2901
L29.3626 -17.5445
L29.3066 -17.7992
L29.2501 -18.0543
L29.1934 -18.3099
L29.1362 -18.5658
L29.0787 -18.8221
L29.021 -19.0787
L28.9629 -19.3358
L28.9046 -19.5932
L28.846 -19.851
L28.7873 -20.1092
L28.7283 -20.3678
L28.6691 -20.6268
L28.6098 -20.8862
L28.5503 -21.1459
L28.4906 -21.4061
L28.4308 -21.6667
L28.3708 -21.9277
L28.3108 -22.1892
L28.2506 -22.4511
L28.1903 -22.7134
L28.1299 -22.9762
L28.0693 -23.2395
L28.0087 -23.5033
L27.948 -23.7675
L27.8263 -24.0322
L27.7653 -24.2975
L27.7042 -24.5633
L27.6431 -24.8296
L27.5818 -25.0965
L27.5204 -25.3639
L27.4589 -25.6319
L27.3974 -25.9004
L27.3357 -26.1696
L27.2739 -26.4394
L27.212 -26.7098
L27.15 -26.9808
L27.0878 -27.2524
L27.0256 -27.5247
L26.9631 -27.7977
L26.9006 -28.0713
L26.8378 -28.3455
L26.7749 -28.6205
L26.7119 -28.8961
L26.6486 -29.1725
L26.5851 -29.4495
L26.5215 -29.7273
L26.4576 -30.0057
L26.3935 -30.2849
L26.3291 -30.5647
L26.2645 -30.8453
L26.1996 -31.1266
L26.1344 -31.4086
L26.0689 -31.6913
L26.0031 -31.9747
L25.9369 -32.2588
L25.8704 -32.5436
L25.8035 -32.8291
L25.7362 -33.1152
L25.6684 -33.4019
L25.6002 -33.6893
L25.5315 -33.9774
L25.4624 -34.266
L25.3927 -34.5551
L25.3224 -34.8449
L25.2516 -35.1351
L25.1801 -35.4258
L25.108 -35.717
L25.0352 -36.0086
L24.9618 -36.3006
L24.8875 -36.593
L24.8125 -36.8856
L24.7366 -37.1785
L24.6599 -37.4716
L24.5822 -37.7648
L24.5036 -38.0581
L24.424 -38.3514
L24.3433 -38.6447
L24.2615 -38.9379
L24.1786 -39.2309
L24.0945 -39.5237
L24.0091 -39.8161
L23.9223 -40.1081
L23.8342 -40.3996
L23.7447 -40.6905
L23.6536 -40.9807
L23.561 -41.2701
L23.4667 -41.5587
L23.3708 -41.8462
L23.273 -42.1327
L23.1734 -42.4179
L23.072 -42.7018
L22.9685 -42.9842
L22.863 -43.2651
L22.7553 -43.5442
L22.6455 -43.8216
L22.5333 -44.0969
L22.4188 -44.3702
L22.302 -44.6412
L22.1826 -44.9099
L22.0606 -45.1761
L21.9361 -45.4396
L21.8088 -45.7003
L21.6788 -45.958
L21.546 -46.2127
L21.4102 -46.4642
L21.2716 -46.7123
L21.13 -46.9568
L20.9853 -47.1977
L20.8376 -47.4348
L20.6867 -47.6679
L20.5327 -47.8969
L20.3756 -48.1218
L20.2152 -48.3422
L20.0517 -48.5582
L19.8849 -48.7695
L19.7148 -48.976
L19.5416 -49.1777
L19.3651 -49.3744
L19.1855 -49.566
L19.0026 -49.7523
L18.8166 -49.9333
L18.6275 -50.1088
L18.4353 -50.2788
L18.24 -50.4432
L18.0418 -50.6018
L17.8406 -50.7547
L17.6365 -50.9016
L17.4296 -51.0425
L17.22 -51.1774
L17.0077 -51.3061
L16.7928 -51.4287
L16.5754 -51.545
L16.3555 -51.6551
L16.1334 -51.7587
L15.9089 -51.856
L15.6823 -51.9468
L15.4536 -52.031
L15.2229 -52.1088
L14.9904 -52.18
L14.756 -52.2445
L14.52 -52.3025
L14.2824 -52.3537
L14.0432 -52.3983
L13.8027 -52.4361
L13.5608 -52.4671
L13.3178 -52.4914
L13.0736 -52.5089
L12.8284 -52.5196
L12.5102 -52.5234
L12.2321 -52.1394
L11.9613 -51.727
L11.6977 -51.3098
L11.4416 -50.8879
L11.1929 -50.4615
L10.9519 -50.0307
L10.7184 -49.5956
L10.4926 -49.1564
L10.2746 -48.7132
L10.0645 -48.2661
L9.86224 -47.8152
L9.66795 -47.3608
L9.48167 -46.9029
L9.30348 -46.4417
L9.13342 -45.9773
L8.97154 -45.5098
L8.8179 -45.0395
L8.67253 -44.5664
L8.53549 -44.0907
L8.40682 -43.6125
L8.28655 -43.1321
L8.17472 -42.6494
L8.07137 -42.1647
L7.97653 -41.6782
L7.89022 -41.1899
L7.81247 -40.7
L7.74331 -40.2087
L7.68276 -39.7161
L7.63084 -39.2224
L7.58755 -38.7277
L7.55292 -38.2322
L7.52696 -37.736
L7.50966 -37.2393
L7.50105 -36.7422
L7.50112 -36.2448
L7.50987 -35.7474
L7.5273 -35.2501
L7.5534 -34.753
L7.58816 -34.2562
L7.63158 -33.76
L7.68364 -33.2645
L7.74433 -32.7698
L7.81362 -32.2761
L7.8915 -31.7836
L7.97794 -31.2923
L8.07292 -30.8025
L8.17641 -30.3142
L8.28837 -29.8277
L8.40877 -29.343
L8.53757 -28.8604
L8.67474 -28.38
L8.82024 -27.9018
L8.97401 -27.4262
L9.13602 -26.9531
L9.3062 -26.4828
L9.48453 -26.0154
L9.67092 -25.5511
L9.86534 -25.0899
L10.0677 -24.6321
L10.278 -24.1777
L10.4961 -23.7269
L10.722 -23.2799
L10.9556 -22.8367
L11.1968 -22.3976
L11.4455 -21.9625
L11.7018 -21.5318
L11.9654 -21.1055
L12.2364 -20.6837
L12.5146 -20.2666
L12.8 -19.8542
L13.0924 -19.4468
L13.3918 -19.0444
L13.6981 -18.6472
L14.0112 -18.2553
L14.331 -17.8688
L14.6573 -17.4878
L14.9902 -17.1124
L15.3295 -16.7428
L15.6751 -16.3791
L16.0269 -16.0213
L16.3847 -15.6696
L16.7485 -15.3242
L17.1182 -14.985
L17.4937 -14.6522
L17.8748 -14.3259
L18.2614 -14.0062
L18.6534 -13.6932
L19.0507 -13.3871
L19.4531 -13.0878
L19.8606 -12.7954
L20.273 -12.5102
L20.6902 -12.2321
L21.1121 -11.9613
L21.5385 -11.6977
L21.9693 -11.4416
L22.4044 -11.1929
L22.8436 -10.9519
L23.2868 -10.7184
L23.7339 -10.4926
L24.1848 -10.2746
L24.6392 -10.0645
L25.0971 -9.86224
L25.5583 -9.66795
L26.0227 -9.48167
L26.4902 -9.30348
L26.9605 -9.13342
L27.4336 -8.97154
L27.9093 -8.8179
L28.3875 -8.67253
L28.8679 -8.53549
L29.3506 -8.40682
L29.8353 -8.28655
z
" id="C0_1_e5c796da96"/>
     <path d="
M59.1579 -19.663
L59.0787 -19.8985
L58.9997 -20.136
L58.9209 -20.3754
L58.8422 -20.6166
L58.7635 -20.8595
L58.6847 -21.1039
L58.6059 -21.3497
L58.5268 -21.5969
L58.4475 -21.8453
L58.368 -22.0948
L58.2881 -22.3453
L58.2078 -22.5968
L58.1271 -22.8492
L58.046 -23.1023
L57.9644 -23.3562
L57.8822 -23.6108
L57.7995 -23.8659
L57.7162 -24.1216
L57.6323 -24.3778
L57.5478 -24.6344
L57.4626 -24.8914
L57.3767 -25.1487
L57.2902 -25.4064
L57.2029 -25.6643
L57.1149 -25.9224
L57.0261 -26.1808
L56.9366 -26.4393
L56.8464 -26.6979
L56.7553 -26.9567
L56.6635 -27.2155
L56.5708 -27.4744
L56.4773 -27.7334
L56.383 -27.9925
L56.2879 -28.2515
L56.1919 -28.5106
L56.0951 -28.7697
L55.9974 -29.0289
L55.8988 -29.288
L55.7994 -29.5471
L55.6991 -29.8062
L55.5979 -30.0653
L55.4958 -30.3243
L55.3929 -30.5834
L55.289 -30.8424
L55.1842 -31.1015
L55.0785 -31.3605
L54.9719 -31.6196
L54.8644 -31.8787
L54.7559 -32.1377
L54.6465 -32.3968
L54.5361 -32.656
L54.4248 -32.9151
L54.3126 -33.1744
L54.1994 -33.4337
L54.0852 -33.693
L53.97 -33.9525
L53.8539 -34.212
L53.7369 -34.4716
L53.6188 -34.7314
L53.4997 -34.9912
L53.3797 -35.2513
L53.2586 -35.5114
L53.1366 -35.7718
L53.0136 -36.0323
L52.8895 -36.293
L52.7644 -36.5539
L52.6384 -36.815
L52.5113 -37.0764
L52.3832 -37.338
L52.2541 -37.5998
L52.1239 -37.862
L51.9927 -38.1243
L51.8606 -38.387
L51.7273 -38.65
L51.5931 -38.9133
L51.4579 -39.1769
L51.3216 -39.4409
L51.1843 -39.7052
L51.0461 -39.9698
L50.9068 -40.2348
L50.7665 -40.5002
L50.6253 -40.7659
L50.483 -41.0321
L50.3398 -41.2986
L50.1956 -41.5655
L50.0505 -41.8328
L49.9045 -42.1005
L49.7576 -42.3686
L49.6097 -42.6372
L49.461 -42.9061
L49.3115 -43.1754
L49.1611 -43.4452
L49.0099 -43.7154
L48.858 -43.9859
L48.7053 -44.2569
L48.5519 -44.5283
L48.3978 -44.8001
L48.2431 -45.0722
L48.0878 -45.3447
L47.932 -45.6176
L47.7756 -45.8909
L47.6189 -46.1645
L47.4617 -46.4385
L47.3042 -46.7128
L47.1464 -46.9873
L46.9885 -47.2622
L46.8304 -47.5374
L46.6722 -47.8128
L46.514 -48.0885
L46.356 -48.3644
L46.1981 -48.6405
L46.0405 -48.9167
L45.8832 -49.1931
L45.7264 -49.4697
L45.5701 -49.7463
L45.4145 -50.0231
L45.2597 -50.2998
L45.1057 -50.5766
L44.9527 -50.8534
L44.8009 -51.1302
L44.6503 -51.4068
L44.501 -51.6834
L44.3532 -51.9598
L44.2071 -52.2361
L44.0627 -52.5121
L43.9203 -52.7879
L43.7798 -53.0634
L43.6416 -53.3385
L43.5057 -53.6133
L43.3722 -53.8876
L43.2414 -54.1615
L43.1133 -54.435
L42.9882 -54.7078
L42.8661 -54.9801
L42.7472 -55.2517
L42.6316 -55.5226
L42.5195 -55.7928
L42.4111 -56.0622
L42.3064 -56.3307
L42.2056 -56.5984
L42.1088 -56.8651
L42.0161 -57.1307
L41.9278 -57.3953
L41.8438 -57.6588
L41.7643 -57.9211
L41.6894 -58.1821
L41.6192 -58.4418
L41.5538 -58.7001
L41.4933 -58.957
L41.4377 -59.2124
L41.3872 -59.4661
L41.3418 -59.7183
L41.3015 -59.9687
L41.2665 -60.2173
L41.2367 -60.464
L41.2123 -60.7089
L41.1932 -60.9517
L41.1794 -61.1924
L41.1711 -61.431
L41.1682 -61.6674
L41.1708 -61.9014
L41.1788 -62.1331
L41.1923 -62.3624
L41.2113 -62.5892
L41.2357 -62.8133
L41.2656 -63.0349
L41.3009 -63.2537
L41.3417 -63.4697
L41.3879 -63.6828
L41.9426 -63.8931
L42.4281 -63.8736
L42.9117 -63.7656
L43.3932 -63.6492
L43.8724 -63.5244
L44.3493 -63.3911
L44.8236 -63.2496
L45.2952 -63.0997
L45.764 -62.9416
L46.2298 -62.7753
L46.6925 -62.6008
L47.1519 -62.4182
L47.6079 -62.2276
L48.0604 -62.0289
L48.5093 -61.8224
L48.9543 -61.608
L49.3953 -61.3858
L49.8323 -61.1558
L50.2651 -60.9182
L50.6935 -60.673
L51.1175 -60.4203
L51.5368 -60.1601
L51.9515 -59.8926
L52.3612 -59.6178
L52.766 -59.3358
L53.1657 -59.0467
L53.5601 -58.7506
L53.9492 -58.4476
L54.3328 -58.1377
L54.7109 -57.821
L55.0832 -57.4978
L55.4497 -57.1679
L55.8103 -56.8317
L56.1649 -56.4891
L56.5133 -56.1402
L56.8555 -55.7852
L57.1913 -55.4242
L57.5207 -55.0572
L57.8435 -54.6845
L58.1596 -54.3061
L58.469 -53.9221
L58.7716 -53.5326
L59.0672 -53.1378
L59.3558 -52.7378
L59.6373 -52.3326
L59.9116 -51.9225
L60.1786 -51.5076
L60.4383 -51.0879
L60.6904 -50.6636
L60.9351 -50.2349
L61.1722 -49.8018
L61.4016 -49.3645
L61.6233 -48.9232
L61.8371 -48.4779
L62.0431 -48.0288
L62.2412 -47.576
L62.4313 -47.1198
L62.6133 -46.6601
L62.7872 -46.1972
L62.953 -45.7312
L63.1105 -45.2622
L63.2598 -44.7904
L63.4008 -44.3159
L63.5334 -43.8389
L63.6576 -43.3595
L63.7735 -42.8778
L63.8808 -42.3941
L63.9797 -41.9084
L64.07 -41.4209
L64.1518 -40.9318
L64.2251 -40.4411
L64.2897 -39.9492
L64.3457 -39.456
L64.3931 -38.9617
L64.4318 -38.4666
L64.4618 -37.9706
L64.4832 -37.4741
L64.496 -36.9772
L64.5 -36.4799
L64.4953 -35.9825
L64.482 -35.4852
L64.46 -34.9879
L64.4294 -34.491
L64.39 -33.9945
L64.342 -33.4987
L64.2854 -33.0036
L64.2202 -32.5094
L64.1464 -32.0163
L64.064 -31.5244
L63.973 -31.0338
L63.8736 -30.5448
L63.7656 -30.0574
L63.6492 -29.5719
L63.5244 -29.0883
L63.3911 -28.6068
L63.2496 -28.1276
L63.0997 -27.6507
L62.9416 -27.1764
L62.7753 -26.7048
L62.6008 -26.236
L62.4182 -25.7702
L62.2276 -25.3075
L62.0289 -24.8481
L61.8224 -24.3921
L61.608 -23.9396
L61.3858 -23.4907
L61.1558 -23.0457
L60.9182 -22.6047
L60.673 -22.1677
L60.4203 -21.7349
L60.1601 -21.3065
L59.8926 -20.8825
L59.6178 -20.4632
z
" id="C0_2_76397d7ea6"/>
    </defs>
    <g clip-path="url(#p1bffca34e9)">
     <use style="fill:#ff0000;stroke:#000000;stroke-width:2.0;" x="0.0" xlink:href="#C0_0_a811fe30f3" y="72.0"/>
    </g>
    <g clip-path="url(#p1bffca34e9)">
     <use style="fill:#ffffff;stroke:#000000;stroke-width:2.0;" x="0.0" xlink:href="#C0_1_e5c796da96" y="72.0"/>
    </g>
    <g clip-path="url(#p1bffca34e9)">
     <use style="fill:#ffffff;stroke:#000000;stroke-width:2.0;" x="0.0" xlink:href="#C0_2_76397d7ea6" y="72.0"/>
    </g>
   </g>
  </g>
 </g>
 <defs>
  <clipPath id="p1bffca34e9">
   <rect height="72.0" width="72.0" x="0.0" y="0.0"/>
  </clipPath>
 </defs>
</svg>
