<?xml version="1.0" encoding="utf-8" standalone="no"?>
<!DOCTYPE svg PUBLIC "-//W3C//DTD SVG 1.1//EN"
  "http://www.w3.org/Graphics/SVG/1.1/DTD/svg11.dtd">
<!-- Created with matplotlib (http://matplotlib.org/) -->
<svg height="72pt" version="1.1" viewBox="0 0 72 72" width="72pt" xmlns="http://www.w3.org/2000/svg" xmlns:xlink="http://www.w3.org/1999/xlink">
 <defs>
  <style type="text/css">
*{stroke-linecap:butt;stroke-linejoin:round;}
  </style>
 </defs>
 <g id="figure_1">
  <g id="patch_1">
   <path d="
M0 72
L72 72
L72 0
L0 0
z
" style="fill:none;"/>
  </g>
  <g id="axes_1">
   <g id="PatchCollection_1">
    <defs>
     <path d="
M36 -7.5
C43.5583 -7.5 50.808 -10.5029 56.1525 -15.8475
C61.4971 -21.192 64.5 -28.4417 64.5 -36
C64.5 -43.5583 61.4971 -50.808 56.1525 -56.1525
C50.808 -61.4971 43.5583 -64.5 36 -64.5
C28.4417 -64.5 21.192 -61.4971 15.8475 -56.1525
C10.5029 -50.808 7.5 -43.5583 7.5 -36
C7.5 -28.4417 10.5029 -21.192 15.8475 -15.8475
C21.192 -10.5029 28.4417 -7.5 36 -7.5
z
" id="C0_0_a811fe30f3"/>
     <path d="
M51.7662 -59.6264
L51.9437 -59.3122
L52.1111 -58.9973
L52.2685 -58.682
L52.4164 -58.3666
L52.5549 -58.0513
L52.6842 -57.7362
L52.8048 -57.4215
L52.9168 -57.1075
L53.0206 -56.7943
L53.1163 -56.4819
L53.2043 -56.1705
L53.2848 -55.8603
L53.358 -55.5513
L53.4241 -55.2437
L53.4835 -54.9374
L53.5363 -54.6327
L53.5828 -54.3294
L53.6232 -54.0278
L53.6576 -53.7278
L53.6863 -53.4295
L53.7095 -53.133
L53.7273 -52.8381
L53.74 -52.5451
L53.7477 -52.2538
L53.7505 -51.9644
L53.7487 -51.6767
L53.7424 -51.3909
L53.7317 -51.1069
L53.7167 -50.8247
L53.6977 -50.5443
L53.6747 -50.2657
L53.6479 -49.9889
L53.6173 -49.7139
L53.5831 -49.4406
L53.5453 -49.1691
L53.5042 -48.8992
L53.4598 -48.6311
L53.4121 -48.3646
L53.3612 -48.0998
L53.3073 -47.8366
L53.2504 -47.5749
L53.1906 -47.3149
L53.128 -47.0564
L53.0625 -46.7993
L52.9944 -46.5438
L52.9235 -46.2896
L52.8501 -46.0369
L52.7741 -45.7856
L52.6955 -45.5356
L52.6145 -45.2869
L52.5311 -45.0395
L52.4452 -44.7934
L52.357 -44.5484
L52.2665 -44.3047
L52.1736 -44.062
L52.0784 -43.8205
L51.981 -43.5801
L51.8813 -43.3408
L51.7795 -43.1024
L51.6754 -42.8651
L51.5691 -42.6287
L51.4606 -42.3933
L51.3499 -42.1587
L51.1221 -41.9251
L51.0049 -41.6922
L50.8856 -41.4602
L50.7641 -41.229
L50.6404 -40.9986
L50.5145 -40.7689
L50.3865 -40.5399
L50.2563 -40.3116
L50.1238 -40.084
L49.9892 -39.857
L49.8523 -39.6307
L49.7132 -39.4049
L49.5718 -39.1798
L49.4282 -38.9553
L49.2822 -38.7313
L49.1339 -38.5078
L48.9833 -38.2849
L48.8304 -38.0625
L48.675 -37.8407
L48.5172 -37.6193
L48.357 -37.3984
L48.1944 -37.1781
L48.0292 -36.9582
L47.8615 -36.7389
L47.6913 -36.52
L47.5185 -36.3016
L47.3431 -36.0838
L47.165 -35.8665
L46.9843 -35.6497
L46.8008 -35.4334
L46.6147 -35.2177
L46.4257 -35.0026
L46.2339 -34.7881
L46.0393 -34.5743
L45.8418 -34.3611
L45.6415 -34.1486
L45.4381 -33.9369
L45.2318 -33.7259
L45.0225 -33.5158
L44.8102 -33.3065
L44.5948 -33.0982
L44.3763 -32.8908
L44.1546 -32.6846
L43.9299 -32.4794
L43.7019 -32.2755
L43.4708 -32.0728
L43.2364 -31.8715
L42.9988 -31.6717
L42.7579 -31.4734
L42.5138 -31.2769
L42.2664 -31.0821
L42.0157 -30.8892
L41.7617 -30.6983
L41.5044 -30.5096
L41.2439 -30.3232
L40.98 -30.1393
L40.7129 -29.958
L40.4425 -29.7795
L40.1689 -29.6039
L39.892 -29.4314
L39.6121 -29.2623
L39.3289 -29.0967
L39.0427 -28.9349
L38.7535 -28.777
L38.4612 -28.6233
L38.1661 -28.474
L37.8681 -28.3293
L37.5674 -28.1895
L37.264 -28.0549
L36.9581 -27.9257
L36.6497 -27.8021
L36.3389 -27.6845
L36.026 -27.5731
L35.7109 -27.4682
L35.3939 -27.3701
L35.0751 -27.279
L34.7547 -27.1952
L34.4328 -27.119
L34.1096 -27.0507
L33.7853 -26.9905
L33.4601 -26.9387
L33.1342 -26.8955
L32.8078 -26.8612
L32.4811 -26.8359
L32.1543 -26.8198
L31.8276 -26.8133
L31.5014 -26.8163
L31.1757 -26.829
L30.8509 -26.8516
L30.5271 -26.8841
L30.2047 -26.9265
L29.8838 -26.979
L29.5646 -27.0415
L29.2475 -27.114
L28.9326 -27.1964
L28.6201 -27.2886
L28.3103 -27.3905
L28.0034 -27.5021
L27.6995 -27.623
L27.3989 -27.7532
L27.1017 -27.8924
L26.8081 -28.0405
L26.5183 -28.197
L26.2324 -28.3619
L25.9507 -28.5349
L25.6731 -28.7155
L25.3999 -28.9037
L25.1311 -29.0989
L24.8669 -29.3011
L24.6073 -29.5098
L24.3524 -29.7248
L24.1024 -29.9457
L23.8572 -30.1722
L23.617 -30.4041
L23.3817 -30.6411
L23.1514 -30.8828
L22.9262 -31.129
L22.706 -31.3793
L22.4909 -31.6337
L22.2809 -31.8917
L22.076 -32.1531
L21.8762 -32.4177
L21.6814 -32.6852
L21.4917 -32.9555
L21.307 -33.2283
L21.1273 -33.5034
L20.9527 -33.7806
L20.7829 -34.0597
L20.6181 -34.3406
L20.4582 -34.6231
L20.3031 -34.907
L20.1528 -35.1921
L20.0073 -35.4784
L19.8664 -35.7657
L19.7302 -36.0539
L19.5987 -36.3428
L19.4717 -36.6324
L19.3492 -36.9225
L19.2311 -37.2131
L19.1175 -37.504
L19.0082 -37.7952
L18.9033 -38.0867
L18.8026 -38.3782
L18.7061 -38.6699
L18.6137 -38.9615
L18.5255 -39.2531
L18.4414 -39.5447
L18.3612 -39.8361
L18.2851 -40.1273
L18.2128 -40.4183
L18.1445 -40.7091
L18.08 -40.9996
L18.0193 -41.2898
L17.9624 -41.5798
L17.9093 -41.8693
L17.8598 -42.1586
L17.814 -42.4475
L17.7719 -42.736
L17.7333 -43.0242
L17.6984 -43.312
L17.667 -43.5994
L17.6392 -43.8864
L17.6149 -44.173
L17.5941 -44.4593
L17.5768 -44.7452
L17.563 -45.0308
L17.5526 -45.316
L17.5457 -45.6008
L17.5423 -45.8853
L17.5423 -46.1695
L17.5458 -46.4533
L17.5527 -46.7369
L17.563 -47.0202
L17.5769 -47.3031
L17.5942 -47.5859
L17.615 -47.8683
L17.6392 -48.1505
L17.667 -48.4326
L17.6984 -48.7143
L17.7332 -48.9959
L17.7717 -49.2774
L17.8138 -49.5586
L17.8595 -49.8397
L17.9088 -50.1206
L17.9619 -50.4015
L18.0187 -50.6822
L18.0793 -50.9627
L18.1438 -51.2432
L18.2121 -51.5236
L18.2843 -51.8039
L18.3606 -52.0842
L18.4408 -52.3643
L18.5252 -52.6444
L18.6137 -52.9244
L18.7065 -53.2044
L18.8035 -53.4842
L18.9049 -53.764
L19.0108 -54.0437
L19.1212 -54.3233
L19.2362 -54.6028
L19.3559 -54.8822
L19.4803 -55.1615
L19.6097 -55.4405
L19.744 -55.7194
L19.8834 -55.9981
L20.028 -56.2766
L20.1778 -56.5547
L20.333 -56.8325
L20.4937 -57.11
L20.66 -57.387
L20.832 -57.6636
L21.0099 -57.9396
L21.1938 -58.215
L21.3837 -58.4898
L21.5798 -58.7637
L21.7823 -59.0369
L21.9913 -59.3091
L22.2069 -59.5802
L22.4292 -59.8502
L22.6583 -60.1189
L22.8945 -60.3863
L23.1378 -60.6521
L23.3884 -60.9162
L23.6463 -61.1785
L23.9118 -61.4388
L24.3204 -61.697
L24.7759 -61.9969
L25.2348 -62.1968
L25.697 -62.3887
L26.1623 -62.5725
L26.6307 -62.7483
L27.1018 -62.9159
L27.5757 -63.0753
L28.0522 -63.2265
L28.531 -63.3694
L29.0122 -63.5039
L29.4955 -63.6301
L29.9807 -63.7478
L30.4678 -63.8571
L30.9566 -63.9579
L31.4469 -64.0502
L31.9386 -64.134
L32.4315 -64.2091
L32.9256 -64.2757
L33.4205 -64.3337
L33.9163 -64.383
L34.4126 -64.4237
L34.9095 -64.4558
L35.4067 -64.4791
L35.9041 -64.4938
L36.4015 -64.4998
L36.8988 -64.4972
L37.3958 -64.4858
L37.8924 -64.4658
L38.3884 -64.4371
L38.8836 -64.3997
L39.378 -64.3537
L39.8714 -64.2991
L40.3636 -64.2358
L40.8545 -64.164
L41.3439 -64.0835
L41.8316 -63.9945
L42.3176 -63.897
L42.8017 -63.791
L43.2836 -63.6765
L43.7634 -63.5536
L44.2408 -63.4222
L44.7157 -63.2826
L45.1879 -63.1346
L45.6574 -62.9784
L46.1239 -62.8139
L46.5873 -62.6413
L47.0475 -62.4605
L47.5043 -62.2717
L47.9576 -62.0749
L48.4073 -61.8702
L48.8532 -61.6575
L49.2952 -61.4371
L49.7331 -61.2089
L50.1668 -60.973
L50.5963 -60.7295
L51.0213 -60.4785
z
" id="C0_1_78b651ae3c"/>
     <path d="
M47.8021 -10.0757
L47.4275 -10.0361
L47.0511 -10.0005
L46.6727 -9.96877
L46.2924 -9.94091
L45.9103 -9.91688
L45.5264 -9.89669
L45.1406 -9.88028
L44.7531 -9.86763
L44.3638 -9.8587
L43.9728 -9.85344
L43.5802 -9.85181
L43.186 -9.85375
L42.7903 -9.85919
L42.3931 -9.86808
L41.9944 -9.88032
L41.5944 -9.89585
L41.1931 -9.91457
L40.7906 -9.93638
L40.3869 -9.96117
L39.9821 -9.98884
L39.5763 -10.0193
L39.1696 -10.0523
L38.7621 -10.0878
L38.3538 -10.1257
L37.9449 -10.1657
L37.5353 -10.2077
L37.1253 -10.2516
L36.7149 -10.2972
L36.3041 -10.3442
L35.8932 -10.3926
L35.4821 -10.4421
L35.0709 -10.4925
L34.6598 -10.5436
L34.2489 -10.5954
L33.8381 -10.6475
L33.4276 -10.6998
L33.0175 -10.7521
L32.6079 -10.8043
L32.1988 -10.8562
L31.7903 -10.9077
L31.3825 -10.9587
L30.9754 -11.0089
L30.5692 -11.0584
L30.1638 -11.1071
L29.7594 -11.1548
L29.356 -11.2016
L28.9537 -11.2475
L28.5525 -11.2924
L28.1525 -11.3363
L27.7538 -11.3793
L27.3563 -11.4215
L26.9603 -11.4628
L26.5656 -11.5035
L26.1725 -11.5435
L25.7809 -11.5831
L25.3909 -11.6223
L25.0025 -11.6612
L24.6158 -11.7001
L24.2309 -11.739
L23.8478 -11.7781
L23.4666 -11.8176
L23.0873 -11.8576
L22.7099 -11.8982
L22.3346 -11.9397
L21.9613 -11.9821
L21.5901 -12.0256
L21.2211 -12.0705
L20.8542 -12.1167
L20.8749 -12.1645
L21.2988 -11.8446
L21.7271 -11.5843
L22.1598 -11.3315
L22.5968 -11.0861
L23.0378 -10.8484
L23.4827 -10.6183
L23.9315 -10.396
L24.3839 -10.1814
L24.8399 -9.9747
L25.2992 -9.77594
L25.7619 -9.58516
L26.2276 -9.40243
L26.6964 -9.2278
L27.1679 -9.06133
L27.6422 -8.90306
L28.119 -8.75304
L28.5982 -8.61133
L29.0796 -8.47796
L29.5632 -8.35297
L30.0487 -8.2364
L30.536 -8.12829
L31.025 -8.02867
L31.5155 -7.93757
L32.0074 -7.85502
L32.5005 -7.78105
L32.9947 -7.71566
L33.4898 -7.6589
L33.9856 -7.61076
L34.4821 -7.57128
L34.979 -7.54045
L35.4762 -7.51829
L35.9736 -7.50481
L36.471 -7.50001
L36.9683 -7.50389
L37.4652 -7.51645
L37.9617 -7.53769
L38.4576 -7.5676
L38.9528 -7.60616
L39.4471 -7.65338
L39.9403 -7.70923
L40.4323 -7.7737
L40.923 -7.84677
L41.4121 -7.92841
L41.8997 -8.0186
L42.3854 -8.11732
L42.8692 -8.22453
L43.3508 -8.3402
L43.8303 -8.46429
L44.3073 -8.59678
L44.7819 -8.73761
L45.2537 -8.88674
L45.7228 -9.04414
L46.1888 -9.20974
L46.6518 -9.38351
L47.1115 -9.56538
z
" id="C0_2_a38ba80bc5"/>
    </defs>
    <g clip-path="url(#p1bffca34e9)">
     <use style="fill:#ffffff;stroke:#000000;stroke-width:2.0;" x="0.0" xlink:href="#C0_0_a811fe30f3" y="72.0"/>
    </g>
    <g clip-path="url(#p1bffca34e9)">
     <use style="fill:#ff0000;stroke:#000000;stroke-width:2.0;" x="0.0" xlink:href="#C0_1_78b651ae3c" y="72.0"/>
    </g>
    <g clip-path="url(#p1bffca34e9)">
     <use style="fill:#ff0000;stroke:#000000;stroke-width:2.0;" x="0.0" xlink:href="#C0_2_a38ba80bc5" y="72.0"/>
    </g>
   </g>
  </g>
 </g>
 <defs>
  <clipPath id="p1bffca34e9">
   <rect height="72.0" width="72.0" x="0.0" y="0.0"/>
  </clipPath>
 </defs>
</svg>
