<?xml version="1.0" encoding="utf-8" standalone="no"?>
<!DOCTYPE svg PUBLIC "-//W3C//DTD SVG 1.1//EN"
  "http://www.w3.org/Graphics/SVG/1.1/DTD/svg11.dtd">
<!-- Created with matplotlib (http://matplotlib.org/) -->
<svg height="72pt" version="1.1" viewBox="0 0 72 72" width="72pt" xmlns="http://www.w3.org/2000/svg" xmlns:xlink="http://www.w3.org/1999/xlink">
 <defs>
  <style type="text/css">
*{stroke-linecap:butt;stroke-linejoin:round;}
  </style>
 </defs>
 <g id="figure_1">
  <g id="patch_1">
   <path d="
M0 72
L72 72
L72 0
L0 0
z
" style="fill:none;"/>
  </g>
  <g id="axes_1">
   <g id="PatchCollection_1">
    <defs>
     <path d="
M36 -7.5
C43.5583 -7.5 50.808 -10.5029 56.1525 -15.8475
C61.4971 -21.192 64.5 -28.4417 64.5 -36
C64.5 -43.5583 61.4971 -50.808 56.1525 -56.1525
C50.808 -61.4971 43.5583 -64.5 36 -64.5
C28.4417 -64.5 21.192 -61.4971 15.8475 -56.1525
C10.5029 -50.808 7.5 -43.5583 7.5 -36
C7.5 -28.4417 10.5029 -21.192 15.8475 -15.8475
C21.192 -10.5029 28.4417 -7.5 36 -7.5
z
" id="C0_0_a811fe30f3"/>
     <path d="
M32.1115 -23.1101
L32.3832 -23.1023
L32.6551 -23.0966
L32.9272 -23.0932
L33.1995 -23.0918
L33.472 -23.0927
L33.7449 -23.0957
L34.0182 -23.1008
L34.2918 -23.1082
L34.5659 -23.1178
L34.8404 -23.1295
L35.1155 -23.1435
L35.391 -23.1597
L35.6672 -23.1782
L35.944 -23.199
L36.2214 -23.2221
L36.4994 -23.2475
L36.7782 -23.2753
L37.0577 -23.3054
L37.338 -23.338
L37.6191 -23.373
L37.901 -23.4106
L38.1838 -23.4506
L38.4675 -23.4933
L38.752 -23.5385
L39.0375 -23.5865
L39.3239 -23.6371
L39.6113 -23.6905
L39.8997 -23.7468
L40.189 -23.8059
L40.4793 -23.8679
L40.7707 -23.933
L41.063 -24.0011
L41.3564 -24.0724
L41.6508 -24.1468
L41.9462 -24.2245
L42.2425 -24.3056
L42.5398 -24.39
L42.8381 -24.478
L43.1373 -24.5696
L43.4374 -24.6648
L43.7384 -24.7638
L44.0402 -24.8666
L44.3427 -24.9734
L44.6459 -25.0841
L44.9498 -25.199
L45.2543 -25.3182
L45.5592 -25.4416
L45.8645 -25.5695
L46.1702 -25.7019
L46.476 -25.839
L46.7819 -25.9808
L47.0877 -26.1274
L47.3934 -26.279
L47.6986 -26.4357
L48.0033 -26.5975
L48.3074 -26.7647
L48.6105 -26.9372
L48.9124 -27.1153
L49.2131 -27.299
L49.5121 -27.4884
L49.8092 -27.6837
L50.1043 -27.8849
L50.3968 -28.0921
L50.6867 -28.3055
L50.9734 -28.5251
L51.2567 -28.751
L51.5361 -28.9834
L51.8113 -29.2222
L52.0819 -29.4675
L52.3475 -29.7195
L52.6075 -29.9781
L52.8615 -30.2434
L53.109 -30.5153
L53.3495 -30.7941
L53.5825 -31.0795
L53.8074 -31.3716
L54.0237 -31.6703
L54.2309 -31.9756
L54.4284 -32.2873
L54.6156 -32.6055
L54.7921 -32.9298
L54.9573 -33.2602
L55.1106 -33.5964
L55.2517 -33.9383
L55.38 -34.2855
L55.4952 -34.6377
L55.5968 -34.9947
L55.6846 -35.356
L55.7584 -35.7214
L55.8178 -36.0903
L55.8628 -36.4624
L55.8933 -36.8371
L55.9093 -37.2141
L55.9108 -37.5929
L55.898 -37.9729
L55.871 -38.3537
L55.8301 -38.7347
L55.7754 -39.1156
L55.7075 -39.4957
L55.6265 -39.8747
L55.5329 -40.2521
L55.4272 -40.6275
L55.3096 -41.0004
L55.1809 -41.3705
L55.0413 -41.7375
L54.8913 -42.1008
L54.7315 -42.4604
L54.5623 -42.8158
L54.3842 -43.1669
L54.1977 -43.5133
L54.0032 -43.8548
L53.8012 -44.1913
L53.5921 -44.5227
L53.3764 -44.8486
L53.1544 -45.1691
L52.9265 -45.484
L52.6933 -45.7933
L52.4549 -46.0968
L52.2117 -46.3945
L51.9642 -46.6863
L51.7126 -46.9723
L51.4572 -47.2524
L51.1983 -47.5266
L50.9362 -47.795
L50.6712 -48.0575
L50.4034 -48.3142
L50.1332 -48.5651
L49.8608 -48.8102
L49.5862 -49.0496
L49.3099 -49.2834
L49.0318 -49.5116
L48.7523 -49.7343
L48.4714 -49.9515
L48.1893 -50.1633
L47.9061 -50.3698
L47.622 -50.5711
L47.3371 -50.7672
L47.0514 -50.9583
L46.7652 -51.1443
L46.4784 -51.3254
L46.1912 -51.5017
L45.9036 -51.6732
L45.6158 -51.84
L45.3277 -52.0022
L45.0394 -52.1599
L44.751 -52.3132
L44.4625 -52.4621
L44.174 -52.6066
L43.8855 -52.747
L43.597 -52.8832
L43.3085 -53.0153
L43.0201 -53.1434
L42.7318 -53.2676
L42.4436 -53.3879
L42.1555 -53.5044
L41.8675 -53.6171
L41.5796 -53.7261
L41.2918 -53.8315
L41.0041 -53.9333
L40.7165 -54.0315
L40.429 -54.1263
L40.1416 -54.2176
L39.8543 -54.3055
L39.567 -54.3901
L39.2798 -54.4713
L38.9925 -54.5493
L38.7053 -54.6241
L38.418 -54.6956
L38.1307 -54.764
L37.8433 -54.8292
L37.5558 -54.8912
L37.2682 -54.9502
L36.9805 -55.0061
L36.6925 -55.0589
L36.4044 -55.1087
L36.116 -55.1554
L35.8273 -55.1991
L35.5384 -55.2398
L35.2491 -55.2775
L34.9594 -55.3121
L34.6693 -55.3437
L34.3788 -55.3723
L34.0878 -55.3979
L33.7964 -55.4204
L33.5043 -55.4399
L33.2118 -55.4564
L32.9186 -55.4697
L32.6248 -55.48
L32.3303 -55.4871
L32.0351 -55.4911
L31.7392 -55.4919
L31.4426 -55.4894
L31.1451 -55.4838
L30.8468 -55.4749
L30.5477 -55.4626
L30.2477 -55.447
L29.9467 -55.4279
L29.6449 -55.4054
L29.3421 -55.3794
L29.0383 -55.3498
L28.7335 -55.3166
L28.4277 -55.2797
L28.1208 -55.239
L27.8129 -55.1944
L27.5039 -55.146
L27.1939 -55.0936
L26.8828 -55.0371
L26.5706 -54.9764
L26.2573 -54.9115
L25.9429 -54.8423
L25.6275 -54.7687
L25.311 -54.6905
L24.9934 -54.6077
L24.6748 -54.5201
L24.3552 -54.4277
L24.0347 -54.3304
L23.7132 -54.228
L23.3908 -54.1204
L23.0675 -54.0075
L22.7435 -53.8891
L22.4187 -53.7652
L22.0933 -53.6356
L21.7674 -53.5001
L21.4409 -53.3587
L21.1141 -53.2112
L20.787 -53.0574
L20.4598 -52.8973
L20.1325 -52.7306
L19.8054 -52.5573
L19.4786 -52.3772
L19.1522 -52.1902
L18.8264 -51.996
L18.5015 -51.7947
L18.1777 -51.586
L17.8551 -51.3699
L17.534 -51.1461
L17.2147 -50.9147
L16.8975 -50.6754
L16.5827 -50.4283
L16.2705 -50.1731
L15.9613 -49.9098
L15.6556 -49.6384
L15.3535 -49.3587
L15.0556 -49.0708
L14.7622 -48.7747
L14.4739 -48.4703
L14.1909 -48.1576
L13.9139 -47.8367
L13.6433 -47.5077
L13.3796 -47.1707
L13.1233 -46.8258
L12.8749 -46.4731
L12.6351 -46.1128
L12.4044 -45.7453
L12.1833 -45.3706
L11.9724 -44.9892
L11.7722 -44.6014
L11.5834 -44.2075
L11.4065 -43.808
L11.242 -43.4033
L11.0904 -42.994
L10.9522 -42.5805
L10.8279 -42.1634
L10.7178 -41.7434
L10.6224 -41.321
L10.5419 -40.8968
L10.4766 -40.4716
L10.4266 -40.046
L10.3922 -39.6206
L10.3733 -39.1962
L10.3699 -38.7733
L10.3819 -38.3526
L10.4092 -37.9348
L10.4516 -37.5203
L10.5087 -37.1098
L10.5803 -36.7038
L10.6659 -36.3028
L10.7652 -35.9071
L10.8776 -35.5173
L11.0026 -35.1336
L11.1397 -34.7563
L11.2884 -34.3858
L11.4482 -34.0222
L11.6184 -33.6658
L11.7985 -33.3167
L11.988 -32.9751
L12.1862 -32.6409
L12.3927 -32.3144
L12.607 -31.9955
L12.8284 -31.6842
L13.0566 -31.3806
L13.291 -31.0846
L13.5312 -30.7962
L13.7767 -30.5153
L14.0271 -30.2418
L14.282 -29.9757
L14.5411 -29.7169
L14.8039 -29.4652
L15.0701 -29.2206
L15.3394 -28.9829
L15.6115 -28.7521
L15.8861 -28.5279
L16.1629 -28.3104
L16.4418 -28.0992
L16.7223 -27.8944
L17.0044 -27.6957
L17.2877 -27.5031
L17.5722 -27.3164
L17.8577 -27.1354
L18.1439 -26.9601
L18.4307 -26.7903
L18.718 -26.6258
L19.0056 -26.4666
L19.2935 -26.3124
L19.5815 -26.1633
L19.8696 -26.019
L20.1575 -25.8795
L20.4453 -25.7446
L20.7329 -25.6142
L21.0202 -25.4882
L21.3072 -25.3664
L21.5938 -25.2488
L21.8799 -25.1353
L22.1655 -25.0258
L22.4507 -24.9201
L22.7353 -24.8183
L23.0193 -24.72
L23.3027 -24.6254
L23.5855 -24.5343
L23.8678 -24.4466
L24.1494 -24.3623
L24.4304 -24.2812
L24.7107 -24.2033
L24.9905 -24.1285
L25.2696 -24.0568
L25.5482 -23.988
L25.8262 -23.9222
L26.1036 -23.8593
L26.3804 -23.7991
L26.6567 -23.7417
L26.9325 -23.687
L27.2078 -23.635
L27.4826 -23.5856
L27.757 -23.5387
L28.0309 -23.4943
L28.3045 -23.4525
L28.5777 -23.413
L28.8506 -23.376
L29.1232 -23.3413
L29.3955 -23.309
L29.6676 -23.279
L29.9395 -23.2514
L30.2112 -23.2259
L30.4828 -23.2028
L30.7542 -23.1818
L31.0257 -23.1631
L31.2971 -23.1466
L31.5685 -23.1322
z
" id="C0_1_e11743fa16"/>
    </defs>
    <g clip-path="url(#p1bffca34e9)">
     <use style="fill:#ffffff;stroke:#000000;stroke-width:2.0;" x="0.0" xlink:href="#C0_0_a811fe30f3" y="72.0"/>
    </g>
    <g clip-path="url(#p1bffca34e9)">
     <use style="fill:#ff0000;stroke:#000000;stroke-width:2.0;" x="0.0" xlink:href="#C0_1_e11743fa16" y="72.0"/>
    </g>
   </g>
  </g>
 </g>
 <defs>
  <clipPath id="p1bffca34e9">
   <rect height="72.0" width="72.0" x="0.0" y="0.0"/>
  </clipPath>
 </defs>
</svg>
