<?xml version="1.0" encoding="utf-8" standalone="no"?>
<!DOCTYPE svg PUBLIC "-//W3C//DTD SVG 1.1//EN"
  "http://www.w3.org/Graphics/SVG/1.1/DTD/svg11.dtd">
<!-- Created with matplotlib (http://matplotlib.org/) -->
<svg height="72pt" version="1.1" viewBox="0 0 72 72" width="72pt" xmlns="http://www.w3.org/2000/svg" xmlns:xlink="http://www.w3.org/1999/xlink">
 <defs>
  <style type="text/css">
*{stroke-linecap:butt;stroke-linejoin:round;}
  </style>
 </defs>
 <g id="figure_1">
  <g id="patch_1">
   <path d="
M0 72
L72 72
L72 0
L0 0
z
" style="fill:none;"/>
  </g>
  <g id="axes_1">
   <g id="PatchCollection_1">
    <defs>
     <path d="
M36 -7.5
C43.5583 -7.5 50.808 -10.5029 56.1525 -15.8475
C61.4971 -21.192 64.5 -28.4417 64.5 -36
C64.5 -43.5583 61.4971 -50.808 56.1525 -56.1525
C50.808 -61.4971 43.5583 -64.5 36 -64.5
C28.4417 -64.5 21.192 -61.4971 15.8475 -56.1525
C10.5029 -50.808 7.5 -43.5583 7.5 -36
C7.5 -28.4417 10.5029 -21.192 15.8475 -15.8475
C21.192 -10.5029 28.4417 -7.5 36 -7.5
z
" id="C0_0_a811fe30f3"/>
     <path d="
M18.0798 -13.8913
L18.4386 -13.6841
L18.8007 -13.485
L19.1658 -13.294
L19.5338 -13.1114
L19.9043 -12.9373
L20.2772 -12.7718
L20.652 -12.6152
L21.0285 -12.4676
L21.4065 -12.3291
L21.7856 -12.1998
L22.1655 -12.0798
L22.5459 -11.9693
L22.9264 -11.8684
L23.3069 -11.7771
L23.6868 -11.6954
L24.066 -11.6236
L24.444 -11.5615
L24.8206 -11.5093
L25.1954 -11.467
L25.5681 -11.4345
L25.9384 -11.4119
L26.3059 -11.3992
L26.6704 -11.3962
L27.0315 -11.403
L27.389 -11.4195
L27.7425 -11.4456
L28.0918 -11.4813
L28.4367 -11.5263
L28.7768 -11.5807
L29.112 -11.6442
L29.4419 -11.7167
L29.7665 -11.7982
L30.0856 -11.8883
L30.3988 -11.987
L30.7062 -12.094
L31.0075 -12.2091
L31.3026 -12.3323
L31.5914 -12.4631
L31.8739 -12.6015
L32.1498 -12.7472
L32.4193 -12.8999
L32.6822 -13.0596
L32.9385 -13.2258
L33.1882 -13.3984
L33.4312 -13.5772
L33.6677 -13.7619
L33.8976 -13.9523
L34.121 -14.1481
L34.3378 -14.3492
L34.5482 -14.5552
L34.7523 -14.7661
L34.95 -14.9814
L35.1416 -15.2011
L35.327 -15.4248
L35.5063 -15.6525
L35.6797 -15.8838
L35.8473 -16.1186
L36.0092 -16.3568
L36.1654 -16.598
L36.3161 -16.8421
L36.4614 -17.089
L36.6014 -17.3384
L36.7363 -17.5902
L36.8661 -17.8443
L36.991 -18.1004
L37.1111 -18.3585
L37.2264 -18.6184
L37.3372 -18.8799
L37.4435 -19.143
L37.5454 -19.4075
L37.6431 -19.6732
L37.7366 -19.9401
L37.8261 -20.2081
L37.9116 -20.4771
L37.9933 -20.7469
L38.0713 -21.0175
L38.1456 -21.2888
L38.2164 -21.5607
L38.2837 -21.8332
L38.3477 -22.1061
L38.4084 -22.3794
L38.4659 -22.653
L38.5203 -22.9269
L38.5716 -23.2011
L38.62 -23.4754
L38.6655 -23.7498
L38.7082 -24.0243
L38.7482 -24.2988
L38.7854 -24.5733
L38.8201 -24.8478
L38.8522 -25.1223
L38.8818 -25.3966
L38.909 -25.6709
L38.9338 -25.9449
L38.9562 -26.2189
L38.9764 -26.4926
L38.9944 -26.7662
L39.0101 -27.0395
L39.0237 -27.3127
L39.0353 -27.5856
L39.0447 -27.8582
L39.0521 -28.1307
L39.0576 -28.4028
L39.0611 -28.6748
L39.0626 -28.9465
L39.0623 -29.2179
L39.0601 -29.4891
L39.056 -29.76
L39.0502 -30.0307
L39.0425 -30.3012
L39.0331 -30.5714
L39.0219 -30.8414
L39.009 -31.1112
L38.9944 -31.3808
L38.9781 -31.6501
L38.96 -31.9193
L38.9404 -32.1883
L38.919 -32.4571
L38.896 -32.7257
L38.8714 -32.9942
L38.8451 -33.2625
L38.8172 -33.5307
L38.7564 -33.7988
L38.7236 -34.0668
L38.6892 -34.3346
L38.6531 -34.6024
L38.6154 -34.8701
L38.5761 -35.1377
L38.5351 -35.4053
L38.4925 -35.6728
L38.4482 -35.9402
L38.4023 -36.2076
L38.3546 -36.475
L38.3053 -36.7424
L38.2543 -37.0098
L38.2016 -37.2771
L38.1471 -37.5445
L38.0909 -37.8118
L38.033 -38.0792
L37.9732 -38.3465
L37.9117 -38.6139
L37.8483 -38.8813
L37.783 -39.1486
L37.7159 -39.416
L37.6469 -39.6834
L37.576 -39.9508
L37.5031 -40.2181
L37.4282 -40.4855
L37.3513 -40.7528
L37.2723 -41.02
L37.1913 -41.2872
L37.1081 -41.5543
L37.0228 -41.8212
L36.9353 -42.0881
L36.8455 -42.3548
L36.7535 -42.6213
L36.6591 -42.8876
L36.5624 -43.1537
L36.4633 -43.4195
L36.3618 -43.6849
L36.2577 -43.95
L36.1511 -44.2147
L36.0419 -44.4789
L35.93 -44.7426
L35.8155 -45.0058
L35.6981 -45.2683
L35.578 -45.5301
L35.455 -45.7911
L35.329 -46.0513
L35.2001 -46.3105
L35.0681 -46.5688
L34.9331 -46.8259
L34.7948 -47.0819
L34.6533 -47.3365
L34.5085 -47.5898
L34.3604 -47.8415
L34.2088 -48.0917
L34.0537 -48.3401
L33.8951 -48.5866
L33.7329 -48.8311
L33.5669 -49.0735
L33.3972 -49.3136
L33.2237 -49.5513
L33.0463 -49.7865
L32.8649 -50.0188
L32.6795 -50.2483
L32.4901 -50.4747
L32.2965 -50.6979
L32.0988 -50.9176
L31.8968 -51.1337
L31.6905 -51.346
L31.4798 -51.5543
L31.2648 -51.7584
L31.0454 -51.958
L30.8215 -52.1531
L30.5932 -52.3434
L30.3603 -52.5286
L30.123 -52.7086
L29.8811 -52.8831
L29.6347 -53.0519
L29.3837 -53.2149
L29.1283 -53.3717
L28.8684 -53.5222
L28.6041 -53.6662
L28.3353 -53.8035
L28.0623 -53.9338
L27.7849 -54.0569
L27.5034 -54.1727
L27.2178 -54.2809
L26.9281 -54.3815
L26.6346 -54.4741
L26.3373 -54.5587
L26.0363 -54.6351
L25.7319 -54.7031
L25.4242 -54.7625
L25.1133 -54.8134
L24.7994 -54.8555
L24.4827 -54.8887
L24.1634 -54.913
L23.8417 -54.9282
L23.5179 -54.9343
L23.1921 -54.9313
L22.8645 -54.9191
L22.5355 -54.8977
L22.2053 -54.867
L21.874 -54.8271
L21.5419 -54.778
L21.2094 -54.7197
L20.8765 -54.6521
L20.5437 -54.5755
L20.2111 -54.4898
L19.8789 -54.395
L19.5475 -54.2914
L19.2171 -54.1789
L18.8879 -54.0576
L18.5601 -53.9278
L18.234 -53.7894
L17.9098 -53.6426
L17.5878 -53.4875
L17.2681 -53.3243
L16.951 -53.153
L16.6366 -52.974
L16.3252 -52.7872
L16.017 -52.5928
L15.7121 -52.3911
L15.4107 -52.1821
L15.113 -51.9661
L14.8191 -51.7431
L14.5293 -51.5134
L14.2436 -51.2772
L13.9622 -51.0345
L13.6852 -50.7856
L13.4128 -50.5306
L13.145 -50.2697
L12.882 -50.0031
L12.6239 -49.7309
L12.3708 -49.4533
L12.1228 -49.1704
L11.8799 -48.8825
L11.6423 -48.5897
L11.41 -48.2921
L11.183 -47.9898
L10.9616 -47.6832
L10.7457 -47.3722
L10.5353 -47.0571
L10.3305 -46.738
L10.1315 -46.415
L9.93813 -46.0883
L9.75054 -45.7579
L9.56875 -45.4242
L9.39277 -45.0871
L9.22266 -44.7468
L9.05843 -44.4034
L8.90012 -44.0571
L8.74774 -43.708
L8.60131 -43.3561
L8.46086 -43.0017
L8.32639 -42.6447
L8.19794 -42.2854
L8.07551 -41.9238
L7.9558 -41.56
L7.87147 -41.0767
L7.79571 -40.5865
L7.72854 -40.0949
L7.66998 -39.602
L7.62006 -39.1081
L7.57877 -38.6132
L7.54614 -38.1175
L7.52219 -37.6211
L7.5069 -37.1243
L7.5003 -36.6271
L7.50237 -36.1298
L7.51313 -35.6324
L7.53256 -35.1351
L7.56067 -34.638
L7.59744 -34.1414
L7.64286 -33.6454
L7.69691 -33.15
L7.75959 -32.6556
L7.83087 -32.1621
L7.91074 -31.6698
L7.99916 -31.1789
L8.0961 -30.6894
L8.20155 -30.2015
L8.31547 -29.7154
L8.43781 -29.2312
L8.56856 -28.7491
L8.70766 -28.2692
L8.85507 -27.7916
L9.01075 -27.3165
L9.17466 -26.8441
L9.34673 -26.3745
L9.52692 -25.9078
L9.71518 -25.4441
L9.91144 -24.9837
L10.1157 -24.5267
L10.3278 -24.0731
L10.5477 -23.6232
L10.7753 -23.177
L11.0107 -22.7348
L11.2536 -22.2966
L11.5042 -21.8625
L11.7621 -21.4328
L12.0275 -21.0075
L12.3001 -20.5868
L12.58 -20.1707
L12.867 -19.7595
L13.161 -19.3533
L13.462 -18.9521
L13.7699 -18.5561
L14.0845 -18.1654
L14.4059 -17.7801
L14.7338 -17.4004
L15.0681 -17.0264
L15.4089 -16.6582
L15.7559 -16.2958
L16.1091 -15.9394
L16.4683 -15.5892
L16.8335 -15.2451
L17.2046 -14.9074
L17.5813 -14.5761
z
" id="C0_1_86cfafdfdf"/>
     <path d="
M64.0057 -30.8123
L64.0289 -31.1946
L64.048 -31.576
L64.0629 -31.9566
L64.0736 -32.3364
L64.0802 -32.7154
L64.0828 -33.0936
L64.0812 -33.4709
L64.0756 -33.8474
L64.066 -34.2231
L64.0524 -34.5979
L64.0348 -34.9719
L64.0133 -35.3452
L63.9879 -35.7176
L63.9585 -36.0891
L63.9252 -36.4599
L63.8881 -36.8299
L63.8471 -37.1991
L63.8022 -37.5675
L63.7535 -37.9352
L63.7009 -38.302
L63.6445 -38.6681
L63.5843 -39.0335
L63.5203 -39.3981
L63.4525 -39.7619
L63.3808 -40.1251
L63.3054 -40.4875
L63.2262 -40.8492
L63.1431 -41.2101
L63.0563 -41.5704
L62.9656 -41.93
L62.8711 -42.2888
L62.7728 -42.647
L62.6707 -43.0045
L62.5647 -43.3613
L62.4549 -43.7174
L62.3413 -44.0728
L62.2238 -44.4275
L62.1024 -44.7816
L61.9771 -45.1349
L61.848 -45.4875
L61.7149 -45.8395
L61.5779 -46.1907
L61.437 -46.5412
L61.2921 -46.891
L61.1433 -47.2401
L60.9905 -47.5884
L60.8337 -47.9359
L60.6729 -48.2827
L60.5081 -48.6287
L60.3393 -48.9738
L60.1664 -49.3181
L59.9895 -49.6616
L59.8085 -50.0041
L59.6235 -50.3458
L59.4343 -50.6865
L59.2411 -51.0263
L59.0438 -51.365
L58.8424 -51.7028
L58.6368 -52.0394
L58.4272 -52.375
L58.2135 -52.7094
L57.9957 -53.0426
L57.7738 -53.3745
L57.5479 -53.7052
L57.3179 -54.0346
L57.0838 -54.3626
L56.8457 -54.6892
L56.6037 -55.0143
L56.3576 -55.3379
L56.1076 -55.6599
L55.8537 -55.9802
L55.596 -56.2989
L55.3344 -56.6158
L55.0691 -56.9309
L54.8001 -57.2441
L54.5274 -57.5554
L54.6424 -57.8647
L55.0158 -57.5572
L55.3834 -57.2285
L55.745 -56.8934
L56.1007 -56.552
L56.4503 -56.2042
L56.7936 -55.8504
L57.1306 -55.4904
L57.4611 -55.1246
L57.7851 -54.7529
L58.1025 -54.3755
L58.4132 -53.9925
L58.717 -53.604
L59.0139 -53.2101
L59.3038 -52.811
L59.5866 -52.4068
L59.8622 -51.9976
L60.1305 -51.5835
L60.3915 -51.1647
L60.645 -50.7413
L60.8911 -50.3133
L61.1296 -49.881
L61.3604 -49.4445
L61.5835 -49.0039
L61.7988 -48.5593
L62.0062 -48.1109
L62.2057 -47.6588
L62.3972 -47.2032
L62.5807 -46.7441
L62.7561 -46.2818
L62.9234 -45.8163
L63.0824 -45.3479
L63.2332 -44.8766
L63.3757 -44.4026
L63.5099 -43.926
L63.6356 -43.447
L63.753 -42.9658
L63.8619 -42.4824
L63.9623 -41.9971
L64.0542 -41.5099
L64.1376 -41.021
L64.2124 -40.5307
L64.2786 -40.0389
L64.3361 -39.5459
L64.3851 -39.0518
L64.4254 -38.5568
L64.457 -38.0611
L64.48 -37.5647
L64.4943 -37.0678
L64.4999 -36.5706
L64.4968 -36.0732
L64.4851 -35.5758
L64.4647 -35.0785
L64.4356 -34.5815
L64.3978 -34.085
L64.3514 -33.589
L64.2964 -33.0937
L64.2327 -32.5994
L64.1605 -32.1061
z
" id="C0_2_125d82b290"/>
    </defs>
    <g clip-path="url(#p1bffca34e9)">
     <use style="fill:#ff0000;stroke:#000000;stroke-width:2.0;" x="0.0" xlink:href="#C0_0_a811fe30f3" y="72.0"/>
    </g>
    <g clip-path="url(#p1bffca34e9)">
     <use style="fill:#ffffff;stroke:#000000;stroke-width:2.0;" x="0.0" xlink:href="#C0_1_86cfafdfdf" y="72.0"/>
    </g>
    <g clip-path="url(#p1bffca34e9)">
     <use style="fill:#ffffff;stroke:#000000;stroke-width:2.0;" x="0.0" xlink:href="#C0_2_125d82b290" y="72.0"/>
    </g>
   </g>
  </g>
 </g>
 <defs>
  <clipPath id="p1bffca34e9">
   <rect height="72.0" width="72.0" x="0.0" y="0.0"/>
  </clipPath>
 </defs>
</svg>
