<?xml version="1.0" encoding="utf-8" standalone="no"?>
<!DOCTYPE svg PUBLIC "-//W3C//DTD SVG 1.1//EN"
  "http://www.w3.org/Graphics/SVG/1.1/DTD/svg11.dtd">
<!-- Created with matplotlib (http://matplotlib.org/) -->
<svg height="72pt" version="1.1" viewBox="0 0 72 72" width="72pt" xmlns="http://www.w3.org/2000/svg" xmlns:xlink="http://www.w3.org/1999/xlink">
 <defs>
  <style type="text/css">
*{stroke-linecap:butt;stroke-linejoin:round;}
  </style>
 </defs>
 <g id="figure_1">
  <g id="patch_1">
   <path d="
M0 72
L72 72
L72 0
L0 0
z
" style="fill:none;"/>
  </g>
  <g id="axes_1">
   <g id="PatchCollection_1">
    <defs>
     <path d="
M36 -7.5
C43.5583 -7.5 50.808 -10.5029 56.1525 -15.8475
C61.4971 -21.192 64.5 -28.4417 64.5 -36
C64.5 -43.5583 61.4971 -50.808 56.1525 -56.1525
C50.808 -61.4971 43.5583 -64.5 36 -64.5
C28.4417 -64.5 21.192 -61.4971 15.8475 -56.1525
C10.5029 -50.808 7.5 -43.5583 7.5 -36
C7.5 -28.4417 10.5029 -21.192 15.8475 -15.8475
C21.192 -10.5029 28.4417 -7.5 36 -7.5
z
" id="C0_0_a811fe30f3"/>
     <path d="
M64.1921 -39.9593
L63.9548 -39.9293
L63.7129 -39.9124
L63.4665 -39.9077
L63.2161 -39.9143
L62.9618 -39.9313
L62.704 -39.9579
L62.4428 -39.9934
L62.1786 -40.0368
L61.9116 -40.0875
L61.6419 -40.1448
L61.3698 -40.208
L61.0956 -40.2764
L60.8193 -40.3495
L60.5413 -40.4266
L60.2617 -40.5074
L59.9806 -40.5913
L59.6982 -40.678
L59.4148 -40.7669
L59.1304 -40.8577
L58.8452 -40.9501
L58.5593 -41.0438
L58.273 -41.1385
L57.9862 -41.2339
L57.6991 -41.3299
L57.4119 -41.4262
L57.1246 -41.5225
L56.8374 -41.6189
L56.5502 -41.715
L56.2633 -41.8108
L55.9767 -41.9062
L55.6904 -42.001
L55.4046 -42.0951
L55.1192 -42.1885
L54.8344 -42.2811
L54.5502 -42.3728
L54.2666 -42.4635
L53.9836 -42.5533
L53.7014 -42.6421
L53.42 -42.7298
L53.1393 -42.8164
L52.8593 -42.9019
L52.5802 -42.9863
L52.3019 -43.0695
L52.0244 -43.1516
L51.7477 -43.2325
L51.4719 -43.3123
L51.1969 -43.3909
L50.9227 -43.4683
L50.6494 -43.5446
L50.3768 -43.6197
L50.105 -43.6937
L49.8341 -43.7665
L49.5639 -43.8381
L49.2944 -43.9087
L49.0257 -43.9781
L48.7577 -44.0465
L48.4903 -44.1137
L48.2236 -44.1799
L47.9576 -44.245
L47.6921 -44.309
L47.4273 -44.372
L47.1629 -44.434
L46.8991 -44.495
L46.6357 -44.555
L46.3728 -44.614
L46.1103 -44.6721
L45.8481 -44.7292
L45.5863 -44.7853
L45.3248 -44.8406
L45.0635 -44.8949
L44.8024 -44.9483
L44.5416 -45.0008
L44.2808 -45.0525
L44.0201 -45.1033
L43.7595 -45.1533
L43.4989 -45.2024
L43.2383 -45.2507
L42.9776 -45.2982
L42.7168 -45.3449
L42.4558 -45.3908
L41.9331 -45.4359
L41.6713 -45.4802
L41.4092 -45.5238
L41.1467 -45.5666
L40.8838 -45.6086
L40.6204 -45.65
L40.3565 -45.6905
L40.092 -45.7304
L39.8269 -45.7695
L39.5611 -45.8079
L39.2947 -45.8456
L39.0274 -45.8826
L38.7594 -45.9188
L38.4905 -45.9544
L38.2208 -45.9893
L37.9501 -46.0235
L37.6785 -46.0569
L37.4058 -46.0897
L37.132 -46.1218
L36.8572 -46.1533
L36.5812 -46.184
L36.304 -46.2141
L36.0256 -46.2434
L35.7459 -46.2721
L35.4648 -46.3001
L35.1825 -46.3274
L34.8987 -46.354
L34.6135 -46.38
L34.3269 -46.4052
L34.0388 -46.4298
L33.7491 -46.4537
L33.4579 -46.4769
L33.1651 -46.4994
L32.8707 -46.5212
L32.5747 -46.5424
L32.277 -46.5628
L31.9776 -46.5826
L31.6766 -46.6017
L31.3738 -46.6202
L31.0694 -46.6379
L30.7632 -46.655
L30.4554 -46.6715
L30.1458 -46.6873
L29.8346 -46.7025
L29.5216 -46.7171
L29.207 -46.7311
L28.8908 -46.7445
L28.5729 -46.7573
L28.2535 -46.7697
L27.9326 -46.7815
L27.6102 -46.7929
L27.2864 -46.8039
L26.9612 -46.8145
L26.6348 -46.8248
L26.3072 -46.8348
L25.9785 -46.8447
L25.6488 -46.8544
L25.3183 -46.8642
L24.9871 -46.874
L24.6553 -46.8841
L24.3231 -46.8944
L23.9906 -46.9052
L23.658 -46.9166
L23.3256 -46.9288
L22.9936 -46.9419
L22.6621 -46.9562
L22.3314 -46.9718
L22.0018 -46.9891
L21.6736 -47.0082
L21.347 -47.0296
L21.0224 -47.0534
L20.7001 -47.08
L20.3805 -47.1098
L20.0639 -47.1432
L19.7507 -47.1805
L19.4414 -47.2223
L19.1363 -47.269
L18.8359 -47.321
L18.5406 -47.3789
L18.251 -47.4432
L17.9674 -47.5145
L17.6903 -47.5932
L17.4203 -47.6799
L17.1578 -47.7751
L16.9032 -47.8794
L16.6572 -47.9933
L16.4201 -48.1172
L16.1923 -48.2516
L15.9744 -48.3968
L15.7666 -48.5532
L15.5695 -48.721
L15.3832 -48.9005
L15.2083 -49.0916
L15.0448 -49.2946
L14.8931 -49.5093
L14.7535 -49.7357
L14.626 -49.9735
L14.5108 -50.2224
L14.408 -50.4822
L14.3177 -50.7525
L14.2399 -51.0328
L14.1747 -51.3226
L14.1221 -51.6214
L14.0819 -51.9287
L14.0543 -52.2439
L14.039 -52.5664
L14.036 -52.8956
L14.0453 -53.2309
L14.0667 -53.5717
L14.2464 -53.9174
L14.5711 -54.4128
L14.9023 -54.7897
L15.2399 -55.1608
L15.5838 -55.5261
L15.934 -55.8854
L16.2903 -56.2387
L16.6525 -56.5858
L17.0207 -56.9267
L17.3947 -57.2611
L17.7743 -57.5891
L18.1594 -57.9106
L18.55 -58.2253
L18.946 -58.5333
L19.3471 -58.8344
L19.7533 -59.1286
L20.1644 -59.4157
L20.5804 -59.6956
L21.001 -59.9684
L21.4262 -60.2339
L21.8559 -60.4919
L22.2899 -60.7426
L22.728 -60.9856
L23.1702 -61.2211
L23.6163 -61.4489
L24.0662 -61.6689
L24.5197 -61.8811
L24.9767 -62.0855
L25.437 -62.2819
L25.9006 -62.4702
L26.3673 -62.6506
L26.8369 -62.8228
L27.3092 -62.9868
L27.7843 -63.1426
L28.2618 -63.2901
L28.7417 -63.4294
L29.2238 -63.5602
L29.7079 -63.6827
L30.194 -63.7968
L30.6819 -63.9023
L31.1713 -63.9994
L31.6623 -64.088
L32.1545 -64.168
L32.648 -64.2394
L33.1424 -64.3022
L33.6377 -64.3564
L34.1338 -64.4019
L34.6304 -64.4388
L35.1274 -64.4671
L35.6247 -64.4866
L36.1221 -64.4975
L36.6195 -64.4997
L37.1167 -64.4933
L37.6135 -64.4781
L38.1099 -64.4543
L38.6056 -64.4218
L39.1005 -64.3806
L39.5945 -64.3308
L40.0873 -64.2724
L40.579 -64.2054
L41.0692 -64.1298
L41.5579 -64.0456
L42.0449 -63.9528
L42.53 -63.8516
L43.0132 -63.7418
L43.4942 -63.6236
L43.973 -63.497
L44.4493 -63.362
L44.923 -63.2187
L45.3941 -63.0671
L45.8622 -62.9073
L46.3274 -62.7392
L46.7894 -62.563
L47.2482 -62.3787
L47.7035 -62.1864
L48.1552 -61.9861
L48.6032 -61.7779
L49.0474 -61.5619
L49.4876 -61.338
L49.9238 -61.1064
L50.3556 -60.8672
L50.7831 -60.6204
L51.2061 -60.3661
L51.6245 -60.1044
L52.0381 -59.8354
L52.4468 -59.5591
L52.8505 -59.2756
L53.2491 -58.985
L53.6424 -58.6874
L54.0304 -58.3829
L54.4128 -58.0716
L54.7897 -57.7536
L55.1608 -57.4289
L55.5261 -57.0977
L55.8854 -56.7601
L56.2387 -56.4162
L56.5858 -56.066
L56.9267 -55.7097
L57.2611 -55.3475
L57.5891 -54.9793
L57.9106 -54.6053
L58.2253 -54.2257
L58.5333 -53.8406
L58.8344 -53.45
L59.1286 -53.054
L59.4157 -52.6529
L59.6956 -52.2467
L59.9684 -51.8356
L60.2339 -51.4196
L60.4919 -50.999
L60.7426 -50.5738
L60.9856 -50.1441
L61.2211 -49.7101
L61.4489 -49.272
L61.6689 -48.8298
L61.8811 -48.3837
L62.0855 -47.9338
L62.2819 -47.4803
L62.4702 -47.0233
L62.6506 -46.563
L62.8228 -46.0994
L62.9868 -45.6327
L63.1426 -45.1631
L63.2901 -44.6908
L63.4294 -44.2157
L63.5602 -43.7382
L63.6827 -43.2583
L63.7968 -42.7762
L63.9023 -42.2921
L63.9994 -41.806
L64.088 -41.3181
z
" id="C0_1_24949a3f8d"/>
     <path d="
M57.8714 -17.7564
L57.5306 -17.6549
L57.187 -17.5535
L56.841 -17.4525
L56.4928 -17.3525
L56.1428 -17.2538
L55.7913 -17.1567
L55.4386 -17.0615
L55.0849 -16.9685
L54.7306 -16.8779
L54.3757 -16.7899
L54.0206 -16.7047
L53.6655 -16.6224
L53.3105 -16.5432
L52.9559 -16.467
L52.6017 -16.3941
L52.2483 -16.3245
L51.8956 -16.2582
L51.5439 -16.1953
L51.1933 -16.1357
L50.8438 -16.0796
L50.4956 -16.0268
L50.1487 -15.9774
L49.8033 -15.9313
L49.4593 -15.8886
L49.117 -15.8492
L48.7762 -15.8131
L48.4371 -15.7802
L48.0997 -15.7505
L47.7641 -15.7239
L47.4302 -15.7005
L47.0981 -15.6801
L46.7678 -15.6628
L46.4392 -15.6484
L46.1125 -15.6369
L45.7876 -15.6283
L45.4645 -15.6225
L45.1432 -15.6194
L44.8237 -15.6191
L44.5059 -15.6215
L44.1899 -15.6264
L43.8756 -15.634
L43.563 -15.6441
L43.2521 -15.6567
L42.9428 -15.6717
L42.6352 -15.6892
L42.3291 -15.709
L42.0246 -15.7312
L41.7216 -15.7557
L41.42 -15.7824
L41.12 -15.8114
L40.8213 -15.8426
L40.5239 -15.876
L40.2279 -15.9115
L39.9331 -15.9492
L39.6396 -15.989
L39.3473 -16.0309
L39.0561 -16.0748
L38.766 -16.1208
L38.4769 -16.1689
L38.1889 -16.219
L37.9018 -16.2711
L37.6157 -16.3252
L37.3304 -16.3813
L37.0459 -16.4394
L36.7622 -16.4994
L36.4792 -16.5615
L36.1969 -16.6256
L35.9153 -16.6916
L35.6343 -16.7597
L35.3538 -16.8297
L35.0738 -16.9017
L34.7942 -16.9757
L34.5151 -17.0518
L34.2363 -17.1298
L33.9579 -17.2099
L33.6797 -17.2921
L33.4018 -17.3763
L33.1241 -17.4626
L32.8465 -17.551
L32.5691 -17.6415
L32.2917 -17.7341
L32.0143 -17.8289
L31.7369 -17.9259
L31.4595 -18.0251
L31.182 -18.1265
L30.9044 -18.2302
L30.6266 -18.3362
L30.3486 -18.4445
L30.0703 -18.5551
L29.7919 -18.6681
L29.5131 -18.7836
L29.234 -18.9015
L28.9545 -19.0218
L28.6746 -19.1447
L28.3944 -19.2702
L28.1137 -19.3982
L27.8325 -19.5289
L27.5508 -19.6622
L27.2687 -19.7982
L26.986 -19.937
L26.7028 -20.0786
L26.419 -20.2229
L26.1347 -20.3702
L25.8498 -20.5203
L25.5643 -20.6734
L25.2782 -20.8294
L24.9915 -20.9885
L24.7043 -21.1506
L24.4164 -21.3157
L24.128 -21.484
L23.839 -21.6554
L23.5494 -21.8299
L23.2593 -22.0077
L22.9687 -22.1886
L22.6776 -22.3727
L22.386 -22.56
L22.0939 -22.7506
L21.8015 -22.9443
L21.5087 -23.1413
L21.2155 -23.3414
L20.9221 -23.5447
L20.6284 -23.7512
L20.3346 -23.9607
L20.0406 -24.1733
L19.7466 -24.3888
L19.4526 -24.6072
L19.1586 -24.8284
L18.8648 -25.0523
L18.5713 -25.2787
L18.278 -25.5075
L17.9851 -25.7386
L17.6926 -25.9717
L17.4007 -26.2067
L17.1094 -26.4433
L16.8188 -26.6813
L16.529 -26.9204
L16.2401 -27.1602
L15.9521 -27.4005
L15.6651 -27.6408
L15.3793 -27.8808
L15.0946 -28.12
L14.8112 -28.3579
L14.5291 -28.594
L14.2484 -28.8278
L13.969 -29.0588
L13.6911 -29.2862
L13.4147 -29.5095
L13.1398 -29.728
L12.8665 -29.9409
L12.5947 -30.1477
L12.3244 -30.3475
L12.0557 -30.5396
L11.7886 -30.7233
L11.523 -30.8978
L11.259 -31.0624
L10.9965 -31.2164
L10.7355 -31.3592
L10.4762 -31.4901
L10.2185 -31.6085
L9.96238 -31.7141
L9.70798 -31.8062
L9.45535 -31.8845
L9.20457 -31.9488
L8.95576 -31.9988
L8.70903 -32.0344
L8.46453 -32.0555
L8.22241 -32.0621
L7.85217 -32.0542
L7.93441 -31.5335
L8.02519 -31.0429
L8.1245 -30.5539
L8.2323 -30.0665
L8.34856 -29.5809
L8.47324 -29.0973
L8.60631 -28.6157
L8.74772 -28.1364
L8.89743 -27.6596
L9.0554 -27.1852
L9.22157 -26.7135
L9.3959 -26.2447
L9.57834 -25.7788
L9.76882 -25.3161
L9.9673 -24.8566
L10.1737 -24.4005
L10.388 -23.9479
L10.61 -23.499
L10.8398 -23.054
L11.0773 -22.6128
L11.3224 -22.1757
L11.575 -21.7429
L11.835 -21.3144
L12.1024 -20.8903
L12.377 -20.4709
L12.6589 -20.0562
L12.9478 -19.6463
L13.2438 -19.2415
L13.5467 -18.8417
L13.8565 -18.4472
L14.173 -18.058
L14.4962 -17.6743
L14.8259 -17.2961
L15.162 -16.9237
L15.5045 -16.557
L15.8533 -16.1963
L16.2081 -15.8417
L16.5691 -15.4931
L16.9359 -15.1508
L17.3085 -14.8149
L17.6868 -14.4854
L18.0708 -14.1625
L18.4601 -13.8462
L18.8548 -13.5366
L19.2548 -13.2339
L19.6598 -12.9382
L20.0698 -12.6495
L20.4847 -12.3678
L20.9043 -12.0934
L21.3285 -11.8263
L21.7571 -11.5665
L22.1901 -11.3142
L22.6273 -11.0694
L23.0686 -10.8321
L23.5138 -10.6026
L23.9628 -10.3808
L24.4155 -10.1668
L24.8717 -9.96062
L25.3313 -9.7624
L25.7942 -9.57219
L26.2601 -9.39002
L26.7291 -9.21595
L27.2008 -9.05005
L27.6753 -8.89235
L28.1522 -8.74291
L28.6316 -8.60178
L29.1132 -8.46899
L29.5969 -8.34459
L30.0825 -8.22861
L30.57 -8.12109
L31.0591 -8.02206
L31.5497 -7.93155
L32.0417 -7.8496
L32.5349 -7.77622
L33.0291 -7.71144
L33.5242 -7.65527
L34.0201 -7.60774
L34.5166 -7.56885
L35.0136 -7.53863
L35.5108 -7.51708
L36.0082 -7.5042
L36.5056 -7.5
L37.0028 -7.50449
L37.4998 -7.51765
L37.9963 -7.53949
L38.4921 -7.57
L38.9872 -7.60917
L39.4814 -7.65699
L39.9746 -7.71344
L40.4665 -7.7785
L40.9571 -7.85217
L41.4461 -7.93441
L41.9335 -8.02519
L42.4191 -8.1245
L42.9027 -8.2323
L43.3843 -8.34856
L43.8636 -8.47324
L44.3404 -8.60631
L44.8148 -8.74772
L45.2865 -8.89743
L45.7553 -9.0554
L46.2212 -9.22157
L46.6839 -9.3959
L47.1434 -9.57834
L47.5995 -9.76882
L48.0521 -9.9673
L48.501 -10.1737
L48.946 -10.388
L49.3872 -10.61
L49.8243 -10.8398
L50.2571 -11.0773
L50.6856 -11.3224
L51.1097 -11.575
L51.5291 -11.835
L51.9438 -12.1024
L52.3537 -12.377
L52.7585 -12.6589
L53.1583 -12.9478
L53.5528 -13.2438
L53.942 -13.5467
L54.3257 -13.8565
L54.7039 -14.173
L55.0763 -14.4962
L55.443 -14.8259
L55.8037 -15.162
L56.1583 -15.5045
L56.5069 -15.8533
L56.8492 -16.2081
L57.1851 -16.5691
L57.5146 -16.9359
z
" id="C0_2_a8a8323bb8"/>
    </defs>
    <g clip-path="url(#p1bffca34e9)">
     <use style="fill:#ffffff;stroke:#000000;stroke-width:2.0;" x="0.0" xlink:href="#C0_0_a811fe30f3" y="72.0"/>
    </g>
    <g clip-path="url(#p1bffca34e9)">
     <use style="fill:#ff0000;stroke:#000000;stroke-width:2.0;" x="0.0" xlink:href="#C0_1_24949a3f8d" y="72.0"/>
    </g>
    <g clip-path="url(#p1bffca34e9)">
     <use style="fill:#ff0000;stroke:#000000;stroke-width:2.0;" x="0.0" xlink:href="#C0_2_a8a8323bb8" y="72.0"/>
    </g>
   </g>
  </g>
 </g>
 <defs>
  <clipPath id="p1bffca34e9">
   <rect height="72.0" width="72.0" x="0.0" y="0.0"/>
  </clipPath>
 </defs>
</svg>
