<?xml version="1.0" encoding="utf-8" standalone="no"?>
<!DOCTYPE svg PUBLIC "-//W3C//DTD SVG 1.1//EN"
  "http://www.w3.org/Graphics/SVG/1.1/DTD/svg11.dtd">
<!-- Created with matplotlib (http://matplotlib.org/) -->
<svg height="72pt" version="1.1" viewBox="0 0 72 72" width="72pt" xmlns="http://www.w3.org/2000/svg" xmlns:xlink="http://www.w3.org/1999/xlink">
 <defs>
  <style type="text/css">
*{stroke-linecap:butt;stroke-linejoin:round;}
  </style>
 </defs>
 <g id="figure_1">
  <g id="patch_1">
   <path d="
M0 72
L72 72
L72 0
L0 0
z
" style="fill:none;"/>
  </g>
  <g id="axes_1">
   <g id="PatchCollection_1">
    <defs>
     <path d="
M36 -7.5
C43.5583 -7.5 50.808 -10.5029 56.1525 -15.8475
C61.4971 -21.192 64.5 -28.4417 64.5 -36
C64.5 -43.5583 61.4971 -50.808 56.1525 -56.1525
C50.808 -61.4971 43.5583 -64.5 36 -64.5
C28.4417 -64.5 21.192 -61.4971 15.8475 -56.1525
C10.5029 -50.808 7.5 -43.5583 7.5 -36
C7.5 -28.4417 10.5029 -21.192 15.8475 -15.8475
C21.192 -10.5029 28.4417 -7.5 36 -7.5
z
" id="C0_0_a811fe30f3"/>
     <path d="
M44.2028 -32.5499
L44.0868 -32.3209
L43.9697 -32.0922
L43.8515 -31.864
L43.7322 -31.6361
L43.6118 -31.4085
L43.4902 -31.1811
L43.3674 -30.9538
L43.2434 -30.7267
L43.1181 -30.4996
L42.9914 -30.2726
L42.8634 -30.0455
L42.734 -29.8184
L42.6032 -29.5911
L42.4708 -29.3637
L42.337 -29.136
L42.2015 -28.9081
L42.0645 -28.6798
L41.9257 -28.4512
L41.7852 -28.2222
L41.643 -27.9928
L41.4989 -27.7628
L41.3529 -27.5324
L41.205 -27.3014
L41.0551 -27.0697
L40.9031 -26.8375
L40.749 -26.6046
L40.5927 -26.3709
L40.4342 -26.1366
L40.2734 -25.9014
L40.1101 -25.6655
L39.9444 -25.4288
L39.7762 -25.1912
L39.6054 -24.9528
L39.4319 -24.7135
L39.2557 -24.4733
L39.0766 -24.2322
L38.8946 -23.9902
L38.7097 -23.7472
L38.5217 -23.5034
L38.3306 -23.2586
L38.1362 -23.013
L37.9385 -22.7664
L37.7375 -22.519
L37.5329 -22.2708
L37.3248 -22.0217
L37.113 -21.7719
L36.8975 -21.5213
L36.6781 -21.27
L36.4548 -21.0182
L36.2276 -20.7657
L35.9962 -20.5129
L35.7606 -20.2596
L35.5208 -20.0061
L35.2767 -19.7524
L35.0281 -19.4986
L34.7749 -19.2449
L34.5172 -18.9915
L34.2549 -18.7385
L33.9878 -18.4861
L33.7158 -18.2345
L33.439 -17.9839
L33.1573 -17.7346
L32.8705 -17.4867
L32.5787 -17.2407
L32.2818 -16.9967
L31.9798 -16.7552
L31.6726 -16.5166
L31.3601 -16.2811
L31.0424 -16.0493
L30.7195 -15.8216
L30.3913 -15.5987
L30.0578 -15.381
L29.719 -15.1692
L29.3749 -14.964
L29.0256 -14.7664
L28.671 -14.5771
L28.3112 -14.3972
L27.9462 -14.2278
L27.5761 -14.0704
L27.2008 -13.9264
L26.8206 -13.7974
L26.4353 -13.6856
L26.0453 -13.5929
L25.6506 -13.5219
L25.2515 -13.4752
L24.8484 -13.4554
L24.4418 -13.4654
L24.0322 -13.5074
L23.6207 -13.5837
L23.2082 -13.6954
L22.796 -13.8431
L22.3854 -14.0262
L21.978 -14.2433
L21.575 -14.4924
L21.178 -14.7709
L20.788 -15.076
L20.4063 -15.4047
L20.0336 -15.7543
L19.6708 -16.1222
L19.3185 -16.5059
L18.9772 -16.9035
L18.6471 -17.3128
L18.3287 -17.7323
L18.022 -18.1603
L17.7273 -18.5956
L17.4444 -19.0369
L17.1735 -19.4831
L16.9145 -19.9332
L16.6673 -20.3864
L16.4317 -20.8419
L16.2076 -21.299
L15.9949 -21.7569
L15.7933 -22.2152
L15.6027 -22.6733
L15.4227 -23.1306
L15.2532 -23.5869
L15.0939 -24.0416
L14.9445 -24.4944
L14.8047 -24.945
L14.6744 -25.3932
L14.5532 -25.8386
L14.4409 -26.281
L14.3372 -26.7203
L14.2418 -27.1562
L14.1545 -27.5886
L14.075 -28.0174
L14.003 -28.4424
L13.9383 -28.8636
L13.8807 -29.281
L13.8299 -29.6943
L13.7857 -30.1036
L13.7478 -30.5089
L13.7161 -30.9101
L13.6903 -31.3072
L13.6702 -31.7002
L13.6557 -32.0891
L13.6465 -32.474
L13.6424 -32.8549
L13.6433 -33.2317
L13.649 -33.6046
L13.6594 -33.9735
L13.6742 -34.3386
L13.6934 -34.6999
L13.7168 -35.0573
L13.7443 -35.4111
L13.7758 -35.7612
L13.8111 -36.1077
L13.8501 -36.4507
L13.8927 -36.7903
L13.9389 -37.1265
L13.9885 -37.4593
L14.0414 -37.789
L14.0975 -38.1155
L14.1568 -38.4389
L14.2193 -38.7592
L14.2847 -39.0767
L14.3531 -39.3913
L14.4245 -39.7031
L14.4987 -40.0121
L14.5757 -40.3186
L14.6554 -40.6225
L14.7379 -40.9239
L14.8231 -41.2229
L14.9109 -41.5195
L15.0014 -41.8139
L15.0945 -42.106
L15.1902 -42.396
L15.2884 -42.684
L15.3892 -42.97
L15.4925 -43.254
L15.5984 -43.5362
L15.7068 -43.8165
L15.8177 -44.0951
L15.9312 -44.3721
L16.0472 -44.6474
L16.1658 -44.9212
L16.2869 -45.1935
L16.4107 -45.4644
L16.537 -45.7338
L16.666 -46.002
L16.7976 -46.2688
L16.9319 -46.5345
L17.0689 -46.7989
L17.2086 -47.0623
L17.3511 -47.3245
L17.4965 -47.5857
L17.6447 -47.846
L17.7958 -48.1052
L17.9499 -48.3636
L18.107 -48.6211
L18.2671 -48.8778
L18.4304 -49.1337
L18.5969 -49.3888
L18.7666 -49.6431
L18.9396 -49.8968
L19.116 -50.1497
L19.2958 -50.4021
L19.4792 -50.6537
L19.6662 -50.9048
L19.8569 -51.1552
L20.0514 -51.4051
L20.2497 -51.6543
L20.452 -51.903
L20.6583 -52.1511
L20.8688 -52.3986
L21.0836 -52.6456
L21.3027 -52.8919
L21.5262 -53.1376
L21.7544 -53.3828
L21.9872 -53.6272
L22.2248 -53.871
L22.4673 -54.1141
L22.7149 -54.3564
L22.9677 -54.5979
L23.2257 -54.8386
L23.4892 -55.0784
L23.7582 -55.3173
L24.0329 -55.555
L24.3135 -55.7917
L24.5999 -56.0272
L24.8925 -56.2613
L25.1914 -56.4941
L25.4966 -56.7253
L25.8083 -56.9549
L26.1266 -57.1827
L26.4518 -57.4085
L26.7838 -57.6323
L27.1229 -57.8538
L27.4692 -58.0729
L27.8228 -58.2893
L28.1839 -58.5029
L28.5524 -58.7134
L28.9286 -58.9205
L29.3126 -59.1242
L29.7044 -59.324
L30.1041 -59.5196
L30.5117 -59.7109
L30.9274 -59.8974
L31.3512 -60.0789
L31.783 -60.255
L32.2229 -60.4252
L32.6708 -60.5893
L33.1266 -60.7468
L33.5904 -60.8973
L34.0619 -61.0404
L34.5411 -61.1756
L35.0277 -61.3024
L35.5214 -61.4203
L36.0221 -61.5289
L36.5293 -61.6275
L37.0426 -61.7156
L37.5616 -61.7927
L38.0856 -61.8581
L38.6142 -61.9113
L39.1464 -61.9516
L39.6814 -61.9782
L40.2182 -61.9906
L40.7556 -61.988
L41.2923 -61.9695
L41.8267 -61.9345
L42.3571 -61.8821
L42.8813 -61.8114
L43.3971 -61.7214
L43.9018 -61.6114
L44.3926 -61.4803
L44.8666 -61.3276
L45.3206 -61.1525
L45.7517 -60.9546
L46.1572 -60.734
L46.5351 -60.4911
L46.8842 -60.2268
L47.2039 -59.9424
L47.4946 -59.6395
L47.7574 -59.3201
L47.9939 -58.9861
L48.2059 -58.6396
L48.3953 -58.2824
L48.5641 -57.9163
L48.7142 -57.5428
L48.8471 -57.1632
L48.9645 -56.7789
L49.0677 -56.3907
L49.1578 -55.9997
L49.236 -55.6067
L49.3031 -55.2123
L49.36 -54.8171
L49.4074 -54.4218
L49.446 -54.0267
L49.4763 -53.6324
L49.499 -53.2392
L49.5145 -52.8473
L49.5232 -52.4573
L49.5255 -52.0692
L49.522 -51.6833
L49.5128 -51.2999
L49.4983 -50.9191
L49.4789 -50.5411
L49.4549 -50.1661
L49.4264 -49.7941
L49.3938 -49.4253
L49.3572 -49.0597
L49.317 -48.6975
L49.2733 -48.3387
L49.2264 -47.9833
L49.1763 -47.6314
L49.1234 -47.283
L49.0677 -46.9382
L49.0094 -46.5968
L48.9486 -46.259
L48.8856 -45.9248
L48.8203 -45.594
L48.753 -45.2667
L48.6838 -44.9429
L48.6127 -44.6225
L48.5399 -44.3055
L48.4655 -43.9918
L48.3894 -43.6815
L48.3119 -43.3743
L48.233 -43.0704
L48.1528 -42.7696
L48.0713 -42.4719
L47.9886 -42.1772
L47.9047 -41.8854
L47.8197 -41.5965
L47.7337 -41.3105
L47.6466 -41.0272
L47.5586 -40.7466
L47.4696 -40.4687
L47.3798 -40.1933
L47.289 -39.9203
L47.1974 -39.6498
L47.105 -39.3816
L47.0117 -39.1157
L46.9177 -38.8521
L46.8229 -38.5905
L46.7273 -38.331
L46.631 -38.0735
L46.5339 -37.8179
L46.4361 -37.5642
L46.3375 -37.3123
L46.2383 -37.0621
L46.1382 -36.8136
L46.0375 -36.5666
L45.936 -36.3212
L45.8338 -36.0772
L45.7308 -35.8347
L45.627 -35.5934
L45.5225 -35.3534
L45.4172 -35.1146
L45.3111 -34.877
L45.2042 -34.6404
L45.0965 -34.4049
L44.9879 -34.1703
L44.8785 -33.9366
L44.7682 -33.7037
L44.657 -33.4717
L44.5449 -33.2403
L44.4318 -33.0096
z
" id="C0_1_4788ae0c0c"/>
    </defs>
    <g clip-path="url(#p1bffca34e9)">
     <use style="fill:#ffffff;stroke:#000000;stroke-width:2.0;" x="0.0" xlink:href="#C0_0_a811fe30f3" y="72.0"/>
    </g>
    <g clip-path="url(#p1bffca34e9)">
     <use style="fill:#ff0000;stroke:#000000;stroke-width:2.0;" x="0.0" xlink:href="#C0_1_4788ae0c0c" y="72.0"/>
    </g>
   </g>
  </g>
 </g>
 <defs>
  <clipPath id="p1bffca34e9">
   <rect height="72.0" width="72.0" x="0.0" y="0.0"/>
  </clipPath>
 </defs>
</svg>
