<?xml version="1.0" encoding="utf-8" standalone="no"?>
<!DOCTYPE svg PUBLIC "-//W3C//DTD SVG 1.1//EN"
  "http://www.w3.org/Graphics/SVG/1.1/DTD/svg11.dtd">
<!-- Created with matplotlib (http://matplotlib.org/) -->
<svg height="72pt" version="1.1" viewBox="0 0 72 72" width="72pt" xmlns="http://www.w3.org/2000/svg" xmlns:xlink="http://www.w3.org/1999/xlink">
 <defs>
  <style type="text/css">
*{stroke-linecap:butt;stroke-linejoin:round;}
  </style>
 </defs>
 <g id="figure_1">
  <g id="patch_1">
   <path d="
M0 72
L72 72
L72 0
L0 0
z
" style="fill:none;"/>
  </g>
  <g id="axes_1">
   <g id="PatchCollection_1">
    <defs>
     <path d="
M36 -7.5
C43.5583 -7.5 50.808 -10.5029 56.1525 -15.8475
C61.4971 -21.192 64.5 -28.4417 64.5 -36
C64.5 -43.5583 61.4971 -50.808 56.1525 -56.1525
C50.808 -61.4971 43.5583 -64.5 36 -64.5
C28.4417 -64.5 21.192 -61.4971 15.8475 -56.1525
C10.5029 -50.808 7.5 -43.5583 7.5 -36
C7.5 -28.4417 10.5029 -21.192 15.8475 -15.8475
C21.192 -10.5029 28.4417 -7.5 36 -7.5
z
" id="C0_0_a811fe30f3"/>
     <path d="
M34.2058 -7.58782
L34.5265 -7.76305
L34.8166 -7.95163
L35.0751 -8.15294
L35.3015 -8.36635
L35.4961 -8.59115
L35.6593 -8.82663
L35.7923 -9.07205
L35.8966 -9.32667
L35.974 -9.58977
L36.0266 -9.86062
L36.0565 -10.1386
L36.066 -10.4229
L36.0574 -10.7131
L36.0326 -11.0086
L35.9937 -11.3088
L35.9425 -11.6132
L35.8807 -11.9213
L35.8097 -12.2327
L35.731 -12.5471
L35.6456 -12.8639
L35.5548 -13.1829
L35.4593 -13.5037
L35.3601 -13.826
L35.2579 -14.1495
L35.1532 -14.4738
L35.0467 -14.7989
L34.9388 -15.1243
L34.8299 -15.4499
L34.7205 -15.7755
L34.6107 -16.1009
L34.501 -16.4258
L34.3916 -16.7502
L34.2825 -17.0738
L34.1742 -17.3965
L34.0665 -17.7182
L33.9599 -18.0387
L33.8542 -18.358
L33.7496 -18.676
L33.6463 -18.9925
L33.5442 -19.3075
L33.4434 -19.6209
L33.3439 -19.9327
L33.2459 -20.2428
L33.1492 -20.5511
L33.054 -20.8577
L32.9602 -21.1625
L32.8678 -21.4654
L32.7769 -21.7665
L32.6875 -22.0658
L32.5994 -22.3632
L32.5128 -22.6587
L32.4276 -22.9524
L32.3438 -23.2442
L32.2614 -23.5343
L32.1803 -23.8225
L32.1006 -24.1089
L32.0222 -24.3935
L31.9451 -24.6765
L31.8692 -24.9577
L31.7946 -25.2372
L31.7212 -25.5151
L31.6491 -25.7914
L31.5781 -26.0662
L31.5082 -26.3394
L31.4395 -26.6111
L31.3718 -26.8814
L31.3053 -27.1503
L31.2398 -27.4179
L31.1753 -27.6842
L31.1119 -27.9492
L31.0494 -28.213
L30.9879 -28.4757
L30.9273 -28.7373
L30.8676 -28.9979
L30.8088 -29.2575
L30.7509 -29.5161
L30.6938 -29.7739
L30.6376 -30.0308
L30.5821 -30.2869
L30.5275 -30.5424
L30.4736 -30.7971
L30.4205 -31.0513
L30.3682 -31.3049
L30.3165 -31.558
L30.2656 -31.8107
L30.2153 -32.063
L30.1657 -32.315
L30.1168 -32.5667
L30.0685 -32.8182
L30.0208 -33.0695
L29.9738 -33.3207
L29.9274 -33.5719
L29.8363 -33.8232
L29.7916 -34.0744
L29.7475 -34.3259
L29.7039 -34.5775
L29.6608 -34.8293
L29.6183 -35.0815
L29.5764 -35.334
L29.5349 -35.587
L29.494 -35.8404
L29.4535 -36.0944
L29.4136 -36.349
L29.3741 -36.6042
L29.3352 -36.8602
L29.2967 -37.1169
L29.2587 -37.3745
L29.2212 -37.633
L29.1842 -37.8924
L29.1476 -38.1529
L29.1115 -38.4144
L29.0759 -38.677
L29.0407 -38.9409
L29.0061 -39.2059
L28.9719 -39.4723
L28.9382 -39.7401
L28.9049 -40.0093
L28.8722 -40.2799
L28.8399 -40.5522
L28.8081 -40.826
L28.7769 -41.1014
L28.7461 -41.3786
L28.7158 -41.6575
L28.6861 -41.9382
L28.6569 -42.2208
L28.6282 -42.5053
L28.6 -42.7918
L28.5724 -43.0803
L28.5453 -43.3709
L28.5189 -43.6635
L28.493 -43.9583
L28.4676 -44.2553
L28.4429 -44.5545
L28.4188 -44.856
L28.3953 -45.1597
L28.3724 -45.4657
L28.3502 -45.7741
L28.3286 -46.0848
L28.3077 -46.3979
L28.2874 -46.7134
L28.2678 -47.0312
L28.2488 -47.3514
L28.2306 -47.6739
L28.213 -47.9988
L28.196 -48.3259
L28.1798 -48.6554
L28.1641 -48.987
L28.1491 -49.3208
L28.1347 -49.6567
L28.1208 -49.9947
L28.1074 -50.3345
L28.0946 -50.6762
L28.0821 -51.0196
L28.0699 -51.3645
L28.058 -51.7108
L28.0462 -52.0584
L28.0343 -52.407
L28.0223 -52.7564
L28.0099 -53.1064
L27.9969 -53.4567
L27.9831 -53.8071
L27.968 -54.1571
L27.9515 -54.5064
L27.933 -54.8547
L27.9122 -55.2015
L27.8884 -55.5463
L27.8609 -55.8886
L27.8292 -56.2277
L27.7923 -56.5632
L27.7493 -56.8942
L27.6991 -57.2199
L27.6406 -57.5396
L27.5723 -57.8522
L27.4929 -58.1569
L27.4007 -58.4523
L27.294 -58.7375
L27.1712 -59.0111
L27.0303 -59.2718
L26.8698 -59.5182
L26.6879 -59.749
L26.4834 -59.9628
L26.255 -60.1583
L26.0022 -60.3344
L25.7245 -60.49
L25.4223 -60.6243
L25.096 -60.7367
L24.7468 -60.8268
L24.3759 -60.8945
L23.9852 -60.9397
L23.5763 -60.9626
L23.1513 -60.9636
L22.7121 -60.9432
L22.2608 -60.9019
L21.7728 -60.8402
L21.344 -60.6949
L20.9196 -60.4428
L20.4999 -60.1833
L20.0848 -59.9164
L19.6746 -59.6423
L19.2694 -59.3609
L18.8693 -59.0724
L18.4744 -58.7769
L18.0848 -58.4745
L17.7007 -58.1652
L17.3222 -57.8492
L16.9493 -57.5265
L16.5823 -57.1972
L16.2212 -56.8615
L15.8661 -56.5195
L15.5171 -56.1711
L15.1744 -55.8167
L14.838 -55.4562
L14.508 -55.0898
L14.1847 -54.7175
L13.8679 -54.3396
L13.5579 -53.9561
L13.2547 -53.5671
L12.9585 -53.1727
L12.6693 -52.7732
L12.3872 -52.3685
L12.1122 -51.9588
L11.8446 -51.5443
L11.5843 -51.125
L11.3314 -50.7011
L11.0861 -50.2728
L10.8484 -49.8401
L10.6183 -49.4032
L10.3959 -48.9622
L10.1814 -48.5172
L9.97467 -48.0685
L9.7759 -47.616
L9.58513 -47.1601
L9.4024 -46.7007
L9.22777 -46.238
L9.0613 -45.7723
L8.90303 -45.3036
L8.75302 -44.832
L8.61131 -44.3578
L8.47794 -43.881
L8.35295 -43.4018
L8.23638 -42.9203
L8.12828 -42.4367
L8.02866 -41.9512
L7.93756 -41.4639
L7.85501 -40.9749
L7.78103 -40.4844
L7.71565 -39.9925
L7.65889 -39.4994
L7.61076 -39.0052
L7.57127 -38.5101
L7.54045 -38.0143
L7.51829 -37.5178
L7.50481 -37.0209
L7.50001 -36.5237
L7.50389 -36.0263
L7.51646 -35.5289
L7.53769 -35.0317
L7.5676 -34.5347
L7.60617 -34.0382
L7.65339 -33.5423
L7.70924 -33.0471
L7.77371 -32.5528
L7.84678 -32.0596
L7.92842 -31.5676
L8.01862 -31.0769
L8.11733 -30.5878
L8.22455 -30.1003
L8.34022 -29.6145
L8.46432 -29.1308
L8.5968 -28.6491
L8.73763 -28.1696
L8.88677 -27.6926
L9.04417 -27.218
L9.20977 -26.7462
L9.38354 -26.2772
L9.56542 -25.8111
L9.75534 -25.3481
L9.95326 -24.8884
L10.1591 -24.432
L10.3728 -23.9792
L10.5944 -23.5301
L10.8237 -23.0847
L11.0606 -22.6433
L11.3051 -22.2059
L11.5572 -21.7728
L11.8167 -21.344
L12.0836 -20.9196
L12.3577 -20.4999
L12.6391 -20.0848
L12.9276 -19.6746
L13.2231 -19.2694
L13.5255 -18.8693
L13.8348 -18.4744
L14.1508 -18.0848
L14.4735 -17.7007
L14.8028 -17.3222
L15.1385 -16.9493
L15.4805 -16.5823
L15.8289 -16.2212
L16.1833 -15.8661
L16.5438 -15.5171
L16.9102 -15.1744
L17.2825 -14.838
L17.6604 -14.508
L18.0439 -14.1847
L18.4329 -13.8679
L18.8273 -13.5579
L19.2268 -13.2547
L19.6315 -12.9585
L20.0412 -12.6693
L20.4557 -12.3872
L20.875 -12.1122
L21.2989 -11.8446
L21.7272 -11.5843
L22.1599 -11.3314
L22.5968 -11.0861
L23.0378 -10.8484
L23.4828 -10.6183
L23.9315 -10.3959
L24.384 -10.1814
L24.8399 -9.97467
L25.2993 -9.7759
L25.762 -9.58513
L26.2277 -9.4024
L26.6964 -9.22777
L27.168 -9.0613
L27.6422 -8.90303
L28.119 -8.75302
L28.5982 -8.61131
L29.0797 -8.47794
L29.5633 -8.35295
L30.0488 -8.23638
L30.5361 -8.12828
L31.0251 -8.02866
L31.5156 -7.93756
L32.0075 -7.85501
L32.5006 -7.78103
L32.9948 -7.71565
L33.4899 -7.65889
z
" id="C0_1_f68367a280"/>
     <path d="
M50.1587 -11.3145
L50.4731 -11.6737
L50.7901 -12.0389
L51.1082 -12.4098
L51.4258 -12.786
L51.7417 -13.1671
L52.0548 -13.5527
L52.3642 -13.9423
L52.669 -14.3355
L52.9685 -14.7319
L53.2621 -15.1311
L53.5494 -15.5327
L53.83 -15.9363
L54.1034 -16.3416
L54.3695 -16.7482
L54.628 -17.1558
L54.8789 -17.564
L55.122 -17.9726
L55.3571 -18.3812
L55.5845 -18.7896
L55.8039 -19.1976
L56.0155 -19.6049
L56.2193 -20.0112
L56.4153 -20.4164
L56.6038 -20.8204
L56.7847 -21.2229
L56.9582 -21.6237
L57.1244 -22.0228
L57.2834 -22.42
L57.4355 -22.8153
L57.5806 -23.2084
L57.7191 -23.5993
L57.8509 -23.9881
L57.9764 -24.3744
L58.0955 -24.7585
L58.2086 -25.1401
L58.3157 -25.5192
L58.4169 -25.8959
L58.5125 -26.2701
L58.6025 -26.6418
L58.6871 -27.011
L58.7665 -27.3776
L58.8408 -27.7418
L58.91 -28.1035
L58.9744 -28.4627
L59.034 -28.8195
L59.089 -29.1738
L59.1395 -29.5258
L59.1856 -29.8754
L59.2274 -30.2227
L59.265 -30.5677
L59.2985 -30.9104
L59.328 -31.251
L59.3535 -31.5894
L59.3753 -31.9258
L59.3932 -32.2601
L59.4075 -32.5924
L59.4182 -32.9228
L59.4254 -33.2512
L59.429 -33.5779
L59.4293 -33.9028
L59.4262 -34.226
L59.4198 -34.5475
L59.4101 -34.8674
L59.3972 -35.1858
L59.3812 -35.5027
L59.362 -35.8182
L59.3397 -36.1323
L59.3143 -36.4451
L59.2859 -36.7567
L59.2545 -37.0671
L59.2201 -37.3763
L59.1827 -37.6846
L59.1423 -37.9918
L59.099 -38.298
L59.0527 -38.6034
L59.0034 -38.9079
L58.9513 -39.2117
L58.8962 -39.5147
L58.8381 -39.8171
L58.7771 -40.1189
L58.7131 -40.4202
L58.6461 -40.7209
L58.5761 -41.0212
L58.5031 -41.3211
L58.4271 -41.6207
L58.348 -41.92
L58.2658 -42.2191
L58.1804 -42.518
L58.0919 -42.8167
L58.0002 -43.1154
L57.9052 -43.414
L57.807 -43.7127
L57.7054 -44.0114
L57.6004 -44.3101
L57.492 -44.6091
L57.38 -44.9082
L57.2645 -45.2075
L57.1454 -45.507
L57.0226 -45.8069
L56.8961 -46.107
L56.7657 -46.4075
L56.6314 -46.7084
L56.4931 -47.0097
L56.3507 -47.3114
L56.2042 -47.6136
L56.0534 -47.9163
L55.8984 -48.2194
L55.7388 -48.523
L55.5748 -48.8271
L55.4061 -49.1318
L55.2327 -49.4369
L55.0545 -49.7426
L54.8713 -50.0487
L54.6831 -50.3554
L54.4898 -50.6625
L54.2911 -50.9701
L54.087 -51.2781
L53.8775 -51.5865
L53.6623 -51.8952
L53.4414 -52.2043
L53.2145 -52.5136
L52.9818 -52.8231
L52.7429 -53.1328
L52.4977 -53.4425
L52.2463 -53.7522
L51.9884 -54.0618
L51.7239 -54.3712
L51.4528 -54.6803
L51.1749 -54.9889
L50.8901 -55.297
L50.5984 -55.6045
L50.2997 -55.911
L49.9939 -56.2167
L49.6809 -56.5211
L49.3608 -56.8243
L49.0335 -57.126
L48.6989 -57.4259
L48.3572 -57.7241
L48.0083 -58.0201
L47.6524 -58.3138
L47.2894 -58.6051
L46.9196 -58.8936
L46.5431 -59.1792
L46.1601 -59.4616
L45.7709 -59.7407
L45.3758 -60.0161
L44.9751 -60.2878
L44.5693 -60.5554
L44.1589 -60.8189
L43.7445 -61.078
L43.3267 -61.3327
L42.9064 -61.5828
L42.4844 -61.8282
L42.0617 -62.069
L41.6394 -62.3052
L41.2189 -62.5369
L40.8016 -62.7642
L40.389 -62.9875
L39.9829 -63.2069
L39.5852 -63.4231
L39.198 -63.6364
L38.8234 -63.8475
L38.4637 -64.0571
L38.6284 -64.2658
L39.1233 -64.3785
L39.6172 -64.3283
L40.11 -64.2695
L40.6016 -64.2021
L41.0918 -64.1261
L41.5804 -64.0415
L42.0673 -63.9483
L42.5524 -63.8467
L43.0354 -63.7366
L43.5164 -63.618
L43.995 -63.491
L44.4712 -63.3556
L44.9448 -63.2119
L45.4157 -63.0599
L45.8838 -62.8997
L46.3488 -62.7313
L46.8107 -62.5547
L47.2692 -62.3701
L47.7244 -62.1774
L48.1759 -61.9767
L48.6238 -61.7681
L49.0678 -61.5517
L49.5079 -61.3275
L49.9438 -61.0956
L50.3754 -60.856
L50.8027 -60.6089
L51.2255 -60.3542
L51.6437 -60.0922
L52.0571 -59.8228
L52.4655 -59.5461
L52.869 -59.2623
L53.2674 -58.9714
L53.6604 -58.6735
L54.0481 -58.3687
L54.4303 -58.0571
L54.8069 -57.7387
L55.1778 -57.4138
L55.5428 -57.0823
L55.9019 -56.7444
L56.2549 -56.4001
L56.6017 -56.0497
L56.9422 -55.6932
L57.2764 -55.3306
L57.6041 -54.9622
L57.9252 -54.588
L58.2397 -54.2081
L58.5473 -53.8227
L58.8481 -53.4318
L59.142 -53.0357
L59.4287 -52.6343
L59.7084 -52.2279
L59.9808 -51.8165
L60.2459 -51.4003
L60.5037 -50.9795
L60.7539 -50.554
L60.9967 -50.1242
L61.2318 -49.69
L61.4592 -49.2517
L61.6789 -48.8093
L61.8907 -48.363
L62.0947 -47.913
L62.2907 -47.4593
L62.4787 -47.0022
L62.6587 -46.5416
L62.8305 -46.0779
L62.9942 -45.6111
L63.1496 -45.1414
L63.2967 -44.6689
L63.4356 -44.1938
L63.5661 -43.7161
L63.6882 -43.2361
L63.8018 -42.7539
L63.907 -42.2697
L64.0037 -41.7835
L64.0918 -41.2956
L64.1714 -40.806
L64.2425 -40.315
L64.3049 -39.8227
L64.3587 -39.3292
L64.4038 -38.8348
L64.4403 -38.3394
L64.4682 -37.8433
L64.4873 -37.3467
L64.4978 -36.8496
L64.4996 -36.3523
L64.4928 -35.8549
L64.4772 -35.3576
L64.453 -34.8604
L64.4201 -34.3636
L64.3785 -33.8673
L64.3283 -33.3716
L64.2695 -32.8767
L64.2021 -32.3828
L64.1261 -31.89
L64.0415 -31.3984
L63.9483 -30.9082
L63.8467 -30.4196
L63.7366 -29.9327
L63.618 -29.4476
L63.491 -28.9646
L63.3556 -28.4836
L63.2119 -28.005
L63.0599 -27.5288
L62.8997 -27.0552
L62.7313 -26.5843
L62.5547 -26.1162
L62.3701 -25.6512
L62.1774 -25.1893
L61.9767 -24.7308
L61.7681 -24.2756
L61.5517 -23.8241
L61.3275 -23.3762
L61.0956 -22.9322
L60.856 -22.4921
L60.6089 -22.0562
L60.3542 -21.6246
L60.0922 -21.1973
L59.8228 -20.7745
L59.5461 -20.3563
L59.2623 -19.9429
L58.9714 -19.5345
L58.6735 -19.131
L58.3687 -18.7326
L58.0571 -18.3396
L57.7387 -17.9519
L57.4138 -17.5697
L57.0823 -17.1931
L56.7444 -16.8222
L56.4001 -16.4572
L56.0497 -16.0981
L55.6932 -15.7451
L55.3306 -15.3983
L54.9622 -15.0578
L54.588 -14.7236
L54.2081 -14.3959
L53.8227 -14.0748
L53.4318 -13.7603
L53.0357 -13.4527
L52.6343 -13.1519
L52.2279 -12.858
L51.8165 -12.5713
L51.4003 -12.2916
L50.9795 -12.0192
z
" id="C0_2_eee3006ac2"/>
    </defs>
    <g clip-path="url(#p1bffca34e9)">
     <use style="fill:#ff0000;stroke:#000000;stroke-width:2.0;" x="0.0" xlink:href="#C0_0_a811fe30f3" y="72.0"/>
    </g>
    <g clip-path="url(#p1bffca34e9)">
     <use style="fill:#ffffff;stroke:#000000;stroke-width:2.0;" x="0.0" xlink:href="#C0_1_f68367a280" y="72.0"/>
    </g>
    <g clip-path="url(#p1bffca34e9)">
     <use style="fill:#ffffff;stroke:#000000;stroke-width:2.0;" x="0.0" xlink:href="#C0_2_eee3006ac2" y="72.0"/>
    </g>
   </g>
  </g>
 </g>
 <defs>
  <clipPath id="p1bffca34e9">
   <rect height="72.0" width="72.0" x="0.0" y="0.0"/>
  </clipPath>
 </defs>
</svg>
