<?xml version="1.0" encoding="utf-8" standalone="no"?>
<!DOCTYPE svg PUBLIC "-//W3C//DTD SVG 1.1//EN"
  "http://www.w3.org/Graphics/SVG/1.1/DTD/svg11.dtd">
<!-- Created with matplotlib (http://matplotlib.org/) -->
<svg height="72pt" version="1.1" viewBox="0 0 72 72" width="72pt" xmlns="http://www.w3.org/2000/svg" xmlns:xlink="http://www.w3.org/1999/xlink">
 <defs>
  <style type="text/css">
*{stroke-linecap:butt;stroke-linejoin:round;}
  </style>
 </defs>
 <g id="figure_1">
  <g id="patch_1">
   <path d="
M0 72
L72 72
L72 0
L0 0
z
" style="fill:none;"/>
  </g>
  <g id="axes_1">
   <g id="PatchCollection_1">
    <defs>
     <path d="
M36 -7.5
C43.5583 -7.5 50.808 -10.5029 56.1525 -15.8475
C61.4971 -21.192 64.5 -28.4417 64.5 -36
C64.5 -43.5583 61.4971 -50.808 56.1525 -56.1525
C50.808 -61.4971 43.5583 -64.5 36 -64.5
C28.4417 -64.5 21.192 -61.4971 15.8475 -56.1525
C10.5029 -50.808 7.5 -43.5583 7.5 -36
C7.5 -28.4417 10.5029 -21.192 15.8475 -15.8475
C21.192 -10.5029 28.4417 -7.5 36 -7.5
z
" id="C0_0_a811fe30f3"/>
     <path d="
M8.56405 -43.1435
L8.75012 -42.9516
L8.94604 -42.7795
L9.15143 -42.627
L9.36589 -42.494
L9.589 -42.38
L9.82036 -42.2845
L10.0595 -42.207
L10.3061 -42.1465
L10.5597 -42.1023
L10.8198 -42.0735
L11.0861 -42.059
L11.3582 -42.0579
L11.6356 -42.0691
L11.918 -42.0916
L12.205 -42.1244
L12.4963 -42.1666
L12.7914 -42.2171
L13.0901 -42.275
L13.392 -42.3396
L13.6968 -42.41
L14.0042 -42.4854
L14.3139 -42.5653
L14.6257 -42.6488
L14.9391 -42.7355
L15.2541 -42.8248
L15.5704 -42.9163
L15.8877 -43.0094
L16.2059 -43.1038
L16.5246 -43.1991
L16.8438 -43.2949
L17.1632 -43.3911
L17.4827 -43.4873
L17.8021 -43.5833
L18.1213 -43.6789
L18.4401 -43.7738
L18.7585 -43.8681
L19.0762 -43.9614
L19.3932 -44.0537
L19.7094 -44.145
L20.0247 -44.2349
L20.339 -44.3236
L20.6522 -44.411
L20.9643 -44.4969
L21.2753 -44.5813
L21.585 -44.6643
L21.8934 -44.7457
L22.2006 -44.8256
L22.5063 -44.9039
L22.8107 -44.9806
L23.1138 -45.0558
L23.4154 -45.1293
L23.7156 -45.2013
L24.0144 -45.2716
L24.3117 -45.3404
L24.6077 -45.4077
L24.9022 -45.4734
L25.1954 -45.5375
L25.4871 -45.6001
L25.7775 -45.6612
L26.0665 -45.7208
L26.3542 -45.779
L26.6405 -45.8356
L26.9256 -45.8909
L27.2095 -45.9447
L27.4921 -45.9972
L27.7735 -46.0483
L28.0538 -46.098
L28.3329 -46.1464
L28.611 -46.1934
L28.888 -46.2392
L29.164 -46.2837
L29.4391 -46.327
L29.7132 -46.369
L29.9864 -46.4098
L30.2588 -46.4494
L30.5304 -46.4879
L30.8013 -46.5251
L31.0715 -46.5612
L31.3409 -46.5962
L31.6098 -46.6301
L31.8782 -46.6628
L32.146 -46.6945
L32.4133 -46.7251
L32.6802 -46.7546
L32.9468 -46.783
L33.213 -46.8104
L33.4789 -46.8368
L33.7447 -46.8621
L34.0102 -46.8864
L34.2757 -46.9097
L34.541 -46.932
L35.0717 -46.9533
L35.3372 -46.9736
L35.6027 -46.9929
L35.8685 -47.0112
L36.1345 -47.0285
L36.4007 -47.0449
L36.6673 -47.0602
L36.9343 -47.0746
L37.2017 -47.088
L37.4696 -47.1004
L37.738 -47.1118
L38.007 -47.1223
L38.2766 -47.1317
L38.5469 -47.1401
L38.818 -47.1476
L39.0898 -47.154
L39.3624 -47.1594
L39.636 -47.1638
L39.9104 -47.1672
L40.1858 -47.1695
L40.4623 -47.1707
L40.7397 -47.171
L41.0183 -47.1701
L41.2981 -47.1681
L41.579 -47.1651
L41.8612 -47.161
L42.1447 -47.1557
L42.4294 -47.1493
L42.7156 -47.1418
L43.0031 -47.133
L43.292 -47.1232
L43.5825 -47.1121
L43.8744 -47.0998
L44.1678 -47.0863
L44.4627 -47.0715
L44.7593 -47.0555
L45.0574 -47.0382
L45.3572 -47.0197
L45.6586 -46.9998
L45.9616 -46.9787
L46.2662 -46.9562
L46.5726 -46.9323
L46.8805 -46.9072
L47.1902 -46.8807
L47.5014 -46.8528
L47.8143 -46.8236
L48.1288 -46.793
L48.4449 -46.761
L48.7625 -46.7277
L49.0816 -46.6931
L49.4022 -46.6572
L49.7242 -46.6199
L50.0475 -46.5814
L50.3721 -46.5417
L50.6979 -46.5008
L51.0247 -46.4587
L51.3526 -46.4156
L51.6813 -46.3715
L52.0108 -46.3266
L52.3409 -46.2808
L52.6715 -46.2344
L53.0024 -46.1874
L53.3334 -46.1401
L53.6644 -46.0926
L53.9951 -46.0451
L54.3253 -45.9979
L54.6548 -45.9511
L54.9834 -45.9052
L55.3106 -45.8605
L55.6364 -45.8172
L55.9602 -45.7758
L56.2819 -45.7368
L56.6011 -45.7006
L56.9174 -45.6678
L57.2303 -45.6389
L57.5396 -45.6147
L57.8447 -45.5958
L58.1453 -45.5829
L58.4407 -45.5768
L58.7307 -45.5784
L59.0146 -45.5885
L59.2919 -45.6081
L59.5621 -45.638
L59.8247 -45.6793
L60.0791 -45.7329
L60.3248 -45.7997
L60.5611 -45.8806
L60.7877 -45.9764
L61.0039 -46.088
L61.2093 -46.216
L61.4033 -46.361
L61.5856 -46.5234
L61.7556 -46.7036
L61.913 -46.9018
L62.0575 -47.1178
L61.9256 -47.3517
L61.7151 -47.8368
L61.4968 -48.2875
L61.2706 -48.7344
L61.0368 -49.1775
L60.7953 -49.6165
L60.5463 -50.0514
L60.2899 -50.482
L60.026 -50.9081
L59.7548 -51.3298
L59.4763 -51.7468
L59.1907 -52.159
L58.8981 -52.5662
L58.5985 -52.9684
L58.292 -53.3655
L57.9787 -53.7572
L57.6587 -54.1436
L57.3321 -54.5244
L56.999 -54.8996
L56.6595 -55.269
L56.3137 -55.6325
L55.9617 -55.9901
L55.6037 -56.3416
L55.2397 -56.6868
L54.8698 -57.0258
L54.4942 -57.3584
L54.1129 -57.6845
L53.7261 -58.0039
L53.3339 -58.3167
L52.9365 -58.6227
L52.5339 -58.9217
L52.1262 -59.2138
L51.7136 -59.4988
L51.2963 -59.7767
L50.8743 -60.0473
L50.4477 -60.3106
L50.0168 -60.5665
L49.5816 -60.8149
L49.1422 -61.0558
L48.6989 -61.289
L48.2516 -61.5145
L47.8007 -61.7322
L47.3461 -61.9421
L46.8881 -62.1441
L46.4268 -62.3382
L45.9623 -62.5242
L45.4948 -62.7021
L45.0243 -62.8719
L44.5512 -63.0335
L44.0754 -63.1869
L43.5971 -63.332
L43.1166 -63.4688
L42.6339 -63.5972
L42.1491 -63.7172
L41.6625 -63.8287
L41.1742 -63.9318
L40.6843 -64.0264
L40.1929 -64.1124
L39.7003 -64.1899
L39.2065 -64.2588
L38.7118 -64.319
L38.2163 -64.3707
L37.72 -64.4137
L37.2233 -64.448
L36.7262 -64.4737
L36.2288 -64.4907
L35.7314 -64.4991
L35.2341 -64.4987
L34.737 -64.4897
L34.2403 -64.472
L33.7441 -64.4456
L33.2486 -64.4106
L32.754 -64.3669
L32.2603 -64.3145
L31.7678 -64.2536
L31.2765 -64.184
L30.7867 -64.1059
L30.2985 -64.0191
L29.8121 -63.9239
L29.3275 -63.8201
L28.8449 -63.7079
L28.3646 -63.5872
L27.8865 -63.4582
L27.4109 -63.3207
L26.938 -63.175
L26.4678 -63.0209
L26.0005 -62.8586
L25.5362 -62.6882
L25.0752 -62.5096
L24.6174 -62.323
L24.1632 -62.1283
L23.7125 -61.9256
L23.2656 -61.7151
L22.8225 -61.4968
L22.3835 -61.2706
L21.9486 -61.0368
L21.518 -60.7953
L21.0919 -60.5463
L20.6702 -60.2899
L20.2532 -60.026
L19.841 -59.7548
L19.4338 -59.4763
L19.0316 -59.1907
L18.6345 -58.8981
L18.2428 -58.5985
L17.8564 -58.292
L17.4756 -57.9787
L17.1004 -57.6587
L16.731 -57.3321
L16.3675 -56.999
L16.0099 -56.6595
L15.6584 -56.3137
L15.3132 -55.9617
L14.9742 -55.6037
L14.6416 -55.2397
L14.3155 -54.8698
L13.9961 -54.4942
L13.6833 -54.1129
L13.3773 -53.7261
L13.0783 -53.3339
L12.7862 -52.9365
L12.5012 -52.5339
L12.2233 -52.1262
L11.9527 -51.7136
L11.6894 -51.2963
L11.4335 -50.8743
L11.1851 -50.4477
L10.9442 -50.0168
L10.711 -49.5816
L10.4855 -49.1422
L10.2678 -48.6989
L10.0579 -48.2516
L9.85587 -47.8007
L9.66184 -47.3461
L9.47582 -46.8881
L9.29789 -46.4268
L9.12809 -45.9623
L8.96648 -45.4948
L8.8131 -45.0243
L8.668 -44.5512
z
" id="C0_1_be8cba4ae5"/>
     <path d="
M10.0753 -24.5138
L10.3561 -24.4271
L10.6431 -24.3276
L10.9361 -24.2165
L11.2348 -24.0949
L11.5389 -23.9638
L11.8481 -23.8245
L12.1621 -23.6779
L12.4806 -23.5251
L12.8034 -23.3671
L13.13 -23.2048
L13.4602 -23.0392
L13.7938 -22.871
L14.1303 -22.701
L14.4696 -22.53
L14.8113 -22.3584
L15.1552 -22.187
L15.501 -22.0162
L15.8484 -21.8466
L16.1972 -21.6784
L16.5471 -21.5121
L16.898 -21.3481
L17.2496 -21.1866
L17.6017 -21.0278
L17.954 -20.8719
L18.3065 -20.7193
L18.6589 -20.5699
L19.0111 -20.4239
L19.3629 -20.2815
L19.7141 -20.1427
L20.0647 -20.0076
L20.4145 -19.8762
L20.7634 -19.7485
L21.1113 -19.6247
L21.4581 -19.5046
L21.8037 -19.3883
L22.1481 -19.2758
L22.4911 -19.167
L22.8328 -19.062
L23.173 -18.9607
L23.5117 -18.863
L23.8489 -18.7689
L24.1845 -18.6784
L24.5186 -18.5914
L24.851 -18.5079
L25.1818 -18.4278
L25.511 -18.3511
L25.8386 -18.2777
L26.1645 -18.2075
L26.4888 -18.1405
L26.8115 -18.0767
L27.1326 -18.016
L27.4521 -17.9582
L27.77 -17.9035
L28.0863 -17.8517
L28.4012 -17.8027
L28.7145 -17.7566
L29.0263 -17.7132
L29.3367 -17.6726
L29.6457 -17.6346
L29.9533 -17.5993
L30.2596 -17.5666
L30.5646 -17.5364
L30.8683 -17.5087
L31.1708 -17.4834
L31.4721 -17.4606
L31.7723 -17.4402
L32.0714 -17.4222
L32.3694 -17.4065
L32.6665 -17.3931
L32.9626 -17.382
L33.2577 -17.3731
L33.5521 -17.3665
L33.8456 -17.362
L34.1384 -17.3598
L34.4304 -17.3597
L34.7218 -17.3618
L35.0126 -17.366
L35.3028 -17.3723
L35.5925 -17.3808
L35.8818 -17.3913
L36.1706 -17.404
L36.4591 -17.4188
L36.7472 -17.4357
L37.0351 -17.4546
L37.3228 -17.4757
L37.6104 -17.4988
L37.8978 -17.5241
L38.1851 -17.5515
L38.4725 -17.581
L38.7599 -17.6126
L39.0474 -17.6463
L39.335 -17.6823
L39.6228 -17.7204
L39.9108 -17.7606
L40.1991 -17.8031
L40.4878 -17.8478
L40.7768 -17.8948
L41.0662 -17.944
L41.3561 -17.9956
L41.6465 -18.0494
L41.9375 -18.1057
L42.229 -18.1643
L42.5212 -18.2253
L42.8141 -18.2888
L43.1077 -18.3548
L43.4021 -18.4234
L43.6972 -18.4945
L43.9932 -18.5683
L44.2901 -18.6447
L44.5878 -18.7238
L44.8865 -18.8056
L45.1861 -18.8903
L45.4868 -18.9778
L45.7884 -19.0683
L46.0911 -19.1616
L46.3949 -19.258
L46.6997 -19.3575
L47.0057 -19.4601
L47.3127 -19.5658
L47.6209 -19.6748
L47.9302 -19.787
L48.2406 -19.9026
L48.5521 -20.0216
L48.8648 -20.1441
L49.1786 -20.27
L49.4935 -20.3995
L49.8095 -20.5327
L50.1265 -20.6694
L50.4446 -20.8099
L50.7637 -20.9542
L51.0837 -21.1022
L51.4047 -21.2541
L51.7266 -21.4098
L52.0492 -21.5694
L52.3726 -21.7328
L52.6967 -21.9002
L53.0215 -22.0715
L53.3467 -22.2467
L53.6723 -22.4257
L53.9983 -22.6086
L54.3246 -22.7953
L54.6509 -22.9857
L54.9772 -23.1797
L55.3034 -23.3772
L55.6294 -23.5782
L55.9549 -23.7824
L56.2798 -23.9896
L56.6041 -24.1998
L56.9274 -24.4125
L57.2498 -24.6276
L57.5708 -24.8447
L57.8905 -25.0635
L58.2087 -25.2836
L58.525 -25.5045
L58.8394 -25.7257
L59.1517 -25.9467
L59.4617 -26.1669
L59.7692 -26.3855
L60.074 -26.602
L60.376 -26.8154
L60.675 -27.0249
L60.9708 -27.2296
L61.2633 -27.4286
L61.5523 -27.6207
L61.8377 -27.8051
L62.1193 -27.9804
L62.3971 -28.1457
L62.6709 -28.2998
L62.9407 -28.4415
L63.2062 -28.5697
L63.4075 -28.6833
L63.2669 -28.1846
L63.118 -27.7074
L62.9609 -27.2328
L62.7955 -26.7609
L62.622 -26.2918
L62.4404 -25.8256
L62.2507 -25.3625
L62.053 -24.9027
L61.8474 -24.4462
L61.6339 -23.9933
L61.4127 -23.544
L61.1836 -23.0986
L60.9469 -22.657
L60.7026 -22.2195
L60.4508 -21.7862
L60.1915 -21.3573
L59.9249 -20.9328
L59.6509 -20.5129
L59.3698 -20.0977
L59.0816 -19.6874
L58.7863 -19.282
L58.484 -18.8817
L58.175 -18.4866
L57.8591 -18.0969
L57.5366 -17.7126
L57.2076 -17.3339
L56.8721 -16.9609
L56.5302 -16.5937
L56.1821 -16.2324
L55.8278 -15.8771
L55.4675 -15.5279
L55.1013 -15.185
L54.7292 -14.8484
L54.3515 -14.5182
L53.9681 -14.1946
L53.5793 -13.8777
L53.1851 -13.5675
L52.7857 -13.2641
L52.3812 -12.9676
L51.9717 -12.6782
L51.5573 -12.3959
L51.1382 -12.1207
L50.7144 -11.8528
L50.2862 -11.5923
L49.8537 -11.3392
L49.4169 -11.0936
L48.976 -10.8557
L48.5312 -10.6253
L48.0825 -10.4027
L47.6302 -10.1879
L47.1743 -9.981
L46.7151 -9.78199
L46.2525 -9.59096
L45.7869 -9.40798
L45.3182 -9.2331
L44.8468 -9.06637
L44.3726 -8.90785
L43.8959 -8.75758
L43.4167 -8.6156
L42.9354 -8.48197
L42.4519 -8.35672
L41.9664 -8.23989
L41.4791 -8.13152
L40.9902 -8.03164
L40.4997 -7.94027
L40.0079 -7.85746
L39.5148 -7.78321
L39.0207 -7.71756
L38.5256 -7.66053
L38.0298 -7.61213
L37.5334 -7.57237
L37.0364 -7.54128
L36.5392 -7.51885
L36.0418 -7.5051
L35.5444 -7.50003
L35.0472 -7.50364
L34.5502 -7.51593
L34.0537 -7.5369
L33.5577 -7.56654
L33.0626 -7.60484
L32.5683 -7.65178
L32.075 -7.70737
L31.5829 -7.77157
L31.0922 -7.84437
L30.603 -7.92574
L30.1154 -8.01567
L29.6297 -8.11412
L29.1458 -8.22107
L28.6641 -8.33648
L28.1846 -8.46032
L27.7074 -8.59254
L27.2328 -8.73311
L26.7609 -8.88199
L26.2918 -9.03913
L25.8256 -9.20448
L25.3625 -9.37799
L24.9027 -9.55962
L24.4462 -9.74929
L23.9933 -9.94697
L23.544 -10.1526
L23.0986 -10.3661
L22.657 -10.5873
L22.2195 -10.8164
L21.7862 -11.0531
L21.3573 -11.2974
L20.9328 -11.5492
L20.5129 -11.8085
L20.0977 -12.0751
L19.6874 -12.3491
L19.282 -12.6302
L18.8817 -12.9184
L18.4866 -13.2137
L18.0969 -13.516
L17.7126 -13.825
L17.3339 -14.1409
L16.9609 -14.4634
L16.5937 -14.7924
L16.2324 -15.1279
L15.8771 -15.4698
L15.5279 -15.8179
L15.185 -16.1722
L14.8484 -16.5325
L14.5182 -16.8987
L14.1946 -17.2708
L13.8777 -17.6485
L13.5675 -18.0319
L13.2641 -18.4207
L12.9676 -18.8149
L12.6782 -19.2143
L12.3959 -19.6188
L12.1207 -20.0283
L11.8528 -20.4427
L11.5923 -20.8618
L11.3392 -21.2856
L11.0936 -21.7138
L10.8557 -22.1463
L10.6253 -22.5831
L10.4027 -23.024
L10.1879 -23.4688
z
" id="C0_2_1552e3b984"/>
    </defs>
    <g clip-path="url(#p1bffca34e9)">
     <use style="fill:#ff0000;stroke:#000000;stroke-width:2.0;" x="0.0" xlink:href="#C0_0_a811fe30f3" y="72.0"/>
    </g>
    <g clip-path="url(#p1bffca34e9)">
     <use style="fill:#ffffff;stroke:#000000;stroke-width:2.0;" x="0.0" xlink:href="#C0_1_be8cba4ae5" y="72.0"/>
    </g>
    <g clip-path="url(#p1bffca34e9)">
     <use style="fill:#ffffff;stroke:#000000;stroke-width:2.0;" x="0.0" xlink:href="#C0_2_1552e3b984" y="72.0"/>
    </g>
   </g>
  </g>
 </g>
 <defs>
  <clipPath id="p1bffca34e9">
   <rect height="72.0" width="72.0" x="0.0" y="0.0"/>
  </clipPath>
 </defs>
</svg>
