<?xml version="1.0" encoding="utf-8" standalone="no"?>
<!DOCTYPE svg PUBLIC "-//W3C//DTD SVG 1.1//EN"
  "http://www.w3.org/Graphics/SVG/1.1/DTD/svg11.dtd">
<!-- Created with matplotlib (http://matplotlib.org/) -->
<svg height="72pt" version="1.1" viewBox="0 0 72 72" width="72pt" xmlns="http://www.w3.org/2000/svg" xmlns:xlink="http://www.w3.org/1999/xlink">
 <defs>
  <style type="text/css">
*{stroke-linecap:butt;stroke-linejoin:round;}
  </style>
 </defs>
 <g id="figure_1">
  <g id="patch_1">
   <path d="
M0 72
L72 72
L72 0
L0 0
z
" style="fill:none;"/>
  </g>
  <g id="axes_1">
   <g id="PatchCollection_1">
    <defs>
     <path d="
M36 -7.5
C43.5583 -7.5 50.808 -10.5029 56.1525 -15.8475
C61.4971 -21.192 64.5 -28.4417 64.5 -36
C64.5 -43.5583 61.4971 -50.808 56.1525 -56.1525
C50.808 -61.4971 43.5583 -64.5 36 -64.5
C28.4417 -64.5 21.192 -61.4971 15.8475 -56.1525
C10.5029 -50.808 7.5 -43.5583 7.5 -36
C7.5 -28.4417 10.5029 -21.192 15.8475 -15.8475
C21.192 -10.5029 28.4417 -7.5 36 -7.5
z
" id="C0_0_a811fe30f3"/>
     <path d="
M38.9034 -64.2606
L38.5455 -64.1076
L38.218 -63.9395
L37.9223 -63.7567
L37.6597 -63.5597
L37.4307 -63.3492
L37.2353 -63.1259
L37.0729 -62.8905
L36.942 -62.6439
L36.8411 -62.387
L36.768 -62.1205
L36.7204 -61.8452
L36.6956 -61.5621
L36.6914 -61.2718
L36.7052 -60.9751
L36.7348 -60.6726
L36.7781 -60.365
L36.8331 -60.0528
L36.8981 -59.7366
L36.9715 -59.4169
L37.052 -59.0942
L37.1385 -58.7689
L37.2298 -58.4414
L37.325 -58.112
L37.4233 -57.7812
L37.5241 -57.4492
L37.6268 -57.1163
L37.7308 -56.7829
L37.8356 -56.4491
L37.941 -56.1154
L38.0465 -55.7817
L38.1518 -55.4484
L38.2568 -55.1157
L38.3612 -54.7838
L38.4648 -54.4527
L38.5675 -54.1227
L38.6692 -53.7938
L38.7696 -53.4663
L38.8689 -53.1402
L38.9668 -52.8156
L39.0633 -52.4926
L39.1584 -52.1713
L39.252 -51.8517
L39.3441 -51.534
L39.4347 -51.2181
L39.5238 -50.9041
L39.6113 -50.592
L39.6973 -50.2819
L39.7818 -49.9738
L39.8647 -49.6676
L39.9462 -49.3635
L40.0261 -49.0614
L40.1045 -48.7612
L40.1815 -48.4631
L40.257 -48.1669
L40.3311 -47.8727
L40.4038 -47.5804
L40.4751 -47.2901
L40.5451 -47.0016
L40.6138 -46.715
L40.6811 -46.4302
L40.7472 -46.1471
L40.812 -45.8659
L40.8757 -45.5863
L40.9381 -45.3084
L40.9993 -45.0321
L41.0595 -44.7574
L41.1185 -44.4842
L41.1764 -44.2125
L41.2332 -43.9422
L41.289 -43.6733
L41.3438 -43.4057
L41.3977 -43.1394
L41.4505 -42.8743
L41.5024 -42.6104
L41.5534 -42.3476
L41.6034 -42.0859
L41.6526 -41.8251
L41.7009 -41.5653
L41.7484 -41.3064
L41.795 -41.0483
L41.8409 -40.791
L41.8859 -40.5344
L41.9302 -40.2785
L41.9738 -40.0232
L42.0165 -39.7684
L42.0586 -39.5141
L42.1 -39.2603
L42.1406 -39.0068
L42.1806 -38.7536
L42.2199 -38.5007
L42.2585 -38.248
L42.2965 -37.9954
L42.3339 -37.7429
L42.4067 -37.4904
L42.4422 -37.2379
L42.4771 -36.9853
L42.5114 -36.7325
L42.5451 -36.4795
L42.5783 -36.2262
L42.6108 -35.9726
L42.6428 -35.7186
L42.6742 -35.4641
L42.7051 -35.2091
L42.7354 -34.9536
L42.7652 -34.6974
L42.7944 -34.4405
L42.823 -34.1829
L42.8511 -33.9244
L42.8786 -33.6651
L42.9056 -33.4048
L42.932 -33.1436
L42.9579 -32.8812
L42.9832 -32.6178
L43.008 -32.3532
L43.0322 -32.0873
L43.0558 -31.8202
L43.0788 -31.5517
L43.1013 -31.2818
L43.1231 -31.0104
L43.1444 -30.7375
L43.165 -30.463
L43.1851 -30.1869
L43.2045 -29.909
L43.2233 -29.6294
L43.2414 -29.348
L43.2589 -29.0647
L43.2757 -28.7795
L43.2918 -28.4924
L43.3072 -28.2032
L43.3219 -27.9119
L43.3359 -27.6186
L43.3491 -27.3231
L43.3616 -27.0254
L43.3733 -26.7255
L43.3842 -26.4233
L43.3943 -26.1188
L43.4035 -25.812
L43.412 -25.5029
L43.4196 -25.1913
L43.4263 -24.8774
L43.4321 -24.5611
L43.4371 -24.2424
L43.4411 -23.9214
L43.4442 -23.5979
L43.4464 -23.2721
L43.4477 -22.9439
L43.4481 -22.6134
L43.4476 -22.2806
L43.4461 -21.9457
L43.4438 -21.6085
L43.4406 -21.2693
L43.4366 -20.9281
L43.4318 -20.585
L43.4263 -20.2401
L43.4201 -19.8936
L43.4133 -19.5456
L43.4061 -19.1962
L43.3985 -18.8457
L43.3908 -18.4942
L43.383 -18.142
L43.3755 -17.7894
L43.3684 -17.4365
L43.3621 -17.0838
L43.3569 -16.7316
L43.3533 -16.3802
L43.3516 -16.03
L43.3526 -15.6816
L43.3568 -15.3353
L43.365 -14.9919
L43.3781 -14.6518
L43.3971 -14.3158
L43.4231 -13.9847
L43.4576 -13.6592
L43.5019 -13.3402
L43.5577 -13.0288
L43.6268 -12.7261
L43.7113 -12.4332
L43.8131 -12.1515
L43.9345 -11.8822
L44.0775 -11.6269
L44.2442 -11.3869
L44.4362 -11.1637
L44.6551 -10.9588
L44.9017 -10.7733
L45.1764 -10.6083
L45.4792 -10.4648
L45.8092 -10.3435
L46.1653 -10.2447
L46.5458 -10.1687
L46.9487 -10.1154
L47.3718 -10.0846
L47.8128 -10.0759
L48.2732 -10.0889
L48.7202 -10.2781
L49.1634 -10.4962
L49.6026 -10.7221
L50.0376 -10.9556
L50.4683 -11.1968
L50.8946 -11.4456
L51.3164 -11.7019
L51.7336 -11.9655
L52.1459 -12.2365
L52.5533 -12.5147
L52.9557 -12.8
L53.3529 -13.0925
L53.7448 -13.3919
L54.1313 -13.6982
L54.5123 -14.0113
L54.8877 -14.331
L55.2573 -14.6574
L55.621 -14.9903
L55.9788 -15.3296
L56.3305 -15.6752
L56.6759 -16.027
L57.0151 -16.3848
L57.3479 -16.7486
L57.6742 -17.1183
L57.9939 -17.4938
L58.3068 -17.8749
L58.613 -18.2615
L58.9123 -18.6535
L59.2046 -19.0508
L59.4899 -19.4532
L59.768 -19.8607
L60.0388 -20.2732
L60.3023 -20.6904
L60.5585 -21.1122
L60.8071 -21.5386
L61.0482 -21.9694
L61.2817 -22.4045
L61.5074 -22.8437
L61.7254 -23.287
L61.9356 -23.7341
L62.1378 -24.1849
L62.3321 -24.6393
L62.5184 -25.0972
L62.6966 -25.5585
L62.8666 -26.0229
L63.0285 -26.4903
L63.1821 -26.9606
L63.3275 -27.4337
L63.4645 -27.9094
L63.5932 -28.3876
L63.7135 -28.8681
L63.8253 -29.3507
L63.9287 -29.8354
L64.0235 -30.322
L64.1098 -30.8102
L64.1875 -31.3001
L64.2567 -31.7914
L64.3173 -32.284
L64.3692 -32.7777
L64.4125 -33.2724
L64.4471 -33.7679
L64.473 -34.2641
L64.4903 -34.7609
L64.4989 -35.258
L64.4989 -35.7553
L64.4901 -36.2527
L64.4727 -36.7501
L64.4466 -37.2472
L64.4118 -37.7439
L64.3684 -38.2401
L64.3163 -38.7356
L64.2557 -39.2303
L64.1864 -39.724
L64.1085 -40.2165
L64.022 -40.7078
L63.9271 -41.1977
L63.8236 -41.6859
L63.7116 -42.1725
L63.5912 -42.6571
L63.4624 -43.1397
L63.3252 -43.6202
L63.1797 -44.0983
L63.0259 -44.574
L62.8639 -45.047
L62.6937 -45.5173
L62.5154 -45.9847
L62.329 -46.449
L62.1346 -46.9102
L61.9322 -47.368
L61.7219 -47.8224
L61.5038 -48.2732
L61.2779 -48.7202
L61.0444 -49.1634
L60.8032 -49.6026
L60.5544 -50.0376
L60.2981 -50.4683
L60.0345 -50.8946
L59.7635 -51.3164
L59.4853 -51.7336
L59.2 -52.1459
L58.9075 -52.5533
L58.6081 -52.9557
L58.3018 -53.3529
L57.9887 -53.7448
L57.669 -54.1313
L57.3426 -54.5123
L57.0097 -54.8877
L56.6704 -55.2573
L56.3248 -55.621
L55.973 -55.9788
L55.6152 -56.3305
L55.2514 -56.6759
L54.8817 -57.0151
L54.5062 -57.3479
L54.1251 -57.6742
L53.7385 -57.9939
L53.3465 -58.3068
L52.9492 -58.613
L52.5468 -58.9123
L52.1393 -59.2046
L51.7268 -59.4899
L51.3096 -59.768
L50.8878 -60.0388
L50.4614 -60.3023
L50.0306 -60.5585
L49.5955 -60.8071
L49.1563 -61.0482
L48.713 -61.2817
L48.2659 -61.5074
L47.8151 -61.7254
L47.3607 -61.9356
L46.9028 -62.1378
L46.4415 -62.3321
L45.9771 -62.5184
L45.5097 -62.6966
L45.0394 -62.8666
L44.5663 -63.0285
L44.0906 -63.1821
L43.6124 -63.3275
L43.1319 -63.4645
L42.6493 -63.5932
L42.1646 -63.7135
L41.678 -63.8253
L41.1898 -63.9287
L40.6999 -64.0235
L40.2086 -64.1098
L39.716 -64.1875
z
" id="C0_1_b97924fa28"/>
     <path d="
M23.8494 -61.6262
L23.522 -61.2924
L23.1879 -60.9522
L22.8493 -60.6056
L22.5082 -60.2532
L22.1663 -59.8951
L21.8249 -59.5317
L21.4856 -59.1634
L21.1492 -58.7905
L20.8169 -58.4135
L20.4894 -58.0328
L20.1675 -57.6486
L19.8517 -57.2614
L19.5425 -56.8717
L19.2402 -56.4796
L18.9453 -56.0857
L18.658 -55.6902
L18.3784 -55.2935
L18.1068 -54.8958
L17.8431 -54.4975
L17.5875 -54.099
L17.34 -53.7003
L17.1005 -53.3018
L16.8691 -52.9038
L16.6456 -52.5064
L16.43 -52.1098
L16.2222 -51.7142
L16.0221 -51.3199
L15.8296 -50.9269
L15.6445 -50.5354
L15.4667 -50.1455
L15.2961 -49.7574
L15.1325 -49.3711
L14.9758 -48.9867
L14.8258 -48.6043
L14.6823 -48.2241
L14.5453 -47.8459
L14.4145 -47.47
L14.2899 -47.0962
L14.1711 -46.7247
L14.0582 -46.3555
L13.951 -45.9886
L13.8492 -45.624
L13.7529 -45.2617
L13.6618 -44.9016
L13.5758 -44.5439
L13.4948 -44.1884
L13.4186 -43.8352
L13.3472 -43.4843
L13.2804 -43.1355
L13.2181 -42.7889
L13.1602 -42.4445
L13.1066 -42.1021
L13.0572 -41.7619
L13.0118 -41.4236
L12.9705 -41.0873
L12.9332 -40.753
L12.8996 -40.4205
L12.8698 -40.0899
L12.8437 -39.761
L12.8213 -39.4339
L12.8023 -39.1084
L12.7869 -38.7846
L12.7749 -38.4623
L12.7662 -38.1415
L12.7609 -37.8222
L12.7589 -37.5042
L12.7601 -37.1876
L12.7644 -36.8723
L12.772 -36.5582
L12.7826 -36.2452
L12.7964 -35.9333
L12.8132 -35.6225
L12.8331 -35.3126
L12.8559 -35.0037
L12.8818 -34.6956
L12.9107 -34.3883
L12.9426 -34.0818
L12.9775 -33.776
L13.0153 -33.4707
L13.0561 -33.1661
L13.0999 -32.8619
L13.1467 -32.5582
L13.1965 -32.2549
L13.2492 -31.952
L13.305 -31.6493
L13.3639 -31.3469
L13.4258 -31.0446
L13.4908 -30.7424
L13.5589 -30.4404
L13.6302 -30.1383
L13.7046 -29.8362
L13.7823 -29.5341
L13.8633 -29.2317
L13.9475 -28.9293
L14.0351 -28.6266
L14.1261 -28.3236
L14.2206 -28.0203
L14.3185 -27.7166
L14.4201 -27.4125
L14.5253 -27.108
L14.6342 -26.803
L14.7469 -26.4975
L14.8634 -26.1914
L14.9839 -25.8848
L15.1083 -25.5775
L15.2369 -25.2696
L15.3696 -24.961
L15.5067 -24.6517
L15.648 -24.3417
L15.7939 -24.0309
L15.9443 -23.7195
L16.0994 -23.4072
L16.2593 -23.0942
L16.424 -22.7805
L16.5938 -22.466
L16.7687 -22.1507
L16.9488 -21.8347
L17.1343 -21.5179
L17.3253 -21.2005
L17.5218 -20.8823
L17.7242 -20.5636
L17.9323 -20.2442
L18.1465 -19.9243
L18.3668 -19.6038
L18.5934 -19.283
L18.8264 -18.9617
L19.0659 -18.6402
L19.312 -18.3185
L19.5649 -17.9967
L19.8247 -17.6748
L20.0916 -17.3531
L20.3655 -17.0316
L20.6467 -16.7106
L20.9352 -16.39
L21.2311 -16.0701
L21.5346 -15.7511
L21.8456 -15.433
L22.1642 -15.1162
L22.4904 -14.8009
L22.8243 -14.4871
L23.1658 -14.1752
L23.515 -13.8653
L23.8716 -13.5578
L24.2357 -13.2528
L24.6071 -12.9505
L24.9857 -12.6514
L25.3711 -12.3555
L25.7632 -12.0631
L26.1615 -11.7746
L26.5657 -11.49
L26.9753 -11.2097
L27.3897 -10.9339
L27.8082 -10.6627
L28.2302 -10.3964
L28.6547 -10.1349
L29.0806 -9.87852
L29.5069 -9.62714
L29.9322 -9.38078
L30.3549 -9.13933
L30.7735 -8.9026
L31.186 -8.67032
L31.5903 -8.44213
L31.9842 -8.21754
L32.3652 -7.996
L32.227 -7.77683
L31.7346 -7.75085
L31.2434 -7.821
L30.7538 -7.89973
L30.2657 -7.98702
L29.7793 -8.08285
L29.2949 -8.18718
L28.8124 -8.29998
L28.3322 -8.42122
L27.8543 -8.55086
L27.3789 -8.68886
L26.9062 -8.83518
L26.4361 -8.98978
L25.9691 -9.1526
L25.505 -9.3236
L25.0442 -9.50273
L24.5867 -9.68993
L24.1326 -9.88514
L23.6822 -10.0883
L23.2356 -10.2994
L22.7928 -10.5183
L22.354 -10.7449
L21.9194 -10.9793
L21.4891 -11.2212
L21.0633 -11.4707
L20.6419 -11.7277
L20.2253 -11.9921
L19.8134 -12.2638
L19.4065 -12.5427
L19.0046 -12.8288
L18.6079 -13.1219
L18.2165 -13.422
L17.8306 -13.729
L17.4501 -14.0427
L17.0753 -14.3632
L16.7063 -14.6902
L16.3432 -15.0237
L15.986 -15.3636
L15.6349 -15.7099
L15.2901 -16.0622
L14.9515 -16.4207
L14.6194 -16.7851
L14.2938 -17.1554
L13.9747 -17.5314
L13.6624 -17.913
L13.3569 -18.3002
L13.0583 -18.6927
L12.7667 -19.0905
L12.4822 -19.4935
L12.2048 -19.9015
L11.9347 -20.3144
L11.6719 -20.7321
L11.4165 -21.1544
L11.1686 -21.5812
L10.9283 -22.0125
L10.6956 -22.448
L10.4706 -22.8876
L10.2534 -23.3312
L10.044 -23.7787
L9.84253 -24.2299
L9.64903 -24.6847
L9.46356 -25.1429
L9.28618 -25.6045
L9.11693 -26.0692
L8.95587 -26.5369
L8.80305 -27.0075
L8.65851 -27.4809
L8.5223 -27.9568
L8.39446 -28.4352
L8.27503 -28.9159
L8.16405 -29.3988
L8.06154 -29.8837
L7.96755 -30.3704
L7.88209 -30.8588
L7.8052 -31.3489
L7.7369 -31.8403
L7.6772 -32.333
L7.62614 -32.8268
L7.58371 -33.3216
L7.54995 -33.8172
L7.52484 -34.3135
L7.50842 -34.8102
L7.50067 -35.3074
L7.5016 -35.8047
L7.51122 -36.3021
L7.52951 -36.7995
L7.55647 -37.2965
L7.5921 -37.7932
L7.63638 -38.2894
L7.6893 -38.7848
L7.75085 -39.2794
L7.821 -39.773
L7.89973 -40.2654
L7.98702 -40.7566
L8.08285 -41.2462
L8.18718 -41.7343
L8.29998 -42.2207
L8.42122 -42.7051
L8.55086 -43.1876
L8.68886 -43.6678
L8.83518 -44.1457
L8.98978 -44.6211
L9.1526 -45.0938
L9.3236 -45.5639
L9.50273 -46.0309
L9.68993 -46.495
L9.88514 -46.9558
L10.0883 -47.4133
L10.2994 -47.8674
L10.5183 -48.3178
L10.7449 -48.7644
L10.9793 -49.2072
L11.2212 -49.646
L11.4707 -50.0806
L11.7277 -50.5109
L11.9921 -50.9367
L12.2638 -51.3581
L12.5427 -51.7747
L12.8288 -52.1866
L13.1219 -52.5935
L13.422 -52.9954
L13.729 -53.3921
L14.0427 -53.7835
L14.3632 -54.1694
L14.6902 -54.5499
L15.0237 -54.9247
L15.3636 -55.2937
L15.7099 -55.6568
L16.0622 -56.014
L16.4207 -56.3651
L16.7851 -56.7099
L17.1554 -57.0485
L17.5314 -57.3806
L17.913 -57.7062
L18.3002 -58.0253
L18.6927 -58.3376
L19.0905 -58.6431
L19.4935 -58.9417
L19.9015 -59.2333
L20.3144 -59.5178
L20.7321 -59.7952
L21.1544 -60.0653
L21.5812 -60.3281
L22.0125 -60.5835
L22.448 -60.8314
L22.8876 -61.0717
L23.3312 -61.3044
z
" id="C0_2_7be240fe71"/>
    </defs>
    <g clip-path="url(#p1bffca34e9)">
     <use style="fill:#ff0000;stroke:#000000;stroke-width:2.0;" x="0.0" xlink:href="#C0_0_a811fe30f3" y="72.0"/>
    </g>
    <g clip-path="url(#p1bffca34e9)">
     <use style="fill:#ffffff;stroke:#000000;stroke-width:2.0;" x="0.0" xlink:href="#C0_1_b97924fa28" y="72.0"/>
    </g>
    <g clip-path="url(#p1bffca34e9)">
     <use style="fill:#ffffff;stroke:#000000;stroke-width:2.0;" x="0.0" xlink:href="#C0_2_7be240fe71" y="72.0"/>
    </g>
   </g>
  </g>
 </g>
 <defs>
  <clipPath id="p1bffca34e9">
   <rect height="72.0" width="72.0" x="0.0" y="0.0"/>
  </clipPath>
 </defs>
</svg>
