<?xml version="1.0" encoding="utf-8" standalone="no"?>
<!DOCTYPE svg PUBLIC "-//W3C//DTD SVG 1.1//EN"
  "http://www.w3.org/Graphics/SVG/1.1/DTD/svg11.dtd">
<!-- Created with matplotlib (http://matplotlib.org/) -->
<svg height="72pt" version="1.1" viewBox="0 0 72 72" width="72pt" xmlns="http://www.w3.org/2000/svg" xmlns:xlink="http://www.w3.org/1999/xlink">
 <defs>
  <style type="text/css">
*{stroke-linecap:butt;stroke-linejoin:round;}
  </style>
 </defs>
 <g id="figure_1">
  <g id="patch_1">
   <path d="
M0 72
L72 72
L72 0
L0 0
z
" style="fill:none;"/>
  </g>
  <g id="axes_1">
   <g id="PatchCollection_1">
    <defs>
     <path d="
M36 -7.5
C43.5583 -7.5 50.808 -10.5029 56.1525 -15.8475
C61.4971 -21.192 64.5 -28.4417 64.5 -36
C64.5 -43.5583 61.4971 -50.808 56.1525 -56.1525
C50.808 -61.4971 43.5583 -64.5 36 -64.5
C28.4417 -64.5 21.192 -61.4971 15.8475 -56.1525
C10.5029 -50.808 7.5 -43.5583 7.5 -36
C7.5 -28.4417 10.5029 -21.192 15.8475 -15.8475
C21.192 -10.5029 28.4417 -7.5 36 -7.5
z
" id="C0_0_a811fe30f3"/>
     <path d="
M14.0965 -18.1094
L14.5026 -18.1309
L14.9083 -18.1615
L15.3135 -18.2003
L15.7178 -18.2466
L16.1209 -18.3002
L16.5226 -18.3604
L16.9226 -18.4269
L17.3207 -18.4995
L17.7168 -18.5777
L18.1105 -18.6613
L18.5017 -18.7499
L18.8902 -18.8433
L19.2759 -18.9412
L19.6586 -19.0433
L20.0381 -19.1493
L20.4143 -19.2591
L20.7871 -19.3723
L21.1564 -19.4887
L21.5221 -19.6081
L21.8841 -19.7303
L22.2424 -19.855
L22.5969 -19.9821
L22.9475 -20.1114
L23.2941 -20.2426
L23.6369 -20.3757
L23.9757 -20.5105
L24.3106 -20.6468
L24.6415 -20.7844
L24.9685 -20.9233
L25.2916 -21.0632
L25.6107 -21.2042
L25.926 -21.346
L26.2374 -21.4887
L26.545 -21.632
L26.8488 -21.7759
L27.1489 -21.9203
L27.4453 -22.0652
L27.7382 -22.2104
L28.0275 -22.356
L28.3132 -22.5018
L28.5956 -22.6478
L28.8746 -22.794
L29.1503 -22.9403
L29.4228 -23.0867
L29.6921 -23.2332
L29.9584 -23.3797
L30.2216 -23.5262
L30.4819 -23.6726
L30.7394 -23.8191
L30.994 -23.9655
L31.246 -24.1119
L31.4953 -24.2582
L31.7421 -24.4045
L31.9863 -24.5506
L32.2282 -24.6968
L32.4677 -24.8428
L32.705 -24.9889
L32.94 -25.1348
L33.1729 -25.2808
L33.4038 -25.4267
L33.6327 -25.5726
L33.8597 -25.7185
L34.0849 -25.8645
L34.3083 -26.0104
L34.53 -26.1565
L34.75 -26.3026
L34.9685 -26.4488
L35.1855 -26.5951
L35.401 -26.7416
L35.6152 -26.8882
L35.8281 -27.035
L36.0397 -27.1821
L36.2501 -27.3294
L36.4594 -27.477
L36.6677 -27.6249
L36.8749 -27.7731
L37.0812 -27.9217
L37.2866 -28.0707
L37.4912 -28.2202
L37.695 -28.3701
L37.8981 -28.5205
L38.1005 -28.6715
L38.3024 -28.823
L38.7044 -28.9752
L38.9048 -29.128
L39.1047 -29.2815
L39.3043 -29.4358
L39.5036 -29.5908
L39.7027 -29.7467
L39.9016 -29.9034
L40.1004 -30.061
L40.2991 -30.2195
L40.4977 -30.3791
L40.6964 -30.5397
L40.8951 -30.7014
L41.0939 -30.8642
L41.2929 -31.0282
L41.4921 -31.1935
L41.6915 -31.36
L41.8912 -31.5279
L42.0913 -31.6972
L42.2917 -31.8679
L42.4926 -32.0401
L42.6939 -32.2139
L42.8958 -32.3894
L43.0982 -32.5665
L43.3012 -32.7453
L43.5048 -32.926
L43.7091 -33.1085
L43.9141 -33.2929
L44.1199 -33.4794
L44.3264 -33.6679
L44.5338 -33.8585
L44.7419 -34.0513
L44.951 -34.2464
L45.161 -34.4438
L45.3719 -34.6436
L45.5838 -34.846
L45.7967 -35.0508
L46.0106 -35.2583
L46.2255 -35.4685
L46.4415 -35.6814
L46.6585 -35.8973
L46.8766 -36.116
L47.0958 -36.3378
L47.3161 -36.5626
L47.5374 -36.7906
L47.7598 -37.0218
L47.9833 -37.2564
L48.2079 -37.4943
L48.4335 -37.7357
L48.6601 -37.9807
L48.8878 -38.2292
L49.1163 -38.4815
L49.3458 -38.7375
L49.5762 -38.9973
L49.8074 -39.2611
L50.0393 -39.5287
L50.2719 -39.8004
L50.5052 -40.0762
L50.7389 -40.3561
L50.973 -40.6402
L51.2075 -40.9284
L51.4422 -41.221
L51.6769 -41.5178
L51.9116 -41.8189
L52.1461 -42.1243
L52.3802 -42.4341
L52.6137 -42.7482
L52.8466 -43.0666
L53.0785 -43.3893
L53.3093 -43.7163
L53.5388 -44.0476
L53.7668 -44.3831
L53.9929 -44.7227
L54.2171 -45.0664
L54.4389 -45.4141
L54.6582 -45.7656
L54.8746 -46.121
L55.0879 -46.4801
L55.2977 -46.8427
L55.5038 -47.2088
L55.7057 -47.5781
L55.9032 -47.9506
L56.0959 -48.326
L56.2833 -48.7042
L56.465 -49.085
L56.6402 -49.4681
L56.8082 -49.8535
L56.9675 -50.2409
L57.1153 -50.6302
L57.2447 -51.0213
L57.3326 -51.4142
L57.2872 -51.8097
L56.9899 -52.2115
L56.5587 -52.62
L56.0855 -53.0236
L55.5939 -53.4161
L55.0911 -53.7961
L54.5802 -54.1629
L54.0631 -54.5162
L53.5409 -54.8558
L53.0146 -55.1818
L52.4851 -55.4939
L51.9532 -55.7922
L51.4194 -56.0767
L50.8844 -56.3475
L50.3489 -56.6047
L49.8135 -56.8483
L49.2785 -57.0787
L48.7447 -57.2959
L48.2124 -57.5001
L47.6822 -57.6916
L47.1543 -57.8707
L46.6293 -58.0375
L46.1075 -58.1925
L45.5892 -58.3358
L45.0747 -58.4677
L44.5643 -58.5887
L44.0583 -58.6989
L43.5568 -58.7988
L43.0602 -58.8886
L42.5685 -58.9686
L42.0819 -59.0393
L41.6006 -59.1008
L41.1246 -59.1535
L40.6541 -59.1978
L40.1891 -59.2339
L39.7296 -59.2621
L39.2758 -59.2828
L38.8276 -59.2961
L38.3851 -59.3025
L37.9482 -59.3021
L37.517 -59.2953
L37.0914 -59.2822
L36.6713 -59.2632
L36.2568 -59.2384
L35.8478 -59.2081
L35.4442 -59.1725
L35.046 -59.1318
L34.653 -59.0863
L34.2653 -59.036
L33.8827 -58.9812
L33.5051 -58.922
L33.1326 -58.8586
L32.7649 -58.7912
L32.4019 -58.72
L32.0437 -58.6449
L31.6901 -58.5663
L31.341 -58.4841
L30.9962 -58.3986
L30.6558 -58.3098
L30.3196 -58.2178
L29.9875 -58.1227
L29.6594 -58.0246
L29.3352 -57.9237
L29.0148 -57.8199
L28.6982 -57.7133
L28.3852 -57.6041
L28.0757 -57.4922
L27.7696 -57.3777
L27.4669 -57.2607
L27.1675 -57.1412
L26.8712 -57.0192
L26.578 -56.8949
L26.2878 -56.7681
L26.0006 -56.639
L25.7161 -56.5076
L25.4344 -56.3738
L25.1553 -56.2377
L24.8789 -56.0994
L24.6049 -55.9587
L24.3334 -55.8158
L24.0643 -55.6706
L23.7974 -55.5231
L23.5328 -55.3733
L23.2703 -55.2212
L23.01 -55.0668
L22.7516 -54.9101
L22.4953 -54.751
L22.2408 -54.5895
L21.9882 -54.4256
L21.7374 -54.2593
L21.4883 -54.0905
L21.241 -53.9192
L20.9953 -53.7454
L20.7511 -53.569
L20.5085 -53.39
L20.2675 -53.2084
L20.0279 -53.0239
L19.7897 -52.8368
L19.5529 -52.6468
L19.3175 -52.4539
L19.0834 -52.258
L18.8506 -52.0592
L18.619 -51.8573
L18.3887 -51.6522
L18.1597 -51.4439
L17.9318 -51.2323
L17.7052 -51.0173
L17.4797 -50.7988
L17.2554 -50.5768
L17.0322 -50.3512
L16.8102 -50.1218
L16.5894 -49.8886
L16.3698 -49.6515
L16.1513 -49.4103
L15.934 -49.165
L15.718 -48.9154
L15.5031 -48.6615
L15.2896 -48.4031
L15.0773 -48.1402
L14.8664 -47.8725
L14.6568 -47.5999
L14.4487 -47.3224
L14.2421 -47.0399
L14.037 -46.752
L13.8336 -46.4588
L13.6318 -46.1601
L13.4318 -45.8558
L13.2337 -45.5456
L13.0376 -45.2295
L12.8435 -44.9074
L12.6517 -44.5789
L12.4622 -44.2441
L12.2752 -43.9027
L12.0908 -43.5547
L11.9093 -43.1997
L11.7306 -42.8378
L11.5552 -42.4687
L11.3831 -42.0923
L11.2145 -41.7084
L11.0498 -41.3169
L10.8891 -40.9176
L10.7327 -40.5105
L10.5808 -40.0953
L10.4338 -39.6719
L10.2919 -39.2403
L10.1554 -38.8002
L10.0248 -38.3517
L9.90028 -37.8946
L9.78225 -37.4288
L9.6711 -36.9543
L9.56721 -36.471
L9.471 -35.9788
L9.38288 -35.4779
L9.3033 -34.9681
L9.2327 -34.4495
L9.17155 -33.9221
L9.12031 -33.3861
L9.07948 -32.8415
L9.04953 -32.2885
L9.03097 -31.7273
L9.0243 -31.1579
L9.03002 -30.5808
L9.04862 -29.9961
L9.0806 -29.4042
L9.12647 -28.8053
L9.18669 -28.2
L9.26173 -27.5886
L9.35205 -26.9717
L9.45809 -26.3497
L9.60632 -25.7231
L9.798 -25.2472
L9.99766 -24.7882
L10.2052 -24.3326
L10.4207 -23.8806
L10.6439 -23.4322
L10.8749 -22.9877
L11.1135 -22.5472
L11.3597 -22.1107
L11.6134 -21.6785
L11.8745 -21.2507
L12.143 -20.8273
L12.4187 -20.4086
L12.7016 -19.9946
L12.9917 -19.5855
L13.2887 -19.1814
L13.5926 -18.7824
z
" id="C0_1_38d0e82db5"/>
     <path d="
M62.2666 -46.844
L61.9073 -47.3766
L61.535 -47.9016
L61.1502 -48.4182
L60.7535 -48.9259
L60.3456 -49.4242
L59.9276 -49.9126
L59.5009 -50.3904
L59.0687 -50.857
L58.6381 -51.3118
L58.2325 -51.7532
L57.944 -52.1772
L57.8916 -52.5825
L57.9575 -52.9803
L58.0504 -53.3763
L58.5363 -53.7715
L58.8373 -53.4461
L59.1314 -53.0501
L59.4185 -52.6489
L59.6984 -52.2427
L59.9711 -51.8315
L60.2364 -51.4155
L60.4944 -50.9948
L60.745 -50.5696
L60.988 -50.1398
L61.2234 -49.7058
L61.4511 -49.2676
L61.6711 -48.8254
L61.8832 -48.3793
L62.0875 -47.9294
z
" id="C0_2_d800b461f5"/>
    </defs>
    <g clip-path="url(#p1bffca34e9)">
     <use style="fill:#ffffff;stroke:#000000;stroke-width:2.0;" x="0.0" xlink:href="#C0_0_a811fe30f3" y="72.0"/>
    </g>
    <g clip-path="url(#p1bffca34e9)">
     <use style="fill:#ff0000;stroke:#000000;stroke-width:2.0;" x="0.0" xlink:href="#C0_1_38d0e82db5" y="72.0"/>
    </g>
    <g clip-path="url(#p1bffca34e9)">
     <use style="fill:#ff0000;stroke:#000000;stroke-width:2.0;" x="0.0" xlink:href="#C0_2_d800b461f5" y="72.0"/>
    </g>
   </g>
  </g>
 </g>
 <defs>
  <clipPath id="p1bffca34e9">
   <rect height="72.0" width="72.0" x="0.0" y="0.0"/>
  </clipPath>
 </defs>
</svg>
