<?xml version="1.0" encoding="utf-8" standalone="no"?>
<!DOCTYPE svg PUBLIC "-//W3C//DTD SVG 1.1//EN"
  "http://www.w3.org/Graphics/SVG/1.1/DTD/svg11.dtd">
<!-- Created with matplotlib (http://matplotlib.org/) -->
<svg height="72pt" version="1.1" viewBox="0 0 72 72" width="72pt" xmlns="http://www.w3.org/2000/svg" xmlns:xlink="http://www.w3.org/1999/xlink">
 <defs>
  <style type="text/css">
*{stroke-linecap:butt;stroke-linejoin:round;}
  </style>
 </defs>
 <g id="figure_1">
  <g id="patch_1">
   <path d="
M0 72
L72 72
L72 0
L0 0
z
" style="fill:none;"/>
  </g>
  <g id="axes_1">
   <g id="PatchCollection_1">
    <defs>
     <path d="
M36 -7.5
C43.5583 -7.5 50.808 -10.5029 56.1525 -15.8475
C61.4971 -21.192 64.5 -28.4417 64.5 -36
C64.5 -43.5583 61.4971 -50.808 56.1525 -56.1525
C50.808 -61.4971 43.5583 -64.5 36 -64.5
C28.4417 -64.5 21.192 -61.4971 15.8475 -56.1525
C10.5029 -50.808 7.5 -43.5583 7.5 -36
C7.5 -28.4417 10.5029 -21.192 15.8475 -15.8475
C21.192 -10.5029 28.4417 -7.5 36 -7.5
z
" id="C0_0_a811fe30f3"/>
     <path d="
M31.408 -7.96536
L31.2363 -8.17334
L31.0704 -8.38304
L30.9101 -8.59439
L30.7552 -8.80729
L30.6057 -9.02167
L30.4613 -9.23743
L30.322 -9.45453
L30.1875 -9.67288
L30.0579 -9.89242
L29.933 -10.1131
L29.8126 -10.3349
L29.6967 -10.5577
L29.5852 -10.7815
L29.4779 -11.0063
L29.3748 -11.232
L29.2757 -11.4586
L29.1806 -11.686
L29.0894 -11.9143
L29.002 -12.1433
L28.9183 -12.3731
L28.8383 -12.6037
L28.7618 -12.8351
L28.6888 -13.0671
L28.6193 -13.2999
L28.5531 -13.5334
L28.4902 -13.7675
L28.4306 -14.0023
L28.3742 -14.2379
L28.3209 -14.474
L28.2707 -14.7109
L28.2235 -14.9484
L28.1794 -15.1865
L28.1381 -15.4254
L28.0998 -15.6648
L28.0644 -15.905
L28.0021 -16.1458
L27.9751 -16.3872
L27.9509 -16.6294
L27.9293 -16.8722
L27.9105 -17.1157
L27.8944 -17.3599
L27.8809 -17.6047
L27.8701 -17.8503
L27.8619 -18.0965
L27.8563 -18.3435
L27.8533 -18.5912
L27.8529 -18.8396
L27.8551 -19.0887
L27.8599 -19.3386
L27.8672 -19.5891
L27.8772 -19.8405
L27.8897 -20.0925
L27.9047 -20.3453
L27.9223 -20.5989
L27.9426 -20.8532
L27.9654 -21.1083
L27.9908 -21.3642
L28.0188 -21.6207
L28.0494 -21.8781
L28.0826 -22.1362
L28.1185 -22.3951
L28.157 -22.6547
L28.1983 -22.915
L28.2422 -23.1761
L28.2888 -23.4379
L28.3381 -23.7004
L28.3902 -23.9636
L28.4451 -24.2275
L28.5028 -24.4921
L28.5633 -24.7573
L28.6267 -25.0231
L28.693 -25.2896
L28.7622 -25.5566
L28.8343 -25.8242
L28.9095 -26.0923
L28.9876 -26.3608
L29.0688 -26.6298
L29.1531 -26.8993
L29.2405 -27.169
L29.331 -27.4391
L29.4248 -27.7094
L29.5218 -27.98
L29.622 -28.2506
L29.7256 -28.5214
L29.8325 -28.7921
L29.9428 -29.0628
L30.0566 -29.3334
L30.1738 -29.6037
L30.2946 -29.8737
L30.4189 -30.1434
L30.5468 -30.4125
L30.6783 -30.6811
L30.8135 -30.949
L30.9524 -31.216
L31.0951 -31.4822
L31.2415 -31.7473
L31.3918 -32.0113
L31.5459 -32.274
L31.7039 -32.5353
L31.8658 -32.7951
L32.0317 -33.0532
L32.2016 -33.3095
L32.3754 -33.5638
L32.5533 -33.816
L32.7351 -34.0659
L32.9211 -34.3134
L33.1111 -34.5583
L33.3051 -34.8005
L33.5032 -35.0398
L33.7054 -35.276
L33.9117 -35.509
L34.1219 -35.7386
L34.3363 -35.9647
L34.5546 -36.1871
L34.7768 -36.4056
L35.0031 -36.6201
L35.2332 -36.8304
L35.4672 -37.0364
L35.705 -37.238
L35.9465 -37.4349
L36.1917 -37.6271
L36.4405 -37.8145
L36.6928 -37.9969
L36.9486 -38.1742
L37.2077 -38.3463
L37.47 -38.5131
L37.7355 -38.6746
L38.004 -38.8305
L38.2755 -38.981
L38.5497 -39.1258
L38.8266 -39.265
L39.106 -39.3985
L39.3878 -39.5263
L39.6719 -39.6483
L39.9581 -39.7645
L40.2463 -39.875
L40.5363 -39.9797
L40.828 -40.0786
L41.1213 -40.1718
L41.4159 -40.2593
L41.7117 -40.3411
L42.0087 -40.4172
L42.3066 -40.4877
L42.6052 -40.5526
L42.9045 -40.6121
L43.2044 -40.6661
L43.5046 -40.7147
L43.805 -40.758
L44.1055 -40.7961
L44.4059 -40.829
L44.7062 -40.8569
L45.0062 -40.8797
L45.3057 -40.8976
L45.6048 -40.9107
L45.9031 -40.919
L46.2008 -40.9227
L46.4975 -40.9218
L46.7933 -40.9163
L47.0881 -40.9065
L47.3817 -40.8923
L47.6741 -40.8739
L47.9652 -40.8513
L48.2549 -40.8246
L48.5431 -40.794
L48.8298 -40.7594
L49.1149 -40.7209
L49.3984 -40.6788
L49.6802 -40.6329
L49.9602 -40.5833
L50.2383 -40.5303
L50.5147 -40.4737
L50.7891 -40.4138
L51.0616 -40.3504
L51.3321 -40.2838
L51.6006 -40.214
L51.8671 -40.1409
L52.1315 -40.0648
L52.3938 -39.9856
L52.6541 -39.9033
L52.9121 -39.8181
L53.1681 -39.7299
L53.4218 -39.6389
L53.6734 -39.545
L53.9228 -39.4483
L54.17 -39.3488
L54.4149 -39.2466
L54.6577 -39.1416
L54.8982 -39.034
L55.1364 -38.9237
L55.3724 -38.8108
L55.6062 -38.6952
L55.8377 -38.5771
L56.0669 -38.4564
L56.2938 -38.3331
L56.5185 -38.2072
L56.7409 -38.0788
L56.961 -37.9479
L57.1788 -37.8144
L57.3944 -37.6785
L57.6076 -37.5399
L57.8185 -37.3989
L58.0271 -37.2553
L58.2334 -37.1092
L58.4374 -36.9605
L58.639 -36.8093
L58.8383 -36.6555
L59.0353 -36.4991
L59.2298 -36.3401
L59.422 -36.1785
L59.6118 -36.0143
L59.7992 -35.8475
L59.9842 -35.6779
L60.1667 -35.5057
L60.3467 -35.3307
L60.5243 -35.1529
L60.6993 -34.9724
L60.8718 -34.7891
L61.0417 -34.6029
L61.209 -34.4138
L61.3736 -34.2217
L61.5356 -34.0267
L61.6949 -33.8287
L61.8514 -33.6276
L62.0051 -33.4234
L62.1559 -33.2161
L62.3038 -33.0056
L62.4488 -32.7918
L62.5907 -32.5747
L62.7295 -32.3542
L62.8652 -32.1304
L62.9976 -31.903
L63.1268 -31.6722
L63.2525 -31.4377
L63.3748 -31.1996
L63.4935 -30.9578
L63.6085 -30.7123
L63.7198 -30.4628
L63.8273 -30.2095
L63.74 -29.9523
L63.6217 -29.4622
L63.4949 -28.9791
L63.3598 -28.4981
L63.2164 -28.0194
L63.0646 -27.5431
L62.9046 -27.0694
L62.7365 -26.5984
L62.5601 -26.1303
L62.3757 -25.6652
L62.1833 -25.2032
L61.9829 -24.7445
L61.7745 -24.2893
L61.5583 -23.8376
L61.3344 -23.3896
L61.1027 -22.9455
L60.8633 -22.5053
L60.6164 -22.0693
L60.362 -21.6375
L60.1002 -21.2101
L59.831 -20.7871
L59.5546 -20.3689
L59.271 -19.9553
L58.9803 -19.5467
L58.6826 -19.1431
L58.378 -18.7446
L58.0666 -18.3513
L57.7484 -17.9635
L57.4237 -17.5811
L57.0924 -17.2043
L56.7546 -16.8333
L56.4106 -16.4681
L56.0603 -16.1089
L55.704 -15.7557
L55.3416 -15.4087
L54.9734 -15.0679
L54.5993 -14.7335
L54.2196 -14.4057
L53.8343 -14.0843
L53.4437 -13.7697
L53.0477 -13.4618
L52.6465 -13.1608
L52.2402 -12.8668
L51.829 -12.5798
L51.413 -12.2999
L50.9922 -12.0273
L50.5669 -11.7619
L50.1372 -11.504
L49.7032 -11.2535
L49.2649 -11.0105
L48.8227 -10.7752
L48.3765 -10.5475
L47.9266 -10.3276
L47.473 -10.1155
L47.016 -9.91132
L46.5556 -9.71506
L46.0919 -9.5268
L45.6252 -9.34662
L45.1556 -9.17455
L44.6832 -9.01065
L44.2081 -8.85497
L43.7305 -8.70757
L43.2506 -8.56847
L42.7685 -8.43773
L42.2843 -8.31539
L41.7982 -8.20148
L41.3103 -8.09604
L40.8208 -7.9991
L40.3299 -7.91068
L39.8376 -7.83083
L39.3441 -7.75955
L38.8497 -7.69688
L38.3543 -7.64282
L37.8583 -7.59741
L37.3617 -7.56065
L36.8646 -7.53255
L36.3673 -7.51312
L35.8699 -7.50237
L35.3725 -7.5003
L34.8754 -7.50691
L34.3785 -7.5222
L33.8822 -7.54616
L33.3865 -7.57879
L32.8916 -7.62008
L32.3976 -7.67002
L31.9048 -7.72858
z
" id="C0_1_76cbd7ddd0"/>
     <path d="
M8.33211 -42.2497
L8.53903 -42.441
L8.74832 -42.6315
L8.95997 -42.8212
L9.17401 -43.0102
L9.39042 -43.1985
L9.60922 -43.3861
L9.83042 -43.573
L10.054 -43.7592
L10.28 -43.9448
L10.5084 -44.1299
L10.7392 -44.3143
L10.9725 -44.4983
L11.2081 -44.6816
L11.4462 -44.8645
L11.6866 -45.0469
L11.9295 -45.2289
L12.1748 -45.4104
L12.4224 -45.5915
L12.6725 -45.7722
L12.9249 -45.9525
L13.1796 -46.1325
L13.4367 -46.3122
L13.6961 -46.4916
L13.9579 -46.6707
L14.2219 -46.8496
L14.4881 -47.0283
L14.7566 -47.2067
L15.0272 -47.385
L15.3001 -47.5632
L15.575 -47.7412
L15.852 -47.9192
L16.131 -48.0971
L16.412 -48.275
L16.695 -48.4529
L16.9798 -48.6308
L17.2664 -48.8088
L17.5548 -48.9869
L17.8449 -49.1652
L18.1365 -49.3436
L18.4298 -49.5222
L18.7245 -49.7011
L19.0206 -49.8802
L19.3179 -50.0597
L19.6166 -50.2395
L19.9163 -50.4197
L20.2171 -50.6003
L20.5189 -50.7814
L20.8215 -50.963
L21.1248 -51.1451
L21.4289 -51.3278
L21.7334 -51.5111
L22.0385 -51.6951
L22.3439 -51.8797
L22.6496 -52.065
L22.9554 -52.251
L23.2613 -52.4378
L23.5671 -52.6254
L23.8729 -52.8137
L24.1783 -53.0028
L24.4835 -53.1928
L24.7882 -53.3835
L25.0924 -53.5751
L25.396 -53.7674
L25.6989 -53.9606
L26.0011 -54.1545
L26.3024 -54.3492
L26.6028 -54.5447
L26.9023 -54.7408
L27.2006 -54.9376
L27.4979 -55.1351
L27.7941 -55.3331
L28.089 -55.5316
L28.3827 -55.7306
L28.675 -55.9301
L28.9661 -56.1298
L29.2558 -56.3299
L29.544 -56.5301
L29.8309 -56.7304
L30.1163 -56.9308
L30.4003 -57.1312
L30.6828 -57.3314
L30.9638 -57.5314
L31.2433 -57.7311
L31.5213 -57.9304
L31.7978 -58.1292
L32.0729 -58.3275
L32.3464 -58.5251
L32.6184 -58.7219
L32.8889 -58.9179
L33.158 -59.113
L33.4255 -59.3071
L33.6916 -59.5001
L33.9563 -59.692
L34.2195 -59.8826
L34.4813 -60.0718
L34.7417 -60.2597
L35.0007 -60.4461
L35.2583 -60.631
L35.5146 -60.8143
L35.7695 -60.996
L36.0231 -61.1759
L36.2755 -61.3541
L36.5265 -61.5305
L36.7763 -61.705
L37.0248 -61.8776
L37.2722 -62.0483
L37.5183 -62.2169
L37.7633 -62.3836
L38.0072 -62.5482
L38.2499 -62.7107
L38.4916 -62.871
L38.7322 -63.0293
L38.9717 -63.1853
L39.2102 -63.3392
L39.4478 -63.4909
L39.6844 -63.6403
L39.92 -63.7875
L40.1548 -63.9324
L39.9095 -64.0751
L39.4162 -64.2306
L38.9219 -64.2945
L38.4267 -64.3498
L37.9307 -64.3965
L37.4342 -64.4345
L36.9372 -64.4639
L36.4399 -64.4846
L35.9425 -64.4966
L35.4451 -64.4999
L34.9479 -64.4946
L34.451 -64.4806
L33.9546 -64.4579
L33.4588 -64.4265
L32.9638 -64.3865
L32.4697 -64.3378
L31.9767 -64.2805
L31.4849 -64.2146
L30.9944 -64.1401
L30.5055 -64.057
L30.0183 -63.9654
L29.5329 -63.8652
L29.0495 -63.7566
L28.5682 -63.6395
L28.0891 -63.514
L27.6125 -63.3801
L27.1384 -63.2378
L26.667 -63.0873
L26.1984 -62.9285
L25.7329 -62.7615
L25.2704 -62.5864
L24.8113 -62.4032
L24.3555 -62.2119
L23.9033 -62.0126
L23.4548 -61.8054
L23.0101 -61.5904
L22.5693 -61.3675
L22.1327 -61.137
L21.7003 -60.8987
L21.2722 -60.6529
L20.8486 -60.3996
L20.4296 -60.1389
L20.0154 -59.8708
L19.606 -59.5954
L19.2017 -59.3128
L18.8024 -59.0232
L18.4084 -58.7265
L18.0197 -58.4229
L17.6366 -58.1124
L17.259 -57.7953
L16.8871 -57.4715
L16.5211 -57.1411
L16.1609 -56.8043
L15.8069 -56.4612
L15.4589 -56.1119
L15.1173 -55.7564
L14.782 -55.3949
L14.4531 -55.0275
L14.1308 -54.6543
L13.8152 -54.2754
L13.5064 -53.8909
L13.2043 -53.501
L12.9093 -53.1058
L12.6212 -52.7054
L12.3403 -52.2998
L12.0666 -51.8893
L11.8002 -51.474
L11.5412 -51.0539
L11.2896 -50.6293
L11.0455 -50.2002
L10.8091 -49.7668
L10.5803 -49.3292
L10.3592 -48.8875
L10.146 -48.4419
L9.94063 -47.9925
L9.74321 -47.5395
L9.55378 -47.0829
L9.37242 -46.623
L9.19916 -46.1598
L9.03406 -45.6935
L8.87718 -45.2243
L8.72857 -44.7523
L8.58826 -44.2776
L8.4563 -43.8004
L8.33272 -43.3208
z
" id="C0_2_61b768574a"/>
    </defs>
    <g clip-path="url(#p1bffca34e9)">
     <use style="fill:#ffffff;stroke:#000000;stroke-width:2.0;" x="0.0" xlink:href="#C0_0_a811fe30f3" y="72.0"/>
    </g>
    <g clip-path="url(#p1bffca34e9)">
     <use style="fill:#ff0000;stroke:#000000;stroke-width:2.0;" x="0.0" xlink:href="#C0_1_76cbd7ddd0" y="72.0"/>
    </g>
    <g clip-path="url(#p1bffca34e9)">
     <use style="fill:#ff0000;stroke:#000000;stroke-width:2.0;" x="0.0" xlink:href="#C0_2_61b768574a" y="72.0"/>
    </g>
   </g>
  </g>
 </g>
 <defs>
  <clipPath id="p1bffca34e9">
   <rect height="72.0" width="72.0" x="0.0" y="0.0"/>
  </clipPath>
 </defs>
</svg>
