<?xml version="1.0" encoding="utf-8" standalone="no"?>
<!DOCTYPE svg PUBLIC "-//W3C//DTD SVG 1.1//EN"
  "http://www.w3.org/Graphics/SVG/1.1/DTD/svg11.dtd">
<!-- Created with matplotlib (http://matplotlib.org/) -->
<svg height="72pt" version="1.1" viewBox="0 0 72 72" width="72pt" xmlns="http://www.w3.org/2000/svg" xmlns:xlink="http://www.w3.org/1999/xlink">
 <defs>
  <style type="text/css">
*{stroke-linecap:butt;stroke-linejoin:round;}
  </style>
 </defs>
 <g id="figure_1">
  <g id="patch_1">
   <path d="
M0 72
L72 72
L72 0
L0 0
z
" style="fill:none;"/>
  </g>
  <g id="axes_1">
   <g id="PatchCollection_1">
    <defs>
     <path d="
M36 -7.5
C43.5583 -7.5 50.808 -10.5029 56.1525 -15.8475
C61.4971 -21.192 64.5 -28.4417 64.5 -36
C64.5 -43.5583 61.4971 -50.808 56.1525 -56.1525
C50.808 -61.4971 43.5583 -64.5 36 -64.5
C28.4417 -64.5 21.192 -61.4971 15.8475 -56.1525
C10.5029 -50.808 7.5 -43.5583 7.5 -36
C7.5 -28.4417 10.5029 -21.192 15.8475 -15.8475
C21.192 -10.5029 28.4417 -7.5 36 -7.5
z
" id="C0_0_a811fe30f3"/>
     <path d="
M7.58888 -36.4751
L7.81058 -36.6602
L8.0376 -36.8246
L8.26954 -36.9681
L8.50604 -37.091
L8.74672 -37.1935
L8.99126 -37.276
L9.23936 -37.3391
L9.49072 -37.3834
L9.74511 -37.4096
L10.0023 -37.4186
L10.262 -37.4112
L10.5242 -37.3885
L10.7886 -37.3512
L11.055 -37.3006
L11.3233 -37.2375
L11.5935 -37.1629
L11.8652 -37.0778
L12.1386 -36.9832
L12.4133 -36.8798
L12.6893 -36.7686
L12.9665 -36.6505
L13.2447 -36.526
L13.5239 -36.396
L13.8039 -36.2612
L14.0847 -36.1221
L14.3661 -35.9793
L14.6479 -35.8333
L14.9303 -35.6847
L15.2129 -35.5339
L15.4957 -35.3812
L15.7786 -35.2271
L16.0615 -35.0719
L16.3444 -34.9159
L16.6271 -34.7594
L16.9096 -34.6025
L17.1917 -34.4457
L17.4734 -34.289
L17.7546 -34.1326
L18.0353 -33.9767
L18.3155 -33.8214
L18.5949 -33.6669
L18.8736 -33.5133
L19.1516 -33.3607
L19.4288 -33.2092
L19.7052 -33.0587
L19.9806 -32.9095
L20.2552 -32.7616
L20.5288 -32.6149
L20.8015 -32.4697
L21.0732 -32.3257
L21.3439 -32.1832
L21.6137 -32.0422
L21.8824 -31.9025
L22.1501 -31.7644
L22.4168 -31.6276
L22.6825 -31.4924
L22.9472 -31.3586
L23.2109 -31.2262
L23.4737 -31.0953
L23.7354 -30.9658
L23.9962 -30.8378
L24.2561 -30.7112
L24.515 -30.5859
L24.7731 -30.4621
L25.0303 -30.3396
L25.2866 -30.2184
L25.5421 -30.0986
L25.7968 -29.9801
L26.0508 -29.8628
L26.304 -29.7468
L26.5565 -29.632
L26.8083 -29.5185
L27.0595 -29.4061
L27.3101 -29.2949
L27.5602 -29.1849
L27.8097 -29.0759
L28.0587 -28.9681
L28.3073 -28.8613
L28.5554 -28.7556
L28.8032 -28.6508
L29.0507 -28.5471
L29.2979 -28.4444
L29.5448 -28.3426
L29.7915 -28.2418
L30.038 -28.1418
L30.2845 -28.0428
L30.5308 -27.9446
L30.7772 -27.8473
L31.0235 -27.7508
L31.2699 -27.6551
L31.5164 -27.5602
L31.7631 -27.4661
L32.257 -27.3727
L32.5043 -27.28
L32.752 -27.1881
L33.0001 -27.0968
L33.2486 -27.0063
L33.4976 -26.9164
L33.7471 -26.8271
L33.9971 -26.7385
L34.2478 -26.6505
L34.4991 -26.5631
L34.7512 -26.4763
L35.004 -26.3901
L35.2575 -26.3045
L35.512 -26.2194
L35.7673 -26.1348
L36.0236 -26.0508
L36.2808 -25.9673
L36.5391 -25.8844
L36.7985 -25.8019
L37.059 -25.7199
L37.3206 -25.6384
L37.5835 -25.5574
L37.8476 -25.4769
L38.113 -25.3968
L38.3798 -25.3172
L38.6479 -25.238
L38.9175 -25.1593
L39.1885 -25.0811
L39.461 -25.0032
L39.7351 -24.9259
L40.0107 -24.8489
L40.2879 -24.7724
L40.5667 -24.6964
L40.8472 -24.6207
L41.1293 -24.5455
L41.4132 -24.4707
L41.6988 -24.3963
L41.9861 -24.3224
L42.2752 -24.2489
L42.5661 -24.1758
L42.8587 -24.1031
L43.1531 -24.0308
L43.4493 -23.9589
L43.7472 -23.8875
L44.0469 -23.8164
L44.3483 -23.7458
L44.6514 -23.6755
L44.9562 -23.6056
L45.2626 -23.536
L45.5705 -23.4668
L45.88 -23.3979
L46.191 -23.3293
L46.5033 -23.261
L46.8169 -23.193
L47.1317 -23.1251
L47.4476 -23.0574
L47.7644 -22.9898
L48.0821 -22.9223
L48.4004 -22.8548
L48.7191 -22.7872
L49.0382 -22.7193
L49.3574 -22.6513
L49.6765 -22.5828
L49.9952 -22.5137
L50.3132 -22.444
L50.6303 -22.3735
L50.9462 -22.3019
L51.2605 -22.2291
L51.5728 -22.1548
L51.8828 -22.0787
L52.19 -22.0006
L52.494 -21.9202
L52.7943 -21.837
L53.0904 -21.7508
L53.3817 -21.6611
L53.6677 -21.5674
L53.9477 -21.4692
L54.2211 -21.3661
L54.4872 -21.2574
L54.7454 -21.1427
L54.9949 -21.0212
L55.235 -20.8924
L55.465 -20.7557
L55.684 -20.6104
L55.8914 -20.4559
L56.0863 -20.2915
L56.2681 -20.1168
L56.4361 -19.9312
L56.5896 -19.7342
L56.728 -19.5256
L56.8508 -19.3049
L56.9574 -19.0721
L57.0474 -18.8269
L57.1205 -18.5696
L57.1764 -18.3001
L57.2149 -18.0188
L57.2358 -17.726
L57.239 -17.4222
L56.9609 -17.1079
L56.6207 -16.6896
L56.2742 -16.3267
L55.9215 -15.9698
L55.5628 -15.619
L55.1981 -15.2745
L54.8275 -14.9362
L54.4513 -14.6044
L54.0694 -14.279
L53.682 -13.9603
L53.2892 -13.6483
L52.8912 -13.3431
L52.488 -13.0448
L52.0797 -12.7536
L51.6666 -12.4693
L51.2487 -12.1923
L50.8262 -11.9225
L50.3992 -11.66
L49.9677 -11.405
L49.532 -11.1574
L49.0922 -10.9175
L48.6484 -10.6851
L48.2008 -10.4605
L47.7494 -10.2436
L47.2944 -10.0346
L46.8361 -9.83351
L46.3744 -9.64038
L45.9095 -9.45527
L45.4417 -9.27826
L44.9709 -9.10938
L44.4974 -8.9487
L44.0214 -8.79626
L43.5429 -8.6521
L43.0621 -8.51627
L42.5791 -8.38882
L42.0941 -8.26977
L41.6073 -8.15918
L41.1188 -8.05706
L40.6287 -7.96345
L40.1372 -7.87839
L39.6445 -7.80189
L39.1506 -7.73398
L38.6558 -7.67468
L38.1601 -7.62401
L37.6638 -7.58198
L37.167 -7.54861
L36.6699 -7.5239
L36.1725 -7.50787
L35.6751 -7.50052
L35.1778 -7.50185
L34.6807 -7.51186
L34.1841 -7.53055
L33.688 -7.55791
L33.1926 -7.59393
L32.698 -7.63861
L32.2045 -7.69193
L31.7121 -7.75387
L31.221 -7.82441
L30.7314 -7.90353
L30.2434 -7.99122
L29.7571 -8.08743
L29.2728 -8.19215
L28.7904 -8.30534
L28.3103 -8.42696
L27.8326 -8.55699
L27.3573 -8.69537
L26.8846 -8.84207
L26.4147 -8.99704
L25.9478 -9.16024
L25.4839 -9.33162
L25.0232 -9.51111
L24.5658 -9.69868
L24.112 -9.89426
L23.6617 -10.0978
L23.2152 -10.3092
L22.7726 -10.5285
L22.3341 -10.7555
L21.8997 -10.9902
L21.4696 -11.2325
L21.0439 -11.4823
L20.6228 -11.7396
L20.2063 -12.0044
L19.7947 -12.2764
L19.388 -12.5556
L18.9864 -12.842
L18.5899 -13.1355
L18.1988 -13.4359
L17.8131 -13.7432
L17.4329 -14.0572
L17.0583 -14.378
L16.6896 -14.7053
L16.3267 -15.0391
L15.9698 -15.3793
L15.619 -15.7258
L15.2745 -16.0785
L14.9362 -16.4372
L14.6044 -16.8019
L14.279 -17.1725
L13.9603 -17.5487
L13.6483 -17.9306
L13.3431 -18.318
L13.0448 -18.7108
L12.7536 -19.1088
L12.4693 -19.512
L12.1923 -19.9203
L11.9225 -20.3334
L11.66 -20.7513
L11.405 -21.1738
L11.1574 -21.6008
L10.9175 -22.0323
L10.6851 -22.468
L10.4605 -22.9078
L10.2436 -23.3516
L10.0346 -23.7992
L9.83351 -24.2506
L9.64038 -24.7056
L9.45527 -25.1639
L9.27826 -25.6256
L9.10938 -26.0905
L8.9487 -26.5583
L8.79626 -27.0291
L8.6521 -27.5026
L8.51627 -27.9786
L8.38882 -28.4571
L8.26977 -28.9379
L8.15918 -29.4209
L8.05706 -29.9059
L7.96345 -30.3927
L7.87839 -30.8812
L7.80189 -31.3713
L7.73398 -31.8628
L7.67468 -32.3555
L7.62401 -32.8494
L7.58198 -33.3442
L7.54861 -33.8399
L7.5239 -34.3362
L7.50787 -34.833
L7.50052 -35.3301
z
" id="C0_1_c21fc24ff5"/>
     <path d="
M14.9705 -55.0397
L15.2991 -55.0961
L15.6351 -55.1593
L15.978 -55.2284
L16.3273 -55.3024
L16.6824 -55.3806
L17.0428 -55.462
L17.4081 -55.546
L17.7776 -55.6316
L18.151 -55.7184
L18.5277 -55.8055
L18.9074 -55.8925
L19.2895 -55.9789
L19.6738 -56.0641
L20.0597 -56.1478
L20.447 -56.2296
L20.8352 -56.309
L21.2242 -56.386
L21.6134 -56.4602
L22.0028 -56.5314
L22.3919 -56.5993
L22.7805 -56.664
L23.1685 -56.7252
L23.5556 -56.7829
L23.9416 -56.8369
L24.3263 -56.8873
L24.7095 -56.934
L25.0912 -56.9769
L25.4711 -57.016
L25.8491 -57.0514
L26.2252 -57.0831
L26.5992 -57.111
L26.9711 -57.1352
L27.3408 -57.1559
L27.7081 -57.1729
L28.0731 -57.1863
L28.4357 -57.1962
L28.7959 -57.2027
L29.1536 -57.2058
L29.5088 -57.2055
L29.8615 -57.202
L30.2117 -57.1952
L30.5594 -57.1853
L30.9046 -57.1723
L31.2472 -57.1562
L31.5874 -57.1372
L31.9251 -57.1152
L32.2603 -57.0904
L32.5931 -57.0627
L32.9235 -57.0323
L33.2515 -56.9992
L33.5771 -56.9634
L33.9004 -56.925
L34.2215 -56.8841
L34.5403 -56.8407
L34.8569 -56.7947
L35.1714 -56.7464
L35.4837 -56.6956
L35.794 -56.6425
L36.1023 -56.5871
L36.4086 -56.5293
L36.713 -56.4694
L37.0155 -56.4071
L37.3162 -56.3427
L37.6151 -56.276
L37.9123 -56.2072
L38.2079 -56.1362
L38.5018 -56.0631
L38.7942 -55.9879
L39.085 -55.9106
L39.3744 -55.8311
L39.6623 -55.7496
L39.9489 -55.666
L40.2342 -55.5803
L40.5182 -55.4925
L40.801 -55.4026
L41.0827 -55.3106
L41.3632 -55.2166
L41.6427 -55.1204
L41.9212 -55.0221
L42.1986 -54.9217
L42.4752 -54.8192
L42.7509 -54.7146
L43.0258 -54.6077
L43.2999 -54.4987
L43.5732 -54.3875
L43.8459 -54.2741
L44.1179 -54.1584
L44.3893 -54.0405
L44.6601 -53.9203
L44.9304 -53.7977
L45.2003 -53.6728
L45.4696 -53.5455
L45.7386 -53.4158
L46.0072 -53.2836
L46.2754 -53.1489
L46.5433 -53.0117
L46.811 -52.872
L47.0784 -52.7296
L47.3456 -52.5845
L47.6126 -52.4368
L47.8794 -52.2863
L48.1461 -52.133
L48.4127 -51.9769
L48.6792 -51.8178
L48.9457 -51.6558
L49.212 -51.4908
L49.4784 -51.3228
L49.7447 -51.1517
L50.011 -50.9773
L50.2773 -50.7998
L50.5436 -50.619
L50.8099 -50.4348
L51.0762 -50.2473
L51.3426 -50.0563
L51.6089 -49.8617
L51.8752 -49.6637
L52.1415 -49.462
L52.4077 -49.2566
L52.6739 -49.0474
L52.9401 -48.8345
L53.2061 -48.6178
L53.472 -48.3971
L53.7378 -48.1725
L54.0034 -47.9439
L54.2687 -47.7113
L54.5338 -47.4747
L54.7985 -47.2339
L55.0629 -46.989
L55.3268 -46.74
L55.5902 -46.4869
L55.853 -46.2296
L56.1153 -45.9681
L56.3768 -45.7025
L56.6375 -45.4328
L56.8974 -45.1591
L57.1563 -44.8813
L57.4142 -44.5995
L57.671 -44.3139
L57.9266 -44.0244
L58.1808 -43.7314
L58.4337 -43.4348
L58.6851 -43.1348
L58.9349 -42.8317
L59.183 -42.5256
L59.4294 -42.2168
L59.6739 -41.9056
L59.9166 -41.5922
L60.1572 -41.2771
L60.3959 -40.9606
L60.6324 -40.6431
L60.8668 -40.3251
L61.0991 -40.0071
L61.3292 -39.6896
L61.5571 -39.3734
L61.783 -39.059
L62.0068 -38.7472
L62.2286 -38.4386
L62.4486 -38.1342
L62.6667 -37.8348
L62.8833 -37.5412
L63.0984 -37.2545
L63.3122 -36.9756
L63.525 -36.7054
L63.7369 -36.4451
L63.9482 -36.1956
L64.1591 -35.958
L64.4991 -35.7331
L64.4907 -36.2293
L64.4737 -36.7267
L64.448 -37.2238
L64.4137 -37.7205
L64.3706 -38.2168
L64.319 -38.7123
L64.2587 -39.207
L64.1898 -39.7008
L64.1123 -40.1934
L64.0263 -40.6847
L63.9317 -41.1747
L63.8286 -41.663
L63.7171 -42.1496
L63.5971 -42.6344
L63.4686 -43.1171
L63.3319 -43.5976
L63.1868 -44.0759
L63.0334 -44.5516
L62.8717 -45.0248
L62.7019 -45.4952
L62.524 -45.9628
L62.338 -46.4273
L62.1439 -46.8886
L61.9419 -47.3466
L61.732 -47.8011
L61.5143 -48.2521
L61.2887 -48.6993
L61.0555 -49.1426
L60.8147 -49.582
L60.5663 -50.0172
L60.3104 -50.4481
L60.0471 -50.8747
L59.7764 -51.2967
L59.4986 -51.714
L59.2135 -52.1266
L58.9214 -52.5343
L58.6224 -52.9369
L58.3164 -53.3343
L58.0036 -53.7265
L57.6841 -54.1133
L57.3581 -54.4945
L57.0255 -54.8702
L56.6865 -55.24
L56.3412 -55.604
L55.9897 -55.9621
L55.6322 -56.3141
L55.2686 -56.6598
L54.8992 -56.9993
L54.524 -57.3324
L54.1432 -57.659
L53.7568 -57.979
L53.3651 -58.2923
L52.968 -58.5988
L52.5658 -58.8984
L52.1585 -59.191
L51.7464 -59.4766
L51.3294 -59.755
L50.9077 -60.0262
L50.4815 -60.2901
L50.0509 -60.5466
L49.616 -60.7956
L49.177 -61.037
L48.734 -61.2709
L48.2871 -61.497
L47.8364 -61.7153
L47.3821 -61.9259
L46.9244 -62.1285
L46.4633 -62.3231
L45.9991 -62.5098
L45.5318 -62.6884
L45.0616 -62.8588
L44.5886 -63.0211
L44.113 -63.1751
L43.635 -63.3209
L43.1546 -63.4583
L42.672 -63.5874
L42.1874 -63.708
L41.701 -63.8202
L41.2128 -63.924
L40.723 -64.0192
L40.2317 -64.1059
L39.7392 -64.1841
L39.2455 -64.2536
L38.7509 -64.3146
L38.2554 -64.3669
L37.7592 -64.4106
L37.2625 -64.4457
L36.7654 -64.472
L36.2681 -64.4897
L35.7707 -64.4987
L35.2733 -64.4991
L34.7762 -64.4907
L34.2795 -64.4737
L33.7832 -64.448
L33.2877 -64.4137
L32.793 -64.3706
L32.2992 -64.319
L31.8066 -64.2587
L31.3153 -64.1898
L30.8253 -64.1123
L30.337 -64.0263
L29.8504 -63.9317
L29.3656 -63.8286
L28.8829 -63.7171
L28.4024 -63.5971
L27.9241 -63.4686
L27.4484 -63.3319
L26.9752 -63.1868
L26.5048 -63.0334
L26.0372 -62.8717
L25.5727 -62.7019
L25.1114 -62.524
L24.6534 -62.338
L24.1989 -62.1439
L23.7479 -61.9419
L23.3007 -61.732
L22.8574 -61.5143
L22.418 -61.2887
L21.9828 -61.0555
L21.5519 -60.8147
L21.1253 -60.5663
L20.7033 -60.3104
L20.286 -60.0471
L19.8734 -59.7764
L19.4657 -59.4986
L19.0631 -59.2135
L18.6657 -58.9214
L18.2735 -58.6224
L17.8867 -58.3164
L17.5055 -58.0036
L17.1298 -57.6841
L16.76 -57.3581
L16.396 -57.0255
L16.0379 -56.6865
L15.6859 -56.3412
L15.3402 -55.9897
z
" id="C0_2_88faaf2112"/>
    </defs>
    <g clip-path="url(#p1bffca34e9)">
     <use style="fill:#ff0000;stroke:#000000;stroke-width:2.0;" x="0.0" xlink:href="#C0_0_a811fe30f3" y="72.0"/>
    </g>
    <g clip-path="url(#p1bffca34e9)">
     <use style="fill:#ffffff;stroke:#000000;stroke-width:2.0;" x="0.0" xlink:href="#C0_1_c21fc24ff5" y="72.0"/>
    </g>
    <g clip-path="url(#p1bffca34e9)">
     <use style="fill:#ffffff;stroke:#000000;stroke-width:2.0;" x="0.0" xlink:href="#C0_2_88faaf2112" y="72.0"/>
    </g>
   </g>
  </g>
 </g>
 <defs>
  <clipPath id="p1bffca34e9">
   <rect height="72.0" width="72.0" x="0.0" y="0.0"/>
  </clipPath>
 </defs>
</svg>
