<?xml version="1.0" encoding="utf-8" standalone="no"?>
<!DOCTYPE svg PUBLIC "-//W3C//DTD SVG 1.1//EN"
  "http://www.w3.org/Graphics/SVG/1.1/DTD/svg11.dtd">
<!-- Created with matplotlib (http://matplotlib.org/) -->
<svg height="72pt" version="1.1" viewBox="0 0 72 72" width="72pt" xmlns="http://www.w3.org/2000/svg" xmlns:xlink="http://www.w3.org/1999/xlink">
 <defs>
  <style type="text/css">
*{stroke-linecap:butt;stroke-linejoin:round;}
  </style>
 </defs>
 <g id="figure_1">
  <g id="patch_1">
   <path d="
M0 72
L72 72
L72 0
L0 0
z
" style="fill:none;"/>
  </g>
  <g id="axes_1">
   <g id="PatchCollection_1">
    <defs>
     <path d="
M36 -7.5
C43.5583 -7.5 50.808 -10.5029 56.1525 -15.8475
C61.4971 -21.192 64.5 -28.4417 64.5 -36
C64.5 -43.5583 61.4971 -50.808 56.1525 -56.1525
C50.808 -61.4971 43.5583 -64.5 36 -64.5
C28.4417 -64.5 21.192 -61.4971 15.8475 -56.1525
C10.5029 -50.808 7.5 -43.5583 7.5 -36
C7.5 -28.4417 10.5029 -21.192 15.8475 -15.8475
C21.192 -10.5029 28.4417 -7.5 36 -7.5
z
" id="C0_0_a811fe30f3"/>
     <path d="
M7.71447 -37.729
L7.89433 -37.6036
L8.07601 -37.4817
L8.25947 -37.3632
L8.44466 -37.2479
L8.63155 -37.1359
L8.82012 -37.027
L9.01033 -36.9211
L9.20217 -36.8182
L9.39559 -36.7183
L9.5906 -36.6212
L9.78716 -36.5269
L9.98527 -36.4353
L10.1849 -36.3464
L10.386 -36.2601
L10.5887 -36.1764
L10.7928 -36.0952
L11.2056 -36.0166
L11.4142 -35.9403
L11.6243 -35.8665
L11.8358 -35.795
L12.0488 -35.7259
L12.2633 -35.6591
L12.4793 -35.5945
L12.6967 -35.5322
L12.9156 -35.4721
L13.136 -35.4142
L13.3578 -35.3584
L13.5812 -35.3048
L13.806 -35.2534
L14.0324 -35.204
L14.2602 -35.1568
L14.4896 -35.1116
L14.7205 -35.0686
L14.9529 -35.0276
L15.1868 -34.9886
L15.4222 -34.9518
L15.6592 -34.917
L15.8977 -34.8842
L16.1378 -34.8535
L16.3794 -34.8249
L16.6225 -34.7984
L16.8673 -34.7739
L17.1136 -34.7515
L17.3614 -34.7312
L17.6108 -34.713
L17.8617 -34.697
L18.1142 -34.683
L18.3683 -34.6712
L18.6239 -34.6616
L18.8811 -34.6542
L19.1397 -34.649
L19.4 -34.646
L19.6617 -34.6453
L19.9249 -34.6469
L20.1896 -34.6508
L20.4558 -34.6571
L20.7234 -34.6657
L20.9924 -34.6768
L21.2628 -34.6903
L21.5346 -34.7064
L21.8077 -34.7249
L22.0821 -34.746
L22.3578 -34.7698
L22.6348 -34.7962
L22.9128 -34.8253
L23.1921 -34.8572
L23.4724 -34.8919
L23.7537 -34.9295
L24.036 -34.97
L24.3192 -35.0134
L24.6033 -35.0599
L24.8881 -35.1094
L25.1736 -35.1621
L25.4597 -35.218
L25.7463 -35.2771
L26.0334 -35.3396
L26.3209 -35.4054
L26.6086 -35.4746
L26.8965 -35.5474
L27.1844 -35.6237
L27.4722 -35.7036
L27.7599 -35.7873
L28.0474 -35.8746
L28.3344 -35.9658
L28.6209 -36.0608
L28.9067 -36.1598
L29.1918 -36.2627
L29.476 -36.3697
L29.7592 -36.4807
L30.0412 -36.5959
L30.3218 -36.7153
L30.6011 -36.8388
L30.8788 -36.9667
L31.1547 -37.0988
L31.4288 -37.2352
L31.701 -37.376
L31.971 -37.5211
L32.2387 -37.6706
L32.5041 -37.8245
L32.7669 -37.9828
L33.0271 -38.1454
L33.2846 -38.3124
L33.5392 -38.4838
L33.7907 -38.6594
L34.0392 -38.8394
L34.2845 -39.0236
L34.5264 -39.2119
L34.765 -39.4044
L35.0001 -39.601
L35.2316 -39.8016
L35.4595 -40.006
L35.6836 -40.2144
L35.904 -40.4264
L36.1206 -40.6421
L36.3332 -40.8612
L36.542 -41.0839
L36.7468 -41.3098
L36.9476 -41.5389
L37.1444 -41.771
L37.3372 -42.0061
L37.5259 -42.244
L37.7106 -42.4845
L37.8912 -42.7276
L38.0678 -42.973
L38.2403 -43.2207
L38.4088 -43.4705
L38.5732 -43.7223
L38.7336 -43.9759
L38.8901 -44.2312
L39.0426 -44.4881
L39.1911 -44.7464
L39.3357 -45.006
L39.4765 -45.2668
L39.6134 -45.5286
L39.7464 -45.7913
L39.8758 -46.0548
L40.0013 -46.319
L40.1232 -46.5838
L40.2414 -46.849
L40.356 -47.1146
L40.467 -47.3804
L40.5745 -47.6464
L40.6784 -47.9124
L40.7789 -48.1784
L40.876 -48.4443
L40.9697 -48.71
L41.0601 -48.9754
L41.1472 -49.2405
L41.231 -49.5051
L41.3116 -49.7693
L41.389 -50.0329
L41.4633 -50.296
L41.5345 -50.5584
L41.6026 -50.8201
L41.6677 -51.081
L41.7298 -51.3412
L41.7889 -51.6005
L41.8451 -51.859
L41.8983 -52.1166
L41.9487 -52.3732
L41.9963 -52.6289
L42.041 -52.8837
L42.0829 -53.1374
L42.122 -53.3901
L42.1584 -53.6417
L42.1921 -53.8923
L42.223 -54.1418
L42.2513 -54.3903
L42.2768 -54.6376
L42.2997 -54.8839
L42.32 -55.1291
L42.3376 -55.3731
L42.3525 -55.616
L42.3649 -55.8578
L42.3746 -56.0985
L42.3817 -56.3381
L42.3862 -56.5765
L42.3881 -56.8139
L42.3874 -57.0501
L42.384 -57.2852
L42.3781 -57.5192
L42.3695 -57.7521
L42.3582 -57.9839
L42.3444 -58.2146
L42.3278 -58.4442
L42.3086 -58.6728
L42.2866 -58.9002
L42.262 -59.1266
L42.2346 -59.3519
L42.2045 -59.5762
L42.1715 -59.7994
L42.1358 -60.0215
L42.0972 -60.2426
L42.0557 -60.4627
L42.0113 -60.6817
L41.9639 -60.8997
L41.9135 -61.1166
L41.8601 -61.3325
L41.8035 -61.5474
L41.7438 -61.7612
L41.6809 -61.974
L41.6148 -62.1857
L41.5453 -62.3964
L41.4724 -62.6061
L41.3961 -62.8147
L41.3162 -63.0222
L41.2327 -63.2286
L41.1456 -63.434
L41.0547 -63.6382
L40.9599 -63.8414
L40.4731 -64.0434
L39.9811 -64.1468
L39.488 -64.2206
L38.9938 -64.2858
L38.4987 -64.3423
L38.0029 -64.3902
L37.5064 -64.4295
L37.0095 -64.4602
L36.5123 -64.4821
L36.0149 -64.4954
L35.5175 -64.5
L35.0202 -64.4959
L34.5233 -64.4832
L34.0268 -64.4617
L33.5309 -64.4316
L33.0357 -64.3928
L32.5415 -64.3454
L32.0483 -64.2894
L31.5563 -64.2247
L31.0657 -64.1514
L30.5765 -64.0696
L30.0891 -63.9792
L29.6034 -63.8803
L29.1196 -63.7729
L28.638 -63.657
L28.1586 -63.5327
L27.6816 -63.4001
L27.2072 -63.259
L26.7354 -63.1097
L26.2664 -62.9521
L25.8004 -62.7863
L25.3375 -62.6124
L24.8778 -62.4303
L24.4216 -62.2402
L23.9689 -62.0421
L23.5198 -61.836
L23.0745 -61.6221
L22.6332 -61.4004
L22.1959 -61.171
L21.7629 -60.9339
L21.3342 -60.6892
L20.9099 -60.4369
L20.4903 -60.1772
L20.0753 -59.9102
L19.6652 -59.6359
L19.2601 -59.3544
L18.8601 -59.0657
L18.4654 -58.7701
L18.0759 -58.4675
L17.6919 -58.158
L17.3135 -57.8418
L16.9408 -57.519
L16.5739 -57.1896
L16.2129 -56.8537
L15.858 -56.5115
L15.5091 -56.163
L15.1666 -55.8085
L14.8303 -55.4478
L14.5005 -55.0813
L14.1773 -54.7089
L13.8607 -54.3308
L13.5508 -53.9472
L13.2478 -53.5581
L12.9518 -53.1636
L12.6627 -52.7639
L12.3807 -52.3591
L12.106 -51.9493
L11.8385 -51.5347
L11.5784 -51.1153
L11.3257 -50.6913
L11.0805 -50.2629
L10.843 -49.8301
L10.6131 -49.3931
L10.3909 -48.952
L10.1765 -48.5069
L9.97 -48.0581
L9.77142 -47.6056
L9.58083 -47.1495
L9.39829 -46.6901
L9.22385 -46.2274
L9.05756 -45.7615
L8.89949 -45.2927
L8.74966 -44.8211
L8.60814 -44.3468
L8.47496 -43.8699
L8.35017 -43.3907
L8.2338 -42.9092
L8.12589 -42.4256
L8.02646 -41.94
L7.93556 -41.4526
L7.85321 -40.9636
L7.77943 -40.4731
L7.71425 -39.9811
L7.65768 -39.488
L7.60975 -38.9938
z
" id="C0_1_8914675146"/>
     <path d="
M31.1931 -8.071
L31.3542 -8.22909
L31.5159 -8.38879
L31.6784 -8.55011
L31.8416 -8.71305
L32.0055 -8.87763
L32.1701 -9.04386
L32.3356 -9.21175
L32.5018 -9.38131
L32.6688 -9.55254
L32.8366 -9.72546
L33.0053 -9.90007
L33.1749 -10.0764
L33.3453 -10.2544
L33.5167 -10.4341
L33.6889 -10.6156
L33.8621 -10.7988
L34.0363 -10.9837
L34.2115 -11.1703
L34.3876 -11.3587
L34.5648 -11.5488
L34.7431 -11.7406
L34.9224 -11.9341
L35.1028 -12.1294
L35.2844 -12.3263
L35.467 -12.525
L35.6509 -12.7253
L35.8359 -12.9273
L36.0221 -13.131
L36.2096 -13.3363
L36.3983 -13.5432
L36.5883 -13.7517
L36.7795 -13.9618
L36.9721 -14.1734
L37.1661 -14.3865
L37.3614 -14.6011
L37.5581 -14.8171
L37.7562 -15.0346
L37.9557 -15.2533
L38.1568 -15.4734
L38.3592 -15.6947
L38.5632 -15.9173
L38.7688 -16.1409
L38.9758 -16.3656
L39.1845 -16.5914
L39.3947 -16.818
L39.6066 -17.0456
L39.82 -17.2739
L40.0352 -17.5029
L40.252 -17.7326
L40.4705 -17.9628
L40.6908 -18.1935
L40.9127 -18.4245
L41.1364 -18.6557
L41.3619 -18.8872
L41.5892 -19.1186
L41.8182 -19.3501
L42.0491 -19.5814
L42.2817 -19.8125
L42.5162 -20.0432
L42.7525 -20.2734
L42.9907 -20.5031
L43.2306 -20.732
L43.4724 -20.9602
L43.716 -21.1875
L43.9614 -21.4138
L44.2086 -21.639
L44.4576 -21.863
L44.7084 -22.0857
L44.9608 -22.307
L45.215 -22.5268
L45.4709 -22.7451
L45.7283 -22.9617
L45.9874 -23.1765
L46.248 -23.3896
L46.5102 -23.6008
L46.7737 -23.81
L47.0386 -24.0173
L47.3049 -24.2225
L47.5724 -24.4257
L47.841 -24.6267
L48.1108 -24.8255
L48.3816 -25.0222
L48.6533 -25.2167
L48.9258 -25.409
L49.1991 -25.599
L49.473 -25.7868
L49.7475 -25.9724
L50.0225 -26.1558
L50.2979 -26.3369
L50.5735 -26.5158
L50.8493 -26.6926
L51.1251 -26.8672
L51.4009 -27.0397
L51.6766 -27.21
L51.9521 -27.3783
L52.2273 -27.5445
L52.502 -27.7087
L52.7762 -27.8709
L53.0498 -28.0312
L53.3227 -28.1896
L53.5949 -28.3461
L53.8661 -28.5007
L54.1365 -28.6536
L54.4058 -28.8048
L54.674 -28.9542
L54.941 -29.102
L55.2068 -29.2481
L55.4712 -29.3927
L55.7343 -29.5357
L55.996 -29.6772
L56.2562 -29.8172
L56.5149 -29.9558
L56.7719 -30.093
L57.0274 -30.2288
L57.2812 -30.3634
L57.5333 -30.4966
L57.7836 -30.6286
L58.0322 -30.7594
L58.2789 -30.889
L58.5239 -31.0174
L58.7669 -31.1447
L59.0082 -31.2709
L59.2475 -31.3961
L59.4849 -31.5202
L59.7204 -31.6433
L59.954 -31.7655
L60.1857 -31.8866
L60.4154 -32.0069
L60.6432 -32.1263
L60.869 -32.2448
L61.0929 -32.3624
L61.3148 -32.4792
L61.5348 -32.5952
L61.7529 -32.7104
L61.969 -32.8249
L62.1832 -32.9386
L62.3955 -33.0515
L62.6059 -33.1638
L62.8144 -33.2754
L63.021 -33.3863
L63.2257 -33.4966
L63.4286 -33.6062
L63.6296 -33.7152
L63.8288 -33.8236
L64.0261 -33.9314
L64.2217 -34.0386
L64.4028 -34.1452
L64.3574 -33.6476
L64.3034 -33.1523
L64.2407 -32.6578
L64.1695 -32.1644
L64.0896 -31.6721
L64.0013 -31.1811
L63.9044 -30.6916
L63.7989 -30.2037
L63.6851 -29.7176
L63.5628 -29.2334
L63.4321 -28.7513
L63.293 -28.2713
L63.1456 -27.7938
L62.99 -27.3187
L62.8261 -26.8462
L62.6541 -26.3766
L62.4739 -25.9099
L62.2857 -25.4462
L62.0895 -24.9858
L61.8853 -24.5287
L61.6732 -24.0752
L61.4534 -23.6252
L61.2257 -23.179
L60.9904 -22.7368
L60.7475 -22.2985
L60.497 -21.8645
L60.2391 -21.4347
L59.9738 -21.0094
L59.7011 -20.5887
L59.4213 -20.1726
L59.1343 -19.7614
L58.8403 -19.3551
L58.5393 -18.9539
L58.2315 -18.5579
L57.9169 -18.1672
L57.5956 -17.7819
L57.2677 -17.4022
L56.9334 -17.0281
L56.5927 -16.6598
L56.2457 -16.2974
L55.8925 -15.941
L55.5333 -15.5907
L55.1681 -15.2467
L54.7971 -14.9089
L54.4204 -14.5776
L54.038 -14.2528
L53.6502 -13.9347
L53.257 -13.6232
L52.8585 -13.3186
L52.4549 -13.0209
L52.0463 -12.7301
L51.6328 -12.4465
L51.2145 -12.1701
L50.7916 -11.9009
L50.3642 -11.639
L49.9324 -11.3846
L49.4964 -11.1376
L49.0562 -10.8982
L48.6121 -10.6665
L48.1641 -10.4425
L47.7125 -10.2263
L47.2572 -10.0179
L46.7986 -9.81748
L46.3366 -9.625
L45.8715 -9.44056
L45.4034 -9.2642
L44.9325 -9.09599
L44.4588 -8.93598
L43.9825 -8.78421
L43.5038 -8.64073
L43.0228 -8.50558
L42.5397 -8.37881
L42.0546 -8.26045
L41.5676 -8.15054
L41.0789 -8.04912
L40.5887 -7.95621
L40.0971 -7.87184
L39.6043 -7.79604
L39.1103 -7.72883
L38.6154 -7.67023
L38.1197 -7.62026
L37.6234 -7.57894
L37.1266 -7.54627
L36.6294 -7.52227
L36.132 -7.50695
L35.6346 -7.50031
L35.1373 -7.50234
L34.6403 -7.51306
L34.1437 -7.53245
L33.6476 -7.56052
L33.1523 -7.59725
L32.6578 -7.64263
L32.1644 -7.69665
L31.6721 -7.75929
z
" id="C0_2_83cf914be8"/>
    </defs>
    <g clip-path="url(#p1bffca34e9)">
     <use style="fill:#ff0000;stroke:#000000;stroke-width:2.0;" x="0.0" xlink:href="#C0_0_a811fe30f3" y="72.0"/>
    </g>
    <g clip-path="url(#p1bffca34e9)">
     <use style="fill:#ffffff;stroke:#000000;stroke-width:2.0;" x="0.0" xlink:href="#C0_1_8914675146" y="72.0"/>
    </g>
    <g clip-path="url(#p1bffca34e9)">
     <use style="fill:#ffffff;stroke:#000000;stroke-width:2.0;" x="0.0" xlink:href="#C0_2_83cf914be8" y="72.0"/>
    </g>
   </g>
  </g>
 </g>
 <defs>
  <clipPath id="p1bffca34e9">
   <rect height="72.0" width="72.0" x="0.0" y="0.0"/>
  </clipPath>
 </defs>
</svg>
