<?xml version="1.0" encoding="utf-8" standalone="no"?>
<!DOCTYPE svg PUBLIC "-//W3C//DTD SVG 1.1//EN"
  "http://www.w3.org/Graphics/SVG/1.1/DTD/svg11.dtd">
<!-- Created with matplotlib (http://matplotlib.org/) -->
<svg height="72pt" version="1.1" viewBox="0 0 72 72" width="72pt" xmlns="http://www.w3.org/2000/svg" xmlns:xlink="http://www.w3.org/1999/xlink">
 <defs>
  <style type="text/css">
*{stroke-linecap:butt;stroke-linejoin:round;}
  </style>
 </defs>
 <g id="figure_1">
  <g id="patch_1">
   <path d="
M0 72
L72 72
L72 0
L0 0
z
" style="fill:none;"/>
  </g>
  <g id="axes_1">
   <g id="PatchCollection_1">
    <defs>
     <path d="
M36 -7.5
C43.5583 -7.5 50.808 -10.5029 56.1525 -15.8475
C61.4971 -21.192 64.5 -28.4417 64.5 -36
C64.5 -43.5583 61.4971 -50.808 56.1525 -56.1525
C50.808 -61.4971 43.5583 -64.5 36 -64.5
C28.4417 -64.5 21.192 -61.4971 15.8475 -56.1525
C10.5029 -50.808 7.5 -43.5583 7.5 -36
C7.5 -28.4417 10.5029 -21.192 15.8475 -15.8475
C21.192 -10.5029 28.4417 -7.5 36 -7.5
z
" id="C0_0_a811fe30f3"/>
     <path d="
M8.5136 -42.7798
L8.757 -42.7978
L9.00084 -42.8033
L9.24503 -42.7972
L9.48949 -42.78
L9.73417 -42.7524
L9.97898 -42.715
L10.2239 -42.6684
L10.4689 -42.6133
L10.7138 -42.5501
L10.9588 -42.4795
L11.2037 -42.4019
L11.4485 -42.3179
L11.6932 -42.228
L11.9377 -42.1325
L12.1821 -42.032
L12.4262 -41.9269
L12.6702 -41.8175
L12.9139 -41.7041
L13.1573 -41.5872
L13.4004 -41.4671
L13.6432 -41.344
L13.8856 -41.2182
L14.1277 -41.09
L14.3694 -40.9596
L14.6106 -40.8273
L14.8515 -40.6933
L15.0918 -40.5577
L15.3318 -40.4207
L15.5712 -40.2826
L15.8101 -40.1433
L16.0485 -40.0032
L16.2864 -39.8623
L16.5237 -39.7208
L16.7605 -39.5787
L16.9968 -39.4362
L17.2324 -39.2933
L17.4676 -39.1501
L17.7021 -39.0068
L17.9361 -38.8633
L18.1695 -38.7197
L18.4023 -38.5762
L18.6345 -38.4327
L18.8662 -38.2893
L19.0974 -38.146
L19.328 -38.0029
L19.558 -37.8599
L19.7876 -37.7173
L20.0166 -37.5748
L20.2451 -37.4327
L20.4731 -37.2908
L20.7006 -37.1492
L20.9277 -37.008
L21.1544 -36.867
L21.3806 -36.7264
L21.6064 -36.5862
L21.8319 -36.4463
L22.0569 -36.3067
L22.2817 -36.1674
L22.5061 -36.0285
L22.7302 -35.89
L22.9541 -35.7517
L23.1778 -35.6138
L23.4012 -35.4762
L23.6244 -35.3389
L23.8475 -35.2018
L24.0704 -35.0651
L24.2933 -34.9286
L24.516 -34.7924
L24.7388 -34.6564
L24.9615 -34.5207
L25.1842 -34.3851
L25.407 -34.2498
L25.6298 -34.1146
L25.8528 -33.9797
L26.0759 -33.8448
L26.2991 -33.7101
L26.5226 -33.5755
L26.7463 -33.441
L27.1946 -33.3066
L27.4192 -33.1722
L27.6442 -33.0378
L27.8696 -32.9035
L28.0954 -32.7692
L28.3217 -32.6348
L28.5485 -32.5005
L28.7758 -32.366
L29.0037 -32.2315
L29.2322 -32.0968
L29.4613 -31.9621
L29.6911 -31.8272
L29.9216 -31.6921
L30.1528 -31.5569
L30.3847 -31.4214
L30.6175 -31.2857
L30.851 -31.1498
L31.0854 -31.0135
L31.3207 -30.877
L31.5569 -30.7402
L31.794 -30.603
L32.0321 -30.4655
L32.2711 -30.3276
L32.5112 -30.1893
L32.7523 -30.0505
L32.9944 -29.9114
L33.2376 -29.7717
L33.4819 -29.6316
L33.7273 -29.4909
L33.9738 -29.3497
L34.2214 -29.2079
L34.4702 -29.0656
L34.7201 -28.9226
L34.9712 -28.7791
L35.2235 -28.6348
L35.4769 -28.4899
L35.7314 -28.3443
L35.9871 -28.198
L36.2439 -28.0509
L36.5018 -27.9031
L36.7609 -27.7545
L37.021 -27.605
L37.2821 -27.4547
L37.5443 -27.3035
L37.8074 -27.1514
L38.0714 -26.9984
L38.3363 -26.8444
L38.602 -26.6895
L38.8684 -26.5335
L39.1355 -26.3764
L39.4032 -26.2183
L39.6714 -26.0591
L39.9399 -25.8986
L40.2087 -25.737
L40.4776 -25.5742
L40.7465 -25.41
L41.0153 -25.2445
L41.2838 -25.0777
L41.5519 -24.9094
L41.8193 -24.7396
L42.0858 -24.5682
L42.3513 -24.3953
L42.6155 -24.2206
L42.8781 -24.0442
L43.139 -23.8659
L43.3978 -23.6857
L43.6542 -23.5035
L43.908 -23.3193
L44.1587 -23.1328
L44.4062 -22.9439
L44.6499 -22.7527
L44.8896 -22.5589
L45.1248 -22.3625
L45.3552 -22.1633
L45.5802 -21.9612
L45.7995 -21.7561
L46.0127 -21.5477
L46.2192 -21.3361
L46.4187 -21.1211
L46.6106 -20.9024
L46.7945 -20.6801
L46.9699 -20.4539
L47.1364 -20.2239
L47.2935 -19.9898
L47.4407 -19.7516
L47.5778 -19.5092
L47.7041 -19.2626
L47.8194 -19.0118
L47.9234 -18.7567
L48.0156 -18.4974
L48.0959 -18.2339
L48.1639 -17.9663
L48.2194 -17.6948
L48.2624 -17.4194
L48.2925 -17.1403
L48.3099 -16.8578
L48.3143 -16.5721
L48.3058 -16.2833
L48.2844 -15.9919
L48.2502 -15.698
L48.2032 -15.4021
L48.1435 -15.1044
L48.0714 -14.8053
L47.987 -14.5051
L47.8905 -14.2042
L47.7821 -13.903
L47.662 -13.6019
L47.5304 -13.3011
L47.3878 -13.0011
L47.2342 -12.7023
L47.07 -12.4049
L46.8954 -12.1092
L46.7108 -11.8158
L46.5165 -11.5247
L46.3126 -11.2364
L46.0996 -10.9512
L45.8776 -10.6692
L45.647 -10.3909
L45.4081 -10.1163
L45.1611 -9.84585
L44.9063 -9.57965
L44.6439 -9.31793
L44.3743 -9.06089
L43.9119 -8.80871
L43.4328 -8.62023
L42.9515 -8.48632
L42.4681 -8.36079
L41.9827 -8.24367
L41.4955 -8.13502
L41.0066 -8.03485
L40.5162 -7.9432
L40.0244 -7.8601
L39.5313 -7.78556
L39.0372 -7.71963
L38.5422 -7.6623
L38.0464 -7.61361
L37.55 -7.57357
L37.0531 -7.54218
L36.5559 -7.51946
L36.0585 -7.50542
L35.5611 -7.50006
L35.0638 -7.50338
L34.5669 -7.51538
L34.0703 -7.53606
L33.5744 -7.5654
L33.0791 -7.60341
L32.5848 -7.65007
L32.0915 -7.70536
L31.5994 -7.76928
L31.1087 -7.84179
L30.6194 -7.92288
L30.1318 -8.01252
L29.6459 -8.11069
L29.162 -8.21735
L28.6802 -8.33247
L28.2006 -8.45603
L27.7234 -8.58797
L27.2487 -8.72826
L26.7767 -8.87687
L26.3074 -9.03373
L25.8412 -9.1988
L25.378 -9.37204
L24.918 -9.5534
L24.4615 -9.7428
L24.0084 -9.94021
L23.559 -10.1456
L23.1134 -10.3588
L22.6718 -10.5798
L22.2341 -10.8086
L21.8007 -11.045
L21.3716 -11.2891
L20.947 -11.5406
L20.5269 -11.7997
L20.1115 -12.0661
L19.701 -12.3398
L19.2955 -12.6207
L18.895 -12.9087
L18.4998 -13.2037
L18.1099 -13.5057
L17.7254 -13.8146
L17.3465 -14.1302
L16.9733 -14.4524
L16.6059 -14.7813
L16.2444 -15.1166
L15.8889 -15.4582
L15.5395 -15.8061
L15.1964 -16.1602
L14.8596 -16.5203
L14.5292 -16.8863
L14.2054 -17.2582
L13.8882 -17.6358
L13.5778 -18.0189
L13.2741 -18.4076
L12.9775 -18.8016
L12.6878 -19.2008
L12.4052 -19.6052
L12.1298 -20.0145
L11.8617 -20.4287
L11.6009 -20.8477
L11.3476 -21.2713
L11.1018 -21.6994
L10.8635 -22.1318
L10.6329 -22.5684
L10.4101 -23.0092
L10.195 -23.4539
L9.98781 -23.9024
L9.78853 -24.3546
L9.59724 -24.8103
L9.41398 -25.2695
L9.23883 -25.7319
L9.07183 -26.1975
L8.91303 -26.666
L8.76248 -27.1374
L8.62023 -27.6115
L8.48632 -28.0881
L8.36079 -28.5672
L8.24367 -29.0485
L8.13502 -29.5319
L8.03485 -30.0173
L7.9432 -30.5045
L7.8601 -30.9934
L7.78556 -31.4838
L7.71963 -31.9756
L7.6623 -32.4687
L7.61361 -32.9628
L7.57357 -33.4578
L7.54218 -33.9536
L7.51946 -34.45
L7.50542 -34.9469
L7.50006 -35.4441
L7.50338 -35.9415
L7.51538 -36.4389
L7.53606 -36.9362
L7.5654 -37.4331
L7.60341 -37.9297
L7.65007 -38.4256
L7.70536 -38.9209
L7.76928 -39.4152
L7.84179 -39.9085
L7.92288 -40.4006
L8.01252 -40.8913
L8.11069 -41.3806
z
" id="C0_1_0de5b3171c"/>
     <path d="
M27.9638 -63.2301
L28.3289 -63.1733
L28.6924 -63.1131
L29.054 -63.0497
L29.4137 -62.983
L29.7714 -62.913
L30.1268 -62.8399
L30.4799 -62.7635
L30.8307 -62.684
L31.179 -62.6015
L31.5248 -62.5158
L31.8679 -62.4272
L32.2084 -62.3357
L32.5463 -62.2413
L32.8814 -62.144
L33.2137 -62.044
L33.5433 -61.9413
L33.8701 -61.8359
L34.1941 -61.7279
L34.5153 -61.6174
L34.8338 -61.5043
L35.1494 -61.3889
L35.4623 -61.271
L35.7724 -61.1508
L36.0798 -61.0283
L36.3844 -60.9035
L36.6864 -60.7765
L36.9857 -60.6474
L37.2824 -60.5161
L37.5765 -60.3827
L37.868 -60.2473
L38.157 -60.1099
L38.4435 -59.9704
L38.7275 -59.829
L39.0091 -59.6856
L39.2883 -59.5404
L39.5652 -59.3932
L39.8398 -59.2442
L40.1121 -59.0933
L40.3823 -58.9405
L40.6502 -58.786
L40.9161 -58.6296
L41.1798 -58.4714
L41.4416 -58.3114
L41.7013 -58.1496
L41.959 -57.986
L42.2149 -57.8206
L42.4689 -57.6534
L42.721 -57.4845
L42.9714 -57.3137
L43.22 -57.1411
L43.4669 -56.9667
L43.7121 -56.7905
L43.9557 -56.6125
L44.1978 -56.4326
L44.4382 -56.2509
L44.6772 -56.0673
L44.9146 -55.8818
L45.1506 -55.6944
L45.3852 -55.5051
L45.6184 -55.3138
L45.8503 -55.1206
L46.0809 -54.9253
L46.3101 -54.7281
L46.5381 -54.5288
L46.7649 -54.3275
L46.9905 -54.1241
L47.2148 -53.9185
L47.4381 -53.7108
L47.6602 -53.501
L47.8812 -53.2889
L48.1011 -53.0745
L48.3199 -52.8579
L48.5377 -52.639
L48.7544 -52.4178
L48.9702 -52.1941
L49.1849 -51.9681
L49.3986 -51.7396
L49.6114 -51.5086
L49.8232 -51.2752
L50.034 -51.0391
L50.2439 -50.8005
L50.4528 -50.5593
L50.6608 -50.3154
L50.8678 -50.0689
L51.0739 -49.8196
L51.2791 -49.5676
L51.4833 -49.3128
L51.6866 -49.0552
L51.8889 -48.7947
L52.0903 -48.5314
L52.2906 -48.2652
L52.49 -47.9961
L52.6885 -47.724
L52.8859 -47.449
L53.0822 -47.1711
L53.2776 -46.8902
L53.4719 -46.6063
L53.6651 -46.3194
L53.8573 -46.0295
L54.0483 -45.7367
L54.2382 -45.4409
L54.4269 -45.1421
L54.6145 -44.8404
L54.8009 -44.5359
L54.986 -44.2284
L55.1699 -43.9182
L55.3526 -43.6052
L55.534 -43.2895
L55.714 -42.9712
L55.8928 -42.6503
L56.0702 -42.327
L56.2462 -42.0013
L56.4209 -41.6734
L56.5943 -41.3434
L56.7662 -41.0113
L56.9369 -40.6775
L57.1061 -40.342
L57.274 -40.0051
L57.4407 -39.6669
L57.606 -39.3276
L57.7701 -38.9875
L57.933 -38.6468
L58.0947 -38.3059
L58.2554 -37.9648
L58.415 -37.6241
L58.5738 -37.2839
L58.7317 -36.9447
L58.889 -36.6067
L59.0457 -36.2704
L59.2019 -35.9361
L59.3578 -35.6042
L59.5136 -35.2751
L59.6695 -34.9493
L59.8255 -34.6271
L59.982 -34.3091
L60.139 -33.9956
L60.2969 -33.6871
L60.4557 -33.384
L60.6157 -33.0869
L60.7771 -32.796
L60.9401 -32.5118
L61.1048 -32.2347
L61.2714 -31.9652
L61.4401 -31.7035
L61.6111 -31.45
L61.7843 -31.205
L61.96 -30.9689
L62.1382 -30.7417
L62.3189 -30.5239
L62.5022 -30.3154
L62.6881 -30.1166
L62.8765 -29.9275
L63.0674 -29.7481
L63.2606 -29.5787
L63.4562 -29.4191
L63.805 -29.2694
L63.91 -29.7445
L64.0064 -30.2307
L64.0943 -30.7187
L64.1736 -31.2083
L64.2444 -31.6993
L64.3066 -32.1917
L64.3601 -32.6852
L64.405 -33.1797
L64.4413 -33.6751
L64.4688 -34.1712
L64.4878 -34.6678
L64.498 -35.1649
L64.4996 -35.6622
L64.4924 -36.1596
L64.4766 -36.657
L64.4521 -37.1541
L64.419 -37.6509
L64.3772 -38.1473
L64.3267 -38.6429
L64.2677 -39.1378
L64.2 -39.6316
L64.1237 -40.1244
L64.0389 -40.616
L63.9455 -41.1061
L63.8436 -41.5947
L63.7332 -42.0815
L63.6144 -42.5665
L63.4871 -43.0495
L63.3515 -43.5304
L63.2076 -44.009
L63.0554 -44.4851
L62.8949 -44.9586
L62.7262 -45.4295
L62.5494 -45.8974
L62.3645 -46.3623
L62.1716 -46.8241
L61.9707 -47.2826
L61.7619 -47.7376
L61.5453 -48.1891
L61.3208 -48.6368
L61.0887 -49.0807
L60.8489 -49.5207
L60.6015 -49.9565
L60.3467 -50.388
L60.0844 -50.8152
L59.8148 -51.2378
L59.5379 -51.6558
L59.2539 -52.0691
L58.9628 -52.4774
L58.6647 -52.8807
L58.3597 -53.2789
L58.0479 -53.6719
L57.7293 -54.0594
L57.4042 -54.4414
L57.0725 -54.8179
L56.7344 -55.1885
L56.39 -55.5534
L56.0394 -55.9123
L55.6826 -56.2651
L55.3199 -56.6117
L54.9513 -56.9521
L54.5769 -57.2861
L54.1969 -57.6136
L53.8113 -57.9345
L53.4203 -58.2488
L53.024 -58.5562
L52.6225 -58.8568
L52.2159 -59.1504
L51.8044 -59.437
L51.3881 -59.7165
L50.9671 -59.9887
L50.5415 -60.2536
L50.1115 -60.5111
L49.6773 -60.7611
L49.2388 -61.0037
L48.7963 -61.2385
L48.3499 -61.4658
L47.8998 -61.6852
L47.446 -61.8968
L46.9887 -62.1006
L46.5281 -62.2963
L46.0643 -62.4841
L45.5974 -62.6638
L45.1276 -62.8354
L44.655 -62.9988
L44.1798 -63.154
L43.7021 -63.3009
L43.2221 -63.4395
L42.7398 -63.5698
L42.2555 -63.6916
L41.7693 -63.805
L41.2813 -63.91
L40.7917 -64.0064
L40.3007 -64.0943
L39.8083 -64.1736
L39.3148 -64.2444
L38.8203 -64.3066
L38.3249 -64.3601
L37.8288 -64.405
L37.3322 -64.4413
L36.8351 -64.4688
L36.3378 -64.4878
L35.8404 -64.498
L35.343 -64.4996
L34.8459 -64.4924
L34.3491 -64.4766
L33.8527 -64.4521
L33.3571 -64.419
L32.8622 -64.3772
L32.3684 -64.3267
L31.8756 -64.2677
L31.384 -64.2
L30.8939 -64.1237
L30.4053 -64.0389
L29.9185 -63.9455
L29.4335 -63.8436
L28.9505 -63.7332
L28.4696 -63.6144
z
" id="C0_2_873ceac0fb"/>
    </defs>
    <g clip-path="url(#p1bffca34e9)">
     <use style="fill:#ff0000;stroke:#000000;stroke-width:2.0;" x="0.0" xlink:href="#C0_0_a811fe30f3" y="72.0"/>
    </g>
    <g clip-path="url(#p1bffca34e9)">
     <use style="fill:#ffffff;stroke:#000000;stroke-width:2.0;" x="0.0" xlink:href="#C0_1_0de5b3171c" y="72.0"/>
    </g>
    <g clip-path="url(#p1bffca34e9)">
     <use style="fill:#ffffff;stroke:#000000;stroke-width:2.0;" x="0.0" xlink:href="#C0_2_873ceac0fb" y="72.0"/>
    </g>
   </g>
  </g>
 </g>
 <defs>
  <clipPath id="p1bffca34e9">
   <rect height="72.0" width="72.0" x="0.0" y="0.0"/>
  </clipPath>
 </defs>
</svg>
