<?xml version="1.0" encoding="utf-8" standalone="no"?>
<!DOCTYPE svg PUBLIC "-//W3C//DTD SVG 1.1//EN"
  "http://www.w3.org/Graphics/SVG/1.1/DTD/svg11.dtd">
<!-- Created with matplotlib (http://matplotlib.org/) -->
<svg height="72pt" version="1.1" viewBox="0 0 72 72" width="72pt" xmlns="http://www.w3.org/2000/svg" xmlns:xlink="http://www.w3.org/1999/xlink">
 <defs>
  <style type="text/css">
*{stroke-linecap:butt;stroke-linejoin:round;}
  </style>
 </defs>
 <g id="figure_1">
  <g id="patch_1">
   <path d="
M0 72
L72 72
L72 0
L0 0
z
" style="fill:none;"/>
  </g>
  <g id="axes_1">
   <g id="PatchCollection_1">
    <defs>
     <path d="
M36 -7.5
C43.5583 -7.5 50.808 -10.5029 56.1525 -15.8475
C61.4971 -21.192 64.5 -28.4417 64.5 -36
C64.5 -43.5583 61.4971 -50.808 56.1525 -56.1525
C50.808 -61.4971 43.5583 -64.5 36 -64.5
C28.4417 -64.5 21.192 -61.4971 15.8475 -56.1525
C10.5029 -50.808 7.5 -43.5583 7.5 -36
C7.5 -28.4417 10.5029 -21.192 15.8475 -15.8475
C21.192 -10.5029 28.4417 -7.5 36 -7.5
z
" id="C0_0_a811fe30f3"/>
     <path d="
M28.5374 -63.4931
L28.6945 -63.2197
L28.8466 -62.942
L28.9943 -62.6607
L29.138 -62.3763
L29.2781 -62.0894
L29.4148 -61.8004
L29.5484 -61.5098
L29.6792 -61.2177
L29.8072 -60.9247
L29.9327 -60.6309
L30.0559 -60.3367
L30.1767 -60.0423
L30.2953 -59.7479
L30.4119 -59.4538
L30.5265 -59.16
L30.6392 -58.8668
L30.75 -58.5743
L30.859 -58.2826
L30.9663 -57.9919
L31.0719 -57.7023
L31.176 -57.4138
L31.2784 -57.1266
L31.3794 -56.8407
L31.4788 -56.5562
L31.5768 -56.2731
L31.6735 -55.9915
L31.7687 -55.7115
L31.8627 -55.4329
L31.9554 -55.156
L32.0468 -54.8806
L32.137 -54.6068
L32.2261 -54.3346
L32.314 -54.064
L32.4008 -53.795
L32.4865 -53.5276
L32.5712 -53.2618
L32.6549 -52.9975
L32.7376 -52.7347
L32.8193 -52.4735
L32.9001 -52.2137
L32.98 -51.9553
L33.0591 -51.6984
L33.1373 -51.4429
L33.2147 -51.1886
L33.2913 -50.9357
L33.3671 -50.6841
L33.4423 -50.4337
L33.5167 -50.1844
L33.5904 -49.9363
L33.6635 -49.6893
L33.7359 -49.4433
L33.8078 -49.1983
L33.879 -48.9543
L33.9497 -48.7111
L34.0198 -48.4688
L34.0895 -48.2272
L34.1586 -47.9865
L34.2273 -47.7463
L34.2955 -47.5069
L34.3632 -47.2679
L34.4306 -47.0296
L34.4976 -46.7916
L34.5642 -46.5541
L34.6304 -46.317
L34.6963 -46.0802
L34.7619 -45.8436
L34.8272 -45.6071
L34.8923 -45.3709
L34.9571 -45.1347
L35.0216 -44.8985
L35.0859 -44.6623
L35.15 -44.4259
L35.214 -44.1894
L35.3414 -43.9527
L35.4048 -43.7157
L35.4682 -43.4784
L35.5315 -43.2407
L35.5946 -43.0025
L35.6577 -42.7638
L35.7208 -42.5246
L35.7838 -42.2846
L35.8468 -42.044
L35.9098 -41.8026
L35.9728 -41.5604
L36.0358 -41.3173
L36.0989 -41.0732
L36.162 -40.8281
L36.2252 -40.5819
L36.2884 -40.3345
L36.3518 -40.0859
L36.4153 -39.8361
L36.4789 -39.5848
L36.5426 -39.3322
L36.6065 -39.078
L36.6705 -38.8223
L36.7347 -38.565
L36.7991 -38.306
L36.8637 -38.0452
L36.9285 -37.7825
L36.9935 -37.518
L37.0588 -37.2514
L37.1243 -36.9828
L37.19 -36.7121
L37.256 -36.4392
L37.3223 -36.164
L37.3888 -35.8865
L37.4557 -35.6066
L37.5228 -35.3243
L37.5902 -35.0393
L37.6579 -34.7518
L37.7259 -34.4616
L37.7942 -34.1686
L37.8628 -33.8728
L37.9317 -33.5742
L38.0009 -33.2726
L38.0705 -32.968
L38.1403 -32.6603
L38.2103 -32.3495
L38.2807 -32.0356
L38.3513 -31.7184
L38.4222 -31.398
L38.4933 -31.0743
L38.5646 -30.7472
L38.6361 -30.4168
L38.7078 -30.0829
L38.7796 -29.7456
L38.8515 -29.4049
L38.9235 -29.0607
L38.9954 -28.7131
L39.0674 -28.362
L39.1392 -28.0075
L39.2109 -27.6496
L39.2824 -27.2883
L39.3535 -26.9237
L39.4243 -26.5559
L39.4945 -26.1849
L39.5642 -25.8107
L39.6331 -25.4336
L39.7012 -25.0536
L39.7682 -24.6709
L39.834 -24.2856
L39.8984 -23.8979
L39.9612 -23.508
L40.022 -23.1161
L40.0806 -22.7224
L40.1367 -22.3273
L40.1898 -21.9311
L40.2395 -21.534
L40.2851 -21.1366
L40.3261 -20.7391
L40.3615 -20.3422
L40.3906 -19.9464
L40.4121 -19.5523
L40.4245 -19.1607
L40.4263 -18.7725
L40.4154 -18.3887
L40.3891 -18.0104
L40.3446 -17.6392
L40.2782 -17.2766
L40.186 -16.9246
L40.0638 -16.5855
L39.9071 -16.2616
L39.7125 -15.9555
L39.4773 -15.6696
L39.2008 -15.4057
L38.8841 -15.1654
L38.53 -14.9491
L38.1424 -14.7565
L37.7261 -14.5868
L37.2855 -14.439
L36.8251 -14.3115
L36.3489 -14.203
L35.8601 -14.1122
L35.3618 -14.0381
L34.8563 -13.9797
L34.3457 -13.9359
L33.8318 -13.9062
L33.3161 -13.8897
L32.7998 -13.8859
L32.284 -13.8943
L31.7696 -13.9143
L31.2576 -13.9454
L30.7485 -13.9873
L30.2429 -14.0394
L29.7416 -14.1014
L29.2447 -14.1728
L28.7529 -14.2534
L28.2665 -14.3427
L27.7857 -14.4403
L27.3108 -14.5459
L26.8421 -14.6593
L26.3797 -14.7799
L25.9238 -14.9076
L25.4746 -15.042
L25.032 -15.1827
L24.5963 -15.3296
L24.1675 -15.4823
L23.7455 -15.6406
L23.3305 -15.8041
L22.9225 -15.9726
L22.5213 -16.146
L22.1271 -16.3238
L21.7397 -16.506
L21.3592 -16.6923
L20.9854 -16.8826
L20.6183 -17.0765
L20.2578 -17.274
L19.9039 -17.4748
L19.5565 -17.6789
L19.2155 -17.8859
L18.8807 -18.0959
L18.5522 -18.3087
L18.2298 -18.524
L17.9133 -18.7419
L17.6028 -18.9623
L17.2981 -19.1849
L16.9991 -19.4097
L16.7056 -19.6367
L16.4177 -19.8656
L16.1352 -20.0966
L15.8579 -20.3295
L15.5858 -20.5642
L15.3189 -20.8007
L15.0569 -21.039
L14.7999 -21.2789
L14.5476 -21.5205
L14.3 -21.7638
L14.0571 -22.0086
L13.8187 -22.255
L13.5848 -22.503
L13.3552 -22.7525
L13.13 -23.0036
L12.9089 -23.2563
L12.692 -23.5104
L12.4791 -23.7661
L12.2703 -24.0234
L12.0654 -24.2822
L11.8643 -24.5425
L11.667 -24.8045
L11.4735 -25.0681
L11.2837 -25.3333
L11.0976 -25.6001
L10.915 -25.8687
L10.736 -26.1389
L10.5606 -26.411
L10.3886 -26.6848
L10.22 -26.9604
L10.0548 -27.2379
L9.89308 -27.5174
L9.73468 -27.7988
L9.57962 -28.0822
L9.42789 -28.3677
L9.27947 -28.6553
L9.13436 -28.9451
L8.99254 -29.2371
L8.85402 -29.5315
L8.71881 -29.8281
L8.58691 -30.1273
L8.45832 -30.4289
L8.33307 -30.7331
L8.21118 -31.0399
L8.09268 -31.3494
L7.97758 -31.6617
L7.86593 -31.9769
L7.75777 -32.295
L7.64753 -32.6162
L7.6013 -33.1039
L7.56373 -33.5992
L7.53481 -34.0952
L7.51457 -34.5918
L7.50301 -35.0888
L7.50012 -35.586
L7.50592 -36.0834
L7.5204 -36.5808
L7.54355 -37.078
L7.57537 -37.5749
L7.61584 -38.0713
L7.66497 -38.567
L7.72272 -39.062
L7.78909 -39.5561
L7.86406 -40.049
L7.94759 -40.5408
L8.03967 -41.0311
L8.14026 -41.5199
L8.24934 -42.0071
L8.36688 -42.4924
L8.49283 -42.9757
L8.62716 -43.4569
L8.76983 -43.9358
L8.92079 -44.4123
L9.08 -44.8863
L9.24741 -45.3575
L9.42297 -45.8259
L9.60663 -46.2913
L9.79833 -46.7536
L9.998 -47.2126
L10.2056 -47.6682
L10.4211 -48.1202
L10.6443 -48.5685
L10.8753 -49.013
L11.1139 -49.4536
L11.3601 -49.89
L11.6138 -50.3222
L11.8749 -50.75
L12.1434 -51.1734
L12.4192 -51.5921
L12.7021 -52.0061
L12.9922 -52.4152
L13.2892 -52.8193
L13.5932 -53.2183
L13.9039 -53.612
L14.2215 -54.0004
L14.5456 -54.3833
L14.8763 -54.7606
L15.2134 -55.1321
L15.5569 -55.4979
L15.9065 -55.8577
L16.2623 -56.2115
L16.6242 -56.5591
L16.9919 -56.9004
L17.3654 -57.2354
L17.7445 -57.5639
L18.1293 -57.8858
L18.5195 -58.2011
L18.915 -58.5096
L19.3157 -58.8112
L19.7215 -59.1059
L20.1322 -59.3936
L20.5478 -59.6741
L20.9681 -59.9475
L21.393 -60.2135
L21.8223 -60.4721
L22.256 -60.7233
L22.6938 -60.967
L23.1357 -61.2031
L23.5815 -61.4315
L24.031 -61.6521
L24.4843 -61.8649
L24.941 -62.0699
L25.4011 -62.2669
L25.8645 -62.4559
L26.3309 -62.6368
L26.8002 -62.8097
L27.2724 -62.9743
L27.7472 -63.1308
z
" id="C0_1_9fcff630a6"/>
     <path d="
M64.324 -39.0571
L64.2908 -38.717
L64.2533 -38.3769
L64.2114 -38.0365
L64.1652 -37.6959
L64.1145 -37.355
L64.0594 -37.0138
L63.9998 -36.6723
L63.9357 -36.3303
L63.8669 -35.9879
L63.7935 -35.645
L63.7154 -35.3016
L63.6324 -34.9576
L63.5447 -34.613
L63.452 -34.2678
L63.3543 -33.922
L63.2515 -33.5754
L63.1435 -33.2282
L63.0303 -32.8803
L62.9117 -32.5316
L62.7876 -32.1822
L62.658 -31.832
L62.5227 -31.4811
L62.3816 -31.1295
L62.2346 -30.777
L62.0816 -30.4239
L61.9225 -30.07
L61.7571 -29.7154
L61.5853 -29.3602
L61.407 -29.0043
L61.2221 -28.6478
L61.0304 -28.2907
L60.8318 -27.9332
L60.6261 -27.5752
L60.4133 -27.2169
L60.1931 -26.8583
L59.9654 -26.4994
L59.7302 -26.1405
L59.4873 -25.7816
L59.2365 -25.4228
L58.9777 -25.0643
L58.7108 -24.7061
L58.4357 -24.3485
L58.1523 -23.9916
L57.8604 -23.6355
L57.5601 -23.2805
L57.2512 -22.9267
L56.9336 -22.5743
L56.6073 -22.2236
L56.2723 -21.8748
L55.9286 -21.528
L55.5761 -21.1836
L55.2149 -20.8418
L54.8451 -20.5028
L54.4668 -20.1669
L54.08 -19.8344
L53.6851 -19.5055
L53.2821 -19.1805
L52.8714 -18.8597
L52.4533 -18.5432
L52.0281 -18.2314
L51.5964 -17.9244
L51.1588 -17.6224
L50.7159 -17.3256
L50.2685 -17.034
L49.8176 -16.7478
L49.3643 -16.4669
L48.9101 -16.1912
L48.4565 -15.9203
L48.0056 -15.654
L47.5597 -15.3916
L47.1216 -15.1324
L46.6947 -14.8751
L46.2829 -14.6185
L45.8906 -14.361
L45.5224 -14.1005
L45.1831 -13.8352
L44.8768 -13.5631
L44.6063 -13.2827
L44.3731 -12.9931
L44.1763 -12.694
L44.0138 -12.3862
L43.8821 -12.0707
L43.7769 -11.749
L43.6942 -11.4228
L43.63 -11.0934
L43.581 -10.7624
L43.5441 -10.4311
L43.517 -10.1003
L43.4976 -9.77118
L43.4843 -9.44434
L43.4758 -9.12046
L44.027 -8.80006
L44.503 -8.65374
L44.9764 -8.798
L45.4472 -8.95054
L45.915 -9.11132
L46.3798 -9.28029
L46.8415 -9.4574
L47.2998 -9.64259
L47.7547 -9.83582
L48.206 -10.037
L48.6536 -10.2461
L49.0974 -10.4631
L49.5372 -10.6878
L49.9728 -10.9202
L50.4042 -11.1603
L50.8312 -11.4079
L51.2537 -11.6631
L51.6715 -11.9256
L52.0846 -12.1955
L52.4927 -12.4726
L52.8959 -12.7569
L53.2938 -13.0483
L53.6866 -13.3467
L54.0739 -13.6519
L54.4557 -13.964
L54.8319 -14.2828
L55.2024 -14.6082
L55.567 -14.9401
L55.9257 -15.2785
L56.2783 -15.6231
L56.6247 -15.974
L56.9648 -16.3309
L57.2986 -16.6939
L57.6258 -17.0627
L57.9465 -17.4373
L58.2605 -17.8175
L58.5677 -18.2033
L58.868 -18.5945
L59.1614 -18.9911
L59.4477 -19.3927
L59.7268 -19.7995
L59.9988 -20.2112
L60.2634 -20.6277
L60.5207 -21.0489
L60.7704 -21.4746
L61.0126 -21.9047
L61.2473 -22.3392
L61.4742 -22.7778
L61.6933 -23.2204
L61.9046 -23.667
L62.1081 -24.1173
L62.3036 -24.5712
L62.491 -25.0286
L62.6704 -25.4893
L62.8417 -25.9532
L63.0048 -26.4202
L63.1597 -26.8901
L63.3063 -27.3628
L63.4446 -27.8381
L63.5745 -28.3159
L63.696 -28.7961
L63.8091 -29.2784
L63.9137 -29.7628
L64.0099 -30.2491
L64.0974 -30.7371
L64.1765 -31.2268
L64.2469 -31.7179
L64.3087 -32.2103
L64.362 -32.7038
L64.4065 -33.1984
L64.4425 -33.6938
L64.4697 -34.1899
L64.4883 -34.6866
L64.4982 -35.1836
L64.4994 -35.681
L64.492 -36.1784
L64.4759 -36.6757
L64.451 -37.1729
L64.4176 -37.6697
z
" id="C0_2_fb6ff6640b"/>
    </defs>
    <g clip-path="url(#p1bffca34e9)">
     <use style="fill:#ff0000;stroke:#000000;stroke-width:2.0;" x="0.0" xlink:href="#C0_0_a811fe30f3" y="72.0"/>
    </g>
    <g clip-path="url(#p1bffca34e9)">
     <use style="fill:#ffffff;stroke:#000000;stroke-width:2.0;" x="0.0" xlink:href="#C0_1_9fcff630a6" y="72.0"/>
    </g>
    <g clip-path="url(#p1bffca34e9)">
     <use style="fill:#ffffff;stroke:#000000;stroke-width:2.0;" x="0.0" xlink:href="#C0_2_fb6ff6640b" y="72.0"/>
    </g>
   </g>
  </g>
 </g>
 <defs>
  <clipPath id="p1bffca34e9">
   <rect height="72.0" width="72.0" x="0.0" y="0.0"/>
  </clipPath>
 </defs>
</svg>
