<?xml version="1.0" encoding="utf-8" standalone="no"?>
<!DOCTYPE svg PUBLIC "-//W3C//DTD SVG 1.1//EN"
  "http://www.w3.org/Graphics/SVG/1.1/DTD/svg11.dtd">
<!-- Created with matplotlib (http://matplotlib.org/) -->
<svg height="72pt" version="1.1" viewBox="0 0 72 72" width="72pt" xmlns="http://www.w3.org/2000/svg" xmlns:xlink="http://www.w3.org/1999/xlink">
 <defs>
  <style type="text/css">
*{stroke-linecap:butt;stroke-linejoin:round;}
  </style>
 </defs>
 <g id="figure_1">
  <g id="patch_1">
   <path d="
M0 72
L72 72
L72 0
L0 0
z
" style="fill:none;"/>
  </g>
  <g id="axes_1">
   <g id="PatchCollection_1">
    <defs>
     <path d="
M36 -7.5
C43.5583 -7.5 50.808 -10.5029 56.1525 -15.8475
C61.4971 -21.192 64.5 -28.4417 64.5 -36
C64.5 -43.5583 61.4971 -50.808 56.1525 -56.1525
C50.808 -61.4971 43.5583 -64.5 36 -64.5
C28.4417 -64.5 21.192 -61.4971 15.8475 -56.1525
C10.5029 -50.808 7.5 -43.5583 7.5 -36
C7.5 -28.4417 10.5029 -21.192 15.8475 -15.8475
C21.192 -10.5029 28.4417 -7.5 36 -7.5
z
" id="C0_0_a811fe30f3"/>
     <path d="
M34.1113 -24.1023
L34.3741 -24.1215
L34.637 -24.1424
L34.8999 -24.1649
L35.163 -24.189
L35.4262 -24.2148
L35.6897 -24.2422
L35.9534 -24.2714
L36.2175 -24.3022
L36.4819 -24.3347
L36.7468 -24.3689
L37.0122 -24.4049
L37.2782 -24.4427
L37.5447 -24.4822
L37.812 -24.5236
L38.0799 -24.5668
L38.3486 -24.6119
L38.6181 -24.6588
L38.8884 -24.7078
L39.1597 -24.7586
L39.432 -24.8115
L39.7052 -24.8665
L39.9795 -24.9235
L40.2549 -24.9827
L40.5315 -25.0441
L40.8093 -25.1077
L41.0883 -25.1736
L41.3685 -25.2418
L41.6501 -25.3125
L41.9331 -25.3856
L42.2174 -25.4612
L42.5032 -25.5394
L42.7904 -25.6203
L43.0792 -25.7038
L43.3694 -25.7902
L43.6612 -25.8794
L43.9545 -25.9716
L44.2494 -26.0668
L44.5459 -26.1652
L44.844 -26.2667
L45.1436 -26.3715
L45.4449 -26.4797
L45.7478 -26.5914
L46.0522 -26.7067
L46.3582 -26.8256
L46.6657 -26.9483
L46.9747 -27.0749
L47.2852 -27.2055
L47.597 -27.3402
L47.9102 -27.4791
L48.2247 -27.6224
L48.5404 -27.7701
L48.8571 -27.9224
L49.1749 -28.0795
L49.4935 -28.2413
L49.8128 -28.4082
L50.1328 -28.5801
L50.4532 -28.7573
L50.7738 -28.9398
L51.0944 -29.1278
L51.4149 -29.3214
L51.735 -29.5209
L52.0543 -29.7262
L52.3727 -29.9376
L52.6897 -30.1551
L53.0051 -30.379
L53.3185 -30.6093
L53.6294 -30.8462
L53.9373 -31.0899
L54.2419 -31.3404
L54.5426 -31.5979
L54.8387 -31.8624
L55.1296 -32.1343
L55.4148 -32.4135
L55.6933 -32.7001
L55.9645 -32.9944
L56.2274 -33.2963
L56.4812 -33.606
L56.7248 -33.9235
L56.9571 -34.2489
L57.1771 -34.5822
L57.3835 -34.9234
L57.5752 -35.2726
L57.7509 -35.6295
L57.9093 -35.9941
L58.0492 -36.3661
L58.1695 -36.7453
L58.269 -37.1313
L58.3469 -37.5237
L58.4024 -37.9218
L58.435 -38.325
L58.4444 -38.7325
L58.4306 -39.1436
L58.3938 -39.5574
L58.3345 -39.9729
L58.2532 -40.3892
L58.151 -40.8053
L58.0286 -41.2205
L57.8871 -41.6337
L57.7278 -42.0442
L57.5516 -42.4513
L57.3599 -42.8542
L57.1535 -43.2523
L56.9338 -43.6451
L56.7016 -44.0321
L56.4581 -44.4128
L56.2042 -44.7869
L55.9407 -45.1541
L55.6685 -45.514
L55.3884 -45.8666
L55.1011 -46.2115
L54.8073 -46.5487
L54.5078 -46.8781
L54.203 -47.1996
L53.8935 -47.5131
L53.5799 -47.8187
L53.2627 -48.1164
L52.9422 -48.4061
L52.6191 -48.6879
L52.2935 -48.962
L51.9659 -49.2283
L51.6367 -49.4869
L51.306 -49.738
L50.9744 -49.9817
L50.6419 -50.218
L50.3088 -50.4471
L49.9754 -50.6691
L49.6419 -50.8842
L49.3084 -51.0925
L48.9751 -51.2941
L48.6422 -51.4892
L48.3099 -51.6779
L47.9781 -51.8604
L47.6472 -52.0367
L47.317 -52.2071
L46.9879 -52.3716
L46.6597 -52.5304
L46.3327 -52.6837
L46.0068 -52.8316
L45.6821 -52.9742
L45.3586 -53.1116
L45.0364 -53.244
L44.7156 -53.3715
L44.396 -53.4942
L44.0778 -53.6122
L43.7609 -53.7257
L43.4454 -53.8347
L43.1313 -53.9394
L42.8184 -54.0398
L42.507 -54.1361
L42.1968 -54.2284
L41.8879 -54.3167
L41.5803 -54.4012
L41.274 -54.4818
L40.9689 -54.5588
L40.665 -54.6322
L40.3623 -54.702
L40.0607 -54.7684
L39.7602 -54.8313
L39.4608 -54.891
L39.1624 -54.9473
L38.865 -55.0004
L38.5685 -55.0504
L38.2729 -55.0973
L37.9781 -55.141
L37.6842 -55.1818
L37.391 -55.2196
L37.0985 -55.2544
L36.8067 -55.2864
L36.5155 -55.3155
L36.2249 -55.3417
L35.9348 -55.3651
L35.6451 -55.3857
L35.3559 -55.4036
L35.067 -55.4187
L34.7785 -55.431
L34.4902 -55.4406
L34.2021 -55.4475
L33.9141 -55.4517
L33.6263 -55.4532
L33.3385 -55.452
L33.0507 -55.448
L32.7628 -55.4413
L32.4749 -55.4319
L32.1868 -55.4198
L31.8985 -55.4049
L31.6099 -55.3872
L31.321 -55.3668
L31.0317 -55.3435
L30.7421 -55.3174
L30.452 -55.2884
L30.1613 -55.2565
L29.8701 -55.2216
L29.5783 -55.1838
L29.2858 -55.1429
L28.9927 -55.099
L28.6987 -55.052
L28.404 -55.0017
L28.1085 -54.9483
L27.812 -54.8916
L27.5147 -54.8315
L27.2164 -54.768
L26.9171 -54.701
L26.6167 -54.6304
L26.3153 -54.5562
L26.0128 -54.4783
L25.7091 -54.3965
L25.4043 -54.3109
L25.0983 -54.2212
L24.7911 -54.1275
L24.4826 -54.0295
L24.173 -53.9273
L23.862 -53.8206
L23.5498 -53.7094
L23.2364 -53.5935
L22.9217 -53.4728
L22.6057 -53.3472
L22.2885 -53.2166
L21.9701 -53.0808
L21.6504 -52.9397
L21.3296 -52.7931
L21.0077 -52.6409
L20.6847 -52.4828
L20.3606 -52.3189
L20.0356 -52.1488
L19.7097 -51.9725
L19.383 -51.7898
L19.0557 -51.6004
L18.7277 -51.4042
L18.3992 -51.2011
L18.0704 -50.9909
L17.7414 -50.7733
L17.4123 -50.5482
L17.0835 -50.3155
L16.7549 -50.0749
L16.427 -49.8263
L16.0998 -49.5694
L15.7738 -49.3043
L15.449 -49.0305
L15.1259 -48.7481
L14.8047 -48.4569
L14.4859 -48.1568
L14.1698 -47.8475
L13.8567 -47.5291
L13.5472 -47.2013
L13.2417 -46.8643
L12.9407 -46.5178
L12.6447 -46.1619
L12.3543 -45.7967
L12.07 -45.422
L11.7926 -45.0381
L11.5228 -44.6451
L11.2611 -44.243
L11.0085 -43.8322
L10.7657 -43.4129
L10.5336 -42.9855
L10.313 -42.5503
L10.1049 -42.108
L9.91025 -41.6589
L9.7301 -41.2039
L9.56547 -40.7437
L9.41739 -40.2791
L9.28692 -39.811
L9.17508 -39.3406
L9.08285 -38.8689
L9.01114 -38.3971
L8.96075 -37.9265
L8.93234 -37.4584
L8.9264 -36.994
L8.94321 -36.5346
L8.98284 -36.0814
L9.04512 -35.6355
L9.12965 -35.1979
L9.23579 -34.7695
L9.36276 -34.3508
L9.50956 -33.9426
L9.67511 -33.5451
L9.85823 -33.1588
L10.0577 -32.7838
L10.2723 -32.4201
L10.5008 -32.0677
L10.7419 -31.7266
L10.9947 -31.3966
L11.2579 -31.0776
L11.5305 -30.7694
L11.8116 -30.4717
L12.1003 -30.1843
L12.3957 -29.907
L12.6971 -29.6395
L13.0038 -29.3815
L13.3151 -29.1329
L13.6304 -28.8933
L13.9491 -28.6624
L14.2707 -28.4402
L14.5948 -28.2262
L14.9208 -28.0203
L15.2485 -27.8221
L15.5775 -27.6316
L15.9073 -27.4484
L16.2377 -27.2722
L16.5685 -27.103
L16.8993 -26.9405
L17.23 -26.7843
L17.5602 -26.6345
L17.8899 -26.4907
L18.2189 -26.3527
L18.5469 -26.2205
L18.8739 -26.0936
L19.1997 -25.9721
L19.5243 -25.8557
L19.8475 -25.7443
L20.1692 -25.6376
L20.4894 -25.5356
L20.808 -25.4381
L21.125 -25.3449
L21.4403 -25.2559
L21.7538 -25.1709
L22.0656 -25.0898
L22.3757 -25.0126
L22.6839 -24.939
L22.9904 -24.8689
L23.295 -24.8023
L23.5979 -24.7391
L23.899 -24.679
L24.1984 -24.6221
L24.4959 -24.5682
L24.7918 -24.5173
L25.0859 -24.4692
L25.3784 -24.4238
L25.6693 -24.3812
L25.9585 -24.3412
L26.2461 -24.3037
L26.5322 -24.2686
L26.8168 -24.236
L27.1 -24.2057
L27.3817 -24.1777
L27.6621 -24.152
L27.9411 -24.1284
L28.2189 -24.1069
L28.4955 -24.0875
L28.7708 -24.0701
L29.0451 -24.0547
L29.3182 -24.0413
L29.5903 -24.0298
L29.8615 -24.0201
L30.1317 -24.0123
L30.4011 -24.0064
L30.6696 -24.0022
L30.9374 -23.9998
L31.2045 -23.9991
L31.4709 -24.0001
L31.7367 -24.0029
L32.002 -24.0073
L32.2668 -24.0134
L32.5312 -24.0212
L32.7951 -24.0306
L33.0588 -24.0417
L33.3222 -24.0544
L33.5853 -24.0687
z
" id="C0_1_fb42638e4a"/>
    </defs>
    <g clip-path="url(#p1bffca34e9)">
     <use style="fill:#ffffff;stroke:#000000;stroke-width:2.0;" x="0.0" xlink:href="#C0_0_a811fe30f3" y="72.0"/>
    </g>
    <g clip-path="url(#p1bffca34e9)">
     <use style="fill:#ff0000;stroke:#000000;stroke-width:2.0;" x="0.0" xlink:href="#C0_1_fb42638e4a" y="72.0"/>
    </g>
   </g>
  </g>
 </g>
 <defs>
  <clipPath id="p1bffca34e9">
   <rect height="72.0" width="72.0" x="0.0" y="0.0"/>
  </clipPath>
 </defs>
</svg>
