<?xml version="1.0" encoding="utf-8" standalone="no"?>
<!DOCTYPE svg PUBLIC "-//W3C//DTD SVG 1.1//EN"
  "http://www.w3.org/Graphics/SVG/1.1/DTD/svg11.dtd">
<!-- Created with matplotlib (http://matplotlib.org/) -->
<svg height="72pt" version="1.1" viewBox="0 0 72 72" width="72pt" xmlns="http://www.w3.org/2000/svg" xmlns:xlink="http://www.w3.org/1999/xlink">
 <defs>
  <style type="text/css">
*{stroke-linecap:butt;stroke-linejoin:round;}
  </style>
 </defs>
 <g id="figure_1">
  <g id="patch_1">
   <path d="
M0 72
L72 72
L72 0
L0 0
z
" style="fill:none;"/>
  </g>
  <g id="axes_1">
   <g id="PatchCollection_1">
    <defs>
     <path d="
M36 -7.5
C43.5583 -7.5 50.808 -10.5029 56.1525 -15.8475
C61.4971 -21.192 64.5 -28.4417 64.5 -36
C64.5 -43.5583 61.4971 -50.808 56.1525 -56.1525
C50.808 -61.4971 43.5583 -64.5 36 -64.5
C28.4417 -64.5 21.192 -61.4971 15.8475 -56.1525
C10.5029 -50.808 7.5 -43.5583 7.5 -36
C7.5 -28.4417 10.5029 -21.192 15.8475 -15.8475
C21.192 -10.5029 28.4417 -7.5 36 -7.5
z
" id="C0_0_a811fe30f3"/>
     <path d="
M29.8319 -25.3584
L30.0753 -25.2505
L30.3196 -25.1441
L30.5647 -25.0394
L30.8106 -24.9361
L31.0576 -24.8344
L31.3055 -24.7342
L31.5544 -24.6355
L31.8045 -24.5383
L32.0557 -24.4425
L32.3081 -24.3482
L32.5617 -24.2554
L32.8167 -24.1641
L33.073 -24.0742
L33.3307 -23.9858
L33.5899 -23.8988
L33.8507 -23.8133
L34.113 -23.7293
L34.377 -23.6468
L34.6427 -23.5658
L34.9101 -23.4863
L35.1794 -23.4084
L35.4505 -23.332
L35.7235 -23.2572
L35.9986 -23.184
L36.2757 -23.1125
L36.5549 -23.0426
L36.8362 -22.9744
L37.1198 -22.908
L37.4057 -22.8433
L37.6939 -22.7805
L37.9844 -22.7195
L38.2774 -22.6605
L38.5729 -22.6035
L38.8709 -22.5485
L39.1716 -22.4956
L39.4748 -22.4449
L39.7807 -22.3964
L40.0894 -22.3503
L40.4008 -22.3065
L40.715 -22.2653
L41.032 -22.2267
L41.3519 -22.1907
L41.6746 -22.1576
L42.0003 -22.1273
L42.3289 -22.1001
L42.6603 -22.076
L42.9948 -22.0552
L43.3321 -22.0378
L43.6723 -22.0239
L44.0154 -22.0137
L44.3614 -22.0074
L44.7102 -22.005
L45.0618 -22.0069
L45.416 -22.0131
L45.7729 -22.0239
L46.1324 -22.0395
L46.4943 -22.06
L46.8585 -22.0857
L47.2249 -22.1168
L47.5934 -22.1535
L47.9638 -22.1961
L48.3358 -22.2448
L48.7093 -22.3
L49.0841 -22.3618
L49.4598 -22.4306
L49.8362 -22.5067
L50.2129 -22.5903
L50.5897 -22.6819
L50.9661 -22.7817
L51.3417 -22.89
L51.716 -23.0074
L52.0886 -23.1341
L52.4589 -23.2704
L52.8262 -23.4169
L53.19 -23.5739
L53.5497 -23.7418
L53.9043 -23.921
L54.2532 -24.112
L54.5955 -24.3151
L54.9304 -24.5308
L55.2569 -24.7593
L55.574 -25.0011
L55.8809 -25.2565
L56.1764 -25.5256
L56.4597 -25.8086
L56.7298 -26.1056
L56.9858 -26.4165
L57.2268 -26.7412
L57.4521 -27.0793
L57.661 -27.4306
L57.8531 -27.7944
L58.0279 -28.17
L58.1852 -28.5568
L58.3249 -28.9537
L58.4471 -29.3598
L58.5518 -29.7742
L58.6393 -30.1958
L58.71 -30.6236
L58.7642 -31.0564
L58.8026 -31.4933
L58.8255 -31.9333
L58.8336 -32.3755
L58.8274 -32.8189
L58.8076 -33.2628
L58.7746 -33.7063
L58.7293 -34.1488
L58.672 -34.5896
L58.6034 -35.0282
L58.5241 -35.4639
L58.4346 -35.8963
L58.3354 -36.325
L58.2271 -36.7496
L58.1101 -37.1698
L57.985 -37.5852
L57.8521 -37.9956
L57.712 -38.4008
L57.565 -38.8006
L57.4116 -39.1948
L57.2521 -39.5833
L57.0869 -39.966
L56.9163 -40.3428
L56.7408 -40.7137
L56.5605 -41.0785
L56.3758 -41.4373
L56.187 -41.7901
L55.9944 -42.1368
L55.7981 -42.4776
L55.5985 -42.8123
L55.3958 -43.141
L55.1901 -43.4639
L54.9818 -43.7808
L54.7709 -44.092
L54.5576 -44.3975
L54.3421 -44.6973
L54.1247 -44.9915
L53.9053 -45.2803
L53.6841 -45.5636
L53.4613 -45.8416
L53.237 -46.1144
L53.0113 -46.382
L52.7842 -46.6446
L52.5559 -46.9022
L52.3264 -47.155
L52.0959 -47.403
L51.8643 -47.6463
L51.6318 -47.885
L51.3984 -48.1193
L51.1641 -48.3491
L50.9291 -48.5747
L50.6932 -48.796
L50.4566 -49.0132
L50.2193 -49.2264
L49.9813 -49.4356
L49.7427 -49.6409
L49.5034 -49.8425
L49.2634 -50.0403
L49.0229 -50.2345
L48.7817 -50.4251
L48.5398 -50.6123
L48.2973 -50.796
L48.0542 -50.9763
L47.8104 -51.1534
L47.566 -51.3273
L47.3209 -51.498
L47.0751 -51.6656
L46.8287 -51.8302
L46.5814 -51.9918
L46.3335 -52.1504
L46.0847 -52.3062
L45.8352 -52.4591
L45.5848 -52.6093
L45.3336 -52.7567
L45.0814 -52.9014
L44.8284 -53.0434
L44.5744 -53.1828
L44.3193 -53.3196
L44.0633 -53.4538
L43.8061 -53.5854
L43.5479 -53.7146
L43.2884 -53.8413
L43.0278 -53.9655
L42.7659 -54.0872
L42.5028 -54.2065
L42.2382 -54.3234
L41.9723 -54.4378
L41.705 -54.5499
L41.4361 -54.6595
L41.1657 -54.7668
L40.8937 -54.8716
L40.62 -54.974
L40.3447 -55.0741
L40.0676 -55.1717
L39.7886 -55.2668
L39.5078 -55.3596
L39.2251 -55.4498
L38.9404 -55.5376
L38.6536 -55.6228
L38.3647 -55.7055
L38.0737 -55.7856
L37.7805 -55.8631
L37.4849 -55.9379
L37.1871 -56.0101
L36.8868 -56.0795
L36.5841 -56.1461
L36.2788 -56.2098
L35.971 -56.2706
L35.6606 -56.3285
L35.3475 -56.3832
L35.0316 -56.4349
L34.7129 -56.4834
L34.3914 -56.5285
L34.067 -56.5703
L33.7397 -56.6086
L33.4093 -56.6434
L33.076 -56.6744
L32.7395 -56.7017
L32.3999 -56.7251
L32.0572 -56.7444
L31.7113 -56.7596
L31.3622 -56.7705
L31.0099 -56.777
L30.6544 -56.7788
L30.2956 -56.776
L29.9335 -56.7682
L29.5683 -56.7554
L29.1998 -56.7374
L28.8281 -56.7139
L28.4532 -56.6849
L28.0753 -56.65
L27.6942 -56.6092
L27.3102 -56.5621
L26.9233 -56.5087
L26.5335 -56.4486
L26.1411 -56.3817
L25.7461 -56.3077
L25.3486 -56.2264
L24.9489 -56.1376
L24.5472 -56.041
L24.1436 -55.9364
L23.7383 -55.8235
L23.3318 -55.7022
L22.9242 -55.5721
L22.5158 -55.433
L22.107 -55.2847
L21.6983 -55.1269
L21.29 -54.9595
L20.8826 -54.7822
L20.4765 -54.5948
L20.0724 -54.397
L19.6708 -54.1888
L19.2724 -53.97
L18.8778 -53.7403
L18.4878 -53.4998
L18.1032 -53.2482
L17.7247 -52.9856
L17.3534 -52.7119
L16.9901 -52.4272
L16.6359 -52.1315
L16.2917 -51.8249
L15.9587 -51.5076
L15.6379 -51.1798
L15.3306 -50.8419
L15.0377 -50.4941
L14.7604 -50.1371
L14.4997 -49.7711
L14.2567 -49.397
L14.0322 -49.0152
L13.827 -48.6265
L13.6417 -48.2318
L13.4769 -47.8317
L13.3327 -47.4271
L13.2093 -47.019
L13.1066 -46.6081
L13.0244 -46.1952
L12.9623 -45.7813
L12.9198 -45.3671
L12.8962 -44.9532
L12.8908 -44.5405
L12.9028 -44.1295
L12.9313 -43.7208
L12.9755 -43.3149
L13.0346 -42.9122
L13.1076 -42.5133
L13.1937 -42.1184
L13.2921 -41.7278
L13.4019 -41.3419
L13.5225 -40.9608
L13.6531 -40.5848
L13.793 -40.214
L13.9414 -39.8486
L14.0979 -39.4886
L14.2619 -39.1343
L14.4327 -38.7855
L14.6098 -38.4425
L14.7929 -38.1051
L14.9813 -37.7735
L15.1747 -37.4476
L15.3727 -37.1275
L15.5749 -36.813
L15.7809 -36.5042
L15.9904 -36.2009
L16.2031 -35.9033
L16.4187 -35.6111
L16.637 -35.3244
L16.8576 -35.0431
L17.0804 -34.767
L17.3052 -34.4962
L17.5317 -34.2305
L17.7597 -33.9698
L17.9891 -33.7141
L18.2198 -33.4633
L18.4515 -33.2172
L18.6841 -32.9758
L18.9176 -32.739
L19.1518 -32.5066
L19.3866 -32.2787
L19.6219 -32.0551
L19.8576 -31.8356
L20.0937 -31.6203
L20.33 -31.409
L20.5666 -31.2016
L20.8033 -30.998
L21.0402 -30.7982
L21.2771 -30.602
L21.5141 -30.4094
L21.751 -30.2202
L21.988 -30.0345
L22.2249 -29.852
L22.4618 -29.6728
L22.6986 -29.4967
L22.9353 -29.3237
L23.1719 -29.1537
L23.4085 -28.9866
L23.645 -28.8224
L23.8814 -28.6609
L24.1178 -28.5021
L24.3541 -28.346
L24.5904 -28.1924
L24.8266 -28.0414
L25.0629 -27.8928
L25.2992 -27.7466
L25.5355 -27.6027
L25.7719 -27.4611
L26.0084 -27.3218
L26.245 -27.1846
L26.4817 -27.0495
L26.7186 -26.9165
L26.9558 -26.7856
L27.1932 -26.6566
L27.4309 -26.5296
L27.6689 -26.4045
L27.9072 -26.2812
L28.146 -26.1598
L28.3852 -26.0402
L28.6248 -25.9223
L28.865 -25.8062
L29.1058 -25.6918
L29.3471 -25.579
z
" id="C0_1_ce7a6d6ba8"/>
    </defs>
    <g clip-path="url(#p1bffca34e9)">
     <use style="fill:#ff0000;stroke:#000000;stroke-width:2.0;" x="0.0" xlink:href="#C0_0_a811fe30f3" y="72.0"/>
    </g>
    <g clip-path="url(#p1bffca34e9)">
     <use style="fill:#ffffff;stroke:#000000;stroke-width:2.0;" x="0.0" xlink:href="#C0_1_ce7a6d6ba8" y="72.0"/>
    </g>
   </g>
  </g>
 </g>
 <defs>
  <clipPath id="p1bffca34e9">
   <rect height="72.0" width="72.0" x="0.0" y="0.0"/>
  </clipPath>
 </defs>
</svg>
