<?xml version="1.0" encoding="utf-8" standalone="no"?>
<!DOCTYPE svg PUBLIC "-//W3C//DTD SVG 1.1//EN"
  "http://www.w3.org/Graphics/SVG/1.1/DTD/svg11.dtd">
<!-- Created with matplotlib (http://matplotlib.org/) -->
<svg height="72pt" version="1.1" viewBox="0 0 72 72" width="72pt" xmlns="http://www.w3.org/2000/svg" xmlns:xlink="http://www.w3.org/1999/xlink">
 <defs>
  <style type="text/css">
*{stroke-linecap:butt;stroke-linejoin:round;}
  </style>
 </defs>
 <g id="figure_1">
  <g id="patch_1">
   <path d="
M0 72
L72 72
L72 0
L0 0
z
" style="fill:none;"/>
  </g>
  <g id="axes_1">
   <g id="PatchCollection_1">
    <defs>
     <path d="
M36 -7.5
C43.5583 -7.5 50.808 -10.5029 56.1525 -15.8475
C61.4971 -21.192 64.5 -28.4417 64.5 -36
C64.5 -43.5583 61.4971 -50.808 56.1525 -56.1525
C50.808 -61.4971 43.5583 -64.5 36 -64.5
C28.4417 -64.5 21.192 -61.4971 15.8475 -56.1525
C10.5029 -50.808 7.5 -43.5583 7.5 -36
C7.5 -28.4417 10.5029 -21.192 15.8475 -15.8475
C21.192 -10.5029 28.4417 -7.5 36 -7.5
z
" id="C0_0_a811fe30f3"/>
     <path d="
M28.8139 -8.51192
L28.6528 -8.78393
L28.5563 -9.06036
L28.5182 -9.34047
L28.53 -9.62383
L28.5832 -9.91025
L28.6696 -10.1996
L28.7822 -10.4919
L28.9152 -10.7869
L29.064 -11.0847
L29.2249 -11.385
L29.3952 -11.6878
L29.5724 -11.9928
L29.7549 -12.2998
L29.9411 -12.6086
L30.13 -12.919
L30.3206 -13.2308
L30.5122 -13.5437
L30.7041 -13.8575
L30.8959 -14.1719
L31.0872 -14.4869
L31.2776 -14.8021
L31.4668 -15.1173
L31.6546 -15.4324
L31.8407 -15.7471
L32.0251 -16.0614
L32.2077 -16.3749
L32.3882 -16.6877
L32.5666 -16.9994
L32.7428 -17.3101
L32.9168 -17.6196
L33.0886 -17.9277
L33.258 -18.2344
L33.4252 -18.5395
L33.59 -18.8431
L33.7525 -19.1449
L33.9127 -19.4451
L34.0706 -19.7434
L34.2262 -20.0399
L34.3795 -20.3345
L34.5306 -20.6272
L34.6795 -20.918
L34.8262 -21.2069
L34.9707 -21.4937
L35.1131 -21.7786
L35.2534 -22.0616
L35.3917 -22.3426
L35.528 -22.6216
L35.6623 -22.8987
L35.7947 -23.1739
L35.9253 -23.4472
L36.054 -23.7186
L36.1809 -23.9882
L36.306 -24.256
L36.4295 -24.522
L36.5513 -24.7863
L36.6715 -25.0488
L36.7901 -25.3097
L36.9072 -25.569
L37.0228 -25.8268
L37.1369 -26.083
L37.2496 -26.3377
L37.361 -26.591
L37.4711 -26.8429
L37.5798 -27.0935
L37.6873 -27.3429
L37.7936 -27.591
L37.8988 -27.8379
L38.0028 -28.0837
L38.1057 -28.3285
L38.2075 -28.5722
L38.3083 -28.815
L38.4082 -29.0569
L38.507 -29.298
L38.605 -29.5383
L38.702 -29.7778
L38.7982 -30.0167
L38.8936 -30.255
L38.9881 -30.4927
L39.0819 -30.73
L39.175 -30.9667
L39.2673 -31.2032
L39.359 -31.4392
L39.45 -31.6751
L39.5403 -31.9107
L39.6301 -32.1462
L39.7193 -32.3816
L39.8079 -32.6169
L39.896 -32.8523
L40.0707 -33.0878
L40.1573 -33.3234
L40.2435 -33.5593
L40.3293 -33.7954
L40.4147 -34.0319
L40.4998 -34.2688
L40.5844 -34.5061
L40.6688 -34.7439
L40.7528 -34.9823
L40.8365 -35.2214
L40.92 -35.4611
L41.0031 -35.7017
L41.0861 -35.943
L41.1688 -36.1853
L41.2513 -36.4285
L41.3336 -36.6727
L41.4157 -36.918
L41.4976 -37.1645
L41.5794 -37.4122
L41.661 -37.6612
L41.7426 -37.9115
L41.8239 -38.1633
L41.9052 -38.4165
L41.9864 -38.6712
L42.0675 -38.9276
L42.1485 -39.1857
L42.2294 -39.4455
L42.3103 -39.7072
L42.391 -39.9707
L42.4718 -40.2361
L42.5525 -40.5036
L42.6331 -40.7732
L42.7137 -41.0449
L42.7942 -41.3188
L42.8746 -41.5951
L42.9551 -41.8736
L43.0354 -42.1546
L43.1157 -42.438
L43.196 -42.724
L43.2761 -43.0126
L43.3562 -43.3038
L43.4362 -43.5977
L43.516 -43.8944
L43.5958 -44.1939
L43.6754 -44.4962
L43.7548 -44.8015
L43.8341 -45.1097
L43.9131 -45.4209
L43.992 -45.7351
L44.0706 -46.0524
L44.1489 -46.3727
L44.2269 -46.6962
L44.3045 -47.0227
L44.3818 -47.3523
L44.4587 -47.6851
L44.5352 -48.0209
L44.6111 -48.3598
L44.6866 -48.7018
L44.7614 -49.0467
L44.8357 -49.3946
L44.9093 -49.7455
L44.9823 -50.0991
L45.0545 -50.4554
L45.126 -50.8144
L45.1967 -51.1758
L45.2667 -51.5396
L45.3358 -51.9056
L45.4041 -52.2736
L45.4716 -52.6433
L45.5383 -53.0147
L45.6043 -53.3873
L45.6697 -53.7609
L45.7345 -54.1351
L45.799 -54.5097
L45.8633 -54.884
L45.9278 -55.2577
L45.9928 -55.6302
L46.059 -56.0007
L46.1268 -56.3686
L46.1973 -56.7329
L46.2716 -57.0925
L46.3511 -57.4461
L46.4379 -57.7921
L46.5343 -58.1284
L46.6437 -58.4528
L46.77 -58.7619
L46.9181 -59.0522
L47.0938 -59.3189
L47.3029 -59.5569
L47.5512 -59.7603
L47.8426 -59.9237
L48.1786 -60.0424
L48.5575 -60.1139
L48.9751 -60.138
L49.4255 -60.1165
L49.9022 -60.0531
L50.399 -59.9517
L50.9104 -59.8165
L51.4318 -59.6513
L51.9593 -59.4592
L52.4896 -59.243
L53.0203 -59.0049
L53.4701 -58.7469
L53.8604 -58.5177
L54.2453 -58.2094
L54.6246 -57.8943
L54.9983 -57.5725
L55.3661 -57.2442
L55.7281 -56.9094
L56.0841 -56.5682
L56.4339 -56.2208
L56.7775 -55.8672
L57.1148 -55.5076
L57.4457 -55.142
L57.77 -54.7705
L58.0877 -54.3934
L58.3986 -54.0107
L58.7028 -53.6224
L59 -53.2289
L59.2902 -52.83
L59.5734 -52.426
L59.8493 -52.0171
L60.118 -51.6032
L60.3793 -51.1846
L60.6332 -50.7614
L60.8796 -50.3337
L61.1185 -49.9016
L61.3496 -49.4652
L61.5731 -49.0248
L61.7888 -48.5804
L61.9966 -48.1322
L62.1965 -47.6803
L62.3884 -47.2248
L62.5722 -46.7659
L62.748 -46.3037
L62.9156 -45.8384
L63.0751 -45.3701
L63.2263 -44.8989
L63.3691 -44.425
L63.5037 -43.9486
L63.6299 -43.4697
L63.7476 -42.9886
L63.8569 -42.5053
L63.9578 -42.02
L64.0501 -41.5329
L64.1338 -41.0442
L64.209 -40.5539
L64.2756 -40.0622
L64.3336 -39.5692
L64.383 -39.0752
L64.4237 -38.5802
L64.4557 -38.0845
L64.4791 -37.5881
L64.4938 -37.0913
L64.4998 -36.5941
L64.4972 -36.0967
L64.4858 -35.5993
L64.4658 -35.102
L64.4372 -34.605
L64.3998 -34.1084
L64.3538 -33.6124
L64.2992 -33.1171
L64.2359 -32.6227
L64.1641 -32.1293
L64.0836 -31.6371
L63.9947 -31.1463
L63.8971 -30.6569
L63.7911 -30.1691
L63.6767 -29.6831
L63.5538 -29.1991
L63.4225 -28.7171
L63.2828 -28.2373
L63.1348 -27.7599
L62.9786 -27.285
L62.8142 -26.8128
L62.6415 -26.3433
L62.4608 -25.8768
L62.272 -25.4134
L62.0752 -24.9532
L61.8705 -24.4964
L61.6579 -24.0431
L61.4374 -23.5934
L61.2093 -23.1475
L60.9734 -22.7055
L60.7299 -22.2676
L60.4789 -21.8338
L60.2205 -21.4044
L59.9546 -20.9794
L59.6815 -20.559
L59.4012 -20.1433
L59.1137 -19.7324
L58.8192 -19.3264
L58.5177 -18.9256
L58.2094 -18.5299
L57.8943 -18.1396
L57.5725 -17.7547
L57.2442 -17.3754
L56.9094 -17.0017
L56.5682 -16.6339
L56.2208 -16.2719
L55.8672 -15.9159
L55.5076 -15.5661
L55.142 -15.2225
L54.7705 -14.8852
L54.3934 -14.5543
L54.0107 -14.23
L53.6224 -13.9123
L53.2289 -13.6014
L52.83 -13.2972
L52.426 -13
L52.0171 -12.7098
L51.6032 -12.4266
L51.1846 -12.1507
L50.7614 -11.882
L50.3337 -11.6207
L49.9016 -11.3668
L49.4652 -11.1204
L49.0248 -10.8815
L48.5804 -10.6504
L48.1322 -10.4269
L47.6803 -10.2112
L47.2248 -10.0034
L46.7659 -9.80354
L46.3037 -9.61163
L45.8384 -9.42776
L45.3701 -9.25199
L44.8989 -9.08436
L44.425 -8.92492
L43.9486 -8.77374
L43.4697 -8.63085
L42.9886 -8.4963
L42.5053 -8.37012
L42.02 -8.25236
L41.5329 -8.14306
L41.0442 -8.04224
L40.5539 -7.94993
L40.0622 -7.86617
L39.5692 -7.79098
L39.0752 -7.72438
L38.5802 -7.6664
L38.0845 -7.61704
L37.5881 -7.57633
L37.0913 -7.54428
L36.5941 -7.5209
L36.0967 -7.50619
L35.5993 -7.50016
L35.102 -7.50282
L34.605 -7.51415
L34.1084 -7.53416
L33.6124 -7.56284
L33.1171 -7.60019
L32.6227 -7.64618
L32.1293 -7.70081
L31.6371 -7.76407
L31.1463 -7.83592
L30.6569 -7.91635
L30.1691 -8.00534
L29.6831 -8.10285
z
" id="C0_1_557f28136c"/>
     <path d="
M18.4649 -13.5474
L18.0646 -13.9932
L17.6723 -14.4454
L17.289 -14.9032
L16.9158 -15.3659
L16.5533 -15.8329
L16.202 -16.3035
L15.8622 -16.7771
L15.5343 -17.2531
L15.2183 -17.731
L14.9145 -18.2101
L14.6228 -18.6899
L14.3432 -19.1701
L14.0756 -19.6502
L13.8199 -20.1296
L13.576 -20.6082
L13.3436 -21.0854
L13.1226 -21.5609
L12.9127 -22.0345
L12.7138 -22.5059
L12.5255 -22.9747
L12.3476 -23.4409
L12.1798 -23.9041
L12.022 -24.3642
L11.8737 -24.821
L11.7348 -25.2744
L11.605 -25.7242
L11.4839 -26.1703
L11.3714 -26.6127
L11.2671 -27.0513
L11.1709 -27.486
L11.0824 -27.9167
L11.0015 -28.3435
L10.9278 -28.7662
L10.8611 -29.185
L10.8013 -29.5997
L10.7481 -30.0104
L10.7012 -30.4171
L10.6605 -30.8198
L10.6259 -31.2186
L10.597 -31.6135
L10.5737 -32.0045
L10.5558 -32.3917
L10.5432 -32.7751
L10.5358 -33.1548
L10.5332 -33.5308
L10.5355 -33.9032
L10.5425 -34.2721
L10.554 -34.6375
L10.57 -34.9995
L10.5902 -35.3582
L10.6146 -35.7136
L10.6432 -36.0658
L10.6757 -36.4149
L10.7121 -36.7609
L10.7523 -37.104
L10.7963 -37.4442
L10.8439 -37.7816
L10.895 -38.1162
L10.9497 -38.4482
L11.0079 -38.7776
L11.0695 -39.1045
L11.1344 -39.4289
L11.2026 -39.751
L11.2741 -40.0708
L11.3488 -40.3883
L11.4267 -40.7038
L11.5078 -41.0171
L11.592 -41.3284
L11.6793 -41.6378
L11.7698 -41.9454
L11.8634 -42.2511
L11.96 -42.5551
L12.0598 -42.8574
L12.1626 -43.1581
L12.2685 -43.4573
L12.3776 -43.755
L12.4897 -44.0513
L12.605 -44.3462
L12.7234 -44.6399
L12.845 -44.9322
L12.9697 -45.2234
L13.0977 -45.5135
L13.2289 -45.8024
L13.3635 -46.0903
L13.5013 -46.3773
L13.6425 -46.6632
L13.7872 -46.9483
L13.9353 -47.2326
L14.0869 -47.516
L14.242 -47.7986
L14.4009 -48.0806
L14.5634 -48.3618
L14.7297 -48.6423
L14.8998 -48.9222
L15.0738 -49.2015
L15.2518 -49.4802
L15.4339 -49.7583
L15.6201 -50.0359
L15.8105 -50.313
L16.0053 -50.5896
L16.2045 -50.8656
L16.4083 -51.1412
L16.6167 -51.4163
L16.8298 -51.6908
L17.0477 -51.9649
L17.2706 -52.2385
L17.4986 -52.5115
L17.7318 -52.784
L17.9703 -53.056
L18.2142 -53.3273
L18.4637 -53.5981
L18.719 -53.8681
L18.98 -54.1375
L19.2471 -54.406
L19.5203 -54.6738
L19.7997 -54.9406
L20.0855 -55.2065
L20.3779 -55.4713
L20.6771 -55.735
L20.983 -55.9974
L21.296 -56.2585
L21.6161 -56.5181
L21.9435 -56.7761
L22.2784 -57.0323
L22.6209 -57.2867
L22.9711 -57.5389
L23.3291 -57.789
L23.6952 -58.0366
L24.0695 -58.2816
L24.4519 -58.5238
L24.8428 -58.763
L25.2422 -58.9988
L25.6501 -59.2312
L26.0667 -59.4597
L26.4921 -59.6842
L26.9262 -59.9044
L27.3692 -60.1199
L27.821 -60.3306
L28.2817 -60.5359
L28.7512 -60.7357
L29.2295 -60.9296
L29.7164 -61.1172
L30.2119 -61.2983
L30.7159 -61.4725
L31.228 -61.6394
L31.7481 -61.7987
L32.276 -61.9501
L32.8112 -62.0934
L33.3533 -62.2281
L33.9019 -62.3541
L34.4564 -62.4712
L35.0161 -62.5792
L35.5803 -62.678
L36.1481 -62.7676
L36.7184 -62.8481
L37.29 -62.9199
L37.8614 -62.9832
L38.4307 -63.0389
L38.9958 -63.0878
L39.5541 -63.1315
L40.1023 -63.1718
L40.6365 -63.2111
L41.1518 -63.2528
L41.6426 -63.301
L42.1024 -63.3604
L42.5243 -63.4365
L42.4461 -63.5344
L41.9607 -63.7614
L41.4734 -63.8697
L40.9844 -63.9695
L40.4939 -64.0608
L40.002 -64.1435
L39.509 -64.2176
L39.0148 -64.2832
L38.5198 -64.3401
L38.0239 -64.3884
L37.5275 -64.428
L37.0306 -64.459
L36.5334 -64.4814
L36.036 -64.495
L35.5386 -64.5
L35.0413 -64.4963
L34.5443 -64.4839
L34.0478 -64.4628
L33.5519 -64.4331
L33.0567 -64.3947
L32.5624 -64.3476
L32.0692 -64.2919
L31.5771 -64.2276
L31.0865 -64.1547
L30.5973 -64.0732
L30.1097 -63.9832
L29.6239 -63.8847
L29.1401 -63.7776
L28.6584 -63.6621
L28.1789 -63.5382
L27.7018 -63.4059
L27.2272 -63.2652
L26.7553 -63.1162
L26.2862 -62.959
L25.8201 -62.7935
L25.3571 -62.6199
L24.8973 -62.4382
L24.4409 -62.2484
L23.988 -62.0507
L23.5388 -61.845
L23.0933 -61.6314
L22.6518 -61.41
L22.2144 -61.1809
L21.7812 -60.9441
L21.3523 -60.6997
L20.9278 -60.4478
L20.508 -60.1884
L20.0928 -59.9217
L19.6825 -59.6477
L19.2772 -59.3664
L18.877 -59.0781
L18.482 -58.7827
L18.0923 -58.4804
L17.7081 -58.1713
L17.3295 -57.8554
L16.9565 -57.5328
L16.5894 -57.2037
L16.2281 -56.8681
L15.8729 -56.5262
L15.5238 -56.178
L15.181 -55.8236
L14.8445 -55.4632
L14.5144 -55.0969
L14.1909 -54.7248
L13.874 -54.347
L13.5639 -53.9636
L13.2606 -53.5747
L12.9642 -53.1804
L12.6748 -52.781
L12.3926 -52.3764
L12.1175 -51.9668
L11.8497 -51.5524
L11.5893 -51.1332
L11.3363 -50.7094
L11.0908 -50.2811
L10.8529 -49.8485
L10.6227 -49.4117
L10.4002 -48.9708
L10.1854 -48.5259
L9.9786 -48.0772
L9.77969 -47.6248
L9.58876 -47.1689
L9.40587 -46.7096
L9.23108 -46.2471
L9.06445 -45.7814
L8.90603 -45.3127
L8.75585 -44.8412
L8.61398 -44.367
L8.48045 -43.8902
L8.3553 -43.4111
L8.23857 -42.9297
L8.13029 -42.4461
L8.03051 -41.9607
L7.93925 -41.4734
L7.85653 -40.9844
L7.78239 -40.4939
L7.71684 -40.002
L7.65991 -39.509
L7.61161 -39.0148
L7.57196 -38.5198
L7.54096 -38.0239
L7.51864 -37.5275
L7.50499 -37.0306
L7.50002 -36.5334
L7.50374 -36.036
L7.51613 -35.5386
L7.5372 -35.0413
L7.56694 -34.5443
L7.60534 -34.0478
L7.65239 -33.5519
L7.70807 -33.0567
L7.77238 -32.5624
L7.84528 -32.0692
L7.92676 -31.5771
L8.01678 -31.0865
L8.11534 -30.5973
L8.22238 -30.1097
L8.33789 -29.6239
L8.46183 -29.1401
L8.59415 -28.6584
L8.73482 -28.1789
L8.8838 -27.7018
L9.04103 -27.2272
L9.20648 -26.7553
L9.38009 -26.2862
L9.56181 -25.8201
L9.75158 -25.3571
L9.94935 -24.8973
L10.155 -24.4409
L10.3686 -23.988
L10.59 -23.5388
L10.8191 -23.0933
L11.0559 -22.6518
L11.3003 -22.2144
L11.5522 -21.7812
L11.8116 -21.3523
L12.0783 -20.9278
L12.3523 -20.508
L12.6336 -20.0928
L12.9219 -19.6825
L13.2173 -19.2772
L13.5196 -18.877
L13.8287 -18.482
L14.1446 -18.0923
L14.4672 -17.7081
L14.7963 -17.3295
L15.1319 -16.9565
L15.4738 -16.5894
L15.822 -16.2281
L16.1764 -15.8729
L16.5368 -15.5238
L16.9031 -15.181
L17.2752 -14.8445
L17.653 -14.5144
L18.0364 -14.1909
z
" id="C0_2_41e93a9add"/>
    </defs>
    <g clip-path="url(#p1bffca34e9)">
     <use style="fill:#ff0000;stroke:#000000;stroke-width:2.0;" x="0.0" xlink:href="#C0_0_a811fe30f3" y="72.0"/>
    </g>
    <g clip-path="url(#p1bffca34e9)">
     <use style="fill:#ffffff;stroke:#000000;stroke-width:2.0;" x="0.0" xlink:href="#C0_1_557f28136c" y="72.0"/>
    </g>
    <g clip-path="url(#p1bffca34e9)">
     <use style="fill:#ffffff;stroke:#000000;stroke-width:2.0;" x="0.0" xlink:href="#C0_2_41e93a9add" y="72.0"/>
    </g>
   </g>
  </g>
 </g>
 <defs>
  <clipPath id="p1bffca34e9">
   <rect height="72.0" width="72.0" x="0.0" y="0.0"/>
  </clipPath>
 </defs>
</svg>
