<?xml version="1.0" encoding="utf-8" standalone="no"?>
<!DOCTYPE svg PUBLIC "-//W3C//DTD SVG 1.1//EN"
  "http://www.w3.org/Graphics/SVG/1.1/DTD/svg11.dtd">
<!-- Created with matplotlib (http://matplotlib.org/) -->
<svg height="72pt" version="1.1" viewBox="0 0 72 72" width="72pt" xmlns="http://www.w3.org/2000/svg" xmlns:xlink="http://www.w3.org/1999/xlink">
 <defs>
  <style type="text/css">
*{stroke-linecap:butt;stroke-linejoin:round;}
  </style>
 </defs>
 <g id="figure_1">
  <g id="patch_1">
   <path d="
M0 72
L72 72
L72 0
L0 0
z
" style="fill:none;"/>
  </g>
  <g id="axes_1">
   <g id="PatchCollection_1">
    <defs>
     <path d="
M36 -7.5
C43.5583 -7.5 50.808 -10.5029 56.1525 -15.8475
C61.4971 -21.192 64.5 -28.4417 64.5 -36
C64.5 -43.5583 61.4971 -50.808 56.1525 -56.1525
C50.808 -61.4971 43.5583 -64.5 36 -64.5
C28.4417 -64.5 21.192 -61.4971 15.8475 -56.1525
C10.5029 -50.808 7.5 -43.5583 7.5 -36
C7.5 -28.4417 10.5029 -21.192 15.8475 -15.8475
C21.192 -10.5029 28.4417 -7.5 36 -7.5
z
" id="C0_0_a811fe30f3"/>
     <path d="
M62.3085 -46.5167
L62.2101 -46.1151
L62.1055 -45.7206
L61.9952 -45.3334
L61.8796 -44.9532
L61.7589 -44.5801
L61.6336 -44.2138
L61.5039 -43.8544
L61.3701 -43.5016
L61.2325 -43.1555
L61.0915 -42.8158
L60.9471 -42.4824
L60.7997 -42.1552
L60.6495 -41.8341
L60.4967 -41.5189
L60.3415 -41.2094
L60.184 -40.9057
L60.0245 -40.6074
L59.863 -40.3146
L59.6998 -40.027
L59.5349 -39.7445
L59.3685 -39.4669
L59.2007 -39.1943
L59.0316 -38.9263
L58.8613 -38.6629
L58.6898 -38.4039
L58.5174 -38.1493
L58.3439 -37.8989
L58.1696 -37.6526
L57.9944 -37.4102
L57.8184 -37.1717
L57.6417 -36.9369
L57.4643 -36.7057
L57.2862 -36.478
L57.1075 -36.2537
L56.9281 -36.0327
L56.7482 -35.8149
L56.5677 -35.6003
L56.3866 -35.3886
L56.205 -35.1798
L56.0228 -34.9738
L55.8401 -34.7705
L55.6568 -34.5699
L55.473 -34.3718
L55.2886 -34.1762
L55.1037 -33.9829
L54.9182 -33.792
L54.7321 -33.6032
L54.5454 -33.4167
L54.3581 -33.2322
L54.1701 -33.0497
L53.9815 -32.8691
L53.7921 -32.6905
L53.6021 -32.5136
L53.4113 -32.3385
L53.2197 -32.165
L53.0273 -31.9932
L52.8341 -31.8229
L52.64 -31.6542
L52.4449 -31.4869
L52.249 -31.321
L52.052 -31.1564
L51.854 -30.9932
L51.4547 -30.8311
L51.2533 -30.6703
L51.0506 -30.5107
L50.8468 -30.3521
L50.6416 -30.1947
L50.435 -30.0382
L50.227 -29.8828
L50.0175 -29.7283
L49.8065 -29.5747
L49.5939 -29.422
L49.3797 -29.2701
L49.1637 -29.119
L48.9459 -28.9687
L48.7263 -28.8192
L48.5048 -28.6704
L48.2814 -28.5222
L48.0559 -28.3748
L47.8282 -28.2279
L47.5984 -28.0817
L47.3664 -27.9361
L47.132 -27.791
L46.8951 -27.6466
L46.6558 -27.5026
L46.414 -27.3592
L46.1695 -27.2163
L45.9222 -27.0738
L45.6722 -26.9319
L45.4193 -26.7905
L45.1633 -26.6495
L44.9043 -26.509
L44.6422 -26.369
L44.3768 -26.2294
L44.108 -26.0903
L43.8358 -25.9518
L43.5601 -25.8137
L43.2807 -25.6761
L42.9977 -25.539
L42.7108 -25.4025
L42.42 -25.2665
L42.1253 -25.1311
L41.8264 -24.9963
L41.5233 -24.8622
L41.2159 -24.7287
L40.9042 -24.596
L40.588 -24.464
L40.2672 -24.3328
L39.9417 -24.2025
L39.6115 -24.0731
L39.2765 -23.9447
L38.9366 -23.8174
L38.5917 -23.6912
L38.2417 -23.5661
L37.8866 -23.4424
L37.5264 -23.32
L37.1609 -23.1991
L36.7901 -23.0798
L36.4139 -22.9621
L36.0325 -22.8463
L35.6456 -22.7323
L35.2533 -22.6204
L34.8557 -22.5107
L34.4526 -22.4032
L34.0442 -22.2982
L33.6305 -22.1958
L33.2116 -22.0961
L32.7875 -21.9994
L32.3582 -21.9056
L31.924 -21.8151
L31.485 -21.728
L31.0413 -21.6444
L30.593 -21.5644
L30.1405 -21.4884
L29.684 -21.4163
L29.2237 -21.3483
L28.7599 -21.2846
L28.2931 -21.2253
L27.8236 -21.1704
L27.352 -21.12
L26.8787 -21.074
L26.4046 -21.0324
L25.9304 -20.9951
L25.4573 -20.9616
L24.9865 -20.9315
L24.52 -20.904
L24.0604 -20.8778
L23.6116 -20.851
L23.1792 -20.8204
L22.7724 -20.7811
L22.4045 -20.7251
L22.0941 -20.6401
L21.8606 -20.5091
L21.7137 -20.3144
L21.6465 -20.0475
L21.6422 -19.7153
L21.6837 -19.3343
L21.7583 -18.9212
L21.8577 -18.4883
L21.9766 -18.0439
L22.1114 -17.5933
L22.26 -17.1401
L22.4206 -16.6867
L22.5921 -16.2349
L22.7736 -15.7861
L22.9645 -15.3411
L23.1642 -14.9007
L23.3721 -14.4656
L23.5879 -14.0364
L23.8112 -13.6134
L24.0417 -13.1969
L24.279 -12.7875
L24.523 -12.3851
L24.7731 -11.9902
L25.0293 -11.6029
L25.2913 -11.2234
L25.5588 -10.8517
L25.8315 -10.488
L26.1093 -10.1324
L26.392 -9.78488
L26.6792 -9.44556
L27.136 -9.11444
L27.6101 -8.91348
L28.0867 -8.76291
L28.5658 -8.62063
L29.0471 -8.4867
L29.5305 -8.36114
L30.0159 -8.244
L30.5031 -8.13532
L30.992 -8.03513
L31.4824 -7.94345
L31.9742 -7.86033
L32.4672 -7.78577
L32.9613 -7.71981
L33.4563 -7.66246
L33.9521 -7.61374
L34.4485 -7.57367
L34.9454 -7.54226
L35.4427 -7.51952
L35.94 -7.50545
L36.4374 -7.50006
L36.9347 -7.50336
L37.4317 -7.51533
L37.9282 -7.53598
L38.4242 -7.5653
L38.9194 -7.60329
L39.4138 -7.64992
L39.907 -7.70519
L40.3991 -7.76908
L40.8899 -7.84156
L41.3792 -7.92263
L41.8668 -8.01225
L42.3527 -8.11039
L42.8366 -8.21703
L43.3184 -8.33213
L43.798 -8.45565
L44.2752 -8.58757
L44.7499 -8.72784
L45.222 -8.87642
L45.6912 -9.03326
L46.1575 -9.19831
L46.6207 -9.37153
L47.0806 -9.55286
L47.5372 -9.74224
L47.9902 -9.93962
L48.4397 -10.1449
L48.8853 -10.3581
L49.327 -10.5791
L49.7646 -10.8079
L50.198 -11.0443
L50.6272 -11.2883
L51.0518 -11.5399
L51.4719 -11.7989
L51.8872 -12.0653
L52.2978 -12.3389
L52.7033 -12.6198
L53.1038 -12.9078
L53.4991 -13.2029
L53.889 -13.5048
L54.2735 -13.8137
L54.6524 -14.1292
L55.0256 -14.4515
L55.3931 -14.7803
L55.7546 -15.1156
L56.1101 -15.4572
L56.4595 -15.8051
L56.8026 -16.1591
L57.1395 -16.5192
L57.4698 -16.8853
L57.7937 -17.2571
L58.1109 -17.6347
L58.4213 -18.0178
L58.725 -18.4064
L59.0217 -18.8004
L59.3114 -19.1996
L59.594 -19.604
L59.8694 -20.0133
L60.1375 -20.4275
L60.3983 -20.8465
L60.6517 -21.27
L60.8975 -21.6981
L61.1358 -22.1305
L61.3664 -22.5671
L61.5893 -23.0079
L61.8044 -23.4526
L62.0116 -23.9011
L62.2109 -24.3533
L62.4022 -24.809
L62.5855 -25.2681
L62.7607 -25.7306
L62.9277 -26.1961
L63.0865 -26.6646
L63.2371 -27.136
L63.3794 -27.6101
L63.5133 -28.0867
L63.6389 -28.5658
L63.756 -29.0471
L63.8647 -29.5305
L63.9649 -30.0159
L64.0565 -30.5031
L64.1397 -30.992
L64.2142 -31.4824
L64.2802 -31.9742
L64.3375 -32.4672
L64.3863 -32.9613
L64.4263 -33.4563
L64.4577 -33.9521
L64.4805 -34.4485
L64.4945 -34.9454
L64.4999 -35.4427
L64.4966 -35.94
L64.4847 -36.4374
L64.464 -36.9347
L64.4347 -37.4317
L64.3967 -37.9282
L64.3501 -38.4242
L64.2948 -38.9194
L64.2309 -39.4138
L64.1584 -39.907
L64.0774 -40.3991
L63.9878 -40.8899
L63.8896 -41.3792
L63.783 -41.8668
L63.6679 -42.3527
L63.5443 -42.8366
L63.4124 -43.3184
L63.2722 -43.798
L63.1236 -44.2752
L62.9667 -44.7499
L62.8017 -45.222
z
" id="C0_1_22a73eeeb7"/>
     <path d="
M44.9233 -62.8896
L44.5046 -62.8026
L44.0937 -62.7092
L43.6907 -62.6098
L43.2953 -62.5048
L42.9075 -62.3945
L42.5271 -62.2792
L42.154 -62.1593
L41.788 -62.035
L41.4291 -61.9067
L41.0771 -61.7746
L40.7318 -61.639
L40.393 -61.5001
L40.0607 -61.3581
L39.7346 -61.2132
L39.4147 -61.0656
L39.1007 -60.9156
L38.7925 -60.7632
L38.49 -60.6086
L38.193 -60.4519
L37.9014 -60.2934
L37.6149 -60.133
L37.3336 -59.971
L37.0571 -59.8074
L36.7855 -59.6424
L36.5185 -59.4759
L36.256 -59.3082
L35.9979 -59.1392
L35.7441 -58.969
L35.4943 -58.7978
L35.2486 -58.6254
L35.0068 -58.4521
L34.7687 -58.2777
L34.5343 -58.1024
L34.3035 -57.9263
L34.076 -57.7492
L33.8519 -57.5713
L33.631 -57.3925
L33.4132 -57.2129
L33.1985 -57.0325
L32.9867 -56.8512
L32.7777 -56.6692
L32.5714 -56.4863
L32.3678 -56.3026
L32.1668 -56.1181
L31.9683 -55.9328
L31.7721 -55.7466
L31.5784 -55.5595
L31.3868 -55.3716
L31.1975 -55.1828
L31.0102 -54.9931
L30.825 -54.8024
L30.6418 -54.6107
L30.4604 -54.4181
L30.281 -54.2244
L30.1033 -54.0297
L29.9273 -53.8339
L29.753 -53.637
L29.5804 -53.4389
L29.4092 -53.2396
L29.2396 -53.039
L29.0715 -52.8372
L28.9048 -52.634
L28.7394 -52.4295
L28.5753 -52.2235
L28.4126 -52.0161
L28.251 -51.8071
L28.0907 -51.5965
L27.9315 -51.3844
L27.7735 -51.1705
L27.6165 -50.9549
L27.4606 -50.7375
L27.3057 -50.5182
L27.1519 -50.2969
L26.999 -50.0737
L26.847 -49.8485
L26.6959 -49.6211
L26.5458 -49.3915
L26.3965 -49.1596
L26.2481 -48.9254
L26.1005 -48.6888
L25.9537 -48.4496
L25.8078 -48.208
L25.6627 -47.9636
L25.5183 -47.7166
L25.3748 -47.4667
L25.232 -47.2139
L25.09 -46.9581
L24.9488 -46.6993
L24.8083 -46.4373
L24.6687 -46.1721
L24.5299 -45.9035
L24.3919 -45.6315
L24.2547 -45.3559
L24.1183 -45.0767
L23.9828 -44.7938
L23.8482 -44.5071
L23.7146 -44.2165
L23.5819 -43.9218
L23.4501 -43.6231
L23.3194 -43.3201
L23.1898 -43.0129
L23.0613 -42.7012
L22.934 -42.385
L22.8079 -42.0642
L22.6831 -41.7387
L22.5596 -41.4084
L22.4376 -41.0732
L22.3171 -40.7331
L22.1982 -40.3879
L22.0811 -40.0375
L21.9656 -39.682
L21.8521 -39.3211
L21.7406 -38.9549
L21.6312 -38.5833
L21.524 -38.2061
L21.4192 -37.8235
L21.3168 -37.4352
L21.2171 -37.0414
L21.1202 -36.6419
L21.0261 -36.2369
L20.9352 -35.8262
L20.8475 -35.4098
L20.7632 -34.9879
L20.6825 -34.5605
L20.6056 -34.1276
L20.5325 -33.6893
L20.4636 -33.2457
L20.3989 -32.7969
L20.3387 -32.3431
L20.2831 -31.8844
L20.2323 -31.4211
L20.1865 -30.9534
L20.1457 -30.4814
L20.1102 -30.0056
L20.08 -29.5262
L20.0552 -29.0436
L20.0358 -28.5582
L20.0219 -28.0706
L20.0132 -27.5814
L20.0097 -27.0911
L20.011 -26.6008
L20.0164 -26.1114
L20.0252 -25.6242
L20.0359 -25.1412
L20.0466 -24.6647
L20.0537 -24.1986
L20.0521 -23.7483
L20.0333 -23.3223
L19.9842 -22.9335
L19.8868 -22.5993
L19.7222 -22.3381
L19.4811 -22.1588
L19.1707 -22.055
L18.8083 -22.0107
L18.4114 -22.0095
L17.9928 -22.0396
L17.5614 -22.0931
L17.1226 -22.1651
L16.6803 -22.2522
L16.2368 -22.3523
L15.7941 -22.4639
L15.3535 -22.5861
L14.916 -22.7179
L14.4823 -22.8587
L14.0531 -23.0082
L13.6289 -23.1659
L13.2102 -23.3314
L12.7973 -23.5044
L12.3906 -23.6846
L11.9902 -23.8719
L11.5965 -24.0659
L11.2096 -24.2664
L10.8296 -24.4732
L10.4567 -24.6861
L10.0911 -24.9049
L9.47982 -25.1294
L9.30171 -25.563
L9.13173 -26.0275
L8.96994 -26.4949
L8.81637 -26.9653
L8.6711 -27.4384
L8.53414 -27.9142
L8.40555 -28.3923
L8.28537 -28.8728
L8.17363 -29.3555
L8.07036 -29.8402
L7.9756 -30.3268
L7.88938 -30.8151
L7.81173 -31.305
L7.74265 -31.7963
L7.68219 -32.2889
L7.63035 -32.7826
L7.58715 -33.2773
L7.55261 -33.7728
L7.52674 -34.2691
L7.50953 -34.7658
L7.50101 -35.2629
L7.50116 -35.7602
L7.51 -36.2577
L7.52752 -36.755
L7.55371 -37.2521
L7.58856 -37.7488
L7.63207 -38.245
L7.68422 -38.7405
L7.74499 -39.2352
L7.81437 -39.7289
L7.89234 -40.2214
L7.97887 -40.7127
L8.07393 -41.2025
L8.1775 -41.6908
L8.28955 -42.1773
L8.41004 -42.6619
L8.53893 -43.1445
L8.67618 -43.6249
L8.82176 -44.103
L8.97562 -44.5787
L9.13771 -45.0517
L9.30798 -45.5219
L9.48638 -45.9893
L9.67286 -46.4536
L9.86736 -46.9148
L10.0698 -47.3726
L10.2802 -47.8269
L10.4984 -48.2776
L10.7243 -48.7247
L10.958 -49.1678
L11.1993 -49.6069
L11.4481 -50.0419
L11.7044 -50.4726
L11.9682 -50.8988
L12.2392 -51.3206
L12.5175 -51.7377
L12.8029 -52.15
L13.0954 -52.5573
L13.3949 -52.9596
L13.7012 -53.3568
L14.0144 -53.7487
L14.3342 -54.1351
L14.6607 -54.5161
L14.9936 -54.8914
L15.333 -55.2609
L15.6786 -55.6246
L16.0305 -55.9823
L16.3884 -56.3339
L16.7523 -56.6793
L17.122 -57.0185
L17.4975 -57.3512
L17.8787 -57.6774
L18.2653 -57.997
L18.6574 -58.3099
L19.0548 -58.616
L19.4573 -58.9152
L19.8648 -59.2075
L20.2773 -59.4927
L20.6945 -59.7707
L21.1164 -60.0415
L21.5429 -60.3049
L21.9737 -60.561
L22.4088 -60.8095
L22.8481 -61.0506
L23.2914 -61.2839
L23.7385 -61.5096
L24.1894 -61.7275
L24.6439 -61.9376
L25.1018 -62.1398
L25.563 -62.334
L26.0275 -62.5202
L26.4949 -62.6983
L26.9653 -62.8683
L27.4384 -63.0301
L27.9142 -63.1836
L28.3923 -63.3289
L28.8728 -63.4659
L29.3555 -63.5944
L29.8402 -63.7146
L30.3268 -63.8264
L30.8151 -63.9296
L31.305 -64.0244
L31.7963 -64.1106
L32.2889 -64.1883
L32.7826 -64.2573
L33.2773 -64.3178
L33.7728 -64.3696
L34.2691 -64.4128
L34.7658 -64.4474
L35.2629 -64.4733
L35.7602 -64.4905
L36.2577 -64.499
L36.755 -64.4988
L37.2521 -64.49
L37.7488 -64.4725
L38.245 -64.4463
L38.7405 -64.4114
L39.2352 -64.3679
L39.7289 -64.3158
L40.2214 -64.255
L40.7127 -64.1856
L41.2025 -64.1077
L41.6908 -64.0211
L42.1773 -63.9261
L42.6619 -63.8225
L43.1445 -63.7105
L43.6249 -63.59
L44.103 -63.4611
z
" id="C0_2_b631f8281b"/>
    </defs>
    <g clip-path="url(#p1bffca34e9)">
     <use style="fill:#ff0000;stroke:#000000;stroke-width:2.0;" x="0.0" xlink:href="#C0_0_a811fe30f3" y="72.0"/>
    </g>
    <g clip-path="url(#p1bffca34e9)">
     <use style="fill:#ffffff;stroke:#000000;stroke-width:2.0;" x="0.0" xlink:href="#C0_1_22a73eeeb7" y="72.0"/>
    </g>
    <g clip-path="url(#p1bffca34e9)">
     <use style="fill:#ffffff;stroke:#000000;stroke-width:2.0;" x="0.0" xlink:href="#C0_2_b631f8281b" y="72.0"/>
    </g>
   </g>
  </g>
 </g>
 <defs>
  <clipPath id="p1bffca34e9">
   <rect height="72.0" width="72.0" x="0.0" y="0.0"/>
  </clipPath>
 </defs>
</svg>
