<?xml version="1.0" encoding="utf-8" standalone="no"?>
<!DOCTYPE svg PUBLIC "-//W3C//DTD SVG 1.1//EN"
  "http://www.w3.org/Graphics/SVG/1.1/DTD/svg11.dtd">
<!-- Created with matplotlib (http://matplotlib.org/) -->
<svg height="72pt" version="1.1" viewBox="0 0 72 72" width="72pt" xmlns="http://www.w3.org/2000/svg" xmlns:xlink="http://www.w3.org/1999/xlink">
 <defs>
  <style type="text/css">
*{stroke-linecap:butt;stroke-linejoin:round;}
  </style>
 </defs>
 <g id="figure_1">
  <g id="patch_1">
   <path d="
M0 72
L72 72
L72 0
L0 0
z
" style="fill:none;"/>
  </g>
  <g id="axes_1">
   <g id="PatchCollection_1">
    <defs>
     <path d="
M36 -7.5
C43.5583 -7.5 50.808 -10.5029 56.1525 -15.8475
C61.4971 -21.192 64.5 -28.4417 64.5 -36
C64.5 -43.5583 61.4971 -50.808 56.1525 -56.1525
C50.808 -61.4971 43.5583 -64.5 36 -64.5
C28.4417 -64.5 21.192 -61.4971 15.8475 -56.1525
C10.5029 -50.808 7.5 -43.5583 7.5 -36
C7.5 -28.4417 10.5029 -21.192 15.8475 -15.8475
C21.192 -10.5029 28.4417 -7.5 36 -7.5
z
" id="C0_0_a811fe30f3"/>
     <path d="
M25.5354 -62.257
L25.5981 -62.0276
L25.6455 -61.7904
L25.6783 -61.5457
L25.6971 -61.2939
L25.7027 -61.0351
L25.6957 -60.7699
L25.677 -60.4986
L25.6475 -60.2214
L25.608 -59.9388
L25.5594 -59.6511
L25.5024 -59.3585
L25.438 -59.0615
L25.3669 -58.7604
L25.2899 -58.4555
L25.2077 -58.147
L25.121 -57.8354
L25.0305 -57.5209
L24.9368 -57.2037
L24.8405 -56.8842
L24.7421 -56.5626
L24.6421 -56.2391
L24.5409 -55.9141
L24.4389 -55.5878
L24.3365 -55.2603
L24.2341 -54.9319
L24.1319 -54.6028
L24.0302 -54.2732
L23.9293 -53.9433
L23.8294 -53.6132
L23.7306 -53.283
L23.6332 -52.953
L23.5372 -52.6233
L23.4429 -52.294
L23.3502 -51.9652
L23.2594 -51.637
L23.1705 -51.3096
L23.0836 -50.983
L22.9986 -50.6573
L22.9158 -50.3326
L22.835 -50.0089
L22.7564 -49.6864
L22.6799 -49.365
L22.6056 -49.0449
L22.5335 -48.726
L22.4635 -48.4084
L22.3957 -48.0921
L22.3301 -47.7772
L22.2666 -47.4636
L22.2053 -47.1514
L22.146 -46.8406
L22.0889 -46.5311
L22.0339 -46.2231
L21.9809 -45.9165
L21.93 -45.6112
L21.881 -45.3073
L21.8341 -45.0048
L21.7891 -44.7036
L21.7461 -44.4037
L21.7049 -44.1052
L21.6657 -43.8079
L21.6283 -43.5119
L21.5928 -43.2171
L21.559 -42.9235
L21.5271 -42.631
L21.4969 -42.3397
L21.4684 -42.0495
L21.4416 -41.7603
L21.4166 -41.4722
L21.3932 -41.185
L21.3715 -40.8988
L21.3514 -40.6135
L21.3329 -40.3291
L21.316 -40.0455
L21.3007 -39.7626
L21.2869 -39.4805
L21.2747 -39.1991
L21.264 -38.9184
L21.2549 -38.6382
L21.2472 -38.3586
L21.2411 -38.0795
L21.2365 -37.8009
L21.2333 -37.5227
L21.2316 -37.2449
L21.2314 -36.9674
L21.2327 -36.6901
L21.2354 -36.4131
L21.2395 -36.1363
L21.2523 -35.8596
L21.2608 -35.583
L21.2708 -35.3065
L21.2823 -35.0299
L21.2952 -34.7533
L21.3096 -34.4766
L21.3255 -34.1998
L21.3429 -33.9227
L21.3618 -33.6454
L21.3822 -33.3678
L21.4041 -33.0899
L21.4275 -32.8116
L21.4525 -32.5329
L21.479 -32.2537
L21.5071 -31.974
L21.5367 -31.6937
L21.568 -31.4129
L21.6009 -31.1314
L21.6354 -30.8491
L21.6716 -30.5662
L21.7095 -30.2825
L21.7491 -29.998
L21.7904 -29.7126
L21.8334 -29.4264
L21.8782 -29.1392
L21.9248 -28.851
L21.9733 -28.5619
L22.0235 -28.2717
L22.0757 -27.9805
L22.1297 -27.6881
L22.1857 -27.3947
L22.2436 -27.1001
L22.3036 -26.8043
L22.3655 -26.5074
L22.4294 -26.2092
L22.4955 -25.9098
L22.5636 -25.6092
L22.6338 -25.3073
L22.7061 -25.0041
L22.7807 -24.6997
L22.8574 -24.394
L22.9362 -24.087
L23.0173 -23.7788
L23.1007 -23.4693
L23.1862 -23.1586
L23.274 -22.8466
L23.3641 -22.5335
L23.4563 -22.2192
L23.5508 -21.9037
L23.6476 -21.5872
L23.7465 -21.2696
L23.8475 -20.9511
L23.9507 -20.6315
L24.056 -20.3112
L24.1633 -19.99
L24.2725 -19.6681
L24.3835 -19.3456
L24.4963 -19.0226
L24.6107 -18.6991
L24.7267 -18.3753
L24.8439 -18.0514
L24.9624 -17.7273
L25.0818 -17.4034
L25.2019 -17.0797
L25.3225 -16.7563
L25.4433 -16.4335
L25.564 -16.1115
L25.6843 -15.7903
L25.8037 -15.4702
L25.9219 -15.1515
L26.0383 -14.8342
L26.1525 -14.5187
L26.264 -14.2051
L26.3721 -13.8938
L26.4762 -13.5848
L26.5757 -13.2786
L26.6698 -12.9753
L26.7578 -12.6752
L26.8389 -12.3785
L26.9123 -12.0857
L26.9772 -11.7968
L27.0326 -11.5123
L27.0777 -11.2324
L27.1116 -10.9573
L27.1336 -10.6874
L27.1427 -10.4231
L27.1381 -10.1644
L27.1192 -9.9119
L27.0852 -9.66573
L27.0356 -9.42623
L26.9698 -9.19369
L26.4995 -8.96842
L26.032 -9.13014
L25.5675 -9.30004
L25.1062 -9.47807
L24.6482 -9.66418
L24.1937 -9.85831
L23.7428 -10.0604
L23.2957 -10.2704
L22.8524 -10.4882
L22.413 -10.7139
L21.9779 -10.9472
L21.547 -11.1881
L21.1205 -11.4366
L20.6985 -11.6926
L20.2813 -11.956
L19.8687 -12.2267
L19.4612 -12.5046
L19.0586 -12.7897
L18.6612 -13.0819
L18.2691 -13.3811
L17.8824 -13.6871
L17.5012 -14
L17.1256 -14.3195
L16.7558 -14.6457
L16.3919 -14.9783
L16.0339 -15.3174
L15.682 -15.6627
L15.3363 -16.0143
L14.9969 -16.3719
L14.6639 -16.7356
L14.3374 -17.105
L14.0174 -17.4803
L13.7042 -17.8612
L13.3978 -18.2476
L13.0983 -18.6394
L12.8057 -19.0365
L12.5202 -19.4388
L12.2418 -19.8461
L11.9707 -20.2583
L11.7069 -20.6754
L11.4505 -21.0971
L11.2016 -21.5233
L10.9603 -21.954
L10.7265 -22.3889
L10.5005 -22.828
L10.2822 -23.2711
L10.0718 -23.718
L9.86927 -24.1687
L9.67469 -24.6231
L9.48814 -25.0808
L9.30966 -25.5419
L9.13931 -26.0062
L8.97714 -26.4736
L8.8232 -26.9438
L8.67754 -27.4168
L8.54021 -27.8924
L8.41123 -28.3705
L8.29067 -28.8509
L8.17854 -29.3335
L8.07489 -29.8181
L7.97974 -30.3046
L7.89313 -30.7928
L7.81508 -31.2826
L7.74562 -31.7738
L7.68476 -32.2664
L7.63253 -32.7601
L7.58894 -33.2547
L7.554 -33.7502
L7.52773 -34.2464
L7.51013 -34.7431
L7.50121 -35.2402
L7.50097 -35.7376
L7.50941 -36.235
L7.52653 -36.7323
L7.55232 -37.2294
L7.58678 -37.7262
L7.6299 -38.2224
L7.68165 -38.7179
L7.74203 -39.2126
L7.81102 -39.7064
L7.8886 -40.199
L7.97474 -40.6903
L8.06941 -41.1802
L8.17259 -41.6685
L8.28425 -42.1551
L8.40436 -42.6398
L8.53286 -43.1225
L8.66974 -43.6031
L8.81494 -44.0813
L8.96842 -44.557
L9.13014 -45.0302
L9.30004 -45.5005
L9.47807 -45.968
L9.66418 -46.4325
L9.85831 -46.8938
L10.0604 -47.3518
L10.2704 -47.8063
L10.4882 -48.2572
L10.7139 -48.7043
L10.9472 -49.1476
L11.1881 -49.587
L11.4366 -50.0221
L11.6926 -50.453
L11.956 -50.8795
L12.2267 -51.3015
L12.5046 -51.7187
L12.7897 -52.1313
L13.0819 -52.5388
L13.3811 -52.9414
L13.6871 -53.3388
L14 -53.7309
L14.3195 -54.1176
L14.6457 -54.4988
L14.9783 -54.8744
L15.3174 -55.2442
L15.6627 -55.6081
L16.0143 -55.9661
L16.3719 -56.318
L16.7356 -56.6637
L17.105 -57.0031
L17.4803 -57.3361
L17.8612 -57.6626
L18.2476 -57.9826
L18.6394 -58.2958
L19.0365 -58.6022
L19.4388 -58.9017
L19.8461 -59.1943
L20.2583 -59.4798
L20.6754 -59.7582
L21.0971 -60.0293
L21.5233 -60.2931
L21.954 -60.5495
L22.3889 -60.7984
L22.828 -61.0397
L23.2711 -61.2735
L23.718 -61.4995
L24.1687 -61.7178
L24.6231 -61.9282
z
" id="C0_1_a9359f329f"/>
     <path d="
M44.9644 -62.8063
L44.9148 -62.5738
L44.8808 -62.3343
L44.8619 -62.0881
L44.8573 -61.8356
L44.8664 -61.5769
L44.8884 -61.3126
L44.9223 -61.0427
L44.9674 -60.7676
L45.0228 -60.4877
L45.0877 -60.2032
L45.1611 -59.9143
L45.2422 -59.6215
L45.3302 -59.3248
L45.4243 -59.0247
L45.5238 -58.7214
L45.6279 -58.4152
L45.736 -58.1062
L45.8475 -57.7949
L45.9617 -57.4813
L46.0781 -57.1658
L46.1963 -56.8485
L46.3157 -56.5298
L46.436 -56.2097
L46.5567 -55.8885
L46.6775 -55.5665
L46.7981 -55.2437
L46.9182 -54.9203
L47.0376 -54.5966
L47.1561 -54.2727
L47.2733 -53.9486
L47.3893 -53.6247
L47.5037 -53.3009
L47.6165 -52.9774
L47.7275 -52.6544
L47.8367 -52.3319
L47.944 -52.01
L48.0493 -51.6888
L48.1525 -51.3685
L48.2535 -51.0489
L48.3524 -50.7304
L48.4492 -50.4128
L48.5437 -50.0963
L48.6359 -49.7808
L48.726 -49.4665
L48.8138 -49.1534
L48.8993 -48.8414
L48.9827 -48.5307
L49.0638 -48.2212
L49.1426 -47.913
L49.2193 -47.606
L49.2939 -47.3003
L49.3662 -46.9959
L49.4364 -46.6927
L49.5045 -46.3908
L49.5706 -46.0902
L49.6345 -45.7908
L49.6964 -45.4926
L49.7564 -45.1957
L49.8143 -44.8999
L49.8703 -44.6053
L49.9243 -44.3119
L49.9765 -44.0195
L50.0267 -43.7283
L50.0752 -43.4381
L50.1218 -43.149
L50.1666 -42.8608
L50.2096 -42.5736
L50.2509 -42.2874
L50.2905 -42.002
L50.3284 -41.7175
L50.3646 -41.4338
L50.3991 -41.1509
L50.432 -40.8686
L50.4633 -40.5871
L50.4929 -40.3063
L50.521 -40.026
L50.5475 -39.7463
L50.5725 -39.4671
L50.5959 -39.1884
L50.6178 -38.9101
L50.6382 -38.6322
L50.6571 -38.3546
L50.6745 -38.0773
L50.6904 -37.8002
L50.7048 -37.5234
L50.7177 -37.2467
L50.7292 -36.9701
L50.7392 -36.6935
L50.7477 -36.417
L50.7548 -36.1404
L50.7605 -35.8637
L50.7646 -35.5869
L50.7673 -35.3099
L50.7686 -35.0326
L50.7684 -34.7551
L50.7667 -34.4773
L50.7635 -34.1991
L50.7589 -33.9205
L50.7528 -33.6414
L50.7451 -33.3618
L50.736 -33.0816
L50.7253 -32.8009
L50.7131 -32.5195
L50.6993 -32.2374
L50.684 -31.9545
L50.6671 -31.6709
L50.6486 -31.3865
L50.6285 -31.1012
L50.6068 -30.815
L50.5834 -30.5278
L50.5584 -30.2397
L50.5316 -29.9505
L50.5031 -29.6603
L50.4729 -29.369
L50.441 -29.0765
L50.4072 -28.7829
L50.3717 -28.4881
L50.3343 -28.1921
L50.2951 -27.8948
L50.2539 -27.5963
L50.2109 -27.2964
L50.1659 -26.9952
L50.119 -26.6927
L50.07 -26.3888
L50.0191 -26.0835
L49.9661 -25.7769
L49.9111 -25.4689
L49.854 -25.1594
L49.7947 -24.8486
L49.7334 -24.5364
L49.6699 -24.2228
L49.6043 -23.9079
L49.5365 -23.5916
L49.4665 -23.274
L49.3944 -22.9551
L49.3201 -22.635
L49.2436 -22.3136
L49.165 -21.9911
L49.0842 -21.6674
L49.0014 -21.3427
L48.9164 -21.017
L48.8295 -20.6904
L48.7406 -20.363
L48.6498 -20.0348
L48.5571 -19.706
L48.4628 -19.3767
L48.3668 -19.047
L48.2694 -18.717
L48.1706 -18.3868
L48.0707 -18.0567
L47.9698 -17.7268
L47.8681 -17.3972
L47.7659 -17.0681
L47.6635 -16.7397
L47.5611 -16.4122
L47.4591 -16.0859
L47.3579 -15.7609
L47.2579 -15.4374
L47.1595 -15.1158
L47.0632 -14.7963
L46.9695 -14.4791
L46.879 -14.1646
L46.7923 -13.853
L46.7101 -13.5445
L46.6331 -13.2396
L46.562 -12.9385
L46.4976 -12.6415
L46.4406 -12.3489
L46.392 -12.0612
L46.3525 -11.7786
L46.323 -11.5014
L46.3043 -11.2301
L46.2973 -10.9649
L46.3029 -10.7061
L46.3217 -10.4543
L46.3545 -10.2096
L46.4019 -9.97235
L46.4646 -9.74299
L47.0035 -9.5218
L47.4607 -9.70983
L47.9143 -9.90587
L48.3643 -10.1099
L48.8106 -10.3217
L49.253 -10.5414
L49.6913 -10.7689
L50.1254 -11.004
L50.5553 -11.2468
L50.9807 -11.4971
L51.4016 -11.7548
L51.8177 -12.02
L52.2291 -12.2924
L52.6355 -12.5721
L53.0368 -12.8589
L53.433 -13.1527
L53.8238 -13.4536
L54.2092 -13.7612
L54.5891 -14.0757
L54.9633 -14.3968
L55.3317 -14.7245
L55.6942 -15.0587
L56.0507 -15.3993
L56.4012 -15.7462
L56.7454 -16.0992
L57.0833 -16.4583
L57.4147 -16.8233
L57.7397 -17.1942
L58.058 -17.5708
L58.3696 -17.953
L58.6744 -18.3407
L58.9723 -18.7338
L59.2632 -19.1321
L59.547 -19.5356
L59.8236 -19.9441
L60.093 -20.3575
L60.355 -20.7757
L60.6096 -21.1985
L60.8567 -21.6258
L61.0963 -22.0575
L61.3282 -22.4934
L61.5523 -22.9335
L61.7688 -23.3775
L61.9773 -23.8254
L62.1779 -24.277
L62.3706 -24.7321
L62.5552 -25.1907
L62.7318 -25.6526
L62.9002 -26.1176
L63.0604 -26.5856
L63.2124 -27.0565
L63.356 -27.5302
L63.4914 -28.0064
L63.6183 -28.485
L63.7369 -28.966
L63.847 -29.449
L63.9486 -29.9341
L64.0417 -30.421
L64.1263 -30.9097
L64.2023 -31.3998
L64.2697 -31.8914
L64.3285 -32.3842
L64.3787 -32.8782
L64.4202 -33.373
L64.4531 -33.8687
L64.4773 -34.365
L64.4928 -34.8619
L64.4996 -35.359
L64.4978 -35.8564
L64.4873 -36.3538
L64.4681 -36.8511
L64.4402 -37.3481
L64.4037 -37.8448
L64.3585 -38.3408
L64.3047 -38.8362
L64.2423 -39.3307
L64.1712 -39.8242
L64.0916 -40.3165
L64.0034 -40.8075
L63.9067 -41.297
L63.8015 -41.7849
L63.6878 -42.2711
L63.5657 -42.7553
L63.4352 -43.2375
L63.2963 -43.7175
L63.1491 -44.1952
L62.9937 -44.6703
L62.83 -45.1428
L62.6582 -45.6125
L62.4782 -46.0793
L62.2902 -46.543
L62.0941 -47.0035
L61.8901 -47.4607
L61.6783 -47.9143
L61.4586 -48.3643
L61.2311 -48.8106
L60.996 -49.253
L60.7532 -49.6913
L60.5029 -50.1254
L60.2452 -50.5553
L59.98 -50.9807
L59.7076 -51.4016
L59.4279 -51.8177
L59.1411 -52.2291
L58.8473 -52.6355
L58.5464 -53.0368
L58.2388 -53.433
L57.9243 -53.8238
L57.6032 -54.2092
L57.2755 -54.5891
L56.9413 -54.9633
L56.6007 -55.3317
L56.2538 -55.6942
L55.9008 -56.0507
L55.5417 -56.4012
L55.1767 -56.7454
L54.8058 -57.0833
L54.4292 -57.4147
L54.047 -57.7397
L53.6593 -58.058
L53.2662 -58.3696
L52.8679 -58.6744
L52.4644 -58.9723
L52.0559 -59.2632
L51.6425 -59.547
L51.2243 -59.8236
L50.8015 -60.093
L50.3742 -60.355
L49.9425 -60.6096
L49.5066 -60.8567
L49.0665 -61.0963
L48.6225 -61.3282
L48.1746 -61.5523
L47.723 -61.7688
L47.2679 -61.9773
L46.8093 -62.1779
L46.3474 -62.3706
L45.8824 -62.5552
z
" id="C0_2_37287b5da3"/>
    </defs>
    <g clip-path="url(#p1bffca34e9)">
     <use style="fill:#ffffff;stroke:#000000;stroke-width:2.0;" x="0.0" xlink:href="#C0_0_a811fe30f3" y="72.0"/>
    </g>
    <g clip-path="url(#p1bffca34e9)">
     <use style="fill:#ff0000;stroke:#000000;stroke-width:2.0;" x="0.0" xlink:href="#C0_1_a9359f329f" y="72.0"/>
    </g>
    <g clip-path="url(#p1bffca34e9)">
     <use style="fill:#ff0000;stroke:#000000;stroke-width:2.0;" x="0.0" xlink:href="#C0_2_37287b5da3" y="72.0"/>
    </g>
   </g>
  </g>
 </g>
 <defs>
  <clipPath id="p1bffca34e9">
   <rect height="72.0" width="72.0" x="0.0" y="0.0"/>
  </clipPath>
 </defs>
</svg>
