<?xml version="1.0" encoding="utf-8" standalone="no"?>
<!DOCTYPE svg PUBLIC "-//W3C//DTD SVG 1.1//EN"
  "http://www.w3.org/Graphics/SVG/1.1/DTD/svg11.dtd">
<!-- Created with matplotlib (http://matplotlib.org/) -->
<svg height="72pt" version="1.1" viewBox="0 0 72 72" width="72pt" xmlns="http://www.w3.org/2000/svg" xmlns:xlink="http://www.w3.org/1999/xlink">
 <defs>
  <style type="text/css">
*{stroke-linecap:butt;stroke-linejoin:round;}
  </style>
 </defs>
 <g id="figure_1">
  <g id="patch_1">
   <path d="
M0 72
L72 72
L72 0
L0 0
z
" style="fill:none;"/>
  </g>
  <g id="axes_1">
   <g id="PatchCollection_1">
    <defs>
     <path d="
M36 -7.5
C43.5583 -7.5 50.808 -10.5029 56.1525 -15.8475
C61.4971 -21.192 64.5 -28.4417 64.5 -36
C64.5 -43.5583 61.4971 -50.808 56.1525 -56.1525
C50.808 -61.4971 43.5583 -64.5 36 -64.5
C28.4417 -64.5 21.192 -61.4971 15.8475 -56.1525
C10.5029 -50.808 7.5 -43.5583 7.5 -36
C7.5 -28.4417 10.5029 -21.192 15.8475 -15.8475
C21.192 -10.5029 28.4417 -7.5 36 -7.5
z
" id="C0_0_a811fe30f3"/>
     <path d="
M43.3547 -63.3487
L43.2332 -63.1277
L43.11 -62.9066
L42.9854 -62.6854
L42.8597 -62.4643
L42.7329 -62.2431
L42.6053 -62.022
L42.4772 -61.8009
L42.3485 -61.58
L42.2195 -61.3592
L42.0904 -61.1386
L41.9611 -60.9182
L41.8319 -60.6979
L41.7027 -60.4779
L41.5737 -60.2582
L41.445 -60.0388
L41.3166 -59.8196
L41.1885 -59.6007
L41.0608 -59.3822
L40.9335 -59.1639
L40.8068 -58.946
L40.6805 -58.7285
L40.5547 -58.5112
L40.4295 -58.2943
L40.3049 -58.0778
L40.1808 -57.8615
L40.0573 -57.6456
L39.9344 -57.43
L39.8121 -57.2147
L39.6904 -56.9997
L39.5692 -56.785
L39.4487 -56.5706
L39.3287 -56.3564
L39.2093 -56.1424
L39.0904 -55.9286
L38.9721 -55.715
L38.8544 -55.5016
L38.7371 -55.2884
L38.6204 -55.0752
L38.5042 -54.8622
L38.3885 -54.6492
L38.2732 -54.4363
L38.1584 -54.2234
L38.044 -54.0104
L37.9301 -53.7974
L37.8165 -53.5844
L37.7033 -53.3712
L37.5905 -53.1579
L37.478 -52.9444
L37.3658 -52.7307
L37.2539 -52.5167
L37.1423 -52.3025
L37.031 -52.0879
L36.9199 -51.873
L36.809 -51.6577
L36.6983 -51.4419
L36.5878 -51.2257
L36.4774 -51.0089
L36.2571 -50.7916
L36.147 -50.5737
L36.0371 -50.3552
L35.9271 -50.1359
L35.8172 -49.916
L35.7073 -49.6953
L35.5974 -49.4738
L35.4874 -49.2514
L35.3773 -49.0281
L35.2672 -48.8039
L35.1569 -48.5787
L35.0466 -48.3524
L34.936 -48.1251
L34.8253 -47.8967
L34.7143 -47.6671
L34.6032 -47.4362
L34.4918 -47.2041
L34.3801 -46.9707
L34.2681 -46.7359
L34.1558 -46.4997
L34.0432 -46.2621
L33.9302 -46.023
L33.8168 -45.7823
L33.703 -45.54
L33.5888 -45.2961
L33.4742 -45.0505
L33.359 -44.8032
L33.2434 -44.5541
L33.1272 -44.3032
L33.0105 -44.0504
L32.8932 -43.7957
L32.7754 -43.539
L32.6569 -43.2804
L32.5378 -43.0197
L32.418 -42.757
L32.2975 -42.4922
L32.1764 -42.2253
L32.0545 -41.9562
L31.9318 -41.6849
L31.8084 -41.4114
L31.6842 -41.1356
L31.5591 -40.8576
L31.4332 -40.5774
L31.3064 -40.2948
L31.1787 -40.01
L31.0501 -39.7229
L30.9205 -39.4335
L30.79 -39.1419
L30.6584 -38.848
L30.5257 -38.5519
L30.392 -38.2535
L30.2572 -37.9531
L30.1212 -37.6506
L29.984 -37.346
L29.8456 -37.0394
L29.7059 -36.731
L29.5649 -36.4208
L29.4225 -36.109
L29.2787 -35.7955
L29.1334 -35.4807
L28.9865 -35.1647
L28.838 -34.8475
L28.6878 -34.5295
L28.5358 -34.2109
L28.3819 -33.8918
L28.226 -33.5726
L28.068 -33.2535
L27.9077 -32.9348
L27.745 -32.6169
L27.5798 -32.3002
L27.4119 -31.985
L27.2411 -31.6718
L27.0672 -31.3611
L26.89 -31.0533
L26.7092 -30.749
L26.5246 -30.4487
L26.336 -30.1532
L26.143 -29.8629
L25.9454 -29.5785
L25.7429 -29.3008
L25.5352 -29.0305
L25.322 -28.7683
L25.1029 -28.515
L24.8777 -28.2712
L24.6462 -28.0379
L24.4081 -27.8156
L24.1632 -27.6051
L23.9114 -27.4071
L23.6525 -27.2221
L23.3866 -27.0508
L23.1137 -26.8935
L22.8339 -26.7508
L22.5474 -26.6229
L22.2544 -26.5099
L21.9552 -26.4122
L21.6503 -26.3295
L21.34 -26.262
L21.0248 -26.2094
L20.7052 -26.1716
L20.3818 -26.1482
L20.0551 -26.1388
L19.7257 -26.1432
L19.3941 -26.1609
L19.0609 -26.1915
L18.7267 -26.2344
L18.392 -26.2892
L18.0572 -26.3554
L17.7229 -26.4326
L17.3896 -26.5202
L17.0576 -26.6178
L16.7274 -26.725
L16.3993 -26.8412
L16.0738 -26.9661
L15.751 -27.0993
L15.4314 -27.2403
L15.1152 -27.3889
L14.8025 -27.5445
L14.4938 -27.7069
L14.189 -27.8758
L13.8885 -28.0507
L13.5924 -28.2315
L13.3008 -28.4179
L13.0138 -28.6095
L12.7315 -28.8062
L12.4541 -29.0076
L12.1816 -29.2136
L11.914 -29.4239
L11.6514 -29.6383
L11.3939 -29.8567
L11.1415 -30.0789
L10.8942 -30.3046
L10.652 -30.5338
L10.4149 -30.7662
L10.1829 -31.0018
L9.95604 -31.2404
L9.73429 -31.4819
L9.51762 -31.7262
L9.30603 -31.9732
L9.09948 -32.2227
L8.89795 -32.4747
L8.70141 -32.7292
L8.50984 -32.9859
L8.3232 -33.2449
L8.14146 -33.5061
L7.9646 -33.7695
L7.79257 -34.0349
L7.62535 -34.3024
L7.51536 -34.572
L7.50337 -35.0644
L7.50006 -35.5617
L7.50543 -36.0591
L7.51949 -36.5565
L7.54221 -37.0537
L7.57361 -37.5506
L7.61366 -38.047
L7.66237 -38.5428
L7.7197 -39.0378
L7.78565 -39.5319
L7.86019 -40.025
L7.9433 -40.5168
L8.03496 -41.0072
L8.13514 -41.4961
L8.24381 -41.9833
L8.36093 -42.4687
L8.48647 -42.9521
L8.62039 -43.4334
L8.76266 -43.9125
L8.91321 -44.3891
L9.07202 -44.8632
L9.23903 -45.3346
L9.4142 -45.8031
L9.59746 -46.2686
L9.78876 -46.7311
L9.98805 -47.1902
L10.1953 -47.646
L10.4103 -48.0982
L10.6332 -48.5467
L10.8638 -48.9914
L11.102 -49.4321
L11.3479 -49.8687
L11.6012 -50.3012
L11.862 -50.7292
L12.1301 -51.1528
L12.4055 -51.5718
L12.6881 -51.986
L12.9778 -52.3953
L13.2745 -52.7997
L13.5781 -53.1989
L13.8886 -53.5929
L14.2058 -53.9815
L14.5296 -54.3647
L14.86 -54.7423
L15.1968 -55.1141
L15.5399 -55.4801
L15.8893 -55.8402
L16.2448 -56.1943
L16.6063 -56.5422
L16.9737 -56.8838
L17.347 -57.2191
L17.7259 -57.548
L18.1103 -57.8702
L18.5003 -58.1858
L18.8955 -58.4946
L19.296 -58.7966
L19.7015 -59.0917
L20.112 -59.3797
L20.5274 -59.6606
L20.9475 -59.9343
L21.3721 -60.2006
L21.8012 -60.4597
L22.2347 -60.7112
L22.6723 -60.9553
L23.114 -61.1917
L23.5596 -61.4205
L24.009 -61.6415
L24.462 -61.8547
L24.9186 -62.06
L25.3785 -62.2574
L25.8417 -62.4468
L26.308 -62.6282
L26.7772 -62.8014
L27.2493 -62.9665
L27.724 -63.1233
L28.2012 -63.2719
L28.6808 -63.4122
L29.1626 -63.5441
L29.6465 -63.6677
L30.1323 -63.7828
L30.62 -63.8894
L31.1092 -63.9876
L31.6 -64.0772
L32.0921 -64.1583
L32.5854 -64.2308
L33.0797 -64.2947
L33.575 -64.35
L34.0709 -64.3966
L34.5675 -64.4346
L35.0644 -64.464
L35.5617 -64.4846
L36.0591 -64.4966
L36.5565 -64.4999
L37.0537 -64.4946
L37.5506 -64.4805
L38.047 -64.4578
L38.5428 -64.4264
L39.0378 -64.3863
L39.5319 -64.3376
L40.025 -64.2803
L40.5168 -64.2144
L41.0072 -64.1398
L41.4961 -64.0567
L41.9833 -63.965
L42.4687 -63.8649
z
" id="C0_1_4325f54dda"/>
     <path d="
M64.416 -37.1517
L64.2767 -36.8703
L64.1351 -36.5928
L63.9914 -36.3191
L63.8455 -36.0491
L63.6976 -35.7828
L63.5477 -35.52
L63.3959 -35.2607
L63.2422 -35.0047
L63.0866 -34.7521
L62.9293 -34.5027
L62.7702 -34.2564
L62.6094 -34.0132
L62.4468 -33.773
L62.2827 -33.5357
L62.1168 -33.3012
L61.9494 -33.0695
L61.7803 -32.8404
L61.6096 -32.614
L61.4374 -32.3901
L61.2636 -32.1686
L61.0882 -31.9496
L60.9112 -31.7329
L60.7327 -31.5185
L60.5526 -31.3063
L60.3709 -31.0963
L60.1876 -30.8884
L60.0027 -30.6825
L59.8163 -30.4785
L59.6282 -30.2765
L59.4384 -30.0764
L59.247 -29.8781
L59.054 -29.6816
L58.8592 -29.4868
L58.6627 -29.2936
L58.4645 -29.1021
L58.2644 -28.9122
L58.0626 -28.7239
L57.859 -28.537
L57.6535 -28.3516
L57.446 -28.1676
L57.2367 -27.985
L57.0254 -27.8038
L56.812 -27.6238
L56.5967 -27.4452
L56.3792 -27.2678
L56.1596 -27.0917
L55.9378 -26.9167
L55.7138 -26.7429
L55.4876 -26.5703
L55.259 -26.3988
L55.0281 -26.2284
L54.7947 -26.0591
L54.559 -25.8908
L54.3207 -25.7236
L54.0798 -25.5574
L53.8364 -25.3923
L53.5903 -25.2281
L53.3415 -25.0649
L53.0899 -24.9028
L52.8355 -24.7416
L52.5782 -24.5813
L52.3181 -24.4221
L52.0549 -24.2638
L51.7887 -24.1064
L51.5195 -23.9501
L51.2471 -23.7947
L50.9716 -23.6402
L50.6928 -23.4868
L50.4108 -23.3343
L50.1255 -23.1828
L49.8368 -23.0323
L49.5447 -22.8829
L49.2492 -22.7344
L48.9502 -22.587
L48.6477 -22.4407
L48.3417 -22.2954
L48.0322 -22.1512
L47.7191 -22.0081
L47.4024 -21.8662
L47.0822 -21.7253
L46.7583 -21.5857
L46.4309 -21.4472
L46.1 -21.3099
L45.7655 -21.1738
L45.4275 -21.039
L45.0861 -20.9053
L44.7412 -20.773
L44.3931 -20.6418
L44.0417 -20.512
L43.6871 -20.3833
L43.3295 -20.2559
L42.9689 -20.1298
L42.6056 -20.0048
L42.2397 -19.881
L41.8713 -19.7583
L41.5007 -19.6366
L41.1281 -19.516
L40.7537 -19.3962
L40.3778 -19.2773
L40.0007 -19.159
L39.6228 -19.0413
L39.2443 -18.924
L38.8656 -18.8068
L38.4873 -18.6897
L38.1096 -18.5723
L37.7331 -18.4544
L37.3583 -18.3357
L36.9857 -18.2158
L36.6158 -18.0945
L36.2493 -17.9713
L35.8868 -17.8459
L35.5288 -17.7178
L35.1761 -17.5865
L34.8292 -17.4517
L34.4889 -17.3128
L34.1557 -17.1693
L33.8304 -17.0209
L33.5134 -16.8671
L33.2054 -16.7075
L32.907 -16.5417
L32.6185 -16.3695
L32.3403 -16.1906
L32.0729 -16.0047
L31.8165 -15.812
L31.5712 -15.6122
L31.3372 -15.4056
L31.1145 -15.1922
L30.9031 -14.9722
L30.7028 -14.746
L30.5136 -14.514
L30.3353 -14.2764
L30.1675 -14.0337
L30.01 -13.7865
L29.8626 -13.5351
L29.7248 -13.2801
L29.5964 -13.0219
L29.4771 -12.7611
L29.3665 -12.4981
L29.2643 -12.2335
L29.1702 -11.9676
L29.0838 -11.7008
L29.005 -11.4336
L28.9333 -11.1664
L28.8686 -10.8995
L28.8105 -10.6331
L28.7589 -10.3677
L28.7135 -10.1035
L28.674 -9.84073
L28.6404 -9.57962
L28.6123 -9.32037
L28.5896 -9.06317
L28.5721 -8.80819
L29.024 -8.55556
L29.5073 -8.36695
L29.9926 -8.24941
L30.4797 -8.14033
L30.9686 -8.03973
L31.4589 -7.94764
L31.9506 -7.86411
L32.4436 -7.78914
L32.9377 -7.72276
L33.4326 -7.665
L33.9284 -7.61587
L34.4248 -7.57539
L34.9217 -7.54356
L35.4189 -7.52041
L35.9162 -7.50593
L36.4136 -7.50012
L36.9109 -7.503
L37.4079 -7.51456
L37.9045 -7.5348
L38.4005 -7.5637
L38.8958 -7.60127
L39.3901 -7.64749
L39.8835 -7.70235
L40.3756 -7.76583
L40.8665 -7.8379
L41.3558 -7.91856
L41.8435 -8.00776
L42.3295 -8.1055
L42.8135 -8.21173
L43.2954 -8.32643
L43.7751 -8.44956
L44.2525 -8.58107
L44.7273 -8.72094
L45.1995 -8.86912
L45.6688 -9.02557
L46.1352 -9.19023
L46.5986 -9.36306
L47.0587 -9.544
L47.5154 -9.733
L47.9687 -9.93
L48.4182 -10.1349
L48.864 -10.3478
L49.3059 -10.5684
L49.7438 -10.7968
L50.1774 -11.0328
L50.6067 -11.2765
L51.0316 -11.5277
L51.4519 -11.7863
L51.8675 -12.0524
L52.2782 -12.3257
L52.684 -12.6062
L53.0848 -12.8939
L53.4803 -13.1886
L53.8705 -13.4902
L54.2552 -13.7987
L54.6344 -14.114
L55.0079 -14.4359
L55.3756 -14.7644
L55.7374 -15.0994
L56.0932 -15.4407
L56.4429 -15.7883
L56.7864 -16.1421
L57.1235 -16.5019
L57.4542 -16.8676
L57.7783 -17.2392
L58.0959 -17.6165
L58.4066 -17.9994
L58.7106 -18.3877
L59.0077 -18.7815
L59.2977 -19.1804
L59.5806 -19.5845
L59.8564 -19.9936
L60.1249 -20.4076
L60.386 -20.8263
L60.6397 -21.2497
L60.8859 -21.6775
L61.1246 -22.1097
L61.3556 -22.5462
L61.5788 -22.9867
L61.7943 -23.4312
L62.0019 -23.8795
L62.2015 -24.3315
L62.3933 -24.7871
L62.5769 -25.2461
L62.7525 -25.7084
L62.9199 -26.1738
L63.0791 -26.6422
L63.2301 -27.1134
L63.3728 -27.5873
L63.5071 -28.0639
L63.633 -28.5428
L63.7506 -29.024
L63.8597 -29.5073
L63.9603 -29.9926
L64.0524 -30.4797
L64.1359 -30.9686
L64.2109 -31.4589
L64.2772 -31.9506
L64.335 -32.4436
L64.3841 -32.9377
L64.4246 -33.4326
L64.4564 -33.9284
L64.4796 -34.4248
L64.4941 -34.9217
L64.4999 -35.4189
L64.497 -35.9162
z
" id="C0_2_b53fffc239"/>
    </defs>
    <g clip-path="url(#p1bffca34e9)">
     <use style="fill:#ff0000;stroke:#000000;stroke-width:2.0;" x="0.0" xlink:href="#C0_0_a811fe30f3" y="72.0"/>
    </g>
    <g clip-path="url(#p1bffca34e9)">
     <use style="fill:#ffffff;stroke:#000000;stroke-width:2.0;" x="0.0" xlink:href="#C0_1_4325f54dda" y="72.0"/>
    </g>
    <g clip-path="url(#p1bffca34e9)">
     <use style="fill:#ffffff;stroke:#000000;stroke-width:2.0;" x="0.0" xlink:href="#C0_2_b53fffc239" y="72.0"/>
    </g>
   </g>
  </g>
 </g>
 <defs>
  <clipPath id="p1bffca34e9">
   <rect height="72.0" width="72.0" x="0.0" y="0.0"/>
  </clipPath>
 </defs>
</svg>
