<?xml version="1.0" encoding="utf-8" standalone="no"?>
<!DOCTYPE svg PUBLIC "-//W3C//DTD SVG 1.1//EN"
  "http://www.w3.org/Graphics/SVG/1.1/DTD/svg11.dtd">
<!-- Created with matplotlib (http://matplotlib.org/) -->
<svg height="72pt" version="1.1" viewBox="0 0 72 72" width="72pt" xmlns="http://www.w3.org/2000/svg" xmlns:xlink="http://www.w3.org/1999/xlink">
 <defs>
  <style type="text/css">
*{stroke-linecap:butt;stroke-linejoin:round;}
  </style>
 </defs>
 <g id="figure_1">
  <g id="patch_1">
   <path d="
M0 72
L72 72
L72 0
L0 0
z
" style="fill:none;"/>
  </g>
  <g id="axes_1">
   <g id="PatchCollection_1">
    <defs>
     <path d="
M36 -7.5
C43.5583 -7.5 50.808 -10.5029 56.1525 -15.8475
C61.4971 -21.192 64.5 -28.4417 64.5 -36
C64.5 -43.5583 61.4971 -50.808 56.1525 -56.1525
C50.808 -61.4971 43.5583 -64.5 36 -64.5
C28.4417 -64.5 21.192 -61.4971 15.8475 -56.1525
C10.5029 -50.808 7.5 -43.5583 7.5 -36
C7.5 -28.4417 10.5029 -21.192 15.8475 -15.8475
C21.192 -10.5029 28.4417 -7.5 36 -7.5
z
" id="C0_0_a811fe30f3"/>
     <path d="
M58.122 -18.0533
L57.7846 -17.8033
L57.4432 -17.5668
L57.0984 -17.3439
L56.7507 -17.1344
L56.4005 -16.9383
L56.0484 -16.7554
L55.6948 -16.5857
L55.3401 -16.4287
L54.9847 -16.2845
L54.629 -16.1526
L54.2733 -16.0328
L53.9181 -15.9249
L53.5635 -15.8285
L53.21 -15.7432
L52.8577 -15.6688
L52.5069 -15.6049
L52.1579 -15.5511
L51.8107 -15.5072
L51.4657 -15.4728
L51.1229 -15.4475
L50.7826 -15.431
L50.4448 -15.423
L50.1097 -15.4232
L49.7774 -15.4311
L49.4479 -15.4466
L49.1213 -15.4693
L48.7978 -15.4989
L48.4773 -15.5352
L48.1599 -15.5777
L47.8457 -15.6264
L47.5346 -15.6809
L47.2267 -15.741
L46.922 -15.8063
L46.6205 -15.8768
L46.3222 -15.9522
L46.0271 -16.0323
L45.7352 -16.1168
L45.4464 -16.2056
L45.1608 -16.2985
L44.8784 -16.3953
L44.599 -16.4959
L44.3227 -16.6001
L44.0495 -16.7077
L43.7792 -16.8186
L43.5119 -16.9326
L43.2476 -17.0497
L42.9861 -17.1697
L42.7275 -17.2926
L42.4717 -17.4181
L42.2186 -17.5461
L41.9683 -17.6767
L41.7206 -17.8097
L41.4756 -17.945
L41.2331 -18.0825
L40.9932 -18.2222
L40.7558 -18.364
L40.5208 -18.5079
L40.2882 -18.6537
L40.0579 -18.8014
L39.8299 -18.9509
L39.6042 -19.1023
L39.3807 -19.2555
L39.1593 -19.4104
L38.9401 -19.5669
L38.7229 -19.7252
L38.5078 -19.885
L38.2946 -20.0465
L38.0834 -20.2096
L37.874 -20.3742
L37.6665 -20.5403
L37.4609 -20.708
L37.257 -20.8772
L37.0548 -21.0479
L36.8543 -21.2201
L36.6555 -21.3938
L36.4583 -21.569
L36.2628 -21.7457
L36.0687 -21.9238
L35.8762 -22.1035
L35.6851 -22.2846
L35.4956 -22.4673
L35.3074 -22.6514
L35.1206 -22.8371
L34.7512 -23.0243
L34.5685 -23.213
L34.387 -23.4033
L34.2068 -23.5951
L34.0279 -23.7886
L33.8502 -23.9836
L33.6737 -24.1803
L33.4984 -24.3786
L33.3242 -24.5786
L33.1513 -24.7803
L32.9794 -24.9837
L32.8087 -25.1889
L32.6391 -25.3958
L32.4707 -25.6045
L32.3033 -25.815
L32.137 -26.0274
L31.9719 -26.2416
L31.8078 -26.4578
L31.6448 -26.6759
L31.483 -26.896
L31.3222 -27.118
L31.1626 -27.3422
L31.004 -27.5683
L30.8466 -27.7966
L30.6904 -28.027
L30.5353 -28.2596
L30.3814 -28.4944
L30.2287 -28.7313
L30.0772 -28.9706
L29.927 -29.2122
L29.7781 -29.456
L29.6305 -29.7023
L29.4842 -29.9509
L29.3394 -30.2019
L29.196 -30.4554
L29.0541 -30.7113
L28.9138 -30.9698
L28.7751 -31.2308
L28.638 -31.4943
L28.5027 -31.7604
L28.3691 -32.029
L28.2375 -32.3003
L28.1078 -32.5742
L27.9802 -32.8507
L27.8547 -33.1299
L27.7314 -33.4117
L27.6105 -33.6961
L27.492 -33.9832
L27.3761 -34.2729
L27.2628 -34.5653
L27.1524 -34.8603
L27.0449 -35.1578
L26.9405 -35.458
L26.8393 -35.7606
L26.7415 -36.0658
L26.6473 -36.3734
L26.5568 -36.6835
L26.4702 -36.9959
L26.3876 -37.3106
L26.3094 -37.6275
L26.2356 -37.9465
L26.1666 -38.2675
L26.1024 -38.5906
L26.0434 -38.9154
L25.9898 -39.242
L25.9418 -39.5701
L25.8996 -39.8997
L25.8635 -40.2306
L25.8338 -40.5627
L25.8107 -40.8957
L25.7945 -41.2295
L25.7855 -41.5638
L25.7838 -41.8986
L25.7899 -42.2335
L25.8039 -42.5684
L25.8261 -42.903
L25.8568 -43.237
L25.8963 -43.5702
L25.9447 -43.9023
L26.0023 -44.233
L26.0694 -44.5621
L26.146 -44.8893
L26.2325 -45.2142
L26.3289 -45.5366
L26.4354 -45.8562
L26.5521 -46.1726
L26.6791 -46.4855
L26.8164 -46.7947
L26.9641 -47.0997
L27.122 -47.4005
L27.2903 -47.6966
L27.4687 -47.9877
L27.6573 -48.2736
L27.8557 -48.5541
L28.0639 -48.8289
L28.2816 -49.0978
L28.5086 -49.3605
L28.7446 -49.6168
L28.9893 -49.8666
L29.2424 -50.1097
L29.5036 -50.346
L29.7724 -50.5753
L30.0486 -50.7976
L30.3318 -51.0126
L30.6215 -51.2204
L30.9174 -51.4209
L31.2191 -51.6141
L31.5262 -51.7998
L31.8384 -51.9782
L32.1551 -52.1491
L32.4762 -52.3127
L32.8011 -52.4689
L33.1295 -52.6178
L33.4611 -52.7594
L33.7956 -52.8937
L34.1325 -53.0209
L34.4716 -53.141
L34.8126 -53.2541
L35.1552 -53.3602
L35.4992 -53.4595
L35.8441 -53.552
L36.1899 -53.6378
L36.5363 -53.7172
L36.883 -53.79
L37.2298 -53.8565
L37.5765 -53.9168
L37.923 -53.971
L38.2691 -54.0191
L38.6146 -54.0613
L38.9594 -54.0978
L39.3032 -54.1285
L39.6461 -54.1537
L39.9878 -54.1735
L40.3283 -54.1878
L40.6675 -54.197
L41.0052 -54.2009
L41.3414 -54.1999
L41.676 -54.1939
L42.009 -54.1831
L42.3402 -54.1675
L42.6696 -54.1472
L42.9972 -54.1224
L43.323 -54.0932
L43.6468 -54.0595
L43.9687 -54.0216
L44.2886 -53.9794
L44.6065 -53.9331
L44.9224 -53.8827
L45.2362 -53.8283
L45.548 -53.77
L45.8578 -53.7078
L46.1655 -53.6417
L46.4711 -53.572
L46.7746 -53.4985
L47.0761 -53.4214
L47.3756 -53.3407
L47.6729 -53.2564
L47.9683 -53.1687
L48.2615 -53.0774
L48.5528 -52.9828
L48.842 -52.8847
L49.1292 -52.7833
L49.4144 -52.6785
L49.6977 -52.5704
L49.9789 -52.459
L50.2582 -52.3443
L50.5356 -52.2264
L50.811 -52.1052
L51.0845 -51.9808
L51.3561 -51.8531
L51.6258 -51.7223
L51.8937 -51.5882
L52.1596 -51.4509
L52.4238 -51.3103
L52.686 -51.1666
L52.9465 -51.0195
L53.2051 -50.8693
L53.4618 -50.7158
L53.7168 -50.559
L53.97 -50.3989
L54.2213 -50.2355
L54.4709 -50.0687
L54.7187 -49.8986
L54.9646 -49.7251
L55.2087 -49.5482
L55.4511 -49.3678
L55.6916 -49.184
L55.9303 -48.9966
L56.1671 -48.8057
L56.4021 -48.6111
L56.6352 -48.4129
L56.8665 -48.2111
L57.0958 -48.0055
L57.3231 -47.7961
L57.5485 -47.5829
L57.7719 -47.3658
L57.9933 -47.1448
L58.2126 -46.9198
L58.4297 -46.6907
L58.6447 -46.4575
L58.8575 -46.2202
L59.068 -45.9786
L59.2762 -45.7328
L59.482 -45.4826
L59.6853 -45.228
L59.8861 -44.9689
L60.0843 -44.7053
L60.2798 -44.4371
L60.4725 -44.1642
L60.6623 -43.8866
L60.8491 -43.6041
L61.0328 -43.3169
L61.2133 -43.0247
L61.3905 -42.7275
L61.5643 -42.4252
L61.7344 -42.1179
L61.9009 -41.8054
L62.0634 -41.4877
L62.222 -41.1647
L62.3763 -40.8365
L62.5263 -40.5029
L62.6718 -40.1639
L62.8125 -39.8195
L62.9483 -39.4696
L63.079 -39.1143
L63.2044 -38.7535
L63.3243 -38.3873
L63.4384 -38.0156
L63.5465 -37.6385
L63.6483 -37.2559
L63.7437 -36.868
L63.8324 -36.4748
L63.9142 -36.0763
L63.9886 -35.6726
L64.0556 -35.2638
L64.1148 -34.8501
L64.166 -34.4315
L64.2089 -34.0083
L64.2431 -33.5806
L64.2685 -33.1485
L64.2474 -32.7124
L64.177 -32.2141
L64.0981 -31.7217
L64.0106 -31.2306
L63.9145 -30.7409
L63.81 -30.2529
L63.6969 -29.7666
L63.5755 -29.2822
L63.4456 -28.7998
L63.3074 -28.3196
L63.1609 -27.8418
L63.006 -27.3665
L62.843 -26.8938
L62.6718 -26.4238
L62.4925 -25.9568
L62.305 -25.4929
L62.1096 -25.0321
L61.9062 -24.5747
L61.695 -24.1208
L61.4759 -23.6704
L61.249 -23.2239
L61.0145 -22.7812
L60.7723 -22.3426
L60.5226 -21.9081
L60.2654 -21.4779
L60.0009 -21.0521
L59.729 -20.6309
L59.4499 -20.2144
L59.1636 -19.8027
L58.8703 -19.3959
L58.57 -18.9941
z
" id="C0_1_3557dfa4d4"/>
     <path d="
M7.7734 -39.72
L7.90147 -40.1428
L8.03427 -40.5654
L8.17169 -40.9878
L8.31359 -41.4098
L8.45983 -41.8314
L8.61027 -42.2525
L8.76474 -42.6731
L8.92307 -43.0929
L9.08507 -43.5121
L9.25054 -43.9304
L9.41927 -44.3478
L9.59106 -44.7642
L9.76566 -45.1796
L9.94285 -45.5939
L10.1224 -46.0071
L10.304 -46.419
L10.4875 -46.8296
L10.6726 -47.239
L10.859 -47.6469
L11.0465 -48.0535
L11.2349 -48.4586
L11.4239 -48.8622
L11.6132 -49.2644
L11.8028 -49.665
L11.9923 -50.0641
L12.1817 -50.4615
L12.3706 -50.8574
L12.559 -51.2517
L12.7469 -51.6443
L12.9339 -52.0353
L13.1202 -52.4245
L13.3056 -52.8121
L13.4902 -53.1979
L13.3051 -53.5819
L13.0077 -53.2392
L12.7173 -52.8405
L12.4339 -52.4367
L12.1578 -52.0278
L11.8889 -51.6141
L11.6274 -51.1956
L11.3733 -50.7725
L11.1267 -50.3449
L10.8877 -49.9129
L10.6563 -49.4767
L10.4326 -49.0364
L10.2168 -48.5921
L10.0088 -48.1439
L9.80866 -47.6921
L9.61654 -47.2367
L9.43246 -46.7779
L9.25647 -46.3158
L9.08863 -45.8506
L8.92898 -45.3823
L8.77758 -44.9112
L8.63448 -44.4374
L8.49971 -43.961
L8.37331 -43.4822
L8.25533 -43.0011
L8.1458 -42.5179
L8.04476 -42.0327
L7.95223 -41.5457
L7.86825 -41.057
z
" id="C0_2_6c968dafad"/>
    </defs>
    <g clip-path="url(#p1bffca34e9)">
     <use style="fill:#ffffff;stroke:#000000;stroke-width:2.0;" x="0.0" xlink:href="#C0_0_a811fe30f3" y="72.0"/>
    </g>
    <g clip-path="url(#p1bffca34e9)">
     <use style="fill:#ff0000;stroke:#000000;stroke-width:2.0;" x="0.0" xlink:href="#C0_1_3557dfa4d4" y="72.0"/>
    </g>
    <g clip-path="url(#p1bffca34e9)">
     <use style="fill:#ff0000;stroke:#000000;stroke-width:2.0;" x="0.0" xlink:href="#C0_2_6c968dafad" y="72.0"/>
    </g>
   </g>
  </g>
 </g>
 <defs>
  <clipPath id="p1bffca34e9">
   <rect height="72.0" width="72.0" x="0.0" y="0.0"/>
  </clipPath>
 </defs>
</svg>
