<?xml version="1.0" encoding="utf-8" standalone="no"?>
<!DOCTYPE svg PUBLIC "-//W3C//DTD SVG 1.1//EN"
  "http://www.w3.org/Graphics/SVG/1.1/DTD/svg11.dtd">
<!-- Created with matplotlib (http://matplotlib.org/) -->
<svg height="72pt" version="1.1" viewBox="0 0 72 72" width="72pt" xmlns="http://www.w3.org/2000/svg" xmlns:xlink="http://www.w3.org/1999/xlink">
 <defs>
  <style type="text/css">
*{stroke-linecap:butt;stroke-linejoin:round;}
  </style>
 </defs>
 <g id="figure_1">
  <g id="patch_1">
   <path d="
M0 72
L72 72
L72 0
L0 0
z
" style="fill:none;"/>
  </g>
  <g id="axes_1">
   <g id="PatchCollection_1">
    <defs>
     <path d="
M36 -7.5
C43.5583 -7.5 50.808 -10.5029 56.1525 -15.8475
C61.4971 -21.192 64.5 -28.4417 64.5 -36
C64.5 -43.5583 61.4971 -50.808 56.1525 -56.1525
C50.808 -61.4971 43.5583 -64.5 36 -64.5
C28.4417 -64.5 21.192 -61.4971 15.8475 -56.1525
C10.5029 -50.808 7.5 -43.5583 7.5 -36
C7.5 -28.4417 10.5029 -21.192 15.8475 -15.8475
C21.192 -10.5029 28.4417 -7.5 36 -7.5
z
" id="C0_0_a811fe30f3"/>
     <path d="
M36.4692 -7.50386
L36.4659 -7.68623
L36.4619 -7.86977
L36.4573 -8.05453
L36.4521 -8.24055
L36.4462 -8.42785
L36.4397 -8.61649
L36.4327 -8.80648
L36.425 -8.99788
L36.4167 -9.19072
L36.4078 -9.38504
L36.3983 -9.58089
L36.3882 -9.77831
L36.3776 -9.97734
L36.3663 -10.178
L36.3544 -10.3804
L36.342 -10.5845
L36.3289 -10.7904
L36.3152 -10.9982
L36.3009 -11.2078
L36.2859 -11.4194
L36.2704 -11.633
L36.2541 -11.8485
L36.2373 -12.0662
L36.2198 -12.2859
L36.2016 -12.5079
L36.1827 -12.7321
L36.1631 -12.9585
L36.1428 -13.1873
L36.1218 -13.4184
L36.1 -13.6519
L36.0775 -13.8879
L36.0541 -14.1265
L36.03 -14.3675
L36.005 -14.6112
L35.9792 -14.8575
L35.9525 -15.1066
L35.9249 -15.3583
L35.8964 -15.6128
L35.8669 -15.8701
L35.8364 -16.1303
L35.8049 -16.3933
L35.7723 -16.6593
L35.7386 -16.9281
L35.7038 -17.1999
L35.6678 -17.4747
L35.6305 -17.7524
L35.5919 -18.0332
L35.552 -18.3169
L35.5107 -18.6036
L35.4679 -18.8933
L35.4236 -19.1859
L35.3777 -19.4814
L35.3302 -19.7798
L35.2809 -20.0811
L35.2297 -20.3852
L35.1767 -20.692
L35.1216 -21.0014
L35.0644 -21.3134
L35.005 -21.6278
L34.9432 -21.9446
L34.879 -22.2636
L34.8122 -22.5846
L34.7426 -22.9075
L34.6702 -23.2321
L34.5947 -23.5582
L34.5159 -23.8856
L34.4337 -24.2141
L34.3479 -24.5432
L34.2583 -24.8729
L34.1646 -25.2028
L34.0667 -25.5324
L33.9642 -25.8616
L33.8569 -26.1899
L33.7446 -26.5169
L33.6269 -26.8422
L33.5035 -27.1653
L33.3743 -27.4858
L33.2388 -27.8033
L33.0967 -28.1172
L32.9479 -28.4271
L32.7919 -28.7325
L32.6285 -29.0329
L32.4574 -29.3278
L32.2784 -29.6169
L32.0913 -29.8995
L31.896 -30.1755
L31.6922 -30.4443
L31.48 -30.7058
L31.2594 -30.9595
L31.0302 -31.2054
L30.7928 -31.4431
L30.5471 -31.6728
L30.2934 -31.8942
L30.0321 -32.1075
L29.7633 -32.3126
L29.4875 -32.5097
L29.2051 -32.6989
L28.9165 -32.8804
L28.6222 -33.0545
L28.3226 -33.2214
L28.0182 -33.3813
L27.7096 -33.5345
L27.3971 -33.6813
L27.0815 -33.8219
L26.7629 -33.9568
L26.4421 -34.0861
L26.1193 -34.2101
L25.7951 -34.329
L25.4698 -34.4433
L25.1439 -34.553
L24.8176 -34.6584
L24.4914 -34.7598
L24.1655 -34.8574
L23.8402 -34.9513
L23.5158 -35.0417
L23.1926 -35.1289
L22.8708 -35.2129
L22.5506 -35.294
L22.2322 -35.3723
L21.9157 -35.4479
L21.6014 -35.521
L21.2893 -35.5916
L20.9795 -35.66
L20.6723 -35.7261
L20.3676 -35.7901
L20.0656 -35.8521
L19.7663 -35.9122
L19.4697 -35.9704
L19.176 -36.0269
L18.8852 -36.0817
L18.5972 -36.1348
L18.3122 -36.1864
L18.0301 -36.2364
L17.7509 -36.285
L17.4747 -36.3322
L17.2014 -36.3781
L16.931 -36.4227
L16.6635 -36.466
L16.3989 -36.5081
L16.1372 -36.549
L15.8783 -36.5888
L15.6222 -36.6275
L15.3689 -36.6652
L15.1183 -36.7018
L14.8704 -36.7374
L14.6251 -36.772
L14.3825 -36.8057
L14.1425 -36.8384
L13.9049 -36.8703
L13.6699 -36.9013
L13.4373 -36.9314
L13.207 -36.9607
L12.9792 -36.9892
L12.7536 -37.0169
L12.5302 -37.0438
L12.3091 -37.0699
L12.0901 -37.0953
L11.8732 -37.12
L11.6583 -37.1439
L11.4455 -37.1671
L11.2346 -37.1897
L11.0256 -37.2115
L10.8185 -37.2326
L10.6131 -37.2531
L10.4096 -37.2729
L10.2078 -37.292
L10.0076 -37.3104
L9.8091 -37.3283
L9.61217 -37.3454
L9.41678 -37.3619
L9.2229 -37.3777
L9.03048 -37.3929
L8.83948 -37.4075
L8.64986 -37.4214
L8.46159 -37.4346
L8.27461 -37.4472
L8.0889 -37.4591
L7.90442 -37.4703
L7.72114 -37.4808
L7.51733 -36.9938
L7.50433 -36.4965
L7.5 -35.9991
L7.50436 -35.5017
L7.51739 -35.0045
L7.5391 -34.5075
L7.56949 -34.0111
L7.60853 -33.5152
L7.65622 -33.0201
L7.71254 -32.5258
L7.77748 -32.0327
L7.85102 -31.5407
L7.93313 -31.0502
L8.02379 -30.5611
L8.12298 -30.0737
L8.23065 -29.588
L8.34679 -29.1044
L8.47134 -28.6228
L8.60428 -28.1435
L8.74557 -27.6666
L8.89516 -27.1922
L9.05301 -26.7205
L9.21906 -26.2516
L9.39327 -25.7857
L9.57559 -25.3229
L9.76596 -24.8634
L9.96431 -24.4072
L10.1706 -23.9546
L10.3848 -23.5056
L10.6067 -23.0605
L10.8364 -22.6193
L11.0738 -22.1822
L11.3187 -21.7492
L11.5712 -21.3207
L11.8311 -20.8966
L12.0984 -20.477
L12.3729 -20.0623
L12.6547 -19.6523
L12.9435 -19.2474
L13.2394 -18.8476
L13.5422 -18.453
L13.8519 -18.0637
L14.1683 -17.6799
L14.4914 -17.3017
L14.821 -16.9291
L15.157 -16.5624
L15.4994 -16.2016
L15.8481 -15.8468
L16.2029 -15.4982
L16.5637 -15.1558
L16.9304 -14.8198
L17.303 -14.4902
L17.6812 -14.1672
L18.0651 -13.8508
L18.4543 -13.5412
L18.849 -13.2384
L19.2488 -12.9425
L19.6538 -12.6537
L20.0637 -12.3719
L20.4785 -12.0974
L20.898 -11.8302
L21.3222 -11.5703
L21.7508 -11.3178
L22.1837 -11.0729
L22.6208 -10.8356
L23.0621 -10.6059
L23.5072 -10.384
L23.9562 -10.1699
L24.4088 -9.9636
L24.865 -9.76527
L25.3245 -9.57493
L25.7873 -9.39264
L26.2533 -9.21846
L26.7221 -9.05243
L27.1939 -8.89462
L27.6683 -8.74506
L28.1452 -8.6038
L28.6245 -8.47089
L29.1061 -8.34636
L29.5898 -8.23025
L30.0754 -8.12261
L30.5628 -8.02346
L31.0519 -7.93283
L31.5425 -7.85074
L32.0344 -7.77724
L32.5276 -7.71233
L33.0218 -7.65603
L33.5169 -7.60837
L34.0128 -7.56936
L34.5093 -7.53901
L35.0062 -7.51733
L35.5035 -7.50433
z
" id="C0_1_7b29f8e0ec"/>
     <path d="
M64.2789 -34.5192
L64.0956 -34.5297
L63.9111 -34.5409
L63.7254 -34.5528
L63.5384 -34.5654
L63.3501 -34.5786
L63.1605 -34.5925
L62.9695 -34.6071
L62.7771 -34.6223
L62.5832 -34.6381
L62.3878 -34.6546
L62.1909 -34.6717
L61.9924 -34.6896
L61.7922 -34.708
L61.5904 -34.7271
L61.3869 -34.7469
L61.1815 -34.7674
L60.9744 -34.7885
L60.7654 -34.8103
L60.5545 -34.8329
L60.3417 -34.8561
L60.1268 -34.88
L59.9099 -34.9047
L59.6909 -34.9301
L59.4698 -34.9562
L59.2464 -34.9831
L59.0208 -35.0108
L58.793 -35.0393
L58.5627 -35.0686
L58.3301 -35.0987
L58.0951 -35.1297
L57.8575 -35.1616
L57.6175 -35.1943
L57.3749 -35.228
L57.1296 -35.2626
L56.8817 -35.2982
L56.6311 -35.3348
L56.3778 -35.3725
L56.1217 -35.4112
L55.8628 -35.451
L55.6011 -35.4919
L55.3365 -35.534
L55.069 -35.5773
L54.7986 -35.6219
L54.5253 -35.6678
L54.2491 -35.715
L53.9699 -35.7636
L53.6878 -35.8136
L53.4028 -35.8652
L53.1148 -35.9183
L52.824 -35.9731
L52.5303 -36.0296
L52.2337 -36.0878
L51.9344 -36.1479
L51.6324 -36.2099
L51.3277 -36.2739
L51.0205 -36.34
L50.7107 -36.4084
L50.3986 -36.479
L50.0843 -36.5521
L49.7678 -36.6277
L49.4494 -36.706
L49.1292 -36.7871
L48.8074 -36.8711
L48.4842 -36.9583
L48.1598 -37.0487
L47.8345 -37.1426
L47.5086 -37.2402
L47.1824 -37.3416
L46.8561 -37.447
L46.5302 -37.5567
L46.2049 -37.671
L45.8807 -37.7899
L45.5579 -37.9139
L45.2371 -38.0432
L44.9185 -38.1781
L44.6029 -38.3187
L44.2904 -38.4655
L43.9818 -38.6187
L43.6774 -38.7786
L43.3778 -38.9455
L43.0835 -39.1196
L42.7949 -39.3011
L42.5125 -39.4903
L42.2367 -39.6874
L41.9679 -39.8925
L41.7066 -40.1058
L41.4529 -40.3272
L41.2072 -40.5569
L40.9698 -40.7946
L40.7406 -41.0405
L40.52 -41.2942
L40.3078 -41.5557
L40.104 -41.8245
L39.9087 -42.1005
L39.7216 -42.3831
L39.5426 -42.6722
L39.3715 -42.9671
L39.2081 -43.2675
L39.0521 -43.5729
L38.9033 -43.8828
L38.7612 -44.1967
L38.6257 -44.5142
L38.4965 -44.8347
L38.3731 -45.1578
L38.2554 -45.4831
L38.1431 -45.8101
L38.0358 -46.1384
L37.9333 -46.4676
L37.8354 -46.7972
L37.7417 -47.1271
L37.6521 -47.4568
L37.5663 -47.7859
L37.4841 -48.1144
L37.4053 -48.4418
L37.3298 -48.7679
L37.2574 -49.0925
L37.1878 -49.4154
L37.121 -49.7364
L37.0568 -50.0554
L36.995 -50.3722
L36.9356 -50.6866
L36.8784 -50.9986
L36.8233 -51.308
L36.7703 -51.6148
L36.7191 -51.9189
L36.6698 -52.2202
L36.6223 -52.5186
L36.5764 -52.8141
L36.5321 -53.1067
L36.4893 -53.3964
L36.448 -53.6831
L36.4081 -53.9668
L36.3695 -54.2476
L36.3322 -54.5253
L36.2962 -54.8001
L36.2614 -55.0719
L36.2277 -55.3407
L36.1951 -55.6067
L36.1636 -55.8697
L36.1331 -56.1299
L36.1036 -56.3872
L36.0751 -56.6417
L36.0475 -56.8934
L36.0208 -57.1425
L35.995 -57.3888
L35.97 -57.6325
L35.9459 -57.8735
L35.9225 -58.1121
L35.9 -58.3481
L35.8782 -58.5816
L35.8572 -58.8127
L35.8369 -59.0415
L35.8173 -59.2679
L35.7984 -59.4921
L35.7802 -59.7141
L35.7627 -59.9338
L35.7459 -60.1515
L35.7296 -60.367
L35.7141 -60.5806
L35.6991 -60.7922
L35.6848 -61.0018
L35.6711 -61.2096
L35.658 -61.4155
L35.6456 -61.6196
L35.6337 -61.822
L35.6224 -62.0227
L35.6118 -62.2217
L35.6017 -62.4191
L35.5922 -62.615
L35.5833 -62.8093
L35.575 -63.0021
L35.5673 -63.1935
L35.5603 -63.3835
L35.5538 -63.5721
L35.5479 -63.7594
L35.5427 -63.9455
L35.5381 -64.1302
L36.0285 -64.3138
L36.5259 -64.5
L37.0231 -64.4951
L37.5201 -64.4816
L38.0165 -64.4594
L38.5124 -64.4286
L39.0074 -64.389
L39.5016 -64.3409
L39.9947 -64.2841
L40.4866 -64.2187
L40.9771 -64.1446
L41.4661 -64.0621
L41.9534 -63.9709
L42.4389 -63.8713
L42.9225 -63.7631
L43.4039 -63.6465
L43.8831 -63.5215
L44.3599 -63.3881
L44.8341 -63.2463
L45.3057 -63.0963
L45.7744 -62.938
L46.2401 -62.7715
L46.7027 -62.5968
L47.1621 -62.414
L47.6181 -62.2232
L48.0705 -62.0244
L48.5192 -61.8177
L48.9641 -61.6031
L49.4051 -61.3807
L49.842 -61.1506
L50.2747 -60.9128
L50.703 -60.6674
L51.1269 -60.4146
L51.5461 -60.1542
L51.9606 -59.8866
L52.3703 -59.6116
L52.775 -59.3295
L53.1745 -59.0402
L53.5688 -58.7439
L53.9578 -58.4407
L54.3413 -58.1307
L54.7192 -57.8139
L55.0914 -57.4905
L55.4578 -57.1605
L55.8183 -56.8241
L56.1727 -56.4814
L56.521 -56.1324
L56.863 -55.7772
L57.1987 -55.4161
L57.5279 -55.049
L57.8506 -54.6761
L58.1666 -54.2976
L58.4759 -53.9135
L58.7783 -53.5239
L59.0737 -53.1289
L59.3622 -52.7288
L59.6435 -52.3236
L59.9176 -51.9133
L60.1845 -51.4983
L60.4439 -51.0785
L60.696 -50.6541
L60.9405 -50.2253
L61.1774 -49.7921
L61.4066 -49.3547
L61.6281 -48.9133
L61.8418 -48.4679
L62.0476 -48.0188
L62.2455 -47.5659
L62.4354 -47.1096
L62.6173 -46.6498
L62.791 -46.1868
L62.9566 -45.7208
L63.1139 -45.2517
L63.263 -44.7798
L63.4038 -44.3053
L63.5363 -43.8282
L63.6603 -43.3488
L63.776 -42.8671
L63.8831 -42.3833
L63.9818 -41.8976
L64.072 -41.41
L64.1536 -40.9209
L64.2266 -40.4302
L64.291 -39.9382
L64.3468 -39.445
L64.394 -38.9507
L64.4326 -38.4555
L64.4624 -37.9596
L64.4836 -37.4631
L64.4961 -36.9661
L64.5 -36.4689
L64.4951 -35.9715
z
" id="C0_2_ebad192c71"/>
    </defs>
    <g clip-path="url(#p1bffca34e9)">
     <use style="fill:#ff0000;stroke:#000000;stroke-width:2.0;" x="0.0" xlink:href="#C0_0_a811fe30f3" y="72.0"/>
    </g>
    <g clip-path="url(#p1bffca34e9)">
     <use style="fill:#ffffff;stroke:#000000;stroke-width:2.0;" x="0.0" xlink:href="#C0_1_7b29f8e0ec" y="72.0"/>
    </g>
    <g clip-path="url(#p1bffca34e9)">
     <use style="fill:#ffffff;stroke:#000000;stroke-width:2.0;" x="0.0" xlink:href="#C0_2_ebad192c71" y="72.0"/>
    </g>
   </g>
  </g>
 </g>
 <defs>
  <clipPath id="p1bffca34e9">
   <rect height="72.0" width="72.0" x="0.0" y="0.0"/>
  </clipPath>
 </defs>
</svg>
