<?xml version="1.0" encoding="utf-8" standalone="no"?>
<!DOCTYPE svg PUBLIC "-//W3C//DTD SVG 1.1//EN"
  "http://www.w3.org/Graphics/SVG/1.1/DTD/svg11.dtd">
<!-- Created with matplotlib (http://matplotlib.org/) -->
<svg height="72pt" version="1.1" viewBox="0 0 72 72" width="72pt" xmlns="http://www.w3.org/2000/svg" xmlns:xlink="http://www.w3.org/1999/xlink">
 <defs>
  <style type="text/css">
*{stroke-linecap:butt;stroke-linejoin:round;}
  </style>
 </defs>
 <g id="figure_1">
  <g id="patch_1">
   <path d="
M0 72
L72 72
L72 0
L0 0
z
" style="fill:none;"/>
  </g>
  <g id="axes_1">
   <g id="PatchCollection_1">
    <defs>
     <path d="
M36 -7.5
C43.5583 -7.5 50.808 -10.5029 56.1525 -15.8475
C61.4971 -21.192 64.5 -28.4417 64.5 -36
C64.5 -43.5583 61.4971 -50.808 56.1525 -56.1525
C50.808 -61.4971 43.5583 -64.5 36 -64.5
C28.4417 -64.5 21.192 -61.4971 15.8475 -56.1525
C10.5029 -50.808 7.5 -43.5583 7.5 -36
C7.5 -28.4417 10.5029 -21.192 15.8475 -15.8475
C21.192 -10.5029 28.4417 -7.5 36 -7.5
z
" id="C0_0_a811fe30f3"/>
     <path d="
M63.3234 -28.0525
L63.0579 -27.8198
L62.7887 -27.5985
L62.5162 -27.3882
L62.2407 -27.1886
L61.9627 -26.9994
L61.6825 -26.8202
L61.4003 -26.6507
L61.1164 -26.4904
L60.8312 -26.3391
L60.5449 -26.1965
L60.2576 -26.0621
L59.9697 -25.9358
L59.6812 -25.8171
L59.3925 -25.7058
L59.1035 -25.6016
L58.8146 -25.5042
L58.5259 -25.4134
L58.2374 -25.3289
L57.9493 -25.2503
L57.6617 -25.1776
L57.3747 -25.1105
L57.0883 -25.0487
L56.8027 -24.992
L56.518 -24.9403
L56.2341 -24.8933
L55.9512 -24.8509
L55.6692 -24.8129
L55.3882 -24.7791
L55.1084 -24.7493
L54.8296 -24.7234
L54.5519 -24.7013
L54.2753 -24.6828
L53.9999 -24.6678
L53.7257 -24.6562
L53.4526 -24.6477
L53.1806 -24.6424
L52.9099 -24.6402
L52.6403 -24.6408
L52.3718 -24.6443
L52.1045 -24.6504
L51.8382 -24.6593
L51.5731 -24.6706
L51.3091 -24.6845
L51.0462 -24.7007
L50.7843 -24.7193
L50.5235 -24.7402
L50.2636 -24.7633
L50.0048 -24.7885
L49.7468 -24.8158
L49.4899 -24.8451
L49.2337 -24.8765
L48.9785 -24.9098
L48.7241 -24.945
L48.4705 -24.9821
L48.2176 -25.021
L47.9655 -25.0617
L47.7141 -25.1042
L47.4633 -25.1485
L47.2132 -25.1944
L46.9636 -25.2421
L46.7146 -25.2914
L46.4661 -25.3424
L46.2181 -25.395
L45.9705 -25.4493
L45.7234 -25.5051
L45.4766 -25.5626
L45.2301 -25.6216
L44.9839 -25.6823
L44.738 -25.7445
L44.4922 -25.8083
L44.0013 -25.8737
L43.756 -25.9407
L43.5107 -26.0093
L43.2655 -26.0794
L43.0203 -26.1511
L42.775 -26.2245
L42.5296 -26.2994
L42.2842 -26.376
L42.0385 -26.4542
L41.7927 -26.534
L41.5467 -26.6155
L41.3004 -26.6987
L41.0538 -26.7835
L40.8069 -26.8701
L40.5596 -26.9584
L40.3119 -27.0485
L40.0639 -27.1403
L39.8153 -27.2339
L39.5663 -27.3294
L39.3169 -27.4267
L39.0668 -27.526
L38.8163 -27.6271
L38.5651 -27.7302
L38.3134 -27.8352
L38.0611 -27.9423
L37.8081 -28.0515
L37.5545 -28.1627
L37.3002 -28.276
L37.0452 -28.3915
L36.7896 -28.5093
L36.5332 -28.6293
L36.2762 -28.7515
L36.0185 -28.8761
L35.7601 -29.0031
L35.501 -29.1326
L35.2412 -29.2645
L34.9808 -29.3989
L34.7197 -29.5359
L34.458 -29.6756
L34.1957 -29.8179
L33.9328 -29.963
L33.6694 -30.1108
L33.4055 -30.2615
L33.1411 -30.4152
L32.8764 -30.5717
L32.6113 -30.7313
L32.346 -30.894
L32.0805 -31.0598
L31.8149 -31.2288
L31.5493 -31.401
L31.2838 -31.5766
L31.0185 -31.7555
L30.7536 -31.9379
L30.4891 -32.1237
L30.2252 -32.3131
L29.9621 -32.5061
L29.6999 -32.7028
L29.4388 -32.9032
L29.1791 -33.1074
L28.9209 -33.3154
L28.6644 -33.5273
L28.4098 -33.7432
L28.1576 -33.963
L27.9078 -34.1869
L27.6608 -34.4149
L27.4169 -34.647
L27.1764 -34.8833
L26.9397 -35.1238
L26.7071 -35.3685
L26.479 -35.6175
L26.2558 -35.8709
L26.0378 -36.1285
L25.8256 -36.3905
L25.6195 -36.6569
L25.42 -36.9276
L25.2276 -37.2027
L25.0426 -37.4821
L24.8657 -37.7657
L24.6973 -38.0537
L24.5378 -38.3459
L24.3878 -38.6422
L24.2476 -38.9426
L24.1179 -39.247
L23.9989 -39.5553
L23.8911 -39.8673
L23.7949 -40.183
L23.7106 -40.502
L23.6386 -40.8244
L23.5791 -41.1497
L23.5323 -41.4779
L23.4984 -41.8086
L23.4775 -42.1417
L23.4698 -42.4767
L23.4751 -42.8135
L23.4935 -43.1517
L23.5248 -43.4909
L23.5689 -43.8308
L23.6257 -44.1712
L23.6949 -44.5116
L23.7761 -44.8516
L23.8692 -45.191
L23.9738 -45.5294
L24.0895 -45.8664
L24.2159 -46.2017
L24.3527 -46.535
L24.4995 -46.8659
L24.6557 -47.1943
L24.8211 -47.5197
L24.9951 -47.842
L25.1774 -48.1608
L25.3676 -48.476
L25.5653 -48.7873
L25.7699 -49.0945
L25.9813 -49.3975
L26.1989 -49.6961
L26.4224 -49.99
L26.6515 -50.2793
L26.8858 -50.5638
L27.1249 -50.8433
L27.3686 -51.1178
L27.6166 -51.3872
L27.8686 -51.6514
L28.1242 -51.9105
L28.3833 -52.1643
L28.6456 -52.4128
L28.9108 -52.656
L29.1787 -52.8939
L29.4491 -53.1265
L29.7218 -53.3538
L29.9967 -53.5758
L30.2734 -53.7925
L30.552 -54.0039
L30.8321 -54.2102
L31.1138 -54.4112
L31.3968 -54.6071
L31.6809 -54.7979
L31.9662 -54.9836
L32.2524 -55.1643
L32.5396 -55.34
L32.8275 -55.5108
L33.1161 -55.6767
L33.4053 -55.8379
L33.6951 -55.9942
L33.9853 -56.1459
L34.276 -56.2929
L34.567 -56.4353
L34.8584 -56.5732
L35.15 -56.7066
L35.4419 -56.8356
L35.734 -56.9602
L36.0263 -57.0805
L36.3187 -57.1965
L36.6112 -57.3083
L36.9039 -57.4159
L37.1966 -57.5194
L37.4895 -57.6189
L37.7824 -57.7142
L38.0754 -57.8056
L38.3685 -57.8931
L38.6617 -57.9766
L38.955 -58.0562
L39.2483 -58.132
L39.5418 -58.2039
L39.8353 -58.2721
L40.129 -58.3365
L40.4228 -58.3972
L40.7168 -58.4541
L41.0109 -58.5074
L41.3052 -58.5569
L41.5998 -58.6028
L41.8945 -58.645
L42.1895 -58.6836
L42.4848 -58.7185
L42.7804 -58.7498
L43.0763 -58.7774
L43.3725 -58.8014
L43.6691 -58.8217
L43.9662 -58.8384
L44.2636 -58.8514
L44.5615 -58.8607
L44.8598 -58.8662
L45.1587 -58.8681
L45.4581 -58.8661
L45.7581 -58.8604
L46.0586 -58.8509
L46.3598 -58.8375
L46.6616 -58.8202
L46.964 -58.799
L47.2672 -58.7738
L47.5711 -58.7446
L47.8757 -58.7113
L48.181 -58.6739
L48.4871 -58.6322
L48.7941 -58.5863
L49.1018 -58.5361
L49.4104 -58.4815
L49.7198 -58.4223
L50.0301 -58.3587
L50.3412 -58.2903
L50.6532 -58.2173
L50.9661 -58.1394
L51.2799 -58.0566
L51.5946 -57.9688
L51.9101 -57.8758
L52.2265 -57.7777
L52.5438 -57.6741
L52.8619 -57.5651
L53.1808 -57.4505
L53.5005 -57.3301
L53.821 -57.2039
L54.1422 -57.0717
L54.464 -56.9334
L54.7865 -56.7888
L55.1096 -56.6378
L55.4332 -56.4802
L55.7572 -56.3158
L56.0816 -56.1446
L56.4062 -55.9662
L56.8068 -55.7807
L57.1436 -55.4763
L57.4739 -55.1102
L57.7976 -54.7383
L58.1148 -54.3606
L58.4251 -53.9774
L58.7287 -53.5887
L59.0253 -53.1947
L59.3149 -52.7954
L59.5974 -52.391
L59.8728 -51.9816
L60.1408 -51.5673
L60.4015 -51.1483
L60.6548 -50.7247
L60.9005 -50.2966
L61.1387 -49.8641
L61.3692 -49.4274
L61.592 -48.9867
L61.807 -48.5419
L62.0141 -48.0934
L62.2133 -47.6411
L62.4045 -47.1854
L62.5877 -46.7262
L62.7628 -46.2637
L62.9297 -45.7981
L63.0884 -45.3296
L63.2389 -44.8582
L63.3811 -44.384
L63.5149 -43.9074
L63.6404 -43.4283
L63.7574 -42.947
L63.866 -42.4635
L63.9661 -41.9781
L64.0576 -41.4909
L64.1406 -41.002
L64.2151 -40.5115
L64.281 -40.0197
L64.3382 -39.5267
L64.3868 -39.0326
L64.4268 -38.5375
L64.4581 -38.0417
L64.4807 -37.5453
L64.4947 -37.0484
L64.4999 -36.5512
L64.4965 -36.0538
L64.4845 -35.5564
L64.4637 -35.0592
L64.4343 -34.5622
L64.3962 -34.0656
L64.3494 -33.5697
L64.2941 -33.0745
L64.2301 -32.5801
L64.1575 -32.0869
L64.0763 -31.5948
L63.9866 -31.104
L63.8883 -30.6148
L63.7816 -30.1272
L63.6664 -29.6413
L63.5428 -29.1575
z
" id="C0_1_b567cacf2d"/>
     <path d="
M15.2997 -16.4413
L15.1239 -16.7784
L14.9515 -17.1191
L14.7824 -17.4634
L14.6168 -17.8115
L14.4547 -18.1632
L14.2961 -18.5186
L14.1409 -18.8776
L13.9893 -19.2403
L13.8413 -19.6066
L13.6969 -19.9765
L13.556 -20.35
L13.4188 -20.7271
L13.2852 -21.1076
L13.1553 -21.4916
L13.0291 -21.879
L12.9065 -22.2697
L12.7876 -22.6636
L12.6724 -23.0608
L12.5608 -23.461
L12.4529 -23.8642
L12.3486 -24.2703
L12.2479 -24.6792
L12.1507 -25.0908
L12.057 -25.5048
L11.9667 -25.9212
L11.8797 -26.3398
L11.796 -26.7604
L11.7154 -27.1829
L11.6378 -27.6071
L11.5631 -28.0328
L11.491 -28.4597
L11.4216 -28.8877
L11.3544 -29.3166
L11.2894 -29.746
L11.2264 -30.1758
L11.165 -30.6058
L11.105 -31.0356
L11.0462 -31.465
L10.9883 -31.8939
L10.931 -32.3219
L10.874 -32.7487
L10.817 -33.1742
L10.7597 -33.5981
L10.7018 -34.0202
L10.6431 -34.4402
L10.5831 -34.858
L10.5218 -35.2734
L10.4589 -35.6861
L10.394 -36.0961
L10.3272 -36.5031
L10.2581 -36.9071
L10.1868 -37.308
L10.1131 -37.7057
L10.0369 -38.1001
L9.9584 -38.4912
L9.87751 -38.8789
L9.79434 -39.2633
L9.709 -39.6443
L9.62165 -40.022
L9.53245 -40.3965
L9.44163 -40.7677
L9.34939 -41.1357
L9.25598 -41.5005
L9.16167 -41.8623
L9.0667 -42.2211
L8.97137 -42.5769
L8.87593 -42.9298
L8.78067 -43.28
L8.42057 -43.6274
L8.29937 -43.1851
L8.18662 -42.7026
L8.08233 -42.2182
L7.98655 -41.7318
L7.8993 -41.2437
L7.82061 -40.754
L7.7505 -40.2629
L7.689 -39.7704
L7.63613 -39.2768
L7.59189 -38.7822
L7.55631 -38.2868
L7.52939 -37.7906
L7.51114 -37.294
L7.50157 -36.7969
L7.50069 -36.2996
L7.50848 -35.8021
L7.52495 -35.3048
L7.5501 -34.8077
L7.58391 -34.3109
L7.62638 -33.8146
L7.67749 -33.319
L7.73723 -32.8242
L7.80558 -32.3304
L7.88251 -31.8377
L7.96801 -31.3463
L8.06205 -30.8563
L8.1646 -30.3679
L8.27563 -29.8811
L8.3951 -29.3963
L8.52299 -28.9134
L8.65924 -28.4327
L8.80382 -27.9543
L8.95668 -27.4784
L9.11778 -27.0051
L9.28708 -26.5345
L9.4645 -26.0667
L9.65001 -25.602
L9.84355 -25.1405
L10.0451 -24.6823
L10.2545 -24.2275
L10.4717 -23.7764
L10.6967 -23.3289
L10.9295 -22.8853
L11.1699 -22.4457
L11.4178 -22.0102
L11.6732 -21.579
L11.9361 -21.1522
L12.2062 -20.7299
L12.4836 -20.3122
L12.7682 -19.8994
L13.0599 -19.4914
L13.3585 -19.0885
L13.664 -18.6907
L13.9764 -18.2982
L14.2954 -17.911
L14.6211 -17.5294
z
" id="C0_2_f618b84928"/>
    </defs>
    <g clip-path="url(#p1bffca34e9)">
     <use style="fill:#ff0000;stroke:#000000;stroke-width:2.0;" x="0.0" xlink:href="#C0_0_a811fe30f3" y="72.0"/>
    </g>
    <g clip-path="url(#p1bffca34e9)">
     <use style="fill:#ffffff;stroke:#000000;stroke-width:2.0;" x="0.0" xlink:href="#C0_1_b567cacf2d" y="72.0"/>
    </g>
    <g clip-path="url(#p1bffca34e9)">
     <use style="fill:#ffffff;stroke:#000000;stroke-width:2.0;" x="0.0" xlink:href="#C0_2_f618b84928" y="72.0"/>
    </g>
   </g>
  </g>
 </g>
 <defs>
  <clipPath id="p1bffca34e9">
   <rect height="72.0" width="72.0" x="0.0" y="0.0"/>
  </clipPath>
 </defs>
</svg>
