<?xml version="1.0" encoding="utf-8" standalone="no"?>
<!DOCTYPE svg PUBLIC "-//W3C//DTD SVG 1.1//EN"
  "http://www.w3.org/Graphics/SVG/1.1/DTD/svg11.dtd">
<!-- Created with matplotlib (http://matplotlib.org/) -->
<svg height="72pt" version="1.1" viewBox="0 0 72 72" width="72pt" xmlns="http://www.w3.org/2000/svg" xmlns:xlink="http://www.w3.org/1999/xlink">
 <defs>
  <style type="text/css">
*{stroke-linecap:butt;stroke-linejoin:round;}
  </style>
 </defs>
 <g id="figure_1">
  <g id="patch_1">
   <path d="
M0 72
L72 72
L72 0
L0 0
z
" style="fill:none;"/>
  </g>
  <g id="axes_1">
   <g id="PatchCollection_1">
    <defs>
     <path d="
M36 -7.5
C43.5583 -7.5 50.808 -10.5029 56.1525 -15.8475
C61.4971 -21.192 64.5 -28.4417 64.5 -36
C64.5 -43.5583 61.4971 -50.808 56.1525 -56.1525
C50.808 -61.4971 43.5583 -64.5 36 -64.5
C28.4417 -64.5 21.192 -61.4971 15.8475 -56.1525
C10.5029 -50.808 7.5 -43.5583 7.5 -36
C7.5 -28.4417 10.5029 -21.192 15.8475 -15.8475
C21.192 -10.5029 28.4417 -7.5 36 -7.5
z
" id="C0_0_a811fe30f3"/>
     <path d="
M44.1255 -37.2496
L44.027 -37.4945
L43.9269 -37.739
L43.8253 -37.983
L43.7222 -38.2266
L43.6176 -38.4698
L43.5114 -38.7126
L43.4036 -38.9552
L43.2942 -39.1974
L43.1832 -39.4394
L43.0706 -39.6811
L42.9563 -39.9227
L42.8402 -40.1641
L42.7225 -40.4053
L42.6029 -40.6464
L42.4816 -40.8875
L42.3585 -41.1284
L42.2334 -41.3693
L42.1065 -41.6102
L41.9777 -41.8511
L41.8468 -42.0919
L41.7139 -42.3328
L41.579 -42.5737
L41.442 -42.8147
L41.3028 -43.0557
L41.1614 -43.2968
L41.0178 -43.538
L40.8719 -43.7792
L40.7237 -44.0205
L40.5731 -44.2618
L40.42 -44.5032
L40.2644 -44.7446
L40.1063 -44.9861
L39.9456 -45.2276
L39.7823 -45.469
L39.6162 -45.7105
L39.4473 -45.9518
L39.2756 -46.1931
L39.101 -46.4342
L38.9235 -46.6751
L38.7429 -46.9158
L38.5593 -47.1562
L38.3725 -47.3962
L38.1825 -47.6358
L37.9892 -47.8749
L37.7926 -48.1133
L37.5926 -48.3511
L37.3891 -48.5882
L37.1821 -48.8243
L36.9715 -49.0594
L36.7573 -49.2933
L36.5393 -49.526
L36.3175 -49.7572
L36.0919 -49.9869
L35.8624 -50.2148
L35.6289 -50.4407
L35.3914 -50.6645
L35.1497 -50.8859
L34.904 -51.1048
L34.6541 -51.3208
L34.3999 -51.5337
L34.1415 -51.7433
L33.8787 -51.9493
L33.6116 -52.1513
L33.34 -52.3491
L33.0641 -52.5423
L32.7837 -52.7305
L32.4989 -52.9134
L32.2096 -53.0906
L31.9158 -53.2617
L31.6176 -53.4263
L31.315 -53.5839
L31.008 -53.7341
L30.6966 -53.8764
L30.3809 -54.0103
L30.061 -54.1353
L29.7369 -54.251
L29.4088 -54.3568
L29.0768 -54.4522
L28.741 -54.5368
L28.4016 -54.61
L28.0588 -54.6713
L27.7128 -54.7203
L27.3638 -54.7565
L27.0122 -54.7796
L26.6581 -54.7891
L26.3019 -54.7847
L25.944 -54.7661
L25.5847 -54.733
L25.2245 -54.6854
L24.8636 -54.6229
L24.5026 -54.5457
L24.1419 -54.4536
L23.782 -54.3467
L23.4233 -54.2252
L23.0663 -54.0892
L22.7114 -53.939
L22.3592 -53.7748
L22.01 -53.5971
L21.6644 -53.4061
L21.3228 -53.2024
L20.9855 -52.9863
L20.6531 -52.7583
L20.3257 -52.5191
L20.0039 -52.269
L19.6879 -52.0086
L19.378 -51.7386
L19.0745 -51.4593
L18.7776 -51.1714
L18.4876 -50.8753
L18.2046 -50.5718
L17.9287 -50.2611
L17.6603 -49.9439
L17.3993 -49.6207
L17.1458 -49.2919
L16.9 -48.9581
L16.6618 -48.6195
L16.4313 -48.2768
L16.2086 -47.9303
L15.9936 -47.5803
L15.7862 -47.2274
L15.5866 -46.8717
L15.3946 -46.5137
L15.2102 -46.1537
L15.0333 -45.792
L14.8638 -45.4289
L14.7017 -45.0646
L14.5469 -44.6994
L14.3993 -44.3335
L14.2587 -43.9672
L14.1251 -43.6006
L13.9985 -43.234
L13.8785 -42.8674
L13.7653 -42.5012
L13.6585 -42.1354
L13.5582 -41.7702
L13.4643 -41.4057
L13.3765 -41.0421
L13.2948 -40.6793
L13.219 -40.3176
L13.1492 -39.957
L13.085 -39.5976
L13.0265 -39.2394
L12.9736 -38.8826
L12.926 -38.5272
L12.8838 -38.1732
L12.8468 -37.8207
L12.8149 -37.4697
L12.7881 -37.1202
L12.7662 -36.7723
L12.7491 -36.426
L12.7368 -36.0813
L12.7292 -35.7383
L12.7261 -35.3968
L12.7276 -35.057
L12.7336 -34.7188
L12.7439 -34.3823
L12.7586 -34.0474
L12.7775 -33.7141
L12.8006 -33.3824
L12.8278 -33.0523
L12.8592 -32.7238
L12.8946 -32.3969
L12.9339 -32.0716
L12.9772 -31.7478
L13.0245 -31.4255
L13.0756 -31.1047
L13.1306 -30.7854
L13.1893 -30.4675
L13.2519 -30.1511
L13.3182 -29.8361
L13.3883 -29.5225
L13.4621 -29.2103
L13.5397 -28.8994
L13.6209 -28.5898
L13.7058 -28.2816
L13.7945 -27.9746
L13.8868 -27.6689
L13.9828 -27.3645
L14.0826 -27.0612
L14.186 -26.7592
L14.2932 -26.4583
L14.4041 -26.1586
L14.5187 -25.8601
L14.6371 -25.5626
L14.7593 -25.2663
L14.8853 -24.9711
L15.0151 -24.6771
L15.1489 -24.384
L15.2865 -24.0921
L15.428 -23.8013
L15.5735 -23.5115
L15.7231 -23.2228
L15.8766 -22.9351
L16.0343 -22.6486
L16.1961 -22.3631
L16.3621 -22.0787
L16.5324 -21.7954
L16.707 -21.5133
L16.8859 -21.2322
L17.0692 -20.9523
L17.257 -20.6736
L17.4493 -20.3962
L17.6462 -20.1199
L17.8477 -19.8449
L18.054 -19.5713
L18.2651 -19.299
L18.481 -19.0281
L18.7019 -18.7587
L18.9278 -18.4909
L19.1587 -18.2246
L19.3948 -17.96
L19.636 -17.6971
L19.8826 -17.4361
L20.1345 -17.177
L20.3918 -16.9199
L20.6546 -16.6649
L20.923 -16.4122
L21.197 -16.1617
L21.4766 -15.9138
L21.762 -15.6685
L22.0532 -15.4259
L22.3503 -15.1862
L22.6532 -14.9495
L22.962 -14.7161
L23.2769 -14.4861
L23.5977 -14.2596
L23.9245 -14.0369
L24.2574 -13.8182
L24.5963 -13.6037
L24.9413 -13.3936
L25.2922 -13.1881
L25.6491 -12.9876
L26.012 -12.7921
L26.3807 -12.6021
L26.7553 -12.4177
L27.1355 -12.2393
L27.5214 -12.0671
L27.9127 -11.9015
L28.3094 -11.7427
L28.7112 -11.5911
L29.1179 -11.4469
L29.5295 -11.3105
L29.9455 -11.1822
L30.3657 -11.0623
L30.7898 -10.9513
L31.2176 -10.8493
L31.6486 -10.7568
L32.0824 -10.6741
L32.5186 -10.6015
L32.9568 -10.5393
L33.3965 -10.4878
L33.8371 -10.4474
L34.2781 -10.4183
L34.719 -10.4008
L35.1591 -10.3951
L35.5977 -10.4016
L36.0343 -10.4203
L36.4682 -10.4514
L36.8986 -10.4952
L37.3249 -10.5516
L37.7464 -10.6209
L38.1623 -10.703
L38.572 -10.7979
L38.9747 -10.9056
L39.3699 -11.026
L39.7569 -11.1589
L40.1351 -11.3041
L40.5039 -11.4615
L40.8629 -11.6307
L41.2115 -11.8115
L41.5495 -12.0034
L41.8764 -12.2061
L42.1919 -12.4192
L42.496 -12.6423
L42.7883 -12.8747
L43.0689 -13.1162
L43.3377 -13.3661
L43.5946 -13.624
L43.8398 -13.8893
L44.0735 -14.1615
L44.2956 -14.4402
L44.5065 -14.7248
L44.7063 -15.0148
L44.8953 -15.3098
L45.0737 -15.6092
L45.2418 -15.9127
L45.4 -16.2198
L45.5484 -16.5301
L45.6875 -16.8432
L45.8175 -17.1587
L45.9387 -17.4764
L46.0514 -17.7957
L46.156 -18.1165
L46.2527 -18.4385
L46.3419 -18.7613
L46.4237 -19.0847
L46.4986 -19.4085
L46.5668 -19.7325
L46.6284 -20.0564
L46.6839 -20.38
L46.7334 -20.7032
L46.7772 -21.0258
L46.8156 -21.3477
L46.8486 -21.6687
L46.8766 -21.9887
L46.8997 -22.3075
L46.9182 -22.6252
L46.9322 -22.9416
L46.942 -23.2565
L46.9476 -23.5701
L46.9493 -23.882
L46.9472 -24.1924
L46.9414 -24.5012
L46.9321 -24.8083
L46.9195 -25.1137
L46.9037 -25.4174
L46.8847 -25.7193
L46.8627 -26.0195
L46.8379 -26.3179
L46.8102 -26.6144
L46.7799 -26.9092
L46.7471 -27.2022
L46.7117 -27.4934
L46.6739 -27.7828
L46.6338 -28.0705
L46.5914 -28.3564
L46.5469 -28.6406
L46.5002 -28.9231
L46.4515 -29.2038
L46.4008 -29.4829
L46.3482 -29.7604
L46.2937 -30.0363
L46.2373 -30.3105
L46.1792 -30.5832
L46.1193 -30.8544
L46.0577 -31.1242
L45.9945 -31.3924
L45.9296 -31.6593
L45.8631 -31.9247
L45.795 -32.1889
L45.7254 -32.4517
L45.6543 -32.7132
L45.5816 -32.9736
L45.5074 -33.2327
L45.4318 -33.4907
L45.3547 -33.7476
L45.2762 -34.0034
L45.1962 -34.2582
L45.1148 -34.512
L45.032 -34.7648
L44.9478 -35.0167
L44.8621 -35.2678
L44.7751 -35.518
L44.6866 -35.7674
L44.5966 -36.0161
L44.5053 -36.2641
L44.4125 -36.5114
L44.3183 -36.758
z
" id="C0_1_c192ecce15"/>
    </defs>
    <g clip-path="url(#p1bffca34e9)">
     <use style="fill:#ffffff;stroke:#000000;stroke-width:2.0;" x="0.0" xlink:href="#C0_0_a811fe30f3" y="72.0"/>
    </g>
    <g clip-path="url(#p1bffca34e9)">
     <use style="fill:#ff0000;stroke:#000000;stroke-width:2.0;" x="0.0" xlink:href="#C0_1_c192ecce15" y="72.0"/>
    </g>
   </g>
  </g>
 </g>
 <defs>
  <clipPath id="p1bffca34e9">
   <rect height="72.0" width="72.0" x="0.0" y="0.0"/>
  </clipPath>
 </defs>
</svg>
