<?xml version="1.0" encoding="utf-8" standalone="no"?>
<!DOCTYPE svg PUBLIC "-//W3C//DTD SVG 1.1//EN"
  "http://www.w3.org/Graphics/SVG/1.1/DTD/svg11.dtd">
<!-- Created with matplotlib (http://matplotlib.org/) -->
<svg height="72pt" version="1.1" viewBox="0 0 72 72" width="72pt" xmlns="http://www.w3.org/2000/svg" xmlns:xlink="http://www.w3.org/1999/xlink">
 <defs>
  <style type="text/css">
*{stroke-linecap:butt;stroke-linejoin:round;}
  </style>
 </defs>
 <g id="figure_1">
  <g id="patch_1">
   <path d="
M0 72
L72 72
L72 0
L0 0
z
" style="fill:none;"/>
  </g>
  <g id="axes_1">
   <g id="PatchCollection_1">
    <defs>
     <path d="
M36 -7.5
C43.5583 -7.5 50.808 -10.5029 56.1525 -15.8475
C61.4971 -21.192 64.5 -28.4417 64.5 -36
C64.5 -43.5583 61.4971 -50.808 56.1525 -56.1525
C50.808 -61.4971 43.5583 -64.5 36 -64.5
C28.4417 -64.5 21.192 -61.4971 15.8475 -56.1525
C10.5029 -50.808 7.5 -43.5583 7.5 -36
C7.5 -28.4417 10.5029 -21.192 15.8475 -15.8475
C21.192 -10.5029 28.4417 -7.5 36 -7.5
z
" id="C0_0_a811fe30f3"/>
     <path d="
M36.5655 -7.59936
L36.4461 -7.83172
L36.354 -8.0703
L36.2882 -8.31467
L36.2476 -8.56442
L36.2308 -8.81919
L36.2361 -9.07866
L36.262 -9.34251
L36.3065 -9.61046
L36.3681 -9.88224
L36.4449 -10.1576
L36.5354 -10.4363
L36.6378 -10.7182
L36.7508 -11.0029
L36.873 -11.2903
L37.003 -11.5802
L37.1397 -11.8723
L37.282 -12.1665
L37.4291 -12.4624
L37.5799 -12.76
L37.7338 -13.0591
L37.89 -13.3593
L38.048 -13.6606
L38.2072 -13.9628
L38.3671 -14.2656
L38.5273 -14.569
L38.6874 -14.8727
L38.8471 -15.1766
L39.0061 -15.4805
L39.1641 -15.7844
L39.321 -16.088
L39.4765 -16.3912
L39.6305 -16.694
L39.7828 -16.9962
L39.9334 -17.2977
L40.0821 -17.5985
L40.2289 -17.8983
L40.3737 -18.1973
L40.5164 -18.4952
L40.657 -18.7921
L40.7955 -19.0878
L40.9318 -19.3824
L41.066 -19.6758
L41.198 -19.9679
L41.3278 -20.2587
L41.4555 -20.5482
L41.5811 -20.8365
L41.7045 -21.1233
L41.8258 -21.4088
L41.945 -21.693
L42.0622 -21.9758
L42.1773 -22.2573
L42.2904 -22.5374
L42.4016 -22.8162
L42.5108 -23.0936
L42.6181 -23.3698
L42.7235 -23.6447
L42.8271 -23.9183
L42.9289 -24.1907
L43.0289 -24.4618
L43.1272 -24.7318
L43.2237 -25.0007
L43.3187 -25.2684
L43.4119 -25.5351
L43.5036 -25.8007
L43.5938 -26.0653
L43.6824 -26.3289
L43.7695 -26.5916
L43.8551 -26.8535
L43.9393 -27.1145
L44.0222 -27.3747
L44.1036 -27.6341
L44.1837 -27.8928
L44.2625 -28.1509
L44.3401 -28.4084
L44.4163 -28.6653
L44.4914 -28.9217
L44.5652 -29.1776
L44.6379 -29.4331
L44.7094 -29.6882
L44.7798 -29.943
L44.8491 -30.1976
L44.9173 -30.4519
L44.9844 -30.7061
L45.0505 -30.9601
L45.1155 -31.2141
L45.1796 -31.4681
L45.2426 -31.7222
L45.3047 -31.9763
L45.426 -32.2306
L45.4852 -32.4851
L45.5436 -32.7399
L45.601 -32.995
L45.6575 -33.2505
L45.7131 -33.5064
L45.7679 -33.7628
L45.8218 -34.0197
L45.8748 -34.2772
L45.9269 -34.5353
L45.9783 -34.7942
L46.0287 -35.0539
L46.0784 -35.3143
L46.1272 -35.5756
L46.1751 -35.8379
L46.2222 -36.1012
L46.2685 -36.3654
L46.314 -36.6308
L46.3586 -36.8974
L46.4024 -37.1652
L46.4453 -37.4342
L46.4874 -37.7046
L46.5286 -37.9763
L46.569 -38.2495
L46.6085 -38.5242
L46.6471 -38.8004
L46.6848 -39.0782
L46.7216 -39.3577
L46.7576 -39.6389
L46.7926 -39.9218
L46.8266 -40.2066
L46.8598 -40.4932
L46.8919 -40.7817
L46.9231 -41.0722
L46.9533 -41.3647
L46.9824 -41.6592
L47.0105 -41.9558
L47.0376 -42.2545
L47.0636 -42.5553
L47.0885 -42.8584
L47.1123 -43.1637
L47.135 -43.4712
L47.1565 -43.781
L47.1769 -44.093
L47.1961 -44.4074
L47.214 -44.7241
L47.2307 -45.0431
L47.2462 -45.3645
L47.2605 -45.6881
L47.2735 -46.014
L47.2852 -46.3422
L47.2956 -46.6727
L47.3048 -47.0053
L47.3126 -47.3401
L47.3193 -47.6771
L47.3247 -48.016
L47.3288 -48.3569
L47.3318 -48.6996
L47.3337 -49.0441
L47.3345 -49.3902
L47.3342 -49.7378
L47.3331 -50.0868
L47.3312 -50.4369
L47.3286 -50.788
L47.3255 -51.1398
L47.3221 -51.4922
L47.3185 -51.8449
L47.3151 -52.1976
L47.3122 -52.55
L47.3099 -52.9017
L47.3089 -53.2525
L47.3094 -53.6018
L47.312 -53.9492
L47.3172 -54.2943
L47.3258 -54.6366
L47.3383 -54.9755
L47.3557 -55.3104
L47.3787 -55.6406
L47.4085 -55.9655
L47.4459 -56.2842
L47.4922 -56.5961
L47.5486 -56.9002
L47.6164 -57.1956
L47.6969 -57.4815
L47.7913 -57.7569
L47.9011 -58.0207
L48.0274 -58.2721
L48.1715 -58.5099
L48.3342 -58.7334
L48.5165 -58.9415
L48.7188 -59.1335
L48.9416 -59.3086
L49.1848 -59.4662
L49.4483 -59.6057
L49.7315 -59.7268
L50.0338 -59.8292
L50.3543 -59.9127
L50.6918 -59.9773
L51.0452 -60.023
L51.5345 -60.0499
L51.9491 -59.8941
L52.3589 -59.6194
L52.7637 -59.3374
L53.1634 -59.0484
L53.5579 -58.7523
L53.947 -58.4493
L54.3306 -58.1395
L54.7087 -57.8229
L55.0811 -57.4996
L55.4476 -57.1698
L55.8083 -56.8336
L56.1629 -56.491
L56.5113 -56.1422
L56.8535 -55.7872
L57.1894 -55.4263
L57.5188 -55.0594
L57.8417 -54.6866
L58.1579 -54.3082
L58.4673 -53.9243
L58.7699 -53.5348
L59.0656 -53.1401
L59.3542 -52.7401
L59.6357 -52.335
L59.9101 -51.9249
L60.1771 -51.51
L60.4368 -51.0903
L60.689 -50.6661
L60.9337 -50.2373
L61.1709 -49.8043
L61.4003 -49.367
L61.622 -48.9257
L61.8359 -48.4804
L62.042 -48.0314
L62.2401 -47.5786
L62.4302 -47.1224
L62.6123 -46.6627
L62.7862 -46.1998
L62.952 -45.7338
L63.1096 -45.2649
L63.259 -44.7931
L63.4 -44.3186
L63.5327 -43.8416
L63.657 -43.3622
L63.7728 -42.8806
L63.8802 -42.3969
L63.9792 -41.9112
L64.0696 -41.4237
L64.1514 -40.9346
L64.2247 -40.4439
L64.2893 -39.952
L64.3454 -39.4588
L64.3928 -38.9645
L64.4316 -38.4694
L64.4617 -37.9735
L64.4831 -37.477
L64.4959 -36.98
L64.5 -36.4828
L64.4954 -35.9854
L64.4821 -35.488
L64.4602 -34.9908
L64.4296 -34.4938
L64.3903 -33.9974
L64.3423 -33.5015
L64.2858 -33.0064
L64.2206 -32.5122
L64.1468 -32.0191
L64.0645 -31.5272
L63.9736 -31.0366
L63.8742 -30.5476
L63.7663 -30.0602
L63.6499 -29.5747
L63.5251 -29.091
L63.3919 -28.6095
L63.2504 -28.1303
L63.1006 -27.6534
L62.9425 -27.1791
L62.7762 -26.7075
L62.6018 -26.2387
L62.4193 -25.7729
L62.2287 -25.3102
L62.0301 -24.8507
L61.8236 -24.3947
L61.6092 -23.9421
L61.387 -23.4933
L61.1571 -23.0482
L60.9196 -22.6072
L60.6744 -22.1701
L60.4217 -21.7373
L60.1616 -21.3089
L59.8941 -20.8849
L59.6194 -20.4655
L59.3374 -20.0509
L59.0484 -19.6411
L58.7523 -19.2363
L58.4493 -18.8366
L58.1395 -18.4421
L57.8229 -18.053
L57.4996 -17.6694
L57.1698 -17.2913
L56.8336 -16.9189
L56.491 -16.5524
L56.1422 -16.1917
L55.7872 -15.8371
L55.4263 -15.4887
L55.0594 -15.1465
L54.6866 -14.8106
L54.3082 -14.4812
L53.9243 -14.1583
L53.5348 -13.8421
L53.1401 -13.5327
L52.7401 -13.2301
L52.335 -12.9344
L51.9249 -12.6458
L51.51 -12.3643
L51.0903 -12.0899
L50.6661 -11.8229
L50.2373 -11.5632
L49.8043 -11.311
L49.367 -11.0663
L48.9257 -10.8291
L48.4804 -10.5997
L48.0314 -10.378
L47.5786 -10.1641
L47.1224 -9.95801
L46.6627 -9.7599
L46.1998 -9.56979
L45.7338 -9.38772
L45.2649 -9.21376
L44.7931 -9.04797
L44.3186 -8.89038
L43.8416 -8.74104
L43.3622 -8.60002
L42.8806 -8.46733
L42.3969 -8.34304
L41.9112 -8.22717
L41.4237 -8.11976
L40.9346 -8.02084
L40.4439 -7.93044
L39.952 -7.8486
L39.4588 -7.77533
L38.9645 -7.71066
L38.4694 -7.6546
L37.9735 -7.60718
L37.477 -7.56841
z
" id="C0_1_96e35e2006"/>
     <path d="
M20.6647 -12.0633
L20.5048 -12.4072
L20.3373 -12.7582
L20.1637 -13.1158
L19.9856 -13.4794
L19.8042 -13.8484
L19.6209 -14.2222
L19.4366 -14.6005
L19.2525 -14.9825
L19.0693 -15.3679
L18.8879 -15.7562
L18.7088 -16.1469
L18.5328 -16.5395
L18.3602 -16.9338
L18.1916 -17.3293
L18.0271 -17.7256
L17.8673 -18.1224
L17.7122 -18.5193
L17.562 -18.9162
L17.417 -19.3127
L17.2773 -19.7085
L17.1428 -20.1035
L17.0137 -20.4974
L16.8899 -20.8899
L16.7716 -21.281
L16.6586 -21.6705
L16.5509 -22.0581
L16.4485 -22.4439
L16.3514 -22.8276
L16.2594 -23.2091
L16.1724 -23.5884
L16.0905 -23.9654
L16.0134 -24.3399
L15.9411 -24.712
L15.8736 -25.0816
L15.8107 -25.4487
L15.7522 -25.8132
L15.6982 -26.175
L15.6485 -26.5343
L15.603 -26.8909
L15.5615 -27.2449
L15.5241 -27.5963
L15.4906 -27.9451
L15.4609 -28.2913
L15.435 -28.6349
L15.4126 -28.976
L15.3939 -29.3145
L15.3785 -29.6505
L15.3666 -29.9841
L15.3579 -30.3153
L15.3525 -30.6441
L15.3502 -30.9706
L15.351 -31.2947
L15.3548 -31.6167
L15.3615 -31.9364
L15.3711 -32.254
L15.3836 -32.5695
L15.3988 -32.883
L15.4168 -33.1945
L15.4374 -33.5041
L15.4607 -33.8118
L15.4865 -34.1178
L15.5149 -34.4219
L15.5458 -34.7244
L15.5792 -35.0252
L15.615 -35.3244
L15.6532 -35.6222
L15.6939 -35.9184
L15.7369 -36.2133
L15.7822 -36.5068
L15.8299 -36.7991
L15.8799 -37.0901
L15.9322 -37.3799
L15.9868 -37.6686
L16.0437 -37.9563
L16.1028 -38.243
L16.1643 -38.5288
L16.228 -38.8136
L16.294 -39.0976
L16.3623 -39.3809
L16.4328 -39.6635
L16.5057 -39.9454
L16.5809 -40.2266
L16.6584 -40.5074
L16.7383 -40.7876
L16.8205 -41.0674
L16.9051 -41.3468
L16.9921 -41.6258
L17.0815 -41.9046
L17.1734 -42.1831
L17.2678 -42.4614
L17.3647 -42.7395
L17.4642 -43.0176
L17.5662 -43.2956
L17.6709 -43.5736
L17.7782 -43.8516
L17.8882 -44.1297
L18.001 -44.4079
L18.1167 -44.6863
L18.2351 -44.9648
L18.3565 -45.2436
L18.4808 -45.5227
L18.6082 -45.8021
L18.7386 -46.0818
L18.8721 -46.3619
L19.0089 -46.6423
L19.1489 -46.9232
L19.2923 -47.2046
L19.439 -47.4864
L19.5892 -47.7687
L19.743 -48.0515
L19.9004 -48.3349
L20.0614 -48.6187
L20.2263 -48.9032
L20.395 -49.1882
L20.5676 -49.4737
L20.7442 -49.7598
L20.9249 -50.0465
L21.1098 -50.3337
L21.299 -50.6214
L21.4925 -50.9097
L21.6904 -51.1984
L21.8928 -51.4877
L22.0998 -51.7773
L22.3115 -52.0674
L22.5279 -52.3578
L22.7492 -52.6485
L22.9753 -52.9395
L23.2064 -53.2307
L23.4425 -53.522
L23.6837 -53.8134
L23.93 -54.1047
L24.1814 -54.396
L24.4381 -54.687
L24.7 -54.9778
L24.9672 -55.2681
L25.2396 -55.558
L25.5172 -55.8472
L25.8 -56.1356
L26.0879 -56.4232
L26.3809 -56.7098
L26.6789 -56.9951
L26.9818 -57.2792
L27.2893 -57.5618
L27.6013 -57.8428
L27.9177 -58.1221
L28.2381 -58.3995
L28.5622 -58.6748
L28.8896 -58.9479
L29.2201 -59.2187
L29.553 -59.487
L29.8879 -59.7527
L30.2241 -60.0158
L30.561 -60.2762
L30.8979 -60.5337
L31.2338 -60.7884
L31.5678 -61.0403
L31.8988 -61.2894
L32.2258 -61.5357
L32.5474 -61.7794
L32.8623 -62.0207
L33.1691 -62.2596
L33.4661 -62.4966
L33.7517 -62.7317
L34.0244 -62.9654
L34.2823 -63.1979
L34.5237 -63.4297
L34.7471 -63.661
L34.9508 -63.8922
L35.1335 -64.1236
L34.7933 -64.3554
L34.2965 -64.4744
L33.8003 -64.449
L33.3047 -64.415
L32.8099 -64.3723
L32.3161 -64.3209
L31.8235 -64.2609
L31.3321 -64.1923
L30.8421 -64.1151
L30.3537 -64.0294
L29.8671 -63.9351
L29.3823 -63.8323
L28.8995 -63.721
L28.4188 -63.6013
L27.9405 -63.4732
L27.4647 -63.3367
L26.9914 -63.1919
L26.5209 -63.0388
L26.0532 -62.8774
L25.5886 -62.7079
L25.1272 -62.5302
L24.6691 -62.3445
L24.2144 -62.1507
L23.7633 -61.949
L23.316 -61.7394
L22.8725 -61.5219
L22.433 -61.2966
L21.9977 -61.0637
L21.5666 -60.8231
L21.1399 -60.5749
L20.7177 -60.3193
L20.3002 -60.0562
L19.8875 -59.7858
L19.4797 -59.5082
L19.0769 -59.2234
L18.6792 -58.9316
L18.2869 -58.6327
L17.8999 -58.327
L17.5185 -58.0145
L17.1426 -57.6952
L16.7726 -57.3694
L16.4084 -57.037
L16.0501 -56.6982
L15.6979 -56.3532
L15.3519 -56.0019
L15.0122 -55.6445
L14.6789 -55.2812
L14.3521 -54.912
L14.0319 -54.537
L13.7184 -54.1563
L13.4116 -53.7702
L13.1118 -53.3786
L12.8189 -52.9817
L12.5331 -52.5797
L12.2544 -52.1726
L11.9829 -51.7606
L11.7188 -51.3438
L11.4621 -50.9223
L11.2128 -50.4962
L10.9711 -50.0658
L10.737 -49.631
L10.5107 -49.1922
L10.292 -48.7493
L10.0812 -48.3025
L9.87835 -47.8519
L9.6834 -47.3978
L9.49648 -46.9401
L9.31763 -46.4792
L9.14691 -46.015
L8.98436 -45.5479
L8.83005 -45.0777
L8.68401 -44.6049
L8.5463 -44.1294
L8.41694 -43.6514
L8.29599 -43.1711
L8.18348 -42.6886
L8.07944 -42.2041
L7.9839 -41.7177
L7.8969 -41.2296
L7.81846 -40.7398
L7.7486 -40.2486
L7.68735 -39.7561
L7.63473 -39.2625
L7.59074 -38.7679
L7.55541 -38.2724
L7.52874 -37.7763
L7.51074 -37.2796
L7.50143 -36.7825
L7.50079 -36.2852
L7.50884 -35.7877
L7.52556 -35.2904
L7.55096 -34.7933
L7.58502 -34.2965
L7.62774 -33.8003
L7.6791 -33.3047
L7.73909 -32.8099
L7.80768 -32.3161
L7.88487 -31.8235
L7.97061 -31.3321
L8.0649 -30.8421
L8.1677 -30.3537
L8.27897 -29.8671
L8.39869 -29.3823
L8.52681 -28.8995
L8.66331 -28.4188
L8.80813 -27.9405
L8.96123 -27.4647
L9.12257 -26.9914
L9.2921 -26.5209
L9.46976 -26.0532
L9.6555 -25.5886
L9.84927 -25.1272
L10.051 -24.6691
L10.2606 -24.2144
L10.4781 -23.7633
L10.7034 -23.316
L10.9363 -22.8725
L11.1769 -22.433
L11.4251 -21.9977
L11.6807 -21.5666
L11.9438 -21.1399
L12.2142 -20.7177
L12.4918 -20.3002
L12.7766 -19.8875
L13.0684 -19.4797
L13.3673 -19.0769
L13.673 -18.6792
L13.9855 -18.2869
L14.3048 -17.8999
L14.6306 -17.5185
L14.963 -17.1426
L15.3018 -16.7726
L15.6468 -16.4084
L15.9981 -16.0501
L16.3555 -15.6979
L16.7188 -15.3519
L17.088 -15.0122
L17.463 -14.6789
L17.8437 -14.3521
L18.2298 -14.0319
L18.6214 -13.7184
L19.0183 -13.4116
L19.4203 -13.1118
L19.8274 -12.8189
z
" id="C0_2_3d06d762c2"/>
    </defs>
    <g clip-path="url(#p1bffca34e9)">
     <use style="fill:#ff0000;stroke:#000000;stroke-width:2.0;" x="0.0" xlink:href="#C0_0_a811fe30f3" y="72.0"/>
    </g>
    <g clip-path="url(#p1bffca34e9)">
     <use style="fill:#ffffff;stroke:#000000;stroke-width:2.0;" x="0.0" xlink:href="#C0_1_96e35e2006" y="72.0"/>
    </g>
    <g clip-path="url(#p1bffca34e9)">
     <use style="fill:#ffffff;stroke:#000000;stroke-width:2.0;" x="0.0" xlink:href="#C0_2_3d06d762c2" y="72.0"/>
    </g>
   </g>
  </g>
 </g>
 <defs>
  <clipPath id="p1bffca34e9">
   <rect height="72.0" width="72.0" x="0.0" y="0.0"/>
  </clipPath>
 </defs>
</svg>
