<?xml version="1.0" encoding="utf-8" standalone="no"?>
<!DOCTYPE svg PUBLIC "-//W3C//DTD SVG 1.1//EN"
  "http://www.w3.org/Graphics/SVG/1.1/DTD/svg11.dtd">
<!-- Created with matplotlib (http://matplotlib.org/) -->
<svg height="72pt" version="1.1" viewBox="0 0 72 72" width="72pt" xmlns="http://www.w3.org/2000/svg" xmlns:xlink="http://www.w3.org/1999/xlink">
 <defs>
  <style type="text/css">
*{stroke-linecap:butt;stroke-linejoin:round;}
  </style>
 </defs>
 <g id="figure_1">
  <g id="patch_1">
   <path d="
M0 72
L72 72
L72 0
L0 0
z
" style="fill:none;"/>
  </g>
  <g id="axes_1">
   <g id="PatchCollection_1">
    <defs>
     <path d="
M36 -7.5
C43.5583 -7.5 50.808 -10.5029 56.1525 -15.8475
C61.4971 -21.192 64.5 -28.4417 64.5 -36
C64.5 -43.5583 61.4971 -50.808 56.1525 -56.1525
C50.808 -61.4971 43.5583 -64.5 36 -64.5
C28.4417 -64.5 21.192 -61.4971 15.8475 -56.1525
C10.5029 -50.808 7.5 -43.5583 7.5 -36
C7.5 -28.4417 10.5029 -21.192 15.8475 -15.8475
C21.192 -10.5029 28.4417 -7.5 36 -7.5
z
" id="C0_0_a811fe30f3"/>
     <path d="
M36.2554 -28.4736
L36.4515 -28.6541
L36.6466 -28.836
L36.8406 -29.0193
L37.0336 -29.204
L37.2257 -29.3902
L37.4167 -29.5779
L37.6068 -29.7671
L37.7959 -29.9578
L37.984 -30.15
L38.1712 -30.3437
L38.3574 -30.539
L38.5427 -30.7359
L38.7271 -30.9344
L38.9105 -31.1346
L39.093 -31.3364
L39.2746 -31.5398
L39.4552 -31.745
L39.6349 -31.9519
L39.8136 -32.1605
L39.9914 -32.3709
L40.1682 -32.5831
L40.344 -32.7971
L40.5188 -33.013
L40.6926 -33.2307
L40.8654 -33.4504
L41.037 -33.672
L41.2076 -33.8955
L41.3771 -34.121
L41.5454 -34.3485
L41.7126 -34.578
L41.8785 -34.8096
L42.0432 -35.0432
L42.2065 -35.279
L42.3685 -35.5168
L42.5291 -35.7568
L42.6882 -35.999
L42.8458 -36.2433
L43.0019 -36.4899
L43.1562 -36.7386
L43.3089 -36.9896
L43.4597 -37.2428
L43.6087 -37.4983
L43.7557 -37.7561
L43.9006 -38.0161
L44.0433 -38.2784
L44.1838 -38.543
L44.322 -38.8099
L44.4576 -39.0791
L44.5906 -39.3505
L44.7209 -39.6242
L44.8484 -39.9002
L44.9728 -40.1784
L45.0941 -40.4588
L45.2121 -40.7415
L45.3267 -41.0263
L45.4376 -41.3133
L45.5448 -41.6024
L45.648 -41.8935
L45.747 -42.1867
L45.8417 -42.4818
L45.9319 -42.7789
L46.0174 -43.0778
L46.0979 -43.3785
L46.1732 -43.6809
L46.2432 -43.9849
L46.3076 -44.2905
L46.3662 -44.5975
L46.4188 -44.9058
L46.465 -45.2154
L46.5048 -45.5261
L46.5378 -45.8378
L46.5638 -46.1503
L46.5826 -46.4635
L46.5939 -46.7773
L46.5975 -47.0915
L46.5933 -47.4059
L46.5809 -47.7204
L46.5602 -48.0348
L46.5309 -48.3489
L46.4929 -48.6624
L46.4459 -48.9753
L46.3899 -49.2872
L46.3246 -49.598
L46.25 -49.9074
L46.1658 -50.2153
L46.0721 -50.5213
L45.9687 -50.8253
L45.8556 -51.127
L45.7327 -51.4261
L45.6 -51.7225
L45.4576 -52.0158
L45.3055 -52.3059
L45.1437 -52.5925
L44.9723 -52.8753
L44.7914 -53.1542
L44.6012 -53.4288
L44.4018 -53.6991
L44.1934 -53.9646
L43.9761 -54.2254
L43.7502 -54.481
L43.5159 -54.7314
L43.2735 -54.9764
L43.0231 -55.2157
L42.7651 -55.4493
L42.4998 -55.6769
L42.2273 -55.8985
L41.9481 -56.1139
L41.6623 -56.3229
L41.3704 -56.5255
L41.0726 -56.7215
L40.7692 -56.911
L40.4605 -57.0937
L40.1469 -57.2697
L39.8286 -57.4389
L39.5059 -57.6012
L39.1791 -57.7566
L38.8485 -57.9051
L38.5145 -58.0467
L38.1772 -58.1814
L37.8369 -58.3091
L37.4939 -58.4298
L37.1485 -58.5437
L36.8009 -58.6507
L36.4513 -58.7508
L36.1 -58.8441
L35.7472 -58.9307
L35.393 -59.0105
L35.0378 -59.0836
L34.6817 -59.15
L34.3249 -59.2099
L33.9675 -59.2633
L33.6098 -59.3102
L33.2519 -59.3508
L32.8939 -59.385
L32.5361 -59.413
L32.1784 -59.4348
L31.8212 -59.4505
L31.4644 -59.4601
L31.1082 -59.4638
L30.7528 -59.4615
L30.3981 -59.4535
L30.0444 -59.4397
L29.6917 -59.4202
L29.3401 -59.3951
L28.9897 -59.3644
L28.6405 -59.3283
L28.2926 -59.2867
L27.9462 -59.2398
L27.6012 -59.1876
L27.2577 -59.1302
L26.9157 -59.0676
L26.5754 -58.9999
L26.2367 -58.9272
L25.8997 -58.8494
L25.5645 -58.7667
L25.2311 -58.6791
L24.8995 -58.5866
L24.5697 -58.4893
L24.2418 -58.3873
L23.9158 -58.2805
L23.5918 -58.169
L23.2697 -58.0529
L22.9496 -57.9322
L22.6315 -57.8068
L22.3155 -57.6769
L22.0015 -57.5425
L21.6896 -57.4035
L21.3798 -57.26
L21.0721 -57.1121
L20.7666 -56.9597
L20.4632 -56.8029
L20.162 -56.6416
L19.863 -56.4759
L19.5663 -56.3058
L19.2718 -56.1313
L18.9796 -55.9523
L18.6896 -55.769
L18.402 -55.5813
L18.1168 -55.3892
L17.8339 -55.1926
L17.5534 -54.9917
L17.2753 -54.7863
L16.9998 -54.5765
L16.7267 -54.3622
L16.4562 -54.1436
L16.1882 -53.9204
L15.9228 -53.6928
L15.6602 -53.4607
L15.4002 -53.2241
L15.1429 -52.9829
L14.8885 -52.7373
L14.6369 -52.487
L14.3883 -52.2322
L14.1426 -51.9728
L13.8999 -51.7088
L13.6603 -51.4402
L13.4239 -51.1669
L13.1907 -50.8889
L12.9609 -50.6063
L12.7344 -50.319
L12.5114 -50.027
L12.292 -49.7302
L12.0762 -49.4287
L11.8642 -49.1224
L11.656 -48.8114
L11.4518 -48.4957
L11.2516 -48.1751
L11.0556 -47.8498
L10.8639 -47.5197
L10.6766 -47.1849
L10.4938 -46.8454
L10.3157 -46.5011
L10.1424 -46.1521
L9.97396 -45.7984
L9.81064 -45.44
L9.65253 -45.0771
L9.4998 -44.7096
L9.35258 -44.3375
L9.21105 -43.961
L9.07535 -43.5802
L8.94565 -43.195
L8.82213 -42.8056
L8.70494 -42.412
L8.59427 -42.0144
L8.49028 -41.613
L8.39315 -41.2077
L8.30306 -40.7988
L8.22018 -40.3864
L8.14469 -39.9707
L8.07677 -39.5518
L8.01658 -39.13
L7.96432 -38.7054
L7.92014 -38.2783
L7.88421 -37.8489
L7.8567 -37.4175
L7.83776 -36.9843
L7.82755 -36.5496
L7.8262 -36.1137
L7.83386 -35.677
L7.85065 -35.2397
L7.87669 -34.8022
L7.91209 -34.3648
L7.95694 -33.928
L8.01132 -33.4921
L8.0753 -33.0576
L8.14892 -32.6248
L8.23223 -32.1942
L8.32524 -31.7661
L8.42794 -31.3412
L8.54033 -30.9197
L8.66236 -30.5023
L8.79397 -30.0893
L8.93509 -29.6812
L9.0856 -29.2785
L9.2454 -28.8816
L9.41433 -28.4911
L9.59223 -28.1073
L9.77892 -27.7308
L9.97419 -27.3619
L10.1778 -27.0012
L10.3896 -26.6489
L10.6092 -26.3055
L10.8363 -25.9713
L11.0708 -25.6468
L11.3122 -25.3321
L11.5603 -25.0277
L11.8147 -24.7337
L12.0751 -24.4505
L12.3412 -24.1781
L12.6126 -23.9168
L12.8889 -23.6667
L13.1698 -23.4279
L13.455 -23.2005
L13.7441 -22.9846
L14.0367 -22.78
L14.3326 -22.5869
L14.6313 -22.4051
L14.9327 -22.2346
L15.2363 -22.0753
L15.5418 -21.927
L15.849 -21.7896
L16.1576 -21.663
L16.4673 -21.5469
L16.7779 -21.4411
L17.089 -21.3454
L17.4006 -21.2596
L17.7124 -21.1835
L18.0241 -21.1168
L18.3355 -21.0592
L18.6466 -21.0105
L18.9571 -20.9704
L19.2669 -20.9387
L19.5758 -20.915
L19.8836 -20.8992
L20.1904 -20.891
L20.4959 -20.89
L20.8 -20.8961
L21.1027 -20.909
L21.4038 -20.9285
L21.7033 -20.9542
L22.0012 -20.986
L22.2973 -21.0237
L22.5915 -21.067
L22.8839 -21.1156
L23.1744 -21.1694
L23.463 -21.2282
L23.7496 -21.2918
L24.0341 -21.36
L24.3167 -21.4325
L24.5971 -21.5093
L24.8756 -21.5902
L25.1519 -21.6749
L25.4261 -21.7634
L25.6983 -21.8554
L25.9684 -21.9509
L26.2364 -22.0497
L26.5023 -22.1517
L26.7661 -22.2568
L27.0279 -22.3647
L27.2876 -22.4755
L27.5453 -22.589
L27.8009 -22.7052
L28.0546 -22.8238
L28.3062 -22.9449
L28.5559 -23.0683
L28.8036 -23.1939
L29.0494 -23.3218
L29.2933 -23.4517
L29.5354 -23.5837
L29.7755 -23.7177
L30.0139 -23.8536
L30.2505 -23.9913
L30.4852 -24.1309
L30.7183 -24.2722
L30.9496 -24.4152
L31.1792 -24.56
L31.4072 -24.7063
L31.6335 -24.8543
L31.8583 -25.0038
L32.0814 -25.1548
L32.303 -25.3074
L32.5231 -25.4614
L32.7417 -25.6169
L32.9589 -25.7739
L33.1746 -25.9323
L33.3889 -26.0921
L33.6018 -26.2532
L33.8133 -26.4158
L34.0236 -26.5798
L34.2325 -26.7451
L34.4401 -26.9118
L34.6465 -27.0799
L34.8517 -27.2493
L35.0557 -27.4201
L35.2585 -27.5922
L35.4601 -27.7658
L35.6606 -27.9407
L35.8599 -28.1169
z
" id="C0_1_d0982a5b3d"/>
    </defs>
    <g clip-path="url(#p1bffca34e9)">
     <use style="fill:#ff0000;stroke:#000000;stroke-width:2.0;" x="0.0" xlink:href="#C0_0_a811fe30f3" y="72.0"/>
    </g>
    <g clip-path="url(#p1bffca34e9)">
     <use style="fill:#ffffff;stroke:#000000;stroke-width:2.0;" x="0.0" xlink:href="#C0_1_d0982a5b3d" y="72.0"/>
    </g>
   </g>
  </g>
 </g>
 <defs>
  <clipPath id="p1bffca34e9">
   <rect height="72.0" width="72.0" x="0.0" y="0.0"/>
  </clipPath>
 </defs>
</svg>
