<?xml version="1.0" encoding="utf-8" standalone="no"?>
<!DOCTYPE svg PUBLIC "-//W3C//DTD SVG 1.1//EN"
  "http://www.w3.org/Graphics/SVG/1.1/DTD/svg11.dtd">
<!-- Created with matplotlib (http://matplotlib.org/) -->
<svg height="72pt" version="1.1" viewBox="0 0 72 72" width="72pt" xmlns="http://www.w3.org/2000/svg" xmlns:xlink="http://www.w3.org/1999/xlink">
 <defs>
  <style type="text/css">
*{stroke-linecap:butt;stroke-linejoin:round;}
  </style>
 </defs>
 <g id="figure_1">
  <g id="patch_1">
   <path d="
M0 72
L72 72
L72 0
L0 0
z
" style="fill:none;"/>
  </g>
  <g id="axes_1">
   <g id="PatchCollection_1">
    <defs>
     <path d="
M36 -7.5
C43.5583 -7.5 50.808 -10.5029 56.1525 -15.8475
C61.4971 -21.192 64.5 -28.4417 64.5 -36
C64.5 -43.5583 61.4971 -50.808 56.1525 -56.1525
C50.808 -61.4971 43.5583 -64.5 36 -64.5
C28.4417 -64.5 21.192 -61.4971 15.8475 -56.1525
C10.5029 -50.808 7.5 -43.5583 7.5 -36
C7.5 -28.4417 10.5029 -21.192 15.8475 -15.8475
C21.192 -10.5029 28.4417 -7.5 36 -7.5
z
" id="C0_0_a811fe30f3"/>
     <path d="
M37.2865 -7.6342
L36.985 -7.81321
L36.7049 -8.00235
L36.4468 -8.20115
L36.2109 -8.4091
L35.9974 -8.62569
L35.8062 -8.85042
L35.6368 -9.08277
L35.4889 -9.32224
L35.3619 -9.56834
L35.2548 -9.82062
L35.167 -10.0786
L35.0972 -10.3418
L35.0446 -10.6099
L35.008 -10.8825
L34.9862 -11.1591
L34.9782 -11.4395
L34.9828 -11.7232
L34.999 -12.01
L35.0257 -12.2996
L35.062 -12.5916
L35.1069 -12.8858
L35.1596 -13.1819
L35.2192 -13.4797
L35.2851 -13.779
L35.3565 -14.0794
L35.4327 -14.3809
L35.5133 -14.6832
L35.5977 -14.986
L35.6853 -15.2894
L35.7758 -15.5929
L35.8687 -15.8966
L35.9637 -16.2002
L36.0605 -16.5036
L36.1587 -16.8067
L36.2581 -17.1093
L36.3584 -17.4114
L36.4595 -17.7127
L36.5611 -18.0134
L36.663 -18.3131
L36.7652 -18.6119
L36.8674 -18.9097
L36.9696 -19.2065
L37.0715 -19.502
L37.1732 -19.7964
L37.2746 -20.0895
L37.3755 -20.3814
L37.4759 -20.6719
L37.5757 -20.9611
L37.6749 -21.2489
L37.7735 -21.5354
L37.8713 -21.8204
L37.9685 -22.104
L38.0648 -22.3862
L38.1605 -22.667
L38.2553 -22.9464
L38.3493 -23.2243
L38.4425 -23.5009
L38.5349 -23.7761
L38.6264 -24.0499
L38.7172 -24.3223
L38.8071 -24.5934
L38.8962 -24.8633
L38.9844 -25.1318
L39.0719 -25.3991
L39.1585 -25.6651
L39.2443 -25.93
L39.3294 -26.1937
L39.4137 -26.4563
L39.4972 -26.7178
L39.58 -26.9782
L39.662 -27.2376
L39.7433 -27.4961
L39.8239 -27.7536
L39.9038 -28.0102
L39.983 -28.266
L40.0615 -28.521
L40.1394 -28.7752
L40.2167 -29.0287
L40.2933 -29.2815
L40.3694 -29.5337
L40.4448 -29.7853
L40.5197 -30.0364
L40.594 -30.287
L40.6678 -30.5372
L40.741 -30.7869
L40.8138 -31.0363
L40.886 -31.2854
L40.9578 -31.5343
L41.0291 -31.783
L41.0999 -32.0315
L41.1703 -32.2799
L41.2403 -32.5283
L41.3099 -32.7766
L41.448 -33.0251
L41.5164 -33.2736
L41.5845 -33.5222
L41.6523 -33.7711
L41.7198 -34.0202
L41.787 -34.2696
L41.8538 -34.5194
L41.9204 -34.7695
L41.9867 -35.0202
L42.0528 -35.2713
L42.1186 -35.5229
L42.1841 -35.7752
L42.2495 -36.0281
L42.3146 -36.2817
L42.3796 -36.5361
L42.4443 -36.7913
L42.5089 -37.0473
L42.5733 -37.3042
L42.6376 -37.5621
L42.7017 -37.821
L42.7657 -38.0809
L42.8295 -38.3419
L42.8933 -38.6041
L42.9569 -38.8674
L43.0204 -39.132
L43.0839 -39.3978
L43.1473 -39.665
L43.2106 -39.9336
L43.2738 -40.2035
L43.337 -40.4749
L43.4002 -40.7478
L43.4633 -41.0222
L43.5264 -41.2982
L43.5895 -41.5758
L43.6526 -41.855
L43.7157 -42.1359
L43.7788 -42.4184
L43.842 -42.7027
L43.9052 -42.9887
L43.9684 -43.2764
L44.0317 -43.5659
L44.0951 -43.8572
L44.1586 -44.1503
L44.2222 -44.4452
L44.286 -44.7418
L44.3498 -45.0402
L44.4139 -45.3404
L44.4782 -45.6423
L44.5427 -45.946
L44.6074 -46.2513
L44.6725 -46.5583
L44.7379 -46.8668
L44.8037 -47.1769
L44.8698 -47.4885
L44.9365 -47.8014
L45.0037 -48.1156
L45.0715 -48.431
L45.1401 -48.7475
L45.2094 -49.0649
L45.2795 -49.3831
L45.3507 -49.7019
L45.423 -50.0211
L45.4965 -50.3406
L45.5714 -50.6602
L45.648 -50.9795
L45.7263 -51.2984
L45.8066 -51.6165
L45.8892 -51.9335
L45.9743 -52.2492
L46.0622 -52.563
L46.1533 -52.8747
L46.2479 -53.1838
L46.3465 -53.4898
L46.4494 -53.7922
L46.5572 -54.0905
L46.6704 -54.3841
L46.7896 -54.6724
L46.9153 -54.9547
L47.0482 -55.2303
L47.189 -55.4986
L47.3384 -55.7586
L47.497 -56.0096
L47.6657 -56.2508
L47.8451 -56.4814
L48.0358 -56.7003
L48.2386 -56.9069
L48.4541 -57.1001
L48.6826 -57.2792
L48.9246 -57.4433
L49.1804 -57.5917
L49.4501 -57.7238
L49.7337 -57.8388
L50.0309 -57.9362
L50.3416 -58.0156
L50.6652 -58.0768
L51.0012 -58.1193
L51.3489 -58.1432
L51.7073 -58.1483
L52.0757 -58.1347
L52.4531 -58.1026
L52.8385 -58.0521
L53.2308 -57.9835
L53.6291 -57.8972
L54.0322 -57.7935
L54.4392 -57.6728
L54.9111 -57.5355
L55.2803 -57.3219
L55.6437 -56.9886
L56.001 -56.6489
L56.3523 -56.3029
L56.6974 -55.9508
L57.0362 -55.5925
L57.3686 -55.2283
L57.6944 -54.8583
L58.0137 -54.4825
L58.3263 -54.101
L58.632 -53.7141
L58.9309 -53.3217
L59.2227 -52.9241
L59.5075 -52.5213
L59.7852 -52.1135
L60.0556 -51.7008
L60.3186 -51.2833
L60.5743 -50.8611
L60.8225 -50.4345
L61.0631 -50.0034
L61.2961 -49.568
L61.5213 -49.1286
L61.7388 -48.6851
L61.9485 -48.2377
L62.1502 -47.7867
L62.344 -47.332
L62.5298 -46.8739
L62.7075 -46.4125
L62.877 -45.9479
L63.0384 -45.4803
L63.1915 -45.0097
L63.3364 -44.5365
L63.4729 -44.0606
L63.601 -43.5823
L63.7208 -43.1017
L63.832 -42.6189
L63.9349 -42.1341
L64.0292 -41.6474
L64.1149 -41.1591
L64.1921 -40.6691
L64.2608 -40.1777
L64.3208 -39.685
L64.3721 -39.1913
L64.4149 -38.6965
L64.449 -38.2009
L64.4744 -37.7047
L64.4911 -37.2079
L64.4992 -36.7108
L64.4986 -36.2135
L64.4893 -35.716
L64.4713 -35.2187
L64.4447 -34.7216
L64.4094 -34.2249
L64.3654 -33.7288
L64.3128 -33.2333
L64.2516 -32.7387
L64.1817 -32.2451
L64.1033 -31.7526
L64.0163 -31.2614
L63.9208 -30.7716
L63.8168 -30.2835
L63.7043 -29.7971
L63.5834 -29.3125
L63.454 -28.83
L63.3163 -28.3497
L63.1703 -27.8718
L63.016 -27.3963
L62.8535 -26.9234
L62.6828 -26.4533
L62.504 -25.9861
L62.3171 -25.5219
L62.1221 -25.061
L61.9193 -24.6033
L61.7085 -24.1492
L61.4899 -23.6986
L61.2635 -23.2518
L61.0294 -22.8089
L60.7878 -22.37
L60.5385 -21.9353
L60.2818 -21.5048
L60.0177 -21.0787
L59.7463 -20.6572
L59.4676 -20.2404
L59.1818 -19.8284
L58.8889 -19.4213
L58.5891 -19.0192
L58.2824 -18.6223
L57.9689 -18.2308
L57.6487 -17.8446
L57.3219 -17.4639
L56.9886 -17.0889
L56.6489 -16.7197
L56.3029 -16.3563
L55.9508 -15.999
L55.5925 -15.6477
L55.2283 -15.3026
L54.8583 -14.9638
L54.4825 -14.6314
L54.101 -14.3056
L53.7141 -13.9863
L53.3217 -13.6737
L52.9241 -13.368
L52.5213 -13.0691
L52.1135 -12.7773
L51.7008 -12.4925
L51.2833 -12.2148
L50.8611 -11.9444
L50.4345 -11.6814
L50.0034 -11.4257
L49.568 -11.1775
L49.1286 -10.9369
L48.6851 -10.7039
L48.2377 -10.4787
L47.7867 -10.2612
L47.332 -10.0515
L46.8739 -9.84975
L46.4125 -9.65596
L45.9479 -9.4702
L45.4803 -9.29252
L45.0097 -9.12297
L44.5365 -8.96161
L44.0606 -8.80849
L43.5823 -8.66365
L43.1017 -8.52713
L42.6189 -8.39899
L42.1341 -8.27925
L41.6474 -8.16796
L41.1591 -8.06514
L40.6691 -7.97083
L40.1777 -7.88506
L39.685 -7.80786
L39.1913 -7.73924
L38.6965 -7.67923
L38.2009 -7.62785
z
" id="C0_1_d84c4f2f1b"/>
     <path d="
M17.1564 -14.624
L16.9451 -15.0136
L16.7346 -15.4073
L16.5256 -15.8044
L16.3187 -16.2048
L16.1147 -16.6079
L15.9141 -17.0135
L15.7173 -17.421
L15.5248 -17.8302
L15.3369 -18.2407
L15.154 -18.6523
L14.9763 -19.0645
L14.8039 -19.4771
L14.6372 -19.8897
L14.4762 -20.3023
L14.321 -20.7144
L14.1717 -21.1258
L14.0284 -21.5364
L13.891 -21.946
L13.7596 -22.3542
L13.6342 -22.7611
L13.5147 -23.1664
L13.4011 -23.57
L13.2933 -23.9717
L13.1913 -24.3714
L13.0949 -24.7691
L13.0042 -25.1647
L12.919 -25.5579
L12.8392 -25.9489
L12.7647 -26.3375
L12.6955 -26.7236
L12.6314 -27.1073
L12.5723 -27.4885
L12.5181 -27.8671
L12.4688 -28.2432
L12.4242 -28.6168
L12.3841 -28.9877
L12.3486 -29.3561
L12.3175 -29.7219
L12.2908 -30.0851
L12.2682 -30.4458
L12.2498 -30.804
L12.2354 -31.1597
L12.225 -31.5129
L12.2184 -31.8636
L12.2156 -32.212
L12.2166 -32.5579
L12.2212 -32.9016
L12.2293 -33.2429
L12.241 -33.5819
L12.256 -33.9188
L12.2745 -34.2535
L12.2963 -34.586
L12.3213 -34.9165
L12.3495 -35.245
L12.3809 -35.5715
L12.4154 -35.8961
L12.4529 -36.2188
L12.4935 -36.5397
L12.5371 -36.8588
L12.5836 -37.1762
L12.6331 -37.492
L12.6855 -37.8061
L12.7407 -38.1187
L12.7988 -38.4299
L12.8598 -38.7395
L12.9235 -39.0478
L12.9901 -39.3547
L13.0595 -39.6604
L13.1316 -39.9648
L13.2066 -40.2681
L13.2843 -40.5702
L13.3648 -40.8713
L13.4481 -41.1713
L13.5342 -41.4703
L13.6231 -41.7685
L13.7149 -42.0657
L13.8094 -42.3621
L13.9068 -42.6578
L14.0071 -42.9527
L14.1102 -43.2469
L14.2163 -43.5404
L14.3253 -43.8334
L14.4372 -44.1258
L14.5522 -44.4176
L14.6702 -44.709
L14.7912 -45
L14.9154 -45.2905
L15.0427 -45.5807
L15.1732 -45.8705
L15.3069 -46.16
L15.4439 -46.4493
L15.5842 -46.7383
L15.7279 -47.0271
L15.8751 -47.3157
L16.0258 -47.6042
L16.18 -47.8925
L16.3378 -48.1807
L16.4993 -48.4688
L16.6646 -48.7568
L16.8337 -49.0447
L17.0066 -49.3325
L17.1835 -49.6203
L17.3645 -49.9081
L17.5495 -50.1958
L17.7387 -50.4834
L17.9321 -50.771
L18.1299 -51.0585
L18.3321 -51.3459
L18.5388 -51.6332
L18.75 -51.9205
L18.9659 -52.2075
L19.1864 -52.4944
L19.4118 -52.7811
L19.6421 -53.0676
L19.8773 -53.3537
L20.1175 -53.6396
L20.3629 -53.925
L20.6134 -54.2101
L20.8691 -54.4946
L21.1302 -54.7785
L21.3965 -55.0618
L21.6683 -55.3443
L21.9456 -55.6261
L22.2283 -55.9069
L22.5165 -56.1867
L22.8103 -56.4654
L23.1096 -56.7429
L23.4144 -57.0191
L23.7248 -57.2939
L24.0406 -57.567
L24.3619 -57.8385
L24.6886 -58.1082
L25.0205 -58.3759
L25.3576 -58.6416
L25.6998 -58.905
L26.0469 -59.1661
L26.3986 -59.4246
L26.7548 -59.6806
L27.1153 -59.9339
L27.4797 -60.1843
L27.8476 -60.4317
L28.2188 -60.6761
L28.5928 -60.9174
L28.9691 -61.1554
L29.3473 -61.3902
L29.7266 -61.6218
L30.1066 -61.85
L30.4864 -62.0749
L30.8654 -62.2967
L31.2427 -62.5154
L31.6175 -62.731
L31.9887 -62.9438
L32.3555 -63.154
L32.7167 -63.3617
L33.0713 -63.5674
L33.418 -63.7712
L33.7558 -63.9735
L34.0835 -64.1747
L33.8991 -64.3752
L33.4034 -64.4225
L32.9085 -64.3815
L32.4145 -64.3318
L31.9216 -64.2736
L31.4299 -64.2067
L30.9397 -64.1312
L30.4509 -64.0472
L29.9639 -63.9546
L29.4787 -63.8535
L28.9955 -63.7439
L28.5144 -63.6258
L28.0357 -63.4994
L27.5593 -63.3646
L27.0855 -63.2214
L26.6144 -63.0699
L26.1462 -62.9102
L25.681 -62.7423
L25.2189 -62.5663
L24.7601 -62.3822
L24.3048 -62.19
L23.8529 -61.9898
L23.4048 -61.7818
L22.9606 -61.5658
L22.5203 -61.3421
L22.0841 -61.1107
L21.6521 -60.8716
L21.2246 -60.625
L20.8015 -60.3708
L20.383 -60.1092
L19.9693 -59.8403
L19.5605 -59.5641
L19.1567 -59.2808
L18.7581 -58.9903
L18.3646 -58.6929
L17.9766 -58.3885
L17.594 -58.0773
L17.2171 -57.7594
L16.8459 -57.4348
L16.4805 -57.1038
L16.121 -56.7663
L15.7676 -56.4224
L15.4204 -56.0724
L15.0794 -55.7162
L14.7448 -55.3541
L14.4167 -54.986
L14.0952 -54.6122
L13.7803 -54.2326
L13.4722 -53.8476
L13.171 -53.4571
L12.8767 -53.0612
L12.5895 -52.6602
L12.3094 -52.2541
L12.0365 -51.8431
L11.7709 -51.4272
L11.5127 -51.0066
L11.2619 -50.5815
L11.0187 -50.1519
L10.7831 -49.718
L10.5552 -49.28
L10.335 -48.8378
L10.1226 -48.3918
L9.91815 -47.942
L9.72162 -47.4886
L9.53309 -47.0316
L9.35263 -46.5713
L9.18028 -46.1078
L9.0161 -45.6412
L8.86015 -45.1717
L8.71245 -44.6993
L8.57308 -44.2243
L8.44205 -43.7469
L8.31942 -43.267
L8.20522 -42.785
L8.09949 -42.3008
L8.00226 -41.8148
L7.91356 -41.327
L7.83341 -40.8375
L7.76184 -40.3466
L7.69887 -39.8544
L7.64452 -39.361
L7.59882 -38.8665
L7.56176 -38.3712
L7.53336 -37.8752
L7.51364 -37.3786
L7.50259 -36.8816
L7.50022 -36.3843
L7.50654 -35.8869
L7.52153 -35.3895
L7.5452 -34.8923
L7.57754 -34.3955
L7.61853 -33.8991
L7.66817 -33.4034
L7.72644 -32.9085
L7.79333 -32.4145
L7.8688 -31.9216
L7.95284 -31.4299
L8.04543 -30.9397
L8.14653 -30.4509
L8.25612 -29.9639
L8.37416 -29.4787
L8.50061 -28.9955
L8.63544 -28.5144
L8.7786 -28.0357
L8.93006 -27.5593
L9.08976 -27.0855
L9.25766 -26.6144
L9.43371 -26.1462
L9.61785 -25.681
L9.81002 -25.2189
L10.0102 -24.7601
L10.2182 -24.3048
L10.4342 -23.8529
L10.6579 -23.4048
L10.8893 -22.9606
L11.1284 -22.5203
L11.375 -22.0841
L11.6292 -21.6521
L11.8908 -21.2246
L12.1597 -20.8015
L12.4359 -20.383
L12.7192 -19.9693
L13.0097 -19.5605
L13.3071 -19.1567
L13.6115 -18.7581
L13.9227 -18.3646
L14.2406 -17.9766
L14.5652 -17.594
L14.8962 -17.2171
L15.2337 -16.8459
L15.5776 -16.4805
L15.9276 -16.121
L16.2838 -15.7676
L16.6459 -15.4204
z
" id="C0_2_4a7cf988b3"/>
    </defs>
    <g clip-path="url(#p1bffca34e9)">
     <use style="fill:#ff0000;stroke:#000000;stroke-width:2.0;" x="0.0" xlink:href="#C0_0_a811fe30f3" y="72.0"/>
    </g>
    <g clip-path="url(#p1bffca34e9)">
     <use style="fill:#ffffff;stroke:#000000;stroke-width:2.0;" x="0.0" xlink:href="#C0_1_d84c4f2f1b" y="72.0"/>
    </g>
    <g clip-path="url(#p1bffca34e9)">
     <use style="fill:#ffffff;stroke:#000000;stroke-width:2.0;" x="0.0" xlink:href="#C0_2_4a7cf988b3" y="72.0"/>
    </g>
   </g>
  </g>
 </g>
 <defs>
  <clipPath id="p1bffca34e9">
   <rect height="72.0" width="72.0" x="0.0" y="0.0"/>
  </clipPath>
 </defs>
</svg>
