<?xml version="1.0" encoding="utf-8" standalone="no"?>
<!DOCTYPE svg PUBLIC "-//W3C//DTD SVG 1.1//EN"
  "http://www.w3.org/Graphics/SVG/1.1/DTD/svg11.dtd">
<!-- Created with matplotlib (http://matplotlib.org/) -->
<svg height="72pt" version="1.1" viewBox="0 0 72 72" width="72pt" xmlns="http://www.w3.org/2000/svg" xmlns:xlink="http://www.w3.org/1999/xlink">
 <defs>
  <style type="text/css">
*{stroke-linecap:butt;stroke-linejoin:round;}
  </style>
 </defs>
 <g id="figure_1">
  <g id="patch_1">
   <path d="
M0 72
L72 72
L72 0
L0 0
z
" style="fill:none;"/>
  </g>
  <g id="axes_1">
   <g id="PatchCollection_1">
    <defs>
     <path d="
M36 -7.5
C43.5583 -7.5 50.808 -10.5029 56.1525 -15.8475
C61.4971 -21.192 64.5 -28.4417 64.5 -36
C64.5 -43.5583 61.4971 -50.808 56.1525 -56.1525
C50.808 -61.4971 43.5583 -64.5 36 -64.5
C28.4417 -64.5 21.192 -61.4971 15.8475 -56.1525
C10.5029 -50.808 7.5 -43.5583 7.5 -36
C7.5 -28.4417 10.5029 -21.192 15.8475 -15.8475
C21.192 -10.5029 28.4417 -7.5 36 -7.5
z
" id="C0_0_a811fe30f3"/>
     <path d="
M12.6402 -52.2981
L12.9137 -52.3886
L13.1866 -52.4719
L13.4587 -52.548
L13.73 -52.6173
L14.0005 -52.6799
L14.27 -52.736
L14.5386 -52.7857
L14.8062 -52.8292
L15.0727 -52.8666
L15.3382 -52.8982
L15.6026 -52.924
L15.8659 -52.9442
L16.128 -52.9589
L16.389 -52.9684
L16.6488 -52.9726
L16.9074 -52.9718
L17.1648 -52.9661
L17.4211 -52.9556
L17.6761 -52.9404
L17.9299 -52.9206
L18.1825 -52.8963
L18.4339 -52.8676
L18.684 -52.8347
L18.933 -52.7976
L19.1808 -52.7564
L19.4273 -52.7113
L19.6727 -52.6622
L19.9168 -52.6093
L20.1598 -52.5527
L20.4017 -52.4924
L20.6423 -52.4285
L20.8818 -52.3611
L21.1202 -52.2902
L21.3574 -52.2159
L21.5935 -52.1383
L21.8284 -52.0574
L22.0623 -51.9732
L22.2951 -51.8859
L22.5268 -51.7955
L22.7574 -51.7019
L22.9869 -51.6054
L23.2154 -51.5058
L23.4429 -51.4033
L23.6693 -51.2978
L23.8946 -51.1895
L24.119 -51.0783
L24.5647 -50.9643
L24.7861 -50.8475
L25.0065 -50.728
L25.2259 -50.6057
L25.4443 -50.4807
L25.6617 -50.353
L25.8782 -50.2226
L26.0937 -50.0895
L26.3083 -49.9539
L26.5219 -49.8156
L26.7345 -49.6747
L26.9462 -49.5312
L27.1569 -49.3851
L27.3666 -49.2364
L27.5754 -49.0852
L27.7832 -48.9315
L27.9901 -48.7752
L28.1959 -48.6163
L28.4008 -48.4549
L28.6046 -48.291
L28.8075 -48.1246
L29.0093 -47.9557
L29.21 -47.7842
L29.4098 -47.6103
L29.6084 -47.4338
L29.806 -47.2548
L30.0024 -47.0733
L30.1977 -46.8893
L30.3919 -46.7028
L30.5849 -46.5138
L30.7766 -46.3223
L30.9672 -46.1283
L31.1565 -45.9318
L31.3444 -45.7328
L31.5311 -45.5314
L31.7163 -45.3274
L31.9002 -45.1209
L32.0826 -44.9119
L32.2635 -44.7004
L32.4428 -44.4865
L32.6206 -44.27
L32.7967 -44.0511
L32.9712 -43.8297
L33.1439 -43.6059
L33.3148 -43.3795
L33.4839 -43.1508
L33.651 -42.9196
L33.8161 -42.6859
L33.9793 -42.4499
L34.1402 -42.2114
L34.2991 -41.9706
L34.4556 -41.7273
L34.6098 -41.4818
L34.7616 -41.2338
L34.911 -40.9836
L35.0578 -40.7311
L35.2019 -40.4763
L35.3433 -40.2193
L35.4819 -39.9601
L35.6176 -39.6987
L35.7503 -39.4352
L35.8799 -39.1695
L36.0063 -38.9018
L36.1295 -38.6321
L36.2494 -38.3604
L36.3658 -38.0867
L36.4786 -37.8112
L36.5879 -37.5338
L36.6934 -37.2547
L36.7951 -36.9738
L36.8929 -36.6913
L36.9867 -36.4072
L37.0765 -36.1215
L37.162 -35.8344
L37.2433 -35.5458
L37.3202 -35.2559
L37.3928 -34.9648
L37.4608 -34.6725
L37.5242 -34.3791
L37.583 -34.0847
L37.637 -33.7893
L37.6863 -33.4932
L37.7307 -33.1962
L37.7701 -32.8986
L37.8047 -32.6004
L37.8341 -32.3018
L37.8586 -32.0027
L37.8779 -31.7034
L37.892 -31.4039
L37.9011 -31.1044
L37.9049 -30.8048
L37.9035 -30.5054
L37.8968 -30.2061
L37.885 -29.9073
L37.8679 -29.6088
L37.8455 -29.3109
L37.818 -29.0136
L37.7852 -28.7171
L37.7472 -28.4214
L37.7041 -28.1266
L37.6558 -27.8329
L37.6024 -27.5403
L37.5439 -27.249
L37.4804 -26.9591
L37.4119 -26.6706
L37.3385 -26.3836
L37.2603 -26.0983
L37.1772 -25.8147
L37.0893 -25.5329
L36.9968 -25.253
L36.8996 -24.9751
L36.7979 -24.6993
L36.6917 -24.4256
L36.581 -24.1542
L36.4661 -23.885
L36.3468 -23.6183
L36.2234 -23.354
L36.0959 -23.0923
L35.9644 -22.8331
L35.8289 -22.5766
L35.6895 -22.3228
L35.5464 -22.0718
L35.3995 -21.8236
L35.249 -21.5783
L35.0949 -21.3359
L34.9374 -21.0966
L34.7765 -20.8602
L34.6122 -20.627
L34.4447 -20.3968
L34.274 -20.1699
L34.1002 -19.9461
L33.9233 -19.7255
L33.7435 -19.5082
L33.5608 -19.2943
L33.3752 -19.0836
L33.1869 -18.8763
L32.9958 -18.6724
L32.8021 -18.472
L32.6058 -18.2749
L32.407 -18.0814
L32.2057 -17.8913
L32.0019 -17.7047
L31.7958 -17.5216
L31.5873 -17.3421
L31.3765 -17.1662
L31.1635 -16.9939
L30.9483 -16.8251
L30.7309 -16.66
L30.5114 -16.4986
L30.2898 -16.3408
L30.0662 -16.1866
L29.8405 -16.0362
L29.6129 -15.8895
L29.3833 -15.7465
L29.1518 -15.6073
L28.9184 -15.4718
L28.6831 -15.3401
L28.4459 -15.2123
L28.2069 -15.0882
L27.9661 -14.9681
L27.7235 -14.8517
L27.4791 -14.7393
L27.233 -14.6309
L26.9852 -14.5263
L26.7356 -14.4258
L26.4843 -14.3292
L26.2313 -14.2367
L25.9766 -14.1482
L25.7202 -14.0639
L25.4621 -13.9837
L25.2024 -13.9076
L24.9411 -13.8358
L24.6781 -13.7682
L24.4134 -13.7049
L24.1471 -13.646
L23.8792 -13.5914
L23.6097 -13.5413
L23.3386 -13.4957
L23.0659 -13.4546
L22.7915 -13.4181
L22.5156 -13.3862
L22.2381 -13.3591
L21.959 -13.3367
L21.6784 -13.3192
L21.3962 -13.3066
L21.1124 -13.2991
L20.8272 -13.2965
L20.5404 -13.2991
L20.252 -13.307
L19.9622 -13.3201
L19.6709 -13.3387
L19.3782 -13.3627
L19.084 -13.3924
L18.7884 -13.4277
L18.4914 -13.4688
L18.0999 -13.5158
L17.7156 -13.8226
L17.3368 -14.1384
L16.9638 -14.4608
L16.5965 -14.7898
L16.2351 -15.1253
L15.8798 -15.4671
L15.5306 -15.8152
L15.1876 -16.1694
L14.851 -16.5296
L14.5208 -16.8958
L14.1971 -17.2679
L13.8801 -17.6456
L13.5699 -18.0289
L13.2664 -18.4177
L12.9699 -18.8118
L12.6804 -19.2112
L12.398 -19.6157
L12.1228 -20.0251
L11.8549 -20.4395
L11.5943 -20.8586
L11.3412 -21.2823
L11.0955 -21.7104
L10.8575 -22.143
L10.6271 -22.5797
L10.4044 -23.0206
L10.1896 -23.4654
L9.98258 -23.914
L9.7835 -24.3663
L9.59241 -24.8221
L9.40937 -25.2814
L9.23443 -25.7439
L9.06763 -26.2095
L8.90905 -26.6781
L8.75871 -27.1496
L8.61667 -27.6237
L8.48298 -28.1004
L8.35766 -28.5795
L8.24077 -29.0609
L8.13233 -29.5444
L8.03238 -30.0298
L7.94095 -30.5171
L7.85807 -31.006
L7.78376 -31.4965
L7.71804 -31.9883
L7.66094 -32.4814
L7.61247 -32.9755
L7.57265 -33.4705
L7.54149 -33.9664
L7.51899 -34.4628
L7.50517 -34.9597
L7.50004 -35.4569
L7.50358 -35.9543
L7.5158 -36.4517
L7.5367 -36.949
L7.56627 -37.4459
L7.6045 -37.9425
L7.65139 -38.4384
L7.7069 -38.9336
L7.77104 -39.4279
L7.84377 -39.9212
L7.92508 -40.4132
L8.01494 -40.904
L8.11333 -41.3932
L8.22021 -41.8808
L8.33555 -42.3666
L8.45932 -42.8504
L8.59148 -43.3322
L8.73199 -43.8117
L8.8808 -44.2889
L9.03788 -44.7635
L9.20316 -45.2355
L9.37661 -45.7046
L9.55817 -46.1708
L9.74779 -46.6339
L9.9454 -47.0938
L10.1509 -47.5502
L10.3644 -48.0032
L10.5856 -48.4525
L10.8146 -48.898
L11.0512 -49.3396
L11.2955 -49.7771
L11.5472 -50.2104
L11.8064 -50.6394
L12.073 -51.0639
z
" id="C0_1_87c42db25a"/>
     <path d="
M53.6324 -58.2114
L53.7509 -57.9326
L53.8674 -57.6522
L53.9819 -57.3701
L54.0946 -57.0864
L54.2053 -56.8011
L54.3141 -56.5141
L54.4211 -56.2255
L54.5262 -55.9352
L54.6295 -55.6432
L54.7309 -55.3496
L54.8305 -55.0544
L54.9284 -54.7574
L55.0245 -54.4588
L55.1188 -54.1585
L55.2114 -53.8566
L55.3023 -53.5529
L55.3914 -53.2476
L55.4789 -52.9406
L55.5647 -52.632
L55.6488 -52.3216
L55.7313 -52.0096
L55.8121 -51.696
L55.8914 -51.3807
L55.969 -51.0637
L56.0451 -50.7452
L56.1196 -50.425
L56.1926 -50.1031
L56.264 -49.7797
L56.3339 -49.4547
L56.4024 -49.1281
L56.4694 -48.8
L56.5349 -48.4703
L56.5991 -48.1392
L56.6618 -47.8065
L56.7232 -47.4724
L56.7832 -47.1368
L56.8418 -46.7998
L56.8992 -46.4614
L56.9553 -46.1217
L57.0102 -45.7806
L57.0639 -45.4383
L57.1163 -45.0947
L57.1677 -44.75
L57.2179 -44.404
L57.267 -44.0569
L57.315 -43.7088
L57.362 -43.3596
L57.4081 -43.0094
L57.4532 -42.6582
L57.4973 -42.3062
L57.5406 -41.9533
L57.5831 -41.5997
L57.6247 -41.2453
L57.6656 -40.8902
L57.7057 -40.5346
L57.7451 -40.1783
L57.7839 -39.8216
L57.8221 -39.4644
L57.8597 -39.1069
L57.8967 -38.749
L57.9333 -38.3909
L57.9693 -38.0326
L58.0049 -37.6742
L58.0401 -37.3157
L58.0749 -36.9572
L58.1094 -36.5988
L58.1435 -36.2406
L58.1773 -35.8825
L58.2109 -35.5247
L58.2442 -35.1673
L58.2773 -34.8102
L58.3101 -34.4536
L58.3428 -34.0975
L58.3752 -33.742
L58.4075 -33.3872
L58.4395 -33.033
L58.4714 -32.6796
L58.5032 -32.3271
L58.5347 -31.9754
L58.5661 -31.6247
L58.5973 -31.2749
L58.6282 -30.9262
L58.659 -30.5786
L58.6896 -30.2322
L58.7199 -29.887
L58.7499 -29.543
L58.7797 -29.2003
L58.8091 -28.8589
L58.8382 -28.5189
L58.867 -28.1804
L58.8954 -27.8433
L58.9233 -27.5077
L58.9508 -27.1737
L58.9778 -26.8412
L59.0043 -26.5104
L59.0303 -26.1811
L59.0557 -25.8536
L59.0804 -25.5277
L59.1045 -25.2036
L59.1279 -24.8812
L59.1506 -24.5606
L59.1726 -24.2417
L59.1937 -23.9247
L59.214 -23.6095
L59.2334 -23.2961
L59.252 -22.9846
L59.2696 -22.675
L59.2862 -22.3672
L59.3018 -22.0614
L59.3164 -21.7574
L59.3299 -21.4553
L59.3423 -21.1551
L59.3536 -20.8569
L59.3637 -20.5606
L59.3727 -20.2661
L59.7852 -19.9736
L60.0556 -20.2992
L60.3186 -20.7167
L60.5743 -21.1388
L60.8225 -21.5655
L61.0631 -21.9966
L61.2961 -22.4319
L61.5213 -22.8714
L61.7388 -23.3149
L61.9485 -23.7622
L62.1502 -24.2133
L62.344 -24.668
L62.5298 -25.1261
L62.7075 -25.5875
L62.877 -26.0521
L63.0384 -26.5197
L63.1915 -26.9902
L63.3363 -27.4635
L63.4729 -27.9393
L63.601 -28.4177
L63.7207 -28.8983
L63.832 -29.3811
L63.9349 -29.8659
L64.0292 -30.3525
L64.1149 -30.8409
L64.1921 -31.3309
L64.2608 -31.8223
L64.3208 -32.3149
L64.3721 -32.8087
L64.4149 -33.3035
L64.449 -33.799
L64.4744 -34.2953
L64.4911 -34.792
L64.4992 -35.2892
L64.4986 -35.7865
L64.4893 -36.2839
L64.4713 -36.7813
L64.4447 -37.2783
L64.4094 -37.775
L64.3654 -38.2712
L64.3128 -38.7667
L64.2516 -39.2613
L64.1817 -39.7549
L64.1033 -40.2474
L64.0163 -40.7386
L63.9208 -41.2283
L63.8168 -41.7165
L63.7043 -42.2029
L63.5834 -42.6874
L63.454 -43.1699
L63.3163 -43.6502
L63.1703 -44.1282
L63.016 -44.6037
L62.8535 -45.0766
L62.6828 -45.5467
L62.504 -46.0139
L62.3171 -46.478
L62.1221 -46.939
L61.9193 -47.3966
L61.7085 -47.8508
L61.4899 -48.3013
L61.2635 -48.7482
L61.0295 -49.1911
L60.7878 -49.63
L60.5385 -50.0647
L60.2818 -50.4952
L60.0177 -50.9212
L59.7463 -51.3427
L59.4676 -51.7596
L59.1818 -52.1716
L58.889 -52.5787
L58.5891 -52.9808
L58.2824 -53.3776
L57.9689 -53.7692
L57.6487 -54.1554
L57.3219 -54.536
L56.9886 -54.911
L56.6489 -55.2803
L56.3029 -55.6436
L55.9508 -56.001
L55.5925 -56.3523
L55.2283 -56.6974
L54.8583 -57.0362
L54.4825 -57.3686
z
" id="C0_2_a62ad28df2"/>
    </defs>
    <g clip-path="url(#p1bffca34e9)">
     <use style="fill:#ff0000;stroke:#000000;stroke-width:2.0;" x="0.0" xlink:href="#C0_0_a811fe30f3" y="72.0"/>
    </g>
    <g clip-path="url(#p1bffca34e9)">
     <use style="fill:#ffffff;stroke:#000000;stroke-width:2.0;" x="0.0" xlink:href="#C0_1_87c42db25a" y="72.0"/>
    </g>
    <g clip-path="url(#p1bffca34e9)">
     <use style="fill:#ffffff;stroke:#000000;stroke-width:2.0;" x="0.0" xlink:href="#C0_2_a62ad28df2" y="72.0"/>
    </g>
   </g>
  </g>
 </g>
 <defs>
  <clipPath id="p1bffca34e9">
   <rect height="72.0" width="72.0" x="0.0" y="0.0"/>
  </clipPath>
 </defs>
</svg>
