<?xml version="1.0" encoding="utf-8" standalone="no"?>
<!DOCTYPE svg PUBLIC "-//W3C//DTD SVG 1.1//EN"
  "http://www.w3.org/Graphics/SVG/1.1/DTD/svg11.dtd">
<!-- Created with matplotlib (http://matplotlib.org/) -->
<svg height="72pt" version="1.1" viewBox="0 0 72 72" width="72pt" xmlns="http://www.w3.org/2000/svg" xmlns:xlink="http://www.w3.org/1999/xlink">
 <defs>
  <style type="text/css">
*{stroke-linecap:butt;stroke-linejoin:round;}
  </style>
 </defs>
 <g id="figure_1">
  <g id="patch_1">
   <path d="
M0 72
L72 72
L72 0
L0 0
z
" style="fill:none;"/>
  </g>
  <g id="axes_1">
   <g id="PatchCollection_1">
    <defs>
     <path d="
M36 -7.5
C43.5583 -7.5 50.808 -10.5029 56.1525 -15.8475
C61.4971 -21.192 64.5 -28.4417 64.5 -36
C64.5 -43.5583 61.4971 -50.808 56.1525 -56.1525
C50.808 -61.4971 43.5583 -64.5 36 -64.5
C28.4417 -64.5 21.192 -61.4971 15.8475 -56.1525
C10.5029 -50.808 7.5 -43.5583 7.5 -36
C7.5 -28.4417 10.5029 -21.192 15.8475 -15.8475
C21.192 -10.5029 28.4417 -7.5 36 -7.5
z
" id="C0_0_a811fe30f3"/>
     <path d="
M14.772 -54.8929
L15.0967 -54.9365
L15.4078 -54.9523
L15.7044 -54.9402
L15.9862 -54.9006
L16.2529 -54.8339
L16.5046 -54.741
L16.7416 -54.6231
L16.9645 -54.4815
L17.1742 -54.3177
L17.3715 -54.1332
L17.5576 -53.9298
L17.7335 -53.7091
L17.9005 -53.4729
L18.0594 -53.2228
L18.2115 -52.9602
L18.3576 -52.6867
L18.4988 -52.4036
L18.6357 -52.1122
L18.7691 -51.8136
L18.8996 -51.5089
L19.0278 -51.1989
L19.1543 -50.8847
L19.2793 -50.5669
L19.4033 -50.2462
L19.5265 -49.9234
L19.6492 -49.5989
L19.7717 -49.2733
L19.8941 -48.9471
L20.0164 -48.6206
L20.139 -48.2942
L20.2618 -47.9683
L20.3849 -47.6432
L20.5083 -47.3191
L20.6322 -46.9962
L20.7564 -46.6748
L20.8811 -46.3551
L21.0063 -46.0371
L21.1319 -45.7211
L21.2579 -45.4072
L21.3843 -45.0954
L21.5111 -44.7859
L21.6384 -44.4787
L21.766 -44.1739
L21.8939 -43.8716
L22.0222 -43.5717
L22.1508 -43.2744
L22.2797 -42.9796
L22.4088 -42.6873
L22.5382 -42.3976
L22.6679 -42.1104
L22.7977 -41.8258
L22.9277 -41.5436
L23.058 -41.264
L23.1884 -40.9869
L23.3189 -40.7122
L23.4496 -40.44
L23.5804 -40.1701
L23.7114 -39.9026
L23.8425 -39.6374
L23.9737 -39.3744
L24.105 -39.1137
L24.2365 -38.8552
L24.3681 -38.5988
L24.4997 -38.3445
L24.6316 -38.0922
L24.7635 -37.8419
L24.8956 -37.5935
L25.0278 -37.347
L25.1602 -37.1023
L25.2927 -36.8594
L25.4254 -36.6182
L25.5583 -36.3787
L25.6914 -36.1407
L25.8247 -35.9044
L25.9583 -35.6695
L26.092 -35.436
L26.2261 -35.204
L26.3604 -34.9733
L26.495 -34.7438
L26.6299 -34.5156
L26.7651 -34.2886
L26.9008 -34.0626
L27.0368 -33.8378
L27.1732 -33.6139
L27.31 -33.3911
L27.4473 -33.1691
L27.5851 -32.9479
L27.7233 -32.7276
L27.8621 -32.5081
L28.0015 -32.2892
L28.1415 -32.071
L28.282 -31.8534
L28.5651 -31.6363
L28.7078 -31.4197
L28.8511 -31.2036
L28.9952 -30.988
L29.1402 -30.7726
L29.2859 -30.5576
L29.4326 -30.3429
L29.5801 -30.1283
L29.7287 -29.914
L29.8781 -29.6997
L30.0287 -29.4856
L30.1802 -29.2715
L30.3329 -29.0574
L30.4867 -28.8432
L30.6417 -28.629
L30.7979 -28.4146
L30.9554 -28.2001
L31.1142 -27.9853
L31.2743 -27.7703
L31.4358 -27.555
L31.5987 -27.3394
L31.7632 -27.1234
L31.9291 -26.9069
L32.0966 -26.6901
L32.2657 -26.4728
L32.4364 -26.2549
L32.6089 -26.0365
L32.783 -25.8176
L32.959 -25.598
L33.1368 -25.3778
L33.3165 -25.1569
L33.4982 -24.9354
L33.6817 -24.7131
L33.8674 -24.4901
L34.055 -24.2663
L34.2448 -24.0417
L34.4367 -23.8164
L34.6308 -23.5902
L34.8271 -23.3632
L35.0257 -23.1353
L35.2265 -22.9066
L35.4297 -22.677
L35.6353 -22.4466
L35.8432 -22.2153
L36.0536 -21.9832
L36.2663 -21.7501
L36.4815 -21.5163
L36.6992 -21.2816
L36.9193 -21.046
L37.1419 -20.8097
L37.3669 -20.5726
L37.5943 -20.3347
L37.8242 -20.0961
L38.0564 -19.8568
L38.2909 -19.6169
L38.5276 -19.3763
L38.7665 -19.1352
L39.0076 -18.8935
L39.2505 -18.6514
L39.4954 -18.4088
L39.7419 -18.1659
L39.99 -17.9226
L40.2393 -17.6792
L40.4898 -17.4355
L40.7412 -17.1917
L40.993 -16.9478
L41.2451 -16.7039
L41.497 -16.46
L41.7482 -16.2162
L41.9984 -15.9725
L42.2469 -15.729
L42.4932 -15.4856
L42.7364 -15.2423
L42.9759 -14.9992
L43.2108 -14.7561
L43.44 -14.5131
L43.6626 -14.2699
L43.8773 -14.0266
L44.0827 -13.7829
L44.2774 -13.5386
L44.4599 -13.2935
L44.6284 -13.0474
L44.7811 -12.7998
L44.9161 -12.5506
L45.0315 -12.2993
L45.1253 -12.0456
L45.1955 -11.7892
L45.2403 -11.5297
L45.2581 -11.267
L45.2474 -11.001
L45.2072 -10.7315
L45.1365 -10.4588
L45.035 -10.183
L44.9026 -9.90463
L44.7396 -9.62424
L44.5467 -9.34252
L44.3248 -9.06028
L43.8578 -8.77842
L43.3785 -8.60465
L42.8969 -8.47169
L42.4133 -8.34711
L41.9277 -8.23095
L41.4402 -8.12325
L40.9512 -8.02405
L40.4606 -7.93336
L39.9686 -7.85123
L39.4755 -7.77767
L38.9813 -7.7127
L38.4861 -7.65636
L37.9903 -7.60864
L37.4938 -7.56958
L36.9969 -7.53917
L36.4996 -7.51744
L36.0022 -7.50438
L35.5048 -7.5
L35.0076 -7.5043
L34.5106 -7.51728
L34.0142 -7.53894
L33.5183 -7.56927
L33.0231 -7.60826
L32.5289 -7.65589
L32.0358 -7.71216
L31.5438 -7.77705
L31.0532 -7.85054
L30.5641 -7.93259
L30.0767 -8.0232
L29.5911 -8.12233
L29.1074 -8.22995
L28.6258 -8.34604
L28.1465 -8.47054
L27.6695 -8.60343
L27.1951 -8.74467
L26.7234 -8.8942
L26.2545 -9.052
L25.7886 -9.218
L25.3258 -9.39216
L24.8662 -9.57443
L24.41 -9.76475
L23.9574 -9.96305
L23.5084 -10.1693
L23.0632 -10.3834
L22.622 -10.6053
L22.1849 -10.835
L21.7519 -11.0723
L21.3233 -11.3172
L20.8992 -11.5696
L20.4796 -11.8295
L20.0648 -12.0967
L19.6549 -12.3712
L19.2499 -12.6529
L18.85 -12.9417
L18.4554 -13.2376
L18.0661 -13.5403
L17.6823 -13.8499
L17.304 -14.1663
L16.9314 -14.4893
L16.5647 -14.8189
L16.2038 -15.1549
L15.849 -15.4973
L15.5004 -15.8459
L15.1579 -16.2006
L14.8219 -16.5614
L14.4922 -16.9281
L14.1692 -17.3006
L13.8527 -17.6789
L13.5431 -18.0626
L13.2402 -18.4519
L12.9443 -18.8465
L12.6554 -19.2463
L12.3737 -19.6513
L12.0991 -20.0612
L11.8318 -20.4759
L11.5719 -20.8954
L11.3194 -21.3195
L11.0744 -21.7481
L10.837 -22.181
L10.6073 -22.6181
L10.3853 -23.0593
L10.1712 -23.5044
L9.96486 -23.9534
L9.76648 -24.406
L9.57609 -24.8621
L9.39375 -25.3217
L9.21952 -25.7844
L9.05344 -26.2503
L8.89557 -26.7192
L8.74596 -27.1909
L8.60465 -27.6653
L8.47169 -28.1422
L8.34711 -28.6215
L8.23095 -29.1031
L8.12325 -29.5867
L8.02405 -30.0723
L7.93336 -30.5598
L7.85123 -31.0488
L7.77767 -31.5394
L7.7127 -32.0314
L7.65636 -32.5245
L7.60864 -33.0187
L7.56958 -33.5139
L7.53917 -34.0097
L7.51744 -34.5062
L7.50438 -35.0031
L7.5 -35.5004
L7.5043 -35.9978
L7.51728 -36.4952
L7.53894 -36.9924
L7.56927 -37.4894
L7.60826 -37.9858
L7.65589 -38.4817
L7.71216 -38.9769
L7.77705 -39.4711
L7.85054 -39.9642
L7.93259 -40.4562
L8.0232 -40.9468
L8.12233 -41.4359
L8.22995 -41.9233
L8.34604 -42.4089
L8.47054 -42.8926
L8.60343 -43.3742
L8.74467 -43.8535
L8.8942 -44.3305
L9.052 -44.8049
L9.218 -45.2766
L9.39216 -45.7455
L9.57443 -46.2114
L9.76475 -46.6742
L9.96305 -47.1338
L10.1693 -47.59
L10.3834 -48.0426
L10.6053 -48.4916
L10.835 -48.9368
L11.0723 -49.378
L11.3172 -49.8151
L11.5696 -50.2481
L11.8295 -50.6767
L12.0967 -51.1008
L12.3712 -51.5204
L12.6529 -51.9352
L12.9417 -52.3451
L13.2376 -52.7501
L13.5403 -53.15
L13.8499 -53.5446
L14.1663 -53.9339
z
" id="C0_1_581171b17e"/>
     <path d="
M28.0172 -63.1883
L28.3941 -63.094
L28.7844 -63.0025
L29.1863 -62.9125
L29.5981 -62.8231
L30.0182 -62.7334
L30.4451 -62.6424
L30.8774 -62.5495
L31.3139 -62.4541
L31.7533 -62.3557
L32.1947 -62.2538
L32.637 -62.1482
L33.0795 -62.0385
L33.5212 -61.9246
L33.9616 -61.8063
L34.4 -61.6836
L34.8358 -61.5564
L35.2685 -61.4247
L35.6978 -61.2886
L36.1233 -61.1482
L36.5446 -61.0034
L36.9614 -60.8544
L37.3734 -60.7014
L37.7806 -60.5444
L38.1827 -60.3836
L38.5795 -60.2192
L38.971 -60.0512
L39.357 -59.8798
L39.7375 -59.7053
L40.1124 -59.5276
L40.4817 -59.347
L40.8454 -59.1636
L41.2035 -58.9776
L41.5559 -58.7891
L41.9027 -58.5981
L42.244 -58.405
L42.5797 -58.2097
L42.91 -58.0123
L43.2349 -57.8131
L43.5544 -57.6121
L43.8687 -57.4093
L44.1777 -57.2049
L44.4816 -56.9991
L44.7805 -56.7917
L45.0744 -56.583
L45.3634 -56.373
L45.6477 -56.1618
L45.9272 -55.9493
L46.2022 -55.7358
L46.4726 -55.5212
L46.7386 -55.3055
L47.0002 -55.0889
L47.2577 -54.8712
L47.5109 -54.6527
L47.7601 -54.4333
L48.0053 -54.213
L48.2466 -53.9918
L48.4841 -53.7698
L48.7179 -53.5469
L48.948 -53.3232
L49.1746 -53.0987
L49.3977 -52.8734
L49.6174 -52.6473
L49.8337 -52.4203
L50.0468 -52.1925
L50.2568 -51.9639
L50.4636 -51.7344
L50.6674 -51.504
L50.8682 -51.2728
L51.0661 -51.0406
L51.2611 -50.8075
L51.4534 -50.5735
L51.6429 -50.3385
L51.8297 -50.1025
L52.014 -49.8654
L52.1956 -49.6273
L52.3748 -49.3881
L52.5514 -49.1477
L52.7257 -48.9062
L52.8975 -48.6635
L53.067 -48.4195
L53.2342 -48.1742
L53.3992 -47.9276
L53.5619 -47.6796
L53.7224 -47.4301
L53.8807 -47.1792
L54.0369 -46.9268
L54.191 -46.6728
L54.3429 -46.4172
L54.4928 -46.1599
L54.6407 -45.9008
L54.7865 -45.64
L54.9303 -45.3773
L55.072 -45.1127
L55.2118 -44.8461
L55.3496 -44.5775
L55.4853 -44.3068
L55.6191 -44.034
L55.7508 -43.7589
L55.8806 -43.4816
L56.0084 -43.2019
L56.1341 -42.9198
L56.2578 -42.6352
L56.3794 -42.3481
L56.499 -42.0583
L56.6165 -41.7658
L56.7319 -41.4706
L56.8451 -41.1726
L56.9561 -40.8716
L57.065 -40.5676
L57.1715 -40.2606
L57.2758 -39.9505
L57.3777 -39.6372
L57.4772 -39.3206
L57.5743 -39.0007
L57.6689 -38.6774
L57.7609 -38.3506
L57.8503 -38.0203
L57.9369 -37.6863
L58.0208 -37.3487
L58.1018 -37.0073
L58.1798 -36.6622
L58.2548 -36.3132
L58.3267 -35.9603
L58.3954 -35.6034
L58.4608 -35.2425
L58.5227 -34.8776
L58.5811 -34.5086
L58.6358 -34.1355
L58.6868 -33.7583
L58.7339 -33.3769
L58.777 -32.9914
L58.816 -32.6017
L58.8507 -32.2079
L58.8811 -31.8099
L58.9069 -31.4078
L58.9282 -31.0017
L58.9447 -30.5917
L58.9564 -30.1777
L58.963 -29.7598
L58.9646 -29.3383
L58.961 -28.9131
L58.9521 -28.4845
L58.9378 -28.0526
L58.9181 -27.6177
L58.893 -27.1798
L58.8623 -26.7393
L58.8261 -26.2964
L58.7844 -25.8514
L58.7373 -25.4047
L58.6849 -24.9566
L58.6273 -24.5076
L58.5647 -24.058
L58.4974 -23.6083
L58.4257 -23.1592
L58.35 -22.7111
L58.2708 -22.2646
L58.1887 -21.8206
L58.1043 -21.3796
L58.0185 -20.9425
L57.9321 -20.5102
L57.8464 -20.0834
L57.7623 -19.6633
L57.6814 -19.2509
L57.605 -18.8471
L57.5348 -18.4531
L57.4725 -18.07
L57.4198 -17.6991
L57.7959 -17.3413
L58.1131 -17.6373
L58.4235 -18.0205
L58.7271 -18.4092
L59.0237 -18.8032
L59.3134 -19.2024
L59.5959 -19.6068
L59.8713 -20.0162
L60.1394 -20.4304
L60.4001 -20.8494
L60.6534 -21.273
L60.8992 -21.7011
L61.1374 -22.1335
L61.368 -22.5702
L61.5908 -23.0109
L61.8058 -23.4557
L62.013 -23.9042
L62.2123 -24.3564
L62.4035 -24.8122
L62.5867 -25.2713
L62.7619 -25.7338
L62.9288 -26.1993
L63.0876 -26.6679
L63.2381 -27.1393
L63.3803 -27.6134
L63.5142 -28.09
L63.6397 -28.5691
L63.7568 -29.0504
L63.8654 -29.5339
L63.9655 -30.0193
L64.0572 -30.5065
L64.1402 -30.9954
L64.2147 -31.4858
L64.2806 -31.9776
L64.3379 -32.4706
L64.3866 -32.9647
L64.4266 -33.4598
L64.4579 -33.9556
L64.4806 -34.452
L64.4946 -34.9489
L64.4999 -35.4461
L64.4966 -35.9435
L64.4846 -36.4409
L64.4638 -36.9382
L64.4345 -37.4351
L64.3964 -37.9317
L64.3497 -38.4276
L64.2944 -38.9229
L64.2304 -39.4172
L64.1579 -39.9105
L64.0768 -40.4026
L63.9871 -40.8933
L63.8889 -41.3826
L63.7822 -41.8702
L63.667 -42.356
L63.5435 -42.8399
L63.4115 -43.3217
L63.2712 -43.8013
L63.1225 -44.2785
L62.9656 -44.7532
L62.8005 -45.2252
L62.6272 -45.6945
L62.4459 -46.1607
L62.2564 -46.6239
L62.059 -47.0838
L61.8536 -47.5404
L61.6404 -47.9934
L61.4193 -48.4428
L61.1905 -48.8884
L60.954 -49.33
L60.7099 -49.7676
L60.4583 -50.201
L60.1993 -50.6301
L59.9328 -51.0547
L59.6591 -51.4748
L59.3782 -51.8901
L59.0902 -52.3006
L58.7951 -52.7061
L58.4931 -53.1066
L58.1842 -53.5018
L57.8685 -53.8917
L57.5463 -54.2761
L57.2174 -54.655
L56.8821 -55.0282
L56.5404 -55.3956
L56.1925 -55.7571
L55.8384 -56.1125
L55.4782 -56.4619
L55.1122 -56.805
L54.7403 -57.1418
L54.3627 -57.4721
L53.9795 -57.7959
L53.5908 -58.1131
L53.1968 -58.4235
L52.7976 -58.7271
L52.3932 -59.0237
L51.9838 -59.3134
L51.5696 -59.5959
L51.1506 -59.8713
L50.727 -60.1394
L50.2989 -60.4001
L49.8665 -60.6534
L49.4298 -60.8992
L48.9891 -61.1374
L48.5443 -61.368
L48.0958 -61.5908
L47.6436 -61.8058
L47.1878 -62.013
L46.7287 -62.2123
L46.2662 -62.4035
L45.8007 -62.5867
L45.3321 -62.7619
L44.8607 -62.9288
L44.3866 -63.0876
L43.91 -63.2381
L43.4309 -63.3803
L42.9496 -63.5142
L42.4661 -63.6397
L41.9807 -63.7568
L41.4935 -63.8654
L41.0046 -63.9655
L40.5142 -64.0572
L40.0224 -64.1402
L39.5294 -64.2147
L39.0353 -64.2806
L38.5402 -64.3379
L38.0444 -64.3866
L37.548 -64.4266
L37.0511 -64.4579
L36.5539 -64.4806
L36.0565 -64.4946
L35.5591 -64.4999
L35.0618 -64.4966
L34.5649 -64.4846
L34.0683 -64.4638
L33.5724 -64.4345
L33.0771 -64.3964
L32.5828 -64.3497
L32.0895 -64.2944
L31.5974 -64.2304
L31.1067 -64.1579
L30.6174 -64.0768
L30.1298 -63.9871
L29.644 -63.8889
L29.1601 -63.7822
L28.6783 -63.667
z
" id="C0_2_1081d4be01"/>
    </defs>
    <g clip-path="url(#p1bffca34e9)">
     <use style="fill:#ff0000;stroke:#000000;stroke-width:2.0;" x="0.0" xlink:href="#C0_0_a811fe30f3" y="72.0"/>
    </g>
    <g clip-path="url(#p1bffca34e9)">
     <use style="fill:#ffffff;stroke:#000000;stroke-width:2.0;" x="0.0" xlink:href="#C0_1_581171b17e" y="72.0"/>
    </g>
    <g clip-path="url(#p1bffca34e9)">
     <use style="fill:#ffffff;stroke:#000000;stroke-width:2.0;" x="0.0" xlink:href="#C0_2_1081d4be01" y="72.0"/>
    </g>
   </g>
  </g>
 </g>
 <defs>
  <clipPath id="p1bffca34e9">
   <rect height="72.0" width="72.0" x="0.0" y="0.0"/>
  </clipPath>
 </defs>
</svg>
