<?xml version="1.0" encoding="utf-8" standalone="no"?>
<!DOCTYPE svg PUBLIC "-//W3C//DTD SVG 1.1//EN"
  "http://www.w3.org/Graphics/SVG/1.1/DTD/svg11.dtd">
<!-- Created with matplotlib (http://matplotlib.org/) -->
<svg height="72pt" version="1.1" viewBox="0 0 72 72" width="72pt" xmlns="http://www.w3.org/2000/svg" xmlns:xlink="http://www.w3.org/1999/xlink">
 <defs>
  <style type="text/css">
*{stroke-linecap:butt;stroke-linejoin:round;}
  </style>
 </defs>
 <g id="figure_1">
  <g id="patch_1">
   <path d="
M0 72
L72 72
L72 0
L0 0
z
" style="fill:none;"/>
  </g>
  <g id="axes_1">
   <g id="PatchCollection_1">
    <defs>
     <path d="
M36 -7.5
C43.5583 -7.5 50.808 -10.5029 56.1525 -15.8475
C61.4971 -21.192 64.5 -28.4417 64.5 -36
C64.5 -43.5583 61.4971 -50.808 56.1525 -56.1525
C50.808 -61.4971 43.5583 -64.5 36 -64.5
C28.4417 -64.5 21.192 -61.4971 15.8475 -56.1525
C10.5029 -50.808 7.5 -43.5583 7.5 -36
C7.5 -28.4417 10.5029 -21.192 15.8475 -15.8475
C21.192 -10.5029 28.4417 -7.5 36 -7.5
z
" id="C0_0_a811fe30f3"/>
     <path d="
M46.7599 -9.75003
L46.5814 -9.91736
L46.4141 -10.093
L46.2578 -10.2765
L46.1124 -10.4677
L45.9776 -10.6662
L45.853 -10.8717
L45.7384 -11.0839
L45.6334 -11.3025
L45.5377 -11.5271
L45.4508 -11.7574
L45.3724 -11.9932
L45.302 -12.234
L45.2393 -12.4798
L45.1839 -12.73
L45.1353 -12.9845
L45.0932 -13.243
L45.0571 -13.5052
L45.0266 -13.7709
L45.0014 -14.0398
L44.9811 -14.3116
L44.9654 -14.5862
L44.9539 -14.8633
L44.9462 -15.1426
L44.9421 -15.4241
L44.9413 -15.7074
L44.9435 -15.9924
L44.9485 -16.2789
L44.9559 -16.5668
L44.9655 -16.8559
L44.9772 -17.1459
L44.9907 -17.4369
L45.0058 -17.7285
L45.0223 -18.0208
L45.0401 -18.3136
L45.0591 -18.6067
L45.079 -18.9001
L45.0997 -19.1936
L45.1212 -19.4872
L45.1433 -19.7808
L45.1658 -20.0743
L45.1888 -20.3676
L45.212 -20.6606
L45.2355 -20.9534
L45.2591 -21.2457
L45.2828 -21.5377
L45.3066 -21.8291
L45.3302 -22.1201
L45.3538 -22.4105
L45.3773 -22.7003
L45.4005 -22.9895
L45.4236 -23.2781
L45.4463 -23.566
L45.4688 -23.8533
L45.491 -24.1398
L45.5128 -24.4257
L45.5342 -24.7108
L45.5552 -24.9953
L45.5758 -25.279
L45.596 -25.562
L45.6158 -25.8443
L45.6351 -26.126
L45.6539 -26.4069
L45.6722 -26.6871
L45.69 -26.9667
L45.7074 -27.2456
L45.7242 -27.5239
L45.7406 -27.8015
L45.7564 -28.0786
L45.7717 -28.355
L45.7864 -28.6309
L45.8007 -28.9063
L45.8144 -29.1812
L45.8275 -29.4555
L45.8402 -29.7294
L45.8523 -30.0029
L45.8639 -30.276
L45.8749 -30.5487
L45.8854 -30.821
L45.8954 -31.0931
L45.9048 -31.3648
L45.9137 -31.6363
L45.9221 -31.9076
L45.9299 -32.1787
L45.9372 -32.4496
L45.944 -32.7204
L45.9502 -32.9912
L45.9559 -33.2619
L45.961 -33.5325
L45.9698 -33.8032
L45.9733 -34.0739
L45.9763 -34.3447
L45.9788 -34.6157
L45.9808 -34.8868
L45.9823 -35.1581
L45.9832 -35.4296
L45.9836 -35.7013
L45.9834 -35.9734
L45.9828 -36.2458
L45.9816 -36.5186
L45.9799 -36.7917
L45.9776 -37.0653
L45.9749 -37.3394
L45.9716 -37.6139
L45.9678 -37.889
L45.9635 -38.1646
L45.9586 -38.4408
L45.9533 -38.7177
L45.9474 -38.9952
L45.941 -39.2734
L45.9341 -39.5522
L45.9267 -39.8319
L45.9189 -40.1122
L45.9105 -40.3934
L45.9016 -40.6753
L45.8922 -40.9581
L45.8824 -41.2418
L45.8721 -41.5263
L45.8614 -41.8117
L45.8501 -42.098
L45.8385 -42.3852
L45.8264 -42.6733
L45.8139 -42.9624
L45.8011 -43.2524
L45.7878 -43.5433
L45.7742 -43.8352
L45.7603 -44.1281
L45.746 -44.4219
L45.7315 -44.7166
L45.7167 -45.0123
L45.7017 -45.3089
L45.6865 -45.6063
L45.6712 -45.9047
L45.6557 -46.2039
L45.6402 -46.5039
L45.6247 -46.8047
L45.6093 -47.1062
L45.594 -47.4085
L45.5789 -47.7114
L45.5641 -48.0149
L45.5496 -48.3189
L45.5355 -48.6234
L45.522 -48.9283
L45.5091 -49.2336
L45.4969 -49.5391
L45.4857 -49.8447
L45.4754 -50.1503
L45.4663 -50.4559
L45.4584 -50.7614
L45.4521 -51.0665
L45.4473 -51.3712
L45.4444 -51.6754
L45.4434 -51.9788
L45.4447 -52.2813
L45.4485 -52.5829
L45.4549 -52.8832
L45.4642 -53.1821
L45.4768 -53.4795
L45.4928 -53.7751
L45.5126 -54.0687
L45.5365 -54.3601
L45.5647 -54.6491
L45.5976 -54.9354
L45.6356 -55.2188
L45.6789 -55.4991
L45.7279 -55.776
L45.783 -56.0492
L45.8446 -56.3184
L45.9129 -56.5834
L45.9884 -56.8439
L46.0713 -57.0997
L46.162 -57.3503
L46.2609 -57.5956
L46.3682 -57.8352
L46.4843 -58.0688
L46.6093 -58.2962
L46.7436 -58.517
L46.8873 -58.731
L47.0406 -58.9378
L47.2037 -59.1372
L47.3767 -59.3289
L47.5596 -59.5127
L47.7525 -59.6882
L47.9553 -59.8553
L48.1681 -60.0136
L48.3908 -60.163
L48.6232 -60.3032
L48.8651 -60.434
L49.1165 -60.5553
L49.377 -60.6667
L49.6465 -60.7683
L50.1483 -60.8597
L50.5779 -60.7402
L51.0031 -60.4895
L51.4237 -60.2314
L51.8396 -59.9658
L52.2507 -59.693
L52.6568 -59.4129
L53.0579 -59.1258
L53.4537 -58.8315
L53.8443 -58.5304
L54.2294 -58.2223
L54.609 -57.9075
L54.9829 -57.586
L55.351 -57.258
L55.7132 -56.9234
L56.0694 -56.5825
L56.4195 -56.2353
L56.7634 -55.882
L57.1009 -55.5226
L57.4321 -55.1573
L57.7567 -54.7861
L58.0746 -54.4092
L58.3859 -54.0267
L58.6903 -53.6387
L58.9878 -53.2453
L59.2783 -52.8467
L59.5618 -52.4429
L59.838 -52.0341
L60.107 -51.6205
L60.3686 -51.2021
L60.6228 -50.779
L60.8696 -50.3515
L61.1087 -49.9196
L61.3402 -49.4834
L61.564 -49.0432
L61.78 -48.5989
L61.9881 -48.1509
L62.1883 -47.6991
L62.3806 -47.2438
L62.5648 -46.785
L62.7409 -46.323
L62.9088 -45.8578
L63.0686 -45.3896
L63.2201 -44.9185
L63.3634 -44.4447
L63.4983 -43.9684
L63.6248 -43.4896
L63.7429 -43.0086
L63.8526 -42.5254
L63.9537 -42.0402
L64.0464 -41.5532
L64.1305 -41.0645
L64.2061 -40.5742
L64.273 -40.0826
L64.3314 -39.5897
L64.3811 -39.0957
L64.4221 -38.6008
L64.4546 -38.1051
L64.4783 -37.6087
L64.4934 -37.1119
L64.4998 -36.6147
L64.4975 -36.1173
L64.4865 -35.6199
L64.4668 -35.1226
L64.4385 -34.6256
L64.4015 -34.129
L64.3559 -33.633
L64.3016 -33.1377
L64.2387 -32.6432
L64.1672 -32.1498
L64.0872 -31.6576
L63.9985 -31.1666
L63.9014 -30.6772
L63.7957 -30.1893
L63.6816 -29.7033
L63.559 -29.2191
L63.4281 -28.7371
L63.2888 -28.2572
L63.1411 -27.7797
L62.9853 -27.3047
L62.8211 -26.8323
L62.6489 -26.3628
L62.4685 -25.8962
L62.28 -25.4326
L62.0836 -24.9723
L61.8791 -24.5153
L61.6669 -24.0618
L61.4467 -23.612
L61.2189 -23.1659
L60.9833 -22.7238
L60.7402 -22.2857
L60.4895 -21.8517
L60.2314 -21.4221
L59.9658 -20.9969
L59.693 -20.5763
L59.4129 -20.1604
L59.1258 -19.7493
L58.8315 -19.3432
L58.5304 -18.9421
L58.2223 -18.5463
L57.9075 -18.1557
L57.586 -17.7706
L57.258 -17.391
L56.9234 -17.0171
L56.5825 -16.649
L56.2353 -16.2868
L55.882 -15.9306
L55.5226 -15.5805
L55.1573 -15.2366
L54.7861 -14.8991
L54.4092 -14.5679
L54.0267 -14.2433
L53.6387 -13.9254
L53.2453 -13.6141
L52.8467 -13.3097
L52.4429 -13.0122
L52.0341 -12.7217
L51.6205 -12.4382
L51.2021 -12.162
L50.779 -11.893
L50.3515 -11.6314
L49.9196 -11.3772
L49.4834 -11.1304
L49.0432 -10.8913
L48.5989 -10.6598
L48.1509 -10.436
L47.6991 -10.22
z
" id="C0_1_7b4c333c71"/>
     <path d="
M22.1386 -11.1722
L22.054 -11.4547
L21.9649 -11.741
L21.8717 -12.0308
L21.7749 -12.324
L21.675 -12.6204
L21.5723 -12.9197
L21.4673 -13.2218
L21.3603 -13.5264
L21.2518 -13.8335
L21.1421 -14.1428
L21.0315 -14.4541
L20.9204 -14.7673
L20.809 -15.0822
L20.6977 -15.3987
L20.5866 -15.7165
L20.476 -16.0355
L20.3661 -16.3556
L20.2572 -16.6767
L20.1493 -16.9985
L20.0428 -17.321
L19.9376 -17.644
L19.834 -17.9675
L19.7321 -18.2912
L19.6319 -18.6151
L19.5336 -18.9392
L19.4373 -19.2632
L19.343 -19.5872
L19.2508 -19.9109
L19.1608 -20.2344
L19.073 -20.5577
L18.9874 -20.8805
L18.9041 -21.2028
L18.8231 -21.5247
L18.7444 -21.846
L18.6681 -22.1667
L18.5941 -22.4867
L18.5224 -22.8061
L18.4532 -23.1248
L18.3862 -23.4427
L18.3217 -23.7599
L18.2594 -24.0762
L18.1996 -24.3918
L18.142 -24.7065
L18.0867 -25.0204
L18.0338 -25.3335
L17.9831 -25.6458
L17.9347 -25.9572
L17.8886 -26.2677
L17.8446 -26.5774
L17.8029 -26.8863
L17.7634 -27.1944
L17.726 -27.5017
L17.6908 -27.8082
L17.6577 -28.1139
L17.6268 -28.4188
L17.5979 -28.723
L17.5711 -29.0265
L17.5463 -29.3293
L17.5236 -29.6314
L17.503 -29.9328
L17.4843 -30.2336
L17.4676 -30.5338
L17.4529 -30.8335
L17.4401 -31.1325
L17.4293 -31.4311
L17.4205 -31.7292
L17.4135 -32.0268
L17.4085 -32.324
L17.4054 -32.6208
L17.4041 -32.9173
L17.4048 -33.2134
L17.4073 -33.5092
L17.4117 -33.8048
L17.4179 -34.1002
L17.4261 -34.3953
L17.436 -34.6903
L17.4479 -34.9852
L17.4616 -35.28
L17.4771 -35.5747
L17.4945 -35.8695
L17.5138 -36.1642
L17.5349 -36.459
L17.5579 -36.7539
L17.5828 -37.049
L17.6096 -37.3441
L17.6382 -37.6395
L17.6687 -37.9351
L17.7011 -38.231
L17.7355 -38.5271
L17.7717 -38.8236
L17.8099 -39.1204
L17.8501 -39.4176
L17.8921 -39.7153
L17.9362 -40.0133
L17.9822 -40.3119
L18.0303 -40.6109
L18.0803 -40.9105
L18.1324 -41.2107
L18.1866 -41.5114
L18.2428 -41.8127
L18.3011 -42.1147
L18.3614 -42.4173
L18.4239 -42.7206
L18.4886 -43.0245
L18.5553 -43.3292
L18.6243 -43.6346
L18.6954 -43.9407
L18.7688 -44.2475
L18.8443 -44.5551
L18.9221 -44.8635
L19.0021 -45.1726
L19.0844 -45.4824
L19.169 -45.7931
L19.2559 -46.1044
L19.345 -46.4166
L19.4365 -46.7294
L19.5302 -47.043
L19.6262 -47.3574
L19.7246 -47.6724
L19.8252 -47.988
L19.9282 -48.3044
L20.0334 -48.6213
L20.1409 -48.9388
L20.2506 -49.2569
L20.3625 -49.5755
L20.4766 -49.8945
L20.5928 -50.2139
L20.7111 -50.5337
L20.8314 -50.8538
L20.9537 -51.1741
L21.078 -51.4946
L21.204 -51.8152
L21.3317 -52.1358
L21.4611 -52.4563
L21.592 -52.7767
L21.7243 -53.0968
L21.8578 -53.4166
L21.9924 -53.7359
L22.1279 -54.0547
L22.2642 -54.3729
L22.401 -54.6903
L22.5381 -55.0068
L22.6753 -55.3223
L22.8124 -55.6366
L22.9491 -55.9498
L23.085 -56.2615
L23.22 -56.5718
L23.3536 -56.8803
L23.4856 -57.1871
L23.6155 -57.492
L23.743 -57.7948
L23.8678 -58.0954
L23.9894 -58.3937
L24.1074 -58.6895
L24.2214 -58.9827
L24.3309 -59.2731
L24.4356 -59.5605
L24.5349 -59.845
L24.6285 -60.1262
L24.7158 -60.4041
L24.7965 -60.6785
L24.8701 -60.9493
L24.9362 -61.2164
L24.9945 -61.4796
L25.0445 -61.7387
L25.0858 -61.9937
L24.6263 -62.2444
L24.172 -62.1322
L23.7213 -61.9297
L23.2743 -61.7193
L22.8312 -61.5011
L22.3921 -61.2751
L21.9571 -61.0414
L21.5264 -60.8001
L21.1001 -60.5513
L20.6784 -60.2949
L20.2613 -60.0312
L19.8491 -59.7601
L19.4417 -59.4818
L19.0394 -59.1964
L18.6422 -58.9039
L18.2504 -58.6044
L17.8639 -58.298
L17.483 -57.9848
L17.1077 -57.665
L16.7382 -57.3385
L16.3745 -57.0055
L16.0168 -56.6662
L15.6652 -56.3205
L15.3198 -55.9687
L14.9807 -55.6107
L14.648 -55.2468
L14.3218 -54.8771
L14.0022 -54.5015
L13.6893 -54.1204
L13.3833 -53.7337
L13.084 -53.3416
L12.7918 -52.9443
L12.5067 -52.5418
L12.2287 -52.1342
L11.9579 -51.7217
L11.6945 -51.3045
L11.4384 -50.8826
L11.1899 -50.4561
L10.9489 -50.0252
L10.7155 -49.5901
L10.4898 -49.1508
L10.272 -48.7076
L10.0619 -48.2604
L9.85974 -47.8095
L9.66555 -47.355
L9.47938 -46.8971
L9.30129 -46.4358
L9.13133 -45.9714
L8.96956 -45.5039
L8.81602 -45.0336
L8.67076 -44.5604
L8.53382 -44.0847
L8.40525 -43.6065
L8.28509 -43.126
L8.17337 -42.6433
L8.07012 -42.1586
L7.97539 -41.672
L7.88919 -41.1837
L7.81155 -40.6938
L7.7425 -40.2025
L7.68205 -39.7099
L7.63024 -39.2162
L7.58706 -38.7215
L7.55254 -38.226
L7.52668 -37.7297
L7.5095 -37.233
L7.501 -36.7359
L7.50118 -36.2386
L7.51003 -35.7411
L7.52757 -35.2438
L7.55378 -34.7467
L7.58865 -34.25
L7.63218 -33.7538
L7.68435 -33.2583
L7.74515 -32.7636
L7.81455 -32.2699
L7.89254 -31.7774
L7.97909 -31.2861
L8.07417 -30.7963
L8.17776 -30.3081
L8.28983 -29.8216
L8.41034 -29.3369
L8.53925 -28.8543
L8.67652 -28.3739
L8.82212 -27.8958
L8.976 -27.4202
L9.13811 -26.9472
L9.3084 -26.4769
L9.48682 -26.0096
L9.67332 -25.5453
L9.86784 -25.0841
L10.0703 -24.6263
L10.2807 -24.172
L10.4989 -23.7213
L10.7249 -23.2743
L10.9586 -22.8312
L11.1999 -22.3921
L11.4487 -21.9571
L11.7051 -21.5264
L11.9688 -21.1001
L12.2399 -20.6784
L12.5182 -20.2613
L12.8036 -19.8491
L13.0961 -19.4417
L13.3956 -19.0394
L13.702 -18.6422
L14.0152 -18.2504
L14.335 -17.8639
L14.6615 -17.483
L14.9945 -17.1077
L15.3338 -16.7382
L15.6795 -16.3745
L16.0313 -16.0168
L16.3893 -15.6652
L16.7532 -15.3198
L17.1229 -14.9807
L17.4985 -14.648
L17.8796 -14.3218
L18.2663 -14.0022
L18.6584 -13.6893
L19.0557 -13.3833
L19.4582 -13.084
L19.8658 -12.7918
L20.2783 -12.5067
L20.6955 -12.2287
L21.1174 -11.9579
L21.5439 -11.6945
z
" id="C0_2_89e6cf2198"/>
    </defs>
    <g clip-path="url(#p1bffca34e9)">
     <use style="fill:#ff0000;stroke:#000000;stroke-width:2.0;" x="0.0" xlink:href="#C0_0_a811fe30f3" y="72.0"/>
    </g>
    <g clip-path="url(#p1bffca34e9)">
     <use style="fill:#ffffff;stroke:#000000;stroke-width:2.0;" x="0.0" xlink:href="#C0_1_7b4c333c71" y="72.0"/>
    </g>
    <g clip-path="url(#p1bffca34e9)">
     <use style="fill:#ffffff;stroke:#000000;stroke-width:2.0;" x="0.0" xlink:href="#C0_2_89e6cf2198" y="72.0"/>
    </g>
   </g>
  </g>
 </g>
 <defs>
  <clipPath id="p1bffca34e9">
   <rect height="72.0" width="72.0" x="0.0" y="0.0"/>
  </clipPath>
 </defs>
</svg>
