<?xml version="1.0" encoding="utf-8" standalone="no"?>
<!DOCTYPE svg PUBLIC "-//W3C//DTD SVG 1.1//EN"
  "http://www.w3.org/Graphics/SVG/1.1/DTD/svg11.dtd">
<!-- Created with matplotlib (http://matplotlib.org/) -->
<svg height="72pt" version="1.1" viewBox="0 0 72 72" width="72pt" xmlns="http://www.w3.org/2000/svg" xmlns:xlink="http://www.w3.org/1999/xlink">
 <defs>
  <style type="text/css">
*{stroke-linecap:butt;stroke-linejoin:round;}
  </style>
 </defs>
 <g id="figure_1">
  <g id="patch_1">
   <path d="
M0 72
L72 72
L72 0
L0 0
z
" style="fill:none;"/>
  </g>
  <g id="axes_1">
   <g id="PatchCollection_1">
    <defs>
     <path d="
M36 -7.5
C43.5583 -7.5 50.808 -10.5029 56.1525 -15.8475
C61.4971 -21.192 64.5 -28.4417 64.5 -36
C64.5 -43.5583 61.4971 -50.808 56.1525 -56.1525
C50.808 -61.4971 43.5583 -64.5 36 -64.5
C28.4417 -64.5 21.192 -61.4971 15.8475 -56.1525
C10.5029 -50.808 7.5 -43.5583 7.5 -36
C7.5 -28.4417 10.5029 -21.192 15.8475 -15.8475
C21.192 -10.5029 28.4417 -7.5 36 -7.5
z
" id="C0_0_a811fe30f3"/>
     <path d="
M35.1927 -7.51144
L35.1975 -7.69543
L35.2015 -7.88066
L35.2047 -8.06715
L35.2072 -8.25493
L35.209 -8.44403
L35.21 -8.6345
L35.2102 -8.82635
L35.2098 -9.01962
L35.2086 -9.21436
L35.2067 -9.41059
L35.2042 -9.60834
L35.2009 -9.80767
L35.1969 -10.0086
L35.1923 -10.2112
L35.1869 -10.4154
L35.1809 -10.6214
L35.1742 -10.8291
L35.1667 -11.0387
L35.1586 -11.25
L35.1497 -11.4633
L35.1402 -11.6785
L35.1299 -11.8956
L35.1188 -12.1148
L35.1071 -12.3359
L35.0946 -12.5592
L35.0813 -12.7846
L35.0672 -13.0122
L35.0524 -13.242
L35.0368 -13.474
L35.0203 -13.7083
L35.003 -13.945
L34.9848 -14.184
L34.9657 -14.4254
L34.9458 -14.6693
L34.9248 -14.9156
L34.903 -15.1644
L34.8801 -15.4157
L34.8563 -15.6696
L34.8313 -15.9261
L34.8053 -16.1852
L34.7782 -16.447
L34.7499 -16.7113
L34.7204 -16.9784
L34.6897 -17.248
L34.6576 -17.5204
L34.6242 -17.7954
L34.5894 -18.0732
L34.5532 -18.3535
L34.5154 -18.6365
L34.4761 -18.9222
L34.4351 -19.2104
L34.3924 -19.5012
L34.3479 -19.7945
L34.3015 -20.0902
L34.2532 -20.3884
L34.2027 -20.6888
L34.1502 -20.9916
L34.0954 -21.2964
L34.0382 -21.6034
L33.9785 -21.9123
L33.9162 -22.223
L33.8512 -22.5353
L33.7833 -22.8492
L33.7124 -23.1644
L33.6383 -23.4809
L33.5608 -23.7983
L33.4799 -24.1164
L33.3953 -24.4351
L33.3068 -24.7541
L33.2143 -25.0732
L33.1175 -25.392
L33.0162 -25.7103
L32.9103 -26.0278
L32.7995 -26.3442
L32.6836 -26.6592
L32.5623 -26.9724
L32.4355 -27.2835
L32.3029 -27.5922
L32.1644 -27.898
L32.0196 -28.2007
L31.8685 -28.4999
L31.7108 -28.7953
L31.5464 -29.0866
L31.3751 -29.3733
L31.1969 -29.6553
L31.0115 -29.9322
L30.8191 -30.2038
L30.6195 -30.4699
L30.4127 -30.7302
L30.1989 -30.9846
L29.9781 -31.233
L29.7504 -31.4752
L29.5159 -31.7111
L29.275 -31.9408
L29.0277 -32.1642
L28.7745 -32.3814
L28.5155 -32.5923
L28.2511 -32.7971
L27.9816 -32.9958
L27.7074 -33.1886
L27.4287 -33.3755
L27.1461 -33.5568
L26.8599 -33.7326
L26.5704 -33.9031
L26.278 -34.0683
L25.9831 -34.2285
L25.686 -34.3839
L25.3871 -34.5346
L25.0868 -34.6808
L24.7853 -34.8227
L24.483 -34.9603
L24.1801 -35.094
L23.877 -35.2238
L23.5738 -35.3498
L23.271 -35.4723
L22.9686 -35.5914
L22.6669 -35.7071
L22.3661 -35.8197
L22.0664 -35.9291
L21.768 -36.0357
L21.471 -36.1394
L21.1755 -36.2403
L20.8818 -36.3386
L20.5898 -36.4344
L20.2998 -36.5277
L20.0118 -36.6186
L19.7258 -36.7073
L19.442 -36.7937
L19.1605 -36.878
L18.8812 -36.9602
L18.6043 -37.0404
L18.3297 -37.1187
L18.0575 -37.195
L17.7877 -37.2696
L17.5204 -37.3424
L17.2555 -37.4135
L16.9931 -37.4829
L16.7332 -37.5506
L16.4757 -37.6168
L16.2206 -37.6815
L15.968 -37.7447
L15.7178 -37.8064
L15.47 -37.8667
L15.2246 -37.9257
L14.9815 -37.9833
L14.7408 -38.0396
L14.5024 -38.0946
L14.2663 -38.1483
L14.0324 -38.2008
L13.8008 -38.2522
L13.5713 -38.3023
L13.344 -38.3514
L13.1187 -38.3993
L12.8956 -38.4461
L12.6745 -38.4918
L12.4553 -38.5364
L12.2382 -38.58
L12.0229 -38.6226
L11.8095 -38.6642
L11.598 -38.7047
L11.3883 -38.7443
L11.1803 -38.7829
L10.974 -38.8205
L10.7694 -38.8572
L10.5665 -38.893
L10.3652 -38.9278
L10.1654 -38.9617
L9.96716 -38.9946
L9.7704 -39.0267
L9.57509 -39.0578
L9.38119 -39.088
L9.18867 -39.1173
L8.99748 -39.1457
L8.80761 -39.1731
L8.619 -39.1997
L8.43163 -39.2253
L8.24546 -39.25
L8.06046 -39.2737
L7.8766 -39.2965
L7.64024 -38.8239
L7.59528 -38.3285
L7.55897 -37.8324
L7.53132 -37.3357
L7.51234 -36.8387
L7.50204 -36.3414
L7.50043 -35.844
L7.50749 -35.3466
L7.52323 -34.8495
L7.54765 -34.3526
L7.58073 -33.8563
L7.62247 -33.3607
L7.67286 -32.8658
L7.73187 -32.3719
L7.7995 -31.8791
L7.87571 -31.3876
L7.96049 -30.8975
L8.05381 -30.4089
L8.15565 -29.922
L8.26597 -29.437
L8.38473 -28.9539
L8.51191 -28.4731
L8.64746 -27.9945
L8.79134 -27.5183
L8.94351 -27.0448
L9.10392 -26.5739
L9.27252 -26.106
L9.44927 -25.641
L9.6341 -25.1792
L9.82697 -24.7207
L10.0278 -24.2656
L10.2366 -23.8142
L10.4531 -23.3664
L10.6775 -22.9224
L10.9096 -22.4825
L11.1494 -22.0467
L11.3967 -21.6151
L11.6515 -21.1879
L11.9137 -20.7652
L12.1832 -20.3472
L12.46 -19.9339
L12.744 -19.5255
L13.0351 -19.1221
L13.3331 -18.7239
L13.6381 -18.331
L13.9499 -17.9434
L14.2683 -17.5613
L14.5935 -17.1848
L14.9251 -16.8141
L15.2631 -16.4492
L15.6075 -16.0903
L15.9581 -15.7374
L16.3148 -15.3907
L16.6774 -15.0503
L17.046 -14.7163
L17.4203 -14.3887
L17.8003 -14.0678
L18.1859 -13.7535
L18.5769 -13.446
L18.9731 -13.1453
L19.3746 -12.8517
L19.7811 -12.565
L20.1926 -12.2855
L20.6089 -12.0133
L21.0298 -11.7483
L21.4554 -11.4907
L21.8853 -11.2406
L22.3196 -10.9981
L22.758 -10.7631
L23.2005 -10.5359
L23.6468 -10.3164
L24.097 -10.1047
L24.5507 -9.90089
L25.0079 -9.70504
L25.4685 -9.51721
L25.9323 -9.33744
L26.3992 -9.1658
L26.869 -9.00233
L27.3415 -8.84708
L27.8167 -8.70011
L28.2944 -8.56145
L28.7745 -8.43115
L29.2567 -8.30924
L29.741 -8.19577
L30.2272 -8.09077
L30.7152 -7.99427
L31.2048 -7.90631
L31.6958 -7.8269
L32.1881 -7.75607
L32.6816 -7.69384
L33.1761 -7.64024
L33.6715 -7.59528
L34.1676 -7.55897
L34.6643 -7.53132
z
" id="C0_1_3373d4d707"/>
     <path d="
M64.1234 -32.7035
L63.9395 -32.7263
L63.7545 -32.75
L63.5684 -32.7747
L63.381 -32.8003
L63.1924 -32.8269
L63.0025 -32.8543
L62.8113 -32.8827
L62.6188 -32.912
L62.4249 -32.9422
L62.2296 -32.9733
L62.0328 -33.0054
L61.8346 -33.0383
L61.6348 -33.0722
L61.4335 -33.107
L61.2306 -33.1428
L61.026 -33.1795
L60.8197 -33.2171
L60.6117 -33.2557
L60.402 -33.2953
L60.1905 -33.3358
L59.9771 -33.3774
L59.7618 -33.42
L59.5447 -33.4636
L59.3255 -33.5082
L59.1044 -33.5539
L58.8813 -33.6007
L58.656 -33.6486
L58.4287 -33.6977
L58.1992 -33.7478
L57.9676 -33.7992
L57.7337 -33.8517
L57.4976 -33.9054
L57.2592 -33.9604
L57.0185 -34.0167
L56.7754 -34.0743
L56.53 -34.1333
L56.2822 -34.1936
L56.032 -34.2553
L55.7794 -34.3185
L55.5243 -34.3832
L55.2668 -34.4494
L55.0069 -34.5171
L54.7445 -34.5865
L54.4796 -34.6576
L54.2123 -34.7304
L53.9425 -34.805
L53.6703 -34.8813
L53.3957 -34.9596
L53.1188 -35.0398
L52.8395 -35.122
L52.558 -35.2063
L52.2742 -35.2927
L51.9882 -35.3814
L51.7002 -35.4723
L51.4102 -35.5656
L51.1182 -35.6614
L50.8245 -35.7597
L50.529 -35.8606
L50.232 -35.9643
L49.9336 -36.0709
L49.6339 -36.1803
L49.3331 -36.2929
L49.0314 -36.4086
L48.729 -36.5277
L48.4262 -36.6502
L48.123 -36.7762
L47.8199 -36.906
L47.517 -37.0397
L47.2147 -37.1773
L46.9132 -37.3192
L46.6129 -37.4654
L46.314 -37.6161
L46.0169 -37.7715
L45.722 -37.9317
L45.4296 -38.0969
L45.1401 -38.2674
L44.8539 -38.4432
L44.5713 -38.6245
L44.2926 -38.8114
L44.0184 -39.0042
L43.7489 -39.2029
L43.4845 -39.4077
L43.2255 -39.6186
L42.9723 -39.8358
L42.725 -40.0592
L42.4841 -40.2889
L42.2496 -40.5248
L42.0219 -40.767
L41.8011 -41.0154
L41.5873 -41.2698
L41.3805 -41.5301
L41.1809 -41.7962
L40.9885 -42.0678
L40.8031 -42.3447
L40.6249 -42.6267
L40.4536 -42.9134
L40.2892 -43.2047
L40.1315 -43.5001
L39.9804 -43.7993
L39.8356 -44.102
L39.6971 -44.4078
L39.5645 -44.7165
L39.4377 -45.0276
L39.3164 -45.3408
L39.2005 -45.6558
L39.0897 -45.9722
L38.9838 -46.2897
L38.8825 -46.608
L38.7857 -46.9268
L38.6932 -47.2459
L38.6047 -47.5649
L38.5201 -47.8836
L38.4392 -48.2017
L38.3617 -48.5191
L38.2876 -48.8356
L38.2167 -49.1508
L38.1488 -49.4647
L38.0838 -49.777
L38.0215 -50.0877
L37.9618 -50.3966
L37.9046 -50.7036
L37.8498 -51.0084
L37.7973 -51.3112
L37.7468 -51.6116
L37.6985 -51.9098
L37.6521 -52.2055
L37.6076 -52.4988
L37.5649 -52.7896
L37.5239 -53.0778
L37.4846 -53.3635
L37.4468 -53.6465
L37.4106 -53.9268
L37.3758 -54.2046
L37.3424 -54.4796
L37.3103 -54.752
L37.2796 -55.0216
L37.2501 -55.2887
L37.2218 -55.553
L37.1947 -55.8148
L37.1687 -56.0739
L37.1437 -56.3304
L37.1199 -56.5843
L37.097 -56.8356
L37.0752 -57.0844
L37.0542 -57.3307
L37.0343 -57.5746
L37.0152 -57.816
L36.997 -58.055
L36.9797 -58.2917
L36.9632 -58.526
L36.9476 -58.758
L36.9328 -58.9878
L36.9187 -59.2154
L36.9054 -59.4408
L36.8929 -59.6641
L36.8812 -59.8852
L36.8701 -60.1044
L36.8598 -60.3215
L36.8503 -60.5367
L36.8414 -60.75
L36.8333 -60.9613
L36.8258 -61.1709
L36.8191 -61.3786
L36.8131 -61.5846
L36.8077 -61.7888
L36.8031 -61.9914
L36.7991 -62.1923
L36.7958 -62.3917
L36.7933 -62.5894
L36.7914 -62.7856
L36.7902 -62.9804
L36.7898 -63.1737
L36.79 -63.3655
L36.791 -63.556
L36.7928 -63.7451
L36.7953 -63.9329
L36.7985 -64.1193
L37.3048 -64.3046
L37.8015 -64.4701
L38.2976 -64.443
L38.793 -64.4072
L39.2876 -64.3628
L39.7812 -64.3097
L40.2736 -64.2481
L40.7647 -64.1778
L41.2544 -64.0989
L41.7424 -64.0115
L42.2288 -63.9155
L42.7132 -63.811
L43.1955 -63.6981
L43.6757 -63.5767
L44.1536 -63.4469
L44.6289 -63.3088
L45.1017 -63.1623
L45.5716 -63.0076
L46.0387 -62.8446
L46.5027 -62.6735
L46.9635 -62.4942
L47.4209 -62.3069
L47.8749 -62.1115
L48.3252 -61.9082
L48.7718 -61.6971
L49.2145 -61.478
L49.6532 -61.2513
L50.0877 -61.0168
L50.518 -60.7747
L50.9438 -60.5251
L51.365 -60.268
L51.7816 -60.0034
L52.1934 -59.7316
L52.6002 -59.4526
L53.002 -59.1664
L53.3986 -58.8732
L53.7899 -58.573
L54.1758 -58.2659
L54.5561 -57.952
L54.9308 -57.6314
L55.2998 -57.3043
L55.6628 -56.9707
L56.0199 -56.6307
L56.3708 -56.2843
L56.7156 -55.9319
L57.054 -55.5733
L57.3861 -55.2088
L57.7116 -54.8384
L58.0305 -54.4623
L58.3427 -54.0806
L58.6481 -53.6933
L58.9466 -53.3007
L59.2381 -52.9028
L59.5225 -52.4998
L59.7997 -52.0917
L60.0698 -51.6787
L60.3324 -51.261
L60.5877 -50.8386
L60.8355 -50.4116
L61.0757 -49.9803
L61.3082 -49.5448
L61.5331 -49.1051
L61.7502 -48.6614
L61.9594 -48.2138
L62.1608 -47.7626
L62.3541 -47.3077
L62.5395 -46.8495
L62.7167 -46.3879
L62.8858 -45.9231
L63.0467 -45.4553
L63.1994 -44.9847
L63.3438 -44.5113
L63.4799 -44.0353
L63.6076 -43.5568
L63.7269 -43.0761
L63.8377 -42.5932
L63.9401 -42.1083
L64.0339 -41.6215
L64.1193 -41.133
L64.196 -40.643
L64.2642 -40.1515
L64.3237 -39.6588
L64.3746 -39.165
L64.4169 -38.6702
L64.4505 -38.1746
L64.4755 -37.6783
L64.4918 -37.1815
L64.4994 -36.6844
L64.4983 -36.187
L64.4886 -35.6896
L64.4701 -35.1923
L64.443 -34.6952
L64.4072 -34.1985
L64.3628 -33.7024
z
" id="C0_2_a10c94576c"/>
    </defs>
    <g clip-path="url(#p1bffca34e9)">
     <use style="fill:#ffffff;stroke:#000000;stroke-width:2.0;" x="0.0" xlink:href="#C0_0_a811fe30f3" y="72.0"/>
    </g>
    <g clip-path="url(#p1bffca34e9)">
     <use style="fill:#ff0000;stroke:#000000;stroke-width:2.0;" x="0.0" xlink:href="#C0_1_3373d4d707" y="72.0"/>
    </g>
    <g clip-path="url(#p1bffca34e9)">
     <use style="fill:#ff0000;stroke:#000000;stroke-width:2.0;" x="0.0" xlink:href="#C0_2_a10c94576c" y="72.0"/>
    </g>
   </g>
  </g>
 </g>
 <defs>
  <clipPath id="p1bffca34e9">
   <rect height="72.0" width="72.0" x="0.0" y="0.0"/>
  </clipPath>
 </defs>
</svg>
