<?xml version="1.0" encoding="utf-8" standalone="no"?>
<!DOCTYPE svg PUBLIC "-//W3C//DTD SVG 1.1//EN"
  "http://www.w3.org/Graphics/SVG/1.1/DTD/svg11.dtd">
<!-- Created with matplotlib (http://matplotlib.org/) -->
<svg height="72pt" version="1.1" viewBox="0 0 72 72" width="72pt" xmlns="http://www.w3.org/2000/svg" xmlns:xlink="http://www.w3.org/1999/xlink">
 <defs>
  <style type="text/css">
*{stroke-linecap:butt;stroke-linejoin:round;}
  </style>
 </defs>
 <g id="figure_1">
  <g id="patch_1">
   <path d="
M0 72
L72 72
L72 0
L0 0
z
" style="fill:none;"/>
  </g>
  <g id="axes_1">
   <g id="PatchCollection_1">
    <defs>
     <path d="
M36 -7.5
C43.5583 -7.5 50.808 -10.5029 56.1525 -15.8475
C61.4971 -21.192 64.5 -28.4417 64.5 -36
C64.5 -43.5583 61.4971 -50.808 56.1525 -56.1525
C50.808 -61.4971 43.5583 -64.5 36 -64.5
C28.4417 -64.5 21.192 -61.4971 15.8475 -56.1525
C10.5029 -50.808 7.5 -43.5583 7.5 -36
C7.5 -28.4417 10.5029 -21.192 15.8475 -15.8475
C21.192 -10.5029 28.4417 -7.5 36 -7.5
z
" id="C0_0_a811fe30f3"/>
     <path d="
M39.4036 -20.4929
L39.674 -20.5535
L39.9439 -20.6163
L40.2135 -20.6814
L40.4827 -20.7487
L40.7516 -20.8184
L41.0202 -20.8904
L41.2886 -20.9648
L41.5568 -21.0415
L41.8249 -21.1207
L42.0929 -21.2023
L42.3608 -21.2864
L42.6287 -21.373
L42.8966 -21.4621
L43.1646 -21.5538
L43.4327 -21.6482
L43.7009 -21.7452
L43.9692 -21.8449
L44.2378 -21.9474
L44.5065 -22.0528
L44.7755 -22.161
L45.0448 -22.2721
L45.3143 -22.3862
L45.5842 -22.5034
L45.8544 -22.6237
L46.125 -22.7472
L46.3959 -22.8739
L46.6672 -23.004
L46.9389 -23.1374
L47.211 -23.2744
L47.4834 -23.4149
L47.7563 -23.5591
L48.0296 -23.7069
L48.3032 -23.8586
L48.5772 -24.0142
L48.8515 -24.1738
L49.1262 -24.3375
L49.4011 -24.5054
L49.6763 -24.6776
L49.9517 -24.8542
L50.2273 -25.0353
L50.503 -25.221
L50.7788 -25.4113
L51.0545 -25.6066
L51.3301 -25.8067
L51.6056 -26.0119
L51.8808 -26.2222
L52.1555 -26.4378
L52.4298 -26.6587
L52.7035 -26.8851
L52.9763 -27.1172
L53.2483 -27.3549
L53.5191 -27.5984
L53.7887 -27.8479
L54.0568 -28.1034
L54.3233 -28.365
L54.5879 -28.6328
L54.8503 -28.9069
L55.1103 -29.1873
L55.3676 -29.4743
L55.622 -29.7677
L55.873 -30.0678
L56.1204 -30.3744
L56.3638 -30.6877
L56.6029 -31.0078
L56.8371 -31.3345
L57.066 -31.6678
L57.2893 -32.0079
L57.5063 -32.3545
L57.7166 -32.7076
L57.9197 -33.0672
L58.1149 -33.4331
L58.3017 -33.8052
L58.4794 -34.1832
L58.6473 -34.5669
L58.8048 -34.9562
L58.9512 -35.3506
L59.0857 -35.7499
L59.2076 -36.1536
L59.3161 -36.5614
L59.4104 -36.9727
L59.4899 -37.387
L59.5538 -37.8038
L59.6013 -38.2224
L59.6319 -38.6421
L59.6449 -39.0622
L59.6399 -39.4821
L59.6163 -39.9009
L59.574 -40.3178
L59.5127 -40.7321
L59.4325 -41.1431
L59.3333 -41.5498
L59.2154 -41.9517
L59.0792 -42.3481
L58.9252 -42.7382
L58.7539 -43.1216
L58.5662 -43.4977
L58.3626 -43.866
L58.1442 -44.2262
L57.9116 -44.5779
L57.6659 -44.9209
L57.408 -45.2549
L57.1387 -45.5797
L56.8589 -45.8953
L56.5696 -46.2016
L56.2715 -46.4984
L55.9654 -46.7859
L55.6522 -47.0641
L55.3325 -47.3329
L55.0071 -47.5926
L54.6766 -47.8431
L54.3416 -48.0846
L54.0027 -48.3172
L53.6605 -48.541
L53.3153 -48.7563
L52.9678 -48.9632
L52.6183 -49.1617
L52.2673 -49.3522
L51.915 -49.5348
L51.5619 -49.7097
L51.2083 -49.877
L50.8544 -50.037
L50.5006 -50.1897
L50.147 -50.3355
L49.7939 -50.4745
L49.4415 -50.6069
L49.09 -50.7329
L48.7395 -50.8526
L48.3903 -50.9662
L48.0423 -51.0739
L47.6958 -51.1759
L47.3508 -51.2724
L47.0075 -51.3634
L46.6659 -51.4491
L46.3261 -51.5298
L45.9881 -51.6056
L45.6521 -51.6765
L45.318 -51.7428
L44.9858 -51.8046
L44.6557 -51.862
L44.3276 -51.9152
L44.0015 -51.9642
L43.6774 -52.0092
L43.3554 -52.0503
L43.0354 -52.0876
L42.7175 -52.1213
L42.4015 -52.1513
L42.0875 -52.1779
L41.7755 -52.201
L41.4655 -52.2209
L41.1573 -52.2375
L40.851 -52.251
L40.5466 -52.2614
L40.244 -52.2688
L39.9432 -52.2733
L39.6441 -52.2749
L39.3467 -52.2737
L39.0509 -52.2698
L38.7568 -52.2632
L38.4642 -52.2539
L38.1731 -52.2421
L37.8836 -52.2277
L37.5954 -52.2108
L37.3086 -52.1914
L37.0232 -52.1696
L36.739 -52.1454
L36.4561 -52.1188
L36.1743 -52.0899
L35.8937 -52.0586
L35.6142 -52.025
L35.3356 -51.9892
L35.0581 -51.951
L34.7815 -51.9107
L34.5058 -51.868
L34.2309 -51.8232
L33.9569 -51.7761
L33.6835 -51.7267
L33.4108 -51.6752
L33.1388 -51.6214
L32.8673 -51.5653
L32.5964 -51.5071
L32.326 -51.4465
L32.0561 -51.3837
L31.7865 -51.3186
L31.5173 -51.2513
L31.2484 -51.1816
L30.9798 -51.1096
L30.7114 -51.0352
L30.4432 -50.9585
L30.1751 -50.8793
L29.9071 -50.7977
L29.6392 -50.7136
L29.3713 -50.627
L29.1034 -50.5379
L28.8354 -50.4462
L28.5673 -50.3518
L28.2991 -50.2548
L28.0308 -50.1551
L27.7622 -50.0526
L27.4935 -49.9472
L27.2245 -49.839
L26.9552 -49.7279
L26.6857 -49.6138
L26.4158 -49.4966
L26.1456 -49.3763
L25.875 -49.2528
L25.6041 -49.1261
L25.3328 -48.996
L25.0611 -48.8626
L24.789 -48.7256
L24.5166 -48.5851
L24.2437 -48.4409
L23.9704 -48.2931
L23.6968 -48.1414
L23.4228 -47.9858
L23.1485 -47.8262
L22.8738 -47.6625
L22.5989 -47.4946
L22.3237 -47.3224
L22.0483 -47.1458
L21.7727 -46.9647
L21.497 -46.779
L21.2212 -46.5887
L20.9455 -46.3934
L20.6699 -46.1933
L20.3944 -45.9881
L20.1192 -45.7778
L19.8445 -45.5622
L19.5702 -45.3413
L19.2965 -45.1149
L19.0237 -44.8828
L18.7517 -44.6451
L18.4809 -44.4016
L18.2113 -44.1521
L17.9432 -43.8966
L17.6767 -43.635
L17.4121 -43.3672
L17.1497 -43.0931
L16.8897 -42.8127
L16.6324 -42.5257
L16.378 -42.2323
L16.127 -41.9322
L15.8796 -41.6256
L15.6362 -41.3123
L15.3971 -40.9922
L15.1629 -40.6655
L14.934 -40.3322
L14.7107 -39.9921
L14.4937 -39.6455
L14.2834 -39.2924
L14.0803 -38.9328
L13.8851 -38.5669
L13.6983 -38.1948
L13.5206 -37.8168
L13.3527 -37.4331
L13.1952 -37.0438
L13.0488 -36.6494
L12.9143 -36.2501
L12.7924 -35.8464
L12.6839 -35.4386
L12.5896 -35.0273
L12.5101 -34.613
L12.4462 -34.1962
L12.3987 -33.7776
L12.3681 -33.3579
L12.3551 -32.9378
L12.3601 -32.5179
L12.3837 -32.0991
L12.426 -31.6822
L12.4873 -31.2679
L12.5675 -30.8569
L12.6667 -30.4502
L12.7846 -30.0483
L12.9208 -29.6519
L13.0748 -29.2618
L13.2461 -28.8784
L13.4338 -28.5023
L13.6374 -28.134
L13.8558 -27.7738
L14.0884 -27.4221
L14.3341 -27.0791
L14.592 -26.7451
L14.8613 -26.4203
L15.1411 -26.1047
L15.4304 -25.7984
L15.7285 -25.5016
L16.0346 -25.2141
L16.3478 -24.9359
L16.6675 -24.6671
L16.9929 -24.4074
L17.3234 -24.1569
L17.6584 -23.9154
L17.9973 -23.6828
L18.3395 -23.459
L18.6847 -23.2437
L19.0322 -23.0368
L19.3817 -22.8383
L19.7327 -22.6478
L20.085 -22.4652
L20.4381 -22.2903
L20.7917 -22.123
L21.1456 -21.963
L21.4994 -21.8103
L21.853 -21.6645
L22.2061 -21.5255
L22.5585 -21.3931
L22.91 -21.2671
L23.2605 -21.1474
L23.6097 -21.0338
L23.9577 -20.9261
L24.3042 -20.8241
L24.6492 -20.7276
L24.9925 -20.6366
L25.3341 -20.5509
L25.6739 -20.4702
L26.0119 -20.3944
L26.3479 -20.3235
L26.682 -20.2572
L27.0142 -20.1954
L27.3443 -20.138
L27.6724 -20.0848
L27.9985 -20.0358
L28.3226 -19.9908
L28.6446 -19.9497
L28.9646 -19.9124
L29.2825 -19.8787
L29.5985 -19.8487
L29.9125 -19.8221
L30.2245 -19.799
L30.5345 -19.7791
L30.8427 -19.7625
L31.149 -19.749
L31.4534 -19.7386
L31.756 -19.7312
L32.0568 -19.7267
L32.3559 -19.7251
L32.6533 -19.7263
L32.9491 -19.7302
L33.2432 -19.7368
L33.5358 -19.7461
L33.8269 -19.7579
L34.1164 -19.7723
L34.4046 -19.7892
L34.6914 -19.8086
L34.9768 -19.8304
L35.261 -19.8546
L35.5439 -19.8812
L35.8257 -19.9101
L36.1063 -19.9414
L36.3858 -19.975
L36.6644 -20.0108
L36.9419 -20.049
L37.2185 -20.0893
L37.4942 -20.132
L37.7691 -20.1768
L38.0431 -20.2239
L38.3165 -20.2733
L38.5892 -20.3248
L38.8612 -20.3786
z
" id="C0_1_c1979cf09b"/>
    </defs>
    <g clip-path="url(#p1bffca34e9)">
     <use style="fill:#ff0000;stroke:#000000;stroke-width:2.0;" x="0.0" xlink:href="#C0_0_a811fe30f3" y="72.0"/>
    </g>
    <g clip-path="url(#p1bffca34e9)">
     <use style="fill:#ffffff;stroke:#000000;stroke-width:2.0;" x="0.0" xlink:href="#C0_1_c1979cf09b" y="72.0"/>
    </g>
   </g>
  </g>
 </g>
 <defs>
  <clipPath id="p1bffca34e9">
   <rect height="72.0" width="72.0" x="0.0" y="0.0"/>
  </clipPath>
 </defs>
</svg>
