<?xml version="1.0" encoding="utf-8" standalone="no"?>
<!DOCTYPE svg PUBLIC "-//W3C//DTD SVG 1.1//EN"
  "http://www.w3.org/Graphics/SVG/1.1/DTD/svg11.dtd">
<!-- Created with matplotlib (http://matplotlib.org/) -->
<svg height="72pt" version="1.1" viewBox="0 0 72 72" width="72pt" xmlns="http://www.w3.org/2000/svg" xmlns:xlink="http://www.w3.org/1999/xlink">
 <defs>
  <style type="text/css">
*{stroke-linecap:butt;stroke-linejoin:round;}
  </style>
 </defs>
 <g id="figure_1">
  <g id="patch_1">
   <path d="
M0 72
L72 72
L72 0
L0 0
z
" style="fill:none;"/>
  </g>
  <g id="axes_1">
   <g id="PatchCollection_1">
    <defs>
     <path d="
M36 -7.5
C43.5583 -7.5 50.808 -10.5029 56.1525 -15.8475
C61.4971 -21.192 64.5 -28.4417 64.5 -36
C64.5 -43.5583 61.4971 -50.808 56.1525 -56.1525
C50.808 -61.4971 43.5583 -64.5 36 -64.5
C28.4417 -64.5 21.192 -61.4971 15.8475 -56.1525
C10.5029 -50.808 7.5 -43.5583 7.5 -36
C7.5 -28.4417 10.5029 -21.192 15.8475 -15.8475
C21.192 -10.5029 28.4417 -7.5 36 -7.5
z
" id="C0_0_a811fe30f3"/>
     <path d="
M56.6998 -16.7468
L56.387 -16.817
L56.028 -16.8534
L55.639 -16.8709
L55.2306 -16.8791
L54.8095 -16.8841
L54.3803 -16.8895
L53.9459 -16.8976
L53.5085 -16.9099
L53.0695 -16.9273
L52.6301 -16.9502
L52.1912 -16.979
L51.7536 -17.0137
L51.3178 -17.0545
L50.8843 -17.1013
L50.4535 -17.1539
L50.0258 -17.2123
L49.6016 -17.2761
L49.1809 -17.3452
L48.7642 -17.4195
L48.3515 -17.4986
L47.943 -17.5824
L47.539 -17.6706
L47.1394 -17.763
L46.7445 -17.8594
L46.3542 -17.9596
L45.9687 -18.0632
L45.588 -18.1702
L45.2121 -18.2804
L44.8411 -18.3934
L44.4749 -18.5092
L44.1136 -18.6276
L43.7571 -18.7484
L43.4054 -18.8714
L43.0585 -18.9965
L42.7164 -19.1235
L42.3789 -19.2523
L42.0461 -19.3828
L41.7179 -19.5149
L41.3942 -19.6483
L41.075 -19.7831
L40.7602 -19.9192
L40.4496 -20.0564
L40.1433 -20.1946
L39.8412 -20.3338
L39.5431 -20.4739
L39.249 -20.6148
L38.9588 -20.7566
L38.6724 -20.899
L38.3897 -21.0421
L38.1107 -21.1858
L37.8352 -21.3302
L37.5632 -21.475
L37.2945 -21.6204
L37.0292 -21.7663
L36.767 -21.9126
L36.5079 -22.0594
L36.2518 -22.2066
L35.9987 -22.3542
L35.7484 -22.5022
L35.5009 -22.6506
L35.2561 -22.7994
L35.0139 -22.9486
L34.7741 -23.0982
L34.5369 -23.2482
L34.3019 -23.3985
L34.0693 -23.5493
L33.8388 -23.7005
L33.6105 -23.8521
L33.3842 -24.0041
L33.16 -24.1566
L32.9376 -24.3095
L32.717 -24.463
L32.4983 -24.6169
L32.2812 -24.7714
L32.0658 -24.9264
L31.8519 -25.082
L31.6395 -25.2382
L31.4286 -25.395
L31.2191 -25.5525
L31.0108 -25.7106
L30.8039 -25.8695
L30.5981 -26.0291
L30.3934 -26.1895
L30.1899 -26.3508
L29.9874 -26.5128
L29.7858 -26.6758
L29.3854 -26.8397
L29.1865 -27.0046
L28.9883 -27.1705
L28.7908 -27.3374
L28.594 -27.5054
L28.3978 -27.6746
L28.2022 -27.845
L28.0071 -28.0166
L27.8125 -28.1895
L27.6184 -28.3637
L27.4246 -28.5393
L27.2312 -28.7164
L27.0381 -28.895
L26.8453 -29.0751
L26.6527 -29.2568
L26.4603 -29.4402
L26.2681 -29.6253
L26.076 -29.8122
L25.884 -30.0009
L25.6921 -30.1916
L25.5002 -30.3842
L25.3083 -30.5789
L25.1164 -30.7757
L24.9244 -30.9747
L24.7324 -31.1759
L24.5402 -31.3795
L24.3479 -31.5855
L24.1555 -31.7939
L23.963 -32.005
L23.7702 -32.2186
L23.5773 -32.435
L23.3842 -32.6542
L23.1909 -32.8763
L22.9973 -33.1014
L22.8036 -33.3295
L22.6096 -33.5608
L22.4155 -33.7953
L22.2211 -34.0331
L22.0265 -34.2744
L21.8318 -34.5192
L21.6369 -34.7676
L21.4419 -35.0197
L21.2468 -35.2755
L21.0517 -35.5353
L20.8565 -35.7991
L20.6613 -36.0669
L20.4662 -36.3389
L20.2712 -36.6152
L20.0764 -36.8958
L19.8819 -37.1809
L19.6877 -37.4705
L19.4939 -37.7648
L19.3006 -38.0637
L19.1079 -38.3675
L18.916 -38.6761
L18.7249 -38.9897
L18.5348 -39.3083
L18.3458 -39.6319
L18.158 -39.9607
L17.9717 -40.2947
L17.7869 -40.6339
L17.6038 -40.9784
L17.4227 -41.3281
L17.2437 -41.6831
L17.0671 -42.0435
L16.8929 -42.4091
L16.7215 -42.7799
L16.5532 -43.156
L16.388 -43.5372
L16.2262 -43.9235
L16.0682 -44.3148
L15.9141 -44.7109
L15.7642 -45.1117
L15.6187 -45.5169
L15.4778 -45.9265
L15.3417 -46.34
L15.2107 -46.7572
L15.0848 -47.1777
L14.9641 -47.6011
L14.8487 -48.0266
L14.7383 -48.4536
L14.6329 -48.8813
L14.5316 -49.3082
L14.4337 -49.7329
L14.3375 -50.153
L14.2404 -50.5652
L14.1379 -50.9646
L14.0231 -51.3435
L13.8848 -51.69
L13.7078 -51.9858
L13.4758 -52.2056
L13.1811 -52.3226
L12.8304 -52.3228
L12.4392 -52.2143
L12.1557 -52.0196
L11.8869 -51.6109
L11.6254 -51.1924
L11.3714 -50.7693
L11.1249 -50.3416
L10.8859 -49.9096
L10.6546 -49.4734
L10.431 -49.033
L10.2152 -48.5887
L10.0072 -48.1405
L9.80717 -47.6887
L9.61511 -47.2332
L9.43109 -46.7744
L9.25517 -46.3123
L9.08738 -45.847
L8.9278 -45.3788
L8.77646 -44.9076
L8.63342 -44.4338
L8.49871 -43.9574
L8.37238 -43.4786
L8.25447 -42.9975
L8.145 -42.5142
L8.04403 -42.029
L7.95156 -41.542
L7.86764 -41.0532
L7.79229 -40.5629
L7.72554 -40.0713
L7.66739 -39.5784
L7.61788 -39.0844
L7.57701 -38.5894
L7.5448 -38.0937
L7.52125 -37.5973
L7.50639 -37.1005
L7.5002 -36.6033
L7.50269 -36.1059
L7.51386 -35.6085
L7.53371 -35.1112
L7.56223 -34.6142
L7.59942 -34.1176
L7.64525 -33.6216
L7.69972 -33.1263
L7.76282 -32.6319
L7.83451 -32.1385
L7.91478 -31.6462
L8.00361 -31.1554
L8.10097 -30.6659
L8.20682 -30.1781
L8.32114 -29.6921
L8.44389 -29.208
L8.57504 -28.726
L8.71454 -28.2462
L8.86235 -27.7687
L9.01843 -27.2938
L9.18273 -26.8215
L9.35519 -26.352
L9.53577 -25.8855
L9.72441 -25.422
L9.92106 -24.9617
L10.1257 -24.5048
L10.3381 -24.0514
L10.5584 -23.6017
L10.7865 -23.1557
L11.0222 -22.7137
L11.2655 -22.2756
L11.5164 -21.8418
L11.7747 -21.4123
L12.0404 -20.9872
L12.3134 -20.5667
L12.5936 -20.1509
L12.8809 -19.7399
L13.1753 -19.3339
L13.4766 -18.933
L13.7848 -18.5372
L14.0998 -18.1468
L14.4214 -17.7618
L14.7497 -17.3824
L15.0843 -17.0086
L15.4254 -16.6406
L15.7727 -16.2786
L16.1262 -15.9225
L16.4857 -15.5725
L16.8512 -15.2288
L17.2225 -14.8914
L17.5996 -14.5604
L17.9822 -14.236
L18.3703 -13.9181
L18.7638 -13.607
L19.1626 -13.3028
L19.5664 -13.0054
L19.9753 -12.7151
L20.3891 -12.4318
L20.8076 -12.1557
L21.2307 -11.8869
L21.6584 -11.6254
L22.0904 -11.3714
L22.5266 -11.1249
L22.967 -10.8859
L23.4113 -10.6546
L23.8595 -10.431
L24.3113 -10.2152
L24.7668 -10.0072
L25.2256 -9.80717
L25.6877 -9.61511
L26.153 -9.43109
L26.6212 -9.25517
L27.0924 -9.08738
L27.5662 -8.9278
L28.0426 -8.77646
L28.5214 -8.63342
L29.0025 -8.49871
L29.4858 -8.37238
L29.971 -8.25447
L30.458 -8.145
L30.9468 -8.04403
L31.4371 -7.95156
L31.9287 -7.86764
L32.4216 -7.79229
L32.9156 -7.72554
L33.4106 -7.66739
L33.9063 -7.61788
L34.4027 -7.57701
L34.8995 -7.5448
L35.3967 -7.52125
L35.8941 -7.50639
L36.3915 -7.5002
L36.8888 -7.50269
L37.3858 -7.51386
L37.8824 -7.53371
L38.3784 -7.56223
L38.8737 -7.59942
L39.3681 -7.64525
L39.8615 -7.69972
L40.3538 -7.76282
L40.8446 -7.83451
L41.3341 -7.91478
L41.8219 -8.00361
L42.3079 -8.10097
L42.792 -8.20682
L43.274 -8.32114
L43.7538 -8.44389
L44.2313 -8.57504
L44.7062 -8.71454
L45.1785 -8.86235
L45.648 -9.01843
L46.1145 -9.18273
L46.578 -9.35519
L47.0383 -9.53577
L47.4952 -9.72441
L47.9486 -9.92106
L48.3983 -10.1257
L48.8443 -10.3381
L49.2863 -10.5584
L49.7244 -10.7865
L50.1582 -11.0222
L50.5877 -11.2655
L51.0128 -11.5164
L51.4333 -11.7747
L51.8491 -12.0404
L52.2601 -12.3134
L52.6661 -12.5936
L53.067 -12.8809
L53.4628 -13.1753
L53.8532 -13.4766
L54.2382 -13.7848
L54.6176 -14.0998
L54.9914 -14.4214
L55.3594 -14.7497
L55.7214 -15.0843
L56.0775 -15.4254
L56.4275 -15.7727
z
" id="C0_1_5bcb400409"/>
     <path d="
M59.6524 -20.4519
L59.7439 -20.9629
L59.8403 -21.4927
L59.9352 -22.0344
L60.0249 -22.5835
L60.107 -23.1368
L60.1799 -23.6921
L60.2429 -24.2477
L60.2953 -24.8021
L60.337 -25.3545
L60.3679 -25.9039
L60.388 -26.4496
L60.3975 -26.9909
L60.3966 -27.5274
L60.3856 -28.0585
L60.3648 -28.584
L60.3344 -29.1034
L60.2949 -29.6166
L60.2465 -30.1231
L60.1897 -30.6228
L60.1248 -31.1156
L60.0521 -31.6014
L59.9721 -32.0798
L59.885 -32.551
L59.7913 -33.0149
L59.6913 -33.4713
L59.5852 -33.9204
L59.4735 -34.362
L59.3564 -34.7962
L59.2342 -35.2231
L59.1072 -35.6426
L58.9758 -36.0549
L58.84 -36.46
L58.7003 -36.858
L58.5568 -37.249
L58.4097 -37.633
L58.2594 -38.0103
L58.1059 -38.3808
L57.9495 -38.7447
L57.7903 -39.1022
L57.6285 -39.4533
L57.4643 -39.7982
L57.2978 -40.137
L57.1291 -40.4698
L56.9585 -40.7968
L56.7859 -41.118
L56.6115 -41.4337
L56.4355 -41.7439
L56.2578 -42.0488
L56.0787 -42.3485
L55.8981 -42.6432
L55.7161 -42.9329
L55.5328 -43.2178
L55.3483 -43.498
L55.1626 -43.7736
L54.9758 -44.0448
L54.7879 -44.3117
L54.5989 -44.5743
L54.4089 -44.8328
L54.2179 -45.0874
L54.0259 -45.338
L53.8329 -45.5849
L53.639 -45.8281
L53.4441 -46.0677
L53.2483 -46.3038
L53.0516 -46.5366
L52.8539 -46.7661
L52.6553 -46.9923
L52.4558 -47.2155
L52.2553 -47.4356
L52.0538 -47.6528
L51.8514 -47.8671
L51.648 -48.0786
L51.4435 -48.2874
L51.238 -48.4936
L51.0315 -48.6972
L50.8238 -48.8983
L50.615 -49.097
L50.4051 -49.2933
L50.194 -49.4873
L49.9816 -49.679
L49.768 -49.8686
L49.5531 -50.056
L49.3368 -50.2413
L49.1191 -50.4246
L48.9001 -50.6058
L48.6795 -50.7852
L48.4574 -50.9626
L48.2337 -51.1382
L48.0084 -51.3119
L47.7814 -51.4839
L47.5526 -51.6541
L47.322 -51.8226
L47.0896 -51.9893
L46.8552 -52.1544
L46.6189 -52.3179
L46.3804 -52.4798
L46.1399 -52.64
L45.8971 -52.7986
L45.6521 -52.9557
L45.4048 -53.1112
L45.155 -53.2652
L44.9028 -53.4176
L44.6479 -53.5685
L44.3904 -53.7178
L44.1302 -53.8655
L43.8672 -54.0117
L43.6012 -54.1564
L43.3323 -54.2995
L43.0603 -54.4409
L42.7851 -54.5808
L42.5066 -54.719
L42.2248 -54.8556
L41.9396 -54.9904
L41.6507 -55.1235
L41.3583 -55.2549
L41.062 -55.3844
L40.7619 -55.512
L40.4579 -55.6377
L40.1498 -55.7615
L39.8375 -55.8831
L39.5209 -56.0027
L39.2 -56.12
L38.8746 -56.235
L38.5446 -56.3477
L38.2099 -56.4579
L37.8704 -56.5655
L37.526 -56.6704
L37.1766 -56.7724
L36.822 -56.8716
L36.4623 -56.9677
L36.0973 -57.0605
L35.7268 -57.15
L35.3509 -57.2359
L34.9693 -57.3181
L34.5822 -57.3965
L34.1892 -57.4708
L33.7905 -57.5408
L33.3859 -57.6064
L32.9754 -57.6672
L32.559 -57.7232
L32.1365 -57.774
L31.708 -57.8194
L31.2735 -57.8591
L30.8329 -57.8929
L30.3863 -57.9206
L29.9338 -57.9418
L29.4753 -57.9562
L29.0109 -57.9636
L28.5408 -57.9637
L28.065 -57.9561
L27.5836 -57.9406
L27.0969 -57.9169
L26.6049 -57.8845
L26.108 -57.8434
L25.6063 -57.7931
L25.1002 -57.7333
L24.5898 -57.6639
L24.0757 -57.5845
L23.5581 -57.495
L23.0375 -57.3952
L22.5144 -57.2848
L21.9892 -57.1639
L21.4628 -57.0324
L20.9356 -56.8905
L20.4086 -56.7383
L19.8827 -56.5765
L19.359 -56.4057
L18.839 -56.2271
L18.3245 -56.0426
L17.818 -55.855
L17.3231 -55.669
L16.8451 -55.4917
L16.392 -55.3347
L15.9757 -55.216
L15.6125 -55.1605
L15.3195 -55.1949
L15.4217 -55.3328
L15.769 -55.7176
L16.1224 -56.0738
L16.4819 -56.4238
L16.8473 -56.7676
L17.2185 -57.1051
L17.5955 -57.4361
L17.9781 -57.7606
L18.3662 -58.0785
L18.7596 -58.3897
L19.1583 -58.694
L19.5621 -58.9914
L19.9709 -59.2819
L20.3846 -59.5652
L20.8031 -59.8414
L21.2262 -60.1103
L21.6538 -60.3718
L22.0858 -60.6259
L22.522 -60.8726
L22.9623 -61.1116
L23.4066 -61.343
L23.8547 -61.5667
L24.3065 -61.7826
L24.7619 -61.9906
L25.2207 -62.1907
L25.6828 -62.3829
L26.148 -62.567
L26.6162 -62.743
L27.0873 -62.9109
L27.5611 -63.0705
L28.0375 -63.222
L28.5163 -63.3651
L28.9974 -63.4999
L29.4806 -63.6263
L29.9658 -63.7443
L30.4528 -63.8539
L30.9416 -63.9549
L31.4318 -64.0475
L31.9235 -64.1315
L32.4164 -64.2069
L32.9104 -64.2738
L33.4053 -64.332
L33.901 -64.3816
L34.3974 -64.4226
L34.8942 -64.4549
L35.3914 -64.4785
L35.8888 -64.4935
L36.3862 -64.4998
L36.8835 -64.4974
L37.3805 -64.4863
L37.8771 -64.4665
L38.3731 -64.4381
L38.8685 -64.401
L39.3629 -64.3553
L39.8563 -64.3009
L40.3485 -64.2379
L40.8394 -64.1663
L41.3289 -64.0861
L41.8167 -63.9974
L42.3027 -63.9001
L42.7868 -63.7943
L43.2689 -63.6801
L43.7487 -63.5575
L44.2262 -63.4264
L44.7012 -63.287
L45.1735 -63.1393
L45.643 -62.9833
L46.1096 -62.8191
L46.5731 -62.6467
L47.0334 -62.4662
L47.4903 -62.2776
L47.9438 -62.0811
L48.3935 -61.8766
L48.8396 -61.6642
L49.2817 -61.444
L49.7197 -61.216
L50.1536 -60.9804
L50.5832 -60.7371
L51.0083 -60.4864
L51.4288 -60.2281
L51.8447 -59.9625
L52.2557 -59.6896
L52.6618 -59.4094
L53.0628 -59.1222
L53.4586 -58.8279
L53.8491 -58.5266
L54.2341 -58.2185
L54.6136 -57.9036
L54.9874 -57.582
L55.3555 -57.2539
L55.7176 -56.9193
L56.0738 -56.5783
L56.4238 -56.231
L56.7676 -55.8776
L57.1051 -55.5181
L57.4361 -55.1527
L57.7606 -54.7815
L58.0785 -54.4045
L58.3897 -54.0219
L58.694 -53.6338
L58.9914 -53.2404
L59.2819 -52.8417
L59.5652 -52.4379
L59.8414 -52.0291
L60.1103 -51.6154
L60.3718 -51.1969
L60.6259 -50.7738
L60.8726 -50.3462
L61.1116 -49.9142
L61.343 -49.478
L61.5667 -49.0377
L61.7826 -48.5934
L61.9906 -48.1453
L62.1907 -47.6935
L62.3829 -47.2381
L62.567 -46.7793
L62.743 -46.3172
L62.9109 -45.852
L63.0705 -45.3838
L63.222 -44.9127
L63.3651 -44.4389
L63.4999 -43.9625
L63.6263 -43.4837
L63.7443 -43.0026
L63.8539 -42.5194
L63.9549 -42.0342
L64.0475 -41.5472
L64.1315 -41.0584
L64.2069 -40.5682
L64.2738 -40.0765
L64.332 -39.5836
L64.3816 -39.0896
L64.4226 -38.5947
L64.4549 -38.099
L64.4785 -37.6026
L64.4935 -37.1058
L64.4998 -36.6086
L64.4974 -36.1112
L64.4863 -35.6138
L64.4665 -35.1165
L64.4381 -34.6195
L64.401 -34.1229
L64.3553 -33.6269
L64.3009 -33.1315
L64.2379 -32.6371
L64.1663 -32.1437
L64.0861 -31.6515
L63.9974 -31.1606
L63.9001 -30.6711
L63.7943 -30.1833
L63.6801 -29.6973
L63.5575 -29.2132
L63.4264 -28.7311
L63.287 -28.2513
L63.1393 -27.7738
L62.9833 -27.2988
L62.8191 -26.8265
L62.6467 -26.357
L62.4662 -25.8904
L62.2776 -25.4269
L62.0811 -24.9666
L61.8766 -24.5097
L61.6642 -24.0562
L61.444 -23.6065
L61.216 -23.1604
L60.9804 -22.7183
L60.7371 -22.2803
L60.4864 -21.8464
L60.2281 -21.4168
z
" id="C0_2_55b1a30e47"/>
    </defs>
    <g clip-path="url(#p1bffca34e9)">
     <use style="fill:#ff0000;stroke:#000000;stroke-width:2.0;" x="0.0" xlink:href="#C0_0_a811fe30f3" y="72.0"/>
    </g>
    <g clip-path="url(#p1bffca34e9)">
     <use style="fill:#ffffff;stroke:#000000;stroke-width:2.0;" x="0.0" xlink:href="#C0_1_5bcb400409" y="72.0"/>
    </g>
    <g clip-path="url(#p1bffca34e9)">
     <use style="fill:#ffffff;stroke:#000000;stroke-width:2.0;" x="0.0" xlink:href="#C0_2_55b1a30e47" y="72.0"/>
    </g>
   </g>
  </g>
 </g>
 <defs>
  <clipPath id="p1bffca34e9">
   <rect height="72.0" width="72.0" x="0.0" y="0.0"/>
  </clipPath>
 </defs>
</svg>
