<?xml version="1.0" encoding="utf-8" standalone="no"?>
<!DOCTYPE svg PUBLIC "-//W3C//DTD SVG 1.1//EN"
  "http://www.w3.org/Graphics/SVG/1.1/DTD/svg11.dtd">
<!-- Created with matplotlib (http://matplotlib.org/) -->
<svg height="72pt" version="1.1" viewBox="0 0 72 72" width="72pt" xmlns="http://www.w3.org/2000/svg" xmlns:xlink="http://www.w3.org/1999/xlink">
 <defs>
  <style type="text/css">
*{stroke-linecap:butt;stroke-linejoin:round;}
  </style>
 </defs>
 <g id="figure_1">
  <g id="patch_1">
   <path d="
M0 72
L72 72
L72 0
L0 0
z
" style="fill:none;"/>
  </g>
  <g id="axes_1">
   <g id="PatchCollection_1">
    <defs>
     <path d="
M36 -7.5
C43.5583 -7.5 50.808 -10.5029 56.1525 -15.8475
C61.4971 -21.192 64.5 -28.4417 64.5 -36
C64.5 -43.5583 61.4971 -50.808 56.1525 -56.1525
C50.808 -61.4971 43.5583 -64.5 36 -64.5
C28.4417 -64.5 21.192 -61.4971 15.8475 -56.1525
C10.5029 -50.808 7.5 -43.5583 7.5 -36
C7.5 -28.4417 10.5029 -21.192 15.8475 -15.8475
C21.192 -10.5029 28.4417 -7.5 36 -7.5
z
" id="C0_0_a811fe30f3"/>
     <path d="
M47.7884 -61.9291
L48.1592 -61.6703
L48.5183 -61.4007
L48.8654 -61.1212
L49.2004 -60.8325
L49.523 -60.5352
L49.8332 -60.23
L50.131 -59.9177
L50.4164 -59.5989
L50.6894 -59.2742
L50.9502 -58.9444
L51.1988 -58.6099
L51.4356 -58.2714
L51.6606 -57.9294
L51.8741 -57.5844
L52.0764 -57.2369
L52.2676 -56.8874
L52.4482 -56.5363
L52.6182 -56.1841
L52.7781 -55.8309
L52.9281 -55.4773
L53.0686 -55.1235
L53.1997 -54.7699
L53.3218 -54.4166
L53.4352 -54.064
L53.5401 -53.7123
L53.6369 -53.3616
L53.7259 -53.0121
L53.8072 -52.6641
L53.8812 -52.3177
L53.948 -51.973
L54.0081 -51.6302
L54.0615 -51.2892
L54.1086 -50.9503
L54.1496 -50.6136
L54.1847 -50.279
L54.214 -49.9466
L54.2379 -49.6166
L54.2565 -49.2889
L54.27 -48.9636
L54.2786 -48.6407
L54.2825 -48.3202
L54.2817 -48.0021
L54.2766 -47.6865
L54.2672 -47.3732
L54.2537 -47.0625
L54.2362 -46.7541
L54.2149 -46.4482
L54.1899 -46.1446
L54.1612 -45.8434
L54.1291 -45.5446
L54.0937 -45.248
L54.055 -44.9538
L54.0131 -44.6618
L53.9682 -44.372
L53.9203 -44.0844
L53.8694 -43.7989
L53.8158 -43.5156
L53.7594 -43.2343
L53.7004 -42.955
L53.6387 -42.6777
L53.5745 -42.4023
L53.5078 -42.1288
L53.4386 -41.8572
L53.3671 -41.5873
L53.2932 -41.3193
L53.217 -41.0529
L53.1385 -40.7881
L53.0578 -40.525
L52.9749 -40.2634
L52.8898 -40.0034
L52.8025 -39.7448
L52.7132 -39.4877
L52.6217 -39.2319
L52.5282 -38.9775
L52.4325 -38.7244
L52.3348 -38.4725
L52.2351 -38.2218
L52.1333 -37.9723
L52.0294 -37.7238
L51.9236 -37.4765
L51.8156 -37.2302
L51.7057 -36.9848
L51.4796 -36.7404
L51.3635 -36.4969
L51.2452 -36.2543
L51.1249 -36.0126
L51.0025 -35.7716
L50.878 -35.5313
L50.7514 -35.2918
L50.6225 -35.053
L50.4915 -34.8148
L50.3583 -34.5773
L50.2228 -34.3403
L50.0851 -34.1039
L49.9451 -33.868
L49.8028 -33.6326
L49.6581 -33.3978
L49.511 -33.1633
L49.3615 -32.9293
L49.2096 -32.6957
L49.0551 -32.4625
L48.8981 -32.2297
L48.7384 -31.9972
L48.5762 -31.765
L48.4113 -31.5332
L48.2436 -31.3017
L48.0732 -31.0705
L47.8999 -30.8397
L47.7238 -30.6091
L47.5448 -30.3788
L47.3627 -30.1489
L47.1777 -29.9192
L46.9895 -29.6899
L46.7982 -29.4609
L46.6037 -29.2322
L46.406 -29.004
L46.2049 -28.7761
L46.0005 -28.5486
L45.7926 -28.3216
L45.5812 -28.0951
L45.3663 -27.8691
L45.1478 -27.6437
L44.9256 -27.4189
L44.6997 -27.1949
L44.4701 -26.9715
L44.2366 -26.749
L43.9992 -26.5274
L43.7578 -26.3068
L43.5125 -26.0873
L43.2632 -25.8689
L43.0098 -25.6519
L42.7523 -25.4362
L42.4906 -25.2221
L42.2247 -25.0096
L41.9546 -24.799
L41.6803 -24.5903
L41.4017 -24.3837
L41.1189 -24.1795
L40.8317 -23.9778
L40.5403 -23.7788
L40.2446 -23.5827
L39.9447 -23.3898
L39.6405 -23.2002
L39.3322 -23.0143
L39.0197 -22.8324
L38.7032 -22.6547
L38.3826 -22.4815
L38.0581 -22.3131
L37.7298 -22.1499
L37.3978 -21.9922
L37.0622 -21.8405
L36.7232 -21.695
L36.3809 -21.5562
L36.0355 -21.4246
L35.6872 -21.3004
L35.3362 -21.1843
L34.9828 -21.0766
L34.6273 -20.9778
L34.2698 -20.8884
L33.9108 -20.8088
L33.5504 -20.7397
L33.1892 -20.6813
L32.8273 -20.6343
L32.4653 -20.5991
L32.1034 -20.576
L31.7421 -20.5657
L31.3819 -20.5684
L31.023 -20.5844
L30.6661 -20.6142
L30.3114 -20.658
L29.9594 -20.7159
L29.6106 -20.7882
L29.2654 -20.8749
L28.9241 -20.976
L28.5872 -21.0914
L28.255 -21.221
L27.9279 -21.3646
L27.6062 -21.522
L27.2901 -21.6928
L26.98 -21.8766
L26.6761 -22.073
L26.3787 -22.2814
L26.0878 -22.5014
L25.8037 -22.7325
L25.5264 -22.9739
L25.2562 -23.2253
L24.9931 -23.4859
L24.7371 -23.7552
L24.4883 -24.0326
L24.2468 -24.3174
L24.0124 -24.6092
L23.7853 -24.9074
L23.5654 -25.2114
L23.3526 -25.5206
L23.147 -25.8347
L22.9484 -26.1531
L22.7568 -26.4753
L22.5721 -26.8009
L22.3942 -27.1296
L22.223 -27.4608
L22.0584 -27.7943
L21.9004 -28.1297
L21.7488 -28.4666
L21.6034 -28.8048
L21.4643 -29.144
L21.3312 -29.4839
L21.2041 -29.8243
L21.0828 -30.1649
L20.9672 -30.5055
L20.8573 -30.846
L20.7528 -31.1861
L20.6536 -31.5257
L20.5597 -31.8647
L20.4709 -32.2028
L20.3872 -32.54
L20.3083 -32.8762
L20.2342 -33.2113
L20.1647 -33.5451
L20.0999 -33.8777
L20.0395 -34.2088
L19.9834 -34.5386
L19.9317 -34.8668
L19.884 -35.1935
L19.8405 -35.5186
L19.8009 -35.8421
L19.7652 -36.1639
L19.7334 -36.4841
L19.7052 -36.8027
L19.6807 -37.1195
L19.6598 -37.4346
L19.6423 -37.7481
L19.6283 -38.0599
L19.6177 -38.37
L19.6103 -38.6784
L19.6062 -38.9851
L19.6052 -39.2903
L19.6074 -39.5937
L19.6127 -39.8956
L19.621 -40.1959
L19.6323 -40.4947
L19.6465 -40.7919
L19.6636 -41.0876
L19.6836 -41.3818
L19.7064 -41.6746
L19.732 -41.966
L19.7604 -42.256
L19.7915 -42.5447
L19.8254 -42.832
L19.8619 -43.1181
L19.9012 -43.4029
L19.9431 -43.6865
L19.9876 -43.969
L20.0349 -44.2503
L20.0848 -44.5306
L20.1373 -44.8097
L20.1924 -45.0879
L20.2502 -45.3651
L20.3107 -45.6413
L20.3737 -45.9166
L20.4395 -46.191
L20.5079 -46.4646
L20.579 -46.7374
L20.6528 -47.0094
L20.7293 -47.2806
L20.8086 -47.5512
L20.8906 -47.8211
L20.9754 -48.0903
L21.063 -48.3589
L21.1535 -48.6269
L21.2469 -48.8944
L21.3432 -49.1613
L21.4424 -49.4278
L21.5447 -49.6937
L21.65 -49.9592
L21.7584 -50.2243
L21.8699 -50.4889
L21.9846 -50.7532
L22.1026 -51.017
L22.2239 -51.2805
L22.3486 -51.5437
L22.4767 -51.8065
L22.6083 -52.0689
L22.7435 -52.331
L22.8823 -52.5928
L23.0248 -52.8543
L23.1712 -53.1154
L23.3214 -53.3762
L23.4756 -53.6366
L23.6338 -53.8967
L23.7962 -54.1564
L23.9628 -54.4157
L24.1337 -54.6746
L24.309 -54.933
L24.4889 -55.1909
L24.6734 -55.4483
L24.8626 -55.7052
L25.0567 -55.9614
L25.2557 -56.2169
L25.4598 -56.4717
L25.669 -56.7257
L25.8836 -56.9787
L26.1036 -57.2309
L26.3291 -57.4819
L26.5602 -57.7318
L26.7971 -57.9805
L27.04 -58.2277
L27.2888 -58.4734
L27.5438 -58.7175
L27.805 -58.9598
L28.0727 -59.2002
L28.3468 -59.4384
L28.6275 -59.6744
L28.915 -59.9078
L29.2093 -60.1386
L29.5105 -60.3665
L29.8188 -60.5912
L30.1342 -60.8125
L30.4568 -61.0301
L30.7867 -61.2439
L31.1239 -61.4534
L31.4685 -61.6584
L31.8205 -61.8585
L32.18 -62.0535
L32.5469 -62.2429
L32.9213 -62.4264
L33.3031 -62.6036
L33.6922 -62.7741
L34.0885 -62.9375
L34.492 -63.0934
L34.9025 -63.2412
L35.3198 -63.3806
L35.7437 -63.5111
L36.174 -63.6321
L36.6103 -63.7433
L37.0524 -63.8441
L37.4998 -63.934
L37.9522 -64.0125
L38.4091 -64.0792
L38.8699 -64.1334
L39.3341 -64.1749
L39.8011 -64.2031
L40.2971 -64.2176
L40.7882 -64.1742
L41.2778 -64.0949
L41.7658 -64.0071
L42.252 -63.9107
L42.7363 -63.8058
L43.2186 -63.6924
L43.6987 -63.5707
L44.1764 -63.4405
L44.6517 -63.3019
L45.1243 -63.1551
L45.5941 -63
L46.061 -62.8366
L46.5248 -62.6651
L46.9855 -62.4854
z
" id="C0_1_8e957c7946"/>
     <path d="
M31.7415 -7.85963
L31.2923 -7.99268
L30.8439 -8.12655
L30.3963 -8.26085
L29.9495 -8.39522
L29.5034 -8.52929
L29.058 -8.66275
L28.6133 -8.7953
L28.1693 -8.92668
L27.7258 -9.0567
L27.283 -9.18519
L26.8406 -9.31205
L26.3988 -9.43724
L25.9575 -9.56076
L25.5167 -9.68267
L25.0765 -9.80308
L25.0729 -9.92217
L25.534 -9.67798
L25.9982 -9.49129
L26.4655 -9.31267
L26.9357 -9.14218
L27.4086 -8.97987
L27.8842 -8.82579
L28.3622 -8.67999
L28.8426 -8.54251
L29.3251 -8.41339
L29.8097 -8.29268
L30.2961 -8.1804
L30.7843 -8.0766
z
" id="C0_2_9428ee3ae6"/>
    </defs>
    <g clip-path="url(#p1bffca34e9)">
     <use style="fill:#ffffff;stroke:#000000;stroke-width:2.0;" x="0.0" xlink:href="#C0_0_a811fe30f3" y="72.0"/>
    </g>
    <g clip-path="url(#p1bffca34e9)">
     <use style="fill:#ff0000;stroke:#000000;stroke-width:2.0;" x="0.0" xlink:href="#C0_1_8e957c7946" y="72.0"/>
    </g>
    <g clip-path="url(#p1bffca34e9)">
     <use style="fill:#ff0000;stroke:#000000;stroke-width:2.0;" x="0.0" xlink:href="#C0_2_9428ee3ae6" y="72.0"/>
    </g>
   </g>
  </g>
 </g>
 <defs>
  <clipPath id="p1bffca34e9">
   <rect height="72.0" width="72.0" x="0.0" y="0.0"/>
  </clipPath>
 </defs>
</svg>
