<?xml version="1.0" encoding="utf-8" standalone="no"?>
<!DOCTYPE svg PUBLIC "-//W3C//DTD SVG 1.1//EN"
  "http://www.w3.org/Graphics/SVG/1.1/DTD/svg11.dtd">
<!-- Created with matplotlib (http://matplotlib.org/) -->
<svg height="72pt" version="1.1" viewBox="0 0 72 72" width="72pt" xmlns="http://www.w3.org/2000/svg" xmlns:xlink="http://www.w3.org/1999/xlink">
 <defs>
  <style type="text/css">
*{stroke-linecap:butt;stroke-linejoin:round;}
  </style>
 </defs>
 <g id="figure_1">
  <g id="patch_1">
   <path d="
M0 72
L72 72
L72 0
L0 0
z
" style="fill:none;"/>
  </g>
  <g id="axes_1">
   <g id="PatchCollection_1">
    <defs>
     <path d="
M36 -7.5
C43.5583 -7.5 50.808 -10.5029 56.1525 -15.8475
C61.4971 -21.192 64.5 -28.4417 64.5 -36
C64.5 -43.5583 61.4971 -50.808 56.1525 -56.1525
C50.808 -61.4971 43.5583 -64.5 36 -64.5
C28.4417 -64.5 21.192 -61.4971 15.8475 -56.1525
C10.5029 -50.808 7.5 -43.5583 7.5 -36
C7.5 -28.4417 10.5029 -21.192 15.8475 -15.8475
C21.192 -10.5029 28.4417 -7.5 36 -7.5
z
" id="C0_0_a811fe30f3"/>
     <path d="
M37.1786 -7.67913
L36.9565 -7.88565
L36.7586 -8.10188
L36.5846 -8.32719
L36.4335 -8.56098
L36.3045 -8.80264
L36.1964 -9.0516
L36.1081 -9.3073
L36.0381 -9.56919
L35.9852 -9.83676
L35.9481 -10.1095
L35.9254 -10.387
L35.9158 -10.6688
L35.9181 -10.9545
L35.9311 -11.2437
L35.9538 -11.536
L35.985 -11.831
L36.024 -12.1285
L36.0697 -12.4282
L36.1214 -12.7296
L36.1784 -13.0327
L36.24 -13.3371
L36.3057 -13.6425
L36.3748 -13.9488
L36.4469 -14.2557
L36.5216 -14.563
L36.5984 -14.8705
L36.6771 -15.1781
L36.7572 -15.4856
L36.8386 -15.7929
L36.9209 -16.0997
L37.004 -16.406
L37.0876 -16.7116
L37.1715 -17.0165
L37.2557 -17.3205
L37.3399 -17.6236
L37.424 -17.9256
L37.508 -18.2265
L37.5917 -18.5262
L37.675 -18.8247
L37.7579 -19.1218
L37.8403 -19.4177
L37.9221 -19.7122
L38.0034 -20.0052
L38.084 -20.2969
L38.1639 -20.5871
L38.2431 -20.8758
L38.3216 -21.163
L38.3994 -21.4488
L38.4764 -21.7331
L38.5526 -22.0159
L38.628 -22.2972
L38.7026 -22.5771
L38.7765 -22.8555
L38.8495 -23.1325
L38.9218 -23.4081
L38.9933 -23.6823
L39.064 -23.9551
L39.1339 -24.2266
L39.2031 -24.4968
L39.2714 -24.7658
L39.3391 -25.0335
L39.406 -25.3
L39.4722 -25.5653
L39.5376 -25.8295
L39.6024 -26.0926
L39.6665 -26.3546
L39.7299 -26.6156
L39.7926 -26.8757
L39.8547 -27.1349
L39.9161 -27.3932
L39.977 -27.6506
L40.0372 -27.9073
L40.0968 -28.1632
L40.1558 -28.4185
L40.2143 -28.6731
L40.2722 -28.9271
L40.3296 -29.1805
L40.3864 -29.4335
L40.4428 -29.686
L40.4986 -29.9381
L40.554 -30.1899
L40.6089 -30.4414
L40.6633 -30.6926
L40.7173 -30.9437
L40.7708 -31.1946
L40.8239 -31.4454
L40.8766 -31.6962
L40.929 -31.947
L41.0324 -32.1978
L41.0836 -32.4488
L41.1345 -32.7
L41.185 -32.9514
L41.2351 -33.203
L41.285 -33.4551
L41.3345 -33.7074
L41.3837 -33.9603
L41.4327 -34.2136
L41.4813 -34.4675
L41.5297 -34.7219
L41.5778 -34.977
L41.6256 -35.2329
L41.6732 -35.4895
L41.7206 -35.7469
L41.7677 -36.0051
L41.8146 -36.2643
L41.8613 -36.5245
L41.9078 -36.7857
L41.9541 -37.048
L42.0001 -37.3114
L42.046 -37.576
L42.0917 -37.8418
L42.1372 -38.1089
L42.1826 -38.3774
L42.2277 -38.6472
L42.2728 -38.9185
L42.3176 -39.1913
L42.3623 -39.4656
L42.4069 -39.7415
L42.4514 -40.019
L42.4957 -40.2981
L42.5398 -40.579
L42.5839 -40.8617
L42.6278 -41.1461
L42.6717 -41.4323
L42.7154 -41.7205
L42.7591 -42.0105
L42.8026 -42.3024
L42.8461 -42.5963
L42.8896 -42.8922
L42.9329 -43.19
L42.9763 -43.4899
L43.0196 -43.7918
L43.0628 -44.0957
L43.1061 -44.4017
L43.1494 -44.7096
L43.1928 -45.0196
L43.2362 -45.3316
L43.2797 -45.6456
L43.3233 -45.9615
L43.3671 -46.2793
L43.4111 -46.599
L43.4554 -46.9205
L43.4999 -47.2438
L43.5448 -47.5687
L43.5901 -47.8951
L43.6359 -48.223
L43.6823 -48.5523
L43.7294 -48.8828
L43.7772 -49.2144
L43.826 -49.5469
L43.8758 -49.8801
L43.9268 -50.2138
L43.9792 -50.5478
L44.0332 -50.8819
L44.0891 -51.2158
L44.1469 -51.5492
L44.2072 -51.8817
L44.2701 -52.2131
L44.336 -52.5429
L44.4054 -52.8707
L44.4786 -53.1961
L44.5561 -53.5185
L44.6386 -53.8375
L44.7265 -54.1525
L44.8205 -54.4628
L44.9213 -54.7679
L45.0297 -55.0669
L45.1464 -55.3592
L45.2722 -55.6439
L45.4081 -55.9201
L45.555 -56.1872
L45.7136 -56.444
L45.8849 -56.6897
L46.0697 -56.9234
L46.2688 -57.1441
L46.4828 -57.351
L46.7123 -57.543
L46.9576 -57.7194
L47.219 -57.8795
L47.4965 -58.0226
L47.79 -58.148
L48.099 -58.2555
L48.4231 -58.3446
L48.7616 -58.4151
L49.1135 -58.4669
L49.478 -58.5
L49.854 -58.5146
L50.2403 -58.5108
L50.6359 -58.4888
L51.0394 -58.449
L51.4499 -58.3918
L51.866 -58.3176
L52.2867 -58.2269
L52.7109 -58.12
L53.1375 -57.9975
L53.5657 -57.8599
L53.9944 -57.7076
L54.4228 -57.5412
L54.8502 -57.3612
L55.2757 -57.168
L55.6541 -56.9622
L56.0113 -56.6389
L56.3624 -56.2928
L56.7073 -55.9405
L57.0459 -55.582
L57.3781 -55.2177
L57.7038 -54.8474
L58.0229 -54.4715
L58.3352 -54.0899
L58.6408 -53.7028
L58.9394 -53.3103
L59.2311 -52.9125
L59.5157 -52.5096
L59.7931 -52.1016
L60.0633 -51.6888
L60.3262 -51.2711
L60.5816 -50.8488
L60.8296 -50.422
L61.07 -49.9908
L61.3027 -49.5554
L61.5278 -49.1158
L61.745 -48.6722
L61.9545 -48.2247
L62.156 -47.7735
L62.3495 -47.3188
L62.5351 -46.8606
L62.7125 -46.3991
L62.8818 -45.9344
L63.0429 -45.4667
L63.1958 -44.9961
L63.3404 -44.5227
L63.4767 -44.0468
L63.6046 -43.5684
L63.7241 -43.0877
L63.8351 -42.6049
L63.9377 -42.12
L64.0318 -41.6333
L64.1173 -41.1449
L64.1943 -40.6549
L64.2626 -40.1634
L64.3224 -39.6707
L64.3735 -39.1769
L64.416 -38.6822
L64.4498 -38.1866
L64.475 -37.6903
L64.4915 -37.1935
L64.4993 -36.6964
L64.4984 -36.199
L64.4889 -35.7016
L64.4707 -35.2043
L64.4438 -34.7072
L64.4082 -34.2105
L64.364 -33.7144
L64.3111 -33.219
L64.2497 -32.7244
L64.1796 -32.2308
L64.1009 -31.7383
L64.0137 -31.2472
L63.9179 -30.7575
L63.8136 -30.2693
L63.7009 -29.783
L63.5797 -29.2985
L63.4502 -28.8161
L63.3122 -28.3359
L63.166 -27.8579
L63.0114 -27.3825
L62.8487 -26.9097
L62.6777 -26.4397
L62.4987 -25.9726
L62.3115 -25.5085
L62.1164 -25.0476
L61.9133 -24.5901
L61.7023 -24.1361
L61.4834 -23.6856
L61.2568 -23.2389
L61.0225 -22.7961
L60.7806 -22.3573
L60.5312 -21.9227
L60.2743 -21.4924
L60.0099 -21.0665
L59.7383 -20.6451
L59.4594 -20.2284
L59.1734 -19.8165
L58.8803 -19.4096
L58.5803 -19.0076
L58.2734 -18.6109
L57.9597 -18.2195
L57.6393 -17.8335
L57.3123 -17.453
L56.9788 -17.0782
L56.6389 -16.7091
L56.2928 -16.3459
L55.9405 -15.9887
L55.582 -15.6376
L55.2177 -15.2927
L54.8474 -14.9541
L54.4715 -14.6219
L54.0899 -14.2962
L53.7028 -13.9771
L53.3103 -13.6648
L52.9125 -13.3592
L52.5096 -13.0606
L52.1016 -12.7689
L51.6888 -12.4843
L51.2711 -12.2069
L50.8488 -11.9367
L50.422 -11.6738
L49.9908 -11.4184
L49.5554 -11.1704
L49.1158 -10.93
L48.6722 -10.6973
L48.2247 -10.4722
L47.7735 -10.255
L47.3188 -10.0455
L46.8606 -9.84402
L46.3991 -9.65046
L45.9344 -9.46494
L45.4667 -9.28749
L44.9961 -9.11818
L44.5227 -8.95706
L44.0468 -8.80417
L43.5684 -8.65957
L43.0877 -8.5233
L42.6049 -8.3954
L42.12 -8.2759
L41.6333 -8.16486
L41.1449 -8.06229
L40.6549 -7.96823
L40.1634 -7.8827
L39.6707 -7.80575
L39.1769 -7.73738
L38.6822 -7.67762
L38.1866 -7.62649
L37.6903 -7.584
z
" id="C0_1_601f8b292c"/>
     <path d="
M16.449 -15.4112
L16.2096 -15.8199
L15.976 -16.2302
L15.7485 -16.6419
L15.5274 -17.0545
L15.3128 -17.4679
L15.105 -17.8816
L14.904 -18.2954
L14.7099 -18.709
L14.5228 -19.1221
L14.3428 -19.5347
L14.1697 -19.9463
L14.0036 -20.3568
L13.8444 -20.7661
L13.6921 -21.1739
L13.5467 -21.5801
L13.4079 -21.9845
L13.2757 -22.3871
L13.1501 -22.7877
L13.0308 -23.1862
L12.9179 -23.5825
L12.8111 -23.9765
L12.7103 -24.3682
L12.6155 -24.7575
L12.5264 -25.1444
L12.443 -25.5288
L12.3652 -25.9106
L12.2927 -26.29
L12.2255 -26.6667
L12.1635 -27.041
L12.1065 -27.4126
L12.0544 -27.7817
L12.0072 -28.1482
L11.9646 -28.5122
L11.9265 -28.8737
L11.893 -29.2326
L11.8638 -29.5891
L11.8388 -29.9431
L11.818 -30.2947
L11.8013 -30.6439
L11.7886 -30.9908
L11.7798 -31.3354
L11.7748 -31.6777
L11.7735 -32.0179
L11.7759 -32.3558
L11.7819 -32.6917
L11.7914 -33.0254
L11.8043 -33.3572
L11.8207 -33.687
L11.8404 -34.0148
L11.8634 -34.3408
L11.8897 -34.6651
L11.9192 -34.9875
L11.9518 -35.3083
L11.9875 -35.6274
L12.0264 -35.945
L12.0683 -36.261
L12.1132 -36.5755
L12.1611 -36.8886
L12.212 -37.2004
L12.2659 -37.5109
L12.3227 -37.8201
L12.3824 -38.1281
L12.4451 -38.435
L12.5107 -38.7408
L12.5792 -39.0455
L12.6506 -39.3493
L12.7249 -39.6522
L12.8021 -39.9541
L12.8823 -40.2553
L12.9654 -40.5557
L13.0514 -40.8553
L13.1404 -41.1543
L13.2324 -41.4527
L13.3274 -41.7504
L13.4254 -42.0477
L13.5264 -42.3444
L13.6306 -42.6407
L13.7378 -42.9367
L13.8482 -43.2322
L13.9618 -43.5274
L14.0786 -43.8224
L14.1987 -44.1171
L14.3221 -44.4116
L14.4489 -44.706
L14.579 -45.0002
L14.7126 -45.2943
L14.8498 -45.5884
L14.9905 -45.8824
L15.1348 -46.1763
L15.2829 -46.4703
L15.4347 -46.7643
L15.5903 -47.0584
L15.7498 -47.3525
L15.9133 -47.6467
L16.0808 -47.941
L16.2525 -48.2354
L16.4283 -48.5299
L16.6084 -48.8245
L16.7928 -49.1192
L16.9817 -49.414
L17.1751 -49.7089
L17.3731 -50.0039
L17.5758 -50.2989
L17.7832 -50.5941
L17.9955 -50.8892
L18.2127 -51.1843
L18.435 -51.4794
L18.6623 -51.7744
L18.8949 -52.0693
L19.1327 -52.364
L19.3759 -52.6585
L19.6245 -52.9527
L19.8786 -53.2465
L20.1383 -53.54
L20.4036 -53.8329
L20.6746 -54.1252
L20.9513 -54.4168
L21.2338 -54.7077
L21.5222 -54.9977
L21.8163 -55.2867
L22.1164 -55.5746
L22.4223 -55.8613
L22.734 -56.1466
L23.0516 -56.4304
L23.3749 -56.7127
L23.704 -56.9931
L24.0386 -57.2717
L24.3788 -57.5482
L24.7243 -57.8226
L25.075 -58.0946
L25.4307 -58.3641
L25.7911 -58.631
L26.156 -58.8952
L26.5251 -59.1565
L26.898 -59.4148
L27.2743 -59.67
L27.6535 -59.922
L28.0352 -60.1708
L28.4186 -60.4162
L28.8033 -60.6583
L29.1884 -60.8971
L29.5733 -61.1326
L29.9569 -61.3648
L30.3385 -61.594
L30.717 -61.8202
L31.0913 -62.0435
L31.4603 -62.2644
L31.8228 -62.483
L32.1775 -62.6997
L32.523 -62.9148
L32.8582 -63.1288
L33.1816 -63.342
L33.492 -63.555
L33.7881 -63.768
L34.0688 -63.9815
L34.333 -64.196
L34.0807 -64.4117
L33.5847 -64.4353
L33.0895 -64.3975
L32.5951 -64.351
L32.1018 -64.2959
L31.6097 -64.2321
L31.1189 -64.1598
L30.6296 -64.0789
L30.1419 -63.9894
L29.656 -63.8914
L29.1721 -63.785
L28.6902 -63.67
L28.2106 -63.5466
L27.7333 -63.4149
L27.2586 -63.2747
L26.7865 -63.1263
L26.3172 -62.9696
L25.8509 -62.8047
L25.3876 -62.6317
L24.9276 -62.4505
L24.471 -62.2612
L24.0179 -62.064
L23.5684 -61.8588
L23.1227 -61.6458
L22.6809 -61.4249
L22.2432 -61.1963
L21.8097 -60.96
L21.3805 -60.7161
L20.9558 -60.4647
L20.5356 -60.2058
L20.1202 -59.9396
L19.7096 -59.666
L19.3039 -59.3853
L18.9033 -59.0974
L18.508 -58.8025
L18.118 -58.5007
L17.7334 -58.192
L17.3544 -57.8765
L16.981 -57.5544
L16.6135 -57.2257
L16.2519 -56.8905
L15.8962 -56.549
L15.5467 -56.2012
L15.2035 -55.8473
L14.8665 -55.4873
L14.536 -55.1214
L14.2121 -54.7496
L13.8948 -54.3722
L13.5842 -53.9891
L13.2804 -53.6006
L12.9836 -53.2067
L12.6938 -52.8076
L12.411 -52.4033
L12.1355 -51.9941
L11.8672 -51.5799
L11.6063 -51.1611
L11.3528 -50.7376
L11.1068 -50.3096
L10.8684 -49.8773
L10.6377 -49.4407
L10.4146 -49.0001
L10.1994 -48.5555
L9.99205 -48.107
L9.79261 -47.6549
L9.60115 -47.1992
L9.41773 -46.7401
L9.2424 -46.2778
L9.07523 -45.8123
L8.91626 -45.3438
L8.76554 -44.8725
L8.62311 -44.3985
L8.48903 -43.9219
L8.36332 -43.4429
L8.24603 -42.9616
L8.1372 -42.4782
L8.03685 -41.9929
L7.94502 -41.5057
L7.86174 -41.0168
L7.78703 -40.5264
L7.72091 -40.0346
L7.66341 -39.5416
L7.61454 -39.0476
L7.57431 -38.5526
L7.54275 -38.0568
L7.51985 -37.5604
L7.50563 -37.0635
L7.50008 -36.5663
L7.50322 -36.0689
L7.51504 -35.5715
L7.53554 -35.0742
L7.5647 -34.5772
L7.60253 -34.0807
L7.64901 -33.5847
L7.70412 -33.0895
L7.76785 -32.5951
L7.84019 -32.1018
L7.9211 -31.6097
L8.01056 -31.1189
L8.10855 -30.6296
L8.21504 -30.1419
L8.32999 -29.656
L8.45336 -29.1721
L8.58513 -28.6902
L8.72525 -28.2106
L8.87368 -27.7333
L9.03037 -27.2586
L9.19528 -26.7865
L9.36835 -26.3172
L9.54953 -25.8509
L9.73877 -25.3876
L9.93601 -24.9276
L10.1412 -24.471
L10.3542 -24.0179
L10.5751 -23.5684
L10.8037 -23.1227
L11.04 -22.6809
L11.2839 -22.2432
L11.5353 -21.8097
L11.7942 -21.3805
L12.0604 -20.9558
L12.334 -20.5356
L12.6147 -20.1202
L12.9026 -19.7096
L13.1975 -19.3039
L13.4993 -18.9033
L13.808 -18.508
L14.1235 -18.118
L14.4456 -17.7334
L14.7743 -17.3544
L15.1095 -16.981
L15.451 -16.6135
L15.7988 -16.2519
z
" id="C0_2_8668c07fc2"/>
    </defs>
    <g clip-path="url(#p1bffca34e9)">
     <use style="fill:#ff0000;stroke:#000000;stroke-width:2.0;" x="0.0" xlink:href="#C0_0_a811fe30f3" y="72.0"/>
    </g>
    <g clip-path="url(#p1bffca34e9)">
     <use style="fill:#ffffff;stroke:#000000;stroke-width:2.0;" x="0.0" xlink:href="#C0_1_601f8b292c" y="72.0"/>
    </g>
    <g clip-path="url(#p1bffca34e9)">
     <use style="fill:#ffffff;stroke:#000000;stroke-width:2.0;" x="0.0" xlink:href="#C0_2_8668c07fc2" y="72.0"/>
    </g>
   </g>
  </g>
 </g>
 <defs>
  <clipPath id="p1bffca34e9">
   <rect height="72.0" width="72.0" x="0.0" y="0.0"/>
  </clipPath>
 </defs>
</svg>
