<?xml version="1.0" encoding="utf-8" standalone="no"?>
<!DOCTYPE svg PUBLIC "-//W3C//DTD SVG 1.1//EN"
  "http://www.w3.org/Graphics/SVG/1.1/DTD/svg11.dtd">
<!-- Created with matplotlib (http://matplotlib.org/) -->
<svg height="72pt" version="1.1" viewBox="0 0 72 72" width="72pt" xmlns="http://www.w3.org/2000/svg" xmlns:xlink="http://www.w3.org/1999/xlink">
 <defs>
  <style type="text/css">
*{stroke-linecap:butt;stroke-linejoin:round;}
  </style>
 </defs>
 <g id="figure_1">
  <g id="patch_1">
   <path d="
M0 72
L72 72
L72 0
L0 0
z
" style="fill:none;"/>
  </g>
  <g id="axes_1">
   <g id="PatchCollection_1">
    <defs>
     <path d="
M36 -7.5
C43.5583 -7.5 50.808 -10.5029 56.1525 -15.8475
C61.4971 -21.192 64.5 -28.4417 64.5 -36
C64.5 -43.5583 61.4971 -50.808 56.1525 -56.1525
C50.808 -61.4971 43.5583 -64.5 36 -64.5
C28.4417 -64.5 21.192 -61.4971 15.8475 -56.1525
C10.5029 -50.808 7.5 -43.5583 7.5 -36
C7.5 -28.4417 10.5029 -21.192 15.8475 -15.8475
C21.192 -10.5029 28.4417 -7.5 36 -7.5
z
" id="C0_0_a811fe30f3"/>
     <path d="
M34.6975 -7.6737
L34.8123 -7.89228
L34.9177 -8.11443
L35.0142 -8.33988
L35.102 -8.56841
L35.1816 -8.7998
L35.2535 -9.03384
L35.3179 -9.27034
L35.3754 -9.50909
L35.4261 -9.74993
L35.4706 -9.99269
L35.509 -10.2372
L35.5419 -10.4833
L35.5694 -10.7309
L35.5919 -10.9798
L35.6096 -11.2299
L35.6228 -11.481
L35.6319 -11.7332
L35.637 -11.9861
L35.6383 -12.2399
L35.6361 -12.4943
L35.6306 -12.7492
L35.622 -13.0047
L35.6105 -13.2605
L35.5962 -13.5167
L35.5793 -13.7732
L35.5601 -14.0299
L35.5385 -14.2867
L35.5148 -14.5436
L35.4891 -14.8006
L35.4615 -15.0576
L35.4321 -15.3145
L35.4011 -15.5713
L35.3685 -15.8281
L35.3345 -16.0847
L35.299 -16.3411
L35.2623 -16.5974
L35.2243 -16.8534
L35.1852 -17.1092
L35.145 -17.3648
L35.1038 -17.6201
L35.0617 -17.8751
L35.0186 -18.1299
L34.9747 -18.3844
L34.9299 -18.6386
L34.8844 -18.8926
L34.8382 -19.1462
L34.7913 -19.3996
L34.7438 -19.6528
L34.6956 -19.9056
L34.6469 -20.1582
L34.5976 -20.4106
L34.5478 -20.6628
L34.4974 -20.9147
L34.4466 -21.1664
L34.3953 -21.418
L34.3436 -21.6693
L34.2914 -21.9206
L34.2388 -22.1716
L34.1858 -22.4226
L34.1323 -22.6735
L34.0785 -22.9243
L34.0244 -23.1751
L33.9698 -23.4259
L33.9149 -23.6766
L33.8596 -23.9274
L33.804 -24.1782
L33.748 -24.4291
L33.6917 -24.6802
L33.635 -24.9313
L33.578 -25.1826
L33.5207 -25.4341
L33.4629 -25.6858
L33.4049 -25.9378
L33.2877 -26.19
L33.2285 -26.4425
L33.169 -26.6954
L33.1091 -26.9486
L33.0489 -27.2022
L32.9882 -27.4562
L32.9272 -27.7107
L32.8658 -27.9656
L32.8039 -28.221
L32.7416 -28.477
L32.679 -28.7335
L32.6158 -28.9907
L32.5522 -29.2484
L32.4882 -29.5068
L32.4237 -29.7659
L32.3587 -30.0256
L32.2932 -30.2861
L32.2271 -30.5474
L32.1606 -30.8094
L32.0935 -31.0722
L32.0258 -31.3358
L31.9575 -31.6003
L31.8887 -31.8657
L31.8192 -32.1319
L31.7491 -32.3991
L31.6784 -32.6671
L31.607 -32.9361
L31.5348 -33.2061
L31.462 -33.477
L31.3884 -33.7489
L31.314 -34.0218
L31.2388 -34.2957
L31.1628 -34.5706
L31.086 -34.8465
L31.0083 -35.1233
L30.9296 -35.4012
L30.85 -35.6801
L30.7695 -35.9599
L30.6879 -36.2408
L30.6053 -36.5225
L30.5216 -36.8052
L30.4367 -37.0888
L30.3507 -37.3733
L30.2635 -37.6587
L30.175 -37.9448
L30.0852 -38.2318
L29.994 -38.5194
L29.9014 -38.8077
L29.8074 -39.0967
L29.7118 -39.3861
L29.6146 -39.6761
L29.5158 -39.9665
L29.4153 -40.2571
L29.3129 -40.548
L29.2087 -40.839
L29.1026 -41.1301
L28.9944 -41.421
L28.8841 -41.7117
L28.7716 -42.0021
L28.6568 -42.2919
L28.5396 -42.5811
L28.4199 -42.8696
L28.2977 -43.157
L28.1727 -43.4433
L28.0448 -43.7282
L27.9141 -44.0116
L27.7802 -44.2932
L27.6432 -44.5729
L27.5028 -44.8504
L27.359 -45.1254
L27.2116 -45.3978
L27.0604 -45.6672
L26.9054 -45.9334
L26.7464 -46.1961
L26.5832 -46.4551
L26.4158 -46.71
L26.2439 -46.9606
L26.0675 -47.2066
L25.8865 -47.4476
L25.7006 -47.6834
L25.5099 -47.9136
L25.3141 -48.1379
L25.1133 -48.3561
L24.9073 -48.5679
L24.6961 -48.7729
L24.4796 -48.9708
L24.2578 -49.1615
L24.0307 -49.3445
L23.7982 -49.5197
L23.5605 -49.6868
L23.3176 -49.8456
L23.0695 -49.9958
L22.8163 -50.1373
L22.5582 -50.2699
L22.2953 -50.3934
L22.0276 -50.5076
L21.7555 -50.6126
L21.4791 -50.7081
L21.1985 -50.794
L20.9141 -50.8704
L20.6261 -50.9371
L20.3346 -50.9942
L20.04 -51.0416
L19.7426 -51.0794
L19.4425 -51.1075
L19.1402 -51.126
L18.8358 -51.135
L18.5297 -51.1345
L18.222 -51.1246
L17.9133 -51.1054
L17.6036 -51.0771
L17.2932 -51.0396
L16.9826 -50.9931
L16.6718 -50.9378
L16.3612 -50.8738
L16.051 -50.8012
L15.7415 -50.7201
L15.4329 -50.6307
L15.1255 -50.5332
L14.8193 -50.4276
L14.5148 -50.3142
L14.2119 -50.193
L13.9111 -50.0642
L13.6124 -49.928
L13.3159 -49.7846
L13.022 -49.6339
L12.7307 -49.4763
L12.4421 -49.3118
L12.1565 -49.1407
L11.8739 -48.9629
L11.5945 -48.7787
L11.3184 -48.5881
L11.0457 -48.3914
L10.7764 -48.1886
L10.5108 -47.9799
L10.2489 -47.7653
L9.99081 -47.5451
L9.67299 -47.3192
L9.48651 -46.9151
L9.3081 -46.4539
L9.13782 -45.9896
L8.97573 -45.5223
L8.82186 -45.052
L8.67628 -44.579
L8.53902 -44.1034
L8.41012 -43.6253
L8.28963 -43.1448
L8.17758 -42.6622
L8.074 -42.1776
L7.97893 -41.6911
L7.8924 -41.2029
L7.81442 -40.713
L7.74504 -40.2218
L7.68426 -39.7292
L7.6321 -39.2355
L7.58859 -38.7409
L7.55373 -38.2454
L7.52753 -37.7492
L7.51001 -37.2524
L7.50117 -36.7553
L7.50101 -36.258
L7.50952 -35.7606
L7.52672 -35.2633
L7.55259 -34.7661
L7.58713 -34.2694
L7.63032 -33.7732
L7.68215 -33.2777
L7.74261 -32.7829
L7.81168 -32.2892
L7.88933 -31.7966
L7.97554 -31.3053
L8.07029 -30.8154
L8.17355 -30.3271
L8.28529 -29.8405
L8.40547 -29.3558
L8.53405 -28.8732
L8.671 -28.3927
L8.81627 -27.9145
L8.96983 -27.4388
L9.13162 -26.9656
L9.30159 -26.4953
L9.47969 -26.0278
L9.66588 -25.5634
L9.86008 -25.1021
L10.0622 -24.6442
L10.2723 -24.1897
L10.4902 -23.7388
L10.7159 -23.2917
L10.9493 -22.8484
L11.1903 -22.4091
L11.4389 -21.974
L11.6949 -21.5432
L11.9583 -21.1167
L12.2291 -20.6948
L12.5071 -20.2775
L12.7923 -19.8651
L13.0846 -19.4575
L13.3838 -19.055
L13.6899 -18.6577
L14.0028 -18.2656
L14.3224 -17.8789
L14.6486 -17.4978
L14.9813 -17.1223
L15.3204 -16.7525
L15.6658 -16.3886
L16.0175 -16.0307
L16.3752 -15.6789
L16.7388 -15.3332
L17.1084 -14.9939
L17.4837 -14.6609
L17.8646 -14.3345
L18.2511 -14.0146
L18.6429 -13.7015
L19.0401 -13.3951
L19.4424 -13.0956
L19.8498 -12.8031
L20.262 -12.5177
L20.6791 -12.2394
L21.1009 -11.9683
L21.5271 -11.7046
L21.9578 -11.4483
L22.3928 -11.1994
L22.8319 -10.9581
L23.275 -10.7245
L23.722 -10.4985
L24.1728 -10.2803
L24.6271 -10.07
L25.0849 -9.8675
L25.5461 -9.67299
L26.0104 -9.48651
L26.4777 -9.3081
L26.948 -9.13782
L27.421 -8.97573
L27.8966 -8.82186
L28.3747 -8.67628
L28.8552 -8.53902
L29.3378 -8.41012
L29.8224 -8.28963
L30.3089 -8.17758
L30.7971 -8.074
L31.287 -7.97893
L31.7782 -7.8924
L32.2708 -7.81442
L32.7645 -7.74504
L33.2591 -7.68426
L33.7546 -7.6321
z
" id="C0_1_9691c2d482"/>
     <path d="
M62.2486 -24.9184
L62.2385 -25.2615
L62.225 -25.603
L62.2081 -25.9429
L62.1878 -26.281
L62.1643 -26.6174
L62.1375 -26.9521
L62.1076 -27.285
L62.0745 -27.6162
L62.0383 -27.9455
L61.999 -28.2731
L61.9567 -28.5989
L61.9115 -28.9229
L61.8633 -29.2451
L61.8123 -29.5655
L61.7584 -29.8841
L61.7017 -30.201
L61.6423 -30.5162
L61.5802 -30.8296
L61.5154 -31.1413
L61.4479 -31.4514
L61.3779 -31.7598
L61.3052 -32.0665
L61.2301 -32.3716
L61.1524 -32.6752
L61.0722 -32.9772
L60.9896 -33.2776
L60.9045 -33.5766
L60.817 -33.8741
L60.7271 -34.1701
L60.6349 -34.4648
L60.5402 -34.7581
L60.4433 -35.05
L60.344 -35.3406
L60.2424 -35.63
L60.1384 -35.9181
L60.0322 -36.205
L59.9237 -36.4908
L59.8129 -36.7754
L59.6999 -37.0589
L59.5845 -37.3413
L59.4669 -37.6227
L59.347 -37.9031
L59.2248 -38.1826
L59.1004 -38.461
L58.9736 -38.7386
L58.8446 -39.0153
L58.7133 -39.2912
L58.5797 -39.5662
L58.4437 -39.8405
L58.3055 -40.114
L58.1649 -40.3868
L58.0219 -40.6589
L57.8766 -40.9304
L57.7289 -41.2012
L57.5789 -41.4713
L57.4264 -41.7409
L57.2715 -42.01
L57.1142 -42.2785
L56.9544 -42.5464
L56.7921 -42.8139
L56.6274 -43.081
L56.4601 -43.3475
L56.2903 -43.6136
L56.1179 -43.8794
L55.9429 -44.1447
L55.7654 -44.4096
L55.5853 -44.6742
L55.4025 -44.9384
L55.217 -45.2022
L55.0289 -45.4657
L54.8381 -45.7289
L54.6446 -45.9918
L54.4483 -46.2544
L54.2494 -46.5167
L54.0476 -46.7786
L53.8431 -47.0403
L53.6358 -47.3017
L53.4257 -47.5627
L53.2129 -47.8235
L52.9972 -48.0839
L52.7787 -48.3441
L52.5574 -48.6039
L52.3333 -48.8634
L52.1065 -49.1226
L51.8768 -49.3814
L51.6444 -49.6398
L51.4092 -49.8979
L51.1714 -50.1556
L50.9308 -50.4129
L50.6876 -50.6697
L50.4417 -50.9261
L50.1933 -51.1821
L49.9424 -51.4376
L49.689 -51.6925
L49.4333 -51.947
L49.1752 -52.2009
L48.9149 -52.4542
L48.6525 -52.707
L48.3881 -52.9592
L48.1217 -53.2107
L47.8535 -53.4616
L47.5837 -53.7118
L47.3124 -53.9613
L47.0397 -54.2102
L46.7658 -54.4583
L46.4909 -54.7057
L46.2152 -54.9524
L45.9388 -55.1984
L45.662 -55.4436
L45.385 -55.6881
L45.108 -55.9319
L44.8313 -56.1749
L44.5551 -56.4172
L44.2798 -56.6588
L44.0055 -56.8998
L43.7325 -57.1401
L43.4612 -57.3797
L43.1919 -57.6188
L42.9248 -57.8573
L42.6602 -58.0952
L42.3985 -58.3327
L42.14 -58.5696
L41.885 -58.8062
L41.6337 -59.0423
L41.3866 -59.2781
L41.1438 -59.5136
L40.9056 -59.7488
L40.6724 -59.9837
L40.4444 -60.2184
L40.2219 -60.4528
L40.005 -60.6871
L39.794 -60.9212
L39.5891 -61.155
L39.3904 -61.3887
L39.1981 -61.6221
L39.0124 -61.8553
L38.8334 -62.0881
L38.661 -62.3207
L38.4955 -62.5528
L38.3369 -62.7845
L38.1852 -63.0157
L38.0404 -63.2463
L37.9025 -63.4763
L37.7715 -63.7055
L37.6474 -63.9338
L37.5301 -64.1612
L37.92 -64.3876
L38.4159 -64.4353
L38.9112 -64.3974
L39.4055 -64.3509
L39.8988 -64.2958
L40.3909 -64.2321
L40.8817 -64.1597
L41.371 -64.0788
L41.8587 -63.9893
L42.3446 -63.8913
L42.8285 -63.7848
L43.3104 -63.6699
L43.79 -63.5465
L44.2673 -63.4147
L44.742 -63.2746
L45.2141 -63.1261
L45.6834 -62.9694
L46.1497 -62.8045
L46.613 -62.6314
L47.073 -62.4502
L47.5296 -62.261
L47.9827 -62.0637
L48.4322 -61.8585
L48.8779 -61.6455
L49.3196 -61.4246
L49.7573 -61.196
L50.1908 -60.9597
L50.62 -60.7158
L51.0448 -60.4644
L51.4649 -60.2055
L51.8804 -59.9392
L52.291 -59.6657
L52.6966 -59.3849
L53.0972 -59.097
L53.4925 -58.8021
L53.8825 -58.5003
L54.2671 -58.1916
L54.6461 -57.8761
L55.0194 -57.5539
L55.387 -57.2252
L55.7486 -56.8901
L56.1042 -56.5485
L56.4537 -56.2008
L56.797 -55.8468
L57.1339 -55.4868
L57.4644 -55.1209
L57.7883 -54.7491
L58.1056 -54.3717
L58.4162 -53.9886
L58.72 -53.6001
L59.0168 -53.2062
L59.3066 -52.8071
L59.5893 -52.4028
L59.8649 -51.9935
L60.1331 -51.5794
L60.394 -51.1605
L60.6475 -50.7371
L60.8935 -50.3091
L61.1319 -49.8767
L61.3626 -49.4402
L61.5856 -48.9995
L61.8008 -48.5549
L62.0082 -48.1065
L62.2076 -47.6543
L62.3991 -47.1986
L62.5825 -46.7396
L62.7578 -46.2772
L62.925 -45.8117
L63.0839 -45.3432
L63.2346 -44.8719
L63.3771 -44.3979
L63.5111 -43.9213
L63.6368 -43.4423
L63.7541 -42.961
L63.8629 -42.4776
L63.9633 -41.9922
L64.0551 -41.5051
L64.1384 -41.0162
L64.2131 -40.5258
L64.2792 -40.034
L64.3367 -39.541
L64.3855 -39.0469
L64.4257 -38.5519
L64.4573 -38.0562
L64.4802 -37.5597
L64.4944 -37.0629
L64.4999 -36.5656
L64.4968 -36.0683
L64.4849 -35.5709
L64.4644 -35.0736
L64.4353 -34.5766
L64.3974 -34.08
L64.3509 -33.5841
L64.2958 -33.0888
L64.2321 -32.5945
L64.1597 -32.1012
L64.0788 -31.6091
L63.9893 -31.1183
L63.8913 -30.629
L63.7848 -30.1413
L63.6699 -29.6554
L63.5465 -29.1715
L63.4147 -28.6896
L63.2746 -28.21
L63.1261 -27.7327
L62.9694 -27.258
L62.8045 -26.7859
L62.6314 -26.3166
L62.4502 -25.8503
z
" id="C0_2_d7a34e00ce"/>
    </defs>
    <g clip-path="url(#p1bffca34e9)">
     <use style="fill:#ffffff;stroke:#000000;stroke-width:2.0;" x="0.0" xlink:href="#C0_0_a811fe30f3" y="72.0"/>
    </g>
    <g clip-path="url(#p1bffca34e9)">
     <use style="fill:#ff0000;stroke:#000000;stroke-width:2.0;" x="0.0" xlink:href="#C0_1_9691c2d482" y="72.0"/>
    </g>
    <g clip-path="url(#p1bffca34e9)">
     <use style="fill:#ff0000;stroke:#000000;stroke-width:2.0;" x="0.0" xlink:href="#C0_2_d7a34e00ce" y="72.0"/>
    </g>
   </g>
  </g>
 </g>
 <defs>
  <clipPath id="p1bffca34e9">
   <rect height="72.0" width="72.0" x="0.0" y="0.0"/>
  </clipPath>
 </defs>
</svg>
