<?xml version="1.0" encoding="utf-8" standalone="no"?>
<!DOCTYPE svg PUBLIC "-//W3C//DTD SVG 1.1//EN"
  "http://www.w3.org/Graphics/SVG/1.1/DTD/svg11.dtd">
<!-- Created with matplotlib (http://matplotlib.org/) -->
<svg height="72pt" version="1.1" viewBox="0 0 72 72" width="72pt" xmlns="http://www.w3.org/2000/svg" xmlns:xlink="http://www.w3.org/1999/xlink">
 <defs>
  <style type="text/css">
*{stroke-linecap:butt;stroke-linejoin:round;}
  </style>
 </defs>
 <g id="figure_1">
  <g id="patch_1">
   <path d="
M0 72
L72 72
L72 0
L0 0
z
" style="fill:none;"/>
  </g>
  <g id="axes_1">
   <g id="PatchCollection_1">
    <defs>
     <path d="
M36 -7.5
C43.5583 -7.5 50.808 -10.5029 56.1525 -15.8475
C61.4971 -21.192 64.5 -28.4417 64.5 -36
C64.5 -43.5583 61.4971 -50.808 56.1525 -56.1525
C50.808 -61.4971 43.5583 -64.5 36 -64.5
C28.4417 -64.5 21.192 -61.4971 15.8475 -56.1525
C10.5029 -50.808 7.5 -43.5583 7.5 -36
C7.5 -28.4417 10.5029 -21.192 15.8475 -15.8475
C21.192 -10.5029 28.4417 -7.5 36 -7.5
z
" id="C0_0_a811fe30f3"/>
     <path d="
M58.0673 -53.7584
L57.9658 -53.4922
L57.8623 -53.2286
L57.7569 -52.9676
L57.6496 -52.7092
L57.5405 -52.4535
L57.4298 -52.2003
L57.3176 -51.9497
L57.204 -51.7016
L57.089 -51.456
L56.9727 -51.2129
L56.8552 -50.9722
L56.7366 -50.7339
L56.617 -50.4979
L56.4963 -50.2643
L56.3747 -50.0328
L56.2522 -49.8036
L56.1289 -49.5765
L56.0048 -49.3516
L55.8799 -49.1286
L55.7543 -48.9077
L55.628 -48.6887
L55.5011 -48.4716
L55.3735 -48.2563
L55.2453 -48.0428
L55.1165 -47.831
L54.9871 -47.6208
L54.8572 -47.4123
L54.7267 -47.2053
L54.5956 -46.9998
L54.464 -46.7957
L54.3319 -46.593
L54.1992 -46.3917
L54.066 -46.1916
L53.9322 -45.9927
L53.7979 -45.795
L53.6631 -45.5984
L53.5276 -45.4029
L53.3916 -45.2083
L53.255 -45.0147
L53.1178 -44.822
L52.98 -44.6302
L52.8416 -44.4391
L52.7025 -44.2488
L52.5627 -44.0592
L52.4223 -43.8701
L52.2811 -43.6817
L52.1392 -43.4938
L51.9965 -43.3064
L51.853 -43.1195
L51.7088 -42.9329
L51.5636 -42.7466
L51.4176 -42.5607
L51.1229 -42.3749
L50.9741 -42.1894
L50.8243 -42.004
L50.6734 -41.8187
L50.5215 -41.6334
L50.3685 -41.4481
L50.2143 -41.2628
L50.0589 -41.0773
L49.9023 -40.8918
L49.7444 -40.706
L49.5852 -40.5199
L49.4246 -40.3336
L49.2626 -40.1469
L49.0992 -39.9599
L48.9343 -39.7724
L48.7678 -39.5844
L48.5997 -39.3959
L48.43 -39.2069
L48.2585 -39.0172
L48.0853 -38.8268
L47.9103 -38.6357
L47.7334 -38.4439
L47.5546 -38.2512
L47.3739 -38.0577
L47.191 -37.8633
L47.0061 -37.668
L46.819 -37.4716
L46.6297 -37.2742
L46.4381 -37.0758
L46.2442 -36.8762
L46.0479 -36.6755
L45.849 -36.4735
L45.6477 -36.2703
L45.4437 -36.0658
L45.237 -35.8599
L45.0277 -35.6527
L44.8155 -35.4441
L44.6004 -35.234
L44.3824 -35.0224
L44.1614 -34.8093
L43.9373 -34.5946
L43.7101 -34.3784
L43.4797 -34.1605
L43.246 -33.941
L43.0091 -33.7197
L42.7687 -33.4968
L42.5249 -33.2722
L42.2776 -33.0458
L42.0268 -32.8177
L41.7724 -32.5878
L41.5144 -32.3561
L41.2528 -32.1226
L40.9874 -31.8874
L40.7184 -31.6503
L40.4456 -31.4115
L40.1691 -31.1709
L39.8889 -30.9285
L39.605 -30.6844
L39.3174 -30.4386
L39.0262 -30.1911
L38.7314 -29.9419
L38.433 -29.6911
L38.1313 -29.4388
L37.8263 -29.1849
L37.518 -28.9296
L37.2068 -28.6728
L36.8928 -28.4147
L36.5762 -28.1553
L36.2573 -27.8947
L35.9364 -27.6329
L35.6138 -27.37
L35.2901 -27.106
L34.9656 -26.8411
L34.641 -26.5753
L34.3169 -26.3085
L33.9941 -26.0409
L33.6736 -25.7724
L33.3563 -25.503
L33.0436 -25.2327
L32.737 -24.9613
L32.438 -24.6886
L32.1489 -24.4145
L31.8719 -24.1387
L31.6097 -23.8608
L31.3656 -23.5802
L31.1429 -23.2965
L30.9453 -23.0089
L30.7767 -22.7168
L30.6406 -22.4193
L30.5402 -22.116
L30.4776 -21.8061
L30.4539 -21.4896
L30.4691 -21.1666
L30.5216 -20.8374
L30.6093 -20.503
L30.7291 -20.1644
L30.8778 -19.8229
L31.0522 -19.4796
L31.249 -19.1358
L31.4656 -18.7928
L31.6993 -18.4515
L31.9478 -18.1129
L32.2093 -17.7778
L32.482 -17.4469
L32.7645 -17.1209
L33.0554 -16.8002
L33.3537 -16.4852
L33.6585 -16.1765
L33.9688 -15.8742
L34.284 -15.5786
L34.6033 -15.29
L34.9261 -15.0085
L35.252 -14.7342
L35.5805 -14.4673
L35.9111 -14.2078
L36.2435 -13.9557
L36.5773 -13.7111
L36.9122 -13.4741
L37.2479 -13.2445
L37.5842 -13.0225
L37.9208 -12.8078
L38.2576 -12.6005
L38.5942 -12.4005
L38.9306 -12.2078
L39.2667 -12.0222
L39.6022 -11.8437
L39.937 -11.6722
L40.2711 -11.5076
L40.6044 -11.3497
L40.9367 -11.1986
L41.268 -11.054
L41.5982 -10.9158
L41.9273 -10.784
L42.2552 -10.6585
L42.5819 -10.5391
L42.9074 -10.4258
L43.2316 -10.3184
L43.5546 -10.2168
L43.8763 -10.1209
L44.1967 -10.0306
L44.5158 -9.94589
L44.8337 -9.86658
L45.1503 -9.79261
L45.4657 -9.72389
L45.7798 -9.66033
L46.0928 -9.60186
L46.4046 -9.54839
L46.8771 -9.49985
L47.3352 -9.6573
L47.7898 -9.85114
L48.2409 -10.0529
L48.6882 -10.2627
L49.1317 -10.4802
L49.5711 -10.7055
L50.0064 -10.9386
L50.4375 -11.1792
L50.8641 -11.4275
L51.2862 -11.6832
L51.7037 -11.9463
L52.1164 -12.2167
L52.5242 -12.4944
L52.9269 -12.7793
L53.3245 -13.0712
L53.7168 -13.3701
L54.1037 -13.6759
L54.4851 -13.9885
L54.8609 -14.3078
L55.2309 -14.6337
L55.5951 -14.9662
L55.9532 -15.305
L56.3054 -15.6501
L56.6513 -16.0014
L56.9909 -16.3589
L57.3242 -16.7223
L57.6509 -17.0916
L57.9711 -17.4666
L58.2845 -17.8473
L58.5912 -18.2335
L58.891 -18.6251
L59.1838 -19.022
L59.4696 -19.4241
L59.7482 -19.8313
L60.0196 -20.2433
L60.2836 -20.6602
L60.5403 -21.0817
L60.7895 -21.5078
L61.0311 -21.9383
L61.2651 -22.3731
L61.4914 -22.812
L61.71 -23.2549
L61.9207 -23.7018
L62.1235 -24.1523
L62.3184 -24.6065
L62.5052 -25.0642
L62.684 -25.5252
L62.8547 -25.9893
L63.0171 -26.4566
L63.1714 -26.9267
L63.3173 -27.3996
L63.455 -27.8751
L63.5842 -28.3531
L63.7051 -28.8334
L63.8175 -29.3159
L63.9215 -29.8005
L64.017 -30.2869
L64.1039 -30.7751
L64.1822 -31.2648
L64.252 -31.756
L64.3132 -32.2485
L64.3657 -32.7422
L64.4096 -33.2368
L64.4449 -33.7323
L64.4715 -34.2284
L64.4894 -34.7251
L64.4986 -35.2222
L64.4992 -35.7195
L64.491 -36.2169
L64.4742 -36.7143
L64.4488 -37.2114
L64.4146 -37.7082
L64.3718 -38.2044
L64.3204 -38.7
L64.2603 -39.1947
L64.1916 -39.6885
L64.1144 -40.1812
L64.0285 -40.6725
L63.9342 -41.1625
L63.8313 -41.6509
L63.7199 -42.1375
L63.6001 -42.6223
L63.4719 -43.1051
L63.3354 -43.5857
L63.1905 -44.064
L63.0373 -44.5398
L62.8759 -45.0131
L62.7063 -45.4836
L62.5285 -45.9512
L62.3427 -46.4157
L62.1489 -46.8771
L61.9471 -47.3352
L61.7373 -47.7898
L61.5198 -48.2409
L61.2945 -48.6882
L61.0614 -49.1317
L60.8208 -49.5711
L60.5725 -50.0064
L60.3168 -50.4375
L60.0537 -50.8641
L59.7833 -51.2862
L59.5056 -51.7037
L59.2207 -52.1164
L58.9288 -52.5242
L58.6299 -52.9269
z
" id="C0_1_6ee46cbf2a"/>
     <path d="
M25.3786 -62.3115
L25.1894 -62.0662
L25.0056 -61.821
L24.8269 -61.5759
L24.6531 -61.331
L24.4841 -61.0863
L24.3198 -60.8417
L24.1599 -60.5974
L24.0044 -60.3532
L23.8531 -60.1091
L23.7058 -59.8652
L23.5625 -59.6215
L23.4231 -59.3779
L23.2873 -59.1344
L23.1552 -58.891
L23.0266 -58.6476
L22.9013 -58.4043
L22.7794 -58.161
L22.6607 -57.9177
L22.5451 -57.6744
L22.4326 -57.4309
L22.3231 -57.1873
L22.2164 -56.9436
L22.1126 -56.6996
L22.0115 -56.4554
L21.9131 -56.211
L21.8174 -55.9662
L21.7242 -55.721
L21.6336 -55.4754
L21.5454 -55.2293
L21.4596 -54.9827
L21.3762 -54.7355
L21.2952 -54.4877
L21.2164 -54.2392
L21.1399 -53.9901
L21.0657 -53.7401
L20.9936 -53.4893
L20.9237 -53.2376
L20.856 -52.9849
L20.7904 -52.7313
L20.7269 -52.4765
L20.6654 -52.2207
L20.606 -51.9636
L20.5487 -51.7053
L20.4935 -51.4457
L20.4403 -51.1847
L20.3891 -50.9223
L20.3399 -50.6584
L20.2928 -50.3928
L20.2477 -50.1257
L20.2047 -49.8568
L20.1637 -49.5862
L20.1247 -49.3137
L20.0879 -49.0393
L20.0531 -48.763
L20.0204 -48.4845
L19.9898 -48.204
L19.9614 -47.9212
L19.9352 -47.6362
L19.9111 -47.3488
L19.8893 -47.059
L19.8698 -46.7667
L19.8525 -46.4718
L19.8376 -46.1743
L19.825 -45.8741
L19.8149 -45.5711
L19.8073 -45.2653
L19.8022 -44.9565
L19.7996 -44.6447
L19.7997 -44.3299
L19.8025 -44.0119
L19.808 -43.6907
L19.8163 -43.3663
L19.8275 -43.0385
L19.8417 -42.7073
L19.8589 -42.3726
L19.8791 -42.0345
L19.9026 -41.6928
L19.9292 -41.3475
L19.9592 -40.9985
L19.9926 -40.6458
L20.0295 -40.2894
L20.07 -39.9293
L20.1141 -39.5653
L20.1619 -39.1976
L20.2136 -38.8261
L20.2692 -38.4507
L20.3287 -38.0716
L20.3924 -37.6887
L20.4601 -37.302
L20.5321 -36.9116
L20.6083 -36.5176
L20.6889 -36.12
L20.7738 -35.7188
L20.8631 -35.3143
L20.9569 -34.9064
L21.0552 -34.4953
L21.1578 -34.0812
L21.2649 -33.6643
L21.3764 -33.2446
L21.4922 -32.8224
L21.6121 -32.398
L21.7361 -31.9715
L21.8638 -31.5434
L21.9952 -31.1138
L22.1298 -30.6831
L22.2672 -30.2517
L22.407 -29.8201
L22.5485 -29.3886
L22.6911 -28.9578
L22.8338 -28.5282
L22.9755 -28.1005
L23.1151 -27.6753
L23.2508 -27.2535
L23.3809 -26.8358
L23.5032 -26.4233
L23.615 -26.017
L23.7135 -25.618
L23.7953 -25.2276
L23.8568 -24.8472
L23.8945 -24.478
L23.9047 -24.1212
L23.8846 -23.778
L23.832 -23.4491
L23.7459 -23.1349
L23.6265 -22.8355
L23.4753 -22.5507
L23.2946 -22.2797
L23.0874 -22.0219
L22.857 -21.7764
L22.6066 -21.5424
L22.3393 -21.3191
L22.058 -21.1059
L21.7652 -20.902
L21.4631 -20.707
L21.1536 -20.5204
L20.8384 -20.3419
L20.5187 -20.1711
L20.1959 -20.0077
L19.8709 -19.8516
L19.5446 -19.7025
L19.2176 -19.5602
L18.8908 -19.4246
L18.5646 -19.2955
L18.2394 -19.1728
L17.9157 -19.0564
L17.5938 -18.9461
L17.274 -18.8419
L16.9566 -18.7435
L16.6417 -18.651
L16.3296 -18.5642
L16.0204 -18.483
L15.7142 -18.4074
L15.4111 -18.3371
L15.1113 -18.2721
L14.8146 -18.2123
L14.5213 -18.1576
L14.2313 -18.1079
L13.5786 -18.0632
L13.275 -18.4065
L12.9782 -18.8005
L12.6885 -19.1997
L12.4059 -19.6041
L12.1305 -20.0134
L11.8624 -20.4276
L11.6016 -20.8466
L11.3483 -21.2701
L11.1024 -21.6982
L10.8641 -22.1306
L10.6335 -22.5672
L10.4107 -23.008
L10.1956 -23.4527
L9.98835 -23.9012
L9.78905 -24.3534
L9.59774 -24.8091
L9.41446 -25.2682
L9.23929 -25.7307
L9.07226 -26.1962
L8.91344 -26.6647
L8.76287 -27.1361
L8.6206 -27.6102
L8.48666 -28.0868
L8.36111 -28.5659
L8.24398 -29.0472
L8.1353 -29.5306
L8.03511 -30.016
L7.94343 -30.5032
L7.86031 -30.9921
L7.78575 -31.4825
L7.71979 -31.9743
L7.66244 -32.4673
L7.61373 -32.9614
L7.57366 -33.4564
L7.54225 -33.9522
L7.51951 -34.4487
L7.50545 -34.9456
L7.50006 -35.4428
L7.50336 -35.9402
L7.51534 -36.4376
L7.53599 -36.9348
L7.56531 -37.4318
L7.6033 -37.9284
L7.64993 -38.4243
L7.7052 -38.9195
L7.76909 -39.4139
L7.84158 -39.9072
L7.92265 -40.3993
L8.01227 -40.89
L8.11041 -41.3793
L8.21705 -41.8669
L8.33215 -42.3528
L8.45569 -42.8367
L8.58761 -43.3185
L8.72788 -43.7981
L8.87646 -44.2753
L9.0333 -44.75
L9.19835 -45.2221
L9.37157 -45.6913
L9.5529 -46.1576
L9.74229 -46.6208
L9.93967 -47.0807
L10.145 -47.5373
L10.3582 -47.9904
L10.5792 -48.4398
L10.808 -48.8854
L11.0444 -49.3271
L11.2884 -49.7647
L11.54 -50.1981
L11.799 -50.6273
L12.0653 -51.0519
L12.339 -51.472
L12.6199 -51.8873
L12.9079 -52.2979
L13.2029 -52.7034
L13.5049 -53.1039
L13.8137 -53.4992
L14.1293 -53.8891
L14.4516 -54.2736
L14.7804 -54.6525
L15.1157 -55.0257
L15.4573 -55.3931
L15.8052 -55.7547
L16.1592 -56.1102
L16.5193 -56.4596
L16.8853 -56.8027
L17.2572 -57.1395
L17.6347 -57.4699
L18.0179 -57.7937
L18.4065 -58.1109
L18.8005 -58.4214
L19.1997 -58.725
L19.6041 -59.0218
L20.0134 -59.3115
L20.4276 -59.5941
L20.8466 -59.8695
L21.2701 -60.1376
L21.6982 -60.3984
L22.1306 -60.6517
L22.5672 -60.8976
L23.008 -61.1359
L23.4527 -61.3665
L23.9012 -61.5893
L24.3534 -61.8044
L24.8091 -62.0116
z
" id="C0_2_8995c42ae3"/>
    </defs>
    <g clip-path="url(#p1bffca34e9)">
     <use style="fill:#ff0000;stroke:#000000;stroke-width:2.0;" x="0.0" xlink:href="#C0_0_a811fe30f3" y="72.0"/>
    </g>
    <g clip-path="url(#p1bffca34e9)">
     <use style="fill:#ffffff;stroke:#000000;stroke-width:2.0;" x="0.0" xlink:href="#C0_1_6ee46cbf2a" y="72.0"/>
    </g>
    <g clip-path="url(#p1bffca34e9)">
     <use style="fill:#ffffff;stroke:#000000;stroke-width:2.0;" x="0.0" xlink:href="#C0_2_8995c42ae3" y="72.0"/>
    </g>
   </g>
  </g>
 </g>
 <defs>
  <clipPath id="p1bffca34e9">
   <rect height="72.0" width="72.0" x="0.0" y="0.0"/>
  </clipPath>
 </defs>
</svg>
