<?xml version="1.0" encoding="utf-8" standalone="no"?>
<!DOCTYPE svg PUBLIC "-//W3C//DTD SVG 1.1//EN"
  "http://www.w3.org/Graphics/SVG/1.1/DTD/svg11.dtd">
<!-- Created with matplotlib (http://matplotlib.org/) -->
<svg height="72pt" version="1.1" viewBox="0 0 72 72" width="72pt" xmlns="http://www.w3.org/2000/svg" xmlns:xlink="http://www.w3.org/1999/xlink">
 <defs>
  <style type="text/css">
*{stroke-linecap:butt;stroke-linejoin:round;}
  </style>
 </defs>
 <g id="figure_1">
  <g id="patch_1">
   <path d="
M0 72
L72 72
L72 0
L0 0
z
" style="fill:none;"/>
  </g>
  <g id="axes_1">
   <g id="PatchCollection_1">
    <defs>
     <path d="
M36 -7.5
C43.5583 -7.5 50.808 -10.5029 56.1525 -15.8475
C61.4971 -21.192 64.5 -28.4417 64.5 -36
C64.5 -43.5583 61.4971 -50.808 56.1525 -56.1525
C50.808 -61.4971 43.5583 -64.5 36 -64.5
C28.4417 -64.5 21.192 -61.4971 15.8475 -56.1525
C10.5029 -50.808 7.5 -43.5583 7.5 -36
C7.5 -28.4417 10.5029 -21.192 15.8475 -15.8475
C21.192 -10.5029 28.4417 -7.5 36 -7.5
z
" id="C0_0_a811fe30f3"/>
     <path d="
M18.7963 -13.417
L18.672 -13.7535
L18.5711 -14.0837
L18.4936 -14.4069
L18.4397 -14.7224
L18.4092 -15.0297
L18.4019 -15.3282
L18.4173 -15.6177
L18.455 -15.898
L18.514 -16.1691
L18.5935 -16.4312
L18.6927 -16.6844
L18.8104 -16.929
L18.9455 -17.1655
L19.0968 -17.3943
L19.2633 -17.6159
L19.4436 -17.8308
L19.6367 -18.0396
L19.8414 -18.2427
L20.0567 -18.4407
L20.2815 -18.6341
L20.5149 -18.8233
L20.7559 -19.0088
L21.0037 -19.1909
L21.2575 -19.37
L21.5166 -19.5463
L21.7803 -19.7203
L22.048 -19.8922
L22.319 -20.0622
L22.5928 -20.2304
L22.8691 -20.3971
L23.1472 -20.5625
L23.4269 -20.7265
L23.7077 -20.8895
L23.9894 -21.0515
L24.2715 -21.2125
L24.5539 -21.3726
L24.8362 -21.5319
L25.1183 -21.6905
L25.3999 -21.8484
L25.681 -22.0056
L25.9612 -22.1622
L26.2405 -22.3181
L26.5187 -22.4735
L26.7957 -22.6283
L27.0715 -22.7826
L27.3459 -22.9363
L27.6188 -23.0895
L27.8902 -23.2421
L28.1601 -23.3943
L28.4283 -23.546
L28.6949 -23.6972
L28.9598 -23.8479
L29.223 -23.9981
L29.4845 -24.1479
L29.7443 -24.2972
L30.0023 -24.4461
L30.2586 -24.5945
L30.5132 -24.7425
L30.7661 -24.8901
L31.0172 -25.0373
L31.2667 -25.1841
L31.5145 -25.3305
L31.7607 -25.4766
L32.0052 -25.6223
L32.2482 -25.7676
L32.4896 -25.9127
L32.7295 -26.0574
L32.9679 -26.2019
L33.2048 -26.346
L33.4403 -26.4899
L33.6744 -26.6336
L33.9071 -26.7771
L34.1386 -26.9204
L34.3688 -27.0635
L34.5977 -27.2064
L34.8255 -27.3492
L35.0522 -27.4919
L35.2777 -27.6345
L35.5022 -27.777
L35.7257 -27.9195
L35.9482 -28.062
L36.1698 -28.2044
L36.3905 -28.3469
L36.6103 -28.4895
L36.8294 -28.6321
L37.0478 -28.7748
L37.2654 -28.9177
L37.4824 -29.0607
L37.6988 -29.2039
L37.9146 -29.3474
L38.1299 -29.491
L38.3447 -29.635
L38.5591 -29.7792
L38.7731 -29.9238
L39.2001 -30.0687
L39.4132 -30.214
L39.6261 -30.3597
L39.8389 -30.5059
L40.0515 -30.6525
L40.264 -30.7996
L40.4765 -30.9473
L40.689 -31.0955
L40.9016 -31.2444
L41.1142 -31.3939
L41.327 -31.544
L41.5399 -31.6948
L41.7531 -31.8464
L41.9665 -31.9987
L42.1803 -32.1518
L42.3943 -32.3057
L42.6088 -32.4605
L42.8236 -32.6162
L43.0389 -32.7728
L43.2547 -32.9303
L43.4711 -33.0889
L43.688 -33.2484
L43.9055 -33.409
L44.1237 -33.5707
L44.3425 -33.7335
L44.5621 -33.8975
L44.7824 -34.0626
L45.0035 -34.229
L45.2254 -34.3965
L45.4481 -34.5654
L45.6717 -34.7355
L45.8963 -34.907
L46.1217 -35.0798
L46.3481 -35.254
L46.5755 -35.4296
L46.8039 -35.6065
L47.0334 -35.785
L47.2639 -35.9649
L47.4954 -36.1462
L47.7281 -36.329
L47.9618 -36.5133
L48.1967 -36.6992
L48.4326 -36.8865
L48.6697 -37.0753
L48.908 -37.2656
L49.1474 -37.4573
L49.3879 -37.6506
L49.6296 -37.8452
L49.8724 -38.0413
L50.1164 -38.2388
L50.3614 -38.4376
L50.6076 -38.6377
L50.8549 -38.8389
L51.1033 -39.0414
L51.3527 -39.2448
L51.6031 -39.4493
L51.8546 -39.6546
L52.107 -39.8606
L52.3604 -40.0672
L52.6148 -40.2742
L52.87 -40.4814
L53.126 -40.6887
L53.3829 -40.8958
L53.6406 -41.1025
L53.899 -41.3084
L54.1581 -41.5133
L54.4179 -41.7168
L54.6784 -41.9186
L54.9395 -42.1182
L55.2012 -42.3152
L55.4635 -42.509
L55.7265 -42.6992
L55.99 -42.885
L56.2541 -43.0659
L56.5189 -43.241
L56.7843 -43.4097
L57.0504 -43.571
L57.3173 -43.7241
L57.585 -43.8679
L57.8535 -44.0015
L58.1229 -44.1236
L58.3933 -44.2332
L58.6647 -44.3291
L58.9372 -44.41
L59.2107 -44.4746
L59.4854 -44.5218
L59.761 -44.5503
L60.0376 -44.559
L60.315 -44.5468
L60.5929 -44.5128
L60.8711 -44.4561
L61.1493 -44.3762
L61.4269 -44.2725
L61.7036 -44.1448
L61.9789 -43.993
L62.252 -43.8172
L62.5225 -43.6178
L62.7896 -43.3952
L63.0528 -43.15
L63.3112 -42.8829
L63.5644 -42.5949
L63.8116 -42.2869
L63.9673 -41.9598
L64.0588 -41.4845
L64.1417 -40.9955
L64.216 -40.5051
L64.2818 -40.0133
L64.3389 -39.5202
L64.3874 -39.0261
L64.4272 -38.5311
L64.4584 -38.0352
L64.4809 -37.5388
L64.4948 -37.0419
L64.5 -36.5447
L64.4964 -36.0473
L64.4842 -35.5499
L64.4634 -35.0526
L64.4338 -34.5557
L64.3956 -34.0591
L64.3488 -33.5632
L64.2933 -33.068
L64.2292 -32.5737
L64.1565 -32.0804
L64.0752 -31.5883
L63.9854 -31.0976
L63.887 -30.6084
L63.7801 -30.1208
L63.6648 -29.635
L63.5411 -29.1511
L63.409 -28.6694
L63.2685 -28.1898
L63.1197 -27.7126
L62.9626 -27.238
L62.7974 -26.766
L62.624 -26.2969
L62.4424 -25.8307
L62.2528 -25.3676
L62.0552 -24.9077
L61.8497 -24.4512
L61.6363 -23.9983
L61.4151 -23.5489
L61.1862 -23.1034
L60.9496 -22.6618
L60.7053 -22.2243
L60.4536 -21.791
L60.1944 -21.362
L59.9278 -20.9374
L59.654 -20.5175
L59.3729 -20.1022
L59.0848 -19.6918
L58.7895 -19.2864
L58.4874 -18.8861
L58.1784 -18.4909
L57.8626 -18.1012
L57.5402 -17.7168
L57.2112 -17.338
L56.8758 -16.965
L56.534 -16.5977
L56.186 -16.2363
L55.8318 -15.8809
L55.4715 -15.5317
L55.1053 -15.1887
L54.7334 -14.852
L54.3557 -14.5218
L53.9724 -14.1982
L53.5836 -13.8811
L53.1895 -13.5708
L52.7901 -13.2674
L52.3856 -12.9708
L51.9762 -12.6813
L51.5619 -12.3989
L51.1428 -12.1237
L50.7191 -11.8557
L50.2909 -11.5951
L49.8584 -11.342
L49.4217 -11.0963
L48.9809 -10.8582
L48.5361 -10.6278
L48.0875 -10.4051
L47.6352 -10.1903
L47.1794 -9.98323
L46.7201 -9.78413
L46.2576 -9.59301
L45.792 -9.40994
L45.3234 -9.23497
L44.852 -9.06816
L44.3778 -8.90954
L43.9011 -8.75918
L43.422 -8.61712
L42.9407 -8.48339
L42.4572 -8.35805
L41.9717 -8.24113
L41.4845 -8.13267
L40.9955 -8.03269
L40.5051 -7.94123
L40.0133 -7.85832
L39.5202 -7.78398
L39.0261 -7.71824
L38.5311 -7.66111
L38.0352 -7.61261
L37.5388 -7.57276
L37.0419 -7.54157
L36.5447 -7.51905
L36.0473 -7.50521
L35.5499 -7.50004
L35.0526 -7.50355
L34.5557 -7.51575
L34.0591 -7.53662
L33.5632 -7.56616
L33.068 -7.60437
L32.5737 -7.65122
L32.0804 -7.70671
L31.5883 -7.77082
L31.0976 -7.84352
L30.6084 -7.9248
L30.1208 -8.01464
L29.635 -8.113
L29.1511 -8.21985
L28.6694 -8.33517
L28.1898 -8.45891
L27.7126 -8.59104
L27.238 -8.73152
L26.766 -8.88031
L26.2969 -9.03736
L25.8307 -9.20262
L25.3676 -9.37604
L24.9077 -9.55758
L24.4512 -9.74717
L23.9983 -9.94475
L23.5489 -10.1503
L23.1034 -10.3637
L22.6618 -10.5849
L22.2243 -10.8138
L21.791 -11.0504
L21.362 -11.2947
L20.9374 -11.5464
L20.5175 -11.8056
L20.1022 -12.0722
L19.6918 -12.346
L19.2864 -12.6271
z
" id="C0_1_17af52df9c"/>
     <path d="
M8.16109 -30.428
L8.24619 -30.8462
L8.33288 -31.2698
L8.42169 -31.6977
L8.51308 -32.1292
L8.60743 -32.5632
L8.70509 -32.999
L8.80633 -33.4357
L8.91138 -33.8727
L9.02041 -34.3093
L9.13355 -34.7449
L9.2509 -35.179
L9.37251 -35.6111
L9.4984 -36.0406
L9.62857 -36.4673
L9.76298 -36.8908
L9.9016 -37.3107
L10.0444 -37.7267
L10.1912 -38.1387
L10.3419 -38.5463
L10.4965 -38.9494
L10.6549 -39.3479
L10.8169 -39.7415
L10.9824 -40.1303
L11.1513 -40.514
L11.3234 -40.8926
L11.4987 -41.2661
L11.677 -41.6344
L11.8582 -41.9974
L12.0421 -42.3553
L12.2287 -42.7079
L12.4179 -43.0553
L12.6094 -43.3975
L12.8033 -43.7345
L12.9994 -44.0664
L13.1976 -44.3932
L13.3979 -44.7149
L13.6001 -45.0317
L13.8041 -45.3435
L14.01 -45.6504
L14.2175 -45.9526
L14.4267 -46.25
L14.6374 -46.5427
L14.8496 -46.8309
L15.0633 -47.1145
L15.2784 -47.3937
L15.4949 -47.6685
L15.7126 -47.9391
L15.9317 -48.2054
L16.152 -48.4676
L16.3735 -48.7257
L16.5962 -48.9799
L16.82 -49.2302
L17.045 -49.4767
L17.2712 -49.7194
L17.4984 -49.9584
L17.7268 -50.1939
L17.9563 -50.4258
L18.1868 -50.6542
L18.4185 -50.8793
L18.6513 -51.101
L18.8852 -51.3195
L19.1202 -51.5348
L19.3563 -51.747
L19.5936 -51.9561
L19.832 -52.1621
L20.0716 -52.3653
L20.3124 -52.5655
L20.5544 -52.7629
L20.7977 -52.9575
L21.0422 -53.1493
L21.288 -53.3384
L21.5351 -53.5249
L21.7836 -53.7088
L22.0335 -53.8901
L22.2848 -54.0689
L22.5375 -54.2452
L22.7918 -54.419
L23.0476 -54.5904
L23.305 -54.7594
L23.564 -54.926
L23.8246 -55.0902
L24.087 -55.2522
L24.3511 -55.4119
L24.6171 -55.5692
L24.8849 -55.7243
L25.1546 -55.8772
L25.4262 -56.0278
L25.6999 -56.1762
L25.9756 -56.3224
L26.2535 -56.4663
L26.5335 -56.608
L26.8158 -56.7475
L27.1003 -56.8848
L27.3872 -57.0199
L27.6766 -57.1527
L27.9684 -57.2833
L28.2627 -57.4116
L28.5596 -57.5376
L28.8592 -57.6613
L29.1615 -57.7827
L29.4665 -57.9017
L29.7745 -58.0184
L30.0853 -58.1326
L30.3991 -58.2444
L30.7159 -58.3537
L31.0358 -58.4604
L31.3589 -58.5645
L31.6851 -58.6661
L32.0147 -58.7649
L32.3475 -58.861
L32.6838 -58.9542
L33.0235 -59.0447
L33.3666 -59.1321
L33.7134 -59.2166
L34.0637 -59.2979
L34.4176 -59.3761
L34.7752 -59.4511
L35.1365 -59.5227
L35.5015 -59.5909
L35.8703 -59.6556
L36.2429 -59.7168
L36.6193 -59.7742
L36.9995 -59.8278
L37.3835 -59.8775
L37.7712 -59.9233
L38.1628 -59.9649
L38.5582 -60.0023
L38.9572 -60.0355
L39.36 -60.0643
L39.7663 -60.0885
L40.1762 -60.1082
L40.5896 -60.1233
L41.0064 -60.1335
L41.4264 -60.139
L41.8495 -60.1395
L42.2756 -60.1351
L42.7045 -60.1257
L43.1361 -60.1112
L43.57 -60.0917
L44.0062 -60.0672
L44.4442 -60.0377
L44.8839 -60.0032
L45.325 -59.9639
L45.7671 -59.9198
L46.2098 -59.8711
L46.6528 -59.8181
L47.0956 -59.7609
L47.5378 -59.6998
L47.9789 -59.6352
L48.4184 -59.5675
L48.8558 -59.4973
L49.2904 -59.4249
L49.7216 -59.351
L50.1488 -59.2764
L50.5714 -59.2018
L50.9886 -59.128
L51.3997 -59.056
L51.8039 -58.9867
L52.2006 -58.9212
L52.5889 -58.8606
L52.6107 -58.806
L52.204 -59.1589
L51.7923 -59.4453
L51.3759 -59.7245
L50.9547 -59.9965
L50.529 -60.2612
L50.0989 -60.5185
L49.6645 -60.7683
L49.2259 -61.0106
L48.7833 -61.2453
L48.3368 -61.4723
L47.8866 -61.6915
L47.4327 -61.9029
L46.9753 -62.1064
L46.5146 -62.3019
L46.0507 -62.4895
L45.5837 -62.669
L45.1139 -62.8403
L44.6412 -63.0035
L44.1659 -63.1584
L43.6881 -63.3051
L43.208 -63.4434
L42.7257 -63.5734
L42.2413 -63.695
L41.755 -63.8082
L41.267 -63.9129
L40.7774 -64.0091
L40.2863 -64.0967
L39.7939 -64.1758
L39.3004 -64.2463
L38.8058 -64.3083
L38.3104 -64.3615
L37.8143 -64.4062
L37.3176 -64.4422
L36.8206 -64.4695
L36.3233 -64.4882
L35.8259 -64.4982
L35.3285 -64.4995
L34.8313 -64.4921
L34.3345 -64.476
L33.8383 -64.4513
L33.3426 -64.4179
L32.8478 -64.3758
L32.3539 -64.3251
L31.8612 -64.2658
L31.3697 -64.1979
L30.8796 -64.1213
L30.3911 -64.0363
L29.9043 -63.9426
L29.4193 -63.8405
L28.9364 -63.7299
L28.4556 -63.6108
L27.9771 -63.4833
L27.501 -63.3474
L27.0276 -63.2033
L26.5568 -63.0508
L26.089 -62.8901
L25.6241 -62.7212
L25.1624 -62.5441
L24.7041 -62.359
L24.2491 -62.1659
L23.7978 -61.9647
L23.3501 -61.7557
L22.9063 -61.5388
L22.4665 -61.3142
L22.0309 -61.0818
L21.5994 -60.8418
L21.1724 -60.5942
L20.7499 -60.3391
L20.332 -60.0766
L19.9189 -59.8068
L19.5107 -59.5297
L19.1075 -59.2455
L18.7095 -58.9542
L18.3167 -58.6559
L17.9294 -58.3507
L17.5475 -58.0387
L17.1712 -57.7199
L16.8007 -57.3946
L16.436 -57.0627
L16.0773 -56.7244
L15.7247 -56.3798
L15.3782 -56.029
L15.038 -55.6721
L14.7042 -55.3092
L14.3769 -54.9404
L14.0562 -54.5659
L13.7422 -54.1857
L13.4349 -53.8
L13.1345 -53.4088
L12.8411 -53.0123
L12.5547 -52.6107
L12.2755 -52.204
L12.0035 -51.7923
L11.7388 -51.3759
L11.4815 -50.9547
L11.2317 -50.529
L10.9894 -50.0989
L10.7547 -49.6645
L10.5277 -49.2259
L10.3085 -48.7833
L10.0971 -48.3368
L9.89361 -47.8866
L9.69806 -47.4327
L9.51052 -46.9753
L9.33105 -46.5146
L9.1597 -46.0507
L8.99653 -45.5837
L8.84158 -45.1139
L8.69491 -44.6412
L8.55655 -44.1659
L8.42656 -43.6881
L8.30496 -43.208
L8.1918 -42.7257
L8.08711 -42.2413
L7.99092 -41.755
L7.90326 -41.267
L7.82417 -40.7774
L7.75365 -40.2863
L7.69174 -39.7939
L7.63845 -39.3004
L7.5938 -38.8058
L7.55781 -38.3104
L7.53048 -37.8143
L7.51182 -37.3176
L7.50183 -36.8206
L7.50053 -36.3233
L7.50791 -35.8259
L7.52397 -35.3285
L7.5487 -34.8313
L7.5821 -34.3345
L7.62416 -33.8383
L7.67486 -33.3426
L7.73419 -32.8478
L7.80212 -32.3539
L7.87865 -31.8612
z
" id="C0_2_a9de162e9a"/>
    </defs>
    <g clip-path="url(#p1bffca34e9)">
     <use style="fill:#ff0000;stroke:#000000;stroke-width:2.0;" x="0.0" xlink:href="#C0_0_a811fe30f3" y="72.0"/>
    </g>
    <g clip-path="url(#p1bffca34e9)">
     <use style="fill:#ffffff;stroke:#000000;stroke-width:2.0;" x="0.0" xlink:href="#C0_1_17af52df9c" y="72.0"/>
    </g>
    <g clip-path="url(#p1bffca34e9)">
     <use style="fill:#ffffff;stroke:#000000;stroke-width:2.0;" x="0.0" xlink:href="#C0_2_a9de162e9a" y="72.0"/>
    </g>
   </g>
  </g>
 </g>
 <defs>
  <clipPath id="p1bffca34e9">
   <rect height="72.0" width="72.0" x="0.0" y="0.0"/>
  </clipPath>
 </defs>
</svg>
