<?xml version="1.0" encoding="utf-8" standalone="no"?>
<!DOCTYPE svg PUBLIC "-//W3C//DTD SVG 1.1//EN"
  "http://www.w3.org/Graphics/SVG/1.1/DTD/svg11.dtd">
<!-- Created with matplotlib (http://matplotlib.org/) -->
<svg height="72pt" version="1.1" viewBox="0 0 72 72" width="72pt" xmlns="http://www.w3.org/2000/svg" xmlns:xlink="http://www.w3.org/1999/xlink">
 <defs>
  <style type="text/css">
*{stroke-linecap:butt;stroke-linejoin:round;}
  </style>
 </defs>
 <g id="figure_1">
  <g id="patch_1">
   <path d="
M0 72
L72 72
L72 0
L0 0
z
" style="fill:none;"/>
  </g>
  <g id="axes_1">
   <g id="PatchCollection_1">
    <defs>
     <path d="
M36 -7.5
C43.5583 -7.5 50.808 -10.5029 56.1525 -15.8475
C61.4971 -21.192 64.5 -28.4417 64.5 -36
C64.5 -43.5583 61.4971 -50.808 56.1525 -56.1525
C50.808 -61.4971 43.5583 -64.5 36 -64.5
C28.4417 -64.5 21.192 -61.4971 15.8475 -56.1525
C10.5029 -50.808 7.5 -43.5583 7.5 -36
C7.5 -28.4417 10.5029 -21.192 15.8475 -15.8475
C21.192 -10.5029 28.4417 -7.5 36 -7.5
z
" id="C0_0_a811fe30f3"/>
     <path d="
M41.9956 -63.7107
L41.6756 -63.5758
L41.3819 -63.4241
L41.115 -63.2562
L40.8749 -63.0727
L40.6612 -62.8743
L40.4732 -62.662
L40.3099 -62.4365
L40.17 -62.1989
L40.0519 -61.9499
L39.9541 -61.6906
L39.8747 -61.4218
L39.8121 -61.1444
L39.7646 -60.8592
L39.7306 -60.5671
L39.7085 -60.2687
L39.6969 -59.9647
L39.6945 -59.6559
L39.7002 -59.3428
L39.7128 -59.0259
L39.7315 -58.7058
L39.7553 -58.383
L39.7835 -58.0578
L39.8154 -57.7308
L39.8504 -57.4022
L39.8881 -57.0724
L39.9278 -56.7418
L39.9692 -56.4106
L40.012 -56.0791
L40.0559 -55.7475
L40.1005 -55.4161
L40.1456 -55.0851
L40.1911 -54.7547
L40.2367 -54.4251
L40.2823 -54.0963
L40.3277 -53.7686
L40.3728 -53.4421
L40.4176 -53.1169
L40.4619 -52.7931
L40.5056 -52.4708
L40.5488 -52.1501
L40.5913 -51.831
L40.6331 -51.5137
L40.6742 -51.1981
L40.7145 -50.8843
L40.754 -50.5723
L40.7927 -50.2622
L40.8306 -49.954
L40.8677 -49.6477
L40.904 -49.3433
L40.9394 -49.0408
L40.974 -48.7403
L41.0077 -48.4416
L41.0406 -48.1448
L41.0727 -47.85
L41.104 -47.5569
L41.1345 -47.2657
L41.1642 -46.9763
L41.1931 -46.6887
L41.2212 -46.4028
L41.2485 -46.1187
L41.2751 -45.8362
L41.301 -45.5553
L41.3261 -45.2761
L41.3505 -44.9984
L41.3742 -44.7222
L41.3972 -44.4474
L41.4195 -44.1741
L41.4411 -43.9022
L41.4621 -43.6315
L41.4824 -43.3622
L41.5021 -43.094
L41.5212 -42.827
L41.5397 -42.5611
L41.5575 -42.2963
L41.5748 -42.0325
L41.5914 -41.7696
L41.6075 -41.5077
L41.623 -41.2466
L41.638 -40.9862
L41.6524 -40.7266
L41.6663 -40.4677
L41.6796 -40.2094
L41.6924 -39.9517
L41.7047 -39.6944
L41.7164 -39.4377
L41.7277 -39.1813
L41.7384 -38.9252
L41.7486 -38.6695
L41.7584 -38.4139
L41.7676 -38.1586
L41.7763 -37.9033
L41.7924 -37.6481
L41.7996 -37.3929
L41.8064 -37.1376
L41.8128 -36.8822
L41.8186 -36.6267
L41.824 -36.3709
L41.8288 -36.1148
L41.8332 -35.8584
L41.8372 -35.6015
L41.8406 -35.3442
L41.8435 -35.0864
L41.846 -34.828
L41.848 -34.5689
L41.8494 -34.3092
L41.8504 -34.0487
L41.8509 -33.7874
L41.8509 -33.5252
L41.8503 -33.2621
L41.8493 -32.9981
L41.8477 -32.733
L41.8456 -32.4668
L41.843 -32.1994
L41.8398 -31.9308
L41.8361 -31.661
L41.8319 -31.3899
L41.8271 -31.1174
L41.8217 -30.8434
L41.8157 -30.568
L41.8092 -30.291
L41.802 -30.0125
L41.7943 -29.7323
L41.7859 -29.4505
L41.777 -29.1669
L41.7674 -28.8815
L41.7571 -28.5944
L41.7462 -28.3053
L41.7347 -28.0144
L41.7225 -27.7215
L41.7096 -27.4266
L41.6961 -27.1297
L41.6819 -26.8307
L41.667 -26.5297
L41.6514 -26.2266
L41.6351 -25.9213
L41.6181 -25.6139
L41.6004 -25.3044
L41.5821 -24.9927
L41.563 -24.6788
L41.5433 -24.3628
L41.5229 -24.0447
L41.5019 -23.7244
L41.4803 -23.402
L41.458 -23.0776
L41.4352 -22.7511
L41.4119 -22.4226
L41.3881 -22.0922
L41.3638 -21.7599
L41.3392 -21.4259
L41.3144 -21.0902
L41.2893 -20.7529
L41.2642 -20.4141
L41.2391 -20.074
L41.2142 -19.7327
L41.1897 -19.3904
L41.1657 -19.0473
L41.1424 -18.7036
L41.1202 -18.3594
L41.0992 -18.0151
L41.0799 -17.6708
L41.0626 -17.327
L41.0477 -16.9839
L41.0356 -16.6418
L41.0271 -16.3012
L41.0225 -15.9625
L41.0227 -15.626
L41.0285 -15.2924
L41.0406 -14.962
L41.0602 -14.6356
L41.0881 -14.3137
L41.1258 -13.9971
L41.1743 -13.6864
L41.2351 -13.3824
L41.3098 -13.0859
L41.3997 -12.798
L41.5065 -12.5194
L41.6317 -12.2511
L41.7767 -11.9942
L41.943 -11.7496
L42.1316 -11.5183
L42.3436 -11.3013
L42.5794 -11.0994
L42.8394 -10.9135
L43.1234 -10.7442
L43.4311 -10.5921
L43.7616 -10.4577
L44.1138 -10.3413
L44.4864 -10.2431
L44.878 -10.1632
L45.2868 -10.1016
L45.7112 -10.0581
L46.1494 -10.0325
L46.5998 -10.0247
L47.0606 -10.0344
L47.5303 -10.0611
L48.0072 -10.1047
L48.461 -10.1646
L48.9064 -10.3685
L49.3479 -10.5899
L49.7853 -10.819
L50.2186 -11.0558
L50.6475 -11.3002
L51.0719 -11.5521
L51.4918 -11.8114
L51.9069 -12.0781
L52.3172 -12.3522
L52.7225 -12.6334
L53.1227 -12.9217
L53.5177 -13.2171
L53.9074 -13.5194
L54.2916 -13.8285
L54.6703 -14.1444
L55.0432 -14.467
L55.4104 -14.7961
L55.7717 -15.1317
L56.1269 -15.4736
L56.476 -15.8218
L56.8188 -16.1762
L57.1553 -16.5365
L57.4854 -16.9028
L57.8089 -17.275
L58.1258 -17.6528
L58.436 -18.0362
L58.7393 -18.4251
L59.0356 -18.8193
L59.325 -19.2188
L59.6073 -19.6234
L59.8823 -20.0329
L60.1501 -20.4474
L60.4106 -20.8665
L60.6636 -21.2903
L60.9091 -21.7186
L61.147 -22.1512
L61.3772 -22.588
L61.5997 -23.029
L61.8144 -23.4738
L62.0213 -23.9225
L62.2202 -24.3749
L62.4111 -24.8308
L62.594 -25.2901
L62.7688 -25.7527
L62.9354 -26.2183
L63.0939 -26.687
L63.2441 -27.1585
L63.3859 -27.6327
L63.5195 -28.1095
L63.6446 -28.5886
L63.7614 -29.07
L63.8696 -29.5536
L63.9694 -30.039
L64.0607 -30.5263
L64.1434 -31.0153
L64.2176 -31.5058
L64.2831 -31.9976
L64.3401 -32.4907
L64.3884 -32.9849
L64.428 -33.4799
L64.459 -33.9758
L64.4813 -34.4722
L64.495 -34.9691
L64.5 -35.4663
L64.4963 -35.9637
L64.4839 -36.4611
L64.4628 -36.9584
L64.4331 -37.4553
L64.3947 -37.9519
L64.3476 -38.4478
L64.292 -38.943
L64.2277 -39.4373
L64.1548 -39.9305
L64.0733 -40.4225
L63.9833 -40.9132
L63.8847 -41.4024
L63.7777 -41.89
L63.6622 -42.3758
L63.5383 -42.8596
L63.4059 -43.3413
L63.2653 -43.8208
L63.1163 -44.2979
L62.9591 -44.7725
L62.7936 -45.2444
L62.62 -45.7135
L62.4383 -46.1796
L62.2485 -46.6426
L62.0508 -47.1024
L61.8451 -47.5588
L61.6315 -48.0117
L61.4101 -48.461
L61.181 -48.9064
L60.9442 -49.3479
L60.6998 -49.7853
L60.4479 -50.2186
L60.1886 -50.6475
L59.9219 -51.0719
L59.6478 -51.4918
L59.3666 -51.9069
L59.0783 -52.3172
L58.7829 -52.7225
L58.4806 -53.1227
L58.1715 -53.5177
L57.8556 -53.9074
L57.533 -54.2916
L57.2039 -54.6703
L56.8683 -55.0432
L56.5264 -55.4104
L56.1782 -55.7717
L55.8238 -56.1269
L55.4635 -56.476
L55.0972 -56.8188
L54.725 -57.1553
L54.3472 -57.4854
L53.9638 -57.8089
L53.5749 -58.1258
L53.1807 -58.436
L52.7812 -58.7393
L52.3766 -59.0356
L51.9671 -59.325
L51.5526 -59.6073
L51.1335 -59.8823
L50.7097 -60.1501
L50.2814 -60.4106
L49.8488 -60.6636
L49.412 -60.9091
L48.971 -61.147
L48.5262 -61.3772
L48.0775 -61.5997
L47.6251 -61.8144
L47.1692 -62.0213
L46.7099 -62.2202
L46.2473 -62.4111
L45.7817 -62.594
L45.313 -62.7688
L44.8415 -62.9354
L44.3673 -63.0939
L43.8905 -63.2441
L43.4114 -63.3859
L42.93 -63.5195
z
" id="C0_1_26a4d53b10"/>
     <path d="
M23.6217 -61.529
L23.2602 -61.1981
L22.9003 -60.8624
L22.543 -60.5222
L22.1893 -60.1777
L21.8398 -59.8292
L21.4952 -59.477
L21.1562 -59.1214
L20.8231 -58.7627
L20.4963 -58.4013
L20.1763 -58.0374
L19.8633 -57.6713
L19.5575 -57.3034
L19.2591 -56.9339
L18.9682 -56.563
L18.6849 -56.1911
L18.4092 -55.8183
L18.1413 -55.445
L17.881 -55.0713
L17.6284 -54.6975
L17.3834 -54.3237
L17.146 -53.9501
L16.916 -53.577
L16.6935 -53.2044
L16.4782 -52.8325
L16.2701 -52.4615
L16.0691 -52.0914
L15.8751 -51.7224
L15.6879 -51.3546
L15.5073 -50.988
L15.3333 -50.6228
L15.1658 -50.259
L15.0045 -49.8967
L14.8493 -49.5359
L14.7002 -49.1766
L14.557 -48.819
L14.4195 -48.463
L14.2876 -48.1087
L14.1612 -47.7561
L14.0401 -47.4051
L13.9243 -47.0558
L13.8136 -46.7083
L13.7079 -46.3624
L13.607 -46.0181
L13.5109 -45.6756
L13.4195 -45.3347
L13.3326 -44.9954
L13.2502 -44.6577
L13.1721 -44.3215
L13.0982 -43.9869
L13.0286 -43.6538
L12.963 -43.3222
L12.9014 -42.992
L12.8437 -42.6631
L12.7899 -42.3357
L12.7398 -42.0095
L12.6935 -41.6846
L12.6508 -41.3609
L12.6116 -41.0383
L12.576 -40.7169
L12.5439 -40.3966
L12.5152 -40.0772
L12.4899 -39.7589
L12.4679 -39.4414
L12.4492 -39.1248
L12.4337 -38.809
L12.4215 -38.4939
L12.4125 -38.1796
L12.4066 -37.8659
L12.4039 -37.5528
L12.4043 -37.2402
L12.4079 -36.9281
L12.4145 -36.6164
L12.4242 -36.3051
L12.437 -35.9942
L12.4529 -35.6834
L12.4719 -35.3729
L12.4939 -35.0625
L12.519 -34.7523
L12.5473 -34.442
L12.5786 -34.1318
L12.613 -33.8215
L12.6506 -33.5111
L12.6914 -33.2005
L12.7353 -32.8897
L12.7824 -32.5786
L12.8328 -32.2672
L12.8864 -31.9554
L12.9434 -31.6432
L13.0037 -31.3305
L13.0674 -31.0173
L13.1345 -30.7036
L13.2052 -30.3892
L13.2793 -30.0742
L13.3571 -29.7585
L13.4385 -29.442
L13.5236 -29.1247
L13.6125 -28.8067
L13.7053 -28.4878
L13.8019 -28.168
L13.9026 -27.8472
L14.0074 -27.5255
L14.1163 -27.2029
L14.2294 -26.8792
L14.3469 -26.5545
L14.4687 -26.2288
L14.5951 -25.902
L14.7261 -25.5741
L14.8619 -25.2451
L15.0024 -24.9151
L15.1478 -24.5839
L15.2983 -24.2517
L15.4539 -23.9184
L15.6147 -23.584
L15.7809 -23.2485
L15.9525 -22.9121
L16.1298 -22.5746
L16.3127 -22.2362
L16.5014 -21.8968
L16.6961 -21.5566
L16.8968 -21.2156
L17.1037 -20.8739
L17.3168 -20.5314
L17.5364 -20.1884
L17.7624 -19.8449
L17.9949 -19.501
L18.2342 -19.1568
L18.4802 -18.8124
L18.733 -18.468
L18.9927 -18.1237
L19.2594 -17.7796
L19.5331 -17.4359
L19.8138 -17.0928
L20.1015 -16.7505
L20.3962 -16.409
L20.6979 -16.0687
L21.0065 -15.7298
L21.3219 -15.3924
L21.644 -15.0567
L21.9726 -14.723
L22.3076 -14.3916
L22.6486 -14.0626
L22.9954 -13.7363
L23.3476 -13.4129
L23.7047 -13.0927
L24.0664 -12.7758
L24.432 -12.4626
L24.8008 -12.153
L25.1721 -11.8475
L25.5451 -11.546
L25.9187 -11.2488
L26.292 -10.9559
L26.6637 -10.6674
L27.0324 -10.3833
L27.3968 -10.1035
L27.7552 -9.82797
L28.1058 -9.55659
L28.447 -9.28913
L28.7766 -9.02534
L29.0929 -8.76493
L29.3938 -8.50756
L29.1842 -8.25287
L28.7023 -8.327
L28.2226 -8.45017
L27.7452 -8.58173
L27.2704 -8.72164
L26.7983 -8.86986
L26.3289 -9.02634
L25.8625 -9.19104
L25.3992 -9.36391
L24.9391 -9.54489
L24.4824 -9.73393
L24.0292 -9.93097
L23.5796 -10.1359
L23.1338 -10.3488
L22.692 -10.5695
L22.2541 -10.7979
L21.8205 -11.034
L21.3912 -11.2777
L20.9664 -11.5289
L20.5461 -11.7876
L20.1305 -12.0537
L19.7198 -12.327
L19.314 -12.6076
L18.9133 -12.8953
L18.5178 -13.19
L18.1277 -13.4917
L17.743 -13.8002
L17.3638 -14.1155
L16.9903 -14.4375
L16.6226 -14.766
L16.2608 -15.101
L15.9051 -15.4424
L15.5554 -15.79
L15.212 -16.1438
L14.8749 -16.5036
L14.5442 -16.8694
L14.2201 -17.241
L13.9026 -17.6183
L13.5919 -18.0012
L13.2879 -18.3896
L12.9909 -18.7834
L12.7009 -19.1824
L12.418 -19.5865
L12.1423 -19.9956
L11.8738 -20.4096
L11.6127 -20.8284
L11.3591 -21.2517
L11.1129 -21.6796
L10.8743 -22.1118
L10.6434 -22.5483
L10.4201 -22.9888
L10.2047 -23.4333
L9.99715 -23.8817
L9.79751 -24.3337
L9.60585 -24.7893
L9.42222 -25.2483
L9.2467 -25.7106
L9.07932 -26.176
L8.92014 -26.6444
L8.76921 -27.1157
L8.62658 -27.5896
L8.49228 -28.0662
L8.36637 -28.5451
L8.24887 -29.0263
L8.13982 -29.5096
L8.03926 -29.995
L7.94722 -30.4821
L7.86373 -30.9709
L7.7888 -31.4613
L7.72247 -31.953
L7.66475 -32.446
L7.61566 -32.94
L7.57522 -33.435
L7.54343 -33.9308
L7.52032 -34.4272
L7.50588 -34.9241
L7.50012 -35.4213
L7.50304 -35.9186
L7.51464 -36.416
L7.53492 -36.9133
L7.56386 -37.4103
L7.60148 -37.9069
L7.64774 -38.4029
L7.70263 -38.8981
L7.76615 -39.3925
L7.83827 -39.8858
L7.91896 -40.378
L8.00821 -40.8688
L8.10599 -41.3582
L8.21226 -41.8459
L8.327 -42.3318
L8.45017 -42.8158
L8.58173 -43.2977
L8.72164 -43.7774
L8.86986 -44.2548
L9.02634 -44.7296
L9.19104 -45.2017
L9.36391 -45.6711
L9.54489 -46.1375
L9.73393 -46.6008
L9.93097 -47.0609
L10.1359 -47.5176
L10.3488 -47.9708
L10.5695 -48.4204
L10.7979 -48.8662
L11.034 -49.308
L11.2777 -49.7459
L11.5289 -50.1795
L11.7876 -50.6088
L12.0537 -51.0336
L12.327 -51.4539
L12.6076 -51.8695
L12.8953 -52.2802
L13.19 -52.686
L13.4917 -53.0867
L13.8002 -53.4822
L14.1155 -53.8723
L14.4375 -54.257
L14.766 -54.6362
L15.101 -55.0097
L15.4424 -55.3774
L15.79 -55.7392
L16.1438 -56.0949
L16.5036 -56.4446
L16.8694 -56.788
L17.241 -57.1251
L17.6183 -57.4558
L18.0012 -57.7799
L18.3896 -58.0974
L18.7834 -58.4081
L19.1824 -58.7121
L19.5865 -59.0091
L19.9956 -59.2991
L20.4096 -59.582
L20.8284 -59.8577
L21.2517 -60.1262
L21.6796 -60.3873
L22.1118 -60.6409
L22.5483 -60.8871
L22.9888 -61.1257
z
" id="C0_2_22394d657d"/>
    </defs>
    <g clip-path="url(#p1bffca34e9)">
     <use style="fill:#ff0000;stroke:#000000;stroke-width:2.0;" x="0.0" xlink:href="#C0_0_a811fe30f3" y="72.0"/>
    </g>
    <g clip-path="url(#p1bffca34e9)">
     <use style="fill:#ffffff;stroke:#000000;stroke-width:2.0;" x="0.0" xlink:href="#C0_1_26a4d53b10" y="72.0"/>
    </g>
    <g clip-path="url(#p1bffca34e9)">
     <use style="fill:#ffffff;stroke:#000000;stroke-width:2.0;" x="0.0" xlink:href="#C0_2_22394d657d" y="72.0"/>
    </g>
   </g>
  </g>
 </g>
 <defs>
  <clipPath id="p1bffca34e9">
   <rect height="72.0" width="72.0" x="0.0" y="0.0"/>
  </clipPath>
 </defs>
</svg>
