<?xml version="1.0" encoding="utf-8" standalone="no"?>
<!DOCTYPE svg PUBLIC "-//W3C//DTD SVG 1.1//EN"
  "http://www.w3.org/Graphics/SVG/1.1/DTD/svg11.dtd">
<!-- Created with matplotlib (http://matplotlib.org/) -->
<svg height="72pt" version="1.1" viewBox="0 0 72 72" width="72pt" xmlns="http://www.w3.org/2000/svg" xmlns:xlink="http://www.w3.org/1999/xlink">
 <defs>
  <style type="text/css">
*{stroke-linecap:butt;stroke-linejoin:round;}
  </style>
 </defs>
 <g id="figure_1">
  <g id="patch_1">
   <path d="
M0 72
L72 72
L72 0
L0 0
z
" style="fill:none;"/>
  </g>
  <g id="axes_1">
   <g id="PatchCollection_1">
    <defs>
     <path d="
M36 -7.5
C43.5583 -7.5 50.808 -10.5029 56.1525 -15.8475
C61.4971 -21.192 64.5 -28.4417 64.5 -36
C64.5 -43.5583 61.4971 -50.808 56.1525 -56.1525
C50.808 -61.4971 43.5583 -64.5 36 -64.5
C28.4417 -64.5 21.192 -61.4971 15.8475 -56.1525
C10.5029 -50.808 7.5 -43.5583 7.5 -36
C7.5 -28.4417 10.5029 -21.192 15.8475 -15.8475
C21.192 -10.5029 28.4417 -7.5 36 -7.5
z
" id="C0_0_a811fe30f3"/>
     <path d="
M16.7371 -14.9986
L16.8896 -15.1123
L17.0431 -15.2262
L17.1976 -15.3404
L17.3531 -15.455
L17.5096 -15.5699
L17.6671 -15.6851
L17.8257 -15.8007
L17.9853 -15.9167
L18.146 -16.0331
L18.4706 -16.15
L18.6345 -16.2673
L18.7995 -16.3852
L18.9657 -16.5035
L19.133 -16.6224
L19.3014 -16.7418
L19.4711 -16.8618
L19.642 -16.9824
L19.8141 -17.1036
L19.9875 -17.2254
L20.1621 -17.3479
L20.3381 -17.4711
L20.5154 -17.595
L20.6941 -17.7196
L20.8742 -17.8449
L21.0557 -17.971
L21.2386 -18.0979
L21.423 -18.2256
L21.609 -18.3541
L21.7965 -18.4834
L21.9856 -18.6136
L22.1762 -18.7446
L22.3686 -18.8766
L22.5626 -19.0094
L22.7583 -19.1431
L22.9558 -19.2778
L23.155 -19.4134
L23.3561 -19.5499
L23.559 -19.6874
L23.7637 -19.8259
L23.9704 -19.9654
L24.1791 -20.1058
L24.3897 -20.2473
L24.6024 -20.3897
L24.8171 -20.5331
L25.0339 -20.6776
L25.2528 -20.823
L25.4739 -20.9694
L25.6972 -21.1167
L25.9226 -21.2651
L26.1504 -21.4144
L26.3804 -21.5646
L26.6127 -21.7158
L26.8473 -21.8678
L27.0843 -22.0207
L27.3237 -22.1745
L27.5655 -22.329
L27.8097 -22.4843
L28.0563 -22.6403
L28.3055 -22.7969
L28.5571 -22.9541
L28.8112 -23.1119
L29.0678 -23.2701
L29.3269 -23.4287
L29.5885 -23.5875
L29.8527 -23.7466
L30.1194 -23.9057
L30.3886 -24.0648
L30.6603 -24.2238
L30.9345 -24.3825
L31.2113 -24.5408
L31.4905 -24.6985
L31.7721 -24.8555
L32.0563 -25.0115
L32.3428 -25.1665
L32.6317 -25.3203
L32.9229 -25.4725
L33.2164 -25.623
L33.5122 -25.7717
L33.8103 -25.9181
L34.1104 -26.0622
L34.4127 -26.2035
L34.7171 -26.342
L35.0234 -26.4772
L35.3316 -26.6089
L35.6416 -26.7369
L35.9535 -26.8608
L36.2669 -26.9803
L36.582 -27.0951
L36.8986 -27.2049
L37.2166 -27.3096
L37.5358 -27.4086
L37.8563 -27.5019
L38.1778 -27.589
L38.5003 -27.6699
L38.8237 -27.7441
L39.1478 -27.8116
L39.4725 -27.8721
L39.7976 -27.9255
L40.1231 -27.9716
L40.4488 -28.0104
L40.7745 -28.0416
L41.1001 -28.0654
L41.4255 -28.0816
L41.7505 -28.0903
L42.075 -28.0916
L42.3988 -28.0855
L42.7218 -28.0721
L43.0439 -28.0515
L43.3648 -28.024
L43.6844 -27.9896
L44.0027 -27.9486
L44.3194 -27.9012
L44.6344 -27.8476
L44.9476 -27.7881
L45.2589 -27.7229
L45.5681 -27.6522
L45.8752 -27.5764
L46.18 -27.4957
L46.4824 -27.4103
L46.7823 -27.3205
L47.0797 -27.2267
L47.3744 -27.1289
L47.6663 -27.0275
L47.9554 -26.9227
L48.2417 -26.8147
L48.525 -26.7038
L48.8052 -26.5902
L49.0825 -26.4741
L49.3566 -26.3557
L49.6277 -26.2351
L49.8955 -26.1126
L50.1602 -25.9883
L50.4216 -25.8624
L50.6798 -25.735
L50.9348 -25.6063
L51.1865 -25.4764
L51.435 -25.3454
L51.6802 -25.2135
L51.9222 -25.0807
L52.1609 -24.9471
L52.3964 -24.8129
L52.6286 -24.6782
L52.8577 -24.5429
L53.0836 -24.4072
L53.3063 -24.2711
L53.5258 -24.1348
L53.7423 -23.9982
L53.9556 -23.8614
L54.1659 -23.7245
L54.3731 -23.5875
L54.5774 -23.4504
L54.7786 -23.3132
L54.977 -23.1761
L55.1724 -23.0389
L55.3649 -22.9018
L55.5545 -22.7647
L55.7414 -22.6277
L55.9255 -22.4907
L56.1068 -22.3538
L56.2854 -22.2171
L56.4613 -22.0803
L56.6346 -21.9437
L56.8053 -21.8072
L56.9733 -21.6707
L57.1388 -21.5343
L57.3018 -21.398
L57.4623 -21.2617
L57.6203 -21.1254
L57.7758 -20.9892
L57.9289 -20.853
L58.0797 -20.7168
L58.228 -20.5805
L58.374 -20.4442
L58.5177 -20.3078
L58.6591 -20.1714
L58.7981 -20.0348
L58.9349 -19.8981
L59.0694 -19.7612
L59.2017 -19.6241
L58.9276 -19.4868
L58.6286 -19.0714
L58.3228 -18.6738
L58.0102 -18.2816
L57.6908 -17.8947
L57.3649 -17.5133
L57.0324 -17.1376
L56.6936 -16.7676
L56.3484 -16.4034
L55.9971 -16.0453
L55.6396 -15.6932
L55.2762 -15.3473
L54.9069 -15.0077
L54.5318 -14.6744
L54.1511 -14.3477
L53.7649 -14.0276
L53.3732 -13.7142
L52.9763 -13.4075
L52.5742 -13.1077
L52.167 -12.815
L51.7549 -12.5292
L51.3381 -12.2506
L50.9165 -11.9793
L50.4904 -11.7153
L50.0599 -11.4586
L49.6251 -11.2095
L49.1861 -10.9679
L48.7432 -10.7339
L48.2963 -10.5076
L47.8458 -10.2891
L47.3916 -10.0784
L46.9339 -9.87563
L46.4729 -9.6808
L46.0087 -9.49399
L45.5415 -9.31525
L45.0713 -9.14464
L44.5984 -8.98221
L44.1229 -8.828
L43.6449 -8.68208
L43.1646 -8.54448
L42.682 -8.41524
L42.1975 -8.2944
L41.7111 -8.182
L41.2229 -8.07808
L40.7331 -7.98266
L40.2419 -7.89577
L39.7494 -7.81745
L39.2558 -7.74771
L38.7611 -7.68658
L38.2657 -7.63407
L37.7695 -7.5902
L37.2728 -7.55499
L36.7757 -7.52844
L36.2784 -7.51056
L35.781 -7.50136
L35.2836 -7.50084
L34.7865 -7.509
L34.2897 -7.52585
L33.7935 -7.55136
L33.2979 -7.58554
L32.8032 -7.62838
L32.3094 -7.67986
L31.8168 -7.73996
L31.3254 -7.80868
L30.8355 -7.88598
L30.3471 -7.97184
L29.8604 -8.06625
L29.3757 -8.16916
L28.8929 -8.28055
L28.4123 -8.40038
L27.934 -8.52862
L27.4582 -8.66523
L26.985 -8.81016
L26.5145 -8.96338
L26.0469 -9.12483
L25.5823 -9.29447
L25.1209 -9.47224
L24.6629 -9.65809
L24.2082 -9.85197
L23.7572 -10.0538
L23.3099 -10.2636
L22.8665 -10.4811
L22.4271 -10.7065
L21.9918 -10.9396
L21.5607 -11.1803
L21.1341 -11.4285
L20.712 -11.6843
L20.2945 -11.9474
L19.8819 -12.2179
L19.4741 -12.4956
L19.0714 -12.7805
L18.6738 -13.0724
L18.2816 -13.3714
L17.8947 -13.6772
L17.5133 -13.9898
L17.1376 -14.3092
z
" id="C0_1_69dc43831a"/>
     <path d="
M12.9358 -52.4598
L13.11 -52.3811
L13.2851 -52.3023
L13.4614 -52.2233
L13.6387 -52.1443
L13.817 -52.0651
L13.9965 -51.9858
L14.177 -51.9062
L14.3586 -51.8265
L14.5414 -51.7465
L14.7254 -51.6663
L14.9105 -51.5859
L15.0967 -51.5052
L15.2842 -51.4241
L15.473 -51.3428
L15.663 -51.2612
L15.8543 -51.1792
L16.0469 -51.0968
L16.2408 -51.0141
L16.4361 -50.931
L16.6328 -50.8475
L16.831 -50.7635
L17.0305 -50.6792
L17.2316 -50.5944
L17.4342 -50.5091
L17.6384 -50.4234
L17.8441 -50.3371
L18.0515 -50.2504
L18.2605 -50.1632
L18.4712 -50.0755
L18.6836 -49.9872
L18.8977 -49.8985
L19.1137 -49.8091
L19.3315 -49.7193
L19.5512 -49.6288
L19.7727 -49.5378
L19.9962 -49.4463
L20.2217 -49.3542
L20.4492 -49.2615
L20.6787 -49.1682
L20.9103 -49.0744
L21.144 -48.98
L21.3798 -48.885
L21.6179 -48.7895
L21.8581 -48.6934
L22.1006 -48.5968
L22.3454 -48.4997
L22.5925 -48.402
L22.8419 -48.3039
L23.0937 -48.2052
L23.3479 -48.1061
L23.6045 -48.0066
L23.8636 -47.9067
L24.125 -47.8065
L24.389 -47.7059
L24.6555 -47.605
L24.9245 -47.5039
L25.196 -47.4025
L25.47 -47.3011
L25.7465 -47.1996
L26.0256 -47.0981
L26.3073 -46.9966
L26.5914 -46.8953
L26.8781 -46.7943
L27.1672 -46.6935
L27.4589 -46.5932
L27.753 -46.4935
L28.0496 -46.3944
L28.3485 -46.2961
L28.6498 -46.1987
L28.9535 -46.1024
L29.2594 -46.0073
L29.5675 -45.9136
L29.8778 -45.8214
L30.1901 -45.731
L30.5045 -45.6425
L30.8208 -45.5562
L31.139 -45.4722
L31.459 -45.3908
L31.7805 -45.3122
L32.1037 -45.2366
L32.4283 -45.1644
L32.7542 -45.0957
L33.0814 -45.0308
L33.4096 -44.97
L33.7387 -44.9136
L34.0687 -44.8618
L34.3993 -44.8149
L34.7305 -44.7731
L35.062 -44.7369
L35.3937 -44.7063
L35.7255 -44.6816
L36.0572 -44.6632
L36.3886 -44.6511
L36.7196 -44.6457
L37.05 -44.6471
L37.3797 -44.6554
L37.7085 -44.6708
L38.0362 -44.6934
L38.3627 -44.7233
L38.6878 -44.7605
L39.0114 -44.805
L39.3334 -44.8569
L39.6536 -44.9161
L39.9718 -44.9824
L40.288 -45.0559
L40.6021 -45.1364
L40.9138 -45.2236
L41.2231 -45.3175
L41.53 -45.4178
L41.8342 -45.5243
L42.1357 -45.6368
L42.4344 -45.755
L42.7303 -45.8786
L43.0232 -46.0074
L43.313 -46.1411
L43.5998 -46.2795
L43.8835 -46.4222
L44.164 -46.5689
L44.4412 -46.7194
L44.7151 -46.8735
L44.9857 -47.0307
L45.253 -47.191
L45.5169 -47.354
L45.7773 -47.5195
L46.0344 -47.6873
L46.288 -47.8571
L46.5381 -48.0287
L46.7848 -48.202
L47.028 -48.3767
L47.2678 -48.5526
L47.504 -48.7296
L47.7369 -48.9075
L47.9663 -49.0862
L48.1922 -49.2655
L48.4148 -49.4453
L48.6339 -49.6254
L48.8497 -49.8058
L49.0621 -49.9864
L49.2711 -50.167
L49.4769 -50.3476
L49.6794 -50.528
L49.8786 -50.7083
L50.0746 -50.8883
L50.2675 -51.068
L50.4571 -51.2473
L50.6437 -51.4262
L50.8271 -51.6046
L51.0076 -51.7825
L51.1849 -51.9599
L51.3594 -52.1367
L51.5308 -52.313
L51.6994 -52.4886
L51.8651 -52.6636
L52.0279 -52.8379
L52.1879 -53.0117
L52.3452 -53.1847
L52.4997 -53.3571
L52.6516 -53.5288
L52.8007 -53.6999
L52.9472 -53.8704
L53.0912 -54.0402
L53.2325 -54.2093
L53.3713 -54.3778
L53.5076 -54.5458
L53.6414 -54.7131
L53.7727 -54.8798
L53.9016 -55.046
L54.0281 -55.2117
L54.1523 -55.3768
L54.274 -55.5414
L54.3934 -55.7056
L54.5105 -55.8693
L54.6252 -56.0325
L54.7377 -56.1954
L54.8479 -56.3579
L54.9558 -56.5201
L55.0614 -56.6819
L54.9209 -56.8435
L54.5461 -57.3131
L54.1656 -57.6401
L53.7796 -57.9604
L53.3881 -58.2741
L52.9914 -58.581
L52.5895 -58.8811
L52.1825 -59.1741
L51.7706 -59.4601
L51.3539 -59.739
L50.9325 -60.0106
L50.5066 -60.2749
L50.0762 -60.5318
L49.6416 -60.7812
L49.2028 -61.0231
L48.76 -61.2574
L48.3133 -61.484
L47.8628 -61.7028
L47.4088 -61.9138
L46.9512 -62.1168
L46.4904 -62.312
L46.0263 -62.4991
L45.5592 -62.6781
L45.0891 -62.8491
L44.6163 -63.0118
L44.1409 -63.1663
L43.663 -63.3126
L43.1827 -63.4505
L42.7003 -63.58
L42.2158 -63.7012
L41.7295 -63.8139
L41.2414 -63.9181
L40.7517 -64.0139
L40.2605 -64.1011
L39.768 -64.1797
L39.2744 -64.2498
L38.7798 -64.3113
L38.2844 -64.3641
L37.7883 -64.4083
L37.2916 -64.4438
L36.7945 -64.4707
L36.2972 -64.4889
L35.7998 -64.4985
L35.3024 -64.4993
L34.8053 -64.4915
L34.3085 -64.4749
L33.8122 -64.4498
L33.3166 -64.4159
L32.8219 -64.3734
L32.3281 -64.3222
L31.8354 -64.2625
L31.344 -64.1941
L30.854 -64.1171
L30.3655 -64.0316
L29.8788 -63.9375
L29.3939 -63.8349
L28.9111 -63.7238
L28.4304 -63.6043
L27.9521 -63.4764
L27.4761 -63.3401
L27.0028 -63.1955
L26.5322 -63.0426
L26.0645 -62.8814
L25.5998 -62.7121
L25.1383 -62.5346
L24.6801 -62.3491
L24.2254 -62.1555
L23.7742 -61.954
L23.3268 -61.7445
L22.8832 -61.5272
L22.4436 -61.3022
L22.0081 -61.0694
L21.5769 -60.829
L21.1501 -60.581
L20.7279 -60.3255
L20.3102 -60.0627
L19.8974 -59.7925
L19.4895 -59.515
L19.0865 -59.2304
L18.6888 -58.9387
L18.2963 -58.64
L17.9092 -58.3345
L17.5276 -58.0221
L17.1517 -57.703
L16.7814 -57.3773
L16.4171 -57.0451
L16.0587 -56.7065
L15.7064 -56.3616
L15.3602 -56.0105
L15.0204 -55.6532
L14.6869 -55.29
L14.3599 -54.9209
L14.0396 -54.5461
L13.7259 -54.1656
L13.419 -53.7796
L13.1189 -53.3881
z
" id="C0_2_5784081d21"/>
    </defs>
    <g clip-path="url(#p1bffca34e9)">
     <use style="fill:#ffffff;stroke:#000000;stroke-width:2.0;" x="0.0" xlink:href="#C0_0_a811fe30f3" y="72.0"/>
    </g>
    <g clip-path="url(#p1bffca34e9)">
     <use style="fill:#ff0000;stroke:#000000;stroke-width:2.0;" x="0.0" xlink:href="#C0_1_69dc43831a" y="72.0"/>
    </g>
    <g clip-path="url(#p1bffca34e9)">
     <use style="fill:#ff0000;stroke:#000000;stroke-width:2.0;" x="0.0" xlink:href="#C0_2_5784081d21" y="72.0"/>
    </g>
   </g>
  </g>
 </g>
 <defs>
  <clipPath id="p1bffca34e9">
   <rect height="72.0" width="72.0" x="0.0" y="0.0"/>
  </clipPath>
 </defs>
</svg>
