<?xml version="1.0" encoding="utf-8" standalone="no"?>
<!DOCTYPE svg PUBLIC "-//W3C//DTD SVG 1.1//EN"
  "http://www.w3.org/Graphics/SVG/1.1/DTD/svg11.dtd">
<!-- Created with matplotlib (http://matplotlib.org/) -->
<svg height="72pt" version="1.1" viewBox="0 0 72 72" width="72pt" xmlns="http://www.w3.org/2000/svg" xmlns:xlink="http://www.w3.org/1999/xlink">
 <defs>
  <style type="text/css">
*{stroke-linecap:butt;stroke-linejoin:round;}
  </style>
 </defs>
 <g id="figure_1">
  <g id="patch_1">
   <path d="
M0 72
L72 72
L72 0
L0 0
z
" style="fill:none;"/>
  </g>
  <g id="axes_1">
   <g id="PatchCollection_1">
    <defs>
     <path d="
M36 -7.5
C43.5583 -7.5 50.808 -10.5029 56.1525 -15.8475
C61.4971 -21.192 64.5 -28.4417 64.5 -36
C64.5 -43.5583 61.4971 -50.808 56.1525 -56.1525
C50.808 -61.4971 43.5583 -64.5 36 -64.5
C28.4417 -64.5 21.192 -61.4971 15.8475 -56.1525
C10.5029 -50.808 7.5 -43.5583 7.5 -36
C7.5 -28.4417 10.5029 -21.192 15.8475 -15.8475
C21.192 -10.5029 28.4417 -7.5 36 -7.5
z
" id="C0_0_a811fe30f3"/>
     <path d="
M57.74 -17.7528
L57.3995 -17.6344
L57.0655 -17.5411
L56.7387 -17.4725
L56.4195 -17.4284
L56.1083 -17.4082
L55.8052 -17.4111
L55.5105 -17.4363
L55.2238 -17.4828
L54.9452 -17.5494
L54.6744 -17.635
L54.4109 -17.7383
L54.1544 -17.8581
L53.9046 -17.9932
L53.661 -18.1423
L53.4231 -18.3043
L53.1905 -18.478
L52.9628 -18.6623
L52.7397 -18.8562
L52.5206 -19.0588
L52.3054 -19.2691
L52.0937 -19.4864
L51.8852 -19.7098
L51.6797 -19.9387
L51.4769 -20.1724
L51.2766 -20.4103
L51.0787 -20.6518
L50.883 -20.8965
L50.6893 -21.1438
L50.4976 -21.3935
L50.3076 -21.645
L50.1194 -21.898
L49.9328 -22.1523
L49.7477 -22.4075
L49.5642 -22.6633
L49.3821 -22.9196
L49.2014 -23.176
L49.022 -23.4325
L48.844 -23.6888
L48.6672 -23.9447
L48.4916 -24.2002
L48.3173 -24.4551
L48.1441 -24.7093
L47.9721 -24.9627
L47.8012 -25.2152
L47.6315 -25.4667
L47.4628 -25.7172
L47.2952 -25.9665
L47.1286 -26.2148
L46.963 -26.4618
L46.7985 -26.7077
L46.6349 -26.9522
L46.4723 -27.1956
L46.3106 -27.4376
L46.1499 -27.6783
L45.99 -27.9178
L45.831 -28.1559
L45.6729 -28.3928
L45.5156 -28.6284
L45.3591 -28.8627
L45.2034 -29.0957
L45.0484 -29.3275
L44.8942 -29.5581
L44.7406 -29.7875
L44.5878 -30.0157
L44.4356 -30.2428
L44.2841 -30.4687
L44.1331 -30.6935
L43.9828 -30.9173
L43.8329 -31.1401
L43.6837 -31.3618
L43.5349 -31.5826
L43.3866 -31.8025
L43.2387 -32.0215
L43.0912 -32.2396
L42.9442 -32.4569
L42.7974 -32.6735
L42.6511 -32.8893
L42.505 -33.1044
L42.3592 -33.3189
L42.2136 -33.5327
L42.0683 -33.746
L41.9231 -33.9587
L41.7781 -34.171
L41.6332 -34.3828
L41.4884 -34.5943
L41.3437 -34.8053
L41.199 -35.0161
L41.0544 -35.2265
L40.9097 -35.4368
L40.7649 -35.6468
L40.6201 -35.8568
L40.3301 -36.0666
L40.1848 -36.2763
L40.0394 -36.4861
L39.8937 -36.6959
L39.7477 -36.9057
L39.6014 -37.1157
L39.4549 -37.3259
L39.3079 -37.5362
L39.1606 -37.7468
L39.0128 -37.9578
L38.8647 -38.169
L38.716 -38.3806
L38.5668 -38.5927
L38.4171 -38.8052
L38.2668 -39.0183
L38.1159 -39.2319
L37.9644 -39.4462
L37.8122 -39.661
L37.6593 -39.8766
L37.5058 -40.0929
L37.3514 -40.31
L37.1963 -40.5279
L37.0404 -40.7467
L36.8837 -40.9664
L36.7261 -41.187
L36.5677 -41.4086
L36.4083 -41.6313
L36.248 -41.855
L36.0868 -42.0798
L35.9245 -42.3058
L35.7613 -42.533
L35.5971 -42.7614
L35.4319 -42.9911
L35.2656 -43.2221
L35.0982 -43.4544
L34.9298 -43.6881
L34.7602 -43.9232
L34.5896 -44.1598
L34.418 -44.3978
L34.2452 -44.6373
L34.0713 -44.8783
L33.8963 -45.1209
L33.7203 -45.3651
L33.5432 -45.6108
L33.3651 -45.8582
L33.186 -46.1072
L33.0059 -46.3579
L32.8248 -46.6102
L32.6429 -46.8642
L32.4601 -47.1199
L32.2765 -47.3772
L32.0922 -47.6363
L31.9073 -47.897
L31.7219 -48.1593
L31.536 -48.4234
L31.3498 -48.6891
L31.1635 -48.9564
L30.9771 -49.2254
L30.7909 -49.496
L30.6049 -49.7681
L30.4195 -50.0417
L30.2349 -50.3169
L30.0513 -50.5935
L29.8689 -50.8715
L29.6882 -51.151
L29.5094 -51.4317
L29.3329 -51.7137
L29.1591 -51.997
L28.9885 -52.2815
L28.8216 -52.567
L28.6588 -52.8537
L28.5009 -53.1413
L28.3485 -53.43
L28.2022 -53.7195
L28.0628 -54.0099
L27.9312 -54.3011
L27.8082 -54.593
L27.6949 -54.8856
L27.5921 -55.1789
L27.501 -55.4728
L27.4227 -55.7672
L27.3584 -56.062
L27.3093 -56.3573
L27.2765 -56.6528
L27.2613 -56.9486
L27.2647 -57.2444
L27.2879 -57.5402
L27.3319 -57.8357
L27.3976 -58.1306
L27.4855 -58.4247
L27.5964 -58.7178
L27.7304 -59.0093
L27.8878 -59.2988
L28.0685 -59.586
L28.2722 -59.8702
L28.4984 -60.1509
L28.7465 -60.4275
L29.0158 -60.6995
L29.3053 -60.9663
L29.614 -61.2272
L29.941 -61.4817
L30.285 -61.7292
L30.645 -61.9692
L31.0198 -62.2013
L31.4083 -62.4249
L31.8094 -62.6397
L32.2219 -62.8453
L32.645 -63.0413
L33.0775 -63.2276
L33.5185 -63.4038
L33.967 -63.5697
L34.4222 -63.7252
L34.8833 -63.8702
L35.3494 -64.0045
L35.8199 -64.1281
L36.294 -64.2411
L36.771 -64.3433
L37.2695 -64.4348
L37.7663 -64.4717
L38.2624 -64.4452
L38.7579 -64.4101
L39.2525 -64.3662
L39.7462 -64.3138
L40.2387 -64.2527
L40.7299 -64.183
L41.2197 -64.1048
L41.7079 -64.0179
L42.1943 -63.9226
L42.6789 -63.8187
L43.1614 -63.7064
L43.6418 -63.5856
L44.1198 -63.4564
L44.5953 -63.3188
L45.0682 -63.173
L45.5384 -63.0188
L46.0057 -62.8565
L46.4699 -62.6859
L46.9309 -62.5072
L47.3886 -62.3204
L47.8428 -62.1257
L48.2934 -61.9229
L48.7403 -61.7123
L49.1833 -61.4938
L49.6222 -61.2676
L50.0571 -61.0337
L50.4876 -60.7921
L50.9137 -60.543
L51.3353 -60.2864
L51.7522 -60.0224
L52.1643 -59.7512
L52.5715 -59.4726
L52.9737 -59.1869
L53.3707 -58.8942
L53.7623 -58.5945
L54.1486 -58.2879
L54.5294 -57.9745
L54.9045 -57.6544
L55.2738 -57.3277
L55.6373 -56.9945
L55.9948 -56.655
L56.3461 -56.3091
L56.6913 -55.9571
L57.0302 -55.5989
L57.3627 -55.2348
L57.6887 -54.8649
L58.0081 -54.4892
L58.3208 -54.1078
L58.6266 -53.721
L58.9256 -53.3287
L59.2176 -52.9312
L59.5026 -52.5285
L59.7803 -52.1208
L60.0508 -51.7082
L60.314 -51.2907
L60.5698 -50.8687
L60.8181 -50.4421
L61.0589 -50.0111
L61.292 -49.5758
L61.5174 -49.1364
L61.735 -48.693
L61.9448 -48.2457
L62.1467 -47.7947
L62.3407 -47.3401
L62.5266 -46.8821
L62.7044 -46.4207
L62.8741 -45.9562
L63.0356 -45.4886
L63.1889 -45.0181
L63.3339 -44.5449
L63.4705 -44.0691
L63.5988 -43.5908
L63.7187 -43.1102
L63.8301 -42.6275
L63.9331 -42.1427
L64.0276 -41.6561
L64.1135 -41.1677
L64.1908 -40.6778
L64.2596 -40.1864
L64.3198 -39.6938
L64.3713 -39.2
L64.4142 -38.7053
L64.4484 -38.2097
L64.474 -37.7135
L64.4909 -37.2168
L64.4991 -36.7196
L64.4987 -36.2223
L64.4895 -35.7249
L64.4717 -35.2275
L64.4452 -34.7305
L64.4101 -34.2337
L64.3662 -33.7376
L64.3138 -33.2421
L64.2527 -32.7475
L64.183 -32.2538
L64.1048 -31.7613
L64.0179 -31.2701
L63.9226 -30.7803
L63.8187 -30.2921
L63.7064 -29.8057
L63.5856 -29.3211
L63.4564 -28.8386
L63.3188 -28.3582
L63.173 -27.8802
L63.0188 -27.4047
L62.8565 -26.9318
L62.6859 -26.4616
L62.5072 -25.9943
L62.3204 -25.5301
L62.1257 -25.0691
L61.9229 -24.6114
L61.7123 -24.1572
L61.4938 -23.7066
L61.2676 -23.2597
L61.0337 -22.8167
L60.7921 -22.3778
L60.543 -21.9429
L60.2864 -21.5124
L60.0224 -21.0863
L59.7512 -20.6647
L59.4726 -20.2478
L59.1869 -19.8357
L58.8942 -19.4285
L58.5945 -19.0263
L58.2879 -18.6293
z
" id="C0_1_495fff3036"/>
     <path d="
M34.7535 -7.57051
L34.2853 -7.69101
L33.822 -7.81725
L33.3638 -7.94912
L32.9109 -8.08647
L32.4635 -8.22914
L32.0217 -8.37697
L31.5858 -8.5298
L31.1558 -8.68745
L30.7318 -8.84975
L30.314 -9.01652
L29.9023 -9.1876
L29.4967 -9.36279
L29.0974 -9.54195
L28.7044 -9.7249
L28.3175 -9.91147
L27.9369 -10.1015
L27.5624 -10.2949
L27.194 -10.4914
L26.8317 -10.691
L26.4755 -10.8934
L26.1252 -11.0986
L25.7808 -11.3065
L25.4423 -11.5168
L25.1094 -11.7296
L24.7823 -11.9447
L24.4608 -12.162
L24.1447 -12.3814
L23.8341 -12.6028
L23.5288 -12.8262
L23.2287 -13.0515
L22.9337 -13.2785
L22.6439 -13.5073
L22.3589 -13.7378
L22.0789 -13.9699
L21.8036 -14.2036
L21.533 -14.4389
L21.267 -14.6756
L21.0055 -14.9138
L20.7484 -15.1534
L20.4957 -15.3944
L20.2472 -15.6369
L20.0029 -15.8807
L19.7626 -16.1258
L19.5264 -16.3723
L19.2941 -16.6201
L19.0657 -16.8692
L18.841 -17.1197
L18.6201 -17.3715
L18.4028 -17.6247
L18.1891 -17.8792
L17.9789 -18.135
L17.7722 -18.3922
L17.5688 -18.6508
L17.3688 -18.9109
L17.1721 -19.1723
L16.9786 -19.4352
L16.7883 -19.6995
L16.6012 -19.9654
L16.4171 -20.2327
L16.2361 -20.5017
L16.0581 -20.7722
L15.883 -21.0444
L15.7109 -21.3182
L15.5418 -21.5937
L15.3754 -21.871
L15.212 -22.1501
L15.0514 -22.4309
L14.8936 -22.7137
L14.7385 -22.9984
L14.5863 -23.285
L14.4368 -23.5737
L14.2901 -23.8644
L14.1461 -24.1572
L14.0049 -24.4522
L13.8664 -24.7495
L13.7307 -25.049
L13.5977 -25.3508
L13.4674 -25.655
L13.34 -25.9617
L13.2153 -26.2709
L13.0934 -26.5826
L12.9744 -26.897
L12.8582 -27.214
L12.7449 -27.5338
L12.6344 -27.8564
L12.527 -28.1818
L12.4225 -28.5101
L12.321 -28.8415
L12.2226 -29.1758
L12.1273 -29.5133
L12.0352 -29.8539
L11.9463 -30.1977
L11.8607 -30.5448
L11.7785 -30.8952
L11.6997 -31.249
L11.6243 -31.6062
L11.5526 -31.9669
L11.4845 -32.331
L11.4201 -32.6988
L11.3595 -33.0701
L11.3028 -33.4451
L11.2502 -33.8238
L11.2016 -34.2061
L11.1572 -34.5922
L11.1171 -34.982
L11.0815 -35.3756
L11.0503 -35.7729
L11.0238 -36.1739
L11.0019 -36.5787
L10.985 -36.9873
L10.9729 -37.3995
L10.966 -37.8154
L10.9642 -38.2349
L10.9677 -38.658
L10.9765 -39.0845
L10.9909 -39.5145
L11.0108 -39.9478
L11.0365 -40.3843
L11.0678 -40.8239
L11.105 -41.2665
L11.1481 -41.7118
L11.197 -42.1597
L11.252 -42.6101
L11.3129 -43.0627
L11.3797 -43.5173
L11.4525 -43.9735
L11.5311 -44.4313
L11.6155 -44.8902
L11.7055 -45.3499
L11.801 -45.8102
L11.9017 -46.2705
L12.0074 -46.7307
L12.1177 -47.1901
L12.2324 -47.6484
L12.351 -48.1052
L12.4729 -48.5598
L12.5976 -49.0119
L12.7244 -49.4609
L12.8527 -49.9062
L12.9816 -50.3474
L13.1103 -50.7837
L13.2377 -51.2146
L13.3629 -51.6395
L13.4848 -52.0578
L13.6021 -52.4689
L13.7139 -52.8722
L13.8188 -53.2673
L13.9157 -53.6535
L13.6466 -54.0304
L13.3414 -53.6798
L13.0432 -53.2869
L12.7519 -52.8889
L12.4677 -52.4856
L12.1907 -52.0774
L11.921 -51.6643
L11.6586 -51.2463
L11.4036 -50.8238
L11.156 -50.3967
L10.9161 -49.9652
L10.6838 -49.5295
L10.4592 -49.0897
L10.2424 -48.6459
L10.0334 -48.1982
L9.83238 -47.7468
L9.6393 -47.2918
L9.45424 -46.8334
L9.27727 -46.3717
L9.10844 -45.9069
L8.94781 -45.439
L8.79541 -44.9682
L8.6513 -44.4947
L8.51552 -44.0186
L8.38811 -43.5401
L8.26912 -43.0593
L8.15857 -42.5763
L8.0565 -42.0914
L7.96294 -41.6045
L7.87793 -41.116
L7.80148 -40.6259
L7.73362 -40.1344
L7.67437 -39.6416
L7.62374 -39.1478
L7.58177 -38.6529
L7.54844 -38.1573
L7.52379 -37.661
L7.50781 -37.1642
L7.50051 -36.667
L7.50188 -36.1697
L7.51194 -35.6723
L7.53068 -35.175
L7.55809 -34.6779
L7.59416 -34.1813
L7.63889 -33.6851
L7.69226 -33.1898
L7.75424 -32.6952
L7.82484 -32.2017
L7.90401 -31.7093
L7.99174 -31.2182
L8.08801 -30.7286
L8.19277 -30.2406
L8.30601 -29.7543
L8.42768 -29.27
L8.55775 -28.7877
L8.69619 -28.3076
L8.84293 -27.8298
L8.99795 -27.3546
L9.1612 -26.8819
L9.33262 -26.4121
L9.51216 -25.9451
L9.69977 -25.4812
L9.8954 -25.0206
L10.099 -24.5632
L10.3104 -24.1094
L10.5297 -23.6592
L10.7568 -23.2127
L10.9915 -22.7701
L11.2339 -22.3316
L11.4838 -21.8972
L11.7411 -21.4671
L12.0059 -21.0415
L12.278 -20.6204
L12.5573 -20.204
L12.8437 -19.7924
L13.1372 -19.3857
L13.4376 -18.9841
L13.7449 -18.5877
L14.059 -18.1966
L14.3798 -17.8109
L14.7072 -17.4307
L15.0411 -17.0562
L15.3813 -16.6875
L15.7278 -16.3247
L16.0805 -15.9678
L16.4393 -15.6171
L16.804 -15.2725
L17.1746 -14.9343
L17.5509 -14.6025
L17.9328 -14.2772
L18.3202 -13.9585
L18.7131 -13.6466
L19.1111 -13.3414
L19.5144 -13.0432
L19.9226 -12.7519
L20.3357 -12.4677
L20.7537 -12.1907
L21.1762 -11.921
L21.6033 -11.6586
L22.0348 -11.4036
L22.4705 -11.156
L22.9103 -10.9161
L23.3541 -10.6838
L23.8018 -10.4592
L24.2532 -10.2424
L24.7082 -10.0334
L25.1666 -9.83238
L25.6283 -9.6393
L26.0931 -9.45424
L26.561 -9.27727
L27.0318 -9.10844
L27.5053 -8.94781
L27.9814 -8.79541
L28.4599 -8.6513
L28.9407 -8.51552
L29.4237 -8.38811
L29.9086 -8.26912
L30.3955 -8.15857
L30.884 -8.0565
L31.3741 -7.96294
L31.8656 -7.87793
L32.3584 -7.80148
L32.8522 -7.73362
L33.3471 -7.67437
L33.8427 -7.62374
z
" id="C0_2_b4752e2d14"/>
    </defs>
    <g clip-path="url(#p1bffca34e9)">
     <use style="fill:#ff0000;stroke:#000000;stroke-width:2.0;" x="0.0" xlink:href="#C0_0_a811fe30f3" y="72.0"/>
    </g>
    <g clip-path="url(#p1bffca34e9)">
     <use style="fill:#ffffff;stroke:#000000;stroke-width:2.0;" x="0.0" xlink:href="#C0_1_495fff3036" y="72.0"/>
    </g>
    <g clip-path="url(#p1bffca34e9)">
     <use style="fill:#ffffff;stroke:#000000;stroke-width:2.0;" x="0.0" xlink:href="#C0_2_b4752e2d14" y="72.0"/>
    </g>
   </g>
  </g>
 </g>
 <defs>
  <clipPath id="p1bffca34e9">
   <rect height="72.0" width="72.0" x="0.0" y="0.0"/>
  </clipPath>
 </defs>
</svg>
