<?xml version="1.0" encoding="utf-8" standalone="no"?>
<!DOCTYPE svg PUBLIC "-//W3C//DTD SVG 1.1//EN"
  "http://www.w3.org/Graphics/SVG/1.1/DTD/svg11.dtd">
<!-- Created with matplotlib (http://matplotlib.org/) -->
<svg height="72pt" version="1.1" viewBox="0 0 72 72" width="72pt" xmlns="http://www.w3.org/2000/svg" xmlns:xlink="http://www.w3.org/1999/xlink">
 <defs>
  <style type="text/css">
*{stroke-linecap:butt;stroke-linejoin:round;}
  </style>
 </defs>
 <g id="figure_1">
  <g id="patch_1">
   <path d="
M0 72
L72 72
L72 0
L0 0
z
" style="fill:none;"/>
  </g>
  <g id="axes_1">
   <g id="PatchCollection_1">
    <defs>
     <path d="
M36 -7.5
C43.5583 -7.5 50.808 -10.5029 56.1525 -15.8475
C61.4971 -21.192 64.5 -28.4417 64.5 -36
C64.5 -43.5583 61.4971 -50.808 56.1525 -56.1525
C50.808 -61.4971 43.5583 -64.5 36 -64.5
C28.4417 -64.5 21.192 -61.4971 15.8475 -56.1525
C10.5029 -50.808 7.5 -43.5583 7.5 -36
C7.5 -28.4417 10.5029 -21.192 15.8475 -15.8475
C21.192 -10.5029 28.4417 -7.5 36 -7.5
z
" id="C0_0_a811fe30f3"/>
     <path d="
M14.4095 -54.5535
L14.2189 -54.1601
L14.0494 -53.7682
L13.9012 -53.3786
L13.7742 -52.9921
L13.6685 -52.6094
L13.5837 -52.2313
L13.5195 -51.8582
L13.4754 -51.4906
L13.4508 -51.1289
L13.4449 -50.7734
L13.457 -50.4243
L13.4864 -50.0817
L13.5321 -49.7456
L13.5932 -49.4162
L13.6688 -49.0933
L13.7582 -48.7768
L13.8603 -48.4667
L13.9743 -48.1629
L14.0994 -47.8652
L14.2348 -47.5734
L14.3798 -47.2873
L14.5336 -47.0069
L14.6955 -46.7319
L14.8648 -46.4622
L15.0411 -46.1977
L15.2236 -45.938
L15.4119 -45.6832
L15.6055 -45.4331
L15.8038 -45.1875
L16.0065 -44.9462
L16.2132 -44.7093
L16.4234 -44.4764
L16.6369 -44.2476
L16.8532 -44.0227
L17.0722 -43.8016
L17.2934 -43.5842
L17.5167 -43.3704
L17.7418 -43.1601
L17.9685 -42.9531
L18.1966 -42.7495
L18.4259 -42.5491
L18.6562 -42.3519
L18.8873 -42.1577
L19.1192 -41.9665
L19.3517 -41.7782
L19.5847 -41.5927
L19.818 -41.4099
L20.0515 -41.2299
L20.2852 -41.0524
L20.519 -40.8775
L20.7529 -40.7051
L20.9866 -40.5351
L21.2203 -40.3674
L21.4537 -40.202
L21.687 -40.0388
L21.92 -39.8778
L22.1528 -39.7189
L22.3852 -39.562
L22.6173 -39.4071
L22.8491 -39.2542
L23.0805 -39.1031
L23.3115 -38.9539
L23.5422 -38.8065
L23.7725 -38.6607
L24.0024 -38.5167
L24.2319 -38.3743
L24.4611 -38.2334
L24.6899 -38.0941
L24.9183 -37.9563
L25.1465 -37.8199
L25.3743 -37.685
L25.6018 -37.5514
L25.8291 -37.4191
L26.0561 -37.2881
L26.2828 -37.1583
L26.5094 -37.0297
L26.7358 -36.9023
L26.9621 -36.776
L27.1882 -36.6508
L27.4142 -36.5267
L27.6402 -36.4036
L27.8662 -36.2815
L28.0922 -36.1603
L28.3182 -36.04
L28.5443 -35.9206
L28.7706 -35.8021
L28.997 -35.6845
L29.2236 -35.5676
L29.4504 -35.4515
L29.6775 -35.3361
L29.905 -35.2215
L30.1328 -35.1075
L30.5896 -34.9943
L30.8188 -34.8816
L31.0484 -34.7696
L31.2787 -34.6582
L31.5096 -34.5474
L31.7411 -34.4371
L31.9734 -34.3274
L32.2064 -34.2182
L32.4402 -34.1095
L32.6749 -34.0012
L32.9104 -33.8935
L33.147 -33.7862
L33.3845 -33.6793
L33.6231 -33.5728
L33.8627 -33.4668
L34.1035 -33.3611
L34.3455 -33.2558
L34.5888 -33.1509
L34.8333 -33.0464
L35.0792 -32.9422
L35.3265 -32.8384
L35.5752 -32.7349
L35.8254 -32.6318
L36.0772 -32.529
L36.3305 -32.4266
L36.5855 -32.3245
L36.8422 -32.2228
L37.1006 -32.1214
L37.3608 -32.0203
L37.6228 -31.9197
L37.8867 -31.8194
L38.1525 -31.7195
L38.4203 -31.62
L38.6901 -31.5209
L38.962 -31.4223
L39.236 -31.3241
L39.5121 -31.2265
L39.7904 -31.1293
L40.0708 -31.0327
L40.3536 -30.9367
L40.6386 -30.8414
L40.9259 -30.7467
L41.2155 -30.6527
L41.5075 -30.5596
L41.8019 -30.4672
L42.0987 -30.3758
L42.3978 -30.2853
L42.6994 -30.1959
L43.0033 -30.1076
L43.3097 -30.0206
L43.6184 -29.9348
L43.9295 -29.8505
L44.243 -29.7677
L44.5588 -29.6866
L44.8769 -29.6072
L45.1973 -29.5298
L45.5198 -29.4545
L45.8445 -29.3814
L46.1712 -29.3108
L46.4999 -29.2427
L46.8305 -29.1775
L47.1629 -29.1154
L47.4969 -29.0565
L47.8324 -29.0012
L48.1694 -28.9497
L48.5075 -28.9023
L48.8467 -28.8593
L49.1868 -28.8211
L49.5275 -28.788
L49.8686 -28.7604
L50.2099 -28.7387
L50.5511 -28.7235
L50.8919 -28.715
L51.232 -28.714
L51.571 -28.7208
L51.9087 -28.736
L52.2447 -28.7602
L52.5784 -28.7941
L52.9096 -28.8382
L53.2377 -28.8932
L53.5622 -28.9598
L53.8828 -29.0387
L54.1988 -29.1305
L54.5098 -29.2359
L54.8151 -29.3555
L55.1143 -29.49
L55.4067 -29.6397
L55.6919 -29.8053
L55.9693 -29.9871
L56.2383 -30.1854
L56.4985 -30.4004
L56.7494 -30.632
L56.9905 -30.8803
L57.2215 -31.145
L57.442 -31.4257
L57.6516 -31.7221
L57.8502 -32.0336
L58.0375 -32.3594
L58.2133 -32.6989
L58.3776 -33.0512
L58.5302 -33.4154
L58.6711 -33.7907
L58.8003 -34.1761
L58.9178 -34.5706
L59.0238 -34.9734
L59.1183 -35.3835
L59.2014 -35.8
L59.2733 -36.222
L59.3342 -36.6487
L59.3842 -37.0793
L59.4235 -37.5131
L59.4524 -37.9493
L59.471 -38.3873
L59.4796 -38.8264
L59.4785 -39.2659
L59.4678 -39.7055
L59.4479 -40.1445
L59.419 -40.5826
L59.3813 -41.0191
L59.3351 -41.4538
L59.2807 -41.8863
L59.2183 -42.3163
L59.1481 -42.7434
L59.0704 -43.1673
L58.9855 -43.5879
L58.8936 -44.0048
L58.7949 -44.418
L58.6896 -44.8272
L58.578 -45.2322
L58.4604 -45.633
L58.3368 -46.0294
L58.2076 -46.4212
L58.0729 -46.8085
L57.9329 -47.1911
L57.7879 -47.569
L57.6379 -47.9422
L57.4831 -48.3105
L57.3238 -48.6741
L57.1601 -49.0328
L56.992 -49.3866
L56.8199 -49.7356
L56.6437 -50.0798
L56.4637 -50.4191
L56.28 -50.7536
L56.0927 -51.0834
L55.9018 -51.4084
L55.7075 -51.7287
L55.5099 -52.0443
L55.3091 -52.3552
L55.1052 -52.6616
L54.8982 -52.9634
L54.6883 -53.2607
L54.4754 -53.5535
L54.2597 -53.8419
L54.0412 -54.126
L53.82 -54.4057
L53.5961 -54.6812
L53.3696 -54.9524
L53.1404 -55.2195
L52.9087 -55.4824
L52.6745 -55.7413
L52.4378 -55.9962
L52.1986 -56.2471
L51.9569 -56.494
L51.7127 -56.7371
L51.4662 -56.9764
L51.2172 -57.2118
L50.9658 -57.4435
L50.7119 -57.6714
L50.4557 -57.8957
L50.197 -58.1163
L49.9359 -58.3333
L49.6723 -58.5467
L49.4063 -58.7566
L49.1378 -58.9629
L48.8668 -59.1657
L48.5934 -59.365
L48.3173 -59.5608
L48.0387 -59.7532
L47.7576 -59.9421
L47.4738 -60.1276
L47.1873 -60.3097
L46.8982 -60.4883
L46.6064 -60.6635
L46.3118 -60.8353
L46.0144 -61.0036
L45.7142 -61.1685
L45.4111 -61.3299
L45.105 -61.4879
L44.7961 -61.6423
L44.4841 -61.7933
L44.169 -61.9407
L43.8508 -62.0845
L43.5295 -62.2247
L43.205 -62.3612
L42.8773 -62.494
L42.5462 -62.6231
L42.2118 -62.7484
L41.8739 -62.8698
L41.5326 -62.9873
L41.1878 -63.1008
L40.8395 -63.2103
L40.4876 -63.3156
L40.132 -63.4166
L39.7727 -63.5134
L39.4096 -63.6057
L39.0428 -63.6935
L38.6721 -63.7768
L38.2976 -63.8552
L37.9192 -63.9288
L37.5369 -63.9975
L37.1506 -64.061
L36.7603 -64.1193
L36.366 -64.1723
L35.9677 -64.2196
L35.5653 -64.2613
L35.159 -64.2972
L34.7486 -64.327
L34.3342 -64.3506
L33.9158 -64.3678
L33.4935 -64.3785
L32.9978 -64.3824
L32.5036 -64.3414
L32.0105 -64.2847
L31.5187 -64.2194
L31.0281 -64.1455
L30.5391 -64.063
L30.0518 -63.9719
L29.5662 -63.8724
L29.0827 -63.7643
L28.6012 -63.6478
L28.122 -63.5229
L27.6452 -63.3895
L27.1709 -63.2479
L26.6993 -63.0979
L26.2306 -62.9397
L25.7648 -62.7733
L25.3022 -62.5987
L24.8428 -62.416
L24.3868 -62.2253
L23.9343 -62.0266
L23.4855 -61.8199
L23.0406 -61.6054
L22.5995 -61.3831
L22.1626 -61.1531
L21.7299 -60.9154
L21.3015 -60.6701
L20.8776 -60.4173
L20.4583 -60.157
L20.0437 -59.8894
L19.634 -59.6146
L19.2293 -59.3325
L18.8297 -59.0433
L18.4353 -58.7471
L18.0463 -58.444
L17.6627 -58.134
L17.2848 -57.8173
L16.9125 -57.494
L16.546 -57.1641
L16.1855 -56.8277
L15.831 -56.485
L15.4827 -56.1361
L15.1406 -55.781
L14.8048 -55.4199
z
" id="C0_1_84173edfd1"/>
     <path d="
M38.9264 -7.68134
L39.3468 -7.7656
L39.7689 -7.85626
L40.1925 -7.95343
L40.6176 -8.05717
L41.0442 -8.16759
L41.4721 -8.28475
L41.9014 -8.40874
L42.3318 -8.53963
L42.7633 -8.67749
L43.1958 -8.82238
L43.6292 -8.97435
L44.0632 -9.13344
L44.4979 -9.2997
L44.9331 -9.47313
L45.3685 -9.65376
L45.8041 -9.84156
L46.2397 -10.0365
L46.675 -10.2386
L47.11 -10.4478
L47.5444 -10.6639
L47.978 -10.8869
L48.4106 -11.1167
L48.842 -11.353
L49.2719 -11.5957
L49.7003 -11.8445
L50.1268 -12.0993
L50.5512 -12.3596
L50.9734 -12.6252
L51.3931 -12.8957
L51.81 -13.1706
L52.2241 -13.4495
L52.635 -13.7319
L53.0427 -14.0171
L53.447 -14.3046
L53.8477 -14.5937
L54.2447 -14.8837
L54.6378 -15.1738
L55.0271 -15.4634
L55.4124 -15.7515
L55.7936 -16.0373
L56.1709 -16.3201
L56.5441 -16.5989
L56.9134 -16.8729
L56.9958 -17.1415
L56.6563 -16.7276
L56.3104 -16.3641
L55.9584 -16.0066
L55.6003 -15.6552
L55.2362 -15.3099
L54.8663 -14.971
L54.4906 -14.6385
L54.1093 -14.3125
L53.7225 -13.9931
L53.3302 -13.6804
L52.9327 -13.3745
L52.53 -13.0755
L52.1223 -12.7835
L51.7097 -12.4985
L51.2923 -12.2207
L50.8703 -11.9502
L50.4437 -11.6869
L50.0127 -11.4311
L49.5775 -11.1828
L49.1381 -10.942
L48.6947 -10.7089
L48.2474 -10.4834
L47.7964 -10.2658
L47.3418 -10.0559
L46.8838 -9.85401
L46.4224 -9.66005
L45.9579 -9.47411
L45.4904 -9.29626
L45.0199 -9.12653
L44.5467 -8.965
L44.0709 -8.8117
L43.5926 -8.66668
L43.1121 -8.52998
L42.6293 -8.40166
L42.1446 -8.28174
L41.6579 -8.17026
L41.1696 -8.06726
L40.6796 -7.97277
L40.1883 -7.88682
L39.6957 -7.80943
z
" id="C0_2_6ff46a845d"/>
    </defs>
    <g clip-path="url(#p1bffca34e9)">
     <use style="fill:#ffffff;stroke:#000000;stroke-width:2.0;" x="0.0" xlink:href="#C0_0_a811fe30f3" y="72.0"/>
    </g>
    <g clip-path="url(#p1bffca34e9)">
     <use style="fill:#ff0000;stroke:#000000;stroke-width:2.0;" x="0.0" xlink:href="#C0_1_84173edfd1" y="72.0"/>
    </g>
    <g clip-path="url(#p1bffca34e9)">
     <use style="fill:#ff0000;stroke:#000000;stroke-width:2.0;" x="0.0" xlink:href="#C0_2_6ff46a845d" y="72.0"/>
    </g>
   </g>
  </g>
 </g>
 <defs>
  <clipPath id="p1bffca34e9">
   <rect height="72.0" width="72.0" x="0.0" y="0.0"/>
  </clipPath>
 </defs>
</svg>
