<?xml version="1.0" encoding="utf-8" standalone="no"?>
<!DOCTYPE svg PUBLIC "-//W3C//DTD SVG 1.1//EN"
  "http://www.w3.org/Graphics/SVG/1.1/DTD/svg11.dtd">
<!-- Created with matplotlib (http://matplotlib.org/) -->
<svg height="72pt" version="1.1" viewBox="0 0 72 72" width="72pt" xmlns="http://www.w3.org/2000/svg" xmlns:xlink="http://www.w3.org/1999/xlink">
 <defs>
  <style type="text/css">
*{stroke-linecap:butt;stroke-linejoin:round;}
  </style>
 </defs>
 <g id="figure_1">
  <g id="patch_1">
   <path d="
M0 72
L72 72
L72 0
L0 0
z
" style="fill:none;"/>
  </g>
  <g id="axes_1">
   <g id="PatchCollection_1">
    <defs>
     <path d="
M36 -7.5
C43.5583 -7.5 50.808 -10.5029 56.1525 -15.8475
C61.4971 -21.192 64.5 -28.4417 64.5 -36
C64.5 -43.5583 61.4971 -50.808 56.1525 -56.1525
C50.808 -61.4971 43.5583 -64.5 36 -64.5
C28.4417 -64.5 21.192 -61.4971 15.8475 -56.1525
C10.5029 -50.808 7.5 -43.5583 7.5 -36
C7.5 -28.4417 10.5029 -21.192 15.8475 -15.8475
C21.192 -10.5029 28.4417 -7.5 36 -7.5
z
" id="C0_0_a811fe30f3"/>
     <path d="
M59.8987 -20.7148
L59.7894 -20.9582
L59.6795 -21.2021
L59.569 -21.4465
L59.4579 -21.6911
L59.346 -21.9359
L59.2334 -22.1805
L59.1201 -22.425
L59.0059 -22.6691
L58.891 -22.9128
L58.7753 -23.156
L58.6587 -23.3985
L58.5414 -23.6404
L58.4232 -23.8815
L58.3042 -24.1217
L58.1845 -24.3611
L58.0639 -24.5996
L57.9425 -24.8371
L57.8204 -25.0736
L57.6975 -25.3091
L57.5738 -25.5436
L57.4493 -25.777
L57.3241 -26.0093
L57.1981 -26.2406
L57.0714 -26.4708
L56.944 -26.7
L56.8159 -26.9281
L56.687 -27.1551
L56.5574 -27.381
L56.4271 -27.6059
L56.2961 -27.8298
L56.1644 -28.0527
L56.0319 -28.2746
L55.8988 -28.4956
L55.7649 -28.7155
L55.6304 -28.9346
L55.4951 -29.1528
L55.3591 -29.37
L55.2224 -29.5865
L55.085 -29.8021
L54.9468 -30.0169
L54.8079 -30.231
L54.6682 -30.4443
L54.5278 -30.657
L54.3865 -30.8689
L54.2446 -31.0803
L54.1018 -31.291
L53.9582 -31.5012
L53.8137 -31.7108
L53.6685 -31.9199
L53.5223 -32.1286
L53.3753 -32.3368
L53.2274 -32.5446
L53.0786 -32.7521
L52.9289 -32.9592
L52.7782 -33.1661
L52.4739 -33.3727
L52.3203 -33.579
L52.1656 -33.7852
L52.0098 -33.9912
L51.853 -34.1972
L51.695 -34.403
L51.536 -34.6087
L51.3757 -34.8145
L51.2143 -35.0203
L51.0516 -35.2261
L50.8878 -35.4321
L50.7226 -35.6381
L50.5562 -35.8444
L50.3884 -36.0508
L50.2193 -36.2574
L50.0488 -36.4643
L49.8769 -36.6715
L49.7035 -36.8791
L49.5287 -37.087
L49.3523 -37.2952
L49.1745 -37.5039
L48.9951 -37.7131
L48.8141 -37.9228
L48.6315 -38.133
L48.4472 -38.3437
L48.2613 -38.555
L48.0737 -38.7669
L47.8843 -38.9795
L47.6932 -39.1927
L47.5003 -39.4066
L47.3057 -39.6212
L47.1092 -39.8366
L46.9109 -40.0528
L46.7107 -40.2697
L46.5086 -40.4875
L46.3047 -40.7061
L46.0988 -40.9255
L45.8911 -41.1459
L45.6814 -41.3671
L45.4698 -41.5893
L45.2563 -41.8124
L45.0409 -42.0365
L44.8235 -42.2615
L44.6043 -42.4876
L44.3832 -42.7146
L44.1602 -42.9426
L43.9355 -43.1717
L43.7089 -43.4018
L43.4806 -43.6329
L43.2506 -43.865
L43.019 -44.0982
L42.7858 -44.3325
L42.5511 -44.5678
L42.3151 -44.8041
L42.0777 -45.0415
L41.8392 -45.28
L41.5996 -45.5196
L41.3591 -45.7601
L41.1178 -46.0018
L40.8759 -46.2445
L40.6336 -46.4882
L40.3911 -46.733
L40.1485 -46.9788
L39.9062 -47.2257
L39.6644 -47.4737
L39.4234 -47.7227
L39.1834 -47.9727
L38.9448 -48.2238
L38.7079 -48.476
L38.4731 -48.7292
L38.2408 -48.9836
L38.0113 -49.239
L37.7852 -49.4956
L37.5628 -49.7533
L37.3447 -50.0122
L37.1313 -50.2723
L36.9231 -50.5337
L36.7207 -50.7963
L36.5246 -51.0602
L36.3353 -51.3254
L36.1534 -51.592
L35.9794 -51.86
L35.8139 -52.1294
L35.6573 -52.4003
L35.5102 -52.6726
L35.3731 -52.9463
L35.2465 -53.2215
L35.1306 -53.498
L35.026 -53.776
L34.9329 -54.0553
L34.8516 -54.3357
L34.7823 -54.6174
L34.7252 -54.9
L34.6804 -55.1835
L34.648 -55.4677
L34.628 -55.7524
L34.6202 -56.0375
L34.6246 -56.3227
L34.641 -56.6077
L34.6693 -56.8924
L34.7092 -57.1765
L34.7604 -57.4596
L34.8227 -57.7417
L34.8957 -58.0223
L34.9792 -58.3012
L35.0727 -58.5782
L35.176 -58.853
L35.2887 -59.1253
L35.4104 -59.395
L35.5407 -59.6616
L35.6794 -59.9252
L35.8261 -60.1853
L35.9805 -60.4419
L36.1421 -60.6947
L36.3108 -60.9436
L36.4861 -61.1883
L36.6678 -61.4288
L36.8557 -61.6649
L37.0494 -61.8965
L37.2487 -62.1234
L37.4534 -62.3455
L37.6631 -62.5629
L37.8777 -62.7752
L38.097 -62.9826
L38.3207 -63.1849
L38.5487 -63.3821
L38.7808 -63.5741
L39.0169 -63.7608
L39.2567 -63.9423
L39.7725 -64.1186
L40.2649 -64.2492
L40.7561 -64.1791
L41.2458 -64.1003
L41.7339 -64.0131
L42.2202 -63.9172
L42.7047 -63.8129
L43.1871 -63.7001
L43.6673 -63.5789
L44.1452 -63.4493
L44.6206 -63.3113
L45.0934 -63.165
L45.5634 -63.0104
L46.0305 -62.8476
L46.4946 -62.6766
L46.9554 -62.4974
L47.4129 -62.3103
L47.8669 -62.115
L48.3174 -61.9119
L48.764 -61.7008
L49.2068 -61.482
L49.6456 -61.2553
L50.0802 -61.021
L50.5105 -60.779
L50.9363 -60.5295
L51.3577 -60.2725
L51.7743 -60.0082
L52.1862 -59.7365
L52.5931 -59.4576
L52.995 -59.1715
L53.3917 -58.8784
L53.7831 -58.5783
L54.1691 -58.2713
L54.5495 -57.9576
L54.9243 -57.6371
L55.2933 -57.3101
L55.6565 -56.9766
L56.0137 -56.6367
L56.3647 -56.2905
L56.7096 -55.9381
L57.0482 -55.5796
L57.3803 -55.2152
L57.7059 -54.845
L58.025 -54.469
L58.3373 -54.0873
L58.6428 -53.7002
L58.9414 -53.3076
L59.233 -52.9098
L59.5176 -52.5069
L59.7949 -52.0989
L60.0651 -51.686
L60.3279 -51.2683
L60.5833 -50.846
L60.8312 -50.4192
L61.0715 -49.9879
L61.3042 -49.5524
L61.5292 -49.1128
L61.7464 -48.6692
L61.9558 -48.2217
L62.1573 -47.7705
L62.3508 -47.3158
L62.5363 -46.8575
L62.7137 -46.396
L62.8829 -45.9313
L63.044 -45.4635
L63.1968 -44.9929
L63.3414 -44.5196
L63.4776 -44.0436
L63.6054 -43.5652
L63.7249 -43.0845
L63.8359 -42.6017
L63.9384 -42.1168
L64.0324 -41.6301
L64.1178 -41.1416
L64.1947 -40.6516
L64.263 -40.1602
L64.3227 -39.6675
L64.3738 -39.1737
L64.4163 -38.6789
L64.45 -38.1833
L64.4751 -37.687
L64.4916 -37.1902
L64.4993 -36.6931
L64.4984 -36.1957
L64.4888 -35.6983
L64.4705 -35.201
L64.4436 -34.7039
L64.4079 -34.2072
L64.3637 -33.7111
L64.3108 -33.2157
L64.2492 -32.7211
L64.1791 -32.2275
L64.1003 -31.7351
L64.0131 -31.2439
L63.9172 -30.7542
L63.8129 -30.2661
L63.7001 -29.7798
L63.5789 -29.2953
L63.4493 -28.8129
L63.3113 -28.3327
L63.165 -27.8548
L63.0104 -27.3794
L62.8476 -26.9066
L62.6766 -26.4366
L62.4974 -25.9695
L62.3103 -25.5054
L62.115 -25.0446
L61.9119 -24.5871
L61.7008 -24.1331
L61.482 -23.6826
L61.2553 -23.236
L61.021 -22.7932
L60.779 -22.3544
L60.5295 -21.9198
z
" id="C0_1_67cb2a410b"/>
     <path d="
M32.5012 -7.72076
L32.3056 -7.94424
L32.1123 -8.16873
L31.9213 -8.39414
L31.7327 -8.62043
L31.5465 -8.84752
L31.3628 -9.07536
L31.1815 -9.30389
L31.0028 -9.53307
L30.8265 -9.76284
L30.6528 -9.99316
L30.4815 -10.224
L30.3127 -10.4553
L30.1464 -10.687
L29.9826 -10.9192
L29.8211 -11.1517
L29.6621 -11.3846
L29.5055 -11.6178
L29.3512 -11.8513
L29.1993 -12.0851
L29.0496 -12.3192
L28.9022 -12.5536
L28.757 -12.7882
L28.614 -13.0231
L28.4732 -13.2582
L28.3345 -13.4936
L28.1979 -13.7293
L28.0633 -13.9652
L27.9307 -14.2014
L27.8001 -14.4378
L27.6714 -14.6746
L27.5446 -14.9116
L27.4197 -15.149
L27.2966 -15.3867
L27.1753 -15.6247
L27.0558 -15.863
L26.9379 -16.1018
L26.8218 -16.341
L26.7073 -16.5806
L26.5944 -16.8206
L26.4832 -17.0611
L26.3734 -17.3021
L26.2653 -17.5437
L26.1586 -17.7858
L26.0534 -18.0284
L25.9496 -18.2717
L25.8473 -18.5157
L25.7463 -18.7603
L25.6467 -19.0057
L25.5485 -19.2518
L25.4516 -19.4987
L25.356 -19.7464
L25.2616 -19.995
L25.1686 -20.2445
L25.0767 -20.4949
L24.9861 -20.7462
L24.8967 -20.9986
L24.8084 -21.2521
L24.7214 -21.5067
L24.6354 -21.7623
L24.5506 -22.0192
L24.467 -22.2773
L24.3844 -22.5366
L24.303 -22.7973
L24.2226 -23.0593
L24.1433 -23.3227
L24.0651 -23.5875
L23.988 -23.8538
L23.9119 -24.1216
L23.8368 -24.391
L23.7628 -24.662
L23.6898 -24.9347
L23.6178 -25.209
L23.5469 -25.4851
L23.4769 -25.763
L23.408 -26.0427
L23.3401 -26.3242
L23.2732 -26.6076
L23.2074 -26.893
L23.1425 -27.1804
L23.0786 -27.4698
L23.0158 -27.7612
L22.9539 -28.0547
L22.8931 -28.3504
L22.8333 -28.6482
L22.7745 -28.9481
L22.7167 -29.2503
L22.6599 -29.5547
L22.6041 -29.8614
L22.5493 -30.1703
L22.4956 -30.4815
L22.4428 -30.7951
L22.391 -31.1109
L22.3403 -31.429
L22.2905 -31.7495
L22.2417 -32.0722
L22.1939 -32.3973
L22.147 -32.7246
L22.1011 -33.0542
L22.0561 -33.386
L22.0121 -33.7201
L21.9689 -34.0563
L21.9265 -34.3946
L21.885 -34.7349
L21.8442 -35.0772
L21.8042 -35.4215
L21.7648 -35.7676
L21.726 -36.1154
L21.6878 -36.4648
L21.6501 -36.8157
L21.6127 -37.1681
L21.5756 -37.5217
L21.5387 -37.8763
L21.5018 -38.2319
L21.4649 -38.5883
L21.4277 -38.9451
L21.3901 -39.3024
L21.3519 -39.6597
L21.313 -40.017
L21.273 -40.3738
L21.2319 -40.7301
L21.1893 -41.0854
L21.145 -41.4394
L21.0986 -41.792
L21.0499 -42.1427
L20.9987 -42.4911
L20.9444 -42.8371
L20.8868 -43.1801
L20.8256 -43.5198
L20.7603 -43.8558
L20.6906 -44.1877
L20.6162 -44.5152
L20.5365 -44.8379
L20.4514 -45.1553
L20.3603 -45.4671
L20.263 -45.773
L20.1592 -46.0724
L20.0485 -46.3652
L19.9307 -46.6509
L19.8056 -46.9293
L19.6731 -47.2001
L19.5329 -47.463
L19.385 -47.7178
L19.2294 -47.9643
L19.0661 -48.2023
L18.8951 -48.4317
L18.7166 -48.6524
L18.5308 -48.8642
L18.3378 -49.0672
L18.1379 -49.2613
L17.9314 -49.4464
L17.7186 -49.6227
L17.4997 -49.7902
L17.2753 -49.9488
L17.0456 -50.0987
L16.8109 -50.24
L16.5718 -50.3727
L16.3285 -50.4969
L16.0815 -50.6128
L15.831 -50.7204
L15.5775 -50.8199
L15.3213 -50.9114
L15.0628 -50.995
L14.8022 -51.0708
L14.5399 -51.139
L14.2762 -51.1997
L14.0114 -51.253
L13.7457 -51.299
L13.4794 -51.3378
L13.2127 -51.3695
L12.9459 -51.3944
L12.679 -51.4123
L12.4124 -51.4236
L11.8028 -51.4282
L11.5437 -51.058
L11.292 -50.6334
L11.0479 -50.2044
L10.8113 -49.771
L10.5825 -49.3334
L10.3613 -48.8918
L10.148 -48.4462
L9.94258 -47.9969
L9.74508 -47.5439
L9.55558 -47.0874
L9.37413 -46.6275
L9.2008 -46.1643
L9.03562 -45.6981
L8.87867 -45.2289
L8.72997 -44.7569
L8.58958 -44.2822
L8.45753 -43.805
L8.33388 -43.3255
L8.21866 -42.8437
L8.11189 -42.3598
L8.01363 -41.874
L7.92388 -41.3864
L7.84269 -40.8971
L7.77008 -40.4064
L7.70607 -39.9143
L7.65067 -39.421
L7.60391 -38.9267
L7.5658 -38.4315
L7.53635 -37.9355
L7.51557 -37.439
L7.50347 -36.942
L7.50005 -36.4447
L7.50531 -35.9473
L7.51925 -35.45
L7.54186 -34.9527
L7.57315 -34.4558
L7.61309 -33.9594
L7.66168 -33.4636
L7.7189 -32.9686
L7.78474 -32.4745
L7.85917 -31.9814
L7.94217 -31.4896
L8.03372 -30.9992
L8.13379 -30.5103
L8.24234 -30.023
L8.35936 -29.5376
L8.48479 -29.0542
L8.6186 -28.5728
L8.76075 -28.0937
L8.91121 -27.6171
L9.06991 -27.143
L9.23681 -26.6715
L9.41187 -26.203
L9.59503 -25.7374
L9.78623 -25.2749
L9.98541 -24.8157
L10.1925 -24.3599
L10.4075 -23.9077
L10.6303 -23.4591
L10.8608 -23.0144
L11.0989 -22.5736
L11.3446 -22.1369
L11.5979 -21.7044
L11.8586 -21.2763
L12.1266 -20.8527
L12.4019 -20.4337
L12.6844 -20.0194
L12.974 -19.61
L13.2706 -19.2056
L13.5741 -18.8063
L13.8845 -18.4122
L14.2016 -18.0235
L14.5254 -17.6403
L14.8556 -17.2626
L15.1924 -16.8907
L15.5354 -16.5246
L15.8847 -16.1644
L16.2401 -15.8103
L16.6016 -15.4623
L16.9689 -15.1205
L17.3421 -14.7852
L17.7209 -14.4563
L18.1053 -14.1339
L18.4952 -13.8182
L18.8904 -13.5093
L19.2907 -13.2072
L19.6962 -12.9121
L20.1067 -12.624
L20.522 -12.343
L20.942 -12.0693
L21.3666 -11.8028
L21.7956 -11.5437
L22.229 -11.292
L22.6666 -11.0479
L23.1082 -10.8113
L23.5538 -10.5825
L24.0031 -10.3613
L24.4561 -10.148
L24.9126 -9.94258
L25.3725 -9.74508
L25.8357 -9.55558
L26.3019 -9.37413
L26.7711 -9.2008
L27.2431 -9.03562
L27.7178 -8.87867
L28.195 -8.72997
L28.6745 -8.58958
L29.1563 -8.45753
L29.6402 -8.33388
L30.126 -8.21866
L30.6136 -8.11189
L31.1029 -8.01363
L31.5936 -7.92388
z
" id="C0_2_63c54322a9"/>
    </defs>
    <g clip-path="url(#p1bffca34e9)">
     <use style="fill:#ff0000;stroke:#000000;stroke-width:2.0;" x="0.0" xlink:href="#C0_0_a811fe30f3" y="72.0"/>
    </g>
    <g clip-path="url(#p1bffca34e9)">
     <use style="fill:#ffffff;stroke:#000000;stroke-width:2.0;" x="0.0" xlink:href="#C0_1_67cb2a410b" y="72.0"/>
    </g>
    <g clip-path="url(#p1bffca34e9)">
     <use style="fill:#ffffff;stroke:#000000;stroke-width:2.0;" x="0.0" xlink:href="#C0_2_63c54322a9" y="72.0"/>
    </g>
   </g>
  </g>
 </g>
 <defs>
  <clipPath id="p1bffca34e9">
   <rect height="72.0" width="72.0" x="0.0" y="0.0"/>
  </clipPath>
 </defs>
</svg>
