<?xml version="1.0" encoding="utf-8" standalone="no"?>
<!DOCTYPE svg PUBLIC "-//W3C//DTD SVG 1.1//EN"
  "http://www.w3.org/Graphics/SVG/1.1/DTD/svg11.dtd">
<!-- Created with matplotlib (http://matplotlib.org/) -->
<svg height="72pt" version="1.1" viewBox="0 0 72 72" width="72pt" xmlns="http://www.w3.org/2000/svg" xmlns:xlink="http://www.w3.org/1999/xlink">
 <defs>
  <style type="text/css">
*{stroke-linecap:butt;stroke-linejoin:round;}
  </style>
 </defs>
 <g id="figure_1">
  <g id="patch_1">
   <path d="
M0 72
L72 72
L72 0
L0 0
z
" style="fill:none;"/>
  </g>
  <g id="axes_1">
   <g id="PatchCollection_1">
    <defs>
     <path d="
M36 -7.5
C43.5583 -7.5 50.808 -10.5029 56.1525 -15.8475
C61.4971 -21.192 64.5 -28.4417 64.5 -36
C64.5 -43.5583 61.4971 -50.808 56.1525 -56.1525
C50.808 -61.4971 43.5583 -64.5 36 -64.5
C28.4417 -64.5 21.192 -61.4971 15.8475 -56.1525
C10.5029 -50.808 7.5 -43.5583 7.5 -36
C7.5 -28.4417 10.5029 -21.192 15.8475 -15.8475
C21.192 -10.5029 28.4417 -7.5 36 -7.5
z
" id="C0_0_a811fe30f3"/>
     <path d="
M29.2317 -63.4621
L28.9063 -63.1022
L28.591 -62.7384
L28.2859 -62.3712
L27.9909 -62.0012
L27.706 -61.6287
L27.4312 -61.2543
L27.1663 -60.8783
L26.9111 -60.5012
L26.6655 -60.1232
L26.4292 -59.7449
L26.2021 -59.3664
L25.9839 -58.9881
L25.7744 -58.6104
L25.5734 -58.2334
L25.3807 -57.8574
L25.1959 -57.4826
L25.0189 -57.1093
L24.8494 -56.7376
L24.6873 -56.3678
L24.5321 -55.9998
L24.3839 -55.634
L24.2422 -55.2704
L24.1069 -54.9092
L23.9778 -54.5503
L23.8546 -54.194
L23.7372 -53.8403
L23.6254 -53.4891
L23.5189 -53.1407
L23.4175 -52.795
L23.3211 -52.452
L23.2296 -52.1117
L23.1426 -51.7743
L23.0602 -51.4396
L22.982 -51.1077
L22.908 -50.7785
L22.838 -50.452
L22.7718 -50.1283
L22.7094 -49.8072
L22.6505 -49.4888
L22.5952 -49.173
L22.5432 -48.8598
L22.4944 -48.549
L22.4487 -48.2408
L22.4061 -47.935
L22.3664 -47.6316
L22.3296 -47.3304
L22.2954 -47.0316
L22.2639 -46.7349
L22.235 -46.4404
L22.2086 -46.148
L22.1846 -45.8576
L22.163 -45.5691
L22.1436 -45.2826
L22.1265 -44.9978
L22.1115 -44.7148
L22.0987 -44.4336
L22.0879 -44.1539
L22.0791 -43.8758
L22.0723 -43.5992
L22.0674 -43.324
L22.0644 -43.0502
L22.0632 -42.7776
L22.0639 -42.5063
L22.0663 -42.2362
L22.0705 -41.9671
L22.0764 -41.6991
L22.084 -41.4319
L22.0933 -41.1657
L22.1042 -40.9003
L22.1168 -40.6357
L22.131 -40.3717
L22.1468 -40.1083
L22.1643 -39.8455
L22.1833 -39.5832
L22.2039 -39.3213
L22.2261 -39.0597
L22.2499 -38.7985
L22.3022 -38.5374
L22.3307 -38.2765
L22.3609 -38.0156
L22.3926 -37.7548
L22.426 -37.494
L22.4609 -37.233
L22.4975 -36.9718
L22.5358 -36.7104
L22.5757 -36.4487
L22.6173 -36.1866
L22.6607 -35.9241
L22.7057 -35.661
L22.7525 -35.3974
L22.8011 -35.1332
L22.8516 -34.8682
L22.9038 -34.6025
L22.958 -34.3359
L23.0141 -34.0685
L23.0721 -33.8
L23.1321 -33.5306
L23.1942 -33.2601
L23.2584 -32.9884
L23.3247 -32.7154
L23.3931 -32.4413
L23.4639 -32.1657
L23.5369 -31.8888
L23.6122 -31.6103
L23.69 -31.3304
L23.7703 -31.0488
L23.8531 -30.7657
L23.9385 -30.4807
L24.0266 -30.1941
L24.1175 -29.9056
L24.2112 -29.6152
L24.3079 -29.3229
L24.4075 -29.0286
L24.5102 -28.7323
L24.6162 -28.4339
L24.7254 -28.1333
L24.8379 -27.8306
L24.954 -27.5257
L25.0736 -27.2186
L25.1969 -26.9091
L25.3241 -26.5974
L25.4551 -26.2833
L25.5901 -25.9669
L25.7293 -25.6481
L25.8728 -25.3269
L26.0206 -25.0033
L26.173 -24.6774
L26.33 -24.3491
L26.4917 -24.0184
L26.6584 -23.6855
L26.8301 -23.3502
L27.007 -23.0126
L27.1892 -22.6729
L27.3769 -22.331
L27.5701 -21.9871
L27.7691 -21.6412
L27.9739 -21.2934
L28.1847 -20.9438
L28.4016 -20.5926
L28.6248 -20.2398
L28.8543 -19.8857
L29.0904 -19.5304
L29.333 -19.1741
L29.5823 -18.8169
L29.8383 -18.4591
L30.1013 -18.101
L30.3712 -17.7427
L30.6481 -17.3845
L30.9321 -17.0267
L31.2231 -16.6695
L31.5212 -16.3134
L31.8264 -15.9586
L32.1386 -15.6054
L32.4577 -15.2543
L32.7836 -14.9055
L33.1161 -14.5594
L33.455 -14.2165
L33.7998 -13.8771
L34.1501 -13.5416
L34.505 -13.2105
L34.8635 -12.8841
L35.2238 -12.5629
L35.583 -12.2472
L35.936 -11.9375
L36.273 -11.6342
L36.5734 -11.3375
L36.794 -11.0478
L36.8605 -10.7652
L36.7224 -10.4895
L36.423 -10.2213
L36.033 -9.96158
L35.5947 -9.71152
L35.1283 -9.47187
L34.6439 -9.24315
L34.1466 -9.02575
L33.6397 -8.82
L33.1251 -8.62617
L32.6044 -8.44451
L32.0786 -8.27521
L31.5486 -8.11846
L31.0387 -7.97441
L30.5497 -7.93515
L30.0623 -8.02601
L29.5767 -8.12539
L29.0931 -8.23326
L28.6116 -8.34959
L28.1323 -8.47435
L27.6555 -8.60748
L27.1812 -8.74896
L26.7095 -8.89875
L26.2407 -9.05678
L25.7749 -9.22303
L25.3121 -9.39743
L24.8527 -9.57994
L24.3966 -9.77049
L23.9441 -9.96903
L23.4952 -10.1755
L23.0502 -10.3898
L22.609 -10.612
L22.172 -10.8419
L21.7392 -11.0794
L21.3107 -11.3245
L20.8867 -11.5772
L20.4673 -11.8372
L20.0527 -12.1047
L19.6429 -12.3794
L19.238 -12.6613
L18.8383 -12.9504
L18.4438 -13.2464
L18.0547 -13.5494
L17.671 -13.8592
L17.2929 -14.1758
L16.9205 -14.499
L16.5539 -14.8287
L16.1933 -15.1649
L15.8386 -15.5075
L15.4902 -15.8563
L15.1479 -16.2112
L14.812 -16.5722
L14.4826 -16.9391
L14.1597 -17.3117
L13.8435 -17.6901
L13.534 -18.0741
L13.2314 -18.4635
L12.9357 -18.8582
L12.647 -19.2582
L12.3655 -19.6633
L12.0911 -20.0733
L11.824 -20.4883
L11.5643 -20.9079
L11.312 -21.3321
L11.0673 -21.7608
L10.8301 -22.1938
L10.6007 -22.6311
L10.3789 -23.0724
L10.165 -23.5176
L9.95888 -23.9667
L9.76074 -24.4194
L9.57059 -24.8756
L9.38849 -25.3353
L9.2145 -25.7982
L9.04866 -26.2641
L8.89104 -26.7331
L8.74167 -27.2049
L8.60061 -27.6793
L8.46789 -28.1563
L8.34356 -28.6357
L8.22765 -29.1173
L8.1202 -29.6011
L8.02125 -30.0867
L7.93082 -30.5742
L7.84893 -31.0633
L7.77563 -31.5539
L7.71092 -32.0459
L7.65482 -32.5391
L7.60737 -33.0333
L7.56856 -33.5285
L7.53841 -34.0244
L7.51693 -34.5209
L7.50413 -35.0178
L7.5 -35.5151
L7.50456 -36.0125
L7.5178 -36.5099
L7.53971 -37.0071
L7.5703 -37.504
L7.60954 -38.0005
L7.65743 -38.4964
L7.71396 -38.9915
L7.7791 -39.4857
L7.85284 -39.9788
L7.93515 -40.4707
L8.02601 -40.9613
L8.12539 -41.4503
L8.23326 -41.9377
L8.34959 -42.4233
L8.47435 -42.9069
L8.60748 -43.3884
L8.74896 -43.8677
L8.89875 -44.3445
L9.05678 -44.8188
L9.22303 -45.2905
L9.39743 -45.7593
L9.57994 -46.2251
L9.77049 -46.6879
L9.96903 -47.1473
L10.1755 -47.6034
L10.3898 -48.0559
L10.612 -48.5048
L10.8419 -48.9498
L11.0794 -49.391
L11.3245 -49.828
L11.5772 -50.2608
L11.8372 -50.6893
L12.1047 -51.1133
L12.3794 -51.5327
L12.6613 -51.9473
L12.9504 -52.3571
L13.2464 -52.762
L13.5494 -53.1617
L13.8592 -53.5562
L14.1758 -53.9453
L14.499 -54.329
L14.8287 -54.7071
L15.1649 -55.0795
L15.5075 -55.4461
L15.8563 -55.8067
L16.2112 -56.1614
L16.5722 -56.5098
L16.9391 -56.8521
L17.3117 -57.188
L17.6901 -57.5174
L18.0741 -57.8403
L18.4635 -58.1565
L18.8582 -58.466
L19.2582 -58.7686
L19.6633 -59.0643
L20.0733 -59.353
L20.4883 -59.6345
L20.9079 -59.9089
L21.3321 -60.176
L21.7608 -60.4357
L22.1938 -60.688
L22.6311 -60.9327
L23.0724 -61.1699
L23.5176 -61.3993
L23.9667 -61.6211
L24.4194 -61.835
L24.8756 -62.0411
L25.3353 -62.2393
L25.7982 -62.4294
L26.2641 -62.6115
L26.7331 -62.7855
L27.2049 -62.9513
L27.6793 -63.109
L28.1563 -63.2583
L28.6357 -63.3994
z
" id="C0_1_d57b00ea4b"/>
     <path d="
M40.9518 -63.9701
L41.402 -63.665
L41.8404 -63.3536
L42.2669 -63.0364
L42.6815 -62.7139
L43.0842 -62.3868
L43.4751 -62.0555
L43.8543 -61.7205
L44.222 -61.3823
L44.5784 -61.0414
L44.9235 -60.6981
L45.2576 -60.3528
L45.5809 -60.006
L45.8936 -59.658
L46.196 -59.3091
L46.4883 -58.9596
L46.7708 -58.6099
L47.0436 -58.2602
L47.3071 -57.9107
L47.5614 -57.5616
L47.8069 -57.2133
L48.0439 -56.8658
L48.2724 -56.5194
L48.4929 -56.1741
L48.7054 -55.8302
L48.9104 -55.4877
L49.108 -55.1468
L49.2984 -54.8075
L49.4819 -54.47
L49.6587 -54.1343
L49.829 -53.8005
L49.993 -53.4686
L50.1509 -53.1386
L50.303 -52.8107
L50.4493 -52.4847
L50.5902 -52.1608
L50.7257 -51.839
L50.856 -51.5191
L50.9814 -51.2013
L51.102 -50.8855
L51.2178 -50.5718
L51.3292 -50.26
L51.4362 -49.9501
L51.5389 -49.6422
L51.6375 -49.3362
L51.7321 -49.0321
L51.8229 -48.7297
L51.9099 -48.4292
L51.9933 -48.1303
L52.0732 -47.8332
L52.1496 -47.5377
L52.2227 -47.2438
L52.2925 -46.9514
L52.3592 -46.6605
L52.4228 -46.371
L52.4835 -46.0829
L52.5412 -45.7961
L52.5961 -45.5106
L52.6481 -45.2262
L52.6975 -44.943
L52.7442 -44.6608
L52.7883 -44.3797
L52.8299 -44.0995
L52.8689 -43.8202
L52.9056 -43.5417
L52.9398 -43.264
L52.9716 -42.987
L53.0011 -42.7106
L53.0283 -42.4348
L53.0532 -42.1595
L53.0759 -41.8846
L53.0964 -41.6101
L53.1147 -41.3359
L53.1308 -41.062
L53.1448 -40.7882
L53.1566 -40.5146
L53.1663 -40.241
L53.1738 -39.9674
L53.1793 -39.6937
L53.1826 -39.4199
L53.1838 -39.1458
L53.183 -38.8715
L53.18 -38.5968
L53.1748 -38.3217
L53.1676 -38.0461
L53.1582 -37.77
L53.1467 -37.4933
L53.1329 -37.2159
L53.117 -36.9377
L53.0989 -36.6588
L53.0785 -36.3789
L53.0559 -36.0981
L53.031 -35.8163
L53.0037 -35.5334
L52.9741 -35.2494
L52.9421 -34.9641
L52.9076 -34.6776
L52.8706 -34.3897
L52.8311 -34.1004
L52.7889 -33.8096
L52.7442 -33.5173
L52.6967 -33.2234
L52.6465 -32.9277
L52.5934 -32.6304
L52.5374 -32.3312
L52.4785 -32.0302
L52.4165 -31.7273
L52.3513 -31.4223
L52.283 -31.1154
L52.2113 -30.8063
L52.1363 -30.495
L52.0578 -30.1816
L51.9757 -29.8659
L51.8899 -29.5479
L51.8003 -29.2275
L51.7067 -28.9047
L51.6092 -28.5795
L51.5075 -28.2518
L51.4015 -27.9216
L51.2912 -27.5889
L51.1763 -27.2536
L51.0567 -26.9157
L50.9323 -26.5752
L50.8029 -26.2321
L50.6684 -25.8865
L50.5286 -25.5382
L50.3834 -25.1874
L50.2326 -24.834
L50.0761 -24.4781
L49.9136 -24.1197
L49.745 -23.7589
L49.5702 -23.3957
L49.3889 -23.0303
L49.201 -22.6626
L49.0063 -22.2928
L48.8046 -21.9211
L48.5957 -21.5475
L48.3796 -21.1722
L48.1559 -20.7953
L47.9246 -20.417
L47.6854 -20.0376
L47.4382 -19.6571
L47.1829 -19.2759
L46.9193 -18.8942
L46.6473 -18.5122
L46.3668 -18.1303
L46.0776 -17.7487
L45.7796 -17.3677
L45.4728 -16.9877
L45.1572 -16.609
L44.8327 -16.232
L44.4993 -15.8571
L44.157 -15.4847
L43.8059 -15.1151
L43.4461 -14.7489
L43.0779 -14.3865
L42.7015 -14.0283
L42.3172 -13.6748
L41.9257 -13.3264
L41.5276 -12.9837
L41.1242 -12.6471
L40.7173 -12.317
L40.3097 -11.9941
L39.9067 -11.6788
L39.5182 -11.3715
L39.1646 -11.073
L38.8895 -10.784
L38.767 -10.5052
L38.8479 -10.2372
L39.0888 -9.9795
L39.4193 -9.73174
L39.7971 -9.49382
L40.202 -9.26588
L40.6243 -9.04812
L41.0588 -8.84077
L41.5023 -8.64405
L41.9531 -8.45818
L42.9051 -8.28336
L43.3866 -8.34914
L43.8659 -8.47387
L44.3428 -8.60697
L44.8171 -8.74842
L45.2887 -8.89817
L45.7576 -9.05618
L46.2234 -9.2224
L46.6861 -9.39677
L47.1456 -9.57924
L47.6017 -9.76976
L48.0542 -9.96828
L48.5031 -10.1747
L48.9482 -10.389
L49.3893 -10.6111
L49.8264 -10.841
L50.2592 -11.0785
L50.6877 -11.3236
L51.1117 -11.5762
L51.5311 -11.8363
L51.9458 -12.1037
L52.3556 -12.3784
L52.7605 -12.6603
L53.1602 -12.9493
L53.5547 -13.2453
L53.9439 -13.5482
L54.3276 -13.858
L54.7057 -14.1746
L55.0781 -14.4977
L55.4447 -14.8275
L55.8054 -15.1637
L56.1601 -15.5062
L56.5086 -15.855
L56.8508 -16.2099
L57.1867 -16.5708
L57.5162 -16.9377
L57.8391 -17.3103
L58.1553 -17.6887
L58.4648 -18.0726
L58.7675 -18.462
L59.0632 -18.8568
L59.3519 -19.2567
L59.6335 -19.6618
L59.9079 -20.0718
L60.175 -20.4867
L60.4347 -20.9063
L60.687 -21.3305
L60.9318 -21.7592
L61.169 -22.1922
L61.3985 -22.6294
L61.6203 -23.0707
L61.8343 -23.516
L62.0404 -23.965
L62.2385 -24.4177
L62.4287 -24.8739
L62.6108 -25.3336
L62.7849 -25.7964
L62.9507 -26.2624
L63.1084 -26.7314
L63.2578 -27.2031
L63.3989 -27.6776
L63.5316 -28.1545
L63.656 -28.6339
L63.7719 -29.1155
L63.8794 -29.5992
L63.9784 -30.0849
L64.0689 -30.5724
L64.1508 -31.0615
L64.2241 -31.5521
L64.2889 -32.0441
L64.345 -32.5373
L64.3925 -33.0315
L64.4313 -33.5266
L64.4615 -34.0225
L64.483 -34.519
L64.4958 -35.016
L64.5 -35.5132
L64.4955 -36.0106
L64.4823 -36.508
L64.4604 -37.0053
L64.4298 -37.5022
L64.3906 -37.9987
L64.3428 -38.4945
L64.2863 -38.9896
L64.2212 -39.4838
L64.1475 -39.977
L64.0652 -40.4689
L63.9743 -40.9594
L63.875 -41.4485
L63.7672 -41.9359
L63.6509 -42.4215
L63.5261 -42.9051
L63.393 -43.3866
L63.2516 -43.8659
L63.1018 -44.3428
L62.9438 -44.8171
L62.7776 -45.2887
L62.6032 -45.7576
L62.4208 -46.2234
L62.2302 -46.6861
L62.0317 -47.1456
L61.8253 -47.6017
L61.611 -48.0542
L61.3889 -48.5031
L61.159 -48.9482
L60.9215 -49.3893
L60.6764 -49.8264
L60.4238 -50.2592
L60.1637 -50.6877
L59.8963 -51.1117
L59.6216 -51.5311
L59.3397 -51.9458
L59.0507 -52.3556
L58.7547 -52.7605
L58.4518 -53.1602
L58.142 -53.5547
L57.8254 -53.9439
L57.5023 -54.3276
L57.1725 -54.7057
L56.8363 -55.0781
L56.4938 -55.4447
L56.145 -55.8054
L55.7901 -56.1601
L55.4292 -56.5086
L55.0623 -56.8508
L54.6897 -57.1867
L54.3113 -57.5162
L53.9274 -57.8391
L53.538 -58.1553
L53.1432 -58.4648
L52.7433 -58.7675
L52.3382 -59.0632
L51.9282 -59.3519
L51.5133 -59.6335
L51.0937 -59.9079
L50.6695 -60.175
L50.2408 -60.4347
L49.8078 -60.687
L49.3706 -60.9318
L48.9293 -61.169
L48.484 -61.3985
L48.035 -61.6203
L47.5823 -61.8343
L47.1261 -62.0404
L46.6664 -62.2385
L46.2036 -62.4287
L45.7376 -62.6108
L45.2686 -62.7849
L44.7969 -62.9507
L44.3224 -63.1084
L43.8455 -63.2578
L43.3661 -63.3989
L42.8845 -63.5316
L42.4008 -63.656
L41.9151 -63.7719
z
" id="C0_2_ca7dce1e01"/>
    </defs>
    <g clip-path="url(#p1bffca34e9)">
     <use style="fill:#ff0000;stroke:#000000;stroke-width:2.0;" x="0.0" xlink:href="#C0_0_a811fe30f3" y="72.0"/>
    </g>
    <g clip-path="url(#p1bffca34e9)">
     <use style="fill:#ffffff;stroke:#000000;stroke-width:2.0;" x="0.0" xlink:href="#C0_1_d57b00ea4b" y="72.0"/>
    </g>
    <g clip-path="url(#p1bffca34e9)">
     <use style="fill:#ffffff;stroke:#000000;stroke-width:2.0;" x="0.0" xlink:href="#C0_2_ca7dce1e01" y="72.0"/>
    </g>
   </g>
  </g>
 </g>
 <defs>
  <clipPath id="p1bffca34e9">
   <rect height="72.0" width="72.0" x="0.0" y="0.0"/>
  </clipPath>
 </defs>
</svg>
