<?xml version="1.0" encoding="utf-8" standalone="no"?>
<!DOCTYPE svg PUBLIC "-//W3C//DTD SVG 1.1//EN"
  "http://www.w3.org/Graphics/SVG/1.1/DTD/svg11.dtd">
<!-- Created with matplotlib (http://matplotlib.org/) -->
<svg height="72pt" version="1.1" viewBox="0 0 72 72" width="72pt" xmlns="http://www.w3.org/2000/svg" xmlns:xlink="http://www.w3.org/1999/xlink">
 <defs>
  <style type="text/css">
*{stroke-linecap:butt;stroke-linejoin:round;}
  </style>
 </defs>
 <g id="figure_1">
  <g id="patch_1">
   <path d="
M0 72
L72 72
L72 0
L0 0
z
" style="fill:none;"/>
  </g>
  <g id="axes_1">
   <g id="PatchCollection_1">
    <defs>
     <path d="
M36 -7.5
C43.5583 -7.5 50.808 -10.5029 56.1525 -15.8475
C61.4971 -21.192 64.5 -28.4417 64.5 -36
C64.5 -43.5583 61.4971 -50.808 56.1525 -56.1525
C50.808 -61.4971 43.5583 -64.5 36 -64.5
C28.4417 -64.5 21.192 -61.4971 15.8475 -56.1525
C10.5029 -50.808 7.5 -43.5583 7.5 -36
C7.5 -28.4417 10.5029 -21.192 15.8475 -15.8475
C21.192 -10.5029 28.4417 -7.5 36 -7.5
z
" id="C0_0_a811fe30f3"/>
     <path d="
M28.1719 -44.7539
L28.0045 -44.5525
L27.8382 -44.3499
L27.6729 -44.1463
L27.5086 -43.9415
L27.3453 -43.7355
L27.183 -43.5283
L27.0216 -43.3198
L26.8611 -43.1099
L26.7014 -42.8987
L26.5426 -42.686
L26.3845 -42.4717
L26.2273 -42.2559
L26.0708 -42.0385
L25.915 -41.8193
L25.76 -41.5985
L25.6057 -41.3758
L25.452 -41.1512
L25.299 -40.9247
L25.1467 -40.6962
L24.995 -40.4656
L24.844 -40.2328
L24.6935 -39.9979
L24.5437 -39.7606
L24.3946 -39.521
L24.246 -39.279
L24.0981 -39.0345
L23.9508 -38.7874
L23.8041 -38.5377
L23.6581 -38.2852
L23.5128 -38.03
L23.3681 -37.7718
L23.2241 -37.5107
L23.0809 -37.2466
L22.9384 -36.9794
L22.7967 -36.709
L22.6558 -36.4353
L22.5158 -36.1582
L22.3766 -35.8778
L22.2385 -35.5938
L22.1013 -35.3063
L21.9652 -35.0151
L21.8303 -34.7202
L21.6965 -34.4215
L21.564 -34.1189
L21.4329 -33.8124
L21.3033 -33.5019
L21.1752 -33.1873
L21.0488 -32.8686
L20.9242 -32.5457
L20.8015 -32.2186
L20.6808 -31.8873
L20.5623 -31.5516
L20.4462 -31.2115
L20.3325 -30.8671
L20.2215 -30.5183
L20.1134 -30.1652
L20.0083 -29.8076
L19.9065 -29.4456
L19.8082 -29.0793
L19.7136 -28.7087
L19.623 -28.3337
L19.5367 -27.9546
L19.4549 -27.5714
L19.3779 -27.1841
L19.3061 -26.793
L19.2399 -26.398
L19.1796 -25.9995
L19.1255 -25.5976
L19.0783 -25.1925
L19.0382 -24.7845
L19.0058 -24.3739
L18.9816 -23.961
L18.9662 -23.5461
L18.9603 -23.1298
L18.9646 -22.7124
L18.9797 -22.2945
L19.0065 -21.8768
L19.046 -21.46
L19.0991 -21.0447
L19.1669 -20.6319
L19.2506 -20.2227
L19.3514 -19.8181
L19.4708 -19.4193
L19.61 -19.0277
L19.7706 -18.6447
L19.9538 -18.2719
L20.1607 -17.9109
L20.3925 -17.5632
L20.6495 -17.2303
L20.932 -16.9134
L21.2396 -16.6136
L21.5713 -16.3316
L21.9258 -16.068
L22.3014 -15.823
L22.6961 -15.5965
L23.1078 -15.3881
L23.5342 -15.1976
L23.9732 -15.0244
L24.4229 -14.8679
L24.8813 -14.7275
L25.3466 -14.6026
L25.8175 -14.4926
L26.2924 -14.3967
L26.77 -14.3146
L27.2494 -14.2455
L27.7294 -14.189
L28.2093 -14.1445
L28.6882 -14.1114
L29.1655 -14.0894
L29.6404 -14.0779
L30.1126 -14.0765
L30.5816 -14.0847
L31.0468 -14.1022
L31.5081 -14.1284
L31.9649 -14.1629
L32.4172 -14.2055
L32.8645 -14.2557
L33.3068 -14.3132
L33.7439 -14.3775
L34.1755 -14.4485
L34.6017 -14.5257
L35.0223 -14.6089
L35.4372 -14.6977
L35.8465 -14.7918
L36.25 -14.8911
L36.6477 -14.9952
L37.0397 -15.1039
L37.426 -15.2169
L37.8065 -15.3341
L38.1814 -15.4551
L38.5506 -15.5799
L38.9142 -15.7082
L39.2723 -15.8399
L39.6249 -15.9747
L39.9721 -16.1125
L40.3141 -16.2532
L40.6507 -16.3966
L40.9823 -16.5425
L41.3087 -16.6909
L41.6302 -16.8417
L41.9468 -16.9947
L42.2586 -17.1498
L42.5658 -17.3069
L42.8683 -17.466
L43.1663 -17.627
L43.4599 -17.7897
L43.7492 -17.9542
L44.0343 -18.1203
L44.3152 -18.288
L44.5922 -18.4573
L44.8652 -18.6281
L45.1343 -18.8004
L45.3997 -18.9741
L45.6615 -19.1492
L45.9197 -19.3256
L46.1744 -19.5035
L46.4257 -19.6826
L46.6736 -19.8631
L46.9184 -20.0448
L47.16 -20.2279
L47.3985 -20.4122
L47.6341 -20.5979
L47.8667 -20.7848
L48.0964 -20.973
L48.3234 -21.1625
L48.5477 -21.3534
L48.7693 -21.5455
L48.9884 -21.739
L49.2049 -21.9338
L49.419 -22.1301
L49.6307 -22.3277
L49.8401 -22.5267
L50.0472 -22.7272
L50.2521 -22.9292
L50.4547 -23.1326
L50.6553 -23.3377
L50.8538 -23.5443
L51.0502 -23.7525
L51.2446 -23.9623
L51.4371 -24.1739
L51.6277 -24.3872
L51.8164 -24.6023
L52.0033 -24.8192
L52.1883 -25.0381
L52.3716 -25.2588
L52.553 -25.4815
L52.7328 -25.7063
L52.9109 -25.9332
L53.0872 -26.1622
L53.2619 -26.3935
L53.4349 -26.627
L53.6063 -26.8629
L53.7761 -27.1012
L53.9442 -27.342
L54.1107 -27.5853
L54.2755 -27.8313
L54.4388 -28.0799
L54.6004 -28.3313
L54.7603 -28.5856
L54.9187 -28.8428
L55.0753 -29.103
L55.2302 -29.3663
L55.3835 -29.6327
L55.535 -29.9024
L55.6847 -30.1755
L55.8326 -30.452
L55.9787 -30.732
L56.1228 -31.0156
L56.2651 -31.3029
L56.4053 -31.594
L56.5435 -31.889
L56.6795 -32.1879
L56.8134 -32.491
L56.945 -32.7982
L57.0742 -33.1097
L57.201 -33.4255
L57.3252 -33.7458
L57.4468 -34.0707
L57.5656 -34.4002
L57.6816 -34.7344
L57.7945 -35.0735
L57.9043 -35.4174
L58.0108 -35.7664
L58.1139 -36.1204
L58.2133 -36.4796
L58.309 -36.8441
L58.4007 -37.2138
L58.4883 -37.5889
L58.5715 -37.9694
L58.6501 -38.3554
L58.7239 -38.7469
L58.7927 -39.1439
L58.8563 -39.5465
L58.9142 -39.9546
L58.9664 -40.3683
L59.0125 -40.7875
L59.0522 -41.2123
L59.0852 -41.6424
L59.1112 -42.078
L59.1299 -42.5188
L59.1409 -42.9648
L59.1438 -43.4158
L59.1384 -43.8716
L59.1242 -44.3321
L59.1009 -44.7969
L59.0681 -45.2659
L59.0253 -45.7386
L58.9723 -46.2148
L58.9084 -46.694
L58.8335 -47.1758
L58.7469 -47.6595
L58.6484 -48.1447
L58.5375 -48.6306
L58.4137 -49.1165
L58.2766 -49.6015
L58.1259 -50.0847
L57.9611 -50.5649
L57.7819 -51.0411
L57.5878 -51.5118
L57.3785 -51.9755
L57.1537 -52.4305
L56.9132 -52.8751
L56.6566 -53.3072
L56.384 -53.7247
L56.0953 -54.1254
L55.7906 -54.5069
L55.4703 -54.8671
L55.1348 -55.2038
L54.785 -55.5152
L54.4216 -55.8001
L54.0458 -56.0575
L53.659 -56.287
L53.2626 -56.4889
L52.8579 -56.6638
L52.4465 -56.8127
L52.0297 -56.9369
L51.6089 -57.038
L51.1853 -57.1175
L50.7599 -57.1769
L50.3337 -57.2176
L49.9076 -57.2411
L49.4823 -57.2487
L49.0584 -57.2417
L48.6366 -57.221
L48.2172 -57.1878
L47.8008 -57.143
L47.3877 -57.0874
L46.9782 -57.0218
L46.5726 -56.9469
L46.1711 -56.8634
L45.774 -56.772
L45.3813 -56.6731
L44.9933 -56.5673
L44.6101 -56.4551
L44.2318 -56.337
L43.8583 -56.2133
L43.4899 -56.0845
L43.1266 -55.9509
L42.7683 -55.813
L42.415 -55.671
L42.0669 -55.5252
L41.7239 -55.3759
L41.3859 -55.2233
L41.0529 -55.0678
L40.7249 -54.9096
L40.4019 -54.7489
L40.0837 -54.5858
L39.7704 -54.4206
L39.4618 -54.2534
L39.158 -54.0844
L38.8587 -53.9138
L38.5641 -53.7417
L38.2739 -53.5682
L37.9881 -53.3934
L37.7066 -53.2176
L37.4293 -53.0406
L37.1562 -52.8627
L36.8872 -52.684
L36.6221 -52.5044
L36.3609 -52.3241
L36.1034 -52.1432
L35.8497 -51.9617
L35.5996 -51.7796
L35.353 -51.597
L35.1099 -51.4139
L34.8701 -51.2304
L34.6336 -51.0466
L34.4003 -50.8623
L34.17 -50.6777
L33.9428 -50.4927
L33.7185 -50.3074
L33.4971 -50.1218
L33.2784 -49.9359
L33.0624 -49.7496
L32.8491 -49.5631
L32.6383 -49.3763
L32.4299 -49.1891
L32.224 -49.0016
L32.0204 -48.8138
L31.819 -48.6256
L31.6199 -48.4371
L31.4228 -48.2482
L31.2278 -48.0589
L31.0349 -47.8692
L30.8438 -47.6791
L30.6546 -47.4885
L30.4672 -47.2974
L30.2816 -47.1057
L30.0977 -46.9136
L29.9154 -46.7208
L29.7347 -46.5275
L29.5556 -46.3335
L29.3779 -46.1388
L29.2017 -45.9434
L29.0269 -45.7473
L28.8534 -45.5504
L28.6812 -45.3526
L28.5102 -45.154
z
" id="C0_1_df67db22bc"/>
    </defs>
    <g clip-path="url(#p1bffca34e9)">
     <use style="fill:#ff0000;stroke:#000000;stroke-width:2.0;" x="0.0" xlink:href="#C0_0_a811fe30f3" y="72.0"/>
    </g>
    <g clip-path="url(#p1bffca34e9)">
     <use style="fill:#ffffff;stroke:#000000;stroke-width:2.0;" x="0.0" xlink:href="#C0_1_df67db22bc" y="72.0"/>
    </g>
   </g>
  </g>
 </g>
 <defs>
  <clipPath id="p1bffca34e9">
   <rect height="72.0" width="72.0" x="0.0" y="0.0"/>
  </clipPath>
 </defs>
</svg>
