<?xml version="1.0" encoding="utf-8" standalone="no"?>
<!DOCTYPE svg PUBLIC "-//W3C//DTD SVG 1.1//EN"
  "http://www.w3.org/Graphics/SVG/1.1/DTD/svg11.dtd">
<!-- Created with matplotlib (http://matplotlib.org/) -->
<svg height="72pt" version="1.1" viewBox="0 0 72 72" width="72pt" xmlns="http://www.w3.org/2000/svg" xmlns:xlink="http://www.w3.org/1999/xlink">
 <defs>
  <style type="text/css">
*{stroke-linecap:butt;stroke-linejoin:round;}
  </style>
 </defs>
 <g id="figure_1">
  <g id="patch_1">
   <path d="
M0 72
L72 72
L72 0
L0 0
z
" style="fill:none;"/>
  </g>
  <g id="axes_1">
   <g id="PatchCollection_1">
    <defs>
     <path d="
M36 -7.5
C43.5583 -7.5 50.808 -10.5029 56.1525 -15.8475
C61.4971 -21.192 64.5 -28.4417 64.5 -36
C64.5 -43.5583 61.4971 -50.808 56.1525 -56.1525
C50.808 -61.4971 43.5583 -64.5 36 -64.5
C28.4417 -64.5 21.192 -61.4971 15.8475 -56.1525
C10.5029 -50.808 7.5 -43.5583 7.5 -36
C7.5 -28.4417 10.5029 -21.192 15.8475 -15.8475
C21.192 -10.5029 28.4417 -7.5 36 -7.5
z
" id="C0_0_a811fe30f3"/>
     <path d="
M47.2612 -62.0643
L47.1456 -61.9157
L47.0309 -61.7658
L46.9168 -61.6147
L46.8035 -61.4623
L46.6907 -61.3086
L46.5785 -61.1536
L46.4669 -60.9973
L46.3558 -60.8397
L46.1349 -60.6807
L46.0251 -60.5204
L45.9157 -60.3586
L45.8066 -60.1954
L45.6977 -60.0308
L45.5892 -59.8647
L45.4809 -59.6972
L45.3728 -59.528
L45.2649 -59.3573
L45.1571 -59.185
L45.0495 -59.0111
L44.9419 -58.8355
L44.8344 -58.6582
L44.727 -58.4791
L44.6196 -58.2982
L44.5121 -58.1155
L44.4047 -57.9309
L44.2972 -57.7444
L44.1896 -57.556
L44.0819 -57.3655
L43.9741 -57.173
L43.8662 -56.9783
L43.7581 -56.7815
L43.6499 -56.5825
L43.5414 -56.3812
L43.4328 -56.1776
L43.3239 -55.9716
L43.2148 -55.7633
L43.1055 -55.5524
L42.9959 -55.339
L42.886 -55.123
L42.7759 -54.9044
L42.6655 -54.6831
L42.5548 -54.459
L42.4438 -54.2321
L42.3325 -54.0024
L42.221 -53.7697
L42.1091 -53.534
L41.997 -53.2953
L41.8847 -53.0535
L41.772 -52.8085
L41.6592 -52.5604
L41.5461 -52.309
L41.4328 -52.0543
L41.3194 -51.7962
L41.2058 -51.5347
L41.0922 -51.2699
L40.9785 -51.0015
L40.8647 -50.7296
L40.7511 -50.4542
L40.6375 -50.1751
L40.5241 -49.8925
L40.411 -49.6063
L40.2982 -49.3164
L40.1858 -49.0229
L40.074 -48.7258
L39.9628 -48.425
L39.8524 -48.1206
L39.7429 -47.8126
L39.6345 -47.5011
L39.5273 -47.186
L39.4215 -46.8675
L39.3174 -46.5456
L39.2151 -46.2203
L39.1148 -45.8919
L39.0169 -45.5603
L38.9216 -45.2258
L38.8293 -44.8884
L38.7402 -44.5483
L38.6547 -44.2057
L38.5732 -43.8607
L38.4961 -43.5137
L38.4239 -43.1648
L38.357 -42.8143
L38.2959 -42.4625
L38.2413 -42.1096
L38.1936 -41.7561
L38.1535 -41.4021
L38.1216 -41.0482
L38.0985 -40.6946
L38.0848 -40.3419
L38.0813 -39.9903
L38.0885 -39.6404
L38.1071 -39.2925
L38.1377 -38.9471
L38.1808 -38.6046
L38.237 -38.2655
L38.3066 -37.9302
L38.39 -37.599
L38.4873 -37.2723
L38.5986 -36.9505
L38.7241 -36.6337
L38.8634 -36.3222
L39.0164 -36.0163
L39.1827 -35.7161
L39.3618 -35.4217
L39.5531 -35.133
L39.7561 -34.8503
L39.9701 -34.5734
L40.1942 -34.3023
L40.4279 -34.0369
L40.6702 -33.7772
L40.9204 -33.5231
L41.1778 -33.2744
L41.4416 -33.031
L41.711 -32.7929
L41.9855 -32.5599
L42.2644 -32.3318
L42.547 -32.1086
L42.8327 -31.8902
L43.1211 -31.6764
L43.4115 -31.4672
L43.7036 -31.2623
L43.9969 -31.0618
L44.291 -30.8656
L44.5855 -30.6735
L44.8802 -30.4854
L45.1746 -30.3013
L45.4686 -30.1212
L45.7618 -29.9448
L46.0541 -29.7721
L46.3452 -29.6031
L46.635 -29.4377
L46.9233 -29.2758
L47.2099 -29.1174
L47.4948 -28.9623
L47.7777 -28.8105
L48.0587 -28.6619
L48.3377 -28.5165
L48.6145 -28.3742
L48.8891 -28.235
L49.1614 -28.0987
L49.4315 -27.9654
L49.6993 -27.8348
L49.9647 -27.7071
L50.2278 -27.5821
L50.4885 -27.4598
L50.7469 -27.3401
L51.0029 -27.223
L51.2566 -27.1084
L51.5079 -26.9962
L51.7569 -26.8864
L52.0037 -26.779
L52.2481 -26.6739
L52.4904 -26.571
L52.7304 -26.4704
L52.9683 -26.3719
L53.204 -26.2755
L53.4376 -26.1812
L53.6691 -26.0889
L53.8987 -25.9986
L54.1263 -25.9102
L54.3519 -25.8238
L54.5756 -25.7392
L54.7975 -25.6565
L55.0176 -25.5755
L55.236 -25.4963
L55.4526 -25.4189
L55.6676 -25.3432
L55.881 -25.2691
L56.0928 -25.1967
L56.3031 -25.1259
L56.5119 -25.0567
L56.7193 -24.9891
L56.9253 -24.9231
L57.13 -24.8585
L57.3335 -24.7955
L57.5357 -24.734
L57.7367 -24.674
L57.9365 -24.6154
L58.1353 -24.5583
L58.3331 -24.5026
L58.5298 -24.4484
L58.7256 -24.3956
L58.9205 -24.3442
L59.1145 -24.2942
L59.3077 -24.2456
L59.5001 -24.1984
L59.6918 -24.1526
L59.8828 -24.1082
L60.0731 -24.0653
L60.2628 -24.0237
L60.452 -23.9836
L60.6407 -23.9449
L60.8288 -23.9077
L61.0166 -23.8719
L61.2039 -23.8376
L61.3909 -23.8048
L61.5776 -23.7735
L61.9126 -23.7437
L62.1158 -24.1347
L62.3109 -24.5887
L62.4981 -25.0462
L62.6772 -25.5071
L62.8482 -25.9712
L63.0109 -26.4383
L63.1655 -26.9083
L63.3118 -27.3811
L63.4497 -27.8565
L63.5793 -28.3344
L63.7005 -28.8146
L63.8133 -29.297
L63.9176 -29.7815
L64.0134 -30.2679
L64.1006 -30.756
L64.1793 -31.2457
L64.2495 -31.7368
L64.311 -32.2293
L64.3638 -32.7229
L64.4081 -33.2174
L64.4437 -33.7129
L64.4706 -34.209
L64.4888 -34.7057
L64.4984 -35.2028
L64.4993 -35.7001
L64.4915 -36.1975
L64.4751 -36.6949
L64.4499 -37.192
L64.4161 -37.6888
L64.3737 -38.185
L64.3225 -38.6806
L64.2628 -39.1754
L64.1945 -39.6692
L64.1175 -40.1619
L64.032 -40.6534
L63.938 -41.1434
L63.8355 -41.6318
L63.7244 -42.1185
L63.605 -42.6034
L63.4771 -43.0863
L63.3409 -43.567
L63.1963 -44.0453
L63.0434 -44.5213
L62.8823 -44.9946
L62.713 -45.4652
L62.5356 -45.9329
L62.3501 -46.3976
L62.1566 -46.8592
L61.9551 -47.3174
L61.7457 -47.7722
L61.5284 -48.2233
L61.3034 -48.6708
L61.0707 -49.1144
L60.8303 -49.554
L60.5824 -49.9895
L60.327 -50.4207
L60.0641 -50.8475
L59.794 -51.2698
L59.5166 -51.6875
L59.232 -52.1004
L58.9403 -52.5083
L58.6417 -52.9113
L58.3362 -53.3091
L58.0238 -53.7016
L57.7048 -54.0887
L57.3791 -54.4703
L57.047 -54.8463
L56.7084 -55.2165
L56.3635 -55.5809
L56.0124 -55.9394
L55.6552 -56.2917
L55.292 -56.6379
L54.923 -56.9778
L54.5482 -57.3113
L54.1677 -57.6383
L53.7817 -57.9587
L53.3903 -58.2724
L52.9936 -58.5794
L52.5917 -58.8794
L52.1847 -59.1725
L51.7729 -59.4586
L51.3562 -59.7375
L50.9348 -60.0091
L50.5089 -60.2735
L50.0786 -60.5304
L49.644 -60.7799
L49.2052 -61.0218
L48.7624 -61.2561
L48.3157 -61.4827
L47.8653 -61.7016
z
" id="C0_1_6a148a040d"/>
     <path d="
M10.3134 -48.2477
L10.4532 -48.1198
L10.5946 -47.9913
L10.7375 -47.8621
L10.8819 -47.7322
L11.028 -47.6015
L11.1757 -47.4701
L11.3251 -47.3378
L11.4762 -47.2047
L11.6291 -47.0706
L11.7837 -46.9357
L11.9402 -46.7997
L12.0985 -46.6628
L12.2588 -46.5248
L12.421 -46.3858
L12.5853 -46.2456
L12.7515 -46.1042
L12.9199 -45.9617
L13.0903 -45.818
L13.263 -45.6729
L13.4378 -45.5266
L13.6149 -45.3789
L13.7944 -45.2298
L13.9761 -45.0792
L14.1603 -44.9272
L14.3468 -44.7736
L14.5359 -44.6185
L14.7274 -44.4618
L14.9215 -44.3034
L15.1182 -44.1434
L15.3175 -43.9816
L15.5194 -43.818
L15.7241 -43.6526
L15.9314 -43.4853
L16.1415 -43.3162
L16.3543 -43.145
L16.5699 -42.9719
L16.7883 -42.7967
L17.0094 -42.6195
L17.2334 -42.4401
L17.4602 -42.2586
L17.6897 -42.0748
L17.922 -41.8888
L18.157 -41.7004
L18.3947 -41.5098
L18.6351 -41.3167
L18.878 -41.1212
L19.1235 -40.9233
L19.3713 -40.7228
L19.6216 -40.5198
L19.874 -40.3141
L20.1285 -40.1058
L20.3849 -39.8949
L20.6431 -39.6812
L20.9028 -39.4647
L21.1639 -39.2453
L21.4261 -39.0231
L21.6892 -38.7979
L21.9527 -38.5698
L22.2165 -38.3385
L22.4801 -38.1042
L22.7431 -37.8666
L23.0052 -37.6258
L23.2658 -37.3816
L23.5244 -37.134
L23.7806 -36.8828
L24.0336 -36.628
L24.283 -36.3695
L24.528 -36.1071
L24.768 -35.8408
L25.0022 -35.5703
L25.2299 -35.2957
L25.4505 -35.0167
L25.6631 -34.7333
L25.867 -34.4454
L26.0616 -34.1528
L26.2462 -33.8555
L26.4201 -33.5534
L26.5829 -33.2465
L26.734 -32.9349
L26.8733 -32.6185
L27.0004 -32.2975
L27.1152 -31.9719
L27.2176 -31.6421
L27.3079 -31.3081
L27.3863 -30.9702
L27.453 -30.6288
L27.5085 -30.2841
L27.5532 -29.9366
L27.5878 -29.5865
L27.6127 -29.2344
L27.6286 -28.8804
L27.6362 -28.5251
L27.636 -28.1689
L27.6287 -27.8121
L27.6149 -27.4551
L27.5952 -27.0982
L27.5701 -26.7419
L27.5402 -26.3863
L27.506 -26.0319
L27.468 -25.6788
L27.4265 -25.3274
L27.3821 -24.978
L27.3351 -24.6306
L27.2858 -24.2856
L27.2346 -23.9431
L27.1817 -23.6033
L27.1274 -23.2663
L27.0719 -22.9323
L27.0155 -22.6013
L26.9584 -22.2736
L26.9008 -21.9491
L26.8427 -21.628
L26.7844 -21.3102
L26.726 -20.996
L26.6676 -20.6852
L26.6094 -20.378
L26.5513 -20.0744
L26.4935 -19.7743
L26.4361 -19.4778
L26.3791 -19.1848
L26.3226 -18.8954
L26.2666 -18.6096
L26.2112 -18.3273
L26.1564 -18.0484
L26.1023 -17.7731
L26.0489 -17.5011
L25.9962 -17.2326
L25.9442 -16.9674
L25.8929 -16.7055
L25.8424 -16.4469
L25.7927 -16.1915
L25.7438 -15.9392
L25.6956 -15.6901
L25.6482 -15.444
L25.6017 -15.2009
L25.5559 -14.9607
L25.5109 -14.7234
L25.4667 -14.4889
L25.4232 -14.2571
L25.3806 -14.0281
L25.3387 -13.8017
L25.2976 -13.5779
L25.2573 -13.3566
L25.2177 -13.1378
L25.1789 -12.9214
L25.1408 -12.7073
L25.1035 -12.4955
L25.0669 -12.2859
L25.031 -12.0785
L24.9958 -11.8733
L24.9614 -11.67
L24.9276 -11.4688
L24.8946 -11.2696
L24.8622 -11.0722
L24.8305 -10.8767
L24.7994 -10.683
L24.7691 -10.491
L24.7394 -10.3007
L24.7103 -10.1121
L24.1976 -9.92506
L23.7467 -10.0586
L23.2995 -10.2686
L22.8561 -10.4863
L22.4168 -10.7119
L21.9816 -10.9451
L21.5507 -11.186
L21.1241 -11.4344
L20.7022 -11.6904
L20.2848 -11.9537
L19.8723 -12.2243
L19.4646 -12.5022
L19.062 -12.7873
L18.6646 -13.0794
L18.2724 -13.3785
L17.8857 -13.6845
L17.5044 -13.9973
L17.1288 -14.3167
L16.759 -14.6428
L16.395 -14.9754
L16.0369 -15.3144
L15.685 -15.6597
L15.3392 -16.0112
L14.9998 -16.3688
L14.6667 -16.7324
L14.3401 -17.1018
L14.0202 -17.477
L13.7069 -17.8579
L13.4004 -18.2442
L13.1008 -18.636
L12.8082 -19.0331
L12.5226 -19.4353
L12.2442 -19.8426
L11.973 -20.2548
L11.7092 -20.6718
L11.4527 -21.0934
L11.2037 -21.5196
L10.9623 -21.9503
L10.7285 -22.3852
L10.5024 -22.8242
L10.2841 -23.2673
L10.0736 -23.7142
L9.87097 -24.1649
L9.67633 -24.6191
L9.4897 -25.0769
L9.31115 -25.538
L9.14073 -26.0022
L8.97849 -26.4695
L8.82449 -26.9397
L8.67876 -27.4127
L8.54135 -27.8883
L8.41231 -28.3664
L8.29167 -28.8467
L8.17947 -29.3293
L8.07574 -29.8139
L7.98052 -30.3004
L7.89384 -30.7886
L7.81572 -31.2784
L7.74618 -31.7696
L7.68525 -32.2622
L7.63294 -32.7558
L7.58927 -33.2505
L7.55426 -33.746
L7.52792 -34.2421
L7.51024 -34.7389
L7.50125 -35.236
L7.50093 -35.7333
L7.5093 -36.2307
L7.52635 -36.728
L7.55206 -37.2252
L7.58645 -37.7219
L7.62949 -38.2181
L7.68117 -38.7137
L7.74148 -39.2084
L7.81039 -39.7021
L7.88789 -40.1948
L7.97396 -40.6861
L8.06856 -41.176
L8.17167 -41.6643
L8.28326 -42.1509
L8.40329 -42.6357
L8.53173 -43.1184
L8.66853 -43.5989
L8.81366 -44.0772
L8.96707 -44.5529
L9.12871 -45.0261
L9.29854 -45.4965
L9.47651 -45.964
L9.66255 -46.4285
L9.85661 -46.8898
L10.0586 -47.3478
z
" id="C0_2_0e1e2e7313"/>
    </defs>
    <g clip-path="url(#p1bffca34e9)">
     <use style="fill:#ff0000;stroke:#000000;stroke-width:2.0;" x="0.0" xlink:href="#C0_0_a811fe30f3" y="72.0"/>
    </g>
    <g clip-path="url(#p1bffca34e9)">
     <use style="fill:#ffffff;stroke:#000000;stroke-width:2.0;" x="0.0" xlink:href="#C0_1_6a148a040d" y="72.0"/>
    </g>
    <g clip-path="url(#p1bffca34e9)">
     <use style="fill:#ffffff;stroke:#000000;stroke-width:2.0;" x="0.0" xlink:href="#C0_2_0e1e2e7313" y="72.0"/>
    </g>
   </g>
  </g>
 </g>
 <defs>
  <clipPath id="p1bffca34e9">
   <rect height="72.0" width="72.0" x="0.0" y="0.0"/>
  </clipPath>
 </defs>
</svg>
