<?xml version="1.0" encoding="utf-8" standalone="no"?>
<!DOCTYPE svg PUBLIC "-//W3C//DTD SVG 1.1//EN"
  "http://www.w3.org/Graphics/SVG/1.1/DTD/svg11.dtd">
<!-- Created with matplotlib (http://matplotlib.org/) -->
<svg height="72pt" version="1.1" viewBox="0 0 72 72" width="72pt" xmlns="http://www.w3.org/2000/svg" xmlns:xlink="http://www.w3.org/1999/xlink">
 <defs>
  <style type="text/css">
*{stroke-linecap:butt;stroke-linejoin:round;}
  </style>
 </defs>
 <g id="figure_1">
  <g id="patch_1">
   <path d="
M0 72
L72 72
L72 0
L0 0
z
" style="fill:none;"/>
  </g>
  <g id="axes_1">
   <g id="PatchCollection_1">
    <defs>
     <path d="
M36 -7.5
C43.5583 -7.5 50.808 -10.5029 56.1525 -15.8475
C61.4971 -21.192 64.5 -28.4417 64.5 -36
C64.5 -43.5583 61.4971 -50.808 56.1525 -56.1525
C50.808 -61.4971 43.5583 -64.5 36 -64.5
C28.4417 -64.5 21.192 -61.4971 15.8475 -56.1525
C10.5029 -50.808 7.5 -43.5583 7.5 -36
C7.5 -28.4417 10.5029 -21.192 15.8475 -15.8475
C21.192 -10.5029 28.4417 -7.5 36 -7.5
z
" id="C0_0_a811fe30f3"/>
     <path d="
M17.9178 -57.9377
L18.1857 -57.8021
L18.4653 -57.6706
L18.7545 -57.5422
L19.0517 -57.4159
L19.3555 -57.2909
L19.6646 -57.1664
L19.9779 -57.0421
L20.2944 -56.9174
L20.6133 -56.7919
L20.9338 -56.6655
L21.2553 -56.5379
L21.5772 -56.409
L21.899 -56.2787
L22.2203 -56.1469
L22.5407 -56.0135
L22.8599 -55.8786
L23.1776 -55.7422
L23.4936 -55.6043
L23.8075 -55.4649
L24.1193 -55.3242
L24.4288 -55.182
L24.7358 -55.0387
L25.0403 -54.8941
L25.3421 -54.7483
L25.6411 -54.6015
L25.9373 -54.4537
L26.2307 -54.305
L26.5212 -54.1554
L26.8088 -54.0049
L27.0934 -53.8538
L27.3751 -53.702
L27.6538 -53.5496
L27.9296 -53.3966
L28.2025 -53.2431
L28.4726 -53.0891
L28.7397 -52.9347
L29.004 -52.78
L29.2655 -52.6249
L29.5243 -52.4695
L29.7803 -52.3138
L30.0337 -52.1579
L30.2844 -52.0017
L30.5326 -51.8453
L30.7782 -51.6888
L31.0214 -51.5321
L31.2622 -51.3752
L31.5006 -51.2182
L31.7367 -51.0611
L31.9706 -50.9038
L32.2022 -50.7463
L32.4318 -50.5888
L32.6593 -50.4311
L32.8847 -50.2733
L33.1083 -50.1153
L33.3299 -49.9572
L33.5497 -49.7989
L33.7677 -49.6405
L33.984 -49.4819
L34.1987 -49.323
L34.4118 -49.164
L34.6233 -49.0047
L34.8333 -48.8452
L35.0419 -48.6854
L35.2491 -48.5253
L35.4551 -48.3649
L35.6597 -48.2042
L35.8631 -48.0431
L36.0654 -47.8816
L36.2666 -47.7197
L36.4668 -47.5573
L36.6659 -47.3945
L36.8641 -47.2312
L37.0615 -47.0674
L37.2579 -46.903
L37.4536 -46.7379
L37.6486 -46.5723
L37.8428 -46.406
L38.0364 -46.239
L38.4219 -46.0712
L38.6138 -45.9027
L38.8054 -45.7334
L38.9964 -45.5632
L39.1872 -45.3921
L39.3776 -45.22
L39.5677 -45.047
L39.7576 -44.873
L39.9473 -44.6979
L40.1369 -44.5217
L40.3263 -44.3444
L40.5157 -44.1658
L40.705 -43.986
L40.8944 -43.8049
L41.0839 -43.6225
L41.2734 -43.4386
L41.463 -43.2533
L41.6529 -43.0665
L41.8429 -42.8782
L42.0332 -42.6883
L42.2237 -42.4967
L42.4146 -42.3034
L42.6058 -42.1083
L42.7974 -41.9114
L42.9894 -41.7126
L43.1818 -41.5119
L43.3748 -41.3092
L43.5682 -41.1044
L43.7621 -40.8975
L43.9566 -40.6884
L44.1517 -40.4771
L44.3474 -40.2635
L44.5437 -40.0475
L44.7407 -39.8292
L44.9383 -39.6083
L45.1366 -39.3849
L45.3356 -39.1589
L45.5354 -38.9302
L45.7358 -38.6988
L45.937 -38.4647
L46.1389 -38.2277
L46.3415 -37.9878
L46.5449 -37.745
L46.7491 -37.4992
L46.954 -37.2503
L47.1596 -36.9983
L47.3659 -36.7432
L47.5729 -36.485
L47.7806 -36.2235
L47.989 -35.9588
L48.198 -35.6908
L48.4077 -35.4196
L48.6179 -35.1451
L48.8287 -34.8672
L49.0399 -34.5861
L49.2517 -34.3017
L49.4638 -34.014
L49.6764 -33.7232
L49.8892 -33.4291
L50.1023 -33.132
L50.3157 -32.8319
L50.5292 -32.5288
L50.7427 -32.223
L50.9564 -31.9145
L51.17 -31.6036
L51.3836 -31.2904
L51.597 -30.9751
L51.8103 -30.6581
L52.0235 -30.3396
L52.2365 -30.0201
L52.4493 -29.6998
L52.662 -29.3793
L52.8746 -29.0591
L53.0872 -28.7399
L53.3 -28.4223
L53.513 -28.1071
L53.7265 -27.7953
L53.9409 -27.4879
L54.1565 -27.186
L54.3737 -26.8911
L54.593 -26.6046
L54.8151 -26.3284
L55.0408 -26.0643
L55.2708 -25.8145
L55.506 -25.5814
L55.7475 -25.3676
L55.996 -25.1756
L56.2526 -25.0083
L56.5179 -24.8684
L56.7926 -24.7582
L57.0768 -24.6798
L57.3705 -24.635
L57.6734 -24.6247
L57.9847 -24.6492
L58.3033 -24.7082
L58.6281 -24.8009
L58.9577 -24.9258
L59.2906 -25.0813
L59.6254 -25.2654
L59.9607 -25.476
L60.2951 -25.7112
L60.6275 -25.969
L60.9567 -26.2474
L61.2817 -26.5447
L61.6016 -26.8594
L61.9156 -27.1899
L62.2231 -27.5348
L62.5233 -27.8929
L62.8158 -28.263
L63.1 -28.6441
L63.3757 -29.0353
L63.6424 -29.4356
L63.8999 -29.8442
L64.0114 -30.2604
L64.0988 -30.7453
L64.1777 -31.2349
L64.248 -31.7261
L64.3097 -32.2185
L64.3628 -32.7121
L64.4072 -33.2066
L64.443 -33.7021
L64.4701 -34.1982
L64.4885 -34.6948
L64.4983 -35.1919
L64.4994 -35.6892
L64.4918 -36.1866
L64.4755 -36.684
L64.4506 -37.1811
L64.4169 -37.6779
L64.3747 -38.1742
L64.3238 -38.6698
L64.2642 -39.1646
L64.1961 -39.6585
L64.1193 -40.1512
L64.034 -40.6426
L63.9402 -41.1327
L63.8378 -41.6212
L63.727 -42.1079
L63.6077 -42.5928
L63.48 -43.0757
L63.3439 -43.5565
L63.1995 -44.0349
L63.0469 -44.5109
L62.8859 -44.9843
L62.7168 -45.455
L62.5396 -45.9228
L62.3543 -46.3875
L62.1609 -46.8491
L61.9596 -47.3074
L61.7503 -47.7623
L61.5333 -48.2135
L61.3084 -48.6611
L61.0758 -49.1048
L60.8356 -49.5445
L60.5879 -49.98
L60.3326 -50.4113
L60.0699 -50.8383
L59.7999 -51.2607
L59.5227 -51.6784
L59.2383 -52.0914
L58.9468 -52.4995
L58.6483 -52.9025
L58.3429 -53.3004
L58.0307 -53.6931
L57.7118 -54.0803
L57.3863 -54.462
L57.0543 -54.8381
L56.7158 -55.2085
L56.3711 -55.573
L56.0201 -55.9316
L55.6631 -56.2841
L55.3 -56.6304
L54.9311 -56.9704
L54.5564 -57.3041
L54.1761 -57.6312
L53.7902 -57.9518
L53.3989 -58.2656
L53.0023 -58.5727
L52.6005 -58.873
L52.1937 -59.1662
L51.7819 -59.4524
L51.3653 -59.7314
L50.9441 -60.0033
L50.5183 -60.2678
L50.0881 -60.5249
L49.6535 -60.7745
L49.2149 -61.0166
L48.7721 -61.2511
L48.3256 -61.4779
L47.8752 -61.6969
L47.4212 -61.9081
L46.9638 -62.1114
L46.503 -62.3068
L46.039 -62.4941
L45.572 -62.6734
L45.102 -62.8445
L44.6293 -63.0075
L44.1539 -63.1622
L43.6761 -63.3087
L43.1959 -63.4468
L42.7135 -63.5766
L42.2291 -63.698
L41.7428 -63.8109
L41.2547 -63.9154
L40.7651 -64.0114
L40.2739 -64.0988
L39.7815 -64.1777
L39.2879 -64.248
L38.7934 -64.3097
L38.2979 -64.3628
L37.8018 -64.4072
L37.3052 -64.443
L36.8081 -64.4701
L36.3108 -64.4885
L35.8134 -64.4983
L35.316 -64.4994
L34.8189 -64.4918
L34.3221 -64.4755
L33.8258 -64.4506
L33.3302 -64.4169
L32.8354 -64.3747
L32.3415 -64.3238
L31.8488 -64.2642
L31.3574 -64.1961
L30.8673 -64.1193
L30.3788 -64.034
L29.8921 -63.9402
L29.4072 -63.8378
L28.9243 -63.727
L28.4435 -63.6077
L27.9651 -63.48
L27.4891 -63.3439
L27.0157 -63.1995
L26.545 -63.0469
L26.0772 -62.8859
L25.6125 -62.7168
L25.1509 -62.5396
L24.6926 -62.3543
L24.2377 -62.1609
L23.7865 -61.9596
L23.3389 -61.7503
L22.8952 -61.5333
L22.4555 -61.3084
L22.02 -61.0758
L21.5887 -60.8356
L21.1617 -60.5879
L20.7393 -60.3326
L20.3216 -60.0699
L19.9086 -59.7999
L19.5005 -59.5227
L19.0975 -59.2383
L18.6996 -58.9468
L18.3069 -58.6483
z
" id="C0_1_230a711127"/>
     <path d="
M8.13902 -41.2624
L8.21605 -40.7836
L8.30005 -40.3101
L8.39083 -39.8423
L8.48818 -39.3803
L8.59189 -38.9245
L8.70173 -38.475
L8.81745 -38.032
L8.9388 -37.5956
L9.06555 -37.1659
L9.19744 -36.743
L9.33422 -36.3269
L9.47567 -35.9177
L9.62154 -35.5153
L9.77161 -35.1197
L9.92565 -34.7309
L10.0835 -34.3489
L10.2448 -33.9735
L10.4095 -33.6047
L10.5774 -33.2424
L10.7483 -32.8866
L10.922 -32.5371
L11.0984 -32.1939
L11.2773 -31.8568
L11.4585 -31.5257
L11.642 -31.2005
L11.8276 -30.8811
L12.0152 -30.5675
L12.2047 -30.2593
L12.3959 -29.9567
L12.5889 -29.6593
L12.7834 -29.3672
L12.9795 -29.0802
L13.177 -28.7981
L13.3759 -28.5209
L13.5761 -28.2484
L13.7776 -27.9806
L13.9803 -27.7173
L14.1842 -27.4583
L14.3892 -27.2037
L14.5953 -26.9533
L14.8025 -26.7069
L15.0107 -26.4645
L15.2199 -26.226
L15.4302 -25.9913
L15.6414 -25.7602
L15.8537 -25.5328
L16.0669 -25.3088
L16.2811 -25.0882
L16.4963 -24.871
L16.7125 -24.657
L16.9296 -24.4462
L17.1478 -24.2384
L17.367 -24.0337
L17.5872 -23.8318
L17.8084 -23.6329
L18.0308 -23.4367
L18.2542 -23.2432
L18.4787 -23.0524
L18.7044 -22.8642
L18.9313 -22.6785
L19.1594 -22.4953
L19.3887 -22.3145
L19.6192 -22.1361
L19.8511 -21.96
L20.0844 -21.7862
L20.319 -21.6146
L20.5551 -21.4452
L20.7926 -21.278
L21.0317 -21.1128
L21.2723 -20.9497
L21.5146 -20.7886
L21.7585 -20.6296
L22.0042 -20.4725
L22.2516 -20.3173
L22.5009 -20.1641
L22.7521 -20.0128
L23.0052 -19.8634
L23.2603 -19.7158
L23.5175 -19.57
L23.7769 -19.4261
L24.0384 -19.284
L24.3022 -19.1437
L24.5683 -19.0053
L24.8368 -18.8686
L25.1078 -18.7338
L25.3813 -18.6008
L25.6575 -18.4695
L25.9363 -18.3402
L26.2179 -18.2126
L26.5023 -18.0869
L26.7896 -17.9631
L27.0799 -17.8412
L27.3733 -17.7212
L27.6698 -17.6031
L27.9696 -17.4871
L28.2726 -17.373
L28.579 -17.261
L28.8888 -17.1511
L29.2022 -17.0434
L29.5192 -16.9378
L29.8399 -16.8345
L30.1644 -16.7335
L30.4927 -16.6349
L30.8249 -16.5387
L31.1611 -16.445
L31.5014 -16.3539
L31.8458 -16.2655
L32.1944 -16.1798
L32.5473 -16.097
L32.9045 -16.0171
L33.2661 -15.9402
L33.6321 -15.8665
L34.0025 -15.796
L34.3775 -15.7288
L34.757 -15.6652
L35.1411 -15.605
L35.5298 -15.5486
L35.9231 -15.496
L36.3209 -15.4474
L36.7234 -15.4028
L37.1304 -15.3625
L37.5419 -15.3264
L37.9579 -15.2948
L38.3783 -15.2678
L38.803 -15.2455
L39.232 -15.228
L39.665 -15.2154
L40.102 -15.2078
L40.5428 -15.2053
L40.9871 -15.208
L41.4349 -15.2159
L41.8857 -15.229
L42.3394 -15.2474
L42.7957 -15.2711
L43.2541 -15.2999
L43.7144 -15.3338
L44.176 -15.3726
L44.6384 -15.416
L45.1012 -15.4639
L45.5637 -15.5157
L46.0253 -15.5711
L46.4853 -15.6294
L46.9428 -15.69
L47.3969 -15.7519
L47.8466 -15.8142
L48.2909 -15.8755
L48.7285 -15.9346
L49.1582 -15.9897
L49.5786 -16.039
L49.988 -16.0804
L50.3849 -16.1115
L50.7677 -16.13
L51.1348 -16.1334
L51.4844 -16.1192
L51.8152 -16.0851
L52.1259 -16.0292
L52.4157 -15.9501
L52.6837 -15.8468
L52.9299 -15.7191
L53.1544 -15.5674
L53.3575 -15.3926
L53.5398 -15.1962
L53.7023 -14.9798
L53.8458 -14.7454
L53.9713 -14.4949
L53.8231 -14.2303
L53.4323 -13.7607
L53.0361 -13.453
L52.6348 -13.1522
L52.2284 -12.8584
L51.817 -12.5716
L51.4008 -12.2919
L50.98 -12.0195
L50.5546 -11.7544
L50.1247 -11.4966
L49.6905 -11.2464
L49.2522 -11.0036
L48.8098 -10.7685
L48.3636 -10.541
L47.9135 -10.3214
L47.4599 -10.1095
L47.0027 -9.90552
L46.5422 -9.7095
L46.0785 -9.52148
L45.6117 -9.34152
L45.142 -9.16969
L44.6695 -9.00603
L44.1943 -8.85059
L43.7167 -8.70342
L43.2367 -8.56457
L42.7545 -8.43407
L42.2702 -8.31197
L41.7841 -8.19831
L41.2962 -8.09311
L40.8066 -7.99642
L40.3156 -7.90825
L39.8233 -7.82864
L39.3298 -7.75762
L38.8353 -7.69519
L38.34 -7.64139
L37.8439 -7.59622
L37.3473 -7.55971
L36.8502 -7.53186
L36.3529 -7.51269
L35.8555 -7.50219
L35.3582 -7.50037
L34.861 -7.50723
L34.3642 -7.52277
L33.8678 -7.54699
L33.3722 -7.57987
L32.8773 -7.62141
L32.3834 -7.67159
L31.8905 -7.73041
L31.399 -7.79783
L30.9088 -7.87385
L30.4202 -7.95843
L29.9333 -8.05155
L29.4482 -8.15319
L28.9651 -8.26331
L28.4842 -8.38188
L28.0056 -8.50886
L27.5293 -8.64422
L27.0557 -8.78791
L26.5848 -8.93988
L26.1168 -9.1001
L25.6518 -9.26852
L25.1899 -9.44508
L24.7313 -9.62972
L24.2762 -9.8224
L23.8246 -10.0231
L23.3767 -10.2316
L22.9327 -10.448
L22.4927 -10.6722
L22.0567 -10.9041
L21.6251 -11.1437
L21.1978 -11.3908
L20.775 -11.6455
L20.3568 -11.9075
L19.9434 -12.1769
L19.5349 -12.4535
L19.1314 -12.7373
L18.7331 -13.0282
L18.34 -13.3261
L17.9523 -13.6309
L17.5701 -13.9425
L17.1935 -14.2609
L16.8227 -14.5858
L16.4576 -14.9173
L16.0986 -15.2552
L15.7456 -15.5994
L15.3987 -15.9499
L15.0582 -16.3064
L14.724 -16.669
L14.3963 -17.0374
L14.0751 -17.4116
L13.7607 -17.7915
L13.453 -18.1769
L13.1522 -18.5677
L12.8584 -18.9639
L12.5716 -19.3652
L12.2919 -19.7716
L12.0195 -20.183
L11.7544 -20.5992
L11.4966 -21.02
L11.2464 -21.4454
L11.0036 -21.8753
L10.7685 -22.3095
L10.541 -22.7478
L10.3214 -23.1902
L10.1095 -23.6364
L9.90552 -24.0865
L9.7095 -24.5401
L9.52148 -24.9973
L9.34152 -25.4578
L9.16969 -25.9215
L9.00603 -26.3883
L8.85059 -26.858
L8.70342 -27.3305
L8.56457 -27.8057
L8.43407 -28.2833
L8.31197 -28.7633
L8.19831 -29.2455
L8.09311 -29.7298
L7.99642 -30.2159
L7.90825 -30.7038
L7.82864 -31.1934
L7.75762 -31.6844
L7.69519 -32.1767
L7.64139 -32.6702
L7.59622 -33.1647
L7.55971 -33.66
L7.53186 -34.1561
L7.51269 -34.6527
L7.50219 -35.1498
L7.50037 -35.6471
L7.50723 -36.1445
L7.52277 -36.6418
L7.54699 -37.139
L7.57987 -37.6358
L7.62141 -38.1322
L7.67159 -38.6278
L7.73041 -39.1227
L7.79783 -39.6166
L7.87385 -40.1095
z
" id="C0_2_9a19c1d953"/>
    </defs>
    <g clip-path="url(#p1bffca34e9)">
     <use style="fill:#ff0000;stroke:#000000;stroke-width:2.0;" x="0.0" xlink:href="#C0_0_a811fe30f3" y="72.0"/>
    </g>
    <g clip-path="url(#p1bffca34e9)">
     <use style="fill:#ffffff;stroke:#000000;stroke-width:2.0;" x="0.0" xlink:href="#C0_1_230a711127" y="72.0"/>
    </g>
    <g clip-path="url(#p1bffca34e9)">
     <use style="fill:#ffffff;stroke:#000000;stroke-width:2.0;" x="0.0" xlink:href="#C0_2_9a19c1d953" y="72.0"/>
    </g>
   </g>
  </g>
 </g>
 <defs>
  <clipPath id="p1bffca34e9">
   <rect height="72.0" width="72.0" x="0.0" y="0.0"/>
  </clipPath>
 </defs>
</svg>
