<?xml version="1.0" encoding="utf-8" standalone="no"?>
<!DOCTYPE svg PUBLIC "-//W3C//DTD SVG 1.1//EN"
  "http://www.w3.org/Graphics/SVG/1.1/DTD/svg11.dtd">
<!-- Created with matplotlib (http://matplotlib.org/) -->
<svg height="72pt" version="1.1" viewBox="0 0 72 72" width="72pt" xmlns="http://www.w3.org/2000/svg" xmlns:xlink="http://www.w3.org/1999/xlink">
 <defs>
  <style type="text/css">
*{stroke-linecap:butt;stroke-linejoin:round;}
  </style>
 </defs>
 <g id="figure_1">
  <g id="patch_1">
   <path d="
M0 72
L72 72
L72 0
L0 0
z
" style="fill:none;"/>
  </g>
  <g id="axes_1">
   <g id="PatchCollection_1">
    <defs>
     <path d="
M36 -7.5
C43.5583 -7.5 50.808 -10.5029 56.1525 -15.8475
C61.4971 -21.192 64.5 -28.4417 64.5 -36
C64.5 -43.5583 61.4971 -50.808 56.1525 -56.1525
C50.808 -61.4971 43.5583 -64.5 36 -64.5
C28.4417 -64.5 21.192 -61.4971 15.8475 -56.1525
C10.5029 -50.808 7.5 -43.5583 7.5 -36
C7.5 -28.4417 10.5029 -21.192 15.8475 -15.8475
C21.192 -10.5029 28.4417 -7.5 36 -7.5
z
" id="C0_0_a811fe30f3"/>
     <path d="
M21.7621 -33.2025
L21.7616 -33.4761
L21.7632 -33.7499
L21.7671 -34.0238
L21.7732 -34.2979
L21.7815 -34.5721
L21.7921 -34.8467
L21.8049 -35.1215
L21.8199 -35.3967
L21.8373 -35.6723
L21.8568 -35.9483
L21.8787 -36.2248
L21.903 -36.5018
L21.9295 -36.7793
L21.9584 -37.0574
L21.9897 -37.3362
L22.0235 -37.6156
L22.0597 -37.8957
L22.0984 -38.1765
L22.1396 -38.4582
L22.1834 -38.7406
L22.2298 -39.0238
L22.2788 -39.3079
L22.3305 -39.5929
L22.385 -39.8789
L22.4423 -40.1657
L22.5025 -40.4536
L22.5655 -40.7424
L22.6315 -41.0323
L22.7006 -41.3232
L22.7727 -41.6151
L22.848 -41.9081
L22.9266 -42.2021
L23.0084 -42.4972
L23.0937 -42.7934
L23.1824 -43.0906
L23.2746 -43.3889
L23.3705 -43.6882
L23.4701 -43.9886
L23.5735 -44.2899
L23.6808 -44.5923
L23.7921 -44.8956
L23.9074 -45.1997
L24.027 -45.5048
L24.1508 -45.8106
L24.2791 -46.1171
L24.4118 -46.4244
L24.5492 -46.7322
L24.6912 -47.0405
L24.8381 -47.3491
L24.9899 -47.6581
L25.1468 -47.9672
L25.3089 -48.2764
L25.4762 -48.5854
L25.649 -48.8941
L25.8272 -49.2024
L26.0111 -49.51
L26.2008 -49.8167
L26.3963 -50.1224
L26.5977 -50.4267
L26.8053 -50.7295
L27.019 -51.0304
L27.239 -51.3291
L27.4655 -51.6254
L27.6983 -51.9188
L27.9378 -52.209
L28.1839 -52.4956
L28.4367 -52.7783
L28.6963 -53.0565
L28.9627 -53.3298
L29.2359 -53.5977
L29.5161 -53.8597
L29.8031 -54.1153
L30.0971 -54.3639
L30.3979 -54.6049
L30.7055 -54.8377
L31.0199 -55.0617
L31.3409 -55.2762
L31.6685 -55.4806
L32.0025 -55.6742
L32.3427 -55.8564
L32.6889 -56.0265
L33.0409 -56.1839
L33.3984 -56.3279
L33.7611 -56.458
L34.1286 -56.5737
L34.5005 -56.6743
L34.8764 -56.7596
L35.2559 -56.8291
L35.6385 -56.8825
L36.0237 -56.9197
L36.4109 -56.9405
L36.7996 -56.9449
L37.1893 -56.933
L37.5793 -56.9049
L37.9691 -56.8608
L38.3582 -56.8011
L38.7461 -56.7261
L39.1321 -56.6362
L39.5159 -56.5321
L39.8969 -56.4141
L40.2746 -56.2828
L40.6487 -56.1389
L41.0188 -55.9829
L41.3845 -55.8155
L41.7455 -55.6372
L42.1015 -55.4486
L42.4523 -55.2505
L42.7975 -55.0432
L43.1371 -54.8276
L43.4708 -54.604
L43.7984 -54.373
L44.1199 -54.1352
L44.4352 -53.891
L44.7441 -53.641
L45.0467 -53.3856
L45.3428 -53.1252
L45.6325 -52.8602
L45.9157 -52.5911
L46.1925 -52.3182
L46.4628 -52.0418
L46.7268 -51.7623
L46.9843 -51.48
L47.2356 -51.1952
L47.4806 -50.9081
L47.7194 -50.619
L47.9521 -50.3283
L48.1787 -50.0359
L48.3994 -49.7423
L48.6143 -49.4476
L48.8233 -49.1519
L49.0267 -48.8554
L49.2245 -48.5583
L49.4167 -48.2607
L49.6036 -47.9628
L49.7852 -47.6646
L49.9616 -47.3663
L50.133 -47.068
L50.2993 -46.7697
L50.4607 -46.4716
L50.6173 -46.1737
L50.7692 -45.876
L50.9166 -45.5787
L51.0594 -45.2818
L51.1978 -44.9853
L51.3318 -44.6893
L51.4616 -44.3938
L51.5873 -44.0987
L51.7089 -43.8043
L51.8265 -43.5104
L51.9403 -43.217
L52.0501 -42.9243
L52.1563 -42.6321
L52.2587 -42.3405
L52.3576 -42.0495
L52.4529 -41.759
L52.5447 -41.4692
L52.6331 -41.1798
L52.7181 -40.891
L52.7999 -40.6028
L52.8784 -40.315
L52.9537 -40.0277
L53.0258 -39.7409
L53.0949 -39.4545
L53.1609 -39.1685
L53.2239 -38.8829
L53.2839 -38.5977
L53.341 -38.3128
L53.3952 -38.0281
L53.4465 -37.7437
L53.495 -37.4595
L53.5406 -37.1755
L53.5834 -36.8917
L53.6235 -36.608
L53.6608 -36.3243
L53.6954 -36.0407
L53.7272 -35.7571
L53.7563 -35.4734
L53.7827 -35.1897
L53.8064 -34.9058
L53.8274 -34.6218
L53.8457 -34.3376
L53.8613 -34.0531
L53.8742 -33.7684
L53.8843 -33.4833
L53.8918 -33.1979
L53.8965 -32.9121
L53.8984 -32.6258
L53.8976 -32.3391
L53.8939 -32.0518
L53.8875 -31.764
L53.8782 -31.4756
L53.866 -31.1866
L53.8509 -30.8968
L53.8329 -30.6064
L53.8119 -30.3152
L53.7879 -30.0233
L53.7608 -29.7305
L53.7305 -29.4369
L53.6972 -29.1424
L53.6606 -28.847
L53.6207 -28.5507
L53.5775 -28.2533
L53.5309 -27.9551
L53.4808 -27.6557
L53.4272 -27.3554
L53.37 -27.054
L53.3091 -26.7515
L53.2444 -26.448
L53.1759 -26.1433
L53.1034 -25.8376
L53.0269 -25.5308
L52.9463 -25.2228
L52.8614 -24.9138
L52.7722 -24.6036
L52.6786 -24.2924
L52.5805 -23.9801
L52.4776 -23.6668
L52.37 -23.3525
L52.2575 -23.0372
L52.14 -22.721
L52.0174 -22.4039
L51.8894 -22.086
L51.7561 -21.7673
L51.6172 -21.448
L51.4726 -21.128
L51.3221 -20.8076
L51.1658 -20.4867
L51.0033 -20.1656
L50.8345 -19.8443
L50.6593 -19.523
L50.4776 -19.2018
L50.2891 -18.881
L50.0938 -18.5606
L49.8915 -18.2408
L49.6821 -17.922
L49.4654 -17.6043
L49.2412 -17.2879
L49.0095 -16.9732
L48.7702 -16.6603
L48.523 -16.3497
L48.2679 -16.0417
L48.0048 -15.7365
L47.7336 -15.4345
L47.4542 -15.1363
L47.1665 -14.8421
L46.8706 -14.5524
L46.5663 -14.2676
L46.2538 -13.9883
L45.9329 -13.715
L45.6037 -13.4482
L45.2663 -13.1885
L44.9209 -12.9364
L44.5674 -12.6926
L44.2062 -12.4576
L43.8374 -12.2321
L43.4612 -12.0168
L43.0779 -11.8123
L42.6879 -11.6193
L42.2915 -11.4384
L41.8892 -11.2703
L41.4814 -11.1157
L41.0687 -10.975
L40.6516 -10.849
L40.2307 -10.7381
L39.8066 -10.6429
L39.38 -10.5637
L38.9517 -10.5009
L38.5222 -10.4547
L38.0924 -10.4255
L37.663 -10.4132
L37.2347 -10.4178
L36.8082 -10.4394
L36.3843 -10.4777
L35.9635 -10.5324
L35.5465 -10.6032
L35.134 -10.6897
L34.7264 -10.7915
L34.3242 -10.9079
L33.9279 -11.0384
L33.538 -11.1825
L33.1547 -11.3394
L32.7784 -11.5085
L32.4093 -11.6891
L32.0477 -11.8807
L31.6937 -12.0824
L31.3475 -12.2937
L31.0091 -12.514
L30.6787 -12.7426
L30.3563 -12.9788
L30.0419 -13.2222
L29.7355 -13.4722
L29.4371 -13.7283
L29.1466 -13.9898
L28.864 -14.2565
L28.5892 -14.5277
L28.3222 -14.8031
L28.0627 -15.0823
L27.8107 -15.3648
L27.5661 -15.6504
L27.3288 -15.9386
L27.0986 -16.2292
L26.8753 -16.5219
L26.659 -16.8163
L26.4493 -17.1123
L26.2463 -17.4095
L26.0496 -17.7078
L25.8593 -18.007
L25.6751 -18.3068
L25.4969 -18.6071
L25.3245 -18.9078
L25.1578 -19.2086
L24.9967 -19.5095
L24.8411 -19.8103
L24.6907 -20.1109
L24.5455 -20.4112
L24.4053 -20.7112
L24.27 -21.0106
L24.1394 -21.3096
L24.0135 -21.6079
L23.8922 -21.9056
L23.7752 -22.2025
L23.6626 -22.4987
L23.5541 -22.7941
L23.4497 -23.0887
L23.3492 -23.3825
L23.2527 -23.6754
L23.1599 -23.9674
L23.0707 -24.2585
L22.9852 -24.5488
L22.9032 -24.8381
L22.8246 -25.1266
L22.7493 -25.4142
L22.6773 -25.7009
L22.6084 -25.9867
L22.5427 -26.2717
L22.4801 -26.5559
L22.4204 -26.8392
L22.3636 -27.1218
L22.3097 -27.4036
L22.2586 -27.6847
L22.2102 -27.965
L22.1645 -28.2447
L22.1215 -28.5237
L22.0811 -28.8021
L22.0433 -29.0799
L22.0079 -29.3572
L21.9751 -29.634
L21.9447 -29.9102
L21.9168 -30.1861
L21.8912 -30.4615
L21.868 -30.7366
L21.8471 -31.0113
L21.8286 -31.2858
L21.8123 -31.56
L21.7983 -31.834
L21.7866 -32.1078
L21.7771 -32.3816
L21.7699 -32.6552
z
" id="C0_1_326a3f1e35"/>
    </defs>
    <g clip-path="url(#p1bffca34e9)">
     <use style="fill:#ff0000;stroke:#000000;stroke-width:2.0;" x="0.0" xlink:href="#C0_0_a811fe30f3" y="72.0"/>
    </g>
    <g clip-path="url(#p1bffca34e9)">
     <use style="fill:#ffffff;stroke:#000000;stroke-width:2.0;" x="0.0" xlink:href="#C0_1_326a3f1e35" y="72.0"/>
    </g>
   </g>
  </g>
 </g>
 <defs>
  <clipPath id="p1bffca34e9">
   <rect height="72.0" width="72.0" x="0.0" y="0.0"/>
  </clipPath>
 </defs>
</svg>
