<?xml version="1.0" encoding="utf-8" standalone="no"?>
<!DOCTYPE svg PUBLIC "-//W3C//DTD SVG 1.1//EN"
  "http://www.w3.org/Graphics/SVG/1.1/DTD/svg11.dtd">
<!-- Created with matplotlib (http://matplotlib.org/) -->
<svg height="72pt" version="1.1" viewBox="0 0 72 72" width="72pt" xmlns="http://www.w3.org/2000/svg" xmlns:xlink="http://www.w3.org/1999/xlink">
 <defs>
  <style type="text/css">
*{stroke-linecap:butt;stroke-linejoin:round;}
  </style>
 </defs>
 <g id="figure_1">
  <g id="patch_1">
   <path d="
M0 72
L72 72
L72 0
L0 0
z
" style="fill:none;"/>
  </g>
  <g id="axes_1">
   <g id="PatchCollection_1">
    <defs>
     <path d="
M36 -7.5
C43.5583 -7.5 50.808 -10.5029 56.1525 -15.8475
C61.4971 -21.192 64.5 -28.4417 64.5 -36
C64.5 -43.5583 61.4971 -50.808 56.1525 -56.1525
C50.808 -61.4971 43.5583 -64.5 36 -64.5
C28.4417 -64.5 21.192 -61.4971 15.8475 -56.1525
C10.5029 -50.808 7.5 -43.5583 7.5 -36
C7.5 -28.4417 10.5029 -21.192 15.8475 -15.8475
C21.192 -10.5029 28.4417 -7.5 36 -7.5
z
" id="C0_0_a811fe30f3"/>
     <path d="
M50.1908 -60.7008
L49.724 -60.9312
L49.2511 -61.1514
L48.7727 -61.3609
L48.2893 -61.5591
L47.8016 -61.7455
L47.3102 -61.9196
L46.8161 -62.0808
L46.3199 -62.2285
L45.8228 -62.3623
L45.3256 -62.4817
L44.8294 -62.586
L44.3355 -62.6748
L43.845 -62.7477
L43.3592 -62.8042
L42.8796 -62.844
L42.4074 -62.8665
L41.9441 -62.8717
L41.4911 -62.8591
L41.0497 -62.8287
L40.6215 -62.7805
L40.2075 -62.7143
L39.809 -62.6303
L39.4269 -62.5287
L39.0621 -62.41
L38.7151 -62.2744
L38.3866 -62.1226
L38.0765 -61.9551
L37.7849 -61.7728
L37.5117 -61.5763
L37.2564 -61.3665
L37.0184 -61.1443
L36.7972 -60.9105
L36.5919 -60.6661
L36.4017 -60.4118
L36.2258 -60.1486
L36.0634 -59.8772
L35.9134 -59.5984
L35.7751 -59.3131
L35.6477 -59.0218
L35.5303 -58.7253
L35.4223 -58.4241
L35.3229 -58.1188
L35.2315 -57.81
L35.1475 -57.4982
L35.0703 -57.1838
L34.9994 -56.8671
L34.9344 -56.5488
L34.8748 -56.2289
L34.8202 -55.9081
L34.7702 -55.5864
L34.7245 -55.2642
L34.6829 -54.9418
L34.645 -54.6193
L34.6105 -54.2971
L34.5792 -53.9752
L34.5509 -53.654
L34.5255 -53.3335
L34.5026 -53.0138
L34.4822 -52.6952
L34.4641 -52.3777
L34.4481 -52.0615
L34.4341 -51.7466
L34.422 -51.4331
L34.4116 -51.1211
L34.4029 -50.8107
L34.3958 -50.5018
L34.3901 -50.1946
L34.3858 -49.8891
L34.3828 -49.5853
L34.381 -49.2833
L34.3804 -48.983
L34.3809 -48.6844
L34.3824 -48.3877
L34.3849 -48.0927
L34.3883 -47.7994
L34.3927 -47.508
L34.3978 -47.2182
L34.4038 -46.9302
L34.4105 -46.6439
L34.418 -46.3593
L34.4261 -46.0763
L34.4349 -45.7949
L34.4443 -45.5152
L34.4544 -45.237
L34.465 -44.9603
L34.4762 -44.6851
L34.488 -44.4113
L34.5002 -44.139
L34.513 -43.868
L34.5263 -43.5983
L34.54 -43.3299
L34.5542 -43.0627
L34.5688 -42.7967
L34.5839 -42.5319
L34.5994 -42.2681
L34.6153 -42.0054
L34.6316 -41.7436
L34.6483 -41.4828
L34.6654 -41.2229
L34.6829 -40.9638
L34.7008 -40.7054
L34.719 -40.4478
L34.7377 -40.1909
L34.7567 -39.9347
L34.776 -39.6789
L34.7958 -39.4238
L34.8159 -39.169
L34.8364 -38.9147
L34.8572 -38.6608
L34.8784 -38.4071
L34.9 -38.1537
L34.922 -37.9006
L34.9443 -37.6475
L34.9901 -37.3946
L35.0136 -37.1417
L35.0374 -36.8888
L35.0617 -36.6358
L35.0864 -36.3827
L35.1114 -36.1294
L35.1369 -35.8759
L35.1629 -35.6221
L35.1892 -35.368
L35.216 -35.1135
L35.2433 -34.8586
L35.271 -34.6031
L35.2992 -34.3472
L35.3279 -34.0906
L35.357 -33.8333
L35.3867 -33.5754
L35.4169 -33.3167
L35.4476 -33.0572
L35.4789 -32.7969
L35.5108 -32.5356
L35.5432 -32.2734
L35.5762 -32.0101
L35.6098 -31.7459
L35.6441 -31.4805
L35.6791 -31.2139
L35.7147 -30.9461
L35.751 -30.6771
L35.788 -30.4068
L35.8257 -30.1352
L35.8642 -29.8622
L35.9036 -29.5878
L35.9437 -29.3119
L35.9847 -29.0345
L36.0265 -28.7555
L36.0692 -28.475
L36.1129 -28.1929
L36.1576 -27.9092
L36.2033 -27.6238
L36.25 -27.3367
L36.2978 -27.0479
L36.3467 -26.7574
L36.3968 -26.4652
L36.4481 -26.1712
L36.5006 -25.8755
L36.5545 -25.578
L36.6097 -25.2788
L36.6664 -24.9779
L36.7245 -24.6752
L36.7842 -24.3709
L36.8455 -24.0649
L36.9085 -23.7572
L36.9733 -23.448
L37.0399 -23.1373
L37.1084 -22.8251
L37.179 -22.5116
L37.2517 -22.1968
L37.3267 -21.8807
L37.404 -21.5636
L37.4837 -21.2456
L37.5661 -20.9268
L37.6513 -20.6073
L37.7393 -20.2873
L37.8305 -19.967
L37.9249 -19.6467
L38.0228 -19.3265
L38.1244 -19.0068
L38.2299 -18.6878
L38.3396 -18.3698
L38.4538 -18.0531
L38.5727 -17.7381
L38.6968 -17.4253
L38.8263 -17.115
L38.9618 -16.8077
L39.1035 -16.504
L39.252 -16.2044
L39.4078 -15.9094
L39.5714 -15.6198
L39.7433 -15.3361
L39.9243 -15.0593
L40.1149 -14.79
L40.3158 -14.529
L40.5276 -14.2774
L40.7511 -14.0359
L40.9868 -13.8056
L41.2354 -13.5874
L41.4974 -13.3823
L41.7733 -13.1914
L42.0634 -13.0155
L42.3681 -12.8556
L42.6873 -12.7125
L43.021 -12.587
L43.3688 -12.4798
L43.7305 -12.3914
L44.1052 -12.3222
L44.4923 -12.2725
L44.8908 -12.2424
L45.2996 -12.2319
L45.7177 -12.2409
L46.1439 -12.2691
L46.5769 -12.3162
L47.0155 -12.3818
L47.4585 -12.4653
L47.9048 -12.5663
L48.3531 -12.684
L48.8023 -12.818
L49.2516 -12.9675
L49.6998 -13.1319
L50.1461 -13.3106
L50.5897 -13.5029
L51.0298 -13.708
L51.4657 -13.9255
L51.8969 -14.1547
L52.3227 -14.3949
L52.7426 -14.6455
L53.1562 -14.906
L53.5631 -15.1757
L53.963 -15.4542
L54.3555 -15.7408
L54.7404 -16.0351
L55.1174 -16.3365
L55.4865 -16.6447
L55.8474 -16.959
L56.2 -17.2792
L56.5442 -17.6046
L56.88 -17.9351
L57.2073 -18.2701
L57.5262 -18.6092
L57.8365 -18.9523
L58.1384 -19.2988
L58.4318 -19.6485
L58.7168 -20.0011
L58.9934 -20.3564
L59.2618 -20.714
L59.522 -21.0736
L59.7741 -21.4352
L60.0182 -21.7984
L60.2543 -22.1631
L60.4826 -22.529
L60.7033 -22.8959
L60.9163 -23.2638
L61.1219 -23.6325
L61.3201 -24.0017
L61.511 -24.3715
L61.6948 -24.7416
L61.8716 -25.1119
L62.0415 -25.4824
L62.2046 -25.853
L62.361 -26.2235
L62.5109 -26.594
L62.6543 -26.9643
L62.7914 -27.3343
L62.9222 -27.7041
L63.0469 -28.0735
L63.1656 -28.4426
L63.2784 -28.8113
L63.3853 -29.1795
L63.4864 -29.5473
L63.5819 -29.9146
L63.6718 -30.2815
L63.7562 -30.6478
L63.8352 -31.0136
L63.9089 -31.3789
L63.9772 -31.7437
L64.0404 -32.108
L64.0983 -32.4718
L64.1512 -32.8351
L64.1991 -33.1979
L64.2419 -33.5602
L64.2798 -33.9221
L64.3128 -34.2835
L64.3409 -34.6445
L64.3642 -35.0051
L64.3827 -35.3653
L64.3964 -35.7252
L64.4053 -36.0847
L64.4095 -36.4439
L64.409 -36.8028
L64.4037 -37.1615
L64.3938 -37.5199
L64.3791 -37.8781
L64.3597 -38.2362
L64.3357 -38.5941
L64.3069 -38.9518
L64.2451 -39.3094
L64.1745 -39.803
L64.0952 -40.2954
L64.0074 -40.7864
L63.911 -41.276
L63.8062 -41.764
L63.6929 -42.2503
L63.5711 -42.7346
L63.441 -43.2169
L63.3025 -43.697
L63.1556 -44.1747
L63.0005 -44.6499
L62.8372 -45.1226
L62.6657 -45.5924
L62.4861 -46.0593
L62.2984 -46.5232
L62.1027 -46.9838
L61.8991 -47.4411
L61.6875 -47.8949
L61.4682 -48.3451
L61.241 -48.7915
L61.0062 -49.2341
L60.7638 -49.6726
L60.5138 -50.1069
L60.2564 -50.5369
L59.9916 -50.9625
L59.7194 -51.3836
L59.4401 -51.8
L59.1536 -52.2115
L58.86 -52.6181
L58.5595 -53.0197
L58.2521 -53.4161
L57.9379 -53.8071
L57.6171 -54.1928
L57.2897 -54.5729
L56.9557 -54.9473
L56.6154 -55.316
L56.2689 -55.6788
L55.9161 -56.0356
L55.5573 -56.3862
L55.1925 -56.7307
L54.8219 -57.0689
L54.4455 -57.4006
L54.0635 -57.7259
L53.6761 -58.0445
L53.2832 -58.3564
L52.8851 -58.6615
L52.4818 -58.9596
L52.0735 -59.2508
L51.6603 -59.5349
L51.2423 -59.8119
L50.8197 -60.0815
z
" id="C0_1_f3c11c538d"/>
     <path d="
M7.7468 -32.3356
L7.80542 -31.9813
L7.86835 -31.6274
L7.93563 -31.274
L8.00725 -30.921
L8.08326 -30.5683
L8.16367 -30.216
L8.24853 -29.864
L8.33785 -29.5123
L8.43169 -29.1608
L8.53009 -28.8096
L8.63308 -28.4585
L8.74073 -28.1075
L8.85307 -27.7567
L8.97018 -27.4061
L9.09211 -27.0555
L9.21892 -26.705
L9.35068 -26.3545
L9.48745 -26.0041
L9.62932 -25.6537
L9.77636 -25.3034
L9.92865 -24.9531
L10.0863 -24.6028
L10.2493 -24.2526
L10.4178 -23.9024
L10.592 -23.5522
L10.7718 -23.2021
L10.9574 -22.8522
L11.1489 -22.5023
L11.3463 -22.1526
L11.5499 -21.8031
L11.7596 -21.4538
L11.9757 -21.1047
L12.1981 -20.756
L12.427 -20.4077
L12.6626 -20.0598
L12.9048 -19.7125
L13.1539 -19.3657
L13.4099 -19.0197
L13.673 -18.6744
L13.9431 -18.33
L14.2205 -17.9865
L14.5052 -17.6442
L14.7973 -17.3031
L15.0969 -16.9634
L15.4041 -16.6252
L15.7188 -16.2886
L16.0413 -15.9539
L16.3715 -15.6211
L16.7095 -15.2905
L17.0552 -14.9621
L17.4088 -14.6363
L17.7702 -14.3133
L18.1393 -13.9931
L18.5162 -13.676
L18.9008 -13.3622
L19.2929 -13.052
L19.6925 -12.7455
L20.0994 -12.443
L20.5134 -12.1446
L20.9344 -11.8506
L20.9311 -11.5612
L20.5112 -11.8095
L20.096 -12.0762
L19.6857 -12.3502
L19.2804 -12.6313
L18.8801 -12.9196
L18.4851 -13.2149
L18.0953 -13.5172
L17.7111 -13.8263
L17.3324 -14.1422
L16.9594 -14.4647
L16.5922 -14.7937
L16.2309 -15.1293
L15.8756 -15.4712
L15.5265 -15.8193
L15.1836 -16.1736
L14.847 -16.5339
L14.5169 -16.9002
L14.1934 -17.2723
L13.8764 -17.6501
L13.5662 -18.0334
L13.2629 -18.4223
L12.9664 -18.8165
L12.677 -19.2159
L12.3947 -19.6205
L12.1196 -20.03
L11.8518 -20.4444
L11.5913 -20.8635
L11.3382 -21.2873
L11.0927 -21.7155
L10.8547 -22.1481
L10.6244 -22.5849
L10.4019 -23.0258
L10.1871 -23.4706
L9.98018 -23.9193
L9.7812 -24.3716
L9.59021 -24.8275
L9.40726 -25.2868
L9.23241 -25.7493
L9.06571 -26.215
L8.90722 -26.6837
L8.75699 -27.1551
L8.61505 -27.6293
L8.48145 -28.1061
L8.35623 -28.5852
L8.23944 -29.0666
L8.1311 -29.5501
L8.03125 -30.0356
L7.93992 -30.5229
L7.85714 -31.0118
z
" id="C0_2_815b06c7f4"/>
    </defs>
    <g clip-path="url(#p1bffca34e9)">
     <use style="fill:#ffffff;stroke:#000000;stroke-width:2.0;" x="0.0" xlink:href="#C0_0_a811fe30f3" y="72.0"/>
    </g>
    <g clip-path="url(#p1bffca34e9)">
     <use style="fill:#ff0000;stroke:#000000;stroke-width:2.0;" x="0.0" xlink:href="#C0_1_f3c11c538d" y="72.0"/>
    </g>
    <g clip-path="url(#p1bffca34e9)">
     <use style="fill:#ff0000;stroke:#000000;stroke-width:2.0;" x="0.0" xlink:href="#C0_2_815b06c7f4" y="72.0"/>
    </g>
   </g>
  </g>
 </g>
 <defs>
  <clipPath id="p1bffca34e9">
   <rect height="72.0" width="72.0" x="0.0" y="0.0"/>
  </clipPath>
 </defs>
</svg>
