<?xml version="1.0" encoding="utf-8" standalone="no"?>
<!DOCTYPE svg PUBLIC "-//W3C//DTD SVG 1.1//EN"
  "http://www.w3.org/Graphics/SVG/1.1/DTD/svg11.dtd">
<!-- Created with matplotlib (http://matplotlib.org/) -->
<svg height="72pt" version="1.1" viewBox="0 0 72 72" width="72pt" xmlns="http://www.w3.org/2000/svg" xmlns:xlink="http://www.w3.org/1999/xlink">
 <defs>
  <style type="text/css">
*{stroke-linecap:butt;stroke-linejoin:round;}
  </style>
 </defs>
 <g id="figure_1">
  <g id="patch_1">
   <path d="
M0 72
L72 72
L72 0
L0 0
z
" style="fill:none;"/>
  </g>
  <g id="axes_1">
   <g id="PatchCollection_1">
    <defs>
     <path d="
M36 -7.5
C43.5583 -7.5 50.808 -10.5029 56.1525 -15.8475
C61.4971 -21.192 64.5 -28.4417 64.5 -36
C64.5 -43.5583 61.4971 -50.808 56.1525 -56.1525
C50.808 -61.4971 43.5583 -64.5 36 -64.5
C28.4417 -64.5 21.192 -61.4971 15.8475 -56.1525
C10.5029 -50.808 7.5 -43.5583 7.5 -36
C7.5 -28.4417 10.5029 -21.192 15.8475 -15.8475
C21.192 -10.5029 28.4417 -7.5 36 -7.5
z
" id="C0_0_a811fe30f3"/>
     <path d="
M51.6547 -42.9534
L51.4317 -43.12
L51.207 -43.2843
L50.9804 -43.4462
L50.7519 -43.6057
L50.5216 -43.7628
L50.2895 -43.9175
L50.0556 -44.0699
L49.8197 -44.22
L49.582 -44.3677
L49.3425 -44.5131
L49.101 -44.6561
L48.8576 -44.7968
L48.6124 -44.9352
L48.3652 -45.0712
L48.1161 -45.2048
L47.865 -45.3361
L47.612 -45.465
L47.357 -45.5915
L47.1 -45.7156
L46.841 -45.8373
L46.58 -45.9565
L46.317 -46.0733
L46.052 -46.1875
L45.7849 -46.2992
L45.5158 -46.4084
L45.2447 -46.5149
L44.9714 -46.6188
L44.6961 -46.7201
L44.4188 -46.8186
L44.1393 -46.9144
L43.8578 -47.0074
L43.5742 -47.0975
L43.2885 -47.1847
L43.0007 -47.2689
L42.7109 -47.3501
L42.4191 -47.4282
L42.1251 -47.5031
L41.8292 -47.5749
L41.5313 -47.6433
L41.2314 -47.7083
L40.9295 -47.7699
L40.6257 -47.8279
L40.32 -47.8824
L40.0125 -47.9331
L39.7032 -47.98
L39.3921 -48.023
L39.0793 -48.062
L38.7648 -48.0969
L38.4488 -48.1276
L38.1313 -48.154
L37.8123 -48.176
L37.492 -48.1934
L37.1704 -48.2062
L36.8477 -48.2142
L36.5239 -48.2173
L36.1993 -48.2154
L35.8737 -48.2084
L35.5475 -48.1961
L35.2208 -48.1784
L34.8936 -48.1552
L34.5662 -48.1264
L34.2388 -48.0917
L33.9114 -48.0512
L33.5842 -48.0046
L33.2575 -47.9519
L32.9315 -47.8928
L32.6063 -47.8274
L32.2822 -47.7554
L31.9594 -47.6767
L31.638 -47.5913
L31.3185 -47.499
L31.0009 -47.3998
L30.6855 -47.2934
L30.3726 -47.1799
L30.0625 -47.0592
L29.7553 -46.9312
L29.4514 -46.7957
L29.1511 -46.6529
L28.8545 -46.5026
L28.5619 -46.3448
L28.2737 -46.1795
L27.99 -46.0068
L27.7111 -45.8266
L27.4373 -45.6389
L27.1688 -45.4438
L26.9059 -45.2415
L26.6487 -45.0319
L26.3974 -44.8151
L26.1523 -44.5914
L25.9136 -44.3607
L25.6814 -44.1233
L25.4559 -43.8794
L25.2373 -43.629
L25.0256 -43.3724
L24.821 -43.1099
L24.6237 -42.8415
L24.4335 -42.5676
L24.2508 -42.2884
L24.0754 -42.0041
L23.9074 -41.7149
L23.747 -41.4213
L23.594 -41.1233
L23.4484 -40.8212
L23.3104 -40.5155
L23.1797 -40.2062
L23.0564 -39.8937
L22.9405 -39.5782
L22.8318 -39.2601
L22.7304 -38.9395
L22.636 -38.6167
L22.5487 -38.292
L22.4684 -37.9657
L22.3949 -37.6379
L22.3281 -37.3088
L22.268 -36.9788
L22.2144 -36.6481
L22.1672 -36.3167
L22.1263 -35.985
L22.0916 -35.6532
L22.063 -35.3213
L22.0403 -34.9896
L22.0233 -34.6583
L22.0121 -34.3275
L22.0065 -33.9974
L22.0063 -33.668
L22.0114 -33.3396
L22.0217 -33.0122
L22.0371 -32.686
L22.0575 -32.361
L22.0827 -32.0375
L22.1127 -31.7154
L22.1473 -31.3948
L22.1865 -31.0759
L22.23 -30.7587
L22.2779 -30.4433
L22.3301 -30.1297
L22.3863 -29.818
L22.4466 -29.5082
L22.5108 -29.2005
L22.5789 -28.8947
L22.6508 -28.591
L22.7263 -28.2895
L22.8055 -27.99
L22.8882 -27.6927
L22.9744 -27.3975
L23.064 -27.1046
L23.1569 -26.8138
L23.2531 -26.5253
L23.3526 -26.239
L23.4551 -25.9549
L23.5608 -25.673
L23.6696 -25.3934
L23.7813 -25.116
L23.896 -24.8408
L24.0137 -24.5679
L24.1342 -24.2972
L24.2576 -24.0288
L24.3838 -23.7626
L24.5128 -23.4985
L24.6445 -23.2367
L24.779 -22.9771
L24.9162 -22.7197
L25.056 -22.4644
L25.1986 -22.2114
L25.3438 -21.9605
L25.4916 -21.7117
L25.6421 -21.4651
L25.7952 -21.2207
L25.9509 -20.9784
L26.1093 -20.7382
L26.2702 -20.5001
L26.4338 -20.2641
L26.5999 -20.0303
L26.7687 -19.7986
L26.9402 -19.5689
L27.1142 -19.3414
L27.2909 -19.1159
L27.4702 -18.8925
L27.6522 -18.6713
L27.8369 -18.4521
L28.0243 -18.2351
L28.2144 -18.0201
L28.4073 -17.8073
L28.6029 -17.5966
L28.8013 -17.3881
L29.0025 -17.1817
L29.2065 -16.9775
L29.4134 -16.7754
L29.6232 -16.5756
L29.8359 -16.3779
L30.0515 -16.1826
L30.2702 -15.9895
L30.4919 -15.7987
L30.7166 -15.6103
L30.9444 -15.4242
L31.1753 -15.2406
L31.4094 -15.0594
L31.6467 -14.8807
L31.8872 -14.7045
L32.131 -14.531
L32.3782 -14.3601
L32.6287 -14.1919
L32.8825 -14.0264
L33.1399 -13.8639
L33.4007 -13.7042
L33.665 -13.5475
L33.9328 -13.3939
L34.2043 -13.2435
L34.4794 -13.0962
L34.7581 -12.9523
L35.0406 -12.8118
L35.3268 -12.6749
L35.6167 -12.5416
L35.9105 -12.412
L36.2081 -12.2863
L36.5095 -12.1646
L36.8148 -12.047
L37.124 -11.9337
L37.437 -11.8247
L37.754 -11.7203
L38.075 -11.6205
L38.3998 -11.5256
L38.7286 -11.4357
L39.0612 -11.351
L39.3978 -11.2716
L39.7383 -11.1978
L40.0825 -11.1296
L40.4306 -11.0673
L40.7825 -11.0112
L41.138 -10.9612
L41.4972 -10.9178
L41.86 -10.8811
L42.2262 -10.8513
L42.5958 -10.8286
L42.9687 -10.8132
L43.3447 -10.8054
L43.7237 -10.8053
L44.1056 -10.8132
L44.4902 -10.8293
L44.8773 -10.8539
L45.2668 -10.887
L45.6583 -10.9291
L46.0517 -10.9801
L46.4467 -11.0405
L46.8431 -11.1103
L47.2406 -11.1897
L47.6389 -11.279
L48.0376 -11.3782
L48.4364 -11.4876
L48.835 -11.6073
L49.2329 -11.7373
L49.6299 -11.8779
L50.0255 -12.029
L50.4193 -12.1908
L50.8108 -12.3634
L51.1996 -12.5466
L51.5852 -12.7405
L51.9672 -12.9451
L52.3452 -13.1603
L52.7186 -13.386
L53.0869 -13.6221
L53.4498 -13.8685
L53.8066 -14.1249
L54.157 -14.3912
L54.5005 -14.6671
L54.8366 -14.9524
L55.165 -15.2467
L55.4851 -15.5497
L55.7966 -15.8611
L56.0992 -16.1805
L56.3925 -16.5075
L56.6761 -16.8418
L56.9498 -17.1828
L57.2133 -17.5301
L57.4663 -17.8834
L57.7087 -18.242
L57.9404 -18.6056
L58.161 -18.9737
L58.3706 -19.3459
L58.5691 -19.7216
L58.7565 -20.1004
L58.9326 -20.4819
L59.0975 -20.8655
L59.2513 -21.251
L59.3941 -21.6377
L59.5258 -22.0255
L59.6467 -22.4138
L59.7568 -22.8022
L59.8564 -23.1905
L59.9455 -23.5783
L60.0243 -23.9653
L60.0931 -24.3511
L60.1521 -24.7355
L60.2014 -25.1181
L60.2413 -25.4989
L60.272 -25.8775
L60.2937 -26.2536
L60.3068 -26.6273
L60.3113 -26.9981
L60.3076 -27.366
L60.296 -27.7308
L60.2765 -28.0925
L60.2496 -28.4508
L60.2153 -28.8056
L60.174 -29.1569
L60.1259 -29.5047
L60.0712 -29.8487
L60.0102 -30.189
L59.943 -30.5254
L59.8698 -30.8581
L59.7909 -31.1868
L59.7065 -31.5117
L59.6167 -31.8326
L59.5218 -32.1496
L59.4219 -32.4627
L59.3172 -32.7718
L59.2079 -33.077
L59.0942 -33.3783
L58.9761 -33.6757
L58.8539 -33.9692
L58.7276 -34.2589
L58.5975 -34.5447
L58.4637 -34.8268
L58.3263 -35.105
L58.1854 -35.3795
L58.0411 -35.6504
L57.8935 -35.9175
L57.7428 -36.1811
L57.589 -36.441
L57.4323 -36.6975
L57.2727 -36.9504
L57.1104 -37.1999
L56.9453 -37.4459
L56.7776 -37.6886
L56.6073 -37.928
L56.4346 -38.1641
L56.2594 -38.397
L56.0819 -38.6267
L55.902 -38.8532
L55.7199 -39.0767
L55.5356 -39.2971
L55.3491 -39.5144
L55.1604 -39.7288
L54.9697 -39.9403
L54.777 -40.1489
L54.5822 -40.3546
L54.3854 -40.5575
L54.1866 -40.7576
L53.986 -40.9549
L53.7833 -41.1496
L53.5788 -41.3415
L53.3724 -41.5308
L53.1642 -41.7175
L52.954 -41.9016
L52.7421 -42.0832
L52.5283 -42.2622
L52.3126 -42.4387
L52.0951 -42.6127
z
" id="C0_1_7a2208d6cc"/>
    </defs>
    <g clip-path="url(#p1bffca34e9)">
     <use style="fill:#ffffff;stroke:#000000;stroke-width:2.0;" x="0.0" xlink:href="#C0_0_a811fe30f3" y="72.0"/>
    </g>
    <g clip-path="url(#p1bffca34e9)">
     <use style="fill:#ff0000;stroke:#000000;stroke-width:2.0;" x="0.0" xlink:href="#C0_1_7a2208d6cc" y="72.0"/>
    </g>
   </g>
  </g>
 </g>
 <defs>
  <clipPath id="p1bffca34e9">
   <rect height="72.0" width="72.0" x="0.0" y="0.0"/>
  </clipPath>
 </defs>
</svg>
