<?xml version="1.0" encoding="utf-8" standalone="no"?>
<!DOCTYPE svg PUBLIC "-//W3C//DTD SVG 1.1//EN"
  "http://www.w3.org/Graphics/SVG/1.1/DTD/svg11.dtd">
<!-- Created with matplotlib (http://matplotlib.org/) -->
<svg height="72pt" version="1.1" viewBox="0 0 72 72" width="72pt" xmlns="http://www.w3.org/2000/svg" xmlns:xlink="http://www.w3.org/1999/xlink">
 <defs>
  <style type="text/css">
*{stroke-linecap:butt;stroke-linejoin:round;}
  </style>
 </defs>
 <g id="figure_1">
  <g id="patch_1">
   <path d="
M0 72
L72 72
L72 0
L0 0
z
" style="fill:none;"/>
  </g>
  <g id="axes_1">
   <g id="PatchCollection_1">
    <defs>
     <path d="
M36 -7.5
C43.5583 -7.5 50.808 -10.5029 56.1525 -15.8475
C61.4971 -21.192 64.5 -28.4417 64.5 -36
C64.5 -43.5583 61.4971 -50.808 56.1525 -56.1525
C50.808 -61.4971 43.5583 -64.5 36 -64.5
C28.4417 -64.5 21.192 -61.4971 15.8475 -56.1525
C10.5029 -50.808 7.5 -43.5583 7.5 -36
C7.5 -28.4417 10.5029 -21.192 15.8475 -15.8475
C21.192 -10.5029 28.4417 -7.5 36 -7.5
z
" id="C0_0_a811fe30f3"/>
     <path d="
M52.8766 -58.923
L53.3039 -58.5421
L53.7138 -58.1531
L54.1041 -57.7573
L54.4724 -57.3561
L54.8163 -56.9513
L55.1332 -56.5448
L55.4203 -56.1386
L55.675 -55.7348
L55.8947 -55.3359
L56.0775 -54.9437
L56.2218 -54.5604
L56.3267 -54.1876
L56.3925 -53.8263
L56.4203 -53.4771
L56.4118 -53.1403
L56.3695 -52.8154
L56.2966 -52.5019
L56.1959 -52.1987
L56.0707 -51.9049
L55.924 -51.6196
L55.7584 -51.3417
L55.5765 -51.0704
L55.3805 -50.8049
L55.1723 -50.5445
L54.9537 -50.2886
L54.726 -50.0368
L54.4907 -49.7886
L54.2488 -49.5437
L54.0013 -49.3019
L53.749 -49.0629
L53.4928 -48.8266
L53.2333 -48.5928
L52.971 -48.3613
L52.7066 -48.1322
L52.4404 -47.9053
L52.1729 -47.6806
L51.9044 -47.458
L51.6353 -47.2375
L51.3658 -47.0191
L51.0963 -46.8027
L50.827 -46.5884
L50.558 -46.3761
L50.2896 -46.1658
L50.0219 -45.9575
L49.755 -45.7511
L49.4892 -45.5467
L49.2245 -45.3443
L48.961 -45.1438
L48.6988 -44.9452
L48.4381 -44.7486
L48.1787 -44.5538
L47.9209 -44.3609
L47.6646 -44.1698
L47.4099 -43.9805
L47.1568 -43.7931
L46.9053 -43.6074
L46.6555 -43.4234
L46.4074 -43.2412
L46.1609 -43.0607
L45.9161 -42.8818
L45.6729 -42.7045
L45.4314 -42.5288
L45.1915 -42.3547
L44.9532 -42.1821
L44.7165 -42.011
L44.4814 -41.8414
L44.2478 -41.6732
L44.0158 -41.5063
L43.7852 -41.3408
L43.556 -41.1766
L43.3283 -41.0137
L43.1019 -40.852
L42.8769 -40.6915
L42.6532 -40.5321
L42.4307 -40.3738
L42.2095 -40.2167
L41.9894 -40.0606
L41.7704 -39.9054
L41.5525 -39.7512
L41.3356 -39.598
L41.1198 -39.4456
L40.9048 -39.2941
L40.6908 -39.1434
L40.4776 -38.9935
L40.2653 -38.8442
L40.0536 -38.6957
L39.8427 -38.5479
L39.6324 -38.4006
L39.4228 -38.254
L39.2137 -38.1078
L39.0051 -37.9622
L38.797 -37.8171
L38.5892 -37.6724
L38.3819 -37.528
L38.1748 -37.3841
L37.9681 -37.2405
L37.7615 -37.0971
L37.5551 -36.954
L37.3488 -36.8111
L37.1425 -36.6684
L36.73 -36.5259
L36.5237 -36.3835
L36.3172 -36.2411
L36.1105 -36.0988
L35.9036 -35.9565
L35.6963 -35.8141
L35.4888 -35.6717
L35.2808 -35.5292
L35.0724 -35.3865
L34.8635 -35.2437
L34.654 -35.1007
L34.4439 -34.9575
L34.2332 -34.8139
L34.0217 -34.6701
L33.8095 -34.526
L33.5965 -34.3814
L33.3826 -34.2365
L33.1678 -34.0911
L32.952 -33.9453
L32.7352 -33.799
L32.5173 -33.6521
L32.2982 -33.5047
L32.078 -33.3566
L31.8566 -33.208
L31.6338 -33.0586
L31.4097 -32.9086
L31.1842 -32.7579
L30.9572 -32.6064
L30.7287 -32.4542
L30.4987 -32.3011
L30.267 -32.1472
L30.0337 -31.9924
L29.7987 -31.8368
L29.5619 -31.6803
L29.3233 -31.5228
L29.0828 -31.3643
L28.8404 -31.2049
L28.5961 -31.0445
L28.3497 -30.8831
L28.1013 -30.7207
L27.8508 -30.5573
L27.5981 -30.3928
L27.3433 -30.2272
L27.0863 -30.0606
L26.827 -29.8929
L26.5655 -29.7242
L26.3017 -29.5544
L26.0355 -29.3836
L25.767 -29.2118
L25.4961 -29.039
L25.2228 -28.8652
L24.9471 -28.6904
L24.669 -28.5148
L24.3885 -28.3383
L24.1056 -28.161
L23.8204 -27.9829
L23.5327 -27.8042
L23.2427 -27.6249
L22.9504 -27.4452
L22.6557 -27.265
L22.3589 -27.0846
L22.0598 -26.9041
L21.7585 -26.7236
L21.4552 -26.5433
L21.1499 -26.3635
L20.8426 -26.1842
L20.5334 -26.0058
L20.2225 -25.8286
L19.9099 -25.6529
L19.5957 -25.479
L19.28 -25.3073
L18.963 -25.1382
L18.6448 -24.9723
L18.3255 -24.8102
L18.0051 -24.6525
L17.6839 -24.5
L17.3619 -24.3535
L17.0393 -24.214
L16.7162 -24.0827
L16.3928 -23.9609
L16.069 -23.8501
L15.7451 -23.7521
L15.4211 -23.6689
L15.0972 -23.6028
L14.7736 -23.5564
L14.4503 -23.5325
L14.1278 -23.5342
L13.8062 -23.5647
L13.4861 -23.6271
L13.1681 -23.7243
L12.8528 -23.8589
L12.5413 -24.0323
L12.2344 -24.2454
L11.9334 -24.4978
L11.6393 -24.7885
L11.3533 -25.1151
L11.0763 -25.4752
L10.8094 -25.8657
L10.5533 -26.2834
L10.3088 -26.7252
L10.0764 -27.188
L9.85672 -27.669
L9.65 -28.1657
L9.45657 -28.6756
L9.2766 -29.1967
L9.11023 -29.7271
L8.95748 -30.265
L8.81837 -30.809
L8.69281 -31.3575
L8.5807 -31.9095
L8.4819 -32.4637
L8.39621 -33.0191
L8.32343 -33.5749
L8.26331 -34.1302
L8.21558 -34.6843
L8.17998 -35.2365
L8.1562 -35.7861
L8.14393 -36.3326
L8.14286 -36.8755
L8.15265 -37.4144
L8.17298 -37.9489
L8.20352 -38.4786
L8.24393 -39.0032
L8.29387 -39.5224
L8.35302 -40.036
L8.42104 -40.5437
L8.49762 -41.0454
L8.58244 -41.541
L8.67518 -42.0302
L8.77555 -42.513
L8.88325 -42.9893
L8.99799 -43.4591
L9.11949 -43.9222
L9.24749 -44.3787
L9.38173 -44.8285
L9.52196 -45.2717
L9.66794 -45.7082
L9.81944 -46.1381
L9.97625 -46.5614
L10.1381 -46.9781
L10.3049 -47.3884
L10.4764 -47.7922
L10.6525 -48.1896
L10.8329 -48.5807
L11.0174 -48.9655
L11.206 -49.3442
L11.3986 -49.7168
L11.5948 -50.0834
L11.7948 -50.4441
L11.9982 -50.799
L12.2051 -51.1481
L12.4152 -51.4916
L12.6286 -51.8295
L12.8451 -52.162
L13.0646 -52.4891
L13.2871 -52.8109
L13.5125 -53.1275
L13.7408 -53.4389
L13.9718 -53.7454
L14.2055 -54.047
L14.442 -54.3436
L14.7676 -54.6356
L15.1027 -55.0115
L15.4441 -55.3792
L15.7917 -55.7409
L16.1455 -56.0967
L16.5054 -56.4463
L16.8712 -56.7897
L17.2428 -57.1267
L17.6202 -57.4574
L18.0031 -57.7814
L18.3915 -58.0989
L18.7853 -58.4096
L19.1843 -58.7135
L19.5885 -59.0105
L19.9976 -59.3005
L20.4116 -59.5833
L20.8304 -59.859
L21.2538 -60.1275
L21.6817 -60.3885
L22.1139 -60.6422
L22.5504 -60.8883
L22.991 -61.1269
L23.4355 -61.3578
L23.8839 -61.5809
L24.3359 -61.7963
L24.7915 -62.0038
L25.2506 -62.2034
L25.7129 -62.3951
L26.1783 -62.5787
L26.6467 -62.7541
L27.118 -62.9215
L27.592 -63.0806
L28.0685 -63.2315
L28.5474 -63.3741
L29.0287 -63.5084
L29.512 -63.6342
L29.9973 -63.7517
L30.4845 -63.8607
L30.9733 -63.9612
L31.4637 -64.0532
L31.9554 -64.1367
L32.4484 -64.2115
L32.9425 -64.2778
L33.4374 -64.3355
L33.9332 -64.3846
L34.4296 -64.425
L34.9265 -64.4567
L35.4237 -64.4798
L35.9211 -64.4942
L36.4185 -64.4999
L36.9157 -64.4969
L37.4127 -64.4853
L37.9093 -64.465
L38.4053 -64.436
L38.9006 -64.3983
L39.3949 -64.352
L39.8883 -64.2971
L40.3804 -64.2335
L40.8712 -64.1614
L41.3606 -64.0806
L41.8483 -63.9913
L42.3342 -63.8935
L42.8182 -63.7872
L43.3001 -63.6724
L43.7798 -63.5492
L44.2571 -63.4176
L44.7319 -63.2777
L45.204 -63.1294
L45.6734 -62.9729
L46.1398 -62.8081
L46.6031 -62.6352
L47.0631 -62.4542
L47.5198 -62.2651
L47.973 -62.0681
L48.4226 -61.863
L48.8684 -61.6501
L49.3102 -61.4294
L49.748 -61.201
L50.1816 -60.9648
L50.6109 -60.7211
L51.0357 -60.4698
L51.456 -60.2111
L51.8715 -59.945
L52.2822 -59.6716
z
" id="C0_1_9ef3c429c4"/>
     <path d="
M57.3106 -17.0847
L57.0553 -16.8147
L56.7979 -16.5494
L56.5385 -16.2887
L56.277 -16.0325
L56.0136 -15.7808
L55.7481 -15.5335
L55.4806 -15.2904
L55.2111 -15.0516
L54.9396 -14.8169
L54.666 -14.5864
L54.3904 -14.3598
L54.1127 -14.1373
L53.833 -13.9186
L53.5511 -13.7039
L53.2671 -13.4929
L52.981 -13.2857
L52.6927 -13.0822
L52.4021 -12.8824
L52.1093 -12.6863
L51.8142 -12.4938
L51.5168 -12.3049
L51.2169 -12.1196
L50.9147 -11.9378
L50.61 -11.7595
L50.3027 -11.5848
L49.9929 -11.4135
L49.6805 -11.2458
L49.3654 -11.0816
L49.0475 -10.9208
L48.7269 -10.7636
L48.4034 -10.6099
L48.0769 -10.4597
L47.7475 -10.3131
L47.4151 -10.1701
L47.0795 -10.0307
L46.7408 -9.89491
L46.3988 -9.76281
L46.0535 -9.63443
L45.7049 -9.50982
L45.3527 -9.38903
L44.9971 -9.27212
L44.6378 -9.15915
L44.2749 -9.0502
L43.9083 -8.94533
L43.5379 -8.84463
L43.1636 -8.74818
L42.7853 -8.65608
L42.4031 -8.56842
L42.0167 -8.48531
L41.6262 -8.40686
L41.2316 -8.33318
L40.8326 -8.26441
L40.4294 -8.20067
L40.0217 -8.14209
L39.6096 -8.08883
L39.1931 -8.04103
L38.772 -7.99885
L38.3464 -7.96245
L37.9162 -7.93202
L37.4814 -7.90771
L37.0419 -7.88973
L36.5978 -7.87826
L36.1491 -7.87349
L35.6957 -7.87563
L35.2377 -7.88489
L34.775 -7.90149
L34.3079 -7.92563
L33.8362 -7.95755
L33.36 -7.99746
L32.8795 -8.04559
L32.3947 -8.10219
L31.9058 -8.16746
L31.4128 -8.24165
L30.9159 -8.32498
L30.4152 -8.41766
L29.911 -8.51993
L29.4035 -8.63198
L28.8928 -8.75402
L28.3793 -8.88622
L27.8632 -9.02877
L27.3448 -9.1818
L26.8244 -9.34545
L26.3023 -9.51982
L25.779 -9.70498
L25.2549 -9.90095
L24.7304 -10.1077
L24.2058 -10.3252
L23.6819 -10.5534
L23.1589 -10.7919
L22.6375 -11.0407
L22.1183 -11.2992
L21.6018 -11.5671
L21.0886 -11.8438
L20.5794 -12.1285
L20.0749 -12.4205
L19.9799 -12.7185
L20.3937 -12.4287
L20.8123 -12.1527
L21.2355 -11.8839
L21.6632 -11.6226
L22.0953 -11.3686
L22.5316 -11.1221
L22.972 -10.8832
L23.4163 -10.652
L23.8645 -10.4285
L24.3164 -10.2128
L24.7719 -10.0049
L25.2308 -9.80497
L25.6929 -9.61301
L26.1582 -9.42908
L26.6265 -9.25324
L27.0977 -9.08555
L27.5715 -8.92606
L28.0479 -8.77482
L28.5268 -8.63186
L29.0079 -8.49725
L29.4912 -8.37101
L29.9764 -8.25319
L30.4635 -8.14382
L30.9523 -8.04294
L31.4426 -7.95057
L31.9342 -7.86675
L32.4272 -7.7915
L32.9212 -7.72484
L33.4161 -7.66679
L33.9119 -7.61737
L34.4082 -7.5766
L34.9051 -7.54449
L35.4023 -7.52104
L35.8997 -7.50627
L36.3971 -7.50018
L36.8944 -7.50277
L37.3914 -7.51404
L37.888 -7.53398
L38.384 -7.5626
L38.8793 -7.59988
L39.3737 -7.64581
L39.8671 -7.70038
L40.3593 -7.76357
L40.8501 -7.83536
L41.3395 -7.91573
L41.8273 -8.00466
L42.3133 -8.10211
L42.7974 -8.20806
L43.2794 -8.32247
L43.7592 -8.44532
L44.2366 -8.57656
L44.7115 -8.71615
L45.1838 -8.86406
L45.6532 -9.02023
L46.1198 -9.18461
L46.5832 -9.35717
L47.0434 -9.53784
L47.5003 -9.72657
L47.9536 -9.92331
L48.4033 -10.128
L48.8493 -10.3405
L49.2913 -10.5609
L49.7292 -10.7891
L50.163 -11.0249
L50.5925 -11.2683
L51.0175 -11.5192
L51.438 -11.7776
L51.8537 -12.0434
L52.2646 -12.3165
L52.6706 -12.5968
L53.0715 -12.8842
L53.4672 -13.1787
L53.8576 -13.4801
L54.2425 -13.7883
L54.6219 -14.1034
L54.9955 -14.4251
L55.3635 -14.7534
L55.7255 -15.0881
L56.0815 -15.4293
L56.4314 -15.7766
L56.775 -16.1302
z
" id="C0_2_d58acd2fcf"/>
    </defs>
    <g clip-path="url(#p1bffca34e9)">
     <use style="fill:#ffffff;stroke:#000000;stroke-width:2.0;" x="0.0" xlink:href="#C0_0_a811fe30f3" y="72.0"/>
    </g>
    <g clip-path="url(#p1bffca34e9)">
     <use style="fill:#ff0000;stroke:#000000;stroke-width:2.0;" x="0.0" xlink:href="#C0_1_9ef3c429c4" y="72.0"/>
    </g>
    <g clip-path="url(#p1bffca34e9)">
     <use style="fill:#ff0000;stroke:#000000;stroke-width:2.0;" x="0.0" xlink:href="#C0_2_d58acd2fcf" y="72.0"/>
    </g>
   </g>
  </g>
 </g>
 <defs>
  <clipPath id="p1bffca34e9">
   <rect height="72.0" width="72.0" x="0.0" y="0.0"/>
  </clipPath>
 </defs>
</svg>
