<?xml version="1.0" encoding="utf-8" standalone="no"?>
<!DOCTYPE svg PUBLIC "-//W3C//DTD SVG 1.1//EN"
  "http://www.w3.org/Graphics/SVG/1.1/DTD/svg11.dtd">
<!-- Created with matplotlib (http://matplotlib.org/) -->
<svg height="72pt" version="1.1" viewBox="0 0 72 72" width="72pt" xmlns="http://www.w3.org/2000/svg" xmlns:xlink="http://www.w3.org/1999/xlink">
 <defs>
  <style type="text/css">
*{stroke-linecap:butt;stroke-linejoin:round;}
  </style>
 </defs>
 <g id="figure_1">
  <g id="patch_1">
   <path d="
M0 72
L72 72
L72 0
L0 0
z
" style="fill:none;"/>
  </g>
  <g id="axes_1">
   <g id="PatchCollection_1">
    <defs>
     <path d="
M36 -7.5
C43.5583 -7.5 50.808 -10.5029 56.1525 -15.8475
C61.4971 -21.192 64.5 -28.4417 64.5 -36
C64.5 -43.5583 61.4971 -50.808 56.1525 -56.1525
C50.808 -61.4971 43.5583 -64.5 36 -64.5
C28.4417 -64.5 21.192 -61.4971 15.8475 -56.1525
C10.5029 -50.808 7.5 -43.5583 7.5 -36
C7.5 -28.4417 10.5029 -21.192 15.8475 -15.8475
C21.192 -10.5029 28.4417 -7.5 36 -7.5
z
" id="C0_0_a811fe30f3"/>
     <path d="
M64.1801 -39.3536
L63.9388 -39.3803
L63.6958 -39.3893
L63.4513 -39.3815
L63.2053 -39.3578
L62.958 -39.3192
L62.7095 -39.2666
L62.4598 -39.201
L62.209 -39.1235
L61.9571 -39.0349
L61.7043 -38.9362
L61.4505 -38.8283
L61.1959 -38.712
L60.9403 -38.5882
L60.684 -38.4576
L60.4269 -38.321
L60.1691 -38.179
L59.9107 -38.0322
L59.6517 -37.8814
L59.3921 -37.7269
L59.1321 -37.5694
L58.8717 -37.4092
L58.611 -37.2468
L58.35 -37.0826
L58.0888 -36.917
L57.8274 -36.7502
L57.566 -36.5826
L57.3046 -36.4144
L57.0433 -36.2459
L56.782 -36.0774
L56.5209 -35.9089
L56.2601 -35.7407
L55.9995 -35.5729
L55.7392 -35.4057
L55.4794 -35.2392
L55.2199 -35.0735
L54.9609 -34.9087
L54.7024 -34.745
L54.4444 -34.5823
L54.187 -34.4208
L53.9302 -34.2604
L53.6739 -34.1013
L53.4183 -33.9435
L53.1634 -33.7871
L52.9091 -33.632
L52.6555 -33.4782
L52.4025 -33.3259
L52.1502 -33.1749
L51.8987 -33.0254
L51.6478 -32.8772
L51.3976 -32.7305
L51.148 -32.5852
L50.8992 -32.4413
L50.651 -32.2988
L50.4035 -32.1577
L50.1566 -32.0179
L49.9103 -31.8795
L49.6646 -31.7424
L49.4195 -31.6067
L49.175 -31.4722
L48.931 -31.3391
L48.6875 -31.2072
L48.4445 -31.0765
L48.202 -30.947
L47.96 -30.8188
L47.7183 -30.6917
L47.477 -30.5658
L47.2361 -30.441
L46.9955 -30.3173
L46.7552 -30.1946
L46.5151 -30.073
L46.2753 -29.9525
L46.0356 -29.8329
L45.7961 -29.7144
L45.5566 -29.5967
L45.3173 -29.48
L45.078 -29.3643
L44.8386 -29.2494
L44.5993 -29.1353
L44.3598 -29.0221
L44.1202 -28.9097
L43.8805 -28.7981
L43.6405 -28.6873
L43.4003 -28.5772
L43.1598 -28.4678
L42.6778 -28.3592
L42.4361 -28.2512
L42.194 -28.1439
L41.9514 -28.0373
L41.7083 -27.9312
L41.4645 -27.8258
L41.2201 -27.721
L40.975 -27.6167
L40.7292 -27.513
L40.4826 -27.4098
L40.2352 -27.3072
L39.987 -27.205
L39.7378 -27.1034
L39.4877 -27.0022
L39.2365 -26.9014
L38.9844 -26.8011
L38.7311 -26.7013
L38.4767 -26.6018
L38.2211 -26.5028
L37.9643 -26.4041
L37.7063 -26.3058
L37.4469 -26.2079
L37.1862 -26.1104
L36.9241 -26.0132
L36.6606 -25.9163
L36.3956 -25.8198
L36.129 -25.7236
L35.861 -25.6277
L35.5913 -25.5321
L35.3201 -25.4367
L35.0472 -25.3417
L34.7726 -25.247
L34.4963 -25.1525
L34.2183 -25.0583
L33.9385 -24.9644
L33.6569 -24.8707
L33.3735 -24.7773
L33.0883 -24.6841
L32.8013 -24.5911
L32.5124 -24.4984
L32.2217 -24.4059
L31.9291 -24.3137
L31.6347 -24.2216
L31.3384 -24.1297
L31.0404 -24.0381
L30.7405 -23.9466
L30.4389 -23.8553
L30.1355 -23.7641
L29.8304 -23.6731
L29.5237 -23.5822
L29.2154 -23.4914
L28.9056 -23.4007
L28.5943 -23.3101
L28.2817 -23.2195
L27.9679 -23.1288
L27.6529 -23.0381
L27.3369 -22.9473
L27.02 -22.8564
L26.7024 -22.7652
L26.3843 -22.6737
L26.0658 -22.5819
L25.7472 -22.4896
L25.4287 -22.3968
L25.1105 -22.3032
L24.7929 -22.2089
L24.4761 -22.1136
L24.1606 -22.0172
L23.8466 -21.9195
L23.5345 -21.8204
L23.2247 -21.7195
L22.9175 -21.6166
L22.6136 -21.5116
L22.3132 -21.404
L22.017 -21.2936
L21.7254 -21.18
L21.4391 -21.0629
L21.1585 -20.9419
L20.8844 -20.8165
L20.6173 -20.6864
L20.3578 -20.551
L20.1068 -20.4099
L19.8648 -20.2627
L19.6326 -20.1088
L19.4108 -19.9477
L19.2001 -19.7791
L19.0012 -19.6024
L18.8147 -19.4172
L18.6413 -19.2233
L18.4815 -19.0202
L18.3358 -18.8077
L18.2048 -18.5856
L18.0888 -18.3538
L17.9883 -18.1122
L17.9034 -17.861
L17.8344 -17.6002
L17.7816 -17.3301
L17.7449 -17.051
L17.7244 -16.7633
L17.7201 -16.4673
L17.7319 -16.1636
L17.7598 -15.8528
L17.8034 -15.5355
L17.8627 -15.2122
L17.9373 -14.8836
L18.0271 -14.5504
L18.1318 -14.2132
L18.4844 -13.8728
L18.8794 -13.5177
L19.2797 -13.2154
L19.685 -12.9201
L20.0953 -12.6318
L20.5105 -12.3507
L20.9304 -12.0767
L21.3548 -11.81
L21.7838 -11.5507
L22.217 -11.2988
L22.6545 -11.0545
L23.096 -10.8177
L23.5415 -10.5886
L23.9907 -10.3673
L24.4436 -10.1538
L24.9001 -9.94812
L25.3599 -9.7504
L25.8229 -9.56068
L26.2891 -9.37901
L26.7582 -9.20545
L27.2301 -9.04005
L27.7047 -8.88287
L28.1818 -8.73394
L28.6613 -8.59332
L29.1431 -8.46105
L29.6269 -8.33717
L30.1127 -8.22171
L30.6002 -8.11471
L31.0894 -8.01621
L31.5801 -7.92624
L32.0722 -7.84481
L32.5654 -7.77196
L33.0597 -7.70771
L33.5549 -7.65208
L34.0508 -7.60508
L34.5474 -7.56673
L35.0443 -7.53704
L35.5416 -7.51603
L36.039 -7.50369
L36.5364 -7.50003
L37.0336 -7.50505
L37.5305 -7.51875
L38.0269 -7.54113
L38.5228 -7.57217
L39.0178 -7.61188
L39.512 -7.66023
L40.005 -7.71721
L40.4969 -7.78281
L40.9874 -7.85701
L41.4763 -7.93977
L41.9636 -8.03109
L42.4491 -8.13092
L42.9326 -8.23925
L43.414 -8.35603
L43.8931 -8.48123
L44.3699 -8.61481
L44.8441 -8.75674
L45.3155 -8.90696
L45.7842 -9.06544
L46.2499 -9.23212
L46.7124 -9.40695
L47.1717 -9.58989
L47.6276 -9.78087
L48.0799 -9.97983
L48.5286 -10.1867
L48.9735 -10.4015
L49.4143 -10.624
L49.8512 -10.8543
L50.2837 -11.0923
L50.712 -11.3378
L51.1357 -11.5908
L51.5549 -11.8513
L51.9693 -12.1191
L52.3788 -12.3943
L52.7834 -12.6765
L53.1828 -12.966
L53.5771 -13.2624
L53.9659 -13.5657
L54.3493 -13.8759
L54.7271 -14.1928
L55.0992 -14.5164
L55.4654 -14.8465
L55.8258 -15.183
L56.1801 -15.5259
L56.5282 -15.875
L56.8701 -16.2303
L57.2057 -16.5916
L57.5348 -16.9588
L57.8573 -17.3318
L58.1732 -17.7104
L58.4823 -18.0947
L58.7846 -18.4844
L59.0799 -18.8794
L59.3682 -19.2797
L59.6493 -19.685
L59.9233 -20.0953
L60.19 -20.5105
L60.4493 -20.9304
L60.7012 -21.3548
L60.9455 -21.7838
L61.1823 -22.217
L61.4114 -22.6545
L61.6327 -23.096
L61.8462 -23.5415
L62.0519 -23.9907
L62.2496 -24.4436
L62.4393 -24.9001
L62.621 -25.3599
L62.7945 -25.8229
L62.9599 -26.2891
L63.1171 -26.7582
L63.2661 -27.2301
L63.4067 -27.7047
L63.5389 -28.1818
L63.6628 -28.6613
L63.7783 -29.1431
L63.8853 -29.6269
L63.9838 -30.1127
L64.0738 -30.6002
L64.1552 -31.0894
L64.228 -31.5801
L64.2923 -32.0722
L64.3479 -32.5654
L64.3949 -33.0597
L64.4333 -33.5549
L64.463 -34.0508
L64.484 -34.5474
L64.4963 -35.0443
L64.5 -35.5416
L64.495 -36.039
L64.4813 -36.5364
L64.4589 -37.0336
L64.4278 -37.5305
L64.3881 -38.0269
z
" id="C0_1_273e0629bc"/>
     <path d="
M53.5817 -58.2585
L53.2167 -58.2988
L52.8479 -58.3393
L52.4758 -58.3795
L52.1008 -58.4189
L51.7235 -58.4571
L51.3443 -58.4937
L50.9637 -58.5284
L50.5819 -58.5609
L50.1994 -58.591
L49.8165 -58.6183
L49.4335 -58.6428
L49.0508 -58.6642
L48.6686 -58.6825
L48.2872 -58.6976
L47.9067 -58.7093
L47.5275 -58.7176
L47.1497 -58.7225
L46.7734 -58.7239
L46.399 -58.7219
L46.0263 -58.7163
L45.6558 -58.7074
L45.2873 -58.6949
L44.9211 -58.6791
L44.5572 -58.6599
L44.1957 -58.6374
L43.8367 -58.6116
L43.4802 -58.5826
L43.1262 -58.5504
L42.7749 -58.5151
L42.4263 -58.4767
L42.0803 -58.4353
L41.7369 -58.391
L41.3963 -58.3438
L41.0583 -58.2938
L40.7231 -58.241
L40.3905 -58.1855
L40.0605 -58.1274
L39.7332 -58.0666
L39.4086 -58.0034
L39.0865 -57.9376
L38.767 -57.8694
L38.4501 -57.7988
L38.1356 -57.7259
L37.8236 -57.6507
L37.5141 -57.5732
L37.2069 -57.4935
L36.9021 -57.4117
L36.5996 -57.3277
L36.2993 -57.2416
L36.0012 -57.1534
L35.7053 -57.0632
L35.4116 -56.971
L35.1198 -56.8768
L34.8301 -56.7806
L34.5424 -56.6824
L34.2566 -56.5824
L33.9726 -56.4804
L33.6905 -56.3765
L33.4101 -56.2707
L33.1314 -56.163
L32.8544 -56.0535
L32.579 -55.942
L32.3052 -55.8288
L32.0329 -55.7136
L31.762 -55.5966
L31.4926 -55.4777
L31.2245 -55.3569
L30.9577 -55.2343
L30.6923 -55.1098
L30.428 -54.9833
L30.1649 -54.855
L29.9029 -54.7247
L29.642 -54.5925
L29.3822 -54.4584
L29.1233 -54.3223
L28.8655 -54.1842
L28.6085 -54.044
L28.3524 -53.9019
L28.0971 -53.7576
L27.8426 -53.6113
L27.5888 -53.4629
L27.3358 -53.3123
L27.0835 -53.1595
L26.8317 -53.0045
L26.5806 -52.8473
L26.3301 -52.6878
L26.0801 -52.526
L25.8307 -52.3618
L25.5817 -52.1952
L25.3331 -52.0262
L25.085 -51.8548
L24.8373 -51.6808
L24.59 -51.5042
L24.343 -51.3251
L24.0964 -51.1433
L23.85 -50.9588
L23.604 -50.7715
L23.3583 -50.5815
L23.1128 -50.3886
L22.8676 -50.1929
L22.6226 -49.9942
L22.3779 -49.7925
L22.1334 -49.5877
L21.8891 -49.3799
L21.6451 -49.169
L21.4013 -48.9548
L21.1577 -48.7375
L20.9144 -48.5168
L20.6713 -48.2929
L20.4285 -48.0655
L20.186 -47.8348
L19.9438 -47.6006
L19.7019 -47.3629
L19.4603 -47.1216
L19.2191 -46.8769
L18.9783 -46.6285
L18.7379 -46.3765
L18.4979 -46.1209
L18.2585 -45.8617
L18.0196 -45.5988
L17.7813 -45.3322
L17.5436 -45.062
L17.3066 -44.7882
L17.0704 -44.5108
L16.8349 -44.2298
L16.6003 -43.9452
L16.3665 -43.6572
L16.1337 -43.3658
L15.902 -43.071
L15.6713 -42.7731
L15.4417 -42.472
L15.2134 -42.1679
L14.9862 -41.861
L14.7604 -41.5515
L14.536 -41.2395
L14.3129 -40.9253
L14.0913 -40.6091
L13.8711 -40.2912
L13.6524 -39.9719
L13.4353 -39.6515
L13.2197 -39.3304
L13.0056 -39.009
L12.793 -38.6878
L12.5818 -38.3671
L12.3721 -38.0476
L12.1636 -37.7298
L11.9565 -37.4142
L11.7505 -37.1016
L11.5455 -36.7925
L11.3413 -36.4877
L11.1379 -36.1879
L10.9349 -35.8939
L10.7323 -35.6065
L10.5297 -35.3265
L10.327 -35.0547
L10.1239 -34.792
L9.9202 -34.5393
L9.71557 -34.2972
L9.50982 -34.0667
L9.30272 -33.8485
L9.09407 -33.6433
L8.8837 -33.4518
L8.67146 -33.2746
L8.45724 -33.1122
L8.24098 -32.965
L8.02267 -32.8334
L7.63795 -32.7176
L7.59339 -33.1992
L7.55749 -33.6946
L7.53024 -34.1907
L7.51167 -34.6874
L7.50178 -35.1845
L7.50056 -35.6818
L7.50803 -36.1792
L7.52418 -36.6766
L7.549 -37.1737
L7.58249 -37.6705
L7.62463 -38.1668
L7.67542 -38.6624
L7.73483 -39.1572
L7.80286 -39.6511
L7.87947 -40.1438
L7.96465 -40.6353
L8.05837 -41.1254
L8.1606 -41.6139
L8.27131 -42.1007
L8.39047 -42.5856
L8.51804 -43.0685
L8.65398 -43.5493
L8.79825 -44.0278
L8.9508 -44.5038
L9.1116 -44.9772
L9.28058 -45.448
L9.45771 -45.9158
L9.64291 -46.3806
L9.83615 -46.8422
L10.0374 -47.3006
L10.2465 -47.7555
L10.4634 -48.2068
L10.6882 -48.6544
L10.9206 -49.0981
L11.1607 -49.5379
L11.4084 -49.9735
L11.6635 -50.4049
L11.9261 -50.8319
L12.196 -51.2544
L12.4731 -51.6722
L12.7574 -52.0852
L13.0488 -52.4934
L13.3472 -52.8965
L13.6525 -53.2945
L13.9646 -53.6872
L14.2834 -54.0745
L14.6088 -54.4564
L14.9407 -54.8326
L15.279 -55.203
L15.6237 -55.5676
L15.9746 -55.9263
L16.3315 -56.2789
L16.6945 -56.6253
L17.0633 -56.9654
L17.4379 -57.2991
L17.8182 -57.6264
L18.204 -57.947
L18.5952 -58.261
L18.9917 -58.5682
L19.3934 -58.8685
L19.8002 -59.1619
L20.2119 -59.4482
L20.6284 -59.7273
L21.0496 -59.9992
L21.4753 -60.2639
L21.9055 -60.5211
L22.3399 -60.7708
L22.7786 -61.013
L23.2212 -61.2476
L23.6677 -61.4745
L24.118 -61.6937
L24.5719 -61.905
L25.0293 -62.1084
L25.4901 -62.3039
L25.954 -62.4913
L26.421 -62.6707
L26.8909 -62.842
L27.3636 -63.0051
L27.8389 -63.16
L28.3168 -63.3065
L28.7969 -63.4448
L29.2792 -63.5747
L29.7636 -63.6962
L30.2499 -63.8093
L30.738 -63.9139
L31.2276 -64.01
L31.7187 -64.0976
L32.2111 -64.1766
L32.7047 -64.247
L33.1992 -64.3088
L33.6946 -64.362
L34.1907 -64.4066
L34.6874 -64.4425
L35.1845 -64.4698
L35.6818 -64.4883
L36.1792 -64.4982
L36.6766 -64.4994
L37.1737 -64.492
L37.6705 -64.4758
L38.1668 -64.451
L38.6624 -64.4175
L39.1572 -64.3754
L39.6511 -64.3246
L40.1438 -64.2652
L40.6353 -64.1971
L41.1254 -64.1205
L41.6139 -64.0353
L42.1007 -63.9416
L42.5856 -63.8394
L43.0685 -63.7287
L43.5493 -63.6095
L44.0278 -63.482
L44.5038 -63.346
L44.9772 -63.2018
L45.448 -63.0492
L45.9158 -62.8884
L46.3806 -62.7194
L46.8422 -62.5423
L47.3006 -62.3571
L47.7555 -62.1638
L48.2068 -61.9626
L48.6544 -61.7535
L49.0981 -61.5366
L49.5379 -61.3118
L49.9735 -61.0794
L50.4049 -60.8393
L50.8319 -60.5916
L51.2544 -60.3365
L51.6722 -60.0739
L52.0852 -59.804
L52.4934 -59.5269
L52.8965 -59.2426
z
" id="C0_2_6f37e91086"/>
    </defs>
    <g clip-path="url(#p1bffca34e9)">
     <use style="fill:#ff0000;stroke:#000000;stroke-width:2.0;" x="0.0" xlink:href="#C0_0_a811fe30f3" y="72.0"/>
    </g>
    <g clip-path="url(#p1bffca34e9)">
     <use style="fill:#ffffff;stroke:#000000;stroke-width:2.0;" x="0.0" xlink:href="#C0_1_273e0629bc" y="72.0"/>
    </g>
    <g clip-path="url(#p1bffca34e9)">
     <use style="fill:#ffffff;stroke:#000000;stroke-width:2.0;" x="0.0" xlink:href="#C0_2_6f37e91086" y="72.0"/>
    </g>
   </g>
  </g>
 </g>
 <defs>
  <clipPath id="p1bffca34e9">
   <rect height="72.0" width="72.0" x="0.0" y="0.0"/>
  </clipPath>
 </defs>
</svg>
