<?xml version="1.0" encoding="utf-8" standalone="no"?>
<!DOCTYPE svg PUBLIC "-//W3C//DTD SVG 1.1//EN"
  "http://www.w3.org/Graphics/SVG/1.1/DTD/svg11.dtd">
<!-- Created with matplotlib (http://matplotlib.org/) -->
<svg height="72pt" version="1.1" viewBox="0 0 72 72" width="72pt" xmlns="http://www.w3.org/2000/svg" xmlns:xlink="http://www.w3.org/1999/xlink">
 <defs>
  <style type="text/css">
*{stroke-linecap:butt;stroke-linejoin:round;}
  </style>
 </defs>
 <g id="figure_1">
  <g id="patch_1">
   <path d="
M0 72
L72 72
L72 0
L0 0
z
" style="fill:none;"/>
  </g>
  <g id="axes_1">
   <g id="PatchCollection_1">
    <defs>
     <path d="
M36 -7.5
C43.5583 -7.5 50.808 -10.5029 56.1525 -15.8475
C61.4971 -21.192 64.5 -28.4417 64.5 -36
C64.5 -43.5583 61.4971 -50.808 56.1525 -56.1525
C50.808 -61.4971 43.5583 -64.5 36 -64.5
C28.4417 -64.5 21.192 -61.4971 15.8475 -56.1525
C10.5029 -50.808 7.5 -43.5583 7.5 -36
C7.5 -28.4417 10.5029 -21.192 15.8475 -15.8475
C21.192 -10.5029 28.4417 -7.5 36 -7.5
z
" id="C0_0_a811fe30f3"/>
     <path d="
M24.88 -61.9819
L24.9434 -61.7477
L24.9877 -61.5034
L25.0138 -61.2496
L25.0227 -60.9866
L25.0155 -60.7151
L24.9935 -60.4354
L24.9578 -60.148
L24.9098 -59.8536
L24.8507 -59.5524
L24.7818 -59.2452
L24.7043 -58.9323
L24.6194 -58.6142
L24.528 -58.2914
L24.4314 -57.9642
L24.3303 -57.6333
L24.2257 -57.2989
L24.1184 -56.9614
L24.0091 -56.6213
L23.8984 -56.2789
L23.787 -55.9345
L23.6753 -55.5885
L23.5639 -55.2412
L23.4531 -54.8928
L23.3433 -54.5437
L23.2347 -54.1941
L23.1278 -53.8441
L23.0227 -53.4942
L22.9196 -53.1444
L22.8188 -52.7949
L22.7202 -52.446
L22.6242 -52.0978
L22.5307 -51.7505
L22.4398 -51.4041
L22.3516 -51.0589
L22.2662 -50.7149
L22.1836 -50.3722
L22.1038 -50.0309
L22.0267 -49.6912
L21.9525 -49.353
L21.8811 -49.0165
L21.8125 -48.6817
L21.7467 -48.3486
L21.6836 -48.0173
L21.6232 -47.6878
L21.5655 -47.3602
L21.5105 -47.0344
L21.4581 -46.7105
L21.4082 -46.3885
L21.3609 -46.0684
L21.3161 -45.7501
L21.2737 -45.4337
L21.2337 -45.1192
L21.1961 -44.8065
L21.1608 -44.4956
L21.1278 -44.1866
L21.097 -43.8793
L21.0684 -43.5738
L21.042 -43.2699
L21.0176 -42.9678
L20.9954 -42.6673
L20.9752 -42.3684
L20.9569 -42.0711
L20.9407 -41.7754
L20.9264 -41.4811
L20.9139 -41.1883
L20.9034 -40.8968
L20.8947 -40.6067
L20.8878 -40.318
L20.8827 -40.0304
L20.8793 -39.7441
L20.8777 -39.459
L20.8778 -39.1749
L20.8796 -38.892
L20.8831 -38.61
L20.8882 -38.329
L20.895 -38.0489
L20.9034 -37.7696
L20.9134 -37.4912
L20.9251 -37.2134
L20.9383 -36.9364
L20.9531 -36.6601
L20.9695 -36.3843
L20.9875 -36.109
L21.007 -35.8342
L21.0281 -35.5599
L21.0508 -35.2859
L21.075 -35.0123
L21.1282 -34.7389
L21.1572 -34.4658
L21.1877 -34.1928
L21.2199 -33.9199
L21.2536 -33.647
L21.289 -33.3742
L21.3259 -33.1013
L21.3645 -32.8284
L21.4048 -32.5552
L21.4467 -32.2819
L21.4903 -32.0083
L21.5356 -31.7345
L21.5827 -31.4602
L21.6314 -31.1856
L21.682 -30.9105
L21.7343 -30.6349
L21.7885 -30.3587
L21.8445 -30.082
L21.9024 -29.8046
L21.9622 -29.5265
L22.0239 -29.2477
L22.0876 -28.9681
L22.1533 -28.6877
L22.2211 -28.4064
L22.2909 -28.1242
L22.3629 -27.8411
L22.437 -27.557
L22.5132 -27.2718
L22.5918 -26.9856
L22.6726 -26.6982
L22.7557 -26.4098
L22.8412 -26.1202
L22.9291 -25.8294
L23.0195 -25.5374
L23.1124 -25.2441
L23.2078 -24.9496
L23.3058 -24.6538
L23.4065 -24.3567
L23.5098 -24.0582
L23.6159 -23.7585
L23.7248 -23.4574
L23.8364 -23.155
L23.951 -22.8513
L24.0684 -22.5462
L24.1888 -22.2398
L24.3122 -21.9322
L24.4385 -21.6232
L24.5679 -21.313
L24.7004 -21.0016
L24.8359 -20.689
L24.9745 -20.3752
L25.1162 -20.0603
L25.261 -19.7444
L25.4088 -19.4276
L25.5596 -19.1098
L25.7135 -18.7912
L25.8703 -18.4719
L26.0299 -18.1519
L26.1924 -17.8314
L26.3575 -17.5104
L26.5252 -17.1892
L26.6953 -16.8677
L26.8676 -16.5463
L27.0419 -16.2249
L27.2181 -15.9037
L27.3957 -15.583
L27.5744 -15.2629
L27.7541 -14.9435
L27.9341 -14.6251
L28.114 -14.3079
L28.2934 -13.9919
L28.4717 -13.6776
L28.6481 -13.365
L28.8221 -13.0543
L28.9927 -12.7459
L29.1592 -12.4399
L29.3206 -12.1365
L29.4759 -11.8361
L29.624 -11.5387
L29.7638 -11.2446
L29.894 -10.9541
L30.0133 -10.6674
L30.1204 -10.3847
L30.214 -10.1062
L30.2926 -9.83223
L30.3551 -9.56292
L30.4001 -9.29854
L30.4264 -9.03931
L30.4328 -8.7855
L30.4186 -8.53734
L30.3828 -8.2951
L29.896 -8.05905
L29.4111 -8.16134
L28.9281 -8.27211
L28.4474 -8.39133
L27.9689 -8.51895
L27.4929 -8.65495
L27.0195 -8.79928
L26.5488 -8.95189
L26.081 -9.11274
L25.6162 -9.28178
L25.1546 -9.45896
L24.6963 -9.64423
L24.2414 -9.83752
L23.7901 -10.0388
L23.3425 -10.248
L22.8988 -10.465
L22.4591 -10.6898
L22.0235 -10.9223
L21.5921 -11.1624
L21.1652 -11.4101
L20.7427 -11.6653
L20.3249 -11.9279
L19.9119 -12.1979
L19.5038 -12.4751
L19.1007 -12.7594
L18.7028 -13.0508
L18.3101 -13.3493
L17.9228 -13.6546
L17.541 -13.9667
L17.1649 -14.2856
L16.7944 -14.611
L16.4299 -14.943
L16.0713 -15.2814
L15.7187 -15.6261
L15.3724 -15.977
L15.0323 -16.334
L14.6986 -16.697
L14.3714 -17.0659
L14.0508 -17.4406
L13.7368 -17.8208
L13.4297 -18.2067
L13.1294 -18.5979
L12.8361 -18.9945
L12.5499 -19.3962
L12.2708 -19.803
L11.9989 -20.2148
L11.7343 -20.6313
L11.4772 -21.0525
L11.2275 -21.4783
L10.9853 -21.9085
L10.7508 -22.343
L10.5239 -22.7816
L10.3048 -23.2243
L10.0936 -23.6708
L9.8902 -24.1212
L9.69478 -24.5751
L9.50738 -25.0325
L9.32805 -25.4933
L9.15684 -25.9572
L8.99381 -26.4243
L8.839 -26.8942
L8.69247 -27.3669
L8.55426 -27.8422
L8.42441 -28.3201
L8.30295 -28.8002
L8.18994 -29.2826
L8.08539 -29.767
L7.98935 -30.2533
L7.90184 -30.7414
L7.82289 -31.231
L7.75252 -31.7221
L7.69076 -32.2145
L7.63762 -32.7081
L7.59312 -33.2027
L7.55727 -33.6981
L7.53008 -34.1942
L7.51157 -34.6909
L7.50174 -35.1879
L7.50059 -35.6852
L7.50811 -36.1827
L7.52432 -36.68
L7.5492 -37.1772
L7.58275 -37.6739
L7.62495 -38.1702
L7.6758 -38.6658
L7.73528 -39.1607
L7.80336 -39.6545
L7.88003 -40.1472
L7.96527 -40.6387
L8.05905 -41.1287
L8.16134 -41.6172
L8.27211 -42.104
L8.39133 -42.5889
L8.51895 -43.0719
L8.65495 -43.5526
L8.79928 -44.0311
L8.95189 -44.5071
L9.11274 -44.9805
L9.28178 -45.4512
L9.45896 -45.919
L9.64423 -46.3838
L9.83752 -46.8454
L10.0388 -47.3037
L10.248 -47.7586
L10.465 -48.2099
L10.6898 -48.6575
L10.9223 -49.1012
L11.1624 -49.5409
L11.4101 -49.9765
L11.6653 -50.4079
L11.9279 -50.8348
L12.1979 -51.2573
L12.4751 -51.6751
L12.7594 -52.0881
L13.0508 -52.4962
L13.3493 -52.8993
L13.6546 -53.2972
L13.9667 -53.6899
L14.2856 -54.0772
L14.611 -54.459
L14.943 -54.8351
L15.2814 -55.2056
L15.6261 -55.5701
L15.977 -55.9287
L16.334 -56.2813
L16.697 -56.6276
L17.0659 -56.9677
L17.4406 -57.3014
L17.8208 -57.6286
L18.2067 -57.9492
L18.5979 -58.2632
L18.9945 -58.5703
L19.3962 -58.8706
L19.803 -59.1639
L20.2148 -59.4501
L20.6313 -59.7292
L21.0525 -60.0011
L21.4783 -60.2657
L21.9085 -60.5228
L22.343 -60.7725
L22.7816 -61.0147
L23.2243 -61.2492
L23.6708 -61.4761
L24.1212 -61.6952
z
" id="C0_1_04f70fa9cc"/>
     <path d="
M41.5814 -63.7049
L41.5672 -63.4627
L41.5736 -63.2145
L41.5999 -62.9607
L41.6449 -62.7015
L41.7074 -62.4371
L41.786 -62.1678
L41.8796 -61.8938
L41.9867 -61.6153
L42.106 -61.3326
L42.2362 -61.0459
L42.376 -60.7554
L42.5241 -60.4613
L42.6794 -60.1639
L42.8408 -59.8635
L43.0073 -59.5601
L43.1779 -59.2541
L43.3519 -58.9457
L43.5283 -58.635
L43.7066 -58.3224
L43.886 -58.0081
L44.0659 -57.6921
L44.2459 -57.3749
L44.4256 -57.0565
L44.6043 -56.7371
L44.7819 -56.417
L44.9581 -56.0963
L45.1324 -55.7751
L45.3047 -55.4537
L45.4748 -55.1323
L45.6425 -54.8108
L45.8076 -54.4896
L45.9701 -54.1686
L46.1297 -53.8481
L46.2865 -53.5281
L46.4404 -53.2088
L46.5912 -52.8902
L46.739 -52.5724
L46.8838 -52.2556
L47.0255 -51.9397
L47.1641 -51.6248
L47.2996 -51.311
L47.4321 -50.9984
L47.5615 -50.687
L47.6878 -50.3768
L47.8112 -50.0678
L47.9316 -49.7602
L48.049 -49.4538
L48.1636 -49.1487
L48.2752 -48.845
L48.3841 -48.5426
L48.4902 -48.2415
L48.5935 -47.9418
L48.6942 -47.6433
L48.7922 -47.3462
L48.8876 -47.0504
L48.9805 -46.7559
L49.0709 -46.4626
L49.1588 -46.1706
L49.2443 -45.8798
L49.3274 -45.5902
L49.4082 -45.3018
L49.4868 -45.0144
L49.563 -44.7282
L49.6371 -44.443
L49.7091 -44.1589
L49.7789 -43.8758
L49.8467 -43.5936
L49.9124 -43.3123
L49.9761 -43.0319
L50.0378 -42.7523
L50.0976 -42.4735
L50.1555 -42.1954
L50.2115 -41.918
L50.2657 -41.6413
L50.318 -41.3651
L50.3686 -41.0895
L50.4173 -40.8144
L50.4644 -40.5398
L50.5097 -40.2655
L50.5533 -39.9917
L50.5952 -39.7181
L50.6355 -39.4448
L50.6741 -39.1716
L50.711 -38.8987
L50.7464 -38.6258
L50.7801 -38.353
L50.8123 -38.0801
L50.8428 -37.8072
L50.8718 -37.5342
L50.8992 -37.2611
L50.925 -36.9877
L50.9492 -36.7141
L50.9719 -36.4401
L50.993 -36.1658
L51.0125 -35.891
L51.0305 -35.6157
L51.0469 -35.3399
L51.0617 -35.0636
L51.0749 -34.7866
L51.0866 -34.5088
L51.0966 -34.2304
L51.105 -33.9511
L51.1118 -33.671
L51.1169 -33.39
L51.1204 -33.108
L51.1222 -32.8251
L51.1223 -32.541
L51.1207 -32.2559
L51.1173 -31.9696
L51.1122 -31.682
L51.1053 -31.3933
L51.0966 -31.1032
L51.0861 -30.8117
L51.0736 -30.5189
L51.0593 -30.2246
L51.0431 -29.9289
L51.0248 -29.6316
L51.0046 -29.3327
L50.9824 -29.0322
L50.958 -28.7301
L50.9316 -28.4262
L50.903 -28.1207
L50.8722 -27.8134
L50.8392 -27.5044
L50.8039 -27.1935
L50.7663 -26.8808
L50.7263 -26.5663
L50.6839 -26.2499
L50.6391 -25.9316
L50.5918 -25.6115
L50.5419 -25.2895
L50.4895 -24.9656
L50.4345 -24.6398
L50.3768 -24.3122
L50.3164 -23.9827
L50.2533 -23.6514
L50.1875 -23.3183
L50.1189 -22.9835
L50.0475 -22.647
L49.9733 -22.3088
L49.8962 -21.9691
L49.8164 -21.6278
L49.7338 -21.2851
L49.6484 -20.9411
L49.5602 -20.5959
L49.4693 -20.2495
L49.3758 -19.9022
L49.2798 -19.554
L49.1812 -19.2051
L49.0804 -18.8556
L48.9773 -18.5058
L48.8722 -18.1559
L48.7653 -17.8059
L48.6567 -17.4563
L48.5469 -17.1072
L48.4361 -16.7588
L48.3247 -16.4115
L48.213 -16.0655
L48.1016 -15.7211
L47.9909 -15.3787
L47.8816 -15.0386
L47.7743 -14.7011
L47.6697 -14.3667
L47.5686 -14.0358
L47.472 -13.7086
L47.3806 -13.3858
L47.2957 -13.0677
L47.2182 -12.7548
L47.1493 -12.4476
L47.0902 -12.1464
L47.0422 -11.852
L47.0065 -11.5646
L46.9845 -11.2849
L46.9773 -11.0134
L46.9862 -10.7504
L47.0123 -10.4966
L47.0566 -10.2523
L47.12 -10.0181
L47.6589 -9.79434
L48.111 -9.99386
L48.5594 -10.2013
L49.004 -10.4166
L49.4446 -10.6397
L49.8811 -10.8705
L50.3134 -11.109
L50.7414 -11.355
L51.1648 -11.6086
L51.5836 -11.8696
L51.9977 -12.1379
L52.4069 -12.4135
L52.8111 -12.6963
L53.2102 -12.9862
L53.6041 -13.2831
L53.9925 -13.5869
L54.3755 -13.8976
L54.753 -14.2149
L55.1246 -14.5389
L55.4905 -14.8695
L55.8504 -15.2065
L56.2043 -15.5498
L56.552 -15.8994
L56.8935 -16.255
L57.2286 -16.6167
L57.5572 -16.9843
L57.8793 -17.3577
L58.1947 -17.7368
L58.5034 -18.1214
L58.8052 -18.5115
L59.1 -18.9069
L59.3878 -19.3075
L59.6685 -19.7132
L59.942 -20.1238
L60.2081 -20.5393
L60.4669 -20.9595
L60.7183 -21.3843
L60.9621 -21.8135
L61.1983 -22.2471
L61.4269 -22.6848
L61.6477 -23.1266
L61.8607 -23.5724
L62.0658 -24.0219
L62.2629 -24.475
L62.4521 -24.9317
L62.6332 -25.3917
L62.8062 -25.855
L62.9711 -26.3213
L63.1277 -26.7907
L63.276 -27.2628
L63.4161 -27.7375
L63.5478 -28.2148
L63.6711 -28.6945
L63.7859 -29.1764
L63.8924 -29.6603
L63.9903 -30.1462
L64.0797 -30.6339
L64.1605 -31.1232
L64.2327 -31.614
L64.2964 -32.1062
L64.3514 -32.5995
L64.3978 -33.0939
L64.4356 -33.5891
L64.4647 -34.0851
L64.4851 -34.5816
L64.4968 -35.0786
L64.4999 -35.5759
L64.4943 -36.0733
L64.48 -36.5707
L64.457 -37.0679
L64.4254 -37.5648
L64.3851 -38.0612
L64.3361 -38.557
L64.2785 -39.052
L64.2123 -39.546
L64.1376 -40.039
L64.0542 -40.5308
L63.9623 -41.0212
L63.8619 -41.51
L63.753 -41.9972
L63.6356 -42.4825
L63.5098 -42.9659
L63.3757 -43.4471
L63.2332 -43.9261
L63.0824 -44.4027
L62.9233 -44.8767
L62.7561 -45.348
L62.5807 -45.8164
L62.3972 -46.2819
L62.2057 -46.7442
L62.0061 -47.2033
L61.7987 -47.6589
L61.5834 -48.111
L61.3603 -48.5594
L61.1295 -49.004
L60.891 -49.4446
L60.645 -49.8811
L60.3914 -50.3134
L60.1304 -50.7414
L59.8621 -51.1648
L59.5865 -51.5836
L59.3037 -51.9977
L59.0138 -52.4069
L58.7169 -52.8111
L58.4131 -53.2102
L58.1024 -53.6041
L57.7851 -53.9925
L57.4611 -54.3755
L57.1305 -54.753
L56.7935 -55.1246
L56.4502 -55.4905
L56.1006 -55.8504
L55.745 -56.2043
L55.3833 -56.552
L55.0157 -56.8935
L54.6423 -57.2286
L54.2632 -57.5572
L53.8786 -57.8793
L53.4885 -58.1947
L53.0931 -58.5034
L52.6925 -58.8052
L52.2868 -59.1
L51.8762 -59.3878
L51.4607 -59.6685
L51.0405 -59.942
L50.6157 -60.2081
L50.1865 -60.4669
L49.7529 -60.7183
L49.3152 -60.9621
L48.8734 -61.1983
L48.4276 -61.4269
L47.9781 -61.6477
L47.525 -61.8607
L47.0683 -62.0658
L46.6083 -62.2629
L46.145 -62.4521
L45.6787 -62.6332
L45.2093 -62.8062
L44.7372 -62.9711
L44.2625 -63.1277
L43.7852 -63.276
L43.3055 -63.4161
L42.8236 -63.5478
L42.3397 -63.6711
z
" id="C0_2_1490a06da5"/>
    </defs>
    <g clip-path="url(#p1bffca34e9)">
     <use style="fill:#ffffff;stroke:#000000;stroke-width:2.0;" x="0.0" xlink:href="#C0_0_a811fe30f3" y="72.0"/>
    </g>
    <g clip-path="url(#p1bffca34e9)">
     <use style="fill:#ff0000;stroke:#000000;stroke-width:2.0;" x="0.0" xlink:href="#C0_1_04f70fa9cc" y="72.0"/>
    </g>
    <g clip-path="url(#p1bffca34e9)">
     <use style="fill:#ff0000;stroke:#000000;stroke-width:2.0;" x="0.0" xlink:href="#C0_2_1490a06da5" y="72.0"/>
    </g>
   </g>
  </g>
 </g>
 <defs>
  <clipPath id="p1bffca34e9">
   <rect height="72.0" width="72.0" x="0.0" y="0.0"/>
  </clipPath>
 </defs>
</svg>
