<?xml version="1.0" encoding="utf-8" standalone="no"?>
<!DOCTYPE svg PUBLIC "-//W3C//DTD SVG 1.1//EN"
  "http://www.w3.org/Graphics/SVG/1.1/DTD/svg11.dtd">
<!-- Created with matplotlib (http://matplotlib.org/) -->
<svg height="72pt" version="1.1" viewBox="0 0 72 72" width="72pt" xmlns="http://www.w3.org/2000/svg" xmlns:xlink="http://www.w3.org/1999/xlink">
 <defs>
  <style type="text/css">
*{stroke-linecap:butt;stroke-linejoin:round;}
  </style>
 </defs>
 <g id="figure_1">
  <g id="patch_1">
   <path d="
M0 72
L72 72
L72 0
L0 0
z
" style="fill:none;"/>
  </g>
  <g id="axes_1">
   <g id="PatchCollection_1">
    <defs>
     <path d="
M36 -7.5
C43.5583 -7.5 50.808 -10.5029 56.1525 -15.8475
C61.4971 -21.192 64.5 -28.4417 64.5 -36
C64.5 -43.5583 61.4971 -50.808 56.1525 -56.1525
C50.808 -61.4971 43.5583 -64.5 36 -64.5
C28.4417 -64.5 21.192 -61.4971 15.8475 -56.1525
C10.5029 -50.808 7.5 -43.5583 7.5 -36
C7.5 -28.4417 10.5029 -21.192 15.8475 -15.8475
C21.192 -10.5029 28.4417 -7.5 36 -7.5
z
" id="C0_0_a811fe30f3"/>
     <path d="
M13.2844 -18.8372
L13.3196 -19.1386
L13.3725 -19.4278
L13.4429 -19.7046
L13.5302 -19.9689
L13.634 -20.2207
L13.7535 -20.4602
L13.8883 -20.6874
L14.0376 -20.9028
L14.2008 -21.1068
L14.377 -21.2997
L14.5655 -21.4822
L14.7656 -21.6548
L14.9765 -21.818
L15.1974 -21.9725
L15.4276 -22.1188
L15.6663 -22.2576
L15.913 -22.3895
L16.1668 -22.515
L16.4272 -22.6347
L16.6935 -22.7491
L16.9651 -22.8586
L17.2415 -22.9638
L17.5222 -23.0651
L17.8067 -23.1629
L18.0945 -23.2574
L18.3852 -23.3491
L18.6784 -23.4383
L18.9738 -23.5252
L19.2709 -23.6102
L19.5695 -23.6933
L19.8692 -23.7749
L20.1698 -23.8551
L20.4711 -23.9341
L20.7728 -24.012
L21.0747 -24.089
L21.3765 -24.1651
L21.6782 -24.2406
L21.9796 -24.3155
L22.2805 -24.3898
L22.5807 -24.4637
L22.8802 -24.5372
L23.1789 -24.6104
L23.4766 -24.6833
L23.7733 -24.7561
L24.0688 -24.8286
L24.3633 -24.901
L24.6564 -24.9733
L24.9483 -25.0455
L25.2389 -25.1177
L25.5281 -25.1899
L25.816 -25.262
L26.1024 -25.3342
L26.3874 -25.4064
L26.671 -25.4786
L26.9532 -25.5509
L27.2339 -25.6233
L27.5132 -25.6958
L27.791 -25.7683
L28.0674 -25.841
L28.3425 -25.9138
L28.6161 -25.9867
L28.8884 -26.0598
L29.1593 -26.133
L29.4289 -26.2064
L29.6972 -26.2799
L29.9642 -26.3536
L30.23 -26.4274
L30.4946 -26.5015
L30.758 -26.5758
L31.0203 -26.6502
L31.2815 -26.7249
L31.5416 -26.7998
L31.8007 -26.8749
L32.0588 -26.9503
L32.316 -27.0259
L32.5723 -27.1018
L32.8277 -27.178
L33.0823 -27.2544
L33.3361 -27.3312
L33.5892 -27.4082
L33.8416 -27.4856
L34.0933 -27.5633
L34.3445 -27.6413
L34.5951 -27.7197
L34.8452 -27.7984
L35.0948 -27.8775
L35.344 -27.957
L35.5928 -28.0369
L35.8413 -28.1173
L36.0896 -28.198
L36.3376 -28.2792
L36.8331 -28.3609
L37.0806 -28.443
L37.3282 -28.5257
L37.5757 -28.6088
L37.8232 -28.6924
L38.0709 -28.7766
L38.3187 -28.8614
L38.5667 -28.9467
L38.8149 -29.0326
L39.0633 -29.1191
L39.3121 -29.2062
L39.5612 -29.2939
L39.8108 -29.3823
L40.0608 -29.4714
L40.3113 -29.5612
L40.5623 -29.6516
L40.8139 -29.7428
L41.0662 -29.8347
L41.3191 -29.9274
L41.5727 -30.0209
L41.8271 -30.1151
L42.0822 -30.2102
L42.3382 -30.3061
L42.595 -30.4028
L42.8528 -30.5004
L43.1115 -30.5988
L43.3712 -30.6982
L43.6319 -30.7984
L43.8936 -30.8996
L44.1564 -31.0017
L44.4204 -31.1048
L44.6854 -31.2088
L44.9517 -31.3137
L45.2191 -31.4197
L45.4878 -31.5266
L45.7577 -31.6345
L46.0289 -31.7434
L46.3014 -31.8533
L46.5752 -31.9642
L46.8503 -32.076
L47.1267 -32.1889
L47.4044 -32.3027
L47.6835 -32.4175
L47.964 -32.5332
L48.2457 -32.6499
L48.5288 -32.7674
L48.8133 -32.8858
L49.099 -33.0051
L49.3861 -33.1251
L49.6744 -33.2459
L49.9639 -33.3673
L50.2547 -33.4893
L50.5467 -33.6119
L50.8398 -33.735
L51.134 -33.8584
L51.4292 -33.982
L51.7254 -34.1058
L52.0225 -34.2296
L52.3205 -34.3533
L52.6192 -34.4766
L52.9186 -34.5994
L53.2186 -34.7215
L53.5191 -34.8427
L53.82 -34.9628
L54.1212 -35.0814
L54.4225 -35.1983
L54.7239 -35.3131
L55.0251 -35.4255
L55.3262 -35.5351
L55.6269 -35.6415
L55.927 -35.7442
L56.2265 -35.8427
L56.5251 -35.9366
L56.8227 -36.0252
L57.119 -36.1079
L57.414 -36.1841
L57.7074 -36.2531
L57.999 -36.3141
L58.2886 -36.3664
L58.5759 -36.4093
L58.8608 -36.4417
L59.1429 -36.463
L59.4221 -36.4723
L59.6981 -36.4686
L59.9705 -36.4512
L60.2392 -36.4193
L60.5037 -36.372
L60.7638 -36.3086
L61.0191 -36.2284
L61.2694 -36.1309
L61.5141 -36.0156
L61.7531 -35.8821
L61.9858 -35.7301
L62.212 -35.5595
L62.4312 -35.3702
L62.6431 -35.1624
L62.8473 -34.9362
L63.0434 -34.692
L63.2312 -34.4302
L63.4101 -34.1514
L63.58 -33.8562
L63.7405 -33.5451
L63.8913 -33.219
L64.0321 -32.8785
L64.1628 -32.5246
L64.1669 -32.1579
L64.0868 -31.6554
L63.9981 -31.1645
L63.9009 -30.675
L63.7952 -30.1872
L63.6811 -29.7011
L63.5585 -29.217
L63.4275 -28.7349
L63.2881 -28.2551
L63.1405 -27.7776
L62.9845 -27.3026
L62.8204 -26.8303
L62.6481 -26.3607
L62.4677 -25.8941
L62.2792 -25.4306
L62.0827 -24.9702
L61.8782 -24.5133
L61.6659 -24.0598
L61.4458 -23.61
L61.2179 -23.164
L60.9823 -22.7218
L60.7391 -22.2837
L60.4884 -21.8498
L60.2302 -21.4202
L59.9646 -20.9951
L59.6918 -20.5745
L59.4117 -20.1586
L59.1245 -19.7475
L58.8302 -19.3414
L58.529 -18.9404
L58.2209 -18.5445
L57.9061 -18.154
L57.5846 -17.7689
L57.2565 -17.3894
L56.9219 -17.0155
L56.581 -16.6474
L56.2338 -16.2852
L55.8804 -15.929
L55.521 -15.579
L55.1556 -15.2351
L54.7844 -14.8976
L54.4075 -14.5665
L54.025 -14.2419
L53.6369 -13.924
L53.2435 -13.6128
L52.8449 -13.3084
L52.4411 -13.0109
L52.0323 -12.7204
L51.6187 -12.437
L51.2002 -12.1608
L50.7772 -11.8918
L50.3496 -11.6302
L49.9177 -11.376
L49.4815 -11.1294
L49.0412 -10.8903
L48.597 -10.6588
L48.1489 -10.4351
L47.6971 -10.2191
L47.2417 -10.011
L46.783 -9.81082
L46.3209 -9.61861
L45.8557 -9.43444
L45.3875 -9.25836
L44.9164 -9.09043
L44.4426 -8.93069
L43.9663 -8.7792
L43.4875 -8.636
L43.0064 -8.50114
L42.5232 -8.37465
L42.0381 -8.25658
L41.551 -8.14696
L41.0623 -8.04582
L40.5721 -7.9532
L40.0804 -7.86912
L39.5875 -7.79362
L39.0936 -7.7267
L38.5986 -7.66839
L38.1029 -7.61872
L37.6065 -7.57769
L37.1097 -7.54532
L36.6125 -7.52161
L36.1151 -7.50658
L35.6177 -7.50023
L35.1204 -7.50256
L34.6234 -7.51358
L34.1268 -7.53326
L33.6308 -7.56162
L33.1355 -7.59865
L32.641 -7.64432
L32.1476 -7.69863
L31.6554 -7.76157
L31.1645 -7.8331
L30.675 -7.91321
L30.1872 -8.00188
L29.7011 -8.09908
L29.217 -8.20478
L28.7349 -8.31894
L28.2551 -8.44154
L27.7776 -8.57253
L27.3026 -8.71187
L26.8303 -8.85953
L26.3607 -9.01545
L25.8941 -9.1796
L25.4306 -9.35191
L24.9702 -9.53234
L24.5133 -9.72084
L24.0598 -9.91733
L23.61 -10.1218
L23.164 -10.3341
L22.7218 -10.5542
L22.2837 -10.7821
L21.8498 -11.0177
L21.4202 -11.2609
L20.9951 -11.5116
L20.5745 -11.7698
L20.1586 -12.0354
L19.7475 -12.3082
L19.3414 -12.5883
L18.9404 -12.8755
L18.5445 -13.1698
L18.154 -13.471
L17.7689 -13.7791
L17.3894 -14.0939
L17.0155 -14.4154
L16.6474 -14.7435
L16.2852 -15.0781
L15.929 -15.419
L15.579 -15.7662
L15.2351 -16.1196
L14.8976 -16.479
L14.5665 -16.8444
L14.2419 -17.2156
L13.924 -17.5925
L13.6128 -17.975
z
" id="C0_1_3200bb8bb7"/>
     <path d="
M7.90768 -40.1921
L8.13212 -40.5249
L8.35952 -40.8602
L8.58993 -41.1973
L8.82337 -41.5354
L9.05983 -41.8738
L9.2993 -42.212
L9.54172 -42.5493
L9.78704 -42.8853
L10.0352 -43.2194
L10.2861 -43.5512
L10.5396 -43.8804
L10.7957 -44.2066
L11.0541 -44.5295
L11.315 -44.8488
L11.5779 -45.1642
L11.843 -45.4757
L12.11 -45.7829
L12.3789 -46.0858
L12.6494 -46.3842
L12.9215 -46.678
L13.1951 -46.9671
L13.47 -47.2515
L13.7461 -47.5311
L14.0234 -47.8058
L14.3017 -48.0757
L14.5809 -48.3407
L14.8609 -48.6008
L15.1417 -48.8561
L15.4232 -49.1065
L15.7052 -49.3521
L15.9877 -49.593
L16.2707 -49.8291
L16.554 -50.0605
L16.8376 -50.2873
L17.1215 -50.5095
L17.4056 -50.7272
L17.6899 -50.9404
L17.9743 -51.1492
L18.2588 -51.3537
L18.5433 -51.5539
L18.8279 -51.7499
L19.1125 -51.9418
L19.3971 -52.1296
L19.6817 -52.3134
L19.9663 -52.4932
L20.2508 -52.6692
L20.5353 -52.8415
L20.8197 -53.0099
L21.1041 -53.1748
L21.3885 -53.336
L21.6728 -53.4937
L21.9571 -53.6479
L22.2414 -53.7987
L22.5257 -53.9462
L22.8101 -54.0903
L23.0945 -54.2312
L23.3789 -54.369
L23.6635 -54.5036
L23.9481 -54.6351
L24.2329 -54.7636
L24.5179 -54.8891
L24.803 -55.0117
L25.0884 -55.1313
L25.3741 -55.2482
L25.6601 -55.3622
L25.9463 -55.4734
L26.233 -55.5819
L26.52 -55.6876
L26.8075 -55.7907
L27.0955 -55.8911
L27.384 -55.989
L27.6731 -56.0842
L27.9628 -56.1768
L28.2531 -56.2669
L28.5441 -56.3544
L28.8359 -56.4395
L29.1284 -56.522
L29.4218 -56.602
L29.7161 -56.6796
L30.0112 -56.7546
L30.3074 -56.8272
L30.6045 -56.8974
L30.9027 -56.965
L31.2021 -57.0302
L31.5026 -57.093
L31.8043 -57.1532
L32.1072 -57.211
L32.4115 -57.2663
L32.7171 -57.3191
L33.0242 -57.3694
L33.3327 -57.4171
L33.6427 -57.4623
L33.9542 -57.505
L34.2674 -57.545
L34.5822 -57.5824
L34.8987 -57.6171
L35.2169 -57.6492
L35.5369 -57.6786
L35.8588 -57.7052
L36.1825 -57.7291
L36.5082 -57.7501
L36.8358 -57.7682
L37.1654 -57.7835
L37.497 -57.7958
L37.8308 -57.8051
L38.1666 -57.8113
L38.5045 -57.8144
L38.8447 -57.8144
L39.187 -57.8112
L39.5315 -57.8047
L39.8783 -57.7949
L40.2273 -57.7817
L40.5786 -57.765
L40.9321 -57.7449
L41.288 -57.7211
L41.6461 -57.6938
L42.0065 -57.6627
L42.3692 -57.6279
L42.7341 -57.5893
L43.1012 -57.5467
L43.4705 -57.5003
L43.842 -57.4499
L44.2155 -57.3954
L44.5912 -57.3369
L44.9688 -57.2742
L45.3484 -57.2074
L45.7298 -57.1363
L46.1129 -57.0611
L46.4978 -56.9816
L46.8842 -56.8978
L47.272 -56.8099
L47.6611 -56.7177
L48.0513 -56.6214
L48.4426 -56.521
L48.8346 -56.4165
L49.2274 -56.308
L49.6205 -56.1957
L50.0139 -56.0797
L50.4073 -55.9602
L50.8005 -55.8374
L51.1932 -55.7114
L51.5851 -55.5826
L51.976 -55.4513
L52.3656 -55.3177
L52.7536 -55.1824
L53.1396 -55.0457
L53.5233 -54.908
L53.9045 -54.77
L54.2826 -54.6322
L54.6575 -54.4952
L55.0287 -54.3598
L55.3958 -54.2265
L55.7584 -54.0962
L56.1163 -53.9698
L56.469 -53.8479
L56.8161 -53.7316
L57.1574 -53.6217
L57.4923 -53.5191
L57.8207 -53.4246
L58.1421 -53.3391
L58.2883 -53.2635
L57.9749 -53.7618
L57.6549 -54.1481
L57.3282 -54.5288
L56.995 -54.9039
L56.6555 -55.2733
L56.3096 -55.6367
L55.9576 -55.9942
L55.5995 -56.3456
L55.2354 -56.6909
L54.8654 -57.0298
L54.4897 -57.3623
L54.1084 -57.6883
L53.7215 -58.0076
L53.3293 -58.3203
L52.9318 -58.6262
L52.5291 -58.9252
L52.1214 -59.2172
L51.7088 -59.5021
L51.2914 -59.7799
L50.8693 -60.0505
L50.4427 -60.3137
L50.0117 -60.5695
L49.5764 -60.8178
L49.137 -61.0585
L48.6936 -61.2917
L48.2464 -61.5171
L47.7954 -61.7347
L47.3408 -61.9445
L46.8827 -62.1464
L46.4214 -62.3404
L45.9568 -62.5263
L45.4893 -62.7041
L45.0188 -62.8738
L44.5456 -63.0354
L44.0698 -63.1886
L43.5915 -63.3336
L43.1109 -63.4703
L42.6282 -63.5986
L42.1434 -63.7185
L41.6568 -63.83
L41.1684 -63.933
L40.6785 -64.0274
L40.1872 -64.1134
L39.6945 -64.1907
L39.2008 -64.2595
L38.706 -64.3197
L38.2105 -64.3712
L37.7142 -64.4141
L37.2175 -64.4484
L36.7204 -64.474
L36.223 -64.4909
L35.7256 -64.4991
L35.2283 -64.4987
L34.7312 -64.4895
L34.2345 -64.4717
L33.7383 -64.4453
L33.2428 -64.4101
L32.7482 -64.3663
L32.2545 -64.3139
L31.762 -64.2528
L31.2708 -64.1831
L30.781 -64.1049
L30.2928 -64.0181
L29.8064 -63.9227
L29.3218 -63.8189
L28.8393 -63.7065
L28.3589 -63.5858
L27.8809 -63.4566
L27.4054 -63.3191
L26.9325 -63.1732
L26.4623 -63.0191
L25.995 -62.8567
L25.5308 -62.6861
L25.0698 -62.5075
L24.6121 -62.3207
L24.1579 -62.126
L23.7072 -61.9232
L23.2604 -61.7126
L22.8174 -61.4942
L22.3784 -61.2679
L21.9436 -61.034
L21.513 -60.7925
L21.0869 -60.5434
L20.6653 -60.2868
L20.2484 -60.0228
L19.8363 -59.7516
L19.4291 -59.473
L19.0269 -59.1874
L18.6299 -58.8946
L18.2382 -58.5949
L17.8519 -58.2883
L17.4712 -57.9749
L17.0961 -57.6549
L16.7267 -57.3282
L16.3633 -56.995
L16.0058 -56.6555
L15.6544 -56.3096
L15.3091 -55.9576
L14.9702 -55.5995
L14.6377 -55.2354
L14.3117 -54.8654
L13.9924 -54.4897
L13.6797 -54.1084
L13.3738 -53.7215
L13.0748 -53.3293
L12.7828 -52.9318
L12.4979 -52.5291
L12.2201 -52.1214
L11.9495 -51.7088
L11.6863 -51.2914
L11.4305 -50.8693
L11.1822 -50.4427
L10.9415 -50.0117
L10.7083 -49.5764
L10.4829 -49.137
L10.2653 -48.6936
L10.0555 -48.2464
L9.85355 -47.7954
L9.65961 -47.3408
L9.47369 -46.8827
L9.29585 -46.4214
L9.12615 -45.9568
L8.96463 -45.4893
L8.81135 -45.0188
L8.66635 -44.5456
L8.52968 -44.0698
L8.40137 -43.5915
L8.28147 -43.1109
L8.17001 -42.6282
L8.06703 -42.1434
L7.97256 -41.6568
z
" id="C0_2_073bdb1a67"/>
    </defs>
    <g clip-path="url(#p1bffca34e9)">
     <use style="fill:#ff0000;stroke:#000000;stroke-width:2.0;" x="0.0" xlink:href="#C0_0_a811fe30f3" y="72.0"/>
    </g>
    <g clip-path="url(#p1bffca34e9)">
     <use style="fill:#ffffff;stroke:#000000;stroke-width:2.0;" x="0.0" xlink:href="#C0_1_3200bb8bb7" y="72.0"/>
    </g>
    <g clip-path="url(#p1bffca34e9)">
     <use style="fill:#ffffff;stroke:#000000;stroke-width:2.0;" x="0.0" xlink:href="#C0_2_073bdb1a67" y="72.0"/>
    </g>
   </g>
  </g>
 </g>
 <defs>
  <clipPath id="p1bffca34e9">
   <rect height="72.0" width="72.0" x="0.0" y="0.0"/>
  </clipPath>
 </defs>
</svg>
