<?xml version="1.0" encoding="utf-8" standalone="no"?>
<!DOCTYPE svg PUBLIC "-//W3C//DTD SVG 1.1//EN"
  "http://www.w3.org/Graphics/SVG/1.1/DTD/svg11.dtd">
<!-- Created with matplotlib (http://matplotlib.org/) -->
<svg height="72pt" version="1.1" viewBox="0 0 72 72" width="72pt" xmlns="http://www.w3.org/2000/svg" xmlns:xlink="http://www.w3.org/1999/xlink">
 <defs>
  <style type="text/css">
*{stroke-linecap:butt;stroke-linejoin:round;}
  </style>
 </defs>
 <g id="figure_1">
  <g id="patch_1">
   <path d="
M0 72
L72 72
L72 0
L0 0
z
" style="fill:none;"/>
  </g>
  <g id="axes_1">
   <g id="PatchCollection_1">
    <defs>
     <path d="
M36 -7.5
C43.5583 -7.5 50.808 -10.5029 56.1525 -15.8475
C61.4971 -21.192 64.5 -28.4417 64.5 -36
C64.5 -43.5583 61.4971 -50.808 56.1525 -56.1525
C50.808 -61.4971 43.5583 -64.5 36 -64.5
C28.4417 -64.5 21.192 -61.4971 15.8475 -56.1525
C10.5029 -50.808 7.5 -43.5583 7.5 -36
C7.5 -28.4417 10.5029 -21.192 15.8475 -15.8475
C21.192 -10.5029 28.4417 -7.5 36 -7.5
z
" id="C0_0_a811fe30f3"/>
     <path d="
M55.1507 -14.9916
L55.0866 -15.2565
L54.9931 -15.5067
L54.8722 -15.7433
L54.7265 -15.9673
L54.5581 -16.1802
L54.3695 -16.3831
L54.163 -16.5773
L53.9407 -16.7641
L53.7046 -16.9446
L53.4565 -17.1199
L53.198 -17.2907
L52.9307 -17.458
L52.6558 -17.6224
L52.3746 -17.7845
L52.0881 -17.9448
L51.7972 -18.1037
L51.5028 -18.2615
L51.2056 -18.4186
L50.9062 -18.5751
L50.6053 -18.7313
L50.3033 -18.8872
L50.0008 -19.0431
L49.698 -19.199
L49.3955 -19.3549
L49.0934 -19.5109
L48.7921 -19.667
L48.4918 -19.8233
L48.1927 -19.9797
L47.8951 -20.1362
L47.5991 -20.2928
L47.3048 -20.4496
L47.0124 -20.6064
L46.722 -20.7632
L46.4336 -20.9201
L46.1474 -21.077
L45.8634 -21.2338
L45.5817 -21.3906
L45.3022 -21.5473
L45.0252 -21.704
L44.7504 -21.8604
L44.4781 -22.0168
L44.2081 -22.1729
L43.9405 -22.3289
L43.6752 -22.4847
L43.4123 -22.6403
L43.1518 -22.7956
L42.8936 -22.9507
L42.6377 -23.1056
L42.384 -23.2602
L42.1326 -23.4145
L41.8834 -23.5686
L41.6363 -23.7224
L41.3914 -23.876
L41.1486 -24.0293
L40.9077 -24.1824
L40.6689 -24.3352
L40.432 -24.4878
L40.197 -24.6402
L39.9639 -24.7923
L39.7325 -24.9443
L39.5029 -25.096
L39.275 -25.2476
L39.0487 -25.3991
L38.8241 -25.5504
L38.6009 -25.7016
L38.3793 -25.8527
L38.1591 -26.0037
L37.9402 -26.1546
L37.7227 -26.3055
L37.5065 -26.4564
L37.2915 -26.6073
L37.0777 -26.7583
L36.865 -26.9093
L36.6533 -27.0604
L36.4427 -27.2116
L36.233 -27.363
L36.0243 -27.5145
L35.8164 -27.6662
L35.6093 -27.8182
L35.403 -27.9704
L35.1974 -28.1229
L34.9925 -28.2757
L34.7881 -28.4289
L34.5844 -28.5825
L34.3811 -28.7365
L34.1783 -28.891
L33.774 -29.0459
L33.5723 -29.2014
L33.3709 -29.3574
L33.1697 -29.514
L32.9687 -29.6713
L32.7678 -29.8292
L32.5671 -29.9879
L32.3663 -30.1473
L32.1656 -30.3075
L31.9648 -30.4685
L31.7639 -30.6304
L31.5629 -30.7931
L31.3617 -30.9569
L31.1603 -31.1216
L30.9587 -31.2874
L30.7567 -31.4542
L30.5543 -31.6222
L30.3516 -31.7913
L30.1484 -31.9617
L29.9448 -32.1332
L29.7406 -32.3061
L29.5359 -32.4804
L29.3306 -32.656
L29.1246 -32.8331
L28.918 -33.0116
L28.7107 -33.1917
L28.5026 -33.3734
L28.2938 -33.5567
L28.0841 -33.7417
L27.8736 -33.9284
L27.6622 -34.1168
L27.4499 -34.3071
L27.2366 -34.4993
L27.0224 -34.6933
L26.8072 -34.8894
L26.591 -35.0874
L26.3737 -35.2875
L26.1553 -35.4896
L25.9359 -35.6939
L25.7153 -35.9004
L25.4937 -36.1091
L25.2709 -36.3201
L25.0469 -36.5333
L24.8218 -36.7489
L24.5956 -36.9668
L24.3681 -37.1872
L24.1395 -37.4099
L23.9098 -37.635
L23.6789 -37.8626
L23.4468 -38.0926
L23.2137 -38.325
L22.9794 -38.5599
L22.744 -38.7972
L22.5076 -39.037
L22.2701 -39.2791
L22.0316 -39.5235
L21.7921 -39.7703
L21.5518 -40.0192
L21.3105 -40.2704
L21.0684 -40.5235
L20.8255 -40.7786
L20.5818 -41.0356
L20.3375 -41.2941
L20.0925 -41.5542
L19.8469 -41.8156
L19.6008 -42.078
L19.3542 -42.3411
L19.1071 -42.6048
L18.8597 -42.8685
L18.6118 -43.132
L18.3636 -43.3948
L18.115 -43.6564
L17.8661 -43.9161
L17.6167 -44.1734
L17.3668 -44.4275
L17.1163 -44.6775
L16.8652 -44.9225
L16.6131 -45.1614
L16.36 -45.3931
L16.1055 -45.6161
L15.8494 -45.8289
L15.5912 -46.0299
L15.3306 -46.2171
L15.0671 -46.3886
L14.8003 -46.5422
L14.5297 -46.6756
L14.2549 -46.7863
L13.9755 -46.8721
L13.6913 -46.9307
L13.4023 -46.96
L13.1084 -46.9583
L12.81 -46.9242
L12.5077 -46.8569
L12.2021 -46.7561
L11.8941 -46.622
L11.5848 -46.4552
L11.2753 -46.2571
L10.9667 -46.0288
L10.6602 -45.7723
L10.3569 -45.4892
L10.0579 -45.1815
L9.76412 -44.851
L9.47657 -44.4997
L9.19607 -44.1292
L8.92334 -43.7413
L8.65905 -43.3375
L8.40379 -42.9193
L8.15805 -42.4882
L8.04765 -42.0453
L7.95487 -41.5603
L7.87063 -41.0716
L7.79496 -40.5813
L7.72788 -40.0897
L7.66941 -39.5969
L7.61958 -39.1029
L7.57838 -38.608
L7.54585 -38.1123
L7.52198 -37.6159
L7.50679 -37.1191
L7.50027 -36.6219
L7.50244 -36.1245
L7.51329 -35.6271
L7.53281 -35.1298
L7.56101 -34.6328
L7.59787 -34.1362
L7.64338 -33.6401
L7.69753 -33.1448
L7.7603 -32.6504
L7.83167 -32.1569
L7.91162 -31.6647
L8.00013 -31.1737
L8.09717 -30.6842
L8.2027 -30.1964
L8.31671 -29.7103
L8.43914 -29.2261
L8.56998 -28.744
L8.70916 -28.2641
L8.85666 -27.7866
L9.01243 -27.3115
L9.17642 -26.8391
L9.34858 -26.3695
L9.52886 -25.9029
L9.7172 -25.4393
L9.91355 -24.9789
L10.1178 -24.5219
L10.33 -24.0684
L10.55 -23.6185
L10.7778 -23.1724
L11.0132 -22.7301
L11.2562 -22.292
L11.5068 -21.858
L11.7649 -21.4283
L12.0303 -21.0031
L12.303 -20.5824
L12.583 -20.1664
L12.87 -19.7552
L13.1642 -19.349
L13.4652 -18.9479
L13.7732 -18.552
L14.0879 -18.1613
L14.4093 -17.7761
L14.7372 -17.3965
L15.0717 -17.0225
L15.4125 -16.6543
L15.7596 -16.292
L16.1128 -15.9357
L16.4722 -15.5855
L16.8374 -15.2416
L17.2085 -14.9039
L17.5853 -14.5727
L17.9678 -14.248
L18.3557 -13.9299
L18.749 -13.6186
L19.1475 -13.3141
L19.5512 -13.0164
L19.9599 -12.7258
L20.3735 -12.4423
L20.7918 -12.1659
L21.2148 -11.8969
L21.6423 -11.6351
L22.0741 -11.3808
L22.5102 -11.134
L22.9504 -10.8947
L23.3946 -10.6631
L23.8426 -10.4392
L24.2943 -10.2231
L24.7496 -10.0149
L25.2083 -9.81452
L25.6703 -9.62216
L26.1355 -9.43784
L26.6036 -9.26161
L27.0747 -9.09352
L27.5484 -8.93363
L28.0247 -8.78199
L28.5034 -8.63863
L28.9845 -8.50361
L29.4676 -8.37696
L29.9528 -8.25873
L30.4397 -8.14895
L30.9284 -8.04765
L31.4187 -7.95487
L31.9103 -7.87063
L32.4031 -7.79496
L32.8971 -7.72788
L33.392 -7.66941
L33.8877 -7.61958
L34.3841 -7.57838
L34.8809 -7.54585
L35.3781 -7.52198
L35.8755 -7.50679
L36.3729 -7.50027
L36.8702 -7.50244
L37.3672 -7.51329
L37.8638 -7.53281
L38.3599 -7.56101
L38.8552 -7.59787
L39.3496 -7.64338
L39.8431 -7.69753
L40.3353 -7.7603
L40.8263 -7.83167
L41.3158 -7.91162
L41.8036 -8.00013
L42.2897 -8.09717
L42.7739 -8.2027
L43.256 -8.31671
L43.7359 -8.43914
L44.2134 -8.56998
L44.6885 -8.70916
L45.1609 -8.85666
L45.6305 -9.01243
L46.0971 -9.17642
L46.5607 -9.34858
L47.0211 -9.52886
L47.4781 -9.7172
L47.9316 -9.91355
L48.3815 -10.1178
L48.8276 -10.33
L49.2699 -10.55
L49.708 -10.7778
L50.142 -11.0132
L50.5717 -11.2562
L50.9969 -11.5068
L51.4176 -11.7649
L51.8336 -12.0303
L52.2448 -12.303
L52.651 -12.583
L53.0521 -12.87
L53.448 -13.1642
L53.8387 -13.4652
L54.2239 -13.7732
L54.6035 -14.0879
z
" id="C0_1_89145c0f3b"/>
     <path d="
M63.8238 -30.4587
L63.7809 -30.9657
L63.7311 -31.4708
L63.6743 -31.9733
L63.6106 -32.4727
L63.5399 -32.9684
L63.4622 -33.4598
L63.3777 -33.9465
L63.2865 -34.4281
L63.1888 -34.9044
L63.0847 -35.375
L62.9744 -35.8397
L62.8581 -36.2982
L62.7361 -36.7505
L62.6086 -37.1964
L62.4757 -37.6357
L62.3378 -38.0685
L62.1949 -38.4946
L62.0474 -38.914
L61.8955 -39.3267
L61.7393 -39.7327
L61.5791 -40.1321
L61.415 -40.5248
L61.2474 -40.9109
L61.0762 -41.2904
L60.9018 -41.6634
L60.7242 -42.0301
L60.5437 -42.3904
L60.3604 -42.7445
L60.1744 -43.0924
L59.9859 -43.4342
L59.795 -43.7701
L59.6019 -44.1001
L59.4065 -44.4244
L59.2091 -44.7431
L59.0098 -45.0562
L58.8085 -45.3638
L58.6055 -45.6662
L58.4008 -45.9634
L58.1944 -46.2555
L57.9865 -46.5425
L57.777 -46.8248
L57.5661 -47.1022
L57.3538 -47.375
L57.1402 -47.6432
L56.9252 -47.907
L56.7089 -48.1664
L56.4913 -48.4216
L56.2725 -48.6727
L56.0525 -48.9196
L55.8313 -49.1626
L55.6088 -49.4018
L55.3853 -49.6371
L55.1605 -49.8688
L54.9345 -50.0968
L54.7074 -50.3214
L54.4791 -50.5424
L54.2496 -50.7601
L54.0189 -50.9746
L53.787 -51.1857
L53.5539 -51.3938
L53.3195 -51.5987
L53.0838 -51.8006
L52.8469 -51.9996
L52.6086 -52.1957
L52.369 -52.3889
L52.1281 -52.5793
L51.8857 -52.767
L51.6418 -52.9521
L51.3965 -53.1344
L51.1497 -53.3142
L50.9013 -53.4915
L50.6513 -53.6662
L50.3997 -53.8385
L50.1464 -54.0083
L49.8914 -54.1757
L49.6345 -54.3408
L49.3758 -54.5035
L49.1153 -54.6638
L48.8528 -54.8219
L48.5882 -54.9777
L48.3217 -55.1312
L48.053 -55.2825
L47.7821 -55.4315
L47.509 -55.5783
L47.2336 -55.7228
L46.9559 -55.8651
L46.6757 -56.0052
L46.393 -56.1431
L46.1077 -56.2787
L45.8198 -56.4121
L45.5292 -56.5432
L45.2358 -56.672
L44.9396 -56.7985
L44.6404 -56.9227
L44.3383 -57.0445
L44.0331 -57.1639
L43.7247 -57.2809
L43.4131 -57.3955
L43.0982 -57.5076
L42.7799 -57.617
L42.4582 -57.7239
L42.1329 -57.8282
L41.8041 -57.9297
L41.4715 -58.0284
L41.1352 -58.1243
L40.7951 -58.2173
L40.4511 -58.3072
L40.1031 -58.3941
L39.7511 -58.4778
L39.3949 -58.5582
L39.0346 -58.6352
L38.6701 -58.7088
L38.3013 -58.7788
L37.9281 -58.8452
L37.5506 -58.9077
L37.1686 -58.9663
L36.7821 -59.0208
L36.3912 -59.0712
L35.9957 -59.1173
L35.5957 -59.1589
L35.1912 -59.1959
L34.7821 -59.2282
L34.3685 -59.2555
L33.9504 -59.2779
L33.5278 -59.2951
L33.1008 -59.307
L32.6694 -59.3134
L32.2337 -59.3142
L31.7939 -59.3092
L31.35 -59.2984
L30.9022 -59.2816
L30.4506 -59.2586
L29.9954 -59.2294
L29.5368 -59.1939
L29.0751 -59.152
L28.6104 -59.1038
L28.1431 -59.049
L27.6735 -58.9879
L27.202 -58.9204
L26.7288 -58.8466
L26.2546 -58.7666
L25.7796 -58.6808
L25.3045 -58.5893
L24.8298 -58.4925
L24.3561 -58.3909
L23.8841 -58.285
L23.4144 -58.1755
L22.9479 -58.0631
L22.4854 -57.9488
L22.0278 -57.8338
L21.5761 -57.7192
L21.1313 -57.6066
L20.6945 -57.4976
L20.267 -57.3941
L19.8499 -57.298
L19.4444 -57.2116
L19.0518 -57.137
L18.6734 -57.0766
L18.3101 -57.0325
L17.9631 -57.0067
L17.6332 -57.0011
L17.321 -57.0169
L17.2938 -57.055
L17.672 -57.5019
L18.0556 -57.825
L18.4448 -58.1416
L18.8393 -58.4514
L19.239 -58.7544
L19.6439 -59.0504
L20.0537 -59.3394
L20.4684 -59.6213
L20.8878 -59.896
L21.3118 -60.1634
L21.7403 -60.4235
L22.1731 -60.6761
L22.6101 -60.9212
L23.0513 -61.1587
L23.4963 -61.3886
L23.9452 -61.6107
L24.3978 -61.825
L24.8538 -62.0315
L25.3133 -62.23
L25.776 -62.4205
L26.2419 -62.603
L26.7107 -62.7774
L27.1823 -62.9436
L27.6567 -63.1016
L28.1335 -63.2514
L28.6128 -63.3929
L29.0943 -63.526
L29.578 -63.6507
L30.0635 -63.767
L30.5509 -63.8749
L31.04 -63.9742
L31.5305 -64.0651
L32.0225 -64.1474
L32.5156 -64.2211
L33.0098 -64.2862
L33.5049 -64.3427
L34.0007 -64.3906
L34.4972 -64.4298
L34.9941 -64.4604
L35.4914 -64.4822
L35.9888 -64.4955
L36.4862 -64.5
L36.9834 -64.4959
L37.4804 -64.483
L37.9769 -64.4615
L38.4728 -64.4314
L38.9679 -64.3925
L39.4621 -64.345
L39.9553 -64.2889
L40.4473 -64.2242
L40.9379 -64.1509
L41.427 -64.069
L41.9145 -63.9785
L42.4002 -63.8795
L42.8839 -63.7721
L43.3655 -63.6561
L43.8449 -63.5318
L44.3219 -63.3991
L44.7963 -63.258
L45.2681 -63.1086
L45.737 -62.9509
L46.203 -62.7851
L46.6659 -62.6111
L47.1255 -62.4289
L47.5817 -62.2388
L48.0344 -62.0406
L48.4835 -61.8345
L48.9287 -61.6205
L49.37 -61.3988
L49.8073 -61.1693
L50.2403 -60.9321
L50.669 -60.6873
L51.0932 -60.435
L51.5128 -60.1753
L51.9277 -59.9082
L52.3377 -59.6338
L52.7428 -59.3523
L53.1428 -59.0636
L53.5375 -58.7679
L53.9269 -58.4652
L54.3108 -58.1557
L54.6892 -57.8395
L55.0619 -57.5166
L55.4287 -57.1871
L55.7897 -56.8512
L56.1446 -56.509
L56.4934 -56.1605
L56.8359 -55.8058
L57.1721 -55.4452
L57.5019 -55.0786
L57.825 -54.7062
L58.1416 -54.328
L58.4514 -53.9444
L58.7544 -53.5552
L59.0504 -53.1607
L59.3394 -52.761
L59.6213 -52.3561
L59.896 -51.9463
L60.1634 -51.5316
L60.4235 -51.1122
L60.6761 -50.6882
L60.9212 -50.2597
L61.1587 -49.8269
L61.3886 -49.3899
L61.6107 -48.9487
L61.825 -48.5037
L62.0315 -48.0548
L62.23 -47.6022
L62.4205 -47.1462
L62.603 -46.6867
L62.7774 -46.224
L62.9436 -45.7581
L63.1016 -45.2893
L63.2514 -44.8177
L63.3929 -44.3433
L63.526 -43.8665
L63.6507 -43.3872
L63.767 -42.9057
L63.8749 -42.422
L63.9742 -41.9365
L64.0651 -41.4491
L64.1474 -40.96
L64.2211 -40.4695
L64.2862 -39.9775
L64.3427 -39.4844
L64.3906 -38.9902
L64.4298 -38.4951
L64.4604 -37.9993
L64.4822 -37.5028
L64.4955 -37.0059
L64.5 -36.5086
L64.4959 -36.0112
L64.483 -35.5138
L64.4615 -35.0166
L64.4314 -34.5196
L64.3925 -34.0231
L64.345 -33.5272
L64.2889 -33.0321
L64.2242 -32.5379
L64.1509 -32.0447
L64.069 -31.5527
z
" id="C0_2_afc3422915"/>
    </defs>
    <g clip-path="url(#p1bffca34e9)">
     <use style="fill:#ff0000;stroke:#000000;stroke-width:2.0;" x="0.0" xlink:href="#C0_0_a811fe30f3" y="72.0"/>
    </g>
    <g clip-path="url(#p1bffca34e9)">
     <use style="fill:#ffffff;stroke:#000000;stroke-width:2.0;" x="0.0" xlink:href="#C0_1_89145c0f3b" y="72.0"/>
    </g>
    <g clip-path="url(#p1bffca34e9)">
     <use style="fill:#ffffff;stroke:#000000;stroke-width:2.0;" x="0.0" xlink:href="#C0_2_afc3422915" y="72.0"/>
    </g>
   </g>
  </g>
 </g>
 <defs>
  <clipPath id="p1bffca34e9">
   <rect height="72.0" width="72.0" x="0.0" y="0.0"/>
  </clipPath>
 </defs>
</svg>
