<?xml version="1.0" encoding="utf-8" standalone="no"?>
<!DOCTYPE svg PUBLIC "-//W3C//DTD SVG 1.1//EN"
  "http://www.w3.org/Graphics/SVG/1.1/DTD/svg11.dtd">
<!-- Created with matplotlib (http://matplotlib.org/) -->
<svg height="72pt" version="1.1" viewBox="0 0 72 72" width="72pt" xmlns="http://www.w3.org/2000/svg" xmlns:xlink="http://www.w3.org/1999/xlink">
 <defs>
  <style type="text/css">
*{stroke-linecap:butt;stroke-linejoin:round;}
  </style>
 </defs>
 <g id="figure_1">
  <g id="patch_1">
   <path d="
M0 72
L72 72
L72 0
L0 0
z
" style="fill:none;"/>
  </g>
  <g id="axes_1">
   <g id="PatchCollection_1">
    <defs>
     <path d="
M36 -7.5
C43.5583 -7.5 50.808 -10.5029 56.1525 -15.8475
C61.4971 -21.192 64.5 -28.4417 64.5 -36
C64.5 -43.5583 61.4971 -50.808 56.1525 -56.1525
C50.808 -61.4971 43.5583 -64.5 36 -64.5
C28.4417 -64.5 21.192 -61.4971 15.8475 -56.1525
C10.5029 -50.808 7.5 -43.5583 7.5 -36
C7.5 -28.4417 10.5029 -21.192 15.8475 -15.8475
C21.192 -10.5029 28.4417 -7.5 36 -7.5
z
" id="C0_0_a811fe30f3"/>
     <path d="
M31.0246 -29.2028
L31.2556 -29.0897
L31.4872 -28.9777
L31.7195 -28.8665
L31.9524 -28.7564
L32.1862 -28.6471
L32.4207 -28.5387
L32.6562 -28.4312
L32.8925 -28.3245
L33.1298 -28.2187
L33.3682 -28.1137
L33.6077 -28.0095
L33.8483 -27.906
L34.0902 -27.8034
L34.3333 -27.7015
L34.5778 -27.6004
L34.8236 -27.5
L35.0709 -27.4004
L35.3198 -27.3015
L35.5702 -27.2033
L35.8223 -27.1059
L36.076 -27.0092
L36.3316 -26.9133
L36.589 -26.8181
L36.8483 -26.7236
L37.1095 -26.63
L37.3728 -26.537
L37.6382 -26.4449
L37.9057 -26.3536
L38.1754 -26.263
L38.4475 -26.1734
L38.7218 -26.0845
L38.9986 -25.9966
L39.2779 -25.9096
L39.5597 -25.8235
L39.8441 -25.7384
L40.1312 -25.6543
L40.421 -25.5713
L40.7136 -25.4894
L41.0089 -25.4087
L41.3072 -25.3291
L41.6084 -25.2509
L41.9126 -25.174
L42.2198 -25.0985
L42.5301 -25.0244
L42.8435 -24.952
L43.1601 -24.8812
L43.4798 -24.8121
L43.8027 -24.7449
L44.1289 -24.6796
L44.4583 -24.6164
L44.7909 -24.5553
L45.1267 -24.4966
L45.4658 -24.4403
L45.8081 -24.3867
L46.1536 -24.3357
L46.5023 -24.2877
L46.8541 -24.2428
L47.2089 -24.2012
L47.5667 -24.1631
L47.9274 -24.1287
L48.2909 -24.0982
L48.6571 -24.0719
L49.0258 -24.0501
L49.3969 -24.033
L49.7702 -24.021
L50.1455 -24.0143
L50.5227 -24.0133
L50.9014 -24.0184
L51.2813 -24.0301
L51.6622 -24.0486
L52.0438 -24.0746
L52.4255 -24.1085
L52.8071 -24.1509
L53.188 -24.2024
L53.5677 -24.2636
L53.9457 -24.3354
L54.3213 -24.4184
L54.6937 -24.5135
L55.0622 -24.6217
L55.426 -24.744
L55.784 -24.8813
L56.1353 -25.0348
L56.4787 -25.2057
L56.8131 -25.3951
L57.1372 -25.6041
L57.4498 -25.8336
L57.7495 -26.0845
L58.0353 -26.3576
L58.3058 -26.6529
L58.5602 -26.9707
L58.7975 -27.3105
L59.0172 -27.6716
L59.2187 -28.0529
L59.4019 -28.4529
L59.5666 -28.8702
L59.7131 -29.303
L59.8416 -29.7493
L59.9524 -30.2074
L60.0461 -30.6754
L60.1231 -31.1515
L60.184 -31.6342
L60.2293 -32.1219
L60.2597 -32.6133
L60.2757 -33.1069
L60.278 -33.6017
L60.267 -34.0966
L60.2433 -34.5907
L60.2076 -35.0831
L60.1603 -35.5731
L60.1019 -36.06
L60.033 -36.5432
L59.954 -37.0223
L59.8655 -37.4967
L59.7679 -37.9661
L59.6616 -38.4301
L59.5471 -38.8884
L59.4248 -39.3408
L59.2951 -39.787
L59.1584 -40.2269
L59.0151 -40.6602
L58.8656 -41.087
L58.7101 -41.5071
L58.549 -41.9205
L58.3827 -42.327
L58.2114 -42.7267
L58.0355 -43.1196
L57.8551 -43.5057
L57.6706 -43.8849
L57.4822 -44.2574
L57.2902 -44.6232
L57.0947 -44.9823
L56.8959 -45.3349
L56.6942 -45.6809
L56.4896 -46.0205
L56.2823 -46.3537
L56.0725 -46.6808
L55.8603 -47.0016
L55.646 -47.3164
L55.4295 -47.6252
L55.2111 -47.9282
L54.9908 -48.2255
L54.7688 -48.5171
L54.5451 -48.8032
L54.3198 -49.0839
L54.0931 -49.3593
L53.865 -49.6295
L53.6355 -49.8945
L53.4048 -50.1546
L53.1729 -50.4098
L52.9397 -50.6603
L52.7054 -50.906
L52.4701 -51.1472
L52.2337 -51.3839
L51.9962 -51.6162
L51.7577 -51.8443
L51.5183 -52.0681
L51.2778 -52.2878
L51.0364 -52.5035
L50.794 -52.7153
L50.5507 -52.9232
L50.3064 -53.1273
L50.0611 -53.3278
L49.8149 -53.5246
L49.5676 -53.7179
L49.3194 -53.9076
L49.0702 -54.094
L48.8199 -54.277
L48.5686 -54.4567
L48.3162 -54.6332
L48.0627 -54.8065
L47.8081 -54.9766
L47.5523 -55.1437
L47.2953 -55.3078
L47.0371 -55.4688
L46.7776 -55.6269
L46.5168 -55.7821
L46.2547 -55.9345
L45.9912 -56.084
L45.7263 -56.2307
L45.4598 -56.3746
L45.1919 -56.5157
L44.9224 -56.6541
L44.6513 -56.7898
L44.3785 -56.9227
L44.1039 -57.053
L43.8276 -57.1806
L43.5495 -57.3055
L43.2694 -57.4277
L42.9874 -57.5473
L42.7034 -57.6642
L42.4173 -57.7784
L42.1291 -57.8898
L41.8387 -57.9986
L41.546 -58.1046
L41.251 -58.2079
L40.9536 -58.3084
L40.6537 -58.406
L40.3513 -58.5009
L40.0463 -58.5928
L39.7387 -58.6818
L39.4283 -58.7678
L39.115 -58.8509
L38.799 -58.9308
L38.4799 -59.0076
L38.1579 -59.0811
L37.8327 -59.1514
L37.5044 -59.2184
L37.1729 -59.2819
L36.8381 -59.3418
L36.4999 -59.3982
L36.1583 -59.4508
L35.8132 -59.4996
L35.4645 -59.5445
L35.1122 -59.5853
L34.7562 -59.622
L34.3966 -59.6543
L34.0331 -59.6822
L33.6658 -59.7055
L33.2946 -59.7241
L32.9195 -59.7378
L32.5404 -59.7464
L32.1574 -59.7498
L31.7704 -59.7477
L31.3794 -59.74
L30.9843 -59.7266
L30.5853 -59.7071
L30.1822 -59.6814
L29.7752 -59.6492
L29.3642 -59.6104
L28.9493 -59.5647
L28.5306 -59.5118
L28.1082 -59.4516
L27.6821 -59.3837
L27.2524 -59.3079
L26.8193 -59.224
L26.383 -59.1316
L25.9436 -59.0306
L25.5013 -58.9206
L25.0563 -58.8013
L24.609 -58.6725
L24.1595 -58.534
L23.7082 -58.3854
L23.2555 -58.2265
L22.8017 -58.0571
L22.3472 -57.8769
L21.8927 -57.6856
L21.4384 -57.4831
L20.9851 -57.2691
L20.5334 -57.0435
L20.0838 -56.8062
L19.6373 -56.557
L19.1945 -56.2958
L18.7564 -56.0226
L18.3239 -55.7375
L17.8981 -55.4404
L17.4801 -55.1314
L17.0712 -54.8109
L16.6725 -54.479
L16.2857 -54.1361
L15.9121 -53.7826
L15.5535 -53.4192
L15.2114 -53.0464
L14.8877 -52.6649
L14.5841 -52.2758
L14.3023 -51.88
L14.0441 -51.4785
L13.8109 -51.0725
L13.604 -50.6633
L13.4245 -50.2519
L13.2729 -49.8398
L13.1494 -49.4278
L13.054 -49.0173
L12.9859 -48.6089
L12.9444 -48.2036
L12.9281 -47.802
L12.9356 -47.4046
L12.9655 -47.0119
L13.016 -46.6242
L13.0857 -46.2416
L13.1729 -45.8644
L13.2762 -45.4926
L13.3941 -45.1264
L13.5253 -44.7658
L13.6687 -44.4107
L13.823 -44.0613
L13.9874 -43.7174
L14.1608 -43.3792
L14.3424 -43.0464
L14.5315 -42.7192
L14.7272 -42.3974
L14.929 -42.081
L15.1362 -41.77
L15.3484 -41.4644
L15.5649 -41.164
L15.7854 -40.8688
L16.0094 -40.5787
L16.2365 -40.2937
L16.4664 -40.0138
L16.6987 -39.7388
L16.9332 -39.4686
L17.1694 -39.2033
L17.4073 -38.9427
L17.6465 -38.6867
L17.8868 -38.4353
L18.1281 -38.1883
L18.3701 -37.9458
L18.6127 -37.7075
L18.8558 -37.4735
L19.0991 -37.2436
L19.3426 -37.0178
L19.5861 -36.7959
L19.8296 -36.5779
L20.073 -36.3637
L20.3161 -36.1532
L20.559 -35.9464
L20.8014 -35.743
L21.0435 -35.5431
L21.2851 -35.3466
L21.5262 -35.1533
L21.7668 -34.9632
L22.0068 -34.7763
L22.2463 -34.5924
L22.4851 -34.4114
L22.7233 -34.2333
L22.9608 -34.058
L23.1978 -33.8855
L23.4341 -33.7156
L23.6698 -33.5483
L23.9048 -33.3835
L24.1393 -33.2211
L24.3731 -33.0611
L24.6064 -32.9034
L24.8391 -32.748
L25.0712 -32.5947
L25.3029 -32.4436
L25.534 -32.2945
L25.7647 -32.1474
L25.9949 -32.0023
L26.2247 -31.859
L26.4542 -31.7176
L26.6833 -31.578
L26.9121 -31.4401
L27.1406 -31.3038
L27.3689 -31.1692
L27.597 -31.0362
L27.825 -30.9047
L28.0528 -30.7747
L28.2806 -30.6462
L28.5083 -30.519
L28.7361 -30.3933
L28.9639 -30.2688
L29.1918 -30.1457
L29.4198 -30.0238
L29.6481 -29.9031
L29.8766 -29.7836
L30.1054 -29.6653
L30.3346 -29.548
L30.5641 -29.4319
z
" id="C0_1_3ae51c04dc"/>
    </defs>
    <g clip-path="url(#p1bffca34e9)">
     <use style="fill:#ffffff;stroke:#000000;stroke-width:2.0;" x="0.0" xlink:href="#C0_0_a811fe30f3" y="72.0"/>
    </g>
    <g clip-path="url(#p1bffca34e9)">
     <use style="fill:#ff0000;stroke:#000000;stroke-width:2.0;" x="0.0" xlink:href="#C0_1_3ae51c04dc" y="72.0"/>
    </g>
   </g>
  </g>
 </g>
 <defs>
  <clipPath id="p1bffca34e9">
   <rect height="72.0" width="72.0" x="0.0" y="0.0"/>
  </clipPath>
 </defs>
</svg>
