<?xml version="1.0" encoding="utf-8" standalone="no"?>
<!DOCTYPE svg PUBLIC "-//W3C//DTD SVG 1.1//EN"
  "http://www.w3.org/Graphics/SVG/1.1/DTD/svg11.dtd">
<!-- Created with matplotlib (http://matplotlib.org/) -->
<svg height="72pt" version="1.1" viewBox="0 0 72 72" width="72pt" xmlns="http://www.w3.org/2000/svg" xmlns:xlink="http://www.w3.org/1999/xlink">
 <defs>
  <style type="text/css">
*{stroke-linecap:butt;stroke-linejoin:round;}
  </style>
 </defs>
 <g id="figure_1">
  <g id="patch_1">
   <path d="
M0 72
L72 72
L72 0
L0 0
z
" style="fill:none;"/>
  </g>
  <g id="axes_1">
   <g id="PatchCollection_1">
    <defs>
     <path d="
M36 -7.5
C43.5583 -7.5 50.808 -10.5029 56.1525 -15.8475
C61.4971 -21.192 64.5 -28.4417 64.5 -36
C64.5 -43.5583 61.4971 -50.808 56.1525 -56.1525
C50.808 -61.4971 43.5583 -64.5 36 -64.5
C28.4417 -64.5 21.192 -61.4971 15.8475 -56.1525
C10.5029 -50.808 7.5 -43.5583 7.5 -36
C7.5 -28.4417 10.5029 -21.192 15.8475 -15.8475
C21.192 -10.5029 28.4417 -7.5 36 -7.5
z
" id="C0_0_a811fe30f3"/>
     <path d="
M48.5454 -10.4097
L48.4584 -10.5844
L48.3687 -10.7593
L48.2763 -10.9343
L48.1813 -11.1095
L48.0836 -11.2848
L47.9834 -11.4604
L47.8806 -11.6362
L47.7754 -11.8123
L47.6676 -11.9886
L47.5574 -12.1652
L47.4447 -12.342
L47.3297 -12.5192
L47.2122 -12.6967
L47.0924 -12.8745
L46.9701 -13.0526
L46.8456 -13.231
L46.7187 -13.4098
L46.5895 -13.5889
L46.4579 -13.7684
L46.3241 -13.9483
L46.1879 -14.1285
L46.0495 -14.3091
L45.9088 -14.49
L45.7658 -14.6713
L45.6205 -14.853
L45.473 -15.0351
L45.3231 -15.2175
L45.171 -15.4003
L45.0167 -15.5835
L44.86 -15.767
L44.7011 -15.9508
L44.5399 -16.135
L44.3764 -16.3195
L44.2107 -16.5043
L44.0427 -16.6894
L43.8724 -16.8748
L43.6998 -17.0605
L43.5249 -17.2464
L43.3477 -17.4325
L43.1682 -17.6189
L42.9865 -17.8054
L42.8024 -17.9921
L42.616 -18.1789
L42.4274 -18.3658
L42.2364 -18.5528
L42.0431 -18.7398
L41.8474 -18.9268
L41.6495 -19.1138
L41.4492 -19.3007
L41.2467 -19.4875
L41.0418 -19.6742
L40.8346 -19.8606
L40.6251 -20.0468
L40.4132 -20.2327
L40.1991 -20.4183
L39.9826 -20.6035
L39.7639 -20.7882
L39.5428 -20.9724
L39.3195 -21.1561
L39.0939 -21.3391
L38.866 -21.5215
L38.6358 -21.7031
L38.4035 -21.8839
L38.1688 -22.0639
L37.932 -22.2429
L37.6929 -22.4209
L37.4517 -22.5979
L37.2083 -22.7737
L36.9628 -22.9483
L36.7152 -23.1217
L36.4654 -23.2937
L36.2137 -23.4644
L35.9598 -23.6335
L35.704 -23.8011
L35.4462 -23.9672
L35.1865 -24.1315
L34.9249 -24.2941
L34.6614 -24.4549
L34.3961 -24.6139
L34.129 -24.7709
L33.8602 -24.9259
L33.5898 -25.0789
L33.3177 -25.2299
L33.044 -25.3786
L32.7689 -25.5252
L32.4922 -25.6695
L32.2142 -25.8116
L31.9348 -25.9513
L31.6541 -26.0886
L31.3722 -26.2235
L31.0892 -26.356
L30.805 -26.486
L30.5199 -26.6136
L30.2338 -26.7386
L29.9468 -26.861
L29.659 -26.981
L29.3705 -27.0983
L29.0813 -27.2131
L28.7915 -27.3253
L28.5012 -27.4349
L28.2105 -27.5419
L27.9194 -27.6463
L27.628 -27.7482
L27.3364 -27.8474
L27.0446 -27.9441
L26.7528 -28.0383
L26.461 -28.1299
L26.1693 -28.219
L25.8777 -28.3056
L25.5863 -28.3896
L25.2953 -28.4713
L25.0046 -28.5505
L24.7143 -28.6273
L24.4245 -28.7017
L24.1353 -28.7737
L23.8467 -28.8434
L23.5588 -28.9108
L23.2716 -28.9759
L22.9853 -29.0388
L22.6998 -29.0994
L22.4152 -29.1579
L22.1316 -29.2142
L21.849 -29.2684
L21.5675 -29.3205
L21.287 -29.3705
L21.0078 -29.4185
L20.7297 -29.4645
L20.4529 -29.5085
L20.1773 -29.5506
L19.9031 -29.5907
L19.6302 -29.629
L19.3587 -29.6654
L19.0886 -29.6999
L18.82 -29.7327
L18.5528 -29.7636
L18.2871 -29.7928
L18.0229 -29.8203
L17.7603 -29.846
L17.4993 -29.87
L17.2398 -29.8924
L16.9819 -29.9131
L16.7256 -29.9321
L16.471 -29.9495
L16.218 -29.9653
L15.9666 -29.9795
L15.7169 -29.9921
L15.4689 -30.0031
L15.2226 -30.0126
L14.978 -30.0205
L14.7351 -30.0269
L14.4938 -30.0317
L14.2543 -30.035
L14.0165 -30.0368
L13.7805 -30.037
L13.5461 -30.0358
L13.3135 -30.0329
L13.0826 -30.0286
L12.8535 -30.0227
L12.6261 -30.0153
L12.4004 -30.0064
L12.1764 -29.9959
L11.9542 -29.9839
L11.7338 -29.9702
L11.5151 -29.9551
L11.2981 -29.9383
L11.0829 -29.9199
L10.8694 -29.8999
L10.6577 -29.8783
L10.4477 -29.855
L10.2395 -29.83
L10.0331 -29.8033
L9.82841 -29.7749
L9.62551 -29.7447
L9.42439 -29.7127
L9.22506 -29.6789
L9.02753 -29.6433
L8.83179 -29.6057
L8.63787 -29.5662
L8.44577 -29.5248
L8.3735 -28.9981
L8.49991 -28.517
L8.63469 -28.0382
L8.77781 -27.5618
L8.92922 -27.088
L9.08888 -26.6169
L9.25674 -26.1487
L9.43274 -25.6835
L9.61683 -25.2214
L9.80896 -24.7626
L10.0091 -24.3072
L10.2171 -23.8554
L10.433 -23.4072
L10.6566 -22.963
L10.888 -22.5226
L11.1271 -22.0864
L11.3737 -21.6545
L11.6278 -21.2269
L11.8893 -20.8038
L12.1582 -20.3853
L12.4344 -19.9716
L12.7177 -19.5627
L13.0081 -19.1589
L13.3055 -18.7602
L13.6099 -18.3667
L13.921 -17.9787
L14.2389 -17.5961
L14.5634 -17.2191
L14.8944 -16.8478
L15.2319 -16.4824
L15.5757 -16.1229
L15.9257 -15.7695
L16.2818 -15.4222
L16.644 -15.0813
L17.012 -14.7466
L17.3858 -14.4185
L17.7653 -14.0969
L18.1503 -13.782
L18.5408 -13.4739
L18.9366 -13.1726
L19.3376 -12.8783
L19.7437 -12.591
L20.1547 -12.3108
L20.5705 -12.0379
L20.9911 -11.7723
L21.4162 -11.514
L21.8458 -11.2632
L22.2796 -11.02
L22.7177 -10.7843
L23.1598 -10.5564
L23.6058 -10.3361
L24.0556 -10.1237
L24.509 -9.91923
L24.9659 -9.72265
L25.4262 -9.53409
L25.8897 -9.35358
L26.3563 -9.18119
L26.8258 -9.01697
L27.2981 -8.86096
L27.7731 -8.71323
L28.2506 -8.5738
L28.7304 -8.44274
L29.2124 -8.32006
L29.6966 -8.20582
L30.1826 -8.10004
L30.6704 -8.00276
L31.1598 -7.91401
L31.6507 -7.83382
L32.143 -7.7622
L32.6364 -7.69919
L33.1308 -7.64479
L33.6261 -7.59904
L34.1221 -7.56193
L34.6187 -7.53349
L35.1157 -7.51372
L35.613 -7.50263
L36.1104 -7.50021
L36.6078 -7.50648
L37.105 -7.52143
L37.6019 -7.54505
L38.0982 -7.57734
L38.5939 -7.61829
L39.0889 -7.66788
L39.5829 -7.72611
L40.0758 -7.79294
L40.5674 -7.86837
L41.0577 -7.95237
L41.5464 -8.04491
L42.0335 -8.14597
L42.5187 -8.25551
L43.0019 -8.3735
L43.483 -8.49991
L43.9618 -8.63469
L44.4382 -8.77781
L44.912 -8.92922
L45.3831 -9.08888
L45.8513 -9.25674
L46.3165 -9.43274
L46.7786 -9.61683
L47.2374 -9.80896
L47.6928 -10.0091
z
" id="C0_1_b882489971"/>
     <path d="
M63.5542 -42.4752
L63.3621 -42.4338
L63.1682 -42.3943
L62.9725 -42.3567
L62.7749 -42.3211
L62.5756 -42.2873
L62.3745 -42.2553
L62.1716 -42.2251
L61.9669 -42.1967
L61.7605 -42.17
L61.5523 -42.145
L61.3423 -42.1217
L61.1306 -42.1001
L60.9171 -42.0801
L60.7019 -42.0617
L60.4849 -42.0449
L60.2662 -42.0298
L60.0458 -42.0161
L59.8236 -42.0041
L59.5996 -41.9936
L59.3739 -41.9847
L59.1465 -41.9773
L58.9174 -41.9714
L58.6865 -41.9671
L58.4539 -41.9642
L58.2195 -41.963
L57.9835 -41.9632
L57.7457 -41.965
L57.5062 -41.9683
L57.2649 -41.9731
L57.022 -41.9795
L56.7774 -41.9874
L56.5311 -41.9969
L56.2831 -42.0079
L56.0334 -42.0205
L55.782 -42.0347
L55.529 -42.0505
L55.2744 -42.0679
L55.0181 -42.0869
L54.7602 -42.1076
L54.5007 -42.13
L54.2397 -42.154
L53.9771 -42.1797
L53.7129 -42.2072
L53.4472 -42.2364
L53.18 -42.2673
L52.9114 -42.3001
L52.6413 -42.3346
L52.3698 -42.371
L52.0969 -42.4093
L51.8227 -42.4494
L51.5471 -42.4915
L51.2703 -42.5355
L50.9922 -42.5815
L50.713 -42.6295
L50.4325 -42.6795
L50.151 -42.7316
L49.8684 -42.7858
L49.5848 -42.8421
L49.3002 -42.9006
L49.0147 -42.9612
L48.7284 -43.0241
L48.4412 -43.0892
L48.1533 -43.1566
L47.8647 -43.2263
L47.5755 -43.2983
L47.2857 -43.3727
L46.9954 -43.4495
L46.7047 -43.5287
L46.4137 -43.6104
L46.1223 -43.6944
L45.8307 -43.781
L45.539 -43.8701
L45.2472 -43.9617
L44.9554 -44.0559
L44.6636 -44.1526
L44.372 -44.2518
L44.0806 -44.3537
L43.7895 -44.4581
L43.4988 -44.5651
L43.2085 -44.6747
L42.9187 -44.7869
L42.6295 -44.9017
L42.341 -45.019
L42.0532 -45.139
L41.7662 -45.2614
L41.4801 -45.3864
L41.195 -45.514
L40.9108 -45.644
L40.6278 -45.7765
L40.3459 -45.9114
L40.0652 -46.0487
L39.7858 -46.1884
L39.5078 -46.3305
L39.2311 -46.4748
L38.956 -46.6214
L38.6823 -46.7701
L38.4102 -46.9211
L38.1398 -47.0741
L37.871 -47.2291
L37.6039 -47.3861
L37.3386 -47.5451
L37.0751 -47.7059
L36.8135 -47.8685
L36.5538 -48.0328
L36.296 -48.1989
L36.0402 -48.3665
L35.7863 -48.5356
L35.5346 -48.7063
L35.2848 -48.8783
L35.0372 -49.0517
L34.7917 -49.2263
L34.5483 -49.4021
L34.3071 -49.5791
L34.068 -49.7571
L33.8312 -49.9361
L33.5965 -50.1161
L33.3642 -50.2969
L33.134 -50.4785
L32.9061 -50.6609
L32.6805 -50.8439
L32.4572 -51.0276
L32.2361 -51.2118
L32.0174 -51.3965
L31.8009 -51.5817
L31.5868 -51.7673
L31.3749 -51.9532
L31.1654 -52.1394
L30.9582 -52.3258
L30.7533 -52.5125
L30.5508 -52.6993
L30.3505 -52.8862
L30.1526 -53.0732
L29.9569 -53.2602
L29.7636 -53.4472
L29.5726 -53.6342
L29.384 -53.8211
L29.1976 -54.0079
L29.0135 -54.1946
L28.8318 -54.3811
L28.6523 -54.5675
L28.4751 -54.7536
L28.3002 -54.9395
L28.1276 -55.1252
L27.9573 -55.3106
L27.7893 -55.4957
L27.6236 -55.6805
L27.4601 -55.865
L27.2989 -56.0492
L27.14 -56.233
L26.9833 -56.4165
L26.829 -56.5997
L26.6769 -56.7825
L26.527 -56.9649
L26.3795 -57.147
L26.2342 -57.3287
L26.0912 -57.51
L25.9505 -57.6909
L25.8121 -57.8715
L25.6759 -58.0517
L25.5421 -58.2316
L25.4105 -58.4111
L25.2813 -58.5902
L25.1544 -58.769
L25.0299 -58.9474
L24.9076 -59.1255
L24.7878 -59.3033
L24.6703 -59.4808
L24.5553 -59.658
L24.4426 -59.8348
L24.3324 -60.0114
L24.2246 -60.1877
L24.1194 -60.3638
L24.0166 -60.5396
L23.9164 -60.7152
L23.8187 -60.8905
L23.7237 -61.0657
L23.6313 -61.2407
L23.9042 -61.4156
L24.3564 -61.8059
L24.8122 -62.013
L25.2714 -62.2123
L25.7338 -62.4035
L26.1994 -62.5868
L26.6679 -62.7619
L27.1393 -62.9288
L27.6134 -63.0876
L28.0901 -63.2381
L28.5691 -63.3803
L29.0504 -63.5142
L29.5339 -63.6397
L30.0193 -63.7568
L30.5065 -63.8654
L30.9954 -63.9655
L31.4858 -64.0572
L31.9776 -64.1402
L32.4707 -64.2147
L32.9648 -64.2806
L33.4598 -64.3379
L33.9556 -64.3866
L34.452 -64.4266
L34.9489 -64.4579
L35.4461 -64.4806
L35.9435 -64.4946
L36.4409 -64.4999
L36.9382 -64.4966
L37.4352 -64.4846
L37.9317 -64.4638
L38.4277 -64.4345
L38.9229 -64.3964
L39.4172 -64.3497
L39.9105 -64.2944
L40.4026 -64.2304
L40.8933 -64.1579
L41.3826 -64.0768
L41.8702 -63.9871
L42.3561 -63.8889
L42.84 -63.7822
L43.3218 -63.667
L43.8014 -63.5434
L44.2786 -63.4115
L44.7533 -63.2711
L45.2253 -63.1225
L45.6945 -62.9656
L46.1607 -62.8005
L46.6239 -62.6272
L47.0838 -62.4458
L47.5404 -62.2564
L47.9934 -62.059
L48.4428 -61.8536
L48.8884 -61.6403
L49.33 -61.4193
L49.7677 -61.1905
L50.2011 -60.954
L50.6301 -60.7099
L51.0548 -60.4583
L51.4748 -60.1993
L51.8901 -59.9328
L52.3006 -59.6591
L52.7062 -59.3782
L53.1066 -59.0901
L53.5018 -58.7951
L53.8917 -58.493
L54.2761 -58.1842
L54.655 -57.8685
L55.0282 -57.5462
L55.3956 -57.2174
L55.7571 -56.8821
L56.1126 -56.5404
L56.4619 -56.1924
L56.805 -55.8383
L57.1418 -55.4782
L57.4721 -55.1122
L57.7959 -54.7403
L58.1131 -54.3627
L58.4235 -53.9795
L58.7271 -53.5908
L59.0237 -53.1968
L59.3134 -52.7975
L59.5959 -52.3932
L59.8713 -51.9838
L60.1394 -51.5695
L60.4001 -51.1506
L60.6534 -50.727
L60.8992 -50.2989
L61.1374 -49.8664
L61.368 -49.4298
L61.5908 -48.989
L61.8059 -48.5443
L62.013 -48.0958
L62.2123 -47.6436
L62.4035 -47.1878
L62.5868 -46.7286
L62.7619 -46.2662
L62.9288 -45.8006
L63.0876 -45.3321
L63.2381 -44.8607
L63.3803 -44.3866
L63.5142 -43.9099
z
" id="C0_2_9206f82e2a"/>
    </defs>
    <g clip-path="url(#p1bffca34e9)">
     <use style="fill:#ff0000;stroke:#000000;stroke-width:2.0;" x="0.0" xlink:href="#C0_0_a811fe30f3" y="72.0"/>
    </g>
    <g clip-path="url(#p1bffca34e9)">
     <use style="fill:#ffffff;stroke:#000000;stroke-width:2.0;" x="0.0" xlink:href="#C0_1_b882489971" y="72.0"/>
    </g>
    <g clip-path="url(#p1bffca34e9)">
     <use style="fill:#ffffff;stroke:#000000;stroke-width:2.0;" x="0.0" xlink:href="#C0_2_9206f82e2a" y="72.0"/>
    </g>
   </g>
  </g>
 </g>
 <defs>
  <clipPath id="p1bffca34e9">
   <rect height="72.0" width="72.0" x="0.0" y="0.0"/>
  </clipPath>
 </defs>
</svg>
