<?xml version="1.0" encoding="utf-8" standalone="no"?>
<!DOCTYPE svg PUBLIC "-//W3C//DTD SVG 1.1//EN"
  "http://www.w3.org/Graphics/SVG/1.1/DTD/svg11.dtd">
<!-- Created with matplotlib (http://matplotlib.org/) -->
<svg height="72pt" version="1.1" viewBox="0 0 72 72" width="72pt" xmlns="http://www.w3.org/2000/svg" xmlns:xlink="http://www.w3.org/1999/xlink">
 <defs>
  <style type="text/css">
*{stroke-linecap:butt;stroke-linejoin:round;}
  </style>
 </defs>
 <g id="figure_1">
  <g id="patch_1">
   <path d="
M0 72
L72 72
L72 0
L0 0
z
" style="fill:none;"/>
  </g>
  <g id="axes_1">
   <g id="PatchCollection_1">
    <defs>
     <path d="
M36 -7.5
C43.5583 -7.5 50.808 -10.5029 56.1525 -15.8475
C61.4971 -21.192 64.5 -28.4417 64.5 -36
C64.5 -43.5583 61.4971 -50.808 56.1525 -56.1525
C50.808 -61.4971 43.5583 -64.5 36 -64.5
C28.4417 -64.5 21.192 -61.4971 15.8475 -56.1525
C10.5029 -50.808 7.5 -43.5583 7.5 -36
C7.5 -28.4417 10.5029 -21.192 15.8475 -15.8475
C21.192 -10.5029 28.4417 -7.5 36 -7.5
z
" id="C0_0_a811fe30f3"/>
     <path d="
M12.0154 -51.097
L12.1957 -51.0189
L12.376 -50.9406
L12.5562 -50.862
L12.7364 -50.7831
L12.9167 -50.7039
L13.097 -50.6245
L13.2773 -50.5448
L13.4578 -50.4647
L13.6384 -50.3844
L13.8191 -50.3038
L14 -50.2228
L14.1811 -50.1414
L14.3624 -50.0597
L14.5441 -49.9777
L14.726 -49.8952
L14.9083 -49.8124
L15.0909 -49.7291
L15.274 -49.6455
L15.4575 -49.5613
L15.6415 -49.4768
L15.826 -49.3917
L16.0111 -49.3062
L16.1969 -49.2201
L16.5703 -49.1335
L16.7581 -49.0464
L16.9466 -48.9587
L17.136 -48.8704
L17.3263 -48.7816
L17.5175 -48.6921
L17.7096 -48.6019
L17.9028 -48.5111
L18.097 -48.4196
L18.2924 -48.3274
L18.4888 -48.2344
L18.6866 -48.1407
L18.8855 -48.0462
L19.0858 -47.9508
L19.2875 -47.8547
L19.4905 -47.7577
L19.6951 -47.6598
L19.9012 -47.561
L20.1089 -47.4612
L20.3182 -47.3605
L20.5293 -47.2588
L20.7421 -47.156
L20.9567 -47.0523
L21.1733 -46.9474
L21.3918 -46.8414
L21.6123 -46.7343
L21.8348 -46.626
L22.0595 -46.5165
L22.2864 -46.4058
L22.5156 -46.2938
L22.7471 -46.1805
L22.981 -46.0659
L23.2173 -45.95
L23.4562 -45.8327
L23.6977 -45.714
L23.9418 -45.5938
L24.1886 -45.4722
L24.4382 -45.3491
L24.6907 -45.2245
L24.946 -45.0983
L25.2043 -44.9706
L25.4657 -44.8413
L25.7301 -44.7104
L25.9977 -44.5778
L26.2684 -44.4436
L26.5425 -44.3078
L26.8198 -44.1702
L27.1005 -44.031
L27.3845 -43.8902
L27.6721 -43.7476
L27.963 -43.6034
L28.2575 -43.4576
L28.5555 -43.3101
L28.8571 -43.1609
L29.1623 -43.0102
L29.471 -42.858
L29.7833 -42.7042
L30.0992 -42.5491
L30.4186 -42.3925
L30.7416 -42.2347
L31.0681 -42.0758
L31.398 -41.9157
L31.7314 -41.7547
L32.0681 -41.593
L32.4081 -41.4307
L32.7512 -41.2679
L33.0974 -41.105
L33.4466 -40.9422
L33.7985 -40.7798
L34.1531 -40.6181
L34.5101 -40.4574
L34.8693 -40.2983
L35.2307 -40.1412
L35.5938 -39.9866
L35.9584 -39.8351
L36.3242 -39.6874
L36.691 -39.5442
L37.0583 -39.4064
L37.4258 -39.2749
L37.793 -39.1508
L38.1596 -39.0351
L38.5251 -38.929
L38.8889 -38.834
L39.2506 -38.7513
L39.6096 -38.6825
L39.9655 -38.6291
L40.3176 -38.5925
L40.6655 -38.5741
L41.0087 -38.5752
L41.3468 -38.597
L41.6793 -38.6402
L42.0059 -38.7055
L42.3265 -38.793
L42.6408 -38.9027
L42.9486 -39.0339
L43.2501 -39.1859
L43.5451 -39.3576
L43.8336 -39.5477
L44.1158 -39.7549
L44.3917 -39.9776
L44.6614 -40.2144
L44.925 -40.4637
L45.1826 -40.7242
L45.4343 -40.9944
L45.6801 -41.273
L45.9202 -41.559
L46.1546 -41.8512
L46.3834 -42.1486
L46.6067 -42.4503
L46.8245 -42.7555
L47.0369 -43.0636
L47.2441 -43.3737
L47.4459 -43.6854
L47.6426 -43.998
L47.8342 -44.3112
L48.0208 -44.6244
L48.2023 -44.9374
L48.379 -45.2498
L48.5508 -45.5612
L48.7179 -45.8714
L48.8803 -46.1802
L49.0381 -46.4874
L49.1913 -46.7928
L49.3401 -47.0962
L49.4846 -47.3975
L49.6247 -47.6965
L49.7606 -47.9933
L49.8924 -48.2876
L50.0202 -48.5795
L50.1439 -48.8689
L50.2638 -49.1557
L50.3799 -49.4398
L50.4922 -49.7214
L50.6008 -50.0003
L50.7059 -50.2766
L50.8075 -50.5502
L50.9056 -50.8213
L51.0003 -51.0896
L51.0918 -51.3554
L51.18 -51.6187
L51.265 -51.8794
L51.347 -52.1376
L51.4259 -52.3933
L51.5018 -52.6466
L51.5748 -52.8975
L51.645 -53.146
L51.7123 -53.3923
L51.7769 -53.6363
L51.8388 -53.8781
L51.898 -54.1178
L51.9546 -54.3554
L52.0086 -54.591
L52.0601 -54.8245
L52.1091 -55.0562
L52.1557 -55.286
L52.1998 -55.514
L52.2416 -55.7402
L52.2809 -55.9647
L52.318 -56.1876
L52.3527 -56.4089
L52.3851 -56.6287
L52.4153 -56.8471
L52.4432 -57.064
L52.4689 -57.2796
L52.4923 -57.4938
L52.5136 -57.7069
L52.5326 -57.9187
L52.5494 -58.1295
L52.564 -58.3392
L52.5763 -58.5478
L52.5865 -58.7555
L52.5945 -58.9623
L52.1886 -59.1683
L51.7768 -59.4559
L51.3602 -59.7348
L50.9389 -60.0066
L50.513 -60.271
L50.0827 -60.528
L49.6481 -60.7776
L49.2094 -61.0196
L48.7667 -61.2539
L48.32 -61.4806
L47.8696 -61.6996
L47.4156 -61.9107
L46.9581 -62.1139
L46.4973 -62.3091
L46.0333 -62.4964
L45.5662 -62.6755
L45.0962 -62.8466
L44.6234 -63.0094
L44.148 -63.1641
L43.6702 -63.3104
L43.19 -63.4485
L42.7076 -63.5782
L42.2231 -63.6994
L41.7368 -63.8123
L41.2487 -63.9167
L40.759 -64.0125
L40.2679 -64.0999
L39.7754 -64.1786
L39.2818 -64.2488
L38.7873 -64.3104
L38.2918 -64.3634
L37.7957 -64.4077
L37.299 -64.4434
L36.8019 -64.4704
L36.3046 -64.4887
L35.8072 -64.4984
L35.3099 -64.4993
L34.8127 -64.4916
L34.3159 -64.4753
L33.8197 -64.4502
L33.3241 -64.4165
L32.8293 -64.3741
L32.3355 -64.3231
L31.8427 -64.2634
L31.3513 -64.1952
L30.8613 -64.1183
L30.3728 -64.0329
L29.8861 -63.9389
L29.4012 -63.8365
L28.9183 -63.7255
L28.4376 -63.6062
L27.9592 -63.4784
L27.4832 -63.3422
L27.0099 -63.1977
L26.5392 -63.0449
L26.0715 -62.8839
L25.6068 -62.7147
L25.1452 -62.5373
L24.687 -62.3519
L24.2322 -62.1585
L23.7809 -61.957
L23.3334 -61.7477
L22.8898 -61.5305
L22.4501 -61.3056
L22.0146 -61.0729
L21.5834 -60.8326
L21.1565 -60.5848
L20.7342 -60.3294
L20.3165 -60.0667
L19.9035 -59.7966
L19.4955 -59.5192
L19.0925 -59.2347
L18.6947 -58.9431
L18.3021 -58.6446
L17.915 -58.3391
L17.5333 -58.0268
L17.1572 -57.7078
L16.7869 -57.3823
L16.4225 -57.0501
L16.064 -56.7116
L15.7116 -56.3668
L15.3654 -56.0158
L15.0254 -55.6586
L14.6919 -55.2955
L14.3648 -54.9265
L14.0443 -54.5518
L13.7305 -54.1713
L13.4235 -53.7854
L13.1234 -53.394
L12.8302 -52.9974
L12.5441 -52.5955
L12.2652 -52.1886
z
" id="C0_1_36c45d02a9"/>
     <path d="
M19.5956 -12.9022
L19.7873 -12.9773
L19.9785 -13.054
L20.1694 -13.1323
L20.36 -13.2122
L20.5504 -13.2937
L20.7405 -13.3768
L20.9304 -13.4616
L21.1203 -13.548
L21.3101 -13.6359
L21.4999 -13.7256
L21.6898 -13.8168
L21.8798 -13.9097
L22.0699 -14.0043
L22.2602 -14.1005
L22.4508 -14.1985
L22.6417 -14.2981
L22.833 -14.3995
L23.0247 -14.5027
L23.2168 -14.6076
L23.4095 -14.7144
L23.6028 -14.823
L23.7966 -14.9334
L23.9911 -15.0458
L24.1864 -15.16
L24.3824 -15.2763
L24.5793 -15.3945
L24.777 -15.5148
L24.9757 -15.6371
L25.1753 -15.7616
L25.376 -15.8882
L25.5778 -16.017
L25.7807 -16.1481
L25.9847 -16.2814
L26.1901 -16.4171
L26.3967 -16.5551
L26.6047 -16.6956
L26.814 -16.8385
L27.0248 -16.984
L27.2371 -17.1321
L27.451 -17.2828
L27.6664 -17.4361
L27.8835 -17.5923
L28.1023 -17.7512
L28.3228 -17.9129
L28.5451 -18.0775
L28.7693 -18.2451
L28.9953 -18.4157
L29.2233 -18.5894
L29.4532 -18.7661
L29.6852 -18.9461
L29.9192 -19.1292
L30.1553 -19.3155
L30.3935 -19.5052
L30.6339 -19.6982
L30.8765 -19.8946
L31.1213 -20.0944
L31.3684 -20.2976
L31.6177 -20.5043
L31.8694 -20.7144
L32.1234 -20.9281
L32.3797 -21.1452
L32.6384 -21.3659
L32.8994 -21.5899
L33.1628 -21.8175
L33.4286 -22.0484
L33.6967 -22.2827
L33.9672 -22.5202
L34.2401 -22.761
L34.5153 -23.0048
L34.7928 -23.2516
L35.0726 -23.5011
L35.3547 -23.7533
L35.639 -24.0079
L35.9255 -24.2647
L36.2142 -24.5233
L36.505 -24.7835
L36.7979 -25.0449
L37.0929 -25.307
L37.3899 -25.5694
L37.6889 -25.8316
L37.9898 -26.0929
L38.2927 -26.3526
L38.5974 -26.6101
L38.9041 -26.8643
L39.2126 -27.1143
L39.523 -27.3591
L39.8354 -27.5976
L40.1498 -27.8283
L40.4661 -28.0501
L40.7845 -28.2613
L41.1051 -28.4606
L41.428 -28.6462
L41.7531 -28.8167
L42.0807 -28.9706
L42.4107 -29.1065
L42.7431 -29.2232
L43.0781 -29.3198
L43.4154 -29.3955
L43.7549 -29.4502
L44.0965 -29.4839
L44.4399 -29.4969
L44.7848 -29.4901
L45.1308 -29.4642
L45.4776 -29.4206
L45.8247 -29.3604
L46.1717 -29.2852
L46.5181 -29.1963
L46.8637 -29.095
L47.2079 -28.9828
L47.5505 -28.8609
L47.8909 -28.7304
L48.2291 -28.5925
L48.5645 -28.4481
L48.897 -28.2982
L49.2263 -28.1436
L49.5522 -27.9849
L49.8744 -27.8229
L50.1929 -27.6582
L50.5075 -27.4913
L50.8179 -27.3226
L51.1242 -27.1525
L51.4263 -26.9815
L51.7239 -26.8099
L52.0172 -26.6379
L52.306 -26.4658
L52.5903 -26.2939
L52.87 -26.1223
L53.1453 -25.9513
L53.416 -25.7809
L53.6821 -25.6113
L53.9438 -25.4427
L54.2009 -25.2751
L54.4536 -25.1086
L54.7019 -24.9433
L54.9458 -24.7792
L55.1854 -24.6165
L55.4207 -24.4551
L55.6518 -24.295
L55.8787 -24.1364
L56.1015 -23.9792
L56.3203 -23.8234
L56.5351 -23.6691
L56.746 -23.5162
L56.9531 -23.3647
L57.1564 -23.2147
L57.3561 -23.066
L57.5521 -22.9188
L57.7446 -22.773
L57.9336 -22.6285
L58.1192 -22.4854
L58.3015 -22.3436
L58.4805 -22.203
L58.6563 -22.0638
L58.829 -21.9257
L58.9987 -21.7889
L59.1654 -21.6532
L59.3291 -21.5187
L59.49 -21.3853
L59.6481 -21.2529
L59.8035 -21.1216
L59.9562 -20.9913
L59.8675 -20.8619
L59.592 -20.4246
L59.3093 -20.0104
L59.0196 -19.6011
L58.7228 -19.1968
L58.4191 -18.7976
L58.1086 -18.4036
L57.7914 -18.0151
L57.4675 -17.6319
L57.1371 -17.2544
L56.8002 -16.8826
L56.457 -16.5166
L56.1076 -16.1566
L55.752 -15.8026
L55.3905 -15.4547
L55.023 -15.1132
L54.6497 -14.7779
L54.2707 -14.4492
L53.8862 -14.127
L53.4963 -13.8114
L53.101 -13.5026
L52.7005 -13.2007
L52.2949 -12.9057
L51.8843 -12.6178
L51.4689 -12.337
L51.0488 -12.0634
L50.6241 -11.797
L50.195 -11.5381
L49.7615 -11.2866
L49.3238 -11.0426
L48.8821 -10.8062
L48.4365 -10.5775
L47.987 -10.3566
L47.5339 -10.1435
L47.0773 -9.93819
L46.6174 -9.74086
L46.1542 -9.55153
L45.6879 -9.37026
L45.2186 -9.1971
L44.7466 -9.03211
L44.2718 -8.87533
L43.7946 -8.72681
L43.315 -8.5866
L42.8331 -8.45474
L42.3492 -8.33128
L41.8633 -8.21623
L41.3757 -8.10966
L40.8864 -8.01158
L40.3956 -7.92202
L39.9035 -7.84102
L39.4102 -7.76859
L38.9159 -7.70476
L38.4207 -7.64956
L37.9247 -7.60299
L37.4281 -7.56506
L36.9312 -7.5358
L36.4339 -7.51522
L35.9365 -7.5033
L35.4391 -7.50007
L34.9419 -7.50552
L34.445 -7.51965
L33.9486 -7.54245
L33.4528 -7.57393
L32.9578 -7.61406
L32.4637 -7.66284
L31.9707 -7.72025
L31.4789 -7.78627
L30.9885 -7.86089
L30.4996 -7.94408
L30.0124 -8.03581
L29.527 -8.13607
L29.0436 -8.24481
L28.5623 -8.36201
L28.0833 -8.48762
L27.6067 -8.62162
L27.1326 -8.76395
L26.6613 -8.91458
L26.1928 -9.07347
L25.7272 -9.24055
L25.2649 -9.41578
L24.8057 -9.59912
L24.35 -9.79049
L23.8978 -9.98985
L23.4494 -10.1971
L23.0047 -10.4123
L22.564 -10.6352
L22.1274 -10.8659
L21.695 -11.1042
L21.267 -11.3501
L20.8435 -11.6035
L20.4246 -11.8643
L20.0104 -12.1325
z
" id="C0_2_01a1d3e58b"/>
    </defs>
    <g clip-path="url(#p1bffca34e9)">
     <use style="fill:#ffffff;stroke:#000000;stroke-width:2.0;" x="0.0" xlink:href="#C0_0_a811fe30f3" y="72.0"/>
    </g>
    <g clip-path="url(#p1bffca34e9)">
     <use style="fill:#ff0000;stroke:#000000;stroke-width:2.0;" x="0.0" xlink:href="#C0_1_36c45d02a9" y="72.0"/>
    </g>
    <g clip-path="url(#p1bffca34e9)">
     <use style="fill:#ff0000;stroke:#000000;stroke-width:2.0;" x="0.0" xlink:href="#C0_2_01a1d3e58b" y="72.0"/>
    </g>
   </g>
  </g>
 </g>
 <defs>
  <clipPath id="p1bffca34e9">
   <rect height="72.0" width="72.0" x="0.0" y="0.0"/>
  </clipPath>
 </defs>
</svg>
