<?xml version="1.0" encoding="utf-8" standalone="no"?>
<!DOCTYPE svg PUBLIC "-//W3C//DTD SVG 1.1//EN"
  "http://www.w3.org/Graphics/SVG/1.1/DTD/svg11.dtd">
<!-- Created with matplotlib (http://matplotlib.org/) -->
<svg height="72pt" version="1.1" viewBox="0 0 72 72" width="72pt" xmlns="http://www.w3.org/2000/svg" xmlns:xlink="http://www.w3.org/1999/xlink">
 <defs>
  <style type="text/css">
*{stroke-linecap:butt;stroke-linejoin:round;}
  </style>
 </defs>
 <g id="figure_1">
  <g id="patch_1">
   <path d="
M0 72
L72 72
L72 0
L0 0
z
" style="fill:none;"/>
  </g>
  <g id="axes_1">
   <g id="PatchCollection_1">
    <defs>
     <path d="
M36 -7.5
C43.5583 -7.5 50.808 -10.5029 56.1525 -15.8475
C61.4971 -21.192 64.5 -28.4417 64.5 -36
C64.5 -43.5583 61.4971 -50.808 56.1525 -56.1525
C50.808 -61.4971 43.5583 -64.5 36 -64.5
C28.4417 -64.5 21.192 -61.4971 15.8475 -56.1525
C10.5029 -50.808 7.5 -43.5583 7.5 -36
C7.5 -28.4417 10.5029 -21.192 15.8475 -15.8475
C21.192 -10.5029 28.4417 -7.5 36 -7.5
z
" id="C0_0_a811fe30f3"/>
     <path d="
M8.18048 -42.0356
L8.43644 -42.2176
L8.69523 -42.3715
L8.95629 -42.4976
L9.21919 -42.5965
L9.48355 -42.669
L9.74906 -42.7162
L10.0155 -42.7394
L10.2827 -42.74
L10.5505 -42.7194
L10.8189 -42.6793
L11.0877 -42.6213
L11.3571 -42.5469
L11.6269 -42.4577
L11.8971 -42.3552
L12.1678 -42.2407
L12.4389 -42.1157
L12.7105 -41.9812
L12.9824 -41.8385
L13.2547 -41.6886
L13.5273 -41.5324
L13.8002 -41.3708
L14.0733 -41.2045
L14.3465 -41.0344
L14.6198 -40.8609
L14.8932 -40.6848
L15.1664 -40.5065
L15.4396 -40.3264
L15.7125 -40.1451
L15.9851 -39.9628
L16.2573 -39.7799
L16.5291 -39.5967
L16.8004 -39.4134
L17.0711 -39.2303
L17.3412 -39.0477
L17.6105 -38.8655
L17.8791 -38.6841
L18.1468 -38.5036
L18.4136 -38.3241
L18.6796 -38.1457
L18.9445 -37.9684
L19.2084 -37.7925
L19.4713 -37.6178
L19.7332 -37.4446
L19.9939 -37.2728
L20.2535 -37.1025
L20.512 -36.9337
L20.7693 -36.7664
L21.0255 -36.6007
L21.2805 -36.4365
L21.5343 -36.2739
L21.787 -36.1128
L22.0385 -35.9534
L22.2888 -35.7954
L22.5381 -35.639
L22.7861 -35.4842
L23.0331 -35.3308
L23.279 -35.179
L23.5237 -35.0286
L23.7675 -34.8796
L24.0101 -34.7321
L24.2518 -34.5861
L24.4925 -34.4413
L24.7323 -34.298
L24.9711 -34.1559
L25.209 -34.0152
L25.4461 -33.8757
L25.6823 -33.7375
L25.9178 -33.6004
L26.1525 -33.4646
L26.3865 -33.3299
L26.6198 -33.1963
L26.8525 -33.0637
L27.0846 -32.9323
L27.3161 -32.8018
L27.5471 -32.6724
L27.7777 -32.5439
L28.0078 -32.4163
L28.2375 -32.2897
L28.4669 -32.1639
L28.6959 -32.0389
L28.9248 -31.9148
L29.1534 -31.7914
L29.3818 -31.6688
L29.6102 -31.5469
L29.8385 -31.4257
L30.0667 -31.3051
L30.295 -31.1852
L30.5233 -31.0659
L30.7518 -30.9472
L30.9804 -30.8291
L31.4383 -30.7115
L31.6678 -30.5943
L31.8975 -30.4777
L32.1277 -30.3615
L32.3584 -30.2458
L32.5895 -30.1304
L32.8213 -30.0154
L33.0536 -29.9008
L33.2866 -29.7865
L33.5203 -29.6726
L33.7548 -29.5589
L33.9901 -29.4455
L34.2263 -29.3323
L34.4634 -29.2194
L34.7014 -29.1067
L34.9405 -28.9941
L35.1807 -28.8817
L35.4219 -28.7695
L35.6644 -28.6574
L35.9081 -28.5454
L36.153 -28.4334
L36.3993 -28.3216
L36.647 -28.2098
L36.8961 -28.0981
L37.1467 -27.9864
L37.3988 -27.8747
L37.6525 -27.763
L37.9078 -27.6512
L38.1648 -27.5395
L38.4235 -27.4277
L38.684 -27.3159
L38.9463 -27.2039
L39.2104 -27.0919
L39.4765 -26.9799
L39.7444 -26.8677
L40.0143 -26.7554
L40.2863 -26.643
L40.5602 -26.5305
L40.8363 -26.4178
L41.1144 -26.3051
L41.3946 -26.1921
L41.6769 -26.0791
L41.9614 -25.9658
L42.2481 -25.8525
L42.5369 -25.7389
L42.8278 -25.6252
L43.1209 -25.5113
L43.4162 -25.3973
L43.7135 -25.283
L44.013 -25.1686
L44.3145 -25.054
L44.618 -24.9392
L44.9234 -24.8241
L45.2308 -24.7089
L45.5399 -24.5934
L45.8507 -24.4777
L46.1631 -24.3616
L46.477 -24.2453
L46.7923 -24.1287
L47.1087 -24.0117
L47.4261 -23.8943
L47.7443 -23.7764
L48.063 -23.658
L48.3821 -23.539
L48.7013 -23.4193
L49.0202 -23.2989
L49.3385 -23.1775
L49.6559 -23.0551
L49.9719 -22.9314
L50.286 -22.8064
L50.5979 -22.6797
L50.9069 -22.5512
L51.2124 -22.4205
L51.5139 -22.2873
L51.8105 -22.1513
L52.1015 -22.012
L52.3861 -21.8689
L52.6635 -21.7217
L52.9325 -21.5695
L53.1922 -21.412
L53.4415 -21.2483
L53.6792 -21.0777
L53.9041 -20.8996
L54.115 -20.713
L54.3107 -20.5172
L54.4898 -20.3115
L54.6513 -20.095
L54.7938 -19.867
L54.9164 -19.627
L55.0182 -19.3745
L55.0982 -19.1092
L55.1559 -18.8308
L55.1909 -18.5395
L55.2027 -18.2355
L55.1915 -17.9192
L55.1572 -17.5911
L55.1001 -17.2522
L55.0206 -16.9033
L54.9191 -16.5455
L54.7964 -16.1798
L54.6529 -15.8074
L54.4895 -15.4295
L54.3068 -15.0473
L54.1057 -14.662
L53.887 -14.2746
L53.5338 -13.8863
L53.1391 -13.5319
L52.739 -13.2293
L52.3339 -12.9337
L51.9238 -12.6451
L51.5089 -12.3636
L51.0892 -12.0893
L50.665 -11.8222
L50.2363 -11.5626
L49.8032 -11.3103
L49.3659 -11.0656
L48.9246 -10.8285
L48.4793 -10.5991
L48.0302 -10.3774
L47.5775 -10.1635
L47.1212 -9.9575
L46.6616 -9.75942
L46.1987 -9.56932
L45.7327 -9.38728
L45.2637 -9.21334
L44.7919 -9.04756
L44.3174 -8.88999
L43.8404 -8.74068
L43.361 -8.59967
L42.8794 -8.46701
L42.3956 -8.34274
L41.91 -8.22689
L41.4225 -8.1195
L40.9333 -8.0206
L40.4427 -7.93023
L39.9507 -7.8484
L39.4575 -7.77516
L38.9633 -7.71051
L38.4681 -7.65447
L37.9722 -7.60707
L37.4757 -7.56832
L36.9788 -7.53823
L36.4815 -7.51681
L35.9841 -7.50407
L35.4867 -7.5
L34.9895 -7.50462
L34.4926 -7.51792
L33.9961 -7.53989
L33.5003 -7.57054
L33.0052 -7.60984
L32.511 -7.65779
L32.0179 -7.71437
L31.5259 -7.77957
L31.0354 -7.85337
L30.5464 -7.93574
L30.059 -8.02666
L29.5734 -8.1261
L29.0898 -8.23403
L28.6083 -8.35041
L28.1291 -8.47523
L27.6522 -8.60842
L27.1779 -8.74996
L26.7063 -8.8998
L26.2375 -9.05789
L25.7717 -9.22419
L25.309 -9.39865
L24.8496 -9.58121
L24.3935 -9.77182
L23.941 -9.97041
L23.4922 -10.1769
L23.0471 -10.3913
L22.6061 -10.6135
L22.169 -10.8434
L21.7363 -11.081
L21.3078 -11.3262
L20.8838 -11.5789
L20.4645 -11.839
L20.0498 -12.1065
L19.6401 -12.3813
L19.2353 -12.6633
L18.8356 -12.9523
L18.4411 -13.2484
L18.052 -13.5515
L17.6684 -13.8613
L17.2903 -14.1779
L16.918 -14.5012
L16.5514 -14.831
L16.1908 -15.1672
L15.8362 -15.5098
L15.4878 -15.8587
L15.1456 -16.2137
L14.8098 -16.5747
L14.4804 -16.9416
L14.1575 -17.3143
L13.8414 -17.6927
L13.5319 -18.0767
L13.2293 -18.4662
L12.9337 -18.8609
L12.6451 -19.261
L12.3636 -19.6661
L12.0893 -20.0762
L11.8222 -20.4911
L11.5626 -20.9108
L11.3103 -21.335
L11.0656 -21.7637
L10.8285 -22.1968
L10.5991 -22.6341
L10.3774 -23.0754
L10.1635 -23.5207
L9.9575 -23.9698
L9.75942 -24.4225
L9.56932 -24.8788
L9.38728 -25.3384
L9.21334 -25.8013
L9.04756 -26.2673
L8.88999 -26.7363
L8.74068 -27.2081
L8.59967 -27.6826
L8.46701 -28.1596
L8.34274 -28.639
L8.22689 -29.1206
L8.1195 -29.6044
L8.0206 -30.09
L7.93023 -30.5775
L7.8484 -31.0667
L7.77516 -31.5573
L7.71051 -32.0493
L7.65447 -32.5425
L7.60707 -33.0367
L7.56832 -33.5319
L7.53823 -34.0278
L7.51681 -34.5243
L7.50407 -35.0212
L7.5 -35.5185
L7.50462 -36.0159
L7.51792 -36.5133
L7.53989 -37.0105
L7.57054 -37.5074
L7.60984 -38.0039
L7.65779 -38.4997
L7.71437 -38.9948
L7.77957 -39.489
L7.85337 -39.9821
L7.93574 -40.4741
L8.02666 -40.9646
z
" id="C0_1_3380620db8"/>
     <path d="
M18.4712 -58.3458
L18.9063 -58.4867
L19.3452 -58.6254
L19.7871 -58.7611
L20.2315 -58.8932
L20.6778 -59.0211
L21.1255 -59.1443
L21.574 -59.2625
L22.0229 -59.3754
L22.4717 -59.4826
L22.92 -59.5839
L23.3675 -59.6793
L23.8137 -59.7686
L24.2585 -59.8517
L24.7014 -59.9286
L25.1422 -59.9992
L25.5807 -60.0637
L26.0167 -60.122
L26.4499 -60.1742
L26.8802 -60.2204
L27.3074 -60.2606
L27.7314 -60.295
L28.152 -60.3236
L28.5693 -60.3466
L28.983 -60.3642
L29.3931 -60.3763
L29.7995 -60.3832
L30.2023 -60.385
L30.6013 -60.3818
L30.9965 -60.3737
L31.3879 -60.3609
L31.7756 -60.3435
L32.1594 -60.3217
L32.5395 -60.2954
L32.9158 -60.265
L33.2883 -60.2304
L33.6572 -60.1918
L34.0223 -60.1494
L34.3838 -60.1031
L34.7417 -60.0532
L35.096 -59.9997
L35.4468 -59.9427
L35.7942 -59.8823
L36.1381 -59.8186
L36.4787 -59.7517
L36.816 -59.6816
L37.1501 -59.6085
L37.481 -59.5323
L37.8088 -59.4532
L38.1335 -59.3712
L38.4553 -59.2864
L38.7742 -59.1988
L39.0902 -59.1085
L39.4034 -59.0155
L39.7139 -58.9199
L40.0218 -58.8217
L40.3271 -58.721
L40.6298 -58.6177
L40.9302 -58.5119
L41.2281 -58.4037
L41.5237 -58.293
L41.8171 -58.1799
L42.1082 -58.0643
L42.3972 -57.9464
L42.6842 -57.8261
L42.9691 -57.7034
L43.2521 -57.5783
L43.5332 -57.4508
L43.8125 -57.3209
L44.09 -57.1887
L44.3658 -57.0541
L44.6399 -56.917
L44.9124 -56.7776
L45.1833 -56.6357
L45.4528 -56.4913
L45.7207 -56.3445
L45.9873 -56.1952
L46.2525 -56.0434
L46.5164 -55.8891
L46.779 -55.7321
L47.0404 -55.5726
L47.3006 -55.4104
L47.5596 -55.2456
L47.8175 -55.078
L48.0744 -54.9077
L48.3302 -54.7346
L48.585 -54.5586
L48.8389 -54.3798
L49.0918 -54.198
L49.3438 -54.0132
L49.5949 -53.8253
L49.8451 -53.6344
L50.0945 -53.4403
L50.343 -53.2429
L50.5908 -53.0423
L50.8378 -52.8383
L51.0839 -52.6309
L51.3294 -52.4201
L51.574 -52.2056
L51.8179 -51.9875
L52.061 -51.7657
L52.3034 -51.5402
L52.5451 -51.3108
L52.7859 -51.0774
L53.026 -50.8401
L53.2652 -50.5986
L53.5037 -50.353
L53.7413 -50.1031
L53.9781 -49.8488
L54.214 -49.5902
L54.4489 -49.327
L54.6829 -49.0593
L54.9159 -48.7869
L55.1478 -48.5097
L55.3786 -48.2277
L55.6082 -47.9408
L55.8367 -47.6489
L56.0638 -47.352
L56.2896 -47.0499
L56.5139 -46.7426
L56.7367 -46.4301
L56.9578 -46.1122
L57.1773 -45.789
L57.395 -45.4604
L57.6107 -45.1263
L57.8245 -44.7868
L58.0361 -44.4417
L58.2454 -44.0912
L58.4524 -43.7352
L58.6569 -43.3736
L58.8589 -43.0067
L59.058 -42.6343
L59.2543 -42.2566
L59.4476 -41.8737
L59.6378 -41.4857
L59.8247 -41.0926
L60.0083 -40.6947
L60.1883 -40.2922
L60.3648 -39.8853
L60.5377 -39.4742
L60.7067 -39.0593
L60.872 -38.6408
L61.0333 -38.2192
L61.1908 -37.7948
L61.3445 -37.3683
L61.4943 -36.94
L61.6403 -36.5107
L61.7827 -36.0809
L61.9216 -35.6514
L62.0573 -35.2229
L62.19 -34.7965
L62.32 -34.3729
L62.4478 -33.9533
L62.5739 -33.5388
L62.6987 -33.1304
L62.823 -32.7295
L62.9472 -32.3373
L63.0723 -31.9552
L63.199 -31.5846
L63.3281 -31.2268
L63.4604 -30.8833
L63.5967 -30.5552
L64.0023 -30.2438
L64.0906 -30.697
L64.1703 -31.1865
L64.2414 -31.6774
L64.304 -32.1697
L64.3579 -32.6632
L64.4032 -33.1577
L64.4398 -33.653
L64.4678 -34.1491
L64.4871 -34.6457
L64.4977 -35.1428
L64.4997 -35.6401
L64.4929 -36.1375
L64.4775 -36.6348
L64.4534 -37.132
L64.4207 -37.6288
L64.3792 -38.1252
L64.3292 -38.6209
L64.2705 -39.1157
L64.2032 -39.6097
L64.1273 -40.1025
L64.0428 -40.5941
L63.9498 -41.0843
L63.8483 -41.5729
L63.7383 -42.0599
L63.6198 -42.545
L63.493 -43.0281
L63.3577 -43.509
L63.2142 -43.9877
L63.0623 -44.464
L62.9022 -44.9376
L62.7339 -45.4086
L62.5575 -45.8766
L62.3729 -46.3417
L62.1804 -46.8036
L61.9798 -47.2622
L61.7714 -47.7174
L61.5551 -48.1691
L61.331 -48.617
L61.0992 -49.0611
L60.8597 -49.5012
L60.6127 -49.9371
L60.3582 -50.3689
L60.0962 -50.7962
L59.827 -51.2191
L59.5504 -51.6373
L59.2667 -52.0508
L58.9759 -52.4593
L58.6781 -52.8629
L58.3734 -53.2613
L58.0619 -53.6545
L57.7436 -54.0423
L57.4188 -54.4245
L57.0874 -54.8012
L56.7496 -55.1722
L56.4055 -55.5373
L56.0551 -55.8964
L55.6986 -56.2495
L55.3362 -56.5964
L54.9678 -56.9371
L54.5937 -57.2714
L54.2139 -57.5992
L53.8286 -57.9204
L53.4378 -58.2349
L53.0417 -58.5427
L52.6405 -58.8436
L52.2341 -59.1375
L51.8228 -59.4244
L51.4067 -59.7042
L50.9859 -59.9767
L50.5606 -60.2419
L50.1308 -60.4998
L49.6967 -60.7502
L49.2584 -60.993
L48.8161 -61.2283
L48.3699 -61.4558
L47.9199 -61.6756
L47.4663 -61.8876
L47.0092 -62.0917
L46.5487 -62.2878
L46.085 -62.4759
L45.6183 -62.656
L45.1486 -62.8279
L44.6761 -62.9917
L44.201 -63.1473
L43.7234 -63.2946
L43.2435 -63.4335
L42.7613 -63.5641
L42.2771 -63.6864
L41.7909 -63.8001
L41.303 -63.9055
L40.8135 -64.0023
L40.3226 -64.0906
L39.8303 -64.1703
L39.3368 -64.2414
L38.8423 -64.304
L38.347 -64.3579
L37.8509 -64.4032
L37.3543 -64.4398
L36.8572 -64.4678
L36.3599 -64.4871
L35.8625 -64.4977
L35.3652 -64.4997
L34.868 -64.4929
L34.3712 -64.4775
L33.8748 -64.4534
L33.3791 -64.4207
L32.8843 -64.3792
L32.3903 -64.3292
L31.8975 -64.2705
L31.4059 -64.2032
L30.9157 -64.1273
L30.4271 -64.0428
L29.9401 -63.9498
L29.455 -63.8483
L28.9719 -63.7383
L28.491 -63.6198
L28.0123 -63.493
L27.536 -63.3577
L27.0624 -63.2142
L26.5914 -63.0623
L26.1234 -62.9022
L25.6583 -62.7339
L25.1964 -62.5575
L24.7378 -62.3729
L24.2826 -62.1804
L23.8309 -61.9798
L23.383 -61.7714
L22.9389 -61.5551
L22.4988 -61.331
L22.0629 -61.0992
L21.6311 -60.8597
L21.2038 -60.6127
L20.7809 -60.3582
L20.3627 -60.0962
L19.9492 -59.827
L19.5407 -59.5504
L19.1371 -59.2667
z
" id="C0_2_6463890f53"/>
    </defs>
    <g clip-path="url(#p1bffca34e9)">
     <use style="fill:#ff0000;stroke:#000000;stroke-width:2.0;" x="0.0" xlink:href="#C0_0_a811fe30f3" y="72.0"/>
    </g>
    <g clip-path="url(#p1bffca34e9)">
     <use style="fill:#ffffff;stroke:#000000;stroke-width:2.0;" x="0.0" xlink:href="#C0_1_3380620db8" y="72.0"/>
    </g>
    <g clip-path="url(#p1bffca34e9)">
     <use style="fill:#ffffff;stroke:#000000;stroke-width:2.0;" x="0.0" xlink:href="#C0_2_6463890f53" y="72.0"/>
    </g>
   </g>
  </g>
 </g>
 <defs>
  <clipPath id="p1bffca34e9">
   <rect height="72.0" width="72.0" x="0.0" y="0.0"/>
  </clipPath>
 </defs>
</svg>
