<?xml version="1.0" encoding="utf-8" standalone="no"?>
<!DOCTYPE svg PUBLIC "-//W3C//DTD SVG 1.1//EN"
  "http://www.w3.org/Graphics/SVG/1.1/DTD/svg11.dtd">
<!-- Created with matplotlib (http://matplotlib.org/) -->
<svg height="72pt" version="1.1" viewBox="0 0 72 72" width="72pt" xmlns="http://www.w3.org/2000/svg" xmlns:xlink="http://www.w3.org/1999/xlink">
 <defs>
  <style type="text/css">
*{stroke-linecap:butt;stroke-linejoin:round;}
  </style>
 </defs>
 <g id="figure_1">
  <g id="patch_1">
   <path d="
M0 72
L72 72
L72 0
L0 0
z
" style="fill:none;"/>
  </g>
  <g id="axes_1">
   <g id="PatchCollection_1">
    <defs>
     <path d="
M36 -7.5
C43.5583 -7.5 50.808 -10.5029 56.1525 -15.8475
C61.4971 -21.192 64.5 -28.4417 64.5 -36
C64.5 -43.5583 61.4971 -50.808 56.1525 -56.1525
C50.808 -61.4971 43.5583 -64.5 36 -64.5
C28.4417 -64.5 21.192 -61.4971 15.8475 -56.1525
C10.5029 -50.808 7.5 -43.5583 7.5 -36
C7.5 -28.4417 10.5029 -21.192 15.8475 -15.8475
C21.192 -10.5029 28.4417 -7.5 36 -7.5
z
" id="C0_0_a811fe30f3"/>
     <path d="
M17.6531 -14.3324
L17.9823 -14.3517
L18.3072 -14.3758
L18.628 -14.4045
L18.9447 -14.4374
L19.2573 -14.4745
L19.5659 -14.5154
L19.8707 -14.56
L20.1716 -14.6081
L20.4688 -14.6595
L20.7623 -14.714
L21.0522 -14.7715
L21.3386 -14.8318
L21.6216 -14.8949
L21.9012 -14.9605
L22.1776 -15.0286
L22.4509 -15.0989
L22.721 -15.1716
L22.9882 -15.2463
L23.2524 -15.3231
L23.5138 -15.4018
L23.7725 -15.4824
L24.0285 -15.5648
L24.282 -15.649
L24.5329 -15.7348
L24.7815 -15.8222
L25.0277 -15.9112
L25.2716 -16.0017
L25.5134 -16.0937
L25.7531 -16.1872
L25.9907 -16.282
L26.2264 -16.3782
L26.4603 -16.4757
L26.6924 -16.5745
L26.9227 -16.6747
L27.1514 -16.7761
L27.3785 -16.8787
L27.6041 -16.9827
L27.8283 -17.0878
L28.0511 -17.1942
L28.2727 -17.3019
L28.4929 -17.4107
L28.7121 -17.5208
L28.9301 -17.6322
L29.1471 -17.7447
L29.3631 -17.8585
L29.5782 -17.9736
L29.7925 -18.0899
L30.006 -18.2075
L30.2187 -18.3265
L30.4308 -18.4467
L30.6423 -18.5682
L31.0637 -18.6911
L31.2737 -18.8154
L31.4834 -18.9411
L31.6927 -19.0682
L31.9018 -19.1968
L32.1107 -19.3269
L32.3194 -19.4584
L32.5281 -19.5916
L32.7367 -19.7263
L32.9453 -19.8626
L33.154 -20.0006
L33.3628 -20.1403
L33.5718 -20.2818
L33.781 -20.425
L33.9904 -20.5701
L34.2002 -20.7171
L34.4104 -20.866
L34.6211 -21.0169
L34.8322 -21.1698
L35.0438 -21.3248
L35.256 -21.4819
L35.4688 -21.6413
L35.6823 -21.8029
L35.8965 -21.9669
L36.1115 -22.1332
L36.3273 -22.302
L36.544 -22.4734
L36.7616 -22.6473
L36.9801 -22.8239
L37.1996 -23.0032
L37.4201 -23.1853
L37.6417 -23.3703
L37.8644 -23.5583
L38.0882 -23.7494
L38.3132 -23.9435
L38.5395 -24.1409
L38.7669 -24.3416
L38.9957 -24.5456
L39.2257 -24.7531
L39.4571 -24.9642
L39.6898 -25.1789
L39.9239 -25.3974
L40.1594 -25.6196
L40.3963 -25.8458
L40.6346 -26.0761
L40.8744 -26.3104
L41.1155 -26.5489
L41.3581 -26.7917
L41.6021 -27.0388
L41.8475 -27.2904
L42.0943 -27.5466
L42.3424 -27.8074
L42.5919 -28.073
L42.8427 -28.3433
L43.0948 -28.6185
L43.3481 -28.8987
L43.6026 -29.1838
L43.8582 -29.4741
L44.1148 -29.7695
L44.3724 -30.07
L44.6309 -30.3758
L44.8901 -30.6868
L45.1501 -31.003
L45.4106 -31.3246
L45.6716 -31.6514
L45.933 -31.9834
L46.1945 -32.3206
L46.4562 -32.663
L46.7177 -33.0104
L46.979 -33.3628
L47.24 -33.7201
L47.5004 -34.0819
L47.7601 -34.4483
L48.0189 -34.8189
L48.2768 -35.1934
L48.5334 -35.5716
L48.7888 -35.953
L49.0428 -36.337
L49.2954 -36.7231
L49.5464 -37.1106
L49.7961 -37.4984
L50.0444 -37.8854
L50.2919 -38.27
L50.5388 -38.6501
L50.7862 -39.0231
L51.0352 -39.3851
L51.2878 -39.731
L51.5467 -40.0535
L51.8154 -40.3427
L52.0979 -40.5863
L52.3976 -40.7701
L52.7158 -40.8819
L53.051 -40.9162
L53.3995 -40.8766
L53.757 -40.7736
L54.1194 -40.6201
L54.4837 -40.4279
L54.8474 -40.2062
L55.2087 -39.9619
L55.5664 -39.7002
L55.9194 -39.4245
L56.2669 -39.1377
L56.6084 -38.8418
L56.9434 -38.5382
L57.2714 -38.2282
L57.5923 -37.9128
L57.9056 -37.5928
L58.2113 -37.2688
L58.5092 -36.9414
L58.7991 -36.6112
L59.081 -36.2785
L59.3547 -35.9438
L59.6203 -35.6074
L59.8778 -35.2696
L60.1271 -34.9307
L60.3682 -34.591
L60.6013 -34.2506
L60.8262 -33.9099
L61.0432 -33.5689
L61.2522 -33.2279
L61.4533 -32.8871
L61.6467 -32.5465
L61.8324 -32.2063
L62.0105 -31.8666
L62.1811 -31.5276
L62.3444 -31.1893
L62.5004 -30.8519
L62.6492 -30.5153
L62.7911 -30.1796
L62.926 -29.845
L63.0541 -29.5114
L63.1756 -29.1789
L63.2904 -28.8476
L63.3988 -28.5174
L63.2672 -28.1883
L63.1184 -27.7086
L62.9613 -27.234
L62.7959 -26.762
L62.6224 -26.2929
L62.4408 -25.8267
L62.2512 -25.3636
L62.0535 -24.9038
L61.8479 -24.4474
L61.6345 -23.9944
L61.4132 -23.5451
L61.1842 -23.0997
L60.9475 -22.6581
L60.7032 -22.2206
L60.4514 -21.7873
L60.1922 -21.3583
L59.9255 -20.9338
L59.6516 -20.5139
L59.3705 -20.0987
L59.0823 -19.6884
L58.787 -19.283
L58.4848 -18.8827
L58.1757 -18.4876
L57.8599 -18.0979
L57.5374 -17.7136
L57.2084 -17.3348
L56.8729 -16.9618
L56.5311 -16.5946
L56.183 -16.2332
L55.8287 -15.8779
L55.4684 -15.5287
L55.1022 -15.1858
L54.7302 -14.8492
L54.3524 -14.519
L53.9691 -14.1954
L53.5803 -13.8785
L53.1861 -13.5682
L52.7867 -13.2648
L52.3822 -12.9684
L51.9727 -12.6789
L51.5583 -12.3965
L51.1392 -12.1214
L50.7155 -11.8535
L50.2873 -11.5929
L49.8547 -11.3398
L49.4179 -11.0942
L48.9771 -10.8562
L48.5323 -10.6259
L48.0836 -10.4033
L47.6313 -10.1885
L47.1755 -9.9815
L46.7162 -9.78247
L46.2537 -9.59142
L45.788 -9.40842
L45.3194 -9.23352
L44.8479 -9.06677
L44.3738 -8.90823
L43.897 -8.75793
L43.4179 -8.61594
L42.9365 -8.48229
L42.4531 -8.35702
L41.9676 -8.24017
L41.4803 -8.13178
L40.9914 -8.03187
L40.5009 -7.94049
L40.0091 -7.85765
L39.516 -7.78338
L39.0219 -7.71771
L38.5268 -7.66066
L38.031 -7.61224
L37.5346 -7.57246
L37.0377 -7.54134
L36.5404 -7.5189
L36.0431 -7.50512
L35.5457 -7.50003
L35.0484 -7.50362
L34.5514 -7.51589
L34.0549 -7.53684
L33.559 -7.56645
L33.0638 -7.60473
L32.5695 -7.65166
L32.0762 -7.70722
L31.5842 -7.7714
L31.0934 -7.84418
L30.6042 -7.92553
L30.1166 -8.01544
L29.6309 -8.11387
L29.147 -8.2208
L28.6653 -8.33619
L28.1857 -8.46
L27.7086 -8.5922
L27.234 -8.73276
L26.762 -8.88161
L26.2929 -9.03873
L25.8267 -9.20406
L25.3636 -9.37756
L24.9038 -9.55916
L24.4474 -9.74882
L23.9944 -9.94647
L23.5451 -10.1521
L23.0997 -10.3655
L22.6581 -10.5868
L22.2206 -10.8158
L21.7873 -11.0525
L21.3583 -11.2968
L20.9338 -11.5486
L20.5139 -11.8078
L20.0987 -12.0745
L19.6884 -12.3484
L19.283 -12.6295
L18.8827 -12.9177
L18.4876 -13.213
L18.0979 -13.5152
z
" id="C0_1_6c05adf986"/>
     <path d="
M8.84577 -44.037
L9.10808 -44.2501
L9.3701 -44.4564
L9.63176 -44.656
L9.89297 -44.8494
L10.1537 -45.0366
L10.4138 -45.2179
L10.6734 -45.3936
L10.9323 -45.5637
L11.1905 -45.7286
L11.448 -45.8884
L11.7049 -46.0433
L11.961 -46.1934
L12.2163 -46.3389
L12.471 -46.48
L12.7249 -46.6169
L12.9781 -46.7496
L13.2306 -46.8783
L13.4824 -47.0032
L13.7335 -47.1244
L13.9839 -47.2419
L14.2338 -47.356
L14.483 -47.4666
L14.7317 -47.5741
L14.9798 -47.6783
L15.2274 -47.7795
L15.4746 -47.8776
L15.7213 -47.9729
L15.9676 -48.0654
L16.2136 -48.1552
L16.4592 -48.2422
L16.7046 -48.3267
L16.9498 -48.4087
L17.1948 -48.4883
L17.4397 -48.5654
L17.6845 -48.6402
L17.9292 -48.7127
L18.174 -48.783
L18.4189 -48.8512
L18.6639 -48.9172
L18.9091 -48.9811
L19.1545 -49.0429
L19.4002 -49.1028
L19.6462 -49.1606
L19.8927 -49.2166
L20.1396 -49.2706
L20.387 -49.3227
L20.635 -49.373
L20.8837 -49.4214
L21.1331 -49.468
L21.3832 -49.5128
L21.6341 -49.5558
L21.8859 -49.5971
L22.1387 -49.6366
L22.3925 -49.6743
L22.6474 -49.7103
L22.9034 -49.7446
L23.1607 -49.7771
L23.4192 -49.8079
L23.6791 -49.8369
L23.9404 -49.8642
L24.2032 -49.8898
L24.4675 -49.9136
L24.7335 -49.9356
L25.0012 -49.9559
L25.2707 -49.9743
L25.5421 -49.991
L25.8153 -50.0058
L26.0906 -50.0187
L26.368 -50.0298
L26.6475 -50.039
L26.9292 -50.0462
L27.2133 -50.0514
L27.4997 -50.0547
L27.7886 -50.0559
L28.0801 -50.055
L28.3742 -50.052
L28.6709 -50.0468
L28.9705 -50.0394
L29.2729 -50.0297
L29.5783 -50.0177
L29.8867 -50.0033
L30.1981 -49.9865
L30.5128 -49.9671
L30.8306 -49.9452
L31.1518 -49.9206
L31.4764 -49.8934
L31.8044 -49.8633
L32.1359 -49.8303
L32.4711 -49.7945
L32.8098 -49.7555
L33.1523 -49.7135
L33.4985 -49.6683
L33.8486 -49.6197
L34.2025 -49.5678
L34.5603 -49.5123
L34.922 -49.4533
L35.2877 -49.3905
L35.6574 -49.324
L36.031 -49.2536
L36.4087 -49.1791
L36.7904 -49.1006
L37.176 -49.0178
L37.5656 -48.9307
L37.9592 -48.8391
L38.3566 -48.7431
L38.7578 -48.6424
L39.1628 -48.5369
L39.5715 -48.4267
L39.9838 -48.3115
L40.3994 -48.1914
L40.8184 -48.0662
L41.2406 -47.9359
L41.6658 -47.8004
L42.0937 -47.6598
L42.5243 -47.5139
L42.9572 -47.3629
L43.3923 -47.2068
L43.8291 -47.0456
L44.2675 -46.8795
L44.707 -46.7086
L45.1474 -46.5331
L45.5881 -46.3535
L46.0288 -46.1701
L46.469 -45.9835
L46.908 -45.7944
L47.3452 -45.6039
L47.7799 -45.4133
L48.211 -45.2245
L48.6375 -45.04
L49.0579 -44.8634
L49.4702 -44.6998
L49.8719 -44.5561
L50.2598 -44.4421
L50.6295 -44.37
L50.9765 -44.3538
L51.2969 -44.4055
L51.5887 -44.5304
L51.8528 -44.7249
L52.0926 -44.9783
L52.3117 -45.2776
L52.5138 -45.6109
L52.7014 -45.969
L52.8766 -46.3446
L53.0409 -46.7329
L53.1951 -47.13
L53.34 -47.5332
L53.476 -47.9406
L53.6036 -48.3504
L53.7229 -48.7616
L53.8343 -49.1731
L53.9379 -49.5841
L54.0338 -49.994
L54.1221 -50.4023
L54.2031 -50.8084
L54.2768 -51.212
L54.3433 -51.6128
L54.4027 -52.0105
L54.4552 -52.4049
L54.5008 -52.7956
L54.5398 -53.1827
L54.5721 -53.5658
L54.5979 -53.9449
L54.6173 -54.3199
L54.6305 -54.6907
L54.6375 -55.0573
L54.6385 -55.4195
L54.6336 -55.7773
L54.6229 -56.1308
L54.6066 -56.4799
L54.5846 -56.8246
L54.5572 -57.1649
L54.223 -57.5008
L53.8378 -57.9129
L53.4471 -58.2276
L53.0512 -58.5355
L52.65 -58.8366
L52.2438 -59.1307
L51.8326 -59.4177
L51.4166 -59.6976
L50.9959 -59.9704
L50.5707 -60.2358
L50.141 -60.4938
L49.707 -60.7443
L49.2688 -60.9874
L48.8266 -61.2228
L48.3805 -61.4505
L47.9306 -61.6705
L47.477 -61.8827
L47.02 -62.0869
L46.5596 -62.2833
L46.096 -62.4716
L45.6293 -62.6518
L45.1597 -62.824
L44.6873 -62.9879
L44.2123 -63.1437
L43.7347 -63.2912
L43.2548 -63.4303
L42.7727 -63.5612
L42.2885 -63.6836
L41.8025 -63.7976
L41.3146 -63.9031
L40.8251 -64.0001
L40.3342 -64.0886
L39.8419 -64.1685
L39.3485 -64.2399
L38.854 -64.3026
L38.3587 -64.3567
L37.8626 -64.4022
L37.366 -64.4391
L36.869 -64.4672
L36.3717 -64.4867
L35.8743 -64.4976
L35.3769 -64.4997
L34.8797 -64.4932
L34.3829 -64.478
L33.8865 -64.4541
L33.3908 -64.4215
L32.8959 -64.3803
L32.402 -64.3305
L31.9091 -64.272
L31.4175 -64.2049
L30.9273 -64.1292
L30.4386 -64.0449
L29.9516 -63.9521
L29.4665 -63.8508
L28.9833 -63.741
L28.5023 -63.6227
L28.0236 -63.4961
L27.5473 -63.361
L27.0735 -63.2177
L26.6025 -63.066
L26.1344 -62.9061
L25.6692 -62.738
L25.2073 -62.5617
L24.7485 -62.3774
L24.2933 -62.185
L23.8416 -61.9847
L23.3935 -61.7764
L22.9494 -61.5603
L22.5092 -61.3364
L22.0731 -61.1047
L21.6413 -60.8655
L21.2138 -60.6186
L20.7908 -60.3643
L20.3725 -60.1025
L19.9589 -59.8334
L19.5502 -59.557
L19.1466 -59.2735
L18.748 -58.9829
L18.3548 -58.6852
L17.9668 -58.3807
L17.5844 -58.0693
L17.2076 -57.7512
L16.8365 -57.4265
L16.4713 -57.0953
L16.112 -56.7576
L15.7588 -56.4137
L15.4117 -56.0634
L15.0709 -55.7071
L14.7365 -55.3448
L14.4085 -54.9766
L14.0871 -54.6026
L13.7724 -54.223
L13.4645 -53.8378
L13.1634 -53.4471
L12.8693 -53.0512
L12.5823 -52.65
L12.3024 -52.2438
L12.0296 -51.8326
L11.7642 -51.4166
L11.5062 -50.9959
L11.2557 -50.5707
L11.0126 -50.141
L10.7772 -49.707
L10.5495 -49.2688
L10.3295 -48.8266
L10.1173 -48.3805
L9.91307 -47.9306
L9.71674 -47.477
L9.52842 -47.02
L9.34816 -46.5596
L9.17602 -46.096
L9.01205 -45.6293
L8.8563 -45.1597
z
" id="C0_2_8b53f15b32"/>
    </defs>
    <g clip-path="url(#p1bffca34e9)">
     <use style="fill:#ffffff;stroke:#000000;stroke-width:2.0;" x="0.0" xlink:href="#C0_0_a811fe30f3" y="72.0"/>
    </g>
    <g clip-path="url(#p1bffca34e9)">
     <use style="fill:#ff0000;stroke:#000000;stroke-width:2.0;" x="0.0" xlink:href="#C0_1_6c05adf986" y="72.0"/>
    </g>
    <g clip-path="url(#p1bffca34e9)">
     <use style="fill:#ff0000;stroke:#000000;stroke-width:2.0;" x="0.0" xlink:href="#C0_2_8b53f15b32" y="72.0"/>
    </g>
   </g>
  </g>
 </g>
 <defs>
  <clipPath id="p1bffca34e9">
   <rect height="72.0" width="72.0" x="0.0" y="0.0"/>
  </clipPath>
 </defs>
</svg>
