<?xml version="1.0" encoding="utf-8" standalone="no"?>
<!DOCTYPE svg PUBLIC "-//W3C//DTD SVG 1.1//EN"
  "http://www.w3.org/Graphics/SVG/1.1/DTD/svg11.dtd">
<!-- Created with matplotlib (http://matplotlib.org/) -->
<svg height="72pt" version="1.1" viewBox="0 0 72 72" width="72pt" xmlns="http://www.w3.org/2000/svg" xmlns:xlink="http://www.w3.org/1999/xlink">
 <defs>
  <style type="text/css">
*{stroke-linecap:butt;stroke-linejoin:round;}
  </style>
 </defs>
 <g id="figure_1">
  <g id="patch_1">
   <path d="
M0 72
L72 72
L72 0
L0 0
z
" style="fill:none;"/>
  </g>
  <g id="axes_1">
   <g id="PatchCollection_1">
    <defs>
     <path d="
M36 -7.5
C43.5583 -7.5 50.808 -10.5029 56.1525 -15.8475
C61.4971 -21.192 64.5 -28.4417 64.5 -36
C64.5 -43.5583 61.4971 -50.808 56.1525 -56.1525
C50.808 -61.4971 43.5583 -64.5 36 -64.5
C28.4417 -64.5 21.192 -61.4971 15.8475 -56.1525
C10.5029 -50.808 7.5 -43.5583 7.5 -36
C7.5 -28.4417 10.5029 -21.192 15.8475 -15.8475
C21.192 -10.5029 28.4417 -7.5 36 -7.5
z
" id="C0_0_a811fe30f3"/>
     <path d="
M25.2557 -9.68181
L25.3403 -9.89597
L25.4375 -10.1073
L25.5468 -10.3158
L25.6676 -10.5218
L25.7993 -10.7251
L25.9414 -10.9261
L26.0933 -11.1248
L26.2544 -11.3214
L26.4242 -11.516
L26.602 -11.7088
L26.7873 -11.9
L26.9796 -12.0897
L27.1784 -12.278
L27.3831 -12.4652
L27.5932 -12.6512
L27.8083 -12.8363
L28.0279 -13.0206
L28.2516 -13.2042
L28.4789 -13.3872
L28.7095 -13.5697
L28.9431 -13.7518
L29.1791 -13.9335
L29.4174 -14.115
L29.6576 -14.2962
L29.8994 -14.4773
L30.1426 -14.6583
L30.3868 -14.8392
L30.6319 -15.0201
L30.8776 -15.201
L31.1238 -15.382
L31.3702 -15.563
L31.6167 -15.7441
L31.8631 -15.9253
L32.1093 -16.1065
L32.3551 -16.2879
L32.6004 -16.4694
L32.8451 -16.6511
L33.0892 -16.8328
L33.3324 -17.0148
L33.5748 -17.1968
L33.8162 -17.379
L34.0566 -17.5613
L34.2959 -17.7437
L34.5342 -17.9263
L34.7712 -18.109
L35.0071 -18.2918
L35.2417 -18.4748
L35.4751 -18.6579
L35.7072 -18.8412
L35.938 -19.0246
L36.1675 -19.2081
L36.3957 -19.3917
L36.6226 -19.5756
L36.8481 -19.7595
L37.0723 -19.9437
L37.2952 -20.1279
L37.5167 -20.3124
L37.737 -20.497
L37.956 -20.6818
L38.1736 -20.8668
L38.39 -21.052
L38.6052 -21.2375
L38.8191 -21.4231
L39.0318 -21.609
L39.2433 -21.7952
L39.4536 -21.9816
L39.6628 -22.1683
L39.8709 -22.3552
L40.0778 -22.5426
L40.2837 -22.7302
L40.4885 -22.9182
L40.6923 -23.1065
L40.8951 -23.2953
L41.0969 -23.4845
L41.2977 -23.674
L41.4977 -23.8641
L41.6967 -24.0546
L41.8949 -24.2456
L42.0922 -24.4371
L42.2888 -24.6292
L42.4845 -24.8218
L42.6795 -25.0151
L42.8737 -25.2089
L43.0673 -25.4034
L43.4524 -25.5986
L43.6441 -25.7944
L43.8351 -25.991
L44.0256 -26.1883
L44.2155 -26.3864
L44.4049 -26.5853
L44.5939 -26.785
L44.7823 -26.9856
L44.9704 -27.1871
L45.158 -27.3895
L45.3452 -27.5928
L45.5321 -27.7971
L45.7186 -28.0024
L45.9048 -28.2087
L46.0908 -28.4161
L46.2764 -28.6246
L46.4618 -28.8342
L46.6469 -29.0449
L46.8319 -29.2568
L47.0166 -29.4699
L47.2012 -29.6842
L47.3856 -29.8998
L47.5699 -30.1166
L47.754 -30.3348
L47.938 -30.5542
L48.122 -30.775
L48.3059 -30.9971
L48.4897 -31.2207
L48.6734 -31.4456
L48.8572 -31.6719
L49.0409 -31.8997
L49.2245 -32.1289
L49.4082 -32.3596
L49.5919 -32.5918
L49.7756 -32.8254
L49.9593 -33.0605
L50.1431 -33.297
L50.3269 -33.5351
L50.5107 -33.7746
L50.6946 -34.0156
L50.8785 -34.258
L51.0625 -34.5019
L51.2466 -34.7471
L51.4307 -34.9938
L51.615 -35.2418
L51.7992 -35.4911
L51.9836 -35.7416
L52.1681 -35.9934
L52.3526 -36.2463
L52.5373 -36.5003
L52.722 -36.7553
L52.9069 -37.0113
L53.0919 -37.2681
L53.277 -37.5256
L53.4623 -37.7838
L53.6477 -38.0424
L53.8333 -38.3015
L54.0191 -38.5607
L54.2052 -38.82
L54.3914 -39.0792
L54.578 -39.338
L54.7649 -39.5964
L54.9521 -39.8541
L55.1397 -40.1108
L55.3278 -40.3662
L55.5164 -40.6202
L55.7055 -40.8725
L55.8954 -41.1227
L56.0859 -41.3705
L56.2772 -41.6155
L56.4695 -41.8575
L56.6627 -42.096
L56.8571 -42.3307
L57.0526 -42.5611
L57.2495 -42.7868
L57.4478 -43.0074
L57.6478 -43.2223
L57.8494 -43.4312
L58.0529 -43.6335
L58.2584 -43.8288
L58.4659 -44.0165
L58.6757 -44.1961
L58.8878 -44.3672
L59.1024 -44.5292
L59.3195 -44.6817
L59.5393 -44.8241
L59.7617 -44.956
L59.9869 -45.0769
L60.2149 -45.1865
L60.4456 -45.2842
L60.6791 -45.3697
L60.9153 -45.4427
L61.1541 -45.5029
L61.3954 -45.5499
L61.6391 -45.5835
L61.8851 -45.6036
L62.1331 -45.6099
L62.3829 -45.6023
L62.6344 -45.5807
L62.9929 -45.5452
L63.1484 -45.1453
L63.2956 -44.6728
L63.4345 -44.1976
L63.565 -43.72
L63.6872 -43.24
L63.8009 -42.7579
L63.9062 -42.2736
L64.0029 -41.7875
L64.0912 -41.2996
L64.1708 -40.81
L64.2419 -40.3191
L64.3044 -39.8267
L64.3583 -39.3333
L64.4035 -38.8388
L64.4401 -38.3434
L64.468 -37.8474
L64.4872 -37.3507
L64.4978 -36.8537
L64.4997 -36.3564
L64.4928 -35.859
L64.4774 -35.3616
L64.4532 -34.8645
L64.4204 -34.3676
L64.3789 -33.8713
L64.3288 -33.3756
L64.27 -32.8807
L64.2027 -32.3868
L64.1267 -31.894
L64.0422 -31.4024
L63.9491 -30.9122
L63.8475 -30.4236
L63.7375 -29.9367
L63.619 -29.4516
L63.4921 -28.9685
L63.3568 -28.4875
L63.2131 -28.0089
L63.0612 -27.5327
L62.901 -27.059
L62.7327 -26.5881
L62.5562 -26.12
L62.3716 -25.655
L62.179 -25.1931
L61.9784 -24.7345
L61.7699 -24.2793
L61.5535 -23.8277
L61.3294 -23.3798
L61.0975 -22.9358
L60.858 -22.4957
L60.6109 -22.0598
L60.3563 -21.6281
L60.0944 -21.2007
L59.825 -20.7779
L59.5484 -20.3597
L59.2647 -19.9463
L58.9738 -19.5378
L58.676 -19.1342
L58.3712 -18.7359
L58.0596 -18.3427
L57.7414 -17.955
L57.4164 -17.5728
L57.085 -17.1961
L56.7472 -16.8252
L56.403 -16.4602
L56.0526 -16.101
L55.6961 -15.748
L55.3336 -15.4011
L54.9652 -15.0605
L54.591 -14.7263
L54.2112 -14.3985
L53.8258 -14.0774
L53.435 -13.7629
L53.0389 -13.4552
L52.6376 -13.1543
L52.2312 -12.8604
L51.8199 -12.5736
L51.4038 -12.2939
L50.9829 -12.0214
L50.5575 -11.7562
L50.1277 -11.4984
L49.6936 -11.2481
L49.2553 -11.0053
L48.8129 -10.7701
L48.3667 -10.5426
L47.9167 -10.3229
L47.463 -10.111
L47.0059 -9.90692
L46.5454 -9.71084
L46.0817 -9.52276
L45.6149 -9.34275
L45.1453 -9.17086
L44.6728 -9.00714
L44.1976 -8.85165
L43.72 -8.70442
L43.24 -8.56551
L42.7579 -8.43495
L42.2736 -8.3128
L41.7875 -8.19907
L41.2996 -8.09382
L40.81 -7.99706
L40.3191 -7.90884
L39.8267 -7.82917
L39.3333 -7.75808
L38.8388 -7.6956
L38.3434 -7.64173
L37.8474 -7.59651
L37.3507 -7.55994
L36.8537 -7.53203
L36.3564 -7.51279
L35.859 -7.50223
L35.3616 -7.50035
L34.8645 -7.50715
L34.3676 -7.52263
L33.8713 -7.54679
L33.3756 -7.57961
L32.8807 -7.62109
L32.3868 -7.67121
L31.894 -7.72997
L31.4024 -7.79733
L30.9122 -7.87329
L30.4236 -7.95781
L29.9367 -8.05087
L29.4516 -8.15245
L28.9685 -8.26251
L28.4875 -8.38102
L28.0089 -8.50795
L27.5327 -8.64324
L27.059 -8.78688
L26.5881 -8.9388
L26.12 -9.09896
z
" id="C0_1_b4ce71bbe0"/>
     <path d="
M9.14047 -26.5143
L9.30134 -26.7219
L9.46035 -26.9382
L9.61771 -27.1624
L9.77365 -27.3941
L9.92839 -27.6328
L10.0821 -27.8777
L10.2351 -28.1285
L10.3875 -28.3846
L10.5394 -28.6455
L10.6911 -28.9107
L10.8428 -29.1798
L10.9945 -29.4522
L11.1464 -29.7277
L11.2986 -30.0057
L11.4513 -30.2859
L11.6045 -30.5679
L11.7583 -30.8515
L11.9128 -31.1362
L12.0681 -31.4218
L12.2241 -31.708
L12.3811 -31.9945
L12.5389 -32.2812
L12.6976 -32.5677
L12.8573 -32.8539
L13.018 -33.1396
L13.1796 -33.4245
L13.3422 -33.7087
L13.5058 -33.9918
L13.6704 -34.2738
L13.836 -34.5545
L14.0025 -34.8339
L14.17 -35.1118
L14.3384 -35.3882
L14.5077 -35.6629
L14.678 -35.936
L14.8492 -36.2073
L15.0212 -36.4768
L15.1942 -36.7444
L15.368 -37.0102
L15.5426 -37.274
L15.718 -37.5359
L15.8943 -37.7959
L16.0713 -38.0538
L16.2491 -38.3098
L16.4277 -38.5638
L16.607 -38.8158
L16.7871 -39.0658
L16.9679 -39.3138
L17.1494 -39.5599
L17.3317 -39.804
L17.5146 -40.0461
L17.6983 -40.2864
L17.8827 -40.5247
L18.0677 -40.7611
L18.2535 -40.9956
L18.4399 -41.2283
L18.6271 -41.4592
L18.815 -41.6882
L19.0035 -41.9155
L19.1928 -42.1411
L19.3828 -42.365
L19.5736 -42.5871
L19.765 -42.8076
L19.9572 -43.0265
L20.1502 -43.2438
L20.344 -43.4596
L20.5385 -43.6738
L20.7338 -43.8865
L20.93 -44.0978
L21.1269 -44.3076
L21.3247 -44.516
L21.5234 -44.7231
L21.723 -44.9288
L21.9235 -45.1332
L22.1249 -45.3363
L22.3273 -45.5381
L22.5306 -45.7388
L22.7349 -45.9382
L22.9403 -46.1365
L23.1467 -46.3337
L23.3542 -46.5297
L23.5627 -46.7247
L23.7724 -46.9186
L23.9833 -47.1115
L24.1954 -47.3034
L24.4086 -47.4943
L24.6231 -47.6842
L24.8389 -47.8733
L25.056 -48.0614
L25.2744 -48.2486
L25.4942 -48.435
L25.7153 -48.6205
L25.9379 -48.8052
L26.162 -48.9891
L26.3876 -49.1722
L26.6146 -49.3546
L26.8433 -49.5362
L27.0735 -49.717
L27.3053 -49.8971
L27.5388 -50.0765
L27.774 -50.2552
L28.0109 -50.4332
L28.2495 -50.6105
L28.4899 -50.7872
L28.7321 -50.9632
L28.9761 -51.1385
L29.222 -51.3132
L29.4698 -51.4872
L29.7194 -51.6606
L29.971 -51.8333
L30.2246 -52.0054
L30.4801 -52.1769
L30.7376 -52.3477
L30.9971 -52.5179
L31.2586 -52.6875
L31.5221 -52.8564
L31.7877 -53.0246
L32.0552 -53.1922
L32.3249 -53.3591
L32.5965 -53.5254
L32.8702 -53.691
L33.1459 -53.8559
L33.4235 -54.0202
L33.7032 -54.1837
L33.9847 -54.3466
L34.2682 -54.5087
L34.5536 -54.6701
L34.8407 -54.8308
L35.1297 -54.9907
L35.4203 -55.15
L35.7125 -55.3085
L36.0063 -55.4662
L36.3016 -55.6233
L36.5981 -55.7796
L36.896 -55.9351
L37.1949 -56.09
L37.4949 -56.2441
L37.7957 -56.3976
L38.0971 -56.5504
L38.3991 -56.7026
L38.7013 -56.8542
L39.0037 -57.0053
L39.3059 -57.1558
L39.6078 -57.3059
L39.9091 -57.4556
L40.2095 -57.605
L40.5087 -57.7542
L40.8065 -57.9032
L41.1025 -58.0523
L41.3963 -58.2014
L41.6876 -58.3507
L41.9761 -58.5004
L42.2613 -58.6506
L42.5428 -58.8015
L42.8202 -58.9532
L43.0931 -59.1059
L43.361 -59.2599
L43.6234 -59.4152
L43.8798 -59.5721
L44.1299 -59.7309
L44.3731 -59.8916
L44.6089 -60.0546
L44.8368 -60.2201
L45.0564 -60.3881
L45.2672 -60.559
L45.4687 -60.7329
L45.6605 -60.9099
L45.8422 -61.0903
L46.0133 -61.2741
L46.1735 -61.4615
L46.3225 -61.6525
L46.4598 -61.8472
L46.5853 -62.0455
L46.2951 -62.2476
L45.8297 -62.5756
L45.3614 -62.7512
L44.8902 -62.9187
L44.4162 -63.0779
L43.9397 -63.229
L43.4608 -63.3717
L42.9796 -63.5061
L42.4963 -63.6321
L42.011 -63.7497
L41.5239 -63.8589
L41.0351 -63.9595
L40.5448 -64.0517
L40.0531 -64.1353
L39.5601 -64.2103
L39.0661 -64.2768
L38.5711 -64.3346
L38.0753 -64.3838
L37.5789 -64.4243
L37.0821 -64.4562
L36.5849 -64.4795
L36.0875 -64.494
L35.5901 -64.4999
L35.0928 -64.4971
L34.5958 -64.4856
L34.0992 -64.4654
L33.6032 -64.4365
L33.108 -64.399
L32.6136 -64.3529
L32.1202 -64.2981
L31.6281 -64.2347
L31.1372 -64.1627
L30.6479 -64.0821
L30.1601 -63.9929
L29.6742 -63.8953
L29.1902 -63.7891
L28.7082 -63.6745
L28.2285 -63.5514
L27.7511 -63.4199
L27.2763 -63.2801
L26.8041 -63.132
L26.3347 -62.9756
L25.8682 -62.811
L25.4049 -62.6383
L24.9448 -62.4574
L24.488 -62.2685
L24.0347 -62.0715
L23.5851 -61.8666
L23.1393 -61.6539
L22.6974 -61.4333
L22.2595 -61.205
L21.8258 -60.969
L21.3965 -60.7254
L20.9716 -60.4742
L20.5512 -60.2156
L20.1356 -59.9497
L19.7248 -59.6764
L19.319 -59.3959
L18.9182 -59.1083
L18.5227 -58.8137
L18.1325 -58.5121
L17.7477 -58.2036
L17.3684 -57.8884
L16.9949 -57.5665
L16.6271 -57.2381
L16.2653 -56.9032
L15.9094 -56.5619
L15.5597 -56.2143
L15.2162 -55.8606
L14.879 -55.5009
L14.5483 -55.1352
L14.2241 -54.7636
L13.9065 -54.3864
L13.5957 -54.0035
L13.2917 -53.6152
L12.9946 -53.2215
L12.7045 -52.8226
L12.4215 -52.4185
L12.1457 -52.0095
L11.8771 -51.5955
L11.6159 -51.1768
L11.3621 -50.7535
L11.1159 -50.3257
L10.8772 -49.8935
L10.6462 -49.4571
L10.4228 -49.0166
L10.2073 -48.5722
L9.99966 -48.1239
L9.79992 -47.6719
L9.60816 -47.2163
L9.42444 -46.7574
L9.24881 -46.2951
L9.08133 -45.8297
L8.92205 -45.3614
L8.77102 -44.8902
L8.62829 -44.4162
L8.49389 -43.9397
L8.36787 -43.4608
L8.25027 -42.9796
L8.14112 -42.4963
L8.04045 -42.011
L7.9483 -41.5239
L7.8647 -41.0351
L7.78967 -40.5448
L7.72323 -40.0531
L7.66541 -39.5601
L7.61621 -39.0661
L7.57566 -38.5711
L7.54377 -38.0753
L7.52055 -37.5789
L7.506 -37.0821
L7.50013 -36.5849
L7.50295 -36.0875
L7.51444 -35.5901
L7.53461 -35.0928
L7.56346 -34.5958
L7.60096 -34.0992
L7.64711 -33.6032
L7.7019 -33.108
L7.76532 -32.6136
L7.83733 -32.1202
L7.91792 -31.6281
L8.00706 -31.1372
L8.10473 -30.6479
L8.2109 -30.1601
L8.32553 -29.6742
L8.4486 -29.1902
L8.58005 -28.7082
L8.71986 -28.2285
L8.86798 -27.7511
z
" id="C0_2_48916cde49"/>
    </defs>
    <g clip-path="url(#p1bffca34e9)">
     <use style="fill:#ff0000;stroke:#000000;stroke-width:2.0;" x="0.0" xlink:href="#C0_0_a811fe30f3" y="72.0"/>
    </g>
    <g clip-path="url(#p1bffca34e9)">
     <use style="fill:#ffffff;stroke:#000000;stroke-width:2.0;" x="0.0" xlink:href="#C0_1_b4ce71bbe0" y="72.0"/>
    </g>
    <g clip-path="url(#p1bffca34e9)">
     <use style="fill:#ffffff;stroke:#000000;stroke-width:2.0;" x="0.0" xlink:href="#C0_2_48916cde49" y="72.0"/>
    </g>
   </g>
  </g>
 </g>
 <defs>
  <clipPath id="p1bffca34e9">
   <rect height="72.0" width="72.0" x="0.0" y="0.0"/>
  </clipPath>
 </defs>
</svg>
