<?xml version="1.0" encoding="utf-8" standalone="no"?>
<!DOCTYPE svg PUBLIC "-//W3C//DTD SVG 1.1//EN"
  "http://www.w3.org/Graphics/SVG/1.1/DTD/svg11.dtd">
<!-- Created with matplotlib (http://matplotlib.org/) -->
<svg height="72pt" version="1.1" viewBox="0 0 72 72" width="72pt" xmlns="http://www.w3.org/2000/svg" xmlns:xlink="http://www.w3.org/1999/xlink">
 <defs>
  <style type="text/css">
*{stroke-linecap:butt;stroke-linejoin:round;}
  </style>
 </defs>
 <g id="figure_1">
  <g id="patch_1">
   <path d="
M0 72
L72 72
L72 0
L0 0
z
" style="fill:none;"/>
  </g>
  <g id="axes_1">
   <g id="PatchCollection_1">
    <defs>
     <path d="
M36 -7.5
C43.5583 -7.5 50.808 -10.5029 56.1525 -15.8475
C61.4971 -21.192 64.5 -28.4417 64.5 -36
C64.5 -43.5583 61.4971 -50.808 56.1525 -56.1525
C50.808 -61.4971 43.5583 -64.5 36 -64.5
C28.4417 -64.5 21.192 -61.4971 15.8475 -56.1525
C10.5029 -50.808 7.5 -43.5583 7.5 -36
C7.5 -28.4417 10.5029 -21.192 15.8475 -15.8475
C21.192 -10.5029 28.4417 -7.5 36 -7.5
z
" id="C0_0_a811fe30f3"/>
     <path d="
M39.4911 -29.0411
L39.2326 -28.954
L38.9735 -28.8689
L38.7136 -28.7859
L38.4529 -28.7048
L38.1914 -28.6258
L37.9292 -28.5488
L37.6662 -28.4739
L37.4023 -28.401
L37.1376 -28.3301
L36.8721 -28.2613
L36.6057 -28.1945
L36.3385 -28.1299
L36.0704 -28.0673
L35.8014 -28.0068
L35.5315 -27.9485
L35.2606 -27.8923
L34.9889 -27.8383
L34.7162 -27.7864
L34.4425 -27.7368
L34.1679 -27.6894
L33.8923 -27.6443
L33.6158 -27.6015
L33.3383 -27.5611
L33.0598 -27.523
L32.7803 -27.4873
L32.4998 -27.4541
L32.2184 -27.4234
L31.9359 -27.3953
L31.6525 -27.3697
L31.3681 -27.3468
L31.0827 -27.3266
L30.7964 -27.3091
L30.5091 -27.2945
L30.2209 -27.2828
L29.9317 -27.274
L29.6417 -27.2682
L29.3508 -27.2654
L29.059 -27.2659
L28.7665 -27.2695
L28.4731 -27.2765
L28.179 -27.2869
L27.8842 -27.3007
L27.5888 -27.3181
L27.2927 -27.3391
L26.9961 -27.3639
L26.699 -27.3925
L26.4014 -27.4251
L26.1035 -27.4617
L25.8053 -27.5024
L25.5069 -27.5474
L25.2083 -27.5968
L24.9098 -27.6506
L24.6112 -27.709
L24.3129 -27.7721
L24.0148 -27.8401
L23.7171 -27.9129
L23.42 -27.9909
L23.1235 -28.074
L22.8277 -28.1624
L22.5329 -28.2563
L22.2392 -28.3557
L21.9468 -28.4609
L21.6557 -28.5718
L21.3662 -28.6886
L21.0785 -28.8116
L20.7928 -28.9407
L20.5092 -29.076
L20.2279 -29.2178
L19.9492 -29.3662
L19.6733 -29.5211
L19.4004 -29.6828
L19.1308 -29.8513
L18.8646 -30.0267
L18.6021 -30.209
L18.3435 -30.3985
L18.0892 -30.595
L17.8393 -30.7987
L17.5941 -31.0096
L17.3538 -31.2278
L17.1187 -31.4532
L16.8891 -31.6858
L16.6653 -31.9256
L16.4473 -32.1726
L16.2356 -32.4267
L16.0304 -32.688
L15.8318 -32.9562
L15.6401 -33.2312
L15.4556 -33.5131
L15.2785 -33.8016
L15.1089 -34.0965
L14.947 -34.3978
L14.7931 -34.7052
L14.6473 -35.0185
L14.5098 -35.3375
L14.3807 -35.6619
L14.2601 -35.9916
L14.1482 -36.3263
L14.0451 -36.6656
L13.9508 -37.0094
L13.8654 -37.3572
L13.7889 -37.7089
L13.7215 -38.0641
L13.6631 -38.4225
L13.6138 -38.7839
L13.5734 -39.1478
L13.5422 -39.5139
L13.5198 -39.8821
L13.5065 -40.2518
L13.502 -40.623
L13.5064 -40.9951
L13.5194 -41.368
L13.5412 -41.7413
L13.5714 -42.1147
L13.6102 -42.4881
L13.6572 -42.861
L13.7124 -43.2332
L13.7757 -43.6045
L13.847 -43.9746
L13.926 -44.3433
L14.0127 -44.7104
L14.1069 -45.0756
L14.2084 -45.4387
L14.3171 -45.7996
L14.4328 -46.158
L14.5554 -46.5138
L14.6847 -46.8667
L14.8206 -47.2168
L14.9628 -47.5637
L15.1113 -47.9074
L15.2658 -48.2477
L15.4263 -48.5845
L15.5925 -48.9178
L15.7644 -49.2473
L15.9416 -49.573
L16.1242 -49.8948
L16.312 -50.2127
L16.5047 -50.5265
L16.7023 -50.8362
L16.9047 -51.1418
L17.1116 -51.4431
L17.3231 -51.7401
L17.5388 -52.0329
L17.7588 -52.3213
L17.9829 -52.6052
L18.211 -52.8848
L18.4429 -53.1599
L18.6786 -53.4306
L18.918 -53.6968
L19.1609 -53.9584
L19.4072 -54.2156
L19.6569 -54.4682
L19.9099 -54.7164
L20.1661 -54.9599
L20.4253 -55.199
L20.6876 -55.4335
L20.9528 -55.6634
L21.2209 -55.8888
L21.4918 -56.1097
L21.7654 -56.326
L22.0417 -56.5378
L22.3206 -56.745
L22.602 -56.9478
L22.8859 -57.146
L23.1722 -57.3397
L23.4609 -57.5288
L23.752 -57.7135
L24.0453 -57.8936
L24.3409 -58.0692
L24.6387 -58.2404
L24.9387 -58.407
L25.2407 -58.5691
L25.5449 -58.7267
L25.8511 -58.8798
L26.1594 -59.0284
L26.4696 -59.1724
L26.7818 -59.312
L27.0959 -59.447
L27.4119 -59.5774
L27.7297 -59.7033
L28.0495 -59.8247
L28.371 -59.9415
L28.6944 -60.0537
L29.0195 -60.1613
L29.3463 -60.2642
L29.6749 -60.3625
L30.0052 -60.4562
L30.3371 -60.5451
L30.6707 -60.6294
L31.0059 -60.7089
L31.3427 -60.7836
L31.6811 -60.8535
L32.021 -60.9185
L32.3624 -60.9787
L32.7053 -61.034
L33.0497 -61.0843
L33.3954 -61.1296
L33.7426 -61.1699
L34.0911 -61.2051
L34.4409 -61.2352
L34.792 -61.2601
L35.1443 -61.2797
L35.4979 -61.2941
L35.8525 -61.3031
L36.2082 -61.3067
L36.565 -61.3049
L36.9227 -61.2975
L37.2814 -61.2846
L37.6408 -61.2661
L38.0011 -61.2418
L38.3621 -61.2118
L38.7237 -61.176
L39.0858 -61.1343
L39.4484 -61.0866
L39.8114 -61.0329
L40.1747 -60.9732
L40.5381 -60.9073
L40.9015 -60.8352
L41.265 -60.7568
L41.6282 -60.672
L41.9911 -60.5809
L42.3536 -60.4833
L42.7155 -60.3793
L43.0767 -60.2686
L43.437 -60.1513
L43.7963 -60.0274
L44.1543 -59.8967
L44.511 -59.7593
L44.8661 -59.6152
L45.2195 -59.4641
L45.5708 -59.3063
L45.9201 -59.1416
L46.2669 -58.9699
L46.6112 -58.7914
L46.9526 -58.6061
L47.291 -58.4138
L47.6261 -58.2147
L47.9576 -58.0087
L48.2853 -57.7959
L48.609 -57.5764
L48.9284 -57.3501
L49.2431 -57.1173
L49.553 -56.8778
L49.8577 -56.6319
L50.1571 -56.3796
L50.4506 -56.1211
L50.7383 -55.8564
L51.0196 -55.5858
L51.2943 -55.3093
L51.5622 -55.0271
L51.823 -54.7394
L52.0764 -54.4464
L52.3221 -54.1483
L52.5598 -53.8453
L52.7894 -53.5376
L53.0104 -53.2255
L53.2228 -52.9092
L53.4263 -52.589
L53.6206 -52.2651
L53.8056 -51.9379
L53.981 -51.6075
L54.1468 -51.2743
L54.3026 -50.9386
L54.4485 -50.6007
L54.5842 -50.2608
L54.7098 -49.9194
L54.825 -49.5766
L54.9299 -49.2329
L55.0243 -48.8884
L55.1084 -48.5435
L55.1821 -48.1985
L55.2453 -47.8536
L55.2982 -47.5092
L55.3409 -47.1655
L55.3734 -46.8228
L55.3957 -46.4813
L55.4082 -46.1413
L55.4107 -45.803
L55.4037 -45.4666
L55.3871 -45.1324
L55.3612 -44.8004
L55.3261 -44.471
L55.2821 -44.1442
L55.2295 -43.8203
L55.1683 -43.4994
L55.0989 -43.1816
L55.0214 -42.867
L54.9362 -42.5558
L54.8434 -42.248
L54.7434 -41.9438
L54.6362 -41.6432
L54.5223 -41.3462
L54.4018 -41.053
L54.275 -40.7636
L54.1421 -40.478
L54.0034 -40.1963
L53.8591 -39.9184
L53.7094 -39.6445
L53.5546 -39.3745
L53.3948 -39.1084
L53.2303 -38.8462
L53.0614 -38.5879
L52.8881 -38.3336
L52.7108 -38.0832
L52.5295 -37.8366
L52.3445 -37.5939
L52.156 -37.355
L51.9641 -37.1199
L51.769 -36.8885
L51.5709 -36.6609
L51.3699 -36.437
L51.1661 -36.2168
L50.9597 -36.0002
L50.7509 -35.7871
L50.5397 -35.5776
L50.3263 -35.3716
L50.1107 -35.1691
L49.8932 -34.9699
L49.6738 -34.7742
L49.4526 -34.5817
L49.2297 -34.3925
L49.0052 -34.2065
L48.7791 -34.0237
L48.5516 -33.8441
L48.3227 -33.6675
L48.0925 -33.4939
L47.8611 -33.3234
L47.6284 -33.1558
L47.3947 -32.9911
L47.1598 -32.8293
L46.9239 -32.6703
L46.6871 -32.5141
L46.4493 -32.3607
L46.2105 -32.2099
L45.971 -32.0618
L45.7305 -31.9163
L45.4893 -31.7734
L45.2473 -31.633
L45.0045 -31.4952
L44.761 -31.3598
L44.5167 -31.2269
L44.2718 -31.0964
L44.0261 -30.9683
L43.7798 -30.8425
L43.5328 -30.719
L43.2851 -30.5979
L43.0368 -30.479
L42.7878 -30.3624
L42.5382 -30.2479
L42.2879 -30.1357
L42.037 -30.0256
L41.7854 -29.9178
L41.5332 -29.812
L41.2803 -29.7084
L41.0267 -29.6068
L40.7725 -29.5074
L40.5176 -29.41
L40.262 -29.3147
L40.0057 -29.2215
z
" id="C0_1_523c8b9a39"/>
    </defs>
    <g clip-path="url(#p1bffca34e9)">
     <use style="fill:#ffffff;stroke:#000000;stroke-width:2.0;" x="0.0" xlink:href="#C0_0_a811fe30f3" y="72.0"/>
    </g>
    <g clip-path="url(#p1bffca34e9)">
     <use style="fill:#ff0000;stroke:#000000;stroke-width:2.0;" x="0.0" xlink:href="#C0_1_523c8b9a39" y="72.0"/>
    </g>
   </g>
  </g>
 </g>
 <defs>
  <clipPath id="p1bffca34e9">
   <rect height="72.0" width="72.0" x="0.0" y="0.0"/>
  </clipPath>
 </defs>
</svg>
