<?xml version="1.0" encoding="utf-8" standalone="no"?>
<!DOCTYPE svg PUBLIC "-//W3C//DTD SVG 1.1//EN"
  "http://www.w3.org/Graphics/SVG/1.1/DTD/svg11.dtd">
<!-- Created with matplotlib (http://matplotlib.org/) -->
<svg height="72pt" version="1.1" viewBox="0 0 72 72" width="72pt" xmlns="http://www.w3.org/2000/svg" xmlns:xlink="http://www.w3.org/1999/xlink">
 <defs>
  <style type="text/css">
*{stroke-linecap:butt;stroke-linejoin:round;}
  </style>
 </defs>
 <g id="figure_1">
  <g id="patch_1">
   <path d="
M0 72
L72 72
L72 0
L0 0
z
" style="fill:none;"/>
  </g>
  <g id="axes_1">
   <g id="PatchCollection_1">
    <defs>
     <path d="
M36 -7.5
C43.5583 -7.5 50.808 -10.5029 56.1525 -15.8475
C61.4971 -21.192 64.5 -28.4417 64.5 -36
C64.5 -43.5583 61.4971 -50.808 56.1525 -56.1525
C50.808 -61.4971 43.5583 -64.5 36 -64.5
C28.4417 -64.5 21.192 -61.4971 15.8475 -56.1525
C10.5029 -50.808 7.5 -43.5583 7.5 -36
C7.5 -28.4417 10.5029 -21.192 15.8475 -15.8475
C21.192 -10.5029 28.4417 -7.5 36 -7.5
z
" id="C0_0_a811fe30f3"/>
     <path d="
M26.0672 -34.174
L26.1779 -33.9419
L26.2898 -33.7101
L26.4029 -33.4787
L26.5173 -33.2476
L26.6328 -33.0167
L26.7497 -32.7859
L26.8679 -32.5553
L26.9874 -32.3247
L27.1083 -32.0942
L27.2306 -31.8636
L27.3544 -31.6329
L27.4797 -31.4021
L27.6066 -31.1711
L27.735 -30.9398
L27.8651 -30.7082
L27.9968 -30.4763
L28.1303 -30.2441
L28.2655 -30.0113
L28.4026 -29.7781
L28.5416 -29.5444
L28.6825 -29.3101
L28.8254 -29.0751
L28.9704 -28.8395
L29.1174 -28.6032
L29.2667 -28.3662
L29.4181 -28.1284
L29.5719 -27.8898
L29.7281 -27.6503
L29.8866 -27.4099
L30.0477 -27.1687
L30.2114 -26.9265
L30.3777 -26.6833
L30.5467 -26.4391
L30.7186 -26.1938
L30.8933 -25.9476
L31.0709 -25.7003
L31.2516 -25.4519
L31.4355 -25.2024
L31.6225 -24.9519
L31.8129 -24.7002
L32.0066 -24.4475
L32.2037 -24.1937
L32.4045 -23.9388
L32.6089 -23.6828
L32.817 -23.4258
L33.0289 -23.1679
L33.2448 -22.9089
L33.4647 -22.6491
L33.6887 -22.3884
L33.9168 -22.1269
L34.1493 -21.8646
L34.3862 -21.6017
L34.6275 -21.3382
L34.8733 -21.0742
L35.1238 -20.8099
L35.379 -20.5454
L35.639 -20.2807
L35.9039 -20.0162
L36.1738 -19.7518
L36.4486 -19.4879
L36.7286 -19.2246
L37.0137 -18.9621
L37.304 -18.7007
L37.5996 -18.4406
L37.9004 -18.1822
L38.2066 -17.9257
L38.5181 -17.6715
L38.835 -17.42
L39.1573 -17.1715
L39.485 -16.9266
L39.8181 -16.6857
L40.1565 -16.4494
L40.5002 -16.2182
L40.8493 -15.993
L41.2036 -15.7744
L41.5631 -15.5633
L41.9277 -15.3607
L42.2973 -15.1677
L42.6719 -14.9856
L43.0513 -14.816
L43.4353 -14.6605
L43.8238 -14.5213
L44.2166 -14.4007
L44.6134 -14.3014
L45.0139 -14.2264
L45.4176 -14.179
L45.8239 -14.1626
L46.2322 -14.1805
L46.6414 -14.2353
L47.0505 -14.3289
L47.4581 -14.4619
L47.863 -14.6337
L48.2636 -14.8422
L48.6588 -15.0847
L49.0473 -15.3579
L49.428 -15.6582
L49.8002 -15.9821
L50.1632 -16.3265
L50.5163 -16.6885
L50.8591 -17.0656
L51.1914 -17.4555
L51.5129 -17.8563
L51.8234 -18.2664
L52.1229 -18.6842
L52.4112 -19.1085
L52.6885 -19.5382
L52.9547 -19.9722
L53.21 -20.4097
L53.4544 -20.8498
L53.688 -21.2918
L53.9111 -21.7352
L54.1238 -22.1792
L54.3262 -22.6233
L54.5186 -23.0672
L54.7012 -23.5103
L54.8742 -23.9523
L55.0378 -24.3928
L55.1923 -24.8315
L55.3378 -25.268
L55.4748 -25.7023
L55.6033 -26.1339
L55.7236 -26.5627
L55.836 -26.9886
L55.9406 -27.4114
L56.0378 -27.8309
L56.1278 -28.247
L56.2108 -28.6597
L56.287 -29.0687
L56.3566 -29.4742
L56.4199 -29.876
L56.477 -30.274
L56.5282 -30.6683
L56.5737 -31.0588
L56.6136 -31.4456
L56.6482 -31.8286
L56.6775 -32.2078
L56.7019 -32.5832
L56.7214 -32.955
L56.7362 -33.323
L56.7464 -33.6874
L56.7523 -34.0481
L56.7539 -34.4053
L56.7514 -34.759
L56.7449 -35.1092
L56.7345 -35.456
L56.7203 -35.7994
L56.7025 -36.1396
L56.6811 -36.4765
L56.6563 -36.8103
L56.6281 -37.141
L56.5966 -37.4686
L56.5619 -37.7934
L56.5242 -38.1152
L56.4833 -38.4342
L56.4395 -38.7506
L56.3928 -39.0642
L56.3432 -39.3753
L56.2908 -39.6838
L56.2356 -39.9899
L56.1777 -40.2936
L56.1172 -40.5951
L56.054 -40.8943
L55.9882 -41.1913
L55.9198 -41.4863
L55.8489 -41.7793
L55.7755 -42.0703
L55.6996 -42.3594
L55.6211 -42.6468
L55.5402 -42.9324
L55.4569 -43.2163
L55.371 -43.4986
L55.2827 -43.7794
L55.192 -44.0587
L55.0987 -44.3366
L55.003 -44.6132
L54.9048 -44.8884
L54.8042 -45.1624
L54.701 -45.4353
L54.5953 -45.707
L54.487 -45.9777
L54.3761 -46.2473
L54.2627 -46.5161
L54.1466 -46.7839
L54.0278 -47.0508
L53.9063 -47.317
L53.7821 -47.5824
L53.6551 -47.8472
L53.5253 -48.1113
L53.3926 -48.3747
L53.2569 -48.6376
L53.1183 -48.9
L52.9766 -49.1619
L52.8318 -49.4233
L52.6838 -49.6844
L52.5326 -49.945
L52.378 -50.2053
L52.2201 -50.4653
L52.0588 -50.725
L51.8938 -50.9845
L51.7253 -51.2437
L51.553 -51.5027
L51.377 -51.7614
L51.197 -52.02
L51.013 -52.2785
L50.8249 -52.5367
L50.6327 -52.7948
L50.4361 -53.0527
L50.235 -53.3104
L50.0294 -53.568
L49.8192 -53.8254
L49.6042 -54.0826
L49.3842 -54.3395
L49.1592 -54.5962
L48.929 -54.8527
L48.6935 -55.1087
L48.4525 -55.3645
L48.2059 -55.6197
L47.9535 -55.8745
L47.6953 -56.1288
L47.4309 -56.3824
L47.1604 -56.6353
L46.8835 -56.8874
L46.6 -57.1386
L46.3098 -57.3887
L46.0127 -57.6377
L45.7087 -57.8854
L45.3974 -58.1317
L45.0787 -58.3764
L44.7525 -58.6193
L44.4187 -58.8602
L44.077 -59.099
L43.7273 -59.3354
L43.3694 -59.5692
L43.0032 -59.8001
L42.6286 -60.0279
L42.2455 -60.2523
L41.8536 -60.473
L41.4529 -60.6896
L41.0434 -60.9018
L40.6248 -61.1093
L40.1973 -61.3117
L39.7606 -61.5085
L39.3148 -61.6994
L38.86 -61.8839
L38.396 -62.0615
L37.9231 -62.2318
L37.4412 -62.3942
L36.9506 -62.5481
L36.4514 -62.6932
L35.9438 -62.8286
L35.4283 -62.9539
L34.905 -63.0684
L34.3745 -63.1714
L33.8372 -63.2623
L33.2939 -63.3402
L32.7452 -63.4045
L32.1921 -63.4544
L31.6355 -63.4889
L31.0767 -63.5072
L30.5172 -63.5083
L29.9586 -63.4912
L29.403 -63.4547
L28.8528 -63.3978
L28.3106 -63.3192
L27.7797 -63.2176
L27.2634 -63.0919
L26.7655 -62.941
L26.2896 -62.7641
L25.8392 -62.5609
L25.4169 -62.3316
L25.0247 -62.0774
L24.6633 -61.7997
L24.3323 -61.5008
L24.0304 -61.183
L23.7559 -60.8489
L23.5067 -60.501
L23.2805 -60.1416
L23.0754 -59.7727
L22.8893 -59.396
L22.7206 -59.0131
L22.5678 -58.6253
L22.4296 -58.2336
L22.3049 -57.8391
L22.1925 -57.4425
L22.0918 -57.0446
L22.0018 -56.646
L21.9218 -56.2472
L21.8514 -55.8488
L21.7898 -55.4511
L21.7366 -55.0546
L21.6913 -54.6595
L21.6535 -54.2662
L21.6227 -53.8749
L21.5985 -53.4859
L21.5807 -53.0993
L21.5688 -52.7155
L21.5626 -52.3344
L21.5618 -51.9563
L21.566 -51.5813
L21.5751 -51.2095
L21.5887 -50.841
L21.6066 -50.4758
L21.6286 -50.1141
L21.6545 -49.7559
L21.684 -49.4011
L21.7171 -49.0499
L21.7534 -48.7022
L21.7929 -48.3581
L21.8354 -48.0176
L21.8806 -47.6806
L21.9286 -47.3471
L21.9791 -47.0172
L22.0319 -46.6907
L22.0871 -46.3677
L22.1445 -46.048
L22.2039 -45.7317
L22.2652 -45.4188
L22.3285 -45.1091
L22.3935 -44.8026
L22.4602 -44.4992
L22.5285 -44.199
L22.5984 -43.9017
L22.6698 -43.6074
L22.7426 -43.3161
L22.8168 -43.0275
L22.8922 -42.7417
L22.969 -42.4587
L23.0469 -42.1782
L23.126 -41.9003
L23.2063 -41.6249
L23.2877 -41.3519
L23.3701 -41.0812
L23.4536 -40.8128
L23.5381 -40.5466
L23.6236 -40.2826
L23.7101 -40.0206
L23.7976 -39.7606
L23.886 -39.5025
L23.9753 -39.2462
L24.0655 -38.9918
L24.1567 -38.739
L24.2488 -38.4879
L24.3418 -38.2384
L24.4357 -37.9903
L24.5305 -37.7437
L24.6262 -37.4985
L24.7229 -37.2546
L24.8204 -37.0119
L24.9189 -36.7705
L25.0183 -36.5301
L25.1187 -36.2908
L25.22 -36.0524
L25.3223 -35.815
L25.4256 -35.5785
L25.5299 -35.3427
L25.6352 -35.1078
L25.7416 -34.8734
L25.849 -34.6398
z
" id="C0_1_6d09cee335"/>
    </defs>
    <g clip-path="url(#p1bffca34e9)">
     <use style="fill:#ffffff;stroke:#000000;stroke-width:2.0;" x="0.0" xlink:href="#C0_0_a811fe30f3" y="72.0"/>
    </g>
    <g clip-path="url(#p1bffca34e9)">
     <use style="fill:#ff0000;stroke:#000000;stroke-width:2.0;" x="0.0" xlink:href="#C0_1_6d09cee335" y="72.0"/>
    </g>
   </g>
  </g>
 </g>
 <defs>
  <clipPath id="p1bffca34e9">
   <rect height="72.0" width="72.0" x="0.0" y="0.0"/>
  </clipPath>
 </defs>
</svg>
