<?xml version="1.0" encoding="utf-8" standalone="no"?>
<!DOCTYPE svg PUBLIC "-//W3C//DTD SVG 1.1//EN"
  "http://www.w3.org/Graphics/SVG/1.1/DTD/svg11.dtd">
<!-- Created with matplotlib (http://matplotlib.org/) -->
<svg height="72pt" version="1.1" viewBox="0 0 72 72" width="72pt" xmlns="http://www.w3.org/2000/svg" xmlns:xlink="http://www.w3.org/1999/xlink">
 <defs>
  <style type="text/css">
*{stroke-linecap:butt;stroke-linejoin:round;}
  </style>
 </defs>
 <g id="figure_1">
  <g id="patch_1">
   <path d="
M0 72
L72 72
L72 0
L0 0
z
" style="fill:none;"/>
  </g>
  <g id="axes_1">
   <g id="PatchCollection_1">
    <defs>
     <path d="
M36 -7.5
C43.5583 -7.5 50.808 -10.5029 56.1525 -15.8475
C61.4971 -21.192 64.5 -28.4417 64.5 -36
C64.5 -43.5583 61.4971 -50.808 56.1525 -56.1525
C50.808 -61.4971 43.5583 -64.5 36 -64.5
C28.4417 -64.5 21.192 -61.4971 15.8475 -56.1525
C10.5029 -50.808 7.5 -43.5583 7.5 -36
C7.5 -28.4417 10.5029 -21.192 15.8475 -15.8475
C21.192 -10.5029 28.4417 -7.5 36 -7.5
z
" id="C0_0_a811fe30f3"/>
     <path d="
M14.5192 -17.4806
L14.4909 -17.8258
L14.493 -18.1528
L14.5254 -18.4609
L14.5873 -18.7497
L14.6778 -19.0192
L14.7955 -19.2699
L14.9389 -19.5028
L15.106 -19.719
L15.295 -19.9198
L15.5037 -20.1066
L15.7301 -20.2811
L15.9725 -20.4447
L16.2288 -20.5989
L16.4975 -20.7448
L16.7768 -20.8838
L17.0655 -21.0168
L17.3622 -21.145
L17.6657 -21.269
L17.9749 -21.3897
L18.289 -21.5077
L18.6071 -21.6234
L18.9284 -21.7373
L19.2523 -21.8499
L19.5781 -21.9614
L19.9054 -22.0721
L20.2335 -22.1823
L20.5622 -22.292
L20.891 -22.4015
L21.2195 -22.5109
L21.5475 -22.6203
L21.8747 -22.7297
L22.2009 -22.8392
L22.5257 -22.9488
L22.8492 -23.0586
L23.1709 -23.1686
L23.4909 -23.2788
L23.809 -23.3893
L24.1251 -23.4999
L24.4391 -23.6107
L24.7509 -23.7217
L25.0604 -23.8329
L25.3676 -23.9443
L25.6725 -24.0558
L25.975 -24.1674
L26.275 -24.2792
L26.5726 -24.3911
L26.8678 -24.5032
L27.1605 -24.6153
L27.4508 -24.7274
L27.7387 -24.8397
L28.0241 -24.9519
L28.3071 -25.0643
L28.5878 -25.1766
L28.8662 -25.289
L29.1422 -25.4014
L29.416 -25.5139
L29.6875 -25.6263
L29.9568 -25.7388
L30.224 -25.8512
L30.4891 -25.9637
L30.7521 -26.0762
L31.0131 -26.1887
L31.2721 -26.3013
L31.5293 -26.4138
L31.7845 -26.5264
L32.038 -26.639
L32.2897 -26.7517
L32.5398 -26.8644
L32.7881 -26.9772
L33.0349 -27.0901
L33.2802 -27.2031
L33.524 -27.3162
L33.7663 -27.4293
L34.0073 -27.5427
L34.247 -27.6561
L34.4855 -27.7698
L34.7227 -27.8836
L34.9588 -27.9976
L35.1939 -28.1118
L35.4278 -28.2263
L35.6609 -28.341
L35.893 -28.456
L36.1242 -28.5713
L36.3547 -28.6869
L36.5844 -28.8028
L36.8134 -28.9192
L37.0417 -29.0358
L37.2695 -29.153
L37.4967 -29.2705
L37.7235 -29.3885
L37.9498 -29.507
L38.4014 -29.626
L38.6268 -29.7455
L38.852 -29.8656
L39.077 -29.9863
L39.3018 -30.1077
L39.5267 -30.2296
L39.7515 -30.3523
L39.9763 -30.4757
L40.2013 -30.5998
L40.4264 -30.7247
L40.6517 -30.8504
L40.8772 -30.9769
L41.1031 -31.1043
L41.3293 -31.2326
L41.5558 -31.3619
L41.7828 -31.4921
L42.0104 -31.6234
L42.2384 -31.7557
L42.467 -31.889
L42.6963 -32.0235
L42.9262 -32.1592
L43.1569 -32.296
L43.3883 -32.4341
L43.6205 -32.5734
L43.8536 -32.7141
L44.0876 -32.8561
L44.3225 -32.9995
L44.5584 -33.1443
L44.7953 -33.2906
L45.0333 -33.4384
L45.2724 -33.5878
L45.5126 -33.7387
L45.754 -33.8913
L45.9966 -34.0455
L46.2405 -34.2015
L46.4856 -34.3592
L46.732 -34.5186
L46.9797 -34.6799
L47.2287 -34.8431
L47.4792 -35.0082
L47.731 -35.1751
L47.9842 -35.3441
L48.2388 -35.515
L48.4949 -35.688
L48.7523 -35.863
L49.0113 -36.0401
L49.2716 -36.2192
L49.5334 -36.4005
L49.7966 -36.5839
L50.0613 -36.7694
L50.3273 -36.957
L50.5947 -37.1468
L50.8634 -37.3386
L51.1334 -37.5325
L51.4048 -37.7285
L51.6773 -37.9266
L51.951 -38.1265
L52.2259 -38.3284
L52.5018 -38.5322
L52.7788 -38.7376
L53.0566 -38.9448
L53.3353 -39.1534
L53.6148 -39.3634
L53.895 -39.5745
L54.1758 -39.7867
L54.4571 -39.9996
L54.7388 -40.2131
L55.0208 -40.4267
L55.3031 -40.6402
L55.5854 -40.8531
L55.8678 -41.065
L56.1501 -41.2754
L56.4323 -41.4838
L56.7143 -41.6893
L56.9959 -41.8914
L57.2773 -42.0891
L57.5582 -42.2814
L57.8388 -42.4673
L58.1189 -42.6454
L58.3988 -42.8145
L58.6783 -42.9729
L58.9576 -43.119
L59.2367 -43.2507
L59.5158 -43.366
L59.7949 -43.4626
L60.0741 -43.5383
L60.3535 -43.5906
L60.6331 -43.617
L60.9127 -43.6154
L61.1921 -43.5836
L61.471 -43.52
L61.749 -43.423
L62.0253 -43.2921
L62.2994 -43.1269
L62.5704 -42.9276
L62.8374 -42.6952
L63.0996 -42.4307
L63.3558 -42.1359
L63.6054 -41.8124
L63.8473 -41.4624
L64.0809 -41.0878
L64.1882 -40.6907
L64.2573 -40.2043
L64.3177 -39.7117
L64.3696 -39.218
L64.4128 -38.7233
L64.4474 -38.2278
L64.4732 -37.7315
L64.4905 -37.2348
L64.499 -36.7377
L64.4988 -36.2404
L64.49 -35.7429
L64.4725 -35.2456
L64.4463 -34.7485
L64.4115 -34.2518
L64.368 -33.7556
L64.3159 -33.2601
L64.2551 -32.7654
L64.1857 -32.2717
L64.1078 -31.7792
L64.0212 -31.2879
L63.9262 -30.7981
L63.8226 -30.3098
L63.7106 -29.8233
L63.5901 -29.3387
L63.4612 -28.8561
L63.324 -28.3757
L63.1784 -27.8976
L63.0246 -27.4219
L62.8625 -26.9489
L62.6922 -26.4786
L62.5138 -26.0113
L62.3274 -25.5469
L62.1329 -25.0858
L61.9304 -24.628
L61.7201 -24.1736
L61.5019 -23.7229
L61.2759 -23.2759
L61.0423 -22.8328
L60.801 -22.3936
L60.5522 -21.9587
L60.2959 -21.528
L60.0322 -21.1017
L59.7611 -20.6799
L59.4829 -20.2628
L59.1974 -19.8505
L58.9049 -19.4432
L58.6055 -19.0408
L58.2991 -18.6437
L57.986 -18.2518
L57.6661 -17.8653
L57.3397 -17.4844
L57.0068 -17.1091
L56.6674 -16.7395
L56.3218 -16.3758
L55.97 -16.0181
L55.612 -15.6665
L55.2482 -15.3211
L54.8784 -14.982
L54.5029 -14.6492
L54.1218 -14.323
L53.7351 -14.0034
L53.3431 -13.6905
L52.9457 -13.3843
L52.5432 -13.0851
L52.1357 -12.7929
L51.7232 -12.5077
L51.306 -12.2296
L50.8841 -11.9589
L50.4576 -11.6954
L50.0268 -11.4393
L49.5917 -11.1907
L49.1524 -10.9497
L48.7092 -10.7163
L48.262 -10.4906
L47.8112 -10.2727
L47.3567 -10.0626
L46.8988 -9.86046
L46.4375 -9.66624
L45.9731 -9.48004
L45.5056 -9.30192
L45.0353 -9.13193
L44.5621 -8.97013
L44.0864 -8.81656
L43.6082 -8.67127
L43.1277 -8.5343
L42.6451 -8.4057
L42.1604 -8.28551
L41.6738 -8.17376
L41.1855 -8.07048
L40.6956 -7.97571
L40.2043 -7.88948
L39.7117 -7.81181
L39.218 -7.74273
L38.7233 -7.68226
L38.2278 -7.63041
L37.7315 -7.5872
L37.2348 -7.55265
L36.7377 -7.52676
L36.2404 -7.50955
L35.7429 -7.50101
L35.2456 -7.50116
L34.7485 -7.50999
L34.2518 -7.52749
L33.7556 -7.55367
L33.2601 -7.58851
L32.7654 -7.63201
L32.2717 -7.68415
L31.7792 -7.74491
L31.2879 -7.81428
L30.7981 -7.89224
L30.3098 -7.97876
L29.8233 -8.07381
L29.3387 -8.17737
L28.8561 -8.28941
L28.3757 -8.40989
L27.8976 -8.53877
L27.4219 -8.67601
L26.9489 -8.82158
L26.4786 -8.97543
L26.0113 -9.13751
L25.5469 -9.30777
L25.0858 -9.48616
L24.628 -9.67263
L24.1736 -9.86712
L23.7229 -10.0696
L23.2759 -10.2799
L22.8328 -10.4981
L22.3936 -10.7241
L21.9587 -10.9577
L21.528 -11.199
L21.1017 -11.4478
L20.6799 -11.7041
L20.2628 -11.9678
L19.8505 -12.2389
L19.4432 -12.5171
L19.0408 -12.8026
L18.6437 -13.0951
L18.2518 -13.3945
L17.8653 -13.7009
L17.4844 -14.014
L17.1091 -14.3339
L16.7395 -14.6603
L16.3758 -14.9932
L16.0181 -15.3326
L15.6665 -15.6782
L15.3211 -16.03
L14.982 -16.388
z
" id="C0_1_a9631368e1"/>
     <path d="
M7.94442 -31.7646
L8.03142 -32.2373
L8.12173 -32.7157
L8.21605 -33.1982
L8.31498 -33.6835
L8.41896 -34.1702
L8.52834 -34.6573
L8.64337 -35.1436
L8.76421 -35.6284
L8.89097 -36.1107
L9.02366 -36.59
L9.16228 -37.0655
L9.30675 -37.5368
L9.45698 -38.0032
L9.61283 -38.4646
L9.77416 -38.9204
L9.94079 -39.3703
L10.1125 -39.8142
L10.2892 -40.2518
L10.4706 -40.6829
L10.6565 -41.1074
L10.8466 -41.5252
L11.0409 -41.9361
L11.2391 -42.3402
L11.4409 -42.7374
L11.6462 -43.1276
L11.8547 -43.511
L12.0664 -43.8874
L12.281 -44.257
L12.4983 -44.6198
L12.7181 -44.9758
L12.9404 -45.3251
L13.1649 -45.6679
L13.3915 -46.0041
L13.62 -46.3338
L13.8505 -46.6572
L14.0826 -46.9744
L14.3163 -47.2855
L14.5516 -47.5905
L14.7882 -47.8896
L15.0262 -48.1829
L15.2654 -48.4705
L15.5058 -48.7525
L15.7472 -49.029
L15.9897 -49.3002
L16.2331 -49.5661
L16.4775 -49.8269
L16.7227 -50.0827
L16.9688 -50.3336
L17.2156 -50.5796
L17.4633 -50.821
L17.7116 -51.0577
L17.9607 -51.29
L18.2105 -51.5179
L18.4609 -51.7414
L18.7121 -51.9608
L18.9639 -52.176
L19.2164 -52.3873
L19.4696 -52.5946
L19.7234 -52.798
L19.978 -52.9977
L20.2332 -53.1937
L20.4892 -53.3861
L20.7459 -53.575
L21.0033 -53.7604
L21.2616 -53.9425
L21.5206 -54.1212
L21.7804 -54.2966
L22.0411 -54.4689
L22.3027 -54.638
L22.5652 -54.804
L22.8286 -54.967
L23.093 -55.1271
L23.3585 -55.2842
L23.625 -55.4384
L23.8926 -55.5898
L24.1614 -55.7383
L24.4313 -55.8841
L24.7026 -56.0272
L24.975 -56.1675
L25.2489 -56.3052
L25.5241 -56.4403
L25.8008 -56.5727
L26.0789 -56.7025
L26.3587 -56.8297
L26.64 -56.9543
L26.923 -57.0764
L27.2077 -57.196
L27.4942 -57.313
L27.7825 -57.4274
L28.0727 -57.5393
L28.365 -57.6486
L28.6592 -57.7554
L28.9555 -57.8597
L29.254 -57.9613
L29.5548 -58.0604
L29.8578 -58.1568
L30.1632 -58.2506
L30.471 -58.3417
L30.7814 -58.4302
L31.0943 -58.5159
L31.4098 -58.5988
L31.7281 -58.6789
L32.0492 -58.7562
L32.3731 -58.8306
L32.6999 -58.902
L33.0298 -58.9704
L33.3627 -59.0357
L33.6987 -59.0979
L34.038 -59.1569
L34.3805 -59.2125
L34.7263 -59.2648
L35.0756 -59.3137
L35.4283 -59.359
L35.7846 -59.4006
L36.1444 -59.4386
L36.5079 -59.4726
L36.8751 -59.5028
L37.246 -59.5288
L37.6207 -59.5507
L37.9992 -59.5683
L38.3817 -59.5814
L38.768 -59.59
L39.1582 -59.5938
L39.5524 -59.5929
L39.9505 -59.5869
L40.3525 -59.5758
L40.7586 -59.5595
L41.1685 -59.5377
L41.5824 -59.5103
L42.0001 -59.4772
L42.4216 -59.4382
L42.8469 -59.3931
L43.2759 -59.3418
L43.7085 -59.2842
L44.1446 -59.2201
L44.584 -59.1494
L45.0266 -59.0719
L45.4724 -58.9876
L45.921 -58.8963
L46.3722 -58.7979
L46.826 -58.6923
L47.2819 -58.5796
L47.7398 -58.4597
L48.1993 -58.3327
L48.66 -58.1985
L49.1218 -58.0572
L49.584 -57.9091
L50.0465 -57.7543
L50.5085 -57.5931
L50.9698 -57.4259
L51.4297 -57.253
L51.8877 -57.0751
L52.3432 -56.8927
L52.7955 -56.7067
L53.244 -56.5179
L53.6879 -56.3275
L54.1265 -56.1366
L54.5589 -55.9469
L54.9843 -55.7597
L55.4018 -55.5771
L55.8105 -55.401
L56.2094 -55.2337
L56.5977 -55.0774
L56.9744 -54.9346
L57.0484 -54.8078
L56.7098 -55.215
L56.365 -55.5794
L56.0139 -55.9379
L55.6567 -56.2903
L55.2936 -56.6365
L54.9245 -56.9764
L54.5498 -57.3099
L54.1693 -57.6369
L53.7833 -57.9574
L53.3919 -58.2711
L52.9953 -58.5781
L52.5934 -58.8782
L52.1865 -59.1713
L51.7746 -59.4574
L51.358 -59.7363
L50.9366 -60.008
L50.5107 -60.2724
L50.0804 -60.5293
L49.6458 -60.7789
L49.2071 -61.0208
L48.7643 -61.2552
L48.3176 -61.4818
L47.8672 -61.7007
L47.4132 -61.9118
L46.9557 -62.1149
L46.4948 -62.3101
L46.0308 -62.4973
L45.5637 -62.6764
L45.0937 -62.8474
L44.6209 -63.0103
L44.1455 -63.1649
L43.6676 -63.3112
L43.1874 -63.4492
L42.705 -63.5788
L42.2205 -63.7001
L41.7342 -63.8129
L41.2461 -63.9172
L40.7564 -64.013
L40.2653 -64.1003
L39.7728 -64.179
L39.2792 -64.2492
L38.7846 -64.3107
L38.2892 -64.3636
L37.7931 -64.4079
L37.2964 -64.4435
L36.7993 -64.4705
L36.302 -64.4888
L35.8046 -64.4984
L35.3072 -64.4993
L34.8101 -64.4916
L34.3133 -64.4751
L33.817 -64.45
L33.3214 -64.4163
L32.8267 -64.3738
L32.3328 -64.3228
L31.8401 -64.2631
L31.3487 -64.1948
L30.8587 -64.1179
L30.3702 -64.0324
L29.8835 -63.9384
L29.3986 -63.8359
L28.9158 -63.7249
L28.4351 -63.6055
L27.9567 -63.4777
L27.4807 -63.3414
L27.0074 -63.1969
L26.5368 -63.0441
L26.069 -62.883
L25.6043 -62.7138
L25.1428 -62.5364
L24.6845 -62.3509
L24.2298 -62.1574
L23.7785 -61.9559
L23.3311 -61.7466
L22.8875 -61.5294
L22.4478 -61.3044
L22.0123 -61.0717
L21.5811 -60.8313
L21.1543 -60.5834
L20.7319 -60.328
L20.3143 -60.0652
L19.9014 -59.7951
L19.4934 -59.5177
L19.0904 -59.2332
L18.6926 -58.9416
L18.3001 -58.643
L17.9129 -58.3375
L17.5313 -58.0252
L17.1553 -57.7061
L16.785 -57.3805
L16.4206 -57.0484
L16.0621 -56.7098
L15.7097 -56.365
L15.3635 -56.0139
L15.0236 -55.6567
L14.6901 -55.2936
L14.3631 -54.9245
L14.0426 -54.5498
L13.7289 -54.1693
L13.4219 -53.7833
L13.1218 -53.3919
L12.8287 -52.9953
L12.5426 -52.5934
L12.2637 -52.1865
L11.992 -51.7746
L11.7276 -51.358
L11.4707 -50.9366
L11.2211 -50.5107
L10.9792 -50.0804
L10.7448 -49.6458
L10.5182 -49.2071
L10.2993 -48.7643
L10.0882 -48.3176
L9.88508 -47.8672
L9.68987 -47.4132
L9.50267 -46.9557
L9.32355 -46.4948
L9.15255 -46.0308
L8.98973 -45.5637
L8.83514 -45.0937
L8.68882 -44.6209
L8.55082 -44.1455
L8.42118 -43.6676
L8.29994 -43.1874
L8.18715 -42.705
L8.08282 -42.2205
L7.98699 -41.7342
L7.8997 -41.2461
L7.82097 -40.7564
L7.75083 -40.2653
L7.68928 -39.7728
L7.63637 -39.2792
L7.59209 -38.7846
L7.55646 -38.2892
L7.5295 -37.7931
L7.51121 -37.2964
L7.5016 -36.7993
L7.50067 -36.302
L7.50842 -35.8046
L7.52485 -35.3072
L7.54995 -34.8101
L7.58372 -34.3133
L7.62615 -33.817
L7.67722 -33.3214
L7.73692 -32.8267
z
" id="C0_2_5d7211eb29"/>
    </defs>
    <g clip-path="url(#p1bffca34e9)">
     <use style="fill:#ff0000;stroke:#000000;stroke-width:2.0;" x="0.0" xlink:href="#C0_0_a811fe30f3" y="72.0"/>
    </g>
    <g clip-path="url(#p1bffca34e9)">
     <use style="fill:#ffffff;stroke:#000000;stroke-width:2.0;" x="0.0" xlink:href="#C0_1_a9631368e1" y="72.0"/>
    </g>
    <g clip-path="url(#p1bffca34e9)">
     <use style="fill:#ffffff;stroke:#000000;stroke-width:2.0;" x="0.0" xlink:href="#C0_2_5d7211eb29" y="72.0"/>
    </g>
   </g>
  </g>
 </g>
 <defs>
  <clipPath id="p1bffca34e9">
   <rect height="72.0" width="72.0" x="0.0" y="0.0"/>
  </clipPath>
 </defs>
</svg>
