<?xml version="1.0" encoding="utf-8" standalone="no"?>
<!DOCTYPE svg PUBLIC "-//W3C//DTD SVG 1.1//EN"
  "http://www.w3.org/Graphics/SVG/1.1/DTD/svg11.dtd">
<!-- Created with matplotlib (http://matplotlib.org/) -->
<svg height="72pt" version="1.1" viewBox="0 0 72 72" width="72pt" xmlns="http://www.w3.org/2000/svg" xmlns:xlink="http://www.w3.org/1999/xlink">
 <defs>
  <style type="text/css">
*{stroke-linecap:butt;stroke-linejoin:round;}
  </style>
 </defs>
 <g id="figure_1">
  <g id="patch_1">
   <path d="
M0 72
L72 72
L72 0
L0 0
z
" style="fill:none;"/>
  </g>
  <g id="axes_1">
   <g id="PatchCollection_1">
    <defs>
     <path d="
M36 -7.5
C43.5583 -7.5 50.808 -10.5029 56.1525 -15.8475
C61.4971 -21.192 64.5 -28.4417 64.5 -36
C64.5 -43.5583 61.4971 -50.808 56.1525 -56.1525
C50.808 -61.4971 43.5583 -64.5 36 -64.5
C28.4417 -64.5 21.192 -61.4971 15.8475 -56.1525
C10.5029 -50.808 7.5 -43.5583 7.5 -36
C7.5 -28.4417 10.5029 -21.192 15.8475 -15.8475
C21.192 -10.5029 28.4417 -7.5 36 -7.5
z
" id="C0_0_a811fe30f3"/>
     <path d="
M26.6444 -62.6679
L26.6917 -62.4296
L26.719 -62.1825
L26.7272 -61.927
L26.7174 -61.6635
L26.6909 -61.3923
L26.6488 -61.114
L26.5925 -60.8289
L26.5233 -60.5375
L26.4426 -60.2401
L26.3517 -59.9372
L26.2518 -59.6292
L26.1441 -59.3165
L26.0297 -58.9995
L25.9098 -58.6786
L25.7853 -58.3541
L25.6571 -58.0264
L25.5261 -57.6958
L25.393 -57.3628
L25.2584 -57.0275
L25.1231 -56.6903
L24.9874 -56.3515
L24.852 -56.0114
L24.7172 -55.6703
L24.5835 -55.3283
L24.4511 -54.9858
L24.3203 -54.6429
L24.1914 -54.2998
L24.0647 -53.9568
L23.9402 -53.614
L23.8182 -53.2717
L23.6987 -52.9299
L23.5819 -52.5888
L23.4678 -52.2485
L23.3566 -51.9092
L23.2483 -51.571
L23.1428 -51.234
L23.0403 -50.8982
L22.9408 -50.5637
L22.8442 -50.2307
L22.7505 -49.8991
L22.6598 -49.5691
L22.572 -49.2407
L22.4871 -48.9139
L22.4051 -48.5887
L22.3259 -48.2652
L22.2494 -47.9435
L22.1758 -47.6234
L22.1048 -47.3051
L22.0366 -46.9885
L21.9709 -46.6736
L21.9079 -46.3604
L21.8473 -46.049
L21.7893 -45.7393
L21.7338 -45.4312
L21.6806 -45.1248
L21.6298 -44.8201
L21.5813 -44.517
L21.5351 -44.2154
L21.4911 -43.9154
L21.4493 -43.617
L21.4097 -43.32
L21.3722 -43.0245
L21.3367 -42.7303
L21.3033 -42.4376
L21.2719 -42.1462
L21.2424 -41.856
L21.2149 -41.5671
L21.1893 -41.2794
L21.1655 -40.9929
L21.1436 -40.7074
L21.1235 -40.423
L21.1053 -40.1396
L21.0887 -39.8572
L21.074 -39.5756
L21.0609 -39.2949
L21.0496 -39.015
L21.0399 -38.7359
L21.0319 -38.4574
L21.0256 -38.1796
L21.0209 -37.9024
L21.0178 -37.6258
L21.0164 -37.3496
L21.0166 -37.0739
L21.0184 -36.7985
L21.0217 -36.5235
L21.0267 -36.2487
L21.0333 -35.9742
L21.0512 -35.6998
L21.0625 -35.4255
L21.0754 -35.1513
L21.09 -34.8771
L21.1061 -34.6029
L21.1238 -34.3286
L21.1432 -34.0541
L21.1642 -33.7794
L21.1868 -33.5045
L21.2111 -33.2292
L21.237 -32.9536
L21.2647 -32.6776
L21.294 -32.4011
L21.325 -32.1241
L21.3578 -31.8465
L21.3924 -31.5683
L21.4287 -31.2894
L21.4669 -31.0098
L21.5069 -30.7295
L21.5487 -30.4483
L21.5925 -30.1663
L21.6381 -29.8834
L21.6857 -29.5995
L21.7354 -29.3146
L21.787 -29.0287
L21.8407 -28.7416
L21.8965 -28.4535
L21.9544 -28.1642
L22.0145 -27.8736
L22.0768 -27.5819
L22.1414 -27.2888
L22.2082 -26.9944
L22.2775 -26.6987
L22.3491 -26.4016
L22.4231 -26.1031
L22.4996 -25.8031
L22.5787 -25.5017
L22.6603 -25.1988
L22.7445 -24.8945
L22.8314 -24.5886
L22.9211 -24.2812
L23.0134 -23.9723
L23.1086 -23.6619
L23.2066 -23.3499
L23.3075 -23.0365
L23.4113 -22.7215
L23.5181 -22.4051
L23.6278 -22.0872
L23.7405 -21.7678
L23.8563 -21.4471
L23.9751 -21.125
L24.097 -20.8016
L24.2219 -20.477
L24.3499 -20.1512
L24.4809 -19.8243
L24.6149 -19.4963
L24.7518 -19.1674
L24.8916 -18.8376
L25.0343 -18.5071
L25.1796 -18.176
L25.3276 -17.8444
L25.478 -17.5124
L25.6307 -17.1802
L25.7855 -16.8479
L25.9422 -16.5158
L26.1005 -16.1839
L26.2601 -15.8525
L26.4207 -15.5218
L26.5818 -15.192
L26.743 -14.8633
L26.9039 -14.5359
L27.0638 -14.2102
L27.2221 -13.8862
L27.3781 -13.5643
L27.531 -13.2448
L27.68 -12.9279
L27.8242 -12.6139
L27.9626 -12.3031
L28.0939 -11.9958
L28.2172 -11.6923
L28.3311 -11.3929
L28.4344 -11.0979
L28.5258 -10.8076
L28.6038 -10.5224
L28.6671 -10.2424
L28.7143 -9.96814
L28.7443 -9.69983
L28.7557 -9.43782
L28.7475 -9.18242
L28.7187 -8.93396
L28.6684 -8.69276
L28.1889 -8.45916
L27.7117 -8.5913
L27.2371 -8.7318
L26.7651 -8.8806
L26.296 -9.03767
L25.8298 -9.20294
L25.3667 -9.37638
L24.9068 -9.55793
L24.4504 -9.74754
L23.9974 -9.94514
L23.5481 -10.1507
L23.1026 -10.3641
L22.661 -10.5853
L22.2235 -10.8143
L21.7902 -11.0509
L21.3612 -11.2951
L20.9366 -11.5469
L20.5167 -11.8061
L20.1014 -12.0727
L19.6911 -12.3465
L19.2856 -12.6276
L18.8853 -12.9158
L18.4902 -13.211
L18.1004 -13.5132
L17.7161 -13.8222
L17.3373 -14.138
L16.9642 -14.4604
L16.597 -14.7894
L16.2356 -15.1248
L15.8803 -15.4666
L15.531 -15.8147
L15.1881 -16.1689
L14.8514 -16.5292
L14.5212 -16.8954
L14.1976 -17.2674
L13.8805 -17.6451
L13.5703 -18.0284
L13.2668 -18.4171
L12.9703 -18.8113
L12.6808 -19.2106
L12.3984 -19.6151
L12.1232 -20.0246
L11.8552 -20.4389
L11.5946 -20.858
L11.3415 -21.2817
L11.0958 -21.7099
L10.8578 -22.1424
L10.6274 -22.5792
L10.4047 -23.02
L10.1898 -23.4648
L9.98284 -23.9134
L9.78376 -24.3657
L9.59266 -24.8215
L9.4096 -25.2808
L9.23465 -25.7433
L9.06785 -26.2089
L8.90925 -26.6775
L8.7589 -27.1489
L8.61685 -27.6231
L8.48315 -28.0998
L8.35782 -28.5789
L8.24092 -29.0603
L8.13247 -29.5437
L8.03251 -30.0292
L7.94106 -30.5165
L7.85817 -31.0054
L7.78385 -31.4958
L7.71812 -31.9877
L7.66101 -32.4807
L7.61253 -32.9749
L7.5727 -33.4699
L7.54152 -33.9657
L7.51902 -34.4621
L7.50519 -34.959
L7.50004 -35.4563
L7.50357 -35.9537
L7.51578 -36.4511
L7.53667 -36.9483
L7.56623 -37.4453
L7.60445 -37.9418
L7.65132 -38.4378
L7.70682 -38.933
L7.77095 -39.4273
L7.84367 -39.9205
L7.92497 -40.4126
L8.01482 -40.9033
L8.11319 -41.3926
L8.22006 -41.8801
L8.3354 -42.3659
L8.45916 -42.8498
L8.5913 -43.3316
L8.7318 -43.8111
L8.8806 -44.2883
L9.03767 -44.7629
L9.20294 -45.2349
L9.37638 -45.704
L9.55793 -46.1702
L9.74754 -46.6333
L9.94514 -47.0932
L10.1507 -47.5496
L10.3641 -48.0026
L10.5853 -48.4519
L10.8143 -48.8974
L11.0509 -49.339
L11.2951 -49.7765
L11.5469 -50.2098
L11.8061 -50.6388
L12.0727 -51.0634
L12.3465 -51.4833
L12.6276 -51.8986
L12.9158 -52.3089
L13.211 -52.7144
L13.5132 -53.1147
L13.8222 -53.5098
L14.138 -53.8996
L14.4604 -54.2839
L14.7894 -54.6627
L15.1248 -55.0358
L15.4666 -55.403
L15.8147 -55.7644
L16.1689 -56.1197
L16.5292 -56.469
L16.8954 -56.8119
L17.2674 -57.1486
L17.6451 -57.4788
L18.0284 -57.8024
L18.4171 -58.1195
L18.8113 -58.4297
L19.2106 -58.7332
L19.6151 -59.0297
L20.0246 -59.3192
L20.4389 -59.6016
L20.858 -59.8768
L21.2817 -60.1448
L21.7099 -60.4054
L22.1424 -60.6585
L22.5792 -60.9042
L23.02 -61.1422
L23.4648 -61.3726
L23.9134 -61.5953
L24.3657 -61.8102
L24.8215 -62.0172
L25.2808 -62.2162
L25.7433 -62.4073
z
" id="C0_1_8d6dba7be0"/>
     <path d="
M43.2813 -63.3072
L43.2525 -63.066
L43.2443 -62.8176
L43.2557 -62.5622
L43.2857 -62.3002
L43.3329 -62.0319
L43.3962 -61.7576
L43.4742 -61.4776
L43.5656 -61.1924
L43.6689 -60.9021
L43.7828 -60.6071
L43.9061 -60.3077
L44.0374 -60.0042
L44.1758 -59.6969
L44.32 -59.3861
L44.469 -59.0721
L44.6219 -58.7552
L44.7779 -58.4357
L44.9362 -58.1138
L45.0961 -57.7898
L45.257 -57.4641
L45.4182 -57.1367
L45.5793 -56.808
L45.7399 -56.4782
L45.8995 -56.1475
L46.0578 -55.8161
L46.2145 -55.4842
L46.3693 -55.1521
L46.522 -54.8198
L46.6724 -54.4876
L46.8204 -54.1556
L46.9657 -53.824
L47.1084 -53.4929
L47.2482 -53.1624
L47.3851 -52.8326
L47.5191 -52.5037
L47.6501 -52.1757
L47.7781 -51.8488
L47.903 -51.523
L48.0249 -51.1984
L48.1437 -50.875
L48.2595 -50.5529
L48.3722 -50.2322
L48.4819 -49.9128
L48.5887 -49.5949
L48.6925 -49.2785
L48.7934 -48.9635
L48.8914 -48.6501
L48.9866 -48.3381
L49.0789 -48.0277
L49.1686 -47.7188
L49.2555 -47.4114
L49.3397 -47.1055
L49.4213 -46.8012
L49.5004 -46.4983
L49.5769 -46.1969
L49.6509 -45.8969
L49.7225 -45.5984
L49.7918 -45.3013
L49.8586 -45.0056
L49.9232 -44.7112
L49.9855 -44.4181
L50.0456 -44.1264
L50.1035 -43.8358
L50.1593 -43.5465
L50.213 -43.2584
L50.2646 -42.9713
L50.3143 -42.6854
L50.3619 -42.4005
L50.4075 -42.1166
L50.4513 -41.8337
L50.4931 -41.5517
L50.5331 -41.2705
L50.5713 -40.9902
L50.6076 -40.7106
L50.6422 -40.4317
L50.675 -40.1535
L50.706 -39.8759
L50.7353 -39.5989
L50.763 -39.3224
L50.7889 -39.0464
L50.8132 -38.7708
L50.8358 -38.4955
L50.8568 -38.2206
L50.8762 -37.9459
L50.8939 -37.6714
L50.91 -37.3971
L50.9246 -37.1229
L50.9375 -36.8487
L50.9488 -36.5745
L50.9586 -36.3002
L50.9667 -36.0258
L50.9733 -35.7513
L50.9783 -35.4765
L50.9816 -35.2015
L50.9834 -34.9261
L50.9836 -34.6504
L50.9822 -34.3742
L50.9791 -34.0976
L50.9744 -33.8204
L50.9681 -33.5426
L50.9601 -33.2641
L50.9504 -32.985
L50.9391 -32.7051
L50.926 -32.4244
L50.9113 -32.1428
L50.8947 -31.8604
L50.8765 -31.577
L50.8564 -31.2926
L50.8345 -31.0071
L50.8107 -30.7206
L50.7851 -30.4329
L50.7576 -30.144
L50.7281 -29.8538
L50.6967 -29.5624
L50.6633 -29.2697
L50.6278 -28.9755
L50.5903 -28.68
L50.5507 -28.383
L50.5089 -28.0846
L50.4649 -27.7846
L50.4187 -27.483
L50.3702 -27.1799
L50.3194 -26.8752
L50.2662 -26.5688
L50.2107 -26.2607
L50.1527 -25.951
L50.0921 -25.6396
L50.0291 -25.3264
L49.9634 -25.0115
L49.8952 -24.6949
L49.8242 -24.3766
L49.7506 -24.0565
L49.6741 -23.7348
L49.5949 -23.4113
L49.5129 -23.0861
L49.428 -22.7593
L49.3402 -22.4309
L49.2495 -22.1009
L49.1558 -21.7693
L49.0592 -21.4363
L48.9597 -21.1018
L48.8572 -20.766
L48.7517 -20.429
L48.6434 -20.0908
L48.5322 -19.7515
L48.4181 -19.4112
L48.3013 -19.0701
L48.1818 -18.7283
L48.0598 -18.386
L47.9353 -18.0432
L47.8086 -17.7002
L47.6797 -17.3571
L47.5489 -17.0142
L47.4165 -16.6717
L47.2828 -16.3297
L47.148 -15.9886
L47.0126 -15.6485
L46.8769 -15.3097
L46.7416 -14.9725
L46.607 -14.6372
L46.4739 -14.3042
L46.3429 -13.9736
L46.2147 -13.6459
L46.0902 -13.3214
L45.9703 -13.0005
L45.8559 -12.6835
L45.7482 -12.3708
L45.6483 -12.0628
L45.5574 -11.7599
L45.4767 -11.4625
L45.4075 -11.1711
L45.3512 -10.886
L45.3091 -10.6077
L45.2826 -10.3365
L45.2728 -10.073
L45.281 -9.81748
L45.3083 -9.57038
L45.3556 -9.33211
L45.8916 -9.10304
L46.3565 -9.27161
L46.8183 -9.44831
L47.2769 -9.6331
L47.7319 -9.82592
L48.1835 -10.0267
L48.6312 -10.2354
L49.0752 -10.452
L49.5152 -10.6763
L49.951 -10.9084
L50.3826 -11.1481
L50.8098 -11.3953
L51.2325 -11.6501
L51.6506 -11.9123
L52.0639 -12.1818
L52.4723 -12.4585
L52.8757 -12.7425
L53.274 -13.0335
L53.667 -13.3315
L54.0546 -13.6364
L54.4367 -13.9482
L54.8132 -14.2666
L55.1839 -14.5917
L55.5488 -14.9233
L55.9078 -15.2613
L56.2607 -15.6057
L56.6074 -15.9562
L56.9479 -16.3129
L57.2819 -16.6755
L57.6095 -17.044
L57.9305 -17.4183
L58.2449 -17.7983
L58.5524 -18.1838
L58.8531 -18.5748
L59.1468 -18.971
L59.4335 -19.3724
L59.713 -19.7789
L59.9853 -20.1904
L60.2503 -20.6066
L60.5079 -21.0276
L60.7581 -21.4531
L61.0007 -21.883
L61.2356 -22.3173
L61.4629 -22.7557
L61.6825 -23.1981
L61.8942 -23.6445
L62.0981 -24.0946
L62.2939 -24.5483
L62.4818 -25.0055
L62.6616 -25.4661
L62.8333 -25.9298
L62.9968 -26.3967
L63.1521 -26.8665
L63.2991 -27.339
L63.4378 -27.8142
L63.5682 -28.2919
L63.6901 -28.7719
L63.8036 -29.2541
L63.9087 -29.7384
L64.0052 -30.2246
L64.0932 -30.7126
L64.1727 -31.2021
L64.2436 -31.6932
L64.3058 -32.1855
L64.3595 -32.679
L64.4045 -33.1735
L64.4409 -33.6689
L64.4686 -34.165
L64.4876 -34.6616
L64.4979 -35.1587
L64.4996 -35.656
L64.4926 -36.1534
L64.4769 -36.6507
L64.4525 -37.1479
L64.4195 -37.6447
L64.3778 -38.141
L64.3274 -38.6367
L64.2685 -39.1316
L64.2009 -39.6255
L64.1247 -40.1183
L64.04 -40.6098
L63.9467 -41.0999
L63.8449 -41.5885
L63.7346 -42.0754
L63.6159 -42.5605
L63.4888 -43.0435
L63.3533 -43.5244
L63.2094 -44.003
L63.0573 -44.4791
L62.897 -44.9527
L62.7284 -45.4236
L62.5517 -45.8916
L62.3669 -46.3565
L62.1741 -46.8183
L61.9733 -47.2769
L61.7646 -47.7319
L61.548 -48.1835
L61.3237 -48.6312
L61.0916 -49.0752
L60.8519 -49.5152
L60.6047 -49.951
L60.3499 -50.3826
L60.0877 -50.8098
L59.8182 -51.2325
L59.5415 -51.6506
L59.2575 -52.0639
L58.9665 -52.4723
L58.6685 -52.8757
L58.3636 -53.274
L58.0518 -53.667
L57.7334 -54.0546
L57.4083 -54.4367
L57.0767 -54.8132
L56.7387 -55.1839
L56.3943 -55.5488
L56.0438 -55.9078
L55.6871 -56.2607
L55.3245 -56.6074
L54.956 -56.9479
L54.5817 -57.2819
L54.2017 -57.6095
L53.8162 -57.9305
L53.4252 -58.2449
L53.029 -58.5524
L52.6276 -58.8531
L52.2211 -59.1468
L51.8096 -59.4335
L51.3934 -59.713
L50.9724 -59.9853
L50.5469 -60.2503
L50.117 -60.5079
L49.6827 -60.7581
L49.2443 -61.0007
L48.8019 -61.2356
L48.3555 -61.4629
L47.9054 -61.6825
L47.4517 -61.8942
L46.9945 -62.0981
L46.5339 -62.2939
L46.0702 -62.4818
L45.6033 -62.6616
L45.1335 -62.8333
L44.661 -62.9968
L44.1858 -63.1521
z
" id="C0_2_8be37ccf51"/>
    </defs>
    <g clip-path="url(#p1bffca34e9)">
     <use style="fill:#ffffff;stroke:#000000;stroke-width:2.0;" x="0.0" xlink:href="#C0_0_a811fe30f3" y="72.0"/>
    </g>
    <g clip-path="url(#p1bffca34e9)">
     <use style="fill:#ff0000;stroke:#000000;stroke-width:2.0;" x="0.0" xlink:href="#C0_1_8d6dba7be0" y="72.0"/>
    </g>
    <g clip-path="url(#p1bffca34e9)">
     <use style="fill:#ff0000;stroke:#000000;stroke-width:2.0;" x="0.0" xlink:href="#C0_2_8be37ccf51" y="72.0"/>
    </g>
   </g>
  </g>
 </g>
 <defs>
  <clipPath id="p1bffca34e9">
   <rect height="72.0" width="72.0" x="0.0" y="0.0"/>
  </clipPath>
 </defs>
</svg>
