<?xml version="1.0" encoding="utf-8" standalone="no"?>
<!DOCTYPE svg PUBLIC "-//W3C//DTD SVG 1.1//EN"
  "http://www.w3.org/Graphics/SVG/1.1/DTD/svg11.dtd">
<!-- Created with matplotlib (http://matplotlib.org/) -->
<svg height="72pt" version="1.1" viewBox="0 0 72 72" width="72pt" xmlns="http://www.w3.org/2000/svg" xmlns:xlink="http://www.w3.org/1999/xlink">
 <defs>
  <style type="text/css">
*{stroke-linecap:butt;stroke-linejoin:round;}
  </style>
 </defs>
 <g id="figure_1">
  <g id="patch_1">
   <path d="
M0 72
L72 72
L72 0
L0 0
z
" style="fill:none;"/>
  </g>
  <g id="axes_1">
   <g id="PatchCollection_1">
    <defs>
     <path d="
M36 -7.5
C43.5583 -7.5 50.808 -10.5029 56.1525 -15.8475
C61.4971 -21.192 64.5 -28.4417 64.5 -36
C64.5 -43.5583 61.4971 -50.808 56.1525 -56.1525
C50.808 -61.4971 43.5583 -64.5 36 -64.5
C28.4417 -64.5 21.192 -61.4971 15.8475 -56.1525
C10.5029 -50.808 7.5 -43.5583 7.5 -36
C7.5 -28.4417 10.5029 -21.192 15.8475 -15.8475
C21.192 -10.5029 28.4417 -7.5 36 -7.5
z
" id="C0_0_a811fe30f3"/>
     <path d="
M53.654 -58.2968
L53.3964 -58.2169
L53.1505 -58.1208
L52.9164 -58.009
L52.6937 -57.8821
L52.4822 -57.7407
L52.2815 -57.5857
L52.0912 -57.4176
L51.9108 -57.2373
L51.7398 -57.0453
L51.5776 -56.8426
L51.4237 -56.6298
L51.2775 -56.4076
L51.1385 -56.1767
L51.0061 -55.9378
L50.8798 -55.6916
L50.759 -55.4388
L50.6432 -55.1798
L50.532 -54.9153
L50.425 -54.6458
L50.3217 -54.3719
L50.2218 -54.094
L50.1249 -53.8125
L50.0306 -53.528
L49.9388 -53.2408
L49.849 -52.9513
L49.7611 -52.6598
L49.6748 -52.3667
L49.59 -52.0722
L49.5064 -51.7767
L49.424 -51.4803
L49.3424 -51.1834
L49.2617 -50.8861
L49.1816 -50.5886
L49.1022 -50.2912
L49.0232 -49.9939
L48.9446 -49.697
L48.8664 -49.4006
L48.7884 -49.1048
L48.7107 -48.8097
L48.6331 -48.5155
L48.5556 -48.2221
L48.4781 -47.9298
L48.4007 -47.6384
L48.3233 -47.3483
L48.2459 -47.0593
L48.1684 -46.7715
L48.0909 -46.485
L48.0133 -46.1998
L47.9355 -45.9159
L47.8576 -45.6333
L47.7796 -45.3521
L47.7015 -45.0722
L47.6232 -44.7938
L47.5447 -44.5167
L47.466 -44.2409
L47.3871 -43.9665
L47.3081 -43.6935
L47.2288 -43.4218
L47.1493 -43.1514
L47.0696 -42.8824
L46.9897 -42.6146
L46.9095 -42.348
L46.829 -42.0827
L46.7484 -41.8186
L46.6674 -41.5557
L46.5862 -41.2939
L46.5047 -41.0332
L46.423 -40.7735
L46.3409 -40.5149
L46.2585 -40.2574
L46.1758 -40.0007
L46.0928 -39.7451
L46.0095 -39.4902
L45.9258 -39.2363
L45.8418 -38.9831
L45.7574 -38.7308
L45.6726 -38.4791
L45.5875 -38.2281
L45.5019 -37.9778
L45.416 -37.728
L45.3296 -37.4788
L45.2428 -37.2302
L45.1555 -36.982
L45.0678 -36.7342
L44.9796 -36.4868
L44.8909 -36.2397
L44.8017 -35.9929
L44.712 -35.7464
L44.531 -35.5
L44.4396 -35.2539
L44.3476 -35.0078
L44.2551 -34.7618
L44.1619 -34.5158
L44.0681 -34.2699
L43.9737 -34.0238
L43.8786 -33.7776
L43.7827 -33.5313
L43.6862 -33.2848
L43.589 -33.0381
L43.491 -32.791
L43.3923 -32.5437
L43.2928 -32.2959
L43.1924 -32.0478
L43.0913 -31.7992
L42.9893 -31.5501
L42.8865 -31.3005
L42.7828 -31.0503
L42.6782 -30.7995
L42.5727 -30.548
L42.4663 -30.2958
L42.3589 -30.0429
L42.2506 -29.7893
L42.1413 -29.5348
L42.0309 -29.2794
L41.9196 -29.0232
L41.8072 -28.7661
L41.6938 -28.508
L41.5794 -28.249
L41.4638 -27.9889
L41.3472 -27.7278
L41.2295 -27.4656
L41.1107 -27.2024
L40.9908 -26.938
L40.8697 -26.6725
L40.7476 -26.4058
L40.6243 -26.1379
L40.5 -25.8688
L40.3745 -25.5985
L40.2479 -25.327
L40.1203 -25.0543
L39.9916 -24.7803
L39.8618 -24.505
L39.7311 -24.2285
L39.5993 -23.9508
L39.4666 -23.6718
L39.333 -23.3916
L39.1986 -23.1102
L39.0633 -22.8276
L38.9273 -22.5438
L38.7907 -22.2588
L38.6535 -21.9727
L38.5159 -21.6855
L38.3779 -21.3973
L38.2396 -21.108
L38.1013 -20.8178
L37.963 -20.5267
L37.8249 -20.2347
L37.6872 -19.942
L37.5502 -19.6485
L37.4139 -19.3543
L37.2788 -19.0597
L37.145 -18.7645
L37.0128 -18.4689
L36.8826 -18.1731
L36.7547 -17.877
L36.6295 -17.5809
L36.5075 -17.2848
L36.3889 -16.9888
L36.2744 -16.6931
L36.1645 -16.3978
L36.0597 -16.103
L35.9605 -15.8089
L35.8677 -15.5156
L35.7818 -15.2232
L35.7036 -14.932
L35.6338 -14.6419
L35.5731 -14.3534
L35.5223 -14.0664
L35.4823 -13.7811
L35.4537 -13.4979
L35.4374 -13.2167
L35.4341 -12.938
L35.4447 -12.6618
L35.4699 -12.3883
L35.5102 -12.118
L35.5664 -11.8508
L35.639 -11.5873
L35.7285 -11.3275
L35.8352 -11.0719
L35.9594 -10.8206
L36.1013 -10.5741
L36.261 -10.3327
L36.4384 -10.0967
L36.6333 -9.86635
L36.8456 -9.64213
L37.0749 -9.42434
L37.3207 -9.21334
L37.5827 -9.00947
L37.8602 -8.81306
L38.1527 -8.62443
L38.4595 -8.44391
L38.7799 -8.27179
L39.1133 -8.10836
L39.4589 -7.95387
L39.9639 -7.80858
L40.4559 -7.77701
L40.9465 -7.85048
L41.4356 -7.93254
L41.923 -8.02314
L42.4086 -8.12226
L42.8923 -8.22988
L43.3739 -8.34596
L43.8532 -8.47046
L44.3302 -8.60334
L44.8046 -8.74457
L45.2763 -8.8941
L45.7452 -9.05189
L46.2111 -9.21789
L46.6739 -9.39205
L47.1335 -9.57431
L47.5897 -9.76462
L48.0423 -9.96292
L48.4913 -10.1692
L48.9365 -10.3833
L49.3777 -10.6052
L49.8148 -10.8348
L50.2478 -11.0721
L50.6764 -11.317
L51.1005 -11.5694
L51.5201 -11.8293
L51.9349 -12.0965
L52.3448 -12.371
L52.7498 -12.6527
L53.1497 -12.9415
L53.5443 -13.2374
L53.9337 -13.5401
L54.3175 -13.8497
L54.6958 -14.1661
L55.0683 -14.4891
L55.4351 -14.8187
L55.7959 -15.1547
L56.1507 -15.497
L56.4994 -15.8457
L56.8418 -16.2004
L57.1779 -16.5612
L57.5076 -16.9279
L57.8306 -17.3004
L58.1471 -17.6786
L58.4567 -18.0624
L58.7596 -18.4516
L59.0555 -18.8462
L59.3444 -19.2461
L59.6261 -19.651
L59.9007 -20.0609
L60.168 -20.4757
L60.428 -20.8951
L60.6805 -21.3192
L60.9254 -21.7478
L61.1628 -22.1807
L61.3925 -22.6178
L61.6145 -23.059
L61.8287 -23.5041
L62.035 -23.9531
L62.2334 -24.4057
L62.4238 -24.8618
L62.6061 -25.3214
L62.7804 -25.7841
L62.9465 -26.25
L63.1043 -26.7189
L63.2539 -27.1906
L63.3953 -27.665
L63.5282 -28.1419
L63.6528 -28.6212
L63.769 -29.1028
L63.8767 -29.5864
L63.9759 -30.072
L64.0666 -30.5594
L64.1487 -31.0485
L64.2223 -31.5391
L64.2873 -32.031
L64.3436 -32.5242
L64.3913 -33.0184
L64.4304 -33.5135
L64.4608 -34.0094
L64.4825 -34.5059
L64.4956 -35.0028
L64.5 -35.5001
L64.4957 -35.9975
L64.4827 -36.4948
L64.4611 -36.9921
L64.4308 -37.489
L64.3918 -37.9855
L64.3441 -38.4814
L64.2879 -38.9765
L64.223 -39.4708
L64.1495 -39.9639
L64.0675 -40.4559
L63.9769 -40.9465
L63.8777 -41.4356
L63.7701 -41.923
L63.654 -42.4086
L63.5295 -42.8923
L63.3967 -43.3739
L63.2554 -43.8532
L63.1059 -44.3302
L62.9481 -44.8046
L62.7821 -45.2763
L62.608 -45.7452
L62.4257 -46.2111
L62.2354 -46.6739
L62.0371 -47.1335
L61.8308 -47.5897
L61.6167 -48.0423
L61.3948 -48.4913
L61.1652 -48.9365
L60.9279 -49.3777
L60.683 -49.8148
L60.4306 -50.2478
L60.1707 -50.6764
L59.9035 -51.1005
L59.629 -51.5201
L59.3473 -51.9349
L59.0585 -52.3448
L58.7626 -52.7498
L58.4599 -53.1497
L58.1503 -53.5443
L57.8339 -53.9337
L57.5109 -54.3175
L57.1813 -54.6958
L56.8453 -55.0683
L56.503 -55.4351
L56.1543 -55.7959
L55.7996 -56.1507
L55.4388 -56.4994
L55.0721 -56.8418
L54.6996 -57.1779
L54.3214 -57.5076
z
" id="C0_1_e2716fedc5"/>
     <path d="
M32.2062 -64.1622
L31.8919 -63.9377
L31.5753 -63.7104
L31.2572 -63.4804
L30.9381 -63.2476
L30.6187 -63.012
L30.2996 -62.7737
L29.9812 -62.5328
L29.6641 -62.2892
L29.3487 -62.0432
L29.0353 -61.7946
L28.7244 -61.5438
L28.4162 -61.2906
L28.111 -61.0354
L27.809 -60.7781
L27.5105 -60.5188
L27.2157 -60.2578
L26.9247 -59.995
L26.6377 -59.7306
L26.3547 -59.4648
L26.076 -59.1976
L25.8015 -58.9291
L25.5313 -58.6594
L25.2655 -58.3886
L25.0041 -58.1169
L24.7471 -57.8443
L24.4946 -57.5709
L24.2465 -57.2968
L24.0028 -57.022
L23.7636 -56.7467
L23.5288 -56.4709
L23.2983 -56.1947
L23.0721 -55.918
L22.8502 -55.6411
L22.6326 -55.3639
L22.4192 -55.0864
L22.2099 -54.8088
L22.0047 -54.531
L21.8035 -54.2532
L21.6063 -53.9752
L21.413 -53.6971
L21.2236 -53.4191
L21.038 -53.141
L20.8561 -52.8628
L20.6778 -52.5847
L20.5032 -52.3066
L20.3321 -52.0285
L20.1645 -51.7504
L20.0004 -51.4723
L19.8396 -51.1942
L19.6821 -50.9162
L19.5278 -50.638
L19.3768 -50.3599
L19.2289 -50.0818
L19.0841 -49.8035
L18.9423 -49.5252
L18.8035 -49.2468
L18.6677 -48.9683
L18.5347 -48.6897
L18.4045 -48.4108
L18.2772 -48.1318
L18.1526 -47.8526
L18.0307 -47.5731
L17.9115 -47.2933
L17.795 -47.0132
L17.681 -46.7327
L17.5696 -46.4519
L17.4607 -46.1706
L17.3543 -45.8889
L17.2504 -45.6067
L17.1489 -45.3239
L17.0499 -45.0406
L16.9532 -44.7566
L16.8589 -44.472
L16.767 -44.1866
L16.6774 -43.9006
L16.5901 -43.6137
L16.5052 -43.326
L16.4225 -43.0374
L16.3421 -42.7479
L16.264 -42.4574
L16.1882 -42.166
L16.1147 -41.8734
L16.0434 -41.5797
L15.9743 -41.2849
L15.9076 -40.9889
L15.8431 -40.6916
L15.7809 -40.393
L15.721 -40.093
L15.6633 -39.7917
L15.608 -39.4889
L15.555 -39.1846
L15.5044 -38.8788
L15.4561 -38.5714
L15.4101 -38.2624
L15.3666 -37.9517
L15.3255 -37.6392
L15.2868 -37.325
L15.2506 -37.009
L15.217 -36.6911
L15.1858 -36.3713
L15.1572 -36.0496
L15.1313 -35.7259
L15.1079 -35.4002
L15.0873 -35.0725
L15.0694 -34.7427
L15.0542 -34.4107
L15.0419 -34.0766
L15.0324 -33.7404
L15.0258 -33.4019
L15.0222 -33.0612
L15.0215 -32.7183
L15.0239 -32.3732
L15.0294 -32.0258
L15.0381 -31.6762
L15.05 -31.3242
L15.0651 -30.9701
L15.0834 -30.6137
L15.1052 -30.255
L15.1303 -29.8942
L15.1589 -29.5311
L15.1909 -29.166
L15.2264 -28.7987
L15.2655 -28.4293
L15.3082 -28.058
L15.3544 -27.6847
L15.4043 -27.3096
L15.4577 -26.9327
L15.5148 -26.5541
L15.5756 -26.174
L15.6399 -25.7924
L15.7077 -25.4095
L15.7791 -25.0254
L15.8539 -24.6402
L15.9321 -24.2542
L16.0136 -23.8675
L16.0982 -23.4803
L16.1858 -23.0928
L16.2763 -22.7052
L16.3693 -22.3178
L16.4649 -21.9308
L16.5625 -21.5444
L16.6621 -21.159
L16.7632 -20.7748
L16.8654 -20.3922
L16.9685 -20.0114
L17.0718 -19.6328
L17.1751 -19.2568
L17.2776 -18.8836
L17.3788 -18.5136
L17.4782 -18.1473
L17.5751 -17.7849
L17.6688 -17.4269
L17.7585 -17.0737
L17.8436 -16.7256
L17.9232 -16.3831
L17.9966 -16.0465
L18.0629 -15.7161
L18.1215 -15.3925
L18.1716 -15.0758
L18.2125 -14.7665
L18.2435 -14.4648
L18.2639 -14.1711
L17.7892 -13.8856
L17.4094 -14.077
L17.0352 -14.3982
L16.6668 -14.7259
L16.3043 -15.0601
L15.9478 -15.4007
L15.5974 -15.7476
L15.2532 -16.1007
L14.9153 -16.4598
L14.5839 -16.8248
L14.259 -17.1957
L13.9407 -17.5723
L13.6291 -17.9546
L13.3244 -18.3423
L13.0265 -18.7354
L12.7356 -19.1338
L12.4519 -19.5373
L12.1753 -19.9458
L11.9059 -20.3593
L11.6439 -20.7774
L11.3894 -21.2003
L11.1423 -21.6276
L10.9028 -22.0593
L10.6709 -22.4952
L10.4467 -22.9353
L10.2304 -23.3794
L10.0218 -23.8272
L9.82124 -24.2788
L9.62861 -24.734
L9.44401 -25.1926
L9.2675 -25.6545
L9.09914 -26.1195
L8.93896 -26.5876
L8.78704 -27.0585
L8.6434 -27.5321
L8.50809 -28.0084
L8.38116 -28.487
L8.26264 -28.968
L8.15257 -29.4511
L8.05098 -29.9361
L7.95791 -30.4231
L7.87337 -30.9117
L7.79741 -31.4019
L7.73003 -31.8934
L7.67127 -32.3863
L7.62114 -32.8802
L7.57965 -33.3751
L7.54682 -33.8708
L7.52265 -34.3671
L7.50716 -34.8639
L7.50035 -35.3611
L7.50222 -35.8585
L7.51277 -36.3559
L7.532 -36.8532
L7.5599 -37.3502
L7.59646 -37.8468
L7.64168 -38.3429
L7.69553 -38.8383
L7.75801 -39.3327
L7.82909 -39.8262
L7.90875 -40.3185
L7.99696 -40.8095
L8.09371 -41.299
L8.19895 -41.787
L8.31267 -42.2731
L8.43482 -42.7573
L8.56536 -43.2395
L8.70427 -43.7195
L8.85148 -44.1971
L9.00697 -44.6723
L9.17068 -45.1447
L9.34256 -45.6144
L9.52256 -46.0812
L9.71063 -46.5449
L9.9067 -47.0054
L10.1107 -47.4625
L10.3226 -47.9162
L10.5424 -48.3662
L10.7699 -48.8124
L11.005 -49.2548
L11.2478 -49.6931
L11.4981 -50.1272
L11.7559 -50.5571
L12.0211 -50.9825
L12.2936 -51.4033
L12.5733 -51.8195
L12.8601 -52.2308
L13.154 -52.6372
L13.4548 -53.0385
L13.7625 -53.4346
L14.077 -53.8254
L14.3982 -54.2108
L14.7259 -54.5906
L15.0601 -54.9648
L15.4007 -55.3332
L15.7476 -55.6957
L16.1007 -56.0522
L16.4598 -56.4026
L16.8248 -56.7468
L17.1957 -57.0847
L17.5723 -57.4161
L17.9546 -57.741
L18.3423 -58.0593
L18.7354 -58.3709
L19.1338 -58.6756
L19.5373 -58.9735
L19.9458 -59.2644
L20.3593 -59.5481
L20.7774 -59.8247
L21.2003 -60.0941
L21.6276 -60.3561
L22.0593 -60.6106
L22.4952 -60.8577
L22.9353 -61.0972
L23.3794 -61.3291
L23.8272 -61.5533
L24.2788 -61.7696
L24.734 -61.9782
L25.1926 -62.1788
L25.6545 -62.3714
L26.1195 -62.556
L26.5876 -62.7325
L27.0585 -62.9009
L27.5321 -63.061
L28.0084 -63.213
L28.487 -63.3566
L28.968 -63.4919
L29.4511 -63.6188
L29.9361 -63.7374
L30.4231 -63.8474
L30.9117 -63.949
L31.4019 -64.0421
z
" id="C0_2_5c7da3d4ec"/>
    </defs>
    <g clip-path="url(#p1bffca34e9)">
     <use style="fill:#ff0000;stroke:#000000;stroke-width:2.0;" x="0.0" xlink:href="#C0_0_a811fe30f3" y="72.0"/>
    </g>
    <g clip-path="url(#p1bffca34e9)">
     <use style="fill:#ffffff;stroke:#000000;stroke-width:2.0;" x="0.0" xlink:href="#C0_1_e2716fedc5" y="72.0"/>
    </g>
    <g clip-path="url(#p1bffca34e9)">
     <use style="fill:#ffffff;stroke:#000000;stroke-width:2.0;" x="0.0" xlink:href="#C0_2_5c7da3d4ec" y="72.0"/>
    </g>
   </g>
  </g>
 </g>
 <defs>
  <clipPath id="p1bffca34e9">
   <rect height="72.0" width="72.0" x="0.0" y="0.0"/>
  </clipPath>
 </defs>
</svg>
