<?xml version="1.0" encoding="utf-8" standalone="no"?>
<!DOCTYPE svg PUBLIC "-//W3C//DTD SVG 1.1//EN"
  "http://www.w3.org/Graphics/SVG/1.1/DTD/svg11.dtd">
<!-- Created with matplotlib (http://matplotlib.org/) -->
<svg height="72pt" version="1.1" viewBox="0 0 72 72" width="72pt" xmlns="http://www.w3.org/2000/svg" xmlns:xlink="http://www.w3.org/1999/xlink">
 <defs>
  <style type="text/css">
*{stroke-linecap:butt;stroke-linejoin:round;}
  </style>
 </defs>
 <g id="figure_1">
  <g id="patch_1">
   <path d="
M0 72
L72 72
L72 0
L0 0
z
" style="fill:none;"/>
  </g>
  <g id="axes_1">
   <g id="PatchCollection_1">
    <defs>
     <path d="
M36 -7.5
C43.5583 -7.5 50.808 -10.5029 56.1525 -15.8475
C61.4971 -21.192 64.5 -28.4417 64.5 -36
C64.5 -43.5583 61.4971 -50.808 56.1525 -56.1525
C50.808 -61.4971 43.5583 -64.5 36 -64.5
C28.4417 -64.5 21.192 -61.4971 15.8475 -56.1525
C10.5029 -50.808 7.5 -43.5583 7.5 -36
C7.5 -28.4417 10.5029 -21.192 15.8475 -15.8475
C21.192 -10.5029 28.4417 -7.5 36 -7.5
z
" id="C0_0_a811fe30f3"/>
     <path d="
M37.6978 -24.7136
L37.9354 -24.8203
L38.1725 -24.9283
L38.4092 -25.0377
L38.6456 -25.1486
L38.8817 -25.2609
L39.1175 -25.3747
L39.3532 -25.49
L39.5886 -25.6069
L39.824 -25.7253
L40.0594 -25.8454
L40.2947 -25.9672
L40.5302 -26.0906
L40.7657 -26.2158
L41.0013 -26.3427
L41.2372 -26.4715
L41.4732 -26.6022
L41.7096 -26.7348
L41.9463 -26.8693
L42.1833 -27.0059
L42.4208 -27.1445
L42.6586 -27.2853
L42.897 -27.4283
L43.1359 -27.5735
L43.3753 -27.721
L43.6153 -27.8709
L43.856 -28.0232
L44.0973 -28.1781
L44.3392 -28.3354
L44.5819 -28.4954
L44.8253 -28.6582
L45.0694 -28.8237
L45.3143 -28.992
L45.5599 -29.1633
L45.8064 -29.3375
L46.0536 -29.5149
L46.3017 -29.6954
L46.5506 -29.8792
L46.8002 -30.0663
L47.0507 -30.2569
L47.302 -30.4509
L47.554 -30.6486
L47.8068 -30.8499
L48.0603 -31.055
L48.3145 -31.264
L48.5693 -31.4769
L48.8248 -31.6939
L49.0807 -31.915
L49.3372 -32.1404
L49.594 -32.3701
L49.8512 -32.6042
L50.1086 -32.8429
L50.3661 -33.0861
L50.6237 -33.3341
L50.8811 -33.5868
L51.1382 -33.8444
L51.3949 -34.1069
L51.6511 -34.3745
L51.9064 -34.6471
L52.1608 -34.925
L52.414 -35.208
L52.6657 -35.4964
L52.9157 -35.7901
L53.1637 -36.0892
L53.4094 -36.3938
L53.6524 -36.7038
L53.8924 -37.0193
L54.1289 -37.3403
L54.3615 -37.6668
L54.5898 -37.9988
L54.8132 -38.3362
L55.0311 -38.6791
L55.2429 -39.0273
L55.4479 -39.3809
L55.6453 -39.7396
L55.8344 -40.1035
L56.0142 -40.4723
L56.1836 -40.8458
L56.3416 -41.224
L56.4869 -41.6066
L56.6182 -41.9932
L56.734 -42.3836
L56.8327 -42.7774
L56.9126 -43.1742
L56.972 -43.5734
L57.0089 -43.9746
L57.0217 -44.3769
L57.0087 -44.7797
L56.9686 -45.1822
L56.9001 -45.5834
L56.8027 -45.9823
L56.6763 -46.3781
L56.521 -46.7698
L56.3379 -47.1563
L56.1281 -47.5369
L55.8934 -47.9106
L55.6354 -48.2769
L55.3562 -48.635
L55.0577 -48.9845
L54.7419 -49.3249
L54.4106 -49.6558
L54.0656 -49.9771
L53.7085 -50.2884
L53.3408 -50.5898
L52.964 -50.8809
L52.5791 -51.1619
L52.1874 -51.4326
L51.7899 -51.6932
L51.3875 -51.9437
L50.981 -52.1841
L50.5713 -52.4146
L50.159 -52.6353
L49.7448 -52.8463
L49.3293 -53.0479
L48.9129 -53.2401
L48.4962 -53.4231
L48.0796 -53.5972
L47.6635 -53.7625
L47.2482 -53.9193
L46.834 -54.0677
L46.4214 -54.2079
L46.0104 -54.3403
L45.6014 -54.4649
L45.1945 -54.582
L44.79 -54.6918
L44.388 -54.7945
L43.9887 -54.8904
L43.5921 -54.9796
L43.1984 -55.0623
L42.8077 -55.1387
L42.42 -55.2091
L42.0355 -55.2736
L41.6541 -55.3324
L41.2759 -55.3856
L40.901 -55.4335
L40.5293 -55.4763
L40.1609 -55.514
L39.7957 -55.5468
L39.4338 -55.575
L39.0751 -55.5985
L38.7196 -55.6177
L38.3674 -55.6326
L38.0183 -55.6433
L37.6723 -55.6499
L37.3294 -55.6527
L36.9896 -55.6516
L36.6528 -55.6469
L36.3189 -55.6385
L35.9879 -55.6267
L35.6598 -55.6114
L35.3344 -55.5929
L35.0118 -55.571
L34.6919 -55.5461
L34.3745 -55.518
L34.0597 -55.487
L33.7474 -55.4529
L33.4375 -55.416
L33.13 -55.3763
L32.8247 -55.3337
L32.5217 -55.2885
L32.2209 -55.2405
L31.9221 -55.1899
L31.6254 -55.1367
L31.3306 -55.0808
L31.0378 -55.0225
L30.7467 -54.9616
L30.4575 -54.8982
L30.17 -54.8323
L29.8841 -54.7639
L29.5998 -54.6931
L29.317 -54.6198
L29.0357 -54.5441
L28.7558 -54.466
L28.4772 -54.3854
L28.1999 -54.3024
L27.9239 -54.2169
L27.649 -54.129
L27.3752 -54.0386
L27.1025 -53.9458
L26.8308 -53.8504
L26.56 -53.7526
L26.2901 -53.6522
L26.0211 -53.5492
L25.7529 -53.4437
L25.4854 -53.3356
L25.2186 -53.2248
L24.9525 -53.1113
L24.6869 -52.9951
L24.422 -52.8761
L24.1575 -52.7543
L23.8935 -52.6296
L23.63 -52.5021
L23.3668 -52.3715
L23.1041 -52.238
L22.8416 -52.1013
L22.5795 -51.9615
L22.3176 -51.8186
L22.0559 -51.6723
L21.7944 -51.5226
L21.5332 -51.3696
L21.2721 -51.213
L21.0111 -51.0529
L20.7502 -50.889
L20.4895 -50.7215
L20.2289 -50.55
L19.9683 -50.3746
L19.7078 -50.1952
L19.4474 -50.0116
L19.1871 -49.8237
L18.9269 -49.6315
L18.6668 -49.4348
L18.4069 -49.2335
L18.147 -49.0275
L17.8874 -48.8166
L17.6279 -48.6008
L17.3687 -48.3799
L17.1097 -48.1537
L16.8511 -47.9222
L16.5929 -47.6852
L16.3351 -47.4426
L16.0779 -47.1941
L15.8213 -46.9398
L15.5654 -46.6793
L15.3103 -46.4126
L15.0561 -46.1396
L14.8029 -45.86
L14.5509 -45.5737
L14.3002 -45.2806
L14.051 -44.9805
L13.8035 -44.6733
L13.5577 -44.3588
L13.314 -44.0368
L13.0725 -43.7073
L12.8335 -43.37
L12.5972 -43.0249
L12.3638 -42.6719
L12.1337 -42.3108
L11.9072 -41.9414
L11.6845 -41.5638
L11.4661 -41.1779
L11.2522 -40.7835
L11.0432 -40.3806
L10.8396 -39.9692
L10.6418 -39.5493
L10.4502 -39.121
L10.2653 -38.6841
L10.0876 -38.239
L9.91764 -37.7856
L9.75593 -37.3241
L9.60306 -36.8548
L9.45963 -36.3778
L9.32629 -35.8936
L9.20369 -35.4024
L9.09252 -34.9048
L8.9935 -34.4013
L8.90739 -33.8925
L8.83498 -33.3791
L8.77708 -32.8621
L8.73455 -32.3422
L8.70826 -31.8208
L8.69912 -31.299
L8.70805 -30.7783
L8.73596 -30.2602
L8.78377 -29.7466
L8.85232 -29.2393
L8.9424 -28.7403
L9.05466 -28.2519
L9.18955 -27.7761
L9.34733 -27.3149
L9.52791 -26.8703
L9.73094 -26.4439
L9.95571 -26.037
L10.2012 -25.6506
L10.4661 -25.285
L10.749 -24.9404
L11.0482 -24.6166
L11.362 -24.3131
L11.6889 -24.0292
L12.0271 -23.7641
L12.3752 -23.5169
L12.7318 -23.2867
L13.0956 -23.0726
L13.4654 -22.8738
L13.8402 -22.6894
L14.2191 -22.5186
L14.6011 -22.3607
L14.9856 -22.2149
L15.3718 -22.0808
L15.7593 -21.9576
L16.1473 -21.8447
L16.5355 -21.7418
L16.9234 -21.6481
L17.3106 -21.5634
L17.6967 -21.4872
L18.0815 -21.419
L18.4647 -21.3585
L18.846 -21.3053
L19.2252 -21.259
L19.602 -21.2193
L19.9765 -21.1859
L20.3482 -21.1584
L20.7173 -21.1367
L21.0834 -21.1204
L21.4466 -21.1093
L21.8068 -21.1031
L22.1638 -21.1017
L22.5176 -21.1046
L22.8683 -21.1119
L23.2157 -21.1232
L23.5598 -21.1383
L23.9006 -21.1572
L24.2382 -21.1795
L24.5724 -21.2053
L24.9034 -21.2342
L25.2312 -21.2661
L25.5557 -21.301
L25.8771 -21.3387
L26.1952 -21.379
L26.5103 -21.4219
L26.8223 -21.4672
L27.1312 -21.5149
L27.4371 -21.5648
L27.7401 -21.6168
L28.0403 -21.6709
L28.3376 -21.727
L28.6321 -21.7849
L28.9239 -21.8448
L29.2131 -21.9064
L29.4997 -21.9697
L29.7838 -22.0346
L30.0654 -22.1012
L30.3447 -22.1693
L30.6216 -22.2389
L30.8963 -22.31
L31.1687 -22.3825
L31.4391 -22.4565
L31.7074 -22.5318
L31.9737 -22.6084
L32.2381 -22.6863
L32.5006 -22.7656
L32.7613 -22.8461
L33.0203 -22.9278
L33.2777 -23.0108
L33.5334 -23.0951
L33.7877 -23.1805
L34.0404 -23.2672
L34.2918 -23.3551
L34.5418 -23.4441
L34.7905 -23.5344
L35.038 -23.6259
L35.2844 -23.7186
L35.5297 -23.8125
L35.7739 -23.9076
L36.0172 -24.0039
L36.2595 -24.1015
L36.501 -24.2003
L36.7418 -24.3004
L36.9817 -24.4017
L37.221 -24.5044
z
" id="C0_1_97e5b77c2a"/>
    </defs>
    <g clip-path="url(#p1bffca34e9)">
     <use style="fill:#ffffff;stroke:#000000;stroke-width:2.0;" x="0.0" xlink:href="#C0_0_a811fe30f3" y="72.0"/>
    </g>
    <g clip-path="url(#p1bffca34e9)">
     <use style="fill:#ff0000;stroke:#000000;stroke-width:2.0;" x="0.0" xlink:href="#C0_1_97e5b77c2a" y="72.0"/>
    </g>
   </g>
  </g>
 </g>
 <defs>
  <clipPath id="p1bffca34e9">
   <rect height="72.0" width="72.0" x="0.0" y="0.0"/>
  </clipPath>
 </defs>
</svg>
