<?xml version="1.0" encoding="utf-8" standalone="no"?>
<!DOCTYPE svg PUBLIC "-//W3C//DTD SVG 1.1//EN"
  "http://www.w3.org/Graphics/SVG/1.1/DTD/svg11.dtd">
<!-- Created with matplotlib (http://matplotlib.org/) -->
<svg height="72pt" version="1.1" viewBox="0 0 72 72" width="72pt" xmlns="http://www.w3.org/2000/svg" xmlns:xlink="http://www.w3.org/1999/xlink">
 <defs>
  <style type="text/css">
*{stroke-linecap:butt;stroke-linejoin:round;}
  </style>
 </defs>
 <g id="figure_1">
  <g id="patch_1">
   <path d="
M0 72
L72 72
L72 0
L0 0
z
" style="fill:none;"/>
  </g>
  <g id="axes_1">
   <g id="PatchCollection_1">
    <defs>
     <path d="
M36 -7.5
C43.5583 -7.5 50.808 -10.5029 56.1525 -15.8475
C61.4971 -21.192 64.5 -28.4417 64.5 -36
C64.5 -43.5583 61.4971 -50.808 56.1525 -56.1525
C50.808 -61.4971 43.5583 -64.5 36 -64.5
C28.4417 -64.5 21.192 -61.4971 15.8475 -56.1525
C10.5029 -50.808 7.5 -43.5583 7.5 -36
C7.5 -28.4417 10.5029 -21.192 15.8475 -15.8475
C21.192 -10.5029 28.4417 -7.5 36 -7.5
z
" id="C0_0_a811fe30f3"/>
     <path d="
M23.2862 -43.9778
L23.4709 -44.1779
L23.6572 -44.3767
L23.8451 -44.5741
L24.0347 -44.7702
L24.2261 -44.9651
L24.4192 -45.1587
L24.6141 -45.3511
L24.8109 -45.5424
L25.0096 -45.7326
L25.2102 -45.9216
L25.4128 -46.1095
L25.6174 -46.2964
L25.8241 -46.4822
L26.0329 -46.667
L26.244 -46.8507
L26.4572 -47.0335
L26.6728 -47.2153
L26.8907 -47.3961
L27.1111 -47.5759
L27.3339 -47.7547
L27.5593 -47.9326
L27.7872 -48.1095
L28.0179 -48.2855
L28.2512 -48.4604
L28.4874 -48.6344
L28.7264 -48.8074
L28.9683 -48.9793
L29.2132 -49.1502
L29.4612 -49.3201
L29.7123 -49.4889
L29.9666 -49.6565
L30.2242 -49.8231
L30.4851 -49.9884
L30.7494 -50.1525
L31.0173 -50.3153
L31.2886 -50.4767
L31.5636 -50.6368
L31.8423 -50.7955
L32.1247 -50.9526
L32.411 -51.1081
L32.7011 -51.2619
L32.9952 -51.4139
L33.2933 -51.5641
L33.5954 -51.7123
L33.9017 -51.8584
L34.2122 -52.0024
L34.5268 -52.144
L34.8457 -52.2831
L35.1689 -52.4197
L35.4965 -52.5534
L35.8283 -52.6843
L36.1646 -52.812
L36.5052 -52.9365
L36.8501 -53.0575
L37.1994 -53.1748
L37.5531 -53.2882
L37.911 -53.3975
L38.2732 -53.5023
L38.6396 -53.6025
L39.0101 -53.6978
L39.3847 -53.7879
L39.7631 -53.8725
L40.1453 -53.9513
L40.5311 -54.0238
L40.9204 -54.0899
L41.3129 -54.1491
L41.7084 -54.2009
L42.1067 -54.2451
L42.5074 -54.2812
L42.9102 -54.3087
L43.3149 -54.3272
L43.7209 -54.3362
L44.1278 -54.3352
L44.5352 -54.3236
L44.9425 -54.3009
L45.3492 -54.2667
L45.7545 -54.2202
L46.158 -54.161
L46.5588 -54.0884
L46.9562 -54.002
L47.3493 -53.901
L47.7374 -53.7851
L48.1196 -53.6538
L48.4949 -53.5065
L48.8626 -53.343
L49.2216 -53.1629
L49.5711 -52.9662
L49.9104 -52.7527
L50.2386 -52.5225
L50.5551 -52.2759
L50.8592 -52.0131
L51.1505 -51.7348
L51.4285 -51.4414
L51.693 -51.1338
L51.9438 -50.8128
L52.1807 -50.4792
L52.4039 -50.134
L52.6133 -49.7782
L52.809 -49.4129
L52.9915 -49.0389
L53.1608 -48.6574
L53.3173 -48.2692
L53.4613 -47.8752
L53.5931 -47.4764
L53.7132 -47.0736
L53.8218 -46.6676
L53.9194 -46.259
L54.0063 -45.8485
L54.083 -45.4369
L54.1497 -45.0245
L54.2068 -44.6121
L54.2548 -44.2
L54.2939 -43.7887
L54.3246 -43.3786
L54.347 -42.9701
L54.3617 -42.5634
L54.3688 -42.159
L54.3687 -41.757
L54.3617 -41.3577
L54.348 -40.9613
L54.328 -40.568
L54.302 -40.178
L54.2701 -39.7914
L54.2326 -39.4083
L54.1898 -39.0288
L54.142 -38.653
L54.0892 -38.2811
L54.0317 -37.9129
L53.9698 -37.5487
L53.9036 -37.1883
L53.8333 -36.832
L53.7591 -36.4795
L53.6811 -36.1311
L53.5996 -35.7866
L53.5146 -35.446
L53.4263 -35.1093
L53.3348 -34.7766
L53.2403 -34.4477
L53.1429 -34.1226
L53.0426 -33.8014
L52.9397 -33.4838
L52.8342 -33.17
L52.7262 -32.8598
L52.6158 -32.5532
L52.503 -32.2501
L52.388 -31.9505
L52.2708 -31.6543
L52.1516 -31.3614
L52.0302 -31.0719
L51.9069 -30.7855
L51.7817 -30.5024
L51.6545 -30.2223
L51.5255 -29.9452
L51.3947 -29.6712
L51.2622 -29.4
L51.1279 -29.1317
L50.9919 -28.8661
L50.8542 -28.6033
L50.7148 -28.3431
L50.5738 -28.0855
L50.4312 -27.8304
L50.287 -27.5778
L50.1412 -27.3275
L49.9938 -27.0797
L49.8447 -26.8341
L49.6941 -26.5907
L49.5419 -26.3495
L49.3881 -26.1104
L49.2327 -25.8734
L49.0757 -25.6383
L48.917 -25.4053
L48.7567 -25.1741
L48.5947 -24.9448
L48.4311 -24.7173
L48.2658 -24.4916
L48.0988 -24.2676
L47.93 -24.0452
L47.7594 -23.8245
L47.5871 -23.6054
L47.4129 -23.3879
L47.2369 -23.1718
L47.0589 -22.9573
L46.8791 -22.7441
L46.6973 -22.5324
L46.5134 -22.3221
L46.3275 -22.1132
L46.1396 -21.9055
L45.9494 -21.6992
L45.7571 -21.4941
L45.5626 -21.2904
L45.3657 -21.0878
L45.1665 -20.8865
L44.9649 -20.6864
L44.7609 -20.4874
L44.5543 -20.2897
L44.3452 -20.0932
L44.1335 -19.8978
L43.919 -19.7036
L43.7018 -19.5105
L43.4817 -19.3187
L43.2588 -19.128
L43.0328 -18.9386
L42.8038 -18.7503
L42.5718 -18.5633
L42.3365 -18.3775
L42.0979 -18.193
L41.856 -18.0097
L41.6107 -17.8279
L41.3619 -17.6473
L41.1094 -17.4682
L40.8534 -17.2906
L40.5935 -17.1144
L40.3298 -16.9399
L40.0622 -16.7669
L39.7906 -16.5957
L39.5149 -16.4262
L39.2351 -16.2586
L38.9509 -16.0929
L38.6624 -15.9293
L38.3695 -15.7677
L38.0721 -15.6085
L37.7701 -15.4516
L37.4634 -15.2972
L37.152 -15.1454
L36.8358 -14.9964
L36.5146 -14.8504
L36.1886 -14.7074
L35.8575 -14.5677
L35.5213 -14.4314
L35.18 -14.2988
L34.8336 -14.17
L34.4819 -14.0453
L34.1251 -13.9249
L33.763 -13.8091
L33.3957 -13.698
L33.0231 -13.5921
L32.6453 -13.4915
L32.2623 -13.3965
L31.8742 -13.3075
L31.4811 -13.2248
L31.0829 -13.1488
L30.6799 -13.0797
L30.2722 -13.0179
L29.8599 -12.964
L29.4432 -12.9181
L29.0223 -12.8808
L28.5975 -12.8525
L28.1691 -12.8336
L27.7373 -12.8245
L27.3026 -12.8258
L26.8654 -12.8379
L26.426 -12.8613
L25.9851 -12.8965
L25.5432 -12.9439
L25.1008 -13.0041
L24.6587 -13.0776
L24.2176 -13.1648
L23.7783 -13.2663
L23.3416 -13.3824
L22.9085 -13.5136
L22.4799 -13.6602
L22.0568 -13.8227
L21.6403 -14.0012
L21.2315 -14.1959
L20.8314 -14.407
L20.4411 -14.6345
L20.0617 -14.8782
L19.6942 -15.138
L19.3395 -15.4134
L18.9984 -15.7041
L18.6718 -16.0093
L18.3602 -16.3284
L18.0641 -16.6606
L17.7839 -17.005
L17.5197 -17.3606
L17.2718 -17.7265
L17.04 -18.1016
L16.8243 -18.4849
L16.6244 -18.8754
L16.4401 -19.2721
L16.2711 -19.674
L16.1168 -20.0803
L15.977 -20.49
L15.8511 -20.9025
L15.7387 -21.3169
L15.6393 -21.7325
L15.5525 -22.1488
L15.4776 -22.5651
L15.4143 -22.9808
L15.3621 -23.3956
L15.3204 -23.8089
L15.289 -24.2204
L15.2672 -24.6297
L15.2546 -25.0365
L15.2509 -25.4405
L15.2557 -25.8415
L15.2685 -26.2392
L15.289 -26.6334
L15.3167 -27.0239
L15.3514 -27.4107
L15.3928 -27.7935
L15.4404 -28.1724
L15.494 -28.5471
L15.5533 -28.9177
L15.6181 -29.284
L15.6879 -29.6461
L15.7627 -30.0038
L15.8421 -30.3573
L15.9259 -30.7064
L16.0139 -31.0512
L16.1059 -31.3917
L16.2017 -31.728
L16.3011 -32.0599
L16.404 -32.3877
L16.5101 -32.7113
L16.6192 -33.0307
L16.7314 -33.3461
L16.8463 -33.6574
L16.964 -33.9647
L17.0842 -34.2682
L17.2068 -34.5677
L17.3318 -34.8635
L17.459 -35.1556
L17.5884 -35.4441
L17.7198 -35.7289
L17.8532 -36.0102
L17.9884 -36.2881
L18.1256 -36.5627
L18.2644 -36.8339
L18.405 -37.1019
L18.5472 -37.3668
L18.6911 -37.6286
L18.8365 -37.8873
L18.9834 -38.1432
L19.1318 -38.3962
L19.2816 -38.6464
L19.4329 -38.8938
L19.5855 -39.1386
L19.7396 -39.3809
L19.895 -39.6206
L20.0517 -39.8578
L20.2098 -40.0927
L20.3692 -40.3252
L20.5299 -40.5555
L20.692 -40.7835
L20.8553 -41.0094
L21.02 -41.2333
L21.186 -41.4551
L21.3533 -41.6749
L21.522 -41.8928
L21.692 -42.1089
L21.8634 -42.3231
L22.0362 -42.5356
L22.2104 -42.7464
L22.386 -42.9555
L22.5631 -43.1631
L22.7416 -43.369
L22.9216 -43.5734
z
" id="C0_1_6f863b7d5c"/>
    </defs>
    <g clip-path="url(#p1bffca34e9)">
     <use style="fill:#ffffff;stroke:#000000;stroke-width:2.0;" x="0.0" xlink:href="#C0_0_a811fe30f3" y="72.0"/>
    </g>
    <g clip-path="url(#p1bffca34e9)">
     <use style="fill:#ff0000;stroke:#000000;stroke-width:2.0;" x="0.0" xlink:href="#C0_1_6f863b7d5c" y="72.0"/>
    </g>
   </g>
  </g>
 </g>
 <defs>
  <clipPath id="p1bffca34e9">
   <rect height="72.0" width="72.0" x="0.0" y="0.0"/>
  </clipPath>
 </defs>
</svg>
