<?xml version="1.0" encoding="utf-8" standalone="no"?>
<!DOCTYPE svg PUBLIC "-//W3C//DTD SVG 1.1//EN"
  "http://www.w3.org/Graphics/SVG/1.1/DTD/svg11.dtd">
<!-- Created with matplotlib (http://matplotlib.org/) -->
<svg height="72pt" version="1.1" viewBox="0 0 72 72" width="72pt" xmlns="http://www.w3.org/2000/svg" xmlns:xlink="http://www.w3.org/1999/xlink">
 <defs>
  <style type="text/css">
*{stroke-linecap:butt;stroke-linejoin:round;}
  </style>
 </defs>
 <g id="figure_1">
  <g id="patch_1">
   <path d="
M0 72
L72 72
L72 0
L0 0
z
" style="fill:none;"/>
  </g>
  <g id="axes_1">
   <g id="PatchCollection_1">
    <defs>
     <path d="
M36 -7.5
C43.5583 -7.5 50.808 -10.5029 56.1525 -15.8475
C61.4971 -21.192 64.5 -28.4417 64.5 -36
C64.5 -43.5583 61.4971 -50.808 56.1525 -56.1525
C50.808 -61.4971 43.5583 -64.5 36 -64.5
C28.4417 -64.5 21.192 -61.4971 15.8475 -56.1525
C10.5029 -50.808 7.5 -43.5583 7.5 -36
C7.5 -28.4417 10.5029 -21.192 15.8475 -15.8475
C21.192 -10.5029 28.4417 -7.5 36 -7.5
z
" id="C0_0_a811fe30f3"/>
     <path d="
M20.0074 -12.6032
L20.2366 -12.7216
L20.4547 -12.8535
L20.6618 -12.9982
L20.8584 -13.1551
L21.0449 -13.3236
L21.2217 -13.5031
L21.3893 -13.6928
L21.5482 -13.8921
L21.6989 -14.1005
L21.842 -14.3173
L21.9778 -14.5419
L22.1071 -14.7737
L22.2301 -15.0122
L22.3475 -15.2567
L22.4596 -15.5069
L22.5669 -15.7622
L22.6697 -16.0222
L22.7686 -16.2863
L22.8637 -16.5542
L22.9556 -16.8255
L23.0444 -17.0998
L23.1304 -17.3768
L23.2141 -17.6561
L23.2954 -17.9375
L23.3748 -18.2206
L23.4524 -18.5051
L23.5284 -18.7909
L23.6029 -19.0777
L23.6762 -19.3652
L23.7483 -19.6533
L23.8194 -19.9419
L23.8897 -20.2306
L23.9591 -20.5195
L24.0279 -20.8082
L24.096 -21.0968
L24.1637 -21.3851
L24.2308 -21.6729
L24.2976 -21.9603
L24.3641 -22.247
L24.4303 -22.5331
L24.4962 -22.8184
L24.562 -23.1029
L24.6276 -23.3865
L24.6931 -23.6692
L24.7585 -23.951
L24.8238 -24.2317
L24.8891 -24.5115
L24.9544 -24.7902
L25.0197 -25.0679
L25.0851 -25.3445
L25.1505 -25.62
L25.216 -25.8945
L25.2815 -26.1678
L25.3472 -26.4401
L25.4129 -26.7114
L25.4788 -26.9815
L25.5448 -27.2506
L25.611 -27.5187
L25.6773 -27.7857
L25.7438 -28.0518
L25.8105 -28.3168
L25.8774 -28.5809
L25.9444 -28.8441
L26.0117 -29.1064
L26.0792 -29.3678
L26.1469 -29.6284
L26.2149 -29.8881
L26.2831 -30.1471
L26.3515 -30.4053
L26.4203 -30.6628
L26.4893 -30.9196
L26.5586 -31.1758
L26.6281 -31.4314
L26.698 -31.6864
L26.7682 -31.9409
L26.8388 -32.1949
L26.9096 -32.4485
L26.9808 -32.7016
L27.0524 -32.9544
L27.1243 -33.2069
L27.1967 -33.459
L27.2694 -33.7109
L27.3425 -33.9626
L27.416 -34.2142
L27.49 -34.4656
L27.6392 -34.717
L27.7145 -34.9683
L27.7903 -35.2196
L27.8666 -35.471
L27.9433 -35.7225
L28.0206 -35.9741
L28.0985 -36.2259
L28.1768 -36.4779
L28.2557 -36.7301
L28.3352 -36.9827
L28.4153 -37.2357
L28.4959 -37.489
L28.5772 -37.7427
L28.6591 -37.997
L28.7416 -38.2517
L28.8248 -38.507
L28.9086 -38.7629
L28.9931 -39.0195
L29.0783 -39.2767
L29.1642 -39.5346
L29.2508 -39.7933
L29.3381 -40.0529
L29.4262 -40.3132
L29.515 -40.5744
L29.6046 -40.8365
L29.6949 -41.0996
L29.786 -41.3636
L29.8778 -41.6287
L29.9705 -41.8948
L30.064 -42.162
L30.1582 -42.4303
L30.2532 -42.6997
L30.3491 -42.9703
L30.4457 -43.2421
L30.5431 -43.5151
L30.6414 -43.7893
L30.7404 -44.0648
L30.8402 -44.3416
L30.9407 -44.6196
L31.042 -44.899
L31.144 -45.1796
L31.2468 -45.4616
L31.3502 -45.745
L31.4542 -46.0296
L31.5589 -46.3156
L31.6641 -46.6029
L31.7699 -46.8916
L31.8761 -47.1815
L31.9828 -47.4727
L32.0898 -47.7652
L32.197 -48.0589
L32.3045 -48.3539
L32.412 -48.65
L32.5195 -48.9473
L32.6269 -49.2457
L32.7341 -49.5451
L32.8408 -49.8455
L32.947 -50.1469
L33.0525 -50.4491
L33.1571 -50.7521
L33.2605 -51.0558
L33.3627 -51.3601
L33.4633 -51.665
L33.5621 -51.9703
L33.6588 -52.2759
L33.7532 -52.5817
L33.8447 -52.8876
L33.9333 -53.1934
L34.0183 -53.4991
L34.0996 -53.8044
L34.1765 -54.1093
L34.2487 -54.4135
L34.3157 -54.7169
L34.3769 -55.0193
L34.4319 -55.3205
L34.48 -55.6204
L34.5208 -55.9188
L34.5534 -56.2153
L34.5775 -56.5099
L34.5923 -56.8023
L34.5971 -57.0922
L34.5914 -57.3795
L34.5745 -57.6638
L34.5459 -57.9449
L34.5048 -58.2226
L34.4508 -58.4966
L34.3833 -58.7666
L34.302 -59.0322
L34.2063 -59.2933
L34.0959 -59.5495
L33.9706 -59.8005
L33.8301 -60.046
L33.6744 -60.2858
L33.5034 -60.5194
L33.3172 -60.7466
L33.1159 -60.9671
L32.8998 -61.1805
L32.669 -61.3867
L32.424 -61.5853
L32.1651 -61.776
L31.8928 -61.9586
L31.6077 -62.1328
L31.3101 -62.2984
L31.0008 -62.4552
L30.6803 -62.603
L30.3493 -62.7416
L30.0082 -62.8707
L29.6578 -62.9904
L29.2986 -63.1004
L28.9313 -63.2007
L28.5565 -63.291
L28.0424 -63.3714
L27.566 -63.3665
L27.0922 -63.2235
L26.621 -63.0721
L26.1528 -62.9125
L25.6875 -62.7448
L25.2254 -62.5688
L24.7666 -62.3848
L24.3112 -62.1927
L23.8593 -61.9927
L23.4111 -61.7848
L22.9668 -61.5689
L22.5265 -61.3453
L22.0902 -61.114
L21.6582 -60.875
L21.2306 -60.6285
L20.8074 -60.3745
L20.3889 -60.113
L19.9751 -59.8442
L19.5663 -59.5681
L19.1624 -59.2848
L18.7637 -58.9945
L18.3702 -58.6971
L17.982 -58.3928
L17.5994 -58.0817
L17.2224 -57.7639
L16.8511 -57.4395
L16.4856 -57.1085
L16.126 -56.7711
L15.7726 -56.4273
L15.4253 -56.0774
L15.0842 -55.7213
L14.7495 -55.3592
L14.4213 -54.9912
L14.0997 -54.6175
L13.7847 -54.238
L13.4765 -53.853
L13.1752 -53.4626
L12.8808 -53.0669
L12.5935 -52.6659
L12.3133 -52.2599
L12.0403 -51.8489
L11.7746 -51.4331
L11.5163 -51.0126
L11.2654 -50.5875
L11.0221 -50.158
L10.7864 -49.7242
L10.5583 -49.2862
L10.338 -48.8441
L10.1256 -48.3981
L9.92098 -47.9484
L9.72434 -47.495
L9.5357 -47.0381
L9.35512 -46.5778
L9.18266 -46.1144
L9.01836 -45.6478
L8.86229 -45.1783
L8.71448 -44.706
L8.57499 -44.2311
L8.44384 -43.7536
L8.32109 -43.2738
L8.20678 -42.7918
L8.10093 -42.3077
L8.00357 -41.8217
L7.91475 -41.3339
L7.83448 -40.8444
L7.76279 -40.3536
L7.6997 -39.8613
L7.64523 -39.3679
L7.5994 -38.8735
L7.56222 -38.3782
L7.5337 -37.8822
L7.51386 -37.3856
L7.50269 -36.8886
L7.5002 -36.3913
L7.50639 -35.8939
L7.52126 -35.3965
L7.54481 -34.8993
L7.57702 -34.4025
L7.6179 -33.9061
L7.66741 -33.4104
L7.72556 -32.9154
L7.79232 -32.4214
L7.86768 -31.9285
L7.9516 -31.4369
L8.04406 -30.9466
L8.14505 -30.4578
L8.25451 -29.9708
L8.37243 -29.4856
L8.49877 -29.0023
L8.63348 -28.5212
L8.77652 -28.0424
L8.92786 -27.566
L9.08745 -27.0922
L9.25524 -26.621
L9.43117 -26.1528
L9.61519 -25.6875
L9.80725 -25.2254
L10.0073 -24.7666
L10.2152 -24.3112
L10.4311 -23.8593
L10.6547 -23.4111
L10.886 -22.9668
L11.125 -22.5265
L11.3715 -22.0902
L11.6255 -21.6582
L11.887 -21.2306
L12.1558 -20.8074
L12.4319 -20.3889
L12.7152 -19.9751
L13.0055 -19.5663
L13.3029 -19.1624
L13.6072 -18.7637
L13.9183 -18.3702
L14.2361 -17.982
L14.5605 -17.5994
L14.8915 -17.2224
L15.2289 -16.8511
L15.5727 -16.4856
L15.9226 -16.126
L16.2787 -15.7726
L16.6408 -15.4253
L17.0088 -15.0842
L17.3825 -14.7495
L17.762 -14.4213
L18.147 -14.0997
L18.5374 -13.7847
L18.9331 -13.4765
L19.3341 -13.1752
z
" id="C0_1_7bbb8677b5"/>
     <path d="
M43.8056 -8.62694
L44.097 -8.88707
L44.3877 -9.14989
L44.6771 -9.41529
L44.965 -9.68316
L45.2508 -9.95341
L45.5344 -10.2259
L45.8153 -10.5005
L46.0933 -10.7771
L46.3681 -11.0557
L46.6396 -11.3359
L46.9075 -11.6178
L47.1718 -11.9013
L47.4322 -12.1861
L47.6886 -12.4722
L47.9409 -12.7595
L48.1892 -13.0478
L48.4332 -13.337
L48.6729 -13.6272
L48.9084 -13.918
L49.1395 -14.2095
L49.3663 -14.5016
L49.5887 -14.7942
L49.8068 -15.0872
L50.0206 -15.3805
L50.2301 -15.674
L50.4353 -15.9678
L50.6363 -16.2617
L50.8331 -16.5558
L51.0257 -16.8498
L51.2142 -17.1439
L51.3986 -17.4379
L51.579 -17.7318
L51.7554 -18.0256
L51.9279 -18.3193
L52.0966 -18.6129
L52.2614 -18.9062
L52.4226 -19.1994
L52.58 -19.4924
L52.7338 -19.7852
L52.884 -20.0777
L53.0307 -20.37
L53.174 -20.6621
L53.3139 -20.954
L53.4504 -21.2457
L53.5836 -21.5372
L53.7136 -21.8285
L53.8404 -22.1196
L53.9641 -22.4106
L54.0847 -22.7014
L54.2022 -22.9921
L54.3168 -23.2827
L54.4284 -23.5733
L54.5372 -23.8638
L54.6431 -24.1542
L54.7462 -24.4447
L54.8465 -24.7351
L54.9441 -25.0257
L55.0389 -25.3163
L55.1312 -25.6071
L55.2207 -25.898
L55.3077 -26.1891
L55.3921 -26.4805
L55.474 -26.7721
L55.5534 -27.064
L55.6302 -27.3562
L55.7046 -27.6489
L55.7765 -27.942
L55.846 -28.2355
L55.9131 -28.5295
L55.9777 -28.8241
L56.04 -29.1193
L56.0999 -29.4151
L56.1574 -29.7115
L56.2126 -30.0087
L56.2654 -30.3067
L56.3158 -30.6054
L56.3639 -30.905
L56.4096 -31.2055
L56.453 -31.507
L56.494 -31.8094
L56.5326 -32.1128
L56.5688 -32.4173
L56.6027 -32.7229
L56.6342 -33.0297
L56.6632 -33.3377
L56.6899 -33.6469
L56.714 -33.9574
L56.7358 -34.2692
L56.755 -34.5824
L56.7718 -34.897
L56.786 -35.2131
L56.7976 -35.5306
L56.8067 -35.8497
L56.8132 -36.1703
L56.817 -36.4925
L56.8182 -36.8164
L56.8166 -37.1419
L56.8123 -37.4691
L56.8053 -37.798
L56.7954 -38.1287
L56.7827 -38.4611
L56.767 -38.7954
L56.7485 -39.1314
L56.727 -39.4693
L56.7025 -39.809
L56.6749 -40.1505
L56.6442 -40.4939
L56.6105 -40.8392
L56.5735 -41.1863
L56.5333 -41.5353
L56.4899 -41.8861
L56.4432 -42.2387
L56.3932 -42.5931
L56.3399 -42.9493
L56.2832 -43.3072
L56.223 -43.6668
L56.1595 -44.0281
L56.0925 -44.391
L56.0221 -44.7554
L55.9483 -45.1213
L55.871 -45.4886
L55.7903 -45.8572
L55.7062 -46.2271
L55.6187 -46.5981
L55.5279 -46.9701
L55.4338 -47.343
L55.3366 -47.7166
L55.2362 -48.0909
L55.1329 -48.4657
L55.0266 -48.8408
L54.9176 -49.2161
L54.8061 -49.5914
L54.6921 -49.9665
L54.576 -50.3411
L54.458 -50.7152
L54.3383 -51.0884
L54.2172 -51.4606
L54.0951 -51.8315
L53.9723 -52.2009
L53.8492 -52.5684
L53.7262 -52.934
L53.6038 -53.2972
L53.4825 -53.6579
L53.3628 -54.0156
L53.2453 -54.3703
L53.1305 -54.7215
L53.019 -55.0691
L52.9116 -55.4126
L52.8088 -55.7519
L52.7112 -56.0867
L52.6196 -56.4166
L52.5346 -56.7415
L52.4568 -57.061
L52.3869 -57.375
L52.3255 -57.6831
L52.2731 -57.9852
L52.2302 -58.281
L52.1972 -58.5704
L52.1747 -58.8531
L52.1629 -59.129
L52.6045 -59.3979
L53.0062 -59.1633
L53.4028 -58.87
L53.794 -58.5697
L54.1798 -58.2626
L54.5601 -57.9486
L54.9348 -57.628
L55.3036 -57.3008
L55.6666 -56.9671
L56.0236 -56.627
L56.3745 -56.2806
L56.7192 -55.9281
L57.0576 -55.5695
L57.3895 -55.2049
L57.715 -54.8345
L58.0338 -54.4583
L58.346 -54.0765
L58.6513 -53.6892
L58.9497 -53.2965
L59.2411 -52.8986
L59.5255 -52.4955
L59.8026 -52.0873
L60.0726 -51.6743
L60.3352 -51.2565
L60.5903 -50.8341
L60.838 -50.4071
L61.0782 -49.9758
L61.3107 -49.5401
L61.5354 -49.1004
L61.7524 -48.6567
L61.9616 -48.2091
L62.1628 -47.7578
L62.3561 -47.3029
L62.5414 -46.8446
L62.7185 -46.383
L62.8876 -45.9182
L63.0484 -45.4503
L63.201 -44.9797
L63.3453 -44.5062
L63.4813 -44.0302
L63.6089 -43.5517
L63.7281 -43.071
L63.8389 -42.5881
L63.9411 -42.1031
L64.0349 -41.6164
L64.1201 -41.1279
L64.1968 -40.6378
L64.2648 -40.1463
L64.3243 -39.6536
L64.3751 -39.1598
L64.4173 -38.6649
L64.4509 -38.1693
L64.4757 -37.673
L64.4919 -37.1763
L64.4994 -36.6791
L64.4983 -36.1817
L64.4884 -35.6843
L64.4699 -35.187
L64.4427 -34.69
L64.4068 -34.1933
L64.3623 -33.6972
L64.3091 -33.2018
L64.2474 -32.7072
L64.177 -32.2136
L64.098 -31.7212
L64.0105 -31.2301
L63.9144 -30.7405
L63.8099 -30.2524
L63.6968 -29.7661
L63.5754 -29.2817
L63.4455 -28.7994
L63.3073 -28.3192
L63.1607 -27.8414
L63.0059 -27.366
L62.8429 -26.8933
L62.6716 -26.4234
L62.4923 -25.9564
L62.3049 -25.4924
L62.1094 -25.0317
L61.9061 -24.5743
L61.6948 -24.1203
L61.4757 -23.67
L61.2488 -23.2235
L61.0143 -22.7808
L60.7721 -22.3422
L60.5224 -21.9077
L60.2652 -21.4775
L60.0006 -21.0517
L59.7287 -20.6305
L59.4496 -20.214
L59.1633 -19.8023
L58.87 -19.3955
L58.5697 -18.9938
L58.2626 -18.5972
L57.9486 -18.206
L57.628 -17.8202
L57.3008 -17.4399
L56.9671 -17.0652
L56.627 -16.6964
L56.2806 -16.3334
L55.9281 -15.9764
L55.5695 -15.6255
L55.2049 -15.2808
L54.8345 -14.9424
L54.4583 -14.6105
L54.0765 -14.285
L53.6892 -13.9662
L53.2965 -13.654
L52.8986 -13.3487
L52.4955 -13.0503
L52.0873 -12.7589
L51.6743 -12.4745
L51.2565 -12.1974
L50.8341 -11.9274
L50.4071 -11.6648
L49.9758 -11.4097
L49.5401 -11.162
L49.1004 -10.9218
L48.6567 -10.6893
L48.2091 -10.4646
L47.7578 -10.2476
L47.3029 -10.0384
L46.8446 -9.83716
L46.383 -9.64388
L45.9182 -9.45863
L45.4503 -9.28147
L44.9797 -9.11244
L44.5062 -8.9516
z
" id="C0_2_d1b3ba4181"/>
    </defs>
    <g clip-path="url(#p1bffca34e9)">
     <use style="fill:#ff0000;stroke:#000000;stroke-width:2.0;" x="0.0" xlink:href="#C0_0_a811fe30f3" y="72.0"/>
    </g>
    <g clip-path="url(#p1bffca34e9)">
     <use style="fill:#ffffff;stroke:#000000;stroke-width:2.0;" x="0.0" xlink:href="#C0_1_7bbb8677b5" y="72.0"/>
    </g>
    <g clip-path="url(#p1bffca34e9)">
     <use style="fill:#ffffff;stroke:#000000;stroke-width:2.0;" x="0.0" xlink:href="#C0_2_d1b3ba4181" y="72.0"/>
    </g>
   </g>
  </g>
 </g>
 <defs>
  <clipPath id="p1bffca34e9">
   <rect height="72.0" width="72.0" x="0.0" y="0.0"/>
  </clipPath>
 </defs>
</svg>
