<?xml version="1.0" encoding="utf-8" standalone="no"?>
<!DOCTYPE svg PUBLIC "-//W3C//DTD SVG 1.1//EN"
  "http://www.w3.org/Graphics/SVG/1.1/DTD/svg11.dtd">
<!-- Created with matplotlib (http://matplotlib.org/) -->
<svg height="72pt" version="1.1" viewBox="0 0 72 72" width="72pt" xmlns="http://www.w3.org/2000/svg" xmlns:xlink="http://www.w3.org/1999/xlink">
 <defs>
  <style type="text/css">
*{stroke-linecap:butt;stroke-linejoin:round;}
  </style>
 </defs>
 <g id="figure_1">
  <g id="patch_1">
   <path d="
M0 72
L72 72
L72 0
L0 0
z
" style="fill:none;"/>
  </g>
  <g id="axes_1">
   <g id="PatchCollection_1">
    <defs>
     <path d="
M36 -7.5
C43.5583 -7.5 50.808 -10.5029 56.1525 -15.8475
C61.4971 -21.192 64.5 -28.4417 64.5 -36
C64.5 -43.5583 61.4971 -50.808 56.1525 -56.1525
C50.808 -61.4971 43.5583 -64.5 36 -64.5
C28.4417 -64.5 21.192 -61.4971 15.8475 -56.1525
C10.5029 -50.808 7.5 -43.5583 7.5 -36
C7.5 -28.4417 10.5029 -21.192 15.8475 -15.8475
C21.192 -10.5029 28.4417 -7.5 36 -7.5
z
" id="C0_0_a811fe30f3"/>
     <path d="
M19.3649 -59.137
L19.3185 -58.8446
L19.2854 -58.5546
L19.265 -58.2671
L19.2567 -57.9823
L19.26 -57.7
L19.2743 -57.4204
L19.299 -57.1435
L19.3335 -56.8692
L19.3773 -56.5976
L19.4299 -56.3287
L19.4908 -56.0624
L19.5595 -55.7986
L19.6355 -55.5374
L19.7184 -55.2788
L19.8078 -55.0226
L19.9032 -54.7689
L20.0044 -54.5175
L20.1108 -54.2686
L20.2222 -54.0219
L20.3383 -53.7775
L20.4587 -53.5354
L20.5832 -53.2955
L20.7115 -53.0577
L20.8433 -52.822
L20.9783 -52.5884
L21.1165 -52.3568
L21.2575 -52.1272
L21.4011 -51.8996
L21.5472 -51.6739
L21.6956 -51.45
L21.8461 -51.228
L21.9986 -51.0078
L22.1529 -50.7894
L22.3089 -50.5727
L22.4665 -50.3576
L22.6255 -50.1443
L22.7859 -49.9325
L22.9476 -49.7224
L23.1104 -49.5138
L23.2744 -49.3067
L23.4393 -49.101
L23.6052 -48.8969
L23.7719 -48.6941
L23.9395 -48.4927
L24.1078 -48.2926
L24.2768 -48.0938
L24.4465 -47.8963
L24.6168 -47.7001
L24.7877 -47.505
L24.9592 -47.3111
L25.1312 -47.1183
L25.3037 -46.9266
L25.4767 -46.736
L25.6502 -46.5464
L25.8241 -46.3578
L25.9984 -46.1701
L26.1732 -45.9834
L26.3484 -45.7976
L26.5241 -45.6126
L26.7001 -45.4285
L26.8766 -45.2451
L27.0534 -45.0625
L27.2307 -44.8806
L27.4085 -44.6995
L27.5866 -44.519
L27.7652 -44.3391
L27.9442 -44.1598
L28.1238 -43.9811
L28.3037 -43.803
L28.4842 -43.6253
L28.6652 -43.4481
L28.8467 -43.2714
L29.0287 -43.0951
L29.2113 -42.9191
L29.3945 -42.7436
L29.5782 -42.5683
L29.7626 -42.3934
L30.1334 -42.2187
L30.3198 -42.0443
L30.5069 -41.8701
L30.6947 -41.6961
L30.8833 -41.5223
L31.0728 -41.3486
L31.263 -41.175
L31.4541 -41.0015
L31.6461 -40.828
L31.8389 -40.6547
L32.0328 -40.4813
L32.2276 -40.3079
L32.4234 -40.1345
L32.6202 -39.9611
L32.8181 -39.7876
L33.0172 -39.614
L33.2173 -39.4403
L33.4186 -39.2665
L33.6211 -39.0926
L33.8249 -38.9185
L34.0299 -38.7443
L34.2362 -38.5698
L34.4439 -38.3952
L34.6529 -38.2204
L34.8633 -38.0454
L35.0752 -37.8702
L35.2886 -37.6948
L35.5034 -37.5191
L35.7198 -37.3432
L35.9378 -37.1672
L36.1574 -36.9909
L36.3786 -36.8143
L36.6015 -36.6376
L36.8261 -36.4607
L37.0525 -36.2837
L37.2806 -36.1064
L37.5106 -35.9291
L37.7423 -35.7516
L37.976 -35.574
L38.2115 -35.3964
L38.4489 -35.2188
L38.6883 -35.0411
L38.9297 -34.8636
L39.173 -34.6862
L39.4183 -34.5089
L39.6657 -34.3319
L39.9151 -34.1553
L40.1666 -33.979
L40.4202 -33.8031
L40.6758 -33.6278
L40.9335 -33.4532
L41.1934 -33.2793
L41.4553 -33.1063
L41.7194 -32.9343
L41.9856 -32.7634
L42.2538 -32.5938
L42.5242 -32.4256
L42.7967 -32.2591
L43.0712 -32.0942
L43.3478 -31.9314
L43.6263 -31.7706
L43.9069 -31.6123
L44.1895 -31.4566
L44.474 -31.3037
L44.7604 -31.1539
L45.0487 -31.0074
L45.3388 -30.8646
L45.6306 -30.7258
L45.9241 -30.5913
L46.2192 -30.4613
L46.5159 -30.3363
L46.8141 -30.2167
L47.1136 -30.1027
L47.4145 -29.9948
L47.7166 -29.8933
L48.0198 -29.7988
L48.3239 -29.7116
L48.629 -29.632
L48.9348 -29.5607
L49.2412 -29.4979
L49.548 -29.4441
L49.8551 -29.3998
L50.1624 -29.3653
L50.4696 -29.3411
L50.7765 -29.3275
L51.083 -29.3248
L51.3889 -29.3335
L51.6938 -29.3538
L51.9977 -29.3859
L52.3002 -29.4302
L52.6011 -29.4867
L52.9002 -29.5557
L53.1971 -29.6372
L53.4917 -29.7312
L53.7836 -29.8378
L54.0725 -29.9569
L54.3583 -30.0884
L54.6406 -30.2322
L54.9191 -30.3881
L55.1936 -30.5558
L55.4639 -30.735
L55.7296 -30.9256
L55.9906 -31.1271
L56.2467 -31.3393
L56.4975 -31.5617
L56.7429 -31.7939
L56.9827 -32.0355
L57.2167 -32.2862
L57.4448 -32.5455
L57.6667 -32.813
L57.8825 -33.0882
L58.0918 -33.3708
L58.2947 -33.6603
L58.491 -33.9563
L58.6807 -34.2583
L58.8637 -34.5661
L59.0398 -34.8792
L59.2092 -35.1973
L59.3716 -35.5199
L59.5272 -35.8467
L59.6759 -36.1775
L59.8177 -36.5118
L59.9526 -36.8493
L60.0806 -37.1898
L60.2017 -37.533
L60.3159 -37.8785
L60.4234 -38.2262
L60.5241 -38.5758
L60.618 -38.927
L60.7053 -39.2796
L60.7859 -39.6335
L60.8599 -39.9884
L60.9275 -40.3442
L60.9885 -40.7006
L61.0431 -41.0575
L61.0914 -41.4148
L61.1335 -41.7722
L61.1693 -42.1298
L61.1989 -42.4872
L61.2225 -42.8445
L61.24 -43.2015
L61.2516 -43.5582
L61.2573 -43.9143
L61.2571 -44.2698
L61.2512 -44.6248
L61.2396 -44.9789
L61.2223 -45.3323
L61.1994 -45.6848
L61.1709 -46.0364
L61.137 -46.387
L61.0976 -46.7366
L61.0528 -47.0851
L61.0026 -47.4325
L60.9472 -47.7788
L60.8864 -48.1239
L60.8204 -48.4677
L60.7492 -48.8103
L60.6728 -49.1517
L60.5913 -49.4917
L60.5046 -49.8305
L60.4128 -50.1679
L60.316 -50.5039
L60.0651 -50.8386
L59.795 -51.2682
L59.5176 -51.6859
L59.2331 -52.0988
L58.9415 -52.5068
L58.6428 -52.9097
L58.3373 -53.3076
L58.025 -53.7001
L57.706 -54.0872
L57.3804 -54.4689
L57.0482 -54.8449
L56.7097 -55.2151
L56.3648 -55.5796
L56.0137 -55.938
L55.6566 -56.2904
L55.2934 -56.6366
L54.9244 -56.9765
L54.5496 -57.31
L54.1692 -57.6371
L53.7832 -57.9575
L53.3918 -58.2712
L52.9951 -58.5782
L52.5932 -58.8783
L52.1863 -59.1714
L51.7744 -59.4575
L51.3578 -59.7364
L50.9364 -60.0081
L50.5106 -60.2725
L50.0803 -60.5294
L49.6457 -60.779
L49.2069 -61.0209
L48.7641 -61.2553
L48.3175 -61.4819
L47.867 -61.7008
L47.413 -61.9118
L46.9555 -62.115
L46.4947 -62.3102
L46.0306 -62.4974
L45.5635 -62.6765
L45.0935 -62.8475
L44.6207 -63.0103
L44.1453 -63.1649
L43.6674 -63.3112
L43.1872 -63.4492
L42.7048 -63.5789
L42.2203 -63.7001
L41.734 -63.8129
L41.2459 -63.9172
L40.7562 -64.013
L40.2651 -64.1003
L39.7726 -64.1791
L39.279 -64.2492
L38.7844 -64.3107
L38.289 -64.3637
L37.7929 -64.4079
L37.2962 -64.4436
L36.7991 -64.4705
L36.3018 -64.4888
L35.8044 -64.4984
L35.307 -64.4993
L34.8099 -64.4916
L34.3131 -64.4751
L33.8168 -64.45
L33.3212 -64.4163
L32.8265 -64.3738
L32.3326 -64.3228
L31.8399 -64.2631
L31.3485 -64.1948
L30.8585 -64.1179
L30.37 -64.0324
L29.8833 -63.9384
L29.3984 -63.8359
L28.9156 -63.7249
L28.4349 -63.6055
L27.9565 -63.4776
L27.4805 -63.3414
L27.0072 -63.1968
L26.5366 -63.044
L26.0688 -62.883
L25.6041 -62.7137
L25.1426 -62.5363
L24.6844 -62.3508
L24.2296 -62.1573
L23.7784 -61.9559
L23.3309 -61.7465
L22.8873 -61.5293
L22.4477 -61.3043
L22.0122 -61.0716
L21.5809 -60.8312
L21.1541 -60.5833
L20.7318 -60.3279
L20.3141 -60.0651
L19.9012 -59.795
z
" id="C0_1_c455585ba4"/>
     <path d="
M11.9125 -20.9074
L12.1664 -20.6721
L12.4219 -20.4408
L12.6788 -20.2135
L12.9371 -19.99
L13.197 -19.7704
L13.4582 -19.5546
L13.7209 -19.3424
L13.9851 -19.1339
L14.2507 -18.929
L14.5177 -18.7276
L14.7862 -18.5297
L15.0561 -18.3352
L15.3275 -18.1441
L15.6004 -17.9564
L15.8748 -17.7719
L16.1507 -17.5907
L16.4281 -17.4126
L16.707 -17.2377
L16.9875 -17.066
L17.2696 -16.8973
L17.5533 -16.7317
L17.8386 -16.5691
L18.1256 -16.4096
L18.4142 -16.253
L18.7046 -16.0993
L18.9967 -15.9486
L19.2905 -15.8007
L19.5862 -15.6558
L19.8836 -15.5137
L20.183 -15.3745
L20.4842 -15.2382
L20.7873 -15.1046
L21.0924 -14.9739
L21.3995 -14.8461
L21.7085 -14.721
L22.0197 -14.5988
L22.3329 -14.4794
L22.6482 -14.3628
L22.9657 -14.249
L23.2854 -14.1381
L23.6073 -14.03
L23.9315 -13.9247
L24.2579 -13.8224
L24.5867 -13.7229
L24.9177 -13.6263
L25.2512 -13.5326
L25.5871 -13.4418
L25.9253 -13.354
L26.2661 -13.2692
L26.6092 -13.1874
L26.9549 -13.1086
L27.3031 -13.0328
L27.6538 -12.9601
L28.0071 -12.8906
L28.3629 -12.8241
L28.7212 -12.7608
L29.0821 -12.7007
L29.4455 -12.6439
L29.8115 -12.5902
L30.1801 -12.5399
L30.5512 -12.4928
L30.9248 -12.4491
L31.3008 -12.4087
L31.6794 -12.3717
L32.0603 -12.338
L32.4437 -12.3078
L32.8294 -12.281
L33.2174 -12.2577
L33.6076 -12.2378
L34 -12.2213
L34.3945 -12.2082
L34.7911 -12.1986
L35.1895 -12.1924
L35.5898 -12.1895
L35.9918 -12.19
L36.3954 -12.1938
L36.8005 -12.2008
L37.2069 -12.211
L37.6146 -12.2242
L38.0233 -12.2405
L38.433 -12.2597
L38.8434 -12.2816
L39.2543 -12.3062
L39.6656 -12.3333
L40.0771 -12.3627
L40.4886 -12.3942
L40.8999 -12.4277
L41.3107 -12.4629
L41.7208 -12.4995
L42.1301 -12.5374
L42.5382 -12.5763
L42.945 -12.6158
L43.3502 -12.6557
L43.7535 -12.6957
L44.1547 -12.7354
L44.5536 -12.7744
L44.9499 -12.8126
L45.3433 -12.8494
L45.7338 -12.8846
L46.121 -12.9178
L46.5047 -12.9487
L46.8846 -12.9769
L47.2607 -13.0022
L47.6328 -13.0242
L48.0005 -13.0427
L48.3639 -13.0575
L48.7227 -13.0683
L49.0768 -13.0749
L49.4261 -13.0772
L49.7705 -13.0752
L50.1099 -13.0686
L50.4442 -13.0575
L50.7734 -13.0419
L51.0974 -13.0218
L51.4162 -12.9973
L51.7299 -12.9685
L52.0382 -12.9354
L52.0499 -12.8983
L51.6364 -12.449
L51.2182 -12.1725
L50.7953 -11.9032
L50.368 -11.6413
L49.9362 -11.3868
L49.5002 -11.1398
L49.0601 -10.9003
L48.616 -10.6685
L48.1681 -10.4445
L47.7165 -10.2282
L47.2613 -10.0197
L46.8026 -9.81921
L46.3407 -9.62667
L45.8757 -9.44215
L45.4076 -9.26572
L44.9366 -9.09744
L44.463 -8.93736
L43.9867 -8.78551
L43.508 -8.64196
L43.0271 -8.50674
L42.544 -8.37989
L42.0589 -8.26146
L41.5719 -8.15148
L41.0833 -8.04998
L40.5931 -7.95699
L40.1015 -7.87255
L39.6086 -7.79667
L39.1147 -7.72938
L38.6198 -7.67071
L38.1241 -7.62067
L37.6278 -7.57927
L37.131 -7.54652
L36.6338 -7.52245
L36.1364 -7.50705
L35.639 -7.50033
L35.1417 -7.50229
L34.6447 -7.51293
L34.148 -7.53224
L33.652 -7.56023
L33.1566 -7.59689
L32.6622 -7.64219
L32.1687 -7.69613
L31.6764 -7.7587
L31.1854 -7.82986
L30.6959 -7.90961
L30.208 -7.99792
L29.7219 -8.09475
L29.2377 -8.20008
L28.7555 -8.31389
L28.2756 -8.43612
L27.798 -8.56675
L27.3229 -8.70574
L26.8504 -8.85304
L26.3807 -9.00862
L25.914 -9.17241
L25.4503 -9.34438
L24.9899 -9.52446
L24.5328 -9.71261
L24.0792 -9.90877
L23.6292 -10.1129
L23.183 -10.3249
L22.7407 -10.5447
L22.3024 -10.7722
L21.8683 -11.0075
L21.4385 -11.2504
L21.0132 -11.5008
L20.5924 -11.7586
L20.1763 -12.0239
L19.765 -12.2964
L19.3587 -12.5762
L18.9574 -12.8631
L18.5613 -13.1571
L18.1706 -13.458
L17.7853 -13.7657
L17.4055 -14.0803
L17.0314 -14.4015
L16.663 -14.7293
L16.3006 -15.0636
L15.9441 -15.4043
L15.5938 -15.7512
L15.2497 -16.1043
L14.9119 -16.4635
L14.5805 -16.8286
L14.2557 -17.1996
L13.9374 -17.5763
L13.6259 -17.9586
L13.3212 -18.3464
L13.0235 -18.7395
L12.7327 -19.1379
L12.449 -19.5415
L12.1725 -19.9501
z
" id="C0_2_b285243c7e"/>
    </defs>
    <g clip-path="url(#p1bffca34e9)">
     <use style="fill:#ffffff;stroke:#000000;stroke-width:2.0;" x="0.0" xlink:href="#C0_0_a811fe30f3" y="72.0"/>
    </g>
    <g clip-path="url(#p1bffca34e9)">
     <use style="fill:#ff0000;stroke:#000000;stroke-width:2.0;" x="0.0" xlink:href="#C0_1_c455585ba4" y="72.0"/>
    </g>
    <g clip-path="url(#p1bffca34e9)">
     <use style="fill:#ff0000;stroke:#000000;stroke-width:2.0;" x="0.0" xlink:href="#C0_2_b285243c7e" y="72.0"/>
    </g>
   </g>
  </g>
 </g>
 <defs>
  <clipPath id="p1bffca34e9">
   <rect height="72.0" width="72.0" x="0.0" y="0.0"/>
  </clipPath>
 </defs>
</svg>
