<?xml version="1.0" encoding="utf-8" standalone="no"?>
<!DOCTYPE svg PUBLIC "-//W3C//DTD SVG 1.1//EN"
  "http://www.w3.org/Graphics/SVG/1.1/DTD/svg11.dtd">
<!-- Created with matplotlib (http://matplotlib.org/) -->
<svg height="72pt" version="1.1" viewBox="0 0 72 72" width="72pt" xmlns="http://www.w3.org/2000/svg" xmlns:xlink="http://www.w3.org/1999/xlink">
 <defs>
  <style type="text/css">
*{stroke-linecap:butt;stroke-linejoin:round;}
  </style>
 </defs>
 <g id="figure_1">
  <g id="patch_1">
   <path d="
M0 72
L72 72
L72 0
L0 0
z
" style="fill:none;"/>
  </g>
  <g id="axes_1">
   <g id="PatchCollection_1">
    <defs>
     <path d="
M36 -7.5
C43.5583 -7.5 50.808 -10.5029 56.1525 -15.8475
C61.4971 -21.192 64.5 -28.4417 64.5 -36
C64.5 -43.5583 61.4971 -50.808 56.1525 -56.1525
C50.808 -61.4971 43.5583 -64.5 36 -64.5
C28.4417 -64.5 21.192 -61.4971 15.8475 -56.1525
C10.5029 -50.808 7.5 -43.5583 7.5 -36
C7.5 -28.4417 10.5029 -21.192 15.8475 -15.8475
C21.192 -10.5029 28.4417 -7.5 36 -7.5
z
" id="C0_0_a811fe30f3"/>
     <path d="
M48.1165 -10.2044
L48.4487 -10.5259
L48.7676 -10.8551
L49.0735 -11.1909
L49.3664 -11.5325
L49.6467 -11.8792
L49.9146 -12.2303
L50.1703 -12.585
L50.4142 -12.9427
L50.6464 -13.303
L50.8674 -13.6651
L51.0774 -14.0288
L51.2768 -14.3934
L51.4658 -14.7587
L51.6448 -15.1241
L51.8141 -15.4895
L51.9741 -15.8545
L52.125 -16.2187
L52.2671 -16.582
L52.4007 -16.9442
L52.5262 -17.3049
L52.6439 -17.6641
L52.7539 -18.0216
L52.8566 -18.3771
L52.9522 -18.7307
L53.0411 -19.0822
L53.1234 -19.4314
L53.1994 -19.7784
L53.2693 -20.123
L53.3334 -20.4652
L53.3918 -20.805
L53.4448 -21.1422
L53.4926 -21.4769
L53.5353 -21.809
L53.5732 -22.1386
L53.6064 -22.4656
L53.6351 -22.7901
L53.6594 -23.112
L53.6795 -23.4314
L53.6956 -23.7483
L53.7078 -24.0626
L53.7162 -24.3745
L53.7209 -24.684
L53.7221 -24.9911
L53.7199 -25.2958
L53.7144 -25.5981
L53.7057 -25.8982
L53.6939 -26.1961
L53.679 -26.4917
L53.6612 -26.7853
L53.6406 -27.0767
L53.6172 -27.3661
L53.5911 -27.6535
L53.5624 -27.939
L53.5311 -28.2226
L53.4973 -28.5043
L53.4611 -28.7843
L53.4224 -29.0626
L53.3814 -29.3393
L53.3381 -29.6143
L53.2925 -29.8878
L53.2447 -30.1598
L53.1947 -30.4303
L53.1426 -30.6995
L53.0883 -30.9674
L53.0318 -31.234
L52.9733 -31.4994
L52.9127 -31.7637
L52.8501 -32.0268
L52.7854 -32.289
L52.7187 -32.5501
L52.65 -32.8103
L52.5793 -33.0697
L52.5065 -33.3282
L52.4317 -33.5859
L52.3549 -33.843
L52.1953 -34.0993
L52.1124 -34.3551
L52.0275 -34.6103
L51.9405 -34.865
L51.8515 -35.1192
L51.7604 -35.3731
L51.6671 -35.6265
L51.5718 -35.8797
L51.4742 -36.1326
L51.3745 -36.3853
L51.2726 -36.6378
L51.1684 -36.8901
L51.062 -37.1424
L50.9533 -37.3947
L50.8422 -37.6469
L50.7287 -37.8992
L50.6129 -38.1516
L50.4945 -38.4041
L50.3737 -38.6568
L50.2502 -38.9096
L50.1242 -39.1627
L49.9955 -39.4161
L49.8641 -39.6697
L49.73 -39.9237
L49.593 -40.178
L49.4531 -40.4328
L49.3103 -40.6879
L49.1645 -40.9434
L49.0156 -41.1994
L48.8636 -41.4559
L48.7083 -41.7128
L48.5498 -41.9703
L48.3879 -42.2282
L48.2225 -42.4867
L48.0537 -42.7457
L47.8813 -43.0052
L47.7052 -43.2651
L47.5253 -43.5256
L47.3416 -43.7866
L47.154 -44.048
L46.9624 -44.3099
L46.7668 -44.5722
L46.5669 -44.8348
L46.3628 -45.0978
L46.1543 -45.3611
L45.9414 -45.6246
L45.7239 -45.8883
L45.5019 -46.152
L45.2751 -46.4158
L45.0436 -46.6795
L44.8072 -46.943
L44.5658 -47.2062
L44.3194 -47.469
L44.0679 -47.7313
L43.8113 -47.9929
L43.5494 -48.2536
L43.2822 -48.5133
L43.0097 -48.7718
L42.7317 -49.0289
L42.4484 -49.2843
L42.1595 -49.5378
L41.8651 -49.7892
L41.5652 -50.0382
L41.2598 -50.2844
L40.9489 -50.5276
L40.6324 -50.7673
L40.3106 -51.0033
L39.9833 -51.235
L39.6507 -51.4621
L39.3129 -51.6842
L38.9699 -51.9006
L38.622 -52.1109
L38.2693 -52.3144
L37.9119 -52.5106
L37.5501 -52.6989
L37.1842 -52.8785
L36.8144 -53.0486
L36.441 -53.2086
L36.0645 -53.3575
L35.6851 -53.4946
L35.3034 -53.6189
L34.9197 -53.7294
L34.5347 -53.8254
L34.1488 -53.9058
L33.7627 -53.9697
L33.377 -54.0162
L32.9923 -54.0445
L32.6092 -54.0538
L32.2285 -54.0435
L31.8507 -54.0131
L31.4766 -53.9621
L31.1066 -53.8906
L30.7415 -53.7984
L30.3817 -53.6858
L30.0277 -53.5532
L29.6799 -53.4012
L29.3387 -53.2304
L29.0044 -53.0418
L28.6773 -52.8362
L28.3575 -52.6148
L28.0453 -52.3785
L27.7408 -52.1284
L27.4441 -51.8657
L27.1551 -51.5912
L26.874 -51.3062
L26.6008 -51.0115
L26.3354 -50.7081
L26.0777 -50.397
L25.8279 -50.0788
L25.5857 -49.7545
L25.3511 -49.4247
L25.124 -49.0902
L24.9044 -48.7515
L24.692 -48.4093
L24.4869 -48.0641
L24.2888 -47.7164
L24.0977 -47.3667
L23.9134 -47.0153
L23.7358 -46.6628
L23.5647 -46.3094
L23.4 -45.9556
L23.2417 -45.6015
L23.0895 -45.2475
L22.9432 -44.8938
L22.8028 -44.5406
L22.6682 -44.1883
L22.5391 -43.8368
L22.4155 -43.4865
L22.2971 -43.1375
L22.1839 -42.7898
L22.0758 -42.4437
L21.9725 -42.0992
L21.8741 -41.7564
L21.7802 -41.4154
L21.6909 -41.0763
L21.606 -40.7391
L21.5254 -40.4039
L21.4489 -40.0707
L21.3766 -39.7395
L21.3081 -39.4104
L21.2436 -39.0834
L21.1827 -38.7585
L21.1256 -38.4357
L21.0719 -38.115
L21.0218 -37.7963
L20.975 -37.4797
L20.9316 -37.1652
L20.8913 -36.8527
L20.8542 -36.5423
L20.8202 -36.2338
L20.7891 -35.9273
L20.761 -35.6226
L20.7358 -35.3199
L20.7134 -35.019
L20.6937 -34.7199
L20.6767 -34.4226
L20.6624 -34.127
L20.6506 -33.8331
L20.6415 -33.5408
L20.6348 -33.2501
L20.6306 -32.9609
L20.6288 -32.6732
L20.6295 -32.3869
L20.6325 -32.1021
L20.6378 -31.8185
L20.6455 -31.5363
L20.6554 -31.2552
L20.6677 -30.9754
L20.6821 -30.6966
L20.6989 -30.419
L20.7178 -30.1424
L20.739 -29.8667
L20.7623 -29.592
L20.7879 -29.3181
L20.8157 -29.045
L20.8456 -28.7727
L20.8778 -28.5011
L20.9121 -28.2302
L20.9487 -27.9598
L20.9875 -27.69
L21.0285 -27.4208
L21.0718 -27.1519
L21.1173 -26.8835
L21.1651 -26.6155
L21.2152 -26.3477
L21.2676 -26.0802
L21.3224 -25.8129
L21.3796 -25.5458
L21.4391 -25.2788
L21.5011 -25.0119
L21.5656 -24.745
L21.6326 -24.4781
L21.7022 -24.2111
L21.7743 -23.9441
L21.8492 -23.6769
L21.9267 -23.4095
L22.007 -23.1419
L22.0901 -22.8741
L22.176 -22.6059
L22.2649 -22.3375
L22.3568 -22.0687
L22.4518 -21.7995
L22.5499 -21.5298
L22.6513 -21.2598
L22.7559 -20.9893
L22.864 -20.7182
L22.9755 -20.4467
L23.0905 -20.1747
L23.2092 -19.9021
L23.3317 -19.6289
L23.458 -19.3552
L23.5883 -19.0809
L23.7226 -18.8061
L23.8611 -18.5307
L24.0039 -18.2547
L24.1512 -17.9782
L24.3029 -17.7011
L24.4594 -17.4236
L24.6207 -17.1456
L24.7869 -16.8671
L24.9582 -16.5882
L25.1348 -16.309
L25.3167 -16.0294
L25.5042 -15.7497
L25.6974 -15.4697
L25.8964 -15.1897
L26.1015 -14.9097
L26.3128 -14.6298
L26.5304 -14.3501
L26.7546 -14.0708
L26.9855 -13.7919
L27.2233 -13.5137
L27.4682 -13.2362
L27.7203 -12.9597
L27.9799 -12.6845
L28.247 -12.4105
L28.522 -12.1382
L28.8049 -11.8678
L29.096 -11.5994
L29.3954 -11.3335
L29.7033 -11.0703
L30.0197 -10.8101
L30.345 -10.5534
L30.6791 -10.3004
L31.0222 -10.0517
L31.3745 -9.80753
L31.736 -9.56849
L32.1067 -9.33505
L32.4867 -9.10771
L32.8761 -8.88705
L33.2747 -8.67364
L33.6826 -8.46811
L34.0996 -8.27111
L34.5256 -8.08334
L34.9605 -7.90551
L35.4038 -7.73838
L35.8996 -7.58274
L36.397 -7.50018
L36.8943 -7.50276
L37.3913 -7.51403
L37.8879 -7.53398
L38.3839 -7.5626
L38.8792 -7.59987
L39.3736 -7.6458
L39.867 -7.70037
L40.3592 -7.76356
L40.85 -7.83535
L41.3394 -7.91571
L41.8272 -8.00464
L42.3132 -8.10209
L42.7973 -8.20803
L43.2793 -8.32245
L43.7591 -8.44529
L44.2365 -8.57653
L44.7114 -8.71612
L45.1837 -8.86402
L45.6531 -9.02019
L46.1197 -9.18458
L46.5831 -9.35713
L47.0433 -9.5378
L47.5002 -9.72654
z
" id="C0_1_209e0b872b"/>
     <path d="
M36.144 -64.4385
L35.6895 -64.3045
L35.2358 -64.1685
L34.7829 -64.0313
L34.3309 -63.8938
L33.8797 -63.7566
L33.4291 -63.6208
L32.9791 -63.487
L32.5295 -63.3563
L32.0801 -63.2292
L31.6308 -63.1067
L31.1814 -62.9892
L30.7316 -62.8775
L30.2813 -62.7718
L29.8303 -62.6723
L29.3785 -62.5793
L28.9256 -62.4925
L28.4717 -62.4117
L28.0167 -62.3365
L27.5605 -62.2663
L27.1033 -62.2004
L26.645 -62.1382
L26.1859 -62.0789
L25.726 -62.0216
L25.2656 -61.9654
L24.8048 -61.9097
L24.7415 -61.8536
L25.2001 -62.182
L25.6621 -62.3745
L26.1272 -62.5589
L26.5953 -62.7353
L27.0662 -62.9035
L27.5399 -63.0636
L28.0162 -63.2154
L28.4949 -63.3589
L28.9758 -63.4941
L29.459 -63.6208
L29.9441 -63.7392
L30.431 -63.8492
L30.9197 -63.9506
L31.4099 -64.0435
L31.9015 -64.1279
L32.3943 -64.2038
L32.8883 -64.271
L33.3832 -64.3296
L33.8789 -64.3796
L34.3752 -64.421
L34.872 -64.4536
L35.3692 -64.4777
z
" id="C0_2_77b58a242f"/>
    </defs>
    <g clip-path="url(#p1bffca34e9)">
     <use style="fill:#ff0000;stroke:#000000;stroke-width:2.0;" x="0.0" xlink:href="#C0_0_a811fe30f3" y="72.0"/>
    </g>
    <g clip-path="url(#p1bffca34e9)">
     <use style="fill:#ffffff;stroke:#000000;stroke-width:2.0;" x="0.0" xlink:href="#C0_1_209e0b872b" y="72.0"/>
    </g>
    <g clip-path="url(#p1bffca34e9)">
     <use style="fill:#ffffff;stroke:#000000;stroke-width:2.0;" x="0.0" xlink:href="#C0_2_77b58a242f" y="72.0"/>
    </g>
   </g>
  </g>
 </g>
 <defs>
  <clipPath id="p1bffca34e9">
   <rect height="72.0" width="72.0" x="0.0" y="0.0"/>
  </clipPath>
 </defs>
</svg>
