<?xml version="1.0" encoding="utf-8" standalone="no"?>
<!DOCTYPE svg PUBLIC "-//W3C//DTD SVG 1.1//EN"
  "http://www.w3.org/Graphics/SVG/1.1/DTD/svg11.dtd">
<!-- Created with matplotlib (http://matplotlib.org/) -->
<svg height="72pt" version="1.1" viewBox="0 0 72 72" width="72pt" xmlns="http://www.w3.org/2000/svg" xmlns:xlink="http://www.w3.org/1999/xlink">
 <defs>
  <style type="text/css">
*{stroke-linecap:butt;stroke-linejoin:round;}
  </style>
 </defs>
 <g id="figure_1">
  <g id="patch_1">
   <path d="
M0 72
L72 72
L72 0
L0 0
z
" style="fill:none;"/>
  </g>
  <g id="axes_1">
   <g id="PatchCollection_1">
    <defs>
     <path d="
M36 -7.5
C43.5583 -7.5 50.808 -10.5029 56.1525 -15.8475
C61.4971 -21.192 64.5 -28.4417 64.5 -36
C64.5 -43.5583 61.4971 -50.808 56.1525 -56.1525
C50.808 -61.4971 43.5583 -64.5 36 -64.5
C28.4417 -64.5 21.192 -61.4971 15.8475 -56.1525
C10.5029 -50.808 7.5 -43.5583 7.5 -36
C7.5 -28.4417 10.5029 -21.192 15.8475 -15.8475
C21.192 -10.5029 28.4417 -7.5 36 -7.5
z
" id="C0_0_a811fe30f3"/>
     <path d="
M41.6584 -63.626
L41.8086 -63.2705
L41.9519 -62.9137
L42.0885 -62.5558
L42.2186 -62.1971
L42.3425 -61.8381
L42.4605 -61.4789
L42.5726 -61.1199
L42.6792 -60.7612
L42.7804 -60.4032
L42.8764 -60.0461
L42.9675 -59.69
L43.0537 -59.3352
L43.1353 -58.9817
L43.2125 -58.6299
L43.2854 -58.2798
L43.3542 -57.9316
L43.419 -57.5854
L43.48 -57.2412
L43.5374 -56.8993
L43.5913 -56.5596
L43.6418 -56.2222
L43.6891 -55.8873
L43.7333 -55.5548
L43.7746 -55.2248
L43.8129 -54.8974
L43.8486 -54.5725
L43.8816 -54.2502
L43.9121 -53.9305
L43.9402 -53.6133
L43.9659 -53.2987
L43.9894 -52.9867
L44.0108 -52.6773
L44.0302 -52.3704
L44.0475 -52.066
L44.063 -51.764
L44.0766 -51.4645
L44.0885 -51.1675
L44.0987 -50.8727
L44.1073 -50.5804
L44.1143 -50.2902
L44.1198 -50.0023
L44.1238 -49.7166
L44.1265 -49.433
L44.1277 -49.1515
L44.1277 -48.872
L44.1264 -48.5945
L44.1239 -48.3188
L44.1202 -48.045
L44.1153 -47.773
L44.1093 -47.5027
L44.1022 -47.234
L44.0941 -46.9669
L44.0849 -46.7014
L44.0747 -46.4373
L44.0635 -46.1747
L44.0514 -45.9133
L44.0383 -45.6533
L44.0243 -45.3944
L44.0094 -45.1367
L43.9936 -44.8801
L43.977 -44.6245
L43.9594 -44.3698
L43.941 -44.116
L43.9218 -43.8631
L43.9017 -43.6109
L43.8808 -43.3594
L43.8591 -43.1085
L43.8366 -42.8581
L43.8133 -42.6083
L43.7891 -42.3589
L43.7642 -42.1099
L43.7384 -41.8611
L43.7119 -41.6126
L43.6845 -41.3643
L43.6563 -41.1161
L43.5975 -40.8679
L43.5668 -40.6197
L43.5353 -40.3714
L43.503 -40.1229
L43.4698 -39.8742
L43.4358 -39.6253
L43.4009 -39.3759
L43.3651 -39.1262
L43.3284 -38.876
L43.2908 -38.6252
L43.2523 -38.3738
L43.2128 -38.1217
L43.1724 -37.8689
L43.131 -37.6152
L43.0886 -37.3607
L43.0451 -37.1052
L43.0007 -36.8487
L42.9551 -36.5911
L42.9085 -36.3324
L42.8607 -36.0724
L42.8118 -35.8111
L42.7618 -35.5485
L42.7105 -35.2844
L42.658 -35.0188
L42.6043 -34.7516
L42.5492 -34.4829
L42.4928 -34.2124
L42.4351 -33.9401
L42.3759 -33.666
L42.3153 -33.3899
L42.2532 -33.1119
L42.1896 -32.8318
L42.1244 -32.5496
L42.0576 -32.2652
L41.9892 -31.9786
L41.919 -31.6896
L41.847 -31.3982
L41.7733 -31.1045
L41.6976 -30.8081
L41.6201 -30.5093
L41.5405 -30.2078
L41.459 -29.9036
L41.3753 -29.5967
L41.2894 -29.287
L41.2014 -28.9744
L41.111 -28.659
L41.0183 -28.3407
L40.9232 -28.0194
L40.8256 -27.6951
L40.7254 -27.3678
L40.6226 -27.0374
L40.5171 -26.704
L40.4088 -26.3675
L40.2977 -26.028
L40.1836 -25.6854
L40.0666 -25.3397
L39.9464 -24.991
L39.8231 -24.6393
L39.6966 -24.2846
L39.5668 -23.927
L39.4336 -23.5665
L39.297 -23.2032
L39.1568 -22.8373
L39.0131 -22.4687
L38.8657 -22.0976
L38.7145 -21.7242
L38.5596 -21.3485
L38.4009 -20.9707
L38.2382 -20.591
L38.0716 -20.2095
L37.901 -19.8266
L37.7264 -19.4423
L37.5476 -19.0569
L37.3647 -18.6707
L37.1776 -18.2839
L36.9864 -17.8968
L36.7908 -17.5098
L36.591 -17.1232
L36.3869 -16.7373
L36.1784 -16.3526
L35.9655 -15.9694
L35.748 -15.5882
L35.5259 -15.2097
L35.2988 -14.8345
L35.0664 -14.4634
L34.8279 -14.0975
L34.5819 -13.7387
L34.3256 -13.3898
L34.0525 -13.0562
L33.7477 -12.7495
L33.3826 -12.4964
L32.9383 -12.3486
L32.4393 -12.3448
L31.9169 -12.4503
L31.3875 -12.6152
L30.858 -12.8133
L30.3319 -13.0331
L29.8111 -13.2692
L29.2968 -13.5187
L28.7898 -13.7799
L28.2907 -14.0514
L27.8 -14.3323
L27.318 -14.6219
L26.8452 -14.9194
L26.3816 -15.2244
L25.9277 -15.5361
L25.4834 -15.8541
L25.0491 -16.1779
L24.6246 -16.5068
L24.2102 -16.8406
L23.8059 -17.1787
L23.4117 -17.5206
L23.0275 -17.8661
L22.6534 -18.2146
L22.2892 -18.5657
L21.935 -18.9192
L21.5906 -19.2745
L21.2559 -19.6316
L20.9308 -19.9899
L20.6151 -20.3492
L20.3088 -20.7092
L20.0116 -21.0698
L19.7235 -21.4305
L19.4442 -21.7912
L19.1736 -22.1517
L18.9115 -22.5119
L18.6577 -22.8714
L18.412 -23.2302
L18.1742 -23.5881
L17.9443 -23.9449
L17.7219 -24.3006
L17.5069 -24.6551
L17.2991 -25.0082
L17.0984 -25.3599
L16.9045 -25.71
L16.7172 -26.0586
L16.5365 -26.4056
L16.3621 -26.7509
L16.1939 -27.0945
L16.0317 -27.4363
L15.8753 -27.7765
L15.7246 -28.1148
L15.5794 -28.4514
L15.4397 -28.7862
L15.3051 -29.1193
L15.1757 -29.4506
L15.0513 -29.7801
L14.9318 -30.108
L14.8169 -30.4341
L14.7067 -30.7586
L14.601 -31.0815
L14.4996 -31.4027
L14.4026 -31.7224
L14.3097 -32.0405
L14.221 -32.3572
L14.1362 -32.6725
L14.0554 -32.9863
L13.9783 -33.2988
L13.9051 -33.61
L13.8355 -33.92
L13.7695 -34.2288
L13.707 -34.5365
L13.6481 -34.8431
L13.5925 -35.1486
L13.5404 -35.4532
L13.4915 -35.7569
L13.4459 -36.0598
L13.4036 -36.3618
L13.3644 -36.6632
L13.3284 -36.9638
L13.2956 -37.2639
L13.2658 -37.5635
L13.2391 -37.8625
L13.2155 -38.1612
L13.1948 -38.4595
L13.1773 -38.7575
L13.1627 -39.0552
L13.1511 -39.3529
L13.1425 -39.6504
L13.137 -39.9479
L13.1344 -40.2454
L13.1349 -40.543
L13.1383 -40.8408
L13.1448 -41.1388
L13.1544 -41.4371
L13.1671 -41.7357
L13.1829 -42.0348
L13.2018 -42.3343
L13.2238 -42.6344
L13.2491 -42.9351
L13.2777 -43.2365
L13.3095 -43.5386
L13.3447 -43.8415
L13.3833 -44.1452
L13.4253 -44.4499
L13.4709 -44.7556
L13.52 -45.0624
L13.5729 -45.3702
L13.6294 -45.6792
L13.6898 -45.9895
L13.7541 -46.301
L13.8224 -46.6139
L13.8948 -46.9282
L13.9715 -47.2439
L14.0524 -47.5611
L14.1377 -47.88
L14.2277 -48.2004
L14.3223 -48.5225
L14.4217 -48.8462
L14.526 -49.1718
L14.6355 -49.4991
L14.7502 -49.8283
L14.8703 -50.1593
L14.996 -50.4922
L15.1275 -50.827
L15.2649 -51.1637
L15.4085 -51.5024
L15.5584 -51.8431
L15.7148 -52.1857
L15.8779 -52.5303
L16.0481 -52.8769
L16.2255 -53.2254
L16.4103 -53.5758
L16.6028 -53.9281
L16.8032 -54.2823
L17.0118 -54.6382
L17.229 -54.9959
L17.4549 -55.3552
L17.6898 -55.7161
L17.9341 -56.0785
L18.188 -56.4422
L18.4519 -56.8071
L18.726 -57.173
L19.0107 -57.5399
L19.3063 -57.9074
L19.613 -58.2754
L19.9314 -58.6437
L20.2616 -59.012
L20.6039 -59.38
L20.9588 -59.7475
L21.3411 -60.114
L21.7698 -60.4411
L22.203 -60.6932
L22.6403 -60.9378
L23.0817 -61.1748
L23.527 -61.4041
L23.9761 -61.6257
L24.4289 -61.8394
L24.8853 -62.0454
L25.345 -62.2433
L25.8079 -62.4333
L26.274 -62.6152
L26.743 -62.7891
L27.2148 -62.9547
L27.6893 -63.1122
L28.1664 -63.2614
L28.6458 -63.4023
L29.1275 -63.5348
L29.6112 -63.659
L30.0969 -63.7747
L30.5844 -63.882
L31.0736 -63.9807
L31.5642 -64.071
L32.0563 -64.1527
L32.5495 -64.2258
L33.0437 -64.2903
L33.5389 -64.3463
L34.0348 -64.3935
L34.5313 -64.4322
L35.0283 -64.4621
L35.5255 -64.4834
L36.0229 -64.496
L36.5203 -64.5
L37.0175 -64.4953
L37.5144 -64.4818
L38.0109 -64.4597
L38.5068 -64.429
L39.0018 -64.3895
L39.496 -64.3415
L39.9891 -64.2848
L40.481 -64.2194
L40.9715 -64.1455
z
" id="C0_1_fcf47f1ecf"/>
     <path d="
M50.632 -11.5898
L50.1316 -11.4369
L49.6241 -11.2927
L49.1097 -11.1576
L48.5885 -11.0318
L48.0607 -10.9156
L47.5265 -10.8093
L46.9862 -10.7133
L46.44 -10.6277
L45.8882 -10.5528
L45.3311 -10.4889
L44.769 -10.4363
L44.2023 -10.3952
L43.6313 -10.3657
L43.0566 -10.348
L42.4784 -10.3424
L41.8974 -10.349
L41.3139 -10.3677
L40.7285 -10.3988
L40.1419 -10.4421
L39.5544 -10.4976
L38.967 -10.5651
L38.3801 -10.6443
L37.7948 -10.7347
L37.212 -10.8354
L36.6331 -10.945
L36.0601 -11.0608
L35.4965 -11.1776
L34.9494 -11.2841
L34.4343 -11.3536
L33.9806 -11.3345
L33.6076 -11.1883
L33.2915 -10.9494
L33.0016 -10.668
L32.7222 -10.3701
L32.4467 -10.0672
L32.1724 -9.76449
L31.8978 -9.46473
L31.6222 -9.16952
L31.3453 -8.87988
L31.0668 -8.59649
L30.7867 -8.31987
L30.991 -8.05038
L31.4814 -7.94364
L31.9732 -7.86049
L32.4662 -7.78592
L32.9603 -7.71994
L33.4553 -7.66257
L33.9511 -7.61383
L34.4475 -7.57375
L34.9444 -7.54232
L35.4416 -7.51956
L35.939 -7.50547
L36.4364 -7.50007
L36.9337 -7.50334
L37.4306 -7.5153
L37.9272 -7.53593
L38.4232 -7.56523
L38.9184 -7.6032
L39.4127 -7.64981
L39.906 -7.70506
L40.3981 -7.76893
L40.8889 -7.8414
L41.3782 -7.92245
L41.8658 -8.01205
L42.3516 -8.11017
L42.8356 -8.21679
L43.3174 -8.33187
L43.797 -8.45539
L44.2742 -8.58729
L44.7489 -8.72754
L45.221 -8.8761
L45.6902 -9.03292
L46.1565 -9.19795
L46.6197 -9.37115
L47.0796 -9.55246
L47.5362 -9.74183
L47.9893 -9.9392
L48.4387 -10.1445
L48.8843 -10.3577
L49.326 -10.5787
L49.7637 -10.8074
L50.1971 -11.0438
z
" id="C0_2_7a522139cf"/>
    </defs>
    <g clip-path="url(#p1bffca34e9)">
     <use style="fill:#ffffff;stroke:#000000;stroke-width:2.0;" x="0.0" xlink:href="#C0_0_a811fe30f3" y="72.0"/>
    </g>
    <g clip-path="url(#p1bffca34e9)">
     <use style="fill:#ff0000;stroke:#000000;stroke-width:2.0;" x="0.0" xlink:href="#C0_1_fcf47f1ecf" y="72.0"/>
    </g>
    <g clip-path="url(#p1bffca34e9)">
     <use style="fill:#ff0000;stroke:#000000;stroke-width:2.0;" x="0.0" xlink:href="#C0_2_7a522139cf" y="72.0"/>
    </g>
   </g>
  </g>
 </g>
 <defs>
  <clipPath id="p1bffca34e9">
   <rect height="72.0" width="72.0" x="0.0" y="0.0"/>
  </clipPath>
 </defs>
</svg>
