<?xml version="1.0" encoding="utf-8" standalone="no"?>
<!DOCTYPE svg PUBLIC "-//W3C//DTD SVG 1.1//EN"
  "http://www.w3.org/Graphics/SVG/1.1/DTD/svg11.dtd">
<!-- Created with matplotlib (http://matplotlib.org/) -->
<svg height="72pt" version="1.1" viewBox="0 0 72 72" width="72pt" xmlns="http://www.w3.org/2000/svg" xmlns:xlink="http://www.w3.org/1999/xlink">
 <defs>
  <style type="text/css">
*{stroke-linecap:butt;stroke-linejoin:round;}
  </style>
 </defs>
 <g id="figure_1">
  <g id="patch_1">
   <path d="
M0 72
L72 72
L72 0
L0 0
z
" style="fill:none;"/>
  </g>
  <g id="axes_1">
   <g id="PatchCollection_1">
    <defs>
     <path d="
M36 -7.5
C43.5583 -7.5 50.808 -10.5029 56.1525 -15.8475
C61.4971 -21.192 64.5 -28.4417 64.5 -36
C64.5 -43.5583 61.4971 -50.808 56.1525 -56.1525
C50.808 -61.4971 43.5583 -64.5 36 -64.5
C28.4417 -64.5 21.192 -61.4971 15.8475 -56.1525
C10.5029 -50.808 7.5 -43.5583 7.5 -36
C7.5 -28.4417 10.5029 -21.192 15.8475 -15.8475
C21.192 -10.5029 28.4417 -7.5 36 -7.5
z
" id="C0_0_a811fe30f3"/>
     <path d="
M17.8575 -57.7709
L18.2756 -57.8095
L18.6921 -57.8419
L19.1064 -57.868
L19.5184 -57.8878
L19.9275 -57.9015
L20.3336 -57.909
L20.7364 -57.9106
L21.1356 -57.9063
L21.5311 -57.8964
L21.9228 -57.881
L22.3105 -57.8603
L22.6941 -57.8345
L23.0736 -57.8037
L23.4488 -57.7682
L23.8197 -57.7281
L24.1863 -57.6836
L24.5486 -57.635
L24.9065 -57.5823
L25.2602 -57.5258
L25.6095 -57.4657
L25.9545 -57.402
L26.2953 -57.335
L26.6318 -57.2648
L26.9642 -57.1915
L27.2925 -57.1153
L27.6168 -57.0364
L27.937 -56.9547
L28.2533 -56.8705
L28.5658 -56.7839
L28.8744 -56.695
L29.1794 -56.6038
L29.4807 -56.5105
L29.7784 -56.4151
L30.0727 -56.3177
L30.3635 -56.2185
L30.6511 -56.1174
L30.9354 -56.0146
L31.2165 -55.9101
L31.4946 -55.804
L31.7696 -55.6962
L32.0418 -55.5869
L32.3111 -55.4762
L32.5777 -55.3639
L32.8416 -55.2503
L33.1029 -55.1353
L33.3616 -55.0189
L33.618 -54.9012
L33.872 -54.7821
L34.1237 -54.6618
L34.3732 -54.5402
L34.6206 -54.4173
L34.8659 -54.2932
L35.1092 -54.1678
L35.3507 -54.0412
L35.5902 -53.9133
L35.828 -53.7842
L36.0641 -53.6539
L36.2986 -53.5223
L36.5315 -53.3894
L36.7629 -53.2553
L36.9928 -53.1199
L37.2214 -52.9833
L37.4486 -52.8453
L37.6746 -52.706
L37.8995 -52.5653
L38.1231 -52.4233
L38.3457 -52.2799
L38.5673 -52.1351
L39.0077 -51.9889
L39.2265 -51.8412
L39.4446 -51.692
L39.6619 -51.5412
L39.8785 -51.3889
L40.0945 -51.235
L40.3099 -51.0795
L40.5247 -50.9223
L40.7391 -50.7634
L40.953 -50.6028
L41.1665 -50.4403
L41.3796 -50.276
L41.5924 -50.1098
L41.805 -49.9416
L42.0173 -49.7715
L42.2294 -49.5993
L42.4413 -49.425
L42.6532 -49.2486
L42.865 -49.07
L43.0767 -48.8891
L43.2884 -48.7058
L43.5002 -48.5202
L43.712 -48.3321
L43.9239 -48.1414
L44.1359 -47.9482
L44.3481 -47.7523
L44.5604 -47.5537
L44.773 -47.3523
L44.9857 -47.148
L45.1987 -46.9408
L45.4119 -46.7305
L45.6254 -46.5171
L45.8392 -46.3005
L46.0533 -46.0806
L46.2677 -45.8574
L46.4824 -45.6308
L46.6974 -45.4006
L46.9127 -45.1669
L47.1283 -44.9294
L47.3442 -44.6882
L47.5604 -44.4431
L47.7769 -44.194
L47.9936 -43.941
L48.2106 -43.6838
L48.4277 -43.4224
L48.6451 -43.1568
L48.8625 -42.8868
L49.0801 -42.6123
L49.2977 -42.3333
L49.5153 -42.0498
L49.7329 -41.7616
L49.9503 -41.4687
L50.1675 -41.171
L50.3845 -40.8685
L50.6011 -40.5611
L50.8173 -40.2488
L51.033 -39.9316
L51.2481 -39.6095
L51.4624 -39.2824
L51.6759 -38.9503
L51.8885 -38.6134
L52.1001 -38.2716
L52.3105 -37.9249
L52.5196 -37.5736
L52.7274 -37.2176
L52.9336 -36.8571
L53.1383 -36.4924
L53.3412 -36.1235
L53.5423 -35.7507
L53.7415 -35.3743
L53.9387 -34.9947
L54.134 -34.6122
L54.3272 -34.2272
L54.5184 -33.8404
L54.7077 -33.4524
L54.8951 -33.0638
L55.0809 -32.6755
L55.2654 -32.2886
L55.4488 -31.9041
L55.6317 -31.5234
L55.8148 -31.1482
L55.9987 -30.7801
L56.1845 -30.4215
L56.3734 -30.0747
L56.5667 -29.7425
L56.7659 -29.4281
L56.9727 -29.1351
L57.1889 -28.8671
L57.416 -28.6278
L57.6554 -28.4209
L57.908 -28.2494
L58.1742 -28.1158
L58.4538 -28.0213
L58.7459 -27.9662
L59.0493 -27.9496
L59.3622 -27.9699
L59.6828 -28.0246
L60.0093 -28.1111
L60.3398 -28.2264
L60.6728 -28.368
L61.0065 -28.5331
L61.3397 -28.7194
L61.6712 -28.9248
L61.9998 -29.1474
L62.3248 -29.3857
L62.6452 -29.6381
L62.9604 -29.9034
L63.2699 -30.1806
L63.573 -30.4687
L63.8694 -30.7667
L64.1473 -31.074
L64.221 -31.53
L64.2861 -32.0219
L64.3426 -32.5151
L64.3905 -33.0092
L64.4298 -33.5043
L64.4603 -34.0002
L64.4822 -34.4967
L64.4955 -34.9936
L64.5 -35.4909
L64.4959 -35.9882
L64.483 -36.4856
L64.4616 -36.9829
L64.4314 -37.4798
L64.3926 -37.9763
L64.3451 -38.4722
L64.289 -38.9674
L64.2243 -39.4616
L64.151 -39.9548
L64.0691 -40.4468
L63.9786 -40.9374
L63.8796 -41.4265
L63.7722 -41.914
L63.6563 -42.3996
L63.5319 -42.8834
L63.3992 -43.365
L63.2581 -43.8444
L63.1087 -44.3213
L62.9511 -44.7958
L62.7853 -45.2676
L62.6113 -45.7365
L62.4291 -46.2025
L62.239 -46.6654
L62.0408 -47.125
L61.8347 -47.5813
L61.6208 -48.034
L61.399 -48.483
L61.1695 -48.9283
L60.9324 -49.3696
L60.6876 -49.8068
L60.4353 -50.2398
L60.1756 -50.6685
L59.9085 -51.0927
L59.6341 -51.5124
L59.3526 -51.9272
L59.0639 -52.3373
L58.7682 -52.7424
L58.4655 -53.1423
L58.1561 -53.5371
L57.8398 -53.9265
L57.5169 -54.3104
L57.1875 -54.6888
L56.8516 -55.0615
L56.5093 -55.4284
L56.1609 -55.7893
L55.8062 -56.1442
L55.4455 -56.493
L55.079 -56.8356
L54.7066 -57.1718
L54.3285 -57.5015
L53.9448 -57.8247
L53.5556 -58.1413
L53.1611 -58.4511
L52.7614 -58.754
L52.3566 -59.0501
L51.9467 -59.3391
L51.5321 -59.621
L51.1127 -59.8957
L50.6887 -60.1631
L50.2602 -60.4232
L49.8274 -60.6758
L49.3903 -60.921
L48.9492 -61.1585
L48.5041 -61.3883
L48.0553 -61.6105
L47.6027 -61.8248
L47.1467 -62.0313
L46.6872 -62.2298
L46.2245 -62.4203
L45.7586 -62.6028
L45.2898 -62.7772
L44.8182 -62.9434
L44.3438 -63.1015
L43.867 -63.2512
L43.3877 -63.3927
L42.9062 -63.5258
L42.4226 -63.6506
L41.937 -63.7669
L41.4496 -63.8748
L40.9606 -63.9741
L40.47 -64.065
L39.9781 -64.1473
L39.4849 -64.221
L38.9908 -64.2861
L38.4957 -64.3426
L37.9998 -64.3905
L37.5033 -64.4298
L37.0064 -64.4603
L36.5091 -64.4822
L36.0118 -64.4955
L35.5144 -64.5
L35.0171 -64.4959
L34.5202 -64.483
L34.0237 -64.4616
L33.5278 -64.4314
L33.0326 -64.3926
L32.5384 -64.3451
L32.0452 -64.289
L31.5532 -64.2243
L31.0626 -64.151
L30.5735 -64.0691
L30.086 -63.9786
L29.6004 -63.8796
L29.1166 -63.7722
L28.635 -63.6563
L28.1556 -63.5319
L27.6787 -63.3992
L27.2042 -63.2581
L26.7324 -63.1087
L26.2635 -62.9511
L25.7975 -62.7853
L25.3346 -62.6113
L24.875 -62.4291
L24.4187 -62.239
L23.966 -62.0408
L23.517 -61.8347
L23.0717 -61.6208
L22.6304 -61.399
L22.1932 -61.1695
L21.7602 -60.9324
L21.3315 -60.6876
L20.9073 -60.4353
L20.4876 -60.1756
L20.0728 -59.9085
L19.6627 -59.6341
L19.2576 -59.3526
L18.8577 -59.0639
L18.4629 -58.7682
z
" id="C0_1_52c9ba8fd5"/>
     <path d="
M7.90764 -40.5993
L8.07949 -40.208
L8.25619 -39.8215
L8.43753 -39.4402
L8.6233 -39.0643
L8.81327 -38.6943
L9.0072 -38.3302
L9.20485 -37.9721
L9.40598 -37.6203
L9.61035 -37.2748
L9.81772 -36.9356
L10.0279 -36.6028
L10.2406 -36.2763
L10.4556 -35.9561
L10.6728 -35.6421
L10.892 -35.3344
L11.1129 -35.0328
L11.3354 -34.7372
L11.5593 -34.4476
L11.7845 -34.1639
L12.0108 -33.8859
L12.2381 -33.6136
L12.4663 -33.3469
L12.6953 -33.0855
L12.9249 -32.8295
L13.155 -32.5787
L13.3856 -32.333
L13.6166 -32.0922
L13.848 -31.8562
L14.0795 -31.625
L14.3113 -31.3983
L14.5431 -31.1761
L14.7751 -30.9583
L15.0071 -30.7448
L15.2391 -30.5353
L15.4712 -30.3299
L15.7031 -30.1284
L15.9351 -29.9308
L16.1669 -29.7368
L16.3987 -29.5464
L16.6304 -29.3595
L16.862 -29.1761
L17.0935 -28.9959
L17.3249 -28.819
L17.5562 -28.6451
L17.7875 -28.4744
L18.0187 -28.3065
L18.2499 -28.1416
L18.4811 -27.9794
L18.7123 -27.8199
L18.9435 -27.6631
L19.1748 -27.5089
L19.4061 -27.3571
L19.6375 -27.2078
L19.8691 -27.0608
L20.1009 -26.9161
L20.3329 -26.7737
L20.5651 -26.6334
L20.7976 -26.4953
L21.0304 -26.3592
L21.2636 -26.2251
L21.4972 -26.093
L21.7312 -25.9628
L21.9657 -25.8344
L22.2007 -25.7079
L22.4364 -25.5831
L22.6726 -25.4601
L22.9096 -25.3388
L23.1472 -25.2191
L23.3857 -25.101
L23.625 -24.9846
L23.8651 -24.8697
L24.1062 -24.7563
L24.3483 -24.6444
L24.5915 -24.5339
L24.8358 -24.4249
L25.0812 -24.3174
L25.3279 -24.2112
L25.5758 -24.1064
L25.8251 -24.003
L26.0758 -23.9009
L26.328 -23.8001
L26.5817 -23.7007
L26.837 -23.6025
L27.094 -23.5057
L27.3528 -23.4101
L27.6133 -23.3158
L27.8757 -23.2228
L28.1401 -23.1311
L28.4065 -23.0407
L28.6749 -22.9515
L28.9456 -22.8637
L29.2184 -22.7771
L29.4936 -22.6918
L29.7712 -22.6079
L30.0512 -22.5252
L30.3337 -22.444
L30.6189 -22.3641
L30.9067 -22.2855
L31.1973 -22.2084
L31.4908 -22.1327
L31.7872 -22.0585
L32.0865 -21.9857
L32.389 -21.9145
L32.6945 -21.8449
L33.0033 -21.7769
L33.3154 -21.7105
L33.6309 -21.6458
L33.9498 -21.5828
L34.2722 -21.5217
L34.5982 -21.4624
L34.9279 -21.405
L35.2612 -21.3496
L35.5983 -21.2962
L35.9393 -21.2449
L36.2841 -21.1958
L36.6329 -21.1489
L36.9856 -21.1044
L37.3424 -21.0623
L37.7031 -21.0226
L38.068 -20.9856
L38.4369 -20.9512
L38.81 -20.9195
L39.1871 -20.8907
L39.5683 -20.8648
L39.9536 -20.8419
L40.3429 -20.8222
L40.7362 -20.8056
L41.1334 -20.7923
L41.5345 -20.7824
L41.9393 -20.776
L42.3478 -20.773
L42.7598 -20.7736
L43.1751 -20.7778
L43.5937 -20.7857
L44.0152 -20.7972
L44.4395 -20.8124
L44.8663 -20.8313
L45.2953 -20.8537
L45.7262 -20.8797
L46.1586 -20.9089
L46.592 -20.9413
L47.0261 -20.9766
L47.4603 -21.0145
L47.894 -21.0545
L48.3265 -21.0961
L48.757 -21.1386
L49.1848 -21.1813
L49.6088 -21.223
L50.028 -21.2626
L50.441 -21.2986
L50.8465 -21.3291
L51.2429 -21.3522
L51.6282 -21.3654
L52.0006 -21.3657
L52.3578 -21.3502
L52.6976 -21.3155
L53.0175 -21.2581
L53.3154 -21.1748
L53.5893 -21.0629
L53.8376 -20.9203
L54.0595 -20.746
L54.2545 -20.5401
L54.4231 -20.3036
L54.566 -20.0386
L54.6844 -19.7478
L54.7798 -19.434
L54.8535 -19.1002
L54.907 -18.7496
L54.9417 -18.3847
L54.9587 -18.0082
L54.9592 -17.6224
L54.9442 -17.229
L54.9145 -16.83
L54.8708 -16.4269
L54.8138 -16.0208
L54.744 -15.6131
L54.6621 -15.2046
L54.5684 -14.7963
L54.1316 -14.3888
L53.7451 -14.0115
L53.3532 -13.6984
L52.956 -13.3921
L52.5536 -13.0927
L52.1462 -12.8003
L51.7339 -12.5149
L51.3168 -12.2367
L50.895 -11.9657
L50.4686 -11.7021
L50.0379 -11.4458
L49.6029 -11.197
L49.1637 -10.9558
L48.7206 -10.7222
L48.2735 -10.4963
L47.8228 -10.2782
L47.3684 -10.0679
L46.9106 -9.86555
L46.4494 -9.67112
L45.985 -9.48472
L45.5177 -9.30639
L45.0474 -9.13619
L44.5743 -8.97417
L44.0987 -8.82039
L43.6205 -8.67489
L43.1401 -8.53771
L42.6575 -8.4089
L42.1728 -8.28849
L41.6863 -8.17652
L41.198 -8.07303
L40.7082 -7.97804
L40.2169 -7.89159
L39.7244 -7.8137
L39.2307 -7.7444
L38.736 -7.6837
L38.2405 -7.63163
L37.7443 -7.5882
L37.2476 -7.55343
L36.7504 -7.52732
L36.2531 -7.50988
L35.7557 -7.50112
L35.2584 -7.50105
L34.7613 -7.50965
L34.2645 -7.52693
L33.7683 -7.55289
L33.2728 -7.58751
L32.7781 -7.63079
L32.2844 -7.6827
L31.7918 -7.74325
L31.3005 -7.8124
L30.8106 -7.89013
L30.3223 -7.97643
L29.8358 -8.07127
L29.3511 -8.17461
L28.8684 -8.28643
L28.388 -8.40669
L27.9098 -8.53535
L27.4341 -8.67239
L26.961 -8.81774
L26.4907 -8.97138
L26.0232 -9.13325
L25.5588 -9.3033
L25.0976 -9.48148
L24.6397 -9.66775
L24.1853 -9.86203
L23.7344 -10.0643
L23.2873 -10.2744
L22.8441 -10.4924
L22.4048 -10.7182
L21.9698 -10.9516
L21.539 -11.1927
L21.1125 -11.4413
L20.6907 -11.6975
L20.2735 -11.961
L19.8611 -12.2318
L19.4536 -12.5099
L19.0511 -12.7951
L18.6538 -13.0875
L18.2618 -13.3867
L17.8752 -13.6929
L17.4941 -14.0059
L17.1186 -14.3256
L16.7489 -14.6518
L16.3851 -14.9846
L16.0272 -15.3238
L15.6755 -15.6693
L15.3299 -16.0209
L14.9906 -16.3787
L14.6577 -16.7424
L14.3313 -17.112
L14.0115 -17.4874
L13.6984 -17.8684
L13.3921 -18.2549
L13.0927 -18.6468
L12.8003 -19.044
L12.5149 -19.4464
L12.2367 -19.8538
L11.9657 -20.2661
L11.7021 -20.6832
L11.4458 -21.105
L11.197 -21.5314
L10.9558 -21.9621
L10.7222 -22.3971
L10.4963 -22.8363
L10.2782 -23.2794
L10.0679 -23.7265
L9.86555 -24.1772
L9.67112 -24.6316
L9.48472 -25.0894
L9.30639 -25.5506
L9.13619 -26.015
L8.97417 -26.4823
L8.82039 -26.9526
L8.67489 -27.4257
L8.53771 -27.9013
L8.4089 -28.3795
L8.28849 -28.8599
L8.17652 -29.3425
L8.07303 -29.8272
L7.97804 -30.3137
L7.89159 -30.802
L7.8137 -31.2918
L7.7444 -31.7831
L7.6837 -32.2756
L7.63163 -32.7693
L7.5882 -33.264
L7.55343 -33.7595
L7.52732 -34.2557
L7.50988 -34.7524
L7.50112 -35.2496
L7.50105 -35.7469
L7.50965 -36.2443
L7.52693 -36.7416
L7.55289 -37.2387
L7.58751 -37.7355
L7.63079 -38.2317
L7.6827 -38.7272
L7.74325 -39.2219
z
" id="C0_2_c4cc2a9c7c"/>
    </defs>
    <g clip-path="url(#p1bffca34e9)">
     <use style="fill:#ff0000;stroke:#000000;stroke-width:2.0;" x="0.0" xlink:href="#C0_0_a811fe30f3" y="72.0"/>
    </g>
    <g clip-path="url(#p1bffca34e9)">
     <use style="fill:#ffffff;stroke:#000000;stroke-width:2.0;" x="0.0" xlink:href="#C0_1_52c9ba8fd5" y="72.0"/>
    </g>
    <g clip-path="url(#p1bffca34e9)">
     <use style="fill:#ffffff;stroke:#000000;stroke-width:2.0;" x="0.0" xlink:href="#C0_2_c4cc2a9c7c" y="72.0"/>
    </g>
   </g>
  </g>
 </g>
 <defs>
  <clipPath id="p1bffca34e9">
   <rect height="72.0" width="72.0" x="0.0" y="0.0"/>
  </clipPath>
 </defs>
</svg>
