<?xml version="1.0" encoding="utf-8" standalone="no"?>
<!DOCTYPE svg PUBLIC "-//W3C//DTD SVG 1.1//EN"
  "http://www.w3.org/Graphics/SVG/1.1/DTD/svg11.dtd">
<!-- Created with matplotlib (http://matplotlib.org/) -->
<svg height="72pt" version="1.1" viewBox="0 0 72 72" width="72pt" xmlns="http://www.w3.org/2000/svg" xmlns:xlink="http://www.w3.org/1999/xlink">
 <defs>
  <style type="text/css">
*{stroke-linecap:butt;stroke-linejoin:round;}
  </style>
 </defs>
 <g id="figure_1">
  <g id="patch_1">
   <path d="
M0 72
L72 72
L72 0
L0 0
z
" style="fill:none;"/>
  </g>
  <g id="axes_1">
   <g id="PatchCollection_1">
    <defs>
     <path d="
M36 -7.5
C43.5583 -7.5 50.808 -10.5029 56.1525 -15.8475
C61.4971 -21.192 64.5 -28.4417 64.5 -36
C64.5 -43.5583 61.4971 -50.808 56.1525 -56.1525
C50.808 -61.4971 43.5583 -64.5 36 -64.5
C28.4417 -64.5 21.192 -61.4971 15.8475 -56.1525
C10.5029 -50.808 7.5 -43.5583 7.5 -36
C7.5 -28.4417 10.5029 -21.192 15.8475 -15.8475
C21.192 -10.5029 28.4417 -7.5 36 -7.5
z
" id="C0_0_a811fe30f3"/>
     <path d="
M43.9318 -28.8031
L43.9977 -29.0684
L44.0614 -29.3345
L44.1227 -29.6012
L44.1817 -29.8687
L44.2383 -30.1369
L44.2927 -30.4059
L44.3448 -30.6756
L44.3946 -30.9461
L44.4421 -31.2173
L44.4872 -31.4894
L44.53 -31.7622
L44.5705 -32.0359
L44.6086 -32.3103
L44.6444 -32.5856
L44.6778 -32.8617
L44.7088 -33.1387
L44.7374 -33.4165
L44.7635 -33.6951
L44.7872 -33.9746
L44.8084 -34.255
L44.8271 -34.5362
L44.8432 -34.8183
L44.8568 -35.1012
L44.8678 -35.385
L44.8762 -35.6697
L44.8818 -35.9552
L44.8848 -36.2416
L44.885 -36.5288
L44.8824 -36.8168
L44.877 -37.1057
L44.8687 -37.3953
L44.8574 -37.6857
L44.8432 -37.977
L44.8259 -38.2689
L44.8056 -38.5616
L44.782 -38.8549
L44.7553 -39.1489
L44.7253 -39.4436
L44.6919 -39.7388
L44.6552 -40.0345
L44.6149 -40.3308
L44.5711 -40.6275
L44.5238 -40.9245
L44.4727 -41.2219
L44.4178 -41.5196
L44.3591 -41.8174
L44.2965 -42.1154
L44.2299 -42.4134
L44.1592 -42.7114
L44.0843 -43.0092
L44.0051 -43.3068
L43.9217 -43.604
L43.8337 -43.9008
L43.7413 -44.197
L43.6443 -44.4925
L43.5425 -44.7872
L43.436 -45.081
L43.3246 -45.3737
L43.2082 -45.6651
L43.0867 -45.9552
L42.9601 -46.2436
L42.8283 -46.5304
L42.6912 -46.8153
L42.5487 -47.098
L42.4006 -47.3785
L42.2471 -47.6566
L42.0879 -47.9319
L41.9229 -48.2044
L41.7523 -48.4739
L41.5758 -48.74
L41.3934 -49.0026
L41.2051 -49.2614
L41.0108 -49.5163
L40.8106 -49.767
L40.6043 -50.0132
L40.3919 -50.2548
L40.1735 -50.4915
L39.9491 -50.723
L39.7186 -50.9491
L39.4822 -51.1696
L39.2398 -51.3843
L38.9914 -51.5929
L38.7372 -51.7953
L38.4773 -51.9911
L38.2116 -52.1803
L37.9404 -52.3625
L37.6637 -52.5376
L37.3816 -52.7055
L37.0944 -52.8659
L36.8021 -53.0187
L36.5049 -53.1637
L36.2031 -53.3008
L35.8967 -53.4299
L35.586 -53.5509
L35.2712 -53.6637
L34.9526 -53.7682
L34.6303 -53.8643
L34.3046 -53.952
L33.9757 -54.0312
L33.6439 -54.1019
L33.3094 -54.1642
L32.9725 -54.2179
L32.6335 -54.2632
L32.2926 -54.3
L31.95 -54.3285
L31.6061 -54.3485
L31.261 -54.3603
L30.915 -54.3639
L30.5685 -54.3593
L30.2215 -54.3467
L29.8744 -54.3262
L29.5274 -54.2978
L29.1808 -54.2617
L28.8347 -54.218
L28.4893 -54.1668
L28.145 -54.1083
L27.8018 -54.0426
L27.46 -53.9698
L27.1197 -53.89
L26.7812 -53.8035
L26.4445 -53.7103
L26.11 -53.6107
L25.7776 -53.5047
L25.4476 -53.3924
L25.12 -53.2742
L24.7951 -53.15
L24.473 -53.02
L24.1536 -52.8844
L23.8373 -52.7433
L23.5239 -52.5969
L23.2138 -52.4452
L22.9068 -52.2885
L22.6032 -52.1269
L22.3029 -51.9604
L22.0061 -51.7893
L21.7128 -51.6136
L21.423 -51.4335
L21.1368 -51.249
L20.8543 -51.0604
L20.5755 -50.8676
L20.3004 -50.6709
L20.0291 -50.4702
L19.7616 -50.2658
L19.4978 -50.0578
L19.238 -49.8461
L18.9819 -49.6309
L18.7298 -49.4123
L18.4815 -49.1904
L18.2371 -48.9652
L17.9967 -48.7368
L17.7601 -48.5054
L17.5275 -48.2709
L17.2988 -48.0334
L17.074 -47.7931
L16.8532 -47.5499
L16.6363 -47.3039
L16.4234 -47.0552
L16.2144 -46.8038
L16.0093 -46.5498
L15.8082 -46.2932
L15.611 -46.034
L15.4177 -45.7724
L15.2284 -45.5083
L15.0431 -45.2418
L14.8616 -44.9729
L14.6842 -44.7016
L14.5107 -44.428
L14.3411 -44.1521
L14.1755 -43.8739
L14.0139 -43.5935
L13.8562 -43.3109
L13.7025 -43.026
L13.5529 -42.739
L13.4072 -42.4498
L13.2655 -42.1584
L13.1279 -41.8649
L12.9943 -41.5693
L12.8647 -41.2716
L12.7393 -40.9718
L12.6179 -40.6699
L12.5007 -40.366
L12.3876 -40.06
L12.2787 -39.7519
L12.174 -39.4418
L12.0735 -39.1297
L11.9773 -38.8156
L11.8854 -38.4994
L11.7978 -38.1813
L11.7146 -37.8612
L11.6359 -37.5391
L11.5616 -37.2151
L11.4918 -36.8891
L11.4265 -36.5612
L11.3659 -36.2314
L11.31 -35.8996
L11.2587 -35.566
L11.2123 -35.2306
L11.1707 -34.8933
L11.134 -34.5541
L11.1023 -34.2132
L11.0756 -33.8706
L11.054 -33.5262
L11.0376 -33.1801
L11.0265 -32.8324
L11.0207 -32.483
L11.0203 -32.1321
L11.0254 -31.7796
L11.0361 -31.4257
L11.0524 -31.0703
L11.0745 -30.7136
L11.1025 -30.3556
L11.1363 -29.9964
L11.1762 -29.636
L11.2222 -29.2746
L11.2744 -28.9122
L11.3329 -28.5489
L11.3978 -28.1848
L11.4692 -27.82
L11.5471 -27.4547
L11.6317 -27.0889
L11.7231 -26.7228
L11.8213 -26.3565
L11.9264 -25.9902
L12.0386 -25.6239
L12.1578 -25.258
L12.2843 -24.8925
L12.418 -24.5276
L12.559 -24.1635
L12.7075 -23.8003
L12.8633 -23.4384
L13.0267 -23.0779
L13.1977 -22.7191
L13.3763 -22.362
L13.5625 -22.0071
L13.7563 -21.6546
L13.9579 -21.3046
L14.1671 -20.9576
L14.384 -20.6137
L14.6085 -20.2732
L14.8407 -19.9364
L15.0805 -19.6037
L15.3278 -19.2753
L15.5825 -18.9515
L15.8447 -18.6327
L16.1141 -18.3191
L16.3906 -18.0112
L16.6742 -17.7091
L16.9647 -17.4132
L17.2619 -17.124
L17.5657 -16.8416
L17.8758 -16.5664
L18.192 -16.2987
L18.5141 -16.0388
L18.8418 -15.7871
L19.175 -15.5438
L19.5132 -15.3092
L19.8563 -15.0836
L20.2038 -14.8672
L20.5556 -14.6603
L20.9112 -14.4632
L21.2703 -14.276
L21.6327 -14.0989
L21.9978 -13.9322
L22.3654 -13.7759
L22.735 -13.6302
L23.1064 -13.4952
L23.4792 -13.3711
L23.8529 -13.2578
L24.2273 -13.1554
L24.6019 -13.064
L24.9764 -12.9834
L25.3505 -12.9138
L25.7238 -12.8551
L26.096 -12.8071
L26.4667 -12.7699
L26.8357 -12.7432
L27.2027 -12.727
L27.5674 -12.721
L27.9295 -12.7252
L28.2887 -12.7394
L28.6449 -12.7633
L28.9979 -12.7968
L29.3473 -12.8396
L29.6931 -12.8916
L30.0351 -12.9524
L30.3731 -13.0218
L30.7069 -13.0996
L31.0365 -13.1855
L31.3617 -13.2793
L31.6825 -13.3807
L31.9987 -13.4895
L32.3103 -13.6053
L32.6172 -13.728
L32.9194 -13.8573
L33.2168 -13.9929
L33.5094 -14.1346
L33.7972 -14.2821
L34.0802 -14.4352
L34.3583 -14.5936
L34.6316 -14.7572
L34.9001 -14.9257
L35.1639 -15.0988
L35.4228 -15.2765
L35.677 -15.4584
L35.9265 -15.6443
L36.1714 -15.8341
L36.4116 -16.0276
L36.6472 -16.2247
L36.8783 -16.425
L37.1049 -16.6285
L37.3271 -16.8351
L37.5449 -17.0445
L37.7583 -17.2566
L37.9676 -17.4713
L38.1726 -17.6884
L38.3734 -17.9079
L38.5702 -18.1295
L38.763 -18.3533
L38.9518 -18.579
L39.1367 -18.8066
L39.3177 -19.036
L39.495 -19.2671
L39.6686 -19.4997
L39.8384 -19.7339
L40.0047 -19.9696
L40.1675 -20.2066
L40.3267 -20.4449
L40.4826 -20.6845
L40.635 -20.9252
L40.7842 -21.1671
L40.93 -21.4101
L41.0727 -21.6541
L41.2122 -21.8991
L41.3486 -22.145
L41.4819 -22.3919
L41.6122 -22.6396
L41.7395 -22.8882
L41.864 -23.1376
L41.9855 -23.3877
L42.1042 -23.6387
L42.22 -23.8904
L42.3332 -24.1429
L42.4436 -24.396
L42.5513 -24.6499
L42.6563 -24.9045
L42.7587 -25.1597
L42.8586 -25.4156
L42.9558 -25.6722
L43.0506 -25.9295
L43.1428 -26.1874
L43.2325 -26.4459
L43.3198 -26.7052
L43.4047 -26.9651
L43.4871 -27.2256
L43.5671 -27.4868
L43.6448 -27.7487
L43.7201 -28.0113
L43.793 -28.2745
z
" id="C0_1_6d42886b97"/>
    </defs>
    <g clip-path="url(#p1bffca34e9)">
     <use style="fill:#ffffff;stroke:#000000;stroke-width:2.0;" x="0.0" xlink:href="#C0_0_a811fe30f3" y="72.0"/>
    </g>
    <g clip-path="url(#p1bffca34e9)">
     <use style="fill:#ff0000;stroke:#000000;stroke-width:2.0;" x="0.0" xlink:href="#C0_1_6d42886b97" y="72.0"/>
    </g>
   </g>
  </g>
 </g>
 <defs>
  <clipPath id="p1bffca34e9">
   <rect height="72.0" width="72.0" x="0.0" y="0.0"/>
  </clipPath>
 </defs>
</svg>
