<?xml version="1.0" encoding="utf-8" standalone="no"?>
<!DOCTYPE svg PUBLIC "-//W3C//DTD SVG 1.1//EN"
  "http://www.w3.org/Graphics/SVG/1.1/DTD/svg11.dtd">
<!-- Created with matplotlib (http://matplotlib.org/) -->
<svg height="72pt" version="1.1" viewBox="0 0 72 72" width="72pt" xmlns="http://www.w3.org/2000/svg" xmlns:xlink="http://www.w3.org/1999/xlink">
 <defs>
  <style type="text/css">
*{stroke-linecap:butt;stroke-linejoin:round;}
  </style>
 </defs>
 <g id="figure_1">
  <g id="patch_1">
   <path d="
M0 72
L72 72
L72 0
L0 0
z
" style="fill:none;"/>
  </g>
  <g id="axes_1">
   <g id="PatchCollection_1">
    <defs>
     <path d="
M36 -7.5
C43.5583 -7.5 50.808 -10.5029 56.1525 -15.8475
C61.4971 -21.192 64.5 -28.4417 64.5 -36
C64.5 -43.5583 61.4971 -50.808 56.1525 -56.1525
C50.808 -61.4971 43.5583 -64.5 36 -64.5
C28.4417 -64.5 21.192 -61.4971 15.8475 -56.1525
C10.5029 -50.808 7.5 -43.5583 7.5 -36
C7.5 -28.4417 10.5029 -21.192 15.8475 -15.8475
C21.192 -10.5029 28.4417 -7.5 36 -7.5
z
" id="C0_0_a811fe30f3"/>
     <path d="
M30.6441 -63.8964
L30.7983 -63.7122
L30.9441 -63.5233
L31.0815 -63.3299
L31.2107 -63.1322
L31.3318 -62.9304
L31.4449 -62.7246
L31.5503 -62.5151
L31.648 -62.3019
L31.7382 -62.0852
L31.8212 -61.8653
L31.8971 -61.6421
L31.966 -61.416
L32.0282 -61.1869
L32.0839 -60.9552
L32.1332 -60.7208
L32.1764 -60.4839
L32.2136 -60.2447
L32.2451 -60.0032
L32.2711 -59.7597
L32.2917 -59.5141
L32.3072 -59.2667
L32.3177 -59.0175
L32.3235 -58.7666
L32.3247 -58.5142
L32.3215 -58.2602
L32.3141 -58.0049
L32.3027 -57.7483
L32.2875 -57.4905
L32.2686 -57.2316
L32.2463 -56.9716
L32.2206 -56.7106
L32.1917 -56.4488
L32.1598 -56.1861
L32.125 -55.9226
L32.0875 -55.6585
L32.0474 -55.3938
L32.0048 -55.1284
L31.9599 -54.8626
L31.9128 -54.5963
L31.8636 -54.3296
L31.8125 -54.0625
L31.7594 -53.7951
L31.7046 -53.5274
L31.6481 -53.2595
L31.59 -52.9914
L31.5305 -52.7232
L31.4696 -52.4548
L31.4073 -52.1863
L31.3438 -51.9178
L31.2791 -51.6492
L31.2133 -51.3806
L31.1465 -51.112
L31.0788 -50.8434
L31.0101 -50.5749
L30.9406 -50.3065
L30.8702 -50.0381
L30.7992 -49.7698
L30.7274 -49.5016
L30.6549 -49.2336
L30.5819 -48.9657
L30.5082 -48.6979
L30.434 -48.4302
L30.3593 -48.1627
L30.2841 -47.8954
L30.2085 -47.6282
L30.1325 -47.3611
L30.0561 -47.0942
L29.9793 -46.8275
L29.9021 -46.5609
L29.8246 -46.2944
L29.7469 -46.0281
L29.6688 -45.7619
L29.5904 -45.4959
L29.5118 -45.2299
L29.433 -44.9641
L29.3539 -44.6984
L29.2746 -44.4328
L29.1951 -44.1673
L29.1153 -43.9019
L29.0354 -43.6366
L28.9553 -43.3713
L28.875 -43.106
L28.7945 -42.8408
L28.7138 -42.5757
L28.633 -42.3105
L28.552 -42.0453
L28.4708 -41.7802
L28.3894 -41.515
L28.3079 -41.2498
L28.1442 -40.9845
L28.0622 -40.7192
L27.9799 -40.4538
L27.8975 -40.1883
L27.8148 -39.9228
L27.732 -39.6571
L27.649 -39.3913
L27.5657 -39.1254
L27.4823 -38.8594
L27.3986 -38.5932
L27.3147 -38.3268
L27.2305 -38.0603
L27.1461 -37.7936
L27.0615 -37.5268
L26.9765 -37.2597
L26.8913 -36.9925
L26.8058 -36.725
L26.72 -36.4573
L26.6339 -36.1895
L26.5474 -35.9214
L26.4606 -35.6531
L26.3734 -35.3846
L26.2859 -35.1159
L26.198 -34.847
L26.1096 -34.5779
L26.0209 -34.3086
L25.9316 -34.0391
L25.842 -33.7694
L25.7518 -33.4996
L25.6611 -33.2295
L25.5699 -32.9594
L25.4782 -32.6891
L25.3859 -32.4187
L25.293 -32.1483
L25.1994 -31.8777
L25.1052 -31.6072
L25.0103 -31.3366
L24.9147 -31.066
L24.8184 -30.7956
L24.7213 -30.5252
L24.6234 -30.2549
L24.5246 -29.9848
L24.425 -29.715
L24.3245 -29.4454
L24.2229 -29.1761
L24.1204 -28.9072
L24.0169 -28.6388
L23.9123 -28.3709
L23.8065 -28.1036
L23.6996 -27.8369
L23.5914 -27.5709
L23.482 -27.3058
L23.3712 -27.0415
L23.259 -26.7782
L23.1453 -26.516
L23.0302 -26.255
L22.9135 -25.9952
L22.7951 -25.7369
L22.675 -25.48
L22.5532 -25.2247
L22.4295 -24.9712
L22.3039 -24.7196
L22.1763 -24.4699
L22.0467 -24.2224
L21.9148 -23.9771
L21.7808 -23.7343
L21.6445 -23.494
L21.5058 -23.2565
L21.3646 -23.0218
L21.2208 -22.7902
L21.0745 -22.5617
L20.9254 -22.3367
L20.7735 -22.1152
L20.6188 -21.8975
L20.4611 -21.6837
L20.3004 -21.4739
L20.1365 -21.2685
L19.9695 -21.0675
L19.7992 -20.8712
L19.6256 -20.6797
L19.4486 -20.4933
L19.2682 -20.3121
L19.0842 -20.1363
L18.8968 -19.9662
L18.7057 -19.8019
L18.511 -19.6436
L18.3126 -19.4915
L18.1106 -19.3457
L17.9049 -19.2066
L17.6955 -19.0742
L17.4823 -18.9487
L17.2655 -18.8303
L17.045 -18.7192
L16.8209 -18.6156
L16.5931 -18.5196
L16.3618 -18.4313
L16.127 -18.3509
L15.8888 -18.2787
L15.6472 -18.2146
L15.4023 -18.1589
L15.1541 -18.1116
L14.9029 -18.073
L14.6487 -18.043
L14.3917 -18.0219
L14.1318 -18.0098
L13.6795 -18.0066
L13.3737 -18.2786
L13.0747 -18.6709
L12.7827 -19.0684
L12.4977 -19.4711
L12.22 -19.8788
L11.9494 -20.2914
L11.6862 -20.7088
L11.4304 -21.1309
L11.1821 -21.5575
L10.9414 -21.9885
L10.7082 -22.4238
L10.4828 -22.8632
L10.2652 -23.3066
L10.0554 -23.7538
L9.85346 -24.2048
L9.65953 -24.6594
L9.47361 -25.1175
L9.29578 -25.5788
L9.12608 -26.0434
L8.96456 -26.5109
L8.81129 -26.9814
L8.66629 -27.4546
L8.52962 -27.9304
L8.40131 -28.4087
L8.28142 -28.8893
L8.16997 -29.372
L8.06699 -29.8568
L7.97252 -30.3434
L7.88659 -30.8318
L7.80923 -31.3217
L7.74045 -31.8131
L7.68028 -32.3057
L7.62874 -32.7995
L7.58583 -33.2942
L7.55159 -33.7898
L7.52601 -34.286
L7.5091 -34.7827
L7.50087 -35.2799
L7.50132 -35.7772
L7.51046 -36.2746
L7.52827 -36.7719
L7.55475 -37.269
L7.5899 -37.7657
L7.6337 -38.2619
L7.68615 -38.7574
L7.74722 -39.252
L7.81689 -39.7457
L7.89515 -40.2382
L7.98197 -40.7294
L8.07732 -41.2192
L8.18118 -41.7074
L8.29352 -42.1938
L8.41429 -42.6784
L8.54347 -43.1609
L8.68101 -43.6413
L8.82687 -44.1193
L8.98101 -44.5948
L9.14338 -45.0678
L9.31393 -45.5379
L9.49261 -46.0052
L9.67936 -46.4694
L9.87413 -46.9304
L10.0769 -47.3881
L10.2875 -47.8423
L10.5059 -48.293
L10.7322 -48.7398
L10.9661 -49.1828
L11.2076 -49.6218
L11.4567 -50.0566
L11.7133 -50.4872
L11.9773 -50.9133
L12.2486 -51.3349
L12.5271 -51.7518
L12.8128 -52.1639
L13.1055 -52.5711
L13.4052 -52.9733
L13.7118 -53.3703
L14.0252 -53.7619
L14.3453 -54.1482
L14.6719 -54.529
L15.0051 -54.9041
L15.3447 -55.2734
L15.6905 -55.6369
L16.0426 -55.9944
L16.4007 -56.3458
L16.7648 -56.691
L17.1347 -57.0299
L17.5104 -57.3624
L17.8918 -57.6884
L18.2786 -58.0078
L18.6709 -58.3205
L19.0684 -58.6263
L19.4711 -58.9253
L19.8788 -59.2173
L20.2914 -59.5023
L20.7088 -59.78
L21.1309 -60.0506
L21.5575 -60.3138
L21.9885 -60.5696
L22.4238 -60.8179
L22.8632 -61.0586
L23.3066 -61.2918
L23.7538 -61.5172
L24.2048 -61.7348
L24.6594 -61.9446
L25.1175 -62.1465
L25.5788 -62.3405
L26.0434 -62.5264
L26.5109 -62.7042
L26.9814 -62.8739
L27.4546 -63.0354
L27.9304 -63.1887
L28.4087 -63.3337
L28.8893 -63.4704
L29.372 -63.5987
L29.8568 -63.7186
z
" id="C0_1_5c0c206bc6"/>
     <path d="
M58.1018 -53.9639
L58.0587 -53.7018
L58.0171 -53.4363
L57.9769 -53.1674
L57.9379 -52.8955
L57.9 -52.6205
L57.863 -52.3428
L57.8268 -52.0625
L57.7913 -51.7797
L57.7563 -51.4946
L57.7218 -51.2073
L57.6875 -50.918
L57.6534 -50.6268
L57.6195 -50.3338
L57.5855 -50.0393
L57.5515 -49.7432
L57.5172 -49.4458
L57.4827 -49.1472
L57.4478 -48.8474
L57.4124 -48.5466
L57.3766 -48.2449
L57.3402 -47.9424
L57.3032 -47.6392
L57.2654 -47.3353
L57.227 -47.031
L57.1877 -46.7262
L57.1476 -46.421
L57.1066 -46.1156
L57.0646 -45.81
L57.0217 -45.5042
L56.9778 -45.1983
L56.9329 -44.8925
L56.8869 -44.5866
L56.8398 -44.2809
L56.7917 -43.9753
L56.7423 -43.67
L56.6919 -43.3648
L56.6403 -43.0599
L56.5875 -42.7554
L56.5335 -42.4512
L56.4783 -42.1474
L56.4218 -41.844
L56.3642 -41.541
L56.3053 -41.2385
L56.2452 -40.9365
L56.1838 -40.6349
L56.1211 -40.3339
L56.0572 -40.0334
L55.992 -39.7335
L55.9255 -39.4341
L55.8578 -39.1352
L55.7888 -38.837
L55.7185 -38.5393
L55.6469 -38.2422
L55.574 -37.9456
L55.4998 -37.6496
L55.4243 -37.3542
L55.3475 -37.0594
L55.2694 -36.7652
L55.1901 -36.4715
L55.1094 -36.1784
L55.0274 -35.8858
L54.9441 -35.5938
L54.8595 -35.3023
L54.7736 -35.0113
L54.6863 -34.7209
L54.5978 -34.4309
L54.5079 -34.1415
L54.4167 -33.8525
L54.3242 -33.564
L54.2303 -33.276
L54.1351 -32.9885
L54.0386 -32.7013
L53.9407 -32.4146
L53.8415 -32.1283
L53.7409 -31.8424
L53.639 -31.5569
L53.5358 -31.2718
L53.4311 -30.987
L53.3251 -30.7025
L53.2178 -30.4184
L53.109 -30.1346
L52.9989 -29.8511
L52.8874 -29.5679
L52.7745 -29.285
L52.6602 -29.0023
L52.5446 -28.7199
L52.4275 -28.4378
L52.309 -28.1558
L52.1892 -27.8741
L52.0679 -27.5926
L51.9452 -27.3113
L51.8211 -27.0302
L51.6956 -26.7493
L51.5686 -26.4686
L51.4403 -26.1881
L51.3105 -25.9077
L51.1794 -25.6274
L51.0468 -25.3474
L50.9128 -25.0674
L50.7774 -24.7877
L50.6406 -24.5081
L50.5024 -24.2286
L50.3628 -23.9493
L50.2219 -23.6701
L50.0796 -23.3911
L49.9359 -23.1123
L49.7909 -22.8336
L49.6446 -22.5551
L49.497 -22.2767
L49.3481 -21.9986
L49.1979 -21.7206
L49.0465 -21.4429
L48.8939 -21.1653
L48.7401 -20.888
L48.5851 -20.6109
L48.4291 -20.3341
L48.2719 -20.0576
L48.1138 -19.7814
L47.9546 -19.5055
L47.7945 -19.2299
L47.6336 -18.9547
L47.4718 -18.6798
L47.3092 -18.4054
L47.1459 -18.1314
L46.982 -17.8579
L46.8176 -17.5848
L46.6527 -17.3123
L46.4874 -17.0403
L46.3217 -16.7689
L46.1559 -16.4981
L45.99 -16.228
L45.824 -15.9585
L45.6582 -15.6897
L45.4926 -15.4217
L45.3273 -15.1545
L45.1624 -14.888
L44.9982 -14.6225
L44.8347 -14.3578
L44.6721 -14.0941
L44.5105 -13.8313
L44.3501 -13.5695
L44.191 -13.3088
L44.0334 -13.0492
L43.8775 -12.7907
L43.7234 -12.5334
L43.5713 -12.2772
L43.4214 -12.0224
L43.2738 -11.7688
L43.1289 -11.5165
L42.9866 -11.2656
L42.8473 -11.016
L42.7112 -10.768
L42.5783 -10.5214
L42.449 -10.2763
L42.3234 -10.0329
L42.2017 -9.79098
L42.0841 -9.55075
L41.9708 -9.31221
L41.8619 -9.07542
L41.7577 -8.8404
L41.6584 -8.60721
L41.5641 -8.3759
L41.9842 -8.14651
L42.4696 -8.13533
L42.953 -8.24402
L43.4343 -8.36115
L43.9133 -8.48671
L44.39 -8.62065
L44.864 -8.76292
L45.3354 -8.9135
L45.804 -9.07232
L46.2695 -9.23935
L46.7319 -9.41453
L47.1911 -9.5978
L47.6468 -9.78912
L48.099 -9.98842
L48.5475 -10.1956
L48.9922 -10.4107
L49.4329 -10.6336
L49.8695 -10.8642
L50.3019 -11.1025
L50.73 -11.3483
L51.1536 -11.6017
L51.5725 -11.8625
L51.9867 -12.1306
L52.3961 -12.406
L52.8004 -12.6886
L53.1996 -12.9783
L53.5936 -13.2751
L53.9822 -13.5787
L54.3654 -13.8892
L54.7429 -14.2064
L55.1148 -14.5302
L55.4808 -14.8606
L55.8409 -15.1974
L56.1949 -15.5406
L56.5428 -15.8899
L56.8845 -16.2455
L57.2197 -16.607
L57.5486 -16.9744
L57.8708 -17.3477
L58.1864 -17.7266
L58.4952 -18.1111
L58.7972 -18.501
L59.0922 -18.8962
L59.3802 -19.2967
L59.6611 -19.7023
L59.9347 -20.1128
L60.2011 -20.5282
L60.4601 -20.9482
L60.7117 -21.3729
L60.9557 -21.802
L61.1921 -22.2354
L61.4209 -22.6731
L61.6419 -23.1148
L61.8551 -23.5604
L62.0604 -24.0098
L62.2578 -24.4629
L62.4472 -24.9194
L62.6285 -25.3794
L62.8017 -25.8426
L62.9668 -26.3088
L63.1236 -26.7781
L63.2722 -27.2501
L63.4124 -27.7248
L63.5444 -28.202
L63.6679 -28.6816
L63.783 -29.1635
L63.8896 -29.6474
L63.9878 -30.1332
L64.0774 -30.6209
L64.1584 -31.1101
L64.2309 -31.6009
L64.2948 -32.093
L64.3501 -32.5863
L64.3967 -33.0806
L64.4347 -33.5759
L64.464 -34.0718
L64.4847 -34.5684
L64.4966 -35.0653
L64.4999 -35.5626
L64.4945 -36.06
L64.4805 -36.5574
L64.4577 -37.0546
L64.4263 -37.5515
L64.3863 -38.0479
L64.3375 -38.5437
L64.2802 -39.0387
L64.2142 -39.5328
L64.1397 -40.0259
L64.0565 -40.5177
L63.9649 -41.0081
L63.8647 -41.497
L63.756 -41.9842
L63.6388 -42.4696
L63.5133 -42.953
L63.3794 -43.4343
L63.2371 -43.9133
L63.0865 -44.39
L62.9277 -44.864
L62.7607 -45.3354
L62.5855 -45.804
L62.4022 -46.2695
L62.2109 -46.7319
L62.0116 -47.1911
L61.8044 -47.6468
L61.5893 -48.099
L61.3664 -48.5475
L61.1358 -48.9922
L60.8975 -49.4329
L60.6517 -49.8695
L60.3983 -50.3019
L60.1375 -50.73
L59.8694 -51.1536
L59.594 -51.5725
L59.3114 -51.9867
L59.0217 -52.3961
L58.7249 -52.8004
z
" id="C0_2_bafe4614d6"/>
    </defs>
    <g clip-path="url(#p1bffca34e9)">
     <use style="fill:#ff0000;stroke:#000000;stroke-width:2.0;" x="0.0" xlink:href="#C0_0_a811fe30f3" y="72.0"/>
    </g>
    <g clip-path="url(#p1bffca34e9)">
     <use style="fill:#ffffff;stroke:#000000;stroke-width:2.0;" x="0.0" xlink:href="#C0_1_5c0c206bc6" y="72.0"/>
    </g>
    <g clip-path="url(#p1bffca34e9)">
     <use style="fill:#ffffff;stroke:#000000;stroke-width:2.0;" x="0.0" xlink:href="#C0_2_bafe4614d6" y="72.0"/>
    </g>
   </g>
  </g>
 </g>
 <defs>
  <clipPath id="p1bffca34e9">
   <rect height="72.0" width="72.0" x="0.0" y="0.0"/>
  </clipPath>
 </defs>
</svg>
