<?xml version="1.0" encoding="utf-8" standalone="no"?>
<!DOCTYPE svg PUBLIC "-//W3C//DTD SVG 1.1//EN"
  "http://www.w3.org/Graphics/SVG/1.1/DTD/svg11.dtd">
<!-- Created with matplotlib (http://matplotlib.org/) -->
<svg height="72pt" version="1.1" viewBox="0 0 72 72" width="72pt" xmlns="http://www.w3.org/2000/svg" xmlns:xlink="http://www.w3.org/1999/xlink">
 <defs>
  <style type="text/css">
*{stroke-linecap:butt;stroke-linejoin:round;}
  </style>
 </defs>
 <g id="figure_1">
  <g id="patch_1">
   <path d="
M0 72
L72 72
L72 0
L0 0
z
" style="fill:none;"/>
  </g>
  <g id="axes_1">
   <g id="PatchCollection_1">
    <defs>
     <path d="
M36 -7.5
C43.5583 -7.5 50.808 -10.5029 56.1525 -15.8475
C61.4971 -21.192 64.5 -28.4417 64.5 -36
C64.5 -43.5583 61.4971 -50.808 56.1525 -56.1525
C50.808 -61.4971 43.5583 -64.5 36 -64.5
C28.4417 -64.5 21.192 -61.4971 15.8475 -56.1525
C10.5029 -50.808 7.5 -43.5583 7.5 -36
C7.5 -28.4417 10.5029 -21.192 15.8475 -15.8475
C21.192 -10.5029 28.4417 -7.5 36 -7.5
z
" id="C0_0_a811fe30f3"/>
     <path d="
M55.2657 -56.9411
L55.0136 -56.863
L54.7703 -56.7695
L54.5355 -56.6614
L54.3088 -56.5394
L54.0899 -56.4045
L53.8784 -56.2574
L53.6738 -56.099
L53.4758 -55.9299
L53.284 -55.7511
L53.0978 -55.5633
L52.917 -55.367
L52.7411 -55.1632
L52.5697 -54.9522
L52.4025 -54.7349
L52.2393 -54.5118
L52.0795 -54.2834
L51.9231 -54.0503
L51.7696 -53.8129
L51.6189 -53.5717
L51.4708 -53.327
L51.325 -53.0794
L51.1813 -52.8291
L51.0395 -52.5766
L50.8996 -52.322
L50.7613 -52.0658
L50.6246 -51.8081
L50.4892 -51.5493
L50.3552 -51.2895
L50.2224 -51.029
L50.0907 -50.768
L49.96 -50.5065
L49.8304 -50.2449
L49.7016 -49.9832
L49.5737 -49.7216
L49.4466 -49.4602
L49.3202 -49.1991
L49.1946 -48.9384
L49.0696 -48.6782
L48.9452 -48.4185
L48.8215 -48.1595
L48.6983 -47.9012
L48.5756 -47.6437
L48.4535 -47.3869
L48.3318 -47.131
L48.2106 -46.876
L48.0898 -46.6218
L47.9694 -46.3686
L47.8494 -46.1164
L47.7298 -45.8651
L47.6106 -45.6147
L47.4916 -45.3653
L47.373 -45.1169
L47.2547 -44.8694
L47.1367 -44.6229
L47.0189 -44.3774
L46.9014 -44.1328
L46.7841 -43.8891
L46.6669 -43.6463
L46.55 -43.4044
L46.4333 -43.1633
L46.3167 -42.9231
L46.2002 -42.6837
L46.0839 -42.4451
L45.9676 -42.2073
L45.8515 -41.9702
L45.7354 -41.7338
L45.6193 -41.498
L45.5033 -41.2629
L45.3873 -41.0285
L45.2713 -40.7945
L45.1552 -40.5612
L45.0391 -40.3283
L44.9229 -40.0959
L44.8066 -39.8639
L44.6903 -39.6323
L44.5738 -39.4011
L44.4571 -39.1702
L44.3403 -38.9395
L44.2233 -38.7091
L44.1061 -38.4789
L43.9887 -38.2489
L43.871 -38.019
L43.753 -37.7891
L43.5162 -37.5593
L43.3973 -37.3295
L43.2781 -37.0996
L43.1585 -36.8697
L43.0384 -36.6396
L42.918 -36.4093
L42.7971 -36.1789
L42.6758 -35.9482
L42.554 -35.7172
L42.4317 -35.4858
L42.3088 -35.2541
L42.1854 -35.022
L42.0615 -34.7894
L41.9369 -34.5563
L41.8118 -34.3227
L41.686 -34.0885
L41.5596 -33.8537
L41.4325 -33.6182
L41.3047 -33.382
L41.1762 -33.145
L41.0469 -32.9073
L40.917 -32.6688
L40.7862 -32.4293
L40.6547 -32.189
L40.5224 -31.9478
L40.3893 -31.7056
L40.2553 -31.4623
L40.1205 -31.218
L39.9849 -30.9727
L39.8484 -30.7262
L39.711 -30.4785
L39.5727 -30.2297
L39.4336 -29.9797
L39.2936 -29.7284
L39.1527 -29.4758
L39.0108 -29.222
L38.8681 -28.9668
L38.7246 -28.7102
L38.5801 -28.4523
L38.4348 -28.193
L38.2887 -27.9323
L38.1417 -27.6701
L37.994 -27.4065
L37.8454 -27.1414
L37.6962 -26.8749
L37.5462 -26.6069
L37.3956 -26.3374
L37.2445 -26.0664
L37.0928 -25.7939
L36.9406 -25.52
L36.788 -25.2446
L36.6352 -24.9677
L36.4822 -24.6894
L36.329 -24.4097
L36.176 -24.1286
L36.023 -23.8461
L35.8704 -23.5622
L35.7183 -23.2771
L35.5668 -22.9907
L35.4161 -22.703
L35.2665 -22.4142
L35.1182 -22.1243
L34.9714 -21.8333
L34.8264 -21.5414
L34.6835 -21.2485
L34.543 -20.9547
L34.4053 -20.6602
L34.2707 -20.3649
L34.1397 -20.0691
L34.0127 -19.7727
L33.8901 -19.476
L33.7724 -19.1789
L33.6602 -18.8815
L33.554 -18.5841
L33.4544 -18.2867
L33.362 -17.9894
L33.2775 -17.6924
L33.2015 -17.3957
L33.1347 -17.0996
L33.0778 -16.8041
L33.0315 -16.5095
L32.9966 -16.2158
L32.9737 -15.9233
L32.9636 -15.6322
L32.9668 -15.3425
L32.9841 -15.0546
L33.0161 -14.7687
L33.0632 -14.4849
L33.1259 -14.2036
L33.2046 -13.9249
L33.2997 -13.6493
L33.4113 -13.3769
L33.5395 -13.108
L33.6844 -12.8431
L33.8459 -12.5823
L34.0238 -12.3261
L34.218 -12.0747
L34.428 -11.8286
L34.6535 -11.588
L34.8939 -11.3533
L35.1489 -11.1248
L35.4178 -10.9027
L35.6999 -10.6876
L35.9948 -10.4795
L36.3017 -10.2788
L36.6199 -10.0858
L36.9489 -9.90058
L37.2879 -9.7235
L37.6363 -9.55471
L37.9934 -9.39439
L38.3587 -9.2427
L38.7313 -9.09976
L39.1109 -8.9657
L39.4967 -8.84061
L39.8882 -8.72457
L40.2849 -8.61764
L40.6862 -8.51987
L41.0916 -8.43127
L41.5008 -8.35187
L41.9131 -8.28165
L42.4191 -8.22061
L42.9027 -8.2323
L43.3843 -8.34856
L43.8636 -8.47324
L44.3405 -8.60631
L44.8148 -8.74772
L45.2865 -8.89743
L45.7553 -9.0554
L46.2212 -9.22157
L46.6839 -9.3959
L47.1434 -9.57834
L47.5995 -9.76882
L48.0521 -9.9673
L48.501 -10.1737
L48.9461 -10.388
L49.3872 -10.61
L49.8243 -10.8399
L50.2571 -11.0773
L50.6856 -11.3224
L51.1097 -11.575
L51.5291 -11.835
L51.9438 -12.1024
L52.3537 -12.377
L52.7585 -12.6589
L53.1583 -12.9478
L53.5528 -13.2438
L53.942 -13.5468
L54.3257 -13.8565
L54.7039 -14.173
L55.0763 -14.4962
L55.443 -14.8259
L55.8037 -15.162
L56.1584 -15.5045
L56.5069 -15.8533
L56.8492 -16.2081
L57.1851 -16.5691
L57.5146 -16.9359
L57.8375 -17.3085
L58.1538 -17.6869
L58.4634 -18.0708
L58.7661 -18.4601
L59.0618 -18.8548
L59.3505 -19.2548
L59.6322 -19.6598
L59.9066 -20.0698
L60.1737 -20.4847
L60.4335 -20.9043
L60.6858 -21.3285
L60.9306 -21.7571
L61.1679 -22.1901
L61.3974 -22.6273
L61.6192 -23.0686
L61.8332 -23.5138
L62.0394 -23.9628
L62.2376 -24.4155
L62.4278 -24.8717
L62.61 -25.3313
L62.784 -25.7942
L62.95 -26.2601
L63.1076 -26.7291
L63.2571 -27.2008
L63.3982 -27.6753
L63.531 -28.1522
L63.6554 -28.6316
L63.7714 -29.1132
L63.8789 -29.5969
L63.9779 -30.0826
L64.0684 -30.57
L64.1504 -31.0591
L64.2238 -31.5497
L64.2886 -32.0417
L64.3447 -32.5349
L64.3923 -33.0291
L64.4311 -33.5242
L64.4614 -34.0201
L64.4829 -34.5166
L64.4958 -35.0136
L64.5 -35.5108
L64.4955 -36.0082
L64.4824 -36.5056
L64.4605 -37.0028
L64.43 -37.4998
L64.3908 -37.9963
L64.343 -38.4921
L64.2866 -38.9872
L64.2215 -39.4814
L64.1478 -39.9746
L64.0656 -40.4665
L63.9748 -40.9571
L63.8755 -41.4461
L63.7677 -41.9335
L63.6514 -42.4191
L63.5268 -42.9027
L63.3937 -43.3843
L63.2523 -43.8636
L63.1026 -44.3405
L62.9446 -44.8148
L62.7784 -45.2865
L62.6041 -45.7553
L62.4217 -46.2212
L62.2312 -46.6839
L62.0327 -47.1434
L61.8263 -47.5995
L61.612 -48.0521
L61.39 -48.501
L61.1601 -48.9461
L60.9227 -49.3872
L60.6776 -49.8243
L60.425 -50.2571
L60.165 -50.6856
L59.8976 -51.1097
L59.623 -51.5291
L59.3411 -51.9438
L59.0522 -52.3537
L58.7562 -52.7585
L58.4532 -53.1583
L58.1435 -53.5528
L57.827 -53.942
L57.5038 -54.3257
L57.1741 -54.7039
L56.838 -55.0763
L56.4955 -55.443
L56.1467 -55.8037
L55.7919 -56.1584
z
" id="C0_1_3dcd164f5a"/>
     <path d="
M29.6903 -63.75
L29.3388 -63.5256
L28.9915 -63.2983
L28.6488 -63.0682
L28.3108 -62.8353
L27.9775 -62.5999
L27.6492 -62.362
L27.3258 -62.1218
L27.0075 -61.8794
L26.6943 -61.6349
L26.3862 -61.3885
L26.0832 -61.1402
L25.7853 -60.8902
L25.4926 -60.6386
L25.205 -60.3855
L24.9226 -60.1309
L24.6451 -59.875
L24.3728 -59.6179
L24.1054 -59.3596
L23.8429 -59.1002
L23.5853 -58.8398
L23.3326 -58.5785
L23.0846 -58.3163
L22.8413 -58.0533
L22.6026 -57.7895
L22.3685 -57.525
L22.1389 -57.2599
L21.9137 -56.9941
L21.6928 -56.7277
L21.4763 -56.4607
L21.2639 -56.1933
L21.0557 -55.9253
L20.8515 -55.6568
L20.6513 -55.3878
L20.455 -55.1184
L20.2626 -54.8485
L20.0739 -54.5781
L19.889 -54.3074
L19.7076 -54.0362
L19.5299 -53.7645
L19.3557 -53.4924
L19.1849 -53.2199
L19.0175 -52.9468
L18.8534 -52.6734
L18.6926 -52.3994
L18.535 -52.1249
L18.3806 -51.8499
L18.2293 -51.5743
L18.081 -51.2982
L17.9357 -51.0215
L17.7934 -50.7442
L17.6541 -50.4662
L17.5176 -50.1876
L17.3839 -49.9082
L17.253 -49.6282
L17.1249 -49.3474
L16.9995 -49.0658
L16.8769 -48.7833
L16.7568 -48.5
L16.6395 -48.2158
L16.5247 -47.9306
L16.4125 -47.6445
L16.3029 -47.3573
L16.1958 -47.0691
L16.0913 -46.7798
L15.9892 -46.4893
L15.8897 -46.1977
L15.7926 -45.9048
L15.698 -45.6106
L15.6059 -45.3152
L15.5163 -45.0183
L15.4291 -44.7201
L15.3444 -44.4203
L15.2621 -44.1191
L15.1823 -43.8164
L15.105 -43.512
L15.0302 -43.206
L14.9578 -42.8983
L14.8879 -42.5889
L14.8206 -42.2777
L14.7558 -41.9646
L14.6935 -41.6497
L14.6339 -41.3329
L14.5768 -41.0141
L14.5223 -40.6933
L14.4705 -40.3704
L14.4213 -40.0455
L14.3749 -39.7184
L14.3312 -39.3892
L14.2902 -39.0577
L14.2521 -38.724
L14.2168 -38.388
L14.1845 -38.0497
L14.155 -37.7091
L14.1285 -37.3661
L14.1051 -37.0207
L14.0847 -36.6729
L14.0674 -36.3226
L14.0533 -35.9699
L14.0424 -35.6147
L14.0348 -35.2571
L14.0304 -34.897
L14.0295 -34.5344
L14.0319 -34.1693
L14.0378 -33.8018
L14.0471 -33.4319
L14.06 -33.0595
L14.0765 -32.6848
L14.0966 -32.3078
L14.1204 -31.9284
L14.1478 -31.5468
L14.179 -31.1631
L14.2139 -30.7772
L14.2525 -30.3894
L14.2949 -29.9995
L14.341 -29.6079
L14.3908 -29.2146
L14.4443 -28.8196
L14.5014 -28.4232
L14.5622 -28.0255
L14.6265 -27.6266
L14.6942 -27.2268
L14.7653 -26.8261
L14.8395 -26.4248
L14.9168 -26.0232
L14.997 -25.6214
L15.0798 -25.2197
L15.165 -24.8183
L15.2525 -24.4174
L15.3418 -24.0175
L15.4326 -23.6187
L15.5246 -23.2214
L15.6174 -22.8258
L15.7105 -22.4324
L15.8035 -22.0414
L15.8959 -21.6532
L15.987 -21.2681
L16.0764 -20.8865
L16.1633 -20.5087
L16.2473 -20.1352
L16.3275 -19.7663
L16.4034 -19.4022
L16.4743 -19.0435
L16.5394 -18.6904
L16.5982 -18.3432
L16.65 -18.0023
L16.6941 -17.668
L16.73 -17.3405
L16.7571 -17.0201
L16.7751 -16.7071
L16.7835 -16.4016
L16.782 -16.1038
L16.7704 -15.814
L16.7485 -15.5321
L16.233 -15.2585
L15.8777 -15.4691
L15.5285 -15.8173
L15.1856 -16.1715
L14.849 -16.5318
L14.5188 -16.898
L14.1952 -17.2701
L13.8783 -17.6478
L13.568 -18.0312
L13.2646 -18.42
L12.9682 -18.8141
L12.6787 -19.2136
L12.3964 -19.6181
L12.1212 -20.0276
L11.8533 -20.442
L11.5928 -20.8611
L11.3397 -21.2848
L11.0941 -21.713
L10.8561 -22.1456
L10.6258 -22.5823
L10.4031 -23.0232
L10.1883 -23.468
L9.98137 -23.9166
L9.78235 -24.369
L9.5913 -24.8248
L9.40831 -25.2841
L9.23341 -25.7466
L9.06667 -26.2123
L8.90813 -26.6809
L8.75784 -27.1524
L8.61586 -27.6265
L8.48221 -28.1032
L8.35695 -28.5824
L8.2401 -29.0638
L8.13171 -29.5472
L8.03181 -30.0327
L7.94043 -30.52
L7.8576 -31.0089
L7.78334 -31.4994
L7.71768 -31.9912
L7.66063 -32.4843
L7.61221 -32.9784
L7.57244 -33.4735
L7.54133 -33.9693
L7.51889 -34.4657
L7.50512 -34.9626
L7.50003 -35.4599
L7.50363 -35.9572
L7.5159 -36.4546
L7.53685 -36.9519
L7.56647 -37.4489
L7.60476 -37.9454
L7.65169 -38.4413
L7.70726 -38.9365
L7.77144 -39.4308
L7.84423 -39.9241
L7.92559 -40.4162
L8.0155 -40.9069
L8.11394 -41.3961
L8.22087 -41.8837
L8.33626 -42.3694
L8.46008 -42.8533
L8.59229 -43.335
L8.73285 -43.8146
L8.88171 -44.2917
L9.03883 -44.7663
L9.20417 -45.2383
L9.37767 -45.7074
L9.55928 -46.1736
L9.74894 -46.6366
L9.9466 -47.0965
L10.1522 -47.5529
L10.3657 -48.0059
L10.5869 -48.4551
L10.816 -48.9006
L11.0526 -49.3422
L11.2969 -49.7797
L11.5487 -50.213
L11.808 -50.6419
L12.0746 -51.0664
L12.3485 -51.4863
L12.6297 -51.9015
L12.9179 -52.3119
L13.2132 -52.7173
L13.5154 -53.1176
L13.8245 -53.5126
L14.1403 -53.9024
L14.4628 -54.2867
L14.7918 -54.6654
L15.1273 -55.0384
L15.4691 -55.4057
L15.8173 -55.767
L16.1715 -56.1223
L16.5318 -56.4715
L16.898 -56.8144
L17.2701 -57.151
L17.6478 -57.4812
L18.0312 -57.8048
L18.42 -58.1217
L18.8141 -58.432
L19.2136 -58.7354
L19.6181 -59.0318
L20.0276 -59.3213
L20.442 -59.6036
L20.8611 -59.8788
L21.2848 -60.1467
L21.713 -60.4072
L22.1456 -60.6603
L22.5823 -60.9059
L23.0232 -61.1439
L23.468 -61.3742
L23.9166 -61.5969
L24.369 -61.8117
L24.8248 -62.0186
L25.2841 -62.2177
L25.7466 -62.4087
L26.2123 -62.5917
L26.6809 -62.7666
L27.1524 -62.9333
L27.6265 -63.0919
L28.1032 -63.2422
L28.5824 -63.3841
L29.0638 -63.5178
z
" id="C0_2_1599d14011"/>
    </defs>
    <g clip-path="url(#p1bffca34e9)">
     <use style="fill:#ff0000;stroke:#000000;stroke-width:2.0;" x="0.0" xlink:href="#C0_0_a811fe30f3" y="72.0"/>
    </g>
    <g clip-path="url(#p1bffca34e9)">
     <use style="fill:#ffffff;stroke:#000000;stroke-width:2.0;" x="0.0" xlink:href="#C0_1_3dcd164f5a" y="72.0"/>
    </g>
    <g clip-path="url(#p1bffca34e9)">
     <use style="fill:#ffffff;stroke:#000000;stroke-width:2.0;" x="0.0" xlink:href="#C0_2_1599d14011" y="72.0"/>
    </g>
   </g>
  </g>
 </g>
 <defs>
  <clipPath id="p1bffca34e9">
   <rect height="72.0" width="72.0" x="0.0" y="0.0"/>
  </clipPath>
 </defs>
</svg>
