<?xml version="1.0" encoding="utf-8" standalone="no"?>
<!DOCTYPE svg PUBLIC "-//W3C//DTD SVG 1.1//EN"
  "http://www.w3.org/Graphics/SVG/1.1/DTD/svg11.dtd">
<!-- Created with matplotlib (http://matplotlib.org/) -->
<svg height="72pt" version="1.1" viewBox="0 0 72 72" width="72pt" xmlns="http://www.w3.org/2000/svg" xmlns:xlink="http://www.w3.org/1999/xlink">
 <defs>
  <style type="text/css">
*{stroke-linecap:butt;stroke-linejoin:round;}
  </style>
 </defs>
 <g id="figure_1">
  <g id="patch_1">
   <path d="
M0 72
L72 72
L72 0
L0 0
z
" style="fill:none;"/>
  </g>
  <g id="axes_1">
   <g id="PatchCollection_1">
    <defs>
     <path d="
M36 -7.5
C43.5583 -7.5 50.808 -10.5029 56.1525 -15.8475
C61.4971 -21.192 64.5 -28.4417 64.5 -36
C64.5 -43.5583 61.4971 -50.808 56.1525 -56.1525
C50.808 -61.4971 43.5583 -64.5 36 -64.5
C28.4417 -64.5 21.192 -61.4971 15.8475 -56.1525
C10.5029 -50.808 7.5 -43.5583 7.5 -36
C7.5 -28.4417 10.5029 -21.192 15.8475 -15.8475
C21.192 -10.5029 28.4417 -7.5 36 -7.5
z
" id="C0_0_a811fe30f3"/>
     <path d="
M11.8979 -20.9762
L11.908 -21.3236
L11.9359 -21.6587
L11.9812 -21.9807
L12.0439 -22.2891
L12.1236 -22.5836
L12.2199 -22.864
L12.3324 -23.1301
L12.4605 -23.3819
L12.6036 -23.6197
L12.7611 -23.8435
L12.9324 -24.0539
L13.1167 -24.2513
L13.3132 -24.4362
L13.5213 -24.6092
L13.7403 -24.7709
L13.9692 -24.9221
L14.2075 -25.0634
L14.4544 -25.1955
L14.7091 -25.3191
L14.9711 -25.4349
L15.2396 -25.5434
L15.5141 -25.6454
L15.794 -25.7414
L16.0787 -25.8319
L16.3676 -25.9174
L16.6603 -25.9985
L16.9564 -26.0756
L17.2554 -26.149
L17.5569 -26.2192
L17.8605 -26.2864
L18.1659 -26.351
L18.4727 -26.4133
L18.7807 -26.4735
L19.0896 -26.5318
L19.3991 -26.5886
L19.709 -26.6438
L20.019 -26.6978
L20.3291 -26.7506
L20.6389 -26.8025
L20.9484 -26.8534
L21.2573 -26.9036
L21.5656 -26.9531
L21.8731 -27.0021
L22.1797 -27.0506
L22.4853 -27.0986
L22.7898 -27.1462
L23.0932 -27.1936
L23.3954 -27.2407
L23.6963 -27.2876
L23.9959 -27.3343
L24.294 -27.3809
L24.5908 -27.4273
L24.8862 -27.4737
L25.18 -27.5201
L25.4724 -27.5664
L25.7634 -27.6127
L26.0528 -27.6591
L26.3407 -27.7054
L26.6271 -27.7518
L26.9121 -27.7983
L27.1956 -27.8449
L27.4776 -27.8915
L27.7581 -27.9383
L28.0373 -27.9851
L28.315 -28.0321
L28.5914 -28.0792
L28.8664 -28.1264
L29.1401 -28.1738
L29.4125 -28.2213
L29.6837 -28.269
L29.9536 -28.3168
L30.2224 -28.3649
L30.49 -28.4131
L30.7565 -28.4615
L31.022 -28.5101
L31.2864 -28.5589
L31.5498 -28.6079
L31.8123 -28.6571
L32.0739 -28.7066
L32.3347 -28.7563
L32.5947 -28.8062
L32.8538 -28.8564
L33.1123 -28.9068
L33.3701 -28.9575
L33.6273 -29.0085
L33.8839 -29.0598
L34.14 -29.1113
L34.3956 -29.1632
L34.6508 -29.2153
L34.9056 -29.2678
L35.16 -29.3206
L35.4142 -29.3737
L35.6681 -29.4272
L35.9218 -29.481
L36.4289 -29.5352
L36.6824 -29.5898
L36.9359 -29.6447
L37.1894 -29.7001
L37.443 -29.7558
L37.6967 -29.812
L37.9507 -29.8686
L38.2049 -29.9256
L38.4594 -29.9831
L38.7143 -30.0411
L38.9695 -30.0995
L39.2252 -30.1584
L39.4813 -30.2178
L39.738 -30.2777
L39.9953 -30.3382
L40.2532 -30.3991
L40.5118 -30.4607
L40.7711 -30.5227
L41.0311 -30.5854
L41.292 -30.6486
L41.5537 -30.7124
L41.8163 -30.7768
L42.0798 -30.8419
L42.3444 -30.9075
L42.6099 -30.9738
L42.8765 -31.0408
L43.1442 -31.1083
L43.4131 -31.1766
L43.6831 -31.2455
L43.9543 -31.3152
L44.2268 -31.3855
L44.5006 -31.4565
L44.7756 -31.5282
L45.052 -31.6006
L45.3298 -31.6737
L45.609 -31.7475
L45.8895 -31.822
L46.1715 -31.8973
L46.455 -31.9732
L46.7399 -32.0499
L47.0263 -32.1272
L47.3142 -32.2052
L47.6036 -32.2838
L47.8944 -32.3631
L48.1868 -32.443
L48.4806 -32.5235
L48.7759 -32.6045
L49.0727 -32.6861
L49.3709 -32.7682
L49.6705 -32.8506
L49.9715 -32.9335
L50.2738 -33.0167
L50.5774 -33.1001
L50.8823 -33.1836
L51.1883 -33.2673
L51.4954 -33.3509
L51.8036 -33.4343
L52.1127 -33.5175
L52.4228 -33.6003
L52.7335 -33.6824
L53.045 -33.7639
L53.357 -33.8444
L53.6694 -33.9238
L53.9821 -34.0017
L54.2949 -34.078
L54.6078 -34.1524
L54.9204 -34.2246
L55.2326 -34.2942
L55.5443 -34.3608
L55.8552 -34.424
L56.1651 -34.4834
L56.4738 -34.5385
L56.781 -34.5888
L57.0866 -34.6337
L57.3901 -34.6727
L57.6913 -34.7049
L57.99 -34.7298
L58.2857 -34.7466
L58.5782 -34.7546
L58.8672 -34.7528
L59.1522 -34.7405
L59.433 -34.7169
L59.709 -34.6809
L59.9799 -34.6318
L60.2453 -34.5687
L60.5048 -34.4906
L60.758 -34.3969
L61.0043 -34.2867
L61.2433 -34.1595
L61.4747 -34.0145
L61.698 -33.8513
L61.9126 -33.6697
L62.1183 -33.4694
L62.3145 -33.2502
L62.5009 -33.0124
L62.6772 -32.756
L62.8429 -32.4815
L62.9977 -32.1893
L63.1413 -31.88
L63.2735 -31.5542
L63.394 -31.2128
L63.5026 -30.8564
L63.5992 -30.4861
L63.6834 -30.1028
L63.6766 -29.7073
L63.5537 -29.1987
L63.4224 -28.7167
L63.2827 -28.237
L63.1347 -27.7596
L62.9785 -27.2847
L62.814 -26.8124
L62.6414 -26.343
L62.4607 -25.8765
L62.2719 -25.4131
L62.0751 -24.9529
L61.8703 -24.4961
L61.6577 -24.0428
L61.4373 -23.5931
L61.2091 -23.1472
L60.9732 -22.7052
L60.7297 -22.2673
L60.4787 -21.8335
L60.2203 -21.4041
L59.9544 -20.9791
L59.6813 -20.5587
L59.401 -20.143
L59.1135 -19.7321
L58.819 -19.3261
L58.5175 -18.9253
L58.2092 -18.5297
L57.8941 -18.1393
L57.5723 -17.7544
L57.244 -17.3751
L56.9092 -17.0015
L56.568 -16.6336
L56.2205 -16.2716
L55.8669 -15.9157
L55.5073 -15.5658
L55.1417 -15.2222
L54.7703 -14.885
L54.3931 -14.5541
L54.0104 -14.2298
L53.6222 -13.9121
L53.2286 -13.6011
L52.8297 -13.297
L52.4257 -12.9998
L52.0168 -12.7096
L51.6029 -12.4264
L51.1843 -12.1505
L50.7611 -11.8818
L50.3333 -11.6205
L49.9012 -11.3666
L49.4649 -11.1202
L49.0245 -10.8814
L48.5801 -10.6502
L48.1319 -10.4267
L47.6799 -10.2111
L47.2244 -10.0033
L46.7655 -9.8034
L46.3034 -9.6115
L45.838 -9.42763
L45.3697 -9.25186
L44.8985 -9.08424
L44.4247 -8.92481
L43.9482 -8.77363
L43.4693 -8.63075
L42.9882 -8.4962
L42.5049 -8.37003
L42.0197 -8.25228
L41.5326 -8.14298
L41.0438 -8.04217
L40.5535 -7.94987
L40.0618 -7.86611
L39.5689 -7.79093
L39.0748 -7.72434
L38.5799 -7.66636
L38.0841 -7.61701
L37.5878 -7.57631
L37.0909 -7.54426
L36.5937 -7.52089
L36.0963 -7.50618
L35.5989 -7.50016
L35.1016 -7.50282
L34.6046 -7.51416
L34.108 -7.53418
L33.612 -7.56287
L33.1168 -7.60022
L32.6224 -7.64622
L32.129 -7.70086
L31.6368 -7.76411
L31.1459 -7.83597
L30.6565 -7.91641
L30.1688 -8.0054
L29.6828 -8.10292
L29.1987 -8.20894
L28.7167 -8.32343
L28.237 -8.44634
L27.7596 -8.57765
L27.2847 -8.71731
L26.8124 -8.86528
L26.343 -9.02151
L25.8765 -9.18597
L25.4131 -9.35859
L24.9529 -9.53933
L24.4961 -9.72812
L24.0428 -9.92492
L23.5931 -10.1297
L23.1472 -10.3423
L22.7052 -10.5627
L22.2673 -10.7909
L21.8335 -11.0268
L21.4041 -11.2703
L20.9791 -11.5213
L20.5587 -11.7797
L20.143 -12.0456
L19.7321 -12.3187
L19.3261 -12.599
L18.9253 -12.8865
L18.5297 -13.181
L18.1393 -13.4825
L17.7544 -13.7908
L17.3751 -14.1059
L17.0015 -14.4277
L16.6336 -14.756
L16.2716 -15.0908
L15.9157 -15.432
L15.5658 -15.7795
L15.2222 -16.1331
L14.885 -16.4927
L14.5541 -16.8583
L14.2298 -17.2297
L13.9121 -17.6069
L13.6011 -17.9896
L13.297 -18.3778
L12.9998 -18.7714
L12.7096 -19.1703
L12.4264 -19.5743
L12.1505 -19.9832
z
" id="C0_1_a88b59d7d2"/>
     <path d="
M8.34669 -42.6748
L8.59502 -43.0115
L8.84675 -43.3507
L9.10189 -43.6917
L9.36044 -44.0336
L9.62235 -44.3756
L9.88758 -44.7171
L10.156 -45.0575
L10.4277 -45.3961
L10.7023 -45.7325
L10.9799 -46.0663
L11.2602 -46.3969
L11.5432 -46.724
L11.8288 -47.0473
L12.1167 -47.3665
L12.4068 -47.6813
L12.699 -47.9916
L12.9931 -48.2971
L13.2889 -48.5976
L13.5864 -48.8931
L13.8854 -49.1835
L14.1858 -49.4686
L14.4873 -49.7483
L14.7899 -50.0227
L15.0935 -50.2917
L15.3978 -50.5553
L15.7029 -50.8134
L16.0087 -51.0662
L16.3149 -51.3136
L16.6215 -51.5556
L16.9285 -51.7923
L17.2357 -52.0237
L17.543 -52.2499
L17.8505 -52.4709
L18.158 -52.6869
L18.4654 -52.8978
L18.7728 -53.1037
L19.08 -53.3047
L19.3871 -53.5009
L19.6939 -53.6924
L20.0005 -53.8792
L20.3069 -54.0614
L20.6129 -54.239
L20.9186 -54.4122
L21.224 -54.5811
L21.529 -54.7457
L21.8337 -54.906
L22.1381 -55.0623
L22.4421 -55.2144
L22.7457 -55.3626
L23.049 -55.5068
L23.352 -55.6472
L23.6546 -55.7839
L23.957 -55.9168
L24.259 -56.046
L24.5608 -56.1717
L24.8623 -56.2938
L25.1636 -56.4125
L25.4647 -56.5277
L25.7656 -56.6396
L26.0664 -56.7482
L26.3671 -56.8535
L26.6676 -56.9556
L26.9682 -57.0545
L27.2687 -57.1503
L27.5692 -57.2431
L27.8698 -57.3327
L28.1705 -57.4194
L28.4713 -57.5031
L28.7723 -57.5838
L29.0736 -57.6617
L29.3751 -57.7366
L29.6769 -57.8087
L29.979 -57.8779
L30.2816 -57.9442
L30.5845 -58.0078
L30.888 -58.0686
L31.192 -58.1266
L31.4966 -58.1818
L31.8018 -58.2342
L32.1077 -58.2839
L32.4143 -58.3308
L32.7216 -58.3749
L33.0298 -58.4163
L33.3389 -58.4549
L33.6489 -58.4908
L33.9598 -58.5238
L34.2718 -58.554
L34.5848 -58.5814
L34.8989 -58.606
L35.2142 -58.6277
L35.5307 -58.6466
L35.8484 -58.6625
L36.1675 -58.6756
L36.4879 -58.6856
L36.8097 -58.6927
L37.1329 -58.6967
L37.4576 -58.6976
L37.7839 -58.6955
L38.1117 -58.6902
L38.4412 -58.6817
L38.7723 -58.6699
L39.1051 -58.6549
L39.4396 -58.6365
L39.7759 -58.6147
L40.1139 -58.5894
L40.4539 -58.5606
L40.7956 -58.5282
L41.1393 -58.4922
L41.4848 -58.4524
L41.8323 -58.4089
L42.1817 -58.3615
L42.5331 -58.3102
L42.8865 -58.2548
L43.2418 -58.1954
L43.5991 -58.1319
L43.9583 -58.0641
L44.3195 -57.992
L44.6827 -57.9155
L45.0477 -57.8346
L45.4147 -57.7492
L45.7836 -57.6591
L46.1542 -57.5644
L46.5266 -57.465
L46.9008 -57.3607
L47.2766 -57.2516
L47.654 -57.1376
L48.0329 -57.0186
L48.4133 -56.8946
L48.7949 -56.7656
L49.1778 -56.6316
L49.5617 -56.4925
L49.9467 -56.3483
L50.3324 -56.1991
L50.7188 -56.0449
L51.1058 -55.8858
L51.493 -55.7217
L51.8804 -55.5529
L52.2678 -55.3795
L52.6549 -55.2015
L53.0416 -55.0192
L53.4276 -54.8328
L53.8126 -54.6425
L54.1964 -54.4487
L54.5788 -54.2516
L54.9595 -54.0517
L55.3382 -53.8493
L55.7146 -53.645
L56.0884 -53.4393
L56.4594 -53.2327
L56.8273 -53.0259
L57.1917 -52.8197
L57.5523 -52.6147
L57.909 -52.4118
L58.2613 -52.2119
L58.609 -52.0158
L58.9519 -51.8246
L59.2896 -51.6392
L59.622 -51.4607
L59.7503 -51.29
L59.4718 -51.7535
L59.1861 -52.1656
L58.8933 -52.5728
L58.5936 -52.9749
L58.2869 -53.3719
L57.9735 -53.7635
L57.6534 -54.1498
L57.3267 -54.5305
L56.9935 -54.9056
L56.6539 -55.2749
L56.3081 -55.6384
L55.956 -55.9958
L55.5978 -56.3472
L55.2337 -56.6924
L54.8637 -57.0313
L54.488 -57.3637
L54.1067 -57.6897
L53.7198 -58.0091
L53.3275 -58.3217
L52.93 -58.6276
L52.5273 -58.9265
L52.1196 -59.2185
L51.7069 -59.5034
L51.2895 -59.7812
L50.8674 -60.0517
L50.4408 -60.3148
L50.0098 -60.5706
L49.5745 -60.8189
L49.1351 -61.0596
L48.6916 -61.2927
L48.2444 -61.5181
L47.7933 -61.7357
L47.3387 -61.9455
L46.8807 -62.1473
L46.4193 -62.3412
L45.9547 -62.5271
L45.4872 -62.7049
L45.0167 -62.8746
L44.5435 -63.0361
L44.0677 -63.1893
L43.5894 -63.3343
L43.1088 -63.4709
L42.626 -63.5992
L42.1413 -63.719
L41.6546 -63.8305
L41.1662 -63.9334
L40.6763 -64.0278
L40.1849 -64.1137
L39.6923 -64.1911
L39.1985 -64.2598
L38.7038 -64.3199
L38.2082 -64.3715
L37.712 -64.4143
L37.2152 -64.4485
L36.7181 -64.4741
L36.2208 -64.491
L35.7234 -64.4991
L35.226 -64.4987
L34.7289 -64.4895
L34.2322 -64.4716
L33.7361 -64.4451
L33.2406 -64.4099
L32.746 -64.3661
L32.2523 -64.3136
L31.7598 -64.2525
L31.2686 -64.1828
L30.7788 -64.1045
L30.2906 -64.0177
L29.8042 -63.9223
L29.3197 -63.8184
L28.8371 -63.706
L28.3568 -63.5852
L27.8788 -63.456
L27.4033 -63.3184
L26.9303 -63.1725
L26.4602 -63.0183
L25.9929 -62.8559
L25.5287 -62.6854
L25.0677 -62.5067
L24.61 -62.3199
L24.1558 -62.1251
L23.7052 -61.9223
L23.2584 -61.7116
L22.8154 -61.4932
L22.3764 -61.2669
L21.9416 -61.0329
L21.5111 -60.7914
L21.085 -60.5422
L20.6634 -60.2856
L20.2465 -60.0216
L19.8344 -59.7503
L19.4272 -59.4718
L19.0251 -59.1861
L18.6281 -58.8933
L18.2365 -58.5936
L17.8502 -58.2869
L17.4695 -57.9735
L17.0944 -57.6534
L16.7251 -57.3267
L16.3616 -56.9935
L16.0042 -56.6539
L15.6528 -56.3081
L15.3076 -55.956
L14.9687 -55.5978
L14.6363 -55.2337
L14.3103 -54.8637
L13.9909 -54.488
L13.6783 -54.1067
L13.3724 -53.7198
L13.0735 -53.3275
L12.7815 -52.93
L12.4966 -52.5273
L12.2188 -52.1196
L11.9483 -51.7069
L11.6852 -51.2895
L11.4294 -50.8674
L11.1811 -50.4408
L10.9404 -50.0098
L10.7073 -49.5745
L10.4819 -49.1351
L10.2643 -48.6916
L10.0545 -48.2444
L9.85266 -47.7933
L9.65876 -47.3387
L9.47288 -46.8807
L9.29507 -46.4193
L9.12541 -45.9547
L8.96393 -45.4872
L8.81068 -45.0167
L8.66572 -44.5435
L8.52908 -44.0677
z
" id="C0_2_480c09dbd2"/>
    </defs>
    <g clip-path="url(#p1bffca34e9)">
     <use style="fill:#ff0000;stroke:#000000;stroke-width:2.0;" x="0.0" xlink:href="#C0_0_a811fe30f3" y="72.0"/>
    </g>
    <g clip-path="url(#p1bffca34e9)">
     <use style="fill:#ffffff;stroke:#000000;stroke-width:2.0;" x="0.0" xlink:href="#C0_1_a88b59d7d2" y="72.0"/>
    </g>
    <g clip-path="url(#p1bffca34e9)">
     <use style="fill:#ffffff;stroke:#000000;stroke-width:2.0;" x="0.0" xlink:href="#C0_2_480c09dbd2" y="72.0"/>
    </g>
   </g>
  </g>
 </g>
 <defs>
  <clipPath id="p1bffca34e9">
   <rect height="72.0" width="72.0" x="0.0" y="0.0"/>
  </clipPath>
 </defs>
</svg>
