<?xml version="1.0" encoding="utf-8" standalone="no"?>
<!DOCTYPE svg PUBLIC "-//W3C//DTD SVG 1.1//EN"
  "http://www.w3.org/Graphics/SVG/1.1/DTD/svg11.dtd">
<!-- Created with matplotlib (http://matplotlib.org/) -->
<svg height="72pt" version="1.1" viewBox="0 0 72 72" width="72pt" xmlns="http://www.w3.org/2000/svg" xmlns:xlink="http://www.w3.org/1999/xlink">
 <defs>
  <style type="text/css">
*{stroke-linecap:butt;stroke-linejoin:round;}
  </style>
 </defs>
 <g id="figure_1">
  <g id="patch_1">
   <path d="
M0 72
L72 72
L72 0
L0 0
z
" style="fill:none;"/>
  </g>
  <g id="axes_1">
   <g id="PatchCollection_1">
    <defs>
     <path d="
M36 -7.5
C43.5583 -7.5 50.808 -10.5029 56.1525 -15.8475
C61.4971 -21.192 64.5 -28.4417 64.5 -36
C64.5 -43.5583 61.4971 -50.808 56.1525 -56.1525
C50.808 -61.4971 43.5583 -64.5 36 -64.5
C28.4417 -64.5 21.192 -61.4971 15.8475 -56.1525
C10.5029 -50.808 7.5 -43.5583 7.5 -36
C7.5 -28.4417 10.5029 -21.192 15.8475 -15.8475
C21.192 -10.5029 28.4417 -7.5 36 -7.5
z
" id="C0_0_a811fe30f3"/>
     <path d="
M59.4059 -52.07
L59.1836 -51.9818
L58.9679 -51.8784
L58.7583 -51.7604
L58.5549 -51.6286
L58.3572 -51.4837
L58.1649 -51.3263
L57.9778 -51.1574
L57.7955 -50.9775
L57.6177 -50.7874
L57.444 -50.5879
L57.274 -50.3797
L57.1076 -50.1634
L56.9442 -49.9398
L56.7837 -49.7094
L56.6257 -49.473
L56.4699 -49.2309
L56.3162 -48.9839
L56.1642 -48.7325
L56.0138 -48.4771
L55.8647 -48.2182
L55.7167 -47.9562
L55.5698 -47.6916
L55.4237 -47.4247
L55.2783 -47.1559
L55.1336 -46.8856
L54.9893 -46.6139
L54.8454 -46.3413
L54.7018 -46.0679
L54.5584 -45.7941
L54.4153 -45.52
L54.2722 -45.2458
L54.1293 -44.9717
L53.9864 -44.6979
L53.8434 -44.4246
L53.7005 -44.1518
L53.5575 -43.8798
L53.4145 -43.6085
L53.2713 -43.3382
L53.1281 -43.0689
L52.9847 -42.8006
L52.8413 -42.5336
L52.6977 -42.2677
L52.5539 -42.0031
L52.4101 -41.7398
L52.2661 -41.4779
L52.1219 -41.2174
L51.9776 -40.9583
L51.8332 -40.7006
L51.6885 -40.4444
L51.5438 -40.1896
L51.3988 -39.9362
L51.2537 -39.6844
L51.1085 -39.434
L50.963 -39.185
L50.8174 -38.9375
L50.6716 -38.6915
L50.5256 -38.4468
L50.3794 -38.2036
L50.233 -37.9617
L50.0863 -37.7212
L49.9395 -37.482
L49.7924 -37.2442
L49.6451 -37.0076
L49.4975 -36.7723
L49.3496 -36.5382
L49.2015 -36.3053
L49.0531 -36.0735
L48.9044 -35.843
L48.7553 -35.6135
L48.6059 -35.385
L48.4562 -35.1576
L48.3061 -34.9312
L48.1556 -34.7058
L48.0047 -34.4813
L47.8534 -34.2576
L47.7016 -34.0349
L47.5494 -33.8129
L47.3966 -33.5918
L47.2434 -33.3713
L47.0897 -33.1516
L46.9353 -32.9326
L46.7805 -32.7141
L46.625 -32.4963
L46.4689 -32.2791
L46.3122 -32.0623
L45.9967 -31.8461
L45.8378 -31.6303
L45.6783 -31.4149
L45.5179 -31.1998
L45.3568 -30.9852
L45.1948 -30.7708
L45.032 -30.5567
L44.8683 -30.3429
L44.7036 -30.1292
L44.5381 -29.9157
L44.3715 -29.7023
L44.204 -29.4891
L44.0355 -29.2759
L43.8659 -29.0627
L43.6952 -28.8496
L43.5233 -28.6364
L43.3504 -28.4231
L43.1763 -28.2098
L43.0009 -27.9963
L42.8244 -27.7827
L42.6466 -27.5689
L42.4674 -27.3549
L42.287 -27.1406
L42.1053 -26.9261
L41.9221 -26.7113
L41.7376 -26.4962
L41.5516 -26.2807
L41.3643 -26.0649
L41.1754 -25.8487
L40.985 -25.6321
L40.7932 -25.4151
L40.5998 -25.1976
L40.4049 -24.9797
L40.2084 -24.7613
L40.0103 -24.5424
L39.8107 -24.3229
L39.6095 -24.103
L39.4067 -23.8825
L39.2022 -23.6615
L38.9962 -23.4399
L38.7887 -23.2178
L38.5795 -22.9951
L38.3688 -22.7718
L38.1565 -22.548
L37.9428 -22.3236
L37.7275 -22.0986
L37.5109 -21.873
L37.2928 -21.6468
L37.0734 -21.4201
L36.8527 -21.1929
L36.6308 -20.965
L36.4078 -20.7367
L36.1838 -20.5077
L35.9589 -20.2783
L35.7331 -20.0484
L35.5067 -19.8179
L35.2797 -19.587
L35.0524 -19.3555
L34.8249 -19.1236
L34.5974 -18.8913
L34.3701 -18.6585
L34.1432 -18.4253
L33.9171 -18.1916
L33.6919 -17.9575
L33.468 -17.723
L33.2457 -17.4881
L33.0253 -17.2527
L32.8072 -17.017
L32.5919 -16.7807
L32.3797 -16.544
L32.1712 -16.3069
L31.9667 -16.0692
L31.7669 -15.8309
L31.5723 -15.5921
L31.3834 -15.3526
L31.2009 -15.1125
L31.0254 -14.8716
L30.8575 -14.6298
L30.698 -14.3872
L30.5475 -14.1437
L30.4066 -13.8991
L30.2763 -13.6535
L30.157 -13.4067
L30.0495 -13.1587
L29.9546 -12.9094
L29.8728 -12.6589
L29.8048 -12.407
L29.7512 -12.1539
L29.7124 -11.8996
L29.6891 -11.644
L29.6815 -11.3873
L29.6902 -11.1297
L29.7152 -10.8712
L29.7569 -10.612
L29.8154 -10.3524
L29.8907 -10.0926
L29.9829 -9.83294
L30.0918 -9.57366
L30.2173 -9.31511
L30.3593 -9.05767
L30.5174 -8.80169
L30.6914 -8.54757
L30.881 -8.2957
L31.3563 -8.04649
L31.8478 -7.88086
L32.3405 -7.8041
L32.8343 -7.73593
L33.3291 -7.67636
L33.8247 -7.62543
L34.321 -7.58314
L34.8178 -7.5495
L35.3149 -7.52453
L35.8123 -7.50824
L36.3097 -7.50062
L36.807 -7.50168
L37.3041 -7.51143
L37.8007 -7.52985
L38.2969 -7.55695
L38.7923 -7.59271
L39.2869 -7.63712
L39.7804 -7.69017
L40.2729 -7.75185
L40.764 -7.82213
L41.2537 -7.90099
L41.7417 -7.98841
L42.2281 -8.08437
L42.7125 -8.18883
L43.1949 -8.30176
L43.675 -8.42312
L44.1529 -8.55289
L44.6283 -8.69102
L45.101 -8.83747
L45.571 -8.99219
L46.038 -9.15514
L46.502 -9.32626
L46.9628 -9.50551
L47.4202 -9.69283
L47.8742 -9.88816
L48.3246 -10.0915
L48.7712 -10.3026
L49.2139 -10.5216
L49.6526 -10.7484
L50.0871 -10.9829
L50.5174 -11.2249
L50.9432 -11.4746
L51.3644 -11.7317
L51.781 -11.9962
L52.1928 -12.268
L52.5996 -12.547
L53.0014 -12.8332
L53.398 -13.1264
L53.7894 -13.4266
L54.1752 -13.7337
L54.5556 -14.0475
L54.9303 -14.3681
L55.2992 -14.6952
L55.6623 -15.0288
L56.0194 -15.3689
L56.3703 -15.7152
L56.7151 -16.0676
L57.0536 -16.4262
L57.3856 -16.7907
L57.7111 -17.161
L58.03 -17.5371
L58.3422 -17.9189
L58.6476 -18.3061
L58.9461 -18.6987
L59.2377 -19.0966
L59.5221 -19.4997
L59.7994 -19.9077
L60.0694 -20.3207
L60.3321 -20.7384
L60.5873 -21.1608
L60.8351 -21.5877
L61.0753 -22.019
L61.3079 -22.4546
L61.5328 -22.8943
L61.7499 -23.338
L61.9591 -23.7855
L62.1605 -24.2368
L62.3538 -24.6916
L62.5392 -25.1499
L62.7165 -25.6115
L62.8856 -26.0762
L63.0465 -26.544
L63.1992 -27.0147
L63.3436 -27.4881
L63.4797 -27.9641
L63.6074 -28.4425
L63.7267 -28.9232
L63.8376 -29.4061
L63.9399 -29.891
L64.0338 -30.3778
L64.1191 -30.8663
L64.1959 -31.3563
L64.2641 -31.8478
L64.3236 -32.3405
L64.3746 -32.8343
L64.4169 -33.3291
L64.4505 -33.8247
L64.4755 -34.321
L64.4918 -34.8178
L64.4994 -35.3149
L64.4983 -35.8123
L64.4886 -36.3097
L64.4701 -36.807
L64.4431 -37.3041
L64.4073 -37.8007
L64.3629 -38.2969
L64.3098 -38.7923
L64.2482 -39.2869
L64.1779 -39.7804
L64.099 -40.2729
L64.0116 -40.764
L63.9156 -41.2537
L63.8112 -41.7417
L63.6982 -42.2281
L63.5769 -42.7125
L63.4471 -43.1949
L63.309 -43.675
L63.1625 -44.1529
L63.0078 -44.6283
L62.8449 -45.101
L62.6737 -45.571
L62.4945 -46.038
L62.3072 -46.502
L62.1118 -46.9628
L61.9085 -47.4202
L61.6974 -47.8742
L61.4784 -48.3246
L61.2516 -48.7712
L61.0171 -49.2139
L60.7751 -49.6526
L60.5254 -50.0871
L60.2683 -50.5174
L60.0038 -50.9432
z
" id="C0_1_03185ad623"/>
     <path d="
M40.8714 -63.9535
L40.5876 -63.7929
L40.2978 -63.6318
L40.0027 -63.4701
L39.7029 -63.3075
L39.3992 -63.1438
L39.0921 -62.9789
L38.7824 -62.8126
L38.4704 -62.6449
L38.1568 -62.4755
L37.842 -62.3045
L37.5265 -62.1318
L37.2108 -61.9572
L36.8951 -61.7809
L36.5799 -61.6027
L36.2654 -61.4227
L35.9521 -61.2408
L35.6401 -61.0571
L35.3297 -60.8717
L35.0212 -60.6844
L34.7146 -60.4955
L34.4103 -60.3048
L34.1083 -60.1125
L33.8088 -59.9186
L33.512 -59.7231
L33.2179 -59.5262
L32.9266 -59.3278
L32.6382 -59.128
L32.3528 -58.9269
L32.0704 -58.7245
L31.7911 -58.5208
L31.5148 -58.316
L31.2418 -58.1101
L30.9718 -57.9031
L30.705 -57.695
L30.4414 -57.4859
L30.1809 -57.2759
L29.9236 -57.065
L29.6694 -56.8533
L29.4183 -56.6406
L29.1703 -56.4272
L28.9254 -56.213
L28.6835 -55.998
L28.4446 -55.7824
L28.2087 -55.566
L27.9757 -55.3489
L27.7457 -55.1311
L27.5185 -54.9127
L27.2941 -54.6937
L27.0724 -54.474
L26.8535 -54.2537
L26.6373 -54.0328
L26.4238 -53.8112
L26.2128 -53.589
L26.0044 -53.3662
L25.7985 -53.1428
L25.5951 -52.9187
L25.394 -52.6941
L25.1954 -52.4687
L24.9991 -52.2427
L24.8051 -52.016
L24.6133 -51.7887
L24.4237 -51.5606
L24.2363 -51.3319
L24.051 -51.1023
L23.8678 -50.8721
L23.6867 -50.641
L23.5075 -50.4091
L23.3303 -50.1764
L23.155 -49.9429
L22.9817 -49.7085
L22.8101 -49.4731
L22.6404 -49.2368
L22.4725 -48.9996
L22.3064 -48.7613
L22.142 -48.522
L21.9793 -48.2817
L21.8182 -48.0402
L21.6589 -47.7976
L21.5011 -47.5539
L21.3449 -47.3089
L21.1903 -47.0626
L21.0373 -46.8151
L20.8858 -46.5663
L20.7358 -46.316
L20.5872 -46.0644
L20.4402 -45.8113
L20.2946 -45.5568
L20.1505 -45.3006
L20.0079 -45.043
L19.8666 -44.7837
L19.7268 -44.5227
L19.5883 -44.26
L19.4513 -43.9956
L19.3157 -43.7294
L19.1814 -43.4613
L19.0486 -43.1913
L18.9171 -42.9194
L18.787 -42.6456
L18.6584 -42.3697
L18.5311 -42.0918
L18.4052 -41.8117
L18.2807 -41.5296
L18.1577 -41.2452
L18.036 -40.9586
L17.9159 -40.6697
L17.7971 -40.3785
L17.6799 -40.085
L17.5641 -39.7891
L17.4498 -39.4908
L17.337 -39.1901
L17.2258 -38.8869
L17.1162 -38.5812
L17.0081 -38.2729
L16.9016 -37.9621
L16.7968 -37.6488
L16.6936 -37.3329
L16.5921 -37.0144
L16.4924 -36.6933
L16.3943 -36.3696
L16.2981 -36.0434
L16.2036 -35.7145
L16.1109 -35.3831
L16.0201 -35.0492
L15.9311 -34.7128
L15.8441 -34.3739
L15.7589 -34.0326
L15.6757 -33.6889
L15.5944 -33.3429
L15.515 -32.9947
L15.4376 -32.6444
L15.3622 -32.292
L15.2887 -31.9377
L15.2172 -31.5816
L15.1476 -31.2238
L15.0798 -30.8644
L15.0139 -30.5038
L14.9498 -30.1419
L14.8874 -29.7791
L14.8267 -29.4155
L14.7676 -29.0513
L14.7098 -28.6869
L14.6534 -28.3225
L14.5982 -27.9584
L14.544 -27.5949
L14.4906 -27.2323
L14.4378 -26.871
L14.3853 -26.5114
L14.3329 -26.1539
L14.2804 -25.7989
L14.2273 -25.4468
L14.1734 -25.0981
L14.1182 -24.7533
L14.0614 -24.413
L14.0026 -24.0775
L13.9412 -23.7474
L13.877 -23.4233
L13.8093 -23.1058
L13.7377 -22.7953
L13.6618 -22.4924
L13.581 -22.1977
L13.4948 -21.9117
L13.4029 -21.6349
L13.3047 -21.3679
L13.2 -21.1111
L13.0883 -20.8649
L12.9692 -20.6298
L12.8426 -20.4062
L12.7083 -20.1944
L12.1884 -19.9948
L11.9188 -20.3392
L11.6564 -20.7572
L11.4015 -21.1798
L11.154 -21.6069
L10.9141 -22.0384
L10.6819 -22.4741
L10.4574 -22.914
L10.2406 -23.3579
L10.0317 -23.8056
L9.83073 -24.257
L9.63771 -24.712
L9.45273 -25.1704
L9.27582 -25.6322
L9.10706 -26.097
L8.9465 -26.565
L8.79417 -27.0357
L8.65013 -27.5093
L8.51442 -27.9854
L8.38708 -28.4639
L8.26816 -28.9447
L8.15768 -29.4277
L8.05568 -29.9127
L7.9622 -30.3996
L7.87725 -30.8881
L7.80087 -31.3782
L7.73308 -31.8697
L7.67391 -32.3625
L7.62336 -32.8564
L7.58145 -33.3512
L7.5482 -33.8469
L7.52362 -34.3432
L7.50771 -34.84
L7.50048 -35.3371
L7.50193 -35.8345
L7.51207 -36.3319
L7.53088 -36.8292
L7.55836 -37.3263
L7.5945 -37.8229
L7.6393 -38.319
L7.69274 -38.8144
L7.7548 -39.3089
L7.82546 -39.8025
L7.90471 -40.2948
L7.99251 -40.7859
L8.08885 -41.2755
L8.19369 -41.7635
L8.30699 -42.2497
L8.42874 -42.7341
L8.55888 -43.2163
L8.69738 -43.6964
L8.8442 -44.1742
L8.99929 -44.6494
L9.1626 -45.122
L9.33409 -45.5919
L9.5137 -46.0588
L9.70138 -46.5226
L9.89707 -46.9833
L10.1007 -47.4406
L10.3122 -47.8944
L10.5316 -48.3446
L10.7587 -48.791
L10.9935 -49.2336
L11.2359 -49.6721
L11.4859 -50.1064
L11.7433 -50.5365
L12.0081 -50.9621
L12.2803 -51.3831
L12.5596 -51.7995
L12.8461 -52.2111
L13.1397 -52.6177
L13.4402 -53.0192
L13.7475 -53.4156
L14.0617 -53.8067
L14.3825 -54.1923
L14.71 -54.5724
L15.0439 -54.9469
L15.3842 -55.3156
L15.7308 -55.6784
L16.0835 -56.0352
L16.4423 -56.3859
L16.8071 -56.7303
L17.1777 -57.0685
L17.5541 -57.4003
L17.936 -57.7255
L18.3235 -58.0441
L18.7164 -58.356
L19.1145 -58.6611
L19.5178 -58.9593
L19.926 -59.2505
L20.3392 -59.5346
L20.7572 -59.8116
L21.1798 -60.0812
L21.6069 -60.3436
L22.0384 -60.5985
L22.4741 -60.846
L22.914 -61.0859
L23.3579 -61.3181
L23.8056 -61.5426
L24.257 -61.7594
L24.712 -61.9683
L25.1704 -62.1693
L25.6322 -62.3623
L26.097 -62.5473
L26.565 -62.7242
L27.0357 -62.8929
L27.5093 -63.0535
L27.9854 -63.2058
L28.4639 -63.3499
L28.9447 -63.4856
L29.4277 -63.6129
L29.9127 -63.7318
L30.3996 -63.8423
L30.8881 -63.9443
L31.3782 -64.0378
L31.8697 -64.1227
L32.3625 -64.1991
L32.8564 -64.2669
L33.3512 -64.3261
L33.8469 -64.3766
L34.3432 -64.4185
L34.84 -64.4518
L35.3371 -64.4764
L35.8345 -64.4923
L36.3319 -64.4995
L36.8292 -64.4981
L37.3263 -64.4879
L37.8229 -64.4691
L38.319 -64.4416
L38.8144 -64.4055
L39.3089 -64.3607
L39.8025 -64.3073
L40.2948 -64.2452
z
" id="C0_2_61c6de9bbb"/>
    </defs>
    <g clip-path="url(#p1bffca34e9)">
     <use style="fill:#ff0000;stroke:#000000;stroke-width:2.0;" x="0.0" xlink:href="#C0_0_a811fe30f3" y="72.0"/>
    </g>
    <g clip-path="url(#p1bffca34e9)">
     <use style="fill:#ffffff;stroke:#000000;stroke-width:2.0;" x="0.0" xlink:href="#C0_1_03185ad623" y="72.0"/>
    </g>
    <g clip-path="url(#p1bffca34e9)">
     <use style="fill:#ffffff;stroke:#000000;stroke-width:2.0;" x="0.0" xlink:href="#C0_2_61c6de9bbb" y="72.0"/>
    </g>
   </g>
  </g>
 </g>
 <defs>
  <clipPath id="p1bffca34e9">
   <rect height="72.0" width="72.0" x="0.0" y="0.0"/>
  </clipPath>
 </defs>
</svg>
