<?xml version="1.0" encoding="utf-8" standalone="no"?>
<!DOCTYPE svg PUBLIC "-//W3C//DTD SVG 1.1//EN"
  "http://www.w3.org/Graphics/SVG/1.1/DTD/svg11.dtd">
<!-- Created with matplotlib (http://matplotlib.org/) -->
<svg height="72pt" version="1.1" viewBox="0 0 72 72" width="72pt" xmlns="http://www.w3.org/2000/svg" xmlns:xlink="http://www.w3.org/1999/xlink">
 <defs>
  <style type="text/css">
*{stroke-linecap:butt;stroke-linejoin:round;}
  </style>
 </defs>
 <g id="figure_1">
  <g id="patch_1">
   <path d="
M0 72
L72 72
L72 0
L0 0
z
" style="fill:none;"/>
  </g>
  <g id="axes_1">
   <g id="PatchCollection_1">
    <defs>
     <path d="
M36 -7.5
C43.5583 -7.5 50.808 -10.5029 56.1525 -15.8475
C61.4971 -21.192 64.5 -28.4417 64.5 -36
C64.5 -43.5583 61.4971 -50.808 56.1525 -56.1525
C50.808 -61.4971 43.5583 -64.5 36 -64.5
C28.4417 -64.5 21.192 -61.4971 15.8475 -56.1525
C10.5029 -50.808 7.5 -43.5583 7.5 -36
C7.5 -28.4417 10.5029 -21.192 15.8475 -15.8475
C21.192 -10.5029 28.4417 -7.5 36 -7.5
z
" id="C0_0_a811fe30f3"/>
     <path d="
M64.3765 -36.7246
L64.1613 -36.758
L63.9446 -36.7969
L63.7266 -36.8409
L63.5074 -36.89
L63.2869 -36.9439
L63.0653 -37.0023
L62.8425 -37.0652
L62.6187 -37.1322
L62.3938 -37.2032
L62.1678 -37.2781
L61.941 -37.3565
L61.7131 -37.4384
L61.4844 -37.5236
L61.2548 -37.6118
L61.0244 -37.703
L60.7931 -37.797
L60.5611 -37.8937
L60.3283 -37.9928
L60.0948 -38.0942
L59.8607 -38.1979
L59.6258 -38.3036
L59.3904 -38.4113
L59.1543 -38.5209
L58.9176 -38.6321
L58.6803 -38.745
L58.4425 -38.8594
L58.2042 -38.9752
L57.9654 -39.0923
L57.726 -39.2106
L57.4862 -39.33
L57.246 -39.4505
L57.0053 -39.572
L56.7642 -39.6943
L56.5227 -39.8175
L56.2807 -39.9415
L56.0384 -40.0661
L55.7958 -40.1914
L55.5527 -40.3172
L55.3094 -40.4436
L55.0656 -40.5704
L54.8216 -40.6977
L54.5772 -40.8253
L54.3325 -40.9533
L54.0875 -41.0816
L53.8422 -41.2101
L53.5966 -41.3389
L53.3506 -41.4678
L53.1044 -41.597
L52.8579 -41.7262
L52.6111 -41.8556
L52.364 -41.985
L52.1166 -42.1145
L51.8689 -42.244
L51.6209 -42.3736
L51.3726 -42.5032
L51.124 -42.6327
L50.8752 -42.7623
L50.626 -42.8917
L50.3765 -43.0212
L50.1266 -43.1505
L49.8765 -43.2798
L49.6261 -43.4091
L49.3753 -43.5382
L49.1242 -43.6672
L48.8727 -43.7962
L48.6209 -43.925
L48.3687 -44.0537
L48.1162 -44.1823
L47.8633 -44.3108
L47.61 -44.4392
L47.3564 -44.5674
L47.1024 -44.6956
L46.5931 -44.8236
L46.3379 -44.9515
L46.0822 -45.0794
L45.8261 -45.2071
L45.5696 -45.3346
L45.3127 -45.4621
L45.0553 -45.5895
L44.7974 -45.7168
L44.5392 -45.844
L44.2804 -45.9711
L44.0212 -46.0981
L43.7615 -46.2251
L43.5014 -46.352
L43.2408 -46.4788
L42.9797 -46.6056
L42.7181 -46.7323
L42.456 -46.859
L42.1935 -46.9856
L41.9305 -47.1122
L41.667 -47.2388
L41.4031 -47.3654
L41.1387 -47.492
L40.8738 -47.6187
L40.6085 -47.7453
L40.3427 -47.872
L40.0765 -47.9987
L39.8099 -48.1255
L39.5429 -48.2523
L39.2754 -48.3792
L39.0076 -48.5062
L38.7394 -48.6333
L38.4708 -48.7605
L38.202 -48.8879
L37.9328 -49.0154
L37.6633 -49.143
L37.3936 -49.2709
L37.1237 -49.3989
L36.8536 -49.5271
L36.5833 -49.6556
L36.3129 -49.7843
L36.0424 -49.9132
L35.7719 -50.0425
L35.5014 -50.172
L35.231 -50.3019
L34.9606 -50.4321
L34.6904 -50.5626
L34.4204 -50.6936
L34.1507 -50.8249
L33.8813 -50.9567
L33.6124 -51.089
L33.3439 -51.2217
L33.0759 -51.355
L32.8085 -51.4888
L32.5419 -51.6232
L32.276 -51.7582
L32.011 -51.8938
L31.7469 -52.0301
L31.4839 -52.1671
L31.222 -52.3049
L30.9613 -52.4434
L30.702 -52.5828
L30.4442 -52.723
L30.1879 -52.8641
L29.9333 -53.0062
L29.6804 -53.1492
L29.4295 -53.2932
L29.1806 -53.4384
L28.9339 -53.5846
L28.6894 -53.7319
L28.4473 -53.8805
L28.2078 -54.0303
L27.971 -54.1814
L27.7369 -54.3338
L27.5059 -54.4876
L27.2779 -54.6428
L27.0531 -54.7995
L26.8318 -54.9577
L26.6139 -55.1174
L26.3997 -55.2787
L26.1893 -55.4417
L25.9829 -55.6063
L25.7805 -55.7726
L25.5824 -55.9407
L25.3887 -56.1105
L25.1995 -56.2822
L25.015 -56.4556
L24.8352 -56.6309
L24.6605 -56.8081
L24.4907 -56.9872
L24.3263 -57.1682
L24.1671 -57.3511
L24.0134 -57.5359
L23.8654 -57.7226
L23.723 -57.9113
L23.5865 -58.1019
L23.456 -58.2944
L23.3316 -58.4888
L23.2133 -58.6851
L23.1013 -58.8833
L22.9958 -59.0833
L22.8968 -59.2851
L22.8043 -59.4887
L22.7186 -59.694
L22.6397 -59.9011
L22.5676 -60.1098
L22.5026 -60.3201
L22.4446 -60.5319
L22.3937 -60.7453
L22.7979 -60.9601
L23.2408 -61.2578
L23.6875 -61.4843
L24.1379 -61.7031
L24.592 -61.9141
L25.0495 -62.1172
L25.5104 -62.3123
L25.9745 -62.4994
L26.4416 -62.6784
L26.9117 -62.8494
L27.3845 -63.0121
L27.8599 -63.1666
L28.3378 -63.3128
L28.8181 -63.4507
L29.3005 -63.5802
L29.785 -63.7014
L30.2714 -63.8141
L30.7595 -63.9183
L31.2492 -64.014
L31.7403 -64.1012
L32.2328 -64.1799
L32.7264 -64.2499
L33.221 -64.3114
L33.7164 -64.3642
L34.2126 -64.4084
L34.7093 -64.4439
L35.2064 -64.4708
L35.7037 -64.4889
L36.2011 -64.4985
L36.6984 -64.4993
L37.1956 -64.4914
L37.6924 -64.4749
L38.1886 -64.4497
L38.6842 -64.4158
L39.179 -64.3733
L39.6728 -64.3221
L40.1655 -64.2624
L40.6569 -64.194
L41.1469 -64.117
L41.6353 -64.0314
L42.122 -63.9373
L42.6069 -63.8347
L43.0897 -63.7236
L43.5704 -63.6041
L44.0488 -63.4762
L44.5247 -63.3398
L44.998 -63.1952
L45.4686 -63.0423
L45.9363 -62.8811
L46.401 -62.7118
L46.8625 -62.5343
L47.3207 -62.3488
L47.7754 -62.1552
L48.2266 -61.9536
L48.674 -61.7441
L49.1176 -61.5268
L49.5572 -61.3018
L49.9926 -61.069
L50.4238 -60.8286
L50.8506 -60.5806
L51.2729 -60.3251
L51.6905 -60.0622
L52.1033 -59.792
L52.5112 -59.5145
L52.9141 -59.2299
L53.3119 -58.9382
L53.7044 -58.6395
L54.0915 -58.3339
L54.473 -58.0216
L54.849 -57.7025
L55.2192 -57.3768
L55.5835 -57.0445
L55.9419 -56.7059
L56.2942 -56.361
L56.6404 -56.0098
L56.9802 -55.6526
L57.3137 -55.2894
L57.6406 -54.9203
L57.961 -54.5455
L58.2747 -54.1649
L58.5816 -53.7789
L58.8816 -53.3875
L59.1746 -52.9907
L59.4606 -52.5888
L59.7394 -52.1818
L60.011 -51.7699
L60.2753 -51.3532
L60.5322 -50.9318
L60.7817 -50.5059
L61.0235 -50.0755
L61.2578 -49.6409
L61.4843 -49.2021
L61.7031 -48.7592
L61.9141 -48.3125
L62.1172 -47.8621
L62.3123 -47.408
L62.4994 -46.9505
L62.6784 -46.4896
L62.8494 -46.0255
L63.0121 -45.5584
L63.1666 -45.0883
L63.3128 -44.6155
L63.4507 -44.1401
L63.5802 -43.6622
L63.7014 -43.1819
L63.8141 -42.6995
L63.9183 -42.215
L64.014 -41.7286
L64.1012 -41.2405
L64.1799 -40.7508
L64.2499 -40.2597
L64.3114 -39.7672
L64.3642 -39.2736
L64.4084 -38.779
L64.4439 -38.2836
L64.4708 -37.7874
z
" id="C0_1_eb590db5f3"/>
     <path d="
M49.5175 -11.0679
L49.3548 -11.2212
L49.1873 -11.3731
L49.0153 -11.5239
L48.8391 -11.6734
L48.6587 -11.8219
L48.4744 -11.9693
L48.2863 -12.1158
L48.0947 -12.2614
L47.8997 -12.4061
L47.7015 -12.5501
L47.5002 -12.6934
L47.296 -12.8361
L47.0891 -12.9782
L46.8796 -13.1197
L46.6676 -13.2608
L46.4533 -13.4014
L46.2368 -13.5417
L46.0182 -13.6816
L45.7977 -13.8212
L45.5754 -13.9607
L45.3514 -14.0999
L45.1258 -14.2389
L44.8986 -14.3778
L44.6701 -14.5166
L44.4403 -14.6554
L44.2092 -14.7941
L43.977 -14.9328
L43.7438 -15.0715
L43.5096 -15.2103
L43.2745 -15.3492
L43.0386 -15.4882
L42.8019 -15.6273
L42.5646 -15.7666
L42.3265 -15.906
L42.0879 -16.0456
L41.8488 -16.1854
L41.6092 -16.3254
L41.3691 -16.4657
L41.1287 -16.6062
L40.8879 -16.747
L40.6467 -16.8881
L40.4053 -17.0295
L40.1637 -17.1711
L39.9218 -17.3131
L39.6798 -17.4555
L39.4376 -17.5982
L39.1952 -17.7412
L38.9527 -17.8846
L38.7102 -18.0284
L38.4675 -18.1726
L38.2248 -18.3171
L37.982 -18.4621
L37.7392 -18.6075
L37.4964 -18.7533
L37.2536 -18.8996
L37.0107 -19.0463
L36.7679 -19.1934
L36.525 -19.341
L36.2822 -19.4891
L36.0394 -19.6376
L35.7966 -19.7867
L35.5538 -19.9362
L35.311 -20.0862
L35.0683 -20.2367
L34.8255 -20.3877
L34.5828 -20.5393
L34.3401 -20.6913
L34.0974 -20.8439
L33.8548 -20.997
L33.6121 -21.1507
L33.3694 -21.3049
L33.1267 -21.4597
L32.884 -21.615
L32.6413 -21.7709
L32.3986 -21.9273
L32.1558 -22.0844
L31.913 -22.2419
L31.6701 -22.4001
L31.4272 -22.5589
L31.1842 -22.7182
L30.9412 -22.8781
L30.6981 -23.0386
L30.4549 -23.1997
L30.2117 -23.3613
L29.9683 -23.5236
L29.7248 -23.6864
L29.4812 -23.8498
L29.2375 -24.0138
L28.9937 -24.1784
L28.7497 -24.3435
L28.5056 -24.5092
L28.2614 -24.6755
L28.017 -24.8423
L27.7724 -25.0097
L27.5277 -25.1775
L27.2828 -25.3459
L27.0378 -25.5148
L26.7926 -25.6843
L26.5472 -25.8541
L26.3016 -26.0245
L26.0558 -26.1953
L25.8099 -26.3665
L25.5637 -26.5381
L25.3174 -26.7101
L25.0708 -26.8824
L24.8241 -27.0551
L24.5772 -27.2281
L24.3301 -27.4013
L24.0828 -27.5747
L23.8353 -27.7484
L23.5876 -27.9222
L23.3398 -28.0961
L23.0918 -28.27
L22.8436 -28.444
L22.5952 -28.618
L22.3467 -28.7918
L22.098 -28.9656
L21.8492 -29.1391
L21.6002 -29.3124
L21.3511 -29.4853
L21.1019 -29.6579
L20.8526 -29.83
L20.6032 -30.0015
L20.3537 -30.1724
L20.1041 -30.3427
L19.8545 -30.5121
L19.6048 -30.6807
L19.3551 -30.8483
L19.1053 -31.0148
L18.8556 -31.1802
L18.6059 -31.3443
L18.3562 -31.507
L18.1065 -31.6682
L17.8569 -31.8279
L17.6074 -31.9858
L17.358 -32.1419
L17.1088 -32.296
L16.8596 -32.4481
L16.6107 -32.5979
L16.3619 -32.7454
L16.1134 -32.8904
L15.865 -33.0328
L15.617 -33.1724
L15.3693 -33.3092
L15.1218 -33.4429
L14.8747 -33.5735
L14.628 -33.7007
L14.3817 -33.8244
L14.1358 -33.9446
L13.8905 -34.061
L13.6456 -34.1735
L13.4012 -34.282
L13.1574 -34.3863
L12.9143 -34.4862
L12.6718 -34.5817
L12.43 -34.6726
L12.189 -34.7588
L11.9487 -34.84
L11.7093 -34.9163
L11.4708 -34.9875
L11.2332 -35.0534
L10.9965 -35.1139
L10.761 -35.1689
L10.5265 -35.2184
L10.2932 -35.2621
L10.0611 -35.3
L9.83031 -35.332
L9.60084 -35.358
L9.37279 -35.3779
L9.14621 -35.3916
L8.92119 -35.3991
L8.69778 -35.4002
L8.47607 -35.3948
L8.25612 -35.383
L8.03802 -35.3646
L7.82184 -35.3396
L7.52492 -35.308
L7.55005 -34.8084
L7.58385 -34.3116
L7.62631 -33.8154
L7.6774 -33.3198
L7.73713 -32.825
L7.80546 -32.3312
L7.88239 -31.8385
L7.96787 -31.3471
L8.0619 -30.8571
L8.16444 -30.3686
L8.27545 -29.8819
L8.39491 -29.397
L8.52278 -28.9142
L8.65902 -28.4335
L8.80359 -27.9551
L8.95644 -27.4791
L9.11753 -27.0058
L9.28681 -26.5352
L9.46422 -26.0675
L9.64972 -25.6028
L9.84325 -25.1412
L10.0447 -24.683
L10.2541 -24.2282
L10.4714 -23.777
L10.6964 -23.3296
L10.9291 -22.886
L11.1695 -22.4464
L11.4174 -22.0109
L11.6728 -21.5797
L11.9356 -21.1528
L12.2058 -20.7305
L12.4832 -20.3129
L12.7678 -19.9
L13.0594 -19.492
L13.358 -19.0891
L13.6636 -18.6913
L13.9759 -18.2988
L14.2949 -17.9116
L14.6206 -17.53
L14.9528 -17.154
L15.2913 -16.7838
L15.6362 -16.4194
L15.9873 -16.0609
L16.3445 -15.7086
L16.7077 -15.3624
L17.0767 -15.0225
L17.4515 -14.689
L17.832 -14.362
L18.218 -14.0416
L18.6094 -13.7278
L19.0061 -13.4209
L19.408 -13.1208
L19.8149 -12.8277
L20.2268 -12.5417
L20.6434 -12.2628
L21.0648 -11.9911
L21.4907 -11.7268
L21.921 -11.4698
L22.3556 -11.2203
L22.7944 -10.9784
L23.2372 -10.7441
L23.6839 -10.5174
L24.1343 -10.2986
L24.5883 -10.0876
L25.0458 -9.88441
L25.5067 -9.68923
L25.9708 -9.50206
L26.4379 -9.32296
L26.9079 -9.15199
L27.3807 -8.9892
L27.8561 -8.83463
L28.334 -8.68834
L28.8142 -8.55037
L29.2966 -8.42076
L29.7811 -8.29955
L30.2674 -8.18678
L30.7555 -8.08248
L31.2452 -7.98669
L31.7364 -7.89943
L32.2288 -7.82072
L32.7224 -7.75061
L33.217 -7.68909
L33.7125 -7.6362
L34.2086 -7.59195
L34.7053 -7.55636
L35.2024 -7.52942
L35.6997 -7.51116
L36.1971 -7.50158
L36.6944 -7.50068
L37.1916 -7.50846
L37.6884 -7.52492
L38.1846 -7.55005
L38.6802 -7.58385
L39.175 -7.62631
L39.6688 -7.6774
L40.1615 -7.73713
L40.6529 -7.80546
L41.1429 -7.88239
L41.6314 -7.96787
L42.1181 -8.0619
L42.603 -8.16444
L43.0858 -8.27545
L43.5665 -8.39491
L44.0449 -8.52278
L44.5209 -8.65902
L44.9942 -8.80359
L45.4648 -8.95644
L45.9325 -9.11753
L46.3972 -9.28681
L46.8588 -9.46422
L47.317 -9.64972
L47.7718 -9.84325
L48.223 -10.0447
L48.6704 -10.2541
L49.114 -10.4714
z
" id="C0_2_99e1f38c0e"/>
    </defs>
    <g clip-path="url(#p1bffca34e9)">
     <use style="fill:#ff0000;stroke:#000000;stroke-width:2.0;" x="0.0" xlink:href="#C0_0_a811fe30f3" y="72.0"/>
    </g>
    <g clip-path="url(#p1bffca34e9)">
     <use style="fill:#ffffff;stroke:#000000;stroke-width:2.0;" x="0.0" xlink:href="#C0_1_eb590db5f3" y="72.0"/>
    </g>
    <g clip-path="url(#p1bffca34e9)">
     <use style="fill:#ffffff;stroke:#000000;stroke-width:2.0;" x="0.0" xlink:href="#C0_2_99e1f38c0e" y="72.0"/>
    </g>
   </g>
  </g>
 </g>
 <defs>
  <clipPath id="p1bffca34e9">
   <rect height="72.0" width="72.0" x="0.0" y="0.0"/>
  </clipPath>
 </defs>
</svg>
