<?xml version="1.0" encoding="utf-8" standalone="no"?>
<!DOCTYPE svg PUBLIC "-//W3C//DTD SVG 1.1//EN"
  "http://www.w3.org/Graphics/SVG/1.1/DTD/svg11.dtd">
<!-- Created with matplotlib (http://matplotlib.org/) -->
<svg height="72pt" version="1.1" viewBox="0 0 72 72" width="72pt" xmlns="http://www.w3.org/2000/svg" xmlns:xlink="http://www.w3.org/1999/xlink">
 <defs>
  <style type="text/css">
*{stroke-linecap:butt;stroke-linejoin:round;}
  </style>
 </defs>
 <g id="figure_1">
  <g id="patch_1">
   <path d="
M0 72
L72 72
L72 0
L0 0
z
" style="fill:none;"/>
  </g>
  <g id="axes_1">
   <g id="PatchCollection_1">
    <defs>
     <path d="
M36 -7.5
C43.5583 -7.5 50.808 -10.5029 56.1525 -15.8475
C61.4971 -21.192 64.5 -28.4417 64.5 -36
C64.5 -43.5583 61.4971 -50.808 56.1525 -56.1525
C50.808 -61.4971 43.5583 -64.5 36 -64.5
C28.4417 -64.5 21.192 -61.4971 15.8475 -56.1525
C10.5029 -50.808 7.5 -43.5583 7.5 -36
C7.5 -28.4417 10.5029 -21.192 15.8475 -15.8475
C21.192 -10.5029 28.4417 -7.5 36 -7.5
z
" id="C0_0_a811fe30f3"/>
     <path d="
M39.159 -7.78264
L39.0019 -7.98052
L38.8559 -8.18343
L38.721 -8.39109
L38.5969 -8.60328
L38.4833 -8.81976
L38.3799 -9.04029
L38.2865 -9.26465
L38.2027 -9.49262
L38.1282 -9.72401
L38.0626 -9.95861
L38.0057 -10.1962
L37.9571 -10.4367
L37.9164 -10.6798
L37.8833 -10.9253
L37.8575 -11.1732
L37.8386 -11.4233
L37.8263 -11.6753
L37.8203 -11.9292
L37.8201 -12.1848
L37.8256 -12.4421
L37.8364 -12.7007
L37.8522 -12.9607
L37.8727 -13.222
L37.8976 -13.4843
L37.9268 -13.7476
L37.9598 -14.0119
L37.9966 -14.2769
L38.0367 -14.5426
L38.0801 -14.809
L38.1265 -15.0759
L38.1757 -15.3432
L38.2275 -15.611
L38.2818 -15.879
L38.3383 -16.1473
L38.3968 -16.4157
L38.4573 -16.6843
L38.5196 -16.953
L38.5836 -17.2216
L38.6491 -17.4903
L38.716 -17.7588
L38.7841 -18.0272
L38.8535 -18.2955
L38.9239 -18.5636
L38.9953 -18.8315
L39.0677 -19.0991
L39.1408 -19.3664
L39.2147 -19.6334
L39.2892 -19.9001
L39.3644 -20.1665
L39.4401 -20.4325
L39.5163 -20.6981
L39.593 -20.9634
L39.67 -21.2283
L39.7473 -21.4928
L39.825 -21.7569
L39.9029 -22.0206
L39.9811 -22.2839
L40.0595 -22.5468
L40.138 -22.8093
L40.2166 -23.0714
L40.2954 -23.3332
L40.3743 -23.5945
L40.4532 -23.8555
L40.5322 -24.1162
L40.6112 -24.3765
L40.6903 -24.6365
L40.7694 -24.8962
L40.8484 -25.1556
L40.9275 -25.4147
L41.0065 -25.6735
L41.0855 -25.9321
L41.1645 -26.1904
L41.2435 -26.4486
L41.3224 -26.7066
L41.4012 -26.9644
L41.4801 -27.2221
L41.5589 -27.4796
L41.6376 -27.7371
L41.7163 -27.9945
L41.795 -28.2518
L41.8736 -28.5091
L41.9522 -28.7664
L42.0307 -29.0237
L42.1092 -29.2811
L42.1878 -29.5386
L42.2662 -29.7962
L42.4232 -30.0539
L42.5017 -30.3117
L42.5802 -30.5697
L42.6587 -30.828
L42.7372 -31.0864
L42.8158 -31.3451
L42.8944 -31.6041
L42.9731 -31.8634
L43.0518 -32.1231
L43.1307 -32.383
L43.2096 -32.6434
L43.2886 -32.9042
L43.3677 -33.1654
L43.4469 -33.427
L43.5262 -33.6892
L43.6057 -33.9518
L43.6854 -34.2149
L43.7652 -34.4786
L43.8453 -34.7428
L43.9255 -35.0076
L44.0059 -35.273
L44.0866 -35.5389
L44.1675 -35.8055
L44.2487 -36.0728
L44.3302 -36.3406
L44.4119 -36.6092
L44.494 -36.8784
L44.5764 -37.1482
L44.6592 -37.4188
L44.7424 -37.69
L44.8259 -37.9619
L44.9099 -38.2345
L44.9944 -38.5077
L45.0793 -38.7816
L45.1647 -39.0562
L45.2506 -39.3315
L45.3371 -39.6073
L45.4242 -39.8838
L45.5119 -40.1609
L45.6002 -40.4386
L45.6892 -40.7168
L45.779 -40.9955
L45.8695 -41.2747
L45.9608 -41.5543
L46.0529 -41.8343
L46.1459 -42.1146
L46.2399 -42.3953
L46.3348 -42.6761
L46.4308 -42.9571
L46.5279 -43.2382
L46.6261 -43.5193
L46.7256 -43.8003
L46.8263 -44.0812
L46.9284 -44.3618
L47.0319 -44.642
L47.1369 -44.9217
L47.2434 -45.2008
L47.3517 -45.4793
L47.4617 -45.7568
L47.5735 -46.0334
L47.6873 -46.3088
L47.8031 -46.5828
L47.9211 -46.8554
L48.0414 -47.1264
L48.164 -47.3955
L48.2891 -47.6626
L48.4169 -47.9274
L48.5475 -48.1898
L48.6809 -48.4495
L48.8173 -48.7063
L48.957 -48.9601
L49.0999 -49.2104
L49.2463 -49.4571
L49.3963 -49.6999
L49.5501 -49.9386
L49.7077 -50.1729
L49.8694 -50.4024
L50.0352 -50.627
L50.2054 -50.8463
L50.3799 -51.0601
L50.5591 -51.2681
L50.743 -51.4699
L50.9316 -51.6653
L51.1251 -51.8541
L51.3236 -52.0358
L51.5272 -52.2103
L51.7358 -52.3772
L51.9496 -52.5363
L52.1686 -52.6874
L52.3928 -52.8301
L52.6221 -52.9642
L52.8565 -53.0896
L53.0961 -53.2059
L53.3407 -53.313
L53.5902 -53.4107
L53.8445 -53.4988
L54.1035 -53.5772
L54.367 -53.6456
L54.635 -53.704
L54.9071 -53.7522
L55.1833 -53.7902
L55.4632 -53.8178
L55.7468 -53.835
L56.0336 -53.8418
L56.3236 -53.838
L56.6164 -53.8236
L56.9118 -53.7987
L57.2094 -53.7633
L57.5092 -53.7172
L57.8106 -53.6607
L58.1136 -53.5936
L58.4177 -53.5161
L58.8022 -53.4282
L59.0971 -53.0971
L59.385 -52.6965
L59.6657 -52.2909
L59.9393 -51.8803
L60.2055 -51.4649
L60.4644 -51.0447
L60.7158 -50.62
L60.9597 -50.1908
L61.196 -49.7573
L61.4246 -49.3196
L61.6455 -48.8778
L61.8586 -48.4321
L62.0638 -47.9827
L62.261 -47.5295
L62.4503 -47.0729
L62.6315 -46.6129
L62.8045 -46.1497
L62.9694 -45.6833
L63.1261 -45.2141
L63.2746 -44.742
L63.4147 -44.2672
L63.5465 -43.79
L63.6699 -43.3103
L63.7848 -42.8285
L63.8913 -42.3445
L63.9893 -41.8586
L64.0788 -41.371
L64.1597 -40.8817
L64.2321 -40.3909
L64.2958 -39.8988
L64.3509 -39.4054
L64.3974 -38.9111
L64.4353 -38.4159
L64.4644 -37.9199
L64.4849 -37.4233
L64.4968 -36.9263
L64.4999 -36.4291
L64.4944 -35.9317
L64.4802 -35.4343
L64.4573 -34.9371
L64.4257 -34.4402
L64.3855 -33.9438
L64.3366 -33.448
L64.2792 -32.953
L64.213 -32.4589
L64.1383 -31.9659
L64.0551 -31.4741
L63.9633 -30.9837
L63.8629 -30.4949
L63.7541 -30.0077
L63.6368 -29.5223
L63.5111 -29.0389
L63.377 -28.5577
L63.2346 -28.0787
L63.0839 -27.6021
L62.925 -27.1281
L62.7578 -26.6567
L62.5825 -26.1882
L62.3991 -25.7227
L62.2076 -25.2604
L62.0082 -24.8013
L61.8008 -24.3456
L61.5856 -23.8935
L61.3626 -23.445
L61.1319 -23.0004
L60.8935 -22.5598
L60.6475 -22.1232
L60.394 -21.6909
L60.1331 -21.2629
L59.8648 -20.8394
L59.5893 -20.4205
L59.3066 -20.0064
L59.0168 -19.5971
L58.7199 -19.1929
L58.4162 -18.7937
L58.1056 -18.3999
L57.7883 -18.0113
L57.4643 -17.6283
L57.1338 -17.2508
L56.7969 -16.8791
L56.4537 -16.5131
L56.1042 -16.1531
L55.7486 -15.7992
L55.3869 -15.4514
L55.0194 -15.1099
L54.6461 -14.7747
L54.267 -14.446
L53.8825 -14.1239
L53.4925 -13.8084
L53.0971 -13.4997
L52.6965 -13.1978
L52.2909 -12.9029
L51.8803 -12.615
L51.4649 -12.3343
L51.0447 -12.0607
L50.62 -11.7945
L50.1908 -11.5356
L49.7573 -11.2842
L49.3196 -11.0403
L48.8778 -10.804
L48.4321 -10.5754
L47.9827 -10.3545
L47.5295 -10.1414
L47.0729 -9.93624
L46.6129 -9.73899
L46.1497 -9.54974
L45.6833 -9.36855
L45.2141 -9.19547
L44.742 -9.03055
L44.2672 -8.87385
L43.79 -8.72541
L43.3103 -8.58529
L42.8285 -8.45351
L42.3445 -8.33012
L41.8586 -8.21516
L41.371 -8.10867
L40.8817 -8.01067
L40.3909 -7.92119
L39.8988 -7.84027
z
" id="C0_1_139db1375f"/>
     <path d="
M13.4 -18.7637
L13.3829 -19.0861
L13.366 -19.4107
L13.3498 -19.7371
L13.3342 -20.0653
L13.3196 -20.3949
L13.306 -20.7258
L13.2936 -21.0579
L13.2825 -21.3909
L13.2729 -21.7246
L13.2648 -22.059
L13.2583 -22.3939
L13.2536 -22.729
L13.2507 -23.0643
L13.2496 -23.3997
L13.2505 -23.735
L13.2534 -24.0701
L13.2583 -24.4049
L13.2653 -24.7393
L13.2744 -25.0733
L13.2856 -25.4066
L13.2989 -25.7393
L13.3144 -26.0713
L13.3322 -26.4025
L13.352 -26.7328
L13.3741 -27.0622
L13.3984 -27.3907
L13.4249 -27.7181
L13.4536 -28.0445
L13.4844 -28.3698
L13.5175 -28.694
L13.5527 -29.017
L13.59 -29.3388
L13.6296 -29.6595
L13.6712 -29.979
L13.715 -30.2972
L13.7608 -30.6142
L13.8088 -30.93
L13.8589 -31.2445
L13.911 -31.5578
L13.9651 -31.8698
L14.0213 -32.1806
L14.0795 -32.4902
L14.1397 -32.7986
L14.2019 -33.1057
L14.2661 -33.4116
L14.3322 -33.7164
L14.4003 -34.02
L14.4703 -34.3224
L14.5423 -34.6237
L14.6162 -34.9238
L14.692 -35.2229
L14.7697 -35.5209
L14.8493 -35.8178
L14.9307 -36.1137
L15.0141 -36.4086
L15.0993 -36.7025
L15.1864 -36.9955
L15.2754 -37.2875
L15.3663 -37.5786
L15.459 -37.8688
L15.5536 -38.1582
L15.65 -38.4467
L15.7483 -38.7344
L15.8485 -39.0214
L15.9506 -39.3076
L16.0545 -39.5931
L16.1604 -39.8778
L16.2681 -40.162
L16.3777 -40.4454
L16.4892 -40.7283
L16.6027 -41.0106
L16.718 -41.2923
L16.8353 -41.5735
L16.9546 -41.8541
L17.0758 -42.1343
L17.1989 -42.414
L17.3241 -42.6933
L17.4512 -42.9721
L17.5803 -43.2506
L17.7115 -43.5287
L17.8447 -43.8064
L17.9799 -44.0838
L18.1173 -44.3609
L18.2567 -44.6378
L18.3982 -44.9143
L18.5418 -45.1906
L18.6875 -45.4666
L18.8354 -45.7424
L18.9854 -46.018
L19.1376 -46.2934
L19.2921 -46.5686
L19.4487 -46.8436
L19.6075 -47.1185
L19.7686 -47.3932
L19.9319 -47.6677
L20.0975 -47.9421
L20.2653 -48.2164
L20.4355 -48.4905
L20.6079 -48.7644
L20.7826 -49.0382
L20.9596 -49.3119
L21.1389 -49.5854
L21.3205 -49.8588
L21.5044 -50.132
L21.6906 -50.405
L21.8791 -50.6778
L22.0699 -50.9504
L22.2629 -51.2228
L22.4582 -51.495
L22.6557 -51.767
L22.8555 -52.0386
L23.0573 -52.31
L23.2614 -52.5811
L23.4675 -52.8518
L23.6756 -53.1222
L23.8858 -53.3922
L24.0979 -53.6618
L24.3119 -53.9309
L24.5277 -54.1995
L24.7452 -54.4676
L24.9644 -54.7352
L25.1851 -55.0022
L25.4072 -55.2686
L25.6307 -55.5343
L25.8553 -55.7994
L26.0811 -56.0637
L26.3078 -56.3273
L26.5352 -56.59
L26.7633 -56.852
L26.9918 -57.113
L27.2206 -57.3732
L27.4495 -57.6324
L27.6782 -57.8907
L27.9065 -58.1479
L28.1343 -58.4042
L28.3613 -58.6594
L28.5872 -58.9135
L28.8117 -59.1665
L29.0347 -59.4184
L29.2557 -59.6691
L29.4746 -59.9187
L29.6911 -60.1671
L29.9047 -60.4144
L30.1153 -60.6604
L30.3226 -60.9052
L30.5261 -61.1488
L30.7256 -61.3913
L30.9208 -61.6324
L31.1114 -61.8724
L31.297 -62.1111
L31.4773 -62.3486
L31.6521 -62.5849
L31.821 -62.8198
L31.9838 -63.0536
L32.1402 -63.286
L32.2899 -63.5172
L32.4327 -63.747
L32.5684 -63.9755
L32.191 -64.2026
L31.6986 -64.2443
L31.2076 -64.1735
L30.718 -64.0942
L30.23 -64.0063
L29.7438 -63.9098
L29.2595 -63.8049
L28.7772 -63.6914
L28.2972 -63.5696
L27.8195 -63.4393
L27.3443 -63.3007
L26.8717 -63.1538
L26.4019 -62.9986
L25.935 -62.8352
L25.4712 -62.6636
L25.0106 -62.4838
L24.5533 -62.2961
L24.0996 -62.1003
L23.6494 -61.8965
L23.203 -61.6849
L22.7605 -61.4654
L22.3221 -61.2382
L21.8878 -61.0033
L21.4578 -60.7608
L21.0323 -60.5107
L20.6113 -60.2532
L20.195 -59.9883
L19.7835 -59.716
L19.3769 -59.4366
L18.9754 -59.15
L18.5791 -58.8564
L18.1881 -58.5558
L17.8025 -58.2483
L17.4225 -57.9341
L17.0481 -57.6131
L16.6795 -57.2856
L16.3168 -56.9516
L15.9601 -56.6112
L15.6095 -56.2646
L15.2651 -55.9117
L14.927 -55.5528
L14.5953 -55.188
L14.2702 -54.8173
L13.9517 -54.4409
L13.6399 -54.0588
L13.3349 -53.6713
L13.0368 -53.2783
L12.7457 -52.8802
L12.4616 -52.4768
L12.1848 -52.0685
L11.9152 -51.6552
L11.6529 -51.2372
L11.3981 -50.8145
L11.1508 -50.3874
L10.911 -49.9558
L10.6788 -49.52
L10.4544 -49.0801
L10.2378 -48.6362
L10.029 -48.1884
L9.8281 -47.737
L9.63519 -47.2819
L9.45031 -46.8234
L9.27352 -46.3617
L9.10486 -45.8967
L8.94441 -45.4288
L8.79219 -44.9579
L8.64826 -44.4844
L8.51266 -44.0083
L8.38544 -43.5297
L8.26662 -43.0488
L8.15626 -42.5658
L8.05438 -42.0808
L7.961 -41.5939
L7.87617 -41.1054
L7.79991 -40.6152
L7.73224 -40.1237
L7.67317 -39.6309
L7.62274 -39.137
L7.58095 -38.6422
L7.54782 -38.1465
L7.52335 -37.6502
L7.50756 -37.1534
L7.50044 -36.6562
L7.50201 -36.1589
L7.51226 -35.6615
L7.53119 -35.1642
L7.55878 -34.6671
L7.59505 -34.1705
L7.63996 -33.6744
L7.69351 -33.179
L7.75569 -32.6845
L7.82647 -32.191
L7.90583 -31.6986
L7.99374 -31.2076
L8.09019 -30.718
L8.19515 -30.23
L8.30857 -29.7438
L8.43042 -29.2595
L8.56067 -28.7772
L8.69929 -28.2972
L8.84621 -27.8195
L9.00141 -27.3443
L9.16484 -26.8717
L9.33643 -26.4019
L9.51615 -25.935
L9.70394 -25.4712
L9.89974 -25.0106
L10.1035 -24.5533
L10.3151 -24.0996
L10.5346 -23.6494
L10.7618 -23.203
L10.9967 -22.7605
L11.2392 -22.3221
L11.4893 -21.8878
L11.7468 -21.4578
L12.0117 -21.0323
L12.284 -20.6113
L12.5634 -20.195
L12.85 -19.7835
z
" id="C0_2_a5964b2540"/>
    </defs>
    <g clip-path="url(#p1bffca34e9)">
     <use style="fill:#ff0000;stroke:#000000;stroke-width:2.0;" x="0.0" xlink:href="#C0_0_a811fe30f3" y="72.0"/>
    </g>
    <g clip-path="url(#p1bffca34e9)">
     <use style="fill:#ffffff;stroke:#000000;stroke-width:2.0;" x="0.0" xlink:href="#C0_1_139db1375f" y="72.0"/>
    </g>
    <g clip-path="url(#p1bffca34e9)">
     <use style="fill:#ffffff;stroke:#000000;stroke-width:2.0;" x="0.0" xlink:href="#C0_2_a5964b2540" y="72.0"/>
    </g>
   </g>
  </g>
 </g>
 <defs>
  <clipPath id="p1bffca34e9">
   <rect height="72.0" width="72.0" x="0.0" y="0.0"/>
  </clipPath>
 </defs>
</svg>
