<?xml version="1.0" encoding="utf-8" standalone="no"?>
<!DOCTYPE svg PUBLIC "-//W3C//DTD SVG 1.1//EN"
  "http://www.w3.org/Graphics/SVG/1.1/DTD/svg11.dtd">
<!-- Created with matplotlib (http://matplotlib.org/) -->
<svg height="72pt" version="1.1" viewBox="0 0 72 72" width="72pt" xmlns="http://www.w3.org/2000/svg" xmlns:xlink="http://www.w3.org/1999/xlink">
 <defs>
  <style type="text/css">
*{stroke-linecap:butt;stroke-linejoin:round;}
  </style>
 </defs>
 <g id="figure_1">
  <g id="patch_1">
   <path d="
M0 72
L72 72
L72 0
L0 0
z
" style="fill:none;"/>
  </g>
  <g id="axes_1">
   <g id="PatchCollection_1">
    <defs>
     <path d="
M36 -7.5
C43.5583 -7.5 50.808 -10.5029 56.1525 -15.8475
C61.4971 -21.192 64.5 -28.4417 64.5 -36
C64.5 -43.5583 61.4971 -50.808 56.1525 -56.1525
C50.808 -61.4971 43.5583 -64.5 36 -64.5
C28.4417 -64.5 21.192 -61.4971 15.8475 -56.1525
C10.5029 -50.808 7.5 -43.5583 7.5 -36
C7.5 -28.4417 10.5029 -21.192 15.8475 -15.8475
C21.192 -10.5029 28.4417 -7.5 36 -7.5
z
" id="C0_0_a811fe30f3"/>
     <path d="
M53.4032 -58.5119
L53.0929 -58.4875
L52.7953 -58.4444
L52.5105 -58.383
L52.239 -58.3036
L51.9807 -58.2067
L51.7357 -58.0929
L51.5037 -57.9626
L51.2845 -57.8168
L51.0778 -57.6559
L50.8829 -57.481
L50.6995 -57.2926
L50.5269 -57.0917
L50.3644 -56.8791
L50.2114 -56.6555
L50.0672 -56.4219
L49.9312 -56.179
L49.8026 -55.9276
L49.6808 -55.6684
L49.5651 -55.4021
L49.4551 -55.1294
L49.3501 -54.8511
L49.2497 -54.5676
L49.1533 -54.2795
L49.0605 -53.9874
L48.9708 -53.6919
L48.884 -53.3932
L48.7997 -53.092
L48.7176 -52.7886
L48.6374 -52.4834
L48.5588 -52.1766
L48.4817 -51.8688
L48.4057 -51.5601
L48.3309 -51.2507
L48.2569 -50.9411
L48.1837 -50.6314
L48.1112 -50.3217
L48.0391 -50.0124
L47.9675 -49.7035
L47.8962 -49.3953
L47.8252 -49.0878
L47.7544 -48.7812
L47.6837 -48.4756
L47.6131 -48.1712
L47.5426 -47.8679
L47.4721 -47.5659
L47.4015 -47.2653
L47.331 -46.966
L47.2603 -46.6682
L47.1895 -46.372
L47.1186 -46.0772
L47.0476 -45.7841
L46.9764 -45.4925
L46.9051 -45.2025
L46.8336 -44.9141
L46.7619 -44.6274
L46.69 -44.3423
L46.6179 -44.0587
L46.5456 -43.7768
L46.4731 -43.4965
L46.4004 -43.2178
L46.3275 -42.9406
L46.2543 -42.6649
L46.1809 -42.3908
L46.1073 -42.1182
L46.0334 -41.847
L45.9592 -41.5772
L45.8848 -41.3088
L45.8102 -41.0418
L45.7353 -40.7761
L45.66 -40.5117
L45.5846 -40.2486
L45.5088 -39.9866
L45.4327 -39.7258
L45.3563 -39.4662
L45.2796 -39.2076
L45.2026 -38.95
L45.1252 -38.6935
L45.0475 -38.4379
L44.9695 -38.1832
L44.8911 -37.9293
L44.8123 -37.6763
L44.7332 -37.424
L44.6536 -37.1725
L44.5737 -36.9216
L44.4933 -36.6714
L44.4125 -36.4217
L44.3312 -36.1726
L44.2495 -35.9239
L44.1674 -35.6757
L44.0847 -35.4279
L44.0016 -35.1804
L43.9179 -34.9332
L43.749 -34.6862
L43.6637 -34.4394
L43.5778 -34.1928
L43.4913 -33.9463
L43.4042 -33.6999
L43.3165 -33.4534
L43.2282 -33.2069
L43.1391 -32.9604
L43.0494 -32.7137
L42.959 -32.4668
L42.8679 -32.2197
L42.776 -31.9723
L42.6834 -31.7246
L42.59 -31.4765
L42.4958 -31.228
L42.4008 -30.9791
L42.3049 -30.7297
L42.2082 -30.4797
L42.1106 -30.2292
L42.0121 -29.978
L41.9127 -29.7261
L41.8124 -29.4736
L41.7111 -29.2202
L41.6088 -28.9661
L41.5055 -28.7112
L41.4012 -28.4554
L41.2958 -28.1987
L41.1894 -27.941
L41.0819 -27.6823
L40.9734 -27.4227
L40.8637 -27.1619
L40.7529 -26.9001
L40.641 -26.6372
L40.5279 -26.3732
L40.4137 -26.108
L40.2983 -25.8415
L40.1817 -25.5739
L40.0639 -25.305
L39.945 -25.0349
L39.8248 -24.7635
L39.7035 -24.4908
L39.581 -24.2168
L39.4574 -23.9416
L39.3325 -23.665
L39.2066 -23.387
L39.0795 -23.1078
L38.9514 -22.8273
L38.8222 -22.5454
L38.692 -22.2623
L38.5608 -21.9779
L38.4288 -21.6923
L38.2959 -21.4054
L38.1622 -21.1174
L38.0279 -20.8282
L37.893 -20.5379
L37.7577 -20.2465
L37.622 -19.9541
L37.4861 -19.6608
L37.3502 -19.3665
L37.2144 -19.0715
L37.079 -18.7757
L36.9441 -18.4792
L36.81 -18.1822
L36.677 -17.8847
L36.5454 -17.5868
L36.4155 -17.2886
L36.2876 -16.9902
L36.1622 -16.6919
L36.0396 -16.3936
L35.9205 -16.0955
L35.8052 -15.7977
L35.6943 -15.5005
L35.5885 -15.2039
L35.4883 -14.9081
L35.3946 -14.6133
L35.3079 -14.3196
L35.2293 -14.0272
L35.1594 -13.7362
L35.0991 -13.447
L35.0495 -13.1595
L35.0113 -12.8742
L34.9857 -12.5911
L34.9736 -12.3104
L34.976 -12.0325
L34.9937 -11.7576
L35.0278 -11.4859
L35.0791 -11.2176
L35.1484 -10.9532
L35.2364 -10.6928
L35.3437 -10.4369
L35.4707 -10.1857
L35.6177 -9.93962
L35.785 -9.69905
L35.9726 -9.46437
L36.1803 -9.23598
L36.408 -9.01428
L36.6552 -8.79969
L36.9215 -8.59262
L37.2062 -8.39347
L37.5087 -8.20264
L37.8283 -8.02051
L38.164 -7.84745
L38.6674 -7.68382
L39.1622 -7.62509
L39.656 -7.67597
L40.1487 -7.73547
L40.6402 -7.80358
L41.1302 -7.88028
L41.6187 -7.96554
L42.1055 -8.05935
L42.5904 -8.16167
L43.0733 -8.27246
L43.5541 -8.3917
L44.0325 -8.51935
L44.5085 -8.65538
L44.982 -8.79973
L45.4526 -8.95237
L45.9204 -9.11324
L46.3852 -9.28231
L46.8468 -9.45951
L47.3051 -9.6448
L47.76 -9.83812
L48.2113 -10.0394
L48.6588 -10.2486
L49.1026 -10.4656
L49.5423 -10.6905
L49.9779 -10.923
L50.4092 -11.1631
L50.8361 -11.4109
L51.2586 -11.6661
L51.6763 -11.9287
L52.0893 -12.1987
L52.4974 -12.4759
L52.9005 -12.7603
L53.2985 -13.0517
L53.6911 -13.3502
L54.0784 -13.6555
L54.4601 -13.9677
L54.8363 -14.2866
L55.2067 -14.612
L55.5712 -14.944
L55.9298 -15.2825
L56.2823 -15.6272
L56.6287 -15.9781
L56.9687 -16.3351
L57.3024 -16.6981
L57.6296 -17.067
L57.9502 -17.4417
L58.2641 -17.822
L58.5712 -18.2079
L58.8715 -18.5991
L59.1648 -18.9957
L59.451 -19.3975
L59.7301 -19.8043
L60.0019 -20.216
L60.2665 -20.6326
L60.5236 -21.0538
L60.7733 -21.4796
L61.0154 -21.9098
L61.2499 -22.3443
L61.4768 -22.7829
L61.6958 -23.2256
L61.9071 -23.6722
L62.1104 -24.1225
L62.3058 -24.5765
L62.4932 -25.0339
L62.6725 -25.4947
L62.8437 -25.9587
L63.0067 -26.4257
L63.1615 -26.8956
L63.308 -27.3684
L63.4461 -27.8437
L63.576 -28.3215
L63.6974 -28.8017
L63.8104 -29.2841
L63.9149 -29.7685
L64.0109 -30.2548
L64.0984 -30.7428
L64.1773 -31.2325
L64.2477 -31.7236
L64.3094 -32.216
L64.3625 -32.7096
L64.407 -33.2042
L64.4428 -33.6996
L64.47 -34.1957
L64.4885 -34.6924
L64.4983 -35.1894
L64.4994 -35.6868
L64.4919 -36.1842
L64.4756 -36.6815
L64.4507 -37.1787
L64.4171 -37.6755
L64.3749 -38.1717
L64.324 -38.6674
L64.2645 -39.1622
L64.1964 -39.656
L64.1197 -40.1487
L64.0345 -40.6402
L63.9407 -41.1302
L63.8383 -41.6187
L63.7275 -42.1055
L63.6083 -42.5904
L63.4806 -43.0733
L63.3446 -43.5541
L63.2003 -44.0325
L63.0476 -44.5085
L62.8868 -44.982
L62.7177 -45.4526
L62.5405 -45.9204
L62.3552 -46.3852
L62.1619 -46.8468
L61.9606 -47.3051
L61.7514 -47.76
L61.5344 -48.2113
L61.3095 -48.6588
L61.077 -49.1026
L60.8369 -49.5423
L60.5891 -49.9779
L60.3339 -50.4092
L60.0713 -50.8361
L59.8013 -51.2586
L59.5241 -51.6763
L59.2397 -52.0893
L58.9483 -52.4974
L58.6498 -52.9005
L58.3445 -53.2985
L58.0323 -53.6911
L57.7134 -54.0784
L57.388 -54.4601
L57.056 -54.8363
L56.7175 -55.2067
L56.3728 -55.5712
L56.0219 -55.9298
L55.6649 -56.2823
L55.3019 -56.6287
L54.933 -56.9687
L54.5583 -57.3024
L54.178 -57.6296
z
" id="C0_1_41325612e3"/>
     <path d="
M33.4992 -64.3086
L33.1714 -64.0971
L32.8383 -63.8831
L32.5009 -63.6664
L32.16 -63.4469
L31.8166 -63.2246
L31.4715 -62.9993
L31.1254 -62.771
L30.779 -62.5397
L30.433 -62.3055
L30.088 -62.0683
L29.7444 -61.8282
L29.4028 -61.5853
L29.0636 -61.3397
L28.7272 -61.0914
L28.3939 -60.8405
L28.0641 -60.5872
L27.738 -60.3316
L27.4158 -60.0738
L27.0978 -59.814
L26.7841 -59.5521
L26.4749 -59.2884
L26.1703 -59.0231
L25.8704 -58.7561
L25.5753 -58.4876
L25.285 -58.2178
L24.9997 -57.9468
L24.7192 -57.6746
L24.4437 -57.4014
L24.1731 -57.1273
L23.9075 -56.8523
L23.6467 -56.5766
L23.3909 -56.3002
L23.1399 -56.0232
L22.8938 -55.7458
L22.6524 -55.4678
L22.4158 -55.1895
L22.1838 -54.9109
L21.9565 -54.632
L21.7337 -54.3528
L21.5154 -54.0735
L21.3015 -53.7941
L21.0919 -53.5145
L20.8867 -53.2349
L20.6856 -52.9552
L20.4887 -52.6755
L20.2959 -52.3958
L20.1071 -52.116
L19.9222 -51.8363
L19.7412 -51.5566
L19.5639 -51.2769
L19.3904 -50.9972
L19.2205 -50.7176
L19.0543 -50.438
L18.8915 -50.1583
L18.7322 -49.8787
L18.5763 -49.599
L18.4237 -49.3193
L18.2744 -49.0396
L18.1283 -48.7598
L17.9854 -48.4798
L17.8456 -48.1998
L17.7088 -47.9196
L17.5751 -47.6393
L17.4443 -47.3587
L17.3164 -47.0779
L17.1914 -46.7969
L17.0692 -46.5155
L16.9498 -46.2338
L16.8331 -45.9518
L16.7191 -45.6693
L16.6078 -45.3864
L16.4992 -45.103
L16.3931 -44.8191
L16.2897 -44.5346
L16.1888 -44.2495
L16.0904 -43.9638
L15.9946 -43.6773
L15.9012 -43.3901
L15.8104 -43.1022
L15.7219 -42.8133
L15.636 -42.5237
L15.5524 -42.233
L15.4713 -41.9414
L15.3927 -41.6488
L15.3164 -41.3551
L15.2425 -41.0603
L15.1711 -40.7643
L15.1021 -40.467
L15.0355 -40.1685
L14.9714 -39.8687
L14.9096 -39.5675
L14.8504 -39.2648
L14.7936 -38.9607
L14.7392 -38.655
L14.6874 -38.3477
L14.6381 -38.0388
L14.5914 -37.7282
L14.5472 -37.4159
L14.5056 -37.1018
L14.4667 -36.7858
L14.4304 -36.468
L14.3968 -36.1482
L14.366 -35.8265
L14.338 -35.5027
L14.3127 -35.1768
L14.2904 -34.8489
L14.2709 -34.5187
L14.2545 -34.1864
L14.241 -33.8518
L14.2306 -33.515
L14.2234 -33.1758
L14.2193 -32.8344
L14.2185 -32.4905
L14.2211 -32.1443
L14.227 -31.7956
L14.2363 -31.4446
L14.2492 -31.0911
L14.2656 -30.7351
L14.2857 -30.3767
L14.3095 -30.0158
L14.3371 -29.6525
L14.3686 -29.2868
L14.404 -28.9186
L14.4434 -28.5481
L14.4868 -28.1752
L14.5344 -27.8
L14.5861 -27.4225
L14.6421 -27.0428
L14.7023 -26.661
L14.7669 -26.2771
L14.8359 -25.8913
L14.9092 -25.5035
L14.9869 -25.114
L15.0691 -24.7229
L15.1556 -24.3303
L15.2466 -23.9363
L15.3418 -23.5411
L15.4414 -23.1449
L15.5452 -22.7478
L15.6531 -22.3502
L15.765 -21.9521
L15.8807 -21.5538
L16 -21.1557
L16.1228 -20.7579
L16.2488 -20.3607
L16.3776 -19.9645
L16.5089 -19.5696
L16.6423 -19.1762
L16.7775 -18.7848
L16.9138 -18.3956
L17.0508 -18.0092
L17.1878 -17.6258
L17.3241 -17.2459
L17.4592 -16.8699
L17.592 -16.4981
L17.7219 -16.1311
L17.848 -15.7693
L17.9692 -15.413
L18.0847 -15.0628
L18.1935 -14.719
L18.2945 -14.382
L18.3868 -14.0523
L17.9834 -13.7302
L17.6008 -13.9171
L17.2237 -14.2349
L16.8524 -14.5594
L16.4869 -14.8903
L16.1273 -15.2277
L15.7738 -15.5714
L15.4265 -15.9214
L15.0854 -16.2774
L14.7507 -16.6395
L14.4225 -17.0074
L14.1008 -17.3812
L13.7858 -17.7606
L13.4776 -18.1456
L13.1763 -18.536
L12.8819 -18.9317
L12.5945 -19.3326
L12.3143 -19.7386
L12.0412 -20.1496
L11.7755 -20.5654
L11.5172 -20.9859
L11.2663 -21.4109
L11.0229 -21.8404
L10.7872 -22.2743
L10.5591 -22.7123
L10.3388 -23.1543
L10.1263 -23.6003
L9.9217 -24.05
L9.72503 -24.5034
L9.53636 -24.9603
L9.35575 -25.4205
L9.18326 -25.884
L9.01894 -26.3505
L8.86283 -26.82
L8.715 -27.2923
L8.57547 -27.7672
L8.4443 -28.2447
L8.32152 -28.7245
L8.20717 -29.2065
L8.10129 -29.6906
L8.00391 -30.1766
L7.91505 -30.6644
L7.83475 -31.1538
L7.76303 -31.6447
L7.69991 -32.1369
L7.64541 -32.6303
L7.59955 -33.1247
L7.56234 -33.62
L7.53379 -34.116
L7.51391 -34.6126
L7.50271 -35.1096
L7.50019 -35.6069
L7.50635 -36.1043
L7.52119 -36.6017
L7.54471 -37.0989
L7.57689 -37.5957
L7.61773 -38.0921
L7.66722 -38.5878
L7.72534 -39.0828
L7.79207 -39.5768
L7.86739 -40.0697
L7.95128 -40.5614
L8.04372 -41.0517
L8.14467 -41.5404
L8.25411 -42.0275
L8.37199 -42.5127
L8.4983 -42.9959
L8.63298 -43.4771
L8.776 -43.9559
L8.92731 -44.4323
L9.08686 -44.9061
L9.25462 -45.3773
L9.43052 -45.8455
L9.61452 -46.3108
L9.80655 -46.7729
L10.0066 -47.2318
L10.2145 -47.6872
L10.4303 -48.1391
L10.6538 -48.5873
L10.8851 -49.0316
L11.1241 -49.472
L11.3706 -49.9082
L11.6246 -50.3402
L11.8861 -50.7679
L12.1549 -51.1911
L12.4309 -51.6096
L12.7142 -52.0234
L13.0045 -52.4323
L13.3018 -52.8362
L13.6061 -53.2349
L13.9171 -53.6284
L14.2349 -54.0166
L14.5594 -54.3992
L14.8903 -54.7763
L15.2277 -55.1476
L15.5714 -55.5131
L15.9214 -55.8727
L16.2774 -56.2262
L16.6395 -56.5735
L17.0074 -56.9146
L17.3812 -57.2493
L17.7606 -57.5775
L18.1456 -57.8992
L18.536 -58.2142
L18.9317 -58.5224
L19.3326 -58.8237
L19.7386 -59.1181
L20.1496 -59.4055
L20.5654 -59.6857
L20.9859 -59.9588
L21.4109 -60.2245
L21.8404 -60.4828
L22.2743 -60.7337
L22.7123 -60.9771
L23.1543 -61.2128
L23.6003 -61.4409
L24.05 -61.6612
L24.5034 -61.8737
L24.9603 -62.0783
L25.4205 -62.275
L25.884 -62.4636
L26.3505 -62.6442
L26.82 -62.8167
L27.2923 -62.9811
L27.7672 -63.1372
L28.2447 -63.285
L28.7245 -63.4245
L29.2065 -63.5557
L29.6906 -63.6785
L30.1766 -63.7928
L30.6644 -63.8987
L31.1538 -63.9961
L31.6447 -64.0849
L32.1369 -64.1652
L32.6303 -64.237
z
" id="C0_2_e21e8e5e15"/>
    </defs>
    <g clip-path="url(#p1bffca34e9)">
     <use style="fill:#ff0000;stroke:#000000;stroke-width:2.0;" x="0.0" xlink:href="#C0_0_a811fe30f3" y="72.0"/>
    </g>
    <g clip-path="url(#p1bffca34e9)">
     <use style="fill:#ffffff;stroke:#000000;stroke-width:2.0;" x="0.0" xlink:href="#C0_1_41325612e3" y="72.0"/>
    </g>
    <g clip-path="url(#p1bffca34e9)">
     <use style="fill:#ffffff;stroke:#000000;stroke-width:2.0;" x="0.0" xlink:href="#C0_2_e21e8e5e15" y="72.0"/>
    </g>
   </g>
  </g>
 </g>
 <defs>
  <clipPath id="p1bffca34e9">
   <rect height="72.0" width="72.0" x="0.0" y="0.0"/>
  </clipPath>
 </defs>
</svg>
