<?xml version="1.0" encoding="utf-8" standalone="no"?>
<!DOCTYPE svg PUBLIC "-//W3C//DTD SVG 1.1//EN"
  "http://www.w3.org/Graphics/SVG/1.1/DTD/svg11.dtd">
<!-- Created with matplotlib (http://matplotlib.org/) -->
<svg height="72pt" version="1.1" viewBox="0 0 72 72" width="72pt" xmlns="http://www.w3.org/2000/svg" xmlns:xlink="http://www.w3.org/1999/xlink">
 <defs>
  <style type="text/css">
*{stroke-linecap:butt;stroke-linejoin:round;}
  </style>
 </defs>
 <g id="figure_1">
  <g id="patch_1">
   <path d="
M0 72
L72 72
L72 0
L0 0
z
" style="fill:none;"/>
  </g>
  <g id="axes_1">
   <g id="PatchCollection_1">
    <defs>
     <path d="
M36 -7.5
C43.5583 -7.5 50.808 -10.5029 56.1525 -15.8475
C61.4971 -21.192 64.5 -28.4417 64.5 -36
C64.5 -43.5583 61.4971 -50.808 56.1525 -56.1525
C50.808 -61.4971 43.5583 -64.5 36 -64.5
C28.4417 -64.5 21.192 -61.4971 15.8475 -56.1525
C10.5029 -50.808 7.5 -43.5583 7.5 -36
C7.5 -28.4417 10.5029 -21.192 15.8475 -15.8475
C21.192 -10.5029 28.4417 -7.5 36 -7.5
z
" id="C0_0_a811fe30f3"/>
     <path d="
M44.6194 -8.97125
L44.4451 -9.16691
L44.2898 -9.37526
L44.1523 -9.59544
L44.0314 -9.82657
L43.9258 -10.0678
L43.8342 -10.3183
L43.7554 -10.5772
L43.6881 -10.8438
L43.6313 -11.1174
L43.5837 -11.3973
L43.5444 -11.6827
L43.5124 -11.9733
L43.4868 -12.2682
L43.4669 -12.5671
L43.4519 -12.8694
L43.4411 -13.1748
L43.4341 -13.4826
L43.4301 -13.7926
L43.4288 -14.1045
L43.4298 -14.4177
L43.4326 -14.7322
L43.437 -15.0475
L43.4427 -15.3634
L43.4493 -15.6796
L43.4566 -15.996
L43.4646 -16.3123
L43.4729 -16.6283
L43.4814 -16.9439
L43.49 -17.2589
L43.4986 -17.5732
L43.5071 -17.8866
L43.5153 -18.199
L43.5233 -18.5104
L43.5309 -18.8206
L43.5381 -19.1296
L43.5448 -19.4372
L43.551 -19.7435
L43.5566 -20.0483
L43.5617 -20.3517
L43.5663 -20.6535
L43.5702 -20.9538
L43.5735 -21.2526
L43.5761 -21.5497
L43.5782 -21.8453
L43.5795 -22.1393
L43.5803 -22.4316
L43.5804 -22.7224
L43.5798 -23.0116
L43.5786 -23.2992
L43.5768 -23.5852
L43.5743 -23.8697
L43.5712 -24.1527
L43.5675 -24.4342
L43.5631 -24.7142
L43.5581 -24.9928
L43.5525 -25.27
L43.5463 -25.5458
L43.5395 -25.8202
L43.5321 -26.0934
L43.5241 -26.3653
L43.5155 -26.636
L43.5064 -26.9055
L43.4966 -27.1739
L43.4864 -27.4412
L43.4755 -27.7074
L43.4641 -27.9727
L43.4521 -28.237
L43.4396 -28.5004
L43.4266 -28.763
L43.413 -29.0247
L43.3988 -29.2858
L43.3842 -29.5461
L43.369 -29.8057
L43.3532 -30.0647
L43.337 -30.3232
L43.3202 -30.5812
L43.3028 -30.8388
L43.285 -31.0959
L43.2666 -31.3528
L43.2477 -31.6093
L43.2282 -31.8656
L43.2082 -32.1217
L43.1877 -32.3777
L43.1666 -32.6336
L43.1228 -32.8895
L43.1001 -33.1454
L43.0769 -33.4014
L43.053 -33.6575
L43.0286 -33.9139
L43.0037 -34.1705
L42.9781 -34.4273
L42.952 -34.6846
L42.9253 -34.9422
L42.898 -35.2004
L42.87 -35.459
L42.8415 -35.7182
L42.8123 -35.9781
L42.7825 -36.2386
L42.7521 -36.4999
L42.721 -36.7619
L42.6892 -37.0248
L42.6568 -37.2886
L42.6237 -37.5534
L42.5899 -37.8191
L42.5554 -38.0859
L42.5202 -38.3538
L42.4842 -38.6229
L42.4475 -38.8932
L42.4101 -39.1648
L42.3719 -39.4376
L42.3329 -39.7119
L42.2931 -39.9875
L42.2525 -40.2646
L42.2111 -40.5433
L42.1689 -40.8234
L42.1259 -41.1052
L42.082 -41.3886
L42.0372 -41.6737
L41.9916 -41.9605
L41.9451 -42.2491
L41.8978 -42.5395
L41.8495 -42.8317
L41.8003 -43.1258
L41.7502 -43.4218
L41.6993 -43.7197
L41.6474 -44.0195
L41.5946 -44.3213
L41.5409 -44.6251
L41.4863 -44.9308
L41.4308 -45.2386
L41.3744 -45.5483
L41.3172 -45.8601
L41.2592 -46.1738
L41.2003 -46.4895
L41.1407 -46.8072
L41.0803 -47.1268
L41.0192 -47.4483
L40.9575 -47.7717
L40.8952 -48.0968
L40.8324 -48.4238
L40.7692 -48.7523
L40.7057 -49.0825
L40.642 -49.4142
L40.5781 -49.7474
L40.5144 -50.0818
L40.4509 -50.4174
L40.3877 -50.7541
L40.3252 -51.0917
L40.2636 -51.43
L40.2031 -51.7689
L40.1439 -52.1081
L40.0866 -52.4475
L40.0313 -52.7868
L39.9786 -53.1258
L39.9288 -53.4642
L39.8826 -53.8018
L39.8404 -54.1381
L39.8029 -54.4729
L39.7708 -54.8059
L39.7448 -55.1366
L39.7257 -55.4646
L39.7144 -55.7896
L39.7119 -56.111
L39.7192 -56.4284
L39.7372 -56.7412
L39.7673 -57.049
L39.8104 -57.3511
L39.8677 -57.6471
L39.9404 -57.9362
L40.0296 -58.2179
L40.1363 -58.4916
L40.2615 -58.7566
L40.4059 -59.0123
L40.5703 -59.2582
L40.755 -59.4936
L40.9602 -59.7181
L41.1861 -59.9311
L41.4324 -60.1322
L41.6987 -60.3209
L41.9845 -60.497
L42.2888 -60.6601
L42.6109 -60.81
L42.9498 -60.9466
L43.3042 -61.0697
L43.673 -61.1791
L44.0551 -61.275
L44.4492 -61.3572
L44.8541 -61.4258
L45.2687 -61.4809
L45.6918 -61.5226
L46.1223 -61.5509
L46.5591 -61.566
L47.0013 -61.5681
L47.448 -61.5574
L47.8981 -61.5339
L48.351 -61.498
L48.8058 -61.4498
L49.2767 -61.3896
L49.7148 -61.2186
L50.1487 -60.9831
L50.5783 -60.7399
L51.0035 -60.4892
L51.4241 -60.2311
L51.84 -59.9655
L52.2511 -59.6927
L52.6572 -59.4127
L53.0583 -59.1255
L53.4541 -58.8312
L53.8447 -58.53
L54.2298 -58.222
L54.6093 -57.9072
L54.9832 -57.5857
L55.3513 -57.2576
L55.7136 -56.9231
L56.0698 -56.5822
L56.4199 -56.235
L56.7637 -55.8816
L57.1013 -55.5222
L57.4324 -55.1569
L57.757 -54.7857
L58.0749 -54.4088
L58.3862 -54.0263
L58.6906 -53.6383
L58.9881 -53.2449
L59.2786 -52.8463
L59.562 -52.4425
L59.8383 -52.0337
L60.1073 -51.6201
L60.3689 -51.2017
L60.6231 -50.7786
L60.8698 -50.3511
L61.1089 -49.9191
L61.3404 -49.483
L61.5642 -49.0427
L61.7802 -48.5985
L61.9883 -48.1504
L62.1885 -47.6986
L62.3808 -47.2433
L62.5649 -46.7845
L62.7411 -46.3225
L62.909 -45.8573
L63.0688 -45.3891
L63.2203 -44.918
L63.3635 -44.4443
L63.4984 -43.9679
L63.6249 -43.4891
L63.743 -43.0081
L63.8527 -42.5249
L63.9538 -42.0397
L64.0465 -41.5527
L64.1306 -41.064
L64.2061 -40.5737
L64.2731 -40.0821
L64.3314 -39.5892
L64.3811 -39.0952
L64.4222 -38.6003
L64.4546 -38.1046
L64.4783 -37.6082
L64.4934 -37.1114
L64.4998 -36.6142
L64.4975 -36.1168
L64.4865 -35.6194
L64.4668 -35.1221
L64.4385 -34.6251
L64.4015 -34.1285
L64.3558 -33.6325
L64.3016 -33.1372
L64.2387 -32.6427
L64.1672 -32.1493
L64.0871 -31.6571
L63.9984 -31.1661
L63.9013 -30.6767
L63.7956 -30.1888
L63.6815 -29.7028
L63.5589 -29.2186
L63.4279 -28.7366
L63.2886 -28.2567
L63.141 -27.7792
L62.9851 -27.3042
L62.821 -26.8319
L62.6487 -26.3623
L62.4683 -25.8957
L62.2798 -25.4321
L62.0833 -24.9718
L61.8789 -24.5148
L61.6666 -24.0614
L61.4465 -23.6115
L61.2186 -23.1655
L60.9831 -22.7233
L60.7399 -22.2852
L60.4892 -21.8513
L60.2311 -21.4217
L59.9655 -20.9965
L59.6927 -20.5759
L59.4127 -20.16
L59.1255 -19.7489
L58.8312 -19.3428
L58.53 -18.9417
L58.222 -18.5459
L57.9072 -18.1553
L57.5857 -17.7702
L57.2576 -17.3907
L56.9231 -17.0168
L56.5822 -16.6487
L56.235 -16.2864
L55.8816 -15.9302
L55.5222 -15.5801
L55.1569 -15.2363
L54.7857 -14.8987
L54.4088 -14.5676
L54.0263 -14.243
L53.6383 -13.9251
L53.2449 -13.6138
L52.8463 -13.3094
L52.4425 -13.0119
L52.0337 -12.7214
L51.6201 -12.438
L51.2017 -12.1617
L50.7786 -11.8927
L50.3511 -11.6311
L49.9191 -11.3769
L49.483 -11.1302
L49.0427 -10.8911
L48.5985 -10.6596
L48.1504 -10.4358
L47.6986 -10.2198
L47.2433 -10.0117
L46.7845 -9.81148
L46.3225 -9.61925
L45.8573 -9.43505
L45.3891 -9.25895
z
" id="C0_1_8a6e4f8e41"/>
     <path d="
M22.8131 -10.8255
L22.4944 -11.1573
L22.181 -11.4918
L21.8733 -11.8287
L21.5716 -12.1679
L21.2761 -12.5089
L20.9869 -12.8517
L20.7043 -13.1959
L20.4283 -13.5413
L20.1591 -13.8878
L19.8966 -14.235
L19.6409 -14.5829
L19.392 -14.9311
L19.1498 -15.2796
L18.9144 -15.6282
L18.6858 -15.9767
L18.4637 -16.3249
L18.2482 -16.6728
L18.0392 -17.0202
L17.8366 -17.3671
L17.6402 -17.7132
L17.4501 -18.0585
L17.266 -18.403
L17.0879 -18.7465
L16.9156 -19.089
L16.7491 -19.4305
L16.5882 -19.7708
L16.4329 -20.1099
L16.2829 -20.4478
L16.1382 -20.7846
L15.9986 -21.12
L15.8641 -21.4542
L15.7346 -21.7871
L15.6099 -22.1187
L15.4899 -22.449
L15.3745 -22.778
L15.2636 -23.1057
L15.1571 -23.4321
L15.055 -23.7573
L14.9571 -24.0812
L14.8633 -24.4039
L14.7735 -24.7254
L14.6877 -25.0457
L14.6058 -25.3649
L14.5277 -25.6829
L14.4533 -25.9999
L14.3826 -26.3158
L14.3154 -26.6306
L14.2518 -26.9445
L14.1916 -27.2575
L14.1348 -27.5695
L14.0813 -27.8807
L14.0311 -28.1911
L13.9841 -28.5008
L13.9404 -28.8097
L13.8997 -29.1179
L13.8622 -29.4255
L13.8277 -29.7326
L13.7963 -30.0391
L13.7678 -30.3451
L13.7423 -30.6507
L13.7198 -30.9559
L13.7001 -31.2608
L13.6834 -31.5654
L13.6695 -31.8698
L13.6585 -32.174
L13.6503 -32.4782
L13.645 -32.7822
L13.6424 -33.0862
L13.6428 -33.3903
L13.6459 -33.6944
L13.6518 -33.9987
L13.6606 -34.3032
L13.6722 -34.608
L13.6866 -34.913
L13.7039 -35.2184
L13.7241 -35.5242
L13.7471 -35.8304
L13.7731 -36.1372
L13.8019 -36.4445
L13.8337 -36.7524
L13.8685 -37.061
L13.9063 -37.3703
L13.9471 -37.6803
L13.991 -37.9912
L14.038 -38.3029
L14.0882 -38.6155
L14.1416 -38.929
L14.1982 -39.2435
L14.258 -39.559
L14.3213 -39.8756
L14.3879 -40.1933
L14.458 -40.5122
L14.5315 -40.8322
L14.6087 -41.1535
L14.6895 -41.476
L14.774 -41.7998
L14.8622 -42.1249
L14.9543 -42.4513
L15.0503 -42.7791
L15.1503 -43.1082
L15.2543 -43.4388
L15.3625 -43.7708
L15.475 -44.1041
L15.5917 -44.4389
L15.7128 -44.7752
L15.8384 -45.1128
L15.9685 -45.4519
L16.1032 -45.7923
L16.2427 -46.1342
L16.387 -46.4774
L16.5361 -46.822
L16.6903 -47.1678
L16.8494 -47.515
L17.0137 -47.8633
L17.1831 -48.2128
L17.3578 -48.5634
L17.5378 -48.915
L17.7232 -49.2675
L17.914 -49.621
L18.1102 -49.9752
L18.3119 -50.33
L18.519 -50.6854
L18.7317 -51.0413
L18.9498 -51.3974
L19.1734 -51.7537
L19.4023 -52.1101
L19.6366 -52.4663
L19.8761 -52.8222
L20.1206 -53.1776
L20.3702 -53.5324
L20.6244 -53.8864
L20.8832 -54.2393
L21.1462 -54.591
L21.4132 -54.9412
L21.6837 -55.2899
L21.9574 -55.6366
L22.2338 -55.9814
L22.5124 -56.3239
L22.7925 -56.6639
L23.0734 -57.0013
L23.3545 -57.3358
L23.6348 -57.6673
L23.9136 -57.9956
L24.1896 -58.3206
L24.462 -58.6422
L24.7295 -58.9602
L24.9909 -59.2745
L25.2448 -59.585
L25.49 -59.8918
L25.7251 -60.1947
L25.9487 -60.4938
L26.1594 -60.7891
L26.3559 -61.0806
L26.5369 -61.3683
L26.7015 -61.6522
L26.8486 -61.9323
L26.9775 -62.2087
L27.0875 -62.4814
L27.1782 -62.7502
L26.746 -63.0152
L26.277 -62.9558
L25.8109 -62.7902
L25.348 -62.6164
L24.8882 -62.4345
L24.4319 -62.2446
L23.9791 -62.0467
L23.5299 -61.8408
L23.0846 -61.6271
L22.6431 -61.4055
L22.2058 -61.1763
L21.7726 -60.9393
L21.3438 -60.6948
L20.9195 -60.4427
L20.4997 -60.1832
L20.0847 -59.9163
L19.6745 -59.6422
L19.2693 -59.3608
L18.8692 -59.0723
L18.4743 -58.7768
L18.0847 -58.4744
L17.7006 -58.1651
L17.3221 -57.8491
L16.9492 -57.5264
L16.5822 -57.1971
L16.221 -56.8614
L15.8659 -56.5193
L15.517 -56.171
L15.1743 -55.8166
L14.8379 -55.4561
L14.5079 -55.0896
L14.1845 -54.7174
L13.8678 -54.3395
L13.5578 -53.9559
L13.2546 -53.5669
L12.9584 -53.1726
L12.6692 -52.773
L12.3871 -52.3683
L12.1121 -51.9587
L11.8445 -51.5441
L11.5842 -51.1249
L11.3314 -50.701
L11.086 -50.2726
L10.8483 -49.8399
L10.6182 -49.403
L10.3958 -48.962
L10.1813 -48.5171
L9.9746 -48.0683
L9.77584 -47.6159
L9.58506 -47.1599
L9.40234 -46.7005
L9.22771 -46.2379
L9.06124 -45.7721
L8.90298 -45.3034
L8.75297 -44.8318
L8.61126 -44.3576
L8.47789 -43.8808
L8.35291 -43.4016
L8.23634 -42.9201
L8.12824 -42.4366
L8.02862 -41.951
L7.93753 -41.4637
L7.85498 -40.9747
L7.78101 -40.4842
L7.71563 -39.9923
L7.65887 -39.4992
L7.61074 -39.0051
L7.57126 -38.51
L7.54044 -38.0141
L7.51829 -37.5177
L7.50481 -37.0208
L7.50001 -36.5235
L7.5039 -36.0261
L7.51646 -35.5287
L7.5377 -35.0315
L7.56761 -34.5345
L7.60619 -34.038
L7.65341 -33.5421
L7.70926 -33.0469
L7.77373 -32.5527
L7.84681 -32.0595
L7.92845 -31.5674
L8.01865 -31.0768
L8.11737 -30.5876
L8.22459 -30.1001
L8.34026 -29.6144
L8.46436 -29.1306
L8.59685 -28.6489
L8.73768 -28.1695
L8.88682 -27.6924
L9.04422 -27.2179
L9.20983 -26.746
L9.3836 -26.277
L9.56548 -25.8109
L9.75541 -25.348
L9.95333 -24.8882
L10.1592 -24.4319
L10.3729 -23.9791
L10.5945 -23.5299
L10.8237 -23.0846
L11.0607 -22.6431
L11.3052 -22.2058
L11.5573 -21.7726
L11.8168 -21.3438
L12.0837 -20.9195
L12.3578 -20.4997
L12.6392 -20.0847
L12.9277 -19.6745
L13.2232 -19.2693
L13.5256 -18.8692
L13.8349 -18.4743
L14.1509 -18.0847
L14.4736 -17.7006
L14.8029 -17.3221
L15.1386 -16.9492
L15.4807 -16.5822
L15.829 -16.221
L16.1834 -15.8659
L16.5439 -15.517
L16.9104 -15.1743
L17.2826 -14.8379
L17.6605 -14.5079
L18.0441 -14.1845
L18.4331 -13.8678
L18.8274 -13.5578
L19.227 -13.2546
L19.6317 -12.9584
L20.0413 -12.6692
L20.4559 -12.3871
L20.8751 -12.1121
L21.299 -11.8445
L21.7274 -11.5842
L22.1601 -11.3314
z
" id="C0_2_4b544ab6b8"/>
    </defs>
    <g clip-path="url(#p1bffca34e9)">
     <use style="fill:#ff0000;stroke:#000000;stroke-width:2.0;" x="0.0" xlink:href="#C0_0_a811fe30f3" y="72.0"/>
    </g>
    <g clip-path="url(#p1bffca34e9)">
     <use style="fill:#ffffff;stroke:#000000;stroke-width:2.0;" x="0.0" xlink:href="#C0_1_8a6e4f8e41" y="72.0"/>
    </g>
    <g clip-path="url(#p1bffca34e9)">
     <use style="fill:#ffffff;stroke:#000000;stroke-width:2.0;" x="0.0" xlink:href="#C0_2_4b544ab6b8" y="72.0"/>
    </g>
   </g>
  </g>
 </g>
 <defs>
  <clipPath id="p1bffca34e9">
   <rect height="72.0" width="72.0" x="0.0" y="0.0"/>
  </clipPath>
 </defs>
</svg>
