<?xml version="1.0" encoding="utf-8" standalone="no"?>
<!DOCTYPE svg PUBLIC "-//W3C//DTD SVG 1.1//EN"
  "http://www.w3.org/Graphics/SVG/1.1/DTD/svg11.dtd">
<!-- Created with matplotlib (http://matplotlib.org/) -->
<svg height="72pt" version="1.1" viewBox="0 0 72 72" width="72pt" xmlns="http://www.w3.org/2000/svg" xmlns:xlink="http://www.w3.org/1999/xlink">
 <defs>
  <style type="text/css">
*{stroke-linecap:butt;stroke-linejoin:round;}
  </style>
 </defs>
 <g id="figure_1">
  <g id="patch_1">
   <path d="
M0 72
L72 72
L72 0
L0 0
z
" style="fill:none;"/>
  </g>
  <g id="axes_1">
   <g id="PatchCollection_1">
    <defs>
     <path d="
M36 -7.5
C43.5583 -7.5 50.808 -10.5029 56.1525 -15.8475
C61.4971 -21.192 64.5 -28.4417 64.5 -36
C64.5 -43.5583 61.4971 -50.808 56.1525 -56.1525
C50.808 -61.4971 43.5583 -64.5 36 -64.5
C28.4417 -64.5 21.192 -61.4971 15.8475 -56.1525
C10.5029 -50.808 7.5 -43.5583 7.5 -36
C7.5 -28.4417 10.5029 -21.192 15.8475 -15.8475
C21.192 -10.5029 28.4417 -7.5 36 -7.5
z
" id="C0_0_a811fe30f3"/>
     <path d="
M41.5422 -8.15759
L41.3395 -8.34574
L41.1574 -8.54439
L40.9954 -8.75301
L40.853 -8.97105
L40.7293 -9.19796
L40.6236 -9.4332
L40.5348 -9.67622
L40.4619 -9.9265
L40.404 -10.1835
L40.3598 -10.4468
L40.3284 -10.7158
L40.3087 -10.99
L40.2996 -11.2692
L40.3002 -11.5527
L40.3095 -11.8402
L40.3266 -12.1314
L40.3507 -12.4257
L40.3811 -12.723
L40.4169 -13.0228
L40.4576 -13.3249
L40.5026 -13.6289
L40.5512 -13.9346
L40.603 -14.2416
L40.6575 -14.5498
L40.7142 -14.859
L40.773 -15.1688
L40.8332 -15.4792
L40.8948 -15.7898
L40.9573 -16.1006
L41.0207 -16.4113
L41.0845 -16.7218
L41.1487 -17.032
L41.213 -17.3418
L41.2773 -17.651
L41.3416 -17.9594
L41.4055 -18.2671
L41.4691 -18.5739
L41.5323 -18.8798
L41.5949 -19.1846
L41.6569 -19.4883
L41.7182 -19.7909
L41.7789 -20.0923
L41.8387 -20.3924
L41.8978 -20.6912
L41.956 -20.9888
L42.0134 -21.2849
L42.0699 -21.5798
L42.1255 -21.8732
L42.1801 -22.1653
L42.2339 -22.456
L42.2867 -22.7453
L42.3386 -23.0332
L42.3896 -23.3198
L42.4397 -23.605
L42.4888 -23.8888
L42.537 -24.1714
L42.5842 -24.4526
L42.6306 -24.7325
L42.6761 -25.0111
L42.7206 -25.2885
L42.7643 -25.5647
L42.8071 -25.8398
L42.8491 -26.1137
L42.8902 -26.3864
L42.9304 -26.6581
L42.9698 -26.9288
L43.0084 -27.1985
L43.0462 -27.4672
L43.0832 -27.735
L43.1194 -28.0019
L43.1549 -28.268
L43.1896 -28.5333
L43.2235 -28.7978
L43.2567 -29.0617
L43.2892 -29.3249
L43.3209 -29.5875
L43.352 -29.8495
L43.3823 -30.111
L43.412 -30.3721
L43.441 -30.6327
L43.4693 -30.893
L43.4969 -31.1529
L43.5239 -31.4126
L43.5503 -31.6721
L43.576 -31.9314
L43.6011 -32.1906
L43.6256 -32.4497
L43.6494 -32.7087
L43.6953 -32.9679
L43.7173 -33.2271
L43.7387 -33.4864
L43.7596 -33.7459
L43.7798 -34.0057
L43.7995 -34.2657
L43.8186 -34.5261
L43.8371 -34.7869
L43.855 -35.0481
L43.8723 -35.3098
L43.8891 -35.5721
L43.9053 -35.8349
L43.9209 -36.0984
L43.9359 -36.3626
L43.9504 -36.6275
L43.9643 -36.8933
L43.9776 -37.1599
L43.9903 -37.4274
L44.0025 -37.6958
L44.014 -37.9653
L44.025 -38.2358
L44.0354 -38.5073
L44.0452 -38.7801
L44.0544 -39.054
L44.063 -39.3292
L44.071 -39.6056
L44.0785 -39.8834
L44.0853 -40.1626
L44.0914 -40.4432
L44.097 -40.7252
L44.102 -41.0088
L44.1063 -41.2938
L44.11 -41.5805
L44.1131 -41.8688
L44.1155 -42.1587
L44.1174 -42.4503
L44.1186 -42.7436
L44.1191 -43.0386
L44.119 -43.3354
L44.1183 -43.634
L44.117 -43.9343
L44.115 -44.2365
L44.1125 -44.5405
L44.1093 -44.8463
L44.1056 -45.1539
L44.1012 -45.4633
L44.0963 -45.7746
L44.0909 -46.0876
L44.085 -46.4024
L44.0785 -46.719
L44.0717 -47.0373
L44.0644 -47.3572
L44.0568 -47.6788
L44.0489 -48.0019
L44.0407 -48.3265
L44.0324 -48.6525
L44.0241 -48.9798
L44.0157 -49.3084
L44.0075 -49.6381
L43.9995 -49.9687
L43.9919 -50.3002
L43.9849 -50.6324
L43.9786 -50.9652
L43.9732 -51.2982
L43.969 -51.6315
L43.9662 -51.9646
L43.965 -52.2975
L43.9658 -52.6298
L43.9689 -52.9613
L43.9747 -53.2916
L43.9836 -53.6205
L43.996 -53.9476
L44.0124 -54.2725
L44.0335 -54.5949
L44.0596 -54.9143
L44.0916 -55.2303
L44.13 -55.5424
L44.1756 -55.8501
L44.2292 -56.1529
L44.2915 -56.4503
L44.3633 -56.7415
L44.4456 -57.0261
L44.5391 -57.3035
L44.6447 -57.5729
L44.7633 -57.8338
L44.8956 -58.0855
L45.0424 -58.3274
L45.2042 -58.5587
L45.3817 -58.779
L45.5753 -58.9875
L45.7852 -59.1838
L46.0117 -59.3672
L46.2548 -59.5374
L46.5142 -59.6938
L46.7897 -59.8362
L47.0809 -59.9642
L47.3872 -60.0776
L47.708 -60.1761
L48.0425 -60.2597
L48.3898 -60.3282
L48.7491 -60.3816
L49.1193 -60.4199
L49.4997 -60.4432
L49.8891 -60.4516
L50.2866 -60.4451
L50.6913 -60.424
L51.1298 -60.3884
L51.549 -60.1524
L51.9635 -59.8847
L52.3731 -59.6097
L52.7777 -59.3275
L53.1772 -59.0382
L53.5715 -58.7419
L53.9605 -58.4386
L54.3439 -58.1285
L54.7218 -57.8117
L55.094 -57.4882
L55.4603 -57.1582
L55.8207 -56.8218
L56.1751 -56.479
L56.5234 -56.1299
L56.8654 -55.7748
L57.201 -55.4136
L57.5302 -55.0465
L57.8528 -54.6735
L58.1688 -54.295
L58.478 -53.9108
L58.7803 -53.5212
L59.0758 -53.1262
L59.3642 -52.726
L59.6454 -52.3207
L59.9195 -51.9105
L60.1863 -51.4954
L60.4457 -51.0756
L60.6977 -50.6512
L60.9421 -50.2223
L61.179 -49.7891
L61.4082 -49.3517
L61.6296 -48.9102
L61.8433 -48.4648
L62.049 -48.0156
L62.2469 -47.5628
L62.4367 -47.1064
L62.6185 -46.6466
L62.7922 -46.1836
L62.9577 -45.7175
L63.115 -45.2485
L63.264 -44.7766
L63.4048 -44.302
L63.5371 -43.8249
L63.6611 -43.3455
L63.7767 -42.8638
L63.8838 -42.38
L63.9825 -41.8942
L64.0726 -41.4067
L64.1541 -40.9175
L64.2271 -40.4268
L64.2914 -39.9348
L64.3472 -39.4416
L64.3943 -38.9473
L64.4328 -38.4521
L64.4626 -37.9562
L64.4837 -37.4597
L64.4962 -36.9627
L64.5 -36.4654
L64.4951 -35.968
L64.4815 -35.4707
L64.4593 -34.9734
L64.4283 -34.4765
L64.3887 -33.9801
L64.3405 -33.4842
L64.2837 -32.9892
L64.2182 -32.495
L64.1441 -32.0019
L64.0615 -31.5101
L63.9703 -31.0196
L63.8705 -30.5306
L63.7623 -30.0433
L63.6457 -29.5578
L63.5206 -29.0742
L63.3871 -28.5928
L63.2453 -28.1136
L63.0952 -27.6368
L62.9369 -27.1626
L62.7703 -26.6911
L62.5956 -26.2224
L62.4128 -25.7567
L62.2219 -25.2941
L62.023 -24.8348
L61.8162 -24.3788
L61.6016 -23.9264
L61.3792 -23.4777
L61.149 -23.0328
L60.9112 -22.5918
L60.6657 -22.155
L60.4128 -21.7223
L60.1524 -21.294
L59.8847 -20.8702
L59.6097 -20.451
L59.3275 -20.0365
L59.0382 -19.6269
L58.7419 -19.2223
L58.4386 -18.8228
L58.1285 -18.4285
L57.8117 -18.0395
L57.4882 -17.6561
L57.1582 -17.2782
L56.8218 -16.906
L56.479 -16.5397
L56.1299 -16.1793
L55.7748 -15.8249
L55.4136 -15.4766
L55.0465 -15.1346
L54.6735 -14.799
L54.295 -14.4698
L53.9108 -14.1472
L53.5212 -13.8312
L53.1262 -13.522
L52.726 -13.2197
L52.3207 -12.9242
L51.9105 -12.6358
L51.4954 -12.3546
L51.0756 -12.0805
L50.6512 -11.8137
L50.2223 -11.5543
L49.7891 -11.3023
L49.3517 -11.0579
L48.9102 -10.821
L48.4648 -10.5918
L48.0156 -10.3704
L47.5628 -10.1567
L47.1064 -9.95097
L46.6466 -9.75314
L46.1836 -9.5633
L45.7175 -9.38152
L45.2485 -9.20785
L44.7766 -9.04233
L44.302 -8.88503
L43.8249 -8.73599
L43.3455 -8.59525
L42.8638 -8.46286
L42.38 -8.33886
z
" id="C0_1_7f4f794d16"/>
     <path d="
M21.0493 -11.9056
L20.8185 -12.2523
L20.5876 -12.6026
L20.3575 -12.9562
L20.1289 -13.3129
L19.9023 -13.6722
L19.6783 -14.034
L19.4573 -14.3979
L19.2397 -14.7637
L19.026 -15.131
L18.8165 -15.4996
L18.6113 -15.8692
L18.4108 -16.2396
L18.215 -16.6106
L18.0243 -16.982
L17.8386 -17.3535
L17.6581 -17.7249
L17.4829 -18.0961
L17.313 -18.4668
L17.1484 -18.837
L16.9891 -19.2065
L16.8351 -19.5751
L16.6865 -19.9427
L16.5431 -20.3092
L16.4049 -20.6745
L16.272 -21.0385
L16.1441 -21.4011
L16.0212 -21.7622
L15.9034 -22.1218
L15.7904 -22.4798
L15.6823 -22.8362
L15.5789 -23.1908
L15.4801 -23.5438
L15.3859 -23.895
L15.2962 -24.2444
L15.2109 -24.592
L15.1299 -24.9378
L15.0531 -25.2818
L14.9805 -25.624
L14.9119 -25.9644
L14.8473 -26.303
L14.7865 -26.6398
L14.7296 -26.9748
L14.6764 -27.3081
L14.6269 -27.6396
L14.5809 -27.9695
L14.5385 -28.2976
L14.4995 -28.6241
L14.4639 -28.949
L14.4316 -29.2723
L14.4025 -29.5941
L14.3767 -29.9143
L14.354 -30.2331
L14.3344 -30.5505
L14.3178 -30.8664
L14.3042 -31.1811
L14.2936 -31.4944
L14.2859 -31.8065
L14.281 -32.1174
L14.279 -32.4272
L14.2797 -32.7358
L14.2833 -33.0434
L14.2895 -33.35
L14.2985 -33.6557
L14.3102 -33.9604
L14.3245 -34.2643
L14.3415 -34.5673
L14.3611 -34.8697
L14.3833 -35.1713
L14.4081 -35.4722
L14.4355 -35.7726
L14.4655 -36.0724
L14.498 -36.3717
L14.5332 -36.6706
L14.5709 -36.969
L14.6112 -37.2671
L14.6541 -37.5649
L14.6996 -37.8625
L14.7477 -38.1599
L14.7984 -38.4571
L14.8518 -38.7542
L14.9078 -39.0513
L14.9664 -39.3483
L15.0277 -39.6454
L15.0918 -39.9426
L15.1586 -40.2399
L15.2281 -40.5374
L15.3004 -40.8351
L15.3756 -41.1331
L15.4536 -41.4313
L15.5345 -41.7299
L15.6184 -42.029
L15.7052 -42.3284
L15.795 -42.6283
L15.8879 -42.9287
L15.9839 -43.2296
L16.0831 -43.5311
L16.1854 -43.8332
L16.2911 -44.1359
L16.4 -44.4393
L16.5123 -44.7434
L16.6281 -45.0481
L16.7473 -45.3537
L16.8701 -45.6599
L16.9965 -45.9669
L17.1266 -46.2747
L17.2605 -46.5833
L17.3981 -46.8927
L17.5397 -47.2029
L17.6852 -47.514
L17.8347 -47.8258
L17.9883 -48.1384
L18.146 -48.4518
L18.308 -48.766
L18.4742 -49.081
L18.6449 -49.3967
L18.8199 -49.7131
L18.9994 -50.0302
L19.1835 -50.3479
L19.3721 -50.6662
L19.5655 -50.9851
L19.7635 -51.3044
L19.9662 -51.6243
L20.1738 -51.9444
L20.3861 -52.2649
L20.6033 -52.5856
L20.8253 -52.9064
L21.0521 -53.2272
L21.2837 -53.548
L21.5202 -53.8687
L21.7614 -54.189
L22.0073 -54.509
L22.2578 -54.8284
L22.5129 -55.1472
L22.7724 -55.4653
L23.0361 -55.7824
L23.3039 -56.0984
L23.5756 -56.4133
L23.851 -56.7268
L24.1297 -57.0388
L24.4115 -57.3492
L24.6961 -57.6577
L24.9829 -57.9644
L25.2716 -58.2689
L25.5618 -58.5713
L25.8527 -58.8713
L26.1439 -59.1688
L26.4346 -59.4638
L26.7242 -59.7562
L27.0118 -60.0458
L27.2966 -60.3326
L27.5777 -60.6165
L27.8541 -60.8976
L28.1248 -61.1759
L28.3888 -61.4512
L28.6449 -61.7238
L28.8919 -61.9936
L29.1289 -62.2606
L29.3545 -62.525
L29.5678 -62.7869
L29.7677 -63.0463
L29.9531 -63.3033
L30.1232 -63.5579
L29.7694 -63.8103
L29.2849 -63.8106
L28.8026 -63.6976
L28.3224 -63.5762
L27.8446 -63.4464
L27.3692 -63.3082
L26.8965 -63.1617
L26.4265 -63.007
L25.9595 -62.844
L25.4955 -62.6728
L25.0348 -62.4935
L24.5773 -62.3061
L24.1234 -62.1108
L23.673 -61.9074
L23.2264 -61.6962
L22.7838 -61.4772
L22.3451 -61.2504
L21.9106 -61.0159
L21.4804 -60.7737
L21.0546 -60.5241
L20.6333 -60.2669
L20.2168 -60.0024
L19.805 -59.7306
L19.3982 -59.4515
L18.9964 -59.1653
L18.5999 -58.872
L18.2086 -58.5718
L17.8227 -58.2647
L17.4424 -57.9508
L17.0677 -57.6302
L16.6988 -57.303
L16.3358 -56.9694
L15.9787 -56.6293
L15.6278 -56.283
L15.2831 -55.9305
L14.9447 -55.5719
L14.6126 -55.2074
L14.2872 -54.837
L13.9683 -54.4608
L13.6561 -54.0791
L13.3507 -53.6918
L13.0523 -53.2992
L12.7608 -52.9013
L12.4764 -52.4982
L12.1992 -52.0901
L11.9292 -51.6771
L11.6666 -51.2593
L11.4113 -50.8369
L11.1636 -50.41
L10.9234 -49.9787
L10.6909 -49.5431
L10.466 -49.1034
L10.249 -48.6597
L10.0398 -48.2121
L9.83848 -47.7608
L9.64515 -47.306
L9.45984 -46.8477
L9.28262 -46.3861
L9.11354 -45.9213
L8.95265 -45.4535
L8.8 -44.9828
L8.65563 -44.5094
L8.51959 -44.0334
L8.39193 -43.555
L8.27267 -43.0742
L8.16186 -42.5913
L8.05953 -42.1064
L7.96571 -41.6196
L7.88043 -41.1311
L7.80371 -40.6411
L7.73559 -40.1496
L7.67607 -39.6569
L7.62518 -39.1631
L7.58293 -38.6683
L7.54934 -38.1726
L7.52442 -37.6764
L7.50817 -37.1796
L7.5006 -36.6824
L7.50171 -36.1851
L7.5115 -35.6877
L7.52997 -35.1903
L7.55711 -34.6933
L7.59292 -34.1966
L7.63738 -33.7005
L7.69048 -33.2051
L7.7522 -32.7105
L7.82252 -32.2169
L7.90143 -31.7245
L7.9889 -31.2334
L8.0849 -30.7437
L8.18941 -30.2557
L8.30238 -29.7694
L8.42379 -29.2849
L8.55361 -28.8026
L8.69178 -28.3224
L8.83827 -27.8446
L8.99304 -27.3692
L9.15603 -26.8965
L9.32719 -26.4265
L9.50649 -25.9595
L9.69385 -25.4955
L9.88923 -25.0348
L10.0926 -24.5773
L10.3038 -24.1234
L10.5228 -23.673
L10.7496 -23.2264
L10.9841 -22.7838
L11.2263 -22.3451
L11.4759 -21.9106
L11.7331 -21.4804
L11.9976 -21.0546
L12.2694 -20.6333
L12.5485 -20.2168
L12.8347 -19.805
L13.128 -19.3982
L13.4282 -18.9964
L13.7353 -18.5999
L14.0492 -18.2086
L14.3698 -17.8227
L14.697 -17.4424
L15.0306 -17.0677
L15.3707 -16.6988
L15.717 -16.3358
L16.0695 -15.9787
L16.4281 -15.6278
L16.7926 -15.2831
L17.163 -14.9447
L17.5392 -14.6126
L17.9209 -14.2872
L18.3082 -13.9683
L18.7008 -13.6561
L19.0987 -13.3507
L19.5018 -13.0523
L19.9099 -12.7608
L20.3229 -12.4764
z
" id="C0_2_4e090d1a43"/>
    </defs>
    <g clip-path="url(#p1bffca34e9)">
     <use style="fill:#ff0000;stroke:#000000;stroke-width:2.0;" x="0.0" xlink:href="#C0_0_a811fe30f3" y="72.0"/>
    </g>
    <g clip-path="url(#p1bffca34e9)">
     <use style="fill:#ffffff;stroke:#000000;stroke-width:2.0;" x="0.0" xlink:href="#C0_1_7f4f794d16" y="72.0"/>
    </g>
    <g clip-path="url(#p1bffca34e9)">
     <use style="fill:#ffffff;stroke:#000000;stroke-width:2.0;" x="0.0" xlink:href="#C0_2_4e090d1a43" y="72.0"/>
    </g>
   </g>
  </g>
 </g>
 <defs>
  <clipPath id="p1bffca34e9">
   <rect height="72.0" width="72.0" x="0.0" y="0.0"/>
  </clipPath>
 </defs>
</svg>
