<?xml version="1.0" encoding="utf-8" standalone="no"?>
<!DOCTYPE svg PUBLIC "-//W3C//DTD SVG 1.1//EN"
  "http://www.w3.org/Graphics/SVG/1.1/DTD/svg11.dtd">
<!-- Created with matplotlib (http://matplotlib.org/) -->
<svg height="72pt" version="1.1" viewBox="0 0 72 72" width="72pt" xmlns="http://www.w3.org/2000/svg" xmlns:xlink="http://www.w3.org/1999/xlink">
 <defs>
  <style type="text/css">
*{stroke-linecap:butt;stroke-linejoin:round;}
  </style>
 </defs>
 <g id="figure_1">
  <g id="patch_1">
   <path d="
M0 72
L72 72
L72 0
L0 0
z
" style="fill:none;"/>
  </g>
  <g id="axes_1">
   <g id="PatchCollection_1">
    <defs>
     <path d="
M36 -7.5
C43.5583 -7.5 50.808 -10.5029 56.1525 -15.8475
C61.4971 -21.192 64.5 -28.4417 64.5 -36
C64.5 -43.5583 61.4971 -50.808 56.1525 -56.1525
C50.808 -61.4971 43.5583 -64.5 36 -64.5
C28.4417 -64.5 21.192 -61.4971 15.8475 -56.1525
C10.5029 -50.808 7.5 -43.5583 7.5 -36
C7.5 -28.4417 10.5029 -21.192 15.8475 -15.8475
C21.192 -10.5029 28.4417 -7.5 36 -7.5
z
" id="C0_0_a811fe30f3"/>
     <path d="
M30.2901 -8.23044
L30.4214 -8.44054
L30.5496 -8.65135
L30.6749 -8.86276
L30.7973 -9.07469
L30.917 -9.28704
L31.0341 -9.49975
L31.1488 -9.71274
L31.261 -9.92594
L31.371 -10.1393
L31.4787 -10.3528
L31.5844 -10.5664
L31.688 -10.78
L31.7897 -10.9937
L31.8896 -11.2073
L31.9876 -11.4209
L32.084 -11.6344
L32.1786 -11.8479
L32.2717 -12.0613
L32.3633 -12.2747
L32.4533 -12.488
L32.542 -12.7012
L32.6293 -12.9143
L32.7153 -13.1274
L32.8 -13.3404
L32.8835 -13.5534
L32.9658 -13.7664
L33.0471 -13.9793
L33.1272 -14.1923
L33.2062 -14.4053
L33.2843 -14.6184
L33.3614 -14.8316
L33.4376 -15.0449
L33.5129 -15.2583
L33.5873 -15.4719
L33.6608 -15.6856
L33.7336 -15.8996
L33.8056 -16.1139
L33.8769 -16.3285
L33.9474 -16.5434
L34.0173 -16.7587
L34.0865 -16.9744
L34.1551 -17.1905
L34.223 -17.4072
L34.2904 -17.6243
L34.3572 -17.8421
L34.4234 -18.0604
L34.4892 -18.2795
L34.6192 -18.4992
L34.6835 -18.7197
L34.7473 -18.941
L34.8107 -19.1631
L34.8738 -19.3861
L34.9364 -19.6101
L34.9986 -19.835
L35.0605 -20.061
L35.1221 -20.2882
L35.1833 -20.5164
L35.2442 -20.7459
L35.3048 -20.9766
L35.365 -21.2086
L35.425 -21.4421
L35.4848 -21.6769
L35.5442 -21.9132
L35.6034 -22.1511
L35.6624 -22.3906
L35.7211 -22.6317
L35.7796 -22.8745
L35.8379 -23.1192
L35.8959 -23.3656
L35.9537 -23.614
L36.0114 -23.8644
L36.0688 -24.1167
L36.126 -24.3712
L36.183 -24.6278
L36.2397 -24.8867
L36.2963 -25.1478
L36.3527 -25.4113
L36.4088 -25.6772
L36.4648 -25.9455
L36.5204 -26.2164
L36.5759 -26.49
L36.6311 -26.7661
L36.6861 -27.045
L36.7408 -27.3267
L36.7951 -27.6112
L36.8492 -27.8986
L36.903 -28.189
L36.9564 -28.4824
L37.0094 -28.7789
L37.0621 -29.0785
L37.1143 -29.3813
L37.166 -29.6873
L37.2172 -29.9965
L37.2679 -30.309
L37.318 -30.6249
L37.3674 -30.9441
L37.4162 -31.2667
L37.4642 -31.5927
L37.5113 -31.922
L37.5576 -32.2548
L37.6029 -32.591
L37.6471 -32.9306
L37.6901 -33.2736
L37.7319 -33.6198
L37.7724 -33.9694
L37.8113 -34.3222
L37.8486 -34.6782
L37.8842 -35.0373
L37.9178 -35.3993
L37.9493 -35.7642
L37.9785 -36.1318
L38.0052 -36.5021
L38.0291 -36.8747
L38.0501 -37.2495
L38.0678 -37.6263
L38.082 -38.0048
L38.0922 -38.3848
L38.0982 -38.766
L38.0996 -39.1479
L38.0958 -39.5302
L38.0865 -39.9125
L38.071 -40.2944
L38.0489 -40.6753
L38.0195 -41.0546
L37.9822 -41.4319
L37.9361 -41.8063
L37.8805 -42.1773
L37.8147 -42.544
L37.7377 -42.9057
L37.6486 -43.2615
L37.5466 -43.6106
L37.4308 -43.9519
L37.3003 -44.2847
L37.1544 -44.6079
L36.9924 -44.9207
L36.8137 -45.2223
L36.618 -45.5119
L36.4052 -45.7887
L36.1752 -46.0523
L35.9284 -46.3023
L35.6653 -46.5383
L35.3864 -46.7602
L35.0927 -46.9681
L34.785 -47.1621
L34.4646 -47.3423
L34.1324 -47.5092
L33.7897 -47.663
L33.4375 -47.8044
L33.0771 -47.9336
L32.7096 -48.0513
L32.3359 -48.1578
L31.9572 -48.2538
L31.5742 -48.3396
L31.1879 -48.4156
L30.7991 -48.4824
L30.4085 -48.5404
L30.0167 -48.5899
L29.6244 -48.6313
L29.2322 -48.6649
L28.8404 -48.6912
L28.4497 -48.7104
L28.0604 -48.7228
L27.6728 -48.7287
L27.2874 -48.7284
L26.9043 -48.7221
L26.5239 -48.7101
L26.1464 -48.6926
L25.772 -48.6699
L25.4008 -48.642
L25.0331 -48.6093
L24.6689 -48.572
L24.3084 -48.5301
L23.9516 -48.484
L23.5987 -48.4337
L23.2497 -48.3794
L22.9046 -48.3213
L22.5635 -48.2595
L22.2265 -48.1942
L21.8934 -48.1254
L21.5644 -48.0534
L21.2394 -47.9781
L20.9184 -47.8998
L20.6014 -47.8185
L20.2884 -47.7343
L19.9794 -47.6474
L19.6742 -47.5578
L19.3729 -47.4655
L19.0754 -47.3708
L18.7817 -47.2736
L18.4918 -47.174
L18.2055 -47.072
L17.9228 -46.9678
L17.6437 -46.8614
L17.3681 -46.7528
L17.0959 -46.6421
L16.8272 -46.5294
L16.5617 -46.4145
L16.2996 -46.2977
L16.0406 -46.1789
L15.7848 -46.0581
L15.532 -45.9354
L15.2823 -45.8108
L15.0356 -45.6843
L14.7917 -45.556
L14.5507 -45.4257
L14.3125 -45.2936
L14.077 -45.1596
L13.8442 -45.0237
L13.6141 -44.886
L13.3865 -44.7464
L13.1614 -44.6049
L12.9387 -44.4615
L12.7185 -44.3162
L12.5007 -44.169
L12.2852 -44.0198
L12.072 -43.8686
L11.861 -43.7155
L11.6522 -43.5603
L11.4455 -43.4031
L11.241 -43.2438
L11.0386 -43.0823
L10.8382 -42.9187
L10.6398 -42.7529
L10.4434 -42.5848
L10.249 -42.4145
L10.0565 -42.2417
L9.86597 -42.0666
L9.6773 -41.889
L9.49052 -41.7089
L9.30561 -41.5263
L9.12254 -41.341
L8.94132 -41.1529
L8.76194 -40.9621
L8.5844 -40.7685
L8.40869 -40.5719
L8.23481 -40.3723
L8.06279 -40.1695
L7.89261 -39.9637
L7.72431 -39.7545
L7.66349 -39.5419
L7.6146 -39.0483
L7.57436 -38.5533
L7.54279 -38.0575
L7.51988 -37.5611
L7.50564 -37.0642
L7.50008 -36.567
L7.50321 -36.0696
L7.51502 -35.5722
L7.5355 -35.0749
L7.56465 -34.5779
L7.60247 -34.0814
L7.64894 -33.5854
L7.70404 -33.0902
L7.76776 -32.5958
L7.84008 -32.1025
L7.92098 -31.6104
L8.01043 -31.1196
L8.10841 -30.6303
L8.21488 -30.1426
L8.32982 -29.6567
L8.45318 -29.1728
L8.58494 -28.6909
L8.72505 -28.2113
L8.87346 -27.734
L9.03014 -27.2592
L9.19504 -26.7871
L9.3681 -26.3179
L9.54927 -25.8515
L9.7385 -25.3883
L9.93573 -24.9283
L10.1409 -24.4716
L10.3539 -24.0185
L10.5748 -23.569
L10.8034 -23.1233
L11.0397 -22.6815
L11.2836 -22.2438
L11.535 -21.8103
L11.7938 -21.3811
L12.0601 -20.9564
L12.3336 -20.5362
L12.6143 -20.1207
L12.9022 -19.7101
L13.1971 -19.3045
L13.4989 -18.9039
L13.8076 -18.5085
L14.1231 -18.1185
L14.4452 -17.7339
L14.7739 -17.3549
L15.109 -16.9816
L15.4505 -16.614
L15.7983 -16.2524
L16.1522 -15.8967
L16.5122 -15.5472
L16.8781 -15.2039
L17.2498 -14.867
L17.6273 -14.5365
L18.0103 -14.2125
L18.3989 -13.8952
L18.7927 -13.5846
L19.1919 -13.2808
L19.5961 -12.984
L20.0054 -12.6942
L20.4195 -12.4114
L20.8383 -12.1359
L21.2618 -11.8676
L21.6898 -11.6066
L22.1221 -11.3531
L22.5587 -11.1072
L22.9993 -10.8687
L23.4439 -10.638
L23.8923 -10.415
L24.3445 -10.1997
L24.8001 -9.99234
L25.2592 -9.79288
L25.7216 -9.60141
L26.1871 -9.41798
L26.6555 -9.24264
L27.1269 -9.07546
L27.6009 -8.91648
L28.0775 -8.76574
L28.5565 -8.62331
L29.0377 -8.48921
L29.5211 -8.36349
z
" id="C0_1_643ee5348f"/>
     <path d="
M64.1715 -32.7057
L64.0576 -32.9533
L63.9407 -33.2
L63.8207 -33.4459
L63.6976 -33.691
L63.5713 -33.9353
L63.4419 -34.1791
L63.3093 -34.4222
L63.1735 -34.6647
L63.0344 -34.9067
L62.8919 -35.1482
L62.7461 -35.3893
L62.597 -35.63
L62.4444 -35.8703
L62.2882 -36.1103
L62.1286 -36.35
L61.9653 -36.5894
L61.7984 -36.8287
L61.6278 -37.0677
L61.4534 -37.3065
L61.2752 -37.5453
L61.0932 -37.7839
L60.9071 -38.0224
L60.7171 -38.2608
L60.523 -38.4992
L60.3247 -38.7375
L60.1223 -38.9758
L59.9156 -39.214
L59.7045 -39.4523
L59.4891 -39.6905
L59.2692 -39.9288
L59.0448 -40.167
L58.8158 -40.4052
L58.5822 -40.6434
L58.3439 -40.8816
L58.1009 -41.1198
L57.8532 -41.3579
L57.6006 -41.596
L57.3431 -41.8339
L57.0808 -42.0718
L56.8136 -42.3096
L56.5414 -42.5472
L56.2644 -42.7846
L55.9824 -43.0219
L55.6956 -43.2589
L55.4039 -43.4957
L55.1073 -43.7322
L54.8061 -43.9684
L54.5001 -44.2042
L54.1896 -44.4397
L53.8747 -44.6748
L53.5554 -44.9095
L53.232 -45.1438
L52.9047 -45.3777
L52.5737 -45.6112
L52.2392 -45.8443
L51.9016 -46.077
L51.5612 -46.3095
L51.2185 -46.5417
L50.8737 -46.7737
L50.5276 -47.0057
L50.1804 -47.2378
L49.833 -47.4701
L49.4859 -47.7029
L49.1399 -47.9364
L48.7958 -48.1709
L48.4544 -48.4067
L48.1167 -48.6442
L47.7837 -48.8837
L47.4564 -49.1258
L47.1359 -49.3709
L46.8233 -49.6195
L46.5197 -49.8722
L46.2262 -50.1294
L45.9439 -50.3916
L45.6736 -50.6594
L45.4162 -50.933
L45.1722 -51.2129
L44.9423 -51.499
L44.7265 -51.7917
L44.5249 -52.0907
L44.3374 -52.3958
L44.1636 -52.7069
L44.0029 -53.0234
L43.8548 -53.3449
L43.7184 -53.6707
L43.593 -54.0003
L43.4777 -54.333
L43.3715 -54.6682
L43.2738 -55.0052
L43.1835 -55.3434
L43.1001 -55.6822
L43.0227 -56.021
L42.9507 -56.3594
L42.8835 -56.6967
L42.8204 -57.0326
L42.7611 -57.3666
L42.705 -57.6985
L42.6516 -58.0278
L42.6008 -58.3542
L42.552 -58.6775
L42.505 -58.9976
L42.4596 -59.314
L42.4155 -59.6268
L42.3725 -59.9357
L42.3304 -60.2406
L42.2891 -60.5415
L42.2484 -60.8382
L42.2081 -61.1306
L42.1681 -61.4187
L42.1285 -61.7025
L42.0889 -61.982
L42.0495 -62.257
L42.01 -62.5278
L41.9705 -62.7941
L41.9308 -63.0562
L41.891 -63.3139
L41.851 -63.5674
L42.3136 -63.8166
L42.7977 -63.7919
L43.2797 -63.6775
L43.7595 -63.5546
L44.2369 -63.4234
L44.7118 -63.2838
L45.1841 -63.1359
L45.6535 -62.9797
L46.12 -62.8153
L46.5835 -62.6427
L47.0437 -62.4621
L47.5005 -62.2733
L47.9539 -62.0766
L48.4036 -61.8719
L48.8495 -61.6593
L49.2915 -61.4389
L49.7295 -61.2108
L50.1633 -60.975
L50.5927 -60.7316
L51.0178 -60.4806
L51.4382 -60.2222
L51.854 -59.9564
L52.2649 -59.6834
L52.6708 -59.4031
L53.0717 -59.1156
L53.4674 -58.8212
L53.8578 -58.5198
L54.2427 -58.2115
L54.6221 -57.8964
L54.9958 -57.5747
L55.3637 -57.2464
L55.7257 -56.9117
L56.0817 -56.5705
L56.4316 -56.2232
L56.7752 -55.8696
L57.1126 -55.51
L57.4435 -55.1444
L57.7678 -54.7731
L58.0856 -54.396
L58.3966 -54.0133
L58.7008 -53.6251
L58.998 -53.2315
L59.2883 -52.8327
L59.5715 -52.4288
L59.8475 -52.0198
L60.1162 -51.606
L60.3776 -51.1874
L60.6316 -50.7642
L60.878 -50.3365
L61.1169 -49.9045
L61.3481 -49.4682
L61.5716 -49.0278
L61.7873 -48.5834
L61.9952 -48.1352
L62.1951 -47.6833
L62.3871 -47.2278
L62.571 -46.769
L62.7469 -46.3068
L62.9145 -45.8415
L63.074 -45.3732
L63.2253 -44.9021
L63.3682 -44.4282
L63.5028 -43.9518
L63.6291 -43.4729
L63.7469 -42.9918
L63.8562 -42.5085
L63.9571 -42.0233
L64.0495 -41.5362
L64.1333 -41.0475
L64.2085 -40.5572
L64.2752 -40.0655
L64.3332 -39.5725
L64.3827 -39.0785
L64.4234 -38.5836
L64.4555 -38.0878
L64.479 -37.5915
L64.4937 -37.0946
L64.4998 -36.5974
L64.4972 -36.1
L64.486 -35.6026
L64.466 -35.1053
L64.4374 -34.6083
L64.4001 -34.1117
z
" id="C0_2_e0210f9782"/>
    </defs>
    <g clip-path="url(#p1bffca34e9)">
     <use style="fill:#ffffff;stroke:#000000;stroke-width:2.0;" x="0.0" xlink:href="#C0_0_a811fe30f3" y="72.0"/>
    </g>
    <g clip-path="url(#p1bffca34e9)">
     <use style="fill:#ff0000;stroke:#000000;stroke-width:2.0;" x="0.0" xlink:href="#C0_1_643ee5348f" y="72.0"/>
    </g>
    <g clip-path="url(#p1bffca34e9)">
     <use style="fill:#ff0000;stroke:#000000;stroke-width:2.0;" x="0.0" xlink:href="#C0_2_e0210f9782" y="72.0"/>
    </g>
   </g>
  </g>
 </g>
 <defs>
  <clipPath id="p1bffca34e9">
   <rect height="72.0" width="72.0" x="0.0" y="0.0"/>
  </clipPath>
 </defs>
</svg>
