<?xml version="1.0" encoding="utf-8" standalone="no"?>
<!DOCTYPE svg PUBLIC "-//W3C//DTD SVG 1.1//EN"
  "http://www.w3.org/Graphics/SVG/1.1/DTD/svg11.dtd">
<!-- Created with matplotlib (http://matplotlib.org/) -->
<svg height="72pt" version="1.1" viewBox="0 0 72 72" width="72pt" xmlns="http://www.w3.org/2000/svg" xmlns:xlink="http://www.w3.org/1999/xlink">
 <defs>
  <style type="text/css">
*{stroke-linecap:butt;stroke-linejoin:round;}
  </style>
 </defs>
 <g id="figure_1">
  <g id="patch_1">
   <path d="
M0 72
L72 72
L72 0
L0 0
z
" style="fill:none;"/>
  </g>
  <g id="axes_1">
   <g id="PatchCollection_1">
    <defs>
     <path d="
M36 -7.5
C43.5583 -7.5 50.808 -10.5029 56.1525 -15.8475
C61.4971 -21.192 64.5 -28.4417 64.5 -36
C64.5 -43.5583 61.4971 -50.808 56.1525 -56.1525
C50.808 -61.4971 43.5583 -64.5 36 -64.5
C28.4417 -64.5 21.192 -61.4971 15.8475 -56.1525
C10.5029 -50.808 7.5 -43.5583 7.5 -36
C7.5 -28.4417 10.5029 -21.192 15.8475 -15.8475
C21.192 -10.5029 28.4417 -7.5 36 -7.5
z
" id="C0_0_a811fe30f3"/>
     <path d="
M49.7007 -11.1155
L49.5942 -11.2762
L49.4883 -11.4377
L49.383 -11.6001
L49.2783 -11.7633
L49.1743 -11.9274
L49.0707 -12.0922
L48.9676 -12.2579
L48.865 -12.4245
L48.7628 -12.5919
L48.661 -12.7602
L48.5596 -12.9293
L48.4585 -13.0993
L48.3577 -13.2702
L48.2571 -13.442
L48.1568 -13.6147
L48.0567 -13.7884
L47.9567 -13.9631
L47.8569 -14.1387
L47.7573 -14.3154
L47.6577 -14.4931
L47.4587 -14.6718
L47.3593 -14.8517
L47.2598 -15.0327
L47.1603 -15.2148
L47.0608 -15.3981
L46.9612 -15.5826
L46.8614 -15.7684
L46.7616 -15.9555
L46.6616 -16.1439
L46.5614 -16.3336
L46.4611 -16.5247
L46.3605 -16.7173
L46.2597 -16.9113
L46.1586 -17.1069
L46.0572 -17.3039
L45.9556 -17.5026
L45.8536 -17.703
L45.7513 -17.905
L45.6487 -18.1087
L45.5457 -18.3143
L45.4422 -18.5216
L45.3384 -18.7308
L45.2342 -18.9419
L45.1295 -19.155
L45.0244 -19.3701
L44.9188 -19.5873
L44.8127 -19.8065
L44.7061 -20.028
L44.5991 -20.2516
L44.4915 -20.4775
L44.3834 -20.7057
L44.2748 -20.9363
L44.1656 -21.1693
L44.0559 -21.4047
L43.9457 -21.6427
L43.835 -21.8832
L43.7237 -22.1264
L43.6119 -22.3722
L43.4996 -22.6207
L43.3868 -22.872
L43.2734 -23.126
L43.1597 -23.3829
L43.0454 -23.6427
L42.9307 -23.9054
L42.8156 -24.1711
L42.7002 -24.4398
L42.5844 -24.7115
L42.4683 -24.9862
L42.352 -25.264
L42.2356 -25.545
L42.119 -25.829
L42.0023 -26.1162
L41.8857 -26.4066
L41.7693 -26.7001
L41.653 -26.9967
L41.5371 -27.2965
L41.4216 -27.5994
L41.3067 -27.9054
L41.1925 -28.2144
L41.0791 -28.5265
L40.9669 -28.8416
L40.8558 -29.1596
L40.7462 -29.4804
L40.6382 -29.8041
L40.5321 -30.1304
L40.4282 -30.4593
L40.3267 -30.7907
L40.2279 -31.1244
L40.1322 -31.4604
L40.0398 -31.7984
L39.9512 -32.1384
L39.8668 -32.48
L39.787 -32.8232
L39.7122 -33.1676
L39.6429 -33.5132
L39.5796 -33.8596
L39.5228 -34.2066
L39.473 -34.5539
L39.4308 -34.9012
L39.3967 -35.2483
L39.3713 -35.5949
L39.355 -35.9405
L39.3486 -36.285
L39.3524 -36.6279
L39.367 -36.9691
L39.3928 -37.308
L39.4302 -37.6444
L39.4795 -37.9781
L39.5411 -38.3086
L39.615 -38.6358
L39.7014 -38.9593
L39.8003 -39.2789
L39.9117 -39.5943
L40.0353 -39.9054
L40.171 -40.212
L40.3184 -40.5139
L40.4771 -40.811
L40.6467 -41.1032
L40.8267 -41.3904
L41.0165 -41.6726
L41.2155 -41.9496
L41.4233 -42.2214
L41.639 -42.4881
L41.8623 -42.7497
L42.0923 -43.0061
L42.3286 -43.2573
L42.5705 -43.5034
L42.8175 -43.7444
L43.0691 -43.9804
L43.3246 -44.2114
L43.5837 -44.4374
L43.8459 -44.6584
L44.1107 -44.8746
L44.3776 -45.086
L44.6465 -45.2926
L44.9167 -45.4945
L45.1882 -45.6917
L45.4604 -45.8843
L45.7332 -46.0725
L46.0063 -46.2561
L46.2794 -46.4353
L46.5523 -46.6102
L46.8249 -46.7808
L47.0969 -46.9472
L47.3682 -47.1094
L47.6387 -47.2675
L47.9081 -47.4217
L48.1764 -47.5718
L48.4435 -47.7181
L48.7093 -47.8606
L48.9737 -47.9992
L49.2366 -48.1343
L49.498 -48.2656
L49.7578 -48.3934
L50.016 -48.5178
L50.2725 -48.6386
L50.5274 -48.7562
L50.7805 -48.8704
L51.0319 -48.9813
L51.2816 -49.089
L51.5296 -49.1937
L51.7758 -49.2952
L52.0203 -49.3937
L52.263 -49.4892
L52.5041 -49.5819
L52.7434 -49.6716
L52.9811 -49.7585
L53.2171 -49.8427
L53.4515 -49.9241
L53.6844 -50.0028
L53.9156 -50.0789
L54.1453 -50.1524
L54.3734 -50.2234
L54.6001 -50.2918
L54.8254 -50.3577
L55.0493 -50.4211
L55.2718 -50.4822
L55.4929 -50.5408
L55.7128 -50.597
L55.9314 -50.6509
L56.1488 -50.7025
L56.3651 -50.7518
L56.5802 -50.7988
L56.7942 -50.8435
L57.0072 -50.8859
L57.2192 -50.9261
L57.4303 -50.9641
L57.6404 -50.9998
L57.8497 -51.0334
L58.0581 -51.0647
L58.2658 -51.0938
L58.4727 -51.1206
L58.6789 -51.1453
L58.8845 -51.1677
L59.0895 -51.1878
L59.2939 -51.2058
L59.4978 -51.2214
L59.7012 -51.2348
L59.9042 -51.2458
L60.2888 -51.2545
L60.5453 -50.9099
L60.7943 -50.4838
L61.0358 -50.0532
L61.2697 -49.6183
L61.4958 -49.1793
L61.7142 -48.7363
L61.9248 -48.2894
L62.1274 -47.8387
L62.3222 -47.3845
L62.5088 -46.9268
L62.6875 -46.4657
L62.8579 -46.0015
L63.0202 -45.5342
L63.1743 -45.064
L63.3201 -44.5911
L63.4576 -44.1155
L63.5867 -43.6375
L63.7074 -43.1571
L63.8197 -42.6746
L63.9235 -42.19
L64.0188 -41.7035
L64.1055 -41.2153
L64.1837 -40.7255
L64.2533 -40.2343
L64.3143 -39.7418
L64.3667 -39.2481
L64.4104 -38.7535
L64.4455 -38.258
L64.4719 -37.7618
L64.4897 -37.2651
L64.4987 -36.768
L64.4991 -36.2707
L64.4908 -35.7733
L64.4738 -35.2759
L64.4482 -34.7788
L64.4139 -34.282
L64.3709 -33.7858
L64.3193 -33.2903
L64.259 -32.7955
L64.1902 -32.3018
L64.1128 -31.8092
L64.0268 -31.3178
L63.9322 -30.8279
L63.8292 -30.3395
L63.7177 -29.8529
L63.5977 -29.3682
L63.4693 -28.8854
L63.3326 -28.4049
L63.1875 -27.9266
L63.0342 -27.4508
L62.8726 -26.9777
L62.7028 -26.5072
L62.5249 -26.0397
L62.339 -25.5752
L62.145 -25.1138
L61.943 -24.6558
L61.7331 -24.2012
L61.5154 -23.7503
L61.2899 -23.303
L61.0568 -22.8597
L60.8159 -22.4203
L60.5676 -21.9851
L60.3117 -21.5541
L60.0485 -21.1275
L59.7779 -20.7055
L59.5 -20.2881
L59.215 -19.8755
L58.923 -19.4679
L58.6239 -19.0652
L58.318 -18.6677
L58.0053 -18.2755
L57.6858 -17.8887
L57.3598 -17.5074
L57.0272 -17.1318
L56.6883 -16.7619
L56.343 -16.3978
L55.9916 -16.0398
L55.634 -15.6878
L55.2705 -15.342
L54.9011 -15.0024
L54.526 -14.6693
L54.1452 -14.3427
L53.7589 -14.0227
L53.3671 -13.7093
L52.9701 -13.4028
L52.5679 -13.1032
L52.1607 -12.8105
L51.7485 -12.5249
L51.3316 -12.2464
L50.9099 -11.9752
L50.4838 -11.7112
z
" id="C0_1_96de5463c3"/>
     <path d="
M11.946 -20.7725
L12.0385 -20.9533
L12.1325 -21.1343
L12.2279 -21.3154
L12.3249 -21.4968
L12.4234 -21.6784
L12.5234 -21.8604
L12.625 -22.0427
L12.7281 -22.2255
L12.8328 -22.4086
L12.9391 -22.5923
L13.047 -22.7764
L13.1566 -22.9612
L13.2678 -23.1465
L13.3806 -23.3325
L13.4952 -23.5192
L13.6115 -23.7067
L13.7296 -23.8949
L13.8494 -24.0839
L13.971 -24.2739
L14.0945 -24.4647
L14.2198 -24.6565
L14.347 -24.8493
L14.4761 -25.0431
L14.6071 -25.2381
L14.7401 -25.4341
L14.8751 -25.6314
L15.0122 -25.8299
L15.1513 -26.0296
L15.2925 -26.2307
L15.4359 -26.4331
L15.5814 -26.6369
L15.729 -26.8421
L15.879 -27.0488
L16.0311 -27.2571
L16.1855 -27.4669
L16.3423 -27.6783
L16.5014 -27.8914
L16.6628 -28.1062
L16.8266 -28.3227
L16.9928 -28.541
L17.1615 -28.7611
L17.3326 -28.983
L17.5061 -29.2069
L17.6821 -29.4327
L17.8606 -29.6604
L18.0415 -29.8901
L18.2249 -30.1219
L18.4108 -30.3557
L18.5991 -30.5916
L18.7899 -30.8296
L18.983 -31.0697
L19.1786 -31.3121
L19.3764 -31.5566
L19.5766 -31.8033
L19.7789 -32.0523
L19.9834 -32.3035
L20.19 -32.557
L20.3985 -32.8128
L20.6089 -33.0709
L20.821 -33.3313
L21.0347 -33.594
L21.2497 -33.859
L21.4661 -34.1264
L21.6835 -34.396
L21.9017 -34.6681
L22.1204 -34.9424
L22.3395 -35.2191
L22.5586 -35.4981
L22.7775 -35.7795
L22.9956 -36.0632
L23.2128 -36.3492
L23.4285 -36.6375
L23.6424 -36.9282
L23.854 -37.2212
L24.0627 -37.5165
L24.2682 -37.8142
L24.4698 -38.1141
L24.6669 -38.4165
L24.8591 -38.7211
L25.0457 -39.0281
L25.226 -39.3374
L25.3996 -39.649
L25.5657 -39.963
L25.7239 -40.2793
L25.8735 -40.5978
L26.014 -40.9186
L26.145 -41.2416
L26.266 -41.5668
L26.3767 -41.894
L26.4768 -42.2232
L26.5662 -42.5542
L26.6446 -42.887
L26.7121 -43.2213
L26.7687 -43.5571
L26.8145 -43.8941
L26.8499 -44.2321
L26.8749 -44.5709
L26.8901 -44.9102
L26.8958 -45.2499
L26.8924 -45.5896
L26.8804 -45.9292
L26.8603 -46.2683
L26.8326 -46.6068
L26.7978 -46.9443
L26.7563 -47.2807
L26.7089 -47.6157
L26.6558 -47.949
L26.5975 -48.2805
L26.5346 -48.6101
L26.4675 -48.9373
L26.3965 -49.2622
L26.3221 -49.5846
L26.2447 -49.9042
L26.1644 -50.221
L26.0818 -50.5349
L25.997 -50.8456
L25.9104 -51.1532
L25.8221 -51.4575
L25.7325 -51.7585
L25.6418 -52.0561
L25.5501 -52.3503
L25.4576 -52.6409
L25.3645 -52.928
L25.2709 -53.2115
L25.177 -53.4914
L25.0829 -53.7678
L24.9887 -54.0405
L24.8945 -54.3096
L24.8003 -54.5752
L24.7064 -54.8371
L24.6127 -55.0955
L24.5193 -55.3504
L24.4262 -55.6017
L24.3336 -55.8496
L24.2415 -56.094
L24.1498 -56.335
L24.0587 -56.5726
L23.9681 -56.8069
L23.8781 -57.038
L23.7887 -57.2658
L23.6999 -57.4904
L23.6118 -57.7118
L23.5242 -57.9302
L23.4374 -58.1455
L23.3511 -58.3579
L23.2656 -58.5673
L23.1806 -58.7739
L23.0964 -58.9776
L23.0127 -59.1786
L22.9297 -59.3768
L22.8473 -59.5724
L22.7655 -59.7654
L22.6844 -59.9558
L22.6038 -60.1437
L22.5239 -60.3292
L22.4444 -60.5122
L22.3656 -60.6929
L21.8061 -60.8713
L21.3769 -60.714
L20.9522 -60.4625
L20.5321 -60.2036
L20.1167 -59.9373
L19.7061 -59.6637
L19.3005 -59.3829
L18.9 -59.0949
L18.5047 -58.8
L18.1147 -58.4981
L17.7301 -58.1893
L17.3512 -57.8738
L16.9779 -57.5516
L16.6104 -57.2229
L16.2488 -56.8876
L15.8932 -56.5461
L15.5438 -56.1982
L15.2006 -55.8442
L14.8637 -55.4842
L14.5333 -55.1182
L14.2094 -54.7464
L13.8921 -54.3689
L13.5816 -53.9859
L13.2779 -53.5973
L12.9811 -53.2033
L12.6913 -52.8042
L12.4087 -52.3999
L12.1332 -51.9906
L11.865 -51.5764
L11.6041 -51.1575
L11.3507 -50.734
L11.1048 -50.306
L10.8664 -49.8736
L10.6357 -49.437
L10.4128 -48.9963
L10.1976 -48.5517
L9.99033 -48.1032
L9.79095 -47.6511
L9.59956 -47.1953
L9.41621 -46.7362
L9.24095 -46.2738
L9.07385 -45.8083
L8.91495 -45.3398
L8.7643 -44.8685
L8.62194 -44.3944
L8.48793 -43.9178
L8.36229 -43.4388
L8.24507 -42.9575
L8.13631 -42.4741
L8.03604 -41.9887
L7.94428 -41.5015
L7.86107 -41.0127
L7.78643 -40.5223
L7.72039 -40.0305
L7.66296 -39.5375
L7.61416 -39.0434
L7.57401 -38.5484
L7.54252 -38.0526
L7.51969 -37.5562
L7.50554 -37.0593
L7.50007 -36.5621
L7.50329 -36.0647
L7.51518 -35.5673
L7.53575 -35.07
L7.56499 -34.573
L7.60289 -34.0765
L7.64944 -33.5805
L7.70462 -33.0853
L7.76843 -32.5909
L7.84084 -32.0976
L7.92182 -31.6055
L8.01136 -31.1147
L8.10942 -30.6255
L8.21597 -30.1378
L8.331 -29.6519
L8.45444 -29.168
L8.58628 -28.6862
L8.72647 -28.2065
L8.87497 -27.7293
L9.03173 -27.2546
L9.19671 -26.7825
L9.36985 -26.3132
L9.5511 -25.8469
L9.74041 -25.3837
L9.93771 -24.9237
L10.143 -24.4671
L10.3561 -24.014
L10.577 -23.5646
L10.8057 -23.1189
L11.042 -22.6772
L11.286 -22.2395
L11.5375 -21.8061
z
" id="C0_2_1e775feedc"/>
    </defs>
    <g clip-path="url(#p1bffca34e9)">
     <use style="fill:#ffffff;stroke:#000000;stroke-width:2.0;" x="0.0" xlink:href="#C0_0_a811fe30f3" y="72.0"/>
    </g>
    <g clip-path="url(#p1bffca34e9)">
     <use style="fill:#ff0000;stroke:#000000;stroke-width:2.0;" x="0.0" xlink:href="#C0_1_96de5463c3" y="72.0"/>
    </g>
    <g clip-path="url(#p1bffca34e9)">
     <use style="fill:#ff0000;stroke:#000000;stroke-width:2.0;" x="0.0" xlink:href="#C0_2_1e775feedc" y="72.0"/>
    </g>
   </g>
  </g>
 </g>
 <defs>
  <clipPath id="p1bffca34e9">
   <rect height="72.0" width="72.0" x="0.0" y="0.0"/>
  </clipPath>
 </defs>
</svg>
