<?xml version="1.0" encoding="utf-8" standalone="no"?>
<!DOCTYPE svg PUBLIC "-//W3C//DTD SVG 1.1//EN"
  "http://www.w3.org/Graphics/SVG/1.1/DTD/svg11.dtd">
<!-- Created with matplotlib (http://matplotlib.org/) -->
<svg height="72pt" version="1.1" viewBox="0 0 72 72" width="72pt" xmlns="http://www.w3.org/2000/svg" xmlns:xlink="http://www.w3.org/1999/xlink">
 <defs>
  <style type="text/css">
*{stroke-linecap:butt;stroke-linejoin:round;}
  </style>
 </defs>
 <g id="figure_1">
  <g id="patch_1">
   <path d="
M0 72
L72 72
L72 0
L0 0
z
" style="fill:none;"/>
  </g>
  <g id="axes_1">
   <g id="PatchCollection_1">
    <defs>
     <path d="
M36 -7.5
C43.5583 -7.5 50.808 -10.5029 56.1525 -15.8475
C61.4971 -21.192 64.5 -28.4417 64.5 -36
C64.5 -43.5583 61.4971 -50.808 56.1525 -56.1525
C50.808 -61.4971 43.5583 -64.5 36 -64.5
C28.4417 -64.5 21.192 -61.4971 15.8475 -56.1525
C10.5029 -50.808 7.5 -43.5583 7.5 -36
C7.5 -28.4417 10.5029 -21.192 15.8475 -15.8475
C21.192 -10.5029 28.4417 -7.5 36 -7.5
z
" id="C0_0_a811fe30f3"/>
     <path d="
M46.2636 -36.9591
L46.2084 -37.2196
L46.1514 -37.4799
L46.0927 -37.74
L46.0322 -37.9998
L45.97 -38.2595
L45.9059 -38.5191
L45.8401 -38.7785
L45.7725 -39.0379
L45.703 -39.2973
L45.6316 -39.5567
L45.5583 -39.8161
L45.4832 -40.0756
L45.406 -40.3353
L45.327 -40.5951
L45.2459 -40.8551
L45.1627 -41.1153
L45.0775 -41.3758
L44.9902 -41.6365
L44.9008 -41.8975
L44.8091 -42.1589
L44.7152 -42.4206
L44.6191 -42.6826
L44.5206 -42.9451
L44.4198 -43.208
L44.3165 -43.4712
L44.2108 -43.735
L44.1026 -43.9991
L43.9918 -44.2638
L43.8783 -44.5289
L43.7622 -44.7944
L43.6433 -45.0604
L43.5216 -45.3269
L43.397 -45.5939
L43.2695 -45.8612
L43.1389 -46.129
L43.0053 -46.3972
L42.8685 -46.6658
L42.7284 -46.9347
L42.5851 -47.204
L42.4383 -47.4735
L42.2881 -47.7433
L42.1344 -48.0132
L41.977 -48.2832
L41.8159 -48.5533
L41.651 -48.8234
L41.4822 -49.0933
L41.3094 -49.3631
L41.1325 -49.6325
L40.9515 -49.9015
L40.7663 -50.17
L40.5767 -50.4378
L40.3826 -50.7048
L40.184 -50.9709
L39.9809 -51.2358
L39.7729 -51.4994
L39.5602 -51.7614
L39.3426 -52.0218
L39.12 -52.2802
L38.8923 -52.5364
L38.6594 -52.7902
L38.4213 -53.0413
L38.1779 -53.2893
L37.929 -53.534
L37.6747 -53.7751
L37.4148 -54.0121
L37.1493 -54.2448
L36.8781 -54.4727
L36.6012 -54.6953
L36.3185 -54.9124
L36.03 -55.1234
L35.7356 -55.3278
L35.4355 -55.5251
L35.1294 -55.7149
L34.8176 -55.8965
L34.5 -56.0695
L34.1766 -56.2332
L33.8476 -56.3871
L33.513 -56.5306
L33.173 -56.6631
L32.8276 -56.7841
L32.4772 -56.893
L32.1219 -56.9891
L31.7619 -57.072
L31.3975 -57.1412
L31.029 -57.1961
L30.6568 -57.2365
L30.2813 -57.2618
L29.9029 -57.2718
L29.522 -57.2662
L29.1391 -57.245
L28.7547 -57.2078
L28.3693 -57.1548
L27.9836 -57.0861
L27.5979 -57.0016
L27.213 -56.9016
L26.8293 -56.7864
L26.4474 -56.6564
L26.0679 -56.5118
L25.6913 -56.3532
L25.318 -56.181
L24.9487 -55.9957
L24.5836 -55.7979
L24.2234 -55.5882
L23.8682 -55.3671
L23.5186 -55.1352
L23.1749 -54.893
L22.8373 -54.6413
L22.5062 -54.3806
L22.1818 -54.1114
L21.8642 -53.8343
L21.5537 -53.5499
L21.2503 -53.2587
L20.9544 -52.9612
L20.6658 -52.6579
L20.3848 -52.3493
L20.1113 -52.0359
L19.8454 -51.718
L19.5871 -51.3962
L19.3364 -51.0707
L19.0932 -50.7421
L18.8576 -50.4106
L18.6296 -50.0766
L18.4089 -49.7403
L18.1956 -49.4022
L17.9896 -49.0624
L17.7908 -48.7213
L17.5991 -48.379
L17.4144 -48.0359
L17.2366 -47.692
L17.0656 -47.3477
L16.9013 -47.0031
L16.7436 -46.6584
L16.5923 -46.3137
L16.4474 -45.9692
L16.3087 -45.625
L16.1761 -45.2812
L16.0494 -44.938
L15.9286 -44.5954
L15.8136 -44.2535
L15.7042 -43.9124
L15.6003 -43.5722
L15.5019 -43.2329
L15.4087 -42.8947
L15.3207 -42.5574
L15.2378 -42.2213
L15.1598 -41.8863
L15.0868 -41.5525
L15.0185 -41.2198
L14.9549 -40.8883
L14.8959 -40.5581
L14.8414 -40.229
L14.7913 -39.9012
L14.7456 -39.5747
L14.7041 -39.2494
L14.6668 -38.9253
L14.6337 -38.6024
L14.6046 -38.2807
L14.5794 -37.9602
L14.5582 -37.6409
L14.5409 -37.3228
L14.5273 -37.0058
L14.5176 -36.69
L14.5115 -36.3752
L14.5091 -36.0616
L14.5103 -35.7489
L14.5151 -35.4373
L14.5234 -35.1267
L14.5353 -34.8171
L14.5506 -34.5084
L14.5694 -34.2006
L14.5916 -33.8937
L14.6173 -33.5877
L14.6463 -33.2825
L14.6787 -32.978
L14.7145 -32.6743
L14.7537 -32.3714
L14.7962 -32.0691
L14.8421 -31.7675
L14.8913 -31.4665
L14.9439 -31.1661
L14.9998 -30.8663
L15.0592 -30.567
L15.1219 -30.2682
L15.188 -29.9699
L15.2576 -29.6721
L15.3305 -29.3746
L15.407 -29.0776
L15.487 -28.781
L15.5704 -28.4847
L15.6574 -28.1887
L15.7481 -27.8931
L15.8423 -27.5977
L15.9402 -27.3026
L16.0418 -27.0078
L16.1472 -26.7132
L16.2564 -26.4189
L16.3694 -26.1247
L16.4864 -25.8308
L16.6073 -25.5371
L16.7322 -25.2436
L16.8612 -24.9503
L16.9944 -24.6572
L17.1318 -24.3643
L17.2736 -24.0716
L17.4196 -23.7792
L17.5701 -23.487
L17.7252 -23.1952
L17.8848 -22.9036
L18.0491 -22.6123
L18.2182 -22.3214
L18.3921 -22.0309
L18.571 -21.7409
L18.7548 -21.4513
L18.9438 -21.1624
L19.1381 -20.874
L19.3376 -20.5863
L19.5425 -20.2994
L19.7529 -20.0133
L19.9688 -19.7282
L20.1905 -19.4441
L20.4179 -19.1611
L20.6512 -18.8794
L20.8904 -18.599
L21.1357 -18.3202
L21.3871 -18.043
L21.6447 -17.7677
L21.9086 -17.4943
L22.1789 -17.223
L22.4556 -16.9541
L22.7388 -16.6877
L23.0286 -16.4241
L23.325 -16.1635
L23.628 -15.906
L23.9378 -15.652
L24.2542 -15.4018
L24.5773 -15.1555
L24.9071 -14.9135
L25.2437 -14.6762
L25.5868 -14.4437
L25.9366 -14.2165
L26.2929 -13.9949
L26.6556 -13.7792
L27.0246 -13.5699
L27.3998 -13.3674
L27.781 -13.1719
L28.168 -12.984
L28.5606 -12.804
L28.9585 -12.6325
L29.3614 -12.4698
L29.7691 -12.3164
L30.1812 -12.1728
L30.5972 -12.0394
L31.0168 -11.9166
L31.4395 -11.805
L31.8647 -11.7049
L32.292 -11.6169
L32.7208 -11.5413
L33.1505 -11.4786
L33.5804 -11.4291
L34.0099 -11.3932
L34.4382 -11.3712
L34.8648 -11.3635
L35.2888 -11.3701
L35.7096 -11.3915
L36.1264 -11.4275
L36.5386 -11.4785
L36.9454 -11.5443
L37.3463 -11.6249
L37.7404 -11.7202
L38.1274 -11.83
L38.5067 -11.9541
L38.8777 -12.0921
L39.24 -12.2437
L39.5933 -12.4085
L39.9373 -12.586
L40.2717 -12.7756
L40.5963 -12.9769
L40.911 -13.1892
L41.2157 -13.412
L41.5104 -13.6447
L41.795 -13.8867
L42.0697 -14.1373
L42.3345 -14.396
L42.5896 -14.6621
L42.835 -14.9351
L43.071 -15.2145
L43.2976 -15.4996
L43.5152 -15.79
L43.7239 -16.0851
L43.9239 -16.3845
L44.1154 -16.6877
L44.2987 -16.9943
L44.474 -17.3038
L44.6415 -17.616
L44.8014 -17.9303
L44.954 -18.2466
L45.0995 -18.5644
L45.2381 -18.8835
L45.37 -19.2036
L45.4955 -19.5244
L45.6147 -19.8457
L45.7278 -20.1674
L45.8351 -20.4891
L45.9367 -20.8106
L46.0328 -21.132
L46.1236 -21.4528
L46.2092 -21.7731
L46.29 -22.0927
L46.3659 -22.4114
L46.4371 -22.7293
L46.5039 -23.0461
L46.5664 -23.3617
L46.6247 -23.6762
L46.6789 -23.9894
L46.7291 -24.3013
L46.7756 -24.6119
L46.8184 -24.921
L46.8577 -25.2287
L46.8935 -25.5349
L46.9259 -25.8396
L46.9552 -26.1428
L46.9813 -26.4445
L47.0043 -26.7447
L47.0244 -27.0433
L47.0416 -27.3403
L47.0561 -27.6359
L47.0678 -27.9299
L47.0769 -28.2224
L47.0835 -28.5134
L47.0875 -28.803
L47.0891 -29.091
L47.0884 -29.3777
L47.0853 -29.6629
L47.08 -29.9468
L47.0725 -30.2293
L47.0628 -30.5105
L47.051 -30.7904
L47.0372 -31.069
L47.0213 -31.3464
L47.0034 -31.6227
L46.9836 -31.8977
L46.9618 -32.1717
L46.9382 -32.4446
L46.9126 -32.7165
L46.8853 -32.9873
L46.8561 -33.2572
L46.8251 -33.5262
L46.7923 -33.7944
L46.7577 -34.0617
L46.7214 -34.3282
L46.6834 -34.5939
L46.6436 -34.859
L46.6021 -35.1234
L46.5589 -35.3871
L46.5139 -35.6503
L46.4673 -35.913
L46.4189 -36.1751
L46.3689 -36.4368
z
" id="C0_1_5d7c4cf8ef"/>
    </defs>
    <g clip-path="url(#p1bffca34e9)">
     <use style="fill:#ff0000;stroke:#000000;stroke-width:2.0;" x="0.0" xlink:href="#C0_0_a811fe30f3" y="72.0"/>
    </g>
    <g clip-path="url(#p1bffca34e9)">
     <use style="fill:#ffffff;stroke:#000000;stroke-width:2.0;" x="0.0" xlink:href="#C0_1_5d7c4cf8ef" y="72.0"/>
    </g>
   </g>
  </g>
 </g>
 <defs>
  <clipPath id="p1bffca34e9">
   <rect height="72.0" width="72.0" x="0.0" y="0.0"/>
  </clipPath>
 </defs>
</svg>
