<?xml version="1.0" encoding="utf-8" standalone="no"?>
<!DOCTYPE svg PUBLIC "-//W3C//DTD SVG 1.1//EN"
  "http://www.w3.org/Graphics/SVG/1.1/DTD/svg11.dtd">
<!-- Created with matplotlib (http://matplotlib.org/) -->
<svg height="72pt" version="1.1" viewBox="0 0 72 72" width="72pt" xmlns="http://www.w3.org/2000/svg" xmlns:xlink="http://www.w3.org/1999/xlink">
 <defs>
  <style type="text/css">
*{stroke-linecap:butt;stroke-linejoin:round;}
  </style>
 </defs>
 <g id="figure_1">
  <g id="patch_1">
   <path d="
M0 72
L72 72
L72 0
L0 0
z
" style="fill:none;"/>
  </g>
  <g id="axes_1">
   <g id="PatchCollection_1">
    <defs>
     <path d="
M36 -7.5
C43.5583 -7.5 50.808 -10.5029 56.1525 -15.8475
C61.4971 -21.192 64.5 -28.4417 64.5 -36
C64.5 -43.5583 61.4971 -50.808 56.1525 -56.1525
C50.808 -61.4971 43.5583 -64.5 36 -64.5
C28.4417 -64.5 21.192 -61.4971 15.8475 -56.1525
C10.5029 -50.808 7.5 -43.5583 7.5 -36
C7.5 -28.4417 10.5029 -21.192 15.8475 -15.8475
C21.192 -10.5029 28.4417 -7.5 36 -7.5
z
" id="C0_0_a811fe30f3"/>
     <path d="
M11.6404 -21.331
L11.9652 -21.358
L12.2949 -21.3833
L12.6284 -21.4078
L12.9649 -21.4322
L13.3038 -21.4572
L13.6443 -21.4832
L13.9859 -21.5106
L14.3281 -21.5395
L14.6705 -21.5703
L15.0127 -21.603
L15.3543 -21.6378
L15.6951 -21.6747
L16.0348 -21.7138
L16.3732 -21.755
L16.7101 -21.7983
L17.0452 -21.8438
L17.3785 -21.8913
L17.7097 -21.9409
L18.0388 -21.9924
L18.3656 -22.0458
L18.6901 -22.101
L19.0122 -22.158
L19.3319 -22.2167
L19.649 -22.277
L19.9635 -22.3389
L20.2755 -22.4023
L20.5849 -22.4671
L20.8916 -22.5332
L21.1957 -22.6007
L21.4972 -22.6694
L21.796 -22.7392
L22.0923 -22.8102
L22.3859 -22.8822
L22.6771 -22.9553
L22.9656 -23.0293
L23.2517 -23.1042
L23.5354 -23.18
L23.8166 -23.2567
L24.0954 -23.3342
L24.3719 -23.4124
L24.6461 -23.4914
L24.9181 -23.5711
L25.1879 -23.6515
L25.4556 -23.7326
L25.7211 -23.8143
L25.9847 -23.8966
L26.2463 -23.9795
L26.506 -24.063
L26.7638 -24.1471
L27.0198 -24.2318
L27.2742 -24.317
L27.5268 -24.4028
L27.7778 -24.4891
L28.0273 -24.5759
L28.2753 -24.6633
L28.5218 -24.7512
L28.767 -24.8397
L29.0108 -24.9287
L29.2534 -25.0182
L29.4949 -25.1083
L29.7352 -25.1989
L29.9744 -25.2901
L30.2126 -25.3818
L30.4499 -25.4742
L30.6862 -25.5671
L30.9218 -25.6606
L31.1566 -25.7547
L31.3907 -25.8494
L31.6241 -25.9448
L31.8569 -26.0408
L32.0892 -26.1375
L32.321 -26.2348
L32.5525 -26.3329
L32.7835 -26.4317
L33.0143 -26.5313
L33.4751 -26.6316
L33.7053 -26.7327
L33.9355 -26.8346
L34.1656 -26.9373
L34.3958 -27.0409
L34.6261 -27.1454
L34.8565 -27.2508
L35.0872 -27.3572
L35.3181 -27.4645
L35.5494 -27.5728
L35.781 -27.6821
L36.0131 -27.7925
L36.2457 -27.904
L36.4789 -28.0167
L36.7127 -28.1305
L36.9471 -28.2455
L37.1823 -28.3617
L37.4182 -28.4792
L37.655 -28.598
L37.8927 -28.7182
L38.1313 -28.8397
L38.3709 -28.9627
L38.6116 -29.0872
L38.8534 -29.2131
L39.0964 -29.3407
L39.3405 -29.4698
L39.5859 -29.6006
L39.8327 -29.7331
L40.0808 -29.8674
L40.3304 -30.0034
L40.5814 -30.1413
L40.8339 -30.2811
L41.088 -30.4228
L41.3437 -30.5665
L41.6011 -30.7123
L41.8602 -30.8602
L42.121 -31.0102
L42.3836 -31.1625
L42.648 -31.317
L42.9143 -31.4738
L43.1825 -31.633
L43.4525 -31.7946
L43.7246 -31.9587
L43.9986 -32.1254
L44.2746 -32.2946
L44.5526 -32.4664
L44.8326 -32.6409
L45.1146 -32.8182
L45.3987 -32.9982
L45.6848 -33.1811
L45.973 -33.3668
L46.2631 -33.5553
L46.5553 -33.7468
L46.8494 -33.9413
L47.1455 -34.1387
L47.4435 -34.3391
L47.7433 -34.5425
L48.045 -34.7489
L48.3484 -34.9582
L48.6534 -35.1705
L48.9601 -35.3858
L49.2682 -35.6039
L49.5778 -35.8248
L49.8887 -36.0485
L50.2008 -36.2748
L50.5139 -36.5037
L50.828 -36.7349
L51.1429 -36.9683
L51.4584 -37.2037
L51.7745 -37.4408
L52.0908 -37.6794
L52.4074 -37.919
L52.7239 -38.1593
L53.0402 -38.3997
L53.3562 -38.6398
L53.6716 -38.8788
L53.9863 -39.1159
L54.3002 -39.3502
L54.6131 -39.5805
L54.9248 -39.8055
L55.2352 -40.0237
L55.5443 -40.2331
L55.852 -40.4315
L56.1583 -40.6164
L56.4631 -40.7845
L56.7665 -40.9325
L57.0685 -41.0565
L57.3691 -41.152
L57.6682 -41.2149
L57.9657 -41.2409
L58.2612 -41.2262
L58.5544 -41.1684
L58.8445 -41.066
L59.1308 -40.919
L59.4124 -40.7292
L59.6885 -40.4989
L59.9581 -40.2317
L60.2205 -39.9313
L60.475 -39.6015
L60.7208 -39.2458
L60.9574 -38.8678
L61.1844 -38.4703
L61.4013 -38.0561
L61.6078 -37.6275
L61.8036 -37.1866
L61.9886 -36.7351
L62.1626 -36.2747
L62.3254 -35.8068
L62.4771 -35.3325
L62.6175 -34.853
L62.7468 -34.3691
L62.8648 -33.882
L62.9716 -33.3922
L63.0674 -32.9005
L63.1523 -32.4076
L63.2262 -31.914
L63.2895 -31.4203
L63.3422 -30.927
L63.3844 -30.4345
L63.4165 -29.9432
L63.4384 -29.4535
L63.4505 -28.9658
L63.3517 -28.4803
L63.2078 -27.9916
L63.0556 -27.5155
L62.8951 -27.0419
L62.7264 -26.5711
L62.5496 -26.1032
L62.3648 -25.6382
L62.1719 -25.1765
L61.971 -24.718
L61.7622 -24.2629
L61.5455 -23.8115
L61.3211 -23.3637
L61.089 -22.9198
L60.8492 -22.4799
L60.6018 -22.0441
L60.347 -21.6125
L60.0847 -21.1854
L59.8151 -20.7627
L59.5383 -20.3447
L59.2543 -19.9314
L58.9632 -19.5231
L58.6651 -19.1197
L58.3601 -18.7216
L58.0483 -18.3286
L57.7297 -17.9411
L57.4046 -17.559
L57.0729 -17.1826
L56.7348 -16.8119
L56.3904 -16.4471
L56.0398 -16.0882
L55.6831 -15.7353
L55.3204 -15.3887
L54.9518 -15.0483
L54.5774 -14.7143
L54.1974 -14.3868
L53.8118 -14.0659
L53.4208 -13.7516
L53.0245 -13.4442
L52.623 -13.1436
L52.2164 -12.8499
L51.8049 -12.5633
L51.3886 -12.2839
L50.9676 -12.0117
L50.5421 -11.7467
L50.1121 -11.4892
L49.6778 -11.2392
L49.2393 -10.9966
L48.7969 -10.7617
L48.3505 -10.5345
L47.9003 -10.3151
L47.4466 -10.1034
L46.9893 -9.89969
L46.5287 -9.70389
L46.0649 -9.51611
L45.598 -9.33639
L45.1282 -9.1648
L44.6556 -9.00138
L44.1804 -8.84618
L43.7027 -8.69925
L43.2226 -8.56064
L42.7404 -8.43039
L42.2561 -8.30854
L41.7699 -8.19512
L41.2819 -8.09017
L40.7923 -7.99372
L40.3013 -7.90581
L39.8089 -7.82645
L39.3154 -7.75567
L38.8209 -7.6935
L38.3255 -7.63995
L37.8294 -7.59504
L37.3328 -7.55878
L36.8357 -7.53118
L36.3384 -7.51226
L35.841 -7.50201
L35.3436 -7.50044
L34.8465 -7.50756
L34.3497 -7.52335
L33.8534 -7.54782
L33.3577 -7.58096
L32.8629 -7.62275
L32.369 -7.67319
L31.8762 -7.73225
L31.3846 -7.79993
L30.8945 -7.87619
L30.406 -7.96103
L29.9191 -8.0544
L29.4341 -8.15628
L28.9511 -8.26665
L28.4702 -8.38547
L27.9916 -8.51269
L27.5155 -8.64829
L27.0419 -8.79223
L26.5711 -8.94444
L26.1032 -9.1049
L25.6382 -9.27356
L25.1765 -9.45035
L24.718 -9.63523
L24.2629 -9.82815
L23.8115 -10.029
L23.3637 -10.2378
L22.9198 -10.4545
L22.4799 -10.6789
L22.0441 -10.911
L21.6125 -11.1508
L21.1854 -11.3982
L20.7627 -11.653
L20.3447 -11.9153
L19.9314 -12.1849
L19.5231 -12.4617
L19.1197 -12.7457
L18.7216 -13.0368
L18.3286 -13.3349
L17.9411 -13.6399
L17.559 -13.9517
L17.1826 -14.2703
L16.8119 -14.5954
L16.4471 -14.9271
L16.0882 -15.2652
L15.7353 -15.6096
L15.3887 -15.9602
L15.0483 -16.3169
L14.7143 -16.6796
L14.3868 -17.0482
L14.0659 -17.4226
L13.7516 -17.8026
L13.4442 -18.1882
L13.1436 -18.5792
L12.8499 -18.9755
L12.5633 -19.377
L12.2839 -19.7836
L12.0117 -20.1951
z
" id="C0_1_6291b16b60"/>
     <path d="
M8.73081 -43.9491
L8.98932 -44.3484
L9.25113 -44.7378
L9.51594 -45.1174
L9.78344 -45.4874
L10.0534 -45.8479
L10.3255 -46.1992
L10.5995 -46.5413
L10.8753 -46.8745
L11.1525 -47.199
L11.431 -47.5149
L11.7107 -47.8224
L11.9913 -48.1218
L12.2727 -48.4133
L12.5547 -48.697
L12.8373 -48.9731
L13.1203 -49.2418
L13.4037 -49.5034
L13.6872 -49.758
L13.9708 -50.0058
L14.2545 -50.2469
L14.5382 -50.4816
L14.8218 -50.7101
L15.1053 -50.9324
L15.3886 -51.1488
L15.6717 -51.3595
L15.9546 -51.5645
L16.2372 -51.7641
L16.5195 -51.9584
L16.8015 -52.1475
L17.0833 -52.3316
L17.3647 -52.5108
L17.6458 -52.6852
L17.9266 -52.855
L18.2071 -53.0203
L18.4874 -53.1812
L18.7673 -53.3378
L19.0471 -53.4902
L19.3266 -53.6386
L19.6059 -53.783
L19.885 -53.9235
L20.164 -54.0602
L20.4429 -54.1933
L20.7217 -54.3227
L21.0005 -54.4486
L21.2792 -54.571
L21.5581 -54.69
L21.8369 -54.8057
L22.1159 -54.9182
L22.3951 -55.0274
L22.6745 -55.1335
L22.9541 -55.2366
L23.2341 -55.3366
L23.5144 -55.4336
L23.7951 -55.5276
L24.0763 -55.6188
L24.358 -55.7071
L24.6402 -55.7925
L24.9231 -55.8752
L25.2067 -55.955
L25.491 -56.0322
L25.7761 -56.1066
L26.062 -56.1783
L26.3489 -56.2473
L26.6367 -56.3136
L26.9255 -56.3772
L27.2155 -56.4382
L27.5066 -56.4965
L27.7989 -56.5522
L28.0926 -56.6052
L28.3875 -56.6555
L28.6839 -56.7031
L28.9817 -56.748
L29.2811 -56.7903
L29.5822 -56.8297
L29.8848 -56.8665
L30.1893 -56.9004
L30.4955 -56.9316
L30.8036 -56.9599
L31.1137 -56.9853
L31.4258 -57.0078
L31.7399 -57.0274
L32.0562 -57.044
L32.3747 -57.0574
L32.6955 -57.0678
L33.0187 -57.075
L33.3443 -57.079
L33.6723 -57.0797
L34.0029 -57.077
L34.336 -57.0708
L34.6719 -57.0611
L35.0104 -57.0479
L35.3518 -57.0309
L35.696 -57.0102
L36.043 -56.9855
L36.3931 -56.9569
L36.7461 -56.9242
L37.1021 -56.8874
L37.4612 -56.8462
L37.8234 -56.8006
L38.1888 -56.7505
L38.5573 -56.6957
L38.929 -56.6361
L39.3039 -56.5716
L39.6821 -56.5021
L40.0634 -56.4274
L40.448 -56.3474
L40.8358 -56.2618
L41.2267 -56.1707
L41.6209 -56.0739
L42.0181 -55.9711
L42.4184 -55.8623
L42.8216 -55.7474
L43.2278 -55.6261
L43.6368 -55.4984
L44.0486 -55.3641
L44.4629 -55.2231
L44.8798 -55.0753
L45.2989 -54.9205
L45.7203 -54.7588
L46.1436 -54.5899
L46.5687 -54.414
L46.9954 -54.2308
L47.4234 -54.0404
L47.8525 -53.8429
L48.2823 -53.6383
L48.7127 -53.4266
L49.1432 -53.208
L49.5736 -52.9828
L50.0034 -52.7511
L50.4322 -52.5134
L50.8597 -52.2701
L51.2854 -52.0218
L51.7088 -51.769
L52.1295 -51.5128
L52.5468 -51.254
L52.9603 -50.9941
L53.3694 -50.7344
L53.7734 -50.4768
L54.1718 -50.2235
L54.5637 -49.9772
L54.9485 -49.7408
L55.3254 -49.5179
L55.6936 -49.3125
L56.0525 -49.1288
L56.4012 -48.9714
L56.739 -48.8444
L57.0656 -48.7518
L57.3804 -48.6962
L57.6832 -48.6792
L57.9742 -48.7009
L58.2535 -48.7599
L58.5212 -48.8538
L58.7779 -48.9794
L59.0239 -49.1333
L59.2595 -49.3119
L59.485 -49.5119
L59.7008 -49.7301
L59.9071 -49.9637
L60.104 -50.2105
L60.2276 -50.4684
L59.9619 -51.0092
L59.689 -51.4297
L59.4088 -51.8456
L59.1216 -52.2566
L58.8272 -52.6626
L58.526 -53.0636
L58.2178 -53.4594
L57.9029 -53.8499
L57.5813 -54.2349
L57.2532 -54.6144
L56.9186 -54.9882
L56.5776 -55.3562
L56.2303 -55.7184
L55.8769 -56.0745
L55.5174 -56.4245
L55.1519 -56.7683
L54.7807 -57.1058
L54.4037 -57.4368
L54.0211 -57.7613
L53.633 -58.0792
L53.2396 -58.3903
L52.8409 -58.6946
L52.437 -58.9921
L52.0282 -59.2825
L51.6145 -59.5658
L51.196 -59.8419
L50.7729 -60.1108
L50.3453 -60.3724
L49.9133 -60.6265
L49.4771 -60.8731
L49.0368 -61.1121
L48.5925 -61.3435
L48.1444 -61.5671
L47.6925 -61.783
L47.2372 -61.991
L46.7783 -62.1912
L46.3163 -62.3833
L45.851 -62.5674
L45.3828 -62.7434
L44.9117 -62.9112
L44.4379 -63.0709
L43.9615 -63.2223
L43.4827 -63.3654
L43.0016 -63.5002
L42.5184 -63.6266
L42.0332 -63.7446
L41.5461 -63.8541
L41.0574 -63.9551
L40.5672 -64.0477
L40.0755 -64.1317
L39.5826 -64.2071
L39.0886 -64.2739
L38.5937 -64.3321
L38.0979 -64.3817
L37.6016 -64.4227
L37.1047 -64.455
L36.6075 -64.4786
L36.1102 -64.4935
L35.6128 -64.4998
L35.1155 -64.4974
L34.6184 -64.4863
L34.1218 -64.4665
L33.6258 -64.438
L33.1305 -64.4009
L32.6361 -64.3552
L32.1427 -64.3008
L31.6505 -64.2378
L31.1595 -64.1661
L30.6701 -64.0859
L30.1823 -63.9972
L29.6963 -63.8999
L29.2122 -63.7941
L28.7301 -63.6799
L28.2503 -63.5572
L27.7728 -63.4261
L27.2978 -63.2867
L26.8255 -63.1389
L26.356 -62.9829
L25.8894 -62.8187
L25.4259 -62.6463
L24.9656 -62.4658
L24.5087 -62.2772
L24.0553 -62.0807
L23.6055 -61.8761
L23.1595 -61.6637
L22.7174 -61.4435
L22.2794 -61.2155
L21.8455 -60.9799
L21.4159 -60.7366
L20.9908 -60.4858
L20.5703 -60.2276
L20.1544 -59.9619
L19.7434 -59.689
L19.3374 -59.4088
L18.9364 -59.1216
L18.5406 -58.8272
L18.1501 -58.526
L17.7651 -58.2178
L17.3856 -57.9029
L17.0118 -57.5813
L16.6438 -57.2532
L16.2816 -56.9186
L15.9255 -56.5776
L15.5755 -56.2303
L15.2317 -55.8769
L14.8942 -55.5174
L14.5632 -55.1519
L14.2387 -54.7807
L13.9208 -54.4037
L13.6097 -54.0211
L13.3054 -53.633
L13.0079 -53.2396
L12.7175 -52.8409
L12.4342 -52.437
L12.1581 -52.0282
L11.8892 -51.6145
L11.6276 -51.196
L11.3735 -50.7729
L11.1269 -50.3453
L10.8879 -49.9133
L10.6565 -49.4771
L10.4329 -49.0368
L10.217 -48.5925
L10.009 -48.1444
L9.80885 -47.6925
L9.61672 -47.2372
L9.43263 -46.7783
L9.25664 -46.3163
L9.08879 -45.851
L8.92913 -45.3828
z
" id="C0_2_4fd9f80eef"/>
    </defs>
    <g clip-path="url(#p1bffca34e9)">
     <use style="fill:#ff0000;stroke:#000000;stroke-width:2.0;" x="0.0" xlink:href="#C0_0_a811fe30f3" y="72.0"/>
    </g>
    <g clip-path="url(#p1bffca34e9)">
     <use style="fill:#ffffff;stroke:#000000;stroke-width:2.0;" x="0.0" xlink:href="#C0_1_6291b16b60" y="72.0"/>
    </g>
    <g clip-path="url(#p1bffca34e9)">
     <use style="fill:#ffffff;stroke:#000000;stroke-width:2.0;" x="0.0" xlink:href="#C0_2_4fd9f80eef" y="72.0"/>
    </g>
   </g>
  </g>
 </g>
 <defs>
  <clipPath id="p1bffca34e9">
   <rect height="72.0" width="72.0" x="0.0" y="0.0"/>
  </clipPath>
 </defs>
</svg>
