<?xml version="1.0" encoding="utf-8" standalone="no"?>
<!DOCTYPE svg PUBLIC "-//W3C//DTD SVG 1.1//EN"
  "http://www.w3.org/Graphics/SVG/1.1/DTD/svg11.dtd">
<!-- Created with matplotlib (http://matplotlib.org/) -->
<svg height="72pt" version="1.1" viewBox="0 0 72 72" width="72pt" xmlns="http://www.w3.org/2000/svg" xmlns:xlink="http://www.w3.org/1999/xlink">
 <defs>
  <style type="text/css">
*{stroke-linecap:butt;stroke-linejoin:round;}
  </style>
 </defs>
 <g id="figure_1">
  <g id="patch_1">
   <path d="
M0 72
L72 72
L72 0
L0 0
z
" style="fill:none;"/>
  </g>
  <g id="axes_1">
   <g id="PatchCollection_1">
    <defs>
     <path d="
M36 -7.5
C43.5583 -7.5 50.808 -10.5029 56.1525 -15.8475
C61.4971 -21.192 64.5 -28.4417 64.5 -36
C64.5 -43.5583 61.4971 -50.808 56.1525 -56.1525
C50.808 -61.4971 43.5583 -64.5 36 -64.5
C28.4417 -64.5 21.192 -61.4971 15.8475 -56.1525
C10.5029 -50.808 7.5 -43.5583 7.5 -36
C7.5 -28.4417 10.5029 -21.192 15.8475 -15.8475
C21.192 -10.5029 28.4417 -7.5 36 -7.5
z
" id="C0_0_a811fe30f3"/>
     <path d="
M12.945 -19.5494
L13.0499 -19.7174
L13.1565 -19.8844
L13.2647 -20.0505
L13.3745 -20.2157
L13.4859 -20.3802
L13.5988 -20.544
L13.7133 -20.7071
L13.8294 -20.8695
L13.947 -21.0314
L14.0661 -21.1927
L14.1868 -21.3536
L14.3091 -21.514
L14.4329 -21.674
L14.6852 -21.8336
L14.8137 -21.993
L14.9438 -22.152
L15.0755 -22.3109
L15.2089 -22.4696
L15.3439 -22.6281
L15.4805 -22.7865
L15.6189 -22.9449
L15.759 -23.1033
L15.9008 -23.2616
L16.0444 -23.42
L16.1897 -23.5785
L16.337 -23.7372
L16.486 -23.896
L16.637 -24.055
L16.7899 -24.2142
L16.9448 -24.3737
L17.1016 -24.5335
L17.2605 -24.6936
L17.4215 -24.8541
L17.5846 -25.015
L17.7499 -25.1764
L17.9174 -25.3382
L18.0872 -25.5004
L18.2592 -25.6632
L18.4337 -25.8266
L18.6105 -25.9905
L18.7898 -26.155
L18.9715 -26.3201
L19.1559 -26.4859
L19.3428 -26.6523
L19.5324 -26.8195
L19.7247 -26.9873
L19.9198 -27.1558
L20.1177 -27.3251
L20.3185 -27.4951
L20.5222 -27.6658
L20.7289 -27.8374
L20.9386 -28.0096
L21.1514 -28.1827
L21.3674 -28.3565
L21.5866 -28.531
L21.8091 -28.7063
L22.0349 -28.8824
L22.264 -29.0591
L22.4965 -29.2365
L22.7325 -29.4146
L22.9721 -29.5933
L23.2151 -29.7726
L23.4617 -29.9525
L23.712 -30.1328
L23.9659 -30.3136
L24.2235 -30.4947
L24.4848 -30.676
L24.7498 -30.8576
L25.0186 -31.0392
L25.2911 -31.2208
L25.5674 -31.4023
L25.8475 -31.5834
L26.1313 -31.7641
L26.4188 -31.9442
L26.71 -32.1234
L27.0048 -32.3017
L27.3033 -32.4787
L27.6053 -32.6543
L27.9108 -32.8281
L28.2197 -32.9999
L28.5319 -33.1693
L28.8473 -33.3361
L29.1658 -33.4998
L29.4873 -33.6601
L29.8116 -33.8164
L30.1385 -33.9684
L30.4679 -34.1156
L30.7996 -34.2574
L31.1333 -34.3933
L31.4689 -34.5227
L31.8061 -34.6448
L32.1446 -34.7592
L32.4843 -34.8651
L32.8247 -34.9619
L33.1656 -35.0487
L33.5067 -35.1249
L33.8477 -35.1898
L34.1883 -35.2427
L34.5282 -35.283
L34.867 -35.31
L35.2045 -35.3232
L35.5403 -35.3221
L35.8743 -35.3064
L36.206 -35.2758
L36.5352 -35.2301
L36.8618 -35.1694
L37.1854 -35.0937
L37.506 -35.0033
L37.8233 -34.8984
L38.1373 -34.7796
L38.4476 -34.6473
L38.7544 -34.5021
L39.0574 -34.3448
L39.3565 -34.176
L39.6518 -33.9965
L39.9432 -33.8071
L40.2305 -33.6085
L40.5138 -33.4015
L40.793 -33.1867
L41.0682 -32.9651
L41.3392 -32.7372
L41.6061 -32.5036
L41.8689 -32.2652
L42.1275 -32.0223
L42.382 -31.7757
L42.6324 -31.5257
L42.8787 -31.273
L43.1208 -31.0179
L43.3589 -30.7609
L43.5929 -30.5023
L43.8228 -30.2425
L44.0488 -29.9818
L44.2707 -29.7206
L44.4887 -29.4591
L44.7028 -29.1975
L44.913 -28.9361
L45.1193 -28.675
L45.3219 -28.4145
L45.5207 -28.1547
L45.7159 -27.8958
L45.9074 -27.6379
L46.0952 -27.3811
L46.2796 -27.1255
L46.4604 -26.8712
L46.6378 -26.6183
L46.8119 -26.3668
L46.9826 -26.1169
L47.15 -25.8685
L47.3142 -25.6217
L47.4753 -25.3766
L47.6333 -25.1331
L47.7882 -24.8913
L47.9401 -24.6511
L48.0891 -24.4127
L48.2353 -24.176
L48.3786 -23.9409
L48.5191 -23.7075
L48.657 -23.4758
L48.7922 -23.2458
L48.9247 -23.0174
L49.0547 -22.7906
L49.1822 -22.5655
L49.3073 -22.3419
L49.4299 -22.1198
L49.5502 -21.8992
L49.6681 -21.6802
L49.7838 -21.4625
L49.8972 -21.2463
L50.0085 -21.0315
L50.1176 -20.818
L50.2245 -20.6058
L50.3294 -20.3949
L50.4323 -20.1851
L50.5331 -19.9766
L50.6319 -19.7692
L50.7288 -19.5629
L50.8238 -19.3577
L50.9169 -19.1534
L51.0081 -18.9502
L51.0975 -18.7478
L51.185 -18.5464
L51.2708 -18.3457
L51.3548 -18.1459
L51.437 -17.9468
L51.5174 -17.7485
L51.5962 -17.5508
L51.6732 -17.3537
L51.7485 -17.1572
L51.8221 -16.9612
L51.894 -16.7657
L51.9642 -16.5706
L52.0327 -16.3759
L52.0995 -16.1816
L52.1647 -15.9875
L52.2281 -15.7938
L52.2899 -15.6002
L52.3499 -15.4068
L52.4082 -15.2136
L52.4648 -15.0204
L52.5197 -14.8272
L52.5728 -14.6341
L52.6241 -14.4409
L52.6736 -14.2475
L52.7212 -14.0541
L52.767 -13.8604
L52.8109 -13.6665
L52.8528 -13.4723
L52.8928 -13.2778
L52.5075 -13.0829
L52.0995 -12.7674
L51.6866 -12.4828
L51.2689 -12.2054
L50.8466 -11.9353
L50.4198 -11.6725
L49.9886 -11.4171
L49.5531 -11.1692
L49.1135 -10.9288
L48.6698 -10.6961
L48.2224 -10.4711
L47.7712 -10.2539
L47.3164 -10.0445
L46.8582 -9.84299
L46.3966 -9.64948
L45.9319 -9.46399
L45.4642 -9.28658
L44.9936 -9.11731
L44.5203 -8.95624
L44.0443 -8.8034
L43.5659 -8.65884
L43.0852 -8.52261
L42.6024 -8.39475
L42.1175 -8.2753
L41.6308 -8.1643
L41.1423 -8.06177
L40.6523 -7.96776
L40.1609 -7.88228
L39.6682 -7.80537
L39.1744 -7.73705
L38.6796 -7.67733
L38.184 -7.62625
L37.6877 -7.5838
L37.1909 -7.55002
L36.6938 -7.52489
L36.1964 -7.50845
L35.699 -7.50068
L35.2017 -7.50159
L34.7046 -7.51118
L34.2079 -7.52945
L33.7118 -7.5564
L33.2164 -7.592
L32.7218 -7.63627
L32.2282 -7.68917
L31.7357 -7.75069
L31.2446 -7.82082
L30.7549 -7.89953
L30.2668 -7.98681
L29.7805 -8.08261
L29.296 -8.18692
L28.8136 -8.29971
L28.3334 -8.42093
L27.8555 -8.55055
L27.38 -8.68853
L26.9073 -8.83483
L26.4372 -8.98941
L25.9701 -9.15221
L25.5061 -9.32319
L25.0453 -9.5023
L24.5877 -9.68948
L24.1337 -9.88467
L23.6833 -10.0878
L23.2366 -10.2989
L22.7938 -10.5177
L22.3551 -10.7444
L21.9205 -10.9787
L21.4901 -11.2206
L21.0642 -11.4701
L20.6429 -11.7271
L20.2262 -11.9915
L19.8144 -12.2631
L19.4074 -12.542
L19.0056 -12.8281
L18.6089 -13.1212
L18.2175 -13.4213
L17.8315 -13.7282
L17.451 -14.042
L17.0762 -14.3624
L16.7072 -14.6894
L16.344 -15.0229
L15.9868 -15.3628
L15.6358 -15.709
L15.2909 -16.0614
L14.9523 -16.4198
L14.6202 -16.7842
L14.2945 -17.1545
L13.9755 -17.5305
L13.6632 -17.9121
L13.3576 -18.2993
z
" id="C0_1_35b2f04352"/>
     <path d="
M19.2473 -58.8694
L19.4235 -58.7723
L19.6007 -58.6734
L19.779 -58.5728
L19.9585 -58.4704
L20.1391 -58.3662
L20.3209 -58.2602
L20.504 -58.1522
L20.6884 -58.0424
L20.8742 -57.9307
L21.0614 -57.817
L21.25 -57.7013
L21.4402 -57.5836
L21.6319 -57.4639
L21.8252 -57.3421
L22.0202 -57.2182
L22.2169 -57.0921
L22.4154 -56.9639
L22.6157 -56.8334
L22.8178 -56.7007
L23.0219 -56.5658
L23.2279 -56.4285
L23.436 -56.289
L23.6461 -56.1471
L23.8583 -56.0028
L24.0727 -55.8561
L24.2893 -55.7069
L24.5082 -55.5554
L24.7293 -55.4014
L24.9528 -55.2449
L25.1787 -55.0859
L25.4071 -54.9244
L25.6379 -54.7604
L25.8712 -54.594
L26.1071 -54.425
L26.3456 -54.2536
L26.5867 -54.0798
L26.8305 -53.9036
L27.077 -53.725
L27.3262 -53.544
L27.5781 -53.3608
L27.8328 -53.1755
L28.0903 -52.988
L28.3506 -52.7985
L28.6138 -52.6071
L28.8797 -52.414
L29.1485 -52.2193
L29.4202 -52.0231
L29.6947 -51.8257
L29.9721 -51.6272
L30.2523 -51.4279
L30.5354 -51.2281
L30.8213 -51.0281
L31.1101 -50.8281
L31.4016 -50.6285
L31.696 -50.4298
L31.9931 -50.2323
L32.293 -50.0365
L32.5956 -49.8429
L32.901 -49.652
L33.2091 -49.4645
L33.5198 -49.2808
L33.8332 -49.1016
L34.1492 -48.9277
L34.4679 -48.7597
L34.7891 -48.5982
L35.1129 -48.4441
L35.4392 -48.298
L35.768 -48.1607
L36.0993 -48.0327
L36.4329 -47.9149
L36.7689 -47.8076
L37.1072 -47.7114
L37.4476 -47.6268
L37.7902 -47.554
L38.1346 -47.4933
L38.481 -47.4447
L38.829 -47.4082
L39.1785 -47.3836
L39.5293 -47.3708
L39.8812 -47.3692
L40.234 -47.3786
L40.5874 -47.3983
L40.9413 -47.4277
L41.2953 -47.4663
L41.6493 -47.5135
L42.0029 -47.5684
L42.356 -47.6305
L42.7082 -47.6991
L43.0595 -47.7735
L43.4095 -47.8532
L43.758 -47.9374
L44.1048 -48.0257
L44.4498 -48.1176
L44.7927 -48.2124
L45.1335 -48.3098
L45.4718 -48.4093
L45.8077 -48.5106
L46.1409 -48.6132
L46.4713 -48.7168
L46.799 -48.8211
L47.1236 -48.9259
L47.4452 -49.0308
L47.7637 -49.1358
L48.079 -49.2405
L48.3911 -49.3447
L48.7 -49.4484
L49.0055 -49.5514
L49.3077 -49.6535
L49.6066 -49.7546
L49.9021 -49.8546
L50.1942 -49.9535
L50.483 -50.0511
L50.7685 -50.1474
L51.0506 -50.2424
L51.3294 -50.3359
L51.6049 -50.428
L51.8772 -50.5186
L52.1462 -50.6077
L52.412 -50.6952
L52.6746 -50.7812
L52.9342 -50.8656
L53.1907 -50.9485
L53.4441 -51.0297
L53.6946 -51.1094
L53.9422 -51.1875
L54.1868 -51.264
L54.4287 -51.339
L54.6678 -51.4123
L54.9042 -51.4841
L55.1379 -51.5544
L55.3691 -51.6232
L55.5977 -51.6904
L55.8238 -51.7561
L56.0475 -51.8203
L56.2688 -51.883
L56.4878 -51.9443
L56.7046 -52.0041
L56.9191 -52.0625
L57.1316 -52.1195
L57.3419 -52.175
L57.5502 -52.2292
L57.7566 -52.282
L57.9611 -52.3334
L58.1637 -52.3835
L58.3645 -52.4323
L58.5635 -52.4797
L58.7609 -52.5258
L58.9566 -52.5706
L58.861 -52.6141
L58.5605 -53.0184
L58.2531 -53.4148
L57.939 -53.8058
L57.6182 -54.1915
L57.2908 -54.5716
L56.9569 -54.9461
L56.6166 -55.3148
L56.27 -55.6776
L55.9173 -56.0344
L55.5585 -56.3851
L55.1937 -56.7296
L54.8231 -57.0678
L54.4468 -57.3995
L54.0648 -57.7248
L53.6773 -58.0434
L53.2845 -58.3553
L52.8864 -58.6605
L52.4831 -58.9587
L52.0749 -59.2499
L51.6617 -59.534
L51.2437 -59.811
L50.8212 -60.0807
L50.3941 -60.343
L49.9626 -60.598
L49.5268 -60.8455
L49.087 -61.0854
L48.6431 -61.3176
L48.1954 -61.5422
L47.744 -61.7589
L47.289 -61.9678
L46.8306 -62.1688
L46.3689 -62.3619
L45.904 -62.5469
L45.4361 -62.7238
L44.9653 -62.8926
L44.4918 -63.0532
L44.0157 -63.2055
L43.5372 -63.3496
L43.0563 -63.4853
L42.5733 -63.6126
L42.0884 -63.7316
L41.6015 -63.8421
L41.113 -63.9441
L40.6229 -64.0376
L40.1314 -64.1226
L39.6386 -64.199
L39.1447 -64.2668
L38.6499 -64.326
L38.1542 -64.3765
L37.6579 -64.4185
L37.1611 -64.4517
L36.664 -64.4763
L36.1666 -64.4923
L35.6692 -64.4995
L35.1719 -64.4981
L34.6748 -64.488
L34.1782 -64.4692
L33.6821 -64.4417
L33.1867 -64.4056
L32.6922 -64.3608
L32.1986 -64.3074
L31.7063 -64.2453
L31.2152 -64.1747
L30.7256 -64.0955
L30.2376 -64.0077
L29.7514 -63.9114
L29.267 -63.8066
L28.7847 -63.6933
L28.3046 -63.5715
L27.8269 -63.4414
L27.3516 -63.3029
L26.879 -63.1561
L26.4092 -63.0011
L25.9422 -62.8378
L25.4784 -62.6663
L25.0177 -62.4867
L24.5604 -62.299
L24.1066 -62.1034
L23.6564 -61.8997
L23.2099 -61.6882
L22.7674 -61.4689
L22.3289 -61.2418
L21.8945 -61.007
L21.4645 -60.7646
L21.0389 -60.5147
L20.6178 -60.2573
L20.2014 -59.9924
L19.7898 -59.7203
z
" id="C0_2_ec653a4da1"/>
    </defs>
    <g clip-path="url(#p1bffca34e9)">
     <use style="fill:#ff0000;stroke:#000000;stroke-width:2.0;" x="0.0" xlink:href="#C0_0_a811fe30f3" y="72.0"/>
    </g>
    <g clip-path="url(#p1bffca34e9)">
     <use style="fill:#ffffff;stroke:#000000;stroke-width:2.0;" x="0.0" xlink:href="#C0_1_35b2f04352" y="72.0"/>
    </g>
    <g clip-path="url(#p1bffca34e9)">
     <use style="fill:#ffffff;stroke:#000000;stroke-width:2.0;" x="0.0" xlink:href="#C0_2_ec653a4da1" y="72.0"/>
    </g>
   </g>
  </g>
 </g>
 <defs>
  <clipPath id="p1bffca34e9">
   <rect height="72.0" width="72.0" x="0.0" y="0.0"/>
  </clipPath>
 </defs>
</svg>
