<?xml version="1.0" encoding="utf-8" standalone="no"?>
<!DOCTYPE svg PUBLIC "-//W3C//DTD SVG 1.1//EN"
  "http://www.w3.org/Graphics/SVG/1.1/DTD/svg11.dtd">
<!-- Created with matplotlib (http://matplotlib.org/) -->
<svg height="72pt" version="1.1" viewBox="0 0 72 72" width="72pt" xmlns="http://www.w3.org/2000/svg" xmlns:xlink="http://www.w3.org/1999/xlink">
 <defs>
  <style type="text/css">
*{stroke-linecap:butt;stroke-linejoin:round;}
  </style>
 </defs>
 <g id="figure_1">
  <g id="patch_1">
   <path d="
M0 72
L72 72
L72 0
L0 0
z
" style="fill:none;"/>
  </g>
  <g id="axes_1">
   <g id="PatchCollection_1">
    <defs>
     <path d="
M36 -7.5
C43.5583 -7.5 50.808 -10.5029 56.1525 -15.8475
C61.4971 -21.192 64.5 -28.4417 64.5 -36
C64.5 -43.5583 61.4971 -50.808 56.1525 -56.1525
C50.808 -61.4971 43.5583 -64.5 36 -64.5
C28.4417 -64.5 21.192 -61.4971 15.8475 -56.1525
C10.5029 -50.808 7.5 -43.5583 7.5 -36
C7.5 -28.4417 10.5029 -21.192 15.8475 -15.8475
C21.192 -10.5029 28.4417 -7.5 36 -7.5
z
" id="C0_0_a811fe30f3"/>
     <path d="
M49.1572 -39.2319
L49.1381 -38.9682
L49.1173 -38.7044
L49.0947 -38.4406
L49.0704 -38.1766
L49.0444 -37.9124
L49.0165 -37.648
L48.9869 -37.3833
L48.9555 -37.1182
L48.9223 -36.8526
L48.8873 -36.5866
L48.8504 -36.3201
L48.8116 -36.053
L48.7709 -35.7852
L48.7284 -35.5167
L48.6838 -35.2475
L48.6373 -34.9774
L48.5888 -34.7065
L48.5383 -34.4347
L48.4856 -34.1619
L48.4308 -33.8881
L48.3739 -33.6132
L48.3148 -33.3372
L48.2534 -33.06
L48.1897 -32.7817
L48.1236 -32.502
L48.0551 -32.221
L47.9842 -31.9387
L47.9108 -31.655
L47.8347 -31.3698
L47.756 -31.0831
L47.6746 -30.7949
L47.5904 -30.5052
L47.5034 -30.2139
L47.4134 -29.9209
L47.3204 -29.6264
L47.2243 -29.3301
L47.1251 -29.0321
L47.0226 -28.7325
L46.9167 -28.4311
L46.8074 -28.128
L46.6945 -27.8231
L46.578 -27.5166
L46.4578 -27.2083
L46.3338 -26.8983
L46.2057 -26.5866
L46.0737 -26.2732
L45.9374 -25.9582
L45.7969 -25.6417
L45.652 -25.3236
L45.5026 -25.0041
L45.3485 -24.6831
L45.1897 -24.3609
L45.026 -24.0375
L44.8573 -23.713
L44.6834 -23.3875
L44.5043 -23.0612
L44.3198 -22.7342
L44.1298 -22.4068
L43.9342 -22.0791
L43.7327 -21.7513
L43.5254 -21.4236
L43.312 -21.0964
L43.0925 -20.7699
L42.8667 -20.4445
L42.6345 -20.1204
L42.3958 -19.7981
L42.1504 -19.4779
L41.8984 -19.1604
L41.6394 -18.8459
L41.3735 -18.5352
L41.1006 -18.2286
L40.8206 -17.927
L40.5333 -17.6309
L40.2388 -17.3412
L39.9369 -17.0587
L39.6276 -16.7843
L39.3109 -16.5189
L38.9867 -16.2638
L38.6551 -16.02
L38.3161 -15.7887
L37.9696 -15.5714
L37.6159 -15.3694
L37.2551 -15.1842
L36.8873 -15.0172
L36.5127 -14.87
L36.1319 -14.7439
L35.7451 -14.6404
L35.3528 -14.5604
L34.9558 -14.5049
L34.5546 -14.4745
L34.1501 -14.4696
L33.7432 -14.49
L33.3347 -14.5353
L32.9255 -14.6049
L32.5166 -14.6979
L32.1088 -14.813
L31.703 -14.9491
L31.3001 -15.1048
L30.9007 -15.2786
L30.5054 -15.4692
L30.115 -15.6752
L29.7299 -15.8954
L29.3505 -16.1286
L28.9774 -16.3734
L28.6107 -16.629
L28.2508 -16.8942
L27.8979 -17.1681
L27.5522 -17.45
L27.2139 -17.7388
L26.883 -18.034
L26.5597 -18.3349
L26.2441 -18.6408
L25.936 -18.951
L25.6356 -19.2652
L25.3428 -19.5827
L25.0577 -19.9032
L24.78 -20.2261
L24.5099 -20.5512
L24.2471 -20.878
L23.9916 -21.2061
L23.7434 -21.5354
L23.5023 -21.8655
L23.2681 -22.1961
L23.0409 -22.527
L22.8204 -22.858
L22.6065 -23.1889
L22.399 -23.5196
L22.198 -23.8497
L22.0032 -24.1793
L21.8144 -24.5082
L21.6316 -24.8362
L21.4546 -25.1632
L21.2833 -25.4892
L21.1175 -25.8141
L20.9571 -26.1378
L20.8021 -26.4602
L20.6521 -26.7813
L20.5072 -27.101
L20.3671 -27.4194
L20.2319 -27.7363
L20.1012 -28.0518
L19.9752 -28.3658
L19.8535 -28.6784
L19.7362 -28.9895
L19.623 -29.2991
L19.514 -29.6073
L19.4089 -29.914
L19.3078 -30.2193
L19.2104 -30.5231
L19.1168 -30.8256
L19.0269 -31.1267
L18.9404 -31.4265
L18.8575 -31.725
L18.7779 -32.0222
L18.7017 -32.3181
L18.6287 -32.6129
L18.5589 -32.9065
L18.4922 -33.199
L18.4285 -33.4904
L18.3679 -33.7807
L18.3102 -34.0701
L18.2554 -34.3585
L18.2035 -34.6461
L18.1543 -34.9328
L18.108 -35.2187
L18.0643 -35.5038
L18.0233 -35.7883
L17.985 -36.0721
L17.9493 -36.3554
L17.9162 -36.638
L17.8857 -36.9203
L17.8577 -37.202
L17.8322 -37.4834
L17.8092 -37.7645
L17.7888 -38.0453
L17.7708 -38.3259
L17.7553 -38.6064
L17.7423 -38.8867
L17.7317 -39.167
L17.7236 -39.4473
L17.718 -39.7277
L17.7148 -40.0082
L17.7141 -40.2888
L17.7159 -40.5697
L17.7203 -40.8509
L17.7271 -41.1324
L17.7365 -41.4143
L17.7484 -41.6967
L17.763 -41.9795
L17.7801 -42.2629
L17.7999 -42.5469
L17.8224 -42.8316
L17.8476 -43.117
L17.8756 -43.4032
L17.9063 -43.6902
L17.9399 -43.9781
L17.9764 -44.2669
L18.0159 -44.5567
L18.0584 -44.8475
L18.1039 -45.1394
L18.1526 -45.4323
L18.2045 -45.7265
L18.2597 -46.0219
L18.3182 -46.3185
L18.3802 -46.6164
L18.4457 -46.9156
L18.5148 -47.2162
L18.5876 -47.5182
L18.6643 -47.8216
L18.7448 -48.1265
L18.8293 -48.4329
L18.918 -48.7408
L19.0109 -49.0502
L19.1082 -49.3612
L19.2099 -49.6738
L19.3163 -49.9879
L19.4274 -50.3035
L19.5435 -50.6208
L19.6646 -50.9396
L19.7909 -51.26
L19.9226 -51.5818
L20.0597 -51.9052
L20.2026 -52.2301
L20.3513 -52.5563
L20.5061 -52.8839
L20.6671 -53.2128
L20.8346 -53.5429
L21.0086 -53.8742
L21.1894 -54.2064
L21.3772 -54.5396
L21.5723 -54.8737
L21.7747 -55.2083
L21.9848 -55.5435
L22.2026 -55.879
L22.4286 -56.2146
L22.6627 -56.5501
L22.9053 -56.8854
L23.1566 -57.2201
L23.4168 -57.5539
L23.686 -57.8867
L23.9646 -58.2179
L24.2525 -58.5474
L24.5501 -58.8747
L24.8575 -59.1993
L25.1748 -59.5209
L25.5023 -59.839
L25.8399 -60.153
L26.1878 -60.4624
L26.5461 -60.7666
L26.9148 -61.065
L27.2938 -61.3568
L27.6832 -61.6413
L28.0829 -61.9178
L28.4927 -62.1853
L28.9123 -62.4431
L29.3416 -62.6901
L29.7802 -62.9253
L30.2277 -63.1477
L30.6834 -63.356
L31.1469 -63.5492
L31.6172 -63.726
L32.0937 -63.8851
L32.5752 -64.0252
L33.0606 -64.1451
L33.5488 -64.2437
L34.0384 -64.3197
L34.5279 -64.3723
L35.016 -64.4008
L35.5011 -64.4045
L35.9817 -64.3833
L36.4566 -64.3373
L36.9244 -64.2669
L37.3841 -64.1727
L37.8346 -64.0557
L38.2752 -63.9171
L38.7053 -63.758
L39.1244 -63.5799
L39.5321 -63.3842
L39.9283 -63.1723
L40.3129 -62.9456
L40.6858 -62.7055
L41.0472 -62.4532
L41.397 -62.19
L41.7355 -61.9169
L42.0627 -61.6349
L42.379 -61.3451
L42.6845 -61.0484
L42.9794 -60.7454
L43.264 -60.437
L43.5385 -60.1239
L43.8032 -59.8067
L44.0584 -59.486
L44.3042 -59.1623
L44.5409 -58.8361
L44.7688 -58.5078
L44.9881 -58.1779
L45.1991 -57.8468
L45.402 -57.5147
L45.5971 -57.1821
L45.7846 -56.8491
L45.9647 -56.516
L46.1377 -56.1832
L46.3038 -55.8508
L46.4631 -55.519
L46.6161 -55.1879
L46.7627 -54.8578
L46.9033 -54.5288
L47.038 -54.201
L47.1671 -53.8745
L47.2907 -53.5494
L47.409 -53.2258
L47.5222 -52.9038
L47.6304 -52.5834
L47.7339 -52.2647
L47.8327 -51.9478
L47.9271 -51.6326
L48.0171 -51.3192
L48.103 -51.0077
L48.1848 -50.698
L48.2627 -50.3901
L48.3368 -50.084
L48.4073 -49.7798
L48.4742 -49.4774
L48.5376 -49.1768
L48.5978 -48.8779
L48.6547 -48.5809
L48.7085 -48.2856
L48.7593 -47.992
L48.8071 -47.7
L48.8521 -47.4098
L48.8943 -47.1211
L48.9338 -46.834
L48.9707 -46.5484
L49.0051 -46.2643
L49.0369 -45.9816
L49.0663 -45.7003
L49.0934 -45.4204
L49.1181 -45.1418
L49.1406 -44.8644
L49.1609 -44.5882
L49.179 -44.3131
L49.1951 -44.0392
L49.209 -43.7663
L49.2209 -43.4943
L49.2309 -43.2233
L49.2388 -42.9532
L49.2449 -42.6839
L49.249 -42.4153
L49.2512 -42.1475
L49.2516 -41.8803
L49.2502 -41.6137
L49.2469 -41.3476
L49.2419 -41.0821
L49.235 -40.8169
L49.2264 -40.5522
L49.2161 -40.2877
L49.204 -40.0235
L49.1901 -39.7595
z
" id="C0_1_67d2148b11"/>
    </defs>
    <g clip-path="url(#p1bffca34e9)">
     <use style="fill:#ffffff;stroke:#000000;stroke-width:2.0;" x="0.0" xlink:href="#C0_0_a811fe30f3" y="72.0"/>
    </g>
    <g clip-path="url(#p1bffca34e9)">
     <use style="fill:#ff0000;stroke:#000000;stroke-width:2.0;" x="0.0" xlink:href="#C0_1_67d2148b11" y="72.0"/>
    </g>
   </g>
  </g>
 </g>
 <defs>
  <clipPath id="p1bffca34e9">
   <rect height="72.0" width="72.0" x="0.0" y="0.0"/>
  </clipPath>
 </defs>
</svg>
