<?xml version="1.0" encoding="utf-8" standalone="no"?>
<!DOCTYPE svg PUBLIC "-//W3C//DTD SVG 1.1//EN"
  "http://www.w3.org/Graphics/SVG/1.1/DTD/svg11.dtd">
<!-- Created with matplotlib (http://matplotlib.org/) -->
<svg height="72pt" version="1.1" viewBox="0 0 72 72" width="72pt" xmlns="http://www.w3.org/2000/svg" xmlns:xlink="http://www.w3.org/1999/xlink">
 <defs>
  <style type="text/css">
*{stroke-linecap:butt;stroke-linejoin:round;}
  </style>
 </defs>
 <g id="figure_1">
  <g id="patch_1">
   <path d="
M0 72
L72 72
L72 0
L0 0
z
" style="fill:none;"/>
  </g>
  <g id="axes_1">
   <g id="PatchCollection_1">
    <defs>
     <path d="
M36 -7.5
C43.5583 -7.5 50.808 -10.5029 56.1525 -15.8475
C61.4971 -21.192 64.5 -28.4417 64.5 -36
C64.5 -43.5583 61.4971 -50.808 56.1525 -56.1525
C50.808 -61.4971 43.5583 -64.5 36 -64.5
C28.4417 -64.5 21.192 -61.4971 15.8475 -56.1525
C10.5029 -50.808 7.5 -43.5583 7.5 -36
C7.5 -28.4417 10.5029 -21.192 15.8475 -15.8475
C21.192 -10.5029 28.4417 -7.5 36 -7.5
z
" id="C0_0_a811fe30f3"/>
     <path d="
M12.0959 -51.2268
L12.435 -51.4242
L12.7744 -51.6112
L13.1137 -51.7881
L13.4528 -51.9554
L13.7913 -52.1133
L14.1291 -52.2622
L14.466 -52.4023
L14.8018 -52.534
L15.1362 -52.6576
L15.4693 -52.7734
L15.8008 -52.8816
L16.1307 -52.9826
L16.4588 -53.0765
L16.7851 -53.1637
L17.1095 -53.2444
L17.432 -53.3189
L17.7524 -53.3873
L18.0708 -53.45
L18.3871 -53.507
L18.7013 -53.5587
L19.0134 -53.6051
L19.3234 -53.6466
L19.6312 -53.6833
L19.9369 -53.7152
L20.2404 -53.7428
L20.5418 -53.7659
L20.8411 -53.7849
L21.1383 -53.7999
L21.4335 -53.8109
L21.7266 -53.8182
L22.0177 -53.8218
L22.3069 -53.8219
L22.5941 -53.8185
L22.8794 -53.8118
L23.1628 -53.8019
L23.4444 -53.7889
L23.7242 -53.7728
L24.0022 -53.7538
L24.2786 -53.7319
L24.5533 -53.7071
L24.8264 -53.6797
L25.0979 -53.6495
L25.3679 -53.6168
L25.6364 -53.5814
L25.9036 -53.5436
L26.1693 -53.5033
L26.4337 -53.4607
L26.6969 -53.4156
L26.9588 -53.3682
L27.2195 -53.3186
L27.4792 -53.2666
L27.7377 -53.2124
L27.9952 -53.1561
L28.2518 -53.0975
L28.5074 -53.0368
L28.7621 -52.9739
L29.016 -52.9089
L29.2691 -52.8418
L29.5215 -52.7725
L29.7732 -52.7012
L30.0242 -52.6277
L30.5246 -52.5522
L30.774 -52.4745
L31.023 -52.3948
L31.2715 -52.313
L31.5197 -52.229
L31.7675 -52.1429
L32.0151 -52.0547
L32.2624 -51.9644
L32.5095 -51.8719
L32.7565 -51.7772
L33.0033 -51.6803
L33.2501 -51.5812
L33.4969 -51.4799
L33.7436 -51.3763
L33.9904 -51.2704
L34.2372 -51.1621
L34.4841 -51.0515
L34.7312 -50.9386
L34.9785 -50.8232
L35.2259 -50.7053
L35.4736 -50.5849
L35.7215 -50.462
L35.9697 -50.3366
L36.2182 -50.2084
L36.467 -50.0777
L36.7162 -49.9441
L36.9658 -49.8079
L37.2157 -49.6688
L37.466 -49.5268
L37.7167 -49.3819
L37.9678 -49.234
L38.2193 -49.083
L38.4713 -48.929
L38.7237 -48.7718
L38.9764 -48.6114
L39.2296 -48.4476
L39.4831 -48.2806
L39.7371 -48.1101
L39.9913 -47.9361
L40.2459 -47.7586
L40.5007 -47.5775
L40.7558 -47.3927
L41.0111 -47.2041
L41.2665 -47.0117
L41.5221 -46.8154
L41.7776 -46.6152
L42.0331 -46.4109
L42.2884 -46.2026
L42.5435 -45.9901
L42.7983 -45.7733
L43.0526 -45.5523
L43.3063 -45.327
L43.5594 -45.0972
L43.8116 -44.863
L44.0628 -44.6242
L44.3128 -44.381
L44.5615 -44.1331
L44.8086 -43.8805
L45.0539 -43.6233
L45.2972 -43.3614
L45.5382 -43.0948
L45.7767 -42.8235
L46.0124 -42.5473
L46.2449 -42.2665
L46.474 -41.9809
L46.6992 -41.6906
L46.9202 -41.3957
L47.1366 -41.0961
L47.348 -40.792
L47.5538 -40.4833
L47.7537 -40.1703
L47.9471 -39.8529
L48.1336 -39.5313
L48.3124 -39.2057
L48.4831 -38.8762
L48.645 -38.543
L48.7976 -38.2062
L48.9401 -37.8661
L49.0719 -37.523
L49.1923 -37.177
L49.3007 -36.8285
L49.3965 -36.4777
L49.4789 -36.1251
L49.5473 -35.7709
L49.6012 -35.4154
L49.64 -35.0592
L49.6633 -34.7025
L49.6706 -34.3458
L49.6617 -33.9895
L49.6364 -33.6341
L49.5945 -33.2799
L49.5359 -32.9273
L49.4609 -32.5769
L49.3696 -32.229
L49.2623 -31.8839
L49.1394 -31.5421
L49.0015 -31.204
L48.8489 -30.8697
L48.6824 -30.5397
L48.5025 -30.2142
L48.3101 -29.8935
L48.1057 -29.5778
L47.8902 -29.2673
L47.6642 -28.9622
L47.4285 -28.6626
L47.1837 -28.3686
L46.9306 -28.0805
L46.6698 -27.7981
L46.402 -27.5218
L46.1277 -27.2514
L45.8476 -26.987
L45.5623 -26.7286
L45.2722 -26.4764
L44.9779 -26.2302
L44.6798 -25.99
L44.3784 -25.7558
L44.074 -25.5277
L43.7671 -25.3054
L43.458 -25.0891
L43.1471 -24.8786
L42.8347 -24.6739
L42.521 -24.4749
L42.2064 -24.2815
L41.891 -24.0937
L41.5751 -23.9113
L41.259 -23.7344
L40.9427 -23.5627
L40.6265 -23.3963
L40.3106 -23.2349
L39.995 -23.0787
L39.68 -22.9273
L39.3656 -22.7808
L39.0519 -22.639
L38.7391 -22.5019
L38.4272 -22.3694
L38.1162 -22.2414
L37.8064 -22.1177
L37.4977 -21.9983
L37.1901 -21.8831
L36.8838 -21.772
L36.5787 -21.665
L36.2749 -21.5619
L35.9724 -21.4626
L35.6712 -21.3671
L35.3713 -21.2754
L35.0727 -21.1872
L34.7755 -21.1026
L34.4796 -21.0215
L34.1851 -20.9438
L33.8918 -20.8694
L33.5999 -20.7983
L33.3092 -20.7304
L33.0198 -20.6657
L32.7317 -20.604
L32.4448 -20.5454
L32.159 -20.4898
L31.8745 -20.4371
L31.591 -20.3873
L31.3087 -20.3403
L31.0274 -20.2961
L30.7472 -20.2547
L30.468 -20.216
L30.1897 -20.18
L29.9124 -20.1467
L29.6359 -20.1159
L29.3603 -20.0878
L29.0855 -20.0622
L28.8114 -20.0392
L28.5381 -20.0187
L28.2655 -20.0007
L27.9935 -19.9851
L27.7221 -19.9721
L27.4512 -19.9615
L27.1808 -19.9534
L26.911 -19.9477
L26.6415 -19.9445
L26.3724 -19.9437
L26.1036 -19.9453
L25.8352 -19.9494
L25.567 -19.956
L25.2989 -19.965
L25.0311 -19.9765
L24.7633 -19.9905
L24.4957 -20.0069
L24.228 -20.0259
L23.9604 -20.0475
L23.6927 -20.0716
L23.4249 -20.0983
L23.157 -20.1276
L22.8889 -20.1596
L22.6206 -20.1942
L22.352 -20.2316
L22.0832 -20.2718
L21.814 -20.3148
L21.5445 -20.3606
L21.2746 -20.4094
L21.0042 -20.4611
L20.7334 -20.5159
L20.4621 -20.5738
L20.1903 -20.6348
L19.918 -20.699
L19.6451 -20.7665
L19.3716 -20.8374
L19.0974 -20.9118
L18.8227 -20.9896
L18.5473 -21.0711
L18.2712 -21.1563
L17.9945 -21.2454
L17.7171 -21.3383
L17.439 -21.4352
L17.1602 -21.5363
L16.8807 -21.6416
L16.6006 -21.7513
L16.3198 -21.8654
L16.0383 -21.9842
L15.7562 -22.1077
L15.4736 -22.2361
L15.1903 -22.3696
L14.9066 -22.5082
L14.6224 -22.6522
L14.3377 -22.8016
L14.0527 -22.9568
L13.7674 -23.1177
L13.4819 -23.2847
L13.1962 -23.4579
L12.9106 -23.6374
L12.625 -23.8236
L12.3397 -24.0165
L12.0547 -24.2163
L11.7702 -24.4234
L11.4863 -24.6378
L11.2033 -24.8598
L10.9213 -25.0897
L10.6406 -25.3275
L10.3613 -25.5736
L10.0837 -25.8282
L9.80809 -26.0915
L9.53473 -26.3637
L9.26394 -26.645
L8.99604 -26.9357
L8.74252 -27.2359
L8.60141 -27.6766
L8.46864 -28.1535
L8.34426 -28.6329
L8.2283 -29.1145
L8.12081 -29.5982
L8.0218 -30.0839
L7.93132 -30.5713
L7.84939 -31.0604
L7.77603 -31.5511
L7.71127 -32.043
L7.65513 -32.5362
L7.60762 -33.0305
L7.56876 -33.5256
L7.53856 -34.0215
L7.51703 -34.518
L7.50418 -35.0149
L7.5 -35.5122
L7.50451 -36.0096
L7.5177 -36.507
L7.53956 -37.0042
L7.57009 -37.5011
L7.60929 -37.9976
L7.65713 -38.4935
L7.7136 -38.9886
L7.77869 -39.4828
L7.85238 -39.9759
L7.93464 -40.4678
L8.02545 -40.9584
L8.12478 -41.4474
L8.23261 -41.9348
L8.34889 -42.4204
L8.47359 -42.9041
L8.60668 -43.3856
L8.74811 -43.8649
L8.89785 -44.3417
L9.05584 -44.8161
L9.22203 -45.2877
L9.39639 -45.7566
L9.57885 -46.2224
L9.76935 -46.6852
L9.96785 -47.1446
L10.1743 -47.6007
L10.3886 -48.0533
L10.6107 -48.5022
L10.8405 -48.9473
L11.078 -49.3884
L11.3231 -49.8254
L11.5757 -50.2583
z
" id="C0_1_574eadc622"/>
     <path d="
M63.1748 -44.425
L63.1327 -44.0169
L63.0855 -43.6073
L63.0334 -43.1962
L62.9766 -42.7836
L62.9152 -42.3698
L62.8493 -41.9548
L62.7791 -41.5386
L62.705 -41.1214
L62.6271 -40.7032
L62.5458 -40.2842
L62.4613 -39.8644
L62.374 -39.4439
L62.2842 -39.0229
L62.1924 -38.6013
L62.0991 -38.1794
L62.0046 -37.7571
L61.9095 -37.3345
L61.8143 -36.9118
L61.7195 -36.4889
L61.6256 -36.0659
L61.5333 -35.6429
L61.4431 -35.2198
L61.3554 -34.7967
L61.271 -34.3736
L61.1901 -33.9505
L61.1133 -33.5274
L61.0409 -33.1043
L60.9732 -32.6812
L60.9105 -32.2579
L60.853 -31.8347
L60.8006 -31.4113
L60.7534 -30.9879
L60.7112 -30.5645
L60.6739 -30.141
L60.6411 -29.7175
L60.6125 -29.2941
L60.5878 -28.8708
L60.5664 -28.4477
L60.5478 -28.0249
L60.5317 -27.6024
L60.5173 -27.1805
L60.5044 -26.7592
L60.4922 -26.3386
L60.4803 -25.9189
L60.4683 -25.5002
L60.4556 -25.0827
L60.4419 -24.6664
L60.4266 -24.2516
L60.4096 -23.8383
L60.3903 -23.4268
L60.3685 -23.0171
L60.3438 -22.6093
L60.3161 -22.2036
L60.2851 -21.8001
L60.2506 -21.3989
L60.4857 -21.0001
L60.7365 -21.4158
L60.9798 -21.8454
L61.2155 -22.2792
L61.4434 -22.7173
L61.6637 -23.1594
L61.8761 -23.6054
L62.0806 -24.0552
L62.2772 -24.5086
L62.4657 -24.9655
L62.6463 -25.4258
L62.8187 -25.8893
L62.9829 -26.3559
L63.1389 -26.8254
L63.2866 -27.2977
L63.4261 -27.7727
L63.5572 -28.2501
L63.6798 -28.73
L63.7941 -29.212
L63.8999 -29.6961
L63.9972 -30.1822
L64.0859 -30.67
L64.1661 -31.1594
L64.2377 -31.6503
L64.3008 -32.1425
L64.3552 -32.6359
L64.4009 -33.1304
L64.438 -33.6257
L64.4665 -34.1217
L64.4863 -34.6183
L64.4974 -35.1153
L64.4998 -35.6126
L64.4935 -36.11
L64.4786 -36.6074
L64.455 -37.1046
L64.4227 -37.6014
L64.3818 -38.0978
L64.3322 -38.5935
L64.2739 -39.0884
L64.2071 -39.5824
L64.1317 -40.0753
L64.0477 -40.567
L63.9552 -41.0573
L63.8541 -41.546
L63.7446 -42.033
L63.6266 -42.5182
L63.5002 -43.0015
L63.3654 -43.4825
z
" id="C0_2_b2f4362cde"/>
    </defs>
    <g clip-path="url(#p1bffca34e9)">
     <use style="fill:#ffffff;stroke:#000000;stroke-width:2.0;" x="0.0" xlink:href="#C0_0_a811fe30f3" y="72.0"/>
    </g>
    <g clip-path="url(#p1bffca34e9)">
     <use style="fill:#ff0000;stroke:#000000;stroke-width:2.0;" x="0.0" xlink:href="#C0_1_574eadc622" y="72.0"/>
    </g>
    <g clip-path="url(#p1bffca34e9)">
     <use style="fill:#ff0000;stroke:#000000;stroke-width:2.0;" x="0.0" xlink:href="#C0_2_b2f4362cde" y="72.0"/>
    </g>
   </g>
  </g>
 </g>
 <defs>
  <clipPath id="p1bffca34e9">
   <rect height="72.0" width="72.0" x="0.0" y="0.0"/>
  </clipPath>
 </defs>
</svg>
