<?xml version="1.0" encoding="utf-8" standalone="no"?>
<!DOCTYPE svg PUBLIC "-//W3C//DTD SVG 1.1//EN"
  "http://www.w3.org/Graphics/SVG/1.1/DTD/svg11.dtd">
<!-- Created with matplotlib (http://matplotlib.org/) -->
<svg height="72pt" version="1.1" viewBox="0 0 72 72" width="72pt" xmlns="http://www.w3.org/2000/svg" xmlns:xlink="http://www.w3.org/1999/xlink">
 <defs>
  <style type="text/css">
*{stroke-linecap:butt;stroke-linejoin:round;}
  </style>
 </defs>
 <g id="figure_1">
  <g id="patch_1">
   <path d="
M0 72
L72 72
L72 0
L0 0
z
" style="fill:none;"/>
  </g>
  <g id="axes_1">
   <g id="PatchCollection_1">
    <defs>
     <path d="
M36 -7.5
C43.5583 -7.5 50.808 -10.5029 56.1525 -15.8475
C61.4971 -21.192 64.5 -28.4417 64.5 -36
C64.5 -43.5583 61.4971 -50.808 56.1525 -56.1525
C50.808 -61.4971 43.5583 -64.5 36 -64.5
C28.4417 -64.5 21.192 -61.4971 15.8475 -56.1525
C10.5029 -50.808 7.5 -43.5583 7.5 -36
C7.5 -28.4417 10.5029 -21.192 15.8475 -15.8475
C21.192 -10.5029 28.4417 -7.5 36 -7.5
z
" id="C0_0_a811fe30f3"/>
     <path d="
M12.9826 -19.244
L12.9216 -19.6037
L12.8763 -19.9581
L12.8464 -20.307
L12.8315 -20.65
L12.8311 -20.9869
L12.8449 -21.3176
L12.8724 -21.6419
L12.913 -21.9597
L12.9662 -22.2711
L13.0316 -22.5759
L13.1084 -22.8742
L13.1963 -23.1661
L13.2947 -23.4515
L13.403 -23.7307
L13.5207 -24.0038
L13.6473 -24.2707
L13.7822 -24.5318
L13.9251 -24.7871
L14.0754 -25.0367
L14.2326 -25.2809
L14.3964 -25.5198
L14.5663 -25.7536
L14.7418 -25.9823
L14.9227 -26.2062
L15.1085 -26.4254
L15.2988 -26.64
L15.4935 -26.8503
L15.692 -27.0563
L15.8942 -27.2582
L16.0998 -27.4561
L16.3085 -27.6502
L16.52 -27.8405
L16.7341 -28.0273
L16.9507 -28.2105
L17.1694 -28.3904
L17.3901 -28.567
L17.6126 -28.7405
L17.8368 -28.9109
L18.0625 -29.0783
L18.2895 -29.2428
L18.5177 -29.4046
L18.747 -29.5637
L18.9773 -29.7202
L19.2084 -29.8741
L19.4403 -30.0256
L19.6728 -30.1747
L19.906 -30.3215
L20.1396 -30.4661
L20.3737 -30.6084
L20.6082 -30.7487
L20.8429 -30.887
L21.078 -31.0232
L21.3133 -31.1576
L21.5487 -31.29
L21.7843 -31.4207
L22.02 -31.5496
L22.2558 -31.6768
L22.4917 -31.8023
L22.7276 -31.9262
L22.9635 -32.0486
L23.1995 -32.1694
L23.4355 -32.2888
L23.6714 -32.4067
L23.9074 -32.5232
L24.1433 -32.6384
L24.3793 -32.7523
L24.6152 -32.8649
L24.8512 -32.9762
L25.0872 -33.0864
L25.3232 -33.1953
L25.5593 -33.3032
L25.7954 -33.4099
L26.0316 -33.5155
L26.2679 -33.6202
L26.5042 -33.7238
L26.7408 -33.8264
L26.9774 -33.928
L27.2143 -34.0287
L27.4513 -34.1285
L27.6886 -34.2274
L27.9261 -34.3255
L28.1639 -34.4227
L28.4021 -34.5191
L28.6405 -34.6147
L28.8793 -34.7095
L29.1185 -34.8036
L29.3582 -34.8969
L29.8389 -34.9895
L30.08 -35.0814
L30.3217 -35.1726
L30.5639 -35.2631
L30.8068 -35.353
L31.0504 -35.4422
L31.2947 -35.5308
L31.5397 -35.6188
L31.7855 -35.7061
L32.032 -35.7928
L32.2795 -35.879
L32.5278 -35.9645
L32.777 -36.0495
L33.0272 -36.1339
L33.2784 -36.2177
L33.5306 -36.301
L33.7838 -36.3836
L34.0382 -36.4657
L34.2937 -36.5473
L34.5504 -36.6282
L34.8083 -36.7086
L35.0675 -36.7884
L35.3279 -36.8676
L35.5897 -36.9462
L35.8528 -37.0242
L36.1173 -37.1016
L36.3832 -37.1784
L36.6505 -37.2545
L36.9193 -37.3299
L37.1897 -37.4047
L37.4615 -37.4787
L37.735 -37.5521
L38.01 -37.6246
L38.2866 -37.6964
L38.5649 -37.7674
L38.8448 -37.8375
L39.1264 -37.9068
L39.4096 -37.9751
L39.6946 -38.0424
L39.9813 -38.1087
L40.2697 -38.1739
L40.5597 -38.2381
L40.8516 -38.301
L41.1451 -38.3626
L41.4403 -38.423
L41.7373 -38.4819
L42.0359 -38.5394
L42.3361 -38.5953
L42.6381 -38.6496
L42.9416 -38.7021
L43.2466 -38.7528
L43.5532 -38.8015
L43.8613 -38.8481
L44.1708 -38.8926
L44.4817 -38.9347
L44.7938 -38.9743
L45.1072 -39.0113
L45.4217 -39.0456
L45.7372 -39.0769
L46.0537 -39.1051
L46.3709 -39.13
L46.6889 -39.1513
L47.0074 -39.169
L47.3264 -39.1828
L47.6456 -39.1923
L47.965 -39.1975
L48.2843 -39.1981
L48.6033 -39.1937
L48.9219 -39.1841
L49.2398 -39.1691
L49.5568 -39.1483
L49.8727 -39.1214
L50.1873 -39.0881
L50.5002 -39.0481
L50.8112 -39.0011
L51.1201 -38.9466
L51.4265 -38.8844
L51.7301 -38.8142
L52.0306 -38.7356
L52.3277 -38.6482
L52.6211 -38.5517
L52.9105 -38.4458
L53.1954 -38.3302
L53.4755 -38.2047
L53.7506 -38.0689
L54.0202 -37.9226
L54.284 -37.7657
L54.5417 -37.5979
L54.793 -37.4192
L55.0375 -37.2293
L55.2749 -37.0284
L55.5049 -36.8164
L55.7272 -36.5933
L55.9417 -36.3593
L56.1479 -36.1146
L56.3458 -35.8592
L56.535 -35.5935
L56.7155 -35.3177
L56.887 -35.0322
L57.0494 -34.7374
L57.2025 -34.4336
L57.3464 -34.1212
L57.4809 -33.8007
L57.606 -33.4726
L57.7216 -33.1374
L57.8277 -32.7955
L57.9243 -32.4474
L58.0114 -32.0937
L58.0892 -31.7348
L58.1575 -31.3712
L58.2166 -31.0034
L58.2664 -30.632
L58.3071 -30.2573
L58.3388 -29.8798
L58.3615 -29.5
L58.3755 -29.1182
L58.3808 -28.735
L58.3776 -28.3506
L58.3659 -27.9654
L58.3461 -27.5799
L58.3181 -27.1943
L58.2822 -26.809
L58.2385 -26.4242
L58.1871 -26.0402
L58.1283 -25.6574
L58.0622 -25.2759
L57.989 -24.896
L57.9087 -24.518
L57.8216 -24.1419
L57.7279 -23.768
L57.6276 -23.3965
L57.5209 -23.0276
L57.408 -22.6613
L57.2891 -22.2978
L57.1642 -21.9373
L57.0335 -21.5798
L56.8972 -21.2254
L56.7553 -20.8744
L56.6081 -20.5266
L56.4556 -20.1822
L56.2979 -19.8414
L56.1352 -19.504
L55.9676 -19.1703
L55.7952 -18.8402
L55.6181 -18.5137
L55.4364 -18.191
L55.2502 -17.872
L55.0596 -17.5567
L54.8647 -17.2453
L54.6655 -16.9377
L54.4621 -16.6338
L54.2547 -16.3339
L54.0432 -16.0377
L53.8278 -15.7454
L53.6085 -15.457
L53.3853 -15.1724
L53.1584 -14.8916
L52.9277 -14.6147
L52.6934 -14.3417
L52.4554 -14.0725
L52.2138 -13.8072
L51.9687 -13.5457
L51.72 -13.288
L51.4678 -13.0342
L51.2121 -12.7843
L50.953 -12.5381
L50.6905 -12.2958
L50.4245 -12.0574
L50.1551 -11.8227
L49.8824 -11.592
L49.6062 -11.365
L49.3267 -11.1419
L49.0438 -10.9226
L48.619 -10.7072
L48.1711 -10.4459
L47.7195 -10.2296
L47.2643 -10.0211
L46.8057 -9.8205
L46.3438 -9.6279
L45.8787 -9.44333
L45.4107 -9.26686
L44.9397 -9.09852
L44.4661 -8.93838
L43.9898 -8.78648
L43.5112 -8.64287
L43.0302 -8.5076
L42.5471 -8.3807
L42.062 -8.26221
L41.5751 -8.15217
L41.0865 -8.05061
L40.5963 -7.95757
L40.1047 -7.87307
L39.6119 -7.79714
L39.1179 -7.7298
L38.6231 -7.67107
L38.1274 -7.62097
L37.631 -7.57951
L37.1342 -7.54671
L36.637 -7.52258
L36.1397 -7.50712
L35.6423 -7.50034
L35.145 -7.50225
L34.6479 -7.51283
L34.1513 -7.53209
L33.6552 -7.56002
L33.1599 -7.59662
L32.6654 -7.64187
L32.1719 -7.69575
L31.6796 -7.75826
L31.1886 -7.82937
L30.6991 -7.90906
L30.2112 -7.99731
L29.7251 -8.09409
L29.2408 -8.19937
L28.7587 -8.31311
L28.2787 -8.43529
L27.8011 -8.56587
L27.326 -8.7048
L26.8535 -8.85205
L26.3838 -9.00757
L25.917 -9.17131
L25.4534 -9.34322
L24.9929 -9.52325
L24.5358 -9.71135
L24.0821 -9.90745
L23.6321 -10.1115
L23.1859 -10.3234
L22.7436 -10.5432
L22.3053 -10.7707
L21.8711 -11.0059
L21.4413 -11.2487
L21.0159 -11.4991
L20.5951 -11.7569
L20.179 -12.0221
L19.7677 -12.2946
L19.3613 -12.5743
L18.96 -12.8612
L18.5639 -13.1551
L18.1731 -13.456
L17.7878 -13.7637
L17.408 -14.0782
L17.0338 -14.3994
L16.6654 -14.7272
L16.303 -15.0614
L15.9465 -15.402
L15.5961 -15.7489
L15.2519 -16.102
L14.9141 -16.4611
L14.5827 -16.8262
L14.2578 -17.1971
L13.9395 -17.5738
L13.628 -17.956
L13.3232 -18.3438
z
" id="C0_1_8aaa27d47b"/>
     <path d="
M23.2577 -61.4737
L23.5979 -61.5761
L23.9385 -61.6743
L24.2794 -61.7683
L24.6206 -61.8583
L24.9623 -61.9442
L25.3044 -62.026
L25.6469 -62.1039
L25.9899 -62.1778
L26.3334 -62.2477
L26.6774 -62.3138
L27.022 -62.3759
L27.3671 -62.4341
L27.7129 -62.4884
L28.0593 -62.5389
L28.4064 -62.5855
L28.7542 -62.6282
L29.1027 -62.6671
L29.452 -62.7021
L29.8021 -62.7333
L30.153 -62.7607
L30.5047 -62.7841
L30.8573 -62.8037
L31.2108 -62.8194
L31.5653 -62.8312
L31.9207 -62.8391
L32.2771 -62.8431
L32.6345 -62.8431
L32.9929 -62.8391
L33.3524 -62.8312
L33.713 -62.8192
L34.0747 -62.8031
L34.4374 -62.783
L34.8013 -62.7587
L35.1664 -62.7303
L35.5326 -62.6977
L35.9 -62.6609
L36.2685 -62.6198
L36.6382 -62.5744
L37.0091 -62.5247
L37.3812 -62.4706
L37.7545 -62.4121
L38.129 -62.3491
L38.5046 -62.2816
L38.8814 -62.2095
L39.2593 -62.1329
L39.6383 -62.0516
L40.0185 -61.9657
L40.3997 -61.8751
L40.7819 -61.7797
L41.1652 -61.6796
L41.5494 -61.5747
L41.9346 -61.465
L42.3206 -61.3504
L42.7074 -61.2309
L43.095 -61.1066
L43.4833 -60.9774
L43.8723 -60.8432
L44.2618 -60.7043
L44.6517 -60.5604
L45.0421 -60.4117
L45.4327 -60.2582
L45.8236 -60.0999
L46.2145 -59.9368
L46.6055 -59.7691
L46.9964 -59.5969
L47.3871 -59.4201
L47.7774 -59.2389
L48.1673 -59.0535
L48.5566 -58.8639
L48.9452 -58.6703
L49.333 -58.4729
L49.7198 -58.2719
L50.1056 -58.0675
L50.4901 -57.8598
L50.8733 -57.6493
L51.255 -57.436
L51.6351 -57.2203
L52.0134 -57.0026
L52.3899 -56.7831
L52.7644 -56.5621
L53.1368 -56.3401
L53.507 -56.1175
L53.8749 -55.8945
L54.2404 -55.6717
L54.6033 -55.4494
L54.9637 -55.2281
L55.3214 -55.0082
L55.6764 -54.79
L56.0286 -54.5741
L56.378 -54.3607
L56.7244 -54.1504
L57.0679 -53.9435
L57.4084 -53.7403
L57.7459 -53.5412
L58.0804 -53.3465
L58.4118 -53.1563
L58.5395 -52.9711
L58.2316 -53.442
L57.917 -53.8327
L57.5957 -54.218
L57.2679 -54.5977
L56.9335 -54.9718
L56.5928 -55.3401
L56.2458 -55.7025
L55.8926 -56.0588
L55.5334 -56.4091
L55.1683 -56.7532
L54.7973 -57.0909
L54.4205 -57.4223
L54.0382 -57.7471
L53.6503 -58.0652
L53.2571 -58.3767
L52.8587 -58.6813
L52.455 -58.979
L52.0464 -59.2698
L51.6329 -59.5534
L51.2147 -59.8299
L50.7917 -60.0991
L50.3643 -60.3609
L49.9326 -60.6154
L49.4965 -60.8623
L49.0564 -61.1017
L48.6123 -61.3334
L48.1643 -61.5574
L47.7126 -61.7736
L47.2574 -61.982
L46.7987 -62.1825
L46.3368 -62.3749
L45.8717 -62.5594
L45.4036 -62.7357
L44.9326 -62.9039
L44.4589 -63.064
L43.9827 -63.2157
L43.504 -63.3592
L43.023 -63.4944
L42.5399 -63.6211
L42.0547 -63.7395
L41.5678 -63.8494
L41.0791 -63.9508
L40.5889 -64.0438
L40.0973 -64.1281
L39.6045 -64.2039
L39.1105 -64.2711
L38.6156 -64.3298
L38.1199 -64.3797
L37.6236 -64.421
L37.1267 -64.4537
L36.6296 -64.4777
L36.1322 -64.493
L35.6348 -64.4997
L35.1375 -64.4977
L34.6405 -64.4869
L34.1438 -64.4676
L33.6478 -64.4395
L33.1524 -64.4028
L32.658 -64.3574
L32.1645 -64.3034
L31.6722 -64.2407
L31.1813 -64.1695
L30.6918 -64.0897
L30.2039 -64.0013
L29.7178 -63.9044
L29.2336 -63.799
L28.7514 -63.6851
L28.2715 -63.5628
L27.7939 -63.4321
L27.3188 -63.293
L26.8464 -63.1457
L26.3768 -62.99
L25.91 -62.8262
L25.4464 -62.6541
L24.986 -62.474
L24.5289 -62.2858
L24.0753 -62.0895
z
" id="C0_2_7d36fb565c"/>
    </defs>
    <g clip-path="url(#p1bffca34e9)">
     <use style="fill:#ffffff;stroke:#000000;stroke-width:2.0;" x="0.0" xlink:href="#C0_0_a811fe30f3" y="72.0"/>
    </g>
    <g clip-path="url(#p1bffca34e9)">
     <use style="fill:#ff0000;stroke:#000000;stroke-width:2.0;" x="0.0" xlink:href="#C0_1_8aaa27d47b" y="72.0"/>
    </g>
    <g clip-path="url(#p1bffca34e9)">
     <use style="fill:#ff0000;stroke:#000000;stroke-width:2.0;" x="0.0" xlink:href="#C0_2_7d36fb565c" y="72.0"/>
    </g>
   </g>
  </g>
 </g>
 <defs>
  <clipPath id="p1bffca34e9">
   <rect height="72.0" width="72.0" x="0.0" y="0.0"/>
  </clipPath>
 </defs>
</svg>
