<?xml version="1.0" encoding="utf-8" standalone="no"?>
<!DOCTYPE svg PUBLIC "-//W3C//DTD SVG 1.1//EN"
  "http://www.w3.org/Graphics/SVG/1.1/DTD/svg11.dtd">
<!-- Created with matplotlib (http://matplotlib.org/) -->
<svg height="72pt" version="1.1" viewBox="0 0 72 72" width="72pt" xmlns="http://www.w3.org/2000/svg" xmlns:xlink="http://www.w3.org/1999/xlink">
 <defs>
  <style type="text/css">
*{stroke-linecap:butt;stroke-linejoin:round;}
  </style>
 </defs>
 <g id="figure_1">
  <g id="patch_1">
   <path d="
M0 72
L72 72
L72 0
L0 0
z
" style="fill:none;"/>
  </g>
  <g id="axes_1">
   <g id="PatchCollection_1">
    <defs>
     <path d="
M36 -7.5
C43.5583 -7.5 50.808 -10.5029 56.1525 -15.8475
C61.4971 -21.192 64.5 -28.4417 64.5 -36
C64.5 -43.5583 61.4971 -50.808 56.1525 -56.1525
C50.808 -61.4971 43.5583 -64.5 36 -64.5
C28.4417 -64.5 21.192 -61.4971 15.8475 -56.1525
C10.5029 -50.808 7.5 -43.5583 7.5 -36
C7.5 -28.4417 10.5029 -21.192 15.8475 -15.8475
C21.192 -10.5029 28.4417 -7.5 36 -7.5
z
" id="C0_0_a811fe30f3"/>
     <path d="
M8.3933 -29.0788
L8.56484 -29.199
L8.73679 -29.3185
L8.90915 -29.4373
L9.08192 -29.5554
L9.25511 -29.6728
L9.42873 -29.7895
L9.60278 -29.9056
L9.77728 -30.0211
L9.95223 -30.136
L10.1277 -30.2503
L10.3036 -30.364
L10.48 -30.4772
L10.6569 -30.5899
L10.8344 -30.7021
L11.0125 -30.8139
L11.1911 -30.9252
L11.3703 -31.0361
L11.5502 -31.1466
L11.7307 -31.2568
L11.9119 -31.3666
L12.0938 -31.4761
L12.2765 -31.5853
L12.4599 -31.6943
L12.6441 -31.803
L12.8291 -31.9115
L13.0151 -32.0198
L13.2019 -32.128
L13.5783 -32.2359
L13.7681 -32.3438
L13.9588 -32.4516
L14.1507 -32.5594
L14.3436 -32.667
L14.5378 -32.7747
L14.7331 -32.8824
L14.9297 -32.9901
L15.1276 -33.0979
L15.3268 -33.2057
L15.5273 -33.3137
L15.7293 -33.4218
L15.9328 -33.53
L16.1378 -33.6385
L16.3443 -33.7471
L16.5525 -33.856
L16.7623 -33.9652
L16.9738 -34.0746
L17.1871 -34.1843
L17.4022 -34.2944
L17.6191 -34.4049
L17.838 -34.5157
L18.0588 -34.6269
L18.2816 -34.7386
L18.5065 -34.8507
L18.7335 -34.9634
L18.9627 -35.0765
L19.1942 -35.1902
L19.4279 -35.3044
L19.6639 -35.4193
L19.9023 -35.5347
L20.1432 -35.6508
L20.3865 -35.7676
L20.6324 -35.8851
L20.8808 -36.0032
L21.1319 -36.1222
L21.3856 -36.2419
L21.6421 -36.3624
L21.9014 -36.4837
L22.1634 -36.6059
L22.4283 -36.729
L22.696 -36.853
L22.9667 -36.9779
L23.2403 -37.1038
L23.5168 -37.2307
L23.7963 -37.3586
L24.0788 -37.4875
L24.3643 -37.6175
L24.6528 -37.7486
L24.9442 -37.8809
L25.2387 -38.0144
L25.5361 -38.149
L25.8364 -38.2849
L26.1396 -38.422
L26.4456 -38.5605
L26.7543 -38.7003
L27.0658 -38.8415
L27.3798 -38.9842
L27.6963 -39.1283
L28.0152 -39.2739
L28.3363 -39.4212
L28.6594 -39.5701
L28.9844 -39.7207
L29.311 -39.8731
L29.639 -40.0273
L29.9683 -40.1835
L30.2984 -40.3417
L30.629 -40.5021
L30.9599 -40.6648
L31.2906 -40.8298
L31.6207 -40.9974
L31.9497 -41.1676
L32.2772 -41.3407
L32.6026 -41.5169
L32.9254 -41.6963
L33.2449 -41.8792
L33.5604 -42.0657
L33.8713 -42.2563
L34.1768 -42.4511
L34.4762 -42.6505
L34.7686 -42.8548
L35.0532 -43.0642
L35.3293 -43.2791
L35.5959 -43.4999
L35.8523 -43.7268
L36.0978 -43.9602
L36.3315 -44.2003
L36.5528 -44.4474
L36.7612 -44.7016
L36.9562 -44.963
L37.1374 -45.2318
L37.3045 -45.5079
L37.4575 -45.7913
L37.5963 -46.0816
L37.721 -46.3788
L37.8318 -46.6824
L37.9291 -46.9921
L38.0132 -47.3073
L38.0847 -47.6277
L38.1439 -47.9526
L38.1914 -48.2816
L38.2279 -48.6139
L38.2538 -48.9492
L38.2698 -49.2867
L38.2764 -49.6259
L38.2742 -49.9663
L38.2638 -50.3074
L38.2455 -50.6487
L38.22 -50.9897
L38.1877 -51.33
L38.149 -51.6692
L38.1043 -52.0068
L38.0541 -52.3427
L37.9986 -52.6764
L37.9383 -53.0078
L37.8734 -53.3364
L37.8042 -53.6622
L37.731 -53.9849
L37.6541 -54.3043
L37.5737 -54.6202
L37.49 -54.9326
L37.4032 -55.2413
L37.3135 -55.5462
L37.2211 -55.8472
L37.1261 -56.1443
L37.0287 -56.4373
L36.929 -56.7263
L36.8272 -57.0112
L36.7234 -57.292
L36.6176 -57.5687
L36.5101 -57.8412
L36.4008 -58.1097
L36.2898 -58.374
L36.1773 -58.6342
L36.0633 -58.8903
L35.9479 -59.1425
L35.8311 -59.3906
L35.713 -59.6347
L35.5936 -59.8749
L35.4729 -60.1112
L35.3511 -60.3437
L35.2282 -60.5723
L35.1041 -60.7973
L34.9789 -61.0185
L34.8526 -61.2361
L34.7252 -61.4501
L34.5968 -61.6606
L34.4673 -61.8676
L34.3368 -62.0712
L34.2053 -62.2714
L34.0727 -62.4683
L33.9391 -62.662
L33.8045 -62.8524
L33.6687 -63.0397
L33.532 -63.2238
L33.3941 -63.4049
L33.2552 -63.583
L33.1151 -63.7581
L32.9739 -63.9303
L32.8316 -64.0997
L32.3314 -64.2662
L31.8387 -64.2629
L31.3473 -64.1946
L30.8573 -64.1177
L30.3688 -64.0322
L29.8821 -63.9381
L29.3972 -63.8356
L28.9144 -63.7246
L28.4337 -63.6051
L27.9553 -63.4773
L27.4794 -63.341
L27.006 -63.1965
L26.5354 -63.0436
L26.0677 -62.8825
L25.603 -62.7133
L25.1415 -62.5359
L24.6832 -62.3504
L24.2285 -62.1568
L23.7773 -61.9554
L23.3298 -61.746
L22.8862 -61.5287
L22.4466 -61.3037
L22.0111 -61.071
L21.5799 -60.8306
L21.153 -60.5827
L20.7307 -60.3273
L20.3131 -60.0645
L19.9002 -59.7943
L19.4922 -59.5169
L19.0893 -59.2324
L18.6915 -58.9407
L18.2989 -58.6421
L17.9118 -58.3366
L17.5302 -58.0243
L17.1542 -57.7052
L16.7839 -57.3796
L16.4195 -57.0474
L16.0611 -56.7088
L15.7087 -56.364
L15.3626 -56.0129
L15.0227 -55.6557
L14.6892 -55.2925
L14.3621 -54.9235
L14.0417 -54.5487
L13.728 -54.1682
L13.421 -53.7822
L13.121 -53.3908
L12.8279 -52.9941
L12.5418 -52.5922
L12.2629 -52.1853
L11.9912 -51.7734
L11.7269 -51.3568
L11.4699 -50.9354
L11.2204 -50.5095
L10.9785 -50.0792
L10.7442 -49.6446
L10.5176 -49.2058
L10.2987 -48.763
L10.0877 -48.3164
L9.88451 -47.8659
L9.68932 -47.4119
L9.50215 -46.9544
L9.32305 -46.4935
L9.15207 -46.0295
L8.98928 -45.5624
L8.83471 -45.0923
L8.68841 -44.6196
L8.55044 -44.1441
L8.42082 -43.6663
L8.29961 -43.186
L8.18683 -42.7036
L8.08253 -42.2192
L7.98673 -41.7328
L7.89947 -41.2447
L7.82076 -40.755
L7.75064 -40.2639
L7.68912 -39.7714
L7.63623 -39.2778
L7.59197 -38.7832
L7.55637 -38.2878
L7.52943 -37.7916
L7.51117 -37.295
L7.50158 -36.7979
L7.50068 -36.3006
L7.50846 -35.8032
L7.52491 -35.3058
L7.55004 -34.8087
L7.58383 -34.3119
L7.62628 -33.8156
L7.67738 -33.32
L7.7371 -32.8252
L7.80543 -32.3314
L7.88235 -31.8387
L7.96783 -31.3473
L8.06185 -30.8573
L8.16439 -30.3688
z
" id="C0_1_62512f69ba"/>
     <path d="
M39.2836 -7.81329
L39.3846 -8.00607
L39.4839 -8.19939
L39.5816 -8.39327
L39.6778 -8.58772
L39.7726 -8.78275
L39.8659 -8.97839
L39.9579 -9.17467
L40.0485 -9.37159
L40.1378 -9.56919
L40.2258 -9.7675
L40.3127 -9.96653
L40.3983 -10.1663
L40.4827 -10.3669
L40.566 -10.5683
L40.6483 -10.7705
L40.7294 -10.9737
L40.8095 -11.1777
L40.8886 -11.3827
L40.9668 -11.5887
L41.044 -11.7957
L41.1202 -12.0038
L41.1956 -12.213
L41.2701 -12.4234
L41.3437 -12.6349
L41.4165 -12.8477
L41.4885 -13.0618
L41.5596 -13.2772
L41.6301 -13.494
L41.6997 -13.7122
L41.7687 -13.9318
L41.8369 -14.153
L41.9044 -14.3757
L41.9712 -14.6001
L42.0374 -14.8261
L42.1029 -15.0539
L42.1678 -15.2834
L42.232 -15.5148
L42.2957 -15.7481
L42.3587 -15.9833
L42.4211 -16.2205
L42.483 -16.4597
L42.5442 -16.7011
L42.605 -16.9446
L42.6651 -17.1904
L42.7248 -17.4384
L42.7839 -17.6888
L42.8424 -17.9416
L42.9004 -18.1969
L42.958 -18.4546
L43.015 -18.715
L43.0715 -18.978
L43.1275 -19.2436
L43.183 -19.5121
L43.2381 -19.7833
L43.2927 -20.0574
L43.3467 -20.3344
L43.4004 -20.6144
L43.4535 -20.8974
L43.5062 -21.1835
L43.5585 -21.4727
L43.6103 -21.765
L43.6616 -22.0606
L43.7126 -22.3593
L43.7631 -22.6614
L43.8133 -22.9667
L43.863 -23.2754
L43.9124 -23.5874
L43.9614 -23.9028
L44.01 -24.2215
L44.0584 -24.5437
L44.1064 -24.8691
L44.1542 -25.198
L44.2018 -25.5301
L44.2492 -25.8656
L44.2964 -26.2043
L44.3435 -26.5462
L44.3907 -26.8912
L44.4378 -27.2392
L44.4851 -27.5903
L44.5326 -27.9441
L44.5803 -28.3007
L44.6285 -28.6599
L44.6772 -29.0214
L44.7266 -29.3852
L44.7768 -29.751
L44.828 -30.1186
L44.8804 -30.4877
L44.9343 -30.8581
L44.9898 -31.2294
L45.0473 -31.6014
L45.107 -31.9735
L45.1692 -32.3456
L45.2344 -32.717
L45.3029 -33.0874
L45.3752 -33.4563
L45.4517 -33.8231
L45.5328 -34.1874
L45.6192 -34.5484
L45.7114 -34.9056
L45.8099 -35.2584
L45.9154 -35.6061
L46.0283 -35.9481
L46.1494 -36.2837
L46.2791 -36.6124
L46.418 -36.9333
L46.5667 -37.2461
L46.7253 -37.5502
L46.8945 -37.845
L47.0742 -38.1302
L47.2648 -38.4055
L47.4662 -38.6705
L47.6784 -38.9252
L47.901 -39.1695
L48.1339 -39.4034
L48.3766 -39.6269
L48.6285 -39.8402
L48.8891 -40.0435
L49.1579 -40.2371
L49.434 -40.4212
L49.7169 -40.5962
L50.0058 -40.7625
L50.3 -40.9203
L50.5988 -41.07
L50.9015 -41.2119
L51.2076 -41.3465
L51.5163 -41.474
L51.827 -41.5947
L52.1394 -41.7089
L52.4527 -41.817
L52.7666 -41.9191
L53.0806 -42.0157
L53.3943 -42.1067
L53.7073 -42.1927
L54.0194 -42.2736
L54.3301 -42.3498
L54.6393 -42.4214
L54.9466 -42.4885
L55.2519 -42.5515
L55.555 -42.6103
L55.8556 -42.6653
L56.1537 -42.7164
L56.4491 -42.7639
L56.7417 -42.8078
L57.0313 -42.8483
L57.318 -42.8855
L57.6017 -42.9195
L57.8822 -42.9504
L58.1595 -42.9782
L58.4337 -43.0032
L58.7047 -43.0253
L58.9725 -43.0446
L59.237 -43.0613
L59.4983 -43.0753
L59.7564 -43.0868
L60.0113 -43.0958
L60.263 -43.1024
L60.5115 -43.1066
L60.757 -43.1084
L60.9993 -43.1081
L61.2386 -43.1054
L61.4749 -43.1007
L61.7082 -43.0937
L61.9386 -43.0847
L62.1661 -43.0736
L62.3908 -43.0604
L62.6127 -43.0453
L62.8318 -43.0281
L63.0483 -43.009
L63.2621 -42.988
L63.7441 -42.965
L63.8536 -42.5205
L63.9547 -42.0353
L64.0473 -41.5483
L64.1313 -41.0595
L64.2068 -40.5693
L64.2737 -40.0776
L64.3319 -39.5847
L64.3815 -39.0907
L64.4225 -38.5958
L64.4548 -38.1001
L64.4785 -37.6037
L64.4935 -37.1069
L64.4998 -36.6097
L64.4974 -36.1123
L64.4863 -35.6149
L64.4666 -35.1176
L64.4382 -34.6206
L64.4011 -34.124
L64.3554 -33.628
L64.301 -33.1326
L64.2381 -32.6382
L64.1665 -32.1448
L64.0863 -31.6526
L63.9976 -31.1617
L63.9003 -30.6722
L63.7946 -30.1844
L63.6804 -29.6984
L63.5577 -29.2142
L63.4267 -28.7322
L63.2873 -28.2523
L63.1396 -27.7749
L62.9836 -27.2999
L62.8194 -26.8276
L62.6471 -26.358
L62.4666 -25.8914
L62.2781 -25.4279
L62.0815 -24.9676
L61.877 -24.5107
L61.6647 -24.0573
L61.4445 -23.6075
L61.2165 -23.1614
L60.9809 -22.7193
L60.7377 -22.2813
L60.4869 -21.8474
L60.2287 -21.4178
L59.9631 -20.9927
L59.6902 -20.5721
L59.4101 -20.1562
L59.1228 -19.7452
L58.8285 -19.3391
L58.5273 -18.9381
L58.2192 -18.5423
L57.9043 -18.1518
L57.5827 -17.7667
L57.2546 -17.3872
L56.92 -17.0134
L56.579 -16.6453
L56.2318 -16.2832
L55.8784 -15.927
L55.5189 -15.577
L55.1535 -15.2332
L54.7823 -14.8957
L54.4053 -14.5646
L54.0228 -14.2401
L53.6347 -13.9222
L53.2413 -13.611
L52.8426 -13.3066
L52.4388 -13.0092
L52.03 -12.7188
L51.6163 -12.4354
L51.1978 -12.1592
L50.7747 -11.8903
L50.3471 -11.6288
L49.9152 -11.3746
L49.479 -11.128
L49.0387 -10.8889
L48.5944 -10.6575
L48.1463 -10.4338
L47.6945 -10.2179
L47.2391 -10.0098
L46.7803 -9.80969
L46.3182 -9.61753
L45.853 -9.43341
L45.3848 -9.25738
L44.9137 -9.08949
L44.4399 -8.9298
L43.9636 -8.77836
L43.4848 -8.63521
L43.0037 -8.50039
L42.5205 -8.37395
L42.0353 -8.25593
L41.5483 -8.14636
L41.0595 -8.04527
L40.5693 -7.9527
L40.0776 -7.86867
z
" id="C0_2_a9a5f24590"/>
    </defs>
    <g clip-path="url(#p1bffca34e9)">
     <use style="fill:#ffffff;stroke:#000000;stroke-width:2.0;" x="0.0" xlink:href="#C0_0_a811fe30f3" y="72.0"/>
    </g>
    <g clip-path="url(#p1bffca34e9)">
     <use style="fill:#ff0000;stroke:#000000;stroke-width:2.0;" x="0.0" xlink:href="#C0_1_62512f69ba" y="72.0"/>
    </g>
    <g clip-path="url(#p1bffca34e9)">
     <use style="fill:#ff0000;stroke:#000000;stroke-width:2.0;" x="0.0" xlink:href="#C0_2_a9a5f24590" y="72.0"/>
    </g>
   </g>
  </g>
 </g>
 <defs>
  <clipPath id="p1bffca34e9">
   <rect height="72.0" width="72.0" x="0.0" y="0.0"/>
  </clipPath>
 </defs>
</svg>
