<?xml version="1.0" encoding="utf-8" standalone="no"?>
<!DOCTYPE svg PUBLIC "-//W3C//DTD SVG 1.1//EN"
  "http://www.w3.org/Graphics/SVG/1.1/DTD/svg11.dtd">
<!-- Created with matplotlib (http://matplotlib.org/) -->
<svg height="72pt" version="1.1" viewBox="0 0 72 72" width="72pt" xmlns="http://www.w3.org/2000/svg" xmlns:xlink="http://www.w3.org/1999/xlink">
 <defs>
  <style type="text/css">
*{stroke-linecap:butt;stroke-linejoin:round;}
  </style>
 </defs>
 <g id="figure_1">
  <g id="patch_1">
   <path d="
M0 72
L72 72
L72 0
L0 0
z
" style="fill:none;"/>
  </g>
  <g id="axes_1">
   <g id="PatchCollection_1">
    <defs>
     <path d="
M36 -7.5
C43.5583 -7.5 50.808 -10.5029 56.1525 -15.8475
C61.4971 -21.192 64.5 -28.4417 64.5 -36
C64.5 -43.5583 61.4971 -50.808 56.1525 -56.1525
C50.808 -61.4971 43.5583 -64.5 36 -64.5
C28.4417 -64.5 21.192 -61.4971 15.8475 -56.1525
C10.5029 -50.808 7.5 -43.5583 7.5 -36
C7.5 -28.4417 10.5029 -21.192 15.8475 -15.8475
C21.192 -10.5029 28.4417 -7.5 36 -7.5
z
" id="C0_0_a811fe30f3"/>
     <path d="
M23.0754 -61.2663
L22.8882 -60.9971
L22.7102 -60.7263
L22.5411 -60.4541
L22.381 -60.1806
L22.2296 -59.906
L22.0869 -59.6305
L21.9527 -59.3542
L21.8269 -59.0773
L21.7094 -58.7999
L21.6001 -58.5222
L21.4988 -58.2443
L21.4053 -57.9664
L21.3196 -57.6884
L21.2414 -57.4106
L21.1707 -57.1331
L21.1073 -56.8559
L21.051 -56.5792
L21.0017 -56.303
L20.9592 -56.0274
L20.9235 -55.7525
L20.8943 -55.4783
L20.8715 -55.205
L20.8549 -54.9325
L20.8445 -54.661
L20.84 -54.3905
L20.8414 -54.121
L20.8484 -53.8526
L20.8611 -53.5853
L20.8791 -53.3192
L20.9025 -53.0542
L20.931 -52.7905
L20.9646 -52.528
L21.0031 -52.2669
L21.0464 -52.007
L21.0944 -51.7484
L21.147 -51.4912
L21.204 -51.2353
L21.2654 -50.9808
L21.331 -50.7276
L21.4008 -50.4759
L21.4746 -50.2255
L21.5524 -49.9766
L21.6341 -49.729
L21.7195 -49.4829
L21.8086 -49.2382
L21.9013 -48.9948
L21.9975 -48.753
L22.0972 -48.5125
L22.2002 -48.2734
L22.3065 -48.0358
L22.416 -47.7995
L22.5286 -47.5647
L22.6444 -47.3313
L22.7631 -47.0993
L22.8848 -46.8686
L23.0094 -46.6394
L23.1369 -46.4115
L23.2671 -46.1851
L23.4001 -45.96
L23.5358 -45.7363
L23.6741 -45.5139
L23.8149 -45.2929
L23.9584 -45.0733
L24.1043 -44.855
L24.2527 -44.638
L24.4036 -44.4224
L24.5568 -44.2081
L24.7124 -43.9951
L24.8703 -43.7835
L25.0306 -43.5732
L25.1931 -43.3642
L25.3578 -43.1565
L25.5247 -42.9501
L25.6939 -42.745
L25.8651 -42.5412
L26.0386 -42.3387
L26.3918 -42.1375
L26.5715 -41.9376
L26.7533 -41.7391
L26.9372 -41.5418
L27.123 -41.3458
L27.3109 -41.1511
L27.5008 -40.9578
L27.6927 -40.7657
L27.8865 -40.575
L28.0824 -40.3856
L28.2801 -40.1975
L28.4799 -40.0107
L28.6815 -39.8253
L28.8851 -39.6413
L29.0906 -39.4586
L29.298 -39.2773
L29.5073 -39.0974
L29.7185 -38.9189
L29.9315 -38.7418
L30.1465 -38.5662
L30.3633 -38.392
L30.582 -38.2192
L30.8025 -38.048
L31.0249 -37.8783
L31.2492 -37.7101
L31.4752 -37.5435
L31.7031 -37.3784
L31.9329 -37.215
L32.1644 -37.0532
L32.3977 -36.8931
L32.6329 -36.7347
L32.8698 -36.578
L33.1086 -36.4231
L33.349 -36.27
L33.5913 -36.1187
L33.8353 -35.9693
L34.081 -35.8219
L34.3285 -35.6764
L34.5777 -35.5329
L34.8286 -35.3915
L35.0812 -35.2522
L35.3354 -35.115
L35.5913 -34.9801
L35.8488 -34.8474
L36.1079 -34.717
L36.3687 -34.589
L36.631 -34.4634
L36.8948 -34.3403
L37.1602 -34.2197
L37.427 -34.1018
L37.6954 -33.9865
L37.9651 -33.8739
L38.2363 -33.7642
L38.5088 -33.6573
L38.7827 -33.5534
L39.0579 -33.4525
L39.3344 -33.3547
L39.6121 -33.2601
L39.8909 -33.1687
L40.1709 -33.0806
L40.452 -32.9958
L40.7341 -32.9146
L41.0172 -32.8369
L41.3013 -32.7628
L41.5863 -32.6924
L41.872 -32.6257
L42.1586 -32.563
L42.4458 -32.5041
L42.7337 -32.4493
L43.0222 -32.3986
L43.3112 -32.352
L43.6006 -32.3097
L43.8904 -32.2717
L44.1806 -32.238
L44.4709 -32.2089
L44.7613 -32.1843
L45.0519 -32.1643
L45.3424 -32.1489
L45.6328 -32.1383
L45.923 -32.1325
L46.213 -32.1316
L46.5025 -32.1356
L46.7916 -32.1446
L47.0802 -32.1586
L47.3682 -32.1777
L47.6553 -32.2019
L47.9417 -32.2313
L48.2271 -32.2659
L48.5115 -32.3057
L48.7948 -32.3509
L49.0769 -32.4013
L49.3576 -32.4571
L49.6369 -32.5182
L49.9146 -32.5847
L50.1908 -32.6565
L50.4652 -32.7338
L50.7377 -32.8164
L51.0084 -32.9044
L51.2769 -32.9979
L51.5434 -33.0966
L51.8076 -33.2008
L52.0695 -33.3103
L52.3289 -33.4251
L52.5858 -33.5452
L52.84 -33.6706
L53.0916 -33.8013
L53.3403 -33.9371
L53.586 -34.0781
L53.8288 -34.2242
L54.0685 -34.3754
L54.305 -34.5316
L54.5382 -34.6928
L54.768 -34.8589
L54.9944 -35.0299
L55.2173 -35.2056
L55.4365 -35.3861
L55.6521 -35.5713
L55.8638 -35.7611
L56.0718 -35.9555
L56.2758 -36.1543
L56.4758 -36.3575
L56.6718 -36.5651
L56.8636 -36.777
L57.0513 -36.993
L57.2347 -37.2131
L57.4137 -37.4373
L57.5884 -37.6655
L57.7586 -37.8975
L57.9243 -38.1334
L58.0855 -38.373
L58.242 -38.6162
L58.3939 -38.8631
L58.541 -39.1134
L58.6834 -39.3672
L58.8209 -39.6244
L58.9536 -39.8848
L59.0814 -40.1484
L59.2041 -40.4152
L59.3219 -40.685
L59.4346 -40.9579
L59.5422 -41.2336
L59.6446 -41.5121
L59.7418 -41.7935
L59.8338 -42.0775
L59.9206 -42.3641
L60.002 -42.6533
L60.078 -42.945
L60.1486 -43.2391
L60.2138 -43.5355
L60.2735 -43.8342
L60.3276 -44.135
L60.3762 -44.4381
L60.4192 -44.7431
L60.4565 -45.0502
L60.4881 -45.3592
L60.514 -45.6701
L60.5341 -45.9827
L60.5483 -46.2971
L60.5567 -46.6131
L60.5592 -46.9307
L60.5557 -47.2499
L60.5462 -47.5705
L60.5306 -47.8924
L60.509 -48.2157
L60.4812 -48.5402
L60.4472 -48.8659
L60.407 -49.1927
L60.3605 -49.5205
L60.3076 -49.8492
L60.2484 -50.1788
L60.1827 -50.5092
L60.1105 -50.8403
L59.853 -51.1721
L59.5771 -51.5976
L59.2941 -52.0116
L59.0039 -52.4206
L58.7068 -52.8246
L58.4028 -53.2235
L58.0919 -53.6172
L57.7743 -54.0055
L57.45 -54.3883
L57.1193 -54.7655
L56.7821 -55.137
L56.4385 -55.5027
L56.0888 -55.8624
L55.7329 -56.2161
L55.371 -56.5636
L55.0032 -56.9049
L54.6296 -57.2398
L54.2504 -57.5682
L53.8656 -57.89
L53.4753 -58.2052
L53.0797 -58.5136
L52.679 -58.8152
L52.2731 -59.1098
L51.8623 -59.3974
L51.4466 -59.6778
L51.0263 -59.951
L50.6013 -60.217
L50.172 -60.4755
L49.7383 -60.7266
L49.3004 -60.9702
L48.8584 -61.2061
L48.4126 -61.4344
L47.963 -61.655
L47.5097 -61.8677
L47.0529 -62.0725
L46.5928 -62.2694
L46.1294 -62.4583
L45.6629 -62.6392
L45.1935 -62.8119
L44.7213 -62.9765
L44.2465 -63.1328
L43.7691 -63.2809
L43.2893 -63.4206
L42.8074 -63.5521
L42.3233 -63.6751
L41.8374 -63.7897
L41.3496 -63.8958
L40.8603 -63.9934
L40.3694 -64.0825
L39.8773 -64.1631
L39.3839 -64.235
L38.8895 -64.2984
L38.3942 -64.3531
L37.8982 -64.3993
L37.4017 -64.4367
L36.9047 -64.4655
L36.4074 -64.4856
L35.91 -64.4971
L35.4126 -64.4999
L34.9154 -64.4939
L34.4185 -64.4794
L33.9221 -64.4561
L33.4264 -64.4242
L32.9314 -64.3836
L32.4374 -64.3343
L31.9444 -64.2765
L31.4527 -64.21
L30.9624 -64.1349
L30.4736 -64.0512
L29.9865 -63.9591
L29.5012 -63.8583
L29.0179 -63.7492
L28.5367 -63.6315
L28.0578 -63.5054
L27.5813 -63.371
L27.1074 -63.2282
L26.6362 -63.0772
L26.1679 -62.9178
L25.7025 -62.7503
L25.2403 -62.5746
L24.7813 -62.3909
L24.3258 -62.1991
L23.8738 -61.9993
z
" id="C0_1_2ad344e7cc"/>
     <path d="
M12.1352 -20.6034
L12.4047 -20.3952
L12.6761 -20.1895
L12.9492 -19.9862
L13.2242 -19.7854
L13.5009 -19.5871
L13.7794 -19.3912
L14.0596 -19.1977
L14.3416 -19.0067
L14.6254 -18.818
L14.9108 -18.6317
L15.198 -18.4478
L15.4869 -18.2663
L15.7774 -18.0871
L16.0697 -17.9103
L16.3637 -17.7357
L16.6593 -17.5636
L16.9566 -17.3937
L17.2556 -17.2261
L17.5562 -17.0608
L17.8585 -16.8978
L18.1624 -16.7371
L18.4679 -16.5787
L18.7751 -16.4225
L19.0839 -16.2686
L19.3944 -16.1169
L19.7064 -15.9674
L20.0201 -15.8202
L20.3353 -15.6752
L20.6521 -15.5325
L20.9705 -15.3919
L21.2905 -15.2536
L21.6121 -15.1175
L21.9351 -14.9835
L22.2598 -14.8518
L22.5859 -14.7222
L22.9136 -14.5949
L23.2428 -14.4697
L23.5735 -14.3467
L23.9056 -14.2258
L24.2392 -14.1072
L24.5743 -13.9907
L24.9108 -13.8763
L25.2487 -13.7641
L25.588 -13.6541
L25.9286 -13.5462
L26.2706 -13.4404
L26.614 -13.3368
L26.9586 -13.2353
L27.3045 -13.1359
L27.6517 -13.0387
L28.0001 -12.9435
L28.3497 -12.8505
L28.7004 -12.7596
L29.0523 -12.6707
L29.4053 -12.5839
L29.7593 -12.4992
L30.1144 -12.4166
L30.4705 -12.336
L30.8275 -12.2575
L31.1854 -12.1809
L31.5442 -12.1064
L31.9038 -12.0339
L32.2641 -11.9634
L32.6252 -11.8949
L32.987 -11.8283
L33.3495 -11.7637
L33.7125 -11.701
L34.076 -11.6402
L34.44 -11.5813
L34.8045 -11.5243
L35.1693 -11.4691
L35.5344 -11.4158
L35.8997 -11.3643
L36.2653 -11.3145
L36.631 -11.2666
L36.9967 -11.2203
L37.3625 -11.1758
L37.7282 -11.133
L38.0938 -11.0919
L38.4593 -11.0524
L38.8244 -11.0146
L39.1893 -10.9783
L39.5538 -10.9436
L39.9179 -10.9104
L40.2815 -10.8788
L40.6445 -10.8487
L41.0069 -10.82
L41.3686 -10.7928
L41.7296 -10.767
L42.0898 -10.7427
L42.449 -10.7197
L42.8074 -10.698
L43.1647 -10.6777
L43.521 -10.6587
L43.8761 -10.641
L44.2301 -10.6245
L44.5829 -10.6093
L44.9344 -10.5954
L45.2845 -10.5827
L45.6332 -10.5712
L45.9805 -10.5609
L46.3264 -10.5518
L46.6706 -10.5438
L47.0133 -10.5371
L47.3543 -10.5315
L47.6937 -10.527
L48.0314 -10.5237
L48.3673 -10.5216
L48.2678 -10.5206
L47.8169 -10.2755
L47.3625 -10.0653
L46.9046 -9.86299
L46.4434 -9.66867
L45.979 -9.48237
L45.5116 -9.30414
L45.0413 -9.13405
L44.5682 -8.97214
L44.0925 -8.81847
L43.6144 -8.67307
L43.1339 -8.536
L42.6513 -8.40729
L42.1666 -8.28699
L41.68 -8.17513
L41.1917 -8.07175
L40.7019 -7.97687
L40.2106 -7.89053
L39.718 -7.81275
L39.2243 -7.74356
L38.7296 -7.68298
L38.2341 -7.63102
L37.7379 -7.5877
L37.2412 -7.55304
L36.744 -7.52704
L36.2467 -7.50971
L35.7493 -7.50107
L35.252 -7.5011
L34.7549 -7.50982
L34.2581 -7.52721
L33.7619 -7.55328
L33.2664 -7.58801
L32.7717 -7.6314
L32.278 -7.68343
L31.7855 -7.74408
L31.2942 -7.81334
L30.8043 -7.89119
L30.3161 -7.9776
L29.8295 -8.07254
L29.3449 -8.176
L28.8622 -8.28792
L28.3818 -8.40829
L27.9036 -8.53707
L27.428 -8.67421
L26.9549 -8.81967
L26.4846 -8.97341
L26.0172 -9.13538
L25.5529 -9.30554
L25.0917 -9.48383
L24.6338 -9.6702
L24.1794 -9.86458
L23.7286 -10.0669
L23.2816 -10.2772
L22.8384 -10.4953
L22.3992 -10.7211
L21.9642 -10.9547
L21.5334 -11.1958
L21.1071 -11.4446
L20.6853 -11.7008
L20.2681 -11.9644
L19.8558 -12.2354
L19.4483 -12.5135
L19.0459 -12.7989
L18.6487 -13.0913
L18.2568 -13.3906
L17.8702 -13.6969
L17.4892 -14.01
L17.1138 -14.3297
L16.7442 -14.6561
L16.3804 -14.9889
L16.0227 -15.3282
L15.671 -15.6738
L15.3255 -16.0255
L14.9862 -16.3833
L14.6534 -16.7472
L14.3271 -17.1168
L14.0074 -17.4922
L13.6944 -17.8733
L13.3882 -18.2599
L13.0889 -18.6519
L12.7965 -19.0492
L12.5113 -19.4516
z
" id="C0_2_31ba0c3a0f"/>
    </defs>
    <g clip-path="url(#p1bffca34e9)">
     <use style="fill:#ff0000;stroke:#000000;stroke-width:2.0;" x="0.0" xlink:href="#C0_0_a811fe30f3" y="72.0"/>
    </g>
    <g clip-path="url(#p1bffca34e9)">
     <use style="fill:#ffffff;stroke:#000000;stroke-width:2.0;" x="0.0" xlink:href="#C0_1_2ad344e7cc" y="72.0"/>
    </g>
    <g clip-path="url(#p1bffca34e9)">
     <use style="fill:#ffffff;stroke:#000000;stroke-width:2.0;" x="0.0" xlink:href="#C0_2_31ba0c3a0f" y="72.0"/>
    </g>
   </g>
  </g>
 </g>
 <defs>
  <clipPath id="p1bffca34e9">
   <rect height="72.0" width="72.0" x="0.0" y="0.0"/>
  </clipPath>
 </defs>
</svg>
