<?xml version="1.0" encoding="utf-8" standalone="no"?>
<!DOCTYPE svg PUBLIC "-//W3C//DTD SVG 1.1//EN"
  "http://www.w3.org/Graphics/SVG/1.1/DTD/svg11.dtd">
<!-- Created with matplotlib (http://matplotlib.org/) -->
<svg height="72pt" version="1.1" viewBox="0 0 72 72" width="72pt" xmlns="http://www.w3.org/2000/svg" xmlns:xlink="http://www.w3.org/1999/xlink">
 <defs>
  <style type="text/css">
*{stroke-linecap:butt;stroke-linejoin:round;}
  </style>
 </defs>
 <g id="figure_1">
  <g id="patch_1">
   <path d="
M0 72
L72 72
L72 0
L0 0
z
" style="fill:none;"/>
  </g>
  <g id="axes_1">
   <g id="PatchCollection_1">
    <defs>
     <path d="
M36 -7.5
C43.5583 -7.5 50.808 -10.5029 56.1525 -15.8475
C61.4971 -21.192 64.5 -28.4417 64.5 -36
C64.5 -43.5583 61.4971 -50.808 56.1525 -56.1525
C50.808 -61.4971 43.5583 -64.5 36 -64.5
C28.4417 -64.5 21.192 -61.4971 15.8475 -56.1525
C10.5029 -50.808 7.5 -43.5583 7.5 -36
C7.5 -28.4417 10.5029 -21.192 15.8475 -15.8475
C21.192 -10.5029 28.4417 -7.5 36 -7.5
z
" id="C0_0_a811fe30f3"/>
     <path d="
M17.6321 -14.2325
L17.647 -14.5037
L17.6662 -14.7724
L17.6894 -15.0386
L17.7166 -15.3023
L17.7474 -15.5637
L17.7817 -15.8226
L17.8193 -16.0793
L17.8601 -16.3337
L17.9039 -16.586
L17.9506 -16.836
L18 -17.084
L18.052 -17.3299
L18.1065 -17.5737
L18.1634 -17.8157
L18.2225 -18.0557
L18.2839 -18.2939
L18.3474 -18.5303
L18.4129 -18.765
L18.4803 -18.998
L18.5497 -19.2294
L18.6208 -19.4592
L18.6937 -19.6875
L18.7683 -19.9144
L18.8445 -20.1398
L18.9224 -20.3639
L19.0018 -20.5867
L19.0827 -20.8082
L19.1652 -21.0286
L19.249 -21.2478
L19.3344 -21.4659
L19.4211 -21.6831
L19.5092 -21.8992
L19.5986 -22.1144
L19.6894 -22.3287
L19.7815 -22.5422
L19.875 -22.755
L19.9697 -22.967
L20.0658 -23.1784
L20.1632 -23.3891
L20.2618 -23.5993
L20.3618 -23.8089
L20.4631 -24.0181
L20.5656 -24.2269
L20.6695 -24.4353
L20.7747 -24.6434
L20.8812 -24.8512
L21.0983 -25.0588
L21.2088 -25.2662
L21.3208 -25.4735
L21.4341 -25.6807
L21.5489 -25.8879
L21.6651 -26.095
L21.7828 -26.3023
L21.902 -26.5096
L22.0226 -26.7172
L22.1448 -26.9249
L22.2686 -27.1328
L22.394 -27.3411
L22.521 -27.5497
L22.6496 -27.7586
L22.78 -27.968
L22.9121 -28.1778
L23.0459 -28.3882
L23.1816 -28.5991
L23.3191 -28.8106
L23.4585 -29.0228
L23.5998 -29.2356
L23.7431 -29.4491
L23.8884 -29.6634
L24.0358 -29.8785
L24.1853 -30.0944
L24.3369 -30.3112
L24.4908 -30.5289
L24.6469 -30.7476
L24.8053 -30.9672
L24.9661 -31.1878
L25.1294 -31.4095
L25.2951 -31.6322
L25.4633 -31.856
L25.6341 -32.081
L25.8076 -32.3071
L25.9838 -32.5344
L26.1628 -32.7628
L26.3445 -32.9925
L26.5292 -33.2233
L26.7168 -33.4554
L26.9075 -33.6887
L27.1012 -33.9233
L27.298 -34.159
L27.4981 -34.396
L27.7014 -34.6342
L27.908 -34.8736
L28.118 -35.1142
L28.3315 -35.3559
L28.5484 -35.5987
L28.7689 -35.8425
L28.993 -36.0874
L29.2207 -36.3332
L29.4522 -36.5799
L29.6874 -36.8274
L29.9264 -37.0755
L30.1693 -37.3243
L30.416 -37.5735
L30.6667 -37.8231
L30.9213 -38.0729
L31.1798 -38.3227
L31.4424 -38.5724
L31.7089 -38.8217
L31.9794 -39.0705
L32.2539 -39.3184
L32.5325 -39.5653
L32.815 -39.8108
L33.1014 -40.0545
L33.3918 -40.2963
L33.686 -40.5355
L33.9841 -40.772
L34.2859 -41.005
L34.5915 -41.2343
L34.9006 -41.4592
L35.2133 -41.6791
L35.5294 -41.8934
L35.8487 -42.1014
L36.1712 -42.3023
L36.4967 -42.4954
L36.8251 -42.6797
L37.1561 -42.8545
L37.4895 -43.0186
L37.8252 -43.1712
L38.1629 -43.3112
L38.5023 -43.4376
L38.8433 -43.5492
L39.1854 -43.6451
L39.5284 -43.7244
L39.8719 -43.786
L40.2156 -43.8292
L40.5592 -43.8534
L40.9022 -43.8579
L41.2444 -43.8426
L41.5852 -43.8072
L41.9244 -43.7518
L42.2616 -43.6768
L42.5963 -43.5824
L42.9283 -43.4695
L43.2573 -43.3387
L43.5828 -43.1909
L43.9046 -43.027
L44.2225 -42.8481
L44.5361 -42.6551
L44.8453 -42.4492
L45.1499 -42.2313
L45.4496 -42.0024
L45.7444 -41.7636
L46.034 -41.5157
L46.3183 -41.2596
L46.5974 -40.9961
L46.871 -40.7261
L47.139 -40.4501
L47.4016 -40.169
L47.6585 -39.8833
L47.9098 -39.5935
L48.1555 -39.3003
L48.3955 -39.0041
L48.6299 -38.7053
L48.8587 -38.4044
L49.0819 -38.1018
L49.2996 -37.7978
L49.5118 -37.4927
L49.7185 -37.1869
L49.9199 -36.8805
L50.1159 -36.5738
L50.3066 -36.2671
L50.4922 -35.9605
L50.6726 -35.6543
L50.848 -35.3486
L51.0184 -35.0435
L51.1839 -34.7392
L51.3447 -34.4357
L51.5007 -34.1333
L51.6521 -33.832
L51.7989 -33.5318
L51.9413 -33.2328
L52.0792 -32.9352
L52.2129 -32.6389
L52.3424 -32.3439
L52.4678 -32.0504
L52.589 -31.7584
L52.7064 -31.4678
L52.8198 -31.1786
L52.9294 -30.891
L53.0353 -30.6049
L53.1375 -30.3202
L53.2361 -30.037
L53.3312 -29.7553
L53.4229 -29.4751
L53.5111 -29.1963
L53.596 -28.9189
L53.6777 -28.6429
L53.7561 -28.3683
L53.8313 -28.0949
L53.9035 -27.8229
L53.9726 -27.5522
L54.0387 -27.2827
L54.1018 -27.0144
L54.162 -26.7473
L54.2194 -26.4813
L54.2739 -26.2163
L54.3255 -25.9524
L54.3745 -25.6895
L54.4206 -25.4275
L54.4641 -25.1664
L54.5049 -24.9062
L54.5429 -24.6467
L54.5784 -24.3881
L54.6112 -24.1301
L54.6414 -23.8728
L54.669 -23.6162
L54.694 -23.36
L54.7164 -23.1044
L54.7362 -22.8493
L54.7535 -22.5946
L54.7681 -22.3402
L54.7802 -22.0862
L54.7896 -21.8324
L54.7965 -21.5788
L54.8007 -21.3254
L54.8023 -21.0721
L54.8012 -20.8189
L54.7974 -20.5656
L54.7909 -20.3124
L54.7817 -20.059
L54.7697 -19.8055
L54.7549 -19.5518
L54.7372 -19.2978
L54.7167 -19.0436
L54.6932 -18.789
L54.6667 -18.534
L54.6371 -18.2786
L54.6045 -18.0227
L54.5687 -17.7663
L54.5296 -17.5092
L54.4872 -17.2516
L54.4415 -16.9932
L54.3922 -16.7342
L54.3394 -16.4743
L54.2829 -16.2137
L54.2227 -15.9522
L54.1586 -15.6898
L54.0906 -15.4264
L54.0185 -15.1621
L53.9421 -14.8968
L53.8614 -14.6304
L53.7763 -14.3629
L53.6865 -14.0943
L53.3792 -13.8246
L52.9824 -13.4121
L52.5803 -13.1123
L52.1733 -12.8194
L51.7612 -12.5335
L51.3444 -12.2548
L50.923 -11.9834
L50.4969 -11.7192
L50.0665 -11.4625
L49.6317 -11.2132
L49.1929 -10.9715
L48.75 -10.7374
L48.3032 -10.511
L47.8526 -10.2924
L47.3985 -10.0816
L46.9409 -9.87866
L46.4799 -9.68371
L46.0158 -9.49677
L45.5486 -9.31791
L45.0785 -9.14717
L44.6056 -8.98462
L44.1301 -8.83029
L43.6522 -8.68424
L43.1719 -8.54651
L42.6894 -8.41714
L42.2049 -8.29618
L41.7185 -8.18365
L41.2303 -8.0796
L40.7406 -7.98405
L40.2494 -7.89703
L39.7569 -7.81858
L39.2633 -7.74871
L38.7687 -7.68744
L38.2732 -7.6348
L37.7771 -7.5908
L37.2804 -7.55546
L36.7833 -7.52877
L36.2859 -7.51077
L35.7885 -7.50143
L35.2912 -7.50078
L34.7941 -7.50882
L34.2973 -7.52553
L33.801 -7.55091
L33.3055 -7.58496
L32.8107 -7.62766
L32.3169 -7.67901
L31.8243 -7.73898
L31.3329 -7.80757
L30.8429 -7.88474
L30.3545 -7.97047
L29.8678 -8.06474
L29.383 -8.16753
L28.9002 -8.27879
L28.4196 -8.39849
L27.9413 -8.5266
L27.4654 -8.66308
L26.9921 -8.80789
L26.5216 -8.96098
L26.054 -9.12231
L25.5894 -9.29182
L25.1279 -9.46947
L24.6698 -9.6552
L24.2151 -9.84896
L23.7641 -10.0507
L23.3167 -10.2603
L22.8732 -10.4778
L22.4337 -10.703
L21.9984 -10.936
L21.5673 -11.1765
L21.1406 -11.4247
L20.7184 -11.6803
L20.3009 -11.9434
L19.8881 -12.2137
L19.4803 -12.4913
L19.0775 -12.7761
L18.6799 -13.0679
L18.2875 -13.3668
z
" id="C0_1_f5628f6706"/>
     <path d="
M18.4311 -58.417
L18.7186 -58.4443
L19.0081 -58.4682
L19.2994 -58.4888
L19.5927 -58.5059
L19.888 -58.5197
L20.1853 -58.53
L20.4848 -58.5369
L20.7864 -58.5403
L21.0903 -58.5402
L21.3964 -58.5365
L21.7048 -58.5292
L22.0156 -58.5183
L22.3288 -58.5038
L22.6444 -58.4855
L22.9625 -58.4635
L23.2832 -58.4378
L23.6063 -58.4082
L23.9321 -58.3748
L24.2605 -58.3375
L24.5915 -58.2963
L24.9251 -58.2511
L25.2614 -58.202
L25.6004 -58.1488
L25.9421 -58.0916
L26.2864 -58.0304
L26.6334 -57.9651
L26.9831 -57.8957
L27.3355 -57.8222
L27.6904 -57.7447
L28.0479 -57.6631
L28.408 -57.5776
L28.7706 -57.4881
L29.1356 -57.3946
L29.503 -57.2974
L29.8727 -57.1964
L30.2447 -57.0918
L30.6188 -56.9838
L30.9949 -56.8725
L31.373 -56.758
L31.7529 -56.6407
L32.1345 -56.5207
L32.5177 -56.3985
L32.9023 -56.2742
L33.2882 -56.1484
L33.6752 -56.0215
L34.0632 -55.8939
L34.4519 -55.7661
L34.8413 -55.6389
L35.2311 -55.5129
L35.6211 -55.3887
L36.0112 -55.2671
L36.4012 -55.1491
L36.791 -55.0355
L37.1802 -54.9272
L37.5688 -54.8252
L37.9567 -54.7304
L38.3435 -54.6438
L38.7293 -54.5664
L39.1139 -54.4989
L39.4972 -54.4422
L39.879 -54.397
L40.2593 -54.3637
L40.6381 -54.3427
L41.0152 -54.334
L41.3906 -54.3378
L41.7643 -54.3538
L42.1361 -54.3816
L42.5062 -54.4207
L42.8743 -54.4703
L43.2405 -54.5298
L43.6047 -54.5983
L43.9669 -54.6749
L44.3269 -54.7588
L44.6848 -54.8489
L45.0405 -54.9446
L45.3938 -55.0448
L45.7447 -55.1489
L46.0931 -55.256
L46.439 -55.3654
L46.7823 -55.4766
L47.1229 -55.5889
L47.4607 -55.7018
L47.7957 -55.8148
L48.1278 -55.9274
L48.457 -56.0393
L48.7832 -56.1501
L49.1063 -56.2595
L49.4264 -56.3672
L49.7434 -56.4731
L50.0573 -56.5767
L50.368 -56.6781
L50.6756 -56.777
L50.98 -56.8732
L51.2813 -56.9668
L51.5794 -57.0574
L51.8744 -57.1452
L52.1662 -57.23
L52.4549 -57.3117
L52.7406 -57.3903
L53.0232 -57.4658
L53.3027 -57.5381
L53.5793 -57.6073
L53.8529 -57.6732
L53.8666 -57.736
L53.4764 -58.2044
L53.0808 -58.5128
L52.68 -58.8144
L52.2742 -59.109
L51.8634 -59.3966
L51.4478 -59.6771
L51.0274 -59.9503
L50.6025 -60.2163
L50.1731 -60.4748
L49.7394 -60.726
L49.3016 -60.9695
L48.8596 -61.2055
L48.4138 -61.4338
L47.9642 -61.6544
L47.5109 -61.8671
L47.0541 -62.072
L46.594 -62.2689
L46.1306 -62.4578
L45.6642 -62.6387
L45.1948 -62.8114
L44.7226 -62.976
L44.2477 -63.1324
L43.7704 -63.2805
L43.2906 -63.4203
L42.8087 -63.5517
L42.3247 -63.6748
L41.8387 -63.7894
L41.351 -63.8955
L40.8616 -63.9932
L40.3708 -64.0823
L39.8786 -64.1629
L39.3852 -64.2348
L38.8908 -64.2982
L38.3956 -64.353
L37.8996 -64.3991
L37.403 -64.4366
L36.906 -64.4654
L36.4087 -64.4856
L35.9113 -64.4971
L35.4139 -64.4999
L34.9167 -64.494
L34.4199 -64.4794
L33.9235 -64.4562
L33.4277 -64.4243
L32.9327 -64.3837
L32.4387 -64.3345
L31.9458 -64.2766
L31.454 -64.2102
L30.9637 -64.1351
L30.4749 -64.0515
L29.9878 -63.9593
L29.5025 -63.8586
L29.0192 -63.7495
L28.538 -63.6318
L28.0591 -63.5058
L27.5826 -63.3714
L27.1087 -63.2286
L26.6375 -63.0776
L26.1691 -62.9183
L25.7038 -62.7508
L25.2415 -62.5751
L24.7826 -62.3914
L24.327 -62.1996
L23.8751 -61.9998
L23.4268 -61.7922
L22.9823 -61.5766
L22.5418 -61.3533
L22.1054 -61.1222
L21.6733 -60.8835
L21.2455 -60.6373
L20.8222 -60.3835
L20.4035 -60.1223
L19.9896 -59.8537
L19.5805 -59.5779
L19.1764 -59.2948
z
" id="C0_2_9e27a2470b"/>
    </defs>
    <g clip-path="url(#p1bffca34e9)">
     <use style="fill:#ffffff;stroke:#000000;stroke-width:2.0;" x="0.0" xlink:href="#C0_0_a811fe30f3" y="72.0"/>
    </g>
    <g clip-path="url(#p1bffca34e9)">
     <use style="fill:#ff0000;stroke:#000000;stroke-width:2.0;" x="0.0" xlink:href="#C0_1_f5628f6706" y="72.0"/>
    </g>
    <g clip-path="url(#p1bffca34e9)">
     <use style="fill:#ff0000;stroke:#000000;stroke-width:2.0;" x="0.0" xlink:href="#C0_2_9e27a2470b" y="72.0"/>
    </g>
   </g>
  </g>
 </g>
 <defs>
  <clipPath id="p1bffca34e9">
   <rect height="72.0" width="72.0" x="0.0" y="0.0"/>
  </clipPath>
 </defs>
</svg>
