<?xml version="1.0" encoding="utf-8" standalone="no"?>
<!DOCTYPE svg PUBLIC "-//W3C//DTD SVG 1.1//EN"
  "http://www.w3.org/Graphics/SVG/1.1/DTD/svg11.dtd">
<!-- Created with matplotlib (http://matplotlib.org/) -->
<svg height="72pt" version="1.1" viewBox="0 0 72 72" width="72pt" xmlns="http://www.w3.org/2000/svg" xmlns:xlink="http://www.w3.org/1999/xlink">
 <defs>
  <style type="text/css">
*{stroke-linecap:butt;stroke-linejoin:round;}
  </style>
 </defs>
 <g id="figure_1">
  <g id="patch_1">
   <path d="
M0 72
L72 72
L72 0
L0 0
z
" style="fill:none;"/>
  </g>
  <g id="axes_1">
   <g id="PatchCollection_1">
    <defs>
     <path d="
M36 -7.5
C43.5583 -7.5 50.808 -10.5029 56.1525 -15.8475
C61.4971 -21.192 64.5 -28.4417 64.5 -36
C64.5 -43.5583 61.4971 -50.808 56.1525 -56.1525
C50.808 -61.4971 43.5583 -64.5 36 -64.5
C28.4417 -64.5 21.192 -61.4971 15.8475 -56.1525
C10.5029 -50.808 7.5 -43.5583 7.5 -36
C7.5 -28.4417 10.5029 -21.192 15.8475 -15.8475
C21.192 -10.5029 28.4417 -7.5 36 -7.5
z
" id="C0_0_a811fe30f3"/>
     <path d="
M39.7664 -64.1626
L39.672 -63.9486
L39.5715 -63.7342
L39.4655 -63.5193
L39.3543 -63.3039
L39.2383 -63.088
L39.1178 -62.8717
L38.9932 -62.6549
L38.8648 -62.4377
L38.7329 -62.22
L38.5979 -62.0019
L38.4599 -61.7834
L38.3193 -61.5645
L38.1762 -61.3452
L38.0311 -61.1255
L37.8839 -60.9055
L37.7351 -60.6851
L37.5847 -60.4643
L37.4329 -60.2433
L37.2799 -60.022
L37.1259 -59.8004
L36.971 -59.5785
L36.8154 -59.3563
L36.6592 -59.134
L36.5024 -58.9114
L36.3453 -58.6885
L36.1878 -58.4655
L36.0302 -58.2423
L35.8725 -58.019
L35.7147 -57.7954
L35.557 -57.5717
L35.3993 -57.3479
L35.2419 -57.1239
L35.0846 -56.8998
L34.9277 -56.6756
L34.771 -56.4513
L34.6148 -56.2268
L34.4589 -56.0022
L34.3034 -55.7776
L34.1484 -55.5527
L33.9939 -55.3278
L33.8398 -55.1028
L33.6863 -54.8776
L33.5334 -54.6523
L33.3809 -54.4269
L33.2291 -54.2014
L33.0778 -53.9757
L32.9271 -53.7498
L32.777 -53.5238
L32.6275 -53.2976
L32.4785 -53.0712
L32.3301 -52.8447
L32.1824 -52.6179
L32.0352 -52.3909
L31.8886 -52.1636
L31.7425 -51.9361
L31.597 -51.7083
L31.4521 -51.4803
L31.3078 -51.2519
L31.1639 -51.0232
L31.0207 -50.7942
L30.8779 -50.5648
L30.7356 -50.335
L30.5939 -50.1048
L30.4526 -49.8741
L30.3118 -49.6431
L30.1715 -49.4115
L30.0316 -49.1795
L29.8921 -48.947
L29.7531 -48.7139
L29.4763 -48.4802
L29.3384 -48.246
L29.201 -48.0111
L29.0638 -47.7757
L28.927 -47.5395
L28.7906 -47.3027
L28.6544 -47.0652
L28.5185 -46.8269
L28.3829 -46.5879
L28.2475 -46.3481
L28.1124 -46.1075
L27.9776 -45.8661
L27.8429 -45.6238
L27.7084 -45.3806
L27.5742 -45.1366
L27.4401 -44.8916
L27.3061 -44.6457
L27.1723 -44.3988
L27.0386 -44.1509
L26.905 -43.9021
L26.7715 -43.6522
L26.6381 -43.4012
L26.5047 -43.1492
L26.3714 -42.8961
L26.2381 -42.642
L26.1049 -42.3867
L25.9716 -42.1303
L25.8384 -41.8727
L25.7051 -41.6141
L25.5717 -41.3542
L25.4383 -41.0932
L25.3049 -40.8311
L25.1713 -40.5678
L25.0376 -40.3033
L24.9038 -40.0377
L24.7699 -39.7709
L24.6358 -39.503
L24.5016 -39.2339
L24.3671 -38.9638
L24.2324 -38.6925
L24.0975 -38.4202
L23.9623 -38.1468
L23.8269 -37.8723
L23.6912 -37.5969
L23.5551 -37.3206
L23.4187 -37.0433
L23.2819 -36.7652
L23.1447 -36.4863
L23.0071 -36.2066
L22.869 -35.9262
L22.7304 -35.6453
L22.5913 -35.3638
L22.4516 -35.0819
L22.3113 -34.7996
L22.1704 -34.5171
L22.0287 -34.2344
L21.8863 -33.9517
L21.7432 -33.6691
L21.5991 -33.3867
L21.4542 -33.1047
L21.3082 -32.8232
L21.1613 -32.5424
L21.0132 -32.2624
L20.8639 -31.9834
L20.7134 -31.7055
L20.5616 -31.4291
L20.4083 -31.1543
L20.2535 -30.8812
L20.0971 -30.6102
L19.939 -30.3414
L19.7791 -30.0752
L19.6173 -29.8116
L19.4535 -29.551
L19.2876 -29.2937
L19.1195 -29.0399
L18.9491 -28.7899
L18.7763 -28.5439
L18.6009 -28.3023
L18.4228 -28.0654
L18.2421 -27.8333
L18.0585 -27.6064
L17.872 -27.3851
L17.6825 -27.1695
L17.4899 -26.9599
L17.2942 -26.7567
L17.0952 -26.5602
L16.893 -26.3704
L16.6875 -26.1878
L16.4787 -26.0126
L16.2666 -25.845
L16.0511 -25.6852
L15.8324 -25.5335
L15.6104 -25.39
L15.3852 -25.2549
L15.1568 -25.1284
L14.9254 -25.0106
L14.691 -24.9016
L14.4538 -24.8017
L14.2138 -24.7108
L13.9712 -24.629
L13.7262 -24.5566
L13.4788 -24.4933
L13.2294 -24.4394
L12.9779 -24.3949
L12.7247 -24.3597
L12.4699 -24.3339
L12.2137 -24.3174
L11.9563 -24.3103
L11.6979 -24.3124
L11.4386 -24.3238
L11.1788 -24.3444
L10.9186 -24.3742
L10.6582 -24.413
L10.3977 -24.4609
L10.1375 -24.5177
L9.87765 -24.5834
L9.66373 -24.6579
L9.47764 -25.1073
L9.29962 -25.5686
L9.12974 -26.0331
L8.96805 -26.5006
L8.81459 -26.971
L8.66941 -27.4441
L8.53255 -27.9199
L8.40406 -28.3981
L8.28398 -28.8786
L8.17234 -29.3613
L8.06918 -29.846
L7.97452 -30.3326
L7.8884 -30.8209
L7.81085 -31.3108
L7.74188 -31.8022
L7.68152 -32.2948
L7.62978 -32.7885
L7.58669 -33.2832
L7.55225 -33.7788
L7.52648 -34.275
L7.50938 -34.7717
L7.50096 -35.2689
L7.50122 -35.7662
L7.51016 -36.2636
L7.52778 -36.7609
L7.55407 -37.258
L7.58903 -37.7548
L7.63264 -38.2509
L7.68489 -38.7464
L7.74577 -39.2411
L7.81526 -39.7348
L7.89332 -40.2273
L7.97996 -40.7186
L8.07512 -41.2084
L8.17879 -41.6966
L8.29094 -42.1831
L8.41153 -42.6677
L8.54052 -43.1503
L8.67788 -43.6307
L8.82355 -44.1087
L8.97751 -44.5843
L9.1397 -45.0573
L9.31007 -45.5275
L9.48857 -45.9949
L9.67514 -46.4592
L9.86974 -46.9203
L10.0723 -47.378
L10.2827 -47.8323
L10.501 -48.283
L10.7271 -48.73
L10.9608 -49.1731
L11.2022 -49.6121
L11.4511 -50.047
L11.7075 -50.4777
L11.9714 -50.9039
L12.2425 -51.3256
L12.5209 -51.7426
L12.8064 -52.1549
L13.099 -52.5622
L13.3985 -52.9644
L13.705 -53.3615
L14.0182 -53.7533
L14.3381 -54.1397
L14.6646 -54.5206
L14.9977 -54.8958
L15.3371 -55.2653
L15.6828 -55.6289
L16.0347 -55.9865
L16.3927 -56.3381
L16.7567 -56.6834
L17.1265 -57.0225
L17.5021 -57.3551
L17.8833 -57.6812
L18.27 -58.0008
L18.6621 -58.3136
L19.0595 -58.6196
L19.4621 -58.9188
L19.8697 -59.2109
L20.2822 -59.496
L20.6995 -59.774
L21.1215 -60.0447
L21.548 -60.308
L21.9789 -60.564
L22.4141 -60.8125
L22.8534 -61.0534
L23.2967 -61.2867
L23.7439 -61.5123
L24.1948 -61.7301
L24.6493 -61.9401
L25.1073 -62.1422
L25.5686 -62.3363
L26.0331 -62.5224
L26.5006 -62.7004
L26.971 -62.8703
L27.4441 -63.032
L27.9199 -63.1854
L28.3981 -63.3306
L28.8786 -63.4674
L29.3613 -63.5959
L29.846 -63.716
L30.3326 -63.8277
L30.8209 -63.9308
L31.3108 -64.0255
L31.8022 -64.1116
L32.2948 -64.1892
L32.7885 -64.2581
L33.2832 -64.3185
L33.7788 -64.3702
L34.275 -64.4133
L34.7717 -64.4477
L35.2689 -64.4735
L35.7662 -64.4906
L36.2636 -64.499
L36.7609 -64.4988
L37.258 -64.4898
L37.7548 -64.4722
L38.2509 -64.4459
L38.7464 -64.411
L39.2411 -64.3674
z
" id="C0_1_264406d999"/>
     <path d="
M62.0427 -47.1142
L61.9234 -46.8665
L61.8038 -46.6165
L61.6839 -46.3644
L61.5636 -46.1104
L61.4428 -45.8549
L61.3214 -45.598
L61.1994 -45.3399
L61.0767 -45.0808
L60.9533 -44.821
L60.8291 -44.5605
L60.7041 -44.2996
L60.5782 -44.0384
L60.4515 -43.777
L60.3238 -43.5156
L60.1952 -43.2543
L60.0657 -42.9931
L59.9352 -42.7323
L59.8038 -42.4718
L59.6714 -42.2119
L59.538 -41.9524
L59.4036 -41.6936
L59.2682 -41.4355
L59.1318 -41.1782
L58.9945 -40.9216
L58.8561 -40.6659
L58.7168 -40.4111
L58.5765 -40.1572
L58.4352 -39.9043
L58.2929 -39.6523
L58.1497 -39.4014
L58.0055 -39.1515
L57.8603 -38.9026
L57.7142 -38.6547
L57.5671 -38.408
L57.4191 -38.1623
L57.2701 -37.9176
L57.1202 -37.6741
L56.9693 -37.4316
L56.8175 -37.1902
L56.6648 -36.9498
L56.511 -36.7105
L56.3564 -36.4722
L56.2008 -36.235
L56.0442 -35.9988
L55.8867 -35.7636
L55.7283 -35.5293
L55.5688 -35.2961
L55.4084 -35.0638
L55.2471 -34.8325
L55.0847 -34.602
L54.9214 -34.3725
L54.7571 -34.1439
L54.5917 -33.9161
L54.4254 -33.6891
L54.258 -33.463
L54.0897 -33.2376
L53.9202 -33.0131
L53.7497 -32.7892
L53.5782 -32.5661
L53.4055 -32.3437
L53.2318 -32.122
L53.0569 -31.9009
L52.8809 -31.6805
L52.7038 -31.4607
L52.5255 -31.2414
L52.3461 -31.0227
L52.1654 -30.8045
L51.9836 -30.5869
L51.8005 -30.3697
L51.6162 -30.153
L51.4306 -29.9367
L51.2437 -29.7209
L51.0556 -29.5054
L50.8661 -29.2903
L50.6753 -29.0756
L50.4831 -28.8612
L50.2896 -28.6471
L50.0947 -28.4333
L49.8983 -28.2198
L49.7006 -28.0065
L49.5014 -27.7934
L49.3007 -27.5806
L49.0985 -27.368
L48.8949 -27.1555
L48.6897 -26.9432
L48.4831 -26.731
L48.2748 -26.519
L48.0651 -26.3071
L47.8537 -26.0952
L47.6408 -25.8835
L47.4263 -25.6718
L47.2102 -25.4602
L46.9925 -25.2486
L46.7731 -25.0371
L46.5522 -24.8256
L46.3297 -24.6141
L46.1055 -24.4026
L45.8798 -24.1912
L45.6524 -23.9797
L45.4234 -23.7682
L45.1929 -23.5566
L44.9608 -23.3451
L44.7271 -23.1335
L44.4919 -22.9218
L44.2552 -22.7102
L44.0171 -22.4984
L43.7775 -22.2867
L43.5365 -22.0749
L43.2942 -21.863
L43.0506 -21.6511
L42.8057 -21.4391
L42.5596 -21.227
L42.3124 -21.0149
L42.0642 -20.8027
L41.815 -20.5905
L41.565 -20.3782
L41.3142 -20.1658
L41.0627 -19.9533
L40.8107 -19.7407
L40.5582 -19.5281
L40.3054 -19.3153
L40.0525 -19.1025
L39.7995 -18.8895
L39.5467 -18.6764
L39.2942 -18.4632
L39.0421 -18.2498
L38.7908 -18.0362
L38.5403 -17.8224
L38.2909 -17.6084
L38.0428 -17.3942
L37.7963 -17.1797
L37.5515 -16.9649
L37.3087 -16.7498
L37.0682 -16.5343
L36.8302 -16.3184
L36.595 -16.1021
L36.3629 -15.8854
L36.1341 -15.6681
L35.909 -15.4502
L35.6879 -15.2318
L35.471 -15.0127
L35.2586 -14.7929
L35.0511 -14.5725
L34.8488 -14.3513
L34.6519 -14.1293
L34.4607 -13.9064
L34.2755 -13.6828
L34.0966 -13.4582
L33.9243 -13.2328
L33.7589 -13.0065
L33.6005 -12.7794
L33.4494 -12.5513
L33.3059 -12.3224
L33.1701 -12.0926
L33.0422 -11.862
L32.9224 -11.6307
L32.8109 -11.3986
L32.7078 -11.1659
L32.6132 -10.9326
L32.5272 -10.6988
L32.45 -10.4646
L32.3814 -10.2302
L32.3217 -9.99549
L32.2709 -9.76073
L32.2289 -9.52601
L32.1958 -9.29146
L32.1716 -9.0572
L32.1562 -8.82339
L32.1497 -8.59015
L32.1519 -8.35763
L32.1628 -8.12597
L32.6574 -7.89532
L33.1519 -7.69669
L33.6472 -7.64267
L34.1433 -7.59728
L34.6399 -7.56055
L35.1369 -7.53247
L35.6342 -7.51307
L36.1316 -7.50235
L36.629 -7.5003
L37.1262 -7.50694
L37.623 -7.52226
L38.1194 -7.54625
L38.615 -7.57891
L39.1099 -7.62023
L39.6039 -7.67019
L40.0967 -7.72878
L40.5883 -7.79598
L41.0786 -7.87177
L41.5672 -7.95614
L42.0542 -8.04904
L42.5393 -8.15046
L43.0224 -8.26036
L43.5034 -8.37871
L43.9821 -8.50548
L44.4584 -8.64062
L44.9321 -8.78409
L45.4031 -8.93586
L45.8712 -9.09586
L46.3363 -9.26407
L46.7982 -9.44042
L47.2569 -9.62485
L47.7121 -9.81733
L48.1638 -10.0178
L48.6118 -10.2261
L49.0559 -10.4423
L49.496 -10.6663
L49.9321 -10.8981
L50.3638 -11.1374
L50.7913 -11.3844
L51.2142 -11.6388
L51.6324 -11.9006
L52.046 -12.1698
L52.4546 -12.4463
L52.8582 -12.7299
L53.2567 -13.0206
L53.6499 -13.3184
L54.0377 -13.623
L54.4201 -13.9344
L54.7968 -14.2526
L55.1678 -14.5774
L55.533 -14.9087
L55.8922 -15.2464
L56.2454 -15.5905
L56.5924 -15.9408
L56.9331 -16.2971
L57.2675 -16.6595
L57.5954 -17.0278
L57.9166 -17.4019
L58.2313 -17.7816
L58.5391 -18.1669
L58.8401 -18.5576
L59.1341 -18.9536
L59.4211 -19.3548
L59.7009 -19.7611
L59.9736 -20.1723
L60.2389 -20.5884
L60.4968 -21.0091
L60.7473 -21.4344
L60.9902 -21.8642
L61.2255 -22.2982
L61.4532 -22.7364
L61.6731 -23.1787
L61.8851 -23.6249
L62.0893 -24.0748
L62.2855 -24.5284
L62.4738 -24.9855
L62.6539 -25.4459
L62.826 -25.9095
L62.9898 -26.3762
L63.1455 -26.8459
L63.2929 -27.3183
L63.4319 -27.7934
L63.5627 -28.271
L63.685 -28.7509
L63.7989 -29.233
L63.9043 -29.7172
L64.0012 -30.2033
L64.0896 -30.6912
L64.1694 -31.1807
L64.2407 -31.6717
L64.3033 -32.164
L64.3573 -32.6574
L64.4027 -33.1519
L64.4395 -33.6472
L64.4675 -34.1433
L64.4869 -34.6399
L64.4977 -35.1369
L64.4997 -35.6342
L64.4931 -36.1316
L64.4777 -36.629
L64.4537 -37.1262
L64.4211 -37.623
L64.3798 -38.1194
L64.3298 -38.615
L64.2712 -39.1099
L64.204 -39.6039
L64.1282 -40.0967
L64.0439 -40.5883
L63.951 -41.0786
L63.8495 -41.5672
L63.7396 -42.0542
L63.6213 -42.5393
L63.4945 -43.0224
L63.3594 -43.5034
L63.2159 -43.9821
L63.0641 -44.4584
L62.9041 -44.9321
L62.7359 -45.4031
L62.5596 -45.8712
z
" id="C0_2_411e920cb6"/>
    </defs>
    <g clip-path="url(#p1bffca34e9)">
     <use style="fill:#ffffff;stroke:#000000;stroke-width:2.0;" x="0.0" xlink:href="#C0_0_a811fe30f3" y="72.0"/>
    </g>
    <g clip-path="url(#p1bffca34e9)">
     <use style="fill:#ff0000;stroke:#000000;stroke-width:2.0;" x="0.0" xlink:href="#C0_1_264406d999" y="72.0"/>
    </g>
    <g clip-path="url(#p1bffca34e9)">
     <use style="fill:#ff0000;stroke:#000000;stroke-width:2.0;" x="0.0" xlink:href="#C0_2_411e920cb6" y="72.0"/>
    </g>
   </g>
  </g>
 </g>
 <defs>
  <clipPath id="p1bffca34e9">
   <rect height="72.0" width="72.0" x="0.0" y="0.0"/>
  </clipPath>
 </defs>
</svg>
