<?xml version="1.0" encoding="utf-8" standalone="no"?>
<!DOCTYPE svg PUBLIC "-//W3C//DTD SVG 1.1//EN"
  "http://www.w3.org/Graphics/SVG/1.1/DTD/svg11.dtd">
<!-- Created with matplotlib (http://matplotlib.org/) -->
<svg height="72pt" version="1.1" viewBox="0 0 72 72" width="72pt" xmlns="http://www.w3.org/2000/svg" xmlns:xlink="http://www.w3.org/1999/xlink">
 <defs>
  <style type="text/css">
*{stroke-linecap:butt;stroke-linejoin:round;}
  </style>
 </defs>
 <g id="figure_1">
  <g id="patch_1">
   <path d="
M0 72
L72 72
L72 0
L0 0
z
" style="fill:none;"/>
  </g>
  <g id="axes_1">
   <g id="PatchCollection_1">
    <defs>
     <path d="
M36 -7.5
C43.5583 -7.5 50.808 -10.5029 56.1525 -15.8475
C61.4971 -21.192 64.5 -28.4417 64.5 -36
C64.5 -43.5583 61.4971 -50.808 56.1525 -56.1525
C50.808 -61.4971 43.5583 -64.5 36 -64.5
C28.4417 -64.5 21.192 -61.4971 15.8475 -56.1525
C10.5029 -50.808 7.5 -43.5583 7.5 -36
C7.5 -28.4417 10.5029 -21.192 15.8475 -15.8475
C21.192 -10.5029 28.4417 -7.5 36 -7.5
z
" id="C0_0_a811fe30f3"/>
     <path d="
M28.146 -63.1993
L28.371 -62.9837
L28.5987 -62.7668
L28.8284 -62.5484
L29.0595 -62.3287
L29.2912 -62.1077
L29.5232 -61.8853
L29.7549 -61.6618
L29.986 -61.4371
L30.2162 -61.2113
L30.445 -60.9845
L30.6724 -60.7569
L30.898 -60.5284
L31.1218 -60.2993
L31.3435 -60.0696
L31.563 -59.8393
L31.7803 -59.6086
L31.9951 -59.3776
L32.2076 -59.1464
L32.4176 -58.915
L32.625 -58.6835
L32.8299 -58.4519
L33.0322 -58.2204
L33.232 -57.989
L33.4292 -57.7578
L33.6238 -57.5268
L33.8158 -57.296
L34.0054 -57.0655
L34.1924 -56.8354
L34.377 -56.6056
L34.5591 -56.3762
L34.7388 -56.1472
L34.9161 -55.9187
L35.0911 -55.6906
L35.2638 -55.463
L35.4342 -55.2358
L35.6025 -55.0091
L35.7686 -54.7829
L35.9325 -54.5572
L36.0945 -54.332
L36.2544 -54.1072
L36.4123 -53.8828
L36.5683 -53.659
L36.7225 -53.4355
L36.8748 -53.2125
L37.0254 -52.9898
L37.1742 -52.7675
L37.3213 -52.5456
L37.4668 -52.324
L37.6107 -52.1027
L37.7531 -51.8817
L37.894 -51.6609
L38.0334 -51.4403
L38.1714 -51.2199
L38.3081 -50.9997
L38.4434 -50.7796
L38.5775 -50.5595
L38.7103 -50.3395
L38.8419 -50.1195
L38.9723 -49.8995
L39.1016 -49.6794
L39.2298 -49.4591
L39.357 -49.2388
L39.4832 -49.0182
L39.6083 -48.7974
L39.7326 -48.5763
L39.8559 -48.3549
L39.9784 -48.1331
L40.1 -47.9109
L40.2208 -47.6882
L40.3408 -47.465
L40.5787 -47.2412
L40.6966 -47.0169
L40.8138 -46.7918
L40.9304 -46.5661
L41.0464 -46.3396
L41.1618 -46.1123
L41.2766 -45.8841
L41.391 -45.655
L41.5048 -45.4249
L41.6181 -45.1938
L41.731 -44.9616
L41.8435 -44.7282
L41.9555 -44.4937
L42.0672 -44.2579
L42.1784 -44.0208
L42.2894 -43.7824
L42.3999 -43.5425
L42.5102 -43.3011
L42.6202 -43.0582
L42.7299 -42.8136
L42.8393 -42.5674
L42.9485 -42.3195
L43.0574 -42.0698
L43.1661 -41.8182
L43.2746 -41.5647
L43.3829 -41.3092
L43.491 -41.0517
L43.599 -40.7921
L43.7067 -40.5304
L43.8143 -40.2664
L43.9217 -40.0001
L44.029 -39.7314
L44.1361 -39.4604
L44.2431 -39.1869
L44.3499 -38.9108
L44.4566 -38.6321
L44.5632 -38.3508
L44.6696 -38.0668
L44.7758 -37.7801
L44.8819 -37.4905
L44.9879 -37.198
L45.0937 -36.9027
L45.1993 -36.6044
L45.3047 -36.3031
L45.41 -35.9987
L45.5151 -35.6913
L45.6199 -35.3808
L45.7246 -35.0671
L45.829 -34.7503
L45.9332 -34.4304
L46.0371 -34.1073
L46.1408 -33.781
L46.2442 -33.4516
L46.3473 -33.119
L46.4501 -32.7834
L46.5526 -32.4447
L46.6548 -32.1029
L46.7567 -31.7583
L46.8583 -31.4107
L46.9597 -31.0604
L47.0607 -30.7075
L47.1615 -30.352
L47.262 -29.9942
L47.3624 -29.6341
L47.4627 -29.2721
L47.5629 -28.9083
L47.6632 -28.5431
L47.7637 -28.1766
L47.8645 -27.8092
L47.9657 -27.4413
L48.0676 -27.0733
L48.1705 -26.7056
L48.2746 -26.3388
L48.3802 -25.9735
L48.4878 -25.6101
L48.5979 -25.2496
L48.7109 -24.8926
L48.8275 -24.5399
L48.9484 -24.1927
L49.0744 -23.8518
L49.2063 -23.5184
L49.3452 -23.1939
L49.4921 -22.8794
L49.6482 -22.5766
L49.8145 -22.2867
L49.9922 -22.0115
L50.1825 -21.7525
L50.3865 -21.5113
L50.6049 -21.2893
L50.8384 -21.088
L51.0876 -20.9085
L51.3524 -20.7517
L51.6327 -20.6183
L51.9281 -20.5087
L52.2377 -20.423
L52.5606 -20.3609
L52.8955 -20.322
L53.2413 -20.3057
L53.5964 -20.3112
L53.9595 -20.3376
L54.3293 -20.3839
L54.7043 -20.4491
L55.0834 -20.5322
L55.4653 -20.6324
L55.8489 -20.7485
L56.2332 -20.8798
L56.6172 -21.0254
L57.0001 -21.1846
L57.3812 -21.3565
L57.7597 -21.5405
L58.135 -21.7359
L58.5066 -21.9422
L58.874 -22.1587
L59.2366 -22.3848
L59.5942 -22.6202
L59.9463 -22.8643
L60.2927 -23.1166
L60.6332 -23.3768
L60.9673 -23.6444
L61.2951 -23.919
L61.6162 -24.2003
L61.9306 -24.4879
L62.238 -24.7815
L62.4995 -25.0807
L62.6785 -25.5107
L62.8494 -25.9747
L63.0122 -26.4419
L63.1667 -26.9119
L63.3129 -27.3847
L63.4508 -27.8602
L63.5803 -28.3381
L63.7014 -28.8183
L63.8141 -29.3008
L63.9184 -29.7852
L64.0141 -30.2716
L64.1013 -30.7597
L64.1799 -31.2494
L64.25 -31.7406
L64.3114 -32.233
L64.3642 -32.7267
L64.4084 -33.2213
L64.4439 -33.7167
L64.4708 -34.2128
L64.489 -34.7095
L64.4985 -35.2066
L64.4993 -35.7039
L64.4914 -36.2013
L64.4749 -36.6987
L64.4497 -37.1958
L64.4158 -37.6926
L64.3733 -38.1889
L64.3221 -38.6845
L64.2623 -39.1792
L64.1939 -39.673
L64.1169 -40.1657
L64.0314 -40.6571
L63.9373 -41.1471
L63.8346 -41.6356
L63.7236 -42.1223
L63.604 -42.6071
L63.4761 -43.09
L63.3398 -43.5706
L63.1951 -44.049
L63.0422 -44.5249
L62.8811 -44.9983
L62.7117 -45.4688
L62.5342 -45.9365
L62.3487 -46.4012
L62.1551 -46.8627
L61.9535 -47.3209
L61.744 -47.7756
L61.5267 -48.2268
L61.3016 -48.6742
L61.0689 -49.1178
L60.8284 -49.5574
L60.5804 -49.9928
L60.325 -50.424
L60.0621 -50.8508
L59.7919 -51.2731
L59.5144 -51.6907
L59.2298 -52.1035
L58.9381 -52.5114
L58.6394 -52.9144
L58.3338 -53.3121
L58.0214 -53.7046
L57.7023 -54.0917
L57.3766 -54.4732
L57.0444 -54.8492
L56.7057 -55.2194
L56.3608 -55.5837
L56.0097 -55.9421
L55.6524 -56.2944
L55.2892 -56.6405
L54.9201 -56.9804
L54.5453 -57.3138
L54.1648 -57.6408
L53.7787 -57.9611
L53.3873 -58.2748
L52.9905 -58.5817
L52.5886 -58.8817
L52.1816 -59.1748
L51.7697 -59.4607
L51.353 -59.7396
L50.9316 -60.0112
L50.5056 -60.2755
L50.0753 -60.5324
L49.6406 -60.7818
L49.2018 -61.0237
L48.759 -61.2579
L48.3123 -61.4845
L47.8618 -61.7033
L47.4078 -61.9142
L46.9502 -62.1173
L46.4893 -62.3124
L46.0253 -62.4995
L45.5581 -62.6785
L45.0881 -62.8494
L44.6153 -63.0122
L44.1398 -63.1667
L43.6619 -63.3129
L43.1817 -63.4508
L42.6992 -63.5803
L42.2148 -63.7014
L41.7284 -63.8141
L41.2403 -63.9184
L40.7506 -64.0141
L40.2594 -64.1013
L39.767 -64.1799
L39.2733 -64.25
L38.7787 -64.3114
L38.2833 -64.3642
L37.7872 -64.4084
L37.2905 -64.4439
L36.7934 -64.4708
L36.2961 -64.489
L35.7987 -64.4985
L35.3013 -64.4993
L34.8042 -64.4914
L34.3074 -64.4749
L33.8111 -64.4497
L33.3155 -64.4158
L32.8208 -64.3733
L32.327 -64.3221
L31.8343 -64.2623
L31.3429 -64.1939
L30.8529 -64.1169
L30.3644 -64.0314
L29.8777 -63.9373
L29.3929 -63.8346
L28.91 -63.7236
z
" id="C0_1_8c6045eb7b"/>
     <path d="
M9.61504 -46.5532
L9.62317 -46.13
L9.63762 -45.7118
L9.65818 -45.2984
L9.68464 -44.8901
L9.71679 -44.4868
L9.75442 -44.0885
L9.79733 -43.6954
L9.84531 -43.3073
L9.89816 -42.9242
L9.9557 -42.5462
L10.0177 -42.1732
L10.0841 -41.8052
L10.1546 -41.442
L10.2291 -41.0837
L10.3075 -40.7302
L10.3895 -40.3814
L10.475 -40.0373
L10.5639 -39.6977
L10.6561 -39.3626
L10.7515 -39.0319
L10.8498 -38.7056
L10.9511 -38.3834
L11.0551 -38.0655
L11.1619 -37.7516
L11.2713 -37.4417
L11.3832 -37.1356
L11.4976 -36.8334
L11.6143 -36.5348
L11.7334 -36.2399
L11.8547 -35.9485
L11.9781 -35.6606
L12.1037 -35.3759
L12.2314 -35.0946
L12.3611 -34.8164
L12.4928 -34.5413
L12.6264 -34.2693
L12.7619 -34.0001
L12.8994 -33.7338
L13.0387 -33.4703
L13.1798 -33.2094
L13.3228 -32.9511
L13.4675 -32.6954
L13.6141 -32.4421
L13.7624 -32.1912
L13.9126 -31.9426
L14.0644 -31.6963
L14.2181 -31.4521
L14.3736 -31.21
L14.5308 -30.9699
L14.6898 -30.7319
L14.8507 -30.4957
L15.0133 -30.2613
L15.1778 -30.0288
L15.3441 -29.798
L15.5123 -29.5688
L15.6824 -29.3413
L15.8544 -29.1153
L16.0284 -28.8908
L16.2043 -28.6678
L16.3822 -28.4462
L16.5622 -28.2259
L16.7442 -28.007
L16.9284 -27.7893
L17.1147 -27.5729
L17.3032 -27.3576
L17.4939 -27.1435
L17.6869 -26.9305
L17.8822 -26.7185
L18.0799 -26.5076
L18.2801 -26.2977
L18.4827 -26.0888
L18.6878 -25.8808
L18.8956 -25.6737
L19.1059 -25.4675
L19.319 -25.2621
L19.5349 -25.0576
L19.7536 -24.8539
L19.9752 -24.651
L20.1997 -24.4489
L20.4273 -24.2476
L20.658 -24.047
L20.8919 -23.8472
L21.129 -23.6481
L21.3694 -23.4498
L21.6132 -23.2522
L21.8605 -23.0553
L22.1113 -22.8592
L22.3657 -22.6638
L22.6238 -22.4692
L22.8858 -22.2753
L23.1515 -22.0823
L23.4212 -21.89
L23.6949 -21.6986
L23.9727 -21.508
L24.2547 -21.3183
L24.5409 -21.1295
L24.8314 -20.9416
L25.1263 -20.7548
L25.4256 -20.569
L25.7295 -20.3843
L26.0379 -20.2007
L26.351 -20.0183
L26.6689 -19.8371
L26.9914 -19.6573
L27.3188 -19.4788
L27.651 -19.3018
L27.9881 -19.1263
L28.3301 -18.9525
L28.677 -18.7803
L29.0288 -18.6099
L29.3855 -18.4413
L29.7471 -18.2747
L30.1136 -18.1101
L30.4849 -17.9476
L30.8609 -17.7874
L31.2415 -17.6294
L31.6267 -17.4738
L32.0164 -17.3206
L32.4102 -17.17
L32.8082 -17.022
L33.21 -16.8766
L33.6154 -16.7338
L34.0242 -16.5938
L34.436 -16.4564
L34.8504 -16.3218
L35.267 -16.1898
L35.6854 -16.0603
L36.1049 -15.9332
L36.5251 -15.8084
L36.9453 -15.6856
L37.3646 -15.5646
L37.7823 -15.445
L38.1975 -15.3264
L38.6091 -15.2083
L39.016 -15.0901
L39.4171 -14.9711
L39.8109 -14.8505
L40.196 -14.7275
L40.571 -14.6009
L40.9341 -14.4699
L41.2839 -14.3332
L41.6186 -14.1898
L41.9366 -14.0384
L42.2364 -13.8779
L42.5166 -13.7074
L42.7761 -13.5261
L43.0138 -13.3334
L43.2294 -13.1289
L43.4223 -12.9126
L43.5928 -12.6847
L43.741 -12.4455
L43.8676 -12.1959
L43.9732 -11.9366
L44.0589 -11.6686
L44.1255 -11.393
L44.1742 -11.1108
L44.2058 -10.8231
L44.2216 -10.531
L44.2223 -10.2354
L44.209 -9.93736
L44.1825 -9.6377
L44.1435 -9.33723
L44.0928 -9.03667
L43.5748 -8.73669
L43.0942 -8.52507
L42.6114 -8.39705
L42.1265 -8.27745
L41.6398 -8.16629
L41.1514 -8.0636
L40.6614 -7.96943
L40.17 -7.88379
L39.6773 -7.80672
L39.1836 -7.73824
L38.6888 -7.67837
L38.1932 -7.62712
L37.6969 -7.58451
L37.2002 -7.55056
L36.703 -7.52528
L36.2057 -7.50867
L35.7083 -7.50074
L35.211 -7.50149
L34.7139 -7.51092
L34.2172 -7.52903
L33.721 -7.55582
L33.2256 -7.59126
L32.731 -7.63536
L32.2374 -7.6881
L31.7449 -7.74947
L31.2537 -7.81944
L30.764 -7.89799
L30.2759 -7.98511
L29.7895 -8.08075
L29.305 -8.18491
L28.8225 -8.29753
L28.3423 -8.41859
L27.8643 -8.54806
L27.3889 -8.68589
L26.916 -8.83203
L26.446 -8.98646
L25.9788 -9.14911
L25.5147 -9.31994
L25.0538 -9.49889
L24.5962 -9.68592
L24.1421 -9.88097
L23.6916 -10.084
L23.2449 -10.2949
L22.802 -10.5136
L22.3632 -10.7401
L21.9285 -10.9743
L21.4981 -11.2161
L21.0721 -11.4654
L20.6507 -11.7223
L20.2339 -11.9865
L19.822 -12.258
L19.415 -12.5368
L19.013 -12.8227
L18.6162 -13.1157
L18.2247 -13.4156
L17.8386 -13.7225
L17.458 -14.0361
L17.0831 -14.3564
L16.714 -14.6833
L16.3507 -15.0167
L15.9934 -15.3565
L15.6422 -15.7025
L15.2972 -16.0548
L14.9586 -16.4131
L14.6263 -16.7774
L14.3005 -17.1476
L13.9814 -17.5235
L13.6689 -17.905
L13.3633 -18.292
L13.0645 -18.6844
L12.7728 -19.0821
L12.4881 -19.485
L12.2105 -19.8929
L11.9403 -20.3057
L11.6773 -20.7233
L11.4218 -21.1455
L11.1737 -21.5722
L10.9332 -22.0034
L10.7004 -22.4388
L10.4752 -22.8783
L10.2578 -23.3219
L10.0483 -23.7693
L9.84667 -24.2204
L9.653 -24.6751
L9.46736 -25.1333
L9.28981 -25.5947
L9.12039 -26.0594
L8.95916 -26.5271
L8.80616 -26.9976
L8.66145 -27.4709
L8.52507 -27.9468
L8.39705 -28.4252
L8.27745 -28.9058
L8.16629 -29.3886
L8.0636 -29.8735
L7.96943 -30.3602
L7.88379 -30.8486
L7.80672 -31.3386
L7.73824 -31.83
L7.67837 -32.3227
L7.62712 -32.8164
L7.58451 -33.3112
L7.55056 -33.8068
L7.52528 -34.3031
L7.50867 -34.7998
L7.50074 -35.297
L7.50149 -35.7943
L7.51092 -36.2917
L7.52903 -36.789
L7.55582 -37.2861
L7.59126 -37.7828
L7.63536 -38.279
L7.6881 -38.7744
L7.74947 -39.269
L7.81944 -39.7626
L7.89799 -40.2551
L7.98511 -40.7463
L8.08075 -41.236
L8.18491 -41.7241
L8.29753 -42.2105
L8.41859 -42.695
L8.54806 -43.1775
L8.68589 -43.6577
L8.83203 -44.1357
L8.98646 -44.6111
L9.14911 -45.084
L9.31994 -45.554
z
" id="C0_2_f72a1da88e"/>
    </defs>
    <g clip-path="url(#p1bffca34e9)">
     <use style="fill:#ff0000;stroke:#000000;stroke-width:2.0;" x="0.0" xlink:href="#C0_0_a811fe30f3" y="72.0"/>
    </g>
    <g clip-path="url(#p1bffca34e9)">
     <use style="fill:#ffffff;stroke:#000000;stroke-width:2.0;" x="0.0" xlink:href="#C0_1_8c6045eb7b" y="72.0"/>
    </g>
    <g clip-path="url(#p1bffca34e9)">
     <use style="fill:#ffffff;stroke:#000000;stroke-width:2.0;" x="0.0" xlink:href="#C0_2_f72a1da88e" y="72.0"/>
    </g>
   </g>
  </g>
 </g>
 <defs>
  <clipPath id="p1bffca34e9">
   <rect height="72.0" width="72.0" x="0.0" y="0.0"/>
  </clipPath>
 </defs>
</svg>
