<?xml version="1.0" encoding="utf-8" standalone="no"?>
<!DOCTYPE svg PUBLIC "-//W3C//DTD SVG 1.1//EN"
  "http://www.w3.org/Graphics/SVG/1.1/DTD/svg11.dtd">
<!-- Created with matplotlib (http://matplotlib.org/) -->
<svg height="72pt" version="1.1" viewBox="0 0 72 72" width="72pt" xmlns="http://www.w3.org/2000/svg" xmlns:xlink="http://www.w3.org/1999/xlink">
 <defs>
  <style type="text/css">
*{stroke-linecap:butt;stroke-linejoin:round;}
  </style>
 </defs>
 <g id="figure_1">
  <g id="patch_1">
   <path d="
M0 72
L72 72
L72 0
L0 0
z
" style="fill:none;"/>
  </g>
  <g id="axes_1">
   <g id="PatchCollection_1">
    <defs>
     <path d="
M36 -7.5
C43.5583 -7.5 50.808 -10.5029 56.1525 -15.8475
C61.4971 -21.192 64.5 -28.4417 64.5 -36
C64.5 -43.5583 61.4971 -50.808 56.1525 -56.1525
C50.808 -61.4971 43.5583 -64.5 36 -64.5
C28.4417 -64.5 21.192 -61.4971 15.8475 -56.1525
C10.5029 -50.808 7.5 -43.5583 7.5 -36
C7.5 -28.4417 10.5029 -21.192 15.8475 -15.8475
C21.192 -10.5029 28.4417 -7.5 36 -7.5
z
" id="C0_0_a811fe30f3"/>
     <path d="
M48.3061 -30.5924
L48.1442 -30.3711
L47.9803 -30.1511
L47.8146 -29.9323
L47.6469 -29.7148
L47.4772 -29.4985
L47.3056 -29.2834
L47.1319 -29.0695
L46.9562 -28.8567
L46.7784 -28.6451
L46.5985 -28.4346
L46.4165 -28.2252
L46.2323 -28.0168
L46.046 -27.8096
L45.8573 -27.6034
L45.6665 -27.3983
L45.4733 -27.1942
L45.2777 -26.9912
L45.0798 -26.7893
L44.8795 -26.5884
L44.6767 -26.3886
L44.4713 -26.1898
L44.2635 -25.9921
L44.053 -25.7955
L43.8399 -25.6
L43.6241 -25.4056
L43.4055 -25.2124
L43.1842 -25.0203
L42.96 -24.8294
L42.733 -24.6397
L42.503 -24.4514
L42.2701 -24.2643
L42.0342 -24.0785
L41.7952 -23.8941
L41.5531 -23.7112
L41.3078 -23.5298
L41.0594 -23.3499
L40.8076 -23.1717
L40.5527 -22.9951
L40.2943 -22.8203
L40.0326 -22.6474
L39.7675 -22.4765
L39.499 -22.3075
L39.227 -22.1407
L38.9515 -21.9762
L38.6724 -21.8141
L38.3898 -21.6544
L38.1036 -21.4973
L37.8138 -21.3431
L37.5204 -21.1917
L37.2234 -21.0434
L36.9228 -20.8983
L36.6186 -20.7566
L36.3108 -20.6185
L35.9994 -20.4841
L35.6845 -20.3537
L35.3661 -20.2275
L35.0441 -20.1057
L34.7188 -19.9885
L34.3901 -19.8762
L34.0581 -19.769
L33.723 -19.6672
L33.3847 -19.571
L33.0435 -19.4807
L32.6993 -19.3967
L32.3525 -19.3192
L32.0031 -19.2485
L31.6513 -19.1849
L31.2972 -19.1288
L30.9411 -19.0804
L30.5833 -19.0402
L30.2238 -19.0085
L29.8631 -18.9855
L29.5013 -18.9718
L29.1387 -18.9674
L28.7757 -18.973
L28.4126 -18.9887
L28.0498 -19.0148
L27.6875 -19.0518
L27.3261 -19.0999
L26.9662 -19.1593
L26.608 -19.2303
L26.2519 -19.3132
L25.8985 -19.4082
L25.548 -19.5153
L25.2011 -19.6348
L24.858 -19.7667
L24.5192 -19.9111
L24.1852 -20.0679
L23.8563 -20.2372
L23.533 -20.4187
L23.2156 -20.6124
L22.9046 -20.818
L22.6002 -21.0353
L22.3028 -21.2641
L22.0127 -21.5039
L21.7301 -21.7544
L21.4554 -22.0153
L21.1887 -22.286
L20.9302 -22.5662
L20.6801 -22.8553
L20.4385 -23.1528
L20.2056 -23.4583
L19.9813 -23.7712
L19.7658 -24.091
L19.559 -24.4172
L19.361 -24.7493
L19.1719 -25.0867
L18.9914 -25.4291
L18.8196 -25.7759
L18.6565 -26.1266
L18.5018 -26.4807
L18.3557 -26.838
L18.2178 -27.1979
L18.0882 -27.56
L17.9666 -27.924
L17.853 -28.2895
L17.7472 -28.6561
L17.6491 -29.0236
L17.5584 -29.3916
L17.4752 -29.7598
L17.3991 -30.128
L17.33 -30.496
L17.2679 -30.8635
L17.2124 -31.2302
L17.1635 -31.5961
L17.121 -31.9608
L17.0847 -32.3243
L17.0545 -32.6864
L17.0302 -33.0469
L17.0117 -33.4057
L16.9988 -33.7627
L16.9913 -34.1178
L16.9892 -34.4709
L16.9922 -34.8219
L17.0003 -35.1708
L17.0133 -35.5174
L17.031 -35.8618
L17.0534 -36.2038
L17.0803 -36.5434
L17.1117 -36.8806
L17.1473 -37.2154
L17.1871 -37.5478
L17.231 -37.8777
L17.2789 -38.205
L17.3307 -38.5299
L17.3862 -38.8523
L17.4455 -39.1723
L17.5084 -39.4897
L17.5748 -39.8046
L17.6446 -40.1171
L17.7179 -40.4271
L17.7944 -40.7347
L17.8743 -41.0399
L17.9573 -41.3427
L18.0434 -41.6431
L18.1326 -41.9412
L18.2249 -42.2369
L18.3201 -42.5304
L18.4183 -42.8216
L18.5194 -43.1106
L18.6233 -43.3973
L18.7301 -43.6819
L18.8397 -43.9643
L18.9521 -44.2447
L19.0671 -44.5229
L19.185 -44.7991
L19.3055 -45.0733
L19.4288 -45.3455
L19.5547 -45.6157
L19.6833 -45.884
L19.8145 -46.1504
L19.9484 -46.415
L20.085 -46.6777
L20.2242 -46.9386
L20.3661 -47.1977
L20.5107 -47.455
L20.6579 -47.7106
L20.8079 -47.9646
L20.9605 -48.2168
L21.1159 -48.4673
L21.2739 -48.7162
L21.4348 -48.9635
L21.5984 -49.2092
L21.7648 -49.4532
L21.934 -49.6957
L22.1061 -49.9366
L22.281 -50.176
L22.4589 -50.4138
L22.6397 -50.65
L22.8235 -50.8848
L23.0103 -51.118
L23.2002 -51.3496
L23.3931 -51.5797
L23.5892 -51.8083
L23.7885 -52.0353
L23.9911 -52.2607
L24.1969 -52.4846
L24.406 -52.7068
L24.6185 -52.9275
L24.8345 -53.1465
L25.0539 -53.3639
L25.2768 -53.5795
L25.5034 -53.7935
L25.7336 -54.0057
L25.9675 -54.216
L26.2052 -54.4246
L26.4467 -54.6312
L26.6921 -54.8359
L26.9414 -55.0385
L27.1948 -55.2391
L27.4521 -55.4376
L27.7136 -55.6338
L27.9793 -55.8278
L28.2492 -56.0193
L28.5234 -56.2084
L28.802 -56.3949
L29.0849 -56.5787
L29.3723 -56.7598
L29.6642 -56.938
L29.9607 -57.1131
L30.2617 -57.2851
L30.5673 -57.4538
L30.8777 -57.619
L31.1927 -57.7807
L31.5124 -57.9386
L31.8369 -58.0926
L32.1661 -58.2425
L32.5001 -58.3881
L32.8389 -58.5293
L33.1824 -58.6657
L33.5306 -58.7973
L33.8836 -58.9238
L34.2412 -59.045
L34.6034 -59.1606
L34.9702 -59.2703
L35.3414 -59.3741
L35.717 -59.4715
L36.0969 -59.5623
L36.481 -59.6463
L36.869 -59.7232
L37.2609 -59.7926
L37.6564 -59.8544
L38.0554 -59.9081
L38.4577 -59.9536
L38.8629 -59.9905
L39.2708 -60.0185
L39.6812 -60.0373
L40.0936 -60.0466
L40.5078 -60.0462
L40.9234 -60.0357
L41.3399 -60.0149
L41.757 -59.9835
L42.1741 -59.9413
L42.5909 -59.888
L43.0068 -59.8234
L43.4212 -59.7473
L43.8337 -59.6595
L44.2436 -59.5599
L44.6505 -59.4483
L45.0536 -59.3247
L45.4524 -59.189
L45.8462 -59.0412
L46.2345 -58.8813
L46.6167 -58.7094
L46.9921 -58.5256
L47.3602 -58.33
L47.7205 -58.1229
L48.0723 -57.9044
L48.4152 -57.6749
L48.7488 -57.4347
L49.0725 -57.1841
L49.386 -56.9236
L49.6891 -56.6535
L49.9813 -56.3743
L50.2624 -56.0865
L50.5323 -55.7905
L50.7908 -55.487
L51.0378 -55.1764
L51.2733 -54.8592
L51.4972 -54.536
L51.7096 -54.2072
L51.9105 -53.8735
L52.1001 -53.5352
L52.2784 -53.193
L52.4456 -52.8473
L52.602 -52.4985
L52.7477 -52.1472
L52.8829 -51.7936
L53.0078 -51.4383
L53.1228 -51.0817
L53.228 -50.724
L53.3238 -50.3657
L53.4103 -50.0071
L53.4879 -49.6484
L53.5569 -49.29
L53.6174 -48.9321
L53.6698 -48.575
L53.7144 -48.2188
L53.7513 -47.8639
L53.7809 -47.5104
L53.8035 -47.1584
L53.8192 -46.8082
L53.8283 -46.4598
L53.8311 -46.1135
L53.8278 -45.7693
L53.8185 -45.4273
L53.8036 -45.0876
L53.7833 -44.7503
L53.7577 -44.4155
L53.727 -44.0832
L53.6915 -43.7535
L53.6513 -43.4265
L53.6065 -43.1021
L53.5574 -42.7804
L53.5042 -42.4614
L53.4469 -42.1451
L53.3857 -41.8316
L53.3208 -41.5208
L53.2523 -41.2128
L53.1803 -40.9075
L53.105 -40.6049
L53.0264 -40.305
L52.9446 -40.0078
L52.8599 -39.7133
L52.7722 -39.4215
L52.6817 -39.1322
L52.5885 -38.8456
L52.4926 -38.5615
L52.3941 -38.28
L52.2931 -38.0009
L52.1896 -37.7243
L52.0838 -37.4501
L51.9757 -37.1783
L51.8653 -36.9089
L51.7527 -36.6417
L51.6379 -36.3768
L51.521 -36.1142
L51.4021 -35.8537
L51.2811 -35.5954
L51.1581 -35.3391
L51.0332 -35.0849
L50.9063 -34.8327
L50.7775 -34.5825
L50.6468 -34.3343
L50.5142 -34.0879
L50.3798 -33.8433
L50.2435 -33.6006
L50.1054 -33.3597
L49.9654 -33.1204
L49.8237 -32.8829
L49.6801 -32.647
L49.5348 -32.4127
L49.3876 -32.18
L49.2386 -31.9488
L49.0878 -31.7192
L48.9351 -31.491
L48.7806 -31.2643
L48.6243 -31.0389
z
" id="C0_1_0afe479d8c"/>
    </defs>
    <g clip-path="url(#p1bffca34e9)">
     <use style="fill:#ff0000;stroke:#000000;stroke-width:2.0;" x="0.0" xlink:href="#C0_0_a811fe30f3" y="72.0"/>
    </g>
    <g clip-path="url(#p1bffca34e9)">
     <use style="fill:#ffffff;stroke:#000000;stroke-width:2.0;" x="0.0" xlink:href="#C0_1_0afe479d8c" y="72.0"/>
    </g>
   </g>
  </g>
 </g>
 <defs>
  <clipPath id="p1bffca34e9">
   <rect height="72.0" width="72.0" x="0.0" y="0.0"/>
  </clipPath>
 </defs>
</svg>
