<?xml version="1.0" encoding="utf-8" standalone="no"?>
<!DOCTYPE svg PUBLIC "-//W3C//DTD SVG 1.1//EN"
  "http://www.w3.org/Graphics/SVG/1.1/DTD/svg11.dtd">
<!-- Created with matplotlib (http://matplotlib.org/) -->
<svg height="72pt" version="1.1" viewBox="0 0 72 72" width="72pt" xmlns="http://www.w3.org/2000/svg" xmlns:xlink="http://www.w3.org/1999/xlink">
 <defs>
  <style type="text/css">
*{stroke-linecap:butt;stroke-linejoin:round;}
  </style>
 </defs>
 <g id="figure_1">
  <g id="patch_1">
   <path d="
M0 72
L72 72
L72 0
L0 0
z
" style="fill:none;"/>
  </g>
  <g id="axes_1">
   <g id="PatchCollection_1">
    <defs>
     <path d="
M36 -7.5
C43.5583 -7.5 50.808 -10.5029 56.1525 -15.8475
C61.4971 -21.192 64.5 -28.4417 64.5 -36
C64.5 -43.5583 61.4971 -50.808 56.1525 -56.1525
C50.808 -61.4971 43.5583 -64.5 36 -64.5
C28.4417 -64.5 21.192 -61.4971 15.8475 -56.1525
C10.5029 -50.808 7.5 -43.5583 7.5 -36
C7.5 -28.4417 10.5029 -21.192 15.8475 -15.8475
C21.192 -10.5029 28.4417 -7.5 36 -7.5
z
" id="C0_0_a811fe30f3"/>
     <path d="
M56.4223 -16.2063
L56.5538 -16.581
L56.6649 -16.9497
L56.7553 -17.3116
L56.8249 -17.6657
L56.8735 -18.0114
L56.9012 -18.348
L56.9083 -18.6749
L56.8949 -18.9916
L56.8615 -19.298
L56.8086 -19.5937
L56.7369 -19.8788
L56.647 -20.1532
L56.5397 -20.4172
L56.416 -20.6711
L56.2766 -20.9151
L56.1226 -21.1497
L55.9549 -21.3753
L55.7743 -21.5925
L55.582 -21.8017
L55.3787 -22.0034
L55.1655 -22.1982
L54.943 -22.3866
L54.7123 -22.569
L54.474 -22.746
L54.2288 -22.9178
L53.9776 -23.0851
L53.7208 -23.248
L53.4592 -23.407
L53.1933 -23.5625
L52.9236 -23.7146
L52.6506 -23.8636
L52.3748 -24.0099
L52.0966 -24.1536
L51.8163 -24.295
L51.5344 -24.4341
L51.2511 -24.5712
L50.9667 -24.7064
L50.6815 -24.8399
L50.3958 -24.9717
L50.1098 -25.102
L49.8237 -25.2308
L49.5377 -25.3583
L49.252 -25.4846
L48.9666 -25.6096
L48.6819 -25.7335
L48.3978 -25.8563
L48.1145 -25.9781
L47.832 -26.0988
L47.5506 -26.2187
L47.2702 -26.3377
L46.991 -26.4558
L46.7129 -26.5731
L46.4361 -26.6896
L46.1605 -26.8053
L45.8863 -26.9203
L45.6134 -27.0346
L45.3418 -27.1483
L45.0716 -27.2613
L44.8028 -27.3736
L44.5354 -27.4854
L44.2694 -27.5965
L44.0048 -27.7071
L43.7415 -27.8172
L43.4796 -27.9268
L43.2191 -28.0358
L42.9599 -28.1444
L42.7021 -28.2525
L42.4455 -28.3602
L42.1902 -28.4675
L41.9361 -28.5744
L41.6832 -28.6809
L41.4315 -28.787
L41.181 -28.8928
L40.9316 -28.9983
L40.6832 -29.1035
L40.436 -29.2084
L40.1897 -29.313
L39.9443 -29.4175
L39.6999 -29.5217
L39.4564 -29.6257
L39.2138 -29.7295
L38.9719 -29.8331
L38.7308 -29.9366
L38.4904 -30.04
L38.2507 -30.1433
L38.0116 -30.2465
L37.7731 -30.3497
L37.5351 -30.4528
L37.2977 -30.5559
L37.0606 -30.659
L36.824 -30.7621
L36.5878 -30.8653
L36.3518 -30.9685
L36.1161 -31.0718
L35.8807 -31.1752
L35.6454 -31.2787
L35.1752 -31.3824
L34.9401 -31.4862
L34.7051 -31.5902
L34.47 -31.6944
L34.2347 -31.7989
L33.9994 -31.9036
L33.7638 -32.0085
L33.528 -32.1138
L33.2919 -32.2193
L33.0554 -32.3252
L32.8186 -32.4314
L32.5813 -32.5381
L32.3436 -32.645
L32.1053 -32.7524
L31.8665 -32.8603
L31.627 -32.9686
L31.3869 -33.0773
L31.1461 -33.1865
L30.9045 -33.2963
L30.6622 -33.4066
L30.419 -33.5174
L30.1749 -33.6288
L29.9299 -33.7407
L29.684 -33.8533
L29.437 -33.9664
L29.189 -34.0802
L28.9399 -34.1947
L28.6896 -34.3098
L28.4382 -34.4255
L28.1856 -34.542
L27.9318 -34.6591
L27.6767 -34.777
L27.4202 -34.8955
L27.1625 -35.0148
L26.9033 -35.1348
L26.6428 -35.2555
L26.3808 -35.377
L26.1174 -35.4991
L25.8525 -35.622
L25.5861 -35.7456
L25.3182 -35.87
L25.0487 -35.9949
L24.7777 -36.1206
L24.5052 -36.2469
L24.231 -36.3739
L23.9553 -36.5014
L23.6781 -36.6295
L23.3992 -36.7581
L23.1188 -36.8872
L22.8369 -37.0167
L22.5534 -37.1465
L22.2684 -37.2766
L21.9819 -37.4069
L21.694 -37.5373
L21.4046 -37.6677
L21.1138 -37.798
L20.8217 -37.9281
L20.5283 -38.0578
L20.2337 -38.1869
L19.938 -38.3154
L19.6411 -38.4429
L19.3432 -38.5694
L19.0444 -38.6945
L18.7447 -38.818
L18.4443 -38.9396
L18.1433 -39.0591
L17.8417 -39.176
L17.5397 -39.2901
L17.2374 -39.4008
L16.935 -39.5078
L16.6325 -39.6106
L16.3302 -39.7087
L16.0282 -39.8015
L15.7266 -39.8884
L15.4257 -39.9686
L15.1255 -40.0417
L14.8264 -40.1067
L14.5284 -40.1628
L14.2318 -40.2093
L13.9369 -40.2452
L13.6438 -40.2696
L13.3529 -40.2815
L13.0644 -40.2799
L12.7785 -40.264
L12.4956 -40.2326
L12.216 -40.1848
L11.9401 -40.1198
L11.6682 -40.0366
L11.4007 -39.9344
L11.1381 -39.8128
L10.8807 -39.671
L10.629 -39.5087
L10.3835 -39.3257
L10.1446 -39.1219
L9.91282 -38.8973
L9.68859 -38.6523
L9.47238 -38.3872
L9.26463 -38.1025
L9.06576 -37.7989
L8.87618 -37.4771
L8.69627 -37.138
L8.52636 -36.7826
L8.36677 -36.4118
L8.2178 -36.0265
L8.07967 -35.6279
L7.95261 -35.2169
L7.83679 -34.7946
L7.73236 -34.362
L7.63942 -33.9201
L7.66127 -33.4698
L7.71843 -32.9724
L7.7842 -32.4783
L7.85856 -31.9852
L7.9415 -31.4934
L8.03299 -31.0029
L8.13299 -30.514
L8.24148 -30.0268
L8.35843 -29.5413
L8.4838 -29.0578
L8.61754 -28.5765
L8.75963 -28.0974
L8.91002 -27.6207
L9.06866 -27.1466
L9.2355 -26.6751
L9.4105 -26.2065
L9.59359 -25.7409
L9.78473 -25.2784
L9.98386 -24.8192
L10.1909 -24.3634
L10.4058 -23.9111
L10.6285 -23.4625
L10.859 -23.0178
L11.0971 -22.577
L11.3427 -22.1402
L11.5959 -21.7077
L11.8565 -21.2796
L12.1245 -20.8559
L12.3998 -20.4368
L12.6822 -20.0225
L12.9718 -19.6131
L13.2683 -19.2086
L13.5718 -18.8093
L13.8821 -18.4152
L14.1992 -18.0264
L14.5229 -17.6432
L14.8531 -17.2655
L15.1898 -16.8935
L15.5328 -16.5274
L15.882 -16.1671
L16.2374 -15.813
L16.5988 -15.4649
L16.9661 -15.1231
L17.3392 -14.7877
L17.718 -14.4588
L18.1024 -14.1364
L18.4922 -13.8206
L18.8873 -13.5117
L19.2877 -13.2095
L19.6931 -12.9143
L20.1035 -12.6262
L20.5188 -12.3452
L20.9387 -12.0713
L21.3633 -11.8048
L21.7923 -11.5456
L22.2257 -11.2939
L22.6632 -11.0497
L23.1048 -10.8131
L23.5503 -10.5842
L23.9997 -10.363
L24.4526 -10.1496
L24.9091 -9.94413
L25.369 -9.74657
L25.8321 -9.557
L26.2983 -9.37549
L26.7675 -9.2021
L27.2395 -9.03686
L27.7141 -8.87984
L28.1913 -8.73107
L28.6708 -8.59062
L29.1526 -8.45851
L29.6365 -8.3348
L30.1223 -8.21951
L30.6099 -8.11268
L31.0991 -8.01435
L31.5899 -7.92454
L32.0819 -7.84328
L32.5752 -7.7706
L33.0695 -7.70652
L33.5647 -7.65106
L34.0607 -7.60424
L34.5572 -7.56606
L35.0542 -7.53654
L35.5514 -7.5157
L36.0488 -7.50353
L36.5462 -7.50004
L37.0434 -7.50523
L37.5403 -7.51911
L38.0368 -7.54166
L38.5326 -7.57287
L39.0276 -7.61275
L39.5217 -7.66127
L40.0148 -7.71843
L40.5066 -7.7842
L40.9971 -7.85856
L41.486 -7.9415
L41.9732 -8.03299
L42.4587 -8.13299
L42.9422 -8.24148
L43.4235 -8.35843
L43.9026 -8.4838
L44.3793 -8.61754
L44.8534 -8.75963
L45.3249 -8.91002
L45.7935 -9.06866
L46.2591 -9.2355
L46.7216 -9.4105
L47.1808 -9.59359
L47.6366 -9.78473
L48.0889 -9.98386
L48.5375 -10.1909
L48.9822 -10.4058
L49.423 -10.6285
L49.8598 -10.859
L50.2923 -11.0971
L50.7204 -11.3427
L51.1441 -11.5959
L51.5632 -11.8565
L51.9775 -12.1245
L52.3869 -12.3998
L52.7914 -12.6822
L53.1907 -12.9718
L53.5848 -13.2683
L53.9736 -13.5718
L54.3568 -13.8821
L54.7345 -14.1992
L55.1065 -14.5229
L55.4726 -14.8531
L55.8329 -15.1898
z
" id="C0_1_0cfc917c77"/>
     <path d="
M64.2458 -38.9673
L64.0734 -39.399
L63.8966 -39.8295
L63.7154 -40.2582
L63.5299 -40.6846
L63.34 -41.108
L63.1458 -41.5282
L62.9474 -41.9447
L62.7448 -42.3571
L62.5382 -42.7652
L62.3277 -43.1686
L62.1134 -43.5671
L61.8954 -43.9605
L61.6739 -44.3487
L61.449 -44.7314
L61.2209 -45.1085
L60.9897 -45.48
L60.7555 -45.8457
L60.5185 -46.2056
L60.2789 -46.5596
L60.0367 -46.9077
L59.7922 -47.2499
L59.5454 -47.5862
L59.2965 -47.9166
L59.0456 -48.2411
L58.7928 -48.5598
L58.5382 -48.8727
L58.282 -49.1798
L58.0242 -49.4812
L57.7649 -49.7769
L57.5042 -50.0671
L57.2423 -50.3517
L56.9791 -50.6309
L56.7148 -50.9047
L56.4494 -51.1733
L56.1829 -51.4366
L55.9156 -51.6948
L55.6473 -51.948
L55.3781 -52.1962
L55.1081 -52.4395
L54.8374 -52.678
L54.5659 -52.9118
L54.2936 -53.141
L54.0207 -53.3657
L53.7471 -53.5859
L53.4728 -53.8017
L53.1979 -54.0132
L52.9224 -54.2204
L52.6462 -54.4236
L52.3694 -54.6226
L52.092 -54.8177
L51.8139 -55.0088
L51.5352 -55.1961
L51.2559 -55.3795
L50.9759 -55.5593
L50.6952 -55.7353
L50.4138 -55.9078
L50.1317 -56.0767
L49.849 -56.2421
L49.5654 -56.4041
L49.2811 -56.5627
L48.996 -56.718
L48.7101 -56.8699
L48.4233 -57.0187
L48.1356 -57.1642
L47.847 -57.3065
L47.5574 -57.4457
L47.2668 -57.5819
L46.9752 -57.7149
L46.6826 -57.8449
L46.3888 -57.9719
L46.0939 -58.096
L45.7978 -58.217
L45.5004 -58.3352
L45.2018 -58.4503
L44.9018 -58.5626
L44.6005 -58.672
L44.2977 -58.7785
L43.9935 -58.8821
L43.6877 -58.9828
L43.3804 -59.0806
L43.0715 -59.1755
L42.7609 -59.2675
L42.4485 -59.3566
L42.1344 -59.4428
L41.8185 -59.5261
L41.5007 -59.6064
L41.1809 -59.6838
L40.8592 -59.7582
L40.5355 -59.8295
L40.2096 -59.8979
L39.8816 -59.9631
L39.5514 -60.0252
L39.219 -60.0842
L38.8843 -60.14
L38.5472 -60.1925
L38.2078 -60.2418
L37.8659 -60.2877
L37.5215 -60.3302
L37.1746 -60.3693
L36.825 -60.4049
L36.4729 -60.4368
L36.1181 -60.4652
L35.7606 -60.4898
L35.4004 -60.5107
L35.0374 -60.5277
L34.6716 -60.5407
L34.303 -60.5498
L33.9316 -60.5547
L33.5572 -60.5554
L33.18 -60.5519
L32.8 -60.544
L32.417 -60.5316
L32.0311 -60.5147
L31.6424 -60.4931
L31.2508 -60.4667
L30.8564 -60.4355
L30.4591 -60.3994
L30.0591 -60.3582
L29.6563 -60.312
L29.2509 -60.2605
L28.8429 -60.2037
L28.4323 -60.1415
L28.0193 -60.0738
L27.604 -60.0007
L27.1864 -59.9219
L26.7667 -59.8375
L26.3451 -59.7474
L25.9216 -59.6516
L25.4965 -59.5501
L25.0698 -59.4429
L24.6419 -59.3299
L24.2129 -59.2113
L23.7831 -59.0871
L23.3526 -58.9574
L22.9218 -58.8223
L22.4909 -58.682
L22.0603 -58.5367
L21.6301 -58.3866
L21.2008 -58.232
L20.7727 -58.0731
L20.3462 -57.9105
L19.9215 -57.7444
L19.4991 -57.5755
L19.0795 -57.4041
L18.6629 -57.231
L18.2498 -57.0569
L17.8407 -56.8823
L17.4359 -56.7082
L17.036 -56.5354
L16.6412 -56.3649
L16.252 -56.1975
L16.1529 -56.0344
L16.5129 -56.4535
L16.8788 -56.7967
L17.2506 -57.1336
L17.628 -57.4641
L18.0111 -57.7881
L18.3996 -58.1054
L18.7935 -58.416
L19.1926 -58.7197
L19.5969 -59.0166
L20.0062 -59.3064
L20.4203 -59.5891
L20.8391 -59.8647
L21.2626 -60.1329
L21.6906 -60.3939
L22.1229 -60.6473
L22.5595 -60.8933
L23.0002 -61.1317
L23.4448 -61.3625
L23.8932 -61.5855
L24.3453 -61.8007
L24.801 -62.0081
L25.2601 -62.2075
L25.7225 -62.399
L26.188 -62.5824
L26.6564 -62.7577
L27.1278 -62.9249
L27.6018 -63.0838
L28.0784 -63.2345
L28.5574 -63.377
L29.0387 -63.511
L29.522 -63.6367
L30.0074 -63.754
L30.4946 -63.8629
L30.9835 -63.9632
L31.4738 -64.055
L31.9656 -64.1383
L32.4586 -64.213
L32.9527 -64.2791
L33.4477 -64.3366
L33.9435 -64.3855
L34.4399 -64.4257
L34.9368 -64.4573
L35.434 -64.4802
L35.9314 -64.4944
L36.4288 -64.4999
L36.926 -64.4968
L37.423 -64.485
L37.9196 -64.4645
L38.4156 -64.4353
L38.9108 -64.3974
L39.4052 -64.351
L39.8985 -64.2958
L40.3906 -64.2321
L40.8814 -64.1598
L41.3707 -64.0789
L41.8583 -63.9894
L42.3442 -63.8914
L42.8282 -63.7849
L43.31 -63.67
L43.7897 -63.5466
L44.2669 -63.4148
L44.7417 -63.2747
L45.2138 -63.1262
L45.6831 -62.9695
L46.1494 -62.8046
L46.6126 -62.6316
L47.0726 -62.4504
L47.5293 -62.2611
L47.9824 -62.0639
L48.4319 -61.8587
L48.8775 -61.6456
L49.3193 -61.4248
L49.757 -61.1962
L50.1905 -60.9599
L50.6197 -60.716
L51.0445 -60.4645
L51.4646 -60.2057
L51.8801 -59.9394
L52.2907 -59.6659
L52.6963 -59.3851
L53.0969 -59.0973
L53.4922 -58.8023
L53.8822 -58.5005
L54.2668 -58.1918
L54.6458 -57.8763
L55.0192 -57.5542
L55.3867 -57.2255
L55.7483 -56.8903
L56.104 -56.5488
L56.4535 -56.201
L56.7967 -55.8471
L57.1336 -55.4871
L57.4641 -55.1212
L57.7881 -54.7494
L58.1054 -54.372
L58.416 -53.9889
L58.7197 -53.6004
L59.0166 -53.2065
L59.3064 -52.8074
L59.5891 -52.4031
L59.8647 -51.9938
L60.1329 -51.5797
L60.3939 -51.1609
L60.6473 -50.7374
L60.8933 -50.3094
L61.1317 -49.8771
L61.3625 -49.4405
L61.5855 -48.9998
L61.8007 -48.5552
L62.0081 -48.1068
L62.2075 -47.6547
L62.399 -47.199
L62.5824 -46.7399
L62.7577 -46.2775
L62.9249 -45.812
L63.0838 -45.3436
L63.2345 -44.8722
L63.377 -44.3982
L63.511 -43.9216
L63.6367 -43.4426
L63.754 -42.9613
L63.8629 -42.478
L63.9632 -41.9926
L64.055 -41.5054
L64.1383 -41.0165
L64.213 -40.5262
L64.2791 -40.0344
z
" id="C0_2_0b282d6df6"/>
    </defs>
    <g clip-path="url(#p1bffca34e9)">
     <use style="fill:#ff0000;stroke:#000000;stroke-width:2.0;" x="0.0" xlink:href="#C0_0_a811fe30f3" y="72.0"/>
    </g>
    <g clip-path="url(#p1bffca34e9)">
     <use style="fill:#ffffff;stroke:#000000;stroke-width:2.0;" x="0.0" xlink:href="#C0_1_0cfc917c77" y="72.0"/>
    </g>
    <g clip-path="url(#p1bffca34e9)">
     <use style="fill:#ffffff;stroke:#000000;stroke-width:2.0;" x="0.0" xlink:href="#C0_2_0b282d6df6" y="72.0"/>
    </g>
   </g>
  </g>
 </g>
 <defs>
  <clipPath id="p1bffca34e9">
   <rect height="72.0" width="72.0" x="0.0" y="0.0"/>
  </clipPath>
 </defs>
</svg>
