<?xml version="1.0" encoding="utf-8" standalone="no"?>
<!DOCTYPE svg PUBLIC "-//W3C//DTD SVG 1.1//EN"
  "http://www.w3.org/Graphics/SVG/1.1/DTD/svg11.dtd">
<!-- Created with matplotlib (http://matplotlib.org/) -->
<svg height="72pt" version="1.1" viewBox="0 0 72 72" width="72pt" xmlns="http://www.w3.org/2000/svg" xmlns:xlink="http://www.w3.org/1999/xlink">
 <defs>
  <style type="text/css">
*{stroke-linecap:butt;stroke-linejoin:round;}
  </style>
 </defs>
 <g id="figure_1">
  <g id="patch_1">
   <path d="
M0 72
L72 72
L72 0
L0 0
z
" style="fill:none;"/>
  </g>
  <g id="axes_1">
   <g id="PatchCollection_1">
    <defs>
     <path d="
M36 -7.5
C43.5583 -7.5 50.808 -10.5029 56.1525 -15.8475
C61.4971 -21.192 64.5 -28.4417 64.5 -36
C64.5 -43.5583 61.4971 -50.808 56.1525 -56.1525
C50.808 -61.4971 43.5583 -64.5 36 -64.5
C28.4417 -64.5 21.192 -61.4971 15.8475 -56.1525
C10.5029 -50.808 7.5 -43.5583 7.5 -36
C7.5 -28.4417 10.5029 -21.192 15.8475 -15.8475
C21.192 -10.5029 28.4417 -7.5 36 -7.5
z
" id="C0_0_a811fe30f3"/>
     <path d="
M39.4973 -32.6
L39.6033 -32.8279
L39.7087 -33.0563
L39.8137 -33.2851
L39.9183 -33.5143
L40.0225 -33.7441
L40.1262 -33.9745
L40.2296 -34.2056
L40.3327 -34.4373
L40.4355 -34.6699
L40.5379 -34.9032
L40.6401 -35.1375
L40.742 -35.3727
L40.8437 -35.609
L40.9452 -35.8463
L41.0464 -36.0848
L41.1475 -36.3245
L41.2484 -36.5654
L41.3492 -36.8078
L41.4498 -37.0515
L41.5504 -37.2966
L41.6508 -37.5433
L41.7511 -37.7917
L41.8513 -38.0416
L41.9515 -38.2933
L42.0516 -38.5469
L42.1516 -38.8022
L42.2516 -39.0595
L42.3515 -39.3189
L42.4514 -39.5802
L42.5513 -39.8438
L42.6511 -40.1095
L42.7509 -40.3775
L42.8506 -40.6478
L42.9503 -40.9205
L43.0499 -41.1957
L43.1495 -41.4734
L43.249 -41.7537
L43.3484 -42.0367
L43.4477 -42.3224
L43.5469 -42.6109
L43.6459 -42.9022
L43.7448 -43.1964
L43.8435 -43.4935
L43.942 -43.7937
L44.0401 -44.0968
L44.138 -44.4031
L44.2356 -44.7125
L44.3327 -45.0251
L44.4294 -45.3408
L44.5256 -45.6598
L44.6212 -45.982
L44.7161 -46.3075
L44.8104 -46.6363
L44.9038 -46.9683
L44.9964 -47.3036
L45.0879 -47.6422
L45.1783 -47.984
L45.2676 -48.329
L45.3554 -48.6772
L45.4418 -49.0285
L45.5265 -49.3828
L45.6095 -49.7401
L45.6904 -50.1004
L45.7692 -50.4634
L45.8456 -50.829
L45.9194 -51.1972
L45.9903 -51.5678
L46.0581 -51.9407
L46.1224 -52.3155
L46.1829 -52.6922
L46.2392 -53.0704
L46.2909 -53.45
L46.3374 -53.8306
L46.3783 -54.2119
L46.4129 -54.5935
L46.4405 -54.9751
L46.4601 -55.3562
L46.4707 -55.7363
L46.4712 -56.1147
L46.46 -56.4909
L46.4354 -56.8639
L46.3954 -57.2329
L46.3374 -57.5967
L46.2584 -57.9541
L46.1551 -58.3036
L46.0237 -58.6434
L45.86 -58.9715
L45.6603 -59.2859
L45.4211 -59.5845
L45.1405 -59.8655
L44.8178 -60.1273
L44.4544 -60.3688
L44.0533 -60.5898
L43.6184 -60.79
L43.1545 -60.9699
L42.6662 -61.1301
L42.158 -61.2712
L41.6338 -61.3939
L41.0972 -61.4989
L40.5511 -61.5869
L39.9982 -61.6585
L39.4405 -61.7143
L38.88 -61.7549
L38.3182 -61.7809
L37.7565 -61.7926
L37.1961 -61.7907
L36.6379 -61.7757
L36.0829 -61.7481
L35.5318 -61.7083
L34.9854 -61.6568
L34.4441 -61.594
L33.9084 -61.5206
L33.3789 -61.4368
L32.8559 -61.3433
L32.3397 -61.2403
L31.8306 -61.1284
L31.3289 -61.0079
L30.8346 -60.8793
L30.348 -60.7429
L29.8693 -60.5993
L29.3984 -60.4487
L28.9355 -60.2915
L28.4806 -60.128
L28.0337 -59.9587
L27.5948 -59.7837
L27.1639 -59.6035
L26.7411 -59.4184
L26.3261 -59.2285
L25.9189 -59.0343
L25.5196 -58.8359
L25.128 -58.6335
L24.7439 -58.4275
L24.3674 -58.218
L23.9983 -58.0053
L23.6364 -57.7895
L23.2818 -57.5708
L22.9342 -57.3494
L22.5935 -57.1255
L22.2596 -56.8991
L21.9324 -56.6705
L21.6117 -56.4397
L21.2974 -56.2069
L20.9895 -55.9722
L20.6877 -55.7357
L20.3919 -55.4975
L20.102 -55.2576
L19.8179 -55.0162
L19.5394 -54.7733
L19.2665 -54.5289
L18.999 -54.2832
L18.7368 -54.0362
L18.4797 -53.7879
L18.2277 -53.5383
L17.9806 -53.2876
L17.7384 -53.0357
L17.5009 -52.7826
L17.2681 -52.5284
L17.0398 -52.273
L16.8159 -52.0165
L16.5964 -51.759
L16.3811 -51.5003
L16.17 -51.2405
L15.963 -50.9796
L15.7599 -50.7175
L15.5608 -50.4543
L15.3656 -50.19
L15.1741 -49.9244
L14.9864 -49.6577
L14.8023 -49.3898
L14.6218 -49.1205
L14.4448 -48.85
L14.2713 -48.5782
L14.1013 -48.3051
L13.9346 -48.0305
L13.7712 -47.7546
L13.6112 -47.4771
L13.4544 -47.1982
L13.3008 -46.9177
L13.1504 -46.6355
L13.0032 -46.3518
L12.8591 -46.0663
L12.7181 -45.779
L12.5803 -45.49
L12.4455 -45.1991
L12.3138 -44.9062
L12.1852 -44.6114
L12.0596 -44.3145
L11.9371 -44.0155
L11.8177 -43.7143
L11.7014 -43.4109
L11.5882 -43.1051
L11.4781 -42.797
L11.3711 -42.4865
L11.2674 -42.1734
L11.1667 -41.8577
L11.0694 -41.5393
L10.9753 -41.2183
L10.8845 -40.8944
L10.797 -40.5676
L10.713 -40.2378
L10.6325 -39.905
L10.5555 -39.5691
L10.4821 -39.2299
L10.4124 -38.8875
L10.3465 -38.5417
L10.2844 -38.1925
L10.2262 -37.8398
L10.1721 -37.4835
L10.1222 -37.1235
L10.0765 -36.7598
L10.0353 -36.3922
L9.99851 -36.0208
L9.96641 -35.6454
L9.9391 -35.2659
L9.91673 -34.8824
L9.89947 -34.4947
L9.88747 -34.1028
L9.88092 -33.7066
L9.88 -33.3062
L9.8849 -32.9013
L9.89581 -32.492
L9.91295 -32.0783
L9.93654 -31.6602
L9.96679 -31.2376
L10.0039 -30.8105
L10.0483 -30.3789
L10.1 -29.9428
L10.1593 -29.5023
L10.2266 -29.0574
L10.3021 -28.6082
L10.3861 -28.1547
L10.4788 -27.6969
L10.5807 -27.2351
L10.6919 -26.7694
L10.8128 -26.2997
L10.9436 -25.8265
L11.0848 -25.3497
L11.2365 -24.8697
L11.3992 -24.3867
L11.5732 -23.9009
L11.7586 -23.4127
L11.9559 -22.9224
L12.1653 -22.4303
L12.3871 -21.9369
L12.6216 -21.4426
L12.869 -20.9479
L13.1295 -20.4534
L13.4033 -19.9596
L13.6906 -19.4671
L13.9915 -18.9767
L14.3061 -18.4891
L14.6345 -18.0051
L14.9765 -17.5256
L15.3322 -17.0516
L15.7013 -16.5842
L16.0836 -16.1246
L16.4787 -15.6741
L16.8861 -15.2341
L17.3052 -14.8064
L17.735 -14.3927
L18.1745 -13.9954
L18.6225 -13.6167
L19.0771 -13.2596
L19.5365 -12.9271
L19.9983 -12.6229
L20.4598 -12.3508
L20.9178 -12.1148
L21.3692 -11.9187
L21.8109 -11.7654
L22.2402 -11.657
L22.6552 -11.5936
L23.0549 -11.574
L23.439 -11.5952
L23.8083 -11.6534
L24.1638 -11.7443
L24.5068 -11.8635
L24.8387 -12.007
L25.1606 -12.1713
L25.4737 -12.3532
L25.7789 -12.5501
L26.077 -12.7599
L26.3686 -12.9806
L26.6542 -13.2108
L26.9343 -13.4492
L27.2092 -13.6945
L27.4791 -13.9459
L27.7443 -14.2025
L28.005 -14.4636
L28.2613 -14.7285
L28.5134 -14.9967
L28.7614 -15.2676
L29.0054 -15.5408
L29.2455 -15.816
L29.4816 -16.0926
L29.714 -16.3704
L29.9427 -16.6491
L30.1678 -16.9284
L30.3892 -17.2081
L30.6071 -17.4879
L30.8216 -17.7676
L31.0326 -18.0471
L31.2403 -18.3261
L31.4446 -18.6046
L31.6458 -18.8823
L31.8437 -19.1592
L32.0385 -19.4352
L32.2303 -19.7102
L32.419 -19.984
L32.6048 -20.2566
L32.7878 -20.528
L32.9679 -20.798
L33.1452 -21.0667
L33.3199 -21.334
L33.4919 -21.5998
L33.6614 -21.8643
L33.8283 -22.1272
L33.9927 -22.3887
L34.1548 -22.6487
L34.3146 -22.9072
L34.472 -23.1642
L34.6273 -23.4197
L34.7804 -23.6738
L34.9314 -23.9265
L35.0804 -24.1777
L35.2274 -24.4276
L35.3724 -24.676
L35.5156 -24.9232
L35.657 -25.169
L35.7965 -25.4135
L35.9344 -25.6568
L36.0706 -25.8989
L36.2052 -26.1398
L36.3383 -26.3796
L36.4698 -26.6183
L36.5999 -26.8559
L36.7285 -27.0926
L36.8558 -27.3283
L36.9817 -27.5631
L37.1064 -27.797
L37.2298 -28.0301
L37.3521 -28.2625
L37.4731 -28.4941
L37.5931 -28.725
L37.712 -28.9554
L37.8298 -29.1852
L37.9466 -29.4144
L38.0625 -29.6432
L38.1775 -29.8716
L38.2916 -30.0997
L38.4048 -30.3274
L38.5172 -30.5549
L38.6288 -30.7822
L38.7397 -31.0093
L38.8498 -31.2364
L38.9593 -31.4634
L39.0681 -31.6904
L39.1763 -31.9176
L39.2838 -32.1448
z
" id="C0_1_45b2a20fd4"/>
    </defs>
    <g clip-path="url(#p1bffca34e9)">
     <use style="fill:#ffffff;stroke:#000000;stroke-width:2.0;" x="0.0" xlink:href="#C0_0_a811fe30f3" y="72.0"/>
    </g>
    <g clip-path="url(#p1bffca34e9)">
     <use style="fill:#ff0000;stroke:#000000;stroke-width:2.0;" x="0.0" xlink:href="#C0_1_45b2a20fd4" y="72.0"/>
    </g>
   </g>
  </g>
 </g>
 <defs>
  <clipPath id="p1bffca34e9">
   <rect height="72.0" width="72.0" x="0.0" y="0.0"/>
  </clipPath>
 </defs>
</svg>
