<?xml version="1.0" encoding="utf-8" standalone="no"?>
<!DOCTYPE svg PUBLIC "-//W3C//DTD SVG 1.1//EN"
  "http://www.w3.org/Graphics/SVG/1.1/DTD/svg11.dtd">
<!-- Created with matplotlib (http://matplotlib.org/) -->
<svg height="72pt" version="1.1" viewBox="0 0 72 72" width="72pt" xmlns="http://www.w3.org/2000/svg" xmlns:xlink="http://www.w3.org/1999/xlink">
 <defs>
  <style type="text/css">
*{stroke-linecap:butt;stroke-linejoin:round;}
  </style>
 </defs>
 <g id="figure_1">
  <g id="patch_1">
   <path d="
M0 72
L72 72
L72 0
L0 0
z
" style="fill:none;"/>
  </g>
  <g id="axes_1">
   <g id="PatchCollection_1">
    <defs>
     <path d="
M36 -7.5
C43.5583 -7.5 50.808 -10.5029 56.1525 -15.8475
C61.4971 -21.192 64.5 -28.4417 64.5 -36
C64.5 -43.5583 61.4971 -50.808 56.1525 -56.1525
C50.808 -61.4971 43.5583 -64.5 36 -64.5
C28.4417 -64.5 21.192 -61.4971 15.8475 -56.1525
C10.5029 -50.808 7.5 -43.5583 7.5 -36
C7.5 -28.4417 10.5029 -21.192 15.8475 -15.8475
C21.192 -10.5029 28.4417 -7.5 36 -7.5
z
" id="C0_0_a811fe30f3"/>
     <path d="
M33.4615 -7.61528
L32.9966 -7.70821
L32.538 -7.82072
L32.0868 -7.95213
L31.6438 -8.10164
L31.2095 -8.26836
L30.7847 -8.45135
L30.3697 -8.64963
L29.965 -8.86218
L29.5708 -9.088
L29.1875 -9.32608
L28.8151 -9.57546
L28.4537 -9.83518
L28.1034 -10.1043
L27.7641 -10.3821
L27.4359 -10.6676
L27.1185 -10.9601
L26.8119 -11.2588
L26.516 -11.5632
L26.2305 -11.8724
L25.9553 -12.186
L25.6901 -12.5034
L25.4348 -12.8241
L25.1892 -13.1476
L24.9529 -13.4734
L24.7258 -13.8012
L24.5077 -14.1305
L24.2983 -14.461
L24.0973 -14.7925
L23.9046 -15.1245
L23.7199 -15.4568
L23.5429 -15.7892
L23.3734 -16.1215
L23.2113 -16.4534
L23.0562 -16.7848
L22.908 -17.1155
L22.7664 -17.4453
L22.6312 -17.7742
L22.5022 -18.1019
L22.3793 -18.4284
L22.2622 -18.7535
L22.1507 -19.0773
L22.0447 -19.3996
L21.944 -19.7204
L21.8484 -20.0396
L21.7577 -20.3571
L21.6718 -20.673
L21.5906 -20.9872
L21.5138 -21.2997
L21.4414 -21.6105
L21.3732 -21.9195
L21.309 -22.2268
L21.2488 -22.5324
L21.1924 -22.8363
L21.1398 -23.1384
L21.0907 -23.4388
L21.0451 -23.7376
L21.0029 -24.0347
L20.964 -24.3302
L20.9284 -24.6241
L20.8958 -24.9165
L20.8663 -25.2073
L20.8397 -25.4966
L20.816 -25.7844
L20.7951 -26.0709
L20.777 -26.3559
L20.7615 -26.6397
L20.7487 -26.9221
L20.7384 -27.2033
L20.7307 -27.4833
L20.7254 -27.7622
L20.7225 -28.0399
L20.7219 -28.3166
L20.7237 -28.5923
L20.7278 -28.867
L20.7342 -29.1408
L20.7428 -29.4138
L20.7535 -29.686
L20.7665 -29.9574
L20.7816 -30.2281
L20.7988 -30.4981
L20.8181 -30.7676
L20.8396 -31.0365
L20.8631 -31.3049
L20.8886 -31.5728
L20.9163 -31.8404
L20.946 -32.1076
L21.0115 -32.3746
L21.0473 -32.6413
L21.0852 -32.9078
L21.1252 -33.1742
L21.1672 -33.4404
L21.2112 -33.7067
L21.2574 -33.973
L21.3057 -34.2393
L21.356 -34.5058
L21.4086 -34.7724
L21.4632 -35.0392
L21.5201 -35.3063
L21.5791 -35.5737
L21.6404 -35.8415
L21.7039 -36.1097
L21.7697 -36.3783
L21.8379 -36.6474
L21.9084 -36.917
L21.9813 -37.1873
L22.0566 -37.4582
L22.1344 -37.7297
L22.2148 -38.0019
L22.2977 -38.2749
L22.3832 -38.5487
L22.4714 -38.8233
L22.5624 -39.0988
L22.6561 -39.3751
L22.7527 -39.6524
L22.8522 -39.9307
L22.9546 -40.2099
L23.0601 -40.4901
L23.1687 -40.7714
L23.2805 -41.0537
L23.3956 -41.3371
L23.5139 -41.6215
L23.6357 -41.9071
L23.761 -42.1938
L23.8898 -42.4815
L24.0224 -42.7704
L24.1586 -43.0603
L24.2987 -43.3514
L24.4428 -43.6435
L24.5908 -43.9366
L24.743 -44.2308
L24.8994 -44.5259
L25.0601 -44.822
L25.2253 -45.119
L25.3949 -45.4168
L25.5692 -45.7154
L25.7482 -46.0147
L25.9321 -46.3145
L26.1208 -46.6149
L26.3147 -46.9157
L26.5136 -47.2167
L26.7178 -47.5179
L26.9274 -47.8191
L27.1424 -48.1201
L27.3629 -48.4207
L27.5891 -48.7208
L27.821 -49.0201
L28.0587 -49.3185
L28.3023 -49.6156
L28.5519 -49.9111
L28.8076 -50.2048
L29.0693 -50.4964
L29.3372 -50.7855
L29.6113 -51.0717
L29.8916 -51.3545
L30.1782 -51.6337
L30.4711 -51.9087
L30.7702 -52.1789
L31.0756 -52.4439
L31.3872 -52.703
L31.705 -52.9557
L32.0288 -53.2012
L32.3587 -53.4389
L32.6944 -53.6679
L33.0358 -53.8876
L33.3828 -54.0969
L33.735 -54.2952
L34.0924 -54.4814
L34.4546 -54.6546
L34.8213 -54.8139
L35.192 -54.9582
L35.5665 -55.0866
L35.9443 -55.1982
L36.3249 -55.2921
L36.7077 -55.3675
L37.0922 -55.4237
L37.4778 -55.4601
L37.8639 -55.4762
L38.2499 -55.4719
L38.6352 -55.447
L39.0191 -55.4016
L39.401 -55.3359
L39.7804 -55.2505
L40.1566 -55.1458
L40.5292 -55.0226
L40.8977 -54.8817
L41.2616 -54.7239
L41.6206 -54.5503
L41.9742 -54.3617
L42.3223 -54.1593
L42.6643 -53.9438
L43.0003 -53.7163
L43.3298 -53.4778
L43.6529 -53.2291
L43.9693 -52.9711
L44.2789 -52.7046
L44.5817 -52.4303
L44.8775 -52.149
L45.1664 -51.8615
L45.4483 -51.5682
L45.7233 -51.2699
L45.9913 -50.9671
L46.2524 -50.6602
L46.5066 -50.3499
L46.754 -50.0365
L46.9946 -49.7205
L47.2285 -49.4022
L47.4559 -49.082
L47.6768 -48.7603
L47.8912 -48.4374
L48.0994 -48.1135
L48.3013 -47.7888
L48.4972 -47.4638
L48.6871 -47.1385
L48.8711 -46.8131
L49.0495 -46.4879
L49.2221 -46.163
L49.3893 -45.8386
L49.5511 -45.5147
L49.7077 -45.1916
L49.8591 -44.8693
L50.0054 -44.5479
L50.1469 -44.2275
L50.2836 -43.9083
L50.4155 -43.5901
L50.5429 -43.2732
L50.6659 -42.9575
L50.7845 -42.6432
L50.8988 -42.3301
L51.009 -42.0185
L51.1151 -41.7081
L51.2172 -41.3992
L51.3155 -41.0917
L51.41 -40.7856
L51.5009 -40.4808
L51.5881 -40.1775
L51.6718 -39.8755
L51.752 -39.5749
L51.8289 -39.2757
L51.9025 -38.9778
L51.9729 -38.6811
L52.0401 -38.3858
L52.1042 -38.0917
L52.1652 -37.7988
L52.2233 -37.5071
L52.2785 -37.2166
L52.3308 -36.9272
L52.3802 -36.6388
L52.4269 -36.3515
L52.4709 -36.0652
L52.5122 -35.7798
L52.5508 -35.4954
L52.5868 -35.2118
L52.6202 -34.929
L52.6511 -34.647
L52.6795 -34.3657
L52.7053 -34.0851
L52.7287 -33.8052
L52.7496 -33.5258
L52.7681 -33.2469
L52.7841 -32.9686
L52.7978 -32.6907
L52.809 -32.4131
L52.8179 -32.1359
L52.8243 -31.859
L52.8284 -31.5824
L52.8301 -31.3059
L52.8294 -31.0296
L52.8263 -30.7533
L52.8207 -30.4771
L52.8128 -30.2009
L52.8025 -29.9246
L52.7897 -29.6482
L52.7744 -29.3717
L52.7567 -29.0949
L52.7365 -28.8179
L52.7137 -28.5406
L52.6884 -28.2629
L52.6604 -27.9848
L52.6299 -27.7063
L52.5967 -27.4273
L52.5607 -27.1477
L52.5221 -26.8675
L52.4806 -26.5867
L52.4363 -26.3053
L52.389 -26.0231
L52.3389 -25.7402
L52.2856 -25.4564
L52.2294 -25.1719
L52.1699 -24.8864
L52.1073 -24.6001
L52.0413 -24.3128
L51.972 -24.0245
L51.8992 -23.7352
L51.8228 -23.4449
L51.7428 -23.1535
L51.6591 -22.861
L51.5716 -22.5674
L51.4802 -22.2727
L51.3847 -21.9769
L51.285 -21.6799
L51.1811 -21.3818
L51.0728 -21.0825
L50.96 -20.782
L50.8425 -20.4804
L50.7203 -20.1776
L50.5932 -19.8737
L50.461 -19.5688
L50.3236 -19.2627
L50.1808 -18.9557
L50.0325 -18.6476
L49.8786 -18.3386
L49.7188 -18.0287
L49.553 -17.7181
L49.381 -17.4067
L49.2026 -17.0946
L49.0177 -16.7821
L48.826 -16.4691
L48.6274 -16.1559
L48.4218 -15.8425
L48.2088 -15.5291
L47.9883 -15.2159
L47.7602 -14.9031
L47.5242 -14.5908
L47.2801 -14.2793
L47.0277 -13.9689
L46.7669 -13.6598
L46.4975 -13.3523
L46.2193 -13.0468
L45.9322 -12.7434
L45.6359 -12.4427
L45.3304 -12.1449
L45.0155 -11.8506
L44.6911 -11.5601
L44.357 -11.2739
L44.0133 -10.9926
L43.6599 -10.7166
L43.2967 -10.4466
L42.9238 -10.1832
L42.5412 -9.92696
L42.149 -9.67865
L41.7474 -9.43897
L41.3365 -9.20867
L40.9166 -8.98856
L40.4879 -8.77946
L40.051 -8.58223
L39.6062 -8.39776
L39.1541 -8.22695
L38.6953 -8.07071
L38.2304 -7.92997
L37.7604 -7.80563
L37.2861 -7.69855
L36.8083 -7.60956
L36.3118 -7.53942
L35.8144 -7.50171
L35.3171 -7.5006
L34.8199 -7.50818
L34.3231 -7.52444
z
" id="C0_1_9da9dc7c49"/>
     <path d="
M35.672 -64.485
L36.1526 -64.4573
L36.6319 -64.4339
L37.11 -64.4152
L37.5871 -64.4013
L37.5693 -64.3925
L37.0724 -64.4568
L36.5752 -64.4798
z
" id="C0_2_1a1f9384a9"/>
    </defs>
    <g clip-path="url(#p1bffca34e9)">
     <use style="fill:#ff0000;stroke:#000000;stroke-width:2.0;" x="0.0" xlink:href="#C0_0_a811fe30f3" y="72.0"/>
    </g>
    <g clip-path="url(#p1bffca34e9)">
     <use style="fill:#ffffff;stroke:#000000;stroke-width:2.0;" x="0.0" xlink:href="#C0_1_9da9dc7c49" y="72.0"/>
    </g>
    <g clip-path="url(#p1bffca34e9)">
     <use style="fill:#ffffff;stroke:#000000;stroke-width:2.0;" x="0.0" xlink:href="#C0_2_1a1f9384a9" y="72.0"/>
    </g>
   </g>
  </g>
 </g>
 <defs>
  <clipPath id="p1bffca34e9">
   <rect height="72.0" width="72.0" x="0.0" y="0.0"/>
  </clipPath>
 </defs>
</svg>
