<?xml version="1.0" encoding="utf-8" standalone="no"?>
<!DOCTYPE svg PUBLIC "-//W3C//DTD SVG 1.1//EN"
  "http://www.w3.org/Graphics/SVG/1.1/DTD/svg11.dtd">
<!-- Created with matplotlib (http://matplotlib.org/) -->
<svg height="72pt" version="1.1" viewBox="0 0 72 72" width="72pt" xmlns="http://www.w3.org/2000/svg" xmlns:xlink="http://www.w3.org/1999/xlink">
 <defs>
  <style type="text/css">
*{stroke-linecap:butt;stroke-linejoin:round;}
  </style>
 </defs>
 <g id="figure_1">
  <g id="patch_1">
   <path d="
M0 72
L72 72
L72 0
L0 0
z
" style="fill:none;"/>
  </g>
  <g id="axes_1">
   <g id="PatchCollection_1">
    <defs>
     <path d="
M36 -7.5
C43.5583 -7.5 50.808 -10.5029 56.1525 -15.8475
C61.4971 -21.192 64.5 -28.4417 64.5 -36
C64.5 -43.5583 61.4971 -50.808 56.1525 -56.1525
C50.808 -61.4971 43.5583 -64.5 36 -64.5
C28.4417 -64.5 21.192 -61.4971 15.8475 -56.1525
C10.5029 -50.808 7.5 -43.5583 7.5 -36
C7.5 -28.4417 10.5029 -21.192 15.8475 -15.8475
C21.192 -10.5029 28.4417 -7.5 36 -7.5
z
" id="C0_0_a811fe30f3"/>
     <path d="
M30.7792 -63.9053
L30.5584 -63.6827
L30.3483 -63.4562
L30.1489 -63.226
L29.9599 -62.9925
L29.7813 -62.7558
L29.6128 -62.5163
L29.4542 -62.2741
L29.3054 -62.0294
L29.1662 -61.7825
L29.0362 -61.5335
L28.9154 -61.2827
L28.8034 -61.0302
L28.7001 -60.7762
L28.6052 -60.5209
L28.5184 -60.2644
L28.4396 -60.0068
L28.3684 -59.7484
L28.3047 -59.4891
L28.2482 -59.2292
L28.1986 -58.9687
L28.1557 -58.7078
L28.1194 -58.4466
L28.0894 -58.1851
L28.0654 -57.9234
L28.0472 -57.6616
L28.0347 -57.3999
L28.0276 -57.1382
L28.0257 -56.8767
L28.0289 -56.6153
L28.0369 -56.3542
L28.0496 -56.0934
L28.0668 -55.8329
L28.0883 -55.5728
L28.1139 -55.3132
L28.1436 -55.054
L28.1771 -54.7954
L28.2143 -54.5372
L28.255 -54.2797
L28.2992 -54.0227
L28.3467 -53.7663
L28.3974 -53.5105
L28.4511 -53.2554
L28.5078 -53.001
L28.5673 -52.7472
L28.6296 -52.4941
L28.6945 -52.2417
L28.7619 -51.99
L28.8318 -51.739
L28.9041 -51.4887
L28.9787 -51.2391
L29.0554 -50.9902
L29.1343 -50.742
L29.2153 -50.4946
L29.2983 -50.2478
L29.3833 -50.0017
L29.4701 -49.7563
L29.5587 -49.5115
L29.6492 -49.2675
L29.7414 -49.0241
L29.8352 -48.7813
L29.9307 -48.5392
L30.0279 -48.2977
L30.1265 -48.0568
L30.2268 -47.8166
L30.3285 -47.5769
L30.4317 -47.3378
L30.5363 -47.0992
L30.6423 -46.8612
L30.7498 -46.6238
L30.8586 -46.3868
L30.9688 -46.1504
L31.0803 -45.9144
L31.1931 -45.6789
L31.3072 -45.4438
L31.4226 -45.2092
L31.5394 -44.975
L31.6573 -44.7413
L31.7766 -44.5079
L31.8971 -44.2748
L32.0188 -44.0421
L32.1418 -43.8098
L32.2661 -43.5778
L32.5183 -43.3461
L32.6463 -43.1147
L32.7756 -42.8836
L32.9061 -42.6527
L33.0379 -42.4221
L33.1709 -42.1917
L33.3052 -41.9616
L33.4408 -41.7317
L33.5777 -41.5019
L33.7159 -41.2724
L33.8554 -41.0431
L33.9962 -40.8139
L34.1383 -40.5849
L34.2818 -40.356
L34.4267 -40.1274
L34.573 -39.8988
L34.7206 -39.6704
L34.8696 -39.4422
L35.0201 -39.214
L35.172 -38.9861
L35.3254 -38.7582
L35.4802 -38.5305
L35.6366 -38.303
L35.7944 -38.0756
L35.9538 -37.8484
L36.1148 -37.6213
L36.2773 -37.3944
L36.4415 -37.1678
L36.6073 -36.9413
L36.7747 -36.7151
L36.9438 -36.4891
L37.1145 -36.2634
L37.287 -36.038
L37.4613 -35.8129
L37.6373 -35.5882
L37.815 -35.3639
L37.9946 -35.14
L38.1761 -34.9166
L38.3594 -34.6937
L38.5445 -34.4714
L38.7316 -34.2496
L38.9206 -34.0286
L39.1116 -33.8083
L39.3046 -33.5887
L39.4996 -33.37
L39.6966 -33.1523
L39.8956 -32.9355
L40.0968 -32.7198
L40.3 -32.5053
L40.5054 -32.292
L40.7129 -32.0801
L40.9226 -31.8696
L41.1344 -31.6607
L41.3485 -31.4535
L41.5648 -31.248
L41.7834 -31.0444
L42.0042 -30.8428
L42.2273 -30.6434
L42.4527 -30.4463
L42.6804 -30.2516
L42.9104 -30.0595
L43.1428 -29.8701
L43.3775 -29.6836
L43.6145 -29.5001
L43.8539 -29.3199
L44.0956 -29.1431
L44.3397 -28.9698
L44.5861 -28.8003
L44.8349 -28.6347
L45.086 -28.4733
L45.3394 -28.3162
L45.5952 -28.1636
L45.8532 -28.0157
L46.1134 -27.8727
L46.3759 -27.7348
L46.6406 -27.6023
L46.9074 -27.4753
L47.1763 -27.354
L47.4473 -27.2386
L47.7202 -27.1294
L47.9951 -27.0264
L48.2719 -26.93
L48.5504 -26.8403
L48.8307 -26.7574
L49.1125 -26.6816
L49.3959 -26.6129
L49.6807 -26.5517
L49.9669 -26.498
L50.2542 -26.4519
L50.5426 -26.4136
L50.8319 -26.3832
L51.122 -26.3609
L51.4128 -26.3466
L51.7041 -26.3406
L51.9958 -26.3428
L52.2877 -26.3533
L52.5797 -26.3722
L52.8715 -26.3996
L53.163 -26.4353
L53.454 -26.4795
L53.7445 -26.5321
L54.0341 -26.5931
L54.3227 -26.6624
L54.6101 -26.7402
L54.8962 -26.8262
L55.1808 -26.9204
L55.4636 -27.0227
L55.7446 -27.1332
L56.0235 -27.2516
L56.3002 -27.3779
L56.5745 -27.5119
L56.8463 -27.6536
L57.1153 -27.8028
L57.3814 -27.9594
L57.6445 -28.1233
L57.9044 -28.2944
L58.161 -28.4724
L58.4141 -28.6573
L58.6636 -28.8489
L58.9093 -29.0471
L59.1513 -29.2517
L59.3892 -29.4626
L59.623 -29.6795
L59.8527 -29.9025
L60.078 -30.1313
L60.299 -30.3657
L60.5154 -30.6056
L60.7273 -30.851
L60.9345 -31.1015
L61.137 -31.3572
L61.3346 -31.6177
L61.5273 -31.8831
L61.7151 -32.1531
L61.8978 -32.4277
L62.0755 -32.7066
L62.248 -32.9898
L62.4153 -33.2772
L62.5773 -33.5685
L62.7341 -33.8638
L62.8856 -34.1628
L63.0316 -34.4654
L63.1722 -34.7716
L63.3074 -35.0812
L63.4371 -35.3942
L63.5613 -35.7103
L63.6799 -36.0296
L63.7929 -36.3519
L63.9002 -36.677
L64.0019 -37.0051
L64.098 -37.3358
L64.1883 -37.6692
L64.2729 -38.0051
L64.3517 -38.3435
L64.3219 -38.6843
L64.2621 -39.1811
L64.1936 -39.6749
L64.1166 -40.1676
L64.031 -40.659
L63.9369 -41.149
L63.8342 -41.6375
L63.7231 -42.1242
L63.6035 -42.609
L63.4756 -43.0918
L63.3392 -43.5725
L63.1946 -44.0509
L63.0416 -44.5268
L62.8804 -45.0001
L62.711 -45.4707
L62.5335 -45.9383
L62.3479 -46.403
L62.1543 -46.8645
L61.9527 -47.3227
L61.7432 -47.7774
L61.5259 -48.2285
L61.3008 -48.676
L61.0679 -49.1195
L60.8275 -49.5591
L60.5795 -49.9945
L60.324 -50.4257
L60.061 -50.8524
L59.7908 -51.2747
L59.5133 -51.6923
L59.2286 -52.1051
L58.9369 -52.513
L58.6382 -52.9159
L58.3326 -53.3136
L58.0202 -53.7061
L57.7011 -54.0931
L57.3753 -54.4747
L57.0431 -54.8506
L56.7044 -55.2208
L56.3595 -55.5851
L56.0083 -55.9435
L55.651 -56.2958
L55.2878 -56.6419
L54.9187 -56.9817
L54.5438 -57.3151
L54.1633 -57.642
L53.7772 -57.9624
L53.3857 -58.276
L52.989 -58.5829
L52.587 -58.8829
L52.18 -59.1759
L51.7681 -59.4618
L51.3513 -59.7406
L50.9299 -60.0122
L50.504 -60.2765
L50.0736 -60.5333
L49.6389 -60.7827
L49.2001 -61.0246
L48.7573 -61.2588
L48.3106 -61.4853
L47.8601 -61.7041
L47.406 -61.915
L46.9484 -62.1181
L46.4875 -62.3131
L46.0235 -62.5002
L45.5563 -62.6792
L45.0863 -62.8501
L44.6134 -63.0128
L44.138 -63.1672
L43.6601 -63.3134
L43.1798 -63.4513
L42.6974 -63.5808
L42.2129 -63.7019
L41.7265 -63.8146
L41.2384 -63.9188
L40.7487 -64.0144
L40.2575 -64.1016
L39.765 -64.1802
L39.2714 -64.2502
L38.7768 -64.3116
L38.2814 -64.3644
L37.7852 -64.4085
L37.2885 -64.444
L36.7915 -64.4709
L36.2941 -64.489
L35.7967 -64.4985
L35.2994 -64.4993
L34.8022 -64.4914
L34.3055 -64.4748
L33.8092 -64.4496
L33.3136 -64.4157
L32.8189 -64.3731
L32.3251 -64.3219
L31.8324 -64.2621
L31.341 -64.1936
z
" id="C0_1_23aaf92a70"/>
     <path d="
M7.74554 -32.9907
L7.8884 -32.6722
L8.03403 -32.3562
L8.1824 -32.0427
L8.33347 -31.7316
L8.48721 -31.4229
L8.64358 -31.1166
L8.80255 -30.8127
L8.9641 -30.5111
L9.1282 -30.2119
L9.29482 -29.915
L9.46395 -29.6205
L9.63555 -29.3282
L9.8096 -29.0381
L9.9861 -28.7503
L10.165 -28.4647
L10.3463 -28.1813
L10.53 -27.9001
L10.7161 -27.621
L10.9046 -27.344
L11.0954 -27.0692
L11.2885 -26.7964
L11.484 -26.5256
L11.6818 -26.2569
L11.882 -25.9901
L12.0845 -25.7254
L12.2893 -25.4626
L12.4964 -25.2017
L12.7058 -24.9428
L12.9176 -24.6858
L13.1317 -24.4306
L13.3481 -24.1773
L13.5668 -23.9258
L13.7879 -23.6761
L14.0113 -23.4283
L14.237 -23.1822
L14.4651 -22.9379
L14.6956 -22.6954
L14.9284 -22.4546
L15.1636 -22.2155
L15.4012 -21.9781
L15.6411 -21.7425
L15.8835 -21.5085
L16.1283 -21.2762
L16.3755 -21.0456
L16.6251 -20.8167
L16.8771 -20.5894
L17.1317 -20.3638
L17.3886 -20.1398
L17.648 -19.9174
L17.9099 -19.6967
L18.1743 -19.4777
L18.4411 -19.2602
L18.7105 -19.0445
L18.9823 -18.8303
L19.2566 -18.6178
L19.5335 -18.4069
L19.8128 -18.1977
L20.0947 -17.9901
L20.379 -17.7841
L20.6658 -17.5799
L20.9552 -17.3772
L21.247 -17.1763
L21.5413 -16.977
L21.838 -16.7794
L22.1373 -16.5835
L22.4389 -16.3893
L22.743 -16.1968
L23.0494 -16.006
L23.3582 -15.8169
L23.6694 -15.6295
L23.9829 -15.4439
L24.2986 -15.2601
L24.6166 -15.0779
L24.9368 -14.8976
L25.2591 -14.719
L25.5835 -14.5422
L25.9099 -14.3671
L26.2383 -14.1938
L26.5686 -14.0224
L26.9008 -13.8526
L27.2347 -13.6847
L27.5704 -13.5185
L27.9076 -13.3541
L28.2463 -13.1915
L28.5865 -13.0306
L28.928 -12.8715
L29.2707 -12.7141
L29.6145 -12.5584
L29.9593 -12.4044
L30.305 -12.252
L30.6514 -12.1013
L30.9985 -11.9522
L31.346 -11.8047
L31.6939 -11.6588
L32.042 -11.5143
L32.3902 -11.3713
L32.7383 -11.2298
L33.0862 -11.0896
L33.4336 -10.9507
L33.7806 -10.8132
L34.1268 -10.6768
L34.4722 -10.5417
L34.8165 -10.4076
L35.1597 -10.2746
L35.5016 -10.1426
L35.8419 -10.0116
L36.1806 -9.88142
L36.5175 -9.75208
L36.8524 -9.62351
L37.1852 -9.49564
L37.5158 -9.36844
L37.844 -9.24184
L38.1696 -9.11579
L38.4926 -8.99026
L38.8128 -8.8652
L39.1301 -8.74056
L39.4444 -8.61632
L39.7555 -8.49245
L40.0635 -8.36892
L40.3681 -8.24571
L40.6693 -8.1228
L40.4876 -8.00019
L39.9957 -7.85553
L39.5027 -7.78149
L39.0085 -7.71606
L38.5134 -7.65923
L38.0176 -7.61105
L37.5211 -7.5715
L37.0242 -7.54062
L36.527 -7.51841
L36.0296 -7.50487
L35.5322 -7.50002
L35.0349 -7.50384
L34.538 -7.51634
L34.0415 -7.53752
L33.5455 -7.56738
L33.0504 -7.60589
L32.5561 -7.65305
L32.0629 -7.70884
L31.5709 -7.77326
L31.0802 -7.84627
L30.591 -7.92785
L30.1035 -8.01799
L29.6177 -8.11666
L29.1339 -8.22381
L28.6522 -8.33943
L28.1728 -8.46347
L27.6957 -8.5959
L27.2212 -8.73668
L26.7493 -8.88576
L26.2802 -9.0431
L25.8141 -9.20865
L25.3512 -9.38237
L24.8914 -9.56419
L24.435 -9.75406
L23.9822 -9.95193
L23.533 -10.1577
L23.0876 -10.3714
L22.6462 -10.5929
L22.2088 -10.8221
L21.7756 -11.059
L21.3468 -11.3035
L20.9224 -11.5555
L20.5026 -11.815
L20.0875 -12.0818
L19.6773 -12.3559
L19.2721 -12.6372
L18.8719 -12.9256
L18.477 -13.2211
L18.0874 -13.5235
L17.7032 -13.8327
L17.3247 -14.1487
L16.9518 -14.4714
L16.5847 -14.8006
L16.2235 -15.1362
L15.8684 -15.4783
L15.5194 -15.8265
L15.1766 -16.181
L14.8402 -16.5414
L14.5102 -16.9078
L14.1868 -17.28
L13.87 -17.6579
L13.5599 -18.0414
L13.2567 -18.4303
L12.9604 -18.8246
L12.6712 -19.2242
L12.389 -19.6288
L12.114 -20.0385
L11.8463 -20.453
L11.586 -20.8722
L11.3331 -21.2961
L11.0877 -21.7244
L10.8499 -22.157
L10.6198 -22.5939
L10.3974 -23.0349
L10.1827 -23.4798
L9.97601 -23.9286
L9.77719 -24.381
L9.58636 -24.8369
L9.40358 -25.2963
L9.2289 -25.7589
L9.06237 -26.2246
L8.90405 -26.6933
L8.75398 -27.1649
L8.61221 -27.6391
L8.47879 -28.1159
L8.35375 -28.5951
L8.23713 -29.0765
L8.12896 -29.5601
L8.02929 -30.0456
L7.93813 -30.5329
L7.85553 -31.0219
L7.78149 -31.5124
z
" id="C0_2_d789651cc1"/>
    </defs>
    <g clip-path="url(#p1bffca34e9)">
     <use style="fill:#ff0000;stroke:#000000;stroke-width:2.0;" x="0.0" xlink:href="#C0_0_a811fe30f3" y="72.0"/>
    </g>
    <g clip-path="url(#p1bffca34e9)">
     <use style="fill:#ffffff;stroke:#000000;stroke-width:2.0;" x="0.0" xlink:href="#C0_1_23aaf92a70" y="72.0"/>
    </g>
    <g clip-path="url(#p1bffca34e9)">
     <use style="fill:#ffffff;stroke:#000000;stroke-width:2.0;" x="0.0" xlink:href="#C0_2_d789651cc1" y="72.0"/>
    </g>
   </g>
  </g>
 </g>
 <defs>
  <clipPath id="p1bffca34e9">
   <rect height="72.0" width="72.0" x="0.0" y="0.0"/>
  </clipPath>
 </defs>
</svg>
