<?xml version="1.0" encoding="utf-8" standalone="no"?>
<!DOCTYPE svg PUBLIC "-//W3C//DTD SVG 1.1//EN"
  "http://www.w3.org/Graphics/SVG/1.1/DTD/svg11.dtd">
<!-- Created with matplotlib (http://matplotlib.org/) -->
<svg height="72pt" version="1.1" viewBox="0 0 72 72" width="72pt" xmlns="http://www.w3.org/2000/svg" xmlns:xlink="http://www.w3.org/1999/xlink">
 <defs>
  <style type="text/css">
*{stroke-linecap:butt;stroke-linejoin:round;}
  </style>
 </defs>
 <g id="figure_1">
  <g id="patch_1">
   <path d="
M0 72
L72 72
L72 0
L0 0
z
" style="fill:none;"/>
  </g>
  <g id="axes_1">
   <g id="PatchCollection_1">
    <defs>
     <path d="
M36 -7.5
C43.5583 -7.5 50.808 -10.5029 56.1525 -15.8475
C61.4971 -21.192 64.5 -28.4417 64.5 -36
C64.5 -43.5583 61.4971 -50.808 56.1525 -56.1525
C50.808 -61.4971 43.5583 -64.5 36 -64.5
C28.4417 -64.5 21.192 -61.4971 15.8475 -56.1525
C10.5029 -50.808 7.5 -43.5583 7.5 -36
C7.5 -28.4417 10.5029 -21.192 15.8475 -15.8475
C21.192 -10.5029 28.4417 -7.5 36 -7.5
z
" id="C0_0_a811fe30f3"/>
     <path d="
M10.872 -49.0181
L11.065 -48.8675
L11.253 -48.7021
L11.4365 -48.523
L11.6159 -48.3312
L11.7916 -48.1275
L11.9639 -47.9132
L12.1334 -47.6889
L12.3005 -47.4558
L12.4654 -47.2146
L12.6285 -46.9662
L12.7902 -46.7114
L12.9507 -46.4509
L13.1104 -46.1855
L13.2694 -45.9158
L13.428 -45.6424
L13.5864 -45.3659
L13.7446 -45.0868
L13.903 -44.8056
L14.0615 -44.5228
L14.2203 -44.2387
L14.3795 -43.9538
L14.5392 -43.6684
L14.6993 -43.3829
L14.86 -43.0974
L15.0213 -42.8122
L15.1831 -42.5277
L15.3455 -42.244
L15.5086 -41.9613
L15.6723 -41.6797
L15.8365 -41.3995
L16.0014 -41.1207
L16.1669 -40.8435
L16.3329 -40.568
L16.4995 -40.2943
L16.6666 -40.0224
L16.8343 -39.7525
L17.0024 -39.4845
L17.171 -39.2185
L17.3401 -38.9546
L17.5096 -38.6928
L17.6796 -38.4331
L17.8499 -38.1756
L18.0206 -37.9201
L18.1917 -37.6668
L18.3631 -37.4157
L18.5349 -37.1667
L18.707 -36.9198
L18.8795 -36.675
L19.0522 -36.4323
L19.2253 -36.1916
L19.3986 -35.9531
L19.5723 -35.7165
L19.7462 -35.4819
L19.9204 -35.2493
L20.0949 -35.0186
L20.2698 -34.7898
L20.4449 -34.5629
L20.6203 -34.3378
L20.796 -34.1144
L20.9721 -33.8928
L21.1485 -33.673
L21.3252 -33.4548
L21.5023 -33.2382
L21.6797 -33.0232
L21.8575 -32.8097
L22.0358 -32.5978
L22.2144 -32.3873
L22.3935 -32.1782
L22.573 -31.9706
L22.753 -31.7642
L22.9335 -31.5592
L23.1144 -31.3554
L23.296 -31.1528
L23.4781 -30.9515
L23.6608 -30.7512
L23.8441 -30.552
L24.028 -30.3539
L24.2126 -30.1569
L24.3979 -29.9608
L24.584 -29.7656
L24.7708 -29.5714
L24.9584 -29.378
L25.336 -29.1854
L25.5262 -28.9937
L25.7173 -28.8027
L25.9093 -28.6124
L26.1023 -28.4228
L26.2964 -28.2338
L26.4915 -28.0455
L26.6877 -27.8578
L26.8851 -27.6706
L27.0836 -27.484
L27.2833 -27.2978
L27.4844 -27.1122
L27.6867 -26.9269
L27.8903 -26.7421
L28.0953 -26.5576
L28.3017 -26.3735
L28.5096 -26.1897
L28.719 -26.0062
L28.9299 -25.823
L29.1424 -25.6401
L29.3566 -25.4574
L29.5724 -25.2749
L29.7899 -25.0926
L30.0091 -24.9104
L30.2302 -24.7284
L30.4531 -24.5466
L30.6778 -24.3648
L30.9044 -24.1832
L31.133 -24.0016
L31.3636 -23.8201
L31.5962 -23.6387
L31.8309 -23.4573
L32.0677 -23.276
L32.3066 -23.0947
L32.5476 -22.9135
L32.7908 -22.7322
L33.0363 -22.551
L33.2839 -22.3698
L33.5338 -22.1886
L33.786 -22.0075
L34.0405 -21.8263
L34.2973 -21.6452
L34.5563 -21.4641
L34.8177 -21.283
L35.0813 -21.102
L35.3472 -20.921
L35.6154 -20.74
L35.8859 -20.5592
L36.1585 -20.3784
L36.4333 -20.1977
L36.7102 -20.017
L36.9891 -19.8365
L37.2701 -19.6561
L37.5529 -19.4759
L37.8375 -19.2958
L38.1238 -19.1158
L38.4117 -18.936
L38.701 -18.7564
L38.9915 -18.5769
L39.2832 -18.3976
L39.5757 -18.2184
L39.8689 -18.0394
L40.1625 -17.8605
L40.4562 -17.6817
L40.7498 -17.503
L41.0429 -17.3243
L41.3353 -17.1455
L41.6264 -16.9667
L41.9159 -16.7877
L42.2033 -16.6084
L42.4881 -16.4287
L42.7699 -16.2485
L43.048 -16.0676
L43.3219 -15.8859
L43.5908 -15.7032
L43.8542 -15.5193
L44.1113 -15.334
L44.3613 -15.1469
L44.6035 -14.9578
L44.837 -14.7665
L45.061 -14.5727
L45.2747 -14.376
L45.4771 -14.1761
L45.6675 -13.9727
L45.8449 -13.7655
L46.0086 -13.5542
L46.1576 -13.3385
L46.2914 -13.1182
L46.4092 -12.8931
L46.5103 -12.663
L46.5942 -12.4278
L46.6605 -12.1875
L46.7088 -11.942
L46.7388 -11.6916
L46.7503 -11.4363
L46.7433 -11.1764
L46.7177 -10.9121
L46.6737 -10.6439
L46.6113 -10.3721
L46.5308 -10.0972
L46.4325 -9.81961
L45.9893 -9.53992
L45.522 -9.30799
L45.0517 -9.13772
L44.5787 -8.97563
L44.1031 -8.82177
L43.625 -8.67619
L43.1445 -8.53894
L42.6619 -8.41004
L42.1773 -8.28956
L41.6908 -8.17751
L41.2025 -8.07394
L40.7127 -7.97887
L40.2215 -7.89234
L39.7289 -7.81438
L39.2352 -7.745
L38.7405 -7.68422
L38.245 -7.63207
L37.7489 -7.58856
L37.2521 -7.55371
L36.755 -7.52752
L36.2577 -7.51
L35.7603 -7.50117
L35.2629 -7.50101
L34.7658 -7.50953
L34.2691 -7.52674
L33.7729 -7.55261
L33.2773 -7.58715
L32.7826 -7.63035
L32.2889 -7.68219
L31.7963 -7.74265
L31.305 -7.81172
L30.8151 -7.88938
L30.3268 -7.9756
L29.8402 -8.07036
L29.3555 -8.17362
L28.8729 -8.28536
L28.3924 -8.40554
L27.9142 -8.53413
L27.4385 -8.67109
L26.9653 -8.81637
L26.495 -8.96993
L26.0275 -9.13172
L25.5631 -9.3017
L25.1018 -9.47981
L24.6439 -9.666
L24.1894 -9.86021
L23.7385 -10.0624
L23.2914 -10.2725
L22.8481 -10.4904
L22.4089 -10.716
L21.9738 -10.9494
L21.5429 -11.1904
L21.1165 -11.439
L20.6945 -11.6951
L20.2773 -11.9585
L19.8648 -12.2293
L19.4573 -12.5073
L19.0548 -12.7925
L18.6574 -13.0847
L18.2654 -13.384
L17.8787 -13.6901
L17.4976 -14.003
L17.1221 -14.3226
L16.7523 -14.6488
L16.3884 -14.9815
L16.0305 -15.3206
L15.6787 -15.6661
L15.333 -16.0177
L14.9937 -16.3754
L14.6607 -16.7391
L14.3343 -17.1086
L14.0144 -17.4839
L13.7013 -17.8648
L13.3949 -18.2513
L13.0954 -18.6432
L12.8029 -19.0403
L12.5175 -19.4427
L12.2392 -19.85
L11.9682 -20.2623
L11.7045 -20.6794
L11.4481 -21.1011
L11.1993 -21.5274
L10.958 -21.9581
L10.7243 -22.3931
L10.4984 -22.8322
L10.2802 -23.2753
L10.0698 -23.7223
L9.86737 -24.1731
L9.67287 -24.6274
L9.48639 -25.0852
L9.30799 -25.5464
L9.13772 -26.0107
L8.97563 -26.478
L8.82177 -26.9483
L8.67619 -27.4213
L8.53894 -27.8969
L8.41004 -28.375
L8.28956 -28.8555
L8.17751 -29.3381
L8.07394 -29.8227
L7.97887 -30.3092
L7.89234 -30.7975
L7.81438 -31.2873
L7.745 -31.7785
L7.68422 -32.2711
L7.63207 -32.7648
L7.58856 -33.2595
L7.55371 -33.755
L7.52752 -34.2511
L7.51 -34.7479
L7.50117 -35.245
L7.50101 -35.7423
L7.50953 -36.2397
L7.52674 -36.7371
L7.55261 -37.2342
L7.58715 -37.7309
L7.63035 -38.2271
L7.68219 -38.7227
L7.74265 -39.2174
L7.81172 -39.7111
L7.88938 -40.2037
L7.9756 -40.695
L8.07036 -41.1849
L8.17362 -41.6732
L8.28536 -42.1598
L8.40554 -42.6445
L8.53413 -43.1271
L8.67109 -43.6076
L8.81637 -44.0858
L8.96993 -44.5615
L9.13172 -45.0347
L9.3017 -45.505
L9.47981 -45.9725
L9.666 -46.4369
L9.86021 -46.8982
L10.0624 -47.3561
L10.2725 -47.8106
z
" id="C0_1_eb3143ccb3"/>
     <path d="
M25.8005 -62.4374
L26.0851 -62.3098
L26.3781 -62.1838
L26.6787 -62.059
L26.986 -61.9349
L27.2991 -61.8111
L27.6173 -61.6873
L27.9398 -61.5632
L28.2659 -61.4383
L28.5949 -61.3127
L28.9263 -61.1859
L29.2594 -61.0578
L29.5938 -60.9282
L29.9289 -60.7971
L30.2644 -60.6643
L30.5997 -60.5297
L30.9346 -60.3932
L31.2687 -60.2549
L31.6017 -60.1148
L31.9334 -59.9726
L32.2634 -59.8286
L32.5915 -59.6827
L32.9176 -59.5349
L33.2415 -59.3852
L33.563 -59.2337
L33.882 -59.0804
L34.1983 -58.9253
L34.512 -58.7686
L34.8228 -58.6102
L35.1307 -58.4502
L35.4356 -58.2887
L35.7376 -58.1257
L36.0365 -57.9612
L36.3323 -57.7953
L36.6251 -57.6281
L36.9147 -57.4596
L37.2013 -57.2898
L37.4848 -57.1188
L37.7651 -56.9467
L38.0424 -56.7734
L38.3167 -56.5991
L38.5879 -56.4237
L38.8561 -56.2473
L39.1214 -56.0699
L39.3837 -55.8916
L39.6431 -55.7123
L39.8997 -55.5321
L40.1534 -55.3511
L40.4044 -55.1692
L40.6527 -54.9864
L40.8982 -54.8028
L41.1412 -54.6185
L41.3815 -54.4333
L41.6193 -54.2473
L41.8546 -54.0605
L42.0875 -53.8729
L42.318 -53.6845
L42.5462 -53.4954
L42.7721 -53.3054
L42.9957 -53.1147
L43.2172 -52.9231
L43.4365 -52.7307
L43.6538 -52.5376
L43.869 -52.3436
L44.0822 -52.1487
L44.2935 -51.953
L44.5028 -51.7564
L44.7104 -51.5589
L44.9161 -51.3605
L45.12 -51.1611
L45.3223 -50.9608
L45.5229 -50.7595
L45.7218 -50.5572
L45.9192 -50.3539
L46.115 -50.1495
L46.3093 -49.944
L46.5021 -49.7374
L46.6935 -49.5297
L46.8835 -49.3207
L47.0722 -49.1106
L47.2595 -48.8992
L47.4455 -48.6865
L47.6303 -48.4724
L47.8138 -48.257
L47.9962 -48.0403
L48.1773 -47.822
L48.3573 -47.6023
L48.5362 -47.3811
L48.7141 -47.1583
L48.8908 -46.9339
L49.0665 -46.7078
L49.2412 -46.4801
L49.4148 -46.2506
L49.5875 -46.0193
L49.7592 -45.7862
L49.93 -45.5512
L50.0998 -45.3142
L50.2687 -45.0753
L50.4367 -44.8344
L50.6038 -44.5914
L50.77 -44.3463
L50.9353 -44.099
L51.0997 -43.8494
L51.2633 -43.5976
L51.426 -43.3435
L51.5878 -43.087
L51.7487 -42.8281
L51.9087 -42.5668
L52.0679 -42.3029
L52.2261 -42.0365
L52.3835 -41.7675
L52.5399 -41.4958
L52.6955 -41.2214
L52.85 -40.9444
L53.0037 -40.6645
L53.1564 -40.3818
L53.308 -40.0964
L53.4587 -39.808
L53.6083 -39.5168
L53.7569 -39.2226
L53.9044 -38.9255
L54.0508 -38.6254
L54.196 -38.3224
L54.3401 -38.0164
L54.483 -37.7075
L54.6246 -37.3956
L54.765 -37.0807
L54.9041 -36.7629
L55.0419 -36.4423
L55.1783 -36.1188
L55.3133 -35.7924
L55.4469 -35.4634
L55.5791 -35.1317
L55.7098 -34.7974
L55.839 -34.4606
L55.9668 -34.1214
L56.093 -33.78
L56.2177 -33.4366
L56.3409 -33.0912
L56.4627 -32.744
L56.5829 -32.3954
L56.7018 -32.0454
L56.8192 -31.6944
L56.9354 -31.3426
L57.0503 -30.9903
L57.164 -30.6379
L57.2768 -30.2858
L57.3887 -29.9342
L57.4998 -29.5837
L57.6105 -29.2348
L57.7208 -28.8878
L57.8311 -28.5433
L57.9416 -28.2019
L58.0527 -27.8642
L58.1647 -27.5309
L58.2779 -27.2025
L58.3927 -26.8798
L58.5097 -26.5635
L58.6292 -26.2543
L58.7518 -25.9531
L58.8779 -25.6606
L59.0081 -25.3776
L59.1428 -25.1049
L59.2825 -24.8433
L59.4278 -24.5935
L59.5791 -24.3563
L59.7368 -24.1324
L59.9013 -23.9223
L60.0728 -23.7268
L60.2517 -23.5463
L60.438 -23.3812
L60.6319 -23.232
L60.8334 -23.099
L61.0423 -22.9823
L61.5178 -22.8821
L61.7355 -23.3079
L61.9452 -23.7552
L62.1471 -24.2062
L62.341 -24.6608
L62.5269 -25.1188
L62.7047 -25.5802
L62.8744 -26.0448
L63.0359 -26.5123
L63.1892 -26.9828
L63.3341 -27.456
L63.4708 -27.9318
L63.5991 -28.4101
L63.7189 -28.8907
L63.8304 -29.3735
L63.9333 -29.8582
L64.0277 -30.3449
L64.1136 -30.8332
L64.191 -31.3232
L64.2597 -31.8145
L64.3199 -32.3072
L64.3714 -32.8009
L64.4143 -33.2957
L64.4485 -33.7912
L64.4741 -34.2875
L64.4909 -34.7842
L64.4991 -35.2814
L64.4987 -35.7787
L64.4895 -36.2761
L64.4717 -36.7734
L64.4452 -37.2705
L64.41 -37.7672
L64.3662 -38.2634
L64.3137 -38.7589
L64.2526 -39.2535
L64.1829 -39.7472
L64.1046 -40.2397
L64.0178 -40.7309
L63.9224 -41.2207
L63.8185 -41.7088
L63.7061 -42.1953
L63.5853 -42.6798
L63.4561 -43.1624
L63.3186 -43.6427
L63.1727 -44.1207
L63.0185 -44.5962
L62.8561 -45.0692
L62.6855 -45.5393
L62.5068 -46.0066
L62.3201 -46.4708
L62.1253 -46.9318
L61.9225 -47.3895
L61.7119 -47.8437
L61.4934 -48.2943
L61.2671 -48.7412
L61.0332 -49.1841
L60.7916 -49.6231
L60.5425 -50.0579
L60.2859 -50.4884
L60.0219 -50.9146
L59.7506 -51.3361
L59.4721 -51.753
L59.1864 -52.1652
L58.8936 -52.5723
L58.5939 -52.9745
L58.2873 -53.3714
L57.9739 -53.7631
L57.6538 -54.1494
L57.3271 -54.5301
L56.9939 -54.9052
L56.6543 -55.2745
L56.3084 -55.638
L55.9564 -55.9954
L55.5982 -56.3468
L55.2341 -56.692
L54.8641 -57.0309
L54.4884 -57.3634
L54.1071 -57.6894
L53.7202 -58.0087
L53.328 -58.3214
L52.9304 -58.6272
L52.5277 -58.9262
L52.12 -59.2182
L51.7073 -59.5031
L51.2899 -59.7809
L50.8678 -60.0514
L50.4412 -60.3146
L50.0102 -60.5703
L49.5749 -60.8186
L49.1355 -61.0594
L48.6921 -61.2925
L48.2448 -61.5178
L47.7938 -61.7355
L47.3392 -61.9452
L46.8812 -62.1471
L46.4198 -62.341
L45.9552 -62.5269
L45.4877 -62.7047
L45.0172 -62.8744
L44.544 -63.0359
L44.0682 -63.1892
L43.5899 -63.3341
L43.1093 -63.4708
L42.6265 -63.5991
L42.1418 -63.7189
L41.6551 -63.8304
L41.1668 -63.9333
L40.6768 -64.0277
L40.1855 -64.1136
L39.6928 -64.191
L39.1991 -64.2597
L38.7043 -64.3199
L38.2088 -64.3714
L37.7125 -64.4143
L37.2158 -64.4485
L36.7186 -64.4741
L36.2213 -64.4909
L35.7239 -64.4991
L35.2266 -64.4987
L34.7295 -64.4895
L34.2328 -64.4717
L33.7366 -64.4452
L33.2411 -64.41
L32.7465 -64.3662
L32.2528 -64.3137
L31.7603 -64.2526
L31.2691 -64.1829
L30.7793 -64.1046
L30.2912 -64.0178
L29.8047 -63.9224
L29.3202 -63.8185
L28.8376 -63.7061
L28.3573 -63.5853
L27.8793 -63.4561
L27.4038 -63.3186
L26.9308 -63.1727
L26.4607 -63.0185
z
" id="C0_2_90acd36a6d"/>
    </defs>
    <g clip-path="url(#p1bffca34e9)">
     <use style="fill:#ff0000;stroke:#000000;stroke-width:2.0;" x="0.0" xlink:href="#C0_0_a811fe30f3" y="72.0"/>
    </g>
    <g clip-path="url(#p1bffca34e9)">
     <use style="fill:#ffffff;stroke:#000000;stroke-width:2.0;" x="0.0" xlink:href="#C0_1_eb3143ccb3" y="72.0"/>
    </g>
    <g clip-path="url(#p1bffca34e9)">
     <use style="fill:#ffffff;stroke:#000000;stroke-width:2.0;" x="0.0" xlink:href="#C0_2_90acd36a6d" y="72.0"/>
    </g>
   </g>
  </g>
 </g>
 <defs>
  <clipPath id="p1bffca34e9">
   <rect height="72.0" width="72.0" x="0.0" y="0.0"/>
  </clipPath>
 </defs>
</svg>
