<?xml version="1.0" encoding="utf-8" standalone="no"?>
<!DOCTYPE svg PUBLIC "-//W3C//DTD SVG 1.1//EN"
  "http://www.w3.org/Graphics/SVG/1.1/DTD/svg11.dtd">
<!-- Created with matplotlib (http://matplotlib.org/) -->
<svg height="72pt" version="1.1" viewBox="0 0 72 72" width="72pt" xmlns="http://www.w3.org/2000/svg" xmlns:xlink="http://www.w3.org/1999/xlink">
 <defs>
  <style type="text/css">
*{stroke-linecap:butt;stroke-linejoin:round;}
  </style>
 </defs>
 <g id="figure_1">
  <g id="patch_1">
   <path d="
M0 72
L72 72
L72 0
L0 0
z
" style="fill:none;"/>
  </g>
  <g id="axes_1">
   <g id="PatchCollection_1">
    <defs>
     <path d="
M36 -7.5
C43.5583 -7.5 50.808 -10.5029 56.1525 -15.8475
C61.4971 -21.192 64.5 -28.4417 64.5 -36
C64.5 -43.5583 61.4971 -50.808 56.1525 -56.1525
C50.808 -61.4971 43.5583 -64.5 36 -64.5
C28.4417 -64.5 21.192 -61.4971 15.8475 -56.1525
C10.5029 -50.808 7.5 -43.5583 7.5 -36
C7.5 -28.4417 10.5029 -21.192 15.8475 -15.8475
C21.192 -10.5029 28.4417 -7.5 36 -7.5
z
" id="C0_0_a811fe30f3"/>
     <path d="
M29.3855 -63.6716
L29.4294 -63.414
L29.4593 -63.1485
L29.4769 -62.876
L29.4837 -62.5972
L29.4811 -62.3126
L29.4704 -62.0229
L29.4527 -61.7287
L29.4291 -61.4306
L29.4005 -61.1289
L29.3677 -60.8242
L29.3316 -60.5169
L29.2926 -60.2073
L29.2515 -59.8959
L29.2086 -59.583
L29.1645 -59.2689
L29.1196 -58.9538
L29.074 -58.6382
L29.0283 -58.322
L28.9825 -58.0058
L28.9369 -57.6895
L28.8917 -57.3735
L28.8471 -57.0578
L28.8032 -56.7427
L28.7601 -56.4283
L28.7178 -56.1148
L28.6766 -55.8021
L28.6363 -55.4906
L28.5972 -55.1801
L28.5592 -54.8709
L28.5224 -54.5631
L28.4867 -54.2565
L28.4523 -53.9514
L28.419 -53.6478
L28.387 -53.3457
L28.3562 -53.0452
L28.3266 -52.7462
L28.2983 -52.4488
L28.2711 -52.153
L28.2452 -51.8588
L28.2204 -51.5663
L28.1968 -51.2753
L28.1743 -50.986
L28.153 -50.6983
L28.1327 -50.4121
L28.1136 -50.1275
L28.0956 -49.8445
L28.0786 -49.5629
L28.0626 -49.2829
L28.0477 -49.0043
L28.0338 -48.7271
L28.0208 -48.4514
L28.0088 -48.177
L27.9978 -47.9039
L27.9877 -47.6321
L27.9785 -47.3615
L27.9702 -47.0922
L27.9628 -46.824
L27.9563 -46.5569
L27.9506 -46.2908
L27.9457 -46.0258
L27.9417 -45.7617
L27.9385 -45.4986
L27.9361 -45.2363
L27.9345 -44.9749
L27.9336 -44.7142
L27.9336 -44.4542
L27.9343 -44.1949
L27.9357 -43.9362
L27.9379 -43.6781
L27.9408 -43.4204
L27.9445 -43.1632
L27.9489 -42.9065
L27.954 -42.65
L27.9598 -42.3939
L27.9664 -42.138
L27.9736 -41.8822
L27.9816 -41.6266
L27.9902 -41.3711
L27.9996 -41.1156
L28.0205 -40.86
L28.032 -40.6044
L28.0442 -40.3485
L28.0571 -40.0925
L28.0708 -39.8362
L28.0851 -39.5796
L28.1002 -39.3226
L28.116 -39.0652
L28.1326 -38.8073
L28.1498 -38.5488
L28.1679 -38.2898
L28.1867 -38.03
L28.2062 -37.7696
L28.2265 -37.5083
L28.2476 -37.2463
L28.2695 -36.9833
L28.2922 -36.7194
L28.3157 -36.4545
L28.3401 -36.1885
L28.3652 -35.9214
L28.3912 -35.6531
L28.4181 -35.3836
L28.4459 -35.1127
L28.4745 -34.8406
L28.5041 -34.567
L28.5346 -34.292
L28.566 -34.0155
L28.5984 -33.7374
L28.6317 -33.4576
L28.6661 -33.1762
L28.7014 -32.8931
L28.7378 -32.6082
L28.7752 -32.3215
L28.8136 -32.0329
L28.8531 -31.7424
L28.8938 -31.4499
L28.9355 -31.1554
L28.9784 -30.8589
L29.0223 -30.5603
L29.0675 -30.2595
L29.1138 -29.9567
L29.1613 -29.6516
L29.21 -29.3443
L29.2599 -29.0348
L29.311 -28.723
L29.3634 -28.4089
L29.4169 -28.0926
L29.4717 -27.774
L29.5277 -27.4531
L29.5849 -27.1299
L29.6433 -26.8045
L29.7028 -26.4768
L29.7636 -26.1469
L29.8254 -25.8147
L29.8884 -25.4805
L29.9523 -25.1441
L30.0173 -24.8058
L30.0832 -24.4654
L30.1499 -24.1232
L30.2173 -23.7792
L30.2853 -23.4335
L30.3538 -23.0863
L30.4227 -22.7376
L30.4917 -22.3876
L30.5607 -22.0366
L30.6294 -21.6846
L30.6976 -21.3319
L30.7649 -20.9786
L30.831 -20.6251
L30.8956 -20.2716
L30.9582 -19.9183
L31.0183 -19.5656
L31.0753 -19.2137
L31.1286 -18.8632
L31.1776 -18.5142
L31.2214 -18.1673
L31.2592 -17.8229
L31.2901 -17.4814
L31.313 -17.1434
L31.3267 -16.8094
L31.3301 -16.48
L31.3219 -16.1558
L31.3007 -15.8374
L31.2651 -15.5256
L31.2137 -15.221
L31.1452 -14.9242
L31.0581 -14.6362
L30.9514 -14.3575
L30.8239 -14.0889
L30.6748 -13.8311
L30.5035 -13.5846
L30.3098 -13.3502
L30.0934 -13.1283
L29.8548 -12.9194
L29.5945 -12.7239
L29.3133 -12.5419
L29.0121 -12.3739
L28.6921 -12.2199
L28.3547 -12.0799
L28.0011 -11.9541
L27.6327 -11.8423
L27.2511 -11.7445
L26.8575 -11.6607
L26.4533 -11.5906
L26.0398 -11.5341
L25.6183 -11.491
L25.1899 -11.4612
L24.7557 -11.4444
L24.3167 -11.4404
L23.874 -11.449
L23.4283 -11.4699
L22.9806 -11.503
L22.5315 -11.548
L22.0818 -11.6045
L21.6322 -11.6725
L21.1831 -11.7516
L20.7353 -11.8416
L20.3133 -11.9421
L19.9004 -12.2055
L19.4924 -12.4829
L19.0895 -12.7675
L18.6917 -13.0591
L18.2992 -13.3577
L17.912 -13.6632
L17.5304 -13.9756
L17.1544 -14.2946
L16.7842 -14.6203
L16.4197 -14.9524
L16.0613 -15.291
L15.7089 -15.6359
L15.3628 -15.9869
L15.0229 -16.3441
L14.6893 -16.7073
L14.3623 -17.0763
L14.0419 -17.4511
L13.7282 -17.8316
L13.4212 -18.2176
L13.1211 -18.609
L12.828 -19.0057
L12.542 -19.4075
L12.2631 -19.8145
L11.9914 -20.2263
L11.727 -20.643
L11.4701 -21.0644
L11.2206 -21.4903
L10.9786 -21.9206
L10.7443 -22.3552
L10.5177 -22.7939
L10.2988 -23.2367
L10.0878 -23.6834
L9.88462 -24.1338
L9.68943 -24.5879
L9.50225 -25.0454
L9.32315 -25.5062
L9.15217 -25.9703
L8.98936 -26.4374
L8.83479 -26.9074
L8.68849 -27.3802
L8.55051 -27.8556
L8.42089 -28.3335
L8.29967 -28.8137
L8.18689 -29.2961
L8.08259 -29.7806
L7.98678 -30.2669
L7.89951 -30.755
L7.8208 -31.2447
L7.75067 -31.7359
L7.68915 -32.2283
L7.63625 -32.7219
L7.59199 -33.2165
L7.55639 -33.7119
L7.52945 -34.2081
L7.51118 -34.7048
L7.50159 -35.2018
L7.50068 -35.6992
L7.50845 -36.1966
L7.5249 -36.6939
L7.55002 -37.1911
L7.58381 -37.6878
L7.62626 -38.1841
L7.67735 -38.6797
L7.73706 -39.1745
L7.80539 -39.6683
L7.8823 -40.161
L7.96778 -40.6524
L8.0618 -41.1424
L8.16433 -41.6309
L8.27533 -42.1176
L8.39478 -42.6025
L8.52265 -43.0853
L8.65888 -43.566
L8.80343 -44.0444
L8.95628 -44.5204
L9.11736 -44.9937
L9.28663 -45.4643
L9.46404 -45.9321
L9.64953 -46.3968
L9.84304 -46.8583
L10.0445 -47.3165
L10.2539 -47.7713
L10.4712 -48.2225
L10.6962 -48.67
L10.9289 -49.1136
L11.1692 -49.5532
L11.4171 -49.9887
L11.6726 -50.4199
L11.9354 -50.8467
L12.2055 -51.269
L12.4829 -51.6867
L12.7675 -52.0996
L13.0591 -52.5076
L13.3577 -52.9105
L13.6632 -53.3083
L13.9756 -53.7008
L14.2946 -54.088
L14.6203 -54.4696
L14.9524 -54.8456
L15.291 -55.2158
L15.6359 -55.5803
L15.9869 -55.9387
L16.3441 -56.2911
L16.7073 -56.6372
L17.0763 -56.9771
L17.4511 -57.3107
L17.8316 -57.6377
L18.2176 -57.9581
L18.609 -58.2718
L19.0057 -58.5788
L19.4075 -58.8789
L19.8145 -59.172
L20.2263 -59.458
L20.643 -59.7369
L21.0644 -60.0086
L21.4903 -60.273
L21.9206 -60.5299
L22.3552 -60.7794
L22.7939 -61.0214
L23.2367 -61.2557
L23.6834 -61.4823
L24.1338 -61.7012
L24.5879 -61.9122
L25.0454 -62.1154
L25.5062 -62.3106
L25.9703 -62.4977
L26.4374 -62.6769
L26.9074 -62.8478
L27.3802 -63.0106
L27.8556 -63.1652
L28.3335 -63.3115
L28.8137 -63.4495
z
" id="C0_1_6834287de9"/>
     <path d="
M51.5562 -59.7111
L51.8319 -59.3494
L52.1003 -58.9865
L52.3613 -58.6229
L52.6148 -58.2586
L52.8609 -57.894
L53.0995 -57.5293
L53.3307 -57.1647
L53.5546 -56.8003
L53.7711 -56.4364
L53.9804 -56.0732
L54.1827 -55.7107
L54.3779 -55.3492
L54.5663 -54.9887
L54.7479 -54.6294
L54.9228 -54.2713
L55.0913 -53.9147
L55.2534 -53.5594
L55.4093 -53.2057
L55.5591 -52.8536
L55.703 -52.5031
L55.8411 -52.1543
L55.9735 -51.8072
L56.1004 -51.4618
L56.222 -51.1183
L56.3383 -50.7765
L56.4494 -50.4365
L56.5556 -50.0983
L56.6569 -49.7618
L56.7535 -49.4272
L56.8455 -49.0944
L56.9329 -48.7633
L57.016 -48.434
L57.0948 -48.1064
L57.1694 -47.7805
L57.2399 -47.4562
L57.3064 -47.1336
L57.3691 -46.8126
L57.4279 -46.4931
L57.483 -46.1752
L57.5345 -45.8588
L57.5824 -45.5437
L57.6269 -45.2301
L57.6679 -44.9179
L57.7056 -44.6069
L57.74 -44.2972
L57.7711 -43.9887
L57.7992 -43.6813
L57.824 -43.375
L57.8459 -43.0698
L57.8647 -42.7656
L57.8805 -42.4623
L57.8934 -42.1599
L57.9034 -41.8584
L57.9106 -41.5576
L57.9149 -41.2576
L57.9163 -40.9582
L57.9151 -40.6594
L57.911 -40.3612
L57.9042 -40.0635
L57.8947 -39.7662
L57.8825 -39.4694
L57.8675 -39.1728
L57.8499 -38.8766
L57.8296 -38.5805
L57.8066 -38.2847
L57.7809 -37.9889
L57.7525 -37.6932
L57.7214 -37.3975
L57.6877 -37.1018
L57.6512 -36.8059
L57.6119 -36.5099
L57.5699 -36.2136
L57.5252 -35.9171
L57.4776 -35.6203
L57.4273 -35.3231
L57.3741 -35.0255
L57.318 -34.7274
L57.2591 -34.4287
L57.1972 -34.1295
L57.1323 -33.8297
L57.0644 -33.5292
L56.9935 -33.228
L56.9194 -32.926
L56.8422 -32.6232
L56.7618 -32.3195
L56.6781 -32.015
L56.5912 -31.7095
L56.5009 -31.403
L56.4071 -31.0955
L56.3098 -30.787
L56.209 -30.4773
L56.1046 -30.1666
L55.9965 -29.8547
L55.8846 -29.5416
L55.7688 -29.2274
L55.6492 -28.9119
L55.5255 -28.5952
L55.3978 -28.2772
L55.2659 -27.958
L55.1298 -27.6375
L54.9894 -27.3157
L54.8445 -26.9926
L54.6952 -26.6683
L54.5413 -26.3427
L54.3827 -26.0158
L54.2194 -25.6877
L54.0512 -25.3585
L53.8782 -25.028
L53.7001 -24.6964
L53.517 -24.3637
L53.3287 -24.0299
L53.1352 -23.6952
L52.9364 -23.3595
L52.7323 -23.023
L52.5229 -22.6856
L52.308 -22.3477
L52.0876 -22.0091
L51.8617 -21.67
L51.6304 -21.3305
L51.3936 -20.9908
L51.1513 -20.651
L50.9036 -20.3111
L50.6506 -19.9714
L50.3923 -19.632
L50.1289 -19.2931
L49.8605 -18.9548
L49.5872 -18.6173
L49.3094 -18.2808
L49.0272 -17.9454
L48.7409 -17.6114
L48.451 -17.2789
L48.1578 -16.9482
L47.8619 -16.6193
L47.5637 -16.2925
L47.2638 -15.9679
L46.963 -15.6458
L46.6621 -15.3262
L46.3619 -15.0093
L46.0635 -14.6952
L45.7678 -14.384
L45.4762 -14.0758
L45.1898 -13.7706
L44.9101 -13.4684
L44.6385 -13.1693
L44.3767 -12.8732
L44.1263 -12.5799
L43.8888 -12.2895
L43.666 -12.0018
L43.4595 -11.7167
L43.2706 -11.4341
L43.1009 -11.1539
L42.9514 -10.8759
L42.823 -10.6002
L42.7165 -10.3267
L42.632 -10.0555
L42.5698 -9.78665
L42.5296 -9.52027
L42.5109 -9.25657
L42.5132 -8.99577
L42.5357 -8.73814
L43.1086 -8.48396
L43.5892 -8.40076
L44.0675 -8.52903
L44.5433 -8.66566
L45.0165 -8.81062
L45.487 -8.96387
L45.9546 -9.12534
L46.4191 -9.29501
L46.8805 -9.47281
L47.3386 -9.65868
L47.7932 -9.85259
L48.2442 -10.0545
L48.6915 -10.2642
L49.1349 -10.4818
L49.5743 -10.7072
L50.0096 -10.9403
L50.4406 -11.181
L50.8672 -11.4293
L51.2893 -11.6851
L51.7067 -11.9482
L52.1194 -12.2187
L52.5271 -12.4965
L52.9298 -12.7814
L53.3274 -13.0734
L53.7197 -13.3723
L54.1065 -13.6782
L54.4879 -13.9908
L54.8636 -14.3102
L55.2336 -14.6361
L55.5977 -14.9686
L55.9558 -15.3075
L56.3079 -15.6527
L56.6538 -16.004
L56.9934 -16.3615
L57.3266 -16.725
L57.6533 -17.0943
L57.9734 -17.4694
L58.2868 -17.8501
L58.5934 -18.2363
L58.8932 -18.628
L59.186 -19.025
L59.4717 -19.4271
L59.7502 -19.8343
L60.0215 -20.2464
L60.2855 -20.6633
L60.5421 -21.0848
L60.7913 -21.5109
L61.0329 -21.9415
L61.2668 -22.3763
L61.4931 -22.8152
L61.7116 -23.2582
L61.9222 -23.7051
L62.125 -24.1557
L62.3198 -24.6099
L62.5066 -25.0675
L62.6853 -25.5286
L62.8559 -25.9928
L63.0183 -26.46
L63.1725 -26.9302
L63.3184 -27.4031
L63.4559 -27.8786
L63.5852 -28.3566
L63.706 -28.8369
L63.8183 -29.3195
L63.9222 -29.804
L64.0176 -30.2905
L64.1045 -30.7786
L64.1828 -31.2684
L64.2525 -31.7596
L64.3136 -32.2521
L64.3661 -32.7458
L64.4099 -33.2404
L64.4451 -33.7359
L64.4716 -34.232
L64.4895 -34.7288
L64.4987 -35.2258
L64.4991 -35.7232
L64.491 -36.2206
L64.4741 -36.7179
L64.4485 -37.2151
L64.4143 -37.7118
L64.3715 -38.208
L64.32 -38.7036
L64.2598 -39.1984
L64.1911 -39.6921
L64.1138 -40.1848
L64.0279 -40.6761
L63.9334 -41.1661
L63.8305 -41.6544
L63.7191 -42.1411
L63.5992 -42.6258
L63.471 -43.1086
L63.3343 -43.5892
L63.1894 -44.0675
L63.0361 -44.5433
L62.8747 -45.0165
L62.705 -45.487
L62.5272 -45.9546
L62.3413 -46.4191
L62.1474 -46.8805
L61.9455 -47.3386
L61.7358 -47.7932
L61.5182 -48.2442
L61.2928 -48.6915
L61.0597 -49.1349
L60.819 -49.5743
L60.5707 -50.0096
L60.3149 -50.4406
L60.0518 -50.8672
L59.7813 -51.2893
L59.5035 -51.7067
L59.2186 -52.1194
L58.9266 -52.5271
L58.6277 -52.9298
L58.3218 -53.3274
L58.0092 -53.7197
L57.6898 -54.1065
L57.3639 -54.4879
L57.0314 -54.8636
L56.6925 -55.2336
L56.3473 -55.5977
L55.996 -55.9558
L55.6385 -56.3079
L55.275 -56.6538
L54.9057 -56.9934
L54.5306 -57.3266
L54.1499 -57.6533
L53.7637 -57.9734
L53.372 -58.2868
L52.975 -58.5934
L52.5729 -58.8932
L52.1657 -59.186
z
" id="C0_2_82756ff99f"/>
    </defs>
    <g clip-path="url(#p1bffca34e9)">
     <use style="fill:#ff0000;stroke:#000000;stroke-width:2.0;" x="0.0" xlink:href="#C0_0_a811fe30f3" y="72.0"/>
    </g>
    <g clip-path="url(#p1bffca34e9)">
     <use style="fill:#ffffff;stroke:#000000;stroke-width:2.0;" x="0.0" xlink:href="#C0_1_6834287de9" y="72.0"/>
    </g>
    <g clip-path="url(#p1bffca34e9)">
     <use style="fill:#ffffff;stroke:#000000;stroke-width:2.0;" x="0.0" xlink:href="#C0_2_82756ff99f" y="72.0"/>
    </g>
   </g>
  </g>
 </g>
 <defs>
  <clipPath id="p1bffca34e9">
   <rect height="72.0" width="72.0" x="0.0" y="0.0"/>
  </clipPath>
 </defs>
</svg>
