<?xml version="1.0" encoding="utf-8" standalone="no"?>
<!DOCTYPE svg PUBLIC "-//W3C//DTD SVG 1.1//EN"
  "http://www.w3.org/Graphics/SVG/1.1/DTD/svg11.dtd">
<!-- Created with matplotlib (http://matplotlib.org/) -->
<svg height="72pt" version="1.1" viewBox="0 0 72 72" width="72pt" xmlns="http://www.w3.org/2000/svg" xmlns:xlink="http://www.w3.org/1999/xlink">
 <defs>
  <style type="text/css">
*{stroke-linecap:butt;stroke-linejoin:round;}
  </style>
 </defs>
 <g id="figure_1">
  <g id="patch_1">
   <path d="
M0 72
L72 72
L72 0
L0 0
z
" style="fill:none;"/>
  </g>
  <g id="axes_1">
   <g id="PatchCollection_1">
    <defs>
     <path d="
M36 -7.5
C43.5583 -7.5 50.808 -10.5029 56.1525 -15.8475
C61.4971 -21.192 64.5 -28.4417 64.5 -36
C64.5 -43.5583 61.4971 -50.808 56.1525 -56.1525
C50.808 -61.4971 43.5583 -64.5 36 -64.5
C28.4417 -64.5 21.192 -61.4971 15.8475 -56.1525
C10.5029 -50.808 7.5 -43.5583 7.5 -36
C7.5 -28.4417 10.5029 -21.192 15.8475 -15.8475
C21.192 -10.5029 28.4417 -7.5 36 -7.5
z
" id="C0_0_a811fe30f3"/>
     <path d="
M48.3196 -61.6391
L48.2657 -61.3348
L48.2324 -61.0093
L48.2127 -60.6682
L48.2012 -60.3155
L48.1945 -59.9541
L48.1901 -59.5862
L48.1863 -59.2135
L48.1818 -58.8371
L48.1759 -58.4581
L48.168 -58.0773
L48.1576 -57.6954
L48.1445 -57.313
L48.1285 -56.9305
L48.1095 -56.5484
L48.0875 -56.167
L48.0624 -55.7867
L48.0344 -55.4078
L48.0035 -55.0305
L47.9696 -54.6551
L47.9331 -54.2818
L47.8938 -53.9108
L47.8519 -53.5422
L47.8076 -53.1761
L47.7609 -52.8128
L47.712 -52.4523
L47.6609 -52.0948
L47.6078 -51.7402
L47.5527 -51.3887
L47.4958 -51.0404
L47.4371 -50.6952
L47.3769 -50.3533
L47.315 -50.0145
L47.2517 -49.6791
L47.187 -49.3469
L47.1211 -49.0179
L47.0538 -48.6922
L46.9855 -48.3697
L46.9161 -48.0505
L46.8456 -47.7344
L46.7742 -47.4215
L46.7019 -47.1117
L46.6287 -46.805
L46.5547 -46.5013
L46.48 -46.2007
L46.4046 -45.9029
L46.3285 -45.608
L46.2517 -45.316
L46.1743 -45.0267
L46.0964 -44.7401
L46.0179 -44.4562
L45.9389 -44.1748
L45.8594 -43.896
L45.7794 -43.6196
L45.6989 -43.3456
L45.618 -43.074
L45.5367 -42.8045
L45.4549 -42.5373
L45.3727 -42.2721
L45.2901 -42.009
L45.2071 -41.7479
L45.1237 -41.4887
L45.0399 -41.2313
L44.9557 -40.9757
L44.8711 -40.7218
L44.7861 -40.4695
L44.7007 -40.2188
L44.6149 -39.9696
L44.5287 -39.7218
L44.4421 -39.4753
L44.355 -39.2302
L44.2675 -38.9863
L44.1796 -38.7435
L44.0912 -38.5019
L44.0023 -38.2612
L43.9129 -38.0216
L43.8231 -37.7828
L43.7327 -37.5449
L43.6418 -37.3077
L43.5504 -37.0713
L43.4584 -36.8355
L43.3658 -36.6003
L43.2726 -36.3656
L43.1788 -36.1313
L43.0843 -35.8975
L42.8934 -35.664
L42.7969 -35.4308
L42.6996 -35.1978
L42.6016 -34.9649
L42.5027 -34.7322
L42.4031 -34.4994
L42.3026 -34.2667
L42.2013 -34.0338
L42.099 -33.8009
L41.9958 -33.5677
L41.8916 -33.3342
L41.7864 -33.1004
L41.6802 -32.8663
L41.5729 -32.6317
L41.4645 -32.3966
L41.3549 -32.1609
L41.2442 -31.9247
L41.1323 -31.6878
L41.019 -31.4501
L40.9045 -31.2117
L40.7887 -30.9724
L40.6714 -30.7322
L40.5527 -30.4911
L40.4325 -30.2489
L40.3108 -30.0057
L40.1876 -29.7614
L40.0627 -29.5159
L39.9361 -29.2691
L39.8078 -29.0211
L39.6777 -28.7718
L39.5458 -28.5211
L39.412 -28.2689
L39.2763 -28.0153
L39.1386 -27.7601
L38.9988 -27.5033
L38.8569 -27.245
L38.7128 -26.9849
L38.5665 -26.7232
L38.4179 -26.4597
L38.267 -26.1945
L38.1136 -25.9274
L37.9577 -25.6585
L37.7993 -25.3876
L37.6383 -25.1149
L37.4746 -24.8403
L37.3082 -24.5637
L37.1389 -24.2852
L36.9669 -24.0047
L36.7918 -23.7222
L36.6138 -23.4377
L36.4327 -23.1513
L36.2486 -22.8629
L36.0612 -22.5726
L35.8707 -22.2804
L35.6768 -21.9863
L35.4796 -21.6903
L35.2791 -21.3926
L35.0752 -21.0931
L34.8678 -20.7919
L34.6569 -20.4892
L34.4426 -20.1849
L34.2247 -19.8792
L34.0033 -19.5722
L33.7784 -19.264
L33.55 -18.9547
L33.3181 -18.6445
L33.0827 -18.3336
L32.844 -18.022
L32.602 -17.7099
L32.3567 -17.3976
L32.1084 -17.0852
L31.8572 -16.7729
L31.6032 -16.461
L31.3468 -16.1497
L31.0881 -15.8391
L30.8277 -15.5296
L30.5659 -15.2214
L30.3033 -14.9147
L30.0407 -14.6097
L29.779 -14.3067
L29.5195 -14.0059
L29.2638 -13.7075
L29.0141 -13.4116
L28.7735 -13.1184
L28.5462 -12.8277
L28.3382 -12.5396
L28.1578 -12.2537
L28.0168 -11.9694
L27.93 -11.686
L27.9148 -11.4023
L27.9863 -11.1171
L28.1517 -10.8298
L28.4069 -10.5408
L28.7393 -10.2519
L29.1333 -9.96578
L29.5748 -9.68516
L30.0525 -9.4124
L30.5579 -9.14932
L31.0848 -8.89729
L31.6287 -8.65731
L32.1861 -8.43013
L32.7544 -8.21631
L33.3314 -8.01627
L33.9153 -7.83031
L34.4056 -7.65864
L34.9025 -7.54463
L35.3997 -7.52114
L35.897 -7.50632
L36.3945 -7.50019
L36.8917 -7.50273
L37.3888 -7.51395
L37.8853 -7.53386
L38.3814 -7.56243
L38.8767 -7.59966
L39.3711 -7.64555
L39.8645 -7.70007
L40.3567 -7.76322
L40.8476 -7.83496
L41.337 -7.91528
L41.8247 -8.00416
L42.3107 -8.10157
L42.7948 -8.20747
L43.2768 -8.32185
L43.7566 -8.44465
L44.2341 -8.57584
L44.709 -8.71539
L45.1813 -8.86325
L45.6508 -9.01938
L46.1173 -9.18372
L46.5808 -9.35624
L47.041 -9.53687
L47.4979 -9.72556
L47.9512 -9.92225
L48.401 -10.1269
L48.8469 -10.3394
L49.289 -10.5597
L49.7269 -10.7878
L50.1607 -11.0236
L50.5902 -11.267
L51.0153 -11.5179
L51.4358 -11.7762
L51.8515 -12.042
L52.2625 -12.315
L52.6685 -12.5953
L53.0694 -12.8827
L53.4651 -13.1771
L53.8555 -13.4785
L54.2405 -13.7867
L54.6199 -14.1017
L54.9936 -14.4234
L55.3615 -14.7516
L55.7236 -15.0863
L56.0796 -15.4274
L56.4295 -15.7748
L56.7732 -16.1283
L57.1106 -16.4879
L57.4415 -16.8534
L57.7659 -17.2247
L58.0837 -17.6018
L58.3948 -17.9845
L58.699 -18.3726
L58.9963 -18.7662
L59.2866 -19.1649
L59.5698 -19.5688
L59.8459 -19.9778
L60.1147 -20.3915
L60.3761 -20.8101
L60.6301 -21.2333
L60.8766 -21.6609
L61.1155 -22.093
L61.3468 -22.5292
L61.5703 -22.9696
L61.7861 -23.414
L61.994 -23.8622
L62.194 -24.314
L62.386 -24.7695
L62.57 -25.2283
L62.7459 -25.6905
L62.9136 -26.1557
L63.0731 -26.624
L63.2244 -27.0952
L63.3674 -27.569
L63.5021 -28.0454
L63.6283 -28.5243
L63.7462 -29.0054
L63.8556 -29.4886
L63.9565 -29.9739
L64.049 -30.4609
L64.1328 -30.9497
L64.2081 -31.44
L64.2748 -31.9316
L64.3329 -32.4246
L64.3824 -32.9186
L64.4232 -33.4135
L64.4554 -33.9093
L64.4789 -34.4056
L64.4937 -34.9025
L64.4998 -35.3997
L64.4973 -35.897
L64.486 -36.3945
L64.4661 -36.8917
L64.4376 -37.3888
L64.4003 -37.8853
L64.3545 -38.3814
L64.2999 -38.8767
L64.2368 -39.3711
L64.165 -39.8645
L64.0847 -40.3567
L63.9958 -40.8476
L63.8984 -41.337
L63.7925 -41.8247
L63.6782 -42.3107
L63.5554 -42.7948
L63.4242 -43.2768
L63.2846 -43.7566
L63.1367 -44.2341
L62.9806 -44.709
L62.8163 -45.1813
L62.6438 -45.6508
L62.4631 -46.1173
L62.2744 -46.5808
L62.0778 -47.041
L61.8731 -47.4979
L61.6606 -47.9512
L61.4403 -48.401
L61.2122 -48.8469
L60.9764 -49.289
L60.733 -49.7269
L60.4821 -50.1607
L60.2238 -50.5902
L59.958 -51.0153
L59.685 -51.4358
L59.4047 -51.8515
L59.1173 -52.2625
L58.8229 -52.6685
L58.5215 -53.0694
L58.2133 -53.4651
L57.8983 -53.8555
L57.5766 -54.2405
L57.2484 -54.6199
L56.9137 -54.9936
L56.5726 -55.3615
L56.2252 -55.7236
L55.8717 -56.0796
L55.5121 -56.4295
L55.1466 -56.7732
L54.7753 -57.1106
L54.3982 -57.4415
L54.0155 -57.7659
L53.6274 -58.0837
L53.2338 -58.3948
L52.8351 -58.699
L52.4312 -58.9963
L52.0222 -59.2866
L51.6085 -59.5698
L51.1899 -59.8459
L50.7667 -60.1147
L50.3391 -60.3761
L49.907 -60.6301
L49.4708 -60.8766
L49.0304 -61.1155
z
" id="C0_1_fa2b894bee"/>
     <path d="
M37.4914 -64.4231
L36.8919 -64.3296
L36.2992 -64.2248
L35.7141 -64.1087
L35.137 -63.9819
L34.5684 -63.8447
L34.0089 -63.6975
L33.4588 -63.5408
L32.9182 -63.3751
L32.3875 -63.2007
L31.8668 -63.0182
L31.3562 -62.828
L30.8559 -62.6306
L30.3658 -62.4263
L29.886 -62.2157
L29.4165 -61.9992
L28.9572 -61.7772
L28.5081 -61.55
L28.0691 -61.318
L27.6401 -61.0816
L27.221 -60.8411
L26.8116 -60.5969
L26.4119 -60.3493
L26.0216 -60.0985
L25.6406 -59.8448
L25.2687 -59.5885
L24.9058 -59.3298
L24.5517 -59.0689
L24.2062 -58.8061
L23.8691 -58.5416
L23.5403 -58.2755
L23.2195 -58.008
L22.9065 -57.7392
L22.6012 -57.4693
L22.3034 -57.1985
L22.0129 -56.9268
L21.7296 -56.6543
L21.4531 -56.3812
L21.1835 -56.1076
L20.9204 -55.8335
L20.6637 -55.5589
L20.4133 -55.284
L20.169 -55.0088
L19.9307 -54.7334
L19.6981 -54.4578
L19.4711 -54.182
L19.2496 -53.906
L19.0335 -53.6299
L18.8225 -53.3538
L18.6167 -53.0775
L18.4157 -52.8012
L18.2196 -52.5247
L18.0282 -52.2482
L17.8413 -51.9716
L17.659 -51.6949
L17.4809 -51.4181
L17.3072 -51.1412
L17.1375 -50.8641
L16.972 -50.5869
L16.8104 -50.3094
L16.6527 -50.0318
L16.4987 -49.7539
L16.3485 -49.4757
L16.202 -49.1972
L16.0589 -48.9183
L15.9194 -48.639
L15.7834 -48.3593
L15.6507 -48.0792
L15.5213 -47.7985
L15.3951 -47.5172
L15.2722 -47.2353
L15.1524 -46.9528
L15.0358 -46.6695
L14.9222 -46.3855
L14.8117 -46.1006
L14.7042 -45.8149
L14.5996 -45.5283
L14.498 -45.2406
L14.3994 -44.9519
L14.3036 -44.6621
L14.2107 -44.3712
L14.1207 -44.079
L14.0336 -43.7855
L13.9493 -43.4907
L13.8679 -43.1944
L13.7894 -42.8967
L13.7137 -42.5974
L13.6409 -42.2965
L13.571 -41.9938
L13.5039 -41.6895
L13.4398 -41.3833
L13.3787 -41.0752
L13.3205 -40.7651
L13.2653 -40.453
L13.2131 -40.1387
L13.164 -39.8223
L13.1181 -39.5036
L13.0752 -39.1826
L13.0357 -38.8591
L12.9994 -38.5332
L12.9664 -38.2047
L12.9368 -37.8736
L12.9107 -37.5397
L12.8882 -37.2031
L12.8692 -36.8636
L12.854 -36.5211
L12.8427 -36.1757
L12.8352 -35.8272
L12.8317 -35.4755
L12.8324 -35.1206
L12.8373 -34.7625
L12.8465 -34.401
L12.8603 -34.0361
L12.8786 -33.6677
L12.9018 -33.2958
L12.9298 -32.9204
L12.9629 -32.5413
L13.0012 -32.1585
L13.0449 -31.7721
L13.0942 -31.3819
L13.1492 -30.988
L13.2102 -30.5903
L13.2773 -30.1888
L13.3507 -29.7835
L13.4306 -29.3744
L13.5173 -28.9615
L13.6109 -28.5449
L13.7118 -28.1245
L13.82 -27.7005
L13.9359 -27.2729
L14.0596 -26.8417
L14.1915 -26.4071
L14.3317 -25.9692
L14.4806 -25.528
L14.6383 -25.0838
L14.805 -24.6366
L14.9811 -24.1867
L15.1667 -23.7342
L15.3622 -23.2794
L15.5676 -22.8225
L15.7832 -22.3637
L16.0092 -21.9034
L16.2458 -21.4419
L16.4932 -20.9795
L16.7514 -20.5166
L17.0206 -20.0535
L17.3008 -19.5906
L17.5921 -19.1285
L17.8945 -18.6675
L18.2078 -18.2082
L18.532 -17.751
L18.8667 -17.2966
L19.2116 -16.8454
L19.5663 -16.3981
L19.9301 -15.9554
L20.302 -15.5178
L20.6809 -15.0862
L21.065 -14.6612
L21.4522 -14.2437
L21.8393 -13.8345
L22.2219 -13.4349
L22.5941 -13.0459
L22.9471 -12.669
L23.2693 -12.306
L23.5453 -11.9588
L23.7577 -11.6295
L23.8911 -11.3195
L23.9379 -11.0292
L23.9018 -10.7576
L23.2482 -10.5027
L22.8053 -10.5119
L22.3664 -10.7384
L21.9317 -10.9725
L21.5013 -11.2143
L21.0753 -11.4636
L20.6538 -11.7203
L20.237 -11.9845
L19.825 -12.256
L19.418 -12.5347
L19.0159 -12.8206
L18.6191 -13.1135
L18.2276 -13.4134
L17.8414 -13.7202
L17.4608 -14.0337
L17.0859 -14.354
L16.7167 -14.6808
L16.3534 -15.0142
L15.9961 -15.3539
L15.6448 -15.7
L15.2998 -16.0522
L14.961 -16.4104
L14.6287 -16.7747
L14.3029 -17.1448
L13.9837 -17.5207
L13.6712 -17.9021
L13.3655 -18.2891
L13.0667 -18.6815
L12.7749 -19.0792
L12.4901 -19.482
L12.2126 -19.8899
L11.9422 -20.3026
L11.6792 -20.7201
L11.4236 -21.1423
L11.1755 -21.5691
L10.935 -22.0002
L10.7021 -22.4356
L10.4768 -22.8751
L10.2594 -23.3186
L10.0498 -23.7659
L9.84813 -24.217
L9.65441 -24.6717
L9.46871 -25.1299
L9.29109 -25.5913
L9.12161 -26.0559
L8.96032 -26.5236
L8.80727 -26.9941
L8.66249 -27.4674
L8.52605 -27.9433
L8.39797 -28.4216
L8.2783 -28.9023
L8.16708 -29.3851
L8.06433 -29.8699
L7.97009 -30.3566
L7.8844 -30.845
L7.80726 -31.3349
L7.73871 -31.8263
L7.67878 -32.319
L7.62747 -32.8128
L7.5848 -33.3076
L7.55078 -33.8031
L7.52544 -34.2994
L7.50876 -34.7961
L7.50077 -35.2933
L7.50146 -35.7906
L7.51082 -36.288
L7.52887 -36.7854
L7.55559 -37.2824
L7.59097 -37.7791
L7.63501 -38.2753
L7.68768 -38.7708
L7.74898 -39.2654
L7.81889 -39.759
L7.89738 -40.2515
L7.98443 -40.7426
L8.08001 -41.2324
L8.1841 -41.7205
L8.29667 -42.2069
L8.41767 -42.6914
L8.54707 -43.1739
L8.68483 -43.6542
L8.83092 -44.1321
L8.98528 -44.6076
L9.14787 -45.0805
L9.31864 -45.5506
L9.49754 -46.0177
L9.68451 -46.4819
L9.8795 -46.9428
L10.0824 -47.4004
L10.2933 -47.8545
L10.5119 -48.3051
L10.7384 -48.7518
L10.9725 -49.1947
L11.2143 -49.6336
L11.4636 -50.0683
L11.7203 -50.4987
L11.9845 -50.9247
L12.256 -51.3462
L12.5347 -51.763
L12.8206 -52.175
L13.1135 -52.582
L13.4134 -52.9841
L13.7202 -53.3809
L14.0337 -53.7724
L14.354 -54.1586
L14.6808 -54.5392
L15.0142 -54.9141
L15.3539 -55.2833
L15.7 -55.6466
L16.0522 -56.0039
L16.4104 -56.3552
L16.7747 -56.7002
L17.1448 -57.039
L17.5207 -57.3713
L17.9021 -57.6971
L18.2891 -58.0163
L18.6815 -58.3288
L19.0792 -58.6345
L19.482 -58.9333
L19.8899 -59.2251
L20.3026 -59.5099
L20.7201 -59.7874
L21.1423 -60.0578
L21.5691 -60.3208
L22.0002 -60.5764
L22.4356 -60.8245
L22.8751 -61.065
L23.3186 -61.2979
L23.7659 -61.5232
L24.217 -61.7406
L24.6717 -61.9502
L25.1299 -62.1519
L25.5913 -62.3456
L26.0559 -62.5313
L26.5236 -62.7089
L26.9941 -62.8784
L27.4674 -63.0397
L27.9433 -63.1927
L28.4216 -63.3375
L28.9023 -63.474
L29.3851 -63.602
L29.8699 -63.7217
L30.3566 -63.8329
L30.845 -63.9357
L31.3349 -64.0299
L31.8263 -64.1156
L32.319 -64.1927
L32.8128 -64.2613
L33.3076 -64.3212
L33.8031 -64.3725
L34.2994 -64.4152
L34.7961 -64.4492
L35.2933 -64.4746
L35.7906 -64.4912
L36.288 -64.4992
L36.7854 -64.4985
z
" id="C0_2_d104e07b73"/>
    </defs>
    <g clip-path="url(#p1bffca34e9)">
     <use style="fill:#ff0000;stroke:#000000;stroke-width:2.0;" x="0.0" xlink:href="#C0_0_a811fe30f3" y="72.0"/>
    </g>
    <g clip-path="url(#p1bffca34e9)">
     <use style="fill:#ffffff;stroke:#000000;stroke-width:2.0;" x="0.0" xlink:href="#C0_1_fa2b894bee" y="72.0"/>
    </g>
    <g clip-path="url(#p1bffca34e9)">
     <use style="fill:#ffffff;stroke:#000000;stroke-width:2.0;" x="0.0" xlink:href="#C0_2_d104e07b73" y="72.0"/>
    </g>
   </g>
  </g>
 </g>
 <defs>
  <clipPath id="p1bffca34e9">
   <rect height="72.0" width="72.0" x="0.0" y="0.0"/>
  </clipPath>
 </defs>
</svg>
