<?xml version="1.0" encoding="utf-8" standalone="no"?>
<!DOCTYPE svg PUBLIC "-//W3C//DTD SVG 1.1//EN"
  "http://www.w3.org/Graphics/SVG/1.1/DTD/svg11.dtd">
<!-- Created with matplotlib (http://matplotlib.org/) -->
<svg height="72pt" version="1.1" viewBox="0 0 72 72" width="72pt" xmlns="http://www.w3.org/2000/svg" xmlns:xlink="http://www.w3.org/1999/xlink">
 <defs>
  <style type="text/css">
*{stroke-linecap:butt;stroke-linejoin:round;}
  </style>
 </defs>
 <g id="figure_1">
  <g id="patch_1">
   <path d="
M0 72
L72 72
L72 0
L0 0
z
" style="fill:none;"/>
  </g>
  <g id="axes_1">
   <g id="PatchCollection_1">
    <defs>
     <path d="
M36 -7.5
C43.5583 -7.5 50.808 -10.5029 56.1525 -15.8475
C61.4971 -21.192 64.5 -28.4417 64.5 -36
C64.5 -43.5583 61.4971 -50.808 56.1525 -56.1525
C50.808 -61.4971 43.5583 -64.5 36 -64.5
C28.4417 -64.5 21.192 -61.4971 15.8475 -56.1525
C10.5029 -50.808 7.5 -43.5583 7.5 -36
C7.5 -28.4417 10.5029 -21.192 15.8475 -15.8475
C21.192 -10.5029 28.4417 -7.5 36 -7.5
z
" id="C0_0_a811fe30f3"/>
     <path d="
M32.5385 -7.73459
L32.3691 -7.97465
L32.2233 -8.21831
L32.1009 -8.46511
L32.0017 -8.71466
L31.9252 -8.96663
L31.8707 -9.22069
L31.8373 -9.4766
L31.8243 -9.73415
L31.8306 -9.99314
L31.855 -10.2535
L31.8965 -10.515
L31.9537 -10.7776
L32.0256 -11.0412
L32.111 -11.3058
L32.2086 -11.5713
L32.3173 -11.8377
L32.4361 -12.1049
L32.564 -12.3729
L32.6999 -12.6416
L32.8429 -12.9109
L32.9923 -13.1809
L33.1471 -13.4514
L33.3068 -13.7224
L33.4706 -13.9938
L33.6379 -14.2656
L33.8081 -14.5376
L33.9808 -14.8098
L34.1555 -15.0822
L34.3318 -15.3545
L34.5092 -15.6269
L34.6874 -15.8991
L34.8662 -16.1712
L35.0453 -16.443
L35.2244 -16.7144
L35.4032 -16.9855
L35.5816 -17.2561
L35.7594 -17.5261
L35.9365 -17.7956
L36.1127 -18.0645
L36.2879 -18.3327
L36.462 -18.6001
L36.6348 -18.8668
L36.8064 -19.1327
L36.9766 -19.3977
L37.1454 -19.6618
L37.3128 -19.9251
L37.4786 -20.1874
L37.643 -20.4488
L37.8057 -20.7092
L37.9669 -20.9686
L38.1265 -21.2271
L38.2845 -21.4846
L38.4409 -21.7411
L38.5957 -21.9966
L38.749 -22.2512
L38.9006 -22.5047
L39.0506 -22.7574
L39.1991 -23.009
L39.3461 -23.2597
L39.4915 -23.5095
L39.6354 -23.7585
L39.7778 -24.0065
L39.9188 -24.2536
L40.0583 -24.5
L40.1964 -24.7455
L40.3331 -24.9902
L40.4684 -25.2342
L40.6024 -25.4775
L40.7351 -25.7201
L40.8666 -25.962
L40.9967 -26.2033
L41.1256 -26.444
L41.2534 -26.6841
L41.38 -26.9238
L41.5054 -27.1629
L41.6297 -27.4016
L41.7529 -27.6399
L41.8751 -27.8779
L41.9963 -28.1155
L42.1164 -28.3528
L42.2356 -28.5899
L42.3538 -28.8268
L42.4711 -29.0635
L42.5875 -29.3001
L42.7031 -29.5367
L42.8178 -29.7732
L42.9317 -30.0098
L43.0448 -30.2464
L43.1571 -30.4831
L43.2687 -30.72
L43.3796 -30.957
L43.5992 -31.1943
L43.7081 -31.432
L43.8163 -31.6699
L43.9239 -31.9083
L44.0309 -32.147
L44.1374 -32.3863
L44.2433 -32.6261
L44.3487 -32.8664
L44.4535 -33.1074
L44.5579 -33.3491
L44.6618 -33.5915
L44.7652 -33.8347
L44.8682 -34.0786
L44.9707 -34.3235
L45.0729 -34.5693
L45.1746 -34.816
L45.276 -35.0637
L45.377 -35.3126
L45.4776 -35.5625
L45.5779 -35.8136
L45.6778 -36.0659
L45.7775 -36.3194
L45.8768 -36.5743
L45.9758 -36.8304
L46.0745 -37.088
L46.1729 -37.3471
L46.2711 -37.6076
L46.369 -37.8696
L46.4666 -38.1333
L46.5639 -38.3985
L46.661 -38.6654
L46.7579 -38.9339
L46.8545 -39.2042
L46.9509 -39.4763
L47.047 -39.7502
L47.1429 -40.0259
L47.2386 -40.3034
L47.334 -40.5829
L47.4293 -40.8642
L47.5242 -41.1475
L47.619 -41.4327
L47.7136 -41.7199
L47.8079 -42.0091
L47.902 -42.3002
L47.9959 -42.5933
L48.0896 -42.8884
L48.1831 -43.1854
L48.2764 -43.4843
L48.3696 -43.7852
L48.4625 -44.0879
L48.5553 -44.3925
L48.6479 -44.6988
L48.7404 -45.0069
L48.8328 -45.3166
L48.9251 -45.6279
L49.0174 -45.9407
L49.1096 -46.2549
L49.2019 -46.5703
L49.2944 -46.8868
L49.3869 -47.2043
L49.4798 -47.5225
L49.5729 -47.8414
L49.6665 -48.1607
L49.7607 -48.4801
L49.8556 -48.7995
L49.9513 -49.1184
L50.0481 -49.4368
L50.1461 -49.7541
L50.2455 -50.07
L50.3467 -50.3842
L50.4499 -50.6963
L50.5555 -51.0056
L50.6637 -51.3119
L50.7751 -51.6144
L50.89 -51.9127
L51.0089 -52.206
L51.1323 -52.4939
L51.2608 -52.7754
L51.395 -53.05
L51.5355 -53.3167
L51.6829 -53.5748
L51.8379 -53.8234
L52.0013 -54.0616
L52.1736 -54.2885
L52.3555 -54.5032
L52.5476 -54.7048
L52.7506 -54.8923
L52.9648 -55.0648
L53.1906 -55.2216
L53.4285 -55.3618
L53.6784 -55.4847
L53.9406 -55.5896
L54.2148 -55.6761
L54.5008 -55.7437
L54.7984 -55.792
L55.1069 -55.8209
L55.4258 -55.8301
L55.7543 -55.8196
L56.0918 -55.7896
L56.4373 -55.7402
L56.8754 -55.6715
L57.2108 -55.4028
L57.5398 -55.0355
L57.8622 -54.6624
L58.178 -54.2837
L58.487 -53.8993
L58.7892 -53.5095
L59.0844 -53.1144
L59.3726 -52.7141
L59.6536 -52.3087
L59.9275 -51.8983
L60.1941 -51.483
L60.4533 -51.0631
L60.705 -50.6385
L60.9493 -50.2095
L61.1859 -49.7762
L61.4148 -49.3387
L61.6361 -48.8971
L61.8495 -48.4516
L62.055 -48.0023
L62.2526 -47.5493
L62.4422 -47.0928
L62.6237 -46.633
L62.7972 -46.1699
L62.9624 -45.7037
L63.1195 -45.2345
L63.2683 -44.7626
L63.4088 -44.2879
L63.5409 -43.8108
L63.6647 -43.3312
L63.78 -42.8495
L63.8869 -42.3656
L63.9852 -41.8798
L64.0751 -41.3922
L64.1564 -40.903
L64.2291 -40.4123
L64.2932 -39.9202
L64.3487 -39.4269
L64.3956 -38.9326
L64.4338 -38.4374
L64.4633 -37.9415
L64.4842 -37.4449
L64.4964 -36.948
L64.5 -36.4507
L64.4948 -35.9533
L64.481 -35.4559
L64.4585 -34.9587
L64.4273 -34.4618
L64.3874 -33.9654
L64.339 -33.4696
L64.2818 -32.9745
L64.2161 -32.4804
L64.1418 -31.9873
L64.0589 -31.4955
L63.9674 -31.0051
L63.8675 -30.5161
L63.759 -30.0289
L63.6421 -29.5434
L63.5168 -29.0599
L63.3831 -28.5786
L63.241 -28.0995
L63.0906 -27.6228
L62.932 -27.1486
L62.7652 -26.6772
L62.5903 -26.2086
L62.4072 -25.7429
L62.2161 -25.2804
L62.017 -24.8212
L61.81 -24.3654
L61.5951 -23.9131
L61.3725 -23.4645
L61.1421 -23.0197
L60.904 -22.5789
L60.6583 -22.1421
L60.4052 -21.7096
L60.1446 -21.2814
L59.8767 -20.8577
L59.6014 -20.4387
L59.319 -20.0243
L59.0295 -19.6148
L58.733 -19.2104
L58.4295 -18.811
L58.1192 -18.4169
L57.8022 -18.0281
L57.4786 -17.6448
L57.1484 -17.2671
L56.8117 -16.8951
L56.4687 -16.5289
L56.1195 -16.1687
L55.7642 -15.8145
L55.4028 -15.4664
L55.0355 -15.1246
L54.6624 -14.7892
L54.2837 -14.4602
L53.8993 -14.1378
L53.5095 -13.822
L53.1144 -13.513
L52.7141 -13.2108
L52.3087 -12.9156
L51.8983 -12.6274
L51.483 -12.3464
L51.0631 -12.0725
L50.6385 -11.8059
L50.2095 -11.5467
L49.7762 -11.295
L49.3387 -11.0507
L48.8971 -10.8141
L48.4516 -10.5852
L48.0023 -10.3639
L47.5493 -10.1505
L47.0928 -9.945
L46.633 -9.7474
L46.1699 -9.55781
L45.7037 -9.37626
L45.2345 -9.20283
L44.7626 -9.03756
L44.2879 -8.8805
L43.8108 -8.7317
L43.3312 -8.59121
L42.8495 -8.45907
L42.3656 -8.33531
L41.8798 -8.21999
L41.3922 -8.11312
L40.903 -8.01475
L40.4123 -7.92491
L39.9202 -7.84362
L39.4269 -7.7709
L38.9326 -7.70678
L38.4374 -7.65128
L37.9415 -7.60442
L37.4449 -7.56621
L36.948 -7.53665
L36.4507 -7.51577
L35.9533 -7.50356
L35.4559 -7.50004
L34.9587 -7.50519
L34.4618 -7.51903
L33.9654 -7.54154
L33.4696 -7.57272
z
" id="C0_1_685baf0dfd"/>
     <path d="
M15.2995 -16.5004
L15.223 -16.8648
L15.1421 -17.2362
L15.058 -17.614
L14.9714 -17.9974
L14.8833 -18.3858
L14.7945 -18.7787
L14.7058 -19.1755
L14.6177 -19.5756
L14.5309 -19.9785
L14.4459 -20.3837
L14.3632 -20.7907
L14.2832 -21.1991
L14.2063 -21.6084
L14.1326 -22.0182
L14.0626 -22.4282
L13.9964 -22.8381
L13.9342 -23.2475
L13.8761 -23.6561
L13.8223 -24.0637
L13.7728 -24.4699
L13.7276 -24.8747
L13.6868 -25.2777
L13.6505 -25.6788
L13.6186 -26.0778
L13.591 -26.4746
L13.5678 -26.869
L13.549 -27.2609
L13.5344 -27.6502
L13.524 -28.0368
L13.5178 -28.4206
L13.5157 -28.8016
L13.5176 -29.1797
L13.5234 -29.5548
L13.533 -29.9269
L13.5465 -30.296
L13.5636 -30.6621
L13.5843 -31.0251
L13.6086 -31.3851
L13.6363 -31.742
L13.6674 -32.0959
L13.7017 -32.4468
L13.7393 -32.7946
L13.78 -33.1394
L13.8238 -33.4813
L13.8706 -33.8203
L13.9203 -34.1564
L13.9729 -34.4896
L14.0283 -34.82
L14.0864 -35.1476
L14.1473 -35.4725
L14.2107 -35.7947
L14.2767 -36.1143
L14.3453 -36.4313
L14.4163 -36.7457
L14.4898 -37.0577
L14.5657 -37.3673
L14.644 -37.6745
L14.7246 -37.9794
L14.8075 -38.282
L14.8927 -38.5825
L14.9801 -38.8807
L15.0697 -39.177
L15.1615 -39.4711
L15.2556 -39.7633
L15.3517 -40.0536
L15.4501 -40.342
L15.5506 -40.6287
L15.6532 -40.9135
L15.7579 -41.1967
L15.8648 -41.4783
L15.9738 -41.7582
L16.0849 -42.0366
L16.1981 -42.3136
L16.3135 -42.5891
L16.431 -42.8633
L16.5507 -43.1361
L16.6725 -43.4076
L16.7965 -43.678
L16.9227 -43.9471
L17.0511 -44.2152
L17.1817 -44.4821
L17.3146 -44.748
L17.4497 -45.013
L17.5872 -45.277
L17.727 -45.54
L17.8691 -45.8023
L18.0136 -46.0637
L18.1606 -46.3243
L18.31 -46.5842
L18.4619 -46.8433
L18.6164 -47.1018
L18.7734 -47.3597
L18.933 -47.617
L19.0954 -47.8737
L19.2604 -48.1298
L19.4282 -48.3854
L19.5988 -48.6406
L19.7722 -48.8952
L19.9486 -49.1495
L20.128 -49.4033
L20.3104 -49.6567
L20.4958 -49.9097
L20.6845 -50.1624
L20.8763 -50.4147
L21.0714 -50.6666
L21.2698 -50.9182
L21.4716 -51.1695
L21.6769 -51.4204
L21.8857 -51.671
L22.098 -51.9213
L22.3141 -52.1712
L22.5339 -52.4208
L22.7574 -52.6701
L22.9848 -52.9189
L23.2162 -53.1673
L23.4515 -53.4154
L23.6909 -53.663
L23.9344 -53.9101
L24.1821 -54.1567
L24.434 -54.4027
L24.6902 -54.6482
L24.9508 -54.893
L25.2158 -55.1372
L25.4852 -55.3806
L25.7591 -55.6232
L26.0376 -55.8649
L26.3206 -56.1058
L26.6082 -56.3456
L26.9004 -56.5843
L27.1972 -56.8219
L27.4986 -57.0583
L27.8045 -57.2933
L28.1151 -57.5269
L28.4301 -57.759
L28.7497 -57.9895
L29.0736 -58.2183
L29.4018 -58.4454
L29.7342 -58.6705
L30.0707 -58.8936
L30.411 -59.1147
L30.7551 -59.3336
L31.1027 -59.5502
L31.4536 -59.7645
L31.8075 -59.9764
L32.1641 -60.1858
L32.523 -60.3927
L32.8839 -60.597
L33.2463 -60.7988
L33.6098 -60.998
L33.9738 -61.1946
L34.3377 -61.3887
L34.7009 -61.5803
L35.0627 -61.7696
L35.4224 -61.9567
L35.7791 -62.1417
L36.132 -62.325
L36.4802 -62.5066
L36.8226 -62.6869
L37.1582 -62.8662
L37.4861 -63.0449
L37.8049 -63.2233
L38.1137 -63.4019
L38.4113 -63.581
L38.6965 -63.7611
L38.9683 -63.9427
L38.7525 -64.1262
L38.257 -64.3668
L37.7608 -64.4105
L37.2641 -64.4456
L36.767 -64.472
L36.2697 -64.4897
L35.7723 -64.4987
L35.2749 -64.4991
L34.7778 -64.4908
L34.281 -64.4738
L33.7848 -64.4481
L33.2893 -64.4138
L32.7945 -64.3708
L32.3008 -64.3192
L31.8082 -64.2589
L31.3168 -64.19
L30.8269 -64.1126
L30.3386 -64.0266
L29.8519 -63.932
L29.3672 -63.829
L28.8845 -63.7174
L28.4039 -63.5974
L27.9257 -63.4691
L27.4499 -63.3323
L26.9767 -63.1872
L26.5063 -63.0339
L26.0387 -62.8723
L25.5742 -62.7025
L25.1129 -62.5246
L24.6549 -62.3386
L24.2003 -62.1446
L23.7494 -61.9426
L23.3021 -61.7327
L22.8588 -61.515
L22.4194 -61.2895
L21.9842 -61.0563
L21.5532 -60.8155
L21.1267 -60.5671
L20.7046 -60.3112
L20.2873 -60.0479
L19.8747 -59.7773
L19.467 -59.4995
L19.0644 -59.2145
L18.6669 -58.9224
L18.2747 -58.6233
L17.888 -58.3174
L17.5067 -58.0046
L17.131 -57.6852
L16.7611 -57.3591
L16.3971 -57.0266
L16.039 -56.6876
L15.6871 -56.3423
L15.3413 -55.9909
L15.0018 -55.6333
L14.6687 -55.2698
L14.342 -54.9004
L14.022 -54.5252
L13.7087 -54.1444
L13.4022 -53.7581
L13.1026 -53.3663
L12.8099 -52.9693
L12.5243 -52.5671
L12.2458 -52.1598
L11.9746 -51.7477
L11.7107 -51.3307
L11.4542 -50.9091
L11.2052 -50.4829
L10.9637 -50.0523
L10.7299 -49.6174
L10.5037 -49.1784
L10.2854 -48.7354
L10.0748 -48.2885
L9.87215 -47.8378
L9.67746 -47.3836
L9.49079 -46.9258
L9.31219 -46.4648
L9.14172 -46.0005
L8.97943 -45.5333
L8.82538 -45.0631
L8.6796 -44.5901
L8.54214 -44.1145
L8.41305 -43.6365
L8.29236 -43.1561
L8.18011 -42.6736
L8.07633 -42.189
L7.98106 -41.7025
L7.89433 -41.2143
L7.81615 -40.7245
L7.74657 -40.2333
L7.68558 -39.7408
L7.63323 -39.2471
L7.58951 -38.7525
L7.55445 -38.257
L7.52805 -37.7608
L7.51032 -37.2641
L7.50128 -36.767
L7.50091 -36.2697
L7.50923 -35.7723
L7.52622 -35.2749
L7.55189 -34.7778
L7.58622 -34.281
L7.62921 -33.7848
L7.68084 -33.2893
L7.74109 -32.7945
L7.80996 -32.3008
L7.88741 -31.8082
L7.97342 -31.3168
L8.06797 -30.8269
L8.17103 -30.3386
L8.28257 -29.8519
L8.40255 -29.3672
L8.53094 -28.8845
L8.66769 -28.4039
L8.81277 -27.9257
L8.96613 -27.4499
L9.12773 -26.9767
L9.29751 -26.5063
L9.47542 -26.0387
L9.66142 -25.5742
L9.85544 -25.1129
L10.0574 -24.6549
L10.2673 -24.2003
L10.485 -23.7494
L10.7105 -23.3021
L10.9437 -22.8588
L11.1845 -22.4194
L11.4329 -21.9842
L11.6888 -21.5532
L11.9521 -21.1267
L12.2227 -20.7046
L12.5005 -20.2873
L12.7855 -19.8747
L13.0776 -19.467
L13.3767 -19.0644
L13.6826 -18.6669
L13.9954 -18.2747
L14.3148 -17.888
L14.6409 -17.5067
z
" id="C0_2_9dbfcb9ebe"/>
    </defs>
    <g clip-path="url(#p1bffca34e9)">
     <use style="fill:#ff0000;stroke:#000000;stroke-width:2.0;" x="0.0" xlink:href="#C0_0_a811fe30f3" y="72.0"/>
    </g>
    <g clip-path="url(#p1bffca34e9)">
     <use style="fill:#ffffff;stroke:#000000;stroke-width:2.0;" x="0.0" xlink:href="#C0_1_685baf0dfd" y="72.0"/>
    </g>
    <g clip-path="url(#p1bffca34e9)">
     <use style="fill:#ffffff;stroke:#000000;stroke-width:2.0;" x="0.0" xlink:href="#C0_2_9dbfcb9ebe" y="72.0"/>
    </g>
   </g>
  </g>
 </g>
 <defs>
  <clipPath id="p1bffca34e9">
   <rect height="72.0" width="72.0" x="0.0" y="0.0"/>
  </clipPath>
 </defs>
</svg>
