<?xml version="1.0" encoding="utf-8" standalone="no"?>
<!DOCTYPE svg PUBLIC "-//W3C//DTD SVG 1.1//EN"
  "http://www.w3.org/Graphics/SVG/1.1/DTD/svg11.dtd">
<!-- Created with matplotlib (http://matplotlib.org/) -->
<svg height="72pt" version="1.1" viewBox="0 0 72 72" width="72pt" xmlns="http://www.w3.org/2000/svg" xmlns:xlink="http://www.w3.org/1999/xlink">
 <defs>
  <style type="text/css">
*{stroke-linecap:butt;stroke-linejoin:round;}
  </style>
 </defs>
 <g id="figure_1">
  <g id="patch_1">
   <path d="
M0 72
L72 72
L72 0
L0 0
z
" style="fill:none;"/>
  </g>
  <g id="axes_1">
   <g id="PatchCollection_1">
    <defs>
     <path d="
M36 -7.5
C43.5583 -7.5 50.808 -10.5029 56.1525 -15.8475
C61.4971 -21.192 64.5 -28.4417 64.5 -36
C64.5 -43.5583 61.4971 -50.808 56.1525 -56.1525
C50.808 -61.4971 43.5583 -64.5 36 -64.5
C28.4417 -64.5 21.192 -61.4971 15.8475 -56.1525
C10.5029 -50.808 7.5 -43.5583 7.5 -36
C7.5 -28.4417 10.5029 -21.192 15.8475 -15.8475
C21.192 -10.5029 28.4417 -7.5 36 -7.5
z
" id="C0_0_a811fe30f3"/>
     <path d="
M64.3079 -34.1081
L64.1244 -34.3167
L63.9365 -34.5174
L63.7446 -34.7103
L63.5488 -34.8958
L63.3494 -35.074
L63.1466 -35.245
L62.9405 -35.4092
L62.7314 -35.5666
L62.5195 -35.7176
L62.3048 -35.8622
L62.0877 -36.0007
L61.8682 -36.1334
L61.6465 -36.2602
L61.4228 -36.3815
L61.1971 -36.4975
L60.9696 -36.6082
L60.7404 -36.7139
L60.5097 -36.8147
L60.2775 -36.9108
L60.0439 -37.0023
L59.8091 -37.0894
L59.5731 -37.1722
L59.336 -37.2509
L59.0979 -37.3256
L58.8588 -37.3965
L58.6189 -37.4636
L58.3781 -37.5271
L58.1366 -37.587
L57.8944 -37.6436
L57.6516 -37.6969
L57.4082 -37.747
L57.1642 -37.794
L56.9197 -37.838
L56.6747 -37.8791
L56.4293 -37.9174
L56.1834 -37.953
L55.9372 -37.9859
L55.6907 -38.0163
L55.4437 -38.0441
L55.1965 -38.0695
L54.949 -38.0925
L54.7012 -38.1133
L54.4531 -38.1318
L54.2048 -38.1481
L53.9562 -38.1622
L53.7074 -38.1743
L53.4583 -38.1844
L53.2091 -38.1925
L52.9596 -38.1986
L52.7098 -38.2029
L52.4598 -38.2053
L52.2096 -38.2058
L51.9592 -38.2046
L51.7086 -38.2017
L51.4576 -38.197
L51.2065 -38.1906
L50.9551 -38.1826
L50.7034 -38.1729
L50.4515 -38.1616
L50.1992 -38.1488
L49.9467 -38.1343
L49.6939 -38.1183
L49.4408 -38.1008
L49.1873 -38.0818
L48.9335 -38.0612
L48.6794 -38.0392
L48.17 -38.0157
L47.9148 -37.9907
L47.6591 -37.9642
L47.403 -37.9363
L47.1465 -37.907
L46.8895 -37.8762
L46.6321 -37.8439
L46.3742 -37.8102
L46.1158 -37.7751
L45.857 -37.7385
L45.5976 -37.7005
L45.3377 -37.6611
L45.0772 -37.6202
L44.8163 -37.5778
L44.5547 -37.5339
L44.2926 -37.4886
L44.0299 -37.4419
L43.7667 -37.3936
L43.5028 -37.3438
L43.2383 -37.2925
L42.9733 -37.2396
L42.7076 -37.1852
L42.4413 -37.1293
L42.1744 -37.0718
L41.9069 -37.0126
L41.6388 -36.9519
L41.37 -36.8895
L41.1007 -36.8254
L40.8308 -36.7597
L40.5602 -36.6922
L40.2891 -36.623
L40.0174 -36.552
L39.7452 -36.4793
L39.4724 -36.4047
L39.1991 -36.3283
L38.9253 -36.2499
L38.651 -36.1697
L38.3763 -36.0875
L38.1011 -36.0033
L37.8256 -35.9171
L37.5498 -35.8288
L37.2736 -35.7384
L36.9972 -35.6458
L36.7206 -35.5511
L36.4438 -35.4541
L36.1669 -35.3549
L35.89 -35.2533
L35.6131 -35.1494
L35.3364 -35.0431
L35.0597 -34.9342
L34.7834 -34.8229
L34.5073 -34.709
L34.2317 -34.5925
L33.9566 -34.4733
L33.6821 -34.3513
L33.4083 -34.2266
L33.1354 -34.0991
L32.8633 -33.9686
L32.5924 -33.8352
L32.3226 -33.6987
L32.0542 -33.5592
L31.7872 -33.4166
L31.5218 -33.2707
L31.2581 -33.1216
L30.9964 -32.9692
L30.7366 -32.8134
L30.4791 -32.6542
L30.224 -32.4916
L29.9714 -32.3253
L29.7215 -32.1555
L29.4746 -31.9821
L29.2307 -31.8049
L28.9901 -31.6241
L28.7529 -31.4394
L28.5193 -31.2509
L28.2896 -31.0586
L28.0639 -30.8623
L27.8424 -30.6622
L27.6253 -30.4581
L27.4128 -30.2501
L27.205 -30.0381
L27.0022 -29.8221
L26.8045 -29.6022
L26.6122 -29.3783
L26.4253 -29.1505
L26.244 -28.9188
L26.0686 -28.6832
L25.8991 -28.4438
L25.7358 -28.2006
L25.5787 -27.9537
L25.4279 -27.7031
L25.2837 -27.449
L25.1461 -27.1914
L25.0152 -26.9304
L24.8911 -26.6661
L24.7739 -26.3987
L24.6637 -26.1283
L24.5605 -25.8549
L24.4644 -25.5787
L24.3754 -25.2999
L24.2936 -25.0186
L24.219 -24.735
L24.1517 -24.4492
L24.0915 -24.1614
L24.0385 -23.8718
L23.9927 -23.5804
L23.9541 -23.2876
L23.9227 -22.9934
L23.8984 -22.6981
L23.8811 -22.4017
L23.8709 -22.1046
L23.8677 -21.8068
L23.8714 -21.5086
L23.8819 -21.21
L23.8993 -20.9113
L23.9233 -20.6127
L23.954 -20.3142
L23.9913 -20.0161
L24.0351 -19.7185
L24.0852 -19.4216
L24.1417 -19.1254
L24.2045 -18.8302
L24.2733 -18.5361
L24.3483 -18.2432
L24.4292 -17.9517
L24.5161 -17.6616
L24.6087 -17.3731
L24.707 -17.0862
L24.811 -16.8012
L24.9205 -16.5182
L25.0355 -16.2371
L25.1559 -15.9581
L25.2815 -15.6813
L25.4124 -15.4069
L25.5484 -15.1348
L25.6895 -14.8651
L25.8356 -14.5979
L25.9865 -14.3334
L26.1424 -14.0715
L26.303 -13.8124
L26.4683 -13.556
L26.6383 -13.3025
L26.8128 -13.0519
L26.9919 -12.8042
L27.1755 -12.5596
L27.3635 -12.318
L27.5559 -12.0795
L27.7525 -11.8442
L27.9535 -11.6121
L28.1587 -11.3832
L28.3681 -11.1575
L28.5816 -10.9353
L28.7993 -10.7163
L29.021 -10.5008
L29.2468 -10.2887
L29.4766 -10.0801
L29.7104 -9.87494
L29.9482 -9.67337
L30.1899 -9.47539
L30.4356 -9.28104
L30.6851 -9.09035
L30.9386 -8.90337
L31.196 -8.72013
L31.4572 -8.54067
L31.7222 -8.36504
L31.9912 -8.19328
L32.2639 -8.02544
L32.7425 -7.86156
L33.2371 -7.68678
L33.7326 -7.63424
L34.2287 -7.59034
L34.7254 -7.55509
L35.2225 -7.52851
L35.7199 -7.51061
L36.2173 -7.50138
L36.7146 -7.50083
L37.2117 -7.50896
L37.7085 -7.52577
L38.2047 -7.55126
L38.7003 -7.58541
L39.1951 -7.62821
L39.6888 -7.67966
L40.1815 -7.73974
L40.6728 -7.80842
L41.1628 -7.88569
L41.6512 -7.97152
L42.1378 -8.0659
L42.6226 -8.16878
L43.1054 -8.28014
L43.586 -8.39994
L44.0643 -8.52815
L44.5401 -8.66473
L45.0134 -8.80963
L45.4839 -8.96282
L45.9515 -9.12424
L46.416 -9.29385
L46.8774 -9.47159
L47.3355 -9.65742
L47.7901 -9.85127
L48.2412 -10.0531
L48.6885 -10.2628
L49.1319 -10.4804
L49.5714 -10.7057
L50.0067 -10.9387
L50.4377 -11.1794
L50.8644 -11.4276
L51.2865 -11.6833
L51.704 -11.9465
L52.1167 -12.2169
L52.5244 -12.4946
L52.9272 -12.7795
L53.3248 -13.0714
L53.7171 -13.3703
L54.104 -13.6761
L54.4854 -13.9887
L54.8611 -14.308
L55.2311 -14.6339
L55.5953 -14.9664
L55.9535 -15.3052
L56.3056 -15.6503
L56.6515 -16.0017
L56.9912 -16.3591
L57.3244 -16.7225
L57.6511 -17.0918
L57.9713 -17.4668
L58.2847 -17.8475
L58.5914 -18.2337
L58.8912 -18.6254
L59.184 -19.0223
L59.4698 -19.4244
L59.7484 -19.8315
L60.0198 -20.2436
L60.2838 -20.6605
L60.5405 -21.082
L60.7896 -21.5081
L61.0313 -21.9386
L61.2653 -22.3734
L61.4916 -22.8123
L61.7101 -23.2552
L61.9208 -23.7021
L62.1237 -24.1526
L62.3185 -24.6068
L62.5054 -25.0645
L62.6841 -25.5255
L62.8548 -25.9897
L63.0172 -26.4569
L63.1715 -26.927
L63.3174 -27.3999
L63.4551 -27.8754
L63.5843 -28.3534
L63.7052 -28.8337
L63.8176 -29.3162
L63.9216 -29.8008
L64.017 -30.2872
L64.1039 -30.7754
L64.1823 -31.2651
L64.2521 -31.7563
L64.3132 -32.2488
L64.3658 -32.7425
z
" id="C0_1_fec56b5f38"/>
     <path d="
M39.4573 -64.2805
L39.1498 -64.1928
L38.8438 -64.1023
L38.5392 -64.009
L38.236 -63.9128
L37.9341 -63.8139
L37.6335 -63.7122
L37.3342 -63.6077
L37.0362 -63.5005
L36.7394 -63.3907
L36.4439 -63.2781
L36.1496 -63.1628
L35.8564 -63.0449
L35.5644 -62.9243
L35.2735 -62.8011
L34.9836 -62.6752
L34.6949 -62.5467
L34.4072 -62.4156
L34.1205 -62.2818
L33.8348 -62.1455
L33.5501 -62.0065
L33.2663 -61.865
L32.9834 -61.7208
L32.7015 -61.574
L32.4204 -61.4247
L32.1402 -61.2727
L31.8608 -61.1181
L31.5822 -60.9609
L31.3044 -60.8011
L31.0274 -60.6387
L30.7512 -60.4736
L30.4757 -60.306
L30.2009 -60.1357
L29.9269 -59.9628
L29.6535 -59.7872
L29.3808 -59.609
L29.1088 -59.4282
L28.8374 -59.2447
L28.5667 -59.0586
L28.2966 -58.8698
L28.0271 -58.6783
L27.7583 -58.4842
L27.49 -58.2874
L27.2224 -58.088
L26.9553 -57.8859
L26.6888 -57.6811
L26.4229 -57.4737
L26.1576 -57.2636
L25.8928 -57.0509
L25.6286 -56.8355
L25.365 -56.6175
L25.1019 -56.3969
L24.8395 -56.1737
L24.5775 -55.9479
L24.3162 -55.7195
L24.0554 -55.4885
L23.7952 -55.2551
L23.5356 -55.0191
L23.2766 -54.7806
L23.0182 -54.5398
L22.7603 -54.2965
L22.5031 -54.0508
L22.2465 -53.8028
L21.9905 -53.5526
L21.7351 -53.3001
L21.4803 -53.0455
L21.2262 -52.7888
L20.9727 -52.5301
L20.7198 -52.2693
L20.4676 -52.0067
L20.2161 -51.7423
L19.9652 -51.4762
L19.715 -51.2085
L19.4655 -50.9392
L19.2166 -50.6684
L18.9684 -50.3964
L18.7209 -50.1231
L18.4741 -49.8487
L18.2279 -49.5733
L17.9825 -49.2971
L17.7377 -49.0201
L17.4935 -48.7426
L17.2501 -48.4645
L17.0073 -48.1862
L16.7652 -47.9076
L16.5237 -47.6291
L16.2828 -47.3506
L16.0426 -47.0724
L15.803 -46.7946
L15.5641 -46.5174
L15.3257 -46.2409
L15.088 -45.9653
L14.8508 -45.6907
L14.6143 -45.4172
L14.3783 -45.1451
L14.1429 -44.8744
L13.9081 -44.6054
L13.6739 -44.338
L13.4403 -44.0726
L13.2072 -43.8091
L12.9747 -43.5478
L12.7429 -43.2886
L12.5116 -43.0319
L12.281 -42.7775
L12.051 -42.5257
L11.8217 -42.2765
L11.593 -42.03
L11.3651 -41.7863
L11.138 -41.5454
L10.9116 -41.3074
L10.6861 -41.0723
L10.4614 -40.8402
L10.2377 -40.6111
L10.0149 -40.385
L9.79312 -40.162
L9.5724 -39.942
L9.35279 -39.7251
L9.13434 -39.5112
L8.91711 -39.3004
L8.70115 -39.0927
L8.48653 -38.888
L8.27329 -38.6863
L8.0615 -38.4876
L7.85121 -38.2918
L7.6188 -38.099
L7.66849 -38.5995
L7.72681 -39.0944
L7.79374 -39.5884
L7.86926 -40.0813
L7.95335 -40.5729
L8.04599 -41.0632
L8.14714 -41.5519
L8.25678 -42.0389
L8.37486 -42.5241
L8.50136 -43.0073
L8.63624 -43.4883
L8.77946 -43.9671
L8.93096 -44.4435
L9.09071 -44.9172
L9.25866 -45.3883
L9.43475 -45.8565
L9.61893 -46.3217
L9.81115 -46.7838
L10.0114 -47.2425
L10.2195 -47.6979
L10.4354 -48.1497
L10.6592 -48.5977
L10.8907 -49.042
L11.1298 -49.4822
L11.3765 -49.9184
L11.6307 -50.3503
L11.8923 -50.7779
L12.1613 -51.2009
L12.4375 -51.6194
L12.7209 -52.033
L13.0114 -52.4418
L13.3089 -52.8456
L13.6133 -53.2442
L13.9245 -53.6376
L14.2425 -54.0256
L14.5671 -54.4082
L14.8982 -54.7851
L15.2357 -55.1563
L15.5796 -55.5216
L15.9296 -55.881
L16.2858 -56.2344
L16.648 -56.5816
L17.0161 -56.9225
L17.39 -57.2571
L17.7696 -57.5851
L18.1547 -57.9066
L18.5452 -58.2215
L18.9411 -58.5295
L19.3421 -58.8307
L19.7482 -59.125
L20.1593 -59.4122
L20.5752 -59.6922
L20.9958 -59.9651
L21.421 -60.2306
L21.8506 -60.4888
L22.2845 -60.7395
L22.7226 -60.9827
L23.1647 -61.2183
L23.6108 -61.4461
L24.0606 -61.6663
L24.5141 -61.8786
L24.971 -62.083
L25.4314 -62.2795
L25.8949 -62.468
L26.3615 -62.6484
L26.8311 -62.8207
L27.3034 -62.9848
L27.7784 -63.1407
L28.2559 -63.2884
L28.7358 -63.4277
L29.2178 -63.5587
L29.702 -63.6813
L30.188 -63.7954
L30.6759 -63.9011
L31.1653 -63.9983
L31.6562 -64.0869
L32.1485 -64.167
L32.6419 -64.2386
L33.1363 -64.3015
L33.6316 -64.3558
L34.1277 -64.4014
L34.6243 -64.4384
L35.1213 -64.4668
L35.6186 -64.4865
L36.116 -64.4974
L36.6134 -64.4998
L37.1106 -64.4934
L37.6074 -64.4784
L38.1038 -64.4546
L38.5995 -64.4222
z
" id="C0_2_10a06571da"/>
    </defs>
    <g clip-path="url(#p1bffca34e9)">
     <use style="fill:#ff0000;stroke:#000000;stroke-width:2.0;" x="0.0" xlink:href="#C0_0_a811fe30f3" y="72.0"/>
    </g>
    <g clip-path="url(#p1bffca34e9)">
     <use style="fill:#ffffff;stroke:#000000;stroke-width:2.0;" x="0.0" xlink:href="#C0_1_fec56b5f38" y="72.0"/>
    </g>
    <g clip-path="url(#p1bffca34e9)">
     <use style="fill:#ffffff;stroke:#000000;stroke-width:2.0;" x="0.0" xlink:href="#C0_2_10a06571da" y="72.0"/>
    </g>
   </g>
  </g>
 </g>
 <defs>
  <clipPath id="p1bffca34e9">
   <rect height="72.0" width="72.0" x="0.0" y="0.0"/>
  </clipPath>
 </defs>
</svg>
