<?xml version="1.0" encoding="utf-8" standalone="no"?>
<!DOCTYPE svg PUBLIC "-//W3C//DTD SVG 1.1//EN"
  "http://www.w3.org/Graphics/SVG/1.1/DTD/svg11.dtd">
<!-- Created with matplotlib (http://matplotlib.org/) -->
<svg height="72pt" version="1.1" viewBox="0 0 72 72" width="72pt" xmlns="http://www.w3.org/2000/svg" xmlns:xlink="http://www.w3.org/1999/xlink">
 <defs>
  <style type="text/css">
*{stroke-linecap:butt;stroke-linejoin:round;}
  </style>
 </defs>
 <g id="figure_1">
  <g id="patch_1">
   <path d="
M0 72
L72 72
L72 0
L0 0
z
" style="fill:none;"/>
  </g>
  <g id="axes_1">
   <g id="PatchCollection_1">
    <defs>
     <path d="
M36 -7.5
C43.5583 -7.5 50.808 -10.5029 56.1525 -15.8475
C61.4971 -21.192 64.5 -28.4417 64.5 -36
C64.5 -43.5583 61.4971 -50.808 56.1525 -56.1525
C50.808 -61.4971 43.5583 -64.5 36 -64.5
C28.4417 -64.5 21.192 -61.4971 15.8475 -56.1525
C10.5029 -50.808 7.5 -43.5583 7.5 -36
C7.5 -28.4417 10.5029 -21.192 15.8475 -15.8475
C21.192 -10.5029 28.4417 -7.5 36 -7.5
z
" id="C0_0_a811fe30f3"/>
     <path d="
M46.4511 -9.4926
L45.969 -9.34341
L45.4845 -9.20655
L44.9983 -9.08248
L44.5114 -8.97159
L44.0244 -8.87431
L43.5383 -8.791
L43.0542 -8.72202
L42.5729 -8.6677
L42.0956 -8.62832
L41.6234 -8.60414
L41.1572 -8.59537
L40.6983 -8.60215
L40.2477 -8.6246
L39.8065 -8.66275
L39.3758 -8.71659
L38.9566 -8.78603
L38.5498 -8.87092
L38.1562 -8.97104
L37.7767 -9.08609
L37.4118 -9.21571
L37.0621 -9.35948
L36.728 -9.51692
L36.4096 -9.6875
L36.1071 -9.87063
L35.8206 -10.0657
L35.5497 -10.2721
L35.2944 -10.4891
L35.0542 -10.716
L34.8287 -10.9523
L34.6175 -11.1972
L34.42 -11.45
L34.2356 -11.7102
L34.0637 -11.9771
L33.9038 -12.25
L33.7551 -12.5285
L33.6172 -12.812
L33.4893 -13.1
L33.371 -13.392
L33.2617 -13.6875
L33.1608 -13.9861
L33.0679 -14.2873
L32.9824 -14.591
L32.9039 -14.8965
L32.832 -15.2038
L32.7663 -15.5123
L32.7064 -15.8219
L32.652 -16.1324
L32.6027 -16.4433
L32.5582 -16.7546
L32.5182 -17.066
L32.4824 -17.3773
L32.4507 -17.6884
L32.4227 -17.9991
L32.3983 -18.3092
L32.3772 -18.6186
L32.3593 -18.9273
L32.3443 -19.235
L32.3321 -19.5417
L32.3226 -19.8474
L32.3155 -20.1518
L32.3108 -20.455
L32.3084 -20.7569
L32.308 -21.0575
L32.3097 -21.3567
L32.3132 -21.6544
L32.3186 -21.9507
L32.3256 -22.2454
L32.3342 -22.5387
L32.3444 -22.8305
L32.3561 -23.1207
L32.3691 -23.4094
L32.3835 -23.6966
L32.3992 -23.9822
L32.416 -24.2663
L32.434 -24.549
L32.4531 -24.8301
L32.4733 -25.1098
L32.4945 -25.388
L32.5167 -25.6648
L32.5398 -25.9403
L32.5638 -26.2143
L32.5886 -26.487
L32.6144 -26.7584
L32.6409 -27.0286
L32.6682 -27.2975
L32.6963 -27.5652
L32.7252 -27.8317
L32.7547 -28.0971
L32.785 -28.3614
L32.8159 -28.6247
L32.8476 -28.887
L32.8799 -29.1484
L32.9128 -29.4088
L32.9464 -29.6684
L32.9806 -29.9271
L33.0154 -30.1851
L33.0509 -30.4423
L33.0869 -30.6988
L33.1236 -30.9548
L33.1609 -31.2101
L33.1987 -31.4648
L33.2372 -31.7191
L33.2763 -31.9729
L33.3159 -32.2264
L33.3562 -32.4794
L33.397 -32.7322
L33.4385 -32.9847
L33.4806 -33.237
L33.5233 -33.4891
L33.6105 -33.7412
L33.6551 -33.9931
L33.7003 -34.2451
L33.7461 -34.497
L33.7927 -34.7491
L33.8399 -35.0013
L33.8877 -35.2536
L33.9363 -35.5062
L33.9856 -35.7591
L34.0356 -36.0122
L34.0863 -36.2658
L34.1378 -36.5197
L34.1901 -36.7741
L34.2431 -37.029
L34.297 -37.2845
L34.3516 -37.5405
L34.4071 -37.7972
L34.4635 -38.0546
L34.5208 -38.3127
L34.5789 -38.5716
L34.638 -38.8313
L34.6981 -39.0918
L34.7591 -39.3533
L34.8212 -39.6156
L34.8843 -39.879
L34.9484 -40.1434
L35.0136 -40.4088
L35.08 -40.6753
L35.1475 -40.9429
L35.2162 -41.2116
L35.2862 -41.4816
L35.3574 -41.7527
L35.4299 -42.0251
L35.5037 -42.2987
L35.5789 -42.5736
L35.6556 -42.8498
L35.7337 -43.1273
L35.8133 -43.4062
L35.8945 -43.6863
L35.9773 -43.9679
L36.0618 -44.2507
L36.1479 -44.5349
L36.2359 -44.8204
L36.3256 -45.1072
L36.4173 -45.3953
L36.5109 -45.6846
L36.6066 -45.9752
L36.7043 -46.2671
L36.8042 -46.56
L36.9063 -46.8541
L37.0107 -47.1492
L37.1176 -47.4452
L37.2269 -47.7422
L37.3388 -48.0399
L37.4534 -48.3384
L37.5707 -48.6374
L37.6909 -48.9369
L37.8142 -49.2367
L37.9405 -49.5366
L38.0701 -49.8365
L38.2031 -50.1363
L38.3396 -50.4356
L38.4798 -50.7343
L38.6238 -51.0322
L38.7718 -51.3289
L38.924 -51.6241
L39.0806 -51.9177
L39.2417 -52.2092
L39.4077 -52.4983
L39.5786 -52.7846
L39.7549 -53.0676
L39.9367 -53.347
L40.1243 -53.6222
L40.318 -53.8927
L40.5181 -54.1581
L40.7249 -54.4176
L40.9387 -54.6708
L41.1598 -54.9169
L41.3886 -55.1553
L41.6254 -55.3854
L41.8706 -55.6062
L42.1243 -55.8172
L42.387 -56.0176
L42.6588 -56.2065
L42.94 -56.3832
L43.2307 -56.547
L43.531 -56.6971
L43.841 -56.8328
L44.1606 -56.9534
L44.4896 -57.0584
L44.8279 -57.1472
L45.1751 -57.2193
L45.5308 -57.2744
L45.8945 -57.3123
L46.2657 -57.3327
L46.6436 -57.3355
L47.0276 -57.3208
L47.417 -57.2887
L47.8108 -57.2393
L48.2084 -57.173
L48.6088 -57.09
L49.0114 -56.9909
L49.4151 -56.8759
L49.8194 -56.7456
L50.2232 -56.6005
L50.6261 -56.4411
L51.0272 -56.2681
L51.4258 -56.082
L51.8215 -55.8833
L52.2135 -55.6727
L52.6014 -55.4507
L52.9847 -55.2179
L53.3629 -54.9749
L53.7356 -54.7222
L54.1025 -54.4603
L54.4632 -54.1898
L54.8175 -53.9112
L55.1651 -53.625
L55.5058 -53.3316
L55.8395 -53.0316
L56.1658 -52.7253
L56.4848 -52.4133
L56.7963 -52.0959
L57.1002 -51.7735
L57.3965 -51.4464
L57.6851 -51.1152
L57.966 -50.78
L58.2392 -50.4412
L58.5047 -50.0991
L58.7625 -49.7541
L59.0127 -49.4063
L59.2553 -49.0561
L59.4903 -48.7037
L59.7179 -48.3493
L59.938 -47.9931
L60.1508 -47.6355
L60.3563 -47.2764
L60.5546 -46.9162
L60.7458 -46.555
L60.9301 -46.1929
L61.1074 -45.8301
L61.2779 -45.4667
L61.4416 -45.1029
L61.5988 -44.7387
L61.7494 -44.3743
L61.8936 -44.0097
L62.0314 -43.6451
L62.163 -43.2805
L62.2885 -42.9161
L62.4079 -42.5517
L62.5213 -42.1876
L62.6289 -41.8238
L62.7307 -41.4603
L62.8268 -41.0972
L62.9172 -40.7344
L63.0021 -40.3721
L63.0816 -40.0102
L63.1556 -39.6489
L63.2243 -39.2879
L63.2878 -38.9275
L63.3461 -38.5677
L63.3992 -38.2083
L63.4472 -37.8494
L63.4902 -37.4911
L63.5283 -37.1333
L63.5614 -36.776
L63.5896 -36.4193
L63.613 -36.063
L63.6316 -35.7072
L63.6453 -35.3519
L63.6544 -34.9971
L63.6587 -34.6427
L63.6583 -34.2887
L63.6532 -33.9352
L63.6434 -33.5821
L63.629 -33.2293
L63.6099 -32.8769
L63.5862 -32.5249
L63.5578 -32.1732
L63.5248 -31.8218
L63.4871 -31.4706
L63.4447 -31.1198
L63.3976 -30.7692
L63.3459 -30.4188
L63.2894 -30.0686
L63.2282 -29.7186
L63.1621 -29.3688
L63.0913 -29.0192
L63.0156 -28.6697
L62.9351 -28.3204
L62.8495 -27.9712
L62.7591 -27.622
L62.6635 -27.273
L62.563 -26.9241
L62.4572 -26.5753
L62.3463 -26.2266
L62.2301 -25.878
L62.1085 -25.5295
L61.9816 -25.1811
L61.8491 -24.8328
L61.7112 -24.4847
L61.5675 -24.1367
L61.4182 -23.7889
L61.263 -23.4412
L61.102 -23.0938
L60.935 -22.7467
L60.7618 -22.3999
L60.5825 -22.0534
L60.3969 -21.7073
L60.205 -21.3616
L60.0065 -21.0164
L59.8014 -20.6719
L59.5262 -20.328
L59.2418 -19.9137
L58.9504 -19.5056
L58.652 -19.1024
L58.3467 -18.7045
L58.0346 -18.3118
L57.7158 -17.9245
L57.3904 -17.5427
L57.0584 -17.1665
L56.7201 -16.796
L56.3754 -16.4314
L56.0245 -16.0728
L55.6675 -15.7202
L55.3046 -15.3738
L54.9357 -15.0337
L54.5611 -14.7
L54.1808 -14.3728
L53.795 -14.0522
L53.4038 -13.7382
L53.0072 -13.431
L52.6055 -13.1307
L52.1988 -12.8374
L51.787 -12.5511
L51.3705 -12.272
L50.9493 -12.0001
L50.5236 -11.7355
L50.0934 -11.4783
L49.6589 -11.2285
L49.2203 -10.9863
L48.7777 -10.7518
L48.3311 -10.5249
L47.8808 -10.3058
L47.4269 -10.0945
L46.9695 -9.89106
z
" id="C0_1_2e93527aa9"/>
     <path d="
M12.4309 -52.0012
L12.6728 -52.3268
L12.9206 -52.6512
L13.1742 -52.9744
L13.4338 -53.2963
L13.6995 -53.6168
L13.9713 -53.936
L14.2493 -54.2536
L14.5335 -54.5697
L14.8241 -54.8841
L15.1211 -55.1968
L15.4245 -55.5076
L15.7345 -55.8165
L16.051 -56.1233
L16.374 -56.4279
L16.7037 -56.7303
L17.0401 -57.0302
L17.3831 -57.3276
L17.7328 -57.6223
L18.0892 -57.9141
L18.4522 -58.203
L18.8219 -58.4888
L19.1982 -58.7713
L19.5809 -59.0504
L19.9702 -59.326
L20.3658 -59.5978
L20.7676 -59.8657
L21.1756 -60.1297
L21.5895 -60.3894
L22.0092 -60.6449
L22.4345 -60.8959
L22.8651 -61.1424
L23.3008 -61.3842
L23.7413 -61.6212
L24.1862 -61.8533
L24.6352 -62.0805
L24.6211 -62.3027
L24.1668 -62.1299
L23.7161 -61.9273
L23.2692 -61.7169
L22.8261 -61.4986
L22.3871 -61.2725
L21.9521 -61.0387
L21.5215 -60.7973
L21.0953 -60.5484
L20.6736 -60.292
L20.2566 -60.0281
L19.8444 -59.757
L19.4371 -59.4786
L19.0348 -59.1931
L18.6377 -58.9005
L18.2459 -58.6009
L17.8596 -58.2945
L17.4787 -57.9812
L17.1035 -57.6613
L16.734 -57.3347
L16.3704 -57.0017
L16.0128 -56.6623
L15.6613 -56.3165
L15.3159 -55.9646
L14.9769 -55.6066
L14.6443 -55.2426
L14.3181 -54.8728
L13.9986 -54.4972
L13.6858 -54.116
L13.3798 -53.7293
L13.0807 -53.3371
L12.7885 -52.9397
z
" id="C0_2_1652bec097"/>
    </defs>
    <g clip-path="url(#p1bffca34e9)">
     <use style="fill:#ffffff;stroke:#000000;stroke-width:2.0;" x="0.0" xlink:href="#C0_0_a811fe30f3" y="72.0"/>
    </g>
    <g clip-path="url(#p1bffca34e9)">
     <use style="fill:#ff0000;stroke:#000000;stroke-width:2.0;" x="0.0" xlink:href="#C0_1_2e93527aa9" y="72.0"/>
    </g>
    <g clip-path="url(#p1bffca34e9)">
     <use style="fill:#ff0000;stroke:#000000;stroke-width:2.0;" x="0.0" xlink:href="#C0_2_1652bec097" y="72.0"/>
    </g>
   </g>
  </g>
 </g>
 <defs>
  <clipPath id="p1bffca34e9">
   <rect height="72.0" width="72.0" x="0.0" y="0.0"/>
  </clipPath>
 </defs>
</svg>
