<?xml version="1.0" encoding="utf-8" standalone="no"?>
<!DOCTYPE svg PUBLIC "-//W3C//DTD SVG 1.1//EN"
  "http://www.w3.org/Graphics/SVG/1.1/DTD/svg11.dtd">
<!-- Created with matplotlib (http://matplotlib.org/) -->
<svg height="72pt" version="1.1" viewBox="0 0 72 72" width="72pt" xmlns="http://www.w3.org/2000/svg" xmlns:xlink="http://www.w3.org/1999/xlink">
 <defs>
  <style type="text/css">
*{stroke-linecap:butt;stroke-linejoin:round;}
  </style>
 </defs>
 <g id="figure_1">
  <g id="patch_1">
   <path d="
M0 72
L72 72
L72 0
L0 0
z
" style="fill:none;"/>
  </g>
  <g id="axes_1">
   <g id="PatchCollection_1">
    <defs>
     <path d="
M36 -7.5
C43.5583 -7.5 50.808 -10.5029 56.1525 -15.8475
C61.4971 -21.192 64.5 -28.4417 64.5 -36
C64.5 -43.5583 61.4971 -50.808 56.1525 -56.1525
C50.808 -61.4971 43.5583 -64.5 36 -64.5
C28.4417 -64.5 21.192 -61.4971 15.8475 -56.1525
C10.5029 -50.808 7.5 -43.5583 7.5 -36
C7.5 -28.4417 10.5029 -21.192 15.8475 -15.8475
C21.192 -10.5029 28.4417 -7.5 36 -7.5
z
" id="C0_0_a811fe30f3"/>
     <path d="
M32.7108 -7.90232
L32.8403 -8.11641
L32.9537 -8.33628
L33.0515 -8.56159
L33.134 -8.79205
L33.2017 -9.02737
L33.2552 -9.26727
L33.2951 -9.51148
L33.322 -9.75974
L33.3366 -10.0118
L33.3396 -10.2674
L33.3315 -10.5264
L33.3133 -10.7884
L33.2854 -11.0534
L33.2487 -11.321
L33.2037 -11.5912
L33.1512 -11.8636
L33.0917 -12.1382
L33.0258 -12.4147
L32.9542 -12.693
L32.8774 -12.9729
L32.7958 -13.2543
L32.71 -13.5369
L32.6204 -13.8207
L32.5275 -14.1054
L32.4316 -14.3911
L32.3332 -14.6774
L32.2326 -14.9644
L32.13 -15.2519
L32.0258 -15.5397
L31.9203 -15.8278
L31.8137 -16.116
L31.7062 -16.4043
L31.5981 -16.6926
L31.4895 -16.9807
L31.3807 -17.2687
L31.2717 -17.5563
L31.1627 -17.8437
L31.0538 -18.1305
L30.9452 -18.417
L30.837 -18.7029
L30.7293 -18.9882
L30.6221 -19.2729
L30.5155 -19.5569
L30.4096 -19.8402
L30.3044 -20.1228
L30.2 -20.4046
L30.0965 -20.6856
L29.9939 -20.9659
L29.8921 -21.2453
L29.7913 -21.5238
L29.6915 -21.8015
L29.5927 -22.0784
L29.4949 -22.3544
L29.3981 -22.6296
L29.3023 -22.9039
L29.2075 -23.1774
L29.1138 -23.45
L29.0211 -23.7218
L28.9295 -23.9927
L28.8389 -24.2629
L28.7493 -24.5323
L28.6608 -24.8009
L28.5733 -25.0688
L28.4868 -25.336
L28.4013 -25.6024
L28.3167 -25.8682
L28.2332 -26.1333
L28.1507 -26.3978
L28.0691 -26.6618
L27.9884 -26.9251
L27.9087 -27.1879
L27.8299 -27.4503
L27.7521 -27.7121
L27.6751 -27.9736
L27.599 -28.2346
L27.5238 -28.4952
L27.4495 -28.7556
L27.3759 -29.0156
L27.3033 -29.2755
L27.2314 -29.535
L27.1604 -29.7945
L27.0901 -30.0537
L27.0206 -30.3129
L26.9519 -30.5721
L26.884 -30.8312
L26.8167 -31.0903
L26.7503 -31.3495
L26.6845 -31.6088
L26.5551 -31.8683
L26.4914 -32.1279
L26.4284 -32.3878
L26.3661 -32.648
L26.3044 -32.9084
L26.2434 -33.1693
L26.183 -33.4305
L26.1233 -33.6922
L26.0641 -33.9543
L26.0056 -34.217
L25.9477 -34.4802
L25.8904 -34.7441
L25.8336 -35.0086
L25.7775 -35.2738
L25.7219 -35.5397
L25.6669 -35.8064
L25.6125 -36.0739
L25.5586 -36.3423
L25.5053 -36.6115
L25.4525 -36.8817
L25.4003 -37.1529
L25.3486 -37.425
L25.2975 -37.6982
L25.2468 -37.9725
L25.1967 -38.2479
L25.1472 -38.5244
L25.0981 -38.8021
L25.0496 -39.0811
L25.0016 -39.3612
L24.954 -39.6426
L24.907 -39.9253
L24.8605 -40.2094
L24.8144 -40.4947
L24.7689 -40.7814
L24.7238 -41.0695
L24.6792 -41.359
L24.635 -41.6499
L24.5913 -41.9422
L24.5481 -42.2359
L24.5052 -42.531
L24.4628 -42.8275
L24.4208 -43.1254
L24.3792 -43.4247
L24.3379 -43.7254
L24.297 -44.0275
L24.2564 -44.3309
L24.216 -44.6356
L24.1759 -44.9416
L24.1361 -45.2488
L24.0964 -45.5572
L24.0568 -45.8667
L24.0174 -46.1772
L23.9779 -46.4887
L23.9384 -46.8011
L23.8988 -47.1143
L23.859 -47.4282
L23.8189 -47.7427
L23.7784 -48.0577
L23.7374 -48.373
L23.6958 -48.6884
L23.6534 -49.0039
L23.6102 -49.3193
L23.5659 -49.6343
L23.5204 -49.9487
L23.4734 -50.2624
L23.4248 -50.5752
L23.3743 -50.8867
L23.3218 -51.1967
L23.2668 -51.5049
L23.2092 -51.8111
L23.1486 -52.1149
L23.0847 -52.4159
L23.0172 -52.714
L22.9456 -53.0085
L22.8697 -53.2993
L22.7889 -53.5858
L22.7028 -53.8677
L22.6111 -54.1445
L22.5132 -54.4157
L22.4088 -54.681
L22.2973 -54.9399
L22.1782 -55.1917
L22.0513 -55.4362
L21.9159 -55.6727
L21.7718 -55.9008
L21.6184 -56.12
L21.4555 -56.3299
L21.2828 -56.5298
L21.0999 -56.7195
L20.9067 -56.8984
L20.7031 -57.0661
L20.4889 -57.2223
L20.2641 -57.3665
L20.0287 -57.4985
L19.783 -57.6178
L19.5269 -57.7243
L19.2609 -57.8178
L18.9851 -57.8979
L18.6998 -57.9646
L18.4056 -58.0176
L18.1029 -58.0569
L17.6716 -58.0825
L17.2934 -57.8247
L16.921 -57.5015
L16.5545 -57.1718
L16.1938 -56.8356
L15.8391 -56.493
L15.4907 -56.1442
L15.1484 -55.7893
L14.8125 -55.4284
L14.4831 -55.0615
L14.1602 -54.6888
L13.8439 -54.3104
L13.5345 -53.9265
L13.2318 -53.5371
L12.9361 -53.1423
L12.6474 -52.7424
L12.3659 -52.3373
L12.0915 -51.9273
L11.8244 -51.5124
L11.5647 -51.0927
L11.3124 -50.6685
L11.0676 -50.2398
L10.8305 -49.8068
L10.601 -49.3696
L10.3792 -48.9283
L10.1653 -48.483
L9.95918 -48.034
L9.76102 -47.5813
L9.57086 -47.125
L9.38875 -46.6654
L9.21474 -46.2025
L9.0489 -45.7365
L8.89126 -45.2676
L8.74188 -44.7958
L8.6008 -44.3214
L8.46807 -43.8444
L8.34373 -43.365
L8.22781 -42.8834
L8.12035 -42.3997
L8.02139 -41.914
L7.93094 -41.4265
L7.84905 -40.9374
L7.77573 -40.4468
L7.711 -39.9548
L7.6549 -39.4616
L7.60743 -38.9674
L7.56861 -38.4722
L7.53845 -37.9763
L7.51695 -37.4798
L7.50414 -36.9829
L7.5 -36.4856
L7.50455 -35.9882
L7.51777 -35.4909
L7.53968 -34.9936
L7.57025 -34.4967
L7.60948 -34.0002
L7.65736 -33.5044
L7.71387 -33.0093
L7.779 -32.5151
L7.85272 -32.0219
L7.93502 -31.53
L8.02587 -31.0395
L8.12524 -30.5504
L8.2331 -30.063
L8.34942 -29.5774
L8.47416 -29.0938
L8.60728 -28.6123
L8.74875 -28.133
L8.89852 -27.6562
L9.05655 -27.1818
L9.22278 -26.7102
L9.39717 -26.2414
L9.57967 -25.7755
L9.77021 -25.3128
L9.96874 -24.8533
L10.1752 -24.3973
L10.3895 -23.9447
L10.6117 -23.4959
L10.8415 -23.0508
L11.079 -22.6097
L11.3242 -22.1726
L11.5768 -21.7398
L11.8369 -21.3113
L12.1043 -20.8873
L12.379 -20.4679
L12.6609 -20.0533
L12.9499 -19.6434
L13.246 -19.2386
L13.5489 -18.8389
L13.8587 -18.4444
L14.1753 -18.0552
L14.4985 -17.6716
L14.8282 -17.2934
L15.1644 -16.921
L15.507 -16.5545
L15.8558 -16.1938
L16.2107 -15.8391
L16.5716 -15.4907
L16.9385 -15.1484
L17.3112 -14.8125
L17.6896 -14.4831
L18.0735 -14.1602
L18.4629 -13.8439
L18.8577 -13.5345
L19.2576 -13.2318
L19.6627 -12.9361
L20.0727 -12.6474
L20.4876 -12.3659
L20.9073 -12.0915
L21.3315 -11.8244
L21.7602 -11.5647
L22.1932 -11.3124
L22.6304 -11.0676
L23.0717 -10.8305
L23.517 -10.601
L23.966 -10.3792
L24.4187 -10.1653
L24.875 -9.95918
L25.3346 -9.76102
L25.7975 -9.57086
L26.2635 -9.38875
L26.7324 -9.21474
L27.2042 -9.0489
L27.6786 -8.89126
L28.1556 -8.74188
L28.635 -8.6008
L29.1166 -8.46807
L29.6003 -8.34373
L30.086 -8.22781
L30.5735 -8.12035
L31.0626 -8.02139
L31.5532 -7.93094
L32.0452 -7.84905
z
" id="C0_1_bf4849e965"/>
     <path d="
M54.0421 -14.1071
L54.0971 -14.4199
L54.1568 -14.7379
L54.2205 -15.0609
L54.2875 -15.3885
L54.3573 -15.7204
L54.4293 -16.0561
L54.503 -16.3952
L54.5779 -16.7376
L54.6535 -17.0828
L54.7294 -17.4305
L54.8053 -17.7804
L54.8807 -18.1322
L54.9553 -18.4856
L55.0288 -18.8403
L55.101 -19.1962
L55.1716 -19.5529
L55.2404 -19.9102
L55.3072 -20.2679
L55.3718 -20.6258
L55.4342 -20.9837
L55.4941 -21.3414
L55.5515 -21.6987
L55.6062 -22.0555
L55.6583 -22.4117
L55.7076 -22.767
L55.7542 -23.1215
L55.7978 -23.4749
L55.8386 -23.8272
L55.8766 -24.1782
L55.9116 -24.5279
L55.9438 -24.8762
L55.973 -25.2231
L55.9994 -25.5685
L56.0229 -25.9122
L56.0436 -26.2544
L56.0614 -26.5949
L56.0765 -26.9337
L56.0888 -27.2708
L56.0984 -27.6061
L56.1053 -27.9397
L56.1095 -28.2716
L56.111 -28.6016
L56.11 -28.9299
L56.1064 -29.2564
L56.1003 -29.5812
L56.0917 -29.9042
L56.0806 -30.2254
L56.0672 -30.545
L56.0513 -30.8628
L56.0331 -31.1789
L56.0126 -31.4934
L55.9897 -31.8063
L55.9647 -32.1175
L55.9373 -32.4272
L55.9078 -32.7353
L55.8761 -33.0419
L55.8423 -33.347
L55.8063 -33.6506
L55.7683 -33.9529
L55.7281 -34.2538
L55.6859 -34.5533
L55.6417 -34.8516
L55.5954 -35.1486
L55.5471 -35.4444
L55.4968 -35.7391
L55.4445 -36.0326
L55.3902 -36.325
L55.3339 -36.6164
L55.2757 -36.9068
L55.2155 -37.1962
L55.1534 -37.4847
L55.0893 -37.7723
L55.0233 -38.0591
L54.9553 -38.3451
L54.8854 -38.6304
L54.8135 -38.915
L54.7396 -39.1989
L54.6638 -39.4822
L54.586 -39.765
L54.5062 -40.0472
L54.4244 -40.3289
L54.3405 -40.6102
L54.2547 -40.891
L54.1668 -41.1715
L54.0769 -41.4517
L53.9849 -41.7316
L53.8908 -42.0112
L53.7946 -42.2906
L53.6962 -42.5698
L53.5957 -42.8489
L53.493 -43.1279
L53.3881 -43.4069
L53.2809 -43.6858
L53.1715 -43.9647
L53.0598 -44.2436
L52.9458 -44.5226
L52.8294 -44.8016
L52.7106 -45.0808
L52.5894 -45.3601
L52.4658 -45.6396
L52.3397 -45.9193
L52.211 -46.1992
L52.0798 -46.4794
L51.946 -46.7598
L51.8096 -47.0405
L51.6705 -47.3215
L51.5287 -47.6027
L51.3841 -47.8843
L51.2368 -48.1663
L51.0867 -48.4485
L50.9337 -48.7311
L50.7778 -49.0141
L50.6191 -49.2974
L50.4573 -49.581
L50.2926 -49.865
L50.1249 -50.1493
L49.9541 -50.4339
L49.7803 -50.7188
L49.6034 -51.0041
L49.4233 -51.2895
L49.2402 -51.5753
L49.0539 -51.8612
L48.8645 -52.1474
L48.6719 -52.4336
L48.4762 -52.72
L48.2774 -53.0065
L48.0754 -53.293
L47.8704 -53.5795
L47.6623 -53.8659
L47.4512 -54.1522
L47.2371 -54.4384
L47.0202 -54.7242
L46.8004 -55.0098
L46.5779 -55.295
L46.3528 -55.5797
L46.1252 -55.8639
L45.8952 -56.1475
L45.663 -56.4304
L45.4288 -56.7125
L45.1927 -56.9939
L44.955 -57.2742
L44.7159 -57.5536
L44.4756 -57.8319
L44.2345 -58.1091
L43.9929 -58.3849
L43.7511 -58.6595
L43.5096 -58.9327
L43.2686 -59.2044
L43.0286 -59.4746
L42.7901 -59.7432
L42.5536 -60.0102
L42.3197 -60.2755
L42.0888 -60.5391
L41.8615 -60.8009
L41.6385 -61.061
L41.4205 -61.3193
L41.208 -61.5757
L41.0017 -61.8304
L40.8024 -62.0833
L40.6106 -62.3343
L40.4272 -62.5836
L40.2528 -62.8311
L40.0881 -63.0769
L39.9338 -63.3209
L39.7904 -63.5631
L39.6586 -63.8036
L39.5389 -64.0422
L39.9268 -64.2791
L40.4188 -64.2282
L40.9095 -64.1554
L41.3987 -64.0739
L41.8863 -63.984
L42.3721 -63.8855
L42.8559 -63.7785
L43.3376 -63.6631
L43.8172 -63.5392
L44.2943 -63.407
L44.7689 -63.2664
L45.2408 -63.1175
L45.7099 -62.9603
L46.1761 -62.7949
L46.6391 -62.6214
L47.099 -62.4397
L47.5554 -62.25
L48.0083 -62.0523
L48.4576 -61.8467
L48.903 -61.6332
L49.3446 -61.4118
L49.782 -61.1828
L50.2153 -60.9461
L50.6442 -60.7017
L51.0687 -60.4499
L51.4886 -60.1906
L51.9038 -59.9239
L52.3141 -59.6499
L52.7195 -59.3688
L53.1197 -59.0805
L53.5148 -58.7852
L53.9045 -58.4829
L54.2887 -58.1738
L54.6674 -57.858
L55.0404 -57.5355
L55.4076 -57.2064
L55.7689 -56.8709
L56.1242 -56.529
L56.4733 -56.1808
L56.8162 -55.8266
L57.1528 -55.4662
L57.4829 -55.1
L57.8065 -54.7279
L58.1234 -54.3501
L58.4336 -53.9667
L58.737 -53.5779
L59.0334 -53.1837
L59.3228 -52.7843
L59.6051 -52.3797
L59.8803 -51.9702
L60.1481 -51.5558
L60.4086 -51.1367
L60.6617 -50.7129
L60.9072 -50.2847
L61.1452 -49.8521
L61.3755 -49.4153
L61.598 -48.9744
L61.8128 -48.5296
L62.0197 -48.0809
L62.2187 -47.6286
L62.4097 -47.1727
L62.5927 -46.7134
L62.7675 -46.2509
L62.9342 -45.7852
L63.0927 -45.3166
L63.2429 -44.8451
L63.3849 -44.3709
L63.5185 -43.8942
L63.6437 -43.415
L63.7605 -42.9336
L63.8689 -42.4501
L63.9687 -41.9647
L64.06 -41.4774
L64.1428 -40.9884
L64.217 -40.4979
L64.2827 -40.0061
L64.3397 -39.513
L64.388 -39.0189
L64.4278 -38.5238
L64.4588 -38.028
L64.4812 -37.5316
L64.4949 -37.0347
L64.5 -36.5374
L64.4963 -36.0401
L64.484 -35.5427
L64.463 -35.0454
L64.4333 -34.5484
L64.395 -34.0519
L64.348 -33.556
L64.2924 -33.0608
L64.2282 -32.5665
L64.1554 -32.0732
L64.0739 -31.5812
L63.984 -31.0905
L63.8855 -30.6013
L63.7785 -30.1137
L63.6631 -29.6279
L63.5392 -29.1441
L63.407 -28.6624
L63.2664 -28.1828
L63.1175 -27.7057
L62.9603 -27.2311
L62.7949 -26.7592
L62.6214 -26.2901
L62.4397 -25.8239
L62.25 -25.3609
L62.0523 -24.901
L61.8467 -24.4446
L61.6332 -23.9917
L61.4118 -23.5424
L61.1828 -23.097
L60.9461 -22.6554
L60.7017 -22.218
L60.4499 -21.7847
L60.1906 -21.3558
L59.9239 -20.9313
L59.6499 -20.5114
L59.3688 -20.0962
L59.0805 -19.6859
L58.7852 -19.2805
L58.4829 -18.8803
L58.1738 -18.4852
L57.858 -18.0955
L57.5355 -17.7113
L57.2064 -17.3326
L56.8709 -16.9596
L56.529 -16.5924
L56.1808 -16.2311
L55.8266 -15.8758
L55.4662 -15.5267
L55.1 -15.1838
L54.7279 -14.8472
z
" id="C0_2_b3033e7368"/>
    </defs>
    <g clip-path="url(#p1bffca34e9)">
     <use style="fill:#ff0000;stroke:#000000;stroke-width:2.0;" x="0.0" xlink:href="#C0_0_a811fe30f3" y="72.0"/>
    </g>
    <g clip-path="url(#p1bffca34e9)">
     <use style="fill:#ffffff;stroke:#000000;stroke-width:2.0;" x="0.0" xlink:href="#C0_1_bf4849e965" y="72.0"/>
    </g>
    <g clip-path="url(#p1bffca34e9)">
     <use style="fill:#ffffff;stroke:#000000;stroke-width:2.0;" x="0.0" xlink:href="#C0_2_b3033e7368" y="72.0"/>
    </g>
   </g>
  </g>
 </g>
 <defs>
  <clipPath id="p1bffca34e9">
   <rect height="72.0" width="72.0" x="0.0" y="0.0"/>
  </clipPath>
 </defs>
</svg>
