<?xml version="1.0" encoding="utf-8" standalone="no"?>
<!DOCTYPE svg PUBLIC "-//W3C//DTD SVG 1.1//EN"
  "http://www.w3.org/Graphics/SVG/1.1/DTD/svg11.dtd">
<!-- Created with matplotlib (http://matplotlib.org/) -->
<svg height="72pt" version="1.1" viewBox="0 0 72 72" width="72pt" xmlns="http://www.w3.org/2000/svg" xmlns:xlink="http://www.w3.org/1999/xlink">
 <defs>
  <style type="text/css">
*{stroke-linecap:butt;stroke-linejoin:round;}
  </style>
 </defs>
 <g id="figure_1">
  <g id="patch_1">
   <path d="
M0 72
L72 72
L72 0
L0 0
z
" style="fill:none;"/>
  </g>
  <g id="axes_1">
   <g id="PatchCollection_1">
    <defs>
     <path d="
M36 -7.5
C43.5583 -7.5 50.808 -10.5029 56.1525 -15.8475
C61.4971 -21.192 64.5 -28.4417 64.5 -36
C64.5 -43.5583 61.4971 -50.808 56.1525 -56.1525
C50.808 -61.4971 43.5583 -64.5 36 -64.5
C28.4417 -64.5 21.192 -61.4971 15.8475 -56.1525
C10.5029 -50.808 7.5 -43.5583 7.5 -36
C7.5 -28.4417 10.5029 -21.192 15.8475 -15.8475
C21.192 -10.5029 28.4417 -7.5 36 -7.5
z
" id="C0_0_a811fe30f3"/>
     <path d="
M62.4976 -46.0076
L62.3635 -45.8321
L62.2278 -45.6588
L62.0904 -45.4878
L61.9516 -45.3189
L61.8113 -45.1522
L61.6694 -44.9874
L61.5262 -44.8246
L61.3815 -44.6636
L61.2355 -44.5043
L61.088 -44.3468
L60.9392 -44.191
L60.7891 -44.0367
L60.6376 -43.8839
L60.4848 -43.7326
L60.3307 -43.5827
L60.1753 -43.4342
L60.0185 -43.2869
L59.8604 -43.1409
L59.7009 -42.9961
L59.5401 -42.8524
L59.3779 -42.7098
L59.2144 -42.5682
L59.0494 -42.4276
L58.8831 -42.288
L58.5461 -42.1493
L58.3754 -42.0114
L58.2033 -41.8744
L58.0296 -41.7382
L57.8543 -41.6027
L57.6775 -41.468
L57.499 -41.3339
L57.319 -41.2005
L57.1372 -41.0676
L56.9537 -40.9354
L56.7685 -40.8037
L56.5815 -40.6726
L56.3927 -40.5419
L56.202 -40.4117
L56.0094 -40.2819
L55.8148 -40.1525
L55.6183 -40.0235
L55.4197 -39.8949
L55.219 -39.7667
L55.0162 -39.6387
L54.8112 -39.5111
L54.6039 -39.3837
L54.3944 -39.2566
L54.1825 -39.1298
L53.9682 -39.0032
L53.7515 -38.8768
L53.5323 -38.7507
L53.3105 -38.6247
L53.0861 -38.4989
L52.8591 -38.3734
L52.6293 -38.248
L52.3968 -38.1228
L52.1614 -37.9978
L51.9231 -37.873
L51.6819 -37.7483
L51.4377 -37.6239
L51.1904 -37.4997
L50.94 -37.3757
L50.6865 -37.2519
L50.4297 -37.1284
L50.1697 -37.0052
L49.9063 -36.8822
L49.6396 -36.7596
L49.3695 -36.6374
L49.0959 -36.5156
L48.8189 -36.3942
L48.5384 -36.2734
L48.2542 -36.153
L47.9666 -36.0333
L47.6753 -35.9143
L47.3804 -35.796
L47.0818 -35.6785
L46.7797 -35.562
L46.4739 -35.4465
L46.1645 -35.332
L45.8515 -35.2189
L45.5349 -35.107
L45.2148 -34.9967
L44.8912 -34.8879
L44.5642 -34.781
L44.2339 -34.676
L43.9003 -34.5732
L43.5635 -34.4727
L43.2237 -34.3748
L42.881 -34.2796
L42.5355 -34.1876
L42.1875 -34.0988
L41.837 -34.0137
L41.4844 -33.9325
L41.1298 -33.8555
L40.7735 -33.7832
L40.4158 -33.7159
L40.057 -33.6541
L39.6975 -33.5982
L39.3375 -33.5486
L38.9774 -33.5058
L38.6177 -33.4705
L38.2589 -33.443
L37.9012 -33.4241
L37.5453 -33.4143
L37.1917 -33.4142
L36.8407 -33.4244
L36.493 -33.4456
L36.1491 -33.4783
L35.8094 -33.5231
L35.4745 -33.5806
L35.1449 -33.6513
L34.821 -33.7356
L34.5033 -33.8339
L34.1921 -33.9464
L33.8878 -34.0733
L33.5906 -34.2148
L33.3008 -34.3706
L33.0186 -34.5407
L32.744 -34.7248
L32.4771 -34.9224
L32.218 -35.1332
L31.9666 -35.3564
L31.7228 -35.5915
L31.4866 -35.8378
L31.2578 -36.0945
L31.0362 -36.3609
L30.8218 -36.6362
L30.6142 -36.9195
L30.4135 -37.2103
L30.2193 -37.5076
L30.0315 -37.8108
L29.8499 -38.1192
L29.6744 -38.4321
L29.5047 -38.7489
L29.3407 -39.069
L29.1823 -39.3918
L29.0292 -39.7169
L28.8814 -40.0437
L28.7386 -40.3718
L28.6008 -40.7008
L28.4678 -41.0304
L28.3395 -41.3601
L28.2157 -41.6897
L28.0963 -42.0188
L27.9813 -42.3473
L27.8704 -42.6748
L27.7636 -43.0012
L27.6607 -43.3262
L27.5618 -43.6497
L27.4666 -43.9715
L27.375 -44.2915
L27.287 -44.6096
L27.2025 -44.9257
L27.1214 -45.2396
L27.0436 -45.5513
L26.969 -45.8608
L26.8975 -46.1679
L26.8291 -46.4726
L26.7637 -46.775
L26.7012 -47.0748
L26.6415 -47.3723
L26.5846 -47.6672
L26.5304 -47.9597
L26.4788 -48.2497
L26.4298 -48.5372
L26.3833 -48.8223
L26.3393 -49.1049
L26.2977 -49.3851
L26.2584 -49.6629
L26.2215 -49.9383
L26.1868 -50.2114
L26.1543 -50.4822
L26.124 -50.7507
L26.0958 -51.0169
L26.0697 -51.281
L26.0457 -51.5429
L26.0237 -51.8027
L26.0037 -52.0604
L25.9856 -52.3161
L25.9695 -52.5698
L25.9553 -52.8216
L25.9429 -53.0715
L25.9324 -53.3195
L25.9238 -53.5658
L25.917 -53.8103
L25.9119 -54.0531
L25.9087 -54.2943
L25.9073 -54.534
L25.9076 -54.772
L25.9097 -55.0086
L25.9135 -55.2437
L25.9191 -55.4775
L25.9264 -55.7099
L25.9355 -55.941
L25.9463 -56.1708
L25.9589 -56.3995
L25.9732 -56.627
L25.9894 -56.8534
L26.0072 -57.0787
L26.0269 -57.303
L26.0484 -57.5264
L26.0717 -57.7488
L26.0968 -57.9703
L26.1238 -58.191
L26.1527 -58.4109
L26.1834 -58.6301
L26.2162 -58.8486
L26.2509 -59.0663
L26.2875 -59.2835
L26.3263 -59.5
L26.3671 -59.716
L26.41 -59.9315
L26.455 -60.1465
L26.5023 -60.3611
L26.5519 -60.5752
L26.6037 -60.789
L26.658 -61.0024
L26.7146 -61.2155
L26.7738 -61.4283
L26.8356 -61.6409
L26.8999 -61.8532
L26.967 -62.0654
L27.0369 -62.2773
L27.1097 -62.4891
L27.1855 -62.7008
L27.2644 -62.9123
L27.7378 -63.1238
L28.2151 -63.2761
L28.6948 -63.4162
L29.1767 -63.5479
L29.6607 -63.6711
L30.1466 -63.786
L30.6342 -63.8924
L31.1236 -63.9903
L31.6144 -64.0797
L32.1065 -64.1605
L32.5998 -64.2328
L33.0942 -64.2964
L33.5894 -64.3515
L34.0854 -64.3979
L34.582 -64.4356
L35.0789 -64.4647
L35.5762 -64.4851
L36.0736 -64.4968
L36.571 -64.4999
L37.0682 -64.4943
L37.5651 -64.48
L38.0615 -64.457
L38.5573 -64.4253
L39.0523 -64.385
L39.5463 -64.3361
L40.0393 -64.2785
L40.5311 -64.2123
L41.0215 -64.1375
L41.5103 -64.0541
L41.9975 -63.9622
L42.4828 -63.8618
L42.9662 -63.7529
L43.4474 -63.6355
L43.9264 -63.5097
L44.403 -63.3756
L44.877 -63.2331
L45.3483 -63.0823
L45.8167 -62.9232
L46.2822 -62.756
L46.7445 -62.5806
L47.2036 -62.3971
L47.6592 -62.2055
L48.1113 -62.006
L48.5597 -61.7986
L49.0043 -61.5833
L49.4449 -61.3602
L49.8814 -61.1294
L50.3137 -60.8909
L50.7416 -60.6448
L51.1651 -60.3913
L51.5839 -60.1303
L51.998 -59.8619
L52.4072 -59.5863
L52.8114 -59.3035
L53.2105 -59.0136
L53.6043 -58.7167
L53.9928 -58.4129
L54.3758 -58.1023
L54.7532 -57.7849
L55.1249 -57.4608
L55.4907 -57.1303
L55.8507 -56.7933
L56.2045 -56.45
L56.5523 -56.1004
L56.8937 -55.7447
L57.2288 -55.383
L57.5575 -55.0154
L57.8795 -54.6421
L58.1949 -54.263
L58.5036 -53.8784
L58.8053 -53.4883
L59.1002 -53.0929
L59.388 -52.6923
L59.6687 -52.2866
L59.9421 -51.8759
L60.2083 -51.4604
L60.4671 -51.0402
L60.7185 -50.6154
L60.9623 -50.1862
L61.1985 -49.7526
L61.427 -49.3149
L61.6478 -48.8731
L61.8608 -48.4274
L62.0659 -47.9779
L62.2631 -47.5247
L62.4522 -47.068
z
" id="C0_1_f2b4af4637"/>
     <path d="
M44.5494 -8.99416
L44.3602 -9.1227
L44.1706 -9.25387
L43.9806 -9.38771
L43.79 -9.52424
L43.599 -9.66352
L43.4074 -9.80558
L43.2152 -9.95046
L43.0223 -10.0982
L42.8287 -10.2488
L42.6343 -10.4024
L42.4392 -10.559
L42.2432 -10.7186
L42.0464 -10.8812
L41.8487 -11.047
L41.65 -11.2159
L41.4503 -11.388
L41.2496 -11.5633
L41.0478 -11.742
L40.8449 -11.9239
L40.6409 -12.1091
L40.4357 -12.2978
L40.2293 -12.4898
L40.0217 -12.6853
L39.8128 -12.8842
L39.6026 -13.0867
L39.391 -13.2926
L39.1781 -13.502
L38.9638 -13.7149
L38.748 -13.9312
L38.5308 -14.1511
L38.3122 -14.3745
L38.092 -14.6012
L37.8702 -14.8314
L37.6469 -15.0649
L37.422 -15.3017
L37.1954 -15.5417
L36.9672 -15.7848
L36.7373 -16.0309
L36.5057 -16.2799
L36.2723 -16.5315
L36.0372 -16.7858
L35.8001 -17.0424
L35.5612 -17.3011
L35.3204 -17.5618
L35.0775 -17.8241
L34.8326 -18.0878
L34.5856 -18.3524
L34.3364 -18.6177
L34.0848 -18.8833
L33.8309 -19.1487
L33.5745 -19.4134
L33.3155 -19.677
L33.0537 -19.9389
L32.7891 -20.1985
L32.5214 -20.4552
L32.2505 -20.7084
L31.9762 -20.9575
L31.6984 -21.2016
L31.4169 -21.4402
L31.1314 -21.6726
L30.8419 -21.898
L30.5481 -22.1158
L30.2499 -22.3254
L29.9472 -22.5262
L29.6399 -22.7178
L29.3279 -22.8996
L29.0111 -23.0714
L28.6897 -23.233
L28.3637 -23.3842
L28.0333 -23.525
L27.6985 -23.6555
L27.3597 -23.776
L27.0171 -23.8866
L26.671 -23.9879
L26.3218 -24.0802
L25.9698 -24.164
L25.6154 -24.2399
L25.2591 -24.3084
L24.9012 -24.3701
L24.5421 -24.4256
L24.1823 -24.4753
L23.8222 -24.52
L23.462 -24.5601
L23.1022 -24.5961
L22.7431 -24.6285
L22.3851 -24.6577
L22.0283 -24.6842
L21.6732 -24.7083
L21.32 -24.7304
L20.9689 -24.7508
L20.6202 -24.7698
L20.2739 -24.7877
L19.9304 -24.8047
L19.5898 -24.8211
L19.2522 -24.837
L18.9177 -24.8526
L18.5865 -24.8681
L18.2586 -24.8836
L17.9342 -24.8993
L17.6133 -24.9153
L17.2959 -24.9317
L16.9821 -24.9485
L16.6719 -24.9658
L16.3654 -24.9838
L16.0626 -25.0025
L15.7635 -25.0219
L15.468 -25.042
L15.1762 -25.063
L14.888 -25.0849
L14.6035 -25.1077
L14.3226 -25.1314
L14.0452 -25.156
L13.7714 -25.1816
L13.5011 -25.2082
L13.2343 -25.2358
L12.9708 -25.2645
L12.7107 -25.2941
L12.454 -25.3248
L12.2004 -25.3566
L11.9501 -25.3894
L11.7029 -25.4233
L11.4589 -25.4582
L11.2178 -25.4943
L10.9797 -25.5314
L10.7446 -25.5696
L10.5123 -25.609
L10.2828 -25.6494
L10.056 -25.691
L9.83186 -25.7337
L9.61036 -25.7776
L9.56247 -25.8225
L9.75227 -25.3554
L9.95006 -24.8957
L10.1558 -24.4393
L10.3694 -23.9864
L10.5908 -23.5372
L10.82 -23.0918
L11.0568 -22.6503
L11.3012 -22.2128
L11.5531 -21.7796
L11.8125 -21.3507
L12.0793 -20.9263
L12.3533 -20.5065
L12.6346 -20.0914
L12.9229 -19.6811
L13.2183 -19.2758
L13.5207 -18.8756
L13.8298 -18.4806
L14.1458 -18.091
L14.4684 -17.7068
L14.7975 -17.3281
L15.1331 -16.9552
L15.4751 -16.5881
L15.8233 -16.2269
L16.1777 -15.8717
L16.538 -15.5226
L16.9044 -15.1798
L17.2765 -14.8433
L17.6544 -14.5132
L18.0378 -14.1897
L18.4267 -13.8729
L18.821 -13.5628
L19.2205 -13.2595
L19.6251 -12.9631
L20.0347 -12.6738
L20.4491 -12.3916
L20.8683 -12.1165
L21.2921 -11.8488
L21.7204 -11.5884
L22.153 -11.3354
L22.5899 -11.0899
L23.0308 -10.8521
L23.4757 -10.6219
L23.9244 -10.3994
L24.3768 -10.1847
L24.8327 -9.97788
L25.292 -9.77899
L25.7546 -9.58809
L26.2203 -9.40523
L26.689 -9.23048
L27.1605 -9.06387
L27.6347 -8.90548
L28.1115 -8.75533
L28.5906 -8.61349
L29.072 -8.47999
L29.5556 -8.35487
L30.0411 -8.23817
L30.5284 -8.12992
L31.0174 -8.03017
L31.5078 -7.93894
L31.9997 -7.85625
L32.4928 -7.78214
L32.9869 -7.71662
L33.482 -7.65972
L33.9778 -7.61145
L34.4743 -7.57183
L34.9712 -7.54087
L35.4684 -7.51858
L35.9658 -7.50496
L36.4632 -7.50002
L36.9605 -7.50376
L37.4574 -7.51619
L37.9539 -7.53729
L38.4499 -7.56706
L38.945 -7.60549
L39.4393 -7.65257
L39.9326 -7.70829
L40.4246 -7.77262
L40.9153 -7.84555
L41.4045 -7.92706
L41.892 -8.01712
L42.3778 -8.1157
L42.8616 -8.22278
L43.3433 -8.33832
L43.8228 -8.46228
z
" id="C0_2_a35f0e422d"/>
    </defs>
    <g clip-path="url(#p1bffca34e9)">
     <use style="fill:#ffffff;stroke:#000000;stroke-width:2.0;" x="0.0" xlink:href="#C0_0_a811fe30f3" y="72.0"/>
    </g>
    <g clip-path="url(#p1bffca34e9)">
     <use style="fill:#ff0000;stroke:#000000;stroke-width:2.0;" x="0.0" xlink:href="#C0_1_f2b4af4637" y="72.0"/>
    </g>
    <g clip-path="url(#p1bffca34e9)">
     <use style="fill:#ff0000;stroke:#000000;stroke-width:2.0;" x="0.0" xlink:href="#C0_2_a35f0e422d" y="72.0"/>
    </g>
   </g>
  </g>
 </g>
 <defs>
  <clipPath id="p1bffca34e9">
   <rect height="72.0" width="72.0" x="0.0" y="0.0"/>
  </clipPath>
 </defs>
</svg>
