<?xml version="1.0" encoding="utf-8" standalone="no"?>
<!DOCTYPE svg PUBLIC "-//W3C//DTD SVG 1.1//EN"
  "http://www.w3.org/Graphics/SVG/1.1/DTD/svg11.dtd">
<!-- Created with matplotlib (http://matplotlib.org/) -->
<svg height="72pt" version="1.1" viewBox="0 0 72 72" width="72pt" xmlns="http://www.w3.org/2000/svg" xmlns:xlink="http://www.w3.org/1999/xlink">
 <defs>
  <style type="text/css">
*{stroke-linecap:butt;stroke-linejoin:round;}
  </style>
 </defs>
 <g id="figure_1">
  <g id="patch_1">
   <path d="
M0 72
L72 72
L72 0
L0 0
z
" style="fill:none;"/>
  </g>
  <g id="axes_1">
   <g id="PatchCollection_1">
    <defs>
     <path d="
M36 -7.5
C43.5583 -7.5 50.808 -10.5029 56.1525 -15.8475
C61.4971 -21.192 64.5 -28.4417 64.5 -36
C64.5 -43.5583 61.4971 -50.808 56.1525 -56.1525
C50.808 -61.4971 43.5583 -64.5 36 -64.5
C28.4417 -64.5 21.192 -61.4971 15.8475 -56.1525
C10.5029 -50.808 7.5 -43.5583 7.5 -36
C7.5 -28.4417 10.5029 -21.192 15.8475 -15.8475
C21.192 -10.5029 28.4417 -7.5 36 -7.5
z
" id="C0_0_a811fe30f3"/>
     <path d="
M36.6565 -7.50756
L36.6522 -7.6873
L36.6475 -7.86819
L36.6425 -8.05028
L36.6371 -8.23361
L36.6313 -8.41823
L36.6252 -8.60418
L36.6188 -8.7915
L36.6119 -8.98024
L36.6048 -9.17044
L36.5973 -9.36217
L36.5894 -9.55546
L36.5812 -9.75037
L36.5726 -9.94694
L36.5637 -10.1452
L36.5544 -10.3453
L36.5448 -10.5472
L36.5348 -10.751
L36.5244 -10.9567
L36.5137 -11.1645
L36.5025 -11.3742
L36.491 -11.5862
L36.4791 -11.8002
L36.4668 -12.0166
L36.4541 -12.2352
L36.441 -12.4562
L36.4274 -12.6796
L36.4135 -12.9055
L36.399 -13.134
L36.3841 -13.3651
L36.3688 -13.5989
L36.3529 -13.8354
L36.3366 -14.0748
L36.3197 -14.317
L36.3024 -14.5622
L36.2844 -14.8104
L36.2659 -15.0617
L36.2469 -15.3161
L36.2272 -15.5737
L36.2069 -15.8346
L36.1859 -16.0989
L36.1643 -16.3665
L36.1419 -16.6375
L36.1188 -16.9121
L36.095 -17.1902
L36.0704 -17.4719
L36.0449 -17.7572
L36.0186 -18.0462
L35.9914 -18.3389
L35.9632 -18.6353
L35.934 -18.9355
L35.9038 -19.2394
L35.8725 -19.5472
L35.84 -19.8587
L35.8063 -20.174
L35.7713 -20.493
L35.7349 -20.8158
L35.6971 -21.1422
L35.6578 -21.4722
L35.6169 -21.8058
L35.5742 -22.1428
L35.5297 -22.4831
L35.4832 -22.8266
L35.4346 -23.1732
L35.3838 -23.5227
L35.3305 -23.8748
L35.2747 -24.2294
L35.2161 -24.5862
L35.1544 -24.945
L35.0895 -25.3052
L35.0211 -25.6668
L34.9489 -26.0291
L34.8726 -26.3918
L34.7917 -26.7544
L34.706 -27.1163
L34.615 -27.4769
L34.5183 -27.8357
L34.4152 -28.1919
L34.3054 -28.5447
L34.1882 -28.8934
L34.063 -29.2372
L33.9292 -29.5751
L33.7861 -29.9063
L33.6331 -30.2298
L33.4696 -30.5447
L33.2949 -30.8502
L33.1085 -31.1454
L32.91 -31.4296
L32.6989 -31.702
L32.4751 -31.9622
L32.2385 -32.2098
L31.9891 -32.4445
L31.7272 -32.6664
L31.4532 -32.8753
L31.1675 -33.0717
L30.8709 -33.2559
L30.5641 -33.4282
L30.2479 -33.5893
L29.9233 -33.7399
L29.591 -33.8804
L29.2521 -34.0117
L28.9074 -34.1342
L28.5578 -34.2488
L28.2041 -34.3559
L27.8472 -34.4563
L27.4877 -34.5503
L27.1263 -34.6386
L26.7638 -34.7215
L26.4006 -34.7996
L26.0374 -34.8732
L25.6745 -34.9427
L25.3125 -35.0083
L24.9517 -35.0705
L24.5925 -35.1294
L24.2353 -35.1853
L23.8803 -35.2384
L23.5277 -35.289
L23.1779 -35.3372
L22.8309 -35.3831
L22.4871 -35.427
L22.1464 -35.4689
L21.8091 -35.509
L21.4752 -35.5475
L21.1449 -35.5843
L20.8182 -35.6196
L20.4952 -35.6535
L20.1759 -35.6861
L19.8604 -35.7174
L19.5486 -35.7475
L19.2407 -35.7765
L18.9365 -35.8044
L18.6361 -35.8313
L18.3394 -35.8572
L18.0465 -35.8822
L17.7574 -35.9063
L17.4719 -35.9296
L17.19 -35.9521
L16.9117 -35.9738
L16.637 -35.9948
L16.3658 -36.0151
L16.098 -36.0347
L15.8336 -36.0536
L15.5726 -36.072
L15.3148 -36.0897
L15.0603 -36.1068
L14.8088 -36.1234
L14.5605 -36.1395
L14.3152 -36.155
L14.0728 -36.17
L13.8334 -36.1845
L13.5967 -36.1986
L13.3628 -36.2122
L13.1316 -36.2253
L12.903 -36.238
L12.677 -36.2503
L12.4535 -36.2621
L12.2324 -36.2735
L12.0137 -36.2846
L11.7973 -36.2953
L11.5831 -36.3055
L11.3711 -36.3154
L11.1613 -36.325
L10.9535 -36.3341
L10.7477 -36.3429
L10.5438 -36.3514
L10.3418 -36.3595
L10.1417 -36.3672
L9.94334 -36.3747
L9.74671 -36.3817
L9.55175 -36.3885
L9.3584 -36.3949
L9.16662 -36.4009
L8.97637 -36.4066
L8.78758 -36.412
L8.60022 -36.4171
L8.41423 -36.4218
L8.22957 -36.4261
L8.0462 -36.4301
L7.86408 -36.4338
L7.68316 -36.4371
L7.50006 -35.9426
L7.5054 -35.4453
L7.51942 -34.948
L7.54212 -34.4512
L7.57348 -33.9547
L7.61351 -33.4589
L7.66218 -32.9639
L7.71948 -32.4698
L7.7854 -31.9768
L7.85991 -31.485
L7.943 -30.9946
L8.03463 -30.5057
L8.13477 -30.0184
L8.24341 -29.533
L8.3605 -29.0496
L8.48601 -28.5683
L8.61991 -28.0892
L8.76214 -27.6126
L8.91267 -27.1385
L9.07145 -26.6671
L9.23843 -26.1985
L9.41357 -25.733
L9.5968 -25.2706
L9.78808 -24.8114
L9.98734 -24.3556
L10.1945 -23.9034
L10.4096 -23.4549
L10.6324 -23.0102
L10.863 -22.5694
L11.1012 -22.1328
L11.347 -21.7004
L11.6003 -21.2723
L11.8611 -20.8487
L12.1292 -20.4297
L12.4045 -20.0155
L12.6871 -19.6061
L12.9768 -19.2018
L13.2735 -18.8025
L13.5771 -18.4085
L13.8875 -18.0198
L14.2046 -17.6367
L14.5284 -17.2591
L14.8588 -16.8872
L15.1956 -16.5211
L15.5387 -16.161
L15.8881 -15.8069
L16.2435 -15.459
L16.605 -15.1173
L16.9724 -14.782
L17.3456 -14.4532
L17.7245 -14.1309
L18.109 -13.8153
L18.4989 -13.5064
L18.8941 -13.2044
L19.2946 -12.9093
L19.7001 -12.6213
L20.1106 -12.3404
L20.5259 -12.0667
L20.946 -11.8003
L21.3706 -11.5412
L21.7997 -11.2896
L22.2331 -11.0456
L22.6707 -10.8091
L23.1124 -10.5803
L23.558 -10.3593
L24.0074 -10.146
L24.4604 -9.94068
L24.917 -9.74325
L25.3769 -9.55383
L25.8401 -9.37246
L26.3063 -9.1992
L26.7756 -9.0341
L27.2476 -8.87722
L27.7223 -8.7286
L28.1995 -8.58829
L28.6791 -8.45633
L29.1609 -8.33275
L29.6448 -8.21761
L30.1306 -8.11093
L30.6183 -8.01274
L31.1075 -7.92308
L31.5983 -7.84197
L32.0904 -7.76943
L32.5837 -7.7055
L33.078 -7.65019
L33.5732 -7.60351
L34.0692 -7.56548
L34.5657 -7.53611
L35.0627 -7.51542
L35.56 -7.5034
L36.0574 -7.50006
z
" id="C0_1_36a288487f"/>
     <path d="
M64.3168 -35.5629
L64.1359 -35.5662
L63.9538 -35.5699
L63.7704 -35.5739
L63.5858 -35.5782
L63.3998 -35.5829
L63.2124 -35.588
L63.0236 -35.5934
L62.8334 -35.5991
L62.6416 -35.6051
L62.4483 -35.6115
L62.2533 -35.6183
L62.0567 -35.6253
L61.8583 -35.6328
L61.6582 -35.6405
L61.4562 -35.6486
L61.2523 -35.6571
L61.0465 -35.6659
L60.8387 -35.675
L60.6289 -35.6846
L60.4169 -35.6945
L60.2027 -35.7047
L59.9863 -35.7154
L59.7676 -35.7265
L59.5465 -35.7379
L59.323 -35.7497
L59.097 -35.762
L58.8684 -35.7747
L58.6372 -35.7878
L58.4033 -35.8014
L58.1666 -35.8155
L57.9272 -35.83
L57.6848 -35.845
L57.4395 -35.8605
L57.1912 -35.8766
L56.9397 -35.8932
L56.6852 -35.9103
L56.4274 -35.928
L56.1664 -35.9464
L55.902 -35.9653
L55.6342 -35.9849
L55.363 -36.0052
L55.0883 -36.0262
L54.81 -36.0479
L54.5281 -36.0704
L54.2426 -36.0937
L53.9535 -36.1178
L53.6606 -36.1428
L53.3639 -36.1687
L53.0635 -36.1956
L52.7593 -36.2235
L52.4514 -36.2525
L52.1396 -36.2826
L51.8241 -36.3139
L51.5048 -36.3465
L51.1818 -36.3804
L50.8551 -36.4157
L50.5248 -36.4525
L50.1909 -36.491
L49.8536 -36.5311
L49.5129 -36.573
L49.1691 -36.6169
L48.8221 -36.6628
L48.4723 -36.711
L48.1197 -36.7616
L47.7647 -36.8147
L47.4075 -36.8706
L47.0483 -36.9295
L46.6875 -36.9917
L46.3255 -37.0573
L45.9626 -37.1268
L45.5994 -37.2004
L45.2362 -37.2785
L44.8737 -37.3614
L44.5123 -37.4497
L44.1528 -37.5437
L43.7959 -37.6441
L43.4422 -37.7512
L43.0926 -37.8658
L42.7479 -37.9883
L42.409 -38.1196
L42.0767 -38.2601
L41.7521 -38.4107
L41.4359 -38.5718
L41.1291 -38.7441
L40.8325 -38.9283
L40.5468 -39.1247
L40.2728 -39.3336
L40.0109 -39.5555
L39.7615 -39.7902
L39.5249 -40.0378
L39.3011 -40.298
L39.09 -40.5704
L38.8915 -40.8546
L38.7051 -41.1498
L38.5304 -41.4553
L38.3669 -41.7702
L38.2139 -42.0937
L38.0708 -42.4249
L37.937 -42.7628
L37.8118 -43.1066
L37.6946 -43.4553
L37.5848 -43.8081
L37.4817 -44.1643
L37.385 -44.5231
L37.294 -44.8837
L37.2083 -45.2456
L37.1274 -45.6082
L37.0511 -45.9709
L36.9789 -46.3332
L36.9105 -46.6948
L36.8456 -47.055
L36.7839 -47.4138
L36.7253 -47.7706
L36.6695 -48.1252
L36.6162 -48.4773
L36.5654 -48.8268
L36.5168 -49.1734
L36.4703 -49.5169
L36.4258 -49.8572
L36.3831 -50.1942
L36.3422 -50.5278
L36.3029 -50.8578
L36.2651 -51.1842
L36.2287 -51.507
L36.1937 -51.826
L36.16 -52.1413
L36.1275 -52.4528
L36.0962 -52.7606
L36.066 -53.0645
L36.0368 -53.3647
L36.0086 -53.6611
L35.9814 -53.9538
L35.9551 -54.2428
L35.9296 -54.5281
L35.905 -54.8098
L35.8812 -55.0879
L35.8581 -55.3625
L35.8357 -55.6335
L35.8141 -55.9011
L35.7931 -56.1654
L35.7728 -56.4263
L35.7531 -56.6839
L35.7341 -56.9383
L35.7156 -57.1896
L35.6976 -57.4378
L35.6803 -57.683
L35.6634 -57.9252
L35.6471 -58.1646
L35.6312 -58.4011
L35.6159 -58.6349
L35.601 -58.866
L35.5865 -59.0945
L35.5726 -59.3204
L35.559 -59.5438
L35.5459 -59.7648
L35.5332 -59.9834
L35.5209 -60.1998
L35.509 -60.4138
L35.4975 -60.6258
L35.4863 -60.8355
L35.4756 -61.0433
L35.4652 -61.249
L35.4552 -61.4528
L35.4456 -61.6547
L35.4363 -61.8548
L35.4274 -62.0531
L35.4188 -62.2496
L35.4106 -62.4445
L35.4027 -62.6378
L35.3952 -62.8296
L35.3881 -63.0198
L35.3812 -63.2085
L35.3748 -63.3958
L35.3687 -63.5818
L35.3629 -63.7664
L35.3575 -63.9497
L35.3525 -64.1318
L35.841 -64.3127
L36.3384 -64.4996
L36.8357 -64.498
L37.3328 -64.4877
L37.8294 -64.4688
L38.3255 -64.4412
L38.8209 -64.405
L39.3154 -64.3601
L39.8089 -64.3065
L40.3013 -64.2443
L40.7923 -64.1736
L41.2819 -64.0942
L41.7699 -64.0063
L42.2561 -63.9098
L42.7404 -63.8049
L43.2226 -63.6915
L43.7027 -63.5696
L44.1804 -63.4394
L44.6556 -63.3007
L45.1282 -63.1538
L45.598 -62.9986
L46.0649 -62.8352
L46.5287 -62.6636
L46.9893 -62.4839
L47.4466 -62.2961
L47.9003 -62.1003
L48.3505 -61.8966
L48.7969 -61.6849
L49.2393 -61.4655
L49.6778 -61.2383
L50.1121 -61.0034
L50.5421 -60.7608
L50.9676 -60.5108
L51.3886 -60.2533
L51.8049 -59.9883
L52.2164 -59.7161
L52.623 -59.4367
L53.0245 -59.1501
L53.4208 -58.8564
L53.8118 -58.5558
L54.1974 -58.2484
L54.5774 -57.9341
L54.9518 -57.6132
L55.3204 -57.2857
L55.6831 -56.9517
L56.0398 -56.6113
L56.3904 -56.2647
L56.7348 -55.9118
L57.0729 -55.5529
L57.4046 -55.1881
L57.7297 -54.8174
L58.0483 -54.441
L58.3601 -54.0589
L58.6651 -53.6714
L58.9632 -53.2784
L59.2543 -52.8803
L59.5383 -52.4769
L59.8151 -52.0686
L60.0847 -51.6553
L60.347 -51.2373
L60.6018 -50.8146
L60.8492 -50.3875
L61.089 -49.9559
L61.3211 -49.5201
L61.5455 -49.0802
L61.7622 -48.6363
L61.971 -48.1885
L62.1719 -47.7371
L62.3648 -47.282
L62.5496 -46.8235
L62.7264 -46.3618
L62.8951 -45.8968
L63.0556 -45.4289
L63.2078 -44.9581
L63.3517 -44.4845
L63.4873 -44.0084
L63.6145 -43.5298
L63.7333 -43.0489
L63.8437 -42.5659
L63.9456 -42.0809
L64.039 -41.5941
L64.1238 -41.1055
L64.2001 -40.6154
L64.2677 -40.1238
L64.3268 -39.631
L64.3772 -39.1371
L64.419 -38.6423
L64.4522 -38.1466
L64.4766 -37.6503
L64.4924 -37.1535
L64.4996 -36.6564
z
" id="C0_2_ee5a3bca6d"/>
    </defs>
    <g clip-path="url(#p1bffca34e9)">
     <use style="fill:#ffffff;stroke:#000000;stroke-width:2.0;" x="0.0" xlink:href="#C0_0_a811fe30f3" y="72.0"/>
    </g>
    <g clip-path="url(#p1bffca34e9)">
     <use style="fill:#ff0000;stroke:#000000;stroke-width:2.0;" x="0.0" xlink:href="#C0_1_36a288487f" y="72.0"/>
    </g>
    <g clip-path="url(#p1bffca34e9)">
     <use style="fill:#ff0000;stroke:#000000;stroke-width:2.0;" x="0.0" xlink:href="#C0_2_ee5a3bca6d" y="72.0"/>
    </g>
   </g>
  </g>
 </g>
 <defs>
  <clipPath id="p1bffca34e9">
   <rect height="72.0" width="72.0" x="0.0" y="0.0"/>
  </clipPath>
 </defs>
</svg>
