<?xml version="1.0" encoding="utf-8" standalone="no"?>
<!DOCTYPE svg PUBLIC "-//W3C//DTD SVG 1.1//EN"
  "http://www.w3.org/Graphics/SVG/1.1/DTD/svg11.dtd">
<!-- Created with matplotlib (http://matplotlib.org/) -->
<svg height="72pt" version="1.1" viewBox="0 0 72 72" width="72pt" xmlns="http://www.w3.org/2000/svg" xmlns:xlink="http://www.w3.org/1999/xlink">
 <defs>
  <style type="text/css">
*{stroke-linecap:butt;stroke-linejoin:round;}
  </style>
 </defs>
 <g id="figure_1">
  <g id="patch_1">
   <path d="
M0 72
L72 72
L72 0
L0 0
z
" style="fill:none;"/>
  </g>
  <g id="axes_1">
   <g id="PatchCollection_1">
    <defs>
     <path d="
M36 -7.5
C43.5583 -7.5 50.808 -10.5029 56.1525 -15.8475
C61.4971 -21.192 64.5 -28.4417 64.5 -36
C64.5 -43.5583 61.4971 -50.808 56.1525 -56.1525
C50.808 -61.4971 43.5583 -64.5 36 -64.5
C28.4417 -64.5 21.192 -61.4971 15.8475 -56.1525
C10.5029 -50.808 7.5 -43.5583 7.5 -36
C7.5 -28.4417 10.5029 -21.192 15.8475 -15.8475
C21.192 -10.5029 28.4417 -7.5 36 -7.5
z
" id="C0_0_a811fe30f3"/>
     <path d="
M49.0832 -41.9791
L48.9599 -42.241
L48.8335 -42.5016
L48.7042 -42.7608
L48.5719 -43.0186
L48.4366 -43.2749
L48.2983 -43.5299
L48.1569 -43.7834
L48.0126 -44.0354
L47.8653 -44.286
L47.7149 -44.5351
L47.5615 -44.7827
L47.405 -45.0288
L47.2455 -45.2734
L47.0829 -45.5164
L46.9172 -45.7578
L46.7485 -45.9977
L46.5766 -46.2359
L46.4015 -46.4724
L46.2234 -46.7073
L46.042 -46.9405
L45.8575 -47.1719
L45.6697 -47.4015
L45.4787 -47.6293
L45.2845 -47.8552
L45.087 -48.0792
L44.8863 -48.3012
L44.6822 -48.5212
L44.4748 -48.7391
L44.2641 -48.9549
L44.05 -49.1685
L43.8325 -49.3799
L43.6116 -49.5889
L43.3873 -49.7955
L43.1596 -49.9997
L42.9284 -50.2013
L42.6938 -50.4004
L42.4557 -50.5967
L42.2141 -50.7902
L41.969 -50.9808
L41.7205 -51.1685
L41.4684 -51.353
L41.2128 -51.5344
L40.9537 -51.7125
L40.6911 -51.8872
L40.425 -52.0584
L40.1554 -52.2259
L39.8823 -52.3897
L39.6058 -52.5496
L39.3258 -52.7055
L39.0424 -52.8572
L38.7556 -53.0046
L38.4654 -53.1476
L38.1719 -53.2861
L37.8751 -53.4198
L37.5751 -53.5486
L37.2719 -53.6724
L36.9656 -53.791
L36.6563 -53.9043
L36.344 -54.012
L36.0287 -54.1141
L35.7107 -54.2104
L35.3899 -54.3006
L35.0665 -54.3847
L34.7406 -54.4625
L34.4122 -54.5338
L34.0817 -54.5984
L33.7489 -54.6562
L33.4142 -54.707
L33.0776 -54.7507
L32.7393 -54.7871
L32.3994 -54.816
L32.0582 -54.8374
L31.7158 -54.851
L31.3724 -54.8568
L31.0282 -54.8546
L30.6834 -54.8442
L30.3382 -54.8257
L29.9927 -54.7988
L29.6474 -54.7636
L29.3022 -54.7198
L28.9576 -54.6675
L28.6137 -54.6065
L28.2707 -54.537
L27.9289 -54.4587
L27.5886 -54.3717
L27.25 -54.276
L26.9133 -54.1716
L26.5788 -54.0585
L26.2467 -53.9367
L25.9173 -53.8064
L25.5908 -53.6676
L25.2675 -53.5203
L24.9475 -53.3646
L24.6312 -53.2007
L24.3186 -53.0287
L24.0102 -52.8488
L23.706 -52.661
L23.4062 -52.4655
L23.1112 -52.2625
L22.8209 -52.0522
L22.5357 -51.8347
L22.2557 -51.6103
L21.981 -51.3792
L21.7118 -51.1415
L21.4483 -50.8975
L21.1905 -50.6475
L20.9386 -50.3916
L20.6926 -50.1301
L20.4528 -49.8631
L20.2191 -49.5911
L19.9916 -49.3141
L19.7705 -49.0324
L19.5557 -48.7462
L19.3473 -48.4559
L19.1454 -48.1615
L18.9499 -47.8634
L18.7609 -47.5618
L18.5784 -47.2568
L18.4025 -46.9488
L18.233 -46.6379
L18.0701 -46.3243
L17.9136 -46.0082
L17.7636 -45.6899
L17.62 -45.3695
L17.4828 -45.0473
L17.3519 -44.7233
L17.2274 -44.3978
L17.1091 -44.0709
L16.9971 -43.7429
L16.8912 -43.4138
L16.7915 -43.0838
L16.6977 -42.7531
L16.61 -42.4218
L16.5282 -42.0901
L16.4522 -41.758
L16.382 -41.4256
L16.3176 -41.0932
L16.2588 -40.7608
L16.2056 -40.4285
L16.1579 -40.0964
L16.1156 -39.7646
L16.0788 -39.4332
L16.0472 -39.1022
L16.0209 -38.7719
L15.9997 -38.4422
L15.9837 -38.1131
L15.9727 -37.7849
L15.9667 -37.4575
L15.9655 -37.131
L15.9693 -36.8054
L15.9778 -36.4808
L15.991 -36.1573
L16.0089 -35.8349
L16.0314 -35.5136
L16.0584 -35.1935
L16.09 -34.8746
L16.126 -34.557
L16.1663 -34.2406
L16.2111 -33.9256
L16.2601 -33.6119
L16.3134 -33.2995
L16.3709 -32.9886
L16.4326 -32.6791
L16.4984 -32.371
L16.5683 -32.0644
L16.6423 -31.7592
L16.7202 -31.4556
L16.8022 -31.1535
L16.8882 -30.8529
L16.9781 -30.5538
L17.0719 -30.2564
L17.1696 -29.9605
L17.2711 -29.6662
L17.3765 -29.3735
L17.4858 -29.0825
L17.5988 -28.7931
L17.7156 -28.5053
L17.8362 -28.2192
L17.9606 -27.9349
L18.0888 -27.6522
L18.2207 -27.3713
L18.3563 -27.0921
L18.4957 -26.8146
L18.6388 -26.539
L18.7856 -26.2651
L18.9362 -25.9931
L19.0905 -25.7229
L19.2485 -25.4546
L19.4103 -25.1882
L19.5758 -24.9238
L19.745 -24.6613
L19.918 -24.4007
L20.0947 -24.1422
L20.2752 -23.8857
L20.4595 -23.6314
L20.6475 -23.3791
L20.8393 -23.129
L21.0348 -22.8811
L21.2342 -22.6355
L21.4374 -22.3922
L21.6444 -22.1512
L21.8552 -21.9126
L22.0699 -21.6765
L22.2884 -21.4429
L22.5107 -21.2118
L22.7369 -20.9834
L22.967 -20.7577
L23.2009 -20.5347
L23.4387 -20.3146
L23.6804 -20.0974
L23.9259 -19.8832
L24.1754 -19.6721
L24.4287 -19.4641
L24.6859 -19.2594
L24.947 -19.058
L25.2119 -18.8601
L25.4807 -18.6656
L25.7534 -18.4748
L26.0298 -18.2878
L26.3101 -18.1045
L26.5942 -17.9253
L26.882 -17.7501
L27.1735 -17.579
L27.4688 -17.4123
L27.7677 -17.25
L28.0702 -17.0923
L28.3762 -16.9393
L28.6858 -16.7911
L28.9988 -16.6478
L29.3152 -16.5097
L29.6349 -16.3767
L29.9579 -16.2492
L30.2839 -16.1272
L30.6131 -16.0108
L30.9451 -15.9002
L31.2801 -15.7956
L31.6177 -15.6972
L31.958 -15.6049
L32.3008 -15.5191
L32.6459 -15.4398
L32.9932 -15.3673
L33.3425 -15.3015
L33.6937 -15.2428
L34.0467 -15.1911
L34.4011 -15.1467
L34.757 -15.1097
L35.1139 -15.0803
L35.4719 -15.0584
L35.8305 -15.0443
L36.1897 -15.0381
L36.5493 -15.0399
L36.9088 -15.0497
L37.2683 -15.0676
L37.6273 -15.0938
L37.9857 -15.1283
L38.3432 -15.1711
L38.6995 -15.2223
L39.0544 -15.282
L39.4077 -15.3501
L39.759 -15.4268
L40.1081 -15.5118
L40.4548 -15.6054
L40.7988 -15.7074
L41.1399 -15.8177
L41.4777 -15.9365
L41.812 -16.0635
L42.1427 -16.1987
L42.4693 -16.342
L42.7918 -16.4933
L43.1099 -16.6525
L43.4234 -16.8195
L43.732 -16.994
L44.0356 -17.1761
L44.3339 -17.3654
L44.6269 -17.5619
L44.9143 -17.7653
L45.1959 -17.9754
L45.4717 -18.1921
L45.7415 -18.4152
L46.0052 -18.6444
L46.2626 -18.8795
L46.5137 -19.1203
L46.7583 -19.3666
L46.9965 -19.6182
L47.2281 -19.8747
L47.4531 -20.1361
L47.6715 -20.4019
L47.8832 -20.6722
L48.0882 -20.9465
L48.2865 -21.2246
L48.4781 -21.5065
L48.663 -21.7917
L48.8412 -22.0801
L49.0128 -22.3716
L49.1778 -22.6658
L49.3362 -22.9625
L49.488 -23.2617
L49.6334 -23.563
L49.7723 -23.8663
L49.9049 -24.1714
L50.0312 -24.4781
L50.1513 -24.7863
L50.2652 -25.0957
L50.373 -25.4063
L50.4749 -25.7178
L50.5708 -26.0302
L50.6609 -26.3432
L50.7452 -26.6568
L50.8239 -26.9708
L50.897 -27.2851
L50.9646 -27.5996
L51.0268 -27.9141
L51.0838 -28.2286
L51.1354 -28.543
L51.182 -28.8571
L51.2235 -29.1709
L51.26 -29.4843
L51.2917 -29.7973
L51.3186 -30.1096
L51.3407 -30.4214
L51.3582 -30.7324
L51.3712 -31.0428
L51.3797 -31.3523
L51.3838 -31.6609
L51.3836 -31.9687
L51.3791 -32.2754
L51.3705 -32.5812
L51.3577 -32.886
L51.341 -33.1897
L51.3202 -33.4923
L51.2955 -33.7938
L51.267 -34.0941
L51.2346 -34.3932
L51.1986 -34.6912
L51.1588 -34.9879
L51.1155 -35.2834
L51.0685 -35.5776
L51.018 -35.8706
L50.964 -36.1622
L50.9066 -36.4526
L50.8458 -36.7417
L50.7816 -37.0294
L50.714 -37.3159
L50.6432 -37.601
L50.5692 -37.8848
L50.4919 -38.1672
L50.4113 -38.4483
L50.3277 -38.7281
L50.2408 -39.0065
L50.1509 -39.2835
L50.0578 -39.5592
L49.9617 -39.8335
L49.8625 -40.1065
L49.7602 -40.3781
L49.6549 -40.6484
L49.5466 -40.9173
L49.4353 -41.1848
L49.3209 -41.4509
z
" id="C0_1_26ed8a8475"/>
    </defs>
    <g clip-path="url(#p1bffca34e9)">
     <use style="fill:#ffffff;stroke:#000000;stroke-width:2.0;" x="0.0" xlink:href="#C0_0_a811fe30f3" y="72.0"/>
    </g>
    <g clip-path="url(#p1bffca34e9)">
     <use style="fill:#ff0000;stroke:#000000;stroke-width:2.0;" x="0.0" xlink:href="#C0_1_26ed8a8475" y="72.0"/>
    </g>
   </g>
  </g>
 </g>
 <defs>
  <clipPath id="p1bffca34e9">
   <rect height="72.0" width="72.0" x="0.0" y="0.0"/>
  </clipPath>
 </defs>
</svg>
