<?xml version="1.0" encoding="utf-8" standalone="no"?>
<!DOCTYPE svg PUBLIC "-//W3C//DTD SVG 1.1//EN"
  "http://www.w3.org/Graphics/SVG/1.1/DTD/svg11.dtd">
<!-- Created with matplotlib (http://matplotlib.org/) -->
<svg height="72pt" version="1.1" viewBox="0 0 72 72" width="72pt" xmlns="http://www.w3.org/2000/svg" xmlns:xlink="http://www.w3.org/1999/xlink">
 <defs>
  <style type="text/css">
*{stroke-linecap:butt;stroke-linejoin:round;}
  </style>
 </defs>
 <g id="figure_1">
  <g id="patch_1">
   <path d="
M0 72
L72 72
L72 0
L0 0
z
" style="fill:none;"/>
  </g>
  <g id="axes_1">
   <g id="PatchCollection_1">
    <defs>
     <path d="
M36 -7.5
C43.5583 -7.5 50.808 -10.5029 56.1525 -15.8475
C61.4971 -21.192 64.5 -28.4417 64.5 -36
C64.5 -43.5583 61.4971 -50.808 56.1525 -56.1525
C50.808 -61.4971 43.5583 -64.5 36 -64.5
C28.4417 -64.5 21.192 -61.4971 15.8475 -56.1525
C10.5029 -50.808 7.5 -43.5583 7.5 -36
C7.5 -28.4417 10.5029 -21.192 15.8475 -15.8475
C21.192 -10.5029 28.4417 -7.5 36 -7.5
z
" id="C0_0_a811fe30f3"/>
     <path d="
M64.2608 -32.9172
L64.1319 -33.2184
L63.9982 -33.5136
L63.8598 -33.8027
L63.7171 -34.086
L63.5701 -34.3634
L63.4191 -34.6351
L63.2643 -34.9012
L63.1059 -35.1618
L62.944 -35.417
L62.7787 -35.6669
L62.6103 -35.9116
L62.4389 -36.1512
L62.2645 -36.3858
L62.0874 -36.6155
L61.9077 -36.8403
L61.7254 -37.0605
L61.5406 -37.2761
L61.3536 -37.4872
L61.1643 -37.6939
L60.9728 -37.8962
L60.7793 -38.0943
L60.5838 -38.2883
L60.3863 -38.4782
L60.1871 -38.6642
L59.986 -38.8462
L59.7831 -39.0245
L59.5786 -39.199
L59.3725 -39.3699
L59.1648 -39.5372
L58.9555 -39.7009
L58.7447 -39.8613
L58.5325 -40.0182
L58.3187 -40.1719
L58.1036 -40.3223
L57.8871 -40.4695
L57.6692 -40.6136
L57.45 -40.7546
L57.2294 -40.8926
L57.0075 -41.0276
L56.7843 -41.1597
L56.5598 -41.289
L56.334 -41.4154
L56.1069 -41.539
L55.8786 -41.6599
L55.649 -41.778
L55.4181 -41.8935
L55.1859 -42.0064
L54.7177 -42.1166
L54.4817 -42.2243
L54.2444 -42.3294
L54.0058 -42.432
L53.7659 -42.5321
L53.5247 -42.6297
L53.2821 -42.7248
L53.0383 -42.8175
L52.793 -42.9078
L52.5465 -42.9957
L52.2985 -43.0811
L52.0492 -43.1642
L51.7985 -43.2449
L51.5464 -43.3232
L51.2929 -43.3992
L51.0379 -43.4727
L50.7815 -43.5439
L50.5237 -43.6127
L50.2643 -43.6791
L50.0035 -43.7431
L49.7412 -43.8048
L49.4775 -43.864
L49.2121 -43.9207
L48.9453 -43.9751
L48.677 -44.027
L48.4071 -44.0764
L48.1356 -44.1233
L47.8627 -44.1677
L47.5881 -44.2095
L47.312 -44.2487
L47.0344 -44.2854
L46.7552 -44.3194
L46.4745 -44.3507
L46.1922 -44.3793
L45.9083 -44.4051
L45.623 -44.4281
L45.3362 -44.4483
L45.0478 -44.4656
L44.758 -44.4799
L44.4667 -44.4913
L44.1741 -44.4996
L43.88 -44.5047
L43.5846 -44.5068
L43.2878 -44.5055
L42.9898 -44.501
L42.6906 -44.4932
L42.3901 -44.4819
L42.0886 -44.4671
L41.7861 -44.4487
L41.4825 -44.4267
L41.1781 -44.4009
L40.8728 -44.3713
L40.5668 -44.3379
L40.2602 -44.3004
L39.953 -44.2589
L39.6454 -44.2133
L39.3375 -44.1634
L39.0294 -44.1092
L38.7212 -44.0505
L38.4132 -43.9873
L38.1053 -43.9195
L37.7979 -43.8471
L37.491 -43.7698
L37.1848 -43.6876
L36.8795 -43.6004
L36.5752 -43.5081
L36.2723 -43.4106
L35.9708 -43.3079
L35.671 -43.1998
L35.373 -43.0862
L35.0772 -42.9671
L34.7837 -42.8424
L34.4927 -42.7119
L34.2046 -42.5757
L33.9195 -42.4336
L33.6376 -42.2857
L33.3592 -42.1318
L33.0846 -41.9718
L32.814 -41.8058
L32.5475 -41.6338
L32.2856 -41.4556
L32.0283 -41.2713
L31.776 -41.0809
L31.5288 -40.8844
L31.2869 -40.6819
L31.0506 -40.4733
L30.8201 -40.2587
L30.5955 -40.0381
L30.377 -39.8118
L30.1648 -39.5797
L29.9589 -39.3419
L29.7597 -39.0986
L29.5671 -38.8499
L29.3812 -38.596
L29.2022 -38.3369
L29.0301 -38.0729
L28.865 -37.8042
L28.7069 -37.531
L28.5558 -37.2533
L28.4118 -36.9715
L28.2748 -36.6858
L28.1448 -36.3964
L28.0218 -36.1035
L27.9058 -35.8073
L27.7967 -35.5081
L27.6944 -35.2061
L27.5989 -34.9016
L27.5101 -34.5947
L27.4279 -34.2857
L27.3521 -33.9749
L27.2828 -33.6624
L27.2198 -33.3485
L27.163 -33.0334
L27.1122 -32.7173
L27.0674 -32.4004
L27.0284 -32.0829
L26.9952 -31.765
L26.9675 -31.4469
L26.9453 -31.1288
L26.9285 -30.8107
L26.9169 -30.493
L26.9104 -30.1758
L26.9089 -29.8591
L26.9123 -29.5431
L26.9204 -29.2281
L26.9332 -28.914
L26.9505 -28.601
L26.9722 -28.2892
L26.9982 -27.9788
L27.0284 -27.6698
L27.0627 -27.3622
L27.101 -27.0562
L27.1433 -26.7519
L27.1893 -26.4494
L27.239 -26.1486
L27.2923 -25.8496
L27.3492 -25.5525
L27.4096 -25.2574
L27.4734 -24.9643
L27.5404 -24.6732
L27.6107 -24.3842
L27.6841 -24.0972
L27.7607 -23.8124
L27.8403 -23.5297
L27.9228 -23.2491
L28.0083 -22.9708
L28.0967 -22.6946
L28.1879 -22.4206
L28.2818 -22.1488
L28.3785 -21.8792
L28.4778 -21.6118
L28.5798 -21.3467
L28.6845 -21.0837
L28.7916 -20.823
L28.9014 -20.5644
L29.0136 -20.3081
L29.1284 -20.0539
L29.2456 -19.802
L29.3652 -19.5522
L29.4873 -19.3046
L29.6118 -19.0592
L29.7387 -18.8159
L29.868 -18.5748
L29.9997 -18.3358
L30.1337 -18.0989
L30.2702 -17.8642
L30.409 -17.6315
L30.5502 -17.401
L30.6937 -17.1726
L30.8397 -16.9462
L30.988 -16.7219
L31.1387 -16.4997
L31.2919 -16.2795
L31.4474 -16.0614
L31.6055 -15.8454
L31.7659 -15.6314
L31.9289 -15.4195
L32.0943 -15.2096
L32.2623 -15.0018
L32.4328 -14.796
L32.6059 -14.5923
L32.7817 -14.3906
L32.96 -14.191
L33.141 -13.9935
L33.3248 -13.7981
L33.5112 -13.6048
L33.7005 -13.4136
L33.8926 -13.2245
L34.0875 -13.0376
L34.2854 -12.8529
L34.4862 -12.6704
L34.69 -12.4901
L34.8969 -12.3121
L35.1068 -12.1364
L35.32 -11.963
L35.5363 -11.792
L35.7559 -11.6234
L35.9788 -11.4573
L36.2051 -11.2936
L36.4348 -11.1326
L36.6681 -10.9742
L36.9049 -10.8185
L37.1453 -10.6655
L37.3894 -10.5153
L37.6373 -10.3681
L37.8889 -10.2239
L38.1445 -10.0827
L38.404 -9.9447
L38.6676 -9.80996
L38.9352 -9.67858
L39.207 -9.55067
L39.483 -9.42635
L39.7633 -9.30574
L40.0479 -9.18897
L40.337 -9.07616
L40.6305 -8.96746
L40.9286 -8.86302
L41.2313 -8.76299
L41.5387 -8.66754
L41.8508 -8.57682
L42.1676 -8.49103
L42.4893 -8.41035
L42.9918 -8.33496
L43.4729 -8.37093
L43.9517 -8.49717
L44.4282 -8.63177
L44.902 -8.77472
L45.3732 -8.92596
L45.8415 -9.08544
L46.3068 -9.25313
L46.7689 -9.42896
L47.2278 -9.61288
L47.6833 -9.80485
L48.1352 -10.0048
L48.5834 -10.2126
L49.0278 -10.4284
L49.4682 -10.6519
L49.9045 -10.8831
L50.3365 -11.122
L50.7642 -11.3684
L51.1874 -11.6224
L51.606 -11.8838
L52.0198 -12.1525
L52.4287 -12.4285
L52.8327 -12.7117
L53.2315 -13.0019
L53.625 -13.2992
L54.0132 -13.6034
L54.3959 -13.9144
L54.773 -14.2321
L55.1444 -14.5565
L55.51 -14.8874
L55.8696 -15.2247
L56.2231 -15.5684
L56.5705 -15.9183
L56.9117 -16.2743
L57.2464 -16.6363
L57.5747 -17.0042
L57.8964 -17.3779
L58.2115 -17.7573
L58.5197 -18.1422
L58.8212 -18.5326
L59.1156 -18.9282
L59.403 -19.3291
L59.6833 -19.7351
L59.9564 -20.146
L60.2222 -20.5618
L60.4806 -20.9822
L60.7316 -21.4072
L60.975 -21.8367
L61.2108 -22.2705
L61.4389 -22.7084
L61.6593 -23.1505
L61.8719 -23.5964
L62.0766 -24.0461
L62.2733 -24.4994
L62.462 -24.9563
L62.6427 -25.4165
L62.8153 -25.8799
L62.9797 -26.3465
L63.1358 -26.8159
L63.2838 -27.2882
L63.4234 -27.7631
L63.5546 -28.2405
L63.6775 -28.7203
L63.7919 -29.2023
L63.8978 -29.6864
L63.9953 -30.1724
L64.0842 -30.6601
L64.1646 -31.1495
L64.2364 -31.6404
z
" id="C0_1_0b9e4e31c4"/>
     <path d="
M29.2129 -63.618
L28.9543 -63.4041
L28.6965 -63.1868
L28.4395 -62.9661
L28.1833 -62.7421
L27.9279 -62.5147
L27.6731 -62.2841
L27.4192 -62.0501
L27.1658 -61.8128
L26.9132 -61.5724
L26.6612 -61.3287
L26.4098 -61.0819
L26.1591 -60.832
L25.9089 -60.5791
L25.6592 -60.3232
L25.4101 -60.0643
L25.1615 -59.8026
L24.9133 -59.5381
L24.6656 -59.2708
L24.4182 -59.001
L24.1712 -58.7285
L23.9246 -58.4537
L23.6783 -58.1764
L23.4322 -57.8969
L23.1863 -57.6152
L22.9406 -57.3316
L22.695 -57.0459
L22.4495 -56.7585
L22.204 -56.4694
L21.9586 -56.1788
L21.713 -55.8867
L21.4674 -55.5934
L21.2216 -55.2989
L20.9756 -55.0035
L20.7294 -54.7071
L20.4828 -54.4101
L20.2359 -54.1124
L19.9887 -53.8143
L19.741 -53.5159
L19.4928 -53.2173
L19.2442 -52.9186
L18.995 -52.62
L18.7453 -52.3216
L18.4951 -52.0235
L18.2443 -51.7258
L17.993 -51.4285
L17.7411 -51.1319
L17.4888 -50.8359
L17.2359 -50.5407
L16.9826 -50.2462
L16.729 -49.9526
L16.4749 -49.6599
L16.2206 -49.3682
L15.9661 -49.0774
L15.7114 -48.7876
L15.4568 -48.4988
L15.2022 -48.211
L14.9477 -47.9242
L14.6936 -47.6383
L14.4398 -47.3535
L14.1865 -47.0696
L13.9339 -46.7867
L13.6821 -46.5046
L13.4311 -46.2235
L13.1812 -45.9432
L12.9324 -45.6636
L12.6849 -45.3849
L12.4388 -45.1069
L12.1942 -44.8296
L11.9513 -44.5529
L11.7102 -44.2769
L11.471 -44.0014
L11.2337 -43.7265
L10.9986 -43.452
L10.7658 -43.178
L10.5352 -42.9045
L10.3071 -42.6313
L10.0815 -42.3584
L9.85848 -42.0859
L9.63816 -41.8136
L9.42061 -41.5415
L9.20588 -41.2697
L8.99406 -40.998
L8.78519 -40.7265
L8.57935 -40.455
L8.37658 -40.1837
L8.17693 -39.9123
L7.98044 -39.641
L7.76443 -39.3697
L7.83633 -39.8733
L7.91681 -40.3655
L8.00584 -40.8564
L8.1034 -41.3458
L8.20946 -41.8335
L8.32398 -42.3195
L8.44694 -42.8035
L8.57828 -43.2855
L8.71798 -43.7653
L8.86599 -44.2427
L9.02227 -44.7175
L9.18676 -45.1898
L9.35942 -45.6592
L9.54019 -46.1257
L9.72903 -46.5891
L9.92587 -47.0493
L10.1306 -47.5061
L10.3433 -47.9594
L10.5638 -48.409
L10.792 -48.8549
L11.0279 -49.2969
L11.2714 -49.7348
L11.5225 -50.1685
L11.781 -50.5979
L12.0468 -51.0229
L12.32 -51.4433
L12.6004 -51.859
L12.8879 -52.2698
L13.1824 -52.6757
L13.4839 -53.0766
L13.7923 -53.4722
L14.1074 -53.8625
L14.4292 -54.2473
L14.7576 -54.6266
L15.0924 -55.0003
L15.4336 -55.3681
L15.7811 -55.73
L16.1347 -56.086
L16.4944 -56.4358
L16.86 -56.7794
L17.2315 -57.1166
L17.6087 -57.4474
L17.9914 -57.7717
L18.3797 -58.0894
L18.7733 -58.4003
L19.1722 -58.7044
L19.5762 -59.0016
L19.9852 -59.2918
L20.399 -59.5749
L20.8177 -59.8508
L21.2409 -60.1194
L21.6687 -60.3807
L22.1008 -60.6346
L22.5371 -60.881
L22.9776 -61.1197
L23.422 -61.3509
L23.8703 -61.5743
L24.3222 -61.7899
L24.7777 -61.9977
L25.2366 -62.1975
L25.6988 -62.3894
L26.1642 -62.5732
L26.6325 -62.7489
L27.1037 -62.9165
L27.5776 -63.0759
L28.054 -63.2271
L28.5329 -63.3699
z
" id="C0_2_1bbe3cbff2"/>
    </defs>
    <g clip-path="url(#p1bffca34e9)">
     <use style="fill:#ffffff;stroke:#000000;stroke-width:2.0;" x="0.0" xlink:href="#C0_0_a811fe30f3" y="72.0"/>
    </g>
    <g clip-path="url(#p1bffca34e9)">
     <use style="fill:#ff0000;stroke:#000000;stroke-width:2.0;" x="0.0" xlink:href="#C0_1_0b9e4e31c4" y="72.0"/>
    </g>
    <g clip-path="url(#p1bffca34e9)">
     <use style="fill:#ff0000;stroke:#000000;stroke-width:2.0;" x="0.0" xlink:href="#C0_2_1bbe3cbff2" y="72.0"/>
    </g>
   </g>
  </g>
 </g>
 <defs>
  <clipPath id="p1bffca34e9">
   <rect height="72.0" width="72.0" x="0.0" y="0.0"/>
  </clipPath>
 </defs>
</svg>
