<?xml version="1.0" encoding="utf-8" standalone="no"?>
<!DOCTYPE svg PUBLIC "-//W3C//DTD SVG 1.1//EN"
  "http://www.w3.org/Graphics/SVG/1.1/DTD/svg11.dtd">
<!-- Created with matplotlib (http://matplotlib.org/) -->
<svg height="72pt" version="1.1" viewBox="0 0 72 72" width="72pt" xmlns="http://www.w3.org/2000/svg" xmlns:xlink="http://www.w3.org/1999/xlink">
 <defs>
  <style type="text/css">
*{stroke-linecap:butt;stroke-linejoin:round;}
  </style>
 </defs>
 <g id="figure_1">
  <g id="patch_1">
   <path d="
M0 72
L72 72
L72 0
L0 0
z
" style="fill:none;"/>
  </g>
  <g id="axes_1">
   <g id="PatchCollection_1">
    <defs>
     <path d="
M36 -7.5
C43.5583 -7.5 50.808 -10.5029 56.1525 -15.8475
C61.4971 -21.192 64.5 -28.4417 64.5 -36
C64.5 -43.5583 61.4971 -50.808 56.1525 -56.1525
C50.808 -61.4971 43.5583 -64.5 36 -64.5
C28.4417 -64.5 21.192 -61.4971 15.8475 -56.1525
C10.5029 -50.808 7.5 -43.5583 7.5 -36
C7.5 -28.4417 10.5029 -21.192 15.8475 -15.8475
C21.192 -10.5029 28.4417 -7.5 36 -7.5
z
" id="C0_0_a811fe30f3"/>
     <path d="
M56.1019 -56.0418
L55.8237 -56.0144
L55.5541 -55.971
L55.2934 -55.9116
L55.0416 -55.8369
L54.7988 -55.7471
L54.5649 -55.6428
L54.3398 -55.5244
L54.1233 -55.3927
L53.9151 -55.248
L53.7151 -55.091
L53.5229 -54.9224
L53.3381 -54.7427
L53.1604 -54.5526
L52.9895 -54.3528
L52.8249 -54.1438
L52.6662 -53.9263
L52.513 -53.7009
L52.365 -53.4682
L52.2218 -53.2287
L52.0829 -52.983
L51.9481 -52.7317
L51.817 -52.4752
L51.6893 -52.214
L51.5647 -51.9487
L51.4429 -51.6795
L51.3237 -51.407
L51.2068 -51.1315
L51.0919 -50.8535
L50.979 -50.5731
L50.8677 -50.2908
L50.7579 -50.0069
L50.6495 -49.7215
L50.5423 -49.4351
L50.4362 -49.1478
L50.331 -48.8599
L50.2267 -48.5715
L50.1232 -48.2828
L50.0203 -47.9941
L49.9181 -47.7055
L49.8163 -47.4171
L49.715 -47.129
L49.6141 -46.8414
L49.5136 -46.5545
L49.4133 -46.2682
L49.3133 -45.9826
L49.2135 -45.698
L49.114 -45.4142
L49.0145 -45.1315
L48.9153 -44.8498
L48.8161 -44.5691
L48.717 -44.2897
L48.6179 -44.0113
L48.5189 -43.7342
L48.4199 -43.4583
L48.321 -43.1836
L48.222 -42.9101
L48.123 -42.6379
L48.024 -42.367
L47.9249 -42.0973
L47.8258 -41.8289
L47.7265 -41.5617
L47.6273 -41.2957
L47.5279 -41.031
L47.4284 -40.7674
L47.3287 -40.5051
L47.229 -40.2439
L47.1291 -39.9839
L47.0291 -39.7249
L46.9289 -39.4671
L46.8285 -39.2104
L46.7279 -38.9547
L46.6272 -38.7
L46.5262 -38.4462
L46.425 -38.1935
L46.3236 -37.9416
L46.2219 -37.6906
L46.1199 -37.4405
L46.0177 -37.1911
L45.9152 -36.9426
L45.8124 -36.6947
L45.7093 -36.4476
L45.6058 -36.2011
L45.502 -35.9553
L45.3978 -35.71
L45.2933 -35.4653
L45.1883 -35.221
L45.083 -34.9773
L44.9772 -34.7339
L44.871 -34.491
L44.7643 -34.2483
L44.6571 -34.006
L44.4413 -33.764
L44.3326 -33.5222
L44.2234 -33.2805
L44.1136 -33.039
L44.0032 -32.7976
L43.8923 -32.5563
L43.7806 -32.315
L43.6684 -32.0736
L43.5555 -31.8323
L43.4419 -31.5908
L43.3277 -31.3492
L43.2127 -31.1074
L43.097 -30.8654
L42.9805 -30.6232
L42.8632 -30.3806
L42.7452 -30.1378
L42.6264 -29.8946
L42.5067 -29.651
L42.3862 -29.4069
L42.2648 -29.1624
L42.1425 -28.9174
L42.0194 -28.6719
L41.8953 -28.4257
L41.7703 -28.179
L41.6443 -27.9317
L41.5174 -27.6837
L41.3895 -27.4349
L41.2607 -27.1855
L41.1308 -26.9353
L40.9999 -26.6844
L40.868 -26.4326
L40.7351 -26.18
L40.6012 -25.9266
L40.4662 -25.6723
L40.3302 -25.4171
L40.1932 -25.161
L40.0551 -24.9039
L39.9161 -24.6459
L39.776 -24.387
L39.6349 -24.1271
L39.4928 -23.8663
L39.3498 -23.6044
L39.2059 -23.3416
L39.0611 -23.0778
L38.9154 -22.8131
L38.7688 -22.5473
L38.6216 -22.2806
L38.4736 -22.0129
L38.3249 -21.7443
L38.1757 -21.4747
L38.0259 -21.2043
L37.8758 -20.9329
L37.7254 -20.6607
L37.5747 -20.3877
L37.424 -20.1138
L37.2733 -19.8392
L37.1229 -19.5638
L36.9728 -19.2878
L36.8233 -19.0112
L36.6745 -18.7339
L36.5267 -18.4561
L36.3801 -18.1779
L36.235 -17.8992
L36.0916 -17.6202
L35.9502 -17.3409
L35.8112 -17.0613
L35.6749 -16.7817
L35.5417 -16.5019
L35.412 -16.2222
L35.2862 -15.9426
L35.1647 -15.6632
L35.0482 -15.384
L34.937 -15.1051
L34.8317 -14.8267
L34.7329 -14.5489
L34.6413 -14.2716
L34.5573 -13.9951
L34.4817 -13.7194
L34.4151 -13.4447
L34.3582 -13.171
L34.3116 -12.8985
L34.2762 -12.6273
L34.2524 -12.3575
L34.2411 -12.0893
L34.2427 -11.8229
L34.2581 -11.5583
L34.2877 -11.2958
L34.3321 -11.0355
L34.3917 -10.7778
L34.4669 -10.5227
L34.5583 -10.2705
L34.6658 -10.0216
L34.7899 -9.77611
L34.9306 -9.53439
L35.088 -9.29673
L35.262 -9.06344
L35.4525 -8.83487
L35.6593 -8.61133
L35.8821 -8.39317
L36.1207 -8.18074
L36.3747 -7.97439
L36.6436 -7.77445
L37.1424 -7.58126
L37.6392 -7.52291
L38.1355 -7.54718
L38.6312 -7.58012
L39.1261 -7.62172
L39.62 -7.67196
L40.1128 -7.73084
L40.6044 -7.79832
L41.0945 -7.87439
L41.5831 -7.95903
L42.07 -8.05222
L42.5551 -8.15391
L43.0382 -8.26409
L43.5191 -8.38272
L43.9977 -8.50976
L44.4739 -8.64517
L44.9475 -8.78892
L45.4184 -8.94095
L45.8864 -9.10123
L46.3514 -9.2697
L46.8133 -9.44631
L47.2718 -9.63101
L47.7269 -9.82374
L48.1785 -10.0245
L48.6263 -10.2331
L49.0703 -10.4495
L49.5103 -10.6738
L49.9462 -10.9058
L50.3779 -11.1454
L50.8051 -11.3925
L51.2279 -11.6472
L51.646 -11.9093
L52.0594 -12.1787
L52.4678 -12.4554
L52.8713 -12.7393
L53.2696 -13.0302
L53.6626 -13.3282
L54.0503 -13.633
L54.4325 -13.9447
L54.809 -14.2631
L55.1799 -14.5881
L55.5448 -14.9196
L55.9039 -15.2576
L56.2568 -15.6018
L56.6036 -15.9523
L56.9442 -16.3089
L57.2783 -16.6715
L57.6059 -17.0399
L57.927 -17.4142
L58.2414 -17.7941
L58.549 -18.1795
L58.8498 -18.5704
L59.1436 -18.9666
L59.4303 -19.368
L59.7099 -19.7744
L59.9823 -20.1858
L60.2474 -20.602
L60.5051 -21.0229
L60.7553 -21.4484
L60.998 -21.8783
L61.2331 -22.3124
L61.4605 -22.7508
L61.6801 -23.1932
L61.8919 -23.6395
L62.0958 -24.0896
L62.2918 -24.5433
L62.4798 -25.0004
L62.6597 -25.461
L62.8315 -25.9247
L62.9951 -26.3915
L63.1504 -26.8613
L63.2976 -27.3338
L63.4363 -27.8089
L63.5668 -28.2866
L63.6888 -28.7666
L63.8024 -29.2488
L63.9076 -29.7331
L64.0042 -30.2192
L64.0923 -30.7072
L64.1719 -31.1967
L64.2428 -31.6877
L64.3052 -32.1801
L64.3589 -32.6735
L64.4041 -33.168
L64.4405 -33.6634
L64.4683 -34.1595
L64.4874 -34.6561
L64.4979 -35.1532
L64.4996 -35.6505
L64.4927 -36.1479
L64.4771 -36.6452
L64.4528 -37.1424
L64.4199 -37.6392
L64.3783 -38.1355
L64.328 -38.6312
L64.2692 -39.1261
L64.2017 -39.62
L64.1256 -40.1128
L64.041 -40.6044
L63.9478 -41.0945
L63.8461 -41.5831
L63.7359 -42.07
L63.6173 -42.5551
L63.4902 -43.0382
L63.3548 -43.5191
L63.2111 -43.9977
L63.0591 -44.4739
L62.8988 -44.9475
L62.7303 -45.4184
L62.5537 -45.8864
L62.369 -46.3514
L62.1763 -46.8133
L61.9755 -47.2718
L61.7669 -47.7269
L61.5505 -48.1785
L61.3262 -48.6263
L61.0942 -49.0703
L60.8546 -49.5103
L60.6075 -49.9462
L60.3528 -50.3779
L60.0907 -50.8051
L59.8213 -51.2279
L59.5446 -51.646
L59.2607 -52.0594
L58.9698 -52.4678
L58.6718 -52.8713
L58.367 -53.2696
L58.0553 -53.6626
L57.7369 -54.0503
L57.4119 -54.4325
L57.0804 -54.809
L56.7424 -55.1799
z
" id="C0_1_afe7d3e877"/>
     <path d="
M35.0808 -64.3648
L34.8022 -64.1616
L34.5178 -63.9568
L34.2285 -63.7504
L33.935 -63.5421
L33.6379 -63.3319
L33.3379 -63.1197
L33.0356 -62.9055
L32.7315 -62.6893
L32.4262 -62.4709
L32.1202 -62.2504
L31.8141 -62.0277
L31.5081 -61.803
L31.2027 -61.5763
L30.8983 -61.3474
L30.5953 -61.1166
L30.2939 -60.8839
L29.9944 -60.6492
L29.697 -60.4128
L29.4021 -60.1746
L29.1098 -59.9347
L28.8202 -59.6932
L28.5336 -59.4502
L28.2501 -59.2058
L27.9698 -58.9599
L27.6928 -58.7128
L27.4193 -58.4644
L27.1492 -58.2149
L26.8826 -57.9643
L26.6197 -57.7126
L26.3603 -57.4601
L26.1047 -57.2066
L25.8527 -56.9524
L25.6044 -56.6974
L25.3599 -56.4417
L25.119 -56.1853
L24.8818 -55.9283
L24.6483 -55.6708
L24.4184 -55.4128
L24.1921 -55.1542
L23.9695 -54.8953
L23.7504 -54.6359
L23.5348 -54.3762
L23.3228 -54.1161
L23.1142 -53.8557
L22.909 -53.595
L22.7071 -53.334
L22.5086 -53.0727
L22.3134 -52.8111
L22.1214 -52.5493
L21.9326 -52.2872
L21.7469 -52.0249
L21.5643 -51.7623
L21.3847 -51.4995
L21.2082 -51.2364
L21.0346 -50.973
L20.8639 -50.7094
L20.696 -50.4455
L20.531 -50.1812
L20.3687 -49.9167
L20.2091 -49.6519
L20.0522 -49.3866
L19.898 -49.1211
L19.7463 -48.8551
L19.5973 -48.5887
L19.4507 -48.3219
L19.3066 -48.0547
L19.1649 -47.7869
L19.0257 -47.5186
L18.8888 -47.2498
L18.7543 -46.9804
L18.6221 -46.7104
L18.4922 -46.4397
L18.3645 -46.1684
L18.2391 -45.8963
L18.1159 -45.6235
L17.9948 -45.3499
L17.876 -45.0755
L17.7592 -44.8003
L17.6446 -44.5241
L17.5321 -44.247
L17.4217 -43.9689
L17.3133 -43.6898
L17.207 -43.4096
L17.1028 -43.1284
L17.0006 -42.8459
L16.9004 -42.5623
L16.8023 -42.2775
L16.7062 -41.9913
L16.6121 -41.7039
L16.52 -41.4151
L16.43 -41.1248
L16.342 -40.8332
L16.256 -40.54
L16.1721 -40.2453
L16.0902 -39.9489
L16.0104 -39.651
L15.9326 -39.3514
L15.8569 -39.0501
L15.7833 -38.747
L15.7119 -38.4421
L15.6425 -38.1353
L15.5753 -37.8267
L15.5103 -37.5162
L15.4475 -37.2036
L15.3869 -36.8891
L15.3286 -36.5726
L15.2725 -36.254
L15.2188 -35.9333
L15.1673 -35.6104
L15.1183 -35.2854
L15.0717 -34.9582
L15.0275 -34.6288
L14.9858 -34.2972
L14.9466 -33.9633
L14.9099 -33.6272
L14.8759 -33.2888
L14.8445 -32.9481
L14.8157 -32.6052
L14.7897 -32.26
L14.7664 -31.9125
L14.7459 -31.5627
L14.7282 -31.2107
L14.7134 -30.8565
L14.7014 -30.5001
L14.6924 -30.1416
L14.6863 -29.781
L14.6832 -29.4184
L14.683 -29.0537
L14.6859 -28.6872
L14.6917 -28.3188
L14.7006 -27.9487
L14.7124 -27.5769
L14.7272 -27.2036
L14.745 -26.8289
L14.7657 -26.4529
L14.7892 -26.0758
L14.8156 -25.6977
L14.8446 -25.3188
L14.8763 -24.9393
L14.9105 -24.5594
L14.9471 -24.1793
L14.9859 -23.7992
L15.0268 -23.4194
L15.0695 -23.0401
L15.1139 -22.6616
L15.1596 -22.2842
L15.2064 -21.9082
L15.2539 -21.5339
L15.3019 -21.1617
L15.3499 -20.7919
L15.3976 -20.4248
L15.4445 -20.0608
L15.4901 -19.7004
L15.534 -19.3439
L15.5755 -18.9917
L15.6142 -18.6442
L15.6495 -18.3019
L15.6808 -17.9651
L15.7074 -17.6343
L15.7288 -17.3099
L15.7444 -16.9922
L15.7536 -16.6818
L15.7557 -16.3789
L15.3351 -16.084
L14.9957 -16.3732
L14.6627 -16.7369
L14.3362 -17.1064
L14.0163 -17.4817
L13.7031 -17.8626
L13.3967 -18.249
L13.0972 -18.6408
L12.8046 -19.038
L12.5192 -19.4402
L12.2408 -19.8476
L11.9698 -20.2598
L11.706 -20.6769
L11.4496 -21.0986
L11.2007 -21.5249
L10.9594 -21.9555
L10.7257 -22.3905
L10.4997 -22.8296
L10.2815 -23.2727
L10.0711 -23.7197
L9.86855 -24.1704
L9.67401 -24.6247
L9.48748 -25.0825
L9.30903 -25.5436
L9.13871 -26.0079
L8.97657 -26.4752
L8.82266 -26.9455
L8.67703 -27.4185
L8.53973 -27.8941
L8.41078 -28.3722
L8.29025 -28.8526
L8.17815 -29.3352
L8.07453 -29.8198
L7.97941 -30.3063
L7.89283 -30.7945
L7.81482 -31.2844
L7.74538 -31.7756
L7.68456 -32.2682
L7.63236 -32.7618
L7.5888 -33.2565
L7.55389 -33.752
L7.52765 -34.2482
L7.51008 -34.7449
L7.50119 -35.242
L7.50098 -35.7394
L7.50946 -36.2368
L7.52661 -36.7341
L7.55243 -37.2312
L7.58692 -37.728
L7.63007 -38.2242
L7.68185 -38.7197
L7.74227 -39.2144
L7.81129 -39.7082
L7.88889 -40.2008
L7.97506 -40.6921
L8.06977 -41.182
L8.17298 -41.6703
L8.28467 -42.1569
L8.4048 -42.6416
L8.53334 -43.1243
L8.67025 -43.6048
L8.81548 -44.083
L8.96899 -44.5587
L9.13073 -45.0319
L9.30066 -45.5022
L9.47872 -45.9697
L9.66487 -46.4342
L9.85903 -46.8954
L10.0612 -47.3534
L10.2712 -47.8079
L10.489 -48.2588
L10.7147 -48.7059
L10.948 -49.1492
L11.189 -49.5885
L11.4375 -50.0237
L11.6935 -50.4546
L11.9569 -50.881
L12.2277 -51.303
L12.5056 -51.7202
L12.7908 -52.1327
L13.083 -52.5403
L13.3822 -52.9428
L13.6882 -53.3402
L14.0011 -53.7323
L14.3207 -54.119
L14.6469 -54.5002
L14.9795 -54.8757
L15.3186 -55.2455
L15.664 -55.6094
L16.0156 -55.9674
L16.3732 -56.3193
L16.7369 -56.6649
L17.1064 -57.0043
L17.4817 -57.3373
L17.8626 -57.6638
L18.249 -57.9837
L18.6408 -58.2969
L19.038 -58.6033
L19.4402 -58.9028
L19.8476 -59.1954
L20.2598 -59.4808
L20.6769 -59.7592
L21.0986 -60.0302
L21.5249 -60.294
L21.9555 -60.5504
L22.3905 -60.7993
L22.8296 -61.0406
L23.2727 -61.2743
L23.7197 -61.5003
L24.1704 -61.7185
L24.6247 -61.9289
L25.0825 -62.1314
L25.5436 -62.326
L26.0079 -62.5125
L26.4752 -62.691
L26.9455 -62.8613
L27.4185 -63.0234
L27.8941 -63.1773
L28.3722 -63.323
L28.8526 -63.4603
L29.3352 -63.5892
L29.8198 -63.7098
L30.3063 -63.8218
L30.7945 -63.9255
L31.2844 -64.0206
L31.7756 -64.1072
L32.2682 -64.1852
L32.7618 -64.2546
L33.2565 -64.3154
L33.752 -64.3676
L34.2482 -64.4112
z
" id="C0_2_fe4c7c1d18"/>
    </defs>
    <g clip-path="url(#p1bffca34e9)">
     <use style="fill:#ff0000;stroke:#000000;stroke-width:2.0;" x="0.0" xlink:href="#C0_0_a811fe30f3" y="72.0"/>
    </g>
    <g clip-path="url(#p1bffca34e9)">
     <use style="fill:#ffffff;stroke:#000000;stroke-width:2.0;" x="0.0" xlink:href="#C0_1_afe7d3e877" y="72.0"/>
    </g>
    <g clip-path="url(#p1bffca34e9)">
     <use style="fill:#ffffff;stroke:#000000;stroke-width:2.0;" x="0.0" xlink:href="#C0_2_fe4c7c1d18" y="72.0"/>
    </g>
   </g>
  </g>
 </g>
 <defs>
  <clipPath id="p1bffca34e9">
   <rect height="72.0" width="72.0" x="0.0" y="0.0"/>
  </clipPath>
 </defs>
</svg>
