<?xml version="1.0" encoding="utf-8" standalone="no"?>
<!DOCTYPE svg PUBLIC "-//W3C//DTD SVG 1.1//EN"
  "http://www.w3.org/Graphics/SVG/1.1/DTD/svg11.dtd">
<!-- Created with matplotlib (http://matplotlib.org/) -->
<svg height="72pt" version="1.1" viewBox="0 0 72 72" width="72pt" xmlns="http://www.w3.org/2000/svg" xmlns:xlink="http://www.w3.org/1999/xlink">
 <defs>
  <style type="text/css">
*{stroke-linecap:butt;stroke-linejoin:round;}
  </style>
 </defs>
 <g id="figure_1">
  <g id="patch_1">
   <path d="
M0 72
L72 72
L72 0
L0 0
z
" style="fill:none;"/>
  </g>
  <g id="axes_1">
   <g id="PatchCollection_1">
    <defs>
     <path d="
M36 -7.5
C43.5583 -7.5 50.808 -10.5029 56.1525 -15.8475
C61.4971 -21.192 64.5 -28.4417 64.5 -36
C64.5 -43.5583 61.4971 -50.808 56.1525 -56.1525
C50.808 -61.4971 43.5583 -64.5 36 -64.5
C28.4417 -64.5 21.192 -61.4971 15.8475 -56.1525
C10.5029 -50.808 7.5 -43.5583 7.5 -36
C7.5 -28.4417 10.5029 -21.192 15.8475 -15.8475
C21.192 -10.5029 28.4417 -7.5 36 -7.5
z
" id="C0_0_a811fe30f3"/>
     <path d="
M39.8261 -7.8293
L39.6452 -8.01972
L39.4767 -8.21608
L39.3207 -8.4181
L39.1768 -8.62551
L39.045 -8.83805
L38.925 -9.05545
L38.8164 -9.27746
L38.7191 -9.50384
L38.6327 -9.73435
L38.5569 -9.96875
L38.4913 -10.2068
L38.4355 -10.4484
L38.3891 -10.6932
L38.3518 -10.941
L38.3232 -11.1917
L38.3028 -11.445
L38.2902 -11.7008
L38.2851 -11.959
L38.287 -12.2192
L38.2956 -12.4815
L38.3104 -12.7456
L38.3312 -13.0113
L38.3574 -13.2786
L38.3889 -13.5473
L38.4252 -13.8172
L38.466 -14.0883
L38.511 -14.3604
L38.5599 -14.6334
L38.6125 -14.9072
L38.6683 -15.1817
L38.7273 -15.4568
L38.7891 -15.7323
L38.8535 -16.0083
L38.9203 -16.2846
L38.9893 -16.5611
L39.0603 -16.8378
L39.1331 -17.1145
L39.2075 -17.3913
L39.2834 -17.668
L39.3606 -17.9447
L39.439 -18.2211
L39.5185 -18.4974
L39.5989 -18.7734
L39.6801 -19.049
L39.7621 -19.3244
L39.8447 -19.5993
L39.9278 -19.8739
L40.0113 -20.148
L40.0953 -20.4216
L40.1795 -20.6948
L40.264 -20.9674
L40.3486 -21.2395
L40.4334 -21.5111
L40.5182 -21.7821
L40.6031 -22.0525
L40.6879 -22.3224
L40.7727 -22.5917
L40.8574 -22.8604
L40.9419 -23.1286
L41.0263 -23.3961
L41.1106 -23.6631
L41.1946 -23.9296
L41.2785 -24.1954
L41.3621 -24.4608
L41.4454 -24.7256
L41.5285 -24.9898
L41.6113 -25.2536
L41.6938 -25.5168
L41.776 -25.7796
L41.8579 -26.042
L41.9395 -26.3039
L42.0208 -26.5654
L42.1018 -26.8264
L42.1824 -27.0871
L42.2628 -27.3475
L42.3428 -27.6075
L42.4225 -27.8672
L42.5019 -28.1267
L42.581 -28.3859
L42.6598 -28.6449
L42.7383 -28.9036
L42.8164 -29.1623
L42.8943 -29.4207
L42.9719 -29.6791
L43.0492 -29.9374
L43.1262 -30.1956
L43.203 -30.4538
L43.2795 -30.712
L43.3557 -30.9702
L43.4317 -31.2285
L43.583 -31.4869
L43.6582 -31.7455
L43.7333 -32.0042
L43.8082 -32.2631
L43.8829 -32.5222
L43.9574 -32.7815
L44.0317 -33.0412
L44.1058 -33.3011
L44.1798 -33.5614
L44.2537 -33.8221
L44.3274 -34.0831
L44.401 -34.3446
L44.4744 -34.6066
L44.5478 -34.869
L44.6211 -35.132
L44.6943 -35.3954
L44.7674 -35.6595
L44.8405 -35.9241
L44.9136 -36.1894
L44.9866 -36.4553
L45.0596 -36.7219
L45.1326 -36.9891
L45.2056 -37.2571
L45.2786 -37.5258
L45.3517 -37.7952
L45.4248 -38.0654
L45.498 -38.3363
L45.5713 -38.608
L45.6447 -38.8806
L45.7183 -39.1539
L45.7919 -39.428
L45.8658 -39.703
L45.9398 -39.9788
L46.014 -40.2554
L46.0884 -40.5328
L46.1631 -40.8111
L46.2381 -41.0901
L46.3134 -41.37
L46.389 -41.6506
L46.465 -41.9319
L46.5414 -42.2141
L46.6182 -42.4969
L46.6954 -42.7804
L46.7732 -43.0645
L46.8515 -43.3492
L46.9304 -43.6345
L47.01 -43.9203
L47.0902 -44.2065
L47.1712 -44.4931
L47.2529 -44.7801
L47.3355 -45.0672
L47.4191 -45.3545
L47.5036 -45.6419
L47.5892 -45.9293
L47.6759 -46.2165
L47.7639 -46.5034
L47.8532 -46.79
L47.9439 -47.0761
L48.0361 -47.3615
L48.13 -47.6462
L48.2256 -47.9298
L48.323 -48.2124
L48.4225 -48.4937
L48.5241 -48.7734
L48.6279 -49.0515
L48.7342 -49.3277
L48.8431 -49.6017
L48.9548 -49.8734
L49.0694 -50.1425
L49.1871 -50.4088
L49.3081 -50.6719
L49.4325 -50.9316
L49.5607 -51.1877
L49.6928 -51.4398
L49.829 -51.6876
L49.9695 -51.9308
L50.1145 -52.169
L50.2643 -52.4021
L50.419 -52.6296
L50.5789 -52.8511
L50.7441 -53.0664
L50.9148 -53.2751
L51.0913 -53.4768
L51.2736 -53.6712
L51.4619 -53.858
L51.6564 -54.0368
L51.8572 -54.2073
L52.0644 -54.3692
L52.278 -54.5221
L52.498 -54.6657
L52.7246 -54.7997
L52.9577 -54.924
L53.1972 -55.0381
L53.4431 -55.1418
L53.6953 -55.235
L53.9537 -55.3173
L54.2181 -55.3887
L54.4883 -55.4489
L54.7642 -55.4977
L55.0455 -55.5351
L55.3319 -55.5609
L55.6232 -55.5751
L55.9192 -55.5775
L56.2194 -55.568
L56.5236 -55.5468
L56.9939 -55.5136
L57.3271 -55.2745
L57.6538 -54.9051
L57.9739 -54.5301
L58.2873 -54.1493
L58.5939 -53.7631
L58.8936 -53.3714
L59.1864 -52.9744
L59.4721 -52.5723
L59.7506 -52.1651
L60.022 -51.753
L60.2859 -51.3361
L60.5425 -50.9145
L60.7917 -50.4884
L61.0332 -50.0579
L61.2672 -49.623
L61.4934 -49.1841
L61.7119 -48.7411
L61.9225 -48.2942
L62.1253 -47.8436
L62.3201 -47.3894
L62.5069 -46.9317
L62.6856 -46.4707
L62.8561 -46.0065
L63.0185 -45.5393
L63.1727 -45.0691
L63.3186 -44.5962
L63.4561 -44.1206
L63.5853 -43.6426
L63.7061 -43.1623
L63.8185 -42.6798
L63.9224 -42.1952
L64.0178 -41.7088
L64.1046 -41.2206
L64.1829 -40.7308
L64.2526 -40.2396
L64.3137 -39.7471
L64.3662 -39.2535
L64.41 -38.7588
L64.4452 -38.2633
L64.4717 -37.7672
L64.4895 -37.2705
L64.4987 -36.7734
L64.4991 -36.276
L64.4909 -35.7786
L64.4741 -35.2813
L64.4485 -34.7842
L64.4143 -34.2874
L64.3714 -33.7912
L64.3199 -33.2956
L64.2597 -32.8009
L64.191 -32.3071
L64.1136 -31.8145
L64.0277 -31.3231
L63.9333 -30.8332
L63.8303 -30.3448
L63.7189 -29.8582
L63.599 -29.3734
L63.4708 -28.8906
L63.3341 -28.4101
L63.1891 -27.9318
L63.0359 -27.456
L62.8744 -26.9828
L62.7047 -26.5123
L62.5269 -26.0447
L62.341 -25.5802
L62.1471 -25.1188
L61.9452 -24.6607
L61.7354 -24.2061
L61.5178 -23.7551
L61.2924 -23.3078
L61.0593 -22.8644
L60.8186 -22.425
L60.5703 -21.9897
L60.3145 -21.5587
L60.0513 -21.1321
L59.7808 -20.71
L59.5031 -20.2926
L59.2182 -19.88
L58.9262 -19.4722
L58.6272 -19.0695
L58.3213 -18.672
L58.0087 -18.2797
L57.6893 -17.8929
L57.3633 -17.5115
L57.0309 -17.1358
L56.692 -16.7658
L56.3468 -16.4017
L55.9954 -16.0436
L55.6379 -15.6915
L55.2745 -15.3457
L54.9051 -15.0061
L54.5301 -14.6729
L54.1493 -14.3462
L53.7631 -14.0261
L53.3714 -13.7127
L52.9744 -13.4061
L52.5723 -13.1064
L52.1651 -12.8136
L51.753 -12.5279
L51.3361 -12.2494
L50.9145 -11.978
L50.4884 -11.7141
L50.0579 -11.4575
L49.623 -11.2083
L49.1841 -10.9668
L48.7411 -10.7328
L48.2942 -10.5066
L47.8436 -10.2881
L47.3894 -10.0775
L46.9317 -9.8747
L46.4707 -9.67991
L46.0065 -9.49313
L45.5393 -9.31443
L45.0691 -9.14386
L44.5962 -8.98146
L44.1206 -8.8273
L43.6426 -8.68142
L43.1623 -8.54385
L42.6798 -8.41465
L42.1952 -8.29385
L41.7088 -8.18149
L41.2206 -8.07761
L40.7308 -7.98223
z
" id="C0_1_81ffead5a9"/>
     <path d="
M15.1872 -16.5488
L15.1566 -16.863
L15.1244 -17.1808
L15.0908 -17.502
L15.0562 -17.8264
L15.0209 -18.1536
L14.9852 -18.4834
L14.9493 -18.8156
L14.9135 -19.1499
L14.878 -19.4862
L14.8431 -19.8241
L14.8089 -20.1634
L14.7757 -20.5041
L14.7436 -20.8457
L14.7127 -21.1883
L14.6833 -21.5315
L14.6554 -21.8753
L14.6292 -22.2194
L14.6048 -22.5637
L14.5822 -22.9081
L14.5616 -23.2524
L14.543 -23.5965
L14.5265 -23.9402
L14.5121 -24.2835
L14.4999 -24.6263
L14.4899 -24.9684
L14.4822 -25.3098
L14.4768 -25.6504
L14.4736 -25.99
L14.4728 -26.3287
L14.4743 -26.6664
L14.4781 -27.003
L14.4842 -27.3385
L14.4927 -27.6728
L14.5034 -28.0059
L14.5165 -28.3377
L14.5319 -28.6682
L14.5496 -28.9975
L14.5696 -29.3254
L14.5918 -29.6519
L14.6163 -29.9771
L14.643 -30.3009
L14.6719 -30.6234
L14.703 -30.9444
L14.7363 -31.2641
L14.7717 -31.5824
L14.8093 -31.8993
L14.849 -32.2149
L14.8908 -32.5291
L14.9347 -32.8419
L14.9807 -33.1535
L15.0287 -33.4637
L15.0788 -33.7726
L15.1309 -34.0803
L15.1849 -34.3867
L15.241 -34.6918
L15.2991 -34.9958
L15.3591 -35.2985
L15.4211 -35.6002
L15.4851 -35.9006
L15.5509 -36.2
L15.6188 -36.4983
L15.6885 -36.7956
L15.7602 -37.0919
L15.8337 -37.3871
L15.9092 -37.6814
L15.9866 -37.9748
L16.0659 -38.2673
L16.1471 -38.559
L16.2303 -38.8498
L16.3153 -39.1398
L16.4022 -39.429
L16.4911 -39.7175
L16.5819 -40.0053
L16.6746 -40.2924
L16.7693 -40.5789
L16.8659 -40.8648
L16.9644 -41.1501
L17.0649 -41.4349
L17.1674 -41.7191
L17.2719 -42.0029
L17.3784 -42.2862
L17.4869 -42.569
L17.5974 -42.8515
L17.7099 -43.1336
L17.8246 -43.4153
L17.9413 -43.6967
L18.06 -43.9778
L18.1809 -44.2587
L18.304 -44.5393
L18.4292 -44.8196
L18.5565 -45.0998
L18.6861 -45.3798
L18.8178 -45.6596
L18.9518 -45.9393
L19.0881 -46.2189
L19.2266 -46.4983
L19.3675 -46.7777
L19.5106 -47.0569
L19.6561 -47.3361
L19.8039 -47.6153
L19.9542 -47.8944
L20.1068 -48.1734
L20.2618 -48.4524
L20.4193 -48.7314
L20.5793 -49.0104
L20.7417 -49.2893
L20.9066 -49.5682
L21.074 -49.8471
L21.2439 -50.1259
L21.4164 -50.4047
L21.5913 -50.6834
L21.7689 -50.9621
L21.9489 -51.2407
L22.1315 -51.5192
L22.3166 -51.7975
L22.5042 -52.0758
L22.6943 -52.3539
L22.887 -52.6318
L23.0821 -52.9095
L23.2796 -53.187
L23.4796 -53.4642
L23.6819 -53.7411
L23.8866 -54.0177
L24.0935 -54.2939
L24.3026 -54.5696
L24.5139 -54.845
L24.7273 -55.1198
L24.9427 -55.3941
L25.1599 -55.6678
L25.3789 -55.9408
L25.5996 -56.2132
L25.8219 -56.4848
L26.0455 -56.7557
L26.2704 -57.0257
L26.4964 -57.2948
L26.7232 -57.563
L26.9508 -57.8302
L27.1789 -58.0963
L27.4072 -58.3614
L27.6356 -58.6253
L27.8638 -58.8881
L28.0915 -59.1496
L28.3185 -59.4098
L28.5444 -59.6688
L28.7689 -59.9264
L28.9918 -60.1826
L29.2126 -60.4374
L29.4309 -60.6908
L29.6466 -60.9428
L29.8591 -61.1933
L30.068 -61.4423
L30.2731 -61.6898
L30.4738 -61.9357
L30.6698 -62.1802
L30.8607 -62.4231
L31.046 -62.6645
L31.2254 -62.9043
L31.3984 -63.1426
L31.5646 -63.3793
L31.7238 -63.6145
L31.8755 -63.8481
L31.5079 -64.0801
L31.0174 -64.1438
L30.5284 -64.0611
L30.0411 -63.9698
L29.5556 -63.8701
L29.0721 -63.7618
L28.5907 -63.6451
L28.1115 -63.52
L27.6347 -63.3865
L27.1605 -63.2447
L26.689 -63.0945
L26.2203 -62.9361
L25.7546 -62.7695
L25.292 -62.5948
L24.8327 -62.4119
L24.3768 -62.221
L23.9244 -62.0221
L23.4757 -61.8153
L23.0308 -61.6006
L22.5899 -61.3782
L22.1531 -61.148
L21.7204 -60.9101
L21.2921 -60.6646
L20.8683 -60.4117
L20.4491 -60.1513
L20.0347 -59.8835
L19.6251 -59.6085
L19.2205 -59.3262
L18.821 -59.0369
L18.4267 -58.7405
L18.0378 -58.4373
L17.6544 -58.1271
L17.2765 -57.8103
L16.9044 -57.4868
L16.5381 -57.1568
L16.1777 -56.8203
L15.8233 -56.4774
L15.4751 -56.1284
L15.1331 -55.7732
L14.7975 -55.412
L14.4684 -55.0448
L14.1458 -54.6719
L13.8299 -54.2933
L13.5207 -53.9091
L13.2183 -53.5194
L12.923 -53.1244
L12.6346 -52.7242
L12.3533 -52.3189
L12.0793 -51.9087
L11.8125 -51.4936
L11.5532 -51.0737
L11.3012 -50.6493
L11.0568 -50.2204
L10.82 -49.7872
L10.5908 -49.3498
L10.3694 -48.9083
L10.1558 -48.4629
L9.95008 -48.0137
L9.75228 -47.5608
L9.56248 -47.1044
L9.38073 -46.6446
L9.2071 -46.1816
L9.04162 -45.7155
L8.88435 -45.2464
L8.73535 -44.7745
L8.59465 -44.2999
L8.46229 -43.8228
L8.33833 -43.3433
L8.22279 -42.8616
L8.11571 -42.3778
L8.01713 -41.8921
L7.92707 -41.4045
L7.84556 -40.9153
L7.77263 -40.4246
L7.70829 -39.9326
L7.65258 -39.4394
L7.60549 -38.9451
L7.56706 -38.4499
L7.53729 -37.954
L7.51619 -37.4575
L7.50376 -36.9605
L7.50002 -36.4632
L7.50496 -35.9658
L7.51857 -35.4685
L7.54087 -34.9712
L7.57183 -34.4743
L7.61145 -33.9779
L7.65972 -33.482
L7.71662 -32.987
L7.78213 -32.4928
L7.85625 -31.9997
L7.93893 -31.5079
L8.03016 -31.0174
L8.12992 -30.5284
L8.23816 -30.0411
L8.35486 -29.5556
L8.47998 -29.0721
L8.61348 -28.5907
L8.75532 -28.1115
L8.90546 -27.6347
L9.06386 -27.1605
L9.23046 -26.689
L9.40522 -26.2203
L9.58808 -25.7546
L9.77898 -25.292
L9.97787 -24.8327
L10.1847 -24.3768
L10.3994 -23.9244
L10.6218 -23.4757
L10.852 -23.0308
L11.0899 -22.5899
L11.3354 -22.1531
L11.5883 -21.7204
L11.8487 -21.2921
L12.1165 -20.8683
L12.3915 -20.4491
L12.6738 -20.0347
L12.9631 -19.6251
L13.2595 -19.2205
L13.5627 -18.821
L13.8729 -18.4267
L14.1897 -18.0378
L14.5132 -17.6544
z
" id="C0_2_0c3757359e"/>
    </defs>
    <g clip-path="url(#p1bffca34e9)">
     <use style="fill:#ff0000;stroke:#000000;stroke-width:2.0;" x="0.0" xlink:href="#C0_0_a811fe30f3" y="72.0"/>
    </g>
    <g clip-path="url(#p1bffca34e9)">
     <use style="fill:#ffffff;stroke:#000000;stroke-width:2.0;" x="0.0" xlink:href="#C0_1_81ffead5a9" y="72.0"/>
    </g>
    <g clip-path="url(#p1bffca34e9)">
     <use style="fill:#ffffff;stroke:#000000;stroke-width:2.0;" x="0.0" xlink:href="#C0_2_0c3757359e" y="72.0"/>
    </g>
   </g>
  </g>
 </g>
 <defs>
  <clipPath id="p1bffca34e9">
   <rect height="72.0" width="72.0" x="0.0" y="0.0"/>
  </clipPath>
 </defs>
</svg>
