<?xml version="1.0" encoding="utf-8" standalone="no"?>
<!DOCTYPE svg PUBLIC "-//W3C//DTD SVG 1.1//EN"
  "http://www.w3.org/Graphics/SVG/1.1/DTD/svg11.dtd">
<!-- Created with matplotlib (http://matplotlib.org/) -->
<svg height="72pt" version="1.1" viewBox="0 0 72 72" width="72pt" xmlns="http://www.w3.org/2000/svg" xmlns:xlink="http://www.w3.org/1999/xlink">
 <defs>
  <style type="text/css">
*{stroke-linecap:butt;stroke-linejoin:round;}
  </style>
 </defs>
 <g id="figure_1">
  <g id="patch_1">
   <path d="
M0 72
L72 72
L72 0
L0 0
z
" style="fill:none;"/>
  </g>
  <g id="axes_1">
   <g id="PatchCollection_1">
    <defs>
     <path d="
M36 -7.5
C43.5583 -7.5 50.808 -10.5029 56.1525 -15.8475
C61.4971 -21.192 64.5 -28.4417 64.5 -36
C64.5 -43.5583 61.4971 -50.808 56.1525 -56.1525
C50.808 -61.4971 43.5583 -64.5 36 -64.5
C28.4417 -64.5 21.192 -61.4971 15.8475 -56.1525
C10.5029 -50.808 7.5 -43.5583 7.5 -36
C7.5 -28.4417 10.5029 -21.192 15.8475 -15.8475
C21.192 -10.5029 28.4417 -7.5 36 -7.5
z
" id="C0_0_a811fe30f3"/>
     <path d="
M17.4786 -14.3632
L17.5157 -14.6489
L17.5496 -14.9399
L17.5809 -15.2355
L17.6101 -15.5352
L17.6378 -15.8385
L17.6645 -16.1449
L17.6904 -16.4539
L17.716 -16.765
L17.7415 -17.0779
L17.7673 -17.3922
L17.7936 -17.7076
L17.8205 -18.0237
L17.8484 -18.3403
L17.8772 -18.6571
L17.9072 -18.9739
L17.9384 -19.2904
L17.971 -19.6065
L18.0049 -19.922
L18.0403 -20.2366
L18.0772 -20.5503
L18.1156 -20.863
L18.1556 -21.1744
L18.1972 -21.4846
L18.2403 -21.7934
L18.285 -22.1007
L18.3312 -22.4065
L18.379 -22.7107
L18.4283 -23.0132
L18.4792 -23.3141
L18.5316 -23.6132
L18.5854 -23.9106
L18.6407 -24.2062
L18.6974 -24.5001
L18.7556 -24.7921
L18.8151 -25.0824
L18.876 -25.3709
L18.9382 -25.6576
L19.0018 -25.9425
L19.0666 -26.2256
L19.1327 -26.5071
L19.2 -26.7868
L19.2686 -27.0647
L19.3383 -27.3411
L19.4093 -27.6158
L19.4814 -27.8888
L19.5546 -28.1603
L19.629 -28.4303
L19.7045 -28.6987
L19.7811 -28.9657
L19.8588 -29.2312
L19.9376 -29.4954
L20.0174 -29.7582
L20.0983 -30.0197
L20.1802 -30.2799
L20.2632 -30.539
L20.3473 -30.7968
L20.4323 -31.0535
L20.5184 -31.3092
L20.6056 -31.5638
L20.6938 -31.8174
L20.783 -32.0701
L20.8733 -32.3219
L20.9646 -32.5728
L21.057 -32.8229
L21.1504 -33.0723
L21.2449 -33.321
L21.3404 -33.569
L21.4371 -33.8164
L21.5348 -34.0632
L21.6337 -34.3095
L21.7336 -34.5554
L21.8347 -34.8008
L22.0404 -35.0459
L22.1449 -35.2906
L22.2507 -35.5351
L22.3577 -35.7793
L22.4659 -36.0233
L22.5754 -36.2672
L22.6862 -36.511
L22.7982 -36.7547
L22.9116 -36.9985
L23.0263 -37.2423
L23.1424 -37.4862
L23.2599 -37.7302
L23.3789 -37.9743
L23.4992 -38.2188
L23.6211 -38.4634
L23.7445 -38.7084
L23.8694 -38.9537
L23.9958 -39.1994
L24.1239 -39.4455
L24.2536 -39.6922
L24.385 -39.9393
L24.5181 -40.1869
L24.6528 -40.4352
L24.7894 -40.6841
L24.9278 -40.9336
L25.0679 -41.1839
L25.21 -41.4348
L25.3539 -41.6866
L25.4998 -41.9391
L25.6476 -42.1925
L25.7974 -42.4467
L25.9493 -42.7018
L26.1032 -42.9579
L26.2592 -43.2148
L26.4174 -43.4728
L26.5776 -43.7317
L26.7401 -43.9917
L26.9048 -44.2526
L27.0717 -44.5146
L27.2408 -44.7777
L27.4122 -45.0418
L27.5859 -45.307
L27.7619 -45.5733
L27.9402 -45.8407
L28.1207 -46.1092
L28.3036 -46.3787
L28.4888 -46.6494
L28.6763 -46.9211
L28.8661 -47.1938
L29.0581 -47.4676
L29.2523 -47.7425
L29.4486 -48.0183
L29.6471 -48.2951
L29.8477 -48.5729
L30.0502 -48.8515
L30.2545 -49.1311
L30.4607 -49.4114
L30.6685 -49.6926
L30.8779 -49.9745
L31.0886 -50.2571
L31.3005 -50.5403
L31.5134 -50.8241
L31.727 -51.1083
L31.9412 -51.3931
L32.1557 -51.6782
L32.37 -51.9636
L32.584 -52.2492
L32.7973 -52.535
L33.0093 -52.821
L33.2198 -53.1069
L33.4281 -53.3928
L33.6338 -53.6785
L33.8363 -53.9641
L34.035 -54.2495
L34.2292 -54.5345
L34.4182 -54.8192
L34.6012 -55.1035
L34.7775 -55.3874
L34.9461 -55.6707
L35.1063 -55.9536
L35.2572 -56.2358
L35.3977 -56.5175
L35.5271 -56.7985
L35.6443 -57.0789
L35.7485 -57.3585
L35.8387 -57.6374
L35.9142 -57.9156
L35.9741 -58.1928
L36.0179 -58.4691
L36.0449 -58.7443
L36.0546 -59.0183
L36.0466 -59.291
L36.0207 -59.5621
L35.9768 -59.8314
L35.9149 -60.0988
L35.8351 -60.3638
L35.7376 -60.6264
L35.6227 -60.8861
L35.4908 -61.1427
L35.3424 -61.3957
L35.1781 -61.6449
L34.9985 -61.89
L34.8041 -62.1305
L34.5956 -62.3663
L34.3736 -62.5968
L34.1389 -62.8219
L33.8921 -63.0412
L33.6337 -63.2545
L33.3646 -63.4614
L33.0852 -63.6618
L32.7962 -63.8554
L32.4981 -64.042
L31.9974 -64.2214
L31.5056 -64.2175
L31.0151 -64.1434
L30.5261 -64.0607
L30.0388 -63.9694
L29.5533 -63.8696
L29.0698 -63.7613
L28.5884 -63.6446
L28.1093 -63.5194
L27.6325 -63.3859
L27.1583 -63.244
L26.6868 -63.0938
L26.2181 -62.9354
L25.7524 -62.7687
L25.2899 -62.5939
L24.8306 -62.411
L24.3747 -62.2201
L23.9223 -62.0212
L23.4736 -61.8143
L23.0288 -61.5996
L22.5878 -61.3771
L22.151 -61.1468
L21.7184 -60.9089
L21.2901 -60.6635
L20.8664 -60.4104
L20.4472 -60.15
L20.0328 -59.8822
L19.6232 -59.6071
L19.2186 -59.3249
L18.8191 -59.0355
L18.4249 -58.7391
L18.036 -58.4358
L17.6526 -58.1257
L17.2748 -57.8088
L16.9027 -57.4853
L16.5364 -57.1552
L16.176 -56.8187
L15.8217 -56.4758
L15.4735 -56.1267
L15.1315 -55.7715
L14.796 -55.4102
L14.4668 -55.0431
L14.1443 -54.6701
L13.8284 -54.2915
L13.5192 -53.9072
L13.2169 -53.5176
L12.9216 -53.1226
L12.6332 -52.7223
L12.352 -52.317
L12.078 -51.9067
L11.8113 -51.4916
L11.552 -51.0717
L11.3 -50.6473
L11.0557 -50.2184
L10.8189 -49.7851
L10.5898 -49.3477
L10.3684 -48.9062
L10.1548 -48.4608
L9.94913 -48.0115
L9.75137 -47.5586
L9.56161 -47.1022
L9.3799 -46.6424
L9.2063 -46.1794
L9.04086 -45.7133
L8.88363 -45.2442
L8.73466 -44.7723
L8.594 -44.2977
L8.46169 -43.8206
L8.33776 -43.3411
L8.22226 -42.8593
L8.11523 -42.3755
L8.01668 -41.8898
L7.92666 -41.4022
L7.84519 -40.913
L7.7723 -40.4223
L7.70801 -39.9303
L7.65233 -39.437
L7.60529 -38.9428
L7.5669 -38.4476
L7.53717 -37.9516
L7.51611 -37.4551
L7.50373 -36.9582
L7.50002 -36.4609
L7.505 -35.9635
L7.51866 -35.4661
L7.54099 -34.9689
L7.57199 -34.472
L7.61166 -33.9755
L7.65997 -33.4797
L7.71691 -32.9846
L7.78246 -32.4905
L7.85662 -31.9974
L7.93934 -31.5056
L8.03061 -31.0151
L8.13041 -30.5261
L8.23869 -30.0388
L8.35543 -29.5533
L8.48058 -29.0698
L8.61413 -28.5884
L8.75601 -28.1093
L8.90619 -27.6325
L9.06463 -27.1583
L9.23127 -26.6868
L9.40606 -26.2181
L9.58896 -25.7524
L9.7799 -25.2899
L9.97882 -24.8306
L10.1857 -24.3747
L10.4004 -23.9223
L10.6229 -23.4736
L10.8532 -23.0288
L11.0911 -22.5878
L11.3365 -22.151
L11.5896 -21.7184
L11.85 -21.2901
L12.1178 -20.8664
L12.3929 -20.4472
L12.6751 -20.0328
L12.9645 -19.6232
L13.2609 -19.2186
L13.5642 -18.8191
L13.8743 -18.4249
L14.1912 -18.036
L14.5147 -17.6526
L14.8448 -17.2748
L15.1813 -16.9027
L15.5242 -16.5364
L15.8733 -16.176
L16.2285 -15.8217
L16.5898 -15.4735
L16.9569 -15.1315
z
" id="C0_1_187060b63c"/>
     <path d="
M39.769 -7.90011
L40.0211 -8.14721
L40.2728 -8.39655
L40.5237 -8.64801
L40.7733 -8.90148
L41.0214 -9.15684
L41.2674 -9.41395
L41.5112 -9.67271
L41.7525 -9.93297
L41.991 -10.1946
L42.2266 -10.4575
L42.4591 -10.7216
L42.6883 -10.9866
L42.9142 -11.2526
L43.1367 -11.5194
L43.3557 -11.7868
L43.5711 -12.0549
L43.7828 -12.3235
L43.991 -12.5924
L44.1954 -12.8617
L44.3962 -13.1313
L44.5934 -13.401
L44.7869 -13.6708
L44.9767 -13.9407
L45.163 -14.2105
L45.3457 -14.4803
L45.5248 -14.75
L45.7005 -15.0195
L45.8727 -15.2888
L46.0415 -15.5579
L46.207 -15.8267
L46.3691 -16.0952
L46.528 -16.3635
L46.6838 -16.6314
L46.8363 -16.899
L46.9858 -17.1663
L47.1323 -17.4333
L47.2758 -17.6998
L47.4164 -17.9661
L47.5542 -18.232
L47.6891 -18.4975
L47.8213 -18.7628
L47.9509 -19.0277
L48.0777 -19.2924
L48.202 -19.5567
L48.3238 -19.8208
L48.4431 -20.0847
L48.5599 -20.3483
L48.6744 -20.6117
L48.7866 -20.875
L48.8964 -21.1381
L49.004 -21.4011
L49.1094 -21.664
L49.2127 -21.9269
L49.3138 -22.1898
L49.4128 -22.4527
L49.5098 -22.7156
L49.6048 -22.9786
L49.6978 -23.2418
L49.7889 -23.5051
L49.878 -23.7686
L49.9653 -24.0324
L50.0507 -24.2965
L50.1343 -24.5609
L50.2161 -24.8257
L50.2962 -25.0909
L50.3744 -25.3565
L50.451 -25.6227
L50.5258 -25.8895
L50.599 -26.1568
L50.6704 -26.4248
L50.7402 -26.6935
L50.8084 -26.9629
L50.8749 -27.2331
L50.9398 -27.5042
L51.0031 -27.7762
L51.0648 -28.0491
L51.1249 -28.323
L51.1833 -28.5979
L51.2402 -28.874
L51.2955 -29.1512
L51.3493 -29.4296
L51.4014 -29.7092
L51.452 -29.9901
L51.5009 -30.2724
L51.5483 -30.5561
L51.594 -30.8413
L51.6382 -31.128
L51.6807 -31.4162
L51.7216 -31.706
L51.7608 -31.9975
L51.7984 -32.2907
L51.8343 -32.5857
L51.8686 -32.8825
L51.9011 -33.1811
L51.9319 -33.4817
L51.961 -33.7841
L51.9883 -34.0886
L52.0138 -34.3951
L52.0375 -34.7037
L52.0594 -35.0145
L52.0794 -35.3273
L52.0975 -35.6424
L52.1137 -35.9597
L52.128 -36.2793
L52.1403 -36.6011
L52.1506 -36.9253
L52.1589 -37.2518
L52.1651 -37.5807
L52.1693 -37.9119
L52.1713 -38.2455
L52.1713 -38.5815
L52.169 -38.9199
L52.1646 -39.2607
L52.158 -39.6039
L52.1492 -39.9494
L52.1381 -40.2972
L52.1248 -40.6473
L52.1092 -40.9997
L52.0914 -41.3544
L52.0713 -41.7111
L52.049 -42.07
L52.0245 -42.4309
L51.9977 -42.7937
L51.9689 -43.1584
L51.9378 -43.5248
L51.9048 -43.8928
L51.8698 -44.2622
L51.8329 -44.633
L51.7942 -45.005
L51.7538 -45.378
L51.712 -45.7517
L51.6688 -46.126
L51.6245 -46.5007
L51.5793 -46.8755
L51.5335 -47.2501
L51.4873 -47.6243
L51.441 -47.9978
L51.3951 -48.3702
L51.3499 -48.7412
L51.3059 -49.1105
L51.2635 -49.4776
L51.2233 -49.8422
L51.1858 -50.2039
L51.1517 -50.5621
L51.1217 -50.9165
L51.0964 -51.2667
L51.0765 -51.612
L51.0629 -51.952
L51.0562 -52.2863
L51.0574 -52.6143
L51.0672 -52.9355
L51.0864 -53.2495
L51.1156 -53.5557
L51.1558 -53.8537
L51.2074 -54.1431
L51.2711 -54.4234
L51.3474 -54.6943
L51.4366 -54.9553
L51.5391 -55.2063
L51.655 -55.4469
L51.7843 -55.677
L51.927 -55.8962
L52.083 -56.1045
L52.2519 -56.3018
L52.4334 -56.488
L52.627 -56.663
L52.8323 -56.8269
L53.0487 -56.9797
L53.2756 -57.1213
L53.5124 -57.2519
L53.7584 -57.3714
L54.0131 -57.4801
L54.7963 -57.5779
L55.1674 -57.4231
L55.5325 -57.0918
L55.8918 -56.754
L56.2449 -56.41
L56.592 -56.0597
L56.9327 -55.7033
L57.267 -55.341
L57.5949 -54.9727
L57.9162 -54.5986
L58.2309 -54.2189
L58.5387 -53.8337
L58.8397 -53.443
L59.1337 -53.0469
L59.4207 -52.6457
L59.7006 -52.2395
L59.9732 -51.8282
L60.2385 -51.4122
L60.4965 -50.9915
L60.747 -50.5662
L60.9899 -50.1364
L61.2252 -49.7024
L61.4529 -49.2642
L61.6728 -48.8219
L61.8849 -48.3757
L62.089 -47.9258
L62.2853 -47.4722
L62.4735 -47.0152
L62.6537 -46.5547
L62.8258 -46.0911
L62.9896 -45.6244
L63.1453 -45.1548
L63.2927 -44.6823
L63.4318 -44.2073
L63.5625 -43.7297
L63.6848 -43.2498
L63.7987 -42.7676
L63.9041 -42.2834
L64.0011 -41.7973
L64.0895 -41.3094
L64.1693 -40.8199
L64.2406 -40.329
L64.3032 -39.8367
L64.3573 -39.3432
L64.4027 -38.8488
L64.4394 -38.3534
L64.4675 -37.8574
L64.4869 -37.3608
L64.4976 -36.8637
L64.4997 -36.3664
L64.4931 -35.869
L64.4778 -35.3717
L64.4538 -34.8745
L64.4211 -34.3776
L64.3798 -33.8813
L64.3299 -33.3856
L64.2713 -32.8907
L64.2041 -32.3968
L64.1283 -31.9039
L64.044 -31.4123
L63.9511 -30.9221
L63.8497 -30.4334
L63.7398 -29.9465
L63.6215 -29.4613
L63.4947 -28.9782
L63.3596 -28.4972
L63.2161 -28.0185
L63.0644 -27.5422
L62.9044 -27.0685
L62.7362 -26.5976
L62.5598 -26.1295
L62.3754 -25.6643
L62.1829 -25.2024
L61.9825 -24.7437
L61.7741 -24.2885
L61.5579 -23.8368
L61.334 -23.3888
L61.1023 -22.9447
L60.8629 -22.5046
L60.616 -22.0685
L60.3616 -21.6367
L60.0997 -21.2093
L59.8305 -20.7864
L59.5541 -20.3681
L59.2705 -19.9546
L58.9798 -19.546
L58.682 -19.1423
L58.3774 -18.7439
L58.066 -18.3506
L57.7478 -17.9628
L57.4231 -17.5804
L57.0918 -17.2037
L56.754 -16.8326
L56.41 -16.4675
L56.0597 -16.1082
L55.7033 -15.7551
L55.341 -15.408
L54.9727 -15.0673
L54.5986 -14.733
L54.2189 -14.4051
L53.8337 -14.0838
L53.443 -13.7691
L53.0469 -13.4613
L52.6457 -13.1603
L52.2395 -12.8663
L51.8282 -12.5793
L51.4122 -12.2994
L50.9915 -12.0268
L50.5662 -11.7615
L50.1364 -11.5035
L49.7024 -11.253
L49.2642 -11.0101
L48.8219 -10.7748
L48.3757 -10.5471
L47.9258 -10.3272
L47.4722 -10.1151
L47.0152 -9.91096
L46.5547 -9.71471
L46.0911 -9.52648
L45.6244 -9.3463
L45.1548 -9.17425
L44.6823 -9.01036
L44.2073 -8.8547
L43.7297 -8.70731
L43.2498 -8.56823
L42.7676 -8.43751
L42.2834 -8.31518
L41.7973 -8.20128
L41.3094 -8.09586
L40.8199 -7.99893
L40.329 -7.91053
z
" id="C0_2_d0fb4541c8"/>
    </defs>
    <g clip-path="url(#p1bffca34e9)">
     <use style="fill:#ff0000;stroke:#000000;stroke-width:2.0;" x="0.0" xlink:href="#C0_0_a811fe30f3" y="72.0"/>
    </g>
    <g clip-path="url(#p1bffca34e9)">
     <use style="fill:#ffffff;stroke:#000000;stroke-width:2.0;" x="0.0" xlink:href="#C0_1_187060b63c" y="72.0"/>
    </g>
    <g clip-path="url(#p1bffca34e9)">
     <use style="fill:#ffffff;stroke:#000000;stroke-width:2.0;" x="0.0" xlink:href="#C0_2_d0fb4541c8" y="72.0"/>
    </g>
   </g>
  </g>
 </g>
 <defs>
  <clipPath id="p1bffca34e9">
   <rect height="72.0" width="72.0" x="0.0" y="0.0"/>
  </clipPath>
 </defs>
</svg>
