<?xml version="1.0" encoding="utf-8" standalone="no"?>
<!DOCTYPE svg PUBLIC "-//W3C//DTD SVG 1.1//EN"
  "http://www.w3.org/Graphics/SVG/1.1/DTD/svg11.dtd">
<!-- Created with matplotlib (http://matplotlib.org/) -->
<svg height="72pt" version="1.1" viewBox="0 0 72 72" width="72pt" xmlns="http://www.w3.org/2000/svg" xmlns:xlink="http://www.w3.org/1999/xlink">
 <defs>
  <style type="text/css">
*{stroke-linecap:butt;stroke-linejoin:round;}
  </style>
 </defs>
 <g id="figure_1">
  <g id="patch_1">
   <path d="
M0 72
L72 72
L72 0
L0 0
z
" style="fill:none;"/>
  </g>
  <g id="axes_1">
   <g id="PatchCollection_1">
    <defs>
     <path d="
M36 -7.5
C43.5583 -7.5 50.808 -10.5029 56.1525 -15.8475
C61.4971 -21.192 64.5 -28.4417 64.5 -36
C64.5 -43.5583 61.4971 -50.808 56.1525 -56.1525
C50.808 -61.4971 43.5583 -64.5 36 -64.5
C28.4417 -64.5 21.192 -61.4971 15.8475 -56.1525
C10.5029 -50.808 7.5 -43.5583 7.5 -36
C7.5 -28.4417 10.5029 -21.192 15.8475 -15.8475
C21.192 -10.5029 28.4417 -7.5 36 -7.5
z
" id="C0_0_a811fe30f3"/>
     <path d="
M64.4838 -35.9342
L64.2793 -35.9577
L64.0743 -35.9827
L63.8687 -36.0093
L63.6626 -36.0374
L63.456 -36.0669
L63.2489 -36.0976
L63.0413 -36.1296
L62.8333 -36.1627
L62.6248 -36.197
L62.4158 -36.2323
L62.2063 -36.2686
L61.9963 -36.3058
L61.7859 -36.344
L61.575 -36.383
L61.3636 -36.4229
L61.1518 -36.4635
L60.9394 -36.5049
L60.7265 -36.547
L60.5131 -36.5898
L60.2992 -36.6333
L60.0847 -36.6774
L59.8697 -36.7222
L59.654 -36.7676
L59.4379 -36.8135
L59.2211 -36.86
L59.0036 -36.9071
L58.7856 -36.9548
L58.5669 -37.0029
L58.3475 -37.0516
L58.1274 -37.1008
L57.9066 -37.1505
L57.685 -37.2007
L57.4627 -37.2514
L57.2396 -37.3026
L56.7909 -37.3543
L56.5653 -37.4064
L56.3388 -37.4591
L56.1114 -37.5122
L55.8831 -37.5658
L55.6538 -37.6199
L55.4235 -37.6745
L55.1921 -37.7295
L54.9598 -37.7851
L54.7263 -37.8412
L54.4918 -37.8977
L54.2562 -37.9548
L54.0193 -38.0124
L53.7814 -38.0705
L53.5422 -38.1292
L53.3017 -38.1884
L53.06 -38.2481
L52.8171 -38.3085
L52.5728 -38.3694
L52.3271 -38.4308
L52.0801 -38.4929
L51.8318 -38.5556
L51.582 -38.6189
L51.3307 -38.6829
L51.078 -38.7475
L50.8239 -38.8128
L50.5682 -38.8787
L50.311 -38.9454
L50.0523 -39.0129
L49.792 -39.081
L49.5302 -39.15
L49.2668 -39.2197
L49.0017 -39.2902
L48.7351 -39.3616
L48.4669 -39.4338
L48.1971 -39.507
L47.9257 -39.581
L47.6526 -39.656
L47.3779 -39.732
L47.1017 -39.809
L46.8238 -39.887
L46.5444 -39.9661
L46.2634 -40.0462
L45.9808 -40.1276
L45.6968 -40.2101
L45.4112 -40.2938
L45.1242 -40.3788
L44.8358 -40.4651
L44.546 -40.5528
L44.255 -40.6419
L43.9626 -40.7324
L43.669 -40.8244
L43.3743 -40.918
L43.0786 -41.0132
L42.7819 -41.1101
L42.4842 -41.2088
L42.1858 -41.3092
L41.8867 -41.4115
L41.587 -41.5158
L41.2869 -41.6221
L40.9864 -41.7305
L40.6857 -41.841
L40.385 -41.9539
L40.0843 -42.0691
L39.7839 -42.1867
L39.4839 -42.3068
L39.1845 -42.4296
L38.8859 -42.5551
L38.5882 -42.6834
L38.2917 -42.8147
L37.9966 -42.9489
L37.7031 -43.0863
L37.4113 -43.227
L37.1216 -43.3709
L36.8342 -43.5183
L36.5492 -43.6693
L36.2669 -43.8239
L35.9876 -43.9823
L35.7115 -44.1445
L35.4388 -44.3106
L35.1698 -44.4808
L34.9046 -44.655
L34.6436 -44.8335
L34.387 -45.0161
L34.1349 -45.203
L33.8875 -45.3943
L33.6452 -45.5899
L33.408 -45.7899
L33.1761 -45.9942
L32.9497 -46.2029
L32.729 -46.4159
L32.5141 -46.6332
L32.3051 -46.8547
L32.1021 -47.0804
L31.9052 -47.3101
L31.7144 -47.5438
L31.53 -47.7814
L31.3518 -48.0226
L31.18 -48.2674
L31.0145 -48.5157
L30.8554 -48.7671
L30.7026 -49.0217
L30.5561 -49.2791
L30.416 -49.5392
L30.2821 -49.8019
L30.1545 -50.0668
L30.033 -50.3339
L29.9175 -50.6028
L29.8082 -50.8734
L29.7047 -51.1456
L29.6072 -51.419
L29.5154 -51.6935
L29.4294 -51.9689
L29.3489 -52.245
L29.274 -52.5216
L29.2045 -52.7986
L29.1403 -53.0757
L29.0814 -53.3528
L29.0276 -53.6298
L28.9788 -53.9065
L28.935 -54.1827
L28.8961 -54.4583
L28.862 -54.7331
L28.8325 -55.0071
L28.8076 -55.2802
L28.7873 -55.5521
L28.7713 -55.8229
L28.7597 -56.0923
L28.7524 -56.3605
L28.7492 -56.6271
L28.7502 -56.8923
L28.7552 -57.1558
L28.7642 -57.4177
L28.7771 -57.6778
L28.7938 -57.9362
L28.8144 -58.1928
L28.8386 -58.4475
L28.8666 -58.7003
L28.8982 -58.9511
L28.9333 -59.2
L28.972 -59.447
L29.0141 -59.6919
L29.0598 -59.9347
L29.1088 -60.1755
L29.1612 -60.4143
L29.217 -60.651
L29.2761 -60.8856
L29.3385 -61.1181
L29.4042 -61.3485
L29.4732 -61.5769
L29.5454 -61.8031
L29.6209 -62.0273
L29.6996 -62.2493
L29.7815 -62.4693
L29.8667 -62.6872
L29.9551 -62.903
L30.0467 -63.1167
L30.1416 -63.3283
L30.2397 -63.5379
L30.6945 -63.7454
L31.184 -64.0018
L31.675 -64.0901
L32.1673 -64.1699
L32.6607 -64.2411
L33.1552 -64.3037
L33.6505 -64.3577
L34.1466 -64.403
L34.6432 -64.4397
L35.1403 -64.4677
L35.6376 -64.487
L36.135 -64.4977
L36.6323 -64.4997
L37.1295 -64.493
L37.6263 -64.4776
L38.1227 -64.4536
L38.6184 -64.4208
L39.1133 -64.3795
L39.6072 -64.3294
L40.1 -64.2708
L40.5916 -64.2035
L41.0818 -64.1277
L41.5705 -64.0433
L42.0574 -63.9503
L42.5425 -63.8488
L43.0256 -63.7389
L43.5066 -63.6205
L43.9853 -63.4936
L44.4616 -63.3585
L44.9352 -63.2149
L45.4062 -63.0631
L45.8743 -62.903
L46.3394 -62.7348
L46.8013 -62.5584
L47.2599 -62.3739
L47.7152 -62.1814
L48.1668 -61.9809
L48.6147 -61.7724
L49.0588 -61.5562
L49.499 -61.3321
L49.935 -61.1004
L50.3667 -60.861
L50.7941 -60.614
L51.217 -60.3595
L51.6352 -60.0976
L52.0487 -59.8283
L52.4573 -59.5518
L52.8609 -59.2682
L53.2593 -58.9774
L53.6525 -58.6796
L54.0403 -58.375
L54.4226 -58.0635
L54.7993 -57.7453
L55.1703 -57.4204
L55.5354 -57.0891
L55.8946 -56.7513
L56.2477 -56.4072
L56.5947 -56.0569
L56.9354 -55.7005
L57.2697 -55.338
L57.5975 -54.9697
L57.9188 -54.5956
L58.2333 -54.2159
L58.5411 -53.8305
L58.8421 -53.4398
L59.1361 -53.0438
L59.423 -52.6425
L59.7028 -52.2362
L59.9753 -51.8249
L60.2406 -51.4089
L60.4985 -50.9881
L60.7489 -50.5627
L60.9918 -50.133
L61.2271 -49.6989
L61.4547 -49.2606
L61.6745 -48.8183
L61.8865 -48.3721
L62.0906 -47.9222
L62.2868 -47.4686
L62.475 -47.0115
L62.6551 -46.551
L62.8271 -46.0874
L62.9909 -45.6206
L63.1465 -45.151
L63.2938 -44.6785
L63.4329 -44.2034
L63.5635 -43.7258
L63.6858 -43.2459
L63.7996 -42.7637
L63.905 -42.2795
L64.0018 -41.7934
L64.0901 -41.3055
L64.1699 -40.816
L64.2411 -40.325
L64.3037 -39.8327
L64.3577 -39.3393
L64.403 -38.8448
L64.4397 -38.3495
L64.4677 -37.8534
L64.487 -37.3568
z
" id="C0_1_2f746e3ebd"/>
     <path d="
M41.6517 -8.08437
L41.4777 -8.23345
L41.3042 -8.38368
L41.1312 -8.53505
L40.9587 -8.68756
L40.7868 -8.84122
L40.6153 -8.99603
L40.4444 -9.15199
L40.2739 -9.30911
L40.1038 -9.46739
L39.9342 -9.62684
L39.765 -9.78747
L39.5962 -9.94928
L39.4278 -10.1123
L39.2598 -10.2765
L39.0921 -10.4419
L38.9247 -10.6086
L38.7577 -10.7765
L38.5909 -10.9456
L38.4244 -11.116
L38.2582 -11.2877
L38.0921 -11.4607
L37.9263 -11.635
L37.7606 -11.8106
L37.5952 -11.9875
L37.4298 -12.1659
L37.2645 -12.3456
L37.0994 -12.5267
L36.9343 -12.7092
L36.7692 -12.8932
L36.6042 -13.0786
L36.4392 -13.2655
L36.2741 -13.4539
L36.109 -13.6438
L35.9438 -13.8353
L35.7786 -14.0284
L35.6132 -14.223
L35.4476 -14.4192
L35.2819 -14.6171
L35.116 -14.8166
L34.9499 -15.0177
L34.7836 -15.2206
L34.617 -15.4252
L34.4502 -15.6315
L34.283 -15.8396
L34.1155 -16.0494
L33.9476 -16.2611
L33.7794 -16.4745
L33.6108 -16.6898
L33.4418 -16.9069
L33.2723 -17.1259
L33.1024 -17.3468
L32.932 -17.5695
L32.7611 -17.7941
L32.5897 -18.0206
L32.4177 -18.2491
L32.2451 -18.4794
L32.072 -18.7117
L31.8982 -18.9458
L31.7238 -19.1819
L31.5487 -19.4199
L31.373 -19.6598
L31.1965 -19.9016
L31.0193 -20.1452
L30.8414 -20.3907
L30.6627 -20.6381
L30.4831 -20.8872
L30.3028 -21.1381
L30.1216 -21.3907
L29.9395 -21.645
L29.7566 -21.901
L29.5727 -22.1585
L29.3879 -22.4176
L29.202 -22.6781
L29.0152 -22.9401
L28.8273 -23.2033
L28.6384 -23.4678
L28.4483 -23.7334
L28.2572 -24
L28.0648 -24.2675
L27.8712 -24.5359
L27.6764 -24.8049
L27.4804 -25.0745
L27.283 -25.3445
L27.0842 -25.6148
L26.884 -25.8851
L26.6824 -26.1554
L26.4792 -26.4254
L26.2745 -26.695
L26.0682 -26.964
L25.8603 -27.2322
L25.6507 -27.4993
L25.4393 -27.7652
L25.2261 -28.0296
L25.0111 -28.2924
L24.7941 -28.5532
L24.5752 -28.812
L24.3543 -29.0683
L24.1313 -29.322
L23.9063 -29.5729
L23.6791 -29.8207
L23.4497 -30.0652
L23.2181 -30.3062
L22.9843 -30.5434
L22.7482 -30.7766
L22.5099 -31.0057
L22.2694 -31.2304
L22.0266 -31.4505
L21.7815 -31.6659
L21.5343 -31.8764
L21.2848 -32.0818
L21.0333 -32.2821
L20.7797 -32.4771
L20.524 -32.6667
L20.2665 -32.8508
L20.0071 -33.0294
L19.7461 -33.2024
L19.4834 -33.3698
L19.2192 -33.5316
L18.9536 -33.6877
L18.6868 -33.8382
L18.4189 -33.9831
L18.15 -34.1224
L17.8803 -34.2562
L17.61 -34.3846
L17.3392 -34.5075
L17.0681 -34.6252
L16.7967 -34.7376
L16.5254 -34.8448
L16.2541 -34.9471
L15.9832 -35.0443
L15.7127 -35.1367
L15.4427 -35.2244
L15.1735 -35.3074
L14.9051 -35.3859
L14.6377 -35.4599
L14.3714 -35.5297
L14.1064 -35.5952
L13.8426 -35.6566
L13.5804 -35.7139
L13.3197 -35.7674
L13.0606 -35.8171
L12.8033 -35.863
L12.5477 -35.9053
L12.2941 -35.9441
L12.0425 -35.9794
L11.7928 -36.0113
L11.5453 -36.04
L11.2999 -36.0654
L11.0567 -36.0877
L10.8157 -36.107
L10.577 -36.1232
L10.3406 -36.1365
L10.1065 -36.147
L9.87472 -36.1546
L9.64535 -36.1595
L9.41837 -36.1616
L9.19378 -36.1611
L8.97161 -36.158
L8.75184 -36.1523
L8.5345 -36.144
L8.31957 -36.1333
L8.10706 -36.1201
L7.89696 -36.1044
L7.50296 -36.0863
L7.51446 -35.5895
L7.53464 -35.0922
L7.5635 -34.5952
L7.60101 -34.0986
L7.64717 -33.6026
L7.70198 -33.1074
L7.7654 -32.613
L7.83742 -32.1196
L7.91802 -31.6275
L8.00717 -31.1366
L8.10486 -30.6473
L8.21104 -30.1595
L8.32568 -29.6736
L8.44875 -29.1896
L8.58022 -28.7076
L8.72004 -28.2279
L8.86816 -27.7505
L9.02456 -27.2757
L9.18916 -26.8035
L9.36194 -26.3341
L9.54283 -25.8677
L9.73178 -25.4043
L9.92873 -24.9442
L10.1336 -24.4874
L10.3464 -24.0342
L10.567 -23.5846
L10.7953 -23.1388
L11.0313 -22.6968
L11.2749 -22.259
L11.5261 -21.8253
L11.7847 -21.396
L12.0507 -20.9711
L12.3239 -20.5507
L12.6044 -20.1351
L12.892 -19.7243
L13.1867 -19.3185
L13.4883 -18.9177
L13.7968 -18.5222
L14.112 -18.132
L14.4339 -17.7472
L14.7623 -17.368
L15.0973 -16.9944
L15.4385 -16.6267
L15.7861 -16.2648
L16.1398 -15.909
L16.4996 -15.5593
L16.8653 -15.2158
L17.2368 -14.8786
L17.6141 -14.5479
L17.9969 -14.2237
L18.3853 -13.9061
L18.779 -13.5953
L19.1779 -13.2913
L19.582 -12.9942
L19.991 -12.7041
L20.405 -12.4211
L20.8237 -12.1453
L21.247 -11.8768
L21.6748 -11.6156
L22.107 -11.3618
L22.5434 -11.1156
L22.9839 -10.8769
L23.4284 -10.6459
L23.8767 -10.4226
L24.3287 -10.2071
L24.7842 -9.99942
L25.2432 -9.79969
L25.7054 -9.60793
L26.1708 -9.42422
L26.6392 -9.2486
L27.1104 -9.08114
L27.5843 -8.92187
L28.0608 -8.77085
L28.5398 -8.62812
L29.0209 -8.49373
L29.5043 -8.36772
L29.9895 -8.25013
L30.4767 -8.14099
L30.9655 -8.04034
L31.4558 -7.9482
L31.9475 -7.86461
L32.4405 -7.78958
L32.9345 -7.72316
L33.4295 -7.66534
L33.9253 -7.61616
L34.4217 -7.57562
L34.9185 -7.54374
L35.4157 -7.52053
L35.9131 -7.50599
L36.4105 -7.50013
L36.9078 -7.50296
L37.4048 -7.51446
L37.9014 -7.53464
L38.3974 -7.5635
L38.8926 -7.60101
L39.387 -7.64717
L39.8804 -7.70198
L40.3725 -7.7654
L40.8634 -7.83742
z
" id="C0_2_4de9e54177"/>
    </defs>
    <g clip-path="url(#p1bffca34e9)">
     <use style="fill:#ffffff;stroke:#000000;stroke-width:2.0;" x="0.0" xlink:href="#C0_0_a811fe30f3" y="72.0"/>
    </g>
    <g clip-path="url(#p1bffca34e9)">
     <use style="fill:#ff0000;stroke:#000000;stroke-width:2.0;" x="0.0" xlink:href="#C0_1_2f746e3ebd" y="72.0"/>
    </g>
    <g clip-path="url(#p1bffca34e9)">
     <use style="fill:#ff0000;stroke:#000000;stroke-width:2.0;" x="0.0" xlink:href="#C0_2_4de9e54177" y="72.0"/>
    </g>
   </g>
  </g>
 </g>
 <defs>
  <clipPath id="p1bffca34e9">
   <rect height="72.0" width="72.0" x="0.0" y="0.0"/>
  </clipPath>
 </defs>
</svg>
