<?xml version="1.0" encoding="utf-8" standalone="no"?>
<!DOCTYPE svg PUBLIC "-//W3C//DTD SVG 1.1//EN"
  "http://www.w3.org/Graphics/SVG/1.1/DTD/svg11.dtd">
<!-- Created with matplotlib (http://matplotlib.org/) -->
<svg height="72pt" version="1.1" viewBox="0 0 72 72" width="72pt" xmlns="http://www.w3.org/2000/svg" xmlns:xlink="http://www.w3.org/1999/xlink">
 <defs>
  <style type="text/css">
*{stroke-linecap:butt;stroke-linejoin:round;}
  </style>
 </defs>
 <g id="figure_1">
  <g id="patch_1">
   <path d="
M0 72
L72 72
L72 0
L0 0
z
" style="fill:none;"/>
  </g>
  <g id="axes_1">
   <g id="PatchCollection_1">
    <defs>
     <path d="
M36 -7.5
C43.5583 -7.5 50.808 -10.5029 56.1525 -15.8475
C61.4971 -21.192 64.5 -28.4417 64.5 -36
C64.5 -43.5583 61.4971 -50.808 56.1525 -56.1525
C50.808 -61.4971 43.5583 -64.5 36 -64.5
C28.4417 -64.5 21.192 -61.4971 15.8475 -56.1525
C10.5029 -50.808 7.5 -43.5583 7.5 -36
C7.5 -28.4417 10.5029 -21.192 15.8475 -15.8475
C21.192 -10.5029 28.4417 -7.5 36 -7.5
z
" id="C0_0_a811fe30f3"/>
     <path d="
M39.9653 -7.95511
L39.9002 -8.13164
L39.835 -8.3089
L39.7697 -8.48693
L39.7043 -8.66576
L39.6389 -8.84542
L39.5733 -9.02592
L39.5076 -9.20732
L39.4419 -9.38963
L39.3759 -9.57289
L39.2437 -9.75714
L39.1773 -9.94241
L39.1107 -10.1287
L39.044 -10.3162
L38.977 -10.5047
L38.9098 -10.6944
L38.8424 -10.8853
L38.7747 -11.0775
L38.7068 -11.271
L38.6386 -11.4658
L38.5701 -11.6619
L38.5013 -11.8595
L38.4322 -12.0586
L38.3627 -12.2591
L38.2929 -12.4612
L38.2227 -12.6649
L38.1521 -12.8703
L38.0811 -13.0773
L38.0097 -13.2861
L37.9378 -13.4967
L37.8654 -13.7091
L37.7926 -13.9234
L37.7193 -14.1397
L37.6454 -14.3579
L37.571 -14.5782
L37.496 -14.8006
L37.4205 -15.0251
L37.3443 -15.2518
L37.2675 -15.4808
L37.19 -15.7121
L37.1119 -15.9457
L37.033 -16.1817
L36.9535 -16.4202
L36.8731 -16.6611
L36.792 -16.9047
L36.7101 -17.1508
L36.6274 -17.3995
L36.5437 -17.651
L36.4592 -17.9051
L36.3738 -18.1621
L36.2875 -18.4218
L36.2001 -18.6844
L36.1117 -18.9499
L36.0223 -19.2183
L35.9318 -19.4897
L35.8401 -19.7639
L35.7474 -20.0412
L35.6534 -20.3215
L35.5581 -20.6047
L35.4616 -20.891
L35.3637 -21.1802
L35.2645 -21.4724
L35.1638 -21.7676
L35.0616 -22.0657
L34.9579 -22.3667
L34.8525 -22.6706
L34.7455 -22.9772
L34.6367 -23.2865
L34.5262 -23.5984
L34.4137 -23.9129
L34.2992 -24.2298
L34.1826 -24.5489
L34.0639 -24.8702
L33.9429 -25.1934
L33.8194 -25.5183
L33.6934 -25.8448
L33.5648 -26.1726
L33.4333 -26.5015
L33.2988 -26.8311
L33.1612 -27.1612
L33.0203 -27.4914
L32.8757 -27.8214
L32.7275 -28.1507
L32.5752 -28.4789
L32.4187 -28.8055
L32.2577 -29.1301
L32.0919 -29.4522
L31.9211 -29.7711
L31.7449 -30.0863
L31.563 -30.3972
L31.3752 -30.7032
L31.1811 -31.0036
L30.9804 -31.2978
L30.7728 -31.5852
L30.5582 -31.865
L30.3362 -32.1368
L30.1066 -32.3998
L29.8693 -32.6537
L29.6243 -32.8978
L29.3714 -33.1317
L29.1107 -33.3551
L28.8423 -33.5678
L28.5664 -33.7695
L28.2831 -33.9601
L27.9929 -34.1396
L27.6959 -34.308
L27.3928 -34.4656
L27.0838 -34.6125
L26.7695 -34.749
L26.4503 -34.8755
L26.1269 -34.9922
L25.7997 -35.0996
L25.4692 -35.1981
L25.1361 -35.2881
L24.8007 -35.37
L24.4636 -35.4444
L24.1252 -35.5115
L23.7861 -35.5719
L23.4466 -35.626
L23.1072 -35.674
L22.7681 -35.7164
L22.4299 -35.7535
L22.0927 -35.7857
L21.7569 -35.8132
L21.4228 -35.8364
L21.0905 -35.8554
L20.7604 -35.8707
L20.4327 -35.8823
L20.1074 -35.8906
L19.7849 -35.8957
L19.4651 -35.8979
L19.1483 -35.8972
L18.8346 -35.8939
L18.524 -35.8881
L18.2166 -35.88
L17.9126 -35.8696
L17.6119 -35.8572
L17.3146 -35.8428
L17.0207 -35.8266
L16.7302 -35.8086
L16.4432 -35.7889
L16.1597 -35.7676
L15.8797 -35.7448
L15.6031 -35.7205
L15.33 -35.6949
L15.0603 -35.668
L14.794 -35.6398
L14.5311 -35.6104
L14.2715 -35.5799
L14.0152 -35.5483
L13.7622 -35.5155
L13.5124 -35.4818
L13.2658 -35.4471
L13.0224 -35.4114
L12.782 -35.3748
L12.5447 -35.3372
L12.3103 -35.2988
L12.0789 -35.2595
L11.8504 -35.2194
L11.6247 -35.1784
L11.4018 -35.1366
L11.1816 -35.094
L10.9641 -35.0506
L10.7492 -35.0065
L10.5368 -34.9615
L10.327 -34.9158
L10.1196 -34.8693
L9.91467 -34.822
L9.71205 -34.774
L9.51174 -34.7251
L9.31368 -34.6755
L9.11782 -34.6251
L8.92412 -34.574
L8.73252 -34.522
L8.54299 -34.4692
L8.35547 -34.4156
L8.16991 -34.3611
L7.98629 -34.3058
L7.80455 -34.2497
L7.62465 -34.1926
L7.59834 -34.1347
L7.64395 -33.6345
L7.6982 -33.1392
L7.76106 -32.6447
L7.83253 -32.1513
L7.91258 -31.659
L8.00119 -31.1681
L8.09833 -30.6787
L8.20396 -30.1908
L8.31806 -29.7048
L8.44059 -29.2206
L8.57152 -28.7385
L8.7108 -28.2587
L8.8584 -27.7811
L9.01426 -27.3061
L9.17834 -26.8338
L9.3506 -26.3642
L9.53097 -25.8976
L9.7194 -25.434
L9.91584 -24.9737
L10.1202 -24.5167
L10.3325 -24.0632
L10.5526 -23.6134
L10.7804 -23.1673
L11.0159 -22.7251
L11.2591 -22.287
L11.5097 -21.8531
L11.7679 -21.4234
L12.0334 -20.9982
L12.3062 -20.5776
L12.5862 -20.1617
L12.8734 -19.7506
L13.1676 -19.3444
L13.4687 -18.9433
L13.7767 -18.5475
L14.0915 -18.1569
L14.413 -17.7718
L14.741 -17.3922
L15.0755 -17.0183
L15.4164 -16.6501
L15.7636 -16.2879
L16.1169 -15.9317
L16.4763 -15.5816
L16.8416 -15.2377
L17.2128 -14.9001
L17.5897 -14.5689
L17.9722 -14.2443
L18.3601 -13.9263
L18.7535 -13.6151
L19.1521 -13.3106
L19.5559 -13.0131
L19.9646 -12.7225
L20.3782 -12.4391
L20.7966 -12.1628
L21.2197 -11.8938
L21.6472 -11.6322
L22.0791 -11.3779
L22.5152 -11.1312
L22.9555 -10.892
L23.3997 -10.6605
L23.8478 -10.4367
L24.2995 -10.2207
L24.7549 -10.0125
L25.2136 -9.81228
L25.6756 -9.62001
L26.1408 -9.43578
L26.609 -9.25964
L27.0801 -9.09165
L27.5538 -8.93185
L28.0302 -8.7803
L28.5089 -8.63704
L28.99 -8.50211
L29.4731 -8.37556
L29.9583 -8.25743
L30.4453 -8.14775
L30.934 -8.04655
L31.4243 -7.95386
L31.9159 -7.86972
L32.4088 -7.79415
L32.9028 -7.72716
L33.3977 -7.6688
L33.8934 -7.61906
L34.3898 -7.57796
L34.8866 -7.54553
L35.3838 -7.52176
L35.8811 -7.50666
L36.3786 -7.50025
L36.8758 -7.50251
L37.3729 -7.51346
L37.8695 -7.53309
L38.3655 -7.56138
L38.8608 -7.59834
L39.3553 -7.64395
z
" id="C0_1_6fdce3a51d"/>
     <path d="
M64.3171 -37.9083
L64.1316 -37.9427
L63.9454 -37.9769
L63.7584 -38.011
L63.5705 -38.0449
L63.3818 -38.0786
L63.1922 -38.1121
L63.0016 -38.1455
L62.81 -38.1788
L62.6174 -38.2119
L62.4238 -38.2448
L62.2291 -38.2776
L62.0333 -38.3103
L61.8363 -38.3429
L61.6382 -38.3754
L61.4388 -38.4077
L61.2381 -38.44
L61.036 -38.4722
L60.8326 -38.5043
L60.6278 -38.5363
L60.4216 -38.5683
L60.2138 -38.6002
L60.0045 -38.6321
L59.7935 -38.6639
L59.581 -38.6957
L59.3667 -38.7275
L59.1507 -38.7592
L58.9328 -38.791
L58.7132 -38.8227
L58.4916 -38.8545
L58.268 -38.8863
L58.0425 -38.9181
L57.8149 -38.9499
L57.5852 -38.9818
L57.3533 -39.0138
L57.1191 -39.0458
L56.8827 -39.0779
L56.644 -39.1101
L56.4028 -39.1424
L56.1593 -39.1749
L55.9132 -39.2074
L55.6645 -39.2401
L55.4133 -39.273
L55.1594 -39.306
L54.9028 -39.3392
L54.6434 -39.3726
L54.3812 -39.4062
L54.1161 -39.4401
L53.8482 -39.4742
L53.5772 -39.5086
L53.3033 -39.5433
L53.0264 -39.5784
L52.7464 -39.6138
L52.4632 -39.6495
L52.177 -39.6857
L51.8876 -39.7223
L51.595 -39.7594
L51.2992 -39.7969
L51.0002 -39.8351
L50.6979 -39.8738
L50.3925 -39.9131
L50.0839 -39.9532
L49.7721 -39.994
L49.4571 -40.0355
L49.139 -40.078
L48.8179 -40.1214
L48.4937 -40.1658
L48.1666 -40.2113
L47.8366 -40.258
L47.5039 -40.306
L47.1685 -40.3554
L46.8306 -40.4063
L46.4903 -40.4589
L46.1477 -40.5132
L45.8032 -40.5696
L45.4568 -40.628
L45.1087 -40.6887
L44.7594 -40.752
L44.4089 -40.818
L44.0576 -40.887
L43.7059 -40.9591
L43.354 -41.0348
L43.0024 -41.1143
L42.6514 -41.1979
L42.3015 -41.2859
L41.9532 -41.3788
L41.6069 -41.4769
L41.2631 -41.5805
L40.9224 -41.6902
L40.5852 -41.8064
L40.2523 -41.9293
L39.9241 -42.0596
L39.6012 -42.1977
L39.2841 -42.3438
L38.9734 -42.4985
L38.6697 -42.662
L38.3734 -42.8348
L38.0849 -43.0169
L37.8047 -43.2086
L37.5331 -43.4101
L37.2704 -43.6213
L37.0167 -43.8422
L36.7722 -44.0727
L36.537 -44.3125
L36.3111 -44.5614
L36.0943 -44.8189
L35.8867 -45.0846
L35.6879 -45.3581
L35.4977 -45.6388
L35.316 -45.9262
L35.1424 -46.2196
L34.9767 -46.5184
L34.8185 -46.8221
L34.6675 -47.1301
L34.5233 -47.4417
L34.3858 -47.7565
L34.2546 -48.0738
L34.1293 -48.3931
L34.0097 -48.714
L33.8956 -49.0359
L33.7866 -49.3585
L33.6825 -49.6812
L33.5831 -50.0039
L33.4882 -50.326
L33.3975 -50.6474
L33.3109 -50.9676
L33.2282 -51.2864
L33.1492 -51.6037
L33.0737 -51.9191
L33.0017 -52.2324
L32.9328 -52.5436
L32.8671 -52.8523
L32.8044 -53.1586
L32.7446 -53.4623
L32.6875 -53.7632
L32.6331 -54.0614
L32.5813 -54.3566
L32.5319 -54.6489
L32.485 -54.9382
L32.4403 -55.2244
L32.3978 -55.5076
L32.3575 -55.7877
L32.3193 -56.0647
L32.283 -56.3385
L32.2488 -56.6093
L32.2164 -56.877
L32.1858 -57.1415
L32.1571 -57.403
L32.13 -57.6615
L32.1047 -57.9169
L32.081 -58.1693
L32.0589 -58.4188
L32.0383 -58.6654
L32.0193 -58.9091
L32.0018 -59.1499
L31.9857 -59.388
L31.9711 -59.6233
L31.9578 -59.8559
L31.946 -60.0859
L31.9355 -60.3133
L31.9263 -60.5381
L31.9184 -60.7604
L31.9117 -60.9803
L31.9064 -61.1977
L31.9023 -61.4129
L31.8995 -61.6257
L31.8978 -61.8363
L31.8974 -62.0447
L31.8982 -62.251
L31.9002 -62.4551
L31.9034 -62.6573
L31.9078 -62.8574
L31.9133 -63.0556
L31.9201 -63.2519
L31.928 -63.4464
L31.9371 -63.639
L31.9474 -63.83
L31.9589 -64.0192
L32.4636 -64.2067
L32.9577 -64.2797
L33.4527 -64.3372
L33.9485 -64.3859
L34.4449 -64.4261
L34.9418 -64.4575
L35.439 -64.4803
L35.9364 -64.4945
L36.4338 -64.4999
L36.9311 -64.4967
L37.4281 -64.4848
L37.9246 -64.4642
L38.4206 -64.4349
L38.9158 -64.397
L39.4101 -64.3505
L39.9034 -64.2952
L40.3956 -64.2314
L40.8863 -64.159
L41.3756 -64.078
L41.8633 -63.9884
L42.3491 -63.8904
L42.833 -63.7838
L43.3149 -63.6687
L43.7945 -63.5453
L44.2718 -63.4134
L44.7465 -63.2732
L45.2185 -63.1247
L45.6878 -62.9679
L46.1541 -62.8029
L46.6173 -62.6298
L47.0773 -62.4485
L47.5339 -62.2592
L47.987 -62.0618
L48.4364 -61.8566
L48.882 -61.6434
L49.3238 -61.4225
L49.7614 -61.1938
L50.1949 -60.9574
L50.624 -60.7135
L51.0487 -60.462
L51.4688 -60.203
L51.8842 -59.9367
L52.2948 -59.6631
L52.7004 -59.3823
L53.1009 -59.0943
L53.4962 -58.7993
L53.8862 -58.4974
L54.2707 -58.1886
L54.6496 -57.8731
L55.0229 -57.5509
L55.3904 -57.2221
L55.752 -56.8869
L56.1075 -56.5453
L56.457 -56.1975
L56.8002 -55.8435
L57.137 -55.4834
L57.4674 -55.1174
L57.7913 -54.7456
L58.1086 -54.3681
L58.4191 -53.985
L58.7228 -53.5964
L59.0195 -53.2025
L59.3093 -52.8033
L59.5919 -52.399
L59.8674 -51.9897
L60.1356 -51.5755
L60.3965 -51.1566
L60.6499 -50.7331
L60.8958 -50.305
L61.1341 -49.8727
L61.3647 -49.4361
L61.5877 -48.9954
L61.8028 -48.5507
L62.0101 -48.1022
L62.2095 -47.6501
L62.4008 -47.1944
L62.5842 -46.7352
L62.7594 -46.2728
L62.9265 -45.8073
L63.0854 -45.3388
L63.236 -44.8674
L63.3784 -44.3934
L63.5124 -43.9168
L63.638 -43.4378
L63.7552 -42.9565
L63.8639 -42.4731
L63.9642 -41.9877
L64.0559 -41.5005
L64.1391 -41.0116
L64.2137 -40.5212
L64.2797 -40.0294
L64.3372 -39.5364
L64.3859 -39.0423
z
" id="C0_2_1be0198dd8"/>
    </defs>
    <g clip-path="url(#p1bffca34e9)">
     <use style="fill:#ff0000;stroke:#000000;stroke-width:2.0;" x="0.0" xlink:href="#C0_0_a811fe30f3" y="72.0"/>
    </g>
    <g clip-path="url(#p1bffca34e9)">
     <use style="fill:#ffffff;stroke:#000000;stroke-width:2.0;" x="0.0" xlink:href="#C0_1_6fdce3a51d" y="72.0"/>
    </g>
    <g clip-path="url(#p1bffca34e9)">
     <use style="fill:#ffffff;stroke:#000000;stroke-width:2.0;" x="0.0" xlink:href="#C0_2_1be0198dd8" y="72.0"/>
    </g>
   </g>
  </g>
 </g>
 <defs>
  <clipPath id="p1bffca34e9">
   <rect height="72.0" width="72.0" x="0.0" y="0.0"/>
  </clipPath>
 </defs>
</svg>
