<?xml version="1.0" encoding="utf-8" standalone="no"?>
<!DOCTYPE svg PUBLIC "-//W3C//DTD SVG 1.1//EN"
  "http://www.w3.org/Graphics/SVG/1.1/DTD/svg11.dtd">
<!-- Created with matplotlib (http://matplotlib.org/) -->
<svg height="72pt" version="1.1" viewBox="0 0 72 72" width="72pt" xmlns="http://www.w3.org/2000/svg" xmlns:xlink="http://www.w3.org/1999/xlink">
 <defs>
  <style type="text/css">
*{stroke-linecap:butt;stroke-linejoin:round;}
  </style>
 </defs>
 <g id="figure_1">
  <g id="patch_1">
   <path d="
M0 72
L72 72
L72 0
L0 0
z
" style="fill:none;"/>
  </g>
  <g id="axes_1">
   <g id="PatchCollection_1">
    <defs>
     <path d="
M36 -7.5
C43.5583 -7.5 50.808 -10.5029 56.1525 -15.8475
C61.4971 -21.192 64.5 -28.4417 64.5 -36
C64.5 -43.5583 61.4971 -50.808 56.1525 -56.1525
C50.808 -61.4971 43.5583 -64.5 36 -64.5
C28.4417 -64.5 21.192 -61.4971 15.8475 -56.1525
C10.5029 -50.808 7.5 -43.5583 7.5 -36
C7.5 -28.4417 10.5029 -21.192 15.8475 -15.8475
C21.192 -10.5029 28.4417 -7.5 36 -7.5
z
" id="C0_0_a811fe30f3"/>
     <path d="
M43.8633 -8.73248
L43.614 -8.91697
L43.3805 -9.11626
L43.1614 -9.32886
L42.9554 -9.55337
L42.7612 -9.78852
L42.5779 -10.0331
L42.4043 -10.2861
L42.2395 -10.5464
L42.0826 -10.8133
L41.933 -11.0859
L41.7899 -11.3634
L41.6527 -11.6453
L41.521 -11.9309
L41.3942 -12.2196
L41.272 -12.5111
L41.1539 -12.8048
L41.0397 -13.1003
L40.9291 -13.3973
L40.8217 -13.6955
L40.7174 -13.9944
L40.6159 -14.294
L40.5171 -14.5938
L40.4208 -14.8937
L40.3269 -15.1935
L40.2352 -15.493
L40.1455 -15.792
L40.0579 -16.0904
L39.9721 -16.388
L39.8881 -16.6847
L39.8057 -16.9805
L39.725 -17.2751
L39.6459 -17.5686
L39.5682 -17.8608
L39.4919 -18.1517
L39.417 -18.4412
L39.3433 -18.7294
L39.2709 -19.0161
L39.1997 -19.3013
L39.1296 -19.5851
L39.0606 -19.8673
L38.9927 -20.148
L38.9258 -20.4272
L38.8599 -20.7048
L38.7949 -20.981
L38.7308 -21.2556
L38.6676 -21.5288
L38.6053 -21.8004
L38.5437 -22.0706
L38.483 -22.3394
L38.423 -22.6068
L38.3637 -22.8728
L38.3051 -23.1374
L38.2473 -23.4008
L38.19 -23.6628
L38.1334 -23.9236
L38.0774 -24.1833
L38.022 -24.4417
L37.9672 -24.6991
L37.9128 -24.9554
L37.8591 -25.2106
L37.8058 -25.4649
L37.753 -25.7182
L37.7006 -25.9706
L37.6487 -26.2222
L37.5973 -26.4731
L37.5462 -26.7231
L37.4956 -26.9725
L37.4453 -27.2213
L37.3954 -27.4694
L37.3458 -27.7171
L37.2965 -27.9642
L37.2476 -28.2109
L37.199 -28.4573
L37.1506 -28.7033
L37.1026 -28.9491
L37.0547 -29.1946
L37.0072 -29.44
L36.9598 -29.6853
L36.9127 -29.9305
L36.8658 -30.1758
L36.8191 -30.4211
L36.7262 -30.6665
L36.68 -30.9121
L36.634 -31.158
L36.588 -31.4041
L36.5423 -31.6506
L36.4966 -31.8975
L36.451 -32.1448
L36.4056 -32.3927
L36.3602 -32.6412
L36.3149 -32.8902
L36.2697 -33.14
L36.2245 -33.3906
L36.1794 -33.642
L36.1343 -33.8942
L36.0893 -34.1474
L36.0443 -34.4016
L35.9994 -34.6568
L35.9544 -34.9131
L35.9095 -35.1707
L35.8645 -35.4294
L35.8196 -35.6895
L35.7747 -35.9509
L35.7297 -36.2137
L35.6848 -36.4781
L35.6398 -36.7439
L35.5948 -37.0114
L35.5498 -37.2805
L35.5048 -37.5513
L35.4597 -37.8239
L35.4147 -38.0984
L35.3696 -38.3747
L35.3245 -38.653
L35.2794 -38.9333
L35.2343 -39.2157
L35.1892 -39.5002
L35.144 -39.7869
L35.099 -40.0758
L35.0539 -40.367
L35.0089 -40.6605
L34.9639 -40.9564
L34.919 -41.2547
L34.8742 -41.5554
L34.8295 -41.8587
L34.7849 -42.1644
L34.7405 -42.4728
L34.6963 -42.7837
L34.6523 -43.0973
L34.6086 -43.4135
L34.5651 -43.7323
L34.5221 -44.0538
L34.4794 -44.378
L34.4371 -44.7048
L34.3954 -45.0343
L34.3543 -45.3664
L34.3138 -45.7011
L34.274 -46.0384
L34.2351 -46.3782
L34.1972 -46.7204
L34.1603 -47.0651
L34.1246 -47.4121
L34.0902 -47.7613
L34.0572 -48.1126
L34.0259 -48.466
L33.9965 -48.8212
L33.9691 -49.1781
L33.9439 -49.5366
L33.9213 -49.8964
L33.9016 -50.2574
L33.885 -50.6192
L33.8719 -50.9817
L33.8627 -51.3445
L33.8579 -51.7073
L33.8581 -52.0698
L33.8636 -52.4316
L33.8753 -52.7922
L33.8938 -53.1512
L33.9198 -53.508
L33.9544 -53.8621
L33.9985 -54.2129
L34.0531 -54.5597
L34.1195 -54.9018
L34.199 -55.2382
L34.2929 -55.5682
L34.4026 -55.8909
L34.5297 -56.2051
L34.6756 -56.5099
L34.8418 -56.8042
L35.0294 -57.0868
L35.2396 -57.3567
L35.4732 -57.6128
L35.7305 -57.8542
L36.0116 -58.08
L36.3162 -58.2895
L36.6435 -58.4823
L36.9924 -58.6578
L37.3616 -58.816
L37.7494 -58.9567
L38.1541 -59.0801
L38.5738 -59.1864
L39.0068 -59.276
L39.4512 -59.3491
L39.9053 -59.4062
L40.3675 -59.4477
L40.8361 -59.4742
L41.3099 -59.486
L41.7875 -59.4837
L42.2676 -59.4678
L42.7493 -59.4387
L43.2314 -59.3969
L43.7132 -59.3428
L44.1937 -59.277
L44.6723 -59.1998
L45.1483 -59.1116
L45.6212 -59.013
L46.0903 -58.9043
L46.5553 -58.7859
L47.0157 -58.6582
L47.4711 -58.5216
L47.9213 -58.3766
L48.3659 -58.2234
L48.8047 -58.0624
L49.2375 -57.894
L49.6641 -57.7184
L50.0844 -57.5362
L50.4982 -57.3474
L50.9054 -57.1526
L51.3061 -56.9518
L51.7 -56.7455
L52.0871 -56.534
L52.4676 -56.3173
L52.8412 -56.0959
L53.2081 -55.87
L53.5682 -55.6397
L53.9216 -55.4053
L54.2683 -55.167
L54.6083 -54.925
L54.9418 -54.6795
L55.2687 -54.4307
L55.5891 -54.1787
L55.9032 -53.9236
L56.2109 -53.6656
L56.5123 -53.405
L56.8076 -53.1416
L57.0968 -52.8758
L57.3799 -52.6076
L57.6572 -52.3372
L57.9286 -52.0645
L58.1942 -51.7897
L58.4541 -51.5129
L58.7085 -51.2341
L58.9574 -50.9535
L59.2008 -50.671
L59.4389 -50.3868
L59.6717 -50.1008
L59.8993 -49.8132
L60.1219 -49.5239
L60.3394 -49.233
L60.5519 -48.9405
L60.7596 -48.6465
L60.9624 -48.3509
L61.1605 -48.0538
L61.3539 -47.7552
L61.5426 -47.4551
L61.7268 -47.1535
L61.9064 -46.8503
L62.0816 -46.5457
L62.2523 -46.2395
L62.4187 -45.9318
L62.5807 -45.6225
L62.7384 -45.3117
L62.8919 -44.9993
L63.0411 -44.6853
L63.1861 -44.3696
L63.327 -44.0523
L63.4637 -43.7333
L63.5962 -43.4126
L63.7231 -43.0901
L63.8342 -42.6092
L63.9368 -42.1243
L64.031 -41.6376
L64.1166 -41.1492
L64.1936 -40.6592
L64.2621 -40.1678
L64.3219 -39.6751
L64.3731 -39.1813
L64.4157 -38.6865
L64.4496 -38.191
L64.4748 -37.6947
L64.4914 -37.1979
L64.4993 -36.7008
L64.4985 -36.2034
L64.489 -35.706
L64.4709 -35.2087
L64.444 -34.7116
L64.4086 -34.2149
L64.3644 -33.7188
L64.3116 -33.2233
L64.2502 -32.7287
L64.1802 -32.2351
L64.1016 -31.7427
L64.0145 -31.2515
L63.9188 -30.7618
L63.8146 -30.2737
L63.7019 -29.7873
L63.5808 -29.3028
L63.4513 -28.8204
L63.3135 -28.3401
L63.1673 -27.8622
L63.0128 -27.3867
L62.8501 -26.9139
L62.6793 -26.4439
L62.5003 -25.9767
L62.3132 -25.5126
L62.1181 -25.0517
L61.9151 -24.5942
L61.7042 -24.1401
L61.4854 -23.6896
L61.2589 -23.2429
L61.0247 -22.8
L60.7828 -22.3612
L60.5334 -21.9266
L60.2766 -21.4962
L60.0123 -21.0702
L59.7407 -20.6488
L59.4619 -20.2321
L59.176 -19.8201
L58.883 -19.4131
L58.583 -19.0112
L58.2761 -18.6144
L57.9625 -18.2229
L57.6421 -17.8369
L57.3152 -17.4563
L56.9818 -17.0815
L56.642 -16.7123
L56.2959 -16.3491
L55.9436 -15.9918
L55.5852 -15.6407
L55.2209 -15.2957
L54.8507 -14.957
L54.4748 -14.6248
L54.0933 -14.2991
L53.7062 -13.9799
L53.3138 -13.6675
L52.916 -13.3619
L52.5132 -13.0632
L52.1053 -12.7715
L51.6924 -12.4868
L51.2748 -12.2093
L50.8526 -11.9391
L50.4258 -11.6761
L49.9947 -11.4206
L49.5592 -11.1726
L49.1197 -10.9321
L48.6761 -10.6993
L48.2287 -10.4742
L47.7776 -10.2569
L47.3228 -10.0474
L46.8646 -9.84577
L46.4032 -9.65215
L45.9385 -9.46654
L45.4708 -9.28903
L45.0002 -9.11964
L44.5269 -8.95845
z
" id="C0_1_1bc6f1f5fc"/>
     <path d="
M8.34969 -29.2523
L8.31452 -29.598
L8.2836 -29.9434
L8.25692 -30.2885
L8.23443 -30.6333
L8.21613 -30.9779
L8.20199 -31.3223
L8.19199 -31.6666
L8.18613 -32.0109
L8.1844 -32.3551
L8.18678 -32.6994
L8.1933 -33.0437
L8.20394 -33.3882
L8.21873 -33.7328
L8.23766 -34.0776
L8.26076 -34.4228
L8.28806 -34.7682
L8.31956 -35.114
L8.35531 -35.4602
L8.39533 -35.8069
L8.43966 -36.154
L8.48835 -36.5017
L8.54143 -36.8499
L8.59895 -37.1988
L8.66097 -37.5483
L8.72754 -37.8985
L8.79871 -38.2494
L8.87456 -38.601
L8.95515 -38.9535
L9.04056 -39.3067
L9.13084 -39.6608
L9.22609 -40.0157
L9.32639 -40.3715
L9.43182 -40.7282
L9.54246 -41.0858
L9.65842 -41.4443
L9.77979 -41.8037
L9.90666 -42.164
L10.0391 -42.5253
L10.1773 -42.8874
L10.3213 -43.2505
L10.4713 -43.6144
L10.6272 -43.9792
L10.7894 -44.3448
L10.9578 -44.7112
L11.1326 -45.0784
L11.3138 -45.4463
L11.5017 -45.8148
L11.6964 -46.1839
L11.8978 -46.5536
L12.1063 -46.9237
L12.3218 -47.2942
L12.5445 -47.6649
L12.7745 -48.0358
L13.0119 -48.4067
L13.2567 -48.7776
L13.5092 -49.1483
L13.7693 -49.5187
L14.0371 -49.8885
L14.3126 -50.2578
L14.596 -50.6262
L14.8873 -50.9937
L15.1864 -51.3599
L15.4934 -51.7249
L15.8082 -52.0882
L16.1307 -52.4498
L16.461 -52.8094
L16.7989 -53.1668
L17.1442 -53.5218
L17.4967 -53.8741
L17.8563 -54.2235
L18.2227 -54.5699
L18.5956 -54.9129
L18.9745 -55.2524
L19.359 -55.5881
L19.7487 -55.92
L20.143 -56.2478
L20.5411 -56.5714
L20.9423 -56.8906
L21.3458 -57.2055
L21.7506 -57.5159
L22.1556 -57.822
L22.5596 -58.1237
L22.9612 -58.4212
L23.3591 -58.7147
L23.7516 -59.0046
L24.137 -59.291
L24.5136 -59.5746
L24.8794 -59.8557
L25.2327 -60.1348
L25.5716 -60.4127
L25.8944 -60.6898
L26.1996 -60.9668
L26.4861 -61.2441
L26.7528 -61.5221
L26.9992 -61.8013
L27.2253 -62.0817
L27.4313 -62.3634
L27.6177 -62.6464
L27.7855 -62.9303
L27.4273 -63.2151
L26.9542 -63.1801
L26.4839 -63.0264
L26.0165 -62.8644
L25.5522 -62.6942
L25.091 -62.5159
L24.6331 -62.3295
L24.1787 -62.1351
L23.728 -61.9328
L23.2809 -61.7225
L22.8377 -61.5044
L22.3986 -61.2785
L21.9635 -61.045
L21.5328 -60.8038
L21.1065 -60.555
L20.6847 -60.2988
L20.2675 -60.0352
L19.8552 -59.7642
L19.4477 -59.486
L19.0453 -59.2007
L18.6481 -58.9083
L18.2562 -58.6089
L17.8697 -58.3026
L17.4886 -57.9896
L17.1133 -57.6698
L16.7437 -57.3434
L16.3799 -57.0106
L16.0221 -56.6713
L15.6704 -56.3257
L15.3249 -55.974
L14.9857 -55.6161
L14.6529 -55.2523
L14.3267 -54.8826
L14.007 -54.5072
L13.694 -54.1261
L13.3878 -53.7395
L13.0884 -53.3475
L12.7961 -52.9502
L12.5109 -52.5478
L12.2327 -52.1403
L11.9619 -51.7279
L11.6983 -51.3107
L11.4422 -50.8889
L11.1935 -50.4625
L10.9524 -50.0317
L10.7189 -49.5966
L10.4931 -49.1574
L10.2751 -48.7142
L10.065 -48.2671
L9.8627 -47.8163
L9.66838 -47.3618
L9.4821 -46.9039
L9.30388 -46.4427
L9.1338 -45.9783
L8.97191 -45.5109
L8.81824 -45.0406
L8.67286 -44.5675
L8.5358 -44.0918
L8.40711 -43.6137
L8.28682 -43.1332
L8.17497 -42.6505
L8.0716 -42.1659
L7.97674 -41.6793
L7.89041 -41.191
L7.81264 -40.7012
L7.74346 -40.2099
L7.68289 -39.7173
L7.63095 -39.2236
L7.58764 -38.7289
L7.55299 -38.2334
L7.52701 -37.7371
L7.50969 -37.2404
L7.50106 -36.7433
L7.50111 -36.246
L7.50984 -35.7486
L7.52725 -35.2512
L7.55333 -34.7541
L7.58807 -34.2574
L7.63147 -33.7612
L7.68351 -33.2657
L7.74418 -32.771
L7.81345 -32.2773
L7.89131 -31.7847
L7.97773 -31.2934
L8.07269 -30.8036
L8.17616 -30.3153
z
" id="C0_2_e3db768591"/>
    </defs>
    <g clip-path="url(#p1bffca34e9)">
     <use style="fill:#ffffff;stroke:#000000;stroke-width:2.0;" x="0.0" xlink:href="#C0_0_a811fe30f3" y="72.0"/>
    </g>
    <g clip-path="url(#p1bffca34e9)">
     <use style="fill:#ff0000;stroke:#000000;stroke-width:2.0;" x="0.0" xlink:href="#C0_1_1bc6f1f5fc" y="72.0"/>
    </g>
    <g clip-path="url(#p1bffca34e9)">
     <use style="fill:#ff0000;stroke:#000000;stroke-width:2.0;" x="0.0" xlink:href="#C0_2_e3db768591" y="72.0"/>
    </g>
   </g>
  </g>
 </g>
 <defs>
  <clipPath id="p1bffca34e9">
   <rect height="72.0" width="72.0" x="0.0" y="0.0"/>
  </clipPath>
 </defs>
</svg>
