<?xml version="1.0" encoding="utf-8" standalone="no"?>
<!DOCTYPE svg PUBLIC "-//W3C//DTD SVG 1.1//EN"
  "http://www.w3.org/Graphics/SVG/1.1/DTD/svg11.dtd">
<!-- Created with matplotlib (http://matplotlib.org/) -->
<svg height="72pt" version="1.1" viewBox="0 0 72 72" width="72pt" xmlns="http://www.w3.org/2000/svg" xmlns:xlink="http://www.w3.org/1999/xlink">
 <defs>
  <style type="text/css">
*{stroke-linecap:butt;stroke-linejoin:round;}
  </style>
 </defs>
 <g id="figure_1">
  <g id="patch_1">
   <path d="
M0 72
L72 72
L72 0
L0 0
z
" style="fill:none;"/>
  </g>
  <g id="axes_1">
   <g id="PatchCollection_1">
    <defs>
     <path d="
M36 -7.5
C43.5583 -7.5 50.808 -10.5029 56.1525 -15.8475
C61.4971 -21.192 64.5 -28.4417 64.5 -36
C64.5 -43.5583 61.4971 -50.808 56.1525 -56.1525
C50.808 -61.4971 43.5583 -64.5 36 -64.5
C28.4417 -64.5 21.192 -61.4971 15.8475 -56.1525
C10.5029 -50.808 7.5 -43.5583 7.5 -36
C7.5 -28.4417 10.5029 -21.192 15.8475 -15.8475
C21.192 -10.5029 28.4417 -7.5 36 -7.5
z
" id="C0_0_a811fe30f3"/>
     <path d="
M64.4476 -34.2721
L64.2699 -34.2828
L64.091 -34.2934
L63.911 -34.304
L63.7297 -34.3144
L63.5471 -34.3248
L63.3632 -34.3351
L63.1778 -34.3454
L62.9911 -34.3556
L62.8028 -34.3657
L62.613 -34.3758
L62.4216 -34.3859
L62.2285 -34.3959
L62.0337 -34.4058
L61.8371 -34.4157
L61.6387 -34.4256
L61.4384 -34.4355
L61.2361 -34.4453
L61.0318 -34.4551
L60.8254 -34.4648
L60.6168 -34.4745
L60.4061 -34.4843
L60.193 -34.4939
L59.9776 -34.5036
L59.7597 -34.5132
L59.5393 -34.5229
L59.3163 -34.5325
L59.0907 -34.5421
L58.8623 -34.5516
L58.6311 -34.5612
L58.3971 -34.5707
L58.16 -34.5802
L57.9199 -34.5896
L57.6766 -34.5991
L57.4302 -34.6085
L57.1804 -34.6179
L56.9273 -34.6272
L56.6707 -34.6365
L56.4105 -34.6458
L56.1467 -34.655
L55.8792 -34.6642
L55.6079 -34.6732
L55.3328 -34.6822
L55.0536 -34.6912
L54.7705 -34.7
L54.4832 -34.7087
L54.1918 -34.7173
L53.8961 -34.7257
L53.5961 -34.734
L53.2917 -34.7421
L52.9828 -34.75
L52.6695 -34.7576
L52.3517 -34.765
L52.0292 -34.7722
L51.7022 -34.779
L51.3705 -34.7854
L51.0341 -34.7914
L50.6931 -34.797
L50.3474 -34.802
L49.9972 -34.8065
L49.6423 -34.8103
L49.2829 -34.8134
L48.919 -34.8157
L48.5507 -34.8171
L48.1781 -34.8174
L47.8014 -34.8166
L47.4208 -34.8145
L47.0363 -34.8108
L46.6482 -34.8056
L46.2569 -34.7984
L45.8626 -34.7891
L45.4656 -34.7774
L45.0663 -34.763
L44.6653 -34.7454
L44.263 -34.7242
L43.86 -34.699
L43.457 -34.6691
L43.0549 -34.6338
L42.6544 -34.5925
L42.2566 -34.544
L41.8626 -34.4875
L41.4738 -34.4218
L41.0914 -34.3454
L40.7171 -34.257
L40.3526 -34.1548
L39.9996 -34.0373
L39.6599 -33.9027
L39.3352 -33.7494
L39.027 -33.5759
L38.7368 -33.3811
L38.4652 -33.1644
L38.2129 -32.9257
L37.9796 -32.6653
L37.765 -32.3843
L37.568 -32.0841
L37.3875 -31.7664
L37.222 -31.4331
L37.0702 -31.0863
L36.9305 -30.728
L36.8018 -30.36
L36.6826 -29.984
L36.5718 -29.6017
L36.4686 -29.2145
L36.3719 -28.8237
L36.2811 -28.4303
L36.1954 -28.0355
L36.1144 -27.6399
L36.0375 -27.2444
L35.9644 -26.8497
L35.8945 -26.4564
L35.8277 -26.0649
L35.7637 -25.6757
L35.7022 -25.2891
L35.643 -24.9056
L35.586 -24.5253
L35.5309 -24.1487
L35.4777 -23.7757
L35.4263 -23.4068
L35.3764 -23.0419
L35.3281 -22.6812
L35.2812 -22.3248
L35.2356 -21.9729
L35.1913 -21.6254
L35.1483 -21.2824
L35.1063 -20.9439
L35.0655 -20.61
L35.0258 -20.2806
L34.987 -19.9558
L34.9493 -19.6355
L34.9124 -19.3197
L34.8764 -19.0083
L34.8413 -18.7014
L34.807 -18.3988
L34.7735 -18.1006
L34.7407 -17.8066
L34.7087 -17.5168
L34.6774 -17.2311
L34.6467 -16.9495
L34.6167 -16.6718
L34.5874 -16.3981
L34.5586 -16.1281
L34.5305 -15.862
L34.5029 -15.5995
L34.4759 -15.3405
L34.4495 -15.0851
L34.4235 -14.8331
L34.3981 -14.5845
L34.3732 -14.3391
L34.3487 -14.0969
L34.3247 -13.8578
L34.3011 -13.6218
L34.278 -13.3886
L34.2553 -13.1584
L34.233 -12.9309
L34.2111 -12.7061
L34.1896 -12.484
L34.1685 -12.2644
L34.1478 -12.0473
L34.1274 -11.8326
L34.1073 -11.6203
L34.0877 -11.4102
L34.0683 -11.2023
L34.0493 -10.9966
L34.0305 -10.7929
L34.0121 -10.5912
L33.994 -10.3915
L33.9762 -10.1936
L33.9587 -9.99756
L33.9415 -9.80327
L33.9245 -9.61067
L33.9078 -9.41972
L33.8914 -9.23034
L33.8753 -9.04249
L33.8594 -8.85612
L33.8438 -8.67116
L33.8285 -8.48758
L33.8134 -8.30532
L33.7985 -8.12433
L33.7839 -7.94456
L33.7696 -7.76598
L34.2517 -7.55368
L34.7484 -7.5275
L35.2455 -7.50999
L35.7428 -7.50116
L36.2403 -7.50101
L36.7376 -7.50955
L37.2347 -7.52676
L37.7314 -7.55264
L38.2277 -7.58719
L38.7232 -7.6304
L39.2179 -7.68225
L39.7116 -7.74272
L40.2042 -7.8118
L40.6955 -7.88947
L41.1854 -7.9757
L41.6737 -8.07046
L42.1603 -8.17374
L42.645 -8.28549
L43.1276 -8.40568
L43.6082 -8.53428
L44.0863 -8.67124
L44.5621 -8.81653
L45.0352 -8.9701
L45.5055 -9.1319
L45.973 -9.30188
L46.4374 -9.48
L46.8987 -9.6662
L47.3566 -9.86042
L47.8111 -10.0626
L48.2619 -10.2727
L48.7091 -10.4906
L49.1523 -10.7163
L49.5916 -10.9497
L50.0267 -11.1907
L50.4576 -11.4393
L50.884 -11.6953
L51.3059 -11.9588
L51.7232 -12.2296
L52.1356 -12.5076
L52.5432 -12.7928
L52.9457 -13.0851
L53.343 -13.3843
L53.7351 -13.6904
L54.1217 -14.0033
L54.5028 -14.3229
L54.8783 -14.6492
L55.2481 -14.9819
L55.612 -15.321
L55.9699 -15.6664
L56.3217 -16.0181
L56.6674 -16.3758
L57.0067 -16.7395
L57.3396 -17.109
L57.6661 -17.4843
L57.9859 -17.8653
L58.2991 -18.2517
L58.6054 -18.6436
L58.9049 -19.0408
L59.1974 -19.4431
L59.4828 -19.8505
L59.7611 -20.2628
L60.0321 -20.6798
L60.2958 -21.1016
L60.5521 -21.5279
L60.801 -21.9586
L61.0423 -22.3936
L61.2759 -22.8327
L61.5019 -23.2758
L61.72 -23.7228
L61.9304 -24.1736
L62.1328 -24.6279
L62.3273 -25.0857
L62.5138 -25.5469
L62.6922 -26.0112
L62.8625 -26.4785
L63.0245 -26.9488
L63.1784 -27.4218
L63.324 -27.8975
L63.4612 -28.3756
L63.5901 -28.856
L63.7106 -29.3386
L63.8226 -29.8232
L63.9262 -30.3097
L64.0212 -30.798
L64.1077 -31.2878
L64.1857 -31.7791
L64.2551 -32.2716
L64.3158 -32.7653
L64.368 -33.26
L64.4115 -33.7555
z
" id="C0_1_ec31b112e7"/>
     <path d="
M38.2304 -64.234
L38.2161 -64.0554
L38.2015 -63.8757
L38.1866 -63.6947
L38.1715 -63.5124
L38.1562 -63.3288
L38.1406 -63.1439
L38.1247 -62.9575
L38.1086 -62.7697
L38.0922 -62.5803
L38.0755 -62.3893
L38.0585 -62.1967
L38.0413 -62.0024
L38.0238 -61.8064
L38.006 -61.6085
L37.9879 -61.4088
L37.9695 -61.2071
L37.9507 -61.0034
L37.9317 -60.7977
L37.9123 -60.5898
L37.8927 -60.3797
L37.8726 -60.1674
L37.8522 -59.9527
L37.8315 -59.7356
L37.8104 -59.516
L37.7889 -59.2939
L37.767 -59.0691
L37.7447 -58.8416
L37.722 -58.6114
L37.6989 -58.3782
L37.6753 -58.1422
L37.6513 -57.9031
L37.6268 -57.6609
L37.6019 -57.4155
L37.5765 -57.1669
L37.5505 -56.9149
L37.5241 -56.6595
L37.4971 -56.4005
L37.4695 -56.138
L37.4414 -55.8719
L37.4126 -55.6019
L37.3833 -55.3282
L37.3533 -55.0505
L37.3226 -54.7689
L37.2913 -54.4832
L37.2593 -54.1934
L37.2265 -53.8994
L37.193 -53.6012
L37.1587 -53.2986
L37.1236 -52.9917
L37.0876 -52.6803
L37.0507 -52.3645
L37.013 -52.0442
L36.9742 -51.7194
L36.9345 -51.39
L36.8937 -51.0561
L36.8517 -50.7176
L36.8087 -50.3746
L36.7644 -50.0271
L36.7188 -49.6752
L36.6719 -49.3188
L36.6236 -48.9581
L36.5737 -48.5932
L36.5223 -48.2243
L36.4691 -47.8513
L36.414 -47.4747
L36.357 -47.0944
L36.2978 -46.7109
L36.2363 -46.3243
L36.1723 -45.9351
L36.1055 -45.5436
L36.0356 -45.1503
L35.9625 -44.7556
L35.8856 -44.3601
L35.8046 -43.9645
L35.7189 -43.5697
L35.6281 -43.1763
L35.5314 -42.7855
L35.4282 -42.3983
L35.3174 -42.016
L35.1982 -41.64
L35.0695 -41.272
L34.9298 -40.9137
L34.778 -40.5669
L34.6125 -40.2336
L34.432 -39.9159
L34.235 -39.6157
L34.0204 -39.3347
L33.7871 -39.0743
L33.5348 -38.8356
L33.2632 -38.6189
L32.973 -38.4241
L32.6648 -38.2506
L32.3401 -38.0973
L32.0004 -37.9627
L31.6474 -37.8452
L31.2829 -37.743
L30.9086 -37.6546
L30.5262 -37.5782
L30.1374 -37.5125
L29.7434 -37.456
L29.3456 -37.4075
L28.9451 -37.3662
L28.543 -37.3309
L28.14 -37.301
L27.737 -37.2758
L27.3347 -37.2546
L26.9337 -37.237
L26.5344 -37.2226
L26.1374 -37.2109
L25.7431 -37.2016
L25.3518 -37.1944
L24.9637 -37.1892
L24.5792 -37.1855
L24.1986 -37.1834
L23.8219 -37.1826
L23.4493 -37.1829
L23.081 -37.1843
L22.7171 -37.1866
L22.3577 -37.1897
L22.0028 -37.1935
L21.6526 -37.198
L21.3069 -37.203
L20.9659 -37.2086
L20.6295 -37.2146
L20.2978 -37.221
L19.9708 -37.2278
L19.6483 -37.235
L19.3305 -37.2424
L19.0172 -37.25
L18.7083 -37.2579
L18.4039 -37.266
L18.1039 -37.2743
L17.8082 -37.2827
L17.5168 -37.2913
L17.2295 -37.3
L16.9464 -37.3088
L16.6672 -37.3178
L16.3921 -37.3268
L16.1208 -37.3358
L15.8533 -37.345
L15.5895 -37.3542
L15.3293 -37.3635
L15.0727 -37.3728
L14.8196 -37.3821
L14.5698 -37.3915
L14.3234 -37.4009
L14.0801 -37.4104
L13.84 -37.4198
L13.6029 -37.4293
L13.3689 -37.4388
L13.1377 -37.4484
L12.9093 -37.4579
L12.6837 -37.4675
L12.4607 -37.4771
L12.2403 -37.4868
L12.0224 -37.4964
L11.807 -37.5061
L11.5939 -37.5157
L11.3832 -37.5255
L11.1746 -37.5352
L10.9682 -37.5449
L10.7639 -37.5547
L10.5616 -37.5645
L10.3613 -37.5744
L10.1629 -37.5843
L9.96633 -37.5942
L9.77152 -37.6041
L9.57844 -37.6141
L9.38702 -37.6242
L9.1972 -37.6343
L9.00894 -37.6444
L8.82217 -37.6546
L8.63684 -37.6649
L8.45291 -37.6752
L8.27031 -37.6856
L8.08902 -37.696
L7.90897 -37.7066
L7.58692 -37.7172
L7.63007 -38.2242
L7.68186 -38.7198
L7.74227 -39.2145
L7.81129 -39.7082
L7.8889 -40.2008
L7.97507 -40.6921
L8.06978 -41.182
L8.17299 -41.6703
L8.28468 -42.1569
L8.40481 -42.6416
L8.53335 -43.1243
L8.67026 -43.6048
L8.81549 -44.083
L8.969 -44.5588
L9.13075 -45.0319
L9.30068 -45.5023
L9.47874 -45.9698
L9.66488 -46.4342
L9.85904 -46.8955
L10.0612 -47.3534
L10.2712 -47.8079
L10.4891 -48.2588
L10.7147 -48.706
L10.948 -49.1493
L11.189 -49.5886
L11.4375 -50.0237
L11.6935 -50.4546
L11.957 -50.8811
L12.2277 -51.303
L12.5057 -51.7203
L12.7908 -52.1328
L13.083 -52.5403
L13.3822 -52.9429
L13.6883 -53.3403
L14.0011 -53.7323
L14.3207 -54.119
L14.6469 -54.5002
L14.9796 -54.8758
L15.3186 -55.2455
L15.664 -55.6095
L16.0156 -55.9674
L16.3733 -56.3193
L16.7369 -56.665
L17.1064 -57.0044
L17.4817 -57.3373
L17.8626 -57.6638
L18.249 -57.9837
L18.6409 -58.2969
L19.038 -58.6033
L19.4403 -58.9028
L19.8476 -59.1954
L20.2599 -59.4809
L20.6769 -59.7592
L21.0986 -60.0303
L21.5249 -60.294
L21.9556 -60.5504
L22.3905 -60.7993
L22.8296 -61.0406
L23.2727 -61.2743
L23.7197 -61.5003
L24.1704 -61.7186
L24.6247 -61.929
L25.0825 -62.1315
L25.5436 -62.326
L26.0079 -62.5125
L26.4753 -62.691
L26.9455 -62.8613
L27.4185 -63.0234
L27.8942 -63.1774
L28.3722 -63.323
L28.8526 -63.4603
L29.3352 -63.5892
L29.8199 -63.7098
L30.3064 -63.8219
L30.7946 -63.9255
L31.2844 -64.0206
L31.7757 -64.1072
L32.2682 -64.1852
L32.7619 -64.2546
L33.2565 -64.3154
L33.752 -64.3676
L34.2482 -64.4112
L34.745 -64.4461
L35.2421 -64.4724
L35.7394 -64.4899
L36.2368 -64.4988
L36.7341 -64.499
L37.2313 -64.4905
L37.728 -64.4734
z
" id="C0_2_8bdd343252"/>
    </defs>
    <g clip-path="url(#p1bffca34e9)">
     <use style="fill:#ff0000;stroke:#000000;stroke-width:2.0;" x="0.0" xlink:href="#C0_0_a811fe30f3" y="72.0"/>
    </g>
    <g clip-path="url(#p1bffca34e9)">
     <use style="fill:#ffffff;stroke:#000000;stroke-width:2.0;" x="0.0" xlink:href="#C0_1_ec31b112e7" y="72.0"/>
    </g>
    <g clip-path="url(#p1bffca34e9)">
     <use style="fill:#ffffff;stroke:#000000;stroke-width:2.0;" x="0.0" xlink:href="#C0_2_8bdd343252" y="72.0"/>
    </g>
   </g>
  </g>
 </g>
 <defs>
  <clipPath id="p1bffca34e9">
   <rect height="72.0" width="72.0" x="0.0" y="0.0"/>
  </clipPath>
 </defs>
</svg>
