<?xml version="1.0" encoding="utf-8" standalone="no"?>
<!DOCTYPE svg PUBLIC "-//W3C//DTD SVG 1.1//EN"
  "http://www.w3.org/Graphics/SVG/1.1/DTD/svg11.dtd">
<!-- Created with matplotlib (http://matplotlib.org/) -->
<svg height="72pt" version="1.1" viewBox="0 0 72 72" width="72pt" xmlns="http://www.w3.org/2000/svg" xmlns:xlink="http://www.w3.org/1999/xlink">
 <defs>
  <style type="text/css">
*{stroke-linecap:butt;stroke-linejoin:round;}
  </style>
 </defs>
 <g id="figure_1">
  <g id="patch_1">
   <path d="
M0 72
L72 72
L72 0
L0 0
z
" style="fill:none;"/>
  </g>
  <g id="axes_1">
   <g id="PatchCollection_1">
    <defs>
     <path d="
M36 -7.5
C43.5583 -7.5 50.808 -10.5029 56.1525 -15.8475
C61.4971 -21.192 64.5 -28.4417 64.5 -36
C64.5 -43.5583 61.4971 -50.808 56.1525 -56.1525
C50.808 -61.4971 43.5583 -64.5 36 -64.5
C28.4417 -64.5 21.192 -61.4971 15.8475 -56.1525
C10.5029 -50.808 7.5 -43.5583 7.5 -36
C7.5 -28.4417 10.5029 -21.192 15.8475 -15.8475
C21.192 -10.5029 28.4417 -7.5 36 -7.5
z
" id="C0_0_a811fe30f3"/>
     <path d="
M62.637 -26.3345
L62.4128 -26.4668
L62.1895 -26.6104
L61.967 -26.7642
L61.745 -26.9271
L61.5235 -27.098
L61.3022 -27.2759
L61.0811 -27.46
L60.86 -27.6495
L60.6389 -27.8435
L60.4177 -28.0415
L60.1963 -28.2427
L59.9747 -28.4467
L59.753 -28.6528
L59.531 -28.8608
L59.3089 -29.0701
L59.0866 -29.2804
L58.8641 -29.4913
L58.6415 -29.7025
L58.4188 -29.9138
L58.1959 -30.1249
L57.9731 -30.3356
L57.7502 -30.5458
L57.5274 -30.7552
L57.3046 -30.9637
L57.082 -31.1712
L56.8594 -31.3775
L56.6371 -31.5826
L56.4149 -31.7864
L56.193 -31.9888
L55.9714 -32.1897
L55.75 -32.3891
L55.529 -32.5869
L55.3083 -32.7832
L55.088 -32.9779
L54.868 -33.1709
L54.6485 -33.3622
L54.4293 -33.552
L54.2105 -33.74
L53.9922 -33.9264
L53.7743 -34.1112
L53.5568 -34.2943
L53.3397 -34.4758
L53.1231 -34.6557
L52.9068 -34.8339
L52.691 -35.0106
L52.4756 -35.1858
L52.2606 -35.3594
L52.0459 -35.5316
L51.8316 -35.7022
L51.6177 -35.8715
L51.4041 -36.0393
L51.1908 -36.2057
L50.9778 -36.3708
L50.765 -36.5345
L50.5525 -36.697
L50.3403 -36.8582
L50.1282 -37.0182
L49.9163 -37.177
L49.7045 -37.3347
L49.4928 -37.4912
L49.2813 -37.6467
L49.0697 -37.8011
L48.8582 -37.9545
L48.6467 -38.1069
L48.4352 -38.2583
L48.2235 -38.4089
L48.0117 -38.5585
L47.7998 -38.7073
L47.5877 -38.8553
L47.3754 -39.0025
L47.1628 -39.149
L46.9499 -39.2948
L46.7366 -39.4398
L46.523 -39.5842
L46.3089 -39.728
L46.0944 -39.8712
L45.6638 -40.0138
L45.4476 -40.1559
L45.2308 -40.2975
L45.0134 -40.4386
L44.7952 -40.5793
L44.5762 -40.7195
L44.3564 -40.8594
L44.1358 -40.9989
L43.9142 -41.1381
L43.6917 -41.2769
L43.4683 -41.4155
L43.2437 -41.5539
L43.0181 -41.692
L42.7914 -41.8299
L42.5634 -41.9676
L42.3342 -42.1052
L42.1038 -42.2427
L41.872 -42.3801
L41.6388 -42.5173
L41.4042 -42.6545
L41.1682 -42.7917
L40.9306 -42.9289
L40.6914 -43.066
L40.4506 -43.2032
L40.2082 -43.3405
L39.964 -43.4778
L39.7181 -43.6152
L39.4704 -43.7526
L39.2208 -43.8902
L38.9693 -44.028
L38.7159 -44.1658
L38.4605 -44.3039
L38.2031 -44.4421
L37.9436 -44.5805
L37.682 -44.7192
L37.4183 -44.858
L37.1525 -44.9971
L36.8844 -45.1364
L36.6141 -45.276
L36.3415 -45.4158
L36.0667 -45.5559
L35.7896 -45.6963
L35.5102 -45.8369
L35.2285 -45.9779
L34.9445 -46.1192
L34.6582 -46.2607
L34.3695 -46.4026
L34.0786 -46.5448
L33.7855 -46.6874
L33.4901 -46.8302
L33.1925 -46.9734
L32.8928 -47.117
L32.591 -47.2609
L32.2872 -47.4052
L31.9814 -47.5499
L31.6739 -47.6949
L31.3646 -47.8404
L31.0538 -47.9863
L30.7415 -48.1327
L30.4279 -48.2795
L30.1133 -48.4269
L29.7977 -48.5749
L29.4815 -48.7234
L29.1649 -48.8727
L28.8481 -49.0227
L28.5316 -49.1735
L28.2155 -49.3252
L27.9003 -49.4779
L27.5864 -49.6318
L27.2743 -49.787
L26.9644 -49.9436
L26.6572 -50.1019
L26.3533 -50.2621
L26.0534 -50.4243
L25.7581 -50.5889
L25.4681 -50.7562
L25.1841 -50.9264
L24.9071 -51.1
L24.6377 -51.2773
L24.377 -51.4587
L24.1259 -51.6447
L23.8853 -51.8357
L23.6561 -52.0322
L23.4395 -52.2346
L23.2364 -52.4436
L23.0477 -52.6594
L22.8744 -52.8826
L22.7174 -53.1134
L22.5773 -53.3523
L22.455 -53.5995
L22.351 -53.855
L22.2657 -54.1191
L22.1996 -54.3915
L22.1527 -54.6722
L22.1252 -54.9609
L22.117 -55.2571
L22.128 -55.5605
L22.1578 -55.8704
L22.2062 -56.1863
L22.2726 -56.5074
L22.3567 -56.833
L22.4578 -57.1623
L22.5753 -57.4947
L22.7088 -57.8292
L22.8575 -58.1652
L23.0209 -58.502
L23.1983 -58.8388
L23.3892 -59.1749
L23.593 -59.5097
L23.8091 -59.8426
L24.0368 -60.1731
L24.2758 -60.5005
L24.5254 -60.8244
L24.7852 -61.1443
L25.0546 -61.4599
L25.3332 -61.7707
L25.6206 -62.0763
L26.0284 -62.3766
L26.4959 -62.6986
L26.9662 -62.8686
L27.4393 -63.0304
L27.9151 -63.1839
L28.3933 -63.3292
L28.8738 -63.4661
L29.3565 -63.5947
L29.8412 -63.7149
L30.3277 -63.8266
L30.816 -63.9298
L31.3059 -64.0246
L31.7972 -64.1108
L32.2898 -64.1884
L32.7836 -64.2575
L33.2783 -64.3179
L33.7738 -64.3697
L34.27 -64.4129
L34.7668 -64.4474
L35.2639 -64.4733
L35.7612 -64.4905
L36.2586 -64.499
L36.756 -64.4988
L37.2531 -64.49
L37.7498 -64.4724
L38.246 -64.4462
L38.7415 -64.4114
L39.2361 -64.3678
L39.7298 -64.3157
L40.2224 -64.2549
L40.7136 -64.1855
L41.2035 -64.1075
L41.6917 -64.021
L42.1782 -63.9259
L42.6628 -63.8223
L43.1454 -63.7102
L43.6259 -63.5897
L44.1039 -63.4608
L44.5796 -63.3235
L45.0526 -63.1779
L45.5228 -63.0241
L45.9902 -62.862
L46.4545 -62.6917
L46.9156 -62.5133
L47.3734 -62.3268
L47.8278 -62.1323
L48.2785 -61.9298
L48.7255 -61.7194
L49.1686 -61.5012
L49.6077 -61.2752
L50.0427 -61.0416
L50.4734 -60.8003
L50.8997 -60.5514
L51.3214 -60.2951
L51.7385 -60.0313
L52.1508 -59.7603
L52.5581 -59.482
L52.9604 -59.1965
L53.3576 -58.904
L53.7494 -58.6045
L54.1359 -58.2982
L54.5168 -57.985
L54.8921 -57.6651
L55.2616 -57.3387
L55.6253 -57.0057
L55.983 -56.6663
L56.3346 -56.3207
L56.68 -55.9688
L57.0191 -55.6109
L57.3518 -55.247
L57.678 -54.8772
L57.9976 -54.5017
L58.3105 -54.1206
L58.6166 -53.7339
L58.9158 -53.3418
L59.2081 -52.9445
L59.4932 -52.542
L59.7712 -52.1344
L60.042 -51.7219
L60.3054 -51.3047
L60.5615 -50.8828
L60.81 -50.4563
L61.051 -50.0254
L61.2844 -49.5903
L61.5101 -49.151
L61.7279 -48.7078
L61.938 -48.2606
L62.1402 -47.8097
L62.3344 -47.3553
L62.5205 -46.8973
L62.6986 -46.4361
L62.8686 -45.9716
L63.0304 -45.5041
L63.1839 -45.0338
L63.3292 -44.5607
L63.4661 -44.0849
L63.5947 -43.6067
L63.7149 -43.1262
L63.8266 -42.6435
L63.9298 -42.1588
L64.0246 -41.6723
L64.1108 -41.184
L64.1884 -40.6941
L64.2575 -40.2028
L64.3179 -39.7102
L64.3697 -39.2164
L64.4129 -38.7217
L64.4474 -38.2262
L64.4733 -37.73
L64.4905 -37.2332
L64.499 -36.7361
L64.4988 -36.2388
L64.49 -35.7414
L64.4724 -35.244
L64.4462 -34.7469
L64.4114 -34.2502
L64.3678 -33.754
L64.3157 -33.2585
L64.2549 -32.7639
L64.1855 -32.2702
L64.1075 -31.7776
L64.021 -31.2864
L63.9259 -30.7965
L63.8223 -30.3083
L63.7102 -29.8218
L63.5897 -29.3372
L63.4608 -28.8546
L63.3235 -28.3741
L63.1779 -27.8961
L63.0241 -27.4204
z
" id="C0_1_0e1bd810b1"/>
     <path d="
M46.0741 -9.3545
L45.6578 -9.37763
L45.244 -9.40571
L44.8329 -9.4387
L44.4247 -9.47657
L44.0197 -9.51926
L43.618 -9.56668
L43.2198 -9.61877
L42.8252 -9.67541
L42.4345 -9.73651
L42.0476 -9.80195
L41.6647 -9.87163
L41.2858 -9.94542
L40.911 -10.0232
L40.5404 -10.1049
L40.1739 -10.1903
L39.8116 -10.2793
L39.4534 -10.3719
L39.0995 -10.4678
L38.7496 -10.5671
L38.404 -10.6695
L38.0624 -10.775
L37.725 -10.8835
L37.3916 -10.9948
L37.0621 -11.1089
L36.7367 -11.2257
L36.4151 -11.3451
L36.0974 -11.4669
L35.7835 -11.5913
L35.4733 -11.7179
L35.1667 -11.8469
L34.8638 -11.9781
L34.5644 -12.1115
L34.2685 -12.2469
L33.9759 -12.3844
L33.6867 -12.5239
L33.4008 -12.6654
L33.118 -12.8087
L32.8384 -12.9539
L32.5618 -13.101
L32.2882 -13.2499
L32.0175 -13.4005
L31.7496 -13.5529
L31.4845 -13.707
L31.2222 -13.8628
L30.9624 -14.0203
L30.7053 -14.1795
L30.4506 -14.3403
L30.1984 -14.5029
L29.9486 -14.667
L29.7011 -14.8328
L29.4559 -15.0003
L29.2128 -15.1694
L28.9719 -15.3402
L28.7331 -15.5127
L28.4963 -15.6868
L28.2615 -15.8626
L28.0286 -16.0401
L27.7975 -16.2194
L27.5683 -16.4003
L27.3408 -16.5831
L27.115 -16.7676
L26.8909 -16.9539
L26.6685 -17.142
L26.4476 -17.332
L26.2282 -17.5239
L26.0103 -17.7177
L25.7939 -17.9134
L25.5788 -18.1111
L25.3652 -18.3109
L25.1529 -18.5127
L24.9419 -18.7166
L24.7321 -18.9226
L24.5236 -19.1308
L24.3164 -19.3413
L24.1102 -19.554
L23.9053 -19.769
L23.7015 -19.9864
L23.4987 -20.2062
L23.2971 -20.4285
L23.0965 -20.6533
L22.897 -20.8807
L22.6985 -21.1106
L22.5011 -21.3433
L22.3046 -21.5787
L22.1092 -21.8169
L21.9147 -22.058
L21.7212 -22.3019
L21.5287 -22.5489
L21.3372 -22.7989
L21.1467 -23.0519
L20.9571 -23.3081
L20.7686 -23.5676
L20.581 -23.8303
L20.3945 -24.0963
L20.2089 -24.3658
L20.0245 -24.6386
L19.841 -24.915
L19.6587 -25.195
L19.4775 -25.4786
L19.2974 -25.7659
L19.1184 -26.0569
L18.9407 -26.3517
L18.7642 -26.6504
L18.589 -26.9529
L18.415 -27.2593
L18.2425 -27.5697
L18.0713 -27.8841
L17.9016 -28.2025
L17.7334 -28.5249
L17.5667 -28.8513
L17.4016 -29.1818
L17.2382 -29.5164
L17.0765 -29.855
L16.9166 -30.1976
L16.7586 -30.5443
L16.6024 -30.8948
L16.4482 -31.2493
L16.296 -31.6076
L16.1458 -31.9697
L15.9978 -32.3353
L15.8519 -32.7046
L15.7082 -33.0772
L15.5667 -33.453
L15.4274 -33.8319
L15.2905 -34.2136
L15.1557 -34.5979
L15.0233 -34.9846
L14.893 -35.3734
L14.7649 -35.7638
L14.639 -36.1557
L14.515 -36.5486
L14.3929 -36.942
L14.2725 -37.3356
L14.1537 -37.7287
L14.0363 -38.1208
L13.9199 -38.5114
L13.8043 -38.8997
L13.6891 -39.2851
L13.574 -39.6668
L13.4584 -40.0441
L13.3421 -40.4161
L13.2243 -40.782
L13.1046 -41.1408
L12.9824 -41.4916
L12.857 -41.8335
L12.7278 -42.1656
L12.5942 -42.4868
L12.4556 -42.7964
L12.3114 -43.0934
L12.1609 -43.377
L12.0038 -43.6465
L11.8396 -43.9013
L11.668 -44.1408
L11.4888 -44.3646
L11.3019 -44.5724
L11.1073 -44.7639
L10.9051 -44.9392
L10.6955 -45.0983
L10.4788 -45.2412
L10.2555 -45.3683
L10.026 -45.4797
L9.7907 -45.5759
L9.5503 -45.6572
L9.05515 -45.724
L8.8972 -45.2858
L8.7475 -44.8141
L8.6061 -44.3397
L8.47305 -43.8628
L8.34838 -43.3836
L8.23213 -42.902
L8.12435 -42.4184
L8.02505 -41.9328
L7.93428 -41.4454
L7.85205 -40.9563
L7.7784 -40.4658
L7.71335 -39.9738
L7.65691 -39.4807
L7.6091 -38.9865
L7.56995 -38.4914
L7.53945 -37.9955
L7.51762 -37.499
L7.50447 -37.0021
L7.5 -36.5049
L7.50421 -36.0075
L7.5171 -35.5101
L7.53867 -35.0128
L7.5689 -34.5159
L7.6078 -34.0194
L7.65535 -33.5235
L7.71153 -33.0284
L7.77632 -32.5341
L7.84971 -32.041
L7.93168 -31.549
L8.0222 -31.0584
L8.12124 -30.5693
L8.22877 -30.0818
L8.34477 -29.5962
L8.46918 -29.1125
L8.60198 -28.6309
L8.74313 -28.1515
L8.89258 -27.6746
L9.05029 -27.2001
L9.21621 -26.7284
L9.39028 -26.2594
L9.57246 -25.7935
L9.76269 -25.3306
L9.96092 -24.871
L10.1671 -24.4148
L10.3811 -23.9622
L10.6029 -23.5131
L10.8325 -23.0679
L11.0697 -22.6267
L11.3145 -22.1895
L11.5669 -21.7565
L11.8267 -21.3278
L12.0938 -20.9036
L12.3683 -20.4841
L12.6499 -20.0692
L12.9386 -19.6592
L13.2344 -19.2542
L13.5371 -18.8542
L13.8466 -18.4595
L14.1629 -18.0702
L14.4859 -17.6863
L14.8154 -17.308
L15.1513 -16.9353
L15.4936 -16.5685
L15.8422 -16.2076
L16.1969 -15.8527
L16.5576 -15.504
L16.9242 -15.1615
L17.2967 -14.8254
L17.6748 -14.4957
L18.0586 -14.1725
L18.4478 -13.856
L18.8423 -13.5463
L19.2421 -13.2434
L19.647 -12.9474
L20.0568 -12.6585
L20.4715 -12.3766
L20.891 -12.102
L21.315 -11.8346
L21.7435 -11.5746
L22.1764 -11.322
L22.6135 -11.077
L23.0546 -10.8395
L23.4997 -10.6097
L23.9486 -10.3876
L24.4012 -10.1734
L24.8573 -9.96699
L25.3168 -9.76853
L25.7795 -9.57806
L26.2454 -9.39564
L26.7142 -9.22132
L27.1859 -9.05515
L27.6603 -8.8972
L28.1372 -8.7475
L28.6164 -8.6061
L29.098 -8.47305
L29.5816 -8.34838
L30.0672 -8.23213
L30.5546 -8.12435
L31.0437 -8.02505
L31.5342 -7.93428
L32.0262 -7.85205
L32.5193 -7.7784
L33.0135 -7.71335
L33.5086 -7.65691
L34.0045 -7.6091
L34.501 -7.56995
L34.9979 -7.53945
L35.4951 -7.51762
L35.9925 -7.50447
L36.4899 -7.5
L36.9872 -7.50421
L37.4841 -7.5171
L37.9806 -7.53867
L38.4765 -7.5689
L38.9716 -7.6078
L39.4659 -7.65535
L39.959 -7.71153
L40.451 -7.77632
L40.9416 -7.84971
L41.4307 -7.93168
L41.9182 -8.0222
L42.4038 -8.12124
L42.8875 -8.22877
L43.3691 -8.34477
L43.8485 -8.46918
L44.3254 -8.60198
L44.7999 -8.74313
L45.2716 -8.89258
z
" id="C0_2_6cd62800bf"/>
    </defs>
    <g clip-path="url(#p1bffca34e9)">
     <use style="fill:#ffffff;stroke:#000000;stroke-width:2.0;" x="0.0" xlink:href="#C0_0_a811fe30f3" y="72.0"/>
    </g>
    <g clip-path="url(#p1bffca34e9)">
     <use style="fill:#ff0000;stroke:#000000;stroke-width:2.0;" x="0.0" xlink:href="#C0_1_0e1bd810b1" y="72.0"/>
    </g>
    <g clip-path="url(#p1bffca34e9)">
     <use style="fill:#ff0000;stroke:#000000;stroke-width:2.0;" x="0.0" xlink:href="#C0_2_6cd62800bf" y="72.0"/>
    </g>
   </g>
  </g>
 </g>
 <defs>
  <clipPath id="p1bffca34e9">
   <rect height="72.0" width="72.0" x="0.0" y="0.0"/>
  </clipPath>
 </defs>
</svg>
