<?xml version="1.0" encoding="utf-8" standalone="no"?>
<!DOCTYPE svg PUBLIC "-//W3C//DTD SVG 1.1//EN"
  "http://www.w3.org/Graphics/SVG/1.1/DTD/svg11.dtd">
<!-- Created with matplotlib (http://matplotlib.org/) -->
<svg height="72pt" version="1.1" viewBox="0 0 72 72" width="72pt" xmlns="http://www.w3.org/2000/svg" xmlns:xlink="http://www.w3.org/1999/xlink">
 <defs>
  <style type="text/css">
*{stroke-linecap:butt;stroke-linejoin:round;}
  </style>
 </defs>
 <g id="figure_1">
  <g id="patch_1">
   <path d="
M0 72
L72 72
L72 0
L0 0
z
" style="fill:none;"/>
  </g>
  <g id="axes_1">
   <g id="PatchCollection_1">
    <defs>
     <path d="
M36 -7.5
C43.5583 -7.5 50.808 -10.5029 56.1525 -15.8475
C61.4971 -21.192 64.5 -28.4417 64.5 -36
C64.5 -43.5583 61.4971 -50.808 56.1525 -56.1525
C50.808 -61.4971 43.5583 -64.5 36 -64.5
C28.4417 -64.5 21.192 -61.4971 15.8475 -56.1525
C10.5029 -50.808 7.5 -43.5583 7.5 -36
C7.5 -28.4417 10.5029 -21.192 15.8475 -15.8475
C21.192 -10.5029 28.4417 -7.5 36 -7.5
z
" id="C0_0_a811fe30f3"/>
     <path d="
M43.0776 -29.8644
L42.9022 -29.6782
L42.726 -29.4926
L42.5489 -29.3077
L42.3708 -29.1233
L42.1917 -28.9396
L42.0116 -28.7563
L41.8303 -28.5735
L41.648 -28.3911
L41.4644 -28.2092
L41.2796 -28.0275
L41.0934 -27.8462
L40.9059 -27.6651
L40.717 -27.4843
L40.5265 -27.3036
L40.3346 -27.1231
L40.141 -26.9428
L39.9458 -26.7625
L39.7488 -26.5823
L39.55 -26.402
L39.3494 -26.2218
L39.1468 -26.0416
L38.9423 -25.8613
L38.7356 -25.6809
L38.5269 -25.5003
L38.3159 -25.3197
L38.1026 -25.1389
L37.887 -24.9579
L37.6689 -24.7767
L37.4483 -24.5953
L37.2251 -24.4137
L36.9993 -24.2318
L36.7707 -24.0497
L36.5392 -23.8673
L36.3049 -23.6847
L36.0675 -23.5018
L35.827 -23.3187
L35.5834 -23.1353
L35.3365 -22.9517
L35.0862 -22.7678
L34.8325 -22.5837
L34.5753 -22.3995
L34.3145 -22.2151
L34.0499 -22.0305
L33.7816 -21.8458
L33.5094 -21.6611
L33.2333 -21.4763
L32.9531 -21.2916
L32.6688 -21.107
L32.3803 -20.9225
L32.0875 -20.7383
L31.7903 -20.5543
L31.4887 -20.3708
L31.1826 -20.1877
L30.872 -20.0053
L30.5567 -19.8235
L30.2367 -19.6426
L29.912 -19.4626
L29.5825 -19.2837
L29.2481 -19.1061
L28.9089 -18.9299
L28.5649 -18.7553
L28.2159 -18.5824
L27.8621 -18.4115
L27.5033 -18.2427
L27.1397 -18.0764
L26.7712 -17.9126
L26.3979 -17.7518
L26.0199 -17.594
L25.6371 -17.4397
L25.2497 -17.289
L24.8578 -17.1423
L24.4614 -16.9999
L24.0607 -16.8621
L23.6559 -16.7293
L23.2471 -16.6019
L22.8344 -16.4802
L22.418 -16.3647
L21.9982 -16.2558
L21.5752 -16.1542
L21.1493 -16.0603
L20.7207 -15.9749
L20.2899 -15.8991
L19.8572 -15.8339
L19.4231 -15.7811
L18.9884 -15.7434
L18.5542 -15.7249
L18.1221 -15.7332
L17.6952 -15.7814
L17.2789 -15.8927
L16.8811 -16.0975
L16.5089 -16.4115
L16.1631 -16.8166
L15.8403 -17.281
L15.5376 -17.7808
L15.2529 -18.302
L14.985 -18.8367
L14.7333 -19.3804
L14.4972 -19.93
L14.2764 -20.4835
L14.0706 -21.0393
L13.8794 -21.5963
L13.7025 -22.1534
L13.5397 -22.7099
L13.3906 -23.2649
L13.2549 -23.8179
L13.1322 -24.3682
L13.0222 -24.9153
L12.9246 -25.4589
L12.8389 -25.9983
L12.7649 -26.5333
L12.702 -27.0635
L12.65 -27.5886
L12.6084 -28.1083
L12.5769 -28.6224
L12.5551 -29.1307
L12.5426 -29.6329
L12.539 -30.129
L12.544 -30.6187
L12.5572 -31.1021
L12.5782 -31.5789
L12.6068 -32.0492
L12.6425 -32.5128
L12.6851 -32.9698
L12.7342 -33.4202
L12.7896 -33.8639
L12.8509 -34.301
L12.9179 -34.7315
L12.9903 -35.1555
L13.0678 -35.573
L13.1503 -35.984
L13.2374 -36.3887
L13.3289 -36.7871
L13.4247 -37.1793
L13.5245 -37.5654
L13.6282 -37.9454
L13.7355 -38.3196
L13.8463 -38.688
L13.9604 -39.0507
L14.0777 -39.4077
L14.198 -39.7594
L14.3213 -40.1056
L14.4473 -40.4466
L14.576 -40.7825
L14.7072 -41.1133
L14.8409 -41.4393
L14.9769 -41.7604
L15.1152 -42.0769
L15.2557 -42.3889
L15.3983 -42.6963
L15.543 -42.9995
L15.6896 -43.2984
L15.8382 -43.5932
L15.9887 -43.884
L16.141 -44.1709
L16.2951 -44.454
L16.451 -44.7333
L16.6085 -45.0091
L16.7678 -45.2814
L16.9288 -45.5503
L17.0914 -45.8158
L17.2557 -46.0782
L17.4216 -46.3374
L17.5892 -46.5935
L17.7583 -46.8467
L17.9291 -47.0971
L18.1015 -47.3446
L18.2756 -47.5894
L18.4513 -47.8315
L18.6286 -48.0711
L18.8076 -48.3082
L18.9883 -48.5429
L19.1707 -48.7752
L19.3549 -49.0053
L19.5408 -49.2331
L19.7285 -49.4587
L19.9179 -49.6822
L20.1093 -49.9037
L20.3025 -50.1232
L20.4977 -50.3407
L20.6948 -50.5563
L20.8939 -50.7701
L21.0951 -50.9821
L21.2984 -51.1924
L21.5038 -51.4009
L21.7114 -51.6078
L21.9213 -51.813
L22.1335 -52.0166
L22.3481 -52.2187
L22.5651 -52.4192
L22.7846 -52.6182
L23.0067 -52.8157
L23.2314 -53.0117
L23.4588 -53.2063
L23.689 -53.3995
L23.9221 -53.5913
L24.1581 -53.7816
L24.3971 -53.9706
L24.6393 -54.1582
L24.8846 -54.3444
L25.1332 -54.5292
L25.3851 -54.7126
L25.6406 -54.8946
L25.8996 -55.0752
L26.1622 -55.2544
L26.4286 -55.4321
L26.6989 -55.6083
L26.9731 -55.783
L27.2514 -55.9562
L27.5339 -56.1279
L27.8207 -56.2979
L28.1119 -56.4662
L28.4076 -56.6328
L28.708 -56.7976
L29.0131 -56.9606
L29.3232 -57.1216
L29.6382 -57.2806
L29.9584 -57.4376
L30.2838 -57.5923
L30.6146 -57.7448
L30.9509 -57.8948
L31.2929 -58.0424
L31.6406 -58.1872
L31.9942 -58.3293
L32.3539 -58.4685
L32.7196 -58.6046
L33.0916 -58.7374
L33.47 -58.8667
L33.8549 -58.9925
L34.2464 -59.1144
L34.6445 -59.2323
L35.0495 -59.3459
L35.4613 -59.455
L35.8802 -59.5594
L36.3061 -59.6588
L36.7391 -59.7529
L37.1793 -59.8415
L37.6267 -59.9242
L38.0813 -60.0007
L38.5433 -60.0707
L39.0125 -60.1339
L39.4889 -60.1899
L39.9726 -60.2383
L40.4634 -60.2789
L40.9614 -60.3111
L41.4663 -60.3347
L41.978 -60.3492
L42.4965 -60.3542
L43.0214 -60.3493
L43.5527 -60.3341
L44.09 -60.3081
L44.6331 -60.271
L45.1816 -60.2223
L45.7353 -60.1616
L46.2936 -60.0884
L46.8561 -60.0024
L47.4224 -59.9032
L47.9919 -59.7904
L48.5639 -59.6635
L49.1377 -59.5222
L49.7126 -59.3661
L50.2874 -59.1948
L50.8611 -59.008
L51.432 -58.8051
L51.9983 -58.5858
L52.5568 -58.3492
L53.1031 -58.0945
L53.6293 -57.8202
L54.1217 -57.5234
L54.5567 -57.1999
L54.9026 -56.8449
L55.1415 -56.4587
L55.2884 -56.0489
L55.3729 -55.6253
L55.4176 -55.1944
L55.4356 -54.7599
L55.434 -54.324
L55.4171 -53.8879
L55.3874 -53.4524
L55.3466 -53.0182
L55.296 -52.5858
L55.2363 -52.1555
L55.1684 -51.7277
L55.0929 -51.3026
L55.0103 -50.8807
L54.921 -50.462
L54.8255 -50.0467
L54.7241 -49.6352
L54.6173 -49.2276
L54.5054 -48.8239
L54.3888 -48.4244
L54.2676 -48.0292
L54.1424 -47.6384
L54.0132 -47.252
L53.8805 -46.8702
L53.7444 -46.4931
L53.6052 -46.1206
L53.4632 -45.7528
L53.3186 -45.3897
L53.1715 -45.0314
L53.0223 -44.6779
L52.871 -44.3291
L52.7179 -43.985
L52.5631 -43.6457
L52.4068 -43.311
L52.2492 -42.981
L52.0903 -42.6556
L51.9303 -42.3348
L51.7693 -42.0184
L51.6075 -41.7066
L51.4449 -41.399
L51.2816 -41.0958
L51.1178 -40.7969
L50.9534 -40.5021
L50.7886 -40.2114
L50.6235 -39.9247
L50.4581 -39.642
L50.2924 -39.363
L50.1265 -39.0879
L49.9604 -38.8164
L49.7943 -38.5486
L49.628 -38.2842
L49.4617 -38.0233
L49.2953 -37.7657
L49.129 -37.5113
L48.9626 -37.2601
L48.7963 -37.012
L48.6299 -36.7669
L48.4636 -36.5248
L48.2974 -36.2854
L48.1311 -36.0488
L47.9649 -35.8148
L47.7987 -35.5835
L47.6326 -35.3546
L47.4664 -35.1282
L47.3003 -34.9042
L47.1341 -34.6824
L46.9679 -34.4628
L46.8016 -34.2453
L46.6353 -34.0299
L46.4688 -33.8165
L46.3023 -33.6049
L46.1356 -33.3953
L45.9688 -33.1874
L45.8017 -32.9812
L45.6345 -32.7766
L45.467 -32.5737
L45.2993 -32.3722
L45.1312 -32.1722
L44.9628 -31.9736
L44.794 -31.7763
L44.6248 -31.5803
L44.4552 -31.3855
L44.2851 -31.1919
L44.1144 -30.9994
L43.9433 -30.8079
L43.7715 -30.6174
L43.5991 -30.4279
L43.426 -30.2393
z
" id="C0_1_573015f357"/>
    </defs>
    <g clip-path="url(#p1bffca34e9)">
     <use style="fill:#ffffff;stroke:#000000;stroke-width:2.0;" x="0.0" xlink:href="#C0_0_a811fe30f3" y="72.0"/>
    </g>
    <g clip-path="url(#p1bffca34e9)">
     <use style="fill:#ff0000;stroke:#000000;stroke-width:2.0;" x="0.0" xlink:href="#C0_1_573015f357" y="72.0"/>
    </g>
   </g>
  </g>
 </g>
 <defs>
  <clipPath id="p1bffca34e9">
   <rect height="72.0" width="72.0" x="0.0" y="0.0"/>
  </clipPath>
 </defs>
</svg>
