<?xml version="1.0" encoding="utf-8" standalone="no"?>
<!DOCTYPE svg PUBLIC "-//W3C//DTD SVG 1.1//EN"
  "http://www.w3.org/Graphics/SVG/1.1/DTD/svg11.dtd">
<!-- Created with matplotlib (http://matplotlib.org/) -->
<svg height="72pt" version="1.1" viewBox="0 0 72 72" width="72pt" xmlns="http://www.w3.org/2000/svg" xmlns:xlink="http://www.w3.org/1999/xlink">
 <defs>
  <style type="text/css">
*{stroke-linecap:butt;stroke-linejoin:round;}
  </style>
 </defs>
 <g id="figure_1">
  <g id="patch_1">
   <path d="
M0 72
L72 72
L72 0
L0 0
z
" style="fill:none;"/>
  </g>
  <g id="axes_1">
   <g id="PatchCollection_1">
    <defs>
     <path d="
M36 -7.5
C43.5583 -7.5 50.808 -10.5029 56.1525 -15.8475
C61.4971 -21.192 64.5 -28.4417 64.5 -36
C64.5 -43.5583 61.4971 -50.808 56.1525 -56.1525
C50.808 -61.4971 43.5583 -64.5 36 -64.5
C28.4417 -64.5 21.192 -61.4971 15.8475 -56.1525
C10.5029 -50.808 7.5 -43.5583 7.5 -36
C7.5 -28.4417 10.5029 -21.192 15.8475 -15.8475
C21.192 -10.5029 28.4417 -7.5 36 -7.5
z
" id="C0_0_a811fe30f3"/>
     <path d="
M49.6507 -60.8982
L49.3683 -60.8002
L49.1083 -60.681
L48.871 -60.5411
L48.6558 -60.3813
L48.4622 -60.2026
L48.2892 -60.0059
L48.1357 -59.7924
L48.0004 -59.5633
L47.8817 -59.3198
L47.7782 -59.0632
L47.6882 -58.7946
L47.6104 -58.5152
L47.5433 -58.2261
L47.4854 -57.9284
L47.4357 -57.6231
L47.3928 -57.311
L47.3558 -56.993
L47.3238 -56.6699
L47.2958 -56.3424
L47.2713 -56.0113
L47.2494 -55.677
L47.2297 -55.3401
L47.2116 -55.0012
L47.1947 -54.6608
L47.1787 -54.3191
L47.1632 -53.9767
L47.1479 -53.6339
L47.1327 -53.2909
L47.1172 -52.9482
L47.1014 -52.6058
L47.085 -52.2642
L47.0681 -51.9235
L47.0504 -51.5838
L47.0319 -51.2454
L47.0125 -50.9085
L46.9922 -50.5731
L46.971 -50.2393
L46.9488 -49.9074
L46.9256 -49.5773
L46.9013 -49.2491
L46.876 -48.923
L46.8497 -48.599
L46.8224 -48.277
L46.7941 -47.9573
L46.7648 -47.6397
L46.7344 -47.3244
L46.7031 -47.0112
L46.6708 -46.7003
L46.6376 -46.3917
L46.6034 -46.0852
L46.5683 -45.781
L46.5323 -45.479
L46.4955 -45.1792
L46.4577 -44.8815
L46.4192 -44.586
L46.3798 -44.2926
L46.3395 -44.0012
L46.2985 -43.7119
L46.2567 -43.4246
L46.2141 -43.1392
L46.1708 -42.8557
L46.1267 -42.5741
L46.0819 -42.2943
L46.0364 -42.0163
L45.9902 -41.7401
L45.9432 -41.4654
L45.8956 -41.1924
L45.8473 -40.921
L45.7983 -40.6511
L45.7486 -40.3827
L45.6983 -40.1156
L45.6473 -39.8499
L45.5956 -39.5855
L45.5433 -39.3224
L45.4903 -39.0604
L45.4366 -38.7996
L45.3823 -38.5398
L45.3273 -38.2811
L45.2716 -38.0233
L45.2153 -37.7664
L45.1583 -37.5104
L45.1006 -37.2551
L45.0422 -37.0006
L44.9831 -36.7468
L44.9233 -36.4935
L44.8628 -36.2409
L44.8016 -35.9887
L44.7397 -35.737
L44.677 -35.4857
L44.6136 -35.2348
L44.4844 -34.9841
L44.4186 -34.7337
L44.3521 -34.4834
L44.2847 -34.2332
L44.2164 -33.9831
L44.1473 -33.733
L44.0774 -33.4829
L44.0065 -33.2327
L43.9348 -32.9823
L43.8621 -32.7317
L43.7884 -32.4808
L43.7138 -32.2296
L43.6382 -31.978
L43.5616 -31.7261
L43.4839 -31.4736
L43.4052 -31.2206
L43.3254 -30.967
L43.2444 -30.7128
L43.1624 -30.4579
L43.0791 -30.2022
L42.9947 -29.9458
L42.909 -29.6886
L42.8221 -29.4304
L42.7339 -29.1713
L42.6444 -28.9112
L42.5535 -28.6501
L42.4613 -28.388
L42.3677 -28.1247
L42.2726 -27.8602
L42.176 -27.5945
L42.078 -27.3276
L41.9784 -27.0594
L41.8773 -26.7898
L41.7745 -26.5189
L41.6701 -26.2466
L41.5641 -25.9728
L41.4563 -25.6976
L41.3469 -25.4208
L41.2357 -25.1426
L41.1226 -24.8627
L41.0078 -24.5814
L40.8912 -24.2984
L40.7726 -24.0138
L40.6522 -23.7276
L40.5299 -23.4397
L40.4057 -23.1503
L40.2795 -22.8592
L40.1514 -22.5665
L40.0213 -22.2721
L39.8893 -21.9762
L39.7554 -21.6786
L39.6195 -21.3796
L39.4817 -21.0789
L39.342 -20.7768
L39.2005 -20.4733
L39.0572 -20.1684
L38.9122 -19.8621
L38.7655 -19.5546
L38.6173 -19.2459
L38.4676 -18.9361
L38.3166 -18.6253
L38.1644 -18.3135
L38.0113 -18.001
L37.8573 -17.6877
L37.7028 -17.374
L37.548 -17.0597
L37.3932 -16.7453
L37.2389 -16.4307
L37.0853 -16.1161
L36.9329 -15.8018
L36.7823 -15.4878
L36.634 -15.1745
L36.4887 -14.8619
L36.3472 -14.5503
L36.2103 -14.24
L36.0789 -13.9311
L35.954 -13.6238
L35.8369 -13.3185
L35.7287 -13.0153
L35.6309 -12.7145
L35.545 -12.4163
L35.4727 -12.1211
L35.4155 -11.8291
L35.3754 -11.5406
L35.3541 -11.2559
L35.3535 -10.9753
L35.3753 -10.6992
L35.4213 -10.428
L35.4928 -10.1619
L35.5911 -9.90151
L35.7172 -9.64718
L35.8717 -9.39941
L36.0547 -9.15868
L36.2662 -8.92552
L36.5057 -8.70044
L36.7724 -8.48397
L37.0652 -8.27664
L37.3829 -8.07897
L37.724 -7.89143
L38.2301 -7.71451
L38.7256 -7.58738
L39.2203 -7.63063
L39.714 -7.68252
L40.2066 -7.74304
L40.6979 -7.81216
L41.1878 -7.88987
L41.6761 -7.97614
L42.1626 -8.07094
L42.6473 -8.17426
L43.13 -8.28605
L43.6105 -8.40628
L44.0887 -8.53492
L44.5644 -8.67193
L45.0375 -8.81725
L45.5078 -8.97086
L45.9753 -9.13271
L46.4397 -9.30273
L46.9009 -9.48089
L47.3588 -9.66713
L47.8133 -9.86138
L48.2641 -10.0636
L48.7112 -10.2737
L49.1545 -10.4917
L49.5937 -10.7174
L50.0288 -10.9508
L50.4596 -11.1919
L50.8861 -11.4405
L51.308 -11.6966
L51.7252 -11.9601
L52.1376 -12.2309
L52.5451 -12.509
L52.9476 -12.7942
L53.3449 -13.0865
L53.7369 -13.3858
L54.1236 -13.6919
L54.5047 -14.0049
L54.8802 -14.3245
L55.2499 -14.6508
L55.6137 -14.9835
L55.9716 -15.3227
L56.3234 -15.6681
L56.669 -16.0198
L57.0083 -16.3775
L57.3412 -16.7412
L57.6677 -17.1108
L57.9875 -17.4861
L58.3006 -17.8671
L58.6069 -18.2536
L58.9063 -18.6455
L59.1988 -19.0427
L59.4842 -19.4451
L59.7624 -19.8525
L60.0334 -20.2648
L60.2971 -20.6819
L60.5534 -21.1037
L60.8022 -21.53
L61.0434 -21.9607
L61.277 -22.3957
L61.5029 -22.8348
L61.7211 -23.278
L61.9314 -23.725
L62.1338 -24.1758
L62.3283 -24.6301
L62.5147 -25.088
L62.693 -25.5491
L62.8633 -26.0134
L63.0253 -26.4808
L63.1791 -26.9511
L63.3246 -27.4241
L63.4619 -27.8998
L63.5907 -28.3779
L63.7111 -28.8583
L63.8231 -29.3409
L63.9267 -29.8256
L64.0217 -30.3121
L64.1081 -30.8004
L64.1861 -31.2902
L64.2554 -31.7815
L64.3161 -32.274
L64.3682 -32.7677
L64.4117 -33.2624
L64.4465 -33.7579
L64.4726 -34.2541
L64.4901 -34.7508
L64.4989 -35.2479
L64.499 -35.7453
L64.4904 -36.2427
L64.4731 -36.74
L64.4472 -37.2371
L64.4126 -37.7339
L64.3694 -38.2301
L64.3175 -38.7256
L64.257 -39.2203
L64.1878 -39.714
L64.1101 -40.2066
L64.0239 -40.6979
L63.9291 -41.1878
L63.8257 -41.6761
L63.7139 -42.1626
L63.5937 -42.6473
L63.4651 -43.13
L63.3281 -43.6105
L63.1827 -44.0887
L63.0291 -44.5644
L62.8673 -45.0375
L62.6973 -45.5078
L62.5191 -45.9753
L62.3329 -46.4397
L62.1386 -46.9009
L61.9364 -47.3588
L61.7263 -47.8133
L61.5083 -48.2641
L61.2826 -48.7112
L61.0492 -49.1545
L60.8081 -49.5937
L60.5595 -50.0288
L60.3034 -50.4596
L60.0399 -50.8861
L59.7691 -51.308
L59.491 -51.7252
L59.2058 -52.1376
L58.9135 -52.5451
L58.6142 -52.9476
L58.3081 -53.3449
L57.9951 -53.7369
L57.6755 -54.1236
L57.3492 -54.5047
L57.0165 -54.8802
L56.6773 -55.2499
L56.3319 -55.6137
L55.9802 -55.9716
L55.6225 -56.3234
L55.2588 -56.669
L54.8892 -57.0083
L54.5139 -57.3412
L54.1329 -57.6677
L53.7464 -57.9875
L53.3545 -58.3006
L52.9573 -58.6069
L52.5549 -58.9063
L52.1475 -59.1988
L51.7352 -59.4842
L51.3181 -59.7624
L50.8963 -60.0334
L50.47 -60.2971
z
" id="C0_1_85a6a356e1"/>
     <path d="
M33.9171 -64.3959
L33.5664 -64.1813
L33.2061 -63.9638
L32.8382 -63.743
L32.4641 -63.5188
L32.0855 -63.2909
L31.7037 -63.0591
L31.32 -62.8233
L30.9356 -62.5835
L30.5515 -62.3397
L30.1685 -62.0919
L29.7875 -61.8403
L29.4093 -61.5848
L29.0343 -61.3258
L28.6633 -61.0632
L28.2965 -60.7973
L27.9345 -60.5282
L27.5776 -60.2561
L27.2261 -59.9813
L26.8801 -59.7038
L26.54 -59.424
L26.2059 -59.142
L25.8779 -58.8579
L25.556 -58.572
L25.2405 -58.2845
L24.9312 -57.9955
L24.6283 -57.7052
L24.3317 -57.4137
L24.0414 -57.1212
L23.7574 -56.8279
L23.4796 -56.5339
L23.2081 -56.2393
L22.9426 -55.9442
L22.6832 -55.6488
L22.4298 -55.3531
L22.1823 -55.0572
L21.9405 -54.7613
L21.7045 -54.4654
L21.474 -54.1696
L21.2491 -53.8739
L21.0296 -53.5785
L20.8153 -53.2833
L20.6063 -52.9884
L20.4023 -52.6939
L20.2033 -52.3997
L20.0092 -52.106
L19.8198 -51.8126
L19.6352 -51.5198
L19.4551 -51.2274
L19.2794 -50.9354
L19.1081 -50.644
L18.9412 -50.353
L18.7783 -50.0625
L18.6196 -49.7725
L18.4649 -49.4829
L18.3141 -49.1938
L18.1671 -48.9051
L18.0239 -48.6168
L17.8844 -48.3289
L17.7484 -48.0414
L17.616 -47.7542
L17.487 -47.4674
L17.3614 -47.1808
L17.2391 -46.8945
L17.12 -46.6084
L17.0042 -46.3224
L16.8915 -46.0367
L16.7818 -45.751
L16.6752 -45.4654
L16.5716 -45.1798
L16.4709 -44.8942
L16.3731 -44.6085
L16.2781 -44.3228
L16.186 -44.0368
L16.0966 -43.7507
L16.0099 -43.4643
L15.9259 -43.1777
L15.8447 -42.8906
L15.766 -42.6032
L15.69 -42.3153
L15.6166 -42.027
L15.5458 -41.738
L15.4776 -41.4485
L15.4119 -41.1583
L15.3488 -40.8674
L15.2882 -40.5757
L15.2301 -40.2831
L15.1746 -39.9897
L15.1216 -39.6953
L15.0712 -39.4
L15.0233 -39.1035
L14.9779 -38.806
L14.9351 -38.5072
L14.8949 -38.2073
L14.8572 -37.906
L14.8222 -37.6034
L14.7898 -37.2994
L14.7601 -36.9939
L14.733 -36.6869
L14.7087 -36.3782
L14.6871 -36.068
L14.6683 -35.756
L14.6523 -35.4423
L14.6392 -35.1267
L14.6291 -34.8092
L14.6218 -34.4899
L14.6176 -34.1685
L14.6165 -33.8451
L14.6185 -33.5195
L14.6237 -33.1919
L14.6322 -32.862
L14.644 -32.5298
L14.6592 -32.1954
L14.6779 -31.8586
L14.7002 -31.5194
L14.7261 -31.1778
L14.7557 -30.8337
L14.7891 -30.4871
L14.8265 -30.138
L14.8678 -29.7863
L14.9133 -29.4321
L14.9629 -29.0752
L15.0169 -28.7157
L15.0752 -28.3536
L15.1381 -27.9889
L15.2056 -27.6215
L15.2779 -27.2515
L15.3549 -26.8789
L15.437 -26.5037
L15.524 -26.126
L15.6163 -25.7458
L15.7138 -25.3632
L15.8167 -24.9781
L15.9251 -24.5907
L16.039 -24.2011
L16.1587 -23.8094
L16.284 -23.4156
L16.4151 -23.02
L16.5522 -22.6225
L16.6951 -22.2234
L16.8439 -21.8229
L16.9987 -21.421
L17.1595 -21.0181
L17.3261 -20.6143
L17.4986 -20.2099
L17.6768 -19.8051
L17.8606 -19.4001
L18.0498 -18.9954
L18.2442 -18.591
L18.4435 -18.1875
L18.6474 -17.7851
L18.8555 -17.3842
L19.0673 -16.9851
L19.2821 -16.5883
L19.4995 -16.1942
L19.7185 -15.8032
L19.9383 -15.4157
L20.158 -15.0323
L20.3763 -14.6533
L20.5921 -14.2793
L20.8039 -13.9107
L21.0103 -13.5481
L21.2095 -13.192
L21.3998 -12.8427
L21.5793 -12.5008
L21.7461 -12.1668
L21.8983 -11.8411
L22.0339 -11.524
L21.6657 -11.2161
L21.238 -11.3671
L20.8148 -11.6211
L20.3962 -11.8824
L19.9823 -12.1511
L19.5734 -12.4271
L19.1694 -12.7102
L18.7706 -13.0004
L18.377 -13.2977
L17.9888 -13.6018
L17.606 -13.9128
L17.2289 -14.2305
L16.8575 -14.5548
L16.4919 -14.8857
L16.1323 -15.223
L15.7787 -15.5666
L15.4313 -15.9165
L15.0901 -16.2724
L14.7553 -16.6344
L14.427 -17.0023
L14.1052 -17.376
L13.7902 -17.7553
L13.4818 -18.1402
L13.1804 -18.5305
L12.8859 -18.9262
L12.5984 -19.327
L12.3181 -19.733
L12.045 -20.1439
L11.7791 -20.5596
L11.5207 -20.98
L11.2697 -21.405
L11.0262 -21.8345
L10.7904 -22.2682
L10.5622 -22.7062
L10.3418 -23.1482
L10.1292 -23.5941
L9.92448 -24.0438
L9.72769 -24.4971
L9.53891 -24.9539
L9.3582 -25.4141
L9.18559 -25.8775
L9.02116 -26.344
L8.86494 -26.8135
L8.71699 -27.2857
L8.57735 -27.7606
L8.44606 -28.238
L8.32316 -28.7178
L8.2087 -29.1998
L8.1027 -29.6839
L8.0052 -30.1699
L7.91622 -30.6576
L7.8358 -31.147
L7.76396 -31.6379
L7.70073 -32.1301
L7.64611 -32.6235
L7.60013 -33.1179
L7.56279 -33.6131
L7.53413 -34.1091
L7.51413 -34.6057
L7.50281 -35.1027
L7.50017 -35.6
L7.50621 -36.0974
L7.52093 -36.5948
L7.54432 -37.092
L7.57639 -37.5889
L7.61711 -38.0852
L7.66648 -38.581
L7.72447 -39.0759
L7.79109 -39.57
L7.86629 -40.0629
L7.95006 -40.5546
L8.04238 -41.0449
L8.14321 -41.5337
L8.25253 -42.0208
L8.3703 -42.506
L8.49649 -42.9893
L8.63106 -43.4704
L8.77396 -43.9493
L8.92516 -44.4257
L9.0846 -44.8996
L9.25224 -45.3708
L9.42803 -45.8391
L9.61191 -46.3044
L9.80384 -46.7666
L10.0037 -47.2255
L10.2116 -47.6809
L10.4272 -48.1329
L10.6507 -48.5811
L10.8819 -49.0255
L11.1207 -49.4659
L11.3671 -49.9022
L11.6211 -50.3343
L11.8824 -50.762
L12.1511 -51.1852
L12.4271 -51.6038
L12.7102 -52.0177
L13.0004 -52.4266
L13.2977 -52.8306
L13.6018 -53.2294
L13.9128 -53.623
L14.2305 -54.0112
L14.5548 -54.394
L14.8857 -54.7711
L15.223 -55.1425
L15.5666 -55.5081
L15.9165 -55.8677
L16.2724 -56.2213
L16.6344 -56.5687
L17.0023 -56.9099
L17.376 -57.2447
L17.7553 -57.573
L18.1402 -57.8948
L18.5305 -58.2098
L18.9262 -58.5182
L19.327 -58.8196
L19.733 -59.1141
L20.1439 -59.4016
L20.5596 -59.6819
L20.98 -59.955
L21.405 -60.2209
L21.8345 -60.4793
L22.2682 -60.7303
L22.7062 -60.9738
L23.1482 -61.2096
L23.5941 -61.4378
L24.0438 -61.6582
L24.4971 -61.8708
L24.9539 -62.0755
L25.4141 -62.2723
L25.8775 -62.4611
L26.344 -62.6418
L26.8135 -62.8144
L27.2857 -62.9788
L27.7606 -63.1351
L28.238 -63.283
L28.7178 -63.4227
L29.1998 -63.5539
L29.6839 -63.6768
L30.1699 -63.7913
L30.6576 -63.8973
L31.147 -63.9948
L31.6379 -64.0838
L32.1301 -64.1642
L32.6235 -64.236
L33.1179 -64.2993
z
" id="C0_2_b156ad6887"/>
    </defs>
    <g clip-path="url(#p1bffca34e9)">
     <use style="fill:#ff0000;stroke:#000000;stroke-width:2.0;" x="0.0" xlink:href="#C0_0_a811fe30f3" y="72.0"/>
    </g>
    <g clip-path="url(#p1bffca34e9)">
     <use style="fill:#ffffff;stroke:#000000;stroke-width:2.0;" x="0.0" xlink:href="#C0_1_85a6a356e1" y="72.0"/>
    </g>
    <g clip-path="url(#p1bffca34e9)">
     <use style="fill:#ffffff;stroke:#000000;stroke-width:2.0;" x="0.0" xlink:href="#C0_2_b156ad6887" y="72.0"/>
    </g>
   </g>
  </g>
 </g>
 <defs>
  <clipPath id="p1bffca34e9">
   <rect height="72.0" width="72.0" x="0.0" y="0.0"/>
  </clipPath>
 </defs>
</svg>
