<?xml version="1.0" encoding="utf-8" standalone="no"?>
<!DOCTYPE svg PUBLIC "-//W3C//DTD SVG 1.1//EN"
  "http://www.w3.org/Graphics/SVG/1.1/DTD/svg11.dtd">
<!-- Created with matplotlib (http://matplotlib.org/) -->
<svg height="72pt" version="1.1" viewBox="0 0 72 72" width="72pt" xmlns="http://www.w3.org/2000/svg" xmlns:xlink="http://www.w3.org/1999/xlink">
 <defs>
  <style type="text/css">
*{stroke-linecap:butt;stroke-linejoin:round;}
  </style>
 </defs>
 <g id="figure_1">
  <g id="patch_1">
   <path d="
M0 72
L72 72
L72 0
L0 0
z
" style="fill:none;"/>
  </g>
  <g id="axes_1">
   <g id="PatchCollection_1">
    <defs>
     <path d="
M36 -7.5
C43.5583 -7.5 50.808 -10.5029 56.1525 -15.8475
C61.4971 -21.192 64.5 -28.4417 64.5 -36
C64.5 -43.5583 61.4971 -50.808 56.1525 -56.1525
C50.808 -61.4971 43.5583 -64.5 36 -64.5
C28.4417 -64.5 21.192 -61.4971 15.8475 -56.1525
C10.5029 -50.808 7.5 -43.5583 7.5 -36
C7.5 -28.4417 10.5029 -21.192 15.8475 -15.8475
C21.192 -10.5029 28.4417 -7.5 36 -7.5
z
" id="C0_0_a811fe30f3"/>
     <path d="
M22.0301 -11.1713
L21.8073 -11.4975
L21.6059 -11.8229
L21.4264 -12.1468
L21.2694 -12.4683
L21.1353 -12.7867
L21.0243 -13.1011
L20.9365 -13.411
L20.872 -13.7159
L20.8305 -14.0152
L20.8116 -14.3086
L20.8149 -14.5959
L20.8396 -14.8769
L20.885 -15.1516
L20.9501 -15.4201
L21.034 -15.6825
L21.1356 -15.939
L21.2538 -16.1899
L21.3875 -16.4354
L21.5355 -16.676
L21.6967 -16.9119
L21.8699 -17.1435
L22.0543 -17.3711
L22.2486 -17.595
L22.4519 -17.8157
L22.6634 -18.0332
L22.8822 -18.248
L23.1074 -18.4603
L23.3384 -18.6702
L23.5744 -18.8781
L23.8148 -19.084
L24.059 -19.2882
L24.3064 -19.4907
L24.5567 -19.6917
L24.8092 -19.8913
L25.0636 -20.0896
L25.3196 -20.2867
L25.5767 -20.4826
L25.8346 -20.6774
L26.0931 -20.8711
L26.352 -21.0638
L26.6108 -21.2555
L26.8696 -21.4463
L27.128 -21.6361
L27.3859 -21.825
L27.6432 -22.013
L27.8996 -22.2001
L28.1551 -22.3863
L28.4097 -22.5717
L28.6631 -22.7562
L28.9153 -22.9398
L29.1662 -23.1227
L29.4158 -23.3047
L29.664 -23.4859
L29.9107 -23.6663
L30.156 -23.8459
L30.3999 -24.0247
L30.6422 -24.2028
L30.8829 -24.3801
L31.1222 -24.5566
L31.3599 -24.7324
L31.596 -24.9075
L31.8306 -25.0819
L32.0637 -25.2556
L32.2952 -25.4286
L32.5252 -25.6009
L32.7538 -25.7727
L32.9809 -25.9438
L33.2065 -26.1143
L33.4307 -26.2842
L33.6535 -26.4536
L33.875 -26.6224
L34.0951 -26.7907
L34.3139 -26.9586
L34.5314 -27.1259
L34.7477 -27.2929
L34.9628 -27.4594
L35.1767 -27.6255
L35.3895 -27.7913
L35.6013 -27.9567
L35.8119 -28.1219
L36.0215 -28.2867
L36.2302 -28.4513
L36.4379 -28.6157
L36.6447 -28.7799
L36.8507 -28.9439
L37.0559 -29.1078
L37.2602 -29.2716
L37.4639 -29.4353
L37.6668 -29.599
L37.8691 -29.7626
L38.0708 -29.9263
L38.2719 -30.09
L38.4724 -30.2538
L38.6725 -30.4177
L38.8721 -30.5818
L39.0714 -30.7461
L39.2702 -30.9105
L39.667 -31.0752
L39.865 -31.2402
L40.0627 -31.4055
L40.2603 -31.5711
L40.4578 -31.7371
L40.6552 -31.9036
L40.8526 -32.0704
L41.0499 -32.2378
L41.2473 -32.4057
L41.4447 -32.5741
L41.6422 -32.7431
L41.8399 -32.9127
L42.0378 -33.083
L42.2359 -33.254
L42.4342 -33.4256
L42.6329 -33.5981
L42.8319 -33.7713
L43.0312 -33.9454
L43.231 -34.1203
L43.4311 -34.2961
L43.6318 -34.4729
L43.833 -34.6506
L44.0347 -34.8293
L44.237 -35.009
L44.4399 -35.1898
L44.6434 -35.3717
L44.8476 -35.5547
L45.0526 -35.7389
L45.2582 -35.9242
L45.4646 -36.1108
L45.6719 -36.2986
L45.8799 -36.4876
L46.0888 -36.678
L46.2985 -36.8696
L46.5091 -37.0626
L46.7207 -37.257
L46.9332 -37.4527
L47.1467 -37.6498
L47.3611 -37.8483
L47.5766 -38.0482
L47.793 -38.2495
L48.0105 -38.4522
L48.229 -38.6563
L48.4486 -38.8618
L48.6692 -39.0687
L48.8909 -39.277
L49.1137 -39.4866
L49.3375 -39.6976
L49.5625 -39.9098
L49.7885 -40.1233
L50.0156 -40.338
L50.2437 -40.5538
L50.473 -40.7706
L50.7033 -40.9884
L50.9346 -41.2071
L51.167 -41.4266
L51.4005 -41.6467
L51.635 -41.8674
L51.8704 -42.0884
L52.1069 -42.3096
L52.3444 -42.5308
L52.5829 -42.7518
L52.8223 -42.9724
L53.0627 -43.1922
L53.3041 -43.4111
L53.5464 -43.6286
L53.7897 -43.8445
L54.034 -44.0583
L54.2793 -44.2697
L54.5257 -44.4781
L54.7731 -44.683
L55.0216 -44.884
L55.2713 -45.0804
L55.5222 -45.2715
L55.7745 -45.4566
L56.0281 -45.635
L56.2833 -45.8058
L56.5401 -45.9681
L56.7987 -46.1211
L57.0591 -46.2636
L57.3216 -46.3947
L57.5863 -46.5133
L57.8532 -46.6181
L58.1225 -46.7081
L58.3943 -46.7822
L58.6686 -46.839
L58.9454 -46.8776
L59.2247 -46.8967
L59.5065 -46.8956
L59.7904 -46.8732
L60.0763 -46.8287
L60.3638 -46.7617
L60.6526 -46.6716
L60.9422 -46.558
L61.2319 -46.4211
L61.5213 -46.2606
L61.8097 -46.0771
L62.0964 -45.8707
L62.3807 -45.642
L62.6618 -45.3917
L62.9391 -45.1206
L63.2333 -44.8293
L63.3758 -44.4023
L63.5099 -43.9258
L63.6357 -43.4468
L63.753 -42.9655
L63.8619 -42.4822
L63.9624 -41.9968
L64.0543 -41.5096
L64.1376 -41.0208
L64.2124 -40.5304
L64.2786 -40.0387
L64.3362 -39.5457
L64.3851 -39.0516
L64.4254 -38.5566
L64.457 -38.0608
L64.48 -37.5644
L64.4943 -37.0675
L64.4999 -36.5703
L64.4968 -36.0729
L64.4851 -35.5755
L64.4647 -35.0783
L64.4356 -34.5813
L64.3978 -34.0847
L64.3514 -33.5887
L64.2964 -33.0935
L64.2327 -32.5991
L64.1604 -32.1058
L64.0796 -31.6137
L63.9902 -31.1229
L63.8923 -30.6336
L63.7859 -30.1459
L63.671 -29.66
L63.5477 -29.176
L63.416 -28.6941
L63.2759 -28.2145
L63.1276 -27.7372
L62.9709 -27.2624
L62.8061 -26.7903
L62.6331 -26.321
L62.452 -25.8546
L62.2628 -25.3914
L62.0656 -24.9313
L61.8605 -24.4747
L61.6475 -24.0215
L61.4267 -23.572
L61.1982 -23.1263
L60.9619 -22.6845
L60.7181 -22.2468
L60.4668 -21.8132
L60.2079 -21.384
L59.9418 -20.9592
L59.6683 -20.539
L59.3876 -20.1235
L59.0998 -19.7129
L58.8049 -19.3072
L58.5031 -18.9066
L58.1945 -18.5112
L57.8791 -18.1211
L57.557 -17.7365
L57.2284 -17.3574
L56.8933 -16.9841
L56.5518 -16.6165
L56.2041 -16.2548
L55.8502 -15.8991
L55.4902 -15.5496
L55.1244 -15.2062
L54.7527 -14.8693
L54.3753 -14.5387
L53.9923 -14.2147
L53.6038 -13.8973
L53.2099 -13.5867
L52.8108 -13.2829
L52.4066 -12.986
L51.9974 -12.6961
L51.5833 -12.4133
L51.1645 -12.1377
L50.7411 -11.8694
L50.3131 -11.6084
L49.8808 -11.3548
L49.4443 -11.1088
L49.0037 -10.8703
L48.5591 -10.6395
L48.1107 -10.4164
L47.6586 -10.2011
L47.2029 -9.99371
L46.7439 -9.7942
L46.2816 -9.60267
L45.8161 -9.41919
L45.3476 -9.2438
L44.8763 -9.07656
L44.4023 -8.91752
L43.9258 -8.76673
L43.4468 -8.62424
L42.9655 -8.49008
L42.4822 -8.36431
L41.9968 -8.24695
L41.5096 -8.13805
L41.0208 -8.03764
L40.5304 -7.94574
L40.0387 -7.86239
L39.5457 -7.7876
L39.0516 -7.72142
L38.5566 -7.66384
L38.0608 -7.6149
L37.5644 -7.57461
L37.0675 -7.54297
L36.5703 -7.52
L36.0729 -7.50571
L35.5755 -7.50009
L35.0783 -7.50316
L34.5813 -7.51491
L34.0847 -7.53533
L33.5887 -7.56443
L33.0935 -7.60219
L32.5991 -7.64859
L32.1058 -7.70364
L31.6137 -7.7673
L31.1229 -7.83956
L30.6336 -7.9204
L30.1459 -8.0098
L29.66 -8.10772
L29.176 -8.21413
L28.6941 -8.32902
L28.2145 -8.45232
L27.7372 -8.58402
L27.2624 -8.72408
L26.7903 -8.87244
L26.321 -9.02906
L25.8546 -9.1939
L25.3914 -9.3669
L24.9313 -9.54802
L24.4747 -9.7372
L24.0215 -9.93437
L23.572 -10.1395
L23.1263 -10.3525
L22.6845 -10.5733
z
" id="C0_1_578ecf8024"/>
     <path d="
M8.81516 -27.4895
L8.8551 -27.9093
L8.8954 -28.3355
L8.93673 -28.767
L8.97968 -29.2029
L9.0248 -29.6425
L9.07255 -30.085
L9.12334 -30.5295
L9.17753 -30.9753
L9.23542 -31.4219
L9.29724 -31.8686
L9.36319 -32.3148
L9.43343 -32.7599
L9.50807 -33.2037
L9.58718 -33.6455
L9.67082 -34.085
L9.75899 -34.5218
L9.85169 -34.9556
L9.9489 -35.3862
L10.0506 -35.8132
L10.1566 -36.2365
L10.267 -36.6558
L10.3816 -37.0709
L10.5004 -37.4818
L10.6232 -37.8882
L10.7499 -38.29
L10.8804 -38.6872
L11.0147 -39.0797
L11.1525 -39.4675
L11.2938 -39.8504
L11.4385 -40.2285
L11.5864 -40.6017
L11.7375 -40.97
L11.8916 -41.3334
L12.0486 -41.692
L12.2085 -42.0458
L12.371 -42.3947
L12.5362 -42.7389
L12.7039 -43.0783
L12.8741 -43.413
L13.0466 -43.7431
L13.2214 -44.0685
L13.3983 -44.3895
L13.5775 -44.706
L13.7586 -45.018
L13.9418 -45.3257
L14.1269 -45.6292
L14.3139 -45.9284
L14.5027 -46.2235
L14.6934 -46.5146
L14.8857 -46.8016
L15.0798 -47.0847
L15.2755 -47.364
L15.4729 -47.6395
L15.6719 -47.9112
L15.8725 -48.1794
L16.0746 -48.4439
L16.2784 -48.705
L16.4836 -48.9627
L16.6904 -49.2169
L16.8987 -49.4679
L17.1085 -49.7157
L17.3198 -49.9603
L17.5326 -50.2018
L17.7469 -50.4403
L17.9628 -50.6758
L18.1802 -50.9083
L18.3991 -51.1381
L18.6196 -51.365
L18.8417 -51.5891
L19.0653 -51.8106
L19.2905 -52.0294
L19.5174 -52.2456
L19.7459 -52.4592
L19.9761 -52.6704
L20.2081 -52.879
L20.4417 -53.0853
L20.6771 -53.2891
L20.9143 -53.4907
L21.1534 -53.6899
L21.3943 -53.8868
L21.6372 -54.0814
L21.882 -54.2739
L22.1288 -54.4641
L22.3777 -54.6522
L22.6286 -54.8382
L22.8817 -55.022
L23.1369 -55.2037
L23.3944 -55.3833
L23.6542 -55.5608
L23.9163 -55.7363
L24.1808 -55.9097
L24.4478 -56.081
L24.7172 -56.2503
L24.9893 -56.4175
L25.2639 -56.5827
L25.5412 -56.7459
L25.8213 -56.9069
L26.1041 -57.0659
L26.3899 -57.2228
L26.6785 -57.3776
L26.9702 -57.5302
L27.2649 -57.6808
L27.5627 -57.8291
L27.8637 -57.9752
L28.168 -58.1191
L28.4755 -58.2608
L28.7865 -58.4001
L29.1009 -58.537
L29.4188 -58.6716
L29.7402 -58.8037
L30.0653 -58.9333
L30.3941 -59.0603
L30.7266 -59.1848
L31.063 -59.3065
L31.4032 -59.4255
L31.7473 -59.5416
L32.0953 -59.6549
L32.4474 -59.7651
L32.8035 -59.8723
L33.1637 -59.9763
L33.528 -60.0771
L33.8965 -60.1746
L34.2691 -60.2686
L34.646 -60.3591
L35.0269 -60.446
L35.4121 -60.5291
L35.8015 -60.6084
L36.195 -60.6838
L36.5927 -60.7551
L36.9944 -60.8222
L37.4002 -60.8851
L37.81 -60.9436
L38.2236 -60.9977
L38.6411 -61.0473
L39.0622 -61.0922
L39.4869 -61.1324
L39.915 -61.1678
L40.3464 -61.1983
L40.7808 -61.224
L41.2181 -61.2447
L41.6579 -61.2605
L42.1002 -61.2714
L42.5444 -61.2774
L42.9905 -61.2785
L43.4379 -61.2749
L43.8864 -61.2667
L44.3355 -61.2539
L44.7847 -61.2369
L45.2337 -61.2159
L45.6818 -61.1911
L46.1286 -61.163
L46.5734 -61.1319
L47.0157 -61.0983
L47.4548 -61.0628
L47.8899 -61.026
L48.3204 -60.9885
L48.7455 -60.9511
L49.1645 -60.9146
L49.2129 -60.8799
L48.7702 -61.2521
L48.3236 -61.4788
L47.8732 -61.6978
L47.4193 -61.909
L46.9618 -62.1123
L46.501 -62.3076
L46.037 -62.4949
L45.5699 -62.6741
L45.1 -62.8452
L44.6272 -63.0082
L44.1519 -63.1629
L43.674 -63.3093
L43.1938 -63.4474
L42.7114 -63.5771
L42.227 -63.6985
L41.7407 -63.8114
L41.2526 -63.9158
L40.7629 -64.0118
L40.2718 -64.0992
L39.7794 -64.178
L39.2858 -64.2483
L38.7912 -64.31
L38.2958 -64.363
L37.7997 -64.4074
L37.303 -64.4431
L36.8059 -64.4702
L36.3086 -64.4886
L35.8112 -64.4983
L35.3138 -64.4994
L34.8167 -64.4917
L34.3199 -64.4754
L33.8236 -64.4504
L33.328 -64.4168
L32.8332 -64.3745
L32.3394 -64.3235
L31.8467 -64.2639
L31.3552 -64.1957
L30.8652 -64.119
L30.3767 -64.0336
L29.89 -63.9397
L29.4051 -63.8373
L28.9222 -63.7265
L28.4414 -63.6071
L27.963 -63.4794
L27.487 -63.3433
L27.0136 -63.1989
L26.543 -63.0462
L26.0752 -62.8852
L25.6105 -62.7161
L25.1489 -62.5388
L24.6906 -62.3534
L24.2358 -62.16
L23.7845 -61.9587
L23.337 -61.7494
L22.8933 -61.5323
L22.4536 -61.3074
L22.0181 -61.0748
L21.5868 -60.8346
L21.1599 -60.5868
L20.7375 -60.3315
L20.3198 -60.0688
L19.9068 -59.7988
L19.4988 -59.5215
L19.0957 -59.237
L18.6979 -58.9455
L18.3053 -58.647
L17.918 -58.3416
L17.5363 -58.0294
L17.1602 -57.7104
L16.7899 -57.3849
L16.4254 -57.0528
L16.0669 -56.7144
L15.7144 -56.3696
L15.3681 -56.0186
L15.0281 -55.6615
L14.6945 -55.2984
L14.3674 -54.9295
L14.0469 -54.5548
L13.733 -54.1744
L13.4259 -53.7885
L13.1258 -53.3972
L12.8325 -53.0006
L12.5464 -52.5988
L12.2674 -52.1919
L11.9956 -51.7801
L11.7311 -51.3635
L11.474 -50.9423
L11.2244 -50.5164
L10.9824 -50.0862
L10.7479 -49.6516
L10.5212 -49.2129
L10.3022 -48.7702
L10.091 -48.3236
L9.88773 -47.8732
L9.69242 -47.4193
L9.50511 -46.9618
L9.32588 -46.501
L9.15477 -46.037
L8.99184 -45.5699
L8.83714 -45.1
L8.69071 -44.6272
L8.5526 -44.1519
L8.42285 -43.674
L8.3015 -43.1938
L8.18859 -42.7114
L8.08415 -42.227
L7.98821 -41.7407
L7.90081 -41.2526
L7.82196 -40.7629
L7.7517 -40.2718
L7.69005 -39.7794
L7.63701 -39.2858
L7.59262 -38.7912
L7.55688 -38.2958
L7.5298 -37.7997
L7.5114 -37.303
L7.50167 -36.8059
L7.50063 -36.3086
L7.50826 -35.8112
L7.52458 -35.3138
L7.54956 -34.8167
L7.58322 -34.3199
L7.62553 -33.8236
L7.67648 -33.328
L7.73606 -32.8332
L7.80426 -32.3394
L7.88104 -31.8467
L7.96638 -31.3552
L8.06026 -30.8652
L8.16266 -30.3767
L8.27353 -29.89
L8.39285 -29.4051
L8.52058 -28.9222
L8.65668 -28.4414
z
" id="C0_2_f76b88ac3c"/>
    </defs>
    <g clip-path="url(#p1bffca34e9)">
     <use style="fill:#ff0000;stroke:#000000;stroke-width:2.0;" x="0.0" xlink:href="#C0_0_a811fe30f3" y="72.0"/>
    </g>
    <g clip-path="url(#p1bffca34e9)">
     <use style="fill:#ffffff;stroke:#000000;stroke-width:2.0;" x="0.0" xlink:href="#C0_1_578ecf8024" y="72.0"/>
    </g>
    <g clip-path="url(#p1bffca34e9)">
     <use style="fill:#ffffff;stroke:#000000;stroke-width:2.0;" x="0.0" xlink:href="#C0_2_f76b88ac3c" y="72.0"/>
    </g>
   </g>
  </g>
 </g>
 <defs>
  <clipPath id="p1bffca34e9">
   <rect height="72.0" width="72.0" x="0.0" y="0.0"/>
  </clipPath>
 </defs>
</svg>
