<?xml version="1.0" encoding="utf-8" standalone="no"?>
<!DOCTYPE svg PUBLIC "-//W3C//DTD SVG 1.1//EN"
  "http://www.w3.org/Graphics/SVG/1.1/DTD/svg11.dtd">
<!-- Created with matplotlib (http://matplotlib.org/) -->
<svg height="72pt" version="1.1" viewBox="0 0 72 72" width="72pt" xmlns="http://www.w3.org/2000/svg" xmlns:xlink="http://www.w3.org/1999/xlink">
 <defs>
  <style type="text/css">
*{stroke-linecap:butt;stroke-linejoin:round;}
  </style>
 </defs>
 <g id="figure_1">
  <g id="patch_1">
   <path d="
M0 72
L72 72
L72 0
L0 0
z
" style="fill:none;"/>
  </g>
  <g id="axes_1">
   <g id="PatchCollection_1">
    <defs>
     <path d="
M36 -7.5
C43.5583 -7.5 50.808 -10.5029 56.1525 -15.8475
C61.4971 -21.192 64.5 -28.4417 64.5 -36
C64.5 -43.5583 61.4971 -50.808 56.1525 -56.1525
C50.808 -61.4971 43.5583 -64.5 36 -64.5
C28.4417 -64.5 21.192 -61.4971 15.8475 -56.1525
C10.5029 -50.808 7.5 -43.5583 7.5 -36
C7.5 -28.4417 10.5029 -21.192 15.8475 -15.8475
C21.192 -10.5029 28.4417 -7.5 36 -7.5
z
" id="C0_0_a811fe30f3"/>
     <path d="
M27.8169 -30.6386
L28.0276 -30.4873
L28.2393 -30.3369
L28.4519 -30.1875
L28.6655 -30.0391
L28.8802 -29.8916
L29.0959 -29.745
L29.3129 -29.5992
L29.531 -29.4543
L29.7503 -29.3102
L29.971 -29.1669
L30.193 -29.0244
L30.4164 -28.8826
L30.6413 -28.7416
L30.8677 -28.6013
L31.0956 -28.4617
L31.3251 -28.3228
L31.5564 -28.1846
L31.7893 -28.047
L32.024 -27.9101
L32.2606 -27.7739
L32.499 -27.6384
L32.7394 -27.5035
L32.9819 -27.3692
L33.2264 -27.2356
L33.473 -27.1027
L33.7219 -26.9704
L33.973 -26.8388
L34.2264 -26.7078
L34.4822 -26.5776
L34.7404 -26.4481
L35.0011 -26.3194
L35.2644 -26.1913
L35.5303 -26.0641
L35.7989 -25.9377
L36.0702 -25.8122
L36.3443 -25.6875
L36.6213 -25.5638
L36.9012 -25.441
L37.1841 -25.3193
L37.4699 -25.1986
L37.7588 -25.0791
L38.0509 -24.9608
L38.3461 -24.8438
L38.6445 -24.7281
L38.9461 -24.6139
L39.2511 -24.5013
L39.5593 -24.3903
L39.8709 -24.281
L40.1858 -24.1735
L40.5041 -24.0681
L40.8258 -23.9648
L41.1508 -23.8637
L41.4793 -23.765
L41.8111 -23.6689
L42.1463 -23.5755
L42.4848 -23.485
L42.8266 -23.3977
L43.1716 -23.3137
L43.5197 -23.2333
L43.871 -23.1567
L44.2253 -23.0841
L44.5824 -23.0158
L44.9424 -22.9522
L45.3049 -22.8935
L45.6699 -22.8401
L46.0373 -22.7924
L46.4067 -22.7506
L46.778 -22.7152
L47.1509 -22.6867
L47.5252 -22.6655
L47.9005 -22.6521
L48.2765 -22.647
L48.6529 -22.6508
L49.0291 -22.664
L49.4049 -22.6873
L49.7796 -22.7214
L50.1528 -22.767
L50.524 -22.8247
L50.8924 -22.8953
L51.2574 -22.9796
L51.6184 -23.0783
L51.9747 -23.1922
L52.3254 -23.3221
L52.6697 -23.4686
L53.0069 -23.6324
L53.3361 -23.8141
L53.6566 -24.014
L53.9675 -24.2325
L54.2681 -24.4696
L54.5577 -24.7254
L54.8357 -24.9995
L55.1016 -25.2916
L55.3549 -25.6011
L55.5953 -25.9272
L55.8224 -26.269
L56.0361 -26.6255
L56.2364 -26.9956
L56.4231 -27.3781
L56.5964 -27.7718
L56.7563 -28.1755
L56.9031 -28.5881
L57.0369 -29.0085
L57.1579 -29.4354
L57.2665 -29.8679
L57.3629 -30.3049
L57.4474 -30.7456
L57.5203 -31.189
L57.582 -31.6344
L57.6328 -32.0809
L57.673 -32.528
L57.7029 -32.9749
L57.7229 -33.4211
L57.7334 -33.8661
L57.7347 -34.3094
L57.727 -34.7505
L57.7107 -35.1891
L57.6862 -35.6248
L57.6538 -36.0573
L57.6137 -36.4863
L57.5662 -36.9116
L57.5117 -37.333
L57.4505 -37.7502
L57.3828 -38.1631
L57.3088 -38.5716
L57.2289 -38.9755
L57.1432 -39.3748
L57.0521 -39.7693
L56.9558 -40.1591
L56.8544 -40.5439
L56.7482 -40.9239
L56.6375 -41.299
L56.5223 -41.6691
L56.4029 -42.0344
L56.2795 -42.3947
L56.1522 -42.7501
L56.0212 -43.1007
L55.8866 -43.4464
L55.7487 -43.7873
L55.6074 -44.1235
L55.4631 -44.455
L55.3157 -44.7818
L55.1654 -45.1041
L55.0123 -45.4218
L54.8565 -45.7351
L54.6981 -46.0439
L54.5372 -46.3484
L54.3738 -46.6487
L54.2081 -46.9448
L54.0401 -47.2367
L53.8699 -47.5246
L53.6975 -47.8085
L53.5231 -48.0885
L53.3465 -48.3647
L53.168 -48.6371
L52.9874 -48.9059
L52.8049 -49.171
L52.6206 -49.4325
L52.4343 -49.6906
L52.2462 -49.9452
L52.0562 -50.1965
L51.8644 -50.4446
L51.6708 -50.6894
L51.4754 -50.931
L51.2782 -51.1696
L51.0792 -51.4051
L50.8784 -51.6376
L50.6758 -51.8672
L50.4714 -52.0939
L50.2651 -52.3179
L50.0571 -52.539
L49.8472 -52.7574
L49.6354 -52.9732
L49.4217 -53.1863
L49.2061 -53.3969
L48.9886 -53.6049
L48.7692 -53.8104
L48.5477 -54.0134
L48.3242 -54.2139
L48.0987 -54.4121
L47.871 -54.6079
L47.6413 -54.8013
L47.4093 -54.9924
L47.1752 -55.1812
L46.9387 -55.3678
L46.7 -55.552
L46.4589 -55.734
L46.2154 -55.9137
L45.9694 -56.0912
L45.7209 -56.2665
L45.4699 -56.4395
L45.2162 -56.6103
L44.9598 -56.7789
L44.7007 -56.9452
L44.4387 -57.1092
L44.1739 -57.271
L43.9061 -57.4305
L43.6353 -57.5877
L43.3615 -57.7426
L43.0844 -57.8951
L42.8042 -58.0452
L42.5207 -58.1928
L42.2337 -58.338
L41.9434 -58.4807
L41.6495 -58.6207
L41.352 -58.7582
L41.0509 -58.893
L40.746 -59.0249
L40.4373 -59.1541
L40.1246 -59.2804
L39.808 -59.4036
L39.4873 -59.5238
L39.1625 -59.6408
L38.8335 -59.7545
L38.5002 -59.8648
L38.1625 -59.9715
L37.8204 -60.0747
L37.4738 -60.1741
L37.1226 -60.2696
L36.7668 -60.361
L36.4063 -60.4482
L36.0411 -60.531
L35.6711 -60.6093
L35.2963 -60.6829
L34.9166 -60.7515
L34.532 -60.8151
L34.1425 -60.8733
L33.7481 -60.926
L33.3488 -60.9729
L32.9445 -61.0138
L32.5353 -61.0485
L32.1213 -61.0767
L31.7024 -61.0981
L31.2788 -61.1125
L30.8505 -61.1196
L30.4177 -61.1191
L29.9804 -61.1107
L29.5388 -61.0942
L29.0931 -61.0691
L28.6434 -61.0353
L28.19 -60.9924
L27.7332 -60.94
L27.2732 -60.8779
L26.8104 -60.8057
L26.345 -60.7231
L25.8776 -60.6299
L25.4086 -60.5257
L24.9384 -60.4101
L24.4676 -60.2831
L23.9968 -60.1441
L23.5266 -59.9931
L23.0578 -59.8298
L22.591 -59.654
L22.1272 -59.4655
L21.6673 -59.2642
L21.2121 -59.05
L20.7628 -58.8228
L20.3203 -58.5828
L19.886 -58.3298
L19.4609 -58.0642
L19.0463 -57.786
L18.6436 -57.4955
L18.254 -57.1932
L17.8789 -56.8795
L17.5195 -56.5548
L17.1772 -56.2199
L16.8532 -55.8753
L16.5484 -55.5219
L16.2639 -55.1604
L16.0004 -54.7918
L15.7585 -54.4169
L15.5386 -54.0367
L15.3408 -53.6521
L15.1652 -53.264
L15.0114 -52.8732
L14.879 -52.4807
L14.7675 -52.0871
L14.6761 -51.6932
L14.6041 -51.2996
L14.5505 -50.9069
L14.5145 -50.5157
L14.4952 -50.1264
L14.4915 -49.7395
L14.5026 -49.3552
L14.5276 -48.9739
L14.5655 -48.5959
L14.6156 -48.2214
L14.6769 -47.8507
L14.7489 -47.4838
L14.8307 -47.1209
L14.9216 -46.7623
L15.0211 -46.4079
L15.1285 -46.0578
L15.2433 -45.7122
L15.3649 -45.371
L15.4929 -45.0343
L15.6267 -44.7022
L15.766 -44.3746
L15.9103 -44.0515
L16.0593 -43.733
L16.2126 -43.419
L16.3698 -43.1095
L16.5307 -42.8045
L16.695 -42.504
L16.8624 -42.2079
L17.0327 -41.9161
L17.2056 -41.6286
L17.3808 -41.3454
L17.5583 -41.0663
L17.7378 -40.7915
L17.9191 -40.5206
L18.1021 -40.2538
L18.2867 -39.991
L18.4726 -39.732
L18.6598 -39.4768
L18.8481 -39.2254
L19.0375 -38.9775
L19.2278 -38.7333
L19.4189 -38.4926
L19.6109 -38.2553
L19.8035 -38.0214
L19.9968 -37.7907
L20.1906 -37.5633
L20.3849 -37.339
L20.5798 -37.1177
L20.775 -36.8994
L20.9706 -36.6841
L21.1666 -36.4716
L21.3629 -36.2618
L21.5595 -36.0547
L21.7563 -35.8503
L21.9535 -35.6484
L22.1509 -35.449
L22.3485 -35.2521
L22.5464 -35.0575
L22.7446 -34.8651
L22.9429 -34.6751
L23.1416 -34.4871
L23.3404 -34.3013
L23.5396 -34.1176
L23.739 -33.9358
L23.9386 -33.756
L24.1386 -33.578
L24.3389 -33.4018
L24.5395 -33.2275
L24.7405 -33.0548
L24.9419 -32.8838
L25.1437 -32.7144
L25.3459 -32.5466
L25.5485 -32.3803
L25.7517 -32.2154
L25.9553 -32.052
L26.1595 -31.89
L26.3643 -31.7293
L26.5697 -31.5699
L26.7757 -31.4118
L26.9824 -31.2549
L27.1899 -31.0991
L27.3981 -30.9445
z
" id="C0_1_5d3383a00b"/>
    </defs>
    <g clip-path="url(#p1bffca34e9)">
     <use style="fill:#ffffff;stroke:#000000;stroke-width:2.0;" x="0.0" xlink:href="#C0_0_a811fe30f3" y="72.0"/>
    </g>
    <g clip-path="url(#p1bffca34e9)">
     <use style="fill:#ff0000;stroke:#000000;stroke-width:2.0;" x="0.0" xlink:href="#C0_1_5d3383a00b" y="72.0"/>
    </g>
   </g>
  </g>
 </g>
 <defs>
  <clipPath id="p1bffca34e9">
   <rect height="72.0" width="72.0" x="0.0" y="0.0"/>
  </clipPath>
 </defs>
</svg>
