<?xml version="1.0" encoding="utf-8" standalone="no"?>
<!DOCTYPE svg PUBLIC "-//W3C//DTD SVG 1.1//EN"
  "http://www.w3.org/Graphics/SVG/1.1/DTD/svg11.dtd">
<!-- Created with matplotlib (http://matplotlib.org/) -->
<svg height="72pt" version="1.1" viewBox="0 0 72 72" width="72pt" xmlns="http://www.w3.org/2000/svg" xmlns:xlink="http://www.w3.org/1999/xlink">
 <defs>
  <style type="text/css">
*{stroke-linecap:butt;stroke-linejoin:round;}
  </style>
 </defs>
 <g id="figure_1">
  <g id="patch_1">
   <path d="
M0 72
L72 72
L72 0
L0 0
z
" style="fill:none;"/>
  </g>
  <g id="axes_1">
   <g id="PatchCollection_1">
    <defs>
     <path d="
M36 -7.5
C43.5583 -7.5 50.808 -10.5029 56.1525 -15.8475
C61.4971 -21.192 64.5 -28.4417 64.5 -36
C64.5 -43.5583 61.4971 -50.808 56.1525 -56.1525
C50.808 -61.4971 43.5583 -64.5 36 -64.5
C28.4417 -64.5 21.192 -61.4971 15.8475 -56.1525
C10.5029 -50.808 7.5 -43.5583 7.5 -36
C7.5 -28.4417 10.5029 -21.192 15.8475 -15.8475
C21.192 -10.5029 28.4417 -7.5 36 -7.5
z
" id="C0_0_a811fe30f3"/>
     <path d="
M27.7311 -8.80719
L27.7764 -9.10572
L27.8085 -9.41562
L27.8305 -9.73481
L27.8452 -10.0616
L27.8545 -10.3946
L27.86 -10.7327
L27.863 -11.0749
L27.8643 -11.4204
L27.8648 -11.7684
L27.8651 -12.1183
L27.8655 -12.4697
L27.8665 -12.8221
L27.8683 -13.175
L27.8712 -13.528
L27.8752 -13.8808
L27.8805 -14.2332
L27.8872 -14.5849
L27.8952 -14.9355
L27.9048 -15.2849
L27.9158 -15.633
L27.9282 -15.9794
L27.9421 -16.3242
L27.9575 -16.667
L27.9742 -17.0078
L27.9923 -17.3466
L28.0117 -17.6831
L28.0324 -18.0174
L28.0544 -18.3493
L28.0775 -18.6788
L28.1018 -19.0059
L28.1273 -19.3304
L28.1538 -19.6525
L28.1813 -19.9719
L28.2098 -20.2889
L28.2393 -20.6033
L28.2697 -20.9151
L28.3009 -21.2243
L28.333 -21.5311
L28.3659 -21.8353
L28.3995 -22.137
L28.4339 -22.4363
L28.469 -22.7331
L28.5047 -23.0275
L28.5411 -23.3196
L28.5782 -23.6093
L28.6158 -23.8968
L28.654 -24.182
L28.6928 -24.4651
L28.7321 -24.746
L28.772 -25.0249
L28.8123 -25.3017
L28.8531 -25.5766
L28.8945 -25.8496
L28.9362 -26.1207
L28.9785 -26.39
L29.0212 -26.6576
L29.0643 -26.9235
L29.1078 -27.1878
L29.1518 -27.4506
L29.1962 -27.7119
L29.241 -27.9717
L29.2863 -28.2302
L29.3319 -28.4874
L29.378 -28.7434
L29.4244 -28.9982
L29.4713 -29.2518
L29.5186 -29.5045
L29.5663 -29.7561
L29.6144 -30.0068
L29.6629 -30.2567
L29.7119 -30.5057
L29.7613 -30.7541
L29.8111 -31.0017
L29.8614 -31.2488
L29.9121 -31.4953
L29.9632 -31.7413
L30.0149 -31.9869
L30.067 -32.2321
L30.1196 -32.4771
L30.1727 -32.7218
L30.2263 -32.9663
L30.335 -33.2108
L30.3902 -33.4552
L30.446 -33.6996
L30.5023 -33.9441
L30.5592 -34.1888
L30.6167 -34.4336
L30.6748 -34.6787
L30.7336 -34.9242
L30.793 -35.17
L30.8531 -35.4163
L30.9139 -35.6631
L30.9754 -35.9106
L31.0376 -36.1586
L31.1006 -36.4074
L31.1643 -36.6569
L31.2289 -36.9073
L31.2942 -37.1586
L31.3605 -37.4108
L31.4275 -37.6641
L31.4955 -37.9184
L31.5644 -38.1739
L31.6342 -38.4307
L31.705 -38.6887
L31.7768 -38.948
L31.8497 -39.2088
L31.9236 -39.471
L31.9986 -39.7348
L32.0747 -40.0002
L32.1519 -40.2672
L32.2304 -40.536
L32.3101 -40.8065
L32.391 -41.0789
L32.4732 -41.3532
L32.5567 -41.6295
L32.6416 -41.9077
L32.7279 -42.1881
L32.8156 -42.4706
L32.9048 -42.7553
L32.9955 -43.0422
L33.0878 -43.3315
L33.1816 -43.623
L33.2771 -43.917
L33.3742 -44.2134
L33.473 -44.5123
L33.5735 -44.8137
L33.6759 -45.1176
L33.78 -45.4241
L33.886 -45.7333
L33.9939 -46.045
L34.1036 -46.3594
L34.2154 -46.6765
L34.3291 -46.9962
L34.4448 -47.3186
L34.5625 -47.6436
L34.6823 -47.9713
L34.8042 -48.3017
L34.9281 -48.6346
L35.0541 -48.97
L35.1822 -49.308
L35.3124 -49.6484
L35.4447 -49.9912
L35.579 -50.3362
L35.7153 -50.6835
L35.8536 -51.0329
L35.9938 -51.3843
L36.1358 -51.7375
L36.2795 -52.0925
L36.4248 -52.449
L36.5715 -52.8069
L36.7196 -53.1659
L36.8686 -53.526
L37.0185 -53.8868
L37.1688 -54.2481
L37.3191 -54.6096
L37.4691 -54.9711
L37.618 -55.3323
L37.7652 -55.6928
L37.9098 -56.0522
L38.0508 -56.4103
L38.1867 -56.7664
L38.316 -57.1202
L38.4365 -57.4711
L38.5455 -57.8185
L38.6399 -58.1617
L38.7155 -58.5
L38.7672 -58.8323
L38.7893 -59.1576
L38.7749 -59.4745
L38.7171 -59.7818
L38.6094 -60.0776
L38.4469 -60.3605
L38.2276 -60.6288
L37.9524 -60.8814
L37.6252 -61.1174
L37.2518 -61.3364
L36.8386 -61.5384
L36.3921 -61.7234
L35.9183 -61.8919
L35.4224 -62.0441
L34.9086 -62.1804
L34.3807 -62.3011
L33.8416 -62.4065
L33.2938 -62.4968
L32.7396 -62.5722
L32.1806 -62.6331
L31.6184 -62.6796
L31.0544 -62.7121
L30.4897 -62.7307
L29.9253 -62.7357
L29.3621 -62.7275
L28.801 -62.7062
L28.2425 -62.6722
L27.6874 -62.6257
L27.1363 -62.5672
L26.5895 -62.4968
L26.0477 -62.415
L25.5111 -62.3221
L24.9802 -62.2183
L24.4553 -62.1041
L23.9739 -61.9798
L23.5248 -61.8384
L23.0794 -61.6246
L22.6381 -61.4029
L22.2008 -61.1736
L21.7677 -60.9365
L21.3389 -60.6919
L20.9146 -60.4398
L20.4949 -60.1802
L20.0799 -59.9132
L19.6698 -59.639
L19.2646 -59.3575
L18.8646 -59.069
L18.4697 -58.7734
L18.0802 -58.4709
L17.6962 -58.1615
L17.3177 -57.8454
L16.9449 -57.5226
L16.578 -57.1933
L16.2169 -56.8575
L15.8619 -56.5153
L15.513 -56.167
L15.1703 -55.8124
L14.834 -55.4519
L14.5042 -55.0854
L14.1808 -54.7131
L13.8642 -54.3351
L13.5543 -53.9515
L13.2512 -53.5624
L12.955 -53.168
L12.6659 -52.7684
L12.3838 -52.3636
L12.109 -51.9539
L11.8414 -51.5393
L11.5812 -51.12
L11.3285 -50.6961
L11.0832 -50.2677
L10.8456 -49.8349
L10.6156 -49.3979
L10.3933 -48.9569
L10.1789 -48.5119
L9.97225 -48.0631
L9.77359 -47.6106
L9.5829 -47.1546
L9.40027 -46.6952
L9.22574 -46.2325
L9.05937 -45.7667
L8.9012 -45.298
L8.75128 -44.8264
L8.60967 -44.3521
L8.4764 -43.8753
L8.35151 -43.396
L8.23505 -42.9146
L8.12704 -42.431
L8.02752 -41.9454
L7.93653 -41.4581
L7.85408 -40.9691
L7.7802 -40.4785
L7.71493 -39.9866
L7.65826 -39.4935
L7.61024 -38.9993
L7.57085 -38.5042
L7.54013 -38.0084
L7.51808 -37.5119
L7.5047 -37.015
L7.50001 -36.5178
L7.50399 -36.0204
L7.51666 -35.523
L7.538 -35.0257
L7.56801 -34.5288
L7.60668 -34.0323
L7.654 -33.5364
L7.70996 -33.0412
L7.77453 -32.547
L7.8477 -32.0538
L7.92945 -31.5618
L8.01974 -31.0711
L8.11856 -30.582
L8.22587 -30.0945
L8.34165 -29.6088
L8.46584 -29.125
L8.59843 -28.6434
L8.73936 -28.1639
L8.8886 -27.6869
L9.04609 -27.2124
L9.21179 -26.7406
L9.38566 -26.2716
L9.56763 -25.8056
L9.75765 -25.3426
L9.95567 -24.8829
L10.1616 -24.4266
L10.3754 -23.9739
L10.5971 -23.5248
L10.8264 -23.0794
L11.0635 -22.6381
L11.3081 -22.2008
L11.5602 -21.7677
L11.8198 -21.3389
L12.0868 -20.9146
L12.361 -20.4949
L12.6425 -20.0799
L12.931 -19.6698
L13.2266 -19.2646
L13.5291 -18.8646
L13.8385 -18.4697
L14.1546 -18.0802
L14.4774 -17.6962
L14.8067 -17.3177
L15.1425 -16.9449
L15.4847 -16.578
L15.833 -16.2169
L16.1876 -15.8619
L16.5481 -15.513
L16.9146 -15.1703
L17.2869 -14.834
L17.6649 -14.5042
L18.0485 -14.1808
L18.4376 -13.8642
L18.832 -13.5543
L19.2316 -13.2512
L19.6364 -12.955
L20.0461 -12.6659
L20.4607 -12.3838
L20.88 -12.109
L21.3039 -11.8414
L21.7323 -11.5812
L22.1651 -11.3285
L22.6021 -11.0832
L23.0431 -10.8456
L23.4881 -10.6156
L23.9369 -10.3933
L24.3894 -10.1789
L24.8454 -9.97225
L25.3048 -9.77359
L25.7675 -9.5829
L26.2333 -9.40027
L26.702 -9.22574
L27.1736 -9.05937
z
" id="C0_1_62882ad838"/>
     <path d="
M48.0444 -10.1948
L48.4753 -10.5025
L48.8948 -10.814
L49.3029 -11.1288
L49.6997 -11.4466
L50.0856 -11.7671
L50.4605 -12.0899
L50.8248 -12.4147
L51.1785 -12.7413
L51.5219 -13.0694
L51.8553 -13.3987
L52.1787 -13.7289
L52.4925 -14.06
L52.7969 -14.3916
L53.092 -14.7236
L53.3781 -15.0559
L53.6555 -15.3882
L53.9243 -15.7205
L54.1848 -16.0525
L54.4372 -16.3843
L54.6817 -16.7157
L54.9185 -17.0465
L55.1478 -17.3768
L55.3698 -17.7065
L55.5848 -18.0355
L55.7928 -18.3637
L55.9942 -18.6912
L56.189 -19.0178
L56.3775 -19.3435
L56.5598 -19.6684
L56.7361 -19.9924
L56.9065 -20.3155
L57.0713 -20.6377
L57.2305 -20.959
L57.3843 -21.2795
L57.5329 -21.599
L57.6763 -21.9177
L57.8147 -22.2355
L57.9483 -22.5525
L58.0771 -22.8687
L58.2012 -23.1842
L58.3208 -23.4989
L58.4359 -23.8129
L58.5467 -24.1262
L58.6533 -24.4389
L58.7557 -24.751
L58.854 -25.0626
L58.9483 -25.3736
L59.0387 -25.6842
L59.1252 -25.9944
L59.208 -26.3042
L59.287 -26.6138
L59.3623 -26.923
L59.434 -27.2321
L59.5022 -27.5409
L59.5668 -27.8497
L59.6279 -28.1585
L59.6856 -28.4672
L59.7399 -28.776
L59.7908 -29.085
L59.8383 -29.3941
L59.8825 -29.7035
L59.9234 -30.0131
L59.961 -30.3231
L59.9952 -30.6335
L60.0262 -30.9444
L60.0539 -31.2559
L60.0783 -31.5679
L60.0995 -31.8806
L60.1173 -32.194
L60.1318 -32.5082
L60.143 -32.8233
L60.1509 -33.1392
L60.1554 -33.4562
L60.1565 -33.7741
L60.1541 -34.0931
L60.1483 -34.4133
L60.1391 -34.7347
L60.1262 -35.0574
L60.1098 -35.3814
L60.0898 -35.7068
L60.0661 -36.0336
L60.0386 -36.362
L60.0073 -36.6919
L59.9721 -37.0234
L59.933 -37.3567
L59.8898 -37.6916
L59.8425 -38.0283
L59.7911 -38.3669
L59.7353 -38.7074
L59.6752 -39.0498
L59.6105 -39.3942
L59.5413 -39.7406
L59.4674 -40.089
L59.3887 -40.4396
L59.305 -40.7922
L59.2163 -41.1471
L59.1224 -41.5041
L59.0232 -41.8634
L58.9185 -42.2249
L58.8082 -42.5886
L58.6922 -42.9545
L58.5702 -43.3227
L58.4422 -43.6932
L58.308 -44.0659
L58.1674 -44.4408
L58.0203 -44.8179
L57.8664 -45.1971
L57.7056 -45.5784
L57.5377 -45.9618
L57.3626 -46.3472
L57.18 -46.7345
L56.9898 -47.1236
L56.7918 -47.5144
L56.5859 -47.9068
L56.3717 -48.3008
L56.1493 -48.696
L55.9183 -49.0925
L55.6787 -49.49
L55.4302 -49.8883
L55.1728 -50.2873
L54.9062 -50.6867
L54.6305 -51.0863
L54.3454 -51.4858
L54.0508 -51.885
L53.7468 -52.2836
L53.4333 -52.6813
L53.1102 -53.0778
L52.7777 -53.4727
L52.4357 -53.8657
L52.0843 -54.2564
L51.7238 -54.6444
L51.3544 -55.0295
L50.9764 -55.4111
L50.5901 -55.7889
L50.1961 -56.1625
L49.795 -56.5314
L49.3876 -56.8954
L48.9749 -57.254
L48.558 -57.6069
L48.1384 -57.9537
L47.718 -58.2943
L47.2991 -58.6283
L46.8846 -58.9558
L46.4779 -59.2767
L46.0834 -59.5911
L45.7066 -59.8994
L45.3536 -60.202
L45.0314 -60.4998
L44.7476 -60.7936
L44.509 -61.0843
L44.3208 -61.3729
L44.1856 -61.6598
L44.1029 -61.9455
L44.0693 -62.2297
L44.0796 -62.512
L44.1277 -62.7919
L44.7446 -63.0686
L45.2167 -63.1253
L45.686 -62.9685
L46.1523 -62.8036
L46.6155 -62.6305
L47.0755 -62.4492
L47.5321 -62.2599
L47.9852 -62.0626
L48.4346 -61.8574
L48.8803 -61.6443
L49.322 -61.4234
L49.7597 -61.1947
L50.1932 -60.9584
L50.6224 -60.7144
L51.0471 -60.463
L51.4672 -60.204
L51.8826 -59.9377
L52.2932 -59.6642
L52.6988 -59.3834
L53.0993 -59.0954
L53.4947 -58.8005
L53.8847 -58.4986
L54.2692 -58.1898
L54.6482 -57.8743
L55.0215 -57.5522
L55.389 -57.2234
L55.7506 -56.8882
L56.1062 -56.5467
L56.4556 -56.1988
L56.7988 -55.8449
L57.1357 -55.4848
L57.4662 -55.1189
L57.7901 -54.7471
L58.1074 -54.3696
L58.4179 -53.9865
L58.7216 -53.5979
L59.0184 -53.204
L59.3082 -52.8049
L59.5909 -52.4006
L59.8664 -51.9913
L60.1346 -51.5771
L60.3955 -51.1582
L60.6489 -50.7347
L60.8948 -50.3067
L61.1332 -49.8744
L61.3639 -49.4378
L61.5868 -48.9971
L61.802 -48.5524
L62.0093 -48.104
L62.2087 -47.6518
L62.4001 -47.1961
L62.5835 -46.737
L62.7588 -46.2746
L62.9259 -45.8091
L63.0848 -45.3406
L63.2355 -44.8693
L63.3778 -44.3952
L63.5119 -43.9186
L63.6375 -43.4396
L63.7547 -42.9583
L63.8635 -42.4749
L63.9638 -41.9896
L64.0556 -41.5024
L64.1388 -41.0135
L64.2134 -40.5231
L64.2795 -40.0313
L64.3369 -39.5383
L64.3858 -39.0442
L64.4259 -38.5492
L64.4574 -38.0534
L64.4803 -37.557
L64.4944 -37.0601
L64.4999 -36.5629
L64.4967 -36.0655
L64.4849 -35.5681
L64.4643 -35.0709
L64.4351 -34.5739
L64.3972 -34.0773
L64.3506 -33.5814
L64.2955 -33.0861
L64.2317 -32.5918
L64.1593 -32.0985
L64.0783 -31.6064
L63.9888 -31.1156
L63.8908 -30.6263
L63.7842 -30.1386
L63.6692 -29.6528
L63.5458 -29.1688
L63.4139 -28.687
L63.2738 -28.2073
L63.1253 -27.7301
L62.9685 -27.2554
L62.8036 -26.7833
L62.6305 -26.314
L62.4492 -25.8477
L62.2599 -25.3845
L62.0626 -24.9245
L61.8574 -24.4679
L61.6443 -24.0148
L61.4234 -23.5654
L61.1947 -23.1197
L60.9584 -22.678
L60.7144 -22.2403
L60.463 -21.8068
L60.204 -21.3776
L59.9377 -20.9529
L59.6642 -20.5328
L59.3834 -20.1174
L59.0954 -19.7068
L58.8005 -19.3012
L58.4986 -18.9007
L58.1898 -18.5053
L57.8743 -18.1153
L57.5522 -17.7308
L57.2234 -17.3518
L56.8882 -16.9785
L56.5467 -16.611
L56.1988 -16.2494
L55.8449 -15.8938
L55.4848 -15.5444
L55.1189 -15.2012
L54.7471 -14.8643
L54.3696 -14.5338
L53.9865 -14.2099
L53.5979 -13.8926
L53.204 -13.5821
L52.8049 -13.2784
L52.4006 -12.9816
L51.9913 -12.6918
L51.5771 -12.4091
L51.1582 -12.1336
L50.7347 -11.8654
L50.3067 -11.6045
L49.8744 -11.3511
L49.4378 -11.1052
L48.9971 -10.8668
L48.5524 -10.6361
z
" id="C0_2_fb497833d4"/>
    </defs>
    <g clip-path="url(#p1bffca34e9)">
     <use style="fill:#ff0000;stroke:#000000;stroke-width:2.0;" x="0.0" xlink:href="#C0_0_a811fe30f3" y="72.0"/>
    </g>
    <g clip-path="url(#p1bffca34e9)">
     <use style="fill:#ffffff;stroke:#000000;stroke-width:2.0;" x="0.0" xlink:href="#C0_1_62882ad838" y="72.0"/>
    </g>
    <g clip-path="url(#p1bffca34e9)">
     <use style="fill:#ffffff;stroke:#000000;stroke-width:2.0;" x="0.0" xlink:href="#C0_2_fb497833d4" y="72.0"/>
    </g>
   </g>
  </g>
 </g>
 <defs>
  <clipPath id="p1bffca34e9">
   <rect height="72.0" width="72.0" x="0.0" y="0.0"/>
  </clipPath>
 </defs>
</svg>
