<?xml version="1.0" encoding="utf-8" standalone="no"?>
<!DOCTYPE svg PUBLIC "-//W3C//DTD SVG 1.1//EN"
  "http://www.w3.org/Graphics/SVG/1.1/DTD/svg11.dtd">
<!-- Created with matplotlib (http://matplotlib.org/) -->
<svg height="72pt" version="1.1" viewBox="0 0 72 72" width="72pt" xmlns="http://www.w3.org/2000/svg" xmlns:xlink="http://www.w3.org/1999/xlink">
 <defs>
  <style type="text/css">
*{stroke-linecap:butt;stroke-linejoin:round;}
  </style>
 </defs>
 <g id="figure_1">
  <g id="patch_1">
   <path d="
M0 72
L72 72
L72 0
L0 0
z
" style="fill:none;"/>
  </g>
  <g id="axes_1">
   <g id="PatchCollection_1">
    <defs>
     <path d="
M36 -7.5
C43.5583 -7.5 50.808 -10.5029 56.1525 -15.8475
C61.4971 -21.192 64.5 -28.4417 64.5 -36
C64.5 -43.5583 61.4971 -50.808 56.1525 -56.1525
C50.808 -61.4971 43.5583 -64.5 36 -64.5
C28.4417 -64.5 21.192 -61.4971 15.8475 -56.1525
C10.5029 -50.808 7.5 -43.5583 7.5 -36
C7.5 -28.4417 10.5029 -21.192 15.8475 -15.8475
C21.192 -10.5029 28.4417 -7.5 36 -7.5
z
" id="C0_0_a811fe30f3"/>
     <path d="
M64.2186 -33.5248
L64.0361 -33.5692
L63.8533 -33.613
L63.6701 -33.6566
L63.4866 -33.6997
L63.3027 -33.7425
L63.1183 -33.7849
L62.9335 -33.8271
L62.7481 -33.8689
L62.5623 -33.9104
L62.3758 -33.9517
L62.1887 -33.9927
L62.001 -34.0335
L61.8125 -34.0741
L61.6233 -34.1144
L61.4334 -34.1546
L61.2425 -34.1946
L60.8582 -34.2344
L60.6646 -34.274
L60.4699 -34.3136
L60.2742 -34.3529
L60.0773 -34.3922
L59.8792 -34.4314
L59.6799 -34.4705
L59.4793 -34.5095
L59.2774 -34.5485
L59.074 -34.5874
L58.8692 -34.6263
L58.6628 -34.6651
L58.4548 -34.7039
L58.2452 -34.7427
L58.0338 -34.7816
L57.8206 -34.8204
L57.6056 -34.8593
L57.3887 -34.8982
L57.1697 -34.9372
L56.9487 -34.9762
L56.7256 -35.0153
L56.5002 -35.0545
L56.2725 -35.0938
L56.0425 -35.1331
L55.81 -35.1726
L55.575 -35.2123
L55.3374 -35.252
L55.0971 -35.2919
L54.854 -35.332
L54.608 -35.3723
L54.3591 -35.4127
L54.1072 -35.4533
L53.8522 -35.4941
L53.5939 -35.5351
L53.3324 -35.5763
L53.0674 -35.6178
L52.799 -35.6595
L52.527 -35.7014
L52.2513 -35.7436
L51.9719 -35.786
L51.6886 -35.8288
L51.4014 -35.8718
L51.1102 -35.9151
L50.8148 -35.9587
L50.5152 -36.0026
L50.2113 -36.0468
L49.903 -36.0914
L49.5903 -36.1363
L49.273 -36.1815
L48.9511 -36.2271
L48.6245 -36.273
L48.2931 -36.3193
L47.9569 -36.3659
L47.6158 -36.413
L47.2697 -36.4604
L46.9187 -36.5082
L46.5626 -36.5565
L46.2015 -36.6051
L45.8353 -36.6542
L45.464 -36.7037
L45.0877 -36.7536
L44.7063 -36.804
L44.3198 -36.8549
L43.9284 -36.9062
L43.5321 -36.9581
L43.131 -37.0105
L42.7252 -37.0634
L42.3148 -37.117
L41.9 -37.1712
L41.481 -37.226
L41.058 -37.2817
L40.6312 -37.3381
L40.201 -37.3955
L39.7678 -37.4539
L39.3319 -37.5135
L38.8939 -37.5745
L38.4543 -37.6371
L38.0138 -37.7016
L37.5733 -37.7683
L37.1336 -37.8377
L36.6962 -37.9105
L36.2624 -37.9874
L35.8341 -38.0694
L35.4137 -38.1578
L35.0041 -38.2544
L34.609 -38.3614
L34.2331 -38.4817
L33.8817 -38.6188
L33.5608 -38.7773
L33.2761 -38.9617
L33.032 -39.1767
L32.8303 -39.4256
L32.6699 -39.7096
L32.547 -40.0272
L32.4564 -40.3747
L32.3927 -40.7473
L32.351 -41.1398
L32.327 -41.5476
L32.3173 -41.9667
L32.3193 -42.3938
L32.331 -42.8264
L32.3506 -43.2625
L32.377 -43.7003
L32.4092 -44.1386
L32.4463 -44.5763
L32.4878 -45.0125
L32.533 -45.4466
L32.5816 -45.8778
L32.6332 -46.3058
L32.6874 -46.73
L32.7441 -47.1501
L32.803 -47.5659
L32.8638 -47.977
L32.9264 -48.3832
L32.9907 -48.7844
L33.0564 -49.1803
L33.1235 -49.571
L33.1919 -49.9562
L33.2614 -50.3359
L33.332 -50.7101
L33.4035 -51.0787
L33.4759 -51.4416
L33.5491 -51.799
L33.6231 -52.1508
L33.6977 -52.4969
L33.773 -52.8375
L33.8488 -53.1727
L33.9252 -53.5023
L34.002 -53.8265
L34.0793 -54.1454
L34.157 -54.4591
L34.2351 -54.7675
L34.3136 -55.0708
L34.3923 -55.3692
L34.4714 -55.6625
L34.5508 -55.951
L34.6304 -56.2348
L34.7103 -56.5139
L34.7905 -56.7884
L34.8709 -57.0585
L34.9515 -57.3242
L35.0323 -57.5857
L35.1134 -57.8429
L35.1946 -58.0961
L35.2761 -58.3453
L35.3578 -58.5906
L35.4397 -58.8322
L35.5219 -59.07
L35.6042 -59.3043
L35.6868 -59.535
L35.7697 -59.7624
L35.8528 -59.9864
L35.9361 -60.2072
L36.0198 -60.4248
L36.1037 -60.6394
L36.1879 -60.851
L36.2725 -61.0597
L36.3573 -61.2655
L36.4426 -61.4687
L36.5282 -61.6691
L36.6142 -61.867
L36.7006 -62.0624
L36.7874 -62.2553
L36.8747 -62.4458
L36.9624 -62.634
L37.0507 -62.82
L37.1395 -63.0038
L37.2289 -63.1854
L37.3188 -63.365
L37.4094 -63.5426
L37.5005 -63.7182
L37.5924 -63.8919
L37.685 -64.0638
L37.7783 -64.2339
L38.2771 -64.4022
L38.7726 -64.4089
L39.2672 -64.3648
L39.7608 -64.3121
L40.2533 -64.2508
L40.7444 -64.1808
L41.2342 -64.1023
L41.7223 -64.0152
L42.2087 -63.9196
L42.6932 -63.8155
L43.1757 -63.7029
L43.6559 -63.5819
L44.1339 -63.4524
L44.6094 -63.3146
L45.0822 -63.1685
L45.5523 -63.0141
L46.0194 -62.8515
L46.4836 -62.6807
L46.9445 -62.5018
L47.4021 -62.3148
L47.8562 -62.1198
L48.3067 -61.9168
L48.7535 -61.7059
L49.1963 -61.4872
L49.6352 -61.2608
L50.0699 -61.0266
L50.5003 -60.7848
L50.9263 -60.5355
L51.3477 -60.2787
L51.7645 -60.0145
L52.1765 -59.743
L52.5835 -59.4643
L52.9855 -59.1784
L53.3823 -58.8854
L53.7739 -58.5855
L54.16 -58.2787
L54.5405 -57.9651
L54.9155 -57.6448
L55.2846 -57.3179
L55.6479 -56.9846
L56.0052 -56.6448
L56.3565 -56.2988
L56.7015 -55.9465
L57.0402 -55.5882
L57.3725 -55.224
L57.6983 -54.8538
L58.0175 -54.478
L58.3299 -54.0965
L58.6356 -53.7094
L58.9344 -53.317
L59.2262 -52.9194
L59.5109 -52.5165
L59.7884 -52.1086
L60.0587 -51.6959
L60.3217 -51.2783
L60.5773 -50.8561
L60.8254 -50.4294
L61.0659 -49.9982
L61.2988 -49.5628
L61.524 -49.1233
L61.7414 -48.6798
L61.9509 -48.2324
L62.1526 -47.7813
L62.3463 -47.3266
L62.532 -46.8684
L62.7095 -46.407
L62.879 -45.9424
L63.0403 -45.4747
L63.1933 -45.0041
L63.338 -44.5309
L63.4744 -44.055
L63.6025 -43.5766
L63.7221 -43.096
L63.8333 -42.6132
L63.936 -42.1283
L64.0302 -41.6417
L64.1159 -41.1532
L64.193 -40.6633
L64.2615 -40.1719
L64.3214 -39.6792
L64.3727 -39.1854
L64.4153 -38.6906
L64.4493 -38.1951
L64.4746 -37.6988
L64.4913 -37.202
L64.4992 -36.7049
L64.4985 -36.2076
L64.4891 -35.7101
L64.471 -35.2128
L64.4443 -34.7157
z
" id="C0_1_9d9cef7810"/>
     <path d="
M34.1446 -7.69147
L34.074 -7.87015
L34.0045 -8.04975
L33.936 -8.23032
L33.8686 -8.41189
L33.8022 -8.59451
L33.7368 -8.77822
L33.6723 -8.96306
L33.6087 -9.14908
L33.5459 -9.33632
L33.484 -9.52484
L33.423 -9.71467
L33.3627 -9.90588
L33.3033 -10.0985
L33.2445 -10.2926
L33.1865 -10.4883
L33.1293 -10.6855
L33.0727 -10.8844
L33.0167 -11.085
L32.9615 -11.2874
L32.9069 -11.4916
L32.8529 -11.6977
L32.7995 -11.9058
L32.7467 -12.1158
L32.6946 -12.328
L32.643 -12.5424
L32.5919 -12.759
L32.5414 -12.9779
L32.4915 -13.1992
L32.4421 -13.423
L32.3933 -13.6493
L32.3449 -13.8783
L32.2971 -14.1099
L32.2499 -14.3443
L32.2031 -14.5816
L32.1569 -14.8219
L32.1112 -15.0652
L32.066 -15.3116
L32.0213 -15.5613
L31.9771 -15.8142
L31.9335 -16.0706
L31.8904 -16.3304
L31.8478 -16.5939
L31.8058 -16.861
L31.7643 -17.1319
L31.7234 -17.4067
L31.6831 -17.6854
L31.6433 -17.9682
L31.6041 -18.2552
L31.5655 -18.5464
L31.5276 -18.8419
L31.4902 -19.1419
L31.4535 -19.4464
L31.4175 -19.7555
L31.3822 -20.0693
L31.3475 -20.3879
L31.3136 -20.7114
L31.2804 -21.0397
L31.248 -21.3731
L31.2163 -21.7116
L31.1855 -22.0552
L31.1554 -22.404
L31.1262 -22.758
L31.0979 -23.1172
L31.0704 -23.4818
L31.0438 -23.8517
L31.0182 -24.2269
L30.9934 -24.6074
L30.9696 -24.9931
L30.9467 -25.3841
L30.9248 -25.7804
L30.9038 -26.1817
L30.8837 -26.588
L30.8644 -26.9993
L30.846 -27.4153
L30.8285 -27.8359
L30.8116 -28.2609
L30.7954 -28.69
L30.7796 -29.123
L30.7642 -29.5595
L30.749 -29.9992
L30.7336 -30.4416
L30.7177 -30.8862
L30.701 -31.3323
L30.6828 -31.7793
L30.6624 -32.2261
L30.639 -32.6718
L30.6114 -33.115
L30.5779 -33.5541
L30.5366 -33.9869
L30.4849 -34.4109
L30.4193 -34.8227
L30.3357 -35.2185
L30.2289 -35.5934
L30.0934 -35.9424
L29.9237 -36.2604
L29.7159 -36.5438
L29.4685 -36.7908
L29.1829 -37.0027
L28.8633 -37.1827
L28.515 -37.3353
L28.1438 -37.4653
L27.7551 -37.5768
L27.3533 -37.6737
L26.942 -37.7587
L26.5241 -37.834
L26.1019 -37.9016
L25.6773 -37.9626
L25.2517 -38.0182
L24.8263 -38.0691
L24.4021 -38.116
L23.9797 -38.1593
L23.5599 -38.1996
L23.1432 -38.237
L22.7301 -38.2719
L22.3209 -38.3046
L21.916 -38.3351
L21.5157 -38.3636
L21.12 -38.3903
L20.7294 -38.4154
L20.3438 -38.4388
L19.9635 -38.4607
L19.5885 -38.4811
L19.2189 -38.5002
L18.8547 -38.518
L18.496 -38.5346
L18.1429 -38.5499
L17.7952 -38.5642
L17.4531 -38.5773
L17.1164 -38.5894
L16.7851 -38.6005
L16.4593 -38.6106
L16.1388 -38.6197
L15.8236 -38.628
L15.5136 -38.6354
L15.2088 -38.6419
L14.909 -38.6477
L14.6142 -38.6526
L14.3243 -38.6568
L14.0392 -38.6602
L13.7589 -38.6629
L13.4831 -38.665
L13.2119 -38.6663
L12.9452 -38.667
L12.6827 -38.667
L12.4245 -38.6664
L12.1705 -38.6652
L11.9204 -38.6634
L11.6744 -38.6611
L11.4321 -38.6581
L11.1936 -38.6546
L10.9588 -38.6506
L10.7275 -38.646
L10.4997 -38.6409
L10.2752 -38.6353
L10.054 -38.6292
L9.83601 -38.6225
L9.6211 -38.6154
L9.4092 -38.6078
L9.20022 -38.5997
L8.99409 -38.5911
L8.79071 -38.582
L8.59 -38.5725
L8.39189 -38.5625
L8.19631 -38.552
L8.00317 -38.541
L7.8124 -38.5296
L7.57189 -38.5177
L7.54091 -38.023
L7.5186 -37.5265
L7.50497 -37.0296
L7.50002 -36.5324
L7.50375 -36.035
L7.51616 -35.5376
L7.53725 -35.0403
L7.56701 -34.5434
L7.60542 -34.0468
L7.65249 -33.5509
L7.70819 -33.0557
L7.77251 -32.5614
L7.84543 -32.0682
L7.92693 -31.5762
L8.01697 -31.0855
L8.11554 -30.5963
L8.2226 -30.1087
L8.33813 -29.623
L8.46208 -29.1392
L8.59442 -28.6575
L8.73511 -28.178
L8.8841 -27.7009
L9.04135 -27.2263
L9.20682 -26.7544
L9.38044 -26.2853
L9.56218 -25.8192
L9.75196 -25.3562
L9.94975 -24.8964
L10.1555 -24.44
L10.3691 -23.9871
L10.5905 -23.5379
L10.8196 -23.0925
L11.0564 -22.651
L11.3008 -22.2135
L11.5527 -21.7803
L11.8121 -21.3514
L12.0789 -20.927
L12.3529 -20.5071
L12.6341 -20.092
L12.9225 -19.6817
L13.2179 -19.2764
L13.5202 -18.8762
L13.8293 -18.4812
L14.1453 -18.0916
L14.4678 -17.7074
L14.797 -17.3287
L15.1326 -16.9558
L15.4745 -16.5886
L15.8227 -16.2274
L16.1771 -15.8722
L16.5375 -15.5231
L16.9038 -15.1803
L17.2759 -14.8438
L17.6538 -14.5137
L18.0372 -14.1902
L18.4261 -13.8734
L18.8203 -13.5632
L19.2198 -13.26
L19.6244 -12.9636
L20.034 -12.6742
L20.4485 -12.392
L20.8676 -12.117
L21.2914 -11.8492
L21.7197 -11.5888
L22.1523 -11.3358
L22.5892 -11.0903
L23.0301 -10.8524
L23.475 -10.6222
L23.9237 -10.3997
L24.3761 -10.185
L24.832 -9.9782
L25.2913 -9.7793
L25.7539 -9.58838
L26.2196 -9.40551
L26.6882 -9.23075
L27.1598 -9.06413
L27.634 -8.90572
L28.1107 -8.75556
L28.5899 -8.6137
L29.0713 -8.48019
L29.5548 -8.35506
L30.0403 -8.23834
L30.5276 -8.13009
L31.0166 -8.03032
L31.5071 -7.93907
L31.9989 -7.85638
L32.492 -7.78225
L32.9862 -7.71672
L33.4812 -7.6598
z
" id="C0_2_f2df4a55c2"/>
    </defs>
    <g clip-path="url(#p1bffca34e9)">
     <use style="fill:#ff0000;stroke:#000000;stroke-width:2.0;" x="0.0" xlink:href="#C0_0_a811fe30f3" y="72.0"/>
    </g>
    <g clip-path="url(#p1bffca34e9)">
     <use style="fill:#ffffff;stroke:#000000;stroke-width:2.0;" x="0.0" xlink:href="#C0_1_9d9cef7810" y="72.0"/>
    </g>
    <g clip-path="url(#p1bffca34e9)">
     <use style="fill:#ffffff;stroke:#000000;stroke-width:2.0;" x="0.0" xlink:href="#C0_2_f2df4a55c2" y="72.0"/>
    </g>
   </g>
  </g>
 </g>
 <defs>
  <clipPath id="p1bffca34e9">
   <rect height="72.0" width="72.0" x="0.0" y="0.0"/>
  </clipPath>
 </defs>
</svg>
