<?xml version="1.0" encoding="utf-8" standalone="no"?>
<!DOCTYPE svg PUBLIC "-//W3C//DTD SVG 1.1//EN"
  "http://www.w3.org/Graphics/SVG/1.1/DTD/svg11.dtd">
<!-- Created with matplotlib (http://matplotlib.org/) -->
<svg height="72pt" version="1.1" viewBox="0 0 72 72" width="72pt" xmlns="http://www.w3.org/2000/svg" xmlns:xlink="http://www.w3.org/1999/xlink">
 <defs>
  <style type="text/css">
*{stroke-linecap:butt;stroke-linejoin:round;}
  </style>
 </defs>
 <g id="figure_1">
  <g id="patch_1">
   <path d="
M0 72
L72 72
L72 0
L0 0
z
" style="fill:none;"/>
  </g>
  <g id="axes_1">
   <g id="PatchCollection_1">
    <defs>
     <path d="
M36 -7.5
C43.5583 -7.5 50.808 -10.5029 56.1525 -15.8475
C61.4971 -21.192 64.5 -28.4417 64.5 -36
C64.5 -43.5583 61.4971 -50.808 56.1525 -56.1525
C50.808 -61.4971 43.5583 -64.5 36 -64.5
C28.4417 -64.5 21.192 -61.4971 15.8475 -56.1525
C10.5029 -50.808 7.5 -43.5583 7.5 -36
C7.5 -28.4417 10.5029 -21.192 15.8475 -15.8475
C21.192 -10.5029 28.4417 -7.5 36 -7.5
z
" id="C0_0_a811fe30f3"/>
     <path d="
M13.3727 -18.7478
L13.2732 -19.1237
L13.189 -19.4953
L13.1201 -19.862
L13.0665 -20.2234
L13.0282 -20.5788
L13.005 -20.9278
L12.9967 -21.27
L13.0032 -21.6051
L13.0241 -21.9326
L13.0593 -22.2524
L13.1083 -22.5643
L13.1708 -22.8681
L13.2464 -23.1636
L13.3347 -23.4509
L13.4353 -23.7298
L13.5475 -24.0006
L13.671 -24.2632
L13.8053 -24.5177
L13.9499 -24.7643
L14.1042 -25.0033
L14.2677 -25.2347
L14.44 -25.4587
L14.6205 -25.6757
L14.8087 -25.8859
L15.0042 -26.0894
L15.2065 -26.2867
L15.4152 -26.4778
L15.6297 -26.6631
L15.8497 -26.8428
L16.0748 -27.0172
L16.3046 -27.1865
L16.5386 -27.3509
L16.7767 -27.5106
L17.0184 -27.6659
L17.2634 -27.817
L17.5114 -27.9641
L17.7621 -28.1073
L18.0152 -28.2469
L18.2706 -28.383
L18.528 -28.5157
L18.7871 -28.6453
L19.0477 -28.7719
L19.3097 -28.8955
L19.5728 -29.0165
L19.837 -29.1348
L20.1019 -29.2505
L20.3676 -29.3639
L20.6338 -29.475
L20.9004 -29.5838
L21.1674 -29.6906
L21.4346 -29.7953
L21.7019 -29.8981
L21.9692 -29.999
L22.2365 -30.0982
L22.5036 -30.1957
L22.7705 -30.2915
L23.0372 -30.3857
L23.3036 -30.4784
L23.5697 -30.5697
L23.8353 -30.6595
L24.1005 -30.748
L24.3653 -30.8352
L24.6296 -30.9212
L24.8934 -31.0059
L25.1566 -31.0895
L25.4193 -31.172
L25.6815 -31.2533
L25.9432 -31.3337
L26.2042 -31.413
L26.4648 -31.4913
L26.7247 -31.5687
L26.9841 -31.6453
L27.243 -31.7209
L27.5014 -31.7957
L27.7592 -31.8696
L28.0166 -31.9428
L28.2734 -32.0152
L28.5298 -32.0869
L28.7858 -32.1579
L29.0413 -32.2282
L29.2964 -32.2978
L29.5512 -32.3668
L29.8056 -32.4351
L30.0596 -32.5029
L30.3134 -32.57
L30.5669 -32.6366
L30.8202 -32.7027
L31.0732 -32.7682
L31.3261 -32.8332
L31.5789 -32.8977
L31.8315 -32.9618
L32.084 -33.0253
L32.3365 -33.0884
L32.589 -33.1511
L32.8415 -33.2134
L33.0941 -33.2752
L33.3468 -33.3366
L33.8526 -33.3977
L34.1058 -33.4583
L34.3592 -33.5186
L34.6129 -33.5786
L34.867 -33.6381
L35.1213 -33.6974
L35.3761 -33.7563
L35.6313 -33.8149
L35.887 -33.8731
L36.1432 -33.931
L36.4 -33.9886
L36.6573 -34.0459
L36.9152 -34.1029
L37.1738 -34.1596
L37.4331 -34.216
L37.6932 -34.272
L37.954 -34.3278
L38.2156 -34.3833
L38.478 -34.4384
L38.7413 -34.4933
L39.0055 -34.5478
L39.2707 -34.602
L39.5368 -34.6558
L39.804 -34.7094
L40.0721 -34.7626
L40.3414 -34.8154
L40.6117 -34.8678
L40.8832 -34.9199
L41.1558 -34.9716
L41.4296 -35.0228
L41.7046 -35.0736
L41.9808 -35.124
L42.2582 -35.1738
L42.5369 -35.2232
L42.8169 -35.272
L43.0982 -35.3203
L43.3808 -35.3679
L43.6647 -35.4149
L43.9498 -35.4612
L44.2364 -35.5068
L44.5242 -35.5516
L44.8133 -35.5957
L45.1038 -35.6388
L45.3955 -35.681
L45.6885 -35.7222
L45.9828 -35.7623
L46.2784 -35.8013
L46.5751 -35.8391
L46.873 -35.8756
L47.172 -35.9106
L47.4722 -35.9442
L47.7733 -35.9762
L48.0755 -36.0065
L48.3786 -36.035
L48.6825 -36.0615
L48.9871 -36.0859
L49.2925 -36.1081
L49.5985 -36.1279
L49.9049 -36.1452
L50.2117 -36.1597
L50.5188 -36.1713
L50.826 -36.1798
L51.1332 -36.1849
L51.4402 -36.1866
L51.7469 -36.1844
L52.0531 -36.1782
L52.3586 -36.1677
L52.6633 -36.1526
L52.9669 -36.1327
L53.2692 -36.1076
L53.57 -36.0771
L53.869 -36.0407
L54.166 -35.9981
L54.4608 -35.9491
L54.753 -35.8932
L55.0424 -35.83
L55.3287 -35.7592
L55.6115 -35.6804
L55.8906 -35.5933
L56.1656 -35.4973
L56.4361 -35.3922
L56.7019 -35.2775
L56.9626 -35.153
L57.2179 -35.0183
L57.4673 -34.873
L57.7105 -34.7169
L57.9472 -34.5497
L58.177 -34.3712
L58.3995 -34.1812
L58.6145 -33.9795
L58.8215 -33.7662
L59.0203 -33.5411
L59.2105 -33.3044
L59.392 -33.0559
L59.5642 -32.796
L59.7272 -32.5247
L59.8805 -32.2423
L60.024 -31.9491
L60.1575 -31.6454
L60.2807 -31.3315
L60.3937 -31.008
L60.4962 -30.6753
L60.5881 -30.3338
L60.6695 -29.984
L60.7401 -29.6264
L60.8 -29.2617
L60.8491 -28.8903
L60.8875 -28.5127
L60.9152 -28.1297
L60.9323 -27.7416
L60.9387 -27.3491
L60.9346 -26.9526
L60.9201 -26.5528
L60.8953 -26.1502
L60.8602 -25.7451
L60.815 -25.3383
L60.76 -24.93
L60.6951 -24.5208
L60.6206 -24.1111
L60.5366 -23.7013
L60.4433 -23.2918
L60.3409 -22.883
L60.2296 -22.4753
L60.1095 -22.0689
L59.9808 -21.6643
L59.8437 -21.2617
L59.6985 -20.8614
L59.5452 -20.4637
L59.3221 -20.0688
L59.0327 -19.6192
L58.7362 -19.2147
L58.4328 -18.8153
L58.1226 -18.4211
L57.8057 -18.0323
L57.4821 -17.6489
L57.152 -17.2711
L56.8154 -16.8991
L56.4725 -16.5328
L56.1233 -16.1725
L55.768 -15.8183
L55.4067 -15.4701
L55.0395 -15.1283
L54.6665 -14.7927
L54.2878 -14.4637
L53.9035 -14.1412
L53.5138 -13.8254
L53.1187 -13.5163
L52.7184 -13.214
L52.3131 -12.9187
L51.9027 -12.6305
L51.4875 -12.3493
L51.0676 -12.0754
L50.6431 -11.8088
L50.2142 -11.5495
L49.7809 -11.2976
L49.3434 -11.0533
L48.9019 -10.8166
L48.4564 -10.5876
L48.0072 -10.3663
L47.5542 -10.1528
L47.0978 -9.94717
L46.638 -9.74949
L46.1749 -9.55981
L45.7087 -9.37818
L45.2396 -9.20465
L44.7677 -9.03929
L44.2931 -8.88215
L43.8159 -8.73326
L43.3364 -8.59268
L42.8547 -8.46045
L42.3708 -8.3366
L41.8851 -8.22119
L41.3975 -8.11423
L40.9083 -8.01577
L40.4176 -7.92583
L39.9255 -7.84445
L39.4323 -7.77164
L38.938 -7.70743
L38.4428 -7.65184
L37.9468 -7.60488
L37.4503 -7.56657
L36.9533 -7.53693
L36.4561 -7.51595
L35.9587 -7.50365
L35.4613 -7.50003
L34.9641 -7.50509
L34.4672 -7.51883
L33.9707 -7.54125
L33.4749 -7.57234
L32.9798 -7.61208
L32.4857 -7.66048
L31.9926 -7.7175
L31.5008 -7.78314
L31.0103 -7.85738
L30.5214 -7.94018
L30.0341 -8.03154
L29.5486 -8.13141
L29.0651 -8.23978
L28.5837 -8.3566
L28.1046 -8.48184
L27.6279 -8.61546
L27.1537 -8.75743
L26.6822 -8.90769
L26.2136 -9.0662
L25.7479 -9.23292
L25.2854 -9.4078
L24.8261 -9.59077
L24.3703 -9.78179
L23.9179 -9.98079
L23.4693 -10.1877
L23.0245 -10.4025
L22.5836 -10.6251
L22.1468 -10.8554
L21.7142 -11.0934
L21.286 -11.339
L20.8623 -11.592
L20.4431 -11.8526
L20.0288 -12.1204
L19.6192 -12.3956
L19.2147 -12.6779
L18.8153 -12.9673
L18.4211 -13.2638
L18.0323 -13.5672
L17.6489 -13.8774
L17.2711 -14.1943
L16.8991 -14.5179
L16.5328 -14.848
L16.1725 -15.1846
L15.8183 -15.5275
L15.4701 -15.8767
L15.1283 -16.232
L14.7927 -16.5933
L14.4637 -16.9605
L14.1412 -17.3335
L13.8254 -17.7122
z
" id="C0_1_1812d66a41"/>
     <path d="
M12.6449 -52.3027
L12.955 -52.5888
L13.2666 -52.8696
L13.5797 -53.1448
L13.8942 -53.4147
L14.2098 -53.679
L14.5266 -53.9379
L14.8444 -54.1914
L15.1631 -54.4394
L15.4827 -54.682
L15.803 -54.9193
L16.124 -55.1513
L16.4457 -55.378
L16.7679 -55.5994
L17.0905 -55.8157
L17.4136 -56.0269
L17.7371 -56.2329
L18.0609 -56.434
L18.3849 -56.6301
L18.7092 -56.8214
L19.0337 -57.0078
L19.3584 -57.1894
L19.6832 -57.3664
L20.0081 -57.5387
L20.3332 -57.7065
L20.6583 -57.8697
L20.9834 -58.0285
L21.3086 -58.1829
L21.6339 -58.333
L21.9592 -58.4789
L22.2846 -58.6205
L22.61 -58.758
L22.9354 -58.8914
L23.2609 -59.0208
L23.5864 -59.1462
L23.912 -59.2676
L24.2377 -59.3852
L24.5635 -59.4989
L24.8894 -59.6089
L25.2154 -59.7151
L25.5416 -59.8176
L25.8679 -59.9164
L26.1945 -60.0116
L26.5212 -60.1032
L26.8482 -60.1913
L27.1755 -60.2758
L27.503 -60.3568
L27.8309 -60.4344
L28.1591 -60.5085
L28.4877 -60.5792
L28.8167 -60.6464
L29.1461 -60.7103
L29.4761 -60.7708
L29.8065 -60.8279
L30.1375 -60.8817
L30.469 -60.9321
L30.8012 -60.9792
L31.134 -61.023
L31.4674 -61.0634
L31.8016 -61.1005
L32.1365 -61.1343
L32.4722 -61.1647
L32.8087 -61.1918
L33.1461 -61.2155
L33.4843 -61.2359
L33.8234 -61.2528
L34.1635 -61.2664
L34.5046 -61.2765
L34.8466 -61.2832
L35.1897 -61.2864
L35.5339 -61.2862
L35.8792 -61.2824
L36.2256 -61.2751
L36.5731 -61.2642
L36.9218 -61.2497
L37.2717 -61.2316
L37.6228 -61.2097
L37.9752 -61.1842
L38.3288 -61.1549
L38.6837 -61.1218
L39.0399 -61.0849
L39.3974 -61.044
L39.7562 -60.9993
L40.1163 -60.9505
L40.4778 -60.8977
L40.8406 -60.8409
L41.2047 -60.7799
L41.5701 -60.7148
L41.9368 -60.6454
L42.3048 -60.5718
L42.6741 -60.4939
L43.0446 -60.4115
L43.4164 -60.3248
L43.7894 -60.2336
L44.1636 -60.138
L44.5389 -60.0378
L44.9152 -59.933
L45.2927 -59.8236
L45.6711 -59.7095
L46.0504 -59.5908
L46.4306 -59.4675
L46.8116 -59.3394
L47.1933 -59.2066
L47.5756 -59.0691
L47.9584 -58.9269
L48.3417 -58.78
L48.7253 -58.6285
L49.1091 -58.4724
L49.4931 -58.3116
L49.877 -58.1464
L50.2609 -57.9768
L50.6444 -57.8028
L51.0275 -57.6245
L51.4101 -57.4422
L51.792 -57.2559
L52.173 -57.0658
L52.553 -56.872
L52.9319 -56.6749
L53.3094 -56.4745
L53.6854 -56.2712
L54.0597 -56.0652
L54.4322 -55.8568
L54.8027 -55.6464
L55.1711 -55.4342
L55.537 -55.2206
L55.9005 -55.0061
L56.2613 -54.791
L56.6194 -54.5758
L56.9744 -54.3609
L57.3263 -54.1468
L57.675 -53.934
L58.0203 -53.7228
L58.1274 -53.514
L57.8105 -53.9619
L57.487 -54.3453
L57.157 -54.7232
L56.8205 -55.0953
L56.4777 -55.4617
L56.1286 -55.8221
L55.7734 -56.1764
L55.4122 -56.5247
L55.0451 -56.8666
L54.6721 -57.2022
L54.2935 -57.5314
L53.9093 -57.854
L53.5197 -58.1699
L53.1247 -58.4791
L52.7245 -58.7815
L52.3192 -59.0768
L51.9089 -59.3652
L51.4938 -59.6465
L51.074 -59.9205
L50.6496 -60.1873
L50.2207 -60.4467
L49.7875 -60.6986
L49.3501 -60.943
L48.9086 -61.1799
L48.4632 -61.409
L48.014 -61.6304
L47.5611 -61.844
L47.1047 -62.0498
L46.6449 -62.2476
L46.1819 -62.4374
L45.7158 -62.6191
L45.2467 -62.7928
L44.7748 -62.9583
L44.3002 -63.1155
L43.8231 -63.2646
L43.3437 -63.4053
L42.8619 -63.5376
L42.3781 -63.6616
L41.8924 -63.7771
L41.4048 -63.8842
L40.9157 -63.9828
L40.425 -64.0729
L39.9329 -64.1544
L39.4397 -64.2273
L38.9454 -64.2917
L38.4502 -64.3474
L37.9543 -64.3945
L37.4578 -64.4329
L36.9608 -64.4627
L36.4636 -64.4838
L35.9662 -64.4962
L35.4688 -64.5
L34.9716 -64.495
L34.4746 -64.4814
L33.9782 -64.4592
L33.4824 -64.4282
L32.9873 -64.3886
L32.4932 -64.3403
L32.0001 -64.2834
L31.5082 -64.2179
L31.0177 -64.1438
L30.5287 -64.0611
L30.0414 -63.9699
L29.5559 -63.8702
L29.0724 -63.7619
L28.591 -63.6452
L28.1118 -63.5201
L27.6351 -63.3866
L27.1609 -63.2448
L26.6893 -63.0946
L26.2206 -62.9362
L25.7549 -62.7697
L25.2924 -62.5949
L24.833 -62.4121
L24.3771 -62.2212
L23.9247 -62.0223
L23.476 -61.8155
L23.0311 -61.6008
L22.5902 -61.3783
L22.1534 -61.1481
L21.7207 -60.9102
L21.2924 -60.6648
L20.8686 -60.4118
L20.4494 -60.1514
L20.035 -59.8837
L19.6254 -59.6086
L19.2208 -59.3264
L18.8213 -59.0371
L18.427 -58.7407
L18.0381 -58.4375
L17.6547 -58.1274
L17.2768 -57.8105
L16.9047 -57.487
L16.5383 -57.157
L16.1779 -56.8205
L15.8236 -56.4777
L15.4753 -56.1286
L15.1334 -55.7734
L14.7978 -55.4122
L14.4686 -55.0451
L14.146 -54.6721
L13.8301 -54.2935
L13.5209 -53.9093
L13.2185 -53.5197
L12.9232 -53.1247
z
" id="C0_2_46451aca15"/>
    </defs>
    <g clip-path="url(#p1bffca34e9)">
     <use style="fill:#ff0000;stroke:#000000;stroke-width:2.0;" x="0.0" xlink:href="#C0_0_a811fe30f3" y="72.0"/>
    </g>
    <g clip-path="url(#p1bffca34e9)">
     <use style="fill:#ffffff;stroke:#000000;stroke-width:2.0;" x="0.0" xlink:href="#C0_1_1812d66a41" y="72.0"/>
    </g>
    <g clip-path="url(#p1bffca34e9)">
     <use style="fill:#ffffff;stroke:#000000;stroke-width:2.0;" x="0.0" xlink:href="#C0_2_46451aca15" y="72.0"/>
    </g>
   </g>
  </g>
 </g>
 <defs>
  <clipPath id="p1bffca34e9">
   <rect height="72.0" width="72.0" x="0.0" y="0.0"/>
  </clipPath>
 </defs>
</svg>
