<?xml version="1.0" encoding="utf-8" standalone="no"?>
<!DOCTYPE svg PUBLIC "-//W3C//DTD SVG 1.1//EN"
  "http://www.w3.org/Graphics/SVG/1.1/DTD/svg11.dtd">
<!-- Created with matplotlib (http://matplotlib.org/) -->
<svg height="72pt" version="1.1" viewBox="0 0 72 72" width="72pt" xmlns="http://www.w3.org/2000/svg" xmlns:xlink="http://www.w3.org/1999/xlink">
 <defs>
  <style type="text/css">
*{stroke-linecap:butt;stroke-linejoin:round;}
  </style>
 </defs>
 <g id="figure_1">
  <g id="patch_1">
   <path d="
M0 72
L72 72
L72 0
L0 0
z
" style="fill:none;"/>
  </g>
  <g id="axes_1">
   <g id="PatchCollection_1">
    <defs>
     <path d="
M36 -7.5
C43.5583 -7.5 50.808 -10.5029 56.1525 -15.8475
C61.4971 -21.192 64.5 -28.4417 64.5 -36
C64.5 -43.5583 61.4971 -50.808 56.1525 -56.1525
C50.808 -61.4971 43.5583 -64.5 36 -64.5
C28.4417 -64.5 21.192 -61.4971 15.8475 -56.1525
C10.5029 -50.808 7.5 -43.5583 7.5 -36
C7.5 -28.4417 10.5029 -21.192 15.8475 -15.8475
C21.192 -10.5029 28.4417 -7.5 36 -7.5
z
" id="C0_0_a811fe30f3"/>
     <path d="
M60.546 -21.6242
L60.294 -21.6447
L60.043 -21.6667
L59.793 -21.6902
L59.544 -21.7152
L59.296 -21.7417
L59.0491 -21.7695
L58.8033 -21.7986
L58.5586 -21.8291
L58.315 -21.8608
L58.0724 -21.8938
L57.831 -21.928
L57.5906 -21.9634
L57.3512 -21.9999
L57.1129 -22.0375
L56.8757 -22.0761
L56.6394 -22.1159
L56.4041 -22.1566
L56.1698 -22.1984
L55.9364 -22.2411
L55.7039 -22.2848
L55.4722 -22.3294
L55.2414 -22.3749
L55.0114 -22.4213
L54.7822 -22.4685
L54.5537 -22.5167
L54.3258 -22.5657
L54.0987 -22.6155
L53.8721 -22.6661
L53.6461 -22.7176
L53.4207 -22.7698
L53.1957 -22.8229
L52.9711 -22.8767
L52.747 -22.9314
L52.5232 -22.9868
L52.2998 -23.043
L52.0766 -23.1
L51.8536 -23.1577
L51.6308 -23.2163
L51.4081 -23.2756
L51.1855 -23.3357
L50.9629 -23.3966
L50.7403 -23.4583
L50.5176 -23.5208
L50.2948 -23.5841
L50.0718 -23.6482
L49.8487 -23.7131
L49.4014 -23.7789
L49.1773 -23.8455
L48.9527 -23.913
L48.7277 -23.9813
L48.5021 -24.0505
L48.2759 -24.1206
L48.0491 -24.1916
L47.8216 -24.2636
L47.5934 -24.3364
L47.3644 -24.4103
L47.1345 -24.4851
L46.9037 -24.5609
L46.6719 -24.6377
L46.4391 -24.7155
L46.2052 -24.7944
L45.9702 -24.8744
L45.734 -24.9555
L45.4965 -25.0377
L45.2578 -25.121
L45.0176 -25.2055
L44.7761 -25.2912
L44.533 -25.3782
L44.2884 -25.4664
L44.0423 -25.5558
L43.7944 -25.6466
L43.5448 -25.7387
L43.2935 -25.8322
L43.0403 -25.927
L42.7852 -26.0233
L42.5281 -26.121
L42.269 -26.2202
L42.0079 -26.3209
L41.7446 -26.4232
L41.4792 -26.527
L41.2115 -26.6325
L40.9415 -26.7395
L40.6691 -26.8483
L40.3943 -26.9587
L40.1171 -27.0708
L39.8374 -27.1847
L39.5551 -27.3004
L39.2702 -27.4179
L38.9827 -27.5372
L38.6925 -27.6583
L38.3996 -27.7813
L38.1039 -27.9062
L37.8055 -28.033
L37.5042 -28.1618
L37.2001 -28.2924
L36.8931 -28.425
L36.5832 -28.5594
L36.2705 -28.6958
L35.9549 -28.8341
L35.6364 -28.9743
L35.3151 -29.1164
L34.9909 -29.2603
L34.6639 -29.4059
L34.3341 -29.5533
L34.0015 -29.7023
L33.6663 -29.8529
L33.3284 -30.005
L32.9879 -30.1585
L32.645 -30.3131
L32.2997 -30.4689
L31.9522 -30.6255
L31.6024 -30.7829
L31.2507 -30.9407
L30.8971 -31.0987
L30.5418 -31.2566
L30.1849 -31.4141
L29.8268 -31.5707
L29.4675 -31.7261
L29.1073 -31.8798
L28.7465 -32.0311
L28.3854 -32.1795
L28.0241 -32.3243
L27.6631 -32.4647
L27.3027 -32.5999
L26.9432 -32.7288
L26.585 -32.8505
L26.2285 -32.9638
L25.874 -33.0675
L25.5221 -33.1603
L25.1732 -33.2407
L24.8278 -33.3072
L24.4862 -33.3585
L24.149 -33.393
L23.8166 -33.4093
L23.4895 -33.4062
L23.1681 -33.3825
L22.8527 -33.3374
L22.5438 -33.2702
L22.2415 -33.1807
L21.9462 -33.0688
L21.658 -32.9349
L21.3771 -32.7797
L21.1037 -32.6041
L20.8378 -32.4092
L20.5795 -32.1961
L20.3288 -31.9664
L20.0857 -31.7212
L19.8503 -31.4622
L19.6224 -31.1905
L19.4022 -30.9077
L19.1895 -30.6148
L18.9844 -30.3131
L18.7867 -30.0037
L18.5965 -29.6876
L18.4136 -29.3657
L18.2381 -29.039
L18.0698 -28.7081
L17.9086 -28.3738
L17.7545 -28.0367
L17.6074 -27.6975
L17.4673 -27.3566
L17.3339 -27.0146
L17.2073 -26.6718
L17.0873 -26.3287
L16.9738 -25.9856
L16.8668 -25.6428
L16.7661 -25.3007
L16.6716 -24.9594
L16.5832 -24.6193
L16.5008 -24.2804
L16.4242 -23.943
L16.3535 -23.6072
L16.2885 -23.2733
L16.229 -22.9412
L16.1749 -22.6111
L16.1262 -22.2832
L16.0828 -21.9574
L16.0445 -21.6338
L16.0113 -21.3125
L15.9831 -20.9936
L15.9596 -20.677
L15.941 -20.3628
L15.9271 -20.051
L15.9177 -19.7416
L15.9129 -19.4347
L15.9125 -19.1301
L15.9165 -18.8279
L15.9247 -18.5281
L15.9372 -18.2307
L15.9539 -17.9356
L15.9747 -17.6429
L15.9995 -17.3524
L16.0283 -17.0641
L16.0611 -16.7781
L16.0978 -16.4943
L16.1383 -16.2125
L16.1827 -15.9329
L16.4731 -15.6554
L16.8384 -15.2406
L17.2095 -14.903
L17.5863 -14.5718
L17.9688 -14.2471
L18.3567 -13.9291
L18.75 -13.6178
L19.1486 -13.3133
L19.5523 -13.0157
L19.961 -12.7251
L20.3746 -12.4416
L20.7929 -12.1652
L21.2159 -11.8962
L21.6434 -11.6344
L22.0753 -11.3801
L22.5114 -11.1333
L22.9516 -10.8941
L23.3958 -10.6625
L23.8438 -10.4386
L24.2955 -10.2225
L24.7508 -10.0143
L25.2096 -9.814
L25.6716 -9.62167
L26.1367 -9.43736
L26.6049 -9.26115
L27.0759 -9.09309
L27.5496 -8.93322
L28.026 -8.78159
L28.5047 -8.63826
L28.9857 -8.50326
L29.4689 -8.37664
L29.954 -8.25843
L30.441 -8.14867
L30.9297 -8.0474
L31.42 -7.95464
L31.9116 -7.87042
L32.4045 -7.79477
L32.8984 -7.72772
L33.3933 -7.66927
L33.889 -7.61946
L34.3854 -7.57829
L34.8822 -7.54577
L35.3794 -7.52193
L35.8768 -7.50676
L36.3742 -7.50027
L36.8715 -7.50246
L37.3685 -7.51333
L37.8651 -7.53288
L38.3612 -7.56109
L38.8565 -7.59798
L39.3509 -7.64351
L39.8444 -7.69768
L40.3366 -7.76048
L40.8276 -7.83187
L41.3171 -7.91184
L41.8049 -8.00038
L42.291 -8.09744
L42.7752 -8.20299
L43.2573 -8.31702
L43.7371 -8.43948
L44.2147 -8.57033
L44.6897 -8.70954
L45.1621 -8.85707
L45.6317 -9.01286
L46.0984 -9.17687
L46.5619 -9.34905
L47.0223 -9.52935
L47.4793 -9.71771
L47.9328 -9.91408
L48.3827 -10.1184
L48.8288 -10.3306
L49.271 -10.5506
L49.7092 -10.7784
L50.1432 -11.0138
L50.5728 -11.2569
L50.9981 -11.5075
L51.4187 -11.7656
L51.8347 -12.031
L52.2458 -12.3037
L52.652 -12.5837
L53.0532 -12.8708
L53.4491 -13.1649
L53.8397 -13.466
L54.2249 -13.774
L54.6045 -14.0887
L54.9785 -14.4101
L55.3467 -14.7381
L55.7089 -15.0726
L56.0652 -15.4134
L56.4154 -15.7605
L56.7594 -16.1138
L57.097 -16.4731
L57.4282 -16.8384
L57.7529 -17.2095
L58.0709 -17.5863
L58.3822 -17.9688
L58.6867 -18.3567
L58.9843 -18.75
L59.2749 -19.1486
L59.5584 -19.5523
L59.8348 -19.961
L60.1038 -20.3746
z
" id="C0_1_76a582e288"/>
     <path d="
M55.6778 -56.525
L55.4025 -56.5603
L55.1289 -56.5922
L54.8569 -56.6206
L54.5866 -56.6456
L54.3179 -56.6674
L54.0507 -56.686
L53.7849 -56.7016
L53.5206 -56.7142
L53.2576 -56.7239
L52.9958 -56.7308
L52.7354 -56.7349
L52.4761 -56.7364
L52.2179 -56.7352
L51.9608 -56.7314
L51.7047 -56.7251
L51.4495 -56.7164
L51.1953 -56.7052
L50.9419 -56.6917
L50.6892 -56.6758
L50.4373 -56.6576
L50.186 -56.6371
L49.9353 -56.6144
L49.6852 -56.5895
L49.4355 -56.5624
L49.1863 -56.5331
L48.9374 -56.5017
L48.6889 -56.4682
L48.4405 -56.4325
L48.1924 -56.3947
L47.9445 -56.3549
L47.6965 -56.3129
L47.4487 -56.2688
L47.2007 -56.2227
L46.9527 -56.1744
L46.7046 -56.1241
L46.4562 -56.0717
L46.2075 -56.0171
L45.9585 -55.9605
L45.7092 -55.9017
L45.4594 -55.8408
L45.2091 -55.7777
L44.9583 -55.7124
L44.7068 -55.645
L44.4547 -55.5753
L44.2018 -55.5034
L43.9482 -55.4292
L43.6938 -55.3527
L43.4385 -55.2739
L43.1822 -55.1927
L42.9249 -55.1091
L42.6666 -55.0231
L42.4071 -54.9346
L42.1466 -54.8436
L41.8848 -54.7501
L41.6217 -54.654
L41.3573 -54.5552
L41.0916 -54.4538
L40.8244 -54.3496
L40.5558 -54.2427
L40.2857 -54.1329
L40.014 -54.0203
L39.7407 -53.9047
L39.4657 -53.7861
L39.1891 -53.6645
L38.9107 -53.5398
L38.6306 -53.412
L38.3486 -53.281
L38.0648 -53.1466
L37.7792 -53.009
L37.4916 -52.868
L37.2021 -52.7236
L36.9106 -52.5757
L36.6172 -52.4243
L36.3218 -52.2692
L36.0244 -52.1106
L35.7249 -51.9483
L35.4234 -51.7822
L35.12 -51.6124
L34.8145 -51.4388
L34.5069 -51.2614
L34.1974 -51.0802
L33.8859 -50.8951
L33.5725 -50.7062
L33.2572 -50.5134
L32.9399 -50.3169
L32.6209 -50.1165
L32.3 -49.9123
L31.9774 -49.7045
L31.6532 -49.493
L31.3273 -49.2781
L31 -49.0597
L30.6712 -48.8381
L30.3411 -48.6134
L30.0097 -48.3859
L29.6773 -48.1557
L29.3438 -47.9232
L29.0093 -47.6886
L28.6741 -47.4524
L28.3383 -47.215
L28.0019 -46.9768
L27.6651 -46.7384
L27.328 -46.5005
L26.9908 -46.2637
L26.6535 -46.0288
L26.3164 -45.7968
L25.9794 -45.5685
L25.6428 -45.345
L25.3066 -45.1276
L24.9709 -44.9175
L24.6359 -44.7161
L24.3014 -44.5249
L23.9677 -44.3453
L23.6348 -44.1789
L23.3027 -44.0273
L22.9715 -43.8919
L22.6411 -43.7741
L22.3118 -43.675
L21.9835 -43.5958
L21.6564 -43.537
L21.3305 -43.4991
L21.0061 -43.4822
L20.6834 -43.4859
L20.3625 -43.5098
L20.0436 -43.5531
L19.7272 -43.6148
L19.4133 -43.6937
L19.1024 -43.7887
L18.7946 -43.8984
L18.4902 -44.0215
L18.1896 -44.1569
L17.8928 -44.3032
L17.6003 -44.4594
L17.3121 -44.6243
L17.0285 -44.797
L16.7496 -44.9766
L16.4756 -45.1622
L16.2066 -45.3531
L15.9428 -45.5486
L15.6842 -45.748
L15.4309 -45.9508
L15.183 -46.1565
L14.9406 -46.3646
L14.7037 -46.5747
L14.4722 -46.7866
L14.2463 -46.9997
L14.0259 -47.2139
L13.811 -47.4289
L13.6016 -47.6445
L13.3977 -47.8604
L13.1992 -48.0765
L13.0061 -48.2926
L12.8184 -48.5085
L12.636 -48.7242
L12.4588 -48.9395
L12.2869 -49.1544
L12.1201 -49.3687
L11.9583 -49.5825
L11.8016 -49.7955
L11.6498 -50.0079
L11.605 -50.2195
L11.8658 -50.7354
L12.1341 -51.1589
L12.4096 -51.5778
L12.6923 -51.9919
L12.9821 -52.4012
L13.2789 -52.8055
L13.5826 -53.2047
L13.8931 -53.5986
L14.2104 -53.9871
L14.5343 -54.3702
L14.8648 -54.7477
L15.2017 -55.1195
L15.5449 -55.4854
L15.8944 -55.8454
L16.25 -56.1994
L16.6116 -56.5472
L16.9791 -56.8888
L17.3524 -57.224
L17.7314 -57.5527
L18.116 -57.8748
L18.506 -58.1903
L18.9013 -58.4991
L19.3018 -58.801
L19.7074 -59.0959
L20.118 -59.3838
L20.5335 -59.6646
L20.9536 -59.9382
L21.3783 -60.2045
L21.8075 -60.4634
L22.241 -60.7148
L22.6787 -60.9588
L23.1204 -61.1951
L23.5661 -61.4237
L24.0155 -61.6446
L24.4686 -61.8577
L24.9252 -62.063
L25.3852 -62.2602
L25.8485 -62.4495
L26.3148 -62.6307
L26.784 -62.8039
L27.2561 -62.9688
L27.7309 -63.1255
L28.2081 -63.274
L28.6877 -63.4142
L29.1696 -63.546
L29.6535 -63.6694
L30.1394 -63.7844
L30.6271 -63.8909
L31.1164 -63.989
L31.6071 -64.0785
L32.0993 -64.1594
L32.5926 -64.2318
L33.0869 -64.2956
L33.5821 -64.3507
L34.0781 -64.3973
L34.5747 -64.4351
L35.0717 -64.4643
L35.5689 -64.4849
L36.0663 -64.4967
L36.5637 -64.4999
L37.0609 -64.4944
L37.5578 -64.4802
L38.0542 -64.4574
L38.55 -64.4259
L39.045 -64.3857
L39.5391 -64.3369
L40.0321 -64.2794
L40.5239 -64.2133
L41.0143 -64.1387
L41.5032 -64.0554
L41.9903 -63.9636
L42.4757 -63.8633
L42.9591 -63.7546
L43.4404 -63.6373
L43.9194 -63.5116
L44.396 -63.3776
L44.87 -63.2352
L45.3414 -63.0845
L45.8099 -62.9256
L46.2754 -62.7585
L46.7378 -62.5832
L47.1969 -62.3998
L47.6526 -62.2084
L48.1047 -62.009
L48.5532 -61.8017
L48.9978 -61.5865
L49.4385 -61.3635
L49.875 -61.1328
L50.3074 -60.8944
L50.7354 -60.6485
L51.1589 -60.395
L51.5778 -60.1342
L51.9919 -59.8659
L52.4012 -59.5904
L52.8055 -59.3077
L53.2047 -59.0179
L53.5986 -58.7211
L53.9871 -58.4174
L54.3702 -58.1069
L54.7477 -57.7896
L55.1195 -57.4657
z
" id="C0_2_43e1506d3a"/>
    </defs>
    <g clip-path="url(#p1bffca34e9)">
     <use style="fill:#ff0000;stroke:#000000;stroke-width:2.0;" x="0.0" xlink:href="#C0_0_a811fe30f3" y="72.0"/>
    </g>
    <g clip-path="url(#p1bffca34e9)">
     <use style="fill:#ffffff;stroke:#000000;stroke-width:2.0;" x="0.0" xlink:href="#C0_1_76a582e288" y="72.0"/>
    </g>
    <g clip-path="url(#p1bffca34e9)">
     <use style="fill:#ffffff;stroke:#000000;stroke-width:2.0;" x="0.0" xlink:href="#C0_2_43e1506d3a" y="72.0"/>
    </g>
   </g>
  </g>
 </g>
 <defs>
  <clipPath id="p1bffca34e9">
   <rect height="72.0" width="72.0" x="0.0" y="0.0"/>
  </clipPath>
 </defs>
</svg>
