<?xml version="1.0" encoding="utf-8" standalone="no"?>
<!DOCTYPE svg PUBLIC "-//W3C//DTD SVG 1.1//EN"
  "http://www.w3.org/Graphics/SVG/1.1/DTD/svg11.dtd">
<!-- Created with matplotlib (http://matplotlib.org/) -->
<svg height="72pt" version="1.1" viewBox="0 0 72 72" width="72pt" xmlns="http://www.w3.org/2000/svg" xmlns:xlink="http://www.w3.org/1999/xlink">
 <defs>
  <style type="text/css">
*{stroke-linecap:butt;stroke-linejoin:round;}
  </style>
 </defs>
 <g id="figure_1">
  <g id="patch_1">
   <path d="
M0 72
L72 72
L72 0
L0 0
z
" style="fill:none;"/>
  </g>
  <g id="axes_1">
   <g id="PatchCollection_1">
    <defs>
     <path d="
M36 -7.5
C43.5583 -7.5 50.808 -10.5029 56.1525 -15.8475
C61.4971 -21.192 64.5 -28.4417 64.5 -36
C64.5 -43.5583 61.4971 -50.808 56.1525 -56.1525
C50.808 -61.4971 43.5583 -64.5 36 -64.5
C28.4417 -64.5 21.192 -61.4971 15.8475 -56.1525
C10.5029 -50.808 7.5 -43.5583 7.5 -36
C7.5 -28.4417 10.5029 -21.192 15.8475 -15.8475
C21.192 -10.5029 28.4417 -7.5 36 -7.5
z
" id="C0_0_a811fe30f3"/>
     <path d="
M55.5038 -15.5167
L55.3344 -15.6858
L55.1771 -15.8701
L55.0315 -16.0689
L54.8969 -16.2816
L54.7726 -16.5072
L54.6579 -16.7449
L54.5519 -16.994
L54.454 -17.2535
L54.3634 -17.5226
L54.2793 -17.8006
L54.2009 -18.0866
L54.1275 -18.38
L54.0586 -18.6799
L53.9934 -18.9856
L53.9314 -19.2966
L53.8721 -19.6121
L53.8148 -19.9316
L53.7593 -20.2546
L53.7051 -20.5805
L53.6519 -20.9088
L53.5992 -21.2391
L53.5469 -21.5711
L53.4946 -21.9042
L53.4422 -22.2381
L53.3894 -22.5726
L53.3362 -22.9073
L53.2823 -23.2419
L53.2276 -23.5762
L53.172 -23.91
L53.1155 -24.2431
L53.0579 -24.5752
L52.9992 -24.9061
L52.9394 -25.2359
L52.8784 -25.5642
L52.8163 -25.891
L52.7529 -26.2162
L52.6882 -26.5397
L52.6224 -26.8613
L52.5553 -27.1811
L52.4869 -27.4989
L52.4174 -27.8147
L52.3466 -28.1285
L52.2746 -28.4403
L52.2014 -28.7499
L52.1271 -29.0574
L52.0516 -29.3628
L51.9749 -29.6661
L51.8972 -29.9672
L51.8183 -30.2661
L51.7384 -30.563
L51.6574 -30.8577
L51.5753 -31.1504
L51.4922 -31.441
L51.4081 -31.7295
L51.323 -32.016
L51.2369 -32.3005
L51.1498 -32.583
L51.0618 -32.8636
L50.9728 -33.1424
L50.8829 -33.4192
L50.7921 -33.6943
L50.7003 -33.9676
L50.6076 -34.2391
L50.514 -34.5089
L50.4195 -34.7772
L50.3242 -35.0438
L50.2279 -35.3088
L50.1307 -35.5724
L50.0326 -35.8345
L49.9336 -36.0951
L49.8337 -36.3544
L49.7329 -36.6124
L49.6312 -36.8692
L49.5286 -37.1247
L49.4251 -37.379
L49.3206 -37.6322
L49.2152 -37.8843
L49.1089 -38.1355
L49.0016 -38.3856
L48.8933 -38.6348
L48.784 -38.8831
L48.6738 -39.1306
L48.5625 -39.3773
L48.4502 -39.6233
L48.3368 -39.8686
L48.2224 -40.1132
L47.9903 -40.3573
L47.8725 -40.6008
L47.7536 -40.8438
L47.6336 -41.0863
L47.5123 -41.3284
L47.3898 -41.5701
L47.2661 -41.8116
L47.1411 -42.0527
L47.0148 -42.2936
L46.8872 -42.5343
L46.7582 -42.7749
L46.6278 -43.0153
L46.496 -43.2557
L46.3628 -43.496
L46.2281 -43.7363
L46.0919 -43.9767
L45.9541 -44.2172
L45.8148 -44.4578
L45.6738 -44.6985
L45.5312 -44.9395
L45.3869 -45.1806
L45.2409 -45.4221
L45.0931 -45.6638
L44.9436 -45.9058
L44.7922 -46.1482
L44.6389 -46.391
L44.4838 -46.6342
L44.3267 -46.8778
L44.1676 -47.1219
L44.0065 -47.3665
L43.8434 -47.6116
L43.6782 -47.8572
L43.5108 -48.1034
L43.3413 -48.3501
L43.1696 -48.5974
L42.9957 -48.8453
L42.8196 -49.0938
L42.6412 -49.3429
L42.4604 -49.5926
L42.2774 -49.843
L42.092 -50.0939
L41.9042 -50.3455
L41.714 -50.5977
L41.5215 -50.8505
L41.3266 -51.1039
L41.1293 -51.3578
L40.9295 -51.6123
L40.7274 -51.8674
L40.523 -52.123
L40.3162 -52.3791
L40.1071 -52.6356
L39.8958 -52.8926
L39.6823 -53.15
L39.4667 -53.4077
L39.249 -53.6658
L39.0293 -53.9241
L38.8078 -54.1826
L38.5846 -54.4413
L38.3599 -54.7001
L38.1337 -54.9589
L37.9063 -55.2177
L37.6779 -55.4765
L37.4487 -55.7352
L37.2191 -55.9936
L36.9892 -56.2519
L36.7594 -56.5098
L36.5302 -56.7673
L36.3018 -57.0245
L36.0747 -57.2812
L35.8495 -57.5373
L35.6266 -57.793
L35.4066 -58.048
L35.1902 -58.3025
L34.978 -58.5563
L34.7708 -58.8095
L34.5693 -59.0621
L34.3744 -59.3141
L34.187 -59.5655
L34.008 -59.8163
L33.8384 -60.0667
L33.6792 -60.3166
L33.5315 -60.5662
L33.3962 -60.8154
L33.2746 -61.0644
L33.1676 -61.3132
L33.0762 -61.5619
L33.0015 -61.8105
L32.9443 -62.0591
L32.9055 -62.3075
L32.8859 -62.5558
L32.8861 -62.804
L32.9065 -63.0518
L32.9476 -63.2991
L33.0096 -63.5457
L33.0927 -63.7913
L33.1968 -64.0357
L33.684 -64.2784
L34.1801 -64.4057
L34.6768 -64.4418
L35.1738 -64.4693
L35.6711 -64.488
L36.1686 -64.4981
L36.6659 -64.4995
L37.1631 -64.4922
L37.6599 -64.4763
L38.1562 -64.4516
L38.6518 -64.4183
L39.1466 -64.3764
L39.6405 -64.3258
L40.1333 -64.2665
L40.6248 -64.1987
L41.1149 -64.1223
L41.6034 -64.0373
L42.0903 -63.9437
L42.5752 -63.8417
L43.0582 -63.7311
L43.539 -63.6122
L44.0176 -63.4848
L44.4936 -63.349
L44.9671 -63.2049
L45.4379 -63.0526
L45.9058 -62.8919
L46.3707 -62.7231
L46.8324 -62.5462
L47.2908 -62.3611
L47.7458 -62.1681
L48.1972 -61.967
L48.6449 -61.7581
L49.0887 -61.5413
L49.5285 -61.3167
L49.9643 -61.0844
L50.3957 -60.8445
L50.8228 -60.597
L51.2454 -60.342
L51.6633 -60.0796
L52.0765 -59.8099
L52.4847 -59.5329
L52.8879 -59.2487
L53.286 -58.9575
L53.6789 -58.6593
L54.0663 -58.3541
L54.4482 -58.0422
L54.8246 -57.7235
L55.1951 -57.3983
L55.5599 -57.0665
L55.9187 -56.7283
L56.2714 -56.3837
L56.6179 -56.033
L56.9582 -55.6762
L57.292 -55.3133
L57.6194 -54.9446
L57.9402 -54.5701
L58.2543 -54.19
L58.5617 -53.8043
L58.8622 -53.4132
L59.1557 -53.0168
L59.4421 -52.6152
L59.7214 -52.2086
L59.9935 -51.797
L60.2583 -51.3806
L60.5157 -50.9595
L60.7656 -50.5338
L61.0079 -50.1038
L61.2427 -49.6694
L61.4698 -49.2309
L61.6891 -48.7883
L61.9006 -48.3419
L62.1041 -47.8916
L62.2998 -47.4378
L62.4874 -46.9805
L62.667 -46.5198
L62.8384 -46.0559
L63.0017 -45.589
L63.1567 -45.1192
L63.3035 -44.6465
L63.4419 -44.1713
L63.572 -43.6935
L63.6937 -43.2134
L63.807 -42.7311
L63.9118 -42.2468
L64.008 -41.7605
L64.0958 -41.2725
L64.175 -40.7829
L64.2456 -40.2918
L64.3076 -39.7995
L64.361 -39.3059
L64.4057 -38.8114
L64.4418 -38.316
L64.4693 -37.8199
L64.488 -37.3232
L64.4981 -36.8262
L64.4995 -36.3289
L64.4922 -35.8314
L64.4763 -35.3341
L64.4516 -34.8369
L64.4183 -34.3401
L64.3764 -33.8438
L64.3258 -33.3482
L64.2665 -32.8534
L64.1987 -32.3595
L64.1223 -31.8667
L64.0373 -31.3752
L63.9437 -30.8851
L63.8417 -30.3966
L63.7311 -29.9097
L63.6122 -29.4248
L63.4848 -28.9418
L63.349 -28.461
L63.2049 -27.9824
L63.0526 -27.5064
L62.8919 -27.0329
L62.7231 -26.5621
L62.5462 -26.0942
L62.3611 -25.6293
L62.1681 -25.1676
L61.967 -24.7092
L61.7581 -24.2542
L61.5413 -23.8028
L61.3167 -23.3551
L61.0844 -22.9113
L60.8445 -22.4715
L60.597 -22.0357
L60.342 -21.6043
L60.0796 -21.1772
L59.8099 -20.7546
L59.5329 -20.3367
L59.2487 -19.9235
L58.9575 -19.5153
L58.6593 -19.1121
L58.3541 -18.714
L58.0422 -18.3211
L57.7235 -17.9337
L57.3983 -17.5518
L57.0665 -17.1754
L56.7283 -16.8049
L56.3837 -16.4401
L56.033 -16.0813
z
" id="C0_1_977b822728"/>
     <path d="
M38.6511 -7.76962
L38.4675 -7.98215
L38.2698 -8.19447
L38.0592 -8.40681
L37.8368 -8.6194
L37.6038 -8.83246
L37.3613 -9.04619
L37.1104 -9.2608
L36.8521 -9.47644
L36.5875 -9.69329
L36.3173 -9.91146
L36.0427 -10.1311
L35.7642 -10.3522
L35.4829 -10.5749
L35.1992 -10.7992
L34.9139 -11.0252
L34.6276 -11.2528
L34.3409 -11.4821
L34.0541 -11.7129
L33.7679 -11.9454
L33.4825 -12.1794
L33.1984 -12.4149
L32.9158 -12.6518
L32.6352 -12.89
L32.3566 -13.1295
L32.0804 -13.3702
L31.8067 -13.6121
L31.5358 -13.8549
L31.2677 -14.0988
L31.0026 -14.3435
L30.7407 -14.589
L30.4819 -14.8353
L30.2264 -15.0822
L29.9743 -15.3297
L29.7255 -15.5777
L29.4802 -15.8262
L29.2383 -16.075
L28.9999 -16.3242
L28.7649 -16.5736
L28.5334 -16.8233
L28.3053 -17.0732
L28.0807 -17.3232
L27.8594 -17.5733
L27.6416 -17.8234
L27.4271 -18.0736
L27.2159 -18.3238
L27.008 -18.574
L26.8033 -18.8241
L26.6019 -19.0742
L26.4035 -19.3241
L26.2083 -19.574
L26.0161 -19.8238
L25.827 -20.0735
L25.6407 -20.3231
L25.4574 -20.5726
L25.277 -20.822
L25.0993 -21.0713
L24.9244 -21.3205
L24.7521 -21.5696
L24.5826 -21.8186
L24.4156 -22.0676
L24.2511 -22.3166
L24.0892 -22.5656
L23.9297 -22.8145
L23.7726 -23.0635
L23.6178 -23.3125
L23.4654 -23.5616
L23.3152 -23.8109
L23.1672 -24.0602
L23.0214 -24.3097
L22.8778 -24.5594
L22.7362 -24.8093
L22.5967 -25.0594
L22.4592 -25.3099
L22.3236 -25.5607
L22.19 -25.8118
L22.0583 -26.0633
L21.9285 -26.3153
L21.8005 -26.5678
L21.6744 -26.8207
L21.55 -27.0743
L21.4273 -27.3284
L21.3064 -27.5831
L21.1872 -27.8386
L21.0697 -28.0948
L20.9538 -28.3518
L20.8396 -28.6095
L20.727 -28.8682
L20.616 -29.1278
L20.5065 -29.3883
L20.3986 -29.6498
L20.2923 -29.9124
L20.1875 -30.1762
L20.0843 -30.441
L19.9826 -30.7071
L19.8823 -30.9745
L19.7836 -31.2431
L19.6864 -31.5131
L19.5907 -31.7846
L19.4965 -32.0575
L19.4038 -32.3319
L19.3126 -32.6079
L19.2229 -32.8855
L19.1347 -33.1647
L19.0481 -33.4457
L18.9629 -33.7285
L18.8793 -34.0131
L18.7972 -34.2995
L18.7167 -34.5879
L18.6378 -34.8783
L18.5605 -35.1707
L18.4848 -35.4652
L18.4107 -35.7618
L18.3383 -36.0605
L18.2676 -36.3615
L18.1986 -36.6647
L18.1313 -36.9703
L18.0658 -37.2781
L18.0021 -37.5884
L17.9402 -37.901
L17.8801 -38.2161
L17.822 -38.5336
L17.7658 -38.8537
L17.7116 -39.1762
L17.6593 -39.5013
L17.6092 -39.829
L17.561 -40.1592
L17.5151 -40.4919
L17.4712 -40.8273
L17.4296 -41.1651
L17.3902 -41.5056
L17.3531 -41.8485
L17.3183 -42.194
L17.2858 -42.5419
L17.2557 -42.8922
L17.228 -43.2448
L17.2027 -43.5998
L17.1798 -43.9569
L17.1593 -44.3162
L17.1413 -44.6776
L17.1257 -45.0408
L17.1125 -45.4058
L17.1017 -45.7725
L17.0932 -46.1406
L17.087 -46.51
L17.083 -46.8806
L17.0811 -47.252
L17.0811 -47.6241
L17.0831 -47.9966
L17.0867 -48.3693
L17.0918 -48.7417
L17.0982 -49.1137
L17.1056 -49.4848
L17.1137 -49.8547
L17.1222 -50.223
L17.1307 -50.5892
L17.1388 -50.9529
L17.1459 -51.3136
L17.1517 -51.6707
L17.1555 -52.0238
L17.1566 -52.3723
L17.1545 -52.7156
L17.1484 -53.0529
L17.1375 -53.3838
L17.1211 -53.7076
L17.0983 -54.0235
L17.0683 -54.3309
L17.0302 -54.6291
L16.9832 -54.9174
L16.9264 -55.1953
L16.8591 -55.4619
L16.7805 -55.7168
L16.69 -55.9593
L16.587 -56.1889
L16.4711 -56.405
L15.9711 -56.6074
L15.6202 -56.2754
L15.2757 -55.9227
L14.9374 -55.564
L14.6055 -55.1994
L14.2802 -54.8288
L13.9614 -54.4526
L13.6494 -54.0707
L13.3442 -53.6833
L13.0459 -53.2906
L12.7546 -52.8925
L12.4703 -52.4894
L12.1932 -52.0812
L11.9234 -51.6681
L11.6609 -51.2502
L11.4059 -50.8277
L11.1583 -50.4006
L10.9183 -49.9692
L10.6859 -49.5335
L10.4612 -49.0937
L10.2444 -48.65
L10.0353 -48.2023
L9.83419 -47.751
L9.64103 -47.296
L9.4559 -46.8377
L9.27886 -46.376
L9.10996 -45.9111
L8.94924 -45.4433
L8.79677 -44.9725
L8.65258 -44.4991
L8.51673 -44.023
L8.38924 -43.5445
L8.27017 -43.0637
L8.15954 -42.5808
L8.0574 -42.0958
L7.96376 -41.609
L7.87867 -41.1205
L7.80214 -40.6304
L7.7342 -40.1389
L7.67487 -39.6462
L7.62417 -39.1523
L7.58211 -38.6575
L7.54871 -38.1619
L7.52398 -37.6656
L7.50791 -37.1688
L7.50053 -36.6716
L7.50183 -36.1743
L7.51181 -35.6768
L7.53047 -35.1795
L7.5578 -34.6825
L7.59379 -34.1858
L7.63844 -33.6897
L7.69173 -33.1943
L7.75364 -32.6997
L7.82415 -32.2062
L7.90324 -31.7138
L7.9909 -31.2227
L8.08708 -30.7331
L8.19177 -30.2451
L8.30493 -29.7588
L8.42653 -29.2744
L8.55652 -28.7921
L8.69488 -28.312
L8.84155 -27.8342
L8.99649 -27.3589
L9.15966 -26.8862
L9.33101 -26.4164
L9.51048 -25.9494
L9.69802 -25.4855
L9.89357 -25.0248
L10.0971 -24.5674
L10.3085 -24.1135
L10.5277 -23.6633
L10.7547 -23.2168
L10.9893 -22.7742
L11.2316 -22.3356
L11.4814 -21.9012
L11.7387 -21.4711
L12.0034 -21.0454
L12.2754 -20.6242
L12.5547 -20.2078
L12.841 -19.7961
L13.1344 -19.3894
L13.4348 -18.9878
L13.7421 -18.5913
L14.0561 -18.2001
L14.3769 -17.8144
L14.7042 -17.4342
L15.038 -17.0596
L15.3782 -16.6909
L15.7246 -16.328
L16.0773 -15.9711
L16.436 -15.6202
L16.8006 -15.2757
L17.1712 -14.9374
L17.5474 -14.6055
L17.9293 -14.2802
L18.3167 -13.9614
L18.7094 -13.6494
L19.1075 -13.3442
L19.5106 -13.0459
L19.9188 -12.7546
L20.3319 -12.4703
L20.7498 -12.1932
L21.1723 -11.9234
L21.5994 -11.6609
L22.0308 -11.4059
L22.4665 -11.1583
L22.9063 -10.9183
L23.35 -10.6859
L23.7977 -10.4612
L24.249 -10.2444
L24.704 -10.0353
L25.1623 -9.83419
L25.624 -9.64103
L26.0889 -9.4559
L26.5567 -9.27886
L27.0275 -9.10996
L27.5009 -8.94924
L27.977 -8.79677
L28.4555 -8.65258
L28.9363 -8.51673
L29.4192 -8.38924
L29.9042 -8.27017
L30.391 -8.15954
L30.8795 -8.0574
L31.3696 -7.96376
L31.8611 -7.87867
L32.3538 -7.80214
L32.8477 -7.7342
L33.3425 -7.67487
L33.8381 -7.62417
L34.3344 -7.58211
L34.8312 -7.54871
L35.3284 -7.52398
L35.8257 -7.50791
L36.3232 -7.50053
L36.8205 -7.50183
L37.3175 -7.51181
L37.8142 -7.53047
z
" id="C0_2_2644650f90"/>
    </defs>
    <g clip-path="url(#p1bffca34e9)">
     <use style="fill:#ff0000;stroke:#000000;stroke-width:2.0;" x="0.0" xlink:href="#C0_0_a811fe30f3" y="72.0"/>
    </g>
    <g clip-path="url(#p1bffca34e9)">
     <use style="fill:#ffffff;stroke:#000000;stroke-width:2.0;" x="0.0" xlink:href="#C0_1_977b822728" y="72.0"/>
    </g>
    <g clip-path="url(#p1bffca34e9)">
     <use style="fill:#ffffff;stroke:#000000;stroke-width:2.0;" x="0.0" xlink:href="#C0_2_2644650f90" y="72.0"/>
    </g>
   </g>
  </g>
 </g>
 <defs>
  <clipPath id="p1bffca34e9">
   <rect height="72.0" width="72.0" x="0.0" y="0.0"/>
  </clipPath>
 </defs>
</svg>
