<?xml version="1.0" encoding="utf-8" standalone="no"?>
<!DOCTYPE svg PUBLIC "-//W3C//DTD SVG 1.1//EN"
  "http://www.w3.org/Graphics/SVG/1.1/DTD/svg11.dtd">
<!-- Created with matplotlib (http://matplotlib.org/) -->
<svg height="72pt" version="1.1" viewBox="0 0 72 72" width="72pt" xmlns="http://www.w3.org/2000/svg" xmlns:xlink="http://www.w3.org/1999/xlink">
 <defs>
  <style type="text/css">
*{stroke-linecap:butt;stroke-linejoin:round;}
  </style>
 </defs>
 <g id="figure_1">
  <g id="patch_1">
   <path d="
M0 72
L72 72
L72 0
L0 0
z
" style="fill:none;"/>
  </g>
  <g id="axes_1">
   <g id="PatchCollection_1">
    <defs>
     <path d="
M36 -7.5
C43.5583 -7.5 50.808 -10.5029 56.1525 -15.8475
C61.4971 -21.192 64.5 -28.4417 64.5 -36
C64.5 -43.5583 61.4971 -50.808 56.1525 -56.1525
C50.808 -61.4971 43.5583 -64.5 36 -64.5
C28.4417 -64.5 21.192 -61.4971 15.8475 -56.1525
C10.5029 -50.808 7.5 -43.5583 7.5 -36
C7.5 -28.4417 10.5029 -21.192 15.8475 -15.8475
C21.192 -10.5029 28.4417 -7.5 36 -7.5
z
" id="C0_0_a811fe30f3"/>
     <path d="
M15.6102 -16.3321
L15.8499 -16.3431
L16.0882 -16.3583
L16.325 -16.3777
L16.5604 -16.4011
L16.7945 -16.4284
L17.0272 -16.4595
L17.2586 -16.4944
L17.4887 -16.5329
L17.7176 -16.5749
L17.9454 -16.6204
L18.1719 -16.6694
L18.3973 -16.7217
L18.6216 -16.7772
L18.8448 -16.836
L19.0669 -16.8979
L19.2881 -16.963
L19.5083 -17.0311
L19.7275 -17.1022
L19.9458 -17.1763
L20.1632 -17.2533
L20.3797 -17.3331
L20.8103 -17.4159
L21.0244 -17.5015
L21.2378 -17.5898
L21.4504 -17.681
L21.6623 -17.7749
L21.8735 -17.8715
L22.084 -17.9708
L22.2939 -18.0728
L22.5032 -18.1775
L22.7119 -18.2849
L22.92 -18.395
L23.1275 -18.5076
L23.3344 -18.623
L23.5408 -18.7409
L23.7467 -18.8615
L23.9521 -18.9848
L24.157 -19.1107
L24.3614 -19.2392
L24.5652 -19.3704
L24.7687 -19.5042
L24.9716 -19.6406
L25.174 -19.7798
L25.376 -19.9216
L25.5776 -20.0661
L25.7786 -20.2132
L25.9792 -20.3631
L26.1793 -20.5157
L26.3788 -20.6711
L26.5779 -20.8291
L26.7765 -20.99
L26.9745 -21.1536
L27.172 -21.32
L27.369 -21.4892
L27.5653 -21.6612
L27.761 -21.836
L27.9561 -22.0137
L28.1504 -22.1943
L28.3441 -22.3778
L28.537 -22.5642
L28.7292 -22.7534
L28.9205 -22.9457
L29.1109 -23.1408
L29.3003 -23.339
L29.4888 -23.5401
L29.6762 -23.7442
L29.8625 -23.9513
L30.0477 -24.1614
L30.2315 -24.3745
L30.414 -24.5907
L30.5952 -24.8099
L30.7748 -25.0321
L30.9528 -25.2574
L31.1291 -25.4857
L31.3036 -25.717
L31.4763 -25.9514
L31.6469 -26.1888
L31.8155 -26.4292
L31.9818 -26.6726
L32.1457 -26.919
L32.3072 -27.1684
L32.466 -27.4207
L32.6221 -27.676
L32.7753 -27.9341
L32.9254 -28.1951
L33.0724 -28.4589
L33.216 -28.7255
L33.3561 -28.9949
L33.4926 -29.2669
L33.6252 -29.5416
L33.7539 -29.8189
L33.8785 -30.0986
L33.9987 -30.3809
L34.1145 -30.6655
L34.2257 -30.9524
L34.3321 -31.2416
L34.4335 -31.5329
L34.5298 -31.8263
L34.6209 -32.1217
L34.7066 -32.4189
L34.7867 -32.7179
L34.8612 -33.0185
L34.9299 -33.3208
L34.9927 -33.6244
L35.0494 -33.9294
L35.1001 -34.2356
L35.1445 -34.5429
L35.1826 -34.8511
L35.2144 -35.1602
L35.2398 -35.47
L35.2588 -35.7803
L35.2712 -36.0911
L35.2772 -36.4022
L35.2768 -36.7135
L35.2699 -37.0248
L35.2565 -37.3359
L35.2367 -37.6469
L35.2107 -37.9575
L35.1783 -38.2675
L35.1397 -38.5769
L35.0951 -38.8856
L35.0444 -39.1933
L34.9878 -39.5001
L34.9255 -39.8056
L34.8575 -40.1099
L34.7839 -40.4128
L34.705 -40.7142
L34.6208 -41.014
L34.5316 -41.3121
L34.4373 -41.6083
L34.3383 -41.9027
L34.2347 -42.195
L34.1266 -42.4852
L34.0141 -42.7732
L33.8975 -43.059
L33.7769 -43.3424
L33.6524 -43.6234
L33.5242 -43.9019
L33.3925 -44.1778
L33.2574 -44.4512
L33.119 -44.7219
L32.9775 -44.9899
L32.8331 -45.2551
L32.6858 -45.5176
L32.5358 -45.7772
L32.3832 -46.0339
L32.2281 -46.2878
L32.0707 -46.5387
L31.9111 -46.7867
L31.7493 -47.0317
L31.5856 -47.2738
L31.4199 -47.5128
L31.2524 -47.7489
L31.0831 -47.9819
L30.9122 -48.212
L30.7398 -48.439
L30.5658 -48.663
L30.3905 -48.8839
L30.2138 -49.1019
L30.0358 -49.3168
L29.8566 -49.5288
L29.6762 -49.7377
L29.4947 -49.9436
L29.3122 -50.1466
L29.1286 -50.3466
L28.9441 -50.5436
L28.7586 -50.7377
L28.5723 -50.9289
L28.385 -51.1171
L28.197 -51.3025
L28.0081 -51.4849
L27.8184 -51.6645
L27.628 -51.8412
L27.4368 -52.0151
L27.2449 -52.1861
L27.0523 -52.3543
L26.859 -52.5197
L26.665 -52.6824
L26.4703 -52.8422
L26.2749 -52.9993
L26.0789 -53.1536
L25.8821 -53.3052
L25.6847 -53.454
L25.4866 -53.6001
L25.2878 -53.7435
L25.0883 -53.8842
L24.8881 -54.0221
L24.6872 -54.1574
L24.4856 -54.2899
L24.2833 -54.4198
L24.0802 -54.5469
L23.8763 -54.6714
L23.6717 -54.7931
L23.4662 -54.9122
L23.26 -55.0285
L23.0529 -55.1421
L22.845 -55.2529
L22.6362 -55.361
L22.4264 -55.4664
L22.2158 -55.5689
L22.0042 -55.6686
L21.7916 -55.7656
L21.578 -55.8596
L21.3634 -55.9508
L21.1477 -56.0391
L20.931 -56.1244
L20.7131 -56.2068
L20.494 -56.2861
L20.2738 -56.3624
L20.0524 -56.4356
L19.8296 -56.5056
L19.6057 -56.5725
L19.3803 -56.636
L19.1537 -56.6963
L18.9256 -56.7532
L18.6961 -56.8066
L18.4651 -56.8565
L18.2327 -56.9028
L17.9986 -56.9454
L17.7631 -56.9843
L17.5259 -57.0193
L17.287 -57.0504
L17.0464 -57.0774
L16.5877 -57.1003
L16.2265 -56.8666
L15.8713 -56.5246
L15.5223 -56.1764
L15.1795 -55.822
L14.843 -55.4616
L14.5129 -55.0953
L14.1894 -54.7231
L13.8726 -54.3453
L13.5625 -53.9619
L13.2592 -53.5729
L12.9629 -53.1787
L12.6735 -52.7792
L12.3913 -52.3746
L12.1163 -51.965
L11.8485 -51.5505
L11.5881 -51.1313
L11.3352 -50.7075
L11.0897 -50.2792
L10.8519 -49.8466
L10.6217 -49.4097
L10.3992 -48.9688
L10.1845 -48.5239
L9.9777 -48.0752
L9.77882 -47.6228
L9.58792 -47.1669
L9.40507 -46.7076
L9.23032 -46.245
L9.06373 -45.7793
L8.90534 -45.3106
L8.7552 -44.8391
L8.61336 -44.3649
L8.47987 -43.8881
L8.35476 -43.4089
L8.23807 -42.9275
L8.12983 -42.444
L8.03009 -41.9585
L7.93886 -41.4712
L7.85618 -40.9822
L7.78208 -40.4917
L7.71657 -39.9999
L7.65967 -39.5068
L7.61141 -39.0126
L7.5718 -38.5176
L7.54084 -38.0217
L7.51856 -37.5253
L7.50495 -37.0284
L7.50002 -36.5311
L7.50377 -36.0338
L7.5162 -35.5364
L7.53731 -35.0391
L7.56709 -34.5421
L7.60553 -34.0456
L7.65262 -33.5497
L7.70834 -33.0545
L7.77268 -32.5602
L7.84562 -32.067
L7.92714 -31.575
L8.0172 -31.0843
L8.1158 -30.5951
L8.22288 -30.1075
L8.33843 -29.6218
L8.4624 -29.138
L8.59476 -28.6563
L8.73546 -28.1768
L8.88448 -27.6997
L9.04175 -27.2251
L9.20723 -26.7532
L9.38088 -26.2842
L9.56263 -25.818
L9.75244 -25.355
L9.95024 -24.8952
L10.156 -24.4388
L10.3696 -23.986
L10.591 -23.5368
L10.8202 -23.0914
L11.057 -22.6499
L11.3014 -22.2125
L11.5534 -21.7792
L11.8128 -21.3504
L12.0795 -20.9259
L12.3536 -20.5061
L12.6348 -20.091
L12.9232 -19.6807
L13.2186 -19.2754
L13.5209 -18.8752
L13.8301 -18.4803
L14.1461 -18.0906
L14.4686 -17.7064
L14.7978 -17.3278
L15.1334 -16.9549
z
" id="C0_1_46bbb005db"/>
     <path d="
M55.1431 -14.9392
L55.1485 -15.1837
L55.1527 -15.4298
L55.1555 -15.6776
L55.1569 -15.9271
L55.1571 -16.1783
L55.156 -16.4313
L55.1536 -16.6861
L55.1499 -16.9426
L55.145 -17.201
L55.1388 -17.4613
L55.1314 -17.7235
L55.1228 -17.9875
L55.113 -18.2535
L55.102 -18.5214
L55.0899 -18.7913
L55.0766 -19.0632
L55.0622 -19.3371
L55.0467 -19.613
L55.0302 -19.8909
L55.0126 -20.1709
L54.994 -20.4529
L54.9745 -20.737
L54.9539 -21.0232
L54.9325 -21.3115
L54.9102 -21.6019
L54.887 -21.8943
L54.8631 -22.1889
L54.8383 -22.4855
L54.8129 -22.7842
L54.7869 -23.085
L54.7602 -23.3879
L54.733 -23.6928
L54.7053 -23.9998
L54.6772 -24.3088
L54.6487 -24.6198
L54.62 -24.9328
L54.5911 -25.2478
L54.562 -25.5646
L54.5329 -25.8834
L54.5038 -26.2041
L54.4748 -26.5265
L54.4461 -26.8508
L54.4177 -27.1768
L54.3896 -27.5045
L54.3621 -27.8338
L54.3352 -28.1648
L54.3091 -28.4972
L54.2837 -28.8312
L54.2593 -29.1666
L54.2359 -29.5033
L54.2137 -29.8414
L54.1927 -30.1806
L54.173 -30.521
L54.1549 -30.8625
L54.1383 -31.205
L54.1233 -31.5485
L54.1102 -31.8928
L54.0989 -32.2378
L54.0895 -32.5836
L54.0822 -32.93
L54.0769 -33.2769
L54.0739 -33.6242
L54.073 -33.9719
L54.0744 -34.3199
L54.0782 -34.6681
L54.0843 -35.0164
L54.0928 -35.3647
L54.1036 -35.7129
L54.1169 -36.061
L54.1325 -36.4089
L54.1506 -36.7565
L54.1709 -37.1036
L54.1936 -37.4503
L54.2185 -37.7964
L54.2456 -38.1418
L54.2749 -38.4866
L54.3062 -38.8305
L54.3396 -39.1736
L54.3748 -39.5157
L54.4119 -39.8568
L54.4507 -40.1968
L54.4911 -40.5356
L54.5331 -40.8732
L54.5764 -41.2095
L54.6211 -41.5444
L54.6669 -41.8779
L54.7139 -42.21
L54.7618 -42.5405
L54.8106 -42.8694
L54.8602 -43.1967
L54.9104 -43.5223
L54.9611 -43.8462
L55.0123 -44.1683
L55.0638 -44.4886
L55.1155 -44.807
L55.1674 -45.1236
L55.2193 -45.4382
L55.2712 -45.7509
L55.3229 -46.0616
L55.3744 -46.3703
L55.4256 -46.6771
L55.4765 -46.9817
L55.5269 -47.2844
L55.5767 -47.5849
L55.6261 -47.8834
L55.6747 -48.1799
L55.7227 -48.4742
L55.7699 -48.7664
L55.8164 -49.0566
L55.8619 -49.3446
L55.9066 -49.6306
L55.9504 -49.9145
L55.9931 -50.1963
L56.0349 -50.4761
L56.0756 -50.7538
L56.1152 -51.0294
L56.1537 -51.303
L56.1911 -51.5746
L56.2274 -51.8443
L56.2624 -52.1119
L56.2962 -52.3775
L56.3289 -52.6413
L56.3602 -52.9031
L56.3903 -53.163
L56.4192 -53.421
L56.4467 -53.6772
L56.4729 -53.9315
L56.4978 -54.1841
L56.5214 -54.4348
L56.5436 -54.6839
L56.5645 -54.9312
L56.584 -55.1768
L56.6021 -55.4207
L56.9651 -55.663
L57.2988 -55.3058
L57.6261 -54.937
L57.9467 -54.5624
L58.2607 -54.1822
L58.5679 -53.7964
L58.8682 -53.4052
L59.1616 -53.0086
L59.4479 -52.6069
L59.7271 -52.2002
L59.999 -51.7885
L60.2636 -51.372
L60.5208 -50.9508
L60.7706 -50.5251
L61.0128 -50.0949
L61.2474 -49.6605
L61.4743 -49.2219
L61.6935 -48.7792
L61.9048 -48.3327
L62.1082 -47.8824
L62.3037 -47.4285
L62.4912 -46.9711
L62.6706 -46.5104
L62.8418 -46.0464
L63.0049 -45.5794
L63.1598 -45.1095
L63.3064 -44.6368
L63.4447 -44.1615
L63.5746 -43.6837
L63.6961 -43.2035
L63.8092 -42.7212
L63.9138 -42.2368
L64.0099 -41.7505
L64.0975 -41.2625
L64.1765 -40.7729
L64.247 -40.2818
L64.3088 -39.7894
L64.362 -39.2958
L64.4066 -38.8012
L64.4425 -38.3058
L64.4697 -37.8097
L64.4883 -37.313
L64.4982 -36.816
L64.4994 -36.3187
L64.492 -35.8213
L64.4758 -35.3239
L64.451 -34.8268
L64.4175 -34.33
L64.3754 -33.8337
L64.3246 -33.338
L64.2652 -32.8432
L64.1972 -32.3494
L64.1206 -31.8566
L64.0354 -31.3652
L63.9417 -30.8751
L63.8395 -30.3866
L63.7288 -29.8998
L63.6096 -29.4149
L63.4821 -28.9319
L63.3462 -28.4512
L63.2019 -27.9727
L63.0493 -27.4966
L62.8886 -27.0232
L62.7196 -26.5525
L62.5425 -26.0847
L62.3573 -25.6198
L62.164 -25.1582
L61.9628 -24.6998
L61.7537 -24.2449
L61.5368 -23.7936
L61.312 -23.346
L61.0796 -22.9023
L60.8395 -22.4625
L60.5919 -22.0269
L60.3367 -21.5955
L60.0742 -21.1685
L59.8043 -20.746
L59.5272 -20.3282
L59.2429 -19.9151
L58.9515 -19.507
L58.6531 -19.1038
L58.3478 -18.7059
L58.0357 -18.3131
L57.7169 -17.9258
L57.3915 -17.544
L57.0596 -17.1678
L56.7213 -16.7973
L56.3766 -16.4327
L56.0258 -16.0741
L55.6688 -15.7215
z
" id="C0_2_919f6acb3d"/>
    </defs>
    <g clip-path="url(#p1bffca34e9)">
     <use style="fill:#ffffff;stroke:#000000;stroke-width:2.0;" x="0.0" xlink:href="#C0_0_a811fe30f3" y="72.0"/>
    </g>
    <g clip-path="url(#p1bffca34e9)">
     <use style="fill:#ff0000;stroke:#000000;stroke-width:2.0;" x="0.0" xlink:href="#C0_1_46bbb005db" y="72.0"/>
    </g>
    <g clip-path="url(#p1bffca34e9)">
     <use style="fill:#ff0000;stroke:#000000;stroke-width:2.0;" x="0.0" xlink:href="#C0_2_919f6acb3d" y="72.0"/>
    </g>
   </g>
  </g>
 </g>
 <defs>
  <clipPath id="p1bffca34e9">
   <rect height="72.0" width="72.0" x="0.0" y="0.0"/>
  </clipPath>
 </defs>
</svg>
