<?xml version="1.0" encoding="utf-8" standalone="no"?>
<!DOCTYPE svg PUBLIC "-//W3C//DTD SVG 1.1//EN"
  "http://www.w3.org/Graphics/SVG/1.1/DTD/svg11.dtd">
<!-- Created with matplotlib (http://matplotlib.org/) -->
<svg height="72pt" version="1.1" viewBox="0 0 72 72" width="72pt" xmlns="http://www.w3.org/2000/svg" xmlns:xlink="http://www.w3.org/1999/xlink">
 <defs>
  <style type="text/css">
*{stroke-linecap:butt;stroke-linejoin:round;}
  </style>
 </defs>
 <g id="figure_1">
  <g id="patch_1">
   <path d="
M0 72
L72 72
L72 0
L0 0
z
" style="fill:none;"/>
  </g>
  <g id="axes_1">
   <g id="PatchCollection_1">
    <defs>
     <path d="
M36 -7.5
C43.5583 -7.5 50.808 -10.5029 56.1525 -15.8475
C61.4971 -21.192 64.5 -28.4417 64.5 -36
C64.5 -43.5583 61.4971 -50.808 56.1525 -56.1525
C50.808 -61.4971 43.5583 -64.5 36 -64.5
C28.4417 -64.5 21.192 -61.4971 15.8475 -56.1525
C10.5029 -50.808 7.5 -43.5583 7.5 -36
C7.5 -28.4417 10.5029 -21.192 15.8475 -15.8475
C21.192 -10.5029 28.4417 -7.5 36 -7.5
z
" id="C0_0_a811fe30f3"/>
     <path d="
M20.3523 -12.3851
L20.4258 -12.6123
L20.5136 -12.834
L20.615 -13.05
L20.7296 -13.2606
L20.8568 -13.4659
L20.9959 -13.6662
L21.1464 -13.8616
L21.3076 -14.0524
L21.479 -14.2388
L21.6598 -14.4211
L21.8496 -14.5996
L22.0477 -14.7745
L22.2534 -14.9461
L22.4663 -15.1146
L22.6858 -15.2803
L22.9113 -15.4435
L23.1424 -15.6043
L23.3785 -15.763
L23.6192 -15.9199
L23.864 -16.075
L24.1125 -16.2286
L24.3643 -16.3808
L24.6191 -16.5318
L24.8764 -16.6817
L25.1359 -16.8307
L25.3973 -16.9789
L25.6604 -17.1263
L25.9248 -17.2732
L26.1904 -17.4195
L26.4568 -17.5653
L26.7238 -17.7107
L26.9913 -17.8559
L27.2591 -18.0007
L27.5269 -18.1453
L27.7947 -18.2897
L28.0622 -18.434
L28.3294 -18.5782
L28.5962 -18.7223
L28.8624 -18.8663
L29.1279 -19.0103
L29.3926 -19.1543
L29.6565 -19.2982
L29.9195 -19.4422
L30.1816 -19.5862
L30.4426 -19.7303
L30.7025 -19.8744
L30.9614 -20.0185
L31.2191 -20.1628
L31.4756 -20.3071
L31.7309 -20.4515
L31.985 -20.596
L32.2379 -20.7406
L32.4895 -20.8853
L32.7399 -21.0301
L32.989 -21.175
L33.2369 -21.3201
L33.4835 -21.4653
L33.7289 -21.6107
L33.9731 -21.7563
L34.2161 -21.902
L34.4578 -22.0479
L34.6984 -22.1939
L34.9378 -22.3402
L35.1761 -22.4867
L35.4132 -22.6334
L35.6493 -22.7804
L35.8843 -22.9276
L36.1182 -23.0751
L36.3511 -23.2229
L36.583 -23.3709
L36.814 -23.5193
L37.044 -23.6679
L37.2731 -23.817
L37.5013 -23.9664
L37.7287 -24.1161
L37.9553 -24.2663
L38.1811 -24.4168
L38.4061 -24.5678
L38.6305 -24.7193
L38.8541 -24.8712
L39.0771 -25.0236
L39.2995 -25.1765
L39.5213 -25.33
L39.7426 -25.484
L39.9634 -25.6386
L40.1836 -25.7938
L40.6229 -25.9496
L40.8419 -26.106
L41.0606 -26.2631
L41.279 -26.4209
L41.4971 -26.5795
L41.715 -26.7387
L41.9326 -26.8988
L42.1501 -27.0596
L42.3674 -27.2212
L42.5846 -27.3837
L42.8018 -27.547
L43.0188 -27.7112
L43.2359 -27.8764
L43.4529 -28.0425
L43.67 -28.2095
L43.8872 -28.3775
L44.1044 -28.5466
L44.3218 -28.7167
L44.5393 -28.8878
L44.757 -29.06
L44.9749 -29.2334
L45.193 -29.4079
L45.4114 -29.5835
L45.63 -29.7603
L45.849 -29.9383
L46.0683 -30.1176
L46.2879 -30.2981
L46.5079 -30.4798
L46.7282 -30.6628
L46.949 -30.8471
L47.1702 -31.0327
L47.3919 -31.2196
L47.614 -31.4079
L47.8365 -31.5975
L48.0596 -31.7884
L48.2831 -31.9807
L48.5072 -32.1743
L48.7318 -32.3693
L48.9569 -32.5656
L49.1825 -32.7632
L49.4086 -32.9622
L49.6353 -33.1625
L49.8626 -33.364
L50.0904 -33.5668
L50.3187 -33.7709
L50.5476 -33.9761
L50.777 -34.1825
L51.007 -34.3899
L51.2375 -34.5984
L51.4685 -34.8079
L51.7 -35.0182
L51.9321 -35.2294
L52.1646 -35.4413
L52.3977 -35.6538
L52.6312 -35.8669
L52.8652 -36.0803
L53.0997 -36.2939
L53.3346 -36.5077
L53.57 -36.7213
L53.8058 -36.9347
L54.042 -37.1477
L54.2787 -37.36
L54.5157 -37.5714
L54.7532 -37.7816
L54.9911 -37.9905
L55.2293 -38.1976
L55.468 -38.4027
L55.7071 -38.6055
L55.9466 -38.8056
L56.1866 -39.0026
L56.427 -39.1961
L56.6679 -39.3857
L56.9093 -39.5709
L57.1512 -39.7514
L57.3937 -39.9265
L57.6368 -40.0958
L57.8805 -40.2588
L58.1248 -40.4148
L58.3698 -40.5634
L58.6156 -40.7039
L58.8621 -40.8358
L59.1093 -40.9585
L59.3574 -41.0713
L59.6062 -41.1738
L59.8558 -41.2652
L60.1061 -41.3451
L60.3572 -41.4129
L60.6089 -41.468
L60.8613 -41.5101
L61.114 -41.5386
L61.3672 -41.5531
L61.6205 -41.5533
L61.8739 -41.5389
L62.1271 -41.5095
L62.3799 -41.4651
L62.6321 -41.4054
L62.8833 -41.3303
L63.1334 -41.2399
L63.382 -41.1341
L63.6288 -41.0129
L63.8735 -40.8766
L64.1157 -40.7253
L64.2079 -40.5591
L64.2746 -40.0701
L64.3327 -39.5772
L64.3822 -39.0832
L64.4231 -38.5882
L64.4553 -38.0925
L64.4788 -37.5961
L64.4936 -37.0993
L64.4998 -36.6021
L64.4973 -36.1047
L64.4861 -35.6073
L64.4662 -35.11
L64.4377 -34.613
L64.4005 -34.1164
L64.3546 -33.6204
L64.3001 -33.1251
L64.237 -32.6307
L64.1653 -32.1373
L64.085 -31.6451
L63.9962 -31.1542
L63.8988 -30.6648
L63.7929 -30.177
L63.6786 -29.691
L63.5558 -29.2069
L63.4246 -28.7249
L63.2851 -28.2451
L63.1373 -27.7676
L62.9812 -27.2927
L62.8169 -26.8204
L62.6444 -26.3509
L62.4638 -25.8843
L62.2751 -25.4209
L62.0785 -24.9606
L61.8739 -24.5038
L61.6614 -24.0504
L61.4411 -23.6006
L61.213 -23.1547
L60.9773 -22.7126
L60.7339 -22.2746
L60.483 -21.8408
L60.2247 -21.4113
L59.959 -20.9862
L59.686 -20.5657
L59.4057 -20.1499
L59.1184 -19.739
L58.824 -19.333
L58.5226 -18.932
L58.2144 -18.5363
L57.8994 -18.1459
L57.5778 -17.7609
L57.2496 -17.3815
L56.9149 -17.0077
L56.5738 -16.6398
L56.2265 -16.2777
L55.873 -15.9216
L55.5134 -15.5717
L55.1479 -15.228
L54.7766 -14.8906
L54.3995 -14.5596
L54.0169 -14.2352
L53.6288 -13.9174
L53.2352 -13.6063
L52.8365 -13.3021
L52.4326 -13.0047
L52.0237 -12.7144
L51.6099 -12.4311
L51.1914 -12.1551
L50.7682 -11.8863
L50.3406 -11.6248
L49.9086 -11.3708
L49.4723 -11.1243
L49.0319 -10.8853
L48.5876 -10.654
L48.1394 -10.4304
L47.6876 -10.2147
L47.2322 -10.0067
L46.7733 -9.80671
L46.3112 -9.61467
L45.8459 -9.43067
L45.3776 -9.25476
L44.9065 -9.087
L44.4327 -8.92743
L43.9563 -8.77612
L43.4774 -8.63309
L42.9963 -8.4984
L42.5131 -8.37209
L42.0279 -8.2542
L41.5408 -8.14475
L41.0521 -8.0438
L40.5618 -7.95135
L40.0701 -7.86745
L39.5772 -7.79212
L39.0832 -7.72539
L38.5882 -7.66726
L38.0925 -7.61777
L37.5961 -7.57692
L37.0993 -7.54473
L36.6021 -7.52121
L36.1047 -7.50636
L35.6073 -7.50019
L35.11 -7.50271
L34.613 -7.5139
L34.1164 -7.53377
L33.6204 -7.56231
L33.1251 -7.59952
L32.6307 -7.64537
L32.1373 -7.69986
L31.6451 -7.76298
L31.1542 -7.83469
L30.6648 -7.91498
L30.177 -8.00383
L29.691 -8.10121
L29.2069 -8.20708
L28.7249 -8.32142
L28.2451 -8.4442
L27.7676 -8.57536
L27.2927 -8.71488
L26.8204 -8.86271
L26.3509 -9.01881
L25.8843 -9.18312
L25.4209 -9.35561
L24.9606 -9.53621
L24.5038 -9.72487
L24.0504 -9.92154
L23.6006 -10.1261
L23.1547 -10.3386
L22.7126 -10.5589
L22.2746 -10.787
L21.8408 -11.0227
L21.4113 -11.2661
L20.9862 -11.517
z
" id="C0_1_8b0546af95"/>
     <path d="
M8.02392 -31.6803
L8.19724 -31.9323
L8.37074 -32.1909
L8.54461 -32.4554
L8.71901 -32.7251
L8.8941 -32.9996
L9.07002 -33.2782
L9.24689 -33.5603
L9.42482 -33.8455
L9.60391 -34.1333
L9.78424 -34.4231
L9.96587 -34.7145
L10.1489 -35.0071
L10.3333 -35.3006
L10.5191 -35.5945
L10.7064 -35.8885
L10.8952 -36.1824
L11.0854 -36.4757
L11.2772 -36.7683
L11.4703 -37.06
L11.6649 -37.3504
L11.8609 -37.6394
L12.0584 -37.9268
L12.2571 -38.2124
L12.4572 -38.4961
L12.6586 -38.7778
L12.8612 -39.0574
L13.065 -39.3346
L13.27 -39.6095
L13.4761 -39.882
L13.6833 -40.152
L13.8916 -40.4194
L14.1008 -40.6842
L14.311 -40.9463
L14.5221 -41.2058
L14.7342 -41.4625
L14.947 -41.7166
L15.1608 -41.9679
L15.3753 -42.2164
L15.5905 -42.4622
L15.8065 -42.7053
L16.0232 -42.9457
L16.2406 -43.1833
L16.4587 -43.4182
L16.6774 -43.6505
L16.8967 -43.8801
L17.1167 -44.107
L17.3372 -44.3314
L17.5584 -44.5532
L17.7801 -44.7724
L18.0025 -44.9891
L18.2253 -45.2033
L18.4488 -45.4151
L18.6728 -45.6244
L18.8975 -45.8314
L19.1226 -46.036
L19.3484 -46.2383
L19.5748 -46.4384
L19.8017 -46.6362
L20.0293 -46.8318
L20.2574 -47.0253
L20.4862 -47.2166
L20.7157 -47.4059
L20.9458 -47.593
L21.1766 -47.7782
L21.408 -47.9614
L21.6402 -48.1427
L21.8732 -48.322
L22.1069 -48.4995
L22.3413 -48.6751
L22.5766 -48.8489
L22.8128 -49.0209
L23.0497 -49.1911
L23.2876 -49.3597
L23.5264 -49.5265
L23.7661 -49.6917
L24.0068 -49.8553
L24.2485 -50.0172
L24.4913 -50.1776
L24.7351 -50.3363
L24.9801 -50.4936
L25.2262 -50.6493
L25.4734 -50.8036
L25.7219 -50.9563
L25.9716 -51.1076
L26.2226 -51.2575
L26.475 -51.4059
L26.7287 -51.553
L26.9837 -51.6986
L27.2403 -51.8429
L27.4983 -51.9858
L27.7578 -52.1273
L28.0189 -52.2675
L28.2815 -52.4063
L28.5458 -52.5438
L28.8118 -52.68
L29.0795 -52.8149
L29.3489 -52.9484
L29.6202 -53.0807
L29.8932 -53.2116
L30.1681 -53.3412
L30.4449 -53.4694
L30.7237 -53.5964
L31.0044 -53.722
L31.2871 -53.8463
L31.5719 -53.9692
L31.8588 -54.0908
L32.1477 -54.211
L32.4388 -54.3299
L32.732 -54.4473
L33.0275 -54.5634
L33.3251 -54.6781
L33.625 -54.7913
L33.9271 -54.9031
L34.2314 -55.0135
L34.5381 -55.1224
L34.847 -55.2297
L35.1582 -55.3356
L35.4717 -55.44
L35.7875 -55.5428
L36.1055 -55.644
L36.4258 -55.7437
L36.7484 -55.8417
L37.0731 -55.9382
L37.4 -56.033
L37.7291 -56.1261
L38.0603 -56.2176
L38.3934 -56.3075
L38.7286 -56.3957
L39.0657 -56.4822
L39.4045 -56.5671
L39.7451 -56.6503
L40.0873 -56.7318
L40.4311 -56.8117
L40.7762 -56.8901
L41.1225 -56.9668
L41.4699 -57.042
L41.8183 -57.1158
L42.1674 -57.1881
L42.517 -57.2591
L42.867 -57.3288
L43.2171 -57.3973
L43.567 -57.4648
L43.9166 -57.5314
L44.2654 -57.5972
L44.6133 -57.6624
L44.96 -57.7271
L45.305 -57.7916
L45.648 -57.8561
L45.9887 -57.9207
L46.3267 -57.9859
L46.6616 -58.0518
L46.9929 -58.1187
L47.3203 -58.187
L47.6433 -58.257
L47.9615 -58.329
L48.2743 -58.4033
L48.5813 -58.4805
L48.882 -58.5608
L49.176 -58.6446
L49.4628 -58.7323
L49.7419 -58.8244
L50.0128 -58.921
L50.2752 -59.0227
L50.5285 -59.1298
L50.7723 -59.2425
L51.0062 -59.3611
L51.23 -59.486
L51.4431 -59.6172
L51.2582 -59.7551
L50.8357 -60.0715
L50.4088 -60.3341
L49.9775 -60.5894
L49.5419 -60.8371
L49.1021 -61.0772
L48.6584 -61.3098
L48.2109 -61.5346
L47.7596 -61.7516
L47.3047 -61.9608
L46.8464 -62.1621
L46.3848 -62.3554
L45.92 -62.5407
L45.4522 -62.7179
L44.9815 -62.8869
L44.5081 -63.0478
L44.0321 -63.2004
L43.5536 -63.3448
L43.0729 -63.4808
L42.59 -63.6084
L42.105 -63.7276
L41.6183 -63.8384
L41.1298 -63.9407
L40.6397 -64.0345
L40.1483 -64.1198
L39.6555 -64.1965
L39.1617 -64.2646
L38.6669 -64.3241
L38.1713 -64.3749
L37.675 -64.4172
L37.1782 -64.4507
L36.6811 -64.4756
L36.1837 -64.4919
L35.6863 -64.4994
L35.189 -64.4983
L34.6919 -64.4885
L34.1952 -64.47
L33.6991 -64.4428
L33.2037 -64.407
L32.7091 -64.3625
L32.2156 -64.3094
L31.7232 -64.2476
L31.232 -64.1773
L30.7424 -64.0983
L30.2543 -64.0108
L29.768 -63.9148
L29.2836 -63.8103
L28.8013 -63.6973
L28.3211 -63.5759
L27.8433 -63.446
L27.3679 -63.3078
L26.8952 -63.1613
L26.4253 -63.0065
L25.9582 -62.8435
L25.4943 -62.6723
L25.0335 -62.493
L24.5761 -62.3056
L24.1221 -62.1102
L23.6718 -61.9069
L23.2252 -61.6956
L22.7825 -61.4766
L22.3439 -61.2497
L21.9094 -61.0152
L21.4792 -60.7731
L21.0534 -60.5234
L20.6322 -60.2662
L20.2156 -60.0017
L19.8039 -59.7298
L19.3971 -59.4507
L18.9953 -59.1645
L18.5988 -58.8712
L18.2075 -58.5709
L17.8217 -58.2638
L17.4413 -57.9499
L17.0667 -57.6293
L16.6978 -57.3021
L16.3348 -56.9684
L15.9778 -56.6284
L15.6269 -56.282
L15.2821 -55.9295
L14.9437 -55.5709
L14.6117 -55.2063
L14.2863 -54.8359
L13.9674 -54.4598
L13.6553 -54.078
L13.3499 -53.6907
L13.0515 -53.2981
L12.76 -52.9002
L12.4756 -52.4971
L12.1984 -52.089
L11.9285 -51.676
L11.6659 -51.2582
L11.4106 -50.8357
L11.1629 -50.4088
L10.9228 -49.9775
L10.6902 -49.5419
L10.4654 -49.1021
L10.2484 -48.6584
L10.0392 -48.2109
L9.83794 -47.7596
L9.64463 -47.3047
L9.45934 -46.8464
L9.28215 -46.3848
L9.11309 -45.92
L8.95222 -45.4522
L8.79959 -44.9815
L8.65525 -44.5081
L8.51923 -44.0321
L8.39159 -43.5536
L8.27235 -43.0729
L8.16157 -42.59
L8.05926 -42.105
L7.96546 -41.6183
L7.8802 -41.1298
L7.80351 -40.6397
L7.73541 -40.1483
L7.67592 -39.6555
L7.62505 -39.1617
L7.58283 -38.6669
L7.54926 -38.1713
L7.52436 -37.675
L7.50814 -37.1782
L7.50059 -36.6811
L7.50173 -36.1837
L7.51154 -35.6863
L7.53004 -35.189
L7.5572 -34.6919
L7.59303 -34.1952
L7.63751 -33.6991
L7.69063 -33.2037
L7.75238 -32.7091
z
" id="C0_2_55d8203345"/>
    </defs>
    <g clip-path="url(#p1bffca34e9)">
     <use style="fill:#ff0000;stroke:#000000;stroke-width:2.0;" x="0.0" xlink:href="#C0_0_a811fe30f3" y="72.0"/>
    </g>
    <g clip-path="url(#p1bffca34e9)">
     <use style="fill:#ffffff;stroke:#000000;stroke-width:2.0;" x="0.0" xlink:href="#C0_1_8b0546af95" y="72.0"/>
    </g>
    <g clip-path="url(#p1bffca34e9)">
     <use style="fill:#ffffff;stroke:#000000;stroke-width:2.0;" x="0.0" xlink:href="#C0_2_55d8203345" y="72.0"/>
    </g>
   </g>
  </g>
 </g>
 <defs>
  <clipPath id="p1bffca34e9">
   <rect height="72.0" width="72.0" x="0.0" y="0.0"/>
  </clipPath>
 </defs>
</svg>
