<?xml version="1.0" encoding="utf-8" standalone="no"?>
<!DOCTYPE svg PUBLIC "-//W3C//DTD SVG 1.1//EN"
  "http://www.w3.org/Graphics/SVG/1.1/DTD/svg11.dtd">
<!-- Created with matplotlib (http://matplotlib.org/) -->
<svg height="72pt" version="1.1" viewBox="0 0 72 72" width="72pt" xmlns="http://www.w3.org/2000/svg" xmlns:xlink="http://www.w3.org/1999/xlink">
 <defs>
  <style type="text/css">
*{stroke-linecap:butt;stroke-linejoin:round;}
  </style>
 </defs>
 <g id="figure_1">
  <g id="patch_1">
   <path d="
M0 72
L72 72
L72 0
L0 0
z
" style="fill:none;"/>
  </g>
  <g id="axes_1">
   <g id="PatchCollection_1">
    <defs>
     <path d="
M36 -7.5
C43.5583 -7.5 50.808 -10.5029 56.1525 -15.8475
C61.4971 -21.192 64.5 -28.4417 64.5 -36
C64.5 -43.5583 61.4971 -50.808 56.1525 -56.1525
C50.808 -61.4971 43.5583 -64.5 36 -64.5
C28.4417 -64.5 21.192 -61.4971 15.8475 -56.1525
C10.5029 -50.808 7.5 -43.5583 7.5 -36
C7.5 -28.4417 10.5029 -21.192 15.8475 -15.8475
C21.192 -10.5029 28.4417 -7.5 36 -7.5
z
" id="C0_0_a811fe30f3"/>
     <path d="
M27.7728 -63.2504
L27.3961 -62.9996
L27.0342 -62.7351
L26.6872 -62.4581
L26.3548 -62.1698
L26.037 -61.8712
L25.7334 -61.5636
L25.4437 -61.2478
L25.1675 -60.9249
L24.9045 -60.5957
L24.6543 -60.2611
L24.4165 -59.9218
L24.1906 -59.5785
L23.9764 -59.2318
L23.7732 -58.8825
L23.5809 -58.5309
L23.399 -58.1777
L23.227 -57.8232
L23.0647 -57.4679
L22.9117 -57.1122
L22.7676 -56.7563
L22.632 -56.4007
L22.5048 -56.0456
L22.3854 -55.6913
L22.2737 -55.3379
L22.1693 -54.9858
L22.072 -54.635
L21.9814 -54.2858
L21.8973 -53.9384
L21.8194 -53.5927
L21.7475 -53.249
L21.6814 -52.9074
L21.6208 -52.5679
L21.5655 -52.2306
L21.5153 -51.8956
L21.47 -51.563
L21.4293 -51.2327
L21.3932 -50.9048
L21.3614 -50.5793
L21.3338 -50.2563
L21.3102 -49.9357
L21.2905 -49.6176
L21.2745 -49.3019
L21.262 -48.9886
L21.253 -48.6778
L21.2473 -48.3693
L21.2448 -48.0633
L21.2453 -47.7595
L21.2489 -47.4581
L21.2553 -47.159
L21.2644 -46.8621
L21.2763 -46.5674
L21.2907 -46.2749
L21.3077 -45.9845
L21.3271 -45.6961
L21.3488 -45.4098
L21.3729 -45.1254
L21.3992 -44.843
L21.4276 -44.5624
L21.4582 -44.2836
L21.4908 -44.0066
L21.5255 -43.7312
L21.5621 -43.4576
L21.6006 -43.1855
L21.6411 -42.915
L21.6833 -42.6459
L21.7274 -42.3782
L21.7733 -42.112
L21.821 -41.847
L21.8703 -41.5833
L21.9214 -41.3208
L21.9742 -41.0594
L22.0287 -40.7991
L22.0848 -40.5398
L22.1426 -40.2815
L22.2021 -40.0241
L22.2632 -39.7675
L22.3259 -39.5118
L22.3902 -39.2568
L22.4562 -39.0025
L22.5237 -38.7488
L22.593 -38.4957
L22.6638 -38.2431
L22.8105 -37.991
L22.8863 -37.7393
L22.9638 -37.488
L23.043 -37.237
L23.1238 -36.9862
L23.2065 -36.7357
L23.2908 -36.4853
L23.3769 -36.235
L23.4649 -35.9848
L23.5546 -35.7345
L23.6462 -35.4843
L23.7396 -35.2339
L23.835 -34.9834
L23.9323 -34.7327
L24.0316 -34.4818
L24.1329 -34.2305
L24.2362 -33.979
L24.3416 -33.7271
L24.4492 -33.4748
L24.5589 -33.222
L24.6709 -32.9687
L24.7851 -32.7149
L24.9017 -32.4605
L25.0206 -32.2054
L25.1419 -31.9498
L25.2658 -31.6934
L25.3921 -31.4363
L25.5211 -31.1785
L25.6528 -30.9199
L25.7871 -30.6605
L25.9243 -30.4002
L26.0643 -30.1391
L26.2073 -29.8771
L26.3533 -29.6143
L26.5023 -29.3505
L26.6545 -29.0858
L26.8099 -28.8201
L26.9687 -28.5536
L27.1308 -28.2861
L27.2964 -28.0176
L27.4656 -27.7483
L27.6384 -27.478
L27.8149 -27.2069
L27.9952 -26.9349
L28.1795 -26.6621
L28.3677 -26.3885
L28.56 -26.1141
L28.7565 -25.8391
L28.9573 -25.5634
L29.1624 -25.2872
L29.372 -25.0105
L29.5861 -24.7334
L29.8049 -24.456
L30.0283 -24.1784
L30.2566 -23.9008
L30.4897 -23.6233
L30.7279 -23.3461
L30.9711 -23.0692
L31.2194 -22.793
L31.4729 -22.5176
L31.7316 -22.2432
L31.9958 -21.97
L32.2653 -21.6984
L32.5402 -21.4286
L32.8206 -21.161
L33.1066 -20.8958
L33.3981 -20.6335
L33.6951 -20.3743
L33.9978 -20.1189
L34.306 -19.8676
L34.6197 -19.6209
L34.939 -19.3793
L35.2637 -19.1436
L35.5938 -18.9142
L35.9293 -18.692
L36.27 -18.4775
L36.6158 -18.2717
L36.9665 -18.0754
L37.322 -17.8894
L37.6821 -17.7148
L38.0465 -17.5525
L38.4149 -17.4037
L38.787 -17.2694
L39.1625 -17.1509
L39.541 -17.0492
L39.9219 -16.9654
L40.3048 -16.9008
L40.6892 -16.8562
L41.0744 -16.8327
L41.4598 -16.8308
L41.8448 -16.8513
L42.2286 -16.8944
L42.6107 -16.9603
L42.9903 -17.0488
L43.3668 -17.1595
L43.7395 -17.2918
L44.1078 -17.4451
L44.4712 -17.6182
L44.8293 -17.8102
L45.1814 -18.0199
L45.5273 -18.2462
L45.8665 -18.4878
L46.1989 -18.7435
L46.524 -19.0122
L46.8418 -19.2927
L47.1519 -19.584
L47.4544 -19.885
L47.7491 -20.1947
L48.0358 -20.5123
L48.3147 -20.8369
L48.5855 -21.1677
L48.8485 -21.5039
L49.1035 -21.8449
L49.3506 -22.1901
L49.5899 -22.5389
L49.8215 -22.8907
L50.0453 -23.245
L50.2616 -23.6014
L50.4705 -23.9595
L50.672 -24.3188
L50.8662 -24.6789
L51.0534 -25.0397
L51.2335 -25.4007
L51.4069 -25.7617
L51.5735 -26.1224
L51.7336 -26.4827
L51.8873 -26.8422
L52.0347 -27.2008
L52.176 -27.5584
L52.3113 -27.9148
L52.4408 -28.2698
L52.5646 -28.6234
L52.6829 -28.9754
L52.7957 -29.3257
L52.9033 -29.6743
L53.0057 -30.0211
L53.1031 -30.366
L53.1957 -30.709
L53.2834 -31.05
L53.3666 -31.389
L53.4453 -31.726
L53.5195 -32.061
L53.5895 -32.3939
L53.6553 -32.7248
L53.717 -33.0536
L53.7747 -33.3804
L53.8286 -33.7052
L53.8787 -34.0279
L53.9251 -34.3487
L53.9678 -34.6675
L54.0071 -34.9844
L54.0429 -35.2993
L54.0754 -35.6124
L54.1045 -35.9237
L54.1304 -36.2331
L54.1531 -36.5408
L54.1727 -36.8468
L54.1893 -37.1511
L54.2029 -37.4537
L54.2135 -37.7548
L54.2212 -38.0543
L54.2261 -38.3524
L54.2281 -38.649
L54.2274 -38.9443
L54.2239 -39.2381
L54.2177 -39.5308
L54.2088 -39.8221
L54.1973 -40.1123
L54.1831 -40.4014
L54.1663 -40.6894
L54.1468 -40.9763
L54.1248 -41.2623
L54.1003 -41.5474
L54.0731 -41.8316
L54.0434 -42.115
L54.0111 -42.3976
L53.9763 -42.6795
L53.9389 -42.9608
L53.8989 -43.2414
L53.8563 -43.5215
L53.8112 -43.8011
L53.7634 -44.0803
L53.713 -44.359
L53.66 -44.6374
L53.6043 -44.9155
L53.5459 -45.1934
L53.4847 -45.471
L53.4208 -45.7485
L53.3542 -46.0258
L53.2847 -46.3031
L53.2123 -46.5804
L53.1371 -46.8577
L53.0588 -47.135
L52.9776 -47.4125
L52.8933 -47.6901
L52.8059 -47.9679
L52.7153 -48.2459
L52.6215 -48.5242
L52.5243 -48.8027
L52.4238 -49.0816
L52.3199 -49.3608
L52.2124 -49.6405
L52.1013 -49.9205
L51.9865 -50.201
L51.868 -50.482
L51.7455 -50.7634
L51.6192 -51.0453
L51.4887 -51.3278
L51.3541 -51.6107
L51.2152 -51.8942
L51.0719 -52.1783
L50.924 -52.4629
L50.7716 -52.748
L50.6144 -53.0336
L50.4524 -53.3198
L50.2853 -53.6064
L50.1131 -53.8936
L49.9356 -54.1811
L49.7526 -54.4691
L49.5641 -54.7574
L49.3698 -55.0461
L49.1696 -55.335
L48.9634 -55.624
L48.751 -55.9132
L48.5322 -56.2024
L48.3068 -56.4916
L48.0747 -56.7806
L47.8358 -57.0693
L47.5897 -57.3575
L47.3364 -57.6452
L47.0757 -57.9322
L46.8074 -58.2183
L46.5313 -58.5033
L46.2473 -58.7871
L45.9552 -59.0694
L45.6547 -59.3499
L45.3459 -59.6285
L45.0284 -59.9048
L44.7022 -60.1786
L44.3672 -60.4495
L44.0231 -60.7172
L43.67 -60.9814
L43.3076 -61.2416
L42.936 -61.4975
L42.555 -61.7485
L42.1647 -61.9943
L41.765 -62.2344
L41.356 -62.4682
L40.9377 -62.6952
L40.5104 -62.9147
L40.074 -63.1263
L39.6288 -63.3292
L39.1751 -63.5228
L38.7132 -63.7063
L38.2435 -63.8791
L37.7665 -64.0403
L37.2826 -64.1892
L36.7926 -64.325
L36.2965 -64.4468
L35.7991 -64.4985
L35.3017 -64.4993
L34.8046 -64.4914
L34.3078 -64.4749
L33.8116 -64.4497
L33.316 -64.4159
L32.8212 -64.3733
L32.3274 -64.3222
L31.8347 -64.2624
L31.3433 -64.194
L30.8533 -64.117
L30.3649 -64.0314
L29.8781 -63.9373
L29.3933 -63.8347
L28.9104 -63.7237
L28.4298 -63.6041
z
" id="C0_1_7a37defeee"/>
     <path d="
M35.7039 -7.55695
L36.2006 -7.64719
L36.695 -7.7388
L37.1869 -7.83083
L37.676 -7.92226
L38.1624 -8.01205
L38.6459 -8.09917
L39.1264 -8.18259
L39.604 -8.26135
L40.0787 -8.33456
L40.5507 -8.40147
L41.02 -8.46151
L41.4868 -8.51429
L41.9514 -8.55962
L42.4139 -8.59755
L42.8745 -8.62833
L43.3335 -8.65241
L43.3339 -8.67042
L42.8521 -8.45977
L42.3682 -8.33597
L41.8825 -8.22059
L41.3949 -8.11368
L40.9057 -8.01527
L40.4149 -7.92538
L39.9229 -7.84404
L39.4296 -7.77127
L38.9353 -7.70711
L38.4401 -7.65156
L37.9442 -7.60465
L37.4477 -7.56639
L36.9507 -7.53679
L36.4534 -7.51586
z
" id="C0_2_e268efe6e5"/>
    </defs>
    <g clip-path="url(#p1bffca34e9)">
     <use style="fill:#ffffff;stroke:#000000;stroke-width:2.0;" x="0.0" xlink:href="#C0_0_a811fe30f3" y="72.0"/>
    </g>
    <g clip-path="url(#p1bffca34e9)">
     <use style="fill:#ff0000;stroke:#000000;stroke-width:2.0;" x="0.0" xlink:href="#C0_1_7a37defeee" y="72.0"/>
    </g>
    <g clip-path="url(#p1bffca34e9)">
     <use style="fill:#ff0000;stroke:#000000;stroke-width:2.0;" x="0.0" xlink:href="#C0_2_e268efe6e5" y="72.0"/>
    </g>
   </g>
  </g>
 </g>
 <defs>
  <clipPath id="p1bffca34e9">
   <rect height="72.0" width="72.0" x="0.0" y="0.0"/>
  </clipPath>
 </defs>
</svg>
