<?xml version="1.0" encoding="utf-8" standalone="no"?>
<!DOCTYPE svg PUBLIC "-//W3C//DTD SVG 1.1//EN"
  "http://www.w3.org/Graphics/SVG/1.1/DTD/svg11.dtd">
<!-- Created with matplotlib (http://matplotlib.org/) -->
<svg height="72pt" version="1.1" viewBox="0 0 72 72" width="72pt" xmlns="http://www.w3.org/2000/svg" xmlns:xlink="http://www.w3.org/1999/xlink">
 <defs>
  <style type="text/css">
*{stroke-linecap:butt;stroke-linejoin:round;}
  </style>
 </defs>
 <g id="figure_1">
  <g id="patch_1">
   <path d="
M0 72
L72 72
L72 0
L0 0
z
" style="fill:none;"/>
  </g>
  <g id="axes_1">
   <g id="PatchCollection_1">
    <defs>
     <path d="
M36 -7.5
C43.5583 -7.5 50.808 -10.5029 56.1525 -15.8475
C61.4971 -21.192 64.5 -28.4417 64.5 -36
C64.5 -43.5583 61.4971 -50.808 56.1525 -56.1525
C50.808 -61.4971 43.5583 -64.5 36 -64.5
C28.4417 -64.5 21.192 -61.4971 15.8475 -56.1525
C10.5029 -50.808 7.5 -43.5583 7.5 -36
C7.5 -28.4417 10.5029 -21.192 15.8475 -15.8475
C21.192 -10.5029 28.4417 -7.5 36 -7.5
z
" id="C0_0_a811fe30f3"/>
     <path d="
M64.2865 -39.2903
L64.0932 -39.2783
L63.8988 -39.2677
L63.7035 -39.2585
L63.5071 -39.2506
L63.3096 -39.244
L63.1112 -39.2387
L62.9117 -39.2345
L62.7112 -39.2315
L62.5097 -39.2296
L62.3071 -39.2288
L62.1035 -39.2291
L61.8988 -39.2304
L61.693 -39.2327
L61.4861 -39.2359
L61.2782 -39.2402
L61.0691 -39.2454
L60.6476 -39.2514
L60.4351 -39.2584
L60.2214 -39.2663
L60.0065 -39.2751
L59.7904 -39.2847
L59.5731 -39.2951
L59.3546 -39.3064
L59.1347 -39.3185
L58.9136 -39.3314
L58.6912 -39.3451
L58.4675 -39.3596
L58.2424 -39.375
L58.0159 -39.3911
L57.788 -39.408
L57.5588 -39.4257
L57.328 -39.4442
L57.0959 -39.4635
L56.8623 -39.4836
L56.6271 -39.5045
L56.3905 -39.5262
L56.1523 -39.5488
L55.9125 -39.5721
L55.6712 -39.5963
L55.4283 -39.6213
L55.1838 -39.6471
L54.9376 -39.6738
L54.6898 -39.7014
L54.4403 -39.7299
L54.1892 -39.7592
L53.9363 -39.7895
L53.6818 -39.8207
L53.4255 -39.8529
L53.1675 -39.886
L52.9078 -39.9202
L52.6463 -39.9553
L52.3831 -39.9915
L52.1182 -40.0287
L51.8515 -40.0671
L51.5831 -40.1066
L51.3129 -40.1472
L51.041 -40.189
L50.7673 -40.232
L50.492 -40.2763
L50.215 -40.3219
L49.9363 -40.3688
L49.6559 -40.4171
L49.3739 -40.4668
L49.0904 -40.5179
L48.8052 -40.5706
L48.5186 -40.6248
L48.2304 -40.6807
L47.9409 -40.7381
L47.6499 -40.7974
L47.3577 -40.8584
L47.0642 -40.9212
L46.7695 -40.9859
L46.4736 -41.0526
L46.1768 -41.1214
L45.879 -41.1922
L45.5803 -41.2652
L45.2808 -41.3405
L44.9806 -41.4181
L44.6799 -41.4981
L44.3788 -41.5806
L44.0773 -41.6657
L43.7755 -41.7535
L43.4737 -41.8439
L43.1719 -41.9373
L42.8703 -42.0335
L42.5691 -42.1328
L42.2683 -42.2351
L41.9681 -42.3407
L41.6687 -42.4495
L41.3702 -42.5617
L41.0728 -42.6773
L40.7767 -42.7965
L40.482 -42.9193
L40.1889 -43.0458
L39.8976 -43.1761
L39.6082 -43.3102
L39.3209 -43.4483
L39.0358 -43.5902
L38.7531 -43.7362
L38.473 -43.8863
L38.1956 -44.0405
L37.9211 -44.1987
L37.6497 -44.3611
L37.3813 -44.5277
L37.1163 -44.6984
L36.8547 -44.8732
L36.5966 -45.0521
L36.3421 -45.235
L36.0914 -45.422
L35.8445 -45.613
L35.6015 -45.8078
L35.3626 -46.0064
L35.1276 -46.2088
L34.8968 -46.4147
L34.6702 -46.6242
L34.4478 -46.837
L34.2296 -47.0532
L34.0157 -47.2724
L33.8061 -47.4946
L33.6007 -47.7196
L33.3997 -47.9474
L33.203 -48.1777
L33.0106 -48.4103
L32.8224 -48.6452
L32.6386 -48.8821
L32.4589 -49.1209
L32.2835 -49.3614
L32.1123 -49.6035
L31.9452 -49.8471
L31.7822 -50.0919
L31.6233 -50.3378
L31.4685 -50.5846
L31.3176 -50.8323
L31.1707 -51.0806
L31.0277 -51.3295
L30.8886 -51.5788
L30.7533 -51.8284
L30.6217 -52.0781
L30.4938 -52.3278
L30.3696 -52.5775
L30.2491 -52.827
L30.1321 -53.0762
L30.0186 -53.325
L29.9086 -53.5734
L29.802 -53.8212
L29.6988 -54.0684
L29.599 -54.315
L29.5024 -54.5607
L29.4091 -54.8056
L29.3189 -55.0496
L29.232 -55.2927
L29.1481 -55.5348
L29.0674 -55.7759
L28.9897 -56.0159
L28.9149 -56.2547
L28.8432 -56.4925
L28.7744 -56.729
L28.7085 -56.9644
L28.6455 -57.1985
L28.5853 -57.4314
L28.528 -57.6631
L28.4734 -57.8934
L28.4216 -58.1225
L28.3726 -58.3504
L28.3262 -58.5769
L28.2826 -58.8021
L28.2416 -59.026
L28.2034 -59.2487
L28.1678 -59.47
L28.1348 -59.6901
L28.1045 -59.9088
L28.0767 -60.1263
L28.0517 -60.3425
L28.0292 -60.5575
L28.0093 -60.7712
L27.9921 -60.9837
L27.9775 -61.1949
L27.9655 -61.405
L27.9561 -61.6138
L27.9494 -61.8215
L27.9453 -62.028
L27.9439 -62.2333
L27.9452 -62.4375
L27.9492 -62.6406
L27.9559 -62.8426
L27.9654 -63.0435
L28.4163 -63.2433
L28.8969 -63.4725
L29.3797 -63.6007
L29.8645 -63.7204
L30.3512 -63.8317
L30.8396 -63.9346
L31.3295 -64.0289
L31.8209 -64.1147
L32.3136 -64.1919
L32.8073 -64.2606
L33.3021 -64.3206
L33.7977 -64.372
L34.2939 -64.4148
L34.7907 -64.4489
L35.2878 -64.4743
L35.7851 -64.4911
L36.2826 -64.4992
L36.7799 -64.4986
L37.277 -64.4893
L37.7737 -64.4714
L38.2698 -64.4448
L38.7653 -64.4095
L39.2599 -64.3655
L39.7536 -64.3129
L40.246 -64.2517
L40.7372 -64.1819
L41.227 -64.1035
L41.7152 -64.0166
L42.2016 -63.9211
L42.6861 -63.8171
L43.1686 -63.7046
L43.6489 -63.5837
L44.1269 -63.4544
L44.6024 -63.3167
L45.0753 -63.1707
L45.5454 -63.0165
L46.0126 -62.854
L46.4768 -62.6833
L46.9377 -62.5045
L47.3954 -62.3176
L47.8496 -62.1227
L48.3001 -61.9198
L48.7469 -61.7091
L49.1899 -61.4905
L49.6288 -61.2642
L50.0635 -61.0301
L50.494 -60.7885
L50.9201 -60.5392
L51.3416 -60.2825
L51.7584 -60.0185
L52.1705 -59.747
L52.5776 -59.4684
L52.9796 -59.1826
L53.3765 -58.8898
L53.7681 -58.5899
L54.1543 -58.2832
L54.535 -57.9698
L54.91 -57.6496
L55.2793 -57.3228
L55.6426 -56.9895
L56 -56.6499
L56.3514 -56.3039
L56.6965 -55.9518
L57.0353 -55.5935
L57.3677 -55.2293
L57.6935 -54.8593
L58.0128 -54.4835
L58.3254 -54.1021
L58.6312 -53.7152
L58.93 -53.3228
L59.2219 -52.9252
L59.5068 -52.5225
L59.7844 -52.1147
L60.0548 -51.702
L60.3179 -51.2845
L60.5736 -50.8623
L60.8218 -50.4357
L61.0624 -50.0046
L61.2954 -49.5693
L61.5207 -49.1298
L61.7382 -48.6863
L61.9479 -48.239
L62.1497 -47.7879
L62.3435 -47.3333
L62.5293 -46.8752
L62.707 -46.4138
L62.8766 -45.9492
L63.0379 -45.4816
L63.1911 -45.0111
L63.336 -44.5378
L63.4725 -44.062
L63.6007 -43.5837
L63.7204 -43.1031
L63.8317 -42.6203
L63.9346 -42.1355
L64.0289 -41.6488
L64.1147 -41.1604
L64.1919 -40.6705
z
" id="C0_1_9c12f571b9"/>
     <path d="
M43.9715 -8.73221
L43.8528 -8.89353
L43.7334 -9.05566
L43.6131 -9.21862
L43.492 -9.3824
L43.3701 -9.54705
L43.2473 -9.71257
L43.1238 -9.87898
L42.9994 -10.0463
L42.8743 -10.2145
L42.7483 -10.3837
L42.6216 -10.5539
L42.494 -10.725
L42.3656 -10.8972
L42.2364 -11.0703
L42.1064 -11.2446
L41.9755 -11.4198
L41.8438 -11.5962
L41.7113 -11.7736
L41.5778 -11.9522
L41.4436 -12.1318
L41.3084 -12.3127
L41.1723 -12.4947
L41.0354 -12.6779
L40.8975 -12.8623
L40.7586 -13.048
L40.6188 -13.2349
L40.4781 -13.423
L40.3363 -13.6125
L40.1936 -13.8032
L40.0498 -13.9952
L39.905 -14.1886
L39.7591 -14.3833
L39.6122 -14.5794
L39.4641 -14.7768
L39.3149 -14.9757
L39.1646 -15.1759
L39.0132 -15.3775
L38.8605 -15.5805
L38.7066 -15.785
L38.5516 -15.9908
L38.3952 -16.1981
L38.2376 -16.4069
L38.0787 -16.617
L37.9184 -16.8286
L37.7569 -17.0416
L37.5939 -17.2561
L37.4296 -17.4719
L37.2638 -17.6892
L37.0966 -17.9078
L36.9279 -18.1278
L36.7577 -18.3492
L36.586 -18.5719
L36.4127 -18.796
L36.2378 -19.0213
L36.0614 -19.2478
L35.8833 -19.4756
L35.7035 -19.7045
L35.5221 -19.9345
L35.3389 -20.1657
L35.154 -20.3978
L34.9674 -20.6309
L34.7789 -20.8649
L34.5886 -21.0997
L34.3964 -21.3353
L34.2023 -21.5716
L34.0064 -21.8084
L33.8084 -22.0457
L33.6085 -22.2834
L33.4066 -22.5215
L33.2027 -22.7597
L32.9967 -22.9979
L32.7886 -23.2361
L32.5784 -23.4742
L32.366 -23.7119
L32.1515 -23.9492
L31.9348 -24.1859
L31.7158 -24.4218
L31.4946 -24.6568
L31.2711 -24.8908
L31.0453 -25.1236
L30.8172 -25.355
L30.5867 -25.5849
L30.3539 -25.813
L30.1188 -26.0392
L29.8812 -26.2634
L29.6413 -26.4853
L29.399 -26.7049
L29.1543 -26.9218
L28.9072 -27.136
L28.6578 -27.3472
L28.4059 -27.5554
L28.1518 -27.7603
L27.8953 -27.9619
L27.6365 -28.1599
L27.3755 -28.3542
L27.1123 -28.5447
L26.8469 -28.7313
L26.5794 -28.9138
L26.3099 -29.0922
L26.0384 -29.2664
L25.7651 -29.4363
L25.4899 -29.6018
L25.213 -29.7628
L24.9345 -29.9194
L24.6545 -30.0715
L24.3731 -30.2191
L24.0904 -30.3621
L23.8066 -30.5006
L23.5217 -30.6346
L23.2358 -30.764
L22.9492 -30.889
L22.6619 -31.0096
L22.3741 -31.1257
L22.0858 -31.2375
L21.7973 -31.345
L21.5087 -31.4483
L21.2201 -31.5475
L20.9315 -31.6426
L20.6433 -31.7336
L20.3554 -31.8208
L20.0681 -31.9041
L19.7813 -31.9837
L19.4953 -32.0596
L19.2102 -32.1319
L18.926 -32.2008
L18.6429 -32.2662
L18.361 -32.3283
L18.0803 -32.3872
L17.801 -32.4429
L17.5231 -32.4955
L17.2468 -32.5452
L16.972 -32.592
L16.699 -32.6359
L16.4276 -32.6771
L16.1581 -32.7156
L15.8903 -32.7514
L15.6245 -32.7848
L15.3607 -32.8157
L15.0988 -32.8441
L14.839 -32.8702
L14.5813 -32.894
L14.3256 -32.9156
L14.0721 -32.935
L13.8207 -32.9523
L13.5714 -32.9675
L13.3244 -32.9806
L13.0796 -32.9918
L12.8369 -33.001
L12.5965 -33.0083
L12.3583 -33.0137
L12.1223 -33.0173
L11.8886 -33.019
L11.6571 -33.019
L11.4277 -33.0173
L11.2007 -33.0138
L10.9758 -33.0086
L10.7531 -33.0017
L10.5326 -32.9932
L10.3143 -32.983
L10.0981 -32.9712
L9.88416 -32.9578
L9.67231 -32.9427
L9.46259 -32.9261
L9.25498 -32.9078
L9.04947 -32.888
L8.84605 -32.8666
L8.64468 -32.8436
L8.44537 -32.8189
L8.24809 -32.7927
L8.05283 -32.7649
L7.75148 -32.7355
L7.82172 -32.2222
L7.90053 -31.7298
L7.98791 -31.2387
L8.08382 -30.749
L8.18823 -30.2609
L8.30112 -29.7746
L8.42244 -29.2902
L8.55216 -28.8078
L8.69024 -28.3276
L8.83664 -27.8497
L8.99132 -27.3743
L9.15422 -26.9016
L9.3253 -26.4316
L9.50451 -25.9645
L9.69178 -25.5005
L9.88707 -25.0397
L10.0903 -24.5822
L10.3015 -24.1283
L10.5204 -23.6779
L10.7471 -23.2313
L10.9816 -22.7885
L11.2236 -22.3498
L11.4732 -21.9153
L11.7302 -21.485
L11.9947 -21.0591
L12.2665 -20.6379
L12.5455 -20.2212
L12.8316 -19.8094
L13.1248 -19.4026
L13.4249 -19.0008
L13.732 -18.6041
L14.0458 -18.2128
L14.3663 -17.8269
L14.6934 -17.4465
L15.027 -17.0717
L15.367 -16.7028
L15.7132 -16.3397
L16.0657 -15.9826
L16.4242 -15.6316
L16.7887 -15.2868
L17.159 -14.9483
L17.5351 -14.6162
L17.9168 -14.2906
L18.304 -13.9717
L18.6966 -13.6594
L19.0944 -13.354
L19.4974 -13.0555
L19.9055 -12.7639
L20.3184 -12.4795
L20.7361 -12.2021
L21.1585 -11.9321
L21.5854 -11.6694
L22.0167 -11.4141
L22.4522 -11.1662
L22.8919 -10.926
L23.3355 -10.6933
L23.783 -10.4684
L24.2343 -10.2513
L24.6891 -10.042
L25.1474 -9.84061
L25.6089 -9.64719
L26.0737 -9.4618
L26.5414 -9.2845
L27.0121 -9.11533
L27.4855 -8.95435
L27.9614 -8.8016
L28.4399 -8.65715
L28.9206 -8.52102
L29.4035 -8.39326
L29.8884 -8.27391
L30.3751 -8.16301
L30.8636 -8.06059
L31.3536 -7.96668
L31.8451 -7.8813
L32.3378 -7.8045
L32.8316 -7.73628
L33.3264 -7.67667
L33.822 -7.62568
L34.3183 -7.58334
L34.8151 -7.54966
L35.3122 -7.52464
L35.8096 -7.5083
L36.307 -7.50064
L36.8043 -7.50165
L37.3014 -7.51135
L37.798 -7.52973
L38.2942 -7.55677
L38.7896 -7.59249
L39.2842 -7.63685
L39.7778 -7.68986
L40.2702 -7.75148
L40.7613 -7.82172
L41.251 -7.90053
L41.7391 -7.98791
L42.2254 -8.08382
L42.7098 -8.18823
L43.1922 -8.30112
z
" id="C0_2_81259d9058"/>
    </defs>
    <g clip-path="url(#p1bffca34e9)">
     <use style="fill:#ff0000;stroke:#000000;stroke-width:2.0;" x="0.0" xlink:href="#C0_0_a811fe30f3" y="72.0"/>
    </g>
    <g clip-path="url(#p1bffca34e9)">
     <use style="fill:#ffffff;stroke:#000000;stroke-width:2.0;" x="0.0" xlink:href="#C0_1_9c12f571b9" y="72.0"/>
    </g>
    <g clip-path="url(#p1bffca34e9)">
     <use style="fill:#ffffff;stroke:#000000;stroke-width:2.0;" x="0.0" xlink:href="#C0_2_81259d9058" y="72.0"/>
    </g>
   </g>
  </g>
 </g>
 <defs>
  <clipPath id="p1bffca34e9">
   <rect height="72.0" width="72.0" x="0.0" y="0.0"/>
  </clipPath>
 </defs>
</svg>
