<?xml version="1.0" encoding="utf-8" standalone="no"?>
<!DOCTYPE svg PUBLIC "-//W3C//DTD SVG 1.1//EN"
  "http://www.w3.org/Graphics/SVG/1.1/DTD/svg11.dtd">
<!-- Created with matplotlib (http://matplotlib.org/) -->
<svg height="72pt" version="1.1" viewBox="0 0 72 72" width="72pt" xmlns="http://www.w3.org/2000/svg" xmlns:xlink="http://www.w3.org/1999/xlink">
 <defs>
  <style type="text/css">
*{stroke-linecap:butt;stroke-linejoin:round;}
  </style>
 </defs>
 <g id="figure_1">
  <g id="patch_1">
   <path d="
M0 72
L72 72
L72 0
L0 0
z
" style="fill:none;"/>
  </g>
  <g id="axes_1">
   <g id="PatchCollection_1">
    <defs>
     <path d="
M36 -7.5
C43.5583 -7.5 50.808 -10.5029 56.1525 -15.8475
C61.4971 -21.192 64.5 -28.4417 64.5 -36
C64.5 -43.5583 61.4971 -50.808 56.1525 -56.1525
C50.808 -61.4971 43.5583 -64.5 36 -64.5
C28.4417 -64.5 21.192 -61.4971 15.8475 -56.1525
C10.5029 -50.808 7.5 -43.5583 7.5 -36
C7.5 -28.4417 10.5029 -21.192 15.8475 -15.8475
C21.192 -10.5029 28.4417 -7.5 36 -7.5
z
" id="C0_0_a811fe30f3"/>
     <path d="
M11.1789 -49.9634
L11.3223 -49.8284
L11.4661 -49.6937
L11.6104 -49.5595
L11.7551 -49.4257
L11.9003 -49.2922
L12.0459 -49.159
L12.1921 -49.0261
L12.3388 -48.8935
L12.4859 -48.7611
L12.6337 -48.6289
L12.782 -48.4968
L12.9308 -48.365
L13.0803 -48.2332
L13.2304 -48.1015
L13.3812 -47.9699
L13.5326 -47.8384
L13.6847 -47.7068
L13.8376 -47.5752
L13.9912 -47.4435
L14.1456 -47.3117
L14.3009 -47.1798
L14.4569 -47.0478
L14.7718 -46.9155
L14.9306 -46.7831
L15.0904 -46.6503
L15.2513 -46.5173
L15.4132 -46.384
L15.5762 -46.2503
L15.7403 -46.1162
L15.9056 -45.9817
L16.0721 -45.8468
L16.2399 -45.7113
L16.409 -45.5753
L16.5795 -45.4388
L16.7513 -45.3016
L16.9246 -45.1638
L17.0993 -45.0254
L17.2756 -44.8862
L17.4535 -44.7463
L17.633 -44.6056
L17.8142 -44.4641
L17.9972 -44.3217
L18.1819 -44.1784
L18.3684 -44.0342
L18.5569 -43.8889
L18.7473 -43.7427
L18.9397 -43.5954
L19.1341 -43.447
L19.3307 -43.2975
L19.5294 -43.1468
L19.7304 -42.9949
L19.9337 -42.8417
L20.1393 -42.6872
L20.3473 -42.5313
L20.5577 -42.374
L20.7707 -42.2154
L20.9862 -42.0552
L21.2044 -41.8935
L21.4253 -41.7302
L21.6489 -41.5654
L21.8753 -41.3989
L22.1045 -41.2307
L22.3367 -41.0608
L22.5718 -40.8891
L22.8099 -40.7155
L23.051 -40.5402
L23.2952 -40.3629
L23.5426 -40.1837
L23.7931 -40.0025
L24.0468 -39.8193
L24.3037 -39.634
L24.5638 -39.4467
L24.8272 -39.2572
L25.0938 -39.0655
L25.3637 -38.8717
L25.6367 -38.6756
L25.913 -38.4773
L26.1925 -38.2767
L26.4751 -38.0738
L26.7608 -37.8686
L27.0495 -37.6609
L27.3411 -37.4509
L27.6354 -37.2385
L27.9325 -37.0237
L28.232 -36.8064
L28.5339 -36.5867
L28.8379 -36.3644
L29.1437 -36.1397
L29.4512 -35.9124
L29.76 -35.6826
L30.0698 -35.4502
L30.3801 -35.2152
L30.6905 -34.9775
L31.0005 -34.7372
L31.3096 -34.4942
L31.617 -34.2484
L31.9221 -33.9998
L32.2241 -33.7482
L32.5221 -33.4937
L32.8151 -33.236
L33.102 -32.975
L33.3816 -32.7106
L33.6526 -32.4425
L33.9136 -32.1707
L34.1631 -31.8948
L34.3995 -31.6146
L34.6213 -31.3298
L34.8268 -31.0401
L35.0145 -30.7453
L35.1829 -30.4452
L35.3308 -30.1396
L35.4573 -29.8282
L35.5615 -29.5111
L35.6432 -29.1884
L35.7023 -28.8601
L35.7393 -28.5266
L35.7549 -28.1882
L35.7499 -27.8455
L35.7256 -27.499
L35.6832 -27.1493
L35.6242 -26.7971
L35.5499 -26.443
L35.4617 -26.0877
L35.361 -25.7319
L35.249 -25.3761
L35.1269 -25.021
L34.9958 -24.667
L34.8567 -24.3147
L34.7105 -23.9645
L34.558 -23.6168
L34.4 -23.272
L34.2372 -22.9304
L34.0701 -22.5923
L33.8993 -22.2579
L33.7253 -21.9274
L33.5485 -21.6011
L33.3694 -21.2792
L33.1883 -20.9617
L33.0055 -20.6488
L32.8213 -20.3405
L32.6359 -20.0371
L32.4497 -19.7384
L32.2628 -19.4446
L32.0754 -19.1557
L31.8876 -18.8718
L31.6997 -18.5927
L31.5117 -18.3186
L31.3238 -18.0494
L31.1361 -17.785
L30.9486 -17.5255
L30.7615 -17.2708
L30.5748 -17.0209
L30.3885 -16.7756
L30.2028 -16.5351
L30.0177 -16.2991
L29.8332 -16.0677
L29.6493 -15.8407
L29.4661 -15.6182
L29.2836 -15.4
L29.1018 -15.186
L28.9207 -14.9762
L28.7403 -14.7706
L28.5606 -14.569
L28.3816 -14.3713
L28.2033 -14.1776
L28.0257 -13.9876
L27.8488 -13.8014
L27.6725 -13.6189
L27.4969 -13.44
L27.3219 -13.2646
L27.1475 -13.0926
L26.9736 -12.924
L26.8003 -12.7588
L26.6275 -12.5968
L26.4552 -12.438
L26.2833 -12.2823
L26.1119 -12.1297
L25.9408 -11.9801
L25.7701 -11.8334
L25.5997 -11.6896
L25.4296 -11.5487
L25.2597 -11.4106
L25.0899 -11.2752
L24.9204 -11.1425
L24.7509 -11.0124
L24.5815 -10.885
L24.4121 -10.7601
L24.2427 -10.6378
L24.0732 -10.518
L23.9036 -10.4006
L23.4202 -10.2856
L22.9758 -10.4266
L22.5354 -10.65
L22.0991 -10.8812
L21.667 -11.12
L21.2392 -11.3664
L20.816 -11.6203
L20.3974 -11.8816
L19.9835 -12.1503
L19.5745 -12.4262
L19.1706 -12.7093
L18.7717 -12.9996
L18.3781 -13.2968
L17.9899 -13.6009
L17.6071 -13.9119
L17.23 -14.2295
L16.8586 -14.5539
L16.493 -14.8847
L16.1333 -15.222
L15.7797 -15.5656
L15.4323 -15.9154
L15.0911 -16.2714
L14.7563 -16.6333
L14.4279 -17.0012
L14.1062 -17.3749
L13.7911 -17.7542
L13.4827 -18.1391
L13.1813 -18.5294
L12.8867 -18.925
L12.5993 -19.3259
L12.3189 -19.7318
L12.0458 -20.1427
L11.7799 -20.5584
L11.5214 -20.9788
L11.2704 -21.4038
L11.027 -21.8332
L10.7911 -22.2669
L10.5629 -22.7049
L10.3424 -23.1469
L10.1298 -23.5928
L9.92507 -24.0424
L9.72826 -24.4957
L9.53946 -24.9526
L9.35871 -25.4128
L9.18609 -25.8762
L9.02163 -26.3427
L8.86539 -26.8121
L8.71741 -27.2843
L8.57774 -27.7592
L8.44643 -28.2366
L8.32351 -28.7164
L8.20902 -29.1984
L8.103 -29.6824
L8.00547 -30.1684
L7.91647 -30.6562
L7.83603 -31.1456
L7.76416 -31.6364
L7.7009 -32.1286
L7.64625 -32.622
L7.60025 -33.1164
L7.56289 -33.6117
L7.5342 -34.1077
L7.51417 -34.6043
L7.50283 -35.1013
L7.50016 -35.5986
L7.50618 -36.096
L7.52087 -36.5934
L7.54424 -37.0905
L7.57628 -37.5874
L7.61698 -38.0838
L7.66632 -38.5795
L7.72429 -39.0745
L7.79088 -39.5685
L7.86606 -40.0615
L7.9498 -40.5532
L8.0421 -41.0435
L8.14291 -41.5322
L8.2522 -42.0193
L8.36995 -42.5046
L8.49611 -42.9879
L8.63065 -43.469
L8.77353 -43.9479
L8.9247 -44.4243
L9.08412 -44.8982
L9.25174 -45.3694
L9.4275 -45.8377
L9.61136 -46.303
L9.80326 -46.7652
L10.0031 -47.2241
L10.2109 -47.6796
L10.4266 -48.1315
L10.65 -48.5798
L10.8812 -49.0242
z
" id="C0_1_e184af1c1b"/>
     <path d="
M48.1873 -61.6609
L48.2065 -61.458
L48.2241 -61.255
L48.2402 -61.0516
L48.2548 -60.848
L48.268 -60.644
L48.2797 -60.4396
L48.2901 -60.2347
L48.299 -60.0294
L48.3066 -59.8236
L48.3128 -59.6172
L48.3178 -59.4101
L48.3214 -59.2024
L48.3237 -58.9939
L48.3248 -58.7847
L48.3245 -58.5747
L48.323 -58.3638
L48.3203 -58.152
L48.3163 -57.9391
L48.3111 -57.7253
L48.3047 -57.5104
L48.297 -57.2943
L48.288 -57.077
L48.2779 -56.8585
L48.2665 -56.6386
L48.2539 -56.4174
L48.24 -56.1948
L48.2249 -55.9707
L48.2085 -55.745
L48.1909 -55.5177
L48.172 -55.2887
L48.1518 -55.058
L48.1304 -54.8255
L48.1076 -54.5911
L48.0835 -54.3547
L48.0581 -54.1164
L48.0314 -53.876
L48.0032 -53.6335
L47.9737 -53.3888
L47.9428 -53.1418
L47.9105 -52.8925
L47.8768 -52.6408
L47.8416 -52.3866
L47.8049 -52.1298
L47.7667 -51.8705
L47.727 -51.6084
L47.6857 -51.3436
L47.6429 -51.076
L47.5985 -50.8055
L47.5525 -50.5321
L47.5048 -50.2556
L47.4554 -49.976
L47.4044 -49.6933
L47.3516 -49.4074
L47.2971 -49.1181
L47.2408 -48.8256
L47.1828 -48.5296
L47.1229 -48.2302
L47.0613 -47.9273
L46.9977 -47.6209
L46.9324 -47.3109
L46.8652 -46.9972
L46.7961 -46.6799
L46.7251 -46.3589
L46.6523 -46.0342
L46.5776 -45.7058
L46.5011 -45.3736
L46.4227 -45.0377
L46.3426 -44.698
L46.2607 -44.3546
L46.1771 -44.0076
L46.0918 -43.6569
L46.0049 -43.3026
L45.9166 -42.9448
L45.8269 -42.5835
L45.736 -42.2189
L45.6439 -41.851
L45.5509 -41.48
L45.4572 -41.106
L45.363 -40.7292
L45.2686 -40.3498
L45.1742 -39.9679
L45.0804 -39.5839
L44.9873 -39.198
L44.8956 -38.8104
L44.8057 -38.4216
L44.7183 -38.0318
L44.634 -37.6415
L44.5536 -37.251
L44.4779 -36.8609
L44.4079 -36.4716
L44.3447 -36.0838
L44.2894 -35.698
L44.2432 -35.3147
L44.2076 -34.9348
L44.184 -34.5588
L44.1737 -34.1875
L44.1783 -33.8216
L44.1992 -33.4617
L44.2376 -33.1085
L44.2947 -32.7626
L44.3713 -32.4244
L44.4679 -32.0944
L44.5849 -31.7729
L44.7219 -31.4599
L44.8786 -31.1556
L45.0542 -30.8598
L45.2474 -30.5725
L45.4572 -30.2934
L45.682 -30.0222
L45.9205 -29.7586
L46.171 -29.5023
L46.4323 -29.253
L46.7028 -29.0104
L46.9812 -28.7742
L47.2663 -28.5441
L47.557 -28.32
L47.8522 -28.1015
L48.151 -27.8885
L48.4525 -27.6808
L48.756 -27.4782
L49.0608 -27.2806
L49.3663 -27.0879
L49.6719 -26.8998
L49.9771 -26.7164
L50.2816 -26.5375
L50.585 -26.3629
L50.8868 -26.1927
L51.1869 -26.0267
L51.485 -25.8648
L51.7808 -25.7069
L52.0742 -25.5531
L52.365 -25.403
L52.6531 -25.2568
L52.9383 -25.1144
L53.2205 -24.9755
L53.4997 -24.8403
L53.7759 -24.7085
L54.0488 -24.5802
L54.3186 -24.4553
L54.5852 -24.3336
L54.8486 -24.2152
L55.1088 -24.0999
L55.3657 -23.9877
L55.6195 -23.8785
L55.87 -23.7723
L56.1175 -23.669
L56.3617 -23.5684
L56.6029 -23.4707
L56.8411 -23.3757
L57.0762 -23.2833
L57.3084 -23.1935
L57.5377 -23.1063
L57.7641 -23.0215
L57.9877 -22.9391
L58.2086 -22.8592
L58.4268 -22.7816
L58.6423 -22.7062
L58.8553 -22.6331
L59.0658 -22.5622
L59.2739 -22.4934
L59.4795 -22.4267
L59.6828 -22.3622
L59.8839 -22.2996
L60.0827 -22.2391
L60.2795 -22.1805
L60.4741 -22.1238
L61.0567 -22.0691
L61.2898 -22.4201
L61.5153 -22.8595
L61.733 -23.3028
L61.9429 -23.7501
L62.1449 -24.201
L62.3389 -24.6556
L62.5249 -25.1136
L62.7028 -25.575
L62.8725 -26.0395
L63.0341 -26.507
L63.1875 -26.9774
L63.3325 -27.4506
L63.4693 -27.9264
L63.5976 -28.4047
L63.7176 -28.8852
L63.8291 -29.368
L63.9322 -29.8527
L64.0267 -30.3393
L64.1127 -30.8277
L64.1902 -31.3176
L64.259 -31.8089
L64.3193 -32.3016
L64.3709 -32.7953
L64.4138 -33.29
L64.4482 -33.7856
L64.4738 -34.2818
L64.4908 -34.7786
L64.4991 -35.2757
L64.4987 -35.773
L64.4897 -36.2705
L64.4719 -36.7678
L64.4455 -37.2649
L64.4104 -37.7616
L64.3667 -38.2578
L64.3143 -38.7532
L64.2533 -39.2479
L64.1837 -39.7416
L64.1055 -40.2341
L64.0188 -40.7253
L63.9235 -41.2151
L63.8197 -41.7033
L63.7075 -42.1898
L63.5868 -42.6743
L63.4576 -43.1569
L63.3202 -43.6372
L63.1744 -44.1153
L63.0203 -44.5909
L62.858 -45.0638
L62.6875 -45.534
L62.5089 -46.0013
L62.3222 -46.4655
L62.1275 -46.9266
L61.9249 -47.3843
L61.7143 -47.8385
L61.4959 -48.2892
L61.2698 -48.7361
L61.0359 -49.1791
L60.7944 -49.6181
L60.5454 -50.053
L60.2889 -50.4836
L60.025 -50.9097
L59.7537 -51.3314
L59.4753 -51.7483
L59.1897 -52.1605
L58.897 -52.5677
L58.5973 -52.9699
L58.2908 -53.3669
L57.9775 -53.7587
L57.6574 -54.145
L57.3308 -54.5258
L56.9977 -54.901
L56.6582 -55.2703
L56.3124 -55.6339
L55.9604 -55.9914
L55.6023 -56.3429
L55.2383 -56.6881
L54.8684 -57.0271
L54.4927 -57.3596
L54.1114 -57.6857
L53.7246 -58.0051
L53.3324 -58.3179
L52.935 -58.6238
L52.5323 -58.9228
L52.1247 -59.2149
L51.7121 -59.4999
L51.2947 -59.7777
L50.8727 -60.0483
L50.4461 -60.3116
L50.0151 -60.5675
L49.5799 -60.8158
L49.1405 -61.0567
L48.6972 -61.2898
z
" id="C0_2_c530bf5af4"/>
    </defs>
    <g clip-path="url(#p1bffca34e9)">
     <use style="fill:#ffffff;stroke:#000000;stroke-width:2.0;" x="0.0" xlink:href="#C0_0_a811fe30f3" y="72.0"/>
    </g>
    <g clip-path="url(#p1bffca34e9)">
     <use style="fill:#ff0000;stroke:#000000;stroke-width:2.0;" x="0.0" xlink:href="#C0_1_e184af1c1b" y="72.0"/>
    </g>
    <g clip-path="url(#p1bffca34e9)">
     <use style="fill:#ff0000;stroke:#000000;stroke-width:2.0;" x="0.0" xlink:href="#C0_2_c530bf5af4" y="72.0"/>
    </g>
   </g>
  </g>
 </g>
 <defs>
  <clipPath id="p1bffca34e9">
   <rect height="72.0" width="72.0" x="0.0" y="0.0"/>
  </clipPath>
 </defs>
</svg>
