<?xml version="1.0" encoding="utf-8" standalone="no"?>
<!DOCTYPE svg PUBLIC "-//W3C//DTD SVG 1.1//EN"
  "http://www.w3.org/Graphics/SVG/1.1/DTD/svg11.dtd">
<!-- Created with matplotlib (http://matplotlib.org/) -->
<svg height="72pt" version="1.1" viewBox="0 0 72 72" width="72pt" xmlns="http://www.w3.org/2000/svg" xmlns:xlink="http://www.w3.org/1999/xlink">
 <defs>
  <style type="text/css">
*{stroke-linecap:butt;stroke-linejoin:round;}
  </style>
 </defs>
 <g id="figure_1">
  <g id="patch_1">
   <path d="
M0 72
L72 72
L72 0
L0 0
z
" style="fill:none;"/>
  </g>
  <g id="axes_1">
   <g id="PatchCollection_1">
    <defs>
     <path d="
M36 -7.5
C43.5583 -7.5 50.808 -10.5029 56.1525 -15.8475
C61.4971 -21.192 64.5 -28.4417 64.5 -36
C64.5 -43.5583 61.4971 -50.808 56.1525 -56.1525
C50.808 -61.4971 43.5583 -64.5 36 -64.5
C28.4417 -64.5 21.192 -61.4971 15.8475 -56.1525
C10.5029 -50.808 7.5 -43.5583 7.5 -36
C7.5 -28.4417 10.5029 -21.192 15.8475 -15.8475
C21.192 -10.5029 28.4417 -7.5 36 -7.5
z
" id="C0_0_a811fe30f3"/>
     <path d="
M60.1993 -50.7258
L60.123 -50.3704
L60.0283 -50.0225
L59.9173 -49.6816
L59.7919 -49.3475
L59.6536 -49.0197
L59.5039 -48.698
L59.3439 -48.3819
L59.1749 -48.0714
L58.9978 -47.7661
L58.8135 -47.466
L58.6227 -47.1708
L58.4262 -46.8803
L58.2245 -46.5946
L58.0183 -46.3133
L57.808 -46.0366
L57.5941 -45.7641
L57.3771 -45.496
L57.1573 -45.232
L56.935 -44.9721
L56.7107 -44.7163
L56.4845 -44.4644
L56.2569 -44.2164
L56.0279 -43.9722
L55.7978 -43.7318
L55.5669 -43.4951
L55.3353 -43.2619
L55.1032 -43.0323
L54.8708 -42.8062
L54.6381 -42.5835
L54.4054 -42.3641
L54.1727 -42.148
L53.9401 -41.9351
L53.7078 -41.7253
L53.4757 -41.5186
L53.2441 -41.3149
L53.0129 -41.1141
L52.7822 -40.9161
L52.5521 -40.721
L52.3226 -40.5286
L52.0937 -40.3388
L51.8654 -40.1517
L51.6379 -39.967
L51.4111 -39.7848
L51.1849 -39.605
L50.9595 -39.4276
L50.7349 -39.2524
L50.5109 -39.0794
L50.2877 -38.9085
L50.0653 -38.7397
L49.8435 -38.573
L49.6224 -38.4082
L49.402 -38.2453
L49.1823 -38.0842
L48.9632 -37.9249
L48.7447 -37.7674
L48.5269 -37.6115
L48.3096 -37.4573
L48.0928 -37.3046
L47.8766 -37.1535
L47.6608 -37.0038
L47.4455 -36.8555
L47.2305 -36.7086
L47.016 -36.563
L46.8018 -36.4187
L46.5879 -36.2756
L46.3743 -36.1337
L46.1609 -35.9929
L45.9476 -35.8533
L45.7345 -35.7146
L45.5215 -35.577
L45.3086 -35.4404
L45.0957 -35.3046
L44.8827 -35.1698
L44.6697 -35.0358
L44.4565 -34.9026
L44.2431 -34.7701
L44.0296 -34.6384
L43.8157 -34.5074
L43.6016 -34.3771
L43.387 -34.2474
L42.9567 -34.1183
L42.7408 -33.9897
L42.5243 -33.8617
L42.3071 -33.7341
L42.0893 -33.6071
L41.8708 -33.4804
L41.6514 -33.3542
L41.4313 -33.2283
L41.2102 -33.1028
L40.9882 -32.9776
L40.7651 -32.8527
L40.541 -32.7281
L40.3158 -32.6036
L40.0893 -32.4794
L39.8616 -32.3554
L39.6327 -32.2316
L39.4023 -32.1079
L39.1705 -31.9843
L38.9372 -31.8608
L38.7024 -31.7374
L38.4659 -31.6141
L38.2278 -31.4908
L37.9879 -31.3675
L37.7462 -31.2442
L37.5026 -31.121
L37.2571 -30.9976
L37.0095 -30.8743
L36.7599 -30.7509
L36.5081 -30.6274
L36.2542 -30.5039
L35.9979 -30.3803
L35.7393 -30.2566
L35.4782 -30.1328
L35.2147 -30.009
L34.9487 -29.885
L34.68 -29.761
L34.4086 -29.6368
L34.1345 -29.5126
L33.8576 -29.3883
L33.5778 -29.264
L33.295 -29.1396
L33.0093 -29.0152
L32.7205 -28.8908
L32.4286 -28.7664
L32.1335 -28.642
L31.8352 -28.5178
L31.5336 -28.3936
L31.2288 -28.2696
L30.9205 -28.1458
L30.6089 -28.0223
L30.2939 -27.8991
L29.9754 -27.7763
L29.6534 -27.6539
L29.328 -27.532
L28.999 -27.4108
L28.6666 -27.2903
L28.3307 -27.1706
L27.9913 -27.0518
L27.6484 -26.9341
L27.3022 -26.8175
L26.9525 -26.7023
L26.5996 -26.5886
L26.2434 -26.4766
L25.8841 -26.3665
L25.5217 -26.2584
L25.1564 -26.1526
L24.7883 -26.0494
L24.4175 -25.9491
L24.0443 -25.8519
L23.6688 -25.7582
L23.2911 -25.6683
L22.9117 -25.5827
L22.5307 -25.5019
L22.1485 -25.4263
L21.7653 -25.3566
L21.3816 -25.2933
L20.9978 -25.2373
L20.6143 -25.1893
L20.2318 -25.1504
L19.8507 -25.1215
L19.4719 -25.104
L19.096 -25.0993
L18.7239 -25.109
L18.3566 -25.1349
L17.9952 -25.1789
L17.6408 -25.2434
L17.2947 -25.3306
L16.9583 -25.443
L16.6328 -25.5828
L16.3196 -25.752
L16.0199 -25.9523
L15.7346 -26.1845
L15.4645 -26.4489
L15.21 -26.7448
L14.9716 -27.0707
L14.7492 -27.4246
L14.5426 -27.8039
L14.3518 -28.206
L14.1764 -28.6281
L14.0159 -29.0672
L13.8701 -29.521
L13.7385 -29.9868
L13.6207 -30.4627
L13.5164 -30.9467
L13.4251 -31.4369
L13.3464 -31.932
L13.28 -32.4304
L13.2255 -32.9311
L13.1825 -33.4329
L13.1507 -33.9349
L13.1296 -34.4363
L13.1189 -34.9364
L13.1183 -35.4343
L13.1274 -35.9297
L13.1459 -36.4219
L13.1734 -36.9106
L13.2096 -37.3952
L13.2541 -37.8755
L13.3066 -38.3511
L13.3669 -38.8218
L13.4345 -39.2873
L13.5092 -39.7475
L13.5908 -40.2021
L13.6788 -40.6511
L13.773 -41.0943
L13.8732 -41.5316
L13.9791 -41.9629
L14.0904 -42.3883
L14.207 -42.8076
L14.3285 -43.2208
L14.4548 -43.628
L14.5856 -44.0291
L14.7208 -44.4242
L14.8601 -44.8133
L15.0033 -45.1964
L15.1504 -45.5737
L15.3011 -45.945
L15.4552 -46.3106
L15.6127 -46.6705
L15.7734 -47.0247
L15.9371 -47.3733
L16.1037 -47.7165
L16.2732 -48.0542
L16.4454 -48.3866
L16.6201 -48.7138
L16.7974 -49.0359
L16.9772 -49.3529
L17.1593 -49.6649
L17.3436 -49.9721
L17.5302 -50.2746
L17.7189 -50.5723
L17.9098 -50.8655
L18.1026 -51.1542
L18.2975 -51.4385
L18.4943 -51.7185
L18.6931 -51.9942
L18.8938 -52.2658
L19.0963 -52.5334
L19.3007 -52.797
L19.507 -53.0568
L19.715 -53.3127
L19.9249 -53.5649
L20.1366 -53.8135
L20.3501 -54.0585
L20.5654 -54.3
L20.7825 -54.538
L21.0014 -54.7727
L21.2222 -55.0042
L21.4449 -55.2323
L21.6694 -55.4573
L21.8958 -55.6792
L22.1241 -55.8981
L22.3544 -56.1139
L22.5866 -56.3268
L22.8208 -56.5368
L23.0571 -56.7439
L23.2955 -56.9482
L23.5359 -57.1497
L23.7786 -57.3484
L24.0234 -57.5445
L24.2705 -57.7379
L24.5199 -57.9287
L24.7716 -58.1168
L25.0258 -58.3023
L25.2824 -58.4853
L25.5416 -58.6657
L25.8033 -58.8435
L26.0677 -59.0188
L26.3348 -59.1916
L26.6046 -59.3619
L26.8774 -59.5296
L27.153 -59.6948
L27.4317 -59.8574
L27.7134 -60.0175
L27.9983 -60.1751
L28.2864 -60.33
L28.5778 -60.4824
L28.8727 -60.6321
L29.171 -60.7791
L29.4729 -60.9235
L29.7784 -61.065
L30.0878 -61.2038
L30.4009 -61.3397
L30.718 -61.4728
L31.0392 -61.6028
L31.3644 -61.7298
L31.694 -61.8537
L32.0278 -61.9744
L32.3661 -62.0918
L32.7089 -62.2058
L33.0563 -62.3163
L33.4085 -62.4232
L33.7655 -62.5264
L34.1274 -62.6257
L34.4944 -62.7211
L34.8665 -62.8123
L35.2438 -62.8993
L35.6264 -62.9818
L36.0144 -63.0597
L36.4079 -63.1328
L36.807 -63.201
L37.2117 -63.2639
L37.6222 -63.3215
L38.0384 -63.3734
L38.4605 -63.4195
L38.8885 -63.4595
L39.3225 -63.4932
L39.7624 -63.5202
L40.2083 -63.5403
L40.6602 -63.5533
L41.1181 -63.5587
L41.582 -63.5563
L42.0518 -63.5458
L42.5275 -63.5268
L43.0091 -63.499
L43.4963 -63.462
L43.9955 -63.4154
L44.4717 -63.3555
L44.9453 -63.2118
L45.4162 -63.0598
L45.8843 -62.8995
L46.3493 -62.7311
L46.8111 -62.5545
L47.2697 -62.3699
L47.7249 -62.1772
L48.1764 -61.9765
L48.6243 -61.7679
L49.0683 -61.5515
L49.5083 -61.3273
L49.9442 -61.0953
L50.3759 -60.8557
L50.8032 -60.6086
L51.226 -60.354
L51.6441 -60.0919
L52.0575 -59.8225
L52.466 -59.5458
L52.8695 -59.262
L53.2678 -58.9711
L53.6609 -58.6732
L54.0486 -58.3684
L54.4307 -58.0567
L54.8073 -57.7384
L55.1782 -57.4134
L55.5432 -57.0819
L55.9022 -56.744
L56.2552 -56.3998
L56.6021 -56.0493
L56.9426 -55.6928
L57.2768 -55.3302
L57.6045 -54.9618
L57.9256 -54.5876
L58.24 -54.2077
L58.5477 -53.8222
L58.8484 -53.4314
L59.1423 -53.0352
L59.429 -52.6339
L59.7087 -52.2274
L59.9811 -51.8161
z
" id="C0_1_de62caef94"/>
     <path d="
M28.0118 -8.644
L27.5612 -8.86353
L27.1108 -9.09262
L26.661 -9.33134
L26.212 -9.57973
L25.764 -9.83783
L25.3173 -10.1056
L24.8722 -10.3831
L24.4289 -10.6703
L23.9878 -10.967
L23.5492 -11.2731
L23.1134 -11.5885
L22.6806 -11.913
L22.2512 -12.2463
L21.8256 -12.5881
L21.4039 -12.938
L20.9865 -13.2955
L20.5737 -13.6602
L20.1657 -14.0313
L19.7628 -14.4081
L19.3652 -14.7897
L18.9729 -15.1752
L18.5862 -15.5632
L18.205 -15.9526
L17.8294 -16.3416
L17.4591 -16.7285
L17.0939 -17.1113
L16.7335 -17.4878
L16.3775 -17.8554
L16.0252 -18.2116
L15.6759 -18.5536
L15.3289 -18.8788
L14.9834 -19.1849
L14.6385 -19.4698
L14.2936 -19.7322
L13.9481 -19.9716
L13.6016 -20.1881
L13.254 -20.3827
L12.9055 -20.5571
L12.5561 -20.7133
L12.2063 -20.8536
L12.067 -20.9802
L12.3407 -20.5254
L12.6217 -20.1101
L12.9097 -19.6996
L13.2048 -19.2941
L13.5068 -18.8936
L13.8157 -18.4984
L14.1313 -18.1085
L14.4536 -17.7241
L14.7824 -17.3452
L15.1177 -16.972
L15.4594 -16.6046
L15.8074 -16.2431
L16.1614 -15.8876
L16.5216 -15.5383
L16.8876 -15.1952
L17.2595 -14.8584
L17.6371 -14.5281
L18.0203 -14.2043
L18.409 -13.8871
L18.803 -13.5767
L19.2022 -13.2731
L19.6066 -12.9764
L20.016 -12.6868
L20.4302 -12.4042
L20.8492 -12.1289
L21.2728 -11.8608
L21.7009 -11.6
L22.1333 -11.3467
L22.57 -11.1009
L23.0107 -10.8627
L23.4554 -10.6321
L23.904 -10.4093
L24.3562 -10.1943
L24.8119 -9.98709
L25.2711 -9.78784
L25.7335 -9.59658
L26.1991 -9.41335
L26.6677 -9.23823
L27.139 -9.07125
z
" id="C0_2_ab23596285"/>
    </defs>
    <g clip-path="url(#p1bffca34e9)">
     <use style="fill:#ffffff;stroke:#000000;stroke-width:2.0;" x="0.0" xlink:href="#C0_0_a811fe30f3" y="72.0"/>
    </g>
    <g clip-path="url(#p1bffca34e9)">
     <use style="fill:#ff0000;stroke:#000000;stroke-width:2.0;" x="0.0" xlink:href="#C0_1_de62caef94" y="72.0"/>
    </g>
    <g clip-path="url(#p1bffca34e9)">
     <use style="fill:#ff0000;stroke:#000000;stroke-width:2.0;" x="0.0" xlink:href="#C0_2_ab23596285" y="72.0"/>
    </g>
   </g>
  </g>
 </g>
 <defs>
  <clipPath id="p1bffca34e9">
   <rect height="72.0" width="72.0" x="0.0" y="0.0"/>
  </clipPath>
 </defs>
</svg>
