<?xml version="1.0" encoding="utf-8" standalone="no"?>
<!DOCTYPE svg PUBLIC "-//W3C//DTD SVG 1.1//EN"
  "http://www.w3.org/Graphics/SVG/1.1/DTD/svg11.dtd">
<!-- Created with matplotlib (http://matplotlib.org/) -->
<svg height="72pt" version="1.1" viewBox="0 0 72 72" width="72pt" xmlns="http://www.w3.org/2000/svg" xmlns:xlink="http://www.w3.org/1999/xlink">
 <defs>
  <style type="text/css">
*{stroke-linecap:butt;stroke-linejoin:round;}
  </style>
 </defs>
 <g id="figure_1">
  <g id="patch_1">
   <path d="
M0 72
L72 72
L72 0
L0 0
z
" style="fill:none;"/>
  </g>
  <g id="axes_1">
   <g id="PatchCollection_1">
    <defs>
     <path d="
M36 -7.5
C43.5583 -7.5 50.808 -10.5029 56.1525 -15.8475
C61.4971 -21.192 64.5 -28.4417 64.5 -36
C64.5 -43.5583 61.4971 -50.808 56.1525 -56.1525
C50.808 -61.4971 43.5583 -64.5 36 -64.5
C28.4417 -64.5 21.192 -61.4971 15.8475 -56.1525
C10.5029 -50.808 7.5 -43.5583 7.5 -36
C7.5 -28.4417 10.5029 -21.192 15.8475 -15.8475
C21.192 -10.5029 28.4417 -7.5 36 -7.5
z
" id="C0_0_a811fe30f3"/>
     <path d="
M24.0535 -10.2352
L23.8242 -10.5331
L23.6154 -10.8321
L23.4274 -11.1317
L23.2604 -11.4313
L23.1146 -11.7303
L22.9898 -12.0281
L22.8861 -12.3243
L22.8031 -12.6185
L22.7405 -12.9104
L22.6977 -13.1996
L22.6743 -13.4861
L22.6695 -13.7695
L22.6826 -14.0498
L22.7127 -14.3271
L22.759 -14.6012
L22.8207 -14.8721
L22.8967 -15.1401
L22.9862 -15.405
L23.0883 -15.6671
L23.2021 -15.9265
L23.3267 -16.1832
L23.4613 -16.4374
L23.605 -16.6892
L23.757 -16.9387
L23.9168 -17.186
L24.0834 -17.4313
L24.2564 -17.6746
L24.4351 -17.916
L24.6189 -18.1556
L24.8072 -18.3935
L24.9997 -18.6297
L25.1958 -18.8643
L25.395 -19.0974
L25.5971 -19.3289
L25.8016 -19.5589
L26.0083 -19.7876
L26.2167 -20.0148
L26.4267 -20.2406
L26.6379 -20.465
L26.8501 -20.6881
L27.0631 -20.9099
L27.2767 -21.1304
L27.4908 -21.3496
L27.7051 -21.5675
L27.9195 -21.7841
L28.1339 -21.9995
L28.3481 -22.2136
L28.5621 -22.4265
L28.7757 -22.6382
L28.9889 -22.8487
L29.2016 -23.058
L29.4136 -23.2662
L29.625 -23.4731
L29.8358 -23.679
L30.0457 -23.8837
L30.2549 -24.0873
L30.4633 -24.2898
L30.6708 -24.4913
L30.8774 -24.6917
L31.0832 -24.8911
L31.2881 -25.0895
L31.492 -25.2869
L31.6951 -25.4833
L31.8972 -25.6788
L32.0984 -25.8734
L32.2987 -26.0671
L32.4982 -26.26
L32.6967 -26.452
L32.8944 -26.6433
L33.0912 -26.8337
L33.2871 -27.0234
L33.4822 -27.2124
L33.6766 -27.4008
L33.8701 -27.5884
L34.0629 -27.7754
L34.2549 -27.9619
L34.4462 -28.1477
L34.6369 -28.3331
L34.8268 -28.5179
L35.0162 -28.7023
L35.2049 -28.8862
L35.3931 -29.0698
L35.5807 -29.2529
L35.7678 -29.4357
L35.9544 -29.6183
L36.1406 -29.8005
L36.3263 -29.9825
L36.5117 -30.1643
L36.6967 -30.346
L36.8814 -30.5275
L37.0657 -30.7088
L37.2499 -30.8902
L37.4338 -31.0715
L37.6175 -31.2528
L37.8011 -31.4341
L38.1678 -31.6155
L38.3511 -31.797
L38.5344 -31.9786
L38.7177 -32.1604
L38.9011 -32.3424
L39.0845 -32.5247
L39.2681 -32.7072
L39.4518 -32.89
L39.6357 -33.0732
L39.8198 -33.2567
L40.0042 -33.4406
L40.1889 -33.625
L40.3739 -33.8099
L40.5593 -33.9953
L40.745 -34.1812
L40.9312 -34.3676
L41.1179 -34.5547
L41.3051 -34.7424
L41.4928 -34.9308
L41.681 -35.1199
L41.8699 -35.3097
L42.0594 -35.5002
L42.2496 -35.6915
L42.4405 -35.8837
L42.6321 -36.0767
L42.8245 -36.2705
L43.0177 -36.4652
L43.2117 -36.6608
L43.4066 -36.8574
L43.6023 -37.0549
L43.799 -37.2534
L43.9966 -37.4529
L44.1953 -37.6533
L44.3949 -37.8548
L44.5956 -38.0573
L44.7973 -38.2609
L45.0001 -38.4654
L45.204 -38.671
L45.4091 -38.8777
L45.6153 -39.0854
L45.8227 -39.2941
L46.0314 -39.5038
L46.2412 -39.7145
L46.4523 -39.9262
L46.6647 -40.1388
L46.8784 -40.3523
L47.0933 -40.5667
L47.3096 -40.7819
L47.5272 -40.9979
L47.7462 -41.2145
L47.9665 -41.4318
L48.1882 -41.6497
L48.4113 -41.868
L48.6358 -42.0866
L48.8616 -42.3055
L49.0889 -42.5244
L49.3176 -42.7434
L49.5478 -42.9621
L49.7794 -43.1805
L50.0125 -43.3984
L50.247 -43.6154
L50.483 -43.8315
L50.7205 -44.0463
L50.9595 -44.2596
L51.2 -44.4712
L51.4421 -44.6805
L51.6858 -44.8874
L51.9311 -45.0914
L52.1781 -45.2922
L52.4267 -45.4892
L52.6771 -45.682
L52.9293 -45.8702
L53.1833 -46.053
L53.4392 -46.23
L53.6972 -46.4006
L53.9571 -46.5639
L54.2193 -46.7195
L54.4836 -46.8664
L54.7502 -47.004
L55.0192 -47.1315
L55.2906 -47.2479
L55.5646 -47.3525
L55.8411 -47.4444
L56.1201 -47.5226
L56.4017 -47.5865
L56.6859 -47.635
L56.9726 -47.6675
L57.2616 -47.6832
L57.5528 -47.6812
L57.8461 -47.6612
L58.1411 -47.6224
L58.4375 -47.5645
L58.7351 -47.4871
L59.0333 -47.39
L59.3317 -47.2732
L59.6299 -47.1365
L59.9273 -46.9803
L60.2234 -46.8046
L60.5175 -46.6099
L60.8091 -46.3965
L61.0977 -46.1649
L61.3825 -45.9158
L61.6632 -45.6498
L61.939 -45.3675
L62.2095 -45.0696
L62.4742 -44.7569
L62.7326 -44.43
L62.9842 -44.0899
L63.2287 -43.7372
L63.4655 -43.3726
L63.6945 -42.997
L63.8324 -42.6111
L63.9352 -42.1326
L64.0294 -41.6459
L64.1152 -41.1575
L64.1924 -40.6676
L64.261 -40.1762
L64.3209 -39.6835
L64.3723 -39.1897
L64.415 -38.695
L64.4491 -38.1994
L64.4745 -37.7032
L64.4912 -37.2064
L64.4992 -36.7093
L64.4986 -36.2119
L64.4892 -35.7145
L64.4712 -35.2172
L64.4446 -34.7201
L64.4092 -34.2234
L64.3652 -33.7272
L64.3126 -33.2318
L64.2514 -32.7372
L64.1815 -32.2435
L64.103 -31.751
L64.016 -31.2599
L63.9205 -30.7701
L63.8164 -30.282
L63.7039 -29.7956
L63.583 -29.311
L63.4536 -28.8286
L63.3159 -28.3483
L63.1698 -27.8703
L63.0155 -27.3948
L62.853 -26.9219
L62.6822 -26.4518
L62.5034 -25.9846
L62.3165 -25.5205
L62.1215 -25.0595
L61.9186 -24.6019
L61.7078 -24.1478
L61.4892 -23.6972
L61.2628 -23.2504
L61.0287 -22.8075
L60.787 -22.3687
L60.5377 -21.9339
L60.281 -21.5035
L60.0169 -21.0774
L59.7454 -20.6559
L59.4667 -20.2391
L59.1809 -19.8271
L58.888 -19.42
L58.5882 -19.018
L58.2814 -18.6211
L57.9679 -18.2296
L57.6477 -17.8434
L57.3208 -17.4628
L56.9875 -17.0878
L56.6478 -16.7186
L56.3018 -16.3552
L55.9497 -15.9979
L55.5914 -15.6466
L55.2272 -15.3015
L54.8571 -14.9628
L54.4813 -14.6304
L54.0998 -14.3046
L53.7129 -13.9853
L53.3205 -13.6728
L52.9229 -13.3671
L52.5201 -13.0682
L52.1122 -12.7764
L51.6995 -12.4916
L51.282 -12.214
L50.8598 -11.9436
L50.4331 -11.6806
L50.002 -11.4249
L49.5667 -11.1768
L49.1272 -10.9362
L48.6837 -10.7032
L48.2363 -10.478
L47.7853 -10.2605
L47.3306 -10.0509
L46.8725 -9.84914
L46.411 -9.65538
L45.9464 -9.46964
L45.4788 -9.29198
L45.0083 -9.12246
L44.535 -8.96112
L44.0592 -8.80803
L43.5808 -8.66321
L43.1002 -8.52672
L42.6174 -8.3986
L42.1326 -8.27889
L41.6459 -8.16762
L41.1575 -8.06483
L40.6676 -7.97055
L40.1762 -7.88481
L39.6835 -7.80763
L39.1897 -7.73904
L38.695 -7.67906
L38.1994 -7.62771
L37.7032 -7.58499
L37.2064 -7.55094
L36.7093 -7.52554
L36.2119 -7.50883
L35.7145 -7.50079
L35.2172 -7.50143
L34.7201 -7.51075
L34.2234 -7.52875
L33.7272 -7.55543
L33.2318 -7.59077
L32.7372 -7.63476
L32.2435 -7.68739
L31.751 -7.74865
L31.2599 -7.81851
L30.7701 -7.89696
L30.282 -7.98396
L29.7956 -8.0795
L29.311 -8.18355
L28.8286 -8.29607
L28.3483 -8.41703
L27.8703 -8.54639
L27.3948 -8.68411
L26.9219 -8.83015
L26.4518 -8.98447
L25.9846 -9.14702
L25.5205 -9.31775
L25.0595 -9.49661
L24.6019 -9.68354
z
" id="C0_1_68cc06c971"/>
     <path d="
M8.27806 -29.8276
L8.30804 -30.279
L8.34246 -30.73
L8.38147 -31.1803
L8.42518 -31.6293
L8.47367 -32.0767
L8.527 -32.5221
L8.5852 -32.9652
L8.64827 -33.4057
L8.7162 -33.8433
L8.78895 -34.2778
L8.86647 -34.7089
L8.94872 -35.1365
L9.03561 -35.5604
L9.12706 -35.9804
L9.22298 -36.3964
L9.32328 -36.8083
L9.42786 -37.2159
L9.53662 -37.6192
L9.64944 -38.0182
L9.76623 -38.4127
L9.88686 -38.8027
L10.0112 -39.1882
L10.1393 -39.5691
L10.2708 -39.9455
L10.4058 -40.3174
L10.5441 -40.6847
L10.6856 -41.0475
L10.8302 -41.4057
L10.9779 -41.7595
L11.1285 -42.1088
L11.2819 -42.4537
L11.4382 -42.7943
L11.5971 -43.1305
L11.7586 -43.4624
L11.9227 -43.7901
L12.0892 -44.1136
L12.2582 -44.433
L12.4295 -44.7483
L12.6031 -45.0597
L12.779 -45.3671
L12.957 -45.6706
L13.1372 -45.9703
L13.3195 -46.2663
L13.5039 -46.5586
L13.6903 -46.8472
L13.8787 -47.1324
L14.0691 -47.414
L14.2614 -47.6922
L14.4557 -47.967
L14.6519 -48.2385
L14.8499 -48.5068
L15.0499 -48.7719
L15.2518 -49.0338
L15.4555 -49.2928
L15.6611 -49.5487
L15.8686 -49.8016
L16.0779 -50.0517
L16.2891 -50.2989
L16.5022 -50.5434
L16.7172 -50.7851
L16.9341 -51.0241
L17.1529 -51.2605
L17.3737 -51.4942
L17.5964 -51.7255
L17.8211 -51.9542
L18.0478 -52.1805
L18.2765 -52.4043
L18.5073 -52.6258
L18.7401 -52.8449
L18.975 -53.0617
L19.2121 -53.2762
L19.4514 -53.4884
L19.6929 -53.6984
L19.9366 -53.9063
L20.1826 -54.1119
L20.4309 -54.3154
L20.6817 -54.5167
L20.9348 -54.716
L21.1904 -54.9131
L21.4485 -55.1081
L21.7091 -55.3011
L21.9724 -55.492
L22.2383 -55.6808
L22.5069 -55.8675
L22.7782 -56.0522
L23.0524 -56.2348
L23.3294 -56.4154
L23.6094 -56.5939
L23.8923 -56.7703
L24.1783 -56.9446
L24.4673 -57.1168
L24.7595 -57.2868
L25.0549 -57.4547
L25.3536 -57.6204
L25.6556 -57.784
L25.9609 -57.9452
L26.2697 -58.1042
L26.5819 -58.261
L26.8978 -58.4153
L27.2172 -58.5673
L27.5402 -58.7168
L27.867 -58.8639
L28.1975 -59.0084
L28.5318 -59.1503
L28.8699 -59.2895
L29.212 -59.4261
L29.558 -59.5598
L29.9079 -59.6907
L30.2618 -59.8187
L30.6197 -59.9437
L30.9817 -60.0656
L31.3478 -60.1844
L31.7179 -60.2999
L32.0921 -60.4121
L32.4703 -60.5209
L32.8526 -60.6262
L33.239 -60.7279
L33.6294 -60.826
L34.0237 -60.9203
L34.422 -61.0107
L34.8241 -61.0973
L35.2301 -61.1799
L35.6397 -61.2583
L36.0529 -61.3327
L36.4696 -61.4028
L36.8896 -61.4687
L37.3129 -61.5303
L37.7391 -61.5875
L38.1683 -61.6403
L38.6 -61.6887
L39.0341 -61.7328
L39.4704 -61.7724
L39.9085 -61.8078
L40.3483 -61.8389
L40.7892 -61.8658
L41.231 -61.8887
L41.6734 -61.9077
L42.1158 -61.923
L42.5579 -61.9348
L42.9992 -61.9434
L43.4392 -61.949
L43.8774 -61.9521
L44.3133 -61.9529
L44.7462 -61.952
L45.1756 -61.9497
L45.6009 -61.9467
L46.0215 -61.9435
L46.4367 -61.9407
L46.8459 -61.9389
L47.2484 -61.9388
L47.2149 -61.9411
L46.7559 -62.2007
L46.2937 -62.3924
L45.8283 -62.5761
L45.3599 -62.7517
L44.8887 -62.9192
L44.4147 -63.0784
L43.9382 -63.2294
L43.4593 -63.3722
L42.9781 -63.5065
L42.4948 -63.6325
L42.0095 -63.7501
L41.5224 -63.8592
L41.0336 -63.9599
L40.5432 -64.052
L40.0515 -64.1355
L39.5585 -64.2106
L39.0645 -64.277
L38.5695 -64.3348
L38.0738 -64.3839
L37.5774 -64.4245
L37.0805 -64.4563
L36.5833 -64.4795
L36.0859 -64.494
L35.5885 -64.4999
L35.0912 -64.497
L34.5942 -64.4855
L34.0977 -64.4653
L33.6017 -64.4364
L33.1064 -64.3989
L32.612 -64.3527
L32.1187 -64.2979
L31.6265 -64.2345
L31.1357 -64.1624
L30.6463 -64.0818
L30.1586 -63.9926
L29.6726 -63.8949
L29.1886 -63.7887
L28.7067 -63.6741
L28.227 -63.551
L27.7496 -63.4195
L27.2748 -63.2797
L26.8026 -63.1315
L26.3332 -62.9751
L25.8668 -62.8105
L25.4034 -62.6377
L24.9433 -62.4568
L24.4866 -62.2678
L24.0333 -62.0709
L23.5837 -61.866
L23.1379 -61.6532
L22.696 -61.4326
L22.2581 -61.2042
L21.8245 -60.9682
L21.3951 -60.7246
L20.9702 -60.4734
L20.5499 -60.2148
L20.1343 -59.9488
L19.7235 -59.6755
L19.3177 -59.395
L18.917 -59.1074
L18.5214 -58.8127
L18.1312 -58.5111
L17.7465 -58.2026
L17.3673 -57.8874
L16.9937 -57.5655
L16.626 -57.237
L16.2641 -56.9021
L15.9083 -56.5608
L15.5586 -56.2132
L15.2151 -55.8595
L14.878 -55.4997
L14.5472 -55.134
L14.2231 -54.7624
L13.9055 -54.3852
L13.5947 -54.0023
L13.2907 -53.614
L12.9936 -53.2203
L12.7036 -52.8213
L12.4206 -52.4172
L12.1448 -52.0082
L11.8763 -51.5942
L11.6151 -51.1755
L11.3613 -50.7522
L11.1151 -50.3243
L10.8764 -49.8922
L10.6454 -49.4557
L10.4222 -49.0152
L10.2067 -48.5707
L9.99902 -48.1224
L9.7993 -47.6704
L9.60757 -47.2149
L9.42387 -46.7559
L9.24827 -46.2937
L9.08082 -45.8283
L8.92156 -45.3599
L8.77056 -44.8887
L8.62785 -44.4147
L8.49348 -43.9382
L8.36748 -43.4593
L8.24991 -42.9781
L8.14078 -42.4948
L8.04015 -42.0095
L7.94803 -41.5224
L7.86445 -41.0336
L7.78945 -40.5432
L7.72303 -40.0515
L7.66524 -39.5585
L7.61607 -39.0645
L7.57555 -38.5695
L7.54368 -38.0738
L7.52049 -37.5774
L7.50597 -37.0805
L7.50013 -36.5833
L7.50297 -36.0859
L7.51449 -35.5885
L7.53469 -35.0912
L7.56356 -34.5942
L7.60109 -34.0977
L7.64727 -33.6017
L7.70209 -33.1064
L7.76553 -32.612
L7.83757 -32.1187
L7.91819 -31.6265
L8.00736 -31.1357
z
" id="C0_2_0e85106f11"/>
    </defs>
    <g clip-path="url(#p1bffca34e9)">
     <use style="fill:#ff0000;stroke:#000000;stroke-width:2.0;" x="0.0" xlink:href="#C0_0_a811fe30f3" y="72.0"/>
    </g>
    <g clip-path="url(#p1bffca34e9)">
     <use style="fill:#ffffff;stroke:#000000;stroke-width:2.0;" x="0.0" xlink:href="#C0_1_68cc06c971" y="72.0"/>
    </g>
    <g clip-path="url(#p1bffca34e9)">
     <use style="fill:#ffffff;stroke:#000000;stroke-width:2.0;" x="0.0" xlink:href="#C0_2_0e85106f11" y="72.0"/>
    </g>
   </g>
  </g>
 </g>
 <defs>
  <clipPath id="p1bffca34e9">
   <rect height="72.0" width="72.0" x="0.0" y="0.0"/>
  </clipPath>
 </defs>
</svg>
