<?xml version="1.0" encoding="utf-8" standalone="no"?>
<!DOCTYPE svg PUBLIC "-//W3C//DTD SVG 1.1//EN"
  "http://www.w3.org/Graphics/SVG/1.1/DTD/svg11.dtd">
<!-- Created with matplotlib (http://matplotlib.org/) -->
<svg height="72pt" version="1.1" viewBox="0 0 72 72" width="72pt" xmlns="http://www.w3.org/2000/svg" xmlns:xlink="http://www.w3.org/1999/xlink">
 <defs>
  <style type="text/css">
*{stroke-linecap:butt;stroke-linejoin:round;}
  </style>
 </defs>
 <g id="figure_1">
  <g id="patch_1">
   <path d="
M0 72
L72 72
L72 0
L0 0
z
" style="fill:none;"/>
  </g>
  <g id="axes_1">
   <g id="PatchCollection_1">
    <defs>
     <path d="
M36 -7.5
C43.5583 -7.5 50.808 -10.5029 56.1525 -15.8475
C61.4971 -21.192 64.5 -28.4417 64.5 -36
C64.5 -43.5583 61.4971 -50.808 56.1525 -56.1525
C50.808 -61.4971 43.5583 -64.5 36 -64.5
C28.4417 -64.5 21.192 -61.4971 15.8475 -56.1525
C10.5029 -50.808 7.5 -43.5583 7.5 -36
C7.5 -28.4417 10.5029 -21.192 15.8475 -15.8475
C21.192 -10.5029 28.4417 -7.5 36 -7.5
z
" id="C0_0_a811fe30f3"/>
     <path d="
M36.8565 -27.6866
L37.0955 -27.7804
L37.3342 -27.8753
L37.5727 -27.9713
L37.811 -28.0685
L38.0492 -28.1668
L38.2873 -28.2663
L38.5253 -28.367
L38.7635 -28.469
L39.0016 -28.5722
L39.24 -28.6768
L39.4785 -28.7826
L39.7172 -28.8899
L39.9563 -28.9985
L40.1956 -29.1086
L40.4353 -29.2201
L40.6755 -29.3332
L40.9161 -29.4479
L41.1573 -29.5641
L41.399 -29.682
L41.6413 -29.8015
L41.8842 -29.9228
L42.1279 -30.0459
L42.3722 -30.1708
L42.6174 -30.2976
L42.8633 -30.4263
L43.1101 -30.557
L43.3577 -30.6898
L43.6063 -30.8246
L43.8558 -30.9616
L44.1063 -31.1009
L44.3578 -31.2424
L44.6103 -31.3862
L44.8638 -31.5325
L45.1185 -31.6812
L45.3742 -31.8324
L45.6309 -31.9863
L45.8888 -32.1428
L46.1478 -32.3021
L46.4079 -32.4642
L46.6692 -32.6292
L46.9315 -32.7972
L47.1949 -32.9682
L47.4594 -33.1423
L47.7249 -33.3197
L47.9914 -33.5003
L48.2589 -33.6843
L48.5274 -33.8718
L48.7967 -34.0628
L49.0668 -34.2574
L49.3377 -34.4557
L49.6093 -34.6578
L49.8814 -34.8637
L50.154 -35.0736
L50.4269 -35.2876
L50.7 -35.5056
L50.9732 -35.7279
L51.2463 -35.9545
L51.5192 -36.1854
L51.7916 -36.4208
L52.0633 -36.6607
L52.3341 -36.9052
L52.6037 -37.1545
L52.8719 -37.4084
L53.1383 -37.6673
L53.4026 -37.931
L53.6644 -38.1997
L53.9233 -38.4735
L54.1789 -38.7524
L54.4307 -39.0365
L54.6782 -39.3258
L54.9207 -39.6205
L55.1577 -39.9205
L55.3884 -40.226
L55.6121 -40.5371
L55.8279 -40.8537
L56.0349 -41.1759
L56.2321 -41.5039
L56.4184 -41.8376
L56.5925 -42.1771
L56.7533 -42.5224
L56.8992 -42.8736
L57.0288 -43.2307
L57.1406 -43.5936
L57.2329 -43.9623
L57.3041 -44.3365
L57.3526 -44.7161
L57.3771 -45.1006
L57.3763 -45.4898
L57.3491 -45.883
L57.2949 -46.2795
L57.2135 -46.6784
L57.1048 -47.079
L56.9693 -47.4801
L56.8079 -47.8807
L56.6216 -48.2798
L56.4117 -48.6762
L56.1798 -49.0691
L55.9274 -49.4573
L55.6561 -49.8402
L55.3674 -50.2168
L55.0629 -50.5864
L54.7441 -50.9485
L54.4124 -51.3025
L54.0691 -51.648
L53.7155 -51.9846
L53.3526 -52.312
L52.9815 -52.63
L52.6032 -52.9383
L52.2186 -53.2369
L51.8286 -53.5256
L51.4339 -53.8045
L51.0353 -54.0735
L50.6333 -54.3326
L50.2286 -54.5819
L49.8218 -54.8215
L49.4134 -55.0514
L49.0038 -55.2718
L48.5935 -55.4828
L48.1829 -55.6846
L47.7723 -55.8773
L47.3621 -56.0612
L46.9526 -56.2363
L46.5441 -56.4028
L46.1367 -56.561
L45.7308 -56.7111
L45.3266 -56.8531
L44.9241 -56.9875
L44.5237 -57.1142
L44.1254 -57.2336
L43.7293 -57.3458
L43.3356 -57.451
L42.9444 -57.5494
L42.5557 -57.6412
L42.1697 -57.7266
L41.7863 -57.8057
L41.4057 -57.8787
L41.0278 -57.9459
L40.6527 -58.0073
L40.2804 -58.0632
L39.9109 -58.1136
L39.5443 -58.1588
L39.1805 -58.1989
L38.8194 -58.234
L38.4612 -58.2642
L38.1057 -58.2897
L37.753 -58.3107
L37.403 -58.3271
L37.0557 -58.3392
L36.711 -58.3471
L36.369 -58.3508
L36.0295 -58.3505
L35.6925 -58.3462
L35.358 -58.3381
L35.0259 -58.3262
L34.6962 -58.3106
L34.3688 -58.2914
L34.0437 -58.2686
L33.7207 -58.2423
L33.4 -58.2126
L33.0813 -58.1795
L32.7647 -58.1431
L32.4501 -58.1035
L32.1374 -58.0606
L31.8265 -58.0145
L31.5175 -57.9653
L31.2102 -57.913
L30.9046 -57.8575
L30.6007 -57.7991
L30.2984 -57.7375
L29.9975 -57.673
L29.6982 -57.6054
L29.4002 -57.5349
L29.1037 -57.4613
L28.8084 -57.3848
L28.5143 -57.3052
L28.2215 -57.2227
L27.9298 -57.1372
L27.6392 -57.0487
L27.3497 -56.9572
L27.0611 -56.8626
L26.7735 -56.765
L26.4867 -56.6643
L26.2008 -56.5605
L25.9158 -56.4536
L25.6314 -56.3435
L25.3478 -56.2303
L25.0649 -56.1138
L24.7826 -55.994
L24.5009 -55.8709
L24.2198 -55.7444
L23.9391 -55.6146
L23.659 -55.4812
L23.3794 -55.3443
L23.1001 -55.2039
L22.8213 -55.0597
L22.5428 -54.9119
L22.2647 -54.7602
L21.9869 -54.6047
L21.7095 -54.4452
L21.4323 -54.2817
L21.1554 -54.1141
L20.8789 -53.9422
L20.6025 -53.7661
L20.3265 -53.5856
L20.0507 -53.4006
L19.7753 -53.211
L19.5001 -53.0167
L19.2252 -52.8176
L18.9506 -52.6135
L18.6764 -52.4045
L18.4026 -52.1902
L18.1291 -51.9707
L17.8561 -51.7458
L17.5837 -51.5154
L17.3118 -51.2793
L17.0405 -51.0373
L16.7698 -50.7895
L16.5 -50.5356
L16.231 -50.2755
L15.9629 -50.009
L15.6959 -49.736
L15.43 -49.4564
L15.1654 -49.17
L14.9022 -48.8766
L14.6406 -48.5762
L14.3807 -48.2686
L14.1227 -47.9536
L13.8668 -47.6312
L13.6132 -47.3011
L13.362 -46.9633
L13.1135 -46.6176
L12.868 -46.2639
L12.6257 -45.9021
L12.3869 -45.5322
L12.1518 -45.1539
L11.9208 -44.7674
L11.6943 -44.3724
L11.4725 -43.969
L11.2558 -43.5571
L11.0446 -43.1368
L10.8393 -42.708
L10.6404 -42.2708
L10.4482 -41.8254
L10.2633 -41.3717
L10.0861 -40.9101
L9.91713 -40.4406
L9.75689 -39.9635
L9.60594 -39.4791
L9.46484 -38.9878
L9.33417 -38.49
L9.21452 -37.9861
L9.10651 -37.4767
L9.01078 -36.9625
L8.92797 -36.4442
L8.85874 -35.9226
L8.80375 -35.3987
L8.7637 -34.8734
L8.73926 -34.3481
L8.7311 -33.8241
L8.7399 -33.3027
L8.76631 -32.7855
L8.81093 -32.2744
L8.87433 -31.771
L8.95698 -31.2773
L9.05928 -30.7954
L9.18147 -30.3271
L9.32367 -29.8743
L9.48577 -29.4389
L9.6675 -29.0223
L9.86835 -28.6259
L10.0876 -28.2505
L10.3243 -27.8969
L10.5775 -27.5651
L10.8459 -27.2551
L11.1283 -26.9664
L11.4233 -26.6984
L11.7296 -26.4503
L12.046 -26.2211
L12.3713 -26.0097
L12.7043 -25.8153
L13.044 -25.6366
L13.3894 -25.4728
L13.7396 -25.3228
L14.0938 -25.1858
L14.4512 -25.061
L14.8113 -24.9475
L15.1734 -24.8447
L15.537 -24.7519
L15.9015 -24.6685
L16.2665 -24.5939
L16.6317 -24.5275
L16.9967 -24.469
L17.3611 -24.4178
L17.7247 -24.3735
L18.0871 -24.3358
L18.4482 -24.3042
L18.8077 -24.2785
L19.1655 -24.2582
L19.5213 -24.2432
L19.875 -24.2331
L20.2266 -24.2277
L20.5758 -24.2266
L20.9226 -24.2298
L21.2669 -24.2369
L21.6085 -24.2478
L21.9476 -24.2622
L22.2839 -24.28
L22.6175 -24.301
L22.9483 -24.325
L23.2763 -24.3519
L23.6016 -24.3816
L23.924 -24.4138
L24.2435 -24.4485
L24.5603 -24.4856
L24.8743 -24.525
L25.1856 -24.5664
L25.494 -24.6099
L25.7998 -24.6553
L26.1029 -24.7026
L26.4033 -24.7517
L26.7011 -24.8024
L26.9963 -24.8548
L27.289 -24.9087
L27.5793 -24.9641
L27.8671 -25.0209
L28.1525 -25.0792
L28.4356 -25.1387
L28.7164 -25.1995
L28.995 -25.2616
L29.2715 -25.3248
L29.5458 -25.3893
L29.8181 -25.4548
L30.0885 -25.5214
L30.3569 -25.5891
L30.6234 -25.6579
L30.8881 -25.7277
L31.1511 -25.7984
L31.4124 -25.8702
L31.6721 -25.9429
L31.9302 -26.0166
L32.1868 -26.0912
L32.442 -26.1668
L32.6957 -26.2432
L32.9482 -26.3207
L33.1994 -26.399
L33.4494 -26.4782
L33.6983 -26.5584
L33.9461 -26.6395
L34.1929 -26.7215
L34.4387 -26.8044
L34.6836 -26.8882
L34.9276 -26.973
L35.1709 -27.0588
L35.4134 -27.1455
L35.6553 -27.2332
L35.8965 -27.3218
L36.1372 -27.4115
L36.3774 -27.5021
z
" id="C0_1_1eedd4927d"/>
    </defs>
    <g clip-path="url(#p1bffca34e9)">
     <use style="fill:#ffffff;stroke:#000000;stroke-width:2.0;" x="0.0" xlink:href="#C0_0_a811fe30f3" y="72.0"/>
    </g>
    <g clip-path="url(#p1bffca34e9)">
     <use style="fill:#ff0000;stroke:#000000;stroke-width:2.0;" x="0.0" xlink:href="#C0_1_1eedd4927d" y="72.0"/>
    </g>
   </g>
  </g>
 </g>
 <defs>
  <clipPath id="p1bffca34e9">
   <rect height="72.0" width="72.0" x="0.0" y="0.0"/>
  </clipPath>
 </defs>
</svg>
