<?xml version="1.0" encoding="utf-8" standalone="no"?>
<!DOCTYPE svg PUBLIC "-//W3C//DTD SVG 1.1//EN"
  "http://www.w3.org/Graphics/SVG/1.1/DTD/svg11.dtd">
<!-- Created with matplotlib (http://matplotlib.org/) -->
<svg height="72pt" version="1.1" viewBox="0 0 72 72" width="72pt" xmlns="http://www.w3.org/2000/svg" xmlns:xlink="http://www.w3.org/1999/xlink">
 <defs>
  <style type="text/css">
*{stroke-linecap:butt;stroke-linejoin:round;}
  </style>
 </defs>
 <g id="figure_1">
  <g id="patch_1">
   <path d="
M0 72
L72 72
L72 0
L0 0
z
" style="fill:none;"/>
  </g>
  <g id="axes_1">
   <g id="PatchCollection_1">
    <defs>
     <path d="
M36 -7.5
C43.5583 -7.5 50.808 -10.5029 56.1525 -15.8475
C61.4971 -21.192 64.5 -28.4417 64.5 -36
C64.5 -43.5583 61.4971 -50.808 56.1525 -56.1525
C50.808 -61.4971 43.5583 -64.5 36 -64.5
C28.4417 -64.5 21.192 -61.4971 15.8475 -56.1525
C10.5029 -50.808 7.5 -43.5583 7.5 -36
C7.5 -28.4417 10.5029 -21.192 15.8475 -15.8475
C21.192 -10.5029 28.4417 -7.5 36 -7.5
z
" id="C0_0_a811fe30f3"/>
     <path d="
M61.6193 -48.4405
L61.3942 -48.4805
L61.1693 -48.5163
L60.9447 -48.548
L60.7202 -48.5756
L60.496 -48.5994
L60.2719 -48.6193
L60.0481 -48.6355
L59.8244 -48.6481
L59.6008 -48.6571
L59.3775 -48.6628
L59.1542 -48.665
L58.9311 -48.6639
L58.7081 -48.6596
L58.4852 -48.6522
L58.2624 -48.6416
L58.0397 -48.628
L57.817 -48.6114
L57.5943 -48.5919
L57.3717 -48.5695
L57.149 -48.5442
L56.9263 -48.5162
L56.7036 -48.4853
L56.258 -48.4518
L56.035 -48.4155
L55.812 -48.3766
L55.5888 -48.3351
L55.3655 -48.2909
L55.142 -48.2442
L54.9183 -48.1949
L54.6944 -48.1431
L54.4703 -48.0887
L54.246 -48.0318
L54.0215 -47.9724
L53.7966 -47.9105
L53.5715 -47.8462
L53.3462 -47.7793
L53.1205 -47.71
L52.8945 -47.6382
L52.6681 -47.564
L52.4415 -47.4873
L52.2145 -47.4081
L51.9871 -47.3264
L51.7594 -47.2423
L51.5313 -47.1556
L51.3028 -47.0665
L51.074 -46.9749
L50.8448 -46.8808
L50.6152 -46.7841
L50.3852 -46.6849
L50.1549 -46.5832
L49.9241 -46.4789
L49.6931 -46.372
L49.4617 -46.2625
L49.2299 -46.1503
L48.9978 -46.0356
L48.7654 -45.9181
L48.5327 -45.798
L48.2997 -45.6752
L48.0665 -45.5497
L47.8331 -45.4214
L47.5995 -45.2903
L47.3657 -45.1564
L47.1318 -45.0197
L46.8978 -44.8801
L46.6638 -44.7377
L46.4298 -44.5924
L46.1958 -44.4441
L45.962 -44.2929
L45.7283 -44.1387
L45.4949 -43.9815
L45.2618 -43.8212
L45.0291 -43.6579
L44.7968 -43.4915
L44.565 -43.322
L44.3339 -43.1493
L44.1035 -42.9735
L43.8739 -42.7945
L43.6453 -42.6123
L43.4176 -42.4268
L43.1911 -42.2382
L42.9658 -42.0462
L42.7419 -41.851
L42.5196 -41.6524
L42.2988 -41.4506
L42.0798 -41.2454
L41.8627 -41.0369
L41.6477 -40.8251
L41.4349 -40.6099
L41.2244 -40.3913
L41.0165 -40.1694
L40.8112 -39.9442
L40.6088 -39.7156
L40.4094 -39.4837
L40.2131 -39.2484
L40.0202 -39.0099
L39.8308 -38.7681
L39.6451 -38.523
L39.4633 -38.2747
L39.2854 -38.0232
L39.1117 -37.7686
L38.9424 -37.5109
L38.7775 -37.2501
L38.6173 -36.9863
L38.4619 -36.7195
L38.3114 -36.4499
L38.166 -36.1774
L38.0258 -35.9022
L37.8909 -35.6244
L37.7614 -35.344
L37.6374 -35.0611
L37.519 -34.7758
L37.4064 -34.4883
L37.2994 -34.1985
L37.1983 -33.9068
L37.1029 -33.6131
L37.0135 -33.3175
L36.93 -33.0203
L36.8523 -32.7215
L36.7806 -32.4213
L36.7147 -32.1198
L36.6547 -31.8171
L36.6004 -31.5134
L36.552 -31.2088
L36.5093 -30.9035
L36.4722 -30.5976
L36.4407 -30.2912
L36.4148 -29.9846
L36.3942 -29.6777
L36.3789 -29.3708
L36.3689 -29.064
L36.364 -28.7575
L36.3641 -28.4513
L36.3691 -28.1457
L36.379 -27.8407
L36.3935 -27.5364
L36.4126 -27.233
L36.4361 -26.9306
L36.4639 -26.6292
L36.496 -26.3291
L36.5322 -26.0303
L36.5724 -25.7329
L36.6164 -25.4371
L36.6643 -25.1427
L36.7157 -24.8501
L36.7707 -24.5592
L36.8292 -24.2702
L36.891 -23.983
L36.956 -23.6979
L37.0241 -23.4147
L37.0953 -23.1336
L37.1695 -22.8547
L37.2465 -22.5779
L37.3263 -22.3034
L37.4088 -22.0311
L37.4938 -21.7612
L37.5815 -21.4935
L37.6716 -21.2283
L37.764 -20.9654
L37.8588 -20.705
L37.9559 -20.447
L38.0552 -20.1915
L38.1566 -19.9384
L38.2602 -19.6878
L38.3658 -19.4397
L38.4733 -19.1942
L38.5829 -18.9511
L38.6943 -18.7105
L38.8076 -18.4725
L38.9228 -18.237
L39.0397 -18.004
L39.1584 -17.7735
L39.2789 -17.5455
L39.4011 -17.3201
L39.525 -17.0971
L39.6506 -16.8767
L39.7778 -16.6588
L39.9067 -16.4433
L40.0372 -16.2303
L40.1693 -16.0198
L40.3031 -15.8118
L40.4384 -15.6063
L40.5754 -15.4032
L40.7139 -15.2026
L40.8541 -15.0044
L40.9958 -14.8086
L41.1392 -14.6153
L41.2842 -14.4244
L41.4308 -14.2359
L41.579 -14.0499
L41.7289 -13.8663
L41.8805 -13.6851
L42.0337 -13.5063
L42.1886 -13.33
L42.3452 -13.1561
L42.5036 -12.9846
L42.6637 -12.8155
L42.8256 -12.6489
L42.9893 -12.4847
L43.1548 -12.323
L43.3222 -12.1637
L43.4915 -12.0069
L43.6628 -11.8527
L43.836 -11.7009
L44.0113 -11.5517
L44.1886 -11.4051
L44.3679 -11.261
L44.5495 -11.1196
L44.7332 -10.9808
L44.9191 -10.8446
L45.1073 -10.7112
L45.2979 -10.5806
L45.4908 -10.4527
L45.6862 -10.3277
L45.884 -10.2056
L46.0845 -10.0864
L46.2875 -9.97022
L46.4932 -9.85712
L46.7017 -9.74716
L47.18 -9.6404
L47.6359 -9.78442
L48.0881 -9.98353
L48.5367 -10.1906
L48.9815 -10.4055
L49.4223 -10.6282
L49.8591 -10.8586
L50.2916 -11.0967
L50.7197 -11.3423
L51.1434 -11.5955
L51.5625 -11.8561
L51.9768 -12.1241
L52.3863 -12.3993
L52.7907 -12.6818
L53.1901 -12.9713
L53.5842 -13.2678
L53.9729 -13.5713
L54.3562 -13.8816
L54.7339 -14.1986
L55.1059 -14.5223
L55.4721 -14.8526
L55.8323 -15.1892
L56.1865 -15.5322
L56.5345 -15.8815
L56.8763 -16.2368
L57.2117 -16.5982
L57.5407 -16.9655
L57.8631 -17.3386
L58.1789 -17.7174
L58.4879 -18.1017
L58.79 -18.4915
L59.0852 -18.8867
L59.3734 -19.287
L59.6544 -19.6925
L59.9282 -20.1029
L60.1948 -20.5181
L60.454 -20.9381
L60.7057 -21.3626
L60.9499 -21.7916
L61.1865 -22.225
L61.4155 -22.6625
L61.6367 -23.1041
L61.85 -23.5496
L62.0556 -23.9989
L62.2531 -24.4519
L62.4427 -24.9084
L62.6242 -25.3683
L62.7976 -25.8314
L62.9629 -26.2976
L63.1199 -26.7667
L63.2687 -27.2387
L63.4092 -27.7134
L63.5413 -28.1905
L63.665 -28.6701
L63.7803 -29.1519
L63.8872 -29.6357
L63.9855 -30.1215
L64.0753 -30.6091
L64.1566 -31.0983
L64.2293 -31.5891
L64.2934 -32.0812
L64.3489 -32.5744
L64.3957 -33.0687
L64.4339 -33.5639
L64.4634 -34.0599
L64.4843 -34.5564
L64.4965 -35.0534
L64.5 -35.5506
L64.4948 -36.048
L64.4809 -36.5454
L64.4584 -37.0427
L64.4272 -37.5396
L64.3873 -38.036
L64.3388 -38.5318
L64.2817 -39.0268
L64.2159 -39.521
L64.1416 -40.014
L64.0586 -40.5058
L63.9672 -40.9963
L63.8672 -41.4852
L63.7587 -41.9725
L63.6418 -42.4579
L63.5164 -42.9414
L63.3827 -43.4227
L63.2406 -43.9018
L63.0902 -44.3785
L62.9316 -44.8527
L62.7648 -45.3241
L62.5898 -45.7927
L62.4067 -46.2583
L62.2156 -46.7208
L62.0165 -47.18
z
" id="C0_1_3d14824372"/>
     <path d="
M25.1825 -62.2315
L25.1056 -62.0076
L25.0293 -61.7819
L24.9537 -61.5543
L24.8788 -61.3249
L24.8044 -61.0937
L24.7307 -60.8605
L24.6575 -60.6255
L24.5849 -60.3885
L24.5129 -60.1496
L24.4413 -59.9087
L24.3703 -59.6659
L24.2998 -59.421
L24.2298 -59.1741
L24.1603 -58.9252
L24.0911 -58.6742
L24.0224 -58.4212
L23.9541 -58.166
L23.8862 -57.9087
L23.8187 -57.6494
L23.7515 -57.3878
L23.6846 -57.1242
L23.618 -56.8584
L23.5516 -56.5904
L23.4855 -56.3203
L23.4196 -56.048
L23.3539 -55.7736
L23.2884 -55.497
L23.223 -55.2182
L23.1576 -54.9372
L23.0923 -54.6542
L23.0271 -54.3689
L22.9618 -54.0816
L22.8965 -53.7921
L22.831 -53.5006
L22.7655 -53.207
L22.6997 -52.9113
L22.6337 -52.6137
L22.5674 -52.314
L22.5008 -52.0124
L22.4338 -51.709
L22.3663 -51.4036
L22.2984 -51.0965
L22.2298 -50.7876
L22.1607 -50.4769
L22.0908 -50.1647
L22.0202 -49.8508
L21.9487 -49.5355
L21.8763 -49.2187
L21.803 -48.9005
L21.7285 -48.5811
L21.653 -48.2604
L21.5762 -47.9386
L21.4982 -47.6157
L21.4188 -47.2919
L21.3379 -46.9673
L21.2555 -46.6419
L21.1715 -46.3159
L21.0858 -45.9892
L20.9984 -45.6622
L20.9091 -45.3347
L20.8179 -45.0071
L20.7248 -44.6793
L20.6296 -44.3514
L20.5323 -44.0237
L20.4328 -43.6961
L20.3312 -43.3688
L20.2273 -43.0419
L20.1212 -42.7155
L20.0127 -42.3897
L19.902 -42.0645
L19.7888 -41.7402
L19.6734 -41.4167
L19.5556 -41.0942
L19.4354 -40.7728
L19.313 -40.4525
L19.1883 -40.1334
L19.0613 -39.8157
L18.9322 -39.4993
L18.8009 -39.1843
L18.6676 -38.8708
L18.5322 -38.559
L18.395 -38.2487
L18.2559 -37.9401
L18.115 -37.6332
L17.9725 -37.3281
L17.8284 -37.0248
L17.6829 -36.7234
L17.5361 -36.4238
L17.3881 -36.1261
L17.2389 -35.8304
L17.0888 -35.5367
L16.9377 -35.2449
L16.7859 -34.9551
L16.6335 -34.6674
L16.4806 -34.3817
L16.3272 -34.098
L16.1735 -33.8164
L16.0197 -33.5369
L15.8658 -33.2594
L15.7119 -32.984
L15.5581 -32.7107
L15.4045 -32.4395
L15.2513 -32.1703
L15.0985 -31.9032
L14.9462 -31.6381
L14.7945 -31.3751
L14.6434 -31.1142
L14.4931 -30.8553
L14.3436 -30.5984
L14.195 -30.3436
L14.0474 -30.0907
L13.9007 -29.8398
L13.7551 -29.5909
L13.6106 -29.344
L13.4673 -29.099
L13.3252 -28.856
L13.1844 -28.6148
L13.0448 -28.3755
L12.9066 -28.1381
L12.7697 -27.9026
L12.6342 -27.6688
L12.5001 -27.4369
L12.3675 -27.2068
L12.2363 -26.9784
L12.1066 -26.7517
L11.9784 -26.5267
L11.8516 -26.3034
L11.7264 -26.0818
L11.6028 -25.8618
L11.4806 -25.6434
L11.3601 -25.4266
L11.241 -25.2114
L11.1235 -24.9977
L11.0076 -24.7854
L10.8933 -24.5747
L10.7805 -24.3654
L10.6692 -24.1575
L10.5596 -23.951
L10.0918 -23.7459
L9.8885 -24.125
L9.69315 -24.579
L9.50582 -25.0364
L9.32656 -25.4972
L9.15542 -25.9612
L8.99245 -26.4283
L8.83772 -26.8982
L8.69126 -27.3709
L8.55312 -27.8463
L8.42334 -28.3242
L8.30195 -28.8043
L8.18901 -29.2867
L8.08454 -29.7711
L7.98857 -30.2574
L7.90113 -30.7455
L7.82225 -31.2352
L7.75196 -31.7263
L7.69027 -32.2187
L7.6372 -32.7123
L7.59277 -33.2069
L7.557 -33.7023
L7.52989 -34.1984
L7.51145 -34.6951
L7.50169 -35.1922
L7.50061 -35.6895
L7.50822 -36.1869
L7.5245 -36.6842
L7.54945 -37.1814
L7.58307 -37.6782
L7.62535 -38.1745
L7.67627 -38.6701
L7.73582 -39.1649
L7.80398 -39.6587
L7.88072 -40.1514
L7.96604 -40.6429
L8.05989 -41.1329
L8.16225 -41.6214
L8.27309 -42.1082
L8.39238 -42.5931
L8.52008 -43.076
L8.65614 -43.5567
L8.80054 -44.0351
L8.95322 -44.5111
L9.11414 -44.9845
L9.28326 -45.4552
L9.4605 -45.923
L9.64584 -46.3877
L9.8392 -46.8493
L10.0405 -47.3076
L10.2498 -47.7625
L10.4668 -48.2137
L10.6917 -48.6613
L10.9243 -49.105
L11.1645 -49.5447
L11.4123 -49.9802
L11.6675 -50.4115
L11.9302 -50.8385
L12.2002 -51.2609
L12.4774 -51.6786
L12.7619 -52.0916
L13.0534 -52.4997
L13.3518 -52.9027
L13.6572 -53.3006
L13.9694 -53.6932
L14.2883 -54.0805
L14.6138 -54.4622
L14.9459 -54.8383
L15.2843 -55.2087
L15.6291 -55.5732
L15.98 -55.9318
L16.3371 -56.2843
L16.7001 -56.6306
L17.0691 -56.9706
L17.4438 -57.3042
L17.8241 -57.6314
L18.21 -57.9519
L18.6013 -58.2658
L18.9979 -58.5729
L19.3997 -58.8731
L19.8065 -59.1663
L20.2183 -59.4525
L20.6349 -59.7316
L21.0561 -60.0034
L21.4819 -60.2679
L21.9122 -60.525
L22.3467 -60.7746
L22.7854 -61.0167
L23.2281 -61.2512
L23.6747 -61.478
L24.125 -61.697
L24.579 -61.9082
z
" id="C0_2_e36e9b4dd5"/>
    </defs>
    <g clip-path="url(#p1bffca34e9)">
     <use style="fill:#ffffff;stroke:#000000;stroke-width:2.0;" x="0.0" xlink:href="#C0_0_a811fe30f3" y="72.0"/>
    </g>
    <g clip-path="url(#p1bffca34e9)">
     <use style="fill:#ff0000;stroke:#000000;stroke-width:2.0;" x="0.0" xlink:href="#C0_1_3d14824372" y="72.0"/>
    </g>
    <g clip-path="url(#p1bffca34e9)">
     <use style="fill:#ff0000;stroke:#000000;stroke-width:2.0;" x="0.0" xlink:href="#C0_2_e36e9b4dd5" y="72.0"/>
    </g>
   </g>
  </g>
 </g>
 <defs>
  <clipPath id="p1bffca34e9">
   <rect height="72.0" width="72.0" x="0.0" y="0.0"/>
  </clipPath>
 </defs>
</svg>
