<?xml version="1.0" encoding="utf-8" standalone="no"?>
<!DOCTYPE svg PUBLIC "-//W3C//DTD SVG 1.1//EN"
  "http://www.w3.org/Graphics/SVG/1.1/DTD/svg11.dtd">
<!-- Created with matplotlib (http://matplotlib.org/) -->
<svg height="72pt" version="1.1" viewBox="0 0 72 72" width="72pt" xmlns="http://www.w3.org/2000/svg" xmlns:xlink="http://www.w3.org/1999/xlink">
 <defs>
  <style type="text/css">
*{stroke-linecap:butt;stroke-linejoin:round;}
  </style>
 </defs>
 <g id="figure_1">
  <g id="patch_1">
   <path d="
M0 72
L72 72
L72 0
L0 0
z
" style="fill:none;"/>
  </g>
  <g id="axes_1">
   <g id="PatchCollection_1">
    <defs>
     <path d="
M36 -7.5
C43.5583 -7.5 50.808 -10.5029 56.1525 -15.8475
C61.4971 -21.192 64.5 -28.4417 64.5 -36
C64.5 -43.5583 61.4971 -50.808 56.1525 -56.1525
C50.808 -61.4971 43.5583 -64.5 36 -64.5
C28.4417 -64.5 21.192 -61.4971 15.8475 -56.1525
C10.5029 -50.808 7.5 -43.5583 7.5 -36
C7.5 -28.4417 10.5029 -21.192 15.8475 -15.8475
C21.192 -10.5029 28.4417 -7.5 36 -7.5
z
" id="C0_0_a811fe30f3"/>
     <path d="
M41.4611 -29.6691
L41.6363 -29.8826
L41.8097 -30.0977
L41.9812 -30.3144
L42.1508 -30.5327
L42.3185 -30.7526
L42.4844 -30.9741
L42.6484 -31.1972
L42.8105 -31.4219
L42.9708 -31.6483
L43.1291 -31.8763
L43.2856 -32.106
L43.4401 -32.3373
L43.5927 -32.5702
L43.7433 -32.8049
L43.892 -33.0412
L44.0387 -33.2792
L44.1833 -33.5188
L44.326 -33.7602
L44.4666 -34.0034
L44.6051 -34.2482
L44.7415 -34.4948
L44.8758 -34.7431
L45.0079 -34.9932
L45.1377 -35.245
L45.2653 -35.4986
L45.3907 -35.754
L45.5137 -36.0111
L45.6343 -36.27
L45.7524 -36.5308
L45.8681 -36.7933
L45.9812 -37.0576
L46.0918 -37.3237
L46.1997 -37.5915
L46.3048 -37.8612
L46.4072 -38.1327
L46.5067 -38.4059
L46.6033 -38.6809
L46.6969 -38.9577
L46.7874 -39.2362
L46.8748 -39.5165
L46.9589 -39.7984
L47.0396 -40.0821
L47.117 -40.3675
L47.1908 -40.6545
L47.2609 -40.9431
L47.3274 -41.2333
L47.39 -41.5251
L47.4487 -41.8184
L47.5034 -42.1132
L47.5539 -42.4094
L47.6001 -42.7069
L47.6419 -43.0058
L47.6792 -43.306
L47.7119 -43.6074
L47.7397 -43.9099
L47.7627 -44.2134
L47.7807 -44.518
L47.7934 -44.8234
L47.8009 -45.1297
L47.803 -45.4367
L47.7994 -45.7443
L47.7901 -46.0524
L47.775 -46.3609
L47.7539 -46.6696
L47.7267 -46.9786
L47.6931 -47.2875
L47.6532 -47.5964
L47.6067 -47.905
L47.5536 -48.2132
L47.4936 -48.5208
L47.4268 -48.8278
L47.3529 -49.1338
L47.2718 -49.4389
L47.1834 -49.7426
L47.0877 -50.045
L46.9845 -50.3458
L46.8737 -50.6448
L46.7554 -50.9419
L46.6293 -51.2367
L46.4954 -51.5292
L46.3537 -51.8191
L46.2042 -52.1061
L46.0468 -52.3902
L45.8815 -52.6711
L45.7083 -52.9485
L45.5272 -53.2223
L45.3382 -53.4922
L45.1415 -53.7581
L44.9369 -54.0197
L44.7247 -54.2768
L44.5048 -54.5292
L44.2775 -54.7767
L44.0427 -55.0192
L43.8006 -55.2563
L43.5513 -55.4881
L43.295 -55.7141
L43.0319 -55.9344
L42.7621 -56.1486
L42.4858 -56.3568
L42.2032 -56.5586
L41.9145 -56.754
L41.6199 -56.9429
L41.3196 -57.125
L41.0139 -57.3004
L40.7029 -57.4689
L40.387 -57.6304
L40.0663 -57.7848
L39.7412 -57.9321
L39.4118 -58.0721
L39.0784 -58.2048
L38.7413 -58.3303
L38.4007 -58.4484
L38.0568 -58.5591
L37.71 -58.6624
L37.3604 -58.7582
L37.0083 -58.8467
L36.654 -58.9278
L36.2976 -59.0014
L35.9394 -59.0677
L35.5798 -59.1266
L35.2187 -59.1782
L34.8566 -59.2225
L34.4936 -59.2596
L34.1298 -59.2896
L33.7656 -59.3123
L33.4011 -59.3281
L33.0366 -59.3368
L32.672 -59.3386
L32.3078 -59.3335
L31.944 -59.3217
L31.5808 -59.3031
L31.2183 -59.2779
L30.8568 -59.2462
L30.4963 -59.208
L30.1369 -59.1634
L29.7789 -59.1125
L29.4224 -59.0554
L29.0674 -58.9922
L28.7141 -58.9229
L28.3626 -58.8477
L28.013 -58.7666
L27.6654 -58.6798
L27.3199 -58.5872
L26.9765 -58.4891
L26.6354 -58.3854
L26.2967 -58.2763
L25.9603 -58.1618
L25.6265 -58.0421
L25.2952 -57.9171
L24.9665 -57.7871
L24.6405 -57.652
L24.3172 -57.5119
L23.9968 -57.3669
L23.6791 -57.2171
L23.3644 -57.0626
L23.0525 -56.9034
L22.7437 -56.7396
L22.4379 -56.5712
L22.1351 -56.3983
L21.8354 -56.221
L21.5389 -56.0393
L21.2455 -55.8533
L20.9554 -55.663
L20.6684 -55.4686
L20.3848 -55.2699
L20.1044 -55.0672
L19.8273 -54.8604
L19.5536 -54.6496
L19.2833 -54.4348
L19.0164 -54.2161
L18.7529 -53.9935
L18.4929 -53.7671
L18.2364 -53.5368
L17.9834 -53.3028
L17.734 -53.065
L17.4882 -52.8236
L17.2459 -52.5784
L17.0074 -52.3297
L16.7725 -52.0773
L16.5413 -51.8213
L16.3138 -51.5618
L16.0902 -51.2988
L15.8703 -51.0323
L15.6543 -50.7623
L15.4422 -50.4889
L15.234 -50.2121
L15.0298 -49.9318
L14.8296 -49.6483
L14.6334 -49.3614
L14.4413 -49.0712
L14.2534 -48.7777
L14.0697 -48.4809
L13.8903 -48.181
L13.7151 -47.8778
L13.5443 -47.5715
L13.3779 -47.262
L13.2159 -46.9494
L13.0585 -46.6338
L12.9057 -46.3151
L12.7575 -45.9934
L12.614 -45.6687
L12.4754 -45.3411
L12.3415 -45.0107
L12.2126 -44.6774
L12.0887 -44.3413
L11.9699 -44.0024
L11.8562 -43.6609
L11.7478 -43.3168
L11.6446 -42.97
L11.5468 -42.6208
L11.4545 -42.2691
L11.3678 -41.915
L11.2867 -41.5587
L11.2113 -41.2001
L11.1417 -40.8393
L11.078 -40.4766
L11.0203 -40.1118
L10.9687 -39.7453
L10.9232 -39.3769
L10.884 -39.007
L10.8511 -38.6355
L10.8247 -38.2626
L10.8048 -37.8884
L10.7914 -37.5131
L10.7848 -37.1368
L10.7849 -36.7597
L10.7919 -36.3819
L10.8058 -36.0035
L10.8267 -35.6248
L10.8547 -35.2459
L10.8899 -34.867
L10.9322 -34.4883
L10.9818 -34.11
L11.0388 -33.7323
L11.1031 -33.3554
L11.1749 -32.9795
L11.2541 -32.6049
L11.3408 -32.2317
L11.4351 -31.8603
L11.5369 -31.4908
L11.6462 -31.1236
L11.7632 -30.7588
L11.8876 -30.3967
L12.0196 -30.0377
L12.1591 -29.6818
L12.3061 -29.3296
L12.4606 -28.9811
L12.6224 -28.6366
L12.7915 -28.2966
L12.9679 -27.9611
L13.1514 -27.6305
L13.342 -27.3051
L13.5395 -26.9852
L13.7439 -26.6709
L13.9549 -26.3626
L14.1726 -26.0605
L14.3966 -25.7649
L14.6269 -25.476
L14.8633 -25.194
L15.1056 -24.9192
L15.3536 -24.6518
L15.6071 -24.392
L15.866 -24.1399
L16.1299 -23.8957
L16.3988 -23.6597
L16.6723 -23.432
L16.9502 -23.2126
L17.2323 -23.0018
L17.5184 -22.7996
L17.8083 -22.606
L18.1016 -22.4213
L18.3981 -22.2454
L18.6977 -22.0784
L19 -21.9203
L19.3049 -21.7711
L19.612 -21.6309
L19.9212 -21.4995
L20.2323 -21.3769
L20.5449 -21.2632
L20.8589 -21.1582
L21.174 -21.0619
L21.4901 -20.9741
L21.807 -20.8949
L22.1244 -20.824
L22.4421 -20.7614
L22.76 -20.7069
L23.0779 -20.6604
L23.3956 -20.6218
L23.7129 -20.5909
L24.0298 -20.5675
L24.346 -20.5516
L24.6614 -20.5429
L24.9759 -20.5413
L25.2893 -20.5466
L25.6015 -20.5587
L25.9125 -20.5774
L26.2221 -20.6024
L26.5302 -20.6337
L26.8367 -20.6711
L27.1415 -20.7144
L27.4446 -20.7635
L27.7459 -20.8181
L28.0453 -20.8782
L28.3427 -20.9435
L28.6382 -21.0139
L28.9316 -21.0893
L29.2228 -21.1695
L29.512 -21.2543
L29.7989 -21.3436
L30.0837 -21.4373
L30.3662 -21.5353
L30.6464 -21.6373
L30.9244 -21.7433
L31.2001 -21.8531
L31.4734 -21.9667
L31.7444 -22.0838
L32.013 -22.2045
L32.2793 -22.3285
L32.5433 -22.4558
L32.8049 -22.5863
L33.0641 -22.7199
L33.321 -22.8565
L33.5755 -22.9959
L33.8277 -23.1382
L34.0776 -23.2832
L34.3251 -23.4308
L34.5704 -23.5811
L34.8133 -23.7338
L35.0539 -23.889
L35.2923 -24.0465
L35.5284 -24.2064
L35.7622 -24.3685
L35.9938 -24.5327
L36.2232 -24.6992
L36.4504 -24.8677
L36.6754 -25.0383
L36.8982 -25.2109
L37.1189 -25.3855
L37.3375 -25.562
L37.5539 -25.7403
L37.7682 -25.9206
L37.9804 -26.1026
L38.1906 -26.2865
L38.3987 -26.4721
L38.6048 -26.6595
L38.8089 -26.8486
L39.011 -27.0394
L39.211 -27.2319
L39.4091 -27.4261
L39.6053 -27.6219
L39.7995 -27.8194
L39.9917 -28.0185
L40.182 -28.2192
L40.3704 -28.4215
L40.5569 -28.6255
L40.7415 -28.831
L40.9242 -29.0381
L41.1051 -29.2469
z
" id="C0_1_ae7abcd165"/>
    </defs>
    <g clip-path="url(#p1bffca34e9)">
     <use style="fill:#ff0000;stroke:#000000;stroke-width:2.0;" x="0.0" xlink:href="#C0_0_a811fe30f3" y="72.0"/>
    </g>
    <g clip-path="url(#p1bffca34e9)">
     <use style="fill:#ffffff;stroke:#000000;stroke-width:2.0;" x="0.0" xlink:href="#C0_1_ae7abcd165" y="72.0"/>
    </g>
   </g>
  </g>
 </g>
 <defs>
  <clipPath id="p1bffca34e9">
   <rect height="72.0" width="72.0" x="0.0" y="0.0"/>
  </clipPath>
 </defs>
</svg>
