<?xml version="1.0" encoding="utf-8" standalone="no"?>
<!DOCTYPE svg PUBLIC "-//W3C//DTD SVG 1.1//EN"
  "http://www.w3.org/Graphics/SVG/1.1/DTD/svg11.dtd">
<!-- Created with matplotlib (http://matplotlib.org/) -->
<svg height="72pt" version="1.1" viewBox="0 0 72 72" width="72pt" xmlns="http://www.w3.org/2000/svg" xmlns:xlink="http://www.w3.org/1999/xlink">
 <defs>
  <style type="text/css">
*{stroke-linecap:butt;stroke-linejoin:round;}
  </style>
 </defs>
 <g id="figure_1">
  <g id="patch_1">
   <path d="
M0 72
L72 72
L72 0
L0 0
z
" style="fill:none;"/>
  </g>
  <g id="axes_1">
   <g id="PatchCollection_1">
    <defs>
     <path d="
M36 -7.5
C43.5583 -7.5 50.808 -10.5029 56.1525 -15.8475
C61.4971 -21.192 64.5 -28.4417 64.5 -36
C64.5 -43.5583 61.4971 -50.808 56.1525 -56.1525
C50.808 -61.4971 43.5583 -64.5 36 -64.5
C28.4417 -64.5 21.192 -61.4971 15.8475 -56.1525
C10.5029 -50.808 7.5 -43.5583 7.5 -36
C7.5 -28.4417 10.5029 -21.192 15.8475 -15.8475
C21.192 -10.5029 28.4417 -7.5 36 -7.5
z
" id="C0_0_a811fe30f3"/>
     <path d="
M15.5485 -16.4163
L15.5429 -16.7754
L15.5316 -17.1453
L15.5165 -17.5243
L15.4992 -17.9109
L15.4809 -18.3037
L15.4628 -18.7014
L15.4459 -19.103
L15.4309 -19.5075
L15.4184 -19.9139
L15.4089 -20.3216
L15.4029 -20.7298
L15.4006 -21.138
L15.4022 -21.5456
L15.408 -21.9521
L15.4179 -22.3571
L15.4322 -22.7602
L15.4507 -23.161
L15.4735 -23.5594
L15.5005 -23.9551
L15.5318 -24.3477
L15.5671 -24.7372
L15.6065 -25.1233
L15.6498 -25.506
L15.6969 -25.8851
L15.7477 -26.2604
L15.8021 -26.632
L15.86 -26.9998
L15.9212 -27.3637
L15.9856 -27.7237
L16.0532 -28.0797
L16.1237 -28.4318
L16.1971 -28.7799
L16.2733 -29.1241
L16.3521 -29.4644
L16.4335 -29.8008
L16.5173 -30.1333
L16.6035 -30.462
L16.6919 -30.7869
L16.7825 -31.1081
L16.8751 -31.4256
L16.9698 -31.7395
L17.0664 -32.0498
L17.1648 -32.3566
L17.265 -32.66
L17.3669 -32.9601
L17.4705 -33.2568
L17.5758 -33.5503
L17.6825 -33.8406
L17.7908 -34.1279
L17.9005 -34.4121
L18.0117 -34.6934
L18.1242 -34.9719
L18.2381 -35.2475
L18.3533 -35.5205
L18.4698 -35.7908
L18.5876 -36.0585
L18.7066 -36.3237
L18.8269 -36.5865
L18.9484 -36.847
L19.0711 -37.1052
L19.195 -37.3611
L19.32 -37.615
L19.4463 -37.8668
L19.5737 -38.1165
L19.7023 -38.3644
L19.8321 -38.6104
L19.9631 -38.8546
L20.0953 -39.097
L20.2287 -39.3378
L20.3633 -39.577
L20.4991 -39.8146
L20.6361 -40.0508
L20.7744 -40.2856
L20.914 -40.519
L21.0548 -40.7511
L21.197 -40.9819
L21.3405 -41.2116
L21.4854 -41.4402
L21.6316 -41.6677
L21.9283 -41.8941
L22.0789 -42.1196
L22.231 -42.3442
L22.3846 -42.5679
L22.5398 -42.7908
L22.6966 -43.013
L22.855 -43.2344
L23.0152 -43.4552
L23.177 -43.6753
L23.3407 -43.8949
L23.5062 -44.114
L23.6735 -44.3325
L23.8428 -44.5506
L24.0141 -44.7683
L24.1873 -44.9856
L24.3627 -45.2026
L24.5402 -45.4193
L24.7199 -45.6358
L24.9018 -45.852
L25.086 -46.068
L25.2726 -46.2839
L25.4616 -46.4996
L25.6532 -46.7153
L25.8473 -46.9309
L26.044 -47.1464
L26.2434 -47.3619
L26.4456 -47.5774
L26.6506 -47.7929
L26.8586 -48.0085
L27.0695 -48.2241
L27.2835 -48.4398
L27.5007 -48.6555
L27.721 -48.8713
L27.9447 -49.0873
L28.1717 -49.3033
L28.4022 -49.5194
L28.6362 -49.7356
L28.8739 -49.9519
L29.1152 -50.1682
L29.3603 -50.3846
L29.6092 -50.6011
L29.8621 -50.8176
L30.119 -51.034
L30.38 -51.2505
L30.6451 -51.4669
L30.9144 -51.6832
L31.1881 -51.8993
L31.4661 -52.1153
L31.7485 -52.331
L32.0353 -52.5464
L32.3267 -52.7614
L32.6227 -52.9761
L32.9232 -53.1902
L33.2284 -53.4037
L33.5382 -53.6166
L33.8526 -53.8287
L34.1717 -54.04
L34.4953 -54.2503
L34.8236 -54.4596
L35.1563 -54.6677
L35.4935 -54.8746
L35.835 -55.0801
L36.1808 -55.2841
L36.5306 -55.4865
L36.8842 -55.6872
L37.2416 -55.8861
L37.6023 -56.0831
L37.9661 -56.2781
L38.3327 -56.471
L38.7015 -56.6617
L39.0722 -56.8503
L39.4443 -57.0366
L39.8169 -57.2207
L40.1895 -57.4026
L40.5612 -57.5824
L40.931 -57.7602
L41.2979 -57.9362
L41.6606 -58.1107
L42.0177 -58.284
L42.3675 -58.4567
L42.7083 -58.6291
L43.0381 -58.802
L43.3545 -58.9762
L43.6553 -59.1526
L43.9377 -59.3323
L44.199 -59.5163
L44.4365 -59.706
L44.6474 -59.9026
L44.8291 -60.1073
L44.9797 -60.3212
L45.0972 -60.5452
L45.1806 -60.78
L45.2294 -61.0257
L45.2436 -61.2824
L45.2241 -61.5496
L45.1718 -61.8264
L45.0884 -62.1117
L44.9754 -62.4044
L44.8348 -62.703
L44.3873 -63.0061
L43.9107 -63.2379
L43.4316 -63.3801
L42.9503 -63.514
L42.4669 -63.6395
L41.9815 -63.7566
L41.4943 -63.8652
L41.0054 -63.9654
L40.5149 -64.057
L40.0231 -64.1401
L39.5301 -64.2146
L39.036 -64.2805
L38.541 -64.3378
L38.0452 -64.3865
L37.5488 -64.4265
L37.0519 -64.4579
L36.5546 -64.4806
L36.0573 -64.4946
L35.5599 -64.4999
L35.0626 -64.4966
L34.5656 -64.4846
L34.0691 -64.4639
L33.5731 -64.4345
L33.0779 -64.3965
L32.5836 -64.3498
L32.0903 -64.2945
L31.5982 -64.2306
L31.1074 -64.158
L30.6182 -64.0769
L30.1305 -63.9872
L29.6447 -63.8891
L29.1608 -63.7824
L28.679 -63.6672
L28.1994 -63.5437
L27.7222 -63.4117
L27.2475 -63.2714
L26.7755 -63.1228
L26.3063 -62.9659
L25.84 -62.8008
L25.3768 -62.6275
L24.9169 -62.4461
L24.4603 -62.2567
L24.0073 -62.0593
L23.5579 -61.8539
L23.1123 -61.6407
L22.6706 -61.4196
L22.233 -61.1908
L21.7996 -60.9544
L21.3705 -60.7103
L20.9459 -60.4587
L20.5258 -60.1997
L20.1105 -59.9332
L19.7 -59.6595
L19.2945 -59.3786
L18.894 -59.0906
L18.4988 -58.7955
L18.1089 -58.4935
L17.7245 -58.1847
L17.3456 -57.869
L16.9724 -57.5467
L16.605 -57.2179
L16.2435 -56.8826
L15.888 -56.5409
L15.5386 -56.193
L15.1955 -55.8389
L14.8587 -55.4788
L14.5284 -55.1127
L14.2046 -54.7409
L13.8874 -54.3633
L13.577 -53.9801
L13.2734 -53.5914
L12.9767 -53.1974
L12.6871 -52.7982
L12.4045 -52.3938
L12.1291 -51.9844
L11.861 -51.5702
L11.6003 -51.1512
L11.347 -50.7276
L11.1011 -50.2996
L10.8629 -49.8671
L10.6324 -49.4305
L10.4095 -48.9897
L10.1945 -48.545
L9.9873 -48.0965
L9.78804 -47.6443
L9.59676 -47.1885
L9.41353 -46.7294
L9.2384 -46.2669
L9.07142 -45.8014
L8.91264 -45.3328
L8.76211 -44.8614
L8.61988 -44.3873
L8.48599 -43.9107
L8.36048 -43.4316
L8.24339 -42.9503
L8.13475 -42.4669
L8.03461 -41.9815
L7.94298 -41.4943
L7.8599 -41.0054
L7.78539 -40.5149
L7.71947 -40.0231
L7.66217 -39.5301
L7.6135 -39.036
L7.57348 -38.541
L7.54211 -38.0452
L7.51942 -37.5488
L7.5054 -37.0519
L7.50006 -36.5546
L7.5034 -36.0573
L7.51542 -35.5599
L7.53612 -35.0626
L7.56549 -34.5656
L7.60352 -34.0691
L7.6502 -33.5731
L7.70551 -33.0779
L7.76945 -32.5836
L7.84198 -32.0903
L7.92309 -31.5982
L8.01276 -31.1074
L8.11094 -30.6182
L8.21763 -30.1305
L8.33278 -29.6447
L8.45635 -29.1608
L8.58831 -28.679
L8.72863 -28.1994
L8.87725 -27.7222
L9.03413 -27.2475
L9.19923 -26.7755
L9.37249 -26.3063
L9.55386 -25.84
L9.74329 -25.3768
L9.94072 -24.9169
L10.1461 -24.4603
L10.3593 -24.0073
L10.5804 -23.5579
L10.8092 -23.1123
L11.0456 -22.6706
L11.2897 -22.233
L11.5413 -21.7996
L11.8003 -21.3705
L12.0668 -20.9459
L12.3405 -20.5258
L12.6214 -20.1105
L12.9094 -19.7
L13.2045 -19.2945
L13.5065 -18.894
L13.8153 -18.4988
L14.131 -18.1089
L14.4533 -17.7245
L14.7821 -17.3456
z
" id="C0_1_8d48b993fc"/>
     <path d="
M27.4256 -8.98369
L27.7538 -9.13449
L28.0942 -9.28502
L28.4443 -9.43615
L28.8022 -9.58864
L29.166 -9.74307
L29.5341 -9.89991
L29.9051 -10.0595
L30.2778 -10.2222
L30.6512 -10.3881
L31.0242 -10.5573
L31.3962 -10.7298
L31.7664 -10.9058
L32.1344 -11.0851
L32.4994 -11.2677
L32.8612 -11.4534
L33.2194 -11.6423
L33.5737 -11.834
L33.9238 -12.0286
L34.2694 -12.2258
L34.6105 -12.4256
L34.9469 -12.6277
L35.2785 -12.832
L35.6052 -13.0383
L35.9269 -13.2466
L36.2436 -13.4566
L36.5553 -13.6682
L36.862 -13.8812
L37.1637 -14.0956
L37.4603 -14.3113
L37.7521 -14.528
L38.0389 -14.7457
L38.3209 -14.9643
L38.5981 -15.1837
L38.8705 -15.4038
L39.1383 -15.6244
L39.4015 -15.8457
L39.6602 -16.0673
L39.9144 -16.2894
L40.1643 -16.5118
L40.41 -16.7344
L40.6515 -16.9573
L40.8889 -17.1804
L41.1223 -17.4036
L41.3518 -17.627
L41.5775 -17.8504
L41.7995 -18.0739
L42.0179 -18.2974
L42.2326 -18.521
L42.444 -18.7445
L42.6519 -18.9681
L42.8565 -19.1917
L43.058 -19.4153
L43.2563 -19.6389
L43.4515 -19.8625
L43.6438 -20.0861
L43.8332 -20.3097
L44.0198 -20.5334
L44.2036 -20.7572
L44.3848 -20.981
L44.5633 -21.2049
L44.7394 -21.4289
L44.9129 -21.6531
L45.0841 -21.8774
L45.2529 -22.1019
L45.4195 -22.3267
L45.5838 -22.5517
L45.746 -22.777
L45.9061 -23.0026
L46.0641 -23.2285
L46.2202 -23.4549
L46.3743 -23.6817
L46.5265 -23.9089
L46.6769 -24.1367
L46.8255 -24.365
L46.9723 -24.5939
L47.1174 -24.8235
L47.2608 -25.0537
L47.4027 -25.2847
L47.5429 -25.5165
L47.6816 -25.7491
L47.8187 -25.9825
L47.9544 -26.2169
L48.0886 -26.4523
L48.2214 -26.6887
L48.3528 -26.9262
L48.4828 -27.1649
L48.6115 -27.4047
L48.7389 -27.6458
L48.8649 -27.8882
L48.9897 -28.132
L49.1132 -28.3772
L49.2355 -28.624
L49.3565 -28.8722
L49.4763 -29.1221
L49.5949 -29.3737
L49.7124 -29.627
L49.8286 -29.8822
L49.9436 -30.1392
L50.0575 -30.3981
L50.1702 -30.6591
L50.2817 -30.9222
L50.392 -31.1874
L50.5011 -31.4548
L50.609 -31.7245
L50.7158 -31.9966
L50.8213 -32.2711
L50.9256 -32.5481
L51.0286 -32.8277
L51.1304 -33.11
L51.2309 -33.395
L51.3301 -33.6828
L51.428 -33.9734
L51.5245 -34.267
L51.6196 -34.5636
L51.7132 -34.8633
L51.8054 -35.1661
L51.8961 -35.4722
L51.9852 -35.7815
L52.0728 -36.0943
L52.1586 -36.4104
L52.2428 -36.73
L52.3252 -37.0532
L52.4057 -37.3799
L52.4844 -37.7103
L52.5611 -38.0444
L52.6358 -38.3823
L52.7084 -38.7239
L52.7788 -39.0694
L52.8469 -39.4187
L52.9127 -39.7718
L52.9761 -40.1289
L53.037 -40.4898
L53.0953 -40.8546
L53.1509 -41.2233
L53.2037 -41.5959
L53.2537 -41.9722
L53.3007 -42.3523
L53.3447 -42.7361
L53.3856 -43.1235
L53.4234 -43.5144
L53.4579 -43.9087
L53.4891 -44.3063
L53.5169 -44.7069
L53.5414 -45.1105
L53.5624 -45.5167
L53.5801 -45.9254
L53.5944 -46.3363
L53.6054 -46.7491
L53.6132 -47.1634
L53.618 -47.5788
L53.6198 -47.9949
L53.6191 -48.4112
L53.616 -48.8271
L53.6109 -49.242
L53.6045 -49.6553
L53.5972 -50.0662
L53.5898 -50.4737
L53.5831 -50.877
L53.5782 -51.2749
L53.5763 -51.6663
L53.5787 -52.0498
L53.5871 -52.4241
L53.6034 -52.7874
L53.6294 -53.138
L53.6675 -53.4742
L53.7199 -53.794
L53.789 -54.0955
L53.8771 -54.3768
L53.9863 -54.6361
L54.1185 -54.8719
L54.2748 -55.083
L54.4561 -55.2683
L54.6626 -55.4276
L54.8937 -55.5605
L55.1484 -55.6675
L55.4254 -55.749
L55.7227 -55.8058
L56.0384 -55.8388
L56.756 -55.8491
L57.0937 -55.5304
L57.425 -55.1652
L57.7497 -54.7941
L58.0678 -54.4174
L58.3792 -54.035
L58.6838 -53.6471
L58.9815 -53.2538
L59.2721 -52.8553
L59.5557 -52.4517
L59.8321 -52.043
L60.1013 -51.6295
L60.3631 -51.2112
L60.6174 -50.7882
L60.8643 -50.3608
L61.1036 -49.9289
L61.3353 -49.4929
L61.5592 -49.0527
L61.7754 -48.6086
L61.9837 -48.1606
L62.1841 -47.7089
L62.3765 -47.2536
L62.5609 -46.7949
L62.7372 -46.3329
L62.9053 -45.8678
L63.0653 -45.3997
L63.217 -44.9287
L63.3604 -44.455
L63.4955 -43.9787
L63.6222 -43.5
L63.7405 -43.019
L63.8503 -42.5358
L63.9517 -42.0507
L64.0445 -41.5637
L64.1288 -41.075
L64.2045 -40.5848
L64.2717 -40.0932
L64.3302 -39.6004
L64.3801 -39.1064
L64.4214 -38.6115
L64.454 -38.1158
L64.4779 -37.6195
L64.4931 -37.1226
L64.4997 -36.6254
L64.4976 -36.1281
L64.4868 -35.6307
L64.4674 -35.1334
L64.4392 -34.6363
L64.4024 -34.1397
L64.357 -33.6437
L64.3029 -33.1483
L64.2402 -32.6539
L64.1689 -32.1604
L64.089 -31.6682
L64.0005 -31.1772
L63.9036 -30.6877
L63.7981 -30.1998
L63.6841 -29.7137
L63.5618 -29.2296
L63.431 -28.7474
L63.2919 -28.2675
L63.1444 -27.79
L62.9887 -27.3149
L62.8248 -26.8425
L62.6527 -26.3729
L62.4724 -25.9062
L62.2842 -25.4426
L62.0879 -24.9822
L61.8836 -24.5251
L61.6715 -24.0716
L61.4516 -23.6217
L61.2239 -23.1755
L60.9885 -22.7333
L60.7455 -22.2951
L60.495 -21.8611
L60.237 -21.4313
L59.9716 -21.0061
L59.6989 -20.5854
L59.4191 -20.1693
L59.132 -19.7581
L58.838 -19.3519
L58.5369 -18.9507
L58.229 -18.5547
L57.9144 -18.1641
L57.593 -17.7788
L57.2651 -17.3992
L56.9307 -17.0251
L56.5899 -16.6569
L56.2429 -16.2946
L55.8897 -15.9382
L55.5304 -15.588
L55.1652 -15.244
L54.7941 -14.9063
L54.4174 -14.575
L54.035 -14.2503
L53.6471 -13.9322
L53.2538 -13.6208
L52.8553 -13.3162
L52.4517 -13.0185
L52.043 -12.7279
L51.6295 -12.4443
L51.2112 -12.1679
L50.7882 -11.8987
L50.3608 -11.6369
L49.9289 -11.3826
L49.4929 -11.1357
L49.0527 -10.8964
L48.6086 -10.6647
L48.1606 -10.4408
L47.7089 -10.2246
L47.2536 -10.0163
L46.7949 -9.81592
L46.3329 -9.6235
L45.8678 -9.43912
L45.3997 -9.26283
L44.9287 -9.09469
L44.455 -8.93474
L43.9787 -8.78303
L43.5 -8.63962
L43.019 -8.50454
L42.5358 -8.37783
L42.0507 -8.25954
L41.5637 -8.1497
L41.075 -8.04834
L40.5848 -7.9555
L40.0932 -7.8712
L39.6004 -7.79547
L39.1064 -7.72833
L38.6115 -7.6698
L38.1158 -7.6199
L37.6195 -7.57865
L37.1226 -7.54605
L36.6254 -7.52212
L36.1281 -7.50686
L35.6307 -7.50029
L35.1334 -7.50239
L34.6363 -7.51318
L34.1397 -7.53264
L33.6437 -7.56078
L33.1483 -7.59758
L32.6539 -7.64303
L32.1604 -7.69711
L31.6682 -7.75982
L31.1772 -7.83113
L30.6877 -7.91102
L30.1998 -7.99947
L29.7137 -8.09645
L29.2296 -8.20192
L28.7474 -8.31587
L28.2675 -8.43825
z
" id="C0_2_7b3102fd70"/>
    </defs>
    <g clip-path="url(#p1bffca34e9)">
     <use style="fill:#ffffff;stroke:#000000;stroke-width:2.0;" x="0.0" xlink:href="#C0_0_a811fe30f3" y="72.0"/>
    </g>
    <g clip-path="url(#p1bffca34e9)">
     <use style="fill:#ff0000;stroke:#000000;stroke-width:2.0;" x="0.0" xlink:href="#C0_1_8d48b993fc" y="72.0"/>
    </g>
    <g clip-path="url(#p1bffca34e9)">
     <use style="fill:#ff0000;stroke:#000000;stroke-width:2.0;" x="0.0" xlink:href="#C0_2_7b3102fd70" y="72.0"/>
    </g>
   </g>
  </g>
 </g>
 <defs>
  <clipPath id="p1bffca34e9">
   <rect height="72.0" width="72.0" x="0.0" y="0.0"/>
  </clipPath>
 </defs>
</svg>
