<?xml version="1.0" encoding="utf-8" standalone="no"?>
<!DOCTYPE svg PUBLIC "-//W3C//DTD SVG 1.1//EN"
  "http://www.w3.org/Graphics/SVG/1.1/DTD/svg11.dtd">
<!-- Created with matplotlib (http://matplotlib.org/) -->
<svg height="72pt" version="1.1" viewBox="0 0 72 72" width="72pt" xmlns="http://www.w3.org/2000/svg" xmlns:xlink="http://www.w3.org/1999/xlink">
 <defs>
  <style type="text/css">
*{stroke-linecap:butt;stroke-linejoin:round;}
  </style>
 </defs>
 <g id="figure_1">
  <g id="patch_1">
   <path d="
M0 72
L72 72
L72 0
L0 0
z
" style="fill:none;"/>
  </g>
  <g id="axes_1">
   <g id="PatchCollection_1">
    <defs>
     <path d="
M36 -7.5
C43.5583 -7.5 50.808 -10.5029 56.1525 -15.8475
C61.4971 -21.192 64.5 -28.4417 64.5 -36
C64.5 -43.5583 61.4971 -50.808 56.1525 -56.1525
C50.808 -61.4971 43.5583 -64.5 36 -64.5
C28.4417 -64.5 21.192 -61.4971 15.8475 -56.1525
C10.5029 -50.808 7.5 -43.5583 7.5 -36
C7.5 -28.4417 10.5029 -21.192 15.8475 -15.8475
C21.192 -10.5029 28.4417 -7.5 36 -7.5
z
" id="C0_0_a811fe30f3"/>
     <path d="
M37.0876 -29.3593
L36.8317 -29.3222
L36.5756 -29.2863
L36.3193 -29.2514
L36.0626 -29.2176
L35.8055 -29.185
L35.548 -29.1534
L35.2901 -29.123
L35.0316 -29.0936
L34.7725 -29.0654
L34.5129 -29.0383
L34.2525 -29.0122
L33.9914 -28.9874
L33.7296 -28.9636
L33.4669 -28.941
L33.2034 -28.9195
L32.9389 -28.8992
L32.6734 -28.8801
L32.4069 -28.8622
L32.1394 -28.8455
L31.8707 -28.83
L31.6009 -28.8158
L31.3298 -28.8029
L31.0575 -28.7913
L30.7838 -28.781
L30.5088 -28.772
L30.2324 -28.7645
L29.9546 -28.7584
L29.6753 -28.7537
L29.3944 -28.7505
L29.112 -28.7489
L28.828 -28.7489
L28.5424 -28.7505
L28.2551 -28.7538
L27.9661 -28.7588
L27.6753 -28.7656
L27.3829 -28.7742
L27.0886 -28.7848
L26.7926 -28.7973
L26.4947 -28.8119
L26.1951 -28.8286
L25.8936 -28.8474
L25.5902 -28.8686
L25.2851 -28.8921
L24.9781 -28.918
L24.6693 -28.9465
L24.3587 -28.9776
L24.0464 -29.0114
L23.7323 -29.0481
L23.4166 -29.0878
L23.0992 -29.1306
L22.7802 -29.1765
L22.4597 -29.2258
L22.1378 -29.2786
L21.8145 -29.335
L21.49 -29.3952
L21.1644 -29.4594
L20.8378 -29.5277
L20.5103 -29.6003
L20.1821 -29.6774
L19.8533 -29.7592
L19.5243 -29.8459
L19.1951 -29.9377
L18.866 -30.0349
L18.5373 -30.1377
L18.2092 -30.2463
L17.8821 -30.3612
L17.5562 -30.4824
L17.232 -30.6104
L16.9097 -30.7454
L16.5899 -30.8878
L16.2729 -31.0379
L15.9593 -31.1962
L15.6495 -31.3629
L15.3441 -31.5385
L15.0437 -31.7234
L14.7489 -31.918
L14.4604 -32.1227
L14.1789 -32.338
L13.9051 -32.5642
L13.6398 -32.8019
L13.3838 -33.0514
L13.1378 -33.313
L12.9027 -33.5872
L12.6794 -33.8741
L12.4686 -34.1739
L12.2711 -34.4868
L12.0877 -34.8129
L11.9191 -35.1519
L11.7658 -35.5038
L11.6286 -35.8681
L11.5078 -36.2445
L11.4037 -36.6324
L11.3168 -37.031
L11.247 -37.4397
L11.1945 -37.8574
L11.1592 -38.2834
L11.1409 -38.7166
L11.1395 -39.1559
L11.1546 -39.6004
L11.1859 -40.0489
L11.2329 -40.5006
L11.2952 -40.9543
L11.3722 -41.4092
L11.4635 -41.8643
L11.5685 -42.3188
L11.6867 -42.7719
L11.8174 -43.2228
L11.9602 -43.6708
L12.1144 -44.1154
L12.2795 -44.5559
L12.455 -44.9918
L12.6402 -45.4226
L12.8348 -45.848
L13.0381 -46.2676
L13.2497 -46.6811
L13.469 -47.088
L13.6957 -47.4884
L13.9293 -47.8818
L14.1693 -48.2682
L14.4152 -48.6474
L14.6669 -49.0193
L14.9237 -49.3838
L15.1854 -49.7408
L15.4516 -50.0904
L15.722 -50.4324
L15.9963 -50.7669
L16.2742 -51.0939
L16.5553 -51.4135
L16.8395 -51.7256
L17.1265 -52.0303
L17.416 -52.3278
L17.7078 -52.6179
L18.0018 -52.9009
L18.2976 -53.1769
L18.5952 -53.4458
L18.8944 -53.7079
L19.1949 -53.9632
L19.4968 -54.2118
L19.7997 -54.4538
L20.1037 -54.6894
L20.4085 -54.9186
L20.7142 -55.1415
L21.0205 -55.3583
L21.3274 -55.5691
L21.6348 -55.774
L21.9427 -55.9731
L22.2509 -56.1664
L22.5595 -56.3542
L22.8683 -56.5365
L23.1774 -56.7134
L23.4866 -56.885
L23.796 -57.0514
L24.1056 -57.2128
L24.4152 -57.3691
L24.7249 -57.5205
L25.0347 -57.6671
L25.3445 -57.809
L25.6544 -57.9462
L25.9643 -58.0788
L26.2743 -58.207
L26.5843 -58.3307
L26.8944 -58.45
L27.2045 -58.5651
L27.5147 -58.6759
L27.8251 -58.7825
L28.1355 -58.8851
L28.446 -58.9836
L28.7567 -59.078
L29.0676 -59.1685
L29.3787 -59.2551
L29.69 -59.3378
L30.0016 -59.4166
L30.3134 -59.4917
L30.6256 -59.563
L30.9381 -59.6305
L31.251 -59.6942
L31.5642 -59.7543
L31.878 -59.8107
L32.1922 -59.8634
L32.5069 -59.9124
L32.8222 -59.9577
L33.1381 -59.9994
L33.4546 -60.0375
L33.7718 -60.0719
L34.0897 -60.1026
L34.4083 -60.1296
L34.7277 -60.153
L35.048 -60.1726
L35.3691 -60.1885
L35.691 -60.2006
L36.014 -60.209
L36.3379 -60.2136
L36.6628 -60.2143
L36.9887 -60.2111
L37.3158 -60.204
L37.6439 -60.1929
L37.9732 -60.1778
L38.3036 -60.1586
L38.6353 -60.1353
L38.9682 -60.1078
L39.3024 -60.0761
L39.6379 -60.04
L39.9746 -59.9995
L40.3127 -59.9545
L40.6522 -59.905
L40.993 -59.8508
L41.3352 -59.7919
L41.6787 -59.7282
L42.0237 -59.6595
L42.37 -59.5858
L42.7178 -59.507
L43.0669 -59.423
L43.4174 -59.3336
L43.7692 -59.2387
L44.1223 -59.1383
L44.4767 -59.0321
L44.8324 -58.9201
L45.1893 -58.8022
L45.5473 -58.6781
L45.9065 -58.5478
L46.2666 -58.4112
L46.6277 -58.268
L46.9897 -58.1182
L47.3524 -57.9616
L47.7158 -57.798
L48.0797 -57.6274
L48.444 -57.4495
L48.8086 -57.2643
L49.1732 -57.0715
L49.5377 -56.8711
L49.902 -56.6629
L50.2657 -56.4468
L50.6288 -56.2226
L50.9909 -55.9903
L51.3517 -55.7497
L51.7111 -55.5007
L52.0686 -55.2433
L52.424 -54.9773
L52.7769 -54.7027
L53.127 -54.4195
L53.4738 -54.1275
L53.817 -53.8269
L54.1561 -53.5175
L54.4906 -53.1995
L54.8201 -52.873
L55.1439 -52.5379
L55.4616 -52.1945
L55.7727 -51.8429
L56.0764 -51.4832
L56.3722 -51.1159
L56.6594 -50.7411
L56.9373 -50.3591
L57.2052 -49.9705
L57.4625 -49.5755
L57.7083 -49.1748
L57.9419 -48.7688
L58.1626 -48.3582
L58.3695 -47.9436
L58.5619 -47.5258
L58.7391 -47.1055
L58.9003 -46.6836
L59.0448 -46.2609
L59.1719 -45.8383
L59.2811 -45.4168
L59.3719 -44.9972
L59.4437 -44.5804
L59.4964 -44.1675
L59.5297 -43.7591
L59.5436 -43.3562
L59.538 -42.9594
L59.5131 -42.5694
L59.4694 -42.1868
L59.4071 -41.8121
L59.3269 -41.4456
L59.2295 -41.0877
L59.1154 -40.7385
L58.9856 -40.3981
L58.8409 -40.0666
L58.6821 -39.7441
L58.5101 -39.4303
L58.3258 -39.1251
L58.1301 -38.8286
L57.9237 -38.5403
L57.7077 -38.2603
L57.4827 -37.9881
L57.2494 -37.7237
L57.0087 -37.4668
L56.7612 -37.2171
L56.5075 -36.9746
L56.2483 -36.7388
L55.984 -36.5097
L55.7153 -36.287
L55.4427 -36.0705
L55.1665 -35.86
L54.8872 -35.6553
L54.6052 -35.4563
L54.321 -35.2627
L54.0347 -35.0744
L53.7467 -34.8913
L53.4574 -34.7131
L53.1669 -34.5397
L52.8756 -34.371
L52.5836 -34.2069
L52.2912 -34.0471
L51.9985 -33.8916
L51.7058 -33.7402
L51.4131 -33.5928
L51.1207 -33.4493
L50.8286 -33.3095
L50.5369 -33.1734
L50.2459 -33.0409
L49.9555 -32.9118
L49.6658 -32.786
L49.377 -32.6634
L49.089 -32.544
L48.802 -32.4277
L48.516 -32.3143
L48.2309 -32.2038
L47.947 -32.096
L47.6641 -31.991
L47.3824 -31.8886
L47.1017 -31.7887
L46.8222 -31.6914
L46.5438 -31.5964
L46.2666 -31.5038
L45.9904 -31.4135
L45.7155 -31.3253
L45.4416 -31.2394
L45.1688 -31.1555
L44.8971 -31.0736
L44.6265 -30.9938
L44.3569 -30.9158
L44.0883 -30.8398
L43.8207 -30.7655
L43.5541 -30.6931
L43.2884 -30.6224
L43.0236 -30.5534
L42.7596 -30.486
L42.4965 -30.4203
L42.2342 -30.3561
L41.9726 -30.2935
L41.7117 -30.2323
L41.4515 -30.1727
L41.1919 -30.1145
L40.933 -30.0577
L40.6745 -30.0023
L40.4166 -29.9482
L40.1591 -29.8955
L39.902 -29.8441
L39.6453 -29.794
L39.3889 -29.7451
L39.1327 -29.6975
L38.8768 -29.6511
L38.6211 -29.6059
L38.3655 -29.5619
L38.11 -29.5191
L37.8544 -29.4774
L37.5989 -29.4369
z
" id="C0_1_c7194d992c"/>
    </defs>
    <g clip-path="url(#p1bffca34e9)">
     <use style="fill:#ffffff;stroke:#000000;stroke-width:2.0;" x="0.0" xlink:href="#C0_0_a811fe30f3" y="72.0"/>
    </g>
    <g clip-path="url(#p1bffca34e9)">
     <use style="fill:#ff0000;stroke:#000000;stroke-width:2.0;" x="0.0" xlink:href="#C0_1_c7194d992c" y="72.0"/>
    </g>
   </g>
  </g>
 </g>
 <defs>
  <clipPath id="p1bffca34e9">
   <rect height="72.0" width="72.0" x="0.0" y="0.0"/>
  </clipPath>
 </defs>
</svg>
