<?xml version="1.0" encoding="utf-8" standalone="no"?>
<!DOCTYPE svg PUBLIC "-//W3C//DTD SVG 1.1//EN"
  "http://www.w3.org/Graphics/SVG/1.1/DTD/svg11.dtd">
<!-- Created with matplotlib (http://matplotlib.org/) -->
<svg height="72pt" version="1.1" viewBox="0 0 72 72" width="72pt" xmlns="http://www.w3.org/2000/svg" xmlns:xlink="http://www.w3.org/1999/xlink">
 <defs>
  <style type="text/css">
*{stroke-linecap:butt;stroke-linejoin:round;}
  </style>
 </defs>
 <g id="figure_1">
  <g id="patch_1">
   <path d="
M0 72
L72 72
L72 0
L0 0
z
" style="fill:none;"/>
  </g>
  <g id="axes_1">
   <g id="PatchCollection_1">
    <defs>
     <path d="
M36 -7.5
C43.5583 -7.5 50.808 -10.5029 56.1525 -15.8475
C61.4971 -21.192 64.5 -28.4417 64.5 -36
C64.5 -43.5583 61.4971 -50.808 56.1525 -56.1525
C50.808 -61.4971 43.5583 -64.5 36 -64.5
C28.4417 -64.5 21.192 -61.4971 15.8475 -56.1525
C10.5029 -50.808 7.5 -43.5583 7.5 -36
C7.5 -28.4417 10.5029 -21.192 15.8475 -15.8475
C21.192 -10.5029 28.4417 -7.5 36 -7.5
z
" id="C0_0_a811fe30f3"/>
     <path d="
M56.7847 -55.3299
L56.6329 -55.1647
L56.4839 -54.9945
L56.3376 -54.8196
L56.1939 -54.6401
L56.0526 -54.4564
L55.9135 -54.2688
L55.7766 -54.0774
L55.6415 -53.8826
L55.5084 -53.6846
L55.3769 -53.4836
L55.2471 -53.2797
L55.1187 -53.0733
L54.9917 -52.8644
L54.866 -52.6533
L54.7415 -52.44
L54.6181 -52.2249
L54.4958 -52.0079
L54.3744 -51.7893
L54.2539 -51.5692
L54.1342 -51.3477
L54.0152 -51.1249
L53.897 -50.901
L53.7793 -50.6759
L53.6623 -50.4499
L53.5458 -50.223
L53.4298 -49.9953
L53.3142 -49.7669
L53.199 -49.5377
L53.0842 -49.308
L52.9697 -49.0778
L52.8555 -48.847
L52.7416 -48.6158
L52.6278 -48.3843
L52.5143 -48.1523
L52.401 -47.9201
L52.2878 -47.6876
L52.1748 -47.4548
L52.0618 -47.2218
L51.9489 -46.9886
L51.8361 -46.7553
L51.7232 -46.5217
L51.6104 -46.2881
L51.4976 -46.0543
L51.3848 -45.8203
L51.2719 -45.5863
L51.159 -45.3522
L51.0459 -45.1179
L50.9328 -44.8836
L50.8196 -44.6491
L50.7062 -44.4146
L50.5927 -44.1799
L50.479 -43.9452
L50.3652 -43.7103
L50.2512 -43.4752
L50.1369 -43.2401
L50.0225 -43.0048
L49.9078 -42.7693
L49.7928 -42.5337
L49.6776 -42.2979
L49.5622 -42.0618
L49.4464 -41.8256
L49.3303 -41.5891
L49.214 -41.3524
L49.0973 -41.1154
L48.9802 -40.8782
L48.7451 -40.6406
L48.6269 -40.4027
L48.5084 -40.1645
L48.3895 -39.9259
L48.2702 -39.6869
L48.1505 -39.4475
L48.0303 -39.2076
L47.9097 -38.9674
L47.7887 -38.7266
L47.6672 -38.4854
L47.5452 -38.2436
L47.4227 -38.0013
L47.2998 -37.7585
L47.1764 -37.515
L47.0525 -37.271
L46.928 -37.0263
L46.8031 -36.781
L46.6777 -36.535
L46.5517 -36.2883
L46.4252 -36.0408
L46.2982 -35.7927
L46.1707 -35.5438
L46.0427 -35.2941
L45.9141 -35.0436
L45.7851 -34.7922
L45.6555 -34.5401
L45.5254 -34.287
L45.3948 -34.0331
L45.2637 -33.7783
L45.1322 -33.5226
L45.0001 -33.266
L44.8677 -33.0084
L44.7347 -32.7498
L44.6014 -32.4903
L44.4677 -32.2298
L44.3336 -31.9684
L44.1991 -31.7059
L44.0643 -31.4424
L43.9293 -31.1779
L43.794 -30.9123
L43.6585 -30.6458
L43.5228 -30.3782
L43.387 -30.1095
L43.2512 -29.8399
L43.1153 -29.5692
L42.9795 -29.2975
L42.8438 -29.0248
L42.7083 -28.751
L42.573 -28.4763
L42.438 -28.2006
L42.3035 -27.9239
L42.1695 -27.6462
L42.0361 -27.3676
L41.9034 -27.0881
L41.7715 -26.8077
L41.6405 -26.5264
L41.5107 -26.2443
L41.3819 -25.9614
L41.2545 -25.6777
L41.1286 -25.3932
L41.0043 -25.1081
L40.8818 -24.8223
L40.7611 -24.5359
L40.6426 -24.2489
L40.5264 -23.9613
L40.4127 -23.6733
L40.3016 -23.3849
L40.1934 -23.0961
L40.0882 -22.8071
L39.9864 -22.5178
L39.888 -22.2283
L39.7934 -21.9387
L39.7027 -21.6491
L39.6161 -21.3595
L39.534 -21.0701
L39.4565 -20.7809
L39.3839 -20.4919
L39.3164 -20.2034
L39.2542 -19.9153
L39.1976 -19.6277
L39.1468 -19.3408
L39.102 -19.0547
L39.0634 -18.7694
L39.0312 -18.4851
L39.0056 -18.2019
L38.9869 -17.9199
L38.9751 -17.6391
L38.9705 -17.3598
L38.9732 -17.0821
L38.9833 -16.806
L39.001 -16.5317
L39.0263 -16.2593
L39.0593 -15.989
L39.1002 -15.7208
L39.1489 -15.455
L39.2055 -15.1917
L39.27 -14.9309
L39.3424 -14.6729
L39.4227 -14.4178
L39.5109 -14.1656
L39.6069 -13.9167
L39.7106 -13.671
L39.8221 -13.4287
L39.9411 -13.19
L40.0677 -12.9551
L40.2016 -12.7239
L40.3429 -12.4967
L40.4913 -12.2735
L40.6467 -12.0546
L40.809 -11.84
L40.978 -11.6298
L41.1536 -11.4242
L41.3357 -11.2232
L41.5241 -11.027
L41.7185 -10.8356
L41.919 -10.6492
L42.1252 -10.4678
L42.3372 -10.2916
L42.5546 -10.1206
L42.7773 -9.95487
L43.0052 -9.79453
L43.2382 -9.63962
L43.4761 -9.49024
L43.7187 -9.34643
L43.9659 -9.20825
L44.2175 -9.07578
L44.4735 -8.94906
L44.9582 -8.82815
L45.429 -8.94449
L45.897 -9.10496
L46.3619 -9.27361
L46.8237 -9.45041
L47.2822 -9.63529
L47.7372 -9.82821
L48.1887 -10.0291
L48.6364 -10.2379
L49.0803 -10.4545
L49.5203 -10.679
L49.9561 -10.9111
L50.3876 -11.1509
L50.8148 -11.3982
L51.2374 -11.6531
L51.6554 -11.9153
L52.0687 -12.1849
L52.477 -12.4618
L52.8804 -12.7458
L53.2786 -13.0369
L53.6715 -13.335
L54.059 -13.64
L54.4411 -13.9518
L54.8175 -14.2704
L55.1882 -14.5955
L55.553 -14.9272
L55.9119 -15.2653
L56.2648 -15.6097
L56.6114 -15.9603
L56.9518 -16.317
L57.2858 -16.6797
L57.6133 -17.0483
L57.9342 -17.4227
L58.2485 -17.8028
L58.5559 -18.1883
L58.8565 -18.5793
L59.1502 -18.9756
L59.4368 -19.3771
L59.7162 -19.7837
L59.9884 -20.1952
L60.2533 -20.6115
L60.5109 -21.0325
L60.7609 -21.4581
L61.0034 -21.8881
L61.2383 -22.3223
L61.4655 -22.7608
L61.685 -23.2033
L61.8966 -23.6497
L62.1004 -24.0998
L62.2962 -24.5536
L62.4839 -25.0108
L62.6637 -25.4714
L62.8353 -25.9353
L62.9987 -26.4021
L63.1539 -26.8719
L63.3008 -27.3445
L63.4394 -27.8197
L63.5696 -28.2974
L63.6915 -28.7775
L63.8049 -29.2598
L63.9099 -29.7441
L64.0063 -30.2303
L64.0942 -30.7183
L64.1736 -31.2078
L64.2443 -31.6989
L64.3065 -32.1912
L64.3601 -32.6847
L64.405 -33.1793
L64.4412 -33.6746
L64.4688 -34.1707
L64.4877 -34.6674
L64.498 -35.1644
L64.4996 -35.6617
L64.4924 -36.1592
L64.4766 -36.6565
L64.4522 -37.1537
L64.419 -37.6505
L64.3772 -38.1468
L64.3268 -38.6424
L64.2677 -39.1373
L64.2 -39.6312
L64.1238 -40.124
L64.0389 -40.6155
L63.9456 -41.1056
L63.8437 -41.5942
L63.7333 -42.0811
L63.6145 -42.5661
L63.4873 -43.0491
L63.3517 -43.53
L63.2077 -44.0085
L63.0555 -44.4847
L62.895 -44.9582
L62.7264 -45.429
L62.5496 -45.897
L62.3647 -46.3619
L62.1718 -46.8237
L61.9709 -47.2822
L61.7621 -47.7372
L61.5455 -48.1887
L61.321 -48.6364
L61.0889 -49.0803
L60.8491 -49.5203
L60.6018 -49.9561
L60.3469 -50.3876
L60.0847 -50.8148
L59.8151 -51.2374
L59.5382 -51.6554
L59.2542 -52.0687
L58.9631 -52.477
L58.665 -52.8804
L58.36 -53.2786
L58.0482 -53.6715
L57.7296 -54.059
L57.4045 -54.4411
z
" id="C0_1_50e58eef1d"/>
     <path d="
M27.3584 -62.9995
L27.213 -62.7541
L27.0681 -62.5076
L26.9239 -62.26
L26.7805 -62.0113
L26.6379 -61.7617
L26.4962 -61.5111
L26.3556 -61.2595
L26.2162 -61.0072
L26.0779 -60.754
L25.9408 -60.5001
L25.805 -60.2454
L25.6706 -59.9901
L25.5375 -59.7341
L25.4059 -59.4775
L25.2757 -59.2203
L25.1471 -58.9625
L25.0199 -58.7043
L24.8942 -58.4455
L24.7701 -58.1862
L24.6476 -57.9265
L24.5266 -57.6664
L24.4072 -57.4058
L24.2893 -57.1448
L24.1731 -56.8834
L24.0584 -56.6216
L23.9454 -56.3594
L23.8339 -56.0968
L23.724 -55.8339
L23.6157 -55.5706
L23.5089 -55.3069
L23.4037 -55.0429
L23.3 -54.7785
L23.1979 -54.5137
L23.0974 -54.2485
L22.9983 -53.9829
L22.9008 -53.717
L22.8048 -53.4506
L22.7102 -53.1838
L22.6172 -52.9166
L22.5256 -52.6489
L22.4354 -52.3808
L22.3467 -52.1123
L22.2595 -51.8432
L22.1736 -51.5737
L22.0892 -51.3036
L22.0061 -51.033
L21.9245 -50.7618
L21.8442 -50.4901
L21.7652 -50.2178
L21.6876 -49.9448
L21.6113 -49.6713
L21.5364 -49.397
L21.4628 -49.1221
L21.3905 -48.8465
L21.3194 -48.5701
L21.2497 -48.293
L21.1812 -48.0152
L21.114 -47.7365
L21.0481 -47.457
L20.9834 -47.1767
L20.9199 -46.8955
L20.8577 -46.6133
L20.7967 -46.3303
L20.7369 -46.0463
L20.6783 -45.7614
L20.621 -45.4755
L20.5648 -45.1885
L20.5098 -44.9005
L20.456 -44.6115
L20.4035 -44.3213
L20.352 -44.0301
L20.3018 -43.7377
L20.2527 -43.4442
L20.2048 -43.1495
L20.158 -42.8536
L20.1124 -42.5565
L20.068 -42.2582
L20.0247 -41.9586
L19.9825 -41.6578
L19.9414 -41.3557
L19.9015 -41.0523
L19.8627 -40.7477
L19.8251 -40.4417
L19.7885 -40.1345
L19.753 -39.8259
L19.7186 -39.516
L19.6853 -39.2048
L19.6531 -38.8923
L19.6219 -38.5785
L19.5918 -38.2633
L19.5626 -37.9469
L19.5346 -37.6292
L19.5075 -37.3102
L19.4813 -36.99
L19.4562 -36.6685
L19.432 -36.3458
L19.4087 -36.0219
L19.3862 -35.6969
L19.3646 -35.3708
L19.3439 -35.0436
L19.3239 -34.7154
L19.3046 -34.3862
L19.286 -34.056
L19.2681 -33.725
L19.2508 -33.3932
L19.234 -33.0606
L19.2177 -32.7273
L19.2018 -32.3935
L19.1862 -32.0591
L19.1709 -31.7243
L19.1558 -31.3892
L19.1408 -31.0538
L19.1258 -30.7183
L19.1107 -30.3828
L19.0954 -30.0473
L19.0798 -29.7121
L19.0637 -29.3771
L19.0472 -29.0427
L19.0299 -28.7088
L19.0119 -28.3756
L18.9929 -28.0434
L18.9728 -27.7121
L18.9515 -27.3821
L18.9288 -27.0533
L18.9046 -26.7261
L18.8786 -26.4005
L18.8508 -26.0767
L18.821 -25.7549
L18.7889 -25.4353
L18.7545 -25.1181
L18.7175 -24.8033
L18.6778 -24.4912
L18.6353 -24.182
L18.5897 -23.8758
L18.5409 -23.5728
L18.4888 -23.2732
L18.4331 -22.9771
L18.3739 -22.6847
L18.3109 -22.3962
L18.2441 -22.1117
L18.1732 -21.8314
L18.0983 -21.5554
L18.0193 -21.2839
L17.936 -21.017
L17.8484 -20.7548
L17.7565 -20.4975
L17.6602 -20.2452
L17.5595 -19.998
L17.4545 -19.756
L17.3451 -19.5193
L17.2313 -19.288
L17.1132 -19.0622
L16.9908 -18.8419
L16.8642 -18.6273
L16.7334 -18.4184
L16.5986 -18.2153
L16.4597 -18.0181
L16.3169 -17.8267
L16.1703 -17.6413
L16.02 -17.4618
L15.866 -17.2883
L15.7085 -17.1209
L15.5476 -16.9596
L15.3835 -16.8044
L14.8024 -16.6553
L14.4731 -16.9498
L14.1505 -17.3226
L13.8344 -17.7012
L13.5252 -18.0853
L13.2227 -18.4748
L12.9272 -18.8698
L12.6388 -19.2699
L12.3574 -19.6751
L12.0833 -20.0853
L11.8164 -20.5003
L11.5569 -20.9201
L11.3048 -21.3445
L11.0603 -21.7733
L10.8234 -22.2064
L10.5941 -22.6438
L10.3726 -23.0852
L10.1589 -23.5306
L9.95303 -23.9798
L9.75512 -24.4326
L9.5652 -24.8889
L9.38334 -25.3486
L9.20958 -25.8116
L9.04398 -26.2777
L8.88659 -26.7467
L8.73747 -27.2186
L8.59664 -27.6931
L8.46417 -28.1702
L8.34008 -28.6496
L8.22442 -29.1313
L8.11722 -29.6151
L8.01851 -30.1008
L7.92832 -30.5883
L7.84669 -31.0775
L7.77363 -31.5682
L7.70917 -32.0602
L7.65333 -32.5534
L7.60612 -33.0477
L7.56756 -33.5428
L7.53766 -34.0388
L7.51644 -34.5353
L7.50388 -35.0322
L7.50001 -35.5295
L7.50482 -36.0269
L7.51831 -36.5243
L7.54048 -37.0215
L7.57131 -37.5184
L7.61081 -38.0149
L7.65895 -38.5107
L7.71572 -39.0058
L7.78111 -39.5
L7.8551 -39.9931
L7.93766 -40.4849
L8.02877 -40.9754
L8.1284 -41.4644
L8.23651 -41.9518
L8.35309 -42.4373
L8.47808 -42.9209
L8.61146 -43.4023
L8.75319 -43.8815
L8.90321 -44.3583
L9.06149 -44.8325
L9.22797 -45.3041
L9.4026 -45.7728
L9.58534 -46.2386
L9.77613 -46.7012
L9.9749 -47.1606
L10.1816 -47.6165
L10.3962 -48.069
L10.6185 -48.5177
L10.8486 -48.9627
L11.0864 -49.4037
L11.3317 -49.8406
L11.5846 -50.2733
L11.8449 -50.7016
L12.1125 -51.1255
L12.3875 -51.5448
L12.6696 -51.9593
L12.9588 -52.3689
L13.2551 -52.7736
L13.5583 -53.1732
L13.8683 -53.5675
L14.185 -53.9565
L14.5084 -54.34
L14.8384 -54.718
L15.1748 -55.0902
L15.5175 -55.4566
L15.8665 -55.8171
L16.2216 -56.1715
L16.5827 -56.5199
L16.9498 -56.8619
L17.3226 -57.1976
L17.7012 -57.5269
L18.0853 -57.8495
L18.4748 -58.1656
L18.8698 -58.4748
L19.2699 -58.7773
L19.6751 -59.0728
L20.0853 -59.3612
L20.5003 -59.6426
L20.9201 -59.9167
L21.3445 -60.1836
L21.7733 -60.4431
L22.2064 -60.6952
L22.6438 -60.9397
L23.0852 -61.1766
L23.5306 -61.4059
L23.9798 -61.6274
L24.4326 -61.8411
L24.8889 -62.047
L25.3486 -62.2449
L25.8116 -62.4348
L26.2777 -62.6167
L26.7467 -62.7904
z
" id="C0_2_d0873b444c"/>
    </defs>
    <g clip-path="url(#p1bffca34e9)">
     <use style="fill:#ffffff;stroke:#000000;stroke-width:2.0;" x="0.0" xlink:href="#C0_0_a811fe30f3" y="72.0"/>
    </g>
    <g clip-path="url(#p1bffca34e9)">
     <use style="fill:#ff0000;stroke:#000000;stroke-width:2.0;" x="0.0" xlink:href="#C0_1_50e58eef1d" y="72.0"/>
    </g>
    <g clip-path="url(#p1bffca34e9)">
     <use style="fill:#ff0000;stroke:#000000;stroke-width:2.0;" x="0.0" xlink:href="#C0_2_d0873b444c" y="72.0"/>
    </g>
   </g>
  </g>
 </g>
 <defs>
  <clipPath id="p1bffca34e9">
   <rect height="72.0" width="72.0" x="0.0" y="0.0"/>
  </clipPath>
 </defs>
</svg>
