<?xml version="1.0" encoding="utf-8" standalone="no"?>
<!DOCTYPE svg PUBLIC "-//W3C//DTD SVG 1.1//EN"
  "http://www.w3.org/Graphics/SVG/1.1/DTD/svg11.dtd">
<!-- Created with matplotlib (http://matplotlib.org/) -->
<svg height="72pt" version="1.1" viewBox="0 0 72 72" width="72pt" xmlns="http://www.w3.org/2000/svg" xmlns:xlink="http://www.w3.org/1999/xlink">
 <defs>
  <style type="text/css">
*{stroke-linecap:butt;stroke-linejoin:round;}
  </style>
 </defs>
 <g id="figure_1">
  <g id="patch_1">
   <path d="
M0 72
L72 72
L72 0
L0 0
z
" style="fill:none;"/>
  </g>
  <g id="axes_1">
   <g id="PatchCollection_1">
    <defs>
     <path d="
M36 -7.5
C43.5583 -7.5 50.808 -10.5029 56.1525 -15.8475
C61.4971 -21.192 64.5 -28.4417 64.5 -36
C64.5 -43.5583 61.4971 -50.808 56.1525 -56.1525
C50.808 -61.4971 43.5583 -64.5 36 -64.5
C28.4417 -64.5 21.192 -61.4971 15.8475 -56.1525
C10.5029 -50.808 7.5 -43.5583 7.5 -36
C7.5 -28.4417 10.5029 -21.192 15.8475 -15.8475
C21.192 -10.5029 28.4417 -7.5 36 -7.5
z
" id="C0_0_a811fe30f3"/>
     <path d="
M64.498 -36.3381
L64.3166 -36.3357
L64.134 -36.3328
L63.9502 -36.3293
L63.7651 -36.3253
L63.5787 -36.3208
L63.391 -36.3158
L63.202 -36.3103
L63.0115 -36.3042
L62.8196 -36.2977
L62.6262 -36.2907
L62.4312 -36.2832
L62.2346 -36.2752
L62.0364 -36.2667
L61.8366 -36.2577
L61.635 -36.2482
L61.4316 -36.2382
L61.2264 -36.2277
L61.0193 -36.2167
L60.8102 -36.2052
L60.5992 -36.1932
L60.3862 -36.1806
L60.1711 -36.1675
L59.9538 -36.1539
L59.7344 -36.1397
L59.5127 -36.1249
L59.2887 -36.1096
L59.0623 -36.0937
L58.8336 -36.0771
L58.6023 -36.06
L58.3686 -36.0422
L58.1323 -36.0238
L57.8933 -36.0047
L57.6517 -35.985
L57.4073 -35.9645
L57.1602 -35.9433
L56.9102 -35.9214
L56.6574 -35.8987
L56.4016 -35.8752
L56.1428 -35.8509
L55.8811 -35.8257
L55.6162 -35.7996
L55.3483 -35.7726
L55.0772 -35.7447
L54.803 -35.7157
L54.5256 -35.6858
L54.245 -35.6547
L53.9612 -35.6225
L53.6741 -35.5892
L53.3837 -35.5546
L53.0902 -35.5187
L52.7933 -35.4815
L52.4933 -35.4429
L52.1901 -35.4028
L51.8837 -35.3611
L51.5742 -35.3178
L51.2616 -35.2728
L50.946 -35.2259
L50.6275 -35.1772
L50.3063 -35.1264
L49.9823 -35.0735
L49.6557 -35.0183
L49.3267 -34.9607
L48.9955 -34.9005
L48.6621 -34.8377
L48.3269 -34.7719
L47.9901 -34.7031
L47.6519 -34.6311
L47.3125 -34.5555
L46.9724 -34.4763
L46.6318 -34.3931
L46.2911 -34.3057
L45.9506 -34.2138
L45.6109 -34.1171
L45.2723 -34.0153
L44.9353 -33.9081
L44.6005 -33.795
L44.2683 -33.6758
L43.9393 -33.55
L43.614 -33.4173
L43.2932 -33.2772
L42.9773 -33.1295
L42.6669 -32.9736
L42.3626 -32.8093
L42.065 -32.6362
L41.7747 -32.454
L41.492 -32.2625
L41.2176 -32.0614
L40.9517 -31.8506
L40.6946 -31.63
L40.4468 -31.3998
L40.2082 -31.1599
L39.9791 -30.9105
L39.7594 -30.6519
L39.5491 -30.3844
L39.3481 -30.1084
L39.1562 -29.8244
L38.9731 -29.5328
L38.7985 -29.2343
L38.6322 -28.9294
L38.4739 -28.6187
L38.323 -28.3027
L38.1793 -27.9822
L38.0425 -27.6577
L37.912 -27.3297
L37.7877 -26.9989
L37.6691 -26.6657
L37.5558 -26.3308
L37.4477 -25.9945
L37.3443 -25.6574
L37.2454 -25.3198
L37.1507 -24.9822
L37.06 -24.645
L36.973 -24.3084
L36.8895 -23.9728
L36.8093 -23.6385
L36.7322 -23.3057
L36.6581 -22.9747
L36.5868 -22.6457
L36.518 -22.3188
L36.4518 -21.9943
L36.3879 -21.6723
L36.3262 -21.353
L36.2667 -21.0363
L36.2092 -20.7225
L36.1536 -20.4117
L36.0998 -20.1038
L36.0478 -19.799
L35.9974 -19.4973
L35.9486 -19.1987
L35.9014 -18.9034
L35.8556 -18.6112
L35.8112 -18.3222
L35.7681 -18.0364
L35.7263 -17.7538
L35.6858 -17.4744
L35.6464 -17.1982
L35.6082 -16.9251
L35.571 -16.6551
L35.535 -16.3883
L35.4999 -16.1245
L35.4659 -15.8637
L35.4328 -15.6059
L35.4006 -15.3511
L35.3694 -15.0991
L35.339 -14.8501
L35.3094 -14.6038
L35.2807 -14.3603
L35.2527 -14.1194
L35.2256 -13.8813
L35.1991 -13.6457
L35.1735 -13.4127
L35.1485 -13.1822
L35.1242 -12.9541
L35.1006 -12.7284
L35.0777 -12.5051
L35.0554 -12.284
L35.0338 -12.0652
L35.0128 -11.8485
L34.9924 -11.634
L34.9726 -11.4215
L34.9534 -11.211
L34.9348 -11.0025
L34.9168 -10.7959
L34.8994 -10.5911
L34.8825 -10.3882
L34.8662 -10.187
L34.8504 -9.98759
L34.8352 -9.7898
L34.8205 -9.59362
L34.8064 -9.39902
L34.7928 -9.20594
L34.7798 -9.01435
L34.7673 -8.82419
L34.7554 -8.63543
L34.744 -8.44802
L34.7332 -8.26192
L34.7229 -8.07709
L34.7132 -7.8935
L34.7041 -7.71111
L35.1926 -7.51144
L35.6899 -7.50169
L36.1873 -7.50062
L36.6847 -7.50823
L37.1818 -7.52451
L37.6786 -7.54948
L38.1749 -7.5831
L38.6705 -7.62539
L39.1653 -7.67632
L39.6591 -7.73587
L40.1518 -7.80404
L40.6433 -7.88079
L41.1333 -7.96611
L41.6218 -8.05997
L42.1086 -8.16234
L42.5935 -8.27319
L43.0764 -8.39248
L43.5571 -8.52019
L44.0356 -8.65626
L44.5115 -8.80067
L44.9849 -8.95336
L45.4556 -9.11429
L45.9234 -9.2834
L46.3881 -9.46066
L46.8497 -9.646
L47.308 -9.83937
L47.7629 -10.0407
L48.2141 -10.2499
L48.6617 -10.467
L49.1053 -10.6919
L49.545 -10.9245
L49.9806 -11.1647
L50.4119 -11.4125
L50.8388 -11.6677
L51.2612 -11.9304
L51.679 -12.2004
L52.0919 -12.4777
L52.5 -12.7621
L52.9031 -13.0536
L53.301 -13.3521
L53.6936 -13.6575
L54.0808 -13.9697
L54.4625 -14.2886
L54.8386 -14.6141
L55.209 -14.9462
L55.5735 -15.2846
L55.9321 -15.6294
L56.2846 -15.9803
L56.6309 -16.3374
L56.9709 -16.7005
L57.3045 -17.0694
L57.6316 -17.4441
L57.9522 -17.8244
L58.2661 -18.2103
L58.5731 -18.6016
L58.8733 -18.9982
L59.1666 -19.4
L59.4528 -19.8069
L59.7318 -20.2186
L60.0036 -20.6352
L60.2681 -21.0565
L60.5252 -21.4823
L60.7748 -21.9125
L61.0169 -22.3471
L61.2514 -22.7857
L61.4782 -23.2284
L61.6972 -23.675
L61.9084 -24.1254
L62.1117 -24.5794
L62.307 -25.0368
L62.4943 -25.4976
L62.6736 -25.9616
L62.8447 -26.4287
L63.0077 -26.8986
L63.1624 -27.3714
L63.3089 -27.8467
L63.447 -28.3246
L63.5768 -28.8047
L63.6981 -29.2871
L63.8111 -29.7715
L63.9155 -30.2579
L64.0115 -30.7459
L64.0989 -31.2356
L64.1778 -31.7267
L64.2481 -32.2191
L64.3098 -32.7127
L64.3628 -33.2073
L64.4073 -33.7027
L64.443 -34.1988
L64.4701 -34.6955
L64.4886 -35.1926
L64.4983 -35.6899
z
" id="C0_1_29182d6360"/>
     <path d="
M37.2959 -64.2889
L37.2868 -64.1065
L37.2771 -63.9229
L37.2668 -63.7381
L37.256 -63.552
L37.2446 -63.3646
L37.2327 -63.1758
L37.2202 -62.9857
L37.2072 -62.7941
L37.1936 -62.601
L37.1795 -62.4064
L37.1648 -62.2102
L37.1496 -62.0124
L37.1338 -61.813
L37.1175 -61.6118
L37.1006 -61.4089
L37.0832 -61.2041
L37.0652 -60.9975
L37.0466 -60.789
L37.0274 -60.5785
L37.0076 -60.366
L36.9872 -60.1515
L36.9662 -59.9348
L36.9446 -59.716
L36.9223 -59.4949
L36.8994 -59.2716
L36.8758 -59.0459
L36.8515 -58.8178
L36.8265 -58.5873
L36.8009 -58.3543
L36.7744 -58.1187
L36.7473 -57.8806
L36.7193 -57.6397
L36.6906 -57.3962
L36.661 -57.1499
L36.6306 -56.9009
L36.5994 -56.6489
L36.5672 -56.3941
L36.5341 -56.1363
L36.5001 -55.8755
L36.465 -55.6117
L36.429 -55.3449
L36.3918 -55.0749
L36.3536 -54.8018
L36.3142 -54.5256
L36.2737 -54.2462
L36.2319 -53.9636
L36.1888 -53.6778
L36.1444 -53.3888
L36.0986 -53.0966
L36.0514 -52.8013
L36.0026 -52.5027
L35.9522 -52.201
L35.9002 -51.8962
L35.8464 -51.5883
L35.7908 -51.2775
L35.7333 -50.9637
L35.6738 -50.647
L35.6121 -50.3277
L35.5482 -50.0057
L35.482 -49.6812
L35.4132 -49.3543
L35.3419 -49.0253
L35.2678 -48.6943
L35.1907 -48.3615
L35.1105 -48.0272
L35.027 -47.6916
L34.94 -47.355
L34.8493 -47.0178
L34.7546 -46.6802
L34.6557 -46.3426
L34.5523 -46.0055
L34.4442 -45.6692
L34.3309 -45.3343
L34.2123 -45.0011
L34.088 -44.6703
L33.9575 -44.3423
L33.8207 -44.0178
L33.677 -43.6973
L33.5261 -43.3813
L33.3678 -43.0706
L33.2015 -42.7657
L33.0269 -42.4672
L32.8438 -42.1756
L32.6519 -41.8916
L32.4509 -41.6156
L32.2406 -41.3481
L32.0209 -41.0895
L31.7918 -40.8401
L31.5532 -40.6002
L31.3054 -40.37
L31.0483 -40.1494
L30.7824 -39.9386
L30.508 -39.7375
L30.2253 -39.546
L29.935 -39.3638
L29.6374 -39.1907
L29.3331 -39.0264
L29.0227 -38.8705
L28.7068 -38.7228
L28.386 -38.5827
L28.0607 -38.45
L27.7317 -38.3242
L27.3995 -38.205
L27.0647 -38.0919
L26.7277 -37.9847
L26.3891 -37.8829
L26.0494 -37.7862
L25.7089 -37.6943
L25.3682 -37.6069
L25.0276 -37.5237
L24.6875 -37.4445
L24.3481 -37.3689
L24.0099 -37.2969
L23.6731 -37.2281
L23.3379 -37.1623
L23.0045 -37.0995
L22.6733 -37.0393
L22.3443 -36.9817
L22.0177 -36.9265
L21.6937 -36.8736
L21.3725 -36.8228
L21.054 -36.7741
L20.7384 -36.7272
L20.4258 -36.6822
L20.1163 -36.6389
L19.8099 -36.5972
L19.5067 -36.5571
L19.2067 -36.5185
L18.9098 -36.4813
L18.6163 -36.4454
L18.3259 -36.4108
L18.0388 -36.3775
L17.755 -36.3453
L17.4744 -36.3142
L17.197 -36.2843
L16.9228 -36.2553
L16.6517 -36.2274
L16.3838 -36.2004
L16.1189 -36.1743
L15.8572 -36.1491
L15.5984 -36.1248
L15.3426 -36.1013
L15.0898 -36.0786
L14.8398 -36.0567
L14.5927 -36.0355
L14.3483 -36.015
L14.1067 -35.9953
L13.8677 -35.9762
L13.6314 -35.9578
L13.3977 -35.94
L13.1664 -35.9229
L12.9377 -35.9063
L12.7113 -35.8904
L12.4873 -35.8751
L12.2656 -35.8603
L12.0462 -35.8461
L11.8289 -35.8325
L11.6138 -35.8194
L11.4008 -35.8068
L11.1898 -35.7948
L10.9807 -35.7833
L10.7736 -35.7723
L10.5684 -35.7618
L10.365 -35.7518
L10.1634 -35.7423
L9.96356 -35.7333
L9.76537 -35.7248
L9.56881 -35.7168
L9.37384 -35.7093
L9.18041 -35.7023
L8.98849 -35.6958
L8.79802 -35.6897
L8.60896 -35.6842
L8.42127 -35.6792
L8.23491 -35.6747
L8.04985 -35.6707
L7.86603 -35.6672
L7.50045 -35.6643
L7.50757 -36.1595
L7.52338 -36.6569
L7.54785 -37.1541
L7.581 -37.6509
L7.6228 -38.1472
L7.67325 -38.6428
L7.73232 -39.1377
L7.8 -39.6316
L7.87628 -40.1243
L7.96112 -40.6159
L8.0545 -41.106
L8.1564 -41.5946
L8.26677 -42.0814
L8.3856 -42.5664
L8.51283 -43.0495
L8.64844 -43.5303
L8.79238 -44.0089
L8.94461 -44.485
L9.10508 -44.9586
L9.27374 -45.4294
L9.45054 -45.8973
L9.63543 -46.3623
L9.82836 -46.824
L10.0292 -47.2825
L10.2381 -47.7376
L10.4547 -48.189
L10.6791 -48.6368
L10.9113 -49.0807
L11.1511 -49.5206
L11.3984 -49.9564
L11.6533 -50.3879
L11.9155 -50.8151
L12.1851 -51.2378
L12.462 -51.6558
L12.746 -52.069
L13.0371 -52.4774
L13.3353 -52.8807
L13.6403 -53.2789
L13.9521 -53.6718
L14.2706 -54.0593
L14.5958 -54.4414
L14.9275 -54.8178
L15.2655 -55.1885
L15.61 -55.5533
L15.9606 -55.9122
L16.3173 -56.265
L16.68 -56.6117
L17.0486 -56.9521
L17.423 -57.286
L17.803 -57.6135
L18.1886 -57.9345
L18.5796 -58.2487
L18.9759 -58.5562
L19.3774 -58.8568
L19.784 -59.1504
L20.1955 -59.437
L20.6118 -59.7164
L21.0328 -59.9886
L21.4584 -60.2535
L21.8884 -60.511
L22.3227 -60.7611
L22.7611 -61.0036
L23.2036 -61.2385
L23.65 -61.4657
L24.1002 -61.6852
L24.5539 -61.8968
L25.0112 -62.1005
L25.4718 -62.2963
L25.9356 -62.4841
L26.4025 -62.6638
L26.8723 -62.8354
L27.3449 -62.9988
L27.8201 -63.154
L28.2978 -63.3009
L28.7779 -63.4395
L29.2601 -63.5697
L29.7444 -63.6916
L30.2307 -63.805
L30.7186 -63.9099
L31.2082 -64.0064
L31.6993 -64.0943
L32.1916 -64.1736
L32.6851 -64.2444
L33.1796 -64.3066
L33.675 -64.3601
L34.1711 -64.405
L34.6678 -64.4413
L35.1648 -64.4688
L35.6621 -64.4878
L36.1595 -64.498
L36.6569 -64.4996
z
" id="C0_2_856b0983d1"/>
    </defs>
    <g clip-path="url(#p1bffca34e9)">
     <use style="fill:#ffffff;stroke:#000000;stroke-width:2.0;" x="0.0" xlink:href="#C0_0_a811fe30f3" y="72.0"/>
    </g>
    <g clip-path="url(#p1bffca34e9)">
     <use style="fill:#ff0000;stroke:#000000;stroke-width:2.0;" x="0.0" xlink:href="#C0_1_29182d6360" y="72.0"/>
    </g>
    <g clip-path="url(#p1bffca34e9)">
     <use style="fill:#ff0000;stroke:#000000;stroke-width:2.0;" x="0.0" xlink:href="#C0_2_856b0983d1" y="72.0"/>
    </g>
   </g>
  </g>
 </g>
 <defs>
  <clipPath id="p1bffca34e9">
   <rect height="72.0" width="72.0" x="0.0" y="0.0"/>
  </clipPath>
 </defs>
</svg>
