<?xml version="1.0" encoding="utf-8" standalone="no"?>
<!DOCTYPE svg PUBLIC "-//W3C//DTD SVG 1.1//EN"
  "http://www.w3.org/Graphics/SVG/1.1/DTD/svg11.dtd">
<!-- Created with matplotlib (http://matplotlib.org/) -->
<svg height="72pt" version="1.1" viewBox="0 0 72 72" width="72pt" xmlns="http://www.w3.org/2000/svg" xmlns:xlink="http://www.w3.org/1999/xlink">
 <defs>
  <style type="text/css">
*{stroke-linecap:butt;stroke-linejoin:round;}
  </style>
 </defs>
 <g id="figure_1">
  <g id="patch_1">
   <path d="
M0 72
L72 72
L72 0
L0 0
z
" style="fill:none;"/>
  </g>
  <g id="axes_1">
   <g id="PatchCollection_1">
    <defs>
     <path d="
M36 -7.5
C43.5583 -7.5 50.808 -10.5029 56.1525 -15.8475
C61.4971 -21.192 64.5 -28.4417 64.5 -36
C64.5 -43.5583 61.4971 -50.808 56.1525 -56.1525
C50.808 -61.4971 43.5583 -64.5 36 -64.5
C28.4417 -64.5 21.192 -61.4971 15.8475 -56.1525
C10.5029 -50.808 7.5 -43.5583 7.5 -36
C7.5 -28.4417 10.5029 -21.192 15.8475 -15.8475
C21.192 -10.5029 28.4417 -7.5 36 -7.5
z
" id="C0_0_a811fe30f3"/>
     <path d="
M50.3014 -60.6038
L50.4557 -60.2051
L50.6071 -59.8021
L50.7545 -59.3959
L50.8969 -58.9873
L51.0337 -58.5771
L51.1644 -58.166
L51.2887 -57.7544
L51.4064 -57.343
L51.5174 -56.9321
L51.6216 -56.5222
L51.7191 -56.1137
L51.8098 -55.7068
L51.894 -55.3019
L51.9716 -54.8992
L52.0429 -54.4989
L52.1081 -54.1013
L52.1672 -53.7065
L52.2205 -53.3146
L52.2681 -52.9259
L52.3103 -52.5405
L52.3471 -52.1583
L52.3789 -51.7796
L52.4058 -51.4044
L52.4279 -51.0327
L52.4455 -50.6647
L52.4587 -50.3002
L52.4677 -49.9394
L52.4727 -49.5822
L52.4738 -49.2286
L52.4712 -48.8787
L52.465 -48.5325
L52.4554 -48.1898
L52.4425 -47.8507
L52.4264 -47.5151
L52.4074 -47.183
L52.3854 -46.8544
L52.3606 -46.5292
L52.3331 -46.2073
L52.3031 -45.8887
L52.2706 -45.5733
L52.2357 -45.2611
L52.1985 -44.952
L52.1591 -44.6459
L52.1175 -44.3428
L52.0739 -44.0426
L52.0283 -43.7452
L51.9808 -43.4505
L51.9314 -43.1586
L51.8802 -42.8692
L51.8273 -42.5824
L51.7726 -42.2981
L51.7163 -42.0161
L51.6583 -41.7365
L51.5988 -41.459
L51.5377 -41.1838
L51.4751 -40.9106
L51.411 -40.6394
L51.3455 -40.3702
L51.2785 -40.1029
L51.2102 -39.8373
L51.1404 -39.5735
L51.0692 -39.3113
L50.9967 -39.0507
L50.9228 -38.7916
L50.8476 -38.5339
L50.7711 -38.2777
L50.6932 -38.0227
L50.614 -37.7689
L50.5334 -37.5163
L50.4515 -37.2649
L50.3683 -37.0144
L50.2837 -36.7649
L50.1978 -36.5163
L50.1106 -36.2686
L50.0219 -36.0216
L49.9319 -35.7753
L49.8404 -35.5297
L49.6533 -35.2846
L49.5576 -35.0401
L49.4604 -34.796
L49.3616 -34.5523
L49.2614 -34.309
L49.1596 -34.066
L49.0562 -33.8231
L48.9512 -33.5805
L48.8446 -33.3379
L48.7362 -33.0954
L48.6262 -32.8528
L48.5144 -32.6102
L48.4008 -32.3675
L48.2854 -32.1246
L48.1681 -31.8814
L48.0489 -31.638
L47.9277 -31.3942
L47.8044 -31.15
L47.6791 -30.9054
L47.5517 -30.6603
L47.4221 -30.4146
L47.2903 -30.1684
L47.1561 -29.9215
L47.0197 -29.6738
L46.8807 -29.4255
L46.7393 -29.1763
L46.5954 -28.9264
L46.4488 -28.6755
L46.2996 -28.4237
L46.1475 -28.171
L45.9927 -27.9172
L45.8349 -27.6625
L45.6741 -27.4066
L45.5102 -27.1496
L45.3432 -26.8915
L45.1729 -26.6323
L44.9993 -26.3718
L44.8223 -26.1101
L44.6417 -25.8472
L44.4576 -25.583
L44.2697 -25.3176
L44.078 -25.0508
L43.8825 -24.7828
L43.6829 -24.5135
L43.4793 -24.2429
L43.2714 -23.971
L43.0593 -23.6978
L42.8428 -23.4234
L42.6218 -23.1478
L42.3963 -22.8709
L42.166 -22.5929
L41.931 -22.3138
L41.6912 -22.0336
L41.4463 -21.7524
L41.1965 -21.4702
L40.9415 -21.1872
L40.6814 -20.9034
L40.416 -20.6189
L40.1452 -20.3339
L39.8691 -20.0483
L39.5876 -19.7624
L39.3007 -19.4763
L39.0083 -19.1901
L38.7105 -18.904
L38.4073 -18.6181
L38.0986 -18.3327
L37.7847 -18.0478
L37.4655 -17.7638
L37.1412 -17.4807
L36.8119 -17.1988
L36.478 -16.9184
L36.1395 -16.6396
L35.7969 -16.3626
L35.4506 -16.0877
L35.1009 -15.8151
L34.7486 -15.5449
L34.3944 -15.2775
L34.0392 -15.0128
L33.684 -14.7511
L33.3304 -14.4925
L32.98 -14.2369
L32.6352 -13.9842
L32.2987 -13.7344
L31.9742 -13.487
L31.6663 -13.2415
L31.3808 -12.997
L31.1249 -12.7526
L30.907 -12.5066
L30.7362 -12.2574
L30.6215 -12.0029
L30.5699 -11.7412
L30.5848 -11.4711
L30.6655 -11.1921
L30.8075 -10.905
L31.0039 -10.6115
L31.2469 -10.3139
L31.5291 -10.0146
L31.8442 -9.71617
L32.1868 -9.42047
L32.5524 -9.12929
L32.9376 -8.84405
L33.3394 -8.56589
L33.7557 -8.29578
L34.1845 -8.03448
L34.6242 -7.78261
L35.1208 -7.54071
L35.6181 -7.51356
L36.1155 -7.50256
L36.6129 -7.50023
L37.1101 -7.50659
L37.6069 -7.52163
L38.1033 -7.54534
L38.599 -7.57772
L39.0939 -7.61875
L39.5879 -7.66843
L40.0808 -7.72675
L40.5724 -7.79367
L41.0627 -7.86919
L41.5514 -7.95327
L42.0384 -8.0459
L42.5236 -8.14704
L43.0068 -8.25667
L43.4879 -8.37475
L43.9667 -8.50124
L44.443 -8.63611
L44.9168 -8.77931
L45.3878 -8.93081
L45.8561 -9.09055
L46.3213 -9.25849
L46.7833 -9.43458
L47.2421 -9.61875
L47.6974 -9.81097
L48.1492 -10.0112
L48.5973 -10.2193
L49.0416 -10.4352
L49.4818 -10.659
L49.918 -10.8904
L50.3499 -11.1296
L50.7775 -11.3762
L51.2005 -11.6304
L51.619 -11.892
L52.0326 -12.161
L52.4414 -12.4372
L52.8452 -12.7206
L53.2439 -13.0111
L53.6372 -13.3086
L54.0253 -13.613
L54.4078 -13.9242
L54.7847 -14.2422
L55.1559 -14.5667
L55.5213 -14.8978
L55.8807 -15.2354
L56.2341 -15.5792
L56.5813 -15.9293
L56.9222 -16.2855
L57.2568 -16.6477
L57.5848 -17.0158
L57.9063 -17.3897
L58.2212 -17.7692
L58.5292 -18.1543
L58.8305 -18.5448
L59.1247 -18.9407
L59.4119 -19.3417
L59.692 -19.7478
L59.9648 -20.1589
L60.2304 -20.5748
L60.4886 -20.9954
L60.7393 -21.4206
L60.9825 -21.8502
L61.218 -22.2841
L61.4459 -22.7222
L61.6661 -23.1643
L61.8784 -23.6104
L62.0828 -24.0602
L62.2793 -24.5136
L62.4678 -24.9706
L62.6482 -25.4309
L62.8205 -25.8944
L62.9847 -26.3611
L63.1406 -26.8306
L63.2882 -27.303
L63.4276 -27.778
L63.5586 -28.2555
L63.6811 -28.7353
L63.7953 -29.2174
L63.901 -29.7015
L63.9982 -30.1876
L64.0869 -30.6754
L64.167 -31.1648
L64.2385 -31.6558
L64.3014 -32.148
L64.3557 -32.6414
L64.4014 -33.1359
L64.4384 -33.6312
L64.4668 -34.1272
L64.4864 -34.6238
L64.4974 -35.1208
L64.4998 -35.6181
L64.4934 -36.1155
L64.4784 -36.6129
L64.4547 -37.1101
L64.4223 -37.6069
L64.3812 -38.1033
L64.3316 -38.599
L64.2733 -39.0939
L64.2063 -39.5879
L64.1308 -40.0808
L64.0467 -40.5724
L63.9541 -41.0627
L63.853 -41.5514
L63.7433 -42.0384
L63.6253 -42.5236
L63.4988 -43.0068
L63.3639 -43.4879
L63.2207 -43.9667
L63.0692 -44.443
L62.9094 -44.9168
L62.7415 -45.3878
L62.5654 -45.8561
L62.3812 -46.3213
L62.189 -46.7833
L61.9888 -47.2421
L61.7807 -47.6974
L61.5648 -48.1492
L61.341 -48.5973
L61.1096 -49.0416
L60.8704 -49.4818
L60.6238 -49.918
L60.3696 -50.3499
L60.108 -50.7775
L59.839 -51.2005
L59.5628 -51.619
L59.2794 -52.0326
L58.9889 -52.4414
L58.6914 -52.8452
L58.387 -53.2439
L58.0758 -53.6372
L57.7578 -54.0253
L57.4333 -54.4078
L57.1022 -54.7847
L56.7646 -55.1559
L56.4208 -55.5213
L56.0707 -55.8807
L55.7145 -56.2341
L55.3523 -56.5813
L54.9842 -56.9222
L54.6103 -57.2568
L54.2308 -57.5848
L53.8457 -57.9063
L53.4552 -58.2212
L53.0593 -58.5292
L52.6583 -58.8305
L52.2522 -59.1247
L51.8411 -59.4119
L51.4252 -59.692
L51.0046 -59.9648
z
" id="C0_1_d2baa43483"/>
     <path d="
M36.9132 -64.278
L36.4553 -64.0748
L36.0035 -63.8648
L35.5586 -63.6483
L35.1211 -63.4258
L34.6913 -63.1974
L34.2696 -62.9636
L33.8563 -62.7247
L33.4514 -62.4812
L33.0551 -62.2333
L32.6674 -61.9814
L32.2885 -61.7259
L31.9181 -61.467
L31.5564 -61.2052
L31.2033 -60.9407
L30.8586 -60.6738
L30.5222 -60.4048
L30.1942 -60.1339
L29.8742 -59.8614
L29.5622 -59.5876
L29.2581 -59.3125
L28.9616 -59.0366
L28.6726 -58.7598
L28.391 -58.4825
L28.1166 -58.2047
L27.8491 -57.9266
L27.5886 -57.6484
L27.3347 -57.3701
L27.0873 -57.0919
L26.8462 -56.8139
L26.6113 -56.5361
L26.3824 -56.2587
L26.1593 -55.9817
L25.9419 -55.7051
L25.73 -55.4291
L25.5235 -55.1537
L25.3222 -54.8789
L25.126 -54.6047
L24.9347 -54.3312
L24.7482 -54.0584
L24.5663 -53.7863
L24.3889 -53.5149
L24.2159 -53.2442
L24.0472 -52.9743
L23.8826 -52.705
L23.722 -52.4364
L23.5653 -52.1686
L23.4125 -51.9014
L23.2633 -51.6349
L23.1177 -51.369
L22.9756 -51.1037
L22.8369 -50.8389
L22.7015 -50.5748
L22.5693 -50.3111
L22.4402 -50.0479
L22.3142 -49.7852
L22.1912 -49.5229
L22.0711 -49.2609
L21.9538 -48.9993
L21.8392 -48.738
L21.7274 -48.4769
L21.6181 -48.2159
L21.5115 -47.9552
L21.4074 -47.6945
L21.3057 -47.4339
L21.2064 -47.1732
L21.1095 -46.9125
L21.015 -46.6517
L20.9227 -46.3908
L20.8326 -46.1296
L20.7448 -45.8682
L20.6591 -45.6064
L20.5755 -45.3442
L20.494 -45.0816
L20.4146 -44.8185
L20.3373 -44.5549
L20.262 -44.2906
L20.1886 -44.0256
L20.1173 -43.7599
L20.048 -43.4933
L19.9806 -43.2259
L19.9151 -42.9576
L19.8516 -42.6883
L19.79 -42.4179
L19.7303 -42.1463
L19.6726 -41.8736
L19.6168 -41.5996
L19.5629 -41.3243
L19.511 -41.0475
L19.461 -40.7693
L19.413 -40.4895
L19.367 -40.2082
L19.3229 -39.9251
L19.2808 -39.6403
L19.2408 -39.3536
L19.2029 -39.065
L19.167 -38.7745
L19.1332 -38.4819
L19.1016 -38.1872
L19.0722 -37.8902
L19.045 -37.591
L19.0201 -37.2895
L18.9975 -36.9855
L18.9773 -36.679
L18.9595 -36.3699
L18.9441 -36.0582
L18.9314 -35.7437
L18.9212 -35.4265
L18.9137 -35.1064
L18.909 -34.7833
L18.907 -34.4572
L18.9081 -34.1281
L18.9121 -33.7958
L18.9191 -33.4602
L18.9294 -33.1214
L18.943 -32.7793
L18.9599 -32.4338
L18.9803 -32.0848
L19.0043 -31.7324
L19.0321 -31.3763
L19.0637 -31.0167
L19.0992 -30.6535
L19.1389 -30.2867
L19.1828 -29.9161
L19.231 -29.5419
L19.2838 -29.164
L19.3412 -28.7823
L19.4034 -28.397
L19.4706 -28.008
L19.5429 -27.6154
L19.6204 -27.2191
L19.7034 -26.8193
L19.7919 -26.416
L19.8861 -26.0092
L19.9863 -25.5992
L20.0924 -25.1859
L20.2047 -24.7695
L20.3234 -24.3502
L20.4484 -23.9281
L20.5801 -23.5033
L20.7184 -23.0762
L20.8634 -22.6469
L21.0152 -22.2156
L21.1739 -21.7827
L21.3395 -21.3484
L21.5118 -20.9131
L21.691 -20.477
L21.8767 -20.0407
L22.0689 -19.6045
L22.2671 -19.1689
L22.4711 -18.7344
L22.6803 -18.3015
L22.8939 -17.8709
L23.1111 -17.4432
L23.3305 -17.0193
L23.5508 -16.5999
L23.7697 -16.1861
L23.9847 -15.7791
L24.1923 -15.3802
L24.388 -14.991
L24.5663 -14.6136
L24.7201 -14.2501
L24.8412 -13.9033
L24.9205 -13.5758
L24.9492 -13.2704
L24.9205 -12.9891
L24.8309 -12.7332
L24.6814 -12.5025
L24.4764 -12.296
L24.2231 -12.1121
L23.9291 -11.949
L23.6018 -11.8047
L23.2478 -11.6779
L22.8723 -11.5673
L22.4797 -11.472
L21.5326 -11.3911
L21.1063 -11.4451
L20.6845 -11.7013
L20.2673 -11.9649
L19.855 -12.2359
L19.4475 -12.5141
L19.0452 -12.7994
L18.6479 -13.0918
L18.256 -13.3912
L17.8695 -13.6975
L17.4885 -14.0106
L17.1131 -14.3304
L16.7435 -14.6567
L16.3797 -14.9896
L16.022 -15.3289
L15.6703 -15.6744
L15.3248 -16.0262
L14.9856 -16.3841
L14.6528 -16.7479
L14.3265 -17.1176
L14.0068 -17.493
L13.6938 -17.8741
L13.3876 -18.2607
L13.0883 -18.6527
L12.796 -19.0499
L12.5107 -19.4524
L12.2326 -19.8599
L11.9617 -20.2723
L11.6982 -20.6895
L11.4421 -21.1113
L11.1934 -21.5377
L10.9523 -21.9685
L10.7188 -22.4036
L10.493 -22.8428
L10.275 -23.286
L10.0649 -23.7331
L9.8626 -24.1839
L9.6683 -24.6384
L9.48201 -25.0963
L9.3038 -25.5575
L9.13373 -26.0219
L8.97183 -26.4893
L8.81817 -26.9596
L8.67279 -27.4327
L8.53574 -27.9084
L8.40705 -28.3866
L8.28676 -28.867
L8.17492 -29.3497
L8.07155 -29.8344
L7.97669 -30.3209
L7.89037 -30.8092
L7.81261 -31.2991
L7.74343 -31.7904
L7.68287 -32.283
L7.63092 -32.7767
L7.58762 -33.2714
L7.55298 -33.7669
L7.527 -34.2631
L7.50969 -34.7598
L7.50106 -35.2569
L7.50111 -35.7543
L7.50984 -36.2517
L7.52726 -36.749
L7.55334 -37.2461
L7.58809 -37.7428
L7.63149 -38.239
L7.68354 -38.7346
L7.74421 -39.2292
L7.81349 -39.7229
L7.89135 -40.2155
L7.97778 -40.7068
L8.07274 -41.1966
L8.17621 -41.6849
L8.28815 -42.1714
L8.40854 -42.6561
L8.53733 -43.1387
L8.67448 -43.6192
L8.81996 -44.0973
L8.97372 -44.5729
L9.13571 -45.046
L9.30588 -45.5163
L9.48419 -45.9837
L9.67057 -46.4481
L9.86497 -46.9092
L10.0673 -47.3671
L10.2776 -47.8215
L10.4957 -48.2722
L10.7216 -48.7193
L10.9551 -49.1625
L11.1963 -49.6016
L11.4451 -50.0367
L11.7013 -50.4674
L11.9649 -50.8937
L12.2359 -51.3155
L12.5141 -51.7327
L12.7994 -52.145
L13.0918 -52.5525
L13.3912 -52.9548
L13.6975 -53.3521
L14.0106 -53.744
L14.3304 -54.1305
L14.6567 -54.5115
L14.9896 -54.8869
L15.3289 -55.2565
L15.6744 -55.6203
L16.0262 -55.978
L16.3841 -56.3297
L16.7479 -56.6752
L17.1176 -57.0144
L17.493 -57.3472
L17.8741 -57.6735
L18.2607 -57.9932
L18.6527 -58.3062
L19.0499 -58.6124
L19.4524 -58.9117
L19.8599 -59.204
L20.2723 -59.4893
L20.6895 -59.7674
L21.1113 -60.0383
L21.5377 -60.3018
L21.9685 -60.5579
L22.4036 -60.8066
L22.8428 -61.0477
L23.286 -61.2812
L23.7331 -61.507
L24.1839 -61.725
L24.6384 -61.9351
L25.0963 -62.1374
L25.5575 -62.3317
L26.0219 -62.518
L26.4893 -62.6962
L26.9596 -62.8663
L27.4327 -63.0282
L27.9084 -63.1818
L28.3866 -63.3272
L28.867 -63.4643
L29.3497 -63.593
L29.8344 -63.7132
L30.3209 -63.8251
L30.8092 -63.9284
L31.2991 -64.0233
L31.7904 -64.1096
L32.283 -64.1874
L32.7767 -64.2566
L33.2714 -64.3171
L33.7669 -64.3691
L34.2631 -64.4124
L34.7598 -64.447
L35.2569 -64.473
L35.7543 -64.4903
L36.2517 -64.4989
z
" id="C0_2_8b90ad1187"/>
    </defs>
    <g clip-path="url(#p1bffca34e9)">
     <use style="fill:#ffffff;stroke:#000000;stroke-width:2.0;" x="0.0" xlink:href="#C0_0_a811fe30f3" y="72.0"/>
    </g>
    <g clip-path="url(#p1bffca34e9)">
     <use style="fill:#ff0000;stroke:#000000;stroke-width:2.0;" x="0.0" xlink:href="#C0_1_d2baa43483" y="72.0"/>
    </g>
    <g clip-path="url(#p1bffca34e9)">
     <use style="fill:#ff0000;stroke:#000000;stroke-width:2.0;" x="0.0" xlink:href="#C0_2_8b90ad1187" y="72.0"/>
    </g>
   </g>
  </g>
 </g>
 <defs>
  <clipPath id="p1bffca34e9">
   <rect height="72.0" width="72.0" x="0.0" y="0.0"/>
  </clipPath>
 </defs>
</svg>
