<?xml version="1.0" encoding="utf-8" standalone="no"?>
<!DOCTYPE svg PUBLIC "-//W3C//DTD SVG 1.1//EN"
  "http://www.w3.org/Graphics/SVG/1.1/DTD/svg11.dtd">
<!-- Created with matplotlib (http://matplotlib.org/) -->
<svg height="72pt" version="1.1" viewBox="0 0 72 72" width="72pt" xmlns="http://www.w3.org/2000/svg" xmlns:xlink="http://www.w3.org/1999/xlink">
 <defs>
  <style type="text/css">
*{stroke-linecap:butt;stroke-linejoin:round;}
  </style>
 </defs>
 <g id="figure_1">
  <g id="patch_1">
   <path d="
M0 72
L72 72
L72 0
L0 0
z
" style="fill:none;"/>
  </g>
  <g id="axes_1">
   <g id="PatchCollection_1">
    <defs>
     <path d="
M36 -7.5
C43.5583 -7.5 50.808 -10.5029 56.1525 -15.8475
C61.4971 -21.192 64.5 -28.4417 64.5 -36
C64.5 -43.5583 61.4971 -50.808 56.1525 -56.1525
C50.808 -61.4971 43.5583 -64.5 36 -64.5
C28.4417 -64.5 21.192 -61.4971 15.8475 -56.1525
C10.5029 -50.808 7.5 -43.5583 7.5 -36
C7.5 -28.4417 10.5029 -21.192 15.8475 -15.8475
C21.192 -10.5029 28.4417 -7.5 36 -7.5
z
" id="C0_0_a811fe30f3"/>
     <path d="
M9.22677 -45.4759
L9.42394 -45.4177
L9.62097 -45.3553
L9.81788 -45.289
L10.0147 -45.2188
L10.2113 -45.1449
L10.4079 -45.0674
L10.6044 -44.9864
L10.8007 -44.902
L10.997 -44.8144
L11.1933 -44.7235
L11.3895 -44.6296
L11.5856 -44.5327
L11.7817 -44.4329
L11.9777 -44.3303
L12.1738 -44.225
L12.3698 -44.117
L12.5658 -44.0064
L12.7619 -43.8933
L12.9579 -43.7778
L13.154 -43.6599
L13.3501 -43.5397
L13.5462 -43.4173
L13.7424 -43.2926
L13.9387 -43.1659
L14.135 -43.037
L14.3314 -42.9061
L14.5279 -42.7732
L14.7244 -42.6384
L14.9211 -42.5017
L15.1179 -42.3631
L15.3148 -42.2228
L15.5118 -42.0806
L15.7089 -41.9367
L15.9061 -41.791
L16.1035 -41.6437
L16.3011 -41.4948
L16.4988 -41.3442
L16.6966 -41.192
L16.8946 -41.0382
L17.0927 -40.8829
L17.2911 -40.7261
L17.4896 -40.5678
L17.8871 -40.4079
L18.0861 -40.2466
L18.2853 -40.0839
L18.4847 -39.9197
L18.6843 -39.7542
L18.884 -39.5872
L19.084 -39.4188
L19.2841 -39.249
L19.4845 -39.0779
L19.685 -38.9054
L19.8857 -38.7316
L20.0865 -38.5565
L20.2876 -38.38
L20.4888 -38.2022
L20.6902 -38.0231
L20.8918 -37.8427
L21.0935 -37.6609
L21.2954 -37.4779
L21.4974 -37.2936
L21.6995 -37.1081
L21.9018 -36.9212
L22.1042 -36.7331
L22.3068 -36.5436
L22.5094 -36.353
L22.7121 -36.161
L22.9148 -35.9678
L23.1176 -35.7733
L23.3205 -35.5776
L23.5234 -35.3806
L23.7263 -35.1824
L23.9291 -34.9829
L24.132 -34.7821
L24.3347 -34.5801
L24.5374 -34.3769
L24.74 -34.1724
L24.9425 -33.9666
L25.1448 -33.7596
L25.347 -33.5514
L25.5489 -33.3419
L25.7506 -33.1312
L25.952 -32.9193
L26.1531 -32.7061
L26.3538 -32.4917
L26.5542 -32.2761
L26.7541 -32.0592
L26.9536 -31.8411
L27.1526 -31.6218
L27.3511 -31.4013
L27.5489 -31.1796
L27.7462 -30.9567
L27.9427 -30.7326
L28.1386 -30.5074
L28.3336 -30.2809
L28.5279 -30.0532
L28.7212 -29.8244
L28.9136 -29.5945
L29.1051 -29.3634
L29.2955 -29.1311
L29.4847 -28.8978
L29.6729 -28.6633
L29.8597 -28.4277
L30.0453 -28.1911
L30.2296 -27.9533
L30.4124 -27.7145
L30.5938 -27.4747
L30.7736 -27.2338
L30.9519 -26.9919
L31.1284 -26.7491
L31.3032 -26.5052
L31.4762 -26.2604
L31.6473 -26.0147
L31.8164 -25.7681
L31.9836 -25.5206
L32.1486 -25.2722
L32.3115 -25.023
L32.4721 -24.773
L32.6305 -24.5222
L32.7865 -24.2707
L32.9401 -24.0185
L33.0911 -23.7655
L33.2396 -23.5119
L33.3855 -23.2577
L33.5287 -23.0029
L33.6691 -22.7476
L33.8066 -22.4917
L33.9413 -22.2354
L34.0731 -21.9786
L34.2018 -21.7215
L34.3274 -21.4639
L34.45 -21.2061
L34.5693 -20.948
L34.6854 -20.6897
L34.7983 -20.4312
L34.9077 -20.1725
L35.0138 -19.9138
L35.1165 -19.655
L35.2157 -19.3963
L35.3114 -19.1376
L35.4035 -18.879
L35.492 -18.6205
L35.5769 -18.3623
L35.6581 -18.1043
L35.7356 -17.8467
L35.8094 -17.5894
L35.8794 -17.3325
L35.9456 -17.0761
L36.008 -16.8202
L36.0665 -16.5648
L36.1211 -16.3101
L36.1719 -16.0561
L36.2187 -15.8028
L36.2616 -15.5503
L36.3006 -15.2986
L36.3356 -15.0478
L36.3666 -14.7979
L36.3936 -14.549
L36.4165 -14.3012
L36.4355 -14.0544
L36.4504 -13.8088
L36.4612 -13.5644
L36.468 -13.3212
L36.4707 -13.0793
L36.4693 -12.8387
L36.4638 -12.5995
L36.4542 -12.3617
L36.4405 -12.1254
L36.4226 -11.8907
L36.4006 -11.6574
L36.3744 -11.4259
L36.3441 -11.1959
L36.3096 -10.9677
L36.2709 -10.7412
L36.2279 -10.5165
L36.1808 -10.2936
L36.1294 -10.0726
L36.0738 -9.85348
L36.0138 -9.63635
L35.9496 -9.42122
L35.8811 -9.20814
L35.8082 -8.99714
L35.731 -8.78827
L35.6494 -8.58157
L35.5634 -8.37709
L35.473 -8.17487
L35.3781 -7.97495
L35.2787 -7.77739
L34.7797 -7.58221
L34.2829 -7.52614
L33.7867 -7.55177
L33.2911 -7.58607
L32.7964 -7.62903
L32.3027 -7.68062
L31.81 -7.74085
L31.3187 -7.80968
L30.8288 -7.8871
L30.3404 -7.97308
L29.8538 -8.0676
L29.369 -8.17063
L28.8863 -8.28213
L28.4057 -8.40208
L27.9275 -8.53043
L27.4517 -8.66715
L26.9785 -8.8122
L26.5081 -8.96553
L26.0405 -9.1271
L25.576 -9.29685
L25.1146 -9.47473
L24.6566 -9.6607
L24.202 -9.85468
L23.7511 -10.0566
L23.3038 -10.2665
L22.8604 -10.4842
L22.4211 -10.7096
L21.9858 -10.9428
L21.5549 -11.1836
L21.1283 -11.432
L20.7062 -11.6878
L20.2889 -11.9511
L19.8763 -12.2216
L19.4686 -12.4995
L19.0659 -12.7844
L18.6684 -13.0765
L18.2762 -13.3755
L17.8894 -13.6814
L17.5081 -13.9942
L17.1325 -14.3136
L16.7625 -14.6396
L16.3985 -14.9722
L16.0404 -15.3111
L15.6884 -15.6563
L15.3426 -16.0078
L15.003 -16.3653
L14.6699 -16.7288
L14.3433 -17.0982
L14.0232 -17.4734
L13.7099 -17.8541
L13.4034 -18.2405
L13.1037 -18.6322
L12.811 -19.0292
L12.5254 -19.4314
L12.2469 -19.8386
L11.9756 -20.2507
L11.7117 -20.6677
L11.4552 -21.0893
L11.2061 -21.5155
L10.9646 -21.946
L10.7308 -22.3809
L10.5046 -22.8199
L10.2862 -23.2629
L10.0756 -23.7098
L9.87291 -24.1604
L9.67819 -24.6147
L9.49148 -25.0724
L9.31286 -25.5335
L9.14236 -25.9977
L8.98004 -26.465
L8.82595 -26.9351
L8.68014 -27.4081
L8.54265 -27.8837
L8.41352 -28.3617
L8.2928 -28.842
L8.18052 -29.3246
L8.07671 -29.8092
L7.98141 -30.2956
L7.89464 -30.7838
L7.81644 -31.2736
L7.74681 -31.7648
L7.6858 -32.2573
L7.63341 -32.751
L7.58966 -33.2456
L7.55456 -33.7411
L7.52813 -34.2373
L7.51037 -34.734
L7.50129 -35.2311
L7.50089 -35.7284
L7.50918 -36.2259
L7.52614 -36.7232
L7.55177 -37.2203
L7.58607 -37.7171
L7.62903 -38.2133
L7.68062 -38.7089
L7.74085 -39.2036
L7.80968 -39.6973
L7.8871 -40.19
L7.97308 -40.6813
L8.0676 -41.1712
L8.17063 -41.6596
L8.28213 -42.1462
L8.40208 -42.631
L8.53043 -43.1137
L8.66715 -43.5943
L8.8122 -44.0725
L8.96553 -44.5483
z
" id="C0_1_97faa4f784"/>
     <path d="
M36.8182 -64.3653
L36.9132 -64.1658
L37.0099 -63.9652
L37.1084 -63.7636
L37.2084 -63.5609
L37.3099 -63.3572
L37.4129 -63.1525
L37.5174 -62.9467
L37.6231 -62.7399
L37.7302 -62.5321
L37.8384 -62.3232
L37.9479 -62.1134
L38.0585 -61.9025
L38.1702 -61.6907
L38.2829 -61.4778
L38.3967 -61.2639
L38.5114 -61.0491
L38.627 -60.8333
L38.7435 -60.6165
L38.8609 -60.3987
L38.9791 -60.1799
L39.098 -59.9602
L39.2178 -59.7395
L39.3383 -59.5178
L39.4595 -59.2951
L39.5814 -59.0715
L39.704 -58.8469
L39.8272 -58.6213
L39.9511 -58.3948
L40.0755 -58.1673
L40.2006 -57.9389
L40.3263 -57.7095
L40.4525 -57.4791
L40.5792 -57.2478
L40.7065 -57.0155
L40.8344 -56.7822
L40.9627 -56.548
L41.0916 -56.3129
L41.2209 -56.0767
L41.3507 -55.8397
L41.4811 -55.6017
L41.6119 -55.3627
L41.7431 -55.1228
L41.8749 -54.8819
L42.007 -54.6401
L42.1397 -54.3974
L42.2728 -54.1537
L42.4063 -53.9091
L42.5403 -53.6635
L42.6748 -53.417
L42.8096 -53.1696
L42.945 -52.9213
L43.0807 -52.6721
L43.2169 -52.422
L43.3536 -52.1709
L43.4907 -51.919
L43.6282 -51.6662
L43.7662 -51.4125
L43.9046 -51.158
L44.0435 -50.9026
L44.1829 -50.6463
L44.3227 -50.3892
L44.4629 -50.1314
L44.6037 -49.8727
L44.7449 -49.6132
L44.8865 -49.3529
L45.0287 -49.0919
L45.1713 -48.8301
L45.3144 -48.5677
L45.4581 -48.3045
L45.6022 -48.0406
L45.7468 -47.7761
L45.8919 -47.511
L46.0376 -47.2452
L46.1838 -46.9789
L46.3305 -46.712
L46.4777 -46.4446
L46.6255 -46.1767
L46.7739 -45.9084
L46.9228 -45.6396
L47.0722 -45.3704
L47.2223 -45.1009
L47.3729 -44.8311
L47.5242 -44.5609
L47.676 -44.2906
L47.8284 -44.02
L47.9815 -43.7493
L48.1351 -43.4785
L48.2895 -43.2077
L48.4444 -42.9368
L48.6 -42.666
L48.7563 -42.3952
L48.9132 -42.1246
L49.0708 -41.8542
L49.229 -41.5841
L49.388 -41.3142
L49.5476 -41.0448
L49.708 -40.7758
L49.8691 -40.5072
L50.0308 -40.2392
L50.1933 -39.9718
L50.3566 -39.7051
L50.5205 -39.4392
L50.6852 -39.174
L50.8507 -38.9097
L51.0169 -38.6464
L51.1838 -38.384
L51.3515 -38.1228
L51.5199 -37.8627
L51.6891 -37.6038
L51.8591 -37.3461
L52.0298 -37.0899
L52.2013 -36.835
L52.3735 -36.5817
L52.5465 -36.3299
L52.7202 -36.0797
L52.8947 -35.8312
L53.0699 -35.5845
L53.2458 -35.3397
L53.4225 -35.0967
L53.5999 -34.8557
L53.7779 -34.6167
L53.9567 -34.3799
L54.1362 -34.1452
L54.3163 -33.9127
L54.4971 -33.6825
L54.6785 -33.4546
L54.8605 -33.2292
L55.0432 -33.0062
L55.2264 -32.7858
L55.4102 -32.5679
L55.5946 -32.3527
L55.7795 -32.1402
L55.9649 -31.9304
L56.1508 -31.7233
L56.3372 -31.5192
L56.524 -31.3179
L56.7112 -31.1195
L56.8988 -30.9242
L57.0868 -30.7318
L57.2751 -30.5425
L57.4637 -30.3564
L57.6527 -30.1733
L57.8419 -29.9935
L58.0313 -29.8168
L58.221 -29.6435
L58.4108 -29.4734
L58.6008 -29.3066
L58.7909 -29.1432
L58.9812 -28.9832
L59.1715 -28.8266
L59.3618 -28.6735
L59.5523 -28.5238
L59.7427 -28.3777
L59.9331 -28.2351
L60.1234 -28.096
L60.3137 -27.9606
L60.5039 -27.8288
L60.694 -27.7006
L60.884 -27.5761
L61.0738 -27.4554
L61.2635 -27.3383
L61.453 -27.2251
L61.6423 -27.1156
L61.8313 -27.0099
L62.0201 -26.9081
L62.2087 -26.8102
L62.397 -26.7162
L62.585 -26.6261
L63.0334 -26.54
L63.1868 -26.9754
L63.3319 -27.4486
L63.4687 -27.9244
L63.5971 -28.4026
L63.7171 -28.8832
L63.8287 -29.3659
L63.9318 -29.8506
L64.0263 -30.3372
L64.1124 -30.8256
L64.1898 -31.3155
L64.2587 -31.8068
L64.319 -32.2995
L64.3707 -32.7932
L64.4137 -33.2879
L64.448 -33.7835
L64.4737 -34.2797
L64.4907 -34.7764
L64.4991 -35.2736
L64.4987 -35.7709
L64.4897 -36.2683
L64.472 -36.7657
L64.4456 -37.2628
L64.4106 -37.7595
L64.3669 -38.2556
L64.3146 -38.7511
L64.2536 -39.2458
L64.184 -39.7394
L64.1059 -40.232
L64.0192 -40.7232
L63.9239 -41.213
L63.8202 -41.7012
L63.708 -42.1877
L63.5873 -42.6723
L63.4582 -43.1548
L63.3208 -43.6352
L63.175 -44.1132
L63.021 -44.5888
L62.8587 -45.0618
L62.6883 -45.532
L62.5097 -45.9993
L62.3231 -46.4635
L62.1284 -46.9246
L61.9258 -47.3823
L61.7152 -47.8366
L61.4969 -48.2873
L61.2707 -48.7342
L61.0369 -49.1772
L60.7955 -49.6163
L60.5465 -50.0511
L60.29 -50.4817
L60.0261 -50.9079
L59.7549 -51.3296
L59.4765 -51.7466
L59.1909 -52.1587
L58.8982 -52.566
L58.5986 -52.9682
L58.2921 -53.3653
L57.9788 -53.757
L57.6588 -54.1434
L57.3322 -54.5242
L56.9991 -54.8994
L56.6597 -55.2688
L56.3139 -55.6323
L55.9619 -55.9899
L55.6039 -56.3414
L55.2399 -56.6867
L54.87 -57.0257
L54.4943 -57.3582
L54.1131 -57.6843
L53.7263 -58.0038
L53.3341 -58.3165
L52.9367 -58.6225
L52.5341 -58.9216
L52.1264 -59.2137
L51.7138 -59.4987
L51.2965 -59.7766
L50.8745 -60.0472
L50.4479 -60.3105
L50.017 -60.5664
L49.5818 -60.8148
L49.1424 -61.0556
L48.6991 -61.2889
L48.2519 -61.5144
L47.8009 -61.7321
L47.3464 -61.942
L46.8883 -62.144
L46.427 -62.3381
L45.9625 -62.5241
L45.495 -62.702
L45.0246 -62.8718
L44.5514 -63.0334
L44.0756 -63.1868
L43.5974 -63.3319
L43.1168 -63.4687
L42.6341 -63.5971
L42.1494 -63.7171
L41.6628 -63.8287
L41.1744 -63.9318
L40.6845 -64.0263
L40.1932 -64.1124
L39.7005 -64.1898
L39.2068 -64.2587
L38.7121 -64.319
L38.2165 -64.3707
L37.7203 -64.4137
z
" id="C0_2_20b11d1622"/>
    </defs>
    <g clip-path="url(#p1bffca34e9)">
     <use style="fill:#ffffff;stroke:#000000;stroke-width:2.0;" x="0.0" xlink:href="#C0_0_a811fe30f3" y="72.0"/>
    </g>
    <g clip-path="url(#p1bffca34e9)">
     <use style="fill:#ff0000;stroke:#000000;stroke-width:2.0;" x="0.0" xlink:href="#C0_1_97faa4f784" y="72.0"/>
    </g>
    <g clip-path="url(#p1bffca34e9)">
     <use style="fill:#ff0000;stroke:#000000;stroke-width:2.0;" x="0.0" xlink:href="#C0_2_20b11d1622" y="72.0"/>
    </g>
   </g>
  </g>
 </g>
 <defs>
  <clipPath id="p1bffca34e9">
   <rect height="72.0" width="72.0" x="0.0" y="0.0"/>
  </clipPath>
 </defs>
</svg>
