<?xml version="1.0" encoding="utf-8" standalone="no"?>
<!DOCTYPE svg PUBLIC "-//W3C//DTD SVG 1.1//EN"
  "http://www.w3.org/Graphics/SVG/1.1/DTD/svg11.dtd">
<!-- Created with matplotlib (http://matplotlib.org/) -->
<svg height="72pt" version="1.1" viewBox="0 0 72 72" width="72pt" xmlns="http://www.w3.org/2000/svg" xmlns:xlink="http://www.w3.org/1999/xlink">
 <defs>
  <style type="text/css">
*{stroke-linecap:butt;stroke-linejoin:round;}
  </style>
 </defs>
 <g id="figure_1">
  <g id="patch_1">
   <path d="
M0 72
L72 72
L72 0
L0 0
z
" style="fill:none;"/>
  </g>
  <g id="axes_1">
   <g id="PatchCollection_1">
    <defs>
     <path d="
M36 -7.5
C43.5583 -7.5 50.808 -10.5029 56.1525 -15.8475
C61.4971 -21.192 64.5 -28.4417 64.5 -36
C64.5 -43.5583 61.4971 -50.808 56.1525 -56.1525
C50.808 -61.4971 43.5583 -64.5 36 -64.5
C28.4417 -64.5 21.192 -61.4971 15.8475 -56.1525
C10.5029 -50.808 7.5 -43.5583 7.5 -36
C7.5 -28.4417 10.5029 -21.192 15.8475 -15.8475
C21.192 -10.5029 28.4417 -7.5 36 -7.5
z
" id="C0_0_a811fe30f3"/>
     <path d="
M60.2461 -50.9401
L60.0691 -50.8103
L59.8945 -50.6739
L59.7222 -50.531
L59.5521 -50.3821
L59.3841 -50.2274
L59.218 -50.0671
L59.0539 -49.9015
L58.8916 -49.7309
L58.731 -49.5556
L58.572 -49.3757
L58.4145 -49.1915
L58.2585 -49.0033
L58.1038 -48.8112
L57.9504 -48.6156
L57.7982 -48.4165
L57.647 -48.2143
L57.4969 -48.009
L57.3478 -47.8009
L57.1995 -47.5902
L57.0521 -47.377
L56.9054 -47.1616
L56.7595 -46.9439
L56.6141 -46.7243
L56.4694 -46.5029
L56.3252 -46.2797
L56.1815 -46.0549
L56.0382 -45.8287
L55.8953 -45.6011
L55.7528 -45.3724
L55.6106 -45.1424
L55.4687 -44.9115
L55.327 -44.6796
L55.1855 -44.4469
L55.0443 -44.2134
L54.9032 -43.9793
L54.7622 -43.7445
L54.6213 -43.5092
L54.4805 -43.2734
L54.3397 -43.0372
L54.199 -42.8007
L54.0583 -42.5638
L53.9175 -42.3267
L53.7768 -42.0893
L53.636 -41.8518
L53.4951 -41.6141
L53.3541 -41.3763
L53.2131 -41.1385
L53.0719 -40.9005
L52.9306 -40.6626
L52.7892 -40.4247
L52.6476 -40.1868
L52.5058 -39.9489
L52.3638 -39.7111
L52.2217 -39.4733
L52.0793 -39.2356
L51.9367 -38.998
L51.7938 -38.7605
L51.6508 -38.5231
L51.5074 -38.2858
L51.3638 -38.0486
L51.2199 -37.8115
L51.0757 -37.5745
L50.9311 -37.3376
L50.7863 -37.1009
L50.6411 -36.8642
L50.4956 -36.6276
L50.3498 -36.3911
L50.2035 -36.1547
L50.0569 -35.9183
L49.9099 -35.682
L49.7625 -35.4458
L49.6147 -35.2096
L49.4665 -34.9734
L49.3179 -34.7373
L49.1688 -34.5011
L48.8692 -34.265
L48.7188 -34.0288
L48.5678 -33.7926
L48.4164 -33.5564
L48.2645 -33.3201
L48.1121 -33.0838
L47.9592 -32.8473
L47.8057 -32.6108
L47.6517 -32.3741
L47.4972 -32.1374
L47.3422 -31.9004
L47.1866 -31.6634
L47.0305 -31.4261
L46.8738 -31.1887
L46.7165 -30.951
L46.5587 -30.7132
L46.4004 -30.4751
L46.2414 -30.2367
L46.0819 -29.9981
L45.9219 -29.7593
L45.7613 -29.5201
L45.6001 -29.2806
L45.4384 -29.0409
L45.2761 -28.8008
L45.1133 -28.5604
L44.95 -28.3196
L44.7861 -28.0785
L44.6217 -27.837
L44.4569 -27.5951
L44.2915 -27.3528
L44.1257 -27.1102
L43.9594 -26.8671
L43.7927 -26.6236
L43.6257 -26.3797
L43.4582 -26.1354
L43.2904 -25.8907
L43.1222 -25.6455
L42.9538 -25.3999
L42.7852 -25.1538
L42.6163 -24.9073
L42.4473 -24.6604
L42.2782 -24.413
L42.109 -24.1652
L41.9398 -23.917
L41.7707 -23.6683
L41.6017 -23.4191
L41.4328 -23.1696
L41.2642 -22.9196
L41.0959 -22.6692
L40.9281 -22.4184
L40.7607 -22.1672
L40.5939 -21.9156
L40.4277 -21.6636
L40.2624 -21.4112
L40.0979 -21.1585
L39.9344 -20.9055
L39.772 -20.6521
L39.6108 -20.3984
L39.451 -20.1444
L39.2927 -19.8901
L39.136 -19.6356
L38.981 -19.3808
L38.828 -19.1258
L38.677 -18.8705
L38.5283 -18.6151
L38.3819 -18.3596
L38.2381 -18.1039
L38.0971 -17.8481
L37.9589 -17.5922
L37.8239 -17.3363
L37.6921 -17.0804
L37.5638 -16.8244
L37.4392 -16.5685
L37.3185 -16.3127
L37.2018 -16.057
L37.0893 -15.8014
L36.9814 -15.546
L36.8781 -15.2909
L36.7797 -15.036
L36.6863 -14.7814
L36.5982 -14.5272
L36.5156 -14.2734
L36.4386 -14.02
L36.3675 -13.7672
L36.3024 -13.515
L36.2435 -13.2634
L36.191 -13.0125
L36.1451 -12.7624
L36.1058 -12.5131
L36.0735 -12.2647
L36.0481 -12.0174
L36.0299 -11.7711
L36.0189 -11.526
L36.0154 -11.2821
L36.0193 -11.0396
L36.0308 -10.7985
L36.05 -10.559
L36.077 -10.3212
L36.1118 -10.085
L36.1545 -9.85079
L36.2051 -9.61851
L36.2637 -9.38832
L36.3304 -9.16033
L36.405 -8.93466
L36.4877 -8.71144
L36.5785 -8.49078
L36.6773 -8.27282
L36.7841 -8.05767
L36.899 -7.84545
L37.3998 -7.63631
L37.8964 -7.5344
L38.3924 -7.56316
L38.8877 -7.60059
L39.3821 -7.64667
L39.8754 -7.70139
L40.3676 -7.76472
L40.8585 -7.83666
L41.3478 -7.91717
L41.8356 -8.00624
L42.3216 -8.10384
L42.8056 -8.20993
L43.2876 -8.32449
L43.7673 -8.44748
L44.2447 -8.57886
L44.7196 -8.7186
L45.1918 -8.86664
L45.6612 -9.02295
L46.1277 -9.18748
L46.5911 -9.36017
L47.0512 -9.54098
L47.508 -9.72985
L47.9613 -9.92672
L48.4109 -10.1315
L48.8568 -10.3442
L49.2988 -10.5647
L49.7367 -10.793
L50.1704 -11.0289
L50.5998 -11.2725
L51.0247 -11.5235
L51.4451 -11.7821
L51.8608 -12.048
L52.2716 -12.3212
L52.6775 -12.6016
L53.0783 -12.8891
L53.4739 -13.1837
L53.8641 -13.4853
L54.249 -13.7936
L54.6283 -14.1088
L55.0019 -14.4306
L55.3697 -14.759
L55.7316 -15.0939
L56.0875 -15.4351
L56.4373 -15.7826
L56.7808 -16.1363
L57.118 -16.496
L57.4488 -16.8616
L57.7731 -17.2331
L58.0907 -17.6103
L58.4016 -17.9931
L58.7057 -18.3813
L59.0029 -18.775
L59.293 -19.1739
L59.5761 -19.5779
L59.852 -19.9869
L60.1206 -20.4008
L60.3818 -20.8195
L60.6357 -21.2427
L60.882 -21.6705
L61.1207 -22.1026
L61.3518 -22.539
L61.5752 -22.9795
L61.7908 -23.4239
L61.9985 -23.8722
L62.1984 -24.3241
L62.3902 -24.7797
L62.574 -25.2386
L62.7497 -25.7008
L62.9172 -26.1661
L63.0766 -26.6345
L63.2277 -27.1057
L63.3705 -27.5796
L63.505 -28.0561
L63.6311 -28.535
L63.7487 -29.0161
L63.858 -29.4994
L63.9587 -29.9847
L64.0509 -30.4718
L64.1346 -30.9606
L64.2097 -31.4509
L64.2762 -31.9426
L64.3341 -32.4356
L64.3834 -32.9296
L64.424 -33.4246
L64.456 -33.9203
L64.4793 -34.4167
L64.4939 -34.9136
L64.4999 -35.4108
L64.4971 -35.9081
L64.4857 -36.4055
L64.4656 -36.9028
L64.4368 -37.3998
L64.3994 -37.8964
L64.3533 -38.3924
L64.2986 -38.8877
L64.2353 -39.3821
L64.1633 -39.8754
L64.0828 -40.3676
L63.9938 -40.8585
L63.8962 -41.3478
L63.7901 -41.8356
L63.6755 -42.3216
L63.5525 -42.8056
L63.4211 -43.2876
L63.2814 -43.7673
L63.1334 -44.2447
L62.977 -44.7196
L62.8125 -45.1918
L62.6398 -45.6612
L62.459 -46.1277
L62.2701 -46.5911
L62.0733 -47.0512
L61.8685 -47.508
L61.6558 -47.9613
L61.4353 -48.4109
L61.207 -48.8568
L60.9711 -49.2988
L60.7275 -49.7367
z
" id="C0_1_5d0244e78a"/>
     <path d="
M34.9845 -64.3937
L34.8711 -64.179
L34.7535 -63.9631
L34.6319 -63.7461
L34.5067 -63.528
L34.3779 -63.3088
L34.2459 -63.0885
L34.111 -62.8672
L33.9733 -62.6448
L33.833 -62.4215
L33.6904 -62.1972
L33.5457 -61.9719
L33.399 -61.7458
L33.2506 -61.5187
L33.1005 -61.2908
L32.9491 -61.0621
L32.7963 -60.8325
L32.6425 -60.6021
L32.4877 -60.371
L32.332 -60.1391
L32.1756 -59.9065
L32.0186 -59.6732
L31.8611 -59.4392
L31.7032 -59.2045
L31.5451 -58.9693
L31.3867 -58.7334
L31.2283 -58.4969
L31.0699 -58.2598
L30.9115 -58.0222
L30.7532 -57.7841
L30.5951 -57.5454
L30.4373 -57.3062
L30.2798 -57.0666
L30.1226 -56.8264
L29.9659 -56.5858
L29.8096 -56.3448
L29.6538 -56.1033
L29.4986 -55.8613
L29.3439 -55.619
L29.1898 -55.3762
L29.0364 -55.133
L28.8836 -54.8894
L28.7315 -54.6454
L28.5801 -54.401
L28.4294 -54.1562
L28.2794 -53.911
L28.1302 -53.6654
L27.9817 -53.4194
L27.834 -53.173
L27.6871 -52.9263
L27.541 -52.6791
L27.3956 -52.4315
L27.2511 -52.1835
L27.1074 -51.9351
L26.9644 -51.6862
L26.8223 -51.437
L26.6809 -51.1872
L26.5404 -50.9371
L26.4006 -50.6864
L26.2617 -50.4354
L26.1235 -50.1838
L25.9862 -49.9317
L25.8496 -49.6792
L25.7138 -49.4261
L25.5787 -49.1725
L25.4445 -48.9183
L25.311 -48.6636
L25.1782 -48.4084
L25.0462 -48.1525
L24.915 -47.8961
L24.7844 -47.639
L24.6546 -47.3813
L24.5256 -47.123
L24.3972 -46.864
L24.2695 -46.6044
L24.1425 -46.3441
L24.0162 -46.083
L23.8906 -45.8213
L23.7656 -45.5588
L23.6413 -45.2956
L23.5177 -45.0316
L23.3947 -44.7669
L23.2723 -44.5014
L23.1505 -44.235
L23.0294 -43.9679
L22.9089 -43.7
L22.7889 -43.4312
L22.6696 -43.1615
L22.5508 -42.891
L22.4326 -42.6197
L22.315 -42.3474
L22.1979 -42.0743
L22.0813 -41.8003
L21.9653 -41.5254
L21.8498 -41.2496
L21.7349 -40.9729
L21.6204 -40.6953
L21.5064 -40.4168
L21.3929 -40.1374
L21.2799 -39.8571
L21.1673 -39.5759
L21.0552 -39.2939
L20.9436 -39.0109
L20.8323 -38.7271
L20.7215 -38.4424
L20.6111 -38.1569
L20.5011 -37.8706
L20.3914 -37.5835
L20.2821 -37.2956
L20.1732 -37.0069
L20.0645 -36.7176
L19.9562 -36.4275
L19.8482 -36.1368
L19.7404 -35.8455
L19.6329 -35.5536
L19.5257 -35.2612
L19.4186 -34.9683
L19.3117 -34.675
L19.2049 -34.3814
L19.0983 -34.0874
L18.9917 -33.7932
L18.8852 -33.4988
L18.7787 -33.2043
L18.6722 -32.9098
L18.5657 -32.6154
L18.459 -32.3212
L18.3522 -32.0272
L18.2452 -31.7336
L18.138 -31.4404
L18.0304 -31.1478
L17.9225 -30.8558
L17.8143 -30.5647
L17.7055 -30.2745
L17.5962 -29.9853
L17.4863 -29.6973
L17.3758 -29.4107
L17.2645 -29.1255
L17.1524 -28.8419
L17.0393 -28.5601
L16.9254 -28.2802
L16.8103 -28.0024
L16.6942 -27.7269
L16.5768 -27.4537
L16.4581 -27.1832
L16.338 -26.9154
L16.2164 -26.6506
L16.0933 -26.3889
L15.9685 -26.1304
L15.8419 -25.8755
L15.7135 -25.6242
L15.5831 -25.3768
L15.4508 -25.1334
L15.3163 -24.8942
L15.1797 -24.6595
L15.0408 -24.4293
L14.8996 -24.2039
L14.756 -23.9834
L14.6099 -23.768
L14.4613 -23.5579
L14.3102 -23.3533
L14.1564 -23.1543
L13.9999 -22.9611
L13.8408 -22.7738
L13.679 -22.5926
L13.5144 -22.4176
L13.3471 -22.2489
L13.177 -22.0868
L13.0042 -21.9313
L12.8286 -21.7826
L12.6503 -21.6408
L12.4693 -21.5059
L12.2856 -21.3781
L12.0993 -21.2575
L11.4845 -21.1443
L11.2345 -21.466
L10.9922 -21.896
L10.7574 -22.3304
L10.5303 -22.7689
L10.311 -23.2115
L10.0995 -23.6579
L9.89594 -24.1082
L9.70029 -24.562
L9.51266 -25.0193
L9.33309 -25.48
L9.16165 -25.9439
L8.99838 -26.4108
L8.84334 -26.8806
L8.69657 -27.3533
L8.55812 -27.8285
L8.42802 -28.3063
L8.30633 -28.7864
L8.19307 -29.2687
L8.08828 -29.753
L7.99199 -30.2393
L7.90424 -30.7273
L7.82504 -31.2169
L7.75442 -31.708
L7.69241 -32.2003
L7.63902 -32.6939
L7.59427 -33.1884
L7.55818 -33.6838
L7.53074 -34.1799
L7.51198 -34.6766
L7.5019 -35.1736
L7.5005 -35.6709
L7.50778 -36.1683
L7.52373 -36.6657
L7.54837 -37.1629
L7.58166 -37.6597
L7.62362 -38.156
L7.67422 -38.6516
L7.73344 -39.1464
L7.80128 -39.6403
L7.87771 -40.1331
L7.9627 -40.6246
L8.05624 -41.1147
L8.15828 -41.6032
L8.26881 -42.09
L8.38778 -42.575
L8.51517 -43.058
L8.65092 -43.5388
L8.79501 -44.0174
L8.94738 -44.4934
L9.108 -44.9669
L9.27681 -45.4377
L9.45375 -45.9056
L9.63878 -46.3705
L9.83185 -46.8322
L10.0329 -47.2906
L10.2418 -47.7456
L10.4586 -48.197
L10.6832 -48.6447
L10.9155 -49.0885
L11.1554 -49.5283
L11.4029 -49.9641
L11.6579 -50.3955
L11.9203 -50.8226
L12.19 -51.2452
L12.467 -51.6631
L12.7511 -52.0763
L13.0424 -52.4845
L13.3406 -52.8878
L13.6457 -53.2859
L13.9577 -53.6787
L14.2763 -54.0661
L14.6016 -54.4481
L14.9334 -54.8244
L15.2716 -55.195
L15.6161 -55.5597
L15.9668 -55.9185
L16.3237 -56.2712
L16.6865 -56.6178
L17.0552 -56.958
L17.4297 -57.2919
L17.8098 -57.6193
L18.1955 -57.9401
L18.5866 -58.2542
L18.983 -58.5616
L19.3846 -58.862
L19.7913 -59.1555
L20.2028 -59.442
L20.6192 -59.7213
L21.0403 -59.9934
L21.466 -60.2582
L21.896 -60.5155
L22.3304 -60.7655
L22.7689 -61.0078
L23.2115 -61.2426
L23.6579 -61.4697
L24.1082 -61.689
L24.562 -61.9005
L25.0193 -62.1041
L25.48 -62.2997
L25.9439 -62.4873
L26.4108 -62.6669
L26.8806 -62.8384
L27.3533 -63.0016
L27.8285 -63.1567
L28.3063 -63.3034
L28.7864 -63.4419
L29.2687 -63.572
L29.753 -63.6937
L30.2393 -63.8069
L30.7273 -63.9117
L31.2169 -64.008
L31.708 -64.0958
L32.2003 -64.175
L32.6939 -64.2456
L33.1884 -64.3076
L33.6838 -64.361
L34.1799 -64.4057
z
" id="C0_2_81100a7faa"/>
    </defs>
    <g clip-path="url(#p1bffca34e9)">
     <use style="fill:#ff0000;stroke:#000000;stroke-width:2.0;" x="0.0" xlink:href="#C0_0_a811fe30f3" y="72.0"/>
    </g>
    <g clip-path="url(#p1bffca34e9)">
     <use style="fill:#ffffff;stroke:#000000;stroke-width:2.0;" x="0.0" xlink:href="#C0_1_5d0244e78a" y="72.0"/>
    </g>
    <g clip-path="url(#p1bffca34e9)">
     <use style="fill:#ffffff;stroke:#000000;stroke-width:2.0;" x="0.0" xlink:href="#C0_2_81100a7faa" y="72.0"/>
    </g>
   </g>
  </g>
 </g>
 <defs>
  <clipPath id="p1bffca34e9">
   <rect height="72.0" width="72.0" x="0.0" y="0.0"/>
  </clipPath>
 </defs>
</svg>
