<?xml version="1.0" encoding="utf-8" standalone="no"?>
<!DOCTYPE svg PUBLIC "-//W3C//DTD SVG 1.1//EN"
  "http://www.w3.org/Graphics/SVG/1.1/DTD/svg11.dtd">
<!-- Created with matplotlib (http://matplotlib.org/) -->
<svg height="72pt" version="1.1" viewBox="0 0 72 72" width="72pt" xmlns="http://www.w3.org/2000/svg" xmlns:xlink="http://www.w3.org/1999/xlink">
 <defs>
  <style type="text/css">
*{stroke-linecap:butt;stroke-linejoin:round;}
  </style>
 </defs>
 <g id="figure_1">
  <g id="patch_1">
   <path d="
M0 72
L72 72
L72 0
L0 0
z
" style="fill:none;"/>
  </g>
  <g id="axes_1">
   <g id="PatchCollection_1">
    <defs>
     <path d="
M36 -7.5
C43.5583 -7.5 50.808 -10.5029 56.1525 -15.8475
C61.4971 -21.192 64.5 -28.4417 64.5 -36
C64.5 -43.5583 61.4971 -50.808 56.1525 -56.1525
C50.808 -61.4971 43.5583 -64.5 36 -64.5
C28.4417 -64.5 21.192 -61.4971 15.8475 -56.1525
C10.5029 -50.808 7.5 -43.5583 7.5 -36
C7.5 -28.4417 10.5029 -21.192 15.8475 -15.8475
C21.192 -10.5029 28.4417 -7.5 36 -7.5
z
" id="C0_0_a811fe30f3"/>
     <path d="
M60.071 -20.741
L59.915 -20.8393
L59.7576 -20.9376
L59.5987 -21.0358
L59.4382 -21.134
L59.2762 -21.2322
L59.1127 -21.3305
L58.9475 -21.4288
L58.7808 -21.5271
L58.6124 -21.6256
L58.4424 -21.7242
L58.2707 -21.823
L58.0972 -21.9219
L57.922 -22.021
L57.7451 -22.1203
L57.5663 -22.2199
L57.3857 -22.3197
L57.2032 -22.4198
L57.0188 -22.5201
L56.8324 -22.6208
L56.6441 -22.7218
L56.4538 -22.8231
L56.2613 -22.9247
L56.0668 -23.0268
L55.8702 -23.1292
L55.6714 -23.2319
L55.4703 -23.3351
L55.267 -23.4387
L55.0614 -23.5426
L54.8535 -23.647
L54.6432 -23.7518
L54.4305 -23.8571
L54.2153 -23.9627
L53.9976 -24.0688
L53.7773 -24.1753
L53.5545 -24.2821
L53.3291 -24.3894
L53.1009 -24.4971
L52.8701 -24.6052
L52.6366 -24.7136
L52.4003 -24.8224
L52.1611 -24.9314
L51.9192 -25.0408
L51.6743 -25.1505
L51.4266 -25.2603
L51.1759 -25.3704
L50.9223 -25.4806
L50.6657 -25.5909
L50.4061 -25.7012
L50.1435 -25.8115
L49.8779 -25.9217
L49.6092 -26.0318
L49.3376 -26.1416
L49.0628 -26.251
L48.7851 -26.3601
L48.5043 -26.4686
L48.2206 -26.5764
L47.9338 -26.6835
L47.6441 -26.7897
L47.3514 -26.8948
L47.0559 -26.9987
L46.7575 -27.1012
L46.4564 -27.2021
L46.1525 -27.3013
L45.846 -27.3985
L45.5369 -27.4936
L45.2252 -27.5862
L44.9112 -27.6762
L44.5949 -27.7633
L44.2764 -27.8472
L43.9558 -27.9276
L43.6333 -28.0042
L43.3089 -28.0768
L42.9829 -28.145
L42.6554 -28.2085
L42.3265 -28.2669
L41.9964 -28.3199
L41.6653 -28.3671
L41.3334 -28.4083
L41.0008 -28.4431
L40.6677 -28.4711
L40.3343 -28.4921
L40.0009 -28.5057
L39.6675 -28.5116
L39.3345 -28.5096
L39.0019 -28.4995
L38.67 -28.481
L38.339 -28.4539
L38.009 -28.4183
L37.6803 -28.3739
L37.3529 -28.3207
L37.0271 -28.2588
L36.7029 -28.1882
L36.3806 -28.1089
L36.0603 -28.0212
L35.7421 -27.9251
L35.4261 -27.821
L35.1124 -27.7091
L34.8011 -27.5896
L34.4924 -27.4629
L34.1863 -27.3293
L33.8828 -27.1891
L33.5822 -27.0428
L33.2843 -26.8906
L32.9893 -26.733
L32.6972 -26.5704
L32.408 -26.4031
L32.1219 -26.2316
L31.8388 -26.0561
L31.5588 -25.877
L31.2819 -25.6948
L31.0081 -25.5096
L30.7374 -25.322
L30.4699 -25.132
L30.2055 -24.9401
L29.9443 -24.7466
L29.6863 -24.5516
L29.4315 -24.3555
L29.1798 -24.1584
L28.9312 -23.9606
L28.6859 -23.7623
L28.4436 -23.5637
L28.2045 -23.3649
L27.9685 -23.1661
L27.7356 -22.9675
L27.5058 -22.7692
L27.279 -22.5713
L27.0553 -22.3739
L26.8345 -22.1771
L26.6167 -21.9811
L26.4018 -21.7858
L26.1899 -21.5915
L25.9808 -21.3981
L25.7745 -21.2057
L25.5711 -21.0143
L25.3704 -20.8241
L25.1724 -20.635
L24.9771 -20.4471
L24.7845 -20.2604
L24.5945 -20.0749
L24.407 -19.8907
L24.2221 -19.7077
L24.0397 -19.526
L23.8597 -19.3455
L23.6821 -19.1664
L23.5069 -18.9885
L23.334 -18.8119
L23.1634 -18.6366
L22.9951 -18.4625
L22.8289 -18.2897
L22.665 -18.1181
L22.5031 -17.9477
L22.3434 -17.7785
L22.1857 -17.6106
L22.0301 -17.4438
L21.8764 -17.2781
L21.7246 -17.1136
L21.5748 -16.9501
L21.4269 -16.7878
L21.2808 -16.6265
L21.1365 -16.4662
L20.9941 -16.307
L20.8533 -16.1487
L20.7143 -15.9913
L20.577 -15.8349
L20.4414 -15.6794
L20.3074 -15.5247
L20.175 -15.3709
L20.0443 -15.2179
L19.9151 -15.0657
L19.7875 -14.9142
L19.6613 -14.7634
L19.5368 -14.6133
L19.4137 -14.4639
L19.2921 -14.3151
L19.1719 -14.1669
L19.0532 -14.0192
L18.936 -13.8721
L18.8202 -13.7255
L18.7058 -13.5793
L18.9894 -13.1332
L19.3911 -12.8398
L19.7978 -12.5535
L20.2094 -12.2743
L20.6259 -12.0023
L21.0471 -11.7377
L21.4728 -11.4804
L21.9029 -11.2306
L22.3374 -10.9884
L22.776 -10.7537
L23.2186 -10.5268
L23.6651 -10.3076
L24.1154 -10.0962
L24.5693 -9.89275
L25.0266 -9.69724
L25.4874 -9.50973
L25.9513 -9.33029
L26.4183 -9.15898
L26.8882 -8.99585
L27.3608 -8.84094
L27.8361 -8.6943
L28.3139 -8.55598
L28.7941 -8.42602
L29.2764 -8.30446
L29.7608 -8.19133
L30.2471 -8.08668
L30.7351 -7.99053
L31.2247 -7.90291
L31.7158 -7.82384
L32.2082 -7.75337
L32.7018 -7.69149
L33.1963 -7.63824
L33.6917 -7.59363
L34.1878 -7.55767
L34.6845 -7.53038
L35.1816 -7.51175
L35.6789 -7.50181
L36.1763 -7.50055
L36.6736 -7.50796
L37.1708 -7.52406
L37.6676 -7.54883
L38.1639 -7.58226
L38.6595 -7.62436
L39.1543 -7.67509
L39.6482 -7.73446
L40.1409 -7.80243
L40.6324 -7.879
L41.1225 -7.96413
L41.611 -8.0578
L42.0978 -8.15998
L42.5827 -8.27064
L43.0657 -8.38975
L43.5465 -8.51726
L44.025 -8.65315
L44.501 -8.79737
L44.9745 -8.94988
L45.4452 -9.11063
L45.913 -9.27956
L46.3779 -9.45664
L46.8395 -9.6418
L47.2979 -9.83499
L47.7528 -10.0362
L48.2042 -10.2452
L48.6518 -10.4621
L49.0955 -10.6868
L49.5353 -10.9192
L49.971 -11.1593
L50.4024 -11.4069
L50.8294 -11.662
L51.2519 -11.9245
L51.6698 -12.1944
L52.0828 -12.4715
L52.491 -12.7557
L52.8942 -13.0471
L53.2922 -13.3454
L53.6849 -13.6507
L54.0723 -13.9627
L54.4541 -14.2815
L54.8304 -14.6068
L55.2009 -14.9387
L55.5655 -15.277
L55.9242 -15.6217
L56.2768 -15.9725
L56.6232 -16.3294
L56.9634 -16.6923
L57.2972 -17.0611
L57.6245 -17.4357
L57.9452 -17.8159
L58.2592 -18.2017
L58.5664 -18.5929
L58.8668 -18.9894
L59.1602 -19.3911
L59.4465 -19.7978
L59.7257 -20.2094
z
" id="C0_1_263003fc4a"/>
     <path d="
M53.2942 -58.4207
L53.1798 -58.2745
L53.064 -58.1279
L52.9468 -57.9808
L52.8281 -57.8331
L52.7079 -57.6849
L52.5863 -57.5361
L52.4632 -57.3867
L52.3387 -57.2366
L52.2125 -57.0858
L52.0849 -56.9343
L51.9557 -56.7821
L51.825 -56.6291
L51.6926 -56.4753
L51.5586 -56.3206
L51.423 -56.1651
L51.2857 -56.0087
L51.1467 -55.8513
L51.0059 -55.693
L50.8635 -55.5338
L50.7192 -55.3735
L50.5731 -55.2122
L50.4252 -55.0499
L50.2754 -54.8864
L50.1236 -54.7219
L49.9699 -54.5562
L49.8143 -54.3894
L49.6566 -54.2215
L49.4969 -54.0523
L49.335 -53.8819
L49.1711 -53.7103
L49.0049 -53.5375
L48.8366 -53.3634
L48.666 -53.1881
L48.4931 -53.0115
L48.3179 -52.8336
L48.1403 -52.6545
L47.9603 -52.474
L47.7779 -52.2923
L47.593 -52.1093
L47.4055 -51.9251
L47.2155 -51.7396
L47.0229 -51.5529
L46.8276 -51.365
L46.6296 -51.1759
L46.4289 -50.9857
L46.2255 -50.7943
L46.0192 -50.6019
L45.8101 -50.4085
L45.5982 -50.2142
L45.3833 -50.0189
L45.1655 -49.8229
L44.9447 -49.6261
L44.721 -49.4287
L44.4942 -49.2308
L44.2644 -49.0325
L44.0315 -48.8339
L43.7955 -48.6351
L43.5564 -48.4363
L43.3141 -48.2377
L43.0688 -48.0394
L42.8202 -47.8416
L42.5685 -47.6445
L42.3137 -47.4484
L42.0557 -47.2534
L41.7945 -47.0599
L41.5301 -46.868
L41.2626 -46.678
L40.9919 -46.4904
L40.7181 -46.3052
L40.4412 -46.123
L40.1612 -45.9439
L39.8781 -45.7684
L39.592 -45.5969
L39.3028 -45.4296
L39.0107 -45.267
L38.7157 -45.1094
L38.4178 -44.9572
L38.1172 -44.8109
L37.8137 -44.6707
L37.5076 -44.5371
L37.1989 -44.4104
L36.8876 -44.2909
L36.5739 -44.179
L36.2579 -44.0749
L35.9397 -43.9788
L35.6194 -43.8911
L35.2971 -43.8118
L34.9729 -43.7412
L34.6471 -43.6793
L34.3197 -43.6261
L33.991 -43.5817
L33.661 -43.5461
L33.33 -43.519
L32.9981 -43.5005
L32.6655 -43.4904
L32.3325 -43.4884
L31.9991 -43.4943
L31.6657 -43.5079
L31.3323 -43.5289
L30.9992 -43.5569
L30.6666 -43.5917
L30.3347 -43.6329
L30.0036 -43.6801
L29.6735 -43.7331
L29.3446 -43.7915
L29.0171 -43.855
L28.6911 -43.9232
L28.3667 -43.9958
L28.0442 -44.0724
L27.7236 -44.1528
L27.4051 -44.2367
L27.0888 -44.3238
L26.7748 -44.4138
L26.4631 -44.5064
L26.154 -44.6015
L25.8475 -44.6987
L25.5436 -44.7979
L25.2425 -44.8988
L24.9441 -45.0013
L24.6486 -45.1052
L24.3559 -45.2103
L24.0662 -45.3165
L23.7794 -45.4236
L23.4957 -45.5314
L23.2149 -45.6399
L22.9372 -45.749
L22.6624 -45.8584
L22.3908 -45.9682
L22.1221 -46.0783
L21.8565 -46.1885
L21.5939 -46.2988
L21.3343 -46.4091
L21.0777 -46.5194
L20.8241 -46.6296
L20.5734 -46.7397
L20.3257 -46.8495
L20.0808 -46.9592
L19.8389 -47.0686
L19.5997 -47.1776
L19.3634 -47.2864
L19.1299 -47.3948
L18.8991 -47.5029
L18.6709 -47.6106
L18.4455 -47.7179
L18.2227 -47.8247
L18.0024 -47.9312
L17.7847 -48.0373
L17.5695 -48.1429
L17.3568 -48.2482
L17.1465 -48.353
L16.9386 -48.4574
L16.733 -48.5613
L16.5297 -48.6649
L16.3286 -48.7681
L16.1298 -48.8708
L15.9332 -48.9732
L15.7387 -49.0753
L15.5462 -49.1769
L15.3559 -49.2782
L15.1676 -49.3792
L14.9812 -49.4799
L14.7968 -49.5802
L14.6143 -49.6803
L14.4337 -49.7801
L14.2549 -49.8797
L14.078 -49.979
L13.9028 -50.0781
L13.7293 -50.177
L13.5576 -50.2758
L13.3876 -50.3744
L13.2192 -50.4729
L13.0525 -50.5712
L12.8873 -50.6695
L12.7238 -50.7678
L12.5618 -50.866
L12.4013 -50.9642
L12.2424 -51.0624
L12.1992 -51.1607
L12.4764 -51.6771
L12.7608 -52.0901
L13.0523 -52.4982
L13.3508 -52.9013
L13.6561 -53.2992
L13.9683 -53.6919
L14.2872 -54.0791
L14.6127 -54.4609
L14.9447 -54.837
L15.2831 -55.2074
L15.6278 -55.5719
L15.9788 -55.9305
L16.3358 -56.283
L16.6988 -56.6293
L17.0677 -56.9694
L17.4424 -57.303
L17.8227 -57.6302
L18.2086 -57.9508
L18.5999 -58.2647
L18.9965 -58.5718
L19.3982 -58.872
L19.8051 -59.1653
L20.2168 -59.4515
L20.6334 -59.7306
L21.0546 -60.0024
L21.4804 -60.267
L21.9106 -60.5241
L22.3451 -60.7738
L22.7838 -61.0159
L23.2265 -61.2504
L23.6731 -61.4772
L24.1234 -61.6962
L24.5774 -61.9075
L25.0348 -62.1108
L25.4956 -62.3062
L25.9596 -62.4935
L26.4266 -62.6728
L26.8965 -62.844
L27.3693 -63.007
L27.8446 -63.1617
L28.3224 -63.3082
L28.8026 -63.4464
L29.285 -63.5762
L29.7694 -63.6976
L30.2557 -63.8106
L30.7438 -63.9151
L31.2334 -64.0111
L31.7246 -64.0986
L32.217 -64.1775
L32.7105 -64.2478
L33.2051 -64.3095
L33.7005 -64.3626
L34.1966 -64.4071
L34.6933 -64.4429
L35.1904 -64.47
L35.6877 -64.4885
L36.1851 -64.4983
L36.6825 -64.4994
L37.1796 -64.4918
L37.6764 -64.4756
L38.1727 -64.4507
L38.6683 -64.4171
L39.1631 -64.3748
L39.6569 -64.3239
L40.1497 -64.2644
L40.6411 -64.1963
L41.1312 -64.1196
L41.6197 -64.0343
L42.1064 -63.9405
L42.5913 -63.8381
L43.0742 -63.7273
L43.555 -63.6081
L44.0334 -63.4804
L44.5094 -63.3444
L44.9829 -63.2
L45.4535 -63.0473
L45.9213 -62.8864
L46.3861 -62.7174
L46.8477 -62.5401
L47.306 -62.3548
L47.7609 -62.1615
L48.2121 -61.9602
L48.6597 -61.751
L49.1034 -61.5339
L49.5431 -61.3091
L49.9787 -61.0766
L50.41 -60.8364
L50.837 -60.5886
L51.2594 -60.3334
L51.6771 -60.0708
L52.0901 -59.8008
L52.4982 -59.5236
L52.9013 -59.2392
z
" id="C0_2_df51d7c5ef"/>
    </defs>
    <g clip-path="url(#p1bffca34e9)">
     <use style="fill:#ff0000;stroke:#000000;stroke-width:2.0;" x="0.0" xlink:href="#C0_0_a811fe30f3" y="72.0"/>
    </g>
    <g clip-path="url(#p1bffca34e9)">
     <use style="fill:#ffffff;stroke:#000000;stroke-width:2.0;" x="0.0" xlink:href="#C0_1_263003fc4a" y="72.0"/>
    </g>
    <g clip-path="url(#p1bffca34e9)">
     <use style="fill:#ffffff;stroke:#000000;stroke-width:2.0;" x="0.0" xlink:href="#C0_2_df51d7c5ef" y="72.0"/>
    </g>
   </g>
  </g>
 </g>
 <defs>
  <clipPath id="p1bffca34e9">
   <rect height="72.0" width="72.0" x="0.0" y="0.0"/>
  </clipPath>
 </defs>
</svg>
