<?xml version="1.0" encoding="utf-8" standalone="no"?>
<!DOCTYPE svg PUBLIC "-//W3C//DTD SVG 1.1//EN"
  "http://www.w3.org/Graphics/SVG/1.1/DTD/svg11.dtd">
<!-- Created with matplotlib (http://matplotlib.org/) -->
<svg height="72pt" version="1.1" viewBox="0 0 72 72" width="72pt" xmlns="http://www.w3.org/2000/svg" xmlns:xlink="http://www.w3.org/1999/xlink">
 <defs>
  <style type="text/css">
*{stroke-linecap:butt;stroke-linejoin:round;}
  </style>
 </defs>
 <g id="figure_1">
  <g id="patch_1">
   <path d="
M0 72
L72 72
L72 0
L0 0
z
" style="fill:none;"/>
  </g>
  <g id="axes_1">
   <g id="PatchCollection_1">
    <defs>
     <path d="
M36 -7.5
C43.5583 -7.5 50.808 -10.5029 56.1525 -15.8475
C61.4971 -21.192 64.5 -28.4417 64.5 -36
C64.5 -43.5583 61.4971 -50.808 56.1525 -56.1525
C50.808 -61.4971 43.5583 -64.5 36 -64.5
C28.4417 -64.5 21.192 -61.4971 15.8475 -56.1525
C10.5029 -50.808 7.5 -43.5583 7.5 -36
C7.5 -28.4417 10.5029 -21.192 15.8475 -15.8475
C21.192 -10.5029 28.4417 -7.5 36 -7.5
z
" id="C0_0_a811fe30f3"/>
     <path d="
M55.2571 -56.7545
L54.9756 -56.7139
L54.7056 -56.6532
L54.447 -56.5733
L54.1998 -56.4749
L53.9636 -56.3588
L53.738 -56.226
L53.5225 -56.0773
L53.3166 -55.9139
L53.1197 -55.7367
L52.9312 -55.5467
L52.7505 -55.3448
L52.577 -55.1321
L52.4101 -54.9094
L52.2492 -54.6776
L52.0936 -54.4376
L51.943 -54.1903
L51.7968 -53.9362
L51.6546 -53.6762
L51.5159 -53.411
L51.3804 -53.141
L51.2476 -52.867
L51.1173 -52.5895
L50.9893 -52.3089
L50.8632 -52.0257
L50.7388 -51.7403
L50.6159 -51.4531
L50.4944 -51.1645
L50.374 -50.8748
L50.2547 -50.5843
L50.1363 -50.2932
L50.0187 -50.0019
L49.9018 -49.7105
L49.7856 -49.4193
L49.6698 -49.1284
L49.5546 -48.838
L49.4399 -48.5483
L49.3255 -48.2593
L49.2114 -47.9713
L49.0977 -47.6843
L48.9843 -47.3984
L48.8711 -47.1137
L48.7581 -46.8303
L48.6454 -46.5482
L48.5329 -46.2675
L48.4205 -45.9882
L48.3083 -45.7105
L48.1963 -45.4342
L48.0843 -45.1594
L47.9726 -44.8862
L47.8609 -44.6145
L47.7493 -44.3444
L47.6379 -44.0759
L47.5265 -43.8089
L47.4153 -43.5435
L47.3041 -43.2796
L47.1929 -43.0173
L47.0818 -42.7564
L46.9708 -42.4971
L46.8598 -42.2392
L46.7488 -41.9827
L46.6378 -41.7277
L46.5269 -41.474
L46.4159 -41.2217
L46.3049 -40.9707
L46.1939 -40.721
L46.0828 -40.4725
L45.9717 -40.2252
L45.8605 -39.9792
L45.7493 -39.7342
L45.6379 -39.4903
L45.5264 -39.2475
L45.4148 -39.0057
L45.3031 -38.7648
L45.1912 -38.5249
L45.0791 -38.2858
L44.9668 -38.0476
L44.8543 -37.8102
L44.7416 -37.5735
L44.6287 -37.3375
L44.5154 -37.1022
L44.4019 -36.8674
L44.2881 -36.6333
L44.174 -36.3996
L44.0595 -36.1665
L43.9447 -35.9337
L43.8294 -35.7014
L43.7138 -35.4693
L43.5977 -35.2376
L43.3643 -35.0061
L43.2468 -34.7748
L43.1288 -34.5437
L43.0102 -34.3126
L42.8911 -34.0817
L42.7715 -33.8507
L42.6511 -33.6197
L42.5302 -33.3886
L42.4086 -33.1575
L42.2863 -32.9261
L42.1633 -32.6945
L42.0396 -32.4627
L41.915 -32.2306
L41.7897 -31.9981
L41.6636 -31.7653
L41.5367 -31.532
L41.4088 -31.2983
L41.2801 -31.064
L41.1505 -30.8292
L41.0199 -30.5938
L40.8883 -30.3577
L40.7558 -30.1209
L40.6222 -29.8835
L40.4876 -29.6452
L40.3519 -29.4062
L40.2151 -29.1663
L40.0771 -28.9256
L39.9381 -28.6839
L39.7978 -28.4413
L39.6564 -28.1977
L39.5138 -27.9531
L39.3699 -27.7074
L39.2248 -27.4607
L39.0784 -27.2128
L38.9307 -26.9638
L38.7818 -26.7136
L38.6315 -26.4622
L38.4799 -26.2097
L38.327 -25.9558
L38.1728 -25.7008
L38.0172 -25.4444
L37.8604 -25.1867
L37.7022 -24.9278
L37.5427 -24.6675
L37.3819 -24.4059
L37.2199 -24.143
L37.0566 -23.8787
L36.8921 -23.6131
L36.7265 -23.3462
L36.5598 -23.078
L36.392 -22.8085
L36.2232 -22.5377
L36.0535 -22.2656
L35.8829 -21.9922
L35.7117 -21.7177
L35.5398 -21.4419
L35.3675 -21.165
L35.1948 -20.887
L35.0219 -20.6079
L34.8491 -20.3278
L34.6764 -20.0467
L34.5042 -19.7647
L34.3326 -19.4818
L34.162 -19.1981
L33.9927 -18.9137
L33.8249 -18.6287
L33.6591 -18.3431
L33.4957 -18.057
L33.3351 -17.7704
L33.1777 -17.4835
L33.0242 -17.1964
L32.875 -16.909
L32.7308 -16.6216
L32.5924 -16.3342
L32.4603 -16.0469
L32.3353 -15.7597
L32.2184 -15.4728
L32.1104 -15.1862
L32.0121 -14.9001
L31.9246 -14.6145
L31.8488 -14.3296
L31.7859 -14.0454
L31.7367 -13.762
L31.7024 -13.4796
L31.6839 -13.1984
L31.6823 -12.9183
L31.6985 -12.6397
L31.7332 -12.3628
L31.7873 -12.0876
L31.8615 -11.8146
L31.9561 -11.5439
L32.0715 -11.276
L32.208 -11.0111
L32.3656 -10.7495
L32.5441 -10.4918
L32.7434 -10.2384
L32.9629 -9.98961
L33.2023 -9.74597
L33.4608 -9.50792
L33.7378 -9.27594
L34.0325 -9.05047
L34.344 -8.83197
L34.6715 -8.62085
L35.014 -8.41755
L35.3707 -8.22243
L35.7405 -8.03586
L36.1227 -7.85819
L36.5163 -7.68969
L37.014 -7.53067
L37.5109 -7.51804
L38.0074 -7.54008
L38.5032 -7.57078
L38.9983 -7.61014
L39.4925 -7.65815
L39.9856 -7.7148
L40.4775 -7.78006
L40.968 -7.85391
L41.457 -7.93634
L41.9444 -8.02732
L42.4299 -8.12682
L42.9135 -8.23481
L43.395 -8.35126
L43.8743 -8.47613
L44.3511 -8.60938
L44.8254 -8.75098
L45.297 -8.90087
L45.7657 -9.05902
L46.2315 -9.22538
L46.6942 -9.39989
L47.1536 -9.58251
L47.6097 -9.77317
L48.0621 -9.97183
L48.511 -10.1784
L48.956 -10.3929
L49.397 -10.6151
L49.834 -10.8451
L50.2667 -11.0827
L50.6952 -11.328
L51.1191 -11.5807
L51.5384 -11.8409
L51.953 -12.1084
L52.3628 -12.3832
L52.7675 -12.6653
L53.1672 -12.9544
L53.5616 -13.2505
L53.9507 -13.5536
L54.3343 -13.8635
L54.7123 -14.1802
L55.0846 -14.5035
L55.4511 -14.8333
L55.8117 -15.1696
L56.1662 -15.5123
L56.5146 -15.8611
L56.8568 -16.2162
L57.1926 -16.5772
L57.5219 -16.9442
L57.8447 -17.3169
L58.1608 -17.6954
L58.4702 -18.0794
L58.7727 -18.4689
L59.0683 -18.8637
L59.3569 -19.2638
L59.6384 -19.6689
L59.9126 -20.079
L60.1796 -20.494
L60.4392 -20.9137
L60.6914 -21.338
L60.936 -21.7668
L61.1731 -22.1998
L61.4025 -22.6371
L61.6241 -23.0785
L61.8379 -23.5238
L62.0439 -23.9729
L62.2419 -24.4257
L62.432 -24.882
L62.614 -25.3416
L62.7878 -25.8046
L62.9536 -26.2706
L63.1111 -26.7396
L63.2603 -27.2114
L63.4013 -27.6859
L63.5339 -28.1629
L63.6581 -28.6423
L63.7739 -29.124
L63.8812 -29.6077
L63.9801 -30.0934
L64.0704 -30.5809
L64.1521 -31.0701
L64.2253 -31.5607
L64.2899 -32.0527
L64.3459 -32.5459
L64.3932 -33.0402
L64.4319 -33.5353
L64.4619 -34.0312
L64.4833 -34.5277
L64.496 -35.0247
L64.5 -35.5219
L64.4953 -36.0193
L64.482 -36.5167
L64.4599 -37.014
L64.4292 -37.5109
L64.3899 -38.0074
L64.3418 -38.5032
L64.2852 -38.9983
L64.2199 -39.4925
L64.1461 -39.9856
L64.0637 -40.4775
L63.9727 -40.968
L63.8732 -41.457
L63.7652 -41.9444
L63.6487 -42.4299
L63.5239 -42.9135
L63.3906 -43.395
L63.249 -43.8743
L63.0991 -44.3511
L62.941 -44.8254
L62.7746 -45.297
L62.6001 -45.7657
L62.4175 -46.2315
L62.2268 -46.6942
L62.0282 -47.1536
L61.8216 -47.6097
L61.6071 -48.0621
L61.3849 -48.511
L61.1549 -48.956
L60.9173 -49.397
L60.672 -49.834
L60.4193 -50.2667
L60.1591 -50.6952
L59.8916 -51.1191
L59.6168 -51.5384
L59.3347 -51.953
L59.0456 -52.3628
L58.7495 -52.7675
L58.4464 -53.1672
L58.1365 -53.5616
L57.8198 -53.9507
L57.4965 -54.3343
L57.1667 -54.7123
L56.8304 -55.0846
L56.4877 -55.4511
L56.1389 -55.8117
L55.7838 -56.1662
z
" id="C0_1_8e71617c21"/>
     <path d="
M35.0883 -64.3513
L34.6929 -64.1778
L34.2973 -64.0006
L33.9023 -63.8199
L33.5084 -63.6354
L33.1162 -63.4472
L32.7262 -63.2554
L32.3389 -63.0599
L31.9546 -62.8609
L31.5738 -62.6583
L31.1967 -62.4524
L30.8236 -62.2432
L30.4547 -62.0308
L30.0904 -61.8154
L29.7307 -61.597
L29.3758 -61.3759
L29.0259 -61.152
L28.681 -60.9256
L28.3413 -60.6968
L28.0068 -60.4657
L27.6775 -60.2325
L27.3535 -59.9972
L27.0349 -59.76
L26.7215 -59.521
L26.4134 -59.2803
L26.1106 -59.038
L25.813 -58.7942
L25.5206 -58.549
L25.2335 -58.3026
L24.9514 -58.0549
L24.6744 -57.8061
L24.4024 -57.5563
L24.1354 -57.3054
L23.8732 -57.0537
L23.6158 -56.8011
L23.3632 -56.5477
L23.1152 -56.2935
L22.8717 -56.0387
L22.6328 -55.7831
L22.3984 -55.527
L22.1682 -55.2703
L21.9423 -55.013
L21.7207 -54.7551
L21.5031 -54.4967
L21.2895 -54.2379
L21.08 -53.9785
L20.8743 -53.7187
L20.6724 -53.4583
L20.4742 -53.1975
L20.2797 -52.9363
L20.0888 -52.6746
L19.9014 -52.4123
L19.7175 -52.1497
L19.5369 -51.8865
L19.3597 -51.6228
L19.1858 -51.3585
L19.015 -51.0938
L18.8474 -50.8284
L18.6829 -50.5625
L18.5215 -50.296
L18.363 -50.0289
L18.2074 -49.7611
L18.0547 -49.4926
L17.9049 -49.2234
L17.7579 -48.9534
L17.6136 -48.6826
L17.4721 -48.4111
L17.3332 -48.1387
L17.1969 -47.8654
L17.0633 -47.5911
L16.9322 -47.3159
L16.8037 -47.0397
L16.6778 -46.7624
L16.5543 -46.484
L16.4333 -46.2045
L16.3147 -45.9238
L16.1986 -45.6419
L16.0849 -45.3586
L15.9737 -45.0741
L15.8648 -44.7882
L15.7583 -44.5008
L15.6542 -44.212
L15.5525 -43.9216
L15.4531 -43.6296
L15.3562 -43.3361
L15.2616 -43.0408
L15.1694 -42.7438
L15.0796 -42.445
L14.9923 -42.1443
L14.9073 -41.8418
L14.8248 -41.5373
L14.7447 -41.2308
L14.6671 -40.9222
L14.592 -40.6115
L14.5195 -40.2986
L14.4495 -39.9835
L14.382 -39.6662
L14.3172 -39.3465
L14.2551 -39.0244
L14.1956 -38.6999
L14.1389 -38.3729
L14.085 -38.0433
L14.0339 -37.7112
L13.9857 -37.3765
L13.9404 -37.0391
L13.8981 -36.699
L13.8589 -36.3562
L13.8227 -36.0106
L13.7898 -35.6621
L13.76 -35.3108
L13.7336 -34.9567
L13.7105 -34.5996
L13.6909 -34.2396
L13.6747 -33.8767
L13.6622 -33.5109
L13.6533 -33.1421
L13.6482 -32.7704
L13.6468 -32.3957
L13.6493 -32.0182
L13.6558 -31.6377
L13.6663 -31.2544
L13.6809 -30.8683
L13.6996 -30.4794
L13.7226 -30.0878
L13.7498 -29.6935
L13.7813 -29.2967
L13.8172 -28.8974
L13.8576 -28.4958
L13.9023 -28.0919
L13.9515 -27.6859
L14.0051 -27.2779
L14.0632 -26.8681
L14.1257 -26.4567
L14.1925 -26.0439
L14.2636 -25.6298
L14.3388 -25.2148
L14.4182 -24.799
L14.5014 -24.3827
L14.5884 -23.9662
L14.6789 -23.5498
L14.7726 -23.1339
L14.8692 -22.7188
L14.9684 -22.3048
L15.0698 -21.8924
L15.173 -21.4819
L15.2773 -21.0738
L15.3822 -20.6685
L15.4872 -20.2666
L15.5915 -19.8684
L15.6944 -19.4744
L15.795 -19.0853
L15.8925 -18.7014
L15.9859 -18.3234
L16.0744 -17.9517
L16.157 -17.5868
L16.2326 -17.2293
L16.3002 -16.8796
L16.359 -16.5383
L16.4078 -16.2058
L16.446 -15.8824
L16.4725 -15.5687
L16.1091 -15.2648
L15.7559 -15.5892
L15.4089 -15.9394
L15.0681 -16.2958
L14.7338 -16.6582
L14.4059 -17.0264
L14.0845 -17.4004
L13.7699 -17.7801
L13.462 -18.1654
L13.161 -18.5561
L12.867 -18.9521
L12.58 -19.3533
L12.3001 -19.7595
L12.0275 -20.1707
L11.7621 -20.5868
L11.5042 -21.0075
L11.2536 -21.4328
L11.0107 -21.8625
L10.7753 -22.2966
L10.5477 -22.7348
L10.3277 -23.177
L10.1157 -23.6232
L9.91144 -24.0731
L9.71518 -24.5267
L9.52692 -24.9837
L9.34673 -25.4441
L9.17466 -25.9078
L9.01075 -26.3745
L8.85507 -26.8441
L8.70766 -27.3165
L8.56856 -27.7916
L8.43781 -28.2692
L8.31547 -28.7491
L8.20155 -29.2312
L8.0961 -29.7154
L7.99915 -30.2015
L7.91074 -30.6894
L7.83087 -31.1789
L7.75959 -31.6698
L7.69691 -32.1621
L7.64286 -32.6556
L7.59744 -33.15
L7.56067 -33.6454
L7.53256 -34.1414
L7.51313 -34.638
L7.50237 -35.1351
L7.5003 -35.6324
L7.5069 -36.1298
L7.52219 -36.6271
L7.54614 -37.1243
L7.57877 -37.6211
L7.62006 -38.1175
L7.66998 -38.6132
L7.72854 -39.1081
L7.79571 -39.602
L7.87147 -40.0949
L7.9558 -40.5865
L8.04868 -41.0767
L8.15006 -41.5654
L8.25993 -42.0524
L8.37825 -42.5375
L8.50499 -43.0206
L8.64009 -43.5016
L8.78354 -43.9803
L8.93527 -44.4566
L9.09525 -44.9303
L9.26342 -45.4013
L9.43974 -45.8694
L9.62415 -46.3345
L9.81659 -46.7965
L10.017 -47.2552
L10.2253 -47.7104
L10.4415 -48.1621
L10.6655 -48.6101
L10.8972 -49.0542
L11.1365 -49.4944
L11.3834 -49.9304
L11.6378 -50.3622
L11.8996 -50.7897
L12.1688 -51.2126
L12.4452 -51.6309
L12.7288 -52.0444
L13.0195 -52.4531
L13.3172 -52.8567
L13.6218 -53.2552
L13.9332 -53.6484
L14.2514 -54.0363
L14.5761 -54.4187
L14.9074 -54.7954
L15.2451 -55.1665
L15.5892 -55.5317
L15.9394 -55.8909
L16.2958 -56.2441
L16.6582 -56.5911
L17.0264 -56.9319
L17.4004 -57.2662
L17.7801 -57.5941
L18.1654 -57.9155
L18.5561 -58.2301
L18.9521 -58.538
L19.3533 -58.839
L19.7595 -59.133
L20.1707 -59.42
L20.5868 -59.6999
L21.0075 -59.9725
L21.4328 -60.2379
L21.8625 -60.4958
L22.2966 -60.7464
L22.7348 -60.9893
L23.177 -61.2247
L23.6232 -61.4523
L24.0731 -61.6723
L24.5267 -61.8843
L24.9837 -62.0886
L25.4441 -62.2848
L25.9078 -62.4731
L26.3745 -62.6533
L26.8441 -62.8253
L27.3165 -62.9892
L27.7916 -63.1449
L28.2692 -63.2923
L28.7491 -63.4314
L29.2312 -63.5622
L29.7154 -63.6845
L30.2015 -63.7985
L30.6894 -63.9039
L31.1789 -64.0008
L31.6698 -64.0893
L32.1621 -64.1691
L32.6556 -64.2404
L33.15 -64.3031
L33.6454 -64.3571
L34.1414 -64.4026
z
" id="C0_2_2d18e1bfff"/>
    </defs>
    <g clip-path="url(#p1bffca34e9)">
     <use style="fill:#ff0000;stroke:#000000;stroke-width:2.0;" x="0.0" xlink:href="#C0_0_a811fe30f3" y="72.0"/>
    </g>
    <g clip-path="url(#p1bffca34e9)">
     <use style="fill:#ffffff;stroke:#000000;stroke-width:2.0;" x="0.0" xlink:href="#C0_1_8e71617c21" y="72.0"/>
    </g>
    <g clip-path="url(#p1bffca34e9)">
     <use style="fill:#ffffff;stroke:#000000;stroke-width:2.0;" x="0.0" xlink:href="#C0_2_2d18e1bfff" y="72.0"/>
    </g>
   </g>
  </g>
 </g>
 <defs>
  <clipPath id="p1bffca34e9">
   <rect height="72.0" width="72.0" x="0.0" y="0.0"/>
  </clipPath>
 </defs>
</svg>
