<?xml version="1.0" encoding="utf-8" standalone="no"?>
<!DOCTYPE svg PUBLIC "-//W3C//DTD SVG 1.1//EN"
  "http://www.w3.org/Graphics/SVG/1.1/DTD/svg11.dtd">
<!-- Created with matplotlib (http://matplotlib.org/) -->
<svg height="72pt" version="1.1" viewBox="0 0 72 72" width="72pt" xmlns="http://www.w3.org/2000/svg" xmlns:xlink="http://www.w3.org/1999/xlink">
 <defs>
  <style type="text/css">
*{stroke-linecap:butt;stroke-linejoin:round;}
  </style>
 </defs>
 <g id="figure_1">
  <g id="patch_1">
   <path d="
M0 72
L72 72
L72 0
L0 0
z
" style="fill:none;"/>
  </g>
  <g id="axes_1">
   <g id="PatchCollection_1">
    <defs>
     <path d="
M36 -7.5
C43.5583 -7.5 50.808 -10.5029 56.1525 -15.8475
C61.4971 -21.192 64.5 -28.4417 64.5 -36
C64.5 -43.5583 61.4971 -50.808 56.1525 -56.1525
C50.808 -61.4971 43.5583 -64.5 36 -64.5
C28.4417 -64.5 21.192 -61.4971 15.8475 -56.1525
C10.5029 -50.808 7.5 -43.5583 7.5 -36
C7.5 -28.4417 10.5029 -21.192 15.8475 -15.8475
C21.192 -10.5029 28.4417 -7.5 36 -7.5
z
" id="C0_0_a811fe30f3"/>
     <path d="
M15.0481 -16.7573
L15.354 -16.846
L15.6625 -16.9352
L15.9728 -17.0252
L16.2843 -17.1163
L16.5966 -17.2087
L16.9092 -17.3024
L17.2216 -17.3977
L17.5335 -17.4946
L17.8447 -17.5931
L18.1548 -17.6932
L18.4636 -17.7949
L18.7709 -17.8981
L19.0766 -18.003
L19.3804 -18.1093
L19.6822 -18.2171
L19.982 -18.3262
L20.2796 -18.4366
L20.575 -18.5484
L20.868 -18.6613
L21.1587 -18.7753
L21.447 -18.8903
L21.7328 -19.0064
L22.0161 -19.1234
L22.2969 -19.2413
L22.5753 -19.3599
L22.8512 -19.4794
L23.1245 -19.5995
L23.3954 -19.7203
L23.6639 -19.8418
L23.9299 -19.9638
L24.1935 -20.0863
L24.4548 -20.2093
L24.7137 -20.3328
L24.9703 -20.4567
L25.2246 -20.581
L25.4767 -20.7057
L25.7267 -20.8308
L25.9745 -20.9562
L26.2202 -21.0819
L26.4639 -21.208
L26.7056 -21.3343
L26.9454 -21.4609
L27.1834 -21.5878
L27.4194 -21.715
L27.6538 -21.8424
L27.8864 -21.9701
L28.1173 -22.0981
L28.3467 -22.2264
L28.5745 -22.3549
L28.8008 -22.4838
L29.0257 -22.6129
L29.2492 -22.7423
L29.4713 -22.872
L29.6922 -23.0021
L29.9119 -23.1324
L30.1304 -23.2632
L30.3478 -23.3942
L30.5642 -23.5257
L30.7796 -23.6576
L30.994 -23.7899
L31.2076 -23.9226
L31.4203 -24.0558
L31.6323 -24.1894
L31.8435 -24.3236
L32.0541 -24.4582
L32.264 -24.5935
L32.4734 -24.7293
L32.6823 -24.8657
L32.8908 -25.0027
L33.0988 -25.1404
L33.3065 -25.2788
L33.721 -25.4179
L33.9279 -25.5578
L34.1347 -25.6984
L34.3414 -25.8399
L34.548 -25.9822
L34.7547 -26.1254
L34.9614 -26.2695
L35.1682 -26.4146
L35.3752 -26.5606
L35.5824 -26.7077
L35.7898 -26.8559
L35.9976 -27.0051
L36.2057 -27.1556
L36.4142 -27.3072
L36.6232 -27.46
L36.8326 -27.6142
L37.0427 -27.7696
L37.2533 -27.9264
L37.4645 -28.0847
L37.6765 -28.2444
L37.8892 -28.4056
L38.1027 -28.5683
L38.317 -28.7327
L38.5322 -28.8987
L38.7483 -29.0664
L38.9654 -29.2359
L39.1836 -29.4072
L39.4027 -29.5804
L39.623 -29.7555
L39.8444 -29.9325
L40.067 -30.1116
L40.2909 -30.2928
L40.516 -30.4761
L40.7424 -30.6616
L40.9701 -30.8493
L41.1992 -31.0394
L41.4298 -31.2318
L41.6617 -31.4266
L41.8952 -31.6239
L42.1301 -31.8237
L42.3666 -32.0261
L42.6046 -32.2311
L42.8442 -32.4388
L43.0854 -32.6493
L43.3282 -32.8625
L43.5726 -33.0785
L43.8187 -33.2974
L44.0664 -33.5193
L44.3157 -33.744
L44.5666 -33.9718
L44.8192 -34.2026
L45.0734 -34.4363
L45.3293 -34.6732
L45.5867 -34.9131
L45.8456 -35.156
L46.1061 -35.402
L46.3681 -35.6511
L46.6316 -35.9031
L46.8964 -36.1582
L47.1626 -36.4162
L47.4301 -36.677
L47.6989 -36.9406
L47.9688 -37.2069
L48.2398 -37.4757
L48.5118 -37.747
L48.7848 -38.0205
L49.0586 -38.2961
L49.3332 -38.5734
L49.6085 -38.8523
L49.8844 -39.1324
L50.1608 -39.4134
L50.4377 -39.6948
L50.715 -39.9761
L50.9925 -40.2568
L51.2704 -40.5362
L51.5485 -40.8136
L51.8269 -41.0881
L52.1056 -41.3587
L52.3846 -41.6242
L52.6642 -41.8832
L52.9444 -42.1343
L53.2255 -42.3756
L53.5078 -42.6051
L53.7916 -42.8204
L54.0773 -43.0189
L54.3653 -43.1978
L54.6561 -43.354
L54.9501 -43.4843
L55.2476 -43.5854
L55.5487 -43.6545
L55.8535 -43.6891
L56.1616 -43.6873
L56.4725 -43.6481
L56.7856 -43.5714
L57.0997 -43.4581
L57.4141 -43.3097
L57.7274 -43.1283
L58.0387 -42.9164
L58.3469 -42.6767
L58.651 -42.4118
L58.9501 -42.1243
L59.2434 -41.8167
L59.5302 -41.4912
L59.81 -41.1497
L60.0822 -40.7941
L60.3463 -40.4261
L60.6019 -40.047
L60.8488 -39.6582
L61.0867 -39.2608
L61.3154 -38.8559
L61.5347 -38.4444
L61.7444 -38.0273
L61.9446 -37.6052
L62.1352 -37.1788
L62.316 -36.7489
L62.4872 -36.316
L62.6487 -35.8806
L62.8007 -35.4432
L62.943 -35.0043
L63.0759 -34.5643
L63.1994 -34.1236
L63.3136 -33.6825
L63.4187 -33.2414
L63.5146 -32.8005
L63.6017 -32.3601
L63.6799 -31.9206
L63.7495 -31.482
L63.8106 -31.0446
L63.8633 -30.6086
L63.7907 -30.1742
L63.6762 -29.6812
L63.5532 -29.1972
L63.4219 -28.7152
L63.2822 -28.2354
L63.1342 -27.758
L62.978 -27.2831
L62.8135 -26.8109
L62.6408 -26.3415
L62.4601 -25.875
L62.2712 -25.4116
L62.0744 -24.9514
L61.8697 -24.4946
L61.657 -24.0413
L61.4365 -23.5916
L61.2083 -23.1457
L60.9724 -22.7038
L60.7289 -22.2658
L60.4779 -21.8321
L60.2194 -21.4027
L59.9536 -20.9777
L59.6804 -20.5573
L59.4 -20.1416
L59.1125 -19.7307
L58.818 -19.3248
L58.5165 -18.924
L58.2081 -18.5284
L57.893 -18.1381
L57.5712 -17.7532
L57.2429 -17.3739
L56.9081 -17.0003
L56.5669 -16.6324
L56.2194 -16.2705
L55.8658 -15.9145
L55.5061 -15.5647
L55.1405 -15.2211
L54.7691 -14.8839
L54.3919 -14.553
L54.0091 -14.2287
L53.6209 -13.9111
L53.2273 -13.6001
L52.8284 -13.296
L52.4244 -12.9988
L52.0154 -12.7086
L51.6016 -12.4255
L51.1829 -12.1496
L50.7597 -11.8809
L50.3319 -11.6196
L49.8998 -11.3658
L49.4635 -11.1194
L49.023 -10.8806
L48.5786 -10.6494
L48.1304 -10.426
L47.6784 -10.2104
L47.223 -10.0026
L46.764 -9.80276
L46.3018 -9.61088
L45.8365 -9.42704
L45.3682 -9.2513
L44.897 -9.0837
L44.4231 -8.9243
L43.9467 -8.77315
L43.4678 -8.6303
L42.9866 -8.49578
L42.5033 -8.36964
L42.0181 -8.25191
L41.531 -8.14264
L41.0422 -8.04185
L40.5519 -7.94958
L40.0602 -7.86585
L39.5673 -7.7907
L39.0732 -7.72413
L38.5783 -7.66618
L38.0825 -7.61686
L37.5861 -7.57619
L37.0893 -7.54417
L36.5921 -7.52082
L36.0947 -7.50615
L35.5973 -7.50016
L35.1 -7.50285
L34.603 -7.51421
L34.1064 -7.53426
L33.6104 -7.56298
L33.1151 -7.60035
L32.6207 -7.64638
L32.1274 -7.70105
L31.6352 -7.76434
L31.1443 -7.83622
L30.6549 -7.91669
L30.1672 -8.00571
L29.6812 -8.10326
L29.1972 -8.2093
L28.7152 -8.32381
L28.2354 -8.44675
L27.758 -8.57809
L27.2831 -8.71778
L26.8109 -8.86577
L26.3415 -9.02204
L25.875 -9.18652
L25.4116 -9.35917
L24.9514 -9.53993
L24.4946 -9.72875
L24.0413 -9.92558
L23.5916 -10.1303
L23.1457 -10.343
L22.7038 -10.5635
L22.2658 -10.7917
L21.8321 -11.0276
L21.4027 -11.2711
L20.9777 -11.5221
L20.5573 -11.7806
L20.1416 -12.0464
L19.7307 -12.3196
L19.3248 -12.6
L18.924 -12.8875
L18.5284 -13.182
L18.1381 -13.4835
L17.7532 -13.7919
L17.3739 -14.107
L17.0003 -14.4288
L16.6324 -14.7571
L16.2705 -15.0919
L15.9145 -15.4331
L15.5647 -15.7806
z
" id="C0_1_0719e962c3"/>
     <path d="
M8.28954 -42.2143
L8.51222 -42.5801
L8.73766 -42.9375
L8.96564 -43.2865
L9.19595 -43.6274
L9.4284 -43.9604
L9.6628 -44.2855
L9.89898 -44.6031
L10.1368 -44.9131
L10.3761 -45.216
L10.6167 -45.5117
L10.8586 -45.8006
L11.1015 -46.0827
L11.3455 -46.3583
L11.5904 -46.6274
L11.8361 -46.8904
L12.0825 -47.1473
L12.3296 -47.3983
L12.5774 -47.6436
L12.8257 -47.8833
L13.0745 -48.1176
L13.3238 -48.3465
L13.5736 -48.5704
L13.8237 -48.7892
L14.0743 -49.0032
L14.3252 -49.2124
L14.5765 -49.4171
L14.8281 -49.6172
L15.08 -49.813
L15.3323 -50.0045
L15.585 -50.1918
L15.8379 -50.3752
L16.0913 -50.5545
L16.345 -50.7301
L16.599 -50.9019
L16.8535 -51.0701
L17.1084 -51.2347
L17.3637 -51.3958
L17.6195 -51.5536
L17.8758 -51.708
L18.1327 -51.8592
L18.39 -52.0072
L18.648 -52.1521
L18.9066 -52.2939
L19.1659 -52.4328
L19.4259 -52.5687
L19.6866 -52.7018
L19.9481 -52.8321
L20.2104 -52.9596
L20.4736 -53.0844
L20.7378 -53.2065
L21.0029 -53.326
L21.2691 -53.4429
L21.5363 -53.5572
L21.8047 -53.669
L22.0742 -53.7782
L22.345 -53.885
L22.6171 -53.9893
L22.8905 -54.0912
L23.1653 -54.1907
L23.4416 -54.2878
L23.7195 -54.3824
L23.9989 -54.4747
L24.28 -54.5646
L24.5628 -54.6521
L24.8474 -54.7372
L25.1338 -54.82
L25.4222 -54.9003
L25.7125 -54.9783
L26.0049 -55.0539
L26.2994 -55.127
L26.5961 -55.1977
L26.895 -55.2659
L27.1963 -55.3316
L27.4999 -55.3948
L27.8061 -55.4555
L28.1147 -55.5136
L28.426 -55.5691
L28.74 -55.6218
L29.0567 -55.6719
L29.3762 -55.7193
L29.6987 -55.7638
L30.024 -55.8054
L30.3525 -55.8442
L30.684 -55.8799
L31.0187 -55.9126
L31.3566 -55.9421
L31.6978 -55.9685
L32.0424 -55.9916
L32.3904 -56.0113
L32.7418 -56.0275
L33.0968 -56.0402
L33.4554 -56.0493
L33.8176 -56.0546
L34.1835 -56.0561
L34.5531 -56.0537
L34.9264 -56.0472
L35.3035 -56.0366
L35.6843 -56.0217
L36.069 -56.0024
L36.4575 -55.9786
L36.8498 -55.9502
L37.2459 -55.917
L37.6458 -55.8789
L38.0494 -55.8359
L38.4568 -55.7878
L38.8678 -55.7345
L39.2824 -55.6758
L39.7005 -55.6117
L40.1221 -55.5421
L40.5469 -55.4668
L40.975 -55.3858
L41.406 -55.299
L41.84 -55.2064
L42.2767 -55.1078
L42.7158 -55.0034
L43.1573 -54.8931
L43.6007 -54.7769
L44.0459 -54.655
L44.4926 -54.5273
L44.9404 -54.3941
L45.3889 -54.2557
L45.8378 -54.1122
L46.2866 -53.964
L46.7349 -53.8116
L47.1822 -53.6556
L47.6279 -53.4965
L48.0714 -53.3353
L48.5121 -53.1728
L48.9493 -53.0103
L49.3823 -52.8491
L49.8101 -52.6909
L50.2319 -52.5376
L50.6468 -52.3913
L51.0536 -52.2546
L51.4514 -52.1302
L51.839 -52.0211
L52.2152 -51.9304
L52.5791 -51.8612
L52.9295 -51.8165
L53.2658 -51.7988
L53.5872 -51.8098
L53.8935 -51.8505
L54.1845 -51.9212
L54.4604 -52.021
L54.7217 -52.1485
L54.9687 -52.3017
L55.2021 -52.4781
L55.4226 -52.6752
L55.6307 -52.8905
L55.8271 -53.1217
L56.0123 -53.3663
L56.1869 -53.6225
L56.3511 -53.8883
L56.5054 -54.1623
L56.65 -54.4429
L56.7854 -54.729
L56.7459 -55.0196
L56.4017 -55.5411
L56.0513 -55.9002
L55.6948 -56.2533
L55.3323 -56.6001
L54.9639 -56.9407
L54.5897 -57.2749
L54.2098 -57.6026
L53.8244 -57.9238
L53.4336 -58.2383
L53.0375 -58.5459
L52.6361 -58.8468
L52.2297 -59.1406
L51.8184 -59.4274
L51.4023 -59.7071
L50.9814 -59.9796
L50.556 -60.2447
L50.1261 -60.5025
L49.692 -60.7528
L49.2537 -60.9956
L48.8113 -61.2307
L48.3651 -61.4582
L47.915 -61.6779
L47.4614 -61.8898
L47.0042 -62.0938
L46.5437 -62.2899
L46.08 -62.4779
L45.6133 -62.6579
L45.1436 -62.8297
L44.6711 -62.9934
L44.1959 -63.1489
L43.7183 -63.2961
L43.2383 -63.435
L42.7561 -63.5655
L42.2719 -63.6876
L41.7857 -63.8013
L41.2978 -63.9065
L40.8083 -64.0033
L40.3173 -64.0915
L39.825 -64.1711
L39.3315 -64.2422
L38.837 -64.3046
L38.3416 -64.3584
L37.8456 -64.4036
L37.3489 -64.4402
L36.8519 -64.4681
L36.3546 -64.4873
L35.8572 -64.4978
L35.3598 -64.4996
L34.8627 -64.4928
L34.3658 -64.4773
L33.8695 -64.4531
L33.3738 -64.4203
L32.879 -64.3787
L32.385 -64.3286
L31.8922 -64.2698
L31.4006 -64.2024
L30.9105 -64.1264
L30.4218 -64.0419
L29.9349 -63.9488
L29.4498 -63.8472
L28.9668 -63.7371
L28.4858 -63.6185
L28.0072 -63.4916
L27.5309 -63.3563
L27.0573 -63.2126
L26.5864 -63.0606
L26.1184 -62.9004
L25.6533 -62.7321
L25.1914 -62.5555
L24.7329 -62.3709
L24.2777 -62.1783
L23.8261 -61.9776
L23.3782 -61.7691
L22.9342 -61.5527
L22.4941 -61.3285
L22.0582 -61.0966
L21.6265 -60.8571
L21.1992 -60.61
L20.7764 -60.3554
L20.3582 -60.0934
L19.9448 -59.824
L19.5363 -59.5474
L19.1328 -59.2636
L18.7344 -58.9728
L18.3413 -58.6749
L17.9536 -58.3701
L17.5714 -58.0585
L17.1948 -57.7402
L16.8239 -57.4153
L16.4589 -57.0838
L16.0998 -56.7459
L15.7467 -56.4017
L15.3999 -56.0513
L15.0593 -55.6948
L14.7251 -55.3323
L14.3974 -54.9639
L14.0762 -54.5897
L13.7617 -54.2098
L13.4541 -53.8244
L13.1532 -53.4336
L12.8594 -53.0375
L12.5726 -52.6361
L12.2929 -52.2297
L12.0204 -51.8184
L11.7553 -51.4023
L11.4975 -50.9814
L11.2472 -50.556
L11.0044 -50.1261
L10.7693 -49.692
L10.5418 -49.2537
L10.3221 -48.8113
L10.1102 -48.3651
L9.9062 -47.915
L9.71014 -47.4614
L9.5221 -47.0042
L9.34212 -46.5437
L9.17025 -46.08
L9.00657 -45.6133
L8.8511 -45.1436
L8.7039 -44.6711
L8.56502 -44.1959
L8.4345 -43.7183
L8.31237 -43.2383
z
" id="C0_2_3670efbbb4"/>
    </defs>
    <g clip-path="url(#p1bffca34e9)">
     <use style="fill:#ff0000;stroke:#000000;stroke-width:2.0;" x="0.0" xlink:href="#C0_0_a811fe30f3" y="72.0"/>
    </g>
    <g clip-path="url(#p1bffca34e9)">
     <use style="fill:#ffffff;stroke:#000000;stroke-width:2.0;" x="0.0" xlink:href="#C0_1_0719e962c3" y="72.0"/>
    </g>
    <g clip-path="url(#p1bffca34e9)">
     <use style="fill:#ffffff;stroke:#000000;stroke-width:2.0;" x="0.0" xlink:href="#C0_2_3670efbbb4" y="72.0"/>
    </g>
   </g>
  </g>
 </g>
 <defs>
  <clipPath id="p1bffca34e9">
   <rect height="72.0" width="72.0" x="0.0" y="0.0"/>
  </clipPath>
 </defs>
</svg>
