<?xml version="1.0" encoding="utf-8" standalone="no"?>
<!DOCTYPE svg PUBLIC "-//W3C//DTD SVG 1.1//EN"
  "http://www.w3.org/Graphics/SVG/1.1/DTD/svg11.dtd">
<!-- Created with matplotlib (http://matplotlib.org/) -->
<svg height="72pt" version="1.1" viewBox="0 0 72 72" width="72pt" xmlns="http://www.w3.org/2000/svg" xmlns:xlink="http://www.w3.org/1999/xlink">
 <defs>
  <style type="text/css">
*{stroke-linecap:butt;stroke-linejoin:round;}
  </style>
 </defs>
 <g id="figure_1">
  <g id="patch_1">
   <path d="
M0 72
L72 72
L72 0
L0 0
z
" style="fill:none;"/>
  </g>
  <g id="axes_1">
   <g id="PatchCollection_1">
    <defs>
     <path d="
M36 -7.5
C43.5583 -7.5 50.808 -10.5029 56.1525 -15.8475
C61.4971 -21.192 64.5 -28.4417 64.5 -36
C64.5 -43.5583 61.4971 -50.808 56.1525 -56.1525
C50.808 -61.4971 43.5583 -64.5 36 -64.5
C28.4417 -64.5 21.192 -61.4971 15.8475 -56.1525
C10.5029 -50.808 7.5 -43.5583 7.5 -36
C7.5 -28.4417 10.5029 -21.192 15.8475 -15.8475
C21.192 -10.5029 28.4417 -7.5 36 -7.5
z
" id="C0_0_a811fe30f3"/>
     <path d="
M11.5465 -21.9632
L11.6942 -22.3376
L11.8465 -22.7141
L12.0041 -23.0909
L12.1669 -23.4669
L12.3349 -23.8409
L12.5082 -24.2125
L12.6864 -24.581
L12.8693 -24.9461
L13.0568 -25.3075
L13.2485 -25.6649
L13.4442 -26.018
L13.6436 -26.3669
L13.8464 -26.7112
L14.0524 -27.051
L14.2612 -27.3861
L14.4726 -27.7164
L14.6864 -28.042
L14.9023 -28.3628
L15.1201 -28.6788
L15.3396 -28.99
L15.5605 -29.2963
L15.7827 -29.5979
L16.0059 -29.8947
L16.23 -30.1868
L16.4549 -30.4742
L16.6803 -30.757
L16.9062 -31.0352
L17.1324 -31.309
L17.3587 -31.5782
L17.5851 -31.8431
L17.8115 -32.1037
L18.0377 -32.3601
L18.2637 -32.6123
L18.4894 -32.8605
L18.7148 -33.1047
L18.9397 -33.345
L19.1642 -33.5815
L19.3881 -33.8142
L19.6115 -34.0433
L19.8343 -34.2689
L20.0564 -34.4909
L20.2779 -34.7096
L20.4987 -34.925
L20.7189 -35.1372
L20.9383 -35.3463
L21.1571 -35.5523
L21.3752 -35.7554
L21.5926 -35.9556
L21.8092 -36.1529
L22.0253 -36.3476
L22.2406 -36.5396
L22.4553 -36.7291
L22.6694 -36.9161
L22.8829 -37.1006
L23.0958 -37.2828
L23.3081 -37.4628
L23.5199 -37.6406
L23.7311 -37.8162
L23.9419 -37.9898
L24.1523 -38.1613
L24.3622 -38.331
L24.5718 -38.4988
L24.781 -38.6648
L24.9899 -38.829
L25.1985 -38.9916
L25.4069 -39.1525
L25.6152 -39.3119
L25.8232 -39.4697
L26.0312 -39.6261
L26.2391 -39.7811
L26.447 -39.9347
L26.6549 -40.0871
L26.8629 -40.2381
L27.071 -40.388
L27.2792 -40.5367
L27.4877 -40.6844
L27.6965 -40.8309
L27.9055 -40.9764
L28.1149 -41.121
L28.3248 -41.2646
L28.5351 -41.4073
L28.9573 -41.5491
L29.1693 -41.6901
L29.3819 -41.8304
L29.5954 -41.9699
L29.8096 -42.1087
L30.0246 -42.2468
L30.2406 -42.3843
L30.4576 -42.5212
L30.6755 -42.6575
L30.8946 -42.7932
L31.1148 -42.9285
L31.3362 -43.0632
L31.5589 -43.1975
L31.7829 -43.3314
L32.0083 -43.4649
L32.2352 -43.598
L32.4636 -43.7307
L32.6936 -43.8631
L32.9253 -43.9953
L33.1588 -44.1271
L33.394 -44.2586
L33.6312 -44.3899
L33.8703 -44.521
L34.1114 -44.6518
L34.3546 -44.7825
L34.6001 -44.913
L34.8477 -45.0433
L35.0977 -45.1734
L35.3502 -45.3034
L35.6051 -45.4332
L35.8625 -45.5628
L36.1227 -45.6924
L36.3855 -45.8218
L36.6512 -45.951
L36.9197 -46.0801
L37.1913 -46.209
L37.4658 -46.3378
L37.7436 -46.4665
L38.0245 -46.5949
L38.3087 -46.7231
L38.5963 -46.8512
L38.8874 -46.9789
L39.182 -47.1064
L39.4802 -47.2337
L39.782 -47.3605
L40.0877 -47.4871
L40.3972 -47.6132
L40.7105 -47.7388
L41.0279 -47.864
L41.3492 -47.9885
L41.6747 -48.1125
L42.0043 -48.2358
L42.338 -48.3583
L42.676 -48.48
L43.0183 -48.6007
L43.3648 -48.7205
L43.7157 -48.8391
L44.0709 -48.9566
L44.4305 -49.0728
L44.7943 -49.1875
L45.1626 -49.3007
L45.5351 -49.4122
L45.9119 -49.5219
L46.2929 -49.6297
L46.678 -49.7354
L47.0673 -49.8389
L47.4605 -49.94
L47.8576 -50.0385
L48.2585 -50.1344
L48.663 -50.2273
L49.071 -50.3173
L49.4822 -50.404
L49.8965 -50.4873
L50.3136 -50.567
L50.7332 -50.6431
L51.1551 -50.7153
L51.5789 -50.7836
L52.0042 -50.8477
L52.4305 -50.9077
L52.8574 -50.9635
L53.2841 -51.0152
L53.7097 -51.0629
L54.1333 -51.1069
L54.5533 -51.1477
L54.9676 -51.1863
L55.373 -51.2242
L55.764 -51.264
L56.1317 -51.3102
L56.4602 -51.3709
L56.7233 -51.4606
L56.8875 -51.6034
L56.9337 -51.8299
L56.8752 -52.1563
L56.7417 -52.5679
L56.5576 -53.0347
L56.338 -53.5324
L56.0914 -54.0461
L55.8229 -54.567
L55.5357 -55.0898
L55.2319 -55.6112
L54.9129 -56.1289
L54.5799 -56.6414
L54.2338 -57.1473
L53.8753 -57.6458
L53.5157 -58.1359
L53.1206 -58.4822
L52.7204 -58.7845
L52.315 -59.0798
L51.9047 -59.3681
L51.4896 -59.6493
L51.0697 -59.9233
L50.6452 -60.19
L50.2163 -60.4493
L49.783 -60.7012
L49.3456 -60.9455
L48.9041 -61.1822
L48.4586 -61.4113
L48.0094 -61.6327
L47.5564 -61.8462
L47.1 -62.0518
L46.6402 -62.2496
L46.1772 -62.4393
L45.711 -62.621
L45.2419 -62.7945
L44.77 -62.9599
L44.2954 -63.1171
L43.8183 -63.266
L43.3388 -63.4067
L42.857 -63.5389
L42.3732 -63.6628
L41.8874 -63.7783
L41.3999 -63.8853
L40.9107 -63.9838
L40.42 -64.0738
L39.9279 -64.1552
L39.4347 -64.228
L38.9404 -64.2923
L38.4452 -64.3479
L37.9492 -64.3949
L37.4527 -64.4333
L36.9558 -64.463
L36.4585 -64.484
L35.9611 -64.4963
L35.4637 -64.5
L34.9665 -64.495
L34.4696 -64.4813
L33.9731 -64.4589
L33.4773 -64.4278
L32.9823 -64.3881
L32.4881 -64.3398
L31.995 -64.2828
L31.5032 -64.2172
L31.0127 -64.143
L30.5238 -64.0602
L30.0365 -63.9689
L29.551 -63.8691
L29.0675 -63.7608
L28.5861 -63.644
L28.1069 -63.5188
L27.6302 -63.3852
L27.156 -63.2433
L26.6845 -63.0931
L26.2159 -62.9346
L25.7502 -62.7679
L25.2877 -62.5931
L24.8284 -62.4101
L24.3725 -62.2192
L23.9201 -62.0202
L23.4715 -61.8133
L23.0266 -61.5986
L22.5857 -61.376
L22.1489 -61.1457
L21.7163 -60.9078
L21.2881 -60.6622
L20.8643 -60.4092
L20.4452 -60.1487
L20.0308 -59.8809
L19.6212 -59.6058
L19.2167 -59.3235
L18.8172 -59.0341
L18.423 -58.7377
L18.0342 -58.4343
L17.6508 -58.1242
L17.273 -57.8072
L16.9009 -57.4837
L16.5346 -57.1536
L16.1743 -56.817
L15.82 -56.4741
L15.4718 -56.125
L15.1299 -55.7698
L14.7944 -55.4085
L14.4653 -55.0413
L14.1427 -54.6683
L13.8269 -54.2896
L13.5178 -53.9054
L13.2155 -53.5157
L12.9202 -53.1206
L12.6319 -52.7204
L12.3507 -52.315
L12.0767 -51.9047
L11.81 -51.4896
L11.5507 -51.0697
L11.2988 -50.6452
L11.0545 -50.2163
L10.8178 -49.783
L10.5887 -49.3456
L10.3673 -48.9041
L10.1538 -48.4586
L9.94816 -48.0094
L9.75044 -47.5564
L9.56071 -47.1
L9.37904 -46.6402
L9.20548 -46.1772
L9.04008 -45.711
L8.88289 -45.2419
L8.73397 -44.77
L8.59334 -44.2954
L8.46107 -43.8183
L8.33719 -43.3388
L8.22173 -42.857
L8.11473 -42.3732
L8.01623 -41.8874
L7.92625 -41.3999
L7.84482 -40.9107
L7.77197 -40.42
L7.70772 -39.9279
L7.65209 -39.4347
L7.60509 -38.9404
L7.56674 -38.4452
L7.53705 -37.9492
L7.51603 -37.4527
L7.50369 -36.9558
L7.50003 -36.4585
L7.50505 -35.9611
L7.51875 -35.4637
L7.54112 -34.9665
L7.57216 -34.4696
L7.61187 -33.9731
L7.66022 -33.4773
L7.7172 -32.9823
L7.7828 -32.4881
L7.85699 -31.995
L7.93976 -31.5032
L8.03107 -31.0127
L8.13091 -30.5238
L8.23923 -30.0365
L8.35601 -29.551
L8.48121 -29.0675
L8.61479 -28.5861
L8.75671 -28.1069
L8.90694 -27.6302
L9.06541 -27.156
L9.23209 -26.6845
L9.40692 -26.2159
L9.58986 -25.7502
L9.78084 -25.2877
L9.9798 -24.8284
L10.1867 -24.3725
L10.4014 -23.9201
L10.624 -23.4715
L10.8543 -23.0266
z
" id="C0_1_afd64901b9"/>
     <path d="
M18.6175 -13.5415
L19.1701 -13.308
L19.7216 -13.089
L20.2714 -12.8844
L20.819 -12.6939
L21.3639 -12.5173
L21.9056 -12.3543
L22.4435 -12.2046
L22.9774 -12.0677
L23.507 -11.9433
L24.0317 -11.831
L24.5515 -11.7304
L25.066 -11.6411
L25.575 -11.5627
L26.0783 -11.4949
L26.5758 -11.4372
L27.0672 -11.3892
L27.5526 -11.3505
L28.0318 -11.3208
L28.5048 -11.2997
L28.9715 -11.2869
L29.4318 -11.2819
L29.8858 -11.2844
L30.3334 -11.2942
L30.7747 -11.3109
L31.2097 -11.3341
L31.6385 -11.3637
L32.061 -11.3993
L32.4774 -11.4406
L32.8878 -11.4875
L33.2921 -11.5396
L33.6905 -11.5967
L34.083 -11.6586
L34.4698 -11.7251
L34.851 -11.796
L35.2266 -11.8711
L35.5968 -11.9503
L35.9617 -12.0332
L36.3213 -12.1199
L36.6758 -12.2101
L37.0253 -12.3038
L37.37 -12.4007
L37.7098 -12.5007
L38.045 -12.6038
L38.3756 -12.7098
L38.7018 -12.8186
L39.0236 -12.9301
L39.3412 -13.0443
L39.6547 -13.1611
L39.9642 -13.2803
L40.2698 -13.402
L40.5716 -13.526
L40.8697 -13.6524
L41.1642 -13.7809
L41.4552 -13.9117
L41.7428 -14.0447
L42.0271 -14.1797
L42.3082 -14.3169
L42.5862 -14.4561
L42.8612 -14.5974
L43.1332 -14.7407
L43.4024 -14.886
L43.6689 -15.0333
L43.9327 -15.1826
L44.1938 -15.3339
L44.4525 -15.4872
L44.7087 -15.6424
L44.9626 -15.7997
L45.2141 -15.9589
L45.4635 -16.1202
L45.7107 -16.2834
L45.9558 -16.4488
L46.1989 -16.6161
L46.44 -16.7856
L46.6792 -16.9572
L46.9166 -17.1309
L47.1522 -17.3068
L47.3861 -17.4849
L47.6184 -17.6653
L47.849 -17.8479
L48.078 -18.0328
L48.3055 -18.2202
L48.5315 -18.4099
L48.7561 -18.6021
L48.9793 -18.7969
L49.2012 -18.9942
L49.4217 -19.1942
L49.6409 -19.3968
L49.8589 -19.6022
L50.0757 -19.8104
L50.2912 -20.0215
L50.5056 -20.2356
L50.7188 -20.4527
L50.9309 -20.673
L51.1419 -20.8964
L51.3518 -21.1231
L51.5606 -21.3531
L51.7683 -21.5866
L51.975 -21.8236
L52.1805 -22.0642
L52.385 -22.3086
L52.5884 -22.5568
L52.7907 -22.8089
L52.9919 -23.065
L53.192 -23.3252
L53.3909 -23.5896
L53.5886 -23.8584
L53.7852 -24.1316
L53.9805 -24.4094
L54.1745 -24.6919
L54.3672 -24.9792
L54.5585 -25.2714
L54.7483 -25.5686
L54.9367 -25.871
L55.1235 -26.1787
L55.3086 -26.4918
L55.492 -26.8105
L55.6735 -27.1348
L55.8532 -27.4649
L56.0307 -27.8009
L56.2062 -28.1429
L56.3793 -28.4912
L56.55 -28.8457
L56.7181 -29.2067
L56.8836 -29.5741
L57.0461 -29.9483
L57.2056 -30.3292
L57.3618 -30.7169
L57.5146 -31.1116
L57.6638 -31.5134
L57.809 -31.9224
L57.9502 -32.3385
L58.0871 -32.762
L58.2193 -33.1928
L58.3468 -33.631
L58.4691 -34.0766
L58.586 -34.5297
L58.6972 -34.9902
L58.8024 -35.4582
L58.9013 -35.9336
L58.9935 -36.4163
L59.0788 -36.9063
L59.1568 -37.4034
L59.2272 -37.9076
L59.2896 -38.4187
L59.3437 -38.9365
L59.3892 -39.4608
L59.4257 -39.9913
L59.453 -40.5278
L59.4706 -41.07
L59.4784 -41.6174
L59.4761 -42.1696
L59.4633 -42.7263
L59.4401 -43.2868
L59.4062 -43.8505
L59.3616 -44.4168
L59.3064 -44.9848
L59.2409 -45.5535
L59.1656 -46.1216
L59.0816 -46.6874
L58.9903 -47.2487
L58.8946 -47.8021
L58.7994 -48.3422
L58.7132 -48.8603
L58.6515 -49.3409
L58.6401 -49.7592
L58.7121 -50.0838
L58.8865 -50.2976
L59.1495 -50.4148
L59.4713 -50.4645
L59.8273 -50.4702
L60.2024 -50.4462
L60.8401 -50.4006
L61.0802 -49.972
L61.3126 -49.5364
L61.5373 -49.0966
L61.7543 -48.6528
L61.9634 -48.2052
L62.1645 -47.7539
L62.3577 -47.299
L62.5429 -46.8406
L62.72 -46.379
L62.889 -45.9142
L63.0497 -45.4463
L63.2023 -44.9756
L63.3465 -44.5022
L63.4824 -44.0261
L63.61 -43.5476
L63.7291 -43.0668
L63.8398 -42.5839
L63.942 -42.099
L64.0357 -41.6122
L64.1208 -41.1237
L64.1974 -40.6336
L64.2654 -40.1421
L64.3248 -39.6494
L64.3755 -39.1555
L64.4176 -38.6607
L64.4511 -38.1651
L64.4759 -37.6688
L64.492 -37.172
L64.4994 -36.6748
L64.4982 -36.1775
L64.4883 -35.6801
L64.4697 -35.1828
L64.4424 -34.6857
L64.4065 -34.189
L64.3619 -33.6929
L64.3086 -33.1975
L64.2468 -32.7029
L64.1763 -32.2094
L64.0973 -31.717
L64.0097 -31.2259
L63.9136 -30.7363
L63.8089 -30.2482
L63.6958 -29.7619
L63.5743 -29.2776
L63.4443 -28.7952
L63.306 -28.3151
L63.1594 -27.8373
L63.0045 -27.362
L62.8414 -26.8893
L62.6701 -26.4194
L62.4907 -25.9524
L62.3032 -25.4885
L62.1077 -25.0277
L61.9043 -24.5704
L61.6929 -24.1165
L61.4738 -23.6662
L61.2468 -23.2197
L61.0122 -22.777
L60.77 -22.3384
L60.5202 -21.904
L60.2629 -21.4738
L59.9983 -21.0481
L59.7264 -20.6269
L59.4472 -20.2104
L59.1609 -19.7988
L58.8675 -19.392
L58.5671 -18.9903
L58.2599 -18.5938
L57.9459 -18.2026
L57.6252 -17.8169
L57.298 -17.4366
L56.9642 -17.062
L56.6241 -16.6932
L56.2776 -16.3303
L55.925 -15.9733
L55.5664 -15.6225
L55.2017 -15.2779
L54.8313 -14.9395
L54.455 -14.6076
L54.0732 -14.2822
L53.6859 -13.9635
L53.2931 -13.6514
L52.8951 -13.3461
L52.492 -13.0478
L52.0838 -12.7564
L51.6708 -12.4721
L51.2529 -12.195
L50.8304 -11.9251
L50.4034 -11.6626
L49.972 -11.4075
L49.5364 -11.1599
L49.0966 -10.9198
L48.6528 -10.6874
L48.2052 -10.4627
L47.7539 -10.2457
L47.299 -10.0366
L46.8406 -9.83547
L46.379 -9.64226
L45.9142 -9.45707
L45.4463 -9.27998
L44.9756 -9.11102
L44.5022 -8.95026
L44.0261 -8.79773
L43.5476 -8.65349
L43.0668 -8.51758
L42.5839 -8.39004
L42.099 -8.27091
L41.6122 -8.16023
L41.1237 -8.05803
L40.6336 -7.96434
L40.1421 -7.87919
L39.6494 -7.80261
L39.1555 -7.73461
L38.6607 -7.67523
L38.1651 -7.62447
L37.6688 -7.58236
L37.172 -7.5489
L36.6748 -7.52411
L36.1775 -7.50799
L35.6801 -7.50055
L35.1828 -7.5018
L34.6857 -7.51172
L34.189 -7.53032
L33.6929 -7.5576
L33.1975 -7.59353
L32.7029 -7.63812
L32.2094 -7.69135
L31.717 -7.75321
L31.2259 -7.82366
L30.7363 -7.90271
L30.2482 -7.9903
L29.7619 -8.08643
L29.2776 -8.19107
L28.7952 -8.30417
L28.3151 -8.42571
L27.8373 -8.55565
L27.362 -8.69395
L26.8893 -8.84057
L26.4194 -8.99546
L25.9524 -9.15858
L25.4885 -9.32987
L25.0277 -9.50929
L24.5704 -9.69678
L24.1165 -9.89227
L23.6662 -10.0957
L23.2197 -10.3071
L22.777 -10.5262
L22.3384 -10.7532
L21.904 -10.9878
L21.4738 -11.23
L21.0481 -11.4798
L20.6269 -11.7371
L20.2104 -12.0017
L19.7988 -12.2736
L19.392 -12.5528
L18.9903 -12.8391
z
" id="C0_2_9131502368"/>
    </defs>
    <g clip-path="url(#p1bffca34e9)">
     <use style="fill:#ff0000;stroke:#000000;stroke-width:2.0;" x="0.0" xlink:href="#C0_0_a811fe30f3" y="72.0"/>
    </g>
    <g clip-path="url(#p1bffca34e9)">
     <use style="fill:#ffffff;stroke:#000000;stroke-width:2.0;" x="0.0" xlink:href="#C0_1_afd64901b9" y="72.0"/>
    </g>
    <g clip-path="url(#p1bffca34e9)">
     <use style="fill:#ffffff;stroke:#000000;stroke-width:2.0;" x="0.0" xlink:href="#C0_2_9131502368" y="72.0"/>
    </g>
   </g>
  </g>
 </g>
 <defs>
  <clipPath id="p1bffca34e9">
   <rect height="72.0" width="72.0" x="0.0" y="0.0"/>
  </clipPath>
 </defs>
</svg>
