<?xml version="1.0" encoding="utf-8" standalone="no"?>
<!DOCTYPE svg PUBLIC "-//W3C//DTD SVG 1.1//EN"
  "http://www.w3.org/Graphics/SVG/1.1/DTD/svg11.dtd">
<!-- Created with matplotlib (http://matplotlib.org/) -->
<svg height="72pt" version="1.1" viewBox="0 0 72 72" width="72pt" xmlns="http://www.w3.org/2000/svg" xmlns:xlink="http://www.w3.org/1999/xlink">
 <defs>
  <style type="text/css">
*{stroke-linecap:butt;stroke-linejoin:round;}
  </style>
 </defs>
 <g id="figure_1">
  <g id="patch_1">
   <path d="
M0 72
L72 72
L72 0
L0 0
z
" style="fill:none;"/>
  </g>
  <g id="axes_1">
   <g id="PatchCollection_1">
    <defs>
     <path d="
M36 -7.5
C43.5583 -7.5 50.808 -10.5029 56.1525 -15.8475
C61.4971 -21.192 64.5 -28.4417 64.5 -36
C64.5 -43.5583 61.4971 -50.808 56.1525 -56.1525
C50.808 -61.4971 43.5583 -64.5 36 -64.5
C28.4417 -64.5 21.192 -61.4971 15.8475 -56.1525
C10.5029 -50.808 7.5 -43.5583 7.5 -36
C7.5 -28.4417 10.5029 -21.192 15.8475 -15.8475
C21.192 -10.5029 28.4417 -7.5 36 -7.5
z
" id="C0_0_a811fe30f3"/>
     <path d="
M21.5966 -60.4699
L21.7241 -60.265
L21.8382 -60.0484
L21.9398 -59.8209
L22.0297 -59.5831
L22.1089 -59.3358
L22.1782 -59.0797
L22.2386 -58.8155
L22.2909 -58.5439
L22.336 -58.2655
L22.3747 -57.9809
L22.4077 -57.6908
L22.4358 -57.3956
L22.4596 -57.096
L22.4797 -56.7924
L22.4967 -56.4853
L22.5111 -56.1751
L22.5233 -55.8623
L22.5337 -55.5473
L22.5428 -55.2304
L22.5509 -54.9119
L22.5582 -54.5923
L22.5651 -54.2716
L22.5717 -53.9504
L22.5783 -53.6287
L22.585 -53.3068
L22.5921 -52.9849
L22.5997 -52.6633
L22.6078 -52.342
L22.6166 -52.0213
L22.6262 -51.7014
L22.6366 -51.3822
L22.6479 -51.064
L22.6602 -50.7469
L22.6735 -50.4309
L22.6879 -50.1162
L22.7033 -49.8028
L22.7198 -49.4908
L22.7374 -49.1802
L22.7561 -48.8712
L22.7759 -48.5636
L22.7969 -48.2576
L22.819 -47.9532
L22.8422 -47.6505
L22.8665 -47.3493
L22.8919 -47.0498
L22.9184 -46.752
L22.946 -46.4557
L22.9747 -46.1611
L23.0045 -45.8682
L23.0353 -45.5768
L23.0671 -45.2871
L23.1 -44.9989
L23.1339 -44.7123
L23.1688 -44.4272
L23.2047 -44.1436
L23.2416 -43.8615
L23.2795 -43.5808
L23.3183 -43.3016
L23.3581 -43.0237
L23.3988 -42.7471
L23.4405 -42.4719
L23.4831 -42.1979
L23.5266 -41.9251
L23.571 -41.6535
L23.6163 -41.383
L23.6626 -41.1137
L23.7097 -40.8453
L23.7577 -40.578
L23.8066 -40.3116
L23.8564 -40.0462
L23.9071 -39.7816
L23.9587 -39.5178
L24.0112 -39.2547
L24.0646 -38.9924
L24.1188 -38.7308
L24.174 -38.4698
L24.2301 -38.2094
L24.287 -37.9495
L24.3449 -37.69
L24.4037 -37.4311
L24.4634 -37.1724
L24.5241 -36.9141
L24.5857 -36.6561
L24.7117 -36.3984
L24.7762 -36.1408
L24.8416 -35.8833
L24.9081 -35.626
L24.9755 -35.3686
L25.044 -35.1113
L25.1135 -34.8539
L25.1841 -34.5964
L25.2557 -34.3387
L25.3284 -34.0808
L25.4023 -33.8227
L25.4772 -33.5643
L25.5533 -33.3055
L25.6305 -33.0464
L25.7089 -32.7868
L25.7885 -32.5267
L25.8694 -32.2661
L25.9515 -32.0049
L26.0348 -31.7431
L26.1194 -31.4807
L26.2053 -31.2175
L26.2926 -30.9536
L26.3812 -30.6889
L26.4712 -30.4233
L26.5626 -30.1569
L26.6554 -29.8896
L26.7497 -29.6213
L26.8455 -29.352
L26.9427 -29.0818
L27.0415 -28.8104
L27.1418 -28.538
L27.2437 -28.2645
L27.3472 -27.9898
L27.4523 -27.7139
L27.5591 -27.4368
L27.6675 -27.1585
L27.7775 -26.8789
L27.8893 -26.5981
L28.0028 -26.3159
L28.118 -26.0325
L28.2349 -25.7478
L28.3535 -25.4617
L28.4739 -25.1743
L28.5961 -24.8855
L28.7199 -24.5955
L28.8455 -24.3041
L28.9729 -24.0113
L29.1019 -23.7173
L29.2326 -23.422
L29.365 -23.1254
L29.499 -22.8276
L29.6345 -22.5286
L29.7715 -22.2284
L29.91 -21.927
L30.0498 -21.6247
L30.1909 -21.3212
L30.3332 -21.0169
L30.4765 -20.7116
L30.6207 -20.4055
L30.7657 -20.0987
L30.9112 -19.7912
L31.0571 -19.4831
L31.2032 -19.1746
L31.3492 -18.8658
L31.4948 -18.5567
L31.6398 -18.2475
L31.7837 -17.9382
L31.9263 -17.6292
L32.067 -17.3204
L32.2055 -17.0121
L32.3413 -16.7043
L32.4739 -16.3973
L32.6025 -16.0912
L32.7267 -15.7862
L32.8457 -15.4824
L32.9589 -15.18
L33.0653 -14.8793
L33.1643 -14.5804
L33.2549 -14.2835
L33.3363 -13.9887
L33.4075 -13.6964
L33.4676 -13.4067
L33.5156 -13.1199
L33.5505 -12.836
L33.5714 -12.5555
L33.5775 -12.2785
L33.5678 -12.0052
L33.5415 -11.736
L33.498 -11.471
L33.4366 -11.2106
L33.3568 -10.9551
L33.2584 -10.7047
L33.141 -10.4597
L33.0046 -10.2205
L32.8492 -9.98736
L32.675 -9.76063
L32.4822 -9.54063
L32.2712 -9.32768
L32.0427 -9.12211
L31.797 -8.92424
L31.5349 -8.73437
L31.2571 -8.5528
L30.9642 -8.37982
L30.6572 -8.2157
L30.1592 -8.0607
L29.6733 -8.10492
L29.1893 -8.21111
L28.7073 -8.32576
L28.2276 -8.44884
L27.7502 -8.58031
L27.2754 -8.72013
L26.8032 -8.86826
L26.3338 -9.02466
L25.8674 -9.18928
L25.404 -9.36206
L24.9439 -9.54295
L24.4871 -9.73191
L24.0339 -9.92887
L23.5843 -10.1338
L23.1385 -10.3465
L22.6966 -10.5671
L22.2587 -10.7955
L21.825 -11.0315
L21.3957 -11.2751
L20.9708 -11.5263
L20.5505 -11.7849
L20.1348 -12.0509
L19.7241 -12.3241
L19.3182 -12.6046
L18.9175 -12.8922
L18.5219 -13.1869
L18.1317 -13.4885
L17.7469 -13.797
L17.3677 -14.1122
L16.9942 -14.4341
L16.6264 -14.7625
L16.2646 -15.0975
L15.9088 -15.4388
L15.559 -15.7863
L15.2156 -16.1401
L14.8784 -16.4998
L14.5477 -16.8655
L14.2235 -17.2371
L13.9059 -17.6143
L13.5951 -17.9972
L13.2911 -18.3855
L12.994 -18.7792
L12.7039 -19.1782
L12.4209 -19.5822
L12.1451 -19.9913
L11.8766 -20.4053
L11.6154 -20.824
L11.3617 -21.2473
L11.1154 -21.6751
L10.8767 -22.1073
L10.6457 -22.5437
L10.4224 -22.9842
L10.2069 -23.4287
L9.99928 -23.877
L9.79956 -24.329
L9.60781 -24.7845
L9.4241 -25.2435
L9.24849 -25.7057
L9.08103 -26.1711
L8.92176 -26.6395
L8.77075 -27.1107
L8.62803 -27.5847
L8.49365 -28.0612
L8.36764 -28.5401
L8.25005 -29.0213
L8.14092 -29.5046
L8.04027 -29.9899
L7.94814 -30.477
L7.86455 -30.9658
L7.78954 -31.4561
L7.72311 -31.9479
L7.66531 -32.4408
L7.61613 -32.9349
L7.57559 -33.4298
L7.54372 -33.9256
L7.52051 -34.422
L7.50598 -34.9189
L7.50013 -35.4161
L7.50296 -35.9134
L7.51447 -36.4108
L7.53466 -36.9081
L7.56352 -37.4051
L7.60104 -37.9017
L7.64721 -38.3977
L7.70202 -38.893
L7.76544 -39.3873
L7.83747 -39.8807
L7.91808 -40.3729
L8.00724 -40.8637
L8.10492 -41.3531
L8.21111 -41.8408
L8.32576 -42.3267
L8.44884 -42.8107
L8.58031 -43.2927
L8.72013 -43.7724
L8.86826 -44.2498
L9.02466 -44.7246
L9.18928 -45.1968
L9.36206 -45.6662
L9.54295 -46.1326
L9.73191 -46.596
L9.92887 -47.0561
L10.1338 -47.5129
L10.3465 -47.9661
L10.5671 -48.4157
L10.7955 -48.8615
L11.0315 -49.3034
L11.2751 -49.7413
L11.5263 -50.175
L11.7849 -50.6043
L12.0509 -51.0292
L12.3241 -51.4495
L12.6046 -51.8652
L12.8922 -52.2759
L13.1869 -52.6818
L13.4885 -53.0825
L13.797 -53.4781
L14.1122 -53.8683
L14.4341 -54.2531
L14.7625 -54.6323
L15.0975 -55.0058
L15.4388 -55.3736
L15.7863 -55.7354
L16.1401 -56.0912
L16.4998 -56.441
L16.8655 -56.7844
L17.2371 -57.1216
L17.6143 -57.4523
L17.9972 -57.7765
L18.3855 -58.0941
L18.7792 -58.4049
L19.1782 -58.7089
L19.5822 -59.006
L19.9913 -59.2961
L20.4053 -59.5791
L20.824 -59.8549
z
" id="C0_1_98359a3466"/>
     <path d="
M41.6038 -63.7896
L41.8497 -63.5299
L42.0999 -63.2672
L42.3537 -63.0016
L42.61 -62.7332
L42.8682 -62.4619
L43.1274 -62.1881
L43.3871 -61.9117
L43.6466 -61.6328
L43.9054 -61.3518
L44.163 -61.0686
L44.4189 -60.7834
L44.6729 -60.4964
L44.9244 -60.2078
L45.1733 -59.9176
L45.4192 -59.626
L45.6619 -59.3331
L45.9013 -59.0392
L46.1371 -58.7443
L46.3693 -58.4485
L46.5976 -58.1521
L46.8221 -57.855
L47.0425 -57.5575
L47.259 -57.2597
L47.4713 -56.9616
L47.6796 -56.6633
L47.8837 -56.365
L48.0837 -56.0667
L48.2796 -55.7685
L48.4714 -55.4705
L48.6591 -55.1727
L48.8427 -54.8752
L49.0223 -54.5781
L49.198 -54.2814
L49.3697 -53.9852
L49.5375 -53.6894
L49.7015 -53.3942
L49.8618 -53.0996
L50.0183 -52.8055
L50.1711 -52.5121
L50.3204 -52.2193
L50.4661 -51.9271
L50.6083 -51.6355
L50.7471 -51.3446
L50.8825 -51.0544
L51.0147 -50.7648
L51.1436 -50.4758
L51.2693 -50.1875
L51.3919 -49.8997
L51.5115 -49.6126
L51.628 -49.3261
L51.7417 -49.0402
L51.8524 -48.7548
L51.9603 -48.4699
L52.0653 -48.1855
L52.1677 -47.9016
L52.2674 -47.6182
L52.3644 -47.3351
L52.4588 -47.0525
L52.5507 -46.7702
L52.6401 -46.4882
L52.727 -46.2065
L52.8115 -45.925
L52.8936 -45.6437
L52.9734 -45.3626
L53.0508 -45.0816
L53.1259 -44.8007
L53.1988 -44.5199
L53.2694 -44.239
L53.3379 -43.9581
L53.4042 -43.6771
L53.4683 -43.396
L53.5303 -43.1147
L53.5901 -42.8331
L53.6479 -42.5513
L53.7036 -42.2692
L53.7572 -41.9867
L53.8088 -41.7038
L53.8583 -41.4204
L53.9058 -41.1365
L53.9513 -40.852
L53.9947 -40.5669
L54.0362 -40.2811
L54.0756 -39.9947
L54.113 -39.7074
L54.1484 -39.4194
L54.1818 -39.1304
L54.2131 -38.8406
L54.2424 -38.5498
L54.2697 -38.258
L54.2949 -37.9651
L54.3181 -37.6711
L54.3391 -37.3759
L54.3581 -37.0795
L54.375 -36.7818
L54.3897 -36.4828
L54.4023 -36.1825
L54.4127 -35.8807
L54.4209 -35.5774
L54.4269 -35.2727
L54.4306 -34.9664
L54.4321 -34.6585
L54.4312 -34.349
L54.4279 -34.0378
L54.4223 -33.7248
L54.4143 -33.4101
L54.4038 -33.0936
L54.3907 -32.7753
L54.3752 -32.4551
L54.357 -32.133
L54.3363 -31.8089
L54.3128 -31.4829
L54.2867 -31.155
L54.2578 -30.825
L54.226 -30.493
L54.1915 -30.159
L54.154 -29.8229
L54.1136 -29.4848
L54.0702 -29.1446
L54.0237 -28.8025
L53.9742 -28.4582
L53.9216 -28.112
L53.8658 -27.7638
L53.8068 -27.4136
L53.7446 -27.0615
L53.6792 -26.7075
L53.6105 -26.3517
L53.5385 -25.9941
L53.4632 -25.6348
L53.3847 -25.2739
L53.3028 -24.9114
L53.2177 -24.5475
L53.1294 -24.1823
L53.0378 -23.8158
L52.9432 -23.4482
L52.8455 -23.0796
L52.7448 -22.7103
L52.6413 -22.3403
L52.5351 -21.9698
L52.4263 -21.5991
L52.3152 -21.2282
L52.2019 -20.8576
L52.0868 -20.4873
L51.9701 -20.1176
L51.8521 -19.7489
L51.7333 -19.3813
L51.614 -19.0151
L51.4946 -18.6507
L51.3757 -18.2883
L51.2579 -17.9284
L51.1417 -17.5712
L51.0279 -17.217
L50.9171 -16.8663
L50.8101 -16.5195
L50.7078 -16.1768
L50.6109 -15.8386
L50.5204 -15.5055
L50.4372 -15.1777
L50.3623 -14.8556
L50.2965 -14.5396
L50.2409 -14.2302
L50.1964 -13.9276
L50.1637 -13.6322
L50.1439 -13.3443
L50.1375 -13.0644
L50.1452 -12.7926
L50.1676 -12.5293
L50.2052 -12.2747
L50.2581 -12.0291
L50.3266 -11.7927
L50.9044 -11.5657
L51.3261 -11.7078
L51.7431 -11.9717
L52.1553 -12.2428
L52.5626 -12.5212
L52.9649 -12.8067
L53.362 -13.0993
L53.7538 -13.3989
L54.1402 -13.7053
L54.521 -14.0185
L54.8963 -14.3385
L55.2657 -14.665
L55.6293 -14.9981
L55.9869 -15.3375
L56.3385 -15.6832
L56.6838 -16.0351
L57.0229 -16.3931
L57.3555 -16.7571
L57.6816 -17.1269
L58.0011 -17.5025
L58.314 -17.8837
L58.62 -18.2704
L58.9191 -18.6626
L59.2113 -19.06
L59.4964 -19.4626
L59.7743 -19.8702
L60.045 -20.2827
L60.3083 -20.7
L60.5643 -21.122
L60.8128 -21.5485
L61.0537 -21.9794
L61.2869 -22.4146
L61.5125 -22.8539
L61.7303 -23.2972
L61.9403 -23.7444
L62.1424 -24.1953
L62.3365 -24.6498
L62.5226 -25.1078
L62.7006 -25.5691
L62.8704 -26.0336
L63.0321 -26.5011
L63.1856 -26.9715
L63.3308 -27.4446
L63.4676 -27.9204
L63.5961 -28.3986
L63.7162 -28.8791
L63.8278 -29.3619
L63.9309 -29.8466
L64.0256 -30.3332
L64.1117 -30.8215
L64.1892 -31.3114
L64.2582 -31.8027
L64.3185 -32.2953
L64.3703 -32.7891
L64.4134 -33.2838
L64.4478 -33.7793
L64.4735 -34.2756
L64.4906 -34.7723
L64.499 -35.2694
L64.4988 -35.7668
L64.4898 -36.2642
L64.4722 -36.7615
L64.4459 -37.2586
L64.4109 -37.7553
L64.3673 -38.2515
L64.315 -38.747
L64.2542 -39.2417
L64.1847 -39.7353
L64.1066 -40.2279
L64.0199 -40.7191
L63.9248 -41.2089
L63.8211 -41.6971
L63.7089 -42.1836
L63.5883 -42.6682
L63.4593 -43.1508
L63.322 -43.6312
L63.1763 -44.1093
L63.0223 -44.5849
L62.8601 -45.0579
L62.6897 -45.5281
L62.5112 -45.9954
L62.3246 -46.4597
L62.13 -46.9208
L61.9275 -47.3785
L61.717 -47.8328
L61.4987 -48.2835
L61.2727 -48.7305
L61.0389 -49.1736
L60.7975 -49.6126
L60.5486 -50.0475
L60.2922 -50.4782
L60.0283 -50.9044
L59.7572 -51.3261
L59.4788 -51.7431
L59.1933 -52.1553
L58.9007 -52.5626
L58.6011 -52.9649
L58.2947 -53.362
L57.9815 -53.7538
L57.6615 -54.1402
L57.335 -54.521
L57.0019 -54.8963
L56.6625 -55.2657
L56.3168 -55.6293
L55.9649 -55.9869
L55.6069 -56.3385
L55.2429 -56.6838
L54.8731 -57.0229
L54.4975 -57.3555
L54.1163 -57.6816
L53.7296 -58.0011
L53.3374 -58.314
L52.94 -58.62
L52.5374 -58.9191
L52.1298 -59.2113
L51.7173 -59.4964
L51.3 -59.7743
L50.878 -60.045
L50.4515 -60.3083
L50.0206 -60.5643
L49.5854 -60.8128
L49.1461 -61.0537
L48.7028 -61.2869
L48.2556 -61.5125
L47.8047 -61.7303
L47.3502 -61.9403
L46.8922 -62.1424
L46.4309 -62.3365
L45.9664 -62.5226
L45.4989 -62.7006
L45.0285 -62.8704
L44.5554 -63.0321
L44.0796 -63.1856
L43.6014 -63.3308
L43.1209 -63.4676
L42.6381 -63.5961
L42.1534 -63.7162
z
" id="C0_2_4cf7c071c5"/>
    </defs>
    <g clip-path="url(#p1bffca34e9)">
     <use style="fill:#ffffff;stroke:#000000;stroke-width:2.0;" x="0.0" xlink:href="#C0_0_a811fe30f3" y="72.0"/>
    </g>
    <g clip-path="url(#p1bffca34e9)">
     <use style="fill:#ff0000;stroke:#000000;stroke-width:2.0;" x="0.0" xlink:href="#C0_1_98359a3466" y="72.0"/>
    </g>
    <g clip-path="url(#p1bffca34e9)">
     <use style="fill:#ff0000;stroke:#000000;stroke-width:2.0;" x="0.0" xlink:href="#C0_2_4cf7c071c5" y="72.0"/>
    </g>
   </g>
  </g>
 </g>
 <defs>
  <clipPath id="p1bffca34e9">
   <rect height="72.0" width="72.0" x="0.0" y="0.0"/>
  </clipPath>
 </defs>
</svg>
