<?xml version="1.0" encoding="utf-8" standalone="no"?>
<!DOCTYPE svg PUBLIC "-//W3C//DTD SVG 1.1//EN"
  "http://www.w3.org/Graphics/SVG/1.1/DTD/svg11.dtd">
<!-- Created with matplotlib (http://matplotlib.org/) -->
<svg height="72pt" version="1.1" viewBox="0 0 72 72" width="72pt" xmlns="http://www.w3.org/2000/svg" xmlns:xlink="http://www.w3.org/1999/xlink">
 <defs>
  <style type="text/css">
*{stroke-linecap:butt;stroke-linejoin:round;}
  </style>
 </defs>
 <g id="figure_1">
  <g id="patch_1">
   <path d="
M0 72
L72 72
L72 0
L0 0
z
" style="fill:none;"/>
  </g>
  <g id="axes_1">
   <g id="PatchCollection_1">
    <defs>
     <path d="
M36 -7.5
C43.5583 -7.5 50.808 -10.5029 56.1525 -15.8475
C61.4971 -21.192 64.5 -28.4417 64.5 -36
C64.5 -43.5583 61.4971 -50.808 56.1525 -56.1525
C50.808 -61.4971 43.5583 -64.5 36 -64.5
C28.4417 -64.5 21.192 -61.4971 15.8475 -56.1525
C10.5029 -50.808 7.5 -43.5583 7.5 -36
C7.5 -28.4417 10.5029 -21.192 15.8475 -15.8475
C21.192 -10.5029 28.4417 -7.5 36 -7.5
z
" id="C0_0_a811fe30f3"/>
     <path d="
M59.718 -51.5544
L59.4867 -51.4835
L59.2613 -51.3971
L59.0417 -51.2959
L58.8278 -51.1804
L58.6192 -51.0516
L58.4157 -50.91
L58.217 -50.7565
L58.0229 -50.5918
L57.833 -50.4166
L57.647 -50.2317
L57.4646 -50.0377
L57.2856 -49.8355
L57.1096 -49.6256
L56.9364 -49.4087
L56.7657 -49.1855
L56.5972 -48.9564
L56.4307 -48.7221
L56.266 -48.4832
L56.1029 -48.24
L55.9412 -47.9932
L55.7808 -47.743
L55.6214 -47.49
L55.463 -47.2346
L55.3054 -46.977
L55.1485 -46.7176
L54.9923 -46.4568
L54.8366 -46.1948
L54.6813 -45.9319
L54.5264 -45.6683
L54.3719 -45.4043
L54.2176 -45.14
L54.0636 -44.8757
L53.9098 -44.6115
L53.7561 -44.3476
L53.6026 -44.0841
L53.4491 -43.8212
L53.2958 -43.559
L53.1426 -43.2975
L52.9894 -43.0369
L52.8363 -42.7772
L52.6832 -42.5186
L52.5301 -42.261
L52.377 -42.0046
L52.224 -41.7494
L52.071 -41.4954
L51.918 -41.2427
L51.7649 -40.9913
L51.6119 -40.7412
L51.4589 -40.4924
L51.3058 -40.245
L51.1527 -39.9989
L50.9996 -39.7543
L50.8465 -39.5109
L50.6933 -39.2689
L50.54 -39.0283
L50.3867 -38.789
L50.2333 -38.551
L50.0799 -38.3144
L49.9263 -38.079
L49.7727 -37.845
L49.6189 -37.6121
L49.4651 -37.3805
L49.3111 -37.1501
L49.1569 -36.9209
L49.0026 -36.6929
L48.8481 -36.4659
L48.6934 -36.2401
L48.5385 -36.0153
L48.3834 -35.7916
L48.2281 -35.5689
L48.0724 -35.3471
L47.9166 -35.1263
L47.7604 -34.9063
L47.6039 -34.6873
L47.447 -34.469
L47.2898 -34.2516
L47.1322 -34.0349
L46.9742 -33.819
L46.8158 -33.6037
L46.657 -33.3892
L46.4976 -33.1752
L46.3378 -32.9618
L46.1775 -32.749
L46.0166 -32.5366
L45.8551 -32.3248
L45.5304 -32.1134
L45.367 -31.9024
L45.203 -31.6918
L45.0383 -31.4815
L44.8729 -31.2715
L44.7067 -31.0617
L44.5397 -30.8523
L44.3719 -30.643
L44.2033 -30.4338
L44.0338 -30.2248
L43.8634 -30.0159
L43.692 -29.8071
L43.5197 -29.5983
L43.3464 -29.3894
L43.1721 -29.1806
L42.9968 -28.9717
L42.8203 -28.7627
L42.6428 -28.5535
L42.4641 -28.3442
L42.2843 -28.1347
L42.1033 -27.9251
L41.9211 -27.7151
L41.7376 -27.5049
L41.5528 -27.2944
L41.3668 -27.0836
L41.1794 -26.8724
L40.9907 -26.6608
L40.8006 -26.4489
L40.6092 -26.2365
L40.4163 -26.0237
L40.222 -25.8104
L40.0262 -25.5966
L39.829 -25.3824
L39.6303 -25.1676
L39.4302 -24.9523
L39.2285 -24.7364
L39.0254 -24.5199
L38.8207 -24.3029
L38.6145 -24.0853
L38.4069 -23.8671
L38.1978 -23.6482
L37.9871 -23.4288
L37.7751 -23.2087
L37.5616 -22.988
L37.3467 -22.7666
L37.1304 -22.5446
L36.9129 -22.322
L36.694 -22.0987
L36.4739 -21.8748
L36.2527 -21.6503
L36.0304 -21.4251
L35.8071 -21.1993
L35.5829 -20.9728
L35.3579 -20.7458
L35.1323 -20.5181
L34.9061 -20.2899
L34.6796 -20.061
L34.4528 -19.8316
L34.2259 -19.6015
L33.9992 -19.371
L33.7729 -19.1398
L33.5471 -18.9081
L33.3222 -18.6758
L33.0985 -18.443
L32.8761 -18.2096
L32.6555 -17.9756
L32.437 -17.7411
L32.221 -17.506
L32.0078 -17.2703
L31.798 -17.0339
L31.5919 -16.7969
L31.39 -16.5592
L31.1929 -16.3208
L31.0011 -16.0817
L30.8152 -15.8417
L30.6357 -15.6008
L30.4634 -15.359
L30.2988 -15.1162
L30.1425 -14.8724
L29.9954 -14.6274
L29.858 -14.3812
L29.7311 -14.1337
L29.6153 -13.8849
L29.5114 -13.6348
L29.4199 -13.3832
L29.3416 -13.1302
L29.277 -12.8757
L29.2267 -12.6198
L29.1912 -12.3625
L29.1711 -12.1038
L29.1666 -11.8439
L29.1782 -11.5829
L29.2061 -11.3209
L29.2505 -11.0582
L29.3115 -10.7949
L29.3892 -10.5313
L29.4836 -10.2678
L29.5946 -10.0046
L29.722 -9.742
L29.8657 -9.48045
L30.0254 -9.2203
L30.2008 -8.96194
L30.3916 -8.70578
L30.5973 -8.4522
L31.0518 -8.20163
L31.5424 -7.93285
L32.0343 -7.85076
L32.5275 -7.77726
L33.0217 -7.71234
L33.5168 -7.65605
L34.0127 -7.60839
L34.5092 -7.56937
L35.0061 -7.53902
L35.5034 -7.51734
L36.0008 -7.50433
L36.4981 -7.5
L36.9954 -7.50435
L37.4923 -7.51739
L37.9888 -7.5391
L38.4847 -7.56948
L38.9798 -7.60852
L39.474 -7.6562
L39.9672 -7.71253
L40.4591 -7.77746
L40.9497 -7.851
L41.4388 -7.93311
L41.9262 -8.02377
L42.4118 -8.12295
L42.8955 -8.23062
L43.3771 -8.34675
L43.8564 -8.47131
L44.3333 -8.60425
L44.8077 -8.74553
L45.2794 -8.89512
L45.7483 -9.05297
L46.2142 -9.21902
L46.677 -9.39323
L47.1365 -9.57554
L47.5927 -9.76591
L48.0453 -9.96426
L48.4943 -10.1705
L48.9394 -10.3847
L49.3806 -10.6067
L49.8177 -10.8363
L50.2507 -11.0737
L50.6792 -11.3187
L51.1033 -11.5711
L51.5228 -11.831
L51.9376 -12.0983
L52.3475 -12.3729
L52.7525 -12.6546
L53.1523 -12.9435
L53.5469 -13.2393
L53.9362 -13.5422
L54.32 -13.8518
L54.6983 -14.1682
L55.0708 -14.4913
L55.4375 -14.8209
L55.7983 -15.1569
L56.1531 -15.4993
L56.5017 -15.848
L56.8441 -16.2028
L57.1801 -16.5636
L57.5097 -16.9303
L57.8328 -17.3029
L58.1491 -17.6811
L58.4588 -18.065
L58.7616 -18.4542
L59.0574 -18.8489
L59.3463 -19.2487
L59.628 -19.6537
L59.9025 -20.0636
L60.1698 -20.4784
L60.4297 -20.8979
L60.6821 -21.3221
L60.927 -21.7507
L61.1644 -22.1836
L61.394 -22.6207
L61.616 -23.0619
L61.8301 -23.5071
L62.0364 -23.9561
L62.2347 -24.4087
L62.425 -24.8649
L62.6073 -25.3244
L62.7815 -25.7872
L62.9475 -26.2531
L63.1053 -26.722
L63.2549 -27.1937
L63.3962 -27.6681
L63.5291 -28.1451
L63.6536 -28.6244
L63.7697 -29.106
L63.8774 -29.5896
L63.9765 -30.0753
L64.0672 -30.5627
L64.1492 -31.0518
L64.2227 -31.5424
L64.2877 -32.0343
L64.344 -32.5275
L64.3916 -33.0217
L64.4306 -33.5168
L64.461 -34.0127
L64.4827 -34.5092
L64.4957 -35.0061
L64.5 -35.5034
L64.4956 -36.0008
L64.4826 -36.4981
L64.4609 -36.9954
L64.4305 -37.4923
L64.3915 -37.9888
L64.3438 -38.4847
L64.2875 -38.9798
L64.2225 -39.474
L64.149 -39.9672
L64.0669 -40.4591
L63.9762 -40.9497
L63.877 -41.4388
L63.7694 -41.9262
L63.6532 -42.4118
L63.5287 -42.8955
L63.3958 -43.3771
L63.2545 -43.8564
L63.1049 -44.3333
L62.947 -44.8077
L62.781 -45.2794
L62.6068 -45.7483
L62.4245 -46.2142
L62.2341 -46.677
L62.0357 -47.1365
L61.8295 -47.5927
L61.6153 -48.0453
L61.3933 -48.4943
L61.1637 -48.9394
L60.9263 -49.3806
L60.6813 -49.8177
L60.4289 -50.2507
L60.169 -50.6792
z
" id="C0_1_847761eb56"/>
     <path d="
M41.175 -64.0055
L40.8724 -63.8571
L40.5646 -63.7079
L40.2524 -63.5578
L39.9363 -63.4065
L39.6171 -63.2539
L39.2952 -63.0998
L38.9713 -62.9441
L38.6459 -62.7867
L38.3194 -62.6275
L37.9923 -62.4663
L37.665 -62.3032
L37.3379 -62.1381
L37.0114 -61.971
L36.6857 -61.8018
L36.3613 -61.6306
L36.0383 -61.4574
L35.717 -61.2822
L35.3976 -61.105
L35.0803 -60.9258
L34.7653 -60.7447
L34.4528 -60.5618
L34.1429 -60.3771
L33.8357 -60.1906
L33.5314 -60.0024
L33.2299 -59.8125
L32.9315 -59.621
L32.6361 -59.428
L32.3439 -59.2335
L32.0548 -59.0376
L31.7689 -58.8403
L31.4863 -58.6417
L31.2069 -58.4418
L30.9307 -58.2406
L30.6578 -58.0383
L30.3881 -57.8349
L30.1217 -57.6303
L29.8585 -57.4247
L29.5985 -57.2181
L29.3417 -57.0105
L29.0881 -56.802
L28.8376 -56.5926
L28.5901 -56.3822
L28.3458 -56.1711
L28.1044 -55.959
L27.8661 -55.7462
L27.6307 -55.5325
L27.3982 -55.3181
L27.1685 -55.1029
L26.9416 -54.8869
L26.7176 -54.6702
L26.4962 -54.4527
L26.2775 -54.2344
L26.0615 -54.0155
L25.848 -53.7957
L25.6371 -53.5753
L25.4287 -53.354
L25.2227 -53.132
L25.0191 -52.9093
L24.8179 -52.6857
L24.619 -52.4614
L24.4223 -52.2362
L24.2279 -52.0103
L24.0357 -51.7834
L23.8456 -51.5558
L23.6576 -51.3272
L23.4717 -51.0978
L23.2878 -50.8674
L23.1058 -50.6361
L22.9259 -50.4038
L22.7478 -50.1705
L22.5717 -49.9362
L22.3973 -49.7008
L22.2248 -49.4644
L22.0541 -49.2268
L21.8851 -48.9881
L21.7179 -48.7481
L21.5523 -48.507
L21.3884 -48.2646
L21.2262 -48.0209
L21.0656 -47.7759
L20.9065 -47.5296
L20.7491 -47.2818
L20.5932 -47.0326
L20.4389 -46.7819
L20.2861 -46.5296
L20.1347 -46.2759
L19.9849 -46.0204
L19.8366 -45.7634
L19.6897 -45.5046
L19.5443 -45.2442
L19.4003 -44.9819
L19.2578 -44.7178
L19.1167 -44.4518
L18.977 -44.184
L18.8388 -43.9141
L18.702 -43.6423
L18.5667 -43.3684
L18.4328 -43.0925
L18.3003 -42.8144
L18.1692 -42.5341
L18.0397 -42.2516
L17.9115 -41.9668
L17.7849 -41.6798
L17.6597 -41.3904
L17.5361 -41.0986
L17.4139 -40.8044
L17.2933 -40.5077
L17.1742 -40.2086
L17.0567 -39.9069
L16.9408 -39.6027
L16.8265 -39.296
L16.7138 -38.9866
L16.6028 -38.6746
L16.4935 -38.3599
L16.3859 -38.0426
L16.2801 -37.7227
L16.176 -37.4001
L16.0737 -37.0748
L15.9732 -36.7468
L15.8746 -36.4162
L15.7779 -36.0829
L15.6831 -35.747
L15.5902 -35.4086
L15.4993 -35.0676
L15.4104 -34.724
L15.3235 -34.3781
L15.2386 -34.0297
L15.1558 -33.679
L15.075 -33.3261
L14.9962 -32.9711
L14.9195 -32.614
L14.8448 -32.2551
L14.7721 -31.8944
L14.7015 -31.532
L14.6328 -31.1683
L14.566 -30.8032
L14.501 -30.4371
L14.4379 -30.0701
L14.3764 -29.7025
L14.3165 -29.3345
L14.2581 -28.9664
L14.2009 -28.5985
L14.145 -28.2312
L14.09 -27.8646
L14.0358 -27.4993
L13.9821 -27.1355
L13.9287 -26.7737
L13.8752 -26.4143
L13.8215 -26.0578
L13.7671 -25.7045
L13.7117 -25.355
L13.6549 -25.0097
L13.5963 -24.6693
L13.5355 -24.3341
L13.472 -24.0048
L13.4053 -23.6818
L13.335 -23.3658
L13.2607 -23.0572
L13.1818 -22.7566
L13.0979 -22.4646
L13.0085 -22.1816
L12.9132 -21.9081
L12.8117 -21.6446
L12.7035 -21.3916
L12.5884 -21.1494
L12.4661 -20.9185
L12.3364 -20.6991
L11.8538 -20.4916
L11.5933 -20.8603
L11.3402 -21.284
L11.0946 -21.7122
L10.8565 -22.1447
L10.6262 -22.5815
L10.4036 -23.0223
L10.1887 -23.4672
L9.98176 -23.9158
L9.78272 -24.3681
L9.59166 -24.8239
L9.40865 -25.2832
L9.23374 -25.7457
L9.06698 -26.2114
L8.90843 -26.68
L8.75812 -27.1515
L8.61612 -27.6256
L8.48246 -28.1023
L8.35718 -28.5815
L8.24032 -29.0628
L8.13191 -29.5463
L8.032 -30.0318
L7.9406 -30.5191
L7.85775 -31.008
L7.78348 -31.4985
L7.71779 -31.9903
L7.66073 -32.4834
L7.61229 -32.9775
L7.57251 -33.4725
L7.54138 -33.9683
L7.51892 -34.4648
L7.50514 -34.9617
L7.50003 -35.4589
L7.50361 -35.9563
L7.51587 -36.4537
L7.5368 -36.951
L7.56641 -37.4479
L7.60468 -37.9445
L7.65159 -38.4404
L7.70714 -38.9356
L7.77131 -39.4299
L7.84408 -39.9232
L7.92542 -40.4152
L8.01532 -40.9059
L8.11374 -41.3952
L8.22066 -41.8827
L8.33603 -42.3685
L8.45984 -42.8524
L8.59203 -43.3341
L8.73257 -43.8136
L8.88142 -44.2908
L9.03852 -44.7654
L9.20385 -45.2374
L9.37733 -45.7065
L9.55892 -46.1727
L9.74857 -46.6358
L9.94621 -47.0956
L10.1518 -47.5521
L10.3652 -48.005
L10.5865 -48.4543
L10.8155 -48.8998
L11.0522 -49.3413
L11.2965 -49.7788
L11.5483 -50.2121
L11.8075 -50.6411
L12.0741 -51.0656
L12.348 -51.4855
L12.6291 -51.9008
L12.9174 -52.3111
L13.2126 -52.7165
L13.5148 -53.1168
L13.8239 -53.5119
L14.1397 -53.9016
L14.4621 -54.2859
L14.7912 -54.6647
L15.1266 -55.0377
L15.4685 -55.405
L15.8166 -55.7663
L16.1708 -56.1216
L16.5311 -56.4708
L16.8973 -56.8138
L17.2694 -57.1504
L17.6471 -57.4805
L18.0304 -57.8042
L18.4192 -58.1211
L18.8134 -58.4314
L19.2128 -58.7348
L19.6173 -59.0313
L20.0268 -59.3207
L20.4412 -59.6031
L20.8603 -59.8783
L21.284 -60.1462
L21.7122 -60.4067
L22.1447 -60.6598
L22.5815 -60.9054
L23.0223 -61.1435
L23.4672 -61.3738
L23.9158 -61.5964
L24.3681 -61.8113
L24.8239 -62.0182
L25.2832 -62.2173
L25.7457 -62.4083
L26.2114 -62.5914
L26.68 -62.7663
L27.1515 -62.933
L27.6256 -63.0916
L28.1023 -63.2419
L28.5815 -63.3839
L29.0628 -63.5175
L29.5463 -63.6428
L30.0318 -63.7597
L30.5191 -63.8681
L31.008 -63.968
L31.4985 -64.0594
L31.9903 -64.1422
L32.4834 -64.2165
L32.9775 -64.2822
L33.4725 -64.3393
L33.9683 -64.3877
L34.4648 -64.4275
L34.9617 -64.4586
L35.4589 -64.4811
L35.9563 -64.4949
L36.4537 -64.5
L36.951 -64.4964
L37.4479 -64.4841
L37.9445 -64.4632
L38.4404 -64.4336
L38.9356 -64.3953
L39.4299 -64.3484
L39.9232 -64.2929
L40.4152 -64.2287
z
" id="C0_2_c4e390ebb6"/>
    </defs>
    <g clip-path="url(#p1bffca34e9)">
     <use style="fill:#ff0000;stroke:#000000;stroke-width:2.0;" x="0.0" xlink:href="#C0_0_a811fe30f3" y="72.0"/>
    </g>
    <g clip-path="url(#p1bffca34e9)">
     <use style="fill:#ffffff;stroke:#000000;stroke-width:2.0;" x="0.0" xlink:href="#C0_1_847761eb56" y="72.0"/>
    </g>
    <g clip-path="url(#p1bffca34e9)">
     <use style="fill:#ffffff;stroke:#000000;stroke-width:2.0;" x="0.0" xlink:href="#C0_2_c4e390ebb6" y="72.0"/>
    </g>
   </g>
  </g>
 </g>
 <defs>
  <clipPath id="p1bffca34e9">
   <rect height="72.0" width="72.0" x="0.0" y="0.0"/>
  </clipPath>
 </defs>
</svg>
