<?xml version="1.0" encoding="utf-8" standalone="no"?>
<!DOCTYPE svg PUBLIC "-//W3C//DTD SVG 1.1//EN"
  "http://www.w3.org/Graphics/SVG/1.1/DTD/svg11.dtd">
<!-- Created with matplotlib (http://matplotlib.org/) -->
<svg height="72pt" version="1.1" viewBox="0 0 72 72" width="72pt" xmlns="http://www.w3.org/2000/svg" xmlns:xlink="http://www.w3.org/1999/xlink">
 <defs>
  <style type="text/css">
*{stroke-linecap:butt;stroke-linejoin:round;}
  </style>
 </defs>
 <g id="figure_1">
  <g id="patch_1">
   <path d="
M0 72
L72 72
L72 0
L0 0
z
" style="fill:none;"/>
  </g>
  <g id="axes_1">
   <g id="PatchCollection_1">
    <defs>
     <path d="
M36 -7.5
C43.5583 -7.5 50.808 -10.5029 56.1525 -15.8475
C61.4971 -21.192 64.5 -28.4417 64.5 -36
C64.5 -43.5583 61.4971 -50.808 56.1525 -56.1525
C50.808 -61.4971 43.5583 -64.5 36 -64.5
C28.4417 -64.5 21.192 -61.4971 15.8475 -56.1525
C10.5029 -50.808 7.5 -43.5583 7.5 -36
C7.5 -28.4417 10.5029 -21.192 15.8475 -15.8475
C21.192 -10.5029 28.4417 -7.5 36 -7.5
z
" id="C0_0_a811fe30f3"/>
     <path d="
M39.27 -47.9509
L39.4939 -47.8085
L39.717 -47.6646
L39.9393 -47.5191
L40.1608 -47.3719
L40.3816 -47.2231
L40.6017 -47.0726
L40.8213 -46.9204
L41.0402 -46.7664
L41.2585 -46.6107
L41.4763 -46.4531
L41.6936 -46.2937
L41.9105 -46.1323
L42.1269 -45.969
L42.3429 -45.8037
L42.5586 -45.6364
L42.7738 -45.467
L42.9888 -45.2955
L43.2035 -45.1218
L43.4178 -44.9458
L43.6319 -44.7676
L43.8458 -44.5871
L44.0594 -44.4041
L44.2728 -44.2187
L44.486 -44.0308
L44.6989 -43.8403
L44.9117 -43.6472
L45.1243 -43.4514
L45.3367 -43.2528
L45.5489 -43.0514
L45.7609 -42.8472
L45.9727 -42.64
L46.1842 -42.4298
L46.3955 -42.2165
L46.6066 -42
L46.8173 -41.7804
L47.0278 -41.5574
L47.2378 -41.3311
L47.4475 -41.1014
L47.6568 -40.8681
L47.8655 -40.6313
L48.0738 -40.3909
L48.2814 -40.1467
L48.4883 -39.8988
L48.6944 -39.647
L48.8998 -39.3913
L49.1042 -39.1317
L49.3075 -38.868
L49.5097 -38.6002
L49.7106 -38.3283
L49.9102 -38.0522
L50.1081 -37.7718
L50.3044 -37.4871
L50.4989 -37.1981
L50.6913 -36.9046
L50.8814 -36.6068
L51.0692 -36.3046
L51.2543 -35.9979
L51.4365 -35.6867
L51.6155 -35.3711
L51.7912 -35.0511
L51.9632 -34.7266
L52.1311 -34.3977
L52.2947 -34.0645
L52.4537 -33.727
L52.6076 -33.3852
L52.756 -33.0393
L52.8986 -32.6894
L53.0349 -32.3355
L53.1643 -31.9779
L53.2865 -31.6167
L53.4009 -31.2521
L53.5069 -30.8842
L53.604 -30.5134
L53.6915 -30.1398
L53.7688 -29.7639
L53.8352 -29.3858
L53.8901 -29.006
L53.9327 -28.6249
L53.9623 -28.2428
L53.9782 -27.8602
L53.9797 -27.4777
L53.9661 -27.0958
L53.9366 -26.7149
L53.8907 -26.3357
L53.8279 -25.9588
L53.7475 -25.5848
L53.6492 -25.2144
L53.5328 -24.8482
L53.398 -24.4868
L53.2448 -24.1309
L53.0734 -23.781
L52.8839 -23.4377
L52.6769 -23.1016
L52.4527 -22.7731
L52.212 -22.4527
L51.9555 -22.1408
L51.6841 -21.8376
L51.3986 -21.5436
L51.0999 -21.2588
L50.7889 -20.9835
L50.4667 -20.7179
L50.134 -20.462
L49.792 -20.2159
L49.4413 -19.9795
L49.0831 -19.753
L48.718 -19.5362
L48.3469 -19.3291
L47.9705 -19.1315
L47.5896 -18.9435
L47.2049 -18.7648
L46.8169 -18.5953
L46.4262 -18.4349
L46.0335 -18.2834
L45.6391 -18.1406
L45.2437 -18.0063
L44.8476 -17.8804
L44.4512 -17.7627
L44.0549 -17.6529
L43.659 -17.5509
L43.2639 -17.4565
L42.8699 -17.3695
L42.4771 -17.2896
L42.0858 -17.2168
L41.6963 -17.1507
L41.3087 -17.0912
L40.9233 -17.0381
L40.54 -16.9912
L40.1591 -16.9504
L39.7808 -16.9154
L39.405 -16.886
L39.0319 -16.8622
L38.6616 -16.8437
L38.2941 -16.8303
L37.9296 -16.822
L37.5679 -16.8185
L37.2092 -16.8197
L36.8534 -16.8255
L36.5007 -16.8358
L36.1509 -16.8503
L35.8042 -16.869
L35.4605 -16.8917
L35.1197 -16.9184
L34.782 -16.9489
L34.4472 -16.9831
L34.1153 -17.0209
L33.7863 -17.0622
L33.4602 -17.107
L33.1369 -17.155
L32.8164 -17.2064
L32.4987 -17.2609
L32.1836 -17.3185
L31.8713 -17.3792
L31.5616 -17.4428
L31.2544 -17.5094
L30.9498 -17.5788
L30.6477 -17.651
L30.348 -17.726
L30.0506 -17.8036
L29.7556 -17.884
L29.4629 -17.9669
L29.1724 -18.0525
L28.884 -18.1406
L28.5978 -18.2313
L28.3136 -18.3245
L28.0315 -18.4202
L27.7513 -18.5184
L27.4731 -18.619
L27.1967 -18.7221
L26.9221 -18.8276
L26.6493 -18.9356
L26.3781 -19.046
L26.1087 -19.1589
L25.8409 -19.2742
L25.5746 -19.3919
L25.3099 -19.5121
L25.0467 -19.6348
L24.7849 -19.76
L24.5245 -19.8877
L24.2655 -20.0178
L24.0078 -20.1506
L23.7514 -20.2859
L23.4962 -20.4238
L23.2422 -20.5643
L22.9894 -20.7074
L22.7378 -20.8533
L22.4873 -21.0019
L22.2378 -21.1532
L21.9895 -21.3074
L21.7421 -21.4644
L21.4958 -21.6244
L21.2504 -21.7872
L21.006 -21.9531
L20.7626 -22.122
L20.5201 -22.2941
L20.2785 -22.4693
L20.0379 -22.6478
L19.7981 -22.8295
L19.5593 -23.0147
L19.3213 -23.2032
L19.0843 -23.3953
L18.8481 -23.591
L18.6129 -23.7903
L18.3786 -23.9933
L18.1452 -24.2002
L17.9128 -24.411
L17.6814 -24.6258
L17.451 -24.8446
L17.2216 -25.0676
L16.9933 -25.2949
L16.7662 -25.5265
L16.5402 -25.7626
L16.3154 -26.0032
L16.0919 -26.2484
L15.8697 -26.4984
L15.649 -26.7532
L15.4298 -27.013
L15.2121 -27.2778
L14.9961 -27.5478
L14.7819 -27.823
L14.5695 -28.1036
L14.3592 -28.3896
L14.151 -28.6812
L13.945 -28.9785
L13.7415 -29.2815
L13.5405 -29.5904
L13.3422 -29.9052
L13.1469 -30.226
L12.9546 -30.553
L12.7657 -30.8861
L12.5803 -31.2255
L12.3986 -31.5712
L12.2209 -31.9233
L12.0474 -32.2819
L11.8784 -32.6469
L11.7142 -33.0184
L11.555 -33.3964
L11.4013 -33.7809
L11.2532 -34.1718
L11.1112 -34.5692
L10.9756 -34.973
L10.8468 -35.3831
L10.7251 -35.7993
L10.611 -36.2216
L10.5048 -36.6498
L10.407 -37.0837
L10.3181 -37.523
L10.2384 -37.9676
L10.1685 -38.417
L10.1087 -38.8709
L10.0597 -39.329
L10.0218 -39.7908
L9.99556 -40.2557
L9.98147 -40.7233
L9.98 -41.1929
L9.99163 -41.6638
L10.0168 -42.1354
L10.056 -42.6067
L10.1097 -43.0771
L10.1781 -43.5454
L10.2617 -44.0108
L10.3608 -44.4723
L10.4757 -44.9288
L10.6064 -45.3791
L10.7532 -45.8223
L10.916 -46.2571
L11.0948 -46.6825
L11.2894 -47.0975
L11.4996 -47.501
L11.725 -47.8922
L11.9651 -48.2701
L12.2194 -48.6341
L12.4872 -48.9836
L12.7678 -49.318
L13.0605 -49.6371
L13.3643 -49.9406
L13.6784 -50.2284
L14.0021 -50.5005
L14.3343 -50.757
L14.6741 -50.9981
L15.0209 -51.2241
L15.3737 -51.4354
L15.7317 -51.6322
L16.0942 -51.8149
L16.4605 -51.9842
L16.8299 -52.1402
L17.2017 -52.2837
L17.5755 -52.415
L17.9507 -52.5345
L18.3267 -52.6428
L18.7032 -52.7403
L19.0796 -52.8275
L19.4557 -52.9048
L19.8311 -52.9727
L20.2054 -53.0314
L20.5785 -53.0816
L20.9499 -53.1234
L21.3195 -53.1574
L21.6871 -53.1838
L22.0525 -53.2031
L22.4155 -53.2155
L22.776 -53.2213
L23.1338 -53.2209
L23.4889 -53.2145
L23.8412 -53.2025
L24.1905 -53.1851
L24.5368 -53.1625
L24.88 -53.135
L25.2202 -53.1027
L25.5572 -53.0661
L25.891 -53.0251
L26.2217 -52.9801
L26.5492 -52.9312
L26.8735 -52.8786
L27.1946 -52.8224
L27.5126 -52.7629
L27.8274 -52.7001
L28.1391 -52.6343
L28.4477 -52.5655
L28.7532 -52.4939
L29.0557 -52.4195
L29.3553 -52.3426
L29.6518 -52.2632
L29.9455 -52.1814
L30.2363 -52.0973
L30.5243 -52.011
L30.8096 -51.9225
L31.0921 -51.832
L31.372 -51.7395
L31.6494 -51.6451
L31.9241 -51.5489
L32.1964 -51.4508
L32.4663 -51.351
L32.7338 -51.2495
L32.999 -51.1464
L33.2619 -51.0416
L33.5227 -50.9352
L33.7813 -50.8273
L34.0378 -50.7179
L34.2924 -50.607
L34.5449 -50.4946
L34.7956 -50.3808
L35.0444 -50.2655
L35.2915 -50.1489
L35.5368 -50.0308
L35.7804 -49.9113
L36.0224 -49.7904
L36.2629 -49.6682
L36.5018 -49.5446
L36.7393 -49.4195
L36.9754 -49.2931
L37.2101 -49.1654
L37.4435 -49.0362
L37.6757 -48.9056
L37.9067 -48.7736
L38.1365 -48.6401
L38.3652 -48.5052
L38.5929 -48.3689
L38.8196 -48.2311
z
" id="C0_1_8d542953aa"/>
    </defs>
    <g clip-path="url(#p1bffca34e9)">
     <use style="fill:#ffffff;stroke:#000000;stroke-width:2.0;" x="0.0" xlink:href="#C0_0_a811fe30f3" y="72.0"/>
    </g>
    <g clip-path="url(#p1bffca34e9)">
     <use style="fill:#ff0000;stroke:#000000;stroke-width:2.0;" x="0.0" xlink:href="#C0_1_8d542953aa" y="72.0"/>
    </g>
   </g>
  </g>
 </g>
 <defs>
  <clipPath id="p1bffca34e9">
   <rect height="72.0" width="72.0" x="0.0" y="0.0"/>
  </clipPath>
 </defs>
</svg>
