<?xml version="1.0" encoding="utf-8" standalone="no"?>
<!DOCTYPE svg PUBLIC "-//W3C//DTD SVG 1.1//EN"
  "http://www.w3.org/Graphics/SVG/1.1/DTD/svg11.dtd">
<!-- Created with matplotlib (http://matplotlib.org/) -->
<svg height="72pt" version="1.1" viewBox="0 0 72 72" width="72pt" xmlns="http://www.w3.org/2000/svg" xmlns:xlink="http://www.w3.org/1999/xlink">
 <defs>
  <style type="text/css">
*{stroke-linecap:butt;stroke-linejoin:round;}
  </style>
 </defs>
 <g id="figure_1">
  <g id="patch_1">
   <path d="
M0 72
L72 72
L72 0
L0 0
z
" style="fill:none;"/>
  </g>
  <g id="axes_1">
   <g id="PatchCollection_1">
    <defs>
     <path d="
M36 -7.5
C43.5583 -7.5 50.808 -10.5029 56.1525 -15.8475
C61.4971 -21.192 64.5 -28.4417 64.5 -36
C64.5 -43.5583 61.4971 -50.808 56.1525 -56.1525
C50.808 -61.4971 43.5583 -64.5 36 -64.5
C28.4417 -64.5 21.192 -61.4971 15.8475 -56.1525
C10.5029 -50.808 7.5 -43.5583 7.5 -36
C7.5 -28.4417 10.5029 -21.192 15.8475 -15.8475
C21.192 -10.5029 28.4417 -7.5 36 -7.5
z
" id="C0_0_a811fe30f3"/>
     <path d="
M24.9105 -23.104
L25.1368 -22.9118
L25.3653 -22.7223
L25.5962 -22.5355
L25.8294 -22.3515
L26.065 -22.1702
L26.3028 -21.9916
L26.543 -21.8158
L26.7854 -21.6428
L27.0302 -21.4726
L27.2774 -21.3051
L27.5268 -21.1405
L27.7786 -20.9788
L28.0327 -20.8199
L28.2892 -20.6639
L28.548 -20.5108
L28.8092 -20.3607
L29.0727 -20.2136
L29.3385 -20.0695
L29.6068 -19.9285
L29.8773 -19.7906
L30.1503 -19.6558
L30.4256 -19.5243
L30.7033 -19.3959
L30.9834 -19.2709
L31.2658 -19.1492
L31.5506 -19.0309
L31.8377 -18.9161
L32.1272 -18.8047
L32.419 -18.697
L32.7132 -18.5929
L33.0097 -18.4925
L33.3085 -18.396
L33.6096 -18.3033
L33.913 -18.2145
L34.2186 -18.1298
L34.5265 -18.0492
L34.8365 -17.9728
L35.1488 -17.9006
L35.4631 -17.8329
L35.7796 -17.7697
L36.0981 -17.711
L36.4186 -17.657
L36.7411 -17.6077
L37.0654 -17.5634
L37.3916 -17.524
L37.7195 -17.4898
L38.0491 -17.4608
L38.3804 -17.4371
L38.7131 -17.4188
L39.0473 -17.4061
L39.3828 -17.3991
L39.7195 -17.3979
L40.0574 -17.4026
L40.3962 -17.4133
L40.7359 -17.4302
L41.0763 -17.4534
L41.4173 -17.4829
L41.7588 -17.519
L42.1005 -17.5617
L42.4423 -17.6111
L42.7841 -17.6674
L43.1256 -17.7306
L43.4667 -17.8009
L43.8071 -17.8784
L44.1468 -17.9631
L44.4853 -18.0551
L44.8226 -18.1546
L45.1584 -18.2616
L45.4924 -18.3761
L45.8244 -18.4983
L46.1543 -18.6281
L46.4816 -18.7657
L46.8062 -18.911
L47.1279 -19.0642
L47.4462 -19.2251
L47.7611 -19.3937
L48.0721 -19.5702
L48.3791 -19.7544
L48.6818 -19.9463
L48.9798 -20.1459
L49.273 -20.353
L49.5611 -20.5677
L49.8438 -20.7898
L50.1209 -21.0191
L50.3921 -21.2557
L50.6572 -21.4992
L50.9159 -21.7497
L51.1681 -22.0069
L51.4135 -22.2706
L51.652 -22.5407
L51.8833 -22.8169
L52.1073 -23.099
L52.3238 -23.3869
L52.5326 -23.6802
L52.7337 -23.9788
L52.927 -24.2824
L53.1123 -24.5907
L53.2895 -24.9035
L53.4586 -25.2204
L53.6195 -25.5414
L53.7721 -25.866
L53.9165 -26.194
L54.0527 -26.5251
L54.1806 -26.859
L54.3002 -27.1956
L54.4116 -27.5345
L54.5148 -27.8754
L54.6099 -28.2181
L54.6969 -28.5624
L54.7758 -28.9079
L54.8469 -29.2545
L54.9101 -29.602
L54.9656 -29.95
L55.0134 -30.2983
L55.0537 -30.6469
L55.0866 -30.9953
L55.1122 -31.3435
L55.1306 -31.6913
L55.1419 -32.0384
L55.1464 -32.3848
L55.1441 -32.7302
L55.1351 -33.0744
L55.1196 -33.4174
L55.0977 -33.759
L55.0697 -34.0991
L55.0355 -34.4374
L54.9953 -34.7741
L54.9494 -35.1088
L54.8977 -35.4415
L54.8405 -35.7722
L54.7779 -36.1007
L54.71 -36.427
L54.637 -36.7509
L54.5589 -37.0725
L54.476 -37.3916
L54.3882 -37.7082
L54.2958 -38.0222
L54.1988 -38.3337
L54.0974 -38.6425
L53.9917 -38.9486
L53.8817 -39.252
L53.7677 -39.5527
L53.6496 -39.8506
L53.5276 -40.1457
L53.4018 -40.438
L53.2722 -40.7275
L53.139 -41.0142
L53.0023 -41.298
L52.862 -41.579
L52.7184 -41.8571
L52.5714 -42.1324
L52.4212 -42.4048
L52.2677 -42.6743
L52.1112 -42.941
L51.9516 -43.2049
L51.7889 -43.4659
L51.6234 -43.724
L51.4549 -43.9794
L51.2836 -44.2319
L51.1094 -44.4815
L50.9325 -44.7284
L50.7529 -44.9725
L50.5707 -45.2138
L50.3857 -45.4523
L50.1982 -45.688
L50.0081 -45.921
L49.8155 -46.1512
L49.6203 -46.3786
L49.4227 -46.6034
L49.2225 -46.8253
L49.02 -47.0446
L48.815 -47.2611
L48.6076 -47.475
L48.3978 -47.6861
L48.1856 -47.8945
L47.9711 -48.1002
L47.7542 -48.3032
L47.535 -48.5035
L47.3134 -48.7011
L47.0895 -48.896
L46.8632 -49.0882
L46.6347 -49.2777
L46.4038 -49.4645
L46.1706 -49.6485
L45.935 -49.8298
L45.6972 -50.0084
L45.457 -50.1842
L45.2146 -50.3572
L44.9698 -50.5274
L44.7226 -50.6949
L44.4732 -50.8595
L44.2214 -51.0212
L43.9673 -51.1801
L43.7108 -51.3361
L43.452 -51.4892
L43.1908 -51.6393
L42.9273 -51.7864
L42.6615 -51.9305
L42.3932 -52.0715
L42.1227 -52.2094
L41.8497 -52.3442
L41.5744 -52.4757
L41.2967 -52.6041
L41.0166 -52.7291
L40.7342 -52.8508
L40.4494 -52.9691
L40.1623 -53.0839
L39.8728 -53.1953
L39.581 -53.303
L39.2868 -53.4071
L38.9903 -53.5075
L38.6915 -53.604
L38.3904 -53.6967
L38.087 -53.7855
L37.7814 -53.8702
L37.4735 -53.9508
L37.1635 -54.0272
L36.8512 -54.0994
L36.5369 -54.1671
L36.2204 -54.2303
L35.9019 -54.289
L35.5814 -54.343
L35.2589 -54.3923
L34.9346 -54.4366
L34.6084 -54.476
L34.2805 -54.5102
L33.9509 -54.5392
L33.6196 -54.5629
L33.2869 -54.5812
L32.9527 -54.5939
L32.6172 -54.6009
L32.2805 -54.6021
L31.9426 -54.5974
L31.6038 -54.5867
L31.2641 -54.5698
L30.9237 -54.5466
L30.5827 -54.5171
L30.2412 -54.481
L29.8995 -54.4383
L29.5577 -54.3889
L29.2159 -54.3326
L28.8744 -54.2694
L28.5333 -54.1991
L28.1929 -54.1216
L27.8532 -54.0369
L27.5147 -53.9449
L27.1774 -53.8454
L26.8416 -53.7384
L26.5076 -53.6239
L26.1756 -53.5017
L25.8457 -53.3719
L25.5184 -53.2343
L25.1938 -53.089
L24.8721 -52.9358
L24.5538 -52.7749
L24.2389 -52.6063
L23.9279 -52.4298
L23.6209 -52.2456
L23.3182 -52.0537
L23.0202 -51.8541
L22.727 -51.647
L22.4389 -51.4323
L22.1562 -51.2102
L21.8791 -50.9809
L21.6079 -50.7443
L21.3428 -50.5008
L21.0841 -50.2503
L20.8319 -49.9931
L20.5865 -49.7294
L20.348 -49.4593
L20.1167 -49.1831
L19.8927 -48.901
L19.6762 -48.6131
L19.4674 -48.3198
L19.2663 -48.0212
L19.073 -47.7176
L18.8877 -47.4093
L18.7105 -47.0965
L18.5414 -46.7796
L18.3805 -46.4586
L18.2279 -46.134
L18.0835 -45.806
L17.9473 -45.4749
L17.8194 -45.141
L17.6998 -44.8044
L17.5884 -44.4655
L17.4852 -44.1246
L17.3901 -43.7819
L17.3031 -43.4376
L17.2242 -43.0921
L17.1531 -42.7455
L17.0899 -42.398
L17.0344 -42.05
L16.9866 -41.7017
L16.9463 -41.3531
L16.9134 -41.0047
L16.8878 -40.6565
L16.8694 -40.3087
L16.8581 -39.9616
L16.8536 -39.6152
L16.8559 -39.2698
L16.8649 -38.9256
L16.8804 -38.5826
L16.9023 -38.241
L16.9303 -37.9009
L16.9645 -37.5626
L17.0047 -37.2259
L17.0506 -36.8912
L17.1023 -36.5585
L17.1595 -36.2278
L17.2221 -35.8993
L17.29 -35.573
L17.363 -35.2491
L17.4411 -34.9275
L17.524 -34.6084
L17.6118 -34.2918
L17.7042 -33.9778
L17.8012 -33.6663
L17.9026 -33.3575
L18.0083 -33.0514
L18.1183 -32.748
L18.2323 -32.4473
L18.3504 -32.1494
L18.4724 -31.8543
L18.5982 -31.562
L18.7278 -31.2725
L18.861 -30.9858
L18.9977 -30.702
L19.138 -30.421
L19.2816 -30.1429
L19.4286 -29.8676
L19.5788 -29.5952
L19.7323 -29.3257
L19.8888 -29.059
L20.0484 -28.7951
L20.2111 -28.5341
L20.3766 -28.276
L20.5451 -28.0206
L20.7164 -27.7681
L20.8906 -27.5185
L21.0675 -27.2716
L21.2471 -27.0275
L21.4293 -26.7862
L21.6143 -26.5477
L21.8018 -26.312
L21.9919 -26.079
L22.1845 -25.8488
L22.3797 -25.6214
L22.5773 -25.3966
L22.7775 -25.1747
L22.98 -24.9554
L23.185 -24.7389
L23.3924 -24.525
L23.6022 -24.3139
L23.8144 -24.1055
L24.0289 -23.8998
L24.2458 -23.6968
L24.465 -23.4965
z
" id="C0_1_41cfc49005"/>
    </defs>
    <g clip-path="url(#p1bffca34e9)">
     <use style="fill:#ff0000;stroke:#000000;stroke-width:2.0;" x="0.0" xlink:href="#C0_0_a811fe30f3" y="72.0"/>
    </g>
    <g clip-path="url(#p1bffca34e9)">
     <use style="fill:#ffffff;stroke:#000000;stroke-width:2.0;" x="0.0" xlink:href="#C0_1_41cfc49005" y="72.0"/>
    </g>
   </g>
  </g>
 </g>
 <defs>
  <clipPath id="p1bffca34e9">
   <rect height="72.0" width="72.0" x="0.0" y="0.0"/>
  </clipPath>
 </defs>
</svg>
