<?xml version="1.0" encoding="utf-8" standalone="no"?>
<!DOCTYPE svg PUBLIC "-//W3C//DTD SVG 1.1//EN"
  "http://www.w3.org/Graphics/SVG/1.1/DTD/svg11.dtd">
<!-- Created with matplotlib (http://matplotlib.org/) -->
<svg height="72pt" version="1.1" viewBox="0 0 72 72" width="72pt" xmlns="http://www.w3.org/2000/svg" xmlns:xlink="http://www.w3.org/1999/xlink">
 <defs>
  <style type="text/css">
*{stroke-linecap:butt;stroke-linejoin:round;}
  </style>
 </defs>
 <g id="figure_1">
  <g id="patch_1">
   <path d="
M0 72
L72 72
L72 0
L0 0
z
" style="fill:none;"/>
  </g>
  <g id="axes_1">
   <g id="PatchCollection_1">
    <defs>
     <path d="
M36 -7.5
C43.5583 -7.5 50.808 -10.5029 56.1525 -15.8475
C61.4971 -21.192 64.5 -28.4417 64.5 -36
C64.5 -43.5583 61.4971 -50.808 56.1525 -56.1525
C50.808 -61.4971 43.5583 -64.5 36 -64.5
C28.4417 -64.5 21.192 -61.4971 15.8475 -56.1525
C10.5029 -50.808 7.5 -43.5583 7.5 -36
C7.5 -28.4417 10.5029 -21.192 15.8475 -15.8475
C21.192 -10.5029 28.4417 -7.5 36 -7.5
z
" id="C0_0_a811fe30f3"/>
     <path d="
M24.2918 -10.1791
L24.346 -10.3614
L24.4023 -10.5441
L24.5206 -10.7273
L24.5826 -10.9109
L24.6465 -11.095
L24.7123 -11.2797
L24.78 -11.4649
L24.8494 -11.6506
L24.9208 -11.837
L24.9939 -12.024
L25.0689 -12.2116
L25.1456 -12.4
L25.2242 -12.589
L25.3046 -12.7788
L25.3868 -12.9693
L25.4709 -13.1606
L25.5567 -13.3528
L25.6444 -13.5458
L25.7339 -13.7396
L25.8253 -13.9343
L25.9185 -14.13
L26.0135 -14.3266
L26.1105 -14.5241
L26.2093 -14.7226
L26.31 -14.9221
L26.4127 -15.1226
L26.5173 -15.3242
L26.6239 -15.5268
L26.7324 -15.7305
L26.843 -15.9353
L26.9556 -16.1411
L27.0702 -16.3481
L27.1869 -16.5562
L27.3057 -16.7655
L27.4267 -16.9758
L27.5498 -17.1873
L27.675 -17.4
L27.8025 -17.6138
L27.9323 -17.8288
L28.0643 -18.0449
L28.1986 -18.2621
L28.3353 -18.4805
L28.4743 -18.7
L28.6157 -18.9205
L28.7596 -19.1422
L28.906 -19.3649
L29.0549 -19.5886
L29.2063 -19.8133
L29.3603 -20.039
L29.5169 -20.2655
L29.6762 -20.493
L29.8382 -20.7212
L30.0029 -20.9503
L30.1704 -21.18
L30.3407 -21.4103
L30.5138 -21.6412
L30.6899 -21.8726
L30.8688 -22.1043
L31.0507 -22.3363
L31.2357 -22.5685
L31.4236 -22.8008
L31.6146 -23.0331
L31.8088 -23.2651
L32.0061 -23.4969
L32.2065 -23.7282
L32.4102 -23.9589
L32.6171 -24.1889
L32.8273 -24.4179
L33.0408 -24.6459
L33.2576 -24.8726
L33.4778 -25.0979
L33.7014 -25.3215
L33.9283 -25.5432
L34.1587 -25.7629
L34.3926 -25.9803
L34.6298 -26.1953
L34.8706 -26.4075
L35.1148 -26.6168
L35.3624 -26.823
L35.6135 -27.0258
L35.868 -27.2249
L36.126 -27.4203
L36.3874 -27.6117
L36.6521 -27.7987
L36.9201 -27.9814
L37.1915 -28.1594
L37.466 -28.3325
L37.7438 -28.5007
L38.0246 -28.6636
L38.3084 -28.8213
L38.5951 -28.9734
L38.8847 -29.12
L39.177 -29.261
L39.4719 -29.3961
L39.7692 -29.5254
L40.0689 -29.6489
L40.3708 -29.7665
L40.6748 -29.8781
L40.9806 -29.9839
L41.2882 -30.0838
L41.5974 -30.1778
L41.9079 -30.2661
L42.2198 -30.3487
L42.5326 -30.4257
L42.8464 -30.4972
L43.1609 -30.5633
L43.476 -30.6241
L43.7914 -30.6798
L44.107 -30.7305
L44.4226 -30.7763
L44.7382 -30.8174
L45.0534 -30.8539
L45.3682 -30.886
L45.6823 -30.9139
L45.9958 -30.9377
L46.3083 -30.9575
L46.6198 -30.9735
L46.9302 -30.9858
L47.2393 -30.9947
L47.547 -31.0002
L47.8532 -31.0025
L48.1579 -31.0017
L48.4608 -30.998
L48.762 -30.9914
L49.0613 -30.9822
L49.3587 -30.9704
L49.654 -30.9561
L49.9473 -30.9395
L50.2385 -30.9206
L50.5275 -30.8997
L50.8143 -30.8766
L51.0988 -30.8517
L51.381 -30.8248
L51.6609 -30.7962
L51.9385 -30.7659
L52.2136 -30.734
L52.4864 -30.7005
L52.7568 -30.6655
L53.0247 -30.6291
L53.2902 -30.5913
L53.5533 -30.5522
L53.8139 -30.5119
L54.0722 -30.4703
L54.328 -30.4276
L54.5814 -30.3837
L54.8324 -30.3387
L55.081 -30.2927
L55.3272 -30.2457
L55.571 -30.1977
L55.8126 -30.1487
L56.0517 -30.0988
L56.2886 -30.048
L56.5232 -29.9963
L56.7555 -29.9437
L56.9856 -29.8903
L57.2135 -29.836
L57.4391 -29.7809
L57.6626 -29.7249
L57.884 -29.6682
L58.1032 -29.6106
L58.3203 -29.5523
L58.5353 -29.4932
L58.7483 -29.4332
L58.9593 -29.3725
L59.1683 -29.311
L59.3753 -29.2486
L59.5804 -29.1855
L59.7835 -29.1216
L59.9847 -29.0568
L60.184 -28.9912
L60.3815 -28.9248
L60.5771 -28.8575
L60.771 -28.7894
L60.963 -28.7203
L61.1532 -28.6504
L61.3417 -28.5795
L61.5284 -28.5077
L61.7134 -28.435
L61.8966 -28.3612
L62.0782 -28.2865
L62.2581 -28.2107
L62.4363 -28.1338
L62.6128 -28.0559
L62.7876 -27.9768
L62.9608 -27.8965
L63.1323 -27.8151
L63.1133 -27.7324
L62.9559 -27.2182
L62.7903 -26.7463
L62.6165 -26.2773
L62.4346 -25.8112
L62.2447 -25.3483
L62.0468 -24.8885
L61.8409 -24.4322
L61.6272 -23.9794
L61.4057 -23.5302
L61.1764 -23.0849
L60.9395 -22.6434
L60.6949 -22.2061
L60.4429 -21.7729
L60.1834 -21.3441
L59.9165 -20.9197
L59.6424 -20.5
L59.361 -20.0849
L59.0725 -19.6748
L58.777 -19.2695
L58.4746 -18.8694
L58.1653 -18.4745
L57.8493 -18.0849
L57.5266 -17.7008
L57.1973 -17.3223
L56.8616 -16.9495
L56.5196 -16.5824
L56.1712 -16.2213
L55.8168 -15.8662
L55.4563 -15.5172
L55.0899 -15.1745
L54.7176 -14.8381
L54.3397 -14.5081
L53.9562 -14.1848
L53.5672 -13.868
L53.1729 -13.558
L52.7733 -13.2548
L52.3686 -12.9586
L51.9589 -12.6694
L51.5444 -12.3872
L51.1251 -12.1123
L50.7013 -11.8447
L50.2729 -11.5844
L49.8402 -11.3315
L49.4033 -11.0862
L48.9623 -10.8484
L48.5174 -10.6183
L48.0686 -10.396
L47.6162 -10.1814
L47.1602 -9.97473
L46.7008 -9.77596
L46.2382 -9.58518
L45.7724 -9.40245
L45.3037 -9.22782
L44.8321 -9.06135
L44.3579 -8.90308
L43.8811 -8.75306
L43.4019 -8.61135
L42.9204 -8.47797
L42.4369 -8.35299
L41.9514 -8.23642
L41.464 -8.12831
L40.975 -8.02869
L40.4845 -7.93759
L39.9926 -7.85503
L39.4995 -7.78106
L39.0054 -7.71567
L38.5103 -7.6589
L38.0145 -7.61077
L37.518 -7.57128
L37.0211 -7.54046
L36.5239 -7.5183
L36.0265 -7.50481
L35.5291 -7.50001
L35.0318 -7.50389
L34.5349 -7.51645
L34.0383 -7.53769
L33.5424 -7.56759
L33.0473 -7.60616
L32.553 -7.65337
L32.0598 -7.70922
L31.5678 -7.77369
L31.0771 -7.84675
L30.5879 -7.9284
L30.1004 -8.01859
L29.6147 -8.1173
L29.1309 -8.22451
L28.6492 -8.34018
L28.1698 -8.46428
L27.6927 -8.59676
L27.2182 -8.73759
L26.7463 -8.88672
L26.2773 -9.04412
L25.8112 -9.20972
L25.3483 -9.38349
L24.8885 -9.56536
z
" id="C0_1_4f60aa5a3d"/>
     <path d="
M8.79535 -44.3218
L8.98417 -44.2973
L9.17453 -44.2734
L9.36646 -44.2498
L9.55998 -44.2268
L9.75512 -44.2042
L9.95189 -44.182
L10.1503 -44.1602
L10.3504 -44.1389
L10.5522 -44.1179
L10.7558 -44.0974
L10.9611 -44.0772
L11.1682 -44.0574
L11.3771 -44.038
L11.5879 -44.019
L11.8005 -44.0004
L12.0151 -43.9822
L12.2315 -43.9643
L12.4499 -43.9468
L12.6703 -43.9297
L12.8927 -43.913
L13.1171 -43.8967
L13.3436 -43.8808
L13.5722 -43.8653
L13.8029 -43.8503
L14.0358 -43.8356
L14.2708 -43.8214
L14.5081 -43.8077
L14.7475 -43.7945
L14.9892 -43.7817
L15.2332 -43.7695
L15.4794 -43.7578
L15.728 -43.7466
L15.9788 -43.7361
L16.2321 -43.7261
L16.4876 -43.7168
L16.7456 -43.7081
L17.0059 -43.7002
L17.2686 -43.693
L17.5337 -43.6866
L17.8012 -43.681
L18.0711 -43.6763
L18.3433 -43.6725
L18.618 -43.6696
L18.895 -43.6678
L19.1743 -43.6671
L19.456 -43.6675
L19.74 -43.6691
L20.0263 -43.6719
L20.3149 -43.6762
L20.6056 -43.6818
L20.8985 -43.689
L21.1936 -43.6977
L21.4907 -43.7082
L21.7898 -43.7204
L22.0908 -43.7345
L22.3938 -43.7506
L22.6985 -43.7687
L23.0049 -43.7891
L23.313 -43.8118
L23.6225 -43.8369
L23.9335 -43.8646
L24.2458 -43.895
L24.5593 -43.9282
L24.8739 -43.9644
L25.1894 -44.0038
L25.5057 -44.0463
L25.8227 -44.0923
L26.1402 -44.1418
L26.4581 -44.1949
L26.7763 -44.2519
L27.0945 -44.3129
L27.4126 -44.378
L27.7304 -44.4473
L28.0479 -44.5211
L28.3648 -44.5993
L28.6809 -44.6821
L28.9961 -44.7697
L29.3103 -44.8621
L29.6232 -44.9594
L29.9347 -45.0617
L30.2447 -45.169
L30.5531 -45.2815
L30.8596 -45.3991
L31.1641 -45.5218
L31.4665 -45.6496
L31.7667 -45.7826
L32.0646 -45.9206
L32.3601 -46.0636
L32.653 -46.2116
L32.9433 -46.3644
L33.2309 -46.5219
L33.5158 -46.6841
L33.7978 -46.8507
L34.0769 -47.0216
L34.353 -47.1967
L34.6262 -47.3758
L34.8964 -47.5587
L35.1635 -47.7451
L35.4276 -47.935
L35.6886 -48.128
L35.9465 -48.324
L36.2013 -48.5229
L36.453 -48.7242
L36.7016 -48.9279
L36.9472 -49.1338
L37.1897 -49.3416
L37.4292 -49.5511
L37.6656 -49.7622
L37.899 -49.9746
L38.1294 -50.1882
L38.3568 -50.4027
L38.5813 -50.6181
L38.8029 -50.834
L39.0216 -51.0505
L39.2374 -51.2672
L39.4504 -51.4842
L39.6606 -51.7011
L39.868 -51.918
L40.0727 -52.1347
L40.2747 -52.351
L40.474 -52.5669
L40.6706 -52.7823
L40.8646 -52.997
L41.0561 -53.211
L41.245 -53.4242
L41.4315 -53.6366
L41.6154 -53.848
L41.7969 -54.0585
L41.976 -54.2678
L42.1528 -54.4761
L42.3272 -54.6833
L42.4992 -54.8893
L42.6691 -55.094
L42.8367 -55.2975
L43.0021 -55.4998
L43.1653 -55.7007
L43.3264 -55.9003
L43.4853 -56.0987
L43.6422 -56.2956
L43.7971 -56.4913
L43.95 -56.6855
L44.1009 -56.8784
L44.2498 -57.07
L44.3968 -57.2602
L44.5419 -57.4491
L44.6852 -57.6366
L44.8266 -57.8228
L44.9662 -58.0076
L45.1041 -58.1912
L45.2402 -58.3734
L45.3745 -58.5544
L45.5072 -58.734
L45.6381 -58.9124
L45.7674 -59.0896
L45.8951 -59.2656
L46.0212 -59.4403
L46.1456 -59.6139
L46.2685 -59.7863
L46.3898 -59.9576
L46.5096 -60.1277
L46.6278 -60.2968
L46.7445 -60.4648
L46.8597 -60.6317
L46.9735 -60.7976
L47.0857 -60.9625
L47.1965 -61.1265
L47.3058 -61.2894
L47.4137 -61.4515
L47.5201 -61.6126
L47.625 -61.7729
L47.2895 -61.9323
L46.8311 -62.1686
L46.3694 -62.3617
L45.9045 -62.5467
L45.4366 -62.7236
L44.9658 -62.8924
L44.4923 -63.053
L44.0162 -63.2053
L43.5377 -63.3494
L43.0569 -63.4851
L42.5739 -63.6125
L42.0889 -63.7315
L41.6021 -63.842
L41.1135 -63.944
L40.6234 -64.0375
L40.1319 -64.1225
L39.6392 -64.1989
L39.1453 -64.2667
L38.6504 -64.3259
L38.1548 -64.3765
L37.6585 -64.4184
L37.1617 -64.4517
L36.6645 -64.4763
L36.1672 -64.4923
L35.6698 -64.4995
L35.1725 -64.4981
L34.6754 -64.488
L34.1787 -64.4692
L33.6827 -64.4417
L33.1873 -64.4056
L32.6927 -64.3609
L32.1992 -64.3075
L31.7068 -64.2454
L31.2158 -64.1748
L30.7261 -64.0956
L30.2381 -64.0078
L29.7519 -63.9115
L29.2676 -63.8067
L28.7853 -63.6934
L28.3052 -63.5717
L27.8274 -63.4416
L27.3522 -63.3031
L26.8795 -63.1563
L26.4097 -63.0012
L25.9428 -62.838
L25.4789 -62.6665
L25.0182 -62.4869
L24.5609 -62.2993
L24.1071 -62.1036
L23.6569 -61.9
L23.2105 -61.6885
L22.7679 -61.4691
L22.3294 -61.2421
L21.895 -61.0073
L21.465 -60.7649
L21.0393 -60.515
L20.6183 -60.2575
L20.2019 -59.9928
L19.7903 -59.7207
L19.3837 -59.4413
L18.9821 -59.1549
L18.5857 -58.8613
L18.1946 -58.5608
L17.8089 -58.2535
L17.4288 -57.9394
L17.0543 -57.6185
L16.6857 -57.2911
L16.3228 -56.9572
L15.966 -56.617
L15.6153 -56.2704
L15.2708 -55.9177
L14.9326 -55.5589
L14.6008 -55.1941
L14.2756 -54.8235
L13.9569 -54.4472
L13.645 -54.0652
L13.3399 -53.6778
L13.0417 -53.285
L12.7505 -52.8868
L12.4663 -52.4836
L12.1894 -52.0753
L11.9196 -51.6622
L11.6573 -51.2442
L11.4023 -50.8216
L11.1548 -50.3945
L10.9149 -49.9631
L10.6827 -49.5273
L10.4581 -49.0875
L10.2413 -48.6436
L10.0324 -48.1959
L9.83139 -47.7445
L9.63834 -47.2895
L9.45333 -46.8311
L9.2764 -46.3694
L9.10761 -45.9045
L8.94702 -45.4366
z
" id="C0_2_b465a202c7"/>
    </defs>
    <g clip-path="url(#p1bffca34e9)">
     <use style="fill:#ffffff;stroke:#000000;stroke-width:2.0;" x="0.0" xlink:href="#C0_0_a811fe30f3" y="72.0"/>
    </g>
    <g clip-path="url(#p1bffca34e9)">
     <use style="fill:#ff0000;stroke:#000000;stroke-width:2.0;" x="0.0" xlink:href="#C0_1_4f60aa5a3d" y="72.0"/>
    </g>
    <g clip-path="url(#p1bffca34e9)">
     <use style="fill:#ff0000;stroke:#000000;stroke-width:2.0;" x="0.0" xlink:href="#C0_2_b465a202c7" y="72.0"/>
    </g>
   </g>
  </g>
 </g>
 <defs>
  <clipPath id="p1bffca34e9">
   <rect height="72.0" width="72.0" x="0.0" y="0.0"/>
  </clipPath>
 </defs>
</svg>
