<?xml version="1.0" encoding="utf-8" standalone="no"?>
<!DOCTYPE svg PUBLIC "-//W3C//DTD SVG 1.1//EN"
  "http://www.w3.org/Graphics/SVG/1.1/DTD/svg11.dtd">
<!-- Created with matplotlib (http://matplotlib.org/) -->
<svg height="72pt" version="1.1" viewBox="0 0 72 72" width="72pt" xmlns="http://www.w3.org/2000/svg" xmlns:xlink="http://www.w3.org/1999/xlink">
 <defs>
  <style type="text/css">
*{stroke-linecap:butt;stroke-linejoin:round;}
  </style>
 </defs>
 <g id="figure_1">
  <g id="patch_1">
   <path d="
M0 72
L72 72
L72 0
L0 0
z
" style="fill:none;"/>
  </g>
  <g id="axes_1">
   <g id="PatchCollection_1">
    <defs>
     <path d="
M36 -7.5
C43.5583 -7.5 50.808 -10.5029 56.1525 -15.8475
C61.4971 -21.192 64.5 -28.4417 64.5 -36
C64.5 -43.5583 61.4971 -50.808 56.1525 -56.1525
C50.808 -61.4971 43.5583 -64.5 36 -64.5
C28.4417 -64.5 21.192 -61.4971 15.8475 -56.1525
C10.5029 -50.808 7.5 -43.5583 7.5 -36
C7.5 -28.4417 10.5029 -21.192 15.8475 -15.8475
C21.192 -10.5029 28.4417 -7.5 36 -7.5
z
" id="C0_0_a811fe30f3"/>
     <path d="
M37.9084 -48.7641
L37.6463 -48.6643
L37.3852 -48.5615
L37.1251 -48.4558
L36.8661 -48.3472
L36.6082 -48.2357
L36.3514 -48.1214
L36.0956 -48.0041
L35.8409 -47.8839
L35.5873 -47.7609
L35.3348 -47.635
L35.0835 -47.5062
L34.8333 -47.3745
L34.5842 -47.2399
L34.3363 -47.1025
L34.0896 -46.9621
L33.8441 -46.8189
L33.5999 -46.6728
L33.3568 -46.5237
L33.1151 -46.3718
L32.8746 -46.2169
L32.6355 -46.0591
L32.3978 -45.8984
L32.1614 -45.7348
L31.9264 -45.5681
L31.6929 -45.3986
L31.4609 -45.226
L31.2304 -45.0505
L31.0015 -44.872
L30.7742 -44.6905
L30.5486 -44.5059
L30.3247 -44.3184
L30.1025 -44.1278
L29.8821 -43.9342
L29.6637 -43.7375
L29.4471 -43.5378
L29.2325 -43.335
L29.02 -43.1291
L28.8097 -42.9202
L28.6015 -42.7082
L28.3955 -42.4931
L28.192 -42.2749
L27.9908 -42.0535
L27.7921 -41.8292
L27.5961 -41.6017
L27.4027 -41.3711
L27.212 -41.1374
L27.0243 -40.9007
L26.8394 -40.6608
L26.6577 -40.4179
L26.4791 -40.172
L26.3037 -39.923
L26.1318 -39.6711
L25.9633 -39.4161
L25.7984 -39.1581
L25.6373 -38.8973
L25.48 -38.6334
L25.3266 -38.3668
L25.1773 -38.0972
L25.0322 -37.8249
L24.8915 -37.5498
L24.7552 -37.272
L24.6235 -36.9916
L24.4965 -36.7085
L24.3744 -36.4229
L24.2573 -36.1348
L24.1452 -35.8443
L24.0385 -35.5515
L23.9371 -35.2565
L23.8412 -34.9592
L23.7509 -34.6599
L23.6665 -34.3586
L23.5879 -34.0554
L23.5153 -33.7504
L23.4489 -33.4438
L23.3887 -33.1355
L23.3348 -32.8258
L23.2875 -32.5148
L23.2467 -32.2026
L23.2126 -31.8893
L23.1852 -31.575
L23.1647 -31.2599
L23.1512 -30.9442
L23.1446 -30.628
L23.1451 -30.3113
L23.1528 -29.9945
L23.1676 -29.6776
L23.1896 -29.3608
L23.2189 -29.0442
L23.2555 -28.728
L23.2994 -28.4124
L23.3506 -28.0976
L23.4091 -27.7836
L23.4749 -27.4707
L23.5479 -27.159
L23.6283 -26.8487
L23.7158 -26.5399
L23.8105 -26.2328
L23.9123 -25.9277
L24.0211 -25.6245
L24.137 -25.3235
L24.2597 -25.0248
L24.3893 -24.7286
L24.5256 -24.4351
L24.6685 -24.1443
L24.818 -23.8564
L24.9739 -23.5716
L25.1361 -23.2899
L25.3045 -23.0115
L25.4789 -22.7366
L25.6593 -22.4652
L25.8454 -22.1974
L26.0372 -21.9334
L26.2346 -21.6732
L26.4373 -21.4171
L26.6453 -21.1649
L26.8584 -20.9169
L27.0764 -20.6731
L27.2992 -20.4336
L27.5267 -20.1985
L27.7588 -19.9678
L27.9952 -19.7416
L28.2358 -19.52
L28.4805 -19.303
L28.7292 -19.0906
L28.9817 -18.883
L29.2378 -18.6801
L29.4975 -18.4819
L29.7605 -18.2886
L30.0268 -18.1001
L30.2963 -17.9165
L30.5687 -17.7378
L30.844 -17.564
L31.1221 -17.3951
L31.4028 -17.2311
L31.686 -17.0721
L31.9717 -16.9181
L32.2596 -16.769
L32.5497 -16.6248
L32.8419 -16.4857
L33.1361 -16.3515
L33.4321 -16.2223
L33.7299 -16.098
L34.0294 -15.9787
L34.3305 -15.8644
L34.6332 -15.7549
L34.9372 -15.6505
L35.2426 -15.5509
L35.5492 -15.4563
L35.8571 -15.3666
L36.166 -15.2818
L36.476 -15.2018
L36.787 -15.1268
L37.0989 -15.0566
L37.4116 -14.9913
L37.7251 -14.9309
L38.0393 -14.8752
L38.3542 -14.8245
L38.6697 -14.7785
L38.9858 -14.7374
L39.3023 -14.701
L39.6193 -14.6695
L39.9367 -14.6427
L40.2544 -14.6208
L40.5724 -14.6036
L40.8907 -14.5912
L41.2092 -14.5836
L41.5278 -14.5808
L41.8466 -14.5828
L42.1655 -14.5895
L42.4844 -14.601
L42.8032 -14.6173
L43.1221 -14.6384
L43.4408 -14.6642
L43.7595 -14.6949
L44.0779 -14.7304
L44.3961 -14.7707
L44.7141 -14.8158
L45.0318 -14.8658
L45.3492 -14.9206
L45.6662 -14.9802
L45.9828 -15.0448
L46.2989 -15.1142
L46.6145 -15.1886
L46.9296 -15.2678
L47.244 -15.3521
L47.5578 -15.4413
L47.871 -15.5355
L48.1834 -15.6347
L48.4949 -15.7389
L48.8057 -15.8482
L49.1155 -15.9626
L49.4244 -16.0821
L49.7323 -16.2068
L50.0391 -16.3366
L50.3448 -16.4716
L50.6492 -16.6118
L50.9524 -16.7573
L51.2542 -16.9081
L51.5547 -17.0641
L51.8536 -17.2255
L52.1509 -17.3923
L52.4467 -17.5645
L52.7406 -17.742
L53.0328 -17.9251
L53.323 -18.1136
L53.6112 -18.3075
L53.8973 -18.507
L54.1812 -18.7121
L54.4628 -18.9227
L54.742 -19.1389
L55.0186 -19.3607
L55.2926 -19.5881
L55.5638 -19.8211
L55.8321 -20.0598
L56.0974 -20.304
L56.3595 -20.554
L56.6183 -20.8095
L56.8737 -21.0707
L57.1255 -21.3375
L57.3736 -21.6099
L57.6178 -21.8879
L57.858 -22.1715
L58.094 -22.4606
L58.3257 -22.7552
L58.5529 -23.0552
L58.7753 -23.3606
L58.9929 -23.6714
L59.2055 -23.9874
L59.4129 -24.3087
L59.615 -24.6351
L59.8114 -24.9665
L60.0022 -25.3028
L60.187 -25.644
L60.3658 -25.9899
L60.5382 -26.3404
L60.7042 -26.6954
L60.8636 -27.0547
L61.0161 -27.4181
L61.1617 -27.7856
L61.3 -28.1568
L61.4311 -28.5317
L61.5546 -28.9101
L61.6705 -29.2916
L61.7785 -29.6762
L61.8785 -30.0636
L61.9705 -30.4536
L62.0541 -30.8459
L62.1294 -31.2402
L62.1961 -31.6363
L62.2542 -32.034
L62.3035 -32.4329
L62.344 -32.8328
L62.3756 -33.2334
L62.3982 -33.6344
L62.4118 -34.0354
L62.4162 -34.4362
L62.4115 -34.8364
L62.3976 -35.2358
L62.3746 -35.634
L62.3424 -36.0308
L62.301 -36.4258
L62.2506 -36.8186
L62.191 -37.209
L62.1225 -37.5967
L62.045 -37.9814
L61.9586 -38.3628
L61.8635 -38.7406
L61.7598 -39.1144
L61.6475 -39.4842
L61.5268 -39.8494
L61.3979 -40.21
L61.261 -40.5657
L61.1161 -40.9162
L60.9635 -41.2614
L60.8033 -41.6009
L60.6358 -41.9347
L60.4612 -42.2625
L60.2796 -42.5842
L60.0913 -42.8996
L59.8964 -43.2086
L59.6953 -43.511
L59.4881 -43.8067
L59.275 -44.0957
L59.0564 -44.3778
L58.8323 -44.6529
L58.6031 -44.9211
L58.369 -45.1822
L58.1302 -45.4362
L57.8868 -45.6832
L57.6393 -45.923
L57.3877 -46.1556
L57.1323 -46.3811
L56.8732 -46.5995
L56.6108 -46.8108
L56.3452 -47.015
L56.0766 -47.2122
L55.8052 -47.4025
L55.5312 -47.5858
L55.2548 -47.7622
L54.9761 -47.9318
L54.6953 -48.0947
L54.4127 -48.2508
L54.1283 -48.4005
L53.8423 -48.5436
L53.5548 -48.6802
L53.2661 -48.8106
L52.9762 -48.9346
L52.6853 -49.0526
L52.3934 -49.1644
L52.1008 -49.2703
L51.8075 -49.3703
L51.5137 -49.4645
L51.2194 -49.553
L50.9247 -49.6359
L50.6298 -49.7133
L50.3347 -49.7853
L50.0395 -49.852
L49.7444 -49.9135
L49.4492 -49.9699
L49.1542 -50.0212
L48.8595 -50.0675
L48.565 -50.1091
L48.2708 -50.1458
L47.977 -50.1778
L47.6836 -50.2053
L47.3907 -50.2282
L47.0983 -50.2467
L46.8065 -50.2608
L46.5153 -50.2706
L46.2248 -50.2762
L45.9349 -50.2776
L45.6457 -50.275
L45.3573 -50.2684
L45.0697 -50.2578
L44.7828 -50.2434
L44.4967 -50.2251
L44.2115 -50.2031
L43.9271 -50.1774
L43.6436 -50.148
L43.3609 -50.1151
L43.0792 -50.0786
L42.7984 -50.0386
L42.5184 -49.9951
L42.2395 -49.9482
L41.9614 -49.898
L41.6843 -49.8445
L41.4082 -49.7877
L41.133 -49.7276
L40.8589 -49.6643
L40.5856 -49.5979
L40.3134 -49.5282
L40.0422 -49.4555
L39.7719 -49.3797
L39.5027 -49.3008
L39.2344 -49.2188
L38.9672 -49.1339
L38.7009 -49.0459
L38.4357 -48.9549
z
" id="C0_1_142a21ca4f"/>
    </defs>
    <g clip-path="url(#p1bffca34e9)">
     <use style="fill:#ffffff;stroke:#000000;stroke-width:2.0;" x="0.0" xlink:href="#C0_0_a811fe30f3" y="72.0"/>
    </g>
    <g clip-path="url(#p1bffca34e9)">
     <use style="fill:#ff0000;stroke:#000000;stroke-width:2.0;" x="0.0" xlink:href="#C0_1_142a21ca4f" y="72.0"/>
    </g>
   </g>
  </g>
 </g>
 <defs>
  <clipPath id="p1bffca34e9">
   <rect height="72.0" width="72.0" x="0.0" y="0.0"/>
  </clipPath>
 </defs>
</svg>
