<?xml version="1.0" encoding="utf-8" standalone="no"?>
<!DOCTYPE svg PUBLIC "-//W3C//DTD SVG 1.1//EN"
  "http://www.w3.org/Graphics/SVG/1.1/DTD/svg11.dtd">
<!-- Created with matplotlib (http://matplotlib.org/) -->
<svg height="72pt" version="1.1" viewBox="0 0 72 72" width="72pt" xmlns="http://www.w3.org/2000/svg" xmlns:xlink="http://www.w3.org/1999/xlink">
 <defs>
  <style type="text/css">
*{stroke-linecap:butt;stroke-linejoin:round;}
  </style>
 </defs>
 <g id="figure_1">
  <g id="patch_1">
   <path d="
M0 72
L72 72
L72 0
L0 0
z
" style="fill:none;"/>
  </g>
  <g id="axes_1">
   <g id="PatchCollection_1">
    <defs>
     <path d="
M36 -7.5
C43.5583 -7.5 50.808 -10.5029 56.1525 -15.8475
C61.4971 -21.192 64.5 -28.4417 64.5 -36
C64.5 -43.5583 61.4971 -50.808 56.1525 -56.1525
C50.808 -61.4971 43.5583 -64.5 36 -64.5
C28.4417 -64.5 21.192 -61.4971 15.8475 -56.1525
C10.5029 -50.808 7.5 -43.5583 7.5 -36
C7.5 -28.4417 10.5029 -21.192 15.8475 -15.8475
C21.192 -10.5029 28.4417 -7.5 36 -7.5
z
" id="C0_0_a811fe30f3"/>
     <path d="
M25.4762 -47.9345
L25.7518 -47.9929
L26.0282 -48.0481
L26.3052 -48.1001
L26.583 -48.1488
L26.8613 -48.1944
L27.1404 -48.2368
L27.42 -48.276
L27.7004 -48.312
L27.9813 -48.3448
L28.2629 -48.3745
L28.5451 -48.401
L28.8279 -48.4242
L29.1113 -48.4443
L29.3954 -48.4612
L29.68 -48.4748
L29.9652 -48.4852
L30.2509 -48.4923
L30.5372 -48.4962
L30.8241 -48.4969
L31.1114 -48.4942
L31.3993 -48.4882
L31.6877 -48.4788
L31.9766 -48.4661
L32.2659 -48.45
L32.5557 -48.4305
L32.8459 -48.4075
L33.1364 -48.3811
L33.4274 -48.3511
L33.7186 -48.3176
L34.0102 -48.2806
L34.302 -48.2399
L34.5941 -48.1956
L34.8863 -48.1476
L35.1787 -48.0959
L35.4712 -48.0405
L35.7638 -47.9812
L36.0564 -47.9181
L36.3489 -47.8511
L36.6413 -47.7802
L36.9336 -47.7053
L37.2256 -47.6264
L37.5174 -47.5434
L37.8087 -47.4564
L38.0996 -47.3651
L38.39 -47.2697
L38.6798 -47.17
L38.9689 -47.066
L39.2571 -46.9577
L39.5445 -46.845
L39.8309 -46.7279
L40.1162 -46.6063
L40.4003 -46.4802
L40.683 -46.3495
L40.9643 -46.2143
L41.244 -46.0743
L41.522 -45.9297
L41.7982 -45.7804
L42.0724 -45.6264
L42.3445 -45.4676
L42.6143 -45.3039
L42.8817 -45.1354
L43.1466 -44.9621
L43.4087 -44.7839
L43.6678 -44.6008
L43.924 -44.4128
L44.1769 -44.2199
L44.4264 -44.0221
L44.6723 -43.8194
L44.9144 -43.6118
L45.1526 -43.3993
L45.3867 -43.182
L45.6165 -42.9598
L45.8418 -42.7328
L46.0625 -42.501
L46.2783 -42.2645
L46.4892 -42.0233
L46.6948 -41.7775
L46.8951 -41.5272
L47.0898 -41.2723
L47.2789 -41.0131
L47.4621 -40.7496
L47.6393 -40.4818
L47.8103 -40.21
L47.975 -39.9341
L48.1333 -39.6543
L48.285 -39.3708
L48.4301 -39.0837
L48.5683 -38.793
L48.6996 -38.499
L48.824 -38.2018
L48.9412 -37.9016
L49.0513 -37.5985
L49.1542 -37.2926
L49.2498 -36.9842
L49.3381 -36.6734
L49.4191 -36.3605
L49.4927 -36.0454
L49.5589 -35.7286
L49.6177 -35.4101
L49.6692 -35.0901
L49.7133 -34.7688
L49.75 -34.4465
L49.7795 -34.1232
L49.8017 -33.7992
L49.8167 -33.4746
L49.8246 -33.1497
L49.8254 -32.8245
L49.8191 -32.4994
L49.806 -32.1744
L49.7861 -31.8497
L49.7594 -31.5255
L49.726 -31.202
L49.6862 -30.8793
L49.6398 -30.5575
L49.5872 -30.2368
L49.5283 -29.9174
L49.4633 -29.5993
L49.3924 -29.2828
L49.3155 -28.9679
L49.2329 -28.6548
L49.1447 -28.3435
L49.051 -28.0342
L48.9518 -27.727
L48.8474 -27.422
L48.7378 -27.1193
L48.6232 -26.819
L48.5036 -26.5211
L48.3792 -26.2257
L48.2502 -25.9329
L48.1165 -25.6428
L47.9784 -25.3555
L47.8359 -25.0709
L47.6892 -24.7892
L47.5383 -24.5104
L47.3833 -24.2346
L47.2244 -23.9617
L47.0616 -23.6919
L46.8951 -23.4252
L46.7249 -23.1616
L46.5511 -22.9011
L46.3738 -22.6438
L46.1931 -22.3897
L46.0091 -22.1388
L45.8218 -21.8912
L45.6313 -21.6468
L45.4377 -21.4057
L45.2411 -21.1679
L45.0415 -20.9334
L44.8389 -20.7021
L44.6336 -20.4743
L44.4254 -20.2497
L44.2145 -20.0285
L44.0009 -19.8107
L43.7846 -19.5962
L43.5658 -19.385
L43.3444 -19.1773
L43.1205 -18.9729
L42.8942 -18.7719
L42.6654 -18.5743
L42.4343 -18.38
L42.2008 -18.1892
L41.965 -18.0017
L41.7269 -17.8177
L41.4865 -17.637
L41.2439 -17.4598
L40.9991 -17.286
L40.7521 -17.1156
L40.5029 -16.9487
L40.2516 -16.7852
L39.9982 -16.6252
L39.7426 -16.4686
L39.485 -16.3155
L39.2252 -16.1659
L38.9634 -16.0198
L38.6995 -15.8773
L38.4336 -15.7382
L38.1657 -15.6028
L37.8957 -15.4709
L37.6237 -15.3426
L37.3496 -15.2179
L37.0736 -15.0969
L36.7956 -14.9796
L36.5155 -14.866
L36.2335 -14.7561
L35.9495 -14.65
L35.6635 -14.5477
L35.3756 -14.4493
L35.0857 -14.3547
L34.7938 -14.2641
L34.4999 -14.1774
L34.2041 -14.0947
L33.9064 -14.0161
L33.6067 -13.9416
L33.3051 -13.8713
L33.0016 -13.8052
L32.6961 -13.7434
L32.3888 -13.6859
L32.0796 -13.6328
L31.7685 -13.5842
L31.4556 -13.5401
L31.1409 -13.5006
L30.8243 -13.4658
L30.5059 -13.4357
L30.1858 -13.4105
L29.8639 -13.3902
L29.5404 -13.3748
L29.2151 -13.3645
L28.8882 -13.3594
L28.5598 -13.3596
L28.2297 -13.3651
L27.8982 -13.376
L27.5652 -13.3924
L27.2308 -13.4145
L26.8951 -13.4423
L26.5581 -13.4759
L26.2199 -13.5154
L25.8806 -13.561
L25.5402 -13.6127
L25.1989 -13.6706
L24.8567 -13.7349
L24.5138 -13.8056
L24.1702 -13.8829
L23.826 -13.9668
L23.4815 -14.0575
L23.1366 -14.155
L22.7916 -14.2595
L22.4465 -14.3711
L22.1016 -14.4898
L21.7569 -14.6158
L21.4127 -14.7491
L21.0692 -14.8899
L20.7264 -15.0382
L20.3847 -15.1941
L20.0441 -15.3576
L19.705 -15.5289
L19.3675 -15.708
L19.0318 -15.8949
L18.6983 -16.0897
L18.367 -16.2925
L18.0383 -16.5031
L17.7125 -16.7218
L17.3898 -16.9484
L17.0704 -17.183
L16.7547 -17.4255
L16.4428 -17.6759
L16.1353 -17.9342
L15.8322 -18.2002
L15.5339 -18.474
L15.2407 -18.7555
L14.9529 -19.0444
L14.6708 -19.3408
L14.3947 -19.6444
L14.1249 -19.9551
L13.8616 -20.2727
L13.6053 -20.5971
L13.3562 -20.928
L13.1144 -21.2653
L12.8805 -21.6086
L12.6545 -21.9578
L12.4367 -22.3125
L12.2275 -22.6724
L12.027 -23.0374
L11.8354 -23.407
L11.6529 -23.7809
L11.4798 -24.1589
L11.3162 -24.5406
L11.1623 -24.9255
L11.0182 -25.3135
L10.8839 -25.704
L10.7597 -26.0968
L10.6456 -26.4915
L10.5416 -26.8877
L10.4478 -27.285
L10.3642 -27.6831
L10.2908 -28.0817
L10.2277 -28.4803
L10.1746 -28.8786
L10.1317 -29.2762
L10.0988 -29.673
L10.0758 -30.0684
L10.0627 -30.4622
L10.0593 -30.8542
L10.0654 -31.2439
L10.081 -31.6311
L10.1059 -32.0157
L10.1398 -32.3972
L10.1827 -32.7755
L10.2343 -33.1504
L10.2945 -33.5216
L10.363 -33.889
L10.4396 -34.2523
L10.5241 -34.6114
L10.6164 -34.9662
L10.7161 -35.3165
L10.823 -35.6621
L10.937 -36.0031
L11.0578 -36.3392
L11.1853 -36.6704
L11.319 -36.9966
L11.459 -37.3177
L11.6049 -37.6337
L11.7565 -37.9445
L11.9136 -38.2501
L12.076 -38.5505
L12.2436 -38.8457
L12.416 -39.1355
L12.5932 -39.4201
L12.7749 -39.6994
L12.9609 -39.9735
L13.1511 -40.2423
L13.3453 -40.5059
L13.5433 -40.7643
L13.745 -41.0174
L13.9502 -41.2655
L14.1587 -41.5084
L14.3705 -41.7463
L14.5853 -41.9791
L14.803 -42.2069
L15.0236 -42.4298
L15.2468 -42.6478
L15.4726 -42.8609
L15.7008 -43.0693
L15.9314 -43.2729
L16.1642 -43.4718
L16.3992 -43.6661
L16.6362 -43.8558
L16.8751 -44.041
L17.1159 -44.2217
L17.3585 -44.398
L17.6028 -44.57
L17.8487 -44.7376
L18.0962 -44.901
L18.3451 -45.0602
L18.5955 -45.2152
L18.8473 -45.3662
L19.1005 -45.513
L19.3548 -45.6559
L19.6104 -45.7949
L19.8672 -45.9299
L20.1252 -46.0611
L20.3842 -46.1885
L20.6442 -46.3122
L20.9053 -46.4321
L21.1674 -46.5483
L21.4305 -46.6609
L21.6944 -46.7698
L21.9593 -46.8752
L22.2251 -46.9771
L22.4917 -47.0755
L22.7591 -47.1704
L23.0274 -47.2619
L23.2965 -47.3499
L23.5663 -47.4346
L23.837 -47.5159
L24.1083 -47.5939
L24.3805 -47.6686
L24.6533 -47.74
L24.9269 -47.8081
z
" id="C0_1_d3fe2fceda"/>
    </defs>
    <g clip-path="url(#p1bffca34e9)">
     <use style="fill:#ffffff;stroke:#000000;stroke-width:2.0;" x="0.0" xlink:href="#C0_0_a811fe30f3" y="72.0"/>
    </g>
    <g clip-path="url(#p1bffca34e9)">
     <use style="fill:#ff0000;stroke:#000000;stroke-width:2.0;" x="0.0" xlink:href="#C0_1_d3fe2fceda" y="72.0"/>
    </g>
   </g>
  </g>
 </g>
 <defs>
  <clipPath id="p1bffca34e9">
   <rect height="72.0" width="72.0" x="0.0" y="0.0"/>
  </clipPath>
 </defs>
</svg>
