<?xml version="1.0" encoding="utf-8" standalone="no"?>
<!DOCTYPE svg PUBLIC "-//W3C//DTD SVG 1.1//EN"
  "http://www.w3.org/Graphics/SVG/1.1/DTD/svg11.dtd">
<!-- Created with matplotlib (http://matplotlib.org/) -->
<svg height="72pt" version="1.1" viewBox="0 0 72 72" width="72pt" xmlns="http://www.w3.org/2000/svg" xmlns:xlink="http://www.w3.org/1999/xlink">
 <defs>
  <style type="text/css">
*{stroke-linecap:butt;stroke-linejoin:round;}
  </style>
 </defs>
 <g id="figure_1">
  <g id="patch_1">
   <path d="
M0 72
L72 72
L72 0
L0 0
z
" style="fill:none;"/>
  </g>
  <g id="axes_1">
   <g id="PatchCollection_1">
    <defs>
     <path d="
M36 -7.5
C43.5583 -7.5 50.808 -10.5029 56.1525 -15.8475
C61.4971 -21.192 64.5 -28.4417 64.5 -36
C64.5 -43.5583 61.4971 -50.808 56.1525 -56.1525
C50.808 -61.4971 43.5583 -64.5 36 -64.5
C28.4417 -64.5 21.192 -61.4971 15.8475 -56.1525
C10.5029 -50.808 7.5 -43.5583 7.5 -36
C7.5 -28.4417 10.5029 -21.192 15.8475 -15.8475
C21.192 -10.5029 28.4417 -7.5 36 -7.5
z
" id="C0_0_a811fe30f3"/>
     <path d="
M12.8326 -19.6365
L12.8741 -19.9507
L12.9395 -20.2458
L13.0285 -20.5212
L13.1403 -20.7768
L13.2743 -21.0129
L13.4295 -21.2298
L13.6046 -21.4285
L13.7985 -21.6099
L14.0099 -21.7752
L14.2374 -21.9255
L14.4795 -22.0624
L14.7351 -22.1871
L15.0027 -22.3009
L15.2811 -22.4052
L15.5691 -22.5011
L15.8656 -22.5898
L16.1696 -22.6722
L16.4801 -22.7494
L16.7962 -22.822
L17.1172 -22.891
L17.4422 -22.9568
L17.7707 -23.0201
L18.1019 -23.0814
L18.4354 -23.1412
L18.7707 -23.1997
L19.1072 -23.2574
L19.4446 -23.3145
L19.7824 -23.3712
L20.1205 -23.4277
L20.4583 -23.4843
L20.7957 -23.541
L21.1323 -23.598
L21.4681 -23.6553
L21.8027 -23.7131
L22.136 -23.7714
L22.4679 -23.8303
L22.7981 -23.8897
L23.1266 -23.9498
L23.4532 -24.0105
L23.7779 -24.0719
L24.1006 -24.134
L24.4212 -24.1967
L24.7396 -24.2601
L25.0558 -24.3242
L25.3698 -24.3889
L25.6816 -24.4543
L25.9911 -24.5203
L26.2982 -24.5869
L26.6031 -24.6542
L26.9056 -24.7221
L27.2059 -24.7905
L27.5039 -24.8596
L27.7996 -24.9292
L28.0931 -24.9993
L28.3844 -25.07
L28.6734 -25.1412
L28.9603 -25.2129
L29.2451 -25.2852
L29.5278 -25.3579
L29.8084 -25.4311
L30.087 -25.5049
L30.3637 -25.579
L30.6384 -25.6537
L30.9113 -25.7288
L31.1824 -25.8044
L31.4516 -25.8804
L31.7192 -25.9569
L31.9851 -26.0339
L32.2493 -26.1113
L32.512 -26.1891
L32.7732 -26.2674
L33.0329 -26.3462
L33.2913 -26.4254
L33.5483 -26.5052
L33.8039 -26.5853
L34.0584 -26.666
L34.3117 -26.7472
L34.5638 -26.8288
L34.8149 -26.9109
L35.0649 -26.9936
L35.314 -27.0768
L35.5622 -27.1605
L35.8096 -27.2448
L36.0562 -27.3296
L36.302 -27.415
L36.5471 -27.501
L36.7916 -27.5876
L37.0356 -27.6748
L37.279 -27.7626
L37.522 -27.8511
L37.7645 -27.9402
L38.2486 -28.0301
L38.4903 -28.1206
L38.7318 -28.2118
L38.9731 -28.3038
L39.2143 -28.3966
L39.4555 -28.4902
L39.6968 -28.5845
L39.938 -28.6797
L40.1795 -28.7758
L40.4211 -28.8727
L40.6629 -28.9705
L40.905 -29.0693
L41.1474 -29.169
L41.3902 -29.2697
L41.6334 -29.3715
L41.8771 -29.4742
L42.1214 -29.5781
L42.3662 -29.683
L42.6116 -29.789
L42.8577 -29.8962
L43.1045 -30.0047
L43.3521 -30.1143
L43.6005 -30.2252
L43.8497 -30.3373
L44.0999 -30.4508
L44.351 -30.5657
L44.603 -30.6819
L44.8561 -30.7996
L45.1103 -30.9187
L45.3655 -31.0393
L45.6219 -31.1614
L45.8795 -31.2851
L46.1383 -31.4104
L46.3983 -31.5373
L46.6596 -31.6659
L46.9222 -31.7962
L47.1861 -31.9282
L47.4514 -32.062
L47.718 -32.1976
L47.986 -32.335
L48.2555 -32.4742
L48.5264 -32.6154
L48.7987 -32.7584
L49.0724 -32.9034
L49.3476 -33.0504
L49.6242 -33.1993
L49.9023 -33.3502
L50.1817 -33.503
L50.4626 -33.6579
L50.7449 -33.8148
L51.0286 -33.9737
L51.3136 -34.1345
L51.5999 -34.2973
L51.8874 -34.4621
L52.1762 -34.6288
L52.4661 -34.7973
L52.7571 -34.9675
L53.0492 -35.1396
L53.3422 -35.3132
L53.6361 -35.4884
L53.9308 -35.665
L54.2263 -35.8428
L54.5223 -36.0218
L54.8188 -36.2017
L55.1157 -36.3822
L55.4129 -36.5632
L55.7102 -36.7444
L56.0076 -36.9254
L56.3048 -37.1059
L56.6018 -37.2854
L56.8984 -37.4635
L57.1945 -37.6396
L57.4899 -37.8131
L57.7845 -37.9833
L58.0782 -38.1496
L58.3708 -38.311
L58.6622 -38.4665
L58.9522 -38.6152
L59.2407 -38.7558
L59.5277 -38.887
L59.8129 -39.0075
L60.0963 -39.1157
L60.3777 -39.21
L60.657 -39.2886
L60.934 -39.3498
L61.2086 -39.3917
L61.4805 -39.4124
L61.7496 -39.4103
L62.0155 -39.3835
L62.278 -39.3306
L62.5365 -39.2503
L62.7907 -39.1417
L63.0401 -39.0042
L63.2841 -38.8373
L63.5221 -38.6414
L63.7535 -38.4167
L63.9777 -38.164
L64.1941 -37.8844
L64.402 -37.579
L64.49 -37.2493
L64.4988 -36.7553
L64.499 -36.258
L64.4905 -35.7606
L64.4733 -35.2632
L64.4474 -34.7661
L64.4129 -34.2694
L64.3697 -33.7732
L64.3178 -33.2776
L64.2574 -32.7829
L64.1883 -32.2892
L64.1107 -31.7966
L64.0245 -31.3053
L63.9297 -30.8154
L63.8264 -30.3271
L63.7147 -29.8405
L63.5945 -29.3558
L63.4659 -28.8732
L63.329 -28.3927
L63.1837 -27.9145
L63.0302 -27.4387
L62.8684 -26.9656
L62.6984 -26.4953
L62.5203 -26.0278
L62.3341 -25.5634
L62.1399 -25.1021
L61.9377 -24.6442
L61.7277 -24.1897
L61.5098 -23.7388
L61.2841 -23.2917
L61.0507 -22.8484
L60.8097 -22.4091
L60.5611 -21.974
L60.3051 -21.5432
L60.0416 -21.1167
L59.7709 -20.6948
L59.4929 -20.2775
L59.2077 -19.8651
L58.9154 -19.4575
L58.6162 -19.055
L58.3101 -18.6577
L57.9972 -18.2656
L57.6776 -17.8789
L57.3514 -17.4978
L57.0187 -17.1223
L56.6796 -16.7525
L56.3341 -16.3886
L55.9825 -16.0307
L55.6248 -15.6789
L55.2612 -15.3332
L54.8916 -14.9939
L54.5163 -14.6609
L54.1354 -14.3345
L53.7489 -14.0146
L53.3571 -13.7014
L52.9599 -13.3951
L52.5576 -13.0956
L52.1502 -12.8031
L51.7379 -12.5177
L51.3209 -12.2394
L50.8991 -11.9683
L50.4728 -11.7046
L50.0422 -11.4483
L49.6072 -11.1994
L49.1681 -10.9581
L48.7249 -10.7245
L48.2779 -10.4985
L47.8272 -10.2803
L47.3729 -10.07
L46.9151 -9.86749
L46.4539 -9.67299
L45.9896 -9.4865
L45.5222 -9.3081
L45.052 -9.13782
L44.579 -8.97572
L44.1033 -8.82186
L43.6252 -8.67628
L43.1448 -8.53901
L42.6622 -8.41012
L42.1776 -8.28963
L41.6911 -8.17757
L41.2028 -8.074
L40.713 -7.97893
L40.2218 -7.89239
L39.7292 -7.81442
L39.2355 -7.74503
L38.7408 -7.68425
L38.2453 -7.6321
L37.7492 -7.58859
L37.2524 -7.55373
L36.7553 -7.52753
L36.258 -7.51001
L35.7606 -7.50117
L35.2632 -7.50101
L34.7661 -7.50952
L34.2694 -7.52672
L33.7732 -7.55259
L33.2776 -7.58713
L32.7829 -7.63032
L32.2892 -7.68215
L31.7966 -7.74261
L31.3053 -7.81168
L30.8154 -7.88933
L30.3271 -7.97554
L29.8405 -8.0703
L29.3558 -8.17356
L28.8732 -8.28529
L28.3927 -8.40547
L27.9145 -8.53405
L27.4387 -8.671
L26.9656 -8.81628
L26.4953 -8.96983
L26.0278 -9.13162
L25.5634 -9.30159
L25.1021 -9.4797
L24.6442 -9.66588
L24.1897 -9.86009
L23.7388 -10.0623
L23.2917 -10.2723
L22.8484 -10.4902
L22.4091 -10.7159
L21.974 -10.9493
L21.5432 -11.1903
L21.1167 -11.4389
L20.6948 -11.6949
L20.2775 -11.9584
L19.8651 -12.2291
L19.4575 -12.5071
L19.055 -12.7923
L18.6577 -13.0846
L18.2656 -13.3838
L17.8789 -13.6899
L17.4978 -14.0028
L17.1223 -14.3224
L16.7525 -14.6486
L16.3886 -14.9813
L16.0307 -15.3204
L15.6789 -15.6659
L15.3332 -16.0175
L14.9939 -16.3752
L14.6609 -16.7388
L14.3345 -17.1084
L14.0146 -17.4837
L13.7014 -17.8646
L13.3951 -18.2511
L13.0956 -18.6429
z
" id="C0_1_d9ab329b5e"/>
     <path d="
M7.62939 -35.1105
L7.8027 -35.4879
L7.97783 -35.8749
L8.15532 -36.2698
L8.33564 -36.671
L8.51918 -37.0771
L8.70624 -37.4866
L8.89708 -37.8984
L9.09186 -38.3112
L9.2907 -38.7242
L9.49365 -39.1364
L9.70075 -39.547
L9.91196 -39.9552
L10.1272 -40.3605
L10.3465 -40.7624
L10.5695 -41.1602
L10.7964 -41.5536
L11.0268 -41.9423
L11.2606 -42.3258
L11.4977 -42.7041
L11.7379 -43.0767
L11.981 -43.4437
L12.2268 -43.8047
L12.4752 -44.1597
L12.726 -44.5087
L12.9791 -44.8514
L13.2342 -45.188
L13.4912 -45.5183
L13.75 -45.8425
L14.0103 -46.1604
L14.2721 -46.4721
L14.5353 -46.7777
L14.7996 -47.0772
L15.065 -47.3706
L15.3314 -47.6581
L15.5986 -47.9397
L15.8666 -48.2155
L16.1353 -48.4855
L16.4045 -48.7499
L16.6742 -49.0088
L16.9444 -49.2622
L17.2149 -49.5102
L17.4858 -49.753
L17.7569 -49.9907
L18.0282 -50.2233
L18.2997 -50.4509
L18.5713 -50.6737
L18.843 -50.8918
L19.1148 -51.1052
L19.3867 -51.314
L19.6586 -51.5184
L19.9305 -51.7184
L20.2024 -51.9142
L20.4744 -52.1058
L20.7463 -52.2933
L21.0183 -52.4768
L21.2903 -52.6564
L21.5623 -52.8321
L21.8344 -53.0042
L22.1065 -53.1725
L22.3787 -53.3373
L22.651 -53.4985
L22.9234 -53.6563
L23.1959 -53.8107
L23.4686 -53.9618
L23.7415 -54.1097
L24.0146 -54.2544
L24.288 -54.3959
L24.5616 -54.5344
L24.8356 -54.6699
L25.1099 -54.8024
L25.3847 -54.932
L25.6599 -55.0587
L25.9355 -55.1826
L26.2117 -55.3038
L26.4884 -55.4222
L26.7658 -55.5378
L27.0438 -55.6508
L27.3226 -55.7612
L27.602 -55.8689
L27.8823 -55.9741
L28.1635 -56.0767
L28.4455 -56.1767
L28.7285 -56.2743
L29.0126 -56.3693
L29.2977 -56.4618
L29.5839 -56.5518
L29.8713 -56.6394
L30.1599 -56.7245
L30.4498 -56.8071
L30.7411 -56.8873
L31.0338 -56.965
L31.3279 -57.0402
L31.6236 -57.1129
L31.9209 -57.1831
L32.2198 -57.2508
L32.5204 -57.316
L32.8229 -57.3787
L33.1271 -57.4388
L33.4332 -57.4963
L33.7413 -57.5511
L34.0514 -57.6033
L34.3636 -57.6529
L34.678 -57.6997
L34.9945 -57.7437
L35.3134 -57.7849
L35.6345 -57.8232
L35.958 -57.8587
L36.284 -57.8911
L36.6125 -57.9206
L36.9436 -57.9469
L37.2773 -57.9701
L37.6136 -57.9901
L37.9527 -58.0068
L38.2946 -58.0201
L38.6393 -58.0299
L38.9868 -58.0362
L39.3373 -58.0389
L39.6908 -58.0378
L40.0472 -58.033
L40.4067 -58.0242
L40.7692 -58.0114
L41.1348 -57.9945
L41.5035 -57.9734
L41.8753 -57.948
L42.2502 -57.9181
L42.6283 -57.8837
L43.0095 -57.8446
L43.3937 -57.8007
L43.7811 -57.7519
L44.1715 -57.6981
L44.5649 -57.6392
L44.9612 -57.575
L45.3604 -57.5054
L45.7625 -57.4305
L46.1672 -57.3499
L46.5746 -57.2637
L46.9845 -57.1718
L47.3968 -57.074
L47.8113 -56.9704
L48.2278 -56.8608
L48.6463 -56.7453
L49.0664 -56.6238
L49.488 -56.4963
L49.9108 -56.3629
L50.3346 -56.2237
L50.759 -56.0787
L51.1838 -55.9281
L51.6087 -55.7722
L52.0332 -55.611
L52.4571 -55.4449
L52.8798 -55.2744
L53.3011 -55.0998
L53.7203 -54.9217
L54.1371 -54.7407
L54.5509 -54.5574
L54.9612 -54.3728
L55.3674 -54.1878
L55.769 -54.0034
L56.1653 -53.8209
L56.5557 -53.6416
L56.9396 -53.4669
L57.3163 -53.2985
L57.6852 -53.1381
L58.0456 -52.9875
L58.3968 -52.8485
L58.7383 -52.7232
L58.833 -52.6133
L58.5319 -53.0559
L58.2238 -53.4518
L57.9091 -53.8424
L57.5876 -54.2275
L57.2596 -54.6071
L56.9251 -54.981
L56.5842 -55.3492
L56.2371 -55.7114
L55.8838 -56.0677
L55.5244 -56.4178
L55.1591 -56.7617
L54.7879 -57.0993
L54.411 -57.4304
L54.0286 -57.7551
L53.6406 -58.0731
L53.2472 -58.3844
L52.8486 -58.6888
L52.4449 -58.9864
L52.0362 -59.2769
L51.6225 -59.5604
L51.2041 -59.8367
L50.7811 -60.1057
L50.3536 -60.3674
L49.9217 -60.6216
L49.4856 -60.8684
L49.0453 -61.1075
L48.6011 -61.3391
L48.1531 -61.5629
L47.7013 -61.7789
L47.246 -61.9871
L46.7873 -62.1874
L46.3252 -62.3796
L45.86 -62.5639
L45.3919 -62.74
L44.9208 -62.908
L44.4471 -63.0679
L43.9707 -63.2194
L43.492 -63.3627
L43.0109 -63.4976
L42.5278 -63.6242
L42.0426 -63.7424
L41.5556 -63.8521
L41.0669 -63.9533
L40.5767 -64.046
L40.085 -64.1301
L39.5921 -64.2057
L39.0982 -64.2727
L38.6032 -64.3311
L38.1075 -64.3809
L37.6112 -64.422
L37.1143 -64.4544
L36.6172 -64.4782
L36.1198 -64.4933
L35.6224 -64.4997
L35.1251 -64.4975
L34.6281 -64.4866
L34.1314 -64.467
L33.6354 -64.4387
L33.1401 -64.4017
L32.6456 -64.3561
L32.1522 -64.3019
L31.66 -64.2391
L31.169 -64.1676
L30.6796 -64.0876
L30.1917 -63.999
L29.7057 -63.9019
L29.2215 -63.7962
L28.7394 -63.6822
L28.2595 -63.5596
L27.782 -63.4287
L27.307 -63.2895
L26.8346 -63.1419
L26.3651 -62.986
L25.8984 -62.822
L25.4349 -62.6497
L24.9745 -62.4694
L24.5175 -62.281
L24.064 -62.0845
L23.6142 -61.8802
L23.1681 -61.6679
L22.7259 -61.4478
L22.2878 -61.22
L21.8539 -60.9845
L21.4242 -60.7414
L20.999 -60.4907
L20.5784 -60.2326
L20.1624 -59.9671
L19.7513 -59.6943
L19.3452 -59.4143
L18.9441 -59.1272
L18.5482 -58.833
L18.1576 -58.5319
L17.7725 -58.2238
L17.3929 -57.9091
L17.019 -57.5876
L16.6508 -57.2596
L16.2886 -56.9251
L15.9323 -56.5842
L15.5822 -56.2371
L15.2383 -55.8838
L14.9007 -55.5244
L14.5696 -55.1591
L14.2449 -54.7879
L13.9269 -54.411
L13.6156 -54.0286
L13.3112 -53.6406
L13.0136 -53.2472
L12.7231 -52.8486
L12.4396 -52.4449
L12.1633 -52.0362
L11.8943 -51.6225
L11.6326 -51.2041
L11.3784 -50.7811
L11.1316 -50.3536
L10.8925 -49.9217
L10.6609 -49.4856
L10.4371 -49.0453
L10.2211 -48.6011
L10.0129 -48.1531
L9.81265 -47.7013
L9.62037 -47.246
L9.43612 -46.7873
L9.25997 -46.3252
L9.09196 -45.86
L8.93214 -45.3919
L8.78058 -44.9208
L8.6373 -44.4471
L8.50236 -43.9707
L8.37579 -43.492
L8.25764 -43.0109
L8.14794 -42.5278
L8.04673 -42.0426
L7.95403 -41.5556
L7.86987 -41.0669
L7.79428 -40.5767
L7.72728 -40.085
L7.6689 -39.5921
L7.61914 -39.0982
L7.57803 -38.6032
L7.54558 -38.1075
L7.52179 -37.6112
L7.50668 -37.1143
L7.50025 -36.6172
L7.5025 -36.1198
z
" id="C0_2_0a01ece6a3"/>
    </defs>
    <g clip-path="url(#p1bffca34e9)">
     <use style="fill:#ff0000;stroke:#000000;stroke-width:2.0;" x="0.0" xlink:href="#C0_0_a811fe30f3" y="72.0"/>
    </g>
    <g clip-path="url(#p1bffca34e9)">
     <use style="fill:#ffffff;stroke:#000000;stroke-width:2.0;" x="0.0" xlink:href="#C0_1_d9ab329b5e" y="72.0"/>
    </g>
    <g clip-path="url(#p1bffca34e9)">
     <use style="fill:#ffffff;stroke:#000000;stroke-width:2.0;" x="0.0" xlink:href="#C0_2_0a01ece6a3" y="72.0"/>
    </g>
   </g>
  </g>
 </g>
 <defs>
  <clipPath id="p1bffca34e9">
   <rect height="72.0" width="72.0" x="0.0" y="0.0"/>
  </clipPath>
 </defs>
</svg>
