<?xml version="1.0" encoding="utf-8" standalone="no"?>
<!DOCTYPE svg PUBLIC "-//W3C//DTD SVG 1.1//EN"
  "http://www.w3.org/Graphics/SVG/1.1/DTD/svg11.dtd">
<!-- Created with matplotlib (http://matplotlib.org/) -->
<svg height="72pt" version="1.1" viewBox="0 0 72 72" width="72pt" xmlns="http://www.w3.org/2000/svg" xmlns:xlink="http://www.w3.org/1999/xlink">
 <defs>
  <style type="text/css">
*{stroke-linecap:butt;stroke-linejoin:round;}
  </style>
 </defs>
 <g id="figure_1">
  <g id="patch_1">
   <path d="
M0 72
L72 72
L72 0
L0 0
z
" style="fill:none;"/>
  </g>
  <g id="axes_1">
   <g id="PatchCollection_1">
    <defs>
     <path d="
M36 -7.5
C43.5583 -7.5 50.808 -10.5029 56.1525 -15.8475
C61.4971 -21.192 64.5 -28.4417 64.5 -36
C64.5 -43.5583 61.4971 -50.808 56.1525 -56.1525
C50.808 -61.4971 43.5583 -64.5 36 -64.5
C28.4417 -64.5 21.192 -61.4971 15.8475 -56.1525
C10.5029 -50.808 7.5 -43.5583 7.5 -36
C7.5 -28.4417 10.5029 -21.192 15.8475 -15.8475
C21.192 -10.5029 28.4417 -7.5 36 -7.5
z
" id="C0_0_a811fe30f3"/>
     <path d="
M9.07964 -26.798
L9.09617 -27.1812
L9.121 -27.5597
L9.15382 -27.9333
L9.19431 -28.302
L9.24219 -28.6657
L9.29715 -29.0244
L9.35892 -29.3781
L9.42723 -29.7267
L9.50181 -30.0703
L9.58239 -30.4089
L9.66875 -30.7424
L9.76062 -31.0709
L9.8578 -31.3944
L9.96005 -31.7131
L10.0672 -32.0268
L10.179 -32.3356
L10.2952 -32.6397
L10.4158 -32.9391
L10.5404 -33.2337
L10.669 -33.5238
L10.8014 -33.8093
L10.9374 -34.0903
L11.077 -34.3669
L11.2198 -34.6391
L11.3659 -34.9071
L11.5151 -35.1709
L11.6673 -35.4305
L11.8224 -35.6861
L11.9803 -35.9377
L12.1408 -36.1853
L12.3039 -36.4292
L12.4695 -36.6692
L12.6376 -36.9055
L12.808 -37.1382
L12.9807 -37.3673
L13.1557 -37.593
L13.3327 -37.8151
L13.5119 -38.034
L13.6932 -38.2495
L13.8764 -38.4617
L14.0617 -38.6708
L14.2488 -38.8767
L14.4379 -39.0796
L14.6288 -39.2795
L14.8215 -39.4764
L15.0161 -39.6704
L15.2124 -39.8616
L15.4105 -40.0499
L15.6103 -40.2355
L15.8119 -40.4184
L16.0151 -40.5987
L16.2201 -40.7763
L16.4268 -40.9513
L16.6352 -41.1238
L16.8453 -41.2938
L17.0571 -41.4613
L17.2706 -41.6264
L17.7027 -41.7891
L17.9213 -41.9495
L18.1416 -42.1075
L18.3636 -42.2631
L18.5874 -42.4165
L18.813 -42.5676
L19.0403 -42.7165
L19.2693 -42.8632
L19.5002 -43.0076
L19.7329 -43.1498
L19.9674 -43.2899
L20.2038 -43.4278
L20.442 -43.5635
L20.6821 -43.697
L20.9241 -43.8284
L21.168 -43.9577
L21.4139 -44.0848
L21.6618 -44.2097
L21.9116 -44.3325
L22.1635 -44.4531
L22.4173 -44.5716
L22.6733 -44.6878
L22.9313 -44.8019
L23.1914 -44.9137
L23.4536 -45.0233
L23.718 -45.1307
L23.9845 -45.2357
L24.2532 -45.3385
L24.5241 -45.4389
L24.7972 -45.5369
L25.0725 -45.6325
L25.35 -45.7257
L25.6298 -45.8164
L25.9119 -45.9045
L26.1962 -45.9901
L26.4827 -46.073
L26.7716 -46.1532
L27.0627 -46.2307
L27.356 -46.3054
L27.6516 -46.3772
L27.9495 -46.446
L28.2496 -46.5119
L28.5518 -46.5746
L28.8563 -46.6342
L29.1629 -46.6905
L29.4717 -46.7435
L29.7825 -46.793
L30.0954 -46.839
L30.4103 -46.8814
L30.7271 -46.9201
L31.0457 -46.9549
L31.3662 -46.9858
L31.6883 -47.0126
L32.0121 -47.0352
L32.3374 -47.0535
L32.6641 -47.0674
L32.9922 -47.0767
L33.3214 -47.0814
L33.6517 -47.0812
L33.9829 -47.076
L34.3149 -47.0658
L34.6474 -47.0502
L34.9803 -47.0293
L35.3135 -47.0028
L35.6467 -46.9706
L35.9797 -46.9325
L36.3123 -46.8884
L36.6443 -46.8382
L36.9754 -46.7815
L37.3054 -46.7185
L37.634 -46.6487
L37.9608 -46.5722
L38.2858 -46.4887
L38.6085 -46.3982
L38.9286 -46.3004
L39.2458 -46.1953
L39.5599 -46.0827
L39.8706 -45.9625
L40.1774 -45.8346
L40.48 -45.6989
L40.7783 -45.5554
L41.0717 -45.404
L41.3601 -45.2445
L41.6431 -45.0771
L41.9205 -44.9016
L42.1918 -44.7181
L42.457 -44.5267
L42.7156 -44.3273
L42.9676 -44.12
L43.2125 -43.905
L43.4503 -43.6823
L43.6808 -43.4521
L43.9037 -43.2146
L44.1191 -42.9698
L44.3266 -42.7181
L44.5263 -42.4597
L44.7181 -42.1948
L44.9018 -41.9236
L45.0776 -41.6465
L45.2454 -41.3637
L45.4051 -41.0755
L45.5569 -40.7822
L45.7008 -40.4841
L45.8368 -40.1816
L45.965 -39.8749
L46.0856 -39.5644
L46.1985 -39.2505
L46.304 -38.9333
L46.4021 -38.6133
L46.493 -38.2907
L46.5769 -37.9659
L46.6537 -37.6391
L46.7238 -37.3106
L46.7873 -36.9807
L46.8443 -36.6496
L46.8949 -36.3177
L46.9394 -35.9851
L46.9778 -35.6522
L47.0104 -35.319
L47.0372 -34.9858
L47.0585 -34.6529
L47.0744 -34.3204
L47.085 -33.9884
L47.0905 -33.6573
L47.0911 -33.327
L47.0868 -32.9977
L47.0778 -32.6697
L47.0642 -32.3429
L47.0462 -32.0176
L47.0239 -31.6937
L46.9974 -31.3715
L46.9669 -31.0511
L46.9324 -30.7324
L46.8941 -30.4155
L46.852 -30.1006
L46.8063 -29.7877
L46.7571 -29.4768
L46.7044 -29.168
L46.6484 -28.8613
L46.5891 -28.5567
L46.5267 -28.2544
L46.4611 -27.9542
L46.3926 -27.6563
L46.3211 -27.3606
L46.2467 -27.0672
L46.1695 -26.776
L46.0895 -26.4871
L46.0069 -26.2004
L45.9216 -25.916
L45.8337 -25.6339
L45.7433 -25.354
L45.6504 -25.0764
L45.555 -24.8009
L45.4572 -24.5277
L45.3571 -24.2568
L45.2546 -23.988
L45.1497 -23.7213
L45.0426 -23.4568
L44.9333 -23.1945
L44.8217 -22.9343
L44.7078 -22.6761
L44.5918 -22.4201
L44.4736 -22.1661
L44.3532 -21.9141
L44.2306 -21.6641
L44.1059 -21.4162
L43.979 -21.1701
L43.8499 -20.9261
L43.7187 -20.6839
L43.5854 -20.4437
L43.4499 -20.2053
L43.3122 -19.9688
L43.1723 -19.7342
L43.0303 -19.5014
L42.886 -19.2704
L42.7396 -19.0411
L42.5909 -18.8137
L42.4399 -18.588
L42.2867 -18.3641
L42.1312 -18.1419
L41.9734 -17.9214
L41.8132 -17.7027
L41.6507 -17.4856
L41.4857 -17.2703
L41.3184 -17.0566
L41.1485 -16.8447
L40.9762 -16.6344
L40.8013 -16.4259
L40.6238 -16.219
L40.4437 -16.0138
L40.261 -15.8104
L40.0755 -15.6087
L39.8873 -15.4087
L39.6962 -15.2104
L39.5023 -15.0139
L39.3056 -14.8192
L39.1058 -14.6263
L38.903 -14.4352
L38.6972 -14.246
L38.4882 -14.0586
L38.2761 -13.8732
L38.0607 -13.6898
L37.842 -13.5083
L37.6199 -13.3289
L37.3943 -13.1516
L37.1653 -12.9765
L36.9327 -12.8036
L36.6964 -12.633
L36.4565 -12.4647
L36.2127 -12.2989
L35.9651 -12.1356
L35.7136 -11.9748
L35.4581 -11.8168
L35.1985 -11.6615
L34.9348 -11.5091
L34.6669 -11.3597
L34.3947 -11.2133
L34.1181 -11.0702
L33.8371 -10.9305
L33.5517 -10.7942
L33.2616 -10.6616
L32.967 -10.5328
L32.6676 -10.4079
L32.3636 -10.2871
L32.0547 -10.1706
L31.741 -10.0586
L31.4224 -9.95124
L31.0988 -9.84874
L30.7702 -9.75132
L30.4367 -9.65919
L30.0981 -9.57259
L29.7545 -9.49175
L29.4058 -9.41693
L29.0521 -9.34836
L28.6933 -9.28633
L28.3295 -9.23111
L27.9607 -9.18297
L27.587 -9.14222
L27.2085 -9.10914
L26.8251 -9.08404
L26.3404 -9.06724
L25.874 -9.18689
L25.4106 -9.35956
L24.9504 -9.54034
L24.4936 -9.72918
L24.0403 -9.92602
L23.5906 -10.1308
L23.1447 -10.3435
L22.7028 -10.564
L22.2649 -10.7922
L21.8311 -11.0281
L21.4017 -11.2716
L20.9768 -11.5227
L20.5564 -11.7812
L20.1407 -12.047
L19.7298 -12.3202
L19.3239 -12.6006
L18.9231 -12.8881
L18.5275 -13.1827
L18.1372 -13.4842
L17.7524 -13.7926
L17.3731 -14.1077
L16.9994 -14.4295
L16.6316 -14.7579
L16.2697 -15.0927
L15.9138 -15.4339
L15.5639 -15.7814
L15.2204 -16.135
L14.8831 -16.4947
L14.5523 -16.8603
L14.228 -17.2318
L13.9104 -17.6089
L13.5994 -17.9917
L13.2953 -18.38
L12.9982 -18.7736
L12.708 -19.1725
L12.4249 -19.5765
L12.149 -19.9855
L11.8804 -20.3994
L11.6191 -20.818
L11.3652 -21.2413
L11.1189 -21.669
L10.8801 -22.1011
L10.6489 -22.5375
L10.4255 -22.9779
L10.2099 -23.4224
L10.0022 -23.8706
L9.80233 -24.3226
L9.61047 -24.7781
L9.42664 -25.237
L9.25092 -25.6992
z
" id="C0_1_9f3c0ec606"/>
     <path d="
M45.504 -62.7752
L45.8017 -62.5244
L46.0986 -62.27
L46.3946 -62.0122
L46.6897 -61.751
L46.9842 -61.4867
L47.2779 -61.2193
L47.5709 -60.949
L47.8633 -60.6758
L48.1551 -60.4
L48.4464 -60.1217
L48.7373 -59.8411
L49.0278 -59.5583
L49.318 -59.2735
L49.608 -58.9868
L49.8978 -58.6985
L50.1874 -58.4087
L50.4771 -58.1176
L50.7668 -57.8254
L51.0567 -57.5322
L51.3467 -57.2382
L51.637 -56.9435
L51.9276 -56.6484
L52.2186 -56.353
L52.51 -56.0574
L52.8018 -55.7617
L53.0942 -55.4661
L53.387 -55.1706
L53.6804 -54.8754
L53.9743 -54.5806
L54.2686 -54.2861
L54.5634 -53.9921
L54.8586 -53.6986
L55.1542 -53.4056
L55.45 -53.1132
L55.746 -52.8212
L56.042 -52.5297
L56.338 -52.2387
L56.6337 -51.9481
L56.9292 -51.6579
L57.2242 -51.368
L57.5185 -51.0783
L57.8121 -50.7889
L58.1047 -50.4995
L58.3961 -50.2102
L58.6863 -49.921
L58.9749 -49.6316
L59.2619 -49.342
L59.547 -49.0522
L59.8302 -48.7621
L60.1112 -48.4716
L60.3898 -48.1806
L60.6659 -47.8892
L60.9394 -47.5971
L61.2101 -47.3045
L61.4778 -47.0112
L61.7425 -46.7171
L62.004 -46.4223
L62.2621 -46.1267
L62.5168 -45.8302
L62.6773 -45.5328
L62.4982 -46.0285
L62.3111 -46.4926
L62.1159 -46.9534
L61.9128 -47.411
L61.7017 -47.865
L61.4829 -48.3155
L61.2563 -48.7621
L61.022 -49.2049
L60.7801 -49.6437
L60.5306 -50.0783
L60.2736 -50.5086
L60.0093 -50.9346
L59.7376 -51.3559
L59.4588 -51.7726
L59.1727 -52.1845
L58.8796 -52.5914
L58.5796 -52.9933
L58.2726 -53.39
L57.9589 -53.7814
L57.6385 -54.1674
L57.3115 -54.5479
L56.978 -54.9227
L56.6381 -55.2918
L56.292 -55.655
L55.9396 -56.0122
L55.5812 -56.3633
L55.2168 -56.7081
L54.8465 -57.0467
L54.4706 -57.3789
L54.089 -57.7046
L53.7018 -58.0236
L53.3093 -58.336
L52.9115 -58.6415
L52.5086 -58.9401
L52.1006 -59.2318
L51.6878 -59.5164
L51.2701 -59.7938
L50.8478 -60.0639
L50.421 -60.3268
L49.9898 -60.5822
L49.5543 -60.8301
L49.1147 -61.0705
L48.6711 -61.3033
L48.2236 -61.5283
L47.7725 -61.7455
L47.3177 -61.9549
L46.8595 -62.1565
L46.3979 -62.35
z
" id="C0_2_668550aa59"/>
    </defs>
    <g clip-path="url(#p1bffca34e9)">
     <use style="fill:#ffffff;stroke:#000000;stroke-width:2.0;" x="0.0" xlink:href="#C0_0_a811fe30f3" y="72.0"/>
    </g>
    <g clip-path="url(#p1bffca34e9)">
     <use style="fill:#ff0000;stroke:#000000;stroke-width:2.0;" x="0.0" xlink:href="#C0_1_9f3c0ec606" y="72.0"/>
    </g>
    <g clip-path="url(#p1bffca34e9)">
     <use style="fill:#ff0000;stroke:#000000;stroke-width:2.0;" x="0.0" xlink:href="#C0_2_668550aa59" y="72.0"/>
    </g>
   </g>
  </g>
 </g>
 <defs>
  <clipPath id="p1bffca34e9">
   <rect height="72.0" width="72.0" x="0.0" y="0.0"/>
  </clipPath>
 </defs>
</svg>
