<?xml version="1.0" encoding="utf-8" standalone="no"?>
<!DOCTYPE svg PUBLIC "-//W3C//DTD SVG 1.1//EN"
  "http://www.w3.org/Graphics/SVG/1.1/DTD/svg11.dtd">
<!-- Created with matplotlib (http://matplotlib.org/) -->
<svg height="72pt" version="1.1" viewBox="0 0 72 72" width="72pt" xmlns="http://www.w3.org/2000/svg" xmlns:xlink="http://www.w3.org/1999/xlink">
 <defs>
  <style type="text/css">
*{stroke-linecap:butt;stroke-linejoin:round;}
  </style>
 </defs>
 <g id="figure_1">
  <g id="patch_1">
   <path d="
M0 72
L72 72
L72 0
L0 0
z
" style="fill:none;"/>
  </g>
  <g id="axes_1">
   <g id="PatchCollection_1">
    <defs>
     <path d="
M36 -7.5
C43.5583 -7.5 50.808 -10.5029 56.1525 -15.8475
C61.4971 -21.192 64.5 -28.4417 64.5 -36
C64.5 -43.5583 61.4971 -50.808 56.1525 -56.1525
C50.808 -61.4971 43.5583 -64.5 36 -64.5
C28.4417 -64.5 21.192 -61.4971 15.8475 -56.1525
C10.5029 -50.808 7.5 -43.5583 7.5 -36
C7.5 -28.4417 10.5029 -21.192 15.8475 -15.8475
C21.192 -10.5029 28.4417 -7.5 36 -7.5
z
" id="C0_0_a811fe30f3"/>
     <path d="
M47.9503 -10.2493
L47.7234 -10.3858
L47.5092 -10.5333
L47.3076 -10.6913
L47.1183 -10.8595
L46.9411 -11.0374
L46.7758 -11.2247
L46.622 -11.4208
L46.4792 -11.6255
L46.3472 -11.8382
L46.2253 -12.0584
L46.1133 -12.2859
L46.0105 -12.5201
L45.9165 -12.7607
L45.8308 -13.0071
L45.7528 -13.2592
L45.6821 -13.5163
L45.6182 -13.7782
L45.5606 -14.0446
L45.5089 -14.3149
L45.4626 -14.589
L45.4213 -14.8665
L45.3845 -15.1471
L45.3519 -15.4305
L45.3232 -15.7163
L45.298 -16.0044
L45.2759 -16.2945
L45.2567 -16.5864
L45.24 -16.8797
L45.2257 -17.1744
L45.2135 -17.4702
L45.2032 -17.7669
L45.1945 -18.0643
L45.1872 -18.3623
L45.1812 -18.6607
L45.1764 -18.9594
L45.1725 -19.2582
L45.1695 -19.557
L45.1671 -19.8558
L45.1654 -20.1543
L45.1641 -20.4525
L45.1633 -20.7503
L45.1627 -21.0477
L45.1624 -21.3445
L45.1623 -21.6407
L45.1622 -21.9362
L45.1622 -22.231
L45.1621 -22.5251
L45.162 -22.8183
L45.1617 -23.1106
L45.1613 -23.4021
L45.1608 -23.6927
L45.16 -23.9824
L45.1589 -24.2711
L45.1576 -24.5588
L45.156 -24.8456
L45.1541 -25.1315
L45.1519 -25.4163
L45.1493 -25.7002
L45.1463 -25.9831
L45.143 -26.2651
L45.1392 -26.5462
L45.1351 -26.8263
L45.1306 -27.1054
L45.1256 -27.3837
L45.1203 -27.6611
L45.1145 -27.9377
L45.1083 -28.2134
L45.1016 -28.4883
L45.0945 -28.7624
L45.087 -29.0358
L45.079 -29.3084
L45.0705 -29.5803
L45.0616 -29.8516
L45.0522 -30.1222
L45.0424 -30.3923
L45.0321 -30.6617
L45.0214 -30.9307
L45.0102 -31.1991
L44.9985 -31.4671
L44.9864 -31.7346
L44.9738 -32.0018
L44.9607 -32.2686
L44.9471 -32.5351
L44.9331 -32.8013
L44.9186 -33.0673
L44.9036 -33.3331
L44.8881 -33.5988
L44.8721 -33.8643
L44.8557 -34.1298
L44.8213 -34.3952
L44.8034 -34.6606
L44.785 -34.9261
L44.766 -35.1917
L44.7466 -35.4574
L44.7267 -35.7233
L44.7063 -35.9894
L44.6853 -36.2557
L44.6639 -36.5224
L44.6419 -36.7894
L44.6194 -37.0567
L44.5964 -37.3245
L44.5728 -37.5927
L44.5487 -37.8614
L44.5241 -38.1306
L44.499 -38.4004
L44.4733 -38.6708
L44.4471 -38.9419
L44.4203 -39.2136
L44.393 -39.4861
L44.3651 -39.7593
L44.3367 -40.0333
L44.3077 -40.3081
L44.2782 -40.5837
L44.2482 -40.8603
L44.2176 -41.1378
L44.1864 -41.4162
L44.1547 -41.6956
L44.1224 -41.976
L44.0896 -42.2575
L44.0563 -42.5399
L44.0224 -42.8235
L43.988 -43.1082
L43.9531 -43.3939
L43.9177 -43.6808
L43.8818 -43.9689
L43.8455 -44.258
L43.8086 -44.5484
L43.7714 -44.8399
L43.7337 -45.1326
L43.6956 -45.4265
L43.6572 -45.7215
L43.6184 -46.0177
L43.5793 -46.315
L43.54 -46.6135
L43.5005 -46.9131
L43.4608 -47.2137
L43.421 -47.5155
L43.3811 -47.8182
L43.3413 -48.122
L43.3015 -48.4266
L43.262 -48.7322
L43.2227 -49.0386
L43.1837 -49.3458
L43.1453 -49.6537
L43.1074 -49.9621
L43.0702 -50.2712
L43.0339 -50.5807
L42.9986 -50.8905
L42.9645 -51.2005
L42.9318 -51.5107
L42.9006 -51.8209
L42.8712 -52.1309
L42.8437 -52.4406
L42.8185 -52.7499
L42.7958 -53.0586
L42.7759 -53.3666
L42.7591 -53.6735
L42.7456 -53.9793
L42.7359 -54.2837
L42.7304 -54.5866
L42.7293 -54.8876
L42.733 -55.1866
L42.7421 -55.4834
L42.7569 -55.7775
L42.7779 -56.0689
L42.8056 -56.3571
L42.8404 -56.6419
L42.8828 -56.9231
L42.9333 -57.2003
L42.9924 -57.4731
L43.0606 -57.7414
L43.1383 -58.0046
L43.226 -58.2626
L43.3242 -58.5149
L43.4332 -58.7613
L43.5535 -59.0013
L43.6853 -59.2347
L43.829 -59.4611
L43.9848 -59.6802
L44.1529 -59.8916
L44.3333 -60.095
L44.5263 -60.2901
L44.7318 -60.4766
L44.9498 -60.6542
L45.1801 -60.8227
L45.4226 -60.9817
L45.677 -61.131
L45.9431 -61.2704
L46.2206 -61.3996
L46.509 -61.5185
L46.8081 -61.6269
L47.1173 -61.7246
L47.4362 -61.8115
L47.7643 -61.8874
L48.2179 -61.9523
L48.6654 -61.7483
L49.1091 -61.5311
L49.5487 -61.3062
L49.9842 -61.0735
L50.4155 -60.8333
L50.8424 -60.5854
L51.2647 -60.3301
L51.6825 -60.0674
L52.0954 -59.7973
L52.5034 -59.52
L52.9064 -59.2355
L53.3043 -58.9439
L53.6969 -58.6454
L54.084 -58.3399
L54.4657 -58.0277
L54.8418 -57.7087
L55.2121 -57.3831
L55.5766 -57.051
L55.9351 -56.7125
L56.2875 -56.3677
L56.6337 -56.0167
L56.9737 -55.6596
L57.3073 -55.2965
L57.6344 -54.9275
L57.9549 -54.5527
L58.2687 -54.1723
L58.5757 -53.7864
L58.8758 -53.3951
L59.169 -52.9984
L59.4551 -52.5966
L59.7341 -52.1897
L60.0059 -51.7779
L60.2703 -51.3613
L60.5273 -50.94
L60.7769 -50.5141
L61.0189 -50.0838
L61.2533 -49.6493
L61.48 -49.2106
L61.699 -48.7678
L61.9101 -48.3212
L62.1133 -47.8708
L62.3086 -47.4168
L62.4959 -46.9593
L62.6751 -46.4985
L62.8461 -46.0345
L63.009 -45.5674
L63.1637 -45.0974
L63.3101 -44.6247
L63.4481 -44.1493
L63.5778 -43.6714
L63.6991 -43.1912
L63.812 -42.7088
L63.9164 -42.2244
L64.0123 -41.738
L64.0996 -41.25
L64.1784 -40.7603
L64.2487 -40.2692
L64.3103 -39.7767
L64.3633 -39.2831
L64.4076 -38.7886
L64.4433 -38.2931
L64.4703 -37.797
L64.4887 -37.3003
L64.4984 -36.8032
L64.4994 -36.3059
L64.4917 -35.8085
L64.4753 -35.3112
L64.4503 -34.814
L64.4166 -34.3172
L64.3742 -33.821
L64.3232 -33.3254
L64.2636 -32.8306
L64.1954 -32.3367
L64.1185 -31.844
L64.0331 -31.3526
L63.9392 -30.8626
L63.8368 -30.3741
L63.7258 -29.8873
L63.6065 -29.4025
L63.4787 -28.9196
L63.3426 -28.4389
L63.1981 -27.9604
L63.0453 -27.4845
L62.8843 -27.0111
L62.7151 -26.5405
L62.5378 -26.0727
L62.3524 -25.608
L62.159 -25.1464
L61.9576 -24.6881
L61.7483 -24.2333
L61.5311 -23.7821
L61.3062 -23.3346
L61.0735 -22.8909
L60.8333 -22.4513
L60.5854 -22.0158
L60.3301 -21.5845
L60.0674 -21.1576
L59.7973 -20.7353
L59.52 -20.3175
L59.2355 -19.9046
L58.9439 -19.4966
L58.6454 -19.0936
L58.3399 -18.6957
L58.0277 -18.3031
L57.7087 -17.916
L57.3831 -17.5343
L57.051 -17.1582
L56.7125 -16.7879
L56.3677 -16.4234
L56.0167 -16.0649
L55.6596 -15.7125
L55.2965 -15.3663
L54.9275 -15.0263
L54.5527 -14.6927
L54.1723 -14.3656
L53.7864 -14.0451
L53.3951 -13.7313
L52.9984 -13.4243
L52.5966 -13.1242
L52.1897 -12.831
L51.7779 -12.5449
L51.3613 -12.2659
L50.94 -11.9941
L50.5141 -11.7297
L50.0838 -11.4727
L49.6493 -11.2231
L49.2106 -10.9811
L48.7678 -10.7467
z
" id="C0_1_faaabb4335"/>
     <path d="
M24.0543 -10.3279
L23.8743 -10.6219
L23.6915 -10.919
L23.5065 -11.219
L23.3197 -11.5217
L23.1318 -11.827
L22.9431 -12.1348
L22.7541 -12.4448
L22.5653 -12.7569
L22.377 -13.0709
L22.1895 -13.3867
L22.0033 -13.7042
L21.8185 -14.023
L21.6354 -14.3432
L21.4543 -14.6645
L21.2754 -14.9869
L21.0989 -15.3101
L20.925 -15.634
L20.7538 -15.9586
L20.5854 -16.2836
L20.4199 -16.6091
L20.2575 -16.9347
L20.0983 -17.2606
L19.9422 -17.5864
L19.7894 -17.9123
L19.6399 -18.238
L19.4938 -18.5635
L19.351 -18.8887
L19.2116 -19.2135
L19.0757 -19.538
L18.9431 -19.8619
L18.8138 -20.1853
L18.688 -20.5081
L18.5656 -20.8303
L18.4464 -21.1519
L18.3306 -21.4727
L18.2182 -21.7928
L18.1089 -22.1121
L18.003 -22.4307
L17.9002 -22.7485
L17.8006 -23.0654
L17.7041 -23.3816
L17.6107 -23.6969
L17.5204 -24.0114
L17.4331 -24.325
L17.3488 -24.6379
L17.2674 -24.9499
L17.1889 -25.2611
L17.1133 -25.5716
L17.0405 -25.8812
L16.9705 -26.1901
L16.9033 -26.4982
L16.8388 -26.8056
L16.7769 -27.1122
L16.7177 -27.4182
L16.6611 -27.7236
L16.6071 -28.0283
L16.5557 -28.3324
L16.5067 -28.6359
L16.4603 -28.9388
L16.4163 -29.2413
L16.3747 -29.5432
L16.3356 -29.8448
L16.2989 -30.1459
L16.2645 -30.4466
L16.2324 -30.7469
L16.2027 -31.047
L16.1753 -31.3468
L16.1502 -31.6464
L16.1274 -31.9457
L16.1069 -32.2449
L16.0886 -32.544
L16.0725 -32.843
L16.0587 -33.142
L16.0472 -33.441
L16.0378 -33.74
L16.0307 -34.0391
L16.0258 -34.3384
L16.0231 -34.6378
L16.0226 -34.9374
L16.0244 -35.2372
L16.0284 -35.5373
L16.0346 -35.8378
L16.0431 -36.1386
L16.0538 -36.4398
L16.0667 -36.7415
L16.082 -37.0436
L16.0995 -37.3463
L16.1193 -37.6495
L16.1414 -37.9534
L16.1658 -38.2578
L16.1926 -38.563
L16.2218 -38.8688
L16.2533 -39.1754
L16.2873 -39.4827
L16.3237 -39.7909
L16.3625 -40.0999
L16.4038 -40.4097
L16.4477 -40.7205
L16.494 -41.0322
L16.5429 -41.3448
L16.5945 -41.6584
L16.6486 -41.973
L16.7054 -42.2886
L16.7649 -42.6053
L16.8271 -42.923
L16.892 -43.2418
L16.9598 -43.5616
L17.0303 -43.8826
L17.1037 -44.2046
L17.1799 -44.5278
L17.2591 -44.852
L17.3412 -45.1774
L17.4262 -45.5039
L17.5143 -45.8314
L17.6053 -46.16
L17.6994 -46.4897
L17.7966 -46.8204
L17.8968 -47.1521
L18.0001 -47.4848
L18.1065 -47.8184
L18.216 -48.1529
L18.3285 -48.4883
L18.4442 -48.8245
L18.563 -49.1615
L18.6848 -49.4992
L18.8096 -49.8375
L18.9375 -50.1763
L19.0683 -50.5156
L19.202 -50.8554
L19.3385 -51.1954
L19.4777 -51.5356
L19.6197 -51.8759
L19.7641 -52.2163
L19.911 -52.5565
L20.0602 -52.8964
L20.2114 -53.236
L20.3647 -53.5751
L20.5196 -53.9136
L20.6761 -54.2512
L20.8339 -54.5879
L20.9927 -54.9235
L21.1522 -55.2579
L21.3122 -55.5909
L21.4722 -55.9222
L21.6319 -56.2518
L21.7909 -56.5795
L21.9488 -56.9051
L22.1051 -57.2284
L22.2594 -57.5493
L22.4111 -57.8676
L22.5597 -58.183
L22.7048 -58.4955
L22.8457 -58.8048
L22.9818 -59.1108
L23.1127 -59.4133
L23.2376 -59.7121
L23.356 -60.0071
L23.4673 -60.2982
L23.571 -60.5851
L23.6664 -60.8677
L23.7532 -61.146
L23.8306 -61.4196
L23.4061 -61.6885
L22.9618 -61.5664
L22.5215 -61.3428
L22.0853 -61.1113
L21.6533 -60.8723
L21.2257 -60.6257
L20.8026 -60.3715
L20.3842 -60.11
L19.9705 -59.8411
L19.5617 -59.5649
L19.1578 -59.2816
L18.7592 -58.9911
L18.3657 -58.6937
L17.9777 -58.3893
L17.5951 -58.0782
L17.2181 -57.7603
L16.8469 -57.4357
L16.4815 -57.1047
L16.122 -56.7672
L15.7686 -56.4234
L15.4213 -56.0734
L15.0804 -55.7172
L14.7458 -55.3551
L14.4176 -54.987
L14.0961 -54.6132
L13.7812 -54.2337
L13.4731 -53.8486
L13.1718 -53.4582
L12.8775 -53.0623
L12.5902 -52.6613
L12.3101 -52.2553
L12.0372 -51.8442
L11.7716 -51.4284
L11.5134 -51.0078
L11.2626 -50.5827
L11.0194 -50.1531
L10.7837 -49.7192
L10.5558 -49.2812
L10.3356 -48.8391
L10.1232 -48.393
L9.9187 -47.9432
L9.72215 -47.4898
L9.5336 -47.0329
L9.35311 -46.5726
L9.18075 -46.1091
L9.01655 -45.6425
L8.86057 -45.173
L8.71285 -44.7006
L8.57345 -44.2257
L8.4424 -43.7482
L8.31975 -43.2683
L8.20553 -42.7863
L8.09977 -42.3022
L8.00252 -41.8161
L7.91379 -41.3283
L7.83362 -40.8389
L7.76202 -40.348
L7.69903 -39.8557
L7.64466 -39.3623
L7.59893 -38.8679
L7.56185 -38.3726
L7.53343 -37.8766
L7.51368 -37.38
L7.50261 -36.8829
L7.50022 -36.3857
L7.50651 -35.8883
L7.52148 -35.3909
L7.54513 -34.8937
L7.57744 -34.3968
L7.61841 -33.9005
L7.66802 -33.4048
L7.72627 -32.9098
L7.79313 -32.4158
L7.86858 -31.9229
L7.9526 -31.4313
L8.04516 -30.941
L8.14624 -30.4523
L8.2558 -29.9653
L8.37382 -29.4801
L8.50025 -28.9968
L8.63505 -28.5158
L8.7782 -28.037
L8.92963 -27.5606
L9.08931 -27.0868
L9.25719 -26.6157
L9.43321 -26.1475
L9.61733 -25.6823
L9.80948 -25.2202
L10.0096 -24.7614
L10.2177 -24.306
L10.4336 -23.8542
L10.6572 -23.4061
L10.8887 -22.9618
L11.1277 -22.5215
L11.3743 -22.0853
L11.6285 -21.6533
L11.89 -21.2257
L12.1589 -20.8026
L12.4351 -20.3842
L12.7184 -19.9705
L13.0089 -19.5617
L13.3063 -19.1578
L13.6107 -18.7592
L13.9218 -18.3657
L14.2397 -17.9777
L14.5643 -17.5951
L14.8953 -17.2181
L15.2328 -16.8469
L15.5766 -16.4815
L15.9266 -16.122
L16.2828 -15.7686
L16.6449 -15.4213
L17.013 -15.0804
L17.3868 -14.7458
L17.7663 -14.4176
L18.1514 -14.0961
L18.5418 -13.7812
L18.9377 -13.4731
L19.3387 -13.1718
L19.7447 -12.8775
L20.1558 -12.5902
L20.5716 -12.3101
L20.9922 -12.0372
L21.4173 -11.7716
L21.8469 -11.5134
L22.2808 -11.2626
L22.7188 -11.0194
L23.1609 -10.7837
z
" id="C0_2_bc09ff7b6f"/>
    </defs>
    <g clip-path="url(#p1bffca34e9)">
     <use style="fill:#ff0000;stroke:#000000;stroke-width:2.0;" x="0.0" xlink:href="#C0_0_a811fe30f3" y="72.0"/>
    </g>
    <g clip-path="url(#p1bffca34e9)">
     <use style="fill:#ffffff;stroke:#000000;stroke-width:2.0;" x="0.0" xlink:href="#C0_1_faaabb4335" y="72.0"/>
    </g>
    <g clip-path="url(#p1bffca34e9)">
     <use style="fill:#ffffff;stroke:#000000;stroke-width:2.0;" x="0.0" xlink:href="#C0_2_bc09ff7b6f" y="72.0"/>
    </g>
   </g>
  </g>
 </g>
 <defs>
  <clipPath id="p1bffca34e9">
   <rect height="72.0" width="72.0" x="0.0" y="0.0"/>
  </clipPath>
 </defs>
</svg>
