<?xml version="1.0" encoding="utf-8" standalone="no"?>
<!DOCTYPE svg PUBLIC "-//W3C//DTD SVG 1.1//EN"
  "http://www.w3.org/Graphics/SVG/1.1/DTD/svg11.dtd">
<!-- Created with matplotlib (http://matplotlib.org/) -->
<svg height="72pt" version="1.1" viewBox="0 0 72 72" width="72pt" xmlns="http://www.w3.org/2000/svg" xmlns:xlink="http://www.w3.org/1999/xlink">
 <defs>
  <style type="text/css">
*{stroke-linecap:butt;stroke-linejoin:round;}
  </style>
 </defs>
 <g id="figure_1">
  <g id="patch_1">
   <path d="
M0 72
L72 72
L72 0
L0 0
z
" style="fill:none;"/>
  </g>
  <g id="axes_1">
   <g id="PatchCollection_1">
    <defs>
     <path d="
M36 -7.5
C43.5583 -7.5 50.808 -10.5029 56.1525 -15.8475
C61.4971 -21.192 64.5 -28.4417 64.5 -36
C64.5 -43.5583 61.4971 -50.808 56.1525 -56.1525
C50.808 -61.4971 43.5583 -64.5 36 -64.5
C28.4417 -64.5 21.192 -61.4971 15.8475 -56.1525
C10.5029 -50.808 7.5 -43.5583 7.5 -36
C7.5 -28.4417 10.5029 -21.192 15.8475 -15.8475
C21.192 -10.5029 28.4417 -7.5 36 -7.5
z
" id="C0_0_a811fe30f3"/>
     <path d="
M56.0397 -55.9633
L56.1264 -55.5415
L56.2018 -55.1226
L56.2665 -54.7069
L56.321 -54.2946
L56.3659 -53.8859
L56.4017 -53.4811
L56.4288 -53.0802
L56.4476 -52.6834
L56.4587 -52.2908
L56.4624 -51.9025
L56.4591 -51.5185
L56.4491 -51.139
L56.4328 -50.7639
L56.4106 -50.3934
L56.3827 -50.0273
L56.3495 -49.6657
L56.3112 -49.3086
L56.2682 -48.956
L56.2205 -48.6078
L56.1686 -48.264
L56.1126 -47.9246
L56.0528 -47.5895
L55.9893 -47.2587
L55.9223 -46.932
L55.8521 -46.6095
L55.7787 -46.2911
L55.7024 -45.9767
L55.6233 -45.6662
L55.5415 -45.3596
L55.4571 -45.0568
L55.3704 -44.7576
L55.2813 -44.4621
L55.1901 -44.1701
L55.0968 -43.8816
L55.0015 -43.5965
L54.9042 -43.3146
L54.8052 -43.036
L54.7044 -42.7605
L54.6018 -42.488
L54.4977 -42.2185
L54.392 -41.9519
L54.2848 -41.688
L54.1761 -41.4269
L54.066 -41.1684
L53.9545 -40.9125
L53.8416 -40.659
L53.7274 -40.4079
L53.612 -40.1592
L53.4952 -39.9127
L53.3773 -39.6683
L53.2581 -39.4261
L53.1376 -39.1859
L53.016 -38.9476
L52.8932 -38.7111
L52.7692 -38.4765
L52.644 -38.2436
L52.5176 -38.0124
L52.39 -37.7828
L52.2613 -37.5547
L52.1313 -37.3281
L52.0002 -37.1028
L51.8678 -36.879
L51.7342 -36.6563
L51.5993 -36.4349
L51.4632 -36.2147
L51.3258 -35.9955
L51.1872 -35.7774
L51.0472 -35.5603
L50.9058 -35.344
L50.619 -35.1287
L50.4734 -34.9142
L50.3264 -34.7004
L50.1779 -34.4873
L50.0279 -34.2749
L49.8763 -34.063
L49.7231 -33.8518
L49.5683 -33.641
L49.4118 -33.4307
L49.2536 -33.2208
L49.0936 -33.0112
L48.9318 -32.802
L48.7681 -32.5931
L48.6025 -32.3843
L48.4349 -32.1758
L48.2654 -31.9674
L48.0937 -31.7591
L47.9199 -31.5509
L47.7439 -31.3427
L47.5657 -31.1344
L47.3852 -30.9262
L47.2023 -30.7178
L47.0169 -30.5094
L46.8291 -30.3008
L46.6386 -30.092
L46.4455 -29.883
L46.2497 -29.6738
L46.0511 -29.4643
L45.8497 -29.2545
L45.6452 -29.0445
L45.4378 -28.8341
L45.2272 -28.6234
L45.0135 -28.4123
L44.7965 -28.2009
L44.5761 -27.989
L44.3523 -27.7768
L44.1249 -27.5643
L43.894 -27.3513
L43.6593 -27.138
L43.4208 -26.9243
L43.1784 -26.7102
L42.9321 -26.4958
L42.6817 -26.281
L42.4271 -26.066
L42.1683 -25.8507
L41.9051 -25.6352
L41.6375 -25.4194
L41.3653 -25.2036
L41.0886 -24.9876
L40.8072 -24.7717
L40.521 -24.5558
L40.2299 -24.34
L39.9339 -24.1245
L39.6329 -23.9093
L39.3269 -23.6945
L39.0157 -23.4802
L38.6993 -23.2666
L38.3777 -23.0539
L38.0508 -22.8421
L37.7187 -22.6315
L37.3812 -22.4221
L37.0383 -22.2143
L36.6901 -22.0083
L36.3366 -21.8042
L35.9778 -21.6023
L35.6138 -21.4029
L35.2445 -21.2063
L34.8702 -21.0128
L34.4908 -20.8228
L34.1065 -20.6365
L33.7175 -20.4546
L33.3239 -20.2773
L32.926 -20.1052
L32.5239 -19.9388
L32.1181 -19.7787
L31.7087 -19.6256
L31.2962 -19.4803
L30.881 -19.3435
L30.4637 -19.2162
L30.0448 -19.0994
L29.625 -18.9944
L29.2051 -18.9026
L28.786 -18.8255
L28.3688 -18.7649
L27.9546 -18.7228
L27.5448 -18.7015
L27.1409 -18.7035
L26.7443 -18.7311
L26.3568 -18.787
L25.9797 -18.8734
L25.6144 -18.992
L25.2621 -19.1439
L24.9233 -19.3292
L24.5987 -19.5472
L24.2882 -19.7961
L23.9916 -20.0737
L23.7088 -20.3771
L23.4392 -20.7034
L23.1823 -21.0496
L22.9378 -21.4131
L22.7051 -21.7911
L22.4837 -22.1816
L22.2734 -22.5823
L22.0737 -22.9917
L21.8842 -23.4081
L21.7046 -23.8301
L21.5347 -24.2566
L21.3741 -24.6866
L21.2226 -25.1192
L21.0799 -25.5534
L20.9457 -25.9887
L20.8198 -26.4244
L20.702 -26.8598
L20.5919 -27.2946
L20.4894 -27.7283
L20.3943 -28.1605
L20.3063 -28.5907
L20.2251 -29.0188
L20.1507 -29.4443
L20.0826 -29.8672
L20.0209 -30.2871
L19.9651 -30.7039
L19.9152 -31.1173
L19.8709 -31.5273
L19.8321 -31.9337
L19.7985 -32.3365
L19.77 -32.7355
L19.7463 -33.1306
L19.7275 -33.5218
L19.7131 -33.9092
L19.7032 -34.2925
L19.6975 -34.6719
L19.6958 -35.0473
L19.6982 -35.4187
L19.7043 -35.7861
L19.7141 -36.1496
L19.7275 -36.5091
L19.7443 -36.8647
L19.7644 -37.2165
L19.7877 -37.5645
L19.8142 -37.9087
L19.8436 -38.2492
L19.8759 -38.586
L19.9111 -38.9193
L19.9489 -39.249
L19.9894 -39.5752
L20.0325 -39.8981
L20.0781 -40.2176
L20.1262 -40.5338
L20.1766 -40.8469
L20.2293 -41.1568
L20.2843 -41.4637
L20.3415 -41.7677
L20.4009 -42.0687
L20.4623 -42.3669
L20.5259 -42.6624
L20.5915 -42.9552
L20.6591 -43.2454
L20.7287 -43.533
L20.8003 -43.8183
L20.8738 -44.1011
L20.9492 -44.3817
L21.0264 -44.66
L21.1056 -44.9361
L21.1867 -45.2102
L21.2696 -45.4823
L21.3543 -45.7524
L21.441 -46.0206
L21.5294 -46.287
L21.6197 -46.5517
L21.7119 -46.8147
L21.8059 -47.0761
L21.9019 -47.3359
L21.9997 -47.5943
L22.0994 -47.8512
L22.201 -48.1067
L22.3045 -48.361
L22.41 -48.6139
L22.5175 -48.8657
L22.627 -49.1164
L22.7385 -49.366
L22.8521 -49.6146
L22.9678 -49.8621
L23.0856 -50.1088
L23.2056 -50.3546
L23.3278 -50.5996
L23.4523 -50.8437
L23.5791 -51.0872
L23.7082 -51.33
L23.8397 -51.5721
L23.9737 -51.8136
L24.1102 -52.0546
L24.2493 -52.295
L24.391 -52.535
L24.5355 -52.7745
L24.6826 -53.0136
L24.8327 -53.2523
L24.9856 -53.4907
L25.1416 -53.7288
L25.3006 -53.9665
L25.4627 -54.204
L25.6281 -54.4412
L25.7968 -54.6781
L25.969 -54.9149
L26.1447 -55.1514
L26.324 -55.3877
L26.507 -55.6239
L26.6939 -55.8598
L26.8847 -56.0956
L27.0796 -56.3311
L27.2786 -56.5665
L27.482 -56.8016
L27.6898 -57.0366
L27.9021 -57.2712
L28.1192 -57.5056
L28.3411 -57.7396
L28.568 -57.9733
L28.8 -58.2066
L29.0372 -58.4394
L29.2799 -58.6717
L29.5282 -58.9034
L29.7823 -59.1345
L30.0423 -59.3648
L30.3084 -59.5942
L30.5807 -59.8228
L30.8595 -60.0502
L31.1448 -60.2765
L31.437 -60.5015
L31.7362 -60.725
L32.0425 -60.9468
L32.3562 -61.1669
L32.6774 -61.3849
L33.0063 -61.6007
L33.3431 -61.8142
L33.688 -62.0249
L34.0411 -62.2327
L34.4027 -62.4373
L34.7729 -62.6384
L35.1519 -62.8357
L35.5398 -63.0288
L35.9368 -63.2174
L36.3429 -63.4012
L36.7584 -63.5796
L37.1833 -63.7523
L37.6178 -63.9187
L38.0618 -64.0785
L38.5154 -64.2311
L39.0116 -64.376
L39.5058 -64.3404
L39.9988 -64.2836
L40.4907 -64.2181
L40.9812 -64.144
L41.4702 -64.0613
L41.9575 -63.9701
L42.443 -63.8704
L42.9265 -63.7622
L43.4079 -63.6455
L43.8871 -63.5204
L44.3639 -63.3869
L44.8381 -63.2451
L45.3096 -63.095
L45.7783 -62.9366
L46.244 -62.77
L46.7066 -62.5953
L47.166 -62.4125
L47.6219 -62.2216
L48.0743 -62.0227
L48.523 -61.8159
L48.9679 -61.6013
L49.4088 -61.3788
L49.8457 -61.1486
L50.2783 -60.9108
L50.7066 -60.6653
L51.1304 -60.4124
L51.5496 -60.152
L51.9641 -59.8843
L52.3737 -59.6093
L52.7783 -59.327
L53.1779 -59.0377
L53.5721 -58.7414
L53.9611 -58.4381
L54.3445 -58.128
L54.7224 -57.8112
L55.0945 -57.4877
L55.4609 -57.1577
L55.8213 -56.8212
z
" id="C0_1_267a65af66"/>
     <path d="
M33.0563 -7.8221
L32.6322 -8.05398
L32.2101 -8.29413
L31.7903 -8.5423
L31.3728 -8.79819
L30.958 -9.06147
L30.5459 -9.33169
L30.1366 -9.60837
L29.7302 -9.8909
L29.3269 -10.1786
L28.9265 -10.4706
L28.5291 -10.766
L28.1346 -11.0635
L27.7427 -11.362
L27.3532 -11.6598
L26.9657 -11.9551
L26.5797 -12.2459
L26.1945 -12.5299
L25.8092 -12.8046
L25.423 -13.0674
L25.0348 -13.3156
L24.6435 -13.5469
L24.2482 -13.7592
L23.848 -13.9514
L23.4422 -14.1231
L23.0306 -14.2748
L22.6133 -14.408
L22.1906 -14.5246
L21.7629 -14.6271
L21.3311 -14.7182
L20.8959 -14.8005
L20.4581 -14.8764
L20.0185 -14.9481
L19.5779 -15.0174
L19.1368 -15.0861
L18.696 -15.1554
L18.256 -15.2266
L17.8173 -15.3006
L17.3805 -15.3783
L16.9458 -15.4602
L16.5138 -15.5469
L16.4304 -15.6389
L16.7949 -15.2809
L17.1654 -14.9426
L17.5415 -14.6106
L17.9233 -14.2851
L18.3106 -13.9663
L18.7033 -13.6542
L19.1013 -13.3489
L19.5043 -13.0504
L19.9125 -12.759
L20.3255 -12.4747
L20.7433 -12.1975
L21.1657 -11.9275
L21.5927 -11.6649
L22.0241 -11.4098
L22.4597 -11.1621
L22.8994 -10.9219
L23.3431 -10.6894
L23.7907 -10.4647
L24.242 -10.2477
L24.6969 -10.0385
L25.1552 -9.83724
L25.6168 -9.64396
L26.0816 -9.45871
L26.5494 -9.28154
L27.0201 -9.11251
L27.4936 -8.95167
L27.9696 -8.79907
L28.448 -8.65476
L28.9288 -8.51877
L29.4117 -8.39116
L29.8967 -8.27195
L30.3834 -8.16119
L30.8719 -8.05892
L31.362 -7.96515
L31.8535 -7.87992
L32.3462 -7.80326
z
" id="C0_2_1a57d82951"/>
    </defs>
    <g clip-path="url(#p1bffca34e9)">
     <use style="fill:#ff0000;stroke:#000000;stroke-width:2.0;" x="0.0" xlink:href="#C0_0_a811fe30f3" y="72.0"/>
    </g>
    <g clip-path="url(#p1bffca34e9)">
     <use style="fill:#ffffff;stroke:#000000;stroke-width:2.0;" x="0.0" xlink:href="#C0_1_267a65af66" y="72.0"/>
    </g>
    <g clip-path="url(#p1bffca34e9)">
     <use style="fill:#ffffff;stroke:#000000;stroke-width:2.0;" x="0.0" xlink:href="#C0_2_1a57d82951" y="72.0"/>
    </g>
   </g>
  </g>
 </g>
 <defs>
  <clipPath id="p1bffca34e9">
   <rect height="72.0" width="72.0" x="0.0" y="0.0"/>
  </clipPath>
 </defs>
</svg>
