<?xml version="1.0" encoding="utf-8" standalone="no"?>
<!DOCTYPE svg PUBLIC "-//W3C//DTD SVG 1.1//EN"
  "http://www.w3.org/Graphics/SVG/1.1/DTD/svg11.dtd">
<!-- Created with matplotlib (http://matplotlib.org/) -->
<svg height="72pt" version="1.1" viewBox="0 0 72 72" width="72pt" xmlns="http://www.w3.org/2000/svg" xmlns:xlink="http://www.w3.org/1999/xlink">
 <defs>
  <style type="text/css">
*{stroke-linecap:butt;stroke-linejoin:round;}
  </style>
 </defs>
 <g id="figure_1">
  <g id="patch_1">
   <path d="
M0 72
L72 72
L72 0
L0 0
z
" style="fill:none;"/>
  </g>
  <g id="axes_1">
   <g id="PatchCollection_1">
    <defs>
     <path d="
M36 -7.5
C43.5583 -7.5 50.808 -10.5029 56.1525 -15.8475
C61.4971 -21.192 64.5 -28.4417 64.5 -36
C64.5 -43.5583 61.4971 -50.808 56.1525 -56.1525
C50.808 -61.4971 43.5583 -64.5 36 -64.5
C28.4417 -64.5 21.192 -61.4971 15.8475 -56.1525
C10.5029 -50.808 7.5 -43.5583 7.5 -36
C7.5 -28.4417 10.5029 -21.192 15.8475 -15.8475
C21.192 -10.5029 28.4417 -7.5 36 -7.5
z
" id="C0_0_a811fe30f3"/>
     <path d="
M37.4302 -7.62123
L37.1103 -7.79731
L36.8185 -7.98608
L36.5555 -8.18696
L36.3218 -8.39931
L36.1172 -8.62247
L35.9413 -8.85575
L35.7932 -9.09848
L35.6717 -9.34995
L35.5754 -9.6095
L35.5026 -9.87646
L35.4516 -10.1502
L35.4203 -10.4301
L35.4071 -10.7157
L35.41 -11.0063
L35.4273 -11.3015
L35.4574 -11.6007
L35.4988 -11.9037
L35.55 -12.2098
L35.6099 -12.5188
L35.6772 -12.8303
L35.7509 -13.1439
L35.8301 -13.4593
L35.914 -13.7762
L36.0019 -14.0943
L36.093 -14.4133
L36.1868 -14.7331
L36.2829 -15.0532
L36.3807 -15.3737
L36.4798 -15.6941
L36.58 -16.0144
L36.6809 -16.3344
L36.7822 -16.6538
L36.8837 -16.9726
L36.9852 -17.2906
L37.0865 -17.6076
L37.1874 -17.9236
L37.2879 -18.2384
L37.3877 -18.552
L37.4869 -18.8643
L37.5852 -19.1751
L37.6827 -19.4845
L37.7793 -19.7923
L37.8749 -20.0985
L37.9694 -20.4031
L38.0629 -20.706
L38.1553 -21.0072
L38.2466 -21.3066
L38.3367 -21.6044
L38.4258 -21.9003
L38.5136 -22.1945
L38.6004 -22.4869
L38.6859 -22.7776
L38.7704 -23.0665
L38.8537 -23.3536
L38.9358 -23.6391
L39.0169 -23.9228
L39.0968 -24.2048
L39.1756 -24.4851
L39.2534 -24.7639
L39.3301 -25.041
L39.4057 -25.3165
L39.4804 -25.5905
L39.554 -25.863
L39.6266 -26.1341
L39.6983 -26.4037
L39.769 -26.672
L39.8387 -26.9389
L39.9076 -27.2045
L39.9755 -27.4689
L40.0426 -27.732
L40.1089 -27.9941
L40.1743 -28.255
L40.2389 -28.5148
L40.3027 -28.7737
L40.3657 -29.0316
L40.4279 -29.2886
L40.4895 -29.5448
L40.5503 -29.8002
L40.6104 -30.0548
L40.6698 -30.3087
L40.7286 -30.562
L40.7867 -30.8147
L40.8442 -31.0669
L40.901 -31.3186
L40.9573 -31.5699
L41.013 -31.8208
L41.0681 -32.0714
L41.1226 -32.3218
L41.1766 -32.5719
L41.2301 -32.8219
L41.2831 -33.0719
L41.3356 -33.3217
L41.439 -33.5717
L41.4901 -33.8217
L41.5407 -34.0718
L41.5908 -34.3221
L41.6406 -34.5727
L41.6899 -34.8235
L41.7388 -35.0748
L41.7873 -35.3264
L41.8354 -35.5786
L41.8831 -35.8312
L41.9304 -36.0845
L41.9774 -36.3384
L42.024 -36.593
L42.0703 -36.8483
L42.1162 -37.1045
L42.1618 -37.3616
L42.207 -37.6196
L42.252 -37.8786
L42.2965 -38.1386
L42.3408 -38.3997
L42.3848 -38.662
L42.4284 -38.9256
L42.4718 -39.1903
L42.5148 -39.4565
L42.5575 -39.724
L42.5999 -39.9929
L42.642 -40.2634
L42.6839 -40.5354
L42.7254 -40.809
L42.7666 -41.0842
L42.8075 -41.3612
L42.8482 -41.6399
L42.8885 -41.9204
L42.9285 -42.2027
L42.9682 -42.487
L43.0076 -42.7732
L43.0467 -43.0614
L43.0855 -43.3516
L43.124 -43.6439
L43.1622 -43.9382
L43.2001 -44.2347
L43.2377 -44.5334
L43.2749 -44.8342
L43.3119 -45.1373
L43.3485 -45.4425
L43.3848 -45.75
L43.4208 -46.0598
L43.4566 -46.3717
L43.492 -46.6859
L43.5271 -47.0024
L43.562 -47.321
L43.5966 -47.6418
L43.631 -47.9648
L43.6651 -48.2899
L43.6991 -48.617
L43.7329 -48.9461
L43.7666 -49.2771
L43.8002 -49.6099
L43.8339 -49.9445
L43.8676 -50.2806
L43.9014 -50.6183
L43.9355 -50.9572
L43.9699 -51.2973
L44.0049 -51.6384
L44.0404 -51.9802
L44.0768 -52.3225
L44.1141 -52.6652
L44.1527 -53.0078
L44.1929 -53.3501
L44.2348 -53.6917
L44.2789 -54.0323
L44.3257 -54.3715
L44.3754 -54.7087
L44.4288 -55.0435
L44.4863 -55.3753
L44.5488 -55.7035
L44.6168 -56.0275
L44.6914 -56.3466
L44.7733 -56.6599
L44.8638 -56.9666
L44.964 -57.2658
L45.075 -57.5564
L45.1982 -57.8374
L45.335 -58.1077
L45.4867 -58.366
L45.6548 -58.6112
L45.8405 -58.8419
L46.045 -59.057
L46.2694 -59.2551
L46.5143 -59.4352
L46.7803 -59.5961
L47.0675 -59.7371
L47.3758 -59.8572
L47.7044 -59.9561
L48.0527 -60.0332
L48.4195 -60.0885
L48.8034 -60.1219
L49.2029 -60.1336
L49.6164 -60.1238
L50.0422 -60.093
L50.4786 -60.0416
L50.924 -59.9702
L51.3766 -59.8794
L51.835 -59.7697
L52.2709 -59.642
L52.6768 -59.3989
L53.0776 -59.1114
L53.4732 -58.8168
L53.8635 -58.5153
L54.2483 -58.2069
L54.6276 -57.8918
L55.0012 -57.57
L55.369 -57.2416
L55.7309 -56.9067
L56.0868 -56.5655
L56.4366 -56.218
L56.7802 -55.8644
L57.1175 -55.5047
L57.4483 -55.1391
L57.7725 -54.7676
L58.0902 -54.3904
L58.4011 -54.0076
L58.7052 -53.6194
L59.0023 -53.2257
L59.2925 -52.8268
L59.5756 -52.4228
L59.8515 -52.0138
L60.1201 -51.5999
L60.3814 -51.1813
L60.6352 -50.758
L60.8816 -50.3303
L61.1203 -49.8981
L61.3514 -49.4618
L61.5748 -49.0213
L61.7904 -48.5769
L61.9982 -48.1286
L62.198 -47.6767
L62.3899 -47.2212
L62.5737 -46.7622
L62.7494 -46.3
L62.9169 -45.8347
L63.0763 -45.3663
L63.2274 -44.8952
L63.3702 -44.4213
L63.5047 -43.9448
L63.6308 -43.4659
L63.7485 -42.9847
L63.8578 -42.5014
L63.9585 -42.0162
L64.0508 -41.5291
L64.1345 -41.0403
L64.2096 -40.55
L64.2761 -40.0583
L64.334 -39.5653
L64.3833 -39.0713
L64.424 -38.5763
L64.4559 -38.0806
L64.4793 -37.5842
L64.4939 -37.0873
L64.4998 -36.5901
L64.4971 -36.0928
L64.4857 -35.5953
L64.4656 -35.0981
L64.4369 -34.6011
L64.3995 -34.1045
L64.3534 -33.6085
L64.2987 -33.1132
L64.2354 -32.6188
L64.1635 -32.1254
L64.083 -31.6333
L63.9939 -31.1424
L63.8963 -30.653
L63.7903 -30.1653
L63.6757 -29.6793
L63.5527 -29.1953
L63.4214 -28.7133
L63.2817 -28.2335
L63.1336 -27.7562
L62.9773 -27.2813
L62.8128 -26.8091
L62.6401 -26.3396
L62.4593 -25.8732
L62.2705 -25.4098
L62.0736 -24.9496
L61.8688 -24.4928
L61.6562 -24.0395
L61.4357 -23.5899
L61.2074 -23.144
L60.9715 -22.702
L60.728 -22.2641
L60.4769 -21.8304
L60.2184 -21.401
L59.9525 -20.976
L59.6793 -20.5557
L59.3989 -20.14
L59.1114 -19.7291
L58.8168 -19.3232
L58.5153 -18.9224
L58.2069 -18.5268
L57.8918 -18.1365
L57.57 -17.7517
L57.2416 -17.3724
L56.9067 -16.9988
L56.5655 -16.631
L56.218 -16.2691
L55.8644 -15.9132
L55.5047 -15.5634
L55.1391 -15.2198
L54.7676 -14.8825
L54.3904 -14.5517
L54.0076 -14.2275
L53.6194 -13.9098
L53.2257 -13.5989
L52.8268 -13.2948
L52.4228 -12.9977
L52.0138 -12.7075
L51.5999 -12.4244
L51.1813 -12.1485
L50.758 -11.8799
L50.3303 -11.6186
L49.8981 -11.3648
L49.4618 -11.1184
L49.0213 -10.8797
L48.5769 -10.6486
L48.1286 -10.4252
L47.6767 -10.2096
L47.2212 -10.0018
L46.7622 -9.80199
L46.3 -9.61015
L45.8347 -9.42634
L45.3663 -9.25063
L44.8952 -9.08306
L44.4213 -8.9237
L43.9448 -8.77258
L43.4659 -8.62975
L42.9847 -8.49527
L42.5014 -8.36916
L42.0162 -8.25147
L41.5291 -8.14223
L41.0403 -8.04147
L40.55 -7.94923
L40.0583 -7.86554
L39.5653 -7.79042
L39.0713 -7.72389
L38.5763 -7.66597
L38.0806 -7.61669
z
" id="C0_1_eaba913940"/>
     <path d="
M19.8114 -12.6607
L19.5081 -13.0433
L19.2061 -13.4308
L18.9066 -13.8227
L18.6105 -14.2186
L18.3187 -14.6182
L18.0317 -15.021
L17.7503 -15.4266
L17.4748 -15.8345
L17.2058 -16.2445
L16.9436 -16.6562
L16.6885 -17.0691
L16.4406 -17.483
L16.2002 -17.8976
L15.9674 -18.3125
L15.7422 -18.7274
L15.5248 -19.142
L15.315 -19.5562
L15.1129 -19.9697
L14.9185 -20.3822
L14.7317 -20.7936
L14.5524 -21.2037
L14.3805 -21.6122
L14.216 -22.0191
L14.0586 -22.4242
L13.9084 -22.8274
L13.7651 -23.2285
L13.6286 -23.6275
L13.4988 -24.0243
L13.3756 -24.4188
L13.2588 -24.8109
L13.1482 -25.2005
L13.0437 -25.5877
L12.9451 -25.9724
L12.8524 -26.3545
L12.7654 -26.7341
L12.6839 -27.1111
L12.6078 -27.4856
L12.5369 -27.8574
L12.4712 -28.2267
L12.4105 -28.5934
L12.3547 -28.9576
L12.3037 -29.3192
L12.2573 -29.6784
L12.2154 -30.035
L12.178 -30.3893
L12.1448 -30.7411
L12.1159 -31.0906
L12.0912 -31.4378
L12.0704 -31.7827
L12.0536 -32.1253
L12.0407 -32.4658
L12.0316 -32.8042
L12.0262 -33.1404
L12.0244 -33.4747
L12.0262 -33.8069
L12.0315 -34.1373
L12.0403 -34.4658
L12.0524 -34.7925
L12.0679 -35.1174
L12.0867 -35.4406
L12.1088 -35.7622
L12.1341 -36.0823
L12.1625 -36.4008
L12.1941 -36.7178
L12.2288 -37.0335
L12.2666 -37.3478
L12.3075 -37.6609
L12.3514 -37.9727
L12.3984 -38.2833
L12.4483 -38.5928
L12.5013 -38.9013
L12.5573 -39.2088
L12.6163 -39.5153
L12.6782 -39.821
L12.7432 -40.1258
L12.8112 -40.4299
L12.8821 -40.7332
L12.9562 -41.0359
L13.0332 -41.3379
L13.1133 -41.6394
L13.1965 -41.9404
L13.2828 -42.2409
L13.3722 -42.5411
L13.4648 -42.8408
L13.5606 -43.1402
L13.6596 -43.4394
L13.7619 -43.7383
L13.8675 -44.0371
L13.9764 -44.3357
L14.0887 -44.6342
L14.2045 -44.9327
L14.3238 -45.2311
L14.4467 -45.5296
L14.5732 -45.8281
L14.7033 -46.1267
L14.8373 -46.4254
L14.975 -46.7242
L15.1166 -47.0233
L15.2622 -47.3225
L15.4119 -47.6219
L15.5656 -47.9216
L15.7236 -48.2215
L15.8859 -48.5216
L16.0525 -48.8221
L16.2236 -49.1228
L16.3993 -49.4238
L16.5797 -49.7251
L16.7648 -50.0267
L16.9547 -50.3286
L17.1497 -50.6307
L17.3497 -50.933
L17.5549 -51.2356
L17.7653 -51.5384
L17.9812 -51.8413
L18.2026 -52.1443
L18.4296 -52.4475
L18.6623 -52.7506
L18.9008 -53.0537
L19.1453 -53.3568
L19.3958 -53.6596
L19.6525 -53.9623
L19.9154 -54.2646
L20.1847 -54.5665
L20.4605 -54.8678
L20.7428 -55.1686
L21.0317 -55.4686
L21.3273 -55.7677
L21.6297 -56.0658
L21.9389 -56.3628
L22.2549 -56.6585
L22.5779 -56.9527
L22.9078 -57.2453
L23.2445 -57.5361
L23.5882 -57.8249
L23.9387 -58.1116
L24.296 -58.396
L24.6599 -58.6777
L25.0305 -58.9568
L25.4074 -59.2329
L25.7905 -59.5059
L26.1796 -59.7755
L26.5743 -60.0416
L26.9744 -60.304
L27.3794 -60.5625
L27.7889 -60.8169
L28.2024 -61.0672
L28.6192 -61.3132
L29.0387 -61.5548
L29.4601 -61.792
L29.8826 -62.0248
L30.305 -62.2531
L30.7265 -62.4772
L31.1457 -62.6971
L31.5613 -62.913
L31.9719 -63.1253
L32.3759 -63.3343
L32.7717 -63.5404
L33.1573 -63.7443
L33.531 -63.9463
L33.8908 -64.1473
L33.7326 -64.3479
L33.2372 -64.4097
L32.7425 -64.3658
L32.2489 -64.3132
L31.7564 -64.2521
L31.2652 -64.1823
L30.7754 -64.1039
L30.2873 -64.017
L29.8008 -63.9216
L29.3163 -63.8176
L28.8338 -63.7052
L28.3535 -63.5843
L27.8755 -63.4551
L27.4 -63.3174
L26.9271 -63.1715
L26.4569 -63.0172
L25.9897 -62.8548
L25.5255 -62.6841
L25.0645 -62.5054
L24.6069 -62.3185
L24.1527 -62.1237
L23.7021 -61.9209
L23.2553 -61.7102
L22.8123 -61.4916
L22.3734 -61.2653
L21.9386 -61.0313
L21.5081 -60.7897
L21.082 -60.5405
L20.6605 -60.2838
L20.2436 -60.0198
L19.8316 -59.7484
L19.4244 -59.4698
L19.0223 -59.184
L18.6254 -58.8912
L18.2338 -58.5914
L17.8476 -58.2848
L17.4669 -57.9713
L17.0918 -57.6512
L16.7225 -57.3244
L16.3591 -56.9912
L16.0017 -56.6515
L15.6504 -56.3056
L15.3052 -55.9535
L14.9664 -55.5953
L14.634 -55.2312
L14.3081 -54.8611
L13.9887 -54.4854
L13.6761 -54.104
L13.3703 -53.7171
L13.0714 -53.3248
L12.7795 -52.9272
L12.4946 -52.5245
L12.2169 -52.1167
L11.9465 -51.704
L11.6834 -51.2866
L11.4277 -50.8644
L11.1794 -50.4378
L10.9387 -50.0067
L10.7057 -49.5714
L10.4804 -49.132
L10.2628 -48.6885
L10.0531 -48.2412
L9.85129 -47.7902
L9.65744 -47.3356
L9.47161 -46.8775
L9.29387 -46.4161
L9.12426 -45.9515
L8.96283 -45.4839
L8.80964 -45.0134
L8.66474 -44.5402
L8.52816 -44.0643
L8.39995 -43.586
L8.28015 -43.1054
L8.16879 -42.6227
L8.0659 -42.1379
L7.97153 -41.6512
L7.8857 -41.1628
L7.80843 -40.6729
L7.73974 -40.1815
L7.67967 -39.6889
L7.62822 -39.1951
L7.58541 -38.7004
L7.55126 -38.2048
L7.52577 -37.7085
L7.50896 -37.2118
L7.50083 -36.7147
L7.50138 -36.2173
L7.51061 -35.7199
L7.52851 -35.2226
L7.55509 -34.7255
L7.59034 -34.2288
L7.63423 -33.7326
L7.68677 -33.2372
L7.74794 -32.7425
L7.8177 -32.2489
L7.89606 -31.7564
L7.98297 -31.2652
L8.07842 -30.7754
L8.18237 -30.2873
L8.2948 -29.8008
L8.41567 -29.3163
L8.54494 -28.8338
L8.68257 -28.3535
L8.82852 -27.8755
L8.98275 -27.4
L9.14521 -26.9271
L9.31585 -26.4569
L9.49462 -25.9897
L9.68146 -25.5255
L9.87632 -25.0645
L10.0791 -24.6069
L10.2898 -24.1527
L10.5084 -23.7021
L10.7347 -23.2553
L10.9687 -22.8123
L11.2103 -22.3734
L11.4595 -21.9386
L11.7162 -21.5081
L11.9802 -21.082
L12.2516 -20.6605
L12.5302 -20.2436
L12.816 -19.8316
L13.1088 -19.4244
L13.4086 -19.0223
L13.7152 -18.6254
L14.0287 -18.2338
L14.3488 -17.8476
L14.6756 -17.4669
L15.0088 -17.0918
L15.3485 -16.7225
L15.6944 -16.3591
L16.0465 -16.0017
L16.4047 -15.6504
L16.7688 -15.3052
L17.1389 -14.9664
L17.5146 -14.634
L17.896 -14.3081
L18.2829 -13.9887
L18.6752 -13.6761
L19.0728 -13.3703
z
" id="C0_2_4441954aa6"/>
    </defs>
    <g clip-path="url(#p1bffca34e9)">
     <use style="fill:#ff0000;stroke:#000000;stroke-width:2.0;" x="0.0" xlink:href="#C0_0_a811fe30f3" y="72.0"/>
    </g>
    <g clip-path="url(#p1bffca34e9)">
     <use style="fill:#ffffff;stroke:#000000;stroke-width:2.0;" x="0.0" xlink:href="#C0_1_eaba913940" y="72.0"/>
    </g>
    <g clip-path="url(#p1bffca34e9)">
     <use style="fill:#ffffff;stroke:#000000;stroke-width:2.0;" x="0.0" xlink:href="#C0_2_4441954aa6" y="72.0"/>
    </g>
   </g>
  </g>
 </g>
 <defs>
  <clipPath id="p1bffca34e9">
   <rect height="72.0" width="72.0" x="0.0" y="0.0"/>
  </clipPath>
 </defs>
</svg>
