<?xml version="1.0" encoding="utf-8" standalone="no"?>
<!DOCTYPE svg PUBLIC "-//W3C//DTD SVG 1.1//EN"
  "http://www.w3.org/Graphics/SVG/1.1/DTD/svg11.dtd">
<!-- Created with matplotlib (http://matplotlib.org/) -->
<svg height="72pt" version="1.1" viewBox="0 0 72 72" width="72pt" xmlns="http://www.w3.org/2000/svg" xmlns:xlink="http://www.w3.org/1999/xlink">
 <defs>
  <style type="text/css">
*{stroke-linecap:butt;stroke-linejoin:round;}
  </style>
 </defs>
 <g id="figure_1">
  <g id="patch_1">
   <path d="
M0 72
L72 72
L72 0
L0 0
z
" style="fill:none;"/>
  </g>
  <g id="axes_1">
   <g id="PatchCollection_1">
    <defs>
     <path d="
M36 -7.5
C43.5583 -7.5 50.808 -10.5029 56.1525 -15.8475
C61.4971 -21.192 64.5 -28.4417 64.5 -36
C64.5 -43.5583 61.4971 -50.808 56.1525 -56.1525
C50.808 -61.4971 43.5583 -64.5 36 -64.5
C28.4417 -64.5 21.192 -61.4971 15.8475 -56.1525
C10.5029 -50.808 7.5 -43.5583 7.5 -36
C7.5 -28.4417 10.5029 -21.192 15.8475 -15.8475
C21.192 -10.5029 28.4417 -7.5 36 -7.5
z
" id="C0_0_a811fe30f3"/>
     <path d="
M60.0315 -51.2271
L59.8634 -51.0865
L59.6977 -50.9396
L59.5342 -50.7868
L59.3729 -50.6281
L59.2137 -50.464
L59.0565 -50.2946
L58.9012 -50.1201
L58.7476 -49.9408
L58.5958 -49.7569
L58.4456 -49.5687
L58.2969 -49.3764
L58.1497 -49.1801
L58.0038 -48.9801
L57.8592 -48.7766
L57.7158 -48.5697
L57.5735 -48.3597
L57.4322 -48.1467
L57.2919 -47.931
L57.1525 -47.7126
L57.0139 -47.4917
L56.876 -47.2686
L56.7389 -47.0433
L56.6024 -46.816
L56.4665 -46.5868
L56.3311 -46.3558
L56.1962 -46.1233
L56.0618 -45.8892
L55.9277 -45.6537
L55.794 -45.417
L55.6605 -45.1791
L55.5274 -44.9401
L55.3944 -44.7001
L55.2617 -44.4593
L55.1291 -44.2176
L54.9966 -43.9751
L54.8642 -43.7321
L54.7319 -43.4884
L54.5996 -43.2442
L54.4674 -42.9995
L54.3351 -42.7544
L54.2029 -42.5089
L54.0705 -42.2632
L53.9381 -42.0172
L53.8056 -41.7709
L53.673 -41.5245
L53.5403 -41.2779
L53.4074 -41.0312
L53.2744 -40.7845
L53.1412 -40.5377
L53.0078 -40.2908
L52.8742 -40.044
L52.7404 -39.7972
L52.6064 -39.5504
L52.4721 -39.3037
L52.3376 -39.057
L52.2028 -38.8104
L52.0677 -38.5639
L51.9323 -38.3175
L51.7966 -38.0712
L51.6607 -37.825
L51.5243 -37.5789
L51.3877 -37.3329
L51.2507 -37.0871
L51.1133 -36.8414
L50.9756 -36.5957
L50.8375 -36.3502
L50.6991 -36.1048
L50.5602 -35.8595
L50.4209 -35.6143
L50.2812 -35.3692
L50.1411 -35.1242
L50.0005 -34.8793
L49.8596 -34.6344
L49.7181 -34.3896
L49.5762 -34.1449
L49.4339 -33.9002
L49.1477 -33.6555
L49.0039 -33.4108
L48.8596 -33.1662
L48.7148 -32.9215
L48.5695 -32.6769
L48.4236 -32.4322
L48.2773 -32.1875
L48.1304 -31.9427
L47.983 -31.6979
L47.8351 -31.453
L47.6866 -31.208
L47.5375 -30.9629
L47.388 -30.7177
L47.2378 -30.4724
L47.0872 -30.2269
L46.9359 -29.9813
L46.7842 -29.7356
L46.6318 -29.4896
L46.479 -29.2435
L46.3255 -28.9972
L46.1716 -28.7507
L46.0171 -28.504
L45.8621 -28.257
L45.7066 -28.0098
L45.5505 -27.7624
L45.394 -27.5147
L45.2369 -27.2668
L45.0794 -27.0186
L44.9215 -26.7701
L44.763 -26.5213
L44.6042 -26.2723
L44.445 -26.0229
L44.2854 -25.7733
L44.1254 -25.5234
L43.9651 -25.2732
L43.8045 -25.0226
L43.6436 -24.7718
L43.4826 -24.5206
L43.3213 -24.2692
L43.1599 -24.0175
L42.9983 -23.7654
L42.8368 -23.5131
L42.6752 -23.2604
L42.5136 -23.0075
L42.3522 -22.7543
L42.1909 -22.5008
L42.0299 -22.247
L41.8691 -21.993
L41.7088 -21.7388
L41.5489 -21.4843
L41.3895 -21.2295
L41.2307 -20.9746
L41.0726 -20.7194
L40.9154 -20.4641
L40.759 -20.2086
L40.6037 -19.953
L40.4495 -19.6972
L40.2965 -19.4413
L40.1449 -19.1853
L39.9947 -18.9292
L39.8462 -18.6731
L39.6993 -18.4169
L39.5544 -18.1607
L39.4115 -17.9046
L39.2708 -17.6485
L39.1323 -17.3924
L38.9964 -17.1365
L38.8631 -16.8807
L38.7326 -16.625
L38.6051 -16.3695
L38.4807 -16.1143
L38.3596 -15.8593
L38.2421 -15.6046
L38.1282 -15.3502
L38.0182 -15.0961
L37.9122 -14.8425
L37.8105 -14.5893
L37.7131 -14.3366
L37.6204 -14.0844
L37.5325 -13.8328
L37.4495 -13.5819
L37.3716 -13.3316
L37.2991 -13.082
L37.2321 -12.8332
L37.1707 -12.5853
L37.1152 -12.3382
L37.0657 -12.0921
L37.0223 -11.847
L36.9853 -11.6031
L36.9547 -11.3603
L36.9307 -11.1187
L36.9135 -10.8784
L36.9031 -10.6396
L36.8997 -10.4022
L36.9035 -10.1663
L36.9144 -9.93217
L36.9326 -9.69973
L36.9581 -9.46913
L36.9912 -9.24045
L37.0318 -9.01381
L37.08 -8.78929
L37.1359 -8.56701
L37.1994 -8.34707
L37.2708 -8.12958
L37.3499 -7.91464
L37.8546 -7.70238
L38.3507 -7.56041
L38.846 -7.59711
L39.3405 -7.64246
L39.8339 -7.69645
L40.3262 -7.75906
L40.8172 -7.83027
L41.3067 -7.91006
L41.7946 -7.99841
L42.2807 -8.09529
L42.7649 -8.20067
L43.2471 -8.31452
L43.727 -8.4368
L44.2046 -8.56748
L44.6797 -8.70651
L45.1521 -8.85386
L45.6218 -9.00947
L46.0885 -9.17331
L46.5522 -9.34532
L47.0126 -9.52545
L47.4697 -9.71364
L47.9233 -9.90984
L48.3732 -10.114
L48.8194 -10.326
L49.2617 -10.5459
L49.6999 -10.7735
L50.134 -11.0088
L50.5638 -11.2517
L50.9891 -11.5021
L51.4099 -11.76
L51.8259 -12.0253
L52.2372 -12.2979
L52.6435 -12.5777
L53.0447 -12.8647
L53.4408 -13.1586
L53.8315 -13.4596
L54.2168 -13.7674
L54.5965 -14.082
L54.9706 -14.4033
L55.3389 -14.7311
L55.7013 -15.0654
L56.0577 -15.4061
L56.4081 -15.7531
L56.7521 -16.1062
L57.0899 -16.4654
L57.4212 -16.8306
L57.7461 -17.2016
L58.0642 -17.5783
L58.3757 -17.9606
L58.6804 -18.3484
L58.9781 -18.7416
L59.2689 -19.1401
L59.5525 -19.5437
L59.829 -19.9523
L60.0982 -20.3658
L60.3601 -20.784
L60.6146 -21.2069
L60.8615 -21.6343
L61.1009 -22.0661
L61.3327 -22.5021
L61.5567 -22.9422
L61.773 -23.3863
L61.9814 -23.8343
L62.1818 -24.2859
L62.3743 -24.7412
L62.5588 -25.1998
L62.7352 -25.6618
L62.9034 -26.1269
L63.0635 -26.5949
L63.2153 -27.0659
L63.3588 -27.5396
L63.494 -28.0159
L63.6208 -28.4945
L63.7392 -28.9755
L63.8491 -29.4586
L63.9505 -29.9438
L64.0435 -30.4307
L64.1279 -30.9194
L64.2037 -31.4096
L64.271 -31.9012
L64.3296 -32.394
L64.3796 -32.888
L64.4209 -33.3829
L64.4536 -33.8785
L64.4777 -34.3749
L64.493 -34.8717
L64.4997 -35.3689
L64.4977 -35.8663
L64.487 -36.3637
L64.4676 -36.861
L64.4396 -37.358
L64.4029 -37.8546
L64.3575 -38.3507
L64.3036 -38.846
L64.2409 -39.3405
L64.1697 -39.8339
L64.0899 -40.3262
L64.0016 -40.8172
L63.9047 -41.3067
L63.7993 -41.7946
L63.6855 -42.2807
L63.5632 -42.7649
L63.4325 -43.2471
L63.2935 -43.727
L63.1461 -44.2046
L62.9905 -44.6797
L62.8267 -45.1521
L62.6547 -45.6218
L62.4746 -46.0885
L62.2864 -46.5522
L62.0902 -47.0126
L61.886 -47.4697
L61.674 -47.9233
L61.4541 -48.3732
L61.2265 -48.8194
L60.9912 -49.2617
L60.7483 -49.6999
L60.4979 -50.134
z
" id="C0_1_be38069ae2"/>
     <path d="
M34.5675 -64.4206
L34.4956 -64.2031
L34.4184 -63.9843
L34.3363 -63.7642
L34.2494 -63.5428
L34.158 -63.3202
L34.0624 -63.0963
L33.9628 -62.8714
L33.8593 -62.6453
L33.7524 -62.4181
L33.6421 -62.1898
L33.5286 -61.9606
L33.4122 -61.7303
L33.2931 -61.4992
L33.1715 -61.2671
L33.0475 -61.0341
L32.9213 -60.8002
L32.7931 -60.5655
L32.663 -60.3301
L32.5312 -60.0938
L32.3979 -59.8568
L32.2632 -59.6191
L32.1272 -59.3807
L31.99 -59.1417
L31.8518 -58.902
L31.7127 -58.6617
L31.5728 -58.4208
L31.4322 -58.1794
L31.2909 -57.9374
L31.1492 -57.6949
L31.007 -57.4519
L30.8645 -57.2084
L30.7217 -56.9645
L30.5788 -56.7201
L30.4357 -56.4752
L30.2925 -56.23
L30.1493 -55.9844
L30.0062 -55.7383
L29.8632 -55.492
L29.7203 -55.2452
L29.5777 -54.9981
L29.4352 -54.7506
L29.2931 -54.5028
L29.1512 -54.2547
L29.0097 -54.0063
L28.8686 -53.7576
L28.7279 -53.5085
L28.5876 -53.2591
L28.4477 -53.0094
L28.3083 -52.7595
L28.1695 -52.5092
L28.0311 -52.2586
L27.8932 -52.0077
L27.7558 -51.7565
L27.619 -51.5049
L27.4828 -51.2531
L27.3471 -51.001
L27.212 -50.7485
L27.0775 -50.4957
L26.9435 -50.2425
L26.8101 -49.989
L26.6774 -49.7352
L26.5452 -49.481
L26.4136 -49.2264
L26.2826 -48.9715
L26.1521 -48.7161
L26.0223 -48.4604
L25.8931 -48.2042
L25.7644 -47.9477
L25.6364 -47.6907
L25.5089 -47.4332
L25.382 -47.1753
L25.2556 -46.917
L25.1299 -46.6581
L25.0047 -46.3988
L24.88 -46.139
L24.7559 -45.8786
L24.6324 -45.6177
L24.5093 -45.3563
L24.3869 -45.0943
L24.2649 -44.8318
L24.1435 -44.5686
L24.0225 -44.3049
L23.9021 -44.0406
L23.7822 -43.7757
L23.6628 -43.5101
L23.5438 -43.244
L23.4253 -42.9771
L23.3073 -42.7096
L23.1898 -42.4415
L23.0726 -42.1727
L22.956 -41.9032
L22.8397 -41.633
L22.7239 -41.3622
L22.6085 -41.0906
L22.4935 -40.8184
L22.3789 -40.5454
L22.2647 -40.2718
L22.1508 -39.9974
L22.0373 -39.7223
L21.9242 -39.4466
L21.8114 -39.1701
L21.6989 -38.893
L21.5868 -38.6152
L21.4749 -38.3367
L21.3634 -38.0576
L21.2521 -37.7778
L21.1411 -37.4973
L21.0304 -37.2163
L20.9199 -36.9347
L20.8096 -36.6525
L20.6995 -36.3697
L20.5896 -36.0864
L20.4799 -35.8027
L20.3704 -35.5184
L20.261 -35.2338
L20.1516 -34.9487
L20.0424 -34.6633
L19.9333 -34.3777
L19.8242 -34.0917
L19.7151 -33.8056
L19.606 -33.5193
L19.4968 -33.233
L19.3876 -32.9466
L19.2783 -32.6603
L19.1688 -32.3741
L19.0592 -32.0881
L18.9494 -31.8024
L18.8393 -31.517
L18.7289 -31.2321
L18.6182 -30.9477
L18.5071 -30.6639
L18.3955 -30.3809
L18.2835 -30.0987
L18.171 -29.8175
L18.0578 -29.5374
L17.944 -29.2584
L17.8295 -28.9808
L17.7143 -28.7046
L17.5982 -28.4299
L17.4811 -28.157
L17.3632 -27.8859
L17.2441 -27.6168
L17.124 -27.3499
L17.0027 -27.0853
L16.8801 -26.8231
L16.7562 -26.5635
L16.6309 -26.3067
L16.504 -26.0528
L16.3756 -25.802
L16.2456 -25.5545
L16.1138 -25.3104
L15.9802 -25.07
L15.8447 -24.8333
L15.7073 -24.6006
L15.5678 -24.372
L15.4262 -24.1477
L15.2825 -23.9279
L15.1365 -23.7127
L14.9882 -23.5024
L14.8375 -23.297
L14.6845 -23.0968
L14.529 -22.9019
L14.3709 -22.7126
L14.2103 -22.5288
L14.0472 -22.3508
L13.8814 -22.1788
L13.713 -22.0129
L13.5419 -21.8533
L13.3682 -21.7
L13.1918 -21.5532
L13.0127 -21.4131
L12.831 -21.2798
L12.6467 -21.1533
L12.4597 -21.0339
L12.2701 -20.9217
L11.6747 -20.8167
L11.4192 -21.1498
L11.1712 -21.5766
L10.9308 -22.0078
L10.698 -22.4432
L10.473 -22.8828
L10.2557 -23.3264
L10.0462 -23.7738
L9.84466 -24.225
L9.65108 -24.6797
L9.46552 -25.1379
L9.28805 -25.5995
L9.11871 -26.0641
L8.95756 -26.5318
L8.80465 -27.0024
L8.66002 -27.4757
L8.52373 -27.9517
L8.3958 -28.43
L8.27628 -28.9107
L8.1652 -29.3936
L8.0626 -29.8784
L7.96852 -30.3651
L7.88297 -30.8536
L7.80598 -31.3436
L7.73759 -31.835
L7.6778 -32.3277
L7.62664 -32.8215
L7.58413 -33.3162
L7.55026 -33.8118
L7.52507 -34.3081
L7.50855 -34.8049
L7.50071 -35.302
L7.50155 -35.7994
L7.51107 -36.2968
L7.52926 -36.7941
L7.55613 -37.2912
L7.59167 -37.7879
L7.63586 -38.284
L7.68868 -38.7794
L7.75014 -39.274
L7.82019 -39.7676
L7.89883 -40.2601
L7.98603 -40.7513
L8.08177 -41.241
L8.18601 -41.7291
L8.29872 -42.2154
L8.41987 -42.6999
L8.54942 -43.1824
L8.68733 -43.6626
L8.83356 -44.1405
L8.98807 -44.6159
L9.1508 -45.0888
L9.32171 -45.5588
L9.50075 -46.0259
L9.68787 -46.49
L9.88299 -46.9509
L10.0861 -47.4084
L10.297 -47.8625
L10.5159 -48.3129
L10.7424 -48.7596
L10.9767 -49.2025
L11.2186 -49.6412
L11.468 -50.0759
L11.7249 -50.5062
L11.9892 -50.9322
L12.2608 -51.3536
L12.5397 -51.7703
L12.8257 -52.1822
L13.1187 -52.5891
L13.4187 -52.9911
L13.7256 -53.3878
L14.0393 -53.7793
L14.3597 -54.1653
L14.6866 -54.5458
L15.0201 -54.9206
L15.3599 -55.2897
L15.7061 -55.6529
L16.0584 -56.0102
L16.4168 -56.3613
L16.7811 -56.7062
L17.1514 -57.0448
L17.5273 -57.3771
L17.9089 -57.7028
L18.296 -58.0218
L18.6885 -58.3342
L19.0862 -58.6398
L19.4891 -58.9385
L19.8971 -59.2302
L20.3099 -59.5148
L20.7275 -59.7922
L21.1498 -60.0624
L21.5766 -60.3253
L22.0078 -60.5808
L22.4432 -60.8288
L22.8828 -61.0692
L23.3264 -61.302
L23.7738 -61.527
L24.225 -61.7443
L24.6797 -61.9538
L25.1379 -62.1553
L25.5995 -62.3489
L26.0641 -62.5345
L26.5318 -62.712
L27.0024 -62.8813
L27.4757 -63.0424
L27.9517 -63.1953
L28.43 -63.34
L28.9107 -63.4763
L29.3936 -63.6042
L29.8784 -63.7237
L30.3651 -63.8348
L30.8536 -63.9374
L31.3436 -64.0315
L31.835 -64.117
L32.3277 -64.194
L32.8215 -64.2624
L33.3162 -64.3222
L33.8118 -64.3734
z
" id="C0_2_9da6261478"/>
    </defs>
    <g clip-path="url(#p1bffca34e9)">
     <use style="fill:#ff0000;stroke:#000000;stroke-width:2.0;" x="0.0" xlink:href="#C0_0_a811fe30f3" y="72.0"/>
    </g>
    <g clip-path="url(#p1bffca34e9)">
     <use style="fill:#ffffff;stroke:#000000;stroke-width:2.0;" x="0.0" xlink:href="#C0_1_be38069ae2" y="72.0"/>
    </g>
    <g clip-path="url(#p1bffca34e9)">
     <use style="fill:#ffffff;stroke:#000000;stroke-width:2.0;" x="0.0" xlink:href="#C0_2_9da6261478" y="72.0"/>
    </g>
   </g>
  </g>
 </g>
 <defs>
  <clipPath id="p1bffca34e9">
   <rect height="72.0" width="72.0" x="0.0" y="0.0"/>
  </clipPath>
 </defs>
</svg>
