<?xml version="1.0" encoding="utf-8" standalone="no"?>
<!DOCTYPE svg PUBLIC "-//W3C//DTD SVG 1.1//EN"
  "http://www.w3.org/Graphics/SVG/1.1/DTD/svg11.dtd">
<!-- Created with matplotlib (http://matplotlib.org/) -->
<svg height="72pt" version="1.1" viewBox="0 0 72 72" width="72pt" xmlns="http://www.w3.org/2000/svg" xmlns:xlink="http://www.w3.org/1999/xlink">
 <defs>
  <style type="text/css">
*{stroke-linecap:butt;stroke-linejoin:round;}
  </style>
 </defs>
 <g id="figure_1">
  <g id="patch_1">
   <path d="
M0 72
L72 72
L72 0
L0 0
z
" style="fill:none;"/>
  </g>
  <g id="axes_1">
   <g id="PatchCollection_1">
    <defs>
     <path d="
M36 -7.5
C43.5583 -7.5 50.808 -10.5029 56.1525 -15.8475
C61.4971 -21.192 64.5 -28.4417 64.5 -36
C64.5 -43.5583 61.4971 -50.808 56.1525 -56.1525
C50.808 -61.4971 43.5583 -64.5 36 -64.5
C28.4417 -64.5 21.192 -61.4971 15.8475 -56.1525
C10.5029 -50.808 7.5 -43.5583 7.5 -36
C7.5 -28.4417 10.5029 -21.192 15.8475 -15.8475
C21.192 -10.5029 28.4417 -7.5 36 -7.5
z
" id="C0_0_a811fe30f3"/>
     <path d="
M64.3378 -37.8627
L64.1084 -38.0456
L63.8727 -38.2078
L63.6313 -38.3499
L63.3846 -38.4727
L63.133 -38.577
L62.8769 -38.6639
L62.6168 -38.7342
L62.353 -38.789
L62.0857 -38.8292
L61.8154 -38.856
L61.5423 -38.8703
L61.2667 -38.873
L60.9888 -38.8651
L60.709 -38.8474
L60.4273 -38.8209
L60.1441 -38.7862
L59.8596 -38.7442
L59.5739 -38.6956
L59.2873 -38.6408
L58.9998 -38.5807
L58.7117 -38.5157
L58.4232 -38.4462
L58.1343 -38.3729
L57.8452 -38.2961
L57.5561 -38.2162
L57.2671 -38.1335
L56.9783 -38.0484
L56.6898 -37.9612
L56.4016 -37.8722
L56.114 -37.7816
L55.827 -37.6896
L55.5406 -37.5964
L55.255 -37.5023
L54.9702 -37.4074
L54.6863 -37.3118
L54.4033 -37.2157
L54.1213 -37.1191
L53.8403 -37.0224
L53.5603 -36.9254
L53.2815 -36.8283
L53.0038 -36.7312
L52.7273 -36.6342
L52.4519 -36.5373
L52.1777 -36.4406
L51.9047 -36.3441
L51.6329 -36.2479
L51.3623 -36.152
L51.0929 -36.0565
L50.8247 -35.9613
L50.5578 -35.8666
L50.292 -35.7722
L50.0274 -35.6783
L49.7639 -35.5849
L49.5016 -35.492
L49.2404 -35.3995
L48.9803 -35.3075
L48.7213 -35.216
L48.4634 -35.1249
L48.2065 -35.0344
L47.9506 -34.9444
L47.6956 -34.8548
L47.4416 -34.7657
L47.1885 -34.6772
L46.9362 -34.589
L46.6848 -34.5014
L46.4342 -34.4142
L46.1843 -34.3274
L45.9352 -34.2411
L45.6867 -34.1552
L45.4389 -34.0697
L45.1916 -33.9847
L44.945 -33.9
L44.6988 -33.8157
L44.4532 -33.7317
L44.2079 -33.6481
L43.9631 -33.5649
L43.7186 -33.482
L43.4744 -33.3994
L43.2304 -33.317
L42.9867 -33.235
L42.7431 -33.1532
L42.4996 -33.0717
L42.2563 -32.9904
L42.0129 -32.9093
L41.7695 -32.8285
L41.5261 -32.7478
L41.0388 -32.6673
L40.7949 -32.587
L40.5507 -32.5068
L40.3062 -32.4267
L40.0614 -32.3467
L39.8162 -32.2669
L39.5705 -32.1871
L39.3243 -32.1074
L39.0776 -32.0277
L38.8303 -31.9481
L38.5824 -31.8685
L38.3338 -31.7889
L38.0845 -31.7092
L37.8344 -31.6296
L37.5834 -31.5499
L37.3316 -31.4701
L37.0789 -31.3903
L36.8252 -31.3104
L36.5705 -31.2303
L36.3147 -31.1501
L36.0578 -31.0698
L35.7998 -30.9894
L35.5406 -30.9087
L35.2802 -30.8279
L35.0185 -30.7469
L34.7555 -30.6656
L34.4911 -30.5841
L34.2254 -30.5024
L33.9582 -30.4203
L33.6895 -30.338
L33.4193 -30.2554
L33.1477 -30.1725
L32.8744 -30.0892
L32.5995 -30.0055
L32.3231 -29.9215
L32.045 -29.8371
L31.7652 -29.7522
L31.4838 -29.6669
L31.2006 -29.5812
L30.9158 -29.4949
L30.6292 -29.4082
L30.3409 -29.3209
L30.0509 -29.2331
L29.7592 -29.1447
L29.4659 -29.0557
L29.1708 -28.9661
L28.8741 -28.8758
L28.5758 -28.7848
L28.276 -28.6931
L27.9746 -28.6006
L27.6717 -28.5073
L27.3675 -28.4132
L27.0619 -28.3182
L26.7551 -28.2222
L26.4471 -28.1252
L26.1382 -28.0272
L25.8283 -27.928
L25.5177 -27.8276
L25.2065 -27.726
L24.8948 -27.623
L24.583 -27.5185
L24.271 -27.4124
L23.9593 -27.3047
L23.6481 -27.1952
L23.3375 -27.0837
L23.028 -26.9701
L22.7198 -26.8543
L22.4133 -26.736
L22.1089 -26.615
L21.8069 -26.4911
L21.5078 -26.3641
L21.2121 -26.2337
L20.9203 -26.0996
L20.633 -25.9614
L20.3506 -25.8189
L20.0738 -25.6717
L19.8032 -25.5194
L19.5396 -25.3615
L19.2836 -25.1976
L19.0359 -25.0274
L18.7974 -24.8502
L18.5687 -24.6657
L18.3507 -24.4733
L18.1442 -24.2725
L17.9499 -24.063
L17.7686 -23.8443
L17.6011 -23.616
L17.448 -23.3778
L17.31 -23.1294
L17.1877 -22.8707
L17.0815 -22.6014
L16.992 -22.3217
L16.9194 -22.0317
L16.864 -21.7315
L16.826 -21.4214
L16.8054 -21.1019
L16.8023 -20.7734
L16.8164 -20.4366
L16.8477 -20.0921
L16.8959 -19.7406
L16.9608 -19.3829
L17.0419 -19.0196
L17.1389 -18.6518
L17.2514 -18.28
L17.3789 -17.9053
L17.5211 -17.5283
L17.6773 -17.1498
L17.8472 -16.7706
L18.0302 -16.3914
L18.2259 -16.0129
L18.4338 -15.6357
L18.6533 -15.2605
L18.884 -14.8878
L19.1255 -14.5182
L19.3773 -14.1522
L19.6388 -13.7901
L19.9098 -13.4326
L20.1896 -13.0799
L20.478 -12.7323
L20.7745 -12.3903
L21.0787 -12.0542
L21.5021 -11.7241
L21.9325 -11.4631
L22.3672 -11.2138
L22.8061 -10.9721
L23.249 -10.7379
L23.6958 -10.5115
L24.1463 -10.2929
L24.6004 -10.0821
L25.0581 -9.87912
L25.519 -9.68415
L25.9831 -9.4972
L26.4503 -9.31831
L26.9204 -9.14756
L27.3933 -8.98498
L27.8688 -8.83064
L28.3467 -8.68457
L28.827 -8.54682
L29.3095 -8.41743
L29.794 -8.29645
L30.2804 -8.1839
L30.7685 -8.07983
L31.2583 -7.98426
L31.7495 -7.89722
L32.2419 -7.81875
L32.7356 -7.74886
L33.2302 -7.68757
L33.7256 -7.63491
L34.2218 -7.59089
L34.7185 -7.55553
L35.2156 -7.52883
L35.7129 -7.5108
L36.2103 -7.50145
L36.7077 -7.50078
L37.2048 -7.50879
L37.7016 -7.52548
L38.1978 -7.55084
L38.6934 -7.58487
L39.1881 -7.62755
L39.6819 -7.67888
L40.1746 -7.73884
L40.666 -7.8074
L41.156 -7.88455
L41.6444 -7.97026
L42.131 -8.06452
L42.6158 -8.16728
L43.0986 -8.27852
L43.5793 -8.3982
L44.0576 -8.5263
L44.5335 -8.66276
L45.0068 -8.80754
L45.4773 -8.96062
L45.9449 -9.12192
L46.4095 -9.29142
L46.871 -9.46905
L47.3291 -9.65476
L47.7838 -9.8485
L48.2349 -10.0502
L48.6823 -10.2598
L49.1258 -10.4773
L49.5653 -10.7025
L50.0006 -10.9354
L50.4317 -11.176
L50.8585 -11.4241
L51.2806 -11.6797
L51.6982 -11.9427
L52.1109 -12.2131
L52.5188 -12.4907
L52.9216 -12.7754
L53.3192 -13.0673
L53.7116 -13.3661
L54.0986 -13.6718
L54.4801 -13.9843
L54.8559 -14.3035
L55.226 -14.6293
L55.5902 -14.9617
L55.9485 -15.3004
L56.3007 -15.6455
L56.6467 -15.9967
L56.9864 -16.3541
L57.3198 -16.7174
L57.6466 -17.0866
L57.9669 -17.4615
L58.2804 -17.8422
L58.5872 -18.2283
L58.8871 -18.6199
L59.18 -19.0167
L59.4658 -19.4187
L59.7445 -19.8258
L60.016 -20.2378
L60.2802 -20.6546
L60.5369 -21.0761
L60.7862 -21.5021
L61.0279 -21.9325
L61.2621 -22.3672
L61.4885 -22.8061
L61.7071 -23.249
L61.9179 -23.6958
L62.1209 -24.1463
L62.3158 -24.6004
L62.5028 -25.0581
L62.6817 -25.519
L62.8524 -25.9831
L63.015 -26.4503
L63.1694 -26.9204
L63.3154 -27.3933
L63.4532 -27.8688
L63.5826 -28.3467
L63.7036 -28.827
L63.8161 -29.3095
L63.9202 -29.794
L64.0157 -30.2804
L64.1028 -30.7685
L64.1813 -31.2583
L64.2511 -31.7495
L64.3124 -32.2419
L64.3651 -32.7356
L64.4091 -33.2302
L64.4445 -33.7256
L64.4712 -34.2218
L64.4892 -34.7185
L64.4986 -35.2156
L64.4992 -35.7129
L64.4912 -36.2103
L64.4745 -36.7077
z
" id="C0_1_add3376bdd"/>
     <path d="
M50.4962 -60.4083
L50.0671 -60.5258
L49.6394 -60.6369
L49.2134 -60.7415
L48.7893 -60.8398
L48.3672 -60.9317
L47.9473 -61.0174
L47.5296 -61.0969
L47.1145 -61.1702
L46.7018 -61.2376
L46.2919 -61.2991
L45.8847 -61.3548
L45.4802 -61.4047
L45.0787 -61.4492
L44.6801 -61.4882
L44.2844 -61.5218
L43.8918 -61.5502
L43.5022 -61.5736
L43.1156 -61.5919
L42.7321 -61.6054
L42.3517 -61.6142
L41.9743 -61.6183
L41.6 -61.6179
L41.2287 -61.6131
L40.8605 -61.6039
L40.4952 -61.5906
L40.1329 -61.5731
L39.7735 -61.5516
L39.4171 -61.5262
L39.0635 -61.4969
L38.7128 -61.4639
L38.3648 -61.4272
L38.0195 -61.3869
L37.677 -61.3431
L37.3371 -61.2958
L36.9998 -61.2452
L36.6651 -61.1912
L36.3328 -61.1339
L36.003 -61.0735
L35.6756 -61.0099
L35.3505 -60.9431
L35.0277 -60.8733
L34.7071 -60.8005
L34.3887 -60.7247
L34.0724 -60.6459
L33.7581 -60.5642
L33.4458 -60.4796
L33.1355 -60.3921
L32.8271 -60.3018
L32.5205 -60.2087
L32.2157 -60.1128
L31.9127 -60.014
L31.6113 -59.9125
L31.3115 -59.8082
L31.0133 -59.7011
L30.7166 -59.5913
L30.4214 -59.4786
L30.1276 -59.3632
L29.8352 -59.2451
L29.5441 -59.1241
L29.2543 -59.0003
L28.9657 -58.8737
L28.6783 -58.7443
L28.392 -58.6121
L28.1069 -58.4769
L27.8228 -58.3389
L27.5397 -58.1979
L27.2576 -58.054
L26.9764 -57.9072
L26.6962 -57.7573
L26.4168 -57.6044
L26.1383 -57.4484
L25.8606 -57.2893
L25.5836 -57.127
L25.3074 -56.9615
L25.0319 -56.7928
L24.7571 -56.6208
L24.483 -56.4454
L24.2096 -56.2667
L23.9368 -56.0845
L23.6646 -55.8988
L23.393 -55.7095
L23.1221 -55.5167
L22.8517 -55.3201
L22.5818 -55.1199
L22.3126 -54.9158
L22.0439 -54.7079
L21.7758 -54.4961
L21.5083 -54.2803
L21.2414 -54.0604
L20.975 -53.8365
L20.7093 -53.6083
L20.4442 -53.3759
L20.1798 -53.1393
L19.916 -52.8982
L19.6529 -52.6527
L19.3906 -52.4027
L19.129 -52.1481
L18.8682 -51.8889
L18.6082 -51.6251
L18.3492 -51.3565
L18.0911 -51.0831
L17.834 -50.8049
L17.578 -50.5218
L17.3231 -50.2338
L17.0693 -49.9409
L16.8169 -49.6429
L16.5658 -49.34
L16.3161 -49.0321
L16.0679 -48.7191
L15.8213 -48.4012
L15.5763 -48.0783
L15.3332 -47.7504
L15.0919 -47.4176
L14.8525 -47.08
L14.6152 -46.7376
L14.3801 -46.3905
L14.1471 -46.0389
L13.9165 -45.6827
L13.6884 -45.3223
L13.4627 -44.9578
L13.2397 -44.5894
L13.0193 -44.2173
L12.8016 -43.8418
L12.5867 -43.4631
L12.3746 -43.0817
L12.1654 -42.6978
L11.959 -42.3119
L11.7555 -41.9243
L11.5548 -41.5357
L11.3569 -41.1464
L11.1617 -40.7571
L10.9691 -40.3683
L10.779 -39.9808
L10.5911 -39.5951
L10.4053 -39.2122
L10.2214 -38.8326
L10.0391 -38.4573
L9.85805 -38.0871
L9.67799 -37.7229
L9.49856 -37.3656
L9.31938 -37.0159
L9.14008 -36.675
L8.96024 -36.3435
L8.7795 -36.0225
L8.59746 -35.7126
L8.41378 -35.4146
L8.22813 -35.1293
L8.04022 -34.8571
L7.84982 -34.5986
L7.52343 -34.3541
L7.5076 -34.8446
L7.50045 -35.3418
L7.50199 -35.8391
L7.5122 -36.3365
L7.53109 -36.8339
L7.55866 -37.3309
L7.59488 -37.8276
L7.63976 -38.3236
L7.69328 -38.819
L7.75542 -39.3136
L7.82617 -39.8071
L7.90549 -40.2994
L7.99338 -40.7905
L8.08979 -41.2801
L8.19471 -41.768
L8.3081 -42.2543
L8.42992 -42.7386
L8.56014 -43.2208
L8.69872 -43.7009
L8.84561 -44.1786
L9.00078 -44.6539
L9.16417 -45.1264
L9.33573 -45.5963
L9.51542 -46.0631
L9.70317 -46.527
L9.89894 -46.9876
L10.1027 -47.4449
L10.3143 -47.8986
L10.5337 -48.3488
L10.7609 -48.7952
L10.9957 -49.2377
L11.2382 -49.6762
L11.4883 -50.1105
L11.7458 -50.5405
L12.0107 -50.966
L12.2829 -51.3871
L12.5623 -51.8034
L12.8488 -52.2149
L13.1424 -52.6215
L13.443 -53.023
L13.7505 -53.4193
L14.0647 -53.8103
L14.3856 -54.1959
L14.7131 -54.576
L15.047 -54.9504
L15.3874 -55.319
L15.734 -55.6817
L16.0868 -56.0385
L16.4457 -56.3891
L16.8105 -56.7335
L17.1812 -57.0717
L17.5576 -57.4033
L17.9396 -57.7285
L18.3272 -58.0471
L18.7201 -58.3589
L19.1182 -58.6639
L19.5216 -58.9621
L19.9299 -59.2532
L20.3431 -59.5372
L20.7611 -59.8141
L21.1838 -60.0837
L21.6109 -60.346
L22.0425 -60.6009
L22.4782 -60.8483
L22.9181 -61.0881
L23.362 -61.3203
L23.8098 -61.5447
L24.2612 -61.7614
L24.7163 -61.9702
L25.1747 -62.1711
L25.6365 -62.3641
L26.1014 -62.549
L26.5694 -62.7258
L27.0402 -62.8945
L27.5137 -63.055
L27.9898 -63.2072
L28.4684 -63.3512
L28.9492 -63.4868
L29.4323 -63.6141
L29.9173 -63.7329
L30.4041 -63.8433
L30.8927 -63.9452
L31.3828 -64.0386
L31.8743 -64.1235
L32.3671 -64.1998
L32.861 -64.2675
L33.3558 -64.3266
L33.8515 -64.3771
L34.3478 -64.4189
L34.8446 -64.4521
L35.3418 -64.4766
L35.8391 -64.4924
L36.3365 -64.4995
L36.8339 -64.498
L37.3309 -64.4878
L37.8276 -64.4689
L38.3236 -64.4413
L38.819 -64.4051
L39.3136 -64.3602
L39.8071 -64.3067
L40.2994 -64.2446
L40.7905 -64.1738
L41.2801 -64.0945
L41.768 -64.0066
L42.2543 -63.9102
L42.7386 -63.8053
L43.2208 -63.6919
L43.7009 -63.5701
L44.1786 -63.4399
L44.6539 -63.3013
L45.1264 -63.1544
L45.5963 -62.9992
L46.0631 -62.8358
L46.527 -62.6643
L46.9876 -62.4846
L47.4449 -62.2968
L47.8986 -62.1011
L48.3488 -61.8973
L48.7952 -61.6857
L49.2377 -61.4663
L49.6762 -61.2391
L50.1105 -61.0043
z
" id="C0_2_e60235d68c"/>
    </defs>
    <g clip-path="url(#p1bffca34e9)">
     <use style="fill:#ff0000;stroke:#000000;stroke-width:2.0;" x="0.0" xlink:href="#C0_0_a811fe30f3" y="72.0"/>
    </g>
    <g clip-path="url(#p1bffca34e9)">
     <use style="fill:#ffffff;stroke:#000000;stroke-width:2.0;" x="0.0" xlink:href="#C0_1_add3376bdd" y="72.0"/>
    </g>
    <g clip-path="url(#p1bffca34e9)">
     <use style="fill:#ffffff;stroke:#000000;stroke-width:2.0;" x="0.0" xlink:href="#C0_2_e60235d68c" y="72.0"/>
    </g>
   </g>
  </g>
 </g>
 <defs>
  <clipPath id="p1bffca34e9">
   <rect height="72.0" width="72.0" x="0.0" y="0.0"/>
  </clipPath>
 </defs>
</svg>
