<?xml version="1.0" encoding="utf-8" standalone="no"?>
<!DOCTYPE svg PUBLIC "-//W3C//DTD SVG 1.1//EN"
  "http://www.w3.org/Graphics/SVG/1.1/DTD/svg11.dtd">
<!-- Created with matplotlib (http://matplotlib.org/) -->
<svg height="72pt" version="1.1" viewBox="0 0 72 72" width="72pt" xmlns="http://www.w3.org/2000/svg" xmlns:xlink="http://www.w3.org/1999/xlink">
 <defs>
  <style type="text/css">
*{stroke-linecap:butt;stroke-linejoin:round;}
  </style>
 </defs>
 <g id="figure_1">
  <g id="patch_1">
   <path d="
M0 72
L72 72
L72 0
L0 0
z
" style="fill:none;"/>
  </g>
  <g id="axes_1">
   <g id="PatchCollection_1">
    <defs>
     <path d="
M36 -7.5
C43.5583 -7.5 50.808 -10.5029 56.1525 -15.8475
C61.4971 -21.192 64.5 -28.4417 64.5 -36
C64.5 -43.5583 61.4971 -50.808 56.1525 -56.1525
C50.808 -61.4971 43.5583 -64.5 36 -64.5
C28.4417 -64.5 21.192 -61.4971 15.8475 -56.1525
C10.5029 -50.808 7.5 -43.5583 7.5 -36
C7.5 -28.4417 10.5029 -21.192 15.8475 -15.8475
C21.192 -10.5029 28.4417 -7.5 36 -7.5
z
" id="C0_0_a811fe30f3"/>
     <path d="
M63.5686 -29.0755
L63.4021 -29.1777
L63.2352 -29.2789
L63.0678 -29.3792
L62.8998 -29.4787
L62.7314 -29.5773
L62.5625 -29.6752
L62.393 -29.7723
L62.2229 -29.8687
L62.0522 -29.9644
L61.8809 -30.0595
L61.7089 -30.1541
L61.5363 -30.248
L61.3629 -30.3415
L61.1888 -30.4344
L61.0139 -30.5269
L60.8381 -30.619
L60.6615 -30.7107
L60.484 -30.8021
L60.3056 -30.8931
L59.9457 -30.9838
L59.7642 -31.0742
L59.5816 -31.1644
L59.3978 -31.2544
L59.2128 -31.3442
L59.0265 -31.4339
L58.839 -31.5235
L58.6501 -31.6129
L58.4597 -31.7023
L58.268 -31.7916
L58.0746 -31.8809
L57.8797 -31.9703
L57.6832 -32.0597
L57.485 -32.1491
L57.285 -32.2386
L57.0832 -32.3283
L56.8795 -32.4181
L56.6738 -32.508
L56.4661 -32.5982
L56.2564 -32.6886
L56.0445 -32.7792
L55.8303 -32.8701
L55.6139 -32.9612
L55.395 -33.0527
L55.1737 -33.1446
L54.9499 -33.2368
L54.7235 -33.3294
L54.4944 -33.4224
L54.2625 -33.5158
L54.0277 -33.6097
L53.7901 -33.7041
L53.5494 -33.799
L53.3055 -33.8944
L53.0585 -33.9904
L52.8082 -34.087
L52.5545 -34.1841
L52.2974 -34.2819
L52.0367 -34.3803
L51.7723 -34.4794
L51.5042 -34.5792
L51.2323 -34.6796
L50.9564 -34.7808
L50.6766 -34.8827
L50.3926 -34.9854
L50.1044 -35.0888
L49.812 -35.193
L49.5151 -35.298
L49.2139 -35.4039
L48.908 -35.5105
L48.5976 -35.618
L48.2825 -35.7264
L47.9626 -35.8356
L47.6378 -35.9456
L47.3082 -36.0566
L46.9736 -36.1684
L46.634 -36.2811
L46.2894 -36.3946
L45.9397 -36.5091
L45.585 -36.6244
L45.2251 -36.7406
L44.86 -36.8577
L44.4899 -36.9756
L44.1148 -37.0944
L43.7345 -37.214
L43.3493 -37.3344
L42.9593 -37.4557
L42.5644 -37.5778
L42.1648 -37.7007
L41.7607 -37.8244
L41.3522 -37.9489
L40.9397 -38.0742
L40.5232 -38.2004
L40.1031 -38.3273
L39.6797 -38.4551
L39.2535 -38.5839
L38.8249 -38.7136
L38.3945 -38.8444
L37.9629 -38.9764
L37.5309 -39.1099
L37.0996 -39.2451
L36.6701 -39.3824
L36.2439 -39.5223
L35.8231 -39.6655
L35.4101 -39.8129
L35.0082 -39.9659
L34.6216 -40.1263
L34.256 -40.2964
L33.9183 -40.4795
L33.6164 -40.6797
L33.3586 -40.9017
L33.1514 -41.1504
L32.9975 -41.4297
L32.895 -41.7407
L32.838 -42.082
L32.8188 -42.4494
L32.83 -42.8377
L32.8649 -43.2418
L32.9184 -43.6572
L32.9865 -44.0803
L33.0661 -44.5082
L33.155 -44.9389
L33.2513 -45.3707
L33.3539 -45.8021
L33.4616 -46.2323
L33.5736 -46.6603
L33.6892 -47.0854
L33.8079 -47.5071
L33.9292 -47.925
L34.0527 -48.3386
L34.1782 -48.7476
L34.3053 -49.1517
L34.4338 -49.5508
L34.5635 -49.9445
L34.6941 -50.3327
L34.8256 -50.7154
L34.9578 -51.0924
L35.0905 -51.4636
L35.2236 -51.8289
L35.3571 -52.1884
L35.4908 -52.5419
L35.6246 -52.8895
L35.7585 -53.2313
L35.8924 -53.5671
L36.0262 -53.8971
L36.1599 -54.2212
L36.2935 -54.5396
L36.4268 -54.8523
L36.5599 -55.1593
L36.6928 -55.4608
L36.8253 -55.7568
L36.9575 -56.0474
L37.0894 -56.3326
L37.2209 -56.6126
L37.3521 -56.8875
L37.4828 -57.1573
L37.6132 -57.4222
L37.7433 -57.6822
L37.8729 -57.9375
L38.0022 -58.1881
L38.1311 -58.4342
L38.2597 -58.6759
L38.3879 -58.9132
L38.5158 -59.1463
L38.6433 -59.3752
L38.7706 -59.6001
L38.8975 -59.821
L39.0242 -60.0381
L39.1507 -60.2514
L39.2769 -60.4611
L39.4029 -60.6672
L39.5287 -60.8698
L39.6543 -61.069
L39.7799 -61.2649
L39.9053 -61.4575
L40.0306 -61.6471
L40.1559 -61.8335
L40.2812 -62.017
L40.4065 -62.1975
L40.5319 -62.3752
L40.6573 -62.5502
L40.7828 -62.7224
L40.9085 -62.892
L41.0344 -63.059
L41.1605 -63.2235
L41.2868 -63.3856
L41.4135 -63.5452
L41.5405 -63.7025
L42.0464 -63.8576
L42.5315 -63.8512
L43.0147 -63.7415
L43.4957 -63.6233
L43.9744 -63.4966
L44.4508 -63.3616
L44.9245 -63.2183
L45.3955 -63.0666
L45.8637 -62.9068
L46.3288 -62.7387
L46.7908 -62.5625
L47.2496 -62.3782
L47.7048 -62.1858
L48.1566 -61.9855
L48.6046 -61.7773
L49.0488 -61.5612
L49.489 -61.3373
L49.9251 -61.1057
L50.3569 -60.8665
L50.7844 -60.6197
L51.2074 -60.3654
L51.6258 -60.1036
L52.0394 -59.8345
L52.4481 -59.5582
L52.8518 -59.2747
L53.2503 -58.9841
L53.6436 -58.6865
L54.0316 -58.382
L54.414 -58.0706
L54.7908 -57.7526
L55.1619 -57.4279
L55.5272 -57.0967
L55.8865 -56.7591
L56.2398 -56.4151
L56.5869 -56.0649
L56.9277 -55.7086
L57.2622 -55.3463
L57.5901 -54.9782
L57.9115 -54.6042
L58.2263 -54.2246
L58.5342 -53.8394
L58.8353 -53.4488
L59.1294 -53.0528
L59.4165 -52.6517
L59.6965 -52.2455
L59.9692 -51.8343
L60.2347 -51.4184
L60.4927 -50.9977
L60.7433 -50.5725
L60.9864 -50.1428
L61.2218 -49.7088
L61.4496 -49.2706
L61.6696 -48.8284
L61.8818 -48.3823
L62.0861 -47.9324
L62.2825 -47.4789
L62.4708 -47.0219
L62.6511 -46.5615
L62.8233 -46.098
L62.9873 -45.6313
L63.1431 -45.1617
L63.2906 -44.6893
L63.4298 -44.2143
L63.5606 -43.7367
L63.6831 -43.2568
L63.7971 -42.7747
L63.9027 -42.2906
L63.9997 -41.8045
L64.0882 -41.3166
L64.1682 -40.8272
L64.2396 -40.3362
L64.3024 -39.844
L64.3565 -39.3505
L64.4021 -38.8561
L64.4389 -38.3607
L64.4671 -37.8647
L64.4867 -37.3681
L64.4975 -36.8711
L64.4997 -36.3738
L64.4932 -35.8764
L64.4781 -35.379
L64.4542 -34.8818
L64.4217 -34.385
L64.3805 -33.8886
L64.3307 -33.3929
L64.2722 -32.898
L64.2052 -32.404
L64.1295 -31.9112
L64.0453 -31.4195
L63.9525 -30.9293
L63.8512 -30.4406
z
" id="C0_1_ecdec76bb6"/>
     <path d="
M30.3631 -8.14285
L30.306 -8.33324
L30.2505 -8.52406
L30.1964 -8.71535
L30.1438 -8.90714
L30.0925 -9.09947
L30.0426 -9.29238
L29.9941 -9.48592
L29.9468 -9.68013
L29.9007 -9.87504
L29.8559 -10.0707
L29.8123 -10.2672
L29.7698 -10.4645
L29.7285 -10.6627
L29.6882 -10.8619
L29.6491 -11.0621
L29.611 -11.2633
L29.5739 -11.4656
L29.5379 -11.6691
L29.5029 -11.8738
L29.4689 -12.0798
L29.4359 -12.2871
L29.4038 -12.4957
L29.3727 -12.7059
L29.3425 -12.9175
L29.3133 -13.1307
L29.285 -13.3456
L29.2576 -13.5622
L29.2311 -13.7805
L29.2055 -14.0007
L29.1809 -14.2227
L29.1572 -14.4468
L29.1343 -14.6729
L29.1124 -14.9011
L29.0914 -15.1316
L29.0713 -15.3643
L29.0521 -15.5993
L29.0339 -15.8368
L29.0165 -16.0769
L29.0001 -16.3195
L28.9847 -16.5648
L28.9702 -16.8128
L28.9567 -17.0637
L28.9442 -17.3175
L28.9327 -17.5744
L28.9222 -17.8343
L28.9127 -18.0975
L28.9043 -18.364
L28.897 -18.6338
L28.8907 -18.9071
L28.8856 -19.184
L28.8816 -19.4645
L28.8787 -19.7488
L28.8771 -20.0369
L28.8766 -20.329
L28.8774 -20.6251
L28.8795 -20.9253
L28.8829 -21.2297
L28.8876 -21.5384
L28.8937 -21.8515
L28.9012 -22.169
L28.9101 -22.4911
L28.9205 -22.8178
L28.9324 -23.1492
L28.9458 -23.4854
L28.9608 -23.8265
L28.9775 -24.1724
L28.9958 -24.5232
L29.0158 -24.8791
L29.0375 -25.24
L29.0609 -25.606
L29.0862 -25.977
L29.1132 -26.3532
L29.1421 -26.7345
L29.1729 -27.1209
L29.2056 -27.5123
L29.2401 -27.9088
L29.2766 -28.3102
L29.3149 -28.7165
L29.3552 -29.1277
L29.3973 -29.5436
L29.4413 -29.964
L29.487 -30.3889
L29.5344 -30.8179
L29.5835 -31.251
L29.634 -31.6879
L29.6859 -32.1282
L29.7389 -32.5717
L29.7927 -33.0179
L29.8469 -33.4665
L29.9013 -33.9168
L29.9551 -34.3684
L30.0077 -34.8203
L30.058 -35.2719
L30.1049 -35.7219
L30.1466 -36.1691
L30.1809 -36.6116
L30.2048 -37.0473
L30.2143 -37.4733
L30.2042 -37.886
L30.1679 -38.2808
L30.0975 -38.6526
L29.9852 -38.9958
L29.8248 -39.3064
L29.6137 -39.5826
L29.3543 -39.8254
L29.0527 -40.0387
L28.7167 -40.227
L28.3541 -40.3953
L27.9718 -40.5476
L27.5751 -40.687
L27.1683 -40.816
L26.7546 -40.9365
L26.3364 -41.0498
L25.9157 -41.1569
L25.4939 -41.2585
L25.0723 -41.3553
L24.6517 -41.4477
L24.2331 -41.536
L23.8169 -41.6205
L23.4038 -41.7015
L22.9941 -41.7791
L22.5883 -41.8535
L22.1867 -41.9248
L21.7894 -41.9931
L21.3969 -42.0586
L21.0091 -42.1213
L20.6263 -42.1813
L20.2486 -42.2387
L19.8762 -42.2935
L19.5089 -42.3459
L19.147 -42.3959
L18.7904 -42.4435
L18.4393 -42.4889
L18.0934 -42.532
L17.753 -42.573
L17.4179 -42.6119
L17.0881 -42.6487
L16.7635 -42.6835
L16.4442 -42.7164
L16.1301 -42.7474
L15.821 -42.7765
L15.5169 -42.8038
L15.2178 -42.8294
L14.9236 -42.8532
L14.6341 -42.8754
L14.3494 -42.8959
L14.0692 -42.9149
L13.7936 -42.9323
L13.5224 -42.9482
L13.2555 -42.9627
L12.9928 -42.9757
L12.7342 -42.9873
L12.4797 -42.9975
L12.2292 -43.0063
L11.9824 -43.0139
L11.7395 -43.0201
L11.5001 -43.0251
L11.2643 -43.0289
L11.032 -43.0314
L10.803 -43.0328
L10.5774 -43.0329
L10.3549 -43.0319
L10.1354 -43.0298
L9.91904 -43.0265
L9.70556 -43.0221
L9.49491 -43.0166
L9.28701 -43.01
L9.08178 -43.0024
L8.87914 -42.9936
L8.67902 -42.9838
L8.25515 -42.9729
L8.14563 -42.5171
L8.0446 -42.0319
L7.95209 -41.5449
L7.86812 -41.0562
L7.79272 -40.5659
L7.72591 -40.0742
L7.66771 -39.5813
L7.61815 -39.0873
L7.57723 -38.5924
L7.54496 -38.0967
L7.52137 -37.6003
L7.50645 -37.1034
L7.50021 -36.6062
L7.50265 -36.1089
L7.51377 -35.6115
L7.53357 -35.1142
L7.56204 -34.6172
L7.59917 -34.1206
L7.64495 -33.6245
L7.69937 -33.1292
L7.76241 -32.6348
L7.83406 -32.1414
L7.91428 -31.6492
L8.00306 -31.1583
L8.10036 -30.6689
L8.20616 -30.1811
L8.32043 -29.695
L8.44314 -29.2109
L8.57423 -28.7289
L8.71368 -28.249
L8.86144 -27.7716
L9.01747 -27.2966
L9.18172 -26.8243
L9.35414 -26.3548
L9.53467 -25.8882
L9.72326 -25.4247
L9.91986 -24.9645
L10.1244 -24.5076
L10.3368 -24.0541
L10.5571 -23.6044
L10.7851 -23.1584
L11.0207 -22.7163
L11.264 -22.2782
L11.5148 -21.8444
L11.7731 -21.4148
L12.0388 -20.9897
L12.3117 -20.5692
L12.5919 -20.1534
L12.8792 -19.7424
L13.1735 -19.3363
L13.4748 -18.9353
L13.783 -18.5396
L14.0979 -18.1491
L14.4195 -17.7641
L14.7477 -17.3846
L15.0823 -17.0108
L15.4233 -16.6428
L15.7706 -16.2807
L16.1241 -15.9246
L16.4836 -15.5746
L16.849 -15.2308
L17.2203 -14.8934
L17.5973 -14.5624
L17.9799 -14.2379
L18.368 -13.92
L18.7614 -13.6089
L19.1602 -13.3046
L19.564 -13.0072
L19.9729 -12.7168
L20.3866 -12.4335
L20.8051 -12.1574
L21.2282 -11.8885
L21.6558 -11.627
L22.0878 -11.3729
L22.524 -11.1263
L22.9644 -10.8873
L23.4087 -10.6559
L23.8568 -10.4323
L24.3086 -10.2164
L24.764 -10.0084
L25.2228 -9.80834
L25.6849 -9.61624
L26.1502 -9.43217
L26.6184 -9.25619
L27.0895 -9.08836
L27.5634 -8.92873
L28.0397 -8.77734
L28.5185 -8.63425
L28.9996 -8.49949
L29.4829 -8.37311
z
" id="C0_2_5a15ab4abe"/>
    </defs>
    <g clip-path="url(#p1bffca34e9)">
     <use style="fill:#ff0000;stroke:#000000;stroke-width:2.0;" x="0.0" xlink:href="#C0_0_a811fe30f3" y="72.0"/>
    </g>
    <g clip-path="url(#p1bffca34e9)">
     <use style="fill:#ffffff;stroke:#000000;stroke-width:2.0;" x="0.0" xlink:href="#C0_1_ecdec76bb6" y="72.0"/>
    </g>
    <g clip-path="url(#p1bffca34e9)">
     <use style="fill:#ffffff;stroke:#000000;stroke-width:2.0;" x="0.0" xlink:href="#C0_2_5a15ab4abe" y="72.0"/>
    </g>
   </g>
  </g>
 </g>
 <defs>
  <clipPath id="p1bffca34e9">
   <rect height="72.0" width="72.0" x="0.0" y="0.0"/>
  </clipPath>
 </defs>
</svg>
