<?xml version="1.0" encoding="utf-8" standalone="no"?>
<!DOCTYPE svg PUBLIC "-//W3C//DTD SVG 1.1//EN"
  "http://www.w3.org/Graphics/SVG/1.1/DTD/svg11.dtd">
<!-- Created with matplotlib (http://matplotlib.org/) -->
<svg height="72pt" version="1.1" viewBox="0 0 72 72" width="72pt" xmlns="http://www.w3.org/2000/svg" xmlns:xlink="http://www.w3.org/1999/xlink">
 <defs>
  <style type="text/css">
*{stroke-linecap:butt;stroke-linejoin:round;}
  </style>
 </defs>
 <g id="figure_1">
  <g id="patch_1">
   <path d="
M0 72
L72 72
L72 0
L0 0
z
" style="fill:none;"/>
  </g>
  <g id="axes_1">
   <g id="PatchCollection_1">
    <defs>
     <path d="
M36 -7.5
C43.5583 -7.5 50.808 -10.5029 56.1525 -15.8475
C61.4971 -21.192 64.5 -28.4417 64.5 -36
C64.5 -43.5583 61.4971 -50.808 56.1525 -56.1525
C50.808 -61.4971 43.5583 -64.5 36 -64.5
C28.4417 -64.5 21.192 -61.4971 15.8475 -56.1525
C10.5029 -50.808 7.5 -43.5583 7.5 -36
C7.5 -28.4417 10.5029 -21.192 15.8475 -15.8475
C21.192 -10.5029 28.4417 -7.5 36 -7.5
z
" id="C0_0_a811fe30f3"/>
     <path d="
M34.3985 -7.57988
L34.139 -7.79273
L33.902 -8.01296
L33.6877 -8.24004
L33.496 -8.47346
L33.3269 -8.71274
L33.18 -8.95741
L33.0547 -9.20702
L32.9504 -9.46115
L32.8664 -9.71943
L32.8016 -9.98149
L32.7552 -10.247
L32.7261 -10.5157
L32.7132 -10.7872
L32.7154 -11.0613
L32.7316 -11.3378
L32.7606 -11.6165
L32.8014 -11.8971
L32.853 -12.1794
L32.9145 -12.4632
L32.9848 -12.7485
L33.0631 -13.0349
L33.1486 -13.3223
L33.2405 -13.6107
L33.3382 -13.8997
L33.4409 -14.1894
L33.5481 -14.4794
L33.6592 -14.7698
L33.7738 -15.0603
L33.8913 -15.3509
L34.0114 -15.6414
L34.1337 -15.9317
L34.2578 -16.2218
L34.3833 -16.5114
L34.5102 -16.8006
L34.638 -17.0891
L34.7665 -17.377
L34.8956 -17.6642
L35.025 -17.9506
L35.1546 -18.2361
L35.2842 -18.5206
L35.4137 -18.8042
L35.543 -19.0867
L35.672 -19.3681
L35.8005 -19.6484
L35.9285 -19.9275
L36.056 -20.2055
L36.1828 -20.4822
L36.3089 -20.7577
L36.4342 -21.0319
L36.5587 -21.3049
L36.6825 -21.5767
L36.8053 -21.8471
L36.9273 -22.1163
L37.0484 -22.3842
L37.1686 -22.6509
L37.2878 -22.9163
L37.4062 -23.1804
L37.5235 -23.4433
L37.64 -23.7051
L37.7555 -23.9656
L37.8701 -24.2249
L37.9838 -24.4832
L38.0965 -24.7403
L38.2084 -24.9963
L38.3193 -25.2512
L38.4294 -25.5051
L38.5385 -25.758
L38.6469 -26.0099
L38.7544 -26.2609
L38.861 -26.511
L38.9669 -26.7603
L39.0719 -27.0087
L39.1762 -27.2563
L39.2797 -27.5032
L39.3825 -27.7494
L39.4846 -27.9949
L39.5859 -28.2398
L39.6866 -28.4842
L39.7866 -28.7279
L39.886 -28.9712
L39.9848 -29.2141
L40.0829 -29.4565
L40.1805 -29.6986
L40.2775 -29.9404
L40.374 -30.1818
L40.4699 -30.4231
L40.5654 -30.6642
L40.6604 -30.9052
L40.7549 -31.1461
L40.8489 -31.3869
L40.9425 -31.6277
L41.0358 -31.8686
L41.2211 -32.1097
L41.3132 -32.3508
L41.405 -32.5922
L41.4964 -32.8338
L41.5876 -33.0757
L41.6785 -33.318
L41.7691 -33.5606
L41.8595 -33.8037
L41.9497 -34.0473
L42.0397 -34.2914
L42.1294 -34.5361
L42.219 -34.7814
L42.3085 -35.0274
L42.3977 -35.2742
L42.4869 -35.5217
L42.576 -35.77
L42.6649 -36.0193
L42.7538 -36.2694
L42.8426 -36.5205
L42.9313 -36.7727
L43.0201 -37.0259
L43.1088 -37.2802
L43.1974 -37.5356
L43.2861 -37.7923
L43.3748 -38.0502
L43.4636 -38.3093
L43.5524 -38.5698
L43.6412 -38.8317
L43.7301 -39.095
L43.8192 -39.3597
L43.9083 -39.626
L43.9975 -39.8937
L44.0868 -40.163
L44.1763 -40.4339
L44.2659 -40.7064
L44.3557 -40.9805
L44.4457 -41.2563
L44.5358 -41.5339
L44.6262 -41.8131
L44.7168 -42.094
L44.8076 -42.3767
L44.8987 -42.6612
L44.99 -42.9474
L45.0816 -43.2353
L45.1735 -43.525
L45.2657 -43.8165
L45.3583 -44.1096
L45.4512 -44.4045
L45.5446 -44.701
L45.6383 -44.9992
L45.7325 -45.2989
L45.8272 -45.6002
L45.9224 -45.9029
L46.0181 -46.207
L46.1145 -46.5125
L46.2116 -46.8191
L46.3093 -47.1268
L46.4079 -47.4355
L46.5073 -47.745
L46.6077 -48.0552
L46.7091 -48.3659
L46.8117 -48.6769
L46.9155 -48.988
L47.0208 -49.2989
L47.1276 -49.6095
L47.2362 -49.9195
L47.3467 -50.2284
L47.4593 -50.5361
L47.5743 -50.8421
L47.6919 -51.1461
L47.8124 -51.4476
L47.9362 -51.7462
L48.0635 -52.0414
L48.1948 -52.3326
L48.3305 -52.6194
L48.471 -52.901
L48.6168 -53.1768
L48.7684 -53.4462
L48.9264 -53.7084
L49.0913 -53.9626
L49.2638 -54.2081
L49.4443 -54.444
L49.6335 -54.6694
L49.832 -54.8835
L50.0404 -55.0853
L50.2591 -55.274
L50.4886 -55.4488
L50.7293 -55.6087
L50.9815 -55.7529
L51.2453 -55.8808
L51.5208 -55.9916
L51.808 -56.0847
L52.1067 -56.1596
L52.4166 -56.216
L52.7371 -56.2534
L53.0678 -56.2718
L53.408 -56.2711
L53.757 -56.2511
L54.114 -56.2122
L54.478 -56.1543
L54.8481 -56.0779
L55.2236 -55.9831
L55.6033 -55.8705
L55.9864 -55.7404
L56.3719 -55.5932
L56.759 -55.4296
L57.1468 -55.2499
L57.5024 -55.0547
L57.8256 -54.7055
L58.1421 -54.3274
L58.4519 -53.9437
L58.7548 -53.5546
L59.0509 -53.16
L59.3399 -52.7603
L59.6217 -52.3555
L59.8964 -51.9456
L60.1638 -51.5309
L60.4239 -51.1115
L60.6765 -50.6875
L60.9216 -50.259
L61.1591 -49.8262
L61.389 -49.3891
L61.6111 -48.948
L61.8254 -48.5029
L62.0318 -48.0541
L62.2303 -47.6015
L62.4208 -47.1454
L62.6033 -46.6859
L62.7777 -46.2232
L62.9439 -45.7574
L63.1019 -45.2885
L63.2516 -44.8169
L63.3931 -44.3426
L63.5262 -43.8657
L63.6509 -43.3864
L63.7672 -42.9049
L63.875 -42.4213
L63.9744 -41.9357
L64.0652 -41.4483
L64.1475 -40.9592
L64.2212 -40.4687
L64.2863 -39.9767
L64.3428 -39.4836
L64.3906 -38.9894
L64.4298 -38.4943
L64.4604 -37.9985
L64.4823 -37.502
L64.4955 -37.005
L64.5 -36.5078
L64.4958 -36.0104
L64.483 -35.513
L64.4615 -35.0158
L64.4313 -34.5188
L64.3925 -34.0223
L64.345 -33.5264
L64.2888 -33.0313
L64.2241 -32.5371
L64.1507 -32.0439
L64.0688 -31.5519
L63.9784 -31.0613
L63.8794 -30.5722
L63.7719 -30.0847
L63.6559 -29.599
L63.5316 -29.1153
L63.3988 -28.6337
L63.2577 -28.1543
L63.1083 -27.6774
L62.9507 -27.2029
L62.7848 -26.7312
L62.6108 -26.2622
L62.4286 -25.7962
L62.2385 -25.3334
L62.0403 -24.8738
L61.8342 -24.4175
L61.6202 -23.9648
L61.3984 -23.5158
L61.1689 -23.0706
L60.9317 -22.6293
L60.6869 -22.192
L60.4346 -21.759
L60.1749 -21.3303
L59.9078 -20.9061
L59.6334 -20.4865
L59.3518 -20.0716
L59.0631 -19.6616
L58.7674 -19.2565
L58.4647 -18.8566
L58.1552 -18.4619
L57.839 -18.0725
L57.5161 -17.6885
L57.1866 -17.3102
L56.8507 -16.9375
L56.5084 -16.5707
L56.1599 -16.2097
L55.8053 -15.8548
L55.4446 -15.5061
L55.078 -15.1635
L54.7055 -14.8273
L54.3274 -14.4976
L53.9437 -14.1744
L53.5546 -13.8579
L53.16 -13.5481
L52.7603 -13.2452
L52.3555 -12.9491
L51.9456 -12.6601
L51.5309 -12.3783
L51.1115 -12.1036
L50.6875 -11.8362
L50.259 -11.5761
L49.8262 -11.3235
L49.3891 -11.0784
L48.948 -10.8409
L48.5029 -10.611
L48.0541 -10.3889
L47.6015 -10.1746
L47.1454 -9.96819
L46.6859 -9.76968
L46.2232 -9.57916
L45.7574 -9.39669
L45.2885 -9.22232
L44.8169 -9.05611
L44.3426 -8.89811
L43.8657 -8.74836
L43.3864 -8.60691
L42.9049 -8.47381
L42.4213 -8.34909
L41.9357 -8.2328
L41.4483 -8.12496
L40.9592 -8.02561
L40.4687 -7.93479
L39.9767 -7.85251
L39.4836 -7.77881
L38.9894 -7.71371
L38.4943 -7.65722
L37.9985 -7.60936
L37.502 -7.57015
L37.005 -7.53961
L36.5078 -7.51773
L36.0104 -7.50452
L35.513 -7.5
L35.0158 -7.50416
z
" id="C0_1_2c40793f3e"/>
     <path d="
M14.6398 -17.308
L14.4798 -17.7206
L14.3221 -18.1362
L14.1672 -18.5543
L14.0158 -18.9745
L13.8682 -19.3964
L13.7248 -19.8195
L13.5859 -20.2436
L13.4518 -20.6681
L13.3228 -21.0928
L13.199 -21.5174
L13.0806 -21.9416
L12.9677 -22.3651
L12.8603 -22.7877
L12.7585 -23.209
L12.6624 -23.6289
L12.572 -24.0472
L12.4872 -24.4638
L12.4081 -24.8783
L12.3345 -25.2907
L12.2665 -25.7009
L12.2039 -26.1087
L12.1467 -26.5139
L12.0948 -26.9166
L12.0482 -27.3166
L12.0067 -27.7139
L11.9702 -28.1084
L11.9387 -28.5
L11.912 -28.8887
L11.8901 -29.2744
L11.8728 -29.6572
L11.86 -30.0371
L11.8517 -30.4139
L11.8477 -30.7877
L11.8479 -31.1586
L11.8523 -31.5264
L11.8607 -31.8913
L11.8731 -32.2533
L11.8893 -32.6123
L11.9094 -32.9685
L11.9331 -33.3217
L11.9604 -33.6722
L11.9912 -34.0198
L12.0256 -34.3647
L12.0632 -34.7069
L12.1043 -35.0464
L12.1485 -35.3833
L12.196 -35.7176
L12.2466 -36.0494
L12.3002 -36.3787
L12.3569 -36.7056
L12.4165 -37.0301
L12.4791 -37.3523
L12.5446 -37.6723
L12.6129 -37.99
L12.684 -38.3056
L12.7579 -38.6192
L12.8346 -38.9306
L12.9139 -39.2401
L12.996 -39.5477
L13.0807 -39.8534
L13.1681 -40.1572
L13.2581 -40.4593
L13.3508 -40.7598
L13.4461 -41.0585
L13.544 -41.3557
L13.6445 -41.6513
L13.7476 -41.9454
L13.8533 -42.2381
L13.9616 -42.5293
L14.0725 -42.8193
L14.186 -43.1079
L14.3022 -43.3953
L14.421 -43.6816
L14.5425 -43.9666
L14.6667 -44.2506
L14.7935 -44.5335
L14.9231 -44.8154
L15.0554 -45.0963
L15.1905 -45.3763
L15.3284 -45.6554
L15.4692 -45.9337
L15.6128 -46.2111
L15.7593 -46.4878
L15.9088 -46.7638
L16.0612 -47.039
L16.2167 -47.3135
L16.3753 -47.5874
L16.5369 -47.8607
L16.7018 -48.1334
L16.8699 -48.4055
L17.0412 -48.6771
L17.2159 -48.9482
L17.3939 -49.2187
L17.5754 -49.4888
L17.7604 -49.7584
L17.949 -50.0275
L18.1412 -50.2962
L18.3371 -50.5645
L18.5368 -50.8323
L18.7403 -51.0997
L18.9477 -51.3666
L19.159 -51.6331
L19.3744 -51.8991
L19.594 -52.1647
L19.8177 -52.4297
L20.0456 -52.6943
L20.2779 -52.9584
L20.5146 -53.2219
L20.7558 -53.4849
L21.0015 -53.7473
L21.2519 -54.009
L21.5069 -54.27
L21.7666 -54.5303
L22.0312 -54.7898
L22.3007 -55.0484
L22.5751 -55.3062
L22.8545 -55.563
L23.1389 -55.8188
L23.4284 -56.0734
L23.723 -56.3269
L24.0228 -56.5791
L24.3277 -56.8299
L24.6379 -57.0793
L24.9532 -57.3271
L25.2736 -57.5733
L25.5993 -57.8177
L25.93 -58.0603
L26.2659 -58.3008
L26.6067 -58.5393
L26.9525 -58.7756
L27.3031 -59.0096
L27.6584 -59.2412
L28.0182 -59.4702
L28.3824 -59.6967
L28.7507 -59.9203
L29.123 -60.1411
L29.499 -60.3591
L29.8783 -60.574
L30.2607 -60.7858
L30.6456 -60.9945
L31.0328 -61.2001
L31.4218 -61.4025
L31.812 -61.6018
L32.2028 -61.7979
L32.5938 -61.991
L32.984 -62.1811
L33.373 -62.3683
L33.7598 -62.5529
L34.1437 -62.735
L34.5237 -62.9148
L34.8989 -63.0927
L35.2683 -63.269
L35.631 -63.4439
L35.9858 -63.618
L36.3318 -63.7915
L36.6677 -63.965
L36.9927 -64.1389
L36.8157 -64.3136
L36.3184 -64.4883
L35.821 -64.4982
L35.3236 -64.4994
L34.8265 -64.492
L34.3297 -64.4758
L33.8334 -64.451
L33.3378 -64.4175
L32.843 -64.3754
L32.3491 -64.3246
L31.8564 -64.2652
L31.3649 -64.1972
L30.8748 -64.1206
L30.3863 -64.0354
L29.8995 -63.9417
L29.4146 -63.8394
L28.9317 -63.7287
L28.4509 -63.6096
L27.9724 -63.482
L27.4964 -63.3461
L27.0229 -63.2018
L26.5522 -63.0493
L26.0844 -62.8885
L25.6196 -62.7195
L25.1579 -62.5424
L24.6996 -62.3572
L24.2447 -62.1639
L23.7934 -61.9627
L23.3458 -61.7536
L22.902 -61.5366
L22.4623 -61.3119
L22.0266 -61.0795
L21.5952 -60.8394
L21.1682 -60.5917
L20.7458 -60.3366
L20.3279 -60.074
L19.9149 -59.8041
L19.5067 -59.527
L19.1036 -59.2427
L18.7056 -58.9513
L18.3129 -58.6529
L17.9256 -58.3476
L17.5438 -58.0356
L17.1676 -57.7168
L16.7971 -57.3913
L16.4325 -57.0594
L16.0738 -56.7211
L15.7213 -56.3764
L15.3749 -56.0256
L15.0347 -55.6686
L14.701 -55.3056
L14.3737 -54.9368
L14.0531 -54.5622
L13.7391 -54.1819
L13.4319 -53.7961
L13.1316 -53.4049
L12.8382 -53.0084
L12.5519 -52.6067
L12.2728 -52.2
L12.0009 -51.7883
L11.7362 -51.3718
L11.479 -50.9506
L11.2292 -50.5248
L10.987 -50.0947
L10.7524 -49.6602
L10.5255 -49.2216
L10.3064 -48.779
L10.0951 -48.3324
L9.89165 -47.8821
L9.69618 -47.4282
L9.50872 -46.9708
L9.32933 -46.5101
L9.15806 -46.0461
L8.99497 -45.5792
L8.8401 -45.1092
L8.69351 -44.6365
L8.55524 -44.1612
L8.42532 -43.6834
L8.30381 -43.2033
L8.19073 -42.7209
L8.08612 -42.2365
L7.99002 -41.7503
L7.90245 -41.2622
L7.82343 -40.7726
L7.753 -40.2815
L7.69117 -39.7891
L7.63797 -39.2955
L7.59341 -38.801
L7.5575 -38.3055
L7.53025 -37.8094
L7.51168 -37.3128
L7.50178 -36.8157
L7.50056 -36.3184
L7.50803 -35.821
L7.52417 -35.3236
L7.54899 -34.8265
L7.58247 -34.3297
L7.62461 -33.8334
L7.6754 -33.3378
L7.73481 -32.843
L7.80283 -32.3491
L7.87944 -31.8564
L7.96462 -31.3649
L8.05834 -30.8748
L8.16057 -30.3863
L8.27127 -29.8995
L8.39043 -29.4146
L8.51799 -28.9317
L8.65393 -28.4509
L8.79819 -27.9724
L8.95075 -27.4964
L9.11154 -27.0229
L9.28052 -26.5522
L9.45764 -26.0844
L9.64285 -25.6196
L9.83608 -25.1579
L10.0373 -24.6996
L10.2464 -24.2447
L10.4634 -23.7934
L10.6881 -23.3458
L10.9205 -22.902
L11.1606 -22.4623
L11.4083 -22.0266
L11.6634 -21.5952
L11.926 -21.1682
L12.1959 -20.7458
L12.473 -20.3279
L12.7573 -19.9149
L13.0487 -19.5067
L13.3471 -19.1036
L13.6524 -18.7056
L13.9644 -18.3129
z
" id="C0_2_f17f8bac9c"/>
    </defs>
    <g clip-path="url(#p1bffca34e9)">
     <use style="fill:#ff0000;stroke:#000000;stroke-width:2.0;" x="0.0" xlink:href="#C0_0_a811fe30f3" y="72.0"/>
    </g>
    <g clip-path="url(#p1bffca34e9)">
     <use style="fill:#ffffff;stroke:#000000;stroke-width:2.0;" x="0.0" xlink:href="#C0_1_2c40793f3e" y="72.0"/>
    </g>
    <g clip-path="url(#p1bffca34e9)">
     <use style="fill:#ffffff;stroke:#000000;stroke-width:2.0;" x="0.0" xlink:href="#C0_2_f17f8bac9c" y="72.0"/>
    </g>
   </g>
  </g>
 </g>
 <defs>
  <clipPath id="p1bffca34e9">
   <rect height="72.0" width="72.0" x="0.0" y="0.0"/>
  </clipPath>
 </defs>
</svg>
