<?xml version="1.0" encoding="utf-8" standalone="no"?>
<!DOCTYPE svg PUBLIC "-//W3C//DTD SVG 1.1//EN"
  "http://www.w3.org/Graphics/SVG/1.1/DTD/svg11.dtd">
<!-- Created with matplotlib (http://matplotlib.org/) -->
<svg height="72pt" version="1.1" viewBox="0 0 72 72" width="72pt" xmlns="http://www.w3.org/2000/svg" xmlns:xlink="http://www.w3.org/1999/xlink">
 <defs>
  <style type="text/css">
*{stroke-linecap:butt;stroke-linejoin:round;}
  </style>
 </defs>
 <g id="figure_1">
  <g id="patch_1">
   <path d="
M0 72
L72 72
L72 0
L0 0
z
" style="fill:none;"/>
  </g>
  <g id="axes_1">
   <g id="PatchCollection_1">
    <defs>
     <path d="
M36 -7.5
C43.5583 -7.5 50.808 -10.5029 56.1525 -15.8475
C61.4971 -21.192 64.5 -28.4417 64.5 -36
C64.5 -43.5583 61.4971 -50.808 56.1525 -56.1525
C50.808 -61.4971 43.5583 -64.5 36 -64.5
C28.4417 -64.5 21.192 -61.4971 15.8475 -56.1525
C10.5029 -50.808 7.5 -43.5583 7.5 -36
C7.5 -28.4417 10.5029 -21.192 15.8475 -15.8475
C21.192 -10.5029 28.4417 -7.5 36 -7.5
z
" id="C0_0_a811fe30f3"/>
     <path d="
M7.7025 -34.0478
L7.88523 -34.1535
L8.06872 -34.257
L8.25294 -34.3582
L8.43789 -34.4573
L8.62357 -34.5543
L8.80997 -34.6493
L8.99709 -34.7424
L9.18494 -34.8337
L9.37353 -34.9232
L9.56285 -35.011
L9.75293 -35.097
L9.94378 -35.1815
L10.1354 -35.2645
L10.3278 -35.3459
L10.521 -35.4258
L10.7151 -35.5044
L10.91 -35.5816
L11.1058 -35.6574
L11.3025 -35.732
L11.5002 -35.8053
L11.6988 -35.8773
L11.8983 -35.9482
L12.0989 -36.018
L12.5033 -36.0866
L12.7072 -36.1542
L12.9122 -36.2207
L13.1183 -36.2861
L13.3258 -36.3505
L13.5344 -36.414
L13.7444 -36.4764
L13.9558 -36.5379
L14.1685 -36.5985
L14.3827 -36.6582
L14.5983 -36.717
L14.8155 -36.7749
L15.0342 -36.8319
L15.2545 -36.8881
L15.4765 -36.9434
L15.7002 -36.9979
L15.9257 -37.0516
L16.153 -37.1045
L16.3821 -37.1565
L16.6131 -37.2077
L16.8461 -37.2581
L17.0812 -37.3078
L17.3182 -37.3566
L17.5574 -37.4046
L17.7988 -37.4518
L18.0424 -37.4982
L18.2883 -37.5437
L18.5365 -37.5885
L18.7871 -37.6324
L19.0401 -37.6755
L19.2956 -37.7177
L19.5537 -37.759
L19.8143 -37.7995
L20.0776 -37.839
L20.3436 -37.8776
L20.6123 -37.9153
L20.8838 -37.952
L21.1581 -37.9877
L21.4354 -38.0224
L21.7155 -38.056
L21.9986 -38.0886
L22.2847 -38.12
L22.5738 -38.1502
L22.8659 -38.1792
L23.1612 -38.207
L23.4595 -38.2334
L23.7609 -38.2585
L24.0655 -38.2822
L24.3732 -38.3043
L24.684 -38.325
L24.9979 -38.344
L25.3149 -38.3613
L25.635 -38.3768
L25.9582 -38.3904
L26.2843 -38.4021
L26.6133 -38.4117
L26.9453 -38.4192
L27.28 -38.4243
L27.6174 -38.4271
L27.9574 -38.4273
L28.2998 -38.4248
L28.6446 -38.4195
L28.9915 -38.4112
L29.3404 -38.3997
L29.6911 -38.3849
L30.0434 -38.3666
L30.397 -38.3445
L30.7516 -38.3184
L31.107 -38.2881
L31.4628 -38.2533
L31.8187 -38.2138
L32.1744 -38.1692
L32.5293 -38.1193
L32.8832 -38.0638
L33.2354 -38.0022
L33.5856 -37.9342
L33.9332 -37.8595
L34.2777 -37.7777
L34.6184 -37.6883
L34.9548 -37.591
L35.2863 -37.4852
L35.6123 -37.3707
L35.9322 -37.247
L36.2453 -37.1136
L36.551 -36.9702
L36.8488 -36.8164
L37.1381 -36.652
L37.4184 -36.4766
L37.6893 -36.2901
L37.9503 -36.0924
L38.2013 -35.8833
L38.4418 -35.663
L38.6719 -35.4315
L38.8913 -35.189
L39.1001 -34.9359
L39.2983 -34.6725
L39.486 -34.3993
L39.6635 -34.1167
L39.8309 -33.8254
L39.9886 -33.5258
L40.1367 -33.2187
L40.2757 -32.9047
L40.4059 -32.5844
L40.5276 -32.2585
L40.6412 -31.9277
L40.7469 -31.5925
L40.8452 -31.2536
L40.9364 -30.9116
L41.0209 -30.567
L41.0988 -30.2204
L41.1706 -29.8723
L41.2364 -29.523
L41.2967 -29.1732
L41.3516 -28.8231
L41.4013 -28.4731
L41.4462 -28.1237
L41.4864 -27.775
L41.5222 -27.4275
L41.5537 -27.0813
L41.5811 -26.7367
L41.6046 -26.3939
L41.6244 -26.0531
L41.6407 -25.7146
L41.6535 -25.3783
L41.663 -25.0446
L41.6694 -24.7135
L41.6727 -24.385
L41.6732 -24.0594
L41.6708 -23.7366
L41.6658 -23.4168
L41.6582 -23.0999
L41.6481 -22.7861
L41.6356 -22.4754
L41.6207 -22.1677
L41.6037 -21.8631
L41.5844 -21.5617
L41.5631 -21.2634
L41.5398 -20.9682
L41.5145 -20.676
L41.4873 -20.387
L41.4582 -20.101
L41.4274 -19.818
L41.3948 -19.5381
L41.3605 -19.2611
L41.3245 -18.9871
L41.2869 -18.7159
L41.2478 -18.4476
L41.207 -18.1821
L41.1648 -17.9194
L41.121 -17.6595
L41.0758 -17.4021
L41.0292 -17.1475
L40.9811 -16.8954
L40.9316 -16.6458
L40.8807 -16.3987
L40.8284 -16.1541
L40.7748 -15.9118
L40.7198 -15.6719
L40.6635 -15.4342
L40.6058 -15.1987
L40.5467 -14.9655
L40.4864 -14.7343
L40.4246 -14.5053
L40.3616 -14.2782
L40.2972 -14.0531
L40.2314 -13.83
L40.1643 -13.6087
L40.0957 -13.3893
L40.0258 -13.1717
L39.9545 -12.9558
L39.8818 -12.7416
L39.8077 -12.529
L39.732 -12.3181
L39.655 -12.1087
L39.5764 -11.9009
L39.4962 -11.6945
L39.4146 -11.4896
L39.3313 -11.2862
L39.2464 -11.0841
L39.1599 -10.8833
L39.0717 -10.6839
L38.9817 -10.4857
L38.89 -10.2888
L38.7965 -10.0931
L38.7011 -9.89864
L38.6039 -9.70533
L38.5046 -9.51315
L38.4034 -9.3221
L38.3001 -9.13216
L38.1946 -8.94329
L38.087 -8.7555
L37.9771 -8.56875
L37.8649 -8.38305
L37.7503 -8.19837
L37.6332 -8.01472
L37.5136 -7.83208
L37.0226 -7.65046
L36.5253 -7.51835
L36.028 -7.50484
L35.5306 -7.50001
L35.0333 -7.50387
L34.5363 -7.5164
L34.0398 -7.53761
L33.5439 -7.56749
L33.0487 -7.60603
L32.5545 -7.65322
L32.0613 -7.70904
L31.5692 -7.77348
L31.0786 -7.84652
L30.5894 -7.92814
L30.1019 -8.0183
L29.6161 -8.11699
L29.1324 -8.22418
L28.6507 -8.33982
L28.1712 -8.46389
L27.6941 -8.59635
L27.2196 -8.73715
L26.7477 -8.88626
L26.2787 -9.04363
L25.8126 -9.20921
L25.3496 -9.38295
L24.8899 -9.5648
L24.4336 -9.7547
L23.9807 -9.9526
L23.5316 -10.1584
L23.0862 -10.3721
L22.6448 -10.5936
L22.2074 -10.8229
L21.7742 -11.0598
L21.3454 -11.3043
L20.921 -11.5563
L20.5012 -11.8158
L20.0862 -12.0827
L19.676 -12.3568
L19.2707 -12.6381
L18.8706 -12.9266
L18.4757 -13.2221
L18.0861 -13.5245
L17.702 -13.8338
L17.3234 -14.1498
L16.9506 -14.4724
L16.5835 -14.8017
L16.2224 -15.1374
L15.8672 -15.4794
L15.5182 -15.8277
L15.1755 -16.1821
L14.8391 -16.5426
L14.5091 -16.909
L14.1857 -17.2812
L13.8689 -17.6591
L13.5589 -18.0427
L13.2557 -18.4316
L12.9595 -18.826
L12.6702 -19.2255
L12.3881 -19.6302
L12.1131 -20.0398
L11.8455 -20.4543
L11.5851 -20.8736
L11.3323 -21.2975
L11.0869 -21.7258
L10.8491 -22.1585
L10.619 -22.5954
L10.3966 -23.0364
L10.1821 -23.4813
L9.97534 -23.93
L9.77655 -24.3825
L9.58575 -24.8384
L9.40299 -25.2978
L9.22834 -25.7604
L9.06184 -26.2262
L8.90354 -26.6949
L8.7535 -27.1664
L8.61176 -27.6407
L8.47836 -28.1175
L8.35335 -28.5967
L8.23676 -29.0781
L8.12862 -29.5617
L8.02897 -30.0472
L7.93785 -30.5345
L7.85527 -31.0235
L7.78126 -31.514
L7.71586 -32.0059
L7.65906 -32.499
L7.6109 -32.9931
z
" id="C0_1_4e86c45265"/>
     <path d="
M34.6149 -64.402
L34.7547 -64.2329
L34.894 -64.0615
L35.033 -63.8877
L35.1716 -63.7116
L35.3099 -63.5331
L35.448 -63.3522
L35.5858 -63.1687
L35.7234 -62.9828
L35.8608 -62.7942
L35.9981 -62.603
L36.1352 -62.4092
L36.2723 -62.2126
L36.4093 -62.0132
L36.5463 -61.811
L36.6833 -61.6059
L36.8203 -61.3979
L36.9573 -61.1869
L37.0945 -60.9729
L37.2317 -60.7558
L37.3691 -60.5356
L37.5067 -60.3122
L37.6444 -60.0855
L37.7824 -59.8556
L37.9206 -59.6224
L38.059 -59.3858
L38.1978 -59.1458
L38.3368 -58.9024
L38.4762 -58.6555
L38.616 -58.4051
L38.7561 -58.1512
L38.8967 -57.8937
L39.0377 -57.6327
L39.1792 -57.3681
L39.3212 -57.0999
L39.4637 -56.8281
L39.6068 -56.5528
L39.7505 -56.2739
L39.8949 -55.9915
L40.0399 -55.7056
L40.1857 -55.4162
L40.3323 -55.1235
L40.4796 -54.8275
L40.6279 -54.5283
L40.7772 -54.226
L40.9274 -53.9207
L41.0788 -53.6125
L41.2313 -53.3016
L41.3852 -52.9883
L41.5404 -52.6726
L41.6972 -52.3548
L41.8555 -52.0352
L42.0157 -51.714
L42.1778 -51.3916
L42.342 -51.0682
L42.5085 -50.7442
L42.6775 -50.4201
L42.8492 -50.0961
L43.0239 -49.7729
L43.2019 -49.4508
L43.3833 -49.1303
L43.5685 -48.812
L43.7579 -48.4964
L43.9517 -48.1842
L44.1503 -47.8758
L44.3539 -47.5719
L44.563 -47.2731
L44.7779 -46.9799
L44.9988 -46.6929
L45.226 -46.4126
L45.4599 -46.1395
L45.7005 -45.8741
L45.948 -45.6167
L46.2025 -45.3676
L46.464 -45.127
L46.7325 -44.8951
L47.0079 -44.672
L47.2899 -44.4576
L47.5783 -44.2518
L47.8728 -44.0544
L48.173 -43.8652
L48.4786 -43.684
L48.7889 -43.5103
L49.1036 -43.3439
L49.4221 -43.1843
L49.744 -43.0311
L50.0687 -42.884
L50.3956 -42.7425
L50.7244 -42.6063
L51.0546 -42.4748
L51.3856 -42.3479
L51.717 -42.2251
L52.0484 -42.1061
L52.3795 -41.9905
L52.7098 -41.8782
L53.039 -41.7688
L53.3668 -41.662
L53.6929 -41.5577
L54.0171 -41.4556
L54.3391 -41.3556
L54.6587 -41.2574
L54.9758 -41.1609
L55.29 -41.066
L55.6014 -40.9725
L55.9097 -40.8803
L56.2148 -40.7892
L56.5167 -40.6993
L56.8153 -40.6103
L57.1104 -40.5222
L57.4021 -40.435
L57.6902 -40.3484
L57.9749 -40.2626
L58.2559 -40.1774
L58.5333 -40.0927
L58.8072 -40.0086
L59.0774 -39.9249
L59.3441 -39.8417
L59.6071 -39.7588
L59.8667 -39.6763
L60.1227 -39.5941
L60.3752 -39.5122
L60.6242 -39.4305
L60.8698 -39.349
L61.112 -39.2677
L61.3509 -39.1865
L61.5864 -39.1055
L61.8187 -39.0245
L62.0478 -38.9437
L62.2738 -38.8629
L62.4967 -38.7821
L62.7165 -38.7013
L62.9333 -38.6205
L63.1472 -38.5397
L63.3582 -38.4588
L63.5664 -38.3778
L63.7718 -38.2967
L63.9744 -38.2155
L64.1744 -38.1341
L64.3855 -38.0525
L64.3366 -38.5522
L64.2791 -39.0472
L64.213 -39.5413
L64.1383 -40.0343
L64.055 -40.5261
L63.9632 -41.0165
L63.8629 -41.5053
L63.754 -41.9925
L63.6368 -42.4779
L63.5111 -42.9613
L63.377 -43.4425
L63.2346 -43.9215
L63.0839 -44.3981
L62.9249 -44.8721
L62.7577 -45.3435
L62.5824 -45.8119
L62.399 -46.2774
L62.2075 -46.7398
L62.0081 -47.1989
L61.8007 -47.6546
L61.5855 -48.1067
L61.3625 -48.5551
L61.1318 -48.9998
L60.8934 -49.4404
L60.6474 -49.877
L60.3939 -50.3093
L60.133 -50.7373
L59.8647 -51.1608
L59.5892 -51.5796
L59.3065 -51.9938
L59.0166 -52.403
L58.7198 -52.8073
L58.416 -53.2064
L58.1055 -53.6003
L57.7881 -53.9888
L57.4642 -54.3719
L57.1337 -54.7494
L56.7968 -55.1211
L56.4535 -55.487
L56.104 -55.847
L55.7484 -56.2009
L55.3868 -56.5487
L55.0192 -56.8903
L54.6459 -57.2254
L54.2669 -57.5541
L53.8823 -57.8763
L53.4923 -58.1917
L53.0969 -58.5004
L52.6964 -58.8023
L52.2907 -59.0972
L51.8801 -59.3851
L51.4647 -59.6658
L51.0445 -59.9394
L50.6198 -60.2056
L50.1906 -60.4645
L49.7571 -60.7159
L49.3194 -60.9598
L48.8776 -61.1961
L48.4319 -61.4247
L47.9825 -61.6456
L47.5294 -61.8587
L47.0727 -62.0638
L46.6127 -62.2611
L46.1495 -62.4503
L45.6831 -62.6315
L45.2139 -62.8046
L44.7418 -62.9695
L44.267 -63.1262
L43.7898 -63.2746
L43.3101 -63.4148
L42.8283 -63.5465
L42.3443 -63.6699
L41.8584 -63.7849
L41.3708 -63.8914
L40.8815 -63.9894
L40.3907 -64.0788
L39.8986 -64.1598
L39.4052 -64.2321
L38.9109 -64.2958
L38.4157 -64.351
L37.9197 -64.3974
L37.4231 -64.4353
L36.9261 -64.4644
L36.4289 -64.4849
L35.9315 -64.4968
L35.4341 -64.4999
z
" id="C0_2_6cc548e198"/>
    </defs>
    <g clip-path="url(#p1bffca34e9)">
     <use style="fill:#ff0000;stroke:#000000;stroke-width:2.0;" x="0.0" xlink:href="#C0_0_a811fe30f3" y="72.0"/>
    </g>
    <g clip-path="url(#p1bffca34e9)">
     <use style="fill:#ffffff;stroke:#000000;stroke-width:2.0;" x="0.0" xlink:href="#C0_1_4e86c45265" y="72.0"/>
    </g>
    <g clip-path="url(#p1bffca34e9)">
     <use style="fill:#ffffff;stroke:#000000;stroke-width:2.0;" x="0.0" xlink:href="#C0_2_6cc548e198" y="72.0"/>
    </g>
   </g>
  </g>
 </g>
 <defs>
  <clipPath id="p1bffca34e9">
   <rect height="72.0" width="72.0" x="0.0" y="0.0"/>
  </clipPath>
 </defs>
</svg>
