<?xml version="1.0" encoding="utf-8" standalone="no"?>
<!DOCTYPE svg PUBLIC "-//W3C//DTD SVG 1.1//EN"
  "http://www.w3.org/Graphics/SVG/1.1/DTD/svg11.dtd">
<!-- Created with matplotlib (http://matplotlib.org/) -->
<svg height="72pt" version="1.1" viewBox="0 0 72 72" width="72pt" xmlns="http://www.w3.org/2000/svg" xmlns:xlink="http://www.w3.org/1999/xlink">
 <defs>
  <style type="text/css">
*{stroke-linecap:butt;stroke-linejoin:round;}
  </style>
 </defs>
 <g id="figure_1">
  <g id="patch_1">
   <path d="
M0 72
L72 72
L72 0
L0 0
z
" style="fill:none;"/>
  </g>
  <g id="axes_1">
   <g id="PatchCollection_1">
    <defs>
     <path d="
M36 -7.5
C43.5583 -7.5 50.808 -10.5029 56.1525 -15.8475
C61.4971 -21.192 64.5 -28.4417 64.5 -36
C64.5 -43.5583 61.4971 -50.808 56.1525 -56.1525
C50.808 -61.4971 43.5583 -64.5 36 -64.5
C28.4417 -64.5 21.192 -61.4971 15.8475 -56.1525
C10.5029 -50.808 7.5 -43.5583 7.5 -36
C7.5 -28.4417 10.5029 -21.192 15.8475 -15.8475
C21.192 -10.5029 28.4417 -7.5 36 -7.5
z
" id="C0_0_a811fe30f3"/>
     <path d="
M64.399 -34.9392
L64.1498 -34.8815
L63.897 -34.8055
L63.6406 -34.7131
L63.3809 -34.6059
L63.1179 -34.4854
L62.8518 -34.3533
L62.5829 -34.2109
L62.3111 -34.0598
L62.0367 -33.9011
L61.7598 -33.736
L61.4805 -33.5656
L61.1992 -33.3909
L60.9158 -33.2128
L60.6306 -33.032
L60.3437 -32.8492
L60.0554 -32.6652
L59.7657 -32.4804
L59.4749 -32.2954
L59.183 -32.1106
L58.8904 -31.9264
L58.597 -31.7431
L58.3031 -31.5611
L58.0089 -31.3806
L57.7143 -31.2018
L57.4197 -31.0249
L57.125 -30.8501
L56.8305 -30.6775
L56.5361 -30.5072
L56.2421 -30.3394
L55.9485 -30.174
L55.6555 -30.0113
L55.363 -29.8511
L55.0711 -29.6936
L54.78 -29.5388
L54.4897 -29.3867
L54.2002 -29.2372
L53.9116 -29.0904
L53.6239 -28.9464
L53.3372 -28.8049
L53.0515 -28.6662
L52.7668 -28.53
L52.4831 -28.3964
L52.2005 -28.2654
L51.9189 -28.1369
L51.6385 -28.011
L51.3591 -27.8874
L51.0807 -27.7663
L50.8035 -27.6475
L50.5273 -27.531
L50.2521 -27.4169
L49.978 -27.3049
L49.7049 -27.1952
L49.4329 -27.0876
L49.1617 -26.9822
L48.8916 -26.8788
L48.6223 -26.7774
L48.354 -26.678
L48.0865 -26.5806
L47.8199 -26.485
L47.554 -26.3913
L47.289 -26.2995
L47.0246 -26.2094
L46.761 -26.121
L46.498 -26.0344
L46.2356 -25.9495
L45.9738 -25.8662
L45.7125 -25.7845
L45.4516 -25.7043
L45.1913 -25.6257
L44.9313 -25.5487
L44.6717 -25.4731
L44.4123 -25.399
L44.1533 -25.3263
L43.8944 -25.255
L43.6357 -25.1851
L43.3771 -25.1165
L43.1186 -25.0493
L42.86 -24.9834
L42.6015 -24.9187
L42.3428 -24.8554
L42.084 -24.7933
L41.825 -24.7324
L41.3062 -24.6728
L41.0463 -24.6144
L40.786 -24.5571
L40.5252 -24.5011
L40.2639 -24.4462
L40.0021 -24.3925
L39.7396 -24.3399
L39.4765 -24.2884
L39.2126 -24.2381
L38.9479 -24.189
L38.6824 -24.1409
L38.416 -24.094
L38.1486 -24.0482
L37.8802 -24.0035
L37.6108 -23.96
L37.3402 -23.9175
L37.0685 -23.8762
L36.7955 -23.836
L36.5212 -23.7969
L36.2456 -23.759
L35.9686 -23.7222
L35.6901 -23.6865
L35.4102 -23.6521
L35.1286 -23.6187
L34.8454 -23.5866
L34.5606 -23.5557
L34.274 -23.5259
L33.9857 -23.4974
L33.6955 -23.4702
L33.4035 -23.4442
L33.1095 -23.4194
L32.8135 -23.396
L32.5156 -23.3739
L32.2155 -23.3531
L31.9134 -23.3337
L31.6091 -23.3156
L31.3026 -23.299
L30.9939 -23.2838
L30.683 -23.2701
L30.3698 -23.2578
L30.0543 -23.2471
L29.7364 -23.2379
L29.4162 -23.2303
L29.0937 -23.2243
L28.7688 -23.2198
L28.4415 -23.2171
L28.1119 -23.216
L27.7799 -23.2166
L27.4455 -23.2189
L27.1089 -23.2229
L26.77 -23.2287
L26.4288 -23.2363
L26.0855 -23.2456
L25.74 -23.2567
L25.3925 -23.2695
L25.0429 -23.2841
L24.6915 -23.3005
L24.3384 -23.3186
L23.9835 -23.3383
L23.6272 -23.3597
L23.2694 -23.3827
L22.9105 -23.4071
L22.5505 -23.4329
L22.1898 -23.46
L21.8284 -23.4883
L21.4667 -23.5175
L21.105 -23.5475
L20.7435 -23.578
L20.3825 -23.6088
L20.0224 -23.6396
L19.6636 -23.6701
L19.3064 -23.6998
L18.9514 -23.7283
L18.5989 -23.7551
L18.2495 -23.7796
L17.9037 -23.8012
L17.5622 -23.8192
L17.2254 -23.8328
L16.8941 -23.8411
L16.5689 -23.8433
L16.2506 -23.8383
L15.9399 -23.825
L15.6375 -23.8023
L15.3442 -23.7691
L15.0609 -23.7241
L14.7883 -23.6662
L14.5271 -23.5941
L14.2782 -23.5067
L14.0422 -23.4031
L13.8198 -23.2822
L13.6115 -23.1434
L13.418 -22.9861
L13.2395 -22.8099
L13.0765 -22.6146
L12.9293 -22.4005
L12.7979 -22.1676
L12.6826 -21.9166
L12.5833 -21.6481
L12.5001 -21.3629
L12.4328 -21.0619
L12.3814 -20.7461
L12.4889 -20.4167
L12.7736 -19.8917
L13.0654 -19.4838
L13.3641 -19.081
L13.6698 -18.6833
L13.9823 -18.2909
L14.3014 -17.9039
L14.6272 -17.5224
L14.9595 -17.1465
L15.2982 -16.7764
L15.6432 -16.4121
L15.9944 -16.0538
L16.3518 -15.7015
L16.715 -15.3555
L17.0842 -15.0157
L17.4591 -14.6823
L17.8397 -14.3555
L18.2258 -14.0352
L18.6173 -13.7216
L19.0141 -13.4148
L19.4161 -13.1148
L19.8232 -12.8219
L20.2351 -12.536
L20.6519 -12.2572
L21.0734 -11.9857
L21.4993 -11.7215
L21.9298 -11.4647
L22.3644 -11.2154
L22.8033 -10.9736
L23.2462 -10.7394
L23.6929 -10.513
L24.1434 -10.2942
L24.5975 -10.0834
L25.0551 -9.8804
L25.516 -9.68538
L25.9801 -9.49837
L26.4473 -9.31943
L26.9174 -9.14863
L27.3902 -8.986
L27.8657 -8.8316
L28.3436 -8.68548
L28.8239 -8.54767
L29.3064 -8.41823
L29.7909 -8.29719
L30.2773 -8.18459
L30.7654 -8.08047
L31.2551 -7.98484
L31.7463 -7.89775
L32.2388 -7.81922
L32.7324 -7.74928
L33.227 -7.68794
L33.7225 -7.63522
L34.2186 -7.59115
L34.7153 -7.55573
L35.2124 -7.52897
L35.7097 -7.51089
L36.2071 -7.50148
L36.7045 -7.50075
L37.2016 -7.50871
L37.6984 -7.52534
L38.1946 -7.55065
L38.6902 -7.58462
L39.185 -7.62725
L39.6788 -7.67852
L40.1714 -7.73842
L40.6628 -7.80693
L41.1528 -7.88403
L41.6412 -7.96969
L42.1279 -8.06389
L42.6128 -8.16659
L43.0956 -8.27778
L43.5762 -8.39741
L44.0546 -8.52545
L44.5304 -8.66186
L45.0037 -8.80659
L45.4743 -8.95961
L45.9419 -9.12086
L46.4066 -9.29031
L46.868 -9.46789
L47.3262 -9.65355
L47.7809 -9.84723
L48.232 -10.0489
L48.6794 -10.2584
L49.1229 -10.4758
L49.5625 -10.701
L49.9979 -10.9339
L50.429 -11.1744
L50.8557 -11.4225
L51.278 -11.6781
L51.6955 -11.941
L52.1083 -12.2113
L52.5162 -12.4889
L52.919 -12.7736
L53.3167 -13.0654
L53.7091 -13.3641
L54.0961 -13.6698
L54.4776 -13.9823
L54.8535 -14.3014
L55.2236 -14.6272
L55.5879 -14.9595
L55.9462 -15.2982
L56.2985 -15.6432
L56.6445 -15.9944
L56.9843 -16.3518
L57.3177 -16.715
L57.6445 -17.0842
L57.9648 -17.4591
L58.2784 -17.8397
L58.5852 -18.2258
L58.8852 -18.6173
L59.1781 -19.0141
L59.464 -19.4161
L59.7428 -19.8232
L60.0143 -20.2351
L60.2785 -20.6519
L60.5353 -21.0734
L60.7846 -21.4993
L61.0264 -21.9298
L61.2606 -22.3644
L61.487 -22.8033
L61.7058 -23.2462
L61.9166 -23.6929
L62.1196 -24.1434
L62.3146 -24.5975
L62.5016 -25.0551
L62.6806 -25.516
L62.8514 -25.9801
L63.014 -26.4473
L63.1684 -26.9174
L63.3145 -27.3902
L63.4523 -27.8657
L63.5818 -28.3436
L63.7028 -28.8239
L63.8154 -29.3064
L63.9195 -29.7909
L64.0152 -30.2773
L64.1022 -30.7654
L64.1808 -31.2551
L64.2507 -31.7463
L64.3121 -32.2388
L64.3648 -32.7324
L64.4089 -33.227
L64.4443 -33.7225
z
" id="C0_1_e18ed77144"/>
     <path d="
M59.6283 -51.9078
L59.2919 -52.0157
L58.949 -52.1293
L58.6003 -52.2472
L58.2462 -52.3684
L57.8875 -52.4917
L57.5248 -52.6162
L57.1584 -52.7412
L56.789 -52.8657
L56.4171 -52.9893
L56.043 -53.1112
L55.6673 -53.2311
L55.2903 -53.3484
L54.9123 -53.4628
L54.5338 -53.574
L54.155 -53.6817
L53.7763 -53.7858
L53.3979 -53.8861
L53.02 -53.9824
L52.643 -54.0746
L52.267 -54.1627
L51.8923 -54.2465
L51.5189 -54.3262
L51.1471 -54.4017
L50.777 -54.4729
L50.4087 -54.5399
L50.0423 -54.6028
L49.678 -54.6616
L49.3159 -54.7163
L48.9559 -54.767
L48.5982 -54.8138
L48.2429 -54.8567
L47.8899 -54.8958
L47.5394 -54.9312
L47.1913 -54.9629
L46.8456 -54.9911
L46.5025 -55.0158
L46.1618 -55.0371
L45.8236 -55.0551
L45.4878 -55.0698
L45.1546 -55.0813
L44.8237 -55.0897
L44.4954 -55.0952
L44.1694 -55.0976
L43.8458 -55.0972
L43.5245 -55.094
L43.2055 -55.088
L42.8888 -55.0794
L42.5744 -55.0681
L42.2621 -55.0542
L41.952 -55.0379
L41.644 -55.0191
L41.338 -54.9978
L41.034 -54.9743
L40.732 -54.9484
L40.4319 -54.9202
L40.1336 -54.8898
L39.8371 -54.8572
L39.5424 -54.8225
L39.2493 -54.7856
L38.9579 -54.7467
L38.668 -54.7057
L38.3797 -54.6626
L38.0928 -54.6175
L37.8073 -54.5705
L37.5231 -54.5214
L37.2403 -54.4704
L36.9586 -54.4175
L36.6782 -54.3626
L36.3988 -54.3059
L36.1205 -54.2472
L35.8433 -54.1865
L35.567 -54.124
L35.2915 -54.0596
L35.0169 -53.9933
L34.7431 -53.9251
L34.47 -53.855
L34.1976 -53.7829
L33.9258 -53.709
L33.6546 -53.6331
L33.3839 -53.5553
L33.1136 -53.4755
L32.8438 -53.3937
L32.5743 -53.31
L32.3051 -53.2242
L32.0361 -53.1365
L31.7674 -53.0466
L31.4988 -52.9547
L31.2303 -52.8607
L30.9619 -52.7646
L30.6934 -52.6663
L30.425 -52.5658
L30.1564 -52.4631
L29.8877 -52.3581
L29.6189 -52.2508
L29.3498 -52.1412
L29.0805 -52.0292
L28.8109 -51.9148
L28.5409 -51.7979
L28.2706 -51.6785
L27.9998 -51.5566
L27.7286 -51.432
L27.4569 -51.3048
L27.1847 -51.1749
L26.9119 -51.0422
L26.6385 -50.9067
L26.3645 -50.7683
L26.0899 -50.627
L25.8147 -50.4827
L25.5387 -50.3354
L25.2621 -50.1849
L24.9847 -50.0313
L24.7066 -49.8744
L24.4277 -49.7143
L24.1481 -49.5507
L23.8677 -49.3838
L23.5866 -49.2133
L23.3047 -49.0393
L23.022 -48.8617
L22.7386 -48.6804
L22.4545 -48.4954
L22.1696 -48.3066
L21.884 -48.1139
L21.5978 -47.9173
L21.3109 -47.7168
L21.0234 -47.5122
L20.7353 -47.3036
L20.4467 -47.0909
L20.1576 -46.8741
L19.8682 -46.6532
L19.5783 -46.4281
L19.2882 -46.1989
L18.9979 -45.9655
L18.7074 -45.7279
L18.4169 -45.4863
L18.1265 -45.2405
L17.8361 -44.9908
L17.5461 -44.7371
L17.2563 -44.4796
L16.9671 -44.2184
L16.6784 -43.9536
L16.3904 -43.6854
L16.1032 -43.414
L15.8169 -43.1397
L15.5317 -42.8626
L15.2477 -42.5833
L14.965 -42.3019
L14.6836 -42.019
L14.4038 -41.7349
L14.1256 -41.4502
L13.8492 -41.1656
L13.5745 -40.8816
L13.3016 -40.599
L13.0307 -40.3186
L12.7617 -40.0413
L12.4947 -39.7681
L12.2296 -39.5
L11.9663 -39.2382
L11.7049 -38.9839
L11.4453 -38.7383
L11.1872 -38.503
L10.9307 -38.2793
L10.6755 -38.0686
L10.4216 -37.8724
L10.1686 -37.6923
L9.91661 -37.5295
L9.66536 -37.3854
L9.41479 -37.2612
L9.16483 -37.1579
L8.91547 -37.0765
L8.66677 -37.0174
L8.41883 -36.9813
L8.17182 -36.9683
L7.92597 -36.9783
L7.54025 -37.0113
L7.57101 -37.5141
L7.61043 -38.0106
L7.65849 -38.5064
L7.71519 -39.0015
L7.78051 -39.4957
L7.85442 -39.9888
L7.9369 -40.4807
L8.02794 -40.9712
L8.12749 -41.4602
L8.23554 -41.9475
L8.35204 -42.4331
L8.47696 -42.9167
L8.61027 -43.3981
L8.75192 -43.8773
L8.90187 -44.3542
L9.06007 -44.8284
L9.22648 -45.3
L9.40105 -45.7688
L9.58372 -46.2345
L9.77443 -46.6972
L9.97314 -47.1566
L10.1798 -47.6126
L10.3943 -48.0651
L10.6166 -48.5138
L10.8466 -48.9588
L11.0843 -49.3999
L11.3296 -49.8368
L11.5824 -50.2695
L11.8426 -50.6979
L12.1102 -51.1218
L12.385 -51.5411
L12.6671 -51.9557
L12.9563 -52.3654
L13.2525 -52.7701
L13.5556 -53.1697
L13.8655 -53.5641
L14.1822 -53.9532
L14.5056 -54.3367
L14.8355 -54.7147
L15.1718 -55.087
L15.5145 -55.4534
L15.8634 -55.814
L16.2185 -56.1685
L16.5795 -56.5168
L16.9465 -56.859
L17.3193 -57.1947
L17.6978 -57.524
L18.0819 -57.8468
L18.4714 -58.1628
L18.8663 -58.4722
L19.2664 -58.7747
L19.6716 -59.0702
L20.0817 -59.3588
L20.4967 -59.6402
L20.9164 -59.9144
L21.3408 -60.1813
L21.7695 -60.4409
L22.2027 -60.693
L22.64 -60.9376
L23.0814 -61.1746
L23.5267 -61.4039
L23.9758 -61.6255
L24.4286 -61.8393
L24.8849 -62.0452
L25.3446 -62.2432
L25.8076 -62.4332
L26.2736 -62.6151
L26.7426 -62.7889
L27.2145 -62.9546
L27.689 -63.1121
L28.166 -63.2613
L28.6454 -63.4022
L29.1271 -63.5347
L29.6109 -63.6589
L30.0966 -63.7746
L30.5841 -63.8819
L31.0732 -63.9807
L31.5639 -64.0709
L32.0559 -64.1526
L32.5491 -64.2258
L33.0434 -64.2903
L33.5385 -64.3462
L34.0344 -64.3935
L34.531 -64.4321
L35.0279 -64.4621
L35.5252 -64.4834
L36.0226 -64.496
L36.5199 -64.5
L37.0172 -64.4953
L37.5141 -64.4818
L38.0106 -64.4598
L38.5064 -64.429
L39.0015 -64.3896
L39.4957 -64.3415
L39.9888 -64.2848
L40.4807 -64.2195
L40.9712 -64.1456
L41.4602 -64.0631
L41.9475 -63.9721
L42.4331 -63.8725
L42.9167 -63.7645
L43.3981 -63.648
L43.8773 -63.523
L44.3542 -63.3897
L44.8284 -63.2481
L45.3 -63.0981
L45.7688 -62.9399
L46.2345 -62.7735
L46.6972 -62.599
L47.1566 -62.4163
L47.6126 -62.2256
L48.0651 -62.0269
L48.5138 -61.8202
L48.9588 -61.6057
L49.3999 -61.3834
L49.8368 -61.1534
L50.2695 -60.9157
L50.6979 -60.6704
L51.1218 -60.4176
L51.5411 -60.1574
L51.9557 -59.8898
L52.3654 -59.615
L52.7701 -59.3329
L53.1697 -59.0437
L53.5641 -58.7475
L53.9532 -58.4444
L54.3367 -58.1345
L54.7147 -57.8178
L55.087 -57.4944
L55.4534 -57.1645
L55.814 -56.8282
L56.1685 -56.4855
L56.5168 -56.1366
L56.859 -55.7815
L57.1947 -55.4205
L57.524 -55.0535
L57.8468 -54.6807
L58.1628 -54.3022
L58.4722 -53.9181
L58.7747 -53.5286
L59.0702 -53.1337
L59.3588 -52.7336
z
" id="C0_2_c68646428f"/>
    </defs>
    <g clip-path="url(#p1bffca34e9)">
     <use style="fill:#ff0000;stroke:#000000;stroke-width:2.0;" x="0.0" xlink:href="#C0_0_a811fe30f3" y="72.0"/>
    </g>
    <g clip-path="url(#p1bffca34e9)">
     <use style="fill:#ffffff;stroke:#000000;stroke-width:2.0;" x="0.0" xlink:href="#C0_1_e18ed77144" y="72.0"/>
    </g>
    <g clip-path="url(#p1bffca34e9)">
     <use style="fill:#ffffff;stroke:#000000;stroke-width:2.0;" x="0.0" xlink:href="#C0_2_c68646428f" y="72.0"/>
    </g>
   </g>
  </g>
 </g>
 <defs>
  <clipPath id="p1bffca34e9">
   <rect height="72.0" width="72.0" x="0.0" y="0.0"/>
  </clipPath>
 </defs>
</svg>
