<?xml version="1.0" encoding="utf-8" standalone="no"?>
<!DOCTYPE svg PUBLIC "-//W3C//DTD SVG 1.1//EN"
  "http://www.w3.org/Graphics/SVG/1.1/DTD/svg11.dtd">
<!-- Created with matplotlib (http://matplotlib.org/) -->
<svg height="72pt" version="1.1" viewBox="0 0 72 72" width="72pt" xmlns="http://www.w3.org/2000/svg" xmlns:xlink="http://www.w3.org/1999/xlink">
 <defs>
  <style type="text/css">
*{stroke-linecap:butt;stroke-linejoin:round;}
  </style>
 </defs>
 <g id="figure_1">
  <g id="patch_1">
   <path d="
M0 72
L72 72
L72 0
L0 0
z
" style="fill:none;"/>
  </g>
  <g id="axes_1">
   <g id="PatchCollection_1">
    <defs>
     <path d="
M36 -7.5
C43.5583 -7.5 50.808 -10.5029 56.1525 -15.8475
C61.4971 -21.192 64.5 -28.4417 64.5 -36
C64.5 -43.5583 61.4971 -50.808 56.1525 -56.1525
C50.808 -61.4971 43.5583 -64.5 36 -64.5
C28.4417 -64.5 21.192 -61.4971 15.8475 -56.1525
C10.5029 -50.808 7.5 -43.5583 7.5 -36
C7.5 -28.4417 10.5029 -21.192 15.8475 -15.8475
C21.192 -10.5029 28.4417 -7.5 36 -7.5
z
" id="C0_0_a811fe30f3"/>
     <path d="
M51.5553 -59.6282
L51.4 -59.4383
L51.2542 -59.2378
L51.1173 -59.0277
L50.9887 -58.8086
L50.8676 -58.5812
L50.7534 -58.3462
L50.6455 -58.1042
L50.5433 -57.8559
L50.4463 -57.6018
L50.354 -57.3425
L50.2658 -57.0786
L50.1813 -56.8104
L50.1001 -56.5385
L50.0218 -56.2633
L49.9462 -55.9851
L49.8727 -55.7045
L49.8013 -55.4216
L49.7316 -55.1369
L49.6634 -54.8507
L49.5964 -54.5631
L49.5305 -54.2745
L49.4656 -53.9852
L49.4014 -53.6952
L49.3378 -53.4049
L49.2748 -53.1144
L49.2121 -52.8239
L49.1498 -52.5336
L49.0877 -52.2435
L49.0257 -51.9538
L48.9638 -51.6646
L48.902 -51.3761
L48.8401 -51.0883
L48.7781 -50.8012
L48.7161 -50.5151
L48.6539 -50.2298
L48.5915 -49.9456
L48.5289 -49.6624
L48.4661 -49.3803
L48.4031 -49.0993
L48.3399 -48.8194
L48.2763 -48.5407
L48.2125 -48.2632
L48.1484 -47.9869
L48.0839 -47.7118
L48.0192 -47.4379
L47.9541 -47.1652
L47.8888 -46.8938
L47.8231 -46.6235
L47.757 -46.3544
L47.6906 -46.0864
L47.6239 -45.8196
L47.5568 -45.554
L47.4893 -45.2894
L47.4215 -45.0259
L47.3533 -44.7635
L47.2848 -44.5022
L47.2158 -44.2418
L47.1465 -43.9824
L47.0768 -43.7239
L47.0067 -43.4664
L46.9362 -43.2097
L46.8653 -42.9539
L46.7939 -42.6988
L46.7222 -42.4445
L46.65 -42.191
L46.5774 -41.9381
L46.5044 -41.6859
L46.4309 -41.4342
L46.3569 -41.1831
L46.2824 -40.9326
L46.2075 -40.6825
L46.1321 -40.4328
L46.0562 -40.1836
L45.9798 -39.9346
L45.9028 -39.686
L45.8254 -39.4376
L45.7473 -39.1895
L45.6688 -38.9415
L45.5896 -38.6936
L45.4295 -38.4459
L45.3486 -38.1981
L45.267 -37.9504
L45.1848 -37.7025
L45.1019 -37.4546
L45.0184 -37.2066
L44.9341 -36.9583
L44.8492 -36.7098
L44.7635 -36.461
L44.6772 -36.2119
L44.59 -35.9624
L44.5021 -35.7125
L44.4134 -35.4622
L44.3239 -35.2113
L44.2336 -34.9599
L44.1424 -34.7079
L44.0504 -34.4552
L43.9575 -34.2019
L43.8638 -33.9478
L43.7691 -33.6929
L43.6735 -33.4373
L43.5769 -33.1808
L43.4794 -32.9234
L43.3809 -32.665
L43.2814 -32.4057
L43.1809 -32.1454
L43.0794 -31.884
L42.9768 -31.6215
L42.8732 -31.3579
L42.7685 -31.0932
L42.6628 -30.8272
L42.5559 -30.56
L42.448 -30.2915
L42.3389 -30.0218
L42.2287 -29.7507
L42.1174 -29.4783
L42.0049 -29.2045
L41.8914 -28.9293
L41.7767 -28.6527
L41.6608 -28.3747
L41.5439 -28.0952
L41.4259 -27.8142
L41.3067 -27.5318
L41.1865 -27.2479
L41.0653 -26.9625
L40.943 -26.6756
L40.8198 -26.3872
L40.6956 -26.0973
L40.5705 -25.806
L40.4445 -25.5132
L40.3178 -25.219
L40.1904 -24.9233
L40.0623 -24.6263
L39.9337 -24.3279
L39.8047 -24.0282
L39.6753 -23.7273
L39.5457 -23.4251
L39.4161 -23.1218
L39.2865 -22.8173
L39.1572 -22.5118
L39.0284 -22.2054
L38.9003 -21.8981
L38.7731 -21.59
L38.647 -21.2812
L38.5224 -20.9718
L38.3996 -20.6619
L38.2788 -20.3516
L38.1604 -20.0411
L38.0449 -19.7305
L37.9327 -19.4198
L37.8241 -19.1094
L37.7198 -18.7992
L37.6202 -18.4895
L37.5259 -18.1805
L37.4375 -17.8723
L37.3555 -17.565
L37.2808 -17.2589
L37.2139 -16.9542
L37.1556 -16.6511
L37.1065 -16.3497
L37.0676 -16.0504
L37.0394 -15.7532
L37.0228 -15.4585
L37.0185 -15.1665
L37.0272 -14.8775
L37.0496 -14.5916
L37.0864 -14.3092
L37.138 -14.0305
L37.2051 -13.7558
L37.288 -13.4855
L37.387 -13.2197
L37.5024 -12.9589
L37.6344 -12.7032
L37.7829 -12.453
L37.9478 -12.2087
L38.1291 -11.9704
L38.3264 -11.7386
L38.5394 -11.5135
L38.7676 -11.2954
L39.0106 -11.0845
L39.2678 -10.8812
L39.5386 -10.6857
L39.8224 -10.4983
L40.1186 -10.3191
L40.4263 -10.1483
L40.7451 -9.98626
L41.0741 -9.83301
L41.4127 -9.68874
L41.7602 -9.55358
L42.116 -9.42766
L42.4794 -9.31106
L42.8498 -9.20388
L43.2266 -9.10617
L43.6091 -9.01798
L43.9969 -8.93936
L44.3894 -8.8703
L44.877 -8.81083
L45.3483 -8.91772
L45.8167 -9.07677
L46.2822 -9.24402
L46.7445 -9.41942
L47.2036 -9.60292
L47.6592 -9.79446
L48.1113 -9.99398
L48.5597 -10.2014
L49.0043 -10.4167
L49.4449 -10.6398
L49.8814 -10.8706
L50.3137 -11.1091
L50.7416 -11.3552
L51.1651 -11.6087
L51.5839 -11.8697
L51.998 -12.1381
L52.4072 -12.4137
L52.8114 -12.6965
L53.2105 -12.9864
L53.6043 -13.2833
L53.9928 -13.5871
L54.3758 -13.8977
L54.7532 -14.2151
L55.1249 -14.5391
L55.4907 -14.8697
L55.8506 -15.2067
L56.2045 -15.55
L56.5522 -15.8996
L56.8937 -16.2552
L57.2288 -16.6169
L57.5574 -16.9845
L57.8795 -17.3579
L58.1949 -17.737
L58.5035 -18.1216
L58.8053 -18.5117
L59.1002 -18.9071
L59.388 -19.3077
L59.6687 -19.7134
L59.9421 -20.1241
L60.2083 -20.5396
L60.4671 -20.9598
L60.7184 -21.3846
L60.9623 -21.8138
L61.1985 -22.2473
L61.427 -22.6851
L61.6478 -23.1269
L61.8608 -23.5726
L62.0659 -24.0221
L62.2631 -24.4753
L62.4522 -24.932
L62.6333 -25.392
L62.8063 -25.8553
L62.9712 -26.3216
L63.1278 -26.7909
L63.2761 -27.263
L63.4162 -27.7378
L63.5478 -28.2151
L63.6711 -28.6948
L63.786 -29.1767
L63.8924 -29.6606
L63.9903 -30.1465
L64.0797 -30.6342
L64.1605 -31.1235
L64.2328 -31.6143
L64.2964 -32.1065
L64.3515 -32.5998
L64.3979 -33.0941
L64.4356 -33.5894
L64.4647 -34.0854
L64.4851 -34.5819
L64.4968 -35.0789
L64.4999 -35.5762
L64.4943 -36.0736
L64.48 -36.571
L64.457 -37.0682
L64.4253 -37.5651
L64.385 -38.0615
L64.3361 -38.5573
L64.2785 -39.0523
L64.2123 -39.5463
L64.1375 -40.0393
L64.0541 -40.5311
L63.9622 -41.0214
L63.8618 -41.5103
L63.7529 -41.9975
L63.6355 -42.4828
L63.5097 -42.9662
L63.3756 -43.4474
L63.2331 -43.9264
L63.0823 -44.403
L62.9232 -44.877
L62.756 -45.3483
L62.5806 -45.8167
L62.3971 -46.2822
L62.2055 -46.7445
L62.006 -47.2036
L61.7986 -47.6592
L61.5833 -48.1113
L61.3602 -48.5597
L61.1294 -49.0043
L60.8909 -49.4449
L60.6448 -49.8814
L60.3913 -50.3137
L60.1303 -50.7416
L59.8619 -51.1651
L59.5863 -51.5839
L59.3035 -51.998
L59.0136 -52.4072
L58.7167 -52.8114
L58.4129 -53.2105
L58.1023 -53.6043
L57.7849 -53.9928
L57.4609 -54.3758
L57.1303 -54.7532
L56.7933 -55.1249
L56.45 -55.4907
L56.1004 -55.8506
L55.7448 -56.2045
L55.3831 -56.5522
L55.0155 -56.8937
L54.6421 -57.2288
L54.263 -57.5574
L53.8784 -57.8795
L53.4883 -58.1949
L53.0929 -58.5035
L52.6923 -58.8053
L52.2866 -59.1002
z
" id="C0_1_faaf132313"/>
     <path d="
M27.2884 -63.0083
L26.9962 -62.7371
L26.7073 -62.4637
L26.4219 -62.1881
L26.1403 -61.9105
L25.8627 -61.631
L25.5892 -61.3498
L25.3201 -61.067
L25.0554 -60.7827
L24.7952 -60.4972
L24.5397 -60.2104
L24.2888 -59.9226
L24.0426 -59.6339
L23.8012 -59.3444
L23.5646 -59.0541
L23.3327 -58.7633
L23.1056 -58.4719
L22.8833 -58.1801
L22.6656 -57.888
L22.4527 -57.5957
L22.2443 -57.3032
L22.0406 -57.0105
L21.8414 -56.7179
L21.6467 -56.4252
L21.4565 -56.1326
L21.2705 -55.8401
L21.0889 -55.5478
L20.9116 -55.2556
L20.7384 -54.9637
L20.5692 -54.672
L20.4042 -54.3806
L20.243 -54.0895
L20.0858 -53.7987
L19.9324 -53.5082
L19.7827 -53.218
L19.6367 -52.9281
L19.4943 -52.6385
L19.3555 -52.3493
L19.2201 -52.0604
L19.0881 -51.7718
L18.9595 -51.4835
L18.8342 -51.1955
L18.7121 -50.9077
L18.5932 -50.6202
L18.4774 -50.3329
L18.3647 -50.0459
L18.2549 -49.759
L18.1482 -49.4722
L18.0443 -49.1856
L17.9432 -48.8991
L17.845 -48.6127
L17.7496 -48.3263
L17.6569 -48.0399
L17.5668 -47.7535
L17.4794 -47.467
L17.3946 -47.1804
L17.3124 -46.8937
L17.2328 -46.6068
L17.1556 -46.3197
L17.081 -46.0323
L17.0088 -45.7446
L16.939 -45.4566
L16.8717 -45.1682
L16.8067 -44.8794
L16.7441 -44.5901
L16.6839 -44.3003
L16.626 -44.0099
L16.5705 -43.7189
L16.5173 -43.4273
L16.4664 -43.1349
L16.4178 -42.8419
L16.3715 -42.548
L16.3274 -42.2533
L16.2857 -41.9577
L16.2463 -41.6611
L16.2092 -41.3636
L16.1744 -41.0651
L16.142 -40.7655
L16.1118 -40.4647
L16.084 -40.1628
L16.0585 -39.8597
L16.0354 -39.5553
L16.0146 -39.2495
L15.9963 -38.9425
L15.9804 -38.634
L15.9669 -38.3241
L15.9558 -38.0126
L15.9473 -37.6997
L15.9413 -37.3851
L15.9378 -37.069
L15.9369 -36.7512
L15.9386 -36.4317
L15.9429 -36.1104
L15.9499 -35.7874
L15.9596 -35.4625
L15.9721 -35.1359
L15.9873 -34.8073
L16.0054 -34.4769
L16.0263 -34.1445
L16.0502 -33.8102
L16.077 -33.4739
L16.1068 -33.1357
L16.1397 -32.7954
L16.1756 -32.4532
L16.2147 -32.1089
L16.2569 -31.7626
L16.3023 -31.4144
L16.351 -31.0641
L16.4029 -30.7118
L16.4582 -30.3576
L16.5169 -30.0014
L16.5789 -29.6433
L16.6443 -29.2834
L16.7132 -28.9216
L16.7855 -28.558
L16.8612 -28.1927
L16.9404 -27.8258
L17.0231 -27.4572
L17.1091 -27.0872
L17.1986 -26.7158
L17.2915 -26.3431
L17.3877 -25.9692
L17.4871 -25.5943
L17.5897 -25.2184
L17.6953 -24.8417
L17.8039 -24.4644
L17.9154 -24.0866
L18.0295 -23.7086
L18.146 -23.3304
L18.2648 -22.9524
L18.3856 -22.5746
L18.5082 -22.1974
L18.6321 -21.8209
L18.7572 -21.4454
L18.883 -21.0712
L19.009 -20.6985
L19.1349 -20.3276
L19.2601 -19.9588
L19.3842 -19.5923
L19.5064 -19.2284
L19.6263 -18.8675
L19.7431 -18.5099
L19.8562 -18.1558
L19.9648 -17.8056
L20.0683 -17.4595
L20.1658 -17.1179
L20.2566 -16.7811
L20.34 -16.4494
L20.4152 -16.1229
L20.4814 -15.8021
L20.538 -15.4872
L20.5844 -15.1784
L20.62 -14.876
L20.6442 -14.5802
L20.6567 -14.2911
L20.657 -14.0091
L20.6451 -13.7341
L20.6206 -13.4665
L20.5836 -13.2062
L20.534 -12.9536
L20.4719 -12.7086
L20.3976 -12.4713
L19.8825 -12.2419
L19.4748 -12.4952
L19.072 -12.78
L18.6745 -13.072
L18.2822 -13.3709
L17.8953 -13.6767
L17.5139 -13.9893
L17.1382 -14.3087
L16.7681 -14.6346
L16.404 -14.967
L16.0458 -15.3059
L15.6937 -15.651
L15.3478 -16.0024
L15.0082 -16.3598
L14.675 -16.7232
L14.3482 -17.0925
L14.0281 -17.4676
L13.7146 -17.8483
L13.408 -18.2345
L13.1082 -18.6261
L12.8154 -19.0231
L12.5297 -19.4252
L12.2511 -19.8323
L11.9797 -20.2444
L11.7157 -20.6613
L11.459 -21.0828
L11.2099 -21.5089
L10.9683 -21.9394
L10.7343 -22.3742
L10.508 -22.8132
L10.2894 -23.2561
L10.0788 -23.7029
L9.87595 -24.1535
L9.6811 -24.6077
L9.49428 -25.0654
L9.31553 -25.5264
L9.1449 -25.9906
L8.98246 -26.4578
L8.82824 -26.9279
L8.6823 -27.4008
L8.54469 -27.8764
L8.41543 -28.3544
L8.29458 -28.8347
L8.18217 -29.3172
L8.07823 -29.8017
L7.9828 -30.2882
L7.8959 -30.7763
L7.81757 -31.2661
L7.74781 -31.7573
L7.68667 -32.2498
L7.63414 -32.7434
L7.59026 -33.2381
L7.55503 -33.7336
L7.52847 -34.2297
L7.51058 -34.7264
L7.50137 -35.2235
L7.50084 -35.7208
L7.50899 -36.2182
L7.52581 -36.7156
L7.55131 -37.2127
L7.58548 -37.7095
L7.62831 -38.2057
L7.67977 -38.7013
L7.73986 -39.196
L7.80856 -39.6898
L7.88585 -40.1824
L7.9717 -40.6738
L8.06609 -41.1638
L8.16899 -41.6521
L8.28036 -42.1388
L8.40018 -42.6236
L8.52841 -43.1063
L8.665 -43.5869
L8.80992 -44.0652
L8.96313 -44.5411
L9.12457 -45.0143
L9.29419 -45.4848
L9.47195 -45.9524
L9.65779 -46.4169
L9.85166 -46.8783
L10.0535 -47.3364
L10.2632 -47.791
L10.4808 -48.2421
L10.7061 -48.6894
L10.9392 -49.1328
L11.1799 -49.5722
L11.4281 -50.0076
L11.6839 -50.4386
L11.947 -50.8652
L12.2175 -51.2873
L12.4952 -51.7048
L12.78 -52.1175
L13.072 -52.5252
L13.3709 -52.928
L13.6767 -53.3255
L13.9893 -53.7178
L14.3087 -54.1047
L14.6346 -54.4861
L14.967 -54.8618
L15.3059 -55.2319
L15.651 -55.596
L16.0024 -55.9542
L16.3598 -56.3063
L16.7232 -56.6522
L17.0925 -56.9918
L17.4676 -57.325
L17.8483 -57.6518
L18.2345 -57.9719
L18.6261 -58.2854
L19.0231 -58.592
L19.4252 -58.8918
L19.8323 -59.1846
L20.2444 -59.4703
L20.6613 -59.7489
L21.0828 -60.0203
L21.5089 -60.2843
L21.9394 -60.541
L22.3742 -60.7901
L22.8132 -61.0317
L23.2561 -61.2657
L23.7029 -61.492
L24.1535 -61.7106
L24.6077 -61.9212
L25.0654 -62.1241
L25.5264 -62.3189
L25.9906 -62.5057
L26.4578 -62.6845
z
" id="C0_2_74e0735286"/>
    </defs>
    <g clip-path="url(#p1bffca34e9)">
     <use style="fill:#ff0000;stroke:#000000;stroke-width:2.0;" x="0.0" xlink:href="#C0_0_a811fe30f3" y="72.0"/>
    </g>
    <g clip-path="url(#p1bffca34e9)">
     <use style="fill:#ffffff;stroke:#000000;stroke-width:2.0;" x="0.0" xlink:href="#C0_1_faaf132313" y="72.0"/>
    </g>
    <g clip-path="url(#p1bffca34e9)">
     <use style="fill:#ffffff;stroke:#000000;stroke-width:2.0;" x="0.0" xlink:href="#C0_2_74e0735286" y="72.0"/>
    </g>
   </g>
  </g>
 </g>
 <defs>
  <clipPath id="p1bffca34e9">
   <rect height="72.0" width="72.0" x="0.0" y="0.0"/>
  </clipPath>
 </defs>
</svg>
