<?xml version="1.0" encoding="utf-8" standalone="no"?>
<!DOCTYPE svg PUBLIC "-//W3C//DTD SVG 1.1//EN"
  "http://www.w3.org/Graphics/SVG/1.1/DTD/svg11.dtd">
<!-- Created with matplotlib (http://matplotlib.org/) -->
<svg height="72pt" version="1.1" viewBox="0 0 72 72" width="72pt" xmlns="http://www.w3.org/2000/svg" xmlns:xlink="http://www.w3.org/1999/xlink">
 <defs>
  <style type="text/css">
*{stroke-linecap:butt;stroke-linejoin:round;}
  </style>
 </defs>
 <g id="figure_1">
  <g id="patch_1">
   <path d="
M0 72
L72 72
L72 0
L0 0
z
" style="fill:none;"/>
  </g>
  <g id="axes_1">
   <g id="PatchCollection_1">
    <defs>
     <path d="
M36 -7.5
C43.5583 -7.5 50.808 -10.5029 56.1525 -15.8475
C61.4971 -21.192 64.5 -28.4417 64.5 -36
C64.5 -43.5583 61.4971 -50.808 56.1525 -56.1525
C50.808 -61.4971 43.5583 -64.5 36 -64.5
C28.4417 -64.5 21.192 -61.4971 15.8475 -56.1525
C10.5029 -50.808 7.5 -43.5583 7.5 -36
C7.5 -28.4417 10.5029 -21.192 15.8475 -15.8475
C21.192 -10.5029 28.4417 -7.5 36 -7.5
z
" id="C0_0_a811fe30f3"/>
     <path d="
M51.4574 -59.9289
L51.2592 -59.7576
L51.0474 -59.5914
L50.8233 -59.4296
L50.5882 -59.2715
L50.3435 -59.1166
L50.0901 -58.9641
L49.8293 -58.8136
L49.5621 -58.6647
L49.2892 -58.517
L49.0117 -58.37
L48.7302 -58.2234
L48.4454 -58.0771
L48.158 -57.9308
L47.8686 -57.7842
L47.5777 -57.6373
L47.2857 -57.4899
L46.9931 -57.3419
L46.7002 -57.1933
L46.4075 -57.0439
L46.1152 -56.8938
L45.8236 -56.7429
L45.5329 -56.5913
L45.2434 -56.4388
L44.9552 -56.2855
L44.6685 -56.1315
L44.3834 -55.9767
L44.1002 -55.8211
L43.8189 -55.6649
L43.5395 -55.5079
L43.2623 -55.3503
L42.9872 -55.1921
L42.7142 -55.0334
L42.4436 -54.874
L42.1752 -54.7141
L41.9091 -54.5538
L41.6453 -54.393
L41.3839 -54.2317
L41.1248 -54.0701
L40.868 -53.908
L40.6136 -53.7456
L40.3615 -53.5829
L40.1117 -53.4199
L39.8641 -53.2565
L39.6188 -53.0929
L39.3758 -52.929
L39.1349 -52.7648
L38.8961 -52.6004
L38.6595 -52.4358
L38.425 -52.2709
L38.1925 -52.1058
L37.962 -51.9404
L37.7335 -51.7749
L37.5069 -51.6091
L37.2822 -51.443
L37.0592 -51.2767
L36.8381 -51.1102
L36.6187 -50.9434
L36.401 -50.7763
L36.1849 -50.609
L35.9704 -50.4413
L35.7575 -50.2734
L35.5461 -50.1052
L35.3361 -49.9366
L35.1275 -49.7676
L34.9202 -49.5983
L34.7143 -49.4286
L34.5096 -49.2584
L34.3062 -49.0878
L34.1039 -48.9168
L33.9027 -48.7452
L33.7026 -48.5732
L33.5036 -48.4006
L33.3055 -48.2275
L33.1083 -48.0537
L32.9121 -47.8793
L32.7167 -47.7043
L32.5221 -47.5285
L32.3283 -47.3521
L32.1352 -47.1749
L31.7511 -46.9969
L31.5599 -46.8181
L31.3693 -46.6384
L31.1793 -46.4578
L30.9897 -46.2763
L30.8005 -46.0939
L30.6118 -45.9104
L30.4234 -45.7259
L30.2354 -45.5403
L30.0476 -45.3535
L29.8601 -45.1656
L29.6729 -44.9765
L29.4858 -44.7861
L29.2989 -44.5944
L29.1121 -44.4014
L28.9254 -44.207
L28.7388 -44.0112
L28.5522 -43.8139
L28.3656 -43.615
L28.1789 -43.4146
L27.9923 -43.2126
L27.8055 -43.0089
L27.6186 -42.8035
L27.4316 -42.5964
L27.2444 -42.3874
L27.057 -42.1766
L26.8694 -41.9639
L26.6816 -41.7492
L26.4936 -41.5325
L26.3052 -41.3138
L26.1166 -41.093
L25.9277 -40.87
L25.7385 -40.6449
L25.5489 -40.4175
L25.359 -40.1878
L25.1687 -39.9558
L24.9781 -39.7215
L24.7871 -39.4847
L24.5957 -39.2456
L24.404 -39.0039
L24.2119 -38.7597
L24.0193 -38.513
L23.8264 -38.2638
L23.6332 -38.0119
L23.4395 -37.7575
L23.2455 -37.5004
L23.0511 -37.2407
L22.8564 -36.9783
L22.6614 -36.7133
L22.466 -36.4458
L22.2703 -36.1756
L22.0744 -35.9028
L21.8782 -35.6275
L21.6817 -35.3497
L21.485 -35.0694
L21.2881 -34.7868
L21.091 -34.5019
L20.8937 -34.2149
L20.6963 -33.9257
L20.4988 -33.6347
L20.3011 -33.3418
L20.1033 -33.0473
L19.9053 -32.7515
L19.7073 -32.4544
L19.5091 -32.1564
L19.3108 -31.8578
L19.1123 -31.5588
L18.9135 -31.2598
L18.7145 -30.9612
L18.5151 -30.6635
L18.3152 -30.3671
L18.1148 -30.0725
L17.9136 -29.7803
L17.7116 -29.4912
L17.5085 -29.2058
L17.3041 -28.9248
L17.0981 -28.6493
L16.8903 -28.3799
L16.6803 -28.1176
L16.4678 -27.8635
L16.2524 -27.6187
L16.0337 -27.3842
L15.8113 -27.1613
L15.5848 -26.9512
L15.3538 -26.7551
L15.1179 -26.5743
L14.8768 -26.41
L14.6301 -26.2634
L14.3777 -26.1355
L14.1194 -26.0274
L13.8551 -25.94
L13.585 -25.8738
L13.3093 -25.8296
L13.0282 -25.8077
L12.7421 -25.8082
L12.4516 -25.8312
L12.1571 -25.8764
L11.8595 -25.9437
L11.5593 -26.0324
L11.2572 -26.1422
L10.9542 -26.2722
L10.6507 -26.4218
L10.3478 -26.5903
L10.0459 -26.7768
L9.74593 -26.9806
L9.44847 -27.2007
L9.15416 -27.4365
L8.8636 -27.6871
L8.53912 -27.9518
L8.41022 -28.3744
L8.28972 -28.8548
L8.17766 -29.3374
L8.07408 -29.822
L7.979 -30.3085
L7.89246 -30.7968
L7.81448 -31.2866
L7.74509 -31.7778
L7.6843 -32.2704
L7.63214 -32.7641
L7.58862 -33.2587
L7.55375 -33.7542
L7.52755 -34.2504
L7.51002 -34.7472
L7.50117 -35.2443
L7.501 -35.7416
L7.50951 -36.239
L7.5267 -36.7363
L7.55257 -37.2335
L7.5871 -37.7302
L7.63028 -38.2264
L7.68211 -38.722
L7.74256 -39.2167
L7.81162 -39.7104
L7.88926 -40.203
L7.97547 -40.6943
L8.07021 -41.1842
L8.17347 -41.6725
L8.2852 -42.1591
L8.40537 -42.6438
L8.53394 -43.1264
L8.67089 -43.6069
L8.81615 -44.0851
L8.9697 -44.5609
L9.13148 -45.034
L9.30145 -45.5044
L9.47955 -45.9718
L9.66572 -46.4363
L9.85992 -46.8975
L10.0621 -47.3555
L10.2721 -47.8099
L10.49 -48.2608
L10.7157 -48.708
L10.9491 -49.1512
L11.1901 -49.5905
L11.4386 -50.0256
L11.6947 -50.4565
L11.9581 -50.8829
L12.2289 -51.3049
L12.5069 -51.7221
L12.7921 -52.1346
L13.0843 -52.5421
L13.3835 -52.9447
L13.6896 -53.342
L14.0025 -53.7341
L14.3221 -54.1207
L14.6483 -54.5019
L14.981 -54.8774
L15.3202 -55.2472
L15.6656 -55.6111
L16.0172 -55.969
L16.3749 -56.3208
L16.7385 -56.6665
L17.1081 -57.0059
L17.4834 -57.3388
L17.8643 -57.6653
L18.2507 -57.9851
L18.6426 -58.2983
L19.0398 -58.6047
L19.4421 -58.9042
L19.8494 -59.1967
L20.2617 -59.4821
L20.6788 -59.7604
L21.1005 -60.0314
L21.5268 -60.2952
L21.9575 -60.5515
L22.3925 -60.8004
L22.8316 -61.0417
L23.2747 -61.2753
L23.7217 -61.5013
L24.1724 -61.7195
L24.6268 -61.9299
L25.0846 -62.1323
L25.5457 -62.3269
L26.01 -62.5133
L26.4774 -62.6918
L26.9476 -62.862
L27.4206 -63.0241
L27.8963 -63.178
L28.3744 -63.3236
L28.8548 -63.4609
L29.3374 -63.5898
L29.822 -63.7103
L30.3085 -63.8223
L30.7968 -63.9259
L31.2866 -64.021
L31.7778 -64.1075
L32.2704 -64.1855
L32.7641 -64.2549
L33.2587 -64.3157
L33.7542 -64.3679
L34.2504 -64.4114
L34.7472 -64.4462
L35.2443 -64.4724
L35.7416 -64.49
L36.239 -64.4988
L36.7363 -64.499
L37.2335 -64.4905
L37.7302 -64.4733
L38.2264 -64.4474
L38.722 -64.4129
L39.2167 -64.3697
L39.7104 -64.3179
L40.203 -64.2574
L40.6943 -64.1884
L41.1842 -64.1107
L41.6725 -64.0245
L42.1591 -63.9298
L42.6438 -63.8265
L43.1264 -63.7148
L43.6069 -63.5946
L44.0851 -63.4661
L44.5609 -63.3291
L45.034 -63.1838
L45.5044 -63.0303
L45.9718 -62.8685
L46.4363 -62.6986
L46.8975 -62.5205
L47.3555 -62.3343
L47.8099 -62.1401
L48.2608 -61.9379
L48.708 -61.7279
L49.1512 -61.51
L49.5905 -61.2843
L50.0256 -61.0509
L50.4565 -60.8099
L50.8829 -60.5614
z
" id="C0_1_1d50b84712"/>
     <path d="
M63.4183 -43.769
L63.3243 -43.3771
L63.2272 -42.9839
L63.1269 -42.5902
L63.023 -42.1967
L62.9157 -41.8039
L62.8047 -41.4123
L62.69 -41.0225
L62.5716 -40.6348
L62.4496 -40.2497
L62.3239 -39.8674
L62.1946 -39.4883
L62.0618 -39.1125
L61.9256 -38.7404
L61.7861 -38.372
L61.6433 -38.0077
L61.4974 -37.6474
L61.3484 -37.2914
L61.1966 -36.9397
L61.0419 -36.5923
L60.8846 -36.2494
L60.7246 -35.9109
L60.5623 -35.577
L60.3975 -35.2475
L60.2305 -34.9226
L60.0614 -34.6022
L59.8902 -34.2862
L59.7171 -33.9747
L59.5421 -33.6676
L59.3654 -33.3648
L59.1869 -33.0664
L59.0069 -32.7723
L58.8253 -32.4824
L58.6423 -32.1966
L58.4578 -31.9149
L58.272 -31.6373
L58.0849 -31.3636
L57.8966 -31.0938
L57.7071 -30.8279
L57.5165 -30.5657
L57.3247 -30.3071
L57.1319 -30.0522
L56.9381 -29.8008
L56.7432 -29.5528
L56.5474 -29.3082
L56.3506 -29.0669
L56.1528 -28.8289
L55.9541 -28.594
L55.7545 -28.3622
L55.554 -28.1334
L55.3526 -27.9076
L55.1503 -27.6846
L54.9471 -27.4645
L54.7429 -27.2471
L54.5379 -27.0324
L54.3319 -26.8203
L54.1251 -26.6107
L53.9172 -26.4036
L53.7085 -26.199
L53.4987 -25.9967
L53.288 -25.7968
L53.0763 -25.5991
L52.8635 -25.4036
L52.6497 -25.2103
L52.4348 -25.019
L52.2189 -24.8298
L52.0017 -24.6427
L51.7835 -24.4574
L51.564 -24.2741
L51.3433 -24.0927
L51.1213 -23.913
L50.898 -23.7352
L50.6735 -23.5591
L50.4475 -23.3847
L50.2201 -23.212
L49.9912 -23.0409
L49.7609 -22.8715
L49.529 -22.7036
L49.2955 -22.5372
L49.0604 -22.3724
L48.8236 -22.2091
L48.585 -22.0472
L48.3447 -21.8868
L48.1025 -21.7278
L47.8585 -21.5702
L47.6124 -21.414
L47.3644 -21.2592
L47.1144 -21.1058
L46.8622 -20.9537
L46.6079 -20.8029
L46.3513 -20.6535
L46.0925 -20.5054
L45.8313 -20.3587
L45.5677 -20.2132
L45.3017 -20.0691
L45.0331 -19.9263
L44.7619 -19.7849
L44.4881 -19.6448
L44.2116 -19.506
L43.9323 -19.3686
L43.6502 -19.2326
L43.3651 -19.098
L43.0772 -18.9648
L42.7862 -18.833
L42.4921 -18.7027
L42.1949 -18.5739
L41.8945 -18.4466
L41.5908 -18.3208
L41.2838 -18.1966
L40.9735 -18.0741
L40.6598 -17.9532
L40.3426 -17.834
L40.022 -17.7165
L39.6978 -17.6008
L39.37 -17.487
L39.0386 -17.3751
L38.7036 -17.2651
L38.3649 -17.1571
L38.0225 -17.0511
L37.6765 -16.9473
L37.3268 -16.8456
L36.9734 -16.7462
L36.6163 -16.6491
L36.2556 -16.5543
L35.8913 -16.4619
L35.5235 -16.372
L35.1522 -16.2846
L34.7774 -16.1997
L34.3993 -16.1175
L34.018 -16.0379
L33.6336 -15.961
L33.2462 -15.8867
L32.856 -15.8152
L32.4631 -15.7464
L32.0679 -15.6803
L31.6705 -15.6169
L31.2711 -15.5561
L30.8702 -15.4979
L30.4679 -15.442
L30.0646 -15.3886
L29.6607 -15.3372
L29.2567 -15.2879
L28.853 -15.2403
L28.4501 -15.1941
L28.0485 -15.1491
L27.6489 -15.1048
L27.2519 -15.0608
L26.8582 -15.0167
L26.4685 -14.9718
L26.0836 -14.9255
L25.7043 -14.8772
L25.3315 -14.8261
L24.9662 -14.7714
L24.6092 -14.7122
L24.2615 -14.6477
L23.9242 -14.5768
L23.5981 -14.4987
L23.2843 -14.4124
L22.9836 -14.3171
L22.6969 -14.2119
L22.425 -14.096
L22.1687 -13.9689
L21.9284 -13.8301
L21.7046 -13.6792
L21.4978 -13.5161
L21.3081 -13.3408
L21.1357 -13.1533
L20.9805 -12.9541
L20.8424 -12.7435
L20.7213 -12.5222
L20.9072 -12.2906
L21.3314 -11.8244
L21.7601 -11.5647
L22.1932 -11.3124
L22.6304 -11.0677
L23.0717 -10.8305
L23.5169 -10.601
L23.966 -10.3792
L24.4187 -10.1653
L24.8749 -9.9592
L25.3346 -9.76104
L25.7974 -9.57088
L26.2634 -9.38877
L26.7324 -9.21476
L27.2041 -9.04891
L27.6786 -8.89127
L28.1556 -8.74189
L28.635 -8.60082
L29.1166 -8.46809
L29.6003 -8.34374
L30.086 -8.22782
L30.5734 -8.12036
L31.0626 -8.02139
L31.5532 -7.93095
L32.0452 -7.84905
L32.5383 -7.77573
L33.0326 -7.71101
L33.5277 -7.6549
L34.0236 -7.60743
L34.5201 -7.56861
L35.0171 -7.53845
L35.5143 -7.51696
L36.0117 -7.50414
L36.5091 -7.5
L37.0063 -7.50455
L37.5033 -7.51777
L37.9997 -7.53967
L38.4956 -7.57024
L38.9907 -7.60947
L39.4849 -7.65735
L39.978 -7.71386
L40.4699 -7.77899
L40.9605 -7.85272
L41.4495 -7.93501
L41.9369 -8.02586
L42.4225 -8.12523
L42.9061 -8.23309
L43.3876 -8.34941
L43.8669 -8.47415
L44.3438 -8.60727
L44.8181 -8.74874
L45.2898 -8.89851
L45.7586 -9.05653
L46.2244 -9.22277
L46.6871 -9.39715
L47.1466 -9.57965
L47.6027 -9.77019
L48.0552 -9.96872
L48.5041 -10.1752
L48.9492 -10.3895
L49.3903 -10.6116
L49.8273 -10.8415
L50.2601 -11.079
L50.6886 -11.3241
L51.1126 -11.5768
L51.532 -11.8368
L51.9467 -12.1043
L52.3565 -12.379
L52.7613 -12.6609
L53.1611 -12.9499
L53.5556 -13.2459
L53.9447 -13.5489
L54.3284 -13.8587
L54.7065 -14.1753
L55.0789 -14.4985
L55.4455 -14.8282
L55.8062 -15.1644
L56.1608 -15.5069
L56.5093 -15.8557
L56.8516 -16.2107
L57.1875 -16.5716
L57.5169 -16.9385
L57.8398 -17.3112
L58.156 -17.6895
L58.4655 -18.0735
L58.7682 -18.4629
L59.0639 -18.8576
L59.3525 -19.2576
L59.6341 -19.6627
L59.9085 -20.0727
L60.1756 -20.4876
L60.4353 -20.9072
L60.6876 -21.3314
L60.9323 -21.7601
L61.1695 -22.1932
L61.399 -22.6304
L61.6208 -23.0717
L61.8347 -23.5169
L62.0408 -23.966
L62.239 -24.4187
L62.4291 -24.8749
L62.6112 -25.3346
L62.7852 -25.7974
L62.9511 -26.2634
L63.1087 -26.7324
L63.2581 -27.2041
L63.3992 -27.6786
L63.5319 -28.1556
L63.6563 -28.635
L63.7722 -29.1166
L63.8796 -29.6003
L63.9786 -30.086
L64.0691 -30.5734
L64.1509 -31.0626
L64.2243 -31.5532
L64.289 -32.0452
L64.3451 -32.5383
L64.3926 -33.0326
L64.4314 -33.5277
L64.4616 -34.0236
L64.483 -34.5201
L64.4959 -35.0171
L64.5 -35.5143
L64.4955 -36.0117
L64.4822 -36.5091
L64.4603 -37.0063
L64.4298 -37.5033
L64.3905 -37.9997
L64.3426 -38.4956
L64.2861 -38.9907
L64.221 -39.4849
L64.1473 -39.978
L64.065 -40.4699
L63.9741 -40.9605
L63.8748 -41.4495
L63.7669 -41.9369
L63.6506 -42.4225
z
" id="C0_2_1db360a889"/>
    </defs>
    <g clip-path="url(#p1bffca34e9)">
     <use style="fill:#ffffff;stroke:#000000;stroke-width:2.0;" x="0.0" xlink:href="#C0_0_a811fe30f3" y="72.0"/>
    </g>
    <g clip-path="url(#p1bffca34e9)">
     <use style="fill:#ff0000;stroke:#000000;stroke-width:2.0;" x="0.0" xlink:href="#C0_1_1d50b84712" y="72.0"/>
    </g>
    <g clip-path="url(#p1bffca34e9)">
     <use style="fill:#ff0000;stroke:#000000;stroke-width:2.0;" x="0.0" xlink:href="#C0_2_1db360a889" y="72.0"/>
    </g>
   </g>
  </g>
 </g>
 <defs>
  <clipPath id="p1bffca34e9">
   <rect height="72.0" width="72.0" x="0.0" y="0.0"/>
  </clipPath>
 </defs>
</svg>
