<?xml version="1.0" encoding="utf-8" standalone="no"?>
<!DOCTYPE svg PUBLIC "-//W3C//DTD SVG 1.1//EN"
  "http://www.w3.org/Graphics/SVG/1.1/DTD/svg11.dtd">
<!-- Created with matplotlib (http://matplotlib.org/) -->
<svg height="72pt" version="1.1" viewBox="0 0 72 72" width="72pt" xmlns="http://www.w3.org/2000/svg" xmlns:xlink="http://www.w3.org/1999/xlink">
 <defs>
  <style type="text/css">
*{stroke-linecap:butt;stroke-linejoin:round;}
  </style>
 </defs>
 <g id="figure_1">
  <g id="patch_1">
   <path d="
M0 72
L72 72
L72 0
L0 0
z
" style="fill:none;"/>
  </g>
  <g id="axes_1">
   <g id="PatchCollection_1">
    <defs>
     <path d="
M36 -7.5
C43.5583 -7.5 50.808 -10.5029 56.1525 -15.8475
C61.4971 -21.192 64.5 -28.4417 64.5 -36
C64.5 -43.5583 61.4971 -50.808 56.1525 -56.1525
C50.808 -61.4971 43.5583 -64.5 36 -64.5
C28.4417 -64.5 21.192 -61.4971 15.8475 -56.1525
C10.5029 -50.808 7.5 -43.5583 7.5 -36
C7.5 -28.4417 10.5029 -21.192 15.8475 -15.8475
C21.192 -10.5029 28.4417 -7.5 36 -7.5
z
" id="C0_0_a811fe30f3"/>
     <path d="
M55.7468 -15.6943
L55.8455 -16.0538
L55.9216 -16.4046
L55.9751 -16.746
L56.0057 -17.0768
L56.0134 -17.3966
L55.9984 -17.7046
L55.9611 -18.0004
L55.9018 -18.2839
L55.8212 -18.5549
L55.7201 -18.8136
L55.5994 -19.0602
L55.46 -19.2951
L55.303 -19.5188
L55.1296 -19.7319
L54.9409 -19.9351
L54.7381 -20.1291
L54.5223 -20.3147
L54.2946 -20.4924
L54.0562 -20.6631
L53.808 -20.8274
L53.5511 -20.986
L53.2865 -21.1395
L53.0149 -21.2884
L52.7372 -21.4333
L52.4542 -21.5745
L52.1665 -21.7126
L51.8748 -21.848
L51.5797 -21.9808
L51.2818 -22.1115
L50.9815 -22.2403
L50.6792 -22.3675
L50.3756 -22.4932
L50.0708 -22.6176
L49.7652 -22.741
L49.4592 -22.8633
L49.1531 -22.9848
L48.8471 -23.1055
L48.5414 -23.2256
L48.2363 -23.345
L47.9319 -23.4639
L47.6285 -23.5823
L47.3261 -23.7003
L47.0249 -23.8179
L46.725 -23.9351
L46.4266 -24.052
L46.1296 -24.1686
L45.8343 -24.2849
L45.5406 -24.4009
L45.2487 -24.5167
L44.9585 -24.6322
L44.6702 -24.7475
L44.3837 -24.8626
L44.099 -24.9774
L43.8162 -25.0921
L43.5353 -25.2065
L43.2563 -25.3208
L42.9792 -25.4349
L42.704 -25.5488
L42.4307 -25.6625
L42.1592 -25.7761
L41.8896 -25.8895
L41.6218 -26.0028
L41.3558 -26.1159
L41.0915 -26.2289
L40.829 -26.3418
L40.5682 -26.4546
L40.3091 -26.5672
L40.0516 -26.6798
L39.7957 -26.7923
L39.5414 -26.9048
L39.2885 -27.0172
L39.0372 -27.1295
L38.7873 -27.2419
L38.5387 -27.3542
L38.2915 -27.4665
L38.0456 -27.5789
L37.801 -27.6913
L37.5575 -27.8037
L37.3152 -27.9162
L37.0741 -28.0288
L36.8339 -28.1415
L36.5948 -28.2543
L36.3567 -28.3672
L36.1194 -28.4803
L35.883 -28.5936
L35.6475 -28.707
L35.4127 -28.8207
L35.1786 -28.9346
L34.9452 -29.0488
L34.7124 -29.1632
L34.4802 -29.278
L34.2485 -29.3931
L34.0172 -29.5085
L33.7864 -29.6243
L33.556 -29.7405
L33.0961 -29.8571
L32.8665 -29.9741
L32.637 -30.0916
L32.4078 -30.2096
L32.1786 -30.3281
L31.9494 -30.4471
L31.7202 -30.5667
L31.491 -30.6869
L31.2617 -30.8077
L31.0322 -30.9291
L30.8026 -31.0512
L30.5726 -31.174
L30.3424 -31.2976
L30.1119 -31.4219
L29.881 -31.5469
L29.6497 -31.6728
L29.4179 -31.7995
L29.1856 -31.9271
L28.9528 -32.0556
L28.7193 -32.185
L28.4852 -32.3153
L28.2505 -32.4466
L28.015 -32.579
L27.7788 -32.7124
L27.5417 -32.8468
L27.3039 -32.9823
L27.0651 -33.119
L26.8255 -33.2568
L26.5849 -33.3958
L26.3433 -33.5359
L26.1007 -33.6774
L25.8571 -33.82
L25.6123 -33.964
L25.3665 -34.1092
L25.1196 -34.2558
L24.8715 -34.4037
L24.6222 -34.553
L24.3717 -34.7037
L24.1199 -34.8558
L23.867 -35.0092
L23.6127 -35.1641
L23.3572 -35.3205
L23.1005 -35.4782
L22.8424 -35.6374
L22.583 -35.798
L22.3224 -35.9601
L22.0605 -36.1235
L21.7972 -36.2884
L21.5327 -36.4546
L21.267 -36.6222
L21 -36.791
L20.7318 -36.9611
L20.4624 -37.1325
L20.1918 -37.3049
L19.9201 -37.4784
L19.6472 -37.6529
L19.3734 -37.8283
L19.0985 -38.0044
L18.8227 -38.1811
L18.5459 -38.3583
L18.2684 -38.5358
L17.99 -38.7134
L17.711 -38.8909
L17.4313 -39.0681
L17.151 -39.2447
L16.8703 -39.4204
L16.5891 -39.5948
L16.3076 -39.7676
L16.0259 -39.9384
L15.744 -40.1067
L15.462 -40.272
L15.18 -40.4337
L14.8981 -40.5913
L14.6163 -40.7441
L14.3348 -40.8913
L14.0535 -41.0321
L13.7726 -41.1656
L13.4921 -41.2909
L13.2121 -41.4069
L12.9326 -41.5126
L12.6538 -41.6068
L12.3756 -41.6882
L12.0982 -41.7555
L11.8216 -41.8074
L11.546 -41.8427
L11.2715 -41.8598
L10.9983 -41.8575
L10.7266 -41.8346
L10.4567 -41.7898
L10.1888 -41.7223
L9.92336 -41.631
L9.66077 -41.5154
L9.4015 -41.375
L9.14604 -41.2095
L8.89497 -41.0189
L8.64885 -40.8035
L8.40829 -40.5636
L8.1739 -40.2999
L7.9463 -40.0132
L7.72607 -39.7044
L7.6462 -39.3745
L7.6002 -38.8831
L7.56286 -38.3878
L7.53417 -37.8918
L7.51416 -37.3952
L7.50282 -36.8982
L7.50016 -36.4009
L7.50619 -35.9035
L7.52089 -35.4061
L7.54427 -34.9089
L7.57632 -34.4121
L7.61702 -33.9157
L7.66637 -33.42
L7.72436 -32.925
L7.79095 -32.431
L7.86614 -31.938
L7.9499 -31.4463
L8.0422 -30.956
L8.14301 -30.4673
L8.25232 -29.9802
L8.37007 -29.4949
L8.49625 -29.0116
L8.6308 -28.5305
L8.77368 -28.0516
L8.92486 -27.5752
L9.08429 -27.1013
L9.25192 -26.6301
L9.42769 -26.1618
L9.61156 -25.6965
L9.80346 -25.2343
L10.0033 -24.7754
L10.2112 -24.3199
L10.4268 -23.868
L10.6503 -23.4198
L10.8814 -22.9754
L11.1203 -22.5349
L11.3667 -22.0986
L11.6206 -21.6665
L11.8819 -21.2388
L12.1506 -20.8156
L12.4265 -20.397
L12.7096 -19.9831
L12.9999 -19.5741
L13.2971 -19.1702
L13.6012 -18.7713
L13.9122 -18.3777
L14.2299 -17.9895
L14.5542 -17.6067
L14.8851 -17.2296
L15.2223 -16.8582
L15.566 -16.4926
L15.9158 -16.1329
L16.2718 -15.7793
L16.6337 -15.4319
L17.0016 -15.0907
L17.3752 -14.7559
L17.7546 -14.4276
L18.1395 -14.1058
L18.5298 -13.7907
L18.9254 -13.4824
L19.3263 -13.1809
L19.7322 -12.8864
L20.1431 -12.599
L20.5588 -12.3186
L20.9792 -12.0455
L21.4042 -11.7796
L21.8336 -11.5212
L22.2674 -11.2702
L22.7053 -11.0267
L23.1473 -10.7908
L23.5932 -10.5627
L24.0429 -10.3422
L24.4962 -10.1296
L24.953 -9.92486
L25.4132 -9.72806
L25.8767 -9.53927
L26.3432 -9.35853
L26.8126 -9.18591
L27.2848 -9.02146
L27.7597 -8.86523
L28.2371 -8.71726
L28.7169 -8.5776
L29.1989 -8.4463
L29.6829 -8.32339
L30.1689 -8.20891
L30.6567 -8.10289
L31.1461 -8.00537
L31.6369 -7.91638
L32.1291 -7.83595
L32.6225 -7.76409
L33.1169 -7.70084
L33.6122 -7.6462
L34.1082 -7.6002
L34.6048 -7.56286
L35.1018 -7.53417
L35.5991 -7.51416
L36.0965 -7.50282
L36.5939 -7.50016
L37.0911 -7.50619
L37.5879 -7.52089
L38.0843 -7.54427
L38.58 -7.57632
L39.075 -7.61702
L39.569 -7.66637
L40.062 -7.72436
L40.5537 -7.79095
L41.044 -7.86614
L41.5327 -7.9499
L42.0198 -8.0422
L42.5051 -8.14301
L42.9884 -8.25232
L43.4695 -8.37007
L43.9484 -8.49625
L44.4248 -8.6308
L44.8987 -8.77368
L45.3699 -8.92486
L45.8382 -9.08429
L46.3035 -9.25192
L46.7657 -9.42769
L47.2246 -9.61156
L47.6801 -9.80346
L48.132 -10.0033
L48.5802 -10.2112
L49.0246 -10.4268
L49.4651 -10.6503
L49.9014 -10.8814
L50.3335 -11.1203
L50.7612 -11.3667
L51.1844 -11.6206
L51.603 -11.8819
L52.0169 -12.1506
L52.4259 -12.4265
L52.8298 -12.7096
L53.2287 -12.9999
L53.6223 -13.2971
L54.0105 -13.6012
L54.3933 -13.9122
L54.7704 -14.2299
L55.1418 -14.5542
L55.5074 -14.8851
z
" id="C0_1_80704d9e5e"/>
     <path d="
M64.1944 -33.0064
L64.0639 -33.402
L63.9322 -33.8052
L63.7988 -34.2147
L63.6631 -34.6293
L63.5248 -35.048
L63.3836 -35.4697
L63.239 -35.8935
L63.0909 -36.3185
L62.9392 -36.7438
L62.7835 -37.1689
L62.624 -37.5929
L62.4604 -38.0152
L62.2927 -38.4354
L62.1211 -38.8529
L61.9455 -39.2672
L61.7659 -39.6781
L61.5825 -40.085
L61.3954 -40.4878
L61.2045 -40.8861
L61.0102 -41.2798
L60.8124 -41.6685
L60.6113 -42.0523
L60.407 -42.4308
L60.1997 -42.804
L59.9896 -43.1718
L59.7766 -43.5341
L59.5611 -43.8909
L59.3431 -44.2421
L59.1227 -44.5877
L58.9 -44.9277
L58.6753 -45.2622
L58.4486 -45.591
L58.22 -45.9143
L57.9896 -46.2321
L57.7576 -46.5445
L57.524 -46.8514
L57.2889 -47.153
L57.0524 -47.4493
L56.8146 -47.7403
L56.5756 -48.0262
L56.3354 -48.307
L56.0941 -48.5828
L55.8517 -48.8537
L55.6084 -49.1198
L55.3642 -49.3811
L55.119 -49.6377
L54.873 -49.8897
L54.6262 -50.1372
L54.3787 -50.3803
L54.1303 -50.619
L53.8813 -50.8535
L53.6315 -51.0838
L53.381 -51.31
L53.1299 -51.5322
L52.878 -51.7504
L52.6255 -51.9648
L52.3724 -52.1754
L52.1186 -52.3823
L51.8641 -52.5856
L51.6089 -52.7853
L51.3531 -52.9815
L51.0965 -53.1742
L50.8392 -53.3636
L50.5812 -53.5497
L50.3225 -53.7326
L50.063 -53.9123
L49.8027 -54.0888
L49.5416 -54.2623
L49.2797 -54.4328
L49.0168 -54.6003
L48.7531 -54.7649
L48.4884 -54.9266
L48.2228 -55.0854
L47.9562 -55.2415
L47.6885 -55.3949
L47.4197 -55.5455
L47.1499 -55.6935
L46.8788 -55.8388
L46.6066 -55.9814
L46.3331 -56.1215
L46.0583 -56.2591
L45.7822 -56.3941
L45.5046 -56.5265
L45.2257 -56.6565
L44.9452 -56.784
L44.6632 -56.909
L44.3796 -57.0315
L44.0944 -57.1516
L43.8075 -57.2692
L43.5188 -57.3844
L43.2283 -57.4971
L42.9359 -57.6074
L42.6416 -57.7152
L42.3453 -57.8205
L42.047 -57.9233
L41.7465 -58.0237
L41.4439 -58.1215
L41.1391 -58.2168
L40.832 -58.3096
L40.5226 -58.3997
L40.2107 -58.4873
L39.8964 -58.5722
L39.5796 -58.6544
L39.2602 -58.7339
L38.9381 -58.8106
L38.6133 -58.8846
L38.2858 -58.9556
L37.9554 -59.0238
L37.6222 -59.0889
L37.286 -59.1511
L36.9468 -59.2102
L36.6046 -59.2661
L36.2593 -59.3187
L35.9109 -59.3681
L35.5592 -59.4141
L35.2043 -59.4566
L34.8462 -59.4956
L34.4848 -59.5309
L34.12 -59.5625
L33.7518 -59.5903
L33.3802 -59.6142
L33.0053 -59.6341
L32.6269 -59.6498
L32.245 -59.6614
L31.8598 -59.6686
L31.4711 -59.6713
L31.079 -59.6696
L30.6835 -59.6632
L30.2847 -59.652
L29.8826 -59.636
L29.4772 -59.615
L29.0687 -59.589
L28.6571 -59.5578
L28.2424 -59.5214
L27.8248 -59.4796
L27.4045 -59.4325
L26.9815 -59.3798
L26.556 -59.3217
L26.1282 -59.258
L25.6983 -59.1887
L25.2665 -59.1139
L24.833 -59.0335
L24.3981 -58.9476
L23.962 -58.8562
L23.525 -58.7596
L23.0876 -58.6577
L22.6499 -58.5509
L22.2125 -58.4393
L21.7756 -58.3233
L21.3398 -58.2031
L20.9055 -58.0793
L20.4731 -57.9522
L20.0431 -57.8224
L19.6162 -57.6905
L19.1929 -57.5574
L18.7737 -57.4236
L18.3593 -57.2902
L17.9502 -57.1581
L17.5472 -57.0283
L17.1509 -56.9021
L16.762 -56.7806
L16.7412 -56.6652
L17.1107 -57.0083
L17.4861 -57.3412
L17.867 -57.6676
L18.2535 -57.9874
L18.6454 -58.3005
L19.0426 -58.6068
L19.445 -58.9063
L19.8524 -59.1987
L20.2647 -59.4841
L20.6818 -59.7624
L21.1036 -60.0334
L21.5299 -60.297
L21.9606 -60.5533
L22.3956 -60.8021
L22.8347 -61.0434
L23.2779 -61.277
L23.7249 -61.5029
L24.1757 -61.721
L24.63 -61.9313
L25.0878 -62.1338
L25.549 -62.3282
L26.0133 -62.5146
L26.4807 -62.693
L26.951 -62.8632
L27.424 -63.0253
L27.8997 -63.1791
L28.3778 -63.3246
L28.8582 -63.4618
L29.3408 -63.5907
L29.8255 -63.7111
L30.312 -63.8231
L30.8002 -63.9266
L31.2901 -64.0216
L31.7814 -64.1081
L32.2739 -64.186
L32.7676 -64.2554
L33.2623 -64.3161
L33.7578 -64.3682
L34.254 -64.4117
L34.7507 -64.4465
L35.2478 -64.4726
L35.7452 -64.4901
L36.2426 -64.4989
L36.7399 -64.499
L37.237 -64.4904
L37.7338 -64.4731
L38.23 -64.4472
L38.7255 -64.4126
L39.2202 -64.3694
L39.7139 -64.3175
L40.2065 -64.257
L40.6978 -64.1879
L41.1877 -64.1102
L41.676 -64.0239
L42.1625 -63.9291
L42.6472 -63.8258
L43.1299 -63.714
L43.6104 -63.5937
L44.0885 -63.4651
L44.5643 -63.3281
L45.0374 -63.1828
L45.5077 -63.0292
L45.9752 -62.8673
L46.4396 -62.6973
L46.9008 -62.5192
L47.3587 -62.3329
L47.8132 -62.1387
L48.264 -61.9364
L48.7111 -61.7263
L49.1544 -61.5084
L49.5936 -61.2826
L50.0287 -61.0492
L50.4596 -60.8082
L50.886 -60.5595
L51.3079 -60.3035
L51.7251 -60.04
L52.1375 -59.7691
L52.545 -59.4911
L52.9475 -59.2059
L53.3448 -58.9136
L53.7369 -58.6143
L54.1235 -58.3082
L54.5046 -57.9952
L54.8801 -57.6756
L55.2498 -57.3493
L55.6136 -57.0166
L55.9715 -56.6774
L56.3233 -56.3319
L56.6689 -55.9803
L57.0083 -55.6226
L57.3412 -55.2588
L57.6676 -54.8893
L57.9874 -54.5139
L58.3005 -54.133
L58.6068 -53.7465
L58.9063 -53.3546
L59.1987 -52.9574
L59.4841 -52.555
L59.7624 -52.1476
L60.0334 -51.7353
L60.297 -51.3182
L60.5533 -50.8964
L60.8021 -50.4701
L61.0434 -50.0394
L61.277 -49.6044
L61.5029 -49.1653
L61.721 -48.7221
L61.9313 -48.2751
L62.1338 -47.8243
L62.3282 -47.37
L62.5146 -46.9122
L62.693 -46.451
L62.8632 -45.9867
L63.0253 -45.5193
L63.1791 -45.049
L63.3246 -44.576
L63.4618 -44.1003
L63.5907 -43.6222
L63.7111 -43.1418
L63.8231 -42.6592
L63.9266 -42.1745
L64.0216 -41.688
L64.1081 -41.1998
L64.186 -40.7099
L64.2554 -40.2186
L64.3161 -39.7261
L64.3682 -39.2324
L64.4117 -38.7377
L64.4465 -38.2422
L64.4726 -37.746
L64.4901 -37.2493
L64.4989 -36.7522
L64.499 -36.2548
L64.4904 -35.7574
L64.4731 -35.2601
L64.4472 -34.763
L64.4126 -34.2662
z
" id="C0_2_0d2a55113c"/>
    </defs>
    <g clip-path="url(#p1bffca34e9)">
     <use style="fill:#ff0000;stroke:#000000;stroke-width:2.0;" x="0.0" xlink:href="#C0_0_a811fe30f3" y="72.0"/>
    </g>
    <g clip-path="url(#p1bffca34e9)">
     <use style="fill:#ffffff;stroke:#000000;stroke-width:2.0;" x="0.0" xlink:href="#C0_1_80704d9e5e" y="72.0"/>
    </g>
    <g clip-path="url(#p1bffca34e9)">
     <use style="fill:#ffffff;stroke:#000000;stroke-width:2.0;" x="0.0" xlink:href="#C0_2_0d2a55113c" y="72.0"/>
    </g>
   </g>
  </g>
 </g>
 <defs>
  <clipPath id="p1bffca34e9">
   <rect height="72.0" width="72.0" x="0.0" y="0.0"/>
  </clipPath>
 </defs>
</svg>
