<?xml version="1.0" encoding="utf-8" standalone="no"?>
<!DOCTYPE svg PUBLIC "-//W3C//DTD SVG 1.1//EN"
  "http://www.w3.org/Graphics/SVG/1.1/DTD/svg11.dtd">
<!-- Created with matplotlib (http://matplotlib.org/) -->
<svg height="72pt" version="1.1" viewBox="0 0 72 72" width="72pt" xmlns="http://www.w3.org/2000/svg" xmlns:xlink="http://www.w3.org/1999/xlink">
 <defs>
  <style type="text/css">
*{stroke-linecap:butt;stroke-linejoin:round;}
  </style>
 </defs>
 <g id="figure_1">
  <g id="patch_1">
   <path d="
M0 72
L72 72
L72 0
L0 0
z
" style="fill:none;"/>
  </g>
  <g id="axes_1">
   <g id="PatchCollection_1">
    <defs>
     <path d="
M36 -7.5
C43.5583 -7.5 50.808 -10.5029 56.1525 -15.8475
C61.4971 -21.192 64.5 -28.4417 64.5 -36
C64.5 -43.5583 61.4971 -50.808 56.1525 -56.1525
C50.808 -61.4971 43.5583 -64.5 36 -64.5
C28.4417 -64.5 21.192 -61.4971 15.8475 -56.1525
C10.5029 -50.808 7.5 -43.5583 7.5 -36
C7.5 -28.4417 10.5029 -21.192 15.8475 -15.8475
C21.192 -10.5029 28.4417 -7.5 36 -7.5
z
" id="C0_0_a811fe30f3"/>
     <path d="
M27.6036 -27.0717
L27.8582 -26.9719
L28.1137 -26.8742
L28.3703 -26.7787
L28.6278 -26.6853
L28.8863 -26.5941
L29.146 -26.5051
L29.4066 -26.4181
L29.6684 -26.3334
L29.9312 -26.2507
L30.1952 -26.1702
L30.4604 -26.0918
L30.7267 -26.0157
L30.9942 -25.9416
L31.263 -25.8698
L31.5329 -25.8001
L31.8041 -25.7327
L32.0766 -25.6674
L32.3504 -25.6044
L32.6256 -25.5437
L32.902 -25.4853
L33.1798 -25.4292
L33.459 -25.3754
L33.7395 -25.3241
L34.0215 -25.2751
L34.3049 -25.2286
L34.5897 -25.1846
L34.8759 -25.1431
L35.1636 -25.1042
L35.4527 -25.0679
L35.7433 -25.0342
L36.0354 -25.0033
L36.3289 -24.9752
L36.6239 -24.95
L36.9204 -24.9276
L37.2183 -24.9082
L37.5176 -24.8918
L37.8183 -24.8785
L38.1205 -24.8684
L38.424 -24.8616
L38.7289 -24.8581
L39.0351 -24.858
L39.3426 -24.8614
L39.6514 -24.8684
L39.9614 -24.8791
L40.2725 -24.8936
L40.5847 -24.912
L40.898 -24.9343
L41.2122 -24.9608
L41.5273 -24.9914
L41.8433 -25.0264
L42.1599 -25.0658
L42.4772 -25.1097
L42.795 -25.1584
L43.1132 -25.2118
L43.4317 -25.2701
L43.7503 -25.3335
L44.069 -25.402
L44.3875 -25.4759
L44.7057 -25.5552
L45.0234 -25.6401
L45.3405 -25.7307
L45.6567 -25.8272
L45.9719 -25.9296
L46.2858 -26.0382
L46.5983 -26.153
L46.909 -26.2743
L47.2179 -26.4021
L47.5245 -26.5365
L47.8286 -26.6777
L48.13 -26.8258
L48.4284 -26.9809
L48.7235 -27.1431
L49.0149 -27.3125
L49.3025 -27.4892
L49.5859 -27.6734
L49.8647 -27.8649
L50.1387 -28.064
L50.4075 -28.2706
L50.6708 -28.4847
L50.9283 -28.7065
L51.1796 -28.9358
L51.4246 -29.1727
L51.6627 -29.417
L51.8939 -29.6688
L52.1177 -29.9279
L52.3338 -30.1943
L52.5421 -30.4678
L52.7422 -30.7482
L52.934 -31.0354
L53.1172 -31.3292
L53.2916 -31.6294
L53.4571 -31.9357
L53.6134 -32.2479
L53.7605 -32.5657
L53.8982 -32.8888
L54.0264 -33.217
L54.1452 -33.5498
L54.2544 -33.8871
L54.354 -34.2284
L54.444 -34.5734
L54.5245 -34.9218
L54.5954 -35.2733
L54.6569 -35.6274
L54.709 -35.9839
L54.7517 -36.3423
L54.7853 -36.7024
L54.8099 -37.0639
L54.8255 -37.4263
L54.8323 -37.7894
L54.8304 -38.1529
L54.8202 -38.5164
L54.8016 -38.8797
L54.7748 -39.2425
L54.7402 -39.6046
L54.6978 -39.9656
L54.6478 -40.3254
L54.5905 -40.6836
L54.5259 -41.0402
L54.4544 -41.3949
L54.3762 -41.7475
L54.2913 -42.0978
L54.2 -42.4457
L54.1025 -42.791
L53.999 -43.1336
L53.8896 -43.4733
L53.7746 -43.81
L53.6541 -44.1437
L53.5284 -44.4741
L53.3974 -44.8013
L53.2616 -45.1251
L53.1209 -45.4455
L52.9755 -45.7623
L52.8257 -46.0756
L52.6715 -46.3853
L52.5131 -46.6914
L52.3507 -46.9938
L52.1843 -47.2924
L52.0141 -47.5874
L51.8402 -47.8785
L51.6628 -48.1659
L51.4819 -48.4495
L51.2976 -48.7293
L51.1101 -49.0054
L50.9195 -49.2776
L50.7258 -49.5461
L50.5291 -49.8107
L50.3296 -50.0716
L50.1272 -50.3288
L49.9222 -50.5822
L49.7144 -50.8319
L49.5041 -51.0779
L49.2912 -51.3201
L49.0759 -51.5588
L48.8582 -51.7937
L48.6381 -52.025
L48.4156 -52.2527
L48.191 -52.4769
L47.964 -52.6974
L47.7349 -52.9144
L47.5036 -53.1279
L47.2702 -53.3379
L47.0347 -53.5444
L46.7972 -53.7474
L46.5575 -53.947
L46.3159 -54.1432
L46.0722 -54.336
L45.8265 -54.5253
L45.5788 -54.7113
L45.3292 -54.894
L45.0776 -55.0732
L44.824 -55.2492
L44.5685 -55.4218
L44.311 -55.5911
L44.0516 -55.7571
L43.7902 -55.9198
L43.5268 -56.0792
L43.2615 -56.2353
L42.9942 -56.3881
L42.7249 -56.5376
L42.4536 -56.6838
L42.1804 -56.8266
L41.9051 -56.9662
L41.6279 -57.1024
L41.3485 -57.2353
L41.0672 -57.3648
L40.7838 -57.4909
L40.4983 -57.6136
L40.2107 -57.7329
L39.9211 -57.8488
L39.6293 -57.9612
L39.3353 -58.07
L39.0392 -58.1753
L38.741 -58.2771
L38.4406 -58.3752
L38.138 -58.4696
L37.8331 -58.5604
L37.5261 -58.6474
L37.2168 -58.7305
L36.9052 -58.8098
L36.5914 -58.8852
L36.2753 -58.9566
L35.9569 -59.0239
L35.6363 -59.0871
L35.3133 -59.1461
L34.9881 -59.2008
L34.6606 -59.2511
L34.3307 -59.2971
L33.9986 -59.3385
L33.6642 -59.3753
L33.3276 -59.4073
L32.9887 -59.4346
L32.6475 -59.457
L32.3042 -59.4743
L31.9587 -59.4865
L31.611 -59.4935
L31.2612 -59.4952
L30.9094 -59.4913
L30.5555 -59.4819
L30.1997 -59.4668
L29.842 -59.4459
L29.4825 -59.419
L29.1212 -59.3859
L28.7583 -59.3467
L28.3938 -59.3011
L28.0279 -59.249
L27.6606 -59.1903
L27.2921 -59.1248
L26.9225 -59.0524
L26.5519 -58.9729
L26.1806 -58.8863
L25.8087 -58.7923
L25.4363 -58.6909
L25.0637 -58.5819
L24.691 -58.4652
L24.3185 -58.3406
L23.9465 -58.2081
L23.5751 -58.0676
L23.2046 -57.9189
L22.8353 -57.7619
L22.4674 -57.5966
L22.1014 -57.4228
L21.7374 -57.2406
L21.3759 -57.0498
L21.0171 -56.8504
L20.6615 -56.6424
L20.3094 -56.4258
L19.9611 -56.2005
L19.6171 -55.9667
L19.2778 -55.7243
L18.9436 -55.4734
L18.6149 -55.2141
L18.2921 -54.9465
L17.9756 -54.6708
L17.6659 -54.387
L17.3635 -54.0953
L17.0687 -53.7961
L16.7819 -53.4894
L16.5036 -53.1755
L16.2342 -52.8547
L15.9741 -52.5274
L15.7236 -52.1937
L15.4831 -51.8541
L15.253 -51.5089
L15.0336 -51.1584
L14.8251 -50.8031
L14.6279 -50.4434
L14.4421 -50.0797
L14.268 -49.7124
L14.1057 -49.342
L13.9553 -48.9688
L13.817 -48.5934
L13.6909 -48.2161
L13.5769 -47.8374
L13.4751 -47.4578
L13.3854 -47.0776
L13.3078 -46.6972
L13.2421 -46.3171
L13.1882 -45.9377
L13.146 -45.5592
L13.1153 -45.1822
L13.0958 -44.8067
L13.0874 -44.4334
L13.0898 -44.0623
L13.1027 -43.6937
L13.1259 -43.3281
L13.1591 -42.9654
L13.2019 -42.6061
L13.2541 -42.2503
L13.3154 -41.8981
L13.3855 -41.5498
L13.4639 -41.2054
L13.5506 -40.8651
L13.645 -40.5291
L13.7469 -40.1973
L13.8561 -39.87
L13.9721 -39.5471
L14.0947 -39.2288
L14.2236 -38.915
L14.3586 -38.6058
L14.4993 -38.3013
L14.6455 -38.0014
L14.797 -37.7061
L14.9534 -37.4155
L15.1145 -37.1295
L15.2802 -36.8482
L15.4501 -36.5715
L15.624 -36.2993
L15.8019 -36.0317
L15.9834 -35.7686
L16.1683 -35.5099
L16.3565 -35.2557
L16.5479 -35.0058
L16.7422 -34.7603
L16.9393 -34.519
L17.139 -34.282
L17.3413 -34.0491
L17.5459 -33.8204
L17.7528 -33.5956
L17.9618 -33.3749
L18.1728 -33.1581
L18.3857 -32.9451
L18.6005 -32.736
L18.8169 -32.5306
L19.035 -32.3288
L19.2547 -32.1307
L19.4758 -31.9362
L19.6984 -31.7452
L19.9223 -31.5576
L20.1475 -31.3733
L20.3739 -31.1924
L20.6015 -31.0148
L20.8302 -30.8404
L21.06 -30.6691
L21.2909 -30.5009
L21.5227 -30.3358
L21.7556 -30.1737
L21.9894 -30.0145
L22.2241 -29.8582
L22.4597 -29.7048
L22.6963 -29.5542
L22.9336 -29.4063
L23.1719 -29.2612
L23.411 -29.1187
L23.6509 -28.9788
L23.8916 -28.8415
L24.1332 -28.7068
L24.3756 -28.5746
L24.6188 -28.4449
L24.8629 -28.3177
L25.1078 -28.1928
L25.3534 -28.0704
L25.6 -27.9503
L25.8474 -27.8325
L26.0956 -27.7171
L26.3447 -27.6039
L26.5947 -27.493
L26.8455 -27.3844
L27.0973 -27.278
z
" id="C0_1_7c7526d0f1"/>
    </defs>
    <g clip-path="url(#p1bffca34e9)">
     <use style="fill:#ffffff;stroke:#000000;stroke-width:2.0;" x="0.0" xlink:href="#C0_0_a811fe30f3" y="72.0"/>
    </g>
    <g clip-path="url(#p1bffca34e9)">
     <use style="fill:#ff0000;stroke:#000000;stroke-width:2.0;" x="0.0" xlink:href="#C0_1_7c7526d0f1" y="72.0"/>
    </g>
   </g>
  </g>
 </g>
 <defs>
  <clipPath id="p1bffca34e9">
   <rect height="72.0" width="72.0" x="0.0" y="0.0"/>
  </clipPath>
 </defs>
</svg>
