<?xml version="1.0" encoding="utf-8" standalone="no"?>
<!DOCTYPE svg PUBLIC "-//W3C//DTD SVG 1.1//EN"
  "http://www.w3.org/Graphics/SVG/1.1/DTD/svg11.dtd">
<!-- Created with matplotlib (http://matplotlib.org/) -->
<svg height="72pt" version="1.1" viewBox="0 0 72 72" width="72pt" xmlns="http://www.w3.org/2000/svg" xmlns:xlink="http://www.w3.org/1999/xlink">
 <defs>
  <style type="text/css">
*{stroke-linecap:butt;stroke-linejoin:round;}
  </style>
 </defs>
 <g id="figure_1">
  <g id="patch_1">
   <path d="
M0 72
L72 72
L72 0
L0 0
z
" style="fill:none;"/>
  </g>
  <g id="axes_1">
   <g id="PatchCollection_1">
    <defs>
     <path d="
M36 -7.5
C43.5583 -7.5 50.808 -10.5029 56.1525 -15.8475
C61.4971 -21.192 64.5 -28.4417 64.5 -36
C64.5 -43.5583 61.4971 -50.808 56.1525 -56.1525
C50.808 -61.4971 43.5583 -64.5 36 -64.5
C28.4417 -64.5 21.192 -61.4971 15.8475 -56.1525
C10.5029 -50.808 7.5 -43.5583 7.5 -36
C7.5 -28.4417 10.5029 -21.192 15.8475 -15.8475
C21.192 -10.5029 28.4417 -7.5 36 -7.5
z
" id="C0_0_a811fe30f3"/>
     <path d="
M24.518 -9.93129
L24.7189 -10.1374
L24.8963 -10.3682
L25.0543 -10.6195
L25.197 -10.8879
L25.3273 -11.1703
L25.4478 -11.4643
L25.5607 -11.7677
L25.6676 -12.0789
L25.7697 -12.3965
L25.8682 -12.7192
L25.9639 -13.0462
L26.0574 -13.3765
L26.1491 -13.7094
L26.2397 -14.0443
L26.3292 -14.3806
L26.4181 -14.7178
L26.5064 -15.0557
L26.5944 -15.3936
L26.6821 -15.7314
L26.7697 -16.0687
L26.8571 -16.4052
L26.9445 -16.7407
L27.0319 -17.0751
L27.1192 -17.408
L27.2065 -17.7394
L27.2939 -18.0691
L27.3812 -18.397
L27.4685 -18.7229
L27.5557 -19.0467
L27.643 -19.3684
L27.7301 -19.6879
L27.8172 -20.0051
L27.9042 -20.32
L27.9911 -20.6325
L28.0779 -20.9426
L28.1646 -21.2503
L28.2511 -21.5556
L28.3375 -21.8584
L28.4237 -22.1588
L28.5097 -22.4567
L28.5955 -22.7522
L28.6812 -23.0453
L28.7666 -23.336
L28.8518 -23.6243
L28.9369 -23.9103
L29.0217 -24.194
L29.1063 -24.4754
L29.1907 -24.7546
L29.2748 -25.0316
L29.3588 -25.3064
L29.4426 -25.5792
L29.5261 -25.8499
L29.6095 -26.1186
L29.6926 -26.3854
L29.7756 -26.6503
L29.8584 -26.9133
L29.941 -27.1746
L30.0234 -27.4341
L30.1057 -27.692
L30.1879 -27.9482
L30.2699 -28.2029
L30.3518 -28.4561
L30.4336 -28.7079
L30.5153 -28.9583
L30.5969 -29.2074
L30.6784 -29.4552
L30.7599 -29.7019
L30.8413 -29.9474
L30.9227 -30.1918
L31.0041 -30.4352
L31.0855 -30.6776
L31.1669 -30.9192
L31.2483 -31.1599
L31.3298 -31.3999
L31.4114 -31.6391
L31.493 -31.8777
L31.5748 -32.1157
L31.6566 -32.3532
L31.7386 -32.5902
L31.8208 -32.8268
L31.9031 -33.0631
L31.9857 -33.299
L32.0684 -33.5348
L32.1514 -33.7703
L32.3182 -34.0058
L32.402 -34.2412
L32.4861 -34.4766
L32.5706 -34.7121
L32.6554 -34.9477
L32.7406 -35.1835
L32.8263 -35.4195
L32.9123 -35.6559
L32.9988 -35.8927
L33.0858 -36.1298
L33.1733 -36.3675
L33.2613 -36.6057
L33.3499 -36.8445
L33.439 -37.0841
L33.5288 -37.3243
L33.6191 -37.5653
L33.7102 -37.8072
L33.8019 -38.0501
L33.8943 -38.2938
L33.9874 -38.5387
L34.0813 -38.7846
L34.176 -39.0317
L34.2715 -39.28
L34.3679 -39.5297
L34.4651 -39.7806
L34.5633 -40.033
L34.6624 -40.2868
L34.7624 -40.5422
L34.8634 -40.7991
L34.9655 -41.0577
L35.0686 -41.318
L35.1728 -41.58
L35.2782 -41.8439
L35.3846 -42.1097
L35.4923 -42.3774
L35.6011 -42.6471
L35.7112 -42.9188
L35.8226 -43.1926
L35.9353 -43.4686
L36.0493 -43.7468
L36.1646 -44.0272
L36.2814 -44.3099
L36.3995 -44.5949
L36.5191 -44.8823
L36.6401 -45.1721
L36.7626 -45.4644
L36.8867 -45.7591
L37.0122 -46.0564
L37.1393 -46.3561
L37.2679 -46.6584
L37.3981 -46.9632
L37.5299 -47.2706
L37.6632 -47.5806
L37.7982 -47.8931
L37.9346 -48.2082
L38.0727 -48.5258
L38.2123 -48.8459
L38.3533 -49.1684
L38.4959 -49.4934
L38.6399 -49.8208
L38.7853 -50.1504
L38.9321 -50.4823
L39.08 -50.8164
L39.2292 -51.1525
L39.3794 -51.4906
L39.5305 -51.8305
L39.6824 -52.1721
L39.8349 -52.5153
L39.9878 -52.8599
L40.1408 -53.2058
L40.2938 -53.5527
L40.4462 -53.9004
L40.5979 -54.2488
L40.7482 -54.5977
L40.8966 -54.9466
L41.0425 -55.2955
L41.1851 -55.644
L41.3235 -55.9918
L41.4564 -56.3386
L41.5825 -56.684
L41.7 -57.0276
L41.8069 -57.369
L41.9004 -57.7078
L41.9774 -58.0434
L42.034 -58.3752
L42.0656 -58.7026
L42.0668 -59.0247
L42.0319 -59.3407
L41.9549 -59.6495
L41.8306 -59.95
L41.6551 -60.2409
L41.4267 -60.5211
L41.1463 -60.7894
L40.817 -61.0448
L40.4434 -61.2866
L40.0313 -61.5141
L39.5862 -61.7271
L39.1135 -61.9253
L38.6181 -62.1086
L38.104 -62.2769
L37.5748 -62.4303
L37.0336 -62.5688
L36.4828 -62.6924
L35.9247 -62.8014
L35.361 -62.8958
L34.7935 -62.9758
L34.2235 -63.0416
L33.6523 -63.0933
L33.0809 -63.1313
L32.5102 -63.1557
L31.9412 -63.1669
L31.3745 -63.1651
L30.8109 -63.1506
L30.2509 -63.1237
L29.6952 -63.0848
L29.1441 -63.0342
L28.5981 -62.9722
L28.0577 -62.8991
L27.5231 -62.8154
L26.9947 -62.7214
L26.4727 -62.6174
L25.9573 -62.5038
L25.4488 -62.381
L24.9473 -62.2492
L24.4529 -62.1088
L23.9658 -61.9602
L23.505 -61.8036
L23.0599 -61.6149
L22.6187 -61.393
L22.1815 -61.1633
L21.7486 -60.9259
L21.3201 -60.6809
L20.896 -60.4285
L20.4765 -60.1685
L20.0617 -59.9013
L19.6518 -59.6267
L19.2468 -59.3449
L18.847 -59.0561
L18.4524 -58.7602
L18.0631 -58.4573
L17.6793 -58.1477
L17.3011 -57.8313
L16.9286 -57.5082
L16.5619 -57.1786
L16.2011 -56.8425
L15.8463 -56.5001
L15.4977 -56.1514
L15.1553 -55.7966
L14.8193 -55.4358
L14.4897 -55.069
L14.1667 -54.6965
L13.8503 -54.3182
L13.5407 -53.9344
L13.2379 -53.5451
L12.9421 -53.1505
L12.6533 -52.7506
L12.3715 -52.3456
L12.097 -51.9357
L11.8298 -51.5209
L11.5699 -51.1014
L11.3175 -50.6772
L11.0726 -50.2486
L10.8353 -49.8157
L10.6056 -49.3785
L10.3837 -48.9373
L10.1696 -48.4922
L9.96331 -48.0432
L9.76499 -47.5906
L9.57467 -47.1344
L9.39239 -46.6748
L9.21822 -46.212
L9.05221 -45.7461
L8.8944 -45.2772
L8.74485 -44.8055
L8.60361 -44.3311
L8.47071 -43.8541
L8.34619 -43.3748
L8.2301 -42.8932
L8.12246 -42.4096
L8.02332 -41.9239
L7.9327 -41.4365
L7.85064 -40.9474
L7.77714 -40.4568
L7.71224 -39.9649
L7.65596 -39.4717
L7.60831 -38.9775
L7.56931 -38.4824
L7.53898 -37.9865
L7.51731 -37.49
L7.50431 -36.9931
L7.5 -36.4958
L7.50437 -35.9984
L7.51742 -35.501
L7.53914 -35.0038
L7.56953 -34.5068
L7.60859 -34.0104
L7.65629 -33.5145
L7.71263 -33.0194
L7.77758 -32.5252
L7.85113 -32.032
L7.93325 -31.5401
L8.02393 -31.0495
L8.12312 -30.5604
L8.23081 -30.073
L8.34695 -29.5874
L8.47152 -29.1037
L8.60448 -28.6221
L8.74578 -28.1428
L8.89538 -27.6659
L9.05323 -27.1915
L9.2193 -26.7198
L9.39352 -26.2509
L9.57585 -25.785
L9.76623 -25.3222
L9.9646 -24.8627
L10.1709 -24.4066
L10.3851 -23.9539
L10.607 -23.505
L10.8367 -23.0599
L11.0741 -22.6187
L11.3191 -22.1815
L11.5715 -21.7486
L11.8315 -21.3201
L12.0987 -20.896
L12.3733 -20.4765
L12.6551 -20.0617
L12.9439 -19.6518
L13.2398 -19.2468
L13.5427 -18.847
L13.8523 -18.4524
L14.1687 -18.0631
L14.4918 -17.6793
L14.8214 -17.3011
L15.1575 -16.9286
L15.4999 -16.5619
L15.8486 -16.2011
L16.2034 -15.8463
L16.5642 -15.4977
L16.931 -15.1553
L17.3035 -14.8193
L17.6818 -14.4897
L18.0656 -14.1667
L18.4549 -13.8503
L18.8495 -13.5407
L19.2494 -13.2379
L19.6544 -12.9421
L20.0643 -12.6533
L20.4791 -12.3715
L20.8986 -12.097
L21.3228 -11.8298
L21.7514 -11.5699
L22.1843 -11.3175
L22.6215 -11.0726
L23.0627 -10.8353
L23.5078 -10.6056
L23.9568 -10.3837
z
" id="C0_1_a9795f2a1a"/>
     <path d="
M48.4872 -10.4151
L48.9062 -10.6886
L49.3151 -10.9657
L49.7138 -11.2461
L50.1027 -11.5295
L50.4819 -11.8156
L50.8515 -12.1042
L51.2117 -12.3951
L51.5627 -12.688
L51.9047 -12.9828
L52.2379 -13.2791
L52.5624 -13.577
L52.8785 -13.8761
L53.1863 -14.1764
L53.486 -14.4778
L53.7779 -14.78
L54.062 -15.083
L54.3386 -15.3867
L54.6079 -15.6909
L54.8701 -15.9956
L55.1252 -16.3008
L55.3735 -16.6063
L55.6152 -16.9121
L55.8503 -17.2182
L56.0792 -17.5244
L56.3018 -17.8308
L56.5185 -18.1373
L56.7292 -18.444
L56.9342 -18.7507
L57.1336 -19.0575
L57.3275 -19.3643
L57.5161 -19.6712
L57.6995 -19.9782
L57.8777 -20.2852
L58.051 -20.5923
L58.2193 -20.8994
L58.3829 -21.2067
L58.5418 -21.5141
L58.6962 -21.8216
L58.846 -22.1292
L58.9914 -22.4371
L59.1325 -22.7452
L59.2693 -23.0535
L59.402 -23.3621
L59.5305 -23.671
L59.655 -23.9803
L59.7755 -24.2899
L59.8921 -24.6
L60.0048 -24.9106
L60.1137 -25.2217
L60.2189 -25.5334
L60.3202 -25.8457
L60.4179 -26.1587
L60.512 -26.4724
L60.6023 -26.7869
L60.6891 -27.1022
L60.7723 -27.4183
L60.8519 -27.7355
L60.9279 -28.0536
L61.0004 -28.3727
L61.0693 -28.693
L61.1347 -29.0144
L61.1966 -29.3371
L61.2549 -29.661
L61.3096 -29.9863
L61.3607 -30.313
L61.4083 -30.6411
L61.4522 -30.9708
L61.4925 -31.3021
L61.5292 -31.635
L61.5621 -31.9696
L61.5912 -32.306
L61.6166 -32.6443
L61.6381 -32.9844
L61.6557 -33.3265
L61.6694 -33.6707
L61.679 -34.0169
L61.6846 -34.3652
L61.686 -34.7158
L61.6832 -35.0686
L61.676 -35.4238
L61.6644 -35.7813
L61.6484 -36.1412
L61.6277 -36.5037
L61.6024 -36.8686
L61.5722 -37.2361
L61.5372 -37.6063
L61.497 -37.9791
L61.4518 -38.3546
L61.4012 -38.7329
L61.3452 -39.1139
L61.2836 -39.4978
L61.2163 -39.8844
L61.1431 -40.2739
L61.0638 -40.6662
L60.9784 -41.0614
L60.8866 -41.4595
L60.7883 -41.8604
L60.6832 -42.2641
L60.5713 -42.6706
L60.4523 -43.0799
L60.3259 -43.4919
L60.1922 -43.9066
L60.0507 -44.3239
L59.9014 -44.7437
L59.744 -45.166
L59.5784 -45.5906
L59.4043 -46.0174
L59.2215 -46.4464
L59.0299 -46.8772
L58.8292 -47.3099
L58.6193 -47.7442
L58.4 -48.1799
L58.1712 -48.6167
L57.9326 -49.0546
L57.6841 -49.4931
L57.4257 -49.9321
L57.1571 -50.3713
L56.8784 -50.8103
L56.5895 -51.2488
L56.2903 -51.6865
L55.9809 -52.123
L55.6613 -52.5579
L55.3316 -52.9908
L54.9921 -53.4214
L54.6429 -53.8491
L54.2843 -54.2735
L53.9168 -54.6943
L53.5409 -55.1108
L53.1573 -55.5227
L52.7666 -55.9295
L52.3701 -56.3308
L51.9688 -56.726
L51.5643 -57.1149
L51.1585 -57.4969
L50.7537 -57.8717
L50.3527 -58.2391
L49.9589 -58.5987
L49.5764 -58.9506
L49.2103 -59.2947
L48.8662 -59.6311
L48.5501 -59.9601
L48.2685 -60.2821
L48.0271 -60.5976
L47.8301 -60.9073
L47.6797 -61.2116
L47.5755 -61.5109
L48.066 -61.8056
L48.5147 -61.8198
L48.9597 -61.6053
L49.4007 -61.383
L49.8377 -61.1529
L50.2704 -60.9152
L50.6988 -60.6699
L51.1227 -60.4171
L51.542 -60.1569
L51.9565 -59.8893
L52.3662 -59.6144
L52.7709 -59.3323
L53.1705 -59.0431
L53.5649 -58.7469
L53.9539 -58.4438
L54.3375 -58.1338
L54.7154 -57.8171
L55.0877 -57.4938
L55.4542 -57.1639
L55.8147 -56.8275
L56.1692 -56.4848
L56.5175 -56.1359
L56.8596 -55.7808
L57.1954 -55.4197
L57.5247 -55.0527
L57.8474 -54.6799
L58.1635 -54.3014
L58.4728 -53.9173
L58.7753 -53.5278
L59.0708 -53.1329
L59.3593 -52.7328
L59.6407 -52.3276
L59.9149 -51.9175
L60.1818 -51.5025
L60.4414 -51.0827
L60.6935 -50.6584
L60.9381 -50.2296
L61.1751 -49.7965
L61.4044 -49.3591
L61.6259 -48.9177
L61.8397 -48.4724
L62.0456 -48.0233
L62.2436 -47.5705
L62.4336 -47.1142
L62.6155 -46.6545
L62.7893 -46.1915
L62.9549 -45.7254
L63.1124 -45.2564
L63.2616 -44.7846
L63.4024 -44.3101
L63.535 -43.833
L63.6591 -43.3536
L63.7748 -42.8719
L63.8821 -42.3882
L63.9809 -41.9025
L64.0711 -41.4149
L64.1528 -40.9258
L64.2259 -40.4351
L64.2904 -39.9431
L64.3463 -39.4499
L64.3936 -38.9556
L64.4322 -38.4605
L64.4622 -37.9646
L64.4835 -37.4681
L64.4961 -36.9711
L64.5 -36.4739
L64.4952 -35.9765
L64.4818 -35.4791
L64.4597 -34.9818
L64.4289 -34.4849
L64.3895 -33.9885
L64.3414 -33.4926
L64.2847 -32.9975
L64.2194 -32.5034
L64.1454 -32.0103
L64.0629 -31.5184
L63.9719 -31.0278
L63.8723 -30.5388
L63.7642 -30.0515
L63.6477 -29.566
L63.5228 -29.0824
L63.3895 -28.6009
L63.2478 -28.1217
L63.0978 -27.6449
L62.9396 -27.1706
L62.7732 -26.699
L62.5986 -26.2303
L62.4159 -25.7645
L62.2252 -25.3019
L62.0265 -24.8425
L61.8198 -24.3865
L61.6053 -23.934
L61.383 -23.4853
L61.1529 -23.0403
L60.9152 -22.5993
L60.6699 -22.1623
L60.4171 -21.7296
L60.1569 -21.3012
L59.8893 -20.8773
L59.6144 -20.458
L59.3323 -20.0435
L59.0431 -19.6338
L58.7469 -19.2291
L58.4438 -18.8295
L58.1338 -18.4351
L57.8171 -18.0461
L57.4938 -17.6625
L57.1639 -17.2846
L56.8275 -16.9123
L56.4848 -16.5458
L56.1359 -16.1853
L55.7808 -15.8308
L55.4197 -15.4825
L55.0527 -15.1404
L54.6799 -14.8046
L54.3014 -14.4753
L53.9173 -14.1526
L53.5278 -13.8365
L53.1329 -13.5272
L52.7328 -13.2247
L52.3276 -12.9292
L51.9175 -12.6407
L51.5025 -12.3593
L51.0827 -12.0851
L50.6584 -11.8182
L50.2296 -11.5586
L49.7965 -11.3065
L49.3591 -11.0619
z
" id="C0_2_68c3d2d05a"/>
    </defs>
    <g clip-path="url(#p1bffca34e9)">
     <use style="fill:#ff0000;stroke:#000000;stroke-width:2.0;" x="0.0" xlink:href="#C0_0_a811fe30f3" y="72.0"/>
    </g>
    <g clip-path="url(#p1bffca34e9)">
     <use style="fill:#ffffff;stroke:#000000;stroke-width:2.0;" x="0.0" xlink:href="#C0_1_a9795f2a1a" y="72.0"/>
    </g>
    <g clip-path="url(#p1bffca34e9)">
     <use style="fill:#ffffff;stroke:#000000;stroke-width:2.0;" x="0.0" xlink:href="#C0_2_68c3d2d05a" y="72.0"/>
    </g>
   </g>
  </g>
 </g>
 <defs>
  <clipPath id="p1bffca34e9">
   <rect height="72.0" width="72.0" x="0.0" y="0.0"/>
  </clipPath>
 </defs>
</svg>
