<?xml version="1.0" encoding="utf-8" standalone="no"?>
<!DOCTYPE svg PUBLIC "-//W3C//DTD SVG 1.1//EN"
  "http://www.w3.org/Graphics/SVG/1.1/DTD/svg11.dtd">
<!-- Created with matplotlib (http://matplotlib.org/) -->
<svg height="72pt" version="1.1" viewBox="0 0 72 72" width="72pt" xmlns="http://www.w3.org/2000/svg" xmlns:xlink="http://www.w3.org/1999/xlink">
 <defs>
  <style type="text/css">
*{stroke-linecap:butt;stroke-linejoin:round;}
  </style>
 </defs>
 <g id="figure_1">
  <g id="patch_1">
   <path d="
M0 72
L72 72
L72 0
L0 0
z
" style="fill:none;"/>
  </g>
  <g id="axes_1">
   <g id="PatchCollection_1">
    <defs>
     <path d="
M36 -7.5
C43.5583 -7.5 50.808 -10.5029 56.1525 -15.8475
C61.4971 -21.192 64.5 -28.4417 64.5 -36
C64.5 -43.5583 61.4971 -50.808 56.1525 -56.1525
C50.808 -61.4971 43.5583 -64.5 36 -64.5
C28.4417 -64.5 21.192 -61.4971 15.8475 -56.1525
C10.5029 -50.808 7.5 -43.5583 7.5 -36
C7.5 -28.4417 10.5029 -21.192 15.8475 -15.8475
C21.192 -10.5029 28.4417 -7.5 36 -7.5
z
" id="C0_0_a811fe30f3"/>
     <path d="
M59.6898 -51.6254
L59.3531 -51.7994
L59.0204 -51.9496
L58.6926 -52.0753
L58.3705 -52.1763
L58.0549 -52.2524
L57.7464 -52.3037
L57.4455 -52.3303
L57.1525 -52.3327
L56.8677 -52.3114
L56.5911 -52.2673
L56.3226 -52.2013
L56.0621 -52.1144
L55.8092 -52.0079
L55.5636 -51.883
L55.3249 -51.7409
L55.0925 -51.583
L54.8661 -51.4105
L54.645 -51.2248
L54.4288 -51.027
L54.2171 -50.8183
L54.0094 -50.5999
L53.8052 -50.3727
L53.6043 -50.1378
L53.4062 -49.896
L53.2107 -49.6482
L53.0174 -49.3952
L52.8262 -49.1376
L52.6368 -48.8762
L52.449 -48.6115
L52.2627 -48.3441
L52.0776 -48.0744
L51.8938 -47.803
L51.7111 -47.5302
L51.5294 -47.2563
L51.3487 -46.9818
L51.1688 -46.707
L50.9898 -46.4321
L50.8115 -46.1573
L50.634 -45.8829
L50.4573 -45.6091
L50.2813 -45.336
L50.1059 -45.0639
L49.9313 -44.7928
L49.7573 -44.5229
L49.584 -44.2543
L49.4113 -43.9871
L49.2393 -43.7214
L49.0679 -43.4572
L48.8972 -43.1946
L48.7271 -42.9336
L48.5577 -42.6743
L48.3888 -42.4168
L48.2206 -42.161
L48.053 -41.9069
L47.886 -41.6547
L47.7197 -41.4042
L47.5539 -41.1555
L47.3887 -40.9086
L47.224 -40.6634
L47.0599 -40.42
L46.8964 -40.1784
L46.7334 -39.9385
L46.5709 -39.7003
L46.409 -39.4637
L46.2475 -39.2288
L46.0865 -38.9955
L45.9259 -38.7638
L45.7658 -38.5337
L45.6061 -38.3051
L45.4468 -38.078
L45.2879 -37.8523
L45.1293 -37.628
L44.9711 -37.4051
L44.8132 -37.1835
L44.6555 -36.9632
L44.4982 -36.7441
L44.341 -36.5263
L44.1841 -36.3096
L44.0273 -36.094
L43.8708 -35.8795
L43.7143 -35.666
L43.558 -35.4535
L43.4017 -35.242
L43.2455 -35.0313
L43.0893 -34.8215
L42.9331 -34.6125
L42.7768 -34.4043
L42.6205 -34.1968
L42.4641 -33.99
L42.3076 -33.7838
L42.1509 -33.5782
L41.994 -33.3731
L41.8369 -33.1685
L41.6795 -32.9644
L41.5219 -32.7607
L41.2056 -32.5574
L41.0468 -32.3544
L40.8877 -32.1517
L40.7281 -31.9492
L40.5681 -31.747
L40.4075 -31.5449
L40.2463 -31.3429
L40.0846 -31.1409
L39.9222 -30.9391
L39.7592 -30.7372
L39.5955 -30.5352
L39.431 -30.3332
L39.2658 -30.131
L39.0998 -29.9287
L38.9329 -29.7261
L38.7652 -29.5234
L38.5965 -29.3203
L38.4269 -29.1169
L38.2564 -28.9131
L38.0847 -28.7089
L37.9121 -28.5043
L37.7383 -28.2992
L37.5635 -28.0936
L37.3874 -27.8875
L37.2102 -27.6807
L37.0317 -27.4734
L36.852 -27.2654
L36.671 -27.0567
L36.4886 -26.8474
L36.3049 -26.6372
L36.1197 -26.4263
L35.9332 -26.2146
L35.7452 -26.0021
L35.5557 -25.7887
L35.3647 -25.5744
L35.1722 -25.3592
L34.9782 -25.1431
L34.7825 -24.926
L34.5853 -24.7079
L34.3865 -24.4889
L34.1861 -24.2689
L33.9841 -24.0478
L33.7805 -23.8257
L33.5752 -23.6025
L33.3683 -23.3783
L33.1599 -23.1531
L32.9499 -22.9267
L32.7383 -22.6993
L32.5252 -22.4709
L32.3106 -22.2413
L32.0946 -22.0107
L31.8773 -21.779
L31.6586 -21.5463
L31.4387 -21.3126
L31.2177 -21.0778
L30.9956 -20.842
L30.7726 -20.6053
L30.5489 -20.3675
L30.3246 -20.1289
L30.0998 -19.8892
L29.8749 -19.6487
L29.6499 -19.4073
L29.4251 -19.1651
L29.2008 -18.922
L28.9774 -18.678
L28.7551 -18.4333
L28.5344 -18.1878
L28.3156 -17.9415
L28.0992 -17.6945
L27.8858 -17.4466
L27.6758 -17.198
L27.47 -16.9486
L27.269 -16.6983
L27.0735 -16.4471
L26.8843 -16.195
L26.7023 -15.9418
L26.5286 -15.6875
L26.364 -15.432
L26.2097 -15.1752
L26.0669 -14.9169
L25.9369 -14.6569
L25.8208 -14.3952
L25.72 -14.1315
L25.6359 -13.8657
L25.5699 -13.5976
L25.5232 -13.3272
L25.4972 -13.0542
L25.493 -12.7787
L25.5116 -12.5007
L25.5541 -12.2202
L25.6211 -11.9374
L25.7131 -11.6525
L25.8305 -11.3659
L25.9733 -11.078
L26.1415 -10.7894
L26.3345 -10.5005
L26.552 -10.2121
L26.7933 -9.92486
L27.0575 -9.63957
L27.3437 -9.357
L27.6508 -9.07792
L28.1128 -8.80312
L28.5919 -8.61311
L29.0734 -8.47963
L29.5569 -8.35453
L30.0424 -8.23786
L30.5297 -8.12964
L31.0187 -8.02991
L31.5092 -7.9387
L32.0011 -7.85604
L32.4941 -7.78195
L32.9883 -7.71646
L33.4834 -7.65958
L33.9792 -7.61133
L34.4756 -7.57173
L34.9725 -7.5408
L35.4698 -7.51853
L35.9672 -7.50493
L36.4646 -7.50002
L36.9618 -7.50379
L37.4588 -7.51623
L37.9553 -7.53736
L38.4512 -7.56715
L38.9464 -7.60561
L39.4407 -7.65271
L39.9339 -7.70845
L40.4259 -7.77281
L40.9166 -7.84576
L41.4058 -7.9273
L41.8934 -8.01738
L42.3791 -8.11598
L42.8629 -8.22309
L43.3446 -8.33865
L43.8241 -8.46263
L44.3012 -8.59501
L44.7757 -8.73573
L45.2476 -8.88476
L45.7167 -9.04205
L46.1828 -9.20755
L46.6458 -9.38121
L47.1056 -9.56298
L47.562 -9.7528
L48.0149 -9.95062
L48.4641 -10.1564
L48.9095 -10.37
L49.3509 -10.5914
L49.7883 -10.8206
L50.2216 -11.0574
L50.6504 -11.3019
L51.0748 -11.5538
L51.4947 -11.8132
L51.9098 -12.08
L52.32 -12.3541
L52.7253 -12.6353
L53.1255 -12.9237
L53.5205 -13.2191
L53.9101 -13.5215
L54.2943 -13.8307
L54.6729 -14.1466
L55.0458 -14.4692
L55.4129 -14.7984
L55.7741 -15.134
L56.1293 -15.476
L56.4784 -15.8243
L56.8212 -16.1786
L57.1576 -16.539
L57.4877 -16.9054
L57.8111 -17.2775
L58.128 -17.6554
L58.4381 -18.0389
L58.7413 -18.4278
L59.0377 -18.8221
L59.327 -19.2216
L59.6092 -19.6262
L59.8842 -20.0358
L60.152 -20.4503
L60.4123 -20.8695
L60.6653 -21.2933
L60.9107 -21.7216
L61.1486 -22.1542
L61.3788 -22.5911
L61.6012 -23.032
L61.8159 -23.4769
L62.0227 -23.9256
L62.2215 -24.378
L62.4124 -24.8339
L62.5953 -25.2933
L62.77 -25.7559
L62.9366 -26.2216
L63.0949 -26.6903
L63.2451 -27.1618
L63.3869 -27.636
L63.5204 -28.1128
L63.6455 -28.5919
L63.7621 -29.0734
L63.8704 -29.5569
L63.9701 -30.0424
L64.0613 -30.5297
L64.144 -31.0187
L64.2181 -31.5092
L64.2835 -32.0011
L64.3404 -32.4941
L64.3887 -32.9883
L64.4283 -33.4834
L64.4592 -33.9792
L64.4815 -34.4756
L64.4951 -34.9725
L64.5 -35.4698
L64.4962 -35.9672
L64.4838 -36.4646
L64.4626 -36.9618
L64.4328 -37.4588
L64.3944 -37.9553
L64.3473 -38.4512
L64.2915 -38.9464
L64.2272 -39.4407
L64.1542 -39.9339
L64.0727 -40.4259
L63.9826 -40.9166
L63.884 -41.4058
L63.7769 -41.8934
L63.6614 -42.3791
L63.5374 -42.8629
L63.405 -43.3446
L63.2643 -43.8241
L63.1152 -44.3012
L62.958 -44.7757
L62.7925 -45.2476
L62.6188 -45.7167
L62.437 -46.1828
L62.2472 -46.6458
L62.0494 -47.1056
L61.8436 -47.562
L61.63 -48.0149
L61.4086 -48.4641
L61.1794 -48.9095
L60.9426 -49.3509
L60.6981 -49.7883
L60.4462 -50.2216
L60.1868 -50.6504
z
" id="C0_1_61cf720430"/>
     <path d="
M43.958 -63.247
L43.5297 -63.2009
L43.0949 -63.1541
L42.6546 -63.1059
L42.21 -63.0557
L41.7619 -63.0029
L41.3113 -62.947
L40.8589 -62.8877
L40.4055 -62.8245
L39.9518 -62.7573
L39.4985 -62.6857
L39.0461 -62.6096
L38.5953 -62.5289
L38.1464 -62.4435
L37.7 -62.3534
L37.2564 -62.2585
L36.816 -62.1588
L36.3791 -62.0545
L35.9461 -61.9455
L35.517 -61.8319
L35.0923 -61.7138
L34.672 -61.5914
L34.2564 -61.4646
L33.8455 -61.3338
L33.4395 -61.1988
L33.0385 -61.06
L32.6426 -60.9174
L32.2518 -60.7711
L31.8662 -60.6213
L31.4857 -60.4681
L31.1105 -60.3116
L30.7405 -60.152
L30.3756 -59.9894
L30.016 -59.8239
L29.6616 -59.6556
L29.3122 -59.4846
L28.968 -59.311
L28.6288 -59.135
L28.2946 -58.9566
L27.9653 -58.7759
L27.6409 -58.5931
L27.3213 -58.4081
L27.0064 -58.2211
L26.6962 -58.0321
L26.3906 -57.8412
L26.0895 -57.6485
L25.7929 -57.4541
L25.5006 -57.2579
L25.2126 -57.06
L24.9288 -56.8606
L24.6492 -56.6595
L24.3735 -56.4569
L24.1019 -56.2528
L23.8342 -56.0472
L23.5702 -55.8402
L23.31 -55.6317
L23.0535 -55.4218
L22.8006 -55.2105
L22.5511 -54.9979
L22.3051 -54.7838
L22.0625 -54.5684
L21.8232 -54.3516
L21.5872 -54.1334
L21.3543 -53.9139
L21.1245 -53.693
L20.8977 -53.4706
L20.6739 -53.2469
L20.4531 -53.0218
L20.2351 -52.7952
L20.0199 -52.5672
L19.8075 -52.3377
L19.5978 -52.1068
L19.3907 -51.8743
L19.1862 -51.6402
L18.9843 -51.4046
L18.7849 -51.1674
L18.588 -50.9286
L18.3935 -50.6881
L18.2015 -50.4459
L18.0117 -50.2019
L17.8244 -49.9561
L17.6393 -49.7086
L17.4564 -49.4591
L17.2759 -49.2078
L17.0975 -48.9544
L16.9213 -48.6991
L16.7473 -48.4417
L16.5755 -48.1822
L16.4058 -47.9206
L16.2383 -47.6567
L16.0728 -47.3905
L15.9095 -47.122
L15.7483 -46.8512
L15.5892 -46.5779
L15.4322 -46.3021
L15.2774 -46.0237
L15.1246 -45.7427
L14.974 -45.459
L14.8255 -45.1725
L14.6792 -44.8833
L14.535 -44.5911
L14.3931 -44.296
L14.2534 -43.9979
L14.1159 -43.6967
L13.9807 -43.3923
L13.8479 -43.0847
L13.7173 -42.7738
L13.5892 -42.4596
L13.4636 -42.142
L13.3404 -41.8208
L13.2198 -41.4961
L13.1018 -41.1678
L12.9864 -40.8358
L12.8738 -40.5001
L12.764 -40.1605
L12.6571 -39.8171
L12.5532 -39.4698
L12.4522 -39.1185
L12.3544 -38.7632
L12.2598 -38.4038
L12.1685 -38.0403
L12.0806 -37.6726
L11.9962 -37.3008
L11.9154 -36.9248
L11.8384 -36.5446
L11.7651 -36.1601
L11.6958 -35.7714
L11.6305 -35.3785
L11.5693 -34.9813
L11.5125 -34.58
L11.46 -34.1745
L11.412 -33.7649
L11.3686 -33.3512
L11.33 -32.9335
L11.2961 -32.512
L11.2672 -32.0867
L11.2433 -31.6577
L11.2245 -31.2252
L11.2109 -30.7894
L11.2025 -30.3504
L11.1994 -29.9084
L11.2015 -29.4637
L11.209 -29.0166
L11.2217 -28.5672
L11.2397 -28.116
L11.2628 -27.6633
L11.291 -27.2094
L11.324 -26.7548
L11.3616 -26.2999
L11.4037 -25.8451
L11.4498 -25.3911
L11.4997 -24.9384
L11.5528 -24.4876
L11.6086 -24.0392
L11.6666 -23.5941
L11.7261 -23.1529
L11.7862 -22.7163
L11.8462 -22.2852
L11.9051 -21.8605
L11.9619 -21.4428
L12.0155 -21.0332
L11.7525 -20.6325
L11.4948 -21.0231
L11.2446 -21.4485
L11.0019 -21.8784
L10.7668 -22.3126
L10.5394 -22.751
L10.3198 -23.1934
L10.108 -23.6397
L9.90408 -24.0897
L9.70811 -24.5434
L9.52014 -25.0006
L9.34025 -25.4612
L9.16847 -25.9249
L9.00487 -26.3917
L8.8495 -26.8614
L8.70239 -27.334
L8.56359 -27.8091
L8.43316 -28.2868
L8.31112 -28.7668
L8.19752 -29.249
L8.09238 -29.7333
L7.99575 -30.2194
L7.90764 -30.7074
L7.8281 -31.1969
L7.75713 -31.6879
L7.69477 -32.1803
L7.64103 -32.6737
L7.59593 -33.1682
L7.55948 -33.6636
L7.53169 -34.1597
L7.51258 -34.6563
L7.50214 -35.1534
L7.50038 -35.6507
L7.50731 -36.1481
L7.52291 -36.6454
L7.54719 -37.1426
L7.58014 -37.6394
L7.62174 -38.1358
L7.67199 -38.6314
L7.73086 -39.1263
L7.79835 -39.6202
L7.87443 -40.113
L7.95907 -40.6046
L8.05226 -41.0947
L8.15396 -41.5833
L8.26414 -42.0702
L8.38277 -42.5553
L8.50981 -43.0384
L8.64523 -43.5193
L8.78898 -43.9979
L8.94102 -44.4741
L9.1013 -44.9477
L9.26977 -45.4186
L9.44638 -45.8866
L9.63109 -46.3516
L9.82383 -46.8134
L10.0245 -47.272
L10.2332 -47.7271
L10.4496 -48.1787
L10.6739 -48.6265
L10.9059 -49.0705
L11.1455 -49.5105
L11.3927 -49.9464
L11.6473 -50.3781
L11.9094 -50.8053
L12.1789 -51.2281
L12.4556 -51.6462
L12.7394 -52.0595
L13.0304 -52.468
L13.3283 -52.8715
L13.6332 -53.2698
L13.9448 -53.6628
L14.2632 -54.0505
L14.5882 -54.4326
L14.9197 -54.8092
L15.2577 -55.18
L15.602 -55.545
L15.9524 -55.904
L16.309 -56.257
L16.6716 -56.6038
L17.0401 -56.9443
L17.4143 -57.2784
L17.7942 -57.6061
L18.1797 -57.9272
L18.5706 -58.2416
L18.9668 -58.5492
L19.3681 -58.8499
L19.7746 -59.1437
L20.186 -59.4305
L20.6022 -59.7101
L21.0231 -59.9824
L21.4485 -60.2475
L21.8784 -60.5052
L22.3126 -60.7554
L22.751 -60.9981
L23.1934 -61.2332
L23.6397 -61.4606
L24.0897 -61.6802
L24.5434 -61.892
L25.0006 -62.0959
L25.4612 -62.2919
L25.9249 -62.4799
L26.3917 -62.6598
L26.8614 -62.8315
L27.334 -62.9951
L27.8091 -63.1505
L28.2868 -63.2976
L28.7668 -63.4364
L29.249 -63.5668
L29.7333 -63.6889
L30.2194 -63.8025
L30.7074 -63.9076
L31.1969 -64.0043
L31.6879 -64.0924
L32.1803 -64.1719
L32.6737 -64.2429
L33.1682 -64.3052
L33.6636 -64.359
L34.1597 -64.4041
L34.6563 -64.4405
L35.1534 -64.4683
L35.6507 -64.4874
L36.1481 -64.4979
L36.6454 -64.4996
L37.1426 -64.4927
L37.6394 -64.4771
L38.1358 -64.4528
L38.6314 -64.4199
L39.1263 -64.3783
L39.6202 -64.328
L40.113 -64.2691
L40.6046 -64.2016
L41.0947 -64.1256
L41.5833 -64.0409
L42.0702 -63.9477
L42.5553 -63.846
L43.0384 -63.7359
z
" id="C0_2_674e418f51"/>
    </defs>
    <g clip-path="url(#p1bffca34e9)">
     <use style="fill:#ff0000;stroke:#000000;stroke-width:2.0;" x="0.0" xlink:href="#C0_0_a811fe30f3" y="72.0"/>
    </g>
    <g clip-path="url(#p1bffca34e9)">
     <use style="fill:#ffffff;stroke:#000000;stroke-width:2.0;" x="0.0" xlink:href="#C0_1_61cf720430" y="72.0"/>
    </g>
    <g clip-path="url(#p1bffca34e9)">
     <use style="fill:#ffffff;stroke:#000000;stroke-width:2.0;" x="0.0" xlink:href="#C0_2_674e418f51" y="72.0"/>
    </g>
   </g>
  </g>
 </g>
 <defs>
  <clipPath id="p1bffca34e9">
   <rect height="72.0" width="72.0" x="0.0" y="0.0"/>
  </clipPath>
 </defs>
</svg>
