<?xml version="1.0" encoding="utf-8" standalone="no"?>
<!DOCTYPE svg PUBLIC "-//W3C//DTD SVG 1.1//EN"
  "http://www.w3.org/Graphics/SVG/1.1/DTD/svg11.dtd">
<!-- Created with matplotlib (http://matplotlib.org/) -->
<svg height="72pt" version="1.1" viewBox="0 0 72 72" width="72pt" xmlns="http://www.w3.org/2000/svg" xmlns:xlink="http://www.w3.org/1999/xlink">
 <defs>
  <style type="text/css">
*{stroke-linecap:butt;stroke-linejoin:round;}
  </style>
 </defs>
 <g id="figure_1">
  <g id="patch_1">
   <path d="
M0 72
L72 72
L72 0
L0 0
z
" style="fill:none;"/>
  </g>
  <g id="axes_1">
   <g id="PatchCollection_1">
    <defs>
     <path d="
M36 -7.5
C43.5583 -7.5 50.808 -10.5029 56.1525 -15.8475
C61.4971 -21.192 64.5 -28.4417 64.5 -36
C64.5 -43.5583 61.4971 -50.808 56.1525 -56.1525
C50.808 -61.4971 43.5583 -64.5 36 -64.5
C28.4417 -64.5 21.192 -61.4971 15.8475 -56.1525
C10.5029 -50.808 7.5 -43.5583 7.5 -36
C7.5 -28.4417 10.5029 -21.192 15.8475 -15.8475
C21.192 -10.5029 28.4417 -7.5 36 -7.5
z
" id="C0_0_a811fe30f3"/>
     <path d="
M12.0761 -20.5741
L12.0889 -20.9743
L12.115 -21.3696
L12.1535 -21.7601
L12.2033 -22.1455
L12.2639 -22.5259
L12.3343 -22.901
L12.4138 -23.2708
L12.5019 -23.6354
L12.5979 -23.9946
L12.7013 -24.3486
L12.8114 -24.6972
L12.9278 -25.0406
L13.0501 -25.3787
L13.1779 -25.7115
L13.3106 -26.0392
L13.448 -26.3617
L13.5897 -26.6792
L13.7354 -26.9917
L13.8847 -27.2991
L14.0374 -27.6018
L14.1932 -27.8996
L14.3519 -28.1926
L14.5133 -28.4811
L14.6771 -28.7649
L14.8431 -29.0443
L15.0111 -29.3192
L15.1811 -29.5899
L15.3527 -29.8563
L15.526 -30.1186
L15.7007 -30.3769
L15.8767 -30.6312
L16.0539 -30.8816
L16.2322 -31.1283
L16.4115 -31.3713
L16.5917 -31.6106
L16.7728 -31.8465
L16.9546 -32.079
L17.1372 -32.3081
L17.3204 -32.534
L17.5041 -32.7567
L17.6884 -32.9764
L17.8733 -33.193
L18.0586 -33.4068
L18.2443 -33.6177
L18.4304 -33.8259
L18.617 -34.0314
L18.8039 -34.2343
L18.9911 -34.4347
L19.1787 -34.6326
L19.3667 -34.8282
L19.5549 -35.0215
L19.7436 -35.2125
L19.9325 -35.4014
L20.1218 -35.5882
L20.3114 -35.773
L20.5015 -35.9558
L20.6918 -36.1367
L20.8826 -36.3157
L21.0738 -36.493
L21.2653 -36.6686
L21.4574 -36.8424
L21.6499 -37.0147
L21.8428 -37.1854
L22.0363 -37.3547
L22.2303 -37.5224
L22.4249 -37.6888
L22.6201 -37.8538
L22.8159 -38.0175
L23.0124 -38.18
L23.2096 -38.3413
L23.4075 -38.5014
L23.6061 -38.6604
L23.8056 -38.8183
L24.0059 -38.9751
L24.4093 -39.131
L24.6124 -39.2859
L24.8165 -39.44
L25.0216 -39.5931
L25.2279 -39.7454
L25.4353 -39.8968
L25.6439 -40.0475
L25.8538 -40.1975
L26.065 -40.3467
L26.2775 -40.4953
L26.4914 -40.6432
L26.7068 -40.7905
L26.9237 -40.9372
L27.1421 -41.0833
L27.3622 -41.2289
L27.584 -41.3739
L27.8075 -41.5185
L28.0328 -41.6625
L28.2599 -41.8061
L28.489 -41.9493
L28.7201 -42.092
L28.9532 -42.2343
L29.1884 -42.3762
L29.4258 -42.5178
L29.6655 -42.6589
L29.9074 -42.7997
L30.1517 -42.9401
L30.3985 -43.0802
L30.6478 -43.2199
L30.8997 -43.3592
L31.1542 -43.4982
L31.4115 -43.6368
L31.6715 -43.775
L31.9344 -43.9129
L32.2003 -44.0504
L32.4691 -44.1874
L32.741 -44.3241
L33.0161 -44.4602
L33.2944 -44.5959
L33.5759 -44.7311
L33.8608 -44.8658
L34.1491 -44.9999
L34.4408 -45.1333
L34.7361 -45.2661
L35.035 -45.3982
L35.3375 -45.5295
L35.6437 -45.6599
L35.9536 -45.7894
L36.2673 -45.918
L36.5849 -46.0455
L36.9063 -46.1718
L37.2316 -46.2969
L37.5608 -46.4206
L37.8939 -46.5428
L38.231 -46.6635
L38.572 -46.7824
L38.9169 -46.8994
L39.2658 -47.0144
L39.6185 -47.1273
L39.975 -47.2377
L40.3353 -47.3456
L40.6993 -47.4506
L41.0669 -47.5527
L41.438 -47.6516
L41.8125 -47.7469
L42.1902 -47.8385
L42.5711 -47.926
L42.9548 -48.0091
L43.3412 -48.0874
L43.73 -48.1605
L44.121 -48.2282
L44.5138 -48.2898
L44.9082 -48.3449
L45.3036 -48.393
L45.6998 -48.4335
L46.0962 -48.4657
L46.4922 -48.4891
L46.8874 -48.5027
L47.281 -48.5059
L47.6723 -48.4976
L48.0606 -48.477
L48.4449 -48.4429
L48.8244 -48.3944
L49.198 -48.3301
L49.5648 -48.249
L49.9235 -48.1497
L50.2731 -48.0311
L50.6125 -47.8921
L50.9406 -47.7317
L51.2565 -47.5491
L51.5593 -47.3438
L51.8483 -47.1157
L52.1229 -46.8648
L52.3828 -46.5918
L52.6278 -46.2973
L52.8579 -45.9825
L53.0731 -45.6488
L53.2737 -45.2977
L53.46 -44.9309
L53.6323 -44.5499
L53.7911 -44.1565
L53.9367 -43.7522
L54.0696 -43.3386
L54.1902 -42.917
L54.2989 -42.4888
L54.3963 -42.0553
L54.4826 -41.6175
L54.5583 -41.1765
L54.6237 -40.7332
L54.6793 -40.2884
L54.7254 -39.8428
L54.7624 -39.3972
L54.7906 -38.9522
L54.8103 -38.5083
L54.8219 -38.066
L54.8256 -37.6257
L54.8219 -37.1878
L54.8109 -36.7528
L54.7929 -36.3208
L54.7683 -35.8922
L54.7373 -35.4673
L54.7002 -35.0461
L54.6571 -34.629
L54.6085 -34.216
L54.5544 -33.8073
L54.4951 -33.4029
L54.4309 -33.0031
L54.3619 -32.6079
L54.2883 -32.2173
L54.2103 -31.8313
L54.1282 -31.45
L54.0421 -31.0735
L53.952 -30.7016
L53.8583 -30.3345
L53.7611 -29.972
L53.6605 -29.6142
L53.5566 -29.2611
L53.4495 -28.9125
L53.3394 -28.5685
L53.2265 -28.2291
L53.1107 -27.894
L52.9923 -27.5634
L52.8712 -27.2371
L52.7477 -26.915
L52.6217 -26.5972
L52.4934 -26.2835
L52.3628 -25.9738
L52.23 -25.6682
L52.095 -25.3664
L51.9579 -25.0685
L51.8188 -24.7744
L51.6777 -24.4839
L51.5347 -24.1971
L51.3897 -23.9138
L51.2429 -23.634
L51.0942 -23.3575
L50.9437 -23.0844
L50.7913 -22.8146
L50.6372 -22.5478
L50.4813 -22.2842
L50.3237 -22.0237
L50.1643 -21.766
L50.0032 -21.5113
L49.8403 -21.2594
L49.6757 -21.0103
L49.5093 -20.7638
L49.3412 -20.52
L49.1713 -20.2788
L48.9996 -20.04
L48.8262 -19.8037
L48.6509 -19.5699
L48.4738 -19.3383
L48.2948 -19.1091
L48.114 -18.8821
L47.9313 -18.6572
L47.7466 -18.4346
L47.56 -18.214
L47.3713 -17.9955
L47.1806 -17.7789
L46.9878 -17.5644
L46.7929 -17.3518
L46.5959 -17.1411
L46.3966 -16.9323
L46.195 -16.7253
L45.9912 -16.5201
L45.7849 -16.3166
L45.5763 -16.115
L45.3651 -15.9151
L45.1514 -15.7169
L44.9351 -15.5203
L44.7162 -15.3255
L44.4945 -15.1324
L44.2699 -14.9409
L44.0425 -14.7511
L43.8122 -14.5629
L43.5788 -14.3764
L43.3423 -14.1915
L43.1025 -14.0084
L42.8596 -13.8269
L42.6132 -13.6471
L42.3634 -13.469
L42.11 -13.2926
L41.853 -13.1181
L41.5923 -12.9453
L41.3277 -12.7743
L41.0592 -12.6052
L40.7866 -12.4381
L40.5099 -12.2729
L40.229 -12.1097
L39.9437 -11.9487
L39.6539 -11.7897
L39.3596 -11.6331
L39.0605 -11.4787
L38.7567 -11.3267
L38.4479 -11.1773
L38.1341 -11.0304
L37.8151 -10.8863
L37.4908 -10.745
L37.1612 -10.6066
L36.826 -10.4714
L36.4852 -10.3394
L36.1387 -10.2108
L35.7863 -10.0858
L35.4279 -9.96462
L35.0635 -9.84734
L34.6929 -9.73422
L34.316 -9.62547
L33.9327 -9.52132
L33.5429 -9.422
L33.1466 -9.32778
L32.7437 -9.23892
L32.3341 -9.1557
L31.9177 -9.07842
L31.4946 -9.00739
L31.0647 -8.94293
L30.6279 -8.88539
L30.1843 -8.83513
L29.734 -8.79251
L29.2769 -8.75792
L28.8132 -8.73176
L28.3428 -8.71444
L27.8661 -8.70639
L27.3845 -8.70806
L26.9117 -8.83343
L26.4416 -8.98793
L25.9745 -9.15066
L25.5104 -9.32156
L25.0495 -9.5006
L24.592 -9.6877
L24.1379 -9.88282
L23.6875 -10.0859
L23.2407 -10.2969
L22.7979 -10.5157
L22.3591 -10.7422
L21.9245 -10.9765
L21.4941 -11.2184
L21.0682 -11.4678
L20.6468 -11.7247
L20.2301 -11.989
L19.8182 -12.2606
L19.4112 -12.5394
L19.0093 -12.8254
L18.6125 -13.1184
L18.2211 -13.4185
L17.835 -13.7254
L17.4545 -14.039
L17.0797 -14.3594
L16.7106 -14.6864
L16.3474 -15.0198
L15.9901 -15.3597
L15.639 -15.7058
L15.2941 -16.0581
L14.9554 -16.4165
L14.6232 -16.7808
L14.2975 -17.151
L13.9784 -17.527
L13.666 -17.9086
L13.3605 -18.2956
L13.0618 -18.6881
L12.7701 -19.0859
L12.4855 -19.4888
z
" id="C0_1_0daeb05a37"/>
     <path d="
M44.5513 -63.0725
L44.9542 -62.8034
L45.3549 -62.5266
L45.7531 -62.2421
L46.1487 -61.9501
L46.5416 -61.6509
L46.9315 -61.3447
L47.3184 -61.0318
L47.7022 -60.7126
L48.0826 -60.3875
L48.4597 -60.0569
L48.8334 -59.7215
L49.2035 -59.3817
L49.5702 -59.0384
L49.9335 -58.6922
L50.2935 -58.3439
L50.6503 -57.9947
L51.0041 -57.6455
L51.3553 -57.2974
L51.7041 -56.9517
L52.051 -56.6097
L52.3965 -56.2728
L52.7412 -55.9423
L53.0856 -55.6198
L53.4304 -55.3066
L53.7762 -55.0038
L54.1236 -54.7125
L54.4732 -54.4337
L54.8254 -54.1676
L55.1806 -53.9146
L55.5388 -53.6745
L55.9002 -53.4468
L56.2646 -53.2308
L56.6316 -53.0255
L57.0011 -52.8297
L57.3724 -52.6423
L57.7452 -52.4619
L58.1188 -52.2874
L58.4927 -52.1175
L58.8665 -51.951
L59.2394 -51.787
L59.4892 -51.6245
L59.2039 -52.1403
L58.9116 -52.5478
L58.6123 -52.9502
L58.3061 -53.3475
L57.9931 -53.7395
L57.6734 -54.1261
L57.3471 -54.5072
L57.0143 -54.8826
L56.6751 -55.2523
L56.3296 -55.6161
L55.9779 -55.9739
L55.6201 -56.3257
L55.2564 -56.6713
L54.8868 -57.0105
L54.5114 -57.3434
L54.1304 -57.6698
L53.7438 -57.9895
L53.3519 -58.3026
L52.9547 -58.6089
L52.5523 -58.9083
L52.1449 -59.2007
L51.7325 -59.486
L51.3154 -59.7642
L50.8936 -60.0352
L50.4672 -60.2988
L50.0365 -60.555
L49.6015 -60.8038
L49.1623 -61.045
L48.7191 -61.2785
L48.2721 -61.5044
L47.8213 -61.7225
L47.3669 -61.9327
L46.909 -62.1351
L46.4479 -62.3295
L45.9835 -62.5159
L45.5161 -62.6942
z
" id="C0_2_799af4ac33"/>
    </defs>
    <g clip-path="url(#p1bffca34e9)">
     <use style="fill:#ff0000;stroke:#000000;stroke-width:2.0;" x="0.0" xlink:href="#C0_0_a811fe30f3" y="72.0"/>
    </g>
    <g clip-path="url(#p1bffca34e9)">
     <use style="fill:#ffffff;stroke:#000000;stroke-width:2.0;" x="0.0" xlink:href="#C0_1_0daeb05a37" y="72.0"/>
    </g>
    <g clip-path="url(#p1bffca34e9)">
     <use style="fill:#ffffff;stroke:#000000;stroke-width:2.0;" x="0.0" xlink:href="#C0_2_799af4ac33" y="72.0"/>
    </g>
   </g>
  </g>
 </g>
 <defs>
  <clipPath id="p1bffca34e9">
   <rect height="72.0" width="72.0" x="0.0" y="0.0"/>
  </clipPath>
 </defs>
</svg>
