<?xml version="1.0" encoding="utf-8" standalone="no"?>
<!DOCTYPE svg PUBLIC "-//W3C//DTD SVG 1.1//EN"
  "http://www.w3.org/Graphics/SVG/1.1/DTD/svg11.dtd">
<!-- Created with matplotlib (http://matplotlib.org/) -->
<svg height="72pt" version="1.1" viewBox="0 0 72 72" width="72pt" xmlns="http://www.w3.org/2000/svg" xmlns:xlink="http://www.w3.org/1999/xlink">
 <defs>
  <style type="text/css">
*{stroke-linecap:butt;stroke-linejoin:round;}
  </style>
 </defs>
 <g id="figure_1">
  <g id="patch_1">
   <path d="
M0 72
L72 72
L72 0
L0 0
z
" style="fill:none;"/>
  </g>
  <g id="axes_1">
   <g id="PatchCollection_1">
    <defs>
     <path d="
M36 -7.5
C43.5583 -7.5 50.808 -10.5029 56.1525 -15.8475
C61.4971 -21.192 64.5 -28.4417 64.5 -36
C64.5 -43.5583 61.4971 -50.808 56.1525 -56.1525
C50.808 -61.4971 43.5583 -64.5 36 -64.5
C28.4417 -64.5 21.192 -61.4971 15.8475 -56.1525
C10.5029 -50.808 7.5 -43.5583 7.5 -36
C7.5 -28.4417 10.5029 -21.192 15.8475 -15.8475
C21.192 -10.5029 28.4417 -7.5 36 -7.5
z
" id="C0_0_a811fe30f3"/>
     <path d="
M53.2642 -58.5862
L52.8617 -58.6813
L52.4683 -58.7559
L52.0853 -58.8094
L51.714 -58.8417
L51.3552 -58.8525
L51.0101 -58.8418
L50.6795 -58.8096
L50.3639 -58.7562
L50.0638 -58.6819
L49.7794 -58.5872
L49.5107 -58.4728
L49.2576 -58.3394
L49.0197 -58.1879
L48.7965 -58.0192
L48.5872 -57.8345
L48.3912 -57.6347
L48.2075 -57.4209
L48.0354 -57.1942
L47.8738 -56.9558
L47.722 -56.7066
L47.579 -56.4477
L47.444 -56.18
L47.3162 -55.9044
L47.1948 -55.6218
L47.0793 -55.333
L46.9689 -55.0388
L46.8631 -54.7397
L46.7614 -54.4365
L46.6633 -54.1297
L46.5684 -53.8199
L46.4763 -53.5076
L46.3867 -53.1933
L46.2992 -52.8772
L46.2137 -52.56
L46.1299 -52.2418
L46.0475 -51.9231
L45.9664 -51.604
L45.8865 -51.2849
L45.8076 -50.9661
L45.7296 -50.6476
L45.6523 -50.3298
L45.5757 -50.0128
L45.4997 -49.6967
L45.4242 -49.3818
L45.3492 -49.0681
L45.2746 -48.7557
L45.2003 -48.4448
L45.1264 -48.1354
L45.0527 -47.8276
L44.9793 -47.5214
L44.9061 -47.217
L44.8331 -46.9144
L44.7603 -46.6135
L44.6876 -46.3145
L44.6151 -46.0173
L44.5426 -45.722
L44.4703 -45.4285
L44.3981 -45.137
L44.326 -44.8473
L44.2539 -44.5594
L44.1819 -44.2734
L44.1099 -43.9893
L44.038 -43.707
L43.9661 -43.4264
L43.8943 -43.1477
L43.8225 -42.8706
L43.7506 -42.5953
L43.6788 -42.3216
L43.607 -42.0496
L43.5351 -41.7792
L43.4633 -41.5103
L43.3914 -41.243
L43.3194 -40.9771
L43.2474 -40.7127
L43.1754 -40.4497
L43.1033 -40.1879
L43.0311 -39.9275
L42.9588 -39.6684
L42.8864 -39.4104
L42.8139 -39.1536
L42.7413 -38.8978
L42.6685 -38.6431
L42.5956 -38.3895
L42.5225 -38.1367
L42.4493 -37.8849
L42.3759 -37.6339
L42.3023 -37.3837
L42.2285 -37.1342
L42.1545 -36.8855
L42.0803 -36.6373
L42.0058 -36.3898
L41.931 -36.1428
L41.856 -35.8962
L41.7807 -35.6501
L41.7051 -35.4044
L41.6291 -35.159
L41.5529 -34.9139
L41.3992 -34.669
L41.3219 -34.4242
L41.2441 -34.1796
L41.1659 -33.935
L41.0873 -33.6905
L41.0083 -33.4459
L40.9287 -33.2012
L40.8487 -32.9563
L40.7682 -32.7113
L40.6872 -32.466
L40.6056 -32.2205
L40.5234 -31.9746
L40.4407 -31.7282
L40.3574 -31.4815
L40.2735 -31.2342
L40.1889 -30.9864
L40.1037 -30.738
L40.0178 -30.4889
L39.9312 -30.2392
L39.844 -29.9887
L39.7559 -29.7374
L39.6672 -29.4852
L39.5776 -29.2322
L39.4873 -28.9783
L39.3961 -28.7233
L39.3041 -28.4673
L39.2113 -28.2103
L39.1176 -27.9522
L39.023 -27.6929
L38.9276 -27.4324
L38.8312 -27.1706
L38.7338 -26.9076
L38.6356 -26.6433
L38.5363 -26.3776
L38.4361 -26.1105
L38.3349 -25.8421
L38.2327 -25.5721
L38.1295 -25.3007
L38.0253 -25.0278
L37.9201 -24.7534
L37.8138 -24.4774
L37.7066 -24.1998
L37.5983 -23.9207
L37.489 -23.6399
L37.3788 -23.3576
L37.2675 -23.0736
L37.1553 -22.7881
L37.0422 -22.5009
L36.9282 -22.2121
L36.8133 -21.9217
L36.6976 -21.6297
L36.5812 -21.3362
L36.464 -21.0412
L36.3462 -20.7446
L36.2279 -20.4467
L36.1092 -20.1473
L35.9901 -19.8465
L35.8708 -19.5445
L35.7514 -19.2412
L35.6321 -18.9368
L35.513 -18.6313
L35.3944 -18.3248
L35.2765 -18.0175
L35.1596 -17.7094
L35.0439 -17.4006
L34.9297 -17.0913
L34.8173 -16.7816
L34.7073 -16.4717
L34.6 -16.1617
L34.4958 -15.8517
L34.3954 -15.542
L34.2993 -15.2327
L34.2082 -14.9241
L34.1227 -14.6162
L34.0437 -14.3094
L33.972 -14.0039
L33.9087 -13.6999
L33.8545 -13.3977
L33.8108 -13.0975
L33.7786 -12.7996
L33.7591 -12.5043
L33.7537 -12.2119
L33.7636 -11.9227
L33.7903 -11.6371
L33.835 -11.3554
L33.899 -11.0781
L33.9837 -10.8056
L34.09 -10.5382
L34.2191 -10.2764
L34.3716 -10.0208
L34.5482 -9.7718
L34.7493 -9.52994
L34.9749 -9.29574
L35.2248 -9.06975
L35.4987 -8.8525
L35.796 -8.64451
L36.1159 -8.44629
L36.4572 -8.25835
L36.8191 -8.08113
L37.2001 -7.91508
L37.599 -7.76058
L38.0994 -7.61801
L38.5952 -7.57743
L39.0901 -7.6184
L39.5841 -7.66802
L40.077 -7.72626
L40.5686 -7.79312
L41.0589 -7.86857
L41.5476 -7.95259
L42.0347 -8.04515
L42.5199 -8.14623
L43.0031 -8.25579
L43.4842 -8.3738
L43.963 -8.50023
L44.4393 -8.63503
L44.9131 -8.77817
L45.3842 -8.92961
L45.8524 -9.08929
L46.3177 -9.25716
L46.7798 -9.43318
L47.2386 -9.6173
L47.6939 -9.80945
L48.1457 -10.0096
L48.5939 -10.2176
L49.0381 -10.4335
L49.4784 -10.6572
L49.9146 -10.8886
L50.3466 -11.1277
L50.7742 -11.3743
L51.1973 -11.6284
L51.6158 -11.89
L52.0295 -12.1589
L52.4383 -12.4351
L52.8421 -12.7184
L53.2408 -13.0088
L53.6342 -13.3063
L54.0223 -13.6106
L54.4049 -13.9218
L54.7818 -14.2397
L55.1531 -14.5642
L55.5185 -14.8953
L55.8779 -15.2327
L56.2314 -15.5765
L56.5786 -15.9266
L56.9196 -16.2827
L57.2542 -16.6449
L57.5823 -17.0129
L57.9039 -17.3867
L58.2188 -17.7662
L58.5269 -18.1513
L58.8281 -18.5418
L59.1224 -18.9376
L59.4097 -19.3386
L59.6898 -19.7447
L59.9628 -20.1557
L60.2284 -20.5716
L60.4866 -20.9921
L60.7374 -21.4173
L60.9806 -21.8468
L61.2162 -22.2807
L61.4442 -22.7188
L61.6644 -23.1609
L61.8768 -23.6069
L62.0813 -24.0567
L62.2778 -24.5101
L62.4664 -24.967
L62.6469 -25.4273
L62.8192 -25.8909
L62.9834 -26.3574
L63.1394 -26.827
L63.2871 -27.2993
L63.4265 -27.7743
L63.5576 -28.2517
L63.6802 -28.7316
L63.7945 -29.2136
L63.9002 -29.6978
L63.9975 -30.1838
L64.0862 -30.6716
L64.1664 -31.161
L64.238 -31.652
L64.301 -32.1442
L64.3553 -32.6376
L64.4011 -33.132
L64.4381 -33.6273
L64.4666 -34.1234
L64.4863 -34.62
L64.4974 -35.117
L64.4998 -35.6143
L64.4935 -36.1117
L64.4785 -36.609
L64.4549 -37.1062
L64.4226 -37.6031
L64.3816 -38.0994
L64.332 -38.5952
L64.2737 -39.0901
L64.2069 -39.5841
L64.1314 -40.077
L64.0474 -40.5686
L63.9549 -41.0589
L63.8538 -41.5476
L63.7442 -42.0347
L63.6262 -42.5199
L63.4998 -43.0031
L63.365 -43.4842
L63.2218 -43.963
L63.0704 -44.4393
L62.9107 -44.9131
L62.7428 -45.3842
L62.5668 -45.8524
L62.3827 -46.3177
L62.1906 -46.7798
L61.9904 -47.2386
L61.7824 -47.6939
L61.5665 -48.1457
L61.3428 -48.5939
L61.1114 -49.0381
L60.8723 -49.4784
L60.6257 -49.9146
L60.3716 -50.3466
L60.11 -50.7742
L59.8411 -51.1973
L59.5649 -51.6158
L59.2816 -52.0295
L58.9912 -52.4383
L58.6937 -52.8421
L58.3894 -53.2408
L58.0782 -53.6342
L57.7603 -54.0223
L57.4358 -54.4049
L57.1047 -54.7818
L56.7673 -55.1531
L56.4235 -55.5185
L56.0734 -55.8779
L55.7173 -56.2314
L55.3551 -56.5786
L54.9871 -56.9196
L54.6133 -57.2542
L54.2338 -57.5823
L53.8487 -57.9039
z
" id="C0_1_1f688bcab7"/>
     <path d="
M33.9973 -64.3457
L33.5949 -64.1611
L33.187 -63.9736
L32.7747 -63.7826
L32.3593 -63.588
L31.9417 -63.3896
L31.5231 -63.1872
L31.1042 -62.9806
L30.6861 -62.7698
L30.2694 -62.5549
L29.8547 -62.3357
L29.4428 -62.1124
L29.0342 -61.885
L28.6293 -61.6535
L28.2287 -61.4182
L27.8325 -61.1792
L27.4413 -60.9365
L27.0553 -60.6903
L26.6748 -60.4409
L26.2998 -60.1883
L25.9307 -59.9327
L25.5676 -59.6744
L25.2105 -59.4133
L24.8596 -59.1498
L24.515 -58.884
L24.1766 -58.6161
L23.8445 -58.3461
L23.5187 -58.0743
L23.1992 -57.8008
L22.886 -57.5257
L22.579 -57.2492
L22.2783 -56.9714
L21.9837 -56.6923
L21.6952 -56.4122
L21.4127 -56.1312
L21.1362 -55.8492
L20.8655 -55.5665
L20.6006 -55.283
L20.3415 -54.9989
L20.0879 -54.7143
L19.8399 -54.4292
L19.5973 -54.1437
L19.3601 -53.8578
L19.1281 -53.5715
L18.9012 -53.285
L18.6794 -52.9982
L18.4626 -52.7112
L18.2506 -52.4241
L18.0433 -52.1367
L17.8408 -51.8492
L17.6428 -51.5616
L17.4493 -51.2739
L17.2602 -50.986
L17.0755 -50.6981
L16.895 -50.41
L16.7186 -50.1218
L16.5463 -49.8335
L16.378 -49.5451
L16.2137 -49.2565
L16.0531 -48.9677
L15.8964 -48.6788
L15.7434 -48.3897
L15.594 -48.1003
L15.4482 -47.8108
L15.3059 -47.5209
L15.1671 -47.2307
L15.0317 -46.9403
L14.8996 -46.6494
L14.7709 -46.3581
L14.6454 -46.0665
L14.5232 -45.7743
L14.4041 -45.4816
L14.2882 -45.1884
L14.1753 -44.8946
L14.0656 -44.6002
L13.9588 -44.3051
L13.8551 -44.0092
L13.7544 -43.7126
L13.6566 -43.4152
L13.5618 -43.1169
L13.4699 -42.8177
L13.3809 -42.5176
L13.2948 -42.2164
L13.2116 -41.9142
L13.1313 -41.6108
L13.0538 -41.3063
L12.9793 -41.0006
L12.9076 -40.6936
L12.8389 -40.3853
L12.773 -40.0756
L12.71 -39.7644
L12.65 -39.4517
L12.5929 -39.1375
L12.5387 -38.8217
L12.4876 -38.5043
L12.4395 -38.1851
L12.3944 -37.8641
L12.3524 -37.5413
L12.3135 -37.2167
L12.2778 -36.89
L12.2452 -36.5614
L12.216 -36.2307
L12.19 -35.898
L12.1673 -35.563
L12.1481 -35.2259
L12.1323 -34.8865
L12.1201 -34.5447
L12.1115 -34.2007
L12.1065 -33.8542
L12.1053 -33.5052
L12.108 -33.1538
L12.1145 -32.7998
L12.125 -32.4433
L12.1396 -32.0842
L12.1584 -31.7224
L12.1814 -31.358
L12.2089 -30.9908
L12.2408 -30.621
L12.2772 -30.2484
L12.3184 -29.8732
L12.3643 -29.4951
L12.4151 -29.1144
L12.471 -28.7309
L12.532 -28.3447
L12.5982 -27.9558
L12.6698 -27.5642
L12.7468 -27.1701
L12.8295 -26.7733
L12.9178 -26.374
L13.012 -25.9723
L13.112 -25.5682
L13.2181 -25.1618
L13.3303 -24.7533
L13.4486 -24.3426
L13.5732 -23.9301
L13.7042 -23.5157
L13.8415 -23.0996
L13.9853 -22.6821
L14.1355 -22.2633
L14.2921 -21.8434
L14.4551 -21.4226
L14.6246 -21.0012
L14.8003 -20.5793
L14.9821 -20.1574
L15.17 -19.7356
L15.3638 -19.3143
L15.5631 -18.8937
L15.7677 -18.4743
L15.9773 -18.0563
L16.1914 -17.6402
L16.4096 -17.2263
L16.6313 -16.815
L16.8558 -16.4067
L17.0825 -16.0019
L17.3106 -15.6009
L17.539 -15.2042
L17.7669 -14.8123
L17.9931 -14.4255
L18.2165 -14.0444
L17.9922 -13.6692
L17.6094 -13.91
L17.2322 -14.2276
L16.8607 -14.5519
L16.4951 -14.8827
L16.1354 -15.22
L15.7818 -15.5635
L15.4343 -15.9133
L15.0931 -16.2693
L14.7582 -16.6312
L14.4299 -16.999
L14.1081 -17.3726
L13.7929 -17.7519
L13.4845 -18.1368
L13.183 -18.527
L12.8885 -18.9227
L12.6009 -19.3235
L12.3205 -19.7294
L12.0474 -20.1402
L11.7815 -20.5559
L11.523 -20.9763
L11.2719 -21.4012
L11.0284 -21.8306
L10.7925 -22.2644
L10.5642 -22.7023
L10.3437 -23.1442
L10.1311 -23.5901
L9.92626 -24.0398
L9.7294 -24.4931
L9.54055 -24.9499
L9.35976 -25.41
L9.18709 -25.8734
L9.02258 -26.3399
L8.86629 -26.8093
L8.71826 -27.2815
L8.57855 -27.7564
L8.44718 -28.2338
L8.32421 -28.7136
L8.20967 -29.1955
L8.1036 -29.6796
L8.00602 -30.1655
L7.91697 -30.6533
L7.83648 -31.1427
L7.76456 -31.6335
L7.70125 -32.1257
L7.64655 -32.6191
L7.60049 -33.1135
L7.56309 -33.6087
L7.53434 -34.1048
L7.51427 -34.6013
L7.50287 -35.0983
L7.50015 -35.5956
L7.50612 -36.093
L7.52076 -36.5904
L7.54408 -37.0876
L7.57607 -37.5845
L7.61671 -38.0808
L7.666 -38.5766
L7.72392 -39.0716
L7.79046 -39.5656
L7.86558 -40.0585
L7.94928 -40.5502
L8.04152 -41.0406
L8.14228 -41.5293
L8.25153 -42.0164
L8.36922 -42.5017
L8.49534 -42.985
L8.62983 -43.4662
L8.77266 -43.945
L8.92378 -44.4215
L9.08315 -44.8954
L9.25072 -45.3666
L9.42644 -45.8349
L9.61025 -46.3003
L9.8021 -46.7625
L10.0019 -47.2214
L10.2097 -47.6769
L10.4253 -48.1289
L10.6487 -48.5771
L10.8798 -49.0215
L11.1186 -49.462
L11.3649 -49.8984
L11.6188 -50.3305
L11.8801 -50.7582
L12.1487 -51.1815
L12.4246 -51.6001
L12.7076 -52.014
L12.9978 -52.423
L13.295 -52.8271
L13.5991 -53.2259
L13.91 -53.6196
L14.2276 -54.0078
L14.5519 -54.3906
L14.8827 -54.7678
L15.22 -55.1393
L15.5635 -55.5049
L15.9133 -55.8646
L16.2693 -56.2182
L16.6312 -56.5657
L16.999 -56.9069
L17.3726 -57.2418
L17.7519 -57.5701
L18.1368 -57.8919
L18.527 -58.2071
L18.9227 -58.5155
L19.3235 -58.817
L19.7294 -59.1115
L20.1402 -59.3991
L20.5559 -59.6795
L20.9763 -59.9526
L21.4012 -60.2185
L21.8306 -60.477
L22.2644 -60.7281
L22.7023 -60.9716
L23.1442 -61.2075
L23.5901 -61.4358
L24.0398 -61.6563
L24.4931 -61.8689
L24.9499 -62.0737
L25.41 -62.2706
L25.8734 -62.4594
L26.3399 -62.6402
L26.8093 -62.8129
L27.2815 -62.9774
L27.7564 -63.1337
L28.2338 -63.2817
L28.7136 -63.4215
L29.1955 -63.5528
L29.6796 -63.6758
L30.1655 -63.7903
L30.6533 -63.8964
L31.1427 -63.994
L31.6335 -64.083
L32.1257 -64.1635
L32.6191 -64.2354
L33.1135 -64.2988
z
" id="C0_2_fee0df88ba"/>
    </defs>
    <g clip-path="url(#p1bffca34e9)">
     <use style="fill:#ff0000;stroke:#000000;stroke-width:2.0;" x="0.0" xlink:href="#C0_0_a811fe30f3" y="72.0"/>
    </g>
    <g clip-path="url(#p1bffca34e9)">
     <use style="fill:#ffffff;stroke:#000000;stroke-width:2.0;" x="0.0" xlink:href="#C0_1_1f688bcab7" y="72.0"/>
    </g>
    <g clip-path="url(#p1bffca34e9)">
     <use style="fill:#ffffff;stroke:#000000;stroke-width:2.0;" x="0.0" xlink:href="#C0_2_fee0df88ba" y="72.0"/>
    </g>
   </g>
  </g>
 </g>
 <defs>
  <clipPath id="p1bffca34e9">
   <rect height="72.0" width="72.0" x="0.0" y="0.0"/>
  </clipPath>
 </defs>
</svg>
