<?xml version="1.0" encoding="utf-8" standalone="no"?>
<!DOCTYPE svg PUBLIC "-//W3C//DTD SVG 1.1//EN"
  "http://www.w3.org/Graphics/SVG/1.1/DTD/svg11.dtd">
<!-- Created with matplotlib (http://matplotlib.org/) -->
<svg height="72pt" version="1.1" viewBox="0 0 72 72" width="72pt" xmlns="http://www.w3.org/2000/svg" xmlns:xlink="http://www.w3.org/1999/xlink">
 <defs>
  <style type="text/css">
*{stroke-linecap:butt;stroke-linejoin:round;}
  </style>
 </defs>
 <g id="figure_1">
  <g id="patch_1">
   <path d="
M0 72
L72 72
L72 0
L0 0
z
" style="fill:none;"/>
  </g>
  <g id="axes_1">
   <g id="PatchCollection_1">
    <defs>
     <path d="
M36 -7.5
C43.5583 -7.5 50.808 -10.5029 56.1525 -15.8475
C61.4971 -21.192 64.5 -28.4417 64.5 -36
C64.5 -43.5583 61.4971 -50.808 56.1525 -56.1525
C50.808 -61.4971 43.5583 -64.5 36 -64.5
C28.4417 -64.5 21.192 -61.4971 15.8475 -56.1525
C10.5029 -50.808 7.5 -43.5583 7.5 -36
C7.5 -28.4417 10.5029 -21.192 15.8475 -15.8475
C21.192 -10.5029 28.4417 -7.5 36 -7.5
z
" id="C0_0_a811fe30f3"/>
     <path d="
M10.2506 -23.8788
L10.538 -23.536
L10.837 -23.2238
L11.1464 -22.9423
L11.465 -22.6912
L11.7917 -22.4695
L12.1253 -22.2758
L12.4647 -22.1085
L12.809 -21.9657
L13.1573 -21.8456
L13.5087 -21.7463
L13.8625 -21.6661
L14.2182 -21.6032
L14.5752 -21.556
L14.9329 -21.5233
L15.291 -21.5036
L15.6491 -21.4959
L16.0068 -21.499
L16.3637 -21.5121
L16.7197 -21.5343
L17.0744 -21.5647
L17.4277 -21.6029
L17.7793 -21.648
L18.129 -21.6996
L18.4768 -21.7571
L18.8223 -21.8201
L19.1655 -21.888
L19.5063 -21.9606
L19.8445 -22.0375
L20.1802 -22.1183
L20.5131 -22.2028
L20.8432 -22.2906
L21.1705 -22.3814
L21.495 -22.4751
L21.8164 -22.5714
L22.135 -22.6702
L22.4506 -22.7711
L22.7631 -22.8741
L23.0727 -22.9789
L23.3793 -23.0855
L23.6829 -23.1937
L23.9835 -23.3033
L24.2811 -23.4143
L24.5758 -23.5265
L24.8676 -23.6398
L25.1564 -23.7541
L25.4425 -23.8694
L25.7257 -23.9855
L26.0061 -24.1025
L26.2838 -24.2201
L26.5588 -24.3384
L26.8312 -24.4574
L27.101 -24.5769
L27.3682 -24.6969
L27.633 -24.8174
L27.8953 -24.9384
L28.1552 -25.0598
L28.4129 -25.1815
L28.6682 -25.3037
L28.9214 -25.4261
L29.1724 -25.5489
L29.4214 -25.672
L29.6683 -25.7954
L29.9132 -25.9191
L30.1563 -26.043
L30.3975 -26.1672
L30.6369 -26.2918
L30.8746 -26.4165
L31.1106 -26.5416
L31.345 -26.6669
L31.5779 -26.7926
L31.8093 -26.9185
L32.0392 -27.0447
L32.2678 -27.1712
L32.4951 -27.2981
L32.7212 -27.4253
L32.946 -27.5528
L33.1697 -27.6807
L33.3924 -27.809
L33.614 -27.9377
L33.8346 -28.0668
L34.0544 -28.1964
L34.2733 -28.3264
L34.4914 -28.4569
L34.7087 -28.5879
L34.9254 -28.7195
L35.1414 -28.8516
L35.3568 -28.9842
L35.5717 -29.1175
L35.7862 -29.2515
L36.2138 -29.3861
L36.4271 -29.5214
L36.6401 -29.6574
L36.8529 -29.7942
L37.0655 -29.9317
L37.2781 -30.0701
L37.4905 -30.2094
L37.7029 -30.3496
L37.9153 -30.4907
L38.1278 -30.6327
L38.3404 -30.7758
L38.5532 -30.9199
L38.7662 -31.0651
L38.9795 -31.2114
L39.193 -31.3589
L39.4069 -31.5076
L39.6212 -31.6576
L39.8359 -31.8089
L40.0511 -31.9615
L40.2668 -32.1155
L40.4831 -32.2709
L40.6999 -32.4278
L40.9174 -32.5863
L41.1356 -32.7463
L41.3545 -32.908
L41.5742 -33.0713
L41.7946 -33.2364
L42.0159 -33.4033
L42.238 -33.5721
L42.461 -33.7427
L42.6849 -33.9153
L42.9098 -34.09
L43.1356 -34.2667
L43.3624 -34.4455
L43.5902 -34.6266
L43.8191 -34.8099
L44.049 -34.9955
L44.28 -35.1835
L44.512 -35.374
L44.7451 -35.5669
L44.9792 -35.7624
L45.2145 -35.9606
L45.4508 -36.1614
L45.6881 -36.365
L45.9265 -36.5715
L46.1659 -36.7808
L46.4063 -36.9931
L46.6476 -37.2084
L46.8898 -37.4267
L47.1329 -37.6482
L47.3767 -37.8729
L47.6213 -38.1009
L47.8665 -38.3322
L48.1123 -38.5668
L48.3586 -38.8049
L48.6051 -39.0464
L48.8519 -39.2915
L49.0988 -39.5401
L49.3456 -39.7924
L49.5921 -40.0484
L49.8382 -40.308
L50.0836 -40.5714
L50.3282 -40.8385
L50.5716 -41.1095
L50.8135 -41.3843
L51.0538 -41.6629
L51.2919 -41.9455
L51.5276 -42.2319
L51.7603 -42.5222
L51.9898 -42.8164
L52.2154 -43.1145
L52.4366 -43.4165
L52.6528 -43.7225
L52.8632 -44.0323
L53.0672 -44.3461
L53.2638 -44.6639
L53.4521 -44.9855
L53.631 -45.311
L53.7994 -45.6405
L53.9559 -45.9739
L54.099 -46.3113
L54.2271 -46.6526
L54.3386 -46.9978
L54.4314 -47.347
L54.5035 -47.7
L54.553 -48.0569
L54.5777 -48.4175
L54.5757 -48.7816
L54.5453 -49.1489
L54.4852 -49.5191
L54.3943 -49.8915
L54.2723 -50.2656
L54.1193 -50.6405
L53.9361 -51.0153
L53.7239 -51.389
L53.4841 -51.7606
L53.2188 -52.1289
L52.9298 -52.4928
L52.6192 -52.8516
L52.2891 -53.2041
L51.9415 -53.5495
L51.5783 -53.8873
L51.2011 -54.2167
L50.8117 -54.5371
L50.4116 -54.8482
L50.002 -55.1496
L49.5842 -55.441
L49.1595 -55.7222
L48.7288 -55.993
L48.2931 -56.2533
L47.8533 -56.5031
L47.4101 -56.7422
L46.9644 -56.9709
L46.5166 -57.189
L46.0676 -57.3967
L45.6177 -57.5941
L45.1676 -57.7813
L44.7177 -57.9585
L44.2684 -58.1259
L43.8201 -58.2835
L43.3731 -58.4316
L42.9278 -58.5704
L42.4844 -58.7001
L42.0433 -58.821
L41.6045 -58.9331
L41.1684 -59.0368
L40.7351 -59.1323
L40.3048 -59.2197
L39.8776 -59.2993
L39.4536 -59.3714
L39.033 -59.436
L38.6158 -59.4936
L38.2021 -59.5441
L37.7919 -59.588
L37.3854 -59.6253
L36.9825 -59.6562
L36.5833 -59.681
L36.1877 -59.6998
L35.7959 -59.7128
L35.4077 -59.7202
L35.0232 -59.7222
L34.6424 -59.7188
L34.2652 -59.7103
L33.8916 -59.6968
L33.5216 -59.6785
L33.1551 -59.6554
L32.7921 -59.6278
L32.4326 -59.5957
L32.0764 -59.5593
L31.7237 -59.5186
L31.3742 -59.4738
L31.0279 -59.425
L30.6849 -59.3723
L30.345 -59.3157
L30.0081 -59.2554
L29.6742 -59.1914
L29.3433 -59.1238
L29.0152 -59.0527
L28.69 -58.9781
L28.3675 -58.9001
L28.0477 -58.8187
L27.7305 -58.7341
L27.4158 -58.6461
L27.1037 -58.555
L26.794 -58.4606
L26.4867 -58.3632
L26.1816 -58.2625
L25.8789 -58.1588
L25.5783 -58.052
L25.2798 -57.9422
L24.9834 -57.8293
L24.689 -57.7133
L24.3966 -57.5943
L24.1061 -57.4723
L23.8174 -57.3472
L23.5305 -57.2191
L23.2454 -57.0879
L22.9619 -56.9537
L22.6801 -56.8164
L22.4 -56.6759
L22.1213 -56.5324
L21.8442 -56.3857
L21.5685 -56.2357
L21.2943 -56.0826
L21.0215 -55.9263
L20.75 -55.7666
L20.4799 -55.6036
L20.211 -55.4372
L19.9434 -55.2674
L19.677 -55.094
L19.4119 -54.9172
L19.1479 -54.7367
L18.8851 -54.5526
L18.6235 -54.3648
L18.363 -54.1731
L18.1036 -53.9776
L17.8453 -53.7781
L17.5882 -53.5746
L17.3322 -53.367
L17.0772 -53.1552
L16.8234 -52.9391
L16.5707 -52.7187
L16.3192 -52.4937
L16.0688 -52.2642
L15.8197 -52.03
L15.5717 -51.7911
L15.325 -51.5472
L15.0795 -51.2984
L14.8354 -51.0444
L14.5927 -50.7852
L14.3514 -50.5206
L14.1116 -50.2506
L13.8734 -49.975
L13.6369 -49.6936
L13.402 -49.4064
L13.1691 -49.1132
L12.938 -48.8139
L12.709 -48.5083
L12.4821 -48.1963
L12.2575 -47.8778
L12.0354 -47.5527
L11.8158 -47.2207
L11.599 -46.8818
L11.3851 -46.5358
L11.1744 -46.1826
L10.9669 -45.8221
L10.7629 -45.4541
L10.5627 -45.0785
L10.3664 -44.6952
L10.1744 -44.3041
L9.98684 -43.9051
L9.80408 -43.4981
L9.62639 -43.083
L9.45408 -42.6597
L9.28748 -42.2282
L9.12693 -41.7884
L8.9728 -41.3404
L8.82545 -40.884
L8.68527 -40.4194
L8.55267 -39.9465
L8.42806 -39.4654
L8.31187 -38.9762
L8.20455 -38.479
L8.10656 -37.974
L8.01836 -37.4615
L7.94042 -36.9415
L7.87324 -36.4145
L7.81729 -35.8808
L7.77307 -35.3407
L7.74108 -34.7948
L7.72181 -34.2435
L7.71574 -33.6875
L7.72336 -33.1275
L7.77238 -32.5642
L7.84529 -32.0691
L7.92676 -31.5771
L8.01679 -31.0864
L8.11535 -30.5972
L8.22239 -30.1097
L8.3379 -29.6239
L8.46184 -29.1401
L8.59416 -28.6584
L8.73483 -28.1789
L8.88381 -27.7018
L9.04105 -27.2272
L9.2065 -26.7553
L9.38011 -26.2862
L9.56183 -25.8201
L9.7516 -25.357
L9.94937 -24.8972
z
" id="C0_1_eda58b57e5"/>
     <path d="
M64.1819 -39.9911
L64.0486 -40.5409
L63.9079 -41.0883
L63.7603 -41.6328
L63.6068 -42.1738
L63.4484 -42.7105
L63.2863 -43.2423
L63.1216 -43.7686
L62.956 -44.2887
L62.7912 -44.8019
L62.6289 -45.3076
L62.4712 -45.8052
L62.3201 -46.2942
L62.1778 -46.774
L62.0462 -47.2443
L62.1764 -47.7048
L62.3691 -47.2716
L62.5538 -46.813
L62.7304 -46.3512
L62.8989 -45.8862
L63.0591 -45.4182
L63.2112 -44.9473
L63.3549 -44.4737
L63.4903 -43.9975
L63.6173 -43.5188
L63.736 -43.0379
L63.8461 -42.5549
L63.9478 -42.0698
L64.041 -41.5829
L64.1256 -41.0943
z
" id="C0_2_5321edb19c"/>
    </defs>
    <g clip-path="url(#p1bffca34e9)">
     <use style="fill:#ffffff;stroke:#000000;stroke-width:2.0;" x="0.0" xlink:href="#C0_0_a811fe30f3" y="72.0"/>
    </g>
    <g clip-path="url(#p1bffca34e9)">
     <use style="fill:#ff0000;stroke:#000000;stroke-width:2.0;" x="0.0" xlink:href="#C0_1_eda58b57e5" y="72.0"/>
    </g>
    <g clip-path="url(#p1bffca34e9)">
     <use style="fill:#ff0000;stroke:#000000;stroke-width:2.0;" x="0.0" xlink:href="#C0_2_5321edb19c" y="72.0"/>
    </g>
   </g>
  </g>
 </g>
 <defs>
  <clipPath id="p1bffca34e9">
   <rect height="72.0" width="72.0" x="0.0" y="0.0"/>
  </clipPath>
 </defs>
</svg>
