<?xml version="1.0" encoding="utf-8" standalone="no"?>
<!DOCTYPE svg PUBLIC "-//W3C//DTD SVG 1.1//EN"
  "http://www.w3.org/Graphics/SVG/1.1/DTD/svg11.dtd">
<!-- Created with matplotlib (http://matplotlib.org/) -->
<svg height="72pt" version="1.1" viewBox="0 0 72 72" width="72pt" xmlns="http://www.w3.org/2000/svg" xmlns:xlink="http://www.w3.org/1999/xlink">
 <defs>
  <style type="text/css">
*{stroke-linecap:butt;stroke-linejoin:round;}
  </style>
 </defs>
 <g id="figure_1">
  <g id="patch_1">
   <path d="
M0 72
L72 72
L72 0
L0 0
z
" style="fill:none;"/>
  </g>
  <g id="axes_1">
   <g id="PatchCollection_1">
    <defs>
     <path d="
M36 -7.5
C43.5583 -7.5 50.808 -10.5029 56.1525 -15.8475
C61.4971 -21.192 64.5 -28.4417 64.5 -36
C64.5 -43.5583 61.4971 -50.808 56.1525 -56.1525
C50.808 -61.4971 43.5583 -64.5 36 -64.5
C28.4417 -64.5 21.192 -61.4971 15.8475 -56.1525
C10.5029 -50.808 7.5 -43.5583 7.5 -36
C7.5 -28.4417 10.5029 -21.192 15.8475 -15.8475
C21.192 -10.5029 28.4417 -7.5 36 -7.5
z
" id="C0_0_a811fe30f3"/>
     <path d="
M48.8051 -41.4001
L48.9008 -41.1338
L48.9939 -40.8665
L49.0843 -40.5982
L49.1721 -40.3289
L49.2572 -40.0586
L49.3397 -39.7872
L49.4195 -39.5148
L49.4966 -39.2413
L49.5711 -38.9668
L49.6429 -38.6911
L49.7119 -38.4144
L49.7783 -38.1365
L49.8419 -37.8575
L49.9027 -37.5773
L49.9608 -37.296
L50.016 -37.0135
L50.0685 -36.7298
L50.118 -36.4449
L50.1647 -36.1588
L50.2084 -35.8715
L50.2492 -35.5829
L50.2869 -35.2931
L50.3217 -35.0021
L50.3533 -34.7099
L50.3818 -34.4163
L50.4071 -34.1216
L50.4291 -33.8256
L50.4479 -33.5284
L50.4633 -33.2299
L50.4752 -32.9302
L50.4837 -32.6293
L50.4887 -32.3271
L50.4901 -32.0238
L50.4877 -31.7193
L50.4816 -31.4137
L50.4717 -31.107
L50.4578 -30.7992
L50.44 -30.4903
L50.4181 -30.1804
L50.392 -29.8695
L50.3616 -29.5578
L50.3269 -29.2451
L50.2877 -28.9317
L50.244 -28.6175
L50.1957 -28.3026
L50.1426 -27.9872
L50.0846 -27.6712
L50.0217 -27.3549
L49.9537 -27.0382
L49.8805 -26.7213
L49.802 -26.4043
L49.7182 -26.0873
L49.6288 -25.7704
L49.5338 -25.4538
L49.433 -25.1377
L49.3265 -24.8221
L49.2139 -24.5073
L49.0953 -24.1935
L48.9704 -23.8807
L48.8393 -23.5692
L48.7018 -23.2592
L48.5578 -22.9509
L48.4071 -22.6446
L48.2498 -22.3404
L48.0857 -22.0386
L47.9147 -21.7394
L47.7368 -21.4432
L47.5518 -21.1501
L47.3598 -20.8605
L47.1606 -20.5746
L46.9543 -20.2927
L46.7407 -20.0152
L46.5199 -19.7422
L46.2919 -19.4742
L46.0566 -19.2114
L45.8142 -18.9541
L45.5645 -18.7027
L45.3077 -18.4575
L45.0439 -18.2187
L44.7731 -17.9867
L44.4953 -17.7618
L44.2109 -17.5443
L43.9198 -17.3344
L43.6223 -17.1324
L43.3184 -16.9386
L43.0085 -16.7533
L42.6926 -16.5767
L42.3712 -16.409
L42.0443 -16.2504
L41.7122 -16.101
L41.3753 -15.9612
L41.0338 -15.8309
L40.6879 -15.7104
L40.3381 -15.5996
L39.9847 -15.4988
L39.6279 -15.4079
L39.2681 -15.327
L38.9057 -15.2561
L38.5409 -15.1952
L38.1742 -15.1442
L37.8058 -15.1032
L37.4361 -15.0719
L37.0655 -15.0505
L36.6942 -15.0386
L36.3226 -15.0363
L35.9511 -15.0433
L35.5798 -15.0596
L35.2092 -15.0849
L34.8394 -15.1191
L34.4708 -15.1621
L34.1037 -15.2135
L33.7382 -15.2733
L33.3747 -15.3412
L33.0133 -15.417
L32.6543 -15.5005
L32.2979 -15.5915
L31.9442 -15.6897
L31.5935 -15.795
L31.2458 -15.9072
L30.9014 -16.0259
L30.5604 -16.1511
L30.223 -16.2824
L29.8891 -16.4198
L29.559 -16.5629
L29.2328 -16.7115
L28.9104 -16.8656
L28.5921 -17.0248
L28.2778 -17.189
L27.9677 -17.358
L27.6617 -17.5316
L27.3599 -17.7096
L27.0624 -17.892
L26.7692 -18.0784
L26.4803 -18.2688
L26.1957 -18.4629
L25.9154 -18.6608
L25.6394 -18.8621
L25.3678 -19.0668
L25.1006 -19.2747
L24.8376 -19.4858
L24.579 -19.6998
L24.3246 -19.9167
L24.0746 -20.1364
L23.8288 -20.3588
L23.5872 -20.5837
L23.3499 -20.8111
L23.1168 -21.0408
L22.8878 -21.2729
L22.6629 -21.5072
L22.4422 -21.7436
L22.2255 -21.9821
L22.0129 -22.2226
L21.8043 -22.4651
L21.5996 -22.7094
L21.3989 -22.9556
L21.2022 -23.2035
L21.0093 -23.4532
L20.8202 -23.7045
L20.635 -23.9575
L20.4535 -24.2122
L20.2758 -24.4683
L20.1019 -24.7261
L19.9316 -24.9853
L19.765 -25.246
L19.6021 -25.5082
L19.4427 -25.7718
L19.287 -26.0368
L19.1348 -26.3033
L18.9862 -26.5711
L18.8411 -26.8403
L18.6996 -27.1109
L18.5615 -27.3828
L18.4269 -27.6561
L18.2958 -27.9308
L18.1681 -28.2067
L18.0439 -28.484
L17.9231 -28.7627
L17.8058 -29.0426
L17.6918 -29.324
L17.5813 -29.6066
L17.4742 -29.8906
L17.3706 -30.1759
L17.2703 -30.4626
L17.1735 -30.7506
L17.0802 -31.04
L16.9903 -31.3307
L16.9039 -31.6228
L16.8209 -31.9163
L16.7414 -32.2112
L16.6655 -32.5074
L16.5931 -32.805
L16.5243 -33.1041
L16.459 -33.4045
L16.3974 -33.7063
L16.3394 -34.0095
L16.2851 -34.3142
L16.2345 -34.6202
L16.1877 -34.9277
L16.1446 -35.2366
L16.1055 -35.5468
L16.0702 -35.8585
L16.0388 -36.1716
L16.0115 -36.4861
L15.9882 -36.802
L15.969 -37.1192
L15.954 -37.4378
L15.9432 -37.7578
L15.9367 -38.0791
L15.9345 -38.4016
L15.9368 -38.7255
L15.9436 -39.0506
L15.955 -39.377
L15.9711 -39.7045
L15.9918 -40.0331
L16.0174 -40.3629
L16.0479 -40.6937
L16.0834 -41.0255
L16.124 -41.3582
L16.1698 -41.6918
L16.2208 -42.0262
L16.2771 -42.3613
L16.3389 -42.6971
L16.4063 -43.0334
L16.4793 -43.3701
L16.558 -43.7072
L16.6425 -44.0445
L16.733 -44.382
L16.8295 -44.7194
L16.9322 -45.0567
L17.041 -45.3937
L17.1561 -45.7303
L17.2777 -46.0662
L17.4057 -46.4013
L17.5403 -46.7355
L17.6816 -47.0686
L17.8296 -47.4002
L17.9844 -47.7304
L18.1461 -48.0587
L18.3147 -48.385
L18.4903 -48.709
L18.6729 -49.0305
L18.8626 -49.3493
L19.0595 -49.665
L19.2634 -49.9774
L19.4745 -50.2862
L19.6928 -50.591
L19.9182 -50.8917
L20.1507 -51.1878
L20.3903 -51.4791
L20.637 -51.7653
L20.8906 -52.046
L21.1511 -52.3208
L21.4184 -52.5895
L21.6924 -52.8518
L21.9729 -53.1072
L22.2599 -53.3555
L22.5532 -53.5964
L22.8525 -53.8295
L23.1577 -54.0545
L23.4686 -54.2711
L23.785 -54.4791
L24.1066 -54.6782
L24.4332 -54.868
L24.7645 -55.0484
L25.1002 -55.2192
L25.4401 -55.3801
L25.7838 -55.531
L26.1309 -55.6716
L26.4813 -55.8019
L26.8346 -55.9218
L27.1904 -56.0311
L27.5483 -56.1298
L27.9082 -56.2179
L28.2696 -56.2953
L28.6321 -56.3621
L28.9955 -56.4183
L29.3595 -56.4639
L29.7236 -56.4991
L30.0876 -56.524
L30.4513 -56.5386
L30.8142 -56.5432
L31.1761 -56.5379
L31.5367 -56.5228
L31.8958 -56.4982
L32.2531 -56.4643
L32.6083 -56.4212
L32.9613 -56.3693
L33.3119 -56.3087
L33.6597 -56.2397
L34.0048 -56.1626
L34.3468 -56.0775
L34.6856 -55.9848
L35.0211 -55.8847
L35.3531 -55.7775
L35.6815 -55.6633
L36.0063 -55.5425
L36.3273 -55.4153
L36.6443 -55.282
L36.9575 -55.1428
L37.2666 -54.9979
L37.5716 -54.8476
L37.8725 -54.692
L38.1692 -54.5315
L38.4618 -54.3663
L38.7501 -54.1964
L39.0341 -54.0222
L39.3139 -53.8439
L39.5895 -53.6616
L39.8608 -53.4755
L40.1279 -53.2858
L40.3907 -53.0927
L40.6493 -52.8963
L40.9037 -52.6967
L41.1539 -52.4942
L41.3999 -52.2888
L41.6419 -52.0808
L41.8797 -51.8702
L42.1135 -51.6571
L42.3432 -51.4417
L42.569 -51.2241
L42.7908 -51.0044
L43.0087 -50.7827
L43.2228 -50.559
L43.433 -50.3335
L43.6395 -50.1063
L43.8423 -49.8774
L44.0413 -49.6468
L44.2367 -49.4148
L44.4285 -49.1813
L44.6168 -48.9463
L44.8015 -48.7101
L44.9828 -48.4725
L45.1607 -48.2336
L45.3352 -47.9936
L45.5064 -47.7523
L45.6743 -47.51
L45.8389 -47.2665
L46.0003 -47.0219
L46.1585 -46.7764
L46.3136 -46.5297
L46.4657 -46.2821
L46.6146 -46.0335
L46.7605 -45.784
L46.9035 -45.5335
L47.0435 -45.282
L47.1805 -45.0297
L47.3147 -44.7764
L47.4459 -44.5221
L47.5744 -44.267
L47.7 -44.011
L47.8228 -43.754
L47.9428 -43.4962
L48.0601 -43.2374
L48.1746 -42.9778
L48.2864 -42.7172
L48.3955 -42.4556
L48.5019 -42.1932
L48.6056 -41.9297
z
" id="C0_1_38b50a12ed"/>
    </defs>
    <g clip-path="url(#p1bffca34e9)">
     <use style="fill:#ffffff;stroke:#000000;stroke-width:2.0;" x="0.0" xlink:href="#C0_0_a811fe30f3" y="72.0"/>
    </g>
    <g clip-path="url(#p1bffca34e9)">
     <use style="fill:#ff0000;stroke:#000000;stroke-width:2.0;" x="0.0" xlink:href="#C0_1_38b50a12ed" y="72.0"/>
    </g>
   </g>
  </g>
 </g>
 <defs>
  <clipPath id="p1bffca34e9">
   <rect height="72.0" width="72.0" x="0.0" y="0.0"/>
  </clipPath>
 </defs>
</svg>
