<?xml version="1.0" encoding="utf-8" standalone="no"?>
<!DOCTYPE svg PUBLIC "-//W3C//DTD SVG 1.1//EN"
  "http://www.w3.org/Graphics/SVG/1.1/DTD/svg11.dtd">
<!-- Created with matplotlib (http://matplotlib.org/) -->
<svg height="72pt" version="1.1" viewBox="0 0 72 72" width="72pt" xmlns="http://www.w3.org/2000/svg" xmlns:xlink="http://www.w3.org/1999/xlink">
 <defs>
  <style type="text/css">
*{stroke-linecap:butt;stroke-linejoin:round;}
  </style>
 </defs>
 <g id="figure_1">
  <g id="patch_1">
   <path d="
M0 72
L72 72
L72 0
L0 0
z
" style="fill:none;"/>
  </g>
  <g id="axes_1">
   <g id="PatchCollection_1">
    <defs>
     <path d="
M36 -7.5
C43.5583 -7.5 50.808 -10.5029 56.1525 -15.8475
C61.4971 -21.192 64.5 -28.4417 64.5 -36
C64.5 -43.5583 61.4971 -50.808 56.1525 -56.1525
C50.808 -61.4971 43.5583 -64.5 36 -64.5
C28.4417 -64.5 21.192 -61.4971 15.8475 -56.1525
C10.5029 -50.808 7.5 -43.5583 7.5 -36
C7.5 -28.4417 10.5029 -21.192 15.8475 -15.8475
C21.192 -10.5029 28.4417 -7.5 36 -7.5
z
" id="C0_0_a811fe30f3"/>
     <path d="
M15.2668 -16.6463
L15.3458 -16.9064
L15.4446 -17.1554
L15.5621 -17.394
L15.6969 -17.6228
L15.8478 -17.8424
L16.0134 -18.0535
L16.1926 -18.2568
L16.3842 -18.453
L16.5869 -18.6427
L16.7997 -18.8266
L17.0216 -19.0053
L17.2517 -19.1792
L17.4889 -19.349
L17.7326 -19.5151
L17.9819 -19.6778
L18.2362 -19.8376
L18.4949 -19.9948
L18.7572 -20.1496
L19.0227 -20.3024
L19.291 -20.4533
L19.5614 -20.6026
L19.8337 -20.7504
L20.1075 -20.8969
L20.3824 -21.0422
L20.6581 -21.1865
L20.9343 -21.3298
L21.2109 -21.4722
L21.4874 -21.6137
L21.7639 -21.7546
L22.0399 -21.8947
L22.3155 -22.0342
L22.5904 -22.173
L22.8645 -22.3113
L23.1378 -22.4491
L23.41 -22.5863
L23.6811 -22.723
L23.951 -22.8592
L24.2196 -22.9949
L24.487 -23.1302
L24.7529 -23.2651
L25.0175 -23.3995
L25.2807 -23.5335
L25.5423 -23.6671
L25.8025 -23.8003
L26.0612 -23.9331
L26.3184 -24.0655
L26.5741 -24.1976
L26.8282 -24.3293
L27.0809 -24.4607
L27.3321 -24.5917
L27.5818 -24.7224
L27.83 -24.8528
L28.0768 -24.9829
L28.3221 -25.1127
L28.5661 -25.2423
L28.8087 -25.3716
L29.0499 -25.5006
L29.2899 -25.6294
L29.5285 -25.758
L29.766 -25.8865
L30.0022 -26.0147
L30.2372 -26.1428
L30.4711 -26.2707
L30.704 -26.3985
L30.9357 -26.5262
L31.1665 -26.6538
L31.3963 -26.7813
L31.6252 -26.9088
L31.8531 -27.0363
L32.0803 -27.1637
L32.3066 -27.2912
L32.5322 -27.4187
L32.7571 -27.5463
L32.9813 -27.6739
L33.2049 -27.8017
L33.4279 -27.9296
L33.6504 -28.0576
L33.8724 -28.1858
L34.0939 -28.3142
L34.3151 -28.4429
L34.5359 -28.5718
L34.7564 -28.7009
L34.9767 -28.8304
L35.1968 -28.9602
L35.6365 -29.0903
L35.8562 -29.2208
L36.0759 -29.3518
L36.2956 -29.4832
L36.5154 -29.615
L36.7353 -29.7473
L36.9554 -29.8801
L37.1756 -30.0135
L37.3962 -30.1475
L37.617 -30.2821
L37.8382 -30.4173
L38.0597 -30.5531
L38.2817 -30.6897
L38.5042 -30.827
L38.7272 -30.965
L38.9508 -31.1038
L39.175 -31.2434
L39.3999 -31.3839
L39.6255 -31.5252
L39.8518 -31.6675
L40.0789 -31.8106
L40.3069 -31.9548
L40.5357 -32.0999
L40.7655 -32.2461
L40.9962 -32.3933
L41.2279 -32.5416
L41.4607 -32.6909
L41.6946 -32.8415
L41.9296 -32.9932
L42.1657 -33.1461
L42.4031 -33.3002
L42.6417 -33.4555
L42.8816 -33.6122
L43.1227 -33.7701
L43.3653 -33.9293
L43.6092 -34.0899
L43.8545 -34.2518
L44.1012 -34.4151
L44.3494 -34.5798
L44.5991 -34.7458
L44.8502 -34.9133
L45.103 -35.0822
L45.3572 -35.2525
L45.613 -35.4242
L45.8704 -35.5973
L46.1294 -35.7718
L46.39 -35.9477
L46.6521 -36.125
L46.9159 -36.3036
L47.1812 -36.4835
L47.4482 -36.6647
L47.7167 -36.8471
L47.9868 -37.0307
L48.2584 -37.2153
L48.5316 -37.401
L48.8063 -37.5875
L49.0824 -37.7749
L49.36 -37.963
L49.6389 -38.1517
L49.9193 -38.3408
L50.2009 -38.5302
L50.4838 -38.7196
L50.7679 -38.9088
L51.0531 -39.0977
L51.3394 -39.2859
L51.6268 -39.4732
L51.915 -39.6592
L52.2042 -39.8435
L52.4941 -40.0259
L52.7848 -40.2057
L53.0762 -40.3827
L53.3681 -40.5561
L53.6605 -40.7254
L53.9533 -40.8901
L54.2465 -41.0493
L54.54 -41.2023
L54.8337 -41.3484
L55.1275 -41.4865
L55.4214 -41.6158
L55.7152 -41.7352
L56.009 -41.8436
L56.3026 -41.9399
L56.596 -42.0229
L56.8889 -42.0915
L57.1814 -42.1443
L57.4732 -42.1801
L57.7642 -42.1978
L58.0542 -42.1963
L58.3428 -42.1745
L58.6299 -42.1315
L58.9151 -42.0666
L59.198 -41.9791
L59.4782 -41.8689
L59.7552 -41.7356
L60.0286 -41.5793
L60.2978 -41.4002
L60.5624 -41.1989
L60.8218 -40.9758
L61.0754 -40.7318
L61.3229 -40.4677
L61.5636 -40.1845
L61.7971 -39.8832
L62.023 -39.5649
L62.2409 -39.2306
L62.4503 -38.8815
L62.6511 -38.5186
L62.8427 -38.1431
L63.0251 -37.7559
L63.198 -37.3581
L63.3611 -36.9506
L63.5143 -36.5343
L63.6575 -36.1102
L63.7907 -35.6791
L63.9136 -35.2418
L64.0264 -34.7989
L64.1289 -34.3513
L64.2212 -33.8995
L64.3033 -33.4443
L64.2828 -32.9861
L64.2172 -32.4881
L64.143 -31.9951
L64.0602 -31.5032
L63.9689 -31.0127
L63.8691 -30.5238
L63.7608 -30.0365
L63.644 -29.551
L63.5188 -29.0675
L63.3852 -28.5861
L63.2433 -28.107
L63.0931 -27.6302
L62.9346 -27.156
L62.7679 -26.6845
L62.5931 -26.2159
L62.4101 -25.7502
L62.2192 -25.2877
L62.0202 -24.8284
L61.8133 -24.3725
L61.5986 -23.9201
L61.376 -23.4715
L61.1457 -23.0266
L60.9078 -22.5857
L60.6623 -22.1489
L60.4092 -21.7163
L60.1487 -21.2881
L59.8809 -20.8643
L59.6058 -20.4452
L59.3235 -20.0308
L59.0341 -19.6212
L58.7377 -19.2167
L58.4343 -18.8172
L58.1242 -18.423
L57.8072 -18.0342
L57.4837 -17.6508
L57.1536 -17.273
L56.817 -16.9009
L56.4741 -16.5346
L56.125 -16.1743
L55.7698 -15.82
L55.4085 -15.4718
L55.0413 -15.1299
L54.6683 -14.7944
L54.2896 -14.4653
L53.9054 -14.1428
L53.5157 -13.8269
L53.1206 -13.5178
L52.7204 -13.2155
L52.3151 -12.9202
L51.9047 -12.6319
L51.4896 -12.3507
L51.0697 -12.0767
L50.6452 -11.81
L50.2163 -11.5507
L49.783 -11.2989
L49.3456 -11.0545
L48.9041 -10.8178
L48.4586 -10.5887
L48.0094 -10.3673
L47.5565 -10.1538
L47.1 -9.94816
L46.6402 -9.75044
L46.1772 -9.56071
L45.711 -9.37904
L45.2419 -9.20548
L44.77 -9.04008
L44.2954 -8.8829
L43.8183 -8.73397
L43.3388 -8.59335
L42.857 -8.46107
L42.3732 -8.33719
L41.8874 -8.22173
L41.3999 -8.11473
L40.9107 -8.01623
L40.42 -7.92625
L39.9279 -7.84482
L39.4347 -7.77197
L38.9404 -7.70772
L38.4452 -7.65209
L37.9493 -7.60509
L37.4527 -7.56674
L36.9558 -7.53705
L36.4585 -7.51603
L35.9611 -7.50369
L35.4637 -7.50003
L34.9665 -7.50505
L34.4696 -7.51875
L33.9731 -7.54112
L33.4773 -7.57216
L32.9823 -7.61187
L32.4881 -7.66022
L31.9951 -7.7172
L31.5032 -7.7828
L31.0127 -7.85699
L30.5238 -7.93976
L30.0365 -8.03107
L29.551 -8.13091
L29.0675 -8.23923
L28.5861 -8.35601
L28.107 -8.48121
L27.6302 -8.61479
L27.156 -8.75671
L26.6845 -8.90693
L26.2159 -9.06541
L25.7502 -9.23209
L25.2877 -9.40692
L24.8284 -9.58985
L24.3725 -9.78083
L23.9201 -9.9798
L23.4715 -10.1867
L23.0266 -10.4014
L22.5857 -10.624
L22.1489 -10.8543
L21.7163 -11.0922
L21.2881 -11.3377
L20.8643 -11.5908
L20.4452 -11.8513
L20.0308 -12.1191
L19.6212 -12.3942
L19.2167 -12.6765
L18.8172 -12.9659
L18.423 -13.2623
L18.0342 -13.5657
L17.6508 -13.8758
L17.273 -14.1928
L16.9009 -14.5163
L16.5346 -14.8464
L16.1743 -15.183
L15.82 -15.5259
z
" id="C0_1_f3310319be"/>
     <path d="
M7.79802 -39.4531
L7.97706 -39.8793
L8.16069 -40.2999
L8.34877 -40.7148
L8.5411 -41.1237
L8.73751 -41.5266
L8.93782 -41.9233
L9.14185 -42.3137
L9.34941 -42.6978
L9.56033 -43.0755
L9.77445 -43.4469
L9.99157 -43.8118
L10.2116 -44.1703
L10.4342 -44.5224
L10.6594 -44.8682
L10.887 -45.2077
L11.1169 -45.541
L11.3489 -45.8681
L11.5828 -46.189
L11.8187 -46.5039
L12.0563 -46.8129
L12.2955 -47.116
L12.5363 -47.4133
L12.7785 -47.705
L13.0222 -47.991
L13.2671 -48.2716
L13.5132 -48.5467
L13.7605 -48.8166
L14.0089 -49.0812
L14.2582 -49.3408
L14.5086 -49.5953
L14.7599 -49.845
L15.0121 -50.0899
L15.2652 -50.33
L15.519 -50.5656
L15.7737 -50.7966
L16.0292 -51.0232
L16.2854 -51.2455
L16.5423 -51.4635
L16.8 -51.6775
L17.0584 -51.8873
L17.3175 -52.0932
L17.5773 -52.2951
L17.8378 -52.4933
L18.0991 -52.6877
L18.3611 -52.8784
L18.6239 -53.0655
L18.8874 -53.2491
L19.1516 -53.4293
L19.4167 -53.6061
L19.6826 -53.7795
L19.9493 -53.9497
L20.2168 -54.1166
L20.4853 -54.2804
L20.7546 -54.4411
L21.025 -54.5987
L21.2962 -54.7534
L21.5685 -54.905
L21.8419 -55.0538
L22.1163 -55.1996
L22.3918 -55.3427
L22.6685 -55.4829
L22.9465 -55.6203
L23.2256 -55.755
L23.5061 -55.887
L23.7878 -56.0163
L24.071 -56.1429
L24.3556 -56.2669
L24.6417 -56.3882
L24.9293 -56.5069
L25.2184 -56.623
L25.5092 -56.7365
L25.8017 -56.8474
L26.0959 -56.9557
L26.392 -57.0615
L26.6898 -57.1646
L26.9896 -57.2652
L27.2913 -57.3631
L27.595 -57.4584
L27.9008 -57.5511
L28.2087 -57.6412
L28.5188 -57.7286
L28.8312 -57.8133
L29.1458 -57.8954
L29.4628 -57.9746
L29.7823 -58.0512
L30.1042 -58.1249
L30.4286 -58.1958
L30.7556 -58.2638
L31.0852 -58.3289
L31.4176 -58.391
L31.7527 -58.4501
L32.0906 -58.5061
L32.4313 -58.5591
L32.775 -58.6088
L33.1216 -58.6553
L33.4712 -58.6985
L33.8238 -58.7383
L34.1796 -58.7746
L34.5384 -58.8075
L34.9004 -58.8367
L35.2656 -58.8623
L35.6339 -58.8841
L36.0055 -58.902
L36.3804 -58.916
L36.7585 -58.926
L37.1398 -58.9319
L37.5244 -58.9337
L37.9123 -58.9311
L38.3034 -58.9241
L38.6977 -58.9127
L39.0952 -58.8968
L39.4958 -58.8762
L39.8995 -58.8509
L40.3062 -58.8207
L40.7159 -58.7858
L41.1284 -58.7458
L41.5437 -58.7009
L41.9617 -58.6509
L42.3821 -58.5959
L42.805 -58.5357
L43.23 -58.4704
L43.6571 -58.3999
L44.0861 -58.3243
L44.5167 -58.2437
L44.9487 -58.1581
L45.3819 -58.0675
L45.8161 -57.9722
L46.2508 -57.8723
L46.6858 -57.7679
L47.1208 -57.6594
L47.5554 -57.547
L47.9892 -57.431
L48.4219 -57.3119
L48.8531 -57.1902
L49.2821 -57.0662
L49.7087 -56.9408
L50.1324 -56.8144
L50.5525 -56.688
L50.9687 -56.5622
L51.3803 -56.4381
L51.7868 -56.3165
L52.1878 -56.1986
L52.5825 -56.0854
L52.9705 -55.9781
L53.3512 -55.878
L53.724 -55.7861
L54.0886 -55.7037
L54.4444 -55.632
L54.791 -55.5719
L55.1279 -55.5245
L55.455 -55.4906
L55.7718 -55.4709
L56.0782 -55.4658
L56.3741 -55.4757
L56.3807 -55.5008
L56.0299 -55.9218
L55.673 -56.2744
L55.3101 -56.6209
L54.9414 -56.9611
L54.5668 -57.2949
L54.1866 -57.6223
L53.8009 -57.943
L53.4098 -58.2571
L53.0133 -58.5644
L52.6117 -58.8648
L52.205 -59.1582
L51.7933 -59.4446
L51.3769 -59.7238
L50.9558 -59.9959
L50.5301 -60.2606
L50.1 -60.5179
L49.6656 -60.7677
L49.227 -61.01
L48.7844 -61.2447
L48.3379 -61.4717
L47.8877 -61.691
L47.4338 -61.9024
L46.9765 -62.1059
L46.5158 -62.3015
L46.0519 -62.489
L45.5849 -62.6685
L45.115 -62.8399
L44.6424 -63.0031
L44.1671 -63.158
L43.6893 -63.3047
L43.2092 -63.4431
L42.7269 -63.5731
L42.2425 -63.6948
L41.7562 -63.8079
L41.2682 -63.9126
L40.7786 -64.0089
L40.2875 -64.0965
L39.7951 -64.1757
L39.3016 -64.2462
L38.807 -64.3081
L38.3116 -64.3614
L37.8155 -64.4061
L37.3189 -64.4421
L36.8218 -64.4695
L36.3245 -64.4881
L35.8271 -64.4982
L35.3297 -64.4995
L34.8326 -64.4921
L34.3358 -64.4761
L33.8395 -64.4514
L33.3438 -64.418
L32.849 -64.376
L32.3552 -64.3253
L31.8624 -64.266
L31.3709 -64.1981
L30.8808 -64.1215
L30.3923 -64.0365
L29.9055 -63.9429
L29.4205 -63.8407
L28.9376 -63.7301
L28.4568 -63.6111
L27.9783 -63.4836
L27.5022 -63.3478
L27.0287 -63.2036
L26.558 -63.0512
L26.0901 -62.8905
L25.6253 -62.7216
L25.1636 -62.5446
L24.7052 -62.3595
L24.2502 -62.1663
L23.7989 -61.9652
L23.3512 -61.7562
L22.9074 -61.5394
L22.4676 -61.3147
L22.0319 -61.0824
L21.6005 -60.8424
L21.1735 -60.5948
L20.7509 -60.3398
L20.333 -60.0773
L19.9199 -59.8075
L19.5117 -59.5304
L19.1085 -59.2462
L18.7105 -58.9549
L18.3177 -58.6566
L17.9303 -58.3514
L17.5484 -58.0394
L17.1722 -57.7207
L16.8016 -57.3954
L16.4369 -57.0635
L16.0782 -56.7253
L15.7256 -56.3807
L15.3791 -56.0299
L15.0389 -55.673
L14.7051 -55.3101
L14.3777 -54.9414
L14.057 -54.5668
L13.7429 -54.1866
L13.4356 -53.8009
L13.1352 -53.4098
L12.8418 -53.0133
L12.5554 -52.6117
L12.2762 -52.205
L12.0041 -51.7933
L11.7394 -51.3769
L11.4821 -50.9558
L11.2323 -50.5301
L10.99 -50.1
L10.7553 -49.6656
L10.5283 -49.227
L10.309 -48.7844
L10.0976 -48.3379
L9.8941 -47.8877
L9.69853 -47.4338
L9.51097 -46.9765
L9.33148 -46.5158
L9.16011 -46.0519
L8.99692 -45.5849
L8.84195 -45.115
L8.69526 -44.6424
L8.55688 -44.1671
L8.42687 -43.6893
L8.30525 -43.2092
L8.19207 -42.7269
L8.08735 -42.2425
L7.99115 -41.7562
L7.90347 -41.2682
L7.82435 -40.7786
z
" id="C0_2_9a4d1f3043"/>
    </defs>
    <g clip-path="url(#p1bffca34e9)">
     <use style="fill:#ff0000;stroke:#000000;stroke-width:2.0;" x="0.0" xlink:href="#C0_0_a811fe30f3" y="72.0"/>
    </g>
    <g clip-path="url(#p1bffca34e9)">
     <use style="fill:#ffffff;stroke:#000000;stroke-width:2.0;" x="0.0" xlink:href="#C0_1_f3310319be" y="72.0"/>
    </g>
    <g clip-path="url(#p1bffca34e9)">
     <use style="fill:#ffffff;stroke:#000000;stroke-width:2.0;" x="0.0" xlink:href="#C0_2_9a4d1f3043" y="72.0"/>
    </g>
   </g>
  </g>
 </g>
 <defs>
  <clipPath id="p1bffca34e9">
   <rect height="72.0" width="72.0" x="0.0" y="0.0"/>
  </clipPath>
 </defs>
</svg>
