<?xml version="1.0" encoding="utf-8" standalone="no"?>
<!DOCTYPE svg PUBLIC "-//W3C//DTD SVG 1.1//EN"
  "http://www.w3.org/Graphics/SVG/1.1/DTD/svg11.dtd">
<!-- Created with matplotlib (http://matplotlib.org/) -->
<svg height="72pt" version="1.1" viewBox="0 0 72 72" width="72pt" xmlns="http://www.w3.org/2000/svg" xmlns:xlink="http://www.w3.org/1999/xlink">
 <defs>
  <style type="text/css">
*{stroke-linecap:butt;stroke-linejoin:round;}
  </style>
 </defs>
 <g id="figure_1">
  <g id="patch_1">
   <path d="
M0 72
L72 72
L72 0
L0 0
z
" style="fill:none;"/>
  </g>
  <g id="axes_1">
   <g id="PatchCollection_1">
    <defs>
     <path d="
M36 -7.5
C43.5583 -7.5 50.808 -10.5029 56.1525 -15.8475
C61.4971 -21.192 64.5 -28.4417 64.5 -36
C64.5 -43.5583 61.4971 -50.808 56.1525 -56.1525
C50.808 -61.4971 43.5583 -64.5 36 -64.5
C28.4417 -64.5 21.192 -61.4971 15.8475 -56.1525
C10.5029 -50.808 7.5 -43.5583 7.5 -36
C7.5 -28.4417 10.5029 -21.192 15.8475 -15.8475
C21.192 -10.5029 28.4417 -7.5 36 -7.5
z
" id="C0_0_a811fe30f3"/>
     <path d="
M35.0154 -24.5243
L35.2813 -24.5919
L35.5467 -24.6619
L35.8117 -24.7342
L36.0762 -24.8089
L36.3402 -24.886
L36.6038 -24.9654
L36.867 -25.0472
L37.1298 -25.1314
L37.3921 -25.218
L37.6541 -25.3071
L37.9157 -25.3985
L38.177 -25.4925
L38.4379 -25.5889
L38.6984 -25.6878
L38.9586 -25.7892
L39.2185 -25.8932
L39.478 -25.9997
L39.7372 -26.1088
L39.996 -26.2206
L40.2545 -26.335
L40.5126 -26.4521
L40.7704 -26.5719
L41.0278 -26.6944
L41.2849 -26.8198
L41.5415 -26.9479
L41.7978 -27.0789
L42.0536 -27.2129
L42.309 -27.3497
L42.5639 -27.4895
L42.8183 -27.6324
L43.0721 -27.7783
L43.3254 -27.9273
L43.578 -28.0794
L43.83 -28.2347
L44.0813 -28.3933
L44.3319 -28.5552
L44.5816 -28.7204
L44.8305 -28.8889
L45.0784 -29.0609
L45.3253 -29.2364
L45.5711 -29.4154
L45.8158 -29.5979
L46.0592 -29.7841
L46.3012 -29.9739
L46.5418 -30.1675
L46.7809 -30.3647
L47.0183 -30.5658
L47.2539 -30.7707
L47.4876 -30.9795
L47.7193 -31.1923
L47.9488 -31.4089
L48.176 -31.6296
L48.4007 -31.8543
L48.6228 -32.0831
L48.8421 -32.3159
L49.0584 -32.5529
L49.2715 -32.794
L49.4813 -33.0393
L49.6875 -33.2887
L49.89 -33.5424
L50.0885 -33.8002
L50.2828 -34.0621
L50.4726 -34.3283
L50.6578 -34.5986
L50.8381 -34.8731
L51.0133 -35.1516
L51.183 -35.4343
L51.347 -35.721
L51.5052 -36.0116
L51.6571 -36.3062
L51.8026 -36.6047
L51.9413 -36.9069
L52.073 -37.2128
L52.1974 -37.5223
L52.3143 -37.8353
L52.4233 -38.1516
L52.5243 -38.4711
L52.6169 -38.7937
L52.7009 -39.1192
L52.7761 -39.4475
L52.8423 -39.7783
L52.8992 -40.1115
L52.9466 -40.4468
L52.9844 -40.7841
L53.0124 -41.1231
L53.0304 -41.4636
L53.0383 -41.8053
L53.036 -42.148
L53.0234 -42.4915
L53.0005 -42.8354
L52.9672 -43.1794
L52.9235 -43.5234
L52.8694 -43.867
L52.8049 -44.2099
L52.7302 -44.5518
L52.6452 -44.8925
L52.5502 -45.2317
L52.4451 -45.5691
L52.3302 -45.9044
L52.2057 -46.2374
L52.0716 -46.5678
L51.9283 -46.8953
L51.7759 -47.2197
L51.6147 -47.5407
L51.4448 -47.8582
L51.2666 -48.1719
L51.0803 -48.4816
L50.8862 -48.7871
L50.6845 -49.0882
L50.4755 -49.3848
L50.2596 -49.6767
L50.0369 -49.9637
L49.8077 -50.2458
L49.5724 -50.5228
L49.3312 -50.7945
L49.0844 -51.061
L48.8323 -51.322
L48.5751 -51.5776
L48.3131 -51.8277
L48.0465 -52.0721
L47.7756 -52.3109
L47.5007 -52.5441
L47.2219 -52.7715
L46.9396 -52.9932
L46.6539 -53.2092
L46.365 -53.4195
L46.0732 -53.624
L45.7787 -53.8228
L45.4816 -54.0158
L45.1821 -54.2032
L44.8804 -54.3849
L44.5767 -54.5609
L44.2712 -54.7314
L43.9639 -54.8962
L43.655 -55.0556
L43.3448 -55.2094
L43.0332 -55.3578
L42.7205 -55.5007
L42.4067 -55.6383
L42.092 -55.7706
L41.7765 -55.8977
L41.4602 -56.0195
L41.1433 -56.1362
L40.8258 -56.2478
L40.5078 -56.3543
L40.1895 -56.4558
L39.8708 -56.5524
L39.5519 -56.6441
L39.2327 -56.7309
L38.9134 -56.813
L38.5941 -56.8903
L38.2747 -56.9629
L37.9553 -57.0309
L37.6359 -57.0943
L37.3167 -57.1531
L36.9975 -57.2074
L36.6786 -57.2572
L36.3598 -57.3026
L36.0412 -57.3436
L35.7228 -57.3803
L35.4047 -57.4126
L35.0869 -57.4407
L34.7694 -57.4644
L34.4522 -57.484
L34.1353 -57.4993
L33.8187 -57.5105
L33.5025 -57.5175
L33.1866 -57.5204
L32.8711 -57.5191
L32.556 -57.5138
L32.2412 -57.5044
L31.9268 -57.4908
L31.6128 -57.4733
L31.2992 -57.4516
L30.986 -57.4259
L30.6732 -57.3962
L30.3607 -57.3624
L30.0487 -57.3245
L29.7371 -57.2826
L29.4259 -57.2366
L29.1151 -57.1865
L28.8048 -57.1324
L28.4948 -57.0741
L28.1853 -57.0117
L27.8762 -56.9452
L27.5676 -56.8746
L27.2594 -56.7997
L26.9517 -56.7207
L26.6444 -56.6374
L26.3376 -56.5499
L26.0314 -56.4581
L25.7256 -56.362
L25.4204 -56.2615
L25.1157 -56.1566
L24.8116 -56.0473
L24.5081 -55.9335
L24.2052 -55.8152
L23.903 -55.6924
L23.6015 -55.5649
L23.3007 -55.4328
L23.0006 -55.296
L22.7013 -55.1544
L22.4029 -55.0081
L22.1054 -54.8569
L21.8088 -54.7007
L21.5132 -54.5396
L21.2187 -54.3735
L20.9253 -54.2023
L20.6331 -54.026
L20.3421 -53.8445
L20.0525 -53.6577
L19.7644 -53.4657
L19.4777 -53.2683
L19.1927 -53.0654
L18.9093 -52.8571
L18.6278 -52.6432
L18.3482 -52.4238
L18.0707 -52.1988
L17.7953 -51.9681
L17.5223 -51.7316
L17.2516 -51.4894
L16.9836 -51.2414
L16.7183 -50.9875
L16.4559 -50.7278
L16.1965 -50.4622
L15.9404 -50.1907
L15.6877 -49.9132
L15.4386 -49.6299
L15.1933 -49.3405
L14.9519 -49.0453
L14.7148 -48.7441
L14.4821 -48.4371
L14.2541 -48.1242
L14.031 -47.8055
L13.8129 -47.4811
L13.6002 -47.1509
L13.3931 -46.8152
L13.1919 -46.474
L12.9968 -46.1274
L12.808 -45.7755
L12.6259 -45.4185
L12.4507 -45.0564
L12.2827 -44.6896
L12.1221 -44.3182
L11.9692 -43.9423
L11.8243 -43.5623
L11.6877 -43.1783
L11.5596 -42.7905
L11.4402 -42.3994
L11.3299 -42.0051
L11.2289 -41.608
L11.1373 -41.2084
L11.0555 -40.8067
L10.9836 -40.4032
L10.9218 -39.9982
L10.8704 -39.5923
L10.8294 -39.1856
L10.7991 -38.7788
L10.7795 -38.3722
L10.7708 -37.9662
L10.773 -37.5612
L10.7862 -37.1578
L10.8104 -36.7563
L10.8457 -36.3571
L10.8921 -35.9607
L10.9494 -35.5676
L11.0176 -35.178
L11.0966 -34.7925
L11.1864 -34.4115
L11.2867 -34.0352
L11.3973 -33.6641
L11.5182 -33.2984
L11.6491 -32.9386
L11.7897 -32.5849
L11.9399 -32.2376
L12.0992 -31.897
L12.2675 -31.5632
L12.4445 -31.2364
L12.6298 -30.9169
L12.8231 -30.6048
L13.0242 -30.3003
L13.2326 -30.0033
L13.448 -29.7141
L13.6702 -29.4327
L13.8987 -29.1591
L14.1333 -28.8933
L14.3736 -28.6355
L14.6192 -28.3854
L14.8699 -28.1432
L15.1254 -27.9087
L15.3853 -27.6819
L15.6493 -27.4628
L15.9171 -27.2513
L16.1885 -27.0472
L16.4632 -26.8505
L16.7409 -26.6611
L17.0214 -26.4789
L17.3043 -26.3037
L17.5896 -26.1354
L17.8769 -25.9739
L18.1661 -25.8191
L18.4569 -25.6708
L18.7491 -25.529
L19.0426 -25.3934
L19.3373 -25.2639
L19.6328 -25.1405
L19.9291 -25.0229
L20.2261 -24.9111
L20.5235 -24.8049
L20.8213 -24.7041
L21.1194 -24.6087
L21.4176 -24.5185
L21.7158 -24.4334
L22.014 -24.3532
L22.312 -24.278
L22.6098 -24.2074
L22.9072 -24.1414
L23.2043 -24.08
L23.501 -24.0229
L23.7971 -23.9702
L24.0927 -23.9216
L24.3877 -23.8771
L24.6821 -23.8366
L24.9757 -23.8
L25.2687 -23.7672
L25.5609 -23.7381
L25.8523 -23.7126
L26.143 -23.6907
L26.4328 -23.6722
L26.7218 -23.6571
L27.0099 -23.6454
L27.2972 -23.6369
L27.5837 -23.6316
L27.8692 -23.6294
L28.154 -23.6303
L28.4378 -23.6342
L28.7208 -23.6411
L29.0029 -23.6508
L29.2842 -23.6634
L29.5646 -23.6788
L29.8442 -23.6969
L30.1229 -23.7178
L30.4009 -23.7413
L30.678 -23.7675
L30.9543 -23.7963
L31.2299 -23.8277
L31.5047 -23.8616
L31.7787 -23.898
L32.0521 -23.9369
L32.3247 -23.9783
L32.5966 -24.0221
L32.8678 -24.0684
L33.1384 -24.117
L33.4083 -24.1681
L33.6776 -24.2215
L33.9463 -24.2774
L34.2144 -24.3356
L34.4819 -24.3961
z
" id="C0_1_90e062d9f3"/>
    </defs>
    <g clip-path="url(#p1bffca34e9)">
     <use style="fill:#ffffff;stroke:#000000;stroke-width:2.0;" x="0.0" xlink:href="#C0_0_a811fe30f3" y="72.0"/>
    </g>
    <g clip-path="url(#p1bffca34e9)">
     <use style="fill:#ff0000;stroke:#000000;stroke-width:2.0;" x="0.0" xlink:href="#C0_1_90e062d9f3" y="72.0"/>
    </g>
   </g>
  </g>
 </g>
 <defs>
  <clipPath id="p1bffca34e9">
   <rect height="72.0" width="72.0" x="0.0" y="0.0"/>
  </clipPath>
 </defs>
</svg>
