<?xml version="1.0" encoding="utf-8" standalone="no"?>
<!DOCTYPE svg PUBLIC "-//W3C//DTD SVG 1.1//EN"
  "http://www.w3.org/Graphics/SVG/1.1/DTD/svg11.dtd">
<!-- Created with matplotlib (http://matplotlib.org/) -->
<svg height="72pt" version="1.1" viewBox="0 0 72 72" width="72pt" xmlns="http://www.w3.org/2000/svg" xmlns:xlink="http://www.w3.org/1999/xlink">
 <defs>
  <style type="text/css">
*{stroke-linecap:butt;stroke-linejoin:round;}
  </style>
 </defs>
 <g id="figure_1">
  <g id="patch_1">
   <path d="
M0 72
L72 72
L72 0
L0 0
z
" style="fill:none;"/>
  </g>
  <g id="axes_1">
   <g id="PatchCollection_1">
    <defs>
     <path d="
M36 -7.5
C43.5583 -7.5 50.808 -10.5029 56.1525 -15.8475
C61.4971 -21.192 64.5 -28.4417 64.5 -36
C64.5 -43.5583 61.4971 -50.808 56.1525 -56.1525
C50.808 -61.4971 43.5583 -64.5 36 -64.5
C28.4417 -64.5 21.192 -61.4971 15.8475 -56.1525
C10.5029 -50.808 7.5 -43.5583 7.5 -36
C7.5 -28.4417 10.5029 -21.192 15.8475 -15.8475
C21.192 -10.5029 28.4417 -7.5 36 -7.5
z
" id="C0_0_a811fe30f3"/>
     <path d="
M63.9504 -30.9393
L63.7347 -30.6061
L63.5105 -30.2922
L63.2785 -29.9979
L63.0391 -29.7236
L62.7929 -29.4695
L62.5405 -29.2356
L62.2824 -29.0218
L62.0192 -28.8278
L61.7514 -28.6534
L61.4793 -28.4981
L61.2035 -28.3612
L60.9245 -28.2422
L60.6425 -28.1403
L60.3579 -28.0547
L60.0711 -27.9846
L59.7824 -27.9291
L59.4921 -27.8876
L59.2004 -27.859
L58.9076 -27.8426
L58.6139 -27.8375
L58.3195 -27.8431
L58.0245 -27.8584
L57.7293 -27.8829
L57.4339 -27.9159
L57.1385 -27.9566
L56.8433 -28.0046
L56.5483 -28.0592
L56.2537 -28.1199
L55.9596 -28.1862
L55.6662 -28.2576
L55.3735 -28.3338
L55.0816 -28.4142
L54.7906 -28.4987
L54.5007 -28.5867
L54.2118 -28.678
L53.924 -28.7723
L53.6374 -28.8693
L53.3521 -28.9688
L53.0681 -29.0705
L52.7855 -29.1742
L52.5042 -29.2798
L52.2244 -29.387
L51.9461 -29.4957
L51.6692 -29.6057
L51.3938 -29.7169
L51.12 -29.8292
L50.8477 -29.9423
L50.577 -30.0564
L50.3078 -30.1711
L50.0402 -30.2865
L49.7741 -30.4024
L49.5096 -30.5188
L49.2466 -30.6357
L48.9852 -30.7528
L48.7253 -30.8703
L48.4668 -30.988
L48.2099 -31.106
L47.9545 -31.2241
L47.7005 -31.3423
L47.4479 -31.4606
L47.1967 -31.579
L46.9469 -31.6974
L46.6984 -31.8159
L46.4512 -31.9343
L46.2053 -32.0528
L45.9607 -32.1712
L45.7173 -32.2896
L45.475 -32.408
L45.2339 -32.5263
L44.9939 -32.6446
L44.7549 -32.7628
L44.517 -32.881
L44.28 -32.9991
L44.0441 -33.1172
L43.809 -33.2353
L43.5748 -33.3534
L43.3414 -33.4714
L43.1088 -33.5895
L42.8769 -33.7075
L42.6458 -33.8255
L42.4153 -33.9436
L42.1854 -34.0617
L41.9561 -34.1799
L41.7274 -34.2981
L41.4991 -34.4164
L41.2713 -34.5348
L41.0439 -34.6534
L40.8168 -34.772
L40.5901 -34.8908
L40.3636 -35.0098
L40.1373 -35.129
L39.9113 -35.2484
L39.6854 -35.368
L39.2339 -35.4879
L39.0081 -35.608
L38.7824 -35.7285
L38.5566 -35.8492
L38.3306 -35.9703
L38.1045 -36.0918
L37.8783 -36.2136
L37.6517 -36.3359
L37.4249 -36.4586
L37.1978 -36.5818
L36.9704 -36.7054
L36.7425 -36.8296
L36.5142 -36.9543
L36.2854 -37.0796
L36.0561 -37.2055
L35.8262 -37.3319
L35.5957 -37.4591
L35.3646 -37.5869
L35.1328 -37.7154
L34.9003 -37.8447
L34.6671 -37.9747
L34.4331 -38.1055
L34.1983 -38.2372
L33.9627 -38.3697
L33.7261 -38.503
L33.4887 -38.6373
L33.2504 -38.7726
L33.011 -38.9088
L32.7708 -39.0461
L32.5295 -39.1843
L32.2871 -39.3237
L32.0438 -39.4642
L31.7994 -39.6058
L31.5539 -39.7486
L31.3073 -39.8926
L31.0596 -40.0379
L30.8109 -40.1845
L30.561 -40.3324
L30.31 -40.4816
L30.058 -40.6322
L29.8049 -40.7843
L29.5507 -40.9378
L29.2955 -41.0929
L29.0392 -41.2495
L28.782 -41.4076
L28.5239 -41.5674
L28.2649 -41.7289
L28.005 -41.8921
L27.7444 -42.057
L27.4831 -42.2238
L27.2212 -42.3923
L26.9587 -42.5628
L26.6958 -42.7351
L26.4326 -42.9095
L26.1693 -43.0859
L25.9059 -43.2644
L25.6426 -43.445
L25.3796 -43.6278
L25.1171 -43.8128
L24.8552 -44.0002
L24.5943 -44.19
L24.3345 -44.3822
L24.0761 -44.5769
L23.8194 -44.7743
L23.5648 -44.9743
L23.3124 -45.1771
L23.0628 -45.3828
L22.8162 -45.5915
L22.5732 -45.8033
L22.3342 -46.0183
L22.0996 -46.2367
L21.8699 -46.4585
L21.6458 -46.684
L21.4278 -46.9132
L21.2165 -47.1465
L21.0126 -47.3838
L20.8168 -47.6254
L20.6297 -47.8716
L20.4521 -48.1224
L20.2848 -48.3781
L20.1286 -48.6388
L19.9843 -48.9048
L19.8526 -49.1761
L19.7343 -49.453
L19.6303 -49.7356
L19.5412 -50.0239
L19.4678 -50.318
L19.4107 -50.618
L19.3704 -50.9237
L19.3476 -51.2351
L19.3426 -51.5519
L19.3556 -51.8741
L19.387 -52.2012
L19.4369 -52.5329
L19.5052 -52.8687
L19.5919 -53.2082
L19.6967 -53.5509
L19.8194 -53.8961
L19.9597 -54.2432
L20.1171 -54.5916
L20.2911 -54.9407
L20.4813 -55.2896
L20.6869 -55.6379
L20.9075 -55.9848
L21.1423 -56.3297
L21.3908 -56.6719
L21.6523 -57.0109
L21.926 -57.3461
L22.2115 -57.677
L22.508 -58.0031
L22.8148 -58.3239
L23.1315 -58.639
L23.4572 -58.948
L23.7916 -59.2505
L24.1339 -59.5463
L24.4836 -59.8351
L24.8403 -60.1166
L25.2032 -60.3906
L25.5721 -60.6569
L25.9464 -60.9154
L26.3256 -61.1659
L26.7093 -61.4083
L27.0971 -61.6425
L27.4885 -61.8685
L27.8833 -62.0863
L28.2811 -62.2957
L28.6814 -62.4969
L29.0841 -62.6897
L29.4887 -62.8743
L29.8951 -63.0506
L30.3029 -63.2187
L30.7119 -63.3787
L31.1218 -63.5306
L31.5324 -63.6745
L31.9436 -63.8104
L32.3551 -63.9385
L32.7667 -64.0588
L33.1782 -64.1714
L33.5896 -64.2765
L34.0836 -64.3741
L34.5802 -64.4355
L35.0772 -64.4646
L35.5744 -64.4851
L36.0718 -64.4968
L36.5692 -64.4999
L37.0664 -64.4943
L37.5633 -64.48
L38.0597 -64.4571
L38.5555 -64.4255
L39.0505 -64.3852
L39.5446 -64.3363
L40.0376 -64.2787
L40.5293 -64.2126
L41.0197 -64.1378
L41.5085 -64.0545
L41.9957 -63.9626
L42.4811 -63.8622
L42.9644 -63.7533
L43.4457 -63.636
L43.9247 -63.5102
L44.4013 -63.3761
L44.8753 -63.2336
L45.3466 -63.0828
L45.815 -62.9238
L46.2805 -62.7566
L46.7429 -62.5812
L47.2019 -62.3977
L47.6576 -62.2062
L48.1097 -62.0067
L48.5581 -61.7993
L49.0027 -61.5841
L49.4433 -61.361
L49.8799 -61.1302
L50.3122 -60.8918
L50.7401 -60.6457
L51.1636 -60.3922
L51.5824 -60.1312
L51.9965 -59.8629
L52.4057 -59.5873
L52.8099 -59.3046
L53.209 -59.0147
L53.6029 -58.7178
L53.9914 -58.414
L54.3744 -58.1034
L54.7518 -57.786
L55.1235 -57.462
L55.4894 -57.1315
L55.8494 -56.7945
L56.2033 -56.4512
L56.551 -56.1017
L56.8925 -55.746
L57.2276 -55.3844
L57.5563 -55.0168
L57.8784 -54.6434
L58.1938 -54.2644
L58.5025 -53.8798
L58.8043 -53.4897
L59.0991 -53.0943
L59.387 -52.6937
L59.6677 -52.288
L59.9412 -51.8774
L60.2074 -51.4619
L60.4662 -51.0417
L60.7176 -50.617
L60.9614 -50.1877
L61.1976 -49.7542
L61.4262 -49.3165
L61.647 -48.8747
L61.86 -48.429
L62.0652 -47.9795
L62.2624 -47.5263
L62.4516 -47.0697
L62.6327 -46.6097
L62.8057 -46.1464
L62.9706 -45.68
L63.1272 -45.2107
L63.2756 -44.7386
L63.4157 -44.2639
L63.5474 -43.7866
L63.6707 -43.3069
L63.7856 -42.8251
L63.8921 -42.3411
L63.99 -41.8552
L64.0794 -41.3675
L64.1603 -40.8782
L64.2325 -40.3874
L64.2962 -39.8953
L64.3513 -39.402
L64.3977 -38.9076
L64.4355 -38.4124
L64.4646 -37.9164
L64.4851 -37.4198
L64.4968 -36.9228
L64.4999 -36.4256
L64.4943 -35.9282
L64.48 -35.4308
L64.4571 -34.9336
L64.4255 -34.4367
L64.3852 -33.9403
L64.3363 -33.4445
L64.2787 -32.9495
L64.2126 -32.4554
L64.1378 -31.9624
z
" id="C0_1_f919de8920"/>
     <path d="
M37.9945 -7.6044
L37.5786 -7.63554
L37.1666 -7.67194
L36.7586 -7.71348
L36.3546 -7.76001
L35.9545 -7.81142
L35.5583 -7.8676
L35.166 -7.92841
L34.7776 -7.99375
L34.393 -8.06351
L34.0122 -8.13759
L33.6352 -8.21588
L33.2618 -8.29829
L32.8922 -8.38473
L32.5261 -8.47511
L32.1636 -8.56935
L31.8046 -8.66737
L31.449 -8.7691
L31.0968 -8.87447
L30.748 -8.98341
L30.4025 -9.09586
L30.0602 -9.21177
L29.7211 -9.33107
L29.385 -9.45374
L29.0521 -9.57971
L28.7221 -9.70894
L28.3951 -9.84141
L28.071 -9.97707
L27.7496 -10.1159
L27.4311 -10.2579
L27.1153 -10.403
L26.8021 -10.5511
L26.4916 -10.7024
L26.1836 -10.8567
L25.8781 -11.0141
L25.5751 -11.1746
L25.2745 -11.3381
L24.9762 -11.5046
L24.6803 -11.6742
L24.3866 -11.8468
L24.0951 -12.0225
L23.8058 -12.2013
L23.5187 -12.3832
L23.2336 -12.5682
L22.9507 -12.7563
L22.6697 -12.9475
L22.3907 -13.142
L22.1137 -13.3396
L21.8387 -13.5404
L21.5655 -13.7445
L21.2942 -13.9519
L21.0248 -14.1626
L20.7572 -14.3767
L20.4915 -14.5942
L20.2275 -14.8151
L19.9653 -15.0395
L19.7048 -15.2675
L19.4462 -15.499
L19.1892 -15.7342
L18.9341 -15.973
L18.6806 -16.2156
L18.429 -16.4619
L18.179 -16.7122
L17.9308 -16.9663
L17.6844 -17.2244
L17.4398 -17.4865
L17.197 -17.7526
L16.956 -18.0229
L16.7168 -18.2975
L16.4795 -18.5762
L16.2441 -18.8593
L16.0106 -19.1468
L15.7791 -19.4388
L15.5496 -19.7352
L15.3221 -20.0362
L15.0968 -20.3418
L14.8736 -20.6521
L14.6526 -20.9672
L14.4338 -21.287
L14.2175 -21.6117
L14.0035 -21.9413
L13.792 -22.2758
L13.583 -22.6152
L13.3767 -22.9597
L13.1731 -23.3093
L12.9724 -23.6639
L12.7745 -24.0236
L12.5796 -24.3884
L12.3877 -24.7583
L12.1991 -25.1333
L12.0138 -25.5134
L11.8318 -25.8986
L11.6533 -26.2888
L11.4784 -26.684
L11.3072 -27.0841
L11.1399 -27.4891
L10.9764 -27.8989
L10.8169 -28.3134
L10.6615 -28.7324
L10.5102 -29.1558
L10.3632 -29.5835
L10.2206 -30.0153
L10.0823 -30.451
L9.94847 -30.8903
L9.8191 -31.3331
L9.69423 -31.779
L9.57385 -32.2278
L9.45795 -32.6791
L9.34649 -33.1326
L9.23939 -33.5878
L9.13657 -34.0445
L9.0379 -34.5021
L8.94322 -34.9601
L8.85236 -35.4181
L8.76506 -35.8756
L8.68108 -36.3318
L8.60011 -36.7864
L8.5218 -37.2386
L8.44577 -37.6879
L8.37159 -38.1335
L8.29881 -38.5748
L8.22695 -39.0111
L8.15547 -39.4418
L8.08386 -39.8661
L8.01156 -40.2834
L7.81263 -40.6931
L7.74345 -40.2098
L7.68288 -39.7172
L7.63094 -39.2235
L7.58763 -38.7288
L7.55299 -38.2333
L7.527 -37.7371
L7.50969 -37.2403
L7.50106 -36.7432
L7.50111 -36.2459
L7.50984 -35.7485
L7.52725 -35.2511
L7.55333 -34.754
L7.58808 -34.2573
L7.63148 -33.7611
L7.68352 -33.2656
L7.74419 -32.7709
L7.81347 -32.2772
L7.89133 -31.7846
L7.97775 -31.2934
L8.07271 -30.8035
L8.17617 -30.3152
L8.28812 -29.8287
L8.4085 -29.3441
L8.53729 -28.8614
L8.67444 -28.381
L8.81992 -27.9029
L8.97367 -27.4272
L9.13566 -26.9541
L9.30583 -26.4838
L9.48413 -26.0164
L9.67051 -25.5521
L9.86491 -25.0909
L10.0673 -24.6331
L10.2775 -24.1787
L10.4956 -23.7279
L10.7215 -23.2808
L10.9551 -22.8377
L11.1963 -22.3985
L11.445 -21.9635
L11.7012 -21.5327
L11.9649 -21.1064
L12.2358 -20.6846
L12.514 -20.2674
L12.7993 -19.8551
L13.0918 -19.4477
L13.3911 -19.0453
L13.6974 -18.6481
L14.0105 -18.2561
L14.3303 -17.8696
L14.6566 -17.4886
L14.9895 -17.1132
L15.3288 -16.7436
L15.6743 -16.3798
L16.0261 -16.0221
L16.3839 -15.6704
L16.7478 -15.3249
L17.1174 -14.9857
L17.4929 -14.6529
L17.8739 -14.3266
L18.2605 -14.0069
L18.6525 -13.6939
L19.0498 -13.3877
L19.4523 -13.0884
L19.8597 -12.7961
L20.2721 -12.5108
L20.6893 -12.2327
L21.1112 -11.9618
L21.5376 -11.6983
L21.9684 -11.4421
L22.4035 -11.1935
L22.8427 -10.9524
L23.2859 -10.7189
L23.733 -10.4931
L24.1838 -10.2751
L24.6382 -10.0649
L25.0961 -9.86266
L25.5573 -9.66835
L26.0217 -9.48206
L26.4892 -9.30385
L26.9595 -9.13378
L27.4326 -8.97188
L27.9083 -8.81822
L28.3864 -8.67284
L28.8669 -8.53578
L29.3496 -8.40709
L29.8342 -8.2868
L30.3208 -8.17495
L30.8091 -8.07158
L31.2989 -7.97672
L31.7902 -7.89039
L32.2828 -7.81263
L32.7765 -7.74345
L33.2712 -7.68288
L33.7667 -7.63094
L34.2629 -7.58763
L34.7597 -7.55299
L35.2568 -7.527
L35.7541 -7.50969
L36.2515 -7.50106
L36.7489 -7.50111
L37.246 -7.50984
z
" id="C0_2_bbc3ee25ab"/>
    </defs>
    <g clip-path="url(#p1bffca34e9)">
     <use style="fill:#ff0000;stroke:#000000;stroke-width:2.0;" x="0.0" xlink:href="#C0_0_a811fe30f3" y="72.0"/>
    </g>
    <g clip-path="url(#p1bffca34e9)">
     <use style="fill:#ffffff;stroke:#000000;stroke-width:2.0;" x="0.0" xlink:href="#C0_1_f919de8920" y="72.0"/>
    </g>
    <g clip-path="url(#p1bffca34e9)">
     <use style="fill:#ffffff;stroke:#000000;stroke-width:2.0;" x="0.0" xlink:href="#C0_2_bbc3ee25ab" y="72.0"/>
    </g>
   </g>
  </g>
 </g>
 <defs>
  <clipPath id="p1bffca34e9">
   <rect height="72.0" width="72.0" x="0.0" y="0.0"/>
  </clipPath>
 </defs>
</svg>
