<?xml version="1.0" encoding="utf-8" standalone="no"?>
<!DOCTYPE svg PUBLIC "-//W3C//DTD SVG 1.1//EN"
  "http://www.w3.org/Graphics/SVG/1.1/DTD/svg11.dtd">
<!-- Created with matplotlib (http://matplotlib.org/) -->
<svg height="72pt" version="1.1" viewBox="0 0 72 72" width="72pt" xmlns="http://www.w3.org/2000/svg" xmlns:xlink="http://www.w3.org/1999/xlink">
 <defs>
  <style type="text/css">
*{stroke-linecap:butt;stroke-linejoin:round;}
  </style>
 </defs>
 <g id="figure_1">
  <g id="patch_1">
   <path d="
M0 72
L72 72
L72 0
L0 0
z
" style="fill:none;"/>
  </g>
  <g id="axes_1">
   <g id="PatchCollection_1">
    <defs>
     <path d="
M36 -7.5
C43.5583 -7.5 50.808 -10.5029 56.1525 -15.8475
C61.4971 -21.192 64.5 -28.4417 64.5 -36
C64.5 -43.5583 61.4971 -50.808 56.1525 -56.1525
C50.808 -61.4971 43.5583 -64.5 36 -64.5
C28.4417 -64.5 21.192 -61.4971 15.8475 -56.1525
C10.5029 -50.808 7.5 -43.5583 7.5 -36
C7.5 -28.4417 10.5029 -21.192 15.8475 -15.8475
C21.192 -10.5029 28.4417 -7.5 36 -7.5
z
" id="C0_0_a811fe30f3"/>
     <path d="
M15.1245 -16.6231
L15.262 -16.824
L15.415 -17.014
L15.5827 -17.1938
L15.7642 -17.3639
L15.9585 -17.5249
L16.1647 -17.6776
L16.382 -17.8225
L16.6095 -17.9603
L16.8464 -18.0917
L17.0918 -18.2174
L17.3449 -18.3378
L17.6051 -18.4537
L17.8715 -18.5655
L18.1436 -18.6736
L18.4207 -18.7787
L18.7022 -18.881
L18.9876 -18.981
L19.2763 -19.079
L19.568 -19.1754
L19.8621 -19.2703
L20.1582 -19.3641
L20.456 -19.457
L20.7551 -19.5492
L21.0552 -19.6408
L21.356 -19.7321
L21.6572 -19.823
L21.9587 -19.9138
L22.26 -20.0046
L22.5612 -20.0954
L22.8619 -20.1863
L23.162 -20.2774
L23.4614 -20.3688
L23.7599 -20.4604
L24.0574 -20.5523
L24.3538 -20.6445
L24.6489 -20.7371
L24.9428 -20.8301
L25.2353 -20.9235
L25.5264 -21.0173
L25.816 -21.1115
L26.1041 -21.2061
L26.3906 -21.3012
L26.6755 -21.3967
L26.9588 -21.4926
L27.2405 -21.589
L27.5204 -21.6858
L27.7988 -21.7831
L28.0755 -21.8807
L28.3505 -21.9788
L28.6239 -22.0773
L28.8956 -22.1763
L29.1657 -22.2756
L29.4342 -22.3754
L29.7011 -22.4756
L29.9665 -22.5763
L30.2303 -22.6773
L30.4926 -22.7788
L30.7534 -22.8807
L31.0128 -22.983
L31.2707 -23.0858
L31.5273 -23.189
L31.7825 -23.2926
L32.0365 -23.3967
L32.2891 -23.5012
L32.5406 -23.6061
L32.7908 -23.7116
L33.0399 -23.8175
L33.2879 -23.9239
L33.5349 -24.0307
L33.7808 -24.1381
L34.0257 -24.246
L34.2697 -24.3543
L34.5129 -24.4633
L34.7551 -24.5727
L34.9966 -24.6828
L35.2374 -24.7934
L35.4774 -24.9046
L35.7167 -25.0164
L35.9555 -25.1288
L36.1936 -25.2418
L36.4313 -25.3555
L36.6684 -25.4699
L36.9052 -25.585
L37.1415 -25.7008
L37.6131 -25.8173
L37.8486 -25.9346
L38.0838 -26.0526
L38.3188 -26.1715
L38.5537 -26.2911
L38.7886 -26.4116
L39.0234 -26.533
L39.2582 -26.6553
L39.493 -26.7784
L39.728 -26.9026
L39.9631 -27.0276
L40.1983 -27.1537
L40.4338 -27.2808
L40.6695 -27.4089
L40.9056 -27.5381
L41.142 -27.6684
L41.3787 -27.7998
L41.6159 -27.9324
L41.8536 -28.0661
L42.0917 -28.2011
L42.3304 -28.3373
L42.5697 -28.4747
L42.8095 -28.6135
L43.05 -28.7536
L43.2912 -28.895
L43.5332 -29.0378
L43.7758 -29.182
L44.0192 -29.3277
L44.2635 -29.4748
L44.5086 -29.6234
L44.7545 -29.7736
L45.0013 -29.9253
L45.2491 -30.0785
L45.4978 -30.2333
L45.7474 -30.3898
L45.998 -30.5479
L46.2497 -30.7076
L46.5023 -30.869
L46.756 -31.032
L47.0107 -31.1968
L47.2665 -31.3633
L47.5233 -31.5315
L47.7812 -31.7013
L48.0402 -31.8729
L48.3002 -32.0462
L48.5613 -32.2212
L48.8235 -32.3979
L49.0867 -32.5762
L49.3509 -32.7561
L49.6161 -32.9376
L49.8824 -33.1207
L50.1496 -33.3053
L50.4178 -33.4912
L50.6868 -33.6786
L50.9568 -33.8672
L51.2276 -34.057
L51.4992 -34.2479
L51.7716 -34.4397
L52.0447 -34.6323
L52.3184 -34.8256
L52.5928 -35.0193
L52.8678 -35.2134
L53.1432 -35.4074
L53.4191 -35.6013
L53.6953 -35.7947
L53.9719 -35.9874
L54.2487 -36.179
L54.5258 -36.3691
L54.8029 -36.5575
L55.0802 -36.7435
L55.3574 -36.9268
L55.6346 -37.1069
L55.9117 -37.2832
L56.1886 -37.4551
L56.4653 -37.6219
L56.7417 -37.7831
L57.0178 -37.9378
L57.2936 -38.0852
L57.569 -38.2247
L57.844 -38.3552
L58.1184 -38.476
L58.3923 -38.5861
L58.6657 -38.6845
L58.9384 -38.7704
L59.2103 -38.8428
L59.4815 -38.9007
L59.7517 -38.9434
L60.0208 -38.9698
L60.2887 -38.9794
L60.5552 -38.9713
L60.82 -38.9449
L61.0829 -38.8999
L61.3436 -38.8358
L61.6019 -38.7523
L61.8573 -38.6493
L62.1095 -38.5268
L62.3581 -38.385
L62.6027 -38.2241
L62.843 -38.0443
L63.0784 -37.8462
L63.3087 -37.6302
L63.5333 -37.3969
L63.7519 -37.147
L63.9641 -36.8811
L64.1695 -36.5999
L64.3677 -36.3042
L64.4956 -35.9946
L64.4824 -35.4972
L64.4607 -34.9999
L64.4302 -34.503
L64.3911 -34.0065
L64.3433 -33.5107
L64.2869 -33.0155
L64.2219 -32.5213
L64.1483 -32.0282
L64.0661 -31.5363
L63.9753 -31.0457
L63.8761 -30.5566
L63.7683 -30.0692
L63.6521 -29.5836
L63.5275 -29.1
L63.3945 -28.6184
L63.2531 -28.1391
L63.1034 -27.6622
L62.9455 -27.1879
L62.7794 -26.7162
L62.6051 -26.2473
L62.4227 -25.7815
L62.2323 -25.3187
L62.0338 -24.8592
L61.8275 -24.4031
L61.6133 -23.9505
L61.3912 -23.5015
L61.1615 -23.0564
L60.924 -22.6153
L60.679 -22.1782
L60.4265 -21.7453
L60.1665 -21.3168
L59.8992 -20.8927
L59.6245 -20.4732
L59.3427 -20.0585
L59.0538 -19.6486
L58.7578 -19.2437
L58.455 -18.8439
L58.1452 -18.4494
L57.8288 -18.0602
L57.5057 -17.6764
L57.176 -17.2982
L56.8399 -16.9257
L56.4974 -16.5591
L56.1487 -16.1983
L55.7939 -15.8436
L55.433 -15.495
L55.0662 -15.1527
L54.6936 -14.8167
L54.3153 -14.4872
L53.9314 -14.1642
L53.5421 -13.8479
L53.1474 -13.5384
L52.7475 -13.2356
L52.3425 -12.9398
L51.9325 -12.6511
L51.5177 -12.3694
L51.0981 -12.0949
L50.6739 -11.8278
L50.2453 -11.5679
L49.8123 -11.3156
L49.3752 -11.0707
L48.9339 -10.8334
L48.4887 -10.6039
L48.0397 -10.382
L47.587 -10.1679
L47.1308 -9.96175
L46.6713 -9.76349
L46.2084 -9.57323
L45.7425 -9.39101
L45.2736 -9.21691
L44.8018 -9.05096
L44.3274 -8.89321
L43.8505 -8.74373
L43.3711 -8.60255
L42.8895 -8.46971
L42.4058 -8.34526
L41.9202 -8.22923
L41.4327 -8.12167
L40.9436 -8.02259
L40.453 -7.93204
L39.9611 -7.85003
L39.4679 -7.77661
L38.9737 -7.71177
L38.4785 -7.65556
L37.9826 -7.60798
L37.4862 -7.56905
L36.9892 -7.53877
L36.492 -7.51717
L35.9946 -7.50425
L35.4972 -7.5
L34.9999 -7.50444
L34.503 -7.51755
L34.0065 -7.53934
L33.5107 -7.5698
L33.0155 -7.60892
L32.5213 -7.65669
L32.0282 -7.7131
L31.5363 -7.77812
L31.0457 -7.85173
L30.5566 -7.93392
L30.0692 -8.02466
L29.5836 -8.12392
L29.1 -8.23167
L28.6184 -8.34788
L28.1391 -8.47252
L27.6622 -8.60554
L27.1879 -8.7469
L26.7162 -8.89657
L26.2473 -9.05449
L25.7815 -9.22062
L25.3187 -9.3949
L24.8592 -9.57729
L24.4031 -9.76773
L23.9505 -9.96616
L23.5015 -10.1725
L23.0564 -10.3867
L22.6153 -10.6088
L22.1782 -10.8385
L21.7453 -11.076
L21.3168 -11.321
L20.8927 -11.5735
L20.4732 -11.8335
L20.0585 -12.1008
L19.6486 -12.3755
L19.2437 -12.6573
L18.8439 -12.9462
L18.4494 -13.2422
L18.0602 -13.545
L17.6764 -13.8548
L17.2982 -14.1712
L16.9257 -14.4943
L16.5591 -14.824
L16.1983 -15.1601
L15.8436 -15.5026
L15.495 -15.8513
z
" id="C0_1_a64f0377d3"/>
     <path d="
M7.56238 -36.3267
L7.75885 -36.6515
L7.95783 -36.9791
L8.15942 -37.3088
L8.36366 -37.6397
L8.57059 -37.9713
L8.78022 -38.3028
L8.99253 -38.6339
L9.2075 -38.9639
L9.42507 -39.2923
L9.64519 -39.6189
L9.86778 -39.9432
L10.0928 -40.2649
L10.3201 -40.5837
L10.5496 -40.8993
L10.7812 -41.2116
L11.0148 -41.5203
L11.2504 -41.8253
L11.4877 -42.1264
L11.7267 -42.4235
L11.9673 -42.7165
L12.2094 -43.0053
L12.4529 -43.2899
L12.6977 -43.5702
L12.9437 -43.8462
L13.1907 -44.1179
L13.4388 -44.3852
L13.6879 -44.6482
L13.9377 -44.9069
L14.1884 -45.1612
L14.4398 -45.4113
L14.6918 -45.6571
L14.9444 -45.8987
L15.1976 -46.1362
L15.4512 -46.3695
L15.7053 -46.5987
L15.9598 -46.8239
L16.2146 -47.0452
L16.4697 -47.2625
L16.7251 -47.476
L16.9808 -47.6858
L17.2367 -47.8918
L17.4929 -48.0941
L17.7492 -48.2929
L18.0058 -48.4881
L18.2625 -48.6799
L18.5194 -48.8683
L18.7765 -49.0533
L19.0338 -49.2351
L19.2912 -49.4136
L19.5489 -49.589
L19.8067 -49.7614
L20.0647 -49.9306
L20.3229 -50.097
L20.5814 -50.2604
L20.8401 -50.4209
L21.0991 -50.5786
L21.3583 -50.7336
L21.6179 -50.8859
L21.8778 -51.0355
L22.1381 -51.1825
L22.3987 -51.327
L22.6598 -51.469
L22.9213 -51.6084
L23.1832 -51.7455
L23.4457 -51.8802
L23.7088 -52.0125
L23.9724 -52.1425
L24.2366 -52.2703
L24.5015 -52.3958
L24.7671 -52.5191
L25.0334 -52.6402
L25.3005 -52.7591
L25.5684 -52.8759
L25.8371 -52.9907
L26.1068 -53.1033
L26.3774 -53.2139
L26.649 -53.3225
L26.9216 -53.429
L27.1954 -53.5335
L27.4702 -53.6361
L27.7462 -53.7366
L28.0235 -53.8352
L28.302 -53.9318
L28.5819 -54.0265
L28.8632 -54.1192
L29.1458 -54.21
L29.43 -54.2988
L29.7157 -54.3857
L30.0029 -54.4707
L30.2918 -54.5537
L30.5824 -54.6347
L30.8747 -54.7137
L31.1688 -54.7908
L31.4647 -54.8659
L31.7626 -54.939
L32.0623 -55.01
L32.3641 -55.079
L32.6679 -55.146
L32.9738 -55.2108
L33.2818 -55.2736
L33.592 -55.3342
L33.9045 -55.3926
L34.2192 -55.4489
L34.5363 -55.5029
L34.8557 -55.5546
L35.1775 -55.6041
L35.5017 -55.6512
L35.8285 -55.6959
L36.1577 -55.7382
L36.4895 -55.7781
L36.8239 -55.8154
L37.1609 -55.8502
L37.5005 -55.8824
L37.8427 -55.912
L38.1876 -55.9388
L38.5351 -55.9629
L38.8853 -55.9843
L39.2381 -56.0028
L39.5936 -56.0184
L39.9517 -56.0311
L40.3124 -56.0408
L40.6757 -56.0475
L41.0416 -56.0511
L41.4099 -56.0517
L41.7807 -56.0492
L42.1538 -56.0435
L42.5293 -56.0346
L42.9069 -56.0226
L43.2867 -56.0074
L43.6685 -55.989
L44.0521 -55.9674
L44.4375 -55.9428
L44.8245 -55.915
L45.2128 -55.8842
L45.6024 -55.8505
L45.9931 -55.8139
L46.3845 -55.7746
L46.7765 -55.7326
L47.1689 -55.6883
L47.5613 -55.6417
L47.9534 -55.5932
L48.3449 -55.5429
L48.7356 -55.4912
L49.125 -55.4384
L49.5128 -55.3849
L49.8985 -55.3311
L50.2817 -55.2775
L50.6621 -55.2246
L51.0391 -55.1731
L51.4123 -55.1234
L51.7811 -55.0764
L52.1451 -55.0326
L52.5038 -54.9929
L52.8566 -54.9579
L53.2029 -54.9286
L53.5423 -54.9058
L53.8743 -54.8902
L54.1982 -54.8827
L54.5136 -54.8841
L54.8201 -54.8953
L55.1171 -54.9167
L55.4043 -54.9493
L55.6812 -54.9934
L55.9475 -55.0496
L56.2029 -55.1182
L56.4471 -55.1995
L56.4964 -55.2937
L56.1477 -55.8027
L55.7928 -56.1574
L55.4319 -56.506
L55.0651 -56.8483
L54.6925 -57.1842
L54.3142 -57.5137
L53.9303 -57.8367
L53.5409 -58.153
L53.1462 -58.4625
L52.7463 -58.7652
L52.3413 -59.061
L51.9313 -59.3498
L51.5164 -59.6314
L51.0969 -59.9059
L50.6727 -60.173
L50.244 -60.4328
L49.8111 -60.6852
L49.3739 -60.93
L48.9326 -61.1672
L48.4874 -61.3968
L48.0384 -61.6186
L47.5857 -61.8327
L47.1295 -62.0388
L46.6699 -62.2371
L46.2071 -62.4273
L45.7411 -62.6095
L45.2722 -62.7836
L44.8004 -62.9495
L44.326 -63.1072
L43.8491 -63.2567
L43.3697 -63.3979
L42.8881 -63.5307
L42.4044 -63.6551
L41.9188 -63.7711
L41.4313 -63.8786
L40.9422 -63.9777
L40.4516 -64.0682
L39.9596 -64.1502
L39.4665 -64.2236
L38.9722 -64.2884
L38.4771 -64.3446
L37.9812 -64.3921
L37.4847 -64.4311
L36.9878 -64.4613
L36.4905 -64.4829
L35.9931 -64.4958
L35.4957 -64.5
L34.9985 -64.4955
L34.5016 -64.4824
L34.0051 -64.4606
L33.5092 -64.4301
L33.0141 -64.3909
L32.5199 -64.3432
L32.0268 -64.2867
L31.5348 -64.2217
L31.0443 -64.148
L30.5552 -64.0658
L30.0678 -63.9751
L29.5822 -63.8758
L29.0986 -63.768
L28.617 -63.6518
L28.1377 -63.5271
L27.6608 -63.3941
L27.1865 -63.2527
L26.7148 -63.103
L26.246 -62.945
L25.7801 -62.7789
L25.3173 -62.6046
L24.8578 -62.4222
L24.4017 -62.2317
L23.9491 -62.0332
L23.5002 -61.8269
L23.0551 -61.6126
L22.614 -61.3906
L22.1769 -61.1608
L21.744 -60.9233
L21.3155 -60.6783
L20.8915 -60.4257
L20.472 -60.1657
L20.0573 -59.8984
L19.6474 -59.6237
L19.2426 -59.3419
L18.8428 -59.0529
L18.4482 -58.757
L18.059 -58.4541
L17.6753 -58.1443
L17.2971 -57.8278
L16.9247 -57.5047
L16.558 -57.175
L16.1973 -56.8389
L15.8426 -56.4964
L15.494 -56.1477
L15.1517 -55.7928
L14.8158 -55.4319
L14.4863 -55.0651
L14.1633 -54.6925
L13.847 -54.3142
L13.5375 -53.9303
L13.2348 -53.5409
L12.939 -53.1462
L12.6502 -52.7463
L12.3686 -52.3413
L12.0941 -51.9313
L11.827 -51.5164
L11.5672 -51.0969
L11.3148 -50.6727
L11.07 -50.244
L10.8328 -49.8111
L10.6032 -49.3739
L10.3814 -48.9326
L10.1673 -48.4874
L9.96116 -48.0384
L9.76293 -47.5857
L9.57268 -47.1295
L9.39049 -46.6699
L9.21641 -46.2071
L9.05048 -45.7411
L8.89277 -45.2722
L8.7433 -44.8004
L8.60215 -44.326
L8.46934 -43.8491
L8.34491 -43.3697
L8.22891 -42.8881
L8.12136 -42.4044
L8.02231 -41.9188
L7.93179 -41.4313
L7.84981 -40.9422
L7.7764 -40.4516
L7.7116 -39.9596
L7.65541 -39.4665
L7.60785 -38.9722
L7.56895 -38.4771
L7.5387 -37.9812
L7.51712 -37.4847
z
" id="C0_2_b213914f76"/>
    </defs>
    <g clip-path="url(#p1bffca34e9)">
     <use style="fill:#ff0000;stroke:#000000;stroke-width:2.0;" x="0.0" xlink:href="#C0_0_a811fe30f3" y="72.0"/>
    </g>
    <g clip-path="url(#p1bffca34e9)">
     <use style="fill:#ffffff;stroke:#000000;stroke-width:2.0;" x="0.0" xlink:href="#C0_1_a64f0377d3" y="72.0"/>
    </g>
    <g clip-path="url(#p1bffca34e9)">
     <use style="fill:#ffffff;stroke:#000000;stroke-width:2.0;" x="0.0" xlink:href="#C0_2_b213914f76" y="72.0"/>
    </g>
   </g>
  </g>
 </g>
 <defs>
  <clipPath id="p1bffca34e9">
   <rect height="72.0" width="72.0" x="0.0" y="0.0"/>
  </clipPath>
 </defs>
</svg>
