<?xml version="1.0" encoding="utf-8" standalone="no"?>
<!DOCTYPE svg PUBLIC "-//W3C//DTD SVG 1.1//EN"
  "http://www.w3.org/Graphics/SVG/1.1/DTD/svg11.dtd">
<!-- Created with matplotlib (http://matplotlib.org/) -->
<svg height="72pt" version="1.1" viewBox="0 0 72 72" width="72pt" xmlns="http://www.w3.org/2000/svg" xmlns:xlink="http://www.w3.org/1999/xlink">
 <defs>
  <style type="text/css">
*{stroke-linecap:butt;stroke-linejoin:round;}
  </style>
 </defs>
 <g id="figure_1">
  <g id="patch_1">
   <path d="
M0 72
L72 72
L72 0
L0 0
z
" style="fill:none;"/>
  </g>
  <g id="axes_1">
   <g id="PatchCollection_1">
    <defs>
     <path d="
M36 -7.5
C43.5583 -7.5 50.808 -10.5029 56.1525 -15.8475
C61.4971 -21.192 64.5 -28.4417 64.5 -36
C64.5 -43.5583 61.4971 -50.808 56.1525 -56.1525
C50.808 -61.4971 43.5583 -64.5 36 -64.5
C28.4417 -64.5 21.192 -61.4971 15.8475 -56.1525
C10.5029 -50.808 7.5 -43.5583 7.5 -36
C7.5 -28.4417 10.5029 -21.192 15.8475 -15.8475
C21.192 -10.5029 28.4417 -7.5 36 -7.5
z
" id="C0_0_a811fe30f3"/>
     <path d="
M23.593 -33.5118
L23.718 -33.752
L23.8454 -33.9913
L23.975 -34.2296
L24.107 -34.4669
L24.2413 -34.7032
L24.3779 -34.9386
L24.5168 -35.173
L24.658 -35.4065
L24.8016 -35.639
L24.9475 -35.8706
L25.0957 -36.1013
L25.2463 -36.331
L25.3993 -36.5598
L25.5546 -36.7876
L25.7124 -37.0145
L25.8725 -37.2404
L26.0351 -37.4654
L26.2001 -37.6895
L26.3675 -37.9125
L26.5375 -38.1346
L26.7099 -38.3557
L26.8848 -38.5758
L27.0623 -38.7948
L27.2423 -39.0128
L27.4249 -39.2298
L27.61 -39.4456
L27.7978 -39.6603
L27.9882 -39.8738
L28.1813 -40.0862
L28.3771 -40.2973
L28.5755 -40.5071
L28.7767 -40.7157
L28.9806 -40.9229
L29.1873 -41.1287
L29.3967 -41.333
L29.609 -41.5358
L29.824 -41.7371
L30.0419 -41.9367
L30.2627 -42.1346
L30.4863 -42.3307
L30.7129 -42.525
L30.9423 -42.7173
L31.1746 -42.9077
L31.4099 -43.0959
L31.6481 -43.282
L31.8892 -43.4657
L32.1333 -43.6471
L32.3803 -43.8259
L32.6303 -44.0022
L32.8832 -44.1757
L33.139 -44.3464
L33.3978 -44.5141
L33.6595 -44.6786
L33.9241 -44.84
L34.1916 -44.9979
L34.4619 -45.1524
L34.7351 -45.3031
L35.0111 -45.45
L35.2898 -45.5929
L35.5713 -45.7317
L35.8555 -45.8661
L36.1422 -45.996
L36.4316 -46.1213
L36.7235 -46.2417
L37.0178 -46.357
L37.3145 -46.4672
L37.6134 -46.5719
L37.9146 -46.6711
L38.2179 -46.7644
L38.5233 -46.8519
L38.8305 -46.9331
L39.1396 -47.0081
L39.4503 -47.0765
L39.7626 -47.1382
L40.0764 -47.193
L40.3914 -47.2408
L40.7076 -47.2814
L41.0248 -47.3146
L41.3428 -47.3403
L41.6616 -47.3583
L41.9808 -47.3684
L42.3004 -47.3707
L42.6202 -47.3649
L42.9399 -47.3509
L43.2595 -47.3288
L43.5787 -47.2983
L43.8973 -47.2594
L44.2151 -47.2121
L44.532 -47.1563
L44.8477 -47.092
L45.162 -47.0193
L45.4747 -46.9381
L45.7857 -46.8485
L46.0948 -46.7505
L46.4016 -46.6441
L46.7062 -46.5295
L47.0081 -46.4067
L47.3074 -46.2759
L47.6037 -46.1371
L47.897 -45.9904
L48.187 -45.8362
L48.4736 -45.6744
L48.7566 -45.5052
L49.0359 -45.3288
L49.3113 -45.1455
L49.5826 -44.9553
L49.8499 -44.7584
L50.1128 -44.5552
L50.3713 -44.3457
L50.6254 -44.1302
L50.8748 -43.9089
L51.1195 -43.682
L51.3595 -43.4497
L51.5945 -43.2122
L51.8247 -42.9697
L52.0498 -42.7225
L52.2699 -42.4708
L52.4848 -42.2147
L52.6946 -41.9544
L52.8993 -41.6903
L53.0986 -41.4224
L53.2928 -41.1509
L53.4816 -40.8761
L53.6652 -40.5981
L53.8435 -40.3171
L54.0165 -40.0333
L54.1842 -39.7468
L54.3466 -39.4578
L54.5037 -39.1665
L54.6555 -38.873
L54.802 -38.5775
L54.9433 -38.2801
L55.0794 -37.9809
L55.2103 -37.6801
L55.336 -37.3778
L55.4565 -37.0741
L55.5719 -36.7691
L55.6822 -36.463
L55.7874 -36.1558
L55.8876 -35.8477
L55.9828 -35.5387
L56.0731 -35.2289
L56.1584 -34.9184
L56.2387 -34.6074
L56.3142 -34.2958
L56.3849 -33.9837
L56.4508 -33.6712
L56.5119 -33.3584
L56.5682 -33.0454
L56.6199 -32.7321
L56.6669 -32.4187
L56.7092 -32.1052
L56.7469 -31.7917
L56.78 -31.4781
L56.8086 -31.1645
L56.8326 -30.8511
L56.8521 -30.5377
L56.8671 -30.2245
L56.8776 -29.9115
L56.8837 -29.5986
L56.8854 -29.286
L56.8826 -28.9737
L56.8754 -28.6617
L56.8639 -28.35
L56.848 -28.0386
L56.8277 -27.7276
L56.803 -27.4169
L56.774 -27.1067
L56.7406 -26.7969
L56.7029 -26.4875
L56.6608 -26.1786
L56.6144 -25.8702
L56.5637 -25.5623
L56.5085 -25.2549
L56.449 -24.948
L56.3851 -24.6416
L56.3168 -24.3358
L56.2441 -24.0307
L56.167 -23.7261
L56.0854 -23.4221
L55.9994 -23.1188
L55.9089 -22.8161
L55.8138 -22.5142
L55.7143 -22.2129
L55.6101 -21.9124
L55.5014 -21.6126
L55.388 -21.3136
L55.27 -21.0155
L55.1473 -20.7182
L55.0198 -20.4217
L54.8876 -20.1262
L54.7505 -19.8317
L54.6086 -19.5381
L54.4618 -19.2456
L54.31 -18.9541
L54.1533 -18.6638
L53.9915 -18.3747
L53.8246 -18.0868
L53.6525 -17.8001
L53.4753 -17.5149
L53.2928 -17.231
L53.1051 -16.9487
L52.9119 -16.6679
L52.7134 -16.3887
L52.5094 -16.1112
L52.2999 -15.8355
L52.0849 -15.5618
L51.8642 -15.29
L51.6379 -15.0203
L51.4058 -14.7527
L51.168 -14.4875
L50.9244 -14.2247
L50.6749 -13.9644
L50.4195 -13.7067
L50.1582 -13.4519
L49.8909 -13.1999
L49.6175 -12.9511
L49.3382 -12.7055
L49.0528 -12.4632
L48.7613 -12.2245
L48.4637 -11.9894
L48.1599 -11.7583
L47.8501 -11.5312
L47.5342 -11.3083
L47.2122 -11.0899
L46.8841 -10.8762
L46.5499 -10.6672
L46.2098 -10.4633
L45.8637 -10.2647
L45.5117 -10.0715
L45.1539 -9.88403
L44.7903 -9.70248
L44.4211 -9.5271
L44.0464 -9.3581
L43.6662 -9.19573
L43.2808 -9.04022
L42.8903 -8.89182
L42.4948 -8.75076
L42.0945 -8.61727
L41.6897 -8.49161
L41.2805 -8.374
L40.8673 -8.26468
L40.4501 -8.16386
L40.0294 -8.07178
L39.6054 -7.98865
L39.1784 -7.91468
L38.7488 -7.85006
L38.3168 -7.79499
L37.8829 -7.74963
L37.4473 -7.71415
L37.0106 -7.6887
L36.573 -7.67341
L36.1351 -7.66841
L35.6972 -7.67378
L35.2598 -7.68961
L34.8232 -7.71596
L34.3881 -7.75287
L33.9547 -7.80035
L33.5237 -7.85841
L33.0954 -7.92701
L32.6703 -8.00611
L32.2488 -8.09564
L31.8315 -8.1955
L31.4186 -8.30557
L31.0108 -8.42572
L30.6084 -8.55578
L30.2117 -8.69558
L29.8213 -8.8449
L29.4374 -9.00354
L29.0604 -9.17125
L28.6907 -9.34778
L28.3285 -9.53286
L27.9741 -9.72621
L27.6279 -9.92753
L27.29 -10.1365
L26.9606 -10.3529
L26.6399 -10.5763
L26.3282 -10.8064
L26.0254 -11.0429
L25.7318 -11.2855
L25.4474 -11.5337
L25.1723 -11.7874
L24.9065 -12.0462
L24.65 -12.3098
L24.4028 -12.5777
L24.1649 -12.8498
L23.9364 -13.1258
L23.717 -13.4052
L23.5067 -13.6879
L23.3055 -13.9736
L23.1133 -14.262
L22.9298 -14.5527
L22.7551 -14.8457
L22.589 -15.1406
L22.4313 -15.4371
L22.2819 -15.7352
L22.1406 -16.0346
L22.0074 -16.335
L21.8819 -16.6363
L21.7642 -16.9383
L21.6539 -17.2408
L21.5509 -17.5437
L21.4551 -17.8468
L21.3663 -18.15
L21.2843 -18.4531
L21.209 -18.7561
L21.1401 -19.0587
L21.0776 -19.3609
L21.0212 -19.6627
L20.9709 -19.9638
L20.9263 -20.2642
L20.8875 -20.5639
L20.8542 -20.8627
L20.8263 -21.1606
L20.8036 -21.4576
L20.786 -21.7535
L20.7734 -22.0484
L20.7657 -22.3421
L20.7626 -22.6346
L20.7641 -22.926
L20.7701 -23.2161
L20.7804 -23.5049
L20.7949 -23.7925
L20.8136 -24.0788
L20.8362 -24.3637
L20.8628 -24.6473
L20.8932 -24.9295
L20.9273 -25.2104
L20.965 -25.4899
L21.0063 -25.7681
L21.051 -26.0449
L21.0991 -26.3202
L21.1505 -26.5943
L21.2052 -26.8669
L21.263 -27.1382
L21.3238 -27.4082
L21.3878 -27.6767
L21.4546 -27.944
L21.5245 -28.2099
L21.5971 -28.4745
L21.6726 -28.7378
L21.7508 -28.9998
L21.8318 -29.2605
L21.9154 -29.52
L22.0017 -29.7782
L22.0906 -30.0352
L22.182 -30.2909
L22.276 -30.5455
L22.3725 -30.7988
L22.4715 -31.051
L22.5729 -31.3021
L22.6767 -31.5519
L22.783 -31.8007
L22.8916 -32.0483
L23.0027 -32.2949
L23.116 -32.5404
L23.2318 -32.7848
L23.3498 -33.0281
z
" id="C0_1_c1c648de16"/>
    </defs>
    <g clip-path="url(#p1bffca34e9)">
     <use style="fill:#ff0000;stroke:#000000;stroke-width:2.0;" x="0.0" xlink:href="#C0_0_a811fe30f3" y="72.0"/>
    </g>
    <g clip-path="url(#p1bffca34e9)">
     <use style="fill:#ffffff;stroke:#000000;stroke-width:2.0;" x="0.0" xlink:href="#C0_1_c1c648de16" y="72.0"/>
    </g>
   </g>
  </g>
 </g>
 <defs>
  <clipPath id="p1bffca34e9">
   <rect height="72.0" width="72.0" x="0.0" y="0.0"/>
  </clipPath>
 </defs>
</svg>
