<?xml version="1.0" encoding="utf-8" standalone="no"?>
<!DOCTYPE svg PUBLIC "-//W3C//DTD SVG 1.1//EN"
  "http://www.w3.org/Graphics/SVG/1.1/DTD/svg11.dtd">
<!-- Created with matplotlib (http://matplotlib.org/) -->
<svg height="72pt" version="1.1" viewBox="0 0 72 72" width="72pt" xmlns="http://www.w3.org/2000/svg" xmlns:xlink="http://www.w3.org/1999/xlink">
 <defs>
  <style type="text/css">
*{stroke-linecap:butt;stroke-linejoin:round;}
  </style>
 </defs>
 <g id="figure_1">
  <g id="patch_1">
   <path d="
M0 72
L72 72
L72 0
L0 0
z
" style="fill:none;"/>
  </g>
  <g id="axes_1">
   <g id="PatchCollection_1">
    <defs>
     <path d="
M36 -7.5
C43.5583 -7.5 50.808 -10.5029 56.1525 -15.8475
C61.4971 -21.192 64.5 -28.4417 64.5 -36
C64.5 -43.5583 61.4971 -50.808 56.1525 -56.1525
C50.808 -61.4971 43.5583 -64.5 36 -64.5
C28.4417 -64.5 21.192 -61.4971 15.8475 -56.1525
C10.5029 -50.808 7.5 -43.5583 7.5 -36
C7.5 -28.4417 10.5029 -21.192 15.8475 -15.8475
C21.192 -10.5029 28.4417 -7.5 36 -7.5
z
" id="C0_0_a811fe30f3"/>
     <path d="
M52.544 -59.1569
L52.1816 -59.1776
L51.8266 -59.1776
L51.4789 -59.158
L51.1386 -59.1202
L50.8056 -59.0652
L50.4797 -58.9942
L50.1607 -58.9085
L49.8484 -58.809
L49.5425 -58.6969
L49.243 -58.5732
L48.9494 -58.4389
L48.6617 -58.2948
L48.3795 -58.1417
L48.1027 -57.9805
L47.8311 -57.8118
L47.5645 -57.6364
L47.3026 -57.4548
L47.0454 -57.2676
L46.7927 -57.0754
L46.5443 -56.8786
L46.3 -56.6777
L46.0599 -56.4731
L45.8237 -56.2652
L45.5913 -56.0543
L45.3627 -55.8408
L45.1376 -55.625
L44.9161 -55.4071
L44.698 -55.1875
L44.4833 -54.9662
L44.2717 -54.7436
L44.0634 -54.5199
L43.8581 -54.2952
L43.6558 -54.0697
L43.4565 -53.8435
L43.26 -53.6168
L43.0663 -53.3897
L42.8753 -53.1624
L42.687 -52.9348
L42.5012 -52.7072
L42.3179 -52.4796
L42.1371 -52.252
L41.9587 -52.0246
L41.7826 -51.7974
L41.6087 -51.5704
L41.437 -51.3437
L41.2675 -51.1173
L41.1001 -50.8913
L40.9347 -50.6657
L40.7713 -50.4404
L40.6097 -50.2156
L40.4501 -49.9912
L40.2922 -49.7673
L40.1362 -49.5438
L39.9818 -49.3208
L39.829 -49.0982
L39.6779 -48.876
L39.5284 -48.6543
L39.3803 -48.433
L39.2337 -48.2121
L39.0885 -47.9916
L38.9447 -47.7715
L38.8022 -47.5517
L38.6611 -47.3322
L38.5211 -47.1131
L38.3823 -46.8942
L38.2448 -46.6756
L38.1083 -46.4572
L37.9729 -46.239
L37.8385 -46.021
L37.7052 -45.803
L37.5728 -45.5852
L37.4413 -45.3675
L37.3107 -45.1498
L37.181 -44.932
L37.0521 -44.7143
L36.924 -44.4964
L36.7967 -44.2784
L36.67 -44.0603
L36.5441 -43.8419
L36.4188 -43.6233
L36.2942 -43.4044
L36.1701 -43.1852
L36.0466 -42.9656
L35.8012 -42.7456
L35.6793 -42.5251
L35.5578 -42.3041
L35.4368 -42.0825
L35.3161 -41.8604
L35.1958 -41.6375
L35.0759 -41.414
L34.9564 -41.1898
L34.8371 -40.9647
L34.7181 -40.7388
L34.5994 -40.512
L34.481 -40.2843
L34.3628 -40.0556
L34.2447 -39.8258
L34.1269 -39.5949
L34.0093 -39.3629
L33.8918 -39.1296
L33.7744 -38.8951
L33.6572 -38.6593
L33.5401 -38.4222
L33.4231 -38.1836
L33.3062 -37.9435
L33.1894 -37.7019
L33.0726 -37.4588
L32.9559 -37.214
L32.8393 -36.9675
L32.7227 -36.7192
L32.6062 -36.4692
L32.4897 -36.2173
L32.3732 -35.9635
L32.2569 -35.7077
L32.1405 -35.45
L32.0243 -35.1901
L31.9081 -34.9282
L31.792 -34.664
L31.676 -34.3976
L31.5601 -34.129
L31.4444 -33.858
L31.3288 -33.5847
L31.2134 -33.309
L31.0982 -33.0308
L30.9833 -32.7501
L30.8686 -32.4668
L30.7543 -32.181
L30.6404 -31.8926
L30.5269 -31.6015
L30.414 -31.3077
L30.3016 -31.0113
L30.1898 -30.7121
L30.0788 -30.4103
L29.9685 -30.1056
L29.8592 -29.7983
L29.7509 -29.4881
L29.6437 -29.1753
L29.5378 -28.8597
L29.4333 -28.5414
L29.3303 -28.2204
L29.229 -27.8968
L29.1296 -27.5705
L29.0323 -27.2418
L28.9373 -26.9105
L28.8448 -26.5768
L28.755 -26.2409
L28.6683 -25.9026
L28.5849 -25.5623
L28.5051 -25.22
L28.4293 -24.8759
L28.3578 -24.5301
L28.2911 -24.1827
L28.2296 -23.8341
L28.1738 -23.4843
L28.1241 -23.1337
L28.0812 -22.7824
L28.0456 -22.4308
L28.018 -22.0791
L27.9991 -21.7277
L27.9896 -21.377
L27.9903 -21.0272
L28.002 -20.6789
L28.0257 -20.3324
L28.0622 -19.9883
L28.1124 -19.647
L28.1774 -19.309
L28.258 -18.975
L28.3551 -18.6454
L28.4696 -18.321
L28.6024 -18.0023
L28.7539 -17.69
L28.9248 -17.3846
L29.1155 -17.0869
L29.326 -16.7974
L29.5565 -16.5167
L29.8066 -16.2453
L30.0759 -15.9838
L30.364 -15.7326
L30.6699 -15.4921
L30.9928 -15.2625
L31.3316 -15.0443
L31.6854 -14.8375
L32.0528 -14.6423
L32.4328 -14.4589
L32.824 -14.2872
L33.2255 -14.1274
L33.6359 -13.9793
L34.0542 -13.8428
L34.4793 -13.718
L34.9103 -13.6046
L35.3461 -13.5025
L35.7858 -13.4116
L36.2286 -13.3316
L36.6738 -13.2624
L37.1206 -13.2038
L37.5683 -13.1554
L38.0164 -13.1171
L38.4642 -13.0887
L38.9112 -13.0699
L39.357 -13.0604
L39.8011 -13.06
L40.2431 -13.0685
L40.6827 -13.0855
L41.1196 -13.1109
L41.5534 -13.1444
L41.9839 -13.1857
L42.4108 -13.2346
L42.8341 -13.2908
L43.2533 -13.3541
L43.6685 -13.4242
L44.0795 -13.501
L44.4861 -13.5842
L44.8883 -13.6735
L45.2859 -13.7689
L45.679 -13.8699
L46.0673 -13.9766
L46.451 -14.0886
L46.83 -14.2057
L47.2042 -14.3279
L47.5736 -14.4549
L47.9383 -14.5865
L48.2982 -14.7227
L48.6534 -14.8632
L49.0039 -15.0078
L49.3496 -15.1566
L49.6907 -15.3093
L50.0272 -15.4658
L50.3591 -15.626
L50.6864 -15.7897
L51.0093 -15.957
L51.3277 -16.1276
L51.6417 -16.3015
L51.9513 -16.4787
L52.2566 -16.6589
L52.5577 -16.8422
L52.8547 -17.0285
L53.1475 -17.2177
L53.4362 -17.4097
L53.7209 -17.6045
L54.0017 -17.8022
L54.2786 -18.0025
L54.5516 -18.2055
L54.8209 -18.4111
L55.0864 -18.6193
L55.3482 -18.8301
L55.6064 -19.0435
L55.8611 -19.2595
L56.1122 -19.4779
L56.3598 -19.6989
L56.604 -19.9224
L56.8448 -20.1484
L57.0823 -20.3769
L57.3164 -20.608
L57.5473 -20.8415
L57.7749 -21.0776
L57.9994 -21.3163
L58.2207 -21.5575
L58.4388 -21.8013
L58.6538 -22.0477
L58.8658 -22.2967
L59.0746 -22.5484
L59.2804 -22.8028
L59.4832 -23.0599
L59.683 -23.3198
L59.8797 -23.5825
L60.0735 -23.848
L60.2642 -24.1164
L60.452 -24.3877
L60.6367 -24.662
L60.8185 -24.9393
L60.9972 -25.2197
L61.1729 -25.5032
L61.3455 -25.79
L61.515 -26.0799
L61.6815 -26.3732
L61.8448 -26.6698
L62.0049 -26.9699
L62.1619 -27.2734
L62.3156 -27.5806
L62.466 -27.8913
L62.613 -28.2057
L62.7567 -28.5239
L62.8969 -28.846
L63.0335 -29.1719
L63.1665 -29.5018
L63.2958 -29.8358
L63.4214 -30.1739
L63.543 -30.5162
L63.6607 -30.8628
L63.7743 -31.2137
L63.8837 -31.569
L63.9888 -31.9289
L64.0895 -32.2932
L64.1855 -32.6622
L64.2769 -33.0359
L64.3634 -33.4144
L64.4487 -33.7977
L64.4742 -34.29
L64.491 -34.7867
L64.4992 -35.2838
L64.4986 -35.7812
L64.4894 -36.2786
L64.4716 -36.7759
L64.445 -37.273
L64.4098 -37.7697
L64.3659 -38.2659
L64.3134 -38.7614
L64.2523 -39.256
L64.1825 -39.7496
L64.1042 -40.2421
L64.0173 -40.7333
L63.9219 -41.2231
L63.818 -41.7113
L63.7055 -42.1977
L63.5847 -42.6823
L63.4555 -43.1648
L63.3179 -43.6451
L63.1719 -44.1231
L63.0177 -44.5986
L62.8553 -45.0715
L62.6847 -45.5417
L62.5059 -46.0089
L62.3191 -46.4731
L62.1243 -46.9341
L61.9215 -47.3918
L61.7108 -47.846
L61.4923 -48.2965
L61.266 -48.7434
L61.032 -49.1863
L60.7904 -49.6253
L60.5412 -50.0601
L60.2846 -50.4906
L60.0206 -50.9167
L59.7492 -51.3382
L59.4707 -51.7551
L59.1849 -52.1672
L58.8921 -52.5744
L58.5924 -52.9765
L58.2857 -53.3734
L57.9723 -53.7651
L57.6521 -54.1513
L57.3254 -54.532
L56.9922 -54.9071
L56.6526 -55.2764
L56.3067 -55.6398
L55.9546 -55.9972
L55.5964 -56.3486
L55.2323 -56.6937
L54.8623 -57.0326
L54.4865 -57.365
L54.1052 -57.691
L53.7183 -58.0103
L53.326 -58.3229
z
" id="C0_1_7228ae07f6"/>
     <path d="
M7.56041 -37.8138
L7.59184 -37.4154
L7.62888 -37.0151
L7.67163 -36.6128
L7.72019 -36.2085
L7.77464 -35.8023
L7.83508 -35.3942
L7.9016 -34.9841
L7.97432 -34.5722
L8.05332 -34.1584
L8.1387 -33.7428
L8.23058 -33.3254
L8.32903 -32.9063
L8.43417 -32.4856
L8.54609 -32.0632
L8.66487 -31.6394
L8.79062 -31.2141
L8.92341 -30.7875
L9.06333 -30.3596
L9.21044 -29.9306
L9.36481 -29.5006
L9.5265 -29.0697
L9.69555 -28.6381
L9.87199 -28.2058
L10.0558 -27.7732
L10.2471 -27.3402
L10.4458 -26.9072
L10.6518 -26.4742
L10.8652 -26.0415
L11.0857 -25.6094
L11.3134 -25.1779
L11.548 -24.7473
L11.7895 -24.3178
L12.0375 -23.8897
L12.2919 -23.4632
L12.5523 -23.0384
L12.8185 -22.6158
L13.0899 -22.1954
L13.3662 -21.7774
L13.6469 -21.3623
L13.9314 -20.95
L14.2191 -20.5408
L14.5092 -20.135
L14.801 -19.7326
L15.0938 -19.3338
L15.3864 -18.9387
L15.6781 -18.5474
L15.9678 -18.1601
L16.2544 -17.7766
L16.5368 -17.397
L16.814 -17.0213
L17.0847 -16.6494
L17.348 -16.2813
L17.6028 -15.9167
L17.8481 -15.5556
L18.0833 -15.1979
L18.3075 -14.8434
L18.5204 -14.492
L18.7215 -14.1435
L18.9108 -13.7978
L19.0883 -13.455
L18.7713 -13.1148
L18.3777 -13.2971
L17.9895 -13.6012
L17.6067 -13.9122
L17.2296 -14.2299
L16.8582 -14.5542
L16.4926 -14.8851
L16.1329 -15.2223
L15.7793 -15.566
L15.4319 -15.9158
L15.0907 -16.2718
L14.7559 -16.6337
L14.4276 -17.0016
L14.1058 -17.3752
L13.7907 -17.7546
L13.4824 -18.1395
L13.181 -18.5298
L12.8864 -18.9254
L12.599 -19.3263
L12.3186 -19.7322
L12.0455 -20.1431
L11.7796 -20.5588
L11.5212 -20.9792
L11.2702 -21.4042
L11.0267 -21.8336
L10.7908 -22.2674
L10.5627 -22.7053
L10.3422 -23.1473
L10.1296 -23.5932
L9.92486 -24.0429
L9.72806 -24.4962
L9.53927 -24.953
L9.35853 -25.4132
L9.18591 -25.8767
L9.02146 -26.3432
L8.86523 -26.8126
L8.71726 -27.2848
L8.5776 -27.7597
L8.4463 -28.2371
L8.32339 -28.7169
L8.20891 -29.1989
L8.10289 -29.6829
L8.00537 -30.1689
L7.91638 -30.6567
L7.83595 -31.1461
L7.76409 -31.6369
L7.70084 -32.1291
L7.6462 -32.6225
L7.6002 -33.1169
L7.56286 -33.6122
L7.53417 -34.1082
L7.51416 -34.6048
L7.50282 -35.1018
L7.50016 -35.5991
L7.50619 -36.0965
L7.52089 -36.5939
z
" id="C0_2_056c5ec869"/>
    </defs>
    <g clip-path="url(#p1bffca34e9)">
     <use style="fill:#ffffff;stroke:#000000;stroke-width:2.0;" x="0.0" xlink:href="#C0_0_a811fe30f3" y="72.0"/>
    </g>
    <g clip-path="url(#p1bffca34e9)">
     <use style="fill:#ff0000;stroke:#000000;stroke-width:2.0;" x="0.0" xlink:href="#C0_1_7228ae07f6" y="72.0"/>
    </g>
    <g clip-path="url(#p1bffca34e9)">
     <use style="fill:#ff0000;stroke:#000000;stroke-width:2.0;" x="0.0" xlink:href="#C0_2_056c5ec869" y="72.0"/>
    </g>
   </g>
  </g>
 </g>
 <defs>
  <clipPath id="p1bffca34e9">
   <rect height="72.0" width="72.0" x="0.0" y="0.0"/>
  </clipPath>
 </defs>
</svg>
