<?xml version="1.0" encoding="utf-8" standalone="no"?>
<!DOCTYPE svg PUBLIC "-//W3C//DTD SVG 1.1//EN"
  "http://www.w3.org/Graphics/SVG/1.1/DTD/svg11.dtd">
<!-- Created with matplotlib (http://matplotlib.org/) -->
<svg height="72pt" version="1.1" viewBox="0 0 72 72" width="72pt" xmlns="http://www.w3.org/2000/svg" xmlns:xlink="http://www.w3.org/1999/xlink">
 <defs>
  <style type="text/css">
*{stroke-linecap:butt;stroke-linejoin:round;}
  </style>
 </defs>
 <g id="figure_1">
  <g id="patch_1">
   <path d="
M0 72
L72 72
L72 0
L0 0
z
" style="fill:none;"/>
  </g>
  <g id="axes_1">
   <g id="PatchCollection_1">
    <defs>
     <path d="
M36 -7.5
C43.5583 -7.5 50.808 -10.5029 56.1525 -15.8475
C61.4971 -21.192 64.5 -28.4417 64.5 -36
C64.5 -43.5583 61.4971 -50.808 56.1525 -56.1525
C50.808 -61.4971 43.5583 -64.5 36 -64.5
C28.4417 -64.5 21.192 -61.4971 15.8475 -56.1525
C10.5029 -50.808 7.5 -43.5583 7.5 -36
C7.5 -28.4417 10.5029 -21.192 15.8475 -15.8475
C21.192 -10.5029 28.4417 -7.5 36 -7.5
z
" id="C0_0_a811fe30f3"/>
     <path d="
M64.0495 -31.2808
L63.9011 -30.8501
L63.7377 -30.4321
L63.5597 -30.0274
L63.3677 -29.6368
L63.1624 -29.2605
L62.9444 -28.8991
L62.7144 -28.5528
L62.4733 -28.2216
L62.2218 -27.9056
L61.9605 -27.6046
L61.6905 -27.3186
L61.4122 -27.0473
L61.1266 -26.7903
L60.8343 -26.5473
L60.536 -26.3179
L60.2323 -26.1016
L59.9239 -25.8981
L59.6113 -25.7069
L59.2951 -25.5275
L58.9757 -25.3594
L58.6537 -25.2023
L58.3296 -25.0556
L58.0036 -24.9189
L57.6762 -24.7918
L57.3478 -24.6738
L57.0186 -24.5646
L56.689 -24.4638
L56.3593 -24.371
L56.0296 -24.2859
L55.7003 -24.2081
L55.3715 -24.1372
L55.0434 -24.073
L54.7162 -24.0151
L54.3901 -23.9634
L54.0651 -23.9174
L53.7415 -23.877
L53.4194 -23.8419
L53.0987 -23.8118
L52.7797 -23.7865
L52.4624 -23.7659
L52.1468 -23.7497
L51.8331 -23.7377
L51.5213 -23.7297
L51.2114 -23.7256
L50.9034 -23.7252
L50.5974 -23.7283
L50.2934 -23.7349
L49.9914 -23.7446
L49.6915 -23.7575
L49.3935 -23.7733
L49.0976 -23.792
L48.8036 -23.8135
L48.5117 -23.8376
L48.2217 -23.8642
L47.9337 -23.8933
L47.6477 -23.9247
L47.3635 -23.9584
L47.0813 -23.9943
L46.8008 -24.0322
L46.5222 -24.0723
L46.2454 -24.1143
L45.9704 -24.1582
L45.697 -24.204
L45.4254 -24.2515
L45.1553 -24.3008
L44.8869 -24.3518
L44.62 -24.4045
L44.3546 -24.4588
L44.0907 -24.5147
L43.8281 -24.5721
L43.567 -24.631
L43.3071 -24.6914
L43.0486 -24.7533
L42.7912 -24.8166
L42.5351 -24.8813
L42.2801 -24.9474
L42.0261 -25.0148
L41.7732 -25.0837
L41.5213 -25.1539
L41.2703 -25.2254
L41.0202 -25.2983
L40.7709 -25.3725
L40.5224 -25.448
L40.2747 -25.5248
L40.0277 -25.603
L39.7813 -25.6824
L39.5355 -25.7632
L39.2902 -25.8454
L39.0455 -25.9288
L38.8012 -26.0136
L38.3139 -26.0998
L38.0707 -26.1873
L37.8278 -26.2762
L37.5851 -26.3665
L37.3426 -26.4582
L37.1003 -26.5513
L36.858 -26.6458
L36.6158 -26.7418
L36.3736 -26.8393
L36.1314 -26.9383
L35.8891 -27.0388
L35.6467 -27.1409
L35.4041 -27.2446
L35.1613 -27.3499
L34.9183 -27.4568
L34.675 -27.5654
L34.4315 -27.6756
L34.1876 -27.7877
L33.9433 -27.9015
L33.6985 -28.0171
L33.4534 -28.1346
L33.2078 -28.2539
L32.9616 -28.3752
L32.715 -28.4985
L32.4678 -28.6238
L32.22 -28.7511
L31.9716 -28.8806
L31.7225 -29.0122
L31.4729 -29.146
L31.2225 -29.2821
L30.9715 -29.4205
L30.7198 -29.5613
L30.4674 -29.7045
L30.2144 -29.8502
L29.9606 -29.9984
L29.7061 -30.1492
L29.451 -30.3027
L29.1951 -30.4589
L28.9386 -30.6179
L28.6815 -30.7798
L28.4237 -30.9445
L28.1653 -31.1122
L27.9064 -31.283
L27.647 -31.4569
L27.3871 -31.634
L27.1268 -31.8143
L26.8662 -31.998
L26.6053 -32.185
L26.3443 -32.3755
L26.0831 -32.5696
L25.822 -32.7672
L25.5609 -32.9685
L25.3002 -33.1736
L25.0398 -33.3825
L24.7799 -33.5953
L24.5207 -33.812
L24.2624 -34.0328
L24.0052 -34.2577
L23.7492 -34.4867
L23.4947 -34.7199
L23.242 -34.9574
L22.9913 -35.1993
L22.7429 -35.4455
L22.4971 -35.6962
L22.2542 -35.9514
L22.0146 -36.2111
L21.7787 -36.4755
L21.5469 -36.7444
L21.3196 -37.0181
L21.0974 -37.2964
L20.8806 -37.5794
L20.6698 -37.8672
L20.4656 -38.1597
L20.2685 -38.4569
L20.0792 -38.7589
L19.8984 -39.0656
L19.7267 -39.3769
L19.5649 -39.6929
L19.4135 -40.0135
L19.2735 -40.3385
L19.1455 -40.668
L19.0304 -41.0017
L18.9288 -41.3396
L18.8415 -41.6814
L18.7692 -42.027
L18.7126 -42.3761
L18.6722 -42.7285
L18.6485 -43.0838
L18.6421 -43.4418
L18.6533 -43.802
L18.6823 -44.164
L18.7292 -44.5274
L18.794 -44.8916
L18.8767 -45.2563
L18.977 -45.6209
L19.0945 -45.9848
L19.2289 -46.3475
L19.3797 -46.7085
L19.5463 -47.0671
L19.728 -47.423
L19.9242 -47.7756
L20.1341 -48.1244
L20.357 -48.4689
L20.5922 -48.8088
L20.8389 -49.1436
L21.0963 -49.473
L21.3638 -49.7966
L21.6406 -50.1141
L21.9259 -50.4253
L22.2193 -50.73
L22.5199 -51.028
L22.8272 -51.319
L23.1406 -51.603
L23.4595 -51.8798
L23.7834 -52.1493
L24.1118 -52.4116
L24.4442 -52.6664
L24.7801 -52.9139
L25.1192 -53.154
L25.461 -53.3867
L25.8052 -53.612
L26.1514 -53.8301
L26.4993 -54.0409
L26.8486 -54.2444
L27.199 -54.4409
L27.5502 -54.6303
L27.902 -54.8127
L28.2543 -54.9883
L28.6066 -55.1571
L28.959 -55.3193
L29.3112 -55.4749
L29.663 -55.624
L30.0144 -55.7669
L30.3651 -55.9035
L30.715 -56.0341
L31.0641 -56.1587
L31.4123 -56.2774
L31.7594 -56.3903
L32.1054 -56.4977
L32.4502 -56.5995
L32.7938 -56.6959
L33.1361 -56.7871
L33.477 -56.873
L33.8166 -56.9539
L34.1548 -57.0298
L34.4915 -57.1009
L34.8268 -57.1671
L35.1607 -57.2287
L35.4931 -57.2857
L35.824 -57.3382
L36.1534 -57.3863
L36.4814 -57.4301
L36.808 -57.4696
L37.1331 -57.5049
L37.4568 -57.5362
L37.7791 -57.5634
L38.1 -57.5867
L38.4195 -57.606
L38.7377 -57.6216
L39.0545 -57.6333
L39.3701 -57.6413
L39.6845 -57.6456
L39.9976 -57.6463
L40.3095 -57.6434
L40.6202 -57.6369
L40.9299 -57.627
L41.2384 -57.6135
L41.5459 -57.5965
L41.8524 -57.5762
L42.1579 -57.5524
L42.4624 -57.5252
L42.7661 -57.4947
L43.0689 -57.4608
L43.3708 -57.4235
L43.672 -57.383
L43.9724 -57.339
L44.2721 -57.2917
L44.5711 -57.2411
L44.8695 -57.1872
L45.1673 -57.1298
L45.4645 -57.0691
L45.7611 -57.005
L46.0573 -56.9376
L46.353 -56.8667
L46.6483 -56.7923
L46.9431 -56.7144
L47.2376 -56.6331
L47.5318 -56.5482
L47.8256 -56.4597
L48.1192 -56.3676
L48.4125 -56.2719
L48.7056 -56.1724
L48.9984 -56.0691
L49.2911 -55.9621
L49.5836 -55.8511
L49.8759 -55.7363
L50.1681 -55.6174
L50.4602 -55.4944
L50.7521 -55.3673
L51.044 -55.236
L51.3357 -55.1004
L51.6273 -54.9605
L51.9188 -54.8161
L52.2101 -54.6671
L52.5014 -54.5135
L52.7925 -54.3551
L53.0834 -54.192
L53.3741 -54.0239
L53.6647 -53.8507
L53.9549 -53.6724
L54.2449 -53.4889
L54.5346 -53.3
L54.8239 -53.1056
L55.1127 -52.9055
L55.401 -52.6998
L55.6888 -52.4882
L55.9759 -52.2706
L56.2623 -52.0469
L56.5478 -51.8169
L56.8324 -51.5806
L57.1159 -51.3377
L57.3983 -51.0882
L57.6793 -50.8319
L57.9589 -50.5687
L58.2369 -50.2984
L58.5131 -50.0209
L58.7873 -49.7362
L59.0594 -49.4439
L59.3291 -49.1441
L59.5962 -48.8366
L59.8604 -48.5213
L60.1216 -48.1981
L60.3794 -47.8668
L60.6336 -47.5275
L60.8839 -47.18
L61.1299 -46.8242
L61.3714 -46.4601
L61.6079 -46.0877
L61.839 -45.7069
L62.0645 -45.3177
L62.284 -44.9202
L62.4969 -44.5144
L62.7028 -44.1004
L62.9014 -43.6783
L63.092 -43.2482
L63.2744 -42.8103
L63.4479 -42.3648
L63.612 -41.9119
L63.7663 -41.452
L63.9102 -40.9854
L64.0432 -40.5124
L64.1647 -40.0337
L64.2743 -39.5495
L64.3714 -39.0606
L64.4245 -38.5676
L64.4564 -38.0729
L64.4795 -37.5766
L64.494 -37.0797
L64.4999 -36.5825
L64.497 -36.0851
L64.4855 -35.5877
L64.4653 -35.0904
L64.4364 -34.5934
L64.3988 -34.0968
L64.3526 -33.6008
L64.2978 -33.1056
L64.2344 -32.6112
z
" id="C0_1_1673bdef96"/>
     <path d="
M7.60582 -33.9334
L7.61245 -34.4358
L7.62282 -34.937
L7.63644 -35.4365
L7.65279 -35.9342
L7.67132 -36.4296
L7.69146 -36.9223
L7.71261 -37.4122
L7.73417 -37.8988
L7.75553 -38.3819
L7.7761 -38.8613
L7.79529 -39.3368
L7.81258 -39.8081
L7.75225 -40.2752
L7.69052 -39.7835
L7.63742 -39.2899
L7.59295 -38.7953
L7.55714 -38.2999
L7.52999 -37.8038
L7.51151 -37.3071
L7.50172 -36.8101
L7.5006 -36.3127
L7.50816 -35.8153
L7.5244 -35.318
z
" id="C0_2_56f17f5737"/>
    </defs>
    <g clip-path="url(#p1bffca34e9)">
     <use style="fill:#ff0000;stroke:#000000;stroke-width:2.0;" x="0.0" xlink:href="#C0_0_a811fe30f3" y="72.0"/>
    </g>
    <g clip-path="url(#p1bffca34e9)">
     <use style="fill:#ffffff;stroke:#000000;stroke-width:2.0;" x="0.0" xlink:href="#C0_1_1673bdef96" y="72.0"/>
    </g>
    <g clip-path="url(#p1bffca34e9)">
     <use style="fill:#ffffff;stroke:#000000;stroke-width:2.0;" x="0.0" xlink:href="#C0_2_56f17f5737" y="72.0"/>
    </g>
   </g>
  </g>
 </g>
 <defs>
  <clipPath id="p1bffca34e9">
   <rect height="72.0" width="72.0" x="0.0" y="0.0"/>
  </clipPath>
 </defs>
</svg>
