<?xml version="1.0" encoding="utf-8" standalone="no"?>
<!DOCTYPE svg PUBLIC "-//W3C//DTD SVG 1.1//EN"
  "http://www.w3.org/Graphics/SVG/1.1/DTD/svg11.dtd">
<!-- Created with matplotlib (http://matplotlib.org/) -->
<svg height="72pt" version="1.1" viewBox="0 0 72 72" width="72pt" xmlns="http://www.w3.org/2000/svg" xmlns:xlink="http://www.w3.org/1999/xlink">
 <defs>
  <style type="text/css">
*{stroke-linecap:butt;stroke-linejoin:round;}
  </style>
 </defs>
 <g id="figure_1">
  <g id="patch_1">
   <path d="
M0 72
L72 72
L72 0
L0 0
z
" style="fill:none;"/>
  </g>
  <g id="axes_1">
   <g id="PatchCollection_1">
    <defs>
     <path d="
M36 -7.5
C43.5583 -7.5 50.808 -10.5029 56.1525 -15.8475
C61.4971 -21.192 64.5 -28.4417 64.5 -36
C64.5 -43.5583 61.4971 -50.808 56.1525 -56.1525
C50.808 -61.4971 43.5583 -64.5 36 -64.5
C28.4417 -64.5 21.192 -61.4971 15.8475 -56.1525
C10.5029 -50.808 7.5 -43.5583 7.5 -36
C7.5 -28.4417 10.5029 -21.192 15.8475 -15.8475
C21.192 -10.5029 28.4417 -7.5 36 -7.5
z
" id="C0_0_a811fe30f3"/>
     <path d="
M48.2273 -61.577
L48.0623 -61.3688
L47.9258 -61.1356
L47.8136 -60.8806
L47.7219 -60.6069
L47.6471 -60.3171
L47.5858 -60.0138
L47.5353 -59.6991
L47.4932 -59.3748
L47.4577 -59.0426
L47.427 -58.7039
L47.3999 -58.3597
L47.3752 -58.0112
L47.3522 -57.6592
L47.33 -57.3046
L47.3081 -56.9479
L47.2861 -56.5898
L47.2635 -56.2308
L47.2402 -55.8714
L47.2158 -55.512
L47.1903 -55.1529
L47.1635 -54.7945
L47.1352 -54.437
L47.1055 -54.0808
L47.0743 -53.726
L47.0415 -53.3729
L47.0073 -53.0217
L46.9714 -52.6724
L46.9341 -52.3253
L46.8953 -51.9805
L46.8551 -51.638
L46.8135 -51.298
L46.7705 -50.9605
L46.7261 -50.6256
L46.6805 -50.2934
L46.6336 -49.9638
L46.5856 -49.637
L46.5364 -49.3129
L46.4861 -48.9916
L46.4348 -48.6731
L46.3824 -48.3573
L46.3291 -48.0442
L46.2749 -47.7339
L46.2197 -47.4263
L46.1637 -47.1214
L46.1069 -46.8192
L46.0493 -46.5196
L45.991 -46.2225
L45.9319 -45.9281
L45.8722 -45.6361
L45.8117 -45.3466
L45.7506 -45.0595
L45.6889 -44.7747
L45.6266 -44.4922
L45.5637 -44.212
L45.5002 -43.934
L45.4362 -43.6581
L45.3717 -43.3843
L45.3066 -43.1125
L45.241 -42.8427
L45.1748 -42.5748
L45.1082 -42.3087
L45.0411 -42.0443
L44.9735 -41.7817
L44.9054 -41.5207
L44.8368 -41.2613
L44.7677 -41.0034
L44.6982 -40.747
L44.6281 -40.4919
L44.5576 -40.2382
L44.4866 -39.9858
L44.4151 -39.7345
L44.3431 -39.4844
L44.2705 -39.2354
L44.1975 -38.9874
L44.1239 -38.7403
L44.0499 -38.4941
L43.9752 -38.2488
L43.9 -38.0042
L43.8243 -37.7603
L43.7479 -37.5171
L43.671 -37.2744
L43.5935 -37.0323
L43.5153 -36.7906
L43.4366 -36.5494
L43.3571 -36.3084
L43.1962 -36.0678
L43.1147 -35.8273
L43.0324 -35.587
L42.9495 -35.3469
L42.8657 -35.1067
L42.7811 -34.8665
L42.6958 -34.6263
L42.6095 -34.3859
L42.5225 -34.1454
L42.4345 -33.9045
L42.3456 -33.6634
L42.2557 -33.4219
L42.1649 -33.1799
L42.0731 -32.9375
L41.9803 -32.6945
L41.8863 -32.4509
L41.7913 -32.2067
L41.6952 -31.9617
L41.5979 -31.716
L41.4994 -31.4694
L41.3996 -31.222
L41.2986 -30.9736
L41.1963 -30.7242
L41.0927 -30.4738
L40.9876 -30.2222
L40.8812 -29.9695
L40.7733 -29.7155
L40.6639 -29.4603
L40.5529 -29.2038
L40.4403 -28.9459
L40.3261 -28.6865
L40.2103 -28.4257
L40.0927 -28.1634
L39.9733 -27.8995
L39.8522 -27.634
L39.7291 -27.3668
L39.6042 -27.0979
L39.4773 -26.8273
L39.3484 -26.5549
L39.2174 -26.2807
L39.0844 -26.0046
L38.9492 -25.7266
L38.8118 -25.4467
L38.6722 -25.1649
L38.5303 -24.8812
L38.3861 -24.5954
L38.2394 -24.3077
L38.0904 -24.018
L37.939 -23.7262
L37.785 -23.4325
L37.6285 -23.1368
L37.4695 -22.8391
L37.3079 -22.5394
L37.1437 -22.2378
L36.9769 -21.9343
L36.8075 -21.6289
L36.6354 -21.3216
L36.4608 -21.0127
L36.2836 -20.702
L36.1037 -20.3897
L35.9214 -20.0758
L35.7366 -19.7605
L35.5494 -19.4438
L35.3599 -19.1258
L35.1683 -18.8068
L34.9746 -18.4868
L34.779 -18.1659
L34.5817 -17.8443
L34.383 -17.5222
L34.1832 -17.1997
L33.9826 -16.8771
L33.7816 -16.5544
L33.5808 -16.232
L33.3806 -15.9101
L33.1818 -15.5888
L32.9852 -15.2683
L32.7918 -14.949
L32.6026 -14.631
L32.4192 -14.3146
L32.2432 -14
L32.0764 -13.6875
L31.9212 -13.3772
L31.7805 -13.0694
L31.6573 -12.7643
L31.5555 -12.4621
L31.479 -12.1631
L31.4325 -11.8675
L31.4205 -11.5755
L31.4476 -11.2874
L31.5175 -11.0037
L31.6332 -10.7247
L31.7961 -10.4512
L32.0061 -10.1836
L32.2617 -9.92296
L32.56 -9.66996
L32.8975 -9.42553
L33.2703 -9.19052
L33.6741 -8.96571
L34.1051 -8.75184
L34.5597 -8.54953
L35.0345 -8.35932
L35.5266 -8.18167
L36.0334 -8.01694
L36.5526 -7.86544
L37.0822 -7.72739
L37.5822 -7.60295
L38.0786 -7.54396
L38.5744 -7.5759
L39.0694 -7.61651
L39.5634 -7.66576
L40.0563 -7.72364
L40.548 -7.79014
L41.0384 -7.86523
L41.5272 -7.94889
L42.0143 -8.04109
L42.4996 -8.14181
L42.9828 -8.25102
L43.464 -8.36868
L43.9429 -8.49476
L44.4194 -8.62921
L44.8933 -8.772
L45.3645 -8.92309
L45.8329 -9.08242
L46.2982 -9.24995
L46.7604 -9.42563
L47.2194 -9.60941
L47.6749 -9.80123
L48.1269 -10.001
L48.5751 -10.2087
L49.0196 -10.4243
L49.46 -10.6477
L49.8964 -10.8788
L50.3286 -11.1175
L50.7563 -11.3638
L51.1796 -11.6176
L51.5983 -11.8789
L52.0122 -12.1475
L52.4212 -12.4233
L52.8253 -12.7064
L53.2242 -12.9965
L53.6178 -13.2937
L54.0061 -13.5977
L54.3889 -13.9086
L54.7661 -14.2262
L55.1376 -14.5505
L55.5033 -14.8812
L55.863 -15.2185
L56.2166 -15.562
L56.5642 -15.9118
L56.9054 -16.2677
L57.2403 -16.6296
L57.5687 -16.9974
L57.8905 -17.3709
L58.2057 -17.7502
L58.5141 -18.135
L58.8156 -18.5253
L59.1102 -18.9209
L59.3978 -19.3217
L59.6782 -19.7275
L59.9514 -20.1384
L60.2174 -20.554
L60.4759 -20.9744
L60.727 -21.3993
L60.9706 -21.8287
L61.2065 -22.2624
L61.4348 -22.7003
L61.6553 -23.1422
L61.868 -23.5881
L62.0728 -24.0377
L62.2697 -24.491
L62.4586 -24.9478
L62.6394 -25.408
L62.8122 -25.8713
L62.9767 -26.3378
L63.133 -26.8072
L63.2811 -27.2794
L63.4208 -27.7543
L63.5522 -28.2317
L63.6753 -28.7114
L63.7898 -29.1934
L63.8959 -29.6774
L63.9936 -30.1634
L64.0826 -30.6511
L64.1632 -31.1405
L64.2351 -31.6313
L64.2985 -32.1235
L64.3532 -32.6169
L64.3993 -33.1113
L64.4368 -33.6065
L64.4655 -34.1025
L64.4857 -34.5991
L64.4971 -35.0961
L64.4999 -35.5934
L64.4939 -36.0908
L64.4793 -36.5882
L64.456 -37.0854
L64.4241 -37.5822
L64.3835 -38.0786
L64.3342 -38.5744
L64.2764 -39.0694
L64.2099 -39.5634
L64.1348 -40.0563
L64.0511 -40.548
L63.9589 -41.0384
L63.8582 -41.5272
L63.749 -42.0143
L63.6313 -42.4996
L63.5052 -42.9828
L63.3708 -43.464
L63.228 -43.9429
L63.0769 -44.4194
L62.9176 -44.8933
L62.75 -45.3645
L62.5744 -45.8329
L62.3906 -46.2982
L62.1988 -46.7604
L61.999 -47.2194
L61.7913 -47.6749
L61.5757 -48.1269
L61.3523 -48.5751
L61.1212 -49.0196
L60.8825 -49.46
L60.6362 -49.8964
L60.3824 -50.3286
L60.1211 -50.7563
L59.8525 -51.1796
L59.5767 -51.5983
L59.2936 -52.0122
L59.0035 -52.4212
L58.7063 -52.8253
L58.4023 -53.2242
L58.0914 -53.6178
L57.7738 -54.0061
L57.4495 -54.3889
L57.1188 -54.7661
L56.7815 -55.1376
L56.438 -55.5033
L56.0882 -55.863
L55.7323 -56.2166
L55.3704 -56.5642
L55.0026 -56.9054
L54.6291 -57.2403
L54.2498 -57.5687
L53.865 -57.8905
L53.4747 -58.2057
L53.0791 -58.5141
L52.6783 -58.8156
L52.2725 -59.1102
L51.8616 -59.3978
L51.446 -59.6782
L51.0256 -59.9514
L50.6007 -60.2174
L50.1713 -60.4759
L49.7376 -60.727
L49.2997 -60.9706
L48.8578 -61.2065
z
" id="C0_1_08e78c713c"/>
     <path d="
M34.3856 -64.4003
L33.8625 -64.2314
L33.3432 -64.0547
L32.8289 -63.8704
L32.3203 -63.6785
L31.8181 -63.4793
L31.323 -63.2731
L30.8354 -63.0601
L30.3556 -62.8406
L29.8842 -62.615
L29.4212 -62.3835
L28.967 -62.1466
L28.5216 -61.9045
L28.0853 -61.6576
L27.658 -61.4063
L27.2397 -61.1507
L26.8306 -60.8914
L26.4306 -60.6285
L26.0396 -60.3623
L25.6576 -60.0932
L25.2845 -59.8213
L24.9202 -59.547
L24.5645 -59.2705
L24.2174 -58.992
L23.8788 -58.7117
L23.5484 -58.4299
L23.2261 -58.1466
L22.9119 -57.8621
L22.6054 -57.5766
L22.3066 -57.2902
L22.0154 -57.003
L21.7314 -56.7152
L21.4546 -56.4268
L21.1849 -56.1381
L20.9219 -55.849
L20.6657 -55.5596
L20.416 -55.2702
L20.1726 -54.9806
L19.9355 -54.691
L19.7044 -54.4014
L19.4792 -54.1119
L19.2597 -53.8225
L19.0459 -53.5332
L18.8375 -53.2442
L18.6345 -52.9553
L18.4367 -52.6666
L18.2439 -52.3782
L18.0561 -52.0899
L17.8731 -51.8019
L17.6948 -51.5141
L17.5211 -51.2266
L17.3519 -50.9393
L17.187 -50.6521
L17.0264 -50.3651
L16.87 -50.0783
L16.7177 -49.7917
L16.5693 -49.5051
L16.4249 -49.2187
L16.2843 -48.9322
L16.1474 -48.6459
L16.0141 -48.3595
L15.8845 -48.073
L15.7583 -47.7865
L15.6356 -47.4998
L15.5164 -47.213
L15.4004 -46.9259
L15.2877 -46.6386
L15.1783 -46.351
L15.072 -46.0631
L14.9689 -45.7747
L14.8688 -45.4859
L14.7718 -45.1966
L14.6779 -44.9067
L14.5869 -44.6163
L14.4989 -44.3251
L14.4138 -44.0333
L14.3316 -43.7407
L14.2524 -43.4472
L14.176 -43.1528
L14.1024 -42.8575
L14.0318 -42.5612
L13.9639 -42.2638
L13.899 -41.9653
L13.8369 -41.6656
L13.7776 -41.3646
L13.7212 -41.0623
L13.6677 -40.7586
L13.6171 -40.4535
L13.5693 -40.1468
L13.5245 -39.8386
L13.4827 -39.5287
L13.4438 -39.2171
L13.4079 -38.9037
L13.3751 -38.5884
L13.3454 -38.2713
L13.3188 -37.9521
L13.2954 -37.6309
L13.2752 -37.3076
L13.2584 -36.9821
L13.2448 -36.6543
L13.2347 -36.3243
L13.2281 -35.9918
L13.225 -35.6569
L13.2255 -35.3195
L13.2298 -34.9795
L13.2378 -34.6369
L13.2498 -34.2916
L13.2657 -33.9435
L13.2858 -33.5926
L13.31 -33.2389
L13.3386 -32.8822
L13.3715 -32.5226
L13.4091 -32.16
L13.4513 -31.7943
L13.4983 -31.4256
L13.5503 -31.0538
L13.6073 -30.6788
L13.6696 -30.3006
L13.7373 -29.9193
L13.8105 -29.5348
L13.8894 -29.147
L13.9742 -28.7562
L14.065 -28.3621
L14.162 -27.9649
L14.2654 -27.5645
L14.3753 -27.1611
L14.492 -26.7546
L14.6156 -26.3452
L14.7463 -25.933
L14.8842 -25.5179
L15.0296 -25.1001
L15.1826 -24.6798
L15.3434 -24.257
L15.5122 -23.8319
L15.689 -23.4048
L15.874 -22.9757
L16.0674 -22.5449
L16.2693 -22.1126
L16.4797 -21.679
L16.6987 -21.2445
L16.9264 -20.8092
L17.1627 -20.3736
L17.4077 -19.938
L17.6611 -19.5026
L17.923 -19.068
L18.1931 -18.6344
L18.4711 -18.2023
L18.7567 -17.7722
L19.0494 -17.3445
L19.3485 -16.9197
L19.6534 -16.4984
L19.9632 -16.081
L20.2767 -15.6681
L20.5926 -15.2603
L20.9092 -14.8582
L21.2245 -14.4624
L21.5362 -14.0735
L21.8414 -13.6921
L22.1369 -13.319
L22.4188 -12.9546
L22.6827 -12.5998
L22.9241 -12.2549
L23.138 -11.9206
L23.3198 -11.5973
L23.4654 -11.2853
L23.5715 -10.9848
L23.6364 -10.6958
L23.1714 -10.4183
L22.7292 -10.5505
L22.2911 -10.7783
L21.8571 -11.0137
L21.4274 -11.2568
L21.0022 -11.5074
L20.5815 -11.7654
L20.1655 -12.0309
L19.7544 -12.3036
L19.3482 -12.5836
L18.9471 -12.8706
L18.5511 -13.1648
L18.1605 -13.4659
L17.7753 -13.7738
L17.3957 -14.0886
L17.0217 -14.41
L16.6535 -14.7379
L16.2912 -15.0724
L15.935 -15.4132
L15.5848 -15.7603
L15.2408 -16.1136
L14.9032 -16.4729
L14.572 -16.8382
L14.2473 -17.2093
L13.9293 -17.5861
L13.6179 -17.9686
L13.3134 -18.3565
L13.0158 -18.7498
L12.7252 -19.1484
L12.4417 -19.5521
L12.1654 -19.9608
L11.8963 -20.3744
L11.6346 -20.7927
L11.3802 -21.2157
L11.1334 -21.6432
L10.8942 -22.0751
L10.6626 -22.5112
L10.4387 -22.9514
L10.2227 -23.3956
L10.0144 -23.8436
L9.81411 -24.2953
L9.62177 -24.7506
L9.43746 -25.2093
L9.26125 -25.6713
L9.09318 -26.1365
L8.9333 -26.6046
L8.78167 -27.0757
L8.63834 -27.5494
L8.50333 -28.0257
L8.3767 -28.5044
L8.25849 -28.9855
L8.14873 -29.4686
L8.04745 -29.9538
L7.95469 -30.4408
L7.87046 -30.9295
L7.79481 -31.4197
L7.72775 -31.9113
L7.6693 -32.4042
L7.61948 -32.8982
L7.57831 -33.3931
L7.54579 -33.8888
L7.52194 -34.3851
L7.50676 -34.882
L7.50027 -35.3791
L7.50245 -35.8765
L7.51332 -36.3739
L7.53286 -36.8712
L7.56108 -37.3682
L7.59796 -37.8649
L7.64348 -38.3609
L7.69765 -38.8562
L7.76044 -39.3507
L7.83183 -39.8441
L7.9118 -40.3364
L8.00033 -40.8273
L8.09738 -41.3168
L8.20294 -41.8046
L8.31696 -42.2907
L8.43941 -42.7749
L8.57026 -43.257
L8.70947 -43.7369
L8.85699 -44.2144
L9.01277 -44.6895
L9.17678 -45.1618
L9.34895 -45.6314
L9.52925 -46.0981
L9.71761 -46.5617
L9.91397 -47.0221
L10.1183 -47.4791
L10.3305 -47.9326
L10.5505 -48.3825
L10.7783 -48.8286
L11.0137 -49.2708
L11.2568 -49.7089
L11.5074 -50.1429
L11.7654 -50.5726
L12.0309 -50.9978
L12.3036 -51.4185
L12.5836 -51.8345
L12.8706 -52.2456
L13.1648 -52.6518
L13.4659 -53.0529
L13.7738 -53.4489
L14.0886 -53.8395
L14.41 -54.2247
L14.7379 -54.6043
L15.0724 -54.9783
L15.4132 -55.3465
L15.7603 -55.7088
L16.1136 -56.065
L16.4729 -56.4152
L16.8382 -56.7592
L17.2093 -57.0968
L17.5861 -57.428
L17.9686 -57.7527
L18.3565 -58.0707
L18.7498 -58.3821
L19.1484 -58.6866
L19.5521 -58.9842
L19.9608 -59.2748
L20.3744 -59.5583
L20.7927 -59.8346
L21.2157 -60.1037
L21.6432 -60.3654
L22.0751 -60.6198
L22.5112 -60.8666
L22.9514 -61.1058
L23.3956 -61.3374
L23.8436 -61.5613
L24.2953 -61.7773
L24.7506 -61.9856
L25.2093 -62.1859
L25.6713 -62.3782
L26.1365 -62.5625
L26.6046 -62.7388
L27.0757 -62.9068
L27.5494 -63.0667
L28.0257 -63.2183
L28.5044 -63.3617
L28.9855 -63.4967
L29.4686 -63.6233
L29.9538 -63.7415
L30.4408 -63.8513
L30.9295 -63.9526
L31.4197 -64.0453
L31.9113 -64.1295
L32.4042 -64.2052
L32.8982 -64.2723
L33.3931 -64.3307
z
" id="C0_2_25d530a1b1"/>
    </defs>
    <g clip-path="url(#p1bffca34e9)">
     <use style="fill:#ff0000;stroke:#000000;stroke-width:2.0;" x="0.0" xlink:href="#C0_0_a811fe30f3" y="72.0"/>
    </g>
    <g clip-path="url(#p1bffca34e9)">
     <use style="fill:#ffffff;stroke:#000000;stroke-width:2.0;" x="0.0" xlink:href="#C0_1_08e78c713c" y="72.0"/>
    </g>
    <g clip-path="url(#p1bffca34e9)">
     <use style="fill:#ffffff;stroke:#000000;stroke-width:2.0;" x="0.0" xlink:href="#C0_2_25d530a1b1" y="72.0"/>
    </g>
   </g>
  </g>
 </g>
 <defs>
  <clipPath id="p1bffca34e9">
   <rect height="72.0" width="72.0" x="0.0" y="0.0"/>
  </clipPath>
 </defs>
</svg>
