<?xml version="1.0" encoding="utf-8" standalone="no"?>
<!DOCTYPE svg PUBLIC "-//W3C//DTD SVG 1.1//EN"
  "http://www.w3.org/Graphics/SVG/1.1/DTD/svg11.dtd">
<!-- Created with matplotlib (http://matplotlib.org/) -->
<svg height="72pt" version="1.1" viewBox="0 0 72 72" width="72pt" xmlns="http://www.w3.org/2000/svg" xmlns:xlink="http://www.w3.org/1999/xlink">
 <defs>
  <style type="text/css">
*{stroke-linecap:butt;stroke-linejoin:round;}
  </style>
 </defs>
 <g id="figure_1">
  <g id="patch_1">
   <path d="
M0 72
L72 72
L72 0
L0 0
z
" style="fill:none;"/>
  </g>
  <g id="axes_1">
   <g id="PatchCollection_1">
    <defs>
     <path d="
M36 -7.5
C43.5583 -7.5 50.808 -10.5029 56.1525 -15.8475
C61.4971 -21.192 64.5 -28.4417 64.5 -36
C64.5 -43.5583 61.4971 -50.808 56.1525 -56.1525
C50.808 -61.4971 43.5583 -64.5 36 -64.5
C28.4417 -64.5 21.192 -61.4971 15.8475 -56.1525
C10.5029 -50.808 7.5 -43.5583 7.5 -36
C7.5 -28.4417 10.5029 -21.192 15.8475 -15.8475
C21.192 -10.5029 28.4417 -7.5 36 -7.5
z
" id="C0_0_a811fe30f3"/>
     <path d="
M58.3459 -53.4679
L58.0946 -53.4347
L57.8482 -53.3889
L57.6066 -53.3309
L57.3699 -53.2612
L57.1378 -53.1803
L56.9105 -53.0885
L56.6876 -52.9863
L56.4693 -52.8742
L56.2552 -52.7526
L56.0454 -52.622
L55.8396 -52.483
L55.6376 -52.3358
L55.4394 -52.181
L55.2448 -52.019
L55.0535 -51.8502
L54.8656 -51.675
L54.6806 -51.4939
L54.4987 -51.3072
L54.3195 -51.1153
L54.1429 -50.9186
L53.9688 -50.7174
L53.7971 -50.512
L53.6276 -50.3027
L53.4602 -50.09
L53.2947 -49.8739
L53.1312 -49.6549
L52.9693 -49.4331
L52.8092 -49.2089
L52.6506 -48.9824
L52.4935 -48.7538
L52.3378 -48.5235
L52.1834 -48.2914
L52.0303 -48.058
L51.8783 -47.8232
L51.7274 -47.5873
L51.5776 -47.3504
L51.4288 -47.1126
L51.2809 -46.8741
L51.134 -46.6351
L50.9878 -46.3955
L50.8425 -46.1555
L50.6979 -45.9152
L50.5541 -45.6747
L50.4109 -45.4341
L50.2684 -45.1934
L50.1265 -44.9527
L49.9853 -44.7121
L49.8445 -44.4716
L49.7043 -44.2313
L49.5646 -43.9911
L49.4254 -43.7512
L49.2866 -43.5116
L49.1483 -43.2723
L49.0104 -43.0333
L48.8728 -42.7947
L48.7356 -42.5564
L48.5988 -42.3185
L48.4622 -42.0811
L48.326 -41.844
L48.19 -41.6074
L48.0543 -41.3711
L47.9189 -41.1353
L47.7836 -40.8999
L47.6486 -40.6649
L47.5137 -40.4303
L47.379 -40.1961
L47.2444 -39.9623
L47.11 -39.7289
L46.9756 -39.4958
L46.8413 -39.2631
L46.7072 -39.0307
L46.573 -38.7987
L46.4389 -38.5669
L46.3048 -38.3354
L46.1707 -38.1042
L46.0365 -37.8732
L45.9024 -37.6424
L45.7681 -37.4119
L45.6338 -37.1815
L45.4994 -36.9512
L45.3649 -36.7211
L45.2302 -36.491
L45.0954 -36.2611
L44.9604 -36.0311
L44.8253 -35.8012
L44.5544 -35.5713
L44.4185 -35.3414
L44.2825 -35.1114
L44.1462 -34.8813
L44.0095 -34.6511
L43.8726 -34.4207
L43.7354 -34.1901
L43.5978 -33.9594
L43.4599 -33.7284
L43.3217 -33.4972
L43.183 -33.2656
L43.044 -33.0338
L42.9046 -32.8016
L42.7647 -32.569
L42.6244 -32.336
L42.4837 -32.1026
L42.3426 -31.8687
L42.2009 -31.6344
L42.0588 -31.3995
L41.9163 -31.1641
L41.7732 -30.9281
L41.6297 -30.6915
L41.4857 -30.4543
L41.3411 -30.2165
L41.1961 -29.9779
L41.0506 -29.7387
L40.9045 -29.4988
L40.758 -29.2581
L40.611 -29.0167
L40.4635 -28.7745
L40.3155 -28.5314
L40.167 -28.2876
L40.0181 -28.0429
L39.8688 -27.7973
L39.719 -27.5509
L39.5689 -27.3036
L39.4183 -27.0553
L39.2675 -26.8062
L39.1163 -26.5561
L38.9648 -26.3051
L38.8131 -26.0532
L38.6613 -25.8002
L38.5092 -25.5464
L38.3571 -25.2915
L38.205 -25.0357
L38.0529 -24.7789
L37.9009 -24.5212
L37.7491 -24.2625
L37.5976 -24.0028
L37.4464 -23.7422
L37.2958 -23.4807
L37.1457 -23.2182
L36.9962 -22.9548
L36.8477 -22.6906
L36.7 -22.4254
L36.5535 -22.1594
L36.4082 -21.8926
L36.2643 -21.6249
L36.122 -21.3565
L35.9815 -21.0873
L35.843 -20.8174
L35.7066 -20.5468
L35.5727 -20.2755
L35.4414 -20.0037
L35.313 -19.7312
L35.1878 -19.4583
L35.066 -19.1849
L34.9479 -18.9111
L34.8338 -18.6369
L34.7241 -18.3623
L34.619 -18.0875
L34.5189 -17.8126
L34.4242 -17.5374
L34.3351 -17.2623
L34.2521 -16.9871
L34.1756 -16.712
L34.1058 -16.4371
L34.0432 -16.1624
L33.9882 -15.888
L33.9411 -15.6141
L33.9024 -15.3407
L33.8723 -15.0679
L33.8513 -14.7959
L33.8397 -14.5247
L33.8378 -14.2546
L33.846 -13.9855
L33.8646 -13.7177
L33.8938 -13.4514
L33.9338 -13.1866
L33.985 -12.9235
L34.0475 -12.6624
L34.1214 -12.4034
L34.207 -12.1467
L34.3042 -11.8924
L34.4132 -11.6409
L34.534 -11.3923
L34.6666 -11.1468
L34.8109 -10.9047
L34.9669 -10.6662
L35.1345 -10.4315
L35.3135 -10.2008
L35.5038 -9.97449
L35.7052 -9.75265
L35.9175 -9.53557
L36.1405 -9.32346
L36.374 -9.11656
L36.6176 -8.9151
L36.8711 -8.71927
L37.1342 -8.5293
L37.4067 -8.34539
L37.6881 -8.16773
L37.9782 -7.99651
L38.2767 -7.83191
L38.7788 -7.67411
L39.2734 -7.63579
L39.767 -7.68861
L40.2595 -7.75005
L40.7506 -7.8201
L41.2403 -7.89873
L41.7285 -7.98592
L42.2148 -8.08164
L42.6993 -8.18587
L43.1817 -8.29857
L43.662 -8.41971
L44.1399 -8.54925
L44.6153 -8.68715
L45.0882 -8.83337
L45.5582 -8.98786
L46.0253 -9.15059
L46.4894 -9.32149
L46.9503 -9.50052
L47.4078 -9.68762
L47.8619 -9.88274
L48.3124 -10.0858
L48.7591 -10.2968
L49.2019 -10.5156
L49.6407 -10.7421
L50.0753 -10.9764
L50.5057 -11.2183
L50.9316 -11.4677
L51.353 -11.7246
L51.7697 -11.9889
L52.1816 -12.2605
L52.5886 -12.5393
L52.9906 -12.8253
L53.3873 -13.1183
L53.7788 -13.4183
L54.1648 -13.7252
L54.5453 -14.0389
L54.9202 -14.3593
L55.2893 -14.6862
L55.6525 -15.0197
L56.0097 -15.3595
L56.3609 -15.7056
L56.7058 -16.0579
L57.0444 -16.4163
L57.3766 -16.7807
L57.7023 -17.1509
L58.0214 -17.5268
L58.3338 -17.9084
L58.6394 -18.2955
L58.9381 -18.688
L59.2298 -19.0857
L59.5144 -19.4886
L59.7919 -19.8965
L60.0621 -20.3094
L60.325 -20.727
L60.5805 -21.1493
L60.8285 -21.576
L61.0689 -22.0072
L61.3017 -22.4427
L61.5268 -22.8823
L61.7441 -23.3258
L61.9535 -23.7733
L62.1551 -24.2244
L62.3487 -24.6792
L62.5342 -25.1374
L62.7117 -25.5989
L62.8811 -26.0635
L63.0422 -26.5312
L63.1952 -27.0018
L63.3398 -27.4751
L63.4761 -27.9511
L63.604 -28.4294
L63.7236 -28.9101
L63.8347 -29.3929
L63.9373 -29.8778
L64.0314 -30.3645
L64.1169 -30.8529
L64.1939 -31.3429
L64.2623 -31.8343
L64.3221 -32.327
L64.3733 -32.8208
L64.4158 -33.3156
L64.4497 -33.8112
L64.4749 -34.3075
L64.4914 -34.8042
L64.4993 -35.3014
L64.4985 -35.7987
L64.489 -36.2961
L64.4708 -36.7935
L64.4439 -37.2905
L64.4084 -37.7872
L64.3642 -38.2834
L64.3114 -38.7788
L64.2499 -39.2734
L64.1799 -39.767
L64.1013 -40.2595
L64.0141 -40.7506
L63.9184 -41.2403
L63.8141 -41.7285
L63.7014 -42.2148
L63.5803 -42.6993
L63.4508 -43.1817
L63.3129 -43.662
L63.1666 -44.1399
L63.0121 -44.6153
L62.8494 -45.0882
L62.6785 -45.5582
L62.4995 -46.0253
L62.3124 -46.4894
L62.1173 -46.9503
L61.9142 -47.4078
L61.7032 -47.8619
L61.4844 -48.3124
L61.2579 -48.7591
L61.0236 -49.2019
L60.7817 -49.6407
L60.5323 -50.0753
L60.2754 -50.5057
L60.0111 -50.9316
L59.7395 -51.353
L59.4607 -51.7697
L59.1747 -52.1816
L58.8817 -52.5886
z
" id="C0_1_a10fd70015"/>
     <path d="
M33.4336 -64.2898
L33.1564 -64.0871
L32.8786 -63.8824
L32.6005 -63.6757
L32.3225 -63.4672
L32.0449 -63.2567
L31.7678 -63.0443
L31.4915 -62.8301
L31.2163 -62.6141
L30.9423 -62.3962
L30.6698 -62.1767
L30.3989 -61.9555
L30.1297 -61.7326
L29.8625 -61.5081
L29.5973 -61.2821
L29.3342 -61.0545
L29.0734 -60.8256
L28.815 -60.5952
L28.559 -60.3635
L28.3055 -60.1305
L28.0546 -59.8963
L27.8064 -59.6608
L27.5608 -59.4243
L27.3179 -59.1866
L27.0777 -58.9478
L26.8404 -58.708
L26.6058 -58.4673
L26.374 -58.2256
L26.1451 -57.983
L25.9189 -57.7395
L25.6956 -57.4952
L25.4751 -57.25
L25.2574 -57.0041
L25.0425 -56.7574
L24.8304 -56.51
L24.621 -56.2619
L24.4144 -56.013
L24.2105 -55.7635
L24.0093 -55.5133
L23.8108 -55.2625
L23.615 -55.011
L23.4218 -54.7589
L23.2312 -54.5061
L23.0431 -54.2527
L22.8576 -53.9987
L22.6747 -53.744
L22.4942 -53.4887
L22.3161 -53.2328
L22.1405 -52.9763
L21.9673 -52.7191
L21.7964 -52.4612
L21.6279 -52.2027
L21.4617 -51.9435
L21.2978 -51.6836
L21.1361 -51.423
L20.9766 -51.1617
L20.8194 -50.8997
L20.6643 -50.6369
L20.5113 -50.3734
L20.3605 -50.109
L20.2117 -49.8439
L20.065 -49.5779
L19.9203 -49.3111
L19.7777 -49.0434
L19.6371 -48.7747
L19.4984 -48.5052
L19.3617 -48.2347
L19.2269 -47.9632
L19.094 -47.6907
L18.9631 -47.4172
L18.834 -47.1426
L18.7068 -46.8669
L18.5814 -46.59
L18.4579 -46.3121
L18.3362 -46.0329
L18.2164 -45.7525
L18.0983 -45.4709
L17.9821 -45.188
L17.8677 -44.9038
L17.755 -44.6182
L17.6441 -44.3313
L17.535 -44.043
L17.4277 -43.7532
L17.3222 -43.462
L17.2184 -43.1692
L17.1164 -42.875
L17.0162 -42.5792
L16.9178 -42.2818
L16.8211 -41.9828
L16.7262 -41.6821
L16.6332 -41.3798
L16.5419 -41.0758
L16.4524 -40.7701
L16.3648 -40.4627
L16.2789 -40.1534
L16.1949 -39.8425
L16.1127 -39.5297
L16.0324 -39.2151
L15.954 -38.8986
L15.8774 -38.5804
L15.8027 -38.2603
L15.7299 -37.9383
L15.659 -37.6144
L15.5901 -37.2887
L15.5231 -36.9612
L15.458 -36.6318
L15.3949 -36.3005
L15.3337 -35.9674
L15.2746 -35.6325
L15.2174 -35.2958
L15.1622 -34.9573
L15.109 -34.617
L15.0578 -34.2751
L15.0085 -33.9315
L14.9613 -33.5863
L14.9161 -33.2395
L14.8728 -32.8913
L14.8316 -32.5415
L14.7922 -32.1905
L14.7548 -31.8381
L14.7193 -31.4845
L14.6856 -31.1298
L14.6538 -30.7742
L14.6237 -30.4176
L14.5954 -30.0603
L14.5687 -29.7023
L14.5436 -29.3439
L14.52 -28.985
L14.4978 -28.626
L14.4769 -28.267
L14.4573 -27.908
L14.4387 -27.5494
L14.421 -27.1914
L14.4042 -26.834
L14.3879 -26.4776
L14.3722 -26.1223
L14.3567 -25.7684
L14.3413 -25.4161
L14.3258 -25.0657
L14.31 -24.7174
L14.2935 -24.3714
L14.2763 -24.0281
L14.258 -23.6877
L14.2383 -23.3504
L14.217 -23.0167
L14.1939 -22.6866
L14.1685 -22.3605
L14.1408 -22.0388
L14.1103 -21.7216
L14.0768 -21.4092
L14.04 -21.1019
L13.9997 -20.8
L13.9555 -20.5038
L13.9073 -20.2134
L13.8548 -19.9291
L13.7978 -19.6511
L13.7361 -19.3798
L13.6695 -19.1152
L13.5978 -18.8575
L13.1585 -18.607
L12.8645 -18.9555
L12.5776 -19.3567
L12.2978 -19.763
L12.0252 -20.1743
L11.7599 -20.5903
L11.502 -21.0111
L11.2516 -21.4364
L11.0087 -21.8662
L10.7734 -22.3003
L10.5458 -22.7385
L10.3259 -23.1808
L10.1139 -23.627
L9.90975 -24.0769
L9.71355 -24.5305
L9.52536 -24.9876
L9.34524 -25.4481
L9.17323 -25.9117
L9.0094 -26.3784
L8.85379 -26.8481
L8.70644 -27.3205
L8.56741 -27.7956
L8.43674 -28.2732
L8.31446 -28.7532
L8.20062 -29.2353
L8.09525 -29.7195
L7.99837 -30.2056
L7.91002 -30.6935
L7.83023 -31.183
L7.75903 -31.674
L7.69642 -32.1663
L7.64243 -32.6597
L7.59709 -33.1542
L7.56039 -33.6496
L7.53236 -34.1456
L7.513 -34.6422
L7.50232 -35.1393
L7.50031 -35.6366
L7.50699 -36.134
L7.52235 -36.6313
L7.54638 -37.1285
L7.57908 -37.6254
L7.62044 -38.1217
L7.67044 -38.6174
L7.72908 -39.1123
L7.79632 -39.6062
L7.87215 -40.0991
L7.95655 -40.5907
L8.0495 -41.0809
L8.15096 -41.5695
L8.2609 -42.0565
L8.37929 -42.5416
L8.5061 -43.0247
L8.64127 -43.5057
L8.78479 -43.9844
L8.93659 -44.4606
L9.09664 -44.9343
L9.26488 -45.4053
L9.44127 -45.8734
L9.62574 -46.3385
L9.81825 -46.8004
L10.0187 -47.259
L10.2271 -47.7143
L10.4434 -48.1659
L10.6674 -48.6139
L10.8992 -49.058
L11.1386 -49.4981
L11.3855 -49.9341
L11.64 -50.3659
L11.9019 -50.7933
L12.1711 -51.2162
L12.4476 -51.6344
L12.7313 -52.0479
L13.022 -52.4565
L13.3198 -52.8601
L13.6244 -53.2585
L13.9359 -53.6517
L14.2541 -54.0396
L14.5789 -54.4219
L14.9103 -54.7986
L15.248 -55.1696
L15.5921 -55.5347
L15.9424 -55.8939
L16.2988 -56.2471
L16.6612 -56.594
L17.0296 -56.9347
L17.4036 -57.269
L17.7834 -57.5969
L18.1687 -57.9181
L18.5594 -58.2327
L18.9555 -58.5405
L19.3567 -58.8415
L19.763 -59.1355
L20.1743 -59.4224
L20.5903 -59.7022
L21.0111 -59.9748
L21.4364 -60.2401
L21.8662 -60.498
L22.3003 -60.7484
L22.7385 -60.9913
L23.1808 -61.2266
L23.627 -61.4542
L24.0769 -61.6741
L24.5305 -61.8861
L24.9876 -62.0903
L25.4481 -62.2864
L25.9117 -62.4746
L26.3784 -62.6548
L26.8481 -62.8268
L27.3205 -62.9906
L27.7956 -63.1462
L28.2732 -63.2936
L28.7532 -63.4326
L29.2353 -63.5633
L29.7195 -63.6855
L30.2056 -63.7994
L30.6935 -63.9048
L31.183 -64.0016
L31.674 -64.09
L32.1663 -64.1698
L32.6597 -64.241
z
" id="C0_2_a86f8267fa"/>
    </defs>
    <g clip-path="url(#p1bffca34e9)">
     <use style="fill:#ff0000;stroke:#000000;stroke-width:2.0;" x="0.0" xlink:href="#C0_0_a811fe30f3" y="72.0"/>
    </g>
    <g clip-path="url(#p1bffca34e9)">
     <use style="fill:#ffffff;stroke:#000000;stroke-width:2.0;" x="0.0" xlink:href="#C0_1_a10fd70015" y="72.0"/>
    </g>
    <g clip-path="url(#p1bffca34e9)">
     <use style="fill:#ffffff;stroke:#000000;stroke-width:2.0;" x="0.0" xlink:href="#C0_2_a86f8267fa" y="72.0"/>
    </g>
   </g>
  </g>
 </g>
 <defs>
  <clipPath id="p1bffca34e9">
   <rect height="72.0" width="72.0" x="0.0" y="0.0"/>
  </clipPath>
 </defs>
</svg>
