<?xml version="1.0" encoding="utf-8" standalone="no"?>
<!DOCTYPE svg PUBLIC "-//W3C//DTD SVG 1.1//EN"
  "http://www.w3.org/Graphics/SVG/1.1/DTD/svg11.dtd">
<!-- Created with matplotlib (http://matplotlib.org/) -->
<svg height="72pt" version="1.1" viewBox="0 0 72 72" width="72pt" xmlns="http://www.w3.org/2000/svg" xmlns:xlink="http://www.w3.org/1999/xlink">
 <defs>
  <style type="text/css">
*{stroke-linecap:butt;stroke-linejoin:round;}
  </style>
 </defs>
 <g id="figure_1">
  <g id="patch_1">
   <path d="
M0 72
L72 72
L72 0
L0 0
z
" style="fill:none;"/>
  </g>
  <g id="axes_1">
   <g id="PatchCollection_1">
    <defs>
     <path d="
M36 -7.5
C43.5583 -7.5 50.808 -10.5029 56.1525 -15.8475
C61.4971 -21.192 64.5 -28.4417 64.5 -36
C64.5 -43.5583 61.4971 -50.808 56.1525 -56.1525
C50.808 -61.4971 43.5583 -64.5 36 -64.5
C28.4417 -64.5 21.192 -61.4971 15.8475 -56.1525
C10.5029 -50.808 7.5 -43.5583 7.5 -36
C7.5 -28.4417 10.5029 -21.192 15.8475 -15.8475
C21.192 -10.5029 28.4417 -7.5 36 -7.5
z
" id="C0_0_a811fe30f3"/>
     <path d="
M7.90233 -40.0573
L8.07255 -39.9698
L8.24334 -39.8833
L8.41474 -39.7976
L8.58676 -39.7129
L8.75944 -39.629
L8.93281 -39.546
L9.10689 -39.4637
L9.28171 -39.3821
L9.45732 -39.3012
L9.63375 -39.221
L9.81102 -39.1414
L9.98919 -39.0624
L10.1683 -38.984
L10.3484 -38.9061
L10.7116 -38.8287
L10.8948 -38.7518
L11.0792 -38.6753
L11.2648 -38.5992
L11.4517 -38.5236
L11.6398 -38.4482
L11.8293 -38.3733
L12.0202 -38.2986
L12.2126 -38.2242
L12.4064 -38.1501
L12.6019 -38.0762
L12.7989 -38.0025
L12.9977 -37.929
L13.1982 -37.8557
L13.4006 -37.7825
L13.6048 -37.7095
L13.811 -37.6365
L14.0192 -37.5637
L14.2295 -37.4909
L14.4419 -37.4181
L14.6566 -37.3454
L14.8736 -37.2727
L15.093 -37.2
L15.3149 -37.1272
L15.5393 -37.0544
L15.7663 -36.9815
L15.996 -36.9086
L16.2286 -36.8356
L16.464 -36.7624
L16.7024 -36.6891
L16.9439 -36.6157
L17.1885 -36.5421
L17.4363 -36.4684
L17.6875 -36.3944
L17.9422 -36.3203
L18.2003 -36.246
L18.4621 -36.1714
L18.7276 -36.0966
L18.997 -36.0216
L19.2703 -35.9463
L19.5476 -35.8708
L19.829 -35.795
L20.1146 -35.719
L20.4046 -35.6426
L20.6991 -35.566
L20.998 -35.4891
L21.3016 -35.412
L21.6099 -35.3345
L21.9231 -35.2568
L22.2412 -35.1788
L22.5642 -35.1005
L22.8924 -35.0219
L23.2258 -34.9431
L23.5644 -34.8641
L23.9084 -34.7848
L24.2578 -34.7052
L24.6126 -34.6255
L24.973 -34.5456
L25.339 -34.4655
L25.7106 -34.3853
L26.0878 -34.3049
L26.4708 -34.2245
L26.8594 -34.1439
L27.2538 -34.0634
L27.6538 -33.9829
L28.0595 -33.9024
L28.4708 -33.822
L28.8877 -33.7418
L29.3102 -33.6617
L29.738 -33.5819
L30.1711 -33.5024
L30.6095 -33.4232
L31.0529 -33.3445
L31.5013 -33.2662
L31.9544 -33.1885
L32.412 -33.1114
L32.874 -33.0349
L33.3401 -32.9593
L33.81 -32.8845
L34.2835 -32.8106
L34.7603 -32.7378
L35.24 -32.6662
L35.7222 -32.5958
L36.2066 -32.5268
L36.6927 -32.4594
L37.1798 -32.394
L37.667 -32.3308
L38.1527 -32.2708
L38.6331 -32.2156
L39.0949 -32.1696
L39.4712 -32.1498
L39.6545 -32.2422
L39.7507 -32.5844
L39.8261 -33.0377
L39.8935 -33.5156
L39.9563 -34.0009
L40.0159 -34.4887
L40.0726 -34.9772
L40.1268 -35.4652
L40.1786 -35.952
L40.2282 -36.4371
L40.2755 -36.9199
L40.3206 -37.4002
L40.3636 -37.8776
L40.4044 -38.3517
L40.4431 -38.8222
L40.4798 -39.2889
L40.5145 -39.7515
L40.5471 -40.2099
L40.5777 -40.6637
L40.6065 -41.1129
L40.6333 -41.5572
L40.6582 -41.9965
L40.6814 -42.4307
L40.7027 -42.8596
L40.7223 -43.2832
L40.7402 -43.7014
L40.7565 -44.1142
L40.7711 -44.5214
L40.7841 -44.9231
L40.7957 -45.3192
L40.8057 -45.7097
L40.8143 -46.0947
L40.8214 -46.4742
L40.8272 -46.8481
L40.8317 -47.2165
L40.8349 -47.5795
L40.8369 -47.9371
L40.8376 -48.2894
L40.8372 -48.6364
L40.8356 -48.9782
L40.8329 -49.3149
L40.8292 -49.6466
L40.8244 -49.9733
L40.8186 -50.2952
L40.8119 -50.6122
L40.8042 -50.9247
L40.7955 -51.2325
L40.786 -51.5358
L40.7756 -51.8348
L40.7644 -52.1294
L40.7523 -52.4199
L40.7394 -52.7063
L40.7258 -52.9887
L40.7113 -53.2672
L40.6961 -53.5419
L40.6802 -53.8129
L40.6636 -54.0803
L40.6462 -54.3442
L40.6282 -54.6048
L40.6095 -54.862
L40.5901 -55.116
L40.57 -55.3669
L40.5493 -55.6148
L40.5279 -55.8598
L40.5059 -56.1019
L40.4832 -56.3412
L40.4599 -56.5779
L40.436 -56.812
L40.4114 -57.0436
L40.3862 -57.2727
L40.3604 -57.4996
L40.3339 -57.7241
L40.3068 -57.9465
L40.2791 -58.1668
L40.2508 -58.385
L40.2217 -58.6013
L40.1921 -58.8157
L40.1618 -59.0282
L40.1308 -59.239
L40.0992 -59.4481
L40.0668 -59.6556
L40.0338 -59.8616
L40.0001 -60.066
L39.9657 -60.269
L39.9305 -60.4706
L39.8946 -60.671
L39.8579 -60.87
L39.8205 -61.0679
L39.7822 -61.2646
L39.7432 -61.4602
L39.7033 -61.6548
L39.6625 -61.8483
L39.6209 -62.041
L39.5784 -62.2327
L39.5349 -62.4236
L39.4905 -62.6137
L39.4452 -62.803
L39.3987 -62.9917
L39.3513 -63.1796
L39.3028 -63.367
L39.2531 -63.5537
L39.2023 -63.7399
L39.1503 -63.9256
L39.0971 -64.1108
L38.6061 -64.2956
L38.1104 -64.3806
L37.614 -64.4218
L37.1172 -64.4543
L36.62 -64.4781
L36.1226 -64.4933
L35.6252 -64.4997
L35.1279 -64.4975
L34.6309 -64.4867
L34.1343 -64.4671
L33.6382 -64.4389
L33.1429 -64.402
L32.6485 -64.3564
L32.155 -64.3022
L31.6628 -64.2394
L31.1718 -64.168
L30.6824 -64.0881
L30.1945 -63.9995
L29.7084 -63.9024
L29.2243 -63.7969
L28.7422 -63.6828
L28.2623 -63.5604
L27.7847 -63.4295
L27.3097 -63.2903
L26.8373 -63.1427
L26.3677 -62.9869
L25.9011 -62.8229
L25.4375 -62.6507
L24.9771 -62.4704
L24.5201 -62.2821
L24.0666 -62.0857
L23.6167 -61.8814
L23.1706 -61.6691
L22.7284 -61.4491
L22.2903 -61.2213
L21.8563 -60.9859
L21.4267 -60.7428
L21.0014 -60.4922
L20.5808 -60.2341
L20.1648 -59.9687
L19.7537 -59.6959
L19.3475 -59.4159
L18.9464 -59.1288
L18.5504 -58.8347
L18.1598 -58.5336
L17.7746 -58.2256
L17.395 -57.9109
L17.0211 -57.5895
L16.6529 -57.2615
L16.2906 -56.927
L15.9343 -56.5862
L15.5842 -56.2391
L15.2402 -55.8858
L14.9026 -55.5264
L14.5714 -55.1612
L14.2467 -54.79
L13.9287 -54.4132
L13.6174 -54.0308
L13.3129 -53.6428
L13.0153 -53.2495
L12.7247 -52.8509
L12.4412 -52.4472
L12.1649 -52.0385
L11.8958 -51.6249
L11.6341 -51.2065
L11.3798 -50.7835
L11.133 -50.3561
L10.8938 -49.9242
L10.6622 -49.4881
L10.4384 -49.0479
L10.2223 -48.6037
L10.0141 -48.1556
L9.81376 -47.7039
L9.62144 -47.2486
L9.43714 -46.7899
L9.26094 -46.3279
L9.09289 -45.8627
L8.93303 -45.3945
L8.78142 -44.9235
L8.63809 -44.4498
L8.5031 -43.9735
L8.37649 -43.4947
L8.25829 -43.0137
L8.14854 -42.5305
L8.04728 -42.0454
L7.95453 -41.5584
L7.87032 -41.0697
z
" id="C0_1_14f1ea1f07"/>
     <path d="
M32.9876 -7.80318
L33.0797 -7.97448
L33.1715 -8.14799
L33.263 -8.32378
L33.3542 -8.50192
L33.4452 -8.68246
L33.536 -8.86549
L33.6266 -9.05106
L33.717 -9.23925
L33.8073 -9.43013
L33.8975 -9.62379
L33.9877 -9.8203
L34.0777 -10.0197
L34.1677 -10.2222
L34.2577 -10.4277
L34.3477 -10.6365
L34.4377 -10.8485
L34.5278 -11.0639
L34.6179 -11.2828
L34.708 -11.5052
L34.7983 -11.7312
L34.8886 -11.9611
L34.9791 -12.1947
L35.0697 -12.4324
L35.1604 -12.6741
L35.2513 -12.9199
L35.3424 -13.1701
L35.4336 -13.4246
L35.525 -13.6836
L35.6165 -13.9471
L35.7083 -14.2154
L35.8002 -14.4885
L35.8923 -14.7666
L35.9846 -15.0496
L36.0771 -15.3378
L36.1697 -15.6312
L36.2625 -15.93
L36.3555 -16.2341
L36.4486 -16.5439
L36.5419 -16.8592
L36.6353 -17.1803
L36.7288 -17.5072
L36.8223 -17.84
L36.916 -18.1787
L37.0096 -18.5235
L37.1033 -18.8743
L37.1969 -19.2313
L37.2905 -19.5944
L37.384 -19.9637
L37.4774 -20.3393
L37.5705 -20.7211
L37.6635 -21.1091
L37.7562 -21.5032
L37.8486 -21.9036
L37.9406 -22.31
L38.0321 -22.7225
L38.1232 -23.141
L38.2138 -23.5653
L38.3037 -23.9953
L38.393 -24.4309
L38.4816 -24.872
L38.5693 -25.3182
L38.6563 -25.7696
L38.7423 -26.2257
L38.8274 -26.6863
L38.9114 -27.1512
L38.9945 -27.6201
L39.0765 -28.0925
L39.1575 -28.5681
L39.2376 -29.0463
L39.3169 -29.5265
L39.3961 -30.0075
L39.4762 -30.4875
L39.5606 -30.9616
L39.6623 -31.4126
L39.8478 -31.7542
L40.2238 -31.8484
L40.6844 -31.8337
L41.1628 -31.7961
L41.6456 -31.7526
L42.1291 -31.7076
L42.6117 -31.6628
L43.0924 -31.6189
L43.5707 -31.5762
L44.0462 -31.5351
L44.5183 -31.4957
L44.9867 -31.4579
L45.4512 -31.422
L45.9114 -31.3879
L46.3671 -31.3556
L46.8181 -31.3252
L47.2641 -31.2967
L47.705 -31.27
L48.1406 -31.2451
L48.5707 -31.2221
L48.9952 -31.2008
L49.414 -31.1814
L49.8271 -31.1637
L50.2342 -31.1477
L50.6355 -31.1334
L51.0308 -31.1208
L51.42 -31.1098
L51.8033 -31.1004
L52.1806 -31.0926
L52.5518 -31.0863
L52.9171 -31.0814
L53.2764 -31.078
L53.6299 -31.076
L53.9774 -31.0754
L54.3192 -31.0761
L54.6553 -31.0781
L54.9857 -31.0814
L55.3105 -31.086
L55.6299 -31.0917
L55.9439 -31.0986
L56.2525 -31.1066
L56.556 -31.1157
L56.8543 -31.1259
L57.1477 -31.1372
L57.4361 -31.1494
L57.7197 -31.1627
L57.9987 -31.177
L58.2731 -31.1921
L58.5429 -31.2083
L58.8084 -31.2253
L59.0697 -31.2432
L59.3268 -31.262
L59.5798 -31.2816
L59.8289 -31.3021
L60.0741 -31.3234
L60.3156 -31.3455
L60.5534 -31.3684
L60.7877 -31.3921
L61.0185 -31.4165
L61.246 -31.4418
L61.4703 -31.4678
L61.6914 -31.4945
L61.9094 -31.5221
L62.1244 -31.5503
L62.3366 -31.5793
L62.5459 -31.6091
L62.7525 -31.6396
L62.9565 -31.6709
L63.1579 -31.7029
L63.3568 -31.7357
L63.5533 -31.7692
L63.7475 -31.8035
L63.9394 -31.8385
L64.1219 -31.8744
L64.0368 -31.3728
L63.9432 -30.8827
L63.8411 -30.3941
L63.7306 -29.9073
L63.6115 -29.4223
L63.4841 -28.9394
L63.3483 -28.4586
L63.2042 -27.9801
L63.0518 -27.504
L62.8911 -27.0305
L62.7223 -26.5597
L62.5453 -26.0919
L62.3602 -25.627
L62.1671 -25.1653
L61.966 -24.7069
L61.757 -24.2519
L61.5402 -23.8006
L61.3156 -23.3529
L61.0832 -22.9091
L60.8433 -22.4693
L60.5958 -22.0336
L60.3407 -21.6021
L60.0783 -21.1751
L59.8085 -20.7525
L59.5315 -20.3346
L59.2473 -19.9215
L58.956 -19.5132
L58.6578 -19.11
L58.3526 -18.712
L58.0406 -18.3192
L57.7219 -17.9318
L57.3966 -17.5498
L57.0648 -17.1736
L56.7265 -16.803
L56.382 -16.4383
L56.0312 -16.0795
L55.6744 -15.7269
L55.3115 -15.3804
L54.9428 -15.0401
L54.5683 -14.7063
L54.1881 -14.3789
L53.8024 -14.0582
L53.4112 -13.7441
L53.0148 -13.4368
L52.6132 -13.1364
L52.2065 -12.8429
L51.7949 -12.5565
L51.3785 -12.2772
L50.9574 -12.0052
L50.5317 -11.7404
L50.1016 -11.4831
L49.6672 -11.2332
L49.2287 -10.9909
L48.7861 -10.7561
L48.3396 -10.5291
L47.8894 -10.3098
L47.4355 -10.0984
L46.9782 -9.89485
L46.5175 -9.69925
L46.0536 -9.51166
L45.5867 -9.33214
L45.1168 -9.16074
L44.6441 -8.99752
L44.1689 -8.84252
L43.6911 -8.69579
L43.211 -8.55739
L42.7287 -8.42734
L42.2443 -8.30569
L41.7581 -8.19247
L41.27 -8.08773
L40.7804 -7.99149
L40.2894 -7.90378
L39.797 -7.82463
L39.3034 -7.75406
L38.8089 -7.6921
L38.3135 -7.63876
L37.8174 -7.59405
L37.3207 -7.558
L36.8237 -7.53062
L36.3264 -7.5119
L35.8289 -7.50187
L35.3316 -7.50051
L34.8344 -7.50784
L34.3376 -7.52384
L33.8413 -7.54852
z
" id="C0_2_02c100a86e"/>
    </defs>
    <g clip-path="url(#p1bffca34e9)">
     <use style="fill:#ff0000;stroke:#000000;stroke-width:2.0;" x="0.0" xlink:href="#C0_0_a811fe30f3" y="72.0"/>
    </g>
    <g clip-path="url(#p1bffca34e9)">
     <use style="fill:#ffffff;stroke:#000000;stroke-width:2.0;" x="0.0" xlink:href="#C0_1_14f1ea1f07" y="72.0"/>
    </g>
    <g clip-path="url(#p1bffca34e9)">
     <use style="fill:#ffffff;stroke:#000000;stroke-width:2.0;" x="0.0" xlink:href="#C0_2_02c100a86e" y="72.0"/>
    </g>
   </g>
  </g>
 </g>
 <defs>
  <clipPath id="p1bffca34e9">
   <rect height="72.0" width="72.0" x="0.0" y="0.0"/>
  </clipPath>
 </defs>
</svg>
