<?xml version="1.0" encoding="utf-8" standalone="no"?>
<!DOCTYPE svg PUBLIC "-//W3C//DTD SVG 1.1//EN"
  "http://www.w3.org/Graphics/SVG/1.1/DTD/svg11.dtd">
<!-- Created with matplotlib (http://matplotlib.org/) -->
<svg height="72pt" version="1.1" viewBox="0 0 72 72" width="72pt" xmlns="http://www.w3.org/2000/svg" xmlns:xlink="http://www.w3.org/1999/xlink">
 <defs>
  <style type="text/css">
*{stroke-linecap:butt;stroke-linejoin:round;}
  </style>
 </defs>
 <g id="figure_1">
  <g id="patch_1">
   <path d="
M0 72
L72 72
L72 0
L0 0
z
" style="fill:none;"/>
  </g>
  <g id="axes_1">
   <g id="PatchCollection_1">
    <defs>
     <path d="
M36 -7.5
C43.5583 -7.5 50.808 -10.5029 56.1525 -15.8475
C61.4971 -21.192 64.5 -28.4417 64.5 -36
C64.5 -43.5583 61.4971 -50.808 56.1525 -56.1525
C50.808 -61.4971 43.5583 -64.5 36 -64.5
C28.4417 -64.5 21.192 -61.4971 15.8475 -56.1525
C10.5029 -50.808 7.5 -43.5583 7.5 -36
C7.5 -28.4417 10.5029 -21.192 15.8475 -15.8475
C21.192 -10.5029 28.4417 -7.5 36 -7.5
z
" id="C0_0_a811fe30f3"/>
     <path d="
M45.7931 -9.31058
L45.5984 -9.58143
L45.4137 -9.86588
L45.236 -10.1605
L45.0634 -10.4628
L44.8948 -10.7713
L44.7293 -11.0848
L44.5663 -11.4022
L44.4056 -11.7228
L44.2468 -12.0461
L44.0897 -12.3714
L43.9343 -12.6984
L43.7805 -13.0265
L43.6282 -13.3555
L43.4773 -13.6851
L43.3278 -14.0148
L43.1798 -14.3446
L43.0332 -14.674
L42.888 -15.0029
L42.7443 -15.331
L42.602 -15.6582
L42.4612 -15.9843
L42.3218 -16.3091
L42.1838 -16.6325
L42.0473 -16.9544
L41.9122 -17.2745
L41.7786 -17.5929
L41.6465 -17.9094
L41.5158 -18.224
L41.3866 -18.5365
L41.2588 -18.8469
L41.1324 -19.1552
L41.0074 -19.4613
L40.8838 -19.7652
L40.7617 -20.0668
L40.6409 -20.3661
L40.5214 -20.6631
L40.4033 -20.9579
L40.2865 -21.2504
L40.171 -21.5406
L40.0568 -21.8285
L39.9438 -22.1141
L39.8321 -22.3975
L39.7216 -22.6787
L39.6122 -22.9578
L39.504 -23.2346
L39.3969 -23.5094
L39.2909 -23.7821
L39.186 -24.0527
L39.0821 -24.3214
L38.9792 -24.5881
L38.8774 -24.8528
L38.7765 -25.1158
L38.6765 -25.3769
L38.5774 -25.6363
L38.4792 -25.894
L38.3819 -26.15
L38.2854 -26.4045
L38.1897 -26.6574
L38.0947 -26.9088
L38.0005 -27.1588
L37.907 -27.4074
L37.8142 -27.6548
L37.722 -27.9009
L37.6305 -28.1458
L37.5396 -28.3895
L37.4493 -28.6322
L37.3595 -28.8739
L37.2703 -29.1147
L37.1815 -29.3545
L37.0933 -29.5935
L37.0054 -29.8318
L36.9181 -30.0693
L36.8311 -30.3062
L36.7445 -30.5425
L36.6582 -30.7783
L36.5723 -31.0136
L36.4867 -31.2485
L36.4014 -31.483
L36.3163 -31.7173
L36.2315 -31.9513
L36.1469 -32.1852
L36.0625 -32.419
L35.9782 -32.6527
L35.8101 -32.8865
L35.7262 -33.1203
L35.6424 -33.3543
L35.5587 -33.5885
L35.475 -33.8229
L35.3913 -34.0577
L35.3076 -34.2928
L35.2238 -34.5285
L35.14 -34.7646
L35.0561 -35.0013
L34.9722 -35.2387
L34.8881 -35.4768
L34.8039 -35.7156
L34.7195 -35.9553
L34.6349 -36.1959
L34.5502 -36.4374
L34.4652 -36.68
L34.38 -36.9236
L34.2945 -37.1685
L34.2087 -37.4145
L34.1227 -37.6619
L34.0363 -37.9106
L33.9495 -38.1608
L33.8624 -38.4124
L33.775 -38.6656
L33.6871 -38.9205
L33.5988 -39.177
L33.5101 -39.4353
L33.4209 -39.6955
L33.3312 -39.9575
L33.241 -40.2215
L33.1504 -40.4876
L33.0592 -40.7558
L32.9674 -41.0261
L32.8752 -41.2987
L32.7823 -41.5736
L32.6888 -41.8509
L32.5948 -42.1306
L32.5001 -42.4128
L32.4049 -42.6975
L32.3089 -42.9849
L32.2124 -43.275
L32.1152 -43.5678
L32.0173 -43.8634
L31.9188 -44.1619
L31.8196 -44.4632
L31.7198 -44.7675
L31.6193 -45.0748
L31.5181 -45.3851
L31.4163 -45.6985
L31.3138 -46.015
L31.2107 -46.3345
L31.1069 -46.6573
L31.0026 -46.9832
L30.8976 -47.3122
L30.7921 -47.6445
L30.6861 -47.9799
L30.5795 -48.3184
L30.4725 -48.6601
L30.365 -49.0049
L30.2572 -49.3527
L30.149 -49.7036
L30.0406 -50.0574
L29.9319 -50.4141
L29.8231 -50.7735
L29.7142 -51.1357
L29.6054 -51.5005
L29.4966 -51.8677
L29.3881 -52.2373
L29.2799 -52.6091
L29.1722 -52.9829
L29.0652 -53.3586
L28.9589 -53.7359
L28.8536 -54.1147
L28.7494 -54.4947
L28.6467 -54.8756
L28.5458 -55.2573
L28.4469 -55.6394
L28.3506 -56.0216
L28.2574 -56.4036
L28.1679 -56.785
L28.0831 -57.1655
L28.0044 -57.5444
L27.9335 -57.9214
L27.8731 -58.2956
L27.8272 -58.6662
L27.8024 -59.0319
L27.8089 -59.391
L27.8625 -59.7408
L27.986 -60.077
L28.2032 -60.3935
L28.5253 -60.6833
L28.9412 -60.9415
L29.4274 -61.1683
L29.9608 -61.3672
L30.5252 -61.542
L31.1096 -61.6958
L31.7073 -61.8307
L32.3134 -61.9479
L32.9249 -62.0484
L33.5392 -62.1327
L34.1548 -62.2014
L34.77 -62.2548
L35.3837 -62.2935
L35.995 -62.3177
L36.6029 -62.3279
L37.2067 -62.3243
L37.8057 -62.3074
L38.3995 -62.2776
L38.9873 -62.2352
L39.5689 -62.1806
L40.1437 -62.1143
L40.7113 -62.0367
L41.2716 -61.9481
L41.8241 -61.849
L42.3687 -61.7399
L42.9052 -61.621
L43.4333 -61.4929
L43.9529 -61.356
L44.4639 -61.2106
L44.9663 -61.0571
L45.4599 -60.896
L45.9447 -60.7276
L46.4207 -60.5522
L46.8879 -60.3703
L47.3463 -60.1821
L47.796 -59.9881
L48.237 -59.7885
L48.6694 -59.5836
L49.0932 -59.3737
L49.5085 -59.1591
L49.9155 -58.9401
L50.3142 -58.7169
L50.7047 -58.4898
L51.0872 -58.2589
L51.4618 -58.0246
L51.8286 -57.7869
L52.1877 -57.5462
L52.5393 -57.3026
L52.8836 -57.0561
L53.2205 -56.8071
L53.5504 -56.5557
L53.8732 -56.3019
L54.1893 -56.0459
L54.4986 -55.7879
L54.8014 -55.5278
L55.0977 -55.266
L55.3877 -55.0023
L55.6716 -54.7369
L55.9494 -54.47
L56.2213 -54.2014
L56.4875 -53.9314
L56.7479 -53.6599
L57.0028 -53.387
L57.2523 -53.1128
L57.4964 -52.8373
L57.7354 -52.5604
L57.9692 -52.2823
L58.1981 -52.003
L58.422 -51.7224
L58.6411 -51.4406
L58.8555 -51.1575
L59.0653 -50.8733
L59.2705 -50.5878
L59.4712 -50.3011
L59.6676 -50.0132
L59.8596 -49.724
L60.0475 -49.4335
L60.2311 -49.1418
L60.4106 -48.8487
L60.5861 -48.5543
L60.7575 -48.2585
L60.925 -47.9613
L61.0886 -47.6627
L61.2483 -47.3627
L61.4042 -47.0611
L61.5564 -46.7579
L61.7047 -46.4532
L61.8494 -46.1468
L61.9903 -45.8387
L62.1276 -45.5289
L62.2612 -45.2173
L62.3911 -44.9038
L62.5174 -44.5884
L62.6401 -44.2711
L62.7591 -43.9517
L62.8744 -43.6303
L62.9861 -43.3067
L63.0941 -42.9809
L63.1985 -42.6528
L63.2991 -42.3224
L63.3959 -41.9896
L63.489 -41.6543
L63.5783 -41.3165
L63.6637 -40.976
L63.7452 -40.6328
L63.8228 -40.2869
L63.8963 -39.9381
L63.9658 -39.5864
L64.0311 -39.2317
L64.0921 -38.8739
L64.1489 -38.513
L64.2012 -38.1489
L64.2491 -37.7815
L64.2923 -37.4107
L64.3308 -37.0364
L64.3645 -36.6586
L64.3933 -36.2772
L64.4169 -35.8922
L64.4353 -35.5034
L64.4484 -35.1108
L64.4441 -34.7143
L64.4087 -34.2165
L64.3646 -33.7204
L64.3118 -33.2249
L64.2504 -32.7303
L64.1805 -32.2367
L64.1019 -31.7443
L64.0148 -31.2531
L63.9191 -30.7634
L63.815 -30.2752
L63.7023 -29.7889
L63.5812 -29.3044
L63.4518 -28.8219
L63.3139 -28.3416
L63.1678 -27.8637
L63.0133 -27.3883
L62.8507 -26.9154
L62.6798 -26.4454
L62.5009 -25.9782
L62.3138 -25.5141
L62.1188 -25.0532
L61.9158 -24.5956
L61.7049 -24.1415
L61.4861 -23.691
L61.2596 -23.2443
L61.0254 -22.8015
L60.7836 -22.3626
L60.5342 -21.9279
L60.2774 -21.4976
L60.0132 -21.0716
L59.7416 -20.6502
L59.4628 -20.2334
L59.1769 -19.8215
L58.8839 -19.4144
L58.584 -19.0125
L58.2771 -18.6157
L57.9635 -18.2242
L57.6432 -17.8381
L57.3163 -17.4576
L56.9829 -17.0827
L56.6431 -16.7135
L56.297 -16.3503
L55.9448 -15.993
L55.5864 -15.6418
L55.2221 -15.2968
L54.852 -14.9581
L54.4761 -14.6259
L54.0945 -14.3001
L53.7075 -13.981
L53.315 -13.6685
L52.9173 -13.3629
L52.5145 -13.0641
L52.1066 -12.7724
L51.6938 -12.4877
L51.2762 -12.2102
L50.854 -11.9399
L50.4272 -11.677
L49.9961 -11.4214
L49.5606 -11.1734
L49.1211 -10.9329
L48.6776 -10.7001
L48.2301 -10.4749
L47.779 -10.2576
L47.3243 -10.048
L46.8661 -9.84641
L46.4047 -9.65276
z
" id="C0_1_e5594b42e6"/>
     <path d="
M7.55573 -37.6855
L7.61098 -38.0856
L7.67245 -38.4881
L7.74027 -38.893
L7.8146 -39.3004
L7.8956 -39.7101
L7.98343 -40.1223
L8.07826 -40.5369
L8.18028 -40.9539
L8.28965 -41.3733
L8.40658 -41.795
L8.53125 -42.2191
L8.66387 -42.6453
L8.80463 -43.0738
L8.95374 -43.5044
L9.11142 -43.9371
L9.27788 -44.3717
L9.45334 -44.8082
L9.63802 -45.2464
L9.83213 -45.6862
L10.0359 -46.1275
L10.2496 -46.57
L10.4734 -47.0137
L10.7075 -47.4582
L10.9521 -47.9035
L11.2075 -48.3492
L11.4739 -48.7952
L11.7514 -49.2411
L12.0402 -49.6866
L12.3406 -50.1316
L12.6527 -50.5755
L12.9766 -51.0181
L13.3125 -51.4591
L13.6605 -51.898
L14.0206 -52.3343
L14.393 -52.7678
L14.7777 -53.198
L15.1746 -53.6243
L15.5838 -54.0464
L16.0052 -54.4638
L16.4387 -54.8758
L16.8841 -55.2822
L17.3413 -55.6822
L17.81 -56.0755
L18.2897 -56.4615
L18.7802 -56.8397
L19.281 -57.2097
L19.7913 -57.5709
L20.3104 -57.9229
L20.8374 -58.2654
L21.3711 -58.598
L21.9097 -58.9204
L22.4511 -59.2327
L22.9923 -59.5349
L23.5287 -59.8275
L24.0534 -60.1117
L24.5556 -60.3895
L25.0189 -60.6645
L25.4201 -60.9422
L25.7348 -61.2291
L25.9512 -61.5295
L26.0796 -61.8429
L26.1432 -62.1655
L25.6158 -62.4929
L25.1542 -62.5409
L24.6959 -62.3556
L24.241 -62.1623
L23.7897 -61.961
L23.3421 -61.7519
L22.8984 -61.5348
L22.4587 -61.31
L22.0231 -61.0775
L21.5917 -60.8374
L21.1648 -60.5897
L20.7424 -60.3345
L20.3246 -60.0719
L19.9116 -59.8019
L19.5034 -59.5247
L19.1004 -59.2403
L18.7024 -58.9489
L18.3097 -58.6505
L17.9225 -58.3451
L17.5407 -58.033
L17.1645 -57.7141
L16.7941 -57.3887
L16.4296 -57.0567
L16.071 -56.7183
L15.7184 -56.3736
L15.3721 -56.0227
L15.032 -55.6657
L14.6983 -55.3027
L14.3711 -54.9338
L14.0505 -54.5591
L13.7366 -54.1788
L13.4294 -53.793
L13.1292 -53.4017
L12.8359 -53.0052
L12.5496 -52.6034
L12.2705 -52.1966
L11.9987 -51.7849
L11.7341 -51.3684
L11.4769 -50.9471
L11.2272 -50.5214
L10.9851 -50.0912
L10.7506 -49.6567
L10.5237 -49.218
L10.3046 -48.7753
L10.0934 -48.3288
L9.89003 -47.8784
L9.69462 -47.4245
L9.50722 -46.9671
L9.3279 -46.5063
L9.1567 -46.0424
L8.99367 -45.5753
L8.83887 -45.1054
L8.69235 -44.6327
L8.55414 -44.1573
L8.4243 -43.6795
L8.30285 -43.1994
L8.18984 -42.717
L8.0853 -42.2326
L7.98927 -41.7463
L7.90177 -41.2582
L7.82282 -40.7686
L7.75246 -40.2775
L7.69071 -39.7851
L7.63757 -39.2915
L7.59308 -38.7969
z
" id="C0_2_dbfd7e055d"/>
    </defs>
    <g clip-path="url(#p1bffca34e9)">
     <use style="fill:#ffffff;stroke:#000000;stroke-width:2.0;" x="0.0" xlink:href="#C0_0_a811fe30f3" y="72.0"/>
    </g>
    <g clip-path="url(#p1bffca34e9)">
     <use style="fill:#ff0000;stroke:#000000;stroke-width:2.0;" x="0.0" xlink:href="#C0_1_e5594b42e6" y="72.0"/>
    </g>
    <g clip-path="url(#p1bffca34e9)">
     <use style="fill:#ff0000;stroke:#000000;stroke-width:2.0;" x="0.0" xlink:href="#C0_2_dbfd7e055d" y="72.0"/>
    </g>
   </g>
  </g>
 </g>
 <defs>
  <clipPath id="p1bffca34e9">
   <rect height="72.0" width="72.0" x="0.0" y="0.0"/>
  </clipPath>
 </defs>
</svg>
