<?xml version="1.0" encoding="utf-8" standalone="no"?>
<!DOCTYPE svg PUBLIC "-//W3C//DTD SVG 1.1//EN"
  "http://www.w3.org/Graphics/SVG/1.1/DTD/svg11.dtd">
<!-- Created with matplotlib (http://matplotlib.org/) -->
<svg height="72pt" version="1.1" viewBox="0 0 72 72" width="72pt" xmlns="http://www.w3.org/2000/svg" xmlns:xlink="http://www.w3.org/1999/xlink">
 <defs>
  <style type="text/css">
*{stroke-linecap:butt;stroke-linejoin:round;}
  </style>
 </defs>
 <g id="figure_1">
  <g id="patch_1">
   <path d="
M0 72
L72 72
L72 0
L0 0
z
" style="fill:none;"/>
  </g>
  <g id="axes_1">
   <g id="PatchCollection_1">
    <defs>
     <path d="
M36 -7.5
C43.5583 -7.5 50.808 -10.5029 56.1525 -15.8475
C61.4971 -21.192 64.5 -28.4417 64.5 -36
C64.5 -43.5583 61.4971 -50.808 56.1525 -56.1525
C50.808 -61.4971 43.5583 -64.5 36 -64.5
C28.4417 -64.5 21.192 -61.4971 15.8475 -56.1525
C10.5029 -50.808 7.5 -43.5583 7.5 -36
C7.5 -28.4417 10.5029 -21.192 15.8475 -15.8475
C21.192 -10.5029 28.4417 -7.5 36 -7.5
z
" id="C0_0_a811fe30f3"/>
     <path d="
M64.1705 -38.9531
L63.9436 -38.9693
L63.7156 -38.9745
L63.4867 -38.9692
L63.2568 -38.9537
L63.0261 -38.9282
L62.7947 -38.8933
L62.5626 -38.8491
L62.3299 -38.7962
L62.0966 -38.7348
L61.8628 -38.6653
L61.6286 -38.5882
L61.3939 -38.5037
L61.1588 -38.4123
L60.9233 -38.3143
L60.6875 -38.2101
L60.4514 -38.1001
L60.215 -37.9846
L59.9783 -37.8639
L59.7413 -37.7384
L59.5042 -37.6085
L59.2668 -37.4743
L59.0292 -37.3363
L58.7915 -37.1947
L58.5535 -37.0498
L58.3155 -36.9019
L58.0773 -36.7512
L57.839 -36.5979
L57.6007 -36.4424
L57.3623 -36.2848
L57.1238 -36.1253
L56.8853 -35.9641
L56.6468 -35.8015
L56.4082 -35.6375
L56.1697 -35.4724
L55.9313 -35.3063
L55.6929 -35.1394
L55.4545 -34.9718
L55.2163 -34.8036
L54.9781 -34.6349
L54.7401 -34.4659
L54.5022 -34.2966
L54.2644 -34.1272
L54.0267 -33.9578
L53.7892 -33.7883
L53.5519 -33.619
L53.3147 -33.4498
L53.0778 -33.2809
L52.8409 -33.1123
L52.6043 -32.9439
L52.3679 -32.776
L52.1316 -32.6086
L51.8956 -32.4415
L51.6597 -32.2751
L51.424 -32.1091
L51.1885 -31.9437
L50.9531 -31.7789
L50.718 -31.6147
L50.483 -31.4512
L50.2482 -31.2883
L50.0135 -31.1261
L49.779 -30.9645
L49.5446 -30.8037
L49.3103 -30.6435
L49.0761 -30.484
L48.842 -30.3252
L48.6081 -30.1671
L48.3741 -30.0097
L48.1403 -29.853
L47.9065 -29.697
L47.6727 -29.5417
L47.4389 -29.387
L47.2051 -29.2331
L46.9712 -29.0798
L46.7373 -28.9272
L46.5034 -28.7752
L46.2693 -28.6239
L46.0352 -28.4732
L45.8009 -28.3231
L45.5665 -28.1737
L45.3319 -28.0248
L45.0971 -27.8765
L44.862 -27.7288
L44.6268 -27.5817
L44.3912 -27.4351
L44.1554 -27.2891
L43.9193 -27.1435
L43.446 -26.9985
L43.2088 -26.854
L42.9712 -26.7099
L42.7332 -26.5663
L42.4948 -26.4232
L42.2558 -26.2805
L42.0164 -26.1382
L41.7764 -25.9964
L41.5359 -25.8549
L41.2949 -25.7138
L41.0532 -25.573
L40.811 -25.4326
L40.5681 -25.2926
L40.3246 -25.1529
L40.0804 -25.0134
L39.8356 -24.8743
L39.59 -24.7354
L39.3437 -24.5968
L39.0967 -24.4585
L38.8489 -24.3204
L38.6004 -24.1825
L38.351 -24.0448
L38.1009 -23.9073
L37.85 -23.77
L37.5983 -23.6329
L37.3457 -23.4959
L37.0924 -23.3591
L36.8382 -23.2224
L36.5832 -23.0858
L36.3273 -22.9493
L36.0706 -22.8129
L35.8131 -22.6765
L35.5548 -22.5403
L35.2957 -22.404
L35.0358 -22.2678
L34.7751 -22.1316
L34.5137 -21.9954
L34.2515 -21.8592
L33.9887 -21.723
L33.7252 -21.5867
L33.461 -21.4503
L33.1962 -21.3139
L32.9309 -21.1773
L32.6651 -21.0406
L32.3988 -20.9038
L32.1321 -20.7668
L31.8651 -20.6295
L31.5979 -20.4921
L31.3304 -20.3544
L31.0629 -20.2165
L30.7954 -20.0782
L30.528 -19.9396
L30.2607 -19.8005
L29.9938 -19.6611
L29.7273 -19.5212
L29.4613 -19.3808
L29.1961 -19.2398
L28.9317 -19.0982
L28.6683 -18.956
L28.406 -18.813
L28.1451 -18.6693
L27.8857 -18.5247
L27.628 -18.3791
L27.3722 -18.2326
L27.1185 -18.085
L26.8671 -17.9362
L26.6183 -17.7861
L26.3723 -17.6348
L26.1294 -17.4819
L25.8898 -17.3275
L25.6537 -17.1715
L25.4215 -17.0137
L25.1935 -16.854
L24.9699 -16.6923
L24.751 -16.5285
L24.5372 -16.3625
L24.3287 -16.1941
L24.1258 -16.0232
L23.9289 -15.8498
L23.7383 -15.6736
L23.5544 -15.4946
L23.3773 -15.3126
L23.2075 -15.1276
L23.0453 -14.9394
L22.8909 -14.7479
L22.7448 -14.5532
L22.6071 -14.355
L22.4781 -14.1533
L22.3582 -13.9481
L22.2477 -13.7394
L22.1467 -13.5271
L22.0555 -13.3112
L21.9744 -13.0917
L21.9035 -12.8686
L21.8431 -12.6421
L21.7933 -12.4121
L21.7544 -12.1788
L21.7265 -11.9422
L21.7097 -11.7024
L22.0903 -11.4596
L22.5266 -11.1249
L22.9669 -10.8859
L23.4113 -10.6546
L23.8594 -10.431
L24.3113 -10.2152
L24.7667 -10.0072
L25.2255 -9.8072
L25.6876 -9.61514
L26.1529 -9.43112
L26.6212 -9.25519
L27.0923 -9.08741
L27.5661 -8.92783
L28.0425 -8.77649
L28.5213 -8.63344
L29.0024 -8.49873
L29.4857 -8.3724
L29.9709 -8.25448
L30.458 -8.14502
L30.9467 -8.04404
L31.437 -7.95158
L31.9286 -7.86766
L32.4216 -7.7923
L32.9156 -7.72555
L33.4105 -7.6674
L33.9062 -7.61788
L34.4026 -7.57701
L34.8995 -7.5448
L35.3966 -7.52126
L35.894 -7.50639
L36.3914 -7.5002
L36.8887 -7.50269
L37.3857 -7.51386
L37.8823 -7.53371
L38.3783 -7.56223
L38.8736 -7.59941
L39.3681 -7.64524
L39.8615 -7.69971
L40.3537 -7.76281
L40.8446 -7.8345
L41.334 -7.91477
L41.8218 -8.0036
L42.3078 -8.10095
L42.7919 -8.20681
L43.2739 -8.32112
L43.7537 -8.44388
L44.2312 -8.57502
L44.7061 -8.71452
L45.1784 -8.86233
L45.6479 -9.0184
L46.1145 -9.1827
L46.578 -9.35516
L47.0382 -9.53574
L47.4951 -9.72438
L47.9485 -9.92103
L48.3982 -10.1256
L48.8442 -10.3381
L49.2863 -10.5584
L49.7243 -10.7864
L50.1581 -11.0221
L50.5876 -11.2655
L51.0127 -11.5163
L51.4332 -11.7746
L51.849 -12.0403
L52.26 -12.3133
L52.666 -12.5935
L53.067 -12.8809
L53.4627 -13.1753
L53.8531 -13.4766
L54.2381 -13.7848
L54.6176 -14.0998
L54.9913 -14.4214
L55.3593 -14.7496
L55.7214 -15.0843
L56.0775 -15.4253
L56.4274 -15.7727
L56.7712 -16.1261
L57.1086 -16.4857
L57.4395 -16.8512
L57.764 -17.2225
L58.0818 -17.5995
L58.3929 -17.9821
L58.6972 -18.3703
L58.9945 -18.7638
L59.2849 -19.1625
L59.5681 -19.5664
L59.8442 -19.9753
L60.113 -20.389
L60.3745 -20.8075
L60.6286 -21.2307
L60.8751 -21.6583
L61.1141 -22.0903
L61.3454 -22.5266
L61.569 -22.9669
L61.7848 -23.4113
L61.9928 -23.8594
L62.1928 -24.3113
L62.3849 -24.7667
L62.5689 -25.2255
L62.7448 -25.6876
L62.9126 -26.1529
L63.0722 -26.6212
L63.2235 -27.0923
L63.3666 -27.5661
L63.5013 -28.0425
L63.6276 -28.5213
L63.7455 -29.0024
L63.855 -29.4857
L63.956 -29.9709
L64.0484 -30.458
L64.1323 -30.9467
L64.2077 -31.437
L64.2745 -31.9286
L64.3326 -32.4216
L64.3821 -32.9156
L64.423 -33.4105
L64.4552 -33.9062
L64.4787 -34.4026
L64.4936 -34.8995
L64.4998 -35.3966
L64.4973 -35.894
L64.4861 -36.3914
L64.4663 -36.8887
L64.4378 -37.3857
L64.4006 -37.8823
z
" id="C0_1_b337766c6f"/>
     <path d="
M50.1824 -60.5893
L49.9651 -60.4651
L49.7413 -60.3435
L49.5112 -60.2244
L49.2752 -60.1076
L49.0337 -59.9928
L48.7869 -59.88
L48.5353 -59.7688
L48.279 -59.6592
L48.0185 -59.551
L47.7541 -59.4439
L47.4859 -59.3378
L47.2144 -59.2326
L46.9398 -59.1281
L46.6624 -59.0241
L46.3824 -58.9206
L46.1002 -58.8174
L45.8158 -58.7143
L45.5297 -58.6113
L45.2419 -58.5082
L44.9527 -58.4051
L44.6624 -58.3016
L44.371 -58.1979
L44.0789 -58.0938
L43.786 -57.9892
L43.4927 -57.8841
L43.1991 -57.7784
L42.9052 -57.6721
L42.6113 -57.5651
L42.3175 -57.4575
L42.0238 -57.349
L41.7305 -57.2398
L41.4375 -57.1298
L41.1451 -57.0189
L40.8532 -56.9072
L40.5619 -56.7946
L40.2714 -56.6812
L39.9817 -56.5668
L39.6928 -56.4515
L39.4049 -56.3353
L39.1179 -56.2181
L38.8319 -56.1001
L38.5469 -55.981
L38.2631 -55.8611
L37.9803 -55.7402
L37.6987 -55.6183
L37.4182 -55.4955
L37.1389 -55.3717
L36.8608 -55.247
L36.5838 -55.1213
L36.3081 -54.9947
L36.0336 -54.8671
L35.7604 -54.7385
L35.4883 -54.609
L35.2174 -54.4786
L34.9478 -54.3471
L34.6794 -54.2148
L34.4121 -54.0814
L34.1461 -53.9471
L33.8812 -53.8118
L33.6175 -53.6756
L33.355 -53.5384
L33.0935 -53.4002
L32.8332 -53.261
L32.574 -53.1208
L32.3159 -52.9797
L32.0588 -52.8375
L31.8028 -52.6943
L31.5478 -52.5502
L31.2938 -52.405
L31.0408 -52.2587
L30.7887 -52.1115
L30.5375 -51.9631
L30.2873 -51.8138
L30.038 -51.6633
L29.7895 -51.5118
L29.5418 -51.3592
L29.295 -51.2055
L29.049 -51.0506
L28.8037 -50.8946
L28.5591 -50.7375
L28.3153 -50.5793
L28.0722 -50.4198
L27.8297 -50.2592
L27.5879 -50.0973
L27.3467 -49.9343
L27.1062 -49.77
L26.8662 -49.6045
L26.6267 -49.4377
L26.3878 -49.2696
L26.1494 -49.1002
L25.9115 -48.9295
L25.6741 -48.7575
L25.4372 -48.5841
L25.2006 -48.4093
L24.9645 -48.2332
L24.7288 -48.0557
L24.4935 -47.8767
L24.2585 -47.6964
L24.0239 -47.5145
L23.7896 -47.3313
L23.5557 -47.1465
L23.322 -46.9603
L23.0887 -46.7726
L22.8556 -46.5833
L22.6228 -46.3925
L22.3903 -46.2002
L22.158 -46.0064
L21.926 -45.811
L21.6942 -45.6141
L21.4627 -45.4156
L21.2314 -45.2156
L21.0003 -45.0139
L20.7695 -44.8108
L20.5388 -44.6061
L20.3084 -44.3998
L20.0782 -44.192
L19.8483 -43.9827
L19.6185 -43.7719
L19.389 -43.5595
L19.1598 -43.3458
L18.9307 -43.1305
L18.702 -42.9139
L18.4734 -42.6959
L18.2452 -42.4766
L18.0172 -42.2559
L17.7895 -42.0341
L17.5621 -41.811
L17.335 -41.5869
L17.1082 -41.3616
L16.8818 -41.1354
L16.6556 -40.9083
L16.4299 -40.6805
L16.2045 -40.4518
L15.9795 -40.2226
L15.7548 -39.9929
L15.5306 -39.7629
L15.3068 -39.5326
L15.0834 -39.3022
L14.8604 -39.0719
L14.6379 -38.8418
L14.4158 -38.6121
L14.1941 -38.3829
L13.9729 -38.1546
L13.7522 -37.9272
L13.5319 -37.701
L13.312 -37.4762
L13.0926 -37.2531
L12.8737 -37.0319
L12.6551 -36.8128
L12.4369 -36.5962
L12.2192 -36.3823
L12.0018 -36.1714
L11.7848 -35.9639
L11.5681 -35.7599
L11.3517 -35.5599
L11.1356 -35.3641
L10.9197 -35.173
L10.7041 -34.9867
L10.4886 -34.8058
L10.2733 -34.6304
L10.0582 -34.461
L9.84317 -34.2978
L9.62825 -34.1413
L9.41339 -33.9918
L9.19859 -33.8495
L8.98384 -33.7149
L8.76912 -33.5882
L8.55445 -33.4697
L8.33982 -33.3597
L8.12525 -33.2586
L7.91077 -33.1665
L7.60343 -33.0837
L7.56542 -33.5741
L7.53607 -34.0701
L7.51539 -34.5666
L7.50338 -35.0636
L7.50006 -35.5609
L7.50542 -36.0583
L7.51946 -36.5557
L7.54217 -37.0529
L7.57355 -37.5498
L7.61359 -38.0462
L7.66228 -38.542
L7.7196 -39.037
L7.78553 -39.5311
L7.86006 -40.0241
L7.94316 -40.5159
L8.03481 -41.0064
L8.13497 -41.4953
L8.24362 -41.9825
L8.36073 -42.4679
L8.48626 -42.9513
L8.62017 -43.4326
L8.76241 -43.9117
L8.91296 -44.3883
L9.07175 -44.8624
L9.23875 -45.3338
L9.4139 -45.8023
L9.59715 -46.2679
L9.78844 -46.7303
L9.98772 -47.1895
L10.1949 -47.6452
L10.41 -48.0974
L10.6328 -48.5459
L10.8634 -48.9906
L11.1016 -49.4314
L11.3475 -49.868
L11.6008 -50.3004
L11.8616 -50.7285
L12.1297 -51.1521
L12.4051 -51.5711
L12.6876 -51.9853
L12.9773 -52.3946
L13.274 -52.799
L13.5776 -53.1982
L13.8881 -53.5922
L14.2052 -53.9809
L14.5291 -54.3641
L14.8594 -54.7416
L15.1962 -55.1135
L15.5393 -55.4795
L15.8887 -55.8397
L16.2442 -56.1937
L16.6057 -56.5416
L16.9731 -56.8833
L17.3463 -57.2186
L17.7252 -57.5474
L18.1097 -57.8697
L18.4996 -58.1853
L18.8949 -58.4941
L19.2953 -58.7961
L19.7009 -59.0912
L20.1114 -59.3792
L20.5267 -59.6601
L20.9468 -59.9338
L21.3714 -60.2002
L21.8005 -60.4592
L22.2339 -60.7108
L22.6716 -60.9549
L23.1132 -61.1913
L23.5588 -61.4201
L24.0082 -61.6411
L24.4613 -61.8544
L24.9178 -62.0597
L25.3778 -62.2571
L25.841 -62.4465
L26.3072 -62.6279
L26.7764 -62.8011
L27.2485 -62.9662
L27.7232 -63.1231
L28.2004 -63.2717
L28.68 -63.412
L29.1618 -63.5439
L29.6457 -63.6675
L30.1315 -63.7826
L30.6192 -63.8893
L31.1084 -63.9874
L31.5992 -64.0771
L32.0913 -64.1582
L32.5846 -64.2307
L33.0789 -64.2946
L33.5741 -64.3499
L34.0701 -64.3966
L34.5666 -64.4346
L35.0636 -64.4639
L35.5609 -64.4846
L36.0583 -64.4966
L36.5557 -64.4999
L37.0529 -64.4946
L37.5498 -64.4805
L38.0462 -64.4578
L38.542 -64.4264
L39.037 -64.3864
L39.5311 -64.3377
L40.0241 -64.2804
L40.5159 -64.2145
L41.0064 -64.1399
L41.4953 -64.0568
L41.9825 -63.9652
L42.4679 -63.865
L42.9513 -63.7564
L43.4326 -63.6393
L43.9117 -63.5137
L44.3883 -63.3798
L44.8624 -63.2376
L45.3338 -63.087
L45.8023 -62.9282
L46.2679 -62.7612
L46.7303 -62.5861
L47.1895 -62.4028
L47.6452 -62.2116
L48.0974 -62.0123
L48.5459 -61.8051
L48.9906 -61.59
L49.4314 -61.3672
z
" id="C0_2_08f3d9a12f"/>
    </defs>
    <g clip-path="url(#p1bffca34e9)">
     <use style="fill:#ff0000;stroke:#000000;stroke-width:2.0;" x="0.0" xlink:href="#C0_0_a811fe30f3" y="72.0"/>
    </g>
    <g clip-path="url(#p1bffca34e9)">
     <use style="fill:#ffffff;stroke:#000000;stroke-width:2.0;" x="0.0" xlink:href="#C0_1_b337766c6f" y="72.0"/>
    </g>
    <g clip-path="url(#p1bffca34e9)">
     <use style="fill:#ffffff;stroke:#000000;stroke-width:2.0;" x="0.0" xlink:href="#C0_2_08f3d9a12f" y="72.0"/>
    </g>
   </g>
  </g>
 </g>
 <defs>
  <clipPath id="p1bffca34e9">
   <rect height="72.0" width="72.0" x="0.0" y="0.0"/>
  </clipPath>
 </defs>
</svg>
