<?xml version="1.0" encoding="utf-8" standalone="no"?>
<!DOCTYPE svg PUBLIC "-//W3C//DTD SVG 1.1//EN"
  "http://www.w3.org/Graphics/SVG/1.1/DTD/svg11.dtd">
<!-- Created with matplotlib (http://matplotlib.org/) -->
<svg height="72pt" version="1.1" viewBox="0 0 72 72" width="72pt" xmlns="http://www.w3.org/2000/svg" xmlns:xlink="http://www.w3.org/1999/xlink">
 <defs>
  <style type="text/css">
*{stroke-linecap:butt;stroke-linejoin:round;}
  </style>
 </defs>
 <g id="figure_1">
  <g id="patch_1">
   <path d="
M0 72
L72 72
L72 0
L0 0
z
" style="fill:none;"/>
  </g>
  <g id="axes_1">
   <g id="PatchCollection_1">
    <defs>
     <path d="
M36 -7.5
C43.5583 -7.5 50.808 -10.5029 56.1525 -15.8475
C61.4971 -21.192 64.5 -28.4417 64.5 -36
C64.5 -43.5583 61.4971 -50.808 56.1525 -56.1525
C50.808 -61.4971 43.5583 -64.5 36 -64.5
C28.4417 -64.5 21.192 -61.4971 15.8475 -56.1525
C10.5029 -50.808 7.5 -43.5583 7.5 -36
C7.5 -28.4417 10.5029 -21.192 15.8475 -15.8475
C21.192 -10.5029 28.4417 -7.5 36 -7.5
z
" id="C0_0_a811fe30f3"/>
     <path d="
M8.24524 -41.7177
L8.41709 -41.6322
L8.58955 -41.5468
L8.76263 -41.4616
L8.93635 -41.3765
L9.11074 -41.2916
L9.28583 -41.2067
L9.46163 -41.122
L9.63818 -41.0374
L9.81551 -40.9528
L9.99364 -40.8683
L10.1726 -40.7838
L10.3524 -40.6993
L10.5332 -40.6148
L10.7149 -40.5303
L11.0811 -40.4457
L11.2658 -40.3611
L11.4516 -40.2764
L11.6385 -40.1916
L11.8265 -40.1067
L12.0157 -40.0217
L12.2062 -39.9365
L12.398 -39.8512
L12.591 -39.7656
L12.7855 -39.6799
L12.9813 -39.5939
L13.1786 -39.5076
L13.3774 -39.4211
L13.5778 -39.3343
L13.7798 -39.2471
L13.9834 -39.1597
L14.1887 -39.0718
L14.3957 -38.9836
L14.6045 -38.895
L14.8152 -38.8059
L15.0278 -38.7164
L15.2423 -38.6264
L15.4589 -38.536
L15.6774 -38.445
L15.8981 -38.3535
L16.121 -38.2614
L16.3461 -38.1687
L16.5734 -38.0754
L16.8031 -37.9815
L17.0352 -37.8868
L17.2696 -37.7916
L17.5066 -37.6955
L17.7461 -37.5988
L17.9882 -37.5013
L18.2329 -37.403
L18.4804 -37.3038
L18.7305 -37.2038
L18.9835 -37.103
L19.2392 -37.0012
L19.4979 -36.8985
L19.7594 -36.7948
L20.0239 -36.6901
L20.2914 -36.5844
L20.5619 -36.4776
L20.8355 -36.3698
L21.1121 -36.2608
L21.3918 -36.1506
L21.6746 -36.0393
L21.9604 -35.9267
L22.2494 -35.8129
L22.5415 -35.6978
L22.8366 -35.5813
L23.1348 -35.4634
L23.436 -35.3441
L23.7402 -35.2233
L24.0473 -35.1009
L24.3572 -34.977
L24.6699 -34.8515
L24.9852 -34.7242
L25.303 -34.5952
L25.6233 -34.4644
L25.9458 -34.3317
L26.2703 -34.197
L26.5968 -34.0602
L26.9249 -33.9213
L27.2544 -33.7801
L27.5851 -33.6366
L27.9166 -33.4906
L28.2486 -33.3419
L28.5807 -33.1905
L28.9125 -33.0362
L29.2437 -32.8788
L29.5737 -32.7182
L29.9019 -32.554
L30.228 -32.3862
L30.5511 -32.2144
L30.8708 -32.0384
L31.1863 -31.858
L31.497 -31.6728
L31.8021 -31.4825
L32.1007 -31.2869
L32.3923 -31.0855
L32.6759 -30.878
L32.9508 -30.6642
L33.2163 -30.4437
L33.4715 -30.2161
L33.7158 -29.9813
L33.9486 -29.7389
L34.1694 -29.4889
L34.3778 -29.231
L34.5733 -28.9652
L34.7557 -28.6915
L34.9251 -28.4101
L35.0813 -28.121
L35.2246 -27.8247
L35.3551 -27.5213
L35.4731 -27.2114
L35.5791 -26.8953
L35.6735 -26.5736
L35.7568 -26.2469
L35.8296 -25.9156
L35.8923 -25.5804
L35.9457 -25.2419
L35.9901 -24.9006
L36.0262 -24.5571
L36.0545 -24.212
L36.0755 -23.8657
L36.0897 -23.5188
L36.0975 -23.1718
L36.0995 -22.825
L36.0959 -22.4789
L36.0873 -22.1339
L36.0739 -21.7902
L36.0561 -21.4483
L36.0341 -21.1085
L36.0084 -20.7708
L35.9791 -20.4358
L35.9465 -20.1034
L35.9109 -19.7739
L35.8723 -19.4475
L35.8311 -19.1244
L35.7874 -18.8045
L35.7414 -18.4882
L35.6932 -18.1753
L35.643 -17.8662
L35.5909 -17.5606
L35.5369 -17.2589
L35.4814 -16.9609
L35.4242 -16.6667
L35.3656 -16.3763
L35.3056 -16.0898
L35.2443 -15.807
L35.1818 -15.5281
L35.1181 -15.253
L35.0533 -14.9817
L34.9874 -14.7142
L34.9206 -14.4503
L34.8528 -14.1902
L34.784 -13.9337
L34.7144 -13.6808
L34.644 -13.4315
L34.5727 -13.1857
L34.5007 -12.9433
L34.4279 -12.7044
L34.3543 -12.4688
L34.2801 -12.2365
L34.2051 -12.0075
L34.1294 -11.7816
L34.053 -11.5589
L33.976 -11.3393
L33.8982 -11.1227
L33.8198 -10.909
L33.7407 -10.6982
L33.661 -10.4903
L33.5805 -10.2852
L33.4994 -10.0828
L33.4176 -9.88304
L33.3351 -9.68593
L33.2518 -9.49139
L33.1679 -9.29936
L33.0832 -9.1098
L32.9977 -8.92265
L32.9115 -8.73786
L32.8245 -8.55539
L32.7367 -8.37518
L32.648 -8.1972
L32.5585 -8.02139
L32.0486 -7.84772
L31.5566 -7.77526
L31.0659 -7.84852
L30.5768 -7.93035
L30.0893 -8.02074
L29.6037 -8.11965
L29.1199 -8.22705
L28.6383 -8.34291
L28.1589 -8.4672
L27.6819 -8.59987
L27.2074 -8.74089
L26.7356 -8.89021
L26.2667 -9.04779
L25.8007 -9.21358
L25.3378 -9.38753
L24.8781 -9.56959
L24.4218 -9.7597
L23.9691 -9.9578
L23.52 -10.1638
L23.0748 -10.3777
L22.6334 -10.5994
L22.1962 -10.8289
L21.7631 -11.066
L21.3344 -11.3107
L20.9102 -11.5629
L20.4905 -11.8226
L20.0756 -12.0896
L19.6655 -12.364
L19.2604 -12.6455
L18.8604 -12.9341
L18.4656 -13.2298
L18.0761 -13.5324
L17.6922 -13.8418
L17.3138 -14.158
L16.941 -14.4808
L16.5741 -14.8102
L16.2131 -15.1461
L15.8582 -15.4883
L15.5093 -15.8367
L15.1668 -16.1913
L14.8305 -16.552
L14.5007 -16.9185
L14.1775 -17.2909
L13.8609 -17.6689
L13.551 -18.0526
L13.248 -18.4417
L12.9519 -18.8362
L12.6629 -19.2359
L12.3809 -19.6407
L12.1061 -20.0504
L11.8387 -20.4651
L11.5785 -20.8845
L11.3259 -21.3084
L11.0807 -21.7369
L10.8431 -22.1697
L10.6132 -22.6067
L10.391 -23.0478
L10.1766 -23.4928
L9.97012 -23.9417
L9.77154 -24.3942
L9.58094 -24.8502
L9.39839 -25.3097
L9.22395 -25.7724
L9.05766 -26.2382
L8.89957 -26.707
L8.74975 -27.1786
L8.60822 -27.6529
L8.47504 -28.1298
L8.35024 -28.609
L8.23387 -29.0905
L8.12595 -29.5741
L8.02652 -30.0597
L7.93561 -30.5471
L7.85326 -31.0361
L7.77947 -31.5267
L7.71429 -32.0186
L7.65771 -32.5117
L7.60978 -33.0059
L7.57049 -33.501
L7.53986 -33.9968
L7.51789 -34.4933
L7.50461 -34.9902
L7.5 -35.4875
L7.50408 -35.9848
L7.51684 -36.4822
L7.53827 -36.9795
L7.56837 -37.4764
L7.60713 -37.9729
L7.65455 -38.4688
L7.71059 -38.964
L7.77526 -39.4582
L7.84852 -39.9514
L7.93035 -40.4434
z
" id="C0_1_da4fda373c"/>
     <path d="
M39.5212 -64.238
L39.5667 -64.0496
L39.6117 -63.8605
L39.6559 -63.6707
L39.6996 -63.4802
L39.7427 -63.289
L39.7851 -63.097
L39.827 -62.9042
L39.8684 -62.7106
L39.9092 -62.5162
L39.9494 -62.3208
L39.9892 -62.1245
L40.0285 -61.9272
L40.0672 -61.729
L40.1055 -61.5296
L40.1434 -61.3292
L40.1807 -61.1276
L40.2177 -60.9249
L40.2542 -60.721
L40.2903 -60.5158
L40.326 -60.3092
L40.3613 -60.1014
L40.3963 -59.8921
L40.4308 -59.6813
L40.465 -59.4691
L40.4989 -59.2553
L40.5324 -59.0399
L40.5655 -58.8229
L40.5983 -58.6042
L40.6308 -58.3837
L40.663 -58.1613
L40.6949 -57.9372
L40.7265 -57.711
L40.7578 -57.483
L40.7888 -57.2528
L40.8196 -57.0206
L40.8501 -56.7863
L40.8803 -56.5497
L40.9103 -56.3108
L40.94 -56.0697
L40.9695 -55.8261
L40.9987 -55.5801
L41.0277 -55.3316
L41.0566 -55.0805
L41.0852 -54.8269
L41.1136 -54.5705
L41.1418 -54.3114
L41.1698 -54.0495
L41.1977 -53.7847
L41.2254 -53.517
L41.253 -53.2464
L41.2804 -52.9727
L41.3077 -52.696
L41.3348 -52.4162
L41.3619 -52.1332
L41.3889 -51.847
L41.4158 -51.5576
L41.4427 -51.2649
L41.4696 -50.9688
L41.4965 -50.6694
L41.5234 -50.3667
L41.5503 -50.0606
L41.5774 -49.751
L41.6046 -49.4381
L41.6319 -49.1217
L41.6595 -48.802
L41.6873 -48.4789
L41.7154 -48.1524
L41.7439 -47.8226
L41.7729 -47.4895
L41.8024 -47.1532
L41.8325 -46.8138
L41.8633 -46.4714
L41.8949 -46.126
L41.9275 -45.7778
L41.961 -45.4268
L41.9958 -45.0734
L42.032 -44.7175
L42.0696 -44.3595
L42.109 -43.9996
L42.1503 -43.6379
L42.1938 -43.2748
L42.2397 -42.9106
L42.2883 -42.5455
L42.3399 -42.18
L42.3949 -41.8144
L42.4536 -41.4491
L42.5164 -41.0846
L42.5838 -40.7213
L42.6562 -40.3598
L42.7341 -40.0006
L42.818 -39.6443
L42.9084 -39.2915
L43.006 -38.9427
L43.1112 -38.5986
L43.2246 -38.2598
L43.3469 -37.9271
L43.4785 -37.6008
L43.6199 -37.2818
L43.7715 -36.9705
L43.9338 -36.6675
L44.1071 -36.3731
L44.2915 -36.0879
L44.4871 -35.8121
L44.694 -35.5459
L44.9119 -35.2895
L45.1407 -35.0429
L45.38 -34.8062
L45.6293 -34.5792
L45.8882 -34.3618
L46.156 -34.1537
L46.4321 -33.9548
L46.7158 -33.7646
L47.0064 -33.5829
L47.3031 -33.4093
L47.6053 -33.2435
L47.9122 -33.0852
L48.2232 -32.934
L48.5375 -32.7895
L48.8547 -32.6515
L49.174 -32.5196
L49.4949 -32.3935
L49.817 -32.273
L50.1396 -32.1578
L50.4625 -32.0477
L50.7851 -31.9424
L51.1072 -31.8416
L51.4282 -31.7453
L51.7481 -31.6532
L52.0664 -31.5651
L52.3829 -31.4808
L52.6975 -31.4003
L53.0098 -31.3233
L53.3198 -31.2498
L53.6272 -31.1795
L53.9319 -31.1124
L54.2339 -31.0484
L54.533 -30.9873
L54.8291 -30.929
L55.1222 -30.8735
L55.4121 -30.8207
L55.699 -30.7704
L55.9826 -30.7226
L56.2631 -30.6773
L56.5403 -30.6342
L56.8143 -30.5934
L57.0851 -30.5549
L57.3527 -30.5184
L57.6171 -30.4841
L57.8783 -30.4517
L58.1363 -30.4214
L58.3912 -30.3929
L58.6431 -30.3664
L58.8918 -30.3416
L59.1376 -30.3187
L59.3804 -30.2975
L59.6202 -30.2779
L59.8572 -30.2601
L60.0913 -30.2439
L60.3227 -30.2293
L60.5513 -30.2163
L60.7772 -30.2048
L61.0005 -30.1948
L61.2213 -30.1864
L61.4395 -30.1794
L61.6553 -30.1739
L61.8686 -30.1698
L62.0796 -30.1672
L62.2883 -30.1659
L62.4948 -30.1661
L62.699 -30.1676
L62.9012 -30.1706
L63.1012 -30.1749
L63.2992 -30.1806
L63.4953 -30.1876
L63.6894 -30.196
L64.0008 -30.2058
L64.0892 -30.6891
L64.1691 -31.1785
L64.2404 -31.6695
L64.303 -32.1618
L64.3571 -32.6552
L64.4025 -33.1497
L64.4393 -33.645
L64.4674 -34.1411
L64.4869 -34.6377
L64.4976 -35.1347
L64.4997 -35.632
L64.4931 -36.1294
L64.4778 -36.6268
L64.4539 -37.124
L64.4213 -37.6208
L64.38 -38.1172
L64.3301 -38.6128
L64.2715 -39.1078
L64.2043 -39.6017
L64.1286 -40.0946
L64.0443 -40.5862
L63.9514 -41.0764
L63.85 -41.5651
L63.7401 -42.052
L63.6218 -42.5372
L63.4951 -43.0203
L63.36 -43.5013
L63.2166 -43.98
L63.0648 -44.4563
L62.9049 -44.93
L62.7367 -45.401
L62.5604 -45.8691
L62.376 -46.3342
L62.1835 -46.7962
L61.9831 -47.2549
L61.7748 -47.7101
L61.5586 -48.1618
L61.3347 -48.6098
L61.103 -49.0539
L60.8637 -49.4941
L60.6168 -49.9301
L60.3624 -50.3619
L60.1005 -50.7894
L59.8314 -51.2123
L59.555 -51.6306
L59.2714 -52.0441
L58.9807 -52.4528
L58.683 -52.8564
L58.3784 -53.2549
L58.067 -53.6482
L57.7488 -54.036
L57.4241 -54.4184
L57.0928 -54.7952
L56.7551 -55.1662
L56.4111 -55.5314
L56.0608 -55.8907
L55.7045 -56.2439
L55.3421 -56.5909
L54.9738 -56.9316
L54.5998 -57.266
L54.2201 -57.5939
L53.8349 -57.9152
L53.4442 -58.2299
L53.0482 -58.5378
L52.647 -58.8388
L52.2407 -59.1328
L51.8295 -59.4198
L51.4135 -59.6997
L50.9928 -59.9724
L50.5675 -60.2377
L50.1378 -60.4957
L49.7037 -60.7462
L49.2655 -60.9892
L48.8233 -61.2245
L48.3771 -61.4522
L47.9272 -61.6721
L47.4736 -61.8842
L47.0166 -62.0884
L46.5562 -62.2847
L46.0925 -62.473
L45.6259 -62.6532
L45.1562 -62.8252
L44.6838 -62.9891
L44.2087 -63.1448
L43.7312 -63.2922
L43.2512 -63.4314
L42.7691 -63.5621
L42.2849 -63.6845
L41.7988 -63.7984
L41.3109 -63.9038
L40.8215 -64.0008
L40.3305 -64.0892
z
" id="C0_2_108a62e3ed"/>
    </defs>
    <g clip-path="url(#p1bffca34e9)">
     <use style="fill:#ffffff;stroke:#000000;stroke-width:2.0;" x="0.0" xlink:href="#C0_0_a811fe30f3" y="72.0"/>
    </g>
    <g clip-path="url(#p1bffca34e9)">
     <use style="fill:#ff0000;stroke:#000000;stroke-width:2.0;" x="0.0" xlink:href="#C0_1_da4fda373c" y="72.0"/>
    </g>
    <g clip-path="url(#p1bffca34e9)">
     <use style="fill:#ff0000;stroke:#000000;stroke-width:2.0;" x="0.0" xlink:href="#C0_2_108a62e3ed" y="72.0"/>
    </g>
   </g>
  </g>
 </g>
 <defs>
  <clipPath id="p1bffca34e9">
   <rect height="72.0" width="72.0" x="0.0" y="0.0"/>
  </clipPath>
 </defs>
</svg>
