<?xml version="1.0" encoding="utf-8" standalone="no"?>
<!DOCTYPE svg PUBLIC "-//W3C//DTD SVG 1.1//EN"
  "http://www.w3.org/Graphics/SVG/1.1/DTD/svg11.dtd">
<!-- Created with matplotlib (http://matplotlib.org/) -->
<svg height="72pt" version="1.1" viewBox="0 0 72 72" width="72pt" xmlns="http://www.w3.org/2000/svg" xmlns:xlink="http://www.w3.org/1999/xlink">
 <defs>
  <style type="text/css">
*{stroke-linecap:butt;stroke-linejoin:round;}
  </style>
 </defs>
 <g id="figure_1">
  <g id="patch_1">
   <path d="
M0 72
L72 72
L72 0
L0 0
z
" style="fill:none;"/>
  </g>
  <g id="axes_1">
   <g id="PatchCollection_1">
    <defs>
     <path d="
M36 -7.5
C43.5583 -7.5 50.808 -10.5029 56.1525 -15.8475
C61.4971 -21.192 64.5 -28.4417 64.5 -36
C64.5 -43.5583 61.4971 -50.808 56.1525 -56.1525
C50.808 -61.4971 43.5583 -64.5 36 -64.5
C28.4417 -64.5 21.192 -61.4971 15.8475 -56.1525
C10.5029 -50.808 7.5 -43.5583 7.5 -36
C7.5 -28.4417 10.5029 -21.192 15.8475 -15.8475
C21.192 -10.5029 28.4417 -7.5 36 -7.5
z
" id="C0_0_a811fe30f3"/>
     <path d="
M38.3928 -46.5389
L38.1333 -46.4904
L37.874 -46.4401
L37.6147 -46.3882
L37.3556 -46.3345
L37.0964 -46.2791
L36.8373 -46.222
L36.5781 -46.1631
L36.3188 -46.1025
L36.0594 -46.04
L35.7998 -45.9758
L35.5401 -45.9097
L35.28 -45.8418
L35.0197 -45.772
L34.7591 -45.7004
L34.4981 -45.6268
L34.2367 -45.5512
L33.9749 -45.4736
L33.7127 -45.3941
L33.4499 -45.3124
L33.1867 -45.2287
L32.9229 -45.1429
L32.6585 -45.0549
L32.3936 -44.9646
L32.128 -44.8721
L31.8618 -44.7774
L31.595 -44.6802
L31.3274 -44.5807
L31.0592 -44.4787
L30.7903 -44.3742
L30.5207 -44.2672
L30.2503 -44.1576
L29.9793 -44.0452
L29.7075 -43.9302
L29.435 -43.8123
L29.1618 -43.6917
L28.8879 -43.568
L28.6133 -43.4414
L28.338 -43.3118
L28.0622 -43.179
L27.7857 -43.043
L27.5086 -42.9037
L27.2311 -42.7611
L26.953 -42.615
L26.6746 -42.4655
L26.3957 -42.3123
L26.1166 -42.1555
L25.8374 -41.9949
L25.5579 -41.8305
L25.2785 -41.6622
L24.9992 -41.4898
L24.7201 -41.3134
L24.4414 -41.1328
L24.1631 -40.9479
L23.8855 -40.7586
L23.6087 -40.5649
L23.3329 -40.3667
L23.0583 -40.1639
L22.7851 -39.9563
L22.5135 -39.7439
L22.2439 -39.5267
L21.9763 -39.3045
L21.7113 -39.0773
L21.4489 -38.8449
L21.1896 -38.6073
L20.9337 -38.3645
L20.6816 -38.1163
L20.4337 -37.8627
L20.1903 -37.6037
L19.9519 -37.3391
L19.719 -37.069
L19.492 -36.7933
L19.2714 -36.512
L19.0579 -36.225
L18.8518 -35.9323
L18.6538 -35.634
L18.4644 -35.3301
L18.2843 -35.0206
L18.114 -34.7056
L17.9542 -34.3851
L17.8054 -34.0593
L17.6683 -33.7282
L17.5434 -33.3921
L17.4314 -33.0511
L17.3327 -32.7055
L17.2479 -32.3554
L17.1774 -32.0013
L17.1216 -31.6433
L17.0809 -31.2818
L17.0556 -30.9173
L17.0458 -30.55
L17.0518 -30.1806
L17.0734 -29.8094
L17.1108 -29.4369
L17.1638 -29.0637
L17.2322 -28.6902
L17.3158 -28.3169
L17.4143 -27.9443
L17.5273 -27.5731
L17.6544 -27.2036
L17.795 -26.8363
L17.9488 -26.4718
L18.1152 -26.1104
L18.2936 -25.7526
L18.4835 -25.3987
L18.6843 -25.0492
L18.8954 -24.7044
L19.1163 -24.3645
L19.3464 -24.0299
L19.5852 -23.7008
L19.832 -23.3775
L20.0865 -23.0601
L20.3479 -22.7489
L20.616 -22.4439
L20.8901 -22.1453
L21.1699 -21.8532
L21.4549 -21.5676
L21.7446 -21.2887
L22.0387 -21.0165
L22.3368 -20.751
L22.6385 -20.4922
L22.9435 -20.2402
L23.2514 -19.9948
L23.562 -19.7562
L23.875 -19.5242
L24.1901 -19.2988
L24.507 -19.0799
L24.8255 -18.8675
L25.1454 -18.6616
L25.4665 -18.4619
L25.7886 -18.2686
L26.1114 -18.0814
L26.435 -17.9003
L26.7589 -17.7252
L27.0833 -17.556
L27.4078 -17.3926
L27.7325 -17.235
L28.0571 -17.0829
L28.3816 -16.9364
L28.7059 -16.7954
L29.0299 -16.6596
L29.3535 -16.5291
L29.6767 -16.4038
L29.9994 -16.2835
L30.3215 -16.1682
L30.6431 -16.0577
L30.9641 -15.952
L31.2844 -15.8511
L31.604 -15.7547
L31.9228 -15.6628
L32.241 -15.5755
L32.5584 -15.4925
L32.875 -15.4138
L33.1909 -15.3393
L33.5061 -15.269
L33.8204 -15.2027
L34.134 -15.1406
L34.4469 -15.0823
L34.759 -15.028
L35.0704 -14.9776
L35.381 -14.931
L35.691 -14.8881
L36.0003 -14.8489
L36.3089 -14.8134
L36.6169 -14.7816
L36.9243 -14.7533
L37.231 -14.7286
L37.5373 -14.7074
L37.8429 -14.6897
L38.1481 -14.6755
L38.4528 -14.6647
L38.757 -14.6574
L39.0609 -14.6535
L39.3643 -14.653
L39.6673 -14.6558
L39.9701 -14.6621
L40.2725 -14.6717
L40.5747 -14.6848
L40.8767 -14.7012
L41.1784 -14.7209
L41.48 -14.7441
L41.7815 -14.7707
L42.0829 -14.8006
L42.3841 -14.8341
L42.6854 -14.8709
L42.9866 -14.9112
L43.2879 -14.955
L43.5892 -15.0024
L43.8906 -15.0533
L44.1921 -15.1078
L44.4937 -15.1659
L44.7955 -15.2277
L45.0975 -15.2932
L45.3996 -15.3624
L45.702 -15.4355
L46.0046 -15.5124
L46.3075 -15.5932
L46.6107 -15.678
L46.9142 -15.7669
L47.2179 -15.8599
L47.522 -15.957
L47.8264 -16.0584
L48.1311 -16.1641
L48.4361 -16.2742
L48.7415 -16.3889
L49.0471 -16.5081
L49.3531 -16.6319
L49.6593 -16.7605
L49.9659 -16.894
L50.2726 -17.0324
L50.5796 -17.1759
L50.8868 -17.3245
L51.1941 -17.4785
L51.5015 -17.6377
L51.809 -17.8025
L52.1164 -17.9729
L52.4239 -18.149
L52.7311 -18.3309
L53.0382 -18.5189
L53.345 -18.7129
L53.6513 -18.9131
L53.9572 -19.1196
L54.2625 -19.3326
L54.567 -19.5522
L54.8707 -19.7786
L55.1734 -20.0117
L55.4749 -20.2518
L55.7751 -20.499
L56.0737 -20.7534
L56.3706 -21.0151
L56.6657 -21.2842
L56.9586 -21.5608
L57.2491 -21.845
L57.537 -22.1369
L57.822 -22.4366
L58.1038 -22.7442
L58.3822 -23.0596
L58.6567 -23.383
L58.9272 -23.7143
L59.1931 -24.0536
L59.4543 -24.4009
L59.7102 -24.7562
L59.9605 -25.1193
L60.2048 -25.4902
L60.4426 -25.8688
L60.6734 -26.255
L60.8969 -26.6486
L61.1125 -27.0495
L61.3198 -27.4573
L61.5182 -27.8718
L61.7072 -28.2927
L61.8864 -28.7196
L62.0551 -29.1522
L62.2129 -29.59
L62.3592 -30.0325
L62.4936 -30.4791
L62.6154 -30.9294
L62.7243 -31.3826
L62.8198 -31.838
L62.9013 -32.2951
L62.9686 -32.753
L63.0212 -33.2109
L63.0587 -33.668
L63.081 -34.1235
L63.0877 -34.5766
L63.0788 -35.0263
L63.0541 -35.4719
L63.0136 -35.9126
L62.9573 -36.3474
L62.8854 -36.7757
L62.7981 -37.1968
L62.6957 -37.61
L62.5784 -38.0146
L62.4467 -38.4102
L62.3011 -38.7963
L62.142 -39.1725
L61.97 -39.5384
L61.7858 -39.8939
L61.5898 -40.2386
L61.3828 -40.5726
L61.1654 -40.8958
L60.9382 -41.208
L60.7019 -41.5095
L60.4571 -41.8001
L60.2044 -42.0802
L59.9446 -42.3498
L59.678 -42.6091
L59.4054 -42.8582
L59.1272 -43.0975
L58.844 -43.3271
L58.5563 -43.5473
L58.2645 -43.7583
L57.9691 -43.9603
L57.6705 -44.1537
L57.3692 -44.3387
L57.0653 -44.5154
L56.7594 -44.6843
L56.4518 -44.8454
L56.1426 -44.9991
L55.8323 -45.1457
L55.5211 -45.2853
L55.2092 -45.4181
L54.8969 -45.5445
L54.5842 -45.6646
L54.2716 -45.7786
L53.959 -45.8867
L53.6467 -45.9892
L53.3349 -46.0862
L53.0235 -46.1779
L52.7129 -46.2646
L52.403 -46.3463
L52.094 -46.4232
L51.786 -46.4956
L51.4789 -46.5635
L51.173 -46.6272
L50.8683 -46.6867
L50.5648 -46.7422
L50.2625 -46.7938
L49.9615 -46.8417
L49.6619 -46.8859
L49.3636 -46.9267
L49.0667 -46.9641
L48.7711 -46.9982
L48.477 -47.0291
L48.1842 -47.057
L47.8929 -47.0818
L47.6029 -47.1038
L47.3144 -47.123
L47.0272 -47.1394
L46.7413 -47.1532
L46.4568 -47.1644
L46.1736 -47.1731
L45.8918 -47.1793
L45.6112 -47.1832
L45.3318 -47.1848
L45.0537 -47.1841
L44.7768 -47.1812
L44.501 -47.1761
L44.2264 -47.1689
L43.9529 -47.1597
L43.6804 -47.1484
L43.4089 -47.1351
L43.1385 -47.1199
L42.8689 -47.1028
L42.6003 -47.0838
L42.3326 -47.0629
L42.0657 -47.0401
L41.7996 -47.0156
L41.5342 -46.9893
L41.2695 -46.9612
L41.0055 -46.9314
L40.7422 -46.8998
L40.4794 -46.8665
L40.2171 -46.8315
L39.9554 -46.7948
L39.694 -46.7563
L39.4331 -46.7162
L39.1726 -46.6744
L38.9124 -46.631
z
" id="C0_1_0b4bc5e2dd"/>
    </defs>
    <g clip-path="url(#p1bffca34e9)">
     <use style="fill:#ff0000;stroke:#000000;stroke-width:2.0;" x="0.0" xlink:href="#C0_0_a811fe30f3" y="72.0"/>
    </g>
    <g clip-path="url(#p1bffca34e9)">
     <use style="fill:#ffffff;stroke:#000000;stroke-width:2.0;" x="0.0" xlink:href="#C0_1_0b4bc5e2dd" y="72.0"/>
    </g>
   </g>
  </g>
 </g>
 <defs>
  <clipPath id="p1bffca34e9">
   <rect height="72.0" width="72.0" x="0.0" y="0.0"/>
  </clipPath>
 </defs>
</svg>
