<?xml version="1.0" encoding="utf-8" standalone="no"?>
<!DOCTYPE svg PUBLIC "-//W3C//DTD SVG 1.1//EN"
  "http://www.w3.org/Graphics/SVG/1.1/DTD/svg11.dtd">
<!-- Created with matplotlib (http://matplotlib.org/) -->
<svg height="72pt" version="1.1" viewBox="0 0 72 72" width="72pt" xmlns="http://www.w3.org/2000/svg" xmlns:xlink="http://www.w3.org/1999/xlink">
 <defs>
  <style type="text/css">
*{stroke-linecap:butt;stroke-linejoin:round;}
  </style>
 </defs>
 <g id="figure_1">
  <g id="patch_1">
   <path d="
M0 72
L72 72
L72 0
L0 0
z
" style="fill:none;"/>
  </g>
  <g id="axes_1">
   <g id="PatchCollection_1">
    <defs>
     <path d="
M36 -7.5
C43.5583 -7.5 50.808 -10.5029 56.1525 -15.8475
C61.4971 -21.192 64.5 -28.4417 64.5 -36
C64.5 -43.5583 61.4971 -50.808 56.1525 -56.1525
C50.808 -61.4971 43.5583 -64.5 36 -64.5
C28.4417 -64.5 21.192 -61.4971 15.8475 -56.1525
C10.5029 -50.808 7.5 -43.5583 7.5 -36
C7.5 -28.4417 10.5029 -21.192 15.8475 -15.8475
C21.192 -10.5029 28.4417 -7.5 36 -7.5
z
" id="C0_0_a811fe30f3"/>
     <path d="
M14.239 -54.3164
L14.322 -54.0155
L14.3727 -53.6669
L14.402 -53.2829
L14.4183 -52.8733
L14.4279 -52.4456
L14.435 -52.0051
L14.4428 -51.5559
L14.4534 -51.1009
L14.4682 -50.6425
L14.4882 -50.1822
L14.514 -49.7214
L14.5459 -49.2613
L14.5842 -48.8027
L14.629 -48.3463
L14.6803 -47.8927
L14.7379 -47.4424
L14.8018 -46.9959
L14.8718 -46.5534
L14.9477 -46.1153
L15.0292 -45.6819
L15.1162 -45.2534
L15.2084 -44.8299
L15.3056 -44.4116
L15.4076 -43.9986
L15.514 -43.591
L15.6247 -43.1889
L15.7394 -42.7923
L15.8579 -42.4013
L15.98 -42.0159
L16.1055 -41.6361
L16.2341 -41.2618
L16.3657 -40.8931
L16.5001 -40.5299
L16.637 -40.1722
L16.7764 -39.8199
L16.9181 -39.473
L17.0618 -39.1314
L17.2075 -38.795
L17.3551 -38.4638
L17.5044 -38.1376
L17.6552 -37.8164
L17.8076 -37.5001
L17.9613 -37.1886
L18.1162 -36.8818
L18.2724 -36.5797
L18.4297 -36.282
L18.588 -35.9887
L18.7473 -35.6998
L18.9075 -35.415
L19.0685 -35.1344
L19.2304 -34.8578
L19.3929 -34.5851
L19.5562 -34.3162
L19.7202 -34.051
L19.8848 -33.7894
L20.05 -33.5314
L20.2157 -33.2767
L20.3821 -33.0254
L20.549 -32.7774
L20.7165 -32.5324
L20.8844 -32.2906
L21.0529 -32.0517
L21.222 -31.8156
L21.3915 -31.5824
L21.5616 -31.3518
L21.7322 -31.1239
L21.9033 -30.8985
L22.075 -30.6756
L22.2472 -30.4551
L22.42 -30.2368
L22.5934 -30.0208
L22.7674 -29.807
L22.942 -29.5953
L23.1173 -29.3855
L23.2932 -29.1778
L23.4699 -28.9719
L23.6473 -28.7678
L23.8254 -28.5655
L24.0043 -28.3649
L24.184 -28.1659
L24.3646 -27.9685
L24.5461 -27.7726
L24.7285 -27.5782
L24.9118 -27.3852
L25.0962 -27.1935
L25.2816 -27.0032
L25.6556 -26.814
L25.8444 -26.6262
L26.0344 -26.4394
L26.2257 -26.2538
L26.4183 -26.0692
L26.6123 -25.8857
L26.8077 -25.7031
L27.0045 -25.5215
L27.2029 -25.3408
L27.4029 -25.161
L27.6045 -24.982
L27.8079 -24.8038
L28.013 -24.6263
L28.2199 -24.4496
L28.4288 -24.2736
L28.6396 -24.0982
L28.8524 -23.9235
L29.0674 -23.7494
L29.2845 -23.576
L29.5038 -23.4031
L29.7255 -23.2307
L29.9495 -23.0589
L30.1761 -22.8876
L30.4052 -22.7169
L30.6369 -22.5466
L30.8713 -22.3768
L31.1085 -22.2075
L31.3486 -22.0387
L31.5917 -21.8703
L31.8378 -21.7024
L32.0871 -21.535
L32.3396 -21.3681
L32.5955 -21.2017
L32.8547 -21.0358
L33.1175 -20.8704
L33.3839 -20.7056
L33.654 -20.5414
L33.928 -20.3777
L34.2058 -20.2147
L34.4876 -20.0523
L34.7736 -19.8907
L35.0637 -19.7298
L35.3582 -19.5697
L35.657 -19.4105
L35.9604 -19.2522
L36.2683 -19.095
L36.581 -18.9388
L36.8984 -18.7837
L37.2207 -18.6299
L37.5479 -18.4775
L37.8802 -18.3264
L38.2176 -18.177
L38.5602 -18.0292
L38.9081 -17.8832
L39.2613 -17.7391
L39.6199 -17.5971
L39.9839 -17.4574
L40.3534 -17.32
L40.7284 -17.1852
L41.1089 -17.053
L41.495 -16.9239
L41.8865 -16.7978
L42.2836 -16.675
L42.6861 -16.5557
L43.094 -16.4401
L43.5072 -16.3285
L43.9257 -16.221
L44.3493 -16.1179
L44.7778 -16.0194
L45.2111 -15.9257
L45.6489 -15.8371
L46.091 -15.7537
L46.5371 -15.6757
L46.9869 -15.6034
L47.4398 -15.5369
L47.8955 -15.4762
L48.3533 -15.4215
L48.8125 -15.3727
L49.2722 -15.3298
L49.7315 -15.2925
L50.1889 -15.2605
L50.6428 -15.2332
L51.091 -15.2096
L51.5306 -15.1884
L51.9577 -15.1675
L52.3671 -15.144
L52.7515 -15.1138
L53.1014 -15.071
L53.4048 -15.0075
L53.6485 -14.913
L53.821 -14.7763
L53.9163 -14.5876
L53.9362 -14.3422
L53.642 -14.0427
L53.2486 -13.6167
L52.85 -13.3122
L52.4463 -13.0147
L52.0376 -12.7241
L51.624 -12.4406
L51.2056 -12.1643
L50.7826 -11.8952
L50.3551 -11.6335
L49.9232 -11.3793
L49.4871 -11.1325
L49.0469 -10.8933
L48.6027 -10.6617
L48.1546 -10.4379
L47.7029 -10.2218
L47.2476 -10.0136
L46.7889 -9.81333
L46.3268 -9.62102
L45.8617 -9.43675
L45.3935 -9.26057
L44.9225 -9.09253
L44.4487 -8.93269
L43.9724 -8.78109
L43.4937 -8.63779
L43.0126 -8.50282
L42.5295 -8.37622
L42.0443 -8.25804
L41.5573 -8.14831
L41.0686 -8.04707
L40.5784 -7.95434
L40.0867 -7.87015
L39.5939 -7.79453
L39.0999 -7.7275
L38.605 -7.66909
L38.1093 -7.6193
L37.6129 -7.57816
L37.1161 -7.54568
L36.6189 -7.52186
L36.1215 -7.50672
L35.6241 -7.50026
L35.1268 -7.50248
L34.6298 -7.51338
L34.1332 -7.53296
L33.6371 -7.56121
L33.1418 -7.59812
L32.6474 -7.64368
L32.1539 -7.69788
L31.6617 -7.7607
L31.1707 -7.83213
L30.6813 -7.91213
L30.1934 -8.00069
L29.7074 -8.09778
L29.2232 -8.20337
L28.7411 -8.31742
L28.2612 -8.43991
L27.7837 -8.57079
L27.3087 -8.71003
L26.8363 -8.85758
L26.3667 -9.0134
L25.9001 -9.17744
L25.4365 -9.34965
L24.9761 -9.52998
L24.5191 -9.71837
L24.0656 -9.91476
L23.6158 -10.1191
L23.1697 -10.3313
L22.7275 -10.5514
L22.2893 -10.7792
L21.8554 -11.0146
L21.4257 -11.2577
L21.0005 -11.5084
L20.5798 -11.7665
L20.1639 -12.0319
L19.7528 -12.3047
L19.3466 -12.5847
L18.9455 -12.8718
L18.5496 -13.166
L18.159 -13.4671
L17.7738 -13.7751
L17.3942 -14.0898
L17.0203 -14.4112
L16.6521 -14.7392
L16.2898 -15.0737
L15.9336 -15.4146
L15.5834 -15.7617
L15.2395 -16.115
L14.9019 -16.4743
L14.5707 -16.8396
L14.246 -17.2108
L13.928 -17.5876
L13.6167 -17.9701
L13.3122 -18.358
L13.0147 -18.7514
L12.7241 -19.15
L12.4406 -19.5537
L12.1643 -19.9624
L11.8952 -20.376
L11.6335 -20.7944
L11.3793 -21.2174
L11.1325 -21.6449
L10.8933 -22.0768
L10.6617 -22.5129
L10.4379 -22.9531
L10.2218 -23.3973
L10.0136 -23.8454
L9.81333 -24.2971
L9.62102 -24.7524
L9.43675 -25.2111
L9.26057 -25.6732
L9.09253 -26.1383
L8.93269 -26.6065
L8.78109 -27.0775
L8.63779 -27.5513
L8.50282 -28.0276
L8.37622 -28.5063
L8.25804 -28.9874
L8.14831 -29.4705
L8.04707 -29.9557
L7.95434 -30.4427
L7.87015 -30.9314
L7.79453 -31.4216
L7.7275 -31.9133
L7.66909 -32.4061
L7.6193 -32.9001
L7.57816 -33.395
L7.54568 -33.8907
L7.52186 -34.3871
L7.50672 -34.8839
L7.50026 -35.3811
L7.50248 -35.8785
L7.51338 -36.3759
L7.53296 -36.8732
L7.56121 -37.3702
L7.59812 -37.8668
L7.64368 -38.3629
L7.69788 -38.8582
L7.7607 -39.3526
L7.83213 -39.8461
L7.91213 -40.3383
L8.00069 -40.8293
L8.09778 -41.3187
L8.20337 -41.8066
L8.31742 -42.2926
L8.43991 -42.7768
L8.57079 -43.2589
L8.71003 -43.7388
L8.85758 -44.2163
L9.0134 -44.6913
L9.17744 -45.1637
L9.34965 -45.6333
L9.52998 -46.0999
L9.71837 -46.5635
L9.91476 -47.0239
L10.1191 -47.4809
L10.3313 -47.9344
L10.5514 -48.3842
L10.7792 -48.8303
L11.0146 -49.2725
L11.2577 -49.7107
L11.5084 -50.1446
L11.7665 -50.5743
L12.0319 -50.9995
L12.3047 -51.4202
L12.5847 -51.8361
L12.8718 -52.2472
L13.166 -52.6534
L13.4671 -53.0545
L13.7751 -53.4504
z
" id="C0_1_65d3233c3d"/>
     <path d="
M18.2247 -58.1612
L18.6179 -58.1701
L19.0449 -58.2013
L19.4963 -58.2454
L19.9653 -58.2957
L20.4465 -58.3476
L20.9362 -58.3976
L21.4313 -58.4435
L21.9298 -58.4837
L22.4299 -58.5172
L22.9303 -58.5433
L23.4298 -58.5615
L23.9276 -58.5716
L24.4228 -58.5735
L24.9149 -58.5673
L25.4033 -58.5529
L25.8875 -58.5306
L26.3672 -58.5005
L26.8421 -58.4628
L27.3118 -58.4179
L27.7761 -58.3659
L28.2347 -58.3071
L28.6877 -58.2418
L29.1347 -58.1703
L29.5757 -58.0929
L30.0106 -58.0098
L30.4393 -57.9213
L30.8618 -57.8277
L31.2781 -57.7292
L31.6881 -57.6262
L32.0919 -57.5187
L32.4895 -57.4072
L32.8809 -57.2918
L33.2661 -57.1727
L33.6453 -57.0501
L34.0185 -56.9243
L34.3858 -56.7954
L34.7471 -56.6636
L35.1027 -56.529
L35.4527 -56.3919
L35.797 -56.2524
L36.1358 -56.1106
L36.4693 -55.9667
L36.7974 -55.8208
L37.1204 -55.673
L37.4383 -55.5233
L37.7513 -55.372
L38.0594 -55.2191
L38.3627 -55.0647
L38.6615 -54.9088
L38.9557 -54.7516
L39.2455 -54.5931
L39.531 -54.4334
L39.8123 -54.2725
L40.0896 -54.1104
L40.3628 -53.9473
L40.6322 -53.7831
L40.8978 -53.618
L41.1598 -53.4518
L41.4182 -53.2847
L41.6731 -53.1167
L41.9247 -52.9477
L42.173 -52.7779
L42.4181 -52.6072
L42.6602 -52.4356
L42.8992 -52.2631
L43.1354 -52.0898
L43.3687 -51.9155
L43.5993 -51.7404
L43.8272 -51.5644
L44.0525 -51.3876
L44.2754 -51.2098
L44.4958 -51.0311
L44.7138 -50.8514
L44.9296 -50.6708
L45.1432 -50.4893
L45.3547 -50.3067
L45.5641 -50.1231
L45.7714 -49.9384
L45.9769 -49.7527
L46.1804 -49.5658
L46.3822 -49.3778
L46.5821 -49.1886
L46.7804 -48.9982
L46.977 -48.8066
L47.172 -48.6136
L47.3654 -48.4193
L47.5573 -48.2236
L47.7478 -48.0265
L47.9369 -47.8279
L48.1246 -47.6278
L48.311 -47.4261
L48.4961 -47.2227
L48.6799 -47.0177
L48.8625 -46.811
L49.044 -46.6024
L49.2243 -46.392
L49.4034 -46.1797
L49.5816 -45.9654
L49.7586 -45.7491
L49.9346 -45.5306
L50.1096 -45.31
L50.2836 -45.0871
L50.4566 -44.8619
L50.6287 -44.6343
L50.7999 -44.4042
L50.9701 -44.1716
L51.1394 -43.9364
L51.3078 -43.6984
L51.4752 -43.4577
L51.6418 -43.2141
L51.8075 -42.9675
L51.9722 -42.7179
L52.136 -42.4651
L52.2989 -42.2091
L52.4609 -41.9498
L52.6219 -41.687
L52.7819 -41.4208
L52.9409 -41.1509
L53.0989 -40.8773
L53.2558 -40.5999
L53.4115 -40.3185
L53.5662 -40.0331
L53.7196 -39.7436
L53.8718 -39.4499
L54.0227 -39.1518
L54.1722 -38.8493
L54.3202 -38.5422
L54.4667 -38.2305
L54.6117 -37.914
L54.7549 -37.5926
L54.8963 -37.2663
L55.0359 -36.9348
L55.1735 -36.5982
L55.3089 -36.2563
L55.4421 -35.9091
L55.5729 -35.5564
L55.7012 -35.1981
L55.8268 -34.8342
L55.9496 -34.4645
L56.0693 -34.0891
L56.1859 -33.7078
L56.2991 -33.3207
L56.4088 -32.9275
L56.5147 -32.5284
L56.6166 -32.1233
L56.7143 -31.7122
L56.8075 -31.295
L56.8961 -30.8718
L56.9798 -30.4427
L57.0583 -30.0076
L57.1314 -29.5667
L57.1989 -29.1201
L57.2604 -28.6678
L57.3157 -28.21
L57.3646 -27.7469
L57.4068 -27.2788
L57.4422 -26.8057
L57.4704 -26.3282
L57.4913 -25.8464
L57.5047 -25.3607
L57.5105 -24.8717
L57.5088 -24.3798
L57.4994 -23.8857
L57.4825 -23.3902
L57.4584 -22.894
L57.4276 -22.3982
L57.3906 -21.9043
L57.3487 -21.4137
L57.3033 -20.9287
L57.2567 -20.4519
L57.2122 -19.9871
L57.1744 -19.5392
L57.15 -19.1148
L57.1478 -18.7228
L57.1792 -18.3741
L57.2568 -18.0809
L57.3918 -17.8536
L58.0577 -17.6975
L58.3693 -17.9526
L58.6741 -18.3403
L58.972 -18.7334
L59.2629 -19.1318
L59.5467 -19.5353
L59.8233 -19.9438
L60.0927 -20.3571
L60.3547 -20.7753
L60.6094 -21.1981
L60.8565 -21.6254
L61.096 -22.0571
L61.3279 -22.493
L61.5521 -22.9331
L61.7685 -23.3771
L61.9771 -23.8249
L62.1778 -24.2765
L62.3704 -24.7317
L62.5551 -25.1903
L62.7316 -25.6521
L62.9 -26.1172
L63.0602 -26.5852
L63.2122 -27.0561
L63.3559 -27.5297
L63.4912 -28.0059
L63.6182 -28.4846
L63.7368 -28.9655
L63.8469 -29.4486
L63.9485 -29.9337
L64.0416 -30.4206
L64.1262 -30.9092
L64.2022 -31.3994
L64.2696 -31.8909
L64.3285 -32.3838
L64.3786 -32.8777
L64.4202 -33.3726
L64.453 -33.8682
L64.4772 -34.3646
L64.4928 -34.8614
L64.4996 -35.3585
L64.4978 -35.8559
L64.4873 -36.3533
L64.4681 -36.8506
L64.4403 -37.3477
L64.4037 -37.8443
L64.3586 -38.3404
L64.3048 -38.8357
L64.2423 -39.3302
L64.1713 -39.8237
L64.0917 -40.316
L64.0035 -40.807
L63.9068 -41.2965
L63.8016 -41.7845
L63.6879 -42.2706
L63.5658 -42.7549
L63.4353 -43.2371
L63.2965 -43.7171
L63.1493 -44.1947
L62.9938 -44.6698
L62.8302 -45.1423
L62.6583 -45.6121
L62.4784 -46.0788
L62.2904 -46.5426
L62.0943 -47.0031
L61.8903 -47.4602
L61.6785 -47.9139
L61.4588 -48.3639
L61.2313 -48.8102
L60.9962 -49.2525
L60.7535 -49.6909
L60.5032 -50.125
L60.2454 -50.5549
L59.9803 -50.9803
L59.7078 -51.4012
L59.4282 -51.8173
L59.1414 -52.2287
L58.8475 -52.6351
L58.5467 -53.0364
L58.2391 -53.4326
L57.9246 -53.8234
L57.6035 -54.2088
L57.2758 -54.5887
L56.9416 -54.9629
L56.601 -55.3313
L56.2542 -55.6939
L55.9012 -56.0504
L55.5421 -56.4008
L55.1771 -56.745
L54.8062 -57.0829
L54.4296 -57.4144
L54.0474 -57.7394
L53.6597 -58.0577
L53.2666 -58.3693
L52.8682 -58.6741
L52.4647 -58.972
L52.0562 -59.2629
L51.6429 -59.5467
L51.2247 -59.8233
L50.8019 -60.0927
L50.3746 -60.3547
L49.9429 -60.6094
L49.507 -60.8565
L49.0669 -61.096
L48.6229 -61.3279
L48.1751 -61.5521
L47.7235 -61.7685
L47.2683 -61.9771
L46.8097 -62.1778
L46.3479 -62.3704
L45.8828 -62.5551
L45.4148 -62.7316
L44.9439 -62.9
L44.4703 -63.0602
L43.9941 -63.2122
L43.5154 -63.3559
L43.0345 -63.4912
L42.5514 -63.6182
L42.0663 -63.7368
L41.5794 -63.8469
L41.0908 -63.9485
L40.6006 -64.0416
L40.1091 -64.1262
L39.6162 -64.2022
L39.1223 -64.2696
L38.6274 -64.3285
L38.1318 -64.3786
L37.6354 -64.4202
L37.1386 -64.453
L36.6415 -64.4772
L36.1441 -64.4928
L35.6467 -64.4996
L35.1494 -64.4978
L34.6523 -64.4873
L34.1557 -64.4681
L33.6596 -64.4403
L33.1643 -64.4037
L32.6698 -64.3586
L32.1763 -64.3048
L31.684 -64.2423
L31.193 -64.1713
L30.7035 -64.0917
L30.2155 -64.0035
L29.7294 -63.9068
L29.2451 -63.8016
L28.7629 -63.6879
L28.2829 -63.5658
L27.8053 -63.4353
L27.3302 -63.2965
L26.8577 -63.1493
L26.3879 -62.9938
L25.9212 -62.8302
L25.4574 -62.6583
L24.9969 -62.4784
L24.5398 -62.2904
L24.0861 -62.0943
L23.6361 -61.8903
L23.1898 -61.6785
L22.7475 -61.4588
L22.3091 -61.2313
L21.875 -60.9962
L21.4451 -60.7535
L21.0197 -60.5032
L20.5988 -60.2454
L20.1827 -59.9803
L19.7713 -59.7078
L19.3649 -59.4282
L18.9636 -59.1414
L18.5674 -58.8475
z
" id="C0_2_18177bf9a2"/>
    </defs>
    <g clip-path="url(#p1bffca34e9)">
     <use style="fill:#ff0000;stroke:#000000;stroke-width:2.0;" x="0.0" xlink:href="#C0_0_a811fe30f3" y="72.0"/>
    </g>
    <g clip-path="url(#p1bffca34e9)">
     <use style="fill:#ffffff;stroke:#000000;stroke-width:2.0;" x="0.0" xlink:href="#C0_1_65d3233c3d" y="72.0"/>
    </g>
    <g clip-path="url(#p1bffca34e9)">
     <use style="fill:#ffffff;stroke:#000000;stroke-width:2.0;" x="0.0" xlink:href="#C0_2_18177bf9a2" y="72.0"/>
    </g>
   </g>
  </g>
 </g>
 <defs>
  <clipPath id="p1bffca34e9">
   <rect height="72.0" width="72.0" x="0.0" y="0.0"/>
  </clipPath>
 </defs>
</svg>
