<?xml version="1.0" encoding="utf-8" standalone="no"?>
<!DOCTYPE svg PUBLIC "-//W3C//DTD SVG 1.1//EN"
  "http://www.w3.org/Graphics/SVG/1.1/DTD/svg11.dtd">
<!-- Created with matplotlib (http://matplotlib.org/) -->
<svg height="72pt" version="1.1" viewBox="0 0 72 72" width="72pt" xmlns="http://www.w3.org/2000/svg" xmlns:xlink="http://www.w3.org/1999/xlink">
 <defs>
  <style type="text/css">
*{stroke-linecap:butt;stroke-linejoin:round;}
  </style>
 </defs>
 <g id="figure_1">
  <g id="patch_1">
   <path d="
M0 72
L72 72
L72 0
L0 0
z
" style="fill:none;"/>
  </g>
  <g id="axes_1">
   <g id="PatchCollection_1">
    <defs>
     <path d="
M36 -7.5
C43.5583 -7.5 50.808 -10.5029 56.1525 -15.8475
C61.4971 -21.192 64.5 -28.4417 64.5 -36
C64.5 -43.5583 61.4971 -50.808 56.1525 -56.1525
C50.808 -61.4971 43.5583 -64.5 36 -64.5
C28.4417 -64.5 21.192 -61.4971 15.8475 -56.1525
C10.5029 -50.808 7.5 -43.5583 7.5 -36
C7.5 -28.4417 10.5029 -21.192 15.8475 -15.8475
C21.192 -10.5029 28.4417 -7.5 36 -7.5
z
" id="C0_0_a811fe30f3"/>
     <path d="
M54.085 -14.1132
L53.9641 -14.2629
L53.8434 -14.413
L53.7228 -14.5634
L53.6023 -14.7143
L53.4819 -14.8656
L53.3615 -15.0174
L53.2412 -15.1696
L53.1209 -15.3222
L53.0005 -15.4754
L52.8802 -15.629
L52.7597 -15.7831
L52.6391 -15.9378
L52.5184 -16.093
L52.3976 -16.2488
L52.2766 -16.4051
L52.1553 -16.5621
L52.0338 -16.7198
L51.9121 -16.8781
L51.79 -17.0371
L51.6677 -17.1968
L51.5449 -17.3573
L51.2983 -17.5186
L51.1744 -17.6807
L51.05 -17.8437
L50.9251 -18.0076
L50.7996 -18.1724
L50.6736 -18.3381
L50.547 -18.5049
L50.4198 -18.6727
L50.2919 -18.8416
L50.1634 -19.0116
L50.0341 -19.1827
L49.9041 -19.3551
L49.7733 -19.5287
L49.6417 -19.7036
L49.5092 -19.8798
L49.3759 -20.0574
L49.2417 -20.2364
L49.1065 -20.4169
L48.9703 -20.5989
L48.8331 -20.7825
L48.6949 -20.9677
L48.5556 -21.1545
L48.4151 -21.3431
L48.2735 -21.5335
L48.1308 -21.7257
L47.9868 -21.9198
L47.8416 -22.1158
L47.695 -22.3138
L47.5472 -22.5138
L47.398 -22.716
L47.2474 -22.9203
L47.0954 -23.1268
L46.942 -23.3356
L46.787 -23.5467
L46.6306 -23.7602
L46.4727 -23.9762
L46.3131 -24.1947
L46.152 -24.4157
L45.9893 -24.6394
L45.8249 -24.8657
L45.6589 -25.0948
L45.4913 -25.3267
L45.3219 -25.5614
L45.1509 -25.7991
L44.9781 -26.0396
L44.8037 -26.2833
L44.6276 -26.5299
L44.4498 -26.7797
L44.2703 -27.0326
L44.0891 -27.2888
L43.9064 -27.5481
L43.722 -27.8108
L43.536 -28.0768
L43.3486 -28.3461
L43.1597 -28.6188
L42.9695 -28.8948
L42.7779 -29.1743
L42.5852 -29.4572
L42.3913 -29.7436
L42.1966 -30.0333
L42.001 -30.3265
L41.8048 -30.6231
L41.6081 -30.923
L41.4112 -31.2263
L41.2143 -31.5329
L41.0176 -31.8428
L40.8215 -32.1558
L40.6263 -32.472
L40.4324 -32.7912
L40.2401 -33.1134
L40.0499 -33.4384
L39.8624 -33.7661
L39.678 -34.0964
L39.4975 -34.4292
L39.3214 -34.7643
L39.1504 -35.1015
L38.9855 -35.4406
L38.8275 -35.7815
L38.6772 -36.1239
L38.5357 -36.4675
L38.4041 -36.8122
L38.2834 -37.1577
L38.1748 -37.5036
L38.0795 -37.8498
L37.9986 -38.1959
L37.9332 -38.5416
L37.8843 -38.8866
L37.8529 -39.2306
L37.8397 -39.5732
L37.8454 -39.9143
L37.8702 -40.2533
L37.9145 -40.5902
L37.978 -40.9246
L38.0605 -41.2562
L38.1614 -41.5849
L38.28 -41.9103
L38.4154 -42.2324
L38.5666 -42.5508
L38.7326 -42.8655
L38.9122 -43.1764
L39.1043 -43.4832
L39.3077 -43.7859
L39.5214 -44.0844
L39.7442 -44.3785
L39.9751 -44.6682
L40.2133 -44.9535
L40.4578 -45.2342
L40.7078 -45.5103
L40.9625 -45.7817
L41.2212 -46.0485
L41.4833 -46.3106
L41.7483 -46.5679
L42.0155 -46.8205
L42.2845 -47.0683
L42.5549 -47.3113
L42.8262 -47.5496
L43.0981 -47.7831
L43.3704 -48.0119
L43.6426 -48.236
L43.9145 -48.4554
L44.1859 -48.6702
L44.4566 -48.8804
L44.7265 -49.086
L44.9952 -49.2871
L45.2628 -49.4837
L45.529 -49.6759
L45.7938 -49.8638
L46.057 -50.0473
L46.3187 -50.2267
L46.5786 -50.4018
L46.8368 -50.5729
L47.0932 -50.7399
L47.3477 -50.903
L47.6004 -51.0621
L47.8513 -51.2174
L48.1002 -51.369
L48.3472 -51.5168
L48.5923 -51.6611
L48.8355 -51.8018
L49.0768 -51.9389
L49.3163 -52.0727
L49.5539 -52.2031
L49.7896 -52.3302
L50.0236 -52.4541
L50.2557 -52.5748
L50.4861 -52.6924
L50.7148 -52.807
L50.9418 -52.9185
L51.1671 -53.0272
L51.3909 -53.1329
L51.613 -53.2359
L51.8337 -53.336
L52.0529 -53.4335
L52.2706 -53.5283
L52.4869 -53.6204
L52.7019 -53.7099
L52.9157 -53.7969
L53.1281 -53.8814
L53.3394 -53.9635
L53.5495 -54.0431
L53.7585 -54.1203
L53.9664 -54.1951
L54.1734 -54.2676
L54.3794 -54.3378
L54.5845 -54.4057
L54.7887 -54.4713
L54.9922 -54.5347
L55.1949 -54.5958
L55.3969 -54.6548
L55.5982 -54.7115
L55.799 -54.7661
L55.9992 -54.8184
L56.1989 -54.8686
L56.3982 -54.9167
L56.5972 -54.9625
L56.7957 -55.0062
L56.994 -55.0477
L57.4189 -55.087
L57.7438 -54.8011
L58.062 -54.4244
L58.3735 -54.0421
L58.6782 -53.6543
L58.976 -53.2612
L59.2668 -52.8628
L59.5505 -52.4592
L59.8271 -52.0506
L60.0963 -51.6372
L60.3583 -51.219
L60.6128 -50.7961
L60.8598 -50.3687
L61.0993 -49.937
L61.3311 -49.501
L61.5551 -49.0609
L61.7714 -48.6168
L61.9799 -48.1689
L62.1804 -47.7173
L62.373 -47.2621
L62.5575 -46.8035
L62.734 -46.3415
L62.9023 -45.8765
L63.0624 -45.4084
L63.2142 -44.9375
L63.3578 -44.4638
L63.493 -43.9876
L63.6199 -43.5089
L63.7383 -43.0279
L63.8483 -42.5448
L63.9499 -42.0597
L64.0429 -41.5728
L64.1273 -41.0841
L64.2032 -40.5939
L64.2705 -40.1023
L64.3292 -39.6095
L64.3793 -39.1156
L64.4207 -38.6207
L64.4534 -38.125
L64.4775 -37.6287
L64.4929 -37.1318
L64.4997 -36.6347
L64.4977 -36.1373
L64.4871 -35.6399
L64.4678 -35.1426
L64.4398 -34.6456
L64.4032 -34.1489
L64.3579 -33.6529
L64.304 -33.1575
L64.2414 -32.663
L64.1703 -32.1696
L64.0905 -31.6773
L64.0022 -31.1863
L63.9054 -30.6968
L63.8001 -30.2089
L63.6863 -29.7227
L63.5641 -29.2385
L63.4335 -28.7564
L63.2945 -28.2764
L63.1472 -27.7988
L62.9917 -27.3237
L62.8279 -26.8512
L62.6559 -26.3816
L62.4759 -25.9148
L62.2877 -25.4511
L62.0916 -24.9907
L61.8875 -24.5336
L61.6755 -24.08
L61.4557 -23.63
L61.2282 -23.1838
L60.9929 -22.7414
L60.7501 -22.3032
L60.4997 -21.8691
L60.2418 -21.4393
L59.9766 -21.0139
L59.7041 -20.5931
L59.4243 -20.177
L59.1374 -19.7657
L58.8435 -19.3594
L58.5426 -18.9581
L58.2348 -18.562
L57.9203 -18.1713
L57.599 -17.7859
L57.2713 -17.4062
L56.937 -17.032
L56.5963 -16.6637
L56.2494 -16.3012
L55.8963 -15.9448
L55.5371 -15.5944
L55.172 -15.2503
L54.8011 -14.9125
z
" id="C0_1_c55f8e3db0"/>
     <path d="
M14.8753 -16.9367
L14.9329 -17.1301
L14.992 -17.3236
L15.0527 -17.5173
L15.115 -17.7112
L15.1789 -17.9054
L15.2444 -18.0999
L15.3115 -18.2948
L15.3802 -18.4901
L15.4505 -18.6858
L15.5225 -18.8821
L15.596 -19.079
L15.6712 -19.2764
L15.7481 -19.4746
L15.8267 -19.6735
L15.9069 -19.8731
L15.9888 -20.0736
L16.0725 -20.275
L16.1579 -20.4773
L16.2451 -20.6806
L16.3341 -20.8849
L16.425 -21.0904
L16.5177 -21.2969
L16.6122 -21.5047
L16.7087 -21.7138
L16.8071 -21.9242
L16.9075 -22.1359
L17.0098 -22.349
L17.1143 -22.5637
L17.2208 -22.7799
L17.3294 -22.9976
L17.4401 -23.217
L17.553 -23.4381
L17.6682 -23.661
L17.7856 -23.8857
L17.9053 -24.1122
L18.0274 -24.3407
L18.1518 -24.5711
L18.2787 -24.8036
L18.408 -25.0381
L18.5398 -25.2748
L18.6741 -25.5136
L18.811 -25.7547
L18.9505 -25.9981
L19.0927 -26.2439
L19.2376 -26.492
L19.3851 -26.7425
L19.5354 -26.9955
L19.6885 -27.251
L19.8444 -27.5091
L20.003 -27.7698
L20.1645 -28.0331
L20.3289 -28.299
L20.496 -28.5677
L20.6661 -28.839
L20.8389 -29.1131
L21.0146 -29.39
L21.193 -29.6696
L21.3743 -29.952
L21.5582 -30.2372
L21.7447 -30.5251
L21.9339 -30.8159
L22.1255 -31.1094
L22.3195 -31.4057
L22.5157 -31.7047
L22.714 -32.0064
L22.9143 -32.3108
L23.1163 -32.6178
L23.3198 -32.9274
L23.5245 -33.2395
L23.7302 -33.5541
L23.9365 -33.8712
L24.143 -34.1905
L24.3493 -34.5121
L24.5551 -34.8359
L24.7596 -35.1618
L24.9623 -35.4896
L25.1627 -35.8194
L25.36 -36.151
L25.5533 -36.4842
L25.7419 -36.8191
L25.9249 -37.1554
L26.1012 -37.4931
L26.2697 -37.832
L26.4295 -38.1721
L26.5794 -38.5132
L26.7181 -38.8553
L26.8445 -39.1981
L26.9576 -39.5417
L27.0562 -39.8858
L27.1395 -40.2304
L27.2065 -40.5753
L27.2567 -40.9205
L27.2898 -41.2656
L27.3054 -41.6106
L27.3036 -41.9554
L27.2847 -42.2996
L27.2493 -42.6431
L27.1978 -42.9858
L27.1313 -43.3274
L27.0506 -43.6676
L26.9568 -44.0063
L26.8508 -44.3432
L26.7339 -44.6781
L26.607 -45.0109
L26.4712 -45.3412
L26.3276 -45.669
L26.1769 -45.994
L26.0203 -46.3161
L25.8583 -46.6351
L25.6919 -46.9508
L25.5217 -47.2632
L25.3484 -47.572
L25.1724 -47.8773
L24.9944 -48.1789
L24.8148 -48.4766
L24.634 -48.7706
L24.4525 -49.0606
L24.2705 -49.3466
L24.0883 -49.6287
L23.9063 -49.9067
L23.7247 -50.1806
L23.5436 -50.4505
L23.3634 -50.7163
L23.184 -50.9781
L23.0058 -51.2358
L22.8288 -51.4894
L22.6531 -51.739
L22.4788 -51.9847
L22.306 -52.2264
L22.1348 -52.4641
L21.9652 -52.698
L21.7973 -52.9281
L21.631 -53.1544
L21.4666 -53.3769
L21.3038 -53.5958
L21.1429 -53.8111
L20.9837 -54.0228
L20.8263 -54.231
L20.6707 -54.4357
L20.5169 -54.6371
L20.3648 -54.8352
L20.2145 -55.03
L20.0658 -55.2217
L19.9189 -55.4102
L19.7737 -55.5957
L19.6302 -55.7782
L19.4883 -55.9577
L19.3479 -56.1344
L19.2092 -56.3083
L19.072 -56.4794
L18.9363 -56.6479
L18.8021 -56.8138
L18.6693 -56.977
L18.538 -57.1378
L18.408 -57.2962
L18.2794 -57.4521
L18.152 -57.6058
L18.026 -57.7571
L17.4667 -57.9062
L17.0917 -57.6511
L16.7224 -57.3243
L16.359 -56.9911
L16.0016 -56.6514
L15.6503 -56.3055
L15.3051 -55.9534
L14.9663 -55.5952
L14.6339 -55.231
L14.3079 -54.861
L13.9886 -54.4853
L13.676 -54.1039
L13.3702 -53.717
L13.0713 -53.3247
L12.7794 -52.9271
L12.4945 -52.5243
L12.2168 -52.1166
L11.9464 -51.7039
L11.6833 -51.2864
L11.4276 -50.8643
L11.1793 -50.4376
L10.9387 -50.0066
L10.7056 -49.5713
L10.4803 -49.1318
L10.2627 -48.6884
L10.053 -48.2411
L9.85122 -47.79
L9.65737 -47.3354
L9.47155 -46.8773
L9.29381 -46.4159
L9.1242 -45.9513
L8.96278 -45.4837
L8.80959 -45.0132
L8.66469 -44.54
L8.52811 -44.0642
L8.39991 -43.5859
L8.28011 -43.1053
L8.16875 -42.6225
L8.06587 -42.1377
L7.9715 -41.6511
L7.88567 -41.1627
L7.8084 -40.6727
L7.73972 -40.1814
L7.67965 -39.6887
L7.6282 -39.1949
L7.5854 -38.7002
L7.55125 -38.2046
L7.52577 -37.7084
L7.50896 -37.2116
L7.50083 -36.7145
L7.50138 -36.2171
L7.51061 -35.7197
L7.52852 -35.2224
L7.5551 -34.7253
L7.59035 -34.2286
L7.63425 -33.7325
L7.68679 -33.237
L7.74796 -32.7424
L7.81773 -32.2487
L7.89609 -31.7562
L7.983 -31.265
L8.07846 -30.7753
L8.18241 -30.2871
L8.29484 -29.8007
L8.41571 -29.3161
L8.54498 -28.8336
L8.68262 -28.3533
L8.82857 -27.8753
L8.98281 -27.3998
L9.14527 -26.9269
L9.31591 -26.4568
L9.49468 -25.9895
L9.68153 -25.5254
L9.87639 -25.0644
L10.0792 -24.6067
L10.2899 -24.1525
L10.5085 -23.702
L10.7348 -23.2551
L10.9688 -22.8122
L11.2104 -22.3732
L11.4596 -21.9385
L11.7163 -21.508
L11.9803 -21.0819
L12.2517 -20.6604
L12.5303 -20.2435
L12.8161 -19.8314
L13.1089 -19.4243
L13.4087 -19.0222
L13.7153 -18.6253
L14.0288 -18.2336
L14.3489 -17.8474
z
" id="C0_2_68b03eb81c"/>
    </defs>
    <g clip-path="url(#p1bffca34e9)">
     <use style="fill:#ffffff;stroke:#000000;stroke-width:2.0;" x="0.0" xlink:href="#C0_0_a811fe30f3" y="72.0"/>
    </g>
    <g clip-path="url(#p1bffca34e9)">
     <use style="fill:#ff0000;stroke:#000000;stroke-width:2.0;" x="0.0" xlink:href="#C0_1_c55f8e3db0" y="72.0"/>
    </g>
    <g clip-path="url(#p1bffca34e9)">
     <use style="fill:#ff0000;stroke:#000000;stroke-width:2.0;" x="0.0" xlink:href="#C0_2_68b03eb81c" y="72.0"/>
    </g>
   </g>
  </g>
 </g>
 <defs>
  <clipPath id="p1bffca34e9">
   <rect height="72.0" width="72.0" x="0.0" y="0.0"/>
  </clipPath>
 </defs>
</svg>
