<?xml version="1.0" encoding="utf-8" standalone="no"?>
<!DOCTYPE svg PUBLIC "-//W3C//DTD SVG 1.1//EN"
  "http://www.w3.org/Graphics/SVG/1.1/DTD/svg11.dtd">
<!-- Created with matplotlib (http://matplotlib.org/) -->
<svg height="72pt" version="1.1" viewBox="0 0 72 72" width="72pt" xmlns="http://www.w3.org/2000/svg" xmlns:xlink="http://www.w3.org/1999/xlink">
 <defs>
  <style type="text/css">
*{stroke-linecap:butt;stroke-linejoin:round;}
  </style>
 </defs>
 <g id="figure_1">
  <g id="patch_1">
   <path d="
M0 72
L72 72
L72 0
L0 0
z
" style="fill:none;"/>
  </g>
  <g id="axes_1">
   <g id="PatchCollection_1">
    <defs>
     <path d="
M36 -7.5
C43.5583 -7.5 50.808 -10.5029 56.1525 -15.8475
C61.4971 -21.192 64.5 -28.4417 64.5 -36
C64.5 -43.5583 61.4971 -50.808 56.1525 -56.1525
C50.808 -61.4971 43.5583 -64.5 36 -64.5
C28.4417 -64.5 21.192 -61.4971 15.8475 -56.1525
C10.5029 -50.808 7.5 -43.5583 7.5 -36
C7.5 -28.4417 10.5029 -21.192 15.8475 -15.8475
C21.192 -10.5029 28.4417 -7.5 36 -7.5
z
" id="C0_0_a811fe30f3"/>
     <path d="
M49.9937 -11.3321
L50.2305 -11.6462
L50.4486 -11.9644
L50.6484 -12.2862
L50.8304 -12.6109
L50.995 -12.9381
L51.1429 -13.2671
L51.2747 -13.5977
L51.391 -13.9292
L51.4925 -14.2614
L51.58 -14.5938
L51.654 -14.9262
L51.7153 -15.2582
L51.7645 -15.5895
L51.8023 -15.9201
L51.8293 -16.2495
L51.8461 -16.5777
L51.8533 -16.9044
L51.8514 -17.2295
L51.841 -17.5529
L51.8226 -17.8743
L51.7967 -18.1938
L51.7637 -18.5113
L51.7239 -18.8265
L51.678 -19.1395
L51.6261 -19.4502
L51.5688 -19.7585
L51.5062 -20.0644
L51.4388 -20.3678
L51.3668 -20.6688
L51.2906 -20.9672
L51.2103 -21.2631
L51.1263 -21.5565
L51.0387 -21.8473
L50.9478 -22.1355
L50.8538 -22.4212
L50.7569 -22.7044
L50.6572 -22.985
L50.5549 -23.2631
L50.4503 -23.5386
L50.3433 -23.8117
L50.2342 -24.0824
L50.1232 -24.3506
L50.0102 -24.6164
L49.8954 -24.8798
L49.779 -25.1409
L49.661 -25.3997
L49.5415 -25.6562
L49.4206 -25.9105
L49.2984 -26.1626
L49.1748 -26.4126
L49.0501 -26.6605
L48.9243 -26.9063
L48.7973 -27.1501
L48.6693 -27.392
L48.5403 -27.6319
L48.4103 -27.87
L48.2795 -28.1062
L48.1477 -28.3407
L48.0151 -28.5734
L47.8816 -28.8044
L47.7473 -29.0338
L47.6123 -29.2616
L47.4764 -29.4879
L47.3398 -29.7127
L47.2024 -29.936
L47.0643 -30.158
L46.9255 -30.3786
L46.7859 -30.5979
L46.6455 -30.8159
L46.5045 -31.0327
L46.3627 -31.2484
L46.2202 -31.4629
L46.0769 -31.6764
L45.9328 -31.8889
L45.788 -32.1004
L45.6424 -32.3109
L45.496 -32.5205
L45.3489 -32.7293
L45.2009 -32.9373
L45.052 -33.1446
L44.9023 -33.3511
L44.7518 -33.5569
L44.6003 -33.7621
L44.448 -33.9667
L44.1404 -34.1708
L43.9851 -34.3743
L43.8288 -34.5773
L43.6715 -34.78
L43.5131 -34.9822
L43.3536 -35.184
L43.1929 -35.3855
L43.0311 -35.5868
L42.8681 -35.7878
L42.7039 -35.9885
L42.5384 -36.1891
L42.3716 -36.3895
L42.2034 -36.5898
L42.0339 -36.79
L41.8629 -36.9901
L41.6905 -37.1902
L41.5166 -37.3903
L41.3412 -37.5904
L41.1642 -37.7905
L40.9856 -37.9908
L40.8053 -38.1911
L40.6232 -38.3916
L40.4395 -38.5921
L40.2539 -38.7929
L40.0665 -38.9938
L39.8772 -39.1949
L39.6859 -39.3963
L39.4927 -39.5978
L39.2974 -39.7996
L39.1 -40.0016
L38.9005 -40.2038
L38.6988 -40.4063
L38.4948 -40.609
L38.2886 -40.812
L38.08 -41.0152
L37.8691 -41.2186
L37.6557 -41.4223
L37.4398 -41.6261
L37.2213 -41.8301
L37.0003 -42.0343
L36.7766 -42.2386
L36.5502 -42.4429
L36.3211 -42.6473
L36.0892 -42.8517
L35.8544 -43.0561
L35.6168 -43.2603
L35.3763 -43.4644
L35.1328 -43.6682
L34.8863 -43.8717
L34.6367 -44.0748
L34.3841 -44.2774
L34.1283 -44.4793
L33.8694 -44.6805
L33.6074 -44.8808
L33.3421 -45.0801
L33.0736 -45.2783
L32.8019 -45.4751
L32.527 -45.6704
L32.2488 -45.8641
L31.9673 -46.0558
L31.6826 -46.2454
L31.3946 -46.4326
L31.1035 -46.6172
L30.8091 -46.7988
L30.5115 -46.9773
L30.2107 -47.1521
L29.9069 -47.3231
L29.5999 -47.4899
L29.29 -47.652
L28.9772 -47.809
L28.6614 -47.9604
L28.3429 -48.1059
L28.0218 -48.2449
L27.698 -48.3768
L27.3719 -48.5011
L27.0434 -48.6172
L26.7127 -48.7245
L26.3801 -48.8224
L26.0456 -48.9102
L25.7096 -48.9872
L25.3722 -49.0528
L25.0336 -49.1062
L24.6941 -49.1468
L24.354 -49.1738
L24.0137 -49.1868
L23.6733 -49.1849
L23.3334 -49.1677
L22.9941 -49.1346
L22.6561 -49.0852
L22.3195 -49.0191
L21.9849 -48.9361
L21.6528 -48.836
L21.3234 -48.7187
L20.9974 -48.5843
L20.675 -48.4329
L20.3568 -48.2648
L20.0432 -48.0803
L19.7346 -47.8799
L19.4314 -47.6641
L19.1339 -47.4335
L18.8425 -47.1887
L18.5576 -46.9304
L18.2793 -46.6593
L18.008 -46.3763
L17.744 -46.082
L17.4874 -45.7772
L17.2383 -45.4626
L16.997 -45.1391
L16.7636 -44.8072
L16.5382 -44.4678
L16.3208 -44.1215
L16.1115 -43.769
L15.9103 -43.4109
L15.7173 -43.0477
L15.5324 -42.6801
L15.3556 -42.3087
L15.1869 -41.9338
L15.0262 -41.556
L14.8734 -41.1758
L14.7285 -40.7936
L14.5914 -40.4097
L14.4619 -40.0246
L14.34 -39.6385
L14.2256 -39.2519
L14.1185 -38.865
L14.0186 -38.4781
L13.9259 -38.0915
L13.84 -37.7053
L13.761 -37.3198
L13.6888 -36.9353
L13.623 -36.5518
L13.5637 -36.1695
L13.5107 -35.7887
L13.4639 -35.4094
L13.4231 -35.0318
L13.3882 -34.6559
L13.3591 -34.2819
L13.3356 -33.9099
L13.3177 -33.5399
L13.3051 -33.172
L13.2979 -32.8062
L13.2958 -32.4427
L13.2988 -32.0814
L13.3068 -31.7223
L13.3196 -31.3656
L13.3372 -31.0112
L13.3594 -30.6592
L13.3863 -30.3095
L13.4176 -29.9622
L13.4532 -29.6172
L13.4932 -29.2746
L13.5375 -28.9343
L13.5859 -28.5964
L13.6384 -28.2608
L13.695 -27.9275
L13.7555 -27.5964
L13.82 -27.2677
L13.8883 -26.9412
L13.9605 -26.6169
L14.0364 -26.2947
L14.116 -25.9748
L14.1994 -25.657
L14.2864 -25.3413
L14.377 -25.0276
L14.4713 -24.716
L14.5691 -24.4064
L14.6705 -24.0987
L14.7754 -23.793
L14.8839 -23.4893
L14.9959 -23.1873
L15.1114 -22.8873
L15.2305 -22.589
L15.353 -22.2926
L15.4791 -21.9978
L15.6088 -21.7048
L15.7419 -21.4135
L15.8786 -21.1239
L16.0189 -20.8359
L16.1628 -20.5495
L16.3103 -20.2647
L16.4615 -19.9814
L16.6163 -19.6997
L16.7748 -19.4195
L16.9371 -19.1408
L17.1032 -18.8637
L17.2731 -18.5879
L17.4468 -18.3137
L17.6245 -18.0409
L17.8061 -17.7695
L17.9918 -17.4995
L18.1815 -17.231
L18.3754 -16.9639
L18.5735 -16.6983
L18.7758 -16.4341
L18.9825 -16.1713
L19.1936 -15.91
L19.4091 -15.6502
L19.6293 -15.3918
L19.854 -15.135
L20.0835 -14.8797
L20.3178 -14.6259
L20.5569 -14.3738
L20.801 -14.1233
L21.0502 -13.8745
L21.3046 -13.6274
L21.5642 -13.3822
L21.8291 -13.1387
L22.0995 -12.8972
L22.3755 -12.6577
L22.657 -12.4202
L22.9443 -12.1849
L23.2375 -11.9518
L23.5366 -11.7211
L23.8417 -11.4928
L24.153 -11.2671
L24.4706 -11.0441
L24.7944 -10.8239
L25.1248 -10.6066
L25.4616 -10.3925
L25.805 -10.1816
L26.1552 -9.97416
L26.5121 -9.77033
L26.876 -9.57029
L27.2467 -9.37425
L27.6244 -9.18243
L28.0092 -8.99503
L28.401 -8.8123
L28.8 -8.63447
L29.2732 -8.4618
L29.7575 -8.30524
L30.2438 -8.19206
L30.7318 -8.08735
L31.2214 -7.99114
L31.7125 -7.90346
L32.2049 -7.82435
L32.6984 -7.75381
L33.193 -7.69188
L33.6884 -7.63857
L34.1845 -7.5939
L34.6812 -7.55788
L35.1782 -7.53053
L35.6755 -7.51185
L36.1729 -7.50185
L36.6703 -7.50052
L37.1675 -7.50788
L37.6643 -7.52392
L38.1605 -7.54863
L38.6562 -7.58201
L39.151 -7.62405
L39.6449 -7.67473
L40.1376 -7.73403
L40.6291 -7.80195
L41.1192 -7.87845
L41.6077 -7.96353
L42.0945 -8.05714
L42.5795 -8.15926
L43.0625 -8.26987
L43.5433 -8.38892
L44.0218 -8.51638
L44.4978 -8.65222
L44.9713 -8.79638
L45.442 -8.94883
L45.9099 -9.10952
L46.3748 -9.2784
L46.8364 -9.45543
L47.2948 -9.64053
L47.7498 -9.83367
L48.2011 -10.0348
L48.6488 -10.2438
L49.0926 -10.4607
L49.5324 -10.6853
z
" id="C0_1_f34dd9eb0f"/>
     <path d="
M42.7814 -63.6544
L42.3413 -63.6949
L41.898 -63.7295
L41.4515 -63.7583
L41.0021 -63.781
L40.5498 -63.7976
L40.0946 -63.8081
L39.6367 -63.8125
L39.1763 -63.8106
L38.7133 -63.8025
L38.2481 -63.7882
L37.7807 -63.7677
L37.3114 -63.741
L36.8402 -63.708
L36.3675 -63.6689
L35.8933 -63.6238
L35.4179 -63.5727
L34.9416 -63.5157
L34.4645 -63.4531
L33.9869 -63.3848
L33.5091 -63.3113
L33.0314 -63.2327
L32.5539 -63.1492
L32.0771 -63.0612
L31.6011 -62.969
L31.1263 -62.873
L30.6529 -62.7737
L30.1813 -62.6714
L29.7117 -62.5667
L29.2444 -62.4601
L28.7798 -62.3521
L28.318 -62.2434
L27.8594 -62.1345
L27.4042 -62.0261
L26.9526 -61.9188
L26.5049 -61.8133
L26.0612 -61.7101
L25.6216 -61.6099
L25.1864 -61.5131
L24.7557 -61.4204
L24.3295 -61.332
L23.9079 -61.2485
L23.4909 -61.17
L23.0785 -61.0969
L22.6708 -61.0291
L22.7027 -60.9667
L23.1447 -61.2078
L23.5906 -61.436
L24.0402 -61.6565
L24.4935 -61.8692
L24.9503 -62.074
L25.4105 -62.2708
L25.8739 -62.4596
L26.3404 -62.6404
L26.8098 -62.8131
L27.282 -62.9776
L27.7569 -63.1339
L28.2343 -63.2819
L28.714 -63.4216
L29.196 -63.5529
L29.6801 -63.6759
L30.166 -63.7904
L30.6538 -63.8965
L31.1432 -63.9941
L31.634 -64.0831
L32.1262 -64.1636
L32.6196 -64.2355
L33.114 -64.2988
L33.6093 -64.3535
L34.1053 -64.3995
L34.6018 -64.4369
L35.0989 -64.4657
L35.5961 -64.4857
L36.0935 -64.4971
L36.5909 -64.4998
L37.0881 -64.4939
L37.585 -64.4792
L38.0814 -64.4559
L38.5771 -64.4239
L39.0721 -64.3832
L39.5661 -64.3339
L40.059 -64.276
L40.5507 -64.2095
L41.0411 -64.1343
L41.5298 -64.0506
L42.0169 -63.9584
z
" id="C0_2_38259c9d46"/>
    </defs>
    <g clip-path="url(#p1bffca34e9)">
     <use style="fill:#ffffff;stroke:#000000;stroke-width:2.0;" x="0.0" xlink:href="#C0_0_a811fe30f3" y="72.0"/>
    </g>
    <g clip-path="url(#p1bffca34e9)">
     <use style="fill:#ff0000;stroke:#000000;stroke-width:2.0;" x="0.0" xlink:href="#C0_1_f34dd9eb0f" y="72.0"/>
    </g>
    <g clip-path="url(#p1bffca34e9)">
     <use style="fill:#ff0000;stroke:#000000;stroke-width:2.0;" x="0.0" xlink:href="#C0_2_38259c9d46" y="72.0"/>
    </g>
   </g>
  </g>
 </g>
 <defs>
  <clipPath id="p1bffca34e9">
   <rect height="72.0" width="72.0" x="0.0" y="0.0"/>
  </clipPath>
 </defs>
</svg>
