<?xml version="1.0" encoding="utf-8" standalone="no"?>
<!DOCTYPE svg PUBLIC "-//W3C//DTD SVG 1.1//EN"
  "http://www.w3.org/Graphics/SVG/1.1/DTD/svg11.dtd">
<!-- Created with matplotlib (http://matplotlib.org/) -->
<svg height="72pt" version="1.1" viewBox="0 0 72 72" width="72pt" xmlns="http://www.w3.org/2000/svg" xmlns:xlink="http://www.w3.org/1999/xlink">
 <defs>
  <style type="text/css">
*{stroke-linecap:butt;stroke-linejoin:round;}
  </style>
 </defs>
 <g id="figure_1">
  <g id="patch_1">
   <path d="
M0 72
L72 72
L72 0
L0 0
z
" style="fill:none;"/>
  </g>
  <g id="axes_1">
   <g id="PatchCollection_1">
    <defs>
     <path d="
M36 -7.5
C43.5583 -7.5 50.808 -10.5029 56.1525 -15.8475
C61.4971 -21.192 64.5 -28.4417 64.5 -36
C64.5 -43.5583 61.4971 -50.808 56.1525 -56.1525
C50.808 -61.4971 43.5583 -64.5 36 -64.5
C28.4417 -64.5 21.192 -61.4971 15.8475 -56.1525
C10.5029 -50.808 7.5 -43.5583 7.5 -36
C7.5 -28.4417 10.5029 -21.192 15.8475 -15.8475
C21.192 -10.5029 28.4417 -7.5 36 -7.5
z
" id="C0_0_a811fe30f3"/>
     <path d="
M33.222 -28.6904
L33.024 -28.8532
L32.8265 -29.017
L32.6295 -29.1817
L32.433 -29.3474
L32.237 -29.5142
L32.0414 -29.682
L31.8461 -29.851
L31.6512 -30.0211
L31.4566 -30.1924
L31.2622 -30.3649
L31.068 -30.5387
L30.874 -30.7139
L30.6801 -30.8904
L30.4863 -31.0684
L30.2926 -31.2478
L30.099 -31.4288
L29.9053 -31.6113
L29.7117 -31.7955
L29.518 -31.9814
L29.3242 -32.169
L29.1303 -32.3583
L28.9363 -32.5496
L28.7422 -32.7427
L28.5478 -32.9378
L28.3533 -33.1349
L28.1586 -33.3341
L27.9637 -33.5355
L27.7685 -33.739
L27.573 -33.9448
L27.3774 -34.1529
L27.1814 -34.3635
L26.9852 -34.5764
L26.7887 -34.7919
L26.592 -35.01
L26.395 -35.2308
L26.1978 -35.4542
L26.0003 -35.6804
L25.8026 -35.9095
L25.6047 -36.1415
L25.4066 -36.3765
L25.2084 -36.6145
L25.0101 -36.8556
L24.8117 -37.0999
L24.6133 -37.3475
L24.415 -37.5983
L24.2167 -37.8525
L24.0187 -38.1102
L23.8209 -38.3713
L23.6234 -38.6359
L23.4263 -38.9041
L23.2299 -39.176
L23.034 -39.4515
L22.839 -39.7308
L22.6448 -40.0139
L22.4518 -40.3007
L22.26 -40.5914
L22.0696 -40.886
L21.8808 -41.1844
L21.6939 -41.4867
L21.509 -41.7929
L21.3265 -42.1031
L21.1466 -42.4171
L20.9696 -42.735
L20.7958 -43.0567
L20.6256 -43.3823
L20.4593 -43.7117
L20.2975 -44.0447
L20.1404 -44.3814
L19.9887 -44.7217
L19.8428 -45.0655
L19.7034 -45.4126
L19.571 -45.763
L19.4464 -46.1165
L19.3302 -46.4729
L19.2234 -46.8321
L19.1267 -47.1939
L19.0412 -47.5579
L18.9678 -47.924
L18.9077 -48.2919
L18.8621 -48.6613
L18.832 -49.0317
L18.819 -49.4028
L18.8242 -49.7741
L18.849 -50.1451
L18.8946 -50.5153
L18.9622 -50.884
L19.053 -51.2506
L19.1678 -51.6144
L19.3072 -51.9746
L19.4715 -52.3304
L19.6609 -52.6811
L19.8751 -53.0259
L20.1134 -53.3641
L20.3749 -53.6949
L20.6587 -54.0177
L20.9634 -54.3318
L21.2875 -54.6367
L21.6295 -54.9319
L21.988 -55.2171
L22.3612 -55.4919
L22.7478 -55.756
L23.1462 -56.0093
L23.5551 -56.2516
L23.9731 -56.4828
L24.399 -56.7028
L24.8317 -56.9117
L25.2701 -57.1094
L25.7132 -57.2962
L26.1601 -57.472
L26.6099 -57.6369
L27.062 -57.7912
L27.5156 -57.9351
L27.97 -58.0686
L28.4247 -58.192
L28.8792 -58.3055
L29.3329 -58.4093
L29.7855 -58.5037
L30.2364 -58.5888
L30.6854 -58.6651
L31.1322 -58.7325
L31.5763 -58.7915
L32.0177 -58.8423
L32.456 -58.8851
L32.891 -58.9201
L33.3226 -58.9477
L33.7506 -58.968
L34.1749 -58.9812
L34.5953 -58.9877
L35.0118 -58.9875
L35.4242 -58.981
L35.8326 -58.9684
L36.2368 -58.9498
L36.6368 -58.9255
L37.0326 -58.8957
L37.4241 -58.8605
L37.8115 -58.8201
L38.1946 -58.7747
L38.5734 -58.7245
L38.9481 -58.6696
L39.3186 -58.6102
L39.6849 -58.5464
L40.0472 -58.4784
L40.4053 -58.4063
L40.7595 -58.3301
L41.1097 -58.2502
L41.4559 -58.1664
L41.7983 -58.0791
L42.1369 -57.9882
L42.4717 -57.8938
L42.8029 -57.7961
L43.1304 -57.6951
L43.4544 -57.591
L43.7749 -57.4837
L44.0919 -57.3734
L44.4056 -57.26
L44.716 -57.1438
L45.0232 -57.0246
L45.3273 -56.9026
L45.6282 -56.7779
L45.9261 -56.6504
L46.2211 -56.5201
L46.5132 -56.3872
L46.8024 -56.2517
L47.0889 -56.1135
L47.3727 -55.9727
L47.6538 -55.8293
L47.9324 -55.6833
L48.2084 -55.5347
L48.482 -55.3836
L48.7532 -55.2299
L49.022 -55.0736
L49.2885 -54.9148
L49.5528 -54.7533
L49.8149 -54.5893
L50.0748 -54.4226
L50.3327 -54.2534
L50.5885 -54.0814
L50.8422 -53.9068
L51.094 -53.7295
L51.3439 -53.5495
L51.5919 -53.3667
L51.838 -53.1812
L52.0824 -52.9928
L52.3249 -52.8015
L52.5656 -52.6073
L52.8047 -52.4101
L53.042 -52.21
L53.2776 -52.0068
L53.5116 -51.8004
L53.7439 -51.5909
L53.9746 -51.3782
L54.2036 -51.1622
L54.431 -50.9428
L54.6569 -50.72
L54.8811 -50.4937
L55.1037 -50.2638
L55.3247 -50.0304
L55.5441 -49.7932
L55.7618 -49.5522
L55.978 -49.3073
L56.1924 -49.0585
L56.4051 -48.8057
L56.6162 -48.5487
L56.8254 -48.2875
L57.0329 -48.0219
L57.2386 -47.752
L57.4424 -47.4776
L57.6442 -47.1986
L57.8441 -46.9148
L58.0419 -46.6263
L58.2376 -46.3329
L58.431 -46.0345
L58.6222 -45.7309
L58.811 -45.4222
L58.9973 -45.1081
L59.1811 -44.7886
L59.3621 -44.4636
L59.5403 -44.133
L59.7156 -43.7967
L59.8877 -43.4545
L60.0566 -43.1064
L60.2221 -42.7523
L60.384 -42.3921
L60.5422 -42.0257
L60.6964 -41.653
L60.8465 -41.274
L60.9922 -40.8886
L61.1333 -40.4967
L61.2695 -40.0982
L61.4007 -39.6933
L61.5266 -39.2817
L61.6469 -38.8635
L61.7612 -38.4387
L61.8694 -38.0073
L61.9711 -37.5693
L62.066 -37.1248
L62.1537 -36.6739
L62.2339 -36.2166
L62.3063 -35.7531
L62.3705 -35.2836
L62.4261 -34.8081
L62.4727 -34.327
L62.51 -33.8404
L62.5375 -33.3487
L62.5549 -32.8522
L62.5618 -32.3514
L62.5577 -31.8465
L62.5422 -31.3382
L62.515 -30.8269
L62.4757 -30.3133
L62.4238 -29.7981
L62.3591 -29.2821
L62.2811 -28.766
L62.1895 -28.2509
L62.0841 -27.7377
L61.9645 -27.2276
L61.8305 -26.7218
L61.6819 -26.2217
L61.5186 -25.7285
L61.3405 -25.244
L61.1476 -24.7696
L60.94 -24.3072
L60.7177 -23.8584
L60.4812 -23.425
L60.2306 -23.0088
L59.9665 -22.6114
L59.6894 -22.2345
L59.4 -21.8795
L59.099 -21.5475
L58.7874 -21.2394
L58.466 -20.9557
L58.1358 -20.6968
L57.7977 -20.4624
L57.4528 -20.2523
L57.1019 -20.0658
L56.7461 -19.902
L56.3862 -19.7599
L56.0229 -19.6384
L55.657 -19.5363
L55.2893 -19.4524
L54.9202 -19.3854
L54.5504 -19.3344
L54.1804 -19.2981
L53.8106 -19.2754
L53.4414 -19.2655
L53.0732 -19.2674
L52.7062 -19.2801
L52.3409 -19.303
L51.9774 -19.3352
L51.6159 -19.3762
L51.2567 -19.4252
L50.9 -19.4817
L50.5459 -19.5451
L50.1946 -19.615
L49.8461 -19.6908
L49.5006 -19.7722
L49.1582 -19.8587
L48.819 -19.95
L48.4831 -20.0457
L48.1504 -20.1455
L47.821 -20.2491
L47.495 -20.3562
L47.1725 -20.4666
L46.8533 -20.58
L46.5376 -20.6962
L46.2252 -20.815
L45.9163 -20.9361
L45.6108 -21.0595
L45.3087 -21.1849
L45.01 -21.3123
L44.7146 -21.4413
L44.4225 -21.572
L44.1336 -21.7042
L43.848 -21.8377
L43.5656 -21.9726
L43.2863 -22.1086
L43.0101 -22.2456
L42.7369 -22.3837
L42.4667 -22.5227
L42.1995 -22.6626
L41.9351 -22.8033
L41.6736 -22.9447
L41.4148 -23.0868
L41.1586 -23.2295
L40.9052 -23.3729
L40.6543 -23.5168
L40.4059 -23.6613
L40.1599 -23.8062
L39.9164 -23.9517
L39.6751 -24.0976
L39.4361 -24.2439
L39.1994 -24.3907
L38.9647 -24.5379
L38.7322 -24.6855
L38.5016 -24.8335
L38.273 -24.9819
L38.0463 -25.1307
L37.8214 -25.2799
L37.5983 -25.4296
L37.3769 -25.5796
L37.1571 -25.73
L36.939 -25.8809
L36.7223 -26.0322
L36.5072 -26.184
L36.2934 -26.3363
L36.0811 -26.489
L35.87 -26.6422
L35.6602 -26.796
L35.4517 -26.9502
L35.2442 -27.1051
L35.0379 -27.2605
L34.8326 -27.4166
L34.6283 -27.5733
L34.4249 -27.7306
L34.2225 -27.8887
L34.0209 -28.0475
L33.8201 -28.207
L33.62 -28.3673
z
" id="C0_1_cbf93f6bd8"/>
    </defs>
    <g clip-path="url(#p1bffca34e9)">
     <use style="fill:#ffffff;stroke:#000000;stroke-width:2.0;" x="0.0" xlink:href="#C0_0_a811fe30f3" y="72.0"/>
    </g>
    <g clip-path="url(#p1bffca34e9)">
     <use style="fill:#ff0000;stroke:#000000;stroke-width:2.0;" x="0.0" xlink:href="#C0_1_cbf93f6bd8" y="72.0"/>
    </g>
   </g>
  </g>
 </g>
 <defs>
  <clipPath id="p1bffca34e9">
   <rect height="72.0" width="72.0" x="0.0" y="0.0"/>
  </clipPath>
 </defs>
</svg>
