<?xml version="1.0" encoding="utf-8" standalone="no"?>
<!DOCTYPE svg PUBLIC "-//W3C//DTD SVG 1.1//EN"
  "http://www.w3.org/Graphics/SVG/1.1/DTD/svg11.dtd">
<!-- Created with matplotlib (http://matplotlib.org/) -->
<svg height="72pt" version="1.1" viewBox="0 0 72 72" width="72pt" xmlns="http://www.w3.org/2000/svg" xmlns:xlink="http://www.w3.org/1999/xlink">
 <defs>
  <style type="text/css">
*{stroke-linecap:butt;stroke-linejoin:round;}
  </style>
 </defs>
 <g id="figure_1">
  <g id="patch_1">
   <path d="
M0 72
L72 72
L72 0
L0 0
z
" style="fill:none;"/>
  </g>
  <g id="axes_1">
   <g id="PatchCollection_1">
    <defs>
     <path d="
M36 -7.5
C43.5583 -7.5 50.808 -10.5029 56.1525 -15.8475
C61.4971 -21.192 64.5 -28.4417 64.5 -36
C64.5 -43.5583 61.4971 -50.808 56.1525 -56.1525
C50.808 -61.4971 43.5583 -64.5 36 -64.5
C28.4417 -64.5 21.192 -61.4971 15.8475 -56.1525
C10.5029 -50.808 7.5 -43.5583 7.5 -36
C7.5 -28.4417 10.5029 -21.192 15.8475 -15.8475
C21.192 -10.5029 28.4417 -7.5 36 -7.5
z
" id="C0_0_a811fe30f3"/>
     <path d="
M53.7745 -13.8955
L53.6712 -14.0554
L53.5678 -14.2159
L53.4644 -14.3771
L53.361 -14.539
L53.2575 -14.7016
L53.1538 -14.8648
L53.0501 -15.0288
L52.9461 -15.1934
L52.842 -15.3588
L52.7377 -15.525
L52.6332 -15.6919
L52.5284 -15.8596
L52.4233 -16.0281
L52.3179 -16.1975
L52.2123 -16.3677
L52.1062 -16.5387
L51.8931 -16.7107
L51.7859 -16.8836
L51.6783 -17.0575
L51.5702 -17.2324
L51.4616 -17.4083
L51.3526 -17.5852
L51.243 -17.7632
L51.1329 -17.9424
L51.0222 -18.1227
L50.9109 -18.3042
L50.7989 -18.4869
L50.6864 -18.6708
L50.5731 -18.8561
L50.4592 -19.0427
L50.3446 -19.2306
L50.2292 -19.42
L50.1131 -19.6108
L49.9962 -19.8032
L49.8785 -19.997
L49.76 -20.1925
L49.6406 -20.3896
L49.5204 -20.5883
L49.3992 -20.7888
L49.2772 -20.991
L49.1542 -21.195
L49.0303 -21.4008
L48.9054 -21.6086
L48.7795 -21.8183
L48.6526 -22.03
L48.5247 -22.2437
L48.3957 -22.4595
L48.2657 -22.6775
L48.1347 -22.8976
L48.0025 -23.1199
L47.8693 -23.3446
L47.735 -23.5715
L47.5996 -23.8008
L47.4631 -24.0325
L47.3254 -24.2667
L47.1867 -24.5033
L47.0469 -24.7425
L46.906 -24.9843
L46.764 -25.2288
L46.621 -25.4758
L46.4769 -25.7256
L46.3318 -25.9782
L46.1858 -26.2335
L46.0388 -26.4915
L45.8908 -26.7525
L45.7421 -27.0163
L45.5925 -27.2829
L45.4422 -27.5525
L45.2912 -27.825
L45.1397 -28.1004
L44.9877 -28.3787
L44.8352 -28.66
L44.6825 -28.9442
L44.5297 -29.2314
L44.3768 -29.5215
L44.2241 -29.8144
L44.0718 -30.1103
L43.9199 -30.409
L43.7687 -30.7105
L43.6184 -31.0147
L43.4693 -31.3217
L43.3216 -31.6313
L43.1757 -31.9435
L43.0317 -32.2582
L42.8901 -32.5754
L42.7511 -32.8948
L42.6152 -33.2165
L42.4828 -33.5403
L42.3542 -33.8661
L42.23 -34.1938
L42.1106 -34.5231
L41.9965 -34.8541
L41.8881 -35.1864
L41.7861 -35.52
L41.691 -35.8547
L41.6033 -36.1903
L41.5235 -36.5266
L41.4523 -36.8633
L41.3901 -37.2004
L41.3375 -37.5376
L41.2949 -37.8746
L41.2628 -38.2114
L41.2416 -38.5476
L41.2317 -38.883
L41.2333 -39.2174
L41.2466 -39.5507
L41.2718 -39.8825
L41.3089 -40.2128
L41.358 -40.5412
L41.4188 -40.8677
L41.4913 -41.192
L41.5752 -41.5139
L41.6701 -41.8332
L41.7758 -42.1499
L41.8917 -42.4637
L42.0174 -42.7746
L42.1524 -43.0823
L42.2962 -43.3868
L42.4483 -43.6879
L42.6081 -43.9855
L42.775 -44.2796
L42.9486 -44.57
L43.1282 -44.8567
L43.3134 -45.1396
L43.5037 -45.4185
L43.6986 -45.6936
L43.8977 -45.9647
L44.1004 -46.2317
L44.3064 -46.4947
L44.5154 -46.7535
L44.7268 -47.0083
L44.9405 -47.2589
L45.156 -47.5054
L45.3731 -47.7477
L45.5915 -47.9859
L45.811 -48.2199
L46.0313 -48.4498
L46.2522 -48.6756
L46.4734 -48.8972
L46.6949 -49.1148
L46.9164 -49.3283
L47.1379 -49.5378
L47.3591 -49.7434
L47.5799 -49.9449
L47.8003 -50.1426
L48.0201 -50.3364
L48.2393 -50.5264
L48.4577 -50.7125
L48.6753 -50.895
L48.8921 -51.0737
L49.1079 -51.2488
L49.3228 -51.4204
L49.5367 -51.5884
L49.7495 -51.7529
L49.9613 -51.914
L50.172 -52.0717
L50.3817 -52.226
L50.5902 -52.3771
L50.7977 -52.525
L51.004 -52.6696
L51.2093 -52.8112
L51.4134 -52.9497
L51.6165 -53.0851
L51.8185 -53.2176
L52.0194 -53.3471
L52.2193 -53.4737
L52.4182 -53.5975
L52.6161 -53.7185
L52.813 -53.8367
L53.009 -53.9522
L53.2041 -54.0651
L53.3983 -54.1752
L53.5916 -54.2828
L53.784 -54.3878
L53.9757 -54.4903
L54.1667 -54.5902
L54.3569 -54.6876
L54.5464 -54.7826
L54.7353 -54.8752
L54.9235 -54.9654
L55.1112 -55.0531
L55.2983 -55.1385
L55.4849 -55.2216
L55.6711 -55.3023
L55.8569 -55.3806
L56.0423 -55.4567
L56.2273 -55.5305
L56.4121 -55.6019
L56.8636 -55.6711
L57.1993 -55.4154
L57.5285 -55.0483
L57.8512 -54.6755
L58.1672 -54.2969
L58.4764 -53.9128
L58.7788 -53.5232
L59.0743 -53.1282
L59.3627 -52.7281
L59.644 -52.3228
L59.9181 -51.9126
L60.185 -51.4975
L60.4444 -51.0777
L60.6964 -50.6534
L60.9409 -50.2245
L61.1778 -49.7913
L61.407 -49.354
L61.6285 -48.9125
L61.8422 -48.4671
L62.048 -48.0179
L62.2459 -47.5651
L62.4357 -47.1087
L62.6176 -46.649
L62.7913 -46.186
L62.9568 -45.7199
L63.1142 -45.2509
L63.2633 -44.779
L63.4041 -44.3045
L63.5365 -43.8274
L63.6605 -43.3479
L63.7762 -42.8662
L63.8833 -42.3824
L63.982 -41.8967
L64.0721 -41.4092
L64.1537 -40.92
L64.2267 -40.4293
L64.2911 -39.9373
L64.3469 -39.4441
L64.3941 -38.9498
L64.4326 -38.4546
L64.4625 -37.9587
L64.4837 -37.4622
L64.4962 -36.9652
L64.5 -36.468
L64.4951 -35.9706
L64.4816 -35.4732
L64.4594 -34.976
L64.4285 -34.479
L64.389 -33.9826
L64.3408 -33.4867
L64.284 -32.9917
L64.2185 -32.4975
L64.1445 -32.0044
L64.0619 -31.5126
L63.9707 -31.0221
L63.8711 -30.5331
L63.7629 -30.0457
L63.6463 -29.5602
L63.5213 -29.0767
L63.3878 -28.5952
L63.2461 -28.1161
L63.096 -27.6393
L62.9377 -27.165
L62.7712 -26.6935
L62.5965 -26.2248
L62.4137 -25.759
L62.2229 -25.2964
L62.0241 -24.8371
L61.8173 -24.3811
L61.6027 -23.9287
L61.3803 -23.48
L61.1502 -23.0351
L60.9124 -22.5941
L60.667 -22.1572
L60.4141 -21.7245
L60.1538 -21.2962
L59.8861 -20.8724
L59.6111 -20.4531
L59.3289 -20.0386
L59.0397 -19.629
L58.7434 -19.2243
L58.4402 -18.8248
L58.1301 -18.4305
L57.8133 -18.0415
L57.4899 -17.658
L57.1599 -17.2801
L56.8235 -16.9079
L56.4807 -16.5415
L56.1317 -16.1811
L55.7766 -15.8267
L55.4154 -15.4784
L55.0483 -15.1364
L54.6755 -14.8007
L54.2969 -14.4715
z
" id="C0_1_721829686a"/>
     <path d="
M15.4428 -16.2999
L15.5172 -16.4816
L15.5926 -16.6637
L15.669 -16.8461
L15.7465 -17.029
L15.825 -17.2123
L15.9046 -17.396
L15.9852 -17.5803
L16.0669 -17.7651
L16.1497 -17.9505
L16.2336 -18.1365
L16.3186 -18.3232
L16.4047 -18.5105
L16.492 -18.6986
L16.5804 -18.8875
L16.67 -19.0771
L16.7607 -19.2676
L16.8526 -19.459
L16.9458 -19.6513
L17.0401 -19.8446
L17.1357 -20.0389
L17.2326 -20.2342
L17.3308 -20.4307
L17.4303 -20.6282
L17.531 -20.827
L17.6332 -21.027
L17.7367 -21.2283
L17.8416 -21.4309
L17.9479 -21.6348
L18.0556 -21.8402
L18.1648 -22.047
L18.2754 -22.2553
L18.3876 -22.4651
L18.5013 -22.6765
L18.6165 -22.8896
L18.7333 -23.1044
L18.8517 -23.3209
L18.9717 -23.5391
L19.0933 -23.7592
L19.2166 -23.9812
L19.3416 -24.2051
L19.4682 -24.4309
L19.5966 -24.6588
L19.7267 -24.8887
L19.8585 -25.1207
L19.9921 -25.3548
L20.1274 -25.5911
L20.2645 -25.8296
L20.4034 -26.0704
L20.5441 -26.3135
L20.6865 -26.559
L20.8308 -26.8068
L20.9768 -27.057
L21.1246 -27.3097
L21.2741 -27.5648
L21.4253 -27.8225
L21.5783 -28.0827
L21.7329 -28.3454
L21.8891 -28.6107
L22.0469 -28.8787
L22.2062 -29.1492
L22.367 -29.4223
L22.5292 -29.6981
L22.6926 -29.9765
L22.8572 -30.2576
L23.023 -30.5413
L23.1896 -30.8276
L23.3571 -31.1165
L23.5253 -31.4081
L23.694 -31.7022
L23.863 -31.9988
L24.0321 -32.298
L24.2011 -32.5997
L24.3698 -32.9038
L24.5378 -33.2102
L24.7049 -33.5191
L24.8707 -33.8302
L25.035 -34.1435
L25.1973 -34.459
L25.3573 -34.7765
L25.5145 -35.096
L25.6686 -35.4175
L25.819 -35.7407
L25.9652 -36.0657
L26.1068 -36.3923
L26.2432 -36.7205
L26.3739 -37.05
L26.4983 -37.3809
L26.6158 -37.7129
L26.726 -38.046
L26.8282 -38.38
L26.9219 -38.7148
L27.0067 -39.0503
L27.0821 -39.3863
L27.1476 -39.7228
L27.2028 -40.0594
L27.2476 -40.3962
L27.2816 -40.7329
L27.3047 -41.0693
L27.3168 -41.4054
L27.3178 -41.741
L27.308 -42.0758
L27.2873 -42.4097
L27.2561 -42.7426
L27.2146 -43.0742
L27.1631 -43.4045
L27.102 -43.7332
L27.0319 -44.0601
L26.953 -44.3852
L26.866 -44.7081
L26.7713 -45.0289
L26.6694 -45.3473
L26.5609 -45.6632
L26.4462 -45.9764
L26.3258 -46.2869
L26.2003 -46.5945
L26.07 -46.899
L25.9354 -47.2005
L25.797 -47.4988
L25.6551 -47.7937
L25.5102 -48.0853
L25.3626 -48.3735
L25.2126 -48.6581
L25.0606 -48.9392
L24.9068 -49.2167
L24.7514 -49.4906
L24.5949 -49.7607
L24.4373 -50.0272
L24.279 -50.29
L24.12 -50.5491
L23.9607 -50.8044
L23.801 -51.056
L23.6413 -51.3039
L23.4815 -51.5481
L23.3219 -51.7886
L23.1626 -52.0255
L23.0036 -52.2587
L22.8451 -52.4882
L22.687 -52.7142
L22.5296 -52.9367
L22.3728 -53.1556
L22.2167 -53.371
L22.0614 -53.583
L21.9068 -53.7917
L21.7531 -53.9969
L21.6002 -54.1989
L21.4481 -54.3976
L21.297 -54.5931
L21.1467 -54.7855
L20.9974 -54.9747
L20.8489 -55.1609
L20.7014 -55.344
L20.5548 -55.5242
L20.4091 -55.7015
L20.2643 -55.876
L20.1204 -56.0476
L19.9773 -56.2164
L19.8352 -56.3826
L19.6938 -56.546
L19.5533 -56.7069
L19.4136 -56.8652
L19.2747 -57.0209
L19.1366 -57.1741
L18.9992 -57.3249
L18.8625 -57.4733
L18.7265 -57.6193
L18.5912 -57.763
L18.4565 -57.9044
L18.3225 -58.0436
L17.7704 -58.1805
L17.3909 -57.9074
L17.017 -57.5859
L16.6489 -57.2578
L16.2866 -56.9233
L15.9304 -56.5824
L15.5803 -56.2352
L15.2365 -55.8818
L14.8989 -55.5224
L14.5678 -55.1571
L14.2432 -54.7859
L13.9252 -54.409
L13.614 -54.0265
L13.3096 -53.6385
L13.012 -53.2451
L12.7215 -52.8465
L12.4381 -52.4427
L12.1619 -52.0339
L11.8929 -51.6203
L11.6312 -51.2019
L11.377 -50.7788
L11.1303 -50.3513
L10.8912 -49.9194
L10.6597 -49.4832
L10.4359 -49.043
L10.2199 -48.5987
L10.0118 -48.1506
L9.81159 -47.6989
L9.61935 -47.2435
L9.43515 -46.7848
L9.25904 -46.3227
L9.09107 -45.8575
L8.9313 -45.3893
L8.77978 -44.9183
L8.63655 -44.4445
L8.50165 -43.9682
L8.37513 -43.4894
L8.25703 -43.0083
L8.14737 -42.5251
L8.0462 -42.04
L7.95355 -41.553
L7.86944 -41.0643
L7.7939 -40.574
L7.72694 -40.0824
L7.66861 -39.5895
L7.6189 -39.0955
L7.57783 -38.6006
L7.54543 -38.1049
L7.52169 -37.6085
L7.50662 -37.1117
L7.50024 -36.6145
L7.50254 -36.1171
L7.51352 -35.6197
L7.53317 -35.1224
L7.5615 -34.6254
L7.59848 -34.1288
L7.64413 -33.6327
L7.6984 -33.1374
L7.7613 -32.643
L7.8328 -32.1496
L7.91288 -31.6573
L8.00152 -31.1664
L8.09868 -30.6769
L8.20435 -30.1891
L8.31848 -29.703
L8.44104 -29.2189
L8.572 -28.7368
L8.71131 -28.257
L8.85893 -27.7795
L9.01482 -27.3045
L9.17894 -26.8321
L9.35122 -26.3625
L9.53162 -25.8959
L9.72008 -25.4324
L9.91655 -24.972
L10.121 -24.5151
L10.3333 -24.0616
L10.5534 -23.6118
L10.7812 -23.1657
L11.0168 -22.7236
L11.2599 -22.2855
L11.5106 -21.8515
L11.7688 -21.4219
L12.0343 -20.9967
L12.3071 -20.5761
L12.5872 -20.1602
L12.8744 -19.7491
L13.1686 -19.343
L13.4698 -18.9419
L13.7778 -18.5461
L14.0926 -18.1555
L14.4141 -17.7704
L14.7422 -17.3909
L15.0767 -17.017
z
" id="C0_2_f348793cf8"/>
    </defs>
    <g clip-path="url(#p1bffca34e9)">
     <use style="fill:#ffffff;stroke:#000000;stroke-width:2.0;" x="0.0" xlink:href="#C0_0_a811fe30f3" y="72.0"/>
    </g>
    <g clip-path="url(#p1bffca34e9)">
     <use style="fill:#ff0000;stroke:#000000;stroke-width:2.0;" x="0.0" xlink:href="#C0_1_721829686a" y="72.0"/>
    </g>
    <g clip-path="url(#p1bffca34e9)">
     <use style="fill:#ff0000;stroke:#000000;stroke-width:2.0;" x="0.0" xlink:href="#C0_2_f348793cf8" y="72.0"/>
    </g>
   </g>
  </g>
 </g>
 <defs>
  <clipPath id="p1bffca34e9">
   <rect height="72.0" width="72.0" x="0.0" y="0.0"/>
  </clipPath>
 </defs>
</svg>
