<?xml version="1.0" encoding="utf-8" standalone="no"?>
<!DOCTYPE svg PUBLIC "-//W3C//DTD SVG 1.1//EN"
  "http://www.w3.org/Graphics/SVG/1.1/DTD/svg11.dtd">
<!-- Created with matplotlib (http://matplotlib.org/) -->
<svg height="72pt" version="1.1" viewBox="0 0 72 72" width="72pt" xmlns="http://www.w3.org/2000/svg" xmlns:xlink="http://www.w3.org/1999/xlink">
 <defs>
  <style type="text/css">
*{stroke-linecap:butt;stroke-linejoin:round;}
  </style>
 </defs>
 <g id="figure_1">
  <g id="patch_1">
   <path d="
M0 72
L72 72
L72 0
L0 0
z
" style="fill:none;"/>
  </g>
  <g id="axes_1">
   <g id="PatchCollection_1">
    <defs>
     <path d="
M36 -7.5
C43.5583 -7.5 50.808 -10.5029 56.1525 -15.8475
C61.4971 -21.192 64.5 -28.4417 64.5 -36
C64.5 -43.5583 61.4971 -50.808 56.1525 -56.1525
C50.808 -61.4971 43.5583 -64.5 36 -64.5
C28.4417 -64.5 21.192 -61.4971 15.8475 -56.1525
C10.5029 -50.808 7.5 -43.5583 7.5 -36
C7.5 -28.4417 10.5029 -21.192 15.8475 -15.8475
C21.192 -10.5029 28.4417 -7.5 36 -7.5
z
" id="C0_0_a811fe30f3"/>
     <path d="
M46.8982 -9.77323
L46.6788 -9.9021
L46.4662 -10.0375
L46.2602 -10.1791
L46.0608 -10.3267
L45.8678 -10.4801
L45.681 -10.639
L45.5005 -10.8033
L45.3259 -10.9726
L45.1572 -11.1469
L44.9942 -11.3258
L44.8368 -11.5092
L44.6849 -11.6969
L44.5383 -11.8886
L44.3968 -12.0843
L44.2602 -12.2837
L44.1286 -12.4867
L44.0016 -12.6931
L43.8793 -12.9026
L43.7613 -13.1153
L43.6476 -13.3309
L43.538 -13.5492
L43.4325 -13.7702
L43.3308 -13.9937
L43.2329 -14.2196
L43.1386 -14.4477
L43.0477 -14.678
L42.9603 -14.9103
L42.8761 -15.1445
L42.795 -15.3805
L42.717 -15.6182
L42.6419 -15.8576
L42.5696 -16.0984
L42.5 -16.3408
L42.4331 -16.5844
L42.3687 -16.8294
L42.3068 -17.0756
L42.2472 -17.3229
L42.1899 -17.5714
L42.1348 -17.8208
L42.0818 -18.0712
L42.0309 -18.3225
L41.9819 -18.5746
L41.9349 -18.8276
L41.8897 -19.0813
L41.8463 -19.3357
L41.8047 -19.5909
L41.7647 -19.8466
L41.7263 -20.103
L41.6895 -20.3599
L41.6541 -20.6174
L41.6203 -20.8754
L41.5879 -21.1339
L41.5568 -21.3929
L41.5271 -21.6523
L41.4987 -21.9122
L41.4716 -22.1725
L41.4456 -22.4332
L41.4209 -22.6943
L41.3973 -22.9557
L41.3749 -23.2176
L41.3535 -23.4798
L41.3332 -23.7423
L41.314 -24.0052
L41.2958 -24.2684
L41.2786 -24.532
L41.2623 -24.7959
L41.2471 -25.0602
L41.2327 -25.3248
L41.2193 -25.5898
L41.2068 -25.855
L41.1951 -26.1207
L41.1844 -26.3867
L41.1745 -26.653
L41.1654 -26.9197
L41.1572 -27.1868
L41.1498 -27.4542
L41.1433 -27.722
L41.1375 -27.9902
L41.1284 -28.2588
L41.1251 -28.5278
L41.1225 -28.7972
L41.1207 -29.067
L41.1197 -29.3373
L41.1195 -29.608
L41.1201 -29.8791
L41.1215 -30.1506
L41.1236 -30.4227
L41.1266 -30.6952
L41.1303 -30.9681
L41.1349 -31.2416
L41.1402 -31.5155
L41.1464 -31.79
L41.1534 -32.0649
L41.1612 -32.3404
L41.1698 -32.6164
L41.1793 -32.8928
L41.1897 -33.1699
L41.2009 -33.4474
L41.2131 -33.7255
L41.2261 -34.0041
L41.24 -34.2833
L41.2549 -34.5629
L41.2708 -34.8432
L41.2876 -35.1239
L41.3054 -35.4052
L41.3243 -35.687
L41.3442 -35.9693
L41.3651 -36.2521
L41.3872 -36.5354
L41.4103 -36.8193
L41.4347 -37.1036
L41.4602 -37.3883
L41.4869 -37.6735
L41.5149 -37.9591
L41.5441 -38.2452
L41.5747 -38.5316
L41.6067 -38.8183
L41.64 -39.1054
L41.6748 -39.3929
L41.7111 -39.6805
L41.7489 -39.9684
L41.7883 -40.2565
L41.8293 -40.5448
L41.872 -40.8332
L41.9165 -41.1216
L41.9627 -41.4101
L42.0108 -41.6985
L42.0608 -41.9868
L42.1127 -42.275
L42.1667 -42.563
L42.2228 -42.8507
L42.2811 -43.138
L42.3415 -43.4249
L42.4043 -43.7113
L42.4695 -43.9972
L42.5371 -44.2823
L42.6072 -44.5667
L42.6799 -44.8503
L42.7554 -45.1329
L42.8335 -45.4145
L42.9146 -45.695
L42.9985 -45.9742
L43.0855 -46.252
L43.1755 -46.5283
L43.2688 -46.8031
L43.3653 -47.0761
L43.4651 -47.3473
L43.5684 -47.6166
L43.6752 -47.8837
L43.7856 -48.1486
L43.8997 -48.4111
L44.0176 -48.6711
L44.1393 -48.9285
L44.2649 -49.1831
L44.3945 -49.4347
L44.5282 -49.6833
L44.666 -49.9286
L44.808 -50.1705
L44.9542 -50.4088
L45.1047 -50.6435
L45.2596 -50.8744
L45.4189 -51.1012
L45.5826 -51.3239
L45.7508 -51.5423
L45.9235 -51.7562
L46.1006 -51.9656
L46.2823 -52.1702
L46.4685 -52.3699
L46.6592 -52.5647
L46.8544 -52.7542
L47.0541 -52.9384
L47.2582 -53.1172
L47.4667 -53.2905
L47.6796 -53.458
L47.8968 -53.6197
L48.1183 -53.7755
L48.344 -53.9253
L48.5737 -54.0689
L48.8075 -54.2063
L49.0453 -54.3373
L49.2869 -54.4618
L49.5323 -54.5798
L49.7814 -54.6912
L50.0339 -54.7959
L50.2899 -54.8938
L50.5493 -54.9848
L50.8118 -55.0689
L51.0773 -55.1461
L51.3458 -55.2162
L51.6171 -55.2792
L51.891 -55.3351
L52.1674 -55.3839
L52.4463 -55.4254
L52.7273 -55.4596
L53.0105 -55.4866
L53.2956 -55.5063
L53.5825 -55.5186
L53.8711 -55.5236
L54.1612 -55.5212
L54.4526 -55.5114
L54.7453 -55.4943
L55.0391 -55.4697
L55.3338 -55.4377
L55.6294 -55.3984
L55.9256 -55.3515
L56.2223 -55.2973
L56.5194 -55.2357
L56.8168 -55.1666
L57.1143 -55.0901
L57.5118 -55.0062
L57.8347 -54.6948
L58.1511 -54.3165
L58.4607 -53.9326
L58.7634 -53.5433
L59.0593 -53.1486
L59.348 -52.7488
L59.6297 -52.3438
L59.9042 -51.9338
L60.1714 -51.519
L60.4313 -51.0994
L60.6837 -50.6753
L60.9285 -50.2467
L61.1658 -49.8137
L61.3954 -49.3765
L61.6173 -48.9353
L61.8314 -48.4901
L62.0376 -48.0411
L62.2359 -47.5885
L62.4262 -47.1323
L62.6084 -46.6727
L62.7826 -46.2099
L62.9485 -45.7439
L63.1063 -45.275
L63.2558 -44.8033
L63.397 -44.3289
L63.5299 -43.852
L63.6544 -43.3726
L63.7704 -42.891
L63.878 -42.4073
L63.9771 -41.9217
L64.0677 -41.4343
L64.1497 -40.9452
L64.2232 -40.4546
L64.288 -39.9626
L64.3443 -39.4694
L64.3919 -38.9752
L64.4308 -38.4801
L64.4611 -37.9842
L64.4828 -37.4877
L64.4957 -36.9908
L64.5 -36.4935
L64.4956 -35.9961
L64.4825 -35.4987
L64.4607 -35.0015
L64.4303 -34.5046
L64.3912 -34.0081
L64.3435 -33.5122
L64.2871 -33.0171
L64.2221 -32.5229
L64.1485 -32.0297
L64.0664 -31.5378
L63.9756 -31.0472
L63.8764 -30.5582
L63.7687 -30.0707
L63.6525 -29.5851
L63.5279 -29.1015
L63.3949 -28.6199
L63.2536 -28.1406
L63.1039 -27.6637
L62.946 -27.1893
L62.7799 -26.7177
L62.6057 -26.2488
L62.4233 -25.7829
L62.2329 -25.3201
L62.0345 -24.8606
L61.8281 -24.4045
L61.6139 -23.9519
L61.3919 -23.503
L61.1622 -23.0578
L60.9248 -22.6167
L60.6798 -22.1796
L60.4273 -21.7467
L60.1673 -21.3181
L59.9 -20.894
L59.6254 -20.4746
L59.3436 -20.0598
L59.0547 -19.6499
L58.7588 -19.245
L58.4559 -18.8452
L58.1462 -18.4506
L57.8298 -18.0614
L57.5067 -17.6776
L57.177 -17.2994
L56.8409 -16.9269
L56.4985 -16.5602
L56.1498 -16.1995
L55.795 -15.8447
L55.4341 -15.4961
L55.0674 -15.1538
L54.6948 -14.8178
L54.3165 -14.4882
L53.9326 -14.1653
L53.5433 -13.8489
L53.1486 -13.5393
L52.7488 -13.2366
L52.3438 -12.9407
L51.9338 -12.652
L51.519 -12.3703
L51.0994 -12.0958
L50.6753 -11.8286
L50.2467 -11.5687
L49.8137 -11.3163
L49.3765 -11.0715
L48.9353 -10.8342
L48.4901 -10.6046
L48.0411 -10.3827
L47.5885 -10.1686
z
" id="C0_1_d6d35e1c68"/>
     <path d="
M14.6931 -17.1777
L14.6379 -17.4845
L14.5845 -17.792
L14.5329 -18.1001
L14.4832 -18.4087
L14.4354 -18.7179
L14.3895 -19.0274
L14.3456 -19.3374
L14.3037 -19.6477
L14.2638 -19.9583
L14.226 -20.2692
L14.1901 -20.5802
L14.1564 -20.8914
L14.1246 -21.2028
L14.095 -21.5142
L14.0674 -21.8257
L14.042 -22.1372
L14.0186 -22.4487
L13.9973 -22.7602
L13.978 -23.0717
L13.9609 -23.3831
L13.9459 -23.6944
L13.9329 -24.0056
L13.922 -24.3167
L13.9132 -24.6277
L13.9065 -24.9386
L13.9018 -25.2493
L13.8992 -25.5598
L13.8986 -25.8702
L13.9001 -26.1805
L13.9036 -26.4906
L13.9091 -26.8005
L13.9167 -27.1102
L13.9263 -27.4198
L13.9379 -27.7292
L13.9515 -28.0385
L13.9671 -28.3476
L13.9846 -28.6566
L14.0042 -28.9654
L14.0257 -29.2741
L14.0492 -29.5827
L14.0747 -29.8911
L14.1021 -30.1994
L14.1315 -30.5077
L14.1629 -30.8158
L14.1961 -31.1238
L14.2313 -31.4318
L14.2685 -31.7398
L14.3076 -32.0476
L14.3486 -32.3555
L14.3915 -32.6633
L14.4364 -32.9711
L14.4832 -33.2789
L14.5319 -33.5868
L14.5825 -33.8946
L14.635 -34.2025
L14.6895 -34.5105
L14.7458 -34.8185
L14.8041 -35.1266
L14.8643 -35.4348
L14.9264 -35.7431
L14.9904 -36.0515
L15.0563 -36.36
L15.1241 -36.6686
L15.1938 -36.9774
L15.2655 -37.2864
L15.339 -37.5955
L15.4145 -37.9048
L15.4918 -38.2142
L15.5711 -38.5239
L15.6523 -38.8337
L15.7354 -39.1437
L15.8204 -39.454
L15.9072 -39.7644
L15.996 -40.0751
L16.0867 -40.386
L16.1792 -40.697
L16.2737 -41.0083
L16.37 -41.3198
L16.4682 -41.6315
L16.5682 -41.9435
L16.6701 -42.2556
L16.7738 -42.5679
L16.8794 -42.8804
L16.9867 -43.1931
L17.0959 -43.506
L17.2068 -43.819
L17.3195 -44.1322
L17.434 -44.4455
L17.5501 -44.7589
L17.668 -45.0724
L17.7875 -45.386
L17.9087 -45.6997
L18.0314 -46.0134
L18.1558 -46.3271
L18.2816 -46.6408
L18.409 -46.9545
L18.5377 -47.2681
L18.6679 -47.5817
L18.7995 -47.8951
L18.9323 -48.2083
L19.0663 -48.5214
L19.2016 -48.8343
L19.3379 -49.1469
L19.4753 -49.4591
L19.6136 -49.7711
L19.7529 -50.0827
L19.8929 -50.3938
L20.0337 -50.7045
L20.1751 -51.0147
L20.3171 -51.3243
L20.4595 -51.6333
L20.6022 -51.9417
L20.7452 -52.2494
L20.8884 -52.5563
L21.0316 -52.8624
L21.1747 -53.1676
L21.3175 -53.472
L21.4601 -53.7754
L21.6022 -54.0778
L21.7438 -54.3791
L21.8846 -54.6793
L22.0246 -54.9783
L22.1637 -55.2761
L22.3016 -55.5727
L22.4383 -55.8678
L22.5737 -56.1616
L22.7075 -56.454
L22.8398 -56.7448
L22.9702 -57.0341
L23.0988 -57.3218
L23.2253 -57.6078
L23.3497 -57.892
L23.4717 -58.1745
L23.5914 -58.4552
L23.7085 -58.734
L23.823 -59.0108
L23.9348 -59.2856
L24.0436 -59.5584
L24.1495 -59.8291
L24.2524 -60.0977
L24.352 -60.364
L24.4484 -60.6281
L24.5415 -60.8899
L24.6312 -61.1493
L24.7174 -61.4064
L24.8 -61.6609
L24.879 -61.913
L24.4584 -62.1625
L24.0053 -62.0584
L23.556 -61.853
L23.1104 -61.6397
L22.6687 -61.4187
L22.2311 -61.1898
L21.7977 -60.9533
L21.3687 -60.7092
L20.9441 -60.4576
L20.524 -60.1985
L20.1087 -59.9321
L19.6982 -59.6583
L19.2927 -59.3774
L18.8923 -59.0893
L18.4971 -58.7942
L18.1072 -58.4922
L17.7228 -58.1833
L17.3439 -57.8676
L16.9708 -57.5453
L16.6034 -57.2165
L16.2419 -56.8811
L15.8865 -56.5394
L15.5371 -56.1915
L15.194 -55.8374
L14.8573 -55.4772
L14.527 -55.1111
L14.2032 -54.7392
L13.8861 -54.3616
L13.5757 -53.9784
L13.2721 -53.5897
L12.9754 -53.1957
L12.6858 -52.7964
L12.4033 -52.392
L12.1279 -51.9827
L11.8599 -51.5684
L11.5992 -51.1494
L11.3459 -50.7258
L11.1001 -50.2977
L10.8619 -49.8652
L10.6314 -49.4286
L10.4086 -48.9878
L10.1936 -48.5431
L9.98642 -48.0945
L9.78719 -47.6423
L9.59595 -47.1865
L9.41276 -46.7274
L9.23766 -46.2649
L9.07071 -45.7993
L8.91197 -45.3308
L8.76148 -44.8594
L8.61928 -44.3853
L8.48543 -43.9086
L8.35995 -43.4296
L8.2429 -42.9482
L8.1343 -42.4648
L8.03419 -41.9794
L7.9426 -41.4921
L7.85956 -41.0032
L7.78508 -40.5128
L7.7192 -40.021
L7.66194 -39.528
L7.61331 -39.0339
L7.57332 -38.5388
L7.542 -38.043
L7.51934 -37.5466
L7.50536 -37.0497
L7.50005 -36.5525
L7.50343 -36.0551
L7.51549 -35.5577
L7.53623 -35.0604
L7.56563 -34.5635
L7.6037 -34.0669
L7.65042 -33.571
L7.70577 -33.0757
L7.76974 -32.5814
L7.84231 -32.0881
L7.92346 -31.5961
L8.01316 -31.1053
L8.11139 -30.616
L8.21811 -30.1284
L8.33329 -29.6426
L8.4569 -29.1587
L8.5889 -28.6769
L8.72925 -28.1973
L8.87791 -27.7201
L9.03483 -27.2454
L9.19996 -26.7734
L9.37326 -26.3042
L9.55467 -25.838
L9.74413 -25.3748
L9.94159 -24.9149
L10.147 -24.4584
L10.3603 -24.0053
L10.5813 -23.556
L10.8102 -23.1104
L11.0467 -22.6687
L11.2908 -22.2311
L11.5424 -21.7977
L11.8015 -21.3687
L12.0679 -20.9441
L12.3417 -20.524
L12.6226 -20.1087
L12.9107 -19.6982
L13.2058 -19.2927
L13.5078 -18.8923
L13.8167 -18.4971
L14.1324 -18.1072
z
" id="C0_2_2ab898f25b"/>
    </defs>
    <g clip-path="url(#p1bffca34e9)">
     <use style="fill:#ff0000;stroke:#000000;stroke-width:2.0;" x="0.0" xlink:href="#C0_0_a811fe30f3" y="72.0"/>
    </g>
    <g clip-path="url(#p1bffca34e9)">
     <use style="fill:#ffffff;stroke:#000000;stroke-width:2.0;" x="0.0" xlink:href="#C0_1_d6d35e1c68" y="72.0"/>
    </g>
    <g clip-path="url(#p1bffca34e9)">
     <use style="fill:#ffffff;stroke:#000000;stroke-width:2.0;" x="0.0" xlink:href="#C0_2_2ab898f25b" y="72.0"/>
    </g>
   </g>
  </g>
 </g>
 <defs>
  <clipPath id="p1bffca34e9">
   <rect height="72.0" width="72.0" x="0.0" y="0.0"/>
  </clipPath>
 </defs>
</svg>
