<?xml version="1.0" encoding="utf-8" standalone="no"?>
<!DOCTYPE svg PUBLIC "-//W3C//DTD SVG 1.1//EN"
  "http://www.w3.org/Graphics/SVG/1.1/DTD/svg11.dtd">
<!-- Created with matplotlib (http://matplotlib.org/) -->
<svg height="72pt" version="1.1" viewBox="0 0 72 72" width="72pt" xmlns="http://www.w3.org/2000/svg" xmlns:xlink="http://www.w3.org/1999/xlink">
 <defs>
  <style type="text/css">
*{stroke-linecap:butt;stroke-linejoin:round;}
  </style>
 </defs>
 <g id="figure_1">
  <g id="patch_1">
   <path d="
M0 72
L72 72
L72 0
L0 0
z
" style="fill:none;"/>
  </g>
  <g id="axes_1">
   <g id="PatchCollection_1">
    <defs>
     <path d="
M36 -7.5
C43.5583 -7.5 50.808 -10.5029 56.1525 -15.8475
C61.4971 -21.192 64.5 -28.4417 64.5 -36
C64.5 -43.5583 61.4971 -50.808 56.1525 -56.1525
C50.808 -61.4971 43.5583 -64.5 36 -64.5
C28.4417 -64.5 21.192 -61.4971 15.8475 -56.1525
C10.5029 -50.808 7.5 -43.5583 7.5 -36
C7.5 -28.4417 10.5029 -21.192 15.8475 -15.8475
C21.192 -10.5029 28.4417 -7.5 36 -7.5
z
" id="C0_0_a811fe30f3"/>
     <path d="
M47.1221 -32.3211
L47.0111 -32.0843
L46.8986 -31.8479
L46.7847 -31.6121
L46.6694 -31.3767
L46.5526 -31.1417
L46.4344 -30.907
L46.3145 -30.6725
L46.1931 -30.4383
L46.0701 -30.2043
L45.9454 -29.9703
L45.8191 -29.7365
L45.691 -29.5026
L45.5611 -29.2688
L45.4294 -29.0348
L45.2958 -28.8008
L45.1604 -28.5666
L45.0229 -28.3322
L44.8834 -28.0975
L44.7418 -27.8626
L44.5981 -27.6273
L44.4522 -27.3917
L44.304 -27.1556
L44.1535 -26.9191
L44.0007 -26.6822
L43.8453 -26.4448
L43.6875 -26.2068
L43.5271 -25.9682
L43.364 -25.7291
L43.1981 -25.4893
L43.0295 -25.2489
L42.858 -25.0079
L42.6835 -24.7662
L42.5059 -24.5238
L42.3252 -24.2807
L42.1413 -24.0369
L41.954 -23.7924
L41.7634 -23.5472
L41.5693 -23.3012
L41.3716 -23.0546
L41.1702 -22.8073
L40.965 -22.5594
L40.756 -22.3108
L40.5429 -22.0616
L40.3259 -21.8118
L40.1046 -21.5615
L39.8791 -21.3108
L39.6491 -21.0596
L39.4147 -20.8081
L39.1758 -20.5563
L38.9321 -20.3043
L38.6837 -20.0522
L38.4303 -19.8002
L38.172 -19.5482
L37.9086 -19.2966
L37.64 -19.0453
L37.3662 -18.7947
L37.087 -18.5447
L36.8024 -18.2957
L36.5122 -18.0478
L36.2165 -17.8013
L35.9151 -17.5563
L35.6079 -17.3133
L35.295 -17.0723
L34.9763 -16.8338
L34.6516 -16.5982
L34.3211 -16.3656
L33.9847 -16.1366
L33.6424 -15.9116
L33.2941 -15.691
L32.94 -15.4753
L32.58 -15.2652
L32.2143 -15.0611
L31.8428 -14.8638
L31.4657 -14.674
L31.0832 -14.4925
L30.6953 -14.3203
L30.3023 -14.1583
L29.9044 -14.0076
L29.5018 -13.8695
L29.0949 -13.7455
L28.684 -13.6372
L28.2697 -13.5463
L27.8524 -13.4748
L27.4328 -13.4248
L27.0116 -13.3987
L26.5897 -13.3987
L26.1681 -13.4271
L25.7479 -13.4859
L25.3303 -13.5767
L24.9166 -13.7004
L24.508 -13.8571
L24.1058 -14.0464
L23.7111 -14.2668
L23.3249 -14.5163
L22.9481 -14.7926
L22.5812 -15.0931
L22.225 -15.4152
L21.8796 -15.7563
L21.5456 -16.1141
L21.223 -16.4862
L20.912 -16.8708
L20.6126 -17.2661
L20.3249 -17.6704
L20.0488 -18.0823
L19.7841 -18.5007
L19.5309 -18.9242
L19.289 -19.3521
L19.0582 -19.7832
L18.8383 -20.217
L18.6291 -20.6525
L18.4305 -21.0892
L18.2421 -21.5264
L18.0639 -21.9637
L17.8954 -22.4006
L17.7366 -22.8366
L17.587 -23.2713
L17.4466 -23.7044
L17.3149 -24.1356
L17.1918 -24.5645
L17.0771 -24.991
L16.9704 -25.4148
L16.8714 -25.8358
L16.7801 -26.2536
L16.696 -26.6683
L16.619 -27.0796
L16.5488 -27.4875
L16.4852 -27.8919
L16.428 -28.2926
L16.3769 -28.6897
L16.3318 -29.083
L16.2924 -29.4726
L16.2585 -29.8584
L16.23 -30.2403
L16.2066 -30.6185
L16.1882 -30.9929
L16.1745 -31.3636
L16.1655 -31.7304
L16.161 -32.0935
L16.1608 -32.453
L16.1647 -32.8088
L16.1727 -33.1609
L16.1846 -33.5095
L16.2002 -33.8546
L16.2195 -34.1962
L16.2424 -34.5345
L16.2687 -34.8694
L16.2983 -35.201
L16.3311 -35.5294
L16.3671 -35.8547
L16.4061 -36.1769
L16.4481 -36.4961
L16.493 -36.8124
L16.5407 -37.1258
L16.5912 -37.4365
L16.6443 -37.7444
L16.7001 -38.0497
L16.7585 -38.3524
L16.8194 -38.6526
L16.8828 -38.9504
L16.9487 -39.2458
L17.017 -39.539
L17.0876 -39.83
L17.1606 -40.1188
L17.236 -40.4056
L17.3136 -40.6903
L17.3935 -40.9732
L17.4756 -41.2541
L17.56 -41.5333
L17.6467 -41.8108
L17.7356 -42.0866
L17.8267 -42.3608
L17.92 -42.6335
L18.0156 -42.9047
L18.1134 -43.1745
L18.2134 -43.443
L18.3157 -43.7102
L18.4202 -43.9761
L18.527 -44.2409
L18.6362 -44.5046
L18.7476 -44.7673
L18.8614 -45.0289
L18.9775 -45.2896
L19.0961 -45.5494
L19.2171 -45.8083
L19.3405 -46.0665
L19.4665 -46.3239
L19.595 -46.5806
L19.726 -46.8367
L19.8597 -47.0922
L19.9961 -47.3471
L20.1352 -47.6015
L20.2771 -47.8554
L20.4218 -48.1088
L20.5695 -48.3619
L20.72 -48.6146
L20.8736 -48.8669
L21.0303 -49.119
L21.1902 -49.3707
L21.3533 -49.6222
L21.5197 -49.8735
L21.6895 -50.1245
L21.8628 -50.3754
L22.0396 -50.6261
L22.2201 -50.8767
L22.4044 -51.1271
L22.5924 -51.3773
L22.7844 -51.6275
L22.9805 -51.8775
L23.1807 -52.1273
L23.3851 -52.377
L23.5939 -52.6266
L23.8072 -52.8759
L24.0251 -53.1251
L24.2477 -53.3741
L24.4751 -53.6228
L24.7075 -53.8712
L24.945 -54.1193
L25.1877 -54.3669
L25.4358 -54.6142
L25.6894 -54.8609
L25.9485 -55.1071
L26.2135 -55.3525
L26.4844 -55.5973
L26.7613 -55.8411
L27.0444 -56.084
L27.3339 -56.3259
L27.6299 -56.5665
L27.9325 -56.8057
L28.2418 -57.0435
L28.5581 -57.2795
L28.8814 -57.5137
L29.2118 -57.7459
L29.5496 -57.9758
L29.8948 -58.2032
L30.2476 -58.4279
L30.608 -58.6496
L30.9762 -58.868
L31.3522 -59.0829
L31.7361 -59.2939
L32.1281 -59.5008
L32.528 -59.7031
L32.9361 -59.9006
L33.3522 -60.0927
L33.7763 -60.2791
L34.2085 -60.4594
L34.6487 -60.6331
L35.0967 -60.7997
L35.5524 -60.9586
L36.0157 -61.1095
L36.4863 -61.2517
L36.964 -61.3845
L37.4484 -61.5074
L37.9391 -61.6198
L38.4356 -61.7208
L38.9374 -61.8098
L39.4439 -61.886
L39.9542 -61.9485
L40.4674 -61.9964
L40.9825 -62.0288
L41.4983 -62.0446
L42.0133 -62.0427
L42.526 -62.022
L43.0344 -61.9812
L43.5365 -61.9191
L44.03 -61.8345
L44.5124 -61.7261
L44.9813 -61.593
L45.4341 -61.4344
L45.8684 -61.25
L46.2824 -61.0399
L46.6746 -60.8048
L47.0441 -60.5458
L47.3905 -60.2646
L47.7142 -59.9632
L48.0159 -59.6437
L48.2963 -59.3083
L48.5568 -58.959
L48.7984 -58.598
L49.0223 -58.2271
L49.2296 -57.8477
L49.4215 -57.4616
L49.5988 -57.0698
L49.7626 -56.6735
L49.9135 -56.2738
L50.0523 -55.8715
L50.1797 -55.4673
L50.2963 -55.062
L50.4027 -54.6561
L50.4994 -54.2503
L50.5868 -53.8449
L50.6656 -53.4404
L50.736 -53.0371
L50.7985 -52.6355
L50.8534 -52.2357
L50.9012 -51.8382
L50.9421 -51.443
L50.9765 -51.0505
L51.0046 -50.6607
L51.0269 -50.2739
L51.0435 -49.8902
L51.0548 -49.5097
L51.0609 -49.1325
L51.0622 -48.7588
L51.0588 -48.3884
L51.051 -48.0217
L51.039 -47.6585
L51.0229 -47.2988
L51.003 -46.9429
L50.9795 -46.5905
L50.9525 -46.2418
L50.9221 -45.8967
L50.8886 -45.5552
L50.8521 -45.2173
L50.8127 -44.8829
L50.7706 -44.5521
L50.7258 -44.2247
L50.6785 -43.9008
L50.6288 -43.5803
L50.5768 -43.2632
L50.5226 -42.9493
L50.4663 -42.6386
L50.4079 -42.3312
L50.3476 -42.0268
L50.2855 -41.7255
L50.2215 -41.4271
L50.1558 -41.1317
L50.0884 -40.8391
L50.0194 -40.5493
L49.9489 -40.2622
L49.8768 -39.9777
L49.8032 -39.6958
L49.7283 -39.4164
L49.6519 -39.1394
L49.5741 -38.8647
L49.4951 -38.5923
L49.4147 -38.3221
L49.333 -38.0541
L49.2501 -37.7881
L49.166 -37.5241
L49.0806 -37.262
L48.994 -37.0018
L48.9062 -36.7433
L48.8173 -36.4866
L48.7271 -36.2315
L48.6358 -35.978
L48.5433 -35.726
L48.4497 -35.4755
L48.3548 -35.2263
L48.2588 -34.9785
L48.1616 -34.7319
L48.0632 -34.4864
L47.9637 -34.2422
L47.8629 -33.9989
L47.7609 -33.7567
L47.6576 -33.5154
L47.5531 -33.275
L47.4473 -33.0355
L47.3402 -32.7967
z
" id="C0_1_8e9bffac7b"/>
    </defs>
    <g clip-path="url(#p1bffca34e9)">
     <use style="fill:#ffffff;stroke:#000000;stroke-width:2.0;" x="0.0" xlink:href="#C0_0_a811fe30f3" y="72.0"/>
    </g>
    <g clip-path="url(#p1bffca34e9)">
     <use style="fill:#ff0000;stroke:#000000;stroke-width:2.0;" x="0.0" xlink:href="#C0_1_8e9bffac7b" y="72.0"/>
    </g>
   </g>
  </g>
 </g>
 <defs>
  <clipPath id="p1bffca34e9">
   <rect height="72.0" width="72.0" x="0.0" y="0.0"/>
  </clipPath>
 </defs>
</svg>
