<?xml version="1.0" encoding="utf-8" standalone="no"?>
<!DOCTYPE svg PUBLIC "-//W3C//DTD SVG 1.1//EN"
  "http://www.w3.org/Graphics/SVG/1.1/DTD/svg11.dtd">
<!-- Created with matplotlib (http://matplotlib.org/) -->
<svg height="72pt" version="1.1" viewBox="0 0 72 72" width="72pt" xmlns="http://www.w3.org/2000/svg" xmlns:xlink="http://www.w3.org/1999/xlink">
 <defs>
  <style type="text/css">
*{stroke-linecap:butt;stroke-linejoin:round;}
  </style>
 </defs>
 <g id="figure_1">
  <g id="patch_1">
   <path d="
M0 72
L72 72
L72 0
L0 0
z
" style="fill:none;"/>
  </g>
  <g id="axes_1">
   <g id="PatchCollection_1">
    <defs>
     <path d="
M36 -7.5
C43.5583 -7.5 50.808 -10.5029 56.1525 -15.8475
C61.4971 -21.192 64.5 -28.4417 64.5 -36
C64.5 -43.5583 61.4971 -50.808 56.1525 -56.1525
C50.808 -61.4971 43.5583 -64.5 36 -64.5
C28.4417 -64.5 21.192 -61.4971 15.8475 -56.1525
C10.5029 -50.808 7.5 -43.5583 7.5 -36
C7.5 -28.4417 10.5029 -21.192 15.8475 -15.8475
C21.192 -10.5029 28.4417 -7.5 36 -7.5
z
" id="C0_0_a811fe30f3"/>
     <path d="
M56.805 -55.3002
L56.6318 -55.1307
L56.4724 -54.9421
L56.3258 -54.7355
L56.1912 -54.5121
L56.0677 -54.2729
L55.9541 -54.0193
L55.8494 -53.7525
L55.7526 -53.4736
L55.6625 -53.1838
L55.5783 -52.8843
L55.4991 -52.5761
L55.4239 -52.2603
L55.352 -51.9377
L55.2827 -51.6094
L55.2153 -51.2761
L55.1493 -50.9386
L55.0842 -50.5977
L55.0195 -50.2539
L54.9549 -49.9079
L54.8901 -49.5602
L54.8246 -49.2113
L54.7584 -48.8617
L54.6912 -48.5118
L54.6229 -48.162
L54.5533 -47.8126
L54.4823 -47.4639
L54.4098 -47.1162
L54.3358 -46.7698
L54.2603 -46.4248
L54.1831 -46.0815
L54.1043 -45.74
L54.0239 -45.4005
L53.9419 -45.0632
L53.8583 -44.7281
L53.773 -44.3953
L53.6862 -44.065
L53.5979 -43.7372
L53.5081 -43.412
L53.4168 -43.0894
L53.324 -42.7695
L53.2299 -42.4522
L53.1344 -42.1377
L53.0376 -41.8259
L52.9395 -41.5168
L52.8401 -41.2105
L52.7395 -40.9068
L52.6378 -40.6059
L52.5349 -40.3076
L52.4308 -40.012
L52.3257 -39.7191
L52.2196 -39.4287
L52.1124 -39.1409
L52.0042 -38.8556
L51.895 -38.5729
L51.7849 -38.2925
L51.6739 -38.0146
L51.5619 -37.739
L51.449 -37.4657
L51.3353 -37.1947
L51.2207 -36.9259
L51.1052 -36.6592
L50.9888 -36.3947
L50.8717 -36.1322
L50.7536 -35.8717
L50.6348 -35.6131
L50.5151 -35.3564
L50.3946 -35.1015
L50.2732 -34.8484
L50.151 -34.5971
L50.028 -34.3473
L49.9041 -34.0992
L49.7794 -33.8527
L49.6538 -33.6077
L49.5274 -33.364
L49.4001 -33.1218
L49.2718 -32.881
L49.1427 -32.6414
L49.0127 -32.403
L48.8817 -32.1658
L48.7498 -31.9297
L48.6169 -31.6948
L48.483 -31.4608
L48.3481 -31.2278
L48.2121 -30.9957
L48.0751 -30.7645
L47.937 -30.5341
L47.6575 -30.3045
L47.516 -30.0756
L47.3734 -29.8474
L47.2295 -29.6199
L47.0843 -29.3929
L46.9379 -29.1664
L46.7901 -28.9405
L46.641 -28.715
L46.4905 -28.4899
L46.3386 -28.2652
L46.1853 -28.0408
L46.0304 -27.8167
L45.874 -27.5928
L45.716 -27.3692
L45.5564 -27.1457
L45.3951 -26.9223
L45.2321 -26.699
L45.0674 -26.4758
L44.9009 -26.2526
L44.7326 -26.0294
L44.5623 -25.8062
L44.3902 -25.5828
L44.216 -25.3594
L44.0398 -25.1358
L43.8616 -24.9121
L43.6812 -24.6882
L43.4987 -24.4641
L43.3139 -24.2397
L43.1268 -24.015
L42.9374 -23.7901
L42.7457 -23.5649
L42.5515 -23.3394
L42.3548 -23.1135
L42.1556 -22.8873
L41.9538 -22.6608
L41.7494 -22.4338
L41.5423 -22.2066
L41.3326 -21.9789
L41.12 -21.7509
L40.9046 -21.5225
L40.6864 -21.2937
L40.4653 -21.0646
L40.2413 -20.8351
L40.0143 -20.6053
L39.7843 -20.3752
L39.5514 -20.1447
L39.3154 -19.914
L39.0764 -19.6831
L38.8344 -19.4519
L38.5893 -19.2205
L38.3412 -18.989
L38.0901 -18.7574
L37.836 -18.5257
L37.579 -18.2939
L37.3191 -18.0622
L37.0564 -17.8306
L36.7909 -17.5991
L36.5229 -17.3678
L36.2523 -17.1367
L35.9793 -16.906
L35.7041 -16.6756
L35.4269 -16.4456
L35.1479 -16.2161
L34.8673 -15.9872
L34.5854 -15.7588
L34.3025 -15.5311
L34.019 -15.3041
L33.7353 -15.0778
L33.4518 -14.8522
L33.169 -14.6274
L32.8876 -14.4033
L32.608 -14.18
L32.331 -13.9573
L32.0573 -13.7353
L31.7878 -13.5139
L31.5233 -13.2929
L31.2649 -13.0723
L31.0136 -12.8518
L30.7706 -12.6312
L30.5371 -12.4103
L30.3144 -12.1889
L30.1039 -11.9667
L29.907 -11.7433
L29.7252 -11.5183
L29.5599 -11.2916
L29.4126 -11.0626
L29.2847 -10.8311
L29.1775 -10.5968
L29.0922 -10.3594
L29.03 -10.1186
L28.9916 -9.87452
L28.9779 -9.62696
L28.9891 -9.37604
L29.0257 -9.12194
L29.0877 -8.86493
L29.1748 -8.6054
L29.6554 -8.34383
L30.1413 -8.21519
L30.6289 -8.10869
L31.1182 -8.01069
L31.609 -7.92121
L32.1011 -7.84029
L32.5944 -7.76795
L33.0888 -7.7042
L33.584 -7.64908
L34.08 -7.60259
L34.5765 -7.56475
L35.0735 -7.53557
L35.5708 -7.51506
L36.0682 -7.50323
L36.5656 -7.50008
L37.0628 -7.50561
L37.5597 -7.51982
L38.0561 -7.54271
L38.5519 -7.57426
L39.0469 -7.61448
L39.541 -7.66334
L40.034 -7.72083
L40.5257 -7.78693
L41.0161 -7.86163
L41.505 -7.9449
L41.9922 -8.03672
L42.4775 -8.13705
L42.9609 -8.24588
L43.4422 -8.36315
L43.9212 -8.48885
L44.3978 -8.62292
L44.8718 -8.76534
L45.3432 -8.91604
L45.8116 -9.075
L46.2771 -9.24217
L46.7395 -9.41748
L47.1986 -9.60089
L47.6543 -9.79234
L48.1064 -9.99177
L48.5548 -10.1991
L48.9995 -10.4143
L49.4401 -10.6374
L49.8767 -10.8681
L50.309 -11.1065
L50.737 -11.3525
L51.1605 -11.6059
L51.5794 -11.8668
L51.9935 -12.1351
L52.4028 -12.4106
L52.807 -12.6934
L53.2062 -12.9832
L53.6001 -13.28
L53.9886 -13.5838
L54.3716 -13.8943
L54.7491 -14.2116
L55.1209 -14.5356
L55.4868 -14.8661
L55.8468 -15.203
L56.2007 -15.5463
L56.5485 -15.8957
L56.89 -16.2514
L57.2252 -16.613
L57.5539 -16.9805
L57.876 -17.3538
L58.1915 -17.7329
L58.5002 -18.1174
L58.8021 -18.5074
L59.097 -18.9028
L59.3849 -19.3034
L59.6656 -19.709
L59.9392 -20.1196
L60.2054 -20.535
L60.4643 -20.9552
L60.7158 -21.3799
L60.9597 -21.8091
L61.196 -22.2426
L61.4246 -22.6803
L61.6455 -23.1221
L61.8585 -23.5678
L62.0637 -24.0172
L62.261 -24.4704
L62.4502 -24.927
L62.6314 -25.387
L62.8045 -25.8502
L62.9694 -26.3165
L63.1261 -26.7858
L63.2745 -27.2579
L63.4147 -27.7327
L63.5465 -28.2099
L63.6699 -28.6896
L63.7848 -29.1714
L63.8913 -29.6554
L63.9893 -30.1413
L64.0788 -30.6289
L64.1597 -31.1182
L64.2321 -31.609
L64.2958 -32.1011
L64.3509 -32.5944
L64.3974 -33.0888
L64.4353 -33.584
L64.4644 -34.08
L64.4849 -34.5765
L64.4968 -35.0735
L64.4999 -35.5708
L64.4944 -36.0682
L64.4802 -36.5656
L64.4573 -37.0628
L64.4257 -37.5597
L64.3855 -38.0561
L64.3367 -38.5519
L64.2792 -39.0469
L64.2131 -39.541
L64.1384 -40.034
L64.0551 -40.5257
L63.9633 -41.0161
L63.8629 -41.505
L63.7541 -41.9922
L63.6368 -42.4775
L63.5112 -42.9609
L63.3771 -43.4422
L63.2347 -43.9212
L63.084 -44.3978
L62.925 -44.8718
L62.7578 -45.3432
L62.5825 -45.8116
L62.3991 -46.2771
L62.2077 -46.7395
L62.0082 -47.1986
L61.8009 -47.6543
L61.5857 -48.1064
L61.3626 -48.5548
L61.1319 -48.9995
L60.8935 -49.4401
L60.6475 -49.8767
L60.3941 -50.309
L60.1332 -50.737
L59.8649 -51.1605
L59.5894 -51.5794
L59.3066 -51.9935
L59.0168 -52.4028
L58.72 -52.807
L58.4162 -53.2062
L58.1057 -53.6001
L57.7884 -53.9886
L57.4644 -54.3716
z
" id="C0_1_2a53cde94b"/>
     <path d="
M42.6123 -63.4996
L42.3752 -63.3187
L42.122 -63.1403
L41.8545 -62.9639
L41.5741 -62.7888
L41.2823 -62.6145
L40.9805 -62.4404
L40.6702 -62.2662
L40.3526 -62.0915
L40.0288 -61.9158
L39.7002 -61.7389
L39.3675 -61.5604
L39.0319 -61.3803
L38.6941 -61.1983
L38.355 -61.0143
L38.0152 -60.8282
L37.6753 -60.6399
L37.336 -60.4495
L36.9977 -60.2569
L36.6609 -60.0621
L36.3261 -59.8651
L35.9935 -59.6661
L35.6634 -59.465
L35.3362 -59.262
L35.0121 -59.0571
L34.6912 -58.8503
L34.3738 -58.6419
L34.06 -58.4318
L33.7499 -58.2202
L33.4437 -58.0071
L33.1414 -57.7927
L32.8431 -57.5771
L32.5487 -57.3602
L32.2585 -57.1423
L31.9723 -56.9233
L31.6902 -56.7035
L31.4122 -56.4827
L31.1383 -56.2612
L30.8684 -56.039
L30.6025 -55.8162
L30.3407 -55.5927
L30.0828 -55.3688
L29.8288 -55.1443
L29.5787 -54.9194
L29.3324 -54.6941
L29.0899 -54.4684
L28.851 -54.2425
L28.6158 -54.0162
L28.3842 -53.7897
L28.1561 -53.5629
L27.9314 -53.3359
L27.7102 -53.1087
L27.4922 -52.8814
L27.2776 -52.6538
L27.0661 -52.426
L26.8577 -52.1981
L26.6524 -51.97
L26.4501 -51.7418
L26.2507 -51.5133
L26.0541 -51.2847
L25.8604 -51.0559
L25.6694 -50.8268
L25.4811 -50.5976
L25.2954 -50.3681
L25.1123 -50.1383
L24.9317 -49.9083
L24.7535 -49.678
L24.5777 -49.4473
L24.4042 -49.2163
L24.2331 -48.985
L24.0641 -48.7532
L23.8974 -48.521
L23.7327 -48.2883
L23.5702 -48.0552
L23.4097 -47.8215
L23.2512 -47.5873
L23.0946 -47.3524
L22.94 -47.1169
L22.7872 -46.8808
L22.6363 -46.6439
L22.4871 -46.4063
L22.3397 -46.1678
L22.1941 -45.9285
L22.0501 -45.6884
L21.9078 -45.4473
L21.7672 -45.2052
L21.6281 -44.9621
L21.4907 -44.7179
L21.3547 -44.4726
L21.2204 -44.2261
L21.0875 -43.9784
L20.9561 -43.7295
L20.8262 -43.4792
L20.6978 -43.2275
L20.5708 -42.9744
L20.4453 -42.7198
L20.3211 -42.4636
L20.1984 -42.2059
L20.0771 -41.9464
L19.9572 -41.6853
L19.8387 -41.4224
L19.7215 -41.1577
L19.6058 -40.8911
L19.4914 -40.6225
L19.3785 -40.3519
L19.267 -40.0793
L19.1568 -39.8045
L19.0481 -39.5276
L18.9409 -39.2483
L18.8351 -38.9668
L18.7307 -38.6829
L18.6278 -38.3966
L18.5265 -38.1078
L18.4267 -37.8165
L18.3284 -37.5225
L18.2317 -37.2259
L18.1366 -36.9266
L18.0432 -36.6245
L17.9514 -36.3196
L17.8614 -36.0118
L17.7731 -35.7011
L17.6867 -35.3874
L17.6021 -35.0707
L17.5193 -34.7509
L17.4386 -34.4281
L17.3598 -34.1021
L17.283 -33.7729
L17.2084 -33.4406
L17.1359 -33.1051
L17.0657 -32.7664
L16.9977 -32.4244
L16.9321 -32.0792
L16.8688 -31.7309
L16.8081 -31.3793
L16.7498 -31.0245
L16.6941 -30.6665
L16.641 -30.3055
L16.5906 -29.9414
L16.543 -29.5744
L16.4981 -29.2045
L16.456 -28.8317
L16.4167 -28.4563
L16.3804 -28.0783
L16.3469 -27.6979
L16.3162 -27.3153
L16.2885 -26.9306
L16.2635 -26.5441
L16.2413 -26.1559
L16.2218 -25.7665
L16.2049 -25.376
L16.1905 -24.9847
L16.1783 -24.5932
L16.1682 -24.2016
L16.1599 -23.8104
L16.1532 -23.4202
L16.1477 -23.0314
L16.143 -22.6446
L16.1385 -22.2603
L16.1339 -21.8792
L16.1284 -21.5021
L16.1214 -21.1295
L16.1122 -20.7624
L16.0998 -20.4015
L16.0834 -20.0478
L16.062 -19.7021
L16.0344 -19.3655
L15.9997 -19.0389
L15.9565 -18.7234
L15.9039 -18.4198
L15.8406 -18.1294
L15.7654 -17.8529
L15.6775 -17.5914
L15.5757 -17.3457
L15.4594 -17.1166
L15.3278 -16.9048
L14.7589 -16.7108
L14.4306 -16.9982
L14.1087 -17.3718
L13.7936 -17.7511
L13.4852 -18.1359
L13.1837 -18.5262
L12.8891 -18.9218
L12.6015 -19.3226
L12.3211 -19.7285
L12.0479 -20.1393
L11.782 -20.555
L11.5235 -20.9754
L11.2724 -21.4003
L11.0289 -21.8297
L10.793 -22.2634
L10.5647 -22.7013
L10.3442 -23.1433
L10.1315 -23.5891
L9.92669 -24.0388
L9.72982 -24.4921
L9.54095 -24.9489
L9.36014 -25.409
L9.18745 -25.8724
L9.02292 -26.3389
L8.86661 -26.8083
L8.71857 -27.2805
L8.57884 -27.7554
L8.44746 -28.2328
L8.32447 -28.7125
L8.20991 -29.1945
L8.10382 -29.6785
L8.00622 -30.1645
L7.91716 -30.6522
L7.83664 -31.1416
L7.76471 -31.6325
L7.70137 -32.1247
L7.64666 -32.618
L7.60058 -33.1124
L7.56316 -33.6077
L7.53439 -34.1037
L7.5143 -34.6003
L7.50288 -35.0973
L7.50015 -35.5946
L7.50609 -36.092
L7.52072 -36.5893
L7.54402 -37.0865
L7.57599 -37.5834
L7.61661 -38.0798
L7.66589 -38.5755
L7.72379 -39.0705
L7.79031 -39.5645
L7.86541 -40.0575
L7.94909 -40.5492
L8.04132 -41.0395
L8.14206 -41.5283
L8.25128 -42.0154
L8.36896 -42.5007
L8.49506 -42.984
L8.62953 -43.4651
L8.77234 -43.944
L8.92345 -44.4205
L9.0828 -44.8944
L9.25035 -45.3656
L9.42605 -45.8339
L9.60985 -46.2993
L9.80168 -46.7615
L10.0015 -47.2204
L10.2092 -47.6759
L10.4248 -48.1279
L10.6482 -48.5762
L10.8793 -49.0206
L11.1181 -49.4611
L11.3644 -49.8974
L11.6182 -50.3296
L11.8795 -50.7573
L12.1481 -51.1806
L12.424 -51.5993
L12.707 -52.0132
L12.9972 -52.4222
L13.2943 -52.8262
L13.5984 -53.2251
L13.9093 -53.6187
L14.227 -54.007
L14.5512 -54.3898
L14.882 -54.767
L15.2192 -55.1385
L15.5628 -55.5041
L15.9126 -55.8638
L16.2685 -56.2175
L16.6304 -56.565
L16.9982 -56.9062
L17.3718 -57.2411
L17.7511 -57.5694
L18.1359 -57.8913
L18.5262 -58.2064
L18.9218 -58.5148
L19.3226 -58.8163
L19.7285 -59.1109
L20.1393 -59.3985
L20.555 -59.6789
L20.9754 -59.9521
L21.4003 -60.218
L21.8297 -60.4765
L22.2634 -60.7276
L22.7013 -60.9711
L23.1433 -61.207
L23.5891 -61.4353
L24.0388 -61.6558
L24.4921 -61.8685
L24.9489 -62.0733
L25.409 -62.2702
L25.8724 -62.4591
L26.3389 -62.6399
L26.8083 -62.8126
L27.2805 -62.9771
L27.7554 -63.1334
L28.2328 -63.2814
L28.7125 -63.4212
L29.1945 -63.5525
L29.6785 -63.6755
L30.1645 -63.7901
L30.6522 -63.8962
L31.1416 -63.9938
L31.6325 -64.0828
L32.1247 -64.1634
L32.618 -64.2353
L33.1124 -64.2986
L33.6077 -64.3533
L34.1037 -64.3994
L34.6003 -64.4368
L35.0973 -64.4656
L35.5946 -64.4857
L36.092 -64.4971
L36.5893 -64.4999
L37.0865 -64.4939
L37.5834 -64.4793
L38.0798 -64.456
L38.5755 -64.424
L39.0705 -64.3834
L39.5645 -64.3341
L40.0575 -64.2762
L40.5492 -64.2097
L41.0395 -64.1346
L41.5283 -64.0509
L42.0154 -63.9587
z
" id="C0_2_0e9b7487f6"/>
    </defs>
    <g clip-path="url(#p1bffca34e9)">
     <use style="fill:#ff0000;stroke:#000000;stroke-width:2.0;" x="0.0" xlink:href="#C0_0_a811fe30f3" y="72.0"/>
    </g>
    <g clip-path="url(#p1bffca34e9)">
     <use style="fill:#ffffff;stroke:#000000;stroke-width:2.0;" x="0.0" xlink:href="#C0_1_2a53cde94b" y="72.0"/>
    </g>
    <g clip-path="url(#p1bffca34e9)">
     <use style="fill:#ffffff;stroke:#000000;stroke-width:2.0;" x="0.0" xlink:href="#C0_2_0e9b7487f6" y="72.0"/>
    </g>
   </g>
  </g>
 </g>
 <defs>
  <clipPath id="p1bffca34e9">
   <rect height="72.0" width="72.0" x="0.0" y="0.0"/>
  </clipPath>
 </defs>
</svg>
