<?xml version="1.0" encoding="utf-8" standalone="no"?>
<!DOCTYPE svg PUBLIC "-//W3C//DTD SVG 1.1//EN"
  "http://www.w3.org/Graphics/SVG/1.1/DTD/svg11.dtd">
<!-- Created with matplotlib (http://matplotlib.org/) -->
<svg height="72pt" version="1.1" viewBox="0 0 72 72" width="72pt" xmlns="http://www.w3.org/2000/svg" xmlns:xlink="http://www.w3.org/1999/xlink">
 <defs>
  <style type="text/css">
*{stroke-linecap:butt;stroke-linejoin:round;}
  </style>
 </defs>
 <g id="figure_1">
  <g id="patch_1">
   <path d="
M0 72
L72 72
L72 0
L0 0
z
" style="fill:none;"/>
  </g>
  <g id="axes_1">
   <g id="PatchCollection_1">
    <defs>
     <path d="
M36 -7.5
C43.5583 -7.5 50.808 -10.5029 56.1525 -15.8475
C61.4971 -21.192 64.5 -28.4417 64.5 -36
C64.5 -43.5583 61.4971 -50.808 56.1525 -56.1525
C50.808 -61.4971 43.5583 -64.5 36 -64.5
C28.4417 -64.5 21.192 -61.4971 15.8475 -56.1525
C10.5029 -50.808 7.5 -43.5583 7.5 -36
C7.5 -28.4417 10.5029 -21.192 15.8475 -15.8475
C21.192 -10.5029 28.4417 -7.5 36 -7.5
z
" id="C0_0_a811fe30f3"/>
     <path d="
M29.1325 -50.1088
L29.4004 -50.1734
L29.6688 -50.2359
L29.938 -50.2961
L30.2078 -50.3541
L30.4784 -50.4098
L30.7498 -50.4634
L31.0221 -50.5148
L31.2952 -50.564
L31.5693 -50.611
L31.8444 -50.6558
L32.1205 -50.6983
L32.3976 -50.7387
L32.6759 -50.7768
L32.9553 -50.8126
L33.236 -50.8462
L33.5179 -50.8774
L33.8011 -50.9064
L34.0856 -50.933
L34.3715 -50.9572
L34.6589 -50.9791
L34.9478 -50.9985
L35.2381 -51.0154
L35.53 -51.0298
L35.8235 -51.0417
L36.1187 -51.051
L36.4155 -51.0576
L36.7141 -51.0615
L37.0144 -51.0627
L37.3165 -51.061
L37.6204 -51.0565
L37.9261 -51.0491
L38.2337 -51.0386
L38.5433 -51.0251
L38.8547 -51.0084
L39.168 -50.9884
L39.4833 -50.9652
L39.8006 -50.9385
L40.1198 -50.9084
L40.441 -50.8747
L40.7642 -50.8373
L41.0893 -50.7961
L41.4163 -50.751
L41.7453 -50.7019
L42.0761 -50.6487
L42.4088 -50.5912
L42.7433 -50.5294
L43.0796 -50.4631
L43.4175 -50.3922
L43.7571 -50.3166
L44.0983 -50.2361
L44.4409 -50.1505
L44.7848 -50.0598
L45.1299 -49.9638
L45.4762 -49.8624
L45.8234 -49.7553
L46.1714 -49.6425
L46.52 -49.5237
L46.8691 -49.3988
L47.2183 -49.2677
L47.5675 -49.1302
L47.9164 -48.9861
L48.2647 -48.8353
L48.6122 -48.6776
L48.9585 -48.5128
L49.3032 -48.3409
L49.6461 -48.1615
L49.9866 -47.9746
L50.3243 -47.78
L50.6588 -47.5776
L50.9896 -47.3673
L51.3162 -47.1489
L51.638 -46.9222
L51.9543 -46.6873
L52.2647 -46.4439
L52.5684 -46.1921
L52.8648 -45.9317
L53.1532 -45.6627
L53.4328 -45.3852
L53.7029 -45.099
L53.9627 -44.8044
L54.2116 -44.5012
L54.4487 -44.1898
L54.6732 -43.8702
L54.8846 -43.5426
L55.0821 -43.2072
L55.2651 -42.8645
L55.433 -42.5146
L55.5854 -42.158
L55.7217 -41.7952
L55.8418 -41.4266
L55.9453 -41.0527
L56.0322 -40.6741
L56.1024 -40.2914
L56.1561 -39.9051
L56.1933 -39.5159
L56.2143 -39.1245
L56.2196 -38.7313
L56.2094 -38.3371
L56.1842 -37.9424
L56.1446 -37.5478
L56.091 -37.1539
L56.0242 -36.7611
L55.9445 -36.37
L55.8527 -35.981
L55.7494 -35.5945
L55.635 -35.211
L55.5103 -34.8308
L55.3758 -34.4542
L55.232 -34.0815
L55.0795 -33.713
L54.9188 -33.3489
L54.7505 -32.9894
L54.575 -32.6348
L54.3928 -32.2851
L54.2043 -31.9404
L54.01 -31.601
L53.8102 -31.2669
L53.6054 -30.9381
L53.3959 -30.6148
L53.182 -30.2969
L52.9641 -29.9845
L52.7426 -29.6776
L52.5175 -29.3762
L52.2894 -29.0803
L52.0583 -28.7899
L51.8246 -28.5049
L51.5884 -28.2253
L51.3501 -27.9511
L51.1097 -27.6822
L50.8675 -27.4185
L50.6236 -27.16
L50.3782 -26.9067
L50.1315 -26.6584
L49.8835 -26.4151
L49.6345 -26.1767
L49.3844 -25.9431
L49.1335 -25.7143
L48.8819 -25.4901
L48.6295 -25.2706
L48.3766 -25.0555
L48.1231 -24.8449
L47.8692 -24.6386
L47.6149 -24.4366
L47.3602 -24.2388
L47.1052 -24.0451
L46.85 -23.8554
L46.5946 -23.6696
L46.3389 -23.4877
L46.0832 -23.3096
L45.8273 -23.1352
L45.5712 -22.9645
L45.3151 -22.7973
L45.0588 -22.6336
L44.8025 -22.4734
L44.5461 -22.3165
L44.2896 -22.1629
L44.0329 -22.0125
L43.7762 -21.8653
L43.5194 -21.7213
L43.2625 -21.5802
L43.0054 -21.4422
L42.7482 -21.3072
L42.4908 -21.175
L42.2332 -21.0457
L41.9754 -20.9192
L41.7174 -20.7954
L41.4591 -20.6744
L41.2005 -20.5561
L40.9416 -20.4403
L40.6823 -20.3272
L40.4227 -20.2167
L40.1626 -20.1087
L39.9021 -20.0032
L39.6411 -19.9002
L39.3796 -19.7996
L39.1175 -19.7015
L38.8548 -19.6058
L38.5915 -19.5125
L38.3274 -19.4216
L38.0627 -19.333
L37.7972 -19.2469
L37.5309 -19.163
L37.2637 -19.0815
L36.9957 -19.0023
L36.7267 -18.9255
L36.4567 -18.851
L36.1857 -18.7789
L35.9136 -18.7091
L35.6404 -18.6417
L35.366 -18.5766
L35.0904 -18.5139
L34.8135 -18.4536
L34.5353 -18.3958
L34.2557 -18.3404
L33.9748 -18.2874
L33.6923 -18.237
L33.4084 -18.1891
L33.1229 -18.1437
L32.8358 -18.101
L32.5471 -18.0609
L32.2567 -18.0235
L31.9645 -17.9888
L31.6705 -17.957
L31.3747 -17.9279
L31.0771 -17.9018
L30.7775 -17.8787
L30.4759 -17.8586
L30.1724 -17.8416
L29.8669 -17.8278
L29.5592 -17.8173
L29.2495 -17.8102
L28.9377 -17.8064
L28.6236 -17.8062
L28.3074 -17.8097
L27.989 -17.8169
L27.6684 -17.828
L27.3455 -17.843
L27.0204 -17.8621
L26.6931 -17.8854
L26.3634 -17.913
L26.0316 -17.9452
L25.6974 -17.9819
L25.3611 -18.0234
L25.0226 -18.0698
L24.6819 -18.1213
L24.3391 -18.1781
L23.9942 -18.2402
L23.6473 -18.3079
L23.2985 -18.3814
L22.9478 -18.4608
L22.5953 -18.5464
L22.2412 -18.6382
L21.8856 -18.7367
L21.5285 -18.8418
L21.1702 -18.9539
L20.8108 -19.0731
L20.4505 -19.1997
L20.0895 -19.3339
L19.728 -19.4758
L19.3663 -19.6258
L19.0046 -19.7841
L18.6433 -19.9508
L18.2826 -20.1261
L17.9229 -20.3103
L17.5646 -20.5037
L17.2081 -20.7063
L16.8537 -20.9184
L16.502 -21.1402
L16.1534 -21.3718
L15.8085 -21.6134
L15.4678 -21.8651
L15.1319 -22.1271
L14.8015 -22.3994
L14.4772 -22.6821
L14.1597 -22.9753
L13.8497 -23.279
L13.5479 -23.593
L13.2552 -23.9174
L12.9723 -24.252
L12.7 -24.5966
L12.4391 -24.951
L12.1905 -25.315
L11.9548 -25.6881
L11.7329 -26.07
L11.5255 -26.4602
L11.3332 -26.8581
L11.1567 -27.2632
L10.9965 -27.6748
L10.853 -28.0922
L10.7266 -28.5147
L10.6176 -28.9416
L10.526 -29.3719
L10.452 -29.805
L10.3954 -30.24
L10.3562 -30.6761
L10.3339 -31.1125
L10.3284 -31.5484
L10.3392 -31.9833
L10.3659 -32.4162
L10.4078 -32.8467
L10.4645 -33.2741
L10.5353 -33.6979
L10.6196 -34.1175
L10.7168 -34.5326
L10.8263 -34.9426
L10.9474 -35.3473
L11.0796 -35.7464
L11.2221 -36.1395
L11.3743 -36.5265
L11.5358 -36.9071
L11.7059 -37.2812
L11.884 -37.6486
L12.0697 -38.0093
L12.2624 -38.3632
L12.4617 -38.7101
L12.6671 -39.0502
L12.8781 -39.3834
L13.0944 -39.7096
L13.3155 -40.0289
L13.541 -40.3414
L13.7707 -40.6471
L14.0041 -40.9461
L14.241 -41.2384
L14.481 -41.524
L14.724 -41.8032
L14.9695 -42.076
L15.2175 -42.3424
L15.4676 -42.6027
L15.7196 -42.8568
L15.9734 -43.105
L16.2287 -43.3472
L16.4854 -43.5837
L16.7433 -43.8146
L17.0023 -44.0399
L17.2623 -44.2598
L17.5231 -44.4744
L17.7845 -44.6838
L18.0466 -44.8881
L18.3092 -45.0874
L18.5722 -45.282
L18.8356 -45.4717
L19.0992 -45.6569
L19.363 -45.8375
L19.627 -46.0138
L19.8911 -46.1857
L20.1553 -46.3534
L20.4194 -46.517
L20.6836 -46.6766
L20.9477 -46.8323
L21.2118 -46.9841
L21.4758 -47.1322
L21.7397 -47.2767
L22.0035 -47.4176
L22.2672 -47.555
L22.5308 -47.689
L22.7943 -47.8196
L23.0577 -47.947
L23.321 -48.0713
L23.5842 -48.1924
L23.8474 -48.3104
L24.1105 -48.4255
L24.3735 -48.5376
L24.6366 -48.6468
L24.8996 -48.7533
L25.1627 -48.8569
L25.4258 -48.9579
L25.689 -49.0562
L25.9523 -49.1519
L26.2158 -49.245
L26.4794 -49.3355
L26.7432 -49.4236
L27.0072 -49.5092
L27.2716 -49.5923
L27.5362 -49.6731
L27.8012 -49.7515
L28.0665 -49.8275
L28.3323 -49.9013
L28.5985 -49.9727
z
" id="C0_1_4a9cfaf69d"/>
    </defs>
    <g clip-path="url(#p1bffca34e9)">
     <use style="fill:#ff0000;stroke:#000000;stroke-width:2.0;" x="0.0" xlink:href="#C0_0_a811fe30f3" y="72.0"/>
    </g>
    <g clip-path="url(#p1bffca34e9)">
     <use style="fill:#ffffff;stroke:#000000;stroke-width:2.0;" x="0.0" xlink:href="#C0_1_4a9cfaf69d" y="72.0"/>
    </g>
   </g>
  </g>
 </g>
 <defs>
  <clipPath id="p1bffca34e9">
   <rect height="72.0" width="72.0" x="0.0" y="0.0"/>
  </clipPath>
 </defs>
</svg>
