<?xml version="1.0" encoding="utf-8" standalone="no"?>
<!DOCTYPE svg PUBLIC "-//W3C//DTD SVG 1.1//EN"
  "http://www.w3.org/Graphics/SVG/1.1/DTD/svg11.dtd">
<!-- Created with matplotlib (http://matplotlib.org/) -->
<svg height="72pt" version="1.1" viewBox="0 0 72 72" width="72pt" xmlns="http://www.w3.org/2000/svg" xmlns:xlink="http://www.w3.org/1999/xlink">
 <defs>
  <style type="text/css">
*{stroke-linecap:butt;stroke-linejoin:round;}
  </style>
 </defs>
 <g id="figure_1">
  <g id="patch_1">
   <path d="
M0 72
L72 72
L72 0
L0 0
z
" style="fill:none;"/>
  </g>
  <g id="axes_1">
   <g id="PatchCollection_1">
    <defs>
     <path d="
M36 -7.5
C43.5583 -7.5 50.808 -10.5029 56.1525 -15.8475
C61.4971 -21.192 64.5 -28.4417 64.5 -36
C64.5 -43.5583 61.4971 -50.808 56.1525 -56.1525
C50.808 -61.4971 43.5583 -64.5 36 -64.5
C28.4417 -64.5 21.192 -61.4971 15.8475 -56.1525
C10.5029 -50.808 7.5 -43.5583 7.5 -36
C7.5 -28.4417 10.5029 -21.192 15.8475 -15.8475
C21.192 -10.5029 28.4417 -7.5 36 -7.5
z
" id="C0_0_a811fe30f3"/>
     <path d="
M41.2506 -40.9162
L41.4044 -40.672
L41.5552 -40.4258
L41.7029 -40.1777
L41.8475 -39.9277
L41.9889 -39.676
L42.1272 -39.4225
L42.2624 -39.1672
L42.3943 -38.9102
L42.5231 -38.6516
L42.6485 -38.3914
L42.7708 -38.1296
L42.8897 -37.8663
L43.0053 -37.6014
L43.1176 -37.3351
L43.2265 -37.0674
L43.332 -36.7983
L43.434 -36.5279
L43.5327 -36.2562
L43.6278 -35.9833
L43.7195 -35.7091
L43.8076 -35.4337
L43.8922 -35.1573
L43.9732 -34.8797
L44.0506 -34.6011
L44.1244 -34.3215
L44.1945 -34.0409
L44.2609 -33.7595
L44.3236 -33.4771
L44.3825 -33.194
L44.4376 -32.9101
L44.489 -32.6254
L44.5365 -32.3401
L44.5801 -32.0542
L44.6198 -31.7676
L44.6556 -31.4806
L44.6875 -31.193
L44.7153 -30.905
L44.7392 -30.6167
L44.759 -30.328
L44.7747 -30.039
L44.7863 -29.7499
L44.7938 -29.4606
L44.7971 -29.1711
L44.7963 -28.8816
L44.7912 -28.5922
L44.7818 -28.3028
L44.7682 -28.0135
L44.7503 -27.7244
L44.728 -27.4356
L44.7014 -27.1471
L44.6704 -26.859
L44.6349 -26.5713
L44.595 -26.2841
L44.5507 -25.9976
L44.5019 -25.7116
L44.4485 -25.4264
L44.3906 -25.142
L44.3282 -24.8584
L44.2611 -24.5757
L44.1895 -24.2941
L44.1132 -24.0135
L44.0323 -23.7341
L43.9467 -23.456
L43.8565 -23.1791
L43.7615 -22.9036
L43.6618 -22.6296
L43.5574 -22.3571
L43.4483 -22.0863
L43.3345 -21.8172
L43.2158 -21.5499
L43.0924 -21.2844
L42.9643 -21.021
L42.8313 -20.7595
L42.6936 -20.5003
L42.5511 -20.2432
L42.4038 -19.9885
L42.2518 -19.7361
L42.095 -19.4863
L41.9334 -19.239
L41.767 -18.9944
L41.5959 -18.7526
L41.42 -18.5137
L41.2394 -18.2776
L41.0541 -18.0447
L40.8641 -17.8149
L40.6695 -17.5883
L40.4702 -17.365
L40.2662 -17.1452
L40.0577 -16.9288
L39.8445 -16.7161
L39.6269 -16.5071
L39.4047 -16.3019
L39.1781 -16.1006
L38.947 -15.9032
L38.7116 -15.71
L38.4718 -15.5209
L38.2277 -15.3361
L37.9794 -15.1556
L37.7268 -14.9796
L37.4702 -14.8082
L37.2094 -14.6414
L36.9446 -14.4793
L36.6759 -14.3221
L36.4032 -14.1697
L36.1267 -14.0224
L35.8465 -13.8801
L35.5626 -13.743
L35.275 -13.6112
L34.9839 -13.4847
L34.6894 -13.3636
L34.3915 -13.2481
L34.0903 -13.1381
L33.7859 -13.0338
L33.4784 -12.9352
L33.1679 -12.8425
L32.8545 -12.7557
L32.5383 -12.6748
L32.2193 -12.5999
L31.8977 -12.5312
L31.5736 -12.4686
L31.2472 -12.4123
L30.9184 -12.3623
L30.5874 -12.3186
L30.2544 -12.2813
L29.9195 -12.2505
L29.5827 -12.2263
L29.2442 -12.2086
L28.9041 -12.1976
L28.5626 -12.1932
L28.2197 -12.1955
L27.8756 -12.2046
L27.5305 -12.2205
L27.1844 -12.2432
L26.8376 -12.2728
L26.49 -12.3093
L26.1419 -12.3527
L25.7935 -12.403
L25.4448 -12.4603
L25.0959 -12.5246
L24.7471 -12.5959
L24.3985 -12.6742
L24.0502 -12.7594
L23.7024 -12.8517
L23.3552 -12.9511
L23.0087 -13.0574
L22.6632 -13.1707
L22.3187 -13.291
L21.9755 -13.4183
L21.6336 -13.5526
L21.2932 -13.6938
L20.9545 -13.842
L20.6175 -13.997
L20.2826 -14.1589
L19.9498 -14.3276
L19.6192 -14.5031
L19.2911 -14.6853
L18.9656 -14.8742
L18.6427 -15.0698
L18.3228 -15.272
L18.0058 -15.4807
L17.6921 -15.6958
L17.3816 -15.9174
L17.0746 -16.1453
L16.7713 -16.3794
L16.4717 -16.6198
L16.1759 -16.8662
L15.8843 -17.1186
L15.5968 -17.377
L15.3136 -17.6412
L15.0349 -17.9111
L14.7608 -18.1867
L14.4914 -18.4678
L14.2269 -18.7543
L13.9673 -19.0461
L13.7129 -19.3432
L13.4637 -19.6453
L13.2198 -19.9523
L12.9814 -20.2643
L12.7486 -20.5809
L12.5216 -20.9021
L12.3003 -21.2277
L12.0849 -21.5576
L11.8756 -21.8918
L11.6724 -22.2299
L11.4755 -22.5719
L11.2848 -22.9176
L11.1005 -23.267
L10.9228 -23.6197
L10.7516 -23.9757
L10.5871 -24.3349
L10.4293 -24.6969
L10.2783 -25.0618
L10.1341 -25.4293
L9.99694 -25.7993
L9.86673 -26.1716
L9.74356 -26.546
L9.62748 -26.9223
L9.51855 -27.3005
L9.4168 -27.6802
L9.32226 -28.0614
L9.23499 -28.4439
L9.15499 -28.8275
L9.0823 -29.212
L9.01693 -29.5972
L8.95891 -29.983
L8.90824 -30.3692
L8.86493 -30.7556
L8.82898 -31.1421
L8.80039 -31.5284
L8.77915 -31.9144
L8.76525 -32.3
L8.75868 -32.6849
L8.75941 -33.069
L8.76743 -33.452
L8.7827 -33.8339
L8.80519 -34.2145
L8.83486 -34.5936
L8.87168 -34.971
L8.9156 -35.3465
L8.96656 -35.7201
L9.02453 -36.0915
L9.08943 -36.4606
L9.16122 -36.8273
L9.23982 -37.1913
L9.32518 -37.5525
L9.41721 -37.9109
L9.51584 -38.2661
L9.62101 -38.6182
L9.73262 -38.9669
L9.85059 -39.3121
L9.97484 -39.6537
L10.1053 -39.9915
L10.2418 -40.3254
L10.3843 -40.6554
L10.5327 -40.9812
L10.687 -41.3028
L10.8469 -41.62
L11.0124 -41.9327
L11.1834 -42.2408
L11.3598 -42.5443
L11.5415 -42.843
L11.7283 -43.1367
L11.9201 -43.4255
L12.1169 -43.7093
L12.3185 -43.9879
L12.5248 -44.2612
L12.7356 -44.5292
L12.9509 -44.7919
L13.1705 -45.0491
L13.3944 -45.3007
L13.6223 -45.5468
L13.8542 -45.7872
L14.09 -46.0219
L14.3294 -46.2508
L14.5725 -46.474
L14.819 -46.6913
L15.0689 -46.9027
L15.322 -47.1081
L15.5782 -47.3076
L15.8374 -47.5011
L16.0994 -47.6886
L16.3642 -47.8701
L16.6316 -48.0454
L16.9014 -48.2147
L17.1737 -48.378
L17.4481 -48.5351
L17.7248 -48.686
L18.0034 -48.8309
L18.2839 -48.9697
L18.5662 -49.1023
L18.8502 -49.2289
L19.1357 -49.3493
L19.4227 -49.4637
L19.711 -49.5719
L20.0005 -49.6742
L20.2912 -49.7703
L20.5828 -49.8605
L20.8754 -49.9446
L21.1687 -50.0228
L21.4628 -50.0951
L21.7575 -50.1614
L22.0526 -50.2218
L22.3482 -50.2764
L22.6441 -50.3252
L22.9402 -50.3682
L23.2365 -50.4055
L23.5328 -50.4371
L23.829 -50.463
L24.1251 -50.4834
L24.421 -50.4981
L24.7166 -50.5074
L25.0119 -50.5112
L25.3066 -50.5095
L25.6009 -50.5025
L25.8945 -50.4902
L26.1874 -50.4726
L26.4796 -50.4498
L26.771 -50.4218
L27.0615 -50.3887
L27.351 -50.3506
L27.6395 -50.3075
L27.927 -50.2594
L28.2133 -50.2065
L28.4983 -50.1487
L28.7821 -50.0861
L29.0646 -50.0189
L29.3458 -49.947
L29.6255 -49.8704
L29.9037 -49.7894
L30.1804 -49.7038
L30.4555 -49.6139
L30.7289 -49.5196
L31.0007 -49.4209
L31.2708 -49.318
L31.5391 -49.211
L31.8057 -49.0997
L32.0703 -48.9844
L32.3331 -48.8651
L32.594 -48.7418
L32.8528 -48.6146
L33.1097 -48.4836
L33.3646 -48.3488
L33.6173 -48.2102
L33.868 -48.0679
L34.1165 -47.922
L34.3628 -47.7725
L34.607 -47.6195
L34.8489 -47.463
L35.0885 -47.3031
L35.3258 -47.1399
L35.5608 -46.9733
L35.7935 -46.8035
L36.0237 -46.6304
L36.2516 -46.4542
L36.477 -46.2749
L36.6999 -46.0925
L36.9204 -45.9071
L37.1384 -45.7187
L37.3538 -45.5274
L37.5666 -45.3333
L37.7769 -45.1363
L37.9846 -44.9365
L38.1896 -44.734
L38.392 -44.5289
L38.5917 -44.3211
L38.7887 -44.1106
L38.9829 -43.8977
L39.1745 -43.6822
L39.3632 -43.4643
L39.5492 -43.2439
L39.7324 -43.0212
L39.9127 -42.7961
L40.0901 -42.5687
L40.2647 -42.3391
L40.4364 -42.1072
L40.6052 -41.8732
L40.771 -41.6371
L40.9339 -41.3988
z
" id="C0_1_7895970fb9"/>
    </defs>
    <g clip-path="url(#p1bffca34e9)">
     <use style="fill:#ffffff;stroke:#000000;stroke-width:2.0;" x="0.0" xlink:href="#C0_0_a811fe30f3" y="72.0"/>
    </g>
    <g clip-path="url(#p1bffca34e9)">
     <use style="fill:#ff0000;stroke:#000000;stroke-width:2.0;" x="0.0" xlink:href="#C0_1_7895970fb9" y="72.0"/>
    </g>
   </g>
  </g>
 </g>
 <defs>
  <clipPath id="p1bffca34e9">
   <rect height="72.0" width="72.0" x="0.0" y="0.0"/>
  </clipPath>
 </defs>
</svg>
