<?xml version="1.0" encoding="utf-8" standalone="no"?>
<!DOCTYPE svg PUBLIC "-//W3C//DTD SVG 1.1//EN"
  "http://www.w3.org/Graphics/SVG/1.1/DTD/svg11.dtd">
<!-- Created with matplotlib (http://matplotlib.org/) -->
<svg height="72pt" version="1.1" viewBox="0 0 72 72" width="72pt" xmlns="http://www.w3.org/2000/svg" xmlns:xlink="http://www.w3.org/1999/xlink">
 <defs>
  <style type="text/css">
*{stroke-linecap:butt;stroke-linejoin:round;}
  </style>
 </defs>
 <g id="figure_1">
  <g id="patch_1">
   <path d="
M0 72
L72 72
L72 0
L0 0
z
" style="fill:none;"/>
  </g>
  <g id="axes_1">
   <g id="PatchCollection_1">
    <defs>
     <path d="
M36 -7.5
C43.5583 -7.5 50.808 -10.5029 56.1525 -15.8475
C61.4971 -21.192 64.5 -28.4417 64.5 -36
C64.5 -43.5583 61.4971 -50.808 56.1525 -56.1525
C50.808 -61.4971 43.5583 -64.5 36 -64.5
C28.4417 -64.5 21.192 -61.4971 15.8475 -56.1525
C10.5029 -50.808 7.5 -43.5583 7.5 -36
C7.5 -28.4417 10.5029 -21.192 15.8475 -15.8475
C21.192 -10.5029 28.4417 -7.5 36 -7.5
z
" id="C0_0_a811fe30f3"/>
     <path d="
M19.0463 -58.819
L19.1795 -58.6389
L19.3217 -58.4632
L19.4724 -58.2916
L19.6314 -58.1242
L19.7982 -57.9608
L19.9725 -57.8011
L20.154 -57.645
L20.3423 -57.4924
L20.5371 -57.3431
L20.738 -57.1969
L20.9448 -57.0536
L21.157 -56.9131
L21.3743 -56.7752
L21.5966 -56.6397
L21.8233 -56.5064
L22.0543 -56.3753
L22.2892 -56.2461
L22.5279 -56.1187
L22.7699 -55.9929
L23.0151 -55.8687
L23.2631 -55.7459
L23.5139 -55.6243
L23.767 -55.5038
L24.0224 -55.3844
L24.2798 -55.2659
L24.539 -55.1482
L24.7998 -55.0313
L25.0621 -54.915
L25.3256 -54.7993
L25.5902 -54.6841
L25.8558 -54.5692
L26.1222 -54.4548
L26.3893 -54.3406
L26.657 -54.2267
L26.9251 -54.1129
L27.1936 -53.9993
L27.4622 -53.8857
L27.731 -53.7723
L27.9999 -53.6588
L28.2687 -53.5453
L28.5374 -53.4318
L28.806 -53.3181
L29.0742 -53.2044
L29.3422 -53.0905
L29.6099 -52.9765
L29.8771 -52.8623
L30.1439 -52.7478
L30.4102 -52.6332
L30.676 -52.5183
L30.9413 -52.4032
L31.206 -52.2877
L31.4701 -52.172
L31.7335 -52.056
L31.9964 -51.9397
L32.2586 -51.8231
L32.5201 -51.7061
L32.781 -51.5887
L33.0412 -51.471
L33.3008 -51.353
L33.5596 -51.2345
L33.8178 -51.1157
L34.0754 -50.9964
L34.3322 -50.8767
L34.5885 -50.7566
L34.8441 -50.6361
L35.099 -50.5151
L35.3533 -50.3936
L35.607 -50.2717
L35.8602 -50.1493
L36.1127 -50.0264
L36.3647 -49.903
L36.6161 -49.7791
L36.867 -49.6547
L37.1174 -49.5297
L37.3673 -49.4042
L37.6168 -49.2781
L37.8658 -49.1515
L38.1143 -49.0242
L38.3625 -48.8964
L38.6103 -48.768
L38.8577 -48.6389
L39.1047 -48.5092
L39.3515 -48.3789
L39.8442 -48.2479
L40.0902 -48.1163
L40.3359 -47.9839
L40.5815 -47.8509
L40.8268 -47.7172
L41.0721 -47.5827
L41.3172 -47.4475
L41.5622 -47.3116
L41.8071 -47.1749
L42.052 -47.0374
L42.2968 -46.8992
L42.5417 -46.7602
L42.7865 -46.6203
L43.0314 -46.4797
L43.2763 -46.3382
L43.5214 -46.1959
L43.7665 -46.0528
L44.0117 -45.9088
L44.2571 -45.7639
L44.5027 -45.6182
L44.7484 -45.4716
L44.9943 -45.3241
L45.2404 -45.1757
L45.4868 -45.0264
L45.7334 -44.8762
L45.9802 -44.7252
L46.2274 -44.5732
L46.4748 -44.4203
L46.7225 -44.2666
L46.9706 -44.1119
L47.2189 -43.9564
L47.4676 -43.8
L47.7166 -43.6427
L47.966 -43.4846
L48.2157 -43.3256
L48.4657 -43.1658
L48.7162 -43.0052
L48.9669 -42.8438
L49.2181 -42.6816
L49.4696 -42.5188
L49.7215 -42.3552
L49.9737 -42.191
L50.2262 -42.0262
L50.4792 -41.8608
L50.7324 -41.6949
L50.986 -41.5285
L51.2399 -41.3618
L51.4941 -41.1947
L51.7486 -41.0273
L52.0034 -40.8598
L52.2584 -40.6922
L52.5137 -40.5245
L52.7692 -40.357
L53.0249 -40.1896
L53.2808 -40.0226
L53.5369 -39.856
L53.7931 -39.6899
L54.0494 -39.5246
L54.3058 -39.3601
L54.5623 -39.1966
L54.8188 -39.0343
L55.0753 -38.8733
L55.3318 -38.7139
L55.5882 -38.5562
L55.8446 -38.4005
L56.1008 -38.2469
L56.3569 -38.0957
L56.6128 -37.9471
L56.8685 -37.8014
L57.124 -37.6588
L57.3791 -37.5196
L57.634 -37.3841
L57.8884 -37.2525
L58.1425 -37.1252
L58.3962 -37.0024
L58.6493 -36.8845
L58.9019 -36.7717
L59.154 -36.6645
L59.4054 -36.563
L59.6562 -36.4676
L59.9062 -36.3787
L60.1554 -36.2966
L60.4038 -36.2215
L60.6512 -36.1538
L60.8977 -36.0939
L61.1431 -36.0419
L61.3873 -35.9983
L61.6303 -35.9632
L61.872 -35.9369
L62.1122 -35.9197
L62.3508 -35.9119
L62.5878 -35.9136
L62.823 -35.9251
L63.0563 -35.9465
L63.2875 -35.978
L63.5165 -36.0198
L63.7431 -36.0719
L63.9672 -36.1345
L64.1887 -36.2077
L64.4073 -36.2915
L64.4863 -36.3859
L64.4665 -36.8845
L64.4381 -37.3815
L64.4009 -37.8781
L64.3552 -38.3741
L64.3008 -38.8694
L64.2378 -39.3638
L64.1662 -39.8572
L64.086 -40.3495
L63.9972 -40.8404
L63.8999 -41.3298
L63.7941 -41.8176
L63.6799 -42.3036
L63.5572 -42.7878
L63.4261 -43.2698
L63.2867 -43.7496
L63.139 -44.2271
L62.983 -44.7021
L62.8187 -45.1744
L62.6464 -45.6439
L62.4658 -46.1105
L62.2773 -46.574
L62.0807 -47.0343
L61.8762 -47.4912
L61.6638 -47.9446
L61.4435 -48.3944
L61.2156 -48.8404
L60.9799 -49.2825
L60.7367 -49.7205
L60.4859 -50.1544
L60.2276 -50.584
L59.962 -51.0091
L59.689 -51.4296
L59.4089 -51.8455
L59.1216 -52.2565
L58.8273 -52.6626
L58.526 -53.0636
L58.2179 -53.4593
L57.903 -53.8498
L57.5814 -54.2349
L57.2532 -54.6143
L56.9186 -54.9882
L56.5776 -55.3562
L56.2303 -55.7183
L55.8769 -56.0744
L55.5174 -56.4244
L55.152 -56.7682
L54.7807 -57.1057
L54.4038 -57.4367
L54.0212 -57.7612
L53.6331 -58.0791
L53.2396 -58.3903
L52.8409 -58.6946
L52.4371 -58.992
L52.0283 -59.2824
L51.6146 -59.5657
L51.1961 -59.8419
L50.773 -60.1108
L50.3454 -60.3723
L49.9134 -60.6264
L49.4772 -60.873
L49.0369 -61.1121
L48.5926 -61.3434
L48.1444 -61.5671
L47.6926 -61.783
L47.2372 -61.991
L46.7784 -62.1911
L46.3163 -62.3832
L45.8511 -62.5673
L45.3829 -62.7433
L44.9118 -62.9112
L44.438 -63.0708
L43.9616 -63.2222
L43.4828 -63.3654
L43.0017 -63.5001
L42.5185 -63.6266
L42.0333 -63.7445
L41.5462 -63.8541
L41.0575 -63.9551
L40.5672 -64.0477
L40.0756 -64.1317
L39.5827 -64.2071
L39.0887 -64.2739
L38.5937 -64.3321
L38.098 -64.3817
L37.6017 -64.4227
L37.1048 -64.455
L36.6076 -64.4786
L36.1102 -64.4935
L35.6128 -64.4998
L35.1155 -64.4974
L34.6185 -64.4863
L34.1219 -64.4665
L33.6259 -64.4381
L33.1306 -64.4009
L32.6362 -64.3552
L32.1428 -64.3008
L31.6505 -64.2378
L31.1596 -64.1662
L30.6702 -64.086
L30.1824 -63.9972
L29.6964 -63.8999
L29.2122 -63.7941
L28.7302 -63.6799
L28.2504 -63.5572
L27.7729 -63.4261
L27.2979 -63.2867
L26.8256 -63.139
L26.3561 -62.983
L25.8895 -62.8187
L25.426 -62.6464
L24.9657 -62.4658
L24.5088 -62.2773
L24.0554 -62.0807
L23.6056 -61.8762
L23.1596 -61.6638
L22.7175 -61.4435
L22.2795 -61.2156
L21.8456 -60.9799
L21.416 -60.7367
L20.9909 -60.4859
L20.5704 -60.2276
L20.1545 -59.962
L19.7435 -59.689
z
" id="C0_1_72a3826fd8"/>
     <path d="
M7.63185 -35.5133
L7.85207 -35.4075
L8.07346 -35.2948
L8.29602 -35.1754
L8.51971 -35.0497
L8.74451 -34.9182
L8.97042 -34.7812
L9.1974 -34.6391
L9.42544 -34.4923
L9.65452 -34.341
L9.88462 -34.1858
L10.1157 -34.0268
L10.3478 -33.8644
L10.5808 -33.6989
L10.8148 -33.5307
L11.0496 -33.3599
L11.2854 -33.187
L11.522 -33.012
L11.7594 -32.8354
L11.9976 -32.6573
L12.2366 -32.4779
L12.4763 -32.2975
L12.7167 -32.1163
L12.9578 -31.9344
L13.1995 -31.752
L13.4418 -31.5693
L13.6847 -31.3864
L13.9282 -31.2035
L14.1722 -31.0207
L14.4166 -30.8382
L14.6616 -30.656
L14.9069 -30.4742
L15.1527 -30.2931
L15.3989 -30.1125
L15.6454 -29.9327
L15.8922 -29.7537
L16.1394 -29.5756
L16.3868 -29.3984
L16.6345 -29.2221
L16.8825 -29.047
L17.1307 -28.8729
L17.3791 -28.6999
L17.6277 -28.5281
L17.8765 -28.3575
L18.1255 -28.1881
L18.3747 -28.0199
L18.6241 -27.8531
L18.8736 -27.6875
L19.1232 -27.5232
L19.373 -27.3602
L19.623 -27.1985
L19.8731 -27.0382
L20.1234 -26.8792
L20.3738 -26.7215
L20.6244 -26.5651
L20.8751 -26.4101
L21.126 -26.2564
L21.3771 -26.104
L21.6284 -25.953
L21.8798 -25.8032
L22.1315 -25.6548
L22.3834 -25.5076
L22.6355 -25.3618
L22.8878 -25.2172
L23.1404 -25.0738
L23.3933 -24.9318
L23.6464 -24.791
L23.8999 -24.6514
L24.1537 -24.513
L24.4078 -24.3758
L24.6623 -24.2398
L24.9171 -24.105
L25.1724 -23.9714
L25.4281 -23.8389
L25.6842 -23.7075
L25.9408 -23.5773
L26.1979 -23.4482
L26.4555 -23.3202
L26.7136 -23.1932
L26.9723 -23.0674
L27.2316 -22.9426
L27.4914 -22.8188
L27.7519 -22.6961
L28.0131 -22.5744
L28.2749 -22.4537
L28.5374 -22.3341
L28.8007 -22.2154
L29.0647 -22.0977
L29.3295 -21.9809
L29.5951 -21.8651
L29.8615 -21.7503
L30.1288 -21.6364
L30.3969 -21.5234
L30.6659 -21.4114
L30.9359 -21.3002
L31.2068 -21.19
L31.4786 -21.0807
L31.7515 -20.9722
L32.0253 -20.8646
L32.3002 -20.7579
L32.5761 -20.6521
L32.853 -20.5472
L33.131 -20.443
L33.4102 -20.3398
L33.6904 -20.2374
L33.9717 -20.1358
L34.2542 -20.035
L34.5378 -19.9351
L34.8225 -19.836
L35.1084 -19.7377
L35.3954 -19.6402
L35.6836 -19.5436
L35.9729 -19.4477
L36.2634 -19.3526
L36.555 -19.2583
L36.8477 -19.1647
L37.1416 -19.072
L37.4366 -18.98
L37.7326 -18.8887
L38.0297 -18.7982
L38.3278 -18.7084
L38.627 -18.6193
L38.9271 -18.5308
L39.2281 -18.4431
L39.53 -18.356
L39.8328 -18.2696
L40.1363 -18.1838
L40.4406 -18.0985
L40.7455 -18.0139
L41.051 -17.9297
L41.357 -17.8461
L41.6635 -17.7628
L41.9702 -17.6801
L42.2773 -17.5976
L42.5844 -17.5155
L42.8916 -17.4337
L43.1987 -17.352
L43.5056 -17.2705
L43.8121 -17.189
L44.1182 -17.1075
L44.4236 -17.026
L44.7282 -16.9442
L45.0319 -16.8622
L45.3344 -16.7798
L45.6356 -16.6969
L45.9353 -16.6133
L46.2332 -16.5291
L46.5293 -16.444
L46.8233 -16.3579
L47.1149 -16.2707
L47.4039 -16.1822
L47.6901 -16.0922
L47.9732 -16.0006
L48.2531 -15.9073
L48.5294 -15.812
L48.8018 -15.7146
L49.0702 -15.615
L49.3342 -15.5128
L49.5937 -15.408
L49.8482 -15.3004
L50.0975 -15.1897
L50.3414 -15.0759
L50.5796 -14.9587
L50.8118 -14.8379
L51.0378 -14.7135
L51.2573 -14.5852
L51.4699 -14.4529
L51.6756 -14.3165
L51.874 -14.1759
L52.0648 -14.0309
L52.2479 -13.8814
L52.4231 -13.7274
L52.59 -13.5689
L52.7486 -13.4056
L52.5865 -13.2377
L52.1795 -12.8237
L51.7675 -12.5378
L51.3508 -12.259
L50.9294 -11.9874
L50.5034 -11.7232
L50.073 -11.4663
L49.6384 -11.2169
L49.1995 -10.9751
L48.7567 -10.7409
L48.31 -10.5144
L47.8595 -10.2956
L47.4054 -10.0847
L46.9478 -9.88168
L46.4869 -9.6866
L46.0228 -9.49954
L45.5557 -9.32056
L45.0856 -9.1497
L44.6128 -8.98702
L44.1374 -8.83257
L43.6594 -8.68639
L43.1792 -8.54853
L42.6967 -8.41904
L42.2122 -8.29794
L41.7259 -8.18529
L41.2377 -8.08111
L40.748 -7.98543
L40.2568 -7.89829
L39.7644 -7.8197
L39.2708 -7.7497
L38.7762 -7.68831
L38.2807 -7.63554
L37.7846 -7.5914
L37.2879 -7.55593
L36.7908 -7.52911
L36.2935 -7.51097
L35.7961 -7.50151
L35.2987 -7.50073
L34.8016 -7.50863
L34.3048 -7.52521
L33.8086 -7.55046
L33.313 -7.58438
L32.8182 -7.62695
L32.3244 -7.67817
L31.8317 -7.73801
L31.3403 -7.80646
L30.8503 -7.8835
L30.3619 -7.96911
L29.8752 -8.06325
L29.3904 -8.16591
L28.9075 -8.27704
L28.4269 -8.39661
L27.9485 -8.5246
L27.4726 -8.66095
L26.9993 -8.80564
L26.5287 -8.9586
L26.061 -9.1198
L25.5964 -9.28919
L25.1349 -9.46672
L24.6767 -9.65233
L24.222 -9.84596
L23.7709 -10.0476
L23.3235 -10.2571
L22.8799 -10.4744
L22.4403 -10.6995
L22.0049 -10.9324
L21.5738 -11.1728
L21.147 -11.4209
L20.7247 -11.6764
L20.3072 -11.9393
L19.8943 -12.2096
L19.4864 -12.4871
L19.0836 -12.7717
L18.6858 -13.0635
L18.2934 -13.3622
L17.9063 -13.6678
L17.5248 -13.9802
L17.1489 -14.2994
L16.7787 -14.6251
L16.4144 -14.9574
L16.056 -15.296
L15.7038 -15.641
L15.3577 -15.9922
L15.0179 -16.3494
L14.6845 -16.7127
L14.3575 -17.0818
L14.0372 -17.4567
L13.7236 -17.8372
L13.4167 -18.2233
L13.1167 -18.6148
L12.8237 -19.0116
L12.5378 -19.4135
L12.259 -19.8205
L11.9874 -20.2325
L11.7232 -20.6492
L11.4663 -21.0706
L11.2169 -21.4966
L10.9751 -21.927
L10.7409 -22.3616
L10.5144 -22.8005
L10.2956 -23.2433
L10.0847 -23.69
L9.88168 -24.1405
L9.6866 -24.5946
L9.49954 -25.0522
L9.32056 -25.5131
L9.1497 -25.9772
L8.98702 -26.4443
L8.83257 -26.9144
L8.68639 -27.3872
L8.54853 -27.8626
L8.41904 -28.3406
L8.29794 -28.8208
L8.18529 -29.3033
L8.08111 -29.7878
L7.98543 -30.2741
L7.89829 -30.7623
L7.8197 -31.252
L7.7497 -31.7432
L7.68831 -32.2356
L7.63554 -32.7292
L7.5914 -33.2238
L7.55593 -33.7193
L7.52911 -34.2154
z
" id="C0_2_902dfbd064"/>
    </defs>
    <g clip-path="url(#p1bffca34e9)">
     <use style="fill:#ff0000;stroke:#000000;stroke-width:2.0;" x="0.0" xlink:href="#C0_0_a811fe30f3" y="72.0"/>
    </g>
    <g clip-path="url(#p1bffca34e9)">
     <use style="fill:#ffffff;stroke:#000000;stroke-width:2.0;" x="0.0" xlink:href="#C0_1_72a3826fd8" y="72.0"/>
    </g>
    <g clip-path="url(#p1bffca34e9)">
     <use style="fill:#ffffff;stroke:#000000;stroke-width:2.0;" x="0.0" xlink:href="#C0_2_902dfbd064" y="72.0"/>
    </g>
   </g>
  </g>
 </g>
 <defs>
  <clipPath id="p1bffca34e9">
   <rect height="72.0" width="72.0" x="0.0" y="0.0"/>
  </clipPath>
 </defs>
</svg>
