<?xml version="1.0" encoding="utf-8" standalone="no"?>
<!DOCTYPE svg PUBLIC "-//W3C//DTD SVG 1.1//EN"
  "http://www.w3.org/Graphics/SVG/1.1/DTD/svg11.dtd">
<!-- Created with matplotlib (http://matplotlib.org/) -->
<svg height="72pt" version="1.1" viewBox="0 0 72 72" width="72pt" xmlns="http://www.w3.org/2000/svg" xmlns:xlink="http://www.w3.org/1999/xlink">
 <defs>
  <style type="text/css">
*{stroke-linecap:butt;stroke-linejoin:round;}
  </style>
 </defs>
 <g id="figure_1">
  <g id="patch_1">
   <path d="
M0 72
L72 72
L72 0
L0 0
z
" style="fill:none;"/>
  </g>
  <g id="axes_1">
   <g id="PatchCollection_1">
    <defs>
     <path d="
M36 -7.5
C43.5583 -7.5 50.808 -10.5029 56.1525 -15.8475
C61.4971 -21.192 64.5 -28.4417 64.5 -36
C64.5 -43.5583 61.4971 -50.808 56.1525 -56.1525
C50.808 -61.4971 43.5583 -64.5 36 -64.5
C28.4417 -64.5 21.192 -61.4971 15.8475 -56.1525
C10.5029 -50.808 7.5 -43.5583 7.5 -36
C7.5 -28.4417 10.5029 -21.192 15.8475 -15.8475
C21.192 -10.5029 28.4417 -7.5 36 -7.5
z
" id="C0_0_a811fe30f3"/>
     <path d="
M46.0582 -36.2951
L45.9432 -36.0614
L45.8268 -35.8281
L45.709 -35.5952
L45.5897 -35.3628
L45.469 -35.1307
L45.3468 -34.8989
L45.2231 -34.6674
L45.0978 -34.4361
L44.9709 -34.205
L44.8425 -33.9741
L44.7124 -33.7433
L44.5806 -33.5126
L44.4472 -33.2819
L44.312 -33.0512
L44.175 -32.8206
L44.0362 -32.5899
L43.8955 -32.3591
L43.753 -32.1282
L43.6085 -31.8972
L43.462 -31.666
L43.3135 -31.4346
L43.1629 -31.203
L43.0102 -30.9712
L42.8553 -30.7392
L42.6982 -30.5069
L42.5388 -30.2743
L42.3771 -30.0414
L42.213 -29.8083
L42.0465 -29.5748
L41.8775 -29.341
L41.7059 -29.1069
L41.5318 -28.8725
L41.3549 -28.6378
L41.1753 -28.4028
L40.993 -28.1675
L40.8077 -27.932
L40.6196 -27.6962
L40.4285 -27.4601
L40.2343 -27.2239
L40.0371 -26.9876
L39.8366 -26.7511
L39.633 -26.5145
L39.426 -26.278
L39.2156 -26.0415
L39.0019 -25.8051
L38.7846 -25.569
L38.5638 -25.3331
L38.3393 -25.0976
L38.1112 -24.8626
L37.8793 -24.6282
L37.6436 -24.3945
L37.4041 -24.1616
L37.1606 -23.9298
L36.9132 -23.6992
L36.6618 -23.4698
L36.4063 -23.2421
L36.1467 -23.016
L35.8829 -22.7919
L35.6149 -22.5701
L35.3428 -22.3506
L35.0664 -22.1339
L34.7857 -21.9202
L34.5008 -21.7099
L34.2115 -21.5032
L33.918 -21.3006
L33.6202 -21.1024
L33.3182 -20.909
L33.0119 -20.7209
L32.7014 -20.5386
L32.3868 -20.3624
L32.0681 -20.193
L31.7453 -20.031
L31.4186 -19.8768
L31.0881 -19.7311
L30.7538 -19.5945
L30.416 -19.4677
L30.0747 -19.3513
L29.7301 -19.2461
L29.3825 -19.1527
L29.0321 -19.0719
L28.6791 -19.0044
L28.3237 -18.9508
L27.9663 -18.9119
L27.6073 -18.8883
L27.2469 -18.8805
L26.8856 -18.8891
L26.5238 -18.9145
L26.1619 -18.9572
L25.8005 -19.0173
L25.4399 -19.0951
L25.0807 -19.1906
L24.7234 -19.3037
L24.3686 -19.4343
L24.0167 -19.582
L23.6682 -19.7466
L23.3236 -19.9274
L22.9835 -20.1241
L22.6482 -20.3359
L22.3183 -20.5621
L21.994 -20.8021
L21.6758 -21.0551
L21.364 -21.3203
L21.0589 -21.597
L20.7608 -21.8844
L20.4698 -22.1816
L20.1863 -22.488
L19.9103 -22.8029
L19.6421 -23.1254
L19.3817 -23.455
L19.1292 -23.7909
L18.8846 -24.1325
L18.6481 -24.4793
L18.4196 -24.8307
L18.1991 -25.1861
L17.9866 -25.545
L17.7821 -25.907
L17.5854 -26.2716
L17.3966 -26.6384
L17.2156 -27.0069
L17.0421 -27.3769
L16.8763 -27.748
L16.7179 -28.1199
L16.5668 -28.4922
L16.423 -28.8648
L16.2862 -29.2373
L16.1564 -29.6096
L16.0335 -29.9813
L15.9172 -30.3524
L15.8075 -30.7226
L15.7042 -31.0919
L15.6072 -31.4599
L15.5163 -31.8267
L15.4315 -32.1921
L15.3526 -32.5559
L15.2794 -32.9182
L15.2118 -33.2787
L15.1497 -33.6376
L15.093 -33.9945
L15.0415 -34.3496
L14.9951 -34.7028
L14.9537 -35.0541
L14.9173 -35.4033
L14.8856 -35.7505
L14.8586 -36.0957
L14.8361 -36.4389
L14.8181 -36.78
L14.8045 -37.1191
L14.7952 -37.4561
L14.7901 -37.791
L14.7891 -38.124
L14.7921 -38.4549
L14.7991 -38.7839
L14.81 -39.1108
L14.8246 -39.4358
L14.8431 -39.7589
L14.8652 -40.0801
L14.8909 -40.3995
L14.9202 -40.7169
L14.9531 -41.0326
L14.9894 -41.3465
L15.0291 -41.6587
L15.0723 -41.9692
L15.1188 -42.278
L15.1686 -42.5852
L15.2217 -42.8908
L15.2781 -43.1949
L15.3378 -43.4974
L15.4006 -43.7985
L15.4667 -44.0982
L15.536 -44.3964
L15.6085 -44.6933
L15.6841 -44.9889
L15.763 -45.2833
L15.845 -45.5764
L15.9301 -45.8682
L16.0185 -46.159
L16.1101 -46.4486
L16.2048 -46.7371
L16.3028 -47.0245
L16.4041 -47.311
L16.5085 -47.5964
L16.6163 -47.8809
L16.7274 -48.1644
L16.8418 -48.4471
L16.9596 -48.7289
L17.0808 -49.0098
L17.2054 -49.29
L17.3336 -49.5693
L17.4652 -49.8479
L17.6005 -50.1257
L17.7393 -50.4028
L17.8819 -50.6791
L18.0282 -50.9548
L18.1783 -51.2297
L18.3322 -51.504
L18.4901 -51.7776
L18.652 -52.0505
L18.8179 -52.3227
L18.988 -52.5943
L19.1623 -52.8652
L19.3408 -53.1354
L19.5238 -53.4048
L19.7112 -53.6736
L19.9032 -53.9416
L20.0998 -54.2088
L20.3012 -54.4753
L20.5073 -54.7409
L20.7185 -55.0056
L20.9346 -55.2694
L21.1559 -55.5323
L21.3824 -55.7941
L21.6142 -56.0549
L21.8516 -56.3145
L22.0944 -56.5728
L22.343 -56.8299
L22.5973 -57.0855
L22.8575 -57.3397
L23.1238 -57.5922
L23.3961 -57.843
L23.6747 -58.092
L23.9597 -58.339
L24.2511 -58.5838
L24.549 -58.8264
L24.8536 -59.0665
L25.165 -59.304
L25.4833 -59.5387
L25.8085 -59.7703
L26.1407 -59.9988
L26.4801 -60.2238
L26.8267 -60.4451
L27.1805 -60.6624
L27.5416 -60.8756
L27.91 -61.0842
L28.2858 -61.2881
L28.669 -61.4869
L29.0595 -61.6803
L29.4574 -61.8679
L29.8625 -62.0494
L30.2749 -62.2245
L30.6944 -62.3927
L31.1209 -62.5537
L31.5542 -62.707
L31.9942 -62.8523
L32.4407 -62.9891
L32.8933 -63.117
L33.3519 -63.2355
L33.816 -63.3442
L34.2852 -63.4427
L34.7593 -63.5304
L35.2375 -63.6069
L35.7195 -63.6717
L36.2046 -63.7245
L36.6922 -63.7647
L37.1816 -63.792
L37.672 -63.8059
L38.1625 -63.806
L38.6524 -63.7921
L39.1407 -63.7637
L39.6264 -63.7206
L40.1086 -63.6625
L40.586 -63.5894
L41.0578 -63.5009
L41.5228 -63.3972
L41.9798 -63.2782
L42.428 -63.144
L42.8661 -62.9948
L43.2933 -62.8307
L43.7087 -62.6523
L44.1113 -62.4597
L44.5005 -62.2535
L44.8756 -62.0343
L45.2362 -61.8027
L45.5817 -61.5592
L45.912 -61.3045
L46.2268 -61.0395
L46.5261 -60.7647
L46.8099 -60.4811
L47.0785 -60.1892
L47.3319 -59.8898
L47.5704 -59.5837
L47.7945 -59.2715
L48.0044 -58.9538
L48.2007 -58.6315
L48.3837 -58.3049
L48.5539 -57.9748
L48.7118 -57.6416
L48.8579 -57.3059
L48.9926 -56.968
L49.1164 -56.6285
L49.2298 -56.2878
L49.3331 -55.9462
L49.427 -55.6041
L49.5117 -55.2618
L49.5877 -54.9196
L49.6554 -54.5777
L49.7152 -54.2365
L49.7674 -53.896
L49.8125 -53.5566
L49.8506 -53.2184
L49.8822 -52.8816
L49.9076 -52.5463
L49.927 -52.2127
L49.9407 -51.8808
L49.9491 -51.5509
L49.9522 -51.2229
L49.9505 -50.897
L49.9441 -50.5732
L49.9332 -50.2516
L49.9181 -49.9322
L49.8989 -49.6151
L49.8759 -49.3004
L49.8491 -48.9879
L49.8188 -48.6779
L49.7852 -48.3702
L49.7483 -48.0649
L49.7084 -47.7619
L49.6655 -47.4613
L49.6197 -47.1631
L49.5713 -46.8673
L49.5203 -46.5737
L49.4668 -46.2825
L49.411 -45.9935
L49.3528 -45.7068
L49.2925 -45.4224
L49.23 -45.1401
L49.1655 -44.86
L49.099 -44.582
L49.0306 -44.306
L48.9604 -44.0321
L48.8884 -43.7602
L48.8147 -43.4903
L48.7393 -43.2222
L48.6623 -42.9561
L48.5837 -42.6917
L48.5036 -42.4291
L48.4219 -42.1682
L48.3388 -41.909
L48.2542 -41.6514
L48.1683 -41.3954
L48.0809 -41.1409
L47.9922 -40.8879
L47.9021 -40.6363
L47.8107 -40.3861
L47.718 -40.1372
L47.6239 -39.8895
L47.5286 -39.6431
L47.4319 -39.3979
L47.334 -39.1538
L47.2348 -38.9108
L47.1344 -38.6688
L47.0326 -38.4278
L46.9296 -38.1877
L46.8252 -37.9485
L46.7196 -37.7102
L46.6127 -37.4726
L46.5045 -37.2358
L46.3949 -36.9997
L46.284 -36.7643
z
" id="C0_1_1cc1b03d4c"/>
    </defs>
    <g clip-path="url(#p1bffca34e9)">
     <use style="fill:#ffffff;stroke:#000000;stroke-width:2.0;" x="0.0" xlink:href="#C0_0_a811fe30f3" y="72.0"/>
    </g>
    <g clip-path="url(#p1bffca34e9)">
     <use style="fill:#ff0000;stroke:#000000;stroke-width:2.0;" x="0.0" xlink:href="#C0_1_1cc1b03d4c" y="72.0"/>
    </g>
   </g>
  </g>
 </g>
 <defs>
  <clipPath id="p1bffca34e9">
   <rect height="72.0" width="72.0" x="0.0" y="0.0"/>
  </clipPath>
 </defs>
</svg>
