<?xml version="1.0" encoding="utf-8" standalone="no"?>
<!DOCTYPE svg PUBLIC "-//W3C//DTD SVG 1.1//EN"
  "http://www.w3.org/Graphics/SVG/1.1/DTD/svg11.dtd">
<!-- Created with matplotlib (http://matplotlib.org/) -->
<svg height="72pt" version="1.1" viewBox="0 0 72 72" width="72pt" xmlns="http://www.w3.org/2000/svg" xmlns:xlink="http://www.w3.org/1999/xlink">
 <defs>
  <style type="text/css">
*{stroke-linecap:butt;stroke-linejoin:round;}
  </style>
 </defs>
 <g id="figure_1">
  <g id="patch_1">
   <path d="
M0 72
L72 72
L72 0
L0 0
z
" style="fill:none;"/>
  </g>
  <g id="axes_1">
   <g id="PatchCollection_1">
    <defs>
     <path d="
M36 -7.5
C43.5583 -7.5 50.808 -10.5029 56.1525 -15.8475
C61.4971 -21.192 64.5 -28.4417 64.5 -36
C64.5 -43.5583 61.4971 -50.808 56.1525 -56.1525
C50.808 -61.4971 43.5583 -64.5 36 -64.5
C28.4417 -64.5 21.192 -61.4971 15.8475 -56.1525
C10.5029 -50.808 7.5 -43.5583 7.5 -36
C7.5 -28.4417 10.5029 -21.192 15.8475 -15.8475
C21.192 -10.5029 28.4417 -7.5 36 -7.5
z
" id="C0_0_a811fe30f3"/>
     <path d="
M40.8209 -32.9169
L40.8972 -33.1689
L40.9722 -33.4213
L41.0459 -33.6743
L41.1184 -33.9278
L41.1896 -34.1819
L41.2595 -34.4366
L41.3281 -34.692
L41.3955 -34.948
L41.4617 -35.2048
L41.5266 -35.4624
L41.5902 -35.7207
L41.6526 -35.9799
L41.7137 -36.2399
L41.7735 -36.5008
L41.832 -36.7627
L41.8892 -37.0255
L41.9452 -37.2894
L41.9997 -37.5542
L42.053 -37.8201
L42.1049 -38.0871
L42.1554 -38.3553
L42.2045 -38.6246
L42.2522 -38.8951
L42.2984 -39.1668
L42.3431 -39.4397
L42.3863 -39.714
L42.428 -39.9895
L42.4681 -40.2663
L42.5065 -40.5445
L42.5433 -40.824
L42.5784 -41.105
L42.6117 -41.3873
L42.6432 -41.671
L42.6729 -41.9562
L42.7006 -42.2428
L42.7264 -42.5308
L42.75 -42.8203
L42.7716 -43.1112
L42.791 -43.4036
L42.8081 -43.6974
L42.8229 -43.9926
L42.8353 -44.2893
L42.8451 -44.5873
L42.8523 -44.8867
L42.8568 -45.1875
L42.8585 -45.4895
L42.8573 -45.7929
L42.853 -46.0974
L42.8456 -46.4031
L42.8349 -46.7099
L42.8208 -47.0178
L42.8031 -47.3266
L42.7817 -47.6364
L42.7565 -47.9469
L42.7272 -48.2581
L42.6938 -48.5699
L42.656 -48.8822
L42.6137 -49.1948
L42.5667 -49.5076
L42.5148 -49.8205
L42.4578 -50.1333
L42.3955 -50.4458
L42.3276 -50.7578
L42.254 -51.0691
L42.1744 -51.3796
L42.0886 -51.6889
L41.9964 -51.9969
L41.8975 -52.3033
L41.7916 -52.6078
L41.6785 -52.9102
L41.558 -53.2101
L41.4297 -53.5073
L41.2935 -53.8014
L41.1491 -54.092
L40.9963 -54.3789
L40.8347 -54.6616
L40.6642 -54.9398
L40.4845 -55.2132
L40.2955 -55.4812
L40.097 -55.7436
L39.8887 -55.9999
L39.6706 -56.2497
L39.4425 -56.4926
L39.2044 -56.7282
L38.9563 -56.9561
L38.698 -57.1759
L38.4297 -57.3873
L38.1515 -57.5898
L37.8634 -57.7832
L37.5655 -57.967
L37.2582 -58.1411
L36.9417 -58.305
L36.6162 -58.4587
L36.2822 -58.6017
L35.9399 -58.734
L35.5897 -58.8554
L35.2322 -58.9657
L34.8677 -59.0648
L34.4968 -59.1527
L34.12 -59.2293
L33.7378 -59.2946
L33.3507 -59.3487
L32.9592 -59.3915
L32.564 -59.4231
L32.1655 -59.4437
L31.7642 -59.4533
L31.3607 -59.4521
L30.9556 -59.4402
L30.5492 -59.4179
L30.1421 -59.3852
L29.7347 -59.3425
L29.3275 -59.2898
L28.921 -59.2275
L28.5154 -59.1557
L28.1113 -59.0748
L27.7089 -58.9849
L27.3086 -58.8863
L26.9108 -58.7792
L26.5157 -58.664
L26.1235 -58.5408
L25.7346 -58.4098
L25.3493 -58.2715
L24.9676 -58.1259
L24.5898 -57.9734
L24.2161 -57.8141
L23.8467 -57.6484
L23.4817 -57.4764
L23.1212 -57.2985
L22.7653 -57.1147
L22.4142 -56.9254
L22.0679 -56.7307
L21.7266 -56.5309
L21.3903 -56.3261
L21.0589 -56.1166
L20.7327 -55.9024
L20.4116 -55.6839
L20.0957 -55.4612
L19.7849 -55.2344
L19.4793 -55.0037
L19.1789 -54.7693
L18.8837 -54.5312
L18.5937 -54.2898
L18.3089 -54.0449
L18.0292 -53.7969
L17.7547 -53.5459
L17.4852 -53.2918
L17.2209 -53.0349
L16.9617 -52.7752
L16.7075 -52.5129
L16.4583 -52.248
L16.214 -51.9807
L15.9747 -51.7109
L15.7403 -51.4388
L15.5108 -51.1645
L15.2861 -50.8879
L15.0662 -50.6093
L14.851 -50.3285
L14.6406 -50.0458
L14.4348 -49.7611
L14.2337 -49.4744
L14.0372 -49.1859
L13.8452 -48.8955
L13.6578 -48.6033
L13.4749 -48.3094
L13.2965 -48.0136
L13.1225 -47.7162
L12.953 -47.417
L12.7878 -47.1161
L12.627 -46.8136
L12.4705 -46.5094
L12.3184 -46.2036
L12.1706 -45.8961
L12.027 -45.587
L11.8878 -45.2762
L11.7528 -44.9638
L11.622 -44.6498
L11.4955 -44.3342
L11.3733 -44.017
L11.2553 -43.6981
L11.1415 -43.3776
L11.0319 -43.0555
L10.9267 -42.7317
L10.8256 -42.4063
L10.7289 -42.0792
L10.6364 -41.7505
L10.5482 -41.4201
L10.4644 -41.088
L10.3849 -40.7543
L10.3097 -40.4188
L10.239 -40.0817
L10.1727 -39.7429
L10.1108 -39.4023
L10.0535 -39.06
L10.0007 -38.716
L9.95249 -38.3703
L9.90893 -38.0228
L9.87006 -37.6736
L9.83594 -37.3227
L9.80662 -36.9701
L9.78216 -36.6157
L9.76263 -36.2596
L9.74811 -35.9018
L9.73864 -35.5423
L9.73432 -35.1811
L9.73522 -34.8182
L9.74142 -34.4537
L9.753 -34.0876
L9.77005 -33.7199
L9.79265 -33.3506
L9.82091 -32.9798
L9.85491 -32.6076
L9.89475 -32.2339
L9.94053 -31.8588
L9.99235 -31.4825
L10.0503 -31.1049
L10.1145 -30.7261
L10.1851 -30.3462
L10.2621 -29.9654
L10.3458 -29.5836
L10.436 -29.201
L10.5331 -28.8178
L10.6371 -28.434
L10.7481 -28.0498
L10.8662 -27.6654
L10.9915 -27.2808
L11.1242 -26.8963
L11.2642 -26.512
L11.4118 -26.1281
L11.567 -25.7449
L11.7298 -25.3625
L11.9005 -24.9812
L12.0789 -24.6012
L12.2653 -24.2228
L12.4597 -23.8463
L12.662 -23.4719
L12.8724 -23.1
L13.0908 -22.7308
L13.3174 -22.3647
L13.5519 -22.0021
L13.7945 -21.6432
L14.0451 -21.2886
L14.3037 -20.9385
L14.5701 -20.5934
L14.8443 -20.2537
L15.1261 -19.9198
L15.4154 -19.5922
L15.712 -19.2712
L16.0158 -18.9575
L16.3265 -18.6514
L16.6439 -18.3533
L16.9678 -18.0639
L17.2977 -17.7835
L17.6334 -17.5127
L17.9746 -17.2518
L18.3208 -17.0014
L18.6718 -16.7619
L19.0269 -16.5337
L19.3859 -16.3173
L19.7483 -16.113
L20.1135 -15.9213
L20.4811 -15.7425
L20.8505 -15.5768
L21.2214 -15.4246
L21.5931 -15.2861
L21.9651 -15.1615
L22.337 -15.0509
L22.7083 -14.9545
L23.0784 -14.8724
L23.4469 -14.8044
L23.8133 -14.7506
L24.1773 -14.7109
L24.5384 -14.6851
L24.8963 -14.6731
L25.2506 -14.6746
L25.601 -14.6894
L25.9473 -14.7172
L26.2892 -14.7576
L26.6264 -14.8103
L26.9589 -14.8748
L27.2864 -14.9508
L27.6088 -15.0379
L27.9261 -15.1355
L28.2381 -15.2433
L28.5448 -15.3608
L28.8462 -15.4876
L29.1422 -15.6231
L29.4329 -15.767
L29.7183 -15.9189
L29.9983 -16.0781
L30.2731 -16.2445
L30.5427 -16.4174
L30.8071 -16.5967
L31.0664 -16.7817
L31.3207 -16.9723
L31.5701 -17.1679
L31.8146 -17.3684
L32.0543 -17.5733
L32.2893 -17.7823
L32.5197 -17.9952
L32.7456 -18.2116
L32.967 -18.4313
L33.1841 -18.654
L33.3969 -18.8795
L33.6055 -19.1076
L33.8101 -19.3381
L34.0107 -19.5706
L34.2073 -19.8052
L34.4001 -20.0415
L34.5892 -20.2794
L34.7747 -20.5188
L34.9566 -20.7595
L35.135 -21.0013
L35.3099 -21.2442
L35.4816 -21.4881
L35.65 -21.7327
L35.8152 -21.9781
L35.9774 -22.2241
L36.1365 -22.4706
L36.2926 -22.7177
L36.4459 -22.9651
L36.5963 -23.2128
L36.744 -23.4608
L36.889 -23.7091
L37.0314 -23.9575
L37.1713 -24.206
L37.3086 -24.4547
L37.4435 -24.7034
L37.576 -24.9521
L37.7061 -25.2008
L37.834 -25.4496
L37.9597 -25.6983
L38.0832 -25.9469
L38.2045 -26.1956
L38.3238 -26.4441
L38.4411 -26.6926
L38.5564 -26.941
L38.6697 -27.1894
L38.7812 -27.4377
L38.8908 -27.686
L38.9986 -27.9342
L39.1045 -28.1824
L39.2088 -28.4306
L39.3113 -28.6787
L39.4122 -28.9269
L39.5114 -29.1751
L39.6091 -29.4233
L39.7051 -29.6717
L39.7996 -29.9201
L39.8925 -30.1686
L39.984 -30.4172
L40.074 -30.666
L40.1625 -30.915
L40.2496 -31.1642
L40.3353 -31.4136
L40.4196 -31.6633
L40.5025 -31.9133
L40.5841 -32.1637
L40.6643 -32.4144
z
" id="C0_1_d1834117ac"/>
    </defs>
    <g clip-path="url(#p1bffca34e9)">
     <use style="fill:#ff0000;stroke:#000000;stroke-width:2.0;" x="0.0" xlink:href="#C0_0_a811fe30f3" y="72.0"/>
    </g>
    <g clip-path="url(#p1bffca34e9)">
     <use style="fill:#ffffff;stroke:#000000;stroke-width:2.0;" x="0.0" xlink:href="#C0_1_d1834117ac" y="72.0"/>
    </g>
   </g>
  </g>
 </g>
 <defs>
  <clipPath id="p1bffca34e9">
   <rect height="72.0" width="72.0" x="0.0" y="0.0"/>
  </clipPath>
 </defs>
</svg>
