<?xml version="1.0" encoding="utf-8" standalone="no"?>
<!DOCTYPE svg PUBLIC "-//W3C//DTD SVG 1.1//EN"
  "http://www.w3.org/Graphics/SVG/1.1/DTD/svg11.dtd">
<!-- Created with matplotlib (http://matplotlib.org/) -->
<svg height="72pt" version="1.1" viewBox="0 0 72 72" width="72pt" xmlns="http://www.w3.org/2000/svg" xmlns:xlink="http://www.w3.org/1999/xlink">
 <defs>
  <style type="text/css">
*{stroke-linecap:butt;stroke-linejoin:round;}
  </style>
 </defs>
 <g id="figure_1">
  <g id="patch_1">
   <path d="
M0 72
L72 72
L72 0
L0 0
z
" style="fill:none;"/>
  </g>
  <g id="axes_1">
   <g id="PatchCollection_1">
    <defs>
     <path d="
M36 -7.5
C43.5583 -7.5 50.808 -10.5029 56.1525 -15.8475
C61.4971 -21.192 64.5 -28.4417 64.5 -36
C64.5 -43.5583 61.4971 -50.808 56.1525 -56.1525
C50.808 -61.4971 43.5583 -64.5 36 -64.5
C28.4417 -64.5 21.192 -61.4971 15.8475 -56.1525
C10.5029 -50.808 7.5 -43.5583 7.5 -36
C7.5 -28.4417 10.5029 -21.192 15.8475 -15.8475
C21.192 -10.5029 28.4417 -7.5 36 -7.5
z
" id="C0_0_a811fe30f3"/>
     <path d="
M47.0142 -62.1656
L47.1698 -61.7973
L47.3246 -61.4244
L47.4771 -61.0478
L47.6264 -60.6682
L47.7716 -60.2864
L47.9123 -59.9029
L48.0479 -59.5183
L48.1781 -59.1331
L48.3028 -58.7477
L48.4219 -58.3625
L48.5352 -57.9778
L48.6428 -57.594
L48.7446 -57.2114
L48.8409 -56.8301
L48.9315 -56.4505
L49.0168 -56.0727
L49.0966 -55.697
L49.1713 -55.3235
L49.2408 -54.9524
L49.3054 -54.5837
L49.3653 -54.2176
L49.4205 -53.8543
L49.4711 -53.4937
L49.5175 -53.136
L49.5597 -52.7813
L49.5978 -52.4295
L49.632 -52.0806
L49.6624 -51.7349
L49.6892 -51.3922
L49.7125 -51.0525
L49.7325 -50.7159
L49.7492 -50.3823
L49.7628 -50.0518
L49.7734 -49.7242
L49.7811 -49.3997
L49.786 -49.0782
L49.7882 -48.7595
L49.7879 -48.4437
L49.785 -48.1308
L49.7798 -47.8207
L49.7722 -47.5133
L49.7625 -47.2086
L49.7505 -46.9066
L49.7365 -46.6071
L49.7205 -46.3101
L49.7025 -46.0157
L49.6826 -45.7236
L49.6609 -45.4338
L49.6374 -45.1463
L49.6122 -44.861
L49.5853 -44.5779
L49.5568 -44.2968
L49.5267 -44.0177
L49.4951 -43.7406
L49.4619 -43.4653
L49.4273 -43.1919
L49.3912 -42.9202
L49.3537 -42.6501
L49.3148 -42.3816
L49.2745 -42.1147
L49.2329 -41.8492
L49.19 -41.5851
L49.1457 -41.3224
L49.1001 -41.0609
L49.0533 -40.8006
L49.0052 -40.5414
L48.9558 -40.2833
L48.9051 -40.0261
L48.8532 -39.7699
L48.8 -39.5146
L48.7456 -39.26
L48.6899 -39.0062
L48.633 -38.753
L48.5748 -38.5004
L48.5154 -38.2484
L48.4547 -37.9968
L48.3927 -37.7457
L48.2648 -37.4949
L48.1989 -37.2443
L48.1317 -36.994
L48.0632 -36.7439
L47.9932 -36.4938
L47.9219 -36.2437
L47.8492 -35.9937
L47.775 -35.7435
L47.6994 -35.4932
L47.6224 -35.2426
L47.5438 -34.9918
L47.4637 -34.7407
L47.382 -34.4891
L47.2987 -34.2371
L47.2138 -33.9846
L47.1272 -33.7315
L47.0389 -33.4777
L46.9489 -33.2233
L46.8571 -32.9681
L46.7634 -32.7121
L46.6679 -32.4552
L46.5705 -32.1974
L46.4711 -31.9386
L46.3696 -31.6787
L46.2661 -31.4178
L46.1605 -31.1557
L46.0527 -30.8924
L45.9426 -30.6278
L45.8303 -30.3619
L45.7156 -30.0946
L45.5985 -29.8259
L45.4788 -29.5558
L45.3567 -29.2841
L45.2318 -29.0109
L45.1043 -28.7361
L44.9741 -28.4596
L44.8409 -28.1814
L44.7049 -27.9015
L44.5658 -27.6198
L44.4237 -27.3363
L44.2784 -27.051
L44.1299 -26.7639
L43.978 -26.4748
L43.8227 -26.1838
L43.6639 -25.891
L43.5015 -25.5962
L43.3354 -25.2994
L43.1656 -25.0007
L42.9919 -24.7001
L42.8142 -24.3975
L42.6326 -24.0931
L42.4468 -23.7867
L42.2568 -23.4785
L42.0625 -23.1684
L41.8639 -22.8566
L41.6608 -22.543
L41.4533 -22.2278
L41.2411 -21.911
L41.0244 -21.5927
L40.8029 -21.273
L40.5768 -20.9519
L40.3459 -20.6297
L40.1103 -20.3063
L39.8699 -19.9821
L39.6247 -19.657
L39.3748 -19.3314
L39.1203 -19.0052
L38.8612 -18.6788
L38.5976 -18.3524
L38.3297 -18.026
L38.0577 -17.7
L37.7819 -17.3746
L37.5025 -17.05
L37.2199 -16.7265
L36.9347 -16.4043
L36.6474 -16.0837
L36.3587 -15.7649
L36.0696 -15.4482
L35.7812 -15.1339
L35.495 -14.8221
L35.2127 -14.5131
L34.9365 -14.2071
L34.6694 -13.9043
L34.415 -13.6047
L34.1778 -13.3084
L33.9636 -13.0154
L33.7792 -12.7254
L33.6327 -12.4383
L33.5324 -12.1538
L33.4866 -11.8715
L33.5016 -11.5911
L33.5804 -11.3127
L33.7224 -11.0364
L33.9234 -10.7631
L34.1769 -10.4936
L34.4758 -10.2291
L34.8128 -9.9708
L35.1818 -9.71981
L35.5772 -9.47709
L35.9946 -9.24347
L36.4304 -9.01964
L36.8815 -8.80616
L37.3456 -8.60351
L37.8205 -8.41207
L38.3045 -8.23214
L38.7963 -8.06398
L39.2945 -7.90777
L39.7964 -7.76366
L40.2888 -7.75399
L40.7799 -7.82454
L41.2695 -7.90368
L41.7575 -7.99138
L42.2438 -8.08761
L42.7281 -8.19235
L43.2104 -8.30555
L43.6905 -8.42719
L44.1683 -8.55723
L44.6436 -8.69563
L45.1162 -8.84234
L45.5861 -8.99733
L46.0531 -9.16055
L46.517 -9.33193
L46.9776 -9.51145
L47.435 -9.69903
L47.8889 -9.89462
L48.3391 -10.0982
L48.7856 -10.3096
L49.2282 -10.5289
L49.6667 -10.7559
L50.1011 -10.9906
L50.5312 -11.2329
L50.9569 -11.4828
L51.378 -11.7401
L51.7944 -12.0048
L52.206 -12.2769
L52.6127 -12.5561
L53.0143 -12.8426
L53.4108 -13.136
L53.8019 -13.4364
L54.1876 -13.7437
L54.5678 -14.0578
L54.9423 -14.3786
L55.3111 -14.7059
L55.6739 -15.0397
L56.0308 -15.38
L56.3816 -15.7265
L56.7262 -16.0791
L57.0644 -16.4379
L57.3962 -16.8026
L57.7215 -17.1731
L58.0402 -17.5494
L58.3522 -17.9313
L58.6574 -18.3187
L58.9557 -18.7115
L59.247 -19.1096
L59.5312 -19.5128
L59.8082 -19.921
L60.078 -20.3341
L60.3404 -20.752
L60.5955 -21.1746
L60.843 -21.6016
L61.083 -22.0331
L61.3153 -22.4688
L61.5399 -22.9086
L61.7568 -23.3524
L61.9658 -23.8
L62.1669 -24.2514
L62.36 -24.7064
L62.5451 -25.1648
L62.7221 -25.6265
L62.8909 -26.0913
L63.0516 -26.5592
L63.204 -27.0299
L63.3482 -27.5034
L63.484 -27.9795
L63.6114 -28.458
L63.7304 -28.9388
L63.841 -29.4218
L63.9431 -29.9067
L64.0367 -30.3936
L64.1218 -30.8821
L64.1982 -31.3722
L64.2661 -31.8637
L64.3254 -32.3564
L64.3761 -32.8503
L64.4181 -33.3451
L64.4514 -33.8408
L64.4761 -34.3371
L64.4921 -34.8339
L64.4995 -35.331
L64.4981 -35.8284
L64.4881 -36.3258
L64.4694 -36.8231
L64.442 -37.3202
L64.406 -37.8168
L64.3613 -38.3129
L64.308 -38.8083
L64.246 -39.3029
L64.1755 -39.7964
L64.0963 -40.2888
L64.0086 -40.7799
L63.9124 -41.2695
L63.8077 -41.7575
L63.6944 -42.2438
L63.5728 -42.7281
L63.4428 -43.2104
L63.3044 -43.6905
L63.1577 -44.1683
L63.0027 -44.6436
L62.8395 -45.1162
L62.6681 -45.5861
L62.4886 -46.0531
L62.301 -46.517
L62.1054 -46.9776
L61.9018 -47.435
L61.6904 -47.8889
L61.4711 -48.3391
L61.2441 -48.7856
L61.0094 -49.2282
L60.7671 -49.6667
L60.5172 -50.1011
L60.2599 -50.5312
L59.9952 -50.9569
L59.7231 -51.378
L59.4439 -51.7944
L59.1574 -52.206
L58.864 -52.6127
L58.5636 -53.0143
L58.2563 -53.4108
L57.9422 -53.8019
L57.6214 -54.1876
L57.2941 -54.5678
L56.9603 -54.9423
L56.62 -55.3111
L56.2735 -55.6739
L55.9209 -56.0308
L55.5621 -56.3816
L55.1974 -56.7262
L54.8269 -57.0644
L54.4506 -57.3962
L54.0687 -57.7215
L53.6813 -58.0402
L53.2885 -58.3522
L52.8904 -58.6574
L52.4872 -58.9557
L52.079 -59.247
L51.6659 -59.5312
L51.248 -59.8082
L50.8254 -60.078
L50.3984 -60.3404
L49.9669 -60.5955
L49.5312 -60.843
L49.0914 -61.083
L48.6476 -61.3153
L48.2 -61.5399
L47.7486 -61.7568
z
" id="C0_1_751c83c521"/>
     <path d="
M32.2342 -64.1271
L31.7875 -63.8685
L31.3492 -63.6039
L30.9199 -63.3337
L30.4997 -63.0584
L30.089 -62.7783
L29.6877 -62.4939
L29.2962 -62.2056
L28.9143 -61.9137
L28.542 -61.6187
L28.1794 -61.3208
L27.8264 -61.0204
L27.4828 -60.7179
L27.1486 -60.4135
L26.8236 -60.1075
L26.5077 -59.8003
L26.2007 -59.492
L25.9024 -59.1829
L25.6126 -58.8732
L25.3313 -58.5632
L25.0581 -58.2529
L24.7928 -57.9426
L24.5354 -57.6325
L24.2856 -57.3226
L24.0431 -57.0132
L23.8078 -56.7042
L23.5796 -56.3959
L23.3581 -56.0884
L23.1433 -55.7816
L22.9349 -55.4757
L22.7327 -55.1708
L22.5366 -54.8668
L22.3464 -54.5639
L22.1619 -54.2621
L21.983 -53.9614
L21.8094 -53.6618
L21.6411 -53.3633
L21.4779 -53.0661
L21.3196 -52.77
L21.1661 -52.475
L21.0173 -52.1812
L20.8729 -51.8886
L20.733 -51.597
L20.5973 -51.3066
L20.4657 -51.0173
L20.3382 -50.7291
L20.2146 -50.4419
L20.0948 -50.1557
L19.9787 -49.8705
L19.8662 -49.5863
L19.7572 -49.3029
L19.6517 -49.0204
L19.5495 -48.7388
L19.4505 -48.4579
L19.3547 -48.1778
L19.262 -47.8983
L19.1723 -47.6195
L19.0856 -47.3413
L19.0018 -47.0636
L18.9209 -46.7864
L18.8427 -46.5096
L18.7672 -46.2332
L18.6944 -45.9572
L18.6242 -45.6814
L18.5566 -45.4059
L18.4916 -45.1305
L18.429 -44.8552
L18.369 -44.5799
L18.3113 -44.3047
L18.2561 -44.0293
L18.2032 -43.7539
L18.1526 -43.4782
L18.1044 -43.2023
L18.0586 -42.9261
L18.015 -42.6495
L17.9736 -42.3724
L17.9346 -42.0949
L17.8978 -41.8167
L17.8633 -41.538
L17.831 -41.2585
L17.8009 -40.9783
L17.7732 -40.6973
L17.7476 -40.4154
L17.7244 -40.1325
L17.7034 -39.8485
L17.6847 -39.5635
L17.6683 -39.2773
L17.6543 -38.9899
L17.6426 -38.7013
L17.6333 -38.4112
L17.6263 -38.1197
L17.6219 -37.8267
L17.6198 -37.5321
L17.6203 -37.2359
L17.6233 -36.938
L17.629 -36.6384
L17.6372 -36.3368
L17.6481 -36.0334
L17.6618 -35.728
L17.6783 -35.4205
L17.6976 -35.111
L17.7199 -34.7992
L17.7451 -34.4852
L17.7734 -34.1689
L17.8049 -33.8502
L17.8395 -33.5291
L17.8775 -33.2055
L17.9188 -32.8793
L17.9637 -32.5506
L18.0121 -32.2191
L18.0642 -31.885
L18.12 -31.548
L18.1798 -31.2083
L18.2436 -30.8657
L18.3115 -30.5202
L18.3836 -30.1718
L18.4601 -29.8204
L18.5411 -29.466
L18.6267 -29.1086
L18.7171 -28.7482
L18.8124 -28.3848
L18.9128 -28.0184
L19.0183 -27.6489
L19.1292 -27.2764
L19.2456 -26.901
L19.3676 -26.5226
L19.4954 -26.1413
L19.6292 -25.7571
L19.7691 -25.3702
L19.9153 -24.9806
L20.0679 -24.5884
L20.227 -24.1937
L20.3929 -23.7966
L20.5656 -23.3973
L20.7452 -22.996
L20.932 -22.5927
L21.1259 -22.1876
L21.3271 -21.7811
L21.5356 -21.3733
L21.7516 -20.9644
L21.975 -20.5548
L22.2057 -20.1446
L22.4439 -19.7343
L22.6893 -19.3241
L22.9419 -18.9144
L23.2014 -18.5056
L23.4674 -18.0981
L23.7398 -17.6922
L24.0179 -17.2885
L24.301 -16.8874
L24.5884 -16.4894
L24.8789 -16.0951
L25.1713 -15.7051
L25.4637 -15.3198
L25.754 -14.9402
L26.0393 -14.5667
L26.316 -14.2003
L26.5795 -13.8419
L26.8242 -13.4923
L27.0432 -13.1527
L27.2284 -12.8243
L27.3713 -12.5081
L27.4636 -12.2052
L27.4991 -11.9164
L27.4746 -11.6421
L27.3906 -11.3825
L27.2513 -11.1371
L27.0629 -10.9056
L26.8325 -10.6872
L26.5672 -10.4815
L26.2731 -10.288
L25.9554 -10.1064
L25.6184 -9.93643
L24.7442 -9.7779
L24.289 -9.81686
L23.8373 -10.0173
L23.3893 -10.2256
L22.9452 -10.4418
L22.505 -10.6658
L22.069 -10.8975
L21.6372 -11.1368
L21.2098 -11.3838
L20.7868 -11.6382
L20.3685 -11.9
L19.955 -12.1692
L19.5464 -12.4456
L19.1428 -12.7292
L18.7443 -13.0199
L18.351 -13.3176
L17.9632 -13.6222
L17.5808 -13.9337
L17.2041 -14.2518
L16.833 -14.5766
L16.4678 -14.9079
L16.1086 -15.2456
L15.7554 -15.5896
L15.4084 -15.9399
L15.0677 -16.2963
L14.7333 -16.6587
L14.4054 -17.0269
L14.0841 -17.401
L13.7695 -17.7807
L13.4616 -18.1659
L13.1606 -18.5566
L12.8666 -18.9526
L12.5796 -19.3538
L12.2997 -19.7601
L12.0271 -20.1713
L11.7618 -20.5874
L11.5038 -21.0081
L11.2533 -21.4334
L11.0104 -21.8631
L10.775 -22.2972
L10.5474 -22.7354
L10.3275 -23.1776
L10.1154 -23.6238
L9.91117 -24.0737
L9.71492 -24.5273
L9.52667 -24.9844
L9.34649 -25.4448
L9.17442 -25.9084
L9.01053 -26.3751
L8.85486 -26.8447
L8.70746 -27.3172
L8.56837 -27.7922
L8.43764 -28.2698
L8.3153 -28.7497
L8.2014 -29.2319
L8.09596 -29.7161
L7.99903 -30.2022
L7.91062 -30.6901
L7.83077 -31.1795
L7.7595 -31.6705
L7.69683 -32.1628
L7.64279 -32.6562
L7.59738 -33.1507
L7.56062 -33.646
L7.53253 -34.1421
L7.51311 -34.6387
L7.50236 -35.1357
L7.5003 -35.633
L7.50692 -36.1304
L7.52221 -36.6278
L7.54618 -37.125
L7.57882 -37.6218
L7.62012 -38.1182
L7.67006 -38.6139
L7.72863 -39.1088
L7.79581 -39.6027
L7.87158 -40.0956
L7.95593 -40.5872
L8.04881 -41.0774
L8.15021 -41.5661
L8.26009 -42.053
L8.37842 -42.5381
L8.50516 -43.0213
L8.64029 -43.5023
L8.78374 -43.981
L8.93548 -44.4573
L9.09547 -44.931
L9.26366 -45.4019
L9.43999 -45.8701
L9.6244 -46.3352
L9.81686 -46.7971
L10.0173 -47.2558
L10.2256 -47.711
L10.4418 -48.1627
L10.6658 -48.6107
L10.8975 -49.0548
L11.1368 -49.495
L11.3838 -49.931
L11.6382 -50.3628
L11.9 -50.7902
L12.1692 -51.2132
L12.4456 -51.6315
L12.7292 -52.045
L13.0199 -52.4536
L13.3176 -52.8572
L13.6222 -53.2557
L13.9337 -53.649
L14.2518 -54.0368
L14.5766 -54.4192
L14.9079 -54.7959
L15.2456 -55.167
L15.5896 -55.5322
L15.9399 -55.8914
L16.2963 -56.2446
L16.6587 -56.5916
L17.0269 -56.9323
L17.401 -57.2667
L17.7807 -57.5946
L18.1659 -57.9159
L18.5566 -58.2305
L18.9526 -58.5384
L19.3538 -58.8394
L19.7601 -59.1334
L20.1713 -59.4204
L20.5874 -59.7003
L21.0081 -59.9729
L21.4334 -60.2382
L21.8631 -60.4962
L22.2972 -60.7467
L22.7354 -60.9896
L23.1776 -61.225
L23.6238 -61.4526
L24.0737 -61.6725
L24.5273 -61.8846
L24.9844 -62.0888
L25.4448 -62.2851
L25.9084 -62.4733
L26.3751 -62.6535
L26.8447 -62.8256
L27.3172 -62.9895
L27.7922 -63.1451
L28.2698 -63.2925
L28.7497 -63.4316
L29.2319 -63.5624
L29.7161 -63.6847
L30.2022 -63.7986
L30.6901 -63.904
L31.1795 -64.001
L31.6705 -64.0894
z
" id="C0_2_87880b73d8"/>
    </defs>
    <g clip-path="url(#p1bffca34e9)">
     <use style="fill:#ff0000;stroke:#000000;stroke-width:2.0;" x="0.0" xlink:href="#C0_0_a811fe30f3" y="72.0"/>
    </g>
    <g clip-path="url(#p1bffca34e9)">
     <use style="fill:#ffffff;stroke:#000000;stroke-width:2.0;" x="0.0" xlink:href="#C0_1_751c83c521" y="72.0"/>
    </g>
    <g clip-path="url(#p1bffca34e9)">
     <use style="fill:#ffffff;stroke:#000000;stroke-width:2.0;" x="0.0" xlink:href="#C0_2_87880b73d8" y="72.0"/>
    </g>
   </g>
  </g>
 </g>
 <defs>
  <clipPath id="p1bffca34e9">
   <rect height="72.0" width="72.0" x="0.0" y="0.0"/>
  </clipPath>
 </defs>
</svg>
