<?xml version="1.0" encoding="utf-8" standalone="no"?>
<!DOCTYPE svg PUBLIC "-//W3C//DTD SVG 1.1//EN"
  "http://www.w3.org/Graphics/SVG/1.1/DTD/svg11.dtd">
<!-- Created with matplotlib (http://matplotlib.org/) -->
<svg height="72pt" version="1.1" viewBox="0 0 72 72" width="72pt" xmlns="http://www.w3.org/2000/svg" xmlns:xlink="http://www.w3.org/1999/xlink">
 <defs>
  <style type="text/css">
*{stroke-linecap:butt;stroke-linejoin:round;}
  </style>
 </defs>
 <g id="figure_1">
  <g id="patch_1">
   <path d="
M0 72
L72 72
L72 0
L0 0
z
" style="fill:none;"/>
  </g>
  <g id="axes_1">
   <g id="PatchCollection_1">
    <defs>
     <path d="
M36 -7.5
C43.5583 -7.5 50.808 -10.5029 56.1525 -15.8475
C61.4971 -21.192 64.5 -28.4417 64.5 -36
C64.5 -43.5583 61.4971 -50.808 56.1525 -56.1525
C50.808 -61.4971 43.5583 -64.5 36 -64.5
C28.4417 -64.5 21.192 -61.4971 15.8475 -56.1525
C10.5029 -50.808 7.5 -43.5583 7.5 -36
C7.5 -28.4417 10.5029 -21.192 15.8475 -15.8475
C21.192 -10.5029 28.4417 -7.5 36 -7.5
z
" id="C0_0_a811fe30f3"/>
     <path d="
M8.01793 -30.6031
L8.20522 -30.6734
L8.39331 -30.7421
L8.58216 -30.8091
L8.77176 -30.8747
L8.96211 -30.9389
L9.15318 -31.0017
L9.34499 -31.0632
L9.53751 -31.1234
L9.73076 -31.1824
L9.92473 -31.2403
L10.1194 -31.297
L10.3149 -31.3526
L10.511 -31.4073
L10.7079 -31.4609
L10.9056 -31.5136
L11.1041 -31.5653
L11.3033 -31.6162
L11.5034 -31.6662
L11.7042 -31.7154
L11.9059 -31.7638
L12.1085 -31.8114
L12.312 -31.8583
L12.5163 -31.9044
L12.7217 -31.9499
L12.9279 -31.9947
L13.1352 -32.0388
L13.5527 -32.0823
L13.7631 -32.1252
L13.9746 -32.1674
L14.1872 -32.2091
L14.401 -32.2502
L14.6159 -32.2908
L14.8322 -32.3308
L15.0497 -32.3703
L15.2685 -32.4093
L15.4886 -32.4478
L15.7101 -32.4857
L15.9331 -32.5232
L16.1575 -32.5602
L16.3834 -32.5967
L16.6108 -32.6328
L16.8398 -32.6683
L17.0705 -32.7034
L17.3028 -32.7381
L17.5368 -32.7723
L17.7725 -32.8061
L18.01 -32.8393
L18.2494 -32.8722
L18.4906 -32.9045
L18.7337 -32.9364
L18.9788 -32.9679
L19.2259 -32.9988
L19.475 -33.0293
L19.7261 -33.0593
L19.9794 -33.0888
L20.2348 -33.1178
L20.4925 -33.1462
L20.7523 -33.1742
L21.0144 -33.2015
L21.2789 -33.2283
L21.5456 -33.2545
L21.8147 -33.2801
L22.0862 -33.3051
L22.3602 -33.3294
L22.6365 -33.353
L22.9154 -33.3759
L23.1967 -33.398
L23.4806 -33.4194
L23.767 -33.4399
L24.0559 -33.4596
L24.3474 -33.4784
L24.6414 -33.4962
L24.9379 -33.513
L25.237 -33.5287
L25.5386 -33.5433
L25.8427 -33.5567
L26.1493 -33.5688
L26.4583 -33.5797
L26.7697 -33.5891
L27.0835 -33.597
L27.3996 -33.6033
L27.718 -33.608
L28.0385 -33.6108
L28.3611 -33.6118
L28.6857 -33.6108
L29.0122 -33.6076
L29.3404 -33.6021
L29.6703 -33.5942
L30.0018 -33.5838
L30.3345 -33.5707
L30.6685 -33.5546
L31.0035 -33.5355
L31.3393 -33.5131
L31.6757 -33.4873
L32.0126 -33.4577
L32.3495 -33.4243
L32.6864 -33.3868
L33.0229 -33.3449
L33.3588 -33.2984
L33.6938 -33.247
L34.0275 -33.1905
L34.3597 -33.1286
L34.69 -33.061
L35.018 -32.9874
L35.3436 -32.9076
L35.6662 -32.8212
L35.9856 -32.7281
L36.3013 -32.6279
L36.6132 -32.5203
L36.9207 -32.4052
L37.2236 -32.2823
L37.5215 -32.1515
L37.8142 -32.0124
L38.1013 -31.8651
L38.3827 -31.7094
L38.6579 -31.5452
L38.927 -31.3725
L39.1895 -31.1914
L39.4454 -31.0019
L39.6946 -30.804
L39.9368 -30.598
L40.1722 -30.384
L40.4005 -30.1623
L40.6218 -29.9331
L40.8362 -29.6968
L41.0435 -29.4535
L41.2438 -29.2038
L41.4373 -28.9479
L41.624 -28.6863
L41.804 -28.4193
L41.9773 -28.1474
L42.1441 -27.8709
L42.3046 -27.5903
L42.4588 -27.306
L42.6069 -27.0183
L42.749 -26.7276
L42.8852 -26.4344
L43.0157 -26.139
L43.1406 -25.8417
L43.2601 -25.5428
L43.3743 -25.2427
L43.4832 -24.9417
L43.5871 -24.6401
L43.6861 -24.3381
L43.7803 -24.036
L43.8699 -23.734
L43.9548 -23.4323
L44.0353 -23.1312
L44.1115 -22.8307
L44.1835 -22.5312
L44.2513 -22.2328
L44.3152 -21.9355
L44.3751 -21.6396
L44.4312 -21.3451
L44.4836 -21.0521
L44.5324 -20.7608
L44.5776 -20.4713
L44.6194 -20.1836
L44.6577 -19.8977
L44.6928 -19.6138
L44.7246 -19.3319
L44.7533 -19.052
L44.7789 -18.7742
L44.8015 -18.4985
L44.8211 -18.2249
L44.8378 -17.9535
L44.8516 -17.6842
L44.8627 -17.417
L44.871 -17.152
L44.8767 -16.8892
L44.8796 -16.6285
L44.88 -16.37
L44.8778 -16.1136
L44.8731 -15.8593
L44.8659 -15.6071
L44.8562 -15.357
L44.8441 -15.109
L44.8296 -14.8629
L44.8127 -14.6189
L44.7935 -14.3769
L44.7719 -14.1368
L44.748 -13.8987
L44.7218 -13.6625
L44.6933 -13.4281
L44.6625 -13.1955
L44.6294 -12.9648
L44.5941 -12.7358
L44.5565 -12.5085
L44.5166 -12.283
L44.4745 -12.0591
L44.4301 -11.8368
L44.3833 -11.6162
L44.3343 -11.3971
L44.283 -11.1796
L44.2294 -10.9635
L44.1734 -10.7489
L44.115 -10.5358
L44.0543 -10.3241
L43.9911 -10.1137
L43.9255 -9.90475
L43.8574 -9.69707
L43.7868 -9.49069
L43.7136 -9.28558
L43.6378 -9.0817
L43.5594 -8.87903
L43.1192 -8.67756
L42.6365 -8.40349
L42.1518 -8.28345
L41.6651 -8.17185
L41.1768 -8.06873
L40.6869 -7.97411
L40.1956 -7.88803
L39.703 -7.81051
L39.2092 -7.74158
L38.7145 -7.68126
L38.219 -7.62957
L37.7227 -7.58651
L37.226 -7.55211
L36.7289 -7.52638
L36.2315 -7.50932
L35.7341 -7.50094
L35.2368 -7.50124
L34.7397 -7.51022
L34.243 -7.52788
L33.7468 -7.55421
L33.2513 -7.58921
L32.7566 -7.63286
L32.263 -7.68515
L31.7704 -7.74607
L31.2792 -7.81559
L30.7894 -7.8937
L30.3012 -7.98037
L29.8147 -8.07558
L29.3301 -8.17929
L28.8475 -8.29147
L28.3671 -8.4121
L27.8891 -8.54113
L27.4135 -8.67852
L26.9405 -8.82424
L26.4703 -8.97823
L26.003 -9.14046
L25.5387 -9.31087
L25.0776 -9.4894
L24.6199 -9.67601
L24.1656 -9.87064
L23.7149 -10.0732
L23.268 -10.2837
L22.8249 -10.502
L22.3859 -10.7281
L21.951 -10.9619
L21.5204 -11.2033
L21.0941 -11.4523
L20.6725 -11.7087
L20.2555 -11.9726
L19.8433 -12.2437
L19.436 -12.5221
L19.0337 -12.8077
L18.6367 -13.1003
L18.2449 -13.3999
L17.8585 -13.7064
L17.4777 -14.0196
L17.1025 -14.3396
L16.733 -14.6662
L16.3694 -14.9992
L16.0118 -15.3387
L15.6603 -15.6844
L15.315 -16.0363
L14.976 -16.3944
L14.6434 -16.7584
L14.3173 -17.1282
L13.9978 -17.5038
L13.685 -17.885
L13.379 -18.2718
L13.0799 -18.6639
L12.7877 -19.0614
L12.5027 -19.464
L12.2248 -19.8716
L11.9541 -20.2841
L11.6908 -20.7015
L11.4349 -21.1234
L11.1864 -21.55
L10.9455 -21.9809
L10.7123 -22.4161
L10.4867 -22.8554
L10.2689 -23.2987
L10.059 -23.7459
L9.85694 -24.1969
L9.66286 -24.6514
L9.47681 -25.1094
L9.29883 -25.5707
L9.12899 -26.0352
L8.96733 -26.5027
L8.8139 -26.9731
L8.66876 -27.4463
L8.53195 -27.922
L8.40349 -28.4003
L8.28345 -28.8808
L8.17185 -29.3635
z
" id="C0_1_7190905f0c"/>
     <path d="
M28.5325 -63.4829
L28.7043 -63.3513
L28.8758 -63.218
L29.047 -63.0831
L29.2178 -62.9465
L29.3884 -62.8083
L29.5588 -62.6684
L29.729 -62.5268
L29.899 -62.3834
L30.0689 -62.2383
L30.2388 -62.0915
L30.4086 -61.9428
L30.5784 -61.7924
L30.7482 -61.6401
L30.9181 -61.486
L31.0882 -61.33
L31.2583 -61.172
L31.4286 -61.0122
L31.5992 -60.8503
L31.7699 -60.6865
L31.941 -60.5206
L32.1124 -60.3527
L32.2841 -60.1827
L32.4562 -60.0106
L32.6287 -59.8364
L32.8016 -59.6599
L32.9751 -59.4813
L33.149 -59.3004
L33.3235 -59.1172
L33.4985 -58.9317
L33.6742 -58.7439
L33.8505 -58.5537
L34.0275 -58.3612
L34.2052 -58.1662
L34.3836 -57.9687
L34.5628 -57.7688
L34.7428 -57.5664
L34.9236 -57.3614
L35.1052 -57.1539
L35.2878 -56.9439
L35.4712 -56.7312
L35.6556 -56.5159
L35.841 -56.2981
L36.0274 -56.0776
L36.2148 -55.8545
L36.4033 -55.6287
L36.5929 -55.4004
L36.7835 -55.1694
L36.9754 -54.9358
L37.1684 -54.6997
L37.3626 -54.461
L37.558 -54.2198
L37.7547 -53.9761
L37.9527 -53.7299
L38.1521 -53.4814
L38.3528 -53.2306
L38.5548 -52.9776
L38.7584 -52.7224
L38.9633 -52.4652
L39.1698 -52.206
L39.3778 -51.945
L39.5874 -51.6824
L39.7986 -51.4182
L40.0115 -51.1526
L40.2261 -50.8858
L40.4425 -50.6181
L40.6607 -50.3495
L40.8808 -50.0804
L41.1029 -49.811
L41.3269 -49.5415
L41.5531 -49.2722
L41.7814 -49.0034
L42.0119 -48.7355
L42.2447 -48.4687
L42.48 -48.2034
L42.7178 -47.94
L42.9581 -47.6788
L43.2012 -47.4201
L43.447 -47.1645
L43.6956 -46.9123
L43.9473 -46.6638
L44.202 -46.4195
L44.4598 -46.1798
L44.7208 -45.945
L44.9851 -45.7156
L45.2527 -45.4918
L45.5237 -45.274
L45.7981 -45.0625
L46.0758 -44.8577
L46.357 -44.6596
L46.6414 -44.4685
L46.9292 -44.2846
L47.2201 -44.108
L47.5142 -43.9388
L47.8112 -43.7771
L48.111 -43.6227
L48.4134 -43.4757
L48.7182 -43.336
L49.0253 -43.2034
L49.3344 -43.0779
L49.6452 -42.9592
L49.9575 -42.8472
L50.2711 -42.7416
L50.5856 -42.6423
L50.9009 -42.5489
L51.2167 -42.4612
L51.5326 -42.379
L51.8485 -42.302
L52.164 -42.23
L52.4791 -42.1626
L52.7933 -42.0998
L53.1066 -42.0411
L53.4186 -41.9863
L53.7293 -41.9354
L54.0383 -41.8879
L54.3456 -41.8438
L54.6509 -41.8028
L54.9541 -41.7647
L55.2551 -41.7294
L55.5538 -41.6966
L55.85 -41.6663
L56.1436 -41.6383
L56.4346 -41.6123
L56.7228 -41.5884
L57.0082 -41.5664
L57.2907 -41.5461
L57.5703 -41.5274
L57.8469 -41.5103
L58.1205 -41.4947
L58.3911 -41.4804
L58.6586 -41.4673
L58.923 -41.4555
L59.1843 -41.4449
L59.4426 -41.4352
L59.6977 -41.4266
L59.9497 -41.419
L60.1987 -41.4122
L60.4446 -41.4062
L60.6875 -41.4011
L60.9274 -41.3967
L61.1642 -41.3931
L61.3981 -41.3901
L61.6291 -41.3878
L61.8572 -41.386
L62.0824 -41.3849
L62.3047 -41.3844
L62.5243 -41.3843
L62.7411 -41.3848
L62.9552 -41.3858
L63.1666 -41.3873
L63.3754 -41.3892
L63.5816 -41.3916
L63.8785 -41.3945
L63.771 -41.9193
L63.655 -42.4049
L63.5305 -42.8886
L63.3977 -43.3702
L63.2565 -43.8495
L63.1071 -44.3265
L62.9494 -44.8009
L62.7834 -45.2727
L62.6093 -45.7416
L62.4271 -46.2075
L62.2369 -46.6704
L62.0386 -47.13
L61.8325 -47.5862
L61.6184 -48.0388
L61.3966 -48.4879
L61.167 -48.9331
L60.9297 -49.3743
L60.6849 -49.8115
L60.4325 -50.2445
L60.1727 -50.6731
L59.9056 -51.0973
L59.6311 -51.5169
L59.3495 -51.9317
L59.0607 -52.3417
L58.7649 -52.7467
L58.4622 -53.1466
L58.1527 -53.5413
L57.8364 -53.9307
L57.5134 -54.3146
L57.1839 -54.6929
L56.8479 -55.0655
L56.5056 -55.4323
L56.157 -55.7932
L55.8023 -56.148
L55.4416 -56.4968
L55.075 -56.8392
L54.7025 -57.1754
L54.3243 -57.505
L53.9406 -57.8282
L53.5514 -58.1447
L53.1568 -58.4544
L52.757 -58.7573
L52.3521 -59.0532
L51.9423 -59.3422
L51.5276 -59.624
L51.1081 -59.8986
L50.684 -60.166
L50.2555 -60.426
L49.8226 -60.6785
L49.3856 -60.9236
L48.9444 -61.161
L48.4993 -61.3908
L48.0504 -61.6128
L47.5978 -61.8271
L47.1417 -62.0335
L46.6822 -62.2319
L46.2194 -62.4224
L45.7536 -62.6048
L45.2847 -62.7791
L44.813 -62.9452
L44.3387 -63.1031
L43.8618 -63.2528
L43.3825 -63.3942
L42.901 -63.5272
L42.4173 -63.6519
L41.9317 -63.7681
L41.4443 -63.8759
L40.9552 -63.9752
L40.4647 -64.0659
L39.9727 -64.1481
L39.4796 -64.2218
L38.9854 -64.2868
L38.4903 -64.3432
L37.9944 -64.391
L37.4979 -64.4301
L37.001 -64.4606
L36.5038 -64.4824
L36.0064 -64.4955
L35.509 -64.5
L35.0117 -64.4958
L34.5148 -64.4829
L34.0183 -64.4613
L33.5224 -64.431
L33.0273 -64.3921
L32.533 -64.3445
L32.0399 -64.2883
L31.5479 -64.2235
L31.0573 -64.1501
L30.5682 -64.0681
L30.0807 -63.9776
L29.5951 -63.8785
L29.1114 -63.771
z
" id="C0_2_8b9f0a2592"/>
    </defs>
    <g clip-path="url(#p1bffca34e9)">
     <use style="fill:#ffffff;stroke:#000000;stroke-width:2.0;" x="0.0" xlink:href="#C0_0_a811fe30f3" y="72.0"/>
    </g>
    <g clip-path="url(#p1bffca34e9)">
     <use style="fill:#ff0000;stroke:#000000;stroke-width:2.0;" x="0.0" xlink:href="#C0_1_7190905f0c" y="72.0"/>
    </g>
    <g clip-path="url(#p1bffca34e9)">
     <use style="fill:#ff0000;stroke:#000000;stroke-width:2.0;" x="0.0" xlink:href="#C0_2_8b9f0a2592" y="72.0"/>
    </g>
   </g>
  </g>
 </g>
 <defs>
  <clipPath id="p1bffca34e9">
   <rect height="72.0" width="72.0" x="0.0" y="0.0"/>
  </clipPath>
 </defs>
</svg>
