<?xml version="1.0" encoding="utf-8" standalone="no"?>
<!DOCTYPE svg PUBLIC "-//W3C//DTD SVG 1.1//EN"
  "http://www.w3.org/Graphics/SVG/1.1/DTD/svg11.dtd">
<!-- Created with matplotlib (http://matplotlib.org/) -->
<svg height="72pt" version="1.1" viewBox="0 0 72 72" width="72pt" xmlns="http://www.w3.org/2000/svg" xmlns:xlink="http://www.w3.org/1999/xlink">
 <defs>
  <style type="text/css">
*{stroke-linecap:butt;stroke-linejoin:round;}
  </style>
 </defs>
 <g id="figure_1">
  <g id="patch_1">
   <path d="
M0 72
L72 72
L72 0
L0 0
z
" style="fill:none;"/>
  </g>
  <g id="axes_1">
   <g id="PatchCollection_1">
    <defs>
     <path d="
M36 -7.5
C43.5583 -7.5 50.808 -10.5029 56.1525 -15.8475
C61.4971 -21.192 64.5 -28.4417 64.5 -36
C64.5 -43.5583 61.4971 -50.808 56.1525 -56.1525
C50.808 -61.4971 43.5583 -64.5 36 -64.5
C28.4417 -64.5 21.192 -61.4971 15.8475 -56.1525
C10.5029 -50.808 7.5 -43.5583 7.5 -36
C7.5 -28.4417 10.5029 -21.192 15.8475 -15.8475
C21.192 -10.5029 28.4417 -7.5 36 -7.5
z
" id="C0_0_a811fe30f3"/>
     <path d="
M35.1999 -21.643
L34.9266 -21.6671
L34.6535 -21.6934
L34.3805 -21.7218
L34.1075 -21.7525
L33.8345 -21.7855
L33.5615 -21.8207
L33.2884 -21.8581
L33.0152 -21.8978
L32.7418 -21.9398
L32.4683 -21.9841
L32.1945 -22.0308
L31.9204 -22.0798
L31.646 -22.1313
L31.3712 -22.1851
L31.0961 -22.2415
L30.8205 -22.3003
L30.5445 -22.3617
L30.268 -22.4256
L29.9909 -22.4922
L29.7133 -22.5614
L29.4351 -22.6333
L29.1563 -22.708
L28.8769 -22.7856
L28.5968 -22.866
L28.316 -22.9493
L28.0346 -23.0356
L27.7524 -23.125
L27.4695 -23.2175
L27.1858 -23.3132
L26.9015 -23.4122
L26.6163 -23.5145
L26.3304 -23.6202
L26.0438 -23.7295
L25.7564 -23.8423
L25.4683 -23.9587
L25.1794 -24.0789
L24.8899 -24.203
L24.5997 -24.331
L24.3089 -24.463
L24.0174 -24.5991
L23.7254 -24.7395
L23.4329 -24.8842
L23.14 -25.0333
L22.8467 -25.187
L22.553 -25.3453
L22.2592 -25.5084
L21.9652 -25.6763
L21.6712 -25.8492
L21.3773 -26.0273
L21.0835 -26.2105
L20.7902 -26.3991
L20.4973 -26.5931
L20.2051 -26.7927
L19.9137 -26.9979
L19.6234 -27.209
L19.3342 -27.4259
L19.0466 -27.6489
L18.7606 -27.8779
L18.4766 -28.1132
L18.1948 -28.3549
L17.9155 -28.6029
L17.6391 -28.8574
L17.3659 -29.1185
L17.0962 -29.3863
L16.8305 -29.6608
L16.569 -29.9421
L16.3124 -30.2302
L16.061 -30.5252
L15.8153 -30.827
L15.5758 -31.1358
L15.343 -31.4513
L15.1176 -31.7737
L14.9 -32.1028
L14.691 -32.4387
L14.4911 -32.781
L14.3009 -33.1299
L14.1212 -33.4849
L13.9525 -33.8461
L13.7957 -34.213
L13.6513 -34.5856
L13.52 -34.9633
L13.4025 -35.346
L13.2994 -35.7332
L13.2112 -36.1245
L13.1386 -36.5194
L13.0819 -36.9173
L13.0417 -37.3179
L13.0182 -37.7205
L13.0117 -38.1244
L13.0223 -38.5292
L13.0501 -38.9341
L13.095 -39.3385
L13.157 -39.7418
L13.2357 -40.1434
L13.3309 -40.5426
L13.442 -40.9389
L13.5688 -41.3317
L13.7106 -41.7204
L13.8668 -42.1046
L14.0367 -42.4837
L14.2199 -42.8574
L14.4155 -43.2253
L14.6228 -43.5871
L14.8413 -43.9423
L15.0701 -44.2909
L15.3087 -44.6325
L15.5563 -44.9669
L15.8123 -45.294
L16.0761 -45.6137
L16.347 -45.9258
L16.6245 -46.2304
L16.9081 -46.5273
L17.1971 -46.8164
L17.4912 -47.098
L17.7897 -47.3718
L18.0924 -47.638
L18.3986 -47.8966
L18.7081 -48.1477
L19.0204 -48.3914
L19.3353 -48.6276
L19.6523 -48.8566
L19.9712 -49.0785
L20.2916 -49.2932
L20.6133 -49.5011
L20.9361 -49.7021
L21.2597 -49.8964
L21.5839 -50.0841
L21.9084 -50.2653
L22.2333 -50.4403
L22.5581 -50.6091
L22.8829 -50.7718
L23.2074 -50.9286
L23.5315 -51.0796
L23.8552 -51.2249
L24.1782 -51.3647
L24.5006 -51.4991
L24.8222 -51.6283
L25.143 -51.7523
L25.4629 -51.8713
L25.7818 -51.9853
L26.0997 -52.0946
L26.4165 -52.1992
L26.7323 -52.2992
L27.0469 -52.3948
L27.3604 -52.486
L27.6727 -52.573
L27.9839 -52.6558
L28.2939 -52.7346
L28.6027 -52.8094
L28.9103 -52.8803
L29.2168 -52.9474
L29.522 -53.0109
L29.8261 -53.0707
L30.1291 -53.1269
L30.431 -53.1796
L30.7317 -53.229
L31.0314 -53.2749
L31.33 -53.3176
L31.6276 -53.3571
L31.9241 -53.3934
L32.2197 -53.4266
L32.5144 -53.4567
L32.8081 -53.4838
L33.101 -53.5079
L33.393 -53.529
L33.6843 -53.5473
L33.9747 -53.5627
L34.2644 -53.5753
L34.5535 -53.5851
L34.8419 -53.592
L35.1297 -53.5963
L35.4169 -53.5978
L35.7036 -53.5966
L35.9898 -53.5927
L36.2755 -53.5861
L36.5609 -53.5769
L36.8459 -53.565
L37.1305 -53.5504
L37.4149 -53.5332
L37.699 -53.5133
L37.983 -53.4908
L38.2668 -53.4656
L38.5504 -53.4377
L38.8341 -53.4071
L39.1176 -53.3739
L39.4012 -53.338
L39.6848 -53.2993
L39.9685 -53.2579
L40.2523 -53.2137
L40.5363 -53.1667
L40.8205 -53.1169
L41.1049 -53.0642
L41.3896 -53.0086
L41.6746 -52.9502
L41.9599 -52.8887
L42.2455 -52.8243
L42.5316 -52.7568
L42.8181 -52.6862
L43.105 -52.6125
L43.3925 -52.5355
L43.6804 -52.4553
L43.9688 -52.3718
L44.2578 -52.2849
L44.5473 -52.1946
L44.8374 -52.1008
L45.1281 -52.0034
L45.4193 -51.9023
L45.7112 -51.7975
L46.0037 -51.689
L46.2967 -51.5765
L46.5904 -51.46
L46.8846 -51.3395
L47.1794 -51.2149
L47.4748 -51.086
L47.7707 -50.9528
L48.0671 -50.8151
L48.3639 -50.6729
L48.6612 -50.5261
L48.9589 -50.3745
L49.2569 -50.218
L49.5552 -50.0566
L49.8537 -49.8902
L50.1523 -49.7185
L50.4509 -49.5415
L50.7495 -49.3591
L51.048 -49.1712
L51.3462 -48.9776
L51.644 -48.7783
L51.9412 -48.573
L52.2378 -48.3618
L52.5335 -48.1444
L52.8283 -47.9208
L53.1218 -47.6909
L53.414 -47.4545
L53.7045 -47.2116
L53.9931 -46.962
L54.2797 -46.7057
L54.5638 -46.4425
L54.8453 -46.1725
L55.1239 -45.8955
L55.3991 -45.6114
L55.6707 -45.3203
L55.9383 -45.022
L56.2015 -44.7166
L56.4598 -44.4041
L56.713 -44.0845
L56.9604 -43.7577
L57.2016 -43.424
L57.4362 -43.0832
L57.6635 -42.7357
L57.8831 -42.3814
L58.0944 -42.0205
L58.2967 -41.6533
L58.4896 -41.2799
L58.6723 -40.9007
L58.8442 -40.5159
L59.0048 -40.1258
L59.1533 -39.7309
L59.2891 -39.3315
L59.4116 -38.9282
L59.5202 -38.5214
L59.6143 -38.1116
L59.6933 -37.6995
L59.7568 -37.2856
L59.8043 -36.8706
L59.8354 -36.4551
L59.8499 -36.0399
L59.8474 -35.6255
L59.8279 -35.2127
L59.7913 -34.8021
L59.7377 -34.3945
L59.6673 -33.9904
L59.5803 -33.5906
L59.477 -33.1954
L59.3578 -32.8055
L59.2233 -32.4214
L59.0741 -32.0435
L58.9106 -31.6722
L58.7337 -31.3079
L58.5438 -30.9508
L58.3419 -30.6011
L58.1285 -30.2592
L57.9043 -29.9252
L57.6702 -29.5991
L57.4267 -29.2812
L57.1746 -28.9714
L56.9145 -28.6698
L56.6471 -28.3763
L56.3729 -28.0911
L56.0926 -27.8139
L55.8067 -27.5449
L55.5158 -27.2838
L55.2203 -27.0307
L54.9207 -26.7853
L54.6175 -26.5477
L54.3112 -26.3176
L54.0019 -26.0951
L53.6903 -25.8798
L53.3766 -25.6717
L53.061 -25.4707
L52.7441 -25.2765
L52.4259 -25.0891
L52.1068 -24.9084
L51.787 -24.734
L51.4667 -24.566
L51.1462 -24.4041
L50.8255 -24.2482
L50.505 -24.0982
L50.1847 -23.9538
L49.8648 -23.815
L49.5454 -23.6817
L49.2266 -23.5536
L48.9086 -23.4306
L48.5914 -23.3126
L48.2751 -23.1995
L47.9598 -23.0912
L47.6456 -22.9874
L47.3324 -22.8881
L47.0204 -22.7932
L46.7097 -22.7026
L46.4001 -22.6161
L46.0918 -22.5336
L45.7848 -22.455
L45.4791 -22.3803
L45.1747 -22.3092
L44.8716 -22.2418
L44.5698 -22.178
L44.2693 -22.1175
L43.9702 -22.0605
L43.6723 -22.0067
L43.3757 -21.9561
L43.0804 -21.9087
L42.7863 -21.8643
L42.4935 -21.8229
L42.2019 -21.7845
L41.9114 -21.7488
L41.6221 -21.716
L41.3339 -21.686
L41.0467 -21.6586
L40.7607 -21.6339
L40.4756 -21.6118
L40.1915 -21.5923
L39.9084 -21.5753
L39.6262 -21.5607
L39.3448 -21.5486
L39.0643 -21.5389
L38.7845 -21.5315
L38.5055 -21.5266
L38.2272 -21.5239
L37.9496 -21.5235
L37.6725 -21.5255
L37.3961 -21.5296
L37.1202 -21.5361
L36.8447 -21.5447
L36.5697 -21.5556
L36.2951 -21.5687
L36.0209 -21.584
L35.747 -21.6014
z
" id="C0_1_e15325c230"/>
    </defs>
    <g clip-path="url(#p1bffca34e9)">
     <use style="fill:#ffffff;stroke:#000000;stroke-width:2.0;" x="0.0" xlink:href="#C0_0_a811fe30f3" y="72.0"/>
    </g>
    <g clip-path="url(#p1bffca34e9)">
     <use style="fill:#ff0000;stroke:#000000;stroke-width:2.0;" x="0.0" xlink:href="#C0_1_e15325c230" y="72.0"/>
    </g>
   </g>
  </g>
 </g>
 <defs>
  <clipPath id="p1bffca34e9">
   <rect height="72.0" width="72.0" x="0.0" y="0.0"/>
  </clipPath>
 </defs>
</svg>
