<?xml version="1.0" encoding="utf-8" standalone="no"?>
<!DOCTYPE svg PUBLIC "-//W3C//DTD SVG 1.1//EN"
  "http://www.w3.org/Graphics/SVG/1.1/DTD/svg11.dtd">
<!-- Created with matplotlib (http://matplotlib.org/) -->
<svg height="72pt" version="1.1" viewBox="0 0 72 72" width="72pt" xmlns="http://www.w3.org/2000/svg" xmlns:xlink="http://www.w3.org/1999/xlink">
 <defs>
  <style type="text/css">
*{stroke-linecap:butt;stroke-linejoin:round;}
  </style>
 </defs>
 <g id="figure_1">
  <g id="patch_1">
   <path d="
M0 72
L72 72
L72 0
L0 0
z
" style="fill:none;"/>
  </g>
  <g id="axes_1">
   <g id="PatchCollection_1">
    <defs>
     <path d="
M36 -7.5
C43.5583 -7.5 50.808 -10.5029 56.1525 -15.8475
C61.4971 -21.192 64.5 -28.4417 64.5 -36
C64.5 -43.5583 61.4971 -50.808 56.1525 -56.1525
C50.808 -61.4971 43.5583 -64.5 36 -64.5
C28.4417 -64.5 21.192 -61.4971 15.8475 -56.1525
C10.5029 -50.808 7.5 -43.5583 7.5 -36
C7.5 -28.4417 10.5029 -21.192 15.8475 -15.8475
C21.192 -10.5029 28.4417 -7.5 36 -7.5
z
" id="C0_0_a811fe30f3"/>
     <path d="
M54.0529 -58.0333
L53.6974 -58.072
L53.3545 -58.0888
L53.0249 -58.0837
L52.7094 -58.0566
L52.4085 -58.008
L52.1226 -57.9381
L51.8519 -57.8474
L51.5963 -57.7367
L51.3556 -57.6067
L51.1294 -57.4582
L50.9172 -57.2923
L50.7183 -57.11
L50.5319 -56.9123
L50.3572 -56.7004
L50.1933 -56.4754
L50.0392 -56.2383
L49.8942 -55.9903
L49.7573 -55.7322
L49.6278 -55.4653
L49.5048 -55.1902
L49.3877 -54.908
L49.2756 -54.6195
L49.1681 -54.3254
L49.0646 -54.0264
L48.9646 -53.7231
L48.8675 -53.4163
L48.773 -53.1064
L48.6808 -52.7939
L48.5905 -52.4794
L48.5018 -52.1632
L48.4146 -51.8458
L48.3284 -51.5275
L48.2433 -51.2086
L48.1589 -50.8895
L48.0753 -50.5703
L47.9921 -50.2515
L47.9094 -49.9331
L47.8271 -49.6154
L47.7449 -49.2986
L47.663 -48.9827
L47.5812 -48.6681
L47.4995 -48.3547
L47.4179 -48.0428
L47.3362 -47.7324
L47.2546 -47.4235
L47.1728 -47.1164
L47.0911 -46.811
L47.0092 -46.5073
L46.9272 -46.2055
L46.8452 -45.9056
L46.763 -45.6076
L46.6807 -45.3115
L46.5983 -45.0173
L46.5157 -44.7251
L46.433 -44.4348
L46.3502 -44.1465
L46.2672 -43.8601
L46.1841 -43.5756
L46.1009 -43.293
L46.0175 -43.0124
L45.9339 -42.7335
L45.8502 -42.4565
L45.7663 -42.1813
L45.6823 -41.9079
L45.5981 -41.6363
L45.5137 -41.3663
L45.4291 -41.098
L45.3444 -40.8313
L45.2595 -40.5662
L45.1744 -40.3026
L45.0891 -40.0405
L45.0036 -39.7799
L44.9178 -39.5207
L44.8319 -39.2628
L44.7457 -39.0063
L44.6593 -38.751
L44.5727 -38.4969
L44.4858 -38.244
L44.3986 -37.9922
L44.3111 -37.7414
L44.2233 -37.4917
L44.1353 -37.2429
L44.0469 -36.9951
L43.9582 -36.7481
L43.8691 -36.5019
L43.7797 -36.2564
L43.6899 -36.0117
L43.5997 -35.7676
L43.5092 -35.5241
L43.4181 -35.2812
L43.3267 -35.0388
L43.2348 -34.7968
L43.1424 -34.5553
L43.0495 -34.314
L42.8623 -34.0731
L42.7678 -33.8324
L42.6728 -33.5919
L42.5772 -33.3516
L42.4809 -33.1113
L42.3841 -32.8711
L42.2866 -32.6309
L42.1884 -32.3906
L42.0895 -32.1503
L41.9899 -31.9097
L41.8896 -31.669
L41.7884 -31.428
L41.6865 -31.1867
L41.5838 -30.9451
L41.4803 -30.7031
L41.3758 -30.4606
L41.2705 -30.2176
L41.1643 -29.9741
L41.0571 -29.73
L40.949 -29.4853
L40.8399 -29.2399
L40.7297 -28.9938
L40.6186 -28.7469
L40.5063 -28.4993
L40.3929 -28.2507
L40.2785 -28.0013
L40.1628 -27.7509
L40.046 -27.4996
L39.928 -27.2473
L39.8088 -26.9939
L39.6883 -26.7394
L39.5666 -26.4838
L39.4435 -26.227
L39.3192 -25.9691
L39.1935 -25.7099
L39.0664 -25.4495
L38.938 -25.1878
L38.8082 -24.9248
L38.677 -24.6605
L38.5443 -24.3948
L38.4103 -24.1278
L38.2747 -23.8594
L38.1378 -23.5896
L37.9994 -23.3184
L37.8596 -23.0458
L37.7184 -22.7718
L37.5757 -22.4964
L37.4316 -22.2195
L37.2862 -21.9413
L37.1395 -21.6617
L36.9914 -21.3808
L36.8421 -21.0984
L36.6916 -20.8148
L36.54 -20.5299
L36.3873 -20.2437
L36.2337 -19.9564
L36.0792 -19.6679
L35.924 -19.3783
L35.7682 -19.0876
L35.612 -18.796
L35.4555 -18.5034
L35.299 -18.2101
L35.1426 -17.916
L34.9867 -17.6212
L34.8315 -17.326
L34.6774 -17.0302
L34.5246 -16.7341
L34.3737 -16.4378
L34.225 -16.1414
L34.079 -15.845
L33.9363 -15.5487
L33.7975 -15.2527
L33.6633 -14.9571
L33.5343 -14.6621
L33.4114 -14.3677
L33.2955 -14.0742
L33.1875 -13.7817
L33.0885 -13.4903
L32.9995 -13.2002
L32.9217 -12.9115
L32.8564 -12.6245
L32.8049 -12.3392
L32.7685 -12.0558
L32.7486 -11.7747
L32.7466 -11.4958
L32.7637 -11.2196
L32.8012 -10.9462
L32.8603 -10.6758
L32.9421 -10.4089
L33.0474 -10.1456
L33.1768 -9.88654
L33.3308 -9.63193
L33.5096 -9.38228
L33.7132 -9.13804
L33.9413 -8.89972
L34.1935 -8.66784
L34.4691 -8.44292
L34.7672 -8.22551
L35.0869 -8.01612
L35.4271 -7.81528
L35.9221 -7.62349
L36.4195 -7.50011
L36.9168 -7.50309
L37.4138 -7.51475
L37.9103 -7.53509
L38.4063 -7.5641
L38.9016 -7.60177
L39.3959 -7.64809
L39.8893 -7.70305
L40.3814 -7.76662
L40.8722 -7.8388
L41.3616 -7.91956
L41.8493 -8.00886
L42.3352 -8.1067
L42.8192 -8.21303
L43.3011 -8.32783
L43.7807 -8.45105
L44.2581 -8.58267
L44.7329 -8.72264
L45.205 -8.87092
L45.6743 -9.02746
L46.1407 -9.19221
L46.604 -9.36514
L47.0641 -9.54617
L47.5208 -9.73527
L47.974 -9.93236
L48.4235 -10.1374
L48.8693 -10.3503
L49.3111 -10.571
L49.7489 -10.7995
L50.1825 -11.0357
L50.6118 -11.2794
L51.0366 -11.5307
L51.4568 -11.7894
L51.8724 -12.0555
L52.2831 -12.329
L52.6888 -12.6096
L53.0894 -12.8973
L53.4849 -13.1921
L53.875 -13.4938
L54.2597 -13.8024
L54.6388 -14.1177
L55.0123 -14.4397
L55.3799 -14.7683
L55.7416 -15.1034
L56.0974 -15.4448
L56.447 -15.7924
L56.7904 -16.1463
L57.1274 -16.5061
L57.458 -16.872
L57.7821 -17.2436
L58.0995 -17.6209
L58.4103 -18.0039
L58.7141 -18.3923
L59.0111 -18.7861
L59.3011 -19.1852
L59.5839 -19.5893
L59.8596 -19.9985
L60.128 -20.4125
L60.3891 -20.8313
L60.6427 -21.2547
L60.8888 -21.6826
L61.1273 -22.1148
L61.3582 -22.5513
L61.5814 -22.9919
L61.7968 -23.4364
L62.0043 -23.8848
L62.2038 -24.3369
L62.3955 -24.7925
L62.579 -25.2515
L62.7545 -25.7138
L62.9218 -26.1793
L63.0809 -26.6477
L63.2318 -27.119
L63.3744 -27.5929
L63.5086 -28.0695
L63.6345 -28.5484
L63.7519 -29.0297
L63.8609 -29.513
L63.9614 -29.9983
L64.0534 -30.4855
L64.1368 -30.9743
L64.2117 -31.4647
L64.278 -31.9564
L64.3356 -32.4494
L64.3847 -32.9435
L64.425 -33.4385
L64.4568 -33.9342
L64.4798 -34.4306
L64.4942 -34.9275
L64.4999 -35.4247
L64.4969 -35.9221
L64.4853 -36.4195
L64.4649 -36.9168
L64.4359 -37.4138
L64.3982 -37.9103
L64.3519 -38.4063
L64.297 -38.9016
L64.2334 -39.3959
L64.1612 -39.8893
L64.0804 -40.3814
L63.9911 -40.8722
L63.8933 -41.3616
L63.787 -41.8493
L63.6722 -42.3352
L63.5489 -42.8192
L63.4173 -43.3011
L63.2774 -43.7807
L63.1291 -44.2581
L62.9725 -44.7329
L62.8078 -45.205
L62.6349 -45.6743
L62.4538 -46.1407
L62.2647 -46.604
L62.0676 -47.0641
L61.8626 -47.5208
L61.6497 -47.974
L61.429 -48.4235
L61.2005 -48.8693
L60.9643 -49.3111
L60.7206 -49.7489
L60.4693 -50.1825
L60.2106 -50.6118
L59.9445 -51.0366
L59.671 -51.4568
L59.3904 -51.8724
L59.1027 -52.2831
L58.8079 -52.6888
L58.5062 -53.0894
L58.1976 -53.4849
L57.8823 -53.875
L57.5603 -54.2597
L57.2317 -54.6388
L56.8966 -55.0123
L56.5552 -55.3799
L56.2076 -55.7416
L55.8537 -56.0974
L55.4939 -56.447
L55.128 -56.7904
L54.7564 -57.1274
z
" id="C0_1_bb315ce04e"/>
     <path d="
M36.2125 -64.4395
L35.8384 -64.2661
L35.4567 -64.0907
L35.0688 -63.9129
L34.6758 -63.7324
L34.2789 -63.5489
L33.8793 -63.3621
L33.4778 -63.1718
L33.0755 -62.9779
L32.6731 -62.7803
L32.2714 -62.579
L31.8712 -62.3738
L31.473 -62.165
L31.0773 -61.9524
L30.6848 -61.7361
L30.2957 -61.5163
L29.9106 -61.293
L29.5297 -61.0663
L29.1534 -60.8365
L28.7819 -60.6035
L28.4154 -60.3676
L28.054 -60.1289
L27.6981 -59.8875
L27.3476 -59.6436
L27.0027 -59.3974
L26.6634 -59.1489
L26.3299 -58.8984
L26.0021 -58.6459
L25.68 -58.3916
L25.3638 -58.1357
L25.0532 -57.8782
L24.7485 -57.6193
L24.4494 -57.3591
L24.156 -57.0976
L23.8682 -56.8351
L23.586 -56.5716
L23.3093 -56.3072
L23.038 -56.0419
L22.772 -55.7759
L22.5114 -55.5092
L22.2559 -55.2419
L22.0055 -54.9741
L21.7602 -54.7057
L21.5198 -54.4369
L21.2843 -54.1677
L21.0536 -53.8982
L20.8275 -53.6283
L20.606 -53.3581
L20.389 -53.0876
L20.1765 -52.8169
L19.9683 -52.546
L19.7643 -52.2748
L19.5645 -52.0034
L19.3688 -51.7318
L19.1771 -51.4601
L18.9893 -51.1881
L18.8053 -50.9159
L18.6252 -50.6434
L18.4487 -50.3708
L18.2758 -50.0979
L18.1065 -49.8248
L17.9406 -49.5514
L17.7782 -49.2777
L17.6192 -49.0037
L17.4634 -48.7294
L17.3109 -48.4547
L17.1615 -48.1796
L17.0153 -47.9041
L16.8721 -47.6281
L16.732 -47.3517
L16.5948 -47.0748
L16.4606 -46.7972
L16.3293 -46.5191
L16.2008 -46.2404
L16.0751 -45.961
L15.9522 -45.6809
L15.8321 -45.4
L15.7146 -45.1184
L15.5999 -44.8359
L15.4878 -44.5525
L15.3783 -44.2681
L15.2715 -43.9828
L15.1672 -43.6964
L15.0656 -43.409
L14.9665 -43.1204
L14.87 -42.8306
L14.776 -42.5396
L14.6845 -42.2473
L14.5957 -41.9537
L14.5093 -41.6586
L14.4255 -41.3621
L14.3443 -41.064
L14.2656 -40.7644
L14.1894 -40.4632
L14.1159 -40.1603
L14.045 -39.8556
L13.9766 -39.5492
L13.9109 -39.2409
L13.8479 -38.9306
L13.7876 -38.6184
L13.73 -38.3042
L13.6751 -37.9878
L13.6231 -37.6694
L13.5739 -37.3487
L13.5275 -37.0258
L13.4841 -36.7005
L13.4437 -36.3729
L13.4062 -36.0428
L13.3719 -35.7103
L13.3407 -35.3752
L13.3127 -35.0376
L13.288 -34.6973
L13.2666 -34.3543
L13.2486 -34.0087
L13.2341 -33.6602
L13.2232 -33.309
L13.2159 -32.9549
L13.2124 -32.598
L13.2126 -32.2382
L13.2168 -31.8754
L13.225 -31.5097
L13.2373 -31.1411
L13.2537 -30.7694
L13.2745 -30.3948
L13.2997 -30.0173
L13.3293 -29.6367
L13.3636 -29.2532
L13.4025 -28.8668
L13.4462 -28.4775
L13.4949 -28.0854
L13.5485 -27.6905
L13.6072 -27.2928
L13.671 -26.8925
L13.7401 -26.4896
L13.8146 -26.0842
L13.8944 -25.6765
L13.9798 -25.2665
L14.0706 -24.8544
L14.1669 -24.4403
L14.2688 -24.0245
L14.3763 -23.6071
L14.4893 -23.1883
L14.6078 -22.7684
L14.7317 -22.3475
L14.8608 -21.926
L14.9952 -21.5041
L15.1346 -21.0821
L15.2787 -20.6604
L15.4273 -20.2393
L15.58 -19.8192
L15.7366 -19.4004
L15.8965 -18.9834
L16.0592 -18.5685
L16.2241 -18.1564
L16.3905 -17.7473
L16.5577 -17.3419
L16.7249 -16.9406
L16.891 -16.5439
L17.055 -16.1524
L17.2159 -15.7667
L17.3724 -15.3872
L17.5231 -15.0145
L17.6669 -14.6492
L17.3125 -14.2918
L16.9398 -14.4819
L16.5729 -14.8113
L16.2119 -15.1472
L15.857 -15.4894
L15.5082 -15.8379
L15.1656 -16.1925
L14.8294 -16.5532
L14.4996 -16.9198
L14.1764 -17.2921
L13.8598 -17.6702
L13.55 -18.0539
L13.247 -18.443
L12.9509 -18.8375
L12.6619 -19.2372
L12.38 -19.642
L12.1052 -20.0518
L11.8378 -20.4665
L11.5777 -20.8859
L11.325 -21.3099
L11.0799 -21.7383
L10.8423 -22.1711
L10.6124 -22.6082
L10.3903 -23.0493
L10.1759 -23.4943
L9.96944 -23.9432
L9.77089 -24.3957
L9.58032 -24.8517
L9.39779 -25.3112
L9.22338 -25.7739
L9.05712 -26.2398
L8.89906 -26.7086
L8.74926 -27.1802
L8.60776 -27.6545
L8.47461 -28.1314
L8.34984 -28.6106
L8.23349 -29.0921
L8.1256 -29.5758
L8.0262 -30.0613
L7.93532 -30.5487
L7.853 -31.0377
L7.77924 -31.5283
L7.71408 -32.0202
L7.65754 -32.5133
L7.60963 -33.0075
L7.57037 -33.5026
L7.53977 -33.9985
L7.51784 -34.495
L7.50458 -34.9919
L7.5 -35.4891
L7.50411 -35.9865
L7.51689 -36.4839
L7.53836 -36.9812
L7.56849 -37.4781
L7.60728 -37.9746
L7.65472 -38.4705
L7.71079 -38.9656
L7.77549 -39.4599
L7.84878 -39.9531
L7.93064 -40.4451
L8.02105 -40.9357
L8.11999 -41.4248
L8.22742 -41.9123
L8.34331 -42.398
L8.46763 -42.8817
L8.60033 -43.3633
L8.74137 -43.8427
L8.89072 -44.3197
L9.04833 -44.7942
L9.21415 -45.2659
L9.38813 -45.7349
L9.57021 -46.2009
L9.76034 -46.6638
L9.95847 -47.1234
L10.1645 -47.5797
L10.3785 -48.0324
L10.6002 -48.4815
L10.8297 -48.9267
L11.0668 -49.368
L11.3115 -49.8053
L11.5638 -50.2383
L11.8235 -50.667
L12.0905 -51.0913
L12.3649 -51.5109
L12.6464 -51.9258
L12.9351 -52.3359
L13.2308 -52.741
L13.5334 -53.141
L13.8429 -53.5357
L14.1591 -53.9251
L14.4819 -54.3091
L14.8113 -54.6875
L15.1472 -55.0602
L15.4894 -55.4271
L15.8379 -55.7881
L16.1925 -56.143
L16.5532 -56.4918
L16.9198 -56.8344
L17.2921 -57.1706
L17.6702 -57.5004
L18.0539 -57.8236
L18.443 -58.1402
L18.8375 -58.45
L19.2372 -58.753
L19.642 -59.0491
L20.0518 -59.3381
L20.4665 -59.62
L20.8859 -59.8948
L21.3099 -60.1622
L21.7383 -60.4223
L22.1711 -60.675
L22.6082 -60.9201
L23.0493 -61.1577
L23.4943 -61.3876
L23.9432 -61.6097
L24.3957 -61.8241
L24.8517 -62.0306
L25.3112 -62.2291
L25.7739 -62.4197
L26.2398 -62.6022
L26.7086 -62.7766
L27.1802 -62.9429
L27.6545 -63.1009
L28.1314 -63.2507
L28.6106 -63.3922
L29.0921 -63.5254
L29.5758 -63.6502
L30.0613 -63.7665
L30.5487 -63.8744
L31.0377 -63.9738
L31.5283 -64.0647
L32.0202 -64.147
L32.5133 -64.2208
L33.0075 -64.2859
L33.5026 -64.3425
L33.9985 -64.3904
L34.495 -64.4296
L34.9919 -64.4602
L35.4891 -64.4822
z
" id="C0_2_2988992c8f"/>
    </defs>
    <g clip-path="url(#p1bffca34e9)">
     <use style="fill:#ff0000;stroke:#000000;stroke-width:2.0;" x="0.0" xlink:href="#C0_0_a811fe30f3" y="72.0"/>
    </g>
    <g clip-path="url(#p1bffca34e9)">
     <use style="fill:#ffffff;stroke:#000000;stroke-width:2.0;" x="0.0" xlink:href="#C0_1_bb315ce04e" y="72.0"/>
    </g>
    <g clip-path="url(#p1bffca34e9)">
     <use style="fill:#ffffff;stroke:#000000;stroke-width:2.0;" x="0.0" xlink:href="#C0_2_2988992c8f" y="72.0"/>
    </g>
   </g>
  </g>
 </g>
 <defs>
  <clipPath id="p1bffca34e9">
   <rect height="72.0" width="72.0" x="0.0" y="0.0"/>
  </clipPath>
 </defs>
</svg>
