<?xml version="1.0" encoding="utf-8" standalone="no"?>
<!DOCTYPE svg PUBLIC "-//W3C//DTD SVG 1.1//EN"
  "http://www.w3.org/Graphics/SVG/1.1/DTD/svg11.dtd">
<!-- Created with matplotlib (http://matplotlib.org/) -->
<svg height="72pt" version="1.1" viewBox="0 0 72 72" width="72pt" xmlns="http://www.w3.org/2000/svg" xmlns:xlink="http://www.w3.org/1999/xlink">
 <defs>
  <style type="text/css">
*{stroke-linecap:butt;stroke-linejoin:round;}
  </style>
 </defs>
 <g id="figure_1">
  <g id="patch_1">
   <path d="
M0 72
L72 72
L72 0
L0 0
z
" style="fill:none;"/>
  </g>
  <g id="axes_1">
   <g id="PatchCollection_1">
    <defs>
     <path d="
M36 -7.5
C43.5583 -7.5 50.808 -10.5029 56.1525 -15.8475
C61.4971 -21.192 64.5 -28.4417 64.5 -36
C64.5 -43.5583 61.4971 -50.808 56.1525 -56.1525
C50.808 -61.4971 43.5583 -64.5 36 -64.5
C28.4417 -64.5 21.192 -61.4971 15.8475 -56.1525
C10.5029 -50.808 7.5 -43.5583 7.5 -36
C7.5 -28.4417 10.5029 -21.192 15.8475 -15.8475
C21.192 -10.5029 28.4417 -7.5 36 -7.5
z
" id="C0_0_a811fe30f3"/>
     <path d="
M7.64978 -36.1151
L7.84009 -36.1932
L8.03109 -36.2691
L8.22278 -36.3429
L8.41516 -36.4145
L8.60823 -36.4841
L8.802 -36.5517
L8.99647 -36.6175
L9.19164 -36.6814
L9.38753 -36.7435
L9.58415 -36.8038
L9.78151 -36.8625
L9.97963 -36.9196
L10.1785 -36.9751
L10.3782 -37.0291
L10.5787 -37.0816
L10.78 -37.1326
L10.9822 -37.1822
L11.1853 -37.2304
L11.3893 -37.2772
L11.5942 -37.3228
L11.8 -37.367
L12.2148 -37.41
L12.4237 -37.4518
L12.6337 -37.4923
L12.8448 -37.5316
L13.0571 -37.5698
L13.2705 -37.6068
L13.4852 -37.6427
L13.7011 -37.6774
L13.9184 -37.7111
L14.1369 -37.7436
L14.3568 -37.7751
L14.5782 -37.8055
L14.8009 -37.8348
L15.0252 -37.8631
L15.251 -37.8903
L15.4783 -37.9164
L15.7073 -37.9416
L15.9379 -37.9656
L16.1702 -37.9886
L16.4043 -38.0106
L16.6401 -38.0315
L16.8778 -38.0514
L17.1173 -38.0701
L17.3587 -38.0879
L17.6021 -38.1045
L17.8475 -38.1201
L18.0949 -38.1345
L18.3444 -38.1478
L18.596 -38.16
L18.8498 -38.1711
L19.1057 -38.181
L19.3639 -38.1897
L19.6244 -38.1971
L19.8871 -38.2034
L20.1522 -38.2084
L20.4197 -38.2121
L20.6896 -38.2144
L20.9619 -38.2155
L21.2366 -38.2151
L21.5139 -38.2133
L21.7936 -38.2101
L22.0759 -38.2053
L22.3606 -38.199
L22.6479 -38.191
L22.9377 -38.1815
L23.2301 -38.1702
L23.525 -38.1571
L23.8224 -38.1423
L24.1223 -38.1255
L24.4246 -38.1068
L24.7294 -38.0861
L25.0366 -38.0632
L25.3461 -38.0382
L25.658 -38.0109
L25.972 -37.9812
L26.2882 -37.9491
L26.6064 -37.9144
L26.9266 -37.8771
L27.2486 -37.837
L27.5723 -37.794
L27.8976 -37.748
L28.2244 -37.6988
L28.5523 -37.6463
L28.8814 -37.5904
L29.2112 -37.531
L29.5418 -37.4678
L29.8727 -37.4006
L30.2038 -37.3294
L30.5347 -37.2539
L30.8652 -37.1739
L31.195 -37.0892
L31.5238 -36.9997
L31.8511 -36.905
L32.1766 -36.805
L32.5 -36.6994
L32.8208 -36.5881
L33.1387 -36.4707
L33.4531 -36.347
L33.7638 -36.2167
L34.0701 -36.0798
L34.3717 -35.9358
L34.6682 -35.7845
L34.959 -35.6259
L35.2439 -35.4596
L35.5223 -35.2855
L35.7939 -35.1034
L36.0582 -34.9133
L36.3151 -34.715
L36.5641 -34.5084
L36.805 -34.2936
L37.0375 -34.0706
L37.2616 -33.8395
L37.477 -33.6003
L37.6836 -33.3533
L37.8815 -33.0986
L38.0706 -32.8366
L38.2509 -32.5674
L38.4225 -32.2914
L38.5856 -32.009
L38.7402 -31.7206
L38.8865 -31.4265
L39.0247 -31.1271
L39.155 -30.823
L39.2777 -30.5144
L39.3929 -30.202
L39.5008 -29.886
L39.6018 -29.567
L39.6961 -29.2452
L39.7838 -28.9213
L39.8654 -28.5955
L39.9408 -28.2682
L40.0105 -27.9398
L40.0746 -27.6106
L40.1334 -27.281
L40.187 -26.9512
L40.2357 -26.6217
L40.2797 -26.2925
L40.3191 -25.964
L40.3541 -25.6364
L40.385 -25.31
L40.4117 -24.9848
L40.4347 -24.6612
L40.4539 -24.3392
L40.4695 -24.0191
L40.4816 -23.7009
L40.4905 -23.3848
L40.4961 -23.0709
L40.4987 -22.7593
L40.4983 -22.4501
L40.4951 -22.1433
L40.489 -21.839
L40.4804 -21.5373
L40.4691 -21.2382
L40.4554 -20.9418
L40.4393 -20.648
L40.4208 -20.357
L40.4001 -20.0686
L40.3772 -19.783
L40.3521 -19.5001
L40.325 -19.22
L40.2959 -18.9426
L40.2648 -18.6679
L40.2318 -18.3959
L40.197 -18.1266
L40.1603 -17.86
L40.1219 -17.596
L40.0817 -17.3347
L40.0398 -17.0759
L39.9962 -16.8197
L39.951 -16.566
L39.9041 -16.3148
L39.8557 -16.0661
L39.8057 -15.8198
L39.7541 -15.5759
L39.701 -15.3343
L39.6463 -15.0951
L39.5901 -14.8581
L39.5324 -14.6234
L39.4732 -14.3908
L39.4126 -14.1604
L39.3504 -13.9321
L39.2867 -13.7059
L39.2215 -13.4817
L39.1549 -13.2595
L39.0867 -13.0392
L39.017 -12.8209
L38.9458 -12.6044
L38.873 -12.3898
L38.7988 -12.177
L38.7229 -11.9659
L38.6455 -11.7566
L38.5664 -11.5489
L38.4858 -11.343
L38.4035 -11.1386
L38.3195 -10.9359
L38.2338 -10.7347
L38.1464 -10.5351
L38.0573 -10.3369
L37.9663 -10.1403
L37.8735 -9.94512
L37.7788 -9.75137
L37.6822 -9.55904
L37.5837 -9.36809
L37.4831 -9.17851
L37.3805 -8.99029
L37.2757 -8.80341
L37.1688 -8.61785
L37.0597 -8.4336
L36.9482 -8.25065
L36.8344 -8.06899
L36.7182 -7.88862
L36.5995 -7.70954
L36.1027 -7.53173
L35.6053 -7.50019
L35.108 -7.50273
L34.611 -7.51396
L34.1144 -7.53387
L33.6184 -7.56245
L33.1231 -7.59968
L32.6287 -7.64558
L32.1353 -7.7001
L31.6431 -7.76325
L31.1522 -7.835
L30.6628 -7.91533
L30.175 -8.00421
L29.689 -8.10162
L29.2049 -8.20753
L28.7229 -8.32191
L28.2431 -8.44471
L27.7657 -8.57591
L27.2907 -8.71547
L26.8185 -8.86333
L26.349 -9.01946
L25.8825 -9.18381
L25.419 -9.35633
L24.9588 -9.53696
L24.5019 -9.72565
L24.0485 -9.92235
L23.5988 -10.127
L23.1529 -10.3395
L22.7108 -10.5599
L22.2728 -10.7879
L21.839 -11.0237
L21.4095 -11.2671
L20.9845 -11.518
L20.564 -11.7764
L20.1482 -12.0421
L19.7373 -12.3152
L19.3313 -12.5954
L18.9304 -12.8828
L18.5347 -13.1772
L18.1443 -13.4786
L17.7593 -13.7869
L17.3799 -14.1019
L17.0062 -14.4235
L16.6383 -14.7518
L16.2762 -15.0865
L15.9202 -15.4276
L15.5703 -15.775
L15.2266 -16.1285
L14.8892 -16.4881
L14.5583 -16.8536
L14.2339 -17.2249
L13.9161 -17.602
L13.6051 -17.9847
L13.3008 -18.3728
L13.0035 -18.7664
L12.7132 -19.1651
L12.43 -19.5691
L12.154 -19.978
L11.8852 -20.3918
L11.6238 -20.8103
L11.3698 -21.2335
L11.1233 -21.6612
L10.8844 -22.0932
L10.6531 -22.5295
L10.4296 -22.9698
L10.2138 -23.4142
L10.0059 -23.8624
L9.80591 -24.3143
L9.6139 -24.7697
L9.42993 -25.2286
L9.25406 -25.6907
L9.08633 -26.156
L8.9268 -26.6243
L8.77552 -27.0954
L8.63253 -27.5692
L8.49787 -28.0457
L8.3716 -28.5245
L8.25374 -29.0056
L8.14433 -29.4889
L8.0434 -29.9741
L7.95099 -30.4612
L7.86713 -30.9499
L7.79184 -31.4402
L7.72513 -31.9319
L7.66704 -32.4248
L7.61759 -32.9188
L7.57677 -33.4138
L7.54462 -33.9095
L7.52113 -34.4059
L7.50632 -34.9027
z
" id="C0_1_4f91694584"/>
     <path d="
M35.5267 -64.3465
L35.6536 -64.172
L35.7801 -63.9955
L35.9063 -63.8171
L36.0322 -63.6366
L36.1578 -63.4541
L36.2831 -63.2695
L36.4082 -63.0828
L36.533 -62.8939
L36.6578 -62.7028
L36.7823 -62.5095
L36.9068 -62.3139
L37.0312 -62.1159
L37.1555 -61.9156
L37.2798 -61.7129
L37.4041 -61.5077
L37.5284 -61.3
L37.6528 -61.0898
L37.7772 -60.8771
L37.9018 -60.6617
L38.0265 -60.4436
L38.1513 -60.2229
L38.2764 -59.9995
L38.4016 -59.7732
L38.5271 -59.5442
L38.6528 -59.3124
L38.7788 -59.0776
L38.9052 -58.84
L39.0319 -58.5994
L39.1589 -58.3559
L39.2864 -58.1094
L39.4143 -57.8599
L39.5427 -57.6074
L39.6715 -57.3518
L39.8009 -57.0933
L39.9309 -56.8317
L40.0614 -56.567
L40.1926 -56.2993
L40.3244 -56.0286
L40.457 -55.755
L40.5903 -55.4783
L40.7244 -55.1988
L40.8594 -54.9163
L40.9953 -54.6311
L41.1322 -54.3431
L41.27 -54.0524
L41.409 -53.7591
L41.5491 -53.4633
L41.6905 -53.1651
L41.8332 -52.8647
L41.9772 -52.5622
L42.1228 -52.2577
L42.27 -51.9514
L42.4189 -51.6435
L42.5696 -51.3342
L42.7223 -51.0237
L42.8771 -50.7123
L43.0341 -50.4003
L43.1935 -50.0878
L43.3555 -49.7752
L43.5202 -49.4627
L43.6878 -49.1509
L43.8585 -48.8398
L44.0325 -48.53
L44.2101 -48.2218
L44.3913 -47.9155
L44.5765 -47.6116
L44.7658 -47.3105
L44.9595 -47.0125
L45.1577 -46.718
L45.3606 -46.4274
L45.5685 -46.1411
L45.7815 -45.8594
L45.9997 -45.5827
L46.2233 -45.3113
L46.4522 -45.0455
L46.6867 -44.7854
L46.9267 -44.5313
L47.1721 -44.2835
L47.4229 -44.0419
L47.6791 -43.8067
L47.9404 -43.5779
L48.2068 -43.3555
L48.4779 -43.1395
L48.7535 -42.9298
L49.0334 -42.7263
L49.3173 -42.5288
L49.6047 -42.3373
L49.8955 -42.1514
L50.1892 -41.9711
L50.4855 -41.7961
L50.784 -41.6261
L51.0844 -41.461
L51.3863 -41.3006
L51.6893 -41.1445
L51.9932 -40.9927
L52.2975 -40.8448
L52.602 -40.7007
L52.9064 -40.5601
L53.2104 -40.423
L53.5137 -40.289
L53.816 -40.158
L54.1172 -40.0298
L54.417 -39.9043
L54.7151 -39.7814
L55.0115 -39.6608
L55.306 -39.5425
L55.5984 -39.4264
L55.8885 -39.3122
L56.1762 -39.2
L56.4614 -39.0896
L56.7441 -38.9809
L57.0241 -38.8738
L57.3014 -38.7682
L57.5758 -38.6642
L57.8474 -38.5615
L58.116 -38.4601
L58.3817 -38.36
L58.6445 -38.2611
L58.9042 -38.1633
L59.161 -38.0666
L59.4147 -37.971
L59.6653 -37.8763
L59.913 -37.7826
L60.1577 -37.6897
L60.3993 -37.5977
L60.638 -37.5065
L60.8737 -37.4161
L61.1065 -37.3264
L61.3364 -37.2374
L61.5634 -37.1491
L61.7876 -37.0614
L62.0089 -36.9743
L62.2275 -36.8878
L62.4433 -36.8018
L62.6565 -36.7163
L62.8669 -36.6313
L63.0748 -36.5468
L63.2801 -36.4627
L63.4828 -36.379
L63.6831 -36.2956
L63.8809 -36.2126
L64.0763 -36.13
L64.2694 -36.0476
L64.4962 -35.9656
L64.4838 -36.4629
L64.4627 -36.9602
L64.433 -37.4571
L64.3945 -37.9536
L64.3475 -38.4496
L64.2917 -38.9448
L64.2274 -39.439
L64.1545 -39.9323
L64.073 -40.4243
L63.9829 -40.915
L63.8844 -41.4042
L63.7773 -41.8917
L63.6618 -42.3775
L63.5378 -42.8613
L63.4054 -43.343
L63.2648 -43.8225
L63.1158 -44.2996
L62.9585 -44.7742
L62.793 -45.2461
L62.6194 -45.7152
L62.4376 -46.1813
L62.2478 -46.6443
L62.0501 -47.1041
L61.8443 -47.5605
L61.6307 -48.0133
L61.4093 -48.4626
L61.1802 -48.908
L60.9434 -49.3495
L60.699 -49.7869
L60.447 -50.2201
L60.1876 -50.649
L59.9209 -51.0734
L59.6468 -51.4933
L59.3656 -51.9084
L59.0772 -52.3187
L58.7819 -52.724
L58.4795 -53.1242
L58.1704 -53.5192
L57.8544 -53.9088
L57.5318 -54.293
L57.2027 -54.6716
L56.8671 -55.0446
L56.5251 -55.4117
L56.1769 -55.7729
L55.8226 -56.1281
L55.4622 -56.4772
L55.0958 -56.82
L54.7237 -57.1565
L54.3459 -57.4866
L53.9624 -57.8101
L53.5735 -58.1269
L53.1793 -58.4371
L52.7798 -58.7403
L52.3752 -59.0367
L51.9656 -59.326
L51.5511 -59.6083
L51.1319 -59.8833
L50.7081 -60.1511
L50.2799 -60.4115
L49.8472 -60.6645
L49.4104 -60.9099
L48.9695 -61.1478
L48.5246 -61.378
L48.0759 -61.6005
L47.6235 -61.8152
L47.1676 -62.022
L46.7083 -62.2209
L46.2457 -62.4118
L45.78 -62.5947
L45.3113 -62.7694
L44.8398 -62.936
L44.3656 -63.0944
L43.8888 -63.2446
L43.4097 -63.3864
L42.9282 -63.5199
L42.4447 -63.6451
L41.9592 -63.7618
L41.4719 -63.87
L40.9829 -63.9698
L40.4924 -64.061
L40.0006 -64.1437
L39.5075 -64.2178
L39.0134 -64.2833
L38.5183 -64.3402
L38.0225 -64.3885
L37.526 -64.4281
L37.0291 -64.4591
L36.5319 -64.4814
L36.0345 -64.495
z
" id="C0_2_4660c39bbc"/>
    </defs>
    <g clip-path="url(#p1bffca34e9)">
     <use style="fill:#ff0000;stroke:#000000;stroke-width:2.0;" x="0.0" xlink:href="#C0_0_a811fe30f3" y="72.0"/>
    </g>
    <g clip-path="url(#p1bffca34e9)">
     <use style="fill:#ffffff;stroke:#000000;stroke-width:2.0;" x="0.0" xlink:href="#C0_1_4f91694584" y="72.0"/>
    </g>
    <g clip-path="url(#p1bffca34e9)">
     <use style="fill:#ffffff;stroke:#000000;stroke-width:2.0;" x="0.0" xlink:href="#C0_2_4660c39bbc" y="72.0"/>
    </g>
   </g>
  </g>
 </g>
 <defs>
  <clipPath id="p1bffca34e9">
   <rect height="72.0" width="72.0" x="0.0" y="0.0"/>
  </clipPath>
 </defs>
</svg>
