<?xml version="1.0" encoding="utf-8" standalone="no"?>
<!DOCTYPE svg PUBLIC "-//W3C//DTD SVG 1.1//EN"
  "http://www.w3.org/Graphics/SVG/1.1/DTD/svg11.dtd">
<!-- Created with matplotlib (http://matplotlib.org/) -->
<svg height="72pt" version="1.1" viewBox="0 0 72 72" width="72pt" xmlns="http://www.w3.org/2000/svg" xmlns:xlink="http://www.w3.org/1999/xlink">
 <defs>
  <style type="text/css">
*{stroke-linecap:butt;stroke-linejoin:round;}
  </style>
 </defs>
 <g id="figure_1">
  <g id="patch_1">
   <path d="
M0 72
L72 72
L72 0
L0 0
z
" style="fill:none;"/>
  </g>
  <g id="axes_1">
   <g id="PatchCollection_1">
    <defs>
     <path d="
M36 -7.5
C43.5583 -7.5 50.808 -10.5029 56.1525 -15.8475
C61.4971 -21.192 64.5 -28.4417 64.5 -36
C64.5 -43.5583 61.4971 -50.808 56.1525 -56.1525
C50.808 -61.4971 43.5583 -64.5 36 -64.5
C28.4417 -64.5 21.192 -61.4971 15.8475 -56.1525
C10.5029 -50.808 7.5 -43.5583 7.5 -36
C7.5 -28.4417 10.5029 -21.192 15.8475 -15.8475
C21.192 -10.5029 28.4417 -7.5 36 -7.5
z
" id="C0_0_a811fe30f3"/>
     <path d="
M47.3636 -39.1329
L47.3592 -38.8671
L47.353 -38.6011
L47.345 -38.335
L47.3352 -38.0687
L47.3237 -37.8022
L47.3103 -37.5354
L47.2951 -37.2682
L47.278 -37.0007
L47.2592 -36.7328
L47.2384 -36.4644
L47.2158 -36.1955
L47.1914 -35.9261
L47.165 -35.656
L47.1367 -35.3854
L47.1064 -35.114
L47.0742 -34.842
L47.0399 -34.5691
L47.0036 -34.2955
L46.9653 -34.021
L46.9248 -33.7457
L46.8822 -33.4694
L46.8374 -33.1922
L46.7904 -32.9139
L46.7412 -32.6347
L46.6896 -32.3544
L46.6357 -32.0731
L46.5794 -31.7906
L46.5206 -31.5069
L46.4593 -31.2222
L46.3954 -30.9362
L46.3289 -30.649
L46.2598 -30.3606
L46.1878 -30.071
L46.113 -29.7801
L46.0354 -29.488
L45.9547 -29.1946
L45.8711 -28.9
L45.7843 -28.6041
L45.6943 -28.307
L45.601 -28.0086
L45.5043 -27.7091
L45.4042 -27.4084
L45.3005 -27.1065
L45.1932 -26.8036
L45.0821 -26.4996
L44.9672 -26.1946
L44.8483 -25.8886
L44.7253 -25.5819
L44.5982 -25.2743
L44.4669 -24.966
L44.3311 -24.6572
L44.1908 -24.3479
L44.0459 -24.0382
L43.8963 -23.7284
L43.7418 -23.4185
L43.5823 -23.1088
L43.4178 -22.7993
L43.2479 -22.4904
L43.0727 -22.1822
L42.892 -21.8749
L42.7057 -21.5689
L42.5136 -21.2644
L42.3157 -20.9617
L42.1117 -20.6612
L41.9016 -20.3631
L41.6852 -20.0679
L41.4625 -19.7759
L41.2332 -19.4876
L40.9972 -19.2034
L40.7546 -18.9238
L40.505 -18.6493
L40.2485 -18.3805
L39.985 -18.1179
L39.7143 -17.8621
L39.4364 -17.6138
L39.1513 -17.3736
L38.8588 -17.1422
L38.559 -16.9202
L38.252 -16.7084
L37.9376 -16.5075
L37.616 -16.3182
L37.2873 -16.1412
L36.9515 -15.9772
L36.609 -15.827
L36.2598 -15.6911
L35.9043 -15.5701
L35.5428 -15.4646
L35.1756 -15.375
L34.8032 -15.3018
L34.426 -15.2451
L34.0445 -15.2052
L33.6593 -15.1822
L33.2709 -15.1761
L32.88 -15.1868
L32.4871 -15.2141
L32.0929 -15.2578
L31.698 -15.3175
L31.303 -15.3927
L30.9086 -15.4831
L30.5154 -15.588
L30.1238 -15.707
L29.7346 -15.8394
L29.3481 -15.9846
L28.9649 -16.142
L28.5854 -16.311
L28.21 -16.4909
L27.8391 -16.6812
L27.4731 -16.8812
L27.1122 -17.0904
L26.7567 -17.3082
L26.4069 -17.5339
L26.0629 -17.7671
L25.725 -18.0073
L25.3933 -18.254
L25.0679 -18.5066
L24.7489 -18.7648
L24.4364 -19.028
L24.1305 -19.296
L23.8312 -19.5682
L23.5385 -19.8444
L23.2524 -20.1242
L22.973 -20.4072
L22.7001 -20.6932
L22.4339 -20.9819
L22.1741 -21.2729
L21.9209 -21.566
L21.6741 -21.8611
L21.4336 -22.1578
L21.1993 -22.456
L20.9713 -22.7554
L20.7494 -23.056
L20.5335 -23.3574
L20.3236 -23.6597
L20.1195 -23.9625
L19.9211 -24.2658
L19.7284 -24.5695
L19.5412 -24.8735
L19.3595 -25.1776
L19.1831 -25.4819
L19.012 -25.7861
L18.846 -26.0902
L18.685 -26.3942
L18.5291 -26.6979
L18.3779 -27.0014
L18.2316 -27.3046
L18.0899 -27.6075
L17.9528 -27.91
L17.8202 -28.2121
L17.692 -28.5137
L17.5682 -28.815
L17.4486 -29.1157
L17.3331 -29.416
L17.2217 -29.7159
L17.1144 -30.0152
L17.011 -30.3141
L16.9115 -30.6126
L16.8157 -30.9106
L16.7238 -31.2081
L16.6355 -31.5052
L16.5508 -31.8019
L16.4697 -32.0982
L16.3921 -32.3941
L16.318 -32.6897
L16.2473 -32.9849
L16.18 -33.2799
L16.1161 -33.5745
L16.0554 -33.869
L15.9981 -34.1632
L15.9439 -34.4572
L15.893 -34.7511
L15.8452 -35.0449
L15.8006 -35.3385
L15.7591 -35.6322
L15.7208 -35.9258
L15.6855 -36.2195
L15.6533 -36.5132
L15.6242 -36.807
L15.5982 -37.101
L15.5753 -37.3951
L15.5554 -37.6895
L15.5386 -37.9842
L15.5249 -38.2791
L15.5142 -38.5744
L15.5066 -38.87
L15.5022 -39.1661
L15.5009 -39.4626
L15.5027 -39.7596
L15.5076 -40.0572
L15.5158 -40.3553
L15.5272 -40.6541
L15.5418 -40.9535
L15.5597 -41.2536
L15.581 -41.5544
L15.6056 -41.856
L15.6336 -42.1584
L15.6651 -42.4616
L15.7001 -42.7657
L15.7387 -43.0706
L15.7809 -43.3765
L15.8268 -43.6834
L15.8764 -43.9912
L15.9299 -44.3
L15.9872 -44.6098
L16.0486 -44.9207
L16.1139 -45.2327
L16.1835 -45.5457
L16.2572 -45.8598
L16.3353 -46.175
L16.4178 -46.4913
L16.5048 -46.8087
L16.5964 -47.1272
L16.6928 -47.4468
L16.794 -47.7675
L16.9001 -48.0893
L17.0113 -48.4121
L17.1277 -48.7359
L17.2495 -49.0606
L17.3767 -49.3864
L17.5094 -49.713
L17.6479 -50.0404
L17.7923 -50.3687
L17.9426 -50.6976
L18.0991 -51.0272
L18.2619 -51.3573
L18.4311 -51.6878
L18.607 -52.0186
L18.7895 -52.3496
L18.979 -52.6807
L19.1755 -53.0117
L19.3792 -53.3424
L19.5903 -53.6727
L19.8088 -54.0024
L20.035 -54.3312
L20.269 -54.659
L20.5109 -54.9855
L20.7608 -55.3104
L21.0189 -55.6335
L21.2852 -55.9544
L21.5599 -56.2728
L21.8431 -56.5884
L22.1349 -56.9009
L22.4352 -57.2098
L22.7442 -57.5147
L23.0619 -57.8152
L23.3882 -58.1109
L23.7232 -58.4012
L24.0667 -58.6856
L24.4188 -58.9636
L24.7792 -59.2347
L25.1479 -59.4983
L25.5247 -59.7538
L25.9093 -60.0005
L26.3014 -60.2378
L26.7007 -60.4651
L27.107 -60.6817
L27.5196 -60.887
L27.9382 -61.0802
L28.3623 -61.2606
L28.7912 -61.4277
L29.2244 -61.5807
L29.6611 -61.719
L30.1007 -61.842
L30.5423 -61.9493
L30.9852 -62.0402
L31.4286 -62.1143
L31.8715 -62.1714
L32.3132 -62.2111
L32.7528 -62.2332
L33.1896 -62.2377
L33.6225 -62.2245
L34.051 -62.1938
L34.4743 -62.1458
L34.8917 -62.0809
L35.3027 -61.9993
L35.7066 -61.9017
L36.1031 -61.7885
L36.4916 -61.6603
L36.872 -61.5179
L37.2438 -61.3618
L37.6069 -61.1929
L37.9612 -61.0118
L38.3065 -60.8192
L38.6428 -60.616
L38.9701 -60.4028
L39.2883 -60.1803
L39.5975 -59.9493
L39.8978 -59.7103
L40.1894 -59.464
L40.4722 -59.211
L40.7465 -58.9519
L41.0123 -58.6872
L41.2699 -58.4175
L41.5194 -58.1433
L41.761 -57.8649
L41.9948 -57.5829
L42.2211 -57.2976
L42.4399 -57.0095
L42.6515 -56.7188
L42.8561 -56.426
L43.0538 -56.1313
L43.2449 -55.835
L43.4294 -55.5374
L43.6077 -55.2387
L43.7798 -54.9392
L43.9459 -54.639
L44.1062 -54.3384
L44.2609 -54.0375
L44.4101 -53.7366
L44.554 -53.4356
L44.6927 -53.1349
L44.8264 -52.8345
L44.9552 -52.5344
L45.0793 -52.235
L45.1988 -51.9361
L45.3139 -51.6379
L45.4247 -51.3404
L45.5312 -51.0438
L45.6337 -50.748
L45.7322 -50.4532
L45.8269 -50.1593
L45.9179 -49.8664
L46.0053 -49.5746
L46.0891 -49.2837
L46.1696 -48.994
L46.2467 -48.7053
L46.3206 -48.4176
L46.3913 -48.1311
L46.459 -47.8456
L46.5237 -47.5612
L46.5855 -47.2778
L46.6445 -46.9955
L46.7008 -46.7142
L46.7544 -46.4339
L46.8053 -46.1546
L46.8538 -45.8762
L46.8997 -45.5988
L46.9432 -45.3224
L46.9843 -45.0468
L47.023 -44.772
L47.0595 -44.4981
L47.0938 -44.225
L47.1259 -43.9526
L47.1558 -43.6809
L47.1836 -43.4099
L47.2093 -43.1396
L47.233 -42.8698
L47.2547 -42.6007
L47.2743 -42.332
L47.2921 -42.0638
L47.3079 -41.796
L47.3218 -41.5287
L47.3338 -41.2617
L47.3439 -40.995
L47.3522 -40.7285
L47.3586 -40.4623
L47.3632 -40.1963
L47.366 -39.9304
L47.367 -39.6645
z
" id="C0_1_166ba1d34a"/>
    </defs>
    <g clip-path="url(#p1bffca34e9)">
     <use style="fill:#ffffff;stroke:#000000;stroke-width:2.0;" x="0.0" xlink:href="#C0_0_a811fe30f3" y="72.0"/>
    </g>
    <g clip-path="url(#p1bffca34e9)">
     <use style="fill:#ff0000;stroke:#000000;stroke-width:2.0;" x="0.0" xlink:href="#C0_1_166ba1d34a" y="72.0"/>
    </g>
   </g>
  </g>
 </g>
 <defs>
  <clipPath id="p1bffca34e9">
   <rect height="72.0" width="72.0" x="0.0" y="0.0"/>
  </clipPath>
 </defs>
</svg>
