<?xml version="1.0" encoding="utf-8" standalone="no"?>
<!DOCTYPE svg PUBLIC "-//W3C//DTD SVG 1.1//EN"
  "http://www.w3.org/Graphics/SVG/1.1/DTD/svg11.dtd">
<!-- Created with matplotlib (http://matplotlib.org/) -->
<svg height="72pt" version="1.1" viewBox="0 0 72 72" width="72pt" xmlns="http://www.w3.org/2000/svg" xmlns:xlink="http://www.w3.org/1999/xlink">
 <defs>
  <style type="text/css">
*{stroke-linecap:butt;stroke-linejoin:round;}
  </style>
 </defs>
 <g id="figure_1">
  <g id="patch_1">
   <path d="
M0 72
L72 72
L72 0
L0 0
z
" style="fill:none;"/>
  </g>
  <g id="axes_1">
   <g id="PatchCollection_1">
    <defs>
     <path d="
M36 -7.5
C43.5583 -7.5 50.808 -10.5029 56.1525 -15.8475
C61.4971 -21.192 64.5 -28.4417 64.5 -36
C64.5 -43.5583 61.4971 -50.808 56.1525 -56.1525
C50.808 -61.4971 43.5583 -64.5 36 -64.5
C28.4417 -64.5 21.192 -61.4971 15.8475 -56.1525
C10.5029 -50.808 7.5 -43.5583 7.5 -36
C7.5 -28.4417 10.5029 -21.192 15.8475 -15.8475
C21.192 -10.5029 28.4417 -7.5 36 -7.5
z
" id="C0_0_a811fe30f3"/>
     <path d="
M56.2985 -16.291
L56.1442 -16.4816
L55.9907 -16.6733
L55.838 -16.8659
L55.6861 -17.0593
L55.5348 -17.2532
L55.3842 -17.4477
L55.2342 -17.6425
L55.0848 -17.8376
L54.9359 -18.0328
L54.7876 -18.2281
L54.6397 -18.4234
L54.4924 -18.6186
L54.3455 -18.8137
L54.1991 -19.0087
L54.0531 -19.2034
L53.9075 -19.3978
L53.7624 -19.5919
L53.6175 -19.7857
L53.4731 -19.9792
L53.329 -20.1723
L53.1852 -20.365
L53.0417 -20.5573
L52.8985 -20.7493
L52.7556 -20.9408
L52.613 -21.1319
L52.4706 -21.3226
L52.3284 -21.513
L52.1864 -21.7029
L52.0446 -21.8925
L51.903 -22.0817
L51.7615 -22.2706
L51.6201 -22.4591
L51.4788 -22.6473
L51.3377 -22.8353
L51.1965 -23.0229
L51.0555 -23.2103
L50.9144 -23.3975
L50.7733 -23.5845
L50.6322 -23.7713
L50.4911 -23.9579
L50.3499 -24.1445
L50.2086 -24.3309
L50.0671 -24.5173
L49.9255 -24.7036
L49.7837 -24.89
L49.6418 -25.0763
L49.4995 -25.2628
L49.3571 -25.4493
L49.2143 -25.636
L49.0713 -25.8228
L48.9279 -26.0099
L48.7841 -26.1972
L48.64 -26.3847
L48.3504 -26.5726
L48.2049 -26.7608
L48.0588 -26.9494
L47.9123 -27.1385
L47.7651 -27.328
L47.6174 -27.518
L47.469 -27.7085
L47.32 -27.8997
L47.1702 -28.0914
L47.0197 -28.2839
L46.8685 -28.477
L46.7165 -28.6709
L46.5636 -28.8656
L46.4099 -29.0611
L46.2553 -29.2575
L46.0998 -29.4548
L45.9433 -29.6531
L45.7858 -29.8523
L45.6273 -30.0527
L45.4678 -30.2541
L45.3071 -30.4567
L45.1453 -30.6605
L44.9824 -30.8655
L44.8183 -31.0717
L44.653 -31.2793
L44.4864 -31.4883
L44.3185 -31.6987
L44.1493 -31.9105
L43.9788 -32.1239
L43.8069 -32.3388
L43.6336 -32.5553
L43.4589 -32.7734
L43.2827 -32.9932
L43.105 -33.2147
L42.9259 -33.4381
L42.7452 -33.6632
L42.563 -33.8902
L42.3792 -34.1191
L42.1938 -34.3499
L42.0069 -34.5827
L41.8184 -34.8175
L41.6283 -35.0544
L41.4366 -35.2934
L41.2433 -35.5345
L41.0484 -35.7777
L40.8519 -36.0232
L40.6539 -36.2709
L40.4544 -36.5208
L40.2533 -36.773
L40.0509 -37.0275
L39.8469 -37.2843
L39.6417 -37.5435
L39.4351 -37.805
L39.2274 -38.0689
L39.0185 -38.3351
L38.8086 -38.6037
L38.5978 -38.8746
L38.3862 -39.148
L38.1739 -39.4236
L37.9612 -39.7017
L37.7482 -39.982
L37.5351 -40.2647
L37.3221 -40.5496
L37.1095 -40.8368
L36.8976 -41.1262
L36.6866 -41.4177
L36.4769 -41.7114
L36.2689 -42.0072
L36.0629 -42.305
L35.8594 -42.6048
L35.6588 -42.9064
L35.4617 -43.2099
L35.2687 -43.5151
L35.0803 -43.8221
L34.8973 -44.1306
L34.7202 -44.4406
L34.5498 -44.7521
L34.387 -45.0649
L34.2326 -45.379
L34.0873 -45.6942
L33.9522 -46.0104
L33.8281 -46.3275
L33.716 -46.6455
L33.6168 -46.9641
L33.5313 -47.2832
L33.4605 -47.6027
L33.4051 -47.9225
L33.3658 -48.2422
L33.3433 -48.5618
L33.338 -48.881
L33.3503 -49.1996
L33.3804 -49.5173
L33.4284 -49.8339
L33.4942 -50.149
L33.5776 -50.4624
L33.6781 -50.7738
L33.7953 -51.0828
L33.9287 -51.389
L34.0775 -51.6923
L34.2411 -51.9921
L34.4186 -52.2883
L34.6093 -52.5806
L34.8122 -52.8686
L35.0267 -53.152
L35.2519 -53.4306
L35.487 -53.7043
L35.7312 -53.9726
L35.9838 -54.2355
L36.2441 -54.4928
L36.5114 -54.7444
L36.7851 -54.99
L37.0646 -55.2295
L37.3493 -55.463
L37.6387 -55.6902
L37.9323 -55.9111
L38.2296 -56.1257
L38.5303 -56.334
L38.8338 -56.5359
L39.14 -56.7313
L39.4483 -56.9204
L39.7585 -57.1031
L40.0703 -57.2794
L40.3835 -57.4494
L40.6977 -57.6131
L41.0128 -57.7706
L41.3285 -57.9219
L41.6447 -58.067
L41.9611 -58.2061
L42.2777 -58.3392
L42.5942 -58.4663
L42.9106 -58.5876
L43.2266 -58.7031
L43.5423 -58.8128
L43.8576 -58.9169
L44.1722 -59.0155
L44.4862 -59.1085
L44.7995 -59.1962
L45.1121 -59.2785
L45.4238 -59.3556
L45.7347 -59.4275
L46.0447 -59.4942
L46.3537 -59.556
L46.6619 -59.6127
L46.969 -59.6646
L47.2752 -59.7116
L47.5804 -59.7539
L47.8847 -59.7914
L48.1879 -59.8243
L48.4902 -59.8526
L48.7915 -59.8763
L49.0918 -59.8955
L49.3912 -59.9103
L49.6897 -59.9207
L49.9872 -59.9266
L50.2839 -59.9283
L50.5797 -59.9256
L50.8746 -59.9186
L51.1688 -59.9074
L51.4622 -59.892
L51.9086 -59.8723
L52.3189 -59.6467
L52.7242 -59.3654
L53.1244 -59.0771
L53.5194 -58.7817
L53.9091 -58.4793
L54.2932 -58.1702
L54.6719 -57.8542
L55.0448 -57.5316
L55.4119 -57.2025
L55.7732 -56.8669
L56.1284 -56.5249
L56.4774 -56.1767
L56.8203 -55.8223
L57.1567 -55.4619
L57.4868 -55.0956
L57.8103 -54.7235
L58.1271 -54.3456
L58.4372 -53.9622
L58.7405 -53.5733
L59.0369 -53.179
L59.3262 -52.7795
L59.6084 -52.3749
L59.8835 -51.9653
L60.1512 -51.5509
L60.4116 -51.1317
L60.6646 -50.7079
L60.9101 -50.2796
L61.1479 -49.847
L61.3781 -49.4101
L61.6006 -48.9692
L61.8153 -48.5243
L62.0221 -48.0756
L62.221 -47.6232
L62.4119 -47.1673
L62.5948 -46.708
L62.7695 -46.2454
L62.9361 -45.7797
L63.0945 -45.311
L63.2447 -44.8395
L63.3865 -44.3653
L63.52 -43.8885
L63.6451 -43.4094
L63.7618 -42.9279
L63.8701 -42.4444
L63.9698 -41.9589
L64.0611 -41.4716
L64.1438 -40.9826
L64.2179 -40.4921
L64.2834 -40.0003
L64.3403 -39.5072
L64.3885 -39.0131
L64.4282 -38.518
L64.4591 -38.0222
L64.4814 -37.5257
L64.495 -37.0288
L64.5 -36.5316
L64.4962 -36.0342
L64.4838 -35.5368
L64.4627 -35.0395
L64.4329 -34.5426
L64.3945 -34.046
L64.3474 -33.5501
L64.2917 -33.0549
L64.2274 -32.5607
L64.1544 -32.0674
L64.0729 -31.5754
L63.9829 -31.0847
L63.8843 -30.5955
L63.7772 -30.108
L63.6617 -29.6222
L63.5377 -29.1384
L63.4054 -28.6567
L63.2647 -28.1772
L63.1157 -27.7001
L62.9584 -27.2255
L62.7929 -26.7536
L62.6193 -26.2846
L62.4375 -25.8184
L62.2477 -25.3554
L62.0499 -24.8956
L61.8442 -24.4392
L61.6306 -23.9864
L61.4092 -23.5372
L61.18 -23.0917
L60.9432 -22.6503
L60.6988 -22.2128
L60.4469 -21.7796
L60.1875 -21.3507
L59.9207 -20.9263
L59.6467 -20.5065
L59.3654 -20.0914
L59.0771 -19.6811
L58.7817 -19.2758
L58.4793 -18.8756
L58.1702 -18.4806
L57.8542 -18.0909
L57.5316 -17.7068
L57.2025 -17.3281
L56.8669 -16.9552
z
" id="C0_1_076e4e5a63"/>
     <path d="
M20.3363 -12.2895
L20.2014 -12.5479
L20.0703 -12.8063
L19.943 -13.0646
L19.8193 -13.3229
L19.6992 -13.5813
L19.5826 -13.8396
L19.4693 -14.098
L19.3594 -14.3564
L19.2527 -14.615
L19.1492 -14.8737
L19.0488 -15.1325
L18.9515 -15.3916
L18.8571 -15.6509
L18.7656 -15.9105
L18.677 -16.1704
L18.5912 -16.4306
L18.5081 -16.6912
L18.4278 -16.9523
L18.3501 -17.2138
L18.2751 -17.4759
L18.2026 -17.7385
L18.1327 -18.0018
L18.0654 -18.2657
L18.0005 -18.5303
L17.938 -18.7956
L17.8781 -19.0618
L17.8205 -19.3288
L17.7653 -19.5967
L17.7125 -19.8655
L17.6621 -20.1354
L17.614 -20.4063
L17.5682 -20.6783
L17.5248 -20.9515
L17.4836 -21.2258
L17.4448 -21.5015
L17.4084 -21.7784
L17.3742 -22.0568
L17.3423 -22.3365
L17.3128 -22.6177
L17.2856 -22.9005
L17.2607 -23.1849
L17.2381 -23.4709
L17.218 -23.7586
L17.2001 -24.048
L17.1847 -24.3393
L17.1717 -24.6324
L17.1611 -24.9274
L17.1529 -25.2244
L17.1473 -25.5234
L17.1441 -25.8245
L17.1434 -26.1277
L17.1453 -26.4331
L17.1497 -26.7407
L17.1568 -27.0506
L17.1665 -27.3627
L17.1789 -27.6773
L17.194 -27.9942
L17.2118 -28.3136
L17.2325 -28.6354
L17.2559 -28.9598
L17.2822 -29.2867
L17.3113 -29.6162
L17.3434 -29.9483
L17.3784 -30.283
L17.4165 -30.6203
L17.4575 -30.9603
L17.5016 -31.303
L17.5488 -31.6483
L17.5991 -31.9963
L17.6525 -32.347
L17.709 -32.7003
L17.7687 -33.0562
L17.8316 -33.4148
L17.8976 -33.7759
L17.9667 -34.1395
L18.039 -34.5057
L18.1144 -34.8742
L18.1929 -35.2451
L18.2743 -35.6183
L18.3587 -35.9936
L18.446 -36.3711
L18.536 -36.7505
L18.6287 -37.1318
L18.7239 -37.5148
L18.8214 -37.8994
L18.9211 -38.2854
L19.0227 -38.6726
L19.126 -39.0609
L19.2307 -39.4501
L19.3365 -39.8399
L19.4429 -40.2302
L19.5497 -40.6206
L19.6564 -41.011
L19.7624 -41.4011
L19.8672 -41.7906
L19.9703 -42.1792
L20.071 -42.5666
L20.1686 -42.9525
L20.2623 -43.3366
L20.3514 -43.7186
L20.4352 -44.0981
L20.5126 -44.4749
L20.5829 -44.8485
L20.6453 -45.2187
L20.6988 -45.5852
L20.7427 -45.9476
L20.7762 -46.3057
L20.7987 -46.6592
L20.8094 -47.0079
L20.8081 -47.3515
L20.7942 -47.6899
L20.7676 -48.0229
L20.7282 -48.3503
L20.6761 -48.6721
L20.6114 -48.9881
L20.5344 -49.2983
L20.4457 -49.6026
L20.3456 -49.9011
L20.2349 -50.1937
L20.1141 -50.4804
L19.9839 -50.7613
L19.8451 -51.0363
L19.6984 -51.3055
L19.5444 -51.569
L19.3839 -51.8267
L19.2176 -52.0787
L19.046 -52.325
L18.8699 -52.5658
L18.6898 -52.801
L18.5062 -53.0306
L18.3197 -53.2548
L18.1306 -53.4736
L17.9395 -53.6869
L17.7467 -53.895
L17.5526 -54.0978
L17.3575 -54.2953
L17.1617 -54.4877
L16.9655 -54.675
L16.7691 -54.8573
L16.5728 -55.0345
L16.3767 -55.2068
L16.181 -55.3743
L15.9858 -55.537
L15.7914 -55.6949
L15.2282 -55.8482
L14.8908 -55.5137
L14.5599 -55.1482
L14.2354 -54.7769
L13.9176 -54.3998
L13.6066 -54.0172
L13.3023 -53.6291
L13.005 -53.2356
L12.7146 -52.8368
L12.4314 -52.4329
L12.1553 -52.024
L11.8865 -51.6103
L11.625 -51.1917
L11.371 -50.7686
L11.1245 -50.3409
L10.8855 -49.9089
L10.6542 -49.4726
L10.4306 -49.0323
L10.2148 -48.588
L10.0069 -48.1398
L9.80686 -47.6879
L9.61481 -47.2325
L9.4308 -46.7737
L9.25489 -46.3115
L9.08712 -45.8463
L8.92755 -45.378
L8.77623 -44.9069
L8.6332 -44.433
L8.4985 -43.9566
L8.37219 -43.4778
L8.25429 -42.9967
L8.14484 -42.5135
L8.04387 -42.0282
L7.95142 -41.5412
L7.86752 -41.0524
L7.79218 -40.5622
L7.72544 -40.0705
L7.66731 -39.5776
L7.6178 -39.0836
L7.57695 -38.5886
L7.54475 -38.0929
L7.52122 -37.5965
L7.50637 -37.0997
L7.50019 -36.6025
L7.5027 -36.1051
L7.51389 -35.6077
L7.53375 -35.1104
L7.56229 -34.6134
L7.59948 -34.1168
L7.64533 -33.6208
L7.69982 -33.1255
L7.76292 -32.6311
L7.83463 -32.1377
L7.91492 -31.6455
L8.00376 -31.1546
L8.10113 -30.6652
L8.207 -30.1774
L8.32133 -29.6913
L8.4441 -29.2073
L8.57526 -28.7252
L8.71477 -28.2454
L8.86259 -27.768
L9.01869 -27.293
L9.18299 -26.8207
L9.35547 -26.3513
L9.53607 -25.8847
L9.72472 -25.4212
L9.92138 -24.961
L10.126 -24.5041
L10.3385 -24.0507
L10.5588 -23.601
L10.7868 -23.155
L11.0226 -22.713
L11.2659 -22.2749
L11.5168 -21.8411
L11.7751 -21.4116
L12.0408 -20.9865
L12.3138 -20.566
L12.594 -20.1502
L12.8814 -19.7393
L13.1758 -19.3333
L13.4771 -18.9323
L13.7853 -18.5366
L14.1003 -18.1462
L14.422 -17.7612
L14.7502 -17.3818
L15.0849 -17.008
L15.4259 -16.64
L15.7733 -16.278
L16.1268 -15.9219
L16.4863 -15.572
L16.8518 -15.2282
L17.2231 -14.8908
L17.6002 -14.5599
L17.9828 -14.2354
L18.3709 -13.9176
L18.7644 -13.6066
L19.1632 -13.3023
L19.5671 -13.005
z
" id="C0_2_b6e108c180"/>
    </defs>
    <g clip-path="url(#p1bffca34e9)">
     <use style="fill:#ffffff;stroke:#000000;stroke-width:2.0;" x="0.0" xlink:href="#C0_0_a811fe30f3" y="72.0"/>
    </g>
    <g clip-path="url(#p1bffca34e9)">
     <use style="fill:#ff0000;stroke:#000000;stroke-width:2.0;" x="0.0" xlink:href="#C0_1_076e4e5a63" y="72.0"/>
    </g>
    <g clip-path="url(#p1bffca34e9)">
     <use style="fill:#ff0000;stroke:#000000;stroke-width:2.0;" x="0.0" xlink:href="#C0_2_b6e108c180" y="72.0"/>
    </g>
   </g>
  </g>
 </g>
 <defs>
  <clipPath id="p1bffca34e9">
   <rect height="72.0" width="72.0" x="0.0" y="0.0"/>
  </clipPath>
 </defs>
</svg>
