<?xml version="1.0" encoding="utf-8" standalone="no"?>
<!DOCTYPE svg PUBLIC "-//W3C//DTD SVG 1.1//EN"
  "http://www.w3.org/Graphics/SVG/1.1/DTD/svg11.dtd">
<!-- Created with matplotlib (http://matplotlib.org/) -->
<svg height="72pt" version="1.1" viewBox="0 0 72 72" width="72pt" xmlns="http://www.w3.org/2000/svg" xmlns:xlink="http://www.w3.org/1999/xlink">
 <defs>
  <style type="text/css">
*{stroke-linecap:butt;stroke-linejoin:round;}
  </style>
 </defs>
 <g id="figure_1">
  <g id="patch_1">
   <path d="
M0 72
L72 72
L72 0
L0 0
z
" style="fill:none;"/>
  </g>
  <g id="axes_1">
   <g id="PatchCollection_1">
    <defs>
     <path d="
M36 -7.5
C43.5583 -7.5 50.808 -10.5029 56.1525 -15.8475
C61.4971 -21.192 64.5 -28.4417 64.5 -36
C64.5 -43.5583 61.4971 -50.808 56.1525 -56.1525
C50.808 -61.4971 43.5583 -64.5 36 -64.5
C28.4417 -64.5 21.192 -61.4971 15.8475 -56.1525
C10.5029 -50.808 7.5 -43.5583 7.5 -36
C7.5 -28.4417 10.5029 -21.192 15.8475 -15.8475
C21.192 -10.5029 28.4417 -7.5 36 -7.5
z
" id="C0_0_a811fe30f3"/>
     <path d="
M35.0243 -7.5838
L34.765 -7.79557
L34.529 -8.01471
L34.3166 -8.2407
L34.128 -8.47304
L33.9631 -8.71124
L33.8219 -8.95483
L33.7037 -9.20337
L33.6081 -9.45645
L33.5342 -9.71369
L33.4812 -9.97475
L33.4479 -10.2393
L33.4333 -10.5071
L33.4361 -10.7778
L33.4551 -11.0512
L33.4891 -11.3271
L33.5369 -11.6052
L33.5971 -11.8854
L33.6687 -12.1676
L33.7506 -12.4514
L33.8417 -12.7368
L33.941 -13.0235
L34.0476 -13.3115
L34.1606 -13.6006
L34.2793 -13.8906
L34.4029 -14.1813
L34.5308 -14.4727
L34.6623 -14.7646
L34.797 -15.0568
L34.9343 -15.3493
L35.0737 -15.6418
L35.2149 -15.9344
L35.3575 -16.2268
L35.5011 -16.5189
L35.6455 -16.8107
L35.7904 -17.1021
L35.9355 -17.3929
L36.0806 -17.6831
L36.2256 -17.9725
L36.3703 -18.2612
L36.5145 -18.549
L36.6581 -18.8359
L36.8009 -19.1218
L36.9429 -19.4067
L37.0841 -19.6905
L37.2242 -19.9731
L37.3632 -20.2547
L37.5012 -20.535
L37.638 -20.8141
L37.7736 -21.092
L37.9079 -21.3686
L38.041 -21.6439
L38.1728 -21.918
L38.3034 -22.1908
L38.4326 -22.4623
L38.5605 -22.7326
L38.6871 -23.0015
L38.8124 -23.2692
L38.9364 -23.5357
L39.0591 -23.8009
L39.1805 -24.0649
L39.3006 -24.3277
L39.4195 -24.5893
L39.5371 -24.8497
L39.6535 -25.109
L39.7687 -25.3673
L39.8827 -25.6244
L39.9955 -25.8805
L40.1071 -26.1356
L40.2177 -26.3897
L40.3271 -26.6429
L40.4354 -26.8952
L40.5427 -27.1466
L40.6489 -27.3972
L40.7541 -27.647
L40.8584 -27.8961
L40.9616 -28.1444
L41.0639 -28.3921
L41.1653 -28.6392
L41.2658 -28.8857
L41.3654 -29.1317
L41.4641 -29.3771
L41.562 -29.6222
L41.6591 -29.8668
L41.7554 -30.1111
L41.851 -30.3551
L41.9458 -30.5988
L42.0399 -30.8423
L42.1333 -31.0856
L42.226 -31.3289
L42.3181 -31.572
L42.4095 -31.8152
L42.5003 -32.0584
L42.5905 -32.3016
L42.7692 -32.545
L42.8578 -32.7885
L42.9458 -33.0323
L43.0333 -33.2764
L43.1203 -33.5208
L43.2068 -33.7655
L43.2929 -34.0107
L43.3786 -34.2564
L43.4638 -34.5026
L43.5486 -34.7493
L43.633 -34.9967
L43.7171 -35.2448
L43.8007 -35.4936
L43.8841 -35.7431
L43.967 -35.9935
L44.0497 -36.2448
L44.132 -36.497
L44.214 -36.7502
L44.2958 -37.0044
L44.3772 -37.2597
L44.4584 -37.5161
L44.5393 -37.7737
L44.62 -38.0325
L44.7004 -38.2926
L44.7806 -38.554
L44.8606 -38.8168
L44.9403 -39.081
L45.0198 -39.3466
L45.0991 -39.6137
L45.1782 -39.8824
L45.2572 -40.1527
L45.3359 -40.4246
L45.4144 -40.6981
L45.4928 -40.9733
L45.571 -41.2503
L45.649 -41.529
L45.7269 -41.8096
L45.8046 -42.0919
L45.8821 -42.3761
L45.9595 -42.6622
L46.0367 -42.9501
L46.1138 -43.2399
L46.1908 -43.5317
L46.2677 -43.8254
L46.3444 -44.1209
L46.421 -44.4184
L46.4975 -44.7178
L46.5739 -45.0191
L46.6503 -45.3222
L46.7266 -45.6271
L46.8028 -45.9339
L46.8791 -46.2423
L46.9554 -46.5525
L47.0317 -46.8642
L47.1081 -47.1775
L47.1846 -47.4923
L47.2613 -47.8083
L47.3382 -48.1257
L47.4155 -48.444
L47.4931 -48.7634
L47.5712 -49.0835
L47.6499 -49.4042
L47.7293 -49.7254
L47.8095 -50.0467
L47.8907 -50.3679
L47.9731 -50.6888
L48.0568 -51.0091
L48.1422 -51.3284
L48.2293 -51.6464
L48.3187 -51.9627
L48.4104 -52.2769
L48.505 -52.5885
L48.6028 -52.8971
L48.7043 -53.2021
L48.8099 -53.5029
L48.9201 -53.799
L49.0356 -54.0896
L49.157 -54.3741
L49.2849 -54.6518
L49.42 -54.9217
L49.563 -55.1831
L49.7148 -55.4352
L49.8761 -55.6769
L50.0477 -55.9074
L50.2302 -56.1257
L50.4245 -56.3309
L50.6312 -56.522
L50.8507 -56.6981
L51.0837 -56.8583
L51.3303 -57.0017
L51.5909 -57.1277
L51.8654 -57.2356
L52.1536 -57.3247
L52.4554 -57.3946
L52.7703 -57.445
L53.0976 -57.4757
L53.4366 -57.4864
L53.7866 -57.4773
L54.1466 -57.4483
L54.5155 -57.3996
L54.8925 -57.3315
L55.308 -57.2443
L55.6709 -56.9631
L56.0279 -56.6229
L56.3787 -56.2765
L56.7233 -55.9238
L57.0616 -55.5652
L57.3935 -55.2005
L57.7189 -54.83
L58.0376 -54.4538
L58.3496 -54.0719
L58.6549 -53.6845
L58.9532 -53.2918
L59.2446 -52.8938
L59.5288 -52.4906
L59.8059 -52.0824
L60.0758 -51.6694
L60.3383 -51.2515
L60.5934 -50.829
L60.841 -50.402
L61.081 -49.9706
L61.3134 -49.5349
L61.5381 -49.0951
L61.755 -48.6513
L61.964 -48.2037
L62.1652 -47.7524
L62.3584 -47.2974
L62.5435 -46.8391
L62.7206 -46.3774
L62.8895 -45.9126
L63.0503 -45.4447
L63.2028 -44.974
L63.347 -44.5005
L63.4829 -44.0245
L63.6104 -43.546
L63.7295 -43.0652
L63.8401 -42.5823
L63.9423 -42.0973
L64.036 -41.6105
L64.1211 -41.122
L64.1976 -40.6319
L64.2656 -40.1404
L64.325 -39.6477
L64.3757 -39.1538
L64.4178 -38.659
L64.4512 -38.1634
L64.476 -37.6671
L64.492 -37.1703
L64.4995 -36.6732
L64.4982 -36.1758
L64.4882 -35.6784
L64.4696 -35.1811
L64.4423 -34.684
L64.4063 -34.1873
L64.3617 -33.6912
L64.3085 -33.1958
L64.2466 -32.7013
L64.1761 -32.2077
L64.097 -31.7153
L64.0094 -31.2242
L63.9132 -30.7346
L63.8086 -30.2466
L63.6954 -29.7603
L63.5739 -29.2759
L63.4439 -28.7936
L63.3056 -28.3135
L63.1589 -27.8357
L63.004 -27.3604
L62.8409 -26.8877
L62.6695 -26.4178
L62.4901 -25.9508
L62.3026 -25.4869
L62.1071 -25.0262
L61.9036 -24.5688
L61.6922 -24.1149
L61.473 -23.6647
L61.2461 -23.2182
L61.0114 -22.7755
L60.7692 -22.3369
L60.5193 -21.9025
L60.2621 -21.4724
L59.9974 -21.0467
L59.7254 -20.6255
L59.4462 -20.209
L59.1599 -19.7974
L58.8665 -19.3907
L58.5661 -18.989
L58.2589 -18.5925
L57.9448 -18.2013
L57.6241 -17.8156
L57.2969 -17.4353
L56.9631 -17.0608
L56.6229 -16.692
L56.2765 -16.3291
L55.9238 -15.9721
L55.5652 -15.6213
L55.2005 -15.2767
L54.83 -14.9384
L54.4538 -14.6065
L54.0719 -14.2811
L53.6845 -13.9624
L53.2918 -13.6504
L52.8938 -13.3451
L52.4906 -13.0468
L52.0824 -12.7554
L51.6694 -12.4712
L51.2515 -12.1941
L50.829 -11.9242
L50.402 -11.6617
L49.9706 -11.4066
L49.5349 -11.159
L49.0951 -10.919
L48.6513 -10.6866
L48.2037 -10.4619
L47.7524 -10.245
L47.2974 -10.036
L46.8391 -9.8348
L46.3774 -9.64162
L45.9126 -9.45646
L45.4447 -9.2794
L44.974 -9.11047
L44.5005 -8.94973
L44.0245 -8.79723
L43.546 -8.65302
L43.0652 -8.51714
L42.5823 -8.38963
L42.0973 -8.27053
L41.6105 -8.15987
L41.122 -8.0577
L40.6319 -7.96404
L40.1404 -7.87892
L39.6477 -7.80236
L39.1538 -7.7344
L38.659 -7.67504
L38.1634 -7.62431
L37.6671 -7.58223
L37.1703 -7.5488
L36.6732 -7.52404
L36.1758 -7.50795
L35.6784 -7.50054
z
" id="C0_1_5e9f00311c"/>
     <path d="
M16.8693 -15.0214
L16.72 -15.3984
L16.5673 -15.7814
L16.4125 -16.1697
L16.2563 -16.5628
L16.0998 -16.9602
L15.9438 -17.3614
L15.789 -17.766
L15.6361 -18.1734
L15.4856 -18.5832
L15.3381 -18.9949
L15.194 -19.4082
L15.0538 -19.8226
L14.9177 -20.2379
L14.786 -20.6535
L14.659 -21.0693
L14.5369 -21.4849
L14.4198 -21.9
L14.3078 -22.3144
L14.2011 -22.7278
L14.0996 -23.1399
L14.0034 -23.5506
L13.9125 -23.9597
L13.827 -24.367
L13.7467 -24.7724
L13.6717 -25.1756
L13.602 -25.5766
L13.5373 -25.9753
L13.4778 -26.3715
L13.4232 -26.7652
L13.3736 -27.1563
L13.3288 -27.5448
L13.2888 -27.9304
L13.2534 -28.3133
L13.2226 -28.6934
L13.1963 -29.0707
L13.1743 -29.4451
L13.1566 -29.8166
L13.1431 -30.1852
L13.1337 -30.551
L13.1283 -30.9139
L13.1268 -31.2739
L13.1291 -31.6311
L13.1351 -31.9855
L13.1448 -32.337
L13.158 -32.6858
L13.1747 -33.0319
L13.1949 -33.3753
L13.2183 -33.716
L13.2451 -34.0541
L13.275 -34.3896
L13.3081 -34.7226
L13.3442 -35.0531
L13.3833 -35.3812
L13.4254 -35.7069
L13.4704 -36.0303
L13.5183 -36.3514
L13.569 -36.6703
L13.6224 -36.987
L13.6786 -37.3016
L13.7375 -37.6142
L13.799 -37.9247
L13.8632 -38.2334
L13.93 -38.5401
L13.9993 -38.845
L14.0712 -39.1481
L14.1456 -39.4495
L14.2226 -39.7493
L14.3021 -40.0474
L14.384 -40.344
L14.4684 -40.6391
L14.5554 -40.9328
L14.6448 -41.2251
L14.7366 -41.516
L14.831 -41.8057
L14.9278 -42.0941
L15.0271 -42.3814
L15.1289 -42.6675
L15.2332 -42.9526
L15.3401 -43.2367
L15.4494 -43.5197
L15.5614 -43.8019
L15.6759 -44.0831
L15.793 -44.3636
L15.9127 -44.6432
L16.0351 -44.9221
L16.1602 -45.2003
L16.2879 -45.4778
L16.4185 -45.7548
L16.5518 -46.0311
L16.6879 -46.3069
L16.8269 -46.5822
L16.9689 -46.857
L17.1137 -47.1313
L17.2616 -47.4053
L17.4125 -47.6789
L17.5666 -47.9521
L17.7238 -48.225
L17.8842 -48.4976
L18.0479 -48.77
L18.2149 -49.0421
L18.3853 -49.3139
L18.5591 -49.5856
L18.7365 -49.857
L18.9175 -50.1283
L19.1021 -50.3993
L19.2905 -50.6702
L19.4826 -50.9409
L19.6786 -51.2115
L19.8786 -51.4819
L20.0826 -51.7521
L20.2907 -52.0221
L20.503 -52.2919
L20.7195 -52.5615
L20.9403 -52.8308
L21.1656 -53.0999
L21.3953 -53.3687
L21.6296 -53.6372
L21.8686 -53.9053
L22.1122 -54.1731
L22.3606 -54.4403
L22.6139 -54.7071
L22.872 -54.9733
L23.1352 -55.2389
L23.4033 -55.5038
L23.6766 -55.768
L23.955 -56.0313
L24.2386 -56.2937
L24.5274 -56.5551
L24.8214 -56.8153
L25.1207 -57.0744
L25.4252 -57.3322
L25.735 -57.5886
L26.05 -57.8435
L26.3702 -58.0967
L26.6956 -58.3482
L27.026 -58.5978
L27.3614 -58.8454
L27.7016 -59.0909
L28.0466 -59.3341
L28.3962 -59.575
L28.7501 -59.8134
L29.1081 -60.0491
L29.4701 -60.2822
L29.8356 -60.5125
L30.2044 -60.7398
L30.576 -60.9641
L30.9501 -61.1854
L31.3261 -61.4036
L31.7035 -61.6187
L32.0817 -61.8307
L32.4601 -62.0396
L32.8379 -62.2454
L33.2144 -62.4483
L33.5887 -62.6483
L33.9599 -62.8457
L34.327 -63.0406
L34.689 -63.2334
L35.0447 -63.4242
L35.3929 -63.6135
L35.7326 -63.8015
L36.0624 -63.9888
L36.3812 -64.1757
L36.1933 -64.3626
L35.6959 -64.4993
L35.1986 -64.4984
L34.7015 -64.4887
L34.2048 -64.4704
L33.7087 -64.4434
L33.2132 -64.4077
L32.7187 -64.3634
L32.2251 -64.3105
L31.7326 -64.2489
L31.2415 -64.1787
L30.7518 -64.0999
L30.2637 -64.0126
L29.7774 -63.9168
L29.2929 -63.8124
L28.8105 -63.6996
L28.3303 -63.5783
L27.8524 -63.4486
L27.3771 -63.3106
L26.9043 -63.1642
L26.4343 -63.0096
L25.9672 -62.8467
L25.5032 -62.6757
L25.0423 -62.4965
L24.5849 -62.3093
L24.1308 -62.1141
L23.6804 -61.9109
L23.2338 -61.6998
L22.791 -61.4809
L22.3523 -61.2542
L21.9177 -61.0198
L21.4874 -60.7778
L21.0616 -60.5283
L20.6403 -60.2712
L20.2236 -60.0068
L19.8118 -59.7351
L19.4049 -59.4562
L19.003 -59.1701
L18.6064 -58.8769
L18.215 -58.5768
L17.829 -58.2698
L17.4486 -57.956
L17.0739 -57.6355
L16.7049 -57.3085
L16.3417 -56.9749
L15.9846 -56.635
L15.6336 -56.2888
L15.2887 -55.9364
L14.9502 -55.5779
L14.6181 -55.2134
L14.2925 -54.8431
L13.9735 -54.4671
L13.6612 -54.0854
L13.3557 -53.6983
L13.0572 -53.3057
L12.7656 -52.9079
L12.4811 -52.5049
L12.2037 -52.0969
L11.9336 -51.684
L11.6708 -51.2663
L11.4155 -50.8439
L11.1676 -50.4171
L10.9273 -49.9858
L10.6947 -49.5503
L10.4697 -49.1107
L10.2525 -48.667
L10.0432 -48.2195
L9.84174 -47.7683
L9.64828 -47.3135
L9.46284 -46.8553
L9.28549 -46.3937
L9.11627 -45.929
L8.95524 -45.4612
L8.80246 -44.9906
L8.65795 -44.5173
L8.52178 -44.0413
L8.39397 -43.5629
L8.27457 -43.0822
L8.16362 -42.5993
L8.06115 -42.1144
L7.96719 -41.6277
L7.88177 -41.1392
L7.80491 -40.6492
L7.73664 -40.1578
L7.67698 -39.6651
L7.62595 -39.1712
L7.58356 -38.6764
L7.54983 -38.1808
L7.52476 -37.6846
L7.50837 -37.1878
L7.50066 -36.6906
L7.50162 -36.1933
L7.51127 -35.6959
L7.5296 -35.1986
L7.55659 -34.7015
L7.59226 -34.2048
L7.63657 -33.7087
L7.68953 -33.2132
L7.75111 -32.7187
L7.82129 -32.2251
L7.90006 -31.7326
L7.98739 -31.2415
L8.08325 -30.7518
L8.18761 -30.2637
L8.30045 -29.7774
L8.42172 -29.2929
L8.55139 -28.8105
L8.68943 -28.3303
L8.83578 -27.8524
L8.99041 -27.3771
L9.15327 -26.9043
L9.3243 -26.4343
L9.50346 -25.9672
L9.69069 -25.5032
L9.88593 -25.0423
L10.0891 -24.5849
L10.3002 -24.1308
L10.5191 -23.6804
L10.7458 -23.2338
L10.9802 -22.791
L11.2222 -22.3523
L11.4717 -21.9177
L11.7288 -21.4874
L11.9932 -21.0616
L12.2649 -20.6403
L12.5438 -20.2236
L12.8299 -19.8118
L13.1231 -19.4049
L13.4232 -19.003
L13.7302 -18.6064
L14.044 -18.215
L14.3645 -17.829
L14.6915 -17.4486
L15.0251 -17.0739
L15.365 -16.7049
L15.7112 -16.3417
L16.0636 -15.9846
L16.4221 -15.6336
z
" id="C0_2_e38ac7c6c9"/>
    </defs>
    <g clip-path="url(#p1bffca34e9)">
     <use style="fill:#ff0000;stroke:#000000;stroke-width:2.0;" x="0.0" xlink:href="#C0_0_a811fe30f3" y="72.0"/>
    </g>
    <g clip-path="url(#p1bffca34e9)">
     <use style="fill:#ffffff;stroke:#000000;stroke-width:2.0;" x="0.0" xlink:href="#C0_1_5e9f00311c" y="72.0"/>
    </g>
    <g clip-path="url(#p1bffca34e9)">
     <use style="fill:#ffffff;stroke:#000000;stroke-width:2.0;" x="0.0" xlink:href="#C0_2_e38ac7c6c9" y="72.0"/>
    </g>
   </g>
  </g>
 </g>
 <defs>
  <clipPath id="p1bffca34e9">
   <rect height="72.0" width="72.0" x="0.0" y="0.0"/>
  </clipPath>
 </defs>
</svg>
