<?xml version="1.0" encoding="utf-8" standalone="no"?>
<!DOCTYPE svg PUBLIC "-//W3C//DTD SVG 1.1//EN"
  "http://www.w3.org/Graphics/SVG/1.1/DTD/svg11.dtd">
<!-- Created with matplotlib (http://matplotlib.org/) -->
<svg height="72pt" version="1.1" viewBox="0 0 72 72" width="72pt" xmlns="http://www.w3.org/2000/svg" xmlns:xlink="http://www.w3.org/1999/xlink">
 <defs>
  <style type="text/css">
*{stroke-linecap:butt;stroke-linejoin:round;}
  </style>
 </defs>
 <g id="figure_1">
  <g id="patch_1">
   <path d="
M0 72
L72 72
L72 0
L0 0
z
" style="fill:none;"/>
  </g>
  <g id="axes_1">
   <g id="PatchCollection_1">
    <defs>
     <path d="
M36 -7.5
C43.5583 -7.5 50.808 -10.5029 56.1525 -15.8475
C61.4971 -21.192 64.5 -28.4417 64.5 -36
C64.5 -43.5583 61.4971 -50.808 56.1525 -56.1525
C50.808 -61.4971 43.5583 -64.5 36 -64.5
C28.4417 -64.5 21.192 -61.4971 15.8475 -56.1525
C10.5029 -50.808 7.5 -43.5583 7.5 -36
C7.5 -28.4417 10.5029 -21.192 15.8475 -15.8475
C21.192 -10.5029 28.4417 -7.5 36 -7.5
z
" id="C0_0_a811fe30f3"/>
     <path d="
M8.64775 -28.3395
L8.87659 -28.2776
L9.10512 -28.2195
L9.33332 -28.165
L9.56119 -28.1139
L9.78871 -28.0661
L10.0159 -28.0215
L10.2427 -27.9799
L10.4692 -27.9413
L10.6953 -27.9055
L10.9211 -27.8724
L11.1465 -27.842
L11.3716 -27.8141
L11.5965 -27.7886
L11.821 -27.7655
L12.0452 -27.7446
L12.2693 -27.726
L12.493 -27.7095
L12.7166 -27.6951
L12.94 -27.6826
L13.1632 -27.6722
L13.3862 -27.6636
L13.6092 -27.6569
L13.8321 -27.652
L14.0549 -27.6488
L14.2778 -27.6473
L14.5006 -27.6476
L14.7235 -27.6494
L14.9464 -27.6529
L15.1695 -27.6579
L15.3927 -27.6645
L15.6161 -27.6726
L15.8397 -27.6822
L16.0636 -27.6933
L16.2878 -27.7058
L16.5123 -27.7198
L16.7372 -27.7352
L16.9625 -27.7519
L17.4144 -27.7701
L17.6412 -27.7897
L17.8685 -27.8106
L18.0965 -27.8329
L18.3251 -27.8565
L18.5544 -27.8815
L18.7844 -27.9079
L19.0153 -27.9356
L19.2469 -27.9647
L19.4794 -27.9951
L19.7129 -28.0269
L19.9473 -28.06
L20.1826 -28.0946
L20.4191 -28.1305
L20.6566 -28.1677
L20.8953 -28.2064
L21.1351 -28.2465
L21.3761 -28.2881
L21.6184 -28.331
L21.8621 -28.3755
L22.107 -28.4214
L22.3534 -28.4688
L22.6012 -28.5177
L22.8504 -28.5682
L23.1012 -28.6202
L23.3535 -28.6738
L23.6074 -28.7291
L23.863 -28.7859
L24.1202 -28.8445
L24.3792 -28.9047
L24.6398 -28.9667
L24.9023 -29.0305
L25.1665 -29.0961
L25.4326 -29.1635
L25.7005 -29.2328
L25.9703 -29.304
L26.242 -29.3772
L26.5157 -29.4524
L26.7912 -29.5296
L27.0687 -29.6089
L27.3482 -29.6904
L27.6296 -29.7741
L27.913 -29.8601
L28.1983 -29.9483
L28.4856 -30.0389
L28.7748 -30.1319
L29.0659 -30.2274
L29.3588 -30.3254
L29.6536 -30.4261
L29.9502 -30.5293
L30.2484 -30.6353
L30.5484 -30.7442
L30.8499 -30.8558
L31.1529 -30.9704
L31.4573 -31.0881
L31.763 -31.2088
L32.0699 -31.3327
L32.3778 -31.4598
L32.6865 -31.5903
L32.996 -31.7242
L33.306 -31.8616
L33.6164 -32.0026
L33.9268 -32.1473
L34.2371 -32.2958
L34.5469 -32.4482
L34.8561 -32.6046
L35.1643 -32.7652
L35.4711 -32.9299
L35.7763 -33.099
L36.0794 -33.2725
L36.38 -33.4506
L36.6777 -33.6335
L36.9721 -33.8211
L37.2626 -34.0137
L37.5488 -34.2114
L37.83 -34.4144
L38.1059 -34.6227
L38.3757 -34.8365
L38.639 -35.0559
L38.895 -35.2811
L39.1433 -35.5122
L39.3832 -35.7493
L39.6141 -35.9924
L39.8355 -36.2417
L40.0468 -36.4973
L40.2474 -36.7591
L40.437 -37.0272
L40.615 -37.3015
L40.781 -37.5821
L40.9349 -37.8689
L41.0762 -38.1616
L41.2048 -38.4602
L41.3207 -38.7644
L41.4238 -39.074
L41.5142 -39.3887
L41.5919 -39.7083
L41.6571 -40.0323
L41.7101 -40.3604
L41.7511 -40.6922
L41.7805 -41.0273
L41.7987 -41.3653
L41.806 -41.7057
L41.8028 -42.0482
L41.7896 -42.3922
L41.7668 -42.7374
L41.7349 -43.0834
L41.6943 -43.4298
L41.6453 -43.7762
L41.5886 -44.1222
L41.5244 -44.4675
L41.4531 -44.8117
L41.3753 -45.1546
L41.2911 -45.4959
L41.2011 -45.8353
L41.1054 -46.1726
L41.0046 -46.5074
L40.8988 -46.8397
L40.7884 -47.1693
L40.6736 -47.4959
L40.5548 -47.8194
L40.4321 -48.1398
L40.3058 -48.4567
L40.1761 -48.7703
L40.0433 -49.0803
L39.9074 -49.3867
L39.7688 -49.6894
L39.6276 -49.9883
L39.4839 -50.2835
L39.3379 -50.5748
L39.1897 -50.8624
L39.0395 -51.146
L38.8873 -51.4258
L38.7334 -51.7016
L38.5778 -51.9736
L38.4206 -52.2418
L38.2618 -52.5061
L38.1017 -52.7665
L37.9402 -53.0232
L37.7774 -53.276
L37.6134 -53.5251
L37.4483 -53.7705
L37.282 -54.0122
L37.1147 -54.2503
L36.9464 -54.4847
L36.7772 -54.7156
L36.6069 -54.9429
L36.4358 -55.1668
L36.2638 -55.3873
L36.0909 -55.6044
L35.9172 -55.8181
L35.7426 -56.0286
L35.5673 -56.2358
L35.3911 -56.4398
L35.2141 -56.6406
L35.0363 -56.8384
L34.8577 -57.0331
L34.6783 -57.2247
L34.4981 -57.4134
L34.317 -57.5992
L34.1351 -57.7821
L33.9524 -57.9621
L33.7688 -58.1393
L33.5843 -58.3138
L33.399 -58.4855
L33.2127 -58.6545
L33.0254 -58.8208
L32.8372 -58.9846
L32.648 -59.1457
L32.4577 -59.3042
L32.2664 -59.4602
L32.074 -59.6136
L31.8805 -59.7646
L31.6858 -59.913
L31.4899 -60.059
L31.2928 -60.2026
L31.0943 -60.3437
L30.8946 -60.4824
L30.6934 -60.6187
L30.4909 -60.7526
L30.2868 -60.8841
L30.0813 -61.0131
L29.8742 -61.1398
L29.6654 -61.2641
L29.4549 -61.3859
L29.2428 -61.5054
L29.0288 -61.6224
L28.8129 -61.7369
L28.5951 -61.849
L28.3754 -61.9586
L28.1535 -62.0657
L27.9296 -62.1702
L27.7034 -62.2721
L27.475 -62.3714
L27.2442 -62.468
L27.0111 -62.5619
L26.7754 -62.6531
L26.5371 -62.7414
L26.0518 -62.8268
L25.5872 -62.7074
L25.1258 -62.5297
L24.6677 -62.3439
L24.213 -62.1501
L23.7619 -61.9484
L23.3146 -61.7387
L22.8711 -61.5212
L22.4317 -61.2959
L21.9963 -61.0629
L21.5652 -60.8223
L21.1386 -60.5741
L20.7164 -60.3185
L20.2989 -60.0554
L19.8862 -59.785
L19.4784 -59.5073
L19.0756 -59.2225
L18.678 -58.9307
L18.2857 -58.6318
L17.8987 -58.326
L17.5173 -58.0135
L17.1415 -57.6942
L16.7714 -57.3684
L16.4072 -57.036
L16.049 -56.6972
L15.6968 -56.3521
L15.3509 -56.0008
L15.0112 -55.6434
L14.6779 -55.28
L14.3511 -54.9108
L14.0309 -54.5358
L13.7174 -54.1551
L13.4107 -53.769
L13.1109 -53.3774
L12.818 -52.9805
L12.5322 -52.5784
L12.2535 -52.1713
L11.9821 -51.7593
L11.718 -51.3425
L11.4613 -50.921
L11.2121 -50.4949
L10.9704 -50.0644
L10.7363 -49.6297
L10.51 -49.1908
L10.2914 -48.7479
L10.0806 -48.3011
L9.87773 -47.8505
L9.68281 -47.3963
L9.49591 -46.9387
L9.31709 -46.4778
L9.14639 -46.0136
L8.98387 -45.5464
L8.82958 -45.0763
L8.68357 -44.6034
L8.54588 -44.1279
L8.41655 -43.6499
L8.29563 -43.1696
L8.18314 -42.6871
L8.07913 -42.2026
L7.98362 -41.7162
L7.89664 -41.228
L7.81823 -40.7383
L7.7484 -40.2471
L7.68717 -39.7546
L7.63458 -39.261
L7.59062 -38.7663
L7.55531 -38.2709
L7.52867 -37.7747
L7.5107 -37.278
L7.50141 -36.7809
L7.5008 -36.2836
L7.50887 -35.7862
L7.52562 -35.2889
L7.55105 -34.7917
L7.58514 -34.295
L7.62788 -33.7987
L7.67927 -33.3031
L7.73929 -32.8084
L7.80791 -32.3146
L7.88512 -31.822
L7.9709 -31.3306
L8.06521 -30.8406
L8.16803 -30.3522
L8.27933 -29.8656
L8.39907 -29.3808
z
" id="C0_1_87f3088f5c"/>
     <path d="
M45.6321 -9.28959
L45.7643 -9.50829
L45.8949 -9.72925
L46.0238 -9.95251
L46.1511 -10.1781
L46.2768 -10.4061
L46.4009 -10.6365
L46.5235 -10.8694
L46.6445 -11.1049
L46.7641 -11.3429
L46.8821 -11.5835
L46.9987 -11.8268
L47.1139 -12.0728
L47.2275 -12.3216
L47.3398 -12.5732
L47.4507 -12.8276
L47.5601 -13.085
L47.6682 -13.3453
L47.7748 -13.6086
L47.8801 -13.875
L47.984 -14.1445
L48.0866 -14.4171
L48.1877 -14.6929
L48.2876 -14.9719
L48.3861 -15.2541
L48.4832 -15.5396
L48.579 -15.8285
L48.6736 -16.1207
L48.7667 -16.4162
L48.8586 -16.7152
L48.9492 -17.0175
L49.0385 -17.3233
L49.1266 -17.6325
L49.2134 -17.9451
L49.299 -18.2611
L49.3834 -18.5805
L49.4666 -18.9033
L49.5487 -19.2295
L49.6297 -19.5589
L49.7096 -19.8917
L49.7886 -20.2276
L49.8666 -20.5667
L49.9437 -20.9089
L50.0201 -21.254
L50.0957 -21.602
L50.1708 -21.9528
L50.2454 -22.3062
L50.3196 -22.6621
L50.3936 -23.0204
L50.4675 -23.3808
L50.5415 -23.7431
L50.6158 -24.1073
L50.6906 -24.4729
L50.7662 -24.8399
L50.8427 -25.2079
L50.9205 -25.5767
L50.9998 -25.946
L51.081 -26.3154
L51.1643 -26.6847
L51.2502 -27.0535
L51.3389 -27.4215
L51.4309 -27.7883
L51.5266 -28.1536
L51.6262 -28.5169
L51.7303 -28.878
L51.8392 -29.2365
L51.9533 -29.592
L52.0729 -29.9442
L52.1983 -30.2928
L52.3299 -30.6374
L52.4679 -30.9778
L52.6124 -31.3139
L52.7637 -31.6452
L52.9217 -31.9718
L53.0866 -32.2934
L53.2583 -32.6099
L53.4366 -32.9214
L53.6214 -33.2277
L53.8125 -33.529
L54.0095 -33.8251
L54.2122 -34.1163
L54.4202 -34.4025
L54.633 -34.684
L54.8503 -34.9608
L55.0715 -35.233
L55.2963 -35.5008
L55.5242 -35.7644
L55.7548 -36.0239
L55.9875 -36.2794
L56.2219 -36.5312
L56.4577 -36.7792
L56.6944 -37.0237
L56.9316 -37.2649
L57.169 -37.5027
L57.4063 -37.7375
L57.643 -37.9691
L57.879 -38.1979
L58.1139 -38.4238
L58.3475 -38.6469
L58.5796 -38.8674
L58.8099 -39.0854
L59.0383 -39.3008
L59.2646 -39.5139
L59.4886 -39.7246
L59.7101 -39.933
L59.9292 -40.1393
L60.1457 -40.3433
L60.3594 -40.5453
L60.5703 -40.7453
L60.7784 -40.9433
L60.9835 -41.1394
L61.1856 -41.3336
L61.3848 -41.5261
L61.5809 -41.7167
L61.7739 -41.9057
L61.9639 -42.093
L62.1508 -42.2786
L62.3345 -42.4628
L62.5153 -42.6454
L62.6929 -42.8265
L62.8675 -43.0062
L63.039 -43.1845
L63.2075 -43.3615
L63.6052 -43.5373
L63.7247 -43.0853
L63.8357 -42.6025
L63.9382 -42.1176
L64.0322 -41.6309
L64.1177 -41.1424
L64.1946 -40.6524
L64.2629 -40.161
L64.3227 -39.6683
L64.3737 -39.1745
L64.4162 -38.6797
L64.45 -38.1841
L64.4751 -37.6878
L64.4916 -37.191
L64.4993 -36.6939
L64.4984 -36.1966
L64.4888 -35.6991
L64.4706 -35.2018
L64.4436 -34.7047
L64.408 -34.2081
L64.3637 -33.7119
L64.3108 -33.2165
L64.2493 -32.7219
L64.1792 -32.2283
L64.1005 -31.7359
L64.0132 -31.2447
L63.9174 -30.755
L63.8131 -30.2669
L63.7003 -29.7806
L63.5791 -29.2961
L63.4495 -28.8137
L63.3115 -28.3335
L63.1652 -27.8556
L63.0106 -27.3802
L62.8478 -26.9074
L62.6768 -26.4374
L62.4977 -25.9703
L62.3106 -25.5062
L62.1154 -25.0454
L61.9122 -24.5878
L61.7012 -24.1338
L61.4823 -23.6834
L61.2557 -23.2367
L61.0214 -22.7939
L60.7794 -22.3552
L60.5299 -21.9206
L60.273 -21.4902
L60.0086 -21.0644
L59.7369 -20.643
L59.458 -20.2263
L59.172 -19.8145
L58.8789 -19.4075
L58.5788 -19.0057
L58.2718 -18.609
L57.9581 -18.2175
L57.6377 -17.8316
L57.3106 -17.4511
L56.9771 -17.0763
L56.6372 -16.7073
L56.2911 -16.3441
L55.9387 -15.9869
L55.5802 -15.6358
L55.2158 -15.291
L54.8456 -14.9524
L54.4696 -14.6202
L54.088 -14.2946
L53.7008 -13.9756
L53.3083 -13.6632
L52.9105 -13.3577
L52.5076 -13.0591
L52.0996 -12.7675
L51.6867 -12.4829
L51.269 -12.2055
L50.8467 -11.9354
L50.4199 -11.6725
L49.9887 -11.4171
L49.5532 -11.1692
L49.1136 -10.9289
L48.6699 -10.6962
L48.2225 -10.4711
L47.7713 -10.2539
L47.3165 -10.0445
L46.8583 -9.84304
L46.3967 -9.64952
z
" id="C0_2_d98266c344"/>
    </defs>
    <g clip-path="url(#p1bffca34e9)">
     <use style="fill:#ff0000;stroke:#000000;stroke-width:2.0;" x="0.0" xlink:href="#C0_0_a811fe30f3" y="72.0"/>
    </g>
    <g clip-path="url(#p1bffca34e9)">
     <use style="fill:#ffffff;stroke:#000000;stroke-width:2.0;" x="0.0" xlink:href="#C0_1_87f3088f5c" y="72.0"/>
    </g>
    <g clip-path="url(#p1bffca34e9)">
     <use style="fill:#ffffff;stroke:#000000;stroke-width:2.0;" x="0.0" xlink:href="#C0_2_d98266c344" y="72.0"/>
    </g>
   </g>
  </g>
 </g>
 <defs>
  <clipPath id="p1bffca34e9">
   <rect height="72.0" width="72.0" x="0.0" y="0.0"/>
  </clipPath>
 </defs>
</svg>
