<?xml version="1.0" encoding="utf-8" standalone="no"?>
<!DOCTYPE svg PUBLIC "-//W3C//DTD SVG 1.1//EN"
  "http://www.w3.org/Graphics/SVG/1.1/DTD/svg11.dtd">
<!-- Created with matplotlib (http://matplotlib.org/) -->
<svg height="72pt" version="1.1" viewBox="0 0 72 72" width="72pt" xmlns="http://www.w3.org/2000/svg" xmlns:xlink="http://www.w3.org/1999/xlink">
 <defs>
  <style type="text/css">
*{stroke-linecap:butt;stroke-linejoin:round;}
  </style>
 </defs>
 <g id="figure_1">
  <g id="patch_1">
   <path d="
M0 72
L72 72
L72 0
L0 0
z
" style="fill:none;"/>
  </g>
  <g id="axes_1">
   <g id="PatchCollection_1">
    <defs>
     <path d="
M36 -7.5
C43.5583 -7.5 50.808 -10.5029 56.1525 -15.8475
C61.4971 -21.192 64.5 -28.4417 64.5 -36
C64.5 -43.5583 61.4971 -50.808 56.1525 -56.1525
C50.808 -61.4971 43.5583 -64.5 36 -64.5
C28.4417 -64.5 21.192 -61.4971 15.8475 -56.1525
C10.5029 -50.808 7.5 -43.5583 7.5 -36
C7.5 -28.4417 10.5029 -21.192 15.8475 -15.8475
C21.192 -10.5029 28.4417 -7.5 36 -7.5
z
" id="C0_0_a811fe30f3"/>
     <path d="
M59.2573 -52.3355
L59.1991 -52.0429
L59.1216 -51.7654
L59.0252 -51.5031
L58.9105 -51.2559
L58.7783 -51.0236
L58.6293 -50.8059
L58.4644 -50.6021
L58.2845 -50.4118
L58.0904 -50.2342
L57.8831 -50.0685
L57.6637 -49.914
L57.4329 -49.7697
L57.1917 -49.6349
L56.941 -49.5088
L56.6816 -49.3904
L56.4145 -49.2791
L56.1403 -49.1742
L55.8597 -49.0749
L55.5735 -48.9807
L55.2824 -48.891
L54.9868 -48.8051
L54.6875 -48.7227
L54.3848 -48.6433
L54.0793 -48.5665
L53.7715 -48.492
L53.4617 -48.4194
L53.1504 -48.3484
L52.8378 -48.2788
L52.5243 -48.2104
L52.2103 -48.143
L51.8959 -48.0764
L51.5814 -48.0104
L51.267 -47.9449
L50.953 -47.8799
L50.6395 -47.8151
L50.3267 -47.7505
L50.0148 -47.6861
L49.7038 -47.6217
L49.394 -47.5574
L49.0853 -47.4929
L48.778 -47.4284
L48.472 -47.3638
L48.1675 -47.299
L47.8645 -47.2341
L47.5631 -47.1689
L47.2634 -47.1035
L46.9652 -47.0379
L46.6688 -46.9721
L46.374 -46.906
L46.081 -46.8396
L45.7897 -46.773
L45.5002 -46.7061
L45.2124 -46.6389
L44.9263 -46.5714
L44.6419 -46.5037
L44.3593 -46.4356
L44.0783 -46.3673
L43.799 -46.2987
L43.5213 -46.2297
L43.2453 -46.1605
L42.9709 -46.091
L42.698 -46.0211
L42.4266 -45.951
L42.1567 -45.8805
L41.8883 -45.8098
L41.6213 -45.7387
L41.3557 -45.6673
L41.0914 -45.5956
L40.8284 -45.5235
L40.5666 -45.4511
L40.3061 -45.3784
L40.0467 -45.3053
L39.7884 -45.2319
L39.5312 -45.1581
L39.275 -45.0839
L39.0198 -45.0093
L38.7655 -44.9344
L38.5121 -44.8591
L38.2596 -44.7834
L38.0078 -44.7072
L37.7567 -44.6306
L37.5063 -44.5536
L37.2566 -44.4762
L37.0074 -44.3983
L36.7587 -44.3199
L36.5106 -44.241
L36.2629 -44.1616
L36.0155 -44.0817
L35.7685 -44.0013
L35.5218 -43.9204
L35.029 -43.8388
L34.7828 -43.7568
L34.5368 -43.6741
L34.2907 -43.5908
L34.0446 -43.5069
L33.7985 -43.4223
L33.5523 -43.3371
L33.3059 -43.2513
L33.0593 -43.1647
L32.8124 -43.0774
L32.5652 -42.9894
L32.3177 -42.9006
L32.0697 -42.811
L31.8213 -42.7207
L31.5725 -42.6295
L31.323 -42.5375
L31.073 -42.4447
L30.8223 -42.351
L30.571 -42.2563
L30.3189 -42.1608
L30.0661 -42.0643
L29.8124 -41.9668
L29.5579 -41.8683
L29.3025 -41.7689
L29.0461 -41.6684
L28.7888 -41.5668
L28.5304 -41.4642
L28.271 -41.3604
L28.0105 -41.2556
L27.7488 -41.1496
L27.486 -41.0424
L27.2219 -40.9341
L26.9567 -40.8245
L26.6901 -40.7137
L26.4223 -40.6017
L26.1531 -40.4885
L25.8826 -40.3739
L25.6107 -40.2581
L25.3374 -40.141
L25.0628 -40.0226
L24.7867 -39.9029
L24.5092 -39.7819
L24.2302 -39.6595
L23.9498 -39.5359
L23.6679 -39.4109
L23.3846 -39.2846
L23.0999 -39.1571
L22.8137 -39.0283
L22.5261 -38.8982
L22.2371 -38.767
L21.9468 -38.6346
L21.6551 -38.501
L21.3621 -38.3664
L21.0678 -38.2308
L20.7723 -38.0943
L20.4757 -37.9569
L20.178 -37.8188
L19.8792 -37.6801
L19.5794 -37.5409
L19.2788 -37.4013
L18.9773 -37.2615
L18.6751 -37.1217
L18.3724 -36.9821
L18.0691 -36.843
L17.7654 -36.7045
L17.4614 -36.567
L17.1573 -36.4309
L16.8531 -36.2963
L16.5491 -36.1639
L16.2454 -36.0339
L15.9421 -35.9068
L15.6394 -35.7832
L15.3374 -35.6637
L15.0364 -35.5489
L14.7365 -35.4394
L14.4378 -35.336
L14.1407 -35.2396
L13.8452 -35.1509
L13.5517 -35.0709
L13.2603 -35.0005
L12.9712 -34.9408
L12.6846 -34.8929
L12.401 -34.8578
L12.1204 -34.8368
L11.8431 -34.8308
L11.5696 -34.8411
L11.3 -34.8686
L11.0347 -34.9145
L10.774 -34.9797
L10.5184 -35.0649
L10.2682 -35.1708
L10.0238 -35.2981
L9.78556 -35.4469
L9.55402 -35.6176
L9.32956 -35.8102
L9.11262 -36.0243
L8.90362 -36.2597
L8.70299 -36.516
L8.51113 -36.7923
L8.32843 -37.088
L8.15527 -37.4023
L7.99198 -37.7341
L7.83889 -38.0826
L7.69629 -38.4466
L7.69464 -38.8252
L7.75699 -39.3252
L7.82793 -39.8187
L7.90746 -40.311
L7.99555 -40.802
L8.09216 -41.2916
L8.19728 -41.7795
L8.31087 -42.2657
L8.43289 -42.75
L8.5633 -43.2322
L8.70208 -43.7122
L8.84917 -44.1898
L9.00453 -44.665
L9.16811 -45.1375
L9.33987 -45.6073
L9.51975 -46.0741
L9.70769 -46.5378
L9.90364 -46.9984
L10.1075 -47.4556
L10.3193 -47.9093
L10.5389 -48.3593
L10.7663 -48.8057
L11.0014 -49.2481
L11.244 -49.6864
L11.4942 -50.1206
L11.7519 -50.5505
L12.017 -50.976
L12.2893 -51.3969
L12.5689 -51.8131
L12.8557 -52.2245
L13.1494 -52.631
L13.4502 -53.0324
L13.7578 -53.4286
L14.0722 -53.8195
L14.3932 -54.2049
L14.7209 -54.5849
L15.055 -54.9591
L15.3955 -55.3276
L15.7423 -55.6902
L16.0952 -56.0468
L16.4542 -56.3973
L16.8192 -56.7416
L17.19 -57.0795
L17.5665 -57.4111
L17.9487 -57.7361
L18.3364 -58.0545
L18.7294 -58.3662
L19.1277 -58.671
L19.5311 -58.969
L19.9396 -59.26
L20.3529 -59.5438
L20.771 -59.8205
L21.1938 -60.09
L21.621 -60.3521
L22.0527 -60.6068
L22.4885 -60.854
L22.9286 -61.0936
L23.3725 -61.3256
L23.8204 -61.5499
L24.2719 -61.7664
L24.727 -61.975
L25.1856 -62.1757
L25.6474 -62.3685
L26.1124 -62.5532
L26.5804 -62.7299
L27.0513 -62.8984
L27.5249 -63.0586
L28.0011 -63.2107
L28.4797 -63.3545
L28.9606 -63.4899
L29.4437 -63.617
L29.9287 -63.7356
L30.4156 -63.8458
L30.9042 -63.9475
L31.3944 -64.0407
L31.8859 -64.1254
L32.3787 -64.2015
L32.8726 -64.269
L33.3675 -64.3279
L33.8632 -64.3782
L34.3595 -64.4198
L34.8563 -64.4527
L35.3535 -64.477
L35.8508 -64.4927
L36.3483 -64.4996
L36.8456 -64.4979
L37.3426 -64.4875
L37.8392 -64.4684
L38.3353 -64.4406
L38.8307 -64.4042
L39.3252 -64.3591
L39.8187 -64.3054
L40.311 -64.243
L40.802 -64.1721
L41.2916 -64.0925
L41.7795 -64.0045
L42.2657 -63.9078
L42.75 -63.8027
L43.2322 -63.6891
L43.7122 -63.5671
L44.1898 -63.4367
L44.665 -63.2979
L45.1375 -63.1508
L45.6073 -62.9955
L46.0741 -62.8319
L46.5378 -62.6601
L46.9984 -62.4803
L47.4556 -62.2923
L47.9093 -62.0964
L48.3593 -61.8925
L48.8057 -61.6807
L49.2481 -61.4611
L49.6864 -61.2337
L50.1206 -60.9986
L50.5505 -60.756
L50.976 -60.5058
L51.3969 -60.2481
L51.8131 -59.983
L52.2245 -59.7107
L52.631 -59.4311
L53.0324 -59.1443
L53.4286 -58.8506
L53.8195 -58.5498
L54.2049 -58.2422
L54.5849 -57.9278
L54.9591 -57.6068
L55.3276 -57.2791
L55.6902 -56.945
L56.0468 -56.6045
L56.3973 -56.2577
L56.7416 -55.9048
L57.0795 -55.5458
L57.4111 -55.1808
L57.7361 -54.81
L58.0545 -54.4335
L58.3662 -54.0513
L58.671 -53.6636
L58.969 -53.2706
z
" id="C0_1_bf4fae968c"/>
     <path d="
M64.2026 -32.8091
L63.9877 -32.4504
L63.7696 -32.0886
L63.5481 -31.7247
L63.3231 -31.3596
L63.0947 -30.9942
L62.8629 -30.6291
L62.6277 -30.265
L62.3891 -29.9027
L62.1472 -29.5425
L61.9021 -29.1851
L61.654 -28.8308
L61.4029 -28.4801
L61.1489 -28.1333
L60.8923 -27.7906
L60.633 -27.4524
L60.3714 -27.1189
L60.1075 -26.7902
L59.8415 -26.4665
L59.5735 -26.148
L59.3036 -25.8347
L59.0321 -25.5268
L58.759 -25.2243
L58.4845 -24.9272
L58.2087 -24.6355
L57.9317 -24.3493
L57.6537 -24.0686
L57.3747 -23.7933
L57.0949 -23.5235
L56.8143 -23.259
L56.5331 -22.9999
L56.2513 -22.7461
L55.9691 -22.4975
L55.6865 -22.2541
L55.4035 -22.0158
L55.1202 -21.7825
L54.8368 -21.5542
L54.5532 -21.3307
L54.2694 -21.1121
L53.9856 -20.8982
L53.7018 -20.6889
L53.4179 -20.4842
L53.1341 -20.2839
L52.8503 -20.0881
L52.5666 -19.8965
L52.283 -19.7092
L51.9994 -19.526
L51.716 -19.3469
L51.4326 -19.1718
L51.1494 -19.0006
L50.8662 -18.8332
L50.5831 -18.6696
L50.3001 -18.5097
L50.0172 -18.3534
L49.7343 -18.2006
L49.4515 -18.0514
L49.1687 -17.9055
L48.8859 -17.763
L48.603 -17.6238
L48.3201 -17.4878
L48.0372 -17.355
L47.7541 -17.2253
L47.4709 -17.0987
L47.1875 -16.9752
L46.9039 -16.8545
L46.62 -16.7369
L46.3359 -16.6221
L46.0515 -16.5101
L45.7667 -16.401
L45.4815 -16.2946
L45.1959 -16.1909
L44.9098 -16.09
L44.6232 -15.9917
L44.336 -15.8961
L44.0482 -15.8031
L43.7597 -15.7127
L43.4706 -15.6249
L43.1806 -15.5397
L42.8899 -15.457
L42.5984 -15.3768
L42.3059 -15.2992
L42.0125 -15.224
L41.718 -15.1514
L41.4226 -15.0813
L41.126 -15.0137
L40.8282 -14.9485
L40.5293 -14.8859
L40.2291 -14.8259
L39.9276 -14.7683
L39.6247 -14.7133
L39.3203 -14.6608
L39.0145 -14.6109
L38.7072 -14.5635
L38.3983 -14.5188
L38.0877 -14.4767
L37.7755 -14.4372
L37.4615 -14.4005
L37.1457 -14.3664
L36.8281 -14.3351
L36.5085 -14.3066
L36.187 -14.2809
L35.8635 -14.2581
L35.538 -14.2382
L35.2104 -14.2212
L34.8806 -14.2073
L34.5486 -14.1964
L34.2145 -14.1887
L33.878 -14.1841
L33.5392 -14.1828
L33.1981 -14.1847
L32.8546 -14.1901
L32.5087 -14.1989
L32.1604 -14.2111
L31.8096 -14.227
L31.4563 -14.2465
L31.1006 -14.2697
L30.7423 -14.2968
L30.3815 -14.3277
L30.0182 -14.3626
L29.6524 -14.4015
L29.284 -14.4446
L28.9132 -14.4918
L28.5399 -14.5433
L28.1642 -14.5992
L27.7861 -14.6595
L27.4056 -14.7242
L27.0229 -14.7936
L26.6379 -14.8676
L26.2508 -14.9462
L25.8616 -15.0296
L25.4704 -15.1178
L25.0774 -15.2107
L24.6826 -15.3085
L24.2862 -15.4112
L23.8884 -15.5186
L23.4893 -15.6309
L23.089 -15.7479
L22.6879 -15.8696
L22.286 -15.9959
L21.8836 -16.1267
L21.4809 -16.2619
L21.0783 -16.4012
L20.6759 -16.5445
L20.274 -16.6914
L19.873 -16.8417
L19.4732 -16.9951
L19.0748 -17.1511
L18.6784 -17.3093
L18.2841 -17.4691
L17.8925 -17.63
L17.5039 -17.7913
L17.1186 -17.9522
L16.7373 -18.1121
L16.3601 -18.2699
L15.9876 -18.4249
L15.6203 -18.5759
L15.2585 -18.7219
L14.9027 -18.8618
L14.5533 -18.9945
L14.2107 -19.1188
L13.8753 -19.2334
L13.5476 -19.3373
L13.2278 -19.4294
L13.1028 -19.5085
L13.4024 -19.0304
L13.709 -18.6334
L14.0223 -18.2416
L14.3423 -17.8553
L14.6689 -17.4745
L15.002 -17.0993
L15.3415 -16.7299
L15.6873 -16.3664
L16.0393 -16.0089
L16.3974 -15.6574
L16.7614 -15.3121
L17.1313 -14.9732
L17.507 -14.6406
L17.8883 -14.3146
L18.2751 -13.9951
L18.6673 -13.6824
L19.0647 -13.3764
L19.4674 -13.0774
L19.875 -12.7853
L20.2876 -12.5003
L20.705 -12.2225
L21.127 -11.9519
L21.5536 -11.6886
L21.9845 -11.4327
L22.4198 -11.1843
L22.8591 -10.9435
L23.3025 -10.7103
L23.7497 -10.4848
L24.2007 -10.2671
L24.6552 -10.0573
L25.1133 -9.85528
L25.5746 -9.66126
L26.0391 -9.47528
L26.5066 -9.29737
L26.9771 -9.12759
L27.4503 -8.966
L27.926 -8.81265
L28.4043 -8.66758
L28.8849 -8.53083
L29.3676 -8.40245
L29.8523 -8.28248
L30.339 -8.17095
L30.8273 -8.06789
L31.3172 -7.97335
L31.8086 -7.88734
L32.3012 -7.8099
L32.7949 -7.74104
L33.2897 -7.68079
L33.7852 -7.62917
L34.2814 -7.58619
L34.7782 -7.55186
L35.2753 -7.5262
L35.7727 -7.50921
L36.2701 -7.50091
L36.7674 -7.50128
L37.2645 -7.51033
L37.7612 -7.52807
L38.2574 -7.55447
L38.7529 -7.58954
L39.2475 -7.63326
L39.7412 -7.68563
L40.2337 -7.74662
L40.7249 -7.81621
L41.2147 -7.89439
L41.7029 -7.98114
L42.1894 -8.07641
L42.674 -8.1802
L43.1565 -8.29245
L43.6369 -8.41315
L44.1149 -8.54225
L44.5905 -8.67971
L45.0634 -8.8255
L45.5336 -8.97956
L46.0009 -9.14186
L46.4652 -9.31233
L46.9262 -9.49094
L47.3839 -9.67762
L47.8382 -9.87231
L48.2888 -10.075
L48.7358 -10.2855
L49.1788 -10.5039
L49.6178 -10.7301
L50.0527 -10.9639
L50.4832 -11.2054
L50.9094 -11.4544
L51.3311 -11.7109
L51.748 -11.9748
L52.1602 -12.2461
L52.5674 -12.5245
L52.9696 -12.8101
L53.3666 -13.1028
L53.7584 -13.4024
L54.1447 -13.709
L54.5255 -14.0223
L54.9007 -14.3423
L55.2701 -14.6689
L55.6336 -15.002
L55.9911 -15.3415
L56.3426 -15.6873
L56.6879 -16.0393
L57.0268 -16.3974
L57.3594 -16.7614
L57.6854 -17.1313
L58.0049 -17.507
L58.3176 -17.8883
L58.6236 -18.2751
L58.9226 -18.6673
L59.2147 -19.0647
L59.4997 -19.4674
L59.7775 -19.875
L60.0481 -20.2876
L60.3114 -20.705
L60.5673 -21.127
L60.8157 -21.5536
L61.0565 -21.9845
L61.2897 -22.4198
L61.5152 -22.8591
L61.7329 -23.3025
L61.9427 -23.7497
L62.1447 -24.2007
L62.3387 -24.6552
L62.5247 -25.1133
L62.7026 -25.5746
L62.8724 -26.0391
L63.034 -26.5066
L63.1873 -26.9771
L63.3324 -27.4503
L63.4692 -27.926
L63.5975 -28.4043
L63.7175 -28.8849
L63.8291 -29.3676
L63.9321 -29.8523
L64.0267 -30.339
L64.1127 -30.8273
L64.1901 -31.3172
L64.259 -31.8086
z
" id="C0_2_e99ad209ef"/>
    </defs>
    <g clip-path="url(#p1bffca34e9)">
     <use style="fill:#ffffff;stroke:#000000;stroke-width:2.0;" x="0.0" xlink:href="#C0_0_a811fe30f3" y="72.0"/>
    </g>
    <g clip-path="url(#p1bffca34e9)">
     <use style="fill:#ff0000;stroke:#000000;stroke-width:2.0;" x="0.0" xlink:href="#C0_1_bf4fae968c" y="72.0"/>
    </g>
    <g clip-path="url(#p1bffca34e9)">
     <use style="fill:#ff0000;stroke:#000000;stroke-width:2.0;" x="0.0" xlink:href="#C0_2_e99ad209ef" y="72.0"/>
    </g>
   </g>
  </g>
 </g>
 <defs>
  <clipPath id="p1bffca34e9">
   <rect height="72.0" width="72.0" x="0.0" y="0.0"/>
  </clipPath>
 </defs>
</svg>
