<?xml version="1.0" encoding="utf-8" standalone="no"?>
<!DOCTYPE svg PUBLIC "-//W3C//DTD SVG 1.1//EN"
  "http://www.w3.org/Graphics/SVG/1.1/DTD/svg11.dtd">
<!-- Created with matplotlib (http://matplotlib.org/) -->
<svg height="72pt" version="1.1" viewBox="0 0 72 72" width="72pt" xmlns="http://www.w3.org/2000/svg" xmlns:xlink="http://www.w3.org/1999/xlink">
 <defs>
  <style type="text/css">
*{stroke-linecap:butt;stroke-linejoin:round;}
  </style>
 </defs>
 <g id="figure_1">
  <g id="patch_1">
   <path d="
M0 72
L72 72
L72 0
L0 0
z
" style="fill:none;"/>
  </g>
  <g id="axes_1">
   <g id="PatchCollection_1">
    <defs>
     <path d="
M36 -7.5
C43.5583 -7.5 50.808 -10.5029 56.1525 -15.8475
C61.4971 -21.192 64.5 -28.4417 64.5 -36
C64.5 -43.5583 61.4971 -50.808 56.1525 -56.1525
C50.808 -61.4971 43.5583 -64.5 36 -64.5
C28.4417 -64.5 21.192 -61.4971 15.8475 -56.1525
C10.5029 -50.808 7.5 -43.5583 7.5 -36
C7.5 -28.4417 10.5029 -21.192 15.8475 -15.8475
C21.192 -10.5029 28.4417 -7.5 36 -7.5
z
" id="C0_0_a811fe30f3"/>
     <path d="
M13.1373 -19.3607
L13.2522 -19.6079
L13.3912 -19.8362
L13.5526 -20.0469
L13.7348 -20.2412
L13.9359 -20.4205
L14.1542 -20.5863
L14.3879 -20.7402
L14.6353 -20.8835
L14.895 -21.0177
L15.1654 -21.1439
L15.4452 -21.2633
L15.7332 -21.377
L16.0284 -21.4858
L16.3296 -21.5906
L16.6359 -21.6921
L16.9466 -21.7908
L17.261 -21.8873
L17.5783 -21.9821
L17.8979 -22.0755
L18.2193 -22.1678
L18.5421 -22.2594
L18.8657 -22.3504
L19.1899 -22.4411
L19.5141 -22.5315
L19.8383 -22.6219
L20.1619 -22.7124
L20.4849 -22.8029
L20.8069 -22.8937
L21.1278 -22.9847
L21.4474 -23.076
L21.7655 -23.1676
L22.082 -23.2595
L22.3968 -23.3517
L22.7097 -23.4443
L23.0208 -23.5373
L23.3298 -23.6306
L23.6367 -23.7242
L23.9416 -23.8182
L24.2443 -23.9125
L24.5448 -24.0071
L24.843 -24.102
L25.1391 -24.1972
L25.4328 -24.2926
L25.7244 -24.3884
L26.0137 -24.4844
L26.3007 -24.5806
L26.5856 -24.677
L26.8682 -24.7737
L27.1486 -24.8706
L27.4269 -24.9677
L27.7031 -25.065
L27.9771 -25.1624
L28.2491 -25.2601
L28.5191 -25.3579
L28.7871 -25.4559
L29.0532 -25.5541
L29.3173 -25.6525
L29.5797 -25.751
L29.8402 -25.8497
L30.099 -25.9486
L30.356 -26.0477
L30.6115 -26.147
L30.8653 -26.2464
L31.1176 -26.3461
L31.3684 -26.4459
L31.6177 -26.546
L31.8656 -26.6463
L32.1123 -26.7468
L32.3576 -26.8476
L32.6017 -26.9486
L32.8447 -27.0499
L33.0865 -27.1515
L33.3273 -27.2534
L33.567 -27.3556
L33.8059 -27.4581
L34.0438 -27.5609
L34.2809 -27.6642
L34.5172 -27.7677
L34.7527 -27.8717
L34.9876 -27.9761
L35.2219 -28.0809
L35.4556 -28.1862
L35.6887 -28.2919
L35.9215 -28.3982
L36.1538 -28.5049
L36.3858 -28.6122
L36.8489 -28.7201
L37.0801 -28.8285
L37.3112 -28.9375
L37.5422 -29.0472
L37.7732 -29.1575
L38.0041 -29.2685
L38.2352 -29.3803
L38.4664 -29.4927
L38.6978 -29.6059
L38.9294 -29.72
L39.1612 -29.8348
L39.3934 -29.9505
L39.626 -30.0671
L39.859 -30.1846
L40.0925 -30.303
L40.3265 -30.4224
L40.5611 -30.5428
L40.7964 -30.6643
L41.0323 -30.7868
L41.2689 -30.9104
L41.5063 -31.0352
L41.7446 -31.1612
L41.9837 -31.2884
L42.2237 -31.4168
L42.4647 -31.5465
L42.7067 -31.6775
L42.9498 -31.8099
L43.1939 -31.9436
L43.4392 -32.0788
L43.6857 -32.2155
L43.9334 -32.3536
L44.1824 -32.4933
L44.4326 -32.6346
L44.6842 -32.7775
L44.9372 -32.9221
L45.1915 -33.0683
L45.4473 -33.2162
L45.7046 -33.3659
L45.9633 -33.5174
L46.2236 -33.6707
L46.4854 -33.8259
L46.7488 -33.9829
L47.0137 -34.1418
L47.2802 -34.3027
L47.5483 -34.4655
L47.818 -34.6303
L48.0894 -34.797
L48.3623 -34.9658
L48.6368 -35.1366
L48.9129 -35.3093
L49.1906 -35.4841
L49.4698 -35.6609
L49.7506 -35.8396
L50.0328 -36.0203
L50.3165 -36.2029
L50.6017 -36.3873
L50.8882 -36.5736
L51.176 -36.7617
L51.465 -36.9514
L51.7553 -37.1427
L52.0467 -37.3354
L52.3391 -37.5295
L52.6324 -37.7247
L52.9266 -37.9209
L53.2216 -38.1179
L53.5173 -38.3155
L53.8134 -38.5133
L54.1101 -38.7111
L54.407 -38.9085
L54.7042 -39.1051
L55.0014 -39.3005
L55.2987 -39.4941
L55.5958 -39.6854
L55.8926 -39.8737
L56.189 -40.0582
L56.4849 -40.2381
L56.7803 -40.4125
L57.075 -40.5803
L57.3689 -40.7402
L57.6619 -40.8911
L57.9541 -41.0314
L58.2452 -41.1595
L58.5353 -41.2736
L58.8243 -41.3719
L59.1121 -41.4525
L59.3987 -41.5132
L59.6837 -41.5519
L59.9672 -41.5667
L60.2489 -41.5556
L60.5284 -41.5168
L60.8054 -41.449
L61.0795 -41.351
L61.35 -41.2223
L61.6164 -41.0625
L61.8781 -40.8719
L62.1343 -40.6513
L62.3844 -40.4015
L62.6276 -40.124
L62.8633 -39.8202
L63.0908 -39.4919
L63.3095 -39.1408
L63.5189 -38.7688
L63.7184 -38.3776
L63.9077 -37.969
L64.0862 -37.5446
L64.2538 -37.1061
L64.41 -36.6549
L64.4984 -36.1925
L64.4887 -35.6957
L64.4704 -35.1983
L64.4434 -34.7013
L64.4077 -34.2046
L64.3634 -33.7085
L64.3104 -33.213
L64.2489 -32.7184
L64.1787 -32.2249
L64.0999 -31.7324
L64.0126 -31.2413
L63.9167 -30.7516
L63.8123 -30.2635
L63.6995 -29.7772
L63.5782 -29.2927
L63.4485 -28.8103
L63.3105 -28.3301
L63.1642 -27.8522
L63.0095 -27.3768
L62.8467 -26.9041
L62.6756 -26.4341
L62.4965 -25.967
L62.3092 -25.503
L62.114 -25.0421
L61.9108 -24.5847
L61.6997 -24.1306
L61.4808 -23.6802
L61.2541 -23.2336
L61.0197 -22.7908
L60.7777 -22.3521
L60.5281 -21.9175
L60.2711 -21.4873
L60.0067 -21.0614
L59.735 -20.6401
L59.456 -20.2234
L59.1699 -19.8116
L58.8768 -19.4047
L58.5767 -19.0029
L58.2697 -18.6062
L57.9559 -18.2148
L57.6354 -17.8289
L57.3083 -17.4485
L56.9748 -17.0737
L56.6348 -16.7047
L56.2886 -16.3416
L55.9362 -15.9844
L55.5777 -15.6334
L55.2133 -15.2886
L54.843 -14.9501
L54.4669 -14.6179
L54.0853 -14.2923
L53.6981 -13.9734
L53.3055 -13.6611
L52.9077 -13.3556
L52.5047 -13.057
L52.0967 -12.7654
L51.6838 -12.4809
L51.2661 -12.2036
L50.8437 -11.9335
L50.4169 -11.6707
L49.9856 -11.4154
L49.5501 -11.1675
L49.1105 -10.9272
L48.6668 -10.6946
L48.2193 -10.4696
L47.7681 -10.2524
L47.3133 -10.0431
L46.8551 -9.84165
L46.3935 -9.64819
L45.9288 -9.46276
L45.461 -9.28541
L44.9904 -9.1162
L44.517 -8.95518
L44.0411 -8.80239
L43.5627 -8.65789
L43.082 -8.52172
L42.5991 -8.39392
L42.1142 -8.27452
L41.6275 -8.16358
L41.139 -8.06111
L40.649 -7.96715
L40.1575 -7.88173
L39.6648 -7.80488
L39.171 -7.73661
L38.6762 -7.67696
L38.1806 -7.62593
L37.6844 -7.58355
L37.1876 -7.54982
L36.6904 -7.52475
L36.1931 -7.50836
L35.6957 -7.50065
L35.1983 -7.50162
L34.7013 -7.51128
L34.2046 -7.52961
L33.7085 -7.55661
L33.213 -7.59227
L32.7184 -7.63659
L32.2249 -7.68955
L31.7324 -7.75114
L31.2413 -7.82132
L30.7516 -7.9001
L30.2635 -7.98743
L29.7772 -8.08329
L29.2927 -8.18766
L28.8103 -8.3005
L28.3301 -8.42177
L27.8522 -8.55145
L27.3768 -8.68949
L26.9041 -8.83585
L26.4341 -8.99048
L25.967 -9.15334
L25.503 -9.32438
L25.0421 -9.50354
L24.5847 -9.69077
L24.1306 -9.88602
L23.6802 -10.0892
L23.2336 -10.3003
L22.7908 -10.5192
L22.3521 -10.7459
L21.9175 -10.9803
L21.4873 -11.2223
L21.0614 -11.4719
L20.6401 -11.7289
L20.2234 -11.9933
L19.8116 -12.265
L19.4047 -12.544
L19.0029 -12.8301
L18.6062 -13.1232
L18.2148 -13.4233
L17.8289 -13.7303
L17.4485 -14.0441
L17.0737 -14.3646
L16.7047 -14.6917
L16.3416 -15.0252
L15.9844 -15.3652
L15.6334 -15.7114
L15.2886 -16.0638
L14.9501 -16.4223
L14.6179 -16.7867
L14.2923 -17.157
L13.9734 -17.5331
L13.6611 -17.9147
L13.3556 -18.3019
z
" id="C0_1_46a9691467"/>
     <path d="
M7.55757 -36.2788
L7.70915 -36.7505
L7.86643 -37.2205
L8.02945 -37.6878
L8.19819 -38.1518
L8.37258 -38.6118
L8.55253 -39.0673
L8.73788 -39.5178
L8.9285 -39.9627
L9.12419 -40.4019
L9.32476 -40.8349
L9.53001 -41.2616
L9.73972 -41.6816
L9.95367 -42.0949
L10.1716 -42.5013
L10.3934 -42.9007
L10.6188 -43.293
L10.8475 -43.6781
L11.0794 -44.0561
L11.3143 -44.427
L11.5519 -44.7907
L11.792 -45.1473
L12.0346 -45.4968
L12.2794 -45.8394
L12.5262 -46.175
L12.7749 -46.5037
L13.0254 -46.8257
L13.2774 -47.141
L13.5309 -47.4497
L13.7858 -47.752
L14.0419 -48.0479
L14.2991 -48.3376
L14.5574 -48.6211
L14.8166 -48.8986
L15.0766 -49.1703
L15.3374 -49.4361
L15.599 -49.6963
L15.8612 -49.951
L16.1239 -50.2002
L16.3873 -50.4442
L16.6511 -50.6829
L16.9153 -50.9166
L17.18 -51.1453
L17.4451 -51.3692
L17.7106 -51.5884
L17.9764 -51.8029
L18.2426 -52.0128
L18.5091 -52.2184
L18.7759 -52.4196
L19.043 -52.6166
L19.3105 -52.8095
L19.5783 -52.9983
L19.8464 -53.1832
L20.1149 -53.3641
L20.3838 -53.5413
L20.653 -53.7148
L20.9226 -53.8847
L21.1926 -54.051
L21.4631 -54.2138
L21.7341 -54.3732
L22.0055 -54.5293
L22.2775 -54.6821
L22.55 -54.8316
L22.8231 -54.978
L23.0968 -55.1212
L23.3712 -55.2614
L23.6464 -55.3986
L23.9222 -55.5328
L24.1989 -55.6641
L24.4763 -55.7925
L24.7547 -55.918
L25.034 -56.0407
L25.3142 -56.1607
L25.5955 -56.2778
L25.8778 -56.3923
L26.1613 -56.5041
L26.4459 -56.6131
L26.7318 -56.7195
L27.0189 -56.8233
L27.3074 -56.9244
L27.5973 -57.0229
L27.8886 -57.1188
L28.1814 -57.212
L28.4758 -57.3026
L28.7719 -57.3907
L29.0696 -57.476
L29.3691 -57.5588
L29.6704 -57.6389
L29.9735 -57.7164
L30.2786 -57.7911
L30.5858 -57.8632
L30.8949 -57.9325
L31.2062 -57.9991
L31.5197 -58.063
L31.8355 -58.124
L32.1536 -58.1821
L32.4741 -58.2374
L32.797 -58.2897
L33.1224 -58.3391
L33.4505 -58.3854
L33.7812 -58.4286
L34.1145 -58.4686
L34.4507 -58.5054
L34.7897 -58.539
L35.1316 -58.5691
L35.4764 -58.5959
L35.8242 -58.6191
L36.1751 -58.6388
L36.5291 -58.6547
L36.8862 -58.6669
L37.2465 -58.6752
L37.6101 -58.6795
L37.977 -58.6798
L38.3472 -58.6759
L38.7207 -58.6677
L39.0976 -58.6551
L39.4779 -58.6379
L39.8616 -58.6162
L40.2487 -58.5896
L40.6392 -58.5582
L41.0331 -58.5217
L41.4304 -58.4801
L41.8311 -58.4333
L42.235 -58.381
L42.6423 -58.3232
L43.0528 -58.2598
L43.4664 -58.1906
L43.8831 -58.1155
L44.3027 -58.0344
L44.7253 -57.9471
L45.1505 -57.8537
L45.5784 -57.754
L46.0086 -57.6479
L46.4412 -57.5353
L46.8758 -57.4163
L47.3122 -57.2909
L47.7503 -57.1589
L48.1897 -57.0205
L48.6301 -56.8757
L49.0713 -56.7247
L49.513 -56.5675
L49.9547 -56.4044
L50.3961 -56.2357
L50.8368 -56.0617
L51.2763 -55.8827
L51.7143 -55.6994
L52.1501 -55.5121
L52.5833 -55.3217
L53.0133 -55.129
L53.4396 -54.9348
L53.8615 -54.7403
L54.2784 -54.5466
L54.6897 -54.3552
L55.0947 -54.1675
L55.4927 -53.9854
L55.8829 -53.8106
L56.2647 -53.6451
L56.6375 -53.4911
L57.0004 -53.3505
L57.3529 -53.2256
L57.6945 -53.1184
L58.0245 -53.0307
L58.3426 -52.9641
L58.6484 -52.9198
L58.6484 -52.8986
L58.343 -53.3003
L58.0308 -53.693
L57.7119 -54.0802
L57.3864 -54.4619
L57.0544 -54.838
L56.7159 -55.2084
L56.3712 -55.5729
L56.0202 -55.9315
L55.6632 -56.284
L55.3001 -56.6303
L54.9312 -56.9703
L54.5565 -57.304
L54.1762 -57.6311
L53.7903 -57.9517
L53.399 -58.2656
L53.0024 -58.5727
L52.6006 -58.8729
L52.1938 -59.1661
L51.782 -59.4523
L51.3655 -59.7314
L50.9442 -60.0032
L50.5184 -60.2677
L50.0882 -60.5248
L49.6536 -60.7745
L49.215 -61.0166
L48.7723 -61.251
L48.3257 -61.4778
L47.8753 -61.6968
L47.4214 -61.908
L46.9639 -62.1114
L46.5031 -62.3067
L46.0391 -62.494
L45.5721 -62.6733
L45.1021 -62.8445
L44.6294 -63.0074
L44.154 -63.1622
L43.6762 -63.3086
L43.196 -63.4468
L42.7136 -63.5766
L42.2292 -63.698
L41.7429 -63.8109
L41.2548 -63.9154
L40.7652 -64.0114
L40.2741 -64.0988
L39.7816 -64.1777
L39.2881 -64.248
L38.7935 -64.3097
L38.2981 -64.3628
L37.802 -64.4072
L37.3053 -64.443
L36.8082 -64.4701
L36.3109 -64.4885
L35.8135 -64.4983
L35.3161 -64.4994
L34.819 -64.4918
L34.3222 -64.4755
L33.8259 -64.4506
L33.3303 -64.417
L32.8355 -64.3747
L32.3417 -64.3238
L31.8489 -64.2642
L31.3575 -64.1961
L30.8674 -64.1193
L30.379 -64.034
L29.8922 -63.9402
L29.4073 -63.8378
L28.9244 -63.727
L28.4437 -63.6077
L27.9652 -63.48
L27.4892 -63.344
L27.0158 -63.1996
L26.5452 -63.0469
L26.0774 -62.886
L25.6126 -62.7169
L25.151 -62.5396
L24.6927 -62.3543
L24.2379 -62.1609
L23.7866 -61.9596
L23.339 -61.7504
L22.8954 -61.5333
L22.4557 -61.3085
L22.0201 -61.0759
L21.5888 -60.8357
L21.1619 -60.5879
L20.7394 -60.3327
L20.3217 -60.07
L19.9087 -59.8
L19.5006 -59.5228
L19.0976 -59.2384
L18.6997 -58.9469
L18.307 -58.6484
L17.9198 -58.343
L17.5381 -58.0308
L17.162 -57.7119
L16.7916 -57.3864
L16.4271 -57.0544
L16.0685 -56.7159
L15.716 -56.3712
L15.3697 -56.0202
L15.0297 -55.6632
L14.696 -55.3001
L14.3689 -54.9312
L14.0483 -54.5565
L13.7344 -54.1762
L13.4273 -53.7903
L13.1271 -53.399
L12.8339 -53.0024
L12.5477 -52.6006
L12.2686 -52.1938
L11.9968 -51.782
L11.7323 -51.3655
L11.4752 -50.9442
L11.2255 -50.5184
L10.9834 -50.0882
L10.749 -49.6536
L10.5222 -49.215
L10.3032 -48.7723
L10.092 -48.3257
L9.88865 -47.8753
L9.6933 -47.4214
L9.50596 -46.9639
L9.32669 -46.5031
L9.15554 -46.0391
L8.99257 -45.5721
L8.83783 -45.1021
L8.69137 -44.6294
L8.55322 -44.154
L8.42343 -43.6762
L8.30204 -43.196
L8.18909 -42.7136
L8.08461 -42.2292
L7.98864 -41.7429
L7.90119 -41.2548
L7.82231 -40.7652
L7.75201 -40.2741
L7.69031 -39.7816
L7.63724 -39.2881
L7.5928 -38.7935
L7.55702 -38.2981
L7.52991 -37.802
L7.51146 -37.3053
z
" id="C0_2_6b3ba7a629"/>
    </defs>
    <g clip-path="url(#p1bffca34e9)">
     <use style="fill:#ff0000;stroke:#000000;stroke-width:2.0;" x="0.0" xlink:href="#C0_0_a811fe30f3" y="72.0"/>
    </g>
    <g clip-path="url(#p1bffca34e9)">
     <use style="fill:#ffffff;stroke:#000000;stroke-width:2.0;" x="0.0" xlink:href="#C0_1_46a9691467" y="72.0"/>
    </g>
    <g clip-path="url(#p1bffca34e9)">
     <use style="fill:#ffffff;stroke:#000000;stroke-width:2.0;" x="0.0" xlink:href="#C0_2_6b3ba7a629" y="72.0"/>
    </g>
   </g>
  </g>
 </g>
 <defs>
  <clipPath id="p1bffca34e9">
   <rect height="72.0" width="72.0" x="0.0" y="0.0"/>
  </clipPath>
 </defs>
</svg>
