<?xml version="1.0" encoding="utf-8" standalone="no"?>
<!DOCTYPE svg PUBLIC "-//W3C//DTD SVG 1.1//EN"
  "http://www.w3.org/Graphics/SVG/1.1/DTD/svg11.dtd">
<!-- Created with matplotlib (http://matplotlib.org/) -->
<svg height="72pt" version="1.1" viewBox="0 0 72 72" width="72pt" xmlns="http://www.w3.org/2000/svg" xmlns:xlink="http://www.w3.org/1999/xlink">
 <defs>
  <style type="text/css">
*{stroke-linecap:butt;stroke-linejoin:round;}
  </style>
 </defs>
 <g id="figure_1">
  <g id="patch_1">
   <path d="
M0 72
L72 72
L72 0
L0 0
z
" style="fill:none;"/>
  </g>
  <g id="axes_1">
   <g id="PatchCollection_1">
    <defs>
     <path d="
M36 -7.5
C43.5583 -7.5 50.808 -10.5029 56.1525 -15.8475
C61.4971 -21.192 64.5 -28.4417 64.5 -36
C64.5 -43.5583 61.4971 -50.808 56.1525 -56.1525
C50.808 -61.4971 43.5583 -64.5 36 -64.5
C28.4417 -64.5 21.192 -61.4971 15.8475 -56.1525
C10.5029 -50.808 7.5 -43.5583 7.5 -36
C7.5 -28.4417 10.5029 -21.192 15.8475 -15.8475
C21.192 -10.5029 28.4417 -7.5 36 -7.5
z
" id="C0_0_a811fe30f3"/>
     <path d="
M30.602 -8.21782
L30.6254 -8.47555
L30.6588 -8.7345
L30.7013 -8.99455
L30.752 -9.25558
L30.8101 -9.51746
L30.8749 -9.78009
L30.9457 -10.0433
L31.0218 -10.3071
L31.1027 -10.5713
L31.1878 -10.8358
L31.2767 -11.1006
L31.3689 -11.3655
L31.4641 -11.6304
L31.5618 -11.8952
L31.6618 -12.16
L31.7637 -12.4245
L31.8673 -12.6887
L31.9723 -12.9526
L32.0785 -13.2161
L32.1857 -13.4791
L32.2938 -13.7415
L32.4025 -14.0034
L32.5117 -14.2646
L32.6212 -14.5251
L32.7311 -14.785
L32.8411 -15.044
L32.9511 -15.3023
L33.0611 -15.5597
L33.171 -15.8163
L33.2808 -16.0721
L33.3903 -16.327
L33.4995 -16.5809
L33.6084 -16.834
L33.717 -17.0862
L33.8251 -17.3375
L33.9328 -17.5879
L34.0401 -17.8373
L34.1469 -18.0859
L34.2532 -18.3336
L34.3589 -18.5804
L34.4642 -18.8264
L34.569 -19.0715
L34.6732 -19.3157
L34.7769 -19.5592
L34.88 -19.8019
L34.9826 -20.0438
L35.0847 -20.2849
L35.1863 -20.5254
L35.2874 -20.7651
L35.3879 -21.0042
L35.488 -21.2427
L35.5876 -21.4806
L35.6866 -21.7179
L35.7852 -21.9547
L35.8834 -22.191
L35.9811 -22.4268
L36.0784 -22.6622
L36.1753 -22.8972
L36.2718 -23.1319
L36.3678 -23.3662
L36.4636 -23.6003
L36.5589 -23.8342
L36.654 -24.0678
L36.7487 -24.3014
L36.8431 -24.5348
L36.9372 -24.7681
L37.031 -25.0015
L37.1246 -25.2348
L37.218 -25.4682
L37.3111 -25.7018
L37.4041 -25.9354
L37.4969 -26.1693
L37.5895 -26.4035
L37.7743 -26.6379
L37.8665 -26.8726
L37.9586 -27.1078
L38.0507 -27.3434
L38.1427 -27.5794
L38.2347 -27.816
L38.3267 -28.0532
L38.4187 -28.2909
L38.5107 -28.5294
L38.6027 -28.7685
L38.6949 -29.0084
L38.787 -29.2492
L38.8793 -29.4908
L38.9717 -29.7333
L39.0643 -29.9767
L39.157 -30.2212
L39.2498 -30.4667
L39.3429 -30.7133
L39.4362 -30.9611
L39.5297 -31.2101
L39.6234 -31.4603
L39.7174 -31.7119
L39.8118 -31.9647
L39.9064 -32.219
L40.0013 -32.4747
L40.0966 -32.7319
L40.1923 -32.9906
L40.2883 -33.2509
L40.3848 -33.5128
L40.4816 -33.7763
L40.5789 -34.0416
L40.6767 -34.3086
L40.775 -34.5773
L40.8738 -34.8479
L40.973 -35.1204
L41.0729 -35.3947
L41.1733 -35.6709
L41.2743 -35.9491
L41.3759 -36.2292
L41.4782 -36.5113
L41.5811 -36.7954
L41.6846 -37.0816
L41.7889 -37.3697
L41.8939 -37.6599
L41.9997 -37.9522
L42.1063 -38.2465
L42.2137 -38.5427
L42.3219 -38.841
L42.431 -39.1413
L42.541 -39.4435
L42.6519 -39.7477
L42.7639 -40.0537
L42.8769 -40.3615
L42.9909 -40.671
L43.1061 -40.9822
L43.2224 -41.295
L43.34 -41.6093
L43.4589 -41.9248
L43.5791 -42.2417
L43.7008 -42.5595
L43.824 -42.8783
L43.9489 -43.1978
L44.0754 -43.5179
L44.2039 -43.8382
L44.3342 -44.1586
L44.4667 -44.4787
L44.6014 -44.7984
L44.7385 -45.1172
L44.8783 -45.4348
L45.0209 -45.7508
L45.1665 -46.0649
L45.3153 -46.3765
L45.4678 -46.6852
L45.624 -46.9905
L45.7844 -47.2918
L45.9493 -47.5885
L46.1191 -47.88
L46.2941 -48.1656
L46.4747 -48.4447
L46.6613 -48.7163
L46.8544 -48.9799
L47.0544 -49.2346
L47.2617 -49.4795
L47.4767 -49.7139
L47.6998 -49.937
L47.9313 -50.1478
L48.1716 -50.3456
L48.4208 -50.5297
L48.6792 -50.6993
L48.9468 -50.8538
L49.2235 -50.9926
L49.5094 -51.1152
L49.8041 -51.2213
L50.1074 -51.3105
L50.4189 -51.3827
L50.7381 -51.4378
L51.0644 -51.4758
L51.3972 -51.4968
L51.7359 -51.5011
L52.0797 -51.4889
L52.428 -51.4606
L52.78 -51.4165
L53.135 -51.3571
L53.4922 -51.2829
L53.8509 -51.1943
L54.2105 -51.0918
L54.5703 -50.976
L54.9297 -50.8475
L55.288 -50.7066
L55.6447 -50.554
L55.9994 -50.3901
L56.3515 -50.2154
L56.7005 -50.0305
L57.0461 -49.8357
L57.3879 -49.6315
L57.7256 -49.4184
L58.0587 -49.1969
L58.3872 -48.9672
L58.7106 -48.7298
L59.0288 -48.4851
L59.3415 -48.2334
L59.6487 -47.9752
L59.9501 -47.7106
L60.2456 -47.4401
L60.535 -47.164
L60.8184 -46.8825
L61.0956 -46.5959
L61.3665 -46.3045
L61.631 -46.0085
L61.8893 -45.7083
L62.1411 -45.4039
L62.3865 -45.0956
L62.6255 -44.7837
L62.8581 -44.4683
L63.0842 -44.1496
L63.304 -43.8278
L63.5173 -43.503
L63.6991 -43.1754
L63.812 -42.7088
L63.9164 -42.2244
L64.0123 -41.7381
L64.0996 -41.25
L64.1784 -40.7603
L64.2487 -40.2692
L64.3103 -39.7767
L64.3632 -39.2831
L64.4076 -38.7886
L64.4433 -38.2931
L64.4703 -37.797
L64.4887 -37.3003
L64.4984 -36.8033
L64.4994 -36.3059
L64.4917 -35.8085
L64.4753 -35.3112
L64.4503 -34.814
L64.4166 -34.3172
L64.3742 -33.821
L64.3232 -33.3254
L64.2636 -32.8306
L64.1954 -32.3368
L64.1185 -31.844
L64.0331 -31.3526
L63.9392 -30.8626
L63.8368 -30.3741
L63.7258 -29.8874
L63.6065 -29.4025
L63.4787 -28.9196
L63.3426 -28.4389
L63.1981 -27.9605
L63.0453 -27.4845
L62.8843 -27.0111
L62.7151 -26.5405
L62.5378 -26.0727
L62.3524 -25.608
L62.159 -25.1464
L61.9576 -24.6882
L61.7483 -24.2333
L61.5311 -23.7821
L61.3062 -23.3346
L61.0735 -22.891
L60.8333 -22.4513
L60.5854 -22.0158
L60.3301 -21.5845
L60.0674 -21.1576
L59.7973 -20.7353
L59.52 -20.3176
L59.2355 -19.9046
L58.9439 -19.4966
L58.6454 -19.0936
L58.3399 -18.6957
L58.0277 -18.3032
L57.7087 -17.916
L57.3831 -17.5343
L57.051 -17.1582
L56.7125 -16.7879
L56.3677 -16.4234
L56.0167 -16.0649
L55.6596 -15.7125
L55.2965 -15.3663
L54.9275 -15.0263
L54.5527 -14.6927
L54.1724 -14.3656
L53.7864 -14.0451
L53.3951 -13.7313
L52.9984 -13.4243
L52.5966 -13.1242
L52.1897 -12.831
L51.7779 -12.5449
L51.3613 -12.2659
L50.94 -11.9941
L50.5141 -11.7297
L50.0839 -11.4727
L49.6493 -11.2231
L49.2106 -10.9811
L48.7678 -10.7467
L48.3212 -10.52
L47.8708 -10.301
L47.4168 -10.0899
L46.9593 -9.88666
L46.4985 -9.69139
L46.0345 -9.50413
L45.5674 -9.32494
L45.0974 -9.15388
L44.6247 -8.99099
L44.1493 -8.83633
L43.6714 -8.68995
L43.1912 -8.55188
L42.7088 -8.42218
L42.2244 -8.30087
L41.7381 -8.18801
L41.25 -8.08361
L40.7603 -7.98772
L40.2692 -7.90036
L39.7767 -7.82156
L39.2831 -7.75135
L38.7886 -7.68974
L38.2931 -7.63675
L37.797 -7.5924
L37.3003 -7.55671
L36.8033 -7.52968
L36.3059 -7.51132
L35.8085 -7.50164
L35.3112 -7.50064
L34.814 -7.50833
L34.3172 -7.52469
L33.821 -7.54972
L33.3254 -7.58342
L32.8306 -7.62578
L32.3368 -7.67678
L31.844 -7.73641
L31.3526 -7.80465
z
" id="C0_1_b401328074"/>
     <path d="
M8.3862 -29.1821
L8.41555 -29.5669
L8.4497 -29.9477
L8.48852 -30.3243
L8.53186 -30.6968
L8.57958 -31.0653
L8.63156 -31.4297
L8.68765 -31.7902
L8.74774 -32.1467
L8.81172 -32.4994
L8.87946 -32.8482
L8.95086 -33.1933
L9.02582 -33.5347
L9.10424 -33.8724
L9.18602 -34.2066
L9.27109 -34.5372
L9.35934 -34.8644
L9.45072 -35.1882
L9.54513 -35.5088
L9.64252 -35.8261
L9.74282 -36.1402
L9.84597 -36.4512
L9.9519 -36.7592
L10.0606 -37.0642
L10.1719 -37.3664
L10.286 -37.6657
L10.4026 -37.9623
L10.5218 -38.2562
L10.6435 -38.5475
L10.7677 -38.8362
L10.8945 -39.1225
L11.0236 -39.4063
L11.1553 -39.6878
L11.2893 -39.967
L11.4257 -40.244
L11.5646 -40.5188
L11.7058 -40.7916
L11.8495 -41.0622
L11.9955 -41.3309
L12.1439 -41.5977
L12.2947 -41.8625
L12.4479 -42.1256
L12.6035 -42.3869
L12.7615 -42.6464
L12.922 -42.9043
L13.0849 -43.1606
L13.2502 -43.4153
L13.4181 -43.6685
L13.5884 -43.9202
L13.7613 -44.1705
L13.9368 -44.4194
L14.1148 -44.6669
L14.2955 -44.9131
L14.4788 -45.1581
L14.6649 -45.4017
L14.8536 -45.6442
L15.0451 -45.8855
L15.2395 -46.1256
L15.4366 -46.3646
L15.6367 -46.6026
L15.8397 -46.8394
L16.0457 -47.0752
L16.2548 -47.31
L16.4669 -47.5438
L16.6822 -47.7765
L16.9006 -48.0083
L17.1224 -48.2392
L17.3474 -48.4691
L17.5757 -48.698
L17.8075 -48.926
L18.0428 -49.1531
L18.2816 -49.3792
L18.524 -49.6044
L18.77 -49.8286
L19.0198 -50.0519
L19.2733 -50.2742
L19.5306 -50.4956
L19.7919 -50.7159
L20.057 -50.9353
L20.3262 -51.1536
L20.5995 -51.3709
L20.8768 -51.5871
L21.1583 -51.8022
L21.444 -52.0161
L21.734 -52.2289
L22.0282 -52.4405
L22.3268 -52.6508
L22.6298 -52.8597
L22.9371 -53.0674
L23.2489 -53.2736
L23.5652 -53.4784
L23.8858 -53.6816
L24.211 -53.8833
L24.5405 -54.0834
L24.8745 -54.2818
L25.2129 -54.4784
L25.5557 -54.6733
L25.9028 -54.8662
L26.2542 -55.0573
L26.6097 -55.2463
L26.9693 -55.4333
L27.3329 -55.6182
L27.7003 -55.801
L28.0715 -55.9816
L28.4461 -56.1599
L28.8241 -56.3361
L29.2052 -56.5099
L29.5892 -56.6815
L29.9757 -56.8508
L30.3646 -57.0178
L30.7553 -57.1827
L31.1477 -57.3454
L31.5412 -57.5061
L31.9355 -57.6648
L32.33 -57.8217
L32.7242 -57.9769
L33.1176 -58.1307
L33.5096 -58.2832
L33.8994 -58.4348
L34.2866 -58.5857
L34.6703 -58.7362
L35.0497 -58.8868
L35.4242 -59.0378
L35.7929 -59.1897
L36.1549 -59.3429
L36.5096 -59.4978
L36.856 -59.6551
L37.1933 -59.8151
L37.5208 -59.9783
L37.8378 -60.1451
L38.1435 -60.3161
L38.4374 -60.4915
L38.719 -60.6716
L38.9878 -60.8568
L39.2435 -61.0471
L39.4858 -61.2426
L39.7148 -61.4434
L39.9302 -61.6493
L40.1322 -61.8603
L40.3209 -62.0759
L40.4966 -62.296
L40.6595 -62.5203
L40.8099 -62.7483
L40.9483 -62.9795
L41.075 -63.2137
L41.1905 -63.4503
L41.2951 -63.6888
L40.9106 -63.9289
L40.4199 -64.0738
L39.9279 -64.1552
L39.4346 -64.228
L38.9403 -64.2923
L38.4452 -64.3479
L37.9492 -64.3949
L37.4527 -64.4333
L36.9557 -64.463
L36.4585 -64.484
L35.9611 -64.4963
L35.4637 -64.5
L34.9665 -64.495
L34.4696 -64.4813
L33.9731 -64.4589
L33.4773 -64.4278
L32.9822 -64.3881
L32.4881 -64.3398
L31.995 -64.2828
L31.5032 -64.2172
L31.0127 -64.143
L30.5237 -64.0602
L30.0364 -63.9689
L29.551 -63.8691
L29.0675 -63.7608
L28.5861 -63.644
L28.1069 -63.5188
L27.6302 -63.3852
L27.156 -63.2433
L26.6845 -63.0931
L26.2159 -62.9346
L25.7502 -62.7679
L25.2876 -62.5931
L24.8283 -62.4101
L24.3725 -62.2192
L23.9201 -62.0202
L23.4714 -61.8133
L23.0266 -61.5985
L22.5857 -61.376
L22.1489 -61.1457
L21.7163 -60.9078
L21.2881 -60.6622
L20.8643 -60.4092
L20.4452 -60.1487
L20.0307 -59.8809
L19.6212 -59.6058
L19.2166 -59.3235
L18.8172 -59.0341
L18.423 -58.7377
L18.0341 -58.4343
L17.6508 -58.1241
L17.273 -57.8072
L16.9009 -57.4837
L16.5346 -57.1536
L16.1743 -56.817
L15.82 -56.4741
L15.4718 -56.125
L15.1299 -55.7697
L14.7943 -55.4085
L14.4653 -55.0413
L14.1427 -54.6683
L13.8269 -54.2896
L13.5177 -53.9054
L13.2155 -53.5157
L12.9202 -53.1206
L12.6319 -52.7204
L12.3507 -52.315
L12.0767 -51.9047
L11.81 -51.4896
L11.5507 -51.0697
L11.2988 -50.6452
L11.0545 -50.2163
L10.8177 -49.783
L10.5887 -49.3456
L10.3673 -48.904
L10.1538 -48.4586
L9.94815 -48.0093
L9.75043 -47.5564
L9.5607 -47.1
L9.37903 -46.6402
L9.20547 -46.1771
L9.04007 -45.711
L8.88289 -45.2419
L8.73396 -44.77
L8.59334 -44.2954
L8.46107 -43.8182
L8.33718 -43.3387
L8.22172 -42.857
L8.11473 -42.3732
L8.01622 -41.8874
L7.92625 -41.3998
L7.84482 -40.9106
L7.77197 -40.4199
L7.70772 -39.9279
L7.65208 -39.4346
L7.60509 -38.9403
L7.56674 -38.4452
L7.53705 -37.9492
L7.51603 -37.4527
L7.50369 -36.9557
L7.50003 -36.4585
L7.50505 -35.9611
L7.51875 -35.4637
L7.54112 -34.9665
L7.57217 -34.4696
L7.61187 -33.9731
L7.66022 -33.4773
L7.7172 -32.9822
L7.7828 -32.4881
L7.857 -31.995
L7.93976 -31.5032
L8.03108 -31.0127
L8.13091 -30.5237
z
" id="C0_2_bff5b14289"/>
    </defs>
    <g clip-path="url(#p1bffca34e9)">
     <use style="fill:#ff0000;stroke:#000000;stroke-width:2.0;" x="0.0" xlink:href="#C0_0_a811fe30f3" y="72.0"/>
    </g>
    <g clip-path="url(#p1bffca34e9)">
     <use style="fill:#ffffff;stroke:#000000;stroke-width:2.0;" x="0.0" xlink:href="#C0_1_b401328074" y="72.0"/>
    </g>
    <g clip-path="url(#p1bffca34e9)">
     <use style="fill:#ffffff;stroke:#000000;stroke-width:2.0;" x="0.0" xlink:href="#C0_2_bff5b14289" y="72.0"/>
    </g>
   </g>
  </g>
 </g>
 <defs>
  <clipPath id="p1bffca34e9">
   <rect height="72.0" width="72.0" x="0.0" y="0.0"/>
  </clipPath>
 </defs>
</svg>
