<?xml version="1.0" encoding="utf-8" standalone="no"?>
<!DOCTYPE svg PUBLIC "-//W3C//DTD SVG 1.1//EN"
  "http://www.w3.org/Graphics/SVG/1.1/DTD/svg11.dtd">
<!-- Created with matplotlib (http://matplotlib.org/) -->
<svg height="72pt" version="1.1" viewBox="0 0 72 72" width="72pt" xmlns="http://www.w3.org/2000/svg" xmlns:xlink="http://www.w3.org/1999/xlink">
 <defs>
  <style type="text/css">
*{stroke-linecap:butt;stroke-linejoin:round;}
  </style>
 </defs>
 <g id="figure_1">
  <g id="patch_1">
   <path d="
M0 72
L72 72
L72 0
L0 0
z
" style="fill:none;"/>
  </g>
  <g id="axes_1">
   <g id="PatchCollection_1">
    <defs>
     <path d="
M36 -7.5
C43.5583 -7.5 50.808 -10.5029 56.1525 -15.8475
C61.4971 -21.192 64.5 -28.4417 64.5 -36
C64.5 -43.5583 61.4971 -50.808 56.1525 -56.1525
C50.808 -61.4971 43.5583 -64.5 36 -64.5
C28.4417 -64.5 21.192 -61.4971 15.8475 -56.1525
C10.5029 -50.808 7.5 -43.5583 7.5 -36
C7.5 -28.4417 10.5029 -21.192 15.8475 -15.8475
C21.192 -10.5029 28.4417 -7.5 36 -7.5
z
" id="C0_0_a811fe30f3"/>
     <path d="
M39.2199 -7.76874
L39.1732 -7.99425
L39.1388 -8.22352
L39.1161 -8.45633
L39.1048 -8.69251
L39.1042 -8.93186
L39.1139 -9.17422
L39.1332 -9.41941
L39.1618 -9.66729
L39.1989 -9.91769
L39.2442 -10.1705
L39.297 -10.4255
L39.3568 -10.6826
L39.4231 -10.9417
L39.4955 -11.2026
L39.5734 -11.4652
L39.6564 -11.7295
L39.7441 -11.9951
L39.836 -12.2622
L39.9317 -12.5305
L40.0309 -12.8
L40.1331 -13.0704
L40.2381 -13.3418
L40.3455 -13.6141
L40.4551 -13.8871
L40.5665 -14.1607
L40.6795 -14.4349
L40.7938 -14.7096
L40.9093 -14.9846
L41.0256 -15.26
L41.1427 -15.5356
L41.2603 -15.8114
L41.3783 -16.0873
L41.4966 -16.3633
L41.6149 -16.6392
L41.7331 -16.9151
L41.8512 -17.1908
L41.9691 -17.4664
L42.0865 -17.7418
L42.2035 -18.0169
L42.32 -18.2917
L42.4359 -18.5662
L42.5512 -18.8403
L42.6657 -19.1141
L42.7794 -19.3874
L42.8924 -19.6603
L43.0045 -19.9328
L43.1156 -20.2048
L43.2259 -20.4764
L43.3353 -20.7474
L43.4436 -21.018
L43.551 -21.288
L43.6574 -21.5576
L43.7628 -21.8266
L43.8671 -22.0952
L43.9704 -22.3633
L44.0727 -22.6309
L44.174 -22.898
L44.2742 -23.1647
L44.3734 -23.4309
L44.4716 -23.6966
L44.5687 -23.962
L44.6648 -24.2269
L44.7599 -24.4914
L44.854 -24.7556
L44.947 -25.0194
L45.0391 -25.2829
L45.1302 -25.5461
L45.2203 -25.809
L45.3095 -26.0717
L45.3977 -26.3341
L45.4849 -26.5963
L45.5713 -26.8584
L45.6567 -27.1203
L45.7412 -27.3821
L45.8248 -27.6438
L45.9075 -27.9055
L45.9893 -28.1671
L46.0703 -28.4288
L46.1504 -28.6905
L46.2296 -28.9522
L46.3081 -29.2141
L46.3857 -29.4761
L46.4626 -29.7383
L46.5386 -30.0007
L46.6883 -30.2634
L46.762 -30.5264
L46.835 -30.7896
L46.9072 -31.0532
L46.9787 -31.3172
L47.0494 -31.5817
L47.1195 -31.8465
L47.1888 -32.1119
L47.2575 -32.3778
L47.3254 -32.6443
L47.3927 -32.9114
L47.4593 -33.1791
L47.5253 -33.4475
L47.5905 -33.7166
L47.6552 -33.9864
L47.7192 -34.257
L47.7825 -34.5284
L47.8453 -34.8006
L47.9074 -35.0737
L47.9689 -35.3477
L48.0297 -35.6227
L48.09 -35.8986
L48.1497 -36.1755
L48.2088 -36.4534
L48.2672 -36.7323
L48.3252 -37.0123
L48.3825 -37.2935
L48.4393 -37.5757
L48.4955 -37.8591
L48.5511 -38.1436
L48.6062 -38.4293
L48.6608 -38.7161
L48.7148 -39.0042
L48.7683 -39.2935
L48.8213 -39.584
L48.8738 -39.8758
L48.9258 -40.1687
L48.9774 -40.4629
L49.0284 -40.7583
L49.079 -41.055
L49.1292 -41.3528
L49.179 -41.6518
L49.2284 -41.952
L49.2774 -42.2533
L49.3261 -42.5558
L49.3745 -42.8593
L49.4226 -43.1639
L49.4704 -43.4695
L49.5181 -43.776
L49.5656 -44.0834
L49.613 -44.3916
L49.6604 -44.7006
L49.7078 -45.0102
L49.7552 -45.3205
L49.8028 -45.6312
L49.8507 -45.9423
L49.8988 -46.2537
L49.9474 -46.5653
L49.9965 -46.8769
L50.0462 -47.1883
L50.0967 -47.4995
L50.1481 -47.8103
L50.2005 -48.1204
L50.2541 -48.4298
L50.309 -48.7382
L50.3655 -49.0453
L50.4238 -49.3511
L50.4839 -49.6552
L50.5462 -49.9574
L50.6109 -50.2575
L50.6783 -50.5551
L50.7485 -50.8501
L50.8219 -51.142
L50.8987 -51.4306
L50.9792 -51.7157
L51.0638 -51.9967
L51.1527 -52.2735
L51.2463 -52.5457
L51.3448 -52.8129
L51.4486 -53.0747
L51.558 -53.3308
L51.6733 -53.5809
L51.7949 -53.8245
L51.9229 -54.0613
L52.0577 -54.2909
L52.1996 -54.513
L52.3487 -54.7271
L52.5054 -54.9329
L52.6696 -55.1302
L52.8418 -55.3185
L53.0218 -55.4975
L53.2099 -55.667
L53.406 -55.8265
L53.6103 -55.976
L53.8225 -56.115
L54.0428 -56.2434
L54.2709 -56.361
L54.5067 -56.4675
L54.7501 -56.5629
L55.0009 -56.6468
L55.2587 -56.7193
L55.7347 -56.7801
L56.0905 -56.5619
L56.4403 -56.2143
L56.7838 -55.8606
L57.121 -55.5009
L57.4517 -55.1352
L57.7759 -54.7637
L58.0935 -54.3864
L58.4043 -54.0036
L58.7083 -53.6153
L59.0054 -53.2216
L59.2955 -52.8226
L59.5785 -52.4186
L59.8543 -52.0095
L60.1229 -51.5956
L60.3841 -51.1769
L60.6378 -50.7536
L60.8841 -50.3257
L61.1228 -49.8936
L61.3538 -49.4572
L61.5771 -49.0167
L61.7927 -48.5722
L62.0003 -48.1239
L62.2001 -47.6719
L62.3918 -47.2164
L62.5755 -46.7574
L62.7512 -46.2952
L62.9187 -45.8298
L63.0779 -45.3614
L63.229 -44.8902
L63.3717 -44.4163
L63.5061 -43.9398
L63.6321 -43.4609
L63.7497 -42.9797
L63.8589 -42.4964
L63.9595 -42.0111
L64.0517 -41.524
L64.1353 -41.0352
L64.2103 -40.5448
L64.2768 -40.0531
L64.3346 -39.5601
L64.3838 -39.0661
L64.4243 -38.5711
L64.4562 -38.0754
L64.4794 -37.579
L64.494 -37.0821
L64.4999 -36.5849
L64.4971 -36.0875
L64.4856 -35.5901
L64.4654 -35.0929
L64.4365 -34.5959
L64.399 -34.0993
L64.3529 -33.6033
L64.2981 -33.108
L64.2347 -32.6136
L64.1627 -32.1203
L64.0821 -31.6281
L63.9929 -31.1373
L63.8953 -30.6479
L63.7891 -30.1602
L63.6745 -29.6742
L63.5514 -29.1902
L63.42 -28.7083
L63.2802 -28.2285
L63.132 -27.7512
L62.9757 -27.2763
L62.8111 -26.8041
L62.6383 -26.3347
L62.4574 -25.8683
L62.2685 -25.4049
L62.0715 -24.9448
L61.8666 -24.488
L61.6539 -24.0348
L61.4333 -23.5852
L61.205 -23.1393
L60.969 -22.6974
L60.7254 -22.2596
L60.4742 -21.8259
L60.2156 -21.3965
L59.9497 -20.9716
L59.6764 -20.5513
L59.3959 -20.1357
L59.1083 -19.7249
L58.8137 -19.319
L58.5121 -18.9183
L58.2036 -18.5227
L57.8884 -18.1325
L57.5666 -17.7477
L57.2381 -17.3685
L56.9032 -16.9949
L56.5619 -16.6272
L56.2143 -16.2653
L55.8606 -15.9095
L55.5009 -15.5597
L55.1352 -15.2162
L54.7637 -14.879
L54.3864 -14.5483
L54.0036 -14.2241
L53.6153 -13.9065
L53.2216 -13.5957
L52.8226 -13.2917
L52.4186 -12.9946
L52.0095 -12.7045
L51.5956 -12.4215
L51.1769 -12.1457
L50.7536 -11.8771
L50.3257 -11.6159
L49.8936 -11.3622
L49.4572 -11.1159
L49.0167 -10.8772
L48.5722 -10.6462
L48.1239 -10.4229
L47.6719 -10.2073
L47.2164 -9.99968
L46.7574 -9.79994
L46.2952 -9.60818
L45.8298 -9.42446
L45.3614 -9.24883
L44.8902 -9.08135
L44.4163 -8.92207
L43.9398 -8.77104
L43.4609 -8.6283
L42.9797 -8.4939
L42.4964 -8.36788
L42.0111 -8.25028
L41.524 -8.14113
L41.0352 -8.04046
L40.5448 -7.94831
L40.0531 -7.86471
z
" id="C0_1_4792b58d7d"/>
     <path d="
M16.543 -15.2417
L16.5673 -15.5151
L16.5871 -15.7943
L16.6028 -16.0788
L16.6148 -16.3683
L16.6236 -16.6625
L16.6296 -16.961
L16.6331 -17.2634
L16.6345 -17.5695
L16.6342 -17.8789
L16.6325 -18.1913
L16.6296 -18.5064
L16.626 -18.824
L16.6219 -19.1437
L16.6175 -19.4653
L16.613 -19.7885
L16.6088 -20.1131
L16.6048 -20.4389
L16.6015 -20.7656
L16.5988 -21.0931
L16.597 -21.4212
L16.5961 -21.7496
L16.5964 -22.0783
L16.5979 -22.407
L16.6006 -22.7356
L16.6048 -23.064
L16.6103 -23.3921
L16.6174 -23.7196
L16.6261 -24.0466
L16.6363 -24.3729
L16.6482 -24.6985
L16.6618 -25.0232
L16.677 -25.3469
L16.694 -25.6696
L16.7127 -25.9913
L16.7332 -26.3119
L16.7553 -26.6313
L16.7793 -26.9495
L16.805 -27.2665
L16.8324 -27.5821
L16.8616 -27.8965
L16.8925 -28.2096
L16.9252 -28.5213
L16.9595 -28.8317
L16.9956 -29.1407
L17.0334 -29.4483
L17.0728 -29.7546
L17.1139 -30.0595
L17.1567 -30.3631
L17.2012 -30.6653
L17.2472 -30.9661
L17.2949 -31.2657
L17.3442 -31.5639
L17.3951 -31.8608
L17.4475 -32.1564
L17.5016 -32.4508
L17.5572 -32.744
L17.6143 -33.0359
L17.673 -33.3267
L17.7332 -33.6163
L17.795 -33.9048
L17.8583 -34.1921
L17.923 -34.4785
L17.9893 -34.7637
L18.0571 -35.048
L18.1264 -35.3313
L18.1972 -35.6136
L18.2694 -35.8951
L18.3432 -36.1756
L18.4184 -36.4554
L18.4952 -36.7343
L18.5734 -37.0125
L18.6531 -37.2899
L18.7343 -37.5667
L18.8171 -37.8427
L18.9013 -38.1182
L18.9871 -38.3931
L19.0743 -38.6674
L19.1632 -38.9412
L19.2535 -39.2145
L19.3454 -39.4874
L19.4389 -39.7598
L19.5339 -40.0319
L19.6305 -40.3037
L19.7288 -40.5751
L19.8286 -40.8463
L19.9301 -41.1172
L20.0332 -41.3879
L20.1379 -41.6585
L20.2444 -41.9289
L20.3525 -42.1992
L20.4624 -42.4694
L20.574 -42.7396
L20.6873 -43.0098
L20.8024 -43.28
L20.9193 -43.5502
L21.038 -43.8204
L21.1585 -44.0908
L21.2809 -44.3613
L21.4052 -44.6319
L21.5313 -44.9027
L21.6594 -45.1736
L21.7894 -45.4448
L21.9214 -45.7162
L22.0553 -45.9879
L22.1912 -46.2598
L22.3292 -46.5319
L22.4692 -46.8044
L22.6112 -47.0771
L22.7554 -47.3502
L22.9016 -47.6236
L23.0499 -47.8973
L23.2003 -48.1713
L23.3528 -48.4457
L23.5075 -48.7204
L23.6644 -48.9955
L23.8233 -49.2708
L23.9845 -49.5465
L24.1477 -49.8225
L24.3131 -50.0988
L24.4807 -50.3754
L24.6504 -50.6523
L24.8221 -50.9294
L24.996 -51.2067
L25.1719 -51.4843
L25.3498 -51.7621
L25.5297 -52.04
L25.7116 -52.318
L25.8953 -52.5962
L26.0808 -52.8744
L26.2681 -53.1526
L26.4571 -53.4308
L26.6476 -53.7089
L26.8396 -53.9869
L27.033 -54.2648
L27.2276 -54.5425
L27.4233 -54.8198
L27.6199 -55.0969
L27.8174 -55.3736
L28.0154 -55.6499
L28.2139 -55.9256
L28.4125 -56.2009
L28.6111 -56.4755
L28.8095 -56.7495
L29.0073 -57.0227
L29.2043 -57.2952
L29.4001 -57.5668
L29.5945 -57.8375
L29.7872 -58.1073
L29.9776 -58.376
L30.1656 -58.6437
L30.3506 -58.9103
L30.5322 -59.1758
L30.7101 -59.44
L30.8838 -59.703
L31.0528 -59.9647
L31.2166 -60.225
L31.3748 -60.484
L31.5269 -60.7415
L31.6724 -60.9976
L31.8107 -61.2522
L31.9415 -61.5053
L32.0642 -61.7568
L32.1783 -62.0066
L32.2834 -62.2548
L32.3791 -62.5012
L32.4649 -62.7459
L32.5405 -62.9886
L32.6055 -63.2295
L32.6595 -63.4683
L32.7023 -63.705
L32.7335 -63.9395
L32.2432 -64.1716
L31.7507 -64.2513
L31.2595 -64.1814
L30.7698 -64.103
L30.2816 -64.016
L29.7952 -63.9204
L29.3107 -63.8164
L28.8282 -63.7039
L28.3479 -63.5829
L27.87 -63.4535
L27.3945 -63.3158
L26.9216 -63.1697
L26.4515 -63.0154
L25.9843 -62.8529
L25.5202 -62.6821
L25.0592 -62.5033
L24.6016 -62.3163
L24.1475 -62.1214
L23.6969 -61.9185
L23.2501 -61.7077
L22.8072 -61.489
L22.3684 -61.2626
L21.9336 -61.0285
L21.5032 -60.7868
L21.0771 -60.5376
L20.6557 -60.2808
L20.2388 -60.0167
L19.8268 -59.7452
L19.4198 -59.4665
L19.0177 -59.1807
L18.6209 -58.8878
L18.2293 -58.5879
L17.8431 -58.2812
L17.4625 -57.9677
L17.0875 -57.6474
L16.7183 -57.3206
L16.355 -56.9873
L15.9976 -56.6476
L15.6464 -56.3016
L15.3013 -55.9494
L14.9625 -55.5912
L14.6302 -55.2269
L14.3043 -54.8568
L13.9851 -54.481
L13.6726 -54.0996
L13.3668 -53.7126
L13.068 -53.3202
L12.7762 -52.9226
L12.4914 -52.5198
L12.2138 -52.112
L11.9434 -51.6992
L11.6804 -51.2817
L11.4247 -50.8595
L11.1766 -50.4328
L10.936 -50.0017
L10.7031 -49.5664
L10.4778 -49.1269
L10.2604 -48.6834
L10.0507 -48.236
L9.849 -47.785
L9.65525 -47.3303
L9.46951 -46.8722
L9.29186 -46.4107
L9.12235 -45.9461
L8.96102 -45.4785
L8.80792 -45.008
L8.66311 -44.5347
L8.52663 -44.0588
L8.39852 -43.5805
L8.27881 -43.0999
L8.16755 -42.6171
L8.06477 -42.1323
L7.97049 -41.6456
L7.88476 -41.1572
L7.80758 -40.6672
L7.739 -40.1758
L7.67902 -39.6832
L7.62767 -39.1894
L7.58497 -38.6946
L7.55092 -38.1991
L7.52553 -37.7028
L7.50882 -37.2061
L7.50079 -36.7089
L7.50143 -36.2116
L7.51076 -35.7142
L7.52877 -35.2168
L7.55545 -34.7198
L7.59079 -34.2231
L7.63479 -33.7269
L7.68743 -33.2314
L7.74869 -32.7368
L7.81856 -32.2432
L7.89701 -31.7507
L7.98403 -31.2595
L8.07957 -30.7698
L8.18362 -30.2816
L8.29615 -29.7952
L8.41711 -29.3107
L8.54648 -28.8282
L8.68421 -28.3479
L8.83026 -27.87
L8.98458 -27.3945
L9.14714 -26.9216
L9.31787 -26.4515
L9.49673 -25.9843
L9.68367 -25.5202
L9.87862 -25.0592
L10.0815 -24.6016
L10.2923 -24.1475
L10.511 -23.6969
L10.7374 -23.2501
L10.9715 -22.8072
L11.2132 -22.3684
L11.4624 -21.9336
L11.7192 -21.5032
L11.9833 -21.0771
L12.2548 -20.6557
L12.5335 -20.2388
L12.8193 -19.8268
L13.1122 -19.4198
L13.4121 -19.0177
L13.7188 -18.6209
L14.0323 -18.2293
L14.3526 -17.8431
L14.6794 -17.4625
L15.0127 -17.0875
L15.3524 -16.7183
L15.6984 -16.355
L16.0506 -15.9976
z
" id="C0_2_97d830c3d4"/>
    </defs>
    <g clip-path="url(#p1bffca34e9)">
     <use style="fill:#ff0000;stroke:#000000;stroke-width:2.0;" x="0.0" xlink:href="#C0_0_a811fe30f3" y="72.0"/>
    </g>
    <g clip-path="url(#p1bffca34e9)">
     <use style="fill:#ffffff;stroke:#000000;stroke-width:2.0;" x="0.0" xlink:href="#C0_1_4792b58d7d" y="72.0"/>
    </g>
    <g clip-path="url(#p1bffca34e9)">
     <use style="fill:#ffffff;stroke:#000000;stroke-width:2.0;" x="0.0" xlink:href="#C0_2_97d830c3d4" y="72.0"/>
    </g>
   </g>
  </g>
 </g>
 <defs>
  <clipPath id="p1bffca34e9">
   <rect height="72.0" width="72.0" x="0.0" y="0.0"/>
  </clipPath>
 </defs>
</svg>
