<?xml version="1.0" encoding="utf-8" standalone="no"?>
<!DOCTYPE svg PUBLIC "-//W3C//DTD SVG 1.1//EN"
  "http://www.w3.org/Graphics/SVG/1.1/DTD/svg11.dtd">
<!-- Created with matplotlib (http://matplotlib.org/) -->
<svg height="72pt" version="1.1" viewBox="0 0 72 72" width="72pt" xmlns="http://www.w3.org/2000/svg" xmlns:xlink="http://www.w3.org/1999/xlink">
 <defs>
  <style type="text/css">
*{stroke-linecap:butt;stroke-linejoin:round;}
  </style>
 </defs>
 <g id="figure_1">
  <g id="patch_1">
   <path d="
M0 72
L72 72
L72 0
L0 0
z
" style="fill:none;"/>
  </g>
  <g id="axes_1">
   <g id="PatchCollection_1">
    <defs>
     <path d="
M36 -7.5
C43.5583 -7.5 50.808 -10.5029 56.1525 -15.8475
C61.4971 -21.192 64.5 -28.4417 64.5 -36
C64.5 -43.5583 61.4971 -50.808 56.1525 -56.1525
C50.808 -61.4971 43.5583 -64.5 36 -64.5
C28.4417 -64.5 21.192 -61.4971 15.8475 -56.1525
C10.5029 -50.808 7.5 -43.5583 7.5 -36
C7.5 -28.4417 10.5029 -21.192 15.8475 -15.8475
C21.192 -10.5029 28.4417 -7.5 36 -7.5
z
" id="C0_0_a811fe30f3"/>
     <path d="
M59.8023 -51.6411
L59.5211 -51.6639
L59.2476 -51.6629
L58.982 -51.6387
L58.7244 -51.5922
L58.4745 -51.5242
L58.2323 -51.4358
L57.9973 -51.3282
L57.7692 -51.2024
L57.5476 -51.0598
L57.3319 -50.9016
L57.1217 -50.7289
L56.9165 -50.5432
L56.7157 -50.3454
L56.519 -50.1368
L56.3259 -49.9184
L56.1358 -49.6913
L55.9486 -49.4565
L55.7637 -49.2147
L55.5809 -48.967
L55.3999 -48.7139
L55.2204 -48.4563
L55.0422 -48.1948
L54.8651 -47.9301
L54.6889 -47.6625
L54.5136 -47.3928
L54.3389 -47.1213
L54.1648 -46.8484
L53.9912 -46.5745
L53.818 -46.3
L53.6452 -46.0252
L53.4726 -45.7503
L53.3004 -45.4757
L53.1284 -45.2015
L52.9566 -44.9279
L52.785 -44.6551
L52.6137 -44.3834
L52.4425 -44.1128
L52.2716 -43.8434
L52.1008 -43.5754
L51.9303 -43.3089
L51.7599 -43.0439
L51.5898 -42.7805
L51.4199 -42.5189
L51.2502 -42.2589
L51.0807 -42.0008
L50.9115 -41.7444
L50.7426 -41.4899
L50.5738 -41.2373
L50.4053 -40.9865
L50.2371 -40.7376
L50.0691 -40.4906
L49.9014 -40.2454
L49.7339 -40.0021
L49.5667 -39.7607
L49.3997 -39.521
L49.233 -39.2832
L49.0664 -39.0472
L48.9001 -38.813
L48.7341 -38.5805
L48.5682 -38.3497
L48.4025 -38.1206
L48.237 -37.8931
L48.0717 -37.6672
L47.9065 -37.4429
L47.7415 -37.2202
L47.5766 -36.9989
L47.4118 -36.7792
L47.2471 -36.5608
L47.0824 -36.3438
L46.9178 -36.1281
L46.7533 -35.9138
L46.5887 -35.7007
L46.4241 -35.4888
L46.2595 -35.2781
L46.0948 -35.0685
L45.93 -34.86
L45.7651 -34.6525
L45.6001 -34.446
L45.4349 -34.2405
L45.2695 -34.0359
L45.1038 -33.8321
L44.9379 -33.6292
L44.7718 -33.4271
L44.6053 -33.2257
L44.4384 -33.025
L44.2712 -32.8249
L44.1036 -32.6255
L43.9356 -32.4267
L43.767 -32.2283
L43.4284 -32.0305
L43.2583 -31.8331
L43.0876 -31.6361
L42.9162 -31.4395
L42.7441 -31.2433
L42.5713 -31.0473
L42.3978 -30.8515
L42.2235 -30.656
L42.0483 -30.4606
L41.8723 -30.2654
L41.6954 -30.0703
L41.5176 -29.8752
L41.3388 -29.6802
L41.159 -29.4851
L40.9781 -29.29
L40.7961 -29.0948
L40.613 -28.8995
L40.4287 -28.7041
L40.2433 -28.5084
L40.0565 -28.3126
L39.8685 -28.1164
L39.6791 -27.92
L39.4884 -27.7233
L39.2963 -27.5262
L39.1027 -27.3288
L38.9076 -27.1309
L38.7111 -26.9326
L38.5129 -26.7339
L38.3132 -26.5346
L38.1118 -26.3349
L37.9087 -26.1346
L37.704 -25.9337
L37.4975 -25.7323
L37.2892 -25.5303
L37.0791 -25.3276
L36.8672 -25.1243
L36.6535 -24.9203
L36.4379 -24.7157
L36.2204 -24.5104
L36.0009 -24.3043
L35.7796 -24.0976
L35.5563 -23.8901
L35.331 -23.6819
L35.1038 -23.473
L34.8747 -23.2633
L34.6436 -23.0529
L34.4106 -22.8418
L34.1757 -22.6299
L33.9389 -22.4172
L33.7002 -22.2039
L33.4598 -21.9898
L33.2177 -21.775
L32.9738 -21.5595
L32.7284 -21.3433
L32.4815 -21.1264
L32.2332 -20.9088
L31.9836 -20.6906
L31.7328 -20.4718
L31.4811 -20.2523
L31.2286 -20.0322
L30.9754 -19.8116
L30.7219 -19.5903
L30.4681 -19.3685
L30.2146 -19.1461
L29.9614 -18.9231
L29.709 -18.6996
L29.4578 -18.4755
L29.208 -18.2507
L28.9603 -18.0254
L28.7151 -17.7994
L28.4729 -17.5727
L28.2344 -17.3452
L28.0001 -17.1169
L27.7709 -16.8876
L27.5474 -16.6573
L27.3305 -16.4258
L27.121 -16.193
L26.92 -15.9586
L26.7285 -15.7225
L26.5474 -15.4846
L26.378 -15.2445
L26.2214 -15.002
L26.0787 -14.7569
L25.9512 -14.509
L25.8401 -14.2579
L25.7465 -14.0036
L25.6716 -13.7457
L25.6165 -13.4841
L25.5819 -13.2188
L25.5689 -12.9496
L25.578 -12.6767
L25.6098 -12.4002
L25.6647 -12.1201
L25.7427 -11.837
L25.844 -11.5511
L25.9683 -11.2629
L26.1153 -10.9729
L26.2847 -10.6818
L26.4757 -10.3902
L26.6878 -10.0988
L26.9201 -9.80824
L27.172 -9.51934
L27.4425 -9.23279
L27.8794 -8.9493
L28.3574 -8.68139
L28.8378 -8.54383
L29.3203 -8.41463
L29.8049 -8.29384
L30.2913 -8.18148
L30.7795 -8.07759
L31.2693 -7.98222
L31.7605 -7.89537
L32.253 -7.81709
L32.7466 -7.74739
L33.2413 -7.6863
L33.7367 -7.63383
L34.2329 -7.59001
L34.7296 -7.55484
L35.2267 -7.52833
L35.724 -7.51049
L36.2214 -7.50134
L36.7188 -7.50086
L37.2159 -7.50907
L37.7127 -7.52595
L38.2089 -7.55151
L38.7045 -7.58573
L39.1992 -7.62861
L39.693 -7.68013
L40.1856 -7.74028
L40.677 -7.80903
L41.1669 -7.88637
L41.6553 -7.97228
L42.1419 -8.06672
L42.6267 -8.16967
L43.1094 -8.2811
L43.59 -8.40098
L44.0683 -8.52926
L44.5441 -8.66591
L45.0173 -8.81088
L45.4878 -8.96414
L45.9554 -9.12563
L46.4199 -9.29531
L46.8813 -9.47312
L47.3393 -9.65901
L47.7939 -9.85293
L48.245 -10.0548
L48.6922 -10.2646
L49.1356 -10.4822
L49.5751 -10.7076
L50.0103 -10.9407
L50.4413 -11.1814
L50.868 -11.4297
L51.29 -11.6855
L51.7075 -11.9487
L52.1201 -12.2192
L52.5278 -12.497
L52.9305 -12.7819
L53.3281 -13.0739
L53.7203 -13.3728
L54.1072 -13.6787
L54.4885 -13.9914
L54.8642 -14.3107
L55.2342 -14.6367
L55.5983 -14.9692
L55.9565 -15.3081
L56.3085 -15.6533
L56.6544 -16.0046
L56.994 -16.3621
L57.3272 -16.7256
L57.6539 -17.0949
L57.9739 -17.47
L58.2873 -17.8507
L58.594 -18.237
L58.8937 -18.6287
L59.1864 -19.0256
L59.4721 -19.4278
L59.7507 -19.835
L60.022 -20.2471
L60.286 -20.664
L60.5426 -21.0855
L60.7917 -21.5117
L61.0333 -21.9422
L61.2672 -22.377
L61.4935 -22.816
L61.7119 -23.259
L61.9226 -23.7058
L62.1253 -24.1564
L62.3201 -24.6107
L62.5069 -25.0683
L62.6856 -25.5294
L62.8562 -25.9936
L63.0186 -26.4608
L63.1727 -26.931
L63.3186 -27.4039
L63.4562 -27.8794
L63.5854 -28.3574
L63.7062 -28.8378
L63.8185 -29.3203
L63.9224 -29.8049
L64.0178 -30.2913
L64.1046 -30.7795
L64.1829 -31.2693
L64.2526 -31.7605
L64.3137 -32.253
L64.3662 -32.7466
L64.41 -33.2413
L64.4452 -33.7367
L64.4717 -34.2329
L64.4895 -34.7296
L64.4987 -35.2267
L64.4991 -35.724
L64.4909 -36.2214
L64.4741 -36.7188
L64.4485 -37.2159
L64.4143 -37.7127
L64.3714 -38.2089
L64.3199 -38.7045
L64.2597 -39.1992
L64.191 -39.693
L64.1136 -40.1856
L64.0277 -40.677
L63.9333 -41.1669
L63.8303 -41.6553
L63.7189 -42.1419
L63.599 -42.6267
L63.4707 -43.1094
L63.3341 -43.59
L63.1891 -44.0683
L63.0359 -44.5441
L62.8744 -45.0173
L62.7047 -45.4878
L62.5269 -45.9554
L62.341 -46.4199
L62.1471 -46.8813
L61.9452 -47.3393
L61.7354 -47.7939
L61.5178 -48.245
L61.2924 -48.6922
L61.0593 -49.1356
L60.8186 -49.5751
L60.5703 -50.0103
L60.3145 -50.4413
z
" id="C0_1_ca669c5be0"/>
     <path d="
M44.2379 -63.2269
L43.8351 -63.1589
L43.4273 -63.0897
L43.0152 -63.0186
L42.5999 -62.9454
L42.1822 -62.8694
L41.7627 -62.7905
L41.3423 -62.7084
L40.9217 -62.6228
L40.5013 -62.5336
L40.0817 -62.4405
L39.6635 -62.3436
L39.2471 -62.2428
L38.8329 -62.1379
L38.4213 -62.0291
L38.0125 -61.9164
L37.607 -61.7997
L37.2049 -61.6791
L36.8065 -61.5548
L36.4119 -61.4267
L36.0214 -61.295
L35.635 -61.1598
L35.253 -61.0211
L34.8754 -60.8791
L34.5023 -60.7339
L34.1337 -60.5855
L33.7698 -60.4342
L33.4105 -60.28
L33.0559 -60.123
L32.706 -59.9633
L32.3607 -59.801
L32.0202 -59.6363
L31.6843 -59.4692
L31.353 -59.2998
L31.0263 -59.1282
L30.7042 -58.9546
L30.3866 -58.7789
L30.0735 -58.6013
L29.7648 -58.4218
L29.4604 -58.2405
L29.1603 -58.0576
L28.8645 -57.8729
L28.5728 -57.6867
L28.2852 -57.4988
L28.0017 -57.3095
L27.7221 -57.1188
L27.4463 -56.9266
L27.1744 -56.7331
L26.9063 -56.5382
L26.6418 -56.342
L26.3808 -56.1445
L26.1235 -55.9458
L25.8695 -55.7458
L25.619 -55.5446
L25.3717 -55.3422
L25.1277 -55.1386
L24.8869 -54.9338
L24.6491 -54.7278
L24.4144 -54.5206
L24.1827 -54.3122
L23.9539 -54.1027
L23.7279 -53.892
L23.5047 -53.68
L23.2842 -53.4669
L23.0664 -53.2525
L22.8512 -53.0369
L22.6385 -52.82
L22.4283 -52.6019
L22.2206 -52.3825
L22.0153 -52.1617
L21.8123 -51.9396
L21.6116 -51.7162
L21.4132 -51.4913
L21.2169 -51.265
L21.0229 -51.0373
L20.8309 -50.808
L20.641 -50.5773
L20.4532 -50.3449
L20.2674 -50.111
L20.0836 -49.8754
L19.9017 -49.6381
L19.7218 -49.3991
L19.5437 -49.1584
L19.3675 -48.9158
L19.1932 -48.6713
L19.0207 -48.425
L18.8499 -48.1766
L18.681 -47.9263
L18.5138 -47.6739
L18.3484 -47.4194
L18.1847 -47.1627
L18.0228 -46.9038
L17.8626 -46.6426
L17.7041 -46.379
L17.5473 -46.1131
L17.3923 -45.8447
L17.239 -45.5738
L17.0874 -45.3003
L16.9375 -45.0242
L16.7894 -44.7453
L16.6431 -44.4637
L16.4985 -44.1793
L16.3558 -43.892
L16.2148 -43.6017
L16.0757 -43.3084
L15.9385 -43.0121
L15.8032 -42.7126
L15.6698 -42.4099
L15.5384 -42.104
L15.409 -41.7947
L15.2816 -41.482
L15.1563 -41.166
L15.0332 -40.8464
L14.9123 -40.5233
L14.7936 -40.1965
L14.6772 -39.8662
L14.5632 -39.5321
L14.4517 -39.1943
L14.3426 -38.8528
L14.2362 -38.5074
L14.1323 -38.1582
L14.0312 -37.8051
L13.9329 -37.4482
L13.8374 -37.0874
L13.745 -36.7227
L13.6555 -36.3541
L13.5692 -35.9816
L13.486 -35.6053
L13.4062 -35.2252
L13.3297 -34.8413
L13.2566 -34.4537
L13.1871 -34.0624
L13.1211 -33.6676
L13.0588 -33.2693
L13.0002 -32.8677
L12.9453 -32.4629
L12.8942 -32.0551
L12.847 -31.6443
L12.8036 -31.2309
L12.7641 -30.8151
L12.7283 -30.397
L12.6963 -29.977
L12.6681 -29.5554
L12.6434 -29.1324
L12.6222 -28.7086
L12.6043 -28.2842
L12.5896 -27.8597
L12.5777 -27.4355
L12.5684 -27.0123
L12.5613 -26.5904
L12.5561 -26.1706
L12.5522 -25.7534
L12.5491 -25.3395
L12.5464 -24.9296
L12.5432 -24.5245
L12.5389 -24.1249
L12.5327 -23.7318
L12.5238 -23.3458
L12.5112 -22.9679
L12.4941 -22.599
L12.4714 -22.2399
L12.4423 -21.8915
L12.4056 -21.5547
L12.3606 -21.2303
L12.3063 -20.919
L11.8082 -20.6216
L11.5489 -20.9333
L11.2971 -21.3578
L11.0528 -21.7868
L10.8161 -22.2201
L10.5871 -22.6576
L10.3658 -23.0991
L10.1523 -23.5446
L9.94672 -23.9939
L9.74905 -24.4468
L9.55939 -24.9033
L9.37777 -25.3631
L9.20427 -25.8262
L9.03893 -26.2923
L8.8818 -26.7615
L8.73293 -27.2334
L8.59237 -27.708
L8.46016 -28.1852
L8.33633 -28.6647
L8.22093 -29.1464
L8.114 -29.6303
L8.01556 -30.116
L7.92564 -30.6036
L7.84427 -31.0928
L7.77148 -31.5836
L7.70729 -32.0756
L7.65172 -32.5689
L7.60478 -33.0632
L7.56649 -33.5584
L7.53687 -34.0543
L7.51591 -34.5508
L7.50363 -35.0478
L7.50003 -35.5451
L7.50511 -36.0425
L7.51887 -36.5398
L7.54131 -37.0371
L7.57242 -37.534
L7.61218 -38.0304
L7.66059 -38.5262
L7.71764 -39.0213
L7.7833 -39.5154
L7.85755 -40.0085
L7.94038 -40.5003
L8.03176 -40.9908
L8.13165 -41.4797
L8.24003 -41.967
L8.35687 -42.4525
L8.48213 -42.936
L8.61577 -43.4173
L8.75776 -43.8965
L8.90804 -44.3732
L9.06657 -44.8473
L9.23331 -45.3188
L9.4082 -45.7875
L9.59119 -46.2531
L9.78223 -46.7156
L9.98125 -47.1749
L10.1882 -47.6308
L10.403 -48.0831
L10.6256 -48.5317
L10.856 -48.9765
L11.0939 -49.4174
L11.3395 -49.8542
L11.5926 -50.2867
L11.8532 -50.715
L12.121 -51.1387
L12.3962 -51.5578
L12.6785 -51.9722
L12.968 -52.3817
L13.2645 -52.7862
L13.5679 -53.1856
L13.8781 -53.5798
L14.195 -53.9686
L14.5187 -54.3519
L14.8488 -54.7297
L15.1854 -55.1017
L15.5283 -55.468
L15.8775 -55.8283
L16.2328 -56.1825
L16.5941 -56.5307
L16.9613 -56.8725
L17.3344 -57.208
L17.7131 -57.5371
L18.0974 -57.8595
L18.4871 -58.1754
L18.8822 -58.4844
L19.2825 -58.7866
L19.6879 -59.0819
L20.0982 -59.3702
L20.5134 -59.6513
L20.9333 -59.9252
L21.3578 -60.1918
L21.7868 -60.4511
L22.2201 -60.7029
L22.6576 -60.9472
L23.0991 -61.1839
L23.5446 -61.4129
L23.9939 -61.6342
L24.4468 -61.8477
L24.9033 -62.0533
L25.3631 -62.2509
L25.8262 -62.4406
L26.2923 -62.6222
L26.7615 -62.7957
L27.2334 -62.9611
L27.708 -63.1182
L28.1852 -63.2671
L28.6647 -63.4076
L29.1464 -63.5398
L29.6303 -63.6637
L30.116 -63.7791
L30.6036 -63.886
L31.0928 -63.9844
L31.5836 -64.0744
L32.0756 -64.1557
L32.5689 -64.2285
L33.0632 -64.2927
L33.5584 -64.3483
L34.0543 -64.3952
L34.5508 -64.4335
L35.0478 -64.4631
L35.5451 -64.4841
L36.0425 -64.4964
L36.5398 -64.5
L37.0371 -64.4949
L37.534 -64.4811
L38.0304 -64.4587
L38.5262 -64.4276
L39.0213 -64.3878
L39.5154 -64.3394
L40.0085 -64.2824
L40.5003 -64.2167
L40.9908 -64.1424
L41.4797 -64.0596
L41.967 -63.9682
L42.4525 -63.8683
L42.936 -63.76
L43.4173 -63.6431
z
" id="C0_2_bc158252df"/>
    </defs>
    <g clip-path="url(#p1bffca34e9)">
     <use style="fill:#ff0000;stroke:#000000;stroke-width:2.0;" x="0.0" xlink:href="#C0_0_a811fe30f3" y="72.0"/>
    </g>
    <g clip-path="url(#p1bffca34e9)">
     <use style="fill:#ffffff;stroke:#000000;stroke-width:2.0;" x="0.0" xlink:href="#C0_1_ca669c5be0" y="72.0"/>
    </g>
    <g clip-path="url(#p1bffca34e9)">
     <use style="fill:#ffffff;stroke:#000000;stroke-width:2.0;" x="0.0" xlink:href="#C0_2_bc158252df" y="72.0"/>
    </g>
   </g>
  </g>
 </g>
 <defs>
  <clipPath id="p1bffca34e9">
   <rect height="72.0" width="72.0" x="0.0" y="0.0"/>
  </clipPath>
 </defs>
</svg>
