<?xml version="1.0" encoding="utf-8" standalone="no"?>
<!DOCTYPE svg PUBLIC "-//W3C//DTD SVG 1.1//EN"
  "http://www.w3.org/Graphics/SVG/1.1/DTD/svg11.dtd">
<!-- Created with matplotlib (http://matplotlib.org/) -->
<svg height="72pt" version="1.1" viewBox="0 0 72 72" width="72pt" xmlns="http://www.w3.org/2000/svg" xmlns:xlink="http://www.w3.org/1999/xlink">
 <defs>
  <style type="text/css">
*{stroke-linecap:butt;stroke-linejoin:round;}
  </style>
 </defs>
 <g id="figure_1">
  <g id="patch_1">
   <path d="
M0 72
L72 72
L72 0
L0 0
z
" style="fill:none;"/>
  </g>
  <g id="axes_1">
   <g id="PatchCollection_1">
    <defs>
     <path d="
M36 -7.5
C43.5583 -7.5 50.808 -10.5029 56.1525 -15.8475
C61.4971 -21.192 64.5 -28.4417 64.5 -36
C64.5 -43.5583 61.4971 -50.808 56.1525 -56.1525
C50.808 -61.4971 43.5583 -64.5 36 -64.5
C28.4417 -64.5 21.192 -61.4971 15.8475 -56.1525
C10.5029 -50.808 7.5 -43.5583 7.5 -36
C7.5 -28.4417 10.5029 -21.192 15.8475 -15.8475
C21.192 -10.5029 28.4417 -7.5 36 -7.5
z
" id="C0_0_a811fe30f3"/>
     <path d="
M61.4779 -48.5798
L61.304 -48.505
L61.1298 -48.4285
L60.9554 -48.3503
L60.7807 -48.2705
L60.6056 -48.1891
L60.4302 -48.1061
L60.2543 -48.0216
L60.0781 -47.9354
L59.7242 -47.8478
L59.5465 -47.7586
L59.3682 -47.6679
L59.1895 -47.5757
L59.0101 -47.4819
L58.8301 -47.3867
L58.6494 -47.2899
L58.4681 -47.1917
L58.286 -47.0919
L58.1033 -46.9906
L57.9198 -46.8878
L57.7355 -46.7835
L57.5504 -46.6776
L57.3644 -46.5702
L57.1776 -46.4612
L56.99 -46.3507
L56.8014 -46.2386
L56.6119 -46.1249
L56.4214 -46.0096
L56.2299 -45.8927
L56.0375 -45.7742
L55.844 -45.6539
L55.6495 -45.532
L55.4539 -45.4084
L55.2573 -45.2831
L55.0595 -45.156
L54.8607 -45.0272
L54.6607 -44.8965
L54.4596 -44.7641
L54.2573 -44.6298
L54.0539 -44.4936
L53.8493 -44.3555
L53.6435 -44.2155
L53.4366 -44.0736
L53.2284 -43.9296
L53.0191 -43.7836
L52.8086 -43.6356
L52.597 -43.4855
L52.3842 -43.3333
L52.1702 -43.179
L51.9551 -43.0225
L51.7389 -42.8637
L51.5216 -42.7027
L51.3033 -42.5395
L51.0839 -42.3739
L50.8635 -42.206
L50.6422 -42.0357
L50.42 -41.863
L50.1969 -41.6878
L49.9731 -41.5101
L49.7485 -41.33
L49.5233 -41.1472
L49.2975 -40.9619
L49.0712 -40.7739
L48.8445 -40.5833
L48.6175 -40.39
L48.3903 -40.194
L48.1631 -39.9952
L47.9359 -39.7936
L47.7088 -39.5892
L47.4822 -39.3819
L47.2559 -39.1718
L47.0303 -38.9587
L46.8056 -38.7427
L46.5817 -38.5237
L46.3591 -38.3017
L46.1378 -38.0767
L45.9181 -37.8486
L45.7001 -37.6175
L45.4842 -37.3833
L45.2704 -37.1459
L45.0592 -36.9055
L44.8506 -36.6619
L44.6449 -36.4151
L44.4424 -36.1652
L44.2433 -35.9122
L44.0479 -35.656
L43.8565 -35.3966
L43.6692 -35.1341
L43.4863 -34.8685
L43.3081 -34.5998
L43.1348 -34.328
L42.9666 -34.0532
L42.8037 -33.7754
L42.6463 -33.4947
L42.4947 -33.211
L42.3489 -32.9246
L42.2091 -32.6354
L42.0756 -32.3435
L41.9482 -32.0491
L41.8273 -31.7523
L41.7127 -31.453
L41.6047 -31.1516
L41.5032 -30.848
L41.4082 -30.5425
L41.3196 -30.2352
L41.2376 -29.9262
L41.1619 -29.6157
L41.0926 -29.3039
L41.0295 -28.9909
L40.9726 -28.6769
L40.9217 -28.3621
L40.8766 -28.0466
L40.8373 -27.7306
L40.8036 -27.4144
L40.7753 -27.098
L40.7522 -26.7817
L40.7343 -26.4656
L40.7212 -26.1499
L40.7129 -25.8348
L40.7092 -25.5204
L40.7098 -25.2068
L40.7146 -24.8943
L40.7235 -24.583
L40.7362 -24.2729
L40.7526 -23.9643
L40.7726 -23.6573
L40.7959 -23.3519
L40.8224 -23.0483
L40.852 -22.7466
L40.8846 -22.4469
L40.9199 -22.1493
L40.9578 -21.8538
L40.9983 -21.5605
L41.0413 -21.2695
L41.0865 -20.9809
L41.1338 -20.6947
L41.1833 -20.411
L41.2347 -20.1297
L41.2881 -19.8511
L41.3432 -19.5749
L41.4 -19.3014
L41.4585 -19.0306
L41.5185 -18.7624
L41.58 -18.4968
L41.6429 -18.2339
L41.7072 -17.9737
L41.7728 -17.7162
L41.8396 -17.4614
L41.9077 -17.2092
L41.9769 -16.9598
L42.0472 -16.713
L42.1186 -16.4688
L42.191 -16.2273
L42.2645 -15.9885
L42.3389 -15.7522
L42.4143 -15.5186
L42.4906 -15.2875
L42.5678 -15.059
L42.6459 -14.833
L42.7249 -14.6095
L42.8047 -14.3885
L42.8854 -14.17
L42.9669 -13.9539
L43.0493 -13.7402
L43.1325 -13.529
L43.2165 -13.32
L43.3014 -13.1135
L43.387 -12.9092
L43.4735 -12.7072
L43.5609 -12.5075
L43.649 -12.31
L43.7381 -12.1147
L43.8279 -11.9216
L43.9187 -11.7307
L44.0103 -11.5419
L44.1029 -11.3553
L44.1963 -11.1707
L44.2907 -10.9882
L44.3861 -10.8078
L44.4824 -10.6294
L44.5798 -10.4531
L44.6782 -10.2787
L44.7776 -10.1064
L44.8781 -9.93601
L44.9798 -9.76762
L45.0826 -9.60119
L45.1865 -9.43671
L45.2917 -9.27419
L45.7778 -9.1136
L46.2436 -9.2298
L46.7062 -9.40452
L47.1655 -9.58735
L47.6214 -9.77822
L48.0738 -9.97708
L48.5225 -10.1839
L48.9674 -10.3985
L49.4084 -10.621
L49.8452 -10.8511
L50.2779 -11.089
L50.7062 -11.3344
L51.13 -11.5873
L51.5492 -11.8477
L51.9637 -12.1155
L52.3733 -12.3905
L52.7779 -12.6727
L53.1775 -12.962
L53.5717 -13.2583
L53.9607 -13.5615
L54.3441 -13.8716
L54.722 -14.1885
L55.0942 -14.5119
L55.4605 -14.8419
L55.8209 -15.1784
L56.1753 -15.5212
L56.5236 -15.8703
L56.8655 -16.2254
L57.2012 -16.5866
L57.5304 -16.9537
L57.853 -17.3266
L58.1689 -17.7052
L58.4781 -18.0894
L58.7805 -18.4791
L59.0759 -18.874
L59.3643 -19.2742
L59.6456 -19.6795
L59.9196 -20.0897
L60.1864 -20.5048
L60.4458 -20.9246
L60.6978 -21.349
L60.9423 -21.7779
L61.1791 -22.2111
L61.4083 -22.6485
L61.6297 -23.09
L61.8434 -23.5354
L62.0491 -23.9846
L62.247 -24.4375
L62.4368 -24.8938
L62.6186 -25.3536
L62.7922 -25.8166
L62.9578 -26.2827
L63.1151 -26.7518
L63.2641 -27.2237
L63.4048 -27.6982
L63.5372 -28.1753
L63.6612 -28.6548
L63.7768 -29.1365
L63.8839 -29.6203
L63.9825 -30.106
L64.0726 -30.5936
L64.1541 -31.0828
L64.2271 -31.5734
L64.2915 -32.0655
L64.3472 -32.5587
L64.3943 -33.053
L64.4328 -33.5482
L64.4626 -34.0441
L64.4837 -34.5406
L64.4962 -35.0376
L64.5 -35.5348
L64.4951 -36.0322
L64.4815 -36.5296
L64.4592 -37.0268
L64.4283 -37.5238
L64.3887 -38.0202
L64.3405 -38.516
L64.2836 -39.0111
L64.2181 -39.5053
L64.1441 -39.9983
L64.0614 -40.4902
L63.9702 -40.9807
L63.8705 -41.4697
L63.7623 -41.957
L63.6456 -42.4425
L63.5205 -42.926
L63.3871 -43.4075
L63.2452 -43.8866
L63.0951 -44.3634
L62.9368 -44.8376
L62.7702 -45.3092
L62.5955 -45.7778
L62.4127 -46.2436
L62.2218 -46.7062
L62.0229 -47.1655
L61.8161 -47.6214
z
" id="C0_1_4864dacaef"/>
     <path d="
M26.6883 -62.7961
L26.7029 -62.6039
L26.7174 -62.4103
L26.7318 -62.2154
L26.746 -62.0192
L26.7601 -61.8216
L26.7741 -61.6225
L26.788 -61.4221
L26.8018 -61.2202
L26.8155 -61.0168
L26.8291 -60.8119
L26.8427 -60.6055
L26.8562 -60.3976
L26.8696 -60.188
L26.8829 -59.9769
L26.8962 -59.7641
L26.9094 -59.5496
L26.9226 -59.3334
L26.9357 -59.1155
L26.9488 -58.8958
L26.9618 -58.6743
L26.9747 -58.451
L26.9876 -58.2258
L27.0004 -57.9988
L27.0131 -57.7698
L27.0257 -57.5388
L27.0383 -57.3059
L27.0508 -57.071
L27.0631 -56.834
L27.0754 -56.5949
L27.0875 -56.3537
L27.0995 -56.1104
L27.1114 -55.865
L27.1231 -55.6173
L27.1346 -55.3674
L27.1459 -55.1153
L27.157 -54.8609
L27.1678 -54.6043
L27.1784 -54.3453
L27.1887 -54.084
L27.1987 -53.8204
L27.2083 -53.5544
L27.2175 -53.286
L27.2264 -53.0153
L27.2347 -52.7422
L27.2426 -52.4667
L27.2499 -52.1888
L27.2567 -51.9085
L27.2628 -51.6258
L27.2682 -51.3408
L27.2729 -51.0534
L27.2767 -50.7637
L27.2797 -50.4717
L27.2818 -50.1774
L27.2828 -49.8808
L27.2827 -49.582
L27.2815 -49.281
L27.2789 -48.978
L27.275 -48.6728
L27.2697 -48.3656
L27.2628 -48.0565
L27.2541 -47.7455
L27.2437 -47.4328
L27.2314 -47.1183
L27.2171 -46.8022
L27.2005 -46.4847
L27.1817 -46.1657
L27.1604 -45.8454
L27.1365 -45.524
L27.1098 -45.2016
L27.0802 -44.8782
L27.0475 -44.5541
L27.0117 -44.2294
L26.9723 -43.9042
L26.9295 -43.5787
L26.8829 -43.2531
L26.8323 -42.9275
L26.7777 -42.6022
L26.7189 -42.2771
L26.6557 -41.9527
L26.5879 -41.629
L26.5154 -41.3061
L26.4381 -40.9844
L26.3558 -40.6639
L26.2685 -40.3449
L26.176 -40.0274
L26.0782 -39.7117
L25.9752 -39.398
L25.8667 -39.0863
L25.7528 -38.7769
L25.6336 -38.4698
L25.5089 -38.1652
L25.3789 -37.8632
L25.2435 -37.564
L25.1029 -37.2676
L24.9571 -36.9742
L24.8062 -36.6837
L24.6504 -36.3964
L24.4898 -36.1123
L24.3246 -35.8314
L24.155 -35.5537
L23.9811 -35.2794
L23.8031 -35.0084
L23.6213 -34.7409
L23.4358 -34.4767
L23.2469 -34.2159
L23.0548 -33.9586
L22.8597 -33.7047
L22.6618 -33.4542
L22.4615 -33.2072
L22.2588 -32.9635
L22.054 -32.7233
L21.8474 -32.4864
L21.6392 -32.2529
L21.4294 -32.0228
L21.2185 -31.7959
L21.0065 -31.5724
L20.7936 -31.3521
L20.58 -31.135
L20.3659 -30.9211
L20.1514 -30.7104
L19.9367 -30.5028
L19.7219 -30.2984
L19.5072 -30.097
L19.2926 -29.8986
L19.0784 -29.7032
L18.8646 -29.5108
L18.6513 -29.3213
L18.4386 -29.1346
L18.2266 -28.9508
L18.0154 -28.7699
L17.8051 -28.5917
L17.5956 -28.4162
L17.3872 -28.2434
L17.1797 -28.0733
L16.9734 -27.9058
L16.7682 -27.7409
L16.5641 -27.5785
L16.3613 -27.4186
L16.1596 -27.2612
L15.9593 -27.1063
L15.7601 -26.9537
L15.5623 -26.8035
L15.3658 -26.6556
L15.1706 -26.5101
L14.9767 -26.3667
L14.7841 -26.2257
L14.5929 -26.0868
L14.4029 -25.95
L14.2143 -25.8155
L14.027 -25.683
L13.841 -25.5526
L13.6563 -25.4242
L13.4728 -25.2979
L13.2907 -25.1735
L13.1098 -25.0512
L12.9301 -24.9307
L12.7516 -24.8122
L12.5743 -24.6956
L12.3982 -24.5809
L12.2233 -24.468
L12.0495 -24.3569
L11.8768 -24.2477
L11.7052 -24.1403
L11.5347 -24.0347
L11.3652 -23.9308
L11.1967 -23.8287
L11.0292 -23.7284
L10.8627 -23.6298
L10.6972 -23.533
L10.2242 -23.4378
L10.0159 -23.8404
L9.81551 -24.2921
L9.62311 -24.7473
L9.43875 -25.206
L9.26248 -25.668
L9.09435 -26.1331
L8.93442 -26.6013
L8.78273 -27.0723
L8.63933 -27.546
L8.50427 -28.0223
L8.37758 -28.501
L8.25931 -28.982
L8.14948 -29.4652
L8.04814 -29.9503
L7.95532 -30.4373
L7.87104 -30.926
L7.79532 -31.4162
L7.7282 -31.9078
L7.66969 -32.4007
L7.61981 -32.8946
L7.57857 -33.3895
L7.54599 -33.8852
L7.52208 -34.3816
L7.50684 -34.8784
L7.50028 -35.3756
L7.50241 -35.873
L7.51321 -36.3704
L7.53269 -36.8677
L7.56084 -37.3647
L7.59766 -37.8613
L7.64313 -38.3574
L7.69723 -38.8527
L7.75996 -39.3471
L7.83129 -39.8406
L7.9112 -40.3329
L7.99966 -40.8238
L8.09666 -41.3133
L8.20215 -41.8012
L8.31611 -42.2873
L8.43851 -42.7714
L8.5693 -43.2536
L8.70844 -43.7335
L8.8559 -44.211
L9.01163 -44.6861
L9.17557 -45.1585
L9.34769 -45.6281
L9.52793 -46.0948
L9.71623 -46.5584
L9.91254 -47.0188
L10.1168 -47.4758
L10.3289 -47.9294
L10.5489 -48.3793
L10.7766 -48.8254
L11.012 -49.2676
L11.255 -49.7058
L11.5055 -50.1398
L11.7635 -50.5695
L12.0289 -50.9948
L12.3016 -51.4155
L12.5815 -51.8315
L12.8686 -52.2427
L13.1627 -52.6489
L13.4637 -53.0501
L13.7716 -53.4461
L14.0863 -53.8367
L14.4076 -54.2219
L14.7356 -54.6016
L15.07 -54.9756
L15.4108 -55.3438
L15.7578 -55.7062
L16.111 -56.0625
L16.4703 -56.4127
L16.8356 -56.7567
L17.2066 -57.0944
L17.5834 -57.4257
L17.9658 -57.7504
L18.3537 -58.0685
L18.747 -58.3799
L19.1455 -58.6844
L19.5492 -58.9821
L19.9578 -59.2727
L20.3714 -59.5563
L20.7897 -59.8327
L21.2127 -60.1018
L21.6401 -60.3636
L22.0719 -60.618
L22.508 -60.8648
L22.9482 -61.1041
L23.3924 -61.3358
L23.8404 -61.5597
L24.2921 -61.7758
L24.7473 -61.9841
L25.206 -62.1845
L25.668 -62.3769
L26.1331 -62.5612
z
" id="C0_2_c0e7803d06"/>
    </defs>
    <g clip-path="url(#p1bffca34e9)">
     <use style="fill:#ffffff;stroke:#000000;stroke-width:2.0;" x="0.0" xlink:href="#C0_0_a811fe30f3" y="72.0"/>
    </g>
    <g clip-path="url(#p1bffca34e9)">
     <use style="fill:#ff0000;stroke:#000000;stroke-width:2.0;" x="0.0" xlink:href="#C0_1_4864dacaef" y="72.0"/>
    </g>
    <g clip-path="url(#p1bffca34e9)">
     <use style="fill:#ff0000;stroke:#000000;stroke-width:2.0;" x="0.0" xlink:href="#C0_2_c0e7803d06" y="72.0"/>
    </g>
   </g>
  </g>
 </g>
 <defs>
  <clipPath id="p1bffca34e9">
   <rect height="72.0" width="72.0" x="0.0" y="0.0"/>
  </clipPath>
 </defs>
</svg>
