<?xml version="1.0" encoding="utf-8" standalone="no"?>
<!DOCTYPE svg PUBLIC "-//W3C//DTD SVG 1.1//EN"
  "http://www.w3.org/Graphics/SVG/1.1/DTD/svg11.dtd">
<!-- Created with matplotlib (http://matplotlib.org/) -->
<svg height="72pt" version="1.1" viewBox="0 0 72 72" width="72pt" xmlns="http://www.w3.org/2000/svg" xmlns:xlink="http://www.w3.org/1999/xlink">
 <defs>
  <style type="text/css">
*{stroke-linecap:butt;stroke-linejoin:round;}
  </style>
 </defs>
 <g id="figure_1">
  <g id="patch_1">
   <path d="
M0 72
L72 72
L72 0
L0 0
z
" style="fill:none;"/>
  </g>
  <g id="axes_1">
   <g id="PatchCollection_1">
    <defs>
     <path d="
M36 -7.5
C43.5583 -7.5 50.808 -10.5029 56.1525 -15.8475
C61.4971 -21.192 64.5 -28.4417 64.5 -36
C64.5 -43.5583 61.4971 -50.808 56.1525 -56.1525
C50.808 -61.4971 43.5583 -64.5 36 -64.5
C28.4417 -64.5 21.192 -61.4971 15.8475 -56.1525
C10.5029 -50.808 7.5 -43.5583 7.5 -36
C7.5 -28.4417 10.5029 -21.192 15.8475 -15.8475
C21.192 -10.5029 28.4417 -7.5 36 -7.5
z
" id="C0_0_a811fe30f3"/>
     <path d="
M29.2029 -8.37607
L29.1258 -8.62501
L29.0668 -8.87427
L29.0256 -9.12364
L29.0014 -9.37294
L28.9939 -9.62203
L29.0022 -9.8708
L29.0257 -10.1192
L29.0637 -10.3671
L29.1154 -10.6145
L29.1801 -10.8614
L29.257 -11.1077
L29.3452 -11.3536
L29.4441 -11.599
L29.5529 -11.8439
L29.6707 -12.0884
L29.797 -12.3324
L29.9311 -12.5761
L30.0722 -12.8194
L30.2197 -13.0624
L30.373 -13.3051
L30.5317 -13.5474
L30.695 -13.7895
L30.8626 -14.0313
L31.034 -14.2728
L31.2087 -14.5141
L31.3863 -14.755
L31.5664 -14.9957
L31.7488 -15.236
L31.933 -15.4761
L32.1187 -15.7158
L32.3058 -15.9552
L32.4938 -16.1942
L32.6827 -16.4328
L32.8721 -16.6711
L33.0619 -16.9089
L33.252 -17.1462
L33.442 -17.3832
L33.632 -17.6196
L33.8217 -17.8555
L34.0111 -18.091
L34.2 -18.3259
L34.3884 -18.5602
L34.5761 -18.7941
L34.7631 -19.0273
L34.9493 -19.26
L35.1346 -19.4921
L35.319 -19.7236
L35.5025 -19.9546
L35.685 -20.1849
L35.8665 -20.4147
L36.0469 -20.6439
L36.2263 -20.8724
L36.4045 -21.1004
L36.5817 -21.3279
L36.7577 -21.5547
L36.9327 -21.781
L37.1065 -22.0068
L37.2792 -22.232
L37.4508 -22.4567
L37.6212 -22.6809
L37.7906 -22.9046
L37.9589 -23.1279
L38.1261 -23.3507
L38.2922 -23.5731
L38.4573 -23.795
L38.6213 -24.0166
L38.7843 -24.2378
L38.9464 -24.4586
L39.1074 -24.6792
L39.2675 -24.8995
L39.4266 -25.1195
L39.5849 -25.3392
L39.7422 -25.5588
L39.8987 -25.7782
L40.0543 -25.9974
L40.2091 -26.2166
L40.3631 -26.4356
L40.5163 -26.6546
L40.6688 -26.8736
L40.8205 -27.0926
L40.9716 -27.3116
L41.1219 -27.5307
L41.2717 -27.75
L41.4208 -27.9693
L41.5693 -28.1889
L41.7172 -28.4087
L41.8646 -28.6287
L42.0114 -28.8491
L42.3037 -29.0697
L42.4491 -29.2907
L42.5941 -29.5122
L42.7387 -29.734
L42.883 -29.9563
L43.0268 -30.1792
L43.1704 -30.4026
L43.3136 -30.6266
L43.4566 -30.8512
L43.5993 -31.0764
L43.7418 -31.3024
L43.884 -31.5291
L44.0261 -31.7566
L44.168 -31.9848
L44.3097 -32.214
L44.4513 -32.444
L44.5928 -32.6749
L44.7342 -32.9068
L44.8756 -33.1397
L45.0169 -33.3736
L45.1581 -33.6086
L45.2994 -33.8447
L45.4407 -34.0819
L45.5819 -34.3203
L45.7233 -34.5598
L45.8647 -34.8006
L46.0062 -35.0427
L46.1477 -35.286
L46.2894 -35.5307
L46.4312 -35.7766
L46.5732 -36.024
L46.7153 -36.2727
L46.8576 -36.5228
L47 -36.7744
L47.1427 -37.0274
L47.2856 -37.2818
L47.4287 -37.5377
L47.5721 -37.795
L47.7157 -38.0539
L47.8596 -38.3142
L48.0038 -38.5759
L48.1483 -38.8391
L48.2931 -39.1038
L48.4382 -39.3698
L48.5837 -39.6373
L48.7295 -39.9061
L48.8757 -40.1763
L49.0223 -40.4477
L49.1694 -40.7204
L49.3168 -40.9943
L49.4647 -41.2693
L49.6132 -41.5453
L49.7621 -41.8222
L49.9115 -42.1
L50.0616 -42.3786
L50.2122 -42.6578
L50.3636 -42.9374
L50.5156 -43.2175
L50.6684 -43.4977
L50.822 -43.7779
L50.9765 -44.0579
L51.1319 -44.3375
L51.2884 -44.6165
L51.446 -44.8947
L51.6048 -45.1717
L51.765 -45.4473
L51.9266 -45.7212
L52.0898 -45.993
L52.2548 -46.2624
L52.4216 -46.529
L52.5906 -46.7925
L52.7618 -47.0523
L52.9354 -47.308
L53.1117 -47.5591
L53.2909 -47.8052
L53.4732 -48.0457
L53.6589 -48.28
L53.8482 -48.5076
L54.0414 -48.7279
L54.2388 -48.9402
L54.4406 -49.144
L54.647 -49.3385
L54.8584 -49.5232
L55.0749 -49.6974
L55.2968 -49.8604
L55.5243 -50.0117
L55.7574 -50.1505
L55.9964 -50.2764
L56.2412 -50.3888
L56.492 -50.4871
L56.7487 -50.5709
L57.0112 -50.6398
L57.2794 -50.6933
L57.5531 -50.7312
L57.8321 -50.7532
L58.1161 -50.7591
L58.4048 -50.7488
L58.6978 -50.7223
L58.9946 -50.6794
L59.2948 -50.6203
L59.598 -50.545
L59.9036 -50.4536
L60.2111 -50.3464
L60.52 -50.2236
L60.8298 -50.0854
L61.0943 -49.9321
L61.3263 -49.5102
L61.5505 -49.0702
L61.767 -48.6262
L61.9756 -48.1784
L62.1763 -47.7268
L62.369 -47.2717
L62.5537 -46.8131
L62.7303 -46.3513
L62.8988 -45.8863
L63.0591 -45.4183
L63.2111 -44.9474
L63.3549 -44.4738
L63.4903 -43.9976
L63.6173 -43.519
L63.7359 -43.038
L63.8461 -42.555
L63.9478 -42.0699
L64.041 -41.583
L64.1256 -41.0944
L64.2017 -40.6042
L64.2692 -40.1127
L64.3281 -39.6199
L64.3783 -39.126
L64.4199 -38.6311
L64.4528 -38.1354
L64.4771 -37.6391
L64.4927 -37.1423
L64.4996 -36.6451
L64.4979 -36.1477
L64.4874 -35.6503
L64.4683 -35.153
L64.4405 -34.656
L64.404 -34.1593
L64.3589 -33.6633
L64.3052 -33.1679
L64.2428 -32.6734
L64.1719 -32.1799
L64.0923 -31.6876
L64.0042 -31.1966
L63.9075 -30.707
L63.8024 -30.2191
L63.6888 -29.7329
L63.5668 -29.2487
L63.4363 -28.7665
L63.2975 -28.2865
L63.1504 -27.8088
L62.995 -27.3336
L62.8314 -26.8611
L62.6596 -26.3914
L62.4797 -25.9246
L62.2918 -25.4608
L62.0958 -25.0003
L61.8919 -24.5431
L61.6801 -24.0894
L61.4604 -23.6394
L61.233 -23.1931
L60.998 -22.7507
L60.7553 -22.3123
L60.505 -21.8781
L60.2473 -21.4483
L59.9823 -21.0228
L59.7099 -20.6019
L59.4303 -20.1857
L59.1435 -19.7743
L58.8497 -19.3679
L58.549 -18.9665
L58.2413 -18.5703
L57.9269 -18.1794
L57.6059 -17.794
L57.2782 -17.4141
L56.9441 -17.0398
L56.6035 -16.6714
L56.2567 -16.3088
L55.9038 -15.9522
L55.5447 -15.6017
L55.1798 -15.2575
L54.8089 -14.9195
L54.4324 -14.588
L54.0502 -14.263
L53.6625 -13.9446
L53.2695 -13.633
L52.8712 -13.3281
L52.4677 -13.0302
L52.0593 -12.7392
L51.6459 -12.4554
L51.2278 -12.1787
L50.805 -11.9092
L50.3778 -11.6472
L49.9461 -11.3925
L49.5102 -11.1453
L49.0702 -10.9057
L48.6262 -10.6737
L48.1784 -10.4495
L47.7268 -10.233
L47.2717 -10.0244
L46.8131 -9.82369
L46.3513 -9.63096
L45.8863 -9.44626
L45.4183 -9.26965
L44.9474 -9.10118
L44.4738 -8.94091
L43.9976 -8.78888
L43.519 -8.64513
L43.038 -8.50972
L42.555 -8.38269
L42.0699 -8.26406
L41.583 -8.15389
L41.0944 -8.05219
L40.6042 -7.95901
L40.1127 -7.87437
L39.6199 -7.7983
L39.126 -7.73082
L38.6311 -7.67195
L38.1354 -7.62171
L37.6391 -7.58011
L37.1423 -7.54717
L36.6451 -7.5229
L36.1477 -7.5073
L35.6503 -7.50038
L35.153 -7.50215
L34.656 -7.51259
L34.1593 -7.53171
L33.6633 -7.5595
L33.1679 -7.59596
L32.6734 -7.64106
L32.1799 -7.69481
L31.6876 -7.75718
L31.1966 -7.82815
L30.707 -7.9077
L30.2191 -7.99581
L29.7329 -8.09245
z
" id="C0_1_662d5061db"/>
     <path d="
M11.1437 -22.3912
L11.1663 -22.7473
L11.1887 -23.1075
L11.2112 -23.4715
L11.2343 -23.8386
L11.2584 -24.2084
L11.2836 -24.5805
L11.3104 -24.9543
L11.3389 -25.3295
L11.3694 -25.7057
L11.4021 -26.0825
L11.4371 -26.4595
L11.4746 -26.8365
L11.5147 -27.2131
L11.5574 -27.5891
L11.6029 -27.9643
L11.6512 -28.3382
L11.7024 -28.7109
L11.7565 -29.082
L11.8135 -29.4514
L11.8734 -29.8189
L11.9362 -30.1844
L12.002 -30.5478
L12.0706 -30.9089
L12.142 -31.2675
L12.2163 -31.6238
L12.2933 -31.9774
L12.3731 -32.3285
L12.4556 -32.6768
L12.5408 -33.0225
L12.6285 -33.3653
L12.7189 -33.7054
L12.8117 -34.0427
L12.907 -34.3771
L13.0046 -34.7087
L13.1047 -35.0374
L13.207 -35.3632
L13.3117 -35.6862
L13.4185 -36.0064
L13.5275 -36.3238
L13.6386 -36.6384
L13.7519 -36.9501
L13.8671 -37.2592
L13.9844 -37.5655
L14.1036 -37.8691
L14.2248 -38.1701
L14.3479 -38.4685
L14.4728 -38.7643
L14.5996 -39.0575
L14.7282 -39.3483
L14.8587 -39.6366
L14.9908 -39.9225
L15.1248 -40.206
L15.2604 -40.4872
L15.3978 -40.7661
L15.5369 -41.0428
L15.6777 -41.3173
L15.8202 -41.5896
L15.9643 -41.8599
L16.1102 -42.1282
L16.2577 -42.3944
L16.4068 -42.6587
L16.5576 -42.9211
L16.7101 -43.1816
L16.8643 -43.4403
L17.0201 -43.6972
L17.1777 -43.9524
L17.3369 -44.206
L17.4978 -44.4579
L17.6605 -44.7082
L17.8248 -44.957
L17.991 -45.2042
L18.1589 -45.45
L18.3285 -45.6944
L18.5 -45.9374
L18.6733 -46.179
L18.8485 -46.4193
L19.0255 -46.6583
L19.2044 -46.8961
L19.3853 -47.1327
L19.5681 -47.3681
L19.7529 -47.6024
L19.9397 -47.8355
L20.1286 -48.0676
L20.3195 -48.2986
L20.5126 -48.5286
L20.7078 -48.7576
L20.9052 -48.9856
L21.1048 -49.2127
L21.3067 -49.4388
L21.5109 -49.6641
L21.7174 -49.8884
L21.9264 -50.1119
L22.1377 -50.3345
L22.3516 -50.5562
L22.5679 -50.7772
L22.7869 -50.9973
L23.0084 -51.2166
L23.2325 -51.4351
L23.4594 -51.6528
L23.689 -51.8697
L23.9214 -52.0859
L24.1566 -52.3012
L24.3947 -52.5158
L24.6357 -52.7295
L24.8796 -52.9424
L25.1266 -53.1546
L25.3766 -53.3659
L25.6296 -53.5764
L25.8858 -53.786
L26.1452 -53.9947
L26.4077 -54.2026
L26.6734 -54.4095
L26.9424 -54.6155
L27.2147 -54.8206
L27.4902 -55.0247
L27.7691 -55.2277
L28.0513 -55.4297
L28.3368 -55.6306
L28.6257 -55.8304
L28.9179 -56.029
L29.2134 -56.2264
L29.5122 -56.4226
L29.8143 -56.6174
L30.1196 -56.811
L30.4282 -57.0031
L30.7399 -57.1939
L31.0547 -57.3832
L31.3725 -57.571
L31.6932 -57.7572
L32.0168 -57.9418
L32.3431 -58.1249
L32.6719 -58.3062
L33.0032 -58.4859
L33.3367 -58.6639
L33.6724 -58.8401
L34.0098 -59.0146
L34.349 -59.1873
L34.6895 -59.3583
L35.0312 -59.5275
L35.3737 -59.695
L35.7166 -59.8609
L36.0598 -60.0252
L36.4027 -60.1878
L36.745 -60.3491
L37.0863 -60.5089
L37.426 -60.6675
L37.7637 -60.825
L38.099 -60.9815
L38.4311 -61.1373
L38.7596 -61.2924
L39.0839 -61.4472
L39.4033 -61.6019
L39.7173 -61.7566
L40.0251 -61.9118
L40.3262 -62.0676
L40.6198 -62.2244
L40.9052 -62.3824
L41.1819 -62.542
L41.4492 -62.7034
L41.7064 -62.867
L41.953 -63.0329
L42.1884 -63.2015
L42.4119 -63.3729
L42.1778 -63.5474
L41.6913 -63.8224
L41.2031 -63.926
L40.7133 -64.021
L40.222 -64.1076
L39.7295 -64.1855
L39.2358 -64.2549
L38.7411 -64.3157
L38.2456 -64.3679
L37.7494 -64.4114
L37.2527 -64.4463
L36.7556 -64.4725
L36.2582 -64.49
L35.7608 -64.4988
L35.2635 -64.499
L34.7664 -64.4905
L34.2696 -64.4733
L33.7734 -64.4474
L33.2779 -64.4129
L32.7832 -64.3697
L32.2895 -64.3179
L31.7969 -64.2574
L31.3056 -64.1884
L30.8157 -64.1107
L30.3274 -64.0245
L29.8408 -63.9298
L29.3561 -63.8265
L28.8734 -63.7148
L28.3929 -63.5946
L27.9147 -63.466
L27.439 -63.3291
L26.9659 -63.1838
L26.4955 -63.0302
L26.028 -62.8685
L25.5636 -62.6985
L25.1023 -62.5204
L24.6444 -62.3342
L24.1899 -62.14
L23.739 -61.9379
L23.2919 -61.7278
L22.8486 -61.5099
L22.4094 -61.2842
L21.9742 -61.0508
L21.5434 -60.8098
L21.1169 -60.5613
L20.695 -60.3052
L20.2778 -60.0418
L19.8653 -59.771
L19.4577 -59.493
L19.0552 -59.2078
L18.6579 -58.9156
L18.2658 -58.6164
L17.8791 -58.3103
L17.498 -57.9974
L17.1225 -57.6778
L16.7527 -57.3516
L16.3888 -57.0188
L16.0309 -56.6797
L15.679 -56.3343
L15.3334 -55.9827
L14.994 -55.625
L14.6611 -55.2614
L14.3346 -54.8918
L14.0148 -54.5165
L13.7016 -54.1356
L13.3952 -53.7491
L13.0958 -53.3573
L12.8032 -52.9601
L12.5178 -52.5578
L12.2395 -52.1504
L11.9685 -51.7382
L11.7047 -51.3211
L11.4484 -50.8993
L11.1996 -50.4731
L10.9583 -50.0424
L10.7246 -49.6074
L10.4986 -49.1683
L10.2804 -48.7252
L10.0701 -48.2782
L9.86759 -47.8274
L9.67309 -47.3731
L9.4866 -46.9153
L9.30818 -46.4542
L9.1379 -45.9898
L8.9758 -45.5225
L8.82194 -45.0522
L8.67635 -44.5792
L8.53908 -44.1036
L8.41018 -43.6255
L8.28969 -43.1451
L8.17763 -42.6625
L8.07405 -42.1778
L7.97898 -41.6913
L7.89244 -41.2031
L7.81446 -40.7133
L7.74507 -40.222
L7.68428 -39.7295
L7.63212 -39.2358
L7.58861 -38.7411
L7.55374 -38.2456
L7.52754 -37.7494
L7.51002 -37.2527
L7.50117 -36.7556
L7.501 -36.2582
L7.50952 -35.7608
L7.52671 -35.2635
L7.55258 -34.7664
L7.58711 -34.2696
L7.6303 -33.7734
L7.68212 -33.2779
L7.74258 -32.7832
L7.81164 -32.2895
L7.88929 -31.7969
L7.9755 -31.3056
L8.07025 -30.8157
L8.1735 -30.3274
L8.28523 -29.8408
L8.40541 -29.3561
L8.53398 -28.8734
L8.67093 -28.3929
L8.8162 -27.9147
L8.96975 -27.439
L9.13153 -26.9659
L9.3015 -26.4955
L9.4796 -26.028
L9.66578 -25.5636
L9.85999 -25.1023
L10.0621 -24.6444
L10.2722 -24.1899
L10.4901 -23.739
L10.7158 -23.2919
z
" id="C0_2_d014e0c9ca"/>
    </defs>
    <g clip-path="url(#p1bffca34e9)">
     <use style="fill:#ff0000;stroke:#000000;stroke-width:2.0;" x="0.0" xlink:href="#C0_0_a811fe30f3" y="72.0"/>
    </g>
    <g clip-path="url(#p1bffca34e9)">
     <use style="fill:#ffffff;stroke:#000000;stroke-width:2.0;" x="0.0" xlink:href="#C0_1_662d5061db" y="72.0"/>
    </g>
    <g clip-path="url(#p1bffca34e9)">
     <use style="fill:#ffffff;stroke:#000000;stroke-width:2.0;" x="0.0" xlink:href="#C0_2_d014e0c9ca" y="72.0"/>
    </g>
   </g>
  </g>
 </g>
 <defs>
  <clipPath id="p1bffca34e9">
   <rect height="72.0" width="72.0" x="0.0" y="0.0"/>
  </clipPath>
 </defs>
</svg>
