<?xml version="1.0" encoding="utf-8" standalone="no"?>
<!DOCTYPE svg PUBLIC "-//W3C//DTD SVG 1.1//EN"
  "http://www.w3.org/Graphics/SVG/1.1/DTD/svg11.dtd">
<!-- Created with matplotlib (http://matplotlib.org/) -->
<svg height="72pt" version="1.1" viewBox="0 0 72 72" width="72pt" xmlns="http://www.w3.org/2000/svg" xmlns:xlink="http://www.w3.org/1999/xlink">
 <defs>
  <style type="text/css">
*{stroke-linecap:butt;stroke-linejoin:round;}
  </style>
 </defs>
 <g id="figure_1">
  <g id="patch_1">
   <path d="
M0 72
L72 72
L72 0
L0 0
z
" style="fill:none;"/>
  </g>
  <g id="axes_1">
   <g id="PatchCollection_1">
    <defs>
     <path d="
M36 -7.5
C43.5583 -7.5 50.808 -10.5029 56.1525 -15.8475
C61.4971 -21.192 64.5 -28.4417 64.5 -36
C64.5 -43.5583 61.4971 -50.808 56.1525 -56.1525
C50.808 -61.4971 43.5583 -64.5 36 -64.5
C28.4417 -64.5 21.192 -61.4971 15.8475 -56.1525
C10.5029 -50.808 7.5 -43.5583 7.5 -36
C7.5 -28.4417 10.5029 -21.192 15.8475 -15.8475
C21.192 -10.5029 28.4417 -7.5 36 -7.5
z
" id="C0_0_a811fe30f3"/>
     <path d="
M40.2608 -64.0218
L40.4742 -63.7656
L40.5677 -63.4779
L40.582 -63.1685
L40.5491 -62.8451
L40.4886 -62.5121
L40.4113 -62.1721
L40.3236 -61.8268
L40.2292 -61.4773
L40.1304 -61.1243
L40.0287 -60.7685
L39.9253 -60.4103
L39.8208 -60.0502
L39.7157 -59.6887
L39.6104 -59.326
L39.5053 -58.9625
L39.4006 -58.5985
L39.2964 -58.2343
L39.1929 -57.8702
L39.0902 -57.5064
L38.9884 -57.1432
L38.8876 -56.7808
L38.7878 -56.4195
L38.6892 -56.0593
L38.5916 -55.7006
L38.4953 -55.3434
L38.4001 -54.988
L38.3062 -54.6344
L38.2134 -54.2828
L38.122 -53.9334
L38.0317 -53.5862
L37.9428 -53.2413
L37.855 -52.8988
L37.7685 -52.5588
L37.6833 -52.2213
L37.5993 -51.8865
L37.5164 -51.5542
L37.4348 -51.2246
L37.3544 -50.8977
L37.2752 -50.5735
L37.197 -50.2519
L37.1201 -49.9331
L37.0442 -49.617
L36.9695 -49.3036
L36.8958 -48.9929
L36.8231 -48.6848
L36.7515 -48.3794
L36.6809 -48.0765
L36.6113 -47.7762
L36.5427 -47.4785
L36.4749 -47.1832
L36.4081 -46.8904
L36.3422 -46.5999
L36.2772 -46.3118
L36.213 -46.026
L36.1497 -45.7424
L36.0871 -45.461
L36.0253 -45.1818
L35.9643 -44.9046
L35.904 -44.6294
L35.8444 -44.3561
L35.7855 -44.0848
L35.7273 -43.8153
L35.6697 -43.5475
L35.6128 -43.2814
L35.5565 -43.017
L35.5007 -42.7541
L35.4456 -42.4928
L35.391 -42.2328
L35.3369 -41.9743
L35.2833 -41.7171
L35.2302 -41.4611
L35.1776 -41.2063
L35.1255 -40.9526
L35.0738 -40.6999
L35.0225 -40.4483
L34.9717 -40.1975
L34.9212 -39.9476
L34.8711 -39.6986
L34.8214 -39.4502
L34.772 -39.2025
L34.7229 -38.9553
L34.6742 -38.7088
L34.6257 -38.4626
L34.5776 -38.2169
L34.5297 -37.9715
L34.4821 -37.7264
L34.4347 -37.4815
L34.3876 -37.2367
L34.2939 -36.992
L34.2474 -36.7473
L34.2011 -36.5026
L34.1549 -36.2578
L34.1089 -36.0127
L34.063 -35.7674
L34.0173 -35.5218
L33.9716 -35.2759
L33.9261 -35.0294
L33.8807 -34.7825
L33.8354 -34.535
L33.7902 -34.2869
L33.7451 -34.038
L33.7 -33.7884
L33.6549 -33.5379
L33.6099 -33.2866
L33.565 -33.0342
L33.5201 -32.7808
L33.4751 -32.5264
L33.4302 -32.2707
L33.3853 -32.0138
L33.3404 -31.7556
L33.2955 -31.496
L33.2506 -31.2349
L33.2056 -30.9724
L33.1606 -30.7082
L33.1155 -30.4424
L33.0705 -30.1749
L33.0253 -29.9056
L32.9801 -29.6345
L32.9349 -29.3614
L32.8896 -29.0863
L32.8442 -28.8092
L32.7987 -28.53
L32.7532 -28.2485
L32.7076 -27.9648
L32.662 -27.6788
L32.6163 -27.3904
L32.5705 -27.0996
L32.5246 -26.8063
L32.4787 -26.5104
L32.4327 -26.2119
L32.3866 -25.9107
L32.3405 -25.6068
L32.2944 -25.3001
L32.2482 -24.9906
L32.202 -24.6783
L32.1558 -24.363
L32.1095 -24.0449
L32.0633 -23.7237
L32.0171 -23.3996
L31.9709 -23.0725
L31.9247 -22.7423
L31.8787 -22.4091
L31.8327 -22.0729
L31.7868 -21.7337
L31.7411 -21.3914
L31.6955 -21.0462
L31.6501 -20.698
L31.605 -20.3469
L31.56 -19.993
L31.5154 -19.6362
L31.471 -19.2767
L31.427 -18.9146
L31.3833 -18.5499
L31.34 -18.1828
L31.2972 -17.8134
L31.2549 -17.4418
L31.213 -17.0682
L31.1717 -16.6927
L31.1309 -16.3156
L31.0907 -15.937
L31.051 -15.5572
L31.012 -15.1764
L30.9735 -14.7949
L30.9355 -14.4129
L30.8981 -14.0308
L30.861 -13.6489
L30.8241 -13.2675
L30.7872 -12.8872
L30.75 -12.5083
L30.7119 -12.1315
L30.6723 -11.7575
L30.6298 -11.387
L30.5828 -11.0212
L30.5282 -10.6618
L30.4609 -10.3112
L30.3718 -9.97308
L30.245 -9.65411
L30.0539 -9.36568
L29.7655 -9.12673
L29.3627 -8.96163
L28.8631 -8.88502
L28.3005 -8.88836
L27.7023 -8.95119
L27.0851 -9.05639
L26.4589 -9.19336
L25.8296 -9.3559
L25.2009 -9.54029
L24.5754 -9.74414
L23.9551 -9.9658
L23.4933 -10.204
L23.0483 -10.3908
L22.6072 -10.6129
L22.1702 -10.8428
L21.7374 -11.0804
L21.3089 -11.3256
L20.8849 -11.5782
L20.4656 -11.8384
L20.0509 -12.1058
L19.6411 -12.3806
L19.2363 -12.6625
L18.8366 -12.9516
L18.4422 -13.2477
L18.053 -13.5507
L17.6694 -13.8605
L17.2913 -14.1771
L16.919 -14.5003
L16.5524 -14.8301
L16.1918 -15.1664
L15.8372 -15.5089
L15.4887 -15.8578
L15.1465 -16.2127
L14.8106 -16.5737
L14.4812 -16.9406
L14.1584 -17.3133
L13.8422 -17.6917
L13.5327 -18.0757
L13.2301 -18.4651
L12.9345 -18.8599
L12.6458 -19.2599
L12.3643 -19.665
L12.09 -20.0751
L11.8229 -20.49
L11.5632 -20.9097
L11.311 -21.3339
L11.0663 -21.7626
L10.8292 -22.1957
L10.5997 -22.6329
L10.378 -23.0743
L10.1641 -23.5195
L9.95803 -23.9686
L9.75992 -24.4213
L9.5698 -24.8776
L9.38774 -25.3372
L9.21378 -25.8001
L9.04798 -26.2661
L8.89039 -26.7351
L8.74106 -27.2069
L8.60003 -27.6813
L8.46735 -28.1583
L8.34305 -28.6377
L8.22718 -29.1194
L8.11977 -29.6031
L8.02085 -30.0888
L7.93045 -30.5762
L7.84861 -31.0654
L7.77534 -31.556
L7.71066 -32.048
L7.65461 -32.5412
L7.60718 -33.0354
L7.56841 -33.5306
L7.5383 -34.0265
L7.51686 -34.523
L7.50409 -35.0199
L7.5 -35.5172
L7.5046 -36.0146
L7.51787 -36.512
L7.53982 -37.0092
L7.57044 -37.5061
L7.60972 -38.0026
L7.65765 -38.4985
L7.71421 -38.9936
L7.77939 -39.4877
L7.85317 -39.9809
L7.93551 -40.4728
L8.02641 -40.9633
L8.12583 -41.4524
L8.23373 -41.9397
L8.3501 -42.4253
L8.47489 -42.9089
L8.60806 -43.3904
L8.74958 -43.8697
L8.8994 -44.3465
L9.05747 -44.8208
L9.22375 -45.2925
L9.39818 -45.7613
L9.58072 -46.2271
L9.77131 -46.6898
L9.96989 -47.1493
L10.1764 -47.6053
L10.3908 -48.0578
L10.6129 -48.5067
L10.8428 -48.9517
L11.0804 -49.3928
L11.3256 -49.8298
L11.5782 -50.2626
L11.8384 -50.6911
L12.1058 -51.1151
L12.3806 -51.5344
L12.6625 -51.9491
L12.9516 -52.3589
L13.2477 -52.7637
L13.5507 -53.1634
L13.8605 -53.5578
L14.1771 -53.947
L14.5003 -54.3306
L14.8301 -54.7087
L15.1664 -55.081
L15.5089 -55.4476
L15.8578 -55.8082
L16.2127 -56.1628
L16.5737 -56.5113
L16.9406 -56.8535
L17.3133 -57.1894
L17.6917 -57.5188
L18.0757 -57.8416
L18.4651 -58.1578
L18.8599 -58.4673
L19.2599 -58.7699
L19.665 -59.0655
L20.0751 -59.3542
L20.49 -59.6357
L20.9097 -59.91
L21.3339 -60.1771
L21.7626 -60.4368
L22.1957 -60.689
L22.6329 -60.9337
L23.0743 -61.1708
L23.5195 -61.4003
L23.9686 -61.622
L24.4213 -61.8359
L24.8776 -62.042
L25.3372 -62.2401
L25.8001 -62.4302
L26.2661 -62.6123
L26.7351 -62.7862
L27.2069 -62.952
L27.6813 -63.1096
L28.1583 -63.2589
L28.6377 -63.4
L29.1194 -63.5327
L29.6031 -63.657
L30.0888 -63.7728
L30.5762 -63.8802
L31.0654 -63.9792
L31.556 -64.0695
L32.048 -64.1514
L32.5412 -64.2247
L33.0354 -64.2893
L33.5306 -64.3454
L34.0265 -64.3928
L34.523 -64.4316
L35.0199 -64.4617
L35.5172 -64.4831
L36.0146 -64.4959
L36.512 -64.5
L37.0092 -64.4954
L37.5061 -64.4821
L38.0026 -64.4602
L38.4985 -64.4296
L38.9936 -64.3903
L39.4877 -64.3423
z
" id="C0_1_67ab68d6da"/>
     <path d="
M48.6525 -61.5297
L49.2245 -61.197
L49.7858 -60.8538
L50.3357 -60.5005
L50.8737 -60.1378
L51.3993 -59.7663
L51.9121 -59.3866
L52.4119 -58.9992
L52.8984 -58.6049
L53.3715 -58.2043
L53.831 -57.7978
L54.277 -57.3862
L54.7094 -56.97
L55.1283 -56.5496
L55.5336 -56.1257
L55.9256 -55.6987
L56.3043 -55.2692
L56.6699 -54.8375
L57.0225 -54.4041
L57.3623 -53.9695
L57.6896 -53.5339
L58.0045 -53.0978
L58.3074 -52.6615
L58.5984 -52.2253
L58.8777 -51.7895
L59.1458 -51.3544
L59.4027 -50.9201
L59.6488 -50.487
L59.8843 -50.0553
L60.1095 -49.625
L60.3247 -49.1965
L60.5301 -48.7698
L60.726 -48.3451
L60.9127 -47.9225
L61.0904 -47.502
L61.2593 -47.0839
L61.4198 -46.6682
L61.5719 -46.2548
L61.7161 -45.844
L61.8524 -45.4357
L61.9812 -45.0299
L62.1026 -44.6268
L62.2168 -44.2262
L62.3241 -43.8283
L62.4246 -43.4329
L62.5185 -43.0402
L62.606 -42.6501
L62.6873 -42.2625
L62.7626 -41.8775
L62.8319 -41.495
L62.8955 -41.115
L62.9534 -40.7375
L63.0059 -40.3624
L63.0531 -39.9896
L63.095 -39.6192
L63.1319 -39.2511
L63.1638 -38.8852
L63.1908 -38.5214
L63.213 -38.1599
L63.2305 -37.8003
L63.2435 -37.4428
L63.2519 -37.0873
L63.2559 -36.7336
L63.2556 -36.3818
L63.2509 -36.0318
L63.2421 -35.6835
L63.229 -35.3368
L63.2118 -34.9917
L63.1906 -34.6482
L63.1653 -34.3062
L63.136 -33.9655
L63.1028 -33.6262
L63.0656 -33.2882
L63.0245 -32.9514
L62.9795 -32.6158
L62.9306 -32.2813
L62.8778 -31.9478
L62.8212 -31.6153
L62.7607 -31.2837
L62.6963 -30.9531
L62.6281 -30.6232
L62.5559 -30.2941
L62.4799 -29.9656
L62.3999 -29.6379
L62.316 -29.3107
L62.2281 -28.9841
L62.1361 -28.6579
L62.0401 -28.3322
L61.9401 -28.007
L61.8358 -27.682
L61.7274 -27.3574
L61.6147 -27.033
L61.4978 -26.7088
L61.3764 -26.3848
L61.2507 -26.061
L61.1204 -25.7372
L60.9855 -25.4136
L60.8459 -25.0899
L60.7016 -24.7663
L60.5525 -24.4427
L60.3984 -24.1191
L60.2393 -23.7954
L60.075 -23.4716
L59.9055 -23.1478
L59.7306 -22.8238
L59.5503 -22.4998
L59.3643 -22.1757
L59.1726 -21.8515
L58.975 -21.5273
L58.7714 -21.2029
L58.5617 -20.8786
L58.3456 -20.5542
L58.1231 -20.2298
L57.8941 -19.9055
L57.6582 -19.5813
L57.4155 -19.2573
L57.1656 -18.9335
L56.9085 -18.61
L56.6439 -18.2869
L56.3718 -17.9642
L56.0918 -17.6421
L55.8038 -17.3207
L55.5077 -17.0001
L55.2032 -16.6804
L54.8902 -16.3618
L54.5685 -16.0444
L54.2378 -15.7284
L53.8981 -15.414
L53.5491 -15.1014
L53.1905 -14.7908
L52.8224 -14.4825
L52.4444 -14.1766
L52.0565 -13.8734
L51.6584 -13.5733
L51.25 -13.2764
L50.8312 -12.9832
L50.4018 -12.694
L49.9617 -12.409
L49.5109 -12.1287
L49.0492 -11.8535
L48.5766 -11.5837
L48.0931 -11.3198
L47.5986 -11.0621
L47.0931 -10.8112
L46.5767 -10.5674
L46.0494 -10.3313
L45.5114 -10.1033
L44.9627 -9.88393
L44.4037 -9.67364
L43.8343 -9.47294
L43.2551 -9.28231
L42.6661 -9.10224
L42.0679 -8.9332
L41.4608 -8.77566
L40.8453 -8.63004
L40.2219 -8.49676
L39.5914 -8.37618
L38.9543 -8.26863
L38.3115 -8.17433
L37.6641 -8.09344
L37.0131 -8.02596
L36.3602 -7.97168
L35.7072 -7.93008
L35.0567 -7.90017
L34.4126 -7.88008
L33.7807 -7.86648
L33.1711 -7.85329
L32.6004 -7.82951
L32.5884 -7.77654
L33.0828 -7.70493
L33.578 -7.6497
L34.0739 -7.6031
L34.5705 -7.56516
L35.0675 -7.53587
L35.5648 -7.51526
L36.0622 -7.50332
L36.5595 -7.50007
L37.0568 -7.50549
L37.5536 -7.5196
L38.0501 -7.54238
L38.5459 -7.57383
L39.0409 -7.61394
L39.535 -7.66269
L40.028 -7.72008
L40.5198 -7.78608
L41.0102 -7.86067
L41.4991 -7.94384
L41.9863 -8.03555
L42.4717 -8.13578
L42.9551 -8.2445
L43.4364 -8.36167
L43.9154 -8.48727
L44.392 -8.62124
L44.8661 -8.76355
L45.3374 -8.91416
L45.806 -9.07302
L46.2715 -9.24008
L46.7339 -9.4153
L47.193 -9.59861
L47.6487 -9.78996
L48.1009 -9.9893
L48.5494 -10.1966
L48.9941 -10.4117
L49.4348 -10.6346
L49.8714 -10.8652
L50.3038 -11.1035
L50.7318 -11.3494
L51.1554 -11.6028
L51.5743 -11.8636
L51.9885 -12.1318
L52.3978 -12.4072
L52.8021 -12.6899
L53.2013 -12.9796
L53.5953 -13.2763
L53.9839 -13.58
L54.367 -13.8905
L54.7445 -14.2077
L55.1164 -14.5316
L55.4824 -14.862
L55.8424 -15.1989
L56.1964 -15.542
L56.5443 -15.8915
L56.8859 -16.247
L57.2212 -16.6086
L57.5499 -16.976
L57.8722 -17.3493
L58.1877 -17.7282
L58.4965 -18.1127
L58.7985 -18.5027
L59.0935 -18.898
L59.3814 -19.2984
L59.6623 -19.704
L59.9359 -20.1146
L60.2023 -20.53
L60.4612 -20.95
L60.7127 -21.3747
L60.9567 -21.8039
L61.1931 -22.2373
L61.4218 -22.675
L61.6428 -23.1167
L61.856 -23.5623
L62.0613 -24.0117
L62.2586 -24.4648
L62.448 -24.9214
L62.6293 -25.3814
L62.8024 -25.8446
L62.9675 -26.3109
L63.1243 -26.7801
L63.2728 -27.2522
L63.413 -27.7269
L63.5449 -28.2041
L63.6684 -28.6837
L63.7835 -29.1656
L63.8901 -29.6495
L63.9882 -30.1353
L64.0777 -30.623
L64.1588 -31.1123
L64.2312 -31.603
L64.2951 -32.0951
L64.3503 -32.5884
L64.3969 -33.0828
L64.4348 -33.578
L64.4641 -34.0739
L64.4847 -34.5705
L64.4967 -35.0675
L64.4999 -35.5648
L64.4945 -36.0622
L64.4804 -36.5595
L64.4576 -37.0568
L64.4262 -37.5536
L64.3861 -38.0501
L64.3373 -38.5459
L64.2799 -39.0409
L64.2139 -39.535
L64.1393 -40.028
L64.0562 -40.5198
L63.9644 -41.0102
L63.8642 -41.4991
L63.7555 -41.9863
L63.6383 -42.4717
L63.5127 -42.9551
L63.3788 -43.4364
L63.2364 -43.9154
L63.0858 -44.392
L62.927 -44.8661
L62.7599 -45.3374
L62.5847 -45.806
L62.4014 -46.2715
L62.21 -46.7339
L62.0107 -47.193
L61.8034 -47.6487
L61.5883 -48.1009
L61.3654 -48.5494
L61.1348 -48.9941
L60.8965 -49.4348
L60.6506 -49.8714
L60.3972 -50.3038
L60.1364 -50.7318
L59.8682 -51.1554
L59.5928 -51.5743
L59.3101 -51.9885
L59.0204 -52.3978
L58.7237 -52.8021
L58.42 -53.2013
L58.1095 -53.5953
L57.7923 -53.9839
L57.4684 -54.367
L57.138 -54.7445
L56.8011 -55.1164
L56.458 -55.4824
L56.1085 -55.8424
L55.753 -56.1964
L55.3914 -56.5443
L55.024 -56.8859
L54.6507 -57.2212
L54.2718 -57.5499
L53.8873 -57.8722
L53.4973 -58.1877
L53.102 -58.4965
L52.7016 -58.7985
L52.296 -59.0935
L51.8854 -59.3814
L51.47 -59.6623
L51.05 -59.9359
L50.6253 -60.2023
L50.1961 -60.4612
L49.7627 -60.7127
L49.325 -60.9567
z
" id="C0_2_61c1c1033d"/>
    </defs>
    <g clip-path="url(#p1bffca34e9)">
     <use style="fill:#ffffff;stroke:#000000;stroke-width:2.0;" x="0.0" xlink:href="#C0_0_a811fe30f3" y="72.0"/>
    </g>
    <g clip-path="url(#p1bffca34e9)">
     <use style="fill:#ff0000;stroke:#000000;stroke-width:2.0;" x="0.0" xlink:href="#C0_1_67ab68d6da" y="72.0"/>
    </g>
    <g clip-path="url(#p1bffca34e9)">
     <use style="fill:#ff0000;stroke:#000000;stroke-width:2.0;" x="0.0" xlink:href="#C0_2_61c1c1033d" y="72.0"/>
    </g>
   </g>
  </g>
 </g>
 <defs>
  <clipPath id="p1bffca34e9">
   <rect height="72.0" width="72.0" x="0.0" y="0.0"/>
  </clipPath>
 </defs>
</svg>
