<?xml version="1.0" encoding="utf-8" standalone="no"?>
<!DOCTYPE svg PUBLIC "-//W3C//DTD SVG 1.1//EN"
  "http://www.w3.org/Graphics/SVG/1.1/DTD/svg11.dtd">
<!-- Created with matplotlib (http://matplotlib.org/) -->
<svg height="72pt" version="1.1" viewBox="0 0 72 72" width="72pt" xmlns="http://www.w3.org/2000/svg" xmlns:xlink="http://www.w3.org/1999/xlink">
 <defs>
  <style type="text/css">
*{stroke-linecap:butt;stroke-linejoin:round;}
  </style>
 </defs>
 <g id="figure_1">
  <g id="patch_1">
   <path d="
M0 72
L72 72
L72 0
L0 0
z
" style="fill:none;"/>
  </g>
  <g id="axes_1">
   <g id="PatchCollection_1">
    <defs>
     <path d="
M36 -7.5
C43.5583 -7.5 50.808 -10.5029 56.1525 -15.8475
C61.4971 -21.192 64.5 -28.4417 64.5 -36
C64.5 -43.5583 61.4971 -50.808 56.1525 -56.1525
C50.808 -61.4971 43.5583 -64.5 36 -64.5
C28.4417 -64.5 21.192 -61.4971 15.8475 -56.1525
C10.5029 -50.808 7.5 -43.5583 7.5 -36
C7.5 -28.4417 10.5029 -21.192 15.8475 -15.8475
C21.192 -10.5029 28.4417 -7.5 36 -7.5
z
" id="C0_0_a811fe30f3"/>
     <path d="
M29.3123 -39.3826
L29.2499 -39.131
L29.1887 -38.879
L29.1286 -38.6266
L29.0696 -38.3736
L29.0118 -38.1201
L28.9551 -37.8661
L28.8995 -37.6113
L28.845 -37.3559
L28.7916 -37.0998
L28.7394 -36.8428
L28.6883 -36.585
L28.6382 -36.3263
L28.5893 -36.0666
L28.5415 -35.806
L28.4949 -35.5443
L28.4493 -35.2815
L28.405 -35.0176
L28.3617 -34.7524
L28.3197 -34.486
L28.2788 -34.2183
L28.2391 -33.9493
L28.2007 -33.6788
L28.1635 -33.4069
L28.1276 -33.1335
L28.0929 -32.8586
L28.0596 -32.582
L28.0276 -32.3038
L27.997 -32.024
L27.9678 -31.7424
L27.9401 -31.459
L27.9139 -31.1738
L27.8892 -30.8868
L27.8661 -30.5979
L27.8446 -30.3071
L27.8248 -30.0143
L27.8067 -29.7195
L27.7905 -29.4227
L27.776 -29.1239
L27.7636 -28.823
L27.7531 -28.52
L27.7447 -28.215
L27.7385 -27.9078
L27.7345 -27.5985
L27.7328 -27.2871
L27.7335 -26.9736
L27.7368 -26.658
L27.7426 -26.3403
L27.7513 -26.0206
L27.7627 -25.6988
L27.7772 -25.3751
L27.7947 -25.0494
L27.8155 -24.7218
L27.8397 -24.3924
L27.8674 -24.0613
L27.8988 -23.7286
L27.934 -23.3943
L27.9734 -23.0585
L28.0169 -22.7215
L28.0649 -22.3833
L28.1175 -22.0441
L28.1749 -21.7041
L28.2374 -21.3635
L28.3053 -21.0224
L28.3788 -20.6812
L28.4581 -20.34
L28.5435 -19.9993
L28.6354 -19.6592
L28.734 -19.3201
L28.8397 -18.9823
L28.9528 -18.6463
L29.0737 -18.3125
L29.2028 -17.9813
L29.3405 -17.6532
L29.4871 -17.3287
L29.6431 -17.0084
L29.8089 -16.6928
L29.985 -16.3827
L30.1719 -16.0786
L30.3698 -15.7812
L30.5794 -15.4913
L30.801 -15.2096
L31.0349 -14.9368
L31.2816 -14.6738
L31.5413 -14.4213
L31.8142 -14.1801
L32.1006 -13.9508
L32.4004 -13.7343
L32.7136 -13.5312
L33.0402 -13.3422
L33.3797 -13.1676
L33.7319 -13.0081
L34.0963 -12.8639
L34.4721 -12.7354
L34.8588 -12.6228
L35.2556 -12.5261
L35.6615 -12.4454
L36.0757 -12.3806
L36.4972 -12.3315
L36.9251 -12.2978
L37.3584 -12.2795
L37.796 -12.276
L38.2372 -12.287
L38.681 -12.3121
L39.1264 -12.351
L39.5727 -12.403
L40.019 -12.4678
L40.4647 -12.5449
L40.9091 -12.6337
L41.3514 -12.7339
L41.7912 -12.8449
L42.2279 -12.9663
L42.6611 -13.0975
L43.0902 -13.2382
L43.5149 -13.3878
L43.9348 -13.5459
L44.3497 -13.7122
L44.7592 -13.8861
L45.1631 -14.0672
L45.5612 -14.2553
L45.9533 -14.4498
L46.3393 -14.6505
L46.7191 -14.8569
L47.0925 -15.0688
L47.4594 -15.2858
L47.8199 -15.5077
L48.1738 -15.734
L48.5212 -15.9647
L48.862 -16.1992
L49.1963 -16.4376
L49.524 -16.6794
L49.8452 -16.9244
L50.1599 -17.1726
L50.4682 -17.4235
L50.7701 -17.6771
L51.0657 -17.9332
L51.3551 -18.1916
L51.6383 -18.4522
L51.9153 -18.7148
L52.1864 -18.9792
L52.4516 -19.2454
L52.7108 -19.5132
L52.9644 -19.7825
L53.2122 -20.0532
L53.4545 -20.3253
L53.6913 -20.5986
L53.9227 -20.873
L54.1487 -21.1485
L54.3696 -21.4251
L54.5853 -21.7026
L54.796 -21.981
L55.0017 -22.2603
L55.2026 -22.5404
L55.3986 -22.8213
L55.59 -23.1029
L55.7767 -23.3853
L55.9589 -23.6684
L56.1367 -23.9521
L56.31 -24.2366
L56.479 -24.5217
L56.6437 -24.8075
L56.8043 -25.0939
L56.9607 -25.381
L57.113 -25.6688
L57.2614 -25.9572
L57.4058 -26.2463
L57.5463 -26.5361
L57.6829 -26.8266
L57.8158 -27.1178
L57.9449 -27.4097
L58.0703 -27.7024
L58.192 -27.9959
L58.31 -28.2902
L58.4245 -28.5853
L58.5354 -28.8813
L58.6427 -29.1782
L58.7465 -29.476
L58.8468 -29.7747
L58.9436 -30.0745
L59.037 -30.3752
L59.1268 -30.677
L59.2133 -30.9799
L59.2962 -31.284
L59.3758 -31.5892
L59.4518 -31.8956
L59.5245 -32.2033
L59.5936 -32.5122
L59.6593 -32.8225
L59.7215 -33.1341
L59.7802 -33.4472
L59.8354 -33.7617
L59.887 -34.0778
L59.9351 -34.3953
L59.9795 -34.7145
L60.0203 -35.0353
L60.0574 -35.3577
L60.0907 -35.6819
L60.1203 -36.0078
L60.146 -36.3355
L60.1678 -36.665
L60.1857 -36.9964
L60.1995 -37.3297
L60.2093 -37.6649
L60.2149 -38.0021
L60.2163 -38.3414
L60.2133 -38.6826
L60.206 -39.0259
L60.1941 -39.3713
L60.1776 -39.7188
L60.1565 -40.0685
L60.1305 -40.4203
L60.0997 -40.7742
L60.0638 -41.1304
L60.0228 -41.4886
L59.9765 -41.8491
L59.9248 -42.2117
L59.8675 -42.5765
L59.8046 -42.9434
L59.7359 -43.3124
L59.6613 -43.6835
L59.5805 -44.0567
L59.4934 -44.4318
L59.4 -44.8088
L59.2999 -45.1877
L59.1932 -45.5684
L59.0794 -45.9508
L58.9587 -46.3348
L58.8306 -46.7203
L58.6951 -47.1071
L58.552 -47.4951
L58.4012 -47.8842
L58.2423 -48.2741
L58.0754 -48.6648
L57.9002 -49.0559
L57.7165 -49.4473
L57.5242 -49.8387
L57.3231 -50.2298
L57.1131 -50.6204
L56.8941 -51.0101
L56.6659 -51.3986
L56.4284 -51.7855
L56.1815 -52.1704
L55.9251 -52.553
L55.6593 -52.9327
L55.3839 -53.3092
L55.0989 -53.6818
L54.8043 -54.05
L54.5003 -54.4134
L54.1868 -54.7712
L53.8639 -55.1229
L53.532 -55.4678
L53.191 -55.8052
L52.8413 -56.1344
L52.4832 -56.4545
L52.117 -56.765
L51.7432 -57.0648
L51.3621 -57.3533
L50.9743 -57.6296
L50.5803 -57.8928
L50.1808 -58.1421
L49.7766 -58.3767
L49.3682 -58.5957
L48.9566 -58.7983
L48.5425 -58.9839
L48.1269 -59.1516
L47.7105 -59.301
L47.2943 -59.4315
L46.8792 -59.5426
L46.466 -59.6341
L46.0557 -59.7058
L45.6488 -59.7577
L45.2463 -59.7898
L44.8487 -59.8024
L44.4567 -59.7958
L44.0707 -59.7705
L43.6912 -59.7271
L43.3184 -59.6662
L42.9527 -59.5885
L42.5943 -59.495
L42.2432 -59.3863
L41.8996 -59.2634
L41.5635 -59.1271
L41.2348 -58.9782
L40.9136 -58.8176
L40.5996 -58.6461
L40.2929 -58.4646
L39.9933 -58.2737
L39.7007 -58.0742
L39.4149 -57.8668
L39.1358 -57.6522
L38.8633 -57.4309
L38.5972 -57.2037
L38.3373 -56.9709
L38.0835 -56.7331
L37.8357 -56.4908
L37.5938 -56.2445
L37.3574 -55.9946
L37.1266 -55.7414
L36.9012 -55.4853
L36.6811 -55.2267
L36.466 -54.9659
L36.256 -54.7031
L36.0507 -54.4386
L35.8503 -54.1727
L35.6544 -53.9056
L35.463 -53.6375
L35.2759 -53.3687
L35.0931 -53.0992
L34.9145 -52.8292
L34.7398 -52.559
L34.5691 -52.2886
L34.4022 -52.0181
L34.239 -51.7477
L34.0794 -51.4774
L33.9234 -51.2074
L33.7707 -50.9378
L33.6214 -50.6685
L33.4753 -50.3997
L33.3323 -50.1314
L33.1924 -49.8637
L33.0555 -49.5967
L32.9214 -49.3302
L32.7902 -49.0645
L32.6617 -48.7994
L32.5359 -48.535
L32.4127 -48.2714
L32.292 -48.0085
L32.1738 -47.7464
L32.0579 -47.485
L31.9444 -47.2243
L31.8331 -46.9644
L31.724 -46.7052
L31.6171 -46.4467
L31.5122 -46.1889
L31.4094 -45.9318
L31.3086 -45.6753
L31.2097 -45.4195
L31.1127 -45.1642
L31.0175 -44.9096
L30.9241 -44.6555
L30.8325 -44.4019
L30.7425 -44.1488
L30.6542 -43.8962
L30.5676 -43.644
L30.4825 -43.3921
L30.399 -43.1407
L30.317 -42.8895
L30.2364 -42.6386
L30.1574 -42.388
L30.0797 -42.1375
L30.0035 -41.8872
L29.9286 -41.637
L29.855 -41.3868
L29.7828 -41.1367
L29.7119 -40.8865
L29.6422 -40.6363
L29.5738 -40.386
L29.5066 -40.1355
L29.4406 -39.8848
z
" id="C0_1_a3cb4e0013"/>
    </defs>
    <g clip-path="url(#p1bffca34e9)">
     <use style="fill:#ff0000;stroke:#000000;stroke-width:2.0;" x="0.0" xlink:href="#C0_0_a811fe30f3" y="72.0"/>
    </g>
    <g clip-path="url(#p1bffca34e9)">
     <use style="fill:#ffffff;stroke:#000000;stroke-width:2.0;" x="0.0" xlink:href="#C0_1_a3cb4e0013" y="72.0"/>
    </g>
   </g>
  </g>
 </g>
 <defs>
  <clipPath id="p1bffca34e9">
   <rect height="72.0" width="72.0" x="0.0" y="0.0"/>
  </clipPath>
 </defs>
</svg>
