<?xml version="1.0" encoding="utf-8" standalone="no"?>
<!DOCTYPE svg PUBLIC "-//W3C//DTD SVG 1.1//EN"
  "http://www.w3.org/Graphics/SVG/1.1/DTD/svg11.dtd">
<!-- Created with matplotlib (http://matplotlib.org/) -->
<svg height="72pt" version="1.1" viewBox="0 0 72 72" width="72pt" xmlns="http://www.w3.org/2000/svg" xmlns:xlink="http://www.w3.org/1999/xlink">
 <defs>
  <style type="text/css">
*{stroke-linecap:butt;stroke-linejoin:round;}
  </style>
 </defs>
 <g id="figure_1">
  <g id="patch_1">
   <path d="
M0 72
L72 72
L72 0
L0 0
z
" style="fill:none;"/>
  </g>
  <g id="axes_1">
   <g id="PatchCollection_1">
    <defs>
     <path d="
M36 -7.5
C43.5583 -7.5 50.808 -10.5029 56.1525 -15.8475
C61.4971 -21.192 64.5 -28.4417 64.5 -36
C64.5 -43.5583 61.4971 -50.808 56.1525 -56.1525
C50.808 -61.4971 43.5583 -64.5 36 -64.5
C28.4417 -64.5 21.192 -61.4971 15.8475 -56.1525
C10.5029 -50.808 7.5 -43.5583 7.5 -36
C7.5 -28.4417 10.5029 -21.192 15.8475 -15.8475
C21.192 -10.5029 28.4417 -7.5 36 -7.5
z
" id="C0_0_a811fe30f3"/>
     <path d="
M58.3624 -53.3939
L58.1147 -53.3348
L57.8762 -53.2565
L57.6469 -53.1596
L57.4266 -53.0449
L57.215 -52.9131
L57.0117 -52.7652
L56.8163 -52.6021
L56.6283 -52.4247
L56.4472 -52.234
L56.2725 -52.0308
L56.1037 -51.8163
L55.9402 -51.5912
L55.7814 -51.3565
L55.627 -51.1131
L55.4764 -50.8618
L55.3291 -50.6035
L55.1848 -50.3387
L55.0431 -50.0684
L54.9036 -49.7931
L54.766 -49.5135
L54.63 -49.2301
L54.4953 -48.9435
L54.3617 -48.6542
L54.229 -48.3626
L54.0971 -48.0693
L53.9656 -47.7745
L53.8346 -47.4787
L53.7039 -47.1821
L53.5734 -46.8851
L53.443 -46.588
L53.3126 -46.2909
L53.1822 -45.9942
L53.0517 -45.698
L52.9211 -45.4026
L52.7903 -45.108
L52.6593 -44.8145
L52.5281 -44.5222
L52.3967 -44.2312
L52.2651 -43.9415
L52.1332 -43.6534
L52.001 -43.3668
L51.8687 -43.0819
L51.736 -42.7986
L51.6031 -42.5171
L51.47 -42.2375
L51.3366 -41.9596
L51.203 -41.6836
L51.0691 -41.4094
L50.935 -41.1372
L50.8006 -40.8668
L50.6661 -40.5983
L50.5313 -40.3317
L50.3963 -40.067
L50.2611 -39.8041
L50.1256 -39.5431
L49.9899 -39.2839
L49.854 -39.0266
L49.7179 -38.771
L49.5816 -38.5172
L49.445 -38.2651
L49.3082 -38.0147
L49.1712 -37.766
L49.0339 -37.5189
L48.8964 -37.2734
L48.7586 -37.0295
L48.6206 -36.7871
L48.4822 -36.5462
L48.3436 -36.3068
L48.2047 -36.0687
L48.0655 -35.832
L47.9259 -35.5966
L47.786 -35.3625
L47.6458 -35.1297
L47.5052 -34.898
L47.3642 -34.6675
L47.2228 -34.438
L47.0809 -34.2097
L46.9387 -33.9823
L46.7959 -33.7559
L46.6527 -33.5305
L46.509 -33.3059
L46.3647 -33.0822
L46.2199 -32.8593
L46.0745 -32.6372
L45.9285 -32.4157
L45.7819 -32.1949
L45.6347 -31.9748
L45.4868 -31.7552
L45.1888 -31.5362
L45.0387 -31.3176
L44.8878 -31.0996
L44.7361 -30.8819
L44.5836 -30.6646
L44.4301 -30.4477
L44.2758 -30.231
L44.1206 -30.0146
L43.9644 -29.7985
L43.8072 -29.5824
L43.6489 -29.3666
L43.4896 -29.1508
L43.3292 -28.9351
L43.1677 -28.7194
L43.005 -28.5038
L42.8411 -28.288
L42.676 -28.0722
L42.5097 -27.8563
L42.342 -27.6402
L42.173 -27.4239
L42.0026 -27.2074
L41.8308 -26.9907
L41.6576 -26.7737
L41.4829 -26.5564
L41.3067 -26.3388
L41.129 -26.1207
L40.9497 -25.9023
L40.7688 -25.6835
L40.5862 -25.4642
L40.402 -25.2445
L40.2161 -25.0243
L40.0284 -24.8035
L39.839 -24.5823
L39.6478 -24.3605
L39.4547 -24.1381
L39.2599 -23.9151
L39.0632 -23.6916
L38.8646 -23.4674
L38.6641 -23.2426
L38.4617 -23.0172
L38.2575 -22.7912
L38.0512 -22.5645
L37.8431 -22.3372
L37.6331 -22.1092
L37.4211 -21.8806
L37.2073 -21.6514
L36.9916 -21.4216
L36.7741 -21.1911
L36.5547 -20.96
L36.3336 -20.7283
L36.1107 -20.496
L35.8863 -20.2632
L35.6602 -20.0298
L35.4326 -19.7959
L35.2037 -19.5615
L34.9735 -19.3266
L34.7421 -19.0913
L34.5097 -18.8555
L34.2764 -18.6193
L34.0425 -18.3828
L33.8082 -18.1459
L33.5736 -17.9086
L33.339 -17.6711
L33.1047 -17.4333
L32.8711 -17.1953
L32.6384 -16.957
L32.407 -16.7185
L32.1773 -16.4798
L31.9498 -16.2408
L31.7249 -16.0017
L31.5033 -15.7623
L31.2854 -15.5226
L31.0718 -15.2827
L30.8634 -15.0424
L30.6607 -14.8017
L30.4645 -14.5606
L30.2756 -14.3189
L30.0949 -14.0766
L29.9234 -13.8336
L29.7618 -13.5897
L29.6112 -13.3449
L29.4727 -13.099
L29.3471 -12.8519
L29.2355 -12.6034
L29.1388 -12.3536
L29.0582 -12.1022
L28.9944 -11.8492
L28.9483 -11.5945
L28.9207 -11.3382
L28.9124 -11.0802
L28.9238 -10.8208
L28.9554 -10.5599
L29.0077 -10.2977
L29.0808 -10.0346
L29.1747 -9.77085
L29.2895 -9.50673
L29.425 -9.24268
L29.5809 -8.97915
L29.757 -8.7166
L29.9526 -8.45556
L30.4297 -8.19655
L30.9183 -8.04966
L31.4085 -7.9567
L31.9001 -7.87228
L32.393 -7.79644
L32.8869 -7.72918
L33.3818 -7.67053
L33.8775 -7.62052
L34.3738 -7.57915
L34.8707 -7.54643
L35.3678 -7.52238
L35.8652 -7.50701
L36.3626 -7.50032
L36.8599 -7.50231
L37.357 -7.51298
L37.8536 -7.53232
L38.3496 -7.56034
L38.845 -7.59702
L39.3395 -7.64235
L39.8329 -7.69632
L40.3252 -7.75892
L40.8162 -7.83011
L41.3057 -7.90989
L41.7936 -7.99822
L42.2797 -8.09508
L42.7639 -8.20044
L43.2461 -8.31427
L43.726 -8.43654
L44.2036 -8.56719
L44.6787 -8.70621
L45.1511 -8.85354
L45.6208 -9.00914
L46.0875 -9.17296
L46.5512 -9.34495
L47.0116 -9.52506
L47.4687 -9.71324
L47.9223 -9.90942
L48.3723 -10.1136
L48.8185 -10.3256
L49.2608 -10.5454
L49.699 -10.773
L50.1331 -11.0083
L50.5629 -11.2512
L50.9882 -11.5016
L51.409 -11.7595
L51.8251 -12.0247
L52.2363 -12.2973
L52.6426 -12.5771
L53.0439 -12.864
L53.4399 -13.158
L53.8307 -13.459
L54.216 -13.7668
L54.5957 -14.0813
L54.9698 -14.4026
L55.3382 -14.7304
L55.7006 -15.0647
L56.057 -15.4054
L56.4073 -15.7524
L56.7514 -16.1055
L57.0892 -16.4647
L57.4206 -16.8298
L57.7454 -17.2008
L58.0636 -17.5775
L58.3751 -17.9598
L58.6797 -18.3476
L58.9775 -18.7408
L59.2683 -19.1393
L59.5519 -19.5428
L59.8284 -19.9514
L60.0977 -20.3649
L60.3596 -20.7832
L60.6141 -21.206
L60.861 -21.6334
L61.1004 -22.0652
L61.3322 -22.5012
L61.5563 -22.9413
L61.7725 -23.3854
L61.9809 -23.8334
L62.1814 -24.285
L62.374 -24.7402
L62.5584 -25.1989
L62.7348 -25.6608
L62.9031 -26.1259
L63.0632 -26.594
L63.215 -27.0649
L63.3585 -27.5386
L63.4937 -28.0149
L63.6205 -28.4935
L63.7389 -28.9745
L63.8489 -29.4576
L63.9503 -29.9427
L64.0433 -30.4297
L64.1277 -30.9183
L64.2036 -31.4085
L64.2708 -31.9001
L64.3295 -32.393
L64.3795 -32.8869
L64.4209 -33.3818
L64.4536 -33.8775
L64.4776 -34.3738
L64.493 -34.8707
L64.4997 -35.3678
L64.4977 -35.8652
L64.487 -36.3626
L64.4677 -36.8599
L64.4397 -37.357
L64.403 -37.8536
L64.3576 -38.3496
L64.3037 -38.845
L64.2411 -39.3395
L64.1699 -39.8329
L64.0901 -40.3252
L64.0018 -40.8162
L63.9049 -41.3057
L63.7996 -41.7936
L63.6857 -42.2797
L63.5635 -42.7639
L63.4328 -43.2461
L63.2938 -43.726
L63.1465 -44.2036
L62.9909 -44.6787
L62.827 -45.1511
L62.655 -45.6208
L62.4749 -46.0875
L62.2868 -46.5512
L62.0906 -47.0116
L61.8864 -47.4687
L61.6744 -47.9223
L61.4546 -48.3723
L61.227 -48.8185
L60.9917 -49.2608
L60.7488 -49.699
L60.4984 -50.1331
L60.2405 -50.5629
L59.9753 -50.9882
L59.7027 -51.409
L59.4229 -51.8251
L59.136 -52.2363
L58.842 -52.6426
z
" id="C0_1_23e4c59c03"/>
     <path d="
M41.7674 -63.7463
L41.4581 -63.5993
L41.1402 -63.4525
L40.8147 -63.3057
L40.4826 -63.1584
L40.1448 -63.0103
L39.8022 -62.861
L39.4557 -62.7104
L39.106 -62.5581
L38.7538 -62.4039
L38.3999 -62.2478
L38.0449 -62.0895
L37.6893 -61.9289
L37.3338 -61.7659
L36.9787 -61.6006
L36.6246 -61.4328
L36.2718 -61.2626
L35.9207 -61.0899
L35.5716 -60.9148
L35.2249 -60.7373
L34.8807 -60.5574
L34.5394 -60.3752
L34.2011 -60.1908
L33.8659 -60.0042
L33.5342 -59.8155
L33.2059 -59.6247
L32.8812 -59.432
L32.5603 -59.2374
L32.2431 -59.041
L31.9298 -58.8429
L31.6203 -58.6431
L31.3148 -58.4418
L31.0132 -58.2389
L30.7156 -58.0347
L30.422 -57.8291
L30.1324 -57.6222
L29.8467 -57.414
L29.5649 -57.2047
L29.2871 -56.9944
L29.0131 -56.7829
L28.743 -56.5705
L28.4767 -56.3571
L28.2142 -56.1428
L27.9554 -55.9276
L27.7002 -55.7116
L27.4487 -55.4949
L27.2008 -55.2773
L26.9563 -55.059
L26.7154 -54.84
L26.4778 -54.6203
L26.2436 -54.4
L26.0126 -54.1789
L25.7849 -53.9573
L25.5603 -53.7349
L25.3389 -53.512
L25.1205 -53.2884
L24.905 -53.0642
L24.6925 -52.8394
L24.4829 -52.6139
L24.2761 -52.3878
L24.072 -52.1611
L23.8707 -51.9337
L23.672 -51.7056
L23.4758 -51.4768
L23.2823 -51.2474
L23.0912 -51.0172
L22.9025 -50.7863
L22.7163 -50.5546
L22.5324 -50.3222
L22.3507 -50.0889
L22.1714 -49.8548
L21.9942 -49.6199
L21.8192 -49.3841
L21.6463 -49.1473
L21.4756 -48.9096
L21.3068 -48.6709
L21.1401 -48.4312
L20.9753 -48.1905
L20.8125 -47.9486
L20.6516 -47.7056
L20.4926 -47.4615
L20.3354 -47.2161
L20.1801 -46.9695
L20.0265 -46.7216
L19.8748 -46.4723
L19.7247 -46.2217
L19.5764 -45.9696
L19.4299 -45.7161
L19.285 -45.4611
L19.1418 -45.2044
L19.0002 -44.9462
L18.8603 -44.6863
L18.7221 -44.4247
L18.5855 -44.1613
L18.4505 -43.8961
L18.3172 -43.629
L18.1854 -43.36
L18.0553 -43.089
L17.9268 -42.816
L17.7999 -42.541
L17.6747 -42.2637
L17.5511 -41.9843
L17.4292 -41.7027
L17.3089 -41.4187
L17.1902 -41.1324
L17.0733 -40.8437
L16.9581 -40.5525
L16.8446 -40.2588
L16.7328 -39.9626
L16.6228 -39.6637
L16.5147 -39.3622
L16.4083 -39.058
L16.3038 -38.751
L16.2012 -38.4412
L16.1006 -38.1286
L16.0019 -37.8131
L15.9052 -37.4946
L15.8106 -37.1732
L15.718 -36.8488
L15.6276 -36.5214
L15.5394 -36.1909
L15.4534 -35.8574
L15.3697 -35.5207
L15.2884 -35.181
L15.2094 -34.8382
L15.1329 -34.4923
L15.0589 -34.1432
L14.9874 -33.7911
L14.9185 -33.436
L14.8523 -33.0778
L14.7888 -32.7166
L14.728 -32.3525
L14.67 -31.9855
L14.6148 -31.6157
L14.5625 -31.2432
L14.5131 -30.8681
L14.4666 -30.4905
L14.423 -30.1105
L14.3824 -29.7283
L14.3446 -29.344
L14.3098 -28.9579
L14.2778 -28.57
L14.2486 -28.1807
L14.2221 -27.7902
L14.1983 -27.3988
L14.177 -27.0067
L14.158 -26.6142
L14.1412 -26.2218
L14.1264 -25.8297
L14.1133 -25.4384
L14.1017 -25.0484
L14.0912 -24.66
L14.0815 -24.2737
L14.0721 -23.8902
L14.0626 -23.5099
L14.0525 -23.1334
L14.0413 -22.7613
L14.0282 -22.3943
L14.0128 -22.0331
L13.9942 -21.6782
L13.9719 -21.3305
L13.9449 -20.9906
L13.9126 -20.6593
L13.8741 -20.3373
L13.8287 -20.0252
L13.7757 -19.7238
L13.7141 -19.4337
L13.6435 -19.1556
L13.5631 -18.8901
L13.1262 -18.6376
L12.833 -18.9988
L12.5468 -19.4006
L12.2678 -19.8074
L11.996 -20.2192
L11.7315 -20.6358
L11.4744 -21.0571
L11.2248 -21.4829
L10.9827 -21.9131
L10.7483 -22.3476
L10.5215 -22.7863
L10.3025 -23.2291
L10.0913 -23.6757
L9.88806 -24.126
L9.69273 -24.58
L9.50541 -25.0375
L9.32617 -25.4982
L9.15505 -25.9622
L8.9921 -26.4293
L8.83739 -26.8993
L8.69094 -27.372
L8.55282 -27.8474
L8.42306 -28.3252
L8.30169 -28.8054
L8.18877 -29.2878
L8.08431 -29.7722
L7.98836 -30.2585
L7.90095 -30.7466
L7.82209 -31.2363
L7.75181 -31.7274
L7.69014 -32.2198
L7.63709 -32.7134
L7.59268 -33.208
L7.55693 -33.7034
L7.52984 -34.1995
L7.51142 -34.6962
L7.50168 -35.1933
L7.50062 -35.6906
L7.50824 -36.188
L7.52454 -36.6853
L7.54952 -37.1825
L7.58316 -37.6793
L7.62545 -38.1756
L7.67639 -38.6712
L7.73596 -39.166
L7.80414 -39.6598
L7.8809 -40.1525
L7.96623 -40.644
L8.0601 -41.134
L8.16249 -41.6225
L8.27335 -42.1092
L8.39265 -42.5941
L8.52037 -43.077
L8.65646 -43.5578
L8.80087 -44.0362
L8.95357 -44.5122
L9.11451 -44.9856
L9.28364 -45.4562
L9.46091 -45.924
L9.64626 -46.3888
L9.83964 -46.8504
L10.041 -47.3086
L10.2502 -47.7635
L10.4673 -48.2147
L10.6922 -48.6623
L10.9248 -49.1059
L11.165 -49.5456
L11.4128 -49.9812
L11.6681 -50.4125
L11.9308 -50.8394
L12.2008 -51.2618
L12.4781 -51.6795
L12.7625 -52.0925
L13.054 -52.5006
L13.3525 -52.9036
L13.6579 -53.3015
L13.9701 -53.6941
L14.289 -54.0813
L14.6146 -54.4631
L14.9466 -54.8392
L15.2851 -55.2095
L15.6299 -55.574
L15.9808 -55.9326
L16.3379 -56.285
L16.701 -56.6313
L17.0699 -56.9713
L17.4446 -57.305
L17.825 -57.6321
L18.2109 -57.9526
L18.6022 -58.2665
L18.9988 -58.5736
L19.4006 -58.8738
L19.8074 -59.167
L20.2192 -59.4532
L20.6358 -59.7322
L21.0571 -60.004
L21.4829 -60.2685
L21.9131 -60.5256
L22.3476 -60.7752
L22.7863 -61.0173
L23.2291 -61.2517
L23.6757 -61.4785
L24.126 -61.6975
L24.58 -61.9087
L25.0375 -62.1119
L25.4982 -62.3073
L25.9622 -62.4946
L26.4293 -62.6738
L26.8993 -62.845
L27.372 -63.0079
L27.8474 -63.1626
L28.3252 -63.3091
L28.8054 -63.4472
L29.2878 -63.5769
L29.7722 -63.6983
L30.2585 -63.8112
L30.7466 -63.9157
L31.2363 -64.0116
L31.7274 -64.0991
L32.2198 -64.1779
L32.7134 -64.2482
L33.208 -64.3099
L33.7034 -64.3629
L34.1995 -64.4073
L34.6962 -64.4431
L35.1933 -64.4702
L35.6906 -64.4886
L36.188 -64.4983
L36.6853 -64.4994
L37.1825 -64.4918
L37.6793 -64.4755
L38.1756 -64.4505
L38.6712 -64.4168
L39.166 -64.3745
L39.6598 -64.3236
L40.1525 -64.264
L40.644 -64.1959
L41.134 -64.1191
z
" id="C0_2_2e3c7efc28"/>
    </defs>
    <g clip-path="url(#p1bffca34e9)">
     <use style="fill:#ff0000;stroke:#000000;stroke-width:2.0;" x="0.0" xlink:href="#C0_0_a811fe30f3" y="72.0"/>
    </g>
    <g clip-path="url(#p1bffca34e9)">
     <use style="fill:#ffffff;stroke:#000000;stroke-width:2.0;" x="0.0" xlink:href="#C0_1_23e4c59c03" y="72.0"/>
    </g>
    <g clip-path="url(#p1bffca34e9)">
     <use style="fill:#ffffff;stroke:#000000;stroke-width:2.0;" x="0.0" xlink:href="#C0_2_2e3c7efc28" y="72.0"/>
    </g>
   </g>
  </g>
 </g>
 <defs>
  <clipPath id="p1bffca34e9">
   <rect height="72.0" width="72.0" x="0.0" y="0.0"/>
  </clipPath>
 </defs>
</svg>
