<?xml version="1.0" encoding="utf-8" standalone="no"?>
<!DOCTYPE svg PUBLIC "-//W3C//DTD SVG 1.1//EN"
  "http://www.w3.org/Graphics/SVG/1.1/DTD/svg11.dtd">
<!-- Created with matplotlib (http://matplotlib.org/) -->
<svg height="72pt" version="1.1" viewBox="0 0 72 72" width="72pt" xmlns="http://www.w3.org/2000/svg" xmlns:xlink="http://www.w3.org/1999/xlink">
 <defs>
  <style type="text/css">
*{stroke-linecap:butt;stroke-linejoin:round;}
  </style>
 </defs>
 <g id="figure_1">
  <g id="patch_1">
   <path d="
M0 72
L72 72
L72 0
L0 0
z
" style="fill:none;"/>
  </g>
  <g id="axes_1">
   <g id="PatchCollection_1">
    <defs>
     <path d="
M36 -7.5
C43.5583 -7.5 50.808 -10.5029 56.1525 -15.8475
C61.4971 -21.192 64.5 -28.4417 64.5 -36
C64.5 -43.5583 61.4971 -50.808 56.1525 -56.1525
C50.808 -61.4971 43.5583 -64.5 36 -64.5
C28.4417 -64.5 21.192 -61.4971 15.8475 -56.1525
C10.5029 -50.808 7.5 -43.5583 7.5 -36
C7.5 -28.4417 10.5029 -21.192 15.8475 -15.8475
C21.192 -10.5029 28.4417 -7.5 36 -7.5
z
" id="C0_0_a811fe30f3"/>
     <path d="
M40.4259 -64.1016
L40.7111 -63.8942
L40.9886 -63.6835
L41.2586 -63.4696
L41.5212 -63.253
L41.7766 -63.0336
L42.025 -62.8118
L42.2665 -62.5878
L42.5012 -62.3616
L42.7295 -62.1336
L42.9513 -61.9037
L43.1669 -61.6722
L43.3764 -61.4392
L43.58 -61.2047
L43.7777 -60.969
L43.9699 -60.7321
L44.1566 -60.4942
L44.3379 -60.2552
L44.514 -60.0153
L44.6851 -59.7746
L44.8512 -59.5331
L45.0124 -59.2909
L45.169 -59.048
L45.321 -58.8045
L45.4685 -58.5605
L45.6116 -58.3159
L45.7505 -58.0708
L45.8853 -57.8252
L46.016 -57.5792
L46.1427 -57.3328
L46.2656 -57.086
L46.3847 -56.8388
L46.5002 -56.5912
L46.612 -56.3433
L46.7203 -56.095
L46.8251 -55.8463
L46.9266 -55.5973
L47.0247 -55.348
L47.1197 -55.0983
L47.2114 -54.8482
L47.3 -54.5977
L47.3855 -54.3468
L47.4681 -54.0956
L47.5477 -53.8439
L47.6243 -53.5918
L47.6981 -53.3393
L47.7691 -53.0863
L47.8373 -52.8328
L47.9027 -52.5788
L47.9655 -52.3243
L48.0255 -52.0693
L48.1377 -51.8137
L48.1899 -51.5575
L48.2395 -51.3006
L48.2866 -51.0432
L48.3311 -50.7851
L48.3731 -50.5262
L48.4126 -50.2667
L48.4496 -50.0064
L48.4841 -49.7453
L48.5161 -49.4835
L48.5457 -49.2208
L48.5727 -48.9572
L48.5973 -48.6928
L48.6194 -48.4274
L48.639 -48.1611
L48.6562 -47.8938
L48.6708 -47.6255
L48.6829 -47.3562
L48.6925 -47.0859
L48.6995 -46.8145
L48.704 -46.5419
L48.7059 -46.2683
L48.7052 -45.9935
L48.7018 -45.7175
L48.6958 -45.4403
L48.6871 -45.1619
L48.6756 -44.8823
L48.6615 -44.6014
L48.6445 -44.3193
L48.6247 -44.0358
L48.602 -43.7511
L48.5764 -43.4651
L48.5478 -43.1778
L48.5162 -42.8892
L48.4816 -42.5993
L48.4438 -42.3081
L48.4029 -42.0155
L48.3587 -41.7217
L48.3113 -41.4266
L48.2605 -41.1303
L48.2063 -40.8327
L48.1487 -40.5339
L48.0874 -40.2339
L48.0226 -39.9328
L47.9541 -39.6305
L47.8818 -39.3273
L47.8057 -39.023
L47.7257 -38.7178
L47.6417 -38.4117
L47.5536 -38.1049
L47.4613 -37.7973
L47.3648 -37.4892
L47.264 -37.1805
L47.1588 -36.8715
L47.0491 -36.5622
L46.9348 -36.2528
L46.8158 -35.9433
L46.6921 -35.6341
L46.5635 -35.3252
L46.43 -35.0168
L46.2914 -34.7091
L46.1478 -34.4024
L45.9989 -34.0968
L45.8448 -33.7925
L45.6853 -33.4899
L45.5203 -33.1891
L45.3499 -32.8905
L45.1738 -32.5943
L44.9921 -32.3009
L44.8046 -32.0106
L44.6113 -31.7236
L44.4122 -31.4404
L44.2073 -31.1613
L43.9963 -30.8867
L43.7794 -30.6169
L43.5566 -30.3523
L43.3277 -30.0934
L43.0928 -29.8404
L42.852 -29.5939
L42.6052 -29.3543
L42.3524 -29.1218
L42.0938 -28.897
L41.8294 -28.6801
L41.5593 -28.4717
L41.2837 -28.272
L41.0025 -28.0813
L40.716 -27.9
L40.4244 -27.7284
L40.1277 -27.5667
L39.8263 -27.4151
L39.5203 -27.2739
L39.21 -27.1432
L38.8957 -27.0231
L38.5775 -26.9138
L38.2557 -26.8151
L37.9308 -26.7272
L37.6029 -26.6501
L37.2723 -26.5835
L36.9394 -26.5275
L36.6045 -26.4819
L36.2679 -26.4466
L35.9299 -26.4213
L35.5908 -26.4058
L35.2509 -26.3999
L34.9105 -26.4033
L34.57 -26.4158
L34.2295 -26.4372
L33.8894 -26.467
L33.5499 -26.5051
L33.2112 -26.551
L32.8737 -26.6046
L32.5375 -26.6656
L32.2028 -26.7335
L31.8699 -26.8082
L31.5389 -26.8894
L31.2099 -26.9767
L30.8833 -27.0699
L30.559 -27.1687
L30.2373 -27.2729
L29.9182 -27.3822
L29.6019 -27.4964
L29.2885 -27.6151
L28.9781 -27.7383
L28.6707 -27.8657
L28.3664 -27.9971
L28.0653 -28.1322
L27.7675 -28.2709
L27.4729 -28.413
L27.1816 -28.5583
L26.8937 -28.7067
L26.6092 -28.858
L26.3281 -29.0121
L26.0504 -29.1688
L25.7761 -29.3279
L25.5053 -29.4895
L25.2378 -29.6532
L24.9738 -29.8191
L24.7131 -29.987
L24.4559 -30.1569
L24.202 -30.3286
L23.9515 -30.502
L23.7043 -30.6771
L23.4604 -30.8538
L23.2198 -31.032
L22.9824 -31.2117
L22.7482 -31.3928
L22.5172 -31.5753
L22.2894 -31.759
L22.0647 -31.944
L21.8431 -32.1303
L21.6245 -32.3177
L21.4089 -32.5062
L21.1964 -32.6959
L20.9867 -32.8866
L20.78 -33.0784
L20.5761 -33.2713
L20.3751 -33.4652
L20.1769 -33.6601
L19.9814 -33.856
L19.7887 -34.0529
L19.5987 -34.2508
L19.4114 -34.4497
L19.2267 -34.6496
L19.0446 -34.8505
L18.8651 -35.0524
L18.6881 -35.2553
L18.5137 -35.4592
L18.3417 -35.6641
L18.1723 -35.87
L18.0053 -36.077
L17.8407 -36.2851
L17.6785 -36.4943
L17.5187 -36.7046
L17.3613 -36.916
L17.2063 -37.1285
L17.0536 -37.3422
L16.9033 -37.5571
L16.7552 -37.7733
L16.6095 -37.9907
L16.4662 -38.2093
L16.3251 -38.4293
L16.1863 -38.6507
L16.0499 -38.8734
L15.9157 -39.0976
L15.7839 -39.3232
L15.6544 -39.5503
L15.5273 -39.7789
L15.4025 -40.0091
L15.28 -40.2409
L15.16 -40.4744
L15.0424 -40.7095
L14.9272 -40.9464
L14.8144 -41.1851
L14.7042 -41.4256
L14.5965 -41.668
L14.4913 -41.9123
L14.3887 -42.1585
L14.2888 -42.4068
L14.1916 -42.6572
L14.0972 -42.9096
L14.0055 -43.1643
L13.9168 -43.4211
L13.8309 -43.6802
L13.7481 -43.9417
L13.6684 -44.2055
L13.5918 -44.4717
L13.5184 -44.7404
L13.4484 -45.0116
L13.3818 -45.2854
L13.3188 -45.5619
L13.2594 -45.841
L13.2038 -46.1228
L13.152 -46.4074
L13.1042 -46.6948
L13.0606 -46.9851
L13.0212 -47.2782
L12.9863 -47.5744
L12.956 -47.8735
L12.9303 -48.1756
L12.9096 -48.4808
L12.894 -48.7891
L12.8837 -49.1005
L12.8788 -49.4151
L12.8796 -49.7328
L12.8863 -50.0537
L12.8991 -50.3778
L12.9182 -50.705
L12.9439 -51.0355
L12.9764 -51.3691
L13.016 -51.7059
L13.0629 -52.0457
L13.1175 -52.3887
L13.2926 -52.7347
L13.5967 -53.2228
L13.9075 -53.6165
L14.2251 -54.0048
L14.5494 -54.3876
L14.8801 -54.7649
L15.2173 -55.1364
L15.5608 -55.502
L15.9106 -55.8618
L16.2665 -56.2155
L16.6283 -56.563
L16.9961 -56.9043
L17.3697 -57.2392
L17.7489 -57.5676
L18.1337 -57.8895
L18.524 -58.2046
L18.9195 -58.5131
L19.3203 -58.8146
L19.7262 -59.1093
L20.137 -59.3968
L20.5526 -59.6773
L20.973 -59.9505
L21.3979 -60.2165
L21.8273 -60.4751
L22.261 -60.7262
L22.6988 -60.9698
L23.1408 -61.2057
L23.5866 -61.434
L24.0362 -61.6546
L24.4895 -61.8673
L24.9463 -62.0722
L25.4064 -62.2691
L25.8698 -62.458
L26.3362 -62.6389
L26.8056 -62.8116
L27.2778 -62.9762
L27.7527 -63.1325
L28.2301 -63.2806
L28.7098 -63.4204
L29.1917 -63.5518
L29.6758 -63.6749
L30.1617 -63.7895
L30.6495 -63.8956
L31.1388 -63.9932
L31.6297 -64.0824
L32.1219 -64.1629
L32.6152 -64.2349
L33.1096 -64.2983
L33.6049 -64.3531
L34.1009 -64.3992
L34.5974 -64.4367
L35.0945 -64.4655
L35.5917 -64.4856
L36.0891 -64.4971
L36.5865 -64.4999
L37.0837 -64.494
L37.5806 -64.4794
L38.077 -64.4561
L38.5727 -64.4242
L39.0677 -64.3836
L39.5617 -64.3344
z
" id="C0_1_4502ac93cd"/>
     <path d="
M58.81 -18.9238
L58.4908 -18.7626
L58.1683 -18.6037
L57.8424 -18.4471
L57.5133 -18.2926
L57.1809 -18.1402
L56.8453 -17.99
L56.5066 -17.8418
L56.1648 -17.6955
L55.82 -17.5511
L55.4724 -17.4085
L55.1219 -17.2677
L54.7687 -17.1284
L54.4129 -16.9906
L54.0546 -16.8543
L53.6939 -16.7192
L53.331 -16.5852
L52.9659 -16.4522
L52.5989 -16.3201
L52.23 -16.1886
L51.8594 -16.0577
L51.4873 -15.9271
L51.1137 -15.7966
L50.739 -15.6662
L50.3632 -15.5355
L49.9866 -15.4043
L49.6092 -15.2726
L49.2313 -15.1401
L48.853 -15.0065
L48.4744 -14.8718
L48.0958 -14.7356
L47.7173 -14.598
L47.3389 -14.4586
L46.9609 -14.3175
L46.5834 -14.1744
L46.2065 -14.0292
L45.8302 -13.8819
L45.4548 -13.7325
L45.0801 -13.5809
L44.7064 -13.4271
L44.3336 -13.2712
L43.9619 -13.1132
L43.5912 -12.9532
L43.2215 -12.7914
L42.8529 -12.6279
L42.4854 -12.4629
L42.119 -12.2965
L41.7536 -12.1289
L41.3893 -11.9605
L41.0261 -11.7913
L40.6638 -11.6218
L40.3026 -11.452
L39.9423 -11.2823
L39.583 -11.1129
L39.2246 -10.9441
L38.8672 -10.7761
L38.5107 -10.6092
L38.155 -10.4436
L37.8003 -10.2795
L37.4464 -10.1173
L37.0933 -9.95699
L36.7411 -9.7989
L36.3898 -9.6432
L36.0393 -9.49007
L35.6896 -9.33967
L35.3408 -9.19217
L34.9927 -9.04772
L34.6456 -8.90645
L34.2992 -8.76849
L33.9537 -8.63395
L33.609 -8.50294
L33.2651 -8.37556
L32.922 -8.25189
L32.5798 -8.13201
L32.2384 -8.01599
L32.3753 -7.9039
L32.8692 -7.73145
L33.364 -7.67249
L33.8597 -7.62216
L34.356 -7.58048
L34.8528 -7.54746
L35.35 -7.5231
L35.8473 -7.50741
L36.3447 -7.50041
L36.8421 -7.50209
L37.3391 -7.51244
L37.8357 -7.53148
L38.3318 -7.55918
L38.8272 -7.59555
L39.3217 -7.64058
L39.8152 -7.69424
L40.3075 -7.75652
L40.7986 -7.8274
L41.2881 -7.90687
L41.7761 -7.9949
L42.2623 -8.09145
L42.7465 -8.19651
L43.2288 -8.31004
L43.7088 -8.432
L44.1865 -8.56236
L44.6617 -8.70107
L45.1342 -8.8481
L45.604 -9.00341
L46.0708 -9.16693
L46.5346 -9.33863
L46.9952 -9.51845
L47.4524 -9.70634
L47.9061 -9.90224
L48.3562 -10.1061
L48.8025 -10.3178
L49.245 -10.5374
L49.6834 -10.7647
L50.1176 -10.9997
L50.5475 -11.2423
L50.973 -11.4925
L51.394 -11.7501
L51.8102 -12.0151
L52.2216 -12.2874
L52.6281 -12.5669
L53.0296 -12.8536
L53.4258 -13.1473
L53.8167 -13.448
L54.2022 -13.7556
L54.5822 -14.0699
L54.9565 -14.3909
L55.325 -14.7185
L55.6877 -15.0526
L56.0443 -15.3931
L56.3948 -15.7398
L56.7392 -16.0927
L57.0772 -16.4517
L57.4088 -16.8166
L57.7338 -17.1874
L58.0523 -17.5639
L58.364 -17.946
z
" id="C0_2_2e4e80b634"/>
    </defs>
    <g clip-path="url(#p1bffca34e9)">
     <use style="fill:#ffffff;stroke:#000000;stroke-width:2.0;" x="0.0" xlink:href="#C0_0_a811fe30f3" y="72.0"/>
    </g>
    <g clip-path="url(#p1bffca34e9)">
     <use style="fill:#ff0000;stroke:#000000;stroke-width:2.0;" x="0.0" xlink:href="#C0_1_4502ac93cd" y="72.0"/>
    </g>
    <g clip-path="url(#p1bffca34e9)">
     <use style="fill:#ff0000;stroke:#000000;stroke-width:2.0;" x="0.0" xlink:href="#C0_2_2e4e80b634" y="72.0"/>
    </g>
   </g>
  </g>
 </g>
 <defs>
  <clipPath id="p1bffca34e9">
   <rect height="72.0" width="72.0" x="0.0" y="0.0"/>
  </clipPath>
 </defs>
</svg>
