<?xml version="1.0" encoding="utf-8" standalone="no"?>
<!DOCTYPE svg PUBLIC "-//W3C//DTD SVG 1.1//EN"
  "http://www.w3.org/Graphics/SVG/1.1/DTD/svg11.dtd">
<!-- Created with matplotlib (http://matplotlib.org/) -->
<svg height="72pt" version="1.1" viewBox="0 0 72 72" width="72pt" xmlns="http://www.w3.org/2000/svg" xmlns:xlink="http://www.w3.org/1999/xlink">
 <defs>
  <style type="text/css">
*{stroke-linecap:butt;stroke-linejoin:round;}
  </style>
 </defs>
 <g id="figure_1">
  <g id="patch_1">
   <path d="
M0 72
L72 72
L72 0
L0 0
z
" style="fill:none;"/>
  </g>
  <g id="axes_1">
   <g id="PatchCollection_1">
    <defs>
     <path d="
M36 -7.5
C43.5583 -7.5 50.808 -10.5029 56.1525 -15.8475
C61.4971 -21.192 64.5 -28.4417 64.5 -36
C64.5 -43.5583 61.4971 -50.808 56.1525 -56.1525
C50.808 -61.4971 43.5583 -64.5 36 -64.5
C28.4417 -64.5 21.192 -61.4971 15.8475 -56.1525
C10.5029 -50.808 7.5 -43.5583 7.5 -36
C7.5 -28.4417 10.5029 -21.192 15.8475 -15.8475
C21.192 -10.5029 28.4417 -7.5 36 -7.5
z
" id="C0_0_a811fe30f3"/>
     <path d="
M46.011 -39.0977
L46.0673 -38.843
L46.1223 -38.5879
L46.1759 -38.3323
L46.2282 -38.0763
L46.2791 -37.8197
L46.3287 -37.5624
L46.377 -37.3045
L46.4239 -37.0459
L46.4695 -36.7865
L46.5138 -36.5262
L46.5568 -36.265
L46.5984 -36.0028
L46.6387 -35.7396
L46.6776 -35.4753
L46.7152 -35.2099
L46.7514 -34.9432
L46.7863 -34.6753
L46.8197 -34.406
L46.8517 -34.1353
L46.8823 -33.8632
L46.9114 -33.5896
L46.9391 -33.3144
L46.9652 -33.0376
L46.9898 -32.759
L47.0128 -32.4787
L47.0342 -32.1966
L47.054 -31.9127
L47.0721 -31.6268
L47.0884 -31.3389
L47.103 -31.0489
L47.1158 -30.7569
L47.1267 -30.4627
L47.1357 -30.1663
L47.1427 -29.8677
L47.1476 -29.5667
L47.1505 -29.2634
L47.1511 -28.9577
L47.1496 -28.6496
L47.1456 -28.339
L47.1393 -28.0259
L47.1305 -27.7102
L47.1191 -27.392
L47.105 -27.0712
L47.0882 -26.7478
L47.0684 -26.4217
L47.0457 -26.0931
L47.0198 -25.7618
L46.9908 -25.4278
L46.9584 -25.0913
L46.9225 -24.7521
L46.8829 -24.4104
L46.8396 -24.0662
L46.7924 -23.7195
L46.7412 -23.3704
L46.6856 -23.019
L46.6257 -22.6653
L46.5612 -22.3095
L46.4919 -21.9516
L46.4177 -21.5919
L46.3382 -21.2304
L46.2534 -20.8674
L46.163 -20.5029
L46.0667 -20.1374
L45.9644 -19.7708
L45.8557 -19.4037
L45.7405 -19.0362
L45.6183 -18.6686
L45.489 -18.3014
L45.3522 -17.935
L45.2076 -17.5697
L45.0548 -17.206
L44.8936 -16.8446
L44.7234 -16.486
L44.544 -16.1308
L44.3548 -15.7798
L44.1554 -15.4337
L43.9454 -15.0934
L43.7241 -14.7599
L43.4911 -14.4342
L43.2459 -14.1174
L42.9878 -13.8107
L42.7164 -13.5155
L42.4309 -13.2331
L42.1311 -12.9649
L41.8163 -12.7125
L41.4864 -12.4772
L41.141 -12.2605
L40.7803 -12.0636
L40.4045 -11.8877
L40.014 -11.7337
L39.6095 -11.6022
L39.192 -11.4936
L38.7626 -11.408
L38.3228 -11.3452
L37.8738 -11.3047
L37.4173 -11.2859
L36.9548 -11.2881
L36.4877 -11.3103
L36.0175 -11.3515
L35.5456 -11.4108
L35.0731 -11.4872
L34.6013 -11.5796
L34.1311 -11.6872
L33.6636 -11.8088
L33.1995 -11.9438
L32.7395 -12.0911
L32.2843 -12.25
L31.8345 -12.4198
L31.3905 -12.5996
L30.9528 -12.7888
L30.5217 -12.9868
L30.0974 -13.1928
L29.6804 -13.4064
L29.2706 -13.627
L28.8684 -13.854
L28.4739 -14.0869
L28.087 -14.3254
L27.7079 -14.5689
L27.3367 -14.817
L26.9733 -15.0693
L26.6177 -15.3255
L26.2699 -15.5852
L25.9298 -15.8481
L25.5975 -16.1139
L25.2727 -16.3823
L24.9555 -16.653
L24.6457 -16.9259
L24.3432 -17.2005
L24.0479 -17.4768
L23.7598 -17.7546
L23.4786 -18.0336
L23.2042 -18.3136
L22.9366 -18.5946
L22.6756 -18.8764
L22.4211 -19.1588
L22.1729 -19.4418
L21.9308 -19.7252
L21.6949 -20.0088
L21.4648 -20.2928
L21.2406 -20.5768
L21.022 -20.8609
L20.809 -21.1451
L20.6014 -21.4292
L20.399 -21.7132
L20.2018 -21.9971
L20.0097 -22.2807
L19.8224 -22.5642
L19.64 -22.8475
L19.4623 -23.1305
L19.2891 -23.4133
L19.1205 -23.6958
L18.9562 -23.978
L18.7961 -24.26
L18.6403 -24.5417
L18.4885 -24.8231
L18.3408 -25.1043
L18.1969 -25.3853
L18.0569 -25.666
L17.9206 -25.9465
L17.7879 -26.2269
L17.6589 -26.5071
L17.5334 -26.7872
L17.4113 -27.0672
L17.2926 -27.3471
L17.1773 -27.627
L17.0652 -27.9069
L16.9563 -28.1868
L16.8506 -28.4668
L16.748 -28.7469
L16.6485 -29.0272
L16.552 -29.3077
L16.4585 -29.5885
L16.3679 -29.8695
L16.2802 -30.1509
L16.1955 -30.4326
L16.1135 -30.7148
L16.0344 -30.9974
L15.9582 -31.2806
L15.8847 -31.5644
L15.8139 -31.8488
L15.746 -32.1339
L15.6808 -32.4197
L15.6183 -32.7064
L15.5586 -32.9938
L15.5016 -33.2822
L15.4473 -33.5715
L15.3958 -33.8619
L15.3471 -34.1533
L15.3011 -34.4459
L15.2579 -34.7396
L15.2175 -35.0346
L15.1799 -35.3308
L15.1451 -35.6285
L15.1132 -35.9275
L15.0843 -36.228
L15.0582 -36.5301
L15.0352 -36.8338
L15.0152 -37.1391
L14.9982 -37.4461
L14.9844 -37.7549
L14.9737 -38.0655
L14.9663 -38.3779
L14.9621 -38.6924
L14.9614 -39.0088
L14.964 -39.3272
L14.9702 -39.6478
L14.9799 -39.9705
L14.9933 -40.2954
L15.0105 -40.6225
L15.0316 -40.952
L15.0566 -41.2838
L15.0857 -41.6179
L15.1189 -41.9545
L15.1565 -42.2935
L15.1984 -42.635
L15.2449 -42.9791
L15.296 -43.3256
L15.352 -43.6747
L15.4129 -44.0264
L15.4789 -44.3807
L15.5502 -44.7375
L15.6268 -45.0969
L15.7091 -45.4589
L15.7971 -45.8234
L15.891 -46.1904
L15.991 -46.5599
L16.0973 -46.9318
L16.2101 -47.3061
L16.3295 -47.6827
L16.4559 -48.0615
L16.5893 -48.4424
L16.73 -48.8254
L16.8783 -49.2101
L17.0342 -49.5967
L17.1981 -49.9847
L17.3701 -50.3742
L17.5505 -50.7648
L17.7394 -51.1564
L17.9371 -51.5486
L18.1438 -51.9413
L18.3598 -52.3341
L18.5851 -52.7267
L18.8199 -53.1187
L19.0645 -53.5097
L19.3191 -53.8993
L19.5836 -54.287
L19.8584 -54.6723
L20.1435 -55.0546
L20.4389 -55.4334
L20.7448 -55.808
L21.0611 -56.1777
L21.3878 -56.5417
L21.7249 -56.8993
L22.0723 -57.2495
L22.4297 -57.5913
L22.7971 -57.9238
L23.174 -58.2459
L23.5601 -58.5563
L23.955 -58.8539
L24.3581 -59.1372
L24.7689 -59.4049
L25.1864 -59.6555
L25.61 -59.8875
L26.0386 -60.0994
L26.4712 -60.2899
L26.9067 -60.4574
L27.3439 -60.6008
L27.7815 -60.7191
L28.2185 -60.8115
L28.6535 -60.8776
L29.0854 -60.9174
L29.5133 -60.9309
L29.9362 -60.919
L30.3533 -60.8824
L30.7642 -60.8224
L31.1682 -60.7402
L31.5651 -60.6372
L31.9545 -60.5151
L32.3362 -60.3752
L32.7103 -60.219
L33.0766 -60.0479
L33.4351 -59.8632
L33.7859 -59.6663
L34.129 -59.4582
L34.4644 -59.24
L34.7924 -59.0127
L35.1129 -58.7772
L35.426 -58.5344
L35.732 -58.2849
L36.0308 -58.0296
L36.3226 -57.769
L36.6075 -57.5038
L36.8857 -57.2344
L37.1573 -56.9614
L37.4223 -56.6853
L37.681 -56.4064
L37.9334 -56.1252
L38.1797 -55.842
L38.42 -55.5571
L38.6544 -55.2709
L38.8831 -54.9835
L39.1062 -54.6953
L39.3238 -54.4065
L39.536 -54.1173
L39.7431 -53.8279
L39.9451 -53.5385
L40.1421 -53.2492
L40.3342 -52.9602
L40.5217 -52.6715
L40.7045 -52.3834
L40.8829 -52.0959
L41.0569 -51.8091
L41.2267 -51.5231
L41.3924 -51.2379
L41.554 -50.9537
L41.7118 -50.6704
L41.8657 -50.3881
L42.016 -50.107
L42.1626 -49.8268
L42.3058 -49.5478
L42.4456 -49.27
L42.5821 -48.9932
L42.7153 -48.7176
L42.8455 -48.4431
L42.9726 -48.1698
L43.0968 -47.8976
L43.2181 -47.6265
L43.3366 -47.3566
L43.4524 -47.0877
L43.5656 -46.8199
L43.6762 -46.5531
L43.7844 -46.2873
L43.89 -46.0226
L43.9934 -45.7587
L44.0944 -45.4959
L44.1932 -45.2338
L44.2898 -44.9727
L44.3842 -44.7123
L44.4766 -44.4527
L44.567 -44.1939
L44.6554 -43.9357
L44.7418 -43.6782
L44.8264 -43.4213
L44.9092 -43.1649
L44.9901 -42.9091
L45.0693 -42.6537
L45.1468 -42.3987
L45.2225 -42.144
L45.2967 -41.8897
L45.3692 -41.6356
L45.4401 -41.3818
L45.5094 -41.1281
L45.5773 -40.8745
L45.6436 -40.6209
L45.7084 -40.3674
L45.7718 -40.1138
L45.8337 -39.86
L45.8942 -39.6062
z
" id="C0_1_7d62556fbd"/>
    </defs>
    <g clip-path="url(#p1bffca34e9)">
     <use style="fill:#ffffff;stroke:#000000;stroke-width:2.0;" x="0.0" xlink:href="#C0_0_a811fe30f3" y="72.0"/>
    </g>
    <g clip-path="url(#p1bffca34e9)">
     <use style="fill:#ff0000;stroke:#000000;stroke-width:2.0;" x="0.0" xlink:href="#C0_1_7d62556fbd" y="72.0"/>
    </g>
   </g>
  </g>
 </g>
 <defs>
  <clipPath id="p1bffca34e9">
   <rect height="72.0" width="72.0" x="0.0" y="0.0"/>
  </clipPath>
 </defs>
</svg>
