<?xml version="1.0" encoding="utf-8" standalone="no"?>
<!DOCTYPE svg PUBLIC "-//W3C//DTD SVG 1.1//EN"
  "http://www.w3.org/Graphics/SVG/1.1/DTD/svg11.dtd">
<!-- Created with matplotlib (http://matplotlib.org/) -->
<svg height="72pt" version="1.1" viewBox="0 0 72 72" width="72pt" xmlns="http://www.w3.org/2000/svg" xmlns:xlink="http://www.w3.org/1999/xlink">
 <defs>
  <style type="text/css">
*{stroke-linecap:butt;stroke-linejoin:round;}
  </style>
 </defs>
 <g id="figure_1">
  <g id="patch_1">
   <path d="
M0 72
L72 72
L72 0
L0 0
z
" style="fill:none;"/>
  </g>
  <g id="axes_1">
   <g id="PatchCollection_1">
    <defs>
     <path d="
M36 -7.5
C43.5583 -7.5 50.808 -10.5029 56.1525 -15.8475
C61.4971 -21.192 64.5 -28.4417 64.5 -36
C64.5 -43.5583 61.4971 -50.808 56.1525 -56.1525
C50.808 -61.4971 43.5583 -64.5 36 -64.5
C28.4417 -64.5 21.192 -61.4971 15.8475 -56.1525
C10.5029 -50.808 7.5 -43.5583 7.5 -36
C7.5 -28.4417 10.5029 -21.192 15.8475 -15.8475
C21.192 -10.5029 28.4417 -7.5 36 -7.5
z
" id="C0_0_a811fe30f3"/>
     <path d="
M28.7663 -8.47468
L28.3817 -8.63826
L28.0021 -8.80966
L27.6279 -8.98874
L27.2595 -9.17537
L26.8971 -9.3694
L26.541 -9.57068
L26.1915 -9.77901
L25.849 -9.99423
L25.5137 -10.2161
L25.1858 -10.4445
L24.8657 -10.6791
L24.5536 -10.9198
L24.2498 -11.1663
L23.9544 -11.4183
L23.6677 -11.6756
L23.3899 -11.938
L23.1211 -12.2052
L22.8617 -12.4769
L22.6116 -12.7529
L22.371 -13.0328
L22.1401 -13.3164
L21.919 -13.6035
L21.7077 -13.8938
L21.5063 -14.1869
L21.3148 -14.4827
L21.1334 -14.7808
L20.9619 -15.081
L20.8004 -15.383
L20.6489 -15.6866
L20.5073 -15.9916
L20.3756 -16.2976
L20.2537 -16.6045
L20.1415 -16.9121
L20.0389 -17.22
L19.9458 -17.5282
L19.862 -17.8364
L19.7876 -18.1444
L19.7222 -18.452
L19.6658 -18.7591
L19.6182 -19.0655
L19.5792 -19.3711
L19.5486 -19.6757
L19.5263 -19.9791
L19.512 -20.2813
L19.5056 -20.5821
L19.5069 -20.8814
L19.5158 -21.1792
L19.5319 -21.4753
L19.5551 -21.7696
L19.5852 -22.0621
L19.622 -22.3526
L19.6653 -22.6412
L19.7149 -22.9278
L19.7706 -23.2123
L19.8322 -23.4946
L19.8996 -23.7747
L19.9726 -24.0527
L20.0509 -24.3284
L20.1344 -24.6018
L20.2229 -24.873
L20.3162 -25.1418
L20.4143 -25.4083
L20.5168 -25.6725
L20.6238 -25.9343
L20.7349 -26.1938
L20.8501 -26.451
L20.9692 -26.7058
L21.0921 -26.9582
L21.2186 -27.2083
L21.3487 -27.4561
L21.4821 -27.7015
L21.6188 -27.9447
L21.7587 -28.1855
L21.9016 -28.4241
L22.0475 -28.6604
L22.1962 -28.8944
L22.3476 -29.1262
L22.5017 -29.3558
L22.6583 -29.5832
L22.8174 -29.8084
L22.979 -30.0315
L23.1428 -30.2524
L23.3088 -30.4713
L23.4771 -30.688
L23.6474 -30.9027
L23.8198 -31.1153
L23.9942 -31.3259
L24.1704 -31.5345
L24.3486 -31.7412
L24.5286 -31.9458
L24.7103 -32.1486
L24.8938 -32.3495
L25.079 -32.5484
L25.2658 -32.7455
L25.4543 -32.9408
L25.6443 -33.1343
L25.8359 -33.3259
L26.029 -33.5158
L26.2236 -33.704
L26.4196 -33.8904
L26.6172 -34.0751
L26.8161 -34.2581
L27.0164 -34.4394
L27.2182 -34.6191
L27.4213 -34.7971
L27.6258 -34.9735
L27.8316 -35.1483
L28.0388 -35.3215
L28.2473 -35.4932
L28.4571 -35.6633
L28.6682 -35.8318
L28.8807 -35.9987
L29.0944 -36.1642
L29.3095 -36.3281
L29.7436 -36.4905
L29.9626 -36.6515
L30.1829 -36.8109
L30.4045 -36.9688
L30.6275 -37.1253
L30.8517 -37.2802
L31.0773 -37.4337
L31.3042 -37.5857
L31.5324 -37.7362
L31.762 -37.8853
L31.993 -38.0328
L32.2252 -38.1789
L32.4589 -38.3235
L32.6939 -38.4666
L32.9303 -38.6081
L33.1681 -38.7482
L33.4073 -38.8867
L33.6479 -39.0237
L33.8899 -39.1591
L34.1333 -39.2929
L34.3781 -39.4251
L34.6244 -39.5558
L34.8721 -39.6847
L35.1213 -39.8121
L35.372 -39.9377
L35.6241 -40.0616
L35.8776 -40.1838
L36.1327 -40.3042
L36.3892 -40.4227
L36.6472 -40.5395
L36.9067 -40.6543
L37.1676 -40.7672
L37.4301 -40.8781
L37.694 -40.987
L37.9594 -41.0938
L38.2263 -41.1985
L38.4946 -41.3009
L38.7645 -41.4012
L39.0357 -41.4992
L39.3084 -41.5947
L39.5826 -41.6879
L39.8582 -41.7786
L40.1351 -41.8666
L40.4135 -41.9521
L40.6932 -42.0348
L40.9742 -42.1147
L41.2566 -42.1917
L41.5402 -42.2657
L41.825 -42.3366
L42.1111 -42.4044
L42.3984 -42.4689
L42.6868 -42.5301
L42.9762 -42.5877
L43.2667 -42.6418
L43.5582 -42.6922
L43.8506 -42.7388
L44.1439 -42.7815
L44.438 -42.8202
L44.7328 -42.8547
L45.0283 -42.8849
L45.3244 -42.9107
L45.621 -42.932
L45.918 -42.9486
L46.2153 -42.9605
L46.5129 -42.9674
L46.8106 -42.9692
L47.1083 -42.9659
L47.4059 -42.9572
L47.7034 -42.943
L48.0006 -42.9233
L48.2973 -42.8979
L48.5935 -42.8665
L48.889 -42.8292
L49.1836 -42.7858
L49.4774 -42.7362
L49.7699 -42.6801
L50.0613 -42.6176
L50.3512 -42.5486
L50.6396 -42.4728
L50.9262 -42.3902
L51.2109 -42.3008
L51.4936 -42.2043
L51.7741 -42.1009
L52.0522 -41.9903
L52.3277 -41.8725
L52.6005 -41.7475
L52.8703 -41.6152
L53.1371 -41.4756
L53.4006 -41.3287
L53.6606 -41.1745
L53.9171 -41.0129
L54.1697 -40.844
L54.4184 -40.6678
L54.6629 -40.4844
L54.9032 -40.2938
L55.1389 -40.096
L55.3701 -39.8911
L55.5964 -39.6793
L55.8178 -39.4606
L56.0341 -39.2351
L56.2452 -39.0029
L56.4509 -38.7642
L56.6511 -38.5192
L56.8456 -38.2678
L57.0344 -38.0103
L57.2173 -37.747
L57.3942 -37.4778
L57.565 -37.203
L57.7296 -36.9229
L57.888 -36.6375
L58.04 -36.3471
L58.1855 -36.0518
L58.3246 -35.7519
L58.4571 -35.4476
L58.5829 -35.1391
L58.7021 -34.8265
L58.8145 -34.5101
L58.9202 -34.19
L59.0192 -33.8666
L59.1113 -33.54
L59.1965 -33.2103
L59.275 -32.8779
L59.3466 -32.5429
L59.4113 -32.2054
L59.4692 -31.8658
L59.5202 -31.5241
L59.5644 -31.1806
L59.6018 -30.8355
L59.6324 -30.4889
L59.6561 -30.141
L59.6732 -29.7921
L59.6835 -29.4422
L59.6871 -29.0915
L59.6841 -28.7402
L59.6745 -28.3884
L59.6582 -28.0364
L59.6355 -27.6841
L59.6062 -27.3319
L59.5705 -26.9798
L59.5283 -26.628
L59.4798 -26.2766
L59.425 -25.9256
L59.3639 -25.5754
L59.2966 -25.2259
L59.2231 -24.8772
L59.1435 -24.5296
L59.0579 -24.183
L58.9662 -23.8377
L58.8685 -23.4936
L58.7649 -23.151
L58.6554 -22.8098
L58.5401 -22.4702
L58.419 -22.1323
L58.2922 -21.7962
L58.1597 -21.4619
L58.0216 -21.1295
L57.8778 -20.7991
L57.7285 -20.4708
L57.5737 -20.1446
L57.4134 -19.8207
L57.2477 -19.499
L57.0766 -19.1798
L56.9002 -18.8629
L56.7184 -18.5486
L56.5314 -18.2368
L56.3391 -17.9277
L56.1417 -17.6212
L55.9391 -17.3176
L55.7313 -17.0167
L55.5184 -16.7187
L55.3005 -16.4237
L55.0776 -16.1317
L54.8496 -15.8428
L54.6167 -15.557
L54.3788 -15.2744
L54.136 -14.9951
L53.8884 -14.7191
L53.6358 -14.4465
L53.3785 -14.1774
L53.1163 -13.9117
L52.8494 -13.6497
L52.5777 -13.3913
L52.3013 -13.1367
L52.0202 -12.8859
L51.7345 -12.6389
L51.4441 -12.3959
L51.1492 -12.1569
L50.8496 -11.922
L50.4304 -11.6912
L49.9993 -11.4233
L49.5639 -11.1752
L49.1244 -10.9347
L48.6809 -10.7018
L48.2335 -10.4766
L47.7824 -10.2592
L47.3277 -10.0496
L46.8696 -9.84789
L46.4081 -9.65418
L45.9435 -9.46849
L45.4758 -9.29088
L45.0053 -9.12141
L44.532 -8.96013
L44.0561 -8.80709
L43.5778 -8.66232
L43.0972 -8.52589
L42.6144 -8.39782
L42.1295 -8.27816
L41.6428 -8.16695
L41.1544 -8.06421
L40.6645 -7.96999
L40.1731 -7.8843
L39.6804 -7.80717
L39.1866 -7.73864
L38.6919 -7.67871
L38.1963 -7.62741
L37.7 -7.58475
L37.2033 -7.55075
L36.7061 -7.52541
L36.2088 -7.50875
L35.7114 -7.50076
L35.214 -7.50146
L34.717 -7.51084
L34.2203 -7.5289
L33.7241 -7.55562
L33.2286 -7.59102
L32.734 -7.63506
L32.2404 -7.68775
L31.7479 -7.74906
L31.2568 -7.81898
L30.767 -7.89748
L30.2789 -7.98454
L29.7925 -8.08013
L29.308 -8.18423
z
" id="C0_1_d019915265"/>
     <path d="
M21.4778 -60.496
L21.822 -60.6549
L22.1681 -60.8101
L22.516 -60.9617
L22.8658 -61.1097
L23.2174 -61.254
L23.5708 -61.3947
L23.926 -61.5317
L24.2831 -61.6651
L24.642 -61.7948
L25.0027 -61.9209
L25.3652 -62.0433
L25.7296 -62.1621
L26.0957 -62.2772
L26.4637 -62.3885
L26.8335 -62.4962
L27.205 -62.6002
L27.5784 -62.7005
L27.9535 -62.797
L28.3305 -62.8898
L28.7091 -62.9789
L29.0895 -63.0642
L29.4717 -63.1457
L29.8556 -63.2234
L30.2411 -63.2973
L30.6284 -63.3674
L31.0173 -63.4337
L31.4078 -63.4961
L31.8 -63.5546
L32.1937 -63.6093
L32.589 -63.66
L32.9858 -63.7069
L33.3841 -63.7498
L33.7839 -63.7889
L34.1851 -63.8239
L34.5876 -63.8551
L34.9915 -63.8823
L35.3966 -63.9055
L35.803 -63.9247
L36.2106 -63.94
L36.6193 -63.9513
L37.029 -63.9587
L37.4397 -63.9621
L37.8514 -63.9615
L38.264 -63.957
L38.6773 -63.9486
L39.0914 -63.9362
L39.5061 -63.9199
L39.9214 -63.8998
L40.3372 -63.8758
L40.7533 -63.8479
L41.1699 -63.8163
L41.5866 -63.7809
L42.0035 -63.7418
L42.4204 -63.6991
L42.3569 -63.6527
L41.8711 -63.782
L41.3835 -63.8887
L40.8942 -63.9869
L40.4034 -64.0766
L39.9113 -64.1578
L39.4181 -64.2303
L38.9237 -64.2943
L38.4285 -64.3496
L37.9326 -64.3963
L37.436 -64.4344
L36.9391 -64.4638
L36.4418 -64.4845
L35.9444 -64.4966
L35.447 -64.4999
L34.9498 -64.4946
L34.4529 -64.4806
L33.9565 -64.458
L33.4607 -64.4266
L32.9656 -64.3866
L32.4715 -64.338
L31.9785 -64.2807
L31.4867 -64.2148
L30.9963 -64.1404
L30.5074 -64.0573
L30.0201 -63.9657
L29.5347 -63.8656
L29.0513 -63.757
L28.5699 -63.6399
L28.0909 -63.5144
L27.6142 -63.3806
L27.1401 -63.2384
L26.6687 -63.0879
L26.2002 -62.9291
L25.7346 -62.7622
L25.2722 -62.5871
L24.813 -62.4039
L24.3572 -62.2126
L23.905 -62.0134
L23.4565 -61.8062
L23.0117 -61.5912
L22.571 -61.3684
L22.1343 -61.1378
z
" id="C0_2_51c0be9bc7"/>
    </defs>
    <g clip-path="url(#p1bffca34e9)">
     <use style="fill:#ffffff;stroke:#000000;stroke-width:2.0;" x="0.0" xlink:href="#C0_0_a811fe30f3" y="72.0"/>
    </g>
    <g clip-path="url(#p1bffca34e9)">
     <use style="fill:#ff0000;stroke:#000000;stroke-width:2.0;" x="0.0" xlink:href="#C0_1_d019915265" y="72.0"/>
    </g>
    <g clip-path="url(#p1bffca34e9)">
     <use style="fill:#ff0000;stroke:#000000;stroke-width:2.0;" x="0.0" xlink:href="#C0_2_51c0be9bc7" y="72.0"/>
    </g>
   </g>
  </g>
 </g>
 <defs>
  <clipPath id="p1bffca34e9">
   <rect height="72.0" width="72.0" x="0.0" y="0.0"/>
  </clipPath>
 </defs>
</svg>
