<?xml version="1.0" encoding="utf-8" standalone="no"?>
<!DOCTYPE svg PUBLIC "-//W3C//DTD SVG 1.1//EN"
  "http://www.w3.org/Graphics/SVG/1.1/DTD/svg11.dtd">
<!-- Created with matplotlib (http://matplotlib.org/) -->
<svg height="72pt" version="1.1" viewBox="0 0 72 72" width="72pt" xmlns="http://www.w3.org/2000/svg" xmlns:xlink="http://www.w3.org/1999/xlink">
 <defs>
  <style type="text/css">
*{stroke-linecap:butt;stroke-linejoin:round;}
  </style>
 </defs>
 <g id="figure_1">
  <g id="patch_1">
   <path d="
M0 72
L72 72
L72 0
L0 0
z
" style="fill:none;"/>
  </g>
  <g id="axes_1">
   <g id="PatchCollection_1">
    <defs>
     <path d="
M36 -7.5
C43.5583 -7.5 50.808 -10.5029 56.1525 -15.8475
C61.4971 -21.192 64.5 -28.4417 64.5 -36
C64.5 -43.5583 61.4971 -50.808 56.1525 -56.1525
C50.808 -61.4971 43.5583 -64.5 36 -64.5
C28.4417 -64.5 21.192 -61.4971 15.8475 -56.1525
C10.5029 -50.808 7.5 -43.5583 7.5 -36
C7.5 -28.4417 10.5029 -21.192 15.8475 -15.8475
C21.192 -10.5029 28.4417 -7.5 36 -7.5
z
" id="C0_0_a811fe30f3"/>
     <path d="
M25.6679 -9.66713
L25.7608 -9.87177
L25.8602 -10.0755
L25.9656 -10.2783
L26.0767 -10.4802
L26.1933 -10.6813
L26.3149 -10.8817
L26.4413 -11.0814
L26.5722 -11.2804
L26.7073 -11.4787
L26.8463 -11.6765
L26.9889 -11.8737
L27.1351 -12.0703
L27.2844 -12.2665
L27.4366 -12.4622
L27.5917 -12.6575
L27.7493 -12.8524
L27.9093 -13.0469
L28.0714 -13.241
L28.2357 -13.4349
L28.4017 -13.6284
L28.5695 -13.8216
L28.7389 -14.0145
L28.9098 -14.2072
L29.0819 -14.3997
L29.2553 -14.5919
L29.4298 -14.7839
L29.6053 -14.9757
L29.7816 -15.1674
L29.9588 -15.3589
L30.1368 -15.5502
L30.3154 -15.7414
L30.4946 -15.9325
L30.6743 -16.1234
L30.8545 -16.3143
L31.035 -16.505
L31.216 -16.6957
L31.3972 -16.8863
L31.5787 -17.0769
L31.7605 -17.2674
L31.9424 -17.4578
L32.1245 -17.6483
L32.3067 -17.8387
L32.4891 -18.0291
L32.6715 -18.2196
L32.8539 -18.4101
L33.0365 -18.6006
L33.219 -18.7912
L33.4016 -18.9819
L33.5842 -19.1726
L33.7668 -19.3635
L33.9493 -19.5544
L34.1319 -19.7455
L34.3144 -19.9367
L34.4969 -20.1281
L34.6795 -20.3197
L34.8619 -20.5114
L35.0444 -20.7034
L35.2269 -20.8956
L35.4094 -21.088
L35.5918 -21.2807
L35.7743 -21.4737
L35.9568 -21.6669
L36.1393 -21.8605
L36.3219 -22.0544
L36.5045 -22.2486
L36.6872 -22.4432
L36.8699 -22.6382
L37.0527 -22.8336
L37.4187 -23.0293
L37.6019 -23.2256
L37.7852 -23.4222
L37.9686 -23.6194
L38.1523 -23.817
L38.3361 -24.0151
L38.5201 -24.2137
L38.7044 -24.4129
L38.8889 -24.6126
L39.0736 -24.8129
L39.2586 -25.0138
L39.4439 -25.2153
L39.6296 -25.4174
L39.8155 -25.6201
L40.0018 -25.8235
L40.1885 -26.0275
L40.3755 -26.2322
L40.563 -26.4376
L40.7509 -26.6437
L40.9392 -26.8504
L41.1279 -27.0579
L41.3172 -27.2661
L41.5069 -27.4751
L41.6971 -27.6847
L41.8879 -27.8951
L42.0792 -28.1063
L42.2711 -28.3182
L42.4636 -28.5308
L42.6567 -28.7441
L42.8504 -28.9582
L43.0447 -29.1731
L43.2397 -29.3886
L43.4353 -29.6049
L43.6317 -29.8219
L43.8287 -30.0395
L44.0265 -30.2579
L44.225 -30.4768
L44.4242 -30.6964
L44.6243 -30.9166
L44.8251 -31.1374
L45.0267 -31.3587
L45.2291 -31.5805
L45.4324 -31.8027
L45.6365 -32.0254
L45.8415 -32.2484
L46.0473 -32.4717
L46.254 -32.6953
L46.4617 -32.919
L46.6702 -33.1429
L46.8797 -33.3668
L47.0902 -33.5906
L47.3016 -33.8143
L47.5139 -34.0378
L47.7273 -34.261
L47.9417 -34.4837
L48.1571 -34.7059
L48.3735 -34.9275
L48.591 -35.1482
L48.8095 -35.3681
L49.0292 -35.5869
L49.2499 -35.8044
L49.4717 -36.0206
L49.6947 -36.2353
L49.9188 -36.4483
L50.1441 -36.6594
L50.3705 -36.8684
L50.5982 -37.0752
L50.827 -37.2796
L51.0571 -37.4812
L51.2884 -37.68
L51.521 -37.8757
L51.7548 -38.0681
L51.9899 -38.2569
L52.2263 -38.4419
L52.464 -38.6228
L52.703 -38.7995
L52.9433 -38.9717
L53.1849 -39.1391
L53.4278 -39.3015
L53.6721 -39.4586
L53.9176 -39.6101
L54.1643 -39.7559
L54.4124 -39.8957
L54.6617 -40.0293
L54.9121 -40.1564
L55.1637 -40.2767
L55.4165 -40.3901
L55.6702 -40.4965
L55.925 -40.5954
L56.1807 -40.6869
L56.4373 -40.7706
L56.6947 -40.8466
L56.9527 -40.9145
L57.2113 -40.9742
L57.4704 -41.0257
L57.7299 -41.0689
L57.9896 -41.1036
L58.2494 -41.1297
L58.5092 -41.1473
L58.7689 -41.1563
L59.0282 -41.1565
L59.2871 -41.1481
L59.5455 -41.131
L59.803 -41.1053
L60.0597 -41.0708
L60.3153 -41.0278
L60.5697 -40.9761
L60.8227 -40.916
L61.0742 -40.8473
L61.3239 -40.7703
L61.5718 -40.685
L61.8177 -40.5914
L62.0614 -40.4897
L62.3028 -40.38
L62.5417 -40.2623
L62.7779 -40.1367
L63.0114 -40.0035
L63.242 -39.8626
L63.4695 -39.7142
L63.6939 -39.5584
L63.9149 -39.3953
L64.1325 -39.225
L64.3465 -39.0477
L64.4014 -38.8634
L64.4384 -38.3691
L64.4667 -37.873
L64.4864 -37.3764
L64.4974 -36.8794
L64.4998 -36.3821
L64.4934 -35.8847
L64.4784 -35.3873
L64.4547 -34.8901
L64.4223 -34.3933
L64.3813 -33.8969
L64.3316 -33.4012
L64.2733 -32.9063
L64.2064 -32.4123
L64.1308 -31.9194
L64.0468 -31.4278
L63.9541 -30.9375
L63.853 -30.4488
L63.7434 -29.9618
L63.6253 -29.4766
L63.4988 -28.9934
L63.364 -28.5123
L63.2208 -28.0336
L63.0693 -27.5572
L62.9095 -27.0834
L62.7416 -26.6124
L62.5655 -26.1442
L62.3813 -25.679
L62.1891 -25.2169
L61.9889 -24.7581
L61.7808 -24.3028
L61.5649 -23.851
L61.3411 -23.4029
L61.1097 -22.9586
L60.8706 -22.5184
L60.6239 -22.0822
L60.3697 -21.6503
L60.1081 -21.2227
L59.8391 -20.7996
L59.5629 -20.3812
L59.2795 -19.9675
L58.989 -19.5588
L58.6915 -19.155
L58.3871 -18.7563
L58.0759 -18.3629
L57.758 -17.9749
L57.4334 -17.5924
L57.1023 -17.2154
L56.7648 -16.8442
L56.4209 -16.4789
L56.0708 -16.1195
L55.7147 -15.7661
L55.3525 -15.4189
L54.9844 -15.078
L54.6105 -14.7434
L54.231 -14.4153
L53.8459 -14.0938
L53.4553 -13.779
L53.0595 -13.4709
L52.6585 -13.1697
L52.2523 -12.8754
L51.8413 -12.5882
L51.4254 -12.3081
L51.0048 -12.0353
L50.5796 -11.7697
L50.15 -11.5115
L49.7161 -11.2608
L49.278 -11.0176
L48.8359 -10.7821
L48.3898 -10.5542
L47.94 -10.334
L47.4866 -10.1217
L47.0296 -9.91727
L46.5693 -9.72077
L46.1058 -9.53228
L45.6391 -9.35185
L45.1696 -9.17954
L44.6973 -9.0154
L44.2223 -8.85948
L43.7448 -8.71183
L43.2649 -8.57248
L42.7828 -8.4415
L42.2987 -8.3189
L41.8127 -8.20474
L41.3248 -8.09905
L40.8354 -8.00185
L40.3445 -7.91319
L39.8522 -7.83308
L39.3588 -7.76154
L38.8644 -7.69861
L38.3691 -7.64431
L37.873 -7.59863
L37.3764 -7.56161
L36.8794 -7.53326
L36.3821 -7.51357
L35.8847 -7.50256
L35.3873 -7.50023
L34.8901 -7.50659
L34.3933 -7.52162
L33.8969 -7.54533
L33.4012 -7.5777
L32.9063 -7.61873
L32.4123 -7.66841
L31.9194 -7.72672
L31.4278 -7.79364
L30.9375 -7.86915
L30.4488 -7.95323
L29.9618 -8.04586
L29.4766 -8.14699
L28.9934 -8.25662
L28.5123 -8.37469
L28.0336 -8.50118
L27.5572 -8.63605
L27.0834 -8.77925
L26.6124 -8.93074
L26.1442 -9.09048
z
" id="C0_1_bc6d80c004"/>
     <path d="
M7.80591 -33.3616
L7.97793 -33.5893
L8.15115 -33.8176
L8.32557 -34.0462
L8.5012 -34.2751
L8.67803 -34.5041
L8.85605 -34.733
L9.03526 -34.9618
L9.21565 -35.1903
L9.3972 -35.4183
L9.57991 -35.6459
L9.76375 -35.8728
L9.94873 -36.0991
L10.1348 -36.3246
L10.322 -36.5493
L10.5103 -36.7731
L10.6996 -36.9959
L10.89 -37.2177
L11.0814 -37.4385
L11.2738 -37.6582
L11.4673 -37.8767
L11.6617 -38.094
L11.8571 -38.3102
L12.0535 -38.5251
L12.2509 -38.7388
L12.4491 -38.9512
L12.6484 -39.1623
L12.8485 -39.3722
L13.0496 -39.5808
L13.2515 -39.788
L13.4544 -39.994
L13.6582 -40.1986
L13.8629 -40.4019
L14.0684 -40.604
L14.2749 -40.8047
L14.4822 -41.0041
L14.6904 -41.2023
L14.8996 -41.3992
L15.1096 -41.5948
L15.3205 -41.7891
L15.5322 -41.9822
L15.7449 -42.1741
L15.9585 -42.3648
L16.1731 -42.5542
L16.3885 -42.7425
L16.6049 -42.9296
L16.8222 -43.1155
L17.0404 -43.3003
L17.2597 -43.484
L17.4798 -43.6665
L17.701 -43.848
L17.9232 -44.0284
L18.1464 -44.2077
L18.3706 -44.386
L18.5958 -44.5633
L18.8222 -44.7396
L19.0495 -44.9149
L19.278 -45.0892
L19.5076 -45.2625
L19.7383 -45.435
L19.9701 -45.6065
L20.2032 -45.7771
L20.4373 -45.9469
L20.6727 -46.1157
L20.9093 -46.2837
L21.1472 -46.4509
L21.3863 -46.6173
L21.6266 -46.7828
L21.8683 -46.9476
L22.1113 -47.1116
L22.3556 -47.2748
L22.6012 -47.4373
L22.8482 -47.5991
L23.0967 -47.7601
L23.3465 -47.9204
L23.5977 -48.08
L23.8504 -48.239
L24.1045 -48.3973
L24.3601 -48.5549
L24.6172 -48.7118
L24.8758 -48.8681
L25.1359 -49.0238
L25.3976 -49.1789
L25.6607 -49.3333
L25.9254 -49.4872
L26.1917 -49.6405
L26.4595 -49.7931
L26.7289 -49.9453
L26.9998 -50.0968
L27.2723 -50.2478
L27.5463 -50.3982
L27.8219 -50.5481
L28.0991 -50.6975
L28.3778 -50.8463
L28.658 -50.9946
L28.9397 -51.1424
L29.2229 -51.2898
L29.5076 -51.4366
L29.7938 -51.5829
L30.0813 -51.7288
L30.3702 -51.8743
L30.6605 -52.0192
L30.9521 -52.1638
L31.2449 -52.3079
L31.5389 -52.4517
L31.8341 -52.595
L32.1303 -52.738
L32.4276 -52.8807
L32.7258 -53.023
L33.0249 -53.1651
L33.3248 -53.3068
L33.6253 -53.4483
L33.9264 -53.5896
L34.2281 -53.7307
L34.53 -53.8717
L34.8323 -54.0126
L35.1347 -54.1534
L35.4371 -54.2942
L35.7393 -54.435
L36.0413 -54.5759
L36.3428 -54.7169
L36.6437 -54.8581
L36.9439 -54.9996
L37.2431 -55.1414
L37.5412 -55.2836
L37.838 -55.4263
L38.1333 -55.5695
L38.4268 -55.7134
L38.7185 -55.8579
L39.0081 -56.0032
L39.2954 -56.1494
L39.5801 -56.2966
L39.862 -56.4448
L40.141 -56.5942
L40.4167 -56.7448
L40.689 -56.8967
L40.9577 -57.05
L41.2224 -57.2048
L41.4831 -57.3612
L41.7394 -57.5193
L41.9912 -57.6791
L42.2382 -57.8408
L42.4803 -58.0043
L42.7172 -58.1697
L42.9487 -58.3371
L43.1747 -58.5066
L43.395 -58.6781
L43.6094 -58.8518
L43.8177 -59.0275
L44.0198 -59.2054
L44.2156 -59.3854
L44.4049 -59.5675
L44.5877 -59.7518
L44.7637 -59.938
L44.9329 -60.1263
L45.0952 -60.3166
L45.2506 -60.5088
L45.3989 -60.7029
L45.5402 -60.8988
L45.6743 -61.0964
L45.8012 -61.2956
L45.9209 -61.4963
L46.0334 -61.6985
L46.1387 -61.902
L46.2366 -62.1067
L46.3273 -62.3126
L45.9499 -62.5196
L45.4823 -62.7067
L45.0118 -62.8763
L44.5385 -63.0377
L44.0627 -63.1909
L43.5844 -63.3358
L43.1037 -63.4723
L42.621 -63.6005
L42.1362 -63.7203
L41.6495 -63.8316
L41.1611 -63.9344
L40.6712 -64.0288
L40.1798 -64.1146
L39.6871 -64.1918
L39.1934 -64.2605
L38.6986 -64.3205
L38.203 -64.3719
L37.7068 -64.4147
L37.21 -64.4488
L36.7129 -64.4743
L36.2156 -64.4911
L35.7182 -64.4992
L35.2208 -64.4986
L34.7237 -64.4893
L34.227 -64.4714
L33.7309 -64.4448
L33.2354 -64.4095
L32.7408 -64.3656
L32.2472 -64.313
L31.7547 -64.2518
L31.2635 -64.182
L30.7737 -64.1037
L30.2855 -64.0167
L29.7991 -63.9212
L29.3146 -63.8172
L28.8321 -63.7048
L28.3518 -63.5839
L27.8738 -63.4546
L27.3983 -63.3169
L26.9254 -63.171
L26.4553 -63.0167
L25.9881 -62.8542
L25.5239 -62.6835
L25.0629 -62.5047
L24.6053 -62.3179
L24.1511 -62.123
L23.7005 -61.9201
L23.2537 -61.7094
L22.8108 -61.4908
L22.3719 -61.2645
L21.9371 -61.0305
L21.5066 -60.7888
L21.0805 -60.5396
L20.659 -60.2829
L20.2422 -60.0188
L19.8301 -59.7474
L19.423 -59.4688
L19.0209 -59.183
L18.624 -58.8902
L18.2324 -58.5904
L17.8462 -58.2837
L17.4655 -57.9702
L17.0905 -57.65
L16.7213 -57.3233
L16.3579 -56.99
L16.0005 -56.6503
L15.6492 -56.3044
L15.304 -55.9523
L14.9652 -55.5941
L14.6328 -55.2299
L14.3069 -54.8598
L13.9876 -54.4841
L13.6751 -54.1026
L13.3693 -53.7157
L13.0704 -53.3234
L12.7785 -52.9258
L12.4937 -52.523
L12.216 -52.1153
L11.9456 -51.7026
L11.6825 -51.2851
L11.4268 -50.8629
L11.1786 -50.4363
L10.9379 -50.0052
L10.7049 -49.5699
L10.4796 -49.1304
L10.2621 -48.687
L10.0524 -48.2397
L9.85059 -47.7886
L9.65677 -47.334
L9.47097 -46.8759
L9.29326 -46.4144
L9.12367 -45.9499
L8.96228 -45.4823
L8.80912 -45.0118
L8.66425 -44.5385
L8.5277 -44.0627
L8.39951 -43.5844
L8.27974 -43.1037
L8.16841 -42.621
L8.06556 -42.1362
L7.97122 -41.6495
L7.88541 -41.1611
L7.80817 -40.6712
L7.73952 -40.1798
L7.67947 -39.6871
L7.62805 -39.1934
L7.58528 -38.6986
L7.55115 -38.203
L7.5257 -37.7068
L7.50892 -37.21
L7.50082 -36.7129
L7.50139 -36.2156
L7.51065 -35.7182
L7.52859 -35.2208
L7.5552 -34.7237
z
" id="C0_2_d4ae998c83"/>
    </defs>
    <g clip-path="url(#p1bffca34e9)">
     <use style="fill:#ff0000;stroke:#000000;stroke-width:2.0;" x="0.0" xlink:href="#C0_0_a811fe30f3" y="72.0"/>
    </g>
    <g clip-path="url(#p1bffca34e9)">
     <use style="fill:#ffffff;stroke:#000000;stroke-width:2.0;" x="0.0" xlink:href="#C0_1_bc6d80c004" y="72.0"/>
    </g>
    <g clip-path="url(#p1bffca34e9)">
     <use style="fill:#ffffff;stroke:#000000;stroke-width:2.0;" x="0.0" xlink:href="#C0_2_d4ae998c83" y="72.0"/>
    </g>
   </g>
  </g>
 </g>
 <defs>
  <clipPath id="p1bffca34e9">
   <rect height="72.0" width="72.0" x="0.0" y="0.0"/>
  </clipPath>
 </defs>
</svg>
