<?xml version="1.0" encoding="utf-8" standalone="no"?>
<!DOCTYPE svg PUBLIC "-//W3C//DTD SVG 1.1//EN"
  "http://www.w3.org/Graphics/SVG/1.1/DTD/svg11.dtd">
<!-- Created with matplotlib (http://matplotlib.org/) -->
<svg height="72pt" version="1.1" viewBox="0 0 72 72" width="72pt" xmlns="http://www.w3.org/2000/svg" xmlns:xlink="http://www.w3.org/1999/xlink">
 <defs>
  <style type="text/css">
*{stroke-linecap:butt;stroke-linejoin:round;}
  </style>
 </defs>
 <g id="figure_1">
  <g id="patch_1">
   <path d="
M0 72
L72 72
L72 0
L0 0
z
" style="fill:none;"/>
  </g>
  <g id="axes_1">
   <g id="PatchCollection_1">
    <defs>
     <path d="
M36 -7.5
C43.5583 -7.5 50.808 -10.5029 56.1525 -15.8475
C61.4971 -21.192 64.5 -28.4417 64.5 -36
C64.5 -43.5583 61.4971 -50.808 56.1525 -56.1525
C50.808 -61.4971 43.5583 -64.5 36 -64.5
C28.4417 -64.5 21.192 -61.4971 15.8475 -56.1525
C10.5029 -50.808 7.5 -43.5583 7.5 -36
C7.5 -28.4417 10.5029 -21.192 15.8475 -15.8475
C21.192 -10.5029 28.4417 -7.5 36 -7.5
z
" id="C0_0_a811fe30f3"/>
     <path d="
M22.3694 -60.9619
L22.2305 -60.6426
L22.0987 -60.3255
L21.9735 -60.0105
L21.8549 -59.6977
L21.7424 -59.3871
L21.6358 -59.0788
L21.5349 -58.7727
L21.4395 -58.4688
L21.3493 -58.1673
L21.2641 -57.8679
L21.1837 -57.5708
L21.108 -57.2759
L21.0367 -56.9832
L20.9696 -56.6927
L20.9067 -56.4042
L20.8477 -56.1179
L20.7925 -55.8336
L20.741 -55.5513
L20.6929 -55.271
L20.6483 -54.9926
L20.6069 -54.716
L20.5687 -54.4413
L20.5335 -54.1683
L20.5013 -53.8971
L20.4719 -53.6275
L20.4453 -53.3594
L20.4213 -53.093
L20.4 -52.828
L20.3811 -52.5644
L20.3647 -52.3022
L20.3506 -52.0413
L20.3389 -51.7816
L20.3294 -51.5231
L20.3221 -51.2657
L20.3169 -51.0094
L20.3138 -50.7541
L20.3128 -50.4997
L20.3137 -50.2462
L20.3166 -49.9935
L20.3215 -49.7415
L20.3282 -49.4902
L20.3368 -49.2395
L20.3473 -48.9894
L20.3595 -48.7397
L20.3736 -48.4905
L20.3894 -48.2417
L20.4069 -47.9931
L20.4262 -47.7448
L20.4473 -47.4967
L20.47 -47.2487
L20.5206 -47.0007
L20.5485 -46.7527
L20.5781 -46.5046
L20.6093 -46.2564
L20.6423 -46.008
L20.677 -45.7593
L20.7134 -45.5102
L20.7515 -45.2608
L20.7914 -45.0109
L20.833 -44.7604
L20.8764 -44.5094
L20.9216 -44.2577
L20.9686 -44.0053
L21.0175 -43.752
L21.0681 -43.4979
L21.1207 -43.2429
L21.1752 -42.9869
L21.2316 -42.7298
L21.29 -42.4716
L21.3504 -42.2122
L21.4128 -41.9516
L21.4774 -41.6896
L21.544 -41.4262
L21.6128 -41.1614
L21.6839 -40.8951
L21.7572 -40.6271
L21.8328 -40.3575
L21.9108 -40.0861
L21.9912 -39.813
L22.0741 -39.538
L22.1596 -39.261
L22.2476 -38.9821
L22.3384 -38.7011
L22.4318 -38.418
L22.5281 -38.1327
L22.6273 -37.8451
L22.7294 -37.5552
L22.8345 -37.263
L22.9428 -36.9683
L23.0542 -36.6712
L23.169 -36.3715
L23.2871 -36.0692
L23.4087 -35.7643
L23.5338 -35.4567
L23.6626 -35.1463
L23.7951 -34.8332
L23.9314 -34.5173
L24.0717 -34.1985
L24.216 -33.8769
L24.3644 -33.5523
L24.517 -33.2249
L24.674 -32.8945
L24.8355 -32.5612
L25.0014 -32.225
L25.172 -31.8859
L25.3473 -31.5439
L25.5275 -31.199
L25.7126 -30.8513
L25.9027 -30.5007
L26.0979 -30.1475
L26.2983 -29.7915
L26.5039 -29.433
L26.7149 -29.072
L26.9312 -28.7085
L27.153 -28.3428
L27.3803 -27.9749
L27.6131 -27.605
L27.8515 -27.2332
L28.0953 -26.8597
L28.3447 -26.4846
L28.5995 -26.1083
L28.8598 -25.7309
L29.1253 -25.3526
L29.396 -24.9736
L29.6717 -24.5944
L29.9522 -24.215
L30.2371 -23.8358
L30.5261 -23.4571
L30.8187 -23.0793
L31.1142 -22.7026
L31.4118 -22.3274
L31.7103 -21.9542
L32.0081 -21.5832
L32.303 -21.2149
L32.5916 -20.8498
L32.8692 -20.4884
L33.1284 -20.1313
L33.3579 -19.7792
L33.5411 -19.4331
L33.6563 -19.0942
L33.6817 -18.764
L33.607 -18.4441
L33.4402 -18.1352
L33.2012 -17.8372
L32.9108 -17.5495
L32.5851 -17.271
L32.2351 -17.0012
L31.8681 -16.7397
L31.489 -16.4863
L31.1012 -16.241
L30.707 -16.0038
L30.3081 -15.7746
L29.9059 -15.5535
L29.5014 -15.3405
L29.0953 -15.1358
L28.6884 -14.9393
L28.2812 -14.7511
L27.8742 -14.5711
L27.4678 -14.3994
L27.0624 -14.236
L26.6582 -14.0807
L26.2556 -13.9337
L25.8548 -13.7948
L25.456 -13.664
L25.0595 -13.5411
L24.6653 -13.4262
L24.2737 -13.3191
L23.8848 -13.2198
L23.4987 -13.128
L23.1155 -13.0438
L22.7352 -12.967
L22.3581 -12.8975
L21.984 -12.8351
L21.6131 -12.7798
L21.2454 -12.7314
L20.8809 -12.6899
L20.5197 -12.6549
L20.1617 -12.6266
L19.807 -12.6047
L19.3808 -12.589
L18.9793 -12.8472
L18.5829 -13.1408
L18.1919 -13.4413
L17.8062 -13.7487
L17.4261 -14.0629
L17.0517 -14.3838
L16.6831 -14.7112
L16.3203 -15.0451
L15.9635 -15.3855
L15.6128 -15.7321
L15.2684 -16.0848
L14.9302 -16.4437
L14.5985 -16.8085
L14.2733 -17.1791
L13.9547 -17.5555
L13.6428 -17.9375
L13.3378 -18.325
L13.0396 -18.7179
L12.7484 -19.116
L12.4643 -19.5193
L12.1874 -19.9276
L11.9178 -20.3408
L11.6554 -20.7588
L11.4005 -21.1814
L11.1531 -21.6085
L10.9132 -22.04
L10.681 -22.4758
L10.4565 -22.9157
L10.2398 -23.3595
L10.0309 -23.8073
L9.82999 -24.2587
L9.637 -24.7137
L9.45205 -25.1721
L9.27518 -25.6339
L9.10645 -26.0988
L8.94591 -26.5667
L8.79361 -27.0375
L8.6496 -27.511
L8.51393 -27.9871
L8.38662 -28.4657
L8.26773 -28.9465
L8.15728 -29.4295
L8.05531 -29.9145
L7.96186 -30.4014
L7.87695 -30.8899
L7.8006 -31.38
L7.73285 -31.8716
L7.6737 -32.3643
L7.62318 -32.8582
L7.58131 -33.3531
L7.54809 -33.8487
L7.52354 -34.345
L7.50767 -34.8418
L7.50047 -35.339
L7.50195 -35.8363
L7.51212 -36.3338
L7.53096 -36.8311
L7.55848 -37.3281
L7.59466 -37.8248
L7.63949 -38.3209
L7.69296 -38.8163
L7.75505 -39.3108
L7.82574 -39.8043
L7.90502 -40.2967
L7.99286 -40.7877
L8.08923 -41.2773
L8.1941 -41.7653
L8.30744 -42.2515
L8.42921 -42.7359
L8.55938 -43.2181
L8.69791 -43.6982
L8.84476 -44.1759
L8.99988 -44.6512
L9.16323 -45.1238
L9.33475 -45.5936
L9.51439 -46.0605
L9.7021 -46.5244
L9.89782 -46.985
L10.1015 -47.4423
L10.313 -47.8961
L10.5324 -48.3463
L10.7596 -48.7927
L10.9944 -49.2352
L11.2369 -49.6737
L11.4868 -50.108
L11.7443 -50.5381
L12.0091 -50.9637
L12.2813 -51.3847
L12.5607 -51.8011
L12.8472 -52.2126
L13.1408 -52.6192
L13.4413 -53.0207
L13.7487 -53.4171
L14.0629 -53.8081
L14.3838 -54.1938
L14.7112 -54.5739
L15.0451 -54.9483
L15.3855 -55.3169
L15.7321 -55.6797
L16.0848 -56.0365
L16.4437 -56.3872
L16.8085 -56.7316
L17.1791 -57.0698
L17.5555 -57.4015
L17.9375 -57.7267
L18.325 -58.0453
L18.7179 -58.3572
L19.116 -58.6622
L19.5193 -58.9604
L19.9276 -59.2516
L20.3408 -59.5357
L20.7588 -59.8126
L21.1814 -60.0822
L21.6085 -60.3446
z
" id="C0_1_aaa2f3fae0"/>
     <path d="
M52.3423 -59.1343
L52.4456 -58.8037
L52.5422 -58.476
L52.6324 -58.1512
L52.7166 -57.8292
L52.7949 -57.51
L52.8677 -57.1937
L52.9352 -56.8802
L52.9975 -56.5695
L53.055 -56.2616
L53.1078 -55.9564
L53.1561 -55.6539
L53.2001 -55.354
L53.24 -55.0567
L53.2759 -54.762
L53.308 -54.4698
L53.3365 -54.18
L53.3614 -53.8926
L53.383 -53.6076
L53.4013 -53.3248
L53.4164 -53.0442
L53.4285 -52.7658
L53.4377 -52.4894
L53.4441 -52.2151
L53.4477 -51.9427
L53.4487 -51.6723
L53.4471 -51.4036
L53.4431 -51.1367
L53.4366 -50.8715
L53.4278 -50.6079
L53.4167 -50.3458
L53.4034 -50.0853
L53.3879 -49.8261
L53.3703 -49.5683
L53.3507 -49.3118
L53.329 -49.0565
L53.3053 -48.8024
L53.2797 -48.5494
L53.2521 -48.2973
L53.2227 -48.0462
L53.1914 -47.796
L53.1583 -47.5466
L53.1234 -47.298
L53.0867 -47.0501
L53.0482 -46.8028
L53.008 -46.556
L52.966 -46.3097
L52.9222 -46.0639
L52.8768 -45.8184
L52.8295 -45.5732
L52.7806 -45.3282
L52.7299 -45.0835
L52.6775 -44.8388
L52.6234 -44.5941
L52.5675 -44.3495
L52.5099 -44.1047
L52.4504 -43.8598
L52.3892 -43.6147
L52.3262 -43.3694
L52.2614 -43.1236
L52.1948 -42.8775
L52.1263 -42.6309
L52.0559 -42.3838
L51.9836 -42.136
L51.9093 -41.8877
L51.8331 -41.6386
L51.7549 -41.3887
L51.6746 -41.1379
L51.5923 -40.8863
L51.5078 -40.6337
L51.4212 -40.38
L51.3324 -40.1253
L51.2413 -39.8694
L51.148 -39.6122
L51.0523 -39.3538
L50.9542 -39.0941
L50.8536 -38.8329
L50.7505 -38.5702
L50.6449 -38.3061
L50.5366 -38.0403
L50.4256 -37.7729
L50.3118 -37.5037
L50.1952 -37.2328
L50.0757 -36.9601
L49.9532 -36.6855
L49.8276 -36.409
L49.6989 -36.1305
L49.5669 -35.8499
L49.4317 -35.5673
L49.293 -35.2825
L49.1509 -34.9955
L49.0052 -34.7063
L48.8558 -34.4149
L48.7027 -34.1212
L48.5457 -33.8251
L48.3848 -33.5267
L48.2198 -33.2258
L48.0506 -32.9226
L47.8772 -32.617
L47.6994 -32.3089
L47.5172 -31.9984
L47.3304 -31.6854
L47.1389 -31.37
L46.9427 -31.0521
L46.7416 -30.7319
L46.5355 -30.4093
L46.3244 -30.0844
L46.1081 -29.7571
L45.8865 -29.4277
L45.6596 -29.096
L45.4273 -28.7623
L45.1895 -28.4266
L44.9462 -28.0889
L44.6972 -27.7495
L44.4425 -27.4084
L44.1822 -27.0657
L43.9161 -26.7216
L43.6442 -26.3763
L43.3666 -26.0299
L43.0833 -25.6826
L42.7942 -25.3347
L42.4996 -24.9862
L42.1994 -24.6375
L41.8937 -24.2888
L41.5829 -23.9403
L41.2669 -23.5923
L40.9462 -23.2451
L40.621 -22.8989
L40.2918 -22.5539
L39.959 -22.2106
L39.6234 -21.8691
L39.2859 -21.5298
L38.9477 -21.1929
L38.6103 -20.8587
L38.2761 -20.5273
L37.9484 -20.199
L37.6321 -19.8738
L37.3345 -19.5517
L37.0671 -19.2323
L36.8463 -18.9152
L36.6941 -18.5994
L36.6321 -18.2841
L36.6708 -17.9689
L36.8021 -17.6547
L37.0062 -17.3428
L37.2624 -17.0344
L37.5546 -16.7309
L37.8718 -16.4329
L38.2066 -16.1411
L38.5543 -15.856
L38.9116 -15.5779
L39.2759 -15.307
L39.6458 -15.0437
L40.0198 -14.788
L40.397 -14.5402
L40.7765 -14.3004
L41.1578 -14.0687
L41.5402 -13.8451
L41.9233 -13.6297
L42.3067 -13.4225
L42.69 -13.2236
L43.073 -13.0328
L43.4552 -12.8503
L43.8365 -12.676
L44.2167 -12.5098
L44.5955 -12.3517
L44.9728 -12.2016
L45.3484 -12.0594
L45.7222 -11.9251
L46.094 -11.7985
L46.4638 -11.6796
L46.8314 -11.5681
L47.1968 -11.4642
L47.5598 -11.3675
L47.9205 -11.278
L48.2788 -11.1957
L48.6346 -11.1202
L48.988 -11.0517
L49.8487 -10.9898
L50.2813 -11.0909
L50.7095 -11.3364
L51.1333 -11.5894
L51.5525 -11.8498
L51.9669 -12.1176
L52.3765 -12.3926
L52.7811 -12.6749
L53.1806 -12.9643
L53.5748 -13.2606
L53.9637 -13.5639
L54.3471 -13.8741
L54.7249 -14.191
L55.097 -14.5145
L55.4634 -14.8446
L55.8237 -15.1811
L56.1781 -15.5239
L56.5263 -15.873
L56.8682 -16.2282
L57.2038 -16.5895
L57.5329 -16.9566
L57.8555 -17.3296
L58.1714 -17.7082
L58.4805 -18.0925
L58.7828 -18.4821
L59.0782 -18.8771
L59.3665 -19.2774
L59.6477 -19.6827
L59.9218 -20.093
L60.1885 -20.5081
L60.4478 -20.9279
L60.6998 -21.3524
L60.9442 -21.7813
L61.1809 -22.2145
L61.4101 -22.652
L61.6314 -23.0935
L61.845 -23.5389
L62.0507 -23.9881
L62.2485 -24.441
L62.4382 -24.8974
L62.62 -25.3572
L62.7936 -25.8202
L62.959 -26.2864
L63.1162 -26.7555
L63.2652 -27.2274
L63.4059 -27.702
L63.5382 -28.1791
L63.6621 -28.6585
L63.7776 -29.1403
L63.8847 -29.6241
L63.9832 -30.1098
L64.0733 -30.5974
L64.1547 -31.0866
L64.2276 -31.5773
L64.2919 -32.0693
L64.3476 -32.5626
L64.3947 -33.0569
L64.4331 -33.552
L64.4628 -34.048
L64.4839 -34.5445
L64.4963 -35.0415
L64.5 -35.5387
L64.495 -36.0361
L64.4814 -36.5335
L64.459 -37.0307
L64.428 -37.5276
L64.3884 -38.0241
L64.3401 -38.5199
L64.2831 -39.015
L64.2176 -39.5091
L64.1434 -40.0022
L64.0607 -40.4941
L63.9695 -40.9845
L63.8697 -41.4735
L63.7614 -41.9608
L63.6447 -42.4463
L63.5195 -42.9298
L63.386 -43.4112
L63.2441 -43.8904
L63.0939 -44.3671
L62.9355 -44.8413
L62.7689 -45.3128
L62.5941 -45.7815
L62.4112 -46.2472
L62.2203 -46.7098
L62.0213 -47.1691
L61.8145 -47.625
L61.5998 -48.0773
L61.3773 -48.526
L61.147 -48.9709
L60.9091 -49.4118
L60.6636 -49.8487
L60.4106 -50.2813
L60.1502 -50.7095
L59.8824 -51.1333
L59.6074 -51.5525
L59.3251 -51.9669
L59.0357 -52.3765
L58.7394 -52.7811
L58.4361 -53.1806
L58.1259 -53.5748
L57.809 -53.9637
L57.4855 -54.3471
L57.1554 -54.7249
L56.8189 -55.097
L56.4761 -55.4634
L56.127 -55.8237
L55.7718 -56.1781
L55.4105 -56.5263
L55.0434 -56.8682
L54.6704 -57.2038
L54.2918 -57.5329
L53.9075 -57.8555
L53.5179 -58.1714
L53.1229 -58.4805
z
" id="C0_2_7e1a98ada8"/>
    </defs>
    <g clip-path="url(#p1bffca34e9)">
     <use style="fill:#ffffff;stroke:#000000;stroke-width:2.0;" x="0.0" xlink:href="#C0_0_a811fe30f3" y="72.0"/>
    </g>
    <g clip-path="url(#p1bffca34e9)">
     <use style="fill:#ff0000;stroke:#000000;stroke-width:2.0;" x="0.0" xlink:href="#C0_1_aaa2f3fae0" y="72.0"/>
    </g>
    <g clip-path="url(#p1bffca34e9)">
     <use style="fill:#ff0000;stroke:#000000;stroke-width:2.0;" x="0.0" xlink:href="#C0_2_7e1a98ada8" y="72.0"/>
    </g>
   </g>
  </g>
 </g>
 <defs>
  <clipPath id="p1bffca34e9">
   <rect height="72.0" width="72.0" x="0.0" y="0.0"/>
  </clipPath>
 </defs>
</svg>
