<?xml version="1.0" encoding="utf-8" standalone="no"?>
<!DOCTYPE svg PUBLIC "-//W3C//DTD SVG 1.1//EN"
  "http://www.w3.org/Graphics/SVG/1.1/DTD/svg11.dtd">
<!-- Created with matplotlib (http://matplotlib.org/) -->
<svg height="72pt" version="1.1" viewBox="0 0 72 72" width="72pt" xmlns="http://www.w3.org/2000/svg" xmlns:xlink="http://www.w3.org/1999/xlink">
 <defs>
  <style type="text/css">
*{stroke-linecap:butt;stroke-linejoin:round;}
  </style>
 </defs>
 <g id="figure_1">
  <g id="patch_1">
   <path d="
M0 72
L72 72
L72 0
L0 0
z
" style="fill:none;"/>
  </g>
  <g id="axes_1">
   <g id="PatchCollection_1">
    <defs>
     <path d="
M36 -7.5
C43.5583 -7.5 50.808 -10.5029 56.1525 -15.8475
C61.4971 -21.192 64.5 -28.4417 64.5 -36
C64.5 -43.5583 61.4971 -50.808 56.1525 -56.1525
C50.808 -61.4971 43.5583 -64.5 36 -64.5
C28.4417 -64.5 21.192 -61.4971 15.8475 -56.1525
C10.5029 -50.808 7.5 -43.5583 7.5 -36
C7.5 -28.4417 10.5029 -21.192 15.8475 -15.8475
C21.192 -10.5029 28.4417 -7.5 36 -7.5
z
" id="C0_0_a811fe30f3"/>
     <path d="
M54.3941 -14.2367
L54.5407 -14.6243
L54.6744 -15.0115
L54.796 -15.3977
L54.9059 -15.7827
L55.0046 -16.1661
L55.0927 -16.5476
L55.1706 -16.927
L55.2389 -17.304
L55.2979 -17.6783
L55.3482 -18.05
L55.3901 -18.4187
L55.424 -18.7844
L55.4504 -19.1469
L55.4695 -19.5061
L55.4818 -19.862
L55.4875 -20.2145
L55.487 -20.5636
L55.4806 -20.9091
L55.4685 -21.2511
L55.4511 -21.5896
L55.4286 -21.9246
L55.4012 -22.256
L55.3692 -22.5839
L55.3328 -22.9082
L55.2923 -23.2291
L55.2477 -23.5465
L55.1993 -23.8605
L55.1473 -24.1711
L55.0919 -24.4783
L55.0331 -24.7822
L54.9712 -25.0829
L54.9063 -25.3804
L54.8385 -25.6747
L54.7679 -25.9659
L54.6947 -26.2541
L54.6189 -26.5394
L54.5407 -26.8217
L54.4602 -27.1011
L54.3774 -27.3778
L54.2925 -27.6518
L54.2055 -27.9231
L54.1164 -28.1919
L54.0255 -28.4581
L53.9326 -28.7219
L53.8379 -28.9832
L53.7414 -29.2423
L53.6431 -29.4991
L53.5432 -29.7537
L53.4417 -30.0062
L53.3385 -30.2566
L53.2337 -30.5051
L53.1274 -30.7516
L53.0196 -30.9962
L52.9102 -31.2391
L52.7994 -31.4802
L52.6871 -31.7196
L52.5734 -31.9574
L52.4582 -32.1936
L52.3415 -32.4284
L52.2235 -32.6617
L52.104 -32.8936
L51.983 -33.1243
L51.8607 -33.3536
L51.7369 -33.5817
L51.6116 -33.8087
L51.4849 -34.0346
L51.3568 -34.2594
L51.2272 -34.4833
L51.0961 -34.7062
L50.9635 -34.9282
L50.6936 -35.1493
L50.5564 -35.3697
L50.4176 -35.5893
L50.2771 -35.8082
L50.1351 -36.0265
L49.9913 -36.2442
L49.8459 -36.4613
L49.6987 -36.6779
L49.5498 -36.894
L49.399 -37.1097
L49.2464 -37.325
L49.092 -37.54
L48.9356 -37.7546
L48.7773 -37.969
L48.6169 -38.1832
L48.4545 -38.3971
L48.29 -38.6109
L48.1234 -38.8246
L47.9546 -39.0381
L47.7835 -39.2516
L47.6101 -39.4651
L47.4344 -39.6785
L47.2563 -39.892
L47.0757 -40.1055
L46.8926 -40.3191
L46.7069 -40.5327
L46.5185 -40.7465
L46.3274 -40.9604
L46.1336 -41.1744
L45.9369 -41.3886
L45.7373 -41.603
L45.5348 -41.8175
L45.3292 -42.0322
L45.1204 -42.247
L44.9085 -42.4621
L44.6934 -42.6773
L44.4749 -42.8926
L44.253 -43.1081
L44.0276 -43.3238
L43.7987 -43.5395
L43.5661 -43.7554
L43.3299 -43.9713
L43.0899 -44.1872
L42.8461 -44.403
L42.5984 -44.6188
L42.3467 -44.8345
L42.0909 -45.05
L41.8311 -45.2652
L41.567 -45.4801
L41.2988 -45.6946
L41.0262 -45.9086
L40.7493 -46.1219
L40.4681 -46.3345
L40.1823 -46.5463
L39.8921 -46.7571
L39.5974 -46.9667
L39.2982 -47.175
L38.9944 -47.3818
L38.686 -47.587
L38.373 -47.7903
L38.0555 -47.9915
L37.7335 -48.1904
L37.4069 -48.3866
L37.0759 -48.58
L36.7404 -48.7702
L36.4006 -48.9569
L36.0565 -49.1397
L35.7083 -49.3183
L35.3561 -49.4922
L35 -49.6611
L34.6402 -49.8243
L34.2769 -49.9815
L33.9102 -50.1321
L33.5406 -50.2754
L33.1682 -50.4109
L32.7933 -50.5379
L32.4163 -50.6556
L32.0376 -50.7633
L31.6575 -50.8602
L31.2767 -50.9454
L30.8954 -51.018
L30.5144 -51.077
L30.1341 -51.1215
L29.7552 -51.1505
L29.3783 -51.163
L29.004 -51.1582
L28.6331 -51.135
L28.2663 -51.0927
L27.9041 -51.0307
L27.5473 -50.9482
L27.1965 -50.8451
L26.8523 -50.7211
L26.5152 -50.5762
L26.1856 -50.4108
L25.864 -50.2252
L25.5506 -50.0202
L25.2459 -49.7965
L24.9499 -49.5552
L24.6628 -49.2973
L24.3847 -49.0238
L24.1156 -48.7361
L23.8556 -48.4352
L23.6047 -48.1223
L23.3628 -47.7987
L23.1298 -47.4653
L22.9057 -47.1232
L22.6903 -46.7734
L22.4835 -46.4169
L22.2853 -46.0545
L22.0954 -45.6871
L21.9137 -45.3154
L21.74 -44.94
L21.5743 -44.5617
L21.4164 -44.181
L21.266 -43.7985
L21.123 -43.4147
L20.9873 -43.03
L20.8587 -42.6449
L20.737 -42.2597
L20.622 -41.8748
L20.5136 -41.4905
L20.4116 -41.107
L20.3158 -40.7248
L20.2261 -40.3439
L20.1423 -39.9647
L20.0642 -39.5872
L19.9917 -39.2117
L19.9246 -38.8382
L19.8628 -38.4671
L19.8061 -38.0982
L19.7543 -37.7318
L19.7074 -37.368
L19.6652 -37.0067
L19.6275 -36.6481
L19.5942 -36.2922
L19.5652 -35.9391
L19.5404 -35.5888
L19.5197 -35.2412
L19.5029 -34.8965
L19.4899 -34.5546
L19.4806 -34.2154
L19.4749 -33.8791
L19.4728 -33.5456
L19.474 -33.2149
L19.4786 -32.8869
L19.4865 -32.5617
L19.4975 -32.2391
L19.5117 -31.9192
L19.5288 -31.6019
L19.5489 -31.2872
L19.5719 -30.975
L19.5977 -30.6654
L19.6263 -30.3581
L19.6576 -30.0533
L19.6916 -29.7508
L19.7281 -29.4506
L19.7673 -29.1526
L19.809 -28.8568
L19.8531 -28.5632
L19.8998 -28.2716
L19.9488 -27.9821
L20.0003 -27.6945
L20.0541 -27.4089
L20.1103 -27.1251
L20.1689 -26.8431
L20.2297 -26.5628
L20.2929 -26.2843
L20.3583 -26.0074
L20.4261 -25.732
L20.4961 -25.4582
L20.5685 -25.1859
L20.6431 -24.915
L20.72 -24.6455
L20.7991 -24.3772
L20.8806 -24.1103
L20.9644 -23.8445
L21.0506 -23.58
L21.139 -23.3165
L21.2299 -23.0541
L21.3231 -22.7927
L21.4187 -22.5323
L21.5168 -22.2728
L21.6174 -22.0142
L21.7204 -21.7565
L21.826 -21.4995
L21.9341 -21.2433
L22.0448 -20.9878
L22.1583 -20.733
L22.2744 -20.4788
L22.3932 -20.2252
L22.5149 -19.9722
L22.6394 -19.7197
L22.7668 -19.4677
L22.8972 -19.2162
L23.0306 -18.9652
L23.1671 -18.7145
L23.3068 -18.4643
L23.4498 -18.2144
L23.5961 -17.9649
L23.7457 -17.7157
L23.8989 -17.4669
L24.0556 -17.2183
L24.216 -16.9701
L24.3801 -16.7221
L24.5481 -16.4745
L24.72 -16.2271
L24.8959 -15.9801
L25.0761 -15.7333
L25.2605 -15.4869
L25.4492 -15.2408
L25.6425 -14.995
L25.8404 -14.7497
L26.0431 -14.5047
L26.2506 -14.2602
L26.4631 -14.0162
L26.6808 -13.7727
L26.9038 -13.5298
L27.1322 -13.2875
L27.3662 -13.046
L27.6059 -12.8053
L27.8515 -12.5655
L28.1032 -12.3266
L28.361 -12.0889
L28.6253 -11.8523
L28.896 -11.6171
L29.1734 -11.3833
L29.4577 -11.1511
L29.749 -10.9207
L30.0475 -10.6922
L30.3534 -10.4659
L30.6667 -10.2419
L30.9878 -10.0204
L31.3167 -9.80174
L31.6536 -9.58607
L31.9987 -9.3737
L32.352 -9.16491
L32.7138 -8.96
L33.0842 -8.75929
L33.4632 -8.56313
L33.851 -8.37189
L34.2477 -8.18594
L34.6532 -8.0057
L35.0678 -7.8316
L35.5602 -7.66409
L36.0576 -7.50339
L36.555 -7.50006
L37.0522 -7.5054
L37.5491 -7.51943
L38.0455 -7.54213
L38.5413 -7.5735
L39.0363 -7.61353
L39.5304 -7.6622
L40.0235 -7.71951
L40.5153 -7.78543
L41.0057 -7.85995
L41.4946 -7.94304
L41.9818 -8.03467
L42.4672 -8.13482
L42.9506 -8.24346
L43.432 -8.36056
L43.911 -8.48608
L44.3876 -8.61997
L44.8617 -8.76221
L45.3331 -8.91274
L45.8017 -9.07152
L46.2672 -9.23851
L46.7297 -9.41365
L47.1888 -9.59689
L47.6446 -9.78817
L48.0968 -9.98743
L48.5453 -10.1946
L48.99 -10.4097
L49.4308 -10.6325
L49.8674 -10.8631
L50.2998 -11.1013
L50.7279 -11.3471
L51.1515 -11.6004
L51.5705 -11.8612
L51.9847 -12.1293
L52.3941 -12.4047
L52.7984 -12.6872
L53.1977 -12.9769
L53.5917 -13.2736
L53.9803 -13.5772
z
" id="C0_1_1211abe8fe"/>
     <path d="
M36.5086 -64.4946
L36.0753 -64.3498
L35.6421 -64.1983
L35.2092 -64.0403
L34.7768 -63.876
L34.3448 -63.7056
L33.9136 -63.5294
L33.4832 -63.3477
L33.0536 -63.1609
L32.6251 -62.9694
L32.1977 -62.7737
L31.7715 -62.5743
L31.3466 -62.3717
L30.923 -62.1668
L30.5007 -61.9601
L30.0797 -61.7524
L29.6601 -61.5446
L29.2417 -61.3375
L28.8245 -61.1321
L28.4084 -60.9294
L27.9931 -60.7303
L27.5786 -60.5357
L27.1647 -60.3467
L26.7511 -60.164
L26.3376 -59.9885
L25.924 -59.8209
L25.5101 -59.6615
L25.0957 -59.5108
L24.6807 -59.3688
L24.2651 -59.2356
L23.8486 -59.1107
L23.4314 -58.9938
L23.0135 -58.8844
L22.595 -58.7816
L22.176 -58.6848
L21.7567 -58.593
L21.3374 -58.5054
L20.9181 -58.421
L20.4993 -58.3391
L20.0811 -58.2588
L19.6638 -58.1793
L19.2477 -58.0999
L18.833 -58.0199
L18.42 -57.9386
L18.2737 -57.8557
L18.6659 -58.3166
L19.0633 -58.6225
L19.466 -58.9216
L19.8736 -59.2137
L20.2862 -59.4987
L20.7035 -59.7766
L21.1255 -60.0472
L21.5521 -60.3105
L21.983 -60.5664
L22.4182 -60.8148
L22.8576 -61.0557
L23.3009 -61.2889
L23.7482 -61.5144
L24.1991 -61.7321
L24.6537 -61.942
L25.1117 -62.144
L25.573 -62.3381
L26.0375 -62.5241
L26.505 -62.702
L26.9754 -62.8718
L27.4486 -63.0334
L27.9244 -63.1868
L28.4026 -63.3319
L28.8832 -63.4687
L29.3659 -63.5971
L29.8506 -63.7171
L30.3373 -63.8287
L30.8256 -63.9318
L31.3155 -64.0263
L31.8069 -64.1124
L32.2995 -64.1898
L32.7932 -64.2587
L33.2879 -64.319
L33.7835 -64.3707
L34.2797 -64.4137
L34.7765 -64.448
L35.2736 -64.4737
L35.7709 -64.4907
z
" id="C0_2_f03bd798d8"/>
    </defs>
    <g clip-path="url(#p1bffca34e9)">
     <use style="fill:#ff0000;stroke:#000000;stroke-width:2.0;" x="0.0" xlink:href="#C0_0_a811fe30f3" y="72.0"/>
    </g>
    <g clip-path="url(#p1bffca34e9)">
     <use style="fill:#ffffff;stroke:#000000;stroke-width:2.0;" x="0.0" xlink:href="#C0_1_1211abe8fe" y="72.0"/>
    </g>
    <g clip-path="url(#p1bffca34e9)">
     <use style="fill:#ffffff;stroke:#000000;stroke-width:2.0;" x="0.0" xlink:href="#C0_2_f03bd798d8" y="72.0"/>
    </g>
   </g>
  </g>
 </g>
 <defs>
  <clipPath id="p1bffca34e9">
   <rect height="72.0" width="72.0" x="0.0" y="0.0"/>
  </clipPath>
 </defs>
</svg>
