<?xml version="1.0" encoding="utf-8" standalone="no"?>
<!DOCTYPE svg PUBLIC "-//W3C//DTD SVG 1.1//EN"
  "http://www.w3.org/Graphics/SVG/1.1/DTD/svg11.dtd">
<!-- Created with matplotlib (http://matplotlib.org/) -->
<svg height="72pt" version="1.1" viewBox="0 0 72 72" width="72pt" xmlns="http://www.w3.org/2000/svg" xmlns:xlink="http://www.w3.org/1999/xlink">
 <defs>
  <style type="text/css">
*{stroke-linecap:butt;stroke-linejoin:round;}
  </style>
 </defs>
 <g id="figure_1">
  <g id="patch_1">
   <path d="
M0 72
L72 72
L72 0
L0 0
z
" style="fill:none;"/>
  </g>
  <g id="axes_1">
   <g id="PatchCollection_1">
    <defs>
     <path d="
M36 -7.5
C43.5583 -7.5 50.808 -10.5029 56.1525 -15.8475
C61.4971 -21.192 64.5 -28.4417 64.5 -36
C64.5 -43.5583 61.4971 -50.808 56.1525 -56.1525
C50.808 -61.4971 43.5583 -64.5 36 -64.5
C28.4417 -64.5 21.192 -61.4971 15.8475 -56.1525
C10.5029 -50.808 7.5 -43.5583 7.5 -36
C7.5 -28.4417 10.5029 -21.192 15.8475 -15.8475
C21.192 -10.5029 28.4417 -7.5 36 -7.5
z
" id="C0_0_a811fe30f3"/>
     <path d="
M49.5911 -61.0062
L49.2774 -60.9261
L49.0318 -60.7846
L48.8501 -60.5866
L48.7219 -60.3406
L48.6351 -60.0565
L48.5783 -59.7433
L48.5423 -59.4082
L48.5203 -59.0566
L48.5073 -58.6927
L48.4996 -58.3195
L48.4948 -57.9394
L48.4911 -57.554
L48.4871 -57.1648
L48.4818 -56.7729
L48.4748 -56.3791
L48.4654 -55.9841
L48.4534 -55.5887
L48.4385 -55.1933
L48.4207 -54.7984
L48.3998 -54.4045
L48.3759 -54.0118
L48.3489 -53.6207
L48.3189 -53.2315
L48.2859 -52.8444
L48.2501 -52.4596
L48.2115 -52.0773
L48.1702 -51.6978
L48.1263 -51.3211
L48.0799 -50.9473
L48.0311 -50.5767
L47.9801 -50.2093
L47.9269 -49.8451
L47.8716 -49.4843
L47.8143 -49.1269
L47.7552 -48.7729
L47.6944 -48.4225
L47.6319 -48.0755
L47.5677 -47.732
L47.5021 -47.392
L47.4351 -47.0555
L47.3668 -46.7225
L47.2971 -46.393
L47.2263 -46.067
L47.1544 -45.7444
L47.0814 -45.4251
L47.0075 -45.1092
L46.9325 -44.7966
L46.8567 -44.4872
L46.7801 -44.181
L46.7026 -43.8779
L46.6244 -43.5779
L46.5455 -43.281
L46.4658 -42.987
L46.3855 -42.6958
L46.3046 -42.4075
L46.2231 -42.122
L46.141 -41.8391
L46.0584 -41.5589
L45.9752 -41.2812
L45.8915 -41.006
L45.8074 -40.7332
L45.7227 -40.4627
L45.6375 -40.1944
L45.5519 -39.9284
L45.4658 -39.6645
L45.3792 -39.4026
L45.2922 -39.1427
L45.2047 -38.8847
L45.1167 -38.6285
L45.0283 -38.3741
L44.9395 -38.1214
L44.8502 -37.8703
L44.7604 -37.6208
L44.6701 -37.3727
L44.5793 -37.126
L44.4881 -36.8807
L44.3963 -36.6367
L44.3041 -36.3939
L44.2113 -36.1522
L44.1179 -35.9116
L44.024 -35.6721
L43.9295 -35.4334
L43.8345 -35.1957
L43.7388 -34.9588
L43.6425 -34.7226
L43.5455 -34.4872
L43.4479 -34.2523
L43.3496 -34.0181
L43.2506 -33.7843
L43.0503 -33.551
L42.949 -33.3181
L42.8469 -33.0855
L42.744 -32.8532
L42.6402 -32.6211
L42.5354 -32.3891
L42.4298 -32.1572
L42.3232 -31.9254
L42.2156 -31.6935
L42.107 -31.4616
L41.9974 -31.2295
L41.8866 -30.9972
L41.7747 -30.7646
L41.6617 -30.5318
L41.5474 -30.2986
L41.4319 -30.0649
L41.3151 -29.8308
L41.197 -29.5962
L41.0775 -29.3609
L40.9566 -29.1251
L40.8342 -28.8885
L40.7103 -28.6512
L40.5849 -28.4131
L40.4578 -28.1741
L40.3291 -27.9343
L40.1987 -27.6935
L40.0666 -27.4517
L39.9326 -27.2088
L39.7967 -26.9649
L39.659 -26.7198
L39.5192 -26.4735
L39.3774 -26.226
L39.2335 -25.9772
L39.0874 -25.7271
L38.9391 -25.4757
L38.7885 -25.2228
L38.6355 -24.9686
L38.4801 -24.7128
L38.3223 -24.4556
L38.1618 -24.1969
L37.9987 -23.9366
L37.833 -23.6748
L37.6644 -23.4113
L37.493 -23.1463
L37.3188 -22.8796
L37.1415 -22.6113
L36.9612 -22.3414
L36.7777 -22.0699
L36.5911 -21.7967
L36.4012 -21.522
L36.208 -21.2456
L36.0113 -20.9677
L35.8113 -20.6883
L35.6077 -20.4073
L35.4005 -20.125
L35.1897 -19.8412
L34.9752 -19.5561
L34.7569 -19.2697
L34.5349 -18.9822
L34.3091 -18.6936
L34.0794 -18.4039
L33.8459 -18.1134
L33.6085 -17.8222
L33.3672 -17.5303
L33.1221 -17.2379
L32.8731 -16.9452
L32.6204 -16.6523
L32.3639 -16.3594
L32.1038 -16.0667
L31.8401 -15.7744
L31.5731 -15.4827
L31.3029 -15.1917
L31.0296 -14.9018
L30.7537 -14.6131
L30.4754 -14.3258
L30.1951 -14.0402
L29.9135 -13.7566
L29.6311 -13.4751
L29.3488 -13.1958
L29.0678 -12.9191
L28.7893 -12.6451
L28.5154 -12.3737
L28.2485 -12.1051
L27.9919 -11.8391
L27.7504 -11.5755
L27.5301 -11.3138
L27.3398 -11.0532
L27.1907 -10.7927
L27.097 -10.5305
L27.074 -10.2647
L27.1346 -9.99323
L27.2853 -9.71476
L27.5232 -9.42932
L27.8383 -9.13877
L28.2739 -8.84623
L28.7538 -8.56723
L29.2359 -8.43657
L29.7202 -8.31431
L30.2063 -8.20047
L30.6942 -8.09511
L31.1837 -7.99825
L31.6747 -7.90991
L32.1669 -7.83013
L32.6604 -7.75894
L33.1549 -7.69634
L33.6502 -7.64237
L34.1463 -7.59703
L34.6429 -7.56035
L35.1399 -7.53233
L35.6372 -7.51298
L36.1346 -7.50231
L36.632 -7.50032
L37.1292 -7.50701
L37.626 -7.52238
L38.1224 -7.54642
L38.618 -7.57913
L39.1129 -7.6205
L39.6069 -7.67052
L40.0997 -7.72916
L40.5913 -7.79641
L41.0815 -7.87226
L41.5702 -7.95667
L42.0571 -8.04963
L42.5422 -8.1511
L43.0253 -8.26105
L43.5063 -8.37945
L43.985 -8.50627
L44.4613 -8.64146
L44.9349 -8.78498
L45.4059 -8.9368
L45.874 -9.09686
L46.3391 -9.26511
L46.801 -9.44151
L47.2597 -9.62599
L47.7149 -9.81851
L48.1665 -10.019
L48.6145 -10.2274
L49.0586 -10.4437
L49.4987 -10.6677
L49.9347 -10.8995
L50.3664 -11.1389
L50.7938 -11.3859
L51.2167 -11.6404
L51.635 -11.9022
L52.0484 -12.1715
L52.457 -12.448
L52.8606 -12.7317
L53.2591 -13.0224
L53.6523 -13.3202
L54.0401 -13.6248
L54.4224 -13.9363
L54.7991 -14.2545
L55.1701 -14.5794
L55.5352 -14.9107
L55.8944 -15.2485
L56.2475 -15.5926
L56.5945 -15.9429
L56.9352 -16.2993
L57.2695 -16.6617
L57.5973 -17.0301
L57.9186 -17.4041
L58.2331 -17.7839
L58.541 -18.1692
L58.8419 -18.5599
L59.1359 -18.956
L59.4228 -19.3572
L59.7026 -19.7635
L59.9752 -20.1748
L60.2405 -20.5909
L60.4983 -21.0117
L60.7488 -21.437
L60.9917 -21.8668
L61.2269 -22.3008
L61.4545 -22.7391
L61.6744 -23.1814
L61.8864 -23.6276
L62.0905 -24.0775
L62.2867 -24.5311
L62.4749 -24.9882
L62.655 -25.4487
L62.827 -25.9123
L62.9908 -26.3791
L63.1464 -26.8487
L63.2937 -27.3212
L63.4328 -27.7963
L63.5634 -28.2739
L63.6857 -28.7538
L63.7995 -29.2359
L63.9049 -29.7202
L64.0018 -30.2063
L64.0901 -30.6942
L64.1699 -31.1837
L64.2411 -31.6747
L64.3037 -32.1669
L64.3576 -32.6604
L64.403 -33.1549
L64.4397 -33.6502
L64.4677 -34.1463
L64.487 -34.6429
L64.4977 -35.1399
L64.4997 -35.6372
L64.493 -36.1346
L64.4776 -36.632
L64.4536 -37.1292
L64.4209 -37.626
L64.3795 -38.1224
L64.3295 -38.618
L64.2708 -39.1129
L64.2036 -39.6069
L64.1277 -40.0997
L64.0433 -40.5913
L63.9504 -41.0815
L63.8489 -41.5702
L63.7389 -42.0571
L63.6205 -42.5422
L63.4937 -43.0253
L63.3585 -43.5063
L63.215 -43.985
L63.0632 -44.4613
L62.9031 -44.9349
L62.7349 -45.4059
L62.5585 -45.874
L62.374 -46.3391
L62.1815 -46.801
L61.981 -47.2597
L61.7726 -47.7149
L61.5563 -48.1665
L61.3323 -48.6145
L61.1005 -49.0586
L60.8611 -49.4987
L60.6141 -49.9347
L60.3596 -50.3664
L60.0978 -50.7938
L59.8285 -51.2167
L59.552 -51.635
L59.2683 -52.0484
L58.9776 -52.457
L58.6798 -52.8606
L58.3752 -53.2591
L58.0637 -53.6523
L57.7455 -54.0401
L57.4206 -54.4224
L57.0893 -54.7991
L56.7515 -55.1701
L56.4074 -55.5352
L56.0571 -55.8944
L55.7007 -56.2475
L55.3383 -56.5945
L54.9699 -56.9352
L54.5959 -57.2695
L54.2161 -57.5973
L53.8308 -57.9186
L53.4401 -58.2331
L53.044 -58.541
L52.6428 -58.8419
L52.2365 -59.1359
L51.8252 -59.4228
L51.4091 -59.7026
L50.9883 -59.9752
L50.563 -60.2405
L50.1332 -60.4983
z
" id="C0_1_993221fc0c"/>
     <path d="
M43.7679 -63.393
L43.2553 -63.3641
L42.7176 -63.3396
L42.1626 -63.3149
L41.5962 -63.2862
L41.0226 -63.2513
L40.4451 -63.2086
L39.8663 -63.1571
L39.2882 -63.096
L38.7124 -63.025
L38.1401 -62.944
L37.5724 -62.8529
L37.0102 -62.7519
L36.4541 -62.6411
L35.9048 -62.5208
L35.3629 -62.3914
L34.8286 -62.253
L34.3024 -62.1062
L33.7846 -61.9512
L33.2754 -61.7885
L32.7749 -61.6184
L32.2834 -61.4413
L31.8009 -61.2577
L31.3276 -61.0678
L30.8634 -60.8721
L30.4084 -60.6709
L29.9625 -60.4646
L29.5257 -60.2535
L29.0981 -60.0379
L28.6794 -59.8182
L28.2697 -59.5947
L27.8687 -59.3676
L27.4765 -59.1372
L27.0929 -58.9038
L26.7177 -58.6675
L26.3508 -58.4288
L25.9921 -58.1877
L25.6414 -57.9444
L25.2986 -57.6992
L24.9635 -57.4522
L24.636 -57.2036
L24.3158 -56.9535
L24.0029 -56.7021
L23.697 -56.4495
L23.398 -56.1958
L23.1058 -55.9412
L22.8201 -55.6856
L22.5409 -55.4293
L22.268 -55.1723
L22.0011 -54.9147
L21.7402 -54.6565
L21.4851 -54.3978
L21.2357 -54.1387
L20.9918 -53.8791
L20.7533 -53.6192
L20.52 -53.3589
L20.2918 -53.0983
L20.0686 -52.8374
L19.8503 -52.5763
L19.6367 -52.3148
L19.4277 -52.0531
L19.2232 -51.7912
L19.0231 -51.529
L18.8272 -51.2665
L18.6356 -51.0037
L18.448 -50.7407
L18.2644 -50.4773
L18.0847 -50.2136
L17.9088 -49.9496
L17.7366 -49.6852
L17.568 -49.4204
L17.4029 -49.1552
L17.2414 -48.8896
L17.0832 -48.6234
L16.9284 -48.3567
L16.7769 -48.0895
L16.6285 -47.8216
L16.4833 -47.5531
L16.3412 -47.2839
L16.2021 -47.014
L16.066 -46.7433
L15.9329 -46.4718
L15.8026 -46.1994
L15.6753 -45.926
L15.5507 -45.6517
L15.4289 -45.3763
L15.3099 -45.0999
L15.1937 -44.8223
L15.0801 -44.5434
L14.9693 -44.2633
L14.8611 -43.9819
L14.7555 -43.6991
L14.6527 -43.4148
L14.5524 -43.129
L14.4548 -42.8416
L14.3599 -42.5526
L14.2675 -42.2618
L14.1779 -41.9692
L14.0908 -41.6748
L14.0065 -41.3784
L13.9248 -41.08
L13.8458 -40.7796
L13.7696 -40.4769
L13.6961 -40.1721
L13.6254 -39.8649
L13.5576 -39.5553
L13.4926 -39.2433
L13.4305 -38.9288
L13.3713 -38.6116
L13.3152 -38.2917
L13.2622 -37.969
L13.2123 -37.6434
L13.1656 -37.3149
L13.1222 -36.9834
L13.0821 -36.6488
L13.0455 -36.311
L13.0124 -35.9699
L12.983 -35.6255
L12.9573 -35.2776
L12.9354 -34.9263
L12.9174 -34.5714
L12.9036 -34.2128
L12.8939 -33.8505
L12.8886 -33.4844
L12.8877 -33.1145
L12.8915 -32.7406
L12.9001 -32.3627
L12.9136 -31.9809
L12.9322 -31.5949
L12.956 -31.2048
L12.9854 -30.8105
L13.0204 -30.4119
L13.0613 -30.0092
L13.1083 -29.6022
L13.1615 -29.1909
L13.2212 -28.7754
L13.2877 -28.3555
L13.3611 -27.9315
L13.4418 -27.5032
L13.5299 -27.0707
L13.6257 -26.6342
L13.7294 -26.1936
L13.8414 -25.749
L13.9619 -25.3006
L14.0911 -24.8484
L14.2294 -24.3927
L14.3769 -23.9335
L14.5339 -23.4712
L14.7008 -23.0057
L14.8777 -22.5375
L15.0648 -22.0668
L15.2625 -21.5937
L15.4709 -21.1187
L15.6903 -20.6421
L15.9207 -20.1643
L16.1623 -19.6855
L16.4152 -19.2064
L16.6796 -18.7272
L16.9553 -18.2486
L17.2423 -17.7709
L17.5405 -17.2949
L17.8497 -16.8211
L18.1694 -16.35
L18.4992 -15.8825
L18.8383 -15.4192
L19.1858 -14.9609
L19.5403 -14.5085
L19.8999 -14.063
L20.2623 -13.6254
L20.6239 -13.197
L20.9803 -12.7792
L21.3249 -12.3739
L21.6491 -11.983
L21.9413 -11.6094
L21.6764 -11.2558
L21.2486 -11.3609
L20.8252 -11.6146
L20.4065 -11.8758
L19.9926 -12.1443
L19.5835 -12.4201
L19.1794 -12.7031
L18.7804 -12.9931
L18.3867 -13.2902
L17.9984 -13.5942
L17.6155 -13.905
L17.2382 -14.2225
L16.8667 -14.5467
L16.5009 -14.8774
L16.1411 -15.2145
L15.7874 -15.558
L15.4398 -15.9077
L15.0985 -16.2635
L14.7636 -16.6253
L14.4351 -16.9931
L14.1132 -17.3666
L13.7979 -17.7458
L13.4894 -18.1305
L13.1878 -18.5207
L12.8931 -18.9163
L12.6055 -19.317
L12.325 -19.7228
L12.0517 -20.1336
L11.7857 -20.5492
L11.527 -20.9695
L11.2759 -21.3944
L11.0322 -21.8237
L10.7962 -22.2574
L10.5678 -22.6952
L10.3472 -23.1371
L10.1344 -23.5829
L9.92948 -24.0325
L9.7325 -24.4858
L9.54352 -24.9425
L9.3626 -25.4026
L9.18979 -25.866
L9.02515 -26.3324
L8.86873 -26.8018
L8.72057 -27.2739
L8.58072 -27.7488
L8.44922 -28.2261
L8.32612 -28.7058
L8.21144 -29.1878
L8.10523 -29.6718
L8.00752 -30.1577
L7.91834 -30.6455
L7.8377 -31.1348
L7.76565 -31.6256
L7.7022 -32.1178
L7.64736 -32.6112
L7.60116 -33.1055
L7.56362 -33.6008
L7.53473 -34.0968
L7.51452 -34.5934
L7.50298 -35.0904
L7.50013 -35.5876
L7.50595 -36.0851
L7.52046 -36.5824
L7.54364 -37.0796
L7.57548 -37.5765
L7.61599 -38.0729
L7.66514 -38.5687
L7.72293 -39.0636
L7.78932 -39.5577
L7.86431 -40.0506
L7.94787 -40.5424
L8.03998 -41.0327
L8.1406 -41.5215
L8.24971 -42.0086
L8.36727 -42.4939
L8.49325 -42.9773
L8.62761 -43.4585
L8.7703 -43.9374
L8.92129 -44.4139
L9.08053 -44.8878
L9.24797 -45.3591
L9.42356 -45.8275
L9.60724 -46.2928
L9.79896 -46.7551
L9.99866 -47.2141
L10.2063 -47.6696
L10.4218 -48.1216
L10.645 -48.57
L10.876 -49.0145
L11.1147 -49.455
L11.3609 -49.8914
L11.6146 -50.3236
L11.8758 -50.7514
L12.1443 -51.1748
L12.4201 -51.5935
L12.7031 -52.0074
L12.9931 -52.4165
L13.2902 -52.8206
L13.5942 -53.2196
L13.905 -53.6133
L14.2225 -54.0016
L14.5467 -54.3845
L14.8774 -54.7618
L15.2145 -55.1333
L15.558 -55.4991
L15.9077 -55.8589
L16.2635 -56.2126
L16.6253 -56.5602
L16.9931 -56.9015
L17.3666 -57.2364
L17.7458 -57.5649
L18.1305 -57.8868
L18.5207 -58.2021
L18.9163 -58.5106
L19.317 -58.8122
L19.7228 -59.1069
L20.1336 -59.3945
L20.5492 -59.675
L20.9695 -59.9483
L21.3944 -60.2143
L21.8237 -60.473
L22.2574 -60.7241
L22.6952 -60.9678
L23.1371 -61.2038
L23.5829 -61.4322
L24.0325 -61.6528
L24.4858 -61.8656
L24.9425 -62.0705
L25.4026 -62.2675
L25.866 -62.4565
L26.3324 -62.6374
L26.8018 -62.8102
L27.2739 -62.9748
L27.7488 -63.1313
L28.2261 -63.2794
L28.7058 -63.4193
L29.1878 -63.5508
L29.6718 -63.6739
L30.1577 -63.7886
L30.6455 -63.8948
L31.1348 -63.9925
L31.6256 -64.0817
L32.1178 -64.1623
L32.6112 -64.2344
L33.1055 -64.2978
L33.6008 -64.3526
L34.0968 -64.3988
L34.5934 -64.4364
L35.0904 -64.4653
L35.5876 -64.4855
L36.0851 -64.497
L36.5824 -64.4999
L37.0796 -64.494
L37.5765 -64.4795
L38.0729 -64.4564
L38.5687 -64.4245
L39.0636 -64.384
L39.5577 -64.3349
L40.0506 -64.2771
L40.5424 -64.2107
L41.0327 -64.1357
L41.5215 -64.0521
L42.0086 -63.96
L42.4939 -63.8594
L42.9773 -63.7503
z
" id="C0_2_3459baaadd"/>
    </defs>
    <g clip-path="url(#p1bffca34e9)">
     <use style="fill:#ff0000;stroke:#000000;stroke-width:2.0;" x="0.0" xlink:href="#C0_0_a811fe30f3" y="72.0"/>
    </g>
    <g clip-path="url(#p1bffca34e9)">
     <use style="fill:#ffffff;stroke:#000000;stroke-width:2.0;" x="0.0" xlink:href="#C0_1_993221fc0c" y="72.0"/>
    </g>
    <g clip-path="url(#p1bffca34e9)">
     <use style="fill:#ffffff;stroke:#000000;stroke-width:2.0;" x="0.0" xlink:href="#C0_2_3459baaadd" y="72.0"/>
    </g>
   </g>
  </g>
 </g>
 <defs>
  <clipPath id="p1bffca34e9">
   <rect height="72.0" width="72.0" x="0.0" y="0.0"/>
  </clipPath>
 </defs>
</svg>
