<?xml version="1.0" encoding="utf-8" standalone="no"?>
<!DOCTYPE svg PUBLIC "-//W3C//DTD SVG 1.1//EN"
  "http://www.w3.org/Graphics/SVG/1.1/DTD/svg11.dtd">
<!-- Created with matplotlib (http://matplotlib.org/) -->
<svg height="72pt" version="1.1" viewBox="0 0 72 72" width="72pt" xmlns="http://www.w3.org/2000/svg" xmlns:xlink="http://www.w3.org/1999/xlink">
 <defs>
  <style type="text/css">
*{stroke-linecap:butt;stroke-linejoin:round;}
  </style>
 </defs>
 <g id="figure_1">
  <g id="patch_1">
   <path d="
M0 72
L72 72
L72 0
L0 0
z
" style="fill:none;"/>
  </g>
  <g id="axes_1">
   <g id="PatchCollection_1">
    <defs>
     <path d="
M36 -7.5
C43.5583 -7.5 50.808 -10.5029 56.1525 -15.8475
C61.4971 -21.192 64.5 -28.4417 64.5 -36
C64.5 -43.5583 61.4971 -50.808 56.1525 -56.1525
C50.808 -61.4971 43.5583 -64.5 36 -64.5
C28.4417 -64.5 21.192 -61.4971 15.8475 -56.1525
C10.5029 -50.808 7.5 -43.5583 7.5 -36
C7.5 -28.4417 10.5029 -21.192 15.8475 -15.8475
C21.192 -10.5029 28.4417 -7.5 36 -7.5
z
" id="C0_0_a811fe30f3"/>
     <path d="
M41.2954 -63.9984
L41.7564 -63.8832
L42.2088 -63.752
L42.6513 -63.6051
L43.0833 -63.4429
L43.5037 -63.2657
L43.9119 -63.074
L44.3072 -62.8683
L44.6891 -62.6494
L45.0571 -62.4179
L45.4109 -62.1744
L45.7503 -61.9198
L46.0751 -61.6548
L46.3854 -61.3801
L46.6813 -61.0966
L46.9627 -60.805
L47.23 -60.506
L47.4834 -60.2004
L47.7233 -59.8888
L47.9498 -59.572
L48.1635 -59.2505
L48.3647 -58.925
L48.5538 -58.596
L48.7311 -58.264
L48.8972 -57.9295
L49.0524 -57.5931
L49.1971 -57.255
L49.3317 -56.9157
L49.4567 -56.5756
L49.5723 -56.235
L49.679 -55.8941
L49.7772 -55.5534
L49.8672 -55.213
L49.9493 -54.8732
L50.0239 -54.5342
L50.0912 -54.1962
L50.1517 -53.8594
L50.2055 -53.5239
L50.2531 -53.1898
L50.2945 -52.8574
L50.3301 -52.5267
L50.3602 -52.1977
L50.385 -51.8707
L50.4047 -51.5457
L50.4195 -51.2227
L50.4296 -50.9018
L50.4353 -50.5831
L50.4367 -50.2665
L50.434 -49.9521
L50.4273 -49.64
L50.4169 -49.3301
L50.4028 -49.0225
L50.3853 -48.7172
L50.3645 -48.4141
L50.3404 -48.1132
L50.3133 -47.8146
L50.2832 -47.5183
L50.2503 -47.2241
L50.2146 -46.9321
L50.1763 -46.6423
L50.1354 -46.3546
L50.0921 -46.069
L50.0464 -45.7855
L49.9983 -45.504
L49.9481 -45.2245
L49.8957 -44.947
L49.8412 -44.6713
L49.7847 -44.3976
L49.7263 -44.1256
L49.6658 -43.8555
L49.6036 -43.5871
L49.5395 -43.3203
L49.4736 -43.0552
L49.4059 -42.7917
L49.3366 -42.5298
L49.2656 -42.2693
L49.1929 -42.0103
L49.1186 -41.7527
L49.0427 -41.4965
L48.9652 -41.2415
L48.8862 -40.9879
L48.8056 -40.7354
L48.7235 -40.484
L48.6398 -40.2338
L48.5547 -39.9847
L48.468 -39.7365
L48.3799 -39.4893
L48.2903 -39.243
L48.1991 -38.9976
L48.1065 -38.753
L48.0124 -38.5092
L47.9167 -38.2661
L47.8196 -38.0236
L47.7209 -37.7818
L47.519 -37.5406
L47.4157 -37.3
L47.3109 -37.0598
L47.2044 -36.8201
L47.0964 -36.5807
L46.9867 -36.3418
L46.8753 -36.1032
L46.7623 -35.8648
L46.6476 -35.6268
L46.5312 -35.3889
L46.413 -35.1511
L46.293 -34.9135
L46.1713 -34.676
L46.0476 -34.4386
L45.9221 -34.2011
L45.7947 -33.9636
L45.6653 -33.7261
L45.5339 -33.4885
L45.4005 -33.2508
L45.265 -33.013
L45.1274 -32.7749
L44.9877 -32.5367
L44.8457 -32.2982
L44.7014 -32.0595
L44.5549 -31.8206
L44.406 -31.5813
L44.2547 -31.3417
L44.1009 -31.1018
L43.9446 -30.8616
L43.7857 -30.621
L43.6242 -30.38
L43.46 -30.1387
L43.2931 -29.897
L43.1233 -29.655
L42.9507 -29.4126
L42.7751 -29.1699
L42.5966 -28.9268
L42.4149 -28.6833
L42.2302 -28.4396
L42.0422 -28.1956
L41.851 -27.9514
L41.6565 -27.7069
L41.4585 -27.4623
L41.2571 -27.2175
L41.0522 -26.9726
L40.8436 -26.7278
L40.6314 -26.483
L40.4155 -26.2384
L40.1958 -25.9939
L39.9722 -25.7498
L39.7446 -25.5061
L39.5131 -25.263
L39.2776 -25.0205
L39.0379 -24.7787
L38.794 -24.538
L38.546 -24.2983
L38.2937 -24.0599
L38.037 -23.823
L37.7761 -23.5877
L37.5107 -23.3544
L37.2409 -23.1231
L36.9667 -22.8943
L36.688 -22.6681
L36.4048 -22.4448
L36.1172 -22.2249
L35.825 -22.0085
L35.5284 -21.7961
L35.2273 -21.5881
L34.9218 -21.3848
L34.6119 -21.1867
L34.2977 -20.9943
L33.9792 -20.808
L33.6565 -20.6284
L33.3297 -20.456
L32.999 -20.2913
L32.6643 -20.1351
L32.326 -19.9878
L31.9842 -19.8502
L31.6389 -19.7229
L31.2906 -19.6066
L30.9393 -19.502
L30.5854 -19.4098
L30.2291 -19.3306
L29.8708 -19.2652
L29.5108 -19.2142
L29.1494 -19.1782
L28.7872 -19.1578
L28.4243 -19.1535
L28.0614 -19.1657
L27.6989 -19.1948
L27.3372 -19.2411
L26.9769 -19.3047
L26.6184 -19.3856
L26.2622 -19.4838
L25.9089 -19.5991
L25.5588 -19.7313
L25.2125 -19.8799
L24.8703 -20.0445
L24.5328 -20.2246
L24.2004 -20.4195
L23.8733 -20.6287
L23.5519 -20.8513
L23.2366 -21.0868
L22.9276 -21.3343
L22.6251 -21.5931
L22.3294 -21.8624
L22.0407 -22.1415
L21.7591 -22.4297
L21.4847 -22.7263
L21.2177 -23.0306
L20.9581 -23.3418
L20.706 -23.6595
L20.4614 -23.9829
L20.2244 -24.3116
L19.9948 -24.6449
L19.7728 -24.9823
L19.5583 -25.3234
L19.3511 -25.6677
L19.1514 -26.0148
L18.9589 -26.3642
L18.7736 -26.7156
L18.5955 -27.0686
L18.4244 -27.4229
L18.2602 -27.7782
L18.1028 -28.1343
L17.9521 -28.4908
L17.808 -28.8474
L17.6704 -29.2041
L17.5391 -29.5606
L17.414 -29.9166
L17.295 -30.2721
L17.182 -30.6269
L17.0748 -30.9807
L16.9734 -31.3336
L16.8775 -31.6854
L16.7872 -32.0359
L16.7021 -32.3851
L16.6224 -32.7329
L16.5477 -33.0793
L16.478 -33.4241
L16.4133 -33.7673
L16.3533 -34.1089
L16.298 -34.4489
L16.2473 -34.7871
L16.2011 -35.1237
L16.1592 -35.4585
L16.1217 -35.7915
L16.0883 -36.1228
L16.0591 -36.4523
L16.0339 -36.78
L16.0126 -37.1061
L15.9952 -37.4303
L15.9817 -37.7528
L15.9718 -38.0737
L15.9657 -38.3928
L15.9631 -38.7102
L15.9642 -39.026
L15.9687 -39.3402
L15.9766 -39.6528
L15.988 -39.9638
L16.0027 -40.2732
L16.0207 -40.5812
L16.042 -40.8877
L16.0665 -41.1928
L16.0942 -41.4965
L16.1252 -41.7988
L16.1592 -42.0998
L16.1964 -42.3995
L16.2367 -42.698
L16.2801 -42.9953
L16.3266 -43.2914
L16.3761 -43.5864
L16.4287 -43.8803
L16.4844 -44.1732
L16.5431 -44.465
L16.6049 -44.7559
L16.6697 -45.0459
L16.7377 -45.3349
L16.8087 -45.6231
L16.8828 -45.9105
L16.96 -46.1972
L17.0403 -46.4831
L17.1238 -46.7682
L17.2105 -47.0527
L17.3004 -47.3366
L17.3935 -47.6199
L17.4899 -47.9026
L17.5896 -48.1847
L17.6927 -48.4664
L17.7991 -48.7476
L17.909 -49.0283
L18.0224 -49.3085
L18.1394 -49.5884
L18.2599 -49.8679
L18.3841 -50.147
L18.512 -50.4257
L18.6437 -50.7042
L18.7792 -50.9823
L18.9187 -51.2601
L19.0622 -51.5376
L19.2097 -51.8148
L19.3614 -52.0917
L19.5173 -52.3683
L19.6776 -52.6446
L19.8423 -52.9206
L20.0115 -53.1963
L20.1853 -53.4717
L20.3638 -53.7467
L20.5471 -54.0214
L20.7353 -54.2956
L20.9286 -54.5694
L21.127 -54.8428
L21.3306 -55.1156
L21.5396 -55.3879
L21.7541 -55.6596
L21.9742 -55.9306
L22.2 -56.2008
L22.4317 -56.4702
L22.6693 -56.7387
L22.9131 -57.0062
L23.1631 -57.2726
L23.4194 -57.5378
L23.6823 -57.8016
L23.9517 -58.064
L24.2279 -58.3248
L24.511 -58.5838
L24.8011 -58.8409
L25.0982 -59.096
L25.4027 -59.3487
L25.7144 -59.599
L26.0336 -59.8466
L26.3603 -60.0913
L26.6947 -60.3328
L27.0368 -60.5709
L27.3866 -60.8053
L27.7443 -61.0357
L28.1099 -61.2619
L28.4834 -61.4835
L28.8648 -61.7001
L29.2542 -61.9115
L29.6514 -62.1172
L30.0564 -62.3169
L30.4692 -62.5101
L30.8896 -62.6965
L31.3175 -62.8755
L31.7527 -63.0469
L32.195 -63.21
L32.6441 -63.3644
L33.0998 -63.5097
L33.5616 -63.6452
L34.0292 -63.7706
L34.5022 -63.8853
L34.98 -63.9888
L35.4621 -64.0805
L35.9478 -64.16
L36.4364 -64.2268
L36.9273 -64.2803
L37.4196 -64.32
L37.9125 -64.3456
L38.405 -64.3566
L38.8961 -64.3526
L39.3924 -64.3333
L39.8858 -64.2974
L40.3779 -64.2339
z
" id="C0_1_0bce5bb3da"/>
     <path d="
M32.6151 -7.70173
L32.1328 -7.77507
L31.6532 -7.84815
L31.6659 -7.92042
z
" id="C0_2_6b4ff78a8c"/>
    </defs>
    <g clip-path="url(#p1bffca34e9)">
     <use style="fill:#ff0000;stroke:#000000;stroke-width:2.0;" x="0.0" xlink:href="#C0_0_a811fe30f3" y="72.0"/>
    </g>
    <g clip-path="url(#p1bffca34e9)">
     <use style="fill:#ffffff;stroke:#000000;stroke-width:2.0;" x="0.0" xlink:href="#C0_1_0bce5bb3da" y="72.0"/>
    </g>
    <g clip-path="url(#p1bffca34e9)">
     <use style="fill:#ffffff;stroke:#000000;stroke-width:2.0;" x="0.0" xlink:href="#C0_2_6b4ff78a8c" y="72.0"/>
    </g>
   </g>
  </g>
 </g>
 <defs>
  <clipPath id="p1bffca34e9">
   <rect height="72.0" width="72.0" x="0.0" y="0.0"/>
  </clipPath>
 </defs>
</svg>
