<?xml version="1.0" encoding="utf-8" standalone="no"?>
<!DOCTYPE svg PUBLIC "-//W3C//DTD SVG 1.1//EN"
  "http://www.w3.org/Graphics/SVG/1.1/DTD/svg11.dtd">
<!-- Created with matplotlib (http://matplotlib.org/) -->
<svg height="72pt" version="1.1" viewBox="0 0 72 72" width="72pt" xmlns="http://www.w3.org/2000/svg" xmlns:xlink="http://www.w3.org/1999/xlink">
 <defs>
  <style type="text/css">
*{stroke-linecap:butt;stroke-linejoin:round;}
  </style>
 </defs>
 <g id="figure_1">
  <g id="patch_1">
   <path d="
M0 72
L72 72
L72 0
L0 0
z
" style="fill:none;"/>
  </g>
  <g id="axes_1">
   <g id="PatchCollection_1">
    <defs>
     <path d="
M36 -7.5
C43.5583 -7.5 50.808 -10.5029 56.1525 -15.8475
C61.4971 -21.192 64.5 -28.4417 64.5 -36
C64.5 -43.5583 61.4971 -50.808 56.1525 -56.1525
C50.808 -61.4971 43.5583 -64.5 36 -64.5
C28.4417 -64.5 21.192 -61.4971 15.8475 -56.1525
C10.5029 -50.808 7.5 -43.5583 7.5 -36
C7.5 -28.4417 10.5029 -21.192 15.8475 -15.8475
C21.192 -10.5029 28.4417 -7.5 36 -7.5
z
" id="C0_0_a811fe30f3"/>
     <path d="
M15.4643 -16.2769
L15.7972 -16.3113
L16.1397 -16.341
L16.4904 -16.3677
L16.8477 -16.3927
L17.2103 -16.417
L17.577 -16.4415
L17.9469 -16.4671
L18.3192 -16.4942
L18.6929 -16.5233
L19.0675 -16.5548
L19.4423 -16.5891
L19.8168 -16.6262
L20.1906 -16.6663
L20.5632 -16.7096
L20.9343 -16.7561
L21.3036 -16.8057
L21.6708 -16.8586
L22.0356 -16.9146
L22.3979 -16.9738
L22.7574 -17.036
L23.1141 -17.1012
L23.4677 -17.1692
L23.8183 -17.2401
L24.1656 -17.3137
L24.5096 -17.3899
L24.8503 -17.4687
L25.1875 -17.5498
L25.5214 -17.6333
L25.8518 -17.719
L26.1787 -17.8068
L26.5022 -17.8966
L26.8223 -17.9884
L27.1389 -18.082
L27.4521 -18.1774
L27.7619 -18.2745
L28.0683 -18.3733
L28.3715 -18.4735
L28.6714 -18.5753
L28.9681 -18.6784
L29.2616 -18.7829
L29.552 -18.8887
L29.8393 -18.9957
L30.1237 -19.1039
L30.4051 -19.2133
L30.6836 -19.3237
L30.9593 -19.4353
L31.2323 -19.5478
L31.5026 -19.6614
L31.7702 -19.7759
L32.0354 -19.8913
L32.298 -20.0076
L32.5583 -20.1249
L32.8162 -20.243
L33.0718 -20.362
L33.3252 -20.4818
L33.5765 -20.6025
L33.8257 -20.724
L34.0729 -20.8463
L34.3182 -20.9694
L34.5616 -21.0933
L34.8031 -21.2181
L35.043 -21.3437
L35.2812 -21.47
L35.5177 -21.5973
L35.7527 -21.7253
L35.9863 -21.8542
L36.2184 -21.984
L36.4491 -22.1146
L36.6786 -22.2461
L36.9068 -22.3786
L37.1338 -22.5119
L37.3597 -22.6462
L37.5845 -22.7814
L37.8084 -22.9176
L38.0312 -23.0548
L38.2532 -23.193
L38.4744 -23.3323
L38.6947 -23.4726
L39.1333 -23.6141
L39.3517 -23.7567
L39.5694 -23.9005
L39.7867 -24.0454
L40.0035 -24.1917
L40.2198 -24.3391
L40.4358 -24.4879
L40.6515 -24.638
L40.8668 -24.7895
L41.082 -24.9425
L41.297 -25.0969
L41.5118 -25.2528
L41.7265 -25.4102
L41.9412 -25.5693
L42.1559 -25.73
L42.3706 -25.8924
L42.5854 -26.0565
L42.8004 -26.2224
L43.0155 -26.3902
L43.2307 -26.5599
L43.4463 -26.7315
L43.6621 -26.9051
L43.8782 -27.0808
L44.0946 -27.2586
L44.3114 -27.4386
L44.5286 -27.6208
L44.7463 -27.8053
L44.9644 -27.9922
L45.1831 -28.1816
L45.4022 -28.3734
L45.6219 -28.5678
L45.8422 -28.7648
L46.063 -28.9645
L46.2845 -29.167
L46.5066 -29.3723
L46.7293 -29.5805
L46.9527 -29.7917
L47.1767 -30.006
L47.4014 -30.2233
L47.6267 -30.4438
L47.8527 -30.6676
L48.0794 -30.8947
L48.3067 -31.1252
L48.5346 -31.3591
L48.7632 -31.5966
L48.9924 -31.8376
L49.2222 -32.0823
L49.4525 -32.3307
L49.6833 -32.5829
L49.9147 -32.8388
L50.1464 -33.0986
L50.3786 -33.3623
L50.6111 -33.6299
L50.8439 -33.9015
L51.077 -34.177
L51.3101 -34.4565
L51.5434 -34.74
L51.7767 -35.0274
L52.0099 -35.3188
L52.243 -35.6141
L52.4758 -35.9133
L52.7082 -36.2162
L52.9403 -36.5228
L53.1718 -36.833
L53.4026 -37.1466
L53.6328 -37.4634
L53.8621 -37.7833
L54.0905 -38.1059
L54.318 -38.4311
L54.5444 -38.7584
L54.7698 -39.0875
L54.994 -39.4179
L55.217 -39.7491
L55.439 -40.0804
L55.6599 -40.4113
L55.8798 -40.7409
L56.099 -41.0682
L56.3175 -41.3921
L56.5359 -41.7115
L56.7543 -42.0249
L56.9733 -42.3308
L57.1934 -42.6271
L57.4154 -42.9119
L57.6401 -43.1829
L57.8682 -43.4373
L58.1009 -43.6725
L58.3389 -43.8853
L58.5834 -44.0729
L58.8351 -44.232
L59.0947 -44.36
L59.3625 -44.4545
L59.6386 -44.5135
L59.9226 -44.5359
L60.214 -44.5214
L60.5117 -44.4703
L60.8146 -44.3836
L61.1214 -44.2629
L61.4306 -44.1102
L61.741 -43.9276
L62.0511 -43.7173
L62.3597 -43.4817
L62.6656 -43.2227
L62.9679 -42.9424
L63.2654 -42.6428
L63.5574 -42.3254
L63.8431 -41.9918
L64.0266 -41.6434
L64.1126 -41.1731
L64.19 -40.6831
L64.2589 -40.1918
L64.3192 -39.6992
L64.3708 -39.2054
L64.4138 -38.7107
L64.4481 -38.2151
L64.4738 -37.7189
L64.4908 -37.2222
L64.4991 -36.725
L64.4987 -36.2277
L64.4897 -35.7303
L64.472 -35.233
L64.4456 -34.7359
L64.4105 -34.2391
L64.3668 -33.743
L64.3144 -33.2475
L64.2534 -32.7528
L64.1838 -32.2592
L64.1057 -31.7667
L64.0189 -31.2754
L63.9237 -30.7856
L63.8199 -30.2974
L63.7076 -29.811
L63.5869 -29.3264
L63.4578 -28.8438
L63.3204 -28.3635
L63.1746 -27.8854
L63.0206 -27.4099
L62.8583 -26.9369
L62.6878 -26.4667
L62.5092 -25.9994
L62.3225 -25.5352
L62.1278 -25.0741
L61.9252 -24.6164
L61.7146 -24.1621
L61.4962 -23.7115
L61.2701 -23.2646
L61.0363 -22.8215
L60.7948 -22.3825
L60.5458 -21.9476
L60.2893 -21.5171
L60.0254 -21.0909
L59.7541 -20.6692
L59.4757 -20.2523
L59.1901 -19.8401
L58.8974 -19.4329
L58.5978 -19.0307
L58.2912 -18.6336
L57.9779 -18.2419
L57.6579 -17.8556
L57.3313 -17.4748
L56.9982 -17.0996
L56.6587 -16.7302
L56.3129 -16.3667
L55.9609 -16.0091
L55.6029 -15.6576
L55.2388 -15.3124
L54.8689 -14.9734
L54.4933 -14.6408
L54.112 -14.3148
L53.7252 -13.9953
L53.333 -13.6826
L52.9356 -13.3766
L52.5329 -13.0776
L52.1253 -12.7855
L51.7127 -12.5005
L51.2953 -12.2227
L50.8733 -11.9521
L50.4467 -11.6888
L50.0158 -11.4329
L49.5806 -11.1845
L49.1412 -10.9437
L48.6978 -10.7105
L48.2506 -10.485
L47.7996 -10.2673
L47.3451 -10.0574
L46.8871 -9.85542
L46.4257 -9.6614
L45.9612 -9.47541
L45.4937 -9.29749
L45.0233 -9.12771
L44.5501 -8.96612
L44.0743 -8.81276
L43.596 -8.66768
L43.1155 -8.53093
L42.6328 -8.40254
L42.148 -8.28256
L41.6614 -8.17102
L41.1731 -8.06797
L40.6831 -7.97341
L40.1918 -7.8874
L39.6992 -7.80995
L39.2054 -7.74109
L38.7107 -7.68083
L38.2151 -7.6292
L37.7189 -7.58622
L37.2222 -7.55188
L36.725 -7.52622
L36.2277 -7.50922
L35.7303 -7.50091
L35.233 -7.50128
L34.7359 -7.51032
L34.2391 -7.52805
L33.743 -7.55445
L33.2475 -7.58951
L32.7528 -7.63323
L32.2592 -7.68559
L31.7667 -7.74657
L31.2754 -7.81616
L30.7856 -7.89434
L30.2974 -7.98107
L29.811 -8.07634
L29.3264 -8.18012
L28.8438 -8.29237
L28.3635 -8.41306
L27.8854 -8.54215
L27.4099 -8.67961
L26.9369 -8.82539
L26.4667 -8.97945
L25.9994 -9.14174
L25.5352 -9.31221
L25.0741 -9.49081
L24.6164 -9.67748
L24.1621 -9.87217
L23.7115 -10.0748
L23.2646 -10.2854
L22.8215 -10.5038
L22.3825 -10.7299
L21.9476 -10.9637
L21.5171 -11.2052
L21.0909 -11.4542
L20.6692 -11.7107
L20.2523 -11.9746
L19.8401 -12.2459
L19.4329 -12.5243
L19.0307 -12.8099
L18.6336 -13.1026
L18.2419 -13.4022
L17.8556 -13.7088
L17.4748 -14.0221
L17.0996 -14.3421
L16.7302 -14.6687
L16.3667 -15.0018
L16.0091 -15.3413
z
" id="C0_1_fd6a46c15f"/>
     <path d="
M8.10167 -30.7605
L8.22917 -31.2003
L8.36197 -31.639
L8.50013 -32.0757
L8.64368 -32.5095
L8.79255 -32.9397
L8.94666 -33.3659
L9.10589 -33.7874
L9.27006 -34.204
L9.439 -34.6151
L9.61251 -35.0207
L9.79039 -35.4203
L9.97243 -35.8139
L10.1584 -36.2012
L10.3481 -36.5822
L10.5413 -36.9569
L10.7377 -37.3251
L10.9373 -37.6868
L11.1397 -38.042
L11.3447 -38.3908
L11.5523 -38.7331
L11.7621 -39.069
L11.9741 -39.3986
L12.188 -39.722
L12.4037 -40.0392
L12.621 -40.3502
L12.8399 -40.6553
L13.0602 -40.9545
L13.2817 -41.2479
L13.5043 -41.5356
L13.728 -41.8177
L13.9526 -42.0943
L14.1781 -42.3656
L14.4044 -42.6316
L14.6313 -42.8926
L14.8589 -43.1485
L15.087 -43.3995
L15.3157 -43.6457
L15.5448 -43.8873
L15.7743 -44.1244
L16.0042 -44.357
L16.2345 -44.5853
L16.4651 -44.8093
L16.6959 -45.0293
L16.9271 -45.2452
L17.1585 -45.4572
L17.3902 -45.6655
L17.6221 -45.87
L17.8543 -46.0709
L18.0867 -46.2683
L18.3194 -46.4623
L18.5523 -46.6529
L18.7855 -46.8403
L19.019 -47.0245
L19.2528 -47.2057
L19.4869 -47.3838
L19.7213 -47.559
L19.9561 -47.7313
L20.1912 -47.9009
L20.4268 -48.0677
L20.6628 -48.2319
L20.8993 -48.3935
L21.1363 -48.5526
L21.3738 -48.7092
L21.6119 -48.8634
L21.8506 -49.0152
L22.0899 -49.1648
L22.3299 -49.3121
L22.5706 -49.4572
L22.8122 -49.6001
L23.0545 -49.741
L23.2977 -49.8797
L23.5418 -50.0165
L23.7869 -50.1512
L24.0329 -50.284
L24.2801 -50.4149
L24.5283 -50.5439
L24.7777 -50.671
L25.0283 -50.7963
L25.2802 -50.9198
L25.5335 -51.0415
L25.7881 -51.1614
L26.0442 -51.2796
L26.3018 -51.396
L26.5609 -51.5108
L26.8217 -51.6238
L27.0842 -51.7351
L27.3485 -51.8448
L27.6146 -51.9527
L27.8825 -52.059
L28.1525 -52.1636
L28.4245 -52.2665
L28.6985 -52.3678
L28.9748 -52.4673
L29.2533 -52.5652
L29.5341 -52.6613
L29.8172 -52.7557
L30.1029 -52.8483
L30.3911 -52.9392
L30.6819 -53.0283
L30.9753 -53.1156
L31.2715 -53.201
L31.5706 -53.2846
L31.8725 -53.3662
L32.1775 -53.4459
L32.4855 -53.5236
L32.7966 -53.5992
L33.1109 -53.6728
L33.4285 -53.7442
L33.7495 -53.8134
L34.0739 -53.8804
L34.4017 -53.945
L34.7332 -54.0073
L35.0682 -54.0671
L35.4069 -54.1244
L35.7494 -54.179
L36.0957 -54.231
L36.4458 -54.2801
L36.7999 -54.3264
L37.1579 -54.3698
L37.5198 -54.4101
L37.8858 -54.4472
L38.2559 -54.4811
L38.63 -54.5116
L39.0082 -54.5386
L39.3904 -54.562
L39.7768 -54.5818
L40.1672 -54.5977
L40.5617 -54.6097
L40.9601 -54.6177
L41.3625 -54.6216
L41.7687 -54.6212
L42.1787 -54.6165
L42.5924 -54.6073
L43.0097 -54.5936
L43.4304 -54.5753
L43.8543 -54.5523
L44.2814 -54.5246
L44.7112 -54.4922
L45.1438 -54.455
L45.5786 -54.4131
L46.0156 -54.3664
L46.4542 -54.3152
L46.8943 -54.2596
L47.3352 -54.1996
L47.7766 -54.1357
L48.218 -54.068
L48.6587 -53.9971
L49.0983 -53.9235
L49.5359 -53.8477
L49.9707 -53.7706
L50.402 -53.693
L50.8288 -53.6162
L51.25 -53.5414
L51.6644 -53.4702
L52.0708 -53.4044
L52.4678 -53.3459
L52.8539 -53.2972
L53.2274 -53.2608
L53.5867 -53.2393
L53.93 -53.2357
L54.2558 -53.2526
L54.5625 -53.2926
L54.8487 -53.358
L55.1133 -53.4503
L55.3558 -53.5706
L55.5756 -53.7191
L55.773 -53.8953
L55.9481 -54.098
L56.1017 -54.3255
L56.2344 -54.5758
L56.3471 -54.8467
L56.4408 -55.1359
L56.342 -55.4412
L55.9905 -55.9613
L55.633 -56.3133
L55.2694 -56.659
L54.9 -56.9985
L54.5249 -57.3316
L54.1441 -57.6582
L53.7577 -57.9782
L53.366 -58.2916
L52.9689 -58.5981
L52.5667 -58.8977
L52.1595 -59.1904
L51.7473 -59.476
L51.3303 -59.7544
L50.9087 -60.0256
L50.4825 -60.2895
L50.0519 -60.546
L49.617 -60.795
L49.178 -61.0365
L48.735 -61.2703
L48.2881 -61.4965
L47.8374 -61.7148
L47.3832 -61.9254
L46.9254 -62.128
L46.4644 -62.3227
L46.0001 -62.5094
L45.5328 -62.688
L45.0626 -62.8584
L44.5897 -63.0207
L44.1141 -63.1748
L43.6361 -63.3205
L43.1557 -63.458
L42.6731 -63.5871
L42.1886 -63.7077
L41.7021 -63.82
L41.2139 -63.9238
L40.7241 -64.019
L40.2329 -64.1057
L39.7403 -64.1839
L39.2467 -64.2535
L38.752 -64.3145
L38.2565 -64.3668
L37.7604 -64.4105
L37.2636 -64.4456
L36.7666 -64.472
L36.2692 -64.4897
L35.7718 -64.4987
L35.2745 -64.4991
L34.7773 -64.4908
L34.2806 -64.4738
L33.7844 -64.4481
L33.2888 -64.4137
L32.7941 -64.3708
L32.3003 -64.3191
L31.8077 -64.2588
L31.3164 -64.19
L30.8265 -64.1125
L30.3381 -64.0265
L29.8515 -63.9319
L29.3668 -63.8289
L28.884 -63.7173
L28.4035 -63.5973
L27.9252 -63.4689
L27.4495 -63.3322
L26.9763 -63.1871
L26.5058 -63.0337
L26.0383 -62.8721
L25.5738 -62.7023
L25.1125 -62.5244
L24.6545 -62.3384
L24.1999 -62.1444
L23.749 -61.9424
L23.3017 -61.7325
L22.8584 -61.5148
L22.419 -61.2893
L21.9838 -61.0561
L21.5528 -60.8152
L21.1263 -60.5668
L20.7043 -60.311
L20.2869 -60.0477
L19.8743 -59.7771
L19.4667 -59.4992
L19.064 -59.2142
L18.6666 -58.9221
L18.2744 -58.6231
L17.8876 -58.3171
L17.5063 -58.0043
L17.1307 -57.6849
L16.7608 -57.3588
L16.3968 -57.0263
L16.0387 -56.6873
L15.6867 -56.342
L15.341 -55.9905
L15.0015 -55.633
L14.6684 -55.2694
L14.3418 -54.9
L14.0218 -54.5249
L13.7084 -54.1441
L13.4019 -53.7577
L13.1023 -53.366
L12.8096 -52.9689
L12.524 -52.5667
L12.2456 -52.1595
L11.9744 -51.7473
L11.7105 -51.3303
L11.454 -50.9087
L11.205 -50.4825
L10.9635 -50.0519
L10.7297 -49.617
L10.5035 -49.178
L10.2852 -48.735
L10.0746 -48.2881
L9.87197 -47.8374
L9.67729 -47.3832
L9.49062 -46.9254
L9.31203 -46.4644
L9.14157 -46.0001
L8.97929 -45.5328
L8.82524 -45.0626
L8.67947 -44.5897
L8.54202 -44.1141
L8.41294 -43.6361
L8.29225 -43.1557
L8.18001 -42.6731
L8.07624 -42.1886
L7.98098 -41.7021
L7.89425 -41.2139
L7.81609 -40.7241
L7.74651 -40.2329
L7.68553 -39.7403
L7.63318 -39.2467
L7.58947 -38.752
L7.55442 -38.2565
L7.52803 -37.7604
L7.51031 -37.2636
L7.50127 -36.7666
L7.50091 -36.2692
L7.50924 -35.7718
L7.52624 -35.2745
L7.55191 -34.7773
L7.58625 -34.2806
L7.62925 -33.7844
L7.68089 -33.2888
L7.74115 -32.7941
L7.81002 -32.3003
L7.88748 -31.8077
z
" id="C0_2_948319f8ce"/>
    </defs>
    <g clip-path="url(#p1bffca34e9)">
     <use style="fill:#ff0000;stroke:#000000;stroke-width:2.0;" x="0.0" xlink:href="#C0_0_a811fe30f3" y="72.0"/>
    </g>
    <g clip-path="url(#p1bffca34e9)">
     <use style="fill:#ffffff;stroke:#000000;stroke-width:2.0;" x="0.0" xlink:href="#C0_1_fd6a46c15f" y="72.0"/>
    </g>
    <g clip-path="url(#p1bffca34e9)">
     <use style="fill:#ffffff;stroke:#000000;stroke-width:2.0;" x="0.0" xlink:href="#C0_2_948319f8ce" y="72.0"/>
    </g>
   </g>
  </g>
 </g>
 <defs>
  <clipPath id="p1bffca34e9">
   <rect height="72.0" width="72.0" x="0.0" y="0.0"/>
  </clipPath>
 </defs>
</svg>
