<?xml version="1.0" encoding="utf-8" standalone="no"?>
<!DOCTYPE svg PUBLIC "-//W3C//DTD SVG 1.1//EN"
  "http://www.w3.org/Graphics/SVG/1.1/DTD/svg11.dtd">
<!-- Created with matplotlib (http://matplotlib.org/) -->
<svg height="72pt" version="1.1" viewBox="0 0 72 72" width="72pt" xmlns="http://www.w3.org/2000/svg" xmlns:xlink="http://www.w3.org/1999/xlink">
 <defs>
  <style type="text/css">
*{stroke-linecap:butt;stroke-linejoin:round;}
  </style>
 </defs>
 <g id="figure_1">
  <g id="patch_1">
   <path d="
M0 72
L72 72
L72 0
L0 0
z
" style="fill:none;"/>
  </g>
  <g id="axes_1">
   <g id="PatchCollection_1">
    <defs>
     <path d="
M36 -7.5
C43.5583 -7.5 50.808 -10.5029 56.1525 -15.8475
C61.4971 -21.192 64.5 -28.4417 64.5 -36
C64.5 -43.5583 61.4971 -50.808 56.1525 -56.1525
C50.808 -61.4971 43.5583 -64.5 36 -64.5
C28.4417 -64.5 21.192 -61.4971 15.8475 -56.1525
C10.5029 -50.808 7.5 -43.5583 7.5 -36
C7.5 -28.4417 10.5029 -21.192 15.8475 -15.8475
C21.192 -10.5029 28.4417 -7.5 36 -7.5
z
" id="C0_0_a811fe30f3"/>
     <path d="
M63.6814 -42.3001
L63.5206 -42.1065
L63.3572 -41.9173
L63.1915 -41.7323
L63.0234 -41.5514
L62.8532 -41.3746
L62.681 -41.2015
L62.5068 -41.0322
L62.3308 -40.8666
L62.153 -40.7044
L61.9735 -40.5455
L61.7924 -40.39
L61.6098 -40.2376
L61.4257 -40.0882
L61.2402 -39.9418
L61.0534 -39.7983
L60.8652 -39.6576
L60.6758 -39.5196
L60.4852 -39.3842
L60.2933 -39.2513
L60.1003 -39.1208
L59.9062 -38.9928
L59.711 -38.867
L59.5147 -38.7436
L59.3173 -38.6222
L59.1189 -38.503
L58.9194 -38.3859
L58.7189 -38.2708
L58.5174 -38.1576
L58.3149 -38.0462
L58.1113 -37.9368
L57.9067 -37.8291
L57.7011 -37.7232
L57.4945 -37.619
L57.2869 -37.5164
L57.0782 -37.4154
L56.8685 -37.3161
L56.6577 -37.2182
L56.4458 -37.1219
L56.2329 -37.0271
L56.0188 -36.9336
L55.8036 -36.8416
L55.3699 -36.751
L55.1512 -36.6618
L54.9314 -36.5738
L54.7103 -36.4872
L54.488 -36.4019
L54.2644 -36.3178
L54.0395 -36.235
L53.8132 -36.1534
L53.5857 -36.073
L53.3567 -35.9938
L53.1263 -35.9158
L52.8945 -35.839
L52.6612 -35.7633
L52.4265 -35.6888
L52.1901 -35.6154
L51.9523 -35.5432
L51.7128 -35.4721
L51.4717 -35.4021
L51.2289 -35.3333
L50.9845 -35.2656
L50.7383 -35.199
L50.4904 -35.1336
L50.2407 -35.0693
L49.9892 -35.0062
L49.7358 -34.9442
L49.4806 -34.8834
L49.2234 -34.8238
L48.9643 -34.7654
L48.7033 -34.7082
L48.4403 -34.6522
L48.1752 -34.5975
L47.9081 -34.5441
L47.639 -34.492
L47.3677 -34.4413
L47.0944 -34.3919
L46.8189 -34.3439
L46.5413 -34.2973
L46.2616 -34.2522
L45.9797 -34.2086
L45.6956 -34.1666
L45.4093 -34.1262
L45.1209 -34.0875
L44.8303 -34.0505
L44.5376 -34.0152
L44.2427 -33.9818
L43.9456 -33.9502
L43.6465 -33.9207
L43.3452 -33.8931
L43.0419 -33.8677
L42.7365 -33.8445
L42.4292 -33.8236
L42.1199 -33.805
L41.8088 -33.7889
L41.4958 -33.7754
L41.1811 -33.7646
L40.8648 -33.7565
L40.5468 -33.7513
L40.2274 -33.7492
L39.9066 -33.7502
L39.5846 -33.7545
L39.2614 -33.7622
L38.9372 -33.7735
L38.6122 -33.7885
L38.2864 -33.8074
L37.9602 -33.8303
L37.6336 -33.8574
L37.3069 -33.8889
L36.9802 -33.925
L36.6537 -33.9658
L36.3278 -34.0116
L36.0026 -34.0624
L35.6783 -34.1186
L35.3553 -34.1804
L35.0338 -34.2478
L34.7141 -34.3212
L34.3964 -34.4007
L34.081 -34.4866
L33.7683 -34.579
L33.4585 -34.678
L33.152 -34.784
L32.849 -34.8971
L32.5499 -35.0174
L32.2549 -35.1451
L31.9643 -35.2803
L31.6785 -35.4231
L31.3977 -35.5737
L31.1222 -35.7321
L30.8522 -35.8983
L30.588 -36.0724
L30.3298 -36.2544
L30.0778 -36.4443
L29.8322 -36.6419
L29.5931 -36.8472
L29.3607 -37.0601
L29.1352 -37.2804
L28.9166 -37.5079
L28.705 -37.7426
L28.5005 -37.984
L28.3031 -38.232
L28.1128 -38.4863
L27.9297 -38.7467
L27.7537 -39.0127
L27.5848 -39.2842
L27.4229 -39.5608
L27.2681 -39.8421
L27.1201 -40.1279
L26.9791 -40.4177
L26.8448 -40.7113
L26.7171 -41.0084
L26.5961 -41.3085
L26.4815 -41.6114
L26.3732 -41.9168
L26.2712 -42.2243
L26.1753 -42.5337
L26.0854 -42.8447
L26.0014 -43.157
L25.9231 -43.4703
L25.8505 -43.7844
L25.7834 -44.099
L25.7216 -44.414
L25.6651 -44.7291
L25.6138 -45.044
L25.5675 -45.3587
L25.5261 -45.673
L25.4895 -45.9866
L25.4576 -46.2994
L25.4302 -46.6113
L25.4074 -46.9222
L25.3889 -47.2318
L25.3747 -47.5402
L25.3646 -47.8472
L25.3587 -48.1527
L25.3567 -48.4566
L25.3586 -48.7589
L25.3643 -49.0595
L25.3738 -49.3583
L25.3869 -49.6553
L25.4036 -49.9503
L25.4237 -50.2435
L25.4473 -50.5347
L25.4743 -50.8239
L25.5045 -51.1111
L25.5381 -51.3963
L25.5747 -51.6794
L25.6145 -51.9604
L25.6574 -52.2394
L25.7033 -52.5163
L25.7522 -52.7911
L25.8041 -53.0639
L25.8588 -53.3345
L25.9164 -53.6031
L25.9768 -53.8696
L26.0401 -54.1341
L26.1061 -54.3966
L26.1748 -54.657
L26.2463 -54.9154
L26.3205 -55.1718
L26.3973 -55.4262
L26.4769 -55.6787
L26.5591 -55.9292
L26.644 -56.1778
L26.7315 -56.4245
L26.8217 -56.6693
L26.9145 -56.9122
L27.0099 -57.1534
L27.1081 -57.3926
L27.2088 -57.6301
L27.3123 -57.8658
L27.4184 -58.0998
L27.5273 -58.332
L27.6388 -58.5625
L27.7531 -58.7912
L27.8702 -59.0183
L27.9901 -59.2437
L28.1128 -59.4674
L28.2383 -59.6895
L28.3667 -59.91
L28.4981 -60.1288
L28.6324 -60.346
L28.7697 -60.5617
L28.91 -60.7757
L29.0535 -60.9881
L29.2001 -61.199
L29.35 -61.4082
L29.5031 -61.6159
L29.6595 -61.822
L29.8193 -62.0265
L29.9826 -62.2294
L30.1494 -62.4306
L30.3198 -62.6303
L30.4939 -62.8283
L30.6718 -63.0246
L30.8535 -63.2193
L31.0391 -63.4122
L31.2287 -63.6034
L31.4225 -63.7929
L31.8902 -63.9805
L32.3831 -64.2021
L32.877 -64.2696
L33.3719 -64.3284
L33.8675 -64.3786
L34.3639 -64.4201
L34.8607 -64.453
L35.3579 -64.4772
L35.8552 -64.4928
L36.3526 -64.4996
L36.8499 -64.4978
L37.347 -64.4873
L37.8436 -64.4682
L38.3397 -64.4403
L38.835 -64.4038
L39.3295 -64.3586
L39.823 -64.3048
L40.3153 -64.2424
L40.8063 -64.1714
L41.2959 -64.0918
L41.7838 -64.0036
L42.27 -63.9069
L42.7542 -63.8018
L43.2364 -63.6881
L43.7164 -63.566
L44.194 -63.4355
L44.6692 -63.2967
L45.1417 -63.1495
L45.6114 -62.9941
L46.0782 -62.8304
L46.5419 -62.6586
L47.0024 -62.4786
L47.4596 -62.2906
L47.9133 -62.0946
L48.3633 -61.8906
L48.8096 -61.6788
L49.2519 -61.4591
L49.6903 -61.2317
L50.1244 -60.9965
L50.5543 -60.7538
L50.9797 -60.5035
L51.4006 -60.2458
L51.8168 -59.9807
L52.2281 -59.7082
L52.6345 -59.4286
L53.0359 -59.1418
L53.432 -58.8479
L53.8229 -58.5472
L54.2083 -58.2395
L54.5882 -57.925
L54.9624 -57.6039
L55.3308 -57.2762
L55.6934 -56.942
L56.0499 -56.6015
L56.4003 -56.2547
L56.7446 -55.9017
L57.0825 -55.5426
L57.414 -55.1776
L57.7389 -54.8067
L58.0573 -54.4301
L58.3689 -54.0479
L58.6737 -53.6602
L58.9716 -53.2671
L59.2625 -52.8688
L59.5463 -52.4653
L59.823 -52.0568
L60.0923 -51.6434
L60.3544 -51.2253
L60.609 -50.8025
L60.8562 -50.3752
L61.0957 -49.9435
L61.3276 -49.5076
L61.5518 -49.0676
L61.7683 -48.6235
L61.9768 -48.1757
L62.1775 -47.7241
L62.3702 -47.269
L62.5548 -46.8104
L62.7314 -46.3485
L62.8998 -45.8835
L63.06 -45.4155
L63.212 -44.9446
L63.3557 -44.4709
L63.4911 -43.9947
L63.618 -43.5161
z
" id="C0_1_1baaab7ae7"/>
     <path d="
M40.3781 -7.84313
L40.1315 -7.95995
L39.8854 -8.07955
L39.6396 -8.20195
L39.3941 -8.32715
L39.1488 -8.45517
L38.9038 -8.58602
L38.659 -8.71971
L38.4143 -8.85626
L38.1697 -8.99568
L37.9252 -9.13799
L37.6808 -9.28321
L37.4363 -9.43135
L37.1918 -9.58243
L36.9473 -9.73647
L36.7027 -9.89349
L36.4579 -10.0535
L36.2131 -10.2165
L35.968 -10.3825
L35.7228 -10.5516
L35.4773 -10.7237
L35.2315 -10.8989
L34.9855 -11.0772
L34.7392 -11.2585
L34.4926 -11.4429
L34.2456 -11.6305
L33.9983 -11.8211
L33.7506 -12.0148
L33.5025 -12.2116
L33.254 -12.4115
L33.005 -12.6144
L32.7556 -12.8204
L32.5058 -13.0295
L32.2554 -13.2415
L32.0046 -13.4565
L31.7532 -13.6745
L31.5013 -13.8953
L31.2489 -14.119
L30.9959 -14.3454
L30.7424 -14.5746
L30.4882 -14.8064
L30.2335 -15.0408
L29.9781 -15.2776
L29.7221 -15.5168
L29.4654 -15.7582
L29.2081 -16.0017
L28.95 -16.2473
L28.6912 -16.4947
L28.4317 -16.7438
L28.1714 -16.9943
L27.9103 -17.2463
L27.6483 -17.4994
L27.3854 -17.7534
L27.1216 -18.0082
L26.8569 -18.2635
L26.5911 -18.5191
L26.3243 -18.7747
L26.0564 -19.0301
L25.7873 -19.285
L25.5171 -19.5392
L25.2455 -19.7924
L24.9727 -20.0443
L24.6985 -20.2946
L24.4228 -20.5431
L24.1457 -20.7895
L23.8671 -21.0335
L23.5869 -21.2748
L23.3052 -21.5133
L23.0218 -21.7487
L22.7368 -21.9807
L22.4502 -22.2092
L22.1619 -22.4339
L21.872 -22.6548
L21.5805 -22.8716
L21.2875 -23.0842
L20.993 -23.2927
L20.697 -23.4968
L20.3997 -23.6965
L20.1011 -23.8919
L19.8014 -24.0829
L19.5007 -24.2696
L19.1991 -24.4519
L18.8968 -24.6301
L18.5938 -24.8041
L18.2905 -24.9741
L17.9869 -25.1402
L17.6832 -25.3024
L17.3796 -25.4611
L17.0763 -25.6162
L16.7735 -25.7679
L16.4712 -25.9165
L16.1698 -26.062
L15.8693 -26.2046
L15.57 -26.3445
L15.2719 -26.4817
L14.9753 -26.6166
L14.6804 -26.7491
L14.3871 -26.8796
L14.0958 -27.008
L13.8064 -27.1345
L13.5191 -27.2593
L13.2341 -27.3825
L12.9514 -27.5041
L12.6712 -27.6244
L12.3934 -27.7434
L12.1183 -27.8612
L11.8457 -27.978
L11.5759 -28.0937
L11.3089 -28.2085
L11.0447 -28.3225
L10.7834 -28.4358
L10.5249 -28.5484
L10.2694 -28.6604
L10.0168 -28.7718
L9.76714 -28.8828
L9.52049 -28.9933
L9.27681 -29.1035
L9.03612 -29.2134
L8.79842 -29.323
L8.56369 -29.4324
L8.36336 -29.5417
L8.48907 -29.0382
L8.62316 -28.557
L8.76559 -28.078
L8.91631 -27.6014
L9.07528 -27.1274
L9.24246 -26.656
L9.41778 -26.1876
L9.60121 -25.7221
L9.79267 -25.2597
L9.99212 -24.8006
L10.1995 -24.345
L10.4147 -23.8928
L10.6377 -23.4444
L10.8685 -22.9998
L11.1069 -22.5591
L11.3529 -22.1226
L11.6064 -21.6902
L11.8673 -21.2623
L12.1356 -20.8388
L12.4111 -20.4199
L12.6938 -20.0058
L12.9837 -19.5965
L13.2805 -19.1923
L13.5843 -18.7932
L13.8949 -18.3993
L14.2122 -18.0108
L14.5361 -17.6277
L14.8666 -17.2503
L15.2036 -16.8785
L15.5468 -16.5126
L15.8963 -16.1526
L16.252 -15.7987
L16.6136 -15.4509
L16.9812 -15.1094
L17.3545 -14.7742
L17.7335 -14.4455
L18.1181 -14.1234
L18.5081 -13.8079
L18.9035 -13.4992
L19.304 -13.1974
L19.7097 -12.9025
L20.1203 -12.6146
L20.5358 -12.3339
L20.9559 -12.0603
L21.3807 -11.7941
L21.8098 -11.5352
L22.2434 -11.2838
L22.6811 -11.0399
L23.1228 -10.8036
L23.5685 -10.575
L24.018 -10.3542
L24.4711 -10.1411
L24.9278 -9.93594
L25.3878 -9.73871
L25.851 -9.54947
L26.3173 -9.36829
L26.7866 -9.19522
L27.2587 -9.03032
L27.7335 -8.87363
L28.2107 -8.7252
L28.6904 -8.58509
L29.1723 -8.45332
L29.6562 -8.32995
L30.1421 -8.215
L30.6298 -8.10852
L31.1191 -8.01053
L31.6098 -7.92107
L32.102 -7.84016
L32.5953 -7.76783
L33.0896 -7.7041
L33.5849 -7.64899
L34.0808 -7.60252
L34.5774 -7.56469
L35.0744 -7.53553
L35.5717 -7.51503
L36.0691 -7.50322
L36.5664 -7.50008
L37.0636 -7.50563
L37.5605 -7.51986
L38.0569 -7.54276
L38.5527 -7.57433
L39.0477 -7.61455
L39.5418 -7.66343
z
" id="C0_2_5ac3ab5b94"/>
    </defs>
    <g clip-path="url(#p1bffca34e9)">
     <use style="fill:#ff0000;stroke:#000000;stroke-width:2.0;" x="0.0" xlink:href="#C0_0_a811fe30f3" y="72.0"/>
    </g>
    <g clip-path="url(#p1bffca34e9)">
     <use style="fill:#ffffff;stroke:#000000;stroke-width:2.0;" x="0.0" xlink:href="#C0_1_1baaab7ae7" y="72.0"/>
    </g>
    <g clip-path="url(#p1bffca34e9)">
     <use style="fill:#ffffff;stroke:#000000;stroke-width:2.0;" x="0.0" xlink:href="#C0_2_5ac3ab5b94" y="72.0"/>
    </g>
   </g>
  </g>
 </g>
 <defs>
  <clipPath id="p1bffca34e9">
   <rect height="72.0" width="72.0" x="0.0" y="0.0"/>
  </clipPath>
 </defs>
</svg>
