<?xml version="1.0" encoding="utf-8" standalone="no"?>
<!DOCTYPE svg PUBLIC "-//W3C//DTD SVG 1.1//EN"
  "http://www.w3.org/Graphics/SVG/1.1/DTD/svg11.dtd">
<!-- Created with matplotlib (http://matplotlib.org/) -->
<svg height="72pt" version="1.1" viewBox="0 0 72 72" width="72pt" xmlns="http://www.w3.org/2000/svg" xmlns:xlink="http://www.w3.org/1999/xlink">
 <defs>
  <style type="text/css">
*{stroke-linecap:butt;stroke-linejoin:round;}
  </style>
 </defs>
 <g id="figure_1">
  <g id="patch_1">
   <path d="
M0 72
L72 72
L72 0
L0 0
z
" style="fill:none;"/>
  </g>
  <g id="axes_1">
   <g id="PatchCollection_1">
    <defs>
     <path d="
M36 -7.5
C43.5583 -7.5 50.808 -10.5029 56.1525 -15.8475
C61.4971 -21.192 64.5 -28.4417 64.5 -36
C64.5 -43.5583 61.4971 -50.808 56.1525 -56.1525
C50.808 -61.4971 43.5583 -64.5 36 -64.5
C28.4417 -64.5 21.192 -61.4971 15.8475 -56.1525
C10.5029 -50.808 7.5 -43.5583 7.5 -36
C7.5 -28.4417 10.5029 -21.192 15.8475 -15.8475
C21.192 -10.5029 28.4417 -7.5 36 -7.5
z
" id="C0_0_a811fe30f3"/>
     <path d="
M15.6198 -16.1099
L15.7618 -16.3132
L15.9212 -16.5055
L16.0966 -16.6876
L16.2869 -16.8603
L16.4909 -17.0245
L16.7073 -17.1808
L16.9351 -17.3303
L17.173 -17.4735
L17.4203 -17.6113
L17.6757 -17.7444
L17.9385 -17.8733
L18.2077 -17.9986
L18.4827 -18.1208
L18.7625 -18.2405
L19.0467 -18.3581
L19.3345 -18.4738
L19.6254 -18.5881
L19.9189 -18.7011
L20.2144 -18.8133
L20.5116 -18.9248
L20.8101 -19.0357
L21.1094 -19.1463
L21.4093 -19.2566
L21.7094 -19.3669
L22.0096 -19.4771
L22.3095 -19.5874
L22.6089 -19.6979
L22.9076 -19.8085
L23.2055 -19.9194
L23.5024 -20.0305
L23.7981 -20.1419
L24.0925 -20.2537
L24.3856 -20.3657
L24.6772 -20.4781
L24.9672 -20.5908
L25.2556 -20.7039
L25.5423 -20.8173
L25.8273 -20.9311
L26.1105 -21.0452
L26.3918 -21.1596
L26.6713 -21.2743
L26.949 -21.3893
L27.2248 -21.5047
L27.4987 -21.6203
L27.7707 -21.7362
L28.0408 -21.8525
L28.3091 -21.969
L28.5755 -22.0857
L28.8401 -22.2028
L29.1029 -22.3201
L29.3639 -22.4376
L29.6231 -22.5555
L29.8806 -22.6736
L30.1363 -22.7919
L30.3904 -22.9105
L30.6429 -23.0294
L30.8937 -23.1485
L31.143 -23.268
L31.3908 -23.3876
L31.6371 -23.5076
L31.882 -23.6279
L32.1254 -23.7484
L32.3676 -23.8693
L32.6084 -23.9904
L32.8479 -24.1119
L33.0862 -24.2337
L33.3234 -24.3559
L33.5594 -24.4784
L33.7944 -24.6013
L34.0283 -24.7246
L34.2612 -24.8483
L34.4932 -24.9725
L34.7243 -25.097
L34.9546 -25.2221
L35.1841 -25.3475
L35.4128 -25.4735
L35.6409 -25.6
L35.8682 -25.7271
L36.095 -25.8547
L36.3212 -25.9829
L36.547 -26.1116
L36.7722 -26.241
L36.997 -26.3711
L37.4457 -26.5018
L37.6695 -26.6333
L37.8932 -26.7654
L38.1166 -26.8983
L38.3399 -27.032
L38.5632 -27.1665
L38.7863 -27.3018
L39.0095 -27.438
L39.2327 -27.5751
L39.456 -27.7132
L39.6795 -27.8521
L39.9031 -27.9921
L40.1269 -28.1331
L40.351 -28.2751
L40.5754 -28.4182
L40.8001 -28.5624
L41.0253 -28.7078
L41.2508 -28.8544
L41.4768 -29.0022
L41.7034 -29.1512
L41.9304 -29.3015
L42.1581 -29.4532
L42.3864 -29.6062
L42.6154 -29.7606
L42.845 -29.9164
L43.0754 -30.0737
L43.3066 -30.2324
L43.5385 -30.3927
L43.7713 -30.5546
L44.005 -30.7181
L44.2395 -30.8832
L44.475 -31.05
L44.7115 -31.2185
L44.9489 -31.3888
L45.1874 -31.5608
L45.4268 -31.7346
L45.6674 -31.9102
L45.909 -32.0876
L46.1517 -32.267
L46.3954 -32.4482
L46.6404 -32.6314
L46.8864 -32.8165
L47.1336 -33.0035
L47.3819 -33.1925
L47.6314 -33.3835
L47.882 -33.5764
L48.1338 -33.7713
L48.3867 -33.9681
L48.6407 -34.1669
L48.8959 -34.3676
L49.1521 -34.5702
L49.4095 -34.7747
L49.6679 -34.9809
L49.9274 -35.1889
L50.1878 -35.3986
L50.4493 -35.6099
L50.7116 -35.8227
L50.9749 -36.0369
L51.2391 -36.2524
L51.504 -36.469
L51.7698 -36.6866
L52.0362 -36.905
L52.3033 -37.124
L52.5711 -37.3433
L52.8394 -37.5628
L53.1082 -37.782
L53.3775 -38.0008
L53.6473 -38.2186
L53.9173 -38.4352
L54.1878 -38.65
L54.4585 -38.8627
L54.7294 -39.0726
L55.0006 -39.2792
L55.272 -39.4819
L55.5435 -39.6798
L55.8153 -39.8723
L56.0873 -40.0586
L56.3595 -40.2376
L56.6319 -40.4086
L56.9046 -40.5703
L57.1776 -40.7219
L57.451 -40.862
L57.7247 -40.9897
L57.9988 -41.1035
L58.2734 -41.2024
L58.5484 -41.2851
L58.8237 -41.3504
L59.0994 -41.3972
L59.3753 -41.4244
L59.6512 -41.4312
L59.9269 -41.4166
L60.2022 -41.3802
L60.4767 -41.3214
L60.7501 -41.2399
L61.0219 -41.1357
L61.2917 -41.0088
L61.5589 -40.8596
L61.8231 -40.6885
L62.0837 -40.4961
L62.3401 -40.283
L62.5918 -40.05
L62.8384 -39.7981
L63.0792 -39.528
L63.3138 -39.2409
L63.5417 -38.9375
L63.7625 -38.6189
L63.9757 -38.2861
L64.1811 -37.9399
L64.3783 -37.5814
L64.4909 -37.2113
L64.4991 -36.7182
L64.4987 -36.2209
L64.4895 -35.7235
L64.4716 -35.2261
L64.4451 -34.729
L64.4099 -34.2323
L64.3661 -33.7362
L64.3136 -33.2407
L64.2525 -32.7461
L64.1828 -32.2524
L64.1045 -31.7599
L64.0177 -31.2687
L63.9223 -30.7789
L63.8184 -30.2907
L63.706 -29.8043
L63.5852 -29.3197
L63.456 -28.8372
L63.3184 -28.3569
L63.1725 -27.8789
L63.0184 -27.4033
L62.856 -26.9304
L62.6854 -26.4603
L62.5067 -25.993
L62.3199 -25.5288
L62.1251 -25.0678
L61.9223 -24.6101
L61.7117 -24.1559
L61.4932 -23.7053
L61.2669 -23.2585
L61.033 -22.8155
L60.7914 -22.3765
L60.5423 -21.9417
L60.2857 -21.5112
L60.0217 -21.0851
L59.7504 -20.6635
L59.4718 -20.2466
L59.1861 -19.8345
L58.8934 -19.4273
L58.5936 -19.0252
L58.287 -18.6282
L57.9736 -18.2366
L57.6535 -17.8503
L57.3268 -17.4696
L56.9936 -17.0945
L56.654 -16.7252
L56.3081 -16.3617
L55.9561 -16.0042
L55.5979 -15.6529
L55.2338 -15.3077
L54.8638 -14.9688
L54.4881 -14.6363
L54.1067 -14.3104
L53.7199 -13.991
L53.3276 -13.6784
L52.9301 -13.3725
L52.5274 -13.0735
L52.1196 -12.7816
L51.707 -12.4966
L51.2896 -12.2189
L50.8675 -11.9484
L50.4409 -11.6852
L50.0098 -11.4295
L49.5746 -11.1812
L49.1351 -10.9404
L48.6917 -10.7074
L48.2444 -10.482
L47.7934 -10.2643
L47.3388 -10.0546
L46.8808 -9.8527
L46.4194 -9.65879
L45.9548 -9.47291
L45.4873 -9.29511
L45.0168 -9.12544
L44.5436 -8.96396
L44.0677 -8.81071
L43.5895 -8.66575
L43.1089 -8.52911
L42.6261 -8.40084
L42.1414 -8.28097
L41.6547 -8.16955
L41.1663 -8.06661
L40.6764 -7.97218
L40.185 -7.88628
L39.6924 -7.80895
L39.1986 -7.7402
L38.7039 -7.68006
L38.2083 -7.62855
L37.7121 -7.58569
L37.2153 -7.55147
L36.7182 -7.52593
L36.2209 -7.50905
L35.7235 -7.50086
L35.2261 -7.50134
L34.729 -7.51051
L34.2323 -7.52835
L33.7362 -7.55487
L33.2407 -7.59005
L32.7461 -7.63389
L32.2524 -7.68637
L31.7599 -7.74747
L31.2687 -7.81718
L30.7789 -7.89547
L30.2907 -7.98232
L29.8043 -8.07771
L29.3197 -8.1816
L28.8372 -8.29397
L28.3569 -8.41477
L27.8789 -8.54398
L27.4033 -8.68156
L26.9304 -8.82745
L26.4603 -8.98162
L25.993 -9.14402
L25.5288 -9.3146
L25.0678 -9.49331
L24.6101 -9.6801
L24.1559 -9.8749
L23.7053 -10.0777
L23.2585 -10.2883
L22.8155 -10.5068
L22.3765 -10.7331
L21.9417 -10.967
L21.5112 -11.2086
L21.0851 -11.4577
L20.6635 -11.7143
L20.2466 -11.9783
L19.8345 -12.2496
L19.4273 -12.5282
L19.0252 -12.8139
L18.6282 -13.1066
L18.2366 -13.4064
L17.8503 -13.713
L17.4696 -14.0264
L17.0945 -14.3465
L16.7252 -14.6732
L16.3617 -15.0064
L16.0042 -15.346
z
" id="C0_1_0cc619e7a9"/>
     <path d="
M7.59118 -35.1741
L7.7556 -35.5679
L7.92377 -35.9611
L8.09573 -36.3531
L8.27148 -36.7434
L8.45099 -37.1313
L8.63422 -37.5165
L8.82109 -37.8985
L9.01151 -38.277
L9.20539 -38.6516
L9.40261 -39.0221
L9.60304 -39.3882
L9.80657 -39.7496
L10.0131 -40.1064
L10.2224 -40.4582
L10.4343 -40.8051
L10.6489 -41.1468
L10.8658 -41.4833
L11.085 -41.8146
L11.3064 -42.1406
L11.5298 -42.4614
L11.7551 -42.7768
L11.9821 -43.087
L12.2108 -43.3919
L12.4411 -43.6916
L12.6728 -43.9861
L12.9058 -44.2754
L13.1401 -44.5597
L13.3756 -44.8389
L13.6122 -45.1132
L13.8497 -45.3825
L14.0882 -45.647
L14.3276 -45.9068
L14.5678 -46.1619
L14.8087 -46.4124
L15.0504 -46.6584
L15.2927 -46.8999
L15.5357 -47.1371
L15.7792 -47.3701
L16.0233 -47.5988
L16.2679 -47.8234
L16.513 -48.0441
L16.7586 -48.2608
L17.0047 -48.4736
L17.2512 -48.6826
L17.4982 -48.888
L17.7457 -49.0897
L17.9935 -49.2879
L18.2419 -49.4827
L18.4906 -49.674
L18.7398 -49.862
L18.9895 -50.0468
L19.2397 -50.2283
L19.4903 -50.4068
L19.7415 -50.5822
L19.9931 -50.7546
L20.2454 -50.9241
L20.4981 -51.0907
L20.7515 -51.2544
L21.0055 -51.4155
L21.2601 -51.5738
L21.5154 -51.7294
L21.7714 -51.8825
L22.0282 -52.0329
L22.2857 -52.1809
L22.544 -52.3264
L22.8032 -52.4694
L23.0633 -52.6101
L23.3243 -52.7483
L23.5862 -52.8843
L23.8492 -53.018
L24.1132 -53.1494
L24.3783 -53.2785
L24.6446 -53.4055
L24.912 -53.5302
L25.1807 -53.6528
L25.4506 -53.7733
L25.7219 -53.8916
L25.9946 -54.0078
L26.2687 -54.1219
L26.5443 -54.2339
L26.8215 -54.3439
L27.1002 -54.4517
L27.3806 -54.5575
L27.6627 -54.6613
L27.9466 -54.7629
L28.2323 -54.8625
L28.5198 -54.96
L28.8093 -55.0555
L29.1008 -55.1489
L29.3943 -55.2401
L29.69 -55.3293
L29.9878 -55.4163
L30.2878 -55.5011
L30.5901 -55.5838
L30.8947 -55.6643
L31.2017 -55.7426
L31.5112 -55.8186
L31.8232 -55.8923
L32.1377 -55.9638
L32.4549 -56.0328
L32.7747 -56.0995
L33.0973 -56.1637
L33.4226 -56.2255
L33.7508 -56.2847
L34.0818 -56.3414
L34.4158 -56.3954
L34.7527 -56.4467
L35.0926 -56.4953
L35.4356 -56.5411
L35.7816 -56.584
L36.1308 -56.624
L36.483 -56.661
L36.8384 -56.695
L37.197 -56.7258
L37.5588 -56.7534
L37.9237 -56.7778
L38.2918 -56.7988
L38.6631 -56.8165
L39.0375 -56.8306
L39.415 -56.8413
L39.7957 -56.8483
L40.1794 -56.8516
L40.5661 -56.8513
L40.9557 -56.8471
L41.3481 -56.8392
L41.7433 -56.8273
L42.1412 -56.8116
L42.5416 -56.792
L42.9444 -56.7684
L43.3494 -56.7409
L43.7566 -56.7094
L44.1656 -56.6741
L44.5763 -56.635
L44.9885 -56.5921
L45.402 -56.5456
L45.8163 -56.4955
L46.2314 -56.4422
L46.6467 -56.3856
L47.0621 -56.3262
L47.4771 -56.2641
L47.8913 -56.1998
L48.3044 -56.1336
L48.7158 -56.0659
L49.1251 -55.9972
L49.5318 -55.9282
L49.9353 -55.8594
L50.3351 -55.7916
L50.7306 -55.7255
L51.1212 -55.662
L51.5062 -55.6021
L51.885 -55.5465
L52.257 -55.4965
L52.6214 -55.4531
L52.9777 -55.4173
L53.3251 -55.3903
L53.663 -55.3732
L53.9908 -55.367
L54.3079 -55.3726
L54.6139 -55.391
L54.9083 -55.4229
L55.1906 -55.469
L55.4605 -55.5296
L55.7178 -55.6051
L55.9623 -55.6957
L55.9981 -55.8012
L55.6406 -56.3058
L55.2772 -56.6518
L54.9079 -56.9914
L54.5329 -57.3246
L54.1522 -57.6514
L53.766 -57.9715
L53.3743 -58.285
L52.9774 -58.5916
L52.5753 -58.8914
L52.1682 -59.1842
L51.7561 -59.47
L51.3392 -59.7486
L50.9177 -60.0199
L50.4916 -60.284
L50.0611 -60.5406
L49.6263 -60.7898
L49.1874 -61.0314
L48.7444 -61.2654
L48.2976 -61.4918
L47.847 -61.7103
L47.3928 -61.921
L46.9352 -62.1238
L46.4742 -62.3187
L46.01 -62.5055
L45.5428 -62.6843
L45.0726 -62.8549
L44.5997 -63.0173
L44.1242 -63.1716
L43.6462 -63.3175
L43.1659 -63.4551
L42.6834 -63.5844
L42.1989 -63.7053
L41.7124 -63.8177
L41.2243 -63.9216
L40.7345 -64.0171
L40.2433 -64.104
L39.7508 -64.1823
L39.2572 -64.2521
L38.7625 -64.3133
L38.2671 -64.3658
L37.7709 -64.4097
L37.2742 -64.4449
L36.7771 -64.4715
L36.2798 -64.4894
L35.7824 -64.4986
L35.285 -64.4992
L34.7879 -64.491
L34.2911 -64.4742
L33.7949 -64.4487
L33.2993 -64.4146
L32.8046 -64.3718
L32.3108 -64.3203
L31.8182 -64.2602
L31.3268 -64.1915
L30.8368 -64.1143
L30.3485 -64.0284
L29.8618 -63.934
L29.377 -63.8311
L28.8943 -63.7198
L28.4137 -63.6
L27.9354 -63.4718
L27.4595 -63.3352
L26.9863 -63.1903
L26.5158 -63.0371
L26.0482 -62.8756
L25.5836 -62.706
L25.1222 -62.5283
L24.6642 -62.3424
L24.2095 -62.1486
L23.7585 -61.9468
L23.3112 -61.737
L22.8677 -61.5195
L22.4283 -61.2941
L21.993 -61.0611
L21.5619 -60.8204
L21.1353 -60.5722
L20.7132 -60.3165
L20.2957 -60.0533
L19.883 -59.7829
L19.4753 -59.5052
L19.0725 -59.2203
L18.675 -58.9284
L18.2827 -58.6295
L17.8958 -58.3237
L17.5144 -58.0111
L17.1386 -57.6917
L16.7686 -57.3658
L16.4044 -57.0334
L16.0463 -56.6945
L15.6942 -56.3494
L15.3482 -55.9981
L15.0086 -55.6406
L14.6754 -55.2772
L14.3486 -54.9079
L14.0285 -54.5329
L13.715 -54.1522
L13.4084 -53.766
L13.1086 -53.3743
L12.8158 -52.9774
L12.53 -52.5753
L12.2514 -52.1682
L11.9801 -51.7561
L11.716 -51.3392
L11.4594 -50.9177
L11.2102 -50.4916
L10.9686 -50.0611
L10.7346 -49.6263
L10.5082 -49.1874
L10.2897 -48.7444
L10.079 -48.2976
L9.87619 -47.847
L9.68134 -47.3928
L9.4945 -46.9352
L9.31574 -46.4742
L9.14511 -46.01
L8.98265 -45.5428
L8.82843 -45.0726
L8.68248 -44.5997
L8.54485 -44.1242
L8.41559 -43.6462
L8.29473 -43.1659
L8.18231 -42.6834
L8.07836 -42.1989
L7.98291 -41.7124
L7.89601 -41.2243
L7.81766 -40.7345
L7.74789 -40.2433
L7.68674 -39.7508
L7.6342 -39.2572
L7.59031 -38.7625
L7.55507 -38.2671
L7.5285 -37.7709
L7.5106 -37.2742
L7.50137 -36.7771
L7.50083 -36.2798
z
" id="C0_2_ca86238d33"/>
    </defs>
    <g clip-path="url(#p1bffca34e9)">
     <use style="fill:#ff0000;stroke:#000000;stroke-width:2.0;" x="0.0" xlink:href="#C0_0_a811fe30f3" y="72.0"/>
    </g>
    <g clip-path="url(#p1bffca34e9)">
     <use style="fill:#ffffff;stroke:#000000;stroke-width:2.0;" x="0.0" xlink:href="#C0_1_0cc619e7a9" y="72.0"/>
    </g>
    <g clip-path="url(#p1bffca34e9)">
     <use style="fill:#ffffff;stroke:#000000;stroke-width:2.0;" x="0.0" xlink:href="#C0_2_ca86238d33" y="72.0"/>
    </g>
   </g>
  </g>
 </g>
 <defs>
  <clipPath id="p1bffca34e9">
   <rect height="72.0" width="72.0" x="0.0" y="0.0"/>
  </clipPath>
 </defs>
</svg>
