<?xml version="1.0" encoding="utf-8" standalone="no"?>
<!DOCTYPE svg PUBLIC "-//W3C//DTD SVG 1.1//EN"
  "http://www.w3.org/Graphics/SVG/1.1/DTD/svg11.dtd">
<!-- Created with matplotlib (http://matplotlib.org/) -->
<svg height="72pt" version="1.1" viewBox="0 0 72 72" width="72pt" xmlns="http://www.w3.org/2000/svg" xmlns:xlink="http://www.w3.org/1999/xlink">
 <defs>
  <style type="text/css">
*{stroke-linecap:butt;stroke-linejoin:round;}
  </style>
 </defs>
 <g id="figure_1">
  <g id="patch_1">
   <path d="
M0 72
L72 72
L72 0
L0 0
z
" style="fill:none;"/>
  </g>
  <g id="axes_1">
   <g id="PatchCollection_1">
    <defs>
     <path d="
M36 -7.5
C43.5583 -7.5 50.808 -10.5029 56.1525 -15.8475
C61.4971 -21.192 64.5 -28.4417 64.5 -36
C64.5 -43.5583 61.4971 -50.808 56.1525 -56.1525
C50.808 -61.4971 43.5583 -64.5 36 -64.5
C28.4417 -64.5 21.192 -61.4971 15.8475 -56.1525
C10.5029 -50.808 7.5 -43.5583 7.5 -36
C7.5 -28.4417 10.5029 -21.192 15.8475 -15.8475
C21.192 -10.5029 28.4417 -7.5 36 -7.5
z
" id="C0_0_a811fe30f3"/>
     <path d="
M40.5144 -64.0422
L40.4897 -63.7968
L40.4932 -63.5433
L40.5226 -63.282
L40.5758 -63.0135
L40.6503 -62.7383
L40.7436 -62.4567
L40.8536 -62.1692
L40.9778 -61.8762
L41.1141 -61.5782
L41.2606 -61.2754
L41.4155 -60.9684
L41.5772 -60.6574
L41.7443 -60.3429
L41.9153 -60.0252
L42.0894 -59.7046
L42.2654 -59.3814
L42.4425 -59.0561
L42.6199 -58.7288
L42.797 -58.4
L42.9733 -58.0697
L43.1482 -57.7385
L43.3214 -57.4064
L43.4925 -57.0737
L43.6612 -56.7407
L43.8274 -56.4075
L43.9907 -56.0744
L44.151 -55.7415
L44.3082 -55.4091
L44.4621 -55.0772
L44.6128 -54.7461
L44.7602 -54.4158
L44.9041 -54.0866
L45.0446 -53.7584
L45.1817 -53.4314
L45.3154 -53.1057
L45.4457 -52.7814
L45.5727 -52.4586
L45.6962 -52.1372
L45.8165 -51.8175
L45.9335 -51.4993
L46.0472 -51.1828
L46.1578 -50.868
L46.2653 -50.5549
L46.3698 -50.2436
L46.4712 -49.9339
L46.5697 -49.6261
L46.6653 -49.3199
L46.7581 -49.0156
L46.8481 -48.7129
L46.9355 -48.412
L47.0202 -48.1128
L47.1023 -47.8153
L47.1819 -47.5195
L47.259 -47.2253
L47.3338 -46.9328
L47.4062 -46.6418
L47.4762 -46.3524
L47.5441 -46.0644
L47.6097 -45.778
L47.6733 -45.493
L47.7347 -45.2093
L47.794 -44.9271
L47.8514 -44.6461
L47.9068 -44.3664
L47.9603 -44.0879
L48.012 -43.8105
L48.0618 -43.5343
L48.1097 -43.2591
L48.156 -42.9849
L48.2005 -42.7117
L48.2433 -42.4393
L48.2844 -42.1679
L48.3239 -41.8972
L48.3618 -41.6272
L48.3981 -41.358
L48.4328 -41.0893
L48.466 -40.8213
L48.4977 -40.5537
L48.5279 -40.2866
L48.5566 -40.0199
L48.5838 -39.7536
L48.6096 -39.4876
L48.634 -39.2217
L48.6569 -38.9561
L48.6784 -38.6906
L48.6986 -38.4251
L48.7346 -38.1596
L48.7506 -37.8941
L48.7652 -37.6284
L48.7784 -37.3626
L48.7902 -37.0966
L48.8006 -36.8302
L48.8097 -36.5635
L48.8174 -36.2964
L48.8237 -36.0288
L48.8286 -35.7607
L48.8321 -35.492
L48.8342 -35.2226
L48.8349 -34.9525
L48.8341 -34.6817
L48.8319 -34.41
L48.8282 -34.1375
L48.823 -33.864
L48.8163 -33.5895
L48.8081 -33.314
L48.7984 -33.0373
L48.7871 -32.7594
L48.7742 -32.4804
L48.7596 -32.2
L48.7435 -31.9182
L48.7256 -31.6351
L48.706 -31.3505
L48.6847 -31.0644
L48.6617 -30.7767
L48.6368 -30.4873
L48.61 -30.1963
L48.5814 -29.9036
L48.5508 -29.6091
L48.5182 -29.3127
L48.4837 -29.0145
L48.447 -28.7143
L48.4082 -28.4122
L48.3673 -28.1081
L48.3242 -27.8019
L48.2787 -27.4936
L48.231 -27.1832
L48.1809 -26.8707
L48.1284 -26.556
L48.0733 -26.2391
L48.0158 -25.92
L47.9556 -25.5986
L47.8928 -25.275
L47.8273 -24.9492
L47.7591 -24.6211
L47.688 -24.2907
L47.6141 -23.9582
L47.5373 -23.6234
L47.4576 -23.2865
L47.3748 -22.9474
L47.2891 -22.6062
L47.2003 -22.2629
L47.1085 -21.9177
L47.0136 -21.5706
L46.9157 -21.2217
L46.8146 -20.871
L46.7106 -20.5187
L46.6036 -20.1649
L46.4937 -19.8098
L46.3809 -19.4534
L46.2654 -19.096
L46.1474 -18.7378
L46.0269 -18.3788
L45.9043 -18.0195
L45.7797 -17.6599
L45.6535 -17.3004
L45.526 -16.9412
L45.3977 -16.5826
L45.269 -16.2249
L45.1406 -15.8685
L45.0131 -15.5138
L44.8873 -15.1611
L44.764 -14.8109
L44.6444 -14.4636
L44.5296 -14.1197
L44.4208 -13.7797
L44.3195 -13.4441
L44.2274 -13.1135
L44.1463 -12.7886
L44.0781 -12.47
L44.0247 -12.1583
L43.9885 -11.8543
L43.9715 -11.5586
L43.9759 -11.272
L44.0038 -10.9953
L44.0569 -10.7292
L44.137 -10.4743
L44.2451 -10.2314
L44.382 -10.0011
L44.5481 -9.78389
L44.7432 -9.58031
L44.9668 -9.39077
L45.2178 -9.2156
L45.6941 -9.05506
L46.1604 -9.19936
L46.6235 -9.37263
L47.0835 -9.55401
L47.54 -9.74344
L47.9931 -9.94087
L48.4424 -10.1462
L48.888 -10.3595
L49.3297 -10.5805
L49.7673 -10.8093
L50.2007 -11.0458
L50.6298 -11.2899
L51.0544 -11.5415
L51.4745 -11.8005
L51.8898 -12.067
L52.3003 -12.3407
L52.7058 -12.6216
L53.1063 -12.9096
L53.5015 -13.2047
L53.8914 -13.5067
L54.2758 -13.8156
L54.6547 -14.1312
L55.0279 -14.4535
L55.3953 -14.7824
L55.7568 -15.1177
L56.1123 -15.4593
L56.4616 -15.8073
L56.8048 -16.1614
L57.1415 -16.5215
L57.4719 -16.8876
L57.7957 -17.2594
L58.1128 -17.637
L58.4232 -18.0202
L58.7268 -18.4089
L59.0235 -18.8029
L59.3132 -19.2021
L59.5957 -19.6065
L59.8711 -20.0159
L60.1392 -20.4301
L60.3999 -20.8491
L60.6532 -21.2727
L60.899 -21.7008
L61.1373 -22.1332
L61.3678 -22.5699
L61.5906 -23.0106
L61.8057 -23.4553
L62.0129 -23.9039
L62.2121 -24.3561
L62.4034 -24.8118
L62.5866 -25.271
L62.7617 -25.7334
L62.9287 -26.199
L63.0875 -26.6676
L63.238 -27.1389
L63.3802 -27.613
L63.5141 -28.0897
L63.6396 -28.5687
L63.7567 -29.0501
L63.8653 -29.5335
L63.9655 -30.0189
L64.0571 -30.5061
L64.1402 -30.995
L64.2147 -31.4855
L64.2806 -31.9773
L64.3379 -32.4703
L64.3865 -32.9644
L64.4266 -33.4594
L64.4579 -33.9552
L64.4806 -34.4516
L64.4946 -34.9485
L64.4999 -35.4457
L64.4966 -35.9431
L64.4846 -36.4405
L64.4639 -36.9378
L64.4345 -37.4348
L64.3964 -37.9313
L64.3498 -38.4273
L64.2944 -38.9225
L64.2305 -39.4168
L64.158 -39.9101
L64.0768 -40.4022
L63.9872 -40.893
L63.889 -41.3822
L63.7823 -41.8698
L63.6671 -42.3557
L63.5436 -42.8396
L63.4116 -43.3214
L63.2713 -43.801
L63.1226 -44.2782
L62.9657 -44.7529
L62.8006 -45.2249
L62.6274 -45.6941
L62.446 -46.1604
L62.2566 -46.6235
L62.0591 -47.0835
L61.8538 -47.54
L61.6405 -47.9931
L61.4195 -48.4424
L61.1907 -48.888
L60.9542 -49.3297
L60.7101 -49.7673
L60.4585 -50.2007
L60.1995 -50.6298
L59.933 -51.0544
L59.6593 -51.4745
L59.3784 -51.8898
L59.0904 -52.3003
L58.7953 -52.7058
L58.4933 -53.1063
L58.1844 -53.5015
L57.8688 -53.8914
L57.5465 -54.2758
L57.2176 -54.6547
L56.8823 -55.0279
L56.5407 -55.3953
L56.1927 -55.7568
L55.8386 -56.1123
L55.4785 -56.4616
L55.1124 -56.8048
L54.7406 -57.1415
L54.363 -57.4719
L53.9798 -57.7957
L53.5911 -58.1128
L53.1971 -58.4232
L52.7979 -58.7268
L52.3935 -59.0235
L51.9841 -59.3132
L51.5699 -59.5957
L51.1509 -59.8711
L50.7273 -60.1392
L50.2992 -60.3999
L49.8668 -60.6532
L49.4301 -60.899
L48.9894 -61.1373
L48.5447 -61.3678
L48.0961 -61.5906
L47.6439 -61.8057
L47.1882 -62.0129
L46.729 -62.2121
L46.2666 -62.4034
L45.801 -62.5866
L45.3324 -62.7617
L44.8611 -62.9287
L44.387 -63.0875
L43.9103 -63.238
L43.4313 -63.3802
L42.9499 -63.5141
L42.4665 -63.6396
L41.9811 -63.7567
L41.4939 -63.8653
z
" id="C0_1_b9c2fde061"/>
     <path d="
M26.642 -62.6996
L26.497 -62.4047
L26.3353 -62.1023
L26.1595 -61.7927
L25.9718 -61.4765
L25.7744 -61.1542
L25.5693 -60.8261
L25.3583 -60.4928
L25.143 -60.1546
L24.9249 -59.8121
L24.7052 -59.4657
L24.4851 -59.1157
L24.2655 -58.7626
L24.0473 -58.4068
L23.8312 -58.0487
L23.6178 -57.6886
L23.4077 -57.3268
L23.2012 -56.9637
L22.9987 -56.5996
L22.8006 -56.2349
L22.607 -55.8696
L22.4182 -55.5042
L22.2343 -55.1389
L22.0555 -54.7739
L21.8817 -54.4094
L21.7131 -54.0456
L21.5497 -53.6827
L21.3914 -53.3208
L21.2383 -52.9601
L21.0903 -52.6008
L20.9474 -52.2429
L20.8095 -51.8865
L20.6766 -51.5319
L20.5486 -51.179
L20.4254 -50.8279
L20.3069 -50.4788
L20.193 -50.1316
L20.0836 -49.7864
L19.9787 -49.4432
L19.8781 -49.1021
L19.7818 -48.7631
L19.6897 -48.4263
L19.6015 -48.0915
L19.5174 -47.7589
L19.4371 -47.4284
L19.3605 -47.1
L19.2876 -46.7737
L19.2184 -46.4496
L19.1526 -46.1274
L19.0902 -45.8074
L19.0311 -45.4893
L18.9753 -45.1732
L18.9226 -44.8591
L18.8731 -44.5469
L18.8265 -44.2365
L18.7829 -43.928
L18.7422 -43.6213
L18.7042 -43.3163
L18.6691 -43.013
L18.6366 -42.7114
L18.6067 -42.4113
L18.5795 -42.1128
L18.5547 -41.8157
L18.5325 -41.5201
L18.5126 -41.2259
L18.4952 -40.933
L18.4801 -40.6414
L18.4673 -40.351
L18.4568 -40.0617
L18.4486 -39.7736
L18.4425 -39.4865
L18.4387 -39.2003
L18.4369 -38.9151
L18.4374 -38.6308
L18.4399 -38.3472
L18.4445 -38.0645
L18.4512 -37.7824
L18.46 -37.5009
L18.4708 -37.22
L18.4837 -36.9396
L18.4986 -36.6597
L18.5155 -36.3802
L18.5345 -36.101
L18.5554 -35.822
L18.5784 -35.5433
L18.6035 -35.2648
L18.6305 -34.9864
L18.6596 -34.708
L18.6907 -34.4296
L18.7239 -34.1511
L18.7592 -33.8725
L18.7966 -33.5937
L18.836 -33.3147
L18.8776 -33.0354
L18.9214 -32.7557
L18.9673 -32.4756
L19.0154 -32.195
L19.0658 -31.9139
L19.1184 -31.6323
L19.1733 -31.35
L19.2305 -31.067
L19.2901 -30.7833
L19.3521 -30.4988
L19.4165 -30.2135
L19.4834 -29.9272
L19.5529 -29.6401
L19.625 -29.3519
L19.6997 -29.0628
L19.7771 -28.7725
L19.8572 -28.4811
L19.9402 -28.1885
L20.026 -27.8948
L20.1147 -27.5997
L20.2065 -27.3034
L20.3013 -27.0058
L20.3992 -26.7068
L20.5004 -26.4064
L20.6048 -26.1046
L20.7126 -25.8013
L20.8238 -25.4965
L20.9385 -25.1903
L21.0569 -24.8826
L21.1789 -24.5733
L21.3046 -24.2625
L21.4342 -23.9501
L21.5678 -23.6362
L21.7054 -23.3208
L21.847 -23.0038
L21.9929 -22.6854
L22.1431 -22.3654
L22.2976 -22.0439
L22.4565 -21.7211
L22.62 -21.3968
L22.7881 -21.0712
L22.9609 -20.7443
L23.1384 -20.4162
L23.3208 -20.0869
L23.508 -19.7565
L23.7002 -19.4252
L23.8972 -19.0929
L24.0993 -18.7599
L24.3064 -18.4263
L24.5185 -18.0921
L24.7355 -17.7575
L24.9575 -17.4227
L25.1844 -17.0878
L25.4161 -16.753
L25.6524 -16.4184
L25.8932 -16.0844
L26.1384 -15.751
L26.3877 -15.4184
L26.6408 -15.087
L26.8973 -14.7569
L27.157 -14.4284
L27.4192 -14.1016
L27.6834 -13.7769
L27.949 -13.4544
L28.2153 -13.1344
L28.4814 -12.8172
L28.7462 -12.503
L29.0088 -12.1919
L29.2677 -11.8843
L29.5217 -11.5803
L29.7691 -11.28
L30.0081 -10.9837
L30.2369 -10.6914
L30.4533 -10.4033
L30.6551 -10.1195
L30.8401 -9.83999
L31.0058 -9.56488
L31.15 -9.2942
L31.2704 -9.028
L31.3649 -8.76632
L31.4318 -8.50927
L31.4697 -8.25694
L30.9639 -8.00949
L30.4751 -7.94849
L29.9879 -8.04065
L29.5027 -8.14134
L29.0194 -8.2505
L28.5382 -8.36812
L28.0593 -8.49416
L27.5828 -8.62858
L27.1089 -8.77133
L26.6376 -8.92238
L26.1693 -9.08167
L25.7039 -9.24917
L25.2417 -9.42481
L24.7827 -9.60855
L24.3272 -9.80033
L23.8752 -10.0001
L23.4269 -10.2078
L22.9824 -10.4233
L22.542 -10.6466
L22.1056 -10.8777
L21.6734 -11.1164
L21.2456 -11.3627
L20.8223 -11.6164
L20.4036 -11.8777
L19.9897 -12.1462
L19.5806 -12.4221
L19.1766 -12.7051
L18.7776 -12.9952
L18.384 -13.2923
L17.9957 -13.5963
L17.6128 -13.9072
L17.2356 -14.2247
L16.8641 -14.549
L16.4984 -14.8797
L16.1386 -15.2169
L15.785 -15.5604
L15.4374 -15.9102
L15.0961 -16.266
L14.7612 -16.6279
L14.4328 -16.9957
L14.1109 -17.3692
L13.7957 -17.7485
L13.4873 -18.1333
L13.1857 -18.5235
L12.8911 -18.9191
L12.6035 -19.3198
L12.323 -19.7257
L12.0498 -20.1365
L11.7838 -20.5521
L11.5253 -20.9725
L11.2741 -21.3974
L11.0305 -21.8267
L10.7946 -22.2604
L10.5662 -22.6983
L10.3457 -23.1402
L10.1329 -23.5861
L9.92807 -24.0357
L9.73115 -24.4889
L9.54222 -24.9457
L9.36136 -25.4059
L9.18861 -25.8692
L9.02403 -26.3357
L8.86766 -26.8051
L8.71956 -27.2773
L8.57977 -27.7521
L8.44833 -28.2295
L8.32529 -28.7092
L8.21067 -29.1912
L8.10452 -29.6752
L8.00687 -30.1611
L7.91774 -30.6489
L7.83717 -31.1382
L7.76517 -31.6291
L7.70178 -32.1213
L7.64701 -32.6146
L7.60087 -33.109
L7.56339 -33.6043
L7.53456 -34.1003
L7.51441 -34.5968
L7.50293 -35.0938
L7.50014 -35.5911
L7.50602 -36.0885
L7.52059 -36.5859
L7.54383 -37.0831
L7.57574 -37.58
L7.6163 -38.0764
L7.66552 -38.5721
L7.72336 -39.0671
L7.78982 -39.5611
L7.86487 -40.0541
L7.94849 -40.5458
L8.04065 -41.0361
L8.14134 -41.5249
L8.2505 -42.0121
L8.36812 -42.4973
L8.49416 -42.9806
L8.62858 -43.4618
L8.77133 -43.9407
L8.92238 -44.4172
L9.08167 -44.8911
L9.24917 -45.3624
L9.42481 -45.8307
L9.60855 -46.2961
L9.80033 -46.7583
L10.0001 -47.2173
L10.2078 -47.6728
L10.4233 -48.1248
L10.6466 -48.5731
L10.8777 -49.0176
L11.1164 -49.458
L11.3627 -49.8944
L11.6164 -50.3266
L11.8777 -50.7544
L12.1462 -51.1777
L12.4221 -51.5964
L12.7051 -52.0103
L12.9952 -52.4194
L13.2923 -52.8234
L13.5963 -53.2224
L13.9072 -53.616
L14.2247 -54.0043
L14.549 -54.3872
L14.8797 -54.7644
L15.2169 -55.1359
L15.5604 -55.5016
L15.9102 -55.8614
L16.266 -56.215
L16.6279 -56.5626
L16.9957 -56.9039
L17.3692 -57.2388
L17.7485 -57.5672
L18.1333 -57.8891
L18.5235 -58.2043
L18.9191 -58.5127
L19.3198 -58.8143
L19.7257 -59.1089
L20.1365 -59.3965
L20.5521 -59.677
L20.9725 -59.9502
L21.3974 -60.2162
L21.8267 -60.4747
L22.2604 -60.7259
L22.6983 -60.9695
L23.1402 -61.2054
L23.5861 -61.4338
L24.0357 -61.6543
L24.4889 -61.8671
L24.9457 -62.0719
L25.4059 -62.2689
L25.8692 -62.4578
z
" id="C0_2_96fa107696"/>
    </defs>
    <g clip-path="url(#p1bffca34e9)">
     <use style="fill:#ff0000;stroke:#000000;stroke-width:2.0;" x="0.0" xlink:href="#C0_0_a811fe30f3" y="72.0"/>
    </g>
    <g clip-path="url(#p1bffca34e9)">
     <use style="fill:#ffffff;stroke:#000000;stroke-width:2.0;" x="0.0" xlink:href="#C0_1_b9c2fde061" y="72.0"/>
    </g>
    <g clip-path="url(#p1bffca34e9)">
     <use style="fill:#ffffff;stroke:#000000;stroke-width:2.0;" x="0.0" xlink:href="#C0_2_96fa107696" y="72.0"/>
    </g>
   </g>
  </g>
 </g>
 <defs>
  <clipPath id="p1bffca34e9">
   <rect height="72.0" width="72.0" x="0.0" y="0.0"/>
  </clipPath>
 </defs>
</svg>
