<?xml version="1.0" encoding="utf-8" standalone="no"?>
<!DOCTYPE svg PUBLIC "-//W3C//DTD SVG 1.1//EN"
  "http://www.w3.org/Graphics/SVG/1.1/DTD/svg11.dtd">
<!-- Created with matplotlib (http://matplotlib.org/) -->
<svg height="72pt" version="1.1" viewBox="0 0 72 72" width="72pt" xmlns="http://www.w3.org/2000/svg" xmlns:xlink="http://www.w3.org/1999/xlink">
 <defs>
  <style type="text/css">
*{stroke-linecap:butt;stroke-linejoin:round;}
  </style>
 </defs>
 <g id="figure_1">
  <g id="patch_1">
   <path d="
M0 72
L72 72
L72 0
L0 0
z
" style="fill:none;"/>
  </g>
  <g id="axes_1">
   <g id="PatchCollection_1">
    <defs>
     <path d="
M36 -7.5
C43.5583 -7.5 50.808 -10.5029 56.1525 -15.8475
C61.4971 -21.192 64.5 -28.4417 64.5 -36
C64.5 -43.5583 61.4971 -50.808 56.1525 -56.1525
C50.808 -61.4971 43.5583 -64.5 36 -64.5
C28.4417 -64.5 21.192 -61.4971 15.8475 -56.1525
C10.5029 -50.808 7.5 -43.5583 7.5 -36
C7.5 -28.4417 10.5029 -21.192 15.8475 -15.8475
C21.192 -10.5029 28.4417 -7.5 36 -7.5
z
" id="C0_0_a811fe30f3"/>
     <path d="
M47.0111 -62.2219
L46.6648 -62.1474
L46.3561 -62.0406
L46.0855 -61.9022
L45.8523 -61.7338
L45.6543 -61.5374
L45.4885 -61.3156
L45.3512 -61.0712
L45.2386 -60.807
L45.147 -60.5256
L45.0727 -60.2295
L45.0128 -59.9209
L44.9646 -59.6017
L44.9256 -59.2735
L44.894 -58.938
L44.8682 -58.5962
L44.8467 -58.2493
L44.8287 -57.8982
L44.813 -57.5439
L44.7991 -57.1869
L44.7862 -56.8279
L44.774 -56.4675
L44.7619 -56.1062
L44.7497 -55.7445
L44.7372 -55.3827
L44.7241 -55.0211
L44.7102 -54.6602
L44.6955 -54.3002
L44.6798 -53.9413
L44.663 -53.5838
L44.6452 -53.2278
L44.6263 -52.8736
L44.6062 -52.5214
L44.585 -52.1711
L44.5627 -51.8231
L44.5392 -51.4773
L44.5146 -51.134
L44.4888 -50.793
L44.462 -50.4546
L44.4342 -50.1188
L44.4053 -49.7856
L44.3754 -49.4551
L44.3445 -49.1272
L44.3127 -48.802
L44.28 -48.4795
L44.2464 -48.1598
L44.212 -47.8427
L44.1767 -47.5283
L44.1407 -47.2166
L44.1039 -46.9075
L44.0663 -46.601
L44.028 -46.2971
L43.9891 -45.9958
L43.9495 -45.6969
L43.9092 -45.4006
L43.8684 -45.1066
L43.8269 -44.815
L43.7848 -44.5258
L43.7422 -44.2388
L43.699 -43.954
L43.6553 -43.6714
L43.6111 -43.3909
L43.5664 -43.1124
L43.5211 -42.8359
L43.4754 -42.5614
L43.4292 -42.2887
L43.3825 -42.0178
L43.3353 -41.7486
L43.2877 -41.4812
L43.2396 -41.2153
L43.1911 -40.9511
L43.1421 -40.6883
L43.0926 -40.4269
L43.0427 -40.1669
L42.9924 -39.9082
L42.9416 -39.6507
L42.8903 -39.3944
L42.8386 -39.1392
L42.7864 -38.8851
L42.7338 -38.6319
L42.6807 -38.3797
L42.6271 -38.1283
L42.573 -37.8778
L42.5184 -37.6279
L42.4634 -37.3787
L42.4078 -37.1302
L42.3517 -36.8821
L42.2951 -36.6346
L42.2379 -36.3875
L42.1802 -36.1407
L42.122 -35.8943
L42.0037 -35.6481
L41.9436 -35.402
L41.883 -35.1561
L41.8217 -34.9102
L41.7597 -34.6643
L41.6971 -34.4184
L41.6338 -34.1723
L41.5698 -33.9261
L41.5051 -33.6795
L41.4396 -33.4327
L41.3734 -33.1855
L41.3064 -32.9379
L41.2386 -32.6898
L41.1699 -32.4411
L41.1004 -32.1919
L41.03 -31.9419
L40.9587 -31.6913
L40.8865 -31.4398
L40.8134 -31.1875
L40.7392 -30.9343
L40.6641 -30.6802
L40.5879 -30.425
L40.5106 -30.1687
L40.4323 -29.9113
L40.3528 -29.6527
L40.2721 -29.3928
L40.1903 -29.1317
L40.1072 -28.8691
L40.0229 -28.6052
L39.9373 -28.3398
L39.8504 -28.0728
L39.7621 -27.8043
L39.6723 -27.5341
L39.5812 -27.2623
L39.4886 -26.9887
L39.3944 -26.7133
L39.2988 -26.4362
L39.2015 -26.1571
L39.1026 -25.8762
L39.002 -25.5932
L38.8997 -25.3084
L38.7957 -25.0215
L38.6899 -24.7325
L38.5823 -24.4415
L38.4728 -24.1483
L38.3614 -23.853
L38.2481 -23.5556
L38.1329 -23.2561
L38.0156 -22.9544
L37.8964 -22.6505
L37.7751 -22.3444
L37.6517 -22.0362
L37.5262 -21.7259
L37.3986 -21.4135
L37.269 -21.099
L37.1372 -20.7824
L37.0033 -20.4639
L36.8673 -20.1434
L36.7292 -19.821
L36.589 -19.4969
L36.4469 -19.171
L36.3028 -18.8435
L36.1568 -18.5145
L36.0091 -18.1841
L35.8597 -17.8524
L35.7087 -17.5196
L35.5564 -17.1858
L35.4029 -16.8512
L35.2485 -16.516
L35.0935 -16.1804
L34.9381 -15.8445
L34.7829 -15.5087
L34.6282 -15.1731
L34.4747 -14.838
L34.323 -14.5037
L34.1739 -14.1704
L34.0284 -13.8385
L33.8877 -13.5082
L33.7531 -13.18
L33.6262 -12.8542
L33.509 -12.5312
L33.4038 -12.2113
L33.3133 -11.8951
L33.2407 -11.583
L33.1896 -11.2756
L33.1641 -10.9735
L33.1685 -10.6773
L33.2075 -10.3877
L33.2851 -10.1055
L33.4053 -9.83158
L33.5706 -9.56681
L33.7824 -9.31213
L34.0405 -9.06844
L34.3433 -8.83659
L34.688 -8.61737
L35.071 -8.41146
L35.4881 -8.21944
L35.9354 -8.04178
L36.4087 -7.87885
L36.9044 -7.73094
L37.4041 -7.59827
L37.9007 -7.53461
L38.3967 -7.56345
L38.8919 -7.60095
L39.3863 -7.6471
L39.8797 -7.70189
L40.3719 -7.7653
L40.8627 -7.83731
L41.3521 -7.9179
L41.8398 -8.00705
L42.3257 -8.10472
L42.8098 -8.21088
L43.2917 -8.32551
L43.7714 -8.44858
L44.2488 -8.58003
L44.7236 -8.71984
L45.1958 -8.86795
L45.6652 -9.02433
L46.1317 -9.18893
L46.595 -9.3617
L47.0552 -9.54258
L47.5119 -9.73151
L47.9652 -9.92845
L48.4148 -10.1333
L48.8606 -10.3461
L49.3025 -10.5667
L49.7404 -10.795
L50.1741 -11.031
L50.6034 -11.2746
L51.0284 -11.5257
L51.4487 -11.7843
L51.8643 -12.0503
L52.2751 -12.3236
L52.6809 -12.604
L53.0817 -12.8916
L53.4773 -13.1863
L53.8675 -13.4879
L54.2523 -13.7963
L54.6315 -14.1115
L55.005 -14.4334
L55.3728 -14.7619
L55.7347 -15.0968
L56.0905 -15.4381
L56.4402 -15.7856
L56.7838 -16.1393
L57.1209 -16.4991
L57.4517 -16.8648
L57.7759 -17.2363
L58.0934 -17.6135
L58.4043 -17.9964
L58.7083 -18.3847
L59.0054 -18.7784
L59.2955 -19.1773
L59.5785 -19.5814
L59.8543 -19.9905
L60.1228 -20.4044
L60.384 -20.8231
L60.6378 -21.2464
L60.8841 -21.6742
L61.1228 -22.1064
L61.3538 -22.5428
L61.5771 -22.9833
L61.7926 -23.4278
L62.0003 -23.8761
L62.2 -24.328
L62.3918 -24.7836
L62.5755 -25.2426
L62.7512 -25.7048
L62.9186 -26.1702
L63.0779 -26.6385
L63.229 -27.1098
L63.3717 -27.5837
L63.5061 -28.0602
L63.6321 -28.5391
L63.7497 -29.0203
L63.8589 -29.5036
L63.9595 -29.9889
L64.0517 -30.476
L64.1353 -30.9648
L64.2103 -31.4551
L64.2768 -31.9469
L64.3346 -32.4398
L64.3838 -32.9339
L64.4243 -33.4288
L64.4562 -33.9246
L64.4794 -34.421
L64.494 -34.9178
L64.4999 -35.415
L64.4971 -35.9124
L64.4856 -36.4098
L64.4654 -36.9071
L64.4366 -37.4041
L64.399 -37.9007
L64.3529 -38.3967
L64.2981 -38.8919
L64.2347 -39.3863
L64.1627 -39.8797
L64.0821 -40.3719
L63.993 -40.8627
L63.8953 -41.3521
L63.7891 -41.8398
L63.6745 -42.3257
L63.5514 -42.8098
L63.42 -43.2917
L63.2802 -43.7714
L63.132 -44.2488
L62.9757 -44.7236
L62.8111 -45.1958
L62.6383 -45.6652
L62.4574 -46.1317
L62.2685 -46.595
L62.0715 -47.0552
L61.8667 -47.5119
L61.6539 -47.9652
L61.4333 -48.4148
L61.205 -48.8606
L60.969 -49.3025
L60.7254 -49.7404
L60.4743 -50.1741
L60.2157 -50.6034
L59.9497 -51.0284
L59.6764 -51.4487
L59.396 -51.8643
L59.1084 -52.2751
L58.8137 -52.6809
L58.5121 -53.0817
L58.2037 -53.4773
L57.8885 -53.8675
L57.5666 -54.2523
L57.2381 -54.6315
L56.9032 -55.005
L56.5619 -55.3728
L56.2144 -55.7347
L55.8607 -56.0905
L55.5009 -56.4402
L55.1352 -56.7838
L54.7637 -57.1209
L54.3865 -57.4517
L54.0036 -57.7759
L53.6153 -58.0934
L53.2216 -58.4043
L52.8227 -58.7083
L52.4186 -59.0054
L52.0095 -59.2955
L51.5956 -59.5785
L51.1769 -59.8543
L50.7536 -60.1228
L50.3258 -60.384
L49.8936 -60.6378
L49.4572 -60.8841
L49.0167 -61.1228
L48.5722 -61.3538
L48.1239 -61.5771
L47.672 -61.7926
z
" id="C0_1_76a816105c"/>
     <path d="
M34.5863 -64.4104
L34.0757 -64.2461
L33.5612 -64.0754
L33.0447 -63.898
L32.5282 -63.7134
L32.0132 -63.5215
L31.5011 -63.3223
L30.9929 -63.1157
L30.4898 -62.902
L29.9924 -62.6812
L29.5014 -62.4535
L29.0176 -62.2193
L28.5412 -61.9789
L28.0728 -61.7324
L27.6127 -61.4804
L27.1611 -61.2229
L26.7182 -60.9605
L26.2842 -60.6934
L25.8591 -60.422
L25.4432 -60.1465
L25.0363 -59.8674
L24.6386 -59.5848
L24.25 -59.2991
L23.8704 -59.0105
L23.4998 -58.7194
L23.1381 -58.426
L22.7852 -58.1305
L22.441 -57.8332
L22.1054 -57.5342
L21.7782 -57.2338
L21.4594 -56.9322
L21.1487 -56.6295
L20.846 -56.326
L20.5512 -56.0217
L20.2641 -55.7168
L19.9845 -55.4115
L19.7123 -55.1058
L19.4473 -54.7998
L19.1894 -54.4938
L18.9383 -54.1876
L18.694 -53.8815
L18.4562 -53.5756
L18.2249 -53.2697
L17.9998 -52.9641
L17.7809 -52.6588
L17.5679 -52.3537
L17.3607 -52.049
L17.1591 -51.7447
L16.9632 -51.4407
L16.7726 -51.1372
L16.5872 -50.834
L16.4071 -50.5313
L16.2319 -50.229
L16.0616 -49.9271
L15.8961 -49.6257
L15.7353 -49.3246
L15.5791 -49.0239
L15.4273 -48.7236
L15.2798 -48.4236
L15.1367 -48.124
L14.9977 -47.8246
L14.8628 -47.5256
L14.7318 -47.2267
L14.6048 -46.9281
L14.4817 -46.6296
L14.3623 -46.3313
L14.2466 -46.0331
L14.1346 -45.7349
L14.0261 -45.4367
L13.9211 -45.1385
L13.8196 -44.8402
L13.7216 -44.5418
L13.6269 -44.2431
L13.5355 -43.9443
L13.4474 -43.6452
L13.3625 -43.3458
L13.2808 -43.0459
L13.2024 -42.7457
L13.127 -42.4449
L13.0548 -42.1436
L12.9858 -41.8417
L12.9198 -41.5391
L12.8569 -41.2358
L12.7971 -40.9317
L12.7403 -40.6268
L12.6866 -40.321
L12.636 -40.0142
L12.5885 -39.7064
L12.544 -39.3975
L12.5026 -39.0875
L12.4643 -38.7762
L12.4291 -38.4637
L12.3971 -38.1499
L12.3683 -37.8346
L12.3426 -37.5179
L12.3202 -37.1996
L12.3011 -36.8798
L12.2852 -36.5583
L12.2728 -36.2351
L12.2637 -35.9101
L12.2581 -35.5832
L12.256 -35.2545
L12.2575 -34.9237
L12.2626 -34.5909
L12.2715 -34.2561
L12.2841 -33.919
L12.3007 -33.5798
L12.3211 -33.2383
L12.3457 -32.8944
L12.3743 -32.5482
L12.4072 -32.1995
L12.4445 -31.8483
L12.4862 -31.4946
L12.5325 -31.1383
L12.5835 -30.7794
L12.6393 -30.4178
L12.7 -30.0535
L12.7658 -29.6865
L12.8369 -29.3167
L12.9133 -28.9441
L12.9952 -28.5687
L13.0828 -28.1905
L13.1763 -27.8095
L13.2758 -27.4256
L13.3814 -27.039
L13.4934 -26.6495
L13.6119 -26.2573
L13.7371 -25.8623
L13.8692 -25.4647
L14.0084 -25.0644
L14.1549 -24.6615
L14.3088 -24.2562
L14.4704 -23.8484
L14.6398 -23.4383
L14.8172 -23.0261
L15.0028 -22.6118
L15.1969 -22.1956
L15.3994 -21.7777
L15.6107 -21.3582
L15.8308 -20.9374
L16.06 -20.5154
L16.2983 -20.0926
L16.5458 -19.6691
L16.8026 -19.2452
L17.0688 -18.8213
L17.3444 -18.3977
L17.6293 -17.9746
L17.9236 -17.5525
L18.227 -17.1317
L18.5395 -16.7126
L18.8608 -16.2957
L19.1906 -15.8814
L19.5285 -15.47
L19.8739 -15.0621
L20.2262 -14.6582
L20.5846 -14.2587
L20.9481 -13.8641
L21.3156 -13.4749
L21.6855 -13.0915
L22.0563 -12.7145
L22.4257 -12.3443
L22.7913 -11.9813
L23.1502 -11.6258
L23.499 -11.2784
L23.8339 -10.9391
L24.1504 -10.6084
L24.4439 -10.2861
L24.2035 -9.97252
L23.7525 -10.056
L23.3052 -10.2658
L22.8618 -10.4835
L22.4224 -10.7089
L21.9872 -10.9421
L21.5562 -11.1828
L21.1296 -11.4312
L20.7076 -11.687
L20.2902 -11.9502
L19.8776 -12.2208
L19.4699 -12.4986
L19.0672 -12.7835
L18.6697 -13.0756
L18.2775 -13.3746
L17.8906 -13.6805
L17.5093 -13.9932
L17.1336 -14.3126
L16.7637 -14.6386
L16.3996 -14.9711
L16.0415 -15.31
L15.6895 -15.6552
L15.3437 -16.0067
L15.0041 -16.3642
L14.671 -16.7277
L14.3443 -17.097
L14.0242 -17.4722
L13.7109 -17.8529
L13.4043 -18.2392
L13.1046 -18.6309
L12.8119 -19.0279
L12.5262 -19.4301
L12.2477 -19.8373
L11.9765 -20.2494
L11.7125 -20.6664
L11.456 -21.088
L11.2069 -21.5141
L10.9654 -21.9447
L10.7315 -22.3795
L10.5053 -22.8185
L10.2868 -23.2615
L10.0762 -23.7084
L9.87354 -24.159
L9.67879 -24.6133
L9.49206 -25.071
L9.31341 -25.532
L9.14288 -25.9962
L8.98054 -26.4635
L8.82642 -26.9337
L8.68058 -27.4066
L8.54307 -27.8821
L8.41392 -28.3602
L8.29317 -28.8405
L8.18086 -29.3231
L8.07703 -29.8076
L7.9817 -30.2941
L7.8949 -30.7823
L7.81667 -31.2721
L7.74702 -31.7633
L7.68598 -32.2558
L7.63356 -32.7494
L7.58978 -33.2441
L7.55466 -33.7396
L7.5282 -34.2357
L7.51042 -34.7324
L7.50131 -35.2295
L7.50088 -35.7269
L7.50914 -36.2243
L7.52607 -36.7216
L7.55168 -37.2187
L7.58595 -37.7155
L7.62888 -38.2117
L7.68045 -38.7073
L7.74064 -39.202
L7.80945 -39.6958
L7.88684 -40.1884
L7.97279 -40.6798
L8.06729 -41.1697
L8.17029 -41.658
L8.28177 -42.1447
L8.40169 -42.6294
L8.53001 -43.1122
L8.66671 -43.5928
L8.81173 -44.071
L8.96504 -44.5468
L9.12657 -45.02
L9.2963 -45.4905
L9.47416 -45.958
L9.6601 -46.4226
L9.85406 -46.8839
L10.056 -47.3419
L10.2658 -47.7965
L10.4835 -48.2475
L10.7089 -48.6948
L10.9421 -49.1382
L11.1828 -49.5776
L11.4312 -50.0128
L11.687 -50.4438
L11.9502 -50.8704
L12.2208 -51.2924
L12.4986 -51.7098
L12.7835 -52.1224
L13.0756 -52.5301
L13.3746 -52.9328
L13.6805 -53.3303
L13.9932 -53.7225
L14.3126 -54.1094
L14.6386 -54.4907
L14.9711 -54.8664
L15.31 -55.2363
L15.6552 -55.6004
L16.0067 -55.9585
L16.3642 -56.3105
L16.7277 -56.6563
L17.097 -56.9959
L17.4722 -57.329
L17.8529 -57.6557
L18.2392 -57.9758
L18.6309 -58.2891
L19.0279 -58.5957
L19.4301 -58.8954
L19.8373 -59.1881
L20.2494 -59.4738
L20.6664 -59.7523
L21.088 -60.0235
L21.5141 -60.2875
L21.9447 -60.544
L22.3795 -60.7931
L22.8185 -61.0346
L23.2615 -61.2685
L23.7084 -61.4947
L24.159 -61.7132
L24.6133 -61.9238
L25.071 -62.1265
L25.532 -62.3212
L25.9962 -62.5079
L26.4635 -62.6866
L26.9337 -62.8571
L27.4066 -63.0195
L27.8821 -63.1736
L28.3602 -63.3194
L28.8405 -63.4569
L29.3231 -63.5861
L29.8076 -63.7068
L30.2941 -63.8191
L30.7823 -63.923
L31.2721 -64.0183
L31.7633 -64.1051
L32.2558 -64.1833
L32.7494 -64.253
L33.2441 -64.314
L33.7396 -64.3664
z
" id="C0_2_8c98f07768"/>
    </defs>
    <g clip-path="url(#p1bffca34e9)">
     <use style="fill:#ff0000;stroke:#000000;stroke-width:2.0;" x="0.0" xlink:href="#C0_0_a811fe30f3" y="72.0"/>
    </g>
    <g clip-path="url(#p1bffca34e9)">
     <use style="fill:#ffffff;stroke:#000000;stroke-width:2.0;" x="0.0" xlink:href="#C0_1_76a816105c" y="72.0"/>
    </g>
    <g clip-path="url(#p1bffca34e9)">
     <use style="fill:#ffffff;stroke:#000000;stroke-width:2.0;" x="0.0" xlink:href="#C0_2_8c98f07768" y="72.0"/>
    </g>
   </g>
  </g>
 </g>
 <defs>
  <clipPath id="p1bffca34e9">
   <rect height="72.0" width="72.0" x="0.0" y="0.0"/>
  </clipPath>
 </defs>
</svg>
