<?xml version="1.0" encoding="utf-8" standalone="no"?>
<!DOCTYPE svg PUBLIC "-//W3C//DTD SVG 1.1//EN"
  "http://www.w3.org/Graphics/SVG/1.1/DTD/svg11.dtd">
<!-- Created with matplotlib (http://matplotlib.org/) -->
<svg height="72pt" version="1.1" viewBox="0 0 72 72" width="72pt" xmlns="http://www.w3.org/2000/svg" xmlns:xlink="http://www.w3.org/1999/xlink">
 <defs>
  <style type="text/css">
*{stroke-linecap:butt;stroke-linejoin:round;}
  </style>
 </defs>
 <g id="figure_1">
  <g id="patch_1">
   <path d="
M0 72
L72 72
L72 0
L0 0
z
" style="fill:none;"/>
  </g>
  <g id="axes_1">
   <g id="PatchCollection_1">
    <defs>
     <path d="
M36 -7.5
C43.5583 -7.5 50.808 -10.5029 56.1525 -15.8475
C61.4971 -21.192 64.5 -28.4417 64.5 -36
C64.5 -43.5583 61.4971 -50.808 56.1525 -56.1525
C50.808 -61.4971 43.5583 -64.5 36 -64.5
C28.4417 -64.5 21.192 -61.4971 15.8475 -56.1525
C10.5029 -50.808 7.5 -43.5583 7.5 -36
C7.5 -28.4417 10.5029 -21.192 15.8475 -15.8475
C21.192 -10.5029 28.4417 -7.5 36 -7.5
z
" id="C0_0_a811fe30f3"/>
     <path d="
M62.4877 -25.6049
L62.2656 -25.7056
L62.0487 -25.8289
L61.8368 -25.9735
L61.6294 -26.1376
L61.4258 -26.3197
L61.2256 -26.5181
L61.0282 -26.7312
L60.833 -26.9574
L60.6397 -27.1953
L60.4477 -27.4434
L60.2565 -27.7003
L60.066 -27.9649
L59.8756 -28.2361
L59.6852 -28.5127
L59.4945 -28.7938
L59.3033 -29.0786
L59.1114 -29.3663
L58.9188 -29.6561
L58.7254 -29.9474
L58.531 -30.2396
L58.3356 -30.5322
L58.1393 -30.8248
L57.942 -31.117
L57.7437 -31.4083
L57.5444 -31.6985
L57.3442 -31.9872
L57.1431 -32.2742
L56.9412 -32.5594
L56.7385 -32.8424
L56.5351 -33.1232
L56.3309 -33.4016
L56.1262 -33.6775
L55.9209 -33.9507
L55.715 -34.2212
L55.5088 -34.489
L55.3021 -34.7539
L55.095 -35.0159
L54.8877 -35.275
L54.6801 -35.5311
L54.4723 -35.7844
L54.2644 -36.0346
L54.0563 -36.282
L53.8481 -36.5264
L53.6399 -36.7679
L53.4316 -37.0064
L53.2233 -37.2422
L53.0151 -37.475
L52.8069 -37.7051
L52.5987 -37.9324
L52.3906 -38.157
L52.1826 -38.3789
L51.9747 -38.5982
L51.7669 -38.8149
L51.5592 -39.029
L51.3516 -39.2406
L51.144 -39.4498
L50.9366 -39.6566
L50.7292 -39.861
L50.522 -40.0632
L50.3148 -40.2631
L50.1076 -40.4608
L49.9005 -40.6564
L49.6934 -40.8499
L49.4863 -41.0414
L49.2792 -41.2309
L49.0721 -41.4184
L48.8649 -41.6041
L48.6576 -41.788
L48.4503 -41.97
L48.2428 -42.1504
L48.0351 -42.329
L47.8272 -42.506
L47.6191 -42.6814
L47.4108 -42.8553
L47.2022 -43.0276
L46.9933 -43.1985
L46.784 -43.368
L46.5743 -43.5362
L46.3642 -43.703
L46.1537 -43.8685
L45.9426 -44.0327
L45.731 -44.1958
L45.5189 -44.3577
L45.3061 -44.5184
L45.0926 -44.6781
L44.6636 -44.8367
L44.4479 -44.9942
L44.2314 -45.1508
L44.014 -45.3064
L43.7957 -45.4611
L43.5764 -45.6149
L43.3561 -45.7678
L43.1347 -45.9199
L42.9122 -46.0712
L42.6886 -46.2217
L42.4637 -46.3714
L42.2375 -46.5204
L42.0101 -46.6687
L41.7812 -46.8163
L41.551 -46.9633
L41.3192 -47.1096
L41.086 -47.2553
L40.8511 -47.4003
L40.6146 -47.5448
L40.3765 -47.6887
L40.1365 -47.8321
L39.8948 -47.9749
L39.6512 -48.1172
L39.4057 -48.2589
L39.1582 -48.4002
L38.9087 -48.5409
L38.6571 -48.6812
L38.4034 -48.8209
L38.1475 -48.9602
L37.8894 -49.099
L37.6289 -49.2373
L37.3661 -49.3751
L37.1009 -49.5124
L36.8332 -49.6493
L36.563 -49.7856
L36.2903 -49.9215
L36.015 -50.0568
L35.737 -50.1916
L35.4564 -50.3258
L35.173 -50.4595
L34.8869 -50.5927
L34.5979 -50.7252
L34.3062 -50.8572
L34.0116 -50.9885
L33.7141 -51.1191
L33.4138 -51.2491
L33.1106 -51.3784
L32.8045 -51.5069
L32.4955 -51.6347
L32.1836 -51.7617
L31.8689 -51.8879
L31.5514 -52.0132
L31.231 -52.1377
L30.908 -52.2612
L30.5823 -52.3838
L30.254 -52.5054
L29.9233 -52.6261
L29.5902 -52.7458
L29.2548 -52.8644
L28.9173 -52.982
L28.5779 -53.0986
L28.2368 -53.2141
L27.8941 -53.3287
L27.5502 -53.4422
L27.2052 -53.5548
L26.8595 -53.6665
L26.5135 -53.7774
L26.1675 -53.8876
L25.8219 -53.9971
L25.4772 -54.1063
L25.1339 -54.2151
L24.7925 -54.3239
L24.4538 -54.4329
L24.1182 -54.5424
L23.7866 -54.6528
L23.4598 -54.7644
L23.1387 -54.8777
L22.8241 -54.9932
L22.5171 -55.1116
L22.2187 -55.2334
L21.9301 -55.3593
L21.6525 -55.4902
L21.3872 -55.6268
L21.1353 -55.7699
L20.8981 -55.9206
L20.6771 -56.0795
L20.4733 -56.2477
L20.288 -56.4259
L20.1222 -56.6148
L19.9771 -56.8152
L19.8533 -57.0274
L19.7515 -57.2519
L19.6723 -57.4888
L19.616 -57.7381
L19.5826 -57.9996
L19.5723 -58.2728
L19.5847 -58.5572
L19.6196 -58.8521
L19.95 -59.1567
L20.3635 -59.551
L20.7817 -59.8275
L21.2046 -60.0967
L21.6319 -60.3587
L22.0637 -60.6132
L22.4997 -60.8602
L22.9398 -61.0996
L23.3839 -61.3314
L23.8318 -61.5555
L24.2834 -61.7718
L24.7386 -61.9802
L25.1973 -62.1807
L25.6592 -62.3733
L26.1242 -62.5578
L26.5923 -62.7342
L27.0633 -62.9025
L27.5369 -63.0626
L28.0132 -63.2145
L28.4919 -63.358
L28.9728 -63.4932
L29.4559 -63.6201
L29.941 -63.7385
L30.428 -63.8485
L30.9166 -63.95
L31.4068 -64.043
L31.8984 -64.1274
L32.3913 -64.2033
L32.8852 -64.2706
L33.3801 -64.3293
L33.8758 -64.3793
L34.3721 -64.4207
L34.8689 -64.4535
L35.3661 -64.4775
L35.8635 -64.4929
L36.3609 -64.4997
L36.8582 -64.4977
L37.3552 -64.4871
L37.8518 -64.4678
L38.3479 -64.4398
L38.8433 -64.4031
L39.3377 -64.3578
L39.8312 -64.3039
L40.3235 -64.2413
L40.8145 -64.1702
L41.304 -64.0904
L41.7919 -64.0021
L42.278 -63.9053
L42.7622 -63.7999
L43.2444 -63.6861
L43.7243 -63.5639
L44.2019 -63.4333
L44.677 -63.2943
L45.1495 -63.147
L45.6192 -62.9914
L46.0859 -62.8276
L46.5496 -62.6557
L47.01 -62.4756
L47.4671 -62.2874
L47.9208 -62.0913
L48.3707 -61.8872
L48.8169 -61.6752
L49.2592 -61.4554
L49.6975 -61.2278
L50.1316 -60.9926
L50.5614 -60.7497
L50.9867 -60.4993
L51.4075 -60.2414
L51.8236 -59.9762
L52.2349 -59.7036
L52.6412 -59.4239
L53.0425 -59.137
L53.4386 -58.843
L53.8293 -58.5421
L54.2147 -58.2343
L54.5944 -57.9198
L54.9685 -57.5985
L55.3369 -57.2707
L55.6993 -56.9364
L56.0558 -56.5958
L56.4061 -56.2488
L56.7502 -55.8957
L57.088 -55.5366
L57.4194 -55.1715
L57.7443 -54.8005
L58.0625 -54.4238
L58.374 -54.0415
L58.6787 -53.6537
L58.9765 -53.2606
L59.2673 -52.8621
L59.551 -52.4586
L59.8275 -52.05
L60.0967 -51.6365
L60.3587 -51.2183
L60.6132 -50.7954
L60.8602 -50.3681
L61.0996 -49.9363
L61.3314 -49.5003
L61.5555 -49.0602
L61.7718 -48.6161
L61.9802 -48.1682
L62.1807 -47.7166
L62.3733 -47.2614
L62.5578 -46.8027
L62.7342 -46.3408
L62.9025 -45.8758
L63.0626 -45.4077
L63.2145 -44.9367
L63.358 -44.4631
L63.4932 -43.9868
L63.6201 -43.5081
L63.7385 -43.0272
L63.8485 -42.5441
L63.95 -42.059
L64.043 -41.572
L64.1274 -41.0834
L64.2033 -40.5932
L64.2706 -40.1016
L64.3293 -39.6087
L64.3793 -39.1148
L64.4207 -38.6199
L64.4535 -38.1242
L64.4775 -37.6279
L64.4929 -37.1311
L64.4997 -36.6339
L64.4977 -36.1365
L64.4871 -35.6391
L64.4678 -35.1418
L64.4398 -34.6448
L64.4031 -34.1482
L64.3578 -33.6521
L64.3039 -33.1567
L64.2413 -32.6623
L64.1702 -32.1688
L64.0904 -31.6765
L64.0021 -31.1855
L63.9053 -30.696
L63.7999 -30.2081
L63.6861 -29.722
L63.5639 -29.2378
L63.4333 -28.7556
L63.2943 -28.2757
L63.147 -27.7981
L62.9914 -27.323
L62.8276 -26.8505
z
" id="C0_1_3f0b527967"/>
     <path d="
M52.2223 -12.6753
L51.8954 -12.7207
L51.5569 -12.7601
L51.208 -12.7947
L50.8501 -12.8256
L50.4842 -12.8537
L50.1114 -12.8801
L49.7327 -12.9055
L49.3491 -12.9307
L48.9614 -12.9564
L48.5705 -12.9831
L48.1771 -13.0113
L47.7819 -13.0414
L47.3856 -13.0737
L46.9887 -13.1087
L46.5917 -13.1464
L46.1951 -13.1871
L45.7994 -13.231
L45.4049 -13.2781
L45.012 -13.3286
L44.621 -13.3824
L44.2321 -13.4396
L43.8457 -13.5002
L43.4619 -13.5641
L43.0809 -13.6315
L42.7029 -13.7021
L42.3281 -13.7759
L41.9565 -13.8529
L41.5883 -13.9331
L41.2236 -14.0162
L40.8625 -14.1024
L40.5049 -14.1914
L40.1509 -14.2831
L39.8007 -14.3776
L39.4541 -14.4747
L39.1112 -14.5744
L38.7721 -14.6765
L38.4366 -14.781
L38.1049 -14.8877
L37.7768 -14.9967
L37.4523 -15.1079
L37.1315 -15.2211
L36.8142 -15.3363
L36.5005 -15.4535
L36.1902 -15.5725
L35.8834 -15.6934
L35.58 -15.816
L35.2798 -15.9403
L34.983 -16.0663
L34.6894 -16.1939
L34.399 -16.3231
L34.1116 -16.4539
L33.8273 -16.5861
L33.5459 -16.7198
L33.2674 -16.8549
L32.9918 -16.9915
L32.719 -17.1294
L32.4488 -17.2687
L32.1813 -17.4093
L31.9164 -17.5513
L31.654 -17.6946
L31.3941 -17.8391
L31.1365 -17.985
L30.8812 -18.1322
L30.6283 -18.2807
L30.3775 -18.4304
L30.1288 -18.5814
L29.8822 -18.7338
L29.6376 -18.8874
L29.395 -19.0423
L29.1543 -19.1985
L28.9154 -19.3561
L28.6783 -19.515
L28.4429 -19.6752
L28.2092 -19.8368
L27.9771 -19.9998
L27.7466 -20.1642
L27.5175 -20.3301
L27.29 -20.4974
L27.0638 -20.6661
L26.8391 -20.8364
L26.6156 -21.0082
L26.3934 -21.1816
L26.1724 -21.3566
L25.9527 -21.5332
L25.734 -21.7114
L25.5165 -21.8914
L25.3 -22.0731
L25.0845 -22.2567
L24.87 -22.442
L24.6565 -22.6292
L24.4439 -22.8183
L24.2322 -23.0093
L24.0213 -23.2024
L23.8112 -23.3975
L23.6019 -23.5947
L23.3934 -23.7941
L23.1856 -23.9956
L22.9785 -24.1995
L22.7721 -24.4056
L22.5663 -24.6141
L22.3612 -24.8251
L22.1568 -25.0385
L21.9529 -25.2544
L21.7497 -25.473
L21.547 -25.6943
L21.3449 -25.9182
L21.1434 -26.145
L20.9424 -26.3746
L20.7421 -26.6072
L20.5422 -26.8427
L20.343 -27.0813
L20.1443 -27.323
L19.9461 -27.5679
L19.7486 -27.8161
L19.5517 -28.0676
L19.3553 -28.3224
L19.1596 -28.5807
L18.9646 -28.8426
L18.7702 -29.108
L18.5766 -29.377
L18.3836 -29.6498
L18.1915 -29.9263
L18.0002 -30.2066
L17.8097 -30.4907
L17.6201 -30.7788
L17.4315 -31.0709
L17.2439 -31.3669
L17.0573 -31.667
L16.8718 -31.9711
L16.6876 -32.2793
L16.5045 -32.5916
L16.3228 -32.9079
L16.1425 -33.2284
L15.9636 -33.553
L15.7863 -33.8816
L15.6105 -34.2142
L15.4365 -34.5507
L15.2642 -34.8912
L15.0937 -35.2354
L14.9252 -35.5833
L14.7586 -35.9348
L14.5941 -36.2898
L14.4317 -36.6479
L14.2714 -37.0091
L14.1134 -37.3731
L13.9576 -37.7396
L13.804 -38.1084
L13.6527 -38.479
L13.5036 -38.8512
L13.3567 -39.2244
L13.2118 -39.5982
L13.069 -39.9721
L12.9281 -40.3455
L12.7888 -40.7176
L12.6511 -41.0879
L12.5145 -41.4554
L12.3787 -41.8194
L12.2435 -42.1789
L12.1082 -42.5328
L11.9726 -42.8801
L11.8359 -43.2196
L11.6975 -43.55
L11.5568 -43.8701
L11.413 -44.1785
L11.2654 -44.4738
L11.1132 -44.7546
L10.9556 -45.0196
L10.7918 -45.2672
L10.6213 -45.4964
L10.4432 -45.7059
L10.2572 -45.8947
L10.0628 -46.0619
L9.85974 -46.2069
L9.28808 -46.3291
L9.11875 -45.936
L8.9576 -45.4683
L8.80468 -44.9977
L8.66006 -44.5244
L8.52375 -44.0484
L8.39582 -43.5701
L8.2763 -43.0894
L8.16522 -42.6065
L8.06262 -42.1217
L7.96853 -41.635
L7.88298 -41.1465
L7.806 -40.6565
L7.7376 -40.1651
L7.67781 -39.6724
L7.62665 -39.1786
L7.58413 -38.6839
L7.55027 -38.1883
L7.52507 -37.692
L7.50855 -37.1952
L7.50071 -36.6981
L7.50154 -36.2007
L7.51106 -35.7033
L7.52926 -35.206
L7.55613 -34.7089
L7.59166 -34.2122
L7.63585 -33.7161
L7.68867 -33.2207
L7.75012 -32.7261
L7.82018 -32.2325
L7.89882 -31.74
L7.98601 -31.2488
L8.08175 -30.7591
L8.18598 -30.271
L8.29869 -29.7847
L8.41984 -29.3002
L8.54939 -28.8177
L8.6873 -28.3375
L8.83353 -27.8596
L8.98803 -27.3842
L9.15076 -26.9113
L9.32168 -26.4413
L9.50071 -25.9742
L9.68782 -25.5101
L9.88295 -25.0492
L10.086 -24.5917
L10.297 -24.1376
L10.5158 -23.6872
L10.7424 -23.2405
L10.9766 -22.7976
L11.2185 -22.3588
L11.4679 -21.9242
L11.7248 -21.4939
L11.9891 -21.0679
L12.2608 -20.6465
L12.5396 -20.2298
L12.8256 -19.8179
L13.1186 -19.4109
L13.4187 -19.009
L13.7256 -18.6123
L14.0392 -18.2208
L14.3596 -17.8348
L14.6866 -17.4543
L15.02 -17.0794
L15.3599 -16.7103
L15.706 -16.3471
L16.0583 -15.9899
L16.4167 -15.6388
L16.7811 -15.2938
L17.1513 -14.9552
L17.5272 -14.623
L17.9088 -14.2973
L18.2959 -13.9782
L18.6884 -13.6658
L19.0861 -13.3603
L19.489 -13.0616
L19.897 -12.7699
L20.3098 -12.4853
L20.7274 -12.2078
L21.1497 -11.9376
L21.5765 -11.6747
L22.0077 -11.4193
L22.4431 -11.1713
L22.8827 -10.9309
L23.3263 -10.6981
L23.7737 -10.473
L24.2249 -10.2557
L24.6796 -10.0463
L25.1378 -9.8447
L25.5994 -9.65112
L26.064 -9.46556
L26.5317 -9.28808
L27.0023 -9.11875
L27.4756 -8.9576
L27.9516 -8.80468
L28.4299 -8.66006
L28.9106 -8.52375
L29.3935 -8.39582
L29.8783 -8.2763
L30.365 -8.16522
L30.8535 -8.06262
L31.3435 -7.96853
L31.8349 -7.88298
L32.3276 -7.806
L32.8214 -7.7376
L33.3161 -7.67781
L33.8117 -7.62665
L34.308 -7.58413
L34.8048 -7.55027
L35.3019 -7.52507
L35.7993 -7.50855
L36.2967 -7.50071
L36.794 -7.50154
L37.2911 -7.51106
L37.7878 -7.52926
L38.2839 -7.55613
L38.7793 -7.59166
L39.2739 -7.63585
L39.7675 -7.68867
L40.26 -7.75012
L40.7512 -7.82018
L41.2409 -7.89882
L41.729 -7.98601
L42.2153 -8.08175
L42.6998 -8.18598
L43.1823 -8.29869
L43.6625 -8.41984
L44.1404 -8.54939
L44.6158 -8.6873
L45.0887 -8.83353
L45.5587 -8.98803
L46.0258 -9.15076
L46.4899 -9.32168
L46.9508 -9.50071
L47.4083 -9.68782
L47.8624 -9.88295
L48.3128 -10.086
L48.7595 -10.297
L49.2024 -10.5158
L49.6412 -10.7424
L50.0758 -10.9766
L50.5061 -11.2185
L50.9321 -11.4679
L51.3535 -11.7248
L51.7702 -11.9891
z
" id="C0_2_e1954e8ad4"/>
    </defs>
    <g clip-path="url(#p1bffca34e9)">
     <use style="fill:#ff0000;stroke:#000000;stroke-width:2.0;" x="0.0" xlink:href="#C0_0_a811fe30f3" y="72.0"/>
    </g>
    <g clip-path="url(#p1bffca34e9)">
     <use style="fill:#ffffff;stroke:#000000;stroke-width:2.0;" x="0.0" xlink:href="#C0_1_3f0b527967" y="72.0"/>
    </g>
    <g clip-path="url(#p1bffca34e9)">
     <use style="fill:#ffffff;stroke:#000000;stroke-width:2.0;" x="0.0" xlink:href="#C0_2_e1954e8ad4" y="72.0"/>
    </g>
   </g>
  </g>
 </g>
 <defs>
  <clipPath id="p1bffca34e9">
   <rect height="72.0" width="72.0" x="0.0" y="0.0"/>
  </clipPath>
 </defs>
</svg>
