<?xml version="1.0" encoding="utf-8" standalone="no"?>
<!DOCTYPE svg PUBLIC "-//W3C//DTD SVG 1.1//EN"
  "http://www.w3.org/Graphics/SVG/1.1/DTD/svg11.dtd">
<!-- Created with matplotlib (http://matplotlib.org/) -->
<svg height="72pt" version="1.1" viewBox="0 0 72 72" width="72pt" xmlns="http://www.w3.org/2000/svg" xmlns:xlink="http://www.w3.org/1999/xlink">
 <defs>
  <style type="text/css">
*{stroke-linecap:butt;stroke-linejoin:round;}
  </style>
 </defs>
 <g id="figure_1">
  <g id="patch_1">
   <path d="
M0 72
L72 72
L72 0
L0 0
z
" style="fill:none;"/>
  </g>
  <g id="axes_1">
   <g id="PatchCollection_1">
    <defs>
     <path d="
M36 -7.5
C43.5583 -7.5 50.808 -10.5029 56.1525 -15.8475
C61.4971 -21.192 64.5 -28.4417 64.5 -36
C64.5 -43.5583 61.4971 -50.808 56.1525 -56.1525
C50.808 -61.4971 43.5583 -64.5 36 -64.5
C28.4417 -64.5 21.192 -61.4971 15.8475 -56.1525
C10.5029 -50.808 7.5 -43.5583 7.5 -36
C7.5 -28.4417 10.5029 -21.192 15.8475 -15.8475
C21.192 -10.5029 28.4417 -7.5 36 -7.5
z
" id="C0_0_a811fe30f3"/>
     <path d="
M32.4803 -25.6536
L32.2784 -25.8243
L32.0774 -25.9964
L31.8774 -26.1699
L31.6783 -26.3449
L31.4801 -26.5213
L31.2828 -26.6993
L31.0863 -26.8789
L30.8906 -27.0601
L30.6957 -27.2428
L30.5016 -27.4273
L30.3082 -27.6134
L30.1155 -27.8013
L29.9235 -27.991
L29.7322 -28.1825
L29.5416 -28.3758
L29.3516 -28.5711
L29.1622 -28.7683
L28.9734 -28.9675
L28.7853 -29.1688
L28.5978 -29.3721
L28.4108 -29.5776
L28.2245 -29.7853
L28.0387 -29.9952
L27.8536 -30.2074
L27.669 -30.4219
L27.4851 -30.6388
L27.3017 -30.8582
L27.119 -31.0801
L26.937 -31.3045
L26.7556 -31.5315
L26.5749 -31.7612
L26.3949 -31.9936
L26.2156 -32.2287
L26.0371 -32.4667
L25.8594 -32.7075
L25.6826 -32.9512
L25.5067 -33.1979
L25.3318 -33.4477
L25.1578 -33.7005
L24.985 -33.9564
L24.8133 -34.2155
L24.6428 -34.4779
L24.4736 -34.7435
L24.3059 -35.0123
L24.1396 -35.2846
L23.9749 -35.5602
L23.8119 -35.8392
L23.6508 -36.1217
L23.4916 -36.4076
L23.3345 -36.697
L23.1797 -36.99
L23.0272 -37.2864
L22.8774 -37.5864
L22.7302 -37.8899
L22.5861 -38.197
L22.4451 -38.5075
L22.3074 -38.8215
L22.1733 -39.139
L22.0431 -39.4599
L21.917 -39.7842
L21.7953 -40.1118
L21.6782 -40.4426
L21.5661 -40.7766
L21.4593 -41.1136
L21.3581 -41.4536
L21.2629 -41.7965
L21.174 -42.142
L21.0919 -42.49
L21.0169 -42.8404
L20.9496 -43.193
L20.8902 -43.5476
L20.8393 -43.9039
L20.7974 -44.2616
L20.7649 -44.6206
L20.7423 -44.9805
L20.7301 -45.341
L20.7289 -45.7017
L20.7391 -46.0624
L20.7612 -46.4225
L20.7958 -46.7818
L20.8432 -47.1398
L20.904 -47.496
L20.9785 -47.85
L21.0671 -48.2014
L21.1702 -48.5495
L21.288 -48.894
L21.4206 -49.2344
L21.5683 -49.57
L21.7311 -49.9006
L21.9089 -50.2255
L22.1016 -50.5444
L22.309 -50.8568
L22.5309 -51.1622
L22.7669 -51.4603
L23.0165 -51.7507
L23.2793 -52.0331
L23.5547 -52.3073
L23.8421 -52.5728
L24.1409 -52.8297
L24.4504 -53.0775
L24.7699 -53.3163
L25.0987 -53.5458
L25.4362 -53.766
L25.7815 -53.9769
L26.1341 -54.1784
L26.4932 -54.3705
L26.8582 -54.5533
L27.2284 -54.7268
L27.6033 -54.891
L27.9821 -55.0461
L28.3644 -55.1921
L28.7497 -55.3293
L29.1373 -55.4576
L29.5269 -55.5772
L29.918 -55.6883
L30.3101 -55.7911
L30.7029 -55.8857
L31.096 -55.9723
L31.4891 -56.051
L31.8817 -56.122
L32.2738 -56.1856
L32.6649 -56.2418
L33.0548 -56.2909
L33.4433 -56.3331
L33.8302 -56.3685
L34.2152 -56.3973
L34.5984 -56.4198
L34.9793 -56.4359
L35.3581 -56.4461
L35.7344 -56.4503
L36.1082 -56.4488
L36.4794 -56.4417
L36.848 -56.4293
L37.2138 -56.4115
L37.5767 -56.3887
L37.9368 -56.361
L38.294 -56.3284
L38.6483 -56.2911
L38.9995 -56.2493
L39.3478 -56.203
L39.6931 -56.1525
L40.0353 -56.0977
L40.3746 -56.0389
L40.7108 -55.9761
L41.044 -55.9094
L41.3742 -55.839
L41.7015 -55.7649
L42.0258 -55.6872
L42.3472 -55.606
L42.6657 -55.5213
L42.9813 -55.4333
L43.294 -55.342
L43.604 -55.2475
L43.9112 -55.1498
L44.2156 -55.049
L44.5173 -54.9452
L44.8164 -54.8383
L45.1129 -54.7285
L45.4068 -54.6158
L45.6981 -54.5002
L45.9869 -54.3818
L46.2733 -54.2605
L46.5572 -54.1364
L46.8388 -54.0096
L47.118 -53.8801
L47.3949 -53.7478
L47.6696 -53.6128
L47.942 -53.4751
L48.2123 -53.3347
L48.4804 -53.1916
L48.7465 -53.0458
L49.0104 -52.8973
L49.2723 -52.7462
L49.5322 -52.5923
L49.7902 -52.4358
L50.0462 -52.2765
L50.3003 -52.1145
L50.5525 -51.9497
L50.8028 -51.7821
L51.0514 -51.6118
L51.2981 -51.4387
L51.5431 -51.2627
L51.7863 -51.0838
L52.0277 -50.902
L52.2675 -50.7173
L52.5055 -50.5296
L52.7419 -50.3388
L52.9765 -50.1451
L53.2095 -49.9482
L53.4408 -49.7482
L53.6704 -49.5449
L53.8984 -49.3385
L54.1247 -49.1287
L54.3493 -48.9156
L54.5723 -48.6991
L54.7935 -48.4791
L55.013 -48.2556
L55.2309 -48.0285
L55.4469 -47.7977
L55.6612 -47.5633
L55.8737 -47.3251
L56.0843 -47.083
L56.2931 -46.837
L56.5 -46.587
L56.7049 -46.333
L56.9078 -46.0748
L57.1086 -45.8124
L57.3073 -45.5458
L57.5038 -45.2748
L57.6981 -44.9994
L57.89 -44.7194
L58.0794 -44.4349
L58.2664 -44.1458
L58.4507 -43.8519
L58.6323 -43.5532
L58.8111 -43.2496
L58.987 -42.9411
L59.1598 -42.6276
L59.3293 -42.309
L59.4956 -41.9853
L59.6583 -41.6564
L59.8174 -41.3223
L59.9727 -40.9828
L60.124 -40.638
L60.2711 -40.2878
L60.4139 -39.9323
L60.5521 -39.5713
L60.6855 -39.2048
L60.8139 -38.8329
L60.9371 -38.4555
L61.0548 -38.0728
L61.1668 -37.6846
L61.2729 -37.291
L61.3726 -36.8922
L61.4659 -36.4882
L61.5523 -36.079
L61.6317 -35.6649
L61.7036 -35.2458
L61.7679 -34.8221
L61.8241 -34.3938
L61.872 -33.9612
L61.9112 -33.5245
L61.9414 -33.084
L61.9623 -32.6399
L61.9735 -32.1927
L61.9747 -31.7426
L61.9657 -31.2901
L61.946 -30.8356
L61.9154 -30.3796
L61.8736 -29.9226
L61.8202 -29.4651
L61.7551 -29.0078
L61.6779 -28.5513
L61.5884 -28.0962
L61.4865 -27.6434
L61.372 -27.1935
L61.2446 -26.7473
L61.1045 -26.3057
L60.9514 -25.8694
L60.7853 -25.4395
L60.6064 -25.0166
L60.4147 -24.6018
L60.2104 -24.1959
L59.9936 -23.7996
L59.7647 -23.414
L59.5239 -23.0397
L59.2716 -22.6775
L59.0083 -22.3281
L58.7344 -21.992
L58.4504 -21.6699
L58.157 -21.3622
L57.8547 -21.0692
L57.5441 -20.7912
L57.2258 -20.5284
L56.9006 -20.2809
L56.569 -20.0487
L56.2317 -19.8317
L55.8894 -19.6298
L55.5427 -19.4428
L55.1921 -19.2703
L54.8382 -19.1121
L54.4817 -18.9679
L54.123 -18.8372
L53.7627 -18.7195
L53.4011 -18.6146
L53.0388 -18.5219
L52.6762 -18.441
L52.3136 -18.3715
L51.9513 -18.3127
L51.5898 -18.2644
L51.2292 -18.2261
L50.8699 -18.1973
L50.5122 -18.1776
L50.1561 -18.1666
L49.802 -18.1638
L49.45 -18.169
L49.1003 -18.1817
L48.7531 -18.2015
L48.4084 -18.2281
L48.0663 -18.2613
L47.727 -18.3005
L47.3906 -18.3457
L47.0571 -18.3964
L46.7266 -18.4523
L46.3991 -18.5133
L46.0748 -18.5791
L45.7535 -18.6494
L45.4353 -18.724
L45.1203 -18.8027
L44.8085 -18.8852
L44.4998 -18.9715
L44.1943 -19.0612
L43.8919 -19.1543
L43.5926 -19.2505
L43.2965 -19.3498
L43.0034 -19.4519
L42.7134 -19.5567
L42.4264 -19.6642
L42.1424 -19.7741
L41.8613 -19.8864
L41.5832 -20.0009
L41.3079 -20.1176
L41.0354 -20.2364
L40.7657 -20.3571
L40.4988 -20.4798
L40.2345 -20.6042
L39.9729 -20.7304
L39.7138 -20.8583
L39.4573 -20.9878
L39.2033 -21.1189
L38.9517 -21.2515
L38.7024 -21.3856
L38.4555 -21.5211
L38.2108 -21.658
L37.9684 -21.7962
L37.7281 -21.9358
L37.49 -22.0767
L37.2539 -22.2188
L37.0198 -22.3622
L36.7876 -22.5069
L36.5574 -22.6527
L36.329 -22.7998
L36.1024 -22.9481
L35.8775 -23.0976
L35.6544 -23.2482
L35.4329 -23.4
L35.213 -23.5531
L34.9947 -23.7073
L34.7779 -23.8626
L34.5625 -24.0192
L34.3486 -24.177
L34.136 -24.336
L33.9248 -24.4963
L33.7149 -24.6578
L33.5062 -24.8205
L33.2988 -24.9845
L33.0925 -25.1498
L32.8874 -25.3164
z
" id="C0_1_08ef2c387e"/>
    </defs>
    <g clip-path="url(#p1bffca34e9)">
     <use style="fill:#ff0000;stroke:#000000;stroke-width:2.0;" x="0.0" xlink:href="#C0_0_a811fe30f3" y="72.0"/>
    </g>
    <g clip-path="url(#p1bffca34e9)">
     <use style="fill:#ffffff;stroke:#000000;stroke-width:2.0;" x="0.0" xlink:href="#C0_1_08ef2c387e" y="72.0"/>
    </g>
   </g>
  </g>
 </g>
 <defs>
  <clipPath id="p1bffca34e9">
   <rect height="72.0" width="72.0" x="0.0" y="0.0"/>
  </clipPath>
 </defs>
</svg>
