<?xml version="1.0" encoding="utf-8" standalone="no"?>
<!DOCTYPE svg PUBLIC "-//W3C//DTD SVG 1.1//EN"
  "http://www.w3.org/Graphics/SVG/1.1/DTD/svg11.dtd">
<!-- Created with matplotlib (http://matplotlib.org/) -->
<svg height="72pt" version="1.1" viewBox="0 0 72 72" width="72pt" xmlns="http://www.w3.org/2000/svg" xmlns:xlink="http://www.w3.org/1999/xlink">
 <defs>
  <style type="text/css">
*{stroke-linecap:butt;stroke-linejoin:round;}
  </style>
 </defs>
 <g id="figure_1">
  <g id="patch_1">
   <path d="
M0 72
L72 72
L72 0
L0 0
z
" style="fill:none;"/>
  </g>
  <g id="axes_1">
   <g id="PatchCollection_1">
    <defs>
     <path d="
M36 -7.5
C43.5583 -7.5 50.808 -10.5029 56.1525 -15.8475
C61.4971 -21.192 64.5 -28.4417 64.5 -36
C64.5 -43.5583 61.4971 -50.808 56.1525 -56.1525
C50.808 -61.4971 43.5583 -64.5 36 -64.5
C28.4417 -64.5 21.192 -61.4971 15.8475 -56.1525
C10.5029 -50.808 7.5 -43.5583 7.5 -36
C7.5 -28.4417 10.5029 -21.192 15.8475 -15.8475
C21.192 -10.5029 28.4417 -7.5 36 -7.5
z
" id="C0_0_a811fe30f3"/>
     <path d="
M7.51113 -36.2066
L7.61749 -35.776
L7.74275 -35.359
L7.88609 -34.9563
L8.04658 -34.568
L8.22323 -34.1943
L8.41498 -33.8353
L8.62078 -33.4908
L8.83955 -33.1605
L9.07025 -32.8441
L9.31184 -32.5413
L9.56335 -32.2516
L9.82384 -31.9747
L10.0924 -31.7099
L10.3683 -31.4569
L10.6506 -31.2152
L10.9388 -30.9844
L11.232 -30.7639
L11.5297 -30.5534
L11.8314 -30.3524
L12.1364 -30.1605
L12.4443 -29.9774
L12.7547 -29.8027
L13.0671 -29.6359
L13.3812 -29.4769
L13.6965 -29.3252
L14.0128 -29.1806
L14.3299 -29.0428
L14.6473 -28.9114
L14.9649 -28.7863
L15.2825 -28.6671
L15.5998 -28.5537
L15.9166 -28.4458
L16.2329 -28.3431
L16.5484 -28.2455
L16.863 -28.1528
L17.1766 -28.0647
L17.4891 -27.9811
L17.8003 -27.9019
L18.1103 -27.8267
L18.4189 -27.7556
L18.7261 -27.6883
L19.0317 -27.6246
L19.3359 -27.5645
L19.6384 -27.5078
L19.9394 -27.4544
L20.2387 -27.4042
L20.5364 -27.357
L20.8325 -27.3128
L21.1269 -27.2713
L21.4197 -27.2326
L21.7108 -27.1966
L22.0003 -27.1631
L22.2881 -27.132
L22.5744 -27.1033
L22.859 -27.0769
L23.1422 -27.0528
L23.4237 -27.0308
L23.7038 -27.0108
L23.9824 -26.9929
L24.2596 -26.977
L24.5353 -26.963
L24.8098 -26.9508
L25.0828 -26.9404
L25.3546 -26.9318
L25.6252 -26.9249
L25.8946 -26.9196
L26.1628 -26.916
L26.4299 -26.9139
L26.6959 -26.9135
L26.961 -26.9145
L27.2251 -26.917
L27.4882 -26.921
L27.7505 -26.9264
L28.012 -26.9332
L28.2727 -26.9414
L28.5327 -26.951
L28.7921 -26.9619
L29.0508 -26.9742
L29.309 -26.9878
L29.5667 -27.0027
L29.8239 -27.0189
L30.0808 -27.0363
L30.3372 -27.0551
L30.5934 -27.0751
L30.8494 -27.0963
L31.1051 -27.1189
L31.3608 -27.1426
L31.8718 -27.1677
L32.1274 -27.194
L32.383 -27.2215
L32.6388 -27.2504
L32.8947 -27.2805
L33.1509 -27.3118
L33.4074 -27.3445
L33.6642 -27.3785
L33.9214 -27.4137
L34.1791 -27.4503
L34.4373 -27.4882
L34.696 -27.5275
L34.9554 -27.5681
L35.2154 -27.6101
L35.4761 -27.6535
L35.7376 -27.6984
L35.9999 -27.7447
L36.2631 -27.7924
L36.5272 -27.8417
L36.7923 -27.8925
L37.0583 -27.9448
L37.3255 -27.9988
L37.5938 -28.0543
L37.8632 -28.1115
L38.1338 -28.1704
L38.4057 -28.2311
L38.6789 -28.2935
L38.9534 -28.3577
L39.2293 -28.4237
L39.5066 -28.4917
L39.7853 -28.5616
L40.0656 -28.6335
L40.3474 -28.7075
L40.6307 -28.7835
L40.9156 -28.8617
L41.2021 -28.9421
L41.4903 -29.0248
L41.7801 -29.1098
L42.0716 -29.1973
L42.3647 -29.2871
L42.6596 -29.3796
L42.9561 -29.4746
L43.2544 -29.5723
L43.5543 -29.6727
L43.8558 -29.776
L44.159 -29.8822
L44.4639 -29.9913
L44.7703 -30.1036
L45.0782 -30.219
L45.3877 -30.3377
L45.6986 -30.4597
L46.0108 -30.5851
L46.3243 -30.7141
L46.639 -30.8468
L46.9547 -30.9832
L47.2714 -31.1234
L47.589 -31.2676
L47.9071 -31.4159
L48.2258 -31.5683
L48.5448 -31.7251
L48.8639 -31.8862
L49.1828 -32.052
L49.5014 -32.2224
L49.8193 -32.3976
L50.1362 -32.5777
L50.4519 -32.7629
L50.7659 -32.9534
L51.0779 -33.1492
L51.3874 -33.3505
L51.6939 -33.5575
L51.997 -33.7704
L52.2961 -33.9892
L52.5907 -34.2143
L52.8799 -34.4457
L53.1633 -34.6836
L53.44 -34.9284
L53.7091 -35.18
L53.97 -35.4388
L54.2215 -35.705
L54.4629 -35.9787
L54.693 -36.2602
L54.9108 -36.5497
L55.1152 -36.8473
L55.305 -37.1531
L55.4794 -37.4674
L55.637 -37.7902
L55.777 -38.1215
L55.8984 -38.4613
L56.0003 -38.8094
L56.0821 -39.1657
L56.1434 -39.5297
L56.1836 -39.9011
L56.2028 -40.2794
L56.201 -40.6639
L56.1783 -41.0539
L56.1352 -41.4486
L56.0723 -41.8473
L55.9901 -42.2489
L55.8896 -42.6527
L55.7714 -43.0577
L55.6365 -43.4631
L55.4859 -43.868
L55.3203 -44.2717
L55.1408 -44.6734
L54.9482 -45.0723
L54.7434 -45.4679
L54.5272 -45.8595
L54.3005 -46.2467
L54.064 -46.6289
L53.8184 -47.0058
L53.5645 -47.3769
L53.3028 -47.742
L53.0341 -48.1007
L52.759 -48.4529
L52.4779 -48.7982
L52.1913 -49.1367
L51.8999 -49.4681
L51.6041 -49.7923
L51.3042 -50.1092
L51.0007 -50.4189
L50.694 -50.7212
L50.3844 -51.0163
L50.0723 -51.3039
L49.758 -51.5843
L49.4417 -51.8574
L49.1237 -52.1233
L48.8044 -52.3821
L48.4839 -52.6338
L48.1624 -52.8785
L47.8401 -53.1163
L47.5172 -53.3473
L47.1939 -53.5716
L46.8704 -53.7893
L46.5467 -54.0005
L46.223 -54.2053
L45.8994 -54.4039
L45.5761 -54.5963
L45.2531 -54.7827
L44.9304 -54.9631
L44.6083 -55.1378
L44.2866 -55.3068
L43.9656 -55.4702
L43.6452 -55.6282
L43.3256 -55.7808
L43.0066 -55.9282
L42.6884 -56.0705
L42.371 -56.2078
L42.0543 -56.3401
L41.7385 -56.4676
L41.4235 -56.5905
L41.1093 -56.7087
L40.796 -56.8223
L40.4834 -56.9316
L40.1717 -57.0364
L39.8607 -57.1371
L39.5506 -57.2335
L39.2412 -57.3258
L38.9325 -57.4141
L38.6245 -57.4984
L38.3173 -57.5788
L38.0107 -57.6554
L37.7047 -57.7282
L37.3994 -57.7972
L37.0946 -57.8627
L36.7903 -57.9245
L36.4866 -57.9827
L36.1833 -58.0374
L35.8804 -58.0886
L35.5779 -58.1364
L35.2758 -58.1808
L34.9739 -58.2218
L34.6723 -58.2595
L34.3709 -58.2938
L34.0697 -58.3248
L33.7686 -58.3525
L33.4675 -58.377
L33.1666 -58.3982
L32.8655 -58.4161
L32.5645 -58.4308
L32.2633 -58.4423
L31.9619 -58.4505
L31.6604 -58.4554
L31.3586 -58.4571
L31.0565 -58.4556
L30.7541 -58.4507
L30.4513 -58.4426
L30.148 -58.4311
L29.8443 -58.4163
L29.54 -58.3981
L29.2352 -58.3765
L28.9297 -58.3514
L28.6236 -58.3229
L28.3168 -58.2908
L28.0092 -58.2552
L27.7008 -58.2159
L27.3916 -58.173
L27.0816 -58.1263
L26.7706 -58.0759
L26.4587 -58.0216
L26.1457 -57.9633
L25.8318 -57.9011
L25.5169 -57.8347
L25.2008 -57.7642
L24.8837 -57.6895
L24.5654 -57.6103
L24.246 -57.5268
L23.9254 -57.4387
L23.6036 -57.3459
L23.2806 -57.2484
L22.9565 -57.146
L22.6311 -57.0386
L22.3045 -56.9261
L21.9767 -56.8084
L21.6478 -56.6852
L21.3176 -56.5565
L20.9863 -56.4222
L20.6539 -56.282
L20.3204 -56.1359
L19.9858 -55.9836
L19.6503 -55.825
L19.3138 -55.66
L18.9764 -55.4883
L18.6383 -55.3099
L18.2995 -55.1244
L17.9601 -54.9318
L17.6202 -54.7318
L17.2799 -54.5242
L16.9395 -54.3089
L16.599 -54.0857
L16.2586 -53.8544
L15.9185 -53.6147
L15.5789 -53.3666
L15.24 -53.1097
L14.9021 -52.844
L14.5654 -52.5692
L14.2302 -52.2852
L13.8968 -51.9917
L13.5655 -51.6887
L13.2367 -51.376
L12.9108 -51.0534
L12.5881 -50.7208
L12.2691 -50.3781
L11.9542 -50.0252
L11.6439 -49.6622
L11.3387 -49.2888
L11.0392 -48.9052
L10.7459 -48.5113
L10.4595 -48.1072
L10.1805 -47.6931
L9.90956 -47.2691
L9.64744 -46.8353
L9.39483 -46.3921
L9.15247 -45.9398
L8.96428 -45.4788
L8.81101 -45.0177
L8.66603 -44.5445
L8.52938 -44.0687
L8.40109 -43.5904
L8.28121 -43.1099
L8.16977 -42.6271
L8.06681 -42.1423
L7.97236 -41.6557
L7.88645 -41.1673
L7.8091 -40.6774
L7.74033 -40.186
L7.68018 -39.6934
L7.62865 -39.1996
L7.58576 -38.7049
L7.55153 -38.2093
L7.52597 -37.7131
L7.50908 -37.2164
z
" id="C0_1_f16601023c"/>
     <path d="
M63.0061 -27.0147
L63.1056 -27.5277
L63.1998 -28.0409
L63.2891 -28.5536
L63.3742 -29.0653
L63.4554 -29.5753
L63.5335 -30.0831
L63.6092 -30.588
L63.6832 -31.0894
L63.7564 -31.5866
L63.8295 -32.0791
L63.9035 -32.5663
L63.9792 -33.0476
L64.0574 -33.5226
L64.1389 -33.991
L64.2244 -34.4524
L64.3144 -34.9066
L64.477 -35.3535
L64.4526 -34.8545
L64.4196 -34.3576
L64.378 -33.8613
L64.3277 -33.3657
L64.2688 -32.8708
L64.2012 -32.3769
L64.1251 -31.8841
L64.0404 -31.3925
L63.9472 -30.9024
L63.8454 -30.4138
L63.7352 -29.9269
L63.6165 -29.4418
L63.4894 -28.9588
L63.3539 -28.4779
L63.2101 -27.9993
z
" id="C0_2_00ef9c97e5"/>
    </defs>
    <g clip-path="url(#p1bffca34e9)">
     <use style="fill:#ffffff;stroke:#000000;stroke-width:2.0;" x="0.0" xlink:href="#C0_0_a811fe30f3" y="72.0"/>
    </g>
    <g clip-path="url(#p1bffca34e9)">
     <use style="fill:#ff0000;stroke:#000000;stroke-width:2.0;" x="0.0" xlink:href="#C0_1_f16601023c" y="72.0"/>
    </g>
    <g clip-path="url(#p1bffca34e9)">
     <use style="fill:#ff0000;stroke:#000000;stroke-width:2.0;" x="0.0" xlink:href="#C0_2_00ef9c97e5" y="72.0"/>
    </g>
   </g>
  </g>
 </g>
 <defs>
  <clipPath id="p1bffca34e9">
   <rect height="72.0" width="72.0" x="0.0" y="0.0"/>
  </clipPath>
 </defs>
</svg>
