<?xml version="1.0" encoding="utf-8" standalone="no"?>
<!DOCTYPE svg PUBLIC "-//W3C//DTD SVG 1.1//EN"
  "http://www.w3.org/Graphics/SVG/1.1/DTD/svg11.dtd">
<!-- Created with matplotlib (http://matplotlib.org/) -->
<svg height="72pt" version="1.1" viewBox="0 0 72 72" width="72pt" xmlns="http://www.w3.org/2000/svg" xmlns:xlink="http://www.w3.org/1999/xlink">
 <defs>
  <style type="text/css">
*{stroke-linecap:butt;stroke-linejoin:round;}
  </style>
 </defs>
 <g id="figure_1">
  <g id="patch_1">
   <path d="
M0 72
L72 72
L72 0
L0 0
z
" style="fill:none;"/>
  </g>
  <g id="axes_1">
   <g id="PatchCollection_1">
    <defs>
     <path d="
M36 -7.5
C43.5583 -7.5 50.808 -10.5029 56.1525 -15.8475
C61.4971 -21.192 64.5 -28.4417 64.5 -36
C64.5 -43.5583 61.4971 -50.808 56.1525 -56.1525
C50.808 -61.4971 43.5583 -64.5 36 -64.5
C28.4417 -64.5 21.192 -61.4971 15.8475 -56.1525
C10.5029 -50.808 7.5 -43.5583 7.5 -36
C7.5 -28.4417 10.5029 -21.192 15.8475 -15.8475
C21.192 -10.5029 28.4417 -7.5 36 -7.5
z
" id="C0_0_a811fe30f3"/>
     <path d="
M21.0205 -34.6386
L21.1055 -34.3796
L21.1926 -34.1211
L21.2818 -33.8632
L21.3731 -33.6057
L21.4665 -33.3487
L21.5621 -33.0921
L21.6598 -32.8359
L21.7598 -32.58
L21.862 -32.3244
L21.9665 -32.069
L22.0732 -31.8138
L22.1823 -31.5588
L22.2938 -31.3039
L22.4076 -31.0491
L22.5239 -30.7944
L22.6427 -30.5396
L22.7639 -30.2849
L22.8878 -30.0302
L23.0143 -29.7754
L23.1434 -29.5205
L23.2753 -29.2655
L23.41 -29.0104
L23.5475 -28.7551
L23.6878 -28.4997
L23.8312 -28.244
L23.9775 -27.9882
L24.1269 -27.7322
L24.2795 -27.476
L24.4353 -27.2195
L24.5943 -26.9628
L24.7567 -26.706
L24.9226 -26.4489
L25.0919 -26.1916
L25.2649 -25.9341
L25.4415 -25.6765
L25.6218 -25.4187
L25.806 -25.1608
L25.994 -24.9028
L26.1861 -24.6448
L26.3822 -24.3868
L26.5825 -24.1289
L26.7871 -23.871
L26.996 -23.6134
L27.2093 -23.356
L27.4271 -23.099
L27.6495 -22.8424
L27.8766 -22.5863
L28.1084 -22.3309
L28.3451 -22.0763
L28.5868 -21.8226
L28.8334 -21.5698
L29.0851 -21.3183
L29.342 -21.0682
L29.6042 -20.8196
L29.8716 -20.5728
L30.1444 -20.3279
L30.4226 -20.0852
L30.7062 -19.8449
L30.9954 -19.6074
L31.2901 -19.3728
L31.5903 -19.1415
L31.8961 -18.9137
L32.2074 -18.69
L32.5243 -18.4705
L32.8467 -18.2557
L33.1746 -18.046
L33.508 -17.8418
L33.8466 -17.6437
L34.1905 -17.452
L34.5396 -17.2674
L34.8936 -17.0903
L35.2525 -16.9214
L35.616 -16.7611
L35.9839 -16.6103
L36.356 -16.4694
L36.732 -16.3393
L37.1115 -16.2205
L37.4943 -16.1138
L37.8799 -16.02
L38.2678 -15.9396
L38.6578 -15.8736
L39.0491 -15.8225
L39.4415 -15.787
L39.8341 -15.7678
L40.2266 -15.7654
L40.6182 -15.7803
L41.0084 -15.8129
L41.3965 -15.8636
L41.7818 -15.9324
L42.1638 -16.0196
L42.5419 -16.125
L42.9154 -16.2484
L43.2839 -16.3895
L43.6467 -16.5479
L44.0034 -16.723
L44.3535 -16.9142
L44.6968 -17.1208
L45.0328 -17.342
L45.3613 -17.5771
L45.6819 -17.8251
L45.9946 -18.0852
L46.2991 -18.3565
L46.5954 -18.6383
L46.8833 -18.9295
L47.1627 -19.2296
L47.4338 -19.5376
L47.6963 -19.8527
L47.9505 -20.1744
L48.1963 -20.5019
L48.4337 -20.8345
L48.6629 -21.1717
L48.884 -21.5129
L49.097 -21.8575
L49.3021 -22.2051
L49.4994 -22.5551
L49.689 -22.9072
L49.8711 -23.261
L50.0458 -23.616
L50.2133 -23.9719
L50.3736 -24.3284
L50.527 -24.6852
L50.6737 -25.0421
L50.8137 -25.3988
L50.9473 -25.755
L51.0745 -26.1106
L51.1957 -26.4654
L51.3108 -26.8192
L51.4201 -27.1718
L51.5236 -27.5231
L51.6217 -27.873
L51.7144 -28.2214
L51.8018 -28.5682
L51.8841 -28.9133
L51.9615 -29.2566
L52.034 -29.598
L52.1019 -29.9376
L52.1652 -30.2753
L52.224 -30.6109
L52.2785 -30.9446
L52.3288 -31.2763
L52.375 -31.6059
L52.4172 -31.9334
L52.4555 -32.259
L52.4901 -32.5824
L52.5209 -32.9039
L52.5482 -33.2233
L52.572 -33.5407
L52.5923 -33.8561
L52.6093 -34.1696
L52.6231 -34.4811
L52.6336 -34.7907
L52.6411 -35.0984
L52.6455 -35.4043
L52.6469 -35.7083
L52.6454 -36.0106
L52.641 -36.3112
L52.6338 -36.61
L52.6238 -36.9072
L52.6111 -37.2028
L52.5958 -37.4968
L52.5778 -37.7893
L52.5571 -38.0803
L52.534 -38.3699
L52.5083 -38.658
L52.48 -38.9449
L52.4493 -39.2305
L52.4162 -39.5148
L52.3805 -39.7979
L52.3425 -40.0799
L52.3021 -40.3607
L52.2592 -40.6406
L52.214 -40.9194
L52.1664 -41.1972
L52.1164 -41.4742
L52.064 -41.7503
L52.0093 -42.0255
L51.9522 -42.3
L51.8927 -42.5738
L51.8307 -42.8469
L51.7664 -43.1194
L51.6997 -43.3913
L51.6305 -43.6626
L51.5589 -43.9334
L51.4848 -44.2038
L51.4082 -44.4737
L51.329 -44.7433
L51.2474 -45.0125
L51.1631 -45.2815
L51.0762 -45.5501
L50.9866 -45.8186
L50.8944 -46.0868
L50.7994 -46.3549
L50.7017 -46.6229
L50.6011 -46.8908
L50.4976 -47.1586
L50.3913 -47.4263
L50.2819 -47.6941
L50.1695 -47.9619
L50.054 -48.2297
L49.9353 -48.4976
L49.8135 -48.7656
L49.6883 -49.0336
L49.5597 -49.3018
L49.4278 -49.5701
L49.2923 -49.8385
L49.1532 -50.107
L49.0104 -50.3757
L48.8639 -50.6445
L48.7135 -50.9134
L48.5592 -51.1825
L48.4008 -51.4516
L48.2383 -51.7208
L48.0716 -51.9901
L47.9005 -52.2594
L47.725 -52.5288
L47.5449 -52.7981
L47.3602 -53.0673
L47.1707 -53.3363
L46.9763 -53.6052
L46.7769 -53.8738
L46.5724 -54.1421
L46.3627 -54.41
L46.1475 -54.6774
L45.9269 -54.9441
L45.7007 -55.2102
L45.4687 -55.4754
L45.2309 -55.7397
L44.9871 -56.0028
L44.7372 -56.2647
L44.481 -56.5252
L44.2185 -56.7841
L43.9495 -57.0412
L43.6739 -57.2963
L43.3916 -57.5491
L43.1025 -57.7995
L42.8066 -58.0472
L42.5036 -58.2919
L42.1935 -58.5333
L41.8763 -58.7711
L41.5518 -59.005
L41.2201 -59.2346
L40.8811 -59.4595
L40.5347 -59.6794
L40.181 -59.8939
L39.82 -60.1024
L39.4517 -60.3046
L39.0762 -60.5
L38.6936 -60.688
L38.304 -60.8681
L37.9075 -61.0398
L37.5044 -61.2025
L37.0948 -61.3556
L36.6791 -61.4984
L36.2575 -61.6304
L35.8304 -61.7509
L35.3983 -61.8592
L34.9615 -61.9546
L34.5207 -62.0365
L34.0764 -62.1042
L33.6292 -62.1571
L33.1798 -62.1945
L32.7291 -62.2158
L32.2777 -62.2206
L31.8266 -62.2081
L31.3765 -62.1782
L30.9285 -62.1304
L30.4835 -62.0645
L30.0423 -61.9803
L29.6059 -61.8779
L29.1752 -61.7573
L28.7511 -61.6188
L28.3343 -61.4628
L27.9257 -61.2897
L27.5258 -61.1001
L27.1352 -60.8945
L26.7546 -60.6739
L26.3843 -60.439
L26.0246 -60.1905
L25.6759 -59.9294
L25.3383 -59.6566
L25.012 -59.373
L24.697 -59.0794
L24.3934 -58.7767
L24.1011 -58.4657
L23.8201 -58.1473
L23.5503 -57.8221
L23.2914 -57.4911
L23.0434 -57.1547
L22.8061 -56.8137
L22.5793 -56.4687
L22.3627 -56.1203
L22.1561 -55.7691
L21.9593 -55.4154
L21.772 -55.0598
L21.594 -54.7027
L21.4251 -54.3446
L21.2649 -53.9857
L21.1133 -53.6265
L20.9699 -53.2672
L20.8346 -52.908
L20.707 -52.5494
L20.587 -52.1915
L20.4742 -51.8345
L20.3686 -51.4786
L20.2697 -51.1241
L20.1774 -50.771
L20.0915 -50.4194
L20.0118 -50.0697
L19.9381 -49.7217
L19.8701 -49.3757
L19.8076 -49.0316
L19.7506 -48.6897
L19.6987 -48.3499
L19.6518 -48.0123
L19.6098 -47.6769
L19.5724 -47.3439
L19.5396 -47.0131
L19.5112 -46.6846
L19.4869 -46.3585
L19.4668 -46.0346
L19.4506 -45.7131
L19.4382 -45.394
L19.4296 -45.0771
L19.4245 -44.7625
L19.4229 -44.4502
L19.4247 -44.1402
L19.4297 -43.8323
L19.438 -43.5267
L19.4493 -43.2232
L19.4636 -42.9218
L19.4808 -42.6225
L19.5009 -42.3253
L19.5237 -42.03
L19.5492 -41.7368
L19.5774 -41.4454
L19.6081 -41.1559
L19.6414 -40.8682
L19.6771 -40.5823
L19.7153 -40.2981
L19.7558 -40.0156
L19.7986 -39.7347
L19.8438 -39.4554
L19.8912 -39.1776
L19.9408 -38.9012
L19.9926 -38.6263
L20.0465 -38.3528
L20.1026 -38.0806
L20.1608 -37.8096
L20.2212 -37.5399
L20.2836 -37.2713
L20.348 -37.0039
L20.4146 -36.7375
L20.4831 -36.4721
L20.5538 -36.2077
L20.6264 -35.9442
L20.7012 -35.6815
L20.7779 -35.4197
L20.8567 -35.1586
z
" id="C0_1_b4e81710b7"/>
    </defs>
    <g clip-path="url(#p1bffca34e9)">
     <use style="fill:#ffffff;stroke:#000000;stroke-width:2.0;" x="0.0" xlink:href="#C0_0_a811fe30f3" y="72.0"/>
    </g>
    <g clip-path="url(#p1bffca34e9)">
     <use style="fill:#ff0000;stroke:#000000;stroke-width:2.0;" x="0.0" xlink:href="#C0_1_b4e81710b7" y="72.0"/>
    </g>
   </g>
  </g>
 </g>
 <defs>
  <clipPath id="p1bffca34e9">
   <rect height="72.0" width="72.0" x="0.0" y="0.0"/>
  </clipPath>
 </defs>
</svg>
