<?xml version="1.0" encoding="utf-8" standalone="no"?>
<!DOCTYPE svg PUBLIC "-//W3C//DTD SVG 1.1//EN"
  "http://www.w3.org/Graphics/SVG/1.1/DTD/svg11.dtd">
<!-- Created with matplotlib (http://matplotlib.org/) -->
<svg height="72pt" version="1.1" viewBox="0 0 72 72" width="72pt" xmlns="http://www.w3.org/2000/svg" xmlns:xlink="http://www.w3.org/1999/xlink">
 <defs>
  <style type="text/css">
*{stroke-linecap:butt;stroke-linejoin:round;}
  </style>
 </defs>
 <g id="figure_1">
  <g id="patch_1">
   <path d="
M0 72
L72 72
L72 0
L0 0
z
" style="fill:none;"/>
  </g>
  <g id="axes_1">
   <g id="PatchCollection_1">
    <defs>
     <path d="
M36 -7.5
C43.5583 -7.5 50.808 -10.5029 56.1525 -15.8475
C61.4971 -21.192 64.5 -28.4417 64.5 -36
C64.5 -43.5583 61.4971 -50.808 56.1525 -56.1525
C50.808 -61.4971 43.5583 -64.5 36 -64.5
C28.4417 -64.5 21.192 -61.4971 15.8475 -56.1525
C10.5029 -50.808 7.5 -43.5583 7.5 -36
C7.5 -28.4417 10.5029 -21.192 15.8475 -15.8475
C21.192 -10.5029 28.4417 -7.5 36 -7.5
z
" id="C0_0_a811fe30f3"/>
     <path d="
M41.2101 -38.1647
L41.1692 -37.9111
L41.1274 -37.6574
L41.0846 -37.4036
L41.0408 -37.1498
L40.996 -36.8958
L40.9501 -36.6416
L40.9033 -36.3872
L40.8554 -36.1325
L40.8065 -35.8775
L40.7565 -35.622
L40.7055 -35.3662
L40.6533 -35.1098
L40.6 -34.853
L40.5456 -34.5956
L40.49 -34.3376
L40.4332 -34.0789
L40.3752 -33.8195
L40.316 -33.5594
L40.2555 -33.2985
L40.1937 -33.0368
L40.1306 -32.7742
L40.0662 -32.5107
L40.0003 -32.2463
L39.9331 -31.981
L39.8644 -31.7146
L39.7942 -31.4471
L39.7225 -31.1786
L39.6492 -30.909
L39.5743 -30.6383
L39.4977 -30.3664
L39.4195 -30.0933
L39.3395 -29.819
L39.2578 -29.5435
L39.1742 -29.2668
L39.0887 -28.9888
L39.0013 -28.7095
L38.9118 -28.429
L38.8204 -28.1472
L38.7268 -27.8641
L38.631 -27.5798
L38.533 -27.2942
L38.4327 -27.0074
L38.33 -26.7194
L38.2249 -26.4302
L38.1172 -26.1398
L38.007 -25.8484
L37.8941 -25.5559
L37.7784 -25.2624
L37.6599 -24.968
L37.5385 -24.6728
L37.414 -24.3768
L37.2865 -24.0801
L37.1557 -23.7829
L37.0217 -23.4852
L36.8842 -23.1873
L36.7432 -22.8892
L36.5985 -22.5911
L36.4501 -22.2932
L36.2978 -21.9957
L36.1415 -21.6988
L35.9811 -21.4028
L35.8163 -21.1079
L35.6472 -20.8143
L35.4734 -20.5224
L35.2949 -20.2325
L35.1115 -19.945
L34.923 -19.6602
L34.7292 -19.3785
L34.53 -19.1003
L34.325 -18.8262
L34.1143 -18.5567
L33.8974 -18.2921
L33.6742 -18.0332
L33.4445 -17.7805
L33.2081 -17.5347
L32.9646 -17.2963
L32.7139 -17.0662
L32.4558 -16.8449
L32.19 -16.6334
L31.9163 -16.4322
L31.6346 -16.2423
L31.3446 -16.0644
L31.0463 -15.8992
L30.7396 -15.7476
L30.4244 -15.6102
L30.1008 -15.4878
L29.7689 -15.381
L29.4288 -15.2904
L29.0808 -15.2164
L28.7252 -15.1596
L28.3624 -15.1201
L27.9928 -15.0983
L27.6171 -15.0942
L27.2359 -15.1078
L26.8497 -15.139
L26.4594 -15.1876
L26.0657 -15.2534
L25.6693 -15.336
L25.271 -15.4349
L24.8716 -15.5496
L24.4718 -15.6798
L24.0724 -15.8246
L23.6741 -15.9837
L23.2776 -16.1563
L22.8835 -16.3419
L22.4925 -16.5398
L22.105 -16.7493
L21.7217 -16.9699
L21.3429 -17.201
L20.9692 -17.4419
L20.6008 -17.6921
L20.2383 -17.9509
L19.8818 -18.2179
L19.5317 -18.4925
L19.1882 -18.7742
L18.8515 -19.0625
L18.5218 -19.3568
L18.1992 -19.6569
L17.8838 -19.9622
L17.5758 -20.2723
L17.2752 -20.5868
L16.9821 -20.9053
L16.6964 -21.2276
L16.4183 -21.5532
L16.1477 -21.8818
L15.8845 -22.2132
L15.6288 -22.547
L15.3805 -22.883
L15.1396 -23.221
L14.9059 -23.5606
L14.6795 -23.9018
L14.4602 -24.2442
L14.248 -24.5877
L14.0428 -24.9322
L13.8444 -25.2774
L13.6528 -25.6232
L13.4679 -25.9694
L13.2896 -26.316
L13.1178 -26.6628
L12.9523 -27.0097
L12.7931 -27.3566
L12.6401 -27.7034
L12.4931 -28.0501
L12.3521 -28.3965
L12.217 -28.7426
L12.0876 -29.0883
L11.9639 -29.4337
L11.8458 -29.7785
L11.7331 -30.1229
L11.6258 -30.4667
L11.5238 -30.81
L11.4271 -31.1527
L11.3354 -31.4948
L11.2488 -31.8363
L11.1671 -32.1771
L11.0903 -32.5173
L11.0183 -32.8569
L10.9511 -33.1959
L10.8886 -33.5342
L10.8307 -33.8719
L10.7773 -34.209
L10.7285 -34.5455
L10.684 -34.8814
L10.6441 -35.2167
L10.6084 -35.5515
L10.5771 -35.8857
L10.55 -36.2195
L10.5273 -36.5527
L10.5087 -36.8855
L10.4943 -37.2179
L10.484 -37.5498
L10.4779 -37.8813
L10.4759 -38.2125
L10.4781 -38.5434
L10.4843 -38.8739
L10.4946 -39.2042
L10.509 -39.5342
L10.5275 -39.8641
L10.5501 -40.1937
L10.5768 -40.5232
L10.6076 -40.8525
L10.6425 -41.1818
L10.6815 -41.511
L10.7247 -41.8401
L10.7721 -42.1693
L10.8237 -42.4984
L10.8795 -42.8276
L10.9396 -43.1569
L11.004 -43.4862
L11.0728 -43.8157
L11.146 -44.1453
L11.2237 -44.475
L11.3058 -44.8049
L11.3925 -45.135
L11.4838 -45.4652
L11.5799 -45.7957
L11.6806 -46.1264
L11.7862 -46.4573
L11.8967 -46.7884
L12.0122 -47.1198
L12.1327 -47.4514
L12.2584 -47.7832
L12.3892 -48.1152
L12.5255 -48.4474
L12.6671 -48.7797
L12.8143 -49.1122
L12.967 -49.4449
L13.1255 -49.7776
L13.2899 -50.1104
L13.4601 -50.4432
L13.6365 -50.7759
L13.8189 -51.1086
L14.0077 -51.4411
L14.2029 -51.7733
L14.4046 -52.1053
L14.613 -52.4368
L14.8282 -52.7679
L15.0502 -53.0984
L15.2793 -53.4281
L15.5155 -53.7571
L15.759 -54.085
L16.0099 -54.4119
L16.2682 -54.7374
L16.5343 -55.0616
L16.808 -55.3841
L17.0896 -55.7048
L17.3792 -56.0236
L17.6768 -56.34
L17.9825 -56.654
L18.2965 -56.9653
L18.6187 -57.2736
L18.9492 -57.5786
L19.2882 -57.8801
L19.6355 -58.1777
L19.9913 -58.4711
L20.3555 -58.76
L20.728 -59.0439
L21.1089 -59.3226
L21.498 -59.5955
L21.8953 -59.8624
L22.3006 -60.1228
L22.7138 -60.3762
L23.1345 -60.6222
L23.5628 -60.8603
L23.9981 -61.0901
L24.4402 -61.3109
L24.8888 -61.5224
L25.3434 -61.7241
L25.8035 -61.9153
L26.2687 -62.0956
L26.7384 -62.2644
L27.2118 -62.4213
L27.6884 -62.5656
L28.1674 -62.697
L28.6479 -62.8148
L29.1291 -62.9187
L29.6101 -63.0081
L30.0899 -63.0825
L30.5675 -63.1418
L31.0419 -63.1853
L31.5119 -63.213
L31.9765 -63.2244
L32.4346 -63.2194
L32.8851 -63.1979
L33.3269 -63.1599
L33.7591 -63.1053
L34.1806 -63.0342
L34.5907 -62.947
L34.9885 -62.8437
L35.3734 -62.7249
L35.7449 -62.5908
L36.1026 -62.4421
L36.4461 -62.2794
L36.7753 -62.1031
L37.0901 -61.914
L37.3906 -61.7129
L37.677 -61.5003
L37.9494 -61.2771
L38.2083 -61.0439
L38.454 -60.8016
L38.6869 -60.5507
L38.9074 -60.2921
L39.1161 -60.0263
L39.3133 -59.7541
L39.4997 -59.476
L39.6757 -59.1926
L39.8418 -58.9044
L39.9984 -58.612
L40.146 -58.316
L40.2851 -58.0166
L40.416 -57.7144
L40.5392 -57.4097
L40.6551 -57.103
L40.764 -56.7945
L40.8662 -56.4847
L40.9622 -56.1737
L41.0522 -55.8619
L41.1365 -55.5495
L41.2154 -55.2368
L41.2892 -54.9239
L41.3581 -54.6111
L41.4223 -54.2985
L41.4821 -53.9863
L41.5376 -53.6747
L41.5892 -53.3638
L41.6369 -53.0537
L41.6809 -52.7445
L41.7215 -52.4363
L41.7587 -52.1292
L41.7928 -51.8234
L41.8238 -51.5188
L41.8519 -51.2155
L41.8772 -50.9135
L41.8999 -50.613
L41.9201 -50.314
L41.9377 -50.0164
L41.9531 -49.7203
L41.9662 -49.4257
L41.9772 -49.1327
L41.9861 -48.8411
L41.993 -48.5512
L41.998 -48.2627
L42.0012 -47.9758
L42.0026 -47.6904
L42.0023 -47.4065
L42.0003 -47.1241
L41.9968 -46.8432
L41.9917 -46.5637
L41.9852 -46.2857
L41.9772 -46.009
L41.9678 -45.7337
L41.9571 -45.4597
L41.945 -45.187
L41.9317 -44.9156
L41.9171 -44.6454
L41.9014 -44.3764
L41.8844 -44.1086
L41.8663 -43.8419
L41.8471 -43.5762
L41.8267 -43.3116
L41.8053 -43.0479
L41.7829 -42.7852
L41.7593 -42.5234
L41.7348 -42.2624
L41.7092 -42.0023
L41.6827 -41.7429
L41.6551 -41.4842
L41.6266 -41.2262
L41.5971 -40.9688
L41.5667 -40.7119
L41.5353 -40.4556
L41.5029 -40.1998
L41.4696 -39.9444
L41.4354 -39.6894
L41.4002 -39.4348
L41.3641 -39.1804
L41.327 -38.9262
L41.289 -38.6723
z
" id="C0_1_001a06235f"/>
    </defs>
    <g clip-path="url(#p1bffca34e9)">
     <use style="fill:#ffffff;stroke:#000000;stroke-width:2.0;" x="0.0" xlink:href="#C0_0_a811fe30f3" y="72.0"/>
    </g>
    <g clip-path="url(#p1bffca34e9)">
     <use style="fill:#ff0000;stroke:#000000;stroke-width:2.0;" x="0.0" xlink:href="#C0_1_001a06235f" y="72.0"/>
    </g>
   </g>
  </g>
 </g>
 <defs>
  <clipPath id="p1bffca34e9">
   <rect height="72.0" width="72.0" x="0.0" y="0.0"/>
  </clipPath>
 </defs>
</svg>
