<?xml version="1.0" encoding="utf-8" standalone="no"?>
<!DOCTYPE svg PUBLIC "-//W3C//DTD SVG 1.1//EN"
  "http://www.w3.org/Graphics/SVG/1.1/DTD/svg11.dtd">
<!-- Created with matplotlib (http://matplotlib.org/) -->
<svg height="72pt" version="1.1" viewBox="0 0 72 72" width="72pt" xmlns="http://www.w3.org/2000/svg" xmlns:xlink="http://www.w3.org/1999/xlink">
 <defs>
  <style type="text/css">
*{stroke-linecap:butt;stroke-linejoin:round;}
  </style>
 </defs>
 <g id="figure_1">
  <g id="patch_1">
   <path d="
M0 72
L72 72
L72 0
L0 0
z
" style="fill:none;"/>
  </g>
  <g id="axes_1">
   <g id="PatchCollection_1">
    <defs>
     <path d="
M36 -7.5
C43.5583 -7.5 50.808 -10.5029 56.1525 -15.8475
C61.4971 -21.192 64.5 -28.4417 64.5 -36
C64.5 -43.5583 61.4971 -50.808 56.1525 -56.1525
C50.808 -61.4971 43.5583 -64.5 36 -64.5
C28.4417 -64.5 21.192 -61.4971 15.8475 -56.1525
C10.5029 -50.808 7.5 -43.5583 7.5 -36
C7.5 -28.4417 10.5029 -21.192 15.8475 -15.8475
C21.192 -10.5029 28.4417 -7.5 36 -7.5
z
" id="C0_0_a811fe30f3"/>
     <path d="
M31.3534 -63.9795
L31.4749 -63.8043
L31.593 -63.6271
L31.708 -63.448
L31.8199 -63.267
L31.9287 -63.0841
L32.0347 -62.8994
L32.1377 -62.713
L32.2379 -62.5248
L32.3354 -62.3349
L32.4303 -62.1433
L32.5226 -61.9501
L32.6123 -61.7552
L32.6996 -61.5588
L32.7845 -61.3608
L32.867 -61.1612
L32.9472 -60.96
L33.0251 -60.7574
L33.1009 -60.5532
L33.1744 -60.3475
L33.2458 -60.1403
L33.3152 -59.9316
L33.4477 -59.7214
L33.511 -59.5098
L33.5723 -59.2966
L33.6317 -59.082
L33.6892 -58.8659
L33.7448 -58.6484
L33.7986 -58.4294
L33.8505 -58.2089
L33.9007 -57.987
L33.949 -57.7635
L33.9955 -57.5386
L34.0403 -57.3122
L34.0833 -57.0844
L34.1246 -56.855
L34.1642 -56.6242
L34.202 -56.3918
L34.2381 -56.158
L34.2724 -55.9226
L34.3051 -55.6858
L34.336 -55.4474
L34.3653 -55.2075
L34.3928 -54.9661
L34.4185 -54.7232
L34.4426 -54.4787
L34.4649 -54.2327
L34.4855 -53.9851
L34.5043 -53.7361
L34.5213 -53.4855
L34.5366 -53.2333
L34.55 -52.9796
L34.5617 -52.7244
L34.5715 -52.4676
L34.5795 -52.2093
L34.5856 -51.9495
L34.5898 -51.6882
L34.592 -51.4253
L34.5923 -51.161
L34.5907 -50.8951
L34.587 -50.6278
L34.5813 -50.359
L34.5736 -50.0888
L34.5637 -49.8172
L34.5517 -49.5441
L34.5375 -49.2697
L34.5211 -48.9939
L34.5024 -48.7168
L34.4814 -48.4384
L34.4581 -48.1588
L34.4324 -47.8779
L34.4042 -47.5959
L34.3736 -47.3127
L34.3404 -47.0284
L34.3046 -46.7431
L34.2662 -46.4568
L34.2251 -46.1696
L34.1812 -45.8815
L34.1345 -45.5925
L34.085 -45.3029
L34.0326 -45.0126
L33.9771 -44.7216
L33.9187 -44.4302
L33.8571 -44.1383
L33.7924 -43.846
L33.7244 -43.5535
L33.6532 -43.2608
L33.5786 -42.968
L33.5007 -42.6753
L33.4193 -42.3826
L33.3344 -42.0902
L33.2459 -41.7981
L33.1538 -41.5064
L33.0581 -41.2153
L32.9586 -40.9249
L32.8554 -40.6352
L32.7483 -40.3464
L32.6374 -40.0586
L32.5226 -39.772
L32.4039 -39.4866
L32.2813 -39.2026
L32.1547 -38.9201
L32.0241 -38.6392
L31.8894 -38.3601
L31.7508 -38.0828
L31.6081 -37.8075
L31.4615 -37.5343
L31.3108 -37.2633
L31.1561 -36.9947
L30.9975 -36.7285
L30.8349 -36.4648
L30.6683 -36.2038
L30.498 -35.9455
L30.3238 -35.6901
L30.1458 -35.4377
L29.9641 -35.1882
L29.7787 -34.9419
L29.5898 -34.6988
L29.3974 -34.4589
L29.2016 -34.2224
L29.0024 -33.9894
L28.8 -33.7597
L28.5945 -33.5336
L28.3859 -33.3111
L28.1744 -33.0923
L27.9601 -32.877
L27.743 -32.6655
L27.5234 -32.4578
L27.3012 -32.2538
L27.0767 -32.0536
L26.8499 -31.8572
L26.621 -31.6646
L26.3901 -31.4759
L26.1572 -31.291
L25.9226 -31.11
L25.6863 -30.9328
L25.4485 -30.7595
L25.2092 -30.59
L24.9686 -30.4244
L24.7267 -30.2626
L24.4838 -30.1047
L24.2398 -29.9505
L23.995 -29.8002
L23.7493 -29.6536
L23.503 -29.5108
L23.256 -29.3717
L23.0085 -29.2363
L22.7605 -29.1047
L22.5122 -28.9767
L22.2636 -28.8523
L22.0149 -28.7316
L21.766 -28.6145
L21.517 -28.5009
L21.2681 -28.3909
L21.0192 -28.2845
L20.7705 -28.1815
L20.522 -28.082
L20.2737 -27.9859
L20.0257 -27.8933
L19.7781 -27.8041
L19.5309 -27.7182
L19.284 -27.6357
L19.0377 -27.5565
L18.7919 -27.4806
L18.5466 -27.408
L18.3019 -27.3387
L18.0578 -27.2726
L17.8143 -27.2097
L17.5714 -27.15
L17.3293 -27.0935
L17.0878 -27.0402
L16.847 -26.9901
L16.607 -26.9431
L16.3677 -26.8993
L16.1291 -26.8585
L15.8914 -26.8209
L15.6543 -26.7864
L15.4181 -26.7551
L15.1827 -26.7268
L14.948 -26.7016
L14.7142 -26.6795
L14.4811 -26.6606
L14.2489 -26.6447
L14.0174 -26.632
L13.7868 -26.6223
L13.557 -26.6159
L13.328 -26.6125
L13.0998 -26.6123
L12.8724 -26.6153
L12.6458 -26.6215
L12.42 -26.6309
L12.1951 -26.6435
L11.9709 -26.6594
L11.7475 -26.6786
L11.525 -26.7011
L11.3032 -26.727
L11.0822 -26.7562
L10.862 -26.7889
L10.6427 -26.825
L10.4241 -26.8647
L10.2063 -26.9079
L9.98933 -26.9547
L9.77316 -27.0052
L9.55779 -27.0594
L9.34324 -27.1174
L9.12951 -27.1793
L8.91661 -27.2451
L8.71355 -27.3148
L8.5741 -27.772
L8.44302 -28.2495
L8.32032 -28.7293
L8.20606 -29.2114
L8.10026 -29.6955
L8.00297 -30.1815
L7.9142 -30.6693
L7.83398 -31.1587
L7.76235 -31.6496
L7.69932 -32.1419
L7.64491 -32.6353
L7.59913 -33.1297
L7.56201 -33.625
L7.53355 -34.121
L7.51376 -34.6176
L7.50264 -35.1146
L7.50021 -35.6119
L7.50646 -36.1093
L7.52139 -36.6067
L7.54499 -37.1039
L7.57726 -37.6008
L7.61819 -38.0971
L7.66776 -38.5928
L7.72597 -39.0878
L7.79279 -39.5818
L7.86819 -40.0747
L7.95217 -40.5663
L8.04469 -41.0566
L8.14573 -41.5454
L8.25525 -42.0324
L8.37323 -42.5176
L8.49962 -43.0008
L8.63438 -43.4819
L8.77748 -43.9607
L8.92888 -44.4371
L9.08852 -44.9109
L9.25635 -45.382
L9.43234 -45.8503
L9.61642 -46.3155
L9.80853 -46.7776
L10.0086 -47.2364
L10.2166 -47.6918
L10.4325 -48.1436
L10.6561 -48.5918
L10.8875 -49.0361
L11.1265 -49.4764
L11.3731 -49.9126
L11.6272 -50.3446
L11.8888 -50.7722
L12.1576 -51.1953
L12.4337 -51.6138
L12.7171 -52.0275
L13.0075 -52.4364
L13.3049 -52.8402
L13.6092 -53.2389
L13.9203 -53.6324
L14.2382 -54.0205
L14.5627 -54.4031
L14.8937 -54.7801
L15.2311 -55.1513
L15.5749 -55.5168
L15.9249 -55.8763
L16.281 -56.2297
L16.6432 -56.577
L17.0112 -56.918
L17.385 -57.2526
L17.7644 -57.5808
L18.1495 -57.9024
L18.5399 -58.2173
L18.9357 -58.5255
L19.3367 -58.8267
L19.7428 -59.1211
L20.1538 -59.4084
L20.5696 -59.6885
L20.9901 -59.9615
L21.4152 -60.2271
L21.8448 -60.4854
L22.2787 -60.7362
L22.7167 -60.9795
L23.1588 -61.2152
L23.6048 -61.4431
L24.0546 -61.6634
L24.508 -61.8758
L24.9649 -62.0803
L25.4252 -62.2769
L25.8887 -62.4655
L26.3552 -62.646
L26.8248 -62.8184
L27.2971 -62.9827
L27.772 -63.1387
L28.2495 -63.2865
L28.7293 -63.4259
L29.2114 -63.557
L29.6955 -63.6797
L30.1815 -63.7939
L30.6693 -63.8997
z
" id="C0_1_b472980a45"/>
     <path d="
M63.063 -44.538
L62.9307 -44.3547
L62.7971 -44.1707
L62.662 -43.986
L62.5257 -43.8005
L62.3879 -43.6143
L62.2487 -43.4273
L62.1082 -43.2396
L61.9662 -43.0511
L61.8228 -42.8618
L61.678 -42.6717
L61.5317 -42.4807
L61.384 -42.2889
L61.2349 -42.0963
L61.0843 -41.9028
L60.9322 -41.7084
L60.7787 -41.5131
L60.6237 -41.3168
L60.4672 -41.1197
L60.3093 -40.9216
L60.1498 -40.7225
L59.9889 -40.5224
L59.8265 -40.3213
L59.6627 -40.1192
L59.4973 -39.9161
L59.3305 -39.7119
L59.1622 -39.5066
L58.9924 -39.3002
L58.8211 -39.0928
L58.6484 -38.8842
L58.4742 -38.6744
L58.2986 -38.4635
L58.1215 -38.2515
L57.9431 -38.0382
L57.7632 -37.8237
L57.5819 -37.608
L57.3993 -37.3911
L57.2153 -37.1729
L57.03 -36.9534
L56.8434 -36.7326
L56.6556 -36.5106
L56.4665 -36.2872
L56.2762 -36.0625
L56.0848 -35.8364
L55.8922 -35.609
L55.6985 -35.3802
L55.5038 -35.1501
L55.3081 -34.9185
L55.1115 -34.6856
L54.914 -34.4512
L54.7156 -34.2154
L54.5165 -33.9782
L54.3167 -33.7395
L54.1162 -33.4994
L53.9152 -33.2579
L53.7137 -33.0149
L53.5117 -32.7704
L53.3094 -32.5244
L53.1069 -32.277
L52.9042 -32.0281
L52.7014 -31.7777
L52.4986 -31.5259
L52.2958 -31.2725
L52.0933 -31.0177
L51.891 -30.7615
L51.6892 -30.5038
L51.4878 -30.2446
L51.2869 -29.984
L51.0868 -29.722
L50.8874 -29.4585
L50.6889 -29.1937
L50.4913 -28.9275
L50.2949 -28.6599
L50.0996 -28.391
L49.9056 -28.1207
L49.7129 -27.8492
L49.5217 -27.5765
L49.332 -27.3025
L49.1439 -27.0273
L48.9576 -26.751
L48.773 -26.4736
L48.5903 -26.1951
L48.4096 -25.9157
L48.2308 -25.6352
L48.0541 -25.3539
L47.8795 -25.0718
L47.7071 -24.7888
L47.5369 -24.5052
L47.369 -24.2209
L47.2033 -23.936
L47.04 -23.6506
L46.879 -23.3647
L46.7204 -23.0785
L46.5641 -22.7921
L46.4103 -22.5054
L46.2588 -22.2185
L46.1097 -21.9317
L45.9631 -21.6449
L45.8187 -21.3581
L45.6768 -21.0716
L45.5372 -20.7854
L45.3999 -20.4996
L45.265 -20.2141
L45.1323 -19.9293
L45.0018 -19.645
L44.8736 -19.3614
L44.7476 -19.0786
L44.6237 -18.7967
L44.502 -18.5156
L44.3823 -18.2356
L44.2647 -17.9566
L44.149 -17.6787
L44.0354 -17.4021
L43.9236 -17.1267
L43.8137 -16.8526
L43.7057 -16.5799
L43.5995 -16.3086
L43.495 -16.0388
L43.3923 -15.7706
L43.2912 -15.5039
L43.1918 -15.2389
L43.094 -14.9755
L42.9977 -14.7139
L42.903 -14.4539
L42.8098 -14.1958
L42.718 -13.9395
L42.6277 -13.685
L42.5387 -13.4323
L42.4511 -13.1816
L42.3649 -12.9327
L42.2799 -12.6858
L42.1962 -12.4407
L42.1138 -12.1977
L42.0325 -11.9566
L41.9525 -11.7174
L41.8736 -11.4803
L41.7958 -11.2451
L41.7192 -11.0119
L41.6437 -10.7807
L41.5692 -10.5515
L41.4958 -10.3242
L41.4234 -10.099
L41.352 -9.87572
L41.2817 -9.65442
L41.2123 -9.43509
L41.1439 -9.21772
L41.0765 -9.0023
L41.01 -8.78883
L40.9445 -8.5773
L40.8799 -8.36768
L40.8162 -8.15999
L41.2521 -7.95419
L41.7402 -7.98812
L42.2265 -8.08405
L42.7109 -8.18848
L43.1933 -8.30138
L43.6735 -8.42273
L44.1514 -8.55247
L44.6267 -8.69057
L45.0995 -8.83699
L45.5695 -8.99168
L46.0365 -9.1546
L46.5005 -9.3257
L46.9613 -9.50493
L47.4188 -9.69222
L47.8728 -9.88753
L48.3232 -10.0908
L48.7698 -10.3019
L49.2125 -10.5209
L49.6512 -10.7477
L50.0857 -10.9821
L50.516 -11.2242
L50.9418 -11.4738
L51.3631 -11.7308
L51.7797 -11.9953
L52.1915 -12.2671
L52.5984 -12.5461
L53.0002 -12.8323
L53.3968 -13.1255
L53.7881 -13.4256
L54.174 -13.7327
L54.5544 -14.0465
L54.9291 -14.3671
L55.2981 -14.6942
L55.6612 -15.0278
L56.0182 -15.3678
L56.3692 -15.714
L56.714 -16.0665
L57.0525 -16.425
L57.3846 -16.7895
L57.7101 -17.1599
L58.029 -17.5359
L58.3413 -17.9176
L58.6467 -18.3049
L58.9452 -18.6975
L59.2367 -19.0953
L59.5212 -19.4984
L59.7985 -19.9064
L60.0685 -20.3194
L60.3312 -20.7371
L60.5865 -21.1595
L60.8343 -21.5864
L61.0746 -22.0177
L61.3072 -22.4532
L61.5321 -22.8929
L61.7492 -23.3366
L61.9585 -23.7841
L62.1598 -24.2353
L62.3532 -24.6902
L62.5386 -25.1484
L62.7159 -25.61
L62.8851 -26.0748
L63.046 -26.5425
L63.1987 -27.0132
L63.3432 -27.4866
L63.4793 -27.9625
L63.607 -28.441
L63.7263 -28.9217
L63.8372 -29.4046
L63.9396 -29.8895
L64.0335 -30.3762
L64.1189 -30.8647
L64.1957 -31.3547
L64.2639 -31.8462
L64.3235 -32.3389
L64.3744 -32.8327
L64.4167 -33.3275
L64.4504 -33.8231
L64.4754 -34.3194
L64.4917 -34.8162
L64.4994 -35.3133
L64.4983 -35.8107
L64.4886 -36.3081
L64.4702 -36.8054
L64.4432 -37.3025
L64.4074 -37.7992
L64.363 -38.2953
L64.31 -38.7907
L64.2484 -39.2853
L64.1781 -39.7789
L64.0993 -40.2713
L64.0119 -40.7624
L63.916 -41.2521
L63.8115 -41.7402
L63.6986 -42.2265
L63.5773 -42.7109
L63.4475 -43.1933
z
" id="C0_2_0bf012391d"/>
    </defs>
    <g clip-path="url(#p1bffca34e9)">
     <use style="fill:#ffffff;stroke:#000000;stroke-width:2.0;" x="0.0" xlink:href="#C0_0_a811fe30f3" y="72.0"/>
    </g>
    <g clip-path="url(#p1bffca34e9)">
     <use style="fill:#ff0000;stroke:#000000;stroke-width:2.0;" x="0.0" xlink:href="#C0_1_b472980a45" y="72.0"/>
    </g>
    <g clip-path="url(#p1bffca34e9)">
     <use style="fill:#ff0000;stroke:#000000;stroke-width:2.0;" x="0.0" xlink:href="#C0_2_0bf012391d" y="72.0"/>
    </g>
   </g>
  </g>
 </g>
 <defs>
  <clipPath id="p1bffca34e9">
   <rect height="72.0" width="72.0" x="0.0" y="0.0"/>
  </clipPath>
 </defs>
</svg>
