<?xml version="1.0" encoding="utf-8" standalone="no"?>
<!DOCTYPE svg PUBLIC "-//W3C//DTD SVG 1.1//EN"
  "http://www.w3.org/Graphics/SVG/1.1/DTD/svg11.dtd">
<!-- Created with matplotlib (http://matplotlib.org/) -->
<svg height="72pt" version="1.1" viewBox="0 0 72 72" width="72pt" xmlns="http://www.w3.org/2000/svg" xmlns:xlink="http://www.w3.org/1999/xlink">
 <defs>
  <style type="text/css">
*{stroke-linecap:butt;stroke-linejoin:round;}
  </style>
 </defs>
 <g id="figure_1">
  <g id="patch_1">
   <path d="
M0 72
L72 72
L72 0
L0 0
z
" style="fill:none;"/>
  </g>
  <g id="axes_1">
   <g id="PatchCollection_1">
    <defs>
     <path d="
M36 -7.5
C43.5583 -7.5 50.808 -10.5029 56.1525 -15.8475
C61.4971 -21.192 64.5 -28.4417 64.5 -36
C64.5 -43.5583 61.4971 -50.808 56.1525 -56.1525
C50.808 -61.4971 43.5583 -64.5 36 -64.5
C28.4417 -64.5 21.192 -61.4971 15.8475 -56.1525
C10.5029 -50.808 7.5 -43.5583 7.5 -36
C7.5 -28.4417 10.5029 -21.192 15.8475 -15.8475
C21.192 -10.5029 28.4417 -7.5 36 -7.5
z
" id="C0_0_a811fe30f3"/>
     <path d="
M13.987 -18.072
L14.1417 -18.1807
L14.2963 -18.2909
L14.4508 -18.4027
L14.6052 -18.516
L14.7596 -18.6308
L14.914 -18.7471
L15.0684 -18.8649
L15.2229 -18.9841
L15.3775 -19.1048
L15.5322 -19.227
L15.8422 -19.3506
L15.9975 -19.4757
L16.153 -19.6022
L16.3089 -19.7303
L16.465 -19.8598
L16.6215 -19.9907
L16.7784 -20.1232
L16.9357 -20.2572
L17.0934 -20.3927
L17.2515 -20.5297
L17.4101 -20.6683
L17.5693 -20.8084
L17.729 -20.9502
L17.8892 -21.0935
L18.05 -21.2384
L18.2115 -21.385
L18.3735 -21.5332
L18.5363 -21.6831
L18.6997 -21.8347
L18.8638 -21.9881
L19.0286 -22.1432
L19.1942 -22.3001
L19.3605 -22.4588
L19.5277 -22.6194
L19.6956 -22.7818
L19.8643 -22.9461
L20.0339 -23.1124
L20.2043 -23.2806
L20.3756 -23.4509
L20.5477 -23.6231
L20.7207 -23.7974
L20.8946 -23.9739
L21.0693 -24.1524
L21.245 -24.3331
L21.4215 -24.516
L21.599 -24.7012
L21.7773 -24.8886
L21.9564 -25.0783
L22.1365 -25.2703
L22.3173 -25.4648
L22.499 -25.6616
L22.6815 -25.8608
L22.8648 -26.0626
L23.0488 -26.2668
L23.2335 -26.4736
L23.4189 -26.6829
L23.605 -26.8949
L23.7915 -27.1094
L23.9787 -27.3267
L24.1662 -27.5466
L24.3541 -27.7692
L24.5424 -27.9946
L24.7308 -28.2227
L24.9194 -28.4536
L25.108 -28.6873
L25.2965 -28.9238
L25.4848 -29.1631
L25.6727 -29.4053
L25.8602 -29.6503
L26.0471 -29.8983
L26.2331 -30.149
L26.4182 -30.4027
L26.6022 -30.6592
L26.7848 -30.9186
L26.966 -31.1808
L27.1453 -31.4459
L27.3227 -31.7138
L27.4979 -31.9846
L27.6706 -32.2581
L27.8406 -32.5344
L28.0076 -32.8135
L28.1713 -33.0953
L28.3315 -33.3797
L28.4879 -33.6668
L28.6401 -33.9565
L28.7878 -34.2487
L28.9308 -34.5433
L29.0687 -34.8404
L29.2013 -35.1399
L29.3282 -35.4416
L29.4491 -35.7455
L29.5637 -36.0515
L29.6719 -36.3595
L29.7733 -36.6695
L29.8676 -36.9813
L29.9547 -37.2948
L30.0344 -37.6099
L30.1065 -37.9265
L30.1708 -38.2445
L30.2273 -38.5636
L30.2758 -38.8839
L30.3163 -39.2051
L30.3488 -39.5271
L30.3734 -39.8497
L30.39 -40.1728
L30.3987 -40.4963
L30.3996 -40.8198
L30.3929 -41.1434
L30.3788 -41.4668
L30.3573 -41.7899
L30.3288 -42.1124
L30.2934 -42.4342
L30.2513 -42.7553
L30.2028 -43.0753
L30.1482 -43.3941
L30.0877 -43.7117
L30.0216 -44.0277
L29.9502 -44.3422
L29.8736 -44.6549
L29.7923 -44.9657
L29.7064 -45.2745
L29.6162 -45.5811
L29.522 -45.8855
L29.4239 -46.1876
L29.3224 -46.4872
L29.2175 -46.7843
L29.1095 -47.0787
L28.9986 -47.3704
L28.885 -47.6593
L28.7689 -47.9454
L28.6506 -48.2286
L28.5301 -48.5088
L28.4076 -48.786
L28.2833 -49.0601
L28.1574 -49.3312
L28.03 -49.5992
L27.9012 -49.864
L27.7711 -50.1257
L27.6398 -50.3842
L27.5075 -50.6396
L27.3743 -50.8918
L27.2402 -51.1408
L27.1053 -51.3867
L26.9698 -51.6293
L26.8336 -51.8689
L26.6969 -52.1053
L26.5597 -52.3385
L26.422 -52.5687
L26.284 -52.7958
L26.1456 -53.0198
L26.007 -53.2407
L25.868 -53.4587
L25.7289 -53.6737
L25.5895 -53.8857
L25.4499 -54.0948
L25.3102 -54.301
L25.1704 -54.5043
L25.0304 -54.7048
L24.8903 -54.9025
L24.7501 -55.0974
L24.6099 -55.2895
L24.4695 -55.479
L24.329 -55.6658
L24.1885 -55.85
L24.0478 -56.0315
L23.9071 -56.2105
L23.7662 -56.3869
L23.6252 -56.5608
L23.4841 -56.7322
L23.3429 -56.9012
L23.2015 -57.0678
L23.0599 -57.2319
L22.9181 -57.3936
L22.7762 -57.5531
L22.634 -57.7101
L22.4916 -57.8649
L22.3488 -58.0174
L22.2058 -58.1676
L22.0625 -58.3156
L21.9188 -58.4614
L21.7748 -58.6049
L21.6303 -58.7463
L21.4854 -58.8855
L21.3401 -59.0225
L21.1942 -59.1573
L21.0478 -59.29
L20.9008 -59.4205
L20.7532 -59.5488
L20.6049 -59.675
L20.1051 -59.7991
L19.6947 -59.6559
L19.2892 -59.3749
L18.8889 -59.0868
L18.4937 -58.7916
L18.1039 -58.4895
L17.7195 -58.1806
L17.3407 -57.8649
L16.9676 -57.5425
L16.6002 -57.2136
L16.2388 -56.8782
L15.8834 -56.5364
L15.5341 -56.1884
L15.1911 -55.8343
L14.8544 -55.4741
L14.5241 -55.1079
L14.2004 -54.736
L13.8833 -54.3583
L13.573 -53.9751
L13.2695 -53.5864
L12.9729 -53.1923
L12.6833 -52.7929
L12.4009 -52.3885
L12.1256 -51.9791
L11.8576 -51.5648
L11.5969 -51.1458
L11.3437 -50.7221
L11.098 -50.294
L10.8599 -49.8615
L10.6294 -49.4248
L10.4067 -48.984
L10.1917 -48.5392
L9.98466 -48.0906
L9.7855 -47.6384
L9.59433 -47.1826
L9.4112 -46.7234
L9.23618 -46.2609
L9.0693 -45.7953
L8.91063 -45.3267
L8.76021 -44.8553
L8.61809 -44.3812
L8.4843 -43.9045
L8.3589 -43.4254
L8.24192 -42.9441
L8.1334 -42.4606
L8.03336 -41.9752
L7.94184 -41.4879
L7.85887 -40.999
L7.78447 -40.5085
L7.71867 -40.0167
L7.66148 -39.5237
L7.61292 -39.0296
L7.57301 -38.5345
L7.54176 -38.0387
L7.51918 -37.5423
L7.50527 -37.0454
L7.50005 -36.5482
L7.5035 -36.0508
L7.51563 -35.5534
L7.53644 -35.0561
L7.56593 -34.5592
L7.60407 -34.0626
L7.65086 -33.5667
L7.70629 -33.0715
L7.77034 -32.5771
L7.84298 -32.0839
L7.9242 -31.5918
L8.01398 -31.1011
L8.11228 -30.6118
L8.21907 -30.1242
L8.33433 -29.6384
L8.45801 -29.1545
L8.59008 -28.6727
L8.73051 -28.1932
L8.87924 -27.716
L9.03623 -27.2413
L9.20143 -26.7694
L9.3748 -26.3002
L9.55627 -25.834
L9.74581 -25.3708
L9.94333 -24.9109
L10.1488 -24.4544
L10.3621 -24.0014
L10.5833 -23.5521
L10.8122 -23.1066
L11.0488 -22.6649
L11.2929 -22.2274
L11.5446 -21.794
L11.8037 -21.365
L12.0703 -20.9404
L12.3441 -20.5204
L12.6251 -20.1051
L12.9132 -19.6947
L13.2084 -19.2892
L13.5105 -18.8889
z
" id="C0_1_7bf450e6f4"/>
     <path d="
M51.5138 -12.1255
L51.4636 -12.3118
L51.4129 -12.4993
L51.3618 -12.6879
L51.3103 -12.8778
L51.2583 -13.0689
L51.2058 -13.2613
L51.1528 -13.4549
L51.0994 -13.6499
L51.0455 -13.8462
L50.991 -14.0438
L50.936 -14.2429
L50.8805 -14.4434
L50.8245 -14.6454
L50.7679 -14.8489
L50.7107 -15.0539
L50.653 -15.2605
L50.5947 -15.4687
L50.5359 -15.6786
L50.4764 -15.8901
L50.4164 -16.1033
L50.3558 -16.3183
L50.2945 -16.5351
L50.2326 -16.7537
L50.1702 -16.9741
L50.1071 -17.1965
L50.0434 -17.4208
L49.979 -17.647
L49.9141 -17.8753
L49.8485 -18.1056
L49.7823 -18.338
L49.7154 -18.5725
L49.648 -18.8092
L49.5799 -19.048
L49.5112 -19.2891
L49.4419 -19.5325
L49.3721 -19.7781
L49.3016 -20.0261
L49.2306 -20.2765
L49.159 -20.5292
L49.0869 -20.7843
L49.0143 -21.0419
L48.9413 -21.302
L48.8677 -21.5645
L48.7937 -21.8296
L48.7194 -22.0972
L48.6447 -22.3674
L48.5696 -22.6401
L48.4943 -22.9154
L48.4188 -23.1933
L48.3432 -23.4737
L48.2674 -23.7568
L48.1916 -24.0424
L48.1159 -24.3307
L48.0403 -24.6215
L47.9649 -24.9148
L47.8898 -25.2107
L47.8152 -25.5091
L47.741 -25.81
L47.6675 -26.1133
L47.5948 -26.419
L47.5229 -26.7271
L47.4521 -27.0375
L47.3825 -27.3502
L47.3142 -27.665
L47.2475 -27.982
L47.1825 -28.3009
L47.1194 -28.6219
L47.0584 -28.9447
L46.9997 -29.2692
L46.9436 -29.5954
L46.8902 -29.9232
L46.8398 -30.2524
L46.7926 -30.5829
L46.749 -30.9146
L46.709 -31.2473
L46.6731 -31.581
L46.6415 -31.9154
L46.6143 -32.2504
L46.592 -32.5859
L46.5746 -32.9217
L46.5626 -33.2577
L46.556 -33.5936
L46.5552 -33.9294
L46.5603 -34.2648
L46.5715 -34.5998
L46.589 -34.9341
L46.6129 -35.2676
L46.6434 -35.6002
L46.6806 -35.9317
L46.7245 -36.2618
L46.7751 -36.5906
L46.8325 -36.9179
L46.8967 -37.2435
L46.9675 -37.5673
L47.0449 -37.8892
L47.1288 -38.209
L47.2191 -38.5267
L47.3155 -38.8422
L47.418 -39.1554
L47.5262 -39.4661
L47.6399 -39.7743
L47.759 -40.08
L47.8831 -40.3829
L48.012 -40.6832
L48.1455 -40.9807
L48.2831 -41.2754
L48.4248 -41.5672
L48.5701 -41.8561
L48.7188 -42.142
L48.8707 -42.4249
L49.0254 -42.7047
L49.1828 -42.9815
L49.3425 -43.2553
L49.5043 -43.5259
L49.6679 -43.7934
L49.8333 -44.0578
L50 -44.3191
L50.168 -44.5772
L50.337 -44.8322
L50.5069 -45.084
L50.6774 -45.3327
L50.8485 -45.5782
L51.0199 -45.8207
L51.1915 -46.06
L51.3632 -46.2962
L51.5349 -46.5294
L51.7065 -46.7595
L51.8777 -46.9865
L52.0487 -47.2105
L52.2192 -47.4316
L52.3892 -47.6497
L52.5586 -47.8648
L52.7273 -48.0771
L52.8953 -48.2864
L53.0626 -48.4929
L53.2291 -48.6966
L53.3947 -48.8975
L53.5594 -49.0957
L53.7231 -49.2912
L53.886 -49.4839
L54.0478 -49.6741
L54.2087 -49.8616
L54.3686 -50.0466
L54.5274 -50.229
L54.6852 -50.409
L54.842 -50.5864
L54.9978 -50.7615
L55.1525 -50.9342
L55.3062 -51.1045
L55.4589 -51.2725
L55.6106 -51.4382
L55.7612 -51.6017
L55.9109 -51.7629
L56.0596 -51.922
L56.2072 -52.0789
L56.354 -52.2337
L56.4998 -52.3865
L56.6447 -52.5372
L56.7886 -52.6858
L56.9317 -52.8325
L57.074 -52.9772
L57.2153 -53.1199
L57.3559 -53.2608
L57.4957 -53.3997
L57.6347 -53.5368
L57.7729 -53.672
L57.9105 -53.8054
L58.4182 -53.937
L58.7219 -53.5976
L59.0187 -53.2036
L59.3085 -52.8045
L59.5911 -52.4002
L59.8666 -51.9909
L60.1348 -51.5767
L60.3957 -51.1578
L60.6491 -50.7343
L60.8951 -50.3063
L61.1334 -49.8739
L61.3641 -49.4373
L61.587 -48.9967
L61.8022 -48.552
L62.0095 -48.1035
L62.2089 -47.6514
L62.4003 -47.1957
L62.5837 -46.7366
L62.7589 -46.2742
L62.926 -45.8087
L63.0849 -45.3402
L63.2356 -44.8688
L63.378 -44.3948
L63.512 -43.9182
L63.6376 -43.4392
L63.7548 -42.9579
L63.8636 -42.4745
L63.9639 -41.9891
L64.0557 -41.5019
L64.1389 -41.013
L64.2135 -40.5226
L64.2796 -40.0308
L64.337 -39.5378
L64.3858 -39.0437
L64.426 -38.5487
L64.4575 -38.0529
L64.4803 -37.5565
L64.4944 -37.0596
L64.4999 -36.5624
L64.4967 -36.0651
L64.4848 -35.5676
L64.4643 -35.0704
L64.435 -34.5734
L64.3971 -34.0768
L64.3506 -33.5809
L64.2954 -33.0856
L64.2316 -32.5913
L64.1592 -32.098
L64.0782 -31.6059
L63.9887 -31.1151
L63.8907 -30.6258
L63.7841 -30.1382
L63.6691 -29.6523
L63.5457 -29.1684
L63.4138 -28.6865
L63.2736 -28.2069
L63.1251 -27.7296
L62.9684 -27.2549
L62.8034 -26.7828
L62.6303 -26.3136
L62.449 -25.8473
L62.2597 -25.3841
L62.0624 -24.9241
L61.8572 -24.4675
L61.6441 -24.0144
L61.4232 -23.5649
L61.1945 -23.1193
L60.9581 -22.6775
L60.7142 -22.2399
L60.4627 -21.8064
L60.2038 -21.3772
L59.9375 -20.9525
L59.6639 -20.5324
L59.3831 -20.117
L59.0952 -19.7064
L58.8002 -19.3008
L58.4983 -18.9003
L58.1895 -18.505
L57.874 -18.115
L57.5518 -17.7304
L57.2231 -17.3515
L56.8879 -16.9782
L56.5463 -16.6107
L56.1985 -16.2491
L55.8445 -15.8935
L55.4845 -15.5441
L55.1185 -15.2008
L54.7467 -14.864
L54.3692 -14.5335
L53.9861 -14.2096
L53.5976 -13.8923
L53.2036 -13.5818
L52.8045 -13.2781
L52.4002 -12.9813
L51.9909 -12.6915
z
" id="C0_2_69f9096172"/>
    </defs>
    <g clip-path="url(#p1bffca34e9)">
     <use style="fill:#ffffff;stroke:#000000;stroke-width:2.0;" x="0.0" xlink:href="#C0_0_a811fe30f3" y="72.0"/>
    </g>
    <g clip-path="url(#p1bffca34e9)">
     <use style="fill:#ff0000;stroke:#000000;stroke-width:2.0;" x="0.0" xlink:href="#C0_1_7bf450e6f4" y="72.0"/>
    </g>
    <g clip-path="url(#p1bffca34e9)">
     <use style="fill:#ff0000;stroke:#000000;stroke-width:2.0;" x="0.0" xlink:href="#C0_2_69f9096172" y="72.0"/>
    </g>
   </g>
  </g>
 </g>
 <defs>
  <clipPath id="p1bffca34e9">
   <rect height="72.0" width="72.0" x="0.0" y="0.0"/>
  </clipPath>
 </defs>
</svg>
