<?xml version="1.0" encoding="utf-8" standalone="no"?>
<!DOCTYPE svg PUBLIC "-//W3C//DTD SVG 1.1//EN"
  "http://www.w3.org/Graphics/SVG/1.1/DTD/svg11.dtd">
<!-- Created with matplotlib (http://matplotlib.org/) -->
<svg height="72pt" version="1.1" viewBox="0 0 72 72" width="72pt" xmlns="http://www.w3.org/2000/svg" xmlns:xlink="http://www.w3.org/1999/xlink">
 <defs>
  <style type="text/css">
*{stroke-linecap:butt;stroke-linejoin:round;}
  </style>
 </defs>
 <g id="figure_1">
  <g id="patch_1">
   <path d="
M0 72
L72 72
L72 0
L0 0
z
" style="fill:none;"/>
  </g>
  <g id="axes_1">
   <g id="PatchCollection_1">
    <defs>
     <path d="
M36 -7.5
C43.5583 -7.5 50.808 -10.5029 56.1525 -15.8475
C61.4971 -21.192 64.5 -28.4417 64.5 -36
C64.5 -43.5583 61.4971 -50.808 56.1525 -56.1525
C50.808 -61.4971 43.5583 -64.5 36 -64.5
C28.4417 -64.5 21.192 -61.4971 15.8475 -56.1525
C10.5029 -50.808 7.5 -43.5583 7.5 -36
C7.5 -28.4417 10.5029 -21.192 15.8475 -15.8475
C21.192 -10.5029 28.4417 -7.5 36 -7.5
z
" id="C0_0_a811fe30f3"/>
     <path d="
M20.3755 -12.3112
L20.5038 -12.4625
L20.6313 -12.6143
L20.7581 -12.7668
L20.8842 -12.9199
L21.0097 -13.0736
L21.1347 -13.2279
L21.2591 -13.3828
L21.383 -13.5383
L21.5065 -13.6944
L21.6295 -13.8511
L21.7521 -14.0084
L21.8743 -14.1664
L21.9963 -14.325
L22.1179 -14.4842
L22.2393 -14.6441
L22.3604 -14.8047
L22.4814 -14.966
L22.6022 -15.1281
L22.7228 -15.2908
L22.8434 -15.4544
L22.9639 -15.6187
L23.0844 -15.7838
L23.2048 -15.9498
L23.3253 -16.1166
L23.4458 -16.2844
L23.6872 -16.4531
L23.8081 -16.6227
L23.9292 -16.7933
L24.0504 -16.965
L24.172 -17.1377
L24.2938 -17.3116
L24.4158 -17.4865
L24.5383 -17.6627
L24.661 -17.8401
L24.7842 -18.0187
L24.9078 -18.1986
L25.0318 -18.3799
L25.1564 -18.5625
L25.2814 -18.7466
L25.4069 -18.9322
L25.5331 -19.1192
L25.6598 -19.3079
L25.7872 -19.4982
L25.9152 -19.6901
L26.0439 -19.8838
L26.1733 -20.0792
L26.3035 -20.2765
L26.4344 -20.4756
L26.5661 -20.6767
L26.6987 -20.8797
L26.8321 -21.0848
L26.9663 -21.292
L27.1015 -21.5014
L27.2377 -21.713
L27.3747 -21.9268
L27.5128 -22.143
L27.6519 -22.3615
L27.7919 -22.5825
L27.9331 -22.806
L28.0753 -23.0321
L28.2185 -23.2608
L28.3629 -23.4923
L28.5084 -23.7264
L28.655 -23.9634
L28.8027 -24.2032
L28.9516 -24.446
L29.1016 -24.6917
L29.2527 -24.9405
L29.405 -25.1923
L29.5584 -25.4473
L29.713 -25.7055
L29.8686 -25.967
L30.0254 -26.2318
L30.1831 -26.4998
L30.3419 -26.7713
L30.5017 -27.0462
L30.6625 -27.3245
L30.8241 -27.6064
L30.9865 -27.8917
L31.1497 -28.1805
L31.3135 -28.4729
L31.4779 -28.7689
L31.6427 -29.0684
L31.8078 -29.3714
L31.9732 -29.678
L32.1385 -29.988
L32.3037 -30.3016
L32.4685 -30.6185
L32.6328 -30.9389
L32.7963 -31.2626
L32.9586 -31.5895
L33.1196 -31.9195
L33.2789 -32.2527
L33.436 -32.5887
L33.5907 -32.9275
L33.7425 -33.269
L33.8908 -33.613
L34.0352 -33.9593
L34.175 -34.3076
L34.3096 -34.6579
L34.4384 -35.0097
L34.5605 -35.3629
L34.6752 -35.7172
L34.7815 -36.0723
L34.8787 -36.4278
L34.9657 -36.7834
L35.0414 -37.1387
L35.105 -37.4934
L35.1554 -37.8469
L35.1915 -38.199
L35.2124 -38.5492
L35.2172 -38.897
L35.2051 -39.2421
L35.1755 -39.5841
L35.1279 -39.9224
L35.062 -40.2569
L34.9777 -40.5871
L34.8751 -40.9128
L34.7545 -41.2337
L34.6164 -41.5496
L34.4615 -41.8603
L34.2907 -42.1656
L34.1047 -42.4655
L33.9046 -42.7598
L33.6915 -43.0486
L33.4665 -43.3318
L33.2305 -43.6094
L32.9846 -43.8814
L32.73 -44.1479
L32.4674 -44.4087
L32.1979 -44.6641
L31.9223 -44.9139
L31.6414 -45.1583
L31.3559 -45.3973
L31.0666 -45.6309
L30.7741 -45.8592
L30.4789 -46.0822
L30.1816 -46.3
L29.8828 -46.5126
L29.5827 -46.7201
L29.2819 -46.9226
L28.9807 -47.12
L28.6794 -47.3125
L28.3783 -47.5002
L28.0777 -47.683
L27.7779 -47.8611
L27.479 -48.0346
L27.1812 -48.2034
L26.8848 -48.3677
L26.5898 -48.5275
L26.2964 -48.683
L26.0047 -48.8341
L25.7148 -48.981
L25.4268 -49.1238
L25.1408 -49.2625
L24.8568 -49.3971
L24.5749 -49.5279
L24.2951 -49.6548
L24.0174 -49.7779
L23.7419 -49.8973
L23.4686 -50.013
L23.1974 -50.1252
L22.9285 -50.234
L22.6617 -50.3393
L22.3971 -50.4412
L22.1347 -50.5399
L21.8744 -50.6353
L21.6162 -50.7276
L21.3602 -50.8168
L21.1061 -50.903
L20.8541 -50.9861
L20.6041 -51.0664
L20.356 -51.1438
L20.1099 -51.2184
L19.8656 -51.2903
L19.6232 -51.3594
L19.3825 -51.4259
L19.1436 -51.4897
L18.9063 -51.551
L18.6707 -51.6097
L18.4367 -51.6659
L18.2043 -51.7197
L17.9733 -51.771
L17.7438 -51.82
L17.5156 -51.8665
L17.2889 -51.9107
L17.0634 -51.9526
L16.8391 -51.9922
L16.616 -52.0296
L16.3941 -52.0646
L16.1732 -52.0974
L15.9534 -52.128
L15.7346 -52.1564
L15.5167 -52.1825
L15.2996 -52.2065
L15.0834 -52.2282
L14.868 -52.2477
L14.6532 -52.2651
L14.4392 -52.2802
L14.2258 -52.2931
L14.0129 -52.3037
L13.8006 -52.3122
L13.5887 -52.3183
L13.3772 -52.3222
L13.1661 -52.3238
L12.9554 -52.3231
L12.7449 -52.32
L12.3867 -52.3145
L12.1118 -51.9582
L11.8442 -51.5437
L11.5839 -51.1244
L11.3311 -50.7005
L11.0857 -50.2721
L10.848 -49.8394
L10.6179 -49.4025
L10.3956 -48.9615
L10.181 -48.5166
L9.97437 -48.0678
L9.77562 -47.6154
L9.58485 -47.1594
L9.40213 -46.7
L9.22752 -46.2374
L9.06106 -45.7716
L8.9028 -45.3029
L8.7528 -44.8313
L8.6111 -44.357
L8.47774 -43.8802
L8.35277 -43.401
L8.23622 -42.9196
L8.12812 -42.436
L8.02852 -41.9505
L7.93743 -41.4632
L7.85489 -40.9742
L7.78093 -40.4836
L7.71556 -39.9918
L7.65881 -39.4987
L7.61069 -39.0045
L7.57122 -38.5094
L7.54041 -38.0136
L7.51827 -37.5171
L7.5048 -37.0202
L7.50001 -36.523
L7.50391 -36.0256
L7.51648 -35.5282
L7.53773 -35.0309
L7.56765 -34.534
L7.60623 -34.0375
L7.65346 -33.5415
L7.70933 -33.0464
L7.77381 -32.5521
L7.84689 -32.0589
L7.92855 -31.5669
L8.01876 -31.0762
L8.11749 -30.5871
L8.22471 -30.0995
L8.3404 -29.6138
L8.46451 -29.13
L8.597 -28.6484
L8.73785 -28.1689
L8.887 -27.6919
L9.04441 -27.2173
L9.21002 -26.7455
L9.3838 -26.2765
L9.56569 -25.8104
L9.75563 -25.3474
L9.95356 -24.8877
L10.1594 -24.4314
L10.3732 -23.9786
L10.5947 -23.5294
L10.824 -23.0841
L11.0609 -22.6426
L11.3055 -22.2053
L11.5576 -21.7722
L11.8171 -21.3433
L12.084 -20.919
L12.3581 -20.4992
L12.6395 -20.0842
L12.928 -19.674
L13.2235 -19.2688
L13.526 -18.8687
L13.8353 -18.4738
L14.1513 -18.0843
L14.474 -17.7002
L14.8033 -17.3216
L15.139 -16.9488
L15.4811 -16.5818
L15.8294 -16.2206
L16.1838 -15.8655
L16.5444 -15.5166
L16.9108 -15.1739
L17.283 -14.8375
L17.661 -14.5076
L18.0445 -14.1842
L18.4335 -13.8674
L18.8279 -13.5574
L19.2274 -13.2543
L19.6321 -12.9581
z
" id="C0_1_183ccb8aeb"/>
     <path d="
M59.342 -19.7791
L59.2752 -19.9792
L59.2064 -20.1795
L59.1358 -20.3798
L59.0633 -20.5803
L58.9888 -20.781
L58.9124 -20.982
L58.8341 -21.1833
L58.7538 -21.385
L58.6716 -21.5872
L58.5873 -21.7898
L58.5011 -21.993
L58.4129 -22.1968
L58.3226 -22.4012
L58.2303 -22.6063
L58.1359 -22.8122
L58.0394 -23.0189
L57.9408 -23.2264
L57.84 -23.4349
L57.737 -23.6443
L57.6317 -23.8547
L57.5243 -24.0662
L57.4145 -24.2789
L57.3023 -24.4926
L57.1879 -24.7077
L57.071 -24.9239
L56.9516 -25.1416
L56.8298 -25.3605
L56.7054 -25.581
L56.5785 -25.8029
L56.449 -26.0263
L56.3168 -26.2513
L56.1819 -26.478
L56.0443 -26.7063
L55.9038 -26.9363
L55.7606 -27.1681
L55.6145 -27.4018
L55.4655 -27.6373
L55.3135 -27.8747
L55.1585 -28.114
L55.0005 -28.3554
L54.8394 -28.5987
L54.6752 -28.8442
L54.5079 -29.0917
L54.3375 -29.3414
L54.1638 -29.5933
L53.987 -29.8474
L53.8069 -30.1037
L53.6236 -30.3622
L53.4371 -30.623
L53.2474 -30.8861
L53.0544 -31.1516
L52.8583 -31.4193
L52.659 -31.6894
L52.4566 -31.9619
L52.2512 -32.2366
L52.0428 -32.5138
L51.8315 -32.7932
L51.6175 -33.075
L51.4008 -33.3591
L51.1816 -33.6455
L50.96 -33.9342
L50.7363 -34.2252
L50.5108 -34.5183
L50.2835 -34.8137
L50.055 -35.1113
L49.8253 -35.411
L49.5951 -35.7128
L49.3646 -36.0168
L49.1343 -36.3227
L48.9047 -36.6306
L48.6765 -36.9406
L48.4502 -37.2525
L48.2266 -37.5663
L48.0063 -37.882
L47.7902 -38.1996
L47.5791 -38.519
L47.3741 -38.8404
L47.176 -39.1636
L46.986 -39.4887
L46.805 -39.8157
L46.6341 -40.1446
L46.4745 -40.4755
L46.327 -40.8082
L46.1927 -41.1429
L46.0724 -41.4795
L45.9669 -41.818
L45.8766 -42.1583
L45.802 -42.5003
L45.7433 -42.8439
L45.7005 -43.1889
L45.6733 -43.5352
L45.6613 -43.8825
L45.664 -44.2305
L45.6807 -44.5791
L45.7105 -44.9279
L45.7526 -45.2766
L45.8061 -45.6249
L45.87 -45.9725
L45.9433 -46.3192
L46.0251 -46.6645
L46.1146 -47.0082
L46.2108 -47.3501
L46.313 -47.6899
L46.4204 -48.0273
L46.5323 -48.3622
L46.6481 -48.6943
L46.7672 -49.0234
L46.889 -49.3494
L47.0131 -49.6722
L47.1391 -49.9915
L47.2664 -50.3073
L47.3948 -50.6195
L47.524 -50.9279
L47.6536 -51.2326
L47.7834 -51.5334
L47.9132 -51.8302
L48.0428 -52.1232
L48.1719 -52.4121
L48.3005 -52.697
L48.4283 -52.978
L48.5553 -53.2549
L48.6813 -53.5278
L48.8063 -53.7967
L48.9302 -54.0617
L49.0529 -54.3227
L49.1743 -54.5798
L49.2944 -54.8331
L49.4132 -55.0825
L49.5306 -55.3281
L49.6467 -55.57
L49.7612 -55.8082
L49.8744 -56.0428
L49.9861 -56.2738
L50.0964 -56.5013
L50.2052 -56.7254
L50.3126 -56.946
L50.4185 -57.1633
L50.523 -57.3774
L50.6261 -57.5883
L50.7278 -57.796
L50.8281 -58.0006
L50.927 -58.2023
L51.0246 -58.401
L51.1209 -58.5969
L51.2158 -58.7899
L51.3094 -58.9802
L51.4018 -59.1679
L51.4929 -59.3529
L51.5829 -59.5354
L52.1252 -59.7153
L52.5328 -59.4996
L52.9355 -59.2146
L53.3329 -58.9225
L53.7251 -58.6234
L54.1119 -58.3175
L54.4932 -58.0047
L54.8688 -57.6853
L55.2387 -57.3592
L55.6028 -57.0267
L55.9608 -56.6877
L56.3128 -56.3424
L56.6586 -55.991
L56.9981 -55.6334
L57.3312 -55.2699
L57.6578 -54.9005
L57.9779 -54.5253
L58.2912 -54.1445
L58.5977 -53.7582
L58.8974 -53.3665
L59.19 -52.9694
L59.4756 -52.5672
L59.7541 -52.16
L60.0253 -51.7478
L60.2892 -51.3308
L60.5457 -50.9092
L60.7947 -50.483
L61.0362 -50.0525
L61.27 -49.6176
L61.4962 -49.1786
L61.7146 -48.7355
L61.9251 -48.2886
L62.1278 -47.838
L62.3225 -47.3837
L62.5092 -46.926
L62.6878 -46.4649
L62.8582 -46.0007
L63.0205 -45.5334
L63.1746 -45.0632
L63.3204 -44.5903
L63.4578 -44.1147
L63.5869 -43.6366
L63.7076 -43.1563
L63.8199 -42.6737
L63.9236 -42.1891
L64.0189 -41.7027
L64.1056 -41.2145
L64.1838 -40.7247
L64.2534 -40.2335
L64.3144 -39.7409
L64.3668 -39.2473
L64.4105 -38.7526
L64.4455 -38.2571
L64.4719 -37.761
L64.4897 -37.2643
L64.4987 -36.7672
L64.4991 -36.2698
L64.4908 -35.7724
L64.4738 -35.2751
L64.4481 -34.778
L64.4138 -34.2812
L64.3708 -33.785
L64.3192 -33.2894
L64.2589 -32.7947
L64.1901 -32.3009
L64.1126 -31.8083
L64.0266 -31.317
L63.9321 -30.8271
L63.829 -30.3387
L63.7175 -29.8521
L63.5975 -29.3673
L63.4691 -28.8846
L63.3324 -28.4041
L63.1873 -27.9258
L63.0339 -27.45
L62.8723 -26.9769
L62.7025 -26.5064
L62.5246 -26.0389
L62.3386 -25.5744
L62.1446 -25.113
L61.9426 -24.655
L61.7328 -24.2005
L61.515 -23.7495
L61.2896 -23.3023
L61.0564 -22.8589
L60.8155 -22.4195
L60.5671 -21.9843
L60.3113 -21.5534
L60.048 -21.1268
L59.7774 -20.7048
z
" id="C0_2_d768696bab"/>
    </defs>
    <g clip-path="url(#p1bffca34e9)">
     <use style="fill:#ff0000;stroke:#000000;stroke-width:2.0;" x="0.0" xlink:href="#C0_0_a811fe30f3" y="72.0"/>
    </g>
    <g clip-path="url(#p1bffca34e9)">
     <use style="fill:#ffffff;stroke:#000000;stroke-width:2.0;" x="0.0" xlink:href="#C0_1_183ccb8aeb" y="72.0"/>
    </g>
    <g clip-path="url(#p1bffca34e9)">
     <use style="fill:#ffffff;stroke:#000000;stroke-width:2.0;" x="0.0" xlink:href="#C0_2_d768696bab" y="72.0"/>
    </g>
   </g>
  </g>
 </g>
 <defs>
  <clipPath id="p1bffca34e9">
   <rect height="72.0" width="72.0" x="0.0" y="0.0"/>
  </clipPath>
 </defs>
</svg>
