<?xml version="1.0" encoding="utf-8" standalone="no"?>
<!DOCTYPE svg PUBLIC "-//W3C//DTD SVG 1.1//EN"
  "http://www.w3.org/Graphics/SVG/1.1/DTD/svg11.dtd">
<!-- Created with matplotlib (http://matplotlib.org/) -->
<svg height="72pt" version="1.1" viewBox="0 0 72 72" width="72pt" xmlns="http://www.w3.org/2000/svg" xmlns:xlink="http://www.w3.org/1999/xlink">
 <defs>
  <style type="text/css">
*{stroke-linecap:butt;stroke-linejoin:round;}
  </style>
 </defs>
 <g id="figure_1">
  <g id="patch_1">
   <path d="
M0 72
L72 72
L72 0
L0 0
z
" style="fill:none;"/>
  </g>
  <g id="axes_1">
   <g id="PatchCollection_1">
    <defs>
     <path d="
M36 -7.5
C43.5583 -7.5 50.808 -10.5029 56.1525 -15.8475
C61.4971 -21.192 64.5 -28.4417 64.5 -36
C64.5 -43.5583 61.4971 -50.808 56.1525 -56.1525
C50.808 -61.4971 43.5583 -64.5 36 -64.5
C28.4417 -64.5 21.192 -61.4971 15.8475 -56.1525
C10.5029 -50.808 7.5 -43.5583 7.5 -36
C7.5 -28.4417 10.5029 -21.192 15.8475 -15.8475
C21.192 -10.5029 28.4417 -7.5 36 -7.5
z
" id="C0_0_a811fe30f3"/>
     <path d="
M56.878 -55.2015
L56.6189 -55.1598
L56.3668 -55.1045
L56.122 -55.0356
L55.8844 -54.9535
L55.6542 -54.8586
L55.4313 -54.7512
L55.2156 -54.6316
L55.0071 -54.5004
L54.8056 -54.3578
L54.611 -54.2044
L54.4231 -54.0406
L54.2416 -53.8669
L54.0663 -53.6837
L53.897 -53.4916
L53.7334 -53.2909
L53.5752 -53.0823
L53.4222 -52.8661
L53.2739 -52.6428
L53.1302 -52.413
L52.9907 -52.177
L52.8552 -51.9353
L52.7234 -51.6883
L52.5951 -51.4365
L52.4698 -51.1802
L52.3475 -50.9198
L52.2279 -50.6557
L52.1108 -50.3883
L51.9958 -50.1178
L51.883 -49.8446
L51.772 -49.569
L51.6627 -49.2913
L51.555 -49.0117
L51.4486 -48.7306
L51.3435 -48.448
L51.2395 -48.1643
L51.1366 -47.8797
L51.0345 -47.5944
L50.9332 -47.3085
L50.8326 -47.0222
L50.7327 -46.7357
L50.6333 -46.4491
L50.5344 -46.1625
L50.4359 -45.8761
L50.3378 -45.59
L50.24 -45.3043
L50.1424 -45.019
L50.045 -44.7343
L49.9479 -44.4502
L49.8509 -44.1669
L49.7539 -43.8843
L49.6571 -43.6026
L49.5603 -43.3217
L49.4635 -43.0417
L49.3668 -42.7627
L49.27 -42.4847
L49.1732 -42.2076
L49.0763 -41.9316
L48.9793 -41.6567
L48.8823 -41.3828
L48.7851 -41.11
L48.6878 -40.8382
L48.5904 -40.5675
L48.4929 -40.2979
L48.3951 -40.0294
L48.2972 -39.7619
L48.1991 -39.4955
L48.1008 -39.2301
L48.0023 -38.9658
L47.9036 -38.7024
L47.8047 -38.4401
L47.7055 -38.1787
L47.606 -37.9183
L47.5063 -37.6588
L47.4063 -37.4002
L47.306 -37.1424
L47.2054 -36.8855
L47.1045 -36.6295
L47.0032 -36.3742
L46.9016 -36.1197
L46.7997 -35.866
L46.6974 -35.6129
L46.5947 -35.3605
L46.4917 -35.1088
L46.3882 -34.8576
L46.2843 -34.6071
L46.18 -34.357
L46.0752 -34.1075
L45.97 -33.8585
L45.8643 -33.6099
L45.7581 -33.3616
L45.6515 -33.1138
L45.5443 -32.8663
L45.3282 -32.6191
L45.2194 -32.3721
L45.11 -32.1254
L45 -31.8788
L44.8893 -31.6325
L44.7781 -31.3862
L44.6662 -31.14
L44.5537 -30.8939
L44.4404 -30.6478
L44.3265 -30.4017
L44.2119 -30.1556
L44.0966 -29.9093
L43.9805 -29.663
L43.8637 -29.4165
L43.7462 -29.1698
L43.6278 -28.9229
L43.5087 -28.6757
L43.3887 -28.4283
L43.2679 -28.1806
L43.1463 -27.9325
L43.0238 -27.6841
L42.9005 -27.4353
L42.7763 -27.1861
L42.6513 -26.9364
L42.5253 -26.6863
L42.3984 -26.4357
L42.2707 -26.1845
L42.142 -25.9328
L42.0124 -25.6806
L41.8819 -25.4277
L41.7504 -25.1743
L41.6181 -24.9202
L41.4848 -24.6655
L41.3506 -24.4102
L41.2155 -24.1542
L41.0796 -23.8975
L40.9427 -23.6401
L40.805 -23.382
L40.6664 -23.1233
L40.527 -22.8638
L40.3868 -22.6036
L40.2458 -22.3428
L40.1042 -22.0812
L39.9618 -21.8189
L39.8188 -21.5559
L39.6752 -21.2923
L39.5311 -21.0279
L39.3865 -20.7629
L39.2416 -20.4973
L39.0963 -20.231
L38.9509 -19.9641
L38.8053 -19.6967
L38.6597 -19.4287
L38.5143 -19.1602
L38.369 -18.8912
L38.2242 -18.6217
L38.0799 -18.3519
L37.9364 -18.0816
L37.7937 -17.8111
L37.6521 -17.5402
L37.5119 -17.2692
L37.3731 -16.9979
L37.2362 -16.7265
L37.1013 -16.4551
L36.9687 -16.1837
L36.8388 -15.9123
L36.7117 -15.641
L36.588 -15.3699
L36.468 -15.0991
L36.3519 -14.8286
L36.2403 -14.5585
L36.1335 -14.2889
L36.0321 -14.0198
L35.9363 -13.7513
L35.8468 -13.4836
L35.7641 -13.2167
L35.6885 -12.9506
L35.6207 -12.6855
L35.5611 -12.4215
L35.5103 -12.1587
L35.4689 -11.8972
L35.4373 -11.637
L35.416 -11.3783
L35.4057 -11.1213
L35.4068 -10.8661
L35.4197 -10.6127
L35.4449 -10.3614
L35.4829 -10.1124
L35.534 -9.86575
L35.5986 -9.6217
L35.6769 -9.38044
L35.7692 -9.14219
L35.8758 -8.90716
L35.9968 -8.6756
L36.1322 -8.44776
L36.2823 -8.22388
L36.4468 -8.00425
L36.6259 -7.78914
L37.1246 -7.57883
L37.6215 -7.5222
L38.1178 -7.54616
L38.6135 -7.5788
L39.1084 -7.62009
L39.6024 -7.67002
L40.0952 -7.72858
L40.5868 -7.79576
L41.077 -7.87153
L41.5657 -7.95586
L42.0527 -8.04874
L42.5378 -8.15013
L43.0209 -8.26001
L43.5019 -8.37833
L43.9806 -8.50507
L44.4569 -8.64019
L44.9306 -8.78364
L45.4016 -8.93538
L45.8697 -9.09536
L46.3348 -9.26354
L46.7968 -9.43986
L47.2555 -9.62427
L47.7107 -9.81672
L48.1624 -10.0171
L48.6104 -10.2255
L49.0545 -10.4417
L49.4947 -10.6656
L49.9307 -10.8973
L50.3625 -11.1367
L50.79 -11.3836
L51.2129 -11.638
L51.6312 -11.8998
L52.0447 -12.169
L52.4533 -12.4454
L52.857 -12.729
L53.2555 -13.0197
L53.6487 -13.3174
L54.0366 -13.622
L54.4189 -13.9334
L54.7957 -14.2516
L55.1667 -14.5764
L55.5319 -14.9076
L55.8911 -15.2454
L56.2443 -15.5894
L56.5913 -15.9397
L56.9321 -16.296
L57.2665 -16.6584
L57.5944 -17.0267
L57.9157 -17.4007
L58.2303 -17.7804
L58.5382 -18.1657
L58.8392 -18.5564
L59.1332 -18.9524
L59.4202 -19.3535
L59.7001 -19.7598
L59.9727 -20.171
L60.2381 -20.5871
L60.496 -21.0078
L60.7465 -21.4331
L60.9895 -21.8628
L61.2248 -22.2969
L61.4525 -22.7351
L61.6724 -23.1773
L61.8845 -23.6235
L62.0887 -24.0734
L62.2849 -24.527
L62.4732 -24.984
L62.6534 -25.4445
L62.8255 -25.9081
L62.9894 -26.3748
L63.145 -26.8444
L63.2924 -27.3168
L63.4315 -27.7919
L63.5623 -28.2695
L63.6846 -28.7494
L63.7985 -29.2315
L63.904 -29.7157
L64.0009 -30.2018
L64.0893 -30.6897
L64.1692 -31.1792
L64.2405 -31.6702
L64.3031 -32.1624
L64.3572 -32.6559
L64.4026 -33.1504
L64.4394 -33.6457
L64.4675 -34.1417
L64.4869 -34.6384
L64.4976 -35.1354
L64.4997 -35.6327
L64.4931 -36.1301
L64.4778 -36.6275
L64.4538 -37.1246
L64.4212 -37.6215
L64.3799 -38.1178
L64.33 -38.6135
L64.2714 -39.1084
L64.2042 -39.6024
L64.1285 -40.0952
L64.0441 -40.5868
L63.9513 -41.077
L63.8499 -41.5657
L63.74 -42.0527
L63.6217 -42.5378
L63.4949 -43.0209
L63.3598 -43.5019
L63.2164 -43.9806
L63.0646 -44.4569
L62.9046 -44.9306
L62.7365 -45.4016
L62.5601 -45.8697
L62.3757 -46.3348
L62.1833 -46.7968
L61.9829 -47.2555
L61.7745 -47.7107
L61.5583 -48.1624
L61.3344 -48.6104
L61.1027 -49.0545
L60.8633 -49.4947
L60.6164 -49.9307
L60.362 -50.3625
L60.1002 -50.79
L59.831 -51.2129
L59.5546 -51.6312
L59.271 -52.0447
L58.9803 -52.4533
L58.6826 -52.857
L58.378 -53.2555
L58.0666 -53.6487
L57.7484 -54.0366
L57.4236 -54.4189
z
" id="C0_1_3094d2f8ee"/>
     <path d="
M35.1886 -64.3496
L34.9976 -64.1334
L34.7986 -63.9162
L34.5922 -63.6979
L34.3789 -63.4785
L34.1594 -63.2579
L33.9341 -63.036
L33.7037 -62.8128
L33.4688 -62.5883
L33.2297 -62.3625
L32.9872 -62.1352
L32.7415 -61.9065
L32.4933 -61.6764
L32.2429 -61.4449
L31.9908 -61.2119
L31.7374 -60.9775
L31.483 -60.7417
L31.2281 -60.5045
L30.9729 -60.266
L30.7177 -60.0261
L30.4629 -59.785
L30.2087 -59.5426
L29.9554 -59.299
L29.7032 -59.0543
L29.4522 -58.8084
L29.2027 -58.5615
L28.9548 -58.3136
L28.7088 -58.0647
L28.4647 -57.815
L28.2226 -57.5643
L27.9827 -57.3129
L27.7451 -57.0608
L27.5098 -56.8079
L27.277 -56.5544
L27.0467 -56.3003
L26.8189 -56.0456
L26.5937 -55.7904
L26.3712 -55.5348
L26.1513 -55.2786
L25.9341 -55.0221
L25.7197 -54.7653
L25.5079 -54.508
L25.2989 -54.2505
L25.0927 -53.9927
L24.8891 -53.7346
L24.6883 -53.4763
L24.4902 -53.2177
L24.2948 -52.959
L24.1021 -52.7
L23.9121 -52.4409
L23.7247 -52.1816
L23.5399 -51.9222
L23.3578 -51.6626
L23.1782 -51.4028
L23.0011 -51.1429
L22.8266 -50.8828
L22.6546 -50.6226
L22.485 -50.3621
L22.3179 -50.1016
L22.1532 -49.8408
L21.9908 -49.5798
L21.8308 -49.3187
L21.6731 -49.0573
L21.5177 -48.7957
L21.3645 -48.5338
L21.2136 -48.2716
L21.0648 -48.0092
L20.9182 -47.7465
L20.7737 -47.4834
L20.6313 -47.22
L20.491 -46.9561
L20.3528 -46.6919
L20.2165 -46.4273
L20.0823 -46.1622
L19.95 -45.8966
L19.8197 -45.6304
L19.6913 -45.3638
L19.5648 -45.0965
L19.4402 -44.8287
L19.3174 -44.5602
L19.1965 -44.291
L19.0774 -44.0211
L18.9601 -43.7505
L18.8446 -43.4791
L18.7309 -43.2069
L18.6189 -42.9338
L18.5087 -42.6599
L18.4003 -42.385
L18.2935 -42.1092
L18.1885 -41.8323
L18.0852 -41.5545
L17.9835 -41.2756
L17.8836 -40.9955
L17.7854 -40.7143
L17.6889 -40.432
L17.594 -40.1484
L17.5009 -39.8636
L17.4094 -39.5774
L17.3196 -39.29
L17.2315 -39.0012
L17.1451 -38.7109
L17.0605 -38.4193
L16.9775 -38.1261
L16.8962 -37.8315
L16.8167 -37.5353
L16.7389 -37.2375
L16.6628 -36.9382
L16.5886 -36.6372
L16.516 -36.3346
L16.4453 -36.0302
L16.3764 -35.7242
L16.3093 -35.4164
L16.244 -35.1069
L16.1806 -34.7955
L16.1191 -34.4824
L16.0594 -34.1675
L16.0017 -33.8508
L15.9458 -33.5322
L15.892 -33.2118
L15.8401 -32.8895
L15.7901 -32.5654
L15.7422 -32.2395
L15.6963 -31.9118
L15.6525 -31.5822
L15.6107 -31.2509
L15.5709 -30.9177
L15.5333 -30.5829
L15.4977 -30.2463
L15.4643 -29.9081
L15.4329 -29.5683
L15.4037 -29.2269
L15.3765 -28.884
L15.3515 -28.5396
L15.3285 -28.1939
L15.3076 -27.847
L15.2887 -27.4989
L15.2719 -27.1497
L15.257 -26.7995
L15.244 -26.4486
L15.2329 -26.0969
L15.2235 -25.7447
L15.2159 -25.3921
L15.2099 -25.0392
L15.2054 -24.6863
L15.2022 -24.3336
L15.2004 -23.9811
L15.1996 -23.6293
L15.1998 -23.2782
L15.2007 -22.9282
L15.2021 -22.5795
L15.2039 -22.2323
L15.2058 -21.887
L15.2074 -21.5438
L15.2086 -21.203
L15.209 -20.865
L15.2083 -20.53
L15.2062 -20.1985
L15.2023 -19.8707
L15.1961 -19.547
L15.1874 -19.2277
L15.1758 -18.9134
L15.1607 -18.6042
L15.1417 -18.3006
L15.1186 -18.0029
L15.0907 -17.7115
L15.0577 -17.4269
L15.0193 -17.1492
L14.5839 -16.879
L14.2589 -17.1958
L13.9407 -17.5724
L13.6291 -17.9546
L13.3243 -18.3424
L13.0265 -18.7355
L12.7356 -19.1339
L12.4518 -19.5374
L12.1752 -19.9459
L11.9059 -20.3593
L11.6439 -20.7775
L11.3893 -21.2003
L11.1422 -21.6276
L10.9027 -22.0593
L10.6709 -22.4953
L10.4467 -22.9354
L10.2303 -23.3794
L10.0218 -23.8273
L9.82122 -24.2789
L9.62859 -24.7341
L9.44399 -25.1927
L9.26748 -25.6545
L9.09912 -26.1196
L8.93895 -26.5876
L8.78702 -27.0586
L8.64338 -27.5322
L8.50807 -28.0084
L8.38114 -28.4871
L8.26262 -28.968
L8.15255 -29.4511
L8.05097 -29.9362
L7.95789 -30.4231
L7.87336 -30.9117
L7.7974 -31.4019
L7.73003 -31.8935
L7.67126 -32.3863
L7.62113 -32.8803
L7.57964 -33.3751
L7.54681 -33.8708
L7.52265 -34.3671
L7.50716 -34.864
L7.50035 -35.3611
L7.50222 -35.8585
L7.51277 -36.3559
L7.532 -36.8532
L7.55991 -37.3503
L7.59647 -37.8469
L7.64169 -38.343
L7.69554 -38.8383
L7.75802 -39.3328
L7.8291 -39.8263
L7.90876 -40.3186
L7.99697 -40.8096
L8.09372 -41.2991
L8.19897 -41.787
L8.31268 -42.2732
L8.43483 -42.7574
L8.56538 -43.2396
L8.70428 -43.7196
L8.8515 -44.1972
L9.00699 -44.6723
L9.1707 -45.1448
L9.34258 -45.6145
L9.52258 -46.0813
L9.71065 -46.545
L9.90673 -47.0055
L10.1108 -47.4626
L10.3227 -47.9162
L10.5424 -48.3663
L10.7699 -48.8125
L11.0051 -49.2548
L11.2478 -49.6932
L11.4982 -50.1273
L11.7559 -50.5571
L12.0211 -50.9825
L12.2936 -51.4034
L12.5733 -51.8195
L12.8601 -52.2308
L13.154 -52.6372
L13.4549 -53.0385
L13.7626 -53.4346
L14.0771 -53.8255
L14.3982 -54.2108
L14.726 -54.5907
L15.0602 -54.9648
L15.4008 -55.3332
L15.7477 -55.6957
L16.1007 -56.0522
L16.4598 -56.4026
L16.8249 -56.7468
L17.1958 -57.0847
L17.5724 -57.4161
L17.9546 -57.7411
L18.3424 -58.0593
L18.7355 -58.3709
L19.1339 -58.6757
L19.5374 -58.9735
L19.9459 -59.2644
L20.3593 -59.5482
L20.7775 -59.8248
L21.2003 -60.0941
L21.6276 -60.3561
L22.0593 -60.6107
L22.4953 -60.8578
L22.9354 -61.0973
L23.3794 -61.3291
L23.8273 -61.5533
L24.2789 -61.7697
L24.7341 -61.9782
L25.1927 -62.1788
L25.6545 -62.3714
L26.1196 -62.556
L26.5876 -62.7325
L27.0586 -62.9009
L27.5322 -63.0611
L28.0084 -63.213
L28.4871 -63.3566
L28.968 -63.4919
L29.4511 -63.6189
L29.9362 -63.7374
L30.4231 -63.8474
L30.9117 -63.949
L31.4019 -64.0421
L31.8935 -64.1266
L32.3863 -64.2026
L32.8803 -64.27
L33.3751 -64.3287
L33.8708 -64.3789
L34.3671 -64.4204
z
" id="C0_2_6578f34725"/>
    </defs>
    <g clip-path="url(#p1bffca34e9)">
     <use style="fill:#ff0000;stroke:#000000;stroke-width:2.0;" x="0.0" xlink:href="#C0_0_a811fe30f3" y="72.0"/>
    </g>
    <g clip-path="url(#p1bffca34e9)">
     <use style="fill:#ffffff;stroke:#000000;stroke-width:2.0;" x="0.0" xlink:href="#C0_1_3094d2f8ee" y="72.0"/>
    </g>
    <g clip-path="url(#p1bffca34e9)">
     <use style="fill:#ffffff;stroke:#000000;stroke-width:2.0;" x="0.0" xlink:href="#C0_2_6578f34725" y="72.0"/>
    </g>
   </g>
  </g>
 </g>
 <defs>
  <clipPath id="p1bffca34e9">
   <rect height="72.0" width="72.0" x="0.0" y="0.0"/>
  </clipPath>
 </defs>
</svg>
