<?xml version="1.0" encoding="utf-8" standalone="no"?>
<!DOCTYPE svg PUBLIC "-//W3C//DTD SVG 1.1//EN"
  "http://www.w3.org/Graphics/SVG/1.1/DTD/svg11.dtd">
<!-- Created with matplotlib (http://matplotlib.org/) -->
<svg height="72pt" version="1.1" viewBox="0 0 72 72" width="72pt" xmlns="http://www.w3.org/2000/svg" xmlns:xlink="http://www.w3.org/1999/xlink">
 <defs>
  <style type="text/css">
*{stroke-linecap:butt;stroke-linejoin:round;}
  </style>
 </defs>
 <g id="figure_1">
  <g id="patch_1">
   <path d="
M0 72
L72 72
L72 0
L0 0
z
" style="fill:none;"/>
  </g>
  <g id="axes_1">
   <g id="PatchCollection_1">
    <defs>
     <path d="
M36 -7.5
C43.5583 -7.5 50.808 -10.5029 56.1525 -15.8475
C61.4971 -21.192 64.5 -28.4417 64.5 -36
C64.5 -43.5583 61.4971 -50.808 56.1525 -56.1525
C50.808 -61.4971 43.5583 -64.5 36 -64.5
C28.4417 -64.5 21.192 -61.4971 15.8475 -56.1525
C10.5029 -50.808 7.5 -43.5583 7.5 -36
C7.5 -28.4417 10.5029 -21.192 15.8475 -15.8475
C21.192 -10.5029 28.4417 -7.5 36 -7.5
z
" id="C0_0_a811fe30f3"/>
     <path d="
M45.8785 -62.6038
L45.8296 -62.3578
L45.7787 -62.1126
L45.7257 -61.8683
L45.671 -61.625
L45.6146 -61.3826
L45.5566 -61.1412
L45.4973 -60.9008
L45.4366 -60.6615
L45.3747 -60.4231
L45.3118 -60.1857
L45.2478 -59.9493
L45.1829 -59.714
L45.1171 -59.4797
L45.0505 -59.2464
L44.9832 -59.014
L44.9152 -58.7827
L44.8466 -58.5523
L44.7773 -58.3229
L44.7075 -58.0944
L44.6372 -57.8668
L44.5665 -57.6401
L44.4952 -57.4143
L44.4236 -57.1894
L44.3515 -56.9652
L44.2791 -56.7418
L44.2062 -56.5192
L44.1331 -56.2973
L44.0596 -56.0761
L43.9858 -55.8555
L43.9116 -55.6356
L43.8372 -55.4162
L43.7624 -55.1975
L43.6874 -54.9792
L43.6121 -54.7613
L43.5364 -54.544
L43.4605 -54.327
L43.3843 -54.1103
L43.3078 -53.894
L43.231 -53.678
L43.1539 -53.4621
L43.0765 -53.2465
L42.9987 -53.031
L42.9207 -52.8156
L42.8423 -52.6002
L42.7635 -52.3849
L42.6844 -52.1695
L42.605 -51.954
L42.5252 -51.7384
L42.4449 -51.5226
L42.3643 -51.3065
L42.2833 -51.0902
L42.2018 -50.8736
L42.0376 -50.6566
L41.9547 -50.4392
L41.8714 -50.2213
L41.7876 -50.0029
L41.7032 -49.7839
L41.6183 -49.5642
L41.5328 -49.3439
L41.4467 -49.1229
L41.36 -48.9011
L41.2727 -48.6784
L41.1847 -48.4549
L41.0961 -48.2304
L41.0067 -48.0049
L40.9166 -47.7784
L40.8258 -47.5508
L40.7342 -47.322
L40.6418 -47.092
L40.5486 -46.8607
L40.4546 -46.6281
L40.3596 -46.3941
L40.2638 -46.1586
L40.167 -45.9217
L40.0692 -45.6832
L39.9705 -45.4431
L39.8707 -45.2013
L39.7699 -44.9578
L39.668 -44.7125
L39.565 -44.4654
L39.4608 -44.2164
L39.3554 -43.9654
L39.2488 -43.7124
L39.141 -43.4574
L39.0318 -43.2002
L38.9214 -42.9409
L38.8095 -42.6793
L38.6963 -42.4155
L38.5816 -42.1493
L38.4655 -41.8808
L38.3478 -41.6098
L38.2286 -41.3364
L38.1078 -41.0605
L37.9853 -40.782
L37.8612 -40.501
L37.7353 -40.2173
L37.6077 -39.931
L37.4783 -39.6421
L37.3471 -39.3504
L37.2139 -39.0561
L37.0788 -38.7591
L36.9418 -38.4594
L36.8027 -38.1569
L36.6616 -37.8518
L36.5183 -37.5441
L36.3729 -37.2337
L36.2253 -36.9207
L36.0754 -36.6052
L35.9232 -36.2872
L35.7686 -35.9668
L35.6117 -35.6442
L35.4522 -35.3193
L35.2903 -34.9924
L35.1258 -34.6637
L34.9586 -34.3332
L34.7886 -34.0011
L34.6159 -33.6678
L34.4404 -33.3333
L34.2618 -32.9981
L34.0802 -32.6624
L33.8955 -32.3266
L33.7075 -31.991
L33.516 -31.6561
L33.3211 -31.3223
L33.1224 -30.9903
L32.9198 -30.6605
L32.7131 -30.3337
L32.5021 -30.0105
L32.2865 -29.6918
L32.0661 -29.3784
L31.8404 -29.0713
L31.6093 -28.7715
L31.3722 -28.4802
L31.1289 -28.1985
L30.8788 -27.9278
L30.6216 -27.6694
L30.3569 -27.4248
L30.0843 -27.1953
L29.8033 -26.9825
L29.5139 -26.7877
L29.2157 -26.6121
L28.9087 -26.457
L28.593 -26.3232
L28.2689 -26.2114
L27.9367 -26.122
L27.597 -26.0552
L27.2504 -26.0108
L26.8976 -25.9884
L26.5394 -25.9873
L26.1769 -26.0067
L25.8107 -26.0455
L25.4419 -26.1028
L25.0713 -26.1773
L24.6997 -26.268
L24.3279 -26.3737
L23.9567 -26.4933
L23.5867 -26.6257
L23.2186 -26.77
L22.8528 -26.9252
L22.49 -27.0904
L22.1305 -27.2649
L21.7748 -27.4478
L21.4233 -27.6385
L21.0761 -27.8363
L20.7337 -28.0406
L20.3963 -28.2508
L20.064 -28.4666
L19.737 -28.6873
L19.4156 -28.9126
L19.0997 -29.142
L18.7896 -29.3751
L18.4852 -29.6117
L18.1867 -29.8515
L17.894 -30.094
L17.6072 -30.3391
L17.3264 -30.5864
L17.0514 -30.8359
L16.7823 -31.0871
L16.5191 -31.34
L16.2617 -31.5944
L16.0101 -31.8501
L15.7642 -32.1069
L15.524 -32.3647
L15.2894 -32.6233
L15.0604 -32.8828
L14.8368 -33.1428
L14.6187 -33.4035
L14.4059 -33.6646
L14.1983 -33.926
L13.9959 -34.1878
L13.7986 -34.4499
L13.6063 -34.7121
L13.4189 -34.9745
L13.2364 -35.2371
L13.0587 -35.4997
L12.8856 -35.7623
L12.7172 -36.025
L12.5533 -36.2877
L12.3938 -36.5504
L12.2388 -36.8131
L12.0881 -37.0757
L11.9416 -37.3384
L11.7992 -37.601
L11.661 -37.8636
L11.5268 -38.1263
L11.3967 -38.3889
L11.2704 -38.6516
L11.148 -38.9144
L11.0294 -39.1772
L10.9146 -39.4401
L10.8035 -39.7032
L10.6961 -39.9664
L10.5923 -40.2299
L10.4921 -40.4935
L10.3954 -40.7575
L10.3023 -41.0217
L10.2127 -41.2862
L10.1265 -41.5512
L10.0438 -41.8166
L9.96449 -42.0824
L9.8886 -42.3488
L9.8161 -42.6157
L9.74699 -42.8833
L9.68126 -43.1515
L9.6189 -43.4204
L9.55992 -43.6901
L9.50433 -43.9606
L9.45212 -44.232
L9.40332 -44.5044
L9.35794 -44.7777
L9.31601 -45.0521
L9.27754 -45.3276
L9.35197 -45.6043
L9.53241 -46.1061
L9.7209 -46.5696
L9.9174 -47.0299
L10.1218 -47.4869
L10.3342 -47.9403
L10.5543 -48.3901
L10.7822 -48.8362
L11.0178 -49.2783
L11.261 -49.7164
L11.5117 -50.1503
L11.7699 -50.5799
L12.0355 -51.0051
L12.3083 -51.4257
L12.5884 -51.8416
L12.8756 -52.2526
L13.1699 -52.6587
L13.4711 -53.0598
L13.7792 -53.4556
L14.094 -53.8461
L14.4155 -54.2312
L14.7436 -54.6108
L15.0782 -54.9846
L15.4191 -55.3527
L15.7663 -55.7149
L16.1197 -56.0711
L16.4791 -56.4212
L16.8445 -56.765
L17.2157 -57.1025
L17.5926 -57.4336
L17.9752 -57.7582
L18.3632 -58.0761
L18.7566 -58.3873
L19.1552 -58.6917
L19.559 -58.9892
L19.9678 -59.2797
L20.3815 -59.5631
L20.7999 -59.8393
L21.223 -60.1082
L21.6505 -60.3699
L22.0825 -60.624
L22.5187 -60.8707
L22.9589 -61.1098
L23.4032 -61.3413
L23.8513 -61.565
L24.3031 -61.781
L24.7584 -61.9891
L25.2172 -62.1893
L25.6793 -62.3815
L26.1445 -62.5656
L26.6127 -62.7417
L27.0837 -62.9096
L27.5575 -63.0694
L28.0339 -63.2208
L28.5127 -63.364
L28.9937 -63.4989
L29.4769 -63.6254
L29.9621 -63.7435
L30.4491 -63.8531
L30.9378 -63.9542
L31.4281 -64.0468
L31.9197 -64.1309
L32.4126 -64.2064
L32.9066 -64.2733
L33.4015 -64.3316
L33.8973 -64.3813
L34.3936 -64.4223
L34.8905 -64.4547
L35.3877 -64.4784
L35.885 -64.4934
L36.3824 -64.4998
L36.8797 -64.4974
L37.3767 -64.4864
L37.8734 -64.4667
L38.3694 -64.4384
L38.8647 -64.4013
L39.3591 -64.3557
L39.8525 -64.3013
L40.3448 -64.2384
L40.8357 -64.1669
L41.3252 -64.0868
L41.813 -63.9981
L42.299 -63.9009
L42.7832 -63.7952
L43.2652 -63.681
L43.7451 -63.5584
L44.2226 -63.4274
L44.6976 -63.2881
L45.1699 -63.1404
z
" id="C0_1_15fd7ea30d"/>
     <path d="
M62.7124 -26.1344
L62.5051 -25.9462
L62.2961 -25.7607
L62.0852 -25.5779
L61.8724 -25.3978
L61.6578 -25.2202
L61.4412 -25.0452
L61.2226 -24.8726
L61.0021 -24.7024
L60.7795 -24.5346
L60.5548 -24.3691
L60.328 -24.206
L60.0991 -24.045
L59.868 -23.8863
L59.6346 -23.7298
L59.3988 -23.5754
L59.1608 -23.4231
L58.9203 -23.2729
L58.6773 -23.1248
L58.4319 -22.9788
L58.1838 -22.8348
L57.9331 -22.6928
L57.6797 -22.5528
L57.4236 -22.4149
L57.1646 -22.2789
L56.9028 -22.1449
L56.638 -22.0129
L56.3702 -21.883
L56.0993 -21.755
L55.8253 -21.629
L55.548 -21.505
L55.2675 -21.3831
L54.9836 -21.2632
L54.6964 -21.1453
L54.4056 -21.0295
L54.1113 -20.9159
L53.8134 -20.8043
L53.5117 -20.695
L53.2064 -20.5878
L52.8972 -20.4828
L52.5842 -20.3801
L52.2673 -20.2796
L51.9463 -20.1815
L51.6214 -20.0858
L51.2923 -19.9925
L50.9591 -19.9017
L50.6217 -19.8133
L50.2801 -19.7276
L49.9343 -19.6444
L49.5842 -19.5639
L49.2298 -19.4861
L48.8711 -19.411
L48.508 -19.3387
L48.1407 -19.2693
L47.769 -19.2028
L47.3931 -19.1392
L47.0129 -19.0786
L46.6285 -19.021
L46.24 -18.9663
L45.8474 -18.9148
L45.4509 -18.8662
L45.0504 -18.8207
L44.6463 -18.7782
L44.2385 -18.7387
L43.8274 -18.7022
L43.4129 -18.6684
L42.9955 -18.6375
L42.5753 -18.6092
L42.1525 -18.5833
L41.7276 -18.5597
L41.3007 -18.5382
L40.8724 -18.5184
L40.4429 -18.5001
L40.0128 -18.4828
L39.5825 -18.4661
L39.1525 -18.4495
L38.7235 -18.4323
L38.296 -18.414
L37.8708 -18.3936
L37.4484 -18.3703
L37.0298 -18.3433
L36.6157 -18.3114
L36.2069 -18.2736
L35.8043 -18.2286
L35.4087 -18.1754
L35.021 -18.1126
L34.642 -18.0392
L34.2723 -17.954
L33.9127 -17.8562
L33.5636 -17.7449
L33.2254 -17.6197
L32.8984 -17.4803
L32.5826 -17.3266
L32.2779 -17.1591
L31.9842 -16.9782
L31.701 -16.7846
L31.428 -16.5792
L31.1648 -16.3632
L30.9107 -16.1375
L30.6653 -15.9033
L30.428 -15.6618
L30.1984 -15.4141
L29.9759 -15.1612
L29.7601 -14.9041
L29.5506 -14.6437
L29.347 -14.381
L29.1489 -14.1166
L28.9562 -13.8513
L28.7684 -13.5857
L28.5853 -13.3204
L28.4068 -13.0559
L28.2325 -12.7926
L28.0623 -12.531
L27.8961 -12.2713
L27.7336 -12.0139
L27.5748 -11.7591
L27.4196 -11.507
L27.2677 -11.2579
L27.1191 -11.0119
L26.9737 -10.7692
L26.8313 -10.5299
L26.692 -10.294
L26.5555 -10.0618
L26.4219 -9.8331
L26.2911 -9.60808
L26.5869 -9.38675
L27.0578 -9.09937
L27.5315 -8.93919
L28.0077 -8.78725
L28.4863 -8.6436
L28.9673 -8.50828
L29.4504 -8.38133
L29.9354 -8.2628
L30.4224 -8.15272
L30.911 -8.05112
L31.4012 -7.95803
L31.8927 -7.87349
L32.3856 -7.79751
L32.8795 -7.73012
L33.3744 -7.67135
L33.8701 -7.6212
L34.3664 -7.5797
L34.8632 -7.54686
L35.3604 -7.52268
L35.8577 -7.50718
L36.3551 -7.50036
L36.8525 -7.50221
L37.3495 -7.51275
L37.8461 -7.53197
L38.3422 -7.55986
L38.8375 -7.59641
L39.332 -7.64161
L39.8255 -7.69545
L40.3178 -7.75791
L40.8088 -7.82898
L41.2983 -7.90863
L41.7863 -7.99683
L42.2724 -8.09356
L42.7567 -8.1988
L43.2388 -8.3125
L43.7188 -8.43464
L44.1964 -8.56517
L44.6716 -8.70406
L45.1441 -8.85127
L45.6138 -9.00674
L46.0805 -9.17044
L46.5443 -9.34231
L47.0047 -9.5223
L47.4619 -9.71035
L47.9155 -9.90642
L48.3656 -10.1104
L48.8118 -10.3223
L49.2542 -10.542
L49.6925 -10.7695
L50.1266 -11.0047
L50.5565 -11.2475
L50.9819 -11.4978
L51.4027 -11.7555
L51.8189 -12.0207
L52.2302 -12.2932
L52.6366 -12.5729
L53.0379 -12.8597
L53.434 -13.1536
L53.8249 -13.4544
L54.2102 -13.7621
L54.5901 -14.0766
L54.9643 -14.3977
L55.3327 -14.7254
L55.6952 -15.0597
L56.0517 -15.4002
L56.4021 -15.7471
L56.7463 -16.1002
L57.0842 -16.4592
L57.4156 -16.8243
L57.7406 -17.1952
L58.0589 -17.5718
L58.3704 -17.954
L58.6752 -18.3418
L58.9731 -18.7349
L59.2639 -19.1332
L59.5477 -19.5367
L59.8243 -19.9453
L60.0937 -20.3587
L60.3557 -20.7768
L60.6103 -21.1997
L60.8574 -21.627
L61.0969 -22.0587
L61.3288 -22.4946
L61.5529 -22.9347
L61.7693 -23.3787
L61.9779 -23.8266
L62.1785 -24.2782
L62.3711 -24.7334
L62.5557 -25.1919
z
" id="C0_2_02334d4557"/>
    </defs>
    <g clip-path="url(#p1bffca34e9)">
     <use style="fill:#ffffff;stroke:#000000;stroke-width:2.0;" x="0.0" xlink:href="#C0_0_a811fe30f3" y="72.0"/>
    </g>
    <g clip-path="url(#p1bffca34e9)">
     <use style="fill:#ff0000;stroke:#000000;stroke-width:2.0;" x="0.0" xlink:href="#C0_1_15fd7ea30d" y="72.0"/>
    </g>
    <g clip-path="url(#p1bffca34e9)">
     <use style="fill:#ff0000;stroke:#000000;stroke-width:2.0;" x="0.0" xlink:href="#C0_2_02334d4557" y="72.0"/>
    </g>
   </g>
  </g>
 </g>
 <defs>
  <clipPath id="p1bffca34e9">
   <rect height="72.0" width="72.0" x="0.0" y="0.0"/>
  </clipPath>
 </defs>
</svg>
