<?xml version="1.0" encoding="utf-8" standalone="no"?>
<!DOCTYPE svg PUBLIC "-//W3C//DTD SVG 1.1//EN"
  "http://www.w3.org/Graphics/SVG/1.1/DTD/svg11.dtd">
<!-- Created with matplotlib (http://matplotlib.org/) -->
<svg height="72pt" version="1.1" viewBox="0 0 72 72" width="72pt" xmlns="http://www.w3.org/2000/svg" xmlns:xlink="http://www.w3.org/1999/xlink">
 <defs>
  <style type="text/css">
*{stroke-linecap:butt;stroke-linejoin:round;}
  </style>
 </defs>
 <g id="figure_1">
  <g id="patch_1">
   <path d="
M0 72
L72 72
L72 0
L0 0
z
" style="fill:none;"/>
  </g>
  <g id="axes_1">
   <g id="PatchCollection_1">
    <defs>
     <path d="
M36 -7.5
C43.5583 -7.5 50.808 -10.5029 56.1525 -15.8475
C61.4971 -21.192 64.5 -28.4417 64.5 -36
C64.5 -43.5583 61.4971 -50.808 56.1525 -56.1525
C50.808 -61.4971 43.5583 -64.5 36 -64.5
C28.4417 -64.5 21.192 -61.4971 15.8475 -56.1525
C10.5029 -50.808 7.5 -43.5583 7.5 -36
C7.5 -28.4417 10.5029 -21.192 15.8475 -15.8475
C21.192 -10.5029 28.4417 -7.5 36 -7.5
z
" id="C0_0_a811fe30f3"/>
     <path d="
M54.4836 -14.3065
L54.3612 -14.4492
L54.237 -14.5919
L54.1109 -14.7348
L53.9831 -14.8778
L53.8534 -15.0211
L53.722 -15.1645
L53.5887 -15.3082
L53.4536 -15.4521
L53.3168 -15.5963
L53.178 -15.7409
L53.0375 -15.8857
L52.8951 -16.031
L52.7509 -16.1766
L52.6047 -16.3226
L52.4567 -16.4691
L52.3069 -16.616
L52.155 -16.7634
L52.0013 -16.9112
L51.8456 -17.0596
L51.688 -17.2085
L51.5283 -17.3579
L51.3666 -17.5078
L51.2029 -17.6583
L51.0372 -17.8094
L50.8693 -17.9611
L50.6994 -18.1133
L50.5273 -18.2662
L50.3531 -18.4196
L50.1767 -18.5737
L49.998 -18.7284
L49.8172 -18.8837
L49.634 -19.0396
L49.4486 -19.1961
L49.2609 -19.3532
L49.0708 -19.5108
L48.8783 -19.6691
L48.6835 -19.8279
L48.4862 -19.9873
L48.2864 -20.1472
L48.0842 -20.3076
L47.8795 -20.4685
L47.6722 -20.6299
L47.4624 -20.7916
L47.25 -20.9538
L47.035 -21.1162
L46.8173 -21.279
L46.5971 -21.442
L46.3741 -21.6052
L46.1485 -21.7685
L45.9201 -21.9319
L45.689 -22.0952
L45.4552 -22.2585
L45.2187 -22.4216
L44.9793 -22.5844
L44.7372 -22.7468
L44.4924 -22.9088
L44.2447 -23.0702
L43.9943 -23.231
L43.7411 -23.3909
L43.4851 -23.5499
L43.2264 -23.7078
L42.9649 -23.8644
L42.7006 -24.0197
L42.4336 -24.1735
L42.1639 -24.3256
L41.8915 -24.4758
L41.6164 -24.624
L41.3387 -24.77
L41.0584 -24.9135
L40.7755 -25.0545
L40.49 -25.1926
L40.2021 -25.3278
L39.9117 -25.4597
L39.619 -25.5883
L39.3239 -25.7132
L39.0265 -25.8344
L38.7269 -25.9515
L38.4252 -26.0645
L38.1214 -26.1731
L37.8156 -26.277
L37.5079 -26.3763
L37.1984 -26.4706
L36.8871 -26.5598
L36.5742 -26.6439
L36.2598 -26.7226
L35.9439 -26.7958
L35.6267 -26.8634
L35.3083 -26.9254
L34.9888 -26.9817
L34.6684 -27.0323
L34.347 -27.0771
L34.0249 -27.116
L33.7023 -27.1492
L33.3791 -27.1766
L33.0556 -27.1984
L32.7319 -27.2144
L32.4081 -27.225
L32.0843 -27.23
L31.7607 -27.2297
L31.4375 -27.2242
L31.1147 -27.2135
L30.7924 -27.1979
L30.4709 -27.1775
L30.1502 -27.1525
L29.8304 -27.123
L29.5118 -27.0891
L29.1943 -27.0512
L28.8781 -27.0093
L28.5633 -26.9637
L28.25 -26.9144
L27.9384 -26.8617
L27.6284 -26.8058
L27.3203 -26.7469
L27.014 -26.685
L26.7097 -26.6205
L26.4074 -26.5533
L26.1073 -26.4837
L25.8093 -26.4119
L25.5135 -26.338
L25.2201 -26.2621
L24.9289 -26.1844
L24.6402 -26.1049
L24.3539 -26.0239
L24.07 -25.9414
L23.7887 -25.8576
L23.5098 -25.7725
L23.2335 -25.6862
L22.9598 -25.5989
L22.6886 -25.5106
L22.42 -25.4215
L22.1541 -25.3315
L21.8907 -25.2408
L21.6299 -25.1495
L21.3718 -25.0575
L21.1162 -24.965
L20.8633 -24.872
L20.6129 -24.7786
L20.3652 -24.6848
L20.12 -24.5906
L19.8773 -24.4962
L19.6372 -24.4015
L19.3996 -24.3065
L19.1645 -24.2113
L18.9319 -24.116
L18.7018 -24.0204
L18.4741 -23.9248
L18.2488 -23.829
L18.0259 -23.7332
L17.8054 -23.6372
L17.5872 -23.5412
L17.3713 -23.4451
L17.1577 -23.3489
L16.9464 -23.2527
L16.7374 -23.1565
L16.5305 -23.0602
L16.3258 -22.9638
L16.1233 -22.8674
L15.923 -22.771
L15.7247 -22.6745
L15.5285 -22.5779
L15.3344 -22.4813
L15.1423 -22.3845
L14.9523 -22.2877
L14.7642 -22.1908
L14.5781 -22.0938
L14.3939 -21.9967
L14.2116 -21.8994
L14.0313 -21.802
L13.8529 -21.7044
L13.6763 -21.6066
L13.5016 -21.5086
L13.3287 -21.4104
L13.1576 -21.3119
L12.9883 -21.2132
L12.8209 -21.1141
L12.6552 -21.0148
L12.4913 -20.9151
L12.3292 -20.815
L12.1688 -20.7145
L12.2824 -20.1972
L12.5618 -19.7857
L12.8484 -19.3791
L13.142 -18.9776
L13.4426 -18.5813
L13.75 -18.1902
L14.0642 -17.8046
L14.3851 -17.4246
L14.7126 -17.0502
L15.0465 -16.6815
L15.3869 -16.3188
L15.7335 -15.9621
L16.0863 -15.6114
L16.4452 -15.267
L16.81 -14.9288
L17.1807 -14.5971
L17.5571 -14.272
L17.9391 -13.9534
L18.3266 -13.6415
L18.7195 -13.3365
L19.1176 -13.0384
L19.521 -12.7472
L19.9293 -12.4632
L20.3425 -12.1863
L20.7605 -11.9167
L21.1831 -11.6544
L21.6103 -11.3995
L22.0418 -11.1521
L22.4776 -10.9123
L22.9175 -10.6801
L23.3614 -10.4556
L23.8091 -10.2389
L24.2606 -10.0301
L24.7156 -9.82918
L25.174 -9.63622
L25.6358 -9.4513
L26.1007 -9.27446
L26.5687 -9.10577
L27.0395 -8.94526
L27.513 -8.793
L27.9891 -8.64903
L28.4677 -8.51338
L28.9485 -8.38611
L29.4315 -8.26725
L29.9165 -8.15684
L30.4034 -8.05491
L30.892 -7.96149
L31.3821 -7.87662
L31.8736 -7.8003
L32.3664 -7.73258
L32.8603 -7.67347
L33.3551 -7.62299
L33.8508 -7.58115
L34.3471 -7.54797
L34.8439 -7.52346
L35.341 -7.50762
L35.8384 -7.50046
L36.3358 -7.50198
L36.8331 -7.51218
L37.3302 -7.53106
L37.8268 -7.55861
L38.3229 -7.59482
L38.8183 -7.63969
L39.3128 -7.69319
L39.8063 -7.75532
L40.2987 -7.82605
L40.7897 -7.90537
L41.2793 -7.99324
L41.7673 -8.08964
L42.2535 -8.19455
L42.7379 -8.30792
L43.2201 -8.42973
L43.7002 -8.55994
L44.1779 -8.6985
L44.6531 -8.84539
L45.1257 -9.00054
L45.5956 -9.16392
L46.0625 -9.33547
L46.5263 -9.51515
L46.9869 -9.70289
L47.4442 -9.89864
L47.898 -10.1023
L48.3481 -10.3139
L48.7945 -10.5334
L49.237 -10.7605
L49.6755 -10.9954
L50.1098 -11.2379
L50.5398 -11.4879
L50.9654 -11.7454
L51.3864 -12.0103
L51.8028 -12.2824
L52.2143 -12.5618
L52.6209 -12.8484
L53.0224 -13.142
L53.4187 -13.4426
L53.8098 -13.75
z
" id="C0_1_5b271e0e75"/>
     <path d="
M59.8312 -51.2855
L59.6708 -51.185
L59.5087 -51.0849
L59.3448 -50.9852
L59.1791 -50.8859
L59.0117 -50.7868
L58.8424 -50.6881
L58.6713 -50.5896
L58.4984 -50.4914
L58.3237 -50.3934
L58.1471 -50.2956
L57.9687 -50.198
L57.7884 -50.1006
L57.6061 -50.0033
L57.4219 -49.9062
L57.2358 -49.8092
L57.0477 -49.7123
L56.8577 -49.6155
L56.6656 -49.5187
L56.4715 -49.4221
L56.2753 -49.3255
L56.077 -49.229
L55.8767 -49.1326
L55.6742 -49.0362
L55.4695 -48.9398
L55.2626 -48.8435
L55.0536 -48.7473
L54.8423 -48.6511
L54.6287 -48.5549
L54.4128 -48.4588
L54.1946 -48.3628
L53.9741 -48.2668
L53.7512 -48.171
L53.5259 -48.0752
L53.2982 -47.9796
L53.0681 -47.884
L52.8355 -47.7887
L52.6004 -47.6935
L52.3628 -47.5985
L52.1227 -47.5038
L51.88 -47.4094
L51.6348 -47.3152
L51.3871 -47.2214
L51.1367 -47.128
L50.8838 -47.035
L50.6282 -46.9425
L50.3701 -46.8505
L50.1093 -46.7592
L49.8459 -46.6685
L49.58 -46.5785
L49.3114 -46.4894
L49.0402 -46.4011
L48.7665 -46.3138
L48.4902 -46.2275
L48.2113 -46.1424
L47.93 -46.0586
L47.6461 -45.9761
L47.3598 -45.8951
L47.0711 -45.8156
L46.7799 -45.7379
L46.4865 -45.662
L46.1907 -45.5881
L45.8927 -45.5163
L45.5926 -45.4467
L45.2903 -45.3795
L44.986 -45.315
L44.6797 -45.2531
L44.3716 -45.1942
L44.0616 -45.1383
L43.75 -45.0856
L43.4367 -45.0363
L43.1219 -44.9907
L42.8057 -44.9488
L42.4882 -44.9109
L42.1696 -44.877
L41.8498 -44.8475
L41.5291 -44.8225
L41.2076 -44.8021
L40.8853 -44.7865
L40.5625 -44.7758
L40.2393 -44.7703
L39.9157 -44.77
L39.5919 -44.775
L39.2681 -44.7856
L38.9444 -44.8016
L38.6209 -44.8234
L38.2977 -44.8508
L37.9751 -44.884
L37.653 -44.9229
L37.3316 -44.9677
L37.0112 -45.0183
L36.6917 -45.0746
L36.3733 -45.1366
L36.0561 -45.2042
L35.7402 -45.2774
L35.4258 -45.3561
L35.1129 -45.4402
L34.8016 -45.5294
L34.4921 -45.6237
L34.1844 -45.723
L33.8786 -45.8269
L33.5748 -45.9355
L33.2731 -46.0485
L32.9735 -46.1656
L32.6761 -46.2868
L32.381 -46.4117
L32.0883 -46.5403
L31.7979 -46.6722
L31.51 -46.8074
L31.2245 -46.9455
L30.9416 -47.0865
L30.6613 -47.23
L30.3836 -47.376
L30.1085 -47.5242
L29.8361 -47.6744
L29.5664 -47.8265
L29.2994 -47.9803
L29.0351 -48.1356
L28.7736 -48.2922
L28.5149 -48.4501
L28.2589 -48.6091
L28.0057 -48.769
L27.7553 -48.9298
L27.5076 -49.0912
L27.2628 -49.2532
L27.0207 -49.4156
L26.7813 -49.5784
L26.5448 -49.7415
L26.311 -49.9048
L26.0799 -50.0681
L25.8515 -50.2315
L25.6259 -50.3948
L25.4029 -50.558
L25.1827 -50.721
L24.965 -50.8838
L24.75 -51.0462
L24.5376 -51.2084
L24.3278 -51.3701
L24.1205 -51.5315
L23.9158 -51.6924
L23.7136 -51.8528
L23.5138 -52.0127
L23.3165 -52.1721
L23.1217 -52.3309
L22.9292 -52.4892
L22.7391 -52.6468
L22.5514 -52.8039
L22.366 -52.9604
L22.1828 -53.1163
L22.002 -53.2716
L21.8233 -53.4263
L21.6469 -53.5804
L21.4727 -53.7338
L21.3006 -53.8867
L21.1307 -54.0389
L20.9628 -54.1906
L20.7971 -54.3417
L20.6334 -54.4922
L20.4717 -54.6421
L20.312 -54.7915
L20.1544 -54.9404
L19.9987 -55.0888
L19.845 -55.2366
L19.6931 -55.384
L19.5433 -55.5309
L19.3953 -55.6774
L19.2491 -55.8234
L19.1049 -55.969
L18.9625 -56.1143
L18.822 -56.2591
L18.6832 -56.4037
L18.5464 -56.5479
L18.4113 -56.6918
L18.278 -56.8355
L18.1466 -56.9789
L18.0169 -57.1222
L17.8891 -57.2652
L17.763 -57.4081
L17.8983 -57.5508
L18.2853 -58.0132
L18.6776 -58.3257
L19.0752 -58.6315
L19.478 -58.9304
L19.8858 -59.2222
L20.2985 -59.5071
L20.716 -59.7847
L21.1381 -60.0551
L21.5648 -60.3182
L21.9959 -60.5739
L22.4312 -60.8221
L22.8707 -61.0627
L23.3142 -61.2957
L23.7615 -61.521
L24.2125 -61.7385
L24.6672 -61.9481
L25.1253 -62.1499
L25.5867 -62.3437
L26.0513 -62.5295
L26.5189 -62.7072
L26.9894 -62.8767
L27.4627 -63.0381
L27.9385 -63.1913
L28.4169 -63.3361
L28.8975 -63.4726
L29.3803 -63.6008
L29.8651 -63.7206
L30.3517 -63.8319
L30.8401 -63.9347
L31.3301 -64.029
L31.8215 -64.1148
L32.3141 -64.192
L32.8079 -64.2606
L33.3026 -64.3207
L33.7982 -64.3721
L34.2944 -64.4148
L34.7912 -64.4489
L35.2883 -64.4744
L35.7857 -64.4911
L36.2831 -64.4992
L36.7804 -64.4986
L37.2775 -64.4893
L37.7742 -64.4714
L38.2704 -64.4447
L38.7658 -64.4094
L39.2605 -64.3655
L39.7541 -64.3129
L40.2466 -64.2517
L40.7378 -64.1818
L41.2275 -64.1034
L41.7157 -64.0165
L42.2021 -63.921
L42.6866 -63.817
L43.1691 -63.7045
L43.6494 -63.5836
L44.1274 -63.4543
L44.6029 -63.3166
L45.0758 -63.1706
L45.5459 -63.0163
L46.0131 -62.8538
L46.4773 -62.6831
L46.9382 -62.5043
L47.3959 -62.3174
L47.85 -62.1225
L48.3006 -61.9196
L48.7474 -61.7089
L49.1903 -61.4903
L49.6292 -61.2639
L50.064 -61.0299
L50.4945 -60.7882
L50.9205 -60.539
L51.342 -60.2823
L51.7589 -60.0182
L52.1709 -59.7467
L52.578 -59.4681
L52.9801 -59.1823
L53.377 -58.8894
L53.7686 -58.5896
L54.1548 -58.2829
L54.5354 -57.9694
L54.9104 -57.6492
L55.2797 -57.3224
L55.643 -56.9892
L56.0004 -56.6495
L56.3517 -56.3035
L56.6968 -55.9514
L57.0356 -55.5931
L57.368 -55.2289
L57.6939 -54.8589
L58.0132 -54.4831
L58.3257 -54.1017
L58.6315 -53.7147
L58.9304 -53.3224
L59.2222 -52.9248
L59.5071 -52.522
z
" id="C0_2_de9caae563"/>
    </defs>
    <g clip-path="url(#p1bffca34e9)">
     <use style="fill:#ffffff;stroke:#000000;stroke-width:2.0;" x="0.0" xlink:href="#C0_0_a811fe30f3" y="72.0"/>
    </g>
    <g clip-path="url(#p1bffca34e9)">
     <use style="fill:#ff0000;stroke:#000000;stroke-width:2.0;" x="0.0" xlink:href="#C0_1_5b271e0e75" y="72.0"/>
    </g>
    <g clip-path="url(#p1bffca34e9)">
     <use style="fill:#ff0000;stroke:#000000;stroke-width:2.0;" x="0.0" xlink:href="#C0_2_de9caae563" y="72.0"/>
    </g>
   </g>
  </g>
 </g>
 <defs>
  <clipPath id="p1bffca34e9">
   <rect height="72.0" width="72.0" x="0.0" y="0.0"/>
  </clipPath>
 </defs>
</svg>
