<?xml version="1.0" encoding="utf-8" standalone="no"?>
<!DOCTYPE svg PUBLIC "-//W3C//DTD SVG 1.1//EN"
  "http://www.w3.org/Graphics/SVG/1.1/DTD/svg11.dtd">
<!-- Created with matplotlib (http://matplotlib.org/) -->
<svg height="72pt" version="1.1" viewBox="0 0 72 72" width="72pt" xmlns="http://www.w3.org/2000/svg" xmlns:xlink="http://www.w3.org/1999/xlink">
 <defs>
  <style type="text/css">
*{stroke-linecap:butt;stroke-linejoin:round;}
  </style>
 </defs>
 <g id="figure_1">
  <g id="patch_1">
   <path d="
M0 72
L72 72
L72 0
L0 0
z
" style="fill:none;"/>
  </g>
  <g id="axes_1">
   <g id="PatchCollection_1">
    <defs>
     <path d="
M36 -7.5
C43.5583 -7.5 50.808 -10.5029 56.1525 -15.8475
C61.4971 -21.192 64.5 -28.4417 64.5 -36
C64.5 -43.5583 61.4971 -50.808 56.1525 -56.1525
C50.808 -61.4971 43.5583 -64.5 36 -64.5
C28.4417 -64.5 21.192 -61.4971 15.8475 -56.1525
C10.5029 -50.808 7.5 -43.5583 7.5 -36
C7.5 -28.4417 10.5029 -21.192 15.8475 -15.8475
C21.192 -10.5029 28.4417 -7.5 36 -7.5
z
" id="C0_0_a811fe30f3"/>
     <path d="
M35.2402 -24.801
L35.5141 -24.8422
L35.7877 -24.8858
L36.0609 -24.932
L36.3339 -24.9807
L36.6065 -25.0319
L36.8789 -25.0857
L37.1511 -25.142
L37.423 -25.2008
L37.6946 -25.2622
L37.966 -25.3262
L38.2372 -25.3928
L38.5081 -25.4619
L38.7789 -25.5337
L39.0494 -25.6082
L39.3197 -25.6853
L39.5897 -25.7651
L39.8596 -25.8476
L40.1292 -25.9328
L40.3987 -26.0209
L40.6678 -26.1117
L40.9368 -26.2053
L41.2055 -26.3019
L41.4739 -26.4013
L41.742 -26.5036
L42.0099 -26.6089
L42.2774 -26.7172
L42.5446 -26.8286
L42.8114 -26.943
L43.0779 -27.0606
L43.3439 -27.1814
L43.6095 -27.3053
L43.8745 -27.4325
L44.1391 -27.5631
L44.403 -27.6969
L44.6663 -27.8342
L44.929 -27.975
L45.1909 -28.1192
L45.452 -28.267
L45.7122 -28.4184
L45.9715 -28.5734
L46.2297 -28.7322
L46.4869 -28.8947
L46.7429 -29.061
L46.9976 -29.2312
L47.251 -29.4053
L47.5028 -29.5833
L47.7531 -29.7654
L48.0017 -29.9515
L48.2484 -30.1418
L48.4933 -30.3362
L48.736 -30.5348
L48.9765 -30.7377
L49.2146 -30.9449
L49.4502 -31.1564
L49.6831 -31.3724
L49.9131 -31.5927
L50.1401 -31.8174
L50.3639 -32.0467
L50.5842 -32.2804
L50.801 -32.5187
L51.0139 -32.7615
L51.2228 -33.0089
L51.4275 -33.2608
L51.6277 -33.5173
L51.8233 -33.7783
L52.0139 -34.0439
L52.1994 -34.314
L52.3794 -34.5885
L52.5539 -34.8676
L52.7224 -35.151
L52.8848 -35.4389
L53.0408 -35.731
L53.1901 -36.0273
L53.3326 -36.3278
L53.4679 -36.6323
L53.5958 -36.9408
L53.7161 -37.2531
L53.8285 -37.5691
L53.9328 -37.8887
L54.0288 -38.2117
L54.1162 -38.538
L54.1949 -38.8673
L54.2647 -39.1995
L54.3254 -39.5344
L54.3768 -39.8718
L54.4187 -40.2115
L54.4511 -40.5531
L54.4739 -40.8966
L54.4868 -41.2417
L54.49 -41.588
L54.4832 -41.9354
L54.4665 -42.2835
L54.4398 -42.6321
L54.4032 -42.981
L54.3567 -43.3298
L54.3003 -43.6782
L54.234 -44.026
L54.1581 -44.3729
L54.0724 -44.7187
L53.9773 -45.063
L53.8728 -45.4055
L53.759 -45.7461
L53.6362 -46.0844
L53.5044 -46.4202
L53.364 -46.7533
L53.2151 -47.0834
L53.0578 -47.4103
L52.8925 -47.7338
L52.7194 -48.0536
L52.5386 -48.3696
L52.3504 -48.6817
L52.1551 -48.9895
L51.953 -49.293
L51.7441 -49.592
L51.5289 -49.8864
L51.3075 -50.176
L51.0802 -50.4608
L50.8472 -50.7405
L50.6088 -51.0152
L50.3652 -51.2847
L50.1166 -51.549
L49.8633 -51.808
L49.6055 -52.0616
L49.3434 -52.3097
L49.0773 -52.5524
L48.8073 -52.7897
L48.5336 -53.0214
L48.2565 -53.2475
L47.9761 -53.4682
L47.6926 -53.6832
L47.4062 -53.8927
L47.1171 -54.0967
L46.8254 -54.2951
L46.5314 -54.488
L46.235 -54.6754
L45.9366 -54.8573
L45.6362 -55.0337
L45.3339 -55.2047
L45.03 -55.3703
L44.7244 -55.5306
L44.4174 -55.6855
L44.109 -55.8351
L43.7994 -55.9795
L43.4887 -56.1186
L43.1768 -56.2526
L42.864 -56.3814
L42.5503 -56.5052
L42.2358 -56.6239
L41.9206 -56.7376
L41.6047 -56.8464
L41.2882 -56.9502
L40.9711 -57.0491
L40.6536 -57.1433
L40.3357 -57.2326
L40.0174 -57.3172
L39.6987 -57.397
L39.3798 -57.4722
L39.0607 -57.5428
L38.7413 -57.6087
L38.4218 -57.6701
L38.1021 -57.7269
L37.7824 -57.7793
L37.4626 -57.8271
L37.1427 -57.8705
L36.8228 -57.9095
L36.5029 -57.9441
L36.183 -57.9743
L35.8632 -58.0002
L35.5435 -58.0217
L35.2238 -58.0389
L34.9042 -58.0518
L34.5847 -58.0604
L34.2653 -58.0648
L33.9461 -58.0648
L33.627 -58.0606
L33.3081 -58.0522
L32.9893 -58.0395
L32.6707 -58.0225
L32.3524 -58.0013
L32.0342 -57.9759
L31.7162 -57.9461
L31.3985 -57.9121
L31.081 -57.8739
L30.7638 -57.8313
L30.4468 -57.7844
L30.1302 -57.7333
L29.8138 -57.6777
L29.4977 -57.6179
L29.182 -57.5536
L28.8666 -57.485
L28.5516 -57.4119
L28.2369 -57.3344
L27.9227 -57.2524
L27.6089 -57.1658
L27.2956 -57.0748
L26.9828 -56.9792
L26.6705 -56.8789
L26.3588 -56.774
L26.0476 -56.6644
L25.7371 -56.5501
L25.4273 -56.431
L25.1182 -56.3071
L24.8099 -56.1784
L24.5023 -56.0447
L24.1957 -55.9061
L23.89 -55.7625
L23.5852 -55.6139
L23.2816 -55.4602
L22.9791 -55.3014
L22.6777 -55.1373
L22.3777 -54.9681
L22.079 -54.7936
L21.7818 -54.6137
L21.4862 -54.4285
L21.1921 -54.2379
L20.8999 -54.0419
L20.6095 -53.8403
L20.3211 -53.6332
L20.0348 -53.4205
L19.7507 -53.2023
L19.4689 -52.9784
L19.1897 -52.7488
L18.9131 -52.5135
L18.6393 -52.2725
L18.3685 -52.0258
L18.1008 -51.7734
L17.8364 -51.5152
L17.5754 -51.2513
L17.3181 -50.9816
L17.0646 -50.7062
L16.8152 -50.4252
L16.57 -50.1384
L16.3292 -49.846
L16.0931 -49.5481
L15.8619 -49.2446
L15.6358 -48.9356
L15.415 -48.6212
L15.1997 -48.3016
L14.9903 -47.9768
L14.7869 -47.6469
L14.5898 -47.312
L14.3992 -46.9723
L14.2153 -46.6279
L14.0385 -46.2791
L13.8689 -45.9259
L13.7069 -45.5686
L13.5526 -45.2074
L13.4063 -44.8425
L13.2682 -44.4741
L13.1386 -44.1026
L13.0176 -43.7281
L12.9055 -43.3509
L12.8025 -42.9713
L12.7089 -42.5897
L12.6247 -42.2064
L12.5501 -41.8216
L12.4853 -41.4357
L12.4305 -41.0491
L12.3858 -40.662
L12.3512 -40.275
L12.3269 -39.8882
L12.3129 -39.5021
L12.3094 -39.1171
L12.3162 -38.7335
L12.3335 -38.3517
L12.3612 -37.972
L12.3992 -37.5948
L12.4476 -37.2204
L12.5062 -36.8492
L12.575 -36.4815
L12.6538 -36.1176
L12.7425 -35.7578
L12.8409 -35.4024
L12.9488 -35.0517
L13.0662 -34.7059
L13.1926 -34.3652
L13.328 -34.03
L13.472 -33.7003
L13.6245 -33.3764
L13.7852 -33.0584
L13.9538 -32.7465
L14.13 -32.4409
L14.3136 -32.1415
L14.5043 -31.8486
L14.7017 -31.5622
L14.9057 -31.2823
L15.1158 -31.009
L15.3319 -30.7424
L15.5536 -30.4824
L15.7807 -30.2291
L16.0128 -29.9824
L16.2498 -29.7424
L16.4913 -29.509
L16.737 -29.2821
L16.9868 -29.0618
L17.2403 -28.8479
L17.4973 -28.6405
L17.7576 -28.4393
L18.021 -28.2445
L18.2872 -28.0558
L18.5561 -27.8732
L18.8273 -27.6966
L19.1008 -27.5259
L19.3763 -27.3611
L19.6537 -27.202
L19.9328 -27.0485
L20.2135 -26.9006
L20.4955 -26.7581
L20.7788 -26.621
L21.0631 -26.489
L21.3484 -26.3623
L21.6346 -26.2405
L21.9215 -26.1237
L22.2091 -26.0118
L22.4971 -25.9045
L22.7856 -25.802
L23.0744 -25.704
L23.3635 -25.6104
L23.6527 -25.5213
L23.9421 -25.4364
L24.2314 -25.3557
L24.5208 -25.2791
L24.8101 -25.2065
L25.0992 -25.1379
L25.3882 -25.0732
L25.6769 -25.0123
L25.9654 -24.955
L26.2535 -24.9015
L26.5414 -24.8515
L26.8288 -24.805
L27.1159 -24.7619
L27.4026 -24.7222
L27.6888 -24.6859
L27.9746 -24.6528
L28.26 -24.6229
L28.5449 -24.5962
L28.8292 -24.5726
L29.1132 -24.552
L29.3966 -24.5345
L29.6795 -24.5199
L29.9619 -24.5082
L30.2438 -24.4994
L30.5252 -24.4935
L30.8062 -24.4903
L31.0866 -24.4899
L31.3666 -24.4923
L31.646 -24.4974
L31.9251 -24.5052
L32.2036 -24.5156
L32.4817 -24.5287
L32.7594 -24.5444
L33.0366 -24.5627
L33.3134 -24.5836
L33.5898 -24.607
L33.8658 -24.633
L34.1414 -24.6616
L34.4166 -24.6926
L34.6915 -24.7262
z
" id="C0_1_5abff7a599"/>
    </defs>
    <g clip-path="url(#p1bffca34e9)">
     <use style="fill:#ff0000;stroke:#000000;stroke-width:2.0;" x="0.0" xlink:href="#C0_0_a811fe30f3" y="72.0"/>
    </g>
    <g clip-path="url(#p1bffca34e9)">
     <use style="fill:#ffffff;stroke:#000000;stroke-width:2.0;" x="0.0" xlink:href="#C0_1_5abff7a599" y="72.0"/>
    </g>
   </g>
  </g>
 </g>
 <defs>
  <clipPath id="p1bffca34e9">
   <rect height="72.0" width="72.0" x="0.0" y="0.0"/>
  </clipPath>
 </defs>
</svg>
