<?xml version="1.0" encoding="utf-8" standalone="no"?>
<!DOCTYPE svg PUBLIC "-//W3C//DTD SVG 1.1//EN"
  "http://www.w3.org/Graphics/SVG/1.1/DTD/svg11.dtd">
<!-- Created with matplotlib (http://matplotlib.org/) -->
<svg height="72pt" version="1.1" viewBox="0 0 72 72" width="72pt" xmlns="http://www.w3.org/2000/svg" xmlns:xlink="http://www.w3.org/1999/xlink">
 <defs>
  <style type="text/css">
*{stroke-linecap:butt;stroke-linejoin:round;}
  </style>
 </defs>
 <g id="figure_1">
  <g id="patch_1">
   <path d="
M0 72
L72 72
L72 0
L0 0
z
" style="fill:none;"/>
  </g>
  <g id="axes_1">
   <g id="PatchCollection_1">
    <defs>
     <path d="
M36 -7.5
C43.5583 -7.5 50.808 -10.5029 56.1525 -15.8475
C61.4971 -21.192 64.5 -28.4417 64.5 -36
C64.5 -43.5583 61.4971 -50.808 56.1525 -56.1525
C50.808 -61.4971 43.5583 -64.5 36 -64.5
C28.4417 -64.5 21.192 -61.4971 15.8475 -56.1525
C10.5029 -50.808 7.5 -43.5583 7.5 -36
C7.5 -28.4417 10.5029 -21.192 15.8475 -15.8475
C21.192 -10.5029 28.4417 -7.5 36 -7.5
z
" id="C0_0_a811fe30f3"/>
     <path d="
M40.3045 -63.9097
L40.4434 -63.5986
L40.5911 -63.2814
L40.7451 -62.9588
L40.903 -62.6316
L41.0634 -62.3003
L41.2246 -61.9655
L41.3857 -61.6278
L41.5458 -61.2876
L41.7041 -60.9453
L41.8602 -60.6015
L42.0134 -60.2564
L42.1636 -59.9103
L42.3105 -59.5637
L42.4537 -59.2168
L42.5933 -58.8699
L42.7291 -58.5232
L42.8609 -58.177
L42.9889 -57.8315
L43.1129 -57.4869
L43.2331 -57.1433
L43.3493 -56.801
L43.4617 -56.46
L43.5702 -56.1206
L43.675 -55.7828
L43.7762 -55.4467
L43.8737 -55.1125
L43.9677 -54.7802
L44.0583 -54.4499
L44.1455 -54.1217
L44.2294 -53.7955
L44.3101 -53.4715
L44.3877 -53.1497
L44.4623 -52.8301
L44.534 -52.5127
L44.6028 -52.1975
L44.6688 -51.8846
L44.7322 -51.5739
L44.7929 -51.2655
L44.8511 -50.9592
L44.9069 -50.6552
L44.9603 -50.3533
L45.0113 -50.0536
L45.0601 -49.7559
L45.1068 -49.4604
L45.1513 -49.1669
L45.1938 -48.8754
L45.2344 -48.5859
L45.2729 -48.2983
L45.3097 -48.0126
L45.3446 -47.7287
L45.3777 -47.4465
L45.4091 -47.1661
L45.4388 -46.8874
L45.4669 -46.6103
L45.4935 -46.3347
L45.5184 -46.0607
L45.5419 -45.7881
L45.5639 -45.5169
L45.5845 -45.247
L45.6037 -44.9784
L45.6215 -44.711
L45.6379 -44.4447
L45.6531 -44.1795
L45.667 -43.9154
L45.6796 -43.6522
L45.6909 -43.39
L45.7011 -43.1286
L45.71 -42.868
L45.7177 -42.6081
L45.7243 -42.3488
L45.7298 -42.0902
L45.7341 -41.8321
L45.7373 -41.5744
L45.7393 -41.3172
L45.7403 -41.0603
L45.7402 -40.8037
L45.739 -40.5473
L45.7366 -40.2911
L45.7333 -40.035
L45.7233 -39.7789
L45.7167 -39.5228
L45.709 -39.2665
L45.7002 -39.0102
L45.6904 -38.7536
L45.6795 -38.4967
L45.6675 -38.2394
L45.6544 -37.9818
L45.6402 -37.7237
L45.6248 -37.465
L45.6084 -37.2057
L45.5908 -36.9458
L45.5721 -36.6851
L45.5522 -36.4236
L45.5311 -36.1613
L45.5088 -35.898
L45.4853 -35.6337
L45.4605 -35.3684
L45.4345 -35.1019
L45.4073 -34.8342
L45.3787 -34.5653
L45.3487 -34.2951
L45.3174 -34.0235
L45.2848 -33.7504
L45.2507 -33.4758
L45.2151 -33.1996
L45.1781 -32.9218
L45.1395 -32.6422
L45.0994 -32.3609
L45.0577 -32.0777
L45.0143 -31.7927
L44.9693 -31.5057
L44.9225 -31.2166
L44.874 -30.9255
L44.8236 -30.6322
L44.7714 -30.3367
L44.7173 -30.0389
L44.6612 -29.7389
L44.6031 -29.4364
L44.543 -29.1316
L44.4806 -28.8243
L44.4161 -28.5144
L44.3494 -28.202
L44.2803 -27.8871
L44.2089 -27.5695
L44.1351 -27.2492
L44.0587 -26.9263
L43.9798 -26.6006
L43.8982 -26.2722
L43.814 -25.9411
L43.727 -25.6072
L43.6372 -25.2706
L43.5445 -24.9312
L43.4489 -24.5891
L43.3503 -24.2443
L43.2486 -23.8969
L43.1439 -23.5468
L43.0359 -23.1941
L42.9248 -22.839
L42.8105 -22.4814
L42.6929 -22.1214
L42.572 -21.7592
L42.4479 -21.3949
L42.3205 -21.0285
L42.1898 -20.6603
L42.056 -20.2904
L41.9191 -19.9189
L41.7792 -19.5461
L41.6363 -19.1722
L41.4908 -18.7973
L41.3428 -18.4218
L41.1926 -18.046
L41.0405 -17.67
L40.8869 -17.2944
L40.7325 -16.9193
L40.5778 -16.5452
L40.4237 -16.1726
L40.2711 -15.8018
L40.1212 -15.4334
L39.9756 -15.0679
L39.836 -14.706
L39.7048 -14.3484
L39.5846 -13.9958
L39.4787 -13.6492
L39.3911 -13.3094
L39.3264 -12.9778
L39.2897 -12.6555
L39.2867 -12.3441
L39.3228 -12.0449
L39.4029 -11.7597
L39.5307 -11.4899
L39.7078 -11.2369
L39.9341 -11.0015
L40.2071 -10.7844
L40.5231 -10.5859
L40.8773 -10.4057
L41.2648 -10.2437
L41.6807 -10.0993
L42.1205 -9.97199
L42.5802 -9.86137
L43.0564 -9.76695
L43.5461 -9.68833
L44.0467 -9.62515
L44.556 -9.57709
L45.0722 -9.54384
L45.5935 -9.52514
L46.1187 -9.52072
L46.6396 -9.53032
L47.0994 -9.56048
L47.5559 -9.75019
L48.0088 -9.9479
L48.458 -10.1536
L48.9035 -10.3671
L49.345 -10.5884
L49.7825 -10.8175
L50.2158 -11.0542
L50.6447 -11.2985
L51.0692 -11.5504
L51.4891 -11.8097
L51.9042 -12.0764
L52.3145 -12.3504
L52.7199 -12.6315
L53.1201 -12.9198
L53.5152 -13.2151
L53.9049 -13.5174
L54.2892 -13.8265
L54.6678 -14.1424
L55.0408 -14.4649
L55.408 -14.7939
L55.7693 -15.1295
L56.1246 -15.4714
L56.4737 -15.8195
L56.8166 -16.1738
L57.1532 -16.5342
L57.4833 -16.9004
L57.8068 -17.2725
L58.1238 -17.6503
L58.434 -18.0337
L58.7373 -18.4225
L59.0337 -18.8167
L59.3231 -19.2162
L59.6054 -19.6207
L59.8806 -20.0303
L60.1484 -20.4447
L60.4089 -20.8638
L60.6619 -21.2876
L60.9075 -21.7158
L61.1454 -22.1484
L61.3757 -22.5852
L61.5983 -23.0261
L61.813 -23.4709
L62.0199 -23.9196
L62.2189 -24.3719
L62.4099 -24.8278
L62.5929 -25.2871
L62.7677 -25.7496
L62.9344 -26.2153
L63.0929 -26.6839
L63.2431 -27.1554
L63.385 -27.6296
L63.5186 -28.1064
L63.6438 -28.5855
L63.7606 -29.0669
L63.869 -29.5504
L63.9688 -30.0359
L64.0601 -30.5232
L64.1429 -31.0121
L64.2171 -31.5026
L64.2827 -31.9944
L64.3397 -32.4875
L64.3881 -32.9816
L64.4278 -33.4767
L64.4588 -33.9725
L64.4812 -34.469
L64.4949 -34.9659
L64.5 -35.4631
L64.4963 -35.9605
L64.484 -36.4579
L64.463 -36.9551
L64.4333 -37.4521
L64.395 -37.9486
L64.348 -38.4446
L64.2924 -38.9398
L64.2281 -39.434
L64.1553 -39.9273
L64.0739 -40.4193
L63.9839 -40.91
L63.8854 -41.3993
L63.7784 -41.8868
L63.663 -42.3726
L63.5391 -42.8564
L63.4068 -43.3382
L63.2662 -43.8177
L63.1173 -44.2948
L62.9601 -44.7694
L62.7947 -45.2413
L62.6212 -45.7104
L62.4395 -46.1766
L62.2498 -46.6396
L62.0521 -47.0994
L61.8464 -47.5559
L61.6329 -48.0088
L61.4116 -48.458
L61.1825 -48.9035
L60.9458 -49.345
L60.7015 -49.7825
L60.4496 -50.2158
L60.1903 -50.6447
L59.9236 -51.0692
L59.6496 -51.4891
L59.3685 -51.9042
L59.0802 -52.3145
L58.7849 -52.7199
L58.4826 -53.1201
L58.1735 -53.5152
L57.8576 -53.9049
L57.5351 -54.2892
L57.2061 -54.6678
L56.8705 -55.0408
L56.5286 -55.408
L56.1805 -55.7693
L55.8262 -56.1246
L55.4658 -56.4737
L55.0996 -56.8166
L54.7275 -57.1532
L54.3497 -57.4833
L53.9663 -57.8068
L53.5775 -58.1238
L53.1833 -58.434
L52.7838 -58.7373
L52.3793 -59.0337
L51.9697 -59.3231
L51.5553 -59.6054
L51.1362 -59.8806
L50.7124 -60.1484
L50.2842 -60.4089
L49.8516 -60.6619
L49.4148 -60.9075
L48.9739 -61.1454
L48.5291 -61.3757
L48.0804 -61.5983
L47.6281 -61.813
L47.1722 -62.0199
L46.7129 -62.2189
L46.2504 -62.4099
L45.7847 -62.5929
L45.3161 -62.7677
L44.8446 -62.9344
L44.3704 -63.0929
L43.8936 -63.2431
L43.4145 -63.385
L42.9331 -63.5186
L42.4496 -63.6438
L41.9641 -63.7606
L41.4768 -63.869
L40.9879 -63.9688
z
" id="C0_1_3801437734"/>
     <path d="
M25.3602 -62.43
L24.9626 -62.0831
L24.5736 -61.7316
L24.1937 -61.3761
L23.8232 -61.017
L23.4625 -60.6547
L23.1116 -60.2896
L22.7708 -59.9223
L22.4401 -59.553
L22.1194 -59.1821
L21.8088 -58.8101
L21.5081 -58.4372
L21.2173 -58.0638
L20.9362 -57.6901
L20.6647 -57.3165
L20.4026 -56.9432
L20.1497 -56.5704
L19.9059 -56.1983
L19.6709 -55.8271
L19.4446 -55.4571
L19.2266 -55.0883
L19.0169 -54.721
L18.8152 -54.3552
L18.6213 -53.9911
L18.4349 -53.6287
L18.2559 -53.2683
L18.0841 -52.9097
L17.9192 -52.5532
L17.761 -52.1987
L17.6094 -51.8463
L17.4641 -51.4961
L17.325 -51.148
L17.1918 -50.8021
L17.0644 -50.4584
L16.9427 -50.1169
L16.8263 -49.7775
L16.7153 -49.4404
L16.6094 -49.1054
L16.5085 -48.7726
L16.4124 -48.4419
L16.321 -48.1133
L16.2341 -47.7868
L16.1516 -47.4623
L16.0735 -47.1398
L15.9995 -46.8193
L15.9296 -46.5007
L15.8637 -46.1839
L15.8016 -45.8689
L15.7432 -45.5557
L15.6885 -45.2442
L15.6374 -44.9344
L15.5897 -44.6261
L15.5455 -44.3194
L15.5046 -44.0142
L15.4669 -43.7105
L15.4324 -43.408
L15.4011 -43.1069
L15.3728 -42.8071
L15.3475 -42.5084
L15.3251 -42.2109
L15.3057 -41.9144
L15.2891 -41.6189
L15.2754 -41.3244
L15.2644 -41.0307
L15.2562 -40.7379
L15.2507 -40.4458
L15.2479 -40.1544
L15.2477 -39.8636
L15.2502 -39.5733
L15.2554 -39.2836
L15.2631 -38.9943
L15.2734 -38.7054
L15.2864 -38.4167
L15.3019 -38.1283
L15.32 -37.8401
L15.3407 -37.5521
L15.3639 -37.264
L15.3898 -36.976
L15.4182 -36.6879
L15.4493 -36.3996
L15.483 -36.1112
L15.5193 -35.8225
L15.5583 -35.5335
L15.6 -35.2441
L15.6445 -34.9543
L15.6916 -34.664
L15.7416 -34.3731
L15.7943 -34.0816
L15.8499 -33.7894
L15.9084 -33.4965
L15.9699 -33.2028
L16.0343 -32.9083
L16.1018 -32.6129
L16.1724 -32.3165
L16.2461 -32.019
L16.3231 -31.7206
L16.4033 -31.421
L16.4869 -31.1202
L16.5739 -30.8182
L16.6644 -30.515
L16.7585 -30.2104
L16.8562 -29.9045
L16.9577 -29.5972
L17.063 -29.2884
L17.1723 -28.9782
L17.2856 -28.6664
L17.403 -28.3531
L17.5246 -28.0383
L17.6506 -27.7218
L17.781 -27.4037
L17.916 -27.084
L18.0557 -26.7626
L18.2002 -26.4395
L18.3496 -26.1148
L18.5041 -25.7884
L18.6638 -25.4603
L18.8288 -25.1305
L18.9992 -24.7991
L19.1753 -24.4661
L19.3571 -24.1315
L19.5448 -23.7954
L19.7385 -23.4578
L19.9383 -23.1187
L20.1445 -22.7782
L20.3571 -22.4364
L20.5762 -22.0934
L20.8022 -21.7493
L21.0349 -21.4042
L21.2746 -21.0581
L21.5215 -20.7113
L21.7755 -20.3639
L22.0369 -20.016
L22.3057 -19.6678
L22.582 -19.3195
L22.8658 -18.9713
L23.1573 -18.6233
L23.4564 -18.2759
L23.7631 -17.9292
L24.0775 -17.5835
L24.3994 -17.239
L24.7287 -16.8961
L25.0654 -16.555
L25.4092 -16.216
L25.7599 -15.8794
L26.1171 -15.5455
L26.4805 -15.2146
L26.8495 -14.8871
L27.2236 -14.5631
L27.6019 -14.2431
L27.9836 -13.9271
L28.3676 -13.6156
L28.7524 -13.3087
L29.1364 -13.0066
L29.5176 -12.7093
L29.8935 -12.4168
L30.2612 -12.1291
L30.6172 -11.846
L30.9572 -11.5671
L31.2764 -11.2918
L31.5693 -11.0196
L31.83 -10.7497
L32.0528 -10.4812
L32.2323 -10.2133
L32.3647 -9.94551
L32.4477 -9.67739
L32.4814 -9.409
L32.4678 -9.14072
L32.4102 -8.87322
L32.3129 -8.60734
L32.1807 -8.34399
L32.0179 -8.08411
L31.3341 -7.82855
L30.8441 -7.88454
L30.3557 -7.97025
L29.869 -8.0645
L29.3842 -8.16726
L28.9014 -8.2785
L28.4208 -8.39818
L27.9425 -8.52627
L27.4666 -8.66273
L26.9933 -8.80752
L26.5228 -8.96059
L26.0551 -9.1219
L25.5905 -9.29139
L25.1291 -9.46902
L24.6709 -9.65473
L24.2163 -9.84847
L23.7652 -10.0502
L23.3178 -10.2598
L22.8743 -10.4772
L22.4348 -10.7024
L21.9994 -10.9354
L21.5683 -11.1759
L21.1416 -11.4241
L20.7194 -11.6797
L20.3019 -11.9427
L19.8891 -12.213
L19.4813 -12.4906
L19.0785 -12.7754
L18.6808 -13.0672
L18.2885 -13.366
L17.9015 -13.6717
L17.52 -13.9842
L17.1442 -14.3035
L16.7741 -14.6293
L16.4098 -14.9616
L16.0515 -15.3004
L15.6993 -15.6454
L15.3533 -15.9967
L15.0136 -16.354
L14.6803 -16.7173
L14.3534 -17.0865
L14.0332 -17.4615
L13.7196 -17.8421
L13.4129 -18.2282
L13.113 -18.6198
L12.8201 -19.0166
L12.5342 -19.4187
L12.2555 -19.8257
L11.984 -20.2377
L11.7199 -20.6545
L11.4631 -21.076
L11.2138 -21.502
L10.9721 -21.9325
L10.738 -22.3672
L10.5116 -22.806
L10.2929 -23.2489
L10.0821 -23.6957
L9.87915 -24.1462
L9.68418 -24.6004
L9.49723 -25.058
L9.31834 -25.5189
L9.14759 -25.9831
L8.98501 -26.4502
L8.83066 -26.9203
L8.68459 -27.3932
L8.54684 -27.8687
L8.41745 -28.3466
L8.29646 -28.8269
L8.18392 -29.3094
L8.07984 -29.7939
L7.98427 -30.2803
L7.89724 -30.7685
L7.81876 -31.2582
L7.74887 -31.7494
L7.68758 -32.2419
L7.63492 -32.7355
L7.5909 -33.2301
L7.55553 -33.7256
L7.52883 -34.2217
L7.5108 -34.7184
L7.50145 -35.2155
L7.50078 -35.7128
L7.50879 -36.2102
L7.52547 -36.7076
L7.55084 -37.2047
L7.58486 -37.7015
L7.62755 -38.1977
L7.67887 -38.6933
L7.73883 -39.1881
L7.80739 -39.6818
L7.88454 -40.1745
L7.97025 -40.6659
L8.0645 -41.1559
L8.16726 -41.6443
L8.2785 -42.131
L8.39818 -42.6158
L8.52627 -43.0986
L8.66273 -43.5792
L8.80752 -44.0575
L8.96059 -44.5334
L9.1219 -45.0067
L9.29139 -45.4772
L9.46902 -45.9449
L9.65473 -46.4095
L9.84847 -46.8709
L10.0502 -47.3291
L10.2598 -47.7837
L10.4772 -48.2348
L10.7024 -48.6822
L10.9354 -49.1257
L11.1759 -49.5652
L11.4241 -50.0006
L11.6797 -50.4317
L11.9427 -50.8584
L12.213 -51.2806
L12.4906 -51.6981
L12.7754 -52.1109
L13.0672 -52.5187
L13.366 -52.9215
L13.6717 -53.3192
L13.9842 -53.7115
L14.3035 -54.0985
L14.6293 -54.48
L14.9616 -54.8558
L15.3004 -55.2259
L15.6454 -55.5902
L15.9967 -55.9485
L16.354 -56.3007
L16.7173 -56.6467
L17.0865 -56.9864
L17.4615 -57.3197
L17.8421 -57.6466
L18.2282 -57.9668
L18.6198 -58.2804
L19.0166 -58.5871
L19.4187 -58.887
L19.8257 -59.1799
L20.2377 -59.4658
L20.6545 -59.7445
L21.076 -60.016
L21.502 -60.2801
L21.9325 -60.5369
L22.3672 -60.7862
L22.806 -61.0279
L23.2489 -61.262
L23.6957 -61.4884
L24.1462 -61.7071
L24.6004 -61.9179
z
" id="C0_2_1a3f9f66c2"/>
    </defs>
    <g clip-path="url(#p1bffca34e9)">
     <use style="fill:#ff0000;stroke:#000000;stroke-width:2.0;" x="0.0" xlink:href="#C0_0_a811fe30f3" y="72.0"/>
    </g>
    <g clip-path="url(#p1bffca34e9)">
     <use style="fill:#ffffff;stroke:#000000;stroke-width:2.0;" x="0.0" xlink:href="#C0_1_3801437734" y="72.0"/>
    </g>
    <g clip-path="url(#p1bffca34e9)">
     <use style="fill:#ffffff;stroke:#000000;stroke-width:2.0;" x="0.0" xlink:href="#C0_2_1a3f9f66c2" y="72.0"/>
    </g>
   </g>
  </g>
 </g>
 <defs>
  <clipPath id="p1bffca34e9">
   <rect height="72.0" width="72.0" x="0.0" y="0.0"/>
  </clipPath>
 </defs>
</svg>
