<?xml version="1.0" encoding="utf-8" standalone="no"?>
<!DOCTYPE svg PUBLIC "-//W3C//DTD SVG 1.1//EN"
  "http://www.w3.org/Graphics/SVG/1.1/DTD/svg11.dtd">
<!-- Created with matplotlib (http://matplotlib.org/) -->
<svg height="72pt" version="1.1" viewBox="0 0 72 72" width="72pt" xmlns="http://www.w3.org/2000/svg" xmlns:xlink="http://www.w3.org/1999/xlink">
 <defs>
  <style type="text/css">
*{stroke-linecap:butt;stroke-linejoin:round;}
  </style>
 </defs>
 <g id="figure_1">
  <g id="patch_1">
   <path d="
M0 72
L72 72
L72 0
L0 0
z
" style="fill:none;"/>
  </g>
  <g id="axes_1">
   <g id="PatchCollection_1">
    <defs>
     <path d="
M36 -7.5
C43.5583 -7.5 50.808 -10.5029 56.1525 -15.8475
C61.4971 -21.192 64.5 -28.4417 64.5 -36
C64.5 -43.5583 61.4971 -50.808 56.1525 -56.1525
C50.808 -61.4971 43.5583 -64.5 36 -64.5
C28.4417 -64.5 21.192 -61.4971 15.8475 -56.1525
C10.5029 -50.808 7.5 -43.5583 7.5 -36
C7.5 -28.4417 10.5029 -21.192 15.8475 -15.8475
C21.192 -10.5029 28.4417 -7.5 36 -7.5
z
" id="C0_0_a811fe30f3"/>
     <path d="
M44.1689 -8.90121
L44.0431 -9.08678
L43.9242 -9.27674
L43.8121 -9.47094
L43.7066 -9.66922
L43.6077 -9.87145
L43.515 -10.0775
L43.4286 -10.2871
L43.3483 -10.5003
L43.2739 -10.7169
L43.2052 -10.9367
L43.1421 -11.1596
L43.0844 -11.3854
L43.032 -11.6142
L42.9846 -11.8456
L42.9423 -12.0797
L42.9047 -12.3163
L42.8717 -12.5553
L42.8431 -12.7966
L42.8188 -13.04
L42.7987 -13.2855
L42.7826 -13.533
L42.7702 -13.7824
L42.7616 -14.0335
L42.7564 -14.2864
L42.7547 -14.5408
L42.7562 -14.7968
L42.7608 -15.0542
L42.7683 -15.3129
L42.7787 -15.573
L42.7917 -15.8342
L42.8074 -16.0966
L42.8255 -16.36
L42.8459 -16.6244
L42.8686 -16.8898
L42.8934 -17.156
L42.9202 -17.4231
L42.9489 -17.6909
L42.9795 -17.9594
L43.0117 -18.2286
L43.0456 -18.4984
L43.0811 -18.7687
L43.118 -19.0395
L43.1562 -19.3109
L43.1958 -19.5826
L43.2367 -19.8548
L43.2787 -20.1273
L43.3217 -20.4001
L43.3659 -20.6733
L43.411 -20.9467
L43.457 -21.2203
L43.5039 -21.4942
L43.5516 -21.7682
L43.6 -22.0424
L43.6492 -22.3168
L43.6991 -22.5913
L43.7496 -22.8659
L43.8006 -23.1406
L43.8523 -23.4154
L43.9044 -23.6902
L43.9571 -23.9651
L44.0102 -24.2401
L44.0637 -24.5151
L44.1176 -24.7901
L44.1719 -25.0652
L44.2265 -25.3402
L44.2815 -25.6153
L44.3367 -25.8904
L44.3923 -26.1655
L44.4481 -26.4407
L44.5042 -26.7158
L44.5605 -26.991
L44.617 -27.2661
L44.6737 -27.5413
L44.7306 -27.8165
L44.7877 -28.0917
L44.845 -28.367
L44.9024 -28.6422
L44.96 -28.9175
L45.0177 -29.1929
L45.0755 -29.4683
L45.1335 -29.7437
L45.1917 -30.0192
L45.2499 -30.2947
L45.3083 -30.5704
L45.3668 -30.8461
L45.4254 -31.1219
L45.543 -31.3978
L45.6019 -31.6738
L45.661 -31.9498
L45.7202 -32.2261
L45.7795 -32.5024
L45.8389 -32.7788
L45.8985 -33.0554
L45.9582 -33.3322
L46.0181 -33.609
L46.078 -33.8861
L46.1382 -34.1632
L46.1985 -34.4406
L46.2589 -34.7181
L46.3195 -34.9958
L46.3803 -35.2736
L46.4413 -35.5517
L46.5025 -35.8299
L46.5639 -36.1082
L46.6256 -36.3868
L46.6874 -36.6655
L46.7495 -36.9444
L46.8119 -37.2235
L46.8745 -37.5027
L46.9374 -37.7821
L47.0006 -38.0616
L47.0642 -38.3413
L47.1281 -38.6211
L47.1923 -38.9011
L47.2569 -39.1811
L47.3219 -39.4613
L47.3874 -39.7415
L47.4532 -40.0218
L47.5196 -40.3021
L47.5864 -40.5824
L47.6537 -40.8628
L47.7216 -41.1431
L47.7901 -41.4233
L47.8591 -41.7035
L47.9288 -41.9835
L47.9992 -42.2634
L48.0702 -42.5431
L48.142 -42.8226
L48.2145 -43.1017
L48.2879 -43.3806
L48.3621 -43.6591
L48.4372 -43.9372
L48.5132 -44.2148
L48.5902 -44.4918
L48.6682 -44.7683
L48.7473 -45.0441
L48.8276 -45.3192
L48.909 -45.5935
L48.9916 -45.867
L49.0756 -46.1395
L49.1609 -46.411
L49.2476 -46.6814
L49.3357 -46.9505
L49.4254 -47.2184
L49.5168 -47.485
L49.6097 -47.75
L49.7045 -48.0135
L49.801 -48.2753
L49.8994 -48.5353
L49.9998 -48.7934
L50.1022 -49.0495
L50.2068 -49.3035
L50.3135 -49.5552
L50.4225 -49.8045
L50.5339 -50.0514
L50.6477 -50.2956
L50.764 -50.537
L50.8829 -50.7755
L51.0045 -51.0109
L51.1289 -51.2432
L51.2561 -51.4721
L51.3862 -51.6975
L51.5194 -51.9193
L51.6556 -52.1374
L51.795 -52.3514
L51.9376 -52.5614
L52.0836 -52.7672
L52.2328 -52.9685
L52.3856 -53.1653
L52.5418 -53.3573
L52.7016 -53.5445
L52.865 -53.7267
L53.032 -53.9036
L53.2028 -54.0752
L53.3772 -54.2413
L53.5555 -54.4017
L53.7376 -54.5563
L53.9234 -54.705
L54.1132 -54.8475
L54.3067 -54.9837
L54.5041 -55.1135
L54.7054 -55.2367
L54.9105 -55.3532
L55.1194 -55.4628
L55.3322 -55.5655
L55.5487 -55.6609
L55.7689 -55.7491
L55.9928 -55.8299
L56.2204 -55.9032
L56.6247 -55.9687
L56.9649 -55.669
L57.2986 -55.3061
L57.6259 -54.9372
L57.9465 -54.5626
L58.2605 -54.1824
L58.5677 -53.7966
L58.8681 -53.4054
L59.1614 -53.0089
L59.4477 -52.6072
L59.7269 -52.2004
L59.9988 -51.7888
L60.2635 -51.3723
L60.5207 -50.9511
L60.7705 -50.5253
L61.0127 -50.0952
L61.2473 -49.6607
L61.4742 -49.2221
L61.6933 -48.7795
L61.9047 -48.333
L62.1081 -47.8827
L62.3036 -47.4288
L62.4911 -46.9714
L62.6705 -46.5106
L62.8417 -46.0467
L63.0048 -45.5797
L63.1597 -45.1098
L63.3063 -44.6371
L63.4446 -44.1618
L63.5745 -43.684
L63.6961 -43.2038
L63.8091 -42.7215
L63.9138 -42.2371
L64.0099 -41.7508
L64.0975 -41.2628
L64.1765 -40.7732
L64.2469 -40.2821
L64.3088 -39.7897
L64.362 -39.2961
L64.4065 -38.8015
L64.4425 -38.3061
L64.4697 -37.81
L64.4883 -37.3134
L64.4982 -36.8163
L64.4994 -36.319
L64.492 -35.8216
L64.4759 -35.3242
L64.451 -34.8271
L64.4176 -34.3303
L64.3754 -33.834
L64.3247 -33.3384
L64.2653 -32.8435
L64.1973 -32.3497
L64.1207 -31.8569
L64.0355 -31.3655
L63.9418 -30.8754
L63.8396 -30.3869
L63.7289 -29.9001
L63.6097 -29.4152
L63.4822 -28.9322
L63.3462 -28.4514
L63.202 -27.973
L63.0494 -27.4969
L62.8887 -27.0235
L62.7197 -26.5528
L62.5426 -26.0849
L62.3574 -25.6201
L62.1642 -25.1585
L61.963 -24.7001
L61.7539 -24.2452
L61.5369 -23.7939
L61.3122 -23.3463
L61.0797 -22.9025
L60.8397 -22.4628
L60.592 -22.0271
L60.3369 -21.5958
L60.0743 -21.1688
L59.8045 -20.7463
L59.5273 -20.3284
L59.243 -19.9154
L58.9517 -19.5072
L58.6533 -19.1041
L58.348 -18.7061
L58.0359 -18.3134
L57.7171 -17.9261
L57.3917 -17.5442
L57.0598 -17.168
L56.7215 -16.7975
L56.3768 -16.4329
L56.026 -16.0743
L55.669 -15.7217
L55.3061 -15.3753
L54.9372 -15.0351
L54.5626 -14.7014
L54.1824 -14.3741
L53.7966 -14.0535
L53.4054 -13.7395
L53.0089 -13.4323
L52.6072 -13.1319
L52.2004 -12.8386
L51.7888 -12.5523
L51.3723 -12.2731
L50.9511 -12.0012
L50.5253 -11.7365
L50.0952 -11.4793
L49.6607 -11.2295
L49.2221 -10.9873
L48.7795 -10.7527
L48.333 -10.5258
L47.8827 -10.3067
L47.4288 -10.0953
L46.9714 -9.89189
L46.5106 -9.69641
L46.0467 -9.50894
L45.5797 -9.32953
L45.1098 -9.15826
z
" id="C0_1_eedda69db3"/>
     <path d="
M15.7259 -16.1472
L15.7854 -16.3813
L15.8426 -16.6192
L15.8977 -16.8607
L15.9507 -17.1057
L16.0017 -17.354
L16.051 -17.6055
L16.0987 -17.86
L16.1447 -18.1174
L16.1894 -18.3775
L16.2328 -18.6403
L16.2749 -18.9055
L16.316 -19.1731
L16.3561 -19.443
L16.3953 -19.715
L16.4338 -19.989
L16.4716 -20.2649
L16.5088 -20.5425
L16.5455 -20.8219
L16.5818 -21.1027
L16.6177 -21.3851
L16.6534 -21.6688
L16.6889 -21.9538
L16.7244 -22.24
L16.7597 -22.5272
L16.7951 -22.8155
L16.8306 -23.1047
L16.8662 -23.3948
L16.9021 -23.6856
L16.9381 -23.9771
L16.9745 -24.2693
L17.0112 -24.562
L17.0483 -24.8553
L17.0858 -25.149
L17.1238 -25.4431
L17.1623 -25.7375
L17.2013 -26.0322
L17.2409 -26.3272
L17.2811 -26.6224
L17.3219 -26.9178
L17.3633 -27.2132
L17.4054 -27.5088
L17.4482 -27.8044
L17.4917 -28.1001
L17.536 -28.3957
L17.581 -28.6913
L17.6268 -28.9868
L17.6733 -29.2823
L17.7207 -29.5776
L17.7688 -29.8729
L17.8178 -30.168
L17.8677 -30.4629
L17.9183 -30.7577
L17.9699 -31.0523
L18.0223 -31.3468
L18.0755 -31.641
L18.1297 -31.935
L18.1847 -32.2288
L18.2407 -32.5224
L18.2975 -32.8158
L18.3553 -33.109
L18.4139 -33.4019
L18.4735 -33.6946
L18.5341 -33.9871
L18.5955 -34.2794
L18.6579 -34.5714
L18.7213 -34.8633
L18.7855 -35.1549
L18.8508 -35.4463
L18.917 -35.7376
L18.9841 -36.0286
L19.0522 -36.3194
L19.1213 -36.6101
L19.1913 -36.9006
L19.2623 -37.1909
L19.3343 -37.4811
L19.4073 -37.7711
L19.4812 -38.061
L19.5561 -38.3507
L19.632 -38.6403
L19.7089 -38.9298
L19.7868 -39.2191
L19.8656 -39.5084
L19.9454 -39.7976
L20.0263 -40.0867
L20.1081 -40.3757
L20.1909 -40.6647
L20.2747 -40.9536
L20.3595 -41.2424
L20.4452 -41.5312
L20.532 -41.82
L20.6197 -42.1087
L20.7084 -42.3974
L20.7981 -42.6861
L20.8888 -42.9747
L20.9804 -43.2634
L21.073 -43.552
L21.1665 -43.8407
L21.261 -44.1293
L21.3565 -44.4179
L21.4529 -44.7066
L21.5502 -44.9952
L21.6484 -45.2838
L21.7475 -45.5725
L21.8476 -45.8611
L21.9485 -46.1497
L22.0502 -46.4383
L22.1528 -46.7269
L22.2563 -47.0154
L22.3605 -47.3039
L22.4655 -47.5924
L22.5713 -47.8808
L22.6778 -48.1692
L22.785 -48.4575
L22.8929 -48.7457
L23.0014 -49.0337
L23.1106 -49.3217
L23.2203 -49.6095
L23.3306 -49.8972
L23.4413 -50.1846
L23.5525 -50.4719
L23.6641 -50.7589
L23.7761 -51.0457
L23.8883 -51.3322
L24.0008 -51.6184
L24.1135 -51.9043
L24.2262 -52.1898
L24.3391 -52.4749
L24.4519 -52.7596
L24.5646 -53.0438
L24.6772 -53.3275
L24.7895 -53.6107
L24.9015 -53.8932
L25.013 -54.1752
L25.124 -54.4565
L25.2345 -54.7371
L25.3442 -55.0169
L25.453 -55.2959
L25.561 -55.5741
L25.6679 -55.8514
L25.7737 -56.1278
L25.8782 -56.4032
L25.9813 -56.6775
L26.0829 -56.9507
L26.1828 -57.2228
L26.2809 -57.4937
L26.3771 -57.7633
L26.4713 -58.0316
L26.5632 -58.2985
L26.6528 -58.564
L26.7399 -58.8279
L26.8243 -59.0904
L26.9059 -59.3512
L26.9846 -59.6103
L27.0602 -59.8677
L27.1326 -60.1233
L27.2015 -60.377
L27.2668 -60.6288
L27.3284 -60.8785
L27.3862 -61.1262
L27.4399 -61.3718
L27.4895 -61.6152
L27.5347 -61.8563
L27.5754 -62.095
L27.6115 -62.3313
L27.6429 -62.5652
L27.6693 -62.7965
L27.6908 -63.0251
L27.228 -63.251
L26.7561 -63.1165
L26.287 -62.9592
L25.8209 -62.7938
L25.3578 -62.6202
L24.8981 -62.4385
L24.4416 -62.2487
L23.9887 -62.051
L23.5395 -61.8453
L23.0941 -61.6317
L22.6526 -61.4104
L22.2151 -61.1813
L21.7819 -60.9445
L21.353 -60.7001
L20.9285 -60.4482
L20.5087 -60.1889
L20.0935 -59.9221
L19.6832 -59.6481
L19.2779 -59.3669
L18.8777 -59.0786
L18.4827 -58.7832
L18.093 -58.4809
L17.7088 -58.1718
L17.3301 -57.8559
L16.9571 -57.5334
L16.59 -57.2042
L16.2287 -56.8687
L15.8735 -56.5267
L15.5244 -56.1786
L15.1815 -55.8242
L14.845 -55.4639
L14.5149 -55.0976
L14.1914 -54.7254
L13.8745 -54.3476
L13.5644 -53.9642
L13.2611 -53.5753
L12.9647 -53.1811
L12.6753 -52.7816
L12.393 -52.3771
L12.118 -51.9675
L11.8502 -51.5531
L11.5897 -51.1339
L11.3367 -50.7101
L11.0912 -50.2819
L10.8533 -49.8493
L10.623 -49.4124
L10.4005 -48.9715
L10.1858 -48.5266
L9.97895 -48.078
L9.78001 -47.6256
L9.58907 -47.1697
L9.40617 -46.7104
L9.23137 -46.2478
L9.06473 -45.7822
L8.90629 -45.3135
L8.7561 -44.842
L8.61421 -44.3678
L8.48066 -43.891
L8.3555 -43.4119
L8.23876 -42.9305
L8.13047 -42.447
L8.03067 -41.9615
L7.93939 -41.4742
L7.85666 -40.9852
L7.78251 -40.4947
L7.71694 -40.0029
L7.66 -39.5098
L7.61168 -39.0157
L7.57202 -38.5206
L7.54101 -38.0248
L7.51867 -37.5283
L7.50501 -37.0314
L7.50002 -36.5342
L7.50372 -36.0368
L7.5161 -35.5394
L7.53716 -35.0421
L7.56688 -34.5452
L7.60527 -34.0487
L7.6523 -33.5527
L7.70797 -33.0575
L7.77226 -32.5633
L7.84515 -32.07
L7.92661 -31.578
L8.01663 -31.0873
L8.11516 -30.5981
L8.2222 -30.1105
L8.33769 -29.6248
L8.46161 -29.1409
L8.59392 -28.6592
L8.73458 -28.1797
L8.88354 -27.7026
L9.04076 -27.228
L9.20619 -26.7561
L9.37979 -26.287
L9.56149 -25.8209
L9.75125 -25.3578
L9.94901 -24.8981
L10.1547 -24.4416
L10.3683 -23.9887
L10.5896 -23.5395
L10.8187 -23.0941
L11.0555 -22.6526
L11.2999 -22.2151
L11.5518 -21.7819
L11.8111 -21.353
L12.0779 -20.9285
L12.3519 -20.5087
L12.6331 -20.0935
L12.9214 -19.6832
L13.2168 -19.2779
L13.5191 -18.8777
L13.8282 -18.4827
L14.1441 -18.093
L14.4666 -17.7088
L14.7958 -17.3301
L15.1313 -16.9571
z
" id="C0_2_4cc699a6d7"/>
    </defs>
    <g clip-path="url(#p1bffca34e9)">
     <use style="fill:#ff0000;stroke:#000000;stroke-width:2.0;" x="0.0" xlink:href="#C0_0_a811fe30f3" y="72.0"/>
    </g>
    <g clip-path="url(#p1bffca34e9)">
     <use style="fill:#ffffff;stroke:#000000;stroke-width:2.0;" x="0.0" xlink:href="#C0_1_eedda69db3" y="72.0"/>
    </g>
    <g clip-path="url(#p1bffca34e9)">
     <use style="fill:#ffffff;stroke:#000000;stroke-width:2.0;" x="0.0" xlink:href="#C0_2_4cc699a6d7" y="72.0"/>
    </g>
   </g>
  </g>
 </g>
 <defs>
  <clipPath id="p1bffca34e9">
   <rect height="72.0" width="72.0" x="0.0" y="0.0"/>
  </clipPath>
 </defs>
</svg>
