<?xml version="1.0" encoding="utf-8" standalone="no"?>
<!DOCTYPE svg PUBLIC "-//W3C//DTD SVG 1.1//EN"
  "http://www.w3.org/Graphics/SVG/1.1/DTD/svg11.dtd">
<!-- Created with matplotlib (http://matplotlib.org/) -->
<svg height="72pt" version="1.1" viewBox="0 0 72 72" width="72pt" xmlns="http://www.w3.org/2000/svg" xmlns:xlink="http://www.w3.org/1999/xlink">
 <defs>
  <style type="text/css">
*{stroke-linecap:butt;stroke-linejoin:round;}
  </style>
 </defs>
 <g id="figure_1">
  <g id="patch_1">
   <path d="
M0 72
L72 72
L72 0
L0 0
z
" style="fill:none;"/>
  </g>
  <g id="axes_1">
   <g id="PatchCollection_1">
    <defs>
     <path d="
M36 -7.5
C43.5583 -7.5 50.808 -10.5029 56.1525 -15.8475
C61.4971 -21.192 64.5 -28.4417 64.5 -36
C64.5 -43.5583 61.4971 -50.808 56.1525 -56.1525
C50.808 -61.4971 43.5583 -64.5 36 -64.5
C28.4417 -64.5 21.192 -61.4971 15.8475 -56.1525
C10.5029 -50.808 7.5 -43.5583 7.5 -36
C7.5 -28.4417 10.5029 -21.192 15.8475 -15.8475
C21.192 -10.5029 28.4417 -7.5 36 -7.5
z
" id="C0_0_a811fe30f3"/>
     <path d="
M61.1258 -49.1561
L60.8828 -49.1417
L60.643 -49.1141
L60.4064 -49.0738
L60.1732 -49.021
L59.9434 -48.9562
L59.7169 -48.8796
L59.4937 -48.7918
L59.2737 -48.693
L59.057 -48.5839
L58.8434 -48.4647
L58.6329 -48.3359
L58.4253 -48.1981
L58.2205 -48.0516
L58.0184 -47.8969
L57.819 -47.7344
L57.622 -47.5646
L57.4273 -47.388
L57.2349 -47.2049
L57.0445 -47.0159
L56.8561 -46.8212
L56.6696 -46.6212
L56.4847 -46.4165
L56.3015 -46.2073
L56.1198 -45.994
L55.9394 -45.7769
L55.7604 -45.5563
L55.5825 -45.3327
L55.4058 -45.1062
L55.2301 -44.8771
L55.0554 -44.6457
L54.8816 -44.4123
L54.7085 -44.1771
L54.5363 -43.9403
L54.3647 -43.7022
L54.1938 -43.4628
L54.0235 -43.2225
L53.8538 -42.9813
L53.6846 -42.7394
L53.5159 -42.4971
L53.3477 -42.2543
L53.1799 -42.0114
L53.0125 -41.7682
L52.8454 -41.5251
L52.6787 -41.282
L52.5124 -41.0392
L52.3463 -40.7965
L52.1805 -40.5542
L52.015 -40.3123
L51.8498 -40.0709
L51.6847 -39.8299
L51.5199 -39.5896
L51.3553 -39.3499
L51.1909 -39.1108
L51.0267 -38.8724
L50.8626 -38.6347
L50.6987 -38.3978
L50.5349 -38.1616
L50.3712 -37.9263
L50.2076 -37.6917
L50.0442 -37.4579
L49.8808 -37.225
L49.7174 -36.9929
L49.5541 -36.7616
L49.3909 -36.5312
L49.2277 -36.3015
L49.0645 -36.0727
L48.9012 -35.8447
L48.738 -35.6175
L48.5747 -35.3911
L48.4114 -35.1655
L48.248 -34.9407
L48.0845 -34.7166
L47.9209 -34.4932
L47.7571 -34.2706
L47.5933 -34.0487
L47.4293 -33.8274
L47.2651 -33.6068
L47.1007 -33.3869
L46.9361 -33.1676
L46.7713 -32.9489
L46.6063 -32.7307
L46.4409 -32.5131
L46.2753 -32.296
L46.1094 -32.0795
L45.9431 -31.8634
L45.7765 -31.6478
L45.6096 -31.4326
L45.4422 -31.2177
L45.2745 -31.0033
L44.9377 -30.7892
L44.7686 -30.5755
L44.599 -30.362
L44.4289 -30.1488
L44.2582 -29.9359
L44.0871 -29.7232
L43.9153 -29.5106
L43.743 -29.2983
L43.57 -29.086
L43.3964 -28.8739
L43.2222 -28.6619
L43.0473 -28.45
L42.8717 -28.238
L42.6953 -28.0261
L42.5183 -27.8142
L42.3405 -27.6023
L42.162 -27.3903
L41.9827 -27.1782
L41.8025 -26.966
L41.6216 -26.7536
L41.4399 -26.5412
L41.2573 -26.3285
L41.0739 -26.1157
L40.8896 -25.9026
L40.7044 -25.6893
L40.5184 -25.4758
L40.3315 -25.2619
L40.1437 -25.0478
L39.955 -24.8334
L39.7655 -24.6186
L39.575 -24.4036
L39.3837 -24.1881
L39.1915 -23.9723
L38.9984 -23.7561
L38.8044 -23.5394
L38.6096 -23.3224
L38.414 -23.105
L38.2176 -22.8871
L38.0204 -22.6687
L37.8225 -22.45
L37.6238 -22.2307
L37.4245 -22.011
L37.2245 -21.7908
L37.024 -21.5701
L36.8229 -21.349
L36.6214 -21.1273
L36.4194 -20.9051
L36.2172 -20.6825
L36.0147 -20.4594
L35.812 -20.2357
L35.6093 -20.0116
L35.4067 -19.7869
L35.2042 -19.5618
L35.002 -19.3361
L34.8002 -19.1099
L34.599 -18.8833
L34.3985 -18.6561
L34.1989 -18.4285
L34.0004 -18.2003
L33.8032 -17.9716
L33.6074 -17.7424
L33.4133 -17.5128
L33.2212 -17.2826
L33.0312 -17.0518
L32.8437 -16.8206
L32.6589 -16.5889
L32.477 -16.3566
L32.2985 -16.1237
L32.1236 -15.8903
L31.9527 -15.6563
L31.786 -15.4218
L31.6241 -15.1866
L31.4672 -14.9508
L31.3157 -14.7144
L31.17 -14.4773
L31.0307 -14.2396
L30.8979 -14.0012
L30.7723 -13.7621
L30.6542 -13.5222
L30.544 -13.2817
L30.4422 -13.0404
L30.3492 -12.7984
L30.2655 -12.5557
L30.1914 -12.3123
L30.1273 -12.0682
L30.0738 -11.8235
L30.031 -11.5782
L29.9994 -11.3323
L29.9794 -11.0859
L29.9712 -10.8392
L29.9751 -10.5921
L29.9914 -10.3449
L30.0203 -10.0976
L30.0619 -9.85042
L30.1165 -9.60351
L30.1842 -9.35704
L30.2651 -9.11121
L30.3592 -8.86622
L30.4666 -8.62231
L30.5872 -8.3797
L31.0539 -8.13865
L31.5445 -7.93248
L32.0364 -7.85043
L32.5296 -7.77696
L33.0238 -7.71208
L33.5189 -7.65583
L34.0148 -7.6082
L34.5113 -7.56922
L35.0082 -7.53891
L35.5055 -7.51726
L36.0029 -7.50429
L36.5003 -7.5
L36.9975 -7.50439
L37.4944 -7.51746
L37.9909 -7.53921
L38.4868 -7.56963
L38.9819 -7.6087
L39.4761 -7.65643
L39.9693 -7.71279
L40.4612 -7.77776
L40.9518 -7.85133
L41.4409 -7.93348
L41.9283 -8.02417
L42.4139 -8.12339
L42.8976 -8.2311
L43.3791 -8.34727
L43.8584 -8.47186
L44.3353 -8.60484
L44.8097 -8.74616
L45.2814 -8.89578
L45.7503 -9.05366
L46.2162 -9.21974
L46.679 -9.39399
L47.1385 -9.57634
L47.5946 -9.76674
L48.0472 -9.96513
L48.4962 -10.1714
L48.9413 -10.3856
L49.3825 -10.6076
L49.8196 -10.8373
L50.2525 -11.0747
L50.6811 -11.3197
L51.1051 -11.5722
L51.5246 -11.8322
L51.9394 -12.0995
L52.3493 -12.374
L52.7542 -12.6558
L53.154 -12.9447
L53.5486 -13.2406
L53.9379 -13.5435
L54.3217 -13.8532
L54.6999 -14.1696
L55.0724 -14.4927
L55.4391 -14.8223
L55.7998 -15.1584
L56.1546 -15.5008
L56.5032 -15.8495
L56.8455 -16.2043
L57.1816 -16.5652
L57.5111 -16.9319
L57.8341 -17.3045
L58.1505 -17.6828
L58.4601 -18.0666
L58.7628 -18.4559
L59.0587 -18.8506
L59.3475 -19.2504
L59.6292 -19.6554
L59.9037 -20.0654
L60.1709 -20.4802
L60.4308 -20.8997
L60.6832 -21.3239
L60.9281 -21.7525
L61.1654 -22.1854
L61.395 -22.6226
L61.6169 -23.0638
L61.831 -23.509
L62.0372 -23.958
L62.2355 -24.4106
L62.4258 -24.8668
L62.6081 -25.3264
L62.7822 -25.7892
L62.9482 -26.2551
L63.106 -26.724
L63.2555 -27.1958
L63.3968 -27.6702
L63.5296 -28.1471
L63.6541 -28.6264
L63.7702 -29.108
L63.8778 -29.5917
L63.9769 -30.0773
L64.0675 -30.5648
L64.1496 -31.0539
L64.223 -31.5445
L64.2879 -32.0364
L64.3442 -32.5296
L64.3918 -33.0238
L64.4308 -33.5189
L64.4611 -34.0148
L64.4827 -34.5113
L64.4957 -35.0082
L64.5 -35.5055
L64.4956 -36.0029
L64.4825 -36.5003
L64.4608 -36.9975
L64.4304 -37.4944
L64.3913 -37.9909
L64.3436 -38.4868
L64.2872 -38.9819
L64.2222 -39.4761
L64.1487 -39.9693
L64.0665 -40.4612
L63.9758 -40.9518
L63.8766 -41.4409
L63.7689 -41.9283
L63.6527 -42.4139
L63.5281 -42.8976
L63.3952 -43.3791
L63.2538 -43.8584
L63.1042 -44.3353
L62.9463 -44.8097
L62.7803 -45.2814
L62.606 -45.7503
L62.4237 -46.2162
L62.2333 -46.679
L62.0349 -47.1385
L61.8286 -47.5946
L61.6144 -48.0472
z
" id="C0_1_23d286d339"/>
     <path d="
M41.2448 -63.9192
L41.0249 -63.7468
L40.7981 -63.5748
L40.5651 -63.403
L40.3263 -63.2312
L40.0821 -63.0593
L39.833 -62.8873
L39.5794 -62.715
L39.3218 -62.5423
L39.0605 -62.369
L38.796 -62.1952
L38.5286 -62.0207
L38.2588 -61.8454
L37.9868 -61.6693
L37.7131 -61.4923
L37.4379 -61.3143
L37.1615 -61.1354
L36.8842 -60.9555
L36.6063 -60.7745
L36.328 -60.5924
L36.0496 -60.4092
L35.7713 -60.225
L35.4934 -60.0396
L35.2159 -59.8531
L34.9391 -59.6655
L34.6631 -59.4768
L34.3881 -59.287
L34.1143 -59.0961
L33.8417 -58.9042
L33.5705 -58.7111
L33.3007 -58.5171
L33.0325 -58.322
L32.766 -58.126
L32.5013 -57.9289
L32.2383 -57.7309
L31.9772 -57.532
L31.718 -57.3322
L31.4607 -57.1314
L31.2055 -56.9298
L30.9523 -56.7274
L30.7011 -56.5241
L30.4521 -56.32
L30.2051 -56.1151
L29.9602 -55.9094
L29.7175 -55.703
L29.4769 -55.4958
L29.2384 -55.2879
L29.002 -55.0792
L28.7678 -54.8698
L28.5356 -54.6597
L28.3056 -54.449
L28.0777 -54.2375
L27.8518 -54.0253
L27.628 -53.8124
L27.4062 -53.5989
L27.1865 -53.3847
L26.9687 -53.1698
L26.7529 -52.9541
L26.5391 -52.7378
L26.3272 -52.5208
L26.1172 -52.3031
L25.9091 -52.0847
L25.7029 -51.8656
L25.4985 -51.6457
L25.2959 -51.4251
L25.095 -51.2037
L24.8959 -50.9816
L24.6986 -50.7587
L24.5029 -50.535
L24.3089 -50.3105
L24.1166 -50.0851
L23.9259 -49.8589
L23.7368 -49.6318
L23.5492 -49.4038
L23.3632 -49.175
L23.1787 -48.9452
L22.9957 -48.7144
L22.8142 -48.4826
L22.6341 -48.2499
L22.4555 -48.0161
L22.2783 -47.7813
L22.1024 -47.5453
L21.9279 -47.3083
L21.7548 -47.0701
L21.5829 -46.8308
L21.4124 -46.5903
L21.2432 -46.3486
L21.0752 -46.1056
L20.9085 -45.8613
L20.7431 -45.6158
L20.5789 -45.3689
L20.4158 -45.1206
L20.254 -44.871
L20.0934 -44.6199
L19.934 -44.3673
L19.7757 -44.1133
L19.6186 -43.8578
L19.4626 -43.6007
L19.3078 -43.3421
L19.1541 -43.0818
L19.0016 -42.8199
L18.8502 -42.5564
L18.6999 -42.2912
L18.5508 -42.0243
L18.4028 -41.7557
L18.2559 -41.4853
L18.1101 -41.2131
L17.9655 -40.9391
L17.822 -40.6634
L17.6796 -40.3858
L17.5384 -40.1063
L17.3983 -39.825
L17.2594 -39.5418
L17.1216 -39.2568
L16.985 -38.9698
L16.8495 -38.681
L16.7152 -38.3902
L16.5822 -38.0976
L16.4503 -37.8031
L16.3196 -37.5068
L16.1901 -37.2085
L16.0618 -36.9085
L15.9348 -36.6066
L15.809 -36.303
L15.6844 -35.9976
L15.5611 -35.6905
L15.4391 -35.3817
L15.3182 -35.0714
L15.1987 -34.7594
L15.0803 -34.4461
L14.9632 -34.1313
L14.8474 -33.8151
L14.7327 -33.4978
L14.6193 -33.1793
L14.5071 -32.8598
L14.396 -32.5394
L14.2861 -32.2183
L14.1772 -31.8965
L14.0694 -31.5742
L13.9627 -31.2516
L13.8568 -30.9289
L13.7519 -30.6062
L13.6478 -30.2837
L13.5445 -29.9617
L13.4418 -29.6404
L13.3396 -29.32
L13.2379 -29.0008
L13.1366 -28.683
L13.0354 -28.3669
L12.9343 -28.0528
L12.833 -27.741
L12.7316 -27.4318
L12.6297 -27.1256
L12.5272 -26.8226
L12.4238 -26.5232
L12.3195 -26.2278
L12.2139 -25.9367
L12.1069 -25.6503
L11.9983 -25.369
L11.8878 -25.0931
L11.7751 -24.823
L11.6601 -24.5592
L11.5425 -24.3019
L11.4222 -24.0516
L11.2988 -23.8087
L11.1722 -23.5734
L11.0422 -23.3461
L10.9085 -23.1272
L10.4744 -22.9171
L10.257 -23.3235
L10.0475 -23.7709
L9.84594 -24.2221
L9.65231 -24.6768
L9.4667 -25.135
L9.28917 -25.5964
L9.11978 -26.0611
L8.95858 -26.5288
L8.80562 -26.9993
L8.66094 -27.4727
L8.52458 -27.9486
L8.3966 -28.4269
L8.27702 -28.9076
L8.16589 -29.3904
L8.06324 -29.8753
L7.9691 -30.362
L7.8835 -30.8504
L7.80646 -31.3404
L7.738 -31.8318
L7.67816 -32.3245
L7.62695 -32.8183
L7.58437 -33.313
L7.55046 -33.8086
L7.52521 -34.3049
L7.50863 -34.8016
L7.50073 -35.2988
L7.50151 -35.7961
L7.51098 -36.2935
L7.52912 -36.7909
L7.55593 -37.2879
L7.59141 -37.7846
L7.63554 -38.2808
L7.68831 -38.7762
L7.74971 -39.2708
L7.81971 -39.7644
L7.8983 -40.2569
L7.98544 -40.7481
L8.08112 -41.2378
L8.1853 -41.7259
L8.29796 -42.2123
L8.41905 -42.6968
L8.54855 -43.1792
L8.68641 -43.6595
L8.83258 -44.1374
L8.98704 -44.6129
L9.14972 -45.0857
L9.32058 -45.5557
L9.49956 -46.0229
L9.68662 -46.487
L9.8817 -46.9479
L10.0847 -47.4055
L10.2957 -47.8595
L10.5144 -48.31
L10.7409 -48.7567
L10.9751 -49.1996
L11.217 -49.6384
L11.4664 -50.0731
L11.7232 -50.5035
L11.9875 -50.9294
L12.259 -51.3508
L12.5378 -51.7676
L12.8238 -52.1795
L13.1168 -52.5865
L13.4168 -52.9885
L13.7236 -53.3852
L14.0372 -53.7767
L14.3576 -54.1628
L14.6845 -54.5433
L15.0179 -54.9182
L15.3577 -55.2874
L15.7038 -55.6506
L16.0561 -56.0079
L16.4144 -56.359
L16.7788 -56.704
L17.1489 -57.0427
L17.5248 -57.3749
L17.9064 -57.7007
L18.2934 -58.0198
L18.6859 -58.3322
L19.0836 -58.6378
L19.4865 -58.9366
L19.8944 -59.2283
L20.3072 -59.513
L20.7248 -59.7905
L21.147 -60.0607
L21.5738 -60.3236
L22.005 -60.5792
L22.4404 -60.8272
L22.88 -61.0677
L23.3235 -61.3005
L23.7709 -61.5256
L24.2221 -61.743
L24.6768 -61.9525
L25.135 -62.1541
L25.5964 -62.3477
L26.0611 -62.5333
L26.5288 -62.7108
L26.9993 -62.8802
L27.4727 -63.0414
L27.9486 -63.1944
L28.4269 -63.3391
L28.9076 -63.4754
L29.3904 -63.6034
L29.8753 -63.723
L30.362 -63.8341
L30.8504 -63.9368
L31.3404 -64.0309
L31.8318 -64.1165
L32.3245 -64.1935
L32.8183 -64.262
L33.313 -64.3218
L33.8086 -64.3731
L34.3049 -64.4156
L34.8016 -64.4495
L35.2988 -64.4748
L35.7961 -64.4914
L36.2935 -64.4993
L36.7909 -64.4985
L37.2879 -64.489
L37.7846 -64.4709
L38.2808 -64.4441
L38.7762 -64.4086
L39.2708 -64.3645
L39.7644 -64.3117
L40.2569 -64.2503
L40.7481 -64.1803
z
" id="C0_2_010c1185e9"/>
    </defs>
    <g clip-path="url(#p1bffca34e9)">
     <use style="fill:#ff0000;stroke:#000000;stroke-width:2.0;" x="0.0" xlink:href="#C0_0_a811fe30f3" y="72.0"/>
    </g>
    <g clip-path="url(#p1bffca34e9)">
     <use style="fill:#ffffff;stroke:#000000;stroke-width:2.0;" x="0.0" xlink:href="#C0_1_23d286d339" y="72.0"/>
    </g>
    <g clip-path="url(#p1bffca34e9)">
     <use style="fill:#ffffff;stroke:#000000;stroke-width:2.0;" x="0.0" xlink:href="#C0_2_010c1185e9" y="72.0"/>
    </g>
   </g>
  </g>
 </g>
 <defs>
  <clipPath id="p1bffca34e9">
   <rect height="72.0" width="72.0" x="0.0" y="0.0"/>
  </clipPath>
 </defs>
</svg>
