<?xml version="1.0" encoding="utf-8" standalone="no"?>
<!DOCTYPE svg PUBLIC "-//W3C//DTD SVG 1.1//EN"
  "http://www.w3.org/Graphics/SVG/1.1/DTD/svg11.dtd">
<!-- Created with matplotlib (http://matplotlib.org/) -->
<svg height="72pt" version="1.1" viewBox="0 0 72 72" width="72pt" xmlns="http://www.w3.org/2000/svg" xmlns:xlink="http://www.w3.org/1999/xlink">
 <defs>
  <style type="text/css">
*{stroke-linecap:butt;stroke-linejoin:round;}
  </style>
 </defs>
 <g id="figure_1">
  <g id="patch_1">
   <path d="
M0 72
L72 72
L72 0
L0 0
z
" style="fill:none;"/>
  </g>
  <g id="axes_1">
   <g id="PatchCollection_1">
    <defs>
     <path d="
M36 -7.5
C43.5583 -7.5 50.808 -10.5029 56.1525 -15.8475
C61.4971 -21.192 64.5 -28.4417 64.5 -36
C64.5 -43.5583 61.4971 -50.808 56.1525 -56.1525
C50.808 -61.4971 43.5583 -64.5 36 -64.5
C28.4417 -64.5 21.192 -61.4971 15.8475 -56.1525
C10.5029 -50.808 7.5 -43.5583 7.5 -36
C7.5 -28.4417 10.5029 -21.192 15.8475 -15.8475
C21.192 -10.5029 28.4417 -7.5 36 -7.5
z
" id="C0_0_a811fe30f3"/>
     <path d="
M46.1217 -9.57397
L45.979 -9.77995
L45.8389 -9.98699
L45.7013 -10.1949
L45.5662 -10.4037
L45.4334 -10.6131
L45.3027 -10.8231
L45.1742 -11.0335
L45.0476 -11.2443
L44.923 -11.4554
L44.8003 -11.6667
L44.6793 -11.8781
L44.56 -12.0897
L44.4424 -12.3013
L44.3263 -12.5129
L44.2118 -12.7245
L44.0987 -12.936
L43.987 -13.1474
L43.8766 -13.3588
L43.7675 -13.57
L43.6597 -13.781
L43.5531 -13.9919
L43.4476 -14.2026
L43.3432 -14.4132
L43.2398 -14.6237
L43.1375 -14.8339
L43.0362 -15.0441
L42.9357 -15.254
L42.8362 -15.4639
L42.7376 -15.6737
L42.6397 -15.8833
L42.5427 -16.0929
L42.4464 -16.3024
L42.3508 -16.5119
L42.256 -16.7214
L42.1617 -16.9309
L42.0682 -17.1404
L41.9752 -17.3501
L41.8827 -17.5598
L41.7908 -17.7696
L41.6995 -17.9796
L41.6086 -18.1898
L41.5181 -18.4003
L41.4281 -18.611
L41.3385 -18.822
L41.2493 -19.0334
L41.1604 -19.2452
L41.0718 -19.4574
L40.9836 -19.67
L40.8956 -19.8832
L40.8079 -20.0969
L40.7204 -20.3112
L40.546 -20.5261
L40.4591 -20.7417
L40.3723 -20.9581
L40.2856 -21.1752
L40.1991 -21.3932
L40.1126 -21.612
L40.0261 -21.8318
L39.9397 -22.0525
L39.8534 -22.2742
L39.767 -22.4971
L39.6806 -22.721
L39.5941 -22.9462
L39.5077 -23.1725
L39.4211 -23.4002
L39.3344 -23.6292
L39.2476 -23.8596
L39.1607 -24.0915
L39.0737 -24.3249
L38.9865 -24.5598
L38.8991 -24.7964
L38.8115 -25.0347
L38.7237 -25.2747
L38.6357 -25.5165
L38.5475 -25.7602
L38.459 -26.0058
L38.3703 -26.2535
L38.2813 -26.5031
L38.192 -26.7549
L38.1024 -27.0089
L38.0126 -27.2651
L37.9224 -27.5236
L37.8319 -27.7845
L37.7411 -28.0478
L37.65 -28.3136
L37.5586 -28.582
L37.4668 -28.8529
L37.3748 -29.1266
L37.2824 -29.4029
L37.1897 -29.682
L37.0967 -29.964
L37.0034 -30.2489
L36.9099 -30.5367
L36.816 -30.8276
L36.722 -31.1214
L36.6277 -31.4184
L36.5333 -31.7185
L36.4386 -32.0218
L36.3439 -32.3283
L36.2491 -32.638
L36.1542 -32.951
L36.0594 -33.2673
L35.9646 -33.5869
L35.87 -33.9099
L35.7756 -34.2361
L35.6815 -34.5656
L35.5879 -34.8985
L35.4947 -35.2346
L35.4021 -35.574
L35.3102 -35.9166
L35.2193 -36.2623
L35.1293 -36.6111
L35.0406 -36.9629
L34.9533 -37.3177
L34.8675 -37.6752
L34.7836 -38.0355
L34.7018 -38.3982
L34.6223 -38.7634
L34.5456 -39.1307
L34.4718 -39.5001
L34.4015 -39.8712
L34.3349 -40.2438
L34.2727 -40.6177
L34.2152 -40.9925
L34.163 -41.3679
L34.1168 -41.7435
L34.0772 -42.1189
L34.0449 -42.4937
L34.0208 -42.8674
L34.0056 -43.2395
L34.0003 -43.6094
L34.0058 -43.9765
L34.0232 -44.3401
L34.0535 -44.6997
L34.0978 -45.0545
L34.1571 -45.4037
L34.2324 -45.7467
L34.3247 -46.0826
L34.4348 -46.4108
L34.5635 -46.7305
L34.7111 -47.0411
L34.8779 -47.342
L35.0641 -47.6326
L35.2694 -47.9126
L35.4934 -48.1815
L35.7355 -48.4393
L35.9948 -48.6856
L36.2704 -48.9206
L36.561 -49.1442
L36.8657 -49.3566
L37.1831 -49.5578
L37.512 -49.7483
L37.8512 -49.928
L38.1995 -50.0974
L38.5558 -50.2567
L38.9191 -50.4061
L39.2882 -50.546
L39.6624 -50.6766
L40.0406 -50.7983
L40.4222 -50.9112
L40.8063 -51.0156
L41.1923 -51.1117
L41.5796 -51.1999
L41.9676 -51.2804
L42.3557 -51.3533
L42.7436 -51.419
L43.1309 -51.4775
L43.517 -51.5292
L43.9017 -51.5743
L44.2847 -51.6128
L44.6657 -51.6451
L45.0445 -51.6713
L45.4208 -51.6916
L45.7945 -51.7062
L46.1653 -51.7152
L46.5332 -51.7189
L46.898 -51.7173
L47.2596 -51.7106
L47.6179 -51.6991
L47.9729 -51.6827
L48.3244 -51.6618
L48.6724 -51.6363
L49.0169 -51.6065
L49.3578 -51.5724
L49.6952 -51.5343
L50.029 -51.4921
L50.3592 -51.4461
L50.6859 -51.3963
L51.009 -51.3428
L51.3285 -51.2858
L51.6446 -51.2253
L51.9571 -51.1614
L52.2662 -51.0941
L52.5719 -51.0237
L52.8741 -50.95
L53.1731 -50.8733
L53.4687 -50.7936
L53.7611 -50.7109
L54.0504 -50.6253
L54.3364 -50.5368
L54.6194 -50.4456
L54.8993 -50.3516
L55.1762 -50.2548
L55.4502 -50.1554
L55.7213 -50.0533
L55.9896 -49.9486
L56.2552 -49.8413
L56.518 -49.7314
L56.7781 -49.6189
L57.0356 -49.5039
L57.2906 -49.3864
L57.5431 -49.2663
L57.7931 -49.1437
L58.0407 -49.0186
L58.286 -48.8909
L58.529 -48.7607
L58.7697 -48.628
L59.0082 -48.4927
L59.2445 -48.3548
L59.4787 -48.2144
L59.7108 -48.0713
L59.9409 -47.9256
L60.169 -47.7772
L60.3952 -47.6261
L60.6194 -47.4723
L60.8417 -47.3157
L61.0621 -47.1562
L61.2807 -46.9939
L61.4975 -46.8287
L61.7125 -46.6606
L61.9258 -46.4894
L62.1373 -46.3151
L62.3471 -46.1376
L62.5552 -45.957
L62.7616 -45.7731
L62.9943 -45.5858
L63.1498 -45.1409
L63.2969 -44.6684
L63.4357 -44.1932
L63.5662 -43.7156
L63.6883 -43.2356
L63.8019 -42.7534
L63.9071 -42.2691
L64.0038 -41.7829
L64.0919 -41.295
L64.1715 -40.8055
L64.2425 -40.3145
L64.3049 -39.8222
L64.3587 -39.3287
L64.4039 -38.8342
L64.4404 -38.3388
L64.4682 -37.8427
L64.4873 -37.3461
L64.4978 -36.8491
L64.4996 -36.3518
L64.4927 -35.8544
L64.4772 -35.357
L64.4529 -34.8598
L64.42 -34.363
L64.3785 -33.8667
L64.3283 -33.371
L64.2694 -32.8761
L64.202 -32.3822
L64.126 -31.8894
L64.0414 -31.3978
L63.9482 -30.9077
L63.8466 -30.419
L63.7364 -29.9321
L63.6178 -29.4471
L63.4908 -28.964
L63.3555 -28.4831
L63.2117 -28.0044
L63.0598 -27.5282
L62.8995 -27.0546
L62.7311 -26.5837
L62.5545 -26.1157
L62.3698 -25.6507
L62.1771 -25.1888
L61.9765 -24.7302
L61.7679 -24.2751
L61.5514 -23.8235
L61.3272 -23.3757
L61.0953 -22.9317
L60.8557 -22.4916
L60.6086 -22.0557
L60.3539 -21.6241
L60.0919 -21.1968
L59.8225 -20.774
L59.5458 -20.3558
L59.262 -19.9425
L58.9711 -19.534
L58.6732 -19.1305
L58.3683 -18.7322
L58.0567 -18.3391
L57.7384 -17.9514
L57.4134 -17.5692
L57.0819 -17.1926
L56.744 -16.8218
L56.3997 -16.4568
L56.0493 -16.0977
L55.6927 -15.7447
L55.3302 -15.3979
L54.9617 -15.0574
L54.5875 -14.7232
L54.2076 -14.3955
L53.8222 -14.0744
L53.4314 -13.76
L53.0352 -13.4523
L52.6338 -13.1515
L52.2274 -12.8577
L51.816 -12.5709
L51.3999 -12.2913
L50.979 -12.0189
L50.5536 -11.7538
L50.1237 -11.496
L49.6895 -11.2458
L49.2512 -11.0031
L48.8088 -10.7679
L48.3625 -10.5405
L47.9125 -10.3209
L47.4588 -10.109
L47.0016 -9.90506
z
" id="C0_1_529d9b1e9c"/>
     <path d="
M9.1397 -26.6418
L9.18225 -26.9182
L9.22797 -27.1938
L9.27685 -27.4689
L9.32888 -27.7434
L9.38406 -28.0174
L9.44238 -28.2909
L9.50385 -28.5641
L9.56847 -28.837
L9.63626 -29.1096
L9.70722 -29.382
L9.78137 -29.6542
L9.85872 -29.9264
L9.9393 -30.1985
L10.0231 -30.4706
L10.1102 -30.7428
L10.2006 -31.015
L10.2944 -31.2875
L10.3915 -31.5601
L10.492 -31.833
L10.596 -32.1062
L10.7035 -32.3797
L10.8144 -32.6537
L10.929 -32.928
L11.0472 -33.2028
L11.1691 -33.4781
L11.2947 -33.754
L11.4241 -34.0304
L11.5574 -34.3074
L11.6945 -34.5851
L11.8356 -34.8635
L11.9807 -35.1425
L12.1299 -35.4223
L12.2833 -35.7028
L12.4408 -35.984
L12.6027 -36.2661
L12.7688 -36.5489
L12.9394 -36.8325
L13.1144 -37.1169
L13.294 -37.4022
L13.4781 -37.6883
L13.6669 -37.9752
L13.8603 -38.2629
L14.0585 -38.5514
L14.2616 -38.8406
L14.4694 -39.1307
L14.6821 -39.4215
L14.8998 -39.7131
L15.1224 -40.0053
L15.3499 -40.2982
L15.5824 -40.5918
L15.8199 -40.8859
L16.0623 -41.1806
L16.3097 -41.4758
L16.5619 -41.7714
L16.819 -42.0674
L17.0808 -42.3638
L17.3473 -42.6605
L17.6183 -42.9574
L17.8937 -43.2545
L18.1734 -43.5517
L18.457 -43.8489
L18.7445 -44.1462
L19.0354 -44.4433
L19.3296 -44.7405
L19.6266 -45.0374
L19.926 -45.3343
L20.2275 -45.6309
L20.5304 -45.9274
L20.8342 -46.2237
L21.1382 -46.5199
L21.4418 -46.8161
L21.7441 -47.1122
L22.0444 -47.4085
L22.3416 -47.7051
L22.6347 -48.002
L22.9228 -48.2997
L23.2045 -48.5982
L23.4789 -48.8978
L23.7445 -49.1988
L24.0003 -49.5015
L24.245 -49.8062
L24.4775 -50.1131
L24.6967 -50.4226
L24.9018 -50.7349
L25.0921 -51.0501
L25.267 -51.3684
L25.4262 -51.6897
L25.5697 -52.014
L25.6977 -52.3413
L25.8105 -52.6711
L25.9087 -53.0034
L25.9931 -53.3377
L26.0645 -53.6736
L26.1237 -54.0106
L26.1718 -54.3485
L26.2097 -54.6866
L26.2384 -55.0245
L26.2587 -55.3618
L26.2716 -55.698
L26.2779 -56.0329
L26.2784 -56.3659
L26.2737 -56.6967
L26.2646 -57.0251
L26.2515 -57.3507
L26.2351 -57.6733
L26.2158 -57.9926
L26.1941 -58.3084
L26.1703 -58.6206
L26.1448 -58.9289
L26.1179 -59.2334
L26.0899 -59.5337
L26.0611 -59.8299
L26.0316 -60.1219
L26.0016 -60.4096
L25.9714 -60.6929
L25.941 -60.9719
L25.9106 -61.2464
L25.8804 -61.5166
L25.8504 -61.7824
L25.8207 -62.0437
L25.7915 -62.3007
L25.2852 -62.5534
L24.8259 -62.4091
L24.3701 -62.2181
L23.9177 -62.0191
L23.4691 -61.8122
L23.0243 -61.5974
L22.5834 -61.3748
L22.1466 -61.1445
L21.714 -60.9065
L21.2858 -60.6609
L20.8621 -60.4078
L20.443 -60.1473
L20.0286 -59.8795
L19.619 -59.6043
L19.2145 -59.322
L18.8151 -59.0325
L18.4209 -58.7361
L18.0321 -58.4327
L17.6487 -58.1225
L17.271 -57.8055
L16.8989 -57.4819
L16.5327 -57.1518
L16.1724 -56.8152
L15.8181 -56.4723
L15.47 -56.1231
L15.1281 -55.7679
L14.7926 -55.4065
L14.4635 -55.0393
L14.141 -54.6663
L13.8252 -54.2876
L13.5161 -53.9033
L13.2139 -53.5136
L12.9186 -53.1185
L12.6304 -52.7182
L12.3492 -52.3129
L12.0753 -51.9025
L11.8086 -51.4873
L11.5494 -51.0674
L11.2975 -50.643
L11.0532 -50.214
L10.8165 -49.7807
L10.5875 -49.3432
L10.3662 -48.9017
L10.1527 -48.4562
L9.94708 -48.0069
L9.7494 -47.554
L9.55972 -47.0976
L9.37809 -46.6377
L9.20458 -46.1747
L9.03922 -45.7085
L8.88208 -45.2394
L8.73319 -44.7675
L8.59262 -44.2928
L8.46039 -43.8157
L8.33655 -43.3362
L8.22113 -42.8544
L8.11418 -42.3706
L8.01573 -41.8848
L7.92579 -41.3973
L7.84441 -40.908
L7.77161 -40.4173
L7.7074 -39.9253
L7.65181 -39.432
L7.60486 -38.9377
L7.56656 -38.4425
L7.53691 -37.9466
L7.51594 -37.4501
L7.50365 -36.9531
L7.50003 -36.4558
L7.5051 -35.9584
L7.51884 -35.4611
L7.54126 -34.9638
L7.57235 -34.4669
L7.6121 -33.9705
L7.6605 -33.4747
L7.71753 -32.9796
L7.78317 -32.4855
L7.85741 -31.9924
L7.94022 -31.5006
L8.03158 -31.0101
L8.13146 -30.5212
L8.23983 -30.0339
L8.35665 -29.5484
L8.4819 -29.0649
L8.61552 -28.5835
L8.75749 -28.1044
L8.90776 -27.6277
z
" id="C0_2_f74a37f0a3"/>
    </defs>
    <g clip-path="url(#p1bffca34e9)">
     <use style="fill:#ffffff;stroke:#000000;stroke-width:2.0;" x="0.0" xlink:href="#C0_0_a811fe30f3" y="72.0"/>
    </g>
    <g clip-path="url(#p1bffca34e9)">
     <use style="fill:#ff0000;stroke:#000000;stroke-width:2.0;" x="0.0" xlink:href="#C0_1_529d9b1e9c" y="72.0"/>
    </g>
    <g clip-path="url(#p1bffca34e9)">
     <use style="fill:#ff0000;stroke:#000000;stroke-width:2.0;" x="0.0" xlink:href="#C0_2_f74a37f0a3" y="72.0"/>
    </g>
   </g>
  </g>
 </g>
 <defs>
  <clipPath id="p1bffca34e9">
   <rect height="72.0" width="72.0" x="0.0" y="0.0"/>
  </clipPath>
 </defs>
</svg>
