<?xml version="1.0" encoding="utf-8" standalone="no"?>
<!DOCTYPE svg PUBLIC "-//W3C//DTD SVG 1.1//EN"
  "http://www.w3.org/Graphics/SVG/1.1/DTD/svg11.dtd">
<!-- Created with matplotlib (http://matplotlib.org/) -->
<svg height="72pt" version="1.1" viewBox="0 0 72 72" width="72pt" xmlns="http://www.w3.org/2000/svg" xmlns:xlink="http://www.w3.org/1999/xlink">
 <defs>
  <style type="text/css">
*{stroke-linecap:butt;stroke-linejoin:round;}
  </style>
 </defs>
 <g id="figure_1">
  <g id="patch_1">
   <path d="
M0 72
L72 72
L72 0
L0 0
z
" style="fill:none;"/>
  </g>
  <g id="axes_1">
   <g id="PatchCollection_1">
    <defs>
     <path d="
M36 -7.5
C43.5583 -7.5 50.808 -10.5029 56.1525 -15.8475
C61.4971 -21.192 64.5 -28.4417 64.5 -36
C64.5 -43.5583 61.4971 -50.808 56.1525 -56.1525
C50.808 -61.4971 43.5583 -64.5 36 -64.5
C28.4417 -64.5 21.192 -61.4971 15.8475 -56.1525
C10.5029 -50.808 7.5 -43.5583 7.5 -36
C7.5 -28.4417 10.5029 -21.192 15.8475 -15.8475
C21.192 -10.5029 28.4417 -7.5 36 -7.5
z
" id="C0_0_a811fe30f3"/>
     <path d="
M64.3614 -33.2269
L64.189 -33.3905
L64.0143 -33.5498
L63.8375 -33.705
L63.6586 -33.8561
L63.4777 -34.0032
L63.2949 -34.1465
L63.1103 -34.2861
L62.9238 -34.4221
L62.7356 -34.5545
L62.5457 -34.6836
L62.3542 -34.8092
L62.1611 -34.9316
L61.9663 -35.0509
L61.7701 -35.167
L61.5724 -35.2801
L61.3732 -35.3903
L61.1726 -35.4976
L60.9705 -35.6021
L60.7671 -35.7039
L60.5623 -35.8029
L60.3561 -35.8994
L60.1486 -35.9932
L59.9398 -36.0846
L59.7297 -36.1734
L59.5182 -36.2599
L59.3055 -36.344
L59.0914 -36.4257
L58.8761 -36.5052
L58.6595 -36.5824
L58.4416 -36.6574
L58.0019 -36.7303
L57.7801 -36.8009
L57.5571 -36.8695
L57.3327 -36.936
L57.107 -37.0004
L56.8801 -37.0628
L56.6518 -37.1231
L56.4222 -37.1815
L56.1913 -37.2378
L55.959 -37.2923
L55.7254 -37.3447
L55.4904 -37.3953
L55.254 -37.4439
L55.0163 -37.4906
L54.7772 -37.5354
L54.5367 -37.5782
L54.2948 -37.6192
L54.0515 -37.6583
L53.8068 -37.6955
L53.5606 -37.7308
L53.313 -37.7642
L53.0639 -37.7957
L52.8133 -37.8253
L52.5613 -37.853
L52.3079 -37.8788
L52.0529 -37.9026
L51.7965 -37.9244
L51.5386 -37.9443
L51.2791 -37.9622
L51.0182 -37.9781
L50.7558 -37.9919
L50.492 -38.0038
L50.2266 -38.0135
L49.9597 -38.0212
L49.6914 -38.0267
L49.4216 -38.03
L49.1504 -38.0312
L48.8777 -38.0302
L48.6036 -38.0269
L48.3281 -38.0213
L48.0512 -38.0134
L47.7729 -38.0031
L47.4933 -37.9903
L47.2124 -37.9752
L46.9302 -37.9575
L46.6468 -37.9372
L46.3622 -37.9144
L46.0765 -37.8889
L45.7897 -37.8606
L45.5018 -37.8296
L45.2129 -37.7958
L44.9231 -37.759
L44.6324 -37.7194
L44.341 -37.6767
L44.0488 -37.6309
L43.756 -37.5819
L43.4627 -37.5298
L43.1689 -37.4744
L42.8747 -37.4156
L42.5802 -37.3533
L42.2856 -37.2876
L41.991 -37.2183
L41.6964 -37.1453
L41.4019 -37.0687
L41.1078 -36.9882
L40.8142 -36.9038
L40.5211 -36.8155
L40.2287 -36.7231
L39.9372 -36.6267
L39.6467 -36.526
L39.3573 -36.4211
L39.0692 -36.312
L38.7826 -36.1984
L38.4976 -36.0804
L38.2144 -35.9578
L37.9332 -35.8308
L37.654 -35.6991
L37.3772 -35.5627
L37.1027 -35.4217
L36.8309 -35.2759
L36.5618 -35.1253
L36.2957 -34.9699
L36.0326 -34.8098
L35.7728 -34.6448
L35.5164 -34.475
L35.2634 -34.3004
L35.0142 -34.121
L34.7688 -33.9368
L34.5273 -33.7479
L34.2898 -33.5543
L34.0565 -33.3561
L33.8276 -33.1533
L33.603 -32.946
L33.3829 -32.7343
L33.1673 -32.5183
L32.9564 -32.298
L32.7502 -32.0736
L32.5488 -31.8452
L32.3521 -31.6129
L32.1604 -31.3769
L31.9735 -31.1373
L31.7916 -30.8942
L31.6147 -30.6477
L31.4427 -30.3981
L31.2756 -30.1455
L31.1136 -29.8899
L30.9565 -29.6317
L30.8043 -29.371
L30.6571 -29.1078
L30.5148 -28.8424
L30.3774 -28.575
L30.2449 -28.3057
L30.1171 -28.0346
L29.9942 -27.7619
L29.876 -27.4879
L29.7624 -27.2125
L29.6536 -26.936
L29.5493 -26.6586
L29.4495 -26.3803
L29.3543 -26.1013
L29.2635 -25.8217
L29.1771 -25.5417
L29.0949 -25.2614
L29.0171 -24.9809
L28.9435 -24.7003
L28.874 -24.4197
L28.8087 -24.1393
L28.7473 -23.8591
L28.69 -23.5792
L28.6366 -23.2998
L28.5871 -23.0208
L28.5414 -22.7425
L28.4994 -22.4648
L28.4612 -22.1878
L28.4267 -21.9116
L28.3958 -21.6362
L28.3684 -21.3618
L28.3446 -21.0884
L28.3242 -20.8159
L28.3073 -20.5446
L28.2938 -20.2743
L28.2836 -20.0052
L28.2768 -19.7373
L28.2732 -19.4705
L28.2729 -19.205
L28.2758 -18.9408
L28.2818 -18.6779
L28.2911 -18.4163
L28.3034 -18.1561
L28.3188 -17.8971
L28.3374 -17.6396
L28.3589 -17.3834
L28.3835 -17.1287
L28.4111 -16.8753
L28.4418 -16.6233
L28.4754 -16.3728
L28.512 -16.1236
L28.5515 -15.8759
L28.594 -15.6296
L28.6395 -15.3848
L28.688 -15.1414
L28.7393 -14.8994
L28.7937 -14.6588
L28.851 -14.4197
L28.9113 -14.182
L28.9745 -13.9457
L29.0407 -13.7109
L29.11 -13.4775
L29.1822 -13.2455
L29.2575 -13.0149
L29.3359 -12.7858
L29.4173 -12.5581
L29.5018 -12.3318
L29.5895 -12.107
L29.6803 -11.8835
L29.7743 -11.6615
L29.8715 -11.441
L29.972 -11.2218
L30.0759 -11.0042
L30.1831 -10.7879
L30.2937 -10.5732
L30.4077 -10.3599
L30.5252 -10.148
L30.6464 -9.9377
L30.7711 -9.72888
L30.8995 -9.52157
L31.0316 -9.31581
L31.1676 -9.1116
L31.3075 -8.90899
L31.4513 -8.70798
L31.5991 -8.50861
L31.7511 -8.31091
L31.9073 -8.11491
L32.3822 -7.92065
L32.8762 -7.73055
L33.371 -7.67172
L33.8667 -7.62151
L34.363 -7.57995
L34.8598 -7.54705
L35.357 -7.52282
L35.8544 -7.50725
L36.3518 -7.50037
L36.8491 -7.50217
L37.3461 -7.51265
L37.8428 -7.53181
L38.3388 -7.55964
L38.8342 -7.59613
L39.3287 -7.64127
L39.8222 -7.69506
L40.3145 -7.75746
L40.8055 -7.82847
L41.295 -7.90806
L41.783 -7.9962
L42.2691 -8.09288
L42.7534 -8.19806
L43.2356 -8.3117
L43.7156 -8.43378
L44.1932 -8.56426
L44.6684 -8.70309
L45.1409 -8.85024
L45.6106 -9.00566
L46.0774 -9.1693
L46.5411 -9.34112
L47.0016 -9.52105
L47.4588 -9.70905
L47.9125 -9.90506
L48.3625 -10.109
L48.8088 -10.3209
L49.2512 -10.5405
L49.6895 -10.768
L50.1237 -11.0031
L50.5536 -11.2458
L50.979 -11.496
L51.3999 -11.7538
L51.8161 -12.0189
L52.2274 -12.2913
L52.6338 -12.5709
L53.0352 -12.8577
L53.4314 -13.1515
L53.8222 -13.4523
L54.2077 -13.76
L54.5875 -14.0744
L54.9618 -14.3955
L55.3302 -14.7232
L55.6928 -15.0574
L56.0493 -15.3979
L56.3998 -15.7447
L56.744 -16.0977
L57.0819 -16.4568
L57.4134 -16.8218
L57.7384 -17.1927
L58.0567 -17.5692
L58.3684 -17.9514
L58.6732 -18.3391
L58.9711 -18.7322
L59.262 -19.1305
L59.5458 -19.534
L59.8225 -19.9425
L60.0919 -20.3559
L60.3539 -20.774
L60.6086 -21.1968
L60.8557 -21.6241
L61.0953 -22.0557
L61.3272 -22.4917
L61.5515 -22.9317
L61.7679 -23.3757
L61.9765 -23.8236
L62.1771 -24.2751
L62.3698 -24.7303
L62.5545 -25.1888
L62.7311 -25.6507
L62.8995 -26.1157
L63.0598 -26.5837
L63.2118 -27.0546
L63.3555 -27.5283
L63.4908 -28.0045
L63.6178 -28.4831
L63.7364 -28.964
L63.8466 -29.4471
L63.9482 -29.9322
L64.0414 -30.4191
L64.126 -30.9077
L64.202 -31.3978
L64.2694 -31.8894
z
" id="C0_1_f3736a78d9"/>
     <path d="
M39.9201 -64.1846
L39.7119 -64.0431
L39.5037 -63.8995
L39.2954 -63.7539
L39.0871 -63.6062
L38.8788 -63.4564
L38.6703 -63.3046
L38.4617 -63.1507
L38.253 -62.9947
L38.044 -62.8365
L37.8349 -62.6763
L37.6256 -62.514
L37.4159 -62.3496
L37.206 -62.183
L36.9958 -62.0144
L36.7853 -61.8435
L36.5744 -61.6706
L36.3631 -61.4955
L36.1514 -61.3183
L35.9393 -61.1389
L35.7267 -60.9574
L35.5137 -60.7737
L35.3001 -60.5879
L35.086 -60.4
L34.8714 -60.2099
L34.6562 -60.0177
L34.4404 -59.8234
L34.224 -59.627
L34.007 -59.4285
L33.7893 -59.2279
L33.571 -59.0252
L33.3519 -58.8205
L33.1321 -58.6138
L32.9116 -58.4051
L32.6903 -58.1945
L32.4683 -57.9819
L32.2454 -57.7674
L32.0217 -57.551
L31.7972 -57.3329
L31.5718 -57.1129
L31.3455 -56.8913
L31.1184 -56.668
L30.8903 -56.443
L30.6612 -56.2166
L30.4313 -55.9886
L30.2003 -55.7593
L29.9683 -55.5286
L29.7353 -55.2967
L29.5012 -55.0636
L29.2661 -54.8295
L29.0299 -54.5943
L28.7927 -54.3583
L28.5543 -54.1215
L28.3147 -53.8839
L28.074 -53.6459
L27.8321 -53.4073
L27.5891 -53.1684
L27.3448 -52.9293
L27.0993 -52.69
L26.8526 -52.4508
L26.6046 -52.2117
L26.3554 -51.9728
L26.1049 -51.7343
L25.8532 -51.4964
L25.6002 -51.259
L25.3459 -51.0224
L25.0903 -50.7867
L24.8334 -50.552
L24.5753 -50.3184
L24.316 -50.0861
L24.0554 -49.8551
L23.7936 -49.6255
L23.5306 -49.3975
L23.2665 -49.1711
L23.0013 -48.9465
L22.7349 -48.7237
L22.4675 -48.5027
L22.1992 -48.2838
L21.9299 -48.0669
L21.6597 -47.852
L21.3888 -47.6393
L21.117 -47.4288
L20.8447 -47.2205
L20.5717 -47.0144
L20.2982 -46.8106
L20.0243 -46.6091
L19.7501 -46.4099
L19.4756 -46.2129
L19.201 -46.0182
L18.9263 -45.8258
L18.6517 -45.6356
L18.3772 -45.4477
L18.103 -45.2619
L17.8291 -45.0784
L17.5557 -44.8969
L17.2828 -44.7176
L17.0106 -44.5404
L16.7391 -44.3652
L16.4684 -44.192
L16.1987 -44.0207
L15.93 -43.8513
L15.6624 -43.6838
L15.3959 -43.518
L15.1308 -43.3541
L14.867 -43.1918
L14.6047 -43.0312
L14.3439 -42.8722
L14.0846 -42.7148
L13.827 -42.5589
L13.571 -42.4045
L13.3169 -42.2515
L13.0645 -42.0999
L12.814 -41.9496
L12.5654 -41.8006
L12.3188 -41.6529
L12.0742 -41.5064
L11.8315 -41.361
L11.591 -41.2168
L11.3525 -41.0737
L11.1162 -40.9316
L10.8819 -40.7905
L10.6499 -40.6505
L10.42 -40.5113
L10.1922 -40.3731
L9.96672 -40.2358
L9.7434 -40.0992
L9.5223 -39.9635
L9.30341 -39.8286
L9.08674 -39.6945
L8.87229 -39.561
L8.66006 -39.4282
L8.45003 -39.2961
L8.24222 -39.1646
L8.03661 -39.0338
L7.70554 -38.9034
L7.76948 -39.4166
L7.84201 -39.9099
L7.92313 -40.402
L8.01279 -40.8928
L8.11099 -41.382
L8.21767 -41.8697
L8.33282 -42.3555
L8.4564 -42.8394
L8.58837 -43.3212
L8.72869 -43.8008
L8.87731 -44.278
L9.0342 -44.7527
L9.1993 -45.2247
L9.37256 -45.6939
L9.55394 -46.1602
L9.74337 -46.6234
L9.9408 -47.0833
L10.1462 -47.5398
L10.3594 -47.9929
L10.5805 -48.4423
L10.8093 -48.8879
L11.0457 -49.3295
L11.2898 -49.7671
L11.5414 -50.2006
L11.8004 -50.6296
L12.0669 -51.0543
L12.3406 -51.4743
L12.6215 -51.8897
L12.9095 -52.3002
L13.2046 -52.7057
L13.5066 -53.1061
L13.8155 -53.5014
L14.1311 -53.8913
L14.4534 -54.2757
L14.7822 -54.6546
L15.1175 -55.0278
L15.4592 -55.3952
L15.8072 -55.7567
L16.1612 -56.1122
L16.5214 -56.4615
L16.8874 -56.8046
L17.2593 -57.1414
L17.6369 -57.4717
L18.0201 -57.7955
L18.4087 -58.1127
L18.8027 -58.4231
L19.202 -58.7267
L19.6064 -59.0234
L20.0157 -59.3131
L20.43 -59.5956
L20.8489 -59.871
L21.2725 -60.1391
L21.7006 -60.3998
L22.1331 -60.6531
L22.5697 -60.899
L23.0105 -61.1372
L23.4552 -61.3677
L23.9037 -61.5906
L24.3559 -61.8056
L24.8117 -62.0128
L25.2708 -62.212
L25.7333 -62.4033
L26.1988 -62.5865
L26.6674 -62.7617
L27.1388 -62.9286
L27.6129 -63.0874
L28.0895 -63.2379
L28.5686 -63.3802
L29.0499 -63.5141
L29.5333 -63.6396
L30.0187 -63.7567
L30.5059 -63.8653
L30.9948 -63.9654
L31.4853 -64.0571
L31.9771 -64.1401
L32.4701 -64.2146
L32.9642 -64.2806
L33.4592 -64.3379
L33.955 -64.3865
L34.4514 -64.4265
L34.9483 -64.4579
L35.4456 -64.4806
L35.9429 -64.4946
L36.4403 -64.4999
L36.9376 -64.4966
L37.4346 -64.4846
L37.9311 -64.4639
L38.4271 -64.4345
L38.9223 -64.3965
L39.4166 -64.3498
z
" id="C0_2_044d573623"/>
    </defs>
    <g clip-path="url(#p1bffca34e9)">
     <use style="fill:#ffffff;stroke:#000000;stroke-width:2.0;" x="0.0" xlink:href="#C0_0_a811fe30f3" y="72.0"/>
    </g>
    <g clip-path="url(#p1bffca34e9)">
     <use style="fill:#ff0000;stroke:#000000;stroke-width:2.0;" x="0.0" xlink:href="#C0_1_f3736a78d9" y="72.0"/>
    </g>
    <g clip-path="url(#p1bffca34e9)">
     <use style="fill:#ff0000;stroke:#000000;stroke-width:2.0;" x="0.0" xlink:href="#C0_2_044d573623" y="72.0"/>
    </g>
   </g>
  </g>
 </g>
 <defs>
  <clipPath id="p1bffca34e9">
   <rect height="72.0" width="72.0" x="0.0" y="0.0"/>
  </clipPath>
 </defs>
</svg>
