<?xml version="1.0" encoding="utf-8" standalone="no"?>
<!DOCTYPE svg PUBLIC "-//W3C//DTD SVG 1.1//EN"
  "http://www.w3.org/Graphics/SVG/1.1/DTD/svg11.dtd">
<!-- Created with matplotlib (http://matplotlib.org/) -->
<svg height="72pt" version="1.1" viewBox="0 0 72 72" width="72pt" xmlns="http://www.w3.org/2000/svg" xmlns:xlink="http://www.w3.org/1999/xlink">
 <defs>
  <style type="text/css">
*{stroke-linecap:butt;stroke-linejoin:round;}
  </style>
 </defs>
 <g id="figure_1">
  <g id="patch_1">
   <path d="
M0 72
L72 72
L72 0
L0 0
z
" style="fill:none;"/>
  </g>
  <g id="axes_1">
   <g id="PatchCollection_1">
    <defs>
     <path d="
M36 -7.5
C43.5583 -7.5 50.808 -10.5029 56.1525 -15.8475
C61.4971 -21.192 64.5 -28.4417 64.5 -36
C64.5 -43.5583 61.4971 -50.808 56.1525 -56.1525
C50.808 -61.4971 43.5583 -64.5 36 -64.5
C28.4417 -64.5 21.192 -61.4971 15.8475 -56.1525
C10.5029 -50.808 7.5 -43.5583 7.5 -36
C7.5 -28.4417 10.5029 -21.192 15.8475 -15.8475
C21.192 -10.5029 28.4417 -7.5 36 -7.5
z
" id="C0_0_a811fe30f3"/>
     <path d="
M32.3286 -64.2583
L32.4301 -64.0191
L32.5276 -63.7786
L32.6215 -63.5372
L32.7119 -63.295
L32.7991 -63.0521
L32.8832 -62.8086
L32.9645 -62.5648
L33.043 -62.3206
L33.119 -62.0763
L33.1925 -61.8319
L33.2638 -61.5875
L33.3329 -61.3432
L33.4 -61.0991
L33.4651 -60.8552
L33.5283 -60.6115
L33.5898 -60.3682
L33.6495 -60.1253
L33.7077 -59.8827
L33.7644 -59.6406
L33.8196 -59.3989
L33.8734 -59.1577
L33.9259 -58.9171
L33.9772 -58.6769
L34.0272 -58.4372
L34.0761 -58.1981
L34.1238 -57.9594
L34.1705 -57.7213
L34.2162 -57.4837
L34.2609 -57.2465
L34.3047 -57.0099
L34.3475 -56.7737
L34.3895 -56.538
L34.4307 -56.3027
L34.4711 -56.0678
L34.5107 -55.8333
L34.5495 -55.5991
L34.5877 -55.3653
L34.6252 -55.1318
L34.662 -54.8986
L34.6982 -54.6656
L34.7337 -54.4328
L34.7687 -54.2002
L34.8031 -53.9678
L34.837 -53.7354
L34.8703 -53.5031
L34.9031 -53.2708
L34.9354 -53.0386
L34.9673 -52.8062
L34.9986 -52.5738
L35.0296 -52.3412
L35.06 -52.1085
L35.0901 -51.8755
L35.1198 -51.6423
L35.149 -51.4087
L35.1779 -51.1748
L35.2064 -50.9405
L35.2345 -50.7057
L35.2897 -50.4704
L35.3168 -50.2346
L35.3435 -49.9981
L35.37 -49.7611
L35.3961 -49.5233
L35.4219 -49.2847
L35.4474 -49.0454
L35.4727 -48.8051
L35.4976 -48.564
L35.5222 -48.3219
L35.5466 -48.0788
L35.5706 -47.8346
L35.5944 -47.5893
L35.618 -47.3428
L35.6412 -47.0951
L35.6642 -46.8461
L35.6869 -46.5957
L35.7094 -46.3439
L35.7315 -46.0906
L35.7534 -45.8358
L35.7751 -45.5795
L35.7964 -45.3214
L35.8175 -45.0617
L35.8383 -44.8003
L35.8588 -44.537
L35.879 -44.2718
L35.8989 -44.0047
L35.9184 -43.7356
L35.9377 -43.4644
L35.9567 -43.1912
L35.9753 -42.9157
L35.9935 -42.6381
L36.0114 -42.3582
L36.029 -42.0759
L36.0461 -41.7913
L36.0628 -41.5042
L36.0791 -41.2146
L36.0949 -40.9225
L36.1103 -40.6278
L36.1252 -40.3305
L36.1395 -40.0305
L36.1533 -39.7277
L36.1665 -39.4223
L36.1791 -39.114
L36.191 -38.8029
L36.2022 -38.489
L36.2127 -38.1723
L36.2224 -37.8526
L36.2312 -37.5301
L36.2392 -37.2046
L36.2462 -36.8763
L36.2521 -36.5451
L36.257 -36.2111
L36.2607 -35.8742
L36.2631 -35.5345
L36.2642 -35.192
L36.2638 -34.8469
L36.2619 -34.4991
L36.2583 -34.1488
L36.2529 -33.796
L36.2455 -33.4409
L36.2361 -33.0835
L36.2244 -32.7241
L36.2102 -32.3628
L36.1934 -31.9998
L36.1737 -31.6353
L36.151 -31.2694
L36.1248 -30.9026
L36.0951 -30.535
L36.0614 -30.1669
L36.0234 -29.7987
L35.9807 -29.4308
L35.933 -29.0635
L35.8798 -28.6974
L35.8207 -28.3329
L35.7551 -27.9704
L35.6824 -27.6107
L35.6022 -27.2542
L35.5137 -26.9016
L35.4164 -26.5536
L35.3095 -26.211
L35.1924 -25.8745
L35.0643 -25.5449
L34.9245 -25.223
L34.7724 -24.9097
L34.6073 -24.6057
L34.4287 -24.312
L34.236 -24.0292
L34.029 -23.7583
L33.8074 -23.4997
L33.571 -23.2542
L33.3201 -23.0223
L33.0547 -22.8043
L32.7754 -22.6005
L32.4826 -22.4112
L32.177 -22.2363
L31.8593 -22.0758
L31.5305 -21.9295
L31.1915 -21.7973
L30.8432 -21.6788
L30.4866 -21.5737
L30.1227 -21.4816
L29.7523 -21.4021
L29.3766 -21.3347
L28.9962 -21.2791
L28.6122 -21.2346
L28.2252 -21.201
L27.8361 -21.1778
L27.4455 -21.1645
L27.054 -21.1608
L26.6623 -21.1662
L26.2709 -21.1803
L25.8803 -21.2029
L25.4909 -21.2336
L25.1032 -21.2719
L24.7175 -21.3177
L24.3342 -21.3705
L23.9536 -21.4301
L23.5759 -21.4962
L23.2014 -21.5686
L22.8303 -21.6469
L22.4627 -21.7309
L22.0989 -21.8204
L21.739 -21.9152
L21.3831 -22.0151
L21.0313 -22.1197
L20.6837 -22.229
L20.3404 -22.3428
L20.0014 -22.4608
L19.6668 -22.583
L19.3366 -22.7091
L19.0108 -22.8389
L18.6895 -22.9725
L18.3725 -23.1095
L18.0601 -23.2499
L17.752 -23.3935
L17.4483 -23.5403
L17.1491 -23.6902
L16.8541 -23.8429
L16.5635 -23.9985
L16.2772 -24.1568
L15.9951 -24.3178
L15.7172 -24.4814
L15.4434 -24.6474
L15.1737 -24.8159
L14.9081 -24.9869
L14.6465 -25.1601
L14.3888 -25.3356
L14.135 -25.5134
L13.885 -25.6933
L13.6389 -25.8754
L13.3964 -26.0596
L13.1576 -26.246
L12.9225 -26.4344
L12.6909 -26.6248
L12.4628 -26.8173
L12.2382 -27.0119
L12.017 -27.2084
L11.7992 -27.407
L11.5847 -27.6076
L11.3735 -27.8102
L11.1655 -28.0149
L10.9607 -28.2215
L10.759 -28.4303
L10.5605 -28.6411
L10.3651 -28.854
L10.1726 -29.069
L9.98324 -29.2861
L9.79682 -29.5054
L9.61336 -29.7269
L9.43282 -29.9506
L9.2552 -30.1766
L9.08047 -30.4049
L8.90861 -30.6355
L8.73961 -30.8685
L8.57346 -31.104
L8.41016 -31.3419
L8.24969 -31.5824
L8.09206 -31.8255
L7.93726 -32.0712
L7.78532 -32.3197
L7.65248 -32.5709
L7.60541 -33.0559
L7.567 -33.551
L7.53724 -34.047
L7.51616 -34.5435
L7.50375 -35.0404
L7.50002 -35.5377
L7.50497 -36.0351
L7.51861 -36.5325
L7.54092 -37.0297
L7.57189 -37.5266
L7.61153 -38.0231
L7.65982 -38.5189
L7.71673 -39.014
L7.78227 -39.5081
L7.8564 -40.0012
L7.9391 -40.4931
L8.03034 -40.9835
L8.13011 -41.4725
L8.23837 -41.9598
L8.35509 -42.4453
L8.48022 -42.9288
L8.61374 -43.4102
L8.7556 -43.8894
L8.90576 -44.3662
L9.06417 -44.8404
L9.23079 -45.3119
L9.40556 -45.7806
L9.58843 -46.2463
L9.77935 -46.7088
L9.97825 -47.1681
L10.1851 -47.6241
L10.3998 -48.0764
L10.6223 -48.5251
L10.8525 -48.97
L11.0904 -49.4109
L11.3358 -49.8478
L11.5888 -50.2804
L11.8493 -50.7087
L12.117 -51.1325
L12.3921 -51.5516
L12.6743 -51.9661
L12.9637 -52.3757
L13.26 -52.7803
L13.5633 -53.1798
L13.8734 -53.574
L14.1903 -53.9629
L14.5138 -54.3463
L14.8439 -54.7242
L15.1804 -55.0963
L15.5232 -55.4626
L15.8723 -55.823
L16.2275 -56.1774
L16.5887 -56.5256
L16.9559 -56.8675
L17.3288 -57.2031
L17.7075 -57.5322
L18.0917 -57.8548
L18.4813 -58.1707
L18.8763 -58.4799
L19.2765 -58.7822
L19.6818 -59.0776
L20.0921 -59.366
L20.5072 -59.6472
L20.9271 -59.9212
L21.3515 -60.188
L21.7804 -60.4473
L22.2136 -60.6993
L22.6511 -60.9437
L23.0926 -61.1805
L23.538 -61.4096
L23.9872 -61.631
L24.4401 -61.8446
L24.8965 -62.0503
L25.3563 -62.2481
L25.8193 -62.4379
L26.2854 -62.6196
L26.7545 -62.7932
L27.2264 -62.9587
L27.701 -63.1159
L28.1781 -63.2649
L28.6576 -63.4056
L29.1393 -63.538
L29.6231 -63.6619
L30.1089 -63.7774
L30.5964 -63.8845
L31.0856 -63.9831
L31.5763 -64.0731
z
" id="C0_1_237d1b3a8b"/>
     <path d="
M64.2824 -39.1659
L64.1929 -38.8855
L64.1003 -38.6067
L64.0046 -38.3293
L63.9058 -38.0532
L63.8039 -37.7785
L63.699 -37.5051
L63.5909 -37.2329
L63.4797 -36.9618
L63.3654 -36.6918
L63.248 -36.4229
L63.1274 -36.1549
L63.0037 -35.8879
L62.8767 -35.6218
L62.7466 -35.3565
L62.6132 -35.092
L62.4766 -34.8283
L62.3366 -34.5653
L62.1933 -34.3029
L62.0466 -34.0412
L61.8966 -33.78
L61.743 -33.5194
L61.586 -33.2593
L61.4254 -32.9998
L61.2612 -32.7406
L61.0933 -32.4819
L60.9218 -32.2236
L60.7465 -31.9657
L60.5674 -31.7081
L60.3844 -31.4509
L60.1975 -31.194
L60.0067 -30.9374
L59.8118 -30.6811
L59.6127 -30.425
L59.4096 -30.1692
L59.2021 -29.9137
L58.9905 -29.6585
L58.7744 -29.4035
L58.554 -29.1488
L58.329 -28.8943
L58.0996 -28.6402
L57.8656 -28.3863
L57.6269 -28.1327
L57.3835 -27.8795
L57.1354 -27.6266
L56.8826 -27.374
L56.6248 -27.1219
L56.3623 -26.8702
L56.0948 -26.6189
L55.8224 -26.3682
L55.5451 -26.1179
L55.2629 -25.8683
L54.9757 -25.6192
L54.6836 -25.3708
L54.3866 -25.1232
L54.0847 -24.8762
L53.778 -24.6301
L53.4665 -24.3848
L53.1504 -24.1403
L52.8296 -23.8969
L52.5045 -23.6543
L52.175 -23.4128
L51.8414 -23.1723
L51.5039 -22.9329
L51.1626 -22.6946
L50.8179 -22.4573
L50.47 -22.2211
L50.1193 -21.986
L49.7661 -21.7519
L49.4108 -21.5187
L49.0538 -21.2865
L48.6958 -21.055
L48.3371 -20.8242
L47.9785 -20.5939
L47.6206 -20.364
L47.264 -20.1341
L46.9096 -19.904
L46.5581 -19.6735
L46.2105 -19.4422
L45.8675 -19.2098
L45.5302 -18.9758
L45.1995 -18.7399
L44.8763 -18.5015
L44.5617 -18.2603
L44.2564 -18.0159
L43.9615 -17.7678
L43.6776 -17.5156
L43.4054 -17.259
L43.1456 -16.9978
L42.8984 -16.7318
L42.6642 -16.4609
L42.4431 -16.1851
L42.235 -15.9046
L42.0397 -15.6195
L41.8569 -15.3301
L41.686 -15.0369
L41.5267 -14.7401
L41.3783 -14.4404
L41.2402 -14.1382
L41.1116 -13.8341
L40.992 -13.5284
L40.8806 -13.2219
L40.7768 -12.915
L40.68 -12.6081
L40.5897 -12.3017
L40.5051 -11.9964
L40.426 -11.6923
L40.3516 -11.3901
L40.2818 -11.0899
L40.2159 -10.792
L40.1537 -10.4969
L40.0948 -10.2046
L40.039 -9.91551
L39.9859 -9.6297
L39.9352 -9.34738
L39.8869 -9.06869
L39.8406 -8.79375
L39.7962 -8.52267
L39.7534 -8.25553
L40.2373 -7.99241
L40.7285 -7.81675
L41.2183 -7.89499
L41.7065 -7.9818
L42.1929 -8.07714
L42.6775 -8.18098
L43.16 -8.2933
L43.6404 -8.41406
L44.1184 -8.54322
L44.5939 -8.68074
L45.0669 -8.82659
L45.537 -8.98071
L46.0043 -9.14306
L46.4685 -9.3136
L46.9295 -9.49226
L47.3872 -9.679
L47.8415 -9.87376
L48.2921 -10.0765
L48.739 -10.2871
L49.182 -10.5055
L49.621 -10.7317
L50.0558 -10.9656
L50.4864 -11.2072
L50.9125 -11.4563
L51.3341 -11.7128
L51.751 -11.9768
L52.1632 -12.248
L52.5704 -12.5266
L52.9725 -12.8122
L53.3695 -13.1049
L53.7612 -13.4046
L54.1475 -13.7112
L54.5283 -14.0246
L54.9034 -14.3447
L55.2727 -14.6713
L55.6362 -15.0045
L55.9937 -15.344
L56.3451 -15.6899
L56.6904 -16.0419
L57.0293 -16.4
L57.3618 -16.7641
L57.6878 -17.134
L58.0072 -17.5097
L58.3199 -17.891
L58.6258 -18.2779
L58.9248 -18.6701
L59.2168 -19.0676
L59.5017 -19.4703
L59.7795 -19.878
L60.0501 -20.2906
L60.3133 -20.708
L60.5691 -21.1301
L60.8174 -21.5567
L61.0582 -21.9877
L61.2913 -22.4229
L61.5168 -22.8623
L61.7344 -23.3057
L61.9442 -23.753
L62.1462 -24.204
L62.3401 -24.6586
L62.526 -25.1166
L62.7039 -25.578
L62.8736 -26.0425
L63.0351 -26.5101
L63.1884 -26.9805
L63.3334 -27.4537
L63.4701 -27.9295
L63.5985 -28.4078
L63.7184 -28.8884
L63.8298 -29.3711
L63.9328 -29.8559
L64.0273 -30.3425
L64.1133 -30.8308
L64.1906 -31.3208
L64.2594 -31.8121
L64.3196 -32.3048
L64.3712 -32.7985
L64.4141 -33.2933
L64.4484 -33.7888
L64.474 -34.285
L64.4909 -34.7818
L64.4991 -35.2789
L64.4987 -35.7763
L64.4896 -36.2737
L64.4718 -36.771
L64.4453 -37.2681
L64.4102 -37.7648
z
" id="C0_2_fd7bd3553e"/>
    </defs>
    <g clip-path="url(#p1bffca34e9)">
     <use style="fill:#ff0000;stroke:#000000;stroke-width:2.0;" x="0.0" xlink:href="#C0_0_a811fe30f3" y="72.0"/>
    </g>
    <g clip-path="url(#p1bffca34e9)">
     <use style="fill:#ffffff;stroke:#000000;stroke-width:2.0;" x="0.0" xlink:href="#C0_1_237d1b3a8b" y="72.0"/>
    </g>
    <g clip-path="url(#p1bffca34e9)">
     <use style="fill:#ffffff;stroke:#000000;stroke-width:2.0;" x="0.0" xlink:href="#C0_2_fd7bd3553e" y="72.0"/>
    </g>
   </g>
  </g>
 </g>
 <defs>
  <clipPath id="p1bffca34e9">
   <rect height="72.0" width="72.0" x="0.0" y="0.0"/>
  </clipPath>
 </defs>
</svg>
