<?xml version="1.0" encoding="utf-8" standalone="no"?>
<!DOCTYPE svg PUBLIC "-//W3C//DTD SVG 1.1//EN"
  "http://www.w3.org/Graphics/SVG/1.1/DTD/svg11.dtd">
<!-- Created with matplotlib (http://matplotlib.org/) -->
<svg height="72pt" version="1.1" viewBox="0 0 72 72" width="72pt" xmlns="http://www.w3.org/2000/svg" xmlns:xlink="http://www.w3.org/1999/xlink">
 <defs>
  <style type="text/css">
*{stroke-linecap:butt;stroke-linejoin:round;}
  </style>
 </defs>
 <g id="figure_1">
  <g id="patch_1">
   <path d="
M0 72
L72 72
L72 0
L0 0
z
" style="fill:none;"/>
  </g>
  <g id="axes_1">
   <g id="PatchCollection_1">
    <defs>
     <path d="
M36 -7.5
C43.5583 -7.5 50.808 -10.5029 56.1525 -15.8475
C61.4971 -21.192 64.5 -28.4417 64.5 -36
C64.5 -43.5583 61.4971 -50.808 56.1525 -56.1525
C50.808 -61.4971 43.5583 -64.5 36 -64.5
C28.4417 -64.5 21.192 -61.4971 15.8475 -56.1525
C10.5029 -50.808 7.5 -43.5583 7.5 -36
C7.5 -28.4417 10.5029 -21.192 15.8475 -15.8475
C21.192 -10.5029 28.4417 -7.5 36 -7.5
z
" id="C0_0_a811fe30f3"/>
     <path d="
M38.9529 -31.4511
L39.089 -31.6653
L39.2245 -31.8801
L39.3595 -32.0954
L39.494 -32.3114
L39.628 -32.528
L39.7615 -32.7453
L39.8946 -32.9635
L40.0273 -33.1825
L40.1597 -33.4023
L40.2917 -33.6231
L40.4234 -33.8449
L40.5548 -34.0677
L40.6859 -34.2916
L40.8167 -34.5167
L40.9473 -34.743
L41.0777 -34.9705
L41.2079 -35.1994
L41.338 -35.4296
L41.4678 -35.6613
L41.5975 -35.8945
L41.7271 -36.1292
L41.8566 -36.3656
L41.9859 -36.6036
L42.1151 -36.8433
L42.2443 -37.0848
L42.3733 -37.3282
L42.5023 -37.5735
L42.6312 -37.8208
L42.76 -38.07
L42.8888 -38.3214
L43.0174 -38.5749
L43.146 -38.8306
L43.2745 -39.0886
L43.4029 -39.3489
L43.5311 -39.6116
L43.6592 -39.8767
L43.7872 -40.1444
L43.915 -40.4145
L44.0426 -40.6873
L44.1699 -40.9627
L44.297 -41.2408
L44.4238 -41.5217
L44.5502 -41.8053
L44.6762 -42.0918
L44.8018 -42.3812
L44.9268 -42.6735
L45.0513 -42.9687
L45.1751 -43.2669
L45.2982 -43.5681
L45.4204 -43.8724
L45.5417 -44.1796
L45.662 -44.49
L45.7811 -44.8034
L45.899 -45.1198
L46.0155 -45.4393
L46.1304 -45.7618
L46.2435 -46.0873
L46.3548 -46.4157
L46.464 -46.7471
L46.5709 -47.0814
L46.6752 -47.4185
L46.7768 -47.7583
L46.8754 -48.1007
L46.9706 -48.4457
L47.0621 -48.7931
L47.1497 -49.1428
L47.2329 -49.4946
L47.3113 -49.8484
L47.3844 -50.204
L47.4518 -50.5612
L47.5129 -50.9197
L47.5672 -51.2794
L47.6139 -51.6399
L47.6524 -52.0009
L47.6818 -52.3621
L47.7013 -52.7231
L47.71 -53.0835
L47.7068 -53.4429
L47.6907 -53.8007
L47.6603 -54.1565
L47.6145 -54.5096
L47.5519 -54.8595
L47.4711 -55.2053
L47.3707 -55.5464
L47.2494 -55.882
L47.1059 -56.2112
L46.9389 -56.5332
L46.7477 -56.8471
L46.5315 -57.1521
L46.29 -57.4473
L46.0233 -57.7319
L45.7317 -58.0053
L45.416 -58.2667
L45.0774 -58.5157
L44.717 -58.7518
L44.3366 -58.9747
L43.9378 -59.184
L43.5223 -59.3798
L43.092 -59.5618
L42.6487 -59.7301
L42.194 -59.8846
L41.7295 -60.0256
L41.2569 -60.1532
L40.7775 -60.2675
L40.2926 -60.3687
L39.8035 -60.457
L39.3113 -60.5329
L38.817 -60.5964
L38.3216 -60.6479
L37.8259 -60.6878
L37.3306 -60.7162
L36.8366 -60.7337
L36.3443 -60.7404
L35.8543 -60.7367
L35.3673 -60.7229
L34.8835 -60.6995
L34.4035 -60.6667
L33.9276 -60.6248
L33.456 -60.5742
L32.9892 -60.5153
L32.5273 -60.4482
L32.0706 -60.3735
L31.6191 -60.2912
L31.1732 -60.2019
L30.7329 -60.1056
L30.2982 -60.0029
L29.8694 -59.8938
L29.4465 -59.7787
L29.0294 -59.6578
L28.6183 -59.5315
L28.2132 -59.3998
L27.814 -59.2631
L27.4208 -59.1216
L27.0335 -58.9754
L26.6521 -58.8248
L26.2766 -58.67
L25.9069 -58.5111
L25.5429 -58.3484
L25.1847 -58.1819
L24.8321 -58.0119
L24.485 -57.8384
L24.1435 -57.6616
L23.8074 -57.4817
L23.4766 -57.2988
L23.1511 -57.1129
L22.8308 -56.9242
L22.5156 -56.7328
L22.2054 -56.5387
L21.9001 -56.3421
L21.5996 -56.143
L21.304 -55.9416
L21.0129 -55.7378
L20.7265 -55.5317
L20.4446 -55.3234
L20.1671 -55.1129
L19.8939 -54.9003
L19.625 -54.6856
L19.3602 -54.4689
L19.0996 -54.2501
L18.8429 -54.0293
L18.5903 -53.8066
L18.3415 -53.5818
L18.0965 -53.3552
L17.8552 -53.1265
L17.6176 -52.896
L17.3837 -52.6635
L17.1532 -52.429
L16.9263 -52.1926
L16.7028 -51.9543
L16.4827 -51.7139
L16.2659 -51.4716
L16.0524 -51.2273
L15.8421 -50.981
L15.635 -50.7326
L15.431 -50.4821
L15.2302 -50.2296
L15.0324 -49.9749
L14.8377 -49.7181
L14.6459 -49.459
L14.4572 -49.1977
L14.2714 -48.9342
L14.0886 -48.6683
L13.9087 -48.4
L13.7316 -48.1293
L13.5575 -47.8562
L13.3863 -47.5805
L13.2179 -47.3023
L13.0525 -47.0214
L12.8899 -46.7379
L12.7302 -46.4516
L12.5734 -46.1626
L12.4195 -45.8706
L12.2685 -45.5758
L12.1205 -45.278
L11.9755 -44.9771
L11.8335 -44.6731
L11.6945 -44.3659
L11.5586 -44.0554
L11.4258 -43.7416
L11.2962 -43.4244
L11.1699 -43.1037
L11.0468 -42.7795
L10.927 -42.4517
L10.8107 -42.1202
L10.6979 -41.7849
L10.5887 -41.4457
L10.4831 -41.1027
L10.3812 -40.7556
L10.2832 -40.4045
L10.1892 -40.0492
L10.0993 -39.6898
L10.0135 -39.3261
L9.93204 -38.958
L9.85504 -38.5856
L9.78263 -38.2086
L9.71496 -37.8272
L9.65219 -37.4412
L9.59448 -37.0506
L9.542 -36.6553
L9.49494 -36.2553
L9.45348 -35.8505
L9.41781 -35.4411
L9.38815 -35.0268
L9.36471 -34.6077
L9.34771 -34.1839
L9.33738 -33.7553
L9.33395 -33.322
L9.33767 -32.8839
L9.3488 -32.4412
L9.36759 -31.9939
L9.39431 -31.5422
L9.42923 -31.086
L9.47263 -30.6255
L9.52479 -30.1609
L9.586 -29.6923
L9.65653 -29.2199
L9.73668 -28.744
L9.82675 -28.2648
L9.927 -27.7825
L10.0377 -27.2974
L10.1592 -26.81
L10.2917 -26.3206
L10.4355 -25.8296
L10.5908 -25.3374
L10.7579 -24.8447
L10.9369 -24.3519
L11.1281 -23.8596
L11.3316 -23.3686
L11.5475 -22.8795
L11.7759 -22.3931
L12.0169 -21.9103
L12.2704 -21.432
L12.5364 -20.9592
L12.8148 -20.493
L13.1054 -20.0345
L13.4079 -19.5849
L13.722 -19.1456
L14.0472 -18.718
L14.3829 -18.3036
L14.7286 -17.904
L15.0835 -17.5207
L15.4468 -17.1556
L15.8174 -16.8103
L16.1943 -16.4865
L16.5763 -16.1858
L16.9622 -15.9098
L17.3509 -15.6599
L17.7409 -15.437
L18.1312 -15.2421
L18.5205 -15.0756
L18.9079 -14.9376
L19.2923 -14.8279
L19.6732 -14.7456
L20.0497 -14.69
L20.4216 -14.6597
L20.7885 -14.6534
L21.1502 -14.6695
L21.5066 -14.7065
L21.8577 -14.7627
L22.2034 -14.8365
L22.5439 -14.9266
L22.8793 -15.0313
L23.2096 -15.1494
L23.535 -15.2797
L23.8555 -15.421
L24.1713 -15.5722
L24.4825 -15.7325
L24.7891 -15.9008
L25.0913 -16.0765
L25.3891 -16.2588
L25.6826 -16.447
L25.9719 -16.6405
L26.2571 -16.8388
L26.5381 -17.0413
L26.8152 -17.2476
L27.0882 -17.4573
L27.3574 -17.6699
L27.6226 -17.8852
L27.8841 -18.1027
L28.1419 -18.3223
L28.3959 -18.5436
L28.6463 -18.7663
L28.8932 -18.9902
L29.1365 -19.2152
L29.3764 -19.4411
L29.6128 -19.6675
L29.8459 -19.8945
L30.0757 -20.1219
L30.3023 -20.3494
L30.5257 -20.5771
L30.7461 -20.8048
L30.9633 -21.0324
L31.1776 -21.2598
L31.389 -21.4869
L31.5975 -21.7138
L31.8032 -21.9402
L32.0062 -22.1663
L32.2065 -22.3918
L32.4042 -22.6168
L32.5993 -22.8413
L32.792 -23.0652
L32.9822 -23.2885
L33.1701 -23.5113
L33.3557 -23.7333
L33.539 -23.9548
L33.7201 -24.1756
L33.8992 -24.3959
L34.0761 -24.6154
L34.251 -24.8344
L34.424 -25.0528
L34.5951 -25.2705
L34.7643 -25.4877
L34.9318 -25.7044
L35.0975 -25.9205
L35.2615 -26.136
L35.424 -26.3511
L35.5848 -26.5657
L35.7441 -26.7799
L35.9019 -26.9936
L36.0583 -27.207
L36.2133 -27.4201
L36.3669 -27.6328
L36.5193 -27.8452
L36.6704 -28.0574
L36.8204 -28.2694
L36.9691 -28.4812
L37.1168 -28.6928
L37.2634 -28.9044
L37.4089 -29.1159
L37.5535 -29.3274
L37.6971 -29.5389
L37.8398 -29.7505
L37.9816 -29.9623
L38.1226 -30.1741
L38.2628 -30.3862
L38.4022 -30.5985
L38.5409 -30.8111
L38.6789 -31.024
z
" id="C0_1_479fa91318"/>
    </defs>
    <g clip-path="url(#p1bffca34e9)">
     <use style="fill:#ffffff;stroke:#000000;stroke-width:2.0;" x="0.0" xlink:href="#C0_0_a811fe30f3" y="72.0"/>
    </g>
    <g clip-path="url(#p1bffca34e9)">
     <use style="fill:#ff0000;stroke:#000000;stroke-width:2.0;" x="0.0" xlink:href="#C0_1_479fa91318" y="72.0"/>
    </g>
   </g>
  </g>
 </g>
 <defs>
  <clipPath id="p1bffca34e9">
   <rect height="72.0" width="72.0" x="0.0" y="0.0"/>
  </clipPath>
 </defs>
</svg>
