<?xml version="1.0" encoding="utf-8" standalone="no"?>
<!DOCTYPE svg PUBLIC "-//W3C//DTD SVG 1.1//EN"
  "http://www.w3.org/Graphics/SVG/1.1/DTD/svg11.dtd">
<!-- Created with matplotlib (http://matplotlib.org/) -->
<svg height="72pt" version="1.1" viewBox="0 0 72 72" width="72pt" xmlns="http://www.w3.org/2000/svg" xmlns:xlink="http://www.w3.org/1999/xlink">
 <defs>
  <style type="text/css">
*{stroke-linecap:butt;stroke-linejoin:round;}
  </style>
 </defs>
 <g id="figure_1">
  <g id="patch_1">
   <path d="
M0 72
L72 72
L72 0
L0 0
z
" style="fill:none;"/>
  </g>
  <g id="axes_1">
   <g id="PatchCollection_1">
    <defs>
     <path d="
M36 -7.5
C43.5583 -7.5 50.808 -10.5029 56.1525 -15.8475
C61.4971 -21.192 64.5 -28.4417 64.5 -36
C64.5 -43.5583 61.4971 -50.808 56.1525 -56.1525
C50.808 -61.4971 43.5583 -64.5 36 -64.5
C28.4417 -64.5 21.192 -61.4971 15.8475 -56.1525
C10.5029 -50.808 7.5 -43.5583 7.5 -36
C7.5 -28.4417 10.5029 -21.192 15.8475 -15.8475
C21.192 -10.5029 28.4417 -7.5 36 -7.5
z
" id="C0_0_a811fe30f3"/>
     <path d="
M8.83477 -27.731
L9.00046 -27.9172
L9.1669 -28.1018
L9.33406 -28.2849
L9.50191 -28.4664
L9.67041 -28.6463
L9.83954 -28.8246
L10.0093 -29.0014
L10.1796 -29.1766
L10.3504 -29.3504
L10.5218 -29.5226
L10.6937 -29.6933
L10.8662 -29.8626
L11.0391 -30.0304
L11.2124 -30.1969
L11.3863 -30.362
L11.5606 -30.5257
L11.7354 -30.6881
L11.9107 -30.8492
L12.0864 -31.0091
L12.2626 -31.1678
L12.4393 -31.3253
L12.6164 -31.4816
L12.794 -31.6369
L12.9722 -31.791
L13.1508 -31.9441
L13.3299 -32.0962
L13.5096 -32.2474
L13.6898 -32.3976
L13.8706 -32.5468
L14.052 -32.6953
L14.234 -32.8429
L14.4166 -32.9896
L14.5999 -33.1357
L14.7838 -33.281
L14.9685 -33.4256
L15.1538 -33.5695
L15.34 -33.7128
L15.5269 -33.8555
L15.7146 -33.9977
L15.9031 -34.1393
L16.0925 -34.2804
L16.2829 -34.4211
L16.6664 -34.5613
L16.8596 -34.7012
L17.0539 -34.8407
L17.2493 -34.9798
L17.4458 -35.1186
L17.6434 -35.2572
L17.8423 -35.3955
L18.0424 -35.5336
L18.2438 -35.6716
L18.4465 -35.8093
L18.6506 -35.947
L18.856 -36.0845
L19.063 -36.222
L19.2714 -36.3595
L19.4814 -36.497
L19.693 -36.6344
L19.9062 -36.772
L20.1211 -36.9096
L20.3378 -37.0473
L20.5562 -37.1851
L20.7765 -37.3231
L20.9987 -37.4613
L21.2228 -37.5997
L21.4488 -37.7384
L21.6769 -37.8773
L21.9071 -38.0165
L22.1395 -38.156
L22.374 -38.2958
L22.6107 -38.436
L22.8497 -38.5766
L23.0911 -38.7176
L23.3348 -38.859
L23.581 -39.0009
L23.8296 -39.1433
L24.0807 -39.2862
L24.3344 -39.4295
L24.5907 -39.5735
L24.8497 -39.718
L25.1113 -39.8631
L25.3756 -40.0087
L25.6426 -40.155
L25.9125 -40.302
L26.1851 -40.4496
L26.4605 -40.5979
L26.7388 -40.7469
L27.0199 -40.8966
L27.3039 -41.0471
L27.5907 -41.1983
L27.8803 -41.3502
L28.1728 -41.503
L28.468 -41.6566
L28.7661 -41.811
L29.0668 -41.9662
L29.3703 -42.1223
L29.6763 -42.2794
L29.9849 -42.4373
L30.2959 -42.5962
L30.6093 -42.756
L30.9249 -42.9169
L31.2426 -43.0788
L31.5622 -43.2417
L31.8835 -43.4058
L32.2064 -43.571
L32.5306 -43.7375
L32.856 -43.9053
L33.1821 -44.0744
L33.5087 -44.2449
L33.8355 -44.4169
L34.1621 -44.5906
L34.4882 -44.766
L34.8132 -44.9433
L35.1367 -45.1226
L35.4583 -45.304
L35.7772 -45.4877
L36.0931 -45.674
L36.4052 -45.8631
L36.7128 -46.0551
L37.0153 -46.2503
L37.312 -46.449
L37.6019 -46.6515
L37.8844 -46.8581
L38.1587 -47.0692
L38.4238 -47.2849
L38.6791 -47.5056
L38.9236 -47.7317
L39.1566 -47.9635
L39.3774 -48.2011
L39.5853 -48.4449
L39.7798 -48.6951
L39.9602 -48.9517
L40.1263 -49.2148
L40.2777 -49.4845
L40.4142 -49.7607
L40.5359 -50.0432
L40.6426 -50.3317
L40.7346 -50.6261
L40.8121 -50.9259
L40.8755 -51.2307
L40.9251 -51.54
L40.9613 -51.8534
L40.9847 -52.1703
L40.9958 -52.4902
L40.995 -52.8125
L40.983 -53.1367
L40.9603 -53.4623
L40.9274 -53.7886
L40.8848 -54.1152
L40.8331 -54.4417
L40.7728 -54.7675
L40.7042 -55.0923
L40.6279 -55.4156
L40.5443 -55.7372
L40.4538 -56.0565
L40.3568 -56.3733
L40.2536 -56.6874
L40.1445 -56.9985
L40.03 -57.3064
L39.9102 -57.6107
L39.7855 -57.9114
L39.6561 -58.2083
L39.5222 -58.5013
L39.3842 -58.7902
L39.2422 -59.0749
L39.0964 -59.3553
L38.947 -59.6313
L38.7942 -59.903
L38.6381 -60.1702
L38.4789 -60.4328
L38.3167 -60.6909
L38.1517 -60.9445
L37.984 -61.1935
L37.8136 -61.438
L37.6408 -61.6778
L37.4655 -61.9132
L37.2879 -62.1439
L37.1081 -62.3702
L36.9261 -62.592
L36.7419 -62.8093
L36.5558 -63.0221
L36.3676 -63.2306
L36.1774 -63.4347
L35.9853 -63.6345
L35.7914 -63.83
L35.5956 -64.0212
L35.3979 -64.2083
L34.8986 -64.3911
L34.4017 -64.4787
L33.9054 -64.4551
L33.4096 -64.4229
L32.9147 -64.382
L32.4207 -64.3325
L31.9278 -64.2743
L31.4361 -64.2076
L30.9458 -64.1322
L30.4571 -64.0483
L29.97 -63.9558
L29.4848 -63.8548
L29.0016 -63.7453
L28.5205 -63.6274
L28.0417 -63.501
L27.5653 -63.3663
L27.0914 -63.2233
L26.6203 -63.0719
L26.1521 -62.9123
L25.6868 -62.7445
L25.2247 -62.5686
L24.7659 -62.3845
L24.3105 -62.1924
L23.8586 -61.9924
L23.4105 -61.7844
L22.9661 -61.5686
L22.5258 -61.345
L22.0896 -61.1137
L21.6576 -60.8747
L21.2299 -60.6281
L20.8068 -60.3741
L20.3883 -60.1126
L19.9745 -59.8437
L19.5656 -59.5676
L19.1618 -59.2844
L18.763 -58.994
L18.3696 -58.6966
L17.9814 -58.3924
L17.5988 -58.0813
L17.2218 -57.7634
L16.8505 -57.439
L16.485 -57.108
L16.1255 -56.7706
L15.772 -56.4268
L15.4247 -56.0768
L15.0837 -55.7208
L14.749 -55.3587
L14.4208 -54.9907
L14.0992 -54.6169
L13.7842 -54.2375
L13.4761 -53.8525
L13.1747 -53.462
L12.8804 -53.0663
L12.593 -52.6653
L12.3128 -52.2593
L12.0399 -51.8483
L11.7742 -51.4325
L11.5159 -51.012
L11.265 -50.5869
L11.0217 -50.1574
L10.786 -49.7235
L10.558 -49.2855
L10.3377 -48.8434
L10.1252 -48.3974
L9.92067 -47.9477
L9.72404 -47.4943
L9.53541 -47.0374
L9.35485 -46.5771
L9.1824 -46.1136
L9.01812 -45.6471
L8.86206 -45.1776
L8.71426 -44.7053
L8.57478 -44.2303
L8.44365 -43.7529
L8.32091 -43.2731
L8.20661 -42.791
L8.10077 -42.3069
L8.00343 -41.8209
L7.91462 -41.3331
L7.83436 -40.8437
L7.76269 -40.3528
L7.69961 -39.8606
L7.64516 -39.3672
L7.59934 -38.8728
L7.56217 -38.3775
L7.53367 -37.8814
L7.51383 -37.3848
L7.50268 -36.8878
L7.5002 -36.3905
L7.50641 -35.8931
L7.52129 -35.3958
L7.54485 -34.8986
L7.57708 -34.4017
L7.61796 -33.9054
L7.6675 -33.4096
L7.72566 -32.9147
L7.79243 -32.4207
L7.8678 -31.9278
L7.95173 -31.4361
L8.04421 -30.9458
L8.14521 -30.4571
L8.25469 -29.97
L8.37262 -29.4848
L8.49897 -29.0016
z
" id="C0_1_5fd3ac2b54"/>
     <path d="
M36.797 -7.59252
L36.9844 -7.78161
L37.1688 -7.97154
L37.3503 -8.16227
L37.5289 -8.35378
L37.7047 -8.54603
L37.8777 -8.73901
L38.048 -8.93268
L38.2157 -9.12704
L38.3809 -9.32207
L38.5437 -9.51776
L38.704 -9.7141
L38.862 -9.91109
L39.0177 -10.1087
L39.1711 -10.307
L39.3225 -10.5059
L39.4717 -10.7055
L39.6189 -10.9058
L39.7641 -11.1067
L39.9074 -11.3083
L40.0488 -11.5105
L40.1884 -11.7135
L40.3262 -11.9173
L40.4623 -12.1218
L40.5968 -12.327
L40.7296 -12.533
L40.8608 -12.7399
L40.9905 -12.9476
L41.1187 -13.1561
L41.2455 -13.3656
L41.3708 -13.576
L41.4948 -13.7873
L41.6174 -13.9996
L41.7388 -14.213
L41.8588 -14.4274
L41.9777 -14.6429
L42.0954 -14.8595
L42.2119 -15.0774
L42.3272 -15.2964
L42.4415 -15.5167
L42.5547 -15.7382
L42.6669 -15.9611
L42.778 -16.1854
L42.8882 -16.4111
L42.9974 -16.6383
L43.1056 -16.867
L43.2129 -17.0973
L43.3194 -17.3292
L43.4249 -17.5628
L43.5296 -17.798
L43.6335 -18.0351
L43.7365 -18.2739
L43.8387 -18.5147
L43.9401 -18.7573
L44.0408 -19.002
L44.1407 -19.2486
L44.2398 -19.4974
L44.3383 -19.7483
L44.4359 -20.0013
L44.5329 -20.2567
L44.6292 -20.5143
L44.7247 -20.7743
L44.8196 -21.0368
L44.9138 -21.3017
L45.0073 -21.5691
L45.1001 -21.8391
L45.1922 -22.1118
L45.2837 -22.3872
L45.3745 -22.6653
L45.4647 -22.9462
L45.5542 -23.2299
L45.643 -23.5165
L45.7311 -23.8061
L45.8186 -24.0987
L45.9055 -24.3943
L45.9916 -24.693
L46.0771 -24.9948
L46.162 -25.2997
L46.2461 -25.6078
L46.3296 -25.919
L46.4124 -26.2335
L46.4946 -26.5513
L46.5761 -26.8722
L46.6569 -27.1964
L46.7371 -27.5239
L46.8166 -27.8546
L46.8955 -28.1884
L46.9738 -28.5255
L47.0515 -28.8657
L47.1286 -29.209
L47.2051 -29.5553
L47.2811 -29.9046
L47.3566 -30.2568
L47.4317 -30.6118
L47.5064 -30.9694
L47.5808 -31.3295
L47.6549 -31.6921
L47.7289 -32.0568
L47.8028 -32.4236
L47.8768 -32.7922
L47.951 -33.1624
L48.0256 -33.534
L48.1006 -33.9066
L48.1764 -34.2799
L48.2531 -34.6536
L48.331 -35.0274
L48.4104 -35.4009
L48.4915 -35.7735
L48.5747 -36.1449
L48.6604 -36.5146
L48.749 -36.8821
L48.8408 -37.2467
L48.9364 -37.608
L49.0362 -37.9652
L49.1408 -38.3178
L49.2508 -38.6651
L49.3666 -39.0065
L49.4888 -39.3412
L49.618 -39.6686
L49.7547 -39.9881
L49.8995 -40.2989
L50.0528 -40.6005
L50.215 -40.8924
L50.3864 -41.174
L50.5674 -41.4449
L50.7581 -41.7048
L50.9584 -41.9533
L51.1685 -42.1903
L51.3881 -42.4157
L51.6169 -42.6294
L51.8548 -42.8315
L52.1011 -43.0221
L52.3554 -43.2013
L52.6173 -43.3695
L52.886 -43.5269
L53.1609 -43.6737
L53.4415 -43.8103
L53.7271 -43.937
L54.017 -44.0542
L54.3106 -44.1623
L54.6073 -44.2615
L54.9066 -44.3523
L55.2078 -44.4349
L55.5105 -44.5096
L55.8142 -44.5768
L56.1184 -44.6368
L56.4227 -44.6898
L56.7266 -44.7361
L57.0299 -44.776
L57.3323 -44.8096
L57.6333 -44.8373
L57.9328 -44.8592
L58.2304 -44.8756
L58.5261 -44.8865
L58.8195 -44.8923
L59.1106 -44.8931
L59.3991 -44.889
L59.6849 -44.8801
L59.968 -44.8668
L60.2481 -44.849
L60.5252 -44.8268
L60.7993 -44.8006
L61.0703 -44.7702
L61.3381 -44.7359
L61.6028 -44.6977
L61.8641 -44.6558
L62.1223 -44.6101
L62.3772 -44.5609
L62.6288 -44.5082
L62.8771 -44.452
L63.3693 -44.3924
L63.5038 -43.9482
L63.63 -43.4693
L63.7477 -42.9882
L63.857 -42.5049
L63.9578 -42.0197
L64.0501 -41.5326
L64.1339 -41.0438
L64.2091 -40.5535
L64.2757 -40.0618
L64.3336 -39.5689
L64.383 -39.0748
L64.4237 -38.5799
L64.4557 -38.0841
L64.4791 -37.5877
L64.4938 -37.0909
L64.4998 -36.5937
L64.4972 -36.0963
L64.4858 -35.5989
L64.4658 -35.1016
L64.4371 -34.6046
L64.3998 -34.108
L64.3538 -33.612
L64.2991 -33.1167
L64.2359 -32.6223
L64.164 -32.129
L64.0836 -31.6368
L63.9946 -31.1459
L63.8971 -30.6565
L63.7911 -30.1688
L63.6766 -29.6828
L63.5537 -29.1987
L63.4223 -28.7167
L63.2827 -28.237
L63.1347 -27.7596
L62.9785 -27.2847
L62.814 -26.8124
L62.6414 -26.343
L62.4607 -25.8765
L62.2719 -25.4131
L62.0751 -24.9529
L61.8703 -24.4961
L61.6577 -24.0427
L61.4373 -23.5931
L61.2091 -23.1472
L60.9732 -22.7052
L60.7297 -22.2672
L60.4787 -21.8335
L60.2203 -21.4041
L59.9544 -20.9791
L59.6813 -20.5587
L59.4009 -20.1429
L59.1135 -19.7321
L58.8189 -19.3261
L58.5175 -18.9253
L58.2091 -18.5296
L57.8941 -18.1393
L57.5723 -17.7544
L57.244 -17.3751
L56.9091 -17.0015
L56.568 -16.6336
L56.2205 -16.2716
L55.8669 -15.9157
L55.5073 -15.5658
L55.1417 -15.2222
L54.7703 -14.8849
L54.3931 -14.5541
L54.0104 -14.2298
L53.6221 -13.9121
L53.2285 -13.6011
L52.8297 -13.297
L52.4257 -12.9998
L52.0168 -12.7095
L51.6029 -12.4264
L51.1843 -12.1505
L50.7611 -11.8818
L50.3333 -11.6205
L49.9012 -11.3666
L49.4649 -11.1202
L49.0245 -10.8814
L48.5801 -10.6502
L48.1318 -10.4267
L47.6799 -10.2111
L47.2244 -10.0033
L46.7655 -9.80339
L46.3033 -9.61149
L45.838 -9.42763
L45.3697 -9.25185
L44.8985 -9.08423
L44.4247 -8.92481
L43.9482 -8.77363
L43.4693 -8.63075
L42.9882 -8.4962
L42.5049 -8.37003
L42.0197 -8.25228
L41.5326 -8.14298
L41.0438 -8.04216
L40.5535 -7.94986
L40.0618 -7.86611
L39.5689 -7.79093
L39.0748 -7.72433
L38.5799 -7.66636
L38.0841 -7.61701
L37.5877 -7.57631
z
" id="C0_2_e2cedd9eba"/>
    </defs>
    <g clip-path="url(#p1bffca34e9)">
     <use style="fill:#ffffff;stroke:#000000;stroke-width:2.0;" x="0.0" xlink:href="#C0_0_a811fe30f3" y="72.0"/>
    </g>
    <g clip-path="url(#p1bffca34e9)">
     <use style="fill:#ff0000;stroke:#000000;stroke-width:2.0;" x="0.0" xlink:href="#C0_1_5fd3ac2b54" y="72.0"/>
    </g>
    <g clip-path="url(#p1bffca34e9)">
     <use style="fill:#ff0000;stroke:#000000;stroke-width:2.0;" x="0.0" xlink:href="#C0_2_e2cedd9eba" y="72.0"/>
    </g>
   </g>
  </g>
 </g>
 <defs>
  <clipPath id="p1bffca34e9">
   <rect height="72.0" width="72.0" x="0.0" y="0.0"/>
  </clipPath>
 </defs>
</svg>
