<?xml version="1.0" encoding="utf-8" standalone="no"?>
<!DOCTYPE svg PUBLIC "-//W3C//DTD SVG 1.1//EN"
  "http://www.w3.org/Graphics/SVG/1.1/DTD/svg11.dtd">
<!-- Created with matplotlib (http://matplotlib.org/) -->
<svg height="72pt" version="1.1" viewBox="0 0 72 72" width="72pt" xmlns="http://www.w3.org/2000/svg" xmlns:xlink="http://www.w3.org/1999/xlink">
 <defs>
  <style type="text/css">
*{stroke-linecap:butt;stroke-linejoin:round;}
  </style>
 </defs>
 <g id="figure_1">
  <g id="patch_1">
   <path d="
M0 72
L72 72
L72 0
L0 0
z
" style="fill:none;"/>
  </g>
  <g id="axes_1">
   <g id="PatchCollection_1">
    <defs>
     <path d="
M36 -7.5
C43.5583 -7.5 50.808 -10.5029 56.1525 -15.8475
C61.4971 -21.192 64.5 -28.4417 64.5 -36
C64.5 -43.5583 61.4971 -50.808 56.1525 -56.1525
C50.808 -61.4971 43.5583 -64.5 36 -64.5
C28.4417 -64.5 21.192 -61.4971 15.8475 -56.1525
C10.5029 -50.808 7.5 -43.5583 7.5 -36
C7.5 -28.4417 10.5029 -21.192 15.8475 -15.8475
C21.192 -10.5029 28.4417 -7.5 36 -7.5
z
" id="C0_0_a811fe30f3"/>
     <path d="
M60.0747 -51.1669
L59.8531 -51.0887
L59.6361 -50.9978
L59.4236 -50.8947
L59.2153 -50.7801
L59.0112 -50.6544
L58.8109 -50.5183
L58.6144 -50.3723
L58.4215 -50.217
L58.2319 -50.053
L58.0454 -49.8808
L57.8618 -49.701
L57.6809 -49.5141
L57.5026 -49.3207
L57.3266 -49.1211
L57.1528 -48.9159
L56.9809 -48.7056
L56.8108 -48.4906
L56.6424 -48.2712
L56.4755 -48.0479
L56.31 -47.8211
L56.1457 -47.5911
L55.9825 -47.3583
L55.8204 -47.1229
L55.6591 -46.8853
L55.4987 -46.6457
L55.3391 -46.4044
L55.1801 -46.1617
L55.0217 -45.9177
L54.8639 -45.6726
L54.7066 -45.4268
L54.5496 -45.1803
L54.3931 -44.9333
L54.237 -44.686
L54.0811 -44.4384
L53.9256 -44.1909
L53.7703 -43.9433
L53.6152 -43.696
L53.4603 -43.4489
L53.3056 -43.2022
L53.1511 -42.9559
L52.9967 -42.7101
L52.8424 -42.4649
L52.6883 -42.2204
L52.5342 -41.9765
L52.3803 -41.7334
L52.2264 -41.4911
L52.0726 -41.2495
L51.9188 -41.0088
L51.765 -40.769
L51.6113 -40.53
L51.4576 -40.292
L51.3039 -40.0548
L51.1502 -39.8186
L50.9965 -39.5833
L50.8427 -39.349
L50.6889 -39.1155
L50.535 -38.883
L50.3811 -38.6514
L50.2271 -38.4207
L50.073 -38.191
L49.9188 -37.9621
L49.7644 -37.734
L49.6099 -37.5069
L49.4553 -37.2805
L49.3005 -37.055
L49.1455 -36.8303
L48.9904 -36.6064
L48.835 -36.3832
L48.6794 -36.1607
L48.5235 -35.939
L48.3673 -35.7179
L48.2109 -35.4975
L48.0542 -35.2778
L47.8971 -35.0586
L47.7397 -34.84
L47.582 -34.622
L47.4238 -34.4044
L47.2653 -34.1874
L47.1063 -33.9708
L46.9469 -33.7547
L46.787 -33.5389
L46.6266 -33.3236
L46.4658 -33.1085
L46.1424 -32.8938
L45.9799 -32.6794
L45.8167 -32.4652
L45.653 -32.2512
L45.4886 -32.0375
L45.3235 -31.8238
L45.1577 -31.6103
L44.9913 -31.397
L44.824 -31.1836
L44.6561 -30.9704
L44.4873 -30.7571
L44.3177 -30.5438
L44.1473 -30.3304
L43.9761 -30.117
L43.804 -29.9035
L43.631 -29.6898
L43.457 -29.476
L43.2822 -29.262
L43.1063 -29.0478
L42.9295 -28.8333
L42.7517 -28.6185
L42.5729 -28.4035
L42.393 -28.1881
L42.2121 -27.9724
L42.0301 -27.7563
L41.847 -27.5398
L41.6628 -27.3229
L41.4776 -27.1056
L41.2912 -26.8878
L41.1036 -26.6695
L40.915 -26.4507
L40.7252 -26.2314
L40.5342 -26.0115
L40.3422 -25.7911
L40.1489 -25.5702
L39.9546 -25.3486
L39.7591 -25.1264
L39.5625 -24.9037
L39.3648 -24.6803
L39.166 -24.4562
L38.9662 -24.2315
L38.7653 -24.0062
L38.5635 -23.7801
L38.3607 -23.5534
L38.1569 -23.3261
L37.9524 -23.098
L37.747 -22.8693
L37.5409 -22.6398
L37.3341 -22.4097
L37.1267 -22.1789
L36.9188 -21.9474
L36.7106 -21.7152
L36.502 -21.4823
L36.2932 -21.2487
L36.0844 -21.0145
L35.8757 -20.7796
L35.6673 -20.544
L35.4592 -20.3077
L35.2517 -20.0708
L35.0451 -19.8332
L34.8393 -19.595
L34.6348 -19.3561
L34.4318 -19.1165
L34.2304 -18.8764
L34.031 -18.6356
L33.8339 -18.3941
L33.6394 -18.152
L33.4477 -17.9092
L33.2593 -17.6658
L33.0745 -17.4218
L32.8937 -17.177
L32.7173 -16.9316
L32.5456 -16.6856
L32.3792 -16.4388
L32.2185 -16.1913
L32.064 -15.943
L31.916 -15.6941
L31.7752 -15.4443
L31.642 -15.1938
L31.5168 -14.9426
L31.4003 -14.6905
L31.2928 -14.4377
L31.1949 -14.184
L31.1071 -13.9297
L31.0297 -13.6745
L30.9634 -13.4187
L30.9084 -13.1622
L30.8652 -12.9051
L30.8342 -12.6475
L30.8157 -12.3894
L30.8099 -12.131
L30.8172 -11.8724
L30.8378 -11.6137
L30.8717 -11.3552
L30.9193 -11.0969
L30.9804 -10.8391
L31.0553 -10.5821
L31.1438 -10.3259
L31.246 -10.071
L31.3617 -9.81751
L31.4909 -9.56573
L31.6333 -9.31596
L31.7889 -9.06847
L31.9573 -8.82356
L32.1385 -8.58152
L32.332 -8.34266
L32.5377 -8.10725
L33.0119 -7.87561
L33.507 -7.65708
L34.0029 -7.60924
L34.4994 -7.57006
L34.9963 -7.53953
L35.4935 -7.51768
L35.9909 -7.5045
L36.4883 -7.5
L36.9856 -7.50418
L37.4825 -7.51705
L37.979 -7.53858
L38.4749 -7.56879
L38.97 -7.60766
L39.4643 -7.65518
L39.9574 -7.71133
L40.4494 -7.7761
L40.94 -7.84946
L41.4291 -7.9314
L41.9166 -8.0219
L42.4023 -8.12091
L42.886 -8.22841
L43.3676 -8.34438
L43.8469 -8.46877
L44.3239 -8.60154
L44.7984 -8.74266
L45.2701 -8.89209
L45.739 -9.04977
L46.205 -9.21566
L46.6679 -9.38971
L47.1275 -9.57186
L47.5837 -9.76207
L48.0364 -9.96027
L48.4854 -10.1664
L48.9306 -10.3804
L49.3719 -10.6022
L49.8091 -10.8317
L50.2421 -11.0689
L50.6708 -11.3137
L51.095 -11.5661
L51.5146 -11.8258
L51.9295 -12.0929
L52.3395 -12.3674
L52.7445 -12.649
L53.1445 -12.9377
L53.5392 -13.2334
L53.9286 -13.5361
L54.3125 -13.8456
L54.6908 -14.1619
L55.0635 -14.4848
L55.4303 -14.8143
L55.7912 -15.1502
L56.1461 -15.4925
L56.4949 -15.841
L56.8374 -16.1957
L57.1736 -16.5564
L57.5033 -16.923
L57.8264 -17.2955
L58.1429 -17.6736
L58.4527 -18.0573
L58.7557 -18.4465
L59.0516 -18.841
L59.3406 -19.2408
L59.6225 -19.6456
L59.8972 -20.0555
L60.1646 -20.4702
L60.4246 -20.8896
L60.6772 -21.3136
L60.9223 -21.7421
L61.1597 -22.175
L61.3896 -22.612
L61.6117 -23.0532
L61.8259 -23.4983
L62.0324 -23.9472
L62.2308 -24.3997
L62.4213 -24.8558
L62.6038 -25.3153
L62.7781 -25.778
L62.9443 -26.2439
L63.1023 -26.7127
L63.252 -27.1844
L63.3935 -27.6587
L63.5265 -28.1356
L63.6512 -28.6149
L63.7675 -29.0964
L63.8753 -29.5801
L63.9746 -30.0656
L64.0654 -30.553
L64.1477 -31.0421
L64.2214 -31.5327
L64.2865 -32.0246
L64.3429 -32.5177
L64.3908 -33.0119
L64.4299 -33.507
L64.4605 -34.0029
L64.4823 -34.4994
L64.4955 -34.9963
L64.5 -35.4935
L64.4958 -35.9909
L64.483 -36.4883
L64.4614 -36.9856
L64.4312 -37.4825
L64.3923 -37.979
L64.3448 -38.4749
L64.2887 -38.97
L64.2239 -39.4643
L64.1505 -39.9574
L64.0686 -40.4494
L63.9781 -40.94
L63.8791 -41.4291
L63.7716 -41.9166
L63.6556 -42.4023
L63.5312 -42.886
L63.3985 -43.3676
L63.2573 -43.8469
L63.1079 -44.3239
L62.9502 -44.7984
L62.7843 -45.2701
L62.6103 -45.739
L62.4281 -46.205
L62.2379 -46.6679
L62.0397 -47.1275
L61.8336 -47.5837
L61.6196 -48.0364
L61.3978 -48.4854
L61.1683 -48.9306
L60.9311 -49.3719
L60.6863 -49.8091
L60.4339 -50.2421
z
" id="C0_1_6748f7449c"/>
     <path d="
M39.2364 -64.2783
L38.9664 -64.108
L38.6928 -63.9366
L38.416 -63.7641
L38.1365 -63.5903
L37.8547 -63.4151
L37.5711 -63.2385
L37.2861 -63.0604
L37 -62.8808
L36.7132 -62.6996
L36.4261 -62.5169
L36.1389 -62.3326
L35.8519 -62.1467
L35.5654 -61.9593
L35.2796 -61.7702
L34.9948 -61.5797
L34.7111 -61.3875
L34.4288 -61.1939
L34.148 -60.9988
L33.8688 -60.8022
L33.5915 -60.6042
L33.3161 -60.4048
L33.0427 -60.2041
L32.7715 -60.0021
L32.5025 -59.7988
L32.2357 -59.5943
L31.9714 -59.3886
L31.7095 -59.1818
L31.45 -58.9739
L31.193 -58.7649
L30.9386 -58.5548
L30.6868 -58.3438
L30.4375 -58.1318
L30.1908 -57.9189
L29.9467 -57.7051
L29.7052 -57.4904
L29.4664 -57.2749
L29.2301 -57.0586
L28.9964 -56.8415
L28.7652 -56.6236
L28.5367 -56.4049
L28.3106 -56.1855
L28.0871 -55.9654
L27.8661 -55.7446
L27.6475 -55.523
L27.4314 -55.3008
L27.2177 -55.0779
L27.0064 -54.8543
L26.7974 -54.6301
L26.5907 -54.4052
L26.3864 -54.1796
L26.1843 -53.9533
L25.9844 -53.7263
L25.7867 -53.4987
L25.5911 -53.2704
L25.3977 -53.0413
L25.2064 -52.8116
L25.0171 -52.5811
L24.8298 -52.3499
L24.6445 -52.118
L24.4612 -51.8853
L24.2798 -51.6518
L24.1003 -51.4175
L23.9227 -51.1824
L23.7468 -50.9464
L23.5728 -50.7096
L23.4005 -50.4719
L23.23 -50.2332
L23.0612 -49.9937
L22.8941 -49.7532
L22.7286 -49.5117
L22.5647 -49.2692
L22.4025 -49.0256
L22.2418 -48.781
L22.0827 -48.5352
L21.9252 -48.2884
L21.7691 -48.0403
L21.6145 -47.7911
L21.4614 -47.5406
L21.3098 -47.2889
L21.1596 -47.0359
L21.0108 -46.7815
L20.8634 -46.5258
L20.7174 -46.2687
L20.5728 -46.0101
L20.4295 -45.7501
L20.2876 -45.4886
L20.1471 -45.2255
L20.0078 -44.9609
L19.8699 -44.6946
L19.7334 -44.4267
L19.5981 -44.1571
L19.4641 -43.8858
L19.3315 -43.6127
L19.2001 -43.3378
L19.0701 -43.0611
L18.9414 -42.7826
L18.8139 -42.5022
L18.6878 -42.2198
L18.563 -41.9355
L18.4395 -41.6493
L18.3173 -41.361
L18.1964 -41.0707
L18.0769 -40.7783
L17.9587 -40.4839
L17.8419 -40.1874
L17.7264 -39.8887
L17.6123 -39.5879
L17.4996 -39.285
L17.3883 -38.9799
L17.2783 -38.6727
L17.1698 -38.3632
L17.0628 -38.0517
L16.9571 -37.7379
L16.8529 -37.422
L16.7502 -37.104
L16.649 -36.7839
L16.5492 -36.4616
L16.4509 -36.1373
L16.3542 -35.811
L16.2589 -35.4827
L16.1651 -35.1524
L16.0729 -34.8203
L15.9821 -34.4864
L15.8928 -34.1507
L15.8051 -33.8134
L15.7188 -33.4745
L15.6339 -33.1341
L15.5505 -32.7924
L15.4684 -32.4494
L15.3877 -32.1054
L15.3083 -31.7604
L15.2302 -31.4146
L15.1533 -31.0682
L15.0774 -30.7214
L15.0026 -30.3743
L14.9288 -30.0271
L14.8557 -29.6802
L14.7833 -29.3337
L14.7116 -28.9879
L14.6402 -28.6431
L14.5691 -28.2995
L14.498 -27.9574
L14.4269 -27.6171
L14.3554 -27.2791
L14.2834 -26.9435
L14.2105 -26.6108
L14.1367 -26.2814
L14.0615 -25.9555
L13.9848 -25.6336
L13.9062 -25.3161
L13.8254 -25.0033
L13.7421 -24.6957
L13.6561 -24.3937
L13.567 -24.0976
L13.4744 -23.8079
L13.3782 -23.525
L13.278 -23.2493
L13.1735 -22.981
L13.0645 -22.7207
L12.9507 -22.4686
L12.8319 -22.225
L12.7079 -21.9904
L12.5785 -21.7649
L12.4436 -21.5489
L12.3031 -21.3426
L12.1569 -21.1462
L11.5911 -20.96
L11.3381 -21.2876
L11.0925 -21.7158
L10.8546 -22.1484
L10.6243 -22.5852
L10.4017 -23.0261
L10.1869 -23.4709
L9.98005 -23.9196
L9.78107 -24.3719
L9.59008 -24.8278
L9.40714 -25.2871
L9.2323 -25.7496
L9.06561 -26.2153
L8.90712 -26.684
L8.75689 -27.1555
L8.61496 -27.6296
L8.48136 -28.1064
L8.35616 -28.5855
L8.23937 -29.0669
L8.13103 -29.5504
L8.03119 -30.0359
L7.93987 -30.5232
L7.85709 -31.0121
L7.78289 -31.5026
L7.71728 -31.9945
L7.66028 -32.4875
L7.61192 -32.9817
L7.57221 -33.4767
L7.54115 -33.9725
L7.51877 -34.469
L7.50506 -34.9659
L7.50003 -35.4631
L7.50368 -35.9605
L7.51601 -36.4579
L7.53702 -36.9552
L7.5667 -37.4521
L7.60504 -37.9486
L7.65202 -38.4446
L7.70765 -38.9398
L7.77189 -39.4341
L7.84473 -39.9273
L7.92615 -40.4194
L8.01611 -40.9101
L8.11461 -41.3993
L8.22159 -41.8868
L8.33704 -42.3726
L8.46092 -42.8564
L8.59318 -43.3382
L8.73379 -43.8177
L8.88271 -44.2948
L9.03989 -44.7694
L9.20527 -45.2413
L9.37883 -45.7104
L9.56049 -46.1766
L9.7502 -46.6396
L9.94791 -47.0995
L10.1536 -47.5559
L10.3671 -48.0088
L10.5884 -48.4581
L10.8175 -48.9035
L11.0542 -49.345
L11.2985 -49.7825
L11.5504 -50.2158
L11.8097 -50.6447
L12.0764 -51.0692
L12.3504 -51.4891
L12.6315 -51.9042
L12.9198 -52.3146
L13.2151 -52.7199
L13.5174 -53.1202
L13.8265 -53.5152
L14.1424 -53.9049
L14.4649 -54.2892
L14.794 -54.6678
L15.1295 -55.0408
L15.4714 -55.408
L15.8195 -55.7693
L16.1738 -56.1246
L16.5342 -56.4737
L16.9004 -56.8166
L17.2725 -57.1532
L17.6503 -57.4833
L18.0337 -57.8069
L18.4225 -58.1238
L18.8167 -58.434
L19.2162 -58.7373
L19.6207 -59.0337
L20.0303 -59.3232
L20.4447 -59.6055
L20.8638 -59.8806
L21.2876 -60.1484
L21.7158 -60.4089
L22.1484 -60.6619
L22.5852 -60.9075
L23.0261 -61.1454
L23.4709 -61.3757
L23.9196 -61.5983
L24.3719 -61.8131
L24.8278 -62.02
L25.2871 -62.2189
L25.7496 -62.4099
L26.2153 -62.5929
L26.684 -62.7677
L27.1555 -62.9344
L27.6296 -63.0929
L28.1064 -63.2431
L28.5855 -63.385
L29.0669 -63.5186
L29.5504 -63.6438
L30.0359 -63.7606
L30.5232 -63.869
L31.0121 -63.9688
L31.5026 -64.0601
L31.9945 -64.1429
L32.4875 -64.2171
L32.9817 -64.2827
L33.4767 -64.3397
L33.9725 -64.3881
L34.469 -64.4278
L34.9659 -64.4588
L35.4631 -64.4812
L35.9605 -64.4949
L36.4579 -64.5
L36.9552 -64.4963
L37.4521 -64.484
L37.9486 -64.463
L38.4446 -64.4333
z
" id="C0_2_dd021f0dee"/>
    </defs>
    <g clip-path="url(#p1bffca34e9)">
     <use style="fill:#ff0000;stroke:#000000;stroke-width:2.0;" x="0.0" xlink:href="#C0_0_a811fe30f3" y="72.0"/>
    </g>
    <g clip-path="url(#p1bffca34e9)">
     <use style="fill:#ffffff;stroke:#000000;stroke-width:2.0;" x="0.0" xlink:href="#C0_1_6748f7449c" y="72.0"/>
    </g>
    <g clip-path="url(#p1bffca34e9)">
     <use style="fill:#ffffff;stroke:#000000;stroke-width:2.0;" x="0.0" xlink:href="#C0_2_dd021f0dee" y="72.0"/>
    </g>
   </g>
  </g>
 </g>
 <defs>
  <clipPath id="p1bffca34e9">
   <rect height="72.0" width="72.0" x="0.0" y="0.0"/>
  </clipPath>
 </defs>
</svg>
