<?xml version="1.0" encoding="utf-8" standalone="no"?>
<!DOCTYPE svg PUBLIC "-//W3C//DTD SVG 1.1//EN"
  "http://www.w3.org/Graphics/SVG/1.1/DTD/svg11.dtd">
<!-- Created with matplotlib (http://matplotlib.org/) -->
<svg height="72pt" version="1.1" viewBox="0 0 72 72" width="72pt" xmlns="http://www.w3.org/2000/svg" xmlns:xlink="http://www.w3.org/1999/xlink">
 <defs>
  <style type="text/css">
*{stroke-linecap:butt;stroke-linejoin:round;}
  </style>
 </defs>
 <g id="figure_1">
  <g id="patch_1">
   <path d="
M0 72
L72 72
L72 0
L0 0
z
" style="fill:none;"/>
  </g>
  <g id="axes_1">
   <g id="PatchCollection_1">
    <defs>
     <path d="
M36 -7.5
C43.5583 -7.5 50.808 -10.5029 56.1525 -15.8475
C61.4971 -21.192 64.5 -28.4417 64.5 -36
C64.5 -43.5583 61.4971 -50.808 56.1525 -56.1525
C50.808 -61.4971 43.5583 -64.5 36 -64.5
C28.4417 -64.5 21.192 -61.4971 15.8475 -56.1525
C10.5029 -50.808 7.5 -43.5583 7.5 -36
C7.5 -28.4417 10.5029 -21.192 15.8475 -15.8475
C21.192 -10.5029 28.4417 -7.5 36 -7.5
z
" id="C0_0_a811fe30f3"/>
     <path d="
M37.1045 -27.8002
L37.359 -27.8775
L37.613 -27.9565
L37.8667 -28.0371
L38.1201 -28.1194
L38.3731 -28.2033
L38.6258 -28.2889
L38.8783 -28.3763
L39.1305 -28.4654
L39.3825 -28.5562
L39.6344 -28.6488
L39.8861 -28.7431
L40.1376 -28.8393
L40.3891 -28.9374
L40.6405 -29.0373
L40.8919 -29.1391
L41.1432 -29.2429
L41.3944 -29.3486
L41.6457 -29.4563
L41.897 -29.5661
L42.1484 -29.6779
L42.3997 -29.7918
L42.6512 -29.9079
L42.9026 -30.0261
L43.1542 -30.1466
L43.4058 -30.2694
L43.6575 -30.3945
L43.9093 -30.5219
L44.1611 -30.6518
L44.413 -30.7842
L44.665 -30.919
L44.917 -31.0565
L45.169 -31.1965
L45.421 -31.3392
L45.6729 -31.4847
L45.9249 -31.633
L46.1767 -31.7841
L46.4284 -31.9381
L46.6799 -32.0951
L46.9312 -32.2552
L47.1823 -32.4183
L47.433 -32.5846
L47.6833 -32.7542
L47.9331 -32.9271
L48.1824 -33.1033
L48.431 -33.283
L48.679 -33.4661
L48.926 -33.6529
L49.1722 -33.8433
L49.4172 -34.0374
L49.6611 -34.2353
L49.9037 -34.4371
L50.1447 -34.6428
L50.3841 -34.8525
L50.6217 -35.0663
L50.8574 -35.2842
L51.0908 -35.5064
L51.3219 -35.7328
L51.5503 -35.9635
L51.7759 -36.1987
L51.9984 -36.4383
L52.2176 -36.6824
L52.4331 -36.9312
L52.6448 -37.1845
L52.8523 -37.4426
L53.0552 -37.7053
L53.2533 -37.9728
L53.4462 -38.2451
L53.6335 -38.5222
L53.815 -38.8042
L53.9901 -39.091
L54.1585 -39.3826
L54.3197 -39.679
L54.4735 -39.9802
L54.6193 -40.2862
L54.7567 -40.5969
L54.8852 -40.9123
L55.0045 -41.2322
L55.114 -41.5566
L55.2134 -41.8853
L55.3022 -42.2182
L55.38 -42.5552
L55.4464 -42.896
L55.501 -43.2404
L55.5435 -43.5882
L55.5735 -43.9392
L55.5908 -44.293
L55.595 -44.6494
L55.586 -45.0081
L55.5635 -45.3685
L55.5275 -45.7305
L55.4778 -46.0936
L55.4145 -46.4574
L55.3374 -46.8214
L55.2468 -47.1853
L55.1426 -47.5486
L55.0251 -47.9108
L54.8945 -48.2716
L54.7509 -48.6305
L54.5947 -48.9869
L54.4261 -49.3406
L54.2456 -49.6911
L54.0535 -50.038
L53.8502 -50.3809
L53.636 -50.7195
L53.4115 -51.0534
L53.1771 -51.3822
L52.9332 -51.7058
L52.6803 -52.0238
L52.4189 -52.3359
L52.1493 -52.6419
L51.8721 -52.9417
L51.5876 -53.2349
L51.2964 -53.5216
L50.9989 -53.8014
L50.6954 -54.0744
L50.3865 -54.3404
L50.0724 -54.5992
L49.7537 -54.851
L49.4306 -55.0955
L49.1035 -55.3328
L48.7728 -55.5629
L48.4388 -55.7857
L48.1017 -56.0013
L47.762 -56.2096
L47.4199 -56.4108
L47.0757 -56.6048
L46.7296 -56.7918
L46.3819 -56.9717
L46.0327 -57.1446
L45.6824 -57.3106
L45.3311 -57.4698
L44.9791 -57.6223
L44.6264 -57.7681
L44.2733 -57.9073
L43.9199 -58.0401
L43.5664 -58.1665
L43.2129 -58.2865
L42.8595 -58.4004
L42.5064 -58.5082
L42.1536 -58.61
L41.8013 -58.7058
L41.4495 -58.7959
L41.0984 -58.8802
L40.748 -58.9589
L40.3983 -59.0321
L40.0494 -59.0998
L39.7015 -59.1622
L39.3545 -59.2193
L39.0084 -59.2713
L38.6634 -59.3181
L38.3195 -59.3599
L37.9766 -59.3968
L37.6348 -59.4289
L37.2942 -59.4561
L36.9547 -59.4787
L36.6163 -59.4966
L36.2792 -59.5099
L35.9432 -59.5186
L35.6084 -59.523
L35.2747 -59.5229
L34.9423 -59.5184
L34.611 -59.5097
L34.281 -59.4967
L33.952 -59.4795
L33.6243 -59.4581
L33.2977 -59.4325
L32.9723 -59.4029
L32.648 -59.3692
L32.3248 -59.3314
L32.0027 -59.2897
L31.6818 -59.2439
L31.3619 -59.1942
L31.0431 -59.1405
L30.7253 -59.0829
L30.4086 -59.0214
L30.0929 -58.9559
L29.7782 -58.8865
L29.4645 -58.8132
L29.1518 -58.736
L28.8401 -58.6549
L28.5294 -58.5698
L28.2195 -58.4808
L27.9107 -58.3879
L27.6027 -58.291
L27.2957 -58.1902
L26.9896 -58.0853
L26.6844 -57.9765
L26.3801 -57.8636
L26.0766 -57.7466
L25.7741 -57.6255
L25.4725 -57.5004
L25.1718 -57.371
L24.872 -57.2375
L24.5731 -57.0997
L24.2751 -56.9576
L23.978 -56.8113
L23.6819 -56.6605
L23.3868 -56.5054
L23.0926 -56.3458
L22.7995 -56.1817
L22.5074 -56.013
L22.2163 -55.8397
L21.9264 -55.6617
L21.6376 -55.479
L21.3499 -55.2915
L21.0635 -55.0991
L20.7784 -54.9018
L20.4946 -54.6996
L20.2122 -54.4923
L19.9313 -54.2799
L19.6519 -54.0623
L19.3741 -53.8395
L19.098 -53.6114
L18.8237 -53.378
L18.5513 -53.1391
L18.2808 -52.8948
L18.0124 -52.6449
L17.7463 -52.3895
L17.4824 -52.1284
L17.221 -51.8616
L16.9622 -51.589
L16.7062 -51.3107
L16.453 -51.0265
L16.2029 -50.7365
L15.956 -50.4406
L15.7125 -50.1388
L15.4726 -49.8311
L15.2366 -49.5174
L15.0045 -49.1978
L14.7766 -48.8723
L14.5531 -48.5409
L14.3343 -48.2036
L14.1205 -47.8605
L13.9118 -47.5117
L13.7085 -47.1571
L13.5109 -46.797
L13.3193 -46.4314
L13.1339 -46.0604
L12.955 -45.6841
L12.783 -45.3028
L12.6181 -44.9166
L12.4607 -44.5258
L12.311 -44.1304
L12.1694 -43.7308
L12.0361 -43.3273
L11.9116 -42.9201
L11.7961 -42.5096
L11.6899 -42.0962
L11.5934 -41.6801
L11.5068 -41.2618
L11.4305 -40.8417
L11.3647 -40.4203
L11.3097 -39.998
L11.2658 -39.5753
L11.2332 -39.1529
L11.2122 -38.7311
L11.2029 -38.3105
L11.2055 -37.8918
L11.2203 -37.4755
L11.2472 -37.0622
L11.2864 -36.6525
L11.338 -36.247
L11.402 -35.8462
L11.4783 -35.4508
L11.5669 -35.0612
L11.6678 -34.6782
L11.7807 -34.302
L11.9056 -33.9333
L12.0422 -33.5725
L12.1903 -33.2199
L12.3495 -32.8761
L12.5197 -32.5412
L12.7004 -32.2156
L12.8913 -31.8994
L13.0919 -31.593
L13.302 -31.2965
L13.521 -31.0098
L13.7485 -30.7332
L13.9841 -30.4666
L14.2272 -30.21
L14.4776 -29.9634
L14.7347 -29.7266
L14.998 -29.4995
L15.2671 -29.2821
L15.5417 -29.0742
L15.8212 -28.8755
L16.1052 -28.686
L16.3934 -28.5053
L16.6853 -28.3334
L16.9807 -28.1698
L17.2791 -28.0146
L17.5802 -27.8673
L17.8837 -27.7278
L18.1893 -27.5959
L18.4967 -27.4713
L18.8056 -27.3538
L19.1158 -27.2431
L19.427 -27.1391
L19.739 -27.0415
L20.0516 -26.9501
L20.3645 -26.8646
L20.6777 -26.785
L20.991 -26.711
L21.304 -26.6424
L21.6169 -26.5789
L21.9293 -26.5206
L22.2412 -26.467
L22.5524 -26.4182
L22.8629 -26.3738
L23.1726 -26.3339
L23.4813 -26.2981
L23.7891 -26.2664
L24.0957 -26.2386
L24.4012 -26.2146
L24.7056 -26.1943
L25.0087 -26.1775
L25.3105 -26.1642
L25.611 -26.1541
L25.9102 -26.1473
L26.208 -26.1435
L26.5045 -26.1427
L26.7995 -26.1448
L27.0931 -26.1498
L27.3853 -26.1574
L27.6761 -26.1677
L27.9655 -26.1806
L28.2535 -26.1959
L28.5401 -26.2137
L28.8252 -26.2338
L29.109 -26.2562
L29.3914 -26.2809
L29.6725 -26.3077
L29.9522 -26.3366
L30.2306 -26.3676
L30.5078 -26.4007
L30.7837 -26.4357
L31.0583 -26.4726
L31.3317 -26.5115
L31.6039 -26.5522
L31.875 -26.5948
L32.145 -26.6391
L32.4138 -26.6853
L32.6816 -26.7332
L32.9484 -26.7828
L33.2142 -26.8341
L33.479 -26.8871
L33.7429 -26.9418
L34.0059 -26.9981
L34.268 -27.0561
L34.5293 -27.1157
L34.7898 -27.1769
L35.0496 -27.2397
L35.3086 -27.3042
L35.5669 -27.3702
L35.8246 -27.4379
L36.0817 -27.5071
L36.3382 -27.578
L36.5941 -27.6504
z
" id="C0_1_acf55d4e0d"/>
    </defs>
    <g clip-path="url(#p1bffca34e9)">
     <use style="fill:#ff0000;stroke:#000000;stroke-width:2.0;" x="0.0" xlink:href="#C0_0_a811fe30f3" y="72.0"/>
    </g>
    <g clip-path="url(#p1bffca34e9)">
     <use style="fill:#ffffff;stroke:#000000;stroke-width:2.0;" x="0.0" xlink:href="#C0_1_acf55d4e0d" y="72.0"/>
    </g>
   </g>
  </g>
 </g>
 <defs>
  <clipPath id="p1bffca34e9">
   <rect height="72.0" width="72.0" x="0.0" y="0.0"/>
  </clipPath>
 </defs>
</svg>
