<?xml version="1.0" encoding="utf-8" standalone="no"?>
<!DOCTYPE svg PUBLIC "-//W3C//DTD SVG 1.1//EN"
  "http://www.w3.org/Graphics/SVG/1.1/DTD/svg11.dtd">
<!-- Created with matplotlib (http://matplotlib.org/) -->
<svg height="72pt" version="1.1" viewBox="0 0 72 72" width="72pt" xmlns="http://www.w3.org/2000/svg" xmlns:xlink="http://www.w3.org/1999/xlink">
 <defs>
  <style type="text/css">
*{stroke-linecap:butt;stroke-linejoin:round;}
  </style>
 </defs>
 <g id="figure_1">
  <g id="patch_1">
   <path d="
M0 72
L72 72
L72 0
L0 0
z
" style="fill:none;"/>
  </g>
  <g id="axes_1">
   <g id="PatchCollection_1">
    <defs>
     <path d="
M36 -7.5
C43.5583 -7.5 50.808 -10.5029 56.1525 -15.8475
C61.4971 -21.192 64.5 -28.4417 64.5 -36
C64.5 -43.5583 61.4971 -50.808 56.1525 -56.1525
C50.808 -61.4971 43.5583 -64.5 36 -64.5
C28.4417 -64.5 21.192 -61.4971 15.8475 -56.1525
C10.5029 -50.808 7.5 -43.5583 7.5 -36
C7.5 -28.4417 10.5029 -21.192 15.8475 -15.8475
C21.192 -10.5029 28.4417 -7.5 36 -7.5
z
" id="C0_0_a811fe30f3"/>
     <path d="
M35.9214 -7.50011
L35.9217 -7.68057
L35.9216 -7.86221
L35.921 -8.04506
L35.9201 -8.22917
L35.9188 -8.41457
L35.9171 -8.60131
L35.915 -8.78943
L35.9126 -8.97898
L35.9097 -9.16999
L35.9065 -9.36253
L35.9029 -9.55663
L35.8989 -9.75234
L35.8946 -9.94971
L35.8898 -10.1488
L35.8847 -10.3497
L35.8793 -10.5523
L35.8734 -10.7569
L35.8672 -10.9633
L35.8605 -11.1718
L35.8535 -11.3822
L35.8461 -11.5948
L35.8383 -11.8095
L35.83 -12.0265
L35.8213 -12.2457
L35.8123 -12.4672
L35.8027 -12.6911
L35.7928 -12.9174
L35.7823 -13.1463
L35.7714 -13.3777
L35.7601 -13.6118
L35.7482 -13.8485
L35.7358 -14.088
L35.7229 -14.3303
L35.7095 -14.5755
L35.6955 -14.8236
L35.6809 -15.0746
L35.6657 -15.3288
L35.6499 -15.586
L35.6335 -15.8464
L35.6164 -16.11
L35.5986 -16.3769
L35.58 -16.6471
L35.5608 -16.9206
L35.5407 -17.1976
L35.5198 -17.4779
L35.498 -17.7618
L35.4754 -18.0491
L35.4518 -18.34
L35.4272 -18.6345
L35.4015 -18.9325
L35.3748 -19.234
L35.3468 -19.5391
L35.3177 -19.8478
L35.2873 -20.16
L35.2555 -20.4757
L35.2222 -20.7949
L35.1874 -21.1175
L35.151 -21.4434
L35.1129 -21.7725
L35.0729 -22.1048
L35.0309 -22.4402
L34.9868 -22.7784
L34.9404 -23.1194
L34.8917 -23.463
L34.8403 -23.8089
L34.7862 -24.157
L34.7291 -24.5069
L34.6688 -24.8584
L34.605 -25.2112
L34.5375 -25.565
L34.466 -25.9193
L34.3902 -26.2737
L34.3096 -26.6278
L34.2241 -26.9811
L34.133 -27.333
L34.0361 -27.683
L33.9328 -28.0304
L33.8227 -28.3747
L33.7053 -28.7151
L33.5801 -29.0509
L33.4464 -29.3813
L33.3038 -29.7058
L33.1519 -30.0234
L32.9899 -30.3335
L32.8176 -30.6354
L32.6344 -30.9285
L32.4402 -31.212
L32.2345 -31.4856
L32.0173 -31.7488
L31.7885 -32.0013
L31.5482 -32.2429
L31.2966 -32.4735
L31.034 -32.693
L30.7609 -32.9018
L30.4777 -33.0998
L30.1852 -33.2876
L29.8839 -33.4654
L29.5745 -33.6336
L29.2579 -33.7928
L28.9348 -33.9434
L28.606 -34.0859
L28.2721 -34.2208
L27.934 -34.3486
L27.5924 -34.4697
L27.2479 -34.5846
L26.9012 -34.6938
L26.5528 -34.7976
L26.2034 -34.8963
L25.8533 -34.9904
L25.5032 -35.0802
L25.1535 -35.166
L24.8044 -35.2479
L24.4565 -35.3264
L24.11 -35.4015
L23.7652 -35.4736
L23.4224 -35.5428
L23.0818 -35.6093
L22.7437 -35.6733
L22.4082 -35.7348
L22.0755 -35.7941
L21.7457 -35.8513
L21.4189 -35.9065
L21.0953 -35.9597
L20.775 -36.0112
L20.458 -36.0609
L20.1444 -36.109
L19.8342 -36.1556
L19.5274 -36.2007
L19.2241 -36.2444
L18.9244 -36.2867
L18.6281 -36.3278
L18.3353 -36.3676
L18.0461 -36.4063
L17.7603 -36.4438
L17.4779 -36.4802
L17.199 -36.5156
L16.9235 -36.55
L16.6513 -36.5834
L16.3825 -36.6159
L16.1169 -36.6475
L15.8545 -36.6783
L15.5953 -36.7082
L15.3392 -36.7373
L15.0862 -36.7656
L14.8362 -36.7932
L14.5892 -36.82
L14.345 -36.8462
L14.1037 -36.8716
L13.8652 -36.8964
L13.6294 -36.9205
L13.3963 -36.944
L13.1657 -36.9669
L12.9377 -36.9891
L12.7122 -37.0108
L12.4891 -37.0319
L12.2683 -37.0525
L12.0499 -37.0725
L11.8337 -37.092
L11.6196 -37.1109
L11.4077 -37.1293
L11.1979 -37.1473
L10.9901 -37.1647
L10.7842 -37.1816
L10.5803 -37.1981
L10.3781 -37.2141
L10.1778 -37.2296
L9.97925 -37.2446
L9.78236 -37.2591
L9.58712 -37.2733
L9.39347 -37.2869
L9.20136 -37.3001
L9.01075 -37.3128
L8.82158 -37.3251
L8.63382 -37.337
L8.44742 -37.3483
L8.26234 -37.3593
L8.07853 -37.3697
L7.89595 -37.3797
L7.71456 -37.3893
L7.51426 -36.9013
L7.50286 -36.404
L7.50015 -35.9066
L7.50612 -35.4092
L7.52077 -34.912
L7.5441 -34.4152
L7.57609 -33.9188
L7.61674 -33.423
L7.66604 -32.9281
L7.72397 -32.4341
L7.79051 -31.9411
L7.86564 -31.4494
L7.94935 -30.9591
L8.04159 -30.4703
L8.14236 -29.9832
L8.25161 -29.4979
L8.36931 -29.0147
L8.49543 -28.5335
L8.62993 -28.0546
L8.77276 -27.5782
L8.92389 -27.1043
L9.08327 -26.6331
L9.25084 -26.1647
L9.42657 -25.6994
L9.61038 -25.2372
L9.80224 -24.7783
L10.0021 -24.3228
L10.2098 -23.8708
L10.4254 -23.4226
L10.6488 -22.9781
L10.88 -22.5377
L11.1187 -22.1013
L11.3651 -21.6692
L11.619 -21.2415
L11.8802 -20.8182
L12.1489 -20.3996
L12.4248 -19.9857
L12.7079 -19.5767
L12.998 -19.1727
L13.2952 -18.7738
L13.5993 -18.3802
L13.9102 -17.9919
L14.2279 -17.6091
L14.5522 -17.2319
L14.883 -16.8605
L15.2202 -16.4949
L15.5638 -16.1352
L15.9136 -15.7815
L16.2695 -15.4341
L16.6314 -15.0928
L16.9993 -14.758
L17.3729 -14.4296
L17.7522 -14.1078
L18.137 -13.7927
L18.5273 -13.4843
L18.9229 -13.1828
L19.3238 -12.8883
L19.7297 -12.6007
L20.1405 -12.3203
L20.5562 -12.0472
L20.9766 -11.7813
L21.4015 -11.5228
L21.8309 -11.2717
L22.2647 -11.0282
L22.7026 -10.7923
L23.1445 -10.5641
L23.5904 -10.3436
L24.0401 -10.1309
L24.4934 -9.92611
L24.9502 -9.72927
L25.4104 -9.54042
L25.8737 -9.35964
L26.3402 -9.18697
L26.8097 -9.02246
L27.2819 -8.86618
L27.7568 -8.71816
L28.2341 -8.57845
L28.7139 -8.44709
L29.1959 -8.32413
L29.6799 -8.2096
L30.1659 -8.10353
L30.6536 -8.00596
L31.143 -7.91691
L31.6339 -7.83643
L32.1261 -7.76452
L32.6194 -7.70121
L33.1138 -7.64652
L33.6091 -7.60046
L34.1051 -7.56306
L34.6017 -7.53432
L35.0987 -7.51426
z
" id="C0_1_688e596796"/>
     <path d="
M64.2854 -34.6107
L64.1041 -34.6203
L63.9215 -34.6303
L63.7377 -34.6407
L63.5526 -34.6517
L63.3662 -34.663
L63.1784 -34.6749
L62.9893 -34.6872
L62.7986 -34.6999
L62.6065 -34.7131
L62.4129 -34.7267
L62.2176 -34.7409
L62.0208 -34.7554
L61.8222 -34.7704
L61.6219 -34.7859
L61.4197 -34.8019
L61.2158 -34.8184
L61.0099 -34.8353
L60.8021 -34.8527
L60.5923 -34.8707
L60.3804 -34.8891
L60.1663 -34.908
L59.9501 -34.9275
L59.7317 -34.9475
L59.5109 -34.9681
L59.2878 -34.9892
L59.0623 -35.0109
L58.8343 -35.0331
L58.6037 -35.056
L58.3706 -35.0795
L58.1348 -35.1036
L57.8963 -35.1284
L57.655 -35.1538
L57.4108 -35.18
L57.1638 -35.2068
L56.9138 -35.2344
L56.6608 -35.2627
L56.4047 -35.2918
L56.1455 -35.3217
L55.8831 -35.3525
L55.6175 -35.3841
L55.3487 -35.4166
L55.0765 -35.45
L54.801 -35.4844
L54.5221 -35.5198
L54.2397 -35.5562
L53.9539 -35.5937
L53.6647 -35.6324
L53.3719 -35.6722
L53.0756 -35.7133
L52.7759 -35.7556
L52.4726 -35.7993
L52.1658 -35.8444
L51.8556 -35.891
L51.542 -35.9391
L51.225 -35.9888
L50.9047 -36.0403
L50.5811 -36.0935
L50.2543 -36.1487
L49.9245 -36.2059
L49.5918 -36.2652
L49.2563 -36.3267
L48.9182 -36.3907
L48.5776 -36.4572
L48.2348 -36.5264
L47.89 -36.5985
L47.5435 -36.6736
L47.1956 -36.7521
L46.8465 -36.834
L46.4968 -36.9198
L46.1467 -37.0096
L45.7966 -37.1037
L45.4472 -37.2024
L45.0988 -37.3062
L44.7521 -37.4154
L44.4076 -37.5303
L44.066 -37.6514
L43.7279 -37.7792
L43.394 -37.9141
L43.0652 -38.0566
L42.7421 -38.2072
L42.4255 -38.3664
L42.1161 -38.5346
L41.8148 -38.7124
L41.5223 -38.9002
L41.2391 -39.0982
L40.966 -39.307
L40.7034 -39.5265
L40.4518 -39.7571
L40.2115 -39.9987
L39.9827 -40.2512
L39.7655 -40.5144
L39.5598 -40.788
L39.3656 -41.0715
L39.1824 -41.3646
L39.0101 -41.6665
L38.8481 -41.9766
L38.6962 -42.2942
L38.5536 -42.6187
L38.4199 -42.9491
L38.2947 -43.2849
L38.1773 -43.6253
L38.0672 -43.9696
L37.9639 -44.317
L37.867 -44.667
L37.7759 -45.0189
L37.6904 -45.3722
L37.6098 -45.7263
L37.534 -46.0807
L37.4625 -46.435
L37.395 -46.7888
L37.3312 -47.1416
L37.2709 -47.4931
L37.2138 -47.843
L37.1597 -48.1911
L37.1083 -48.537
L37.0596 -48.8806
L37.0132 -49.2216
L36.9691 -49.5598
L36.9271 -49.8952
L36.8871 -50.2275
L36.849 -50.5566
L36.8126 -50.8825
L36.7778 -51.2051
L36.7445 -51.5243
L36.7127 -51.84
L36.6823 -52.1522
L36.6532 -52.4609
L36.6252 -52.766
L36.5985 -53.0675
L36.5728 -53.3655
L36.5482 -53.66
L36.5246 -53.9509
L36.502 -54.2382
L36.4802 -54.5221
L36.4593 -54.8024
L36.4392 -55.0794
L36.42 -55.3529
L36.4014 -55.6231
L36.3836 -55.89
L36.3665 -56.1536
L36.3501 -56.414
L36.3343 -56.6712
L36.3191 -56.9254
L36.3045 -57.1764
L36.2905 -57.4245
L36.2771 -57.6697
L36.2642 -57.912
L36.2518 -58.1515
L36.2399 -58.3882
L36.2286 -58.6223
L36.2177 -58.8537
L36.2072 -59.0826
L36.1973 -59.3089
L36.1877 -59.5328
L36.1787 -59.7543
L36.17 -59.9735
L36.1617 -60.1905
L36.1539 -60.4052
L36.1465 -60.6178
L36.1395 -60.8282
L36.1328 -61.0367
L36.1266 -61.2431
L36.1207 -61.4477
L36.1153 -61.6503
L36.1102 -61.8512
L36.1054 -62.0503
L36.1011 -62.2477
L36.0971 -62.4434
L36.0935 -62.6375
L36.0903 -62.83
L36.0874 -63.021
L36.085 -63.2106
L36.0829 -63.3987
L36.0812 -63.5854
L36.0799 -63.7708
L36.079 -63.9549
L36.0784 -64.1378
L36.5762 -64.3194
L37.0734 -64.4942
L37.5703 -64.4798
L38.0667 -64.4567
L38.5624 -64.425
L39.0574 -64.3846
L39.5515 -64.3355
L40.0445 -64.2779
L40.5362 -64.2116
L41.0266 -64.1367
L41.5154 -64.0532
L42.0025 -63.9612
L42.4879 -63.8607
L42.9712 -63.7517
L43.4524 -63.6343
L43.9314 -63.5084
L44.4079 -63.3741
L44.8819 -63.2315
L45.3532 -63.0807
L45.8216 -62.9215
L46.287 -62.7542
L46.7493 -62.5787
L47.2083 -62.3951
L47.6639 -62.2035
L48.116 -62.0039
L48.5644 -61.7964
L49.0089 -61.581
L49.4495 -61.3578
L49.8859 -61.1269
L50.3182 -60.8884
L50.7461 -60.6422
L51.1695 -60.3886
L51.5882 -60.1275
L52.0023 -59.8591
L52.4114 -59.5834
L52.8156 -59.3005
L53.2146 -59.0106
L53.6084 -58.7136
L53.9968 -58.4097
L54.3797 -58.099
L54.7571 -57.7815
L55.1287 -57.4574
L55.4945 -57.1268
L55.8544 -56.7898
L56.2082 -56.4464
L56.5558 -56.0967
L56.8972 -55.741
L57.2323 -55.3792
L57.5608 -55.0116
L57.8828 -54.6381
L58.1982 -54.259
L58.5067 -53.8743
L58.8085 -53.4842
L59.1032 -53.0887
L59.3909 -52.6881
L59.6715 -52.2823
L59.9449 -51.8716
L60.211 -51.4561
L60.4698 -51.0358
L60.721 -50.611
L60.9648 -50.1817
L61.2009 -49.7481
L61.4294 -49.3103
L61.6501 -48.8685
L61.863 -48.4227
L62.068 -47.9732
L62.2651 -47.52
L62.4542 -47.0633
L62.6352 -46.6032
L62.8081 -46.1399
L62.9728 -45.6735
L63.1294 -45.2041
L63.2776 -44.732
L63.4176 -44.2572
L63.5492 -43.7799
L63.6724 -43.3002
L63.7872 -42.8183
L63.8935 -42.3343
L63.9913 -41.8484
L64.0806 -41.3607
L64.1613 -40.8713
L64.2335 -40.3805
L64.2971 -39.8884
L64.352 -39.395
L64.3983 -38.9007
L64.436 -38.4054
L64.465 -37.9094
L64.4853 -37.4129
L64.4969 -36.9159
L64.4999 -36.4186
L64.4942 -35.9212
z
" id="C0_2_07b73a02c7"/>
    </defs>
    <g clip-path="url(#p1bffca34e9)">
     <use style="fill:#ffffff;stroke:#000000;stroke-width:2.0;" x="0.0" xlink:href="#C0_0_a811fe30f3" y="72.0"/>
    </g>
    <g clip-path="url(#p1bffca34e9)">
     <use style="fill:#ff0000;stroke:#000000;stroke-width:2.0;" x="0.0" xlink:href="#C0_1_688e596796" y="72.0"/>
    </g>
    <g clip-path="url(#p1bffca34e9)">
     <use style="fill:#ff0000;stroke:#000000;stroke-width:2.0;" x="0.0" xlink:href="#C0_2_07b73a02c7" y="72.0"/>
    </g>
   </g>
  </g>
 </g>
 <defs>
  <clipPath id="p1bffca34e9">
   <rect height="72.0" width="72.0" x="0.0" y="0.0"/>
  </clipPath>
 </defs>
</svg>
