<?xml version="1.0" encoding="utf-8" standalone="no"?>
<!DOCTYPE svg PUBLIC "-//W3C//DTD SVG 1.1//EN"
  "http://www.w3.org/Graphics/SVG/1.1/DTD/svg11.dtd">
<!-- Created with matplotlib (http://matplotlib.org/) -->
<svg height="72pt" version="1.1" viewBox="0 0 72 72" width="72pt" xmlns="http://www.w3.org/2000/svg" xmlns:xlink="http://www.w3.org/1999/xlink">
 <defs>
  <style type="text/css">
*{stroke-linecap:butt;stroke-linejoin:round;}
  </style>
 </defs>
 <g id="figure_1">
  <g id="patch_1">
   <path d="
M0 72
L72 72
L72 0
L0 0
z
" style="fill:none;"/>
  </g>
  <g id="axes_1">
   <g id="PatchCollection_1">
    <defs>
     <path d="
M36 -7.5
C43.5583 -7.5 50.808 -10.5029 56.1525 -15.8475
C61.4971 -21.192 64.5 -28.4417 64.5 -36
C64.5 -43.5583 61.4971 -50.808 56.1525 -56.1525
C50.808 -61.4971 43.5583 -64.5 36 -64.5
C28.4417 -64.5 21.192 -61.4971 15.8475 -56.1525
C10.5029 -50.808 7.5 -43.5583 7.5 -36
C7.5 -28.4417 10.5029 -21.192 15.8475 -15.8475
C21.192 -10.5029 28.4417 -7.5 36 -7.5
z
" id="C0_0_a811fe30f3"/>
     <path d="
M14.6389 -17.4797
L14.7895 -17.6623
L14.9479 -17.8396
L15.1136 -18.0119
L15.2862 -18.1795
L15.4653 -18.3425
L15.6503 -18.5014
L15.841 -18.6563
L16.0368 -18.8075
L16.2375 -18.9552
L16.4426 -19.0997
L16.6519 -19.2412
L16.8649 -19.3798
L17.0815 -19.5158
L17.3012 -19.6493
L17.5239 -19.7805
L17.7492 -19.9095
L17.977 -20.0366
L18.207 -20.1618
L18.439 -20.2853
L18.6728 -20.4072
L18.9082 -20.5275
L19.145 -20.6465
L19.3831 -20.7642
L19.6223 -20.8807
L19.8625 -20.9961
L20.1036 -21.1104
L20.3453 -21.2238
L20.5877 -21.3362
L20.8306 -21.4479
L21.074 -21.5587
L21.3176 -21.6688
L21.5615 -21.7782
L21.8056 -21.887
L22.0498 -21.9952
L22.2941 -22.1028
L22.5383 -22.21
L22.7825 -22.3166
L23.0266 -22.4229
L23.2706 -22.5287
L23.5145 -22.6341
L23.7581 -22.7392
L24.0015 -22.844
L24.2447 -22.9485
L24.4876 -23.0527
L24.7303 -23.1567
L24.9727 -23.2604
L25.2148 -23.364
L25.4566 -23.4674
L25.6981 -23.5706
L25.9393 -23.6737
L26.1803 -23.7766
L26.421 -23.8795
L26.6613 -23.9823
L26.9015 -24.085
L27.1413 -24.1877
L27.381 -24.2903
L27.6204 -24.393
L27.8596 -24.4956
L28.0986 -24.5983
L28.3374 -24.701
L28.5761 -24.8038
L28.8146 -24.9066
L29.0531 -25.0096
L29.2914 -25.1126
L29.5297 -25.2158
L29.768 -25.3191
L30.0062 -25.4225
L30.2445 -25.5261
L30.4828 -25.6299
L30.7211 -25.7339
L30.9596 -25.8382
L31.1982 -25.9426
L31.437 -26.0473
L31.9151 -26.1522
L32.1545 -26.2574
L32.3942 -26.3629
L32.6343 -26.4687
L32.8746 -26.5748
L33.1154 -26.6813
L33.3565 -26.7881
L33.5982 -26.8952
L33.8402 -27.0027
L34.0828 -27.1106
L34.326 -27.2189
L34.5697 -27.3276
L34.814 -27.4367
L35.059 -27.5463
L35.3046 -27.6563
L35.5509 -27.7667
L35.798 -27.8777
L36.0459 -27.9891
L36.2945 -28.1009
L36.544 -28.2133
L36.7944 -28.3262
L37.0456 -28.4396
L37.2978 -28.5535
L37.5509 -28.6679
L37.805 -28.7828
L38.0601 -28.8983
L38.3163 -29.0143
L38.5735 -29.1308
L38.8318 -29.2479
L39.0912 -29.3654
L39.3518 -29.4835
L39.6135 -29.6021
L39.8764 -29.7213
L40.1405 -29.8409
L40.4058 -29.961
L40.6724 -30.0815
L40.9402 -30.2025
L41.2092 -30.324
L41.4796 -30.4458
L41.7512 -30.568
L42.0242 -30.6906
L42.2984 -30.8135
L42.5739 -30.9366
L42.8507 -31.06
L43.1289 -31.1836
L43.4083 -31.3073
L43.689 -31.4311
L43.971 -31.5548
L44.2543 -31.6786
L44.5388 -31.8022
L44.8245 -31.9255
L45.1115 -32.0486
L45.3996 -32.1712
L45.6889 -32.2934
L45.9793 -32.4149
L46.2707 -32.5356
L46.5632 -32.6555
L46.8567 -32.7744
L47.1511 -32.8921
L47.4464 -33.0084
L47.7425 -33.1232
L48.0394 -33.2363
L48.3369 -33.3475
L48.6351 -33.4566
L48.9338 -33.5633
L49.233 -33.6675
L49.5325 -33.7688
L49.8323 -33.8671
L50.1323 -33.9619
L50.4323 -34.0531
L50.7323 -34.1404
L51.0322 -34.2233
L51.3318 -34.3017
L51.631 -34.3751
L51.9296 -34.4432
L52.2277 -34.5057
L52.5249 -34.5621
L52.8212 -34.6121
L53.1164 -34.6554
L53.4104 -34.6916
L53.703 -34.7202
L53.994 -34.741
L54.2832 -34.7535
L54.5706 -34.7575
L54.8559 -34.7525
L55.1389 -34.7382
L55.4194 -34.7144
L55.6973 -34.6808
L55.9723 -34.6372
L56.2443 -34.5832
L56.513 -34.5188
L56.7782 -34.4437
L57.0398 -34.3578
L57.2975 -34.2612
L57.5511 -34.1536
L57.8005 -34.0352
L58.0453 -33.9059
L58.2854 -33.7659
L58.5207 -33.6151
L58.7508 -33.4538
L58.9757 -33.2821
L59.1951 -33.1003
L59.4088 -32.9084
L59.6168 -32.7069
L59.8187 -32.4958
L60.0146 -32.2756
L60.2042 -32.0466
L60.3873 -31.8089
L60.5639 -31.5631
L60.7339 -31.3092
L60.897 -31.0479
L61.0533 -30.7792
L61.2027 -30.5037
L61.345 -30.2215
L61.4802 -29.9331
L61.6082 -29.6388
L61.7289 -29.3389
L61.8424 -29.0337
L61.9485 -28.7235
L62.0473 -28.4087
L62.1386 -28.0895
L62.2226 -27.7662
L62.2991 -27.4391
L62.3682 -27.1084
L62.4299 -26.7745
L62.4841 -26.4375
L62.5309 -26.0978
L62.4036 -25.7554
L62.2123 -25.2714
L62.013 -24.8123
L61.8059 -24.3565
L61.5908 -23.9043
L61.368 -23.4557
L61.1375 -23.011
L60.8993 -22.5703
L60.6535 -22.1336
L60.4002 -21.7012
L60.1394 -21.2731
L59.8713 -20.8495
L59.596 -20.4305
L59.3134 -20.0163
L59.0238 -19.6069
L58.7271 -19.2025
L58.4235 -18.8032
L58.1131 -18.4092
L57.796 -18.0206
L57.4722 -17.6374
L57.1418 -17.2598
L56.8051 -16.8879
L56.462 -16.5218
L56.1126 -16.1617
L55.7571 -15.8076
L55.3957 -15.4597
L55.0283 -15.118
L54.6551 -14.7827
L54.2762 -14.4538
L53.8918 -14.1315
L53.5019 -13.8159
L53.1066 -13.507
L52.7062 -13.205
L52.3007 -12.9099
L51.8902 -12.6219
L51.4749 -12.3409
L51.0548 -12.0672
L50.6302 -11.8008
L50.2011 -11.5417
L49.7677 -11.2901
L49.3301 -11.046
L48.8884 -10.8096
L48.4428 -10.5808
L47.9935 -10.3597
L47.5404 -10.1464
L47.0839 -9.94106
L46.624 -9.74362
L46.1608 -9.55418
L45.6945 -9.37279
L45.2253 -9.19952
L44.7533 -9.03441
L44.2786 -8.87751
L43.8014 -8.72887
L43.3218 -8.58854
L42.84 -8.45657
L42.3561 -8.33298
L41.8703 -8.21782
L41.3827 -8.11112
L40.8934 -8.01291
L40.4026 -7.92324
L39.9106 -7.84211
L39.4173 -7.76956
L38.9229 -7.70561
L38.4277 -7.65028
L37.9318 -7.60359
L37.4352 -7.56554
L36.9382 -7.53616
L36.441 -7.51545
L35.9436 -7.50341
L35.4462 -7.50006
L34.949 -7.50538
L34.4521 -7.51939
L33.9557 -7.54207
L33.4599 -7.57342
L32.9648 -7.61342
L32.4707 -7.66208
L31.9777 -7.71937
L31.4859 -7.78527
L30.9955 -7.85976
L30.5066 -7.94283
L30.0193 -8.03445
L29.5339 -8.13458
L29.0505 -8.2432
L28.5692 -8.36027
L28.0901 -8.48577
L27.6135 -8.61965
L27.1394 -8.76186
L26.668 -8.91238
L26.1994 -9.07114
L25.7339 -9.23811
L25.2714 -9.41323
L24.8123 -9.59645
L24.3565 -9.78771
L23.9043 -9.98695
L23.4557 -10.1941
L23.011 -10.4092
L22.5703 -10.632
L22.1336 -10.8625
L21.7012 -11.1007
L21.2731 -11.3465
L20.8495 -11.5998
L20.4305 -11.8606
L20.0163 -12.1287
L19.6069 -12.404
L19.2025 -12.6866
L18.8032 -12.9762
L18.4092 -13.2729
L18.0206 -13.5765
L17.6374 -13.8869
L17.2598 -14.204
L16.8879 -14.5278
L16.5218 -14.8582
L16.1617 -15.1949
L15.8076 -15.538
L15.4597 -15.8874
L15.118 -16.2429
z
" id="C0_1_78a856ab3a"/>
     <path d="
M9.62075 -46.5131
L9.88536 -46.7356
L10.1512 -46.955
L10.4182 -47.1713
L10.6863 -47.3844
L10.9554 -47.5943
L11.2254 -47.8009
L11.4963 -48.0042
L11.7679 -48.2042
L12.0403 -48.4008
L12.3133 -48.5941
L12.5869 -48.784
L12.8611 -48.9706
L13.1358 -49.1538
L13.4109 -49.3337
L13.6865 -49.5103
L13.9624 -49.6836
L14.2387 -49.8536
L14.5152 -50.0204
L14.7921 -50.184
L15.0692 -50.3444
L15.3465 -50.5017
L15.624 -50.6559
L15.9018 -50.8069
L16.1797 -50.955
L16.4578 -51.1
L16.7361 -51.2421
L17.0145 -51.3813
L17.293 -51.5176
L17.5718 -51.651
L17.8506 -51.7816
L18.1297 -51.9095
L18.4089 -52.0346
L18.6882 -52.1571
L18.9678 -52.2769
L19.2475 -52.3941
L19.5275 -52.5087
L19.8077 -52.6207
L20.0881 -52.7303
L20.3688 -52.8374
L20.6497 -52.942
L20.9309 -53.0442
L21.2125 -53.1441
L21.4944 -53.2416
L21.7767 -53.3367
L22.0593 -53.4296
L22.3424 -53.5202
L22.6259 -53.6086
L22.9098 -53.6947
L23.1943 -53.7787
L23.4793 -53.8604
L23.7649 -53.94
L24.051 -54.0175
L24.3378 -54.0929
L24.6252 -54.1661
L24.9134 -54.2373
L25.2022 -54.3064
L25.4918 -54.3734
L25.7822 -54.4384
L26.0734 -54.5013
L26.3654 -54.5622
L26.6584 -54.6211
L26.9523 -54.678
L27.2471 -54.7328
L27.5429 -54.7857
L27.8398 -54.8366
L28.1377 -54.8854
L28.4368 -54.9323
L28.7369 -54.9771
L29.0383 -55.02
L29.3408 -55.0608
L29.6446 -55.0997
L29.9496 -55.1365
L30.256 -55.1713
L30.5637 -55.2041
L30.8727 -55.2348
L31.1831 -55.2636
L31.495 -55.2902
L31.8083 -55.3149
L32.1231 -55.3374
L32.4394 -55.3579
L32.7572 -55.3763
L33.0766 -55.3925
L33.3975 -55.4067
L33.72 -55.4187
L34.0442 -55.4287
L34.3699 -55.4364
L34.6973 -55.442
L35.0263 -55.4455
L35.3569 -55.4467
L35.6893 -55.4458
L36.0232 -55.4427
L36.3588 -55.4373
L36.6961 -55.4298
L37.035 -55.42
L37.3755 -55.4081
L37.7176 -55.3939
L38.0613 -55.3775
L38.4065 -55.3588
L38.7533 -55.338
L39.1015 -55.315
L39.4513 -55.2899
L39.8024 -55.2626
L40.1549 -55.2331
L40.5086 -55.2016
L40.8636 -55.168
L41.2198 -55.1325
L41.577 -55.095
L41.9353 -55.0556
L42.2944 -55.0143
L42.6544 -54.9714
L43.0151 -54.9267
L43.3764 -54.8806
L43.7382 -54.8329
L44.1003 -54.784
L44.4627 -54.7339
L44.8252 -54.6827
L45.1876 -54.6306
L45.5498 -54.5778
L45.9116 -54.5244
L46.2729 -54.4708
L46.6334 -54.417
L46.9931 -54.3633
L47.3517 -54.31
L47.709 -54.2573
L48.0648 -54.2055
L48.419 -54.1549
L48.7713 -54.1057
L49.1215 -54.0583
L49.4694 -54.013
L49.8148 -53.9702
L50.1574 -53.9301
L50.4971 -53.893
L50.8337 -53.8594
L51.1669 -53.8295
L51.4965 -53.8037
L51.8224 -53.7823
L52.1442 -53.7657
L52.4619 -53.754
L52.7752 -53.7476
L53.084 -53.7468
L53.388 -53.7518
L53.6871 -53.7628
L53.9812 -53.7799
L54.2701 -53.8034
L54.5536 -53.8334
L54.8316 -53.87
L55.104 -53.9132
L55.3707 -53.963
L55.6316 -54.0196
L55.8866 -54.0828
L56.1355 -54.1526
L56.3784 -54.229
L56.6151 -54.3118
L56.8456 -54.401
L57.0699 -54.4964
L57.2878 -54.5978
L57.1716 -54.705
L56.8354 -55.0792
L56.4928 -55.4458
L56.144 -55.8064
L55.7891 -56.1611
L55.4281 -56.5095
L55.0613 -56.8518
L54.6886 -57.1877
L54.3102 -57.5171
L53.9263 -57.84
L53.5369 -58.1562
L53.1421 -58.4657
L52.7421 -58.7684
L52.3371 -59.0641
L51.927 -59.3527
L51.5121 -59.6343
L51.0925 -59.9087
L50.6683 -60.1758
L50.2396 -60.4355
L49.8065 -60.6877
L49.3693 -60.9325
L48.928 -61.1697
L48.4828 -61.3992
L48.0337 -61.6209
L47.581 -61.8349
L47.1247 -62.0409
L46.6651 -62.2391
L46.2022 -62.4292
L45.7363 -62.6114
L45.2673 -62.7854
L44.7955 -62.9512
L44.3211 -63.1088
L43.8441 -63.2582
L43.3647 -63.3993
L42.8831 -63.532
L42.3994 -63.6563
L41.9137 -63.7723
L41.4262 -63.8797
L40.9371 -63.9787
L40.4465 -64.0691
L39.9545 -64.151
L39.4613 -64.2243
L38.9671 -64.289
L38.4719 -64.3451
L37.976 -64.3926
L37.4795 -64.4314
L36.9826 -64.4616
L36.4854 -64.4831
L35.988 -64.4959
L35.4906 -64.5
L34.9933 -64.4954
L34.4964 -64.4822
L33.9999 -64.4603
L33.5041 -64.4297
L33.009 -64.3905
L32.5148 -64.3426
L32.0216 -64.2861
L31.5297 -64.221
L31.0392 -64.1472
L30.5501 -64.0649
L30.0627 -63.9741
L29.5772 -63.8747
L29.0935 -63.7668
L28.612 -63.6505
L28.1328 -63.5258
L27.6559 -63.3926
L27.1816 -63.2512
L26.7099 -63.1014
L26.2411 -62.9434
L25.7753 -62.7771
L25.3125 -62.6027
L24.8531 -62.4202
L24.397 -62.2297
L23.9445 -62.0311
L23.4956 -61.8247
L23.0505 -61.6103
L22.6094 -61.3882
L22.1724 -61.1583
L21.7396 -60.9208
L21.3111 -60.6757
L20.8871 -60.4231
L20.4677 -60.163
L20.053 -59.8955
L19.6432 -59.6208
L19.2384 -59.3389
L18.8387 -59.0499
L18.4442 -58.7539
L18.055 -58.4509
L17.6713 -58.1411
L17.2932 -57.8245
L16.9208 -57.5013
L16.5542 -57.1716
L16.1936 -56.8354
L15.8389 -56.4928
L15.4905 -56.144
L15.1482 -55.7891
L14.8123 -55.4281
L14.4829 -55.0613
L14.16 -54.6886
L13.8438 -54.3102
L13.5343 -53.9263
L13.2316 -53.5369
L12.9359 -53.1421
L12.6473 -52.7421
L12.3657 -52.3371
L12.0913 -51.927
L11.8242 -51.5121
L11.5645 -51.0925
L11.3123 -50.6683
L11.0675 -50.2396
L10.8303 -49.8065
L10.6008 -49.3693
L10.3791 -48.928
L10.1651 -48.4828
L9.95906 -48.0337
L9.76091 -47.581
z
" id="C0_2_881ceb1de4"/>
    </defs>
    <g clip-path="url(#p1bffca34e9)">
     <use style="fill:#ff0000;stroke:#000000;stroke-width:2.0;" x="0.0" xlink:href="#C0_0_a811fe30f3" y="72.0"/>
    </g>
    <g clip-path="url(#p1bffca34e9)">
     <use style="fill:#ffffff;stroke:#000000;stroke-width:2.0;" x="0.0" xlink:href="#C0_1_78a856ab3a" y="72.0"/>
    </g>
    <g clip-path="url(#p1bffca34e9)">
     <use style="fill:#ffffff;stroke:#000000;stroke-width:2.0;" x="0.0" xlink:href="#C0_2_881ceb1de4" y="72.0"/>
    </g>
   </g>
  </g>
 </g>
 <defs>
  <clipPath id="p1bffca34e9">
   <rect height="72.0" width="72.0" x="0.0" y="0.0"/>
  </clipPath>
 </defs>
</svg>
