<?xml version="1.0" encoding="utf-8" standalone="no"?>
<!DOCTYPE svg PUBLIC "-//W3C//DTD SVG 1.1//EN"
  "http://www.w3.org/Graphics/SVG/1.1/DTD/svg11.dtd">
<!-- Created with matplotlib (http://matplotlib.org/) -->
<svg height="72pt" version="1.1" viewBox="0 0 72 72" width="72pt" xmlns="http://www.w3.org/2000/svg" xmlns:xlink="http://www.w3.org/1999/xlink">
 <defs>
  <style type="text/css">
*{stroke-linecap:butt;stroke-linejoin:round;}
  </style>
 </defs>
 <g id="figure_1">
  <g id="patch_1">
   <path d="
M0 72
L72 72
L72 0
L0 0
z
" style="fill:none;"/>
  </g>
  <g id="axes_1">
   <g id="PatchCollection_1">
    <defs>
     <path d="
M36 -7.5
C43.5583 -7.5 50.808 -10.5029 56.1525 -15.8475
C61.4971 -21.192 64.5 -28.4417 64.5 -36
C64.5 -43.5583 61.4971 -50.808 56.1525 -56.1525
C50.808 -61.4971 43.5583 -64.5 36 -64.5
C28.4417 -64.5 21.192 -61.4971 15.8475 -56.1525
C10.5029 -50.808 7.5 -43.5583 7.5 -36
C7.5 -28.4417 10.5029 -21.192 15.8475 -15.8475
C21.192 -10.5029 28.4417 -7.5 36 -7.5
z
" id="C0_0_a811fe30f3"/>
     <path d="
M33.7427 -7.80187
L33.6903 -8.04453
L33.6606 -8.28959
L33.6528 -8.53682
L33.6659 -8.78605
L33.6986 -9.03714
L33.7497 -9.28999
L33.8179 -9.5445
L33.9018 -9.80062
L34.0003 -10.0583
L34.1118 -10.3175
L34.2353 -10.5781
L34.3693 -10.8402
L34.5128 -11.1037
L34.6647 -11.3685
L34.8239 -11.6346
L34.9895 -11.9019
L35.1605 -12.1704
L35.3362 -12.44
L35.5158 -12.7106
L35.6987 -12.982
L35.8841 -13.2544
L36.0716 -13.5274
L36.2606 -13.8011
L36.4507 -14.0754
L36.6414 -14.3501
L36.8325 -14.6251
L37.0234 -14.9004
L37.2141 -15.1759
L37.4041 -15.4514
L37.5933 -15.727
L37.7815 -16.0024
L37.9684 -16.2776
L38.154 -16.5526
L38.3381 -16.8273
L38.5205 -17.1015
L38.7012 -17.3753
L38.8801 -17.6485
L39.0571 -17.9212
L39.2322 -18.1933
L39.4052 -18.4646
L39.5763 -18.7353
L39.7452 -19.0052
L39.9121 -19.2743
L40.0769 -19.5426
L40.2396 -19.81
L40.4002 -20.0766
L40.5587 -20.3424
L40.7151 -20.6072
L40.8694 -20.8712
L41.0216 -21.1342
L41.1718 -21.3964
L41.32 -21.6577
L41.4662 -21.918
L41.6104 -22.1775
L41.7526 -22.4361
L41.8929 -22.6939
L42.0314 -22.9508
L42.1679 -23.2069
L42.3027 -23.4622
L42.4357 -23.7167
L42.5668 -23.9705
L42.6963 -24.2235
L42.8241 -24.4758
L42.9502 -24.7274
L43.0747 -24.9784
L43.1976 -25.2287
L43.3189 -25.4785
L43.4388 -25.7277
L43.5571 -25.9764
L43.674 -26.2247
L43.7894 -26.4725
L43.9034 -26.7199
L44.0161 -26.9669
L44.1275 -27.2136
L44.2375 -27.46
L44.3463 -27.7062
L44.4539 -27.9522
L44.5602 -28.198
L44.6653 -28.4438
L44.7693 -28.6894
L44.8721 -28.935
L44.9739 -29.1807
L45.0745 -29.4264
L45.1741 -29.6723
L45.2726 -29.9183
L45.3702 -30.1645
L45.4667 -30.411
L45.6569 -30.6578
L45.7506 -30.9049
L45.8434 -31.1525
L45.9353 -31.4004
L46.0263 -31.6489
L46.1165 -31.898
L46.2058 -32.1477
L46.2943 -32.398
L46.3819 -32.649
L46.4688 -32.9007
L46.5548 -33.1533
L46.6401 -33.4067
L46.7246 -33.6611
L46.8084 -33.9164
L46.8914 -34.1727
L46.9737 -34.4301
L47.0552 -34.6886
L47.136 -34.9482
L47.2161 -35.2091
L47.2954 -35.4713
L47.3741 -35.7348
L47.452 -35.9996
L47.5292 -36.2659
L47.6057 -36.5336
L47.6815 -36.8029
L47.7566 -37.0738
L47.831 -37.3463
L47.9046 -37.6204
L47.9775 -37.8963
L48.0497 -38.1739
L48.1212 -38.4533
L48.1919 -38.7346
L48.2619 -39.0178
L48.3312 -39.303
L48.3996 -39.5901
L48.4673 -39.8792
L48.5343 -40.1703
L48.6004 -40.4636
L48.6657 -40.7589
L48.7302 -41.0564
L48.7939 -41.356
L48.8568 -41.6578
L48.9188 -41.9618
L48.98 -42.268
L49.0403 -42.5765
L49.0997 -42.8871
L49.1582 -43.1999
L49.2159 -43.5149
L49.2726 -43.8321
L49.3285 -44.1514
L49.3834 -44.4728
L49.4375 -44.7963
L49.4907 -45.1218
L49.543 -45.4493
L49.5945 -45.7786
L49.6451 -46.1098
L49.695 -46.4427
L49.7441 -46.7771
L49.7925 -47.113
L49.8403 -47.4503
L49.8875 -47.7887
L49.9343 -48.1281
L49.9807 -48.4683
L50.027 -48.8092
L50.0731 -49.1503
L50.1194 -49.4916
L50.166 -49.8327
L50.2131 -50.1732
L50.261 -50.513
L50.31 -50.8515
L50.3604 -51.1885
L50.4126 -51.5233
L50.4671 -51.8557
L50.5243 -52.1851
L50.5847 -52.5109
L50.6489 -52.8326
L50.7175 -53.1495
L50.7912 -53.461
L50.8708 -53.7664
L50.9569 -54.0649
L51.0504 -54.3557
L51.1522 -54.638
L51.2631 -54.9111
L51.384 -55.174
L51.5156 -55.4258
L51.659 -55.6657
L51.8148 -55.8927
L51.9837 -56.1061
L52.1663 -56.3051
L52.3631 -56.4887
L52.5744 -56.6565
L52.8005 -56.8076
L53.0413 -56.9416
L53.2967 -57.058
L53.5664 -57.1564
L53.8499 -57.2367
L54.1468 -57.2985
L54.4564 -57.3418
L54.7777 -57.3666
L55.1815 -57.373
L55.5464 -57.0789
L55.9054 -56.741
L56.2584 -56.3967
L56.6051 -56.0462
L56.9456 -55.6896
L57.2797 -55.327
L57.6074 -54.9585
L57.9284 -54.5842
L58.2428 -54.2043
L58.5504 -53.8188
L58.8511 -53.4279
L59.1449 -53.0317
L59.4316 -52.6303
L59.7111 -52.2238
L59.9835 -51.8124
L60.2485 -51.3962
L60.5062 -50.9753
L60.7564 -50.5498
L60.9991 -50.1199
L61.2341 -49.6857
L61.4614 -49.2473
L61.681 -48.8049
L61.8928 -48.3586
L62.0967 -47.9085
L62.2926 -47.4548
L62.4806 -46.9976
L62.6604 -46.537
L62.8322 -46.0733
L62.9958 -45.6065
L63.1511 -45.1367
L63.2982 -44.6642
L63.4369 -44.189
L63.5673 -43.7113
L63.6893 -43.2313
L63.8029 -42.7491
L63.908 -42.2648
L64.0046 -41.7786
L64.0927 -41.2907
L64.1722 -40.8011
L64.2431 -40.3101
L64.3055 -39.8178
L64.3592 -39.3243
L64.4042 -38.8298
L64.4406 -38.3344
L64.4684 -37.8384
L64.4875 -37.3417
L64.4979 -36.8447
L64.4996 -36.3474
L64.4926 -35.85
L64.477 -35.3526
L64.4527 -34.8554
L64.4197 -34.3586
L64.3781 -33.8623
L64.3278 -33.3666
L64.2689 -32.8718
L64.2014 -32.3779
L64.1253 -31.885
L64.0406 -31.3935
L63.9474 -30.9033
L63.8456 -30.4147
L63.7354 -29.9278
L63.6167 -29.4428
L63.4897 -28.9597
L63.3542 -28.4788
L63.2104 -28.0002
L63.0584 -27.524
L62.8981 -27.0504
L62.7296 -26.5796
L62.5529 -26.1116
L62.3682 -25.6466
L62.1754 -25.1848
L61.9747 -24.7262
L61.766 -24.2711
L61.5495 -23.8196
L61.3252 -23.3717
L61.0932 -22.9278
L60.8536 -22.4878
L60.6064 -22.0519
L60.3517 -21.6203
L60.0895 -21.193
L59.8201 -20.7703
L59.5433 -20.3522
L59.2595 -19.9388
L58.9685 -19.5304
L58.6705 -19.127
L58.3656 -18.7287
L58.0539 -18.3357
L57.7355 -17.948
L57.4105 -17.5659
L57.0789 -17.1893
L56.741 -16.8185
L56.3967 -16.4536
L56.0462 -16.0946
L55.6896 -15.7416
L55.327 -15.3949
L54.9585 -15.0544
L54.5842 -14.7203
L54.2043 -14.3926
L53.8188 -14.0716
L53.4279 -13.7572
L53.0317 -13.4496
L52.6303 -13.1489
L52.2238 -12.8551
L51.8124 -12.5684
L51.3962 -12.2889
L50.9753 -12.0165
L50.5498 -11.7515
L50.1199 -11.4938
L49.6857 -11.2436
L49.2473 -11.0009
L48.8049 -10.7659
L48.3586 -10.5386
L47.9085 -10.319
L47.4548 -10.1072
L46.9976 -9.90329
L46.537 -9.70735
L46.0733 -9.51942
L45.6065 -9.33956
L45.1367 -9.16782
L44.6642 -9.00425
L44.189 -8.8489
L43.7113 -8.70183
L43.2313 -8.56307
L42.7491 -8.43266
L42.2648 -8.31066
L41.7786 -8.19709
L41.2907 -8.09199
L40.8011 -7.99538
L40.3101 -7.90731
L39.8178 -7.8278
L39.3243 -7.75687
L38.8298 -7.69454
L38.3344 -7.64084
L37.8384 -7.59577
L37.3417 -7.55935
L36.8447 -7.5316
L36.3474 -7.51252
L35.85 -7.50212
L35.3526 -7.50039
L34.8554 -7.50735
L34.3586 -7.52299
z
" id="C0_1_df07353e62"/>
     <path d="
M17.1061 -14.8805
L17.048 -15.2176
L16.9832 -15.5626
L16.9128 -15.9148
L16.838 -16.2736
L16.7599 -16.6382
L16.6792 -17.008
L16.5969 -17.3825
L16.5138 -17.7609
L16.4305 -18.1429
L16.3478 -18.5277
L16.2662 -18.915
L16.1861 -19.3043
L16.108 -19.6951
L16.0324 -20.0869
L15.9594 -20.4795
L15.8895 -20.8725
L15.8228 -21.2654
L15.7595 -21.658
L15.6997 -22.0501
L15.6437 -22.4413
L15.5914 -22.8314
L15.5431 -23.2202
L15.4986 -23.6076
L15.458 -23.9932
L15.4214 -24.3769
L15.3887 -24.7587
L15.3599 -25.1383
L15.3351 -25.5156
L15.3141 -25.8907
L15.2968 -26.2632
L15.2834 -26.6333
L15.2736 -27.0007
L15.2674 -27.3655
L15.2649 -27.7276
L15.2658 -28.087
L15.2701 -28.4437
L15.2778 -28.7976
L15.2888 -29.1486
L15.303 -29.497
L15.3203 -29.8425
L15.3407 -30.1852
L15.3641 -30.5252
L15.3904 -30.8625
L15.4195 -31.197
L15.4515 -31.5288
L15.4862 -31.858
L15.5236 -32.1845
L15.5636 -32.5085
L15.6061 -32.8298
L15.6512 -33.1487
L15.6987 -33.4651
L15.7486 -33.7791
L15.8008 -34.0907
L15.8554 -34.3999
L15.9122 -34.7069
L15.9713 -35.0117
L16.0326 -35.3143
L16.096 -35.6148
L16.1615 -35.9132
L16.2292 -36.2096
L16.2989 -36.504
L16.3706 -36.7966
L16.4444 -37.0873
L16.5202 -37.3762
L16.598 -37.6634
L16.6777 -37.9489
L16.7594 -38.2329
L16.8431 -38.5152
L16.9287 -38.796
L17.0162 -39.0754
L17.1057 -39.3534
L17.1971 -39.6301
L17.2904 -39.9054
L17.3857 -40.1796
L17.4829 -40.4525
L17.582 -40.7244
L17.6831 -40.9951
L17.7862 -41.2649
L17.8912 -41.5336
L17.9982 -41.8015
L18.1072 -42.0684
L18.2182 -42.3346
L18.3313 -42.6
L18.4464 -42.8646
L18.5636 -43.1286
L18.683 -43.392
L18.8044 -43.6547
L18.9281 -43.917
L19.0539 -44.1787
L19.1819 -44.44
L19.3123 -44.7008
L19.4449 -44.9613
L19.5798 -45.2214
L19.7172 -45.4813
L19.8569 -45.7409
L19.9991 -46.0002
L20.1438 -46.2594
L20.2911 -46.5184
L20.4409 -46.7773
L20.5934 -47.0361
L20.7486 -47.2948
L20.9066 -47.5535
L21.0673 -47.8121
L21.2309 -48.0708
L21.3974 -48.3295
L21.5669 -48.5882
L21.7394 -48.847
L21.915 -49.1059
L22.0937 -49.3649
L22.2757 -49.624
L22.4609 -49.8832
L22.6495 -50.1426
L22.8415 -50.402
L23.0369 -50.6616
L23.2358 -50.9213
L23.4383 -51.1811
L23.6445 -51.441
L23.8544 -51.701
L24.0681 -51.961
L24.2856 -52.2212
L24.507 -52.4813
L24.7323 -52.7414
L24.9617 -53.0016
L25.1951 -53.2616
L25.4325 -53.5215
L25.6742 -53.7813
L25.92 -54.0409
L26.17 -54.3002
L26.4242 -54.5592
L26.6827 -54.8178
L26.9455 -55.076
L27.2125 -55.3337
L27.4837 -55.5907
L27.7592 -55.8471
L28.0389 -56.1028
L28.3227 -56.3575
L28.6106 -56.6114
L28.9025 -56.8642
L29.1983 -57.1159
L29.4979 -57.3664
L29.8011 -57.6156
L30.1077 -57.8633
L30.4176 -58.1096
L30.7305 -58.3542
L31.0462 -58.5972
L31.3643 -58.8384
L31.6845 -59.0777
L32.0064 -59.3152
L32.3296 -59.5507
L32.6537 -59.7842
L32.9779 -60.0156
L33.3019 -60.2451
L33.6249 -60.4725
L33.9462 -60.6979
L34.265 -60.9215
L34.5805 -61.1432
L34.8918 -61.3632
L35.1978 -61.5817
L35.4976 -61.7988
L35.79 -62.0147
L36.0739 -62.2298
L36.3481 -62.4442
L36.6113 -62.6583
L36.8623 -62.8724
L37.0998 -63.0867
L37.3227 -63.3017
L37.5296 -63.5176
L37.7196 -63.7346
L37.8915 -63.953
L38.0446 -64.1731
L37.6833 -64.3949
L37.1865 -64.4502
L36.6894 -64.4753
L36.192 -64.4917
L35.6946 -64.4994
L35.1973 -64.4984
L34.7002 -64.4887
L34.2035 -64.4703
L33.7074 -64.4433
L33.212 -64.4076
L32.7174 -64.3633
L32.2238 -64.3103
L31.7314 -64.2487
L31.2402 -64.1785
L30.7506 -64.0997
L30.2625 -64.0124
L29.7761 -63.9165
L29.2917 -63.8121
L28.8093 -63.6993
L28.3291 -63.578
L27.8512 -63.4483
L27.3758 -63.3102
L26.9031 -63.1638
L26.4331 -63.0092
L25.966 -62.8463
L25.502 -62.6752
L25.0412 -62.4961
L24.5837 -62.3088
L24.1297 -62.1136
L23.6793 -61.9103
L23.2326 -61.6992
L22.7899 -61.4803
L22.3512 -61.2536
L21.9166 -61.0192
L21.4863 -60.7772
L21.0605 -60.5276
L20.6392 -60.2706
L20.2225 -60.0061
L19.8107 -59.7344
L19.4038 -59.4554
L19.002 -59.1693
L18.6054 -58.8762
L18.214 -58.576
L17.8281 -58.269
L17.4477 -57.9552
L17.0729 -57.6347
L16.7039 -57.3076
L16.3408 -56.9741
L15.9837 -56.6341
L15.6327 -56.2879
L15.2878 -55.9354
L14.9493 -55.5769
L14.6172 -55.2125
L14.2917 -54.8422
L13.9727 -54.4661
L13.6604 -54.0844
L13.355 -53.6973
L13.0564 -53.3047
L12.7648 -52.9068
L12.4803 -52.5038
L12.203 -52.0958
L11.9329 -51.6829
L11.6702 -51.2652
L11.4148 -50.8428
L11.167 -50.416
L10.9267 -49.9847
L10.6941 -49.5492
L10.4691 -49.1095
L10.252 -48.6659
L10.0426 -48.2184
L9.84123 -47.7671
L9.64779 -47.3123
L9.46237 -46.8541
L9.28504 -46.3925
L9.11584 -45.9278
L8.95484 -45.46
L8.80207 -44.9894
L8.65759 -44.516
L8.52143 -44.0401
L8.39365 -43.5616
L8.27428 -43.0809
L8.16335 -42.598
L8.0609 -42.1132
L7.96696 -41.6264
L7.88156 -41.138
L7.80472 -40.6479
L7.73648 -40.1565
L7.67684 -39.6638
L7.62583 -39.17
L7.58346 -38.6752
L7.54975 -38.1796
L7.52471 -37.6833
L7.50834 -37.1865
L7.50065 -36.6894
L7.50164 -36.192
L7.51131 -35.6946
L7.52966 -35.1973
L7.55668 -34.7002
L7.59236 -34.2035
L7.6367 -33.7074
L7.68968 -33.212
L7.75128 -32.7174
L7.82148 -32.2238
L7.90027 -31.7314
L7.98762 -31.2402
L8.0835 -30.7506
L8.18789 -30.2625
L8.30075 -29.7761
L8.42204 -29.2917
L8.55174 -28.8093
L8.68979 -28.3291
L8.83617 -27.8512
L8.99082 -27.3758
L9.1537 -26.9031
L9.32475 -26.4331
L9.50393 -25.966
L9.69118 -25.502
L9.88645 -25.0412
L10.0897 -24.5837
L10.3008 -24.1297
L10.5197 -23.6793
L10.7464 -23.2326
L10.9808 -22.7899
L11.2228 -22.3512
L11.4724 -21.9166
L11.7294 -21.4863
L11.9939 -21.0605
L12.2656 -20.6392
L12.5446 -20.2225
L12.8307 -19.8107
L13.1238 -19.4038
L13.424 -19.002
L13.731 -18.6054
L14.0448 -18.214
L14.3653 -17.8281
L14.6924 -17.4477
L15.0259 -17.0729
L15.3659 -16.7039
L15.7121 -16.3408
L16.0646 -15.9837
L16.4231 -15.6327
z
" id="C0_2_d16a6babfd"/>
    </defs>
    <g clip-path="url(#p1bffca34e9)">
     <use style="fill:#ff0000;stroke:#000000;stroke-width:2.0;" x="0.0" xlink:href="#C0_0_a811fe30f3" y="72.0"/>
    </g>
    <g clip-path="url(#p1bffca34e9)">
     <use style="fill:#ffffff;stroke:#000000;stroke-width:2.0;" x="0.0" xlink:href="#C0_1_df07353e62" y="72.0"/>
    </g>
    <g clip-path="url(#p1bffca34e9)">
     <use style="fill:#ffffff;stroke:#000000;stroke-width:2.0;" x="0.0" xlink:href="#C0_2_d16a6babfd" y="72.0"/>
    </g>
   </g>
  </g>
 </g>
 <defs>
  <clipPath id="p1bffca34e9">
   <rect height="72.0" width="72.0" x="0.0" y="0.0"/>
  </clipPath>
 </defs>
</svg>
