<?xml version="1.0" encoding="utf-8" standalone="no"?>
<!DOCTYPE svg PUBLIC "-//W3C//DTD SVG 1.1//EN"
  "http://www.w3.org/Graphics/SVG/1.1/DTD/svg11.dtd">
<!-- Created with matplotlib (http://matplotlib.org/) -->
<svg height="72pt" version="1.1" viewBox="0 0 72 72" width="72pt" xmlns="http://www.w3.org/2000/svg" xmlns:xlink="http://www.w3.org/1999/xlink">
 <defs>
  <style type="text/css">
*{stroke-linecap:butt;stroke-linejoin:round;}
  </style>
 </defs>
 <g id="figure_1">
  <g id="patch_1">
   <path d="
M0 72
L72 72
L72 0
L0 0
z
" style="fill:none;"/>
  </g>
  <g id="axes_1">
   <g id="PatchCollection_1">
    <defs>
     <path d="
M36 -7.5
C43.5583 -7.5 50.808 -10.5029 56.1525 -15.8475
C61.4971 -21.192 64.5 -28.4417 64.5 -36
C64.5 -43.5583 61.4971 -50.808 56.1525 -56.1525
C50.808 -61.4971 43.5583 -64.5 36 -64.5
C28.4417 -64.5 21.192 -61.4971 15.8475 -56.1525
C10.5029 -50.808 7.5 -43.5583 7.5 -36
C7.5 -28.4417 10.5029 -21.192 15.8475 -15.8475
C21.192 -10.5029 28.4417 -7.5 36 -7.5
z
" id="C0_0_a811fe30f3"/>
     <path d="
M59.2082 -52.5226
L59.0045 -52.3582
L58.8046 -52.1822
L58.608 -51.9961
L58.4142 -51.8009
L58.2229 -51.5976
L58.0336 -51.3874
L57.846 -51.171
L57.66 -50.9492
L57.4751 -50.7229
L57.2912 -50.4926
L57.1082 -50.259
L56.9259 -50.0226
L56.7442 -49.784
L56.5629 -49.5435
L56.3821 -49.3015
L56.2015 -49.0585
L56.0213 -48.8148
L55.8413 -48.5706
L55.6615 -48.3262
L55.482 -48.0819
L55.3026 -47.8378
L55.1234 -47.5942
L54.9444 -47.3511
L54.7656 -47.1089
L54.587 -46.8675
L54.4086 -46.6272
L54.2304 -46.3879
L54.0525 -46.1499
L53.8747 -45.9131
L53.6973 -45.6776
L53.5201 -45.4435
L53.3431 -45.2109
L53.1665 -44.9797
L52.9901 -44.75
L52.814 -44.5218
L52.6382 -44.2952
L52.4628 -44.0701
L52.2876 -43.8465
L52.1127 -43.6245
L51.9382 -43.404
L51.7639 -43.1851
L51.59 -42.9677
L51.4163 -42.7517
L51.243 -42.5373
L51.0699 -42.3243
L50.8971 -42.1127
L50.7246 -41.9026
L50.5523 -41.6939
L50.3802 -41.4865
L50.2084 -41.2804
L50.0368 -41.0756
L49.8654 -40.8721
L49.6942 -40.6698
L49.5231 -40.4687
L49.3522 -40.2688
L49.1813 -40.07
L49.0106 -39.8722
L48.8399 -39.6755
L48.6693 -39.4798
L48.4988 -39.2851
L48.3282 -39.0913
L48.1576 -38.8983
L47.9869 -38.7062
L47.8161 -38.515
L47.6453 -38.3245
L47.4743 -38.1347
L47.3031 -37.9456
L47.1318 -37.7571
L46.9602 -37.5692
L46.7883 -37.3819
L46.6162 -37.1952
L46.4437 -37.0089
L46.2709 -36.823
L46.0977 -36.6376
L45.924 -36.4525
L45.7499 -36.2677
L45.4002 -36.0832
L45.2244 -35.899
L45.0481 -35.7149
L44.8712 -35.5311
L44.6935 -35.3473
L44.5152 -35.1636
L44.3361 -34.98
L44.1561 -34.7964
L43.9754 -34.6127
L43.7938 -34.429
L43.6112 -34.2451
L43.4277 -34.0611
L43.2432 -33.8769
L43.0576 -33.6925
L42.871 -33.5078
L42.6833 -33.3228
L42.4943 -33.1375
L42.3042 -32.9518
L42.1128 -32.7657
L41.9201 -32.5792
L41.7261 -32.3921
L41.5307 -32.2045
L41.3339 -32.0164
L41.1356 -31.8277
L40.9358 -31.6384
L40.7345 -31.4484
L40.5315 -31.2577
L40.3269 -31.0663
L40.1207 -30.8741
L39.9127 -30.6811
L39.703 -30.4873
L39.4914 -30.2927
L39.2781 -30.0971
L39.0628 -29.9007
L38.8457 -29.7033
L38.6266 -29.505
L38.4055 -29.3056
L38.1825 -29.1053
L37.9574 -28.9039
L37.7302 -28.7014
L37.501 -28.4979
L37.2697 -28.2932
L37.0363 -28.0875
L36.8008 -27.8806
L36.5631 -27.6725
L36.3234 -27.4633
L36.0815 -27.2529
L35.8375 -27.0413
L35.5915 -26.8285
L35.3434 -26.6145
L35.0932 -26.3993
L34.8411 -26.1829
L34.5871 -25.9653
L34.3312 -25.7465
L34.0736 -25.5264
L33.8142 -25.3052
L33.5533 -25.0827
L33.2909 -24.8591
L33.0272 -24.6342
L32.7624 -24.4082
L32.4966 -24.181
L32.23 -23.9526
L31.9628 -23.7231
L31.6953 -23.4924
L31.4279 -23.2605
L31.1607 -23.0275
L30.8942 -22.7933
L30.6287 -22.5579
L30.3647 -22.3214
L30.1027 -22.0836
L29.8431 -21.8445
L29.5866 -21.6042
L29.3338 -21.3625
L29.0853 -21.1193
L28.842 -20.8746
L28.6047 -20.6283
L28.3741 -20.3803
L28.1514 -20.1303
L27.9375 -19.8783
L27.7335 -19.624
L27.5406 -19.3673
L27.3599 -19.108
L27.1927 -18.8457
L27.0403 -18.5804
L26.9039 -18.3118
L26.7848 -18.0396
L26.684 -17.7637
L26.6028 -17.484
L26.5421 -17.2003
L26.5027 -16.9127
L26.4852 -16.6211
L26.4902 -16.3258
L26.5178 -16.0269
L26.5682 -15.7248
L26.641 -15.4198
L26.7362 -15.1125
L26.853 -14.8034
L26.9909 -14.4931
L27.1491 -14.1822
L27.3268 -13.8715
L27.523 -13.5617
L27.7369 -13.2533
L27.9674 -12.9471
L28.2136 -12.6438
L28.4746 -12.3439
L28.7493 -12.0481
L29.0369 -11.7569
L29.3366 -11.4708
L29.6474 -11.1903
L29.9686 -10.9158
L30.2995 -10.6477
L30.6392 -10.3864
L30.9871 -10.1321
L31.3426 -9.8851
L31.7051 -9.64568
L32.0739 -9.41402
L32.4486 -9.19029
L32.8286 -8.97464
L33.2134 -8.76718
L33.6025 -8.56801
L33.9956 -8.3772
L34.3923 -8.19479
L34.7921 -8.02083
L35.1947 -7.85533
L35.5997 -7.69829
L36.0965 -7.54969
L36.5939 -7.50016
L37.0911 -7.50619
L37.5879 -7.52089
L38.0843 -7.54427
L38.5801 -7.57632
L39.075 -7.61702
L39.569 -7.66637
L40.062 -7.72436
L40.5537 -7.79095
L41.044 -7.86614
L41.5327 -7.9499
L42.0198 -8.0422
L42.5051 -8.14302
L42.9884 -8.25232
L43.4695 -8.37007
L43.9484 -8.49625
L44.4248 -8.6308
L44.8987 -8.77368
L45.3699 -8.92486
L45.8382 -9.08429
L46.3035 -9.25192
L46.7657 -9.42769
L47.2246 -9.61156
L47.6801 -9.80347
L48.132 -10.0034
L48.5802 -10.2112
L49.0246 -10.4268
L49.4651 -10.6503
L49.9014 -10.8814
L50.3335 -11.1203
L50.7612 -11.3667
L51.1844 -11.6206
L51.6031 -11.8819
L52.0169 -12.1506
L52.4259 -12.4265
L52.8298 -12.7096
L53.2287 -12.9999
L53.6223 -13.2971
L54.0105 -13.6012
L54.3933 -13.9122
L54.7704 -14.2299
L55.1418 -14.5542
L55.5074 -14.8851
L55.8671 -15.2223
L56.2207 -15.566
L56.5681 -15.9158
L56.9093 -16.2718
L57.2441 -16.6337
L57.5724 -17.0016
L57.8942 -17.3752
L58.2093 -17.7546
L58.5176 -18.1395
L58.8191 -18.5298
L59.1136 -18.9254
L59.401 -19.3263
L59.6814 -19.7322
L59.9545 -20.1431
L60.2204 -20.5588
L60.4788 -20.9792
L60.7298 -21.4042
L60.9733 -21.8336
L61.2092 -22.2674
L61.4373 -22.7053
L61.6578 -23.1473
L61.8704 -23.5932
L62.0751 -24.0429
L62.2719 -24.4962
L62.4607 -24.953
L62.6415 -25.4132
L62.8141 -25.8767
L62.9785 -26.3432
L63.1348 -26.8126
L63.2827 -27.2848
L63.4224 -27.7597
L63.5537 -28.2371
L63.6766 -28.7169
L63.7911 -29.1989
L63.8971 -29.683
L63.9946 -30.1689
L64.0836 -30.6567
L64.1641 -31.1461
L64.2359 -31.6369
L64.2992 -32.1291
L64.3538 -32.6225
L64.3998 -33.1169
L64.4371 -33.6122
L64.4658 -34.1082
L64.4858 -34.6048
L64.4972 -35.1018
L64.4998 -35.5991
L64.4938 -36.0965
L64.4791 -36.5939
L64.4557 -37.0911
L64.4237 -37.5879
L64.383 -38.0843
L64.3336 -38.5801
L64.2756 -39.075
L64.209 -39.569
L64.1339 -40.062
L64.0501 -40.5537
L63.9578 -41.044
L63.857 -41.5327
L63.7477 -42.0198
L63.6299 -42.5051
L63.5038 -42.9884
L63.3692 -43.4695
L63.2263 -43.9484
L63.0751 -44.4248
L62.9157 -44.8987
L62.7481 -45.3699
L62.5723 -45.8382
L62.3884 -46.3035
L62.1965 -46.7657
L61.9966 -47.2246
L61.7888 -47.6801
L61.5732 -48.132
L61.3497 -48.5802
L61.1186 -49.0246
L60.8797 -49.4651
L60.6333 -49.9014
L60.3794 -50.3335
L60.1181 -50.7612
L59.8494 -51.1844
L59.5735 -51.6031
z
" id="C0_1_1412c9c1fa"/>
     <path d="
M35.9931 -64.4092
L35.5905 -64.2699
L35.1939 -64.1263
L34.8034 -63.9785
L34.4188 -63.8268
L34.0403 -63.6713
L33.6678 -63.5121
L33.3012 -63.3495
L32.9407 -63.1835
L32.586 -63.0145
L32.2371 -62.8424
L31.894 -62.6676
L31.5567 -62.49
L31.2249 -62.3098
L30.8987 -62.1272
L30.578 -61.9423
L30.2626 -61.7551
L29.9526 -61.5658
L29.6477 -61.3745
L29.3478 -61.1813
L29.053 -60.9862
L28.7631 -60.7893
L28.478 -60.5908
L28.1976 -60.3906
L27.9217 -60.1889
L27.6504 -59.9856
L27.3835 -59.7809
L27.1209 -59.5747
L26.8625 -59.3672
L26.6082 -59.1584
L26.3579 -58.9483
L26.1116 -58.7369
L25.8691 -58.5242
L25.6304 -58.3103
L25.3954 -58.0952
L25.1639 -57.8789
L24.936 -57.6614
L24.7114 -57.4427
L24.4902 -57.2229
L24.2723 -57.0019
L24.0576 -56.7796
L23.846 -56.5562
L23.6374 -56.3317
L23.4318 -56.1059
L23.2292 -55.8788
L23.0294 -55.6506
L22.8323 -55.4211
L22.6381 -55.1903
L22.4465 -54.9583
L22.2575 -54.7249
L22.071 -54.4902
L21.8871 -54.254
L21.7057 -54.0165
L21.5267 -53.7776
L21.35 -53.5372
L21.1757 -53.2953
L21.0037 -53.0518
L20.834 -52.8068
L20.6665 -52.5601
L20.5011 -52.3118
L20.3379 -52.0618
L20.1769 -51.81
L20.0179 -51.5564
L19.861 -51.301
L19.7062 -51.0437
L19.5534 -50.7844
L19.4026 -50.5232
L19.2539 -50.2599
L19.1071 -49.9945
L18.9623 -49.7269
L18.8194 -49.4571
L18.6786 -49.1851
L18.5396 -48.9107
L18.4027 -48.6339
L18.2677 -48.3547
L18.1347 -48.073
L18.0036 -47.7887
L17.8745 -47.5018
L17.7474 -47.2121
L17.6223 -46.9198
L17.4993 -46.6246
L17.3782 -46.3265
L17.2593 -46.0255
L17.1424 -45.7215
L17.0276 -45.4144
L16.915 -45.1042
L16.8046 -44.7908
L16.6964 -44.4741
L16.5905 -44.1541
L16.4869 -43.8308
L16.3856 -43.5041
L16.2867 -43.1738
L16.1903 -42.84
L16.0964 -42.5027
L16.005 -42.1617
L15.9163 -41.8171
L15.8302 -41.4687
L15.7469 -41.1166
L15.6664 -40.7607
L15.5888 -40.401
L15.5142 -40.0375
L15.4426 -39.6702
L15.374 -39.299
L15.3087 -38.9239
L15.2466 -38.545
L15.1878 -38.1623
L15.1324 -37.7758
L15.0804 -37.3855
L15.032 -36.9915
L14.9871 -36.5938
L14.946 -36.1926
L14.9085 -35.7879
L14.8747 -35.3797
L14.8448 -34.9683
L14.8186 -34.5538
L14.7963 -34.1363
L14.7778 -33.7159
L14.7631 -33.293
L14.7522 -32.8676
L14.745 -32.4401
L14.7414 -32.0107
L14.7413 -31.5797
L14.7446 -31.1474
L14.7511 -30.7143
L14.7606 -30.2805
L14.7728 -29.8467
L14.7873 -29.4131
L14.8039 -28.9804
L14.822 -28.549
L14.8413 -28.1195
L14.8611 -27.6925
L14.8807 -27.2686
L14.8996 -26.8485
L14.9169 -26.4329
L14.9318 -26.0225
L14.9433 -25.6181
L14.9506 -25.2205
L14.9524 -24.8305
L14.9479 -24.4488
L14.9359 -24.0763
L14.9154 -23.7137
L14.8854 -23.3618
L14.8448 -23.0211
L14.7929 -22.6925
L14.7289 -22.3762
L14.6524 -22.0729
L14.5628 -21.7827
L14.4599 -21.506
L14.3439 -21.2428
L14.2147 -20.9932
L14.0728 -20.7572
L13.9187 -20.5344
L13.7528 -20.3249
L13.5759 -20.1282
L13.3887 -19.9442
L13.1921 -19.7724
L12.4995 -19.6126
L12.2217 -19.8762
L11.9511 -20.2888
L11.6878 -20.7062
L11.432 -21.1282
L11.1836 -21.5548
L10.9428 -21.9858
L10.7097 -22.421
L10.4842 -22.8604
L10.2665 -23.3038
L10.0567 -23.751
L9.8547 -24.202
L9.66071 -24.6566
L9.47475 -25.1146
L9.29686 -25.5759
L9.12711 -26.0405
L8.96555 -26.508
L8.81222 -26.9784
L8.66717 -27.4516
L8.53045 -27.9274
L8.40209 -28.4057
L8.28214 -28.8863
L8.17064 -29.369
L8.06761 -29.8537
L7.97309 -30.3404
L7.88711 -30.8287
L7.80969 -31.3186
L7.74085 -31.81
L7.68063 -32.3026
L7.62903 -32.7964
L7.58608 -33.2911
L7.55178 -33.7867
L7.52614 -34.2829
L7.50918 -34.7796
L7.5009 -35.2768
L7.50129 -35.7741
L7.51037 -36.2715
L7.52813 -36.7688
L7.55456 -37.2659
L7.58965 -37.7626
L7.6334 -38.2588
L7.68579 -38.7543
L7.74681 -39.2489
L7.81643 -39.7426
L7.89463 -40.2351
L7.9814 -40.7263
L8.0767 -41.2161
L8.18051 -41.7043
L8.29279 -42.1908
L8.41351 -42.6754
L8.54264 -43.1579
L8.68012 -43.6383
L8.82593 -44.1163
L8.98002 -44.5919
L9.14234 -45.0648
L9.31284 -45.535
L9.49147 -46.0023
L9.67817 -46.4665
L9.87289 -46.9275
L10.0756 -47.3853
L10.2861 -47.8395
L10.5046 -48.2901
L10.7307 -48.737
L10.9646 -49.1801
L11.2061 -49.6191
L11.4552 -50.0539
L11.7117 -50.4845
L11.9756 -50.9106
L12.2468 -51.3323
L12.5253 -51.7492
L12.811 -52.1614
L13.1037 -52.5686
L13.4033 -52.9708
L13.7099 -53.3678
L14.0232 -53.7595
L14.3432 -54.1458
L14.6699 -54.5266
L15.003 -54.9017
L15.3425 -55.2711
L15.6884 -55.6346
L16.0404 -55.9922
L16.3984 -56.3436
L16.7625 -56.6889
L17.1324 -57.0278
L17.5081 -57.3603
L17.8894 -57.6864
L18.2762 -58.0058
L18.6684 -58.3185
L19.0659 -58.6244
L19.4685 -58.9235
L19.8762 -59.2155
L20.2888 -59.5005
L20.7062 -59.7783
L21.1282 -60.0489
L21.5548 -60.3122
L21.9858 -60.568
L22.421 -60.8164
L22.8604 -61.0572
L23.3038 -61.2903
L23.751 -61.5158
L24.202 -61.7335
L24.6566 -61.9433
L25.1146 -62.1453
L25.5759 -62.3393
L26.0405 -62.5253
L26.508 -62.7031
L26.9784 -62.8729
L27.4516 -63.0345
L27.9274 -63.1878
L28.4057 -63.3328
L28.8863 -63.4696
L29.369 -63.5979
L29.8537 -63.7179
L30.3404 -63.8294
L30.8287 -63.9324
L31.3186 -64.0269
L31.81 -64.1129
L32.3026 -64.1903
L32.7964 -64.2591
L33.2911 -64.3194
L33.7867 -64.371
L34.2829 -64.4139
L34.7796 -64.4482
L35.2768 -64.4739
z
" id="C0_2_43e25720d6"/>
    </defs>
    <g clip-path="url(#p1bffca34e9)">
     <use style="fill:#ffffff;stroke:#000000;stroke-width:2.0;" x="0.0" xlink:href="#C0_0_a811fe30f3" y="72.0"/>
    </g>
    <g clip-path="url(#p1bffca34e9)">
     <use style="fill:#ff0000;stroke:#000000;stroke-width:2.0;" x="0.0" xlink:href="#C0_1_1412c9c1fa" y="72.0"/>
    </g>
    <g clip-path="url(#p1bffca34e9)">
     <use style="fill:#ff0000;stroke:#000000;stroke-width:2.0;" x="0.0" xlink:href="#C0_2_43e25720d6" y="72.0"/>
    </g>
   </g>
  </g>
 </g>
 <defs>
  <clipPath id="p1bffca34e9">
   <rect height="72.0" width="72.0" x="0.0" y="0.0"/>
  </clipPath>
 </defs>
</svg>
