<?xml version="1.0" encoding="utf-8" standalone="no"?>
<!DOCTYPE svg PUBLIC "-//W3C//DTD SVG 1.1//EN"
  "http://www.w3.org/Graphics/SVG/1.1/DTD/svg11.dtd">
<!-- Created with matplotlib (http://matplotlib.org/) -->
<svg height="72pt" version="1.1" viewBox="0 0 72 72" width="72pt" xmlns="http://www.w3.org/2000/svg" xmlns:xlink="http://www.w3.org/1999/xlink">
 <defs>
  <style type="text/css">
*{stroke-linecap:butt;stroke-linejoin:round;}
  </style>
 </defs>
 <g id="figure_1">
  <g id="patch_1">
   <path d="
M0 72
L72 72
L72 0
L0 0
z
" style="fill:none;"/>
  </g>
  <g id="axes_1">
   <g id="PatchCollection_1">
    <defs>
     <path d="
M36 -7.5
C43.5583 -7.5 50.808 -10.5029 56.1525 -15.8475
C61.4971 -21.192 64.5 -28.4417 64.5 -36
C64.5 -43.5583 61.4971 -50.808 56.1525 -56.1525
C50.808 -61.4971 43.5583 -64.5 36 -64.5
C28.4417 -64.5 21.192 -61.4971 15.8475 -56.1525
C10.5029 -50.808 7.5 -43.5583 7.5 -36
C7.5 -28.4417 10.5029 -21.192 15.8475 -15.8475
C21.192 -10.5029 28.4417 -7.5 36 -7.5
z
" id="C0_0_a811fe30f3"/>
     <path d="
M53.1103 -13.3556
L53.2893 -13.6951
L53.4449 -14.0333
L53.5776 -14.3695
L53.6876 -14.7032
L53.7755 -15.034
L53.8421 -15.3616
L53.8882 -15.6856
L53.9147 -16.0059
L53.9225 -16.3223
L53.9128 -16.6348
L53.8864 -16.9433
L53.8445 -17.2478
L53.7881 -17.5485
L53.7183 -17.8453
L53.6359 -18.1384
L53.5419 -18.4278
L53.4373 -18.7136
L53.3229 -18.9959
L53.1994 -19.2749
L53.0677 -19.5505
L52.9284 -19.823
L52.7822 -20.0924
L52.6298 -20.3587
L52.4716 -20.6222
L52.3082 -20.8827
L52.1401 -21.1404
L51.9677 -21.3954
L51.7915 -21.6476
L51.6119 -21.8973
L51.4292 -22.1443
L51.2437 -22.3889
L51.0558 -22.6309
L50.8656 -22.8704
L50.6736 -23.1076
L50.4799 -23.3424
L50.2847 -23.5748
L50.0882 -23.8049
L49.8907 -24.0328
L49.6922 -24.2585
L49.493 -24.482
L49.2931 -24.7033
L49.0928 -24.9225
L48.892 -25.1396
L48.691 -25.3547
L48.4898 -25.5678
L48.2885 -25.7789
L48.0872 -25.9881
L47.8858 -26.1954
L47.6846 -26.4008
L47.4836 -26.6045
L47.2827 -26.8063
L47.0821 -27.0064
L46.8818 -27.2049
L46.6818 -27.4016
L46.4821 -27.5968
L46.2827 -27.7903
L46.0837 -27.9823
L45.8851 -28.1729
L45.6869 -28.3619
L45.489 -28.5496
L45.2916 -28.7358
L45.0945 -28.9208
L44.8978 -29.1044
L44.7015 -29.2868
L44.5056 -29.4679
L44.31 -29.6479
L44.1148 -29.8267
L43.9199 -30.0045
L43.7253 -30.1812
L43.531 -30.3568
L43.337 -30.5315
L43.1432 -30.7053
L42.9496 -30.8781
L42.7563 -31.0501
L42.5631 -31.2213
L42.3701 -31.3917
L42.1772 -31.5613
L41.9844 -31.7302
L41.7917 -31.8985
L41.599 -32.0661
L41.4063 -32.2331
L41.2136 -32.3996
L41.0208 -32.5655
L40.8279 -32.7309
L40.6349 -32.8959
L40.4417 -33.0605
L40.2484 -33.2247
L40.0548 -33.3885
L39.8609 -33.552
L39.4721 -33.7153
L39.2772 -33.8783
L39.0818 -34.0411
L38.886 -34.2037
L38.6897 -34.3661
L38.4928 -34.5284
L38.2954 -34.6907
L38.0973 -34.8529
L37.8985 -35.0151
L37.6991 -35.1773
L37.4989 -35.3395
L37.2978 -35.5018
L37.096 -35.6642
L36.8933 -35.8268
L36.6896 -35.9895
L36.485 -36.1523
L36.2794 -36.3154
L36.0727 -36.4787
L35.8649 -36.6423
L35.6559 -36.8062
L35.4458 -36.9704
L35.2344 -37.1349
L35.0217 -37.2997
L34.8078 -37.465
L34.5924 -37.6306
L34.3756 -37.7966
L34.1574 -37.9631
L33.9376 -38.13
L33.7163 -38.2974
L33.4934 -38.4653
L33.2688 -38.6336
L33.0425 -38.8025
L32.8145 -38.9718
L32.5848 -39.1416
L32.3532 -39.3119
L32.1197 -39.4828
L31.8843 -39.6541
L31.647 -39.826
L31.4077 -39.9983
L31.1664 -40.1711
L30.923 -40.3443
L30.6775 -40.518
L30.4299 -40.692
L30.1801 -40.8665
L29.9281 -41.0412
L29.6739 -41.2163
L29.4175 -41.3916
L29.1587 -41.5671
L28.8977 -41.7428
L28.6344 -41.9184
L28.3687 -42.0941
L28.1007 -42.2696
L27.8303 -42.445
L27.5576 -42.62
L27.2825 -42.7946
L27.005 -42.9686
L26.7252 -43.142
L26.4431 -43.3144
L26.1586 -43.4858
L25.8718 -43.656
L25.5828 -43.8247
L25.2915 -43.9918
L24.9979 -44.1569
L24.7022 -44.3199
L24.4044 -44.4803
L24.1045 -44.638
L23.8026 -44.7926
L23.4987 -44.9436
L23.1929 -45.0906
L22.8854 -45.2333
L22.5761 -45.3712
L22.2651 -45.5037
L21.9527 -45.6303
L21.6388 -45.7503
L21.3236 -45.8632
L21.0072 -45.9683
L20.6897 -46.0649
L20.3713 -46.1521
L20.0522 -46.2292
L19.7325 -46.2953
L19.4124 -46.3496
L19.0921 -46.3911
L18.7719 -46.419
L18.4519 -46.4323
L18.1325 -46.4301
L17.814 -46.4115
L17.4966 -46.3757
L17.1808 -46.322
L16.8669 -46.2496
L16.5554 -46.1579
L16.2466 -46.0467
L15.9411 -45.9154
L15.6393 -45.764
L15.3418 -45.5925
L15.0489 -45.401
L14.7613 -45.1899
L14.4794 -44.9596
L14.2036 -44.7107
L13.9345 -44.4438
L13.6725 -44.1598
L13.418 -43.8596
L13.1714 -43.5439
L12.9329 -43.2139
L12.703 -42.8704
L12.4818 -42.5145
L12.2697 -42.1471
L12.0668 -41.7692
L11.8734 -41.3817
L11.6894 -40.9856
L11.515 -40.5816
L11.3504 -40.1707
L11.1954 -39.7537
L11.0503 -39.3313
L10.9148 -38.9042
L10.789 -38.4732
L10.6729 -38.0388
L10.5664 -37.6017
L10.4693 -37.1625
L10.3817 -36.7216
L10.3032 -36.2796
L10.2339 -35.8369
L10.1736 -35.394
L10.1221 -34.9513
L10.0793 -34.5091
L10.0451 -34.0678
L10.0191 -33.6277
L10.0014 -33.1891
L9.99164 -32.7522
L9.98974 -32.3173
L9.99549 -31.8846
L10.0087 -31.4543
L10.0293 -31.0266
L10.0569 -30.6017
L10.0916 -30.1796
L10.133 -29.7606
L10.181 -29.3448
L10.2355 -28.9322
L10.2964 -28.5229
L10.3633 -28.1171
L10.4363 -27.7148
L10.5151 -27.316
L10.5996 -26.9208
L10.6897 -26.5292
L10.7852 -26.1413
L10.886 -25.7571
L10.992 -25.3766
L11.1031 -24.9998
L11.2191 -24.6267
L11.34 -24.2573
L11.4657 -23.8917
L11.596 -23.5297
L11.7308 -23.1715
L11.8702 -22.8169
L12.0139 -22.4659
L12.162 -22.1186
L12.3143 -21.775
L12.4707 -21.4349
L12.6313 -21.0983
L12.796 -20.7653
L12.9647 -20.4358
L13.1373 -20.1097
L13.3139 -19.7871
L13.4943 -19.4679
L13.6786 -19.152
L13.8667 -18.8395
L14.0585 -18.5303
L14.2542 -18.2244
L14.4536 -17.9218
L14.6567 -17.6224
L14.8635 -17.3261
L15.0741 -17.033
L15.2884 -16.7431
L15.616 -16.4563
L15.9667 -16.0816
L16.3236 -15.7289
L16.6864 -15.3823
L17.0551 -15.0421
L17.4296 -14.7082
L17.8097 -14.3808
L18.1954 -14.06
L18.5865 -13.7459
L18.9829 -13.4385
L19.3845 -13.1381
L19.7911 -12.8446
L20.2027 -12.5581
L20.6191 -12.2788
L21.0402 -12.0067
L21.4658 -11.7419
L21.8959 -11.4845
L22.3303 -11.2346
L22.7688 -10.9922
L23.2114 -10.7575
L23.6578 -10.5304
L24.108 -10.3111
L24.5619 -10.0996
L25.0192 -9.896
L25.4798 -9.70035
L25.9437 -9.51271
L26.4106 -9.33315
L26.8805 -9.1617
L27.3531 -8.99843
L27.8284 -8.84339
L28.3061 -8.69661
L28.7862 -8.55816
L29.2685 -8.42806
L29.7529 -8.30636
L30.2391 -8.1931
L30.7271 -8.08831
L31.2167 -7.99202
L31.7078 -7.90426
L32.2002 -7.82506
L32.6937 -7.75444
L33.1883 -7.69243
L33.6837 -7.63904
L34.1798 -7.59429
L34.6764 -7.55819
L35.1735 -7.53075
L35.6708 -7.51199
L36.1682 -7.5019
L36.6656 -7.5005
L37.1627 -7.50777
L37.6595 -7.52373
L38.1558 -7.54836
L38.6514 -7.58165
L39.1463 -7.6236
L39.6402 -7.6742
L40.1329 -7.73342
L40.6244 -7.80126
L41.1145 -7.87768
L41.6031 -7.96267
L42.0899 -8.0562
L42.5749 -8.15825
L43.0578 -8.26877
L43.5387 -8.38774
L44.0172 -8.51512
L44.4933 -8.65088
L44.9668 -8.79496
L45.4376 -8.94734
L45.9055 -9.10795
L46.3703 -9.27675
L46.832 -9.4537
L47.2905 -9.63873
L47.7454 -9.83179
L48.1968 -10.0328
L48.6445 -10.2418
L49.0884 -10.4585
L49.5282 -10.6831
L49.9639 -10.9154
L50.3954 -11.1553
L50.8225 -11.4028
L51.2451 -11.6578
L51.663 -11.9202
L52.0762 -12.1899
L52.4844 -12.4669
z
" id="C0_1_30ee307243"/>
     <path d="
M56.4718 -55.8063
L56.1963 -56.033
L55.9189 -56.2558
L55.6395 -56.4747
L55.3582 -56.6898
L55.0748 -56.9011
L54.7895 -57.1086
L54.5022 -57.3124
L54.2129 -57.5126
L53.9214 -57.7091
L53.6279 -57.9021
L53.3323 -58.0915
L53.0345 -58.2773
L52.7345 -58.4597
L52.4323 -58.6386
L52.1279 -58.814
L51.8211 -58.9859
L51.512 -59.1544
L51.2006 -59.3195
L50.8867 -59.4811
L50.5704 -59.6393
L50.2516 -59.7941
L49.9302 -59.9455
L49.6062 -60.0934
L49.2796 -60.2379
L48.9503 -60.3789
L48.6183 -60.5164
L48.2834 -60.6505
L47.9458 -60.781
L47.6052 -60.9079
L47.2618 -61.0313
L46.9153 -61.1511
L46.5658 -61.2671
L46.2133 -61.3795
L45.8576 -61.4881
L45.4987 -61.5929
L45.1366 -61.6939
L44.7713 -61.7909
L44.4027 -61.884
L44.0307 -61.973
L43.6553 -62.0579
L43.2766 -62.1386
L42.8943 -62.215
L42.5086 -62.2871
L42.1194 -62.3547
L41.7267 -62.4179
L41.3304 -62.4764
L40.9305 -62.5302
L40.527 -62.5792
L40.12 -62.6234
L39.7094 -62.6625
L39.2951 -62.6966
L38.8774 -62.7254
L38.4561 -62.7489
L38.0312 -62.7671
L37.6029 -62.7797
L37.1711 -62.7867
L36.736 -62.788
L36.2975 -62.7834
L35.8558 -62.773
L35.4109 -62.7565
L34.963 -62.734
L34.5121 -62.7052
L34.0584 -62.6703
L33.602 -62.629
L33.143 -62.5813
L32.6816 -62.5273
L32.218 -62.4668
L31.7524 -62.3999
L31.2851 -62.3266
L30.8161 -62.2468
L30.3458 -62.1608
L29.8744 -62.0685
L29.4021 -61.9701
L28.9294 -61.8657
L28.4565 -61.7554
L27.9837 -61.6396
L27.5113 -61.5185
L27.0397 -61.3924
L26.5693 -61.2616
L26.1004 -61.1266
L25.6335 -60.9878
L25.1689 -60.8458
L24.7071 -60.7011
L24.2484 -60.5544
L23.7933 -60.4063
L23.3421 -60.2577
L22.8954 -60.1092
L22.4534 -59.9619
L22.0166 -59.8166
L21.5854 -59.6741
L21.1601 -59.5354
L20.741 -59.4015
L20.3284 -59.2732
L19.9225 -59.1515
L19.5237 -59.0369
L19.5153 -58.9304
L19.9236 -59.2488
L20.3367 -59.5329
L20.7546 -59.8099
L21.1772 -60.0796
L21.6043 -60.342
L22.0358 -60.597
L22.4715 -60.8445
L22.9113 -61.0844
L23.3552 -61.3167
L23.8028 -61.5413
L24.2542 -61.7581
L24.7092 -61.967
L25.1676 -62.1681
L25.6293 -62.3611
L26.0942 -62.5462
L26.5621 -62.7231
L27.0329 -62.8919
L27.5064 -63.0526
L27.9825 -63.2049
L28.461 -63.349
L28.9418 -63.4848
L29.4248 -63.6122
L29.9098 -63.7311
L30.3966 -63.8417
L30.8851 -63.9437
L31.3752 -64.0373
L31.8667 -64.1223
L32.3595 -64.1987
L32.8534 -64.2665
L33.3482 -64.3258
L33.8438 -64.3764
L34.3401 -64.4183
L34.8369 -64.4516
L35.3341 -64.4763
L35.8315 -64.4922
L36.3289 -64.4995
L36.8262 -64.4981
L37.3232 -64.488
L37.8199 -64.4693
L38.316 -64.4418
L38.8114 -64.4057
L39.3059 -64.361
L39.7995 -64.3076
L40.2918 -64.2456
L40.7829 -64.175
L41.2725 -64.0958
L41.7605 -64.008
L42.2468 -63.9118
L42.7311 -63.807
L43.2134 -63.6937
L43.6935 -63.572
L44.1713 -63.4419
L44.6465 -63.3035
L45.1192 -63.1567
L45.589 -63.0017
L46.056 -62.8384
L46.5198 -62.667
L46.9805 -62.4874
L47.4378 -62.2998
L47.8917 -62.1041
L48.3419 -61.9005
L48.7883 -61.6891
L49.2309 -61.4698
L49.6694 -61.2427
L50.1038 -61.0079
L50.5339 -60.7656
L50.9595 -60.5156
L51.3806 -60.2583
L51.797 -59.9935
L52.2086 -59.7214
L52.6152 -59.4421
L53.0168 -59.1556
L53.4132 -58.8621
L53.8043 -58.5617
L54.19 -58.2543
L54.5702 -57.9402
L54.9446 -57.6194
L55.3134 -57.292
L55.6762 -56.9582
L56.033 -56.6179
z
" id="C0_2_d4d02a42d0"/>
    </defs>
    <g clip-path="url(#p1bffca34e9)">
     <use style="fill:#ff0000;stroke:#000000;stroke-width:2.0;" x="0.0" xlink:href="#C0_0_a811fe30f3" y="72.0"/>
    </g>
    <g clip-path="url(#p1bffca34e9)">
     <use style="fill:#ffffff;stroke:#000000;stroke-width:2.0;" x="0.0" xlink:href="#C0_1_30ee307243" y="72.0"/>
    </g>
    <g clip-path="url(#p1bffca34e9)">
     <use style="fill:#ffffff;stroke:#000000;stroke-width:2.0;" x="0.0" xlink:href="#C0_2_d4d02a42d0" y="72.0"/>
    </g>
   </g>
  </g>
 </g>
 <defs>
  <clipPath id="p1bffca34e9">
   <rect height="72.0" width="72.0" x="0.0" y="0.0"/>
  </clipPath>
 </defs>
</svg>
