<?xml version="1.0" encoding="utf-8" standalone="no"?>
<!DOCTYPE svg PUBLIC "-//W3C//DTD SVG 1.1//EN"
  "http://www.w3.org/Graphics/SVG/1.1/DTD/svg11.dtd">
<!-- Created with matplotlib (http://matplotlib.org/) -->
<svg height="72pt" version="1.1" viewBox="0 0 72 72" width="72pt" xmlns="http://www.w3.org/2000/svg" xmlns:xlink="http://www.w3.org/1999/xlink">
 <defs>
  <style type="text/css">
*{stroke-linecap:butt;stroke-linejoin:round;}
  </style>
 </defs>
 <g id="figure_1">
  <g id="patch_1">
   <path d="
M0 72
L72 72
L72 0
L0 0
z
" style="fill:none;"/>
  </g>
  <g id="axes_1">
   <g id="PatchCollection_1">
    <defs>
     <path d="
M36 -7.5
C43.5583 -7.5 50.808 -10.5029 56.1525 -15.8475
C61.4971 -21.192 64.5 -28.4417 64.5 -36
C64.5 -43.5583 61.4971 -50.808 56.1525 -56.1525
C50.808 -61.4971 43.5583 -64.5 36 -64.5
C28.4417 -64.5 21.192 -61.4971 15.8475 -56.1525
C10.5029 -50.808 7.5 -43.5583 7.5 -36
C7.5 -28.4417 10.5029 -21.192 15.8475 -15.8475
C21.192 -10.5029 28.4417 -7.5 36 -7.5
z
" id="C0_0_a811fe30f3"/>
     <path d="
M50.3467 -60.4206
L50.4849 -60.0299
L50.6128 -59.6402
L50.7308 -59.2517
L50.8394 -58.8648
L50.9391 -58.4797
L51.0302 -58.0967
L51.1132 -57.7159
L51.1884 -57.3375
L51.2563 -56.9618
L51.3171 -56.5888
L51.3711 -56.2186
L51.4188 -55.8515
L51.4604 -55.4874
L51.4961 -55.1264
L51.5263 -54.7687
L51.5513 -54.4142
L51.5712 -54.0631
L51.5863 -53.7152
L51.5969 -53.3708
L51.6031 -53.0297
L51.6051 -52.692
L51.6033 -52.3576
L51.5976 -52.0266
L51.5884 -51.6989
L51.5758 -51.3745
L51.5599 -51.0534
L51.5409 -50.7356
L51.5189 -50.4209
L51.4941 -50.1094
L51.4666 -49.801
L51.4365 -49.4956
L51.404 -49.1932
L51.369 -48.8938
L51.3318 -48.5972
L51.2925 -48.3035
L51.251 -48.0125
L51.2075 -47.7242
L51.1621 -47.4385
L51.1148 -47.1554
L51.0658 -46.8748
L51.015 -46.5966
L50.9625 -46.3207
L50.9084 -46.0471
L50.8528 -45.7757
L50.7956 -45.5065
L50.737 -45.2393
L50.6769 -44.9742
L50.6154 -44.7109
L50.5525 -44.4496
L50.4883 -44.19
L50.4228 -43.9321
L50.356 -43.6759
L50.2879 -43.4212
L50.2185 -43.1681
L50.1479 -42.9164
L50.0761 -42.6661
L50.0031 -42.4171
L49.9289 -42.1693
L49.8534 -41.9227
L49.7768 -41.6772
L49.699 -41.4328
L49.62 -41.1893
L49.5398 -40.9468
L49.4584 -40.7051
L49.3757 -40.4642
L49.2919 -40.224
L49.2069 -39.9844
L49.1206 -39.7455
L49.0331 -39.507
L48.9444 -39.2691
L48.763 -39.0315
L48.6704 -38.7944
L48.5765 -38.5574
L48.4812 -38.3208
L48.3845 -38.0843
L48.2865 -37.8479
L48.187 -37.6115
L48.086 -37.3751
L47.9836 -37.1387
L47.8797 -36.9021
L47.7742 -36.6654
L47.6671 -36.4284
L47.5584 -36.1911
L47.4481 -35.9534
L47.336 -35.7153
L47.2222 -35.4768
L47.1066 -35.2377
L46.9892 -34.9981
L46.87 -34.7578
L46.7488 -34.5168
L46.6256 -34.2751
L46.5004 -34.0326
L46.3731 -33.7892
L46.2437 -33.5449
L46.112 -33.2997
L45.9782 -33.0534
L45.842 -32.8061
L45.7034 -32.5577
L45.5624 -32.3081
L45.4189 -32.0573
L45.2727 -31.8053
L45.124 -31.552
L44.9725 -31.2973
L44.8182 -31.0413
L44.661 -30.7839
L44.5009 -30.525
L44.3377 -30.2646
L44.1714 -30.0027
L44.0019 -29.7392
L43.8291 -29.4741
L43.6529 -29.2075
L43.4732 -28.9392
L43.29 -28.6693
L43.1032 -28.3977
L42.9126 -28.1244
L42.7181 -27.8495
L42.5198 -27.5729
L42.3174 -27.2946
L42.1108 -27.0147
L41.9001 -26.7331
L41.685 -26.4499
L41.4656 -26.1652
L41.2416 -25.8789
L41.0131 -25.5911
L40.7798 -25.3019
L40.5418 -25.0113
L40.2989 -24.7194
L40.0511 -24.4264
L39.7982 -24.1322
L39.5402 -23.8371
L39.2771 -23.5411
L39.0087 -23.2443
L38.735 -22.9471
L38.4559 -22.6494
L38.1715 -22.3516
L37.8815 -22.0538
L37.5861 -21.7562
L37.2852 -21.4592
L36.9787 -21.1629
L36.6667 -20.8677
L36.3492 -20.5739
L36.0262 -20.282
L35.6977 -19.9922
L35.3638 -19.7051
L35.0244 -19.4211
L34.6798 -19.1409
L34.33 -18.865
L33.975 -18.5942
L33.615 -18.3293
L33.2501 -18.0712
L32.8805 -17.8213
L32.5064 -17.5807
L32.1278 -17.3514
L31.7452 -17.1352
L31.3586 -16.9349
L30.9686 -16.7537
L30.5754 -16.5957
L30.1797 -16.4657
L29.7821 -16.3696
L29.3836 -16.3134
L28.9854 -16.303
L28.5887 -16.3428
L28.1949 -16.4343
L27.8053 -16.5759
L27.421 -16.7635
L27.0429 -16.9911
L26.6718 -17.2526
L26.3081 -17.5422
L25.9524 -17.8549
L25.6049 -18.1865
L25.2658 -18.5337
L24.9354 -18.8938
L24.6138 -19.2645
L24.3011 -19.6441
L23.9973 -20.0312
L23.7025 -20.4243
L23.4167 -20.8225
L23.1398 -21.2248
L22.8718 -21.6304
L22.6126 -22.0385
L22.3622 -22.4487
L22.1205 -22.8602
L21.8874 -23.2726
L21.6627 -23.6855
L21.4464 -24.0983
L21.2382 -24.5107
L21.038 -24.9224
L20.8458 -25.333
L20.6612 -25.7423
L20.4842 -26.1501
L20.3146 -26.556
L20.1522 -26.9598
L19.9968 -27.3615
L19.8483 -27.7608
L19.7065 -28.1575
L19.5712 -28.5516
L19.4422 -28.943
L19.3194 -29.3315
L19.2025 -29.717
L19.0915 -30.0995
L18.9861 -30.479
L18.8863 -30.8554
L18.7917 -31.2286
L18.7024 -31.5986
L18.618 -31.9655
L18.5385 -32.3292
L18.4638 -32.6897
L18.3936 -33.0471
L18.328 -33.4013
L18.2666 -33.7524
L18.2095 -34.1004
L18.1564 -34.4453
L18.1073 -34.7872
L18.062 -35.1261
L18.0205 -35.4621
L17.9827 -35.7952
L17.9484 -36.1255
L17.9175 -36.453
L17.89 -36.7777
L17.8658 -37.0998
L17.8448 -37.4193
L17.8269 -37.7363
L17.8121 -38.0508
L17.8002 -38.3629
L17.7913 -38.6726
L17.7852 -38.9801
L17.7819 -39.2853
L17.7813 -39.5885
L17.7835 -39.8895
L17.7883 -40.1886
L17.7957 -40.4857
L17.8056 -40.781
L17.8181 -41.0744
L17.8331 -41.3662
L17.8506 -41.6563
L17.8704 -41.9448
L17.8927 -42.2318
L17.9175 -42.5173
L17.9445 -42.8015
L17.974 -43.0843
L18.0058 -43.3659
L18.0399 -43.6463
L18.0764 -43.9256
L18.1152 -44.2039
L18.1563 -44.4811
L18.1998 -44.7575
L18.2457 -45.033
L18.2938 -45.3077
L18.3444 -45.5817
L18.3973 -45.855
L18.4526 -46.1277
L18.5104 -46.3999
L18.5706 -46.6716
L18.6332 -46.9429
L18.6983 -47.2138
L18.766 -47.4844
L18.8362 -47.7547
L18.909 -48.0249
L18.9845 -48.2949
L19.0626 -48.5649
L19.1435 -48.8348
L19.2272 -49.1048
L19.3137 -49.3748
L19.4031 -49.645
L19.4954 -49.9153
L19.5908 -50.1859
L19.6892 -50.4568
L19.7908 -50.728
L19.8957 -50.9996
L20.0039 -51.2715
L20.1154 -51.544
L20.2305 -51.8169
L20.3492 -52.0904
L20.4715 -52.3644
L20.5976 -52.6391
L20.7276 -52.9144
L20.8616 -53.1904
L20.9997 -53.467
L21.1421 -53.7444
L21.2888 -54.0226
L21.4401 -54.3015
L21.5959 -54.5811
L21.7565 -54.8616
L21.9221 -55.1429
L22.0927 -55.4249
L22.2686 -55.7077
L22.4499 -55.9914
L22.6368 -56.2757
L22.8294 -56.5609
L23.028 -56.8467
L23.2327 -57.1333
L23.4437 -57.4205
L23.6612 -57.7083
L23.8855 -57.9966
L24.1168 -58.2854
L24.3552 -58.5746
L24.6011 -58.8641
L24.8545 -59.1538
L25.1159 -59.4436
L25.3854 -59.7333
L25.6632 -60.0229
L25.9497 -60.3121
L26.2451 -60.6009
L26.5495 -60.8889
L26.8634 -61.1761
L27.187 -61.4621
L27.5205 -61.7467
L27.8642 -62.0298
L28.2183 -62.3109
L28.5831 -62.5898
L28.9589 -62.8661
L29.346 -63.1395
L29.7444 -63.4096
L30.2028 -63.676
L30.6907 -63.9042
L31.1802 -64.0011
L31.6711 -64.0895
L32.1634 -64.1693
L32.6569 -64.2406
L33.1513 -64.3032
L33.6467 -64.3573
L34.1427 -64.4027
L34.6394 -64.4394
L35.1364 -64.4675
L35.6337 -64.4869
L36.1311 -64.4976
L36.6285 -64.4997
L37.1256 -64.4931
L37.6225 -64.4778
L38.1188 -64.4538
L38.6145 -64.4211
L39.1094 -64.3798
L39.6034 -64.3299
L40.0962 -64.2713
L40.5878 -64.2041
L41.078 -64.1283
L41.5667 -64.044
L42.0537 -63.9511
L42.5388 -63.8497
L43.0219 -63.7398
L43.5029 -63.6214
L43.9816 -63.4947
L44.4579 -63.3595
L44.9316 -63.2161
L45.4025 -63.0643
L45.8707 -62.9043
L46.3358 -62.7361
L46.7977 -62.5598
L47.2564 -62.3754
L47.7116 -62.1829
L48.1633 -61.9824
L48.6113 -61.7741
L49.0554 -61.5579
L49.4955 -61.3339
L49.9316 -61.1022
z
" id="C0_1_a679f1b900"/>
     <path d="
M41.8277 -8.14631
L41.3427 -8.22332
L40.8562 -8.31012
L40.3683 -8.40677
L39.8794 -8.5133
L39.3897 -8.62971
L38.8994 -8.75598
L38.4089 -8.89205
L37.9185 -9.03781
L37.4284 -9.19312
L36.9391 -9.35775
L36.4508 -9.53143
L35.9638 -9.71379
L35.4787 -9.90436
L34.9956 -10.1025
L34.515 -10.3076
L34.0372 -10.5185
L33.5627 -10.7342
L33.0917 -10.953
L32.6246 -11.173
L32.1618 -11.3918
L31.7035 -11.6061
L31.25 -11.8119
L30.8014 -12.0044
L30.3577 -12.1779
L29.9188 -12.3262
L29.4844 -12.4433
L29.0538 -12.5249
L28.6263 -12.5693
L28.201 -12.5779
L27.7773 -12.5547
L27.3544 -12.5055
L26.9319 -12.4363
L26.5096 -12.3525
L26.0874 -12.259
L25.6653 -12.1595
L25.2432 -12.0572
L24.8214 -11.9545
L24.4 -11.8532
L23.9791 -11.7547
L23.5589 -11.6604
L23.1395 -11.571
L22.7213 -11.4872
L22.3043 -11.4097
L22.2793 -11.3389
L22.7173 -11.0202
L23.1594 -10.7845
L23.6054 -10.5565
L24.0552 -10.3363
L24.5086 -10.1239
L24.9656 -9.91938
L25.4258 -9.7228
L25.8893 -9.53422
L26.3559 -9.35371
L26.8254 -9.18131
L27.2978 -9.01709
L27.7727 -8.86108
L28.2502 -8.71334
L28.73 -8.57391
L29.2121 -8.44283
L29.6962 -8.32015
L30.1822 -8.2059
L30.67 -8.10012
L31.1595 -8.00283
L31.6504 -7.91408
L32.1426 -7.83387
L32.636 -7.76225
L33.1304 -7.69923
L33.6257 -7.64483
L34.1218 -7.59907
L34.6184 -7.56196
L35.1154 -7.53351
L35.6127 -7.51373
L36.1101 -7.50263
L36.6074 -7.50021
L37.1046 -7.50647
L37.6015 -7.52142
L38.0978 -7.54503
L38.5936 -7.57731
L39.0885 -7.61826
L39.5825 -7.66784
L40.0754 -7.72606
L40.5671 -7.79289
L41.0573 -7.86831
z
" id="C0_2_0620c5f23d"/>
    </defs>
    <g clip-path="url(#p1bffca34e9)">
     <use style="fill:#ffffff;stroke:#000000;stroke-width:2.0;" x="0.0" xlink:href="#C0_0_a811fe30f3" y="72.0"/>
    </g>
    <g clip-path="url(#p1bffca34e9)">
     <use style="fill:#ff0000;stroke:#000000;stroke-width:2.0;" x="0.0" xlink:href="#C0_1_a679f1b900" y="72.0"/>
    </g>
    <g clip-path="url(#p1bffca34e9)">
     <use style="fill:#ff0000;stroke:#000000;stroke-width:2.0;" x="0.0" xlink:href="#C0_2_0620c5f23d" y="72.0"/>
    </g>
   </g>
  </g>
 </g>
 <defs>
  <clipPath id="p1bffca34e9">
   <rect height="72.0" width="72.0" x="0.0" y="0.0"/>
  </clipPath>
 </defs>
</svg>
