<?xml version="1.0" encoding="utf-8" standalone="no"?>
<!DOCTYPE svg PUBLIC "-//W3C//DTD SVG 1.1//EN"
  "http://www.w3.org/Graphics/SVG/1.1/DTD/svg11.dtd">
<!-- Created with matplotlib (http://matplotlib.org/) -->
<svg height="72pt" version="1.1" viewBox="0 0 72 72" width="72pt" xmlns="http://www.w3.org/2000/svg" xmlns:xlink="http://www.w3.org/1999/xlink">
 <defs>
  <style type="text/css">
*{stroke-linecap:butt;stroke-linejoin:round;}
  </style>
 </defs>
 <g id="figure_1">
  <g id="patch_1">
   <path d="
M0 72
L72 72
L72 0
L0 0
z
" style="fill:none;"/>
  </g>
  <g id="axes_1">
   <g id="PatchCollection_1">
    <defs>
     <path d="
M36 -7.5
C43.5583 -7.5 50.808 -10.5029 56.1525 -15.8475
C61.4971 -21.192 64.5 -28.4417 64.5 -36
C64.5 -43.5583 61.4971 -50.808 56.1525 -56.1525
C50.808 -61.4971 43.5583 -64.5 36 -64.5
C28.4417 -64.5 21.192 -61.4971 15.8475 -56.1525
C10.5029 -50.808 7.5 -43.5583 7.5 -36
C7.5 -28.4417 10.5029 -21.192 15.8475 -15.8475
C21.192 -10.5029 28.4417 -7.5 36 -7.5
z
" id="C0_0_a811fe30f3"/>
     <path d="
M55.6716 -56.6047
L55.3263 -56.6717
L54.989 -56.7196
L54.6603 -56.7483
L54.3409 -56.758
L54.0311 -56.7488
L53.7315 -56.721
L53.4423 -56.6748
L53.1636 -56.6107
L52.8956 -56.5293
L52.6383 -56.4309
L52.3914 -56.3164
L52.1548 -56.1864
L51.9282 -56.0415
L51.7112 -55.8827
L51.5035 -55.7107
L51.3045 -55.5263
L51.1138 -55.3303
L50.9308 -55.1236
L50.7551 -54.9069
L50.5862 -54.6809
L50.4235 -54.4466
L50.2666 -54.2045
L50.1151 -53.9554
L49.9683 -53.7
L49.8261 -53.4388
L49.6879 -53.1725
L49.5533 -52.9015
L49.4222 -52.6266
L49.2941 -52.348
L49.1687 -52.0664
L49.0459 -51.782
L48.9253 -51.4954
L48.8068 -51.2068
L48.6902 -50.9166
L48.5752 -50.6251
L48.4618 -50.3327
L48.3497 -50.0395
L48.2389 -49.7459
L48.1293 -49.4519
L48.0207 -49.158
L47.9131 -48.8641
L47.8063 -48.5706
L47.7003 -48.2775
L47.595 -47.985
L47.4904 -47.6932
L47.3865 -47.4022
L47.2831 -47.1122
L47.1802 -46.8232
L47.0778 -46.5353
L46.9759 -46.2485
L46.8744 -45.963
L46.7732 -45.6787
L46.6725 -45.3957
L46.572 -45.1142
L46.4719 -44.8339
L46.3721 -44.5551
L46.2726 -44.2777
L46.1733 -44.0018
L46.0743 -43.7273
L45.9755 -43.4542
L45.8769 -43.1826
L45.7785 -42.9123
L45.6803 -42.6436
L45.5822 -42.3762
L45.4843 -42.1102
L45.3865 -41.8456
L45.2889 -41.5824
L45.1913 -41.3204
L45.0939 -41.0598
L44.9965 -40.8005
L44.8992 -40.5424
L44.8019 -40.2855
L44.7047 -40.0298
L44.6076 -39.7752
L44.5104 -39.5217
L44.4132 -39.2693
L44.316 -39.018
L44.2188 -38.7676
L44.1215 -38.5182
L44.0241 -38.2698
L43.9267 -38.0221
L43.8292 -37.7754
L43.7316 -37.5294
L43.6338 -37.2841
L43.5359 -37.0396
L43.4379 -36.7957
L43.3396 -36.5525
L43.2412 -36.3098
L43.1426 -36.0676
L43.0437 -35.826
L42.9446 -35.5847
L42.8452 -35.3439
L42.7456 -35.1034
L42.6456 -34.8632
L42.5453 -34.6233
L42.3438 -34.3836
L42.2424 -34.144
L42.1407 -33.9046
L42.0386 -33.6653
L41.936 -33.426
L41.833 -33.1867
L41.7295 -32.9473
L41.6255 -32.7079
L41.521 -32.4682
L41.416 -32.2284
L41.3104 -31.9884
L41.2043 -31.7481
L41.0975 -31.5075
L40.9902 -31.2665
L40.8822 -31.0251
L40.7736 -30.7832
L40.6643 -30.5409
L40.5543 -30.298
L40.4436 -30.0545
L40.3322 -29.8105
L40.2201 -29.5657
L40.1071 -29.3203
L39.9934 -29.0741
L39.8789 -28.8272
L39.7636 -28.5794
L39.6475 -28.3308
L39.5305 -28.0813
L39.4126 -27.8309
L39.2939 -27.5795
L39.1742 -27.3271
L39.0537 -27.0737
L38.9323 -26.8192
L38.8099 -26.5637
L38.6866 -26.307
L38.5624 -26.0492
L38.4373 -25.7903
L38.3112 -25.5301
L38.1842 -25.2688
L38.0563 -25.0062
L37.9275 -24.7423
L37.7978 -24.4772
L37.6671 -24.2108
L37.5356 -23.9432
L37.4033 -23.6742
L37.2701 -23.404
L37.1362 -23.1324
L37.0015 -22.8596
L36.8662 -22.5854
L36.7302 -22.31
L36.5936 -22.0333
L36.4565 -21.7554
L36.319 -21.4763
L36.1812 -21.1959
L36.0431 -20.9144
L35.9049 -20.6317
L35.7668 -20.3479
L35.6288 -20.0631
L35.4911 -19.7772
L35.3538 -19.4904
L35.2173 -19.2027
L35.0816 -18.9142
L34.9471 -18.6249
L34.814 -18.335
L34.6825 -18.0444
L34.553 -17.7533
L34.4258 -17.4617
L34.3013 -17.1698
L34.1798 -16.8777
L34.0619 -16.5855
L33.948 -16.2932
L33.8385 -16.001
L33.7341 -15.709
L33.6353 -15.4174
L33.5428 -15.1262
L33.4573 -14.8357
L33.3794 -14.5459
L33.31 -14.257
L33.2497 -13.9691
L33.1995 -13.6824
L33.1602 -13.3971
L33.1327 -13.1134
L33.1179 -12.8314
L33.1166 -12.5513
L33.1298 -12.2734
L33.1583 -11.9979
L33.203 -11.7249
L33.2646 -11.4549
L33.3437 -11.188
L33.4411 -10.9245
L33.5573 -10.6648
L33.6926 -10.4092
L33.8473 -10.1581
L34.0216 -9.9118
L34.2155 -9.67075
L34.4289 -9.43534
L34.6616 -9.20599
L34.9132 -8.98312
L35.1833 -8.76716
L35.4713 -8.55852
L35.7766 -8.35762
L36.0984 -8.16487
L36.4361 -7.98065
L36.7889 -7.80534
L37.2895 -7.63929
L37.7862 -7.52919
L38.2823 -7.55603
L38.7778 -7.59153
L39.2724 -7.63569
L39.766 -7.68849
L40.2585 -7.74992
L40.7496 -7.81995
L41.2393 -7.89856
L41.7275 -7.98573
L42.2138 -8.08144
L42.6983 -8.18565
L43.1808 -8.29833
L43.661 -8.41945
L44.1389 -8.54897
L44.6144 -8.68685
L45.0872 -8.83306
L45.5572 -8.98754
L46.0244 -9.15024
L46.4885 -9.32113
L46.9493 -9.50014
L47.4069 -9.68723
L47.861 -9.88233
L48.3114 -10.0854
L48.7582 -10.2963
L49.201 -10.5151
L49.6398 -10.7417
L50.0744 -10.9759
L50.5048 -11.2177
L50.9308 -11.4672
L51.3522 -11.724
L51.7689 -11.9883
L52.1808 -12.2599
L52.5878 -12.5387
L52.9897 -12.8247
L53.3865 -13.1177
L53.778 -13.4177
L54.164 -13.7246
L54.5445 -14.0382
L54.9194 -14.3586
L55.2885 -14.6855
L55.6517 -15.019
L56.009 -15.3588
L56.3601 -15.7049
L56.7051 -16.0572
L57.0437 -16.4156
L57.376 -16.7799
L57.7017 -17.1501
L58.0208 -17.526
L58.3332 -17.9076
L58.6388 -18.2947
L58.9375 -18.6871
L59.2292 -19.0849
L59.5139 -19.4878
L59.7913 -19.8957
L60.0616 -20.3085
L60.3245 -20.7261
L60.58 -21.1484
L60.828 -21.5752
L61.0684 -22.0063
L61.3012 -22.4418
L61.5263 -22.8813
L61.7436 -23.3249
L61.9531 -23.7723
L62.1547 -24.2235
L62.3483 -24.6782
L62.5339 -25.1364
L62.7114 -25.5979
L62.8807 -26.0626
L63.0419 -26.5303
L63.1949 -27.0008
L63.3395 -27.4742
L63.4758 -27.9501
L63.6038 -28.4284
L63.7233 -28.9091
L63.8344 -29.3919
L63.9371 -29.8768
L64.0312 -30.3635
L64.1168 -30.8519
L64.1938 -31.3419
L64.2622 -31.8333
L64.322 -32.326
L64.3732 -32.8198
L64.4157 -33.3146
L64.4496 -33.8102
L64.4749 -34.3064
L64.4914 -34.8032
L64.4993 -35.3004
L64.4985 -35.7977
L64.489 -36.2951
L64.4708 -36.7924
L64.444 -37.2895
L64.4085 -37.7862
L64.3643 -38.2823
L64.3115 -38.7778
L64.2501 -39.2724
L64.1801 -39.766
L64.1014 -40.2585
L64.0143 -40.7496
L63.9186 -41.2393
L63.8144 -41.7275
L63.7017 -42.2138
L63.5806 -42.6983
L63.451 -43.1808
L63.3131 -43.661
L63.1669 -44.1389
L63.0125 -44.6144
L62.8498 -45.0872
L62.6789 -45.5572
L62.4999 -46.0244
L62.3128 -46.4885
L62.1177 -46.9493
L61.9146 -47.4069
L61.7037 -47.861
L61.4849 -48.3114
L61.2583 -48.7582
L61.0241 -49.201
L60.7823 -49.6398
L60.5328 -50.0744
L60.276 -50.5048
L60.0117 -50.9308
L59.7401 -51.3522
L59.4613 -51.7689
L59.1753 -52.1808
L58.8823 -52.5878
L58.5823 -52.9897
L58.2754 -53.3865
L57.9618 -53.778
L57.6414 -54.164
L57.3145 -54.5445
L56.981 -54.9194
L56.6412 -55.2885
L56.2951 -55.6517
z
" id="C0_1_7d37382e71"/>
     <path d="
M34.8475 -64.436
L34.486 -64.2531
L34.1204 -64.0677
L33.7515 -63.8796
L33.3801 -63.6888
L33.007 -63.495
L32.6329 -63.2981
L32.2585 -63.0981
L31.8844 -62.895
L31.511 -62.6886
L31.1391 -62.4791
L30.769 -62.2665
L30.4011 -62.0507
L30.0359 -61.8319
L29.6736 -61.6101
L29.3147 -61.3854
L28.9594 -61.1579
L28.6079 -60.9277
L28.2604 -60.6949
L27.9172 -60.4595
L27.5783 -60.2218
L27.244 -59.9818
L26.9144 -59.7396
L26.5894 -59.4953
L26.2693 -59.2491
L25.9541 -59.0011
L25.6438 -58.7514
L25.3385 -58.5
L25.0381 -58.2471
L24.7427 -57.9927
L24.4523 -57.7371
L24.1668 -57.4801
L23.8863 -57.2221
L23.6106 -56.9629
L23.3399 -56.7028
L23.0739 -56.4417
L22.8128 -56.1797
L22.5564 -55.9169
L22.3046 -55.6534
L22.0575 -55.3892
L21.8149 -55.1244
L21.5768 -54.8589
L21.3431 -54.5929
L21.1138 -54.3263
L20.8888 -54.0592
L20.668 -53.7917
L20.4513 -53.5237
L20.2387 -53.2553
L20.0302 -52.9865
L19.8256 -52.7172
L19.6248 -52.4476
L19.4279 -52.1776
L19.2348 -51.9072
L19.0453 -51.6364
L18.8594 -51.3653
L18.677 -51.0937
L18.4982 -50.8218
L18.3228 -50.5494
L18.1507 -50.2766
L17.982 -50.0034
L17.8165 -49.7298
L17.6543 -49.4556
L17.4951 -49.181
L17.3391 -48.9059
L17.1861 -48.6302
L17.0362 -48.3539
L16.8892 -48.0771
L16.7451 -47.7996
L16.6039 -47.5215
L16.4655 -47.2427
L16.3299 -46.9632
L16.1971 -46.6829
L16.067 -46.4019
L15.9397 -46.1199
L15.815 -45.8372
L15.6929 -45.5535
L15.5735 -45.2689
L15.4567 -44.9833
L15.3425 -44.6966
L15.2308 -44.4089
L15.1217 -44.12
L15.0151 -43.83
L14.9111 -43.5388
L14.8095 -43.2463
L14.7105 -42.9525
L14.614 -42.6573
L14.52 -42.3607
L14.4285 -42.0627
L14.3395 -41.7632
L14.253 -41.4621
L14.169 -41.1595
L14.0876 -40.8551
L14.0087 -40.5491
L13.9324 -40.2413
L13.8587 -39.9317
L13.7875 -39.6202
L13.719 -39.3069
L13.6531 -38.9916
L13.5899 -38.6742
L13.5294 -38.3549
L13.4716 -38.0334
L13.4166 -37.7097
L13.3645 -37.3839
L13.3151 -37.0558
L13.2687 -36.7254
L13.2252 -36.3927
L13.1847 -36.0576
L13.1472 -35.7201
L13.1128 -35.3801
L13.0816 -35.0377
L13.0536 -34.6927
L13.0288 -34.3451
L13.0074 -33.995
L12.9894 -33.6423
L12.9748 -33.2869
L12.9638 -32.9289
L12.9564 -32.5682
L12.9526 -32.2048
L12.9526 -31.8388
L12.9564 -31.4701
L12.9641 -31.0988
L12.9757 -30.7247
L12.9914 -30.3481
L13.0111 -29.9688
L13.0351 -29.587
L13.0633 -29.2026
L13.0957 -28.8158
L13.1326 -28.4265
L13.1738 -28.0349
L13.2196 -27.6411
L13.2698 -27.245
L13.3246 -26.8469
L13.3839 -26.4469
L13.4478 -26.045
L13.5164 -25.6414
L13.5894 -25.2363
L13.6671 -24.8298
L13.7492 -24.4221
L13.8357 -24.0135
L13.9266 -23.604
L14.0217 -23.1941
L14.1209 -22.7838
L14.2241 -22.3736
L14.3309 -21.9635
L14.4412 -21.554
L14.5547 -21.1454
L14.6711 -20.738
L14.79 -20.3321
L14.9111 -19.9281
L15.0337 -19.5264
L15.1576 -19.1273
L15.282 -18.7314
L15.4063 -18.3389
L15.53 -17.9503
L15.6523 -17.5661
L15.7724 -17.1867
L15.8895 -16.8125
L16.0028 -16.444
L16.1114 -16.0816
L15.7418 -15.7258
L15.395 -15.9537
L15.0545 -16.3103
L14.7204 -16.6729
L14.3928 -17.0414
L14.0717 -17.4157
L13.7573 -17.7956
L13.4497 -18.1811
L13.149 -18.572
L12.8552 -18.9682
L12.5685 -19.3696
L12.289 -19.7761
L12.0166 -20.1875
L11.7516 -20.6037
L11.4939 -21.0246
L11.2437 -21.4501
L11.001 -21.88
L10.766 -22.3142
L10.5386 -22.7526
L10.319 -23.195
L10.1073 -23.6413
L9.90336 -24.0914
L9.70742 -24.5451
L9.51949 -25.0023
L9.33962 -25.4628
L9.16788 -25.9266
L9.0043 -26.3934
L8.84896 -26.8631
L8.70188 -27.3357
L8.56311 -27.8108
L8.43271 -28.2885
L8.3107 -28.7685
L8.19713 -29.2507
L8.09202 -29.735
L7.99542 -30.2212
L7.90734 -30.7091
L7.82783 -31.1987
L7.75689 -31.6897
L7.69456 -32.182
L7.64085 -32.6755
L7.59578 -33.17
L7.55936 -33.6654
L7.53161 -34.1615
L7.51253 -34.6581
L7.50212 -35.1551
L7.50039 -35.6524
L7.50735 -36.1499
L7.52299 -36.6472
L7.54729 -37.1444
L7.58027 -37.6412
L7.6219 -38.1375
L7.67218 -38.6332
L7.73109 -39.1281
L7.79861 -39.622
L7.87471 -40.1148
L7.95939 -40.6063
L8.05261 -41.0965
L8.15434 -41.5851
L8.26455 -42.072
L8.38321 -42.557
L8.51028 -43.0401
L8.64573 -43.521
L8.78951 -43.9996
L8.94157 -44.4758
L9.10188 -44.9494
L9.27039 -45.4203
L9.44703 -45.8883
L9.63176 -46.3533
L9.82453 -46.8151
L10.0253 -47.2736
L10.2339 -47.7287
L10.4504 -48.1803
L10.6747 -48.6281
L10.9067 -49.0721
L11.1463 -49.5121
L11.3935 -49.948
L11.6483 -50.3796
L11.9104 -50.8068
L12.1798 -51.2296
L12.4566 -51.6477
L12.7404 -52.061
L13.0314 -52.4695
L13.3294 -52.8729
L13.6343 -53.2712
L13.946 -53.6642
L14.2644 -54.0518
L14.5894 -54.434
L14.9209 -54.8105
L15.2589 -55.1813
L15.6032 -55.5463
L15.9537 -55.9053
L16.3103 -56.2582
L16.6729 -56.605
L17.0414 -56.9455
L17.4157 -57.2796
L17.7956 -57.6072
L18.1811 -57.9283
L18.572 -58.2427
L18.9682 -58.5503
L19.3696 -58.851
L19.7761 -59.1448
L20.1875 -59.4315
L20.6037 -59.711
L21.0246 -59.9834
L21.4501 -60.2484
L21.88 -60.5061
L22.3142 -60.7563
L22.7526 -60.999
L23.195 -61.234
L23.6413 -61.4614
L24.0914 -61.681
L24.5451 -61.8927
L25.0023 -62.0966
L25.4628 -62.2926
L25.9266 -62.4805
L26.3934 -62.6604
L26.8631 -62.8321
L27.3357 -62.9957
L27.8108 -63.151
L28.2885 -63.2981
L28.7685 -63.4369
L29.2507 -63.5673
L29.735 -63.6893
L30.2212 -63.8029
L30.7091 -63.908
L31.1987 -64.0046
L31.6897 -64.0927
L32.182 -64.1722
L32.6755 -64.2431
L33.17 -64.3054
L33.6654 -64.3591
L34.1615 -64.4042
z
" id="C0_2_1cf117b49c"/>
    </defs>
    <g clip-path="url(#p1bffca34e9)">
     <use style="fill:#ff0000;stroke:#000000;stroke-width:2.0;" x="0.0" xlink:href="#C0_0_a811fe30f3" y="72.0"/>
    </g>
    <g clip-path="url(#p1bffca34e9)">
     <use style="fill:#ffffff;stroke:#000000;stroke-width:2.0;" x="0.0" xlink:href="#C0_1_7d37382e71" y="72.0"/>
    </g>
    <g clip-path="url(#p1bffca34e9)">
     <use style="fill:#ffffff;stroke:#000000;stroke-width:2.0;" x="0.0" xlink:href="#C0_2_1cf117b49c" y="72.0"/>
    </g>
   </g>
  </g>
 </g>
 <defs>
  <clipPath id="p1bffca34e9">
   <rect height="72.0" width="72.0" x="0.0" y="0.0"/>
  </clipPath>
 </defs>
</svg>
