<?xml version="1.0" encoding="utf-8" standalone="no"?>
<!DOCTYPE svg PUBLIC "-//W3C//DTD SVG 1.1//EN"
  "http://www.w3.org/Graphics/SVG/1.1/DTD/svg11.dtd">
<!-- Created with matplotlib (http://matplotlib.org/) -->
<svg height="72pt" version="1.1" viewBox="0 0 72 72" width="72pt" xmlns="http://www.w3.org/2000/svg" xmlns:xlink="http://www.w3.org/1999/xlink">
 <defs>
  <style type="text/css">
*{stroke-linecap:butt;stroke-linejoin:round;}
  </style>
 </defs>
 <g id="figure_1">
  <g id="patch_1">
   <path d="
M0 72
L72 72
L72 0
L0 0
z
" style="fill:none;"/>
  </g>
  <g id="axes_1">
   <g id="PatchCollection_1">
    <defs>
     <path d="
M36 -7.5
C43.5583 -7.5 50.808 -10.5029 56.1525 -15.8475
C61.4971 -21.192 64.5 -28.4417 64.5 -36
C64.5 -43.5583 61.4971 -50.808 56.1525 -56.1525
C50.808 -61.4971 43.5583 -64.5 36 -64.5
C28.4417 -64.5 21.192 -61.4971 15.8475 -56.1525
C10.5029 -50.808 7.5 -43.5583 7.5 -36
C7.5 -28.4417 10.5029 -21.192 15.8475 -15.8475
C21.192 -10.5029 28.4417 -7.5 36 -7.5
z
" id="C0_0_a811fe30f3"/>
     <path d="
M28.6164 -8.55745
L28.7003 -8.74225
L28.784 -8.92709
L28.8675 -9.11196
L28.9508 -9.2969
L29.0339 -9.4819
L29.1167 -9.66699
L29.1994 -9.85218
L29.2819 -10.0375
L29.3641 -10.223
L29.4462 -10.4086
L29.5282 -10.5944
L29.61 -10.7804
L29.6916 -10.9667
L29.7731 -11.1532
L29.8545 -11.3401
L29.9358 -11.5272
L30.017 -11.7147
L30.0982 -11.9026
L30.1793 -12.0909
L30.2603 -12.2797
L30.3413 -12.4689
L30.4223 -12.6587
L30.5034 -12.849
L30.5844 -13.0399
L30.6655 -13.2315
L30.7466 -13.4237
L30.8279 -13.6166
L30.9092 -13.8103
L31.0722 -14.0047
L31.1539 -14.2
L31.2357 -14.3962
L31.3178 -14.5933
L31.4001 -14.7914
L31.4826 -14.9904
L31.5653 -15.1906
L31.6484 -15.3918
L31.7317 -15.5942
L31.8153 -15.7978
L31.8992 -16.0027
L31.9835 -16.2089
L32.0682 -16.4164
L32.1533 -16.6253
L32.2388 -16.8357
L32.3247 -17.0476
L32.4111 -17.2611
L32.4979 -17.4762
L32.5853 -17.6931
L32.6732 -17.9116
L32.7617 -18.132
L32.8507 -18.3542
L32.9404 -18.5783
L33.0307 -18.8044
L33.1216 -19.0325
L33.2132 -19.2628
L33.3055 -19.4952
L33.3986 -19.7298
L33.4924 -19.9667
L33.587 -20.2059
L33.6824 -20.4476
L33.7786 -20.6917
L33.8757 -20.9384
L33.9737 -21.1876
L34.0726 -21.4395
L34.1724 -21.6941
L34.2733 -21.9515
L34.3751 -22.2118
L34.478 -22.4749
L34.5819 -22.7409
L34.687 -23.01
L34.7931 -23.2821
L34.9005 -23.5572
L35.009 -23.8356
L35.1187 -24.1171
L35.2297 -24.4019
L35.3419 -24.6899
L35.4555 -24.9812
L35.5705 -25.2759
L35.6868 -25.5738
L35.8045 -25.8752
L35.9237 -26.1799
L36.0444 -26.4879
L36.1667 -26.7993
L36.2905 -27.1141
L36.4159 -27.4321
L36.543 -27.7534
L36.6718 -28.0778
L36.8024 -28.4055
L36.9348 -28.7361
L37.0691 -29.0697
L37.2053 -29.4061
L37.3435 -29.7452
L37.4838 -30.0868
L37.6262 -30.4307
L37.771 -30.7767
L37.918 -31.1246
L38.0676 -31.4741
L38.2197 -31.8248
L38.3746 -32.1765
L38.5324 -32.5286
L38.6933 -32.8809
L38.8575 -33.2327
L39.0251 -33.5836
L39.1966 -33.9329
L39.3721 -34.28
L39.552 -34.6241
L39.7366 -34.9645
L39.9264 -35.3002
L40.1217 -35.6303
L40.323 -35.9538
L40.5308 -36.2696
L40.7457 -36.5765
L40.9681 -36.8733
L41.1986 -37.1587
L41.4376 -37.4315
L41.6857 -37.6904
L41.9432 -37.9343
L42.2104 -38.1621
L42.4874 -38.3727
L42.7744 -38.5655
L43.0713 -38.7397
L43.3777 -38.8952
L43.6932 -39.0318
L44.0173 -39.1497
L44.3494 -39.2491
L44.6887 -39.3308
L45.0344 -39.3953
L45.3856 -39.4435
L45.7416 -39.4764
L46.1013 -39.4949
L46.4641 -39.4999
L46.8292 -39.4924
L47.1957 -39.4735
L47.563 -39.4439
L47.9305 -39.4044
L48.2975 -39.356
L48.6635 -39.2994
L49.028 -39.2351
L49.3906 -39.1639
L49.7509 -39.0863
L50.1084 -39.0028
L50.463 -38.914
L50.8143 -38.8203
L51.1621 -38.7221
L51.5061 -38.6197
L51.8461 -38.5135
L52.1821 -38.4038
L52.5139 -38.2909
L52.8412 -38.1751
L53.1642 -38.0565
L53.4826 -37.9355
L53.7965 -37.8122
L54.1057 -37.6868
L54.4102 -37.5594
L54.7101 -37.4303
L55.0054 -37.2995
L55.2959 -37.1673
L55.5818 -37.0336
L55.863 -36.8987
L56.1397 -36.7626
L56.4117 -36.6255
L56.6793 -36.4873
L56.9423 -36.3482
L57.2009 -36.2082
L57.4552 -36.0674
L57.7051 -35.9259
L57.9507 -35.7836
L58.1922 -35.6407
L58.4295 -35.4972
L58.6628 -35.3531
L58.892 -35.2084
L59.1174 -35.0632
L59.3388 -34.9175
L59.5565 -34.7712
L59.7705 -34.6245
L59.9808 -34.4772
L60.1875 -34.3295
L60.3907 -34.1813
L60.5904 -34.0326
L60.7868 -33.8835
L60.9798 -33.7338
L61.1696 -33.5837
L61.3562 -33.433
L61.5396 -33.2818
L61.72 -33.13
L61.8974 -32.9777
L62.0718 -32.8249
L62.2433 -32.6714
L62.4119 -32.5172
L62.5777 -32.3625
L62.7408 -32.207
L62.9012 -32.0508
L63.0589 -31.8939
L63.2139 -31.7362
L63.3664 -31.5777
L63.5164 -31.4183
L63.6638 -31.258
L63.8087 -31.0968
L63.9512 -30.9346
L63.9184 -30.7714
L63.8141 -30.2715
L63.7014 -29.7851
L63.5803 -29.3007
L63.4507 -28.8182
L63.3128 -28.338
L63.1666 -27.8601
L63.0121 -27.3846
L62.8494 -26.9118
L62.6785 -26.4418
L62.4995 -25.9746
L62.3124 -25.5106
L62.1172 -25.0497
L61.9142 -24.5921
L61.7032 -24.1381
L61.4844 -23.6876
L61.2579 -23.2409
L61.0236 -22.7981
L60.7817 -22.3593
L60.5323 -21.9246
L60.2754 -21.4943
L60.0111 -21.0683
L59.7395 -20.6469
L59.4607 -20.2302
L59.1747 -19.8183
L58.8817 -19.4113
L58.5816 -19.0094
L58.2747 -18.6127
L57.9611 -18.2212
L57.6407 -17.8352
L57.3138 -17.4547
L56.9803 -17.0798
L56.6405 -16.7107
L56.2943 -16.3475
L55.942 -15.9903
L55.5836 -15.6391
L55.2193 -15.2942
L54.8491 -14.9556
L54.4731 -14.6233
L54.0916 -14.2976
L53.7045 -13.9785
L53.312 -13.6661
L52.9143 -13.3606
L52.5114 -13.0619
L52.1034 -12.7702
L51.6906 -12.4855
L51.273 -12.2081
L50.8507 -11.9379
L50.4239 -11.675
L49.9927 -11.4195
L49.5573 -11.1715
L49.1177 -10.9311
L48.6741 -10.6983
L48.2267 -10.4732
L47.7755 -10.2559
L47.3208 -10.0465
L46.8626 -9.84489
L46.4011 -9.6513
L45.9364 -9.46574
L45.4687 -9.28825
L44.9982 -9.11891
L44.5248 -8.95775
L44.0489 -8.80483
L43.5705 -8.66019
L43.0899 -8.52388
L42.607 -8.39594
L42.1222 -8.27641
L41.6355 -8.16533
L41.147 -8.06272
L40.657 -7.96862
L40.1656 -7.88306
L39.6729 -7.80607
L39.1791 -7.73766
L38.6843 -7.67787
L38.1888 -7.6267
L37.6925 -7.58417
L37.1957 -7.5503
L36.6986 -7.52509
L36.2012 -7.50856
L35.7038 -7.50071
L35.2065 -7.50154
L34.7094 -7.51105
L34.2127 -7.52924
L33.7166 -7.5561
L33.2211 -7.59162
L32.7265 -7.6358
L32.2329 -7.68862
L31.7405 -7.75006
L31.2493 -7.8201
L30.7596 -7.89873
L30.2715 -7.98593
L29.7851 -8.08165
L29.3007 -8.18588
z
" id="C0_1_9a24e573c9"/>
     <path d="
M8.11393 -41.3535
L8.3054 -41.4531
L8.4977 -41.5509
L8.69085 -41.6471
L8.88488 -41.7415
L9.07982 -41.8344
L9.27571 -41.9256
L9.47257 -42.0154
L9.67044 -42.1037
L9.86937 -42.1905
L10.0694 -42.2759
L10.2705 -42.36
L10.4728 -42.4427
L10.6764 -42.5242
L10.8812 -42.6044
L11.0873 -42.6833
L11.2947 -42.761
L11.5035 -42.8376
L11.7138 -42.913
L11.9256 -42.9872
L12.1389 -43.0604
L12.3538 -43.1324
L12.5704 -43.2035
L12.7886 -43.2734
L13.0087 -43.3423
L13.2305 -43.4103
L13.4542 -43.4772
L13.6799 -43.5431
L13.9076 -43.6081
L14.1373 -43.6721
L14.3691 -43.7351
L14.6031 -43.7972
L14.8394 -43.8584
L15.0779 -43.9186
L15.3189 -43.978
L15.5622 -44.0364
L15.8081 -44.0939
L16.0566 -44.1505
L16.3077 -44.2062
L16.5615 -44.261
L16.8181 -44.3149
L17.0775 -44.3679
L17.3399 -44.4199
L17.6052 -44.4711
L17.8736 -44.5213
L18.1452 -44.5707
L18.4199 -44.6191
L18.6978 -44.6665
L18.9791 -44.7131
L19.2638 -44.7587
L19.552 -44.8033
L19.8436 -44.847
L20.1389 -44.8898
L20.4377 -44.9315
L20.7403 -44.9723
L21.0466 -45.0121
L21.3566 -45.0509
L21.6705 -45.0887
L21.9883 -45.1256
L22.31 -45.1614
L22.6355 -45.1962
L22.965 -45.2301
L23.2985 -45.2629
L23.6359 -45.2948
L23.9773 -45.3257
L24.3227 -45.3557
L24.6719 -45.3847
L25.025 -45.4129
L25.382 -45.4402
L25.7427 -45.4666
L26.1071 -45.4924
L26.475 -45.5175
L26.8465 -45.5419
L27.2213 -45.5659
L27.5992 -45.5895
L27.9802 -45.6129
L28.364 -45.6361
L28.7504 -45.6595
L29.139 -45.6832
L29.5297 -45.7074
L29.922 -45.7324
L30.3157 -45.7586
L30.7103 -45.7863
L31.1054 -45.816
L31.5005 -45.848
L31.895 -45.883
L32.2884 -45.9214
L32.68 -45.964
L33.0691 -46.0115
L33.4551 -46.0647
L33.837 -46.1244
L34.2141 -46.1916
L34.5856 -46.2671
L34.9505 -46.3522
L35.3079 -46.4476
L35.6569 -46.5544
L35.9968 -46.6737
L36.3268 -46.8061
L36.6461 -46.9524
L36.9542 -47.1132
L37.2506 -47.2888
L37.5352 -47.4793
L37.8077 -47.6846
L38.0682 -47.9042
L38.3168 -48.1378
L38.5539 -48.3844
L38.7799 -48.6432
L38.9951 -48.9132
L39.2002 -49.1934
L39.3957 -49.4825
L39.5821 -49.7795
L39.7599 -50.0834
L39.9298 -50.3931
L40.0921 -50.7075
L40.2473 -51.0258
L40.396 -51.3471
L40.5384 -51.6706
L40.675 -51.9956
L40.806 -52.3214
L40.9319 -52.6475
L41.0528 -52.9733
L41.169 -53.2983
L41.2807 -53.6221
L41.3883 -53.9442
L41.4917 -54.2645
L41.5913 -54.5826
L41.6872 -54.8981
L41.7795 -55.2109
L41.8684 -55.5209
L41.9541 -55.8277
L42.0365 -56.1313
L42.1159 -56.4316
L42.1923 -56.7284
L42.2659 -57.0216
L42.3367 -57.3113
L42.4049 -57.5973
L42.4705 -57.8796
L42.5335 -58.1583
L42.5941 -58.4332
L42.6524 -58.7043
L42.7084 -58.9718
L42.7621 -59.2355
L42.8137 -59.4956
L42.8631 -59.752
L42.9105 -60.0048
L42.9559 -60.254
L42.9993 -60.4997
L43.0409 -60.7419
L43.0806 -60.9807
L43.1184 -61.216
L43.1545 -61.4481
L43.1889 -61.6769
L43.2216 -61.9025
L43.2526 -62.125
L43.282 -62.3444
L43.3098 -62.5607
L43.336 -62.7742
L43.3608 -62.9847
L43.384 -63.1924
L42.9555 -63.3974
L42.4721 -63.6382
L41.9867 -63.7554
L41.4995 -63.8641
L41.0106 -63.9644
L40.5202 -64.0561
L40.0284 -64.1393
L39.5354 -64.2139
L39.0413 -64.2799
L38.5463 -64.3373
L38.0505 -64.386
L37.5541 -64.4261
L37.0572 -64.4576
L36.56 -64.4804
L36.0626 -64.4945
L35.5652 -64.4999
L35.0679 -64.4967
L34.571 -64.4848
L34.0744 -64.4641
L33.5784 -64.4349
L33.0832 -64.3969
L32.5889 -64.3504
L32.0956 -64.2951
L31.6035 -64.2313
L31.1127 -64.1588
L30.6234 -64.0778
L30.1358 -63.9883
L29.6499 -63.8902
L29.166 -63.7836
L28.6842 -63.6685
L28.2045 -63.545
L27.7273 -63.4132
L27.2526 -63.2729
L26.7805 -63.1244
L26.3113 -62.9676
L25.845 -62.8026
L25.3818 -62.6294
L24.9218 -62.4481
L24.4652 -62.2588
L24.0122 -62.0614
L23.5627 -61.8562
L23.1171 -61.643
L22.6754 -61.422
L22.2377 -61.1933
L21.8043 -60.957
L21.3751 -60.713
L20.9504 -60.4615
L20.5303 -60.2025
L20.1149 -59.9362
L19.7044 -59.6625
L19.2988 -59.3817
L18.8983 -59.0937
L18.503 -58.7987
L18.1131 -58.4968
L17.7286 -58.188
L17.3496 -57.8725
L16.9764 -57.5502
L16.6089 -57.2215
L16.2473 -56.8862
L15.8918 -56.5446
L15.5424 -56.1968
L15.1992 -55.8428
L14.8623 -55.4827
L14.5319 -55.1167
L14.208 -54.7449
L13.8908 -54.3674
L13.5803 -53.9842
L13.2766 -53.5956
L12.9799 -53.2017
L12.6901 -52.8025
L12.4075 -52.3982
L12.132 -51.9889
L11.8639 -51.5747
L11.603 -51.1558
L11.3496 -50.7322
L11.1038 -50.3042
L10.8654 -49.8718
L10.6348 -49.4352
L10.4119 -48.9945
L10.1968 -48.5498
L9.98948 -48.1013
L9.79014 -47.6492
L9.59878 -47.1934
L9.41546 -46.7343
L9.24024 -46.2719
L9.07317 -45.8064
L8.9143 -45.3379
L8.76369 -44.8665
L8.62137 -44.3924
L8.48739 -43.9158
L8.36179 -43.4368
L8.2446 -42.9555
L8.13588 -42.4721
z
" id="C0_2_a7dba3e474"/>
    </defs>
    <g clip-path="url(#p1bffca34e9)">
     <use style="fill:#ffffff;stroke:#000000;stroke-width:2.0;" x="0.0" xlink:href="#C0_0_a811fe30f3" y="72.0"/>
    </g>
    <g clip-path="url(#p1bffca34e9)">
     <use style="fill:#ff0000;stroke:#000000;stroke-width:2.0;" x="0.0" xlink:href="#C0_1_9a24e573c9" y="72.0"/>
    </g>
    <g clip-path="url(#p1bffca34e9)">
     <use style="fill:#ff0000;stroke:#000000;stroke-width:2.0;" x="0.0" xlink:href="#C0_2_a7dba3e474" y="72.0"/>
    </g>
   </g>
  </g>
 </g>
 <defs>
  <clipPath id="p1bffca34e9">
   <rect height="72.0" width="72.0" x="0.0" y="0.0"/>
  </clipPath>
 </defs>
</svg>
