<?xml version="1.0" encoding="utf-8" standalone="no"?>
<!DOCTYPE svg PUBLIC "-//W3C//DTD SVG 1.1//EN"
  "http://www.w3.org/Graphics/SVG/1.1/DTD/svg11.dtd">
<!-- Created with matplotlib (http://matplotlib.org/) -->
<svg height="72pt" version="1.1" viewBox="0 0 72 72" width="72pt" xmlns="http://www.w3.org/2000/svg" xmlns:xlink="http://www.w3.org/1999/xlink">
 <defs>
  <style type="text/css">
*{stroke-linecap:butt;stroke-linejoin:round;}
  </style>
 </defs>
 <g id="figure_1">
  <g id="patch_1">
   <path d="
M0 72
L72 72
L72 0
L0 0
z
" style="fill:none;"/>
  </g>
  <g id="axes_1">
   <g id="PatchCollection_1">
    <defs>
     <path d="
M36 -7.5
C43.5583 -7.5 50.808 -10.5029 56.1525 -15.8475
C61.4971 -21.192 64.5 -28.4417 64.5 -36
C64.5 -43.5583 61.4971 -50.808 56.1525 -56.1525
C50.808 -61.4971 43.5583 -64.5 36 -64.5
C28.4417 -64.5 21.192 -61.4971 15.8475 -56.1525
C10.5029 -50.808 7.5 -43.5583 7.5 -36
C7.5 -28.4417 10.5029 -21.192 15.8475 -15.8475
C21.192 -10.5029 28.4417 -7.5 36 -7.5
z
" id="C0_0_a811fe30f3"/>
     <path d="
M25.5738 -9.5157
L25.9604 -9.43071
L26.3475 -9.35347
L26.735 -9.28402
L27.1225 -9.22239
L27.51 -9.16861
L27.8972 -9.12269
L28.2839 -9.08465
L28.6699 -9.05451
L29.055 -9.03227
L29.4389 -9.01792
L29.8215 -9.01146
L30.2025 -9.01287
L30.5818 -9.02215
L30.9591 -9.03926
L31.3341 -9.06416
L31.7068 -9.09683
L32.0768 -9.13722
L32.4441 -9.18528
L32.8082 -9.24096
L33.1692 -9.30418
L33.5267 -9.37489
L33.8805 -9.45301
L34.2305 -9.53846
L34.5765 -9.63115
L34.9183 -9.73099
L35.2557 -9.83788
L35.5885 -9.95172
L35.9166 -10.0724
L36.2397 -10.1998
L36.5578 -10.3338
L36.8706 -10.4743
L37.178 -10.6212
L37.48 -10.7743
L37.7762 -10.9335
L38.0667 -11.0986
L38.3512 -11.2696
L38.6298 -11.4462
L38.9022 -11.6283
L39.1684 -11.8158
L39.4282 -12.0085
L39.6817 -12.2063
L39.9287 -12.409
L40.1691 -12.6163
L40.403 -12.8283
L40.6302 -13.0447
L40.8507 -13.2654
L41.0645 -13.4901
L41.2715 -13.7188
L41.4718 -13.9513
L41.6653 -14.1874
L41.8521 -14.4269
L42.0321 -14.6698
L42.2053 -14.9158
L42.3717 -15.1648
L42.5315 -15.4166
L42.6846 -15.6711
L42.831 -15.9282
L42.9708 -16.1877
L43.1041 -16.4495
L43.2308 -16.7133
L43.3511 -16.9792
L43.4651 -17.2469
L43.5727 -17.5163
L43.674 -17.7873
L43.7692 -18.0598
L43.8583 -18.3336
L43.9414 -18.6086
L44.0186 -18.8848
L44.0899 -19.162
L44.1554 -19.4401
L44.2153 -19.719
L44.2696 -19.9986
L44.3184 -20.2787
L44.3618 -20.5594
L44.3999 -20.8406
L44.4328 -21.122
L44.4605 -21.4037
L44.4833 -21.6856
L44.5011 -21.9676
L44.5141 -22.2496
L44.5223 -22.5315
L44.5258 -22.8133
L44.5249 -23.095
L44.5194 -23.3764
L44.5096 -23.6576
L44.4954 -23.9383
L44.4771 -24.2187
L44.4546 -24.4986
L44.4281 -24.7781
L44.3977 -25.0569
L44.3633 -25.3352
L44.3252 -25.6129
L44.2834 -25.8899
L44.2379 -26.1662
L44.1889 -26.4417
L44.1363 -26.7165
L44.0804 -26.9905
L44.0211 -27.2637
L43.9585 -27.536
L43.8927 -27.8075
L43.8237 -28.078
L43.7516 -28.3476
L43.6765 -28.6163
L43.5985 -28.884
L43.5175 -29.1508
L43.4336 -29.4165
L43.3469 -29.6812
L43.2574 -29.945
L43.1652 -30.2076
L43.0704 -30.4692
L42.9729 -30.7298
L42.8728 -30.9893
L42.7702 -31.2477
L42.665 -31.505
L42.5574 -31.7612
L42.4474 -32.0163
L42.3349 -32.2703
L42.2201 -32.5231
L42.103 -32.7749
L41.9835 -33.0254
L41.8618 -33.2749
L41.7378 -33.5232
L41.6116 -33.7703
L41.4832 -34.0162
L41.3526 -34.261
L41.2198 -34.5046
L41.0849 -34.7471
L40.9479 -34.9883
L40.8087 -35.2283
L40.6675 -35.4672
L40.5242 -35.7048
L40.3789 -35.9412
L40.2314 -36.1764
L39.9305 -36.4103
L39.777 -36.643
L39.6215 -36.8744
L39.4639 -37.1046
L39.3044 -37.3335
L39.1429 -37.5611
L38.9794 -37.7874
L38.8139 -38.0124
L38.6465 -38.2361
L38.477 -38.4584
L38.3056 -38.6794
L38.1322 -38.899
L37.9568 -39.1172
L37.7795 -39.334
L37.6002 -39.5494
L37.4189 -39.7633
L37.2356 -39.9758
L37.0503 -40.1867
L36.8631 -40.3961
L36.6738 -40.604
L36.4826 -40.8103
L36.2894 -41.015
L36.0942 -41.2181
L35.897 -41.4194
L35.6978 -41.6191
L35.4966 -41.8171
L35.2933 -42.0132
L35.0881 -42.2076
L34.8808 -42.4001
L34.6715 -42.5907
L34.4602 -42.7793
L34.2469 -42.966
L34.0315 -43.1506
L33.8141 -43.3331
L33.5947 -43.5135
L33.3732 -43.6917
L33.1497 -43.8676
L32.9241 -44.0413
L32.6965 -44.2125
L32.4669 -44.3813
L32.2352 -44.5476
L32.0015 -44.7113
L31.7657 -44.8724
L31.528 -45.0308
L31.2882 -45.1864
L31.0464 -45.3391
L30.8026 -45.4888
L30.5568 -45.6356
L30.3091 -45.7792
L30.0593 -45.9197
L29.8076 -46.0568
L29.554 -46.1906
L29.2985 -46.3209
L29.041 -46.4476
L28.7817 -46.5707
L28.5205 -46.6901
L28.2575 -46.8055
L27.9927 -46.9171
L27.7261 -47.0245
L27.4578 -47.1278
L27.1877 -47.2268
L26.9161 -47.3215
L26.6428 -47.4117
L26.3679 -47.4972
L26.0915 -47.5781
L25.8137 -47.6541
L25.5344 -47.7252
L25.2537 -47.7913
L24.9717 -47.8522
L24.6885 -47.9078
L24.4042 -47.9581
L24.1187 -48.0029
L23.8322 -48.0421
L23.5447 -48.0756
L23.2564 -48.1032
L22.9672 -48.125
L22.6774 -48.1407
L22.387 -48.1503
L22.0961 -48.1537
L21.8047 -48.1508
L21.5131 -48.1415
L21.2213 -48.1257
L20.9293 -48.1033
L20.6374 -48.0742
L20.3457 -48.0384
L20.0542 -47.9957
L19.7631 -47.9462
L19.4725 -47.8898
L19.1826 -47.8263
L18.8935 -47.7558
L18.6052 -47.6781
L18.3181 -47.5934
L18.0321 -47.5014
L17.7475 -47.4022
L17.4644 -47.2958
L17.1829 -47.1822
L16.9031 -47.0613
L16.6253 -46.9331
L16.3496 -46.7977
L16.0762 -46.655
L15.8051 -46.5051
L15.5365 -46.3479
L15.2707 -46.1836
L15.0077 -46.0122
L14.7477 -45.8337
L14.4908 -45.6481
L14.2372 -45.4555
L13.9871 -45.256
L13.7406 -45.0496
L13.4978 -44.8364
L13.2589 -44.6166
L13.024 -44.3901
L12.7933 -44.1571
L12.5669 -43.9176
L12.345 -43.6718
L12.1276 -43.4198
L11.9149 -43.1617
L11.7071 -42.8976
L11.5042 -42.6276
L11.3064 -42.3518
L11.1138 -42.0705
L10.9264 -41.7836
L10.7445 -41.4913
L10.5681 -41.1939
L10.3974 -40.8913
L10.2323 -40.5838
L10.0731 -40.2715
L9.91972 -39.9545
L9.77238 -39.633
L9.6311 -39.3071
L9.49598 -38.9771
L9.36709 -38.643
L9.24449 -38.3049
L9.12827 -37.9632
L9.01847 -37.6178
L8.91516 -37.2689
L8.8184 -36.9168
L8.72824 -36.5616
L8.64472 -36.2034
L8.5679 -35.8423
L8.49782 -35.4786
L8.4345 -35.1124
L8.378 -34.7438
L8.32835 -34.373
L8.28556 -34.0002
L8.24967 -33.6255
L8.22069 -33.249
L8.19866 -32.871
L8.18358 -32.4915
L8.17548 -32.1107
L8.17435 -31.7288
L8.18022 -31.3459
L8.19308 -30.9621
L8.21294 -30.5777
L8.2398 -30.1927
L8.27365 -29.8073
L8.38886 -29.4216
L8.51632 -28.9378
L8.65215 -28.457
L8.79631 -27.9785
L8.94875 -27.5024
L9.10944 -27.0289
L9.27832 -26.5582
L9.45534 -26.0903
L9.64044 -25.6255
L9.83357 -25.1638
L10.0347 -24.7054
L10.2437 -24.2504
L10.4605 -23.7991
L10.6852 -23.3514
L10.9175 -22.9076
L11.1575 -22.4678
L11.4051 -22.0321
L11.6601 -21.6007
L11.9226 -21.1736
L12.1924 -20.7511
L12.4694 -20.3332
L12.7537 -19.9201
L13.045 -19.5119
L13.3432 -19.1087
L13.6484 -18.7107
L13.9604 -18.3179
L14.2791 -17.9305
L14.6045 -17.5486
L14.9363 -17.1723
L15.2746 -16.8018
L15.6192 -16.4371
L15.9699 -16.0784
L16.3268 -15.7257
L16.6897 -15.3792
L17.0585 -15.039
L17.433 -14.7052
L17.8132 -14.3779
L18.1989 -14.0571
L18.5901 -13.7431
L18.9865 -13.4358
L19.3881 -13.1354
L19.7948 -12.8419
L20.2065 -12.5555
L20.6229 -12.2763
L21.044 -12.0043
L21.4697 -11.7396
L21.8998 -11.4822
L22.3342 -11.2324
L22.7728 -10.9901
L23.2154 -10.7554
L23.6619 -10.5284
L24.1121 -10.3091
L24.566 -10.0977
L25.0233 -9.89419
z
" id="C0_1_680d5b5b32"/>
     <path d="
M63.5924 -42.9407
L63.4474 -43.2993
L63.299 -43.6559
L63.1473 -44.0105
L62.9923 -44.3631
L62.834 -44.7136
L62.6725 -45.0622
L62.5076 -45.4087
L62.3396 -45.7531
L62.1683 -46.0955
L61.9938 -46.4359
L61.8162 -46.7741
L61.6354 -47.1103
L61.4515 -47.4444
L61.2644 -47.7764
L61.0742 -48.1063
L60.8809 -48.4341
L60.6846 -48.7598
L60.4851 -49.0834
L60.2826 -49.4048
L60.0771 -49.7242
L59.8685 -50.0413
L59.6569 -50.3564
L59.4423 -50.6693
L59.2247 -50.98
L59.0041 -51.2886
L58.7805 -51.595
L58.5539 -51.8993
L58.3243 -52.2014
L58.0918 -52.5013
L57.8563 -52.799
L57.6179 -53.0945
L57.3765 -53.3878
L57.1322 -53.6788
L56.885 -53.9677
L56.6348 -54.2543
L56.3817 -54.5386
L56.1257 -54.8207
L55.8668 -55.1006
L55.6051 -55.3781
L55.3404 -55.6534
L55.0728 -55.9263
L54.8023 -56.1969
L54.529 -56.4652
L54.2528 -56.7311
L53.9738 -56.9946
L53.6919 -57.2558
L53.4071 -57.5145
L53.1195 -57.7708
L52.8291 -58.0247
L52.5359 -58.2761
L52.2399 -58.525
L51.9412 -58.7715
L51.6396 -59.0153
L51.3353 -59.2567
L51.0282 -59.4954
L50.7185 -59.7316
L50.406 -59.9651
L50.0908 -60.196
L49.773 -60.4243
L49.4525 -60.6498
L49.1294 -60.8726
L48.8037 -61.0926
L48.4754 -61.3099
L48.1446 -61.5244
L47.8113 -61.736
L47.4755 -61.9448
L47.1372 -62.1507
L47.263 -62.3537
L47.7182 -62.1801
L48.1698 -61.9795
L48.6177 -61.771
L49.0618 -61.5547
L49.5019 -61.3306
L49.9378 -61.0988
L50.3696 -60.8593
L50.7969 -60.6123
L51.2198 -60.3578
L51.638 -60.0958
L52.0514 -59.8265
L52.46 -59.55
L52.8635 -59.2663
L53.2619 -58.9754
L53.6551 -58.6776
L54.0429 -58.3729
L54.4251 -58.0614
L54.8018 -57.7431
L55.1727 -57.4183
L55.5378 -57.0869
L55.897 -56.749
L56.2501 -56.4049
L56.597 -56.0545
L56.9376 -55.6981
L57.2719 -55.3356
L57.5997 -54.9673
L57.9209 -54.5931
L58.2354 -54.2133
L58.5432 -53.828
L58.844 -53.4372
L59.138 -53.0411
L59.4249 -52.6398
L59.7046 -52.2335
L59.9771 -51.8222
L60.2424 -51.4061
L60.5002 -50.9853
L60.7506 -50.5599
L60.9934 -50.1301
L61.2286 -49.696
L61.4562 -49.2577
L61.6759 -48.8154
L61.8879 -48.3692
L62.092 -47.9192
L62.2881 -47.4656
L62.4762 -47.0084
L62.6563 -46.548
L62.8282 -46.0843
L62.992 -45.6175
L63.1475 -45.1479
L63.2948 -44.6754
L63.4337 -44.2003
z
" id="C0_2_cec7302a1f"/>
    </defs>
    <g clip-path="url(#p1bffca34e9)">
     <use style="fill:#ffffff;stroke:#000000;stroke-width:2.0;" x="0.0" xlink:href="#C0_0_a811fe30f3" y="72.0"/>
    </g>
    <g clip-path="url(#p1bffca34e9)">
     <use style="fill:#ff0000;stroke:#000000;stroke-width:2.0;" x="0.0" xlink:href="#C0_1_680d5b5b32" y="72.0"/>
    </g>
    <g clip-path="url(#p1bffca34e9)">
     <use style="fill:#ff0000;stroke:#000000;stroke-width:2.0;" x="0.0" xlink:href="#C0_2_cec7302a1f" y="72.0"/>
    </g>
   </g>
  </g>
 </g>
 <defs>
  <clipPath id="p1bffca34e9">
   <rect height="72.0" width="72.0" x="0.0" y="0.0"/>
  </clipPath>
 </defs>
</svg>
