<?xml version="1.0" encoding="utf-8" standalone="no"?>
<!DOCTYPE svg PUBLIC "-//W3C//DTD SVG 1.1//EN"
  "http://www.w3.org/Graphics/SVG/1.1/DTD/svg11.dtd">
<!-- Created with matplotlib (http://matplotlib.org/) -->
<svg height="72pt" version="1.1" viewBox="0 0 72 72" width="72pt" xmlns="http://www.w3.org/2000/svg" xmlns:xlink="http://www.w3.org/1999/xlink">
 <defs>
  <style type="text/css">
*{stroke-linecap:butt;stroke-linejoin:round;}
  </style>
 </defs>
 <g id="figure_1">
  <g id="patch_1">
   <path d="
M0 72
L72 72
L72 0
L0 0
z
" style="fill:none;"/>
  </g>
  <g id="axes_1">
   <g id="PatchCollection_1">
    <defs>
     <path d="
M36 -7.5
C43.5583 -7.5 50.808 -10.5029 56.1525 -15.8475
C61.4971 -21.192 64.5 -28.4417 64.5 -36
C64.5 -43.5583 61.4971 -50.808 56.1525 -56.1525
C50.808 -61.4971 43.5583 -64.5 36 -64.5
C28.4417 -64.5 21.192 -61.4971 15.8475 -56.1525
C10.5029 -50.808 7.5 -43.5583 7.5 -36
C7.5 -28.4417 10.5029 -21.192 15.8475 -15.8475
C21.192 -10.5029 28.4417 -7.5 36 -7.5
z
" id="C0_0_a811fe30f3"/>
     <path d="
M62.4993 -46.422
L62.3027 -46.4156
L62.106 -46.4084
L61.909 -46.4004
L61.7118 -46.3916
L61.5143 -46.382
L61.3166 -46.3717
L61.1185 -46.3606
L60.92 -46.3487
L60.7211 -46.3361
L60.5218 -46.3228
L60.3221 -46.3087
L60.1218 -46.2939
L59.9209 -46.2784
L59.7195 -46.2622
L59.5175 -46.2453
L59.3148 -46.2276
L59.1114 -46.2093
L58.7023 -46.1903
L58.4965 -46.1706
L58.2898 -46.1501
L58.0822 -46.129
L57.8736 -46.1071
L57.664 -46.0846
L57.4534 -46.0614
L57.2416 -46.0374
L57.0286 -46.0128
L56.8144 -45.9874
L56.599 -45.9613
L56.3822 -45.9345
L56.164 -45.9069
L55.9444 -45.8786
L55.7233 -45.8496
L55.5007 -45.8198
L55.2764 -45.7893
L55.0505 -45.7579
L54.8229 -45.7259
L54.5935 -45.693
L54.3623 -45.6593
L54.1292 -45.6249
L53.8942 -45.5896
L53.6571 -45.5535
L53.418 -45.5166
L53.1767 -45.4788
L52.9332 -45.4402
L52.6875 -45.4007
L52.4394 -45.3603
L52.1889 -45.319
L51.9361 -45.2769
L51.6807 -45.2338
L51.4227 -45.1898
L51.1621 -45.1448
L50.8988 -45.099
L50.6327 -45.0521
L50.3638 -45.0043
L50.0921 -44.9555
L49.8174 -44.9058
L49.5397 -44.855
L49.259 -44.8033
L48.9752 -44.7506
L48.6882 -44.6968
L48.398 -44.6421
L48.1046 -44.5864
L47.8079 -44.5296
L47.5079 -44.4719
L47.2045 -44.4132
L46.8978 -44.3536
L46.5876 -44.2929
L46.274 -44.2314
L45.9569 -44.1689
L45.6364 -44.1056
L45.3124 -44.0414
L44.9849 -43.9765
L44.6541 -43.9108
L44.3198 -43.8444
L43.9822 -43.7775
L43.6412 -43.71
L43.2969 -43.6421
L42.9495 -43.5738
L42.5989 -43.5053
L42.2453 -43.4368
L41.8888 -43.3683
L41.5295 -43.3001
L41.1675 -43.2323
L40.8031 -43.1652
L40.4365 -43.099
L40.0677 -43.034
L39.6971 -42.9704
L39.3249 -42.9087
L38.9514 -42.8491
L38.5769 -42.7921
L38.2017 -42.7382
L37.8262 -42.6878
L37.4507 -42.6415
L37.0758 -42.5999
L36.7018 -42.5637
L36.3291 -42.5335
L35.9584 -42.5101
L35.5901 -42.4942
L35.2248 -42.4868
L34.863 -42.4887
L34.5053 -42.5007
L34.1522 -42.5238
L33.8043 -42.5588
L33.4621 -42.6067
L33.1261 -42.668
L32.7968 -42.7436
L32.4746 -42.8339
L32.1597 -42.9394
L31.8525 -43.0603
L31.5531 -43.1967
L31.2616 -43.3486
L30.9782 -43.5155
L30.7028 -43.6971
L30.4353 -43.8928
L30.1756 -44.1018
L29.9235 -44.3234
L29.679 -44.5566
L29.4417 -44.8005
L29.2115 -45.0541
L28.9882 -45.3165
L28.7715 -45.5867
L28.5613 -45.8638
L28.3573 -46.147
L28.1594 -46.4353
L27.9674 -46.728
L27.781 -47.0244
L27.6002 -47.3238
L27.4248 -47.6255
L27.2546 -47.929
L27.0895 -48.2337
L26.9293 -48.5392
L26.774 -48.845
L26.6233 -49.1507
L26.4773 -49.456
L26.3357 -49.7605
L26.1985 -50.064
L26.0655 -50.3661
L25.9367 -50.6667
L25.812 -50.9656
L25.6913 -51.2625
L25.5744 -51.5574
L25.4613 -51.85
L25.352 -52.1403
L25.2462 -52.4281
L25.144 -52.7134
L25.0453 -52.9961
L24.9499 -53.2762
L24.8579 -53.5536
L24.769 -53.8282
L24.6834 -54.1
L24.6008 -54.3691
L24.5213 -54.6354
L24.4447 -54.8989
L24.371 -55.1597
L24.3002 -55.4177
L24.2321 -55.6729
L24.1667 -55.9254
L24.104 -56.1752
L24.0439 -56.4223
L23.9864 -56.6668
L23.9313 -56.9087
L23.8788 -57.1481
L23.8286 -57.3849
L23.7808 -57.6193
L23.7354 -57.8513
L23.6922 -58.0809
L23.6513 -58.3082
L23.6126 -58.5332
L23.5761 -58.756
L23.5418 -58.9766
L23.5096 -59.1951
L23.4795 -59.4116
L23.4515 -59.626
L23.4255 -59.8385
L23.4016 -60.0492
L23.3797 -60.2579
L23.3598 -60.4649
L23.3419 -60.6702
L23.326 -60.8737
L23.312 -61.0757
L23.3001 -61.2761
L23.7316 -61.4749
L24.1824 -61.7242
L24.6368 -61.9344
L25.0947 -62.1367
L25.5559 -62.331
L26.0203 -62.5174
L26.4877 -62.6956
L26.958 -62.8657
L27.4311 -63.0276
L27.9068 -63.1813
L28.3849 -63.3267
L28.8654 -63.4638
L29.348 -63.5925
L29.8327 -63.7128
L30.3192 -63.8247
L30.8075 -63.9281
L31.2974 -64.023
L31.7887 -64.1093
L32.2813 -64.1871
L32.775 -64.2563
L33.2696 -64.3169
L33.7652 -64.3689
L34.2614 -64.4122
L34.7581 -64.4469
L35.2552 -64.4729
L35.7526 -64.4903
L36.25 -64.4989
L36.7473 -64.4989
L37.2444 -64.4902
L37.7411 -64.4728
L38.2373 -64.4468
L38.7329 -64.412
L39.2275 -64.3687
L39.7212 -64.3167
L40.2138 -64.256
L40.7051 -64.1868
L41.1949 -64.1089
L41.6832 -64.0225
L42.1698 -63.9276
L42.6544 -63.8242
L43.137 -63.7122
L43.6175 -63.5919
L44.0956 -63.4631
L44.5713 -63.326
L45.0444 -63.1806
L45.5147 -63.0268
L45.9821 -62.8649
L46.4465 -62.6947
L46.9076 -62.5164
L47.3655 -62.3301
L47.8199 -62.1357
L48.2707 -61.9334
L48.7178 -61.7231
L49.161 -61.5051
L49.6001 -61.2792
L50.0352 -61.0457
L50.4659 -60.8045
L50.8923 -60.5558
L51.3141 -60.2996
L51.7313 -60.036
L52.1436 -59.7651
L52.5511 -59.4869
L52.9535 -59.2016
L53.3507 -58.9092
L53.7427 -58.6098
L54.1292 -58.3035
L54.5102 -57.9905
L54.8856 -57.6708
L55.2552 -57.3444
L55.619 -57.0116
L55.9768 -56.6723
L56.3285 -56.3268
L56.674 -55.975
L57.0133 -55.6172
L57.3461 -55.2534
L57.6724 -54.8837
L57.9921 -54.5083
L58.3051 -54.1273
L58.6113 -53.7407
L58.9107 -53.3487
L59.203 -52.9514
L59.4883 -52.549
L59.7664 -52.1415
L60.0373 -51.7292
L60.3009 -51.312
L60.5571 -50.8901
L60.8058 -50.4638
L61.0469 -50.033
L61.2804 -49.5979
L61.5062 -49.1587
L61.7242 -48.7155
L61.9344 -48.2684
L62.1367 -47.8176
L62.331 -47.3632
z
" id="C0_1_2dbe100e4f"/>
     <path d="
M48.5798 -10.5906
L48.429 -10.7195
L48.2787 -10.8493
L48.1289 -10.9801
L47.9794 -11.1118
L47.8303 -11.2444
L47.6816 -11.378
L47.5332 -11.5126
L47.385 -11.6482
L47.2371 -11.7848
L47.0894 -11.9224
L46.9418 -12.061
L46.7944 -12.2007
L46.647 -12.3415
L46.4997 -12.4834
L46.3524 -12.6264
L46.2051 -12.7706
L46.0577 -12.916
L45.9102 -13.0625
L45.7626 -13.2103
L45.6148 -13.3594
L45.4668 -13.5098
L45.3186 -13.6615
L45.1701 -13.8145
L45.0212 -13.969
L44.8721 -14.1249
L44.7225 -14.2822
L44.5725 -14.4411
L44.422 -14.6015
L44.271 -14.7635
L44.1195 -14.9271
L43.9674 -15.0924
L43.8147 -15.2594
L43.6614 -15.4281
L43.5073 -15.5987
L43.3525 -15.771
L43.197 -15.9453
L43.0406 -16.1215
L42.8834 -16.2997
L42.7253 -16.4799
L42.5662 -16.6621
L42.4062 -16.8465
L42.2452 -17.0331
L42.0832 -17.2219
L41.9201 -17.413
L41.7558 -17.6064
L41.5904 -17.8021
L41.4238 -18.0003
L41.2559 -18.201
L41.0868 -18.4042
L40.9164 -18.6099
L40.7446 -18.8183
L40.5714 -19.0294
L40.3967 -19.2432
L40.2206 -19.4597
L40.043 -19.679
L39.8638 -19.9012
L39.6831 -20.1262
L39.5007 -20.3542
L39.3167 -20.5851
L39.131 -20.819
L38.9436 -21.056
L38.7544 -21.2959
L38.5635 -21.5389
L38.3707 -21.7849
L38.176 -22.034
L37.9795 -22.2862
L37.7811 -22.5414
L37.5807 -22.7996
L37.3783 -23.0608
L37.174 -23.3249
L36.9676 -23.592
L36.7592 -23.8619
L36.5488 -24.1345
L36.3362 -24.4098
L36.1215 -24.6877
L35.9047 -24.968
L35.6857 -25.2505
L35.4644 -25.5351
L35.241 -25.8216
L35.0153 -26.1098
L34.7874 -26.3994
L34.5571 -26.6901
L34.3245 -26.9816
L34.0894 -27.2735
L33.8519 -27.5655
L33.6119 -27.8571
L33.3694 -28.1478
L33.1241 -28.437
L32.8762 -28.7243
L32.6254 -29.0089
L32.3717 -29.2901
L32.1149 -29.5672
L31.8549 -29.8394
L31.5916 -30.1058
L31.3248 -30.3655
L31.0543 -30.6175
L30.78 -30.8608
L30.5016 -31.0944
L30.219 -31.3172
L29.932 -31.5283
L29.6405 -31.7266
L29.3443 -31.9113
L29.0434 -32.0814
L28.7377 -32.2364
L28.4271 -32.3755
L28.1119 -32.4985
L27.792 -32.6051
L27.4678 -32.6952
L27.1394 -32.769
L26.8073 -32.8267
L26.4717 -32.8689
L26.1332 -32.8961
L25.7921 -32.909
L25.4489 -32.9083
L25.1042 -32.8949
L24.7584 -32.8696
L24.412 -32.8333
L24.0655 -32.7868
L23.7193 -32.7309
L23.3739 -32.6665
L23.0296 -32.5942
L22.6869 -32.5147
L22.3461 -32.4289
L22.0075 -32.3371
L21.6715 -32.2402
L21.3382 -32.1384
L21.0079 -32.0325
L20.6809 -31.9227
L20.3574 -31.8095
L20.0374 -31.6933
L19.7212 -31.5745
L19.4089 -31.4533
L19.1006 -31.3299
L18.7963 -31.2048
L18.4962 -31.0781
L18.2004 -30.95
L17.9088 -30.8208
L17.6216 -30.6905
L17.3386 -30.5594
L17.0601 -30.4276
L16.7858 -30.2952
L16.5159 -30.1623
L16.2504 -30.0291
L15.9891 -29.8956
L15.7322 -29.7619
L15.4795 -29.6281
L15.2309 -29.4943
L14.9866 -29.3605
L14.7464 -29.2267
L14.5103 -29.0931
L14.2781 -28.9595
L14.05 -28.8262
L13.8257 -28.693
L13.6053 -28.5601
L13.3887 -28.4274
L13.1758 -28.2949
L12.9665 -28.1627
L12.7609 -28.0307
L12.5588 -27.899
L12.3601 -27.7676
L12.1649 -27.6364
L11.9729 -27.5054
L11.7843 -27.3747
L11.5989 -27.2442
L11.4166 -27.1139
L11.2374 -26.9839
L11.0613 -26.854
L10.8881 -26.7242
L10.7179 -26.5946
L10.5505 -26.4651
L10.3859 -26.3357
L10.224 -26.2064
L10.0649 -26.0771
L9.9084 -25.9478
L9.75452 -25.8185
L9.63832 -25.6892
L9.83137 -25.1689
L10.0324 -24.7105
L10.2413 -24.2555
L10.4581 -23.8041
L10.6826 -23.3564
L10.9149 -22.9126
L11.1548 -22.4727
L11.4023 -22.037
L11.6572 -21.6055
L11.9196 -21.1784
L12.1893 -20.7558
L12.4663 -20.3379
L12.7504 -19.9247
L13.0416 -19.5164
L13.3399 -19.1132
L13.645 -18.7151
L13.9569 -18.3222
L14.2755 -17.9348
L14.6008 -17.5528
L14.9326 -17.1765
L15.2708 -16.8059
L15.6153 -16.4412
L15.966 -16.0824
L16.3228 -15.7296
L16.6856 -15.3831
L17.0543 -15.0428
L17.4288 -14.7089
L17.8089 -14.3815
L18.1946 -14.0607
L18.5856 -13.7465
L18.982 -13.4392
L19.3836 -13.1387
L19.7903 -12.8452
L20.2018 -12.5587
L20.6182 -12.2794
L21.0393 -12.0073
L21.4649 -11.7425
L21.895 -11.4851
L22.3293 -11.2351
L22.7679 -10.9927
L23.2104 -10.758
L23.6569 -10.5309
L24.1071 -10.3115
L24.5609 -10.1
L25.0182 -9.89642
L25.4789 -9.70076
L25.9427 -9.51311
L26.4096 -9.33352
L26.8795 -9.16206
L27.3521 -8.99877
L27.8274 -8.84371
L28.3051 -8.69692
L28.7852 -8.55845
L29.2675 -8.42833
L29.7519 -8.30662
L30.2381 -8.19333
L30.7261 -8.08852
L31.2157 -7.99222
L31.7068 -7.90444
L32.1991 -7.82522
L32.6927 -7.75459
L33.1872 -7.69255
L33.6826 -7.63914
L34.1787 -7.59437
L34.6754 -7.55826
L35.1724 -7.5308
L35.6697 -7.51202
L36.1671 -7.50191
L36.6645 -7.50049
L37.1616 -7.50775
L37.6584 -7.52368
L38.1547 -7.54829
L38.6504 -7.58157
L39.1452 -7.62351
L39.6391 -7.67408
L40.1319 -7.73329
L40.6234 -7.80111
L41.1135 -7.87751
L41.602 -7.96248
L42.0889 -8.056
L42.5738 -8.15802
L43.0568 -8.26853
L43.5377 -8.38748
L44.0162 -8.51484
L44.4923 -8.65058
L44.9658 -8.79465
L45.4366 -8.947
L45.9045 -9.1076
L46.3693 -9.27638
L46.8311 -9.45331
L47.2895 -9.63832
L47.7445 -9.83137
L48.1959 -10.0324
z
" id="C0_2_090d19045b"/>
    </defs>
    <g clip-path="url(#p1bffca34e9)">
     <use style="fill:#ffffff;stroke:#000000;stroke-width:2.0;" x="0.0" xlink:href="#C0_0_a811fe30f3" y="72.0"/>
    </g>
    <g clip-path="url(#p1bffca34e9)">
     <use style="fill:#ff0000;stroke:#000000;stroke-width:2.0;" x="0.0" xlink:href="#C0_1_2dbe100e4f" y="72.0"/>
    </g>
    <g clip-path="url(#p1bffca34e9)">
     <use style="fill:#ff0000;stroke:#000000;stroke-width:2.0;" x="0.0" xlink:href="#C0_2_090d19045b" y="72.0"/>
    </g>
   </g>
  </g>
 </g>
 <defs>
  <clipPath id="p1bffca34e9">
   <rect height="72.0" width="72.0" x="0.0" y="0.0"/>
  </clipPath>
 </defs>
</svg>
