<?xml version="1.0" encoding="utf-8" standalone="no"?>
<!DOCTYPE svg PUBLIC "-//W3C//DTD SVG 1.1//EN"
  "http://www.w3.org/Graphics/SVG/1.1/DTD/svg11.dtd">
<!-- Created with matplotlib (http://matplotlib.org/) -->
<svg height="72pt" version="1.1" viewBox="0 0 72 72" width="72pt" xmlns="http://www.w3.org/2000/svg" xmlns:xlink="http://www.w3.org/1999/xlink">
 <defs>
  <style type="text/css">
*{stroke-linecap:butt;stroke-linejoin:round;}
  </style>
 </defs>
 <g id="figure_1">
  <g id="patch_1">
   <path d="
M0 72
L72 72
L72 0
L0 0
z
" style="fill:none;"/>
  </g>
  <g id="axes_1">
   <g id="PatchCollection_1">
    <defs>
     <path d="
M36 -7.5
C43.5583 -7.5 50.808 -10.5029 56.1525 -15.8475
C61.4971 -21.192 64.5 -28.4417 64.5 -36
C64.5 -43.5583 61.4971 -50.808 56.1525 -56.1525
C50.808 -61.4971 43.5583 -64.5 36 -64.5
C28.4417 -64.5 21.192 -61.4971 15.8475 -56.1525
C10.5029 -50.808 7.5 -43.5583 7.5 -36
C7.5 -28.4417 10.5029 -21.192 15.8475 -15.8475
C21.192 -10.5029 28.4417 -7.5 36 -7.5
z
" id="C0_0_a811fe30f3"/>
     <path d="
M23.9538 -10.2572
L23.811 -10.6464
L23.6838 -11.0404
L23.57 -11.4378
L23.4681 -11.8375
L23.3768 -12.2389
L23.2952 -12.6413
L23.2228 -13.0442
L23.1587 -13.4471
L23.1026 -13.8496
L23.054 -14.2514
L23.0125 -14.6521
L22.9777 -15.0514
L22.9493 -15.4491
L22.9269 -15.845
L22.9103 -16.2387
L22.8991 -16.6302
L22.8932 -17.0192
L22.8921 -17.4055
L22.8958 -17.789
L22.9039 -18.1696
L22.9162 -18.5471
L22.9326 -18.9215
L22.9527 -19.2926
L22.9765 -19.6604
L23.0037 -20.0248
L23.0341 -20.3857
L23.0676 -20.7432
L23.104 -21.0972
L23.1431 -21.4476
L23.1849 -21.7945
L23.2291 -22.1378
L23.2756 -22.4776
L23.3244 -22.8138
L23.3752 -23.1466
L23.428 -23.4758
L23.4827 -23.8016
L23.5392 -24.1239
L23.5973 -24.4429
L23.657 -24.7585
L23.7182 -25.0708
L23.7809 -25.3799
L23.8449 -25.6858
L23.9102 -25.9885
L23.9767 -26.2882
L24.0444 -26.5849
L24.1132 -26.8786
L24.1831 -27.1695
L24.254 -27.4576
L24.3258 -27.7429
L24.3986 -28.0256
L24.4723 -28.3056
L24.5469 -28.5831
L24.6223 -28.8582
L24.6985 -29.1309
L24.7756 -29.4013
L24.8533 -29.6694
L24.9319 -29.9354
L25.0111 -30.1993
L25.0911 -30.4611
L25.1718 -30.721
L25.2532 -30.979
L25.3352 -31.2353
L25.418 -31.4898
L25.5014 -31.7426
L25.5855 -31.9938
L25.6703 -32.2435
L25.7558 -32.4918
L25.8419 -32.7386
L25.9287 -32.9842
L26.0162 -33.2285
L26.1044 -33.4716
L26.1933 -33.7136
L26.283 -33.9545
L26.3733 -34.1945
L26.4644 -34.4335
L26.5562 -34.6717
L26.6488 -34.9091
L26.7422 -35.1458
L26.8364 -35.3818
L26.9314 -35.6172
L27.0272 -35.8521
L27.1239 -36.0865
L27.3199 -36.3205
L27.4193 -36.5542
L27.5196 -36.7875
L27.621 -37.0206
L27.7233 -37.2536
L27.8266 -37.4865
L27.9311 -37.7193
L28.0366 -37.9521
L28.1432 -38.185
L28.251 -38.418
L28.36 -38.6512
L28.4703 -38.8846
L28.5818 -39.1184
L28.6946 -39.3525
L28.8088 -39.587
L28.9243 -39.822
L29.0413 -40.0575
L29.1597 -40.2936
L29.2797 -40.5304
L29.4013 -40.7678
L29.5244 -41.006
L29.6492 -41.245
L29.7758 -41.4849
L29.9041 -41.7257
L30.0342 -41.9674
L30.1662 -42.2102
L30.3002 -42.454
L30.4361 -42.699
L30.5741 -42.9451
L30.7142 -43.1925
L30.8565 -43.4411
L31.0011 -43.691
L31.1479 -43.9423
L31.2971 -44.195
L31.4488 -44.4491
L31.603 -44.7047
L31.7598 -44.9619
L31.9192 -45.2205
L32.0814 -45.4808
L32.2464 -45.7427
L32.4143 -46.0063
L32.5852 -46.2715
L32.7592 -46.5384
L32.9362 -46.807
L33.1165 -47.0774
L33.3001 -47.3495
L33.4871 -47.6233
L33.6776 -47.8989
L33.8716 -48.1762
L34.0693 -48.4553
L34.2707 -48.736
L34.4759 -49.0184
L34.685 -49.3025
L34.8981 -49.5882
L35.1153 -49.8755
L35.3366 -50.1642
L35.5621 -50.4545
L35.7919 -50.746
L36.0261 -51.0389
L36.2647 -51.3329
L36.5079 -51.6281
L36.7556 -51.9241
L37.008 -52.221
L37.265 -52.5186
L37.5268 -52.8167
L37.7934 -53.1151
L38.0648 -53.4136
L38.3411 -53.7121
L38.6222 -54.0103
L38.9083 -54.308
L39.1992 -54.6048
L39.4951 -54.9006
L39.7959 -55.195
L40.1016 -55.4876
L40.4122 -55.7782
L40.7277 -56.0663
L41.048 -56.3514
L41.3732 -56.6332
L41.7031 -56.911
L42.0379 -57.1843
L42.3775 -57.4523
L42.722 -57.7142
L43.0714 -57.9688
L43.4259 -58.2149
L43.7858 -58.4505
L44.1517 -58.6732
L44.5244 -58.8791
L44.9053 -59.0627
L45.2964 -59.2153
L45.7003 -59.324
L46.1188 -59.3715
L46.551 -59.3402
L46.9926 -59.2218
L47.4378 -59.0237
L47.8817 -58.7627
L48.3206 -58.456
L48.7521 -58.1164
L49.1749 -57.7525
L49.5878 -57.3703
L49.9902 -56.9735
L50.3816 -56.5651
L50.7617 -56.1471
L51.1301 -55.721
L51.4869 -55.2881
L51.8318 -54.8495
L52.1649 -54.4063
L52.4861 -53.959
L52.7955 -53.5086
L53.0932 -53.0557
L53.3793 -52.6008
L53.6539 -52.1446
L53.9171 -51.6876
L54.1692 -51.2302
L54.4103 -50.7729
L54.6406 -50.3161
L54.8604 -49.8601
L55.0698 -49.4055
L55.2691 -48.9524
L55.4585 -48.5011
L55.6383 -48.052
L55.8088 -47.6052
L55.9701 -47.161
L56.1225 -46.7197
L56.2664 -46.2813
L56.4019 -45.846
L56.5292 -45.414
L56.6487 -44.9855
L56.7606 -44.5604
L56.865 -44.1389
L56.9624 -43.721
L57.0527 -43.3069
L57.1364 -42.8965
L57.2136 -42.49
L57.2846 -42.0872
L57.3494 -41.6883
L57.4084 -41.2933
L57.4617 -40.902
L57.5096 -40.5146
L57.5521 -40.131
L57.5894 -39.7511
L57.6218 -39.375
L57.6493 -39.0026
L57.6722 -38.6338
L57.6906 -38.2686
L57.7045 -37.9069
L57.7142 -37.5488
L57.7198 -37.1941
L57.7214 -36.8427
L57.719 -36.4946
L57.7129 -36.1498
L57.7031 -35.8081
L57.6897 -35.4695
L57.6728 -35.1339
L57.6524 -34.8013
L57.6288 -34.4715
L57.6018 -34.1445
L57.5717 -33.8202
L57.5384 -33.4986
L57.5021 -33.1796
L57.4628 -32.863
L57.4205 -32.5489
L57.3753 -32.237
L57.3272 -31.9275
L57.2763 -31.6201
L57.2226 -31.3149
L57.1661 -31.0117
L57.1069 -30.7104
L57.0449 -30.4111
L56.9803 -30.1136
L56.913 -29.8178
L56.8431 -29.5237
L56.7704 -29.2312
L56.6952 -28.9402
L56.6173 -28.6507
L56.5367 -28.3626
L56.4535 -28.0759
L56.3676 -27.7904
L56.279 -27.5061
L56.1878 -27.223
L56.0938 -26.9409
L55.9971 -26.6599
L55.8977 -26.3798
L55.7955 -26.1007
L55.6905 -25.8223
L55.5826 -25.5448
L55.4719 -25.268
L55.3583 -24.9918
L55.2417 -24.7163
L55.1221 -24.4413
L54.9994 -24.1669
L54.8736 -23.8929
L54.7447 -23.6193
L54.6125 -23.3462
L54.477 -23.0733
L54.3382 -22.8007
L54.1959 -22.5284
L54.0501 -22.2563
L53.9008 -21.9844
L53.7477 -21.7126
L53.591 -21.4408
L53.4303 -21.1692
L53.2658 -20.8976
L53.0971 -20.626
L52.9244 -20.3544
L52.7474 -20.0828
L52.566 -19.8111
L52.3802 -19.5394
L52.1898 -19.2676
L51.9947 -18.9957
L51.7947 -18.7237
L51.5897 -18.4517
L51.3796 -18.1796
L51.1643 -17.9074
L50.9435 -17.6352
L50.7172 -17.3629
L50.4852 -17.0907
L50.2473 -16.8185
L50.0033 -16.5463
L49.7532 -16.2743
L49.4966 -16.0025
L49.2335 -15.7309
L48.9637 -15.4596
L48.6869 -15.1887
L48.4031 -14.9183
L48.1119 -14.6484
L47.8132 -14.3793
L47.5068 -14.111
L47.1926 -13.8436
L46.8702 -13.5773
L46.5395 -13.3123
L46.2004 -13.0487
L45.8525 -12.7867
L45.4958 -12.5265
L45.1299 -12.2684
L44.7548 -12.0125
L44.3702 -11.7592
L43.976 -11.5087
L43.5719 -11.2612
L43.1579 -11.0172
L42.7337 -10.7769
L42.2992 -10.5406
L41.8543 -10.3088
L41.3988 -10.0819
L40.9327 -9.86016
L40.4559 -9.64413
L39.9683 -9.43423
L39.47 -9.23093
L38.9608 -9.03473
L38.4409 -8.84614
L37.9103 -8.66569
L37.3691 -8.49395
L36.8174 -8.33147
L36.2554 -8.17885
L35.6835 -8.03669
L35.1018 -7.90562
L34.5108 -7.78626
L33.9108 -7.67928
L33.4144 -7.58534
L32.9195 -7.61752
L32.4255 -7.66697
L31.9326 -7.72505
L31.4409 -7.79174
L30.9506 -7.86702
L30.4618 -7.95087
L29.9748 -8.04327
L29.4895 -8.14418
L29.0063 -8.25358
L28.5252 -8.37143
L28.0463 -8.49769
L27.5699 -8.63234
L27.096 -8.77532
L26.6249 -8.92659
L26.1566 -9.08611
L25.6913 -9.25382
L25.2292 -9.42969
L24.7703 -9.61365
z
" id="C0_1_865c753e76"/>
     <path d="
M38.6744 -64.2509
L39.2552 -64.0573
L39.8322 -63.8516
L40.4047 -63.6345
L40.9719 -63.4069
L41.5331 -63.1699
L42.0874 -62.9253
L42.6338 -62.6756
L43.1712 -62.4246
L43.6979 -62.1778
L44.2119 -61.9438
L44.7104 -61.7357
L45.1903 -61.5709
L45.6492 -61.4672
L46.0873 -61.433
L46.5083 -61.4611
L46.9175 -61.535
L47.3194 -61.6378
L47.3466 -61.757
L46.8886 -62.1439
L46.4273 -62.3379
L45.9628 -62.524
L45.4953 -62.7019
L45.0249 -62.8717
L44.5517 -63.0333
L44.0759 -63.1867
L43.5977 -63.3318
L43.1171 -63.4686
L42.6344 -63.597
L42.1497 -63.717
L41.6631 -63.8286
L41.1747 -63.9317
L40.6848 -64.0263
L40.1935 -64.1123
L39.7009 -64.1898
L39.2071 -64.2587
z
" id="C0_2_db190de090"/>
    </defs>
    <g clip-path="url(#p1bffca34e9)">
     <use style="fill:#ffffff;stroke:#000000;stroke-width:2.0;" x="0.0" xlink:href="#C0_0_a811fe30f3" y="72.0"/>
    </g>
    <g clip-path="url(#p1bffca34e9)">
     <use style="fill:#ff0000;stroke:#000000;stroke-width:2.0;" x="0.0" xlink:href="#C0_1_865c753e76" y="72.0"/>
    </g>
    <g clip-path="url(#p1bffca34e9)">
     <use style="fill:#ff0000;stroke:#000000;stroke-width:2.0;" x="0.0" xlink:href="#C0_2_db190de090" y="72.0"/>
    </g>
   </g>
  </g>
 </g>
 <defs>
  <clipPath id="p1bffca34e9">
   <rect height="72.0" width="72.0" x="0.0" y="0.0"/>
  </clipPath>
 </defs>
</svg>
