<?xml version="1.0" encoding="utf-8" standalone="no"?>
<!DOCTYPE svg PUBLIC "-//W3C//DTD SVG 1.1//EN"
  "http://www.w3.org/Graphics/SVG/1.1/DTD/svg11.dtd">
<!-- Created with matplotlib (http://matplotlib.org/) -->
<svg height="72pt" version="1.1" viewBox="0 0 72 72" width="72pt" xmlns="http://www.w3.org/2000/svg" xmlns:xlink="http://www.w3.org/1999/xlink">
 <defs>
  <style type="text/css">
*{stroke-linecap:butt;stroke-linejoin:round;}
  </style>
 </defs>
 <g id="figure_1">
  <g id="patch_1">
   <path d="
M0 72
L72 72
L72 0
L0 0
z
" style="fill:none;"/>
  </g>
  <g id="axes_1">
   <g id="PatchCollection_1">
    <defs>
     <path d="
M36 -7.5
C43.5583 -7.5 50.808 -10.5029 56.1525 -15.8475
C61.4971 -21.192 64.5 -28.4417 64.5 -36
C64.5 -43.5583 61.4971 -50.808 56.1525 -56.1525
C50.808 -61.4971 43.5583 -64.5 36 -64.5
C28.4417 -64.5 21.192 -61.4971 15.8475 -56.1525
C10.5029 -50.808 7.5 -43.5583 7.5 -36
C7.5 -28.4417 10.5029 -21.192 15.8475 -15.8475
C21.192 -10.5029 28.4417 -7.5 36 -7.5
z
" id="C0_0_a811fe30f3"/>
     <path d="
M41.7725 -8.20791
L41.4836 -8.34811
L41.2081 -8.49772
L40.9463 -8.65644
L40.6984 -8.82397
L40.4647 -9.00001
L40.2451 -9.18422
L40.0398 -9.3763
L39.8487 -9.5759
L39.6718 -9.78269
L39.5088 -9.99634
L39.3596 -10.2165
L39.224 -10.4429
L39.1015 -10.6751
L38.9918 -10.9129
L38.8946 -11.1558
L38.8093 -11.4037
L38.7355 -11.6562
L38.6727 -11.913
L38.6204 -12.1738
L38.578 -12.4384
L38.545 -12.7064
L38.521 -12.9775
L38.5052 -13.2517
L38.4974 -13.5285
L38.4968 -13.8078
L38.5031 -14.0893
L38.5158 -14.3729
L38.5344 -14.6582
L38.5584 -14.9452
L38.5875 -15.2336
L38.6211 -15.5232
L38.6591 -15.8139
L38.701 -16.1055
L38.7464 -16.3979
L38.795 -16.6909
L38.8467 -16.9843
L38.9009 -17.278
L38.9576 -17.572
L39.0165 -17.866
L39.0773 -18.1601
L39.1398 -18.454
L39.2039 -18.7477
L39.2693 -19.041
L39.336 -19.334
L39.4037 -19.6266
L39.4722 -19.9186
L39.5416 -20.21
L39.6116 -20.5007
L39.6821 -20.7907
L39.7531 -21.08
L39.8244 -21.3685
L39.896 -21.6562
L39.9678 -21.9429
L40.0397 -22.2288
L40.1117 -22.5138
L40.1836 -22.7978
L40.2555 -23.0809
L40.3273 -23.363
L40.399 -23.6441
L40.4705 -23.9243
L40.5418 -24.2034
L40.6128 -24.4816
L40.6836 -24.7588
L40.754 -25.035
L40.8242 -25.3103
L40.894 -25.5846
L40.9635 -25.8579
L41.0326 -26.1304
L41.1013 -26.4019
L41.1697 -26.6725
L41.2376 -26.9423
L41.3052 -27.2112
L41.3724 -27.4793
L41.4392 -27.7465
L41.5055 -28.0131
L41.5715 -28.2788
L41.637 -28.5439
L41.7022 -28.8082
L41.7669 -29.0719
L41.8313 -29.335
L41.8952 -29.5975
L41.9588 -29.8594
L42.0219 -30.1209
L42.0847 -30.3818
L42.1471 -30.6422
L42.2091 -30.9023
L42.2708 -31.162
L42.3321 -31.4213
L42.3931 -31.6803
L42.4537 -31.9391
L42.514 -32.1976
L42.5739 -32.4559
L42.6336 -32.7141
L42.6929 -32.9721
L42.7519 -33.2301
L42.8106 -33.488
L42.9272 -33.746
L42.9851 -34.004
L43.0427 -34.262
L43.1001 -34.5202
L43.1572 -34.7785
L43.2141 -35.0371
L43.2708 -35.2958
L43.3272 -35.5549
L43.3835 -35.8142
L43.4395 -36.074
L43.4954 -36.3341
L43.5511 -36.5946
L43.6066 -36.8556
L43.6619 -37.1171
L43.7171 -37.3791
L43.7722 -37.6417
L43.8272 -37.9049
L43.882 -38.1688
L43.9367 -38.4334
L43.9913 -38.6986
L44.0459 -38.9646
L44.1003 -39.2314
L44.1547 -39.499
L44.2091 -39.7674
L44.2634 -40.0367
L44.3177 -40.3069
L44.3719 -40.578
L44.4262 -40.85
L44.4805 -41.123
L44.5348 -41.397
L44.5892 -41.672
L44.6436 -41.948
L44.6981 -42.225
L44.7527 -42.5031
L44.8074 -42.7822
L44.8623 -43.0624
L44.9173 -43.3437
L44.9725 -43.626
L45.0279 -43.9094
L45.0835 -44.1938
L45.1394 -44.4792
L45.1957 -44.7657
L45.2522 -45.0532
L45.3091 -45.3417
L45.3664 -45.6311
L45.4242 -45.9214
L45.4825 -46.2127
L45.5413 -46.5047
L45.6007 -46.7975
L45.6607 -47.091
L45.7215 -47.3851
L45.7831 -47.6799
L45.8456 -47.9751
L45.909 -48.2707
L45.9734 -48.5665
L46.039 -48.8626
L46.1058 -49.1587
L46.174 -49.4547
L46.2436 -49.7505
L46.3148 -50.046
L46.3878 -50.3408
L46.4627 -50.635
L46.5396 -50.9283
L46.6188 -51.2204
L46.7004 -51.5111
L46.7846 -51.8003
L46.8717 -52.0877
L46.9619 -52.3729
L47.0554 -52.6558
L47.1525 -52.936
L47.2535 -53.2132
L47.3586 -53.487
L47.4682 -53.7572
L47.5826 -54.0234
L47.7021 -54.2851
L47.827 -54.542
L47.9578 -54.7936
L48.0947 -55.0396
L48.2381 -55.2795
L48.3884 -55.5129
L48.546 -55.7393
L48.7111 -55.9581
L48.8841 -56.1691
L49.0653 -56.3716
L49.2549 -56.5653
L49.4534 -56.7495
L49.6608 -56.924
L49.8775 -57.0882
L50.1034 -57.2417
L50.3387 -57.384
L50.5835 -57.5148
L50.8377 -57.6336
L51.1014 -57.7402
L51.3742 -57.8342
L51.6562 -57.9153
L51.9471 -57.9833
L52.2465 -58.0378
L52.5542 -58.0788
L52.8697 -58.106
L53.1927 -58.1194
L53.5228 -58.1188
L53.8593 -58.1042
L54.3092 -58.0755
L54.6876 -57.8408
L55.0603 -57.518
L55.4272 -57.1885
L55.7882 -56.8527
L56.1431 -56.5104
L56.4919 -56.162
L56.8345 -55.8073
L57.1707 -55.4467
L57.5005 -55.0801
L57.8237 -54.7077
L58.1403 -54.3297
L58.4501 -53.946
L58.7531 -53.5569
L59.0491 -53.1624
L59.3382 -52.7627
L59.6201 -52.3578
L59.8949 -51.948
L60.1623 -51.5334
L60.4224 -51.114
L60.6751 -50.69
L60.9202 -50.2615
L61.1577 -49.8287
L61.3876 -49.3917
L61.6098 -48.9506
L61.8241 -48.5056
L62.0306 -48.0567
L62.2292 -47.6042
L62.4197 -47.1481
L62.6023 -46.6886
L62.7767 -46.2259
L62.9429 -45.7601
L63.101 -45.2913
L63.2508 -44.8197
L63.3923 -44.3453
L63.5254 -43.8685
L63.6502 -43.3892
L63.7665 -42.9077
L63.8744 -42.4241
L63.9738 -41.9385
L64.0647 -41.4511
L64.147 -40.9621
L64.2208 -40.4715
L64.2859 -39.9796
L64.3425 -39.4865
L64.3904 -38.9923
L64.4296 -38.4972
L64.4602 -38.0014
L64.4822 -37.5049
L64.4954 -37.008
L64.5 -36.5107
L64.4959 -36.0133
L64.4831 -35.5159
L64.4616 -35.0187
L64.4315 -34.5217
L64.3927 -34.0252
L64.3453 -33.5293
L64.2892 -33.0342
L64.2245 -32.54
L64.1512 -32.0468
L64.0693 -31.5548
L63.9789 -31.0642
L63.88 -30.575
L63.7725 -30.0876
L63.6566 -29.6019
L63.5323 -29.1182
L63.3996 -28.6365
L63.2586 -28.1571
L63.1092 -27.6802
L62.9516 -27.2057
L62.7858 -26.7339
L62.6118 -26.265
L62.4297 -25.799
L62.2396 -25.3361
L62.0415 -24.8764
L61.8354 -24.4202
L61.6215 -23.9675
L61.3997 -23.5184
L61.1703 -23.0731
L60.9331 -22.6318
L60.6884 -22.1946
L60.4361 -21.7615
L60.1764 -21.3328
L59.9094 -20.9086
L59.635 -20.489
L59.3535 -20.0741
L59.0648 -19.664
L58.7691 -19.2589
L58.4665 -18.8589
L58.157 -18.4642
L57.8408 -18.0747
L57.518 -17.6908
L57.1885 -17.3124
L56.8527 -16.9397
L56.5104 -16.5728
L56.162 -16.2118
L55.8073 -15.8569
L55.4467 -15.5081
L55.0801 -15.1655
L54.7077 -14.8293
L54.3297 -14.4995
L53.946 -14.1763
L53.5569 -13.8597
L53.1624 -13.5499
L52.7627 -13.2469
L52.3578 -12.9509
L51.948 -12.6618
L51.5334 -12.3799
L51.114 -12.1051
L50.69 -11.8377
L50.2615 -11.5776
L49.8287 -11.3249
L49.3917 -11.0798
L48.9506 -10.8423
L48.5056 -10.6124
L48.0567 -10.3902
L47.6042 -10.1759
L47.1481 -9.96938
L46.6886 -9.77082
L46.2259 -9.58026
L45.7601 -9.39774
L45.2913 -9.22332
L44.8197 -9.05706
L44.3453 -8.89901
L43.8685 -8.74921
L43.3892 -8.60772
L42.9077 -8.47457
L42.4241 -8.3498
z
" id="C0_1_d2afeda328"/>
     <path d="
M17.8988 -14.089
L17.785 -14.4208
L17.6683 -14.7566
L17.5492 -15.0964
L17.4283 -15.4398
L17.306 -15.7866
L17.1829 -16.1364
L17.0593 -16.4891
L16.9358 -16.8443
L16.8126 -17.2019
L16.6902 -17.5615
L16.5689 -17.9229
L16.4491 -18.2859
L16.3309 -18.6503
L16.2147 -19.0158
L16.1007 -19.3822
L15.9891 -19.7493
L15.8801 -20.117
L15.7738 -20.485
L15.6705 -20.8531
L15.5702 -21.2213
L15.473 -21.5893
L15.379 -21.957
L15.2884 -22.3242
L15.2011 -22.6909
L15.1172 -23.0569
L15.0368 -23.422
L14.9598 -23.7863
L14.8864 -24.1495
L14.8164 -24.5117
L14.75 -24.8726
L14.6871 -25.2324
L14.6277 -25.5908
L14.5717 -25.9479
L14.5192 -26.3035
L14.4702 -26.6576
L14.4245 -27.0103
L14.3823 -27.3614
L14.3433 -27.711
L14.3077 -28.059
L14.2753 -28.4053
L14.2462 -28.7501
L14.2202 -29.0932
L14.1974 -29.4347
L14.1777 -29.7745
L14.1611 -30.1127
L14.1475 -30.4493
L14.1369 -30.7843
L14.1292 -31.1176
L14.1245 -31.4494
L14.1226 -31.7796
L14.1235 -32.1082
L14.1273 -32.4354
L14.1338 -32.761
L14.143 -33.0851
L14.1549 -33.4077
L14.1695 -33.729
L14.1867 -34.0488
L14.2066 -34.3673
L14.229 -34.6845
L14.2539 -35.0003
L14.2814 -35.3149
L14.3115 -35.6283
L14.344 -35.9405
L14.379 -36.2515
L14.4164 -36.5614
L14.4563 -36.8703
L14.4986 -37.1781
L14.5433 -37.4849
L14.5905 -37.7908
L14.64 -38.0957
L14.692 -38.3998
L14.7463 -38.703
L14.8031 -39.0054
L14.8622 -39.3071
L14.9237 -39.608
L14.9876 -39.9083
L15.0539 -40.2079
L15.1226 -40.5069
L15.1937 -40.8054
L15.2672 -41.1033
L15.3432 -41.4008
L15.4216 -41.6978
L15.5025 -41.9944
L15.5858 -42.2906
L15.6717 -42.5864
L15.76 -42.882
L15.8509 -43.1773
L15.9443 -43.4723
L16.0403 -43.7672
L16.1389 -44.0619
L16.2401 -44.3564
L16.344 -44.6508
L16.4506 -44.9452
L16.5599 -45.2394
L16.6719 -45.5337
L16.7867 -45.8279
L16.9043 -46.1222
L17.0248 -46.4165
L17.1481 -46.7108
L17.2744 -47.0052
L17.4036 -47.2998
L17.5359 -47.5944
L17.6711 -47.8892
L17.8095 -48.184
L17.9509 -48.4791
L18.0955 -48.7743
L18.2433 -49.0696
L18.3944 -49.3651
L18.5487 -49.6607
L18.7063 -49.9566
L18.8673 -50.2525
L19.0317 -50.5486
L19.1996 -50.8448
L19.3709 -51.1412
L19.5456 -51.4376
L19.724 -51.7342
L19.9059 -52.0307
L20.0914 -52.3273
L20.2805 -52.624
L20.4732 -52.9205
L20.6696 -53.217
L20.8697 -53.5134
L21.0734 -53.8096
L21.2808 -54.1056
L21.4919 -54.4014
L21.7066 -54.6968
L21.925 -54.9918
L22.1469 -55.2864
L22.3724 -55.5805
L22.6015 -55.874
L22.834 -56.1669
L23.0699 -56.459
L23.3091 -56.7503
L23.5515 -57.0408
L23.7969 -57.3302
L24.0454 -57.6186
L24.2967 -57.9058
L24.5506 -58.1918
L24.8069 -58.4764
L25.0656 -58.7597
L25.3263 -59.0414
L25.5887 -59.3215
L25.8527 -59.5999
L26.1178 -59.8766
L26.3839 -60.1514
L26.6505 -60.4243
L26.9173 -60.6952
L27.1838 -60.964
L27.4496 -61.2307
L27.7143 -61.4953
L27.9774 -61.7576
L28.2383 -62.0178
L28.4966 -62.2756
L28.7516 -62.5311
L29.0029 -62.7844
L29.2497 -63.0353
L29.4916 -63.284
L29.7278 -63.5303
L29.4566 -63.7745
L28.9735 -63.7387
L28.4925 -63.6202
L28.0138 -63.4934
L27.5376 -63.3582
L27.0639 -63.2146
L26.5929 -63.0628
L26.1249 -62.9027
L25.6598 -62.7345
L25.1979 -62.558
L24.7392 -62.3735
L24.284 -62.181
L23.8324 -61.9805
L23.3844 -61.7721
L22.9404 -61.5558
L22.5002 -61.3317
L22.0642 -61.0999
L21.6325 -60.8605
L21.2051 -60.6135
L20.7822 -60.359
L20.364 -60.0971
L19.9505 -59.8278
L19.542 -59.5513
L19.1384 -59.2676
L18.74 -58.9769
L18.3468 -58.6791
L17.959 -58.3744
L17.5767 -58.0629
L17.2 -57.7447
L16.829 -57.4198
L16.4639 -57.0885
L16.1047 -56.7507
L15.7516 -56.4066
L15.4047 -56.0562
L15.064 -55.6998
L14.7297 -55.3374
L14.4019 -54.969
L14.0806 -54.5949
L13.7661 -54.2152
L13.4583 -53.8298
L13.1574 -53.4391
L12.8634 -53.043
L12.5765 -52.6418
L12.2967 -52.2354
L12.0242 -51.8242
L11.7589 -51.4081
L11.501 -50.9873
L11.2506 -50.5619
L11.0077 -50.1322
L10.7725 -49.6981
L10.5449 -49.2598
L10.3251 -48.8175
L10.1131 -48.3713
L9.90898 -47.9213
L9.71282 -47.4677
L9.52466 -47.0106
L9.34457 -46.5502
L9.17259 -46.0865
L9.00879 -45.6198
L8.85321 -45.1501
L8.7059 -44.6777
L8.5669 -44.2026
L8.43626 -43.725
L8.31401 -43.245
L8.2002 -42.7629
L8.09486 -42.2786
L7.99802 -41.7925
L7.9097 -41.3046
L7.82995 -40.8151
L7.75877 -40.3241
L7.6962 -39.8318
L7.64225 -39.3384
L7.59693 -38.8439
L7.56027 -38.3486
L7.53227 -37.8525
L7.51294 -37.3559
L7.50229 -36.8588
L7.50032 -36.3615
L7.50704 -35.8641
L7.52243 -35.3668
L7.54649 -34.8696
L7.57923 -34.3728
L7.62062 -33.8764
L7.67065 -33.3807
L7.72932 -32.8858
L7.79659 -32.3919
L7.87246 -31.8991
L7.95689 -31.4075
L8.04987 -30.9173
L8.15136 -30.4286
L8.26133 -29.9417
L8.37976 -29.4566
L8.50659 -28.9735
L8.64181 -28.4925
L8.78535 -28.0138
L8.93719 -27.5376
L9.09726 -27.0639
L9.26554 -26.5929
L9.44195 -26.1249
L9.62646 -25.6598
L9.819 -25.1979
L10.0195 -24.7392
L10.2279 -24.284
L10.4442 -23.8324
L10.6683 -23.3844
L10.9001 -22.9404
L11.1395 -22.5002
L11.3865 -22.0642
L11.641 -21.6325
L11.9029 -21.2051
L12.1722 -20.7822
L12.4487 -20.364
L12.7324 -19.9505
L13.0231 -19.542
L13.3209 -19.1384
L13.6256 -18.74
L13.9371 -18.3468
L14.2553 -17.959
L14.5802 -17.5767
L14.9115 -17.2
L15.2493 -16.829
L15.5934 -16.4639
L15.9438 -16.1047
L16.3002 -15.7516
L16.6626 -15.4047
L17.031 -15.064
L17.4051 -14.7297
z
" id="C0_2_ab99795127"/>
    </defs>
    <g clip-path="url(#p1bffca34e9)">
     <use style="fill:#ff0000;stroke:#000000;stroke-width:2.0;" x="0.0" xlink:href="#C0_0_a811fe30f3" y="72.0"/>
    </g>
    <g clip-path="url(#p1bffca34e9)">
     <use style="fill:#ffffff;stroke:#000000;stroke-width:2.0;" x="0.0" xlink:href="#C0_1_d2afeda328" y="72.0"/>
    </g>
    <g clip-path="url(#p1bffca34e9)">
     <use style="fill:#ffffff;stroke:#000000;stroke-width:2.0;" x="0.0" xlink:href="#C0_2_ab99795127" y="72.0"/>
    </g>
   </g>
  </g>
 </g>
 <defs>
  <clipPath id="p1bffca34e9">
   <rect height="72.0" width="72.0" x="0.0" y="0.0"/>
  </clipPath>
 </defs>
</svg>
