<?xml version="1.0" encoding="utf-8" standalone="no"?>
<!DOCTYPE svg PUBLIC "-//W3C//DTD SVG 1.1//EN"
  "http://www.w3.org/Graphics/SVG/1.1/DTD/svg11.dtd">
<!-- Created with matplotlib (http://matplotlib.org/) -->
<svg height="72pt" version="1.1" viewBox="0 0 72 72" width="72pt" xmlns="http://www.w3.org/2000/svg" xmlns:xlink="http://www.w3.org/1999/xlink">
 <defs>
  <style type="text/css">
*{stroke-linecap:butt;stroke-linejoin:round;}
  </style>
 </defs>
 <g id="figure_1">
  <g id="patch_1">
   <path d="
M0 72
L72 72
L72 0
L0 0
z
" style="fill:none;"/>
  </g>
  <g id="axes_1">
   <g id="PatchCollection_1">
    <defs>
     <path d="
M36 -7.5
C43.5583 -7.5 50.808 -10.5029 56.1525 -15.8475
C61.4971 -21.192 64.5 -28.4417 64.5 -36
C64.5 -43.5583 61.4971 -50.808 56.1525 -56.1525
C50.808 -61.4971 43.5583 -64.5 36 -64.5
C28.4417 -64.5 21.192 -61.4971 15.8475 -56.1525
C10.5029 -50.808 7.5 -43.5583 7.5 -36
C7.5 -28.4417 10.5029 -21.192 15.8475 -15.8475
C21.192 -10.5029 28.4417 -7.5 36 -7.5
z
" id="C0_0_a811fe30f3"/>
     <path d="
M7.6929 -37.9391
L7.9305 -37.8815
L8.16931 -37.8175
L8.40922 -37.7478
L8.65016 -37.673
L8.89203 -37.5934
L9.13476 -37.5096
L9.37826 -37.422
L9.62246 -37.331
L9.86728 -37.2369
L10.1126 -37.1402
L10.3585 -37.041
L10.6047 -36.9398
L10.8513 -36.8367
L11.0982 -36.732
L11.3453 -36.6259
L11.5926 -36.5187
L11.84 -36.4105
L12.0874 -36.3016
L12.3348 -36.1919
L12.5822 -36.0818
L12.8296 -35.9713
L13.0768 -35.8606
L13.3239 -35.7497
L13.5708 -35.6388
L13.8175 -35.5279
L14.0639 -35.4171
L14.3101 -35.3066
L14.556 -35.1962
L14.8016 -35.0862
L15.0468 -34.9765
L15.2918 -34.8673
L15.5364 -34.7584
L15.7807 -34.6501
L16.0246 -34.5422
L16.2682 -34.4349
L16.5114 -34.3281
L16.7543 -34.2219
L16.9968 -34.1163
L17.239 -34.0112
L17.4808 -33.9068
L17.7224 -33.8029
L17.9636 -33.6997
L18.2045 -33.5971
L18.4451 -33.4951
L18.6855 -33.3937
L18.9256 -33.2929
L19.1655 -33.1927
L19.4052 -33.0932
L19.6447 -32.9942
L19.8841 -32.8958
L20.1233 -32.798
L20.3624 -32.7008
L20.6014 -32.6041
L20.8403 -32.508
L21.0792 -32.4124
L21.3181 -32.3173
L21.5571 -32.2228
L21.7961 -32.1287
L22.0352 -32.0352
L22.2744 -31.9421
L22.5138 -31.8495
L22.7533 -31.7573
L22.9931 -31.6656
L23.2331 -31.5743
L23.4735 -31.4834
L23.7142 -31.3929
L23.9552 -31.3028
L24.1966 -31.213
L24.6809 -31.1236
L24.9238 -31.0346
L25.1672 -30.9458
L25.4113 -30.8574
L25.6559 -30.7692
L25.9013 -30.6813
L26.1473 -30.5937
L26.3941 -30.5064
L26.6417 -30.4192
L26.8902 -30.3323
L27.1395 -30.2456
L27.3897 -30.1591
L27.6409 -30.0727
L27.893 -29.9866
L28.1462 -29.9005
L28.4005 -29.8146
L28.6558 -29.7289
L28.9123 -29.6432
L29.17 -29.5576
L29.429 -29.4721
L29.6892 -29.3866
L29.9507 -29.3012
L30.2135 -29.2159
L30.4777 -29.1305
L30.7433 -29.0452
L31.0103 -28.9599
L31.2788 -28.8745
L31.5488 -28.7891
L31.8204 -28.7036
L32.0935 -28.6181
L32.3682 -28.5325
L32.6445 -28.4468
L32.9224 -28.3609
L33.202 -28.275
L33.4832 -28.1889
L33.7662 -28.1026
L34.0508 -28.0162
L34.3371 -27.9295
L34.6252 -27.8427
L34.915 -27.7555
L35.2064 -27.6682
L35.4996 -27.5805
L35.7945 -27.4926
L36.0911 -27.4043
L36.3893 -27.3156
L36.6891 -27.2266
L36.9906 -27.1371
L37.2936 -27.0472
L37.5981 -26.9568
L37.9041 -26.8659
L38.2115 -26.7744
L38.5202 -26.6823
L38.8301 -26.5895
L39.1412 -26.4961
L39.4533 -26.4019
L39.7664 -26.3068
L40.0803 -26.2109
L40.3949 -26.114
L40.7101 -26.0161
L41.0256 -25.917
L41.3414 -25.8168
L41.6571 -25.7152
L41.9727 -25.6122
L42.2879 -25.5076
L42.6025 -25.4014
L42.9162 -25.2934
L43.2287 -25.1835
L43.5398 -25.0714
L43.8492 -24.9571
L44.1565 -24.8403
L44.4614 -24.7209
L44.7636 -24.5986
L45.0627 -24.4733
L45.3582 -24.3446
L45.6498 -24.2125
L45.9371 -24.0765
L46.2195 -23.9366
L46.4968 -23.7923
L46.7684 -23.6435
L47.0338 -23.4898
L47.2926 -23.331
L47.5444 -23.1668
L47.7885 -22.997
L48.0247 -22.8213
L48.2524 -22.6395
L48.4713 -22.4514
L48.6808 -22.2567
L48.8805 -22.0553
L49.0703 -21.8471
L49.2496 -21.632
L49.4181 -21.4099
L49.5757 -21.1808
L49.722 -20.9448
L49.8569 -20.7019
L49.9803 -20.4522
L50.0919 -20.1959
L50.1917 -19.9332
L50.2797 -19.6643
L50.3559 -19.3896
L50.4203 -19.1093
L50.4729 -18.8238
L50.5139 -18.5334
L50.5433 -18.2386
L50.5613 -17.9397
L50.568 -17.6371
L50.5636 -17.3313
L50.5484 -17.0226
L50.5223 -16.7116
L50.4858 -16.3986
L50.439 -16.084
L50.382 -15.7682
L50.3152 -15.4516
L50.2388 -15.1346
L50.1529 -14.8176
L50.0578 -14.5008
L49.9538 -14.1847
L49.841 -13.8696
L49.7196 -13.5557
L49.5899 -13.2433
L49.4521 -12.9327
L49.3064 -12.6242
L49.153 -12.318
L48.9921 -12.0143
L48.8239 -11.7133
L48.6485 -11.4152
L48.4662 -11.1202
L48.2771 -10.8284
L48.0814 -10.5401
L47.6554 -10.2554
L47.1997 -9.99227
L46.7406 -9.79282
L46.2783 -9.60135
L45.8128 -9.41792
L45.3443 -9.24258
L44.873 -9.0754
L44.399 -8.91642
L43.9224 -8.76569
L43.4434 -8.62326
L42.9621 -8.48916
L42.4787 -8.36345
L41.9934 -8.24615
L41.5062 -8.13731
L41.0173 -8.03696
L40.5269 -7.94512
L40.0352 -7.86183
L39.5422 -7.78711
L39.0481 -7.72098
L38.5531 -7.66347
L38.0573 -7.61459
L37.5609 -7.57435
L37.064 -7.54278
L36.5668 -7.51987
L36.0694 -7.50564
L35.572 -7.50008
L35.0747 -7.50321
L34.5778 -7.51502
L34.0812 -7.53551
L33.5852 -7.56467
L33.09 -7.60248
L32.5956 -7.64895
L32.1023 -7.70406
L31.6102 -7.76778
L31.1194 -7.84011
L30.6301 -7.92101
L30.1424 -8.01046
L29.6566 -8.10844
L29.1726 -8.21492
L28.6907 -8.32986
L28.2111 -8.45323
L27.7338 -8.58499
L27.2591 -8.7251
L26.787 -8.87352
L26.3177 -9.0302
L25.8514 -9.1951
L25.3881 -9.36816
L24.9281 -9.54933
L24.4715 -9.73856
L24.0183 -9.93579
L23.5689 -10.141
L23.1232 -10.354
L22.6814 -10.5749
L22.2437 -10.8035
L21.8102 -11.0398
L21.381 -11.2836
L20.9562 -11.535
L20.5361 -11.7939
L20.1206 -12.0601
L19.71 -12.3337
L19.3043 -12.6144
L18.9038 -12.9023
L18.5084 -13.1972
L18.1184 -13.499
L17.7338 -13.8077
L17.3548 -14.1232
L16.9814 -14.4453
L16.6139 -14.774
L16.2522 -15.1091
L15.8966 -15.4507
L15.5471 -15.7984
L15.2038 -16.1524
L14.8669 -16.5123
L14.5364 -16.8782
L14.2124 -17.25
L13.8951 -17.6274
L13.5845 -18.0105
L13.2807 -18.399
L12.9839 -18.7929
L12.6941 -19.192
L12.4113 -19.5963
L12.1358 -20.0055
L11.8675 -20.4196
L11.6066 -20.8385
L11.3531 -21.262
L11.1071 -21.6899
L10.8687 -22.1222
L10.6379 -22.5588
L10.4149 -22.9995
L10.1996 -23.4441
L9.99227 -23.8925
L9.79282 -24.3446
L9.60135 -24.8003
L9.41792 -25.2594
L9.24258 -25.7217
L9.0754 -26.1872
L8.91642 -26.6557
L8.76569 -27.127
L8.62326 -27.601
L8.48916 -28.0776
L8.36345 -28.5566
L8.24615 -29.0379
L8.13731 -29.5213
L8.03696 -30.0066
L7.94512 -30.4938
L7.86183 -30.9827
L7.78711 -31.4731
L7.72098 -31.9648
L7.66347 -32.4578
L7.61459 -32.9519
L7.57435 -33.4469
L7.54278 -33.9427
L7.51987 -34.4391
L7.50564 -34.936
L7.50008 -35.4332
L7.50321 -35.9306
L7.51502 -36.428
L7.53551 -36.9253
z
" id="C0_1_dd554c904e"/>
     <path d="
M24.2112 -61.8277
L24.5541 -61.7961
L24.8952 -61.7611
L25.2342 -61.7229
L25.5712 -61.6815
L25.906 -61.6368
L26.2386 -61.589
L26.5689 -61.5381
L26.8969 -61.4842
L27.2226 -61.4273
L27.5459 -61.3674
L27.8668 -61.3048
L28.1853 -61.2393
L28.5014 -61.1711
L28.815 -61.1002
L29.1263 -61.0266
L29.4352 -60.9505
L29.7416 -60.8719
L30.0457 -60.7909
L30.3475 -60.7074
L30.6469 -60.6216
L30.944 -60.5334
L31.2388 -60.443
L31.5313 -60.3503
L31.8217 -60.2555
L32.1099 -60.1586
L32.3959 -60.0595
L32.6798 -59.9583
L32.9617 -59.8552
L33.2415 -59.75
L33.5193 -59.6428
L33.7952 -59.5337
L34.0692 -59.4226
L34.3413 -59.3097
L34.6117 -59.1949
L34.8802 -59.0782
L35.147 -58.9596
L35.4122 -58.8392
L35.6757 -58.717
L35.9376 -58.5929
L36.198 -58.4671
L36.4569 -58.3394
L36.7143 -58.2099
L36.9703 -58.0787
L37.225 -57.9456
L37.4783 -57.8108
L37.7303 -57.6741
L37.9812 -57.5356
L38.2308 -57.3954
L38.4793 -57.2533
L38.7267 -57.1093
L38.973 -56.9635
L39.2182 -56.8159
L39.4626 -56.6664
L39.7059 -56.515
L39.9484 -56.3617
L40.19 -56.2065
L40.4307 -56.0494
L40.6707 -55.8902
L40.9099 -55.7292
L41.1484 -55.566
L41.3862 -55.4009
L41.6234 -55.2337
L41.8599 -55.0644
L42.0959 -54.893
L42.3313 -54.7195
L42.5661 -54.5438
L42.8005 -54.3659
L43.0344 -54.1858
L43.2679 -54.0034
L43.5009 -53.8187
L43.7336 -53.6317
L43.9659 -53.4423
L44.1978 -53.2505
L44.4295 -53.0563
L44.6608 -52.8596
L44.8919 -52.6604
L45.1226 -52.4587
L45.3532 -52.2544
L45.5835 -52.0475
L45.8135 -51.838
L46.0434 -51.6257
L46.2731 -51.4108
L46.5026 -51.1931
L46.7319 -50.9727
L46.961 -50.7495
L47.1899 -50.5234
L47.4187 -50.2945
L47.6473 -50.0626
L47.8758 -49.8279
L48.104 -49.5903
L48.3321 -49.3497
L48.56 -49.1062
L48.7877 -48.8597
L49.0153 -48.6103
L49.2426 -48.3578
L49.4697 -48.1024
L49.6965 -47.8441
L49.9231 -47.5828
L50.1495 -47.3186
L50.3755 -47.0515
L50.6013 -46.7815
L50.8267 -46.5088
L51.0518 -46.2332
L51.2766 -45.955
L51.501 -45.6742
L51.725 -45.3908
L51.9485 -45.1049
L52.1717 -44.8168
L52.3944 -44.5264
L52.6166 -44.2339
L52.8384 -43.9395
L53.0596 -43.6434
L53.2804 -43.3457
L53.5008 -43.0466
L53.7206 -42.7463
L53.94 -42.4451
L54.1589 -42.1433
L54.3774 -41.8411
L54.5954 -41.5389
L54.8132 -41.2368
L55.0305 -40.9354
L55.2477 -40.6349
L55.4646 -40.3358
L55.6814 -40.0384
L55.8981 -39.7432
L56.1149 -39.4507
L56.3319 -39.1612
L56.5491 -38.8754
L56.7667 -38.5936
L56.9848 -38.3164
L57.2035 -38.0443
L57.423 -37.7779
L57.6433 -37.5176
L57.8648 -37.2639
L58.0874 -37.0174
L58.3112 -36.7786
L58.5365 -36.5479
L58.7633 -36.3258
L58.9917 -36.1127
L59.2218 -35.9089
L59.4535 -35.7148
L59.687 -35.5308
L59.9222 -35.3571
L60.1591 -35.1938
L60.3977 -35.0412
L60.6379 -34.8993
L60.8795 -34.7683
L61.1225 -34.6481
L61.3667 -34.5388
L61.612 -34.4403
L61.8581 -34.3524
L62.1048 -34.2752
L62.352 -34.2084
L62.5994 -34.1518
L62.8468 -34.1053
L63.094 -34.0687
L63.3407 -34.0417
L63.5867 -34.0242
L63.8317 -34.0159
L64.0756 -34.0165
L64.4613 -34.0258
L64.4828 -34.5144
L64.4958 -35.0114
L64.5 -35.5086
L64.4956 -36.006
L64.4824 -36.5034
L64.4606 -37.0006
L64.4302 -37.4976
L64.391 -37.994
L64.3432 -38.4899
L64.2868 -38.985
L64.2218 -39.4792
L64.1482 -39.9724
L64.066 -40.4643
L63.9752 -40.9549
L63.876 -41.4439
L63.7682 -41.9314
L63.652 -42.417
L63.5273 -42.9006
L63.3943 -43.3821
L63.2529 -43.8614
L63.1033 -44.3383
L62.9453 -44.8127
L62.7792 -45.2844
L62.6049 -45.7532
L62.4225 -46.2191
L62.232 -46.6819
L62.0336 -47.1414
L61.8272 -47.5975
L61.613 -48.0501
L61.391 -48.499
L61.1612 -48.9441
L60.9238 -49.3852
L60.6787 -49.8223
L60.4262 -50.2552
L60.1662 -50.6837
L59.8988 -51.1078
L59.6242 -51.5272
L59.3424 -51.942
L59.0535 -52.3518
L58.7575 -52.7567
L58.4546 -53.1565
L58.1449 -53.5511
L57.8284 -53.9403
L57.5053 -54.324
L57.1756 -54.7022
L56.8395 -55.0747
L56.497 -55.4413
L56.1483 -55.8021
L55.7934 -56.1568
L55.4326 -56.5054
L55.0658 -56.8477
L54.6932 -57.1836
L54.3149 -57.5132
L53.931 -57.8361
L53.5416 -58.1524
L53.1469 -58.462
L52.747 -58.7647
L52.342 -59.0605
L51.932 -59.3493
L51.5172 -59.6309
L51.0976 -59.9054
L50.6734 -60.1725
L50.2448 -60.4324
L49.8118 -60.6847
L49.3746 -60.9296
L48.9334 -61.1668
L48.4882 -61.3964
L48.0392 -61.6183
L47.5865 -61.8323
L47.1303 -62.0385
L46.6707 -62.2367
L46.2079 -62.427
L45.7419 -62.6092
L45.273 -62.7833
L44.8013 -62.9492
L44.3269 -63.107
L43.8499 -63.2564
L43.3705 -63.3976
L42.889 -63.5304
L42.4053 -63.6549
L41.9196 -63.7709
L41.4322 -63.8785
L40.9431 -63.9775
L40.4525 -64.0681
L39.9605 -64.1501
L39.4673 -64.2235
L38.9731 -64.2883
L38.478 -64.3445
L37.9821 -64.3921
L37.4856 -64.431
L36.9886 -64.4613
L36.4914 -64.4828
L35.994 -64.4958
L35.4966 -64.5
L34.9994 -64.4956
L34.5024 -64.4824
L34.006 -64.4606
L33.5101 -64.4302
L33.015 -64.391
L32.5208 -64.3432
L32.0276 -64.2868
L31.5357 -64.2218
L31.0451 -64.1482
L30.5561 -64.066
L30.0686 -63.9752
L29.583 -63.876
L29.0994 -63.7682
L28.6179 -63.652
L28.1386 -63.5273
L27.6617 -63.3943
L27.1873 -63.2529
L26.7156 -63.1033
L26.2468 -62.9453
L25.7809 -62.7792
L25.3181 -62.6049
L24.8586 -62.4225
z
" id="C0_2_e95812b507"/>
    </defs>
    <g clip-path="url(#p1bffca34e9)">
     <use style="fill:#ff0000;stroke:#000000;stroke-width:2.0;" x="0.0" xlink:href="#C0_0_a811fe30f3" y="72.0"/>
    </g>
    <g clip-path="url(#p1bffca34e9)">
     <use style="fill:#ffffff;stroke:#000000;stroke-width:2.0;" x="0.0" xlink:href="#C0_1_dd554c904e" y="72.0"/>
    </g>
    <g clip-path="url(#p1bffca34e9)">
     <use style="fill:#ffffff;stroke:#000000;stroke-width:2.0;" x="0.0" xlink:href="#C0_2_e95812b507" y="72.0"/>
    </g>
   </g>
  </g>
 </g>
 <defs>
  <clipPath id="p1bffca34e9">
   <rect height="72.0" width="72.0" x="0.0" y="0.0"/>
  </clipPath>
 </defs>
</svg>
