<?xml version="1.0" encoding="utf-8" standalone="no"?>
<!DOCTYPE svg PUBLIC "-//W3C//DTD SVG 1.1//EN"
  "http://www.w3.org/Graphics/SVG/1.1/DTD/svg11.dtd">
<!-- Created with matplotlib (http://matplotlib.org/) -->
<svg height="72pt" version="1.1" viewBox="0 0 72 72" width="72pt" xmlns="http://www.w3.org/2000/svg" xmlns:xlink="http://www.w3.org/1999/xlink">
 <defs>
  <style type="text/css">
*{stroke-linecap:butt;stroke-linejoin:round;}
  </style>
 </defs>
 <g id="figure_1">
  <g id="patch_1">
   <path d="
M0 72
L72 72
L72 0
L0 0
z
" style="fill:none;"/>
  </g>
  <g id="axes_1">
   <g id="PatchCollection_1">
    <defs>
     <path d="
M36 -7.5
C43.5583 -7.5 50.808 -10.5029 56.1525 -15.8475
C61.4971 -21.192 64.5 -28.4417 64.5 -36
C64.5 -43.5583 61.4971 -50.808 56.1525 -56.1525
C50.808 -61.4971 43.5583 -64.5 36 -64.5
C28.4417 -64.5 21.192 -61.4971 15.8475 -56.1525
C10.5029 -50.808 7.5 -43.5583 7.5 -36
C7.5 -28.4417 10.5029 -21.192 15.8475 -15.8475
C21.192 -10.5029 28.4417 -7.5 36 -7.5
z
" id="C0_0_a811fe30f3"/>
     <path d="
M44.4119 -40.1917
L44.2412 -40.412
L44.0682 -40.6306
L43.8932 -40.8477
L43.716 -41.0631
L43.5366 -41.277
L43.3551 -41.4892
L43.1714 -41.6998
L42.9856 -41.9087
L42.7977 -42.116
L42.6075 -42.3217
L42.4153 -42.5257
L42.2208 -42.7281
L42.0241 -42.9287
L41.8253 -43.1277
L41.6242 -43.3249
L41.421 -43.5203
L41.2155 -43.7141
L41.0078 -43.906
L40.7978 -44.0961
L40.5856 -44.2843
L40.3711 -44.4707
L40.1544 -44.6552
L39.9353 -44.8378
L39.714 -45.0183
L39.4904 -45.1969
L39.2644 -45.3734
L39.0361 -45.5478
L38.8055 -45.7201
L38.5725 -45.8901
L38.3372 -46.058
L38.0995 -46.2235
L37.8594 -46.3867
L37.6169 -46.5474
L37.3721 -46.7057
L37.1249 -46.8614
L36.8752 -47.0145
L36.6232 -47.1649
L36.3688 -47.3126
L36.112 -47.4574
L35.8528 -47.5993
L35.5912 -47.7381
L35.3272 -47.8739
L35.0609 -48.0065
L34.7921 -48.1358
L34.5211 -48.2617
L34.2477 -48.3841
L33.972 -48.503
L33.694 -48.6181
L33.4137 -48.7294
L33.1312 -48.8368
L32.8465 -48.9401
L32.5596 -49.0393
L32.2705 -49.1342
L31.9794 -49.2246
L31.6862 -49.3105
L31.3911 -49.3918
L31.094 -49.4682
L30.795 -49.5396
L30.4942 -49.606
L30.1917 -49.6671
L29.8875 -49.7228
L29.5817 -49.773
L29.2744 -49.8176
L28.9657 -49.8563
L28.6557 -49.8891
L28.3445 -49.9158
L28.0322 -49.9363
L27.7189 -49.9503
L27.4047 -49.9579
L27.0898 -49.9588
L26.7742 -49.9529
L26.4582 -49.9401
L26.1419 -49.9202
L25.8254 -49.8932
L25.5089 -49.8588
L25.1925 -49.8171
L24.8764 -49.7678
L24.5608 -49.711
L24.2458 -49.6465
L23.9317 -49.5742
L23.6185 -49.494
L23.3066 -49.4059
L22.9961 -49.3099
L22.6871 -49.2059
L22.38 -49.0938
L22.0748 -48.9737
L21.7718 -48.8455
L21.4712 -48.7093
L21.1732 -48.565
L20.878 -48.4127
L20.5858 -48.2524
L20.2968 -48.0842
L20.0112 -47.9082
L19.7292 -47.7243
L19.451 -47.5328
L19.1767 -47.3337
L18.9066 -47.1271
L18.6409 -46.9131
L18.3797 -46.692
L18.1232 -46.4637
L17.8716 -46.2286
L17.6249 -45.9867
L17.3835 -45.7382
L17.1474 -45.4833
L16.9167 -45.2222
L16.6917 -44.955
L16.4723 -44.6821
L16.2588 -44.4035
L16.0512 -44.1195
L15.8497 -43.8303
L15.6543 -43.536
L15.4651 -43.237
L15.2822 -42.9335
L15.1057 -42.6256
L14.9355 -42.3136
L14.7719 -41.9976
L14.6147 -41.678
L14.4641 -41.3549
L14.3201 -41.0286
L14.1827 -40.6991
L14.0519 -40.3669
L13.9278 -40.032
L13.8103 -39.6947
L13.6994 -39.3551
L13.5951 -39.0135
L13.4974 -38.67
L13.4064 -38.3248
L13.3219 -37.9782
L13.244 -37.6302
L13.1726 -37.2812
L13.1076 -36.9311
L13.0491 -36.5802
L12.9971 -36.2286
L12.9513 -35.8766
L12.9119 -35.5241
L12.8788 -35.1715
L12.8519 -34.8187
L12.8312 -34.466
L12.8165 -34.1135
L12.808 -33.7612
L12.8054 -33.4094
L12.8088 -33.0581
L12.8181 -32.7073
L12.8332 -32.3573
L12.8541 -32.0082
L12.8807 -31.6599
L12.913 -31.3127
L12.9509 -30.9665
L12.9943 -30.6215
L13.0432 -30.2778
L13.0976 -29.9354
L13.1574 -29.5944
L13.2224 -29.2548
L13.2928 -28.9168
L13.3683 -28.5804
L13.4491 -28.2457
L13.5349 -27.9126
L13.6258 -27.5814
L13.7218 -27.252
L13.8227 -26.9244
L13.9286 -26.5988
L14.0393 -26.2752
L14.1549 -25.9536
L14.2752 -25.634
L14.4004 -25.3166
L14.5302 -25.0014
L14.6648 -24.6883
L14.804 -24.3775
L14.9478 -24.069
L15.0962 -23.7628
L15.2492 -23.4589
L15.4066 -23.1575
L15.5686 -22.8585
L15.735 -22.562
L15.9059 -22.2679
L16.0812 -21.9765
L16.2608 -21.6877
L16.4449 -21.4015
L16.6333 -21.1179
L16.826 -20.8371
L17.023 -20.5591
L17.2242 -20.2838
L17.4298 -20.0114
L17.6396 -19.7419
L17.8536 -19.4753
L18.0718 -19.2117
L18.2943 -18.9512
L18.5209 -18.6937
L18.7516 -18.4393
L18.9866 -18.1882
L19.2256 -17.9402
L19.4688 -17.6956
L19.7161 -17.4543
L19.9674 -17.2164
L20.2228 -16.982
L20.4823 -16.7511
L20.7458 -16.5238
L21.0133 -16.3001
L21.2848 -16.0802
L21.5603 -15.8641
L21.8397 -15.6519
L22.1231 -15.4436
L22.4103 -15.2393
L22.7014 -15.0392
L22.9964 -14.8432
L23.2952 -14.6515
L23.5977 -14.4641
L23.904 -14.2812
L24.214 -14.1029
L24.5276 -13.9291
L24.8448 -13.7601
L25.1656 -13.5959
L25.4899 -13.4366
L25.8177 -13.2824
L26.1488 -13.1332
L26.4833 -12.9893
L26.821 -12.8507
L27.1619 -12.7176
L27.5059 -12.59
L27.8529 -12.468
L28.2028 -12.3519
L28.5555 -12.2416
L28.911 -12.1372
L29.2691 -12.039
L29.6296 -11.947
L29.9925 -11.8613
L30.3577 -11.7821
L30.725 -11.7094
L31.0943 -11.6434
L31.4653 -11.5841
L31.8381 -11.5317
L32.2123 -11.4863
L32.5878 -11.4479
L32.9646 -11.4167
L33.3422 -11.3928
L33.7207 -11.3763
L34.0997 -11.3672
L34.4791 -11.3656
L34.8586 -11.3717
L35.238 -11.3854
L35.6172 -11.4069
L35.9958 -11.4361
L36.3736 -11.4733
L36.7505 -11.5183
L37.126 -11.5713
L37.5 -11.6323
L37.8723 -11.7012
L38.2425 -11.7782
L38.6104 -11.8631
L38.9757 -11.9561
L39.3381 -12.057
L39.6974 -12.1659
L40.0534 -12.2827
L40.4056 -12.4073
L40.754 -12.5398
L41.0981 -12.6799
L41.4378 -12.8278
L41.7727 -12.9831
L42.1027 -13.146
L42.4274 -13.3162
L42.7467 -13.4935
L43.0603 -13.678
L43.3679 -13.8694
L43.6695 -14.0676
L43.9647 -14.2723
L44.2533 -14.4836
L44.5352 -14.7011
L44.8103 -14.9246
L45.0782 -15.1541
L45.339 -15.3892
L45.5925 -15.6298
L45.8385 -15.8757
L46.077 -16.1266
L46.3078 -16.3824
L46.5309 -16.6427
L46.7462 -16.9075
L46.9537 -17.1764
L47.1533 -17.4493
L47.3451 -17.7259
L47.5289 -18.0059
L47.7048 -18.2893
L47.8728 -18.5757
L48.033 -18.8649
L48.1854 -19.1568
L48.3299 -19.4511
L48.4668 -19.7476
L48.596 -20.046
L48.7176 -20.3463
L48.8317 -20.6482
L48.9384 -20.9516
L49.0378 -21.2561
L49.13 -21.5618
L49.215 -21.8683
L49.2931 -22.1756
L49.3643 -22.4834
L49.4287 -22.7917
L49.4865 -23.1003
L49.5378 -23.409
L49.5827 -23.7177
L49.6213 -24.0263
L49.6538 -24.3347
L49.6803 -24.6427
L49.7009 -24.9502
L49.7158 -25.2572
L49.725 -25.5635
L49.7288 -25.8691
L49.7272 -26.1739
L49.7203 -26.4777
L49.7084 -26.7805
L49.6914 -27.0823
L49.6696 -27.383
L49.643 -27.6824
L49.6118 -27.9806
L49.5761 -28.2775
L49.5359 -28.5731
L49.4914 -28.8673
L49.4428 -29.16
L49.39 -29.4513
L49.3332 -29.741
L49.2726 -30.0293
L49.2081 -30.3159
L49.1399 -30.601
L49.0681 -30.8845
L48.9927 -31.1663
L48.9138 -31.4465
L48.8316 -31.725
L48.7461 -32.0019
L48.6573 -32.277
L48.5654 -32.5505
L48.4704 -32.8223
L48.3723 -33.0924
L48.2713 -33.3607
L48.1674 -33.6274
L48.0606 -33.8923
L47.951 -34.1555
L47.8386 -34.4171
L47.7236 -34.6769
L47.6059 -34.935
L47.4856 -35.1913
L47.3628 -35.446
L47.2374 -35.699
L47.1095 -35.9503
L46.9792 -36.2
L46.8464 -36.4479
L46.7112 -36.6942
L46.5737 -36.9388
L46.4339 -37.1818
L46.2917 -37.4231
L46.1473 -37.6627
L46.0006 -37.9007
L45.8516 -38.1371
L45.7004 -38.3719
L45.547 -38.605
L45.3913 -38.8365
L45.2335 -39.0664
L45.0735 -39.2947
L44.9114 -39.5213
L44.7471 -39.7464
z
" id="C0_1_5b17c90f93"/>
    </defs>
    <g clip-path="url(#p1bffca34e9)">
     <use style="fill:#ff0000;stroke:#000000;stroke-width:2.0;" x="0.0" xlink:href="#C0_0_a811fe30f3" y="72.0"/>
    </g>
    <g clip-path="url(#p1bffca34e9)">
     <use style="fill:#ffffff;stroke:#000000;stroke-width:2.0;" x="0.0" xlink:href="#C0_1_5b17c90f93" y="72.0"/>
    </g>
   </g>
  </g>
 </g>
 <defs>
  <clipPath id="p1bffca34e9">
   <rect height="72.0" width="72.0" x="0.0" y="0.0"/>
  </clipPath>
 </defs>
</svg>
