<?xml version="1.0" encoding="utf-8" standalone="no"?>
<!DOCTYPE svg PUBLIC "-//W3C//DTD SVG 1.1//EN"
  "http://www.w3.org/Graphics/SVG/1.1/DTD/svg11.dtd">
<!-- Created with matplotlib (http://matplotlib.org/) -->
<svg height="72pt" version="1.1" viewBox="0 0 72 72" width="72pt" xmlns="http://www.w3.org/2000/svg" xmlns:xlink="http://www.w3.org/1999/xlink">
 <defs>
  <style type="text/css">
*{stroke-linecap:butt;stroke-linejoin:round;}
  </style>
 </defs>
 <g id="figure_1">
  <g id="patch_1">
   <path d="
M0 72
L72 72
L72 0
L0 0
z
" style="fill:none;"/>
  </g>
  <g id="axes_1">
   <g id="PatchCollection_1">
    <defs>
     <path d="
M36 -7.5
C43.5583 -7.5 50.808 -10.5029 56.1525 -15.8475
C61.4971 -21.192 64.5 -28.4417 64.5 -36
C64.5 -43.5583 61.4971 -50.808 56.1525 -56.1525
C50.808 -61.4971 43.5583 -64.5 36 -64.5
C28.4417 -64.5 21.192 -61.4971 15.8475 -56.1525
C10.5029 -50.808 7.5 -43.5583 7.5 -36
C7.5 -28.4417 10.5029 -21.192 15.8475 -15.8475
C21.192 -10.5029 28.4417 -7.5 36 -7.5
z
" id="C0_0_a811fe30f3"/>
     <path d="
M41.5002 -29.6835
L41.6415 -29.9083
L41.7815 -30.1341
L41.9202 -30.3609
L42.0575 -30.5887
L42.1935 -30.8176
L42.3282 -31.0476
L42.4616 -31.2787
L42.5938 -31.5111
L42.7247 -31.7446
L42.8543 -31.9793
L42.9827 -32.2154
L43.1098 -32.4527
L43.2356 -32.6914
L43.3603 -32.9314
L43.4836 -33.1729
L43.6057 -33.4158
L43.7266 -33.6602
L43.8462 -33.9062
L43.9645 -34.1537
L44.0815 -34.4028
L44.1972 -34.6535
L44.3116 -34.9059
L44.4246 -35.16
L44.5363 -35.4158
L44.6466 -35.6734
L44.7554 -35.9328
L44.8629 -36.1941
L44.9688 -36.4572
L45.0733 -36.7223
L45.1761 -36.9893
L45.2774 -37.2583
L45.3771 -37.5292
L45.475 -37.8022
L45.5712 -38.0773
L45.6656 -38.3544
L45.7582 -38.6337
L45.8488 -38.915
L45.9374 -39.1985
L46.0239 -39.4842
L46.1083 -39.772
L46.1904 -40.062
L46.2702 -40.3542
L46.3476 -40.6486
L46.4224 -40.9452
L46.4946 -41.2439
L46.5641 -41.5448
L46.6306 -41.8479
L46.6942 -42.1531
L46.7547 -42.4604
L46.8119 -42.7698
L46.8657 -43.0812
L46.9159 -43.3946
L46.9623 -43.71
L47.0049 -44.0272
L47.0434 -44.3463
L47.0777 -44.6671
L47.1074 -44.9896
L47.1326 -45.3136
L47.1528 -45.6391
L47.168 -45.966
L47.1778 -46.2941
L47.1821 -46.6232
L47.1806 -46.9533
L47.1731 -47.2842
L47.1592 -47.6156
L47.1387 -47.9475
L47.1114 -48.2796
L47.077 -48.6117
L47.0351 -48.9436
L46.9855 -49.275
L46.9279 -49.6056
L46.862 -49.9353
L46.7875 -50.2637
L46.7041 -50.5904
L46.6115 -50.9153
L46.5094 -51.2379
L46.3975 -51.5579
L46.2756 -51.875
L46.1435 -52.1888
L46.0009 -52.4988
L45.8475 -52.8048
L45.6833 -53.1064
L45.508 -53.403
L45.3215 -53.6945
L45.1238 -53.9802
L44.9147 -54.2599
L44.6944 -54.5332
L44.4627 -54.7996
L44.2199 -55.0588
L43.966 -55.3105
L43.7011 -55.5543
L43.4256 -55.7899
L43.1397 -56.017
L42.8437 -56.2353
L42.5379 -56.4446
L42.2227 -56.6446
L41.8986 -56.8352
L41.5659 -57.0162
L41.2252 -57.1874
L40.8769 -57.3487
L40.5216 -57.5001
L40.1598 -57.6415
L39.7919 -57.7728
L39.4186 -57.8941
L39.0403 -58.0053
L38.6577 -58.1066
L38.2711 -58.1979
L37.8811 -58.2794
L37.4882 -58.3511
L37.0929 -58.4132
L36.6957 -58.4658
L36.2969 -58.509
L35.8971 -58.543
L35.4967 -58.568
L35.0959 -58.5841
L34.6953 -58.5914
L34.2951 -58.5903
L33.8957 -58.5809
L33.4974 -58.5633
L33.1005 -58.5378
L32.7052 -58.5045
L32.3119 -58.4638
L31.9206 -58.4157
L31.5318 -58.3604
L31.1455 -58.2983
L30.7619 -58.2294
L30.3812 -58.154
L30.0036 -58.0723
L29.6291 -57.9844
L29.258 -57.8905
L28.8903 -57.7908
L28.5261 -57.6856
L28.1655 -57.5749
L27.8085 -57.4589
L27.4554 -57.3378
L27.106 -57.2118
L26.7604 -57.081
L26.4188 -56.9455
L26.081 -56.8055
L25.7472 -56.6612
L25.4174 -56.5126
L25.0915 -56.3599
L24.7696 -56.2032
L24.4517 -56.0427
L24.1377 -55.8783
L23.8277 -55.7103
L23.5217 -55.5388
L23.2196 -55.3638
L22.9215 -55.1854
L22.6272 -55.0037
L22.3368 -54.8188
L22.0503 -54.6308
L21.7677 -54.4397
L21.4888 -54.2456
L21.2137 -54.0486
L20.9424 -53.8487
L20.6747 -53.646
L20.4108 -53.4405
L20.1506 -53.2323
L19.8939 -53.0213
L19.6409 -52.8078
L19.3914 -52.5916
L19.1455 -52.3728
L18.9031 -52.1515
L18.6641 -51.9276
L18.4286 -51.7013
L18.1966 -51.4724
L17.9679 -51.2411
L17.7427 -51.0073
L17.5207 -50.7711
L17.3022 -50.5324
L17.0869 -50.2913
L16.8749 -50.0477
L16.6662 -49.8017
L16.4607 -49.5533
L16.2585 -49.3024
L16.0596 -49.049
L15.8638 -48.7932
L15.6713 -48.535
L15.482 -48.2742
L15.2959 -48.011
L15.113 -47.7453
L14.9334 -47.477
L14.7569 -47.2062
L14.5837 -46.9328
L14.4137 -46.6568
L14.2469 -46.3782
L14.0834 -46.097
L13.9232 -45.8132
L13.7663 -45.5266
L13.6127 -45.2374
L13.4624 -44.9454
L13.3155 -44.6506
L13.1721 -44.3531
L13.032 -44.0527
L12.8955 -43.7496
L12.7625 -43.4435
L12.6331 -43.1345
L12.5073 -42.8227
L12.3852 -42.5078
L12.2669 -42.19
L12.1524 -41.8692
L12.0417 -41.5454
L11.935 -41.2186
L11.8323 -40.8886
L11.7337 -40.5556
L11.6393 -40.2195
L11.5491 -39.8803
L11.4633 -39.538
L11.382 -39.1926
L11.3053 -38.844
L11.2332 -38.4922
L11.1659 -38.1374
L11.1034 -37.7794
L11.046 -37.4183
L10.9937 -37.0542
L10.9467 -36.6869
L10.905 -36.3166
L10.8689 -35.9434
L10.8385 -35.5671
L10.8138 -35.188
L10.7952 -34.806
L10.7826 -34.4213
L10.7763 -34.0339
L10.7764 -33.6438
L10.783 -33.2513
L10.7965 -32.8563
L10.8168 -32.4591
L10.8442 -32.0598
L10.8788 -31.6585
L10.9208 -31.2554
L10.9704 -30.8506
L11.0277 -30.4444
L11.0929 -30.0369
L11.1661 -29.6285
L11.2476 -29.2193
L11.3374 -28.8096
L11.4356 -28.3996
L11.5426 -27.9898
L11.6582 -27.5804
L11.7828 -27.1718
L11.9163 -26.7642
L12.0589 -26.3582
L12.2107 -25.9541
L12.3717 -25.5522
L12.542 -25.1532
L12.7217 -24.7574
L12.9106 -24.3653
L13.1089 -23.9775
L13.3164 -23.5943
L13.5332 -23.2165
L13.7591 -22.8444
L13.9941 -22.4787
L14.2379 -22.1199
L14.4905 -21.7686
L14.7517 -21.4254
L15.0211 -21.0909
L15.2987 -20.7655
L15.584 -20.4499
L15.8769 -20.1446
L16.1768 -19.8501
L16.4836 -19.5669
L16.7967 -19.2955
L17.1158 -19.0364
L17.4405 -18.7899
L17.7703 -18.5564
L18.1048 -18.3362
L18.4434 -18.1295
L18.7858 -17.9367
L19.1314 -17.7578
L19.4798 -17.5929
L19.8305 -17.4421
L20.183 -17.3054
L20.537 -17.1828
L20.8919 -17.074
L21.2473 -16.9791
L21.6029 -16.8977
L21.9583 -16.8296
L22.313 -16.7746
L22.6669 -16.7324
L23.0195 -16.7025
L23.3706 -16.6847
L23.7198 -16.6786
L24.0671 -16.6838
L24.412 -16.6998
L24.7545 -16.7263
L25.0943 -16.7628
L25.4313 -16.809
L25.7653 -16.8643
L26.0963 -16.9285
L26.4239 -17.0011
L26.7483 -17.0817
L27.0693 -17.1699
L27.3868 -17.2653
L27.7008 -17.3676
L28.0112 -17.4764
L28.3179 -17.5914
L28.621 -17.7122
L28.9204 -17.8386
L29.2161 -17.9701
L29.5081 -18.1066
L29.7964 -18.2477
L30.0811 -18.3932
L30.362 -18.5428
L30.6393 -18.6963
L30.9129 -18.8535
L31.1829 -19.0141
L31.4493 -19.1779
L31.7122 -19.3447
L31.9715 -19.5145
L32.2273 -19.6868
L32.4798 -19.8617
L32.7288 -20.039
L32.9744 -20.2185
L33.2168 -20.4
L33.4558 -20.5835
L33.6917 -20.7688
L33.9244 -20.9559
L34.154 -21.1446
L34.3805 -21.3347
L34.6041 -21.5264
L34.8247 -21.7193
L35.0423 -21.9135
L35.2572 -22.109
L35.4692 -22.3055
L35.6785 -22.5032
L35.8851 -22.7018
L36.0891 -22.9014
L36.2904 -23.1019
L36.4893 -23.3034
L36.6856 -23.5056
L36.8796 -23.7087
L37.0711 -23.9125
L37.2603 -24.1171
L37.4472 -24.3224
L37.6319 -24.5285
L37.8144 -24.7352
L37.9948 -24.9427
L38.173 -25.1508
L38.3492 -25.3595
L38.5234 -25.569
L38.6956 -25.7791
L38.8659 -25.9898
L39.0343 -26.2013
L39.2008 -26.4134
L39.3655 -26.6261
L39.5285 -26.8396
L39.6897 -27.0537
L39.8492 -27.2686
L40.0071 -27.4842
L40.1633 -27.7005
L40.3178 -27.9176
L40.4709 -28.1354
L40.6223 -28.354
L40.7723 -28.5734
L40.9208 -28.7937
L41.0677 -29.0148
L41.2133 -29.2368
z
" id="C0_1_5c14a6c6a2"/>
    </defs>
    <g clip-path="url(#p1bffca34e9)">
     <use style="fill:#ffffff;stroke:#000000;stroke-width:2.0;" x="0.0" xlink:href="#C0_0_a811fe30f3" y="72.0"/>
    </g>
    <g clip-path="url(#p1bffca34e9)">
     <use style="fill:#ff0000;stroke:#000000;stroke-width:2.0;" x="0.0" xlink:href="#C0_1_5c14a6c6a2" y="72.0"/>
    </g>
   </g>
  </g>
 </g>
 <defs>
  <clipPath id="p1bffca34e9">
   <rect height="72.0" width="72.0" x="0.0" y="0.0"/>
  </clipPath>
 </defs>
</svg>
