<?xml version="1.0" encoding="utf-8" standalone="no"?>
<!DOCTYPE svg PUBLIC "-//W3C//DTD SVG 1.1//EN"
  "http://www.w3.org/Graphics/SVG/1.1/DTD/svg11.dtd">
<!-- Created with matplotlib (http://matplotlib.org/) -->
<svg height="72pt" version="1.1" viewBox="0 0 72 72" width="72pt" xmlns="http://www.w3.org/2000/svg" xmlns:xlink="http://www.w3.org/1999/xlink">
 <defs>
  <style type="text/css">
*{stroke-linecap:butt;stroke-linejoin:round;}
  </style>
 </defs>
 <g id="figure_1">
  <g id="patch_1">
   <path d="
M0 72
L72 72
L72 0
L0 0
z
" style="fill:none;"/>
  </g>
  <g id="axes_1">
   <g id="PatchCollection_1">
    <defs>
     <path d="
M36 -7.5
C43.5583 -7.5 50.808 -10.5029 56.1525 -15.8475
C61.4971 -21.192 64.5 -28.4417 64.5 -36
C64.5 -43.5583 61.4971 -50.808 56.1525 -56.1525
C50.808 -61.4971 43.5583 -64.5 36 -64.5
C28.4417 -64.5 21.192 -61.4971 15.8475 -56.1525
C10.5029 -50.808 7.5 -43.5583 7.5 -36
C7.5 -28.4417 10.5029 -21.192 15.8475 -15.8475
C21.192 -10.5029 28.4417 -7.5 36 -7.5
z
" id="C0_0_a811fe30f3"/>
     <path d="
M40.7913 -29.5325
L40.5334 -29.4844
L40.275 -29.4377
L40.0163 -29.3924
L39.757 -29.3485
L39.4972 -29.3059
L39.2368 -29.2648
L38.9758 -29.2251
L38.7141 -29.1868
L38.4518 -29.1498
L38.1887 -29.1143
L37.9248 -29.0802
L37.6601 -29.0474
L37.3946 -29.0161
L37.1282 -28.9863
L36.8609 -28.9579
L36.5926 -28.9309
L36.3233 -28.9054
L36.0529 -28.8814
L35.7815 -28.8589
L35.509 -28.8379
L35.2353 -28.8185
L34.9604 -28.8006
L34.6843 -28.7844
L34.407 -28.7698
L34.1284 -28.7569
L33.8485 -28.7456
L33.5672 -28.7361
L33.2846 -28.7284
L33.0006 -28.7224
L32.7152 -28.7184
L32.4283 -28.7162
L32.14 -28.716
L31.8502 -28.7178
L31.5589 -28.7216
L31.2662 -28.7276
L30.9719 -28.7357
L30.6762 -28.7461
L30.3789 -28.7588
L30.0801 -28.7738
L29.7798 -28.7913
L29.4781 -28.8114
L29.1748 -28.834
L28.8702 -28.8594
L28.5641 -28.8875
L28.2566 -28.9185
L27.9478 -28.9525
L27.6377 -28.9896
L27.3263 -29.0298
L27.0138 -29.0734
L26.7001 -29.1203
L26.3854 -29.1708
L26.0698 -29.225
L25.7533 -29.283
L25.436 -29.3449
L25.1182 -29.4108
L24.7998 -29.4811
L24.4811 -29.5556
L24.1623 -29.6348
L23.8433 -29.7186
L23.5246 -29.8074
L23.2062 -29.9011
L22.8883 -30.0002
L22.5712 -30.1047
L22.2552 -30.2148
L21.9405 -30.3308
L21.6274 -30.4528
L21.3161 -30.5811
L21.007 -30.7158
L20.7005 -30.8573
L20.3968 -31.0057
L20.0964 -31.1612
L19.7996 -31.3242
L19.5068 -31.4947
L19.2186 -31.6731
L18.9352 -31.8595
L18.6572 -32.0542
L18.385 -32.2574
L18.1192 -32.4692
L17.8602 -32.6899
L17.6084 -32.9195
L17.3645 -33.1583
L17.1289 -33.4063
L16.902 -33.6635
L16.6844 -33.9301
L16.4766 -34.2061
L16.2789 -34.4913
L16.0919 -34.7857
L15.9159 -35.0892
L15.7512 -35.4015
L15.5983 -35.7226
L15.4573 -36.0519
L15.3286 -36.3893
L15.2123 -36.7344
L15.1085 -37.0867
L15.0175 -37.4458
L14.9392 -37.8112
L14.8737 -38.1824
L14.8209 -38.5589
L14.7808 -38.94
L14.7532 -39.3253
L14.738 -39.7141
L14.7351 -40.1059
L14.7442 -40.5002
L14.7651 -40.8963
L14.7975 -41.2937
L14.8413 -41.6919
L14.8959 -42.0903
L14.9613 -42.4885
L15.037 -42.886
L15.1228 -43.2824
L15.2183 -43.6772
L15.3231 -44.07
L15.4371 -44.4604
L15.5597 -44.8482
L15.6907 -45.2329
L15.8298 -45.6143
L15.9767 -45.9922
L16.131 -46.3662
L16.2924 -46.7361
L16.4606 -47.1018
L16.6353 -47.463
L16.8162 -47.8196
L17.0031 -48.1714
L17.1956 -48.5184
L17.3936 -48.8603
L17.5967 -49.1972
L17.8047 -49.5289
L18.0173 -49.8553
L18.2344 -50.1765
L18.4557 -50.4923
L18.681 -50.8028
L18.9101 -51.1079
L19.1428 -51.4076
L19.3789 -51.7019
L19.6183 -51.9908
L19.8608 -52.2744
L20.1063 -52.5526
L20.3545 -52.8254
L20.6054 -53.093
L20.8588 -53.3552
L21.1146 -53.6123
L21.3726 -53.8641
L21.6329 -54.1109
L21.8952 -54.3525
L22.1594 -54.589
L22.4256 -54.8206
L22.6935 -55.0472
L22.9632 -55.2689
L23.2345 -55.4857
L23.5074 -55.6978
L23.7818 -55.9051
L24.0577 -56.1077
L24.335 -56.3058
L24.6136 -56.4992
L24.8936 -56.6881
L25.1749 -56.8725
L25.4575 -57.0526
L25.7413 -57.2282
L26.0262 -57.3995
L26.3124 -57.5665
L26.5997 -57.7293
L26.8882 -57.8879
L27.1778 -58.0424
L27.4686 -58.1927
L27.7604 -58.339
L28.0534 -58.4813
L28.3475 -58.6195
L28.6427 -58.7537
L28.9391 -58.884
L29.2365 -59.0104
L29.5351 -59.1329
L29.8349 -59.2515
L30.1358 -59.3663
L30.4379 -59.4772
L30.7411 -59.5843
L31.0456 -59.6876
L31.3512 -59.787
L31.6582 -59.8827
L31.9663 -59.9746
L32.2758 -60.0627
L32.5865 -60.1469
L32.8985 -60.2274
L33.2119 -60.3041
L33.5267 -60.3769
L33.8428 -60.4459
L34.1604 -60.511
L34.4794 -60.5722
L34.7999 -60.6295
L35.1218 -60.6829
L35.4453 -60.7324
L35.7702 -60.7778
L36.0968 -60.8192
L36.4249 -60.8564
L36.7547 -60.8896
L37.086 -60.9186
L37.419 -60.9434
L37.7537 -60.9639
L38.0901 -60.98
L38.4281 -60.9917
L38.7679 -60.999
L39.1094 -61.0017
L39.4526 -60.9997
L39.7976 -60.9931
L40.1443 -60.9817
L40.4928 -60.9654
L40.8431 -60.9442
L41.1951 -60.9179
L41.5488 -60.8865
L41.9043 -60.8498
L42.2614 -60.8077
L42.6203 -60.7602
L42.9808 -60.7071
L43.343 -60.6483
L43.7068 -60.5837
L44.0721 -60.5132
L44.4389 -60.4365
L44.8072 -60.3537
L45.1768 -60.2646
L45.5477 -60.169
L45.9199 -60.0668
L46.2932 -59.9579
L46.6675 -59.8421
L47.0427 -59.7193
L47.4187 -59.5893
L47.7954 -59.452
L48.1725 -59.3074
L48.55 -59.1551
L48.9277 -58.9952
L49.3054 -58.8274
L49.6828 -58.6516
L50.0598 -58.4678
L50.4361 -58.2758
L50.8115 -58.0754
L51.1858 -57.8666
L51.5585 -57.6493
L51.9295 -57.4234
L52.2983 -57.1889
L52.6648 -56.9456
L53.0284 -56.6935
L53.3889 -56.4326
L53.7458 -56.1629
L54.0987 -55.8844
L54.4473 -55.5972
L54.7909 -55.3012
L55.1292 -54.9967
L55.4617 -54.6836
L55.7878 -54.3621
L56.1071 -54.0325
L56.419 -53.6948
L56.723 -53.3494
L57.0185 -52.9966
L57.305 -52.6365
L57.5818 -52.2696
L57.8485 -51.8963
L58.1045 -51.517
L58.3491 -51.1321
L58.5819 -50.7421
L58.8024 -50.3477
L59.01 -49.9492
L59.2042 -49.5474
L59.3846 -49.1428
L59.5507 -48.7362
L59.7023 -48.328
L59.839 -47.9191
L59.9604 -47.51
L60.0665 -47.1014
L60.157 -46.6941
L60.2318 -46.2885
L60.291 -45.8855
L60.3345 -45.4855
L60.3624 -45.0891
L60.375 -44.6968
L60.3725 -44.3091
L60.3551 -43.9265
L60.3231 -43.5493
L60.2771 -43.1779
L60.2173 -42.8126
L60.1442 -42.4536
L60.0584 -42.1012
L59.9603 -41.7555
L59.8505 -41.4166
L59.7295 -41.0846
L59.5978 -40.7596
L59.456 -40.4415
L59.3046 -40.1305
L59.1443 -39.8265
L58.9754 -39.5294
L58.7985 -39.2392
L58.6141 -38.9557
L58.4228 -38.679
L58.2249 -38.4088
L58.0209 -38.1452
L57.8112 -37.8879
L57.5963 -37.6369
L57.3766 -37.392
L57.1524 -37.1531
L56.924 -36.9201
L56.6919 -36.6928
L56.4563 -36.4711
L56.2175 -36.2549
L55.9758 -36.0441
L55.7316 -35.8384
L55.4849 -35.6378
L55.2361 -35.4422
L54.9854 -35.2514
L54.7329 -35.0654
L54.479 -34.8839
L54.2237 -34.7068
L53.9672 -34.5341
L53.7097 -34.3657
L53.4512 -34.2013
L53.1921 -34.041
L52.9323 -33.8846
L52.672 -33.7319
L52.4112 -33.583
L52.1502 -33.4376
L51.8889 -33.2958
L51.6274 -33.1574
L51.3658 -33.0223
L51.1043 -32.8904
L50.8427 -32.7616
L50.5812 -32.6359
L50.3198 -32.5132
L50.0586 -32.3934
L49.7976 -32.2765
L49.5368 -32.1622
L49.2762 -32.0507
L49.0159 -31.9418
L48.7559 -31.8354
L48.4962 -31.7315
L48.2367 -31.63
L47.9776 -31.5309
L47.7188 -31.434
L47.4603 -31.3395
L47.2021 -31.2471
L46.9441 -31.1569
L46.6865 -31.0687
L46.4291 -30.9826
L46.172 -30.8985
L45.9152 -30.8164
L45.6585 -30.7362
L45.4021 -30.6578
L45.1459 -30.5813
L44.8898 -30.5066
L44.6338 -30.4337
L44.378 -30.3624
L44.1222 -30.2929
L43.8665 -30.2251
L43.6109 -30.1589
L43.3552 -30.0943
L43.0995 -30.0313
L42.8438 -29.9699
L42.5879 -29.91
L42.3319 -29.8516
L42.0758 -29.7948
L41.8194 -29.7394
L41.5628 -29.6855
L41.306 -29.6331
z
" id="C0_1_bb36e8ac47"/>
    </defs>
    <g clip-path="url(#p1bffca34e9)">
     <use style="fill:#ff0000;stroke:#000000;stroke-width:2.0;" x="0.0" xlink:href="#C0_0_a811fe30f3" y="72.0"/>
    </g>
    <g clip-path="url(#p1bffca34e9)">
     <use style="fill:#ffffff;stroke:#000000;stroke-width:2.0;" x="0.0" xlink:href="#C0_1_bb36e8ac47" y="72.0"/>
    </g>
   </g>
  </g>
 </g>
 <defs>
  <clipPath id="p1bffca34e9">
   <rect height="72.0" width="72.0" x="0.0" y="0.0"/>
  </clipPath>
 </defs>
</svg>
