<?xml version="1.0" encoding="utf-8" standalone="no"?>
<!DOCTYPE svg PUBLIC "-//W3C//DTD SVG 1.1//EN"
  "http://www.w3.org/Graphics/SVG/1.1/DTD/svg11.dtd">
<!-- Created with matplotlib (http://matplotlib.org/) -->
<svg height="72pt" version="1.1" viewBox="0 0 72 72" width="72pt" xmlns="http://www.w3.org/2000/svg" xmlns:xlink="http://www.w3.org/1999/xlink">
 <defs>
  <style type="text/css">
*{stroke-linecap:butt;stroke-linejoin:round;}
  </style>
 </defs>
 <g id="figure_1">
  <g id="patch_1">
   <path d="
M0 72
L72 72
L72 0
L0 0
z
" style="fill:none;"/>
  </g>
  <g id="axes_1">
   <g id="PatchCollection_1">
    <defs>
     <path d="
M36 -7.5
C43.5583 -7.5 50.808 -10.5029 56.1525 -15.8475
C61.4971 -21.192 64.5 -28.4417 64.5 -36
C64.5 -43.5583 61.4971 -50.808 56.1525 -56.1525
C50.808 -61.4971 43.5583 -64.5 36 -64.5
C28.4417 -64.5 21.192 -61.4971 15.8475 -56.1525
C10.5029 -50.808 7.5 -43.5583 7.5 -36
C7.5 -28.4417 10.5029 -21.192 15.8475 -15.8475
C21.192 -10.5029 28.4417 -7.5 36 -7.5
z
" id="C0_0_a811fe30f3"/>
     <path d="
M50.1845 -60.5961
L50.2523 -60.273
L50.303 -59.9498
L50.338 -59.6267
L50.3588 -59.304
L50.3665 -58.9818
L50.3623 -58.6604
L50.3471 -58.3398
L50.322 -58.0203
L50.2878 -57.7021
L50.2453 -57.3851
L50.1952 -57.0695
L50.1381 -56.7555
L50.0747 -56.4432
L50.0055 -56.1325
L49.9309 -55.8237
L49.8516 -55.5167
L49.7677 -55.2117
L49.6798 -54.9087
L49.5882 -54.6077
L49.4933 -54.3089
L49.3952 -54.0122
L49.2942 -53.7178
L49.1907 -53.4255
L49.0849 -53.1355
L48.9769 -52.8477
L48.8669 -52.5623
L48.7551 -52.2791
L48.6418 -51.9983
L48.527 -51.7197
L48.4108 -51.4434
L48.2934 -51.1694
L48.175 -50.8977
L48.0556 -50.6282
L47.9352 -50.361
L47.8141 -50.096
L47.6923 -49.8332
L47.5698 -49.5726
L47.4468 -49.314
L47.3232 -49.0576
L47.1992 -48.8033
L47.0747 -48.551
L46.9499 -48.3006
L46.8248 -48.0523
L46.6993 -47.8058
L46.5736 -47.5612
L46.4476 -47.3185
L46.3214 -47.0775
L46.1951 -46.8382
L46.0685 -46.6006
L45.9418 -46.3647
L45.8149 -46.1304
L45.6878 -45.8976
L45.5606 -45.6663
L45.4333 -45.4364
L45.3058 -45.2079
L45.1782 -44.9808
L45.0504 -44.755
L44.9225 -44.5304
L44.7944 -44.307
L44.6661 -44.0847
L44.5377 -43.8635
L44.4091 -43.6434
L44.2803 -43.4242
L44.1513 -43.206
L44.022 -42.9887
L43.8925 -42.7722
L43.7628 -42.5565
L43.6327 -42.3415
L43.5024 -42.1272
L43.3718 -41.9136
L43.2408 -41.7005
L43.1094 -41.488
L42.9777 -41.2759
L42.8456 -41.0643
L42.713 -40.8531
L42.58 -40.6422
L42.4464 -40.4316
L42.3124 -40.2212
L42.0427 -40.0111
L41.907 -39.801
L41.7707 -39.5911
L41.6337 -39.3812
L41.496 -39.1713
L41.3576 -38.9613
L41.2184 -38.7513
L41.0785 -38.5411
L40.9377 -38.3307
L40.7961 -38.1201
L40.6535 -37.9091
L40.5101 -37.6979
L40.3657 -37.4862
L40.2203 -37.2742
L40.0738 -37.0616
L39.9263 -36.8486
L39.7777 -36.635
L39.6278 -36.4207
L39.4768 -36.2059
L39.3246 -35.9903
L39.171 -35.774
L39.0161 -35.5569
L38.8599 -35.3389
L38.7022 -35.1202
L38.5431 -34.9005
L38.3824 -34.6798
L38.2202 -34.4582
L38.0564 -34.2355
L37.8909 -34.0118
L37.7237 -33.787
L37.5548 -33.561
L37.3841 -33.3339
L37.2115 -33.1056
L37.037 -32.876
L36.8606 -32.6452
L36.6821 -32.4131
L36.5016 -32.1797
L36.319 -31.945
L36.1343 -31.709
L35.9473 -31.4716
L35.758 -31.2328
L35.5664 -30.9926
L35.3725 -30.7511
L35.1762 -30.5082
L34.9773 -30.2639
L34.776 -30.0183
L34.572 -29.7713
L34.3655 -29.523
L34.1563 -29.2734
L33.9443 -29.0225
L33.7296 -28.7704
L33.5121 -28.5172
L33.2918 -28.2629
L33.0685 -28.0075
L32.8423 -27.7513
L32.6131 -27.4941
L32.3809 -27.2363
L32.1457 -26.9778
L31.9074 -26.7189
L31.6659 -26.4596
L31.4213 -26.2002
L31.1736 -25.9408
L30.9226 -25.6817
L30.6684 -25.4231
L30.411 -25.1652
L30.1503 -24.9084
L29.8863 -24.653
L29.619 -24.3993
L29.3483 -24.1477
L29.0743 -23.8986
L28.7969 -23.6525
L28.5161 -23.41
L28.2318 -23.1716
L27.9441 -22.938
L27.6529 -22.7098
L27.3581 -22.4878
L27.0597 -22.2729
L26.7576 -22.066
L26.4517 -21.8681
L26.1421 -21.6803
L25.8286 -21.5038
L25.5112 -21.34
L25.1898 -21.1902
L24.8643 -21.0558
L24.5348 -20.9385
L24.2013 -20.8396
L23.8638 -20.7608
L23.5225 -20.7035
L23.1776 -20.6691
L22.8295 -20.6588
L22.4786 -20.6735
L22.1254 -20.7139
L21.7705 -20.7803
L21.4147 -20.8729
L21.0587 -20.9913
L20.7032 -21.1349
L20.3493 -21.3028
L19.9976 -21.4939
L19.6489 -21.707
L19.3041 -21.9407
L18.9639 -22.1936
L18.6289 -22.4643
L18.2998 -22.7513
L17.977 -23.0533
L17.6611 -23.3689
L17.3524 -23.6969
L17.0514 -24.0361
L16.7583 -24.3854
L16.4734 -24.7437
L16.1969 -25.11
L15.929 -25.4836
L15.6698 -25.8634
L15.4193 -26.2489
L15.1777 -26.6391
L14.945 -27.0335
L14.7211 -27.4314
L14.5061 -27.8323
L14.2999 -28.2356
L14.1024 -28.6409
L13.9136 -29.0477
L13.7333 -29.4555
L13.5616 -29.8641
L13.3981 -30.273
L13.2429 -30.6819
L13.0958 -31.0906
L12.9566 -31.4987
L12.8252 -31.906
L12.7014 -32.3124
L12.5852 -32.7174
L12.4763 -33.1211
L12.3746 -33.5232
L12.2799 -33.9236
L12.1921 -34.3222
L12.1111 -34.7188
L12.0366 -35.1133
L11.9685 -35.5056
L11.9067 -35.8957
L11.851 -36.2835
L11.8013 -36.669
L11.7574 -37.052
L11.7193 -37.4326
L11.6867 -37.8107
L11.6595 -38.1863
L11.6377 -38.5593
L11.6211 -38.9299
L11.6096 -39.2979
L11.6031 -39.6635
L11.6014 -40.0265
L11.6045 -40.387
L11.6123 -40.745
L11.6247 -41.1006
L11.6416 -41.4537
L11.6629 -41.8045
L11.6885 -42.1528
L11.7184 -42.4989
L11.7525 -42.8426
L11.7907 -43.1841
L11.833 -43.5233
L11.8793 -43.8603
L11.9295 -44.1952
L11.9837 -44.5281
L12.0418 -44.8588
L12.1037 -45.1876
L12.1693 -45.5143
L12.2388 -45.8392
L12.312 -46.1622
L12.3889 -46.4834
L12.4695 -46.8028
L12.5539 -47.1204
L12.6418 -47.4364
L12.7335 -47.7508
L12.8288 -48.0635
L12.9278 -48.3747
L13.0305 -48.6845
L13.1369 -48.9927
L13.2469 -49.2995
L13.3607 -49.605
L13.4782 -49.9091
L13.5995 -50.212
L13.7245 -50.5136
L13.8534 -50.8139
L13.9861 -51.1131
L14.1227 -51.4112
L14.2633 -51.7081
L14.4078 -52.004
L14.5564 -52.2988
L14.709 -52.5926
L14.8658 -52.8853
L15.0268 -53.1772
L15.1921 -53.468
L15.3617 -53.758
L15.5357 -54.047
L15.7142 -54.3351
L15.8973 -54.6223
L16.085 -54.9087
L16.2775 -55.1941
L16.4748 -55.4787
L16.677 -55.7624
L16.8843 -56.0452
L17.0967 -56.3272
L17.3144 -56.6082
L17.5374 -56.8883
L17.7659 -57.1675
L18.0001 -57.4456
L18.2399 -57.7228
L18.4856 -57.9989
L18.7372 -58.2739
L18.995 -58.5478
L19.3722 -58.8205
L19.7787 -59.1467
L20.1902 -59.4333
L20.6064 -59.7129
L21.0274 -59.9852
L21.4529 -60.2502
L21.8828 -60.5078
L22.317 -60.7579
L22.7554 -61.0005
L23.1979 -61.2355
L23.6442 -61.4628
L24.0943 -61.6824
L24.5481 -61.8941
L25.0053 -62.0979
L25.4658 -62.2938
L25.9296 -62.4817
L26.3964 -62.6615
L26.8662 -62.8332
L27.3388 -62.9967
L27.814 -63.152
L28.2916 -63.2991
L28.7717 -63.4378
L29.2539 -63.5681
L29.7382 -63.6901
L30.2244 -63.8036
L30.7123 -63.9086
L31.2019 -64.0052
L31.6929 -64.0932
L32.1852 -64.1727
L32.6787 -64.2435
L33.1733 -64.3058
L33.6686 -64.3595
L34.1647 -64.4045
L34.6614 -64.4408
L35.1584 -64.4685
L35.6557 -64.4876
L36.1531 -64.4979
L36.6505 -64.4996
L37.1476 -64.4926
L37.6445 -64.4769
L38.1408 -64.4525
L38.6364 -64.4195
L39.1313 -64.3778
L39.6252 -64.3275
L40.118 -64.2685
L40.6095 -64.2009
L41.0997 -64.1248
L41.5883 -64.04
L42.0752 -63.9468
L42.5602 -63.845
L43.0432 -63.7347
L43.5241 -63.616
L44.0027 -63.4889
L44.4789 -63.3534
L44.9525 -63.2095
L45.4233 -63.0574
L45.8913 -62.897
L46.3563 -62.7285
L46.8181 -62.5518
L47.2766 -62.367
L47.7317 -62.1742
L48.1832 -61.9734
L48.631 -61.7647
L49.075 -61.5481
L49.5149 -61.3238
z
" id="C0_1_8f2e6d2ed5"/>
     <path d="
M52.7153 -12.9435
L52.3733 -12.776
L52.0272 -12.6122
L51.677 -12.4521
L51.3226 -12.2959
L50.964 -12.1436
L50.6011 -11.9952
L50.2339 -11.8508
L49.8623 -11.7106
L49.4862 -11.5746
L49.1057 -11.4429
L48.7206 -11.3156
L48.331 -11.1927
L47.9368 -11.0745
L47.538 -10.961
L47.1345 -10.8523
L46.7264 -10.7486
L46.3136 -10.6499
L45.8961 -10.5564
L45.4739 -10.4682
L45.047 -10.3854
L44.6155 -10.3082
L44.1794 -10.2367
L43.7387 -10.1711
L43.2934 -10.1114
L42.8437 -10.0578
L42.3895 -10.0104
L41.9311 -9.96942
L41.4684 -9.93488
L41.0016 -9.90693
L40.5309 -9.88567
L40.0563 -9.8712
L39.5781 -9.86359
L39.0964 -9.86293
L38.6114 -9.86926
L38.1235 -9.88261
L37.6327 -9.90299
L37.1394 -9.93039
L36.6439 -9.96475
L36.1464 -10.006
L35.6475 -10.054
L35.1473 -10.1086
L34.6463 -10.1695
L34.1449 -10.2365
L33.6436 -10.3093
L33.1428 -10.3873
L32.6431 -10.4702
L32.145 -10.5573
L31.649 -10.648
L31.1557 -10.7415
L30.6657 -10.8368
L30.1797 -10.9331
L29.6982 -11.029
L29.222 -11.1236
L28.7517 -11.2154
L28.2879 -11.303
L27.8312 -11.385
L27.3823 -11.4599
L26.9416 -11.5263
L26.5096 -11.5828
L26.0866 -11.6283
L25.673 -11.6617
L25.2688 -11.6823
L24.8741 -11.6897
L24.4888 -11.6836
L24.1127 -11.6643
L23.7455 -11.6322
L23.3869 -11.5879
L23.0366 -11.5324
L22.694 -11.4666
L22.3588 -11.3917
L22.4011 -11.3088
L22.8403 -10.9536
L23.2835 -10.7201
L23.7306 -10.4943
L24.1814 -10.2763
L24.6358 -10.066
L25.0937 -9.86373
L25.5548 -9.66938
L26.0192 -9.48305
L26.4866 -9.30479
L26.957 -9.13467
L27.43 -8.97273
L27.9057 -8.81902
L28.3838 -8.6736
L28.8643 -8.53649
L29.3469 -8.40776
L29.8316 -8.28742
L30.3182 -8.17553
L30.8064 -8.07212
L31.2963 -7.97721
L31.7876 -7.89084
L32.2801 -7.81303
L32.7739 -7.7438
L33.2685 -7.68319
L33.7641 -7.63119
L34.2603 -7.58784
L34.757 -7.55315
L35.2541 -7.52712
L35.7514 -7.50976
L36.2489 -7.50108
L36.7462 -7.50109
L37.2433 -7.50977
L37.74 -7.52713
L38.2362 -7.55317
L38.7317 -7.58787
L39.2264 -7.63122
L39.7201 -7.68322
L40.2127 -7.74384
L40.704 -7.81307
L41.1939 -7.89088
L41.6821 -7.97726
L42.1687 -8.07217
L42.6533 -8.17559
L43.136 -8.28749
L43.6164 -8.40783
L44.0946 -8.53657
L44.5703 -8.67368
L45.0433 -8.81911
L45.5136 -8.97282
L45.981 -9.13477
L46.4454 -9.30489
L46.9066 -9.48315
L47.3645 -9.66949
L47.8189 -9.86385
L48.2697 -10.0662
L48.7168 -10.2764
L49.16 -10.4944
L49.5992 -10.7203
L50.0342 -10.9538
L50.465 -11.1949
L50.8913 -11.4436
L51.3132 -11.6998
L51.7303 -11.9634
L52.1427 -12.2343
z
" id="C0_2_935303017f"/>
    </defs>
    <g clip-path="url(#p1bffca34e9)">
     <use style="fill:#ff0000;stroke:#000000;stroke-width:2.0;" x="0.0" xlink:href="#C0_0_a811fe30f3" y="72.0"/>
    </g>
    <g clip-path="url(#p1bffca34e9)">
     <use style="fill:#ffffff;stroke:#000000;stroke-width:2.0;" x="0.0" xlink:href="#C0_1_8f2e6d2ed5" y="72.0"/>
    </g>
    <g clip-path="url(#p1bffca34e9)">
     <use style="fill:#ffffff;stroke:#000000;stroke-width:2.0;" x="0.0" xlink:href="#C0_2_935303017f" y="72.0"/>
    </g>
   </g>
  </g>
 </g>
 <defs>
  <clipPath id="p1bffca34e9">
   <rect height="72.0" width="72.0" x="0.0" y="0.0"/>
  </clipPath>
 </defs>
</svg>
