<?xml version="1.0" encoding="utf-8" standalone="no"?>
<!DOCTYPE svg PUBLIC "-//W3C//DTD SVG 1.1//EN"
  "http://www.w3.org/Graphics/SVG/1.1/DTD/svg11.dtd">
<!-- Created with matplotlib (http://matplotlib.org/) -->
<svg height="72pt" version="1.1" viewBox="0 0 72 72" width="72pt" xmlns="http://www.w3.org/2000/svg" xmlns:xlink="http://www.w3.org/1999/xlink">
 <defs>
  <style type="text/css">
*{stroke-linecap:butt;stroke-linejoin:round;}
  </style>
 </defs>
 <g id="figure_1">
  <g id="patch_1">
   <path d="
M0 72
L72 72
L72 0
L0 0
z
" style="fill:none;"/>
  </g>
  <g id="axes_1">
   <g id="PatchCollection_1">
    <defs>
     <path d="
M36 -7.5
C43.5583 -7.5 50.808 -10.5029 56.1525 -15.8475
C61.4971 -21.192 64.5 -28.4417 64.5 -36
C64.5 -43.5583 61.4971 -50.808 56.1525 -56.1525
C50.808 -61.4971 43.5583 -64.5 36 -64.5
C28.4417 -64.5 21.192 -61.4971 15.8475 -56.1525
C10.5029 -50.808 7.5 -43.5583 7.5 -36
C7.5 -28.4417 10.5029 -21.192 15.8475 -15.8475
C21.192 -10.5029 28.4417 -7.5 36 -7.5
z
" id="C0_0_a811fe30f3"/>
     <path d="
M34.7368 -25.9248
L34.9887 -25.9842
L35.2405 -26.045
L35.4922 -26.1071
L35.7439 -26.1705
L35.9956 -26.2354
L36.2473 -26.3016
L36.4992 -26.3693
L36.7513 -26.4384
L37.0036 -26.5089
L37.2562 -26.581
L37.5091 -26.6545
L37.7624 -26.7296
L38.0161 -26.8063
L38.2703 -26.8846
L38.5251 -26.9645
L38.7804 -27.046
L39.0364 -27.1293
L39.2931 -27.2143
L39.5505 -27.3011
L39.8087 -27.3896
L40.0677 -27.4801
L40.3276 -27.5724
L40.5883 -27.6667
L40.8501 -27.763
L41.1128 -27.8614
L41.3766 -27.9618
L41.6415 -28.0644
L41.9074 -28.1692
L42.1746 -28.2762
L42.4428 -28.3856
L42.7124 -28.4973
L42.9831 -28.6115
L43.2551 -28.7282
L43.5284 -28.8475
L43.803 -28.9694
L44.0789 -29.0941
L44.3562 -29.2215
L44.6348 -29.3518
L44.9148 -29.485
L45.1961 -29.6212
L45.4788 -29.7606
L45.7628 -29.9031
L46.0481 -30.0489
L46.3347 -30.198
L46.6226 -30.3506
L46.9117 -30.5067
L47.2021 -30.6665
L47.4935 -30.8299
L47.7861 -30.9972
L48.0796 -31.1684
L48.3741 -31.3436
L48.6694 -31.5229
L48.9655 -31.7064
L49.2621 -31.8941
L49.5593 -32.0863
L49.8568 -32.283
L50.1544 -32.4843
L50.452 -32.6904
L50.7495 -32.9012
L51.0465 -33.1169
L51.3428 -33.3377
L51.6383 -33.5636
L51.9324 -33.7947
L52.2251 -34.0311
L52.5159 -34.273
L52.8044 -34.5204
L53.0903 -34.7734
L53.373 -35.0321
L53.6522 -35.2966
L53.9271 -35.5671
L54.1974 -35.8436
L54.4623 -36.1261
L54.7212 -36.4149
L54.9733 -36.71
L55.2178 -37.0114
L55.4538 -37.3193
L55.6803 -37.6337
L55.8964 -37.9547
L56.1008 -38.2824
L56.2925 -38.6168
L56.4702 -38.958
L56.6325 -39.3058
L56.7782 -39.6603
L56.9058 -40.0214
L57.0141 -40.389
L57.1018 -40.7627
L57.1676 -41.1422
L57.2107 -41.5273
L57.2301 -41.9173
L57.2254 -42.3116
L57.1962 -42.7095
L57.1426 -43.1102
L57.0649 -43.5128
L56.9635 -43.9165
L56.8393 -44.3202
L56.6932 -44.7231
L56.5264 -45.1242
L56.3401 -45.5227
L56.1354 -45.9177
L55.9138 -46.3085
L55.6764 -46.6943
L55.4245 -47.0747
L55.1593 -47.4489
L54.8819 -47.8165
L54.5935 -48.1772
L54.295 -48.5305
L53.9873 -48.8761
L53.6715 -49.2138
L53.3482 -49.5435
L53.0184 -49.8648
L52.6826 -50.1778
L52.3417 -50.4823
L51.9962 -50.7783
L51.6467 -51.0658
L51.2937 -51.3448
L50.9378 -51.6152
L50.5794 -51.8772
L50.2189 -52.1309
L49.8567 -52.3762
L49.4933 -52.6133
L49.1289 -52.8424
L48.7639 -53.0634
L48.3985 -53.2767
L48.033 -53.4822
L47.6677 -53.6801
L47.3027 -53.8706
L46.9383 -54.0539
L46.5746 -54.23
L46.2119 -54.3992
L45.8502 -54.5615
L45.4897 -54.7172
L45.1304 -54.8664
L44.7726 -55.0093
L44.4163 -55.1459
L44.0616 -55.2765
L43.7085 -55.4012
L43.3571 -55.5202
L43.0075 -55.6336
L42.6597 -55.7414
L42.3136 -55.844
L41.9695 -55.9414
L41.6272 -56.0337
L41.2868 -56.1211
L40.9482 -56.2036
L40.6116 -56.2815
L40.2768 -56.3548
L39.9439 -56.4235
L39.6128 -56.488
L39.2835 -56.5481
L38.9561 -56.6041
L38.6304 -56.6561
L38.3065 -56.704
L37.9843 -56.748
L37.6638 -56.7882
L37.345 -56.8247
L37.0277 -56.8575
L36.712 -56.8867
L36.3979 -56.9124
L36.0852 -56.9346
L35.7739 -56.9533
L35.4641 -56.9688
L35.1556 -56.9809
L34.8483 -56.9897
L34.5424 -56.9954
L34.2376 -56.9978
L33.9339 -56.9972
L33.6314 -56.9934
L33.3299 -56.9865
L33.0294 -56.9766
L32.7298 -56.9636
L32.4311 -56.9477
L32.1333 -56.9287
L31.8362 -56.9068
L31.5398 -56.8819
L31.2442 -56.854
L30.9491 -56.8232
L30.6547 -56.7894
L30.3607 -56.7527
L30.0672 -56.713
L29.7742 -56.6703
L29.4815 -56.6246
L29.1891 -56.576
L28.897 -56.5243
L28.6052 -56.4695
L28.3135 -56.4117
L28.0219 -56.3508
L27.7304 -56.2868
L27.439 -56.2196
L27.1475 -56.1493
L26.856 -56.0756
L26.5644 -55.9987
L26.2727 -55.9185
L25.9807 -55.8349
L25.6886 -55.7478
L25.3962 -55.6572
L25.1035 -55.5631
L24.8105 -55.4654
L24.5171 -55.3639
L24.2234 -55.2587
L23.9292 -55.1497
L23.6346 -55.0367
L23.3395 -54.9197
L23.0439 -54.7987
L22.7478 -54.6734
L22.4512 -54.5439
L22.1541 -54.4099
L21.8564 -54.2715
L21.5582 -54.1285
L21.2594 -53.9808
L20.9601 -53.8282
L20.6602 -53.6707
L20.3599 -53.5081
L20.059 -53.3403
L19.7576 -53.1672
L19.4557 -52.9886
L19.1535 -52.8044
L18.8508 -52.6145
L18.5478 -52.4186
L18.2446 -52.2167
L17.9412 -52.0086
L17.6376 -51.7941
L17.334 -51.573
L17.0304 -51.3453
L16.727 -51.1107
L16.4238 -50.8691
L16.121 -50.6204
L15.8188 -50.3642
L15.5173 -50.1005
L15.2166 -49.8291
L14.917 -49.5499
L14.6186 -49.2626
L14.3216 -48.9671
L14.0264 -48.6633
L13.7331 -48.351
L13.442 -48.0301
L13.1533 -47.7004
L12.8675 -47.3618
L12.5849 -47.0142
L12.3057 -46.6575
L12.0304 -46.2916
L11.7593 -45.9165
L11.4929 -45.5321
L11.2317 -45.1383
L10.9761 -44.7353
L10.7266 -44.3231
L10.4838 -43.9017
L10.2481 -43.4712
L10.0203 -43.0319
L9.80088 -42.5838
L9.5905 -42.1274
L9.38986 -41.6629
L9.19964 -41.1907
L9.02059 -40.7113
L8.85346 -40.2252
L8.69904 -39.7331
L8.55813 -39.2356
L8.43157 -38.7337
L8.3202 -38.2282
L8.22487 -37.7202
L8.14644 -37.2109
L8.08575 -36.7015
L8.0436 -36.1934
L8.02078 -35.6882
L8.01797 -35.1873
L8.03577 -34.6924
L8.07467 -34.2052
L8.13497 -33.7272
L8.21683 -33.26
L8.32018 -32.8051
L8.44475 -32.3637
L8.59005 -31.9369
L8.75538 -31.5255
L8.93987 -31.1303
L9.14248 -30.7514
L9.36207 -30.3892
L9.59742 -30.0434
L9.84727 -29.714
L10.1104 -29.4006
L10.3854 -29.1027
L10.6713 -28.8199
L10.9668 -28.5515
L11.271 -28.297
L11.5826 -28.0557
L11.901 -27.8272
L12.2251 -27.6109
L12.5542 -27.4061
L12.8876 -27.2125
L13.2246 -27.0294
L13.5646 -26.8563
L13.9071 -26.6929
L14.2515 -26.5387
L14.5974 -26.3933
L14.9443 -26.2562
L15.292 -26.1272
L15.6399 -26.0058
L15.9879 -25.8918
L16.3356 -25.7848
L16.6828 -25.6844
L17.0292 -25.5905
L17.3746 -25.5027
L17.7189 -25.4208
L18.0618 -25.3445
L18.4032 -25.2736
L18.743 -25.2079
L19.081 -25.1471
L19.4172 -25.091
L19.7514 -25.0395
L20.0836 -24.9923
L20.4137 -24.9493
L20.7417 -24.9102
L21.0674 -24.8751
L21.391 -24.8435
L21.7122 -24.8155
L22.0312 -24.7909
L22.3479 -24.7696
L22.6623 -24.7514
L22.9744 -24.7361
L23.2843 -24.7238
L23.5918 -24.7142
L23.8971 -24.7073
L24.2001 -24.703
L24.5009 -24.7012
L24.7995 -24.7017
L25.096 -24.7046
L25.3903 -24.7096
L25.6826 -24.7169
L25.9728 -24.7262
L26.261 -24.7375
L26.5472 -24.7508
L26.8316 -24.766
L27.114 -24.783
L27.3947 -24.8018
L27.6736 -24.8223
L27.9507 -24.8445
L28.2262 -24.8683
L28.5001 -24.8938
L28.7725 -24.9208
L29.0433 -24.9494
L29.3127 -24.9794
L29.5808 -25.011
L29.8474 -25.0439
L30.1128 -25.0783
L30.377 -25.1141
L30.6401 -25.1513
L30.902 -25.1898
L31.1628 -25.2297
L31.4227 -25.2709
L31.6817 -25.3134
L31.9397 -25.3573
L32.197 -25.4024
L32.4535 -25.4488
L32.7092 -25.4966
L32.9643 -25.5456
L33.2189 -25.5959
L33.4729 -25.6475
L33.7264 -25.7003
L33.9795 -25.7545
L34.2322 -25.81
z
" id="C0_1_4a8684620c"/>
    </defs>
    <g clip-path="url(#p1bffca34e9)">
     <use style="fill:#ffffff;stroke:#000000;stroke-width:2.0;" x="0.0" xlink:href="#C0_0_a811fe30f3" y="72.0"/>
    </g>
    <g clip-path="url(#p1bffca34e9)">
     <use style="fill:#ff0000;stroke:#000000;stroke-width:2.0;" x="0.0" xlink:href="#C0_1_4a8684620c" y="72.0"/>
    </g>
   </g>
  </g>
 </g>
 <defs>
  <clipPath id="p1bffca34e9">
   <rect height="72.0" width="72.0" x="0.0" y="0.0"/>
  </clipPath>
 </defs>
</svg>
