<?xml version="1.0" encoding="utf-8" standalone="no"?>
<!DOCTYPE svg PUBLIC "-//W3C//DTD SVG 1.1//EN"
  "http://www.w3.org/Graphics/SVG/1.1/DTD/svg11.dtd">
<!-- Created with matplotlib (http://matplotlib.org/) -->
<svg height="72pt" version="1.1" viewBox="0 0 72 72" width="72pt" xmlns="http://www.w3.org/2000/svg" xmlns:xlink="http://www.w3.org/1999/xlink">
 <defs>
  <style type="text/css">
*{stroke-linecap:butt;stroke-linejoin:round;}
  </style>
 </defs>
 <g id="figure_1">
  <g id="patch_1">
   <path d="
M0 72
L72 72
L72 0
L0 0
z
" style="fill:none;"/>
  </g>
  <g id="axes_1">
   <g id="PatchCollection_1">
    <defs>
     <path d="
M36 -7.5
C43.5583 -7.5 50.808 -10.5029 56.1525 -15.8475
C61.4971 -21.192 64.5 -28.4417 64.5 -36
C64.5 -43.5583 61.4971 -50.808 56.1525 -56.1525
C50.808 -61.4971 43.5583 -64.5 36 -64.5
C28.4417 -64.5 21.192 -61.4971 15.8475 -56.1525
C10.5029 -50.808 7.5 -43.5583 7.5 -36
C7.5 -28.4417 10.5029 -21.192 15.8475 -15.8475
C21.192 -10.5029 28.4417 -7.5 36 -7.5
z
" id="C0_0_a811fe30f3"/>
     <path d="
M52.2969 -59.2582
L52.1894 -58.9998
L52.0913 -58.729
L52.001 -58.4476
L51.917 -58.157
L51.8381 -57.8585
L51.7632 -57.5533
L51.6913 -57.2425
L51.6216 -56.927
L51.5536 -56.6077
L51.4866 -56.2853
L51.4202 -55.9604
L51.354 -55.6338
L51.2876 -55.3058
L51.2209 -54.977
L51.1536 -54.6477
L51.0856 -54.3184
L51.0166 -53.9894
L50.9468 -53.6609
L50.8759 -53.3333
L50.8039 -53.0068
L50.7308 -52.6816
L50.6565 -52.3578
L50.5812 -52.0357
L50.5047 -51.7154
L50.4271 -51.3969
L50.3484 -51.0804
L50.2687 -50.7661
L50.1879 -50.4539
L50.1061 -50.1439
L50.0234 -49.8362
L49.9397 -49.5309
L49.8551 -49.2279
L49.7697 -48.9273
L49.6834 -48.629
L49.5964 -48.3332
L49.5086 -48.0398
L49.42 -47.7488
L49.3308 -47.4602
L49.2409 -47.174
L49.1504 -46.8901
L49.0593 -46.6085
L48.9675 -46.3292
L48.8753 -46.0522
L48.7825 -45.7774
L48.6891 -45.5048
L48.5953 -45.2343
L48.501 -44.966
L48.4062 -44.6997
L48.3109 -44.4354
L48.2152 -44.1731
L48.119 -43.9126
L48.0225 -43.6541
L47.9254 -43.3973
L47.828 -43.1423
L47.7302 -42.889
L47.6319 -42.6374
L47.5332 -42.3873
L47.4341 -42.1388
L47.3346 -41.8918
L47.2346 -41.6462
L47.1342 -41.4019
L47.0334 -41.159
L46.9322 -40.9173
L46.8304 -40.6768
L46.7283 -40.4374
L46.6256 -40.1992
L46.5225 -39.9619
L46.4188 -39.7256
L46.3147 -39.4903
L46.21 -39.2558
L46.1048 -39.0221
L45.999 -38.7891
L45.8927 -38.5568
L45.7858 -38.3252
L45.6782 -38.0941
L45.57 -37.8636
L45.4612 -37.6335
L45.3517 -37.4038
L45.2415 -37.1745
L45.0189 -36.9455
L44.9065 -36.7167
L44.7932 -36.4881
L44.6792 -36.2597
L44.5643 -36.0314
L44.4485 -35.803
L44.3318 -35.5747
L44.2142 -35.3463
L44.0956 -35.1177
L43.9761 -34.889
L43.8554 -34.6601
L43.7338 -34.4308
L43.611 -34.2012
L43.4871 -33.9712
L43.362 -33.7408
L43.2358 -33.5099
L43.1083 -33.2785
L42.9795 -33.0464
L42.8494 -32.8137
L42.718 -32.5803
L42.5851 -32.3462
L42.4508 -32.1112
L42.3151 -31.8754
L42.1778 -31.6388
L42.039 -31.4011
L41.8986 -31.1625
L41.7565 -30.9229
L41.6127 -30.6822
L41.4672 -30.4403
L41.3199 -30.1973
L41.1708 -29.953
L41.0198 -29.7075
L40.8669 -29.4607
L40.712 -29.2126
L40.5552 -28.9631
L40.3962 -28.7122
L40.2352 -28.4598
L40.0721 -28.206
L39.9067 -27.9506
L39.7391 -27.6937
L39.5693 -27.4353
L39.3971 -27.1752
L39.2226 -26.9136
L39.0457 -26.6503
L38.8663 -26.3853
L38.6846 -26.1187
L38.5003 -25.8504
L38.3135 -25.5805
L38.1243 -25.3089
L37.9324 -25.0356
L37.7381 -24.7606
L37.5411 -24.484
L37.3417 -24.2058
L37.1396 -23.9259
L36.9351 -23.6445
L36.7281 -23.3616
L36.5187 -23.0771
L36.3068 -22.7912
L36.0927 -22.5039
L35.8763 -22.2153
L35.6577 -21.9253
L35.4372 -21.6342
L35.2148 -21.342
L34.9908 -21.0487
L34.7652 -20.7545
L34.5384 -20.4594
L34.3106 -20.1636
L34.0822 -19.8672
L33.8535 -19.5702
L33.6248 -19.2729
L33.3968 -18.9752
L33.1699 -18.6774
L32.9448 -18.3796
L32.7221 -18.0818
L32.5027 -17.7841
L32.2876 -17.4868
L32.0777 -17.1899
L31.8743 -16.8934
L31.6788 -16.5975
L31.4926 -16.3021
L31.3176 -16.0074
L31.1556 -15.7133
L31.0088 -15.4199
L30.8793 -15.1271
L30.7697 -14.8349
L30.6823 -14.5432
L30.6198 -14.2521
L30.5845 -13.9615
L30.5786 -13.6714
L30.6038 -13.382
L30.6616 -13.0934
L30.7528 -12.8059
L30.8775 -12.5198
L31.0353 -12.2358
L31.2254 -11.9544
L31.4462 -11.6763
L31.6961 -11.4022
L31.9732 -11.1328
L32.2753 -10.8689
L32.6003 -10.6113
L32.9462 -10.3606
L33.311 -10.1175
L33.6928 -9.88251
L34.0898 -9.65626
L34.5004 -9.43916
L34.9231 -9.23163
L35.3565 -9.034
L35.7993 -8.84658
L36.2505 -8.66959
L36.7088 -8.50324
L37.1733 -8.34768
L37.6432 -8.20302
L38.1175 -8.06933
L38.5956 -7.94664
L39.0767 -7.83499
L39.578 -7.73434
L40.0709 -7.72549
L40.5626 -7.79224
L41.0529 -7.86759
L41.5416 -7.9515
L42.0287 -8.04396
L42.5139 -8.14493
L42.9971 -8.25439
L43.4783 -8.3723
L43.9571 -8.49862
L44.4335 -8.63332
L44.9073 -8.77636
L45.3784 -8.92769
L45.8467 -9.08727
L46.312 -9.25505
L46.7741 -9.43097
L47.2329 -9.61498
L47.6883 -9.80704
L48.1402 -10.0071
L48.5884 -10.215
L49.0327 -10.4308
L49.473 -10.6544
L49.9093 -10.8857
L50.3413 -11.1247
L50.769 -11.3712
L51.1921 -11.6253
L51.6106 -11.8867
L52.0244 -12.1555
L52.4333 -12.4316
L52.8372 -12.7149
L53.2359 -13.0052
L53.6294 -13.3026
L54.0175 -13.6068
L54.4002 -13.9179
L54.7772 -14.2357
L55.1485 -14.5602
L55.514 -14.8911
L55.8736 -15.2286
L56.227 -15.5723
L56.5744 -15.9222
L56.9154 -16.2783
L57.2501 -16.6404
L57.5783 -17.0084
L57.9 -17.3821
L58.2149 -17.7615
L58.5231 -18.1465
L58.8245 -18.5369
L59.1189 -18.9327
L59.4062 -19.3336
L59.6864 -19.7396
L59.9594 -20.1506
L60.2251 -20.5664
L60.4835 -20.9869
L60.7343 -21.412
L60.9777 -21.8415
L61.2134 -22.2753
L61.4414 -22.7134
L61.6617 -23.1554
L61.8742 -23.6014
L62.0788 -24.0511
L62.2755 -24.5045
L62.4641 -24.9614
L62.6447 -25.4217
L62.8172 -25.8851
L62.9815 -26.3517
L63.1375 -26.8212
L63.2854 -27.2935
L63.4249 -27.7684
L63.556 -28.2459
L63.6788 -28.7257
L63.7931 -29.2077
L63.899 -29.6918
L63.9963 -30.1778
L64.0852 -30.6656
L64.1654 -31.155
L64.2371 -31.6459
L64.3002 -32.1381
L64.3547 -32.6315
L64.4006 -33.1259
L64.4377 -33.6212
L64.4663 -34.1173
L64.4861 -34.6138
L64.4973 -35.1109
L64.4998 -35.6081
L64.4936 -36.1056
L64.4788 -36.6029
L64.4552 -37.1001
L64.423 -37.597
L64.3822 -38.0933
L64.3326 -38.5891
L64.2745 -39.084
L64.2078 -39.578
L64.1324 -40.0709
L64.0485 -40.5626
L63.956 -41.0529
L63.8551 -41.5416
L63.7456 -42.0287
L63.6277 -42.5139
L63.5014 -42.9971
L63.3667 -43.4783
L63.2236 -43.9571
L63.0723 -44.4335
L62.9127 -44.9073
L62.745 -45.3784
L62.569 -45.8467
L62.385 -46.312
L62.193 -46.7741
L61.9929 -47.2329
L61.785 -47.6883
L61.5692 -48.1402
L61.3456 -48.5884
L61.1143 -49.0327
L60.8753 -49.473
L60.6288 -49.9093
L60.3747 -50.3413
L60.1133 -50.769
L59.8445 -51.1921
L59.5684 -51.6106
L59.2851 -52.0244
L58.9948 -52.4333
L58.6974 -52.8372
L58.3932 -53.2359
L58.0821 -53.6294
L57.7643 -54.0175
L57.4398 -54.4002
L57.1089 -54.7772
L56.7714 -55.1485
L56.4277 -55.514
L56.0778 -55.8736
L55.7217 -56.227
L55.3596 -56.5744
L54.9916 -56.9154
L54.6179 -57.2501
L54.2385 -57.5783
L53.8535 -57.9
L53.4631 -58.2149
L53.0673 -58.5231
z
" id="C0_1_b855ec827d"/>
     <path d="
M32.4592 -64.2004
L32.0169 -63.9959
L31.5819 -63.7862
L31.1544 -63.5716
L30.7347 -63.3524
L30.3228 -63.1289
L29.9188 -62.9013
L29.5228 -62.6698
L29.1348 -62.4348
L28.7548 -62.1965
L28.3828 -61.9552
L28.0186 -61.711
L27.6623 -61.4643
L27.3138 -61.2152
L26.9729 -60.9638
L26.6396 -60.7105
L26.3138 -60.4554
L25.9953 -60.1987
L25.6841 -59.9405
L25.3799 -59.6809
L25.0827 -59.4202
L24.7923 -59.1584
L24.5086 -58.8956
L24.2314 -58.632
L23.9606 -58.3677
L23.6961 -58.1028
L23.4377 -57.8373
L23.1852 -57.5713
L22.9386 -57.3049
L22.6976 -57.0381
L22.4622 -56.771
L22.2323 -56.5037
L22.0076 -56.2362
L21.7881 -55.9685
L21.5736 -55.7006
L21.364 -55.4327
L21.1592 -55.1646
L20.959 -54.8964
L20.7634 -54.6282
L20.5723 -54.3599
L20.3855 -54.0915
L20.2029 -53.823
L20.0244 -53.5544
L19.85 -53.2858
L19.6795 -53.0171
L19.5128 -52.7482
L19.3499 -52.4792
L19.1906 -52.2101
L19.0349 -51.9408
L18.8828 -51.6713
L18.734 -51.4015
L18.5887 -51.1315
L18.4466 -50.8612
L18.3077 -50.5906
L18.172 -50.3196
L18.0394 -50.0482
L17.9098 -49.7764
L17.7832 -49.5041
L17.6595 -49.2313
L17.5387 -48.958
L17.4208 -48.684
L17.3057 -48.4094
L17.1933 -48.134
L17.0837 -47.858
L16.9767 -47.5811
L16.8724 -47.3034
L16.7707 -47.0247
L16.6717 -46.7452
L16.5752 -46.4646
L16.4813 -46.1829
L16.3899 -45.9001
L16.301 -45.6162
L16.2147 -45.331
L16.1309 -45.0445
L16.0496 -44.7567
L15.9707 -44.4674
L15.8944 -44.1767
L15.8206 -43.8844
L15.7493 -43.5906
L15.6805 -43.295
L15.6143 -42.9978
L15.5506 -42.6987
L15.4894 -42.3978
L15.4308 -42.095
L15.3749 -41.7902
L15.3216 -41.4834
L15.2709 -41.1744
L15.2229 -40.8632
L15.1777 -40.5498
L15.1352 -40.2341
L15.0956 -39.916
L15.0588 -39.5954
L15.025 -39.2723
L14.9941 -38.9467
L14.9662 -38.6184
L14.9415 -38.2874
L14.9199 -37.9536
L14.9015 -37.617
L14.8864 -37.2776
L14.8747 -36.9352
L14.8665 -36.5898
L14.8618 -36.2413
L14.8607 -35.8898
L14.8633 -35.5351
L14.8698 -35.1772
L14.8801 -34.8161
L14.8945 -34.4517
L14.913 -34.084
L14.9358 -33.713
L14.9628 -33.3387
L14.9944 -32.961
L15.0305 -32.5799
L15.0712 -32.1955
L15.1168 -31.8077
L15.1674 -31.4165
L15.2229 -31.0221
L15.2837 -30.6243
L15.3497 -30.2233
L15.4211 -29.8191
L15.4981 -29.4118
L15.5807 -29.0014
L15.669 -28.5881
L15.7631 -28.172
L15.8631 -27.7531
L15.9692 -27.3316
L16.0812 -26.9077
L16.1994 -26.4815
L16.3236 -26.0533
L16.454 -25.6232
L16.5905 -25.1915
L16.733 -24.7585
L16.8815 -24.3243
L17.0358 -23.8894
L17.1957 -23.454
L17.361 -23.0185
L17.5314 -22.5832
L17.7066 -22.1486
L17.886 -21.7152
L18.0692 -21.2833
L18.2554 -20.8535
L18.4439 -20.4263
L18.6338 -20.0022
L18.8239 -19.5819
L19.0132 -19.166
L19.2 -18.7551
L19.3828 -18.35
L19.5597 -17.9513
L19.7288 -17.5599
L19.8877 -17.1764
L20.0341 -16.8017
L20.1654 -16.4366
L20.2793 -16.0817
L20.3732 -15.7378
L20.445 -15.4055
L20.4927 -15.0852
L20.5149 -14.7775
L20.5107 -14.4825
L20.4797 -14.2004
L20.4222 -13.9313
L20.339 -13.6749
L20.2313 -13.4312
L20.1005 -13.1999
L19.9485 -12.9807
L19.2752 -12.7733
L18.875 -12.9234
L18.48 -13.2188
L18.0903 -13.5211
L17.7062 -13.8303
L17.3275 -14.1463
L16.9546 -14.4689
L16.5875 -14.798
L16.2263 -15.1336
L15.8711 -15.4756
L15.522 -15.8238
L15.1792 -16.1782
L14.8427 -16.5386
L14.5127 -16.905
L14.1892 -17.2771
L13.8724 -17.655
L13.5623 -18.0384
L13.259 -18.4273
L12.9627 -18.8216
L12.6733 -19.2211
L12.3911 -19.6257
L12.1161 -20.0353
L11.8483 -20.4498
L11.588 -20.869
L11.335 -21.2928
L11.0896 -21.7211
L10.8517 -22.1537
L10.6215 -22.5906
L10.399 -23.0315
L10.1844 -23.4764
L9.97756 -23.9251
L9.77868 -24.3775
L9.58779 -24.8334
L9.40495 -25.2927
L9.23021 -25.7553
L9.06362 -26.221
L8.90523 -26.6897
L8.7551 -27.1612
L8.61327 -27.6355
L8.47978 -28.1122
L8.35467 -28.5914
L8.23799 -29.0728
L8.12976 -29.5563
L8.03002 -30.0418
L7.9388 -30.5292
L7.85613 -31.0181
L7.78203 -31.5086
L7.71653 -32.0005
L7.65964 -32.4936
L7.61138 -32.9877
L7.57177 -33.4828
L7.54083 -33.9786
L7.51855 -34.4751
L7.50494 -34.972
L7.50002 -35.4692
L7.50378 -35.9666
L7.51622 -36.464
L7.53733 -36.9612
L7.56711 -37.4582
L7.60556 -37.9547
L7.65265 -38.4507
L7.70838 -38.9458
L7.77273 -39.4401
L7.84568 -39.9333
L7.9272 -40.4254
L8.01727 -40.9161
L8.11587 -41.4053
L8.22296 -41.8928
L8.33851 -42.3785
L8.46249 -42.8624
L8.59485 -43.3441
L8.73557 -43.8235
L8.88458 -44.3006
L9.04186 -44.7752
L9.20735 -45.2471
L9.381 -45.7162
L9.56276 -46.1823
L9.75258 -46.6453
L9.95038 -47.1051
L10.1561 -47.5615
L10.3697 -48.0143
L10.5912 -48.4635
L10.8203 -48.909
L11.0572 -49.3504
L11.3016 -49.7878
L11.5535 -50.2211
L11.8129 -50.6499
L12.0797 -51.0744
L12.3538 -51.4942
L12.635 -51.9093
L12.9234 -52.3196
L13.2188 -52.7248
L13.5211 -53.125
L13.8303 -53.52
L14.1463 -53.9097
L14.4689 -54.2938
L14.798 -54.6725
L15.1336 -55.0454
L15.4756 -55.4125
L15.8238 -55.7737
L16.1782 -56.1289
L16.5386 -56.478
L16.905 -56.8208
L17.2771 -57.1573
L17.655 -57.4873
L18.0384 -57.8108
L18.4273 -58.1276
L18.8216 -58.4377
L19.2211 -58.741
L19.6257 -59.0373
L20.0353 -59.3267
L20.4498 -59.6089
L20.869 -59.8839
L21.2928 -60.1517
L21.7211 -60.412
L22.1537 -60.665
L22.5906 -60.9104
L23.0315 -61.1483
L23.4764 -61.3785
L23.9251 -61.601
L24.3775 -61.8156
L24.8334 -62.0224
L25.2927 -62.2213
L25.7553 -62.4122
L26.221 -62.5951
L26.6897 -62.7698
L27.1612 -62.9364
L27.6355 -63.0948
L28.1122 -63.2449
L28.5914 -63.3867
L29.0728 -63.5202
L29.5563 -63.6453
L30.0418 -63.762
L30.5292 -63.8702
L31.0181 -63.97
L31.5086 -64.0612
z
" id="C0_2_4733972071"/>
    </defs>
    <g clip-path="url(#p1bffca34e9)">
     <use style="fill:#ff0000;stroke:#000000;stroke-width:2.0;" x="0.0" xlink:href="#C0_0_a811fe30f3" y="72.0"/>
    </g>
    <g clip-path="url(#p1bffca34e9)">
     <use style="fill:#ffffff;stroke:#000000;stroke-width:2.0;" x="0.0" xlink:href="#C0_1_b855ec827d" y="72.0"/>
    </g>
    <g clip-path="url(#p1bffca34e9)">
     <use style="fill:#ffffff;stroke:#000000;stroke-width:2.0;" x="0.0" xlink:href="#C0_2_4733972071" y="72.0"/>
    </g>
   </g>
  </g>
 </g>
 <defs>
  <clipPath id="p1bffca34e9">
   <rect height="72.0" width="72.0" x="0.0" y="0.0"/>
  </clipPath>
 </defs>
</svg>
