<?xml version="1.0" encoding="utf-8" standalone="no"?>
<!DOCTYPE svg PUBLIC "-//W3C//DTD SVG 1.1//EN"
  "http://www.w3.org/Graphics/SVG/1.1/DTD/svg11.dtd">
<!-- Created with matplotlib (http://matplotlib.org/) -->
<svg height="72pt" version="1.1" viewBox="0 0 72 72" width="72pt" xmlns="http://www.w3.org/2000/svg" xmlns:xlink="http://www.w3.org/1999/xlink">
 <defs>
  <style type="text/css">
*{stroke-linecap:butt;stroke-linejoin:round;}
  </style>
 </defs>
 <g id="figure_1">
  <g id="patch_1">
   <path d="
M0 72
L72 72
L72 0
L0 0
z
" style="fill:none;"/>
  </g>
  <g id="axes_1">
   <g id="PatchCollection_1">
    <defs>
     <path d="
M36 -7.5
C43.5583 -7.5 50.808 -10.5029 56.1525 -15.8475
C61.4971 -21.192 64.5 -28.4417 64.5 -36
C64.5 -43.5583 61.4971 -50.808 56.1525 -56.1525
C50.808 -61.4971 43.5583 -64.5 36 -64.5
C28.4417 -64.5 21.192 -61.4971 15.8475 -56.1525
C10.5029 -50.808 7.5 -43.5583 7.5 -36
C7.5 -28.4417 10.5029 -21.192 15.8475 -15.8475
C21.192 -10.5029 28.4417 -7.5 36 -7.5
z
" id="C0_0_a811fe30f3"/>
     <path d="
M54.8991 -14.8746
L54.5131 -14.7671
L54.1283 -14.6732
L53.7453 -14.5924
L53.3643 -14.5241
L52.9857 -14.4679
L52.6096 -14.423
L52.2364 -14.3891
L51.8662 -14.3655
L51.4993 -14.3519
L51.1357 -14.3476
L50.7756 -14.3523
L50.4191 -14.3655
L50.0664 -14.3868
L49.7174 -14.4157
L49.3723 -14.4519
L49.0311 -14.495
L48.6938 -14.5446
L48.3605 -14.6004
L48.0311 -14.662
L47.7057 -14.7292
L47.3842 -14.8016
L47.0667 -14.879
L46.7532 -14.9611
L46.4435 -15.0477
L46.1377 -15.1385
L45.8357 -15.2333
L45.5376 -15.3319
L45.2431 -15.434
L44.9524 -15.5396
L44.6653 -15.6484
L44.3818 -15.7602
L44.1019 -15.875
L43.8254 -15.9925
L43.5523 -16.1126
L43.2826 -16.2352
L43.0161 -16.3602
L42.7529 -16.4874
L42.4928 -16.6168
L42.2358 -16.7483
L41.9819 -16.8816
L41.7309 -17.0169
L41.4828 -17.154
L41.2375 -17.2928
L40.995 -17.4332
L40.7552 -17.5753
L40.518 -17.7189
L40.2834 -17.864
L40.0512 -18.0105
L39.8215 -18.1585
L39.5942 -18.3078
L39.3692 -18.4584
L39.1464 -18.6103
L38.9258 -18.7636
L38.7073 -18.918
L38.4909 -19.0737
L38.2765 -19.2306
L38.0641 -19.3888
L37.8535 -19.5481
L37.6448 -19.7086
L37.4379 -19.8702
L37.2327 -20.0331
L37.0292 -20.1971
L36.8273 -20.3623
L36.6269 -20.5287
L36.4282 -20.6963
L36.2309 -20.8651
L36.035 -21.035
L35.8405 -21.2062
L35.6473 -21.3787
L35.4555 -21.5524
L35.2649 -21.7274
L35.0755 -21.9036
L34.8873 -22.0812
L34.5143 -22.2601
L34.3293 -22.4404
L34.1454 -22.622
L33.9625 -22.8051
L33.7806 -22.9896
L33.5995 -23.1756
L33.4194 -23.3631
L33.2401 -23.5521
L33.0617 -23.7428
L32.884 -23.935
L32.7072 -24.1289
L32.531 -24.3244
L32.3557 -24.5217
L32.181 -24.7207
L32.007 -24.9216
L31.8337 -25.1243
L31.661 -25.3289
L31.489 -25.5355
L31.3176 -25.744
L31.1468 -25.9546
L30.9767 -26.1672
L30.8071 -26.382
L30.6381 -26.599
L30.4697 -26.8182
L30.3018 -27.0396
L30.1346 -27.2634
L29.9679 -27.4896
L29.8018 -27.7183
L29.6364 -27.9494
L29.4715 -28.1831
L29.3073 -28.4194
L29.1437 -28.6583
L28.9808 -28.8999
L28.8186 -29.1443
L28.6571 -29.3915
L28.4963 -29.6416
L28.3363 -29.8946
L28.1772 -30.1506
L28.0189 -30.4096
L27.8616 -30.6717
L27.7052 -30.9368
L27.5498 -31.2052
L27.3956 -31.4768
L27.2425 -31.7516
L27.0907 -32.0297
L26.9402 -32.3112
L26.7912 -32.596
L26.6436 -32.8843
L26.4978 -33.1759
L26.3536 -33.471
L26.2113 -33.7696
L26.0711 -34.0717
L25.933 -34.3772
L25.7972 -34.6863
L25.6638 -34.9988
L25.5331 -35.3147
L25.4052 -35.6342
L25.2803 -35.957
L25.1587 -36.2832
L25.0405 -36.6128
L24.9261 -36.9456
L24.8155 -37.2816
L24.7092 -37.6207
L24.6075 -37.9628
L24.5105 -38.3078
L24.4186 -38.6556
L24.3323 -39.006
L24.2517 -39.3588
L24.1774 -39.714
L24.1096 -40.0712
L24.0489 -40.4302
L23.9957 -40.7909
L23.9503 -41.1529
L23.9133 -41.516
L23.8852 -41.8798
L23.8665 -42.2441
L23.8576 -42.6084
L23.8592 -42.9724
L23.8718 -43.3357
L23.8958 -43.6978
L23.9318 -44.0583
L23.9804 -44.4168
L24.042 -44.7726
L24.1171 -45.1254
L24.206 -45.4746
L24.3093 -45.8196
L24.4271 -46.16
L24.5597 -46.4953
L24.7073 -46.8249
L24.8699 -47.1483
L25.0475 -47.465
L25.2401 -47.7746
L25.4473 -48.0767
L25.6688 -48.371
L25.9044 -48.657
L26.1534 -48.9344
L26.4154 -49.2031
L26.6897 -49.4629
L26.9757 -49.7134
L27.2727 -49.9547
L27.58 -50.1867
L27.8968 -50.4093
L28.2223 -50.6224
L28.556 -50.8262
L28.8969 -51.0207
L29.2445 -51.2058
L29.5979 -51.3818
L29.9566 -51.5488
L30.3198 -51.7068
L30.6871 -51.8559
L31.0577 -51.9964
L31.4312 -52.1285
L31.807 -52.2521
L32.1847 -52.3676
L32.5637 -52.4751
L32.9437 -52.5748
L33.3243 -52.6669
L33.705 -52.7515
L34.0857 -52.8289
L34.4658 -52.8992
L34.8453 -52.9626
L35.2237 -53.0193
L35.6009 -53.0694
L35.9767 -53.1133
L36.3508 -53.1509
L36.723 -53.1825
L37.0933 -53.2084
L37.4614 -53.2285
L37.8273 -53.2432
L38.1908 -53.2526
L38.5517 -53.2567
L38.9102 -53.2559
L39.2659 -53.2501
L39.619 -53.2397
L39.9693 -53.2246
L40.3168 -53.2051
L40.6615 -53.1813
L41.0032 -53.1532
L41.3421 -53.1211
L41.6781 -53.085
L42.0112 -53.045
L42.3414 -53.0013
L42.6687 -52.9539
L42.9931 -52.903
L43.3146 -52.8486
L43.6332 -52.7908
L43.949 -52.7297
L44.262 -52.6654
L44.5723 -52.598
L44.8797 -52.5275
L45.1845 -52.454
L45.4865 -52.3775
L45.7859 -52.2982
L46.0828 -52.216
L46.377 -52.1311
L46.6687 -52.0434
L46.9579 -51.953
L47.2447 -51.86
L47.5291 -51.7644
L47.8111 -51.6662
L48.0908 -51.5654
L48.3683 -51.4621
L48.6435 -51.3563
L48.9165 -51.2479
L49.1874 -51.1372
L49.4562 -51.0239
L49.723 -50.9083
L49.9877 -50.7901
L50.2505 -50.6696
L50.5114 -50.5466
L50.7703 -50.4211
L51.0275 -50.2933
L51.2828 -50.1629
L51.5363 -50.0302
L51.7882 -49.8949
L52.0383 -49.7572
L52.2867 -49.6169
L52.5336 -49.4742
L52.7788 -49.3289
L53.0224 -49.181
L53.2646 -49.0305
L53.5052 -48.8774
L53.7443 -48.7216
L53.9819 -48.5632
L54.2181 -48.402
L54.4529 -48.238
L54.6863 -48.0712
L54.9183 -47.9016
L55.1489 -47.729
L55.3781 -47.5535
L55.606 -47.3749
L55.8326 -47.1933
L56.0577 -47.0086
L56.2816 -46.8206
L56.5041 -46.6294
L56.7253 -46.4349
L56.9451 -46.237
L57.1635 -46.0357
L57.3805 -45.8308
L57.5962 -45.6223
L57.8104 -45.4102
L58.0232 -45.1943
L58.2344 -44.9745
L58.4442 -44.7508
L58.6525 -44.5231
L58.8591 -44.2912
L59.0641 -44.0552
L59.2674 -43.8149
L59.4689 -43.5702
L59.6686 -43.321
L59.8665 -43.0672
L60.0623 -42.8088
L60.2561 -42.5455
L60.4478 -42.2773
L60.6372 -42.0042
L60.8242 -41.7259
L61.0088 -41.4424
L61.1908 -41.1536
L61.3701 -40.8594
L61.5466 -40.5596
L61.72 -40.2542
L61.8903 -39.943
L62.0572 -39.626
L62.2206 -39.303
L62.3803 -38.9739
L62.5361 -38.6387
L62.6877 -38.2972
L62.835 -37.9494
L62.9777 -37.5952
L63.1156 -37.2344
L63.2483 -36.8671
L63.3757 -36.4932
L63.4974 -36.1126
L63.6131 -35.7253
L63.7226 -35.3312
L63.8253 -34.9304
L63.9212 -34.5229
L64.0097 -34.1086
L64.0904 -33.6876
L64.1632 -33.26
L64.2274 -32.8258
L64.2017 -32.3853
L64.1256 -31.8871
L64.0409 -31.3955
L63.9478 -30.9054
L63.8461 -30.4168
L63.7359 -29.9299
L63.6173 -29.4448
L63.4902 -28.9618
L63.3548 -28.4808
L63.2111 -28.0022
L63.059 -27.526
L62.8987 -27.0524
L62.7303 -26.5815
L62.5537 -26.1135
L62.369 -25.6485
L62.1762 -25.1867
L61.9755 -24.7281
L61.7669 -24.273
L61.5504 -23.8214
L61.3262 -23.3736
L61.0942 -22.9296
L60.8546 -22.4896
L60.6074 -22.0537
L60.3527 -21.6221
L60.0906 -21.1948
L59.8212 -20.772
L59.5445 -20.3539
L59.2607 -19.9405
L58.9697 -19.5321
L58.6718 -19.1286
L58.3669 -18.7303
L58.0552 -18.3373
L57.7369 -17.9496
L57.4119 -17.5675
L57.0803 -17.1909
L56.7424 -16.8201
L56.3981 -16.4551
L56.0476 -16.0961
L55.6911 -15.7431
z
" id="C0_1_1c9cad117f"/>
     <path d="
M7.8618 -40.0408
L8.04041 -40.4557
L8.22487 -40.87
L8.41502 -41.2836
L8.61069 -41.6963
L8.81167 -42.1082
L9.01773 -42.519
L9.22861 -42.9288
L9.44404 -43.3374
L9.6637 -43.7448
L9.88725 -44.1508
L10.1143 -44.5556
L10.3445 -44.9589
L10.5774 -45.3609
L10.8125 -45.7614
L11.0493 -46.1604
L11.2873 -46.558
L11.5261 -46.9543
L11.7649 -47.3492
L12.0034 -47.7427
L12.2409 -48.1351
L12.4768 -48.5264
L12.7106 -48.9166
L12.9419 -49.3059
L13.17 -49.6944
L13.3946 -50.0822
L13.6153 -50.4694
L13.8317 -50.8562
L14.0437 -51.2425
L14.2509 -51.6285
L14.4534 -52.0143
L14.651 -52.3998
L14.844 -52.785
L15.0324 -53.17
L15.2164 -53.5546
L15.3963 -53.9389
L15.5725 -54.3226
L15.7452 -54.7057
L15.915 -55.088
L16.0822 -55.4693
L16.2473 -55.8495
L16.4107 -56.2284
L16.5729 -56.6058
L16.3606 -56.9815
L16.0032 -56.653
L15.6518 -56.3071
L15.3066 -55.955
L14.9678 -55.5968
L14.6353 -55.2327
L14.3094 -54.8627
L13.99 -54.4869
L13.6774 -54.1056
L13.3716 -53.7187
L13.0726 -53.3264
L12.7807 -52.9289
L12.4958 -52.5261
L12.2181 -52.1184
L11.9476 -51.7057
L11.6844 -51.2883
L11.4287 -50.8662
L11.1804 -50.4396
L10.9397 -50.0085
L10.7067 -49.5732
L10.4813 -49.1338
L10.2637 -48.6904
L10.054 -48.2431
L9.8521 -47.7921
L9.65822 -47.3374
L9.47236 -46.8794
L9.29458 -46.418
L9.12494 -45.9534
L8.96348 -45.4858
L8.81026 -45.0154
L8.66532 -44.5421
L8.52871 -44.0663
L8.40046 -43.588
L8.28062 -43.1074
L8.16923 -42.6247
L8.06631 -42.1399
L7.9719 -41.6532
L7.88603 -41.1649
z
" id="C0_2_33ecde8cc1"/>
    </defs>
    <g clip-path="url(#p1bffca34e9)">
     <use style="fill:#ff0000;stroke:#000000;stroke-width:2.0;" x="0.0" xlink:href="#C0_0_a811fe30f3" y="72.0"/>
    </g>
    <g clip-path="url(#p1bffca34e9)">
     <use style="fill:#ffffff;stroke:#000000;stroke-width:2.0;" x="0.0" xlink:href="#C0_1_1c9cad117f" y="72.0"/>
    </g>
    <g clip-path="url(#p1bffca34e9)">
     <use style="fill:#ffffff;stroke:#000000;stroke-width:2.0;" x="0.0" xlink:href="#C0_2_33ecde8cc1" y="72.0"/>
    </g>
   </g>
  </g>
 </g>
 <defs>
  <clipPath id="p1bffca34e9">
   <rect height="72.0" width="72.0" x="0.0" y="0.0"/>
  </clipPath>
 </defs>
</svg>
