<?xml version="1.0" encoding="utf-8" standalone="no"?>
<!DOCTYPE svg PUBLIC "-//W3C//DTD SVG 1.1//EN"
  "http://www.w3.org/Graphics/SVG/1.1/DTD/svg11.dtd">
<!-- Created with matplotlib (http://matplotlib.org/) -->
<svg height="72pt" version="1.1" viewBox="0 0 72 72" width="72pt" xmlns="http://www.w3.org/2000/svg" xmlns:xlink="http://www.w3.org/1999/xlink">
 <defs>
  <style type="text/css">
*{stroke-linecap:butt;stroke-linejoin:round;}
  </style>
 </defs>
 <g id="figure_1">
  <g id="patch_1">
   <path d="
M0 72
L72 72
L72 0
L0 0
z
" style="fill:none;"/>
  </g>
  <g id="axes_1">
   <g id="PatchCollection_1">
    <defs>
     <path d="
M36 -7.5
C43.5583 -7.5 50.808 -10.5029 56.1525 -15.8475
C61.4971 -21.192 64.5 -28.4417 64.5 -36
C64.5 -43.5583 61.4971 -50.808 56.1525 -56.1525
C50.808 -61.4971 43.5583 -64.5 36 -64.5
C28.4417 -64.5 21.192 -61.4971 15.8475 -56.1525
C10.5029 -50.808 7.5 -43.5583 7.5 -36
C7.5 -28.4417 10.5029 -21.192 15.8475 -15.8475
C21.192 -10.5029 28.4417 -7.5 36 -7.5
z
" id="C0_0_a811fe30f3"/>
     <path d="
M29.3645 -8.39512
L29.2924 -8.65117
L29.2476 -8.90633
L29.2291 -9.16034
L29.2362 -9.41306
L29.2677 -9.66441
L29.3221 -9.9144
L29.3982 -10.1631
L29.4943 -10.4107
L29.6088 -10.6573
L29.7402 -10.9031
L29.8868 -11.1483
L30.047 -11.393
L30.2195 -11.6376
L30.4028 -11.882
L30.5956 -12.1266
L30.7966 -12.3713
L31.0047 -12.6164
L31.2189 -12.8618
L31.4382 -13.1077
L31.6618 -13.3541
L31.8888 -13.6009
L32.1186 -13.8483
L32.3505 -14.0962
L32.584 -14.3445
L32.8185 -14.5932
L33.0536 -14.8423
L33.2888 -15.0917
L33.5239 -15.3415
L33.7584 -15.5914
L33.9921 -15.8414
L34.2248 -16.0916
L34.4562 -16.3417
L34.6861 -16.5919
L34.9144 -16.8419
L35.1409 -17.0917
L35.3655 -17.3413
L35.5881 -17.5905
L35.8085 -17.8395
L36.0268 -18.088
L36.2429 -18.3361
L36.4566 -18.5837
L36.668 -18.8308
L36.8771 -19.0773
L37.0838 -19.3232
L37.2881 -19.5685
L37.49 -19.8131
L37.6895 -20.057
L37.8867 -20.3003
L38.0814 -20.5428
L38.2739 -20.7847
L38.4639 -21.0258
L38.6517 -21.2661
L38.8372 -21.5058
L39.0205 -21.7447
L39.2015 -21.9829
L39.3804 -22.2203
L39.5571 -22.4571
L39.7317 -22.6931
L39.9042 -22.9285
L40.0747 -23.1632
L40.2432 -23.3973
L40.4098 -23.6307
L40.5744 -23.8635
L40.7372 -24.0958
L40.8982 -24.3275
L41.0573 -24.5586
L41.2148 -24.7892
L41.3705 -25.0194
L41.5246 -25.2491
L41.677 -25.4785
L41.8279 -25.7074
L41.9773 -25.936
L42.1252 -26.1643
L42.2716 -26.3923
L42.4166 -26.6201
L42.5602 -26.8476
L42.7024 -27.0751
L42.8434 -27.3024
L42.9831 -27.5296
L43.1216 -27.7568
L43.2589 -27.984
L43.395 -28.2112
L43.53 -28.4386
L43.6639 -28.666
L43.7968 -28.8937
L43.9286 -29.1216
L44.0595 -29.3497
L44.1893 -29.5782
L44.3183 -29.807
L44.5734 -30.0362
L44.6997 -30.2659
L44.8252 -30.4961
L44.9499 -30.7268
L45.0737 -30.9582
L45.1969 -31.1902
L45.3193 -31.4229
L45.441 -31.6563
L45.562 -31.8906
L45.6824 -32.1257
L45.8021 -32.3617
L45.9212 -32.5986
L46.0397 -32.8366
L46.1576 -33.0756
L46.275 -33.3158
L46.3918 -33.5571
L46.508 -33.7996
L46.6237 -34.0434
L46.7389 -34.2885
L46.8536 -34.535
L46.9678 -34.783
L47.0816 -35.0324
L47.1948 -35.2833
L47.3076 -35.5359
L47.4199 -35.7901
L47.5318 -36.046
L47.6432 -36.3037
L47.7542 -36.5631
L47.8647 -36.8244
L47.9748 -37.0877
L48.0845 -37.3528
L48.1937 -37.62
L48.3025 -37.8893
L48.4108 -38.1606
L48.5186 -38.4341
L48.626 -38.7098
L48.7329 -38.9877
L48.8394 -39.2678
L48.9453 -39.5503
L49.0508 -39.8352
L49.1557 -40.1224
L49.2602 -40.412
L49.364 -40.704
L49.4674 -40.9985
L49.5701 -41.2954
L49.6723 -41.5949
L49.7739 -41.8967
L49.8748 -42.2011
L49.9752 -42.508
L50.0748 -42.8173
L50.1739 -43.129
L50.2722 -43.4431
L50.3699 -43.7596
L50.4669 -44.0784
L50.5631 -44.3995
L50.6587 -44.7227
L50.7536 -45.048
L50.8478 -45.3753
L50.9413 -45.7045
L51.0342 -46.0354
L51.1265 -46.3678
L51.2183 -46.7017
L51.3095 -47.0368
L51.4004 -47.3729
L51.4909 -47.7097
L51.5812 -48.047
L51.6714 -48.3845
L51.7618 -48.7219
L51.8524 -49.0587
L51.9436 -49.3946
L52.0356 -49.7291
L52.1287 -50.0617
L52.2233 -50.392
L52.3197 -50.7192
L52.4185 -51.0429
L52.5202 -51.3622
L52.6254 -51.6764
L52.7347 -51.9847
L52.8488 -52.2862
L52.9685 -52.58
L53.0947 -52.865
L53.2282 -53.1401
L53.3699 -53.4044
L53.5209 -53.6565
L53.682 -53.8952
L53.8542 -54.1194
L54.0383 -54.3279
L54.2351 -54.5194
L54.4453 -54.6929
L54.6693 -54.8472
L54.9076 -54.9814
L55.1602 -55.0947
L55.4271 -55.1864
L55.7081 -55.2561
L56.0025 -55.3033
L56.3099 -55.3279
L56.6294 -55.3299
L56.96 -55.3093
L57.3158 -55.2665
L57.6427 -54.9179
L57.963 -54.543
L58.2767 -54.1625
L58.5835 -53.7764
L58.8835 -53.3849
L59.1765 -52.9881
L59.4624 -52.5862
L59.7412 -52.1792
L60.0128 -51.7672
L60.277 -51.3505
L60.5339 -50.9291
L60.7832 -50.5031
L61.0251 -50.0727
L61.2593 -49.638
L61.4858 -49.1992
L61.7045 -48.7564
L61.9154 -48.3096
L62.1185 -47.8592
L62.3135 -47.4051
L62.5006 -46.9475
L62.6796 -46.4866
L62.8504 -46.0225
L63.0131 -45.5553
L63.1675 -45.0853
L63.3137 -44.6125
L63.4516 -44.137
L63.5811 -43.6591
L63.7021 -43.1788
L63.8148 -42.6964
L63.919 -42.2119
L64.0146 -41.7255
L64.1018 -41.2374
L64.1804 -40.7477
L64.2503 -40.2565
L64.3117 -39.764
L64.3645 -39.2704
L64.4086 -38.7758
L64.4441 -38.2804
L64.4709 -37.7842
L64.489 -37.2875
L64.4985 -36.7904
L64.4993 -36.2931
L64.4914 -35.7957
L64.4748 -35.2984
L64.4495 -34.8012
L64.4156 -34.3044
L64.373 -33.8082
L64.3218 -33.3126
L64.2619 -32.8178
L64.1935 -32.324
L64.1164 -31.8314
L64.0308 -31.3399
L63.9367 -30.85
L63.834 -30.3615
L63.7229 -29.8748
L63.6033 -29.39
L63.4753 -28.9072
L63.3389 -28.4265
L63.1943 -27.9482
L63.0413 -27.4722
L62.8801 -26.9989
L62.7107 -26.5284
L62.5331 -26.0607
L62.3475 -25.596
L62.1539 -25.1346
L61.9523 -24.6764
L61.7428 -24.2217
L61.5254 -23.7705
L61.3003 -23.3231
L61.0674 -22.8796
L60.827 -22.44
L60.5789 -22.0046
L60.3234 -21.5734
L60.0605 -21.1467
L59.7902 -20.7244
L59.5127 -20.3068
L59.2281 -19.894
L58.9363 -19.4861
L58.6376 -19.0833
L58.332 -18.6856
L58.0195 -18.2931
L57.7004 -17.9061
L57.3746 -17.5245
L57.0424 -17.1486
L56.7037 -16.7784
L56.3587 -16.4141
L56.0076 -16.0558
L55.6503 -15.7035
L55.287 -15.3574
L54.9179 -15.0176
L54.543 -14.6842
L54.1625 -14.3573
L53.7764 -14.037
L53.3849 -13.7233
L52.9881 -13.4165
L52.5862 -13.1165
L52.1792 -12.8235
L51.7672 -12.5376
L51.3505 -12.2588
L50.9291 -11.9872
L50.5031 -11.723
L50.0727 -11.4661
L49.638 -11.2168
L49.1992 -10.9749
L48.7564 -10.7407
L48.3096 -10.5142
L47.8592 -10.2955
L47.4051 -10.0846
L46.9475 -9.88153
L46.4866 -9.68646
L46.0225 -9.49941
L45.5553 -9.32043
L45.0853 -9.14957
L44.6125 -8.9869
L44.137 -8.83245
L43.6591 -8.68628
L43.1788 -8.54843
L42.6964 -8.41894
L42.2119 -8.29786
L41.7255 -8.18521
L41.2374 -8.08103
L40.7477 -7.98536
L40.2565 -7.89822
L39.764 -7.81965
L39.2704 -7.74965
L38.7758 -7.68826
L38.2804 -7.6355
L37.7842 -7.59137
L37.2875 -7.5559
L36.7904 -7.5291
L36.2931 -7.51096
L35.7957 -7.50151
L35.2984 -7.50073
L34.8012 -7.50864
L34.3044 -7.52522
L33.8082 -7.55048
L33.3126 -7.58441
L32.8178 -7.62699
L32.324 -7.67821
L31.8314 -7.73806
L31.3399 -7.80652
L30.85 -7.88357
L30.3615 -7.96918
L29.8748 -8.06333
z
" id="C0_1_3dff1d3601"/>
     <path d="
M14.9645 -17.0374
L14.9254 -17.3931
L14.8795 -17.7586
L14.8279 -18.1328
L14.7721 -18.5148
L14.7132 -18.9038
L14.6522 -19.2989
L14.5902 -19.6992
L14.528 -20.104
L14.4663 -20.5125
L14.406 -20.9241
L14.3475 -21.3381
L14.2915 -21.7539
L14.2382 -22.1711
L14.1882 -22.5889
L14.1417 -23.0071
L14.099 -23.4251
L14.0602 -23.8426
L14.0257 -24.2591
L13.9953 -24.6744
L13.9693 -25.0882
L13.9478 -25.5001
L13.9306 -25.91
L13.9179 -26.3176
L13.9097 -26.7227
L13.9058 -27.1251
L13.9063 -27.5247
L13.9111 -27.9214
L13.9201 -28.315
L13.9333 -28.7053
L13.9506 -29.0925
L13.9718 -29.4763
L13.997 -29.8567
L14.026 -30.2336
L14.0587 -30.6071
L14.0951 -30.977
L14.135 -31.3435
L14.1783 -31.7064
L14.225 -32.0658
L14.2749 -32.4216
L14.328 -32.774
L14.3842 -33.1228
L14.4433 -33.4683
L14.5054 -33.8102
L14.5703 -34.1488
L14.638 -34.4841
L14.7084 -34.816
L14.7814 -35.1447
L14.8569 -35.4702
L14.9349 -35.7925
L15.0153 -36.1117
L15.0981 -36.4279
L15.1832 -36.7411
L15.2705 -37.0513
L15.3601 -37.3587
L15.4518 -37.6633
L15.5457 -37.9651
L15.6416 -38.2643
L15.7396 -38.5608
L15.8397 -38.8548
L15.9417 -39.1463
L16.0457 -39.4354
L16.1516 -39.7221
L16.2594 -40.0065
L16.3692 -40.2887
L16.4808 -40.5687
L16.5943 -40.8467
L16.7097 -41.1225
L16.8269 -41.3964
L16.946 -41.6683
L17.067 -41.9384
L17.1898 -42.2067
L17.3144 -42.4733
L17.4409 -42.7381
L17.5693 -43.0013
L17.6995 -43.263
L17.8316 -43.5231
L17.9657 -43.7818
L18.1016 -44.0391
L18.2395 -44.295
L18.3793 -44.5496
L18.5211 -44.8029
L18.6648 -45.055
L18.8106 -45.306
L18.9585 -45.5559
L19.1084 -45.8047
L19.2604 -46.0524
L19.4146 -46.2992
L19.5709 -46.5451
L19.7295 -46.7901
L19.8903 -47.0342
L20.0534 -47.2775
L20.2188 -47.52
L20.3866 -47.7618
L20.5568 -48.0029
L20.7295 -48.2433
L20.9048 -48.4831
L21.0826 -48.7222
L21.263 -48.9608
L21.4461 -49.1988
L21.632 -49.4363
L21.8206 -49.6732
L22.0121 -49.9097
L22.2065 -50.1457
L22.404 -50.3812
L22.6044 -50.6163
L22.808 -50.851
L23.0147 -51.0852
L23.2247 -51.3191
L23.438 -51.5525
L23.6548 -51.7855
L23.8749 -52.0181
L24.0986 -52.2503
L24.326 -52.4821
L24.557 -52.7134
L24.7917 -52.9443
L25.0303 -53.1748
L25.2728 -53.4048
L25.5193 -53.6342
L25.7698 -53.8632
L26.0244 -54.0915
L26.2833 -54.3193
L26.5464 -54.5464
L26.8139 -54.7728
L27.0857 -54.9985
L27.362 -55.2235
L27.6429 -55.4475
L27.9283 -55.6707
L28.2183 -55.8929
L28.513 -56.114
L28.8124 -56.3341
L29.1165 -56.5529
L29.4254 -56.7704
L29.739 -56.9865
L30.0574 -57.2012
L30.3806 -57.4143
L30.7085 -57.6258
L31.0411 -57.8354
L31.3784 -58.0433
L31.7202 -58.2491
L32.0665 -58.4528
L32.4171 -58.6544
L32.772 -58.8536
L33.1309 -59.0505
L33.4938 -59.2449
L33.8602 -59.4367
L34.23 -59.6258
L34.603 -59.8123
L34.9786 -59.9959
L35.3566 -60.1768
L35.7365 -60.3548
L36.1179 -60.5301
L36.5001 -60.7025
L36.8827 -60.8722
L37.2648 -61.0393
L37.6457 -61.204
L38.0247 -61.3663
L38.4008 -61.5267
L38.773 -61.6853
L39.1403 -61.8424
L39.5015 -61.9986
L39.8554 -62.1543
L40.2006 -62.31
L40.5359 -62.4662
L40.8597 -62.6237
L41.1707 -62.783
L41.4673 -62.9449
L41.7481 -63.11
L42.0117 -63.2791
L42.2567 -63.4528
L42.0237 -63.6316
L41.5366 -63.8562
L41.0478 -63.957
L40.5575 -64.0494
L40.0659 -64.1332
L39.5729 -64.2085
L39.0789 -64.2752
L38.584 -64.3332
L38.0882 -64.3826
L37.5919 -64.4234
L37.095 -64.4555
L36.5978 -64.479
L36.1004 -64.4937
L35.603 -64.4998
L35.1057 -64.4972
L34.6087 -64.486
L34.1121 -64.466
L33.6161 -64.4374
L33.1208 -64.4001
L32.6264 -64.3542
L32.133 -64.2996
L31.6408 -64.2364
L31.15 -64.1647
L30.6606 -64.0843
L30.1728 -63.9954
L29.6868 -63.8979
L29.2027 -63.792
L28.7207 -63.6776
L28.2409 -63.5547
L27.7635 -63.4235
L27.2886 -63.2839
L26.8163 -63.136
L26.3469 -62.9798
L25.8803 -62.8154
L25.4169 -62.6429
L24.9567 -62.4622
L24.4998 -62.2735
L24.0465 -62.0767
L23.5968 -61.8721
L23.1508 -61.6595
L22.7088 -61.4391
L22.2708 -61.211
L21.8371 -60.9752
L21.4076 -60.7318
L20.9826 -60.4808
L20.5621 -60.2224
L20.1464 -59.9567
L19.7354 -59.6836
L19.3295 -59.4033
L18.9286 -59.1159
L18.5329 -58.8214
L18.1425 -58.52
L17.7576 -58.2117
L17.3782 -57.8967
L17.0045 -57.575
L16.6366 -57.2467
L16.2746 -56.9119
L15.9186 -56.5708
L15.5687 -56.2234
L15.225 -55.8699
L14.8877 -55.5103
L14.5568 -55.1447
L14.2324 -54.7734
L13.9147 -54.3963
L13.6037 -54.0136
L13.2995 -53.6254
L13.0022 -53.2318
L12.7119 -52.833
L12.4287 -52.4291
L12.1527 -52.0202
L11.884 -51.6063
L11.6226 -51.1878
L11.3686 -50.7646
L11.1222 -50.3369
L10.8833 -49.9048
L10.6521 -49.4685
L10.4286 -49.0281
L10.2128 -48.5838
L10.005 -48.1356
L9.80502 -47.6837
L9.61305 -47.2282
L9.42911 -46.7693
L9.25328 -46.3072
L9.08558 -45.8419
L8.92609 -45.3736
L8.77485 -44.9024
L8.63189 -44.4286
L8.49728 -43.9522
L8.37104 -43.4733
L8.25322 -42.9922
L8.14385 -42.5089
L8.04296 -42.0237
L7.95059 -41.5366
L7.86677 -41.0478
L7.79151 -40.5575
L7.72485 -40.0659
L7.6668 -39.5729
L7.61738 -39.0789
L7.57661 -38.584
L7.54449 -38.0882
L7.52104 -37.5919
L7.50627 -37.095
L7.50018 -36.5978
L7.50276 -36.1004
L7.51403 -35.603
L7.53398 -35.1057
L7.5626 -34.6087
L7.59987 -34.1121
L7.6458 -33.6161
L7.70037 -33.1208
L7.76356 -32.6264
L7.83535 -32.133
L7.91571 -31.6408
L8.00464 -31.15
L8.10209 -30.6606
L8.20803 -30.1728
L8.32245 -29.6868
L8.44529 -29.2027
L8.57653 -28.7207
L8.71612 -28.2409
L8.86402 -27.7635
L9.02019 -27.2886
L9.18458 -26.8163
L9.35713 -26.3469
L9.5378 -25.8803
L9.72653 -25.4169
L9.92327 -24.9567
L10.1279 -24.4998
L10.3405 -24.0465
L10.5609 -23.5968
L10.789 -23.1508
L11.0248 -22.7088
L11.2682 -22.2708
L11.5192 -21.8371
L11.7776 -21.4076
L12.0433 -20.9826
L12.3164 -20.5621
L12.5967 -20.1464
L12.8841 -19.7354
L13.1786 -19.3295
L13.48 -18.9286
L13.7883 -18.5329
L14.1033 -18.1425
L14.425 -17.7576
z
" id="C0_2_bbb68598c0"/>
    </defs>
    <g clip-path="url(#p1bffca34e9)">
     <use style="fill:#ff0000;stroke:#000000;stroke-width:2.0;" x="0.0" xlink:href="#C0_0_a811fe30f3" y="72.0"/>
    </g>
    <g clip-path="url(#p1bffca34e9)">
     <use style="fill:#ffffff;stroke:#000000;stroke-width:2.0;" x="0.0" xlink:href="#C0_1_3dff1d3601" y="72.0"/>
    </g>
    <g clip-path="url(#p1bffca34e9)">
     <use style="fill:#ffffff;stroke:#000000;stroke-width:2.0;" x="0.0" xlink:href="#C0_2_bbb68598c0" y="72.0"/>
    </g>
   </g>
  </g>
 </g>
 <defs>
  <clipPath id="p1bffca34e9">
   <rect height="72.0" width="72.0" x="0.0" y="0.0"/>
  </clipPath>
 </defs>
</svg>
