<?xml version="1.0" encoding="utf-8" standalone="no"?>
<!DOCTYPE svg PUBLIC "-//W3C//DTD SVG 1.1//EN"
  "http://www.w3.org/Graphics/SVG/1.1/DTD/svg11.dtd">
<!-- Created with matplotlib (http://matplotlib.org/) -->
<svg height="72pt" version="1.1" viewBox="0 0 72 72" width="72pt" xmlns="http://www.w3.org/2000/svg" xmlns:xlink="http://www.w3.org/1999/xlink">
 <defs>
  <style type="text/css">
*{stroke-linecap:butt;stroke-linejoin:round;}
  </style>
 </defs>
 <g id="figure_1">
  <g id="patch_1">
   <path d="
M0 72
L72 72
L72 0
L0 0
z
" style="fill:none;"/>
  </g>
  <g id="axes_1">
   <g id="PatchCollection_1">
    <defs>
     <path d="
M36 -7.5
C43.5583 -7.5 50.808 -10.5029 56.1525 -15.8475
C61.4971 -21.192 64.5 -28.4417 64.5 -36
C64.5 -43.5583 61.4971 -50.808 56.1525 -56.1525
C50.808 -61.4971 43.5583 -64.5 36 -64.5
C28.4417 -64.5 21.192 -61.4971 15.8475 -56.1525
C10.5029 -50.808 7.5 -43.5583 7.5 -36
C7.5 -28.4417 10.5029 -21.192 15.8475 -15.8475
C21.192 -10.5029 28.4417 -7.5 36 -7.5
z
" id="C0_0_a811fe30f3"/>
     <path d="
M41.1926 -8.07408
L40.7868 -8.12078
L40.3896 -8.18052
L40.0013 -8.25302
L39.6225 -8.33799
L39.2535 -8.43511
L38.8945 -8.54402
L38.546 -8.66433
L38.208 -8.79566
L37.8808 -8.93756
L37.5644 -9.08962
L37.2588 -9.25138
L36.9642 -9.4224
L36.6803 -9.60221
L36.4072 -9.79036
L36.1446 -9.98639
L35.8925 -10.1899
L35.6507 -10.4003
L35.4189 -10.6173
L35.1969 -10.8404
L34.9845 -11.0693
L34.7814 -11.3035
L34.5873 -11.5426
L34.402 -11.7863
L34.2251 -12.0341
L34.0565 -12.2859
L33.8957 -12.5412
L33.7426 -12.7997
L33.5969 -13.0611
L33.4582 -13.3253
L33.3264 -13.5918
L33.2011 -13.8605
L33.0821 -14.131
L32.9691 -14.4033
L32.862 -14.6771
L32.7605 -14.9521
L32.6643 -15.2283
L32.5732 -15.5054
L32.4872 -15.7832
L32.4058 -16.0617
L32.329 -16.3407
L32.2566 -16.62
L32.1884 -16.8996
L32.1242 -17.1793
L32.0638 -17.459
L32.0072 -17.7387
L31.9542 -18.0182
L31.9046 -18.2975
L31.8583 -18.5765
L31.8151 -18.8552
L31.7751 -19.1334
L31.7379 -19.4112
L31.7036 -19.6884
L31.672 -19.9651
L31.643 -20.2412
L31.6166 -20.5167
L31.5926 -20.7916
L31.571 -21.0657
L31.5516 -21.3392
L31.5344 -21.612
L31.5194 -21.8841
L31.5064 -22.1555
L31.4954 -22.4262
L31.4863 -22.6962
L31.4791 -22.9654
L31.4737 -23.2339
L31.47 -23.5017
L31.4681 -23.7689
L31.4678 -24.0353
L31.4692 -24.3011
L31.4721 -24.5663
L31.4765 -24.8308
L31.4825 -25.0946
L31.4899 -25.3579
L31.4987 -25.6206
L31.509 -25.8828
L31.5206 -26.1444
L31.5336 -26.4056
L31.5479 -26.6662
L31.5634 -26.9265
L31.5803 -27.1863
L31.5984 -27.4457
L31.6178 -27.7047
L31.6384 -27.9634
L31.6602 -28.2219
L31.6832 -28.48
L31.7074 -28.7379
L31.7327 -28.9956
L31.7593 -29.2532
L31.787 -29.5106
L31.8158 -29.7679
L31.8458 -30.0251
L31.877 -30.2823
L31.9428 -30.5395
L31.9774 -30.7968
L32.0132 -31.0541
L32.0501 -31.3115
L32.0882 -31.569
L32.1274 -31.8267
L32.1679 -32.0847
L32.2095 -32.3428
L32.2523 -32.6012
L32.2963 -32.8599
L32.3415 -33.119
L32.388 -33.3784
L32.4357 -33.6383
L32.4846 -33.8985
L32.5348 -34.1593
L32.5864 -34.4205
L32.6392 -34.6822
L32.6934 -34.9445
L32.7489 -35.2074
L32.8058 -35.4709
L32.8641 -35.735
L32.9238 -35.9997
L32.985 -36.2652
L33.0477 -36.5313
L33.1119 -36.7982
L33.1776 -37.0658
L33.2449 -37.3342
L33.3138 -37.6033
L33.3844 -37.8733
L33.4567 -38.144
L33.5306 -38.4156
L33.6064 -38.6879
L33.6839 -38.9611
L33.7633 -39.2352
L33.8446 -39.51
L33.9279 -39.7856
L34.0131 -40.0621
L34.1004 -40.3394
L34.1897 -40.6174
L34.2812 -40.8962
L34.3749 -41.1758
L34.4709 -41.456
L34.5692 -41.737
L34.6699 -42.0186
L34.773 -42.3007
L34.8787 -42.5835
L34.987 -42.8667
L35.0979 -43.1503
L35.2115 -43.4343
L35.328 -43.7185
L35.4473 -44.003
L35.5697 -44.2876
L35.6951 -44.5721
L35.8236 -44.8566
L35.9554 -45.1408
L36.0905 -45.4247
L36.229 -45.708
L36.3711 -45.9907
L36.5168 -46.2726
L36.6662 -46.5535
L36.8195 -46.8332
L36.9767 -47.1115
L37.138 -47.3883
L37.3035 -47.6632
L37.4733 -47.9361
L37.6475 -48.2067
L37.8263 -48.4747
L38.0097 -48.7398
L38.198 -49.0019
L38.3911 -49.2604
L38.5893 -49.5152
L38.7927 -49.7659
L39.0014 -50.0121
L39.2155 -50.2535
L39.4351 -50.4896
L39.6604 -50.7202
L39.8914 -50.9449
L40.1282 -51.1631
L40.371 -51.3745
L40.6197 -51.5788
L40.8745 -51.7754
L41.1354 -51.964
L41.4023 -52.1442
L41.6754 -52.3155
L41.9545 -52.4776
L42.2397 -52.6301
L42.5308 -52.7726
L42.8277 -52.9048
L43.1304 -53.0264
L43.4386 -53.137
L43.7521 -53.2364
L44.0708 -53.3244
L44.3944 -53.4007
L44.7225 -53.4653
L45.055 -53.5179
L45.3915 -53.5584
L45.7315 -53.5869
L46.0749 -53.6033
L46.4211 -53.6075
L46.7698 -53.5997
L47.1206 -53.58
L47.4731 -53.5483
L47.8268 -53.505
L48.1813 -53.4501
L48.5363 -53.3838
L48.8914 -53.3064
L49.246 -53.218
L49.6 -53.119
L49.9527 -53.0096
L50.304 -52.89
L50.6535 -52.7606
L51.0008 -52.6216
L51.3455 -52.4734
L51.6875 -52.3162
L52.0265 -52.1503
L52.362 -51.9761
L52.694 -51.7939
L53.0222 -51.6039
L53.3463 -51.4064
L53.6663 -51.2018
L53.9818 -50.9904
L54.2927 -50.7723
L54.5989 -50.548
L54.9003 -50.3176
L55.1966 -50.0815
L55.4879 -49.8399
L55.774 -49.5931
L56.0549 -49.3412
L56.3304 -49.0846
L56.6005 -48.8234
L56.8652 -48.5579
L57.1244 -48.2883
L57.3781 -48.0148
L57.6262 -47.7376
L57.8688 -47.4569
L58.1058 -47.1728
L58.3373 -46.8855
L58.5632 -46.5953
L58.7835 -46.3021
L58.9983 -46.0063
L59.2075 -45.7079
L59.4112 -45.407
L59.6094 -45.1038
L59.8022 -44.7985
L59.9895 -44.491
L60.1714 -44.1816
L60.3479 -43.8703
L60.5191 -43.5572
L60.6849 -43.2424
L60.8455 -42.926
L61.0008 -42.6081
L61.1509 -42.2887
L61.2958 -41.9679
L61.4356 -41.6457
L61.5703 -41.3223
L61.6998 -40.9977
L61.8244 -40.6718
L61.9439 -40.3449
L62.0584 -40.0168
L62.168 -39.6877
L62.2726 -39.3576
L62.3723 -39.0264
L62.4672 -38.6943
L62.5571 -38.3613
L62.6423 -38.0274
L62.7226 -37.6925
L62.798 -37.3568
L62.8687 -37.0203
L62.9346 -36.6828
L62.9957 -36.3446
L63.0521 -36.0055
L63.1037 -35.6656
L63.1505 -35.3249
L63.1925 -34.9833
L63.2297 -34.641
L63.2622 -34.2979
L63.2899 -33.954
L63.3127 -33.6092
L63.3308 -33.2637
L63.344 -32.9174
L63.3523 -32.5703
L63.3557 -32.2225
L63.3542 -31.8738
L63.3478 -31.5243
L63.3364 -31.1741
L63.32 -30.823
L63.2985 -30.4712
L63.2719 -30.1186
L63.2402 -29.7652
L63.2032 -29.4111
L63.161 -29.0562
L63.1135 -28.7005
L63.0607 -28.3441
L63.0024 -27.987
L62.9386 -27.6292
L62.8692 -27.2706
L62.7943 -26.9114
L62.7136 -26.5515
L62.5779 -26.191
L62.3943 -25.7109
L62.2026 -25.2487
L62.003 -24.7897
L61.7954 -24.3341
L61.58 -23.882
L61.3568 -23.4337
L61.1259 -22.9892
L60.8873 -22.5486
L60.6411 -22.1121
L60.3875 -21.6799
L60.1264 -21.2521
L59.8579 -20.8287
L59.5822 -20.4099
L59.2993 -19.9959
L59.0093 -19.5868
L58.7123 -19.1827
L58.4084 -18.7837
L58.0976 -18.3899
L57.7801 -18.0015
L57.456 -17.6186
L57.1253 -17.2413
L56.7883 -16.8697
L56.4448 -16.5039
L56.0952 -16.1441
L55.7394 -15.7903
L55.3776 -15.4426
L55.01 -15.1013
L54.6365 -14.7663
L54.2573 -14.4377
L53.8726 -14.1158
L53.4825 -13.8005
L53.087 -13.4919
L52.6863 -13.1902
L52.2805 -12.8955
L51.8698 -12.6078
L51.4542 -12.3272
L51.034 -12.0539
L50.6091 -11.7878
L50.1798 -11.5291
L49.7462 -11.2779
L49.3084 -11.0342
L48.8665 -10.7981
L48.4207 -10.5696
L47.9712 -10.349
L47.518 -10.1361
L47.0612 -9.93112
L46.6012 -9.73407
L46.1378 -9.54503
L45.6714 -9.36404
L45.2021 -9.19117
L44.7299 -9.02646
L44.2551 -8.86997
L43.7778 -8.72175
L43.2981 -8.58183
L42.8162 -8.45026
L42.3322 -8.32709
L41.8462 -8.21235
z
" id="C0_1_25eed80966"/>
     <path d="
M9.37892 -46.1678
L9.55534 -46.496
L9.73603 -46.8229
L9.92103 -47.1485
L10.1104 -47.4728
L10.3041 -47.7957
L10.5021 -48.1173
L10.7047 -48.4375
L10.9116 -48.7564
L11.1231 -49.074
L11.3391 -49.3901
L11.5596 -49.7049
L11.7847 -50.0184
L12.0144 -50.3303
L12.2488 -50.6409
L12.4879 -50.95
L12.7316 -51.2576
L12.9801 -51.5636
L13.2334 -51.8681
L13.4914 -52.171
L13.7542 -52.4723
L14.0219 -52.7718
L14.2944 -53.0697
L14.5718 -53.3658
L14.854 -53.66
L15.1411 -53.9524
L15.4331 -54.2429
L15.7299 -54.5313
L16.0316 -54.8178
L16.3382 -55.1021
L16.6495 -55.3842
L16.9656 -55.6642
L17.2865 -55.9418
L17.6121 -56.217
L17.9424 -56.4899
L18.2772 -56.7602
L18.6166 -57.028
L18.9604 -57.2932
L19.3085 -57.5557
L19.6608 -57.8154
L20.0173 -58.0724
L20.3777 -58.3265
L20.742 -58.5776
L21.1099 -58.8259
L21.4814 -59.0712
L21.8562 -59.3134
L22.2341 -59.5526
L22.6149 -59.7887
L22.9984 -60.0218
L23.3843 -60.2518
L23.7724 -60.4787
L24.1624 -60.7026
L24.554 -60.9234
L24.9469 -61.1413
L25.3408 -61.3563
L25.7354 -61.5683
L26.1304 -61.7777
L26.5254 -61.9843
L26.92 -62.1883
L27.314 -62.3899
L27.7069 -62.589
L28.0985 -62.786
L28.4883 -62.9808
L28.8761 -63.1736
L29.2614 -63.3646
L29.644 -63.554
L30.0236 -63.7418
L29.9099 -63.9281
L29.4249 -63.8417
L28.942 -63.7312
L28.4611 -63.6122
L27.9826 -63.4848
L27.5065 -63.3491
L27.033 -63.205
L26.5623 -63.0526
L26.0944 -62.892
L25.6295 -62.7232
L25.1678 -62.5462
L24.7094 -62.3612
L24.2544 -62.1681
L23.803 -61.9671
L23.3553 -61.7582
L22.9115 -61.5414
L22.4716 -61.3168
L22.0359 -61.0845
L21.6044 -60.8446
L21.1773 -60.5971
L20.7548 -60.3421
L20.3368 -60.0797
L19.9237 -59.81
L19.5154 -59.533
L19.1122 -59.2488
L18.7141 -58.9576
L18.3213 -58.6594
L17.9338 -58.3542
L17.5519 -58.0423
L17.1756 -57.7236
L16.805 -57.3984
L16.4402 -57.0666
L16.0815 -56.7284
L15.7287 -56.3839
L15.3822 -56.0331
L15.0419 -55.6763
L14.7081 -55.3135
L14.3807 -54.9447
L14.0599 -54.5703
L13.7458 -54.1901
L13.4384 -53.8045
L13.1379 -53.4134
L12.8444 -53.0169
L12.558 -52.6154
L12.2787 -52.2087
L12.0066 -51.7971
L11.7418 -51.3807
L11.4844 -50.9596
L11.2345 -50.534
L10.9921 -50.1039
L10.7574 -49.6696
L10.5303 -49.231
L10.311 -48.7885
L10.0995 -48.342
L9.89592 -47.8918
L9.70027 -47.438
z
" id="C0_2_ee8a3c0aed"/>
    </defs>
    <g clip-path="url(#p1bffca34e9)">
     <use style="fill:#ffffff;stroke:#000000;stroke-width:2.0;" x="0.0" xlink:href="#C0_0_a811fe30f3" y="72.0"/>
    </g>
    <g clip-path="url(#p1bffca34e9)">
     <use style="fill:#ff0000;stroke:#000000;stroke-width:2.0;" x="0.0" xlink:href="#C0_1_25eed80966" y="72.0"/>
    </g>
    <g clip-path="url(#p1bffca34e9)">
     <use style="fill:#ff0000;stroke:#000000;stroke-width:2.0;" x="0.0" xlink:href="#C0_2_ee8a3c0aed" y="72.0"/>
    </g>
   </g>
  </g>
 </g>
 <defs>
  <clipPath id="p1bffca34e9">
   <rect height="72.0" width="72.0" x="0.0" y="0.0"/>
  </clipPath>
 </defs>
</svg>
