<?xml version="1.0" encoding="utf-8" standalone="no"?>
<!DOCTYPE svg PUBLIC "-//W3C//DTD SVG 1.1//EN"
  "http://www.w3.org/Graphics/SVG/1.1/DTD/svg11.dtd">
<!-- Created with matplotlib (http://matplotlib.org/) -->
<svg height="72pt" version="1.1" viewBox="0 0 72 72" width="72pt" xmlns="http://www.w3.org/2000/svg" xmlns:xlink="http://www.w3.org/1999/xlink">
 <defs>
  <style type="text/css">
*{stroke-linecap:butt;stroke-linejoin:round;}
  </style>
 </defs>
 <g id="figure_1">
  <g id="patch_1">
   <path d="
M0 72
L72 72
L72 0
L0 0
z
" style="fill:none;"/>
  </g>
  <g id="axes_1">
   <g id="PatchCollection_1">
    <defs>
     <path d="
M36 -7.5
C43.5583 -7.5 50.808 -10.5029 56.1525 -15.8475
C61.4971 -21.192 64.5 -28.4417 64.5 -36
C64.5 -43.5583 61.4971 -50.808 56.1525 -56.1525
C50.808 -61.4971 43.5583 -64.5 36 -64.5
C28.4417 -64.5 21.192 -61.4971 15.8475 -56.1525
C10.5029 -50.808 7.5 -43.5583 7.5 -36
C7.5 -28.4417 10.5029 -21.192 15.8475 -15.8475
C21.192 -10.5029 28.4417 -7.5 36 -7.5
z
" id="C0_0_a811fe30f3"/>
     <path d="
M28.8529 -63.3748
L28.9184 -63.1264
L28.9435 -62.8593
L28.9338 -62.5757
L28.8951 -62.2776
L28.8327 -61.9669
L28.7515 -61.6452
L28.6557 -61.3143
L28.5487 -60.9753
L28.4336 -60.6295
L28.3128 -60.278
L28.1881 -59.9216
L28.0613 -59.5611
L27.9335 -59.1972
L27.8059 -58.8306
L27.6793 -58.4618
L27.5543 -58.0914
L27.4315 -57.7197
L27.3114 -57.3473
L27.1941 -56.9746
L27.0801 -56.6018
L26.9695 -56.2292
L26.8623 -55.8573
L26.7589 -55.4862
L26.6591 -55.1162
L26.563 -54.7475
L26.4707 -54.3802
L26.3821 -54.0147
L26.2972 -53.651
L26.2159 -53.2893
L26.1383 -52.9297
L26.0642 -52.5724
L25.9936 -52.2173
L25.9264 -51.8647
L25.8626 -51.5146
L25.802 -51.1669
L25.7446 -50.8219
L25.6902 -50.4795
L25.6389 -50.1398
L25.5905 -49.8028
L25.5449 -49.4684
L25.5021 -49.1368
L25.4619 -48.8078
L25.4244 -48.4816
L25.3894 -48.158
L25.3568 -47.8371
L25.3265 -47.5188
L25.2986 -47.2031
L25.2729 -46.89
L25.2493 -46.5794
L25.2279 -46.2713
L25.2084 -45.9657
L25.1909 -45.6625
L25.1754 -45.3616
L25.1617 -45.063
L25.1498 -44.7667
L25.1396 -44.4726
L25.1312 -44.1806
L25.1244 -43.8907
L25.1192 -43.6028
L25.1156 -43.3169
L25.1135 -43.0329
L25.1129 -42.7508
L25.1138 -42.4704
L25.1161 -42.1917
L25.1198 -41.9147
L25.1249 -41.6392
L25.1313 -41.3653
L25.1391 -41.0929
L25.1481 -40.8218
L25.1584 -40.5521
L25.1699 -40.2836
L25.1827 -40.0163
L25.1967 -39.7502
L25.2119 -39.4851
L25.2283 -39.221
L25.2458 -38.9579
L25.2646 -38.6957
L25.2845 -38.4342
L25.3055 -38.1735
L25.3277 -37.9135
L25.351 -37.6541
L25.3754 -37.3952
L25.401 -37.1369
L25.4278 -36.879
L25.4556 -36.6214
L25.4846 -36.3641
L25.5461 -36.1071
L25.5785 -35.8502
L25.6122 -35.5934
L25.6469 -35.3367
L25.6829 -35.08
L25.7201 -34.8231
L25.7585 -34.5662
L25.7981 -34.309
L25.8389 -34.0516
L25.881 -33.7938
L25.9244 -33.5357
L25.9691 -33.277
L26.015 -33.0179
L26.0624 -32.7582
L26.1111 -32.4979
L26.1612 -32.2368
L26.2127 -31.975
L26.2657 -31.7124
L26.3201 -31.4489
L26.3761 -31.1844
L26.4336 -30.9189
L26.4927 -30.6524
L26.5534 -30.3847
L26.6157 -30.1159
L26.6798 -29.8458
L26.7456 -29.5744
L26.8132 -29.3017
L26.8826 -29.0275
L26.9539 -28.7519
L27.0271 -28.4747
L27.1023 -28.196
L27.1796 -27.9156
L27.2589 -27.6335
L27.3404 -27.3497
L27.424 -27.0641
L27.5099 -26.7767
L27.5982 -26.4875
L27.6888 -26.1963
L27.7819 -25.9031
L27.8775 -25.6079
L27.9756 -25.3108
L28.0765 -25.0115
L28.18 -24.7102
L28.2864 -24.4067
L28.3956 -24.1011
L28.5077 -23.7934
L28.6229 -23.4835
L28.7411 -23.1714
L28.8626 -22.8572
L28.9872 -22.5408
L29.1152 -22.2222
L29.2465 -21.9015
L29.3813 -21.5787
L29.5196 -21.2538
L29.6615 -20.9269
L29.8071 -20.598
L29.9563 -20.2672
L30.1093 -19.9345
L30.266 -19.6001
L30.4266 -19.2639
L30.591 -18.9262
L30.7593 -18.5871
L30.9314 -18.2466
L31.1074 -17.9049
L31.2871 -17.5621
L31.4706 -17.2185
L31.6576 -16.8743
L31.8482 -16.5295
L32.0421 -16.1844
L32.2392 -15.8393
L32.439 -15.4944
L32.6415 -15.1499
L32.846 -14.8061
L33.0521 -14.4634
L33.2593 -14.122
L33.4667 -13.7822
L33.6734 -13.4444
L33.8783 -13.1089
L34.0801 -12.7762
L34.277 -12.4465
L34.4671 -12.1204
L34.6478 -11.7982
L34.8163 -11.4805
L34.9689 -11.1676
L35.1016 -10.8602
L35.2094 -10.5587
L35.287 -10.2638
L35.3287 -9.9762
L35.3291 -9.69649
L35.283 -9.42543
L35.1868 -9.1638
L35.0384 -8.91235
L34.838 -8.67185
L34.5875 -8.44298
L34.2902 -8.22636
L33.9505 -8.02256
L33.5732 -7.83202
L33.0736 -7.65514
L32.5793 -7.65064
L32.086 -7.70603
L31.5939 -7.77004
L31.1032 -7.84265
L30.6139 -7.92384
L30.1263 -8.01358
L29.6405 -8.11184
L29.1566 -8.2186
L28.6748 -8.33382
L28.1952 -8.45747
L27.718 -8.5895
L27.2434 -8.72989
L26.7714 -8.87858
L26.3022 -9.03554
L25.8359 -9.20071
L25.3728 -9.37404
L24.9129 -9.55548
L24.4564 -9.74498
L24.0034 -9.94248
L23.554 -10.1479
L23.1084 -10.3612
L22.6668 -10.5823
L22.2292 -10.8112
L21.7959 -11.0477
L21.3668 -11.2919
L20.9422 -11.5435
L20.5222 -11.8026
L20.1069 -12.0691
L19.6964 -12.3429
L19.291 -12.6239
L18.8906 -12.912
L18.4954 -13.2071
L18.1055 -13.5092
L17.7211 -13.8181
L17.3423 -14.1338
L16.9691 -14.4561
L16.6018 -14.785
L16.2403 -15.1204
L15.8849 -15.4621
L15.5356 -15.8101
L15.1925 -16.1642
L14.8558 -16.5244
L14.5255 -16.8905
L14.2018 -17.2624
L13.8847 -17.64
L13.5743 -18.0233
L13.2708 -18.412
L12.9742 -18.806
L12.6846 -19.2053
L12.4021 -19.6098
L12.1268 -20.0192
L11.8587 -20.4334
L11.598 -20.8524
L11.3448 -21.2761
L11.099 -21.7042
L10.8609 -22.1367
L10.6304 -22.5734
L10.4076 -23.0141
L10.1926 -23.4589
L9.98552 -23.9074
L9.78633 -24.3597
L9.59513 -24.8155
L9.41197 -25.2747
L9.23691 -25.7371
L9.07 -26.2027
L8.91129 -26.6713
L8.76083 -27.1427
L8.61868 -27.6168
L8.48486 -28.0935
L8.35942 -28.5726
L8.24241 -29.0539
L8.13384 -29.5373
L8.03377 -30.0228
L7.94222 -30.51
L7.85921 -30.9989
L7.78477 -31.4894
L7.71893 -31.9812
L7.66171 -32.4742
L7.61311 -32.9683
L7.57316 -33.4633
L7.54188 -33.9592
L7.51926 -34.4556
L7.50531 -34.9525
L7.50005 -35.4497
L7.50347 -35.9471
L7.51556 -36.4445
L7.53634 -36.9417
L7.56578 -37.4387
L7.60389 -37.9353
L7.65064 -38.4312
L7.70603 -38.9264
L7.77004 -39.4207
L7.84265 -39.914
L7.92384 -40.4061
L8.01358 -40.8968
L8.11184 -41.3861
L8.2186 -41.8737
L8.33382 -42.3595
L8.45747 -42.8434
L8.5895 -43.3252
L8.72989 -43.8048
L8.87858 -44.282
L9.03554 -44.7566
L9.20071 -45.2286
L9.37404 -45.6978
L9.55548 -46.1641
L9.74498 -46.6272
L9.94248 -47.0871
L10.1479 -47.5436
L10.3612 -47.9966
L10.5823 -48.446
L10.8112 -48.8916
L11.0477 -49.3332
L11.2919 -49.7708
L11.5435 -50.2041
L11.8026 -50.6332
L12.0691 -51.0578
L12.3429 -51.4778
L12.6239 -51.8931
L12.912 -52.3036
L13.2071 -52.709
L13.5092 -53.1094
L13.8181 -53.5046
L14.1338 -53.8945
L14.4561 -54.2789
L14.785 -54.6577
L15.1204 -55.0309
L15.4621 -55.3982
L15.8101 -55.7597
L16.1642 -56.1151
L16.5244 -56.4644
L16.8905 -56.8075
L17.2624 -57.1442
L17.64 -57.4745
L18.0233 -57.7982
L18.412 -58.1153
L18.806 -58.4257
L19.2053 -58.7292
L19.6098 -59.0258
L20.0192 -59.3154
L20.4334 -59.5979
L20.8524 -59.8732
L21.2761 -60.1413
L21.7042 -60.402
L22.1367 -60.6552
L22.5734 -60.901
L23.0141 -61.1391
L23.4589 -61.3696
L23.9074 -61.5924
L24.3597 -61.8074
L24.8155 -62.0145
L25.2747 -62.2137
L25.7371 -62.4049
L26.2027 -62.588
L26.6713 -62.7631
L27.1427 -62.93
L27.6168 -63.0887
L28.0935 -63.2392
z
" id="C0_1_612d6be7f5"/>
     <path d="
M38.8075 -64.2113
L39.1971 -63.9707
L39.6 -63.7249
L40.0121 -63.4735
L40.4302 -63.2161
L40.8515 -62.9527
L41.2738 -62.6833
L41.6952 -62.408
L42.1142 -62.127
L42.5295 -61.8404
L42.94 -61.5486
L43.3449 -61.2519
L43.7435 -60.9505
L44.1353 -60.6448
L44.5198 -60.3352
L44.8966 -60.0219
L45.2654 -59.7054
L45.6262 -59.3859
L45.9786 -59.0638
L46.3226 -58.7395
L46.6582 -58.4131
L46.9854 -58.0851
L47.3041 -57.7556
L47.6145 -57.425
L47.9165 -57.0935
L48.2102 -56.7613
L48.4958 -56.4287
L48.7734 -56.0958
L49.0431 -55.763
L49.305 -55.4302
L49.5593 -55.0978
L49.8062 -54.7657
L50.0457 -54.4343
L50.2781 -54.1036
L50.5035 -53.7737
L50.7221 -53.4447
L50.9341 -53.1168
L51.1395 -52.7899
L51.3386 -52.4642
L51.5316 -52.1397
L51.7185 -51.8164
L51.8996 -51.4945
L52.075 -51.1739
L52.2448 -50.8547
L52.4093 -50.5369
L52.5685 -50.2205
L52.7226 -49.9055
L52.8717 -49.5919
L53.016 -49.2797
L53.1556 -48.9689
L53.2906 -48.6595
L53.4212 -48.3515
L53.5474 -48.0449
L53.6694 -47.7396
L53.7873 -47.4356
L53.9012 -47.1328
L54.0111 -46.8313
L54.1173 -46.531
L54.2198 -46.2319
L54.3186 -45.9339
L54.4139 -45.637
L54.5057 -45.3412
L54.5942 -45.0463
L54.6793 -44.7524
L54.7612 -44.4594
L54.84 -44.1672
L54.9157 -43.8759
L54.9883 -43.5853
L55.0579 -43.2954
L55.1246 -43.0061
L55.1885 -42.7174
L55.2495 -42.4293
L55.3077 -42.1416
L55.3632 -41.8544
L55.416 -41.5675
L55.4661 -41.2809
L55.5136 -40.9946
L55.5585 -40.7085
L55.6007 -40.4224
L55.6405 -40.1365
L55.6777 -39.8505
L55.7123 -39.5645
L55.7445 -39.2784
L55.7742 -38.9921
L55.8014 -38.7055
L55.8261 -38.4187
L55.8483 -38.1315
L55.8681 -37.8438
L55.8854 -37.5557
L55.9002 -37.267
L55.9125 -36.9777
L55.9223 -36.6877
L55.9296 -36.3969
L55.9344 -36.1054
L55.9366 -35.8129
L55.9363 -35.5196
L55.9333 -35.2252
L55.9277 -34.9297
L55.9195 -34.6332
L55.9086 -34.3354
L55.8949 -34.0364
L55.8784 -33.736
L55.8592 -33.4343
L55.837 -33.1311
L55.8119 -32.8264
L55.7839 -32.5202
L55.7528 -32.2123
L55.7186 -31.9027
L55.6813 -31.5914
L55.6407 -31.2782
L55.5968 -30.9632
L55.5495 -30.6462
L55.4987 -30.3273
L55.4444 -30.0063
L55.3864 -29.6833
L55.3247 -29.3581
L55.2592 -29.0307
L55.1897 -28.7012
L55.1161 -28.3693
L55.0384 -28.0351
L54.9564 -27.6986
L54.87 -27.3597
L54.779 -27.0184
L54.6834 -26.6747
L54.583 -26.3286
L54.4777 -25.98
L54.3673 -25.6289
L54.2517 -25.2753
L54.1308 -24.9193
L54.0043 -24.5609
L53.8722 -24.2
L53.7342 -23.8367
L53.5902 -23.4711
L53.4401 -23.1032
L53.2837 -22.733
L53.1209 -22.3606
L52.9514 -21.9861
L52.7751 -21.6096
L52.5918 -21.2312
L52.4015 -20.851
L52.2039 -20.4692
L51.9989 -20.0858
L51.7864 -19.7011
L51.5662 -19.3152
L51.3384 -18.9284
L51.1026 -18.5408
L50.859 -18.1527
L50.6074 -17.7644
L50.3478 -17.376
L50.0802 -16.9879
L49.8048 -16.6004
L49.5215 -16.2138
L49.2305 -15.8285
L48.932 -15.4448
L48.6264 -15.063
L48.314 -14.6837
L47.9953 -14.3071
L47.6708 -13.9337
L47.3413 -13.564
L47.0078 -13.1984
L46.6715 -12.8372
L46.3336 -12.4811
L45.996 -12.1303
L45.6608 -11.7854
L45.3304 -11.4468
L45.0081 -11.1149
L44.6975 -10.7901
L44.4029 -10.4726
L44.1293 -10.1629
L43.8822 -9.86117
L43.6676 -9.56756
L43.4912 -9.28222
L43.3584 -9.00523
L43.2729 -8.73665
L43.7276 -8.47653
L44.2052 -8.56764
L44.6803 -8.70669
L45.1527 -8.85404
L45.6224 -9.00967
L46.0891 -9.17352
L46.5527 -9.34554
L47.0132 -9.52568
L47.4702 -9.71388
L47.9238 -9.91009
L48.3738 -10.1142
L48.82 -10.3263
L49.2622 -10.5462
L49.7005 -10.7738
L50.1345 -11.0091
L50.5643 -11.252
L50.9896 -11.5024
L51.4104 -11.7603
L51.8265 -12.0256
L52.2377 -12.2982
L52.644 -12.5781
L53.0452 -12.865
L53.4413 -13.159
L53.832 -13.46
L54.2173 -13.7678
L54.597 -14.0824
L54.9711 -14.4037
L55.3394 -14.7315
L55.7018 -15.0659
L56.0582 -15.4066
L56.4085 -15.7535
L56.7526 -16.1067
L57.0903 -16.4659
L57.4216 -16.831
L57.7465 -17.202
L58.0646 -17.5788
L58.3761 -17.9611
L58.6807 -18.3489
L58.9785 -18.7421
L59.2692 -19.1406
L59.5529 -19.5442
L59.8293 -19.9528
L60.0986 -20.3663
L60.3604 -20.7846
L60.6149 -21.2075
L60.8618 -21.6349
L61.1012 -22.0666
L61.333 -22.5027
L61.557 -22.9428
L61.7732 -23.3869
L61.9816 -23.8349
L62.1821 -24.2865
L62.3746 -24.7417
L62.559 -25.2004
L62.7354 -25.6623
L62.9036 -26.1274
L63.0637 -26.5955
L63.2155 -27.0665
L63.359 -27.5402
L63.4941 -28.0164
L63.6209 -28.4951
L63.7393 -28.9761
L63.8492 -29.4592
L63.9507 -29.9444
L64.0436 -30.4313
L64.128 -30.92
L64.2038 -31.4102
L64.271 -31.9018
L64.3296 -32.3946
L64.3796 -32.8886
L64.421 -33.3835
L64.4537 -33.8792
L64.4777 -34.3755
L64.493 -34.8723
L64.4997 -35.3695
L64.4977 -35.8669
L64.487 -36.3643
L64.4676 -36.8616
L64.4396 -37.3586
L64.4028 -37.8552
L64.3575 -38.3513
L64.3035 -38.8466
L64.2409 -39.3411
L64.1696 -39.8346
L64.0898 -40.3268
L64.0015 -40.8178
L63.9046 -41.3073
L63.7992 -41.7952
L63.6853 -42.2813
L63.563 -42.7655
L63.4324 -43.2477
L63.2933 -43.7276
L63.146 -44.2052
L62.9903 -44.6803
L62.8265 -45.1527
L62.6545 -45.6224
L62.4743 -46.0891
L62.2861 -46.5527
L62.0899 -47.0132
L61.8858 -47.4702
L61.6737 -47.9238
L61.4538 -48.3738
L61.2262 -48.82
L60.9909 -49.2622
L60.748 -49.7005
L60.4976 -50.1345
L60.2397 -50.5643
L59.9744 -50.9896
L59.7018 -51.4104
L59.4219 -51.8265
L59.135 -52.2377
L58.841 -52.644
L58.54 -53.0452
L58.2322 -53.4413
L57.9176 -53.832
L57.5963 -54.2173
L57.2685 -54.597
L56.9341 -54.9711
L56.5934 -55.3394
L56.2465 -55.7018
L55.8933 -56.0582
L55.5341 -56.4085
L55.169 -56.7526
L54.798 -57.0903
L54.4212 -57.4216
L54.0389 -57.7465
L53.6511 -58.0646
L53.2579 -58.3761
L52.8594 -58.6807
L52.4558 -58.9785
L52.0472 -59.2692
L51.6337 -59.5529
L51.2154 -59.8293
L50.7925 -60.0986
L50.3651 -60.3604
L49.9334 -60.6149
L49.4973 -60.8618
L49.0572 -61.1012
L48.6131 -61.333
L48.1651 -61.557
L47.7135 -61.7732
L47.2583 -61.9816
L46.7996 -62.1821
L46.3377 -62.3746
L45.8726 -62.559
L45.4045 -62.7354
L44.9335 -62.9036
L44.4598 -63.0637
L43.9836 -63.2155
L43.5049 -63.359
L43.0239 -63.4941
L42.5408 -63.6209
L42.0556 -63.7393
L41.5687 -63.8492
L41.08 -63.9507
L40.5898 -64.0436
L40.0982 -64.128
L39.6054 -64.2038
z
" id="C0_2_98df8d365b"/>
    </defs>
    <g clip-path="url(#p1bffca34e9)">
     <use style="fill:#ff0000;stroke:#000000;stroke-width:2.0;" x="0.0" xlink:href="#C0_0_a811fe30f3" y="72.0"/>
    </g>
    <g clip-path="url(#p1bffca34e9)">
     <use style="fill:#ffffff;stroke:#000000;stroke-width:2.0;" x="0.0" xlink:href="#C0_1_612d6be7f5" y="72.0"/>
    </g>
    <g clip-path="url(#p1bffca34e9)">
     <use style="fill:#ffffff;stroke:#000000;stroke-width:2.0;" x="0.0" xlink:href="#C0_2_98df8d365b" y="72.0"/>
    </g>
   </g>
  </g>
 </g>
 <defs>
  <clipPath id="p1bffca34e9">
   <rect height="72.0" width="72.0" x="0.0" y="0.0"/>
  </clipPath>
 </defs>
</svg>
