<?xml version="1.0" encoding="utf-8" standalone="no"?>
<!DOCTYPE svg PUBLIC "-//W3C//DTD SVG 1.1//EN"
  "http://www.w3.org/Graphics/SVG/1.1/DTD/svg11.dtd">
<!-- Created with matplotlib (http://matplotlib.org/) -->
<svg height="72pt" version="1.1" viewBox="0 0 72 72" width="72pt" xmlns="http://www.w3.org/2000/svg" xmlns:xlink="http://www.w3.org/1999/xlink">
 <defs>
  <style type="text/css">
*{stroke-linecap:butt;stroke-linejoin:round;}
  </style>
 </defs>
 <g id="figure_1">
  <g id="patch_1">
   <path d="
M0 72
L72 72
L72 0
L0 0
z
" style="fill:none;"/>
  </g>
  <g id="axes_1">
   <g id="PatchCollection_1">
    <defs>
     <path d="
M36 -7.5
C43.5583 -7.5 50.808 -10.5029 56.1525 -15.8475
C61.4971 -21.192 64.5 -28.4417 64.5 -36
C64.5 -43.5583 61.4971 -50.808 56.1525 -56.1525
C50.808 -61.4971 43.5583 -64.5 36 -64.5
C28.4417 -64.5 21.192 -61.4971 15.8475 -56.1525
C10.5029 -50.808 7.5 -43.5583 7.5 -36
C7.5 -28.4417 10.5029 -21.192 15.8475 -15.8475
C21.192 -10.5029 28.4417 -7.5 36 -7.5
z
" id="C0_0_a811fe30f3"/>
     <path d="
M31.7795 -26.1521
L31.5424 -26.2608
L31.3059 -26.3709
L31.0699 -26.4822
L30.8343 -26.595
L30.599 -26.7091
L30.3641 -26.8247
L30.1295 -26.9417
L29.895 -27.0603
L29.6608 -27.1803
L29.4266 -27.302
L29.1925 -27.4252
L28.9585 -27.5501
L28.7244 -27.6767
L28.4903 -27.805
L28.2561 -27.9351
L28.0217 -28.0671
L27.7872 -28.2009
L27.5524 -28.3366
L27.3173 -28.4744
L27.082 -28.6141
L26.8463 -28.756
L26.6102 -28.9
L26.3737 -29.0462
L26.1368 -29.1947
L25.8994 -29.3455
L25.6615 -29.4987
L25.4231 -29.6544
L25.1842 -29.8126
L24.9447 -29.9735
L24.7045 -30.137
L24.4638 -30.3032
L24.2225 -30.4723
L23.9805 -30.6443
L23.7379 -30.8192
L23.4947 -30.9972
L23.2508 -31.1784
L23.0063 -31.3628
L22.7611 -31.5506
L22.5154 -31.7417
L22.269 -31.9363
L22.0221 -32.1346
L21.7747 -32.3365
L21.5267 -32.5422
L21.2783 -32.7517
L21.0294 -32.9652
L20.7802 -33.1828
L20.5307 -33.4046
L20.281 -33.6306
L20.0312 -33.8609
L19.7813 -34.0957
L19.5315 -34.3351
L19.2818 -34.5791
L19.0325 -34.8279
L18.7836 -35.0814
L18.5353 -35.3399
L18.2878 -35.6035
L18.0412 -35.8721
L17.7958 -36.1459
L17.5517 -36.4251
L17.3093 -36.7095
L17.0687 -36.9994
L16.8303 -37.2947
L16.5943 -37.5957
L16.3611 -37.9022
L16.1311 -38.2143
L15.9045 -38.5322
L15.6819 -38.8558
L15.4638 -39.1851
L15.2505 -39.5202
L15.0426 -39.8611
L14.8408 -40.2077
L14.6457 -40.56
L14.4579 -40.9179
L14.2783 -41.2815
L14.1076 -41.6506
L13.9469 -42.0252
L13.797 -42.405
L13.6592 -42.79
L13.5346 -43.1799
L13.4246 -43.5745
L13.3306 -43.9736
L13.2542 -44.3767
L13.197 -44.7835
L13.1607 -45.1934
L13.147 -45.606
L13.1576 -46.0205
L13.194 -46.4362
L13.2577 -46.8521
L13.3495 -47.2673
L13.47 -47.6807
L13.6195 -48.0913
L13.7974 -48.4978
L14.0029 -48.8993
L14.2348 -49.2945
L14.4915 -49.6827
L14.7712 -50.0627
L15.072 -50.434
L15.3918 -50.7958
L15.7289 -51.1475
L16.0813 -51.4888
L16.4473 -51.8193
L16.8252 -52.1387
L17.2136 -52.4468
L17.611 -52.7435
L18.0162 -53.0288
L18.428 -53.3027
L18.8454 -53.5651
L19.2674 -53.8162
L19.6931 -54.056
L20.1218 -54.2847
L20.5527 -54.5025
L20.9851 -54.7095
L21.4186 -54.906
L21.8524 -55.0921
L22.2862 -55.268
L22.7195 -55.4341
L23.1519 -55.5905
L23.5829 -55.7375
L24.0124 -55.8753
L24.4399 -56.0042
L24.8653 -56.1245
L25.2882 -56.2364
L25.7086 -56.3402
L26.1261 -56.436
L26.5406 -56.5242
L26.952 -56.605
L27.3602 -56.6787
L27.765 -56.7454
L28.1664 -56.8055
L28.5643 -56.8591
L28.9587 -56.9064
L29.3494 -56.9477
L29.7365 -56.9831
L30.12 -57.013
L30.4997 -57.0374
L30.8758 -57.0565
L31.2483 -57.0705
L31.6171 -57.0797
L31.9822 -57.0841
L32.3438 -57.0839
L32.7018 -57.0793
L33.0563 -57.0704
L33.4072 -57.0573
L33.7548 -57.0402
L34.0989 -57.0193
L34.4397 -56.9945
L34.7772 -56.9661
L35.1115 -56.9341
L35.4427 -56.8986
L35.7707 -56.8598
L36.0957 -56.8177
L36.4178 -56.7724
L36.7369 -56.7241
L37.0532 -56.6726
L37.3667 -56.6182
L37.6776 -56.5609
L37.9858 -56.5008
L38.2914 -56.4378
L38.5946 -56.3722
L38.8953 -56.3038
L39.1937 -56.2328
L39.4898 -56.1592
L39.7836 -56.083
L40.0754 -56.0043
L40.365 -55.923
L40.6526 -55.8393
L40.9383 -55.7531
L41.2221 -55.6644
L41.5041 -55.5733
L41.7843 -55.4798
L42.0628 -55.3839
L42.3397 -55.2855
L42.615 -55.1847
L42.8889 -55.0815
L43.1612 -54.9759
L43.4322 -54.8679
L43.7018 -54.7574
L43.9701 -54.6445
L44.2372 -54.529
L44.5032 -54.4111
L44.768 -54.2907
L45.0317 -54.1678
L45.2944 -54.0423
L45.5561 -53.9142
L45.8169 -53.7835
L46.0768 -53.6501
L46.3359 -53.514
L46.5942 -53.3751
L46.8517 -53.2335
L47.1085 -53.089
L47.3646 -52.9417
L47.6201 -52.7914
L47.875 -52.6381
L48.1293 -52.4818
L48.383 -52.3224
L48.6362 -52.1598
L48.8889 -51.994
L49.1412 -51.8248
L49.393 -51.6523
L49.6444 -51.4763
L49.8953 -51.2967
L50.1458 -51.1136
L50.396 -50.9268
L50.6458 -50.7361
L50.8951 -50.5416
L51.1441 -50.3431
L51.3928 -50.1406
L51.641 -49.9339
L51.8888 -49.7229
L52.1362 -49.5076
L52.3831 -49.2878
L52.6296 -49.0634
L52.8756 -48.8343
L53.1211 -48.6004
L53.3659 -48.3616
L53.6102 -48.1178
L53.8538 -47.8687
L54.0966 -47.6144
L54.3386 -47.3547
L54.5798 -47.0895
L54.82 -46.8186
L55.0591 -46.5419
L55.297 -46.2592
L55.5337 -45.9706
L55.769 -45.6757
L56.0028 -45.3746
L56.2349 -45.0671
L56.4651 -44.753
L56.6934 -44.4323
L56.9195 -44.1048
L57.1433 -43.7704
L57.3645 -43.429
L57.5829 -43.0805
L57.7983 -42.7249
L58.0105 -42.362
L58.2191 -41.9917
L58.4239 -41.6141
L58.6246 -41.2291
L58.8209 -40.8365
L59.0124 -40.4365
L59.1988 -40.0291
L59.3797 -39.6141
L59.5547 -39.1918
L59.7234 -38.7622
L59.8854 -38.3254
L60.0403 -37.8814
L60.1875 -37.4306
L60.3265 -36.9732
L60.4568 -36.5093
L60.5779 -36.0393
L60.6892 -35.5637
L60.7901 -35.0827
L60.88 -34.597
L60.9581 -34.1071
L61.0239 -33.6136
L61.0765 -33.1175
L61.1153 -32.6195
L61.1394 -32.1206
L61.148 -31.622
L61.1403 -31.1249
L61.1154 -30.6307
L61.0724 -30.1411
L61.0104 -29.6577
L60.9286 -29.1823
L60.8263 -28.7169
L60.7027 -28.2634
L60.5573 -27.8239
L60.3899 -27.4001
L60.2005 -26.9937
L59.9894 -26.6062
L59.7572 -26.2386
L59.5048 -25.8915
L59.2334 -25.5653
L58.9443 -25.2598
L58.6393 -24.9747
L58.3198 -24.7093
L57.9874 -24.4629
L57.6438 -24.2344
L57.2903 -24.023
L56.9285 -23.8277
L56.5595 -23.6475
L56.1845 -23.4816
L55.8046 -23.329
L55.4206 -23.1891
L55.0336 -23.061
L54.6441 -22.9441
L54.2529 -22.8377
L53.8606 -22.7413
L53.4677 -22.6544
L53.0748 -22.5763
L52.6822 -22.5067
L52.2904 -22.4451
L51.8997 -22.3911
L51.5105 -22.3443
L51.123 -22.3043
L50.7374 -22.2709
L50.354 -22.2436
L49.973 -22.2222
L49.5946 -22.2064
L49.2189 -22.1959
L48.846 -22.1904
L48.4761 -22.1898
L48.1093 -22.1937
L47.7455 -22.202
L47.3851 -22.2144
L47.0278 -22.2307
L46.6739 -22.2508
L46.3233 -22.2745
L45.9761 -22.3016
L45.6322 -22.3319
L45.2918 -22.3653
L44.9546 -22.4016
L44.6209 -22.4407
L44.2905 -22.4826
L43.9633 -22.5269
L43.6395 -22.5737
L43.3189 -22.6229
L43.0016 -22.6742
L42.6873 -22.7277
L42.3762 -22.7833
L42.0682 -22.8408
L41.7632 -22.9002
L41.4611 -22.9613
L41.162 -23.0243
L40.8657 -23.0888
L40.5721 -23.155
L40.2813 -23.2228
L39.9931 -23.292
L39.7076 -23.3627
L39.4245 -23.4349
L39.1439 -23.5083
L38.8657 -23.5832
L38.5898 -23.6593
L38.3162 -23.7367
L38.0448 -23.8153
L37.7754 -23.8951
L37.5082 -23.9761
L37.2429 -24.0583
L36.9796 -24.1417
L36.7181 -24.2262
L36.4584 -24.3118
L36.2004 -24.3986
L35.9441 -24.4864
L35.6893 -24.5754
L35.4361 -24.6655
L35.1844 -24.7566
L34.9341 -24.8489
L34.6851 -24.9423
L34.4373 -25.0368
L34.1908 -25.1323
L33.9455 -25.2291
L33.7012 -25.3269
L33.458 -25.4259
L33.2157 -25.5261
L32.9744 -25.6274
L32.7339 -25.7299
L32.4942 -25.8336
L32.2553 -25.9385
z
" id="C0_1_4c1a30e4ef"/>
    </defs>
    <g clip-path="url(#p1bffca34e9)">
     <use style="fill:#ffffff;stroke:#000000;stroke-width:2.0;" x="0.0" xlink:href="#C0_0_a811fe30f3" y="72.0"/>
    </g>
    <g clip-path="url(#p1bffca34e9)">
     <use style="fill:#ff0000;stroke:#000000;stroke-width:2.0;" x="0.0" xlink:href="#C0_1_4c1a30e4ef" y="72.0"/>
    </g>
   </g>
  </g>
 </g>
 <defs>
  <clipPath id="p1bffca34e9">
   <rect height="72.0" width="72.0" x="0.0" y="0.0"/>
  </clipPath>
 </defs>
</svg>
