<?xml version="1.0" encoding="utf-8" standalone="no"?>
<!DOCTYPE svg PUBLIC "-//W3C//DTD SVG 1.1//EN"
  "http://www.w3.org/Graphics/SVG/1.1/DTD/svg11.dtd">
<!-- Created with matplotlib (http://matplotlib.org/) -->
<svg height="72pt" version="1.1" viewBox="0 0 72 72" width="72pt" xmlns="http://www.w3.org/2000/svg" xmlns:xlink="http://www.w3.org/1999/xlink">
 <defs>
  <style type="text/css">
*{stroke-linecap:butt;stroke-linejoin:round;}
  </style>
 </defs>
 <g id="figure_1">
  <g id="patch_1">
   <path d="
M0 72
L72 72
L72 0
L0 0
z
" style="fill:none;"/>
  </g>
  <g id="axes_1">
   <g id="PatchCollection_1">
    <defs>
     <path d="
M36 -7.5
C43.5583 -7.5 50.808 -10.5029 56.1525 -15.8475
C61.4971 -21.192 64.5 -28.4417 64.5 -36
C64.5 -43.5583 61.4971 -50.808 56.1525 -56.1525
C50.808 -61.4971 43.5583 -64.5 36 -64.5
C28.4417 -64.5 21.192 -61.4971 15.8475 -56.1525
C10.5029 -50.808 7.5 -43.5583 7.5 -36
C7.5 -28.4417 10.5029 -21.192 15.8475 -15.8475
C21.192 -10.5029 28.4417 -7.5 36 -7.5
z
" id="C0_0_a811fe30f3"/>
     <path d="
M51.6694 -59.7652
L51.4062 -59.6756
L51.1566 -59.5704
L50.9206 -59.45
L50.6982 -59.3149
L50.4892 -59.1656
L50.2931 -59.0029
L50.1098 -58.8271
L49.9385 -58.6391
L49.779 -58.4395
L49.6305 -58.2289
L49.4924 -58.008
L49.3641 -57.7775
L49.2449 -57.5381
L49.1342 -57.2904
L49.0313 -57.035
L48.9356 -56.7727
L48.8464 -56.5039
L48.7632 -56.2292
L48.6854 -55.9493
L48.6124 -55.6646
L48.5438 -55.3756
L48.4791 -55.0827
L48.4179 -54.7865
L48.3597 -54.4874
L48.3042 -54.1857
L48.2511 -53.8818
L48.2001 -53.576
L48.1508 -53.2686
L48.103 -52.96
L48.0566 -52.6505
L48.0112 -52.3402
L47.9668 -52.0294
L47.9231 -51.7184
L47.88 -51.4073
L47.8373 -51.0962
L47.795 -50.7855
L47.7529 -50.4752
L47.711 -50.1655
L47.6692 -49.8564
L47.6273 -49.5482
L47.5854 -49.2409
L47.5433 -48.9346
L47.5011 -48.6293
L47.4587 -48.3252
L47.416 -48.0224
L47.373 -47.7208
L47.3297 -47.4205
L47.286 -47.1216
L47.242 -46.8241
L47.1976 -46.528
L47.1529 -46.2333
L47.1077 -45.9401
L47.0621 -45.6484
L47.016 -45.3581
L46.9696 -45.0693
L46.9227 -44.7819
L46.8753 -44.4961
L46.8275 -44.2116
L46.7792 -43.9286
L46.7305 -43.647
L46.6813 -43.3668
L46.6317 -43.088
L46.5816 -42.8106
L46.531 -42.5344
L46.4799 -42.2595
L46.4284 -41.986
L46.3764 -41.7136
L46.3239 -41.4424
L46.2709 -41.1724
L46.2174 -40.9035
L46.1635 -40.6357
L46.109 -40.369
L46.0541 -40.1032
L45.9986 -39.8384
L45.9427 -39.5746
L45.8862 -39.3116
L45.8293 -39.0494
L45.7718 -38.7881
L45.7138 -38.5275
L45.6552 -38.2676
L45.5962 -38.0084
L45.5365 -37.7498
L45.4763 -37.4917
L45.4156 -37.2342
L45.3543 -36.9772
L45.2924 -36.7206
L45.2299 -36.4644
L45.1669 -36.2085
L45.1032 -35.9529
L45.0389 -35.6976
L44.9084 -35.4425
L44.8422 -35.1875
L44.7753 -34.9327
L44.7078 -34.6779
L44.6396 -34.4231
L44.5706 -34.1683
L44.501 -33.9134
L44.4306 -33.6584
L44.3595 -33.4032
L44.2876 -33.1478
L44.215 -32.8922
L44.1416 -32.6362
L44.0673 -32.3799
L43.9923 -32.1232
L43.9164 -31.8661
L43.8397 -31.6085
L43.7621 -31.3504
L43.6836 -31.0917
L43.6042 -30.8324
L43.5239 -30.5724
L43.4427 -30.3117
L43.3606 -30.0503
L43.2775 -29.7882
L43.1934 -29.5252
L43.1083 -29.2614
L43.0222 -28.9967
L42.935 -28.731
L42.8469 -28.4644
L42.7576 -28.1969
L42.6674 -27.9282
L42.576 -27.6586
L42.4836 -27.3878
L42.39 -27.116
L42.2953 -26.8429
L42.1996 -26.5688
L42.1027 -26.2934
L42.0047 -26.0168
L41.9055 -25.739
L41.8052 -25.46
L41.7038 -25.1797
L41.6013 -24.8981
L41.4977 -24.6153
L41.393 -24.3312
L41.2872 -24.0458
L41.1803 -23.7591
L41.0725 -23.4712
L40.9636 -23.182
L40.8538 -22.8916
L40.743 -22.5999
L40.6314 -22.307
L40.519 -22.0129
L40.4059 -21.7177
L40.2921 -21.4214
L40.1777 -21.1241
L40.0629 -20.8257
L39.9477 -20.5264
L39.8323 -20.2261
L39.7169 -19.9251
L39.6015 -19.6232
L39.4863 -19.3207
L39.3716 -19.0177
L39.2576 -18.7141
L39.1444 -18.4101
L39.0325 -18.1059
L38.922 -17.8014
L38.8132 -17.497
L38.7065 -17.1926
L38.6024 -16.8884
L38.5011 -16.5847
L38.4032 -16.2814
L38.3091 -15.9788
L38.2193 -15.6771
L38.1344 -15.3764
L38.055 -15.0769
L37.9817 -14.7789
L37.9152 -14.4824
L37.8562 -14.1878
L37.8055 -13.8951
L37.7637 -13.6048
L37.7318 -13.3169
L37.7105 -13.0317
L37.7007 -12.7495
L37.7032 -12.4706
L37.7187 -12.1951
L37.7482 -11.9235
L37.7923 -11.6559
L37.8518 -11.3927
L37.9273 -11.1341
L38.0194 -10.8805
L38.1286 -10.6323
L38.2552 -10.3897
L38.3996 -10.1531
L38.5619 -9.92284
L38.7422 -9.69928
L38.9405 -9.48277
L39.1565 -9.27366
L39.39 -9.0723
L39.6406 -8.87903
L39.9078 -8.69419
L40.1912 -8.51811
L40.4901 -8.35109
L40.804 -8.19344
L41.3164 -8.04543
L41.8043 -8.00025
L42.2903 -8.0973
L42.7745 -8.20285
L43.2566 -8.31686
L43.7365 -8.43931
L44.2141 -8.57016
L44.6891 -8.70935
L45.1615 -8.85687
L45.6311 -9.01264
L46.0977 -9.17665
L46.5613 -9.34882
L47.0217 -9.5291
L47.4787 -9.71746
L47.9322 -9.91382
L48.3821 -10.1181
L48.8282 -10.3303
L49.2704 -10.5503
L49.7086 -10.7781
L50.1426 -11.0135
L50.5723 -11.2566
L50.9975 -11.5072
L51.4182 -11.7652
L51.8341 -12.0306
L52.2453 -12.3034
L52.6515 -12.5833
L53.0526 -12.8704
L53.4486 -13.1646
L53.8392 -13.4656
L54.2244 -13.7736
L54.604 -14.0883
L54.978 -14.4097
L55.3462 -14.7377
L55.7085 -15.0721
L56.0648 -15.413
L56.4149 -15.7601
L56.7589 -16.1133
L57.0965 -16.4726
L57.4277 -16.8379
L57.7524 -17.209
L58.0705 -17.5858
L58.3818 -17.9683
L58.6863 -18.3562
L58.984 -18.7495
L59.2746 -19.1481
L59.5581 -19.5518
L59.8344 -19.9605
L60.1035 -20.374
L60.3652 -20.7924
L60.6196 -21.2154
L60.8664 -21.6429
L61.1056 -22.0747
L61.3372 -22.5108
L61.5611 -22.951
L61.7772 -23.3952
L61.9854 -23.8432
L62.1857 -24.2949
L62.3781 -24.7502
L62.5624 -25.209
L62.7386 -25.671
L62.9067 -26.1361
L63.0666 -26.6043
L63.2182 -27.0753
L63.3616 -27.549
L63.4966 -28.0253
L63.6232 -28.5041
L63.7414 -28.9851
L63.8512 -29.4683
L63.9525 -29.9534
L64.0452 -30.4404
L64.1295 -30.9291
L64.2051 -31.4193
L64.2722 -31.9109
L64.3307 -32.4038
L64.3805 -32.8978
L64.4217 -33.3927
L64.4542 -33.8884
L64.478 -34.3847
L64.4932 -34.8816
L64.4997 -35.3788
L64.4976 -35.8761
L64.4867 -36.3735
L64.4672 -36.8708
L64.4389 -37.3679
L64.4021 -37.8645
L64.3566 -38.3605
L64.3024 -38.8558
L64.2396 -39.3503
L64.1682 -39.8437
L64.0883 -40.336
L63.9997 -40.8269
L63.9027 -41.3164
L63.7972 -41.8043
L63.6831 -42.2903
L63.5607 -42.7745
L63.4298 -43.2566
L63.2906 -43.7365
L63.1431 -44.2141
L62.9874 -44.6891
L62.8234 -45.1615
L62.6512 -45.6311
L62.4709 -46.0977
L62.2825 -46.5613
L62.0862 -47.0217
L61.8819 -47.4787
L61.6697 -47.9322
L61.4497 -48.3821
L61.2219 -48.8282
L60.9865 -49.2704
L60.7434 -49.7086
L60.4928 -50.1426
L60.2348 -50.5723
L59.9694 -50.9975
L59.6966 -51.4182
L59.4167 -51.8341
L59.1296 -52.2453
L58.8354 -52.6515
L58.5344 -53.0526
L58.2264 -53.4486
L57.9117 -53.8392
L57.5903 -54.2244
L57.2623 -54.604
L56.9279 -54.978
L56.587 -55.3462
L56.2399 -55.7085
L55.8867 -56.0648
L55.5274 -56.4149
L55.1621 -56.7589
L54.791 -57.0965
L54.4142 -57.4277
L54.0317 -57.7524
L53.6438 -58.0705
L53.2505 -58.3818
L52.8519 -58.6863
L52.4482 -58.984
z
" id="C0_1_2dbc61ccd8"/>
     <path d="
M30.8888 -63.9793
L30.6209 -63.7345
L30.3475 -63.487
L30.0695 -63.2367
L29.7877 -62.9837
L29.503 -62.7278
L29.2161 -62.4693
L28.9278 -62.208
L28.6386 -61.9441
L28.3492 -61.6777
L28.0601 -61.4088
L27.7719 -61.1375
L27.4851 -60.864
L27.1999 -60.5882
L26.9169 -60.3105
L26.6363 -60.0308
L26.3585 -59.7493
L26.0837 -59.4661
L25.8122 -59.1813
L25.5441 -58.8952
L25.2797 -58.6077
L25.019 -58.319
L24.7623 -58.0292
L24.5097 -57.7385
L24.2611 -57.447
L24.0167 -57.1547
L23.7766 -56.8617
L23.5408 -56.5683
L23.3093 -56.2744
L23.0821 -55.9801
L22.8593 -55.6855
L22.6408 -55.3908
L22.4266 -55.0959
L22.2167 -54.801
L22.0111 -54.506
L21.8097 -54.2111
L21.6125 -53.9164
L21.4194 -53.6217
L21.2305 -53.3273
L21.0456 -53.0331
L20.8647 -52.7392
L20.6878 -52.4455
L20.5148 -52.1522
L20.3456 -51.8592
L20.1802 -51.5665
L20.0185 -51.2742
L19.8605 -50.9823
L19.706 -50.6908
L19.5551 -50.3996
L19.4077 -50.1088
L19.2637 -49.8184
L19.1231 -49.5283
L18.9857 -49.2386
L18.8516 -48.9492
L18.7207 -48.6602
L18.593 -48.3715
L18.4683 -48.083
L18.3467 -47.7949
L18.228 -47.5069
L18.1123 -47.2192
L17.9994 -46.9317
L17.8894 -46.6444
L17.7822 -46.3572
L17.6778 -46.0701
L17.576 -45.7831
L17.4769 -45.4961
L17.3805 -45.2091
L17.2867 -44.9221
L17.1954 -44.635
L17.1067 -44.3478
L17.0205 -44.0605
L16.9367 -43.773
L16.8554 -43.4852
L16.7766 -43.1972
L16.7001 -42.9089
L16.626 -42.6202
L16.5543 -42.3311
L16.485 -42.0416
L16.4179 -41.7516
L16.3532 -41.461
L16.2909 -41.1699
L16.2308 -40.8782
L16.173 -40.5858
L16.1175 -40.2926
L16.0642 -39.9987
L16.0133 -39.704
L15.9646 -39.4085
L15.9183 -39.112
L15.8742 -38.8145
L15.8324 -38.5161
L15.7929 -38.2166
L15.7558 -37.916
L15.721 -37.6142
L15.6885 -37.3113
L15.6584 -37.0071
L15.6306 -36.7016
L15.6053 -36.3948
L15.5824 -36.0866
L15.5619 -35.777
L15.5439 -35.4659
L15.5284 -35.1533
L15.5154 -34.8391
L15.505 -34.5233
L15.4972 -34.2059
L15.492 -33.8868
L15.4895 -33.5659
L15.4897 -33.2433
L15.4927 -32.9189
L15.4984 -32.5927
L15.507 -32.2647
L15.5185 -31.9347
L15.5329 -31.6029
L15.5503 -31.2691
L15.5708 -30.9333
L15.5943 -30.5956
L15.6209 -30.2559
L15.6508 -29.9142
L15.6839 -29.5705
L15.7202 -29.2248
L15.7599 -28.877
L15.803 -28.5273
L15.8496 -28.1756
L15.8996 -27.822
L15.9532 -27.4664
L16.0103 -27.1089
L16.0711 -26.7495
L16.1355 -26.3884
L16.2037 -26.0254
L16.2755 -25.6607
L16.3511 -25.2944
L16.4304 -24.9265
L16.5135 -24.5572
L16.6004 -24.1864
L16.6909 -23.8144
L16.7852 -23.4413
L16.8832 -23.067
L16.9848 -22.6919
L17.0899 -22.3161
L17.1985 -21.9397
L17.3104 -21.5628
L17.4255 -21.1858
L17.5436 -20.8087
L17.6647 -20.4318
L17.7883 -20.0553
L17.9144 -19.6794
L18.0425 -19.3045
L18.1725 -18.9307
L18.3039 -18.5583
L18.4363 -18.1877
L18.5694 -17.819
L18.7025 -17.4527
L18.8353 -17.089
L18.967 -16.7283
L19.0971 -16.3708
L19.225 -16.017
L19.3498 -15.6671
L19.4708 -15.3215
L19.5873 -14.9807
L19.6985 -14.6448
L19.8034 -14.3143
L19.9013 -13.9894
L19.9912 -13.6707
L20.0724 -13.3582
L20.1439 -13.0524
L20.205 -12.7537
L19.7431 -12.4621
L19.337 -12.5914
L18.936 -12.8787
L18.5403 -13.173
L18.1498 -13.4743
L17.7648 -13.7824
L17.3853 -14.0974
L17.0115 -14.4189
L16.6435 -14.7471
L16.2813 -15.0817
L15.9252 -15.4227
L15.5752 -15.77
L15.2314 -16.1234
L14.894 -16.4829
L14.5629 -16.8484
L14.2384 -17.2196
L13.9206 -17.5966
L13.6094 -17.9792
L13.3051 -18.3673
L13.0077 -18.7608
L12.7173 -19.1595
L12.434 -19.5633
L12.1578 -19.9721
L11.889 -20.3859
L11.6274 -20.8043
L11.3733 -21.2275
L11.1267 -21.6551
L10.8877 -22.087
L10.6563 -22.5233
L10.4327 -22.9636
L10.2168 -23.4079
L10.0088 -23.856
L9.80869 -24.3078
L9.61657 -24.7632
L9.43248 -25.222
L9.25649 -25.6841
L9.08865 -26.1494
L8.929 -26.6176
L8.7776 -27.0887
L8.63449 -27.5625
L8.49972 -28.0389
L8.37333 -28.5177
L8.25535 -28.9988
L8.14582 -29.482
L8.04477 -29.9672
L7.95224 -30.4543
L7.86826 -30.943
L7.79284 -31.4333
L7.72602 -31.9249
L7.66781 -32.4178
L7.61823 -32.9118
L7.57729 -33.4068
L7.54501 -33.9025
L7.5214 -34.3988
L7.50647 -34.8957
L7.50021 -35.3929
L7.50264 -35.8903
L7.51374 -36.3877
L7.53353 -36.8849
L7.56198 -37.382
L7.5991 -37.8786
L7.64486 -38.3746
L7.69927 -38.8699
L7.7623 -39.3643
L7.83392 -39.8577
L7.91413 -40.35
L8.00289 -40.8409
L8.10018 -41.3303
L8.20597 -41.8181
L8.32023 -42.3041
L8.44291 -42.7882
L8.57399 -43.2703
L8.71343 -43.7501
L8.86118 -44.2276
L9.01719 -44.7025
L9.18142 -45.1749
L9.35383 -45.6444
L9.53434 -46.111
L9.72292 -46.5745
L9.91951 -47.0347
L10.124 -47.4917
L10.3365 -47.9451
L10.5567 -48.3948
L10.7847 -48.8408
L11.0203 -49.2829
L11.2636 -49.721
L11.5144 -50.1549
L11.7727 -50.5844
L12.0383 -51.0095
L12.3112 -51.4301
L12.5914 -51.8459
L12.8787 -52.2569
L13.173 -52.663
L13.4743 -53.064
L13.7824 -53.4597
L14.0974 -53.8502
L14.4189 -54.2352
L14.7471 -54.6147
L15.0817 -54.9885
L15.4227 -55.3565
L15.77 -55.7187
L16.1234 -56.0748
L16.4829 -56.4248
L16.8484 -56.7686
L17.2196 -57.106
L17.5966 -57.4371
L17.9792 -57.7616
L18.3673 -58.0794
L18.7608 -58.3906
L19.1595 -58.6949
L19.5633 -58.9923
L19.9721 -59.2827
L20.3859 -59.566
L20.8043 -59.8422
L21.2275 -60.111
L21.6551 -60.3726
L22.087 -60.6267
L22.5233 -60.8733
L22.9636 -61.1123
L23.4079 -61.3437
L23.856 -61.5673
L24.3078 -61.7832
L24.7632 -61.9912
L25.222 -62.1913
L25.6841 -62.3834
L26.1494 -62.5675
L26.6176 -62.7435
L27.0887 -62.9113
L27.5625 -63.071
L28.0389 -63.2224
L28.5177 -63.3655
L28.9988 -63.5003
L29.482 -63.6267
L29.9672 -63.7447
z
" id="C0_2_22712c3bf5"/>
    </defs>
    <g clip-path="url(#p1bffca34e9)">
     <use style="fill:#ff0000;stroke:#000000;stroke-width:2.0;" x="0.0" xlink:href="#C0_0_a811fe30f3" y="72.0"/>
    </g>
    <g clip-path="url(#p1bffca34e9)">
     <use style="fill:#ffffff;stroke:#000000;stroke-width:2.0;" x="0.0" xlink:href="#C0_1_2dbc61ccd8" y="72.0"/>
    </g>
    <g clip-path="url(#p1bffca34e9)">
     <use style="fill:#ffffff;stroke:#000000;stroke-width:2.0;" x="0.0" xlink:href="#C0_2_22712c3bf5" y="72.0"/>
    </g>
   </g>
  </g>
 </g>
 <defs>
  <clipPath id="p1bffca34e9">
   <rect height="72.0" width="72.0" x="0.0" y="0.0"/>
  </clipPath>
 </defs>
</svg>
