<?xml version="1.0" encoding="utf-8" standalone="no"?>
<!DOCTYPE svg PUBLIC "-//W3C//DTD SVG 1.1//EN"
  "http://www.w3.org/Graphics/SVG/1.1/DTD/svg11.dtd">
<!-- Created with matplotlib (http://matplotlib.org/) -->
<svg height="72pt" version="1.1" viewBox="0 0 72 72" width="72pt" xmlns="http://www.w3.org/2000/svg" xmlns:xlink="http://www.w3.org/1999/xlink">
 <defs>
  <style type="text/css">
*{stroke-linecap:butt;stroke-linejoin:round;}
  </style>
 </defs>
 <g id="figure_1">
  <g id="patch_1">
   <path d="
M0 72
L72 72
L72 0
L0 0
z
" style="fill:none;"/>
  </g>
  <g id="axes_1">
   <g id="PatchCollection_1">
    <defs>
     <path d="
M36 -7.5
C43.5583 -7.5 50.808 -10.5029 56.1525 -15.8475
C61.4971 -21.192 64.5 -28.4417 64.5 -36
C64.5 -43.5583 61.4971 -50.808 56.1525 -56.1525
C50.808 -61.4971 43.5583 -64.5 36 -64.5
C28.4417 -64.5 21.192 -61.4971 15.8475 -56.1525
C10.5029 -50.808 7.5 -43.5583 7.5 -36
C7.5 -28.4417 10.5029 -21.192 15.8475 -15.8475
C21.192 -10.5029 28.4417 -7.5 36 -7.5
z
" id="C0_0_a811fe30f3"/>
     <path d="
M7.69618 -35.0489
L7.87718 -35.0727
L8.05882 -35.0961
L8.24113 -35.1191
L8.42414 -35.1418
L8.60791 -35.164
L8.79245 -35.1859
L8.97782 -35.2075
L9.16405 -35.2288
L9.35118 -35.2497
L9.72834 -35.2703
L9.91844 -35.2907
L10.1096 -35.3107
L10.302 -35.3305
L10.4955 -35.35
L10.6902 -35.3693
L10.8862 -35.3883
L11.0835 -35.4071
L11.2823 -35.4257
L11.4824 -35.444
L11.6841 -35.4621
L11.8873 -35.48
L12.0921 -35.4977
L12.2986 -35.5152
L12.5069 -35.5325
L12.7169 -35.5496
L12.9288 -35.5665
L13.1426 -35.5832
L13.3583 -35.5998
L13.5762 -35.6162
L13.7961 -35.6324
L14.0183 -35.6484
L14.2427 -35.6642
L14.4694 -35.6799
L14.6985 -35.6954
L14.9301 -35.7108
L15.1643 -35.7259
L15.4011 -35.7409
L15.6406 -35.7558
L15.8829 -35.7704
L16.128 -35.7849
L16.3761 -35.7992
L16.6272 -35.8134
L16.8814 -35.8273
L17.1387 -35.8411
L17.3994 -35.8546
L17.6634 -35.868
L17.9308 -35.8812
L18.2017 -35.8941
L18.4762 -35.9068
L18.7543 -35.9193
L19.0362 -35.9315
L19.322 -35.9435
L19.6116 -35.9552
L19.9052 -35.9666
L20.2028 -35.9777
L20.5046 -35.9885
L20.8105 -35.9989
L21.1207 -36.009
L21.4351 -36.0187
L21.754 -36.028
L22.0772 -36.0369
L22.4048 -36.0452
L22.7369 -36.0531
L23.0735 -36.0604
L23.4147 -36.0671
L23.7603 -36.0732
L24.1105 -36.0786
L24.4651 -36.0833
L24.8242 -36.0871
L25.1878 -36.0901
L25.5557 -36.0921
L25.9279 -36.0931
L26.3042 -36.0929
L26.6846 -36.0915
L27.0689 -36.0888
L27.457 -36.0845
L27.8485 -36.0786
L28.2434 -36.0709
L28.6412 -36.0611
L29.0417 -36.0492
L29.4446 -36.0347
L29.8493 -36.0175
L30.2554 -35.9972
L30.6625 -35.9735
L31.0697 -35.9458
L31.4765 -35.9138
L31.8819 -35.8767
L32.2852 -35.8341
L32.6852 -35.785
L33.0807 -35.7286
L33.4705 -35.6639
L33.853 -35.5898
L34.2266 -35.5049
L34.5896 -35.4078
L34.9401 -35.2969
L35.2762 -35.1706
L35.5961 -35.0272
L35.8982 -34.8652
L36.181 -34.683
L36.4436 -34.4797
L36.6856 -34.2547
L36.9068 -34.0077
L37.1079 -33.7393
L37.2898 -33.4505
L37.4537 -33.1427
L37.601 -32.8176
L37.7331 -32.4772
L37.8517 -32.1234
L37.9581 -31.7582
L38.0535 -31.3834
L38.1393 -31.0008
L38.2164 -30.612
L38.2857 -30.2184
L38.3481 -29.8211
L38.4042 -29.4214
L38.4548 -29.0202
L38.5002 -28.6184
L38.5411 -28.2166
L38.5777 -27.8157
L38.6104 -27.416
L38.6396 -27.0183
L38.6656 -26.6228
L38.6885 -26.23
L38.7086 -25.8402
L38.726 -25.4537
L38.7411 -25.0707
L38.7538 -24.6915
L38.7644 -24.3163
L38.773 -23.9451
L38.7797 -23.5782
L38.7846 -23.2155
L38.7878 -22.8573
L38.7893 -22.5036
L38.7894 -22.1543
L38.788 -21.8096
L38.7853 -21.4695
L38.7812 -21.1339
L38.7759 -20.8029
L38.7694 -20.4764
L38.7618 -20.1544
L38.7531 -19.837
L38.7433 -19.5239
L38.7325 -19.2153
L38.7208 -18.9109
L38.7082 -18.6109
L38.6946 -18.3151
L38.6802 -18.0234
L38.665 -17.7358
L38.649 -17.4522
L38.6322 -17.1726
L38.6146 -16.8968
L38.5964 -16.6248
L38.5774 -16.3564
L38.5577 -16.0917
L38.5373 -15.8306
L38.5163 -15.5729
L38.4947 -15.3185
L38.4724 -15.0675
L38.4495 -14.8197
L38.426 -14.575
L38.4018 -14.3333
L38.3771 -14.0947
L38.3518 -13.8589
L38.3259 -13.6259
L38.2994 -13.3957
L38.2724 -13.1682
L38.2448 -12.9432
L38.2166 -12.7207
L38.1878 -12.5007
L38.1585 -12.2831
L38.1285 -12.0677
L38.098 -11.8546
L38.0669 -11.6437
L38.0353 -11.4348
L38.003 -11.228
L37.9701 -11.0231
L37.9366 -10.8202
L37.9025 -10.6191
L37.8678 -10.4197
L37.8324 -10.2221
L37.7964 -10.0262
L37.7597 -9.83187
L37.7223 -9.6391
L37.6842 -9.44783
L37.6454 -9.25802
L37.6059 -9.0696
L37.5657 -8.88254
L37.5247 -8.69678
L37.4829 -8.51228
L37.4403 -8.32898
L37.3968 -8.14686
L37.3525 -7.96585
L37.3074 -7.78593
L36.8138 -7.60705
L36.3165 -7.51162
L35.8191 -7.50176
L35.3218 -7.50057
L34.8246 -7.50807
L34.3278 -7.52425
L33.8315 -7.5491
L33.3359 -7.58262
L32.8411 -7.62479
L32.3473 -7.67561
L31.8545 -7.73505
L31.363 -7.8031
L30.873 -7.87975
L30.3845 -7.96496
L29.8977 -8.0587
L29.4128 -8.16096
L28.9298 -8.2717
L28.4491 -8.39089
L27.9706 -8.51849
L27.4946 -8.65445
L27.0212 -8.79875
L26.5505 -8.95133
L26.0826 -9.11216
L25.6178 -9.28117
L25.1562 -9.45832
L24.6979 -9.64355
L24.243 -9.83682
L23.7917 -10.0381
L23.3441 -10.2472
L22.9004 -10.4642
L22.4606 -10.6889
L22.025 -10.9214
L21.5936 -11.1615
L21.1667 -11.4092
L20.7442 -11.6644
L20.3264 -11.927
L19.9134 -12.1969
L19.5052 -12.4741
L19.1021 -12.7584
L18.7042 -13.0498
L18.3115 -13.3482
L17.9242 -13.6535
L17.5424 -13.9656
L17.1662 -14.2844
L16.7957 -14.6099
L16.4311 -14.9418
L16.0725 -15.2802
L15.72 -15.6249
L15.3736 -15.9758
L15.0335 -16.3328
L14.6998 -16.6957
L14.3725 -17.0646
L14.0519 -17.4392
L13.7379 -17.8195
L13.4308 -18.2053
L13.1305 -18.5965
L12.8372 -18.9931
L12.5509 -19.3948
L12.2718 -19.8016
L11.9999 -20.2133
L11.7353 -20.6298
L11.4781 -21.051
L11.2283 -21.4768
L10.9861 -21.9069
L10.7516 -22.3414
L10.5247 -22.78
L10.3056 -23.2227
L10.0943 -23.6693
L9.8909 -24.1196
L9.69546 -24.5735
L9.50803 -25.0309
L9.32867 -25.4916
L9.15743 -25.9556
L8.99437 -26.4226
L8.83954 -26.8925
L8.69298 -27.3652
L8.55473 -27.8406
L8.42485 -28.3184
L8.30337 -28.7985
L8.19032 -29.2809
L8.08575 -29.7653
L7.98967 -30.2516
L7.90213 -30.7396
L7.82315 -31.2293
L7.75275 -31.7204
L7.69096 -32.2128
L7.63779 -32.7063
L7.59326 -33.2009
L7.55738 -33.6963
z
" id="C0_1_fa38255af1"/>
     <path d="
M34.7474 -64.3734
L34.8089 -64.1988
L34.8701 -64.0229
L34.9309 -63.8454
L34.9914 -63.6665
L35.0515 -63.4859
L35.1115 -63.3037
L35.1711 -63.1199
L35.2305 -62.9343
L35.2898 -62.7469
L35.3488 -62.5577
L35.4076 -62.3666
L35.4663 -62.1735
L35.5248 -61.9784
L35.5832 -61.7812
L35.6415 -61.5819
L35.6997 -61.3804
L35.7579 -61.1765
L35.8159 -60.9704
L35.8739 -60.7618
L35.9319 -60.5507
L35.9899 -60.3371
L36.0479 -60.1208
L36.1058 -59.9019
L36.1639 -59.6801
L36.2219 -59.4555
L36.28 -59.228
L36.3382 -58.9974
L36.3964 -58.7638
L36.4548 -58.527
L36.5132 -58.2869
L36.5718 -58.0435
L36.6305 -57.7967
L36.6893 -57.5464
L36.7483 -57.2924
L36.8075 -57.0349
L36.8668 -56.7735
L36.9264 -56.5084
L36.9861 -56.2393
L37.0461 -55.9663
L37.1063 -55.6891
L37.1667 -55.4079
L37.2274 -55.1224
L37.2883 -54.8326
L37.3496 -54.5385
L37.4111 -54.24
L37.473 -53.937
L37.5351 -53.6294
L37.5977 -53.3173
L37.6605 -53.0006
L37.7238 -52.6792
L37.7875 -52.3532
L37.8516 -52.0225
L37.9162 -51.6871
L37.9813 -51.347
L38.0469 -51.0023
L38.113 -50.6529
L38.1798 -50.299
L38.2473 -49.9406
L38.3155 -49.5778
L38.3845 -49.2107
L38.4544 -48.8395
L38.5253 -48.4644
L38.5973 -48.0855
L38.6705 -47.703
L38.7452 -47.3173
L38.8214 -46.9287
L38.8994 -46.5375
L38.9795 -46.1443
L39.0619 -45.7494
L39.147 -45.3534
L39.2352 -44.957
L39.3269 -44.5609
L39.4229 -44.166
L39.5236 -43.7733
L39.6299 -43.3837
L39.7427 -42.9987
L39.863 -42.6195
L39.9919 -42.2477
L40.1308 -41.885
L40.2811 -41.5334
L40.4443 -41.1946
L40.6219 -40.8707
L40.8154 -40.5636
L41.0261 -40.275
L41.255 -40.0063
L41.5028 -39.7584
L41.7695 -39.5318
L42.0548 -39.3263
L42.3579 -39.1413
L42.6774 -38.9757
L43.0119 -38.8281
L43.3595 -38.6969
L43.7185 -38.5803
L44.0871 -38.4768
L44.4636 -38.3848
L44.8464 -38.3028
L45.2342 -38.2296
L45.6255 -38.1639
L46.0193 -38.1049
L46.4145 -38.0516
L46.8103 -38.0032
L47.2059 -37.9592
L47.6006 -37.9189
L47.9938 -37.882
L48.3849 -37.8478
L48.7736 -37.8163
L49.1594 -37.7869
L49.542 -37.7594
L49.9211 -37.7337
L50.2964 -37.7094
L50.6677 -37.6866
L51.0349 -37.6649
L51.3978 -37.6442
L51.7562 -37.6245
L52.1101 -37.6056
L52.4593 -37.5875
L52.8039 -37.57
L53.1437 -37.5532
L53.4788 -37.5368
L53.8092 -37.521
L54.1347 -37.5056
L54.4556 -37.4906
L54.7716 -37.4759
L55.083 -37.4616
L55.3897 -37.4476
L55.6918 -37.4338
L55.9894 -37.4202
L56.2824 -37.4069
L56.571 -37.3937
L56.8552 -37.3808
L57.1352 -37.368
L57.4108 -37.3553
L57.6824 -37.3428
L57.9498 -37.3304
L58.2133 -37.3181
L58.4729 -37.3058
L58.7286 -37.2937
L58.9806 -37.2817
L59.2289 -37.2697
L59.4736 -37.2578
L59.7149 -37.2459
L59.9527 -37.2341
L60.1872 -37.2223
L60.4185 -37.2106
L60.6466 -37.1989
L60.8717 -37.1872
L61.0937 -37.1755
L61.3129 -37.1638
L61.5291 -37.1522
L61.7427 -37.1405
L61.9535 -37.1289
L62.1618 -37.1172
L62.3674 -37.1055
L62.5707 -37.0938
L62.7715 -37.0821
L62.97 -37.0704
L63.1663 -37.0587
L63.3604 -37.0469
L63.5523 -37.0351
L63.7422 -37.0232
L63.9301 -37.0113
L64.1161 -36.9993
L64.3001 -36.9873
L64.4619 -36.9753
L64.4319 -37.4723
L64.3932 -37.9688
L64.3459 -38.4647
L64.2899 -38.9598
L64.2253 -39.4541
L64.1521 -39.9473
L64.0704 -40.4393
L63.9801 -40.9299
L63.8812 -41.4191
L63.7739 -41.9066
L63.6581 -42.3923
L63.5339 -42.876
L63.4013 -43.3577
L63.2603 -43.8371
L63.1111 -44.3141
L62.9536 -44.7886
L62.7878 -45.2604
L62.614 -45.7294
L62.432 -46.1954
L62.2419 -46.6584
L62.0439 -47.118
L61.8379 -47.5743
L61.6241 -48.0271
L61.4025 -48.4762
L61.1731 -48.9215
L60.936 -49.3629
L60.6914 -49.8002
L60.4392 -50.2333
L60.1796 -50.662
L59.9126 -51.0863
L59.6384 -51.506
L59.3569 -51.921
L59.0683 -52.3311
L58.7727 -52.7362
L58.4702 -53.1363
L58.1608 -53.5311
L57.8447 -53.9206
L57.5219 -54.3046
L57.1926 -54.6831
L56.8568 -55.0559
L56.5146 -55.4228
L56.1662 -55.7839
L55.8117 -56.1389
L55.4511 -56.4878
L55.0846 -56.8304
L54.7123 -57.1667
L54.3343 -57.4965
L53.9507 -57.8198
L53.5616 -58.1365
L53.1672 -58.4464
L52.7675 -58.7495
L52.3628 -59.0456
L51.953 -59.3347
L51.5384 -59.6168
L51.1191 -59.8916
L50.6952 -60.1591
L50.2667 -60.4193
L49.834 -60.6721
L49.397 -60.9173
L48.956 -61.1549
L48.511 -61.3849
L48.0621 -61.6071
L47.6097 -61.8216
L47.1536 -62.0282
L46.6942 -62.2268
L46.2315 -62.4175
L45.7657 -62.6001
L45.297 -62.7746
L44.8254 -62.941
L44.3511 -63.0991
L43.8742 -63.249
L43.395 -63.3906
L42.9135 -63.5239
L42.4299 -63.6487
L41.9444 -63.7652
L41.457 -63.8732
L40.968 -63.9727
L40.4775 -64.0637
L39.9856 -64.1461
L39.4925 -64.2199
L38.9983 -64.2852
L38.5032 -64.3418
L38.0073 -64.3899
L37.5109 -64.4292
L37.014 -64.4599
L36.5167 -64.482
L36.0193 -64.4953
L35.5219 -64.5
z
" id="C0_2_fff033d7a8"/>
    </defs>
    <g clip-path="url(#p1bffca34e9)">
     <use style="fill:#ffffff;stroke:#000000;stroke-width:2.0;" x="0.0" xlink:href="#C0_0_a811fe30f3" y="72.0"/>
    </g>
    <g clip-path="url(#p1bffca34e9)">
     <use style="fill:#ff0000;stroke:#000000;stroke-width:2.0;" x="0.0" xlink:href="#C0_1_fa38255af1" y="72.0"/>
    </g>
    <g clip-path="url(#p1bffca34e9)">
     <use style="fill:#ff0000;stroke:#000000;stroke-width:2.0;" x="0.0" xlink:href="#C0_2_fff033d7a8" y="72.0"/>
    </g>
   </g>
  </g>
 </g>
 <defs>
  <clipPath id="p1bffca34e9">
   <rect height="72.0" width="72.0" x="0.0" y="0.0"/>
  </clipPath>
 </defs>
</svg>
