<?xml version="1.0" encoding="utf-8" standalone="no"?>
<!DOCTYPE svg PUBLIC "-//W3C//DTD SVG 1.1//EN"
  "http://www.w3.org/Graphics/SVG/1.1/DTD/svg11.dtd">
<!-- Created with matplotlib (http://matplotlib.org/) -->
<svg height="72pt" version="1.1" viewBox="0 0 72 72" width="72pt" xmlns="http://www.w3.org/2000/svg" xmlns:xlink="http://www.w3.org/1999/xlink">
 <defs>
  <style type="text/css">
*{stroke-linecap:butt;stroke-linejoin:round;}
  </style>
 </defs>
 <g id="figure_1">
  <g id="patch_1">
   <path d="
M0 72
L72 72
L72 0
L0 0
z
" style="fill:none;"/>
  </g>
  <g id="axes_1">
   <g id="PatchCollection_1">
    <defs>
     <path d="
M36 -7.5
C43.5583 -7.5 50.808 -10.5029 56.1525 -15.8475
C61.4971 -21.192 64.5 -28.4417 64.5 -36
C64.5 -43.5583 61.4971 -50.808 56.1525 -56.1525
C50.808 -61.4971 43.5583 -64.5 36 -64.5
C28.4417 -64.5 21.192 -61.4971 15.8475 -56.1525
C10.5029 -50.808 7.5 -43.5583 7.5 -36
C7.5 -28.4417 10.5029 -21.192 15.8475 -15.8475
C21.192 -10.5029 28.4417 -7.5 36 -7.5
z
" id="C0_0_a811fe30f3"/>
     <path d="
M54.7996 -57.1739
L54.6981 -56.9613
L54.6018 -56.7422
L54.5104 -56.5169
L54.4235 -56.2858
L54.341 -56.0492
L54.2625 -55.8075
L54.1876 -55.561
L54.1161 -55.3099
L54.0476 -55.0548
L53.9821 -54.7957
L53.919 -54.5331
L53.8583 -54.2671
L53.7997 -53.9981
L53.7429 -53.7264
L53.6878 -53.452
L53.6341 -53.1754
L53.5817 -52.8967
L53.5303 -52.6161
L53.4799 -52.3339
L53.4302 -52.0502
L53.3812 -51.7652
L53.3327 -51.4791
L53.2845 -51.192
L53.2366 -50.9041
L53.1889 -50.6155
L53.1412 -50.3264
L53.0936 -50.0369
L53.0458 -49.7471
L52.9978 -49.4571
L52.9497 -49.1671
L52.9012 -48.877
L52.8524 -48.5871
L52.8032 -48.2973
L52.7535 -48.0078
L52.7034 -47.7186
L52.6527 -47.4298
L52.6015 -47.1414
L52.5498 -46.8535
L52.4974 -46.5661
L52.4444 -46.2793
L52.3908 -45.993
L52.3365 -45.7075
L52.2815 -45.4225
L52.2258 -45.1383
L52.1695 -44.8547
L52.1124 -44.5719
L52.0545 -44.2898
L51.996 -44.0084
L51.9367 -43.7277
L51.8766 -43.4478
L51.8158 -43.1687
L51.7542 -42.8902
L51.6919 -42.6126
L51.6287 -42.3356
L51.5648 -42.0593
L51.5001 -41.7838
L51.4346 -41.509
L51.3684 -41.2348
L51.3013 -40.9613
L51.2334 -40.6884
L51.1647 -40.4162
L51.0952 -40.1446
L51.0249 -39.8736
L50.9538 -39.6031
L50.8818 -39.3332
L50.809 -39.0638
L50.7354 -38.7949
L50.6609 -38.5265
L50.5856 -38.2585
L50.5094 -37.9909
L50.4324 -37.7237
L50.3545 -37.4569
L50.2758 -37.1904
L50.1961 -36.9242
L50.1156 -36.6583
L50.0341 -36.3926
L49.9518 -36.1272
L49.7844 -35.8619
L49.6993 -35.5968
L49.6133 -35.3318
L49.5263 -35.0669
L49.4384 -34.8021
L49.3495 -34.5373
L49.2596 -34.2725
L49.1688 -34.0077
L49.0769 -33.7428
L48.984 -33.4779
L48.8902 -33.2128
L48.7953 -32.9476
L48.6993 -32.6823
L48.6024 -32.4167
L48.5043 -32.1509
L48.4052 -31.8849
L48.3051 -31.6185
L48.2038 -31.3519
L48.1014 -31.0849
L47.998 -30.8176
L47.8934 -30.5499
L47.7877 -30.2818
L47.6809 -30.0133
L47.573 -29.7443
L47.4639 -29.4748
L47.3537 -29.2049
L47.2424 -28.9344
L47.1298 -28.6634
L47.0162 -28.3919
L46.9014 -28.1198
L46.7854 -27.8471
L46.6684 -27.5739
L46.5501 -27.3
L46.4308 -27.0256
L46.3103 -26.7505
L46.1887 -26.4748
L46.066 -26.1985
L45.9423 -25.9216
L45.8174 -25.644
L45.6916 -25.3658
L45.5647 -25.087
L45.4369 -24.8075
L45.3081 -24.5274
L45.1785 -24.2468
L45.0479 -23.9655
L44.9166 -23.6837
L44.7845 -23.4013
L44.6517 -23.1184
L44.5183 -22.835
L44.3844 -22.551
L44.25 -22.2666
L44.1152 -21.9818
L43.9801 -21.6966
L43.8448 -21.411
L43.7095 -21.125
L43.5742 -20.8388
L43.4391 -20.5524
L43.3043 -20.2658
L43.17 -19.979
L43.0363 -19.6921
L42.9034 -19.4052
L42.7715 -19.1184
L42.6409 -18.8316
L42.5116 -18.545
L42.3839 -18.2585
L42.2581 -17.9724
L42.1344 -17.6867
L42.013 -17.4013
L41.8943 -17.1165
L41.7785 -16.8323
L41.6659 -16.5488
L41.5568 -16.266
L41.4516 -15.984
L41.3505 -15.703
L41.2539 -15.423
L41.1621 -15.1441
L41.0755 -14.8664
L40.9944 -14.59
L40.9192 -14.3151
L40.8503 -14.0416
L40.788 -13.7697
L40.7326 -13.4996
L40.6845 -13.2312
L40.644 -12.9649
L40.6115 -12.7005
L40.5873 -12.4384
L40.5717 -12.1785
L40.5649 -11.9211
L40.5672 -11.6662
L40.5789 -11.414
L40.6002 -11.1647
L40.6312 -10.9183
L40.6722 -10.6751
L40.7233 -10.4351
L40.7846 -10.1985
L40.8562 -9.96559
L40.9381 -9.73639
L41.0304 -9.5111
L41.1331 -9.28989
L41.2462 -9.07293
L41.3696 -8.86039
L41.5033 -8.65244
L41.6472 -8.44925
L42.17 -8.25101
L42.6547 -8.1759
L43.1373 -8.28782
L43.6178 -8.40818
L44.0959 -8.53694
L44.5716 -8.67408
L45.0446 -8.81953
L45.515 -8.97327
L45.9824 -9.13523
L46.4467 -9.30538
L46.9079 -9.48367
L47.3658 -9.67002
L47.8202 -9.8644
L48.271 -10.0667
L48.718 -10.277
L49.1612 -10.4951
L49.6004 -10.7209
L50.0354 -10.9544
L50.4662 -11.1956
L50.8925 -11.4444
L51.3143 -11.7006
L51.7315 -11.9642
L52.1438 -12.2351
L52.5513 -12.5133
L52.9537 -12.7986
L53.3509 -13.091
L53.7429 -13.3904
L54.1294 -13.6966
L54.5104 -14.0097
L54.8858 -14.3294
L55.2555 -14.6558
L55.6192 -14.9886
L55.977 -15.3279
L56.3287 -15.6734
L56.6742 -16.0252
L57.0134 -16.383
L57.3463 -16.7468
L57.6726 -17.1165
L57.9923 -17.4919
L58.3053 -17.873
L58.6115 -18.2595
L58.9108 -18.6515
L59.2032 -19.0488
L59.4885 -19.4512
L59.7666 -19.8587
L60.0375 -20.2711
L60.3011 -20.6883
L60.5572 -21.1101
L60.8059 -21.5365
L61.047 -21.9673
L61.2805 -22.4023
L61.5063 -22.8415
L61.7243 -23.2847
L61.9345 -23.7318
L62.1368 -24.1826
L62.3312 -24.6371
L62.5175 -25.0949
L62.6957 -25.5562
L62.8658 -26.0205
L63.0277 -26.488
L63.1814 -26.9583
L63.3268 -27.4314
L63.4639 -27.907
L63.5926 -28.3852
L63.7129 -28.8657
L63.8248 -29.3483
L63.9282 -29.833
L64.023 -30.3195
L64.1094 -30.8078
L64.1872 -31.2977
L64.2564 -31.789
L64.317 -32.2815
L64.3689 -32.7752
L64.4123 -33.2699
L64.4469 -33.7655
L64.4729 -34.2617
L64.4903 -34.7584
L64.4989 -35.2555
L64.4989 -35.7528
L64.4902 -36.2502
L64.4728 -36.7476
L64.4467 -37.2447
L64.412 -37.7414
L64.3686 -38.2376
L64.3166 -38.7331
L64.256 -39.2278
L64.1867 -39.7215
L64.1089 -40.2141
L64.0225 -40.7054
L63.9275 -41.1952
L63.8241 -41.6835
L63.7122 -42.17
L63.5918 -42.6547
L63.4631 -43.1373
L63.3259 -43.6178
L63.1805 -44.0959
L63.0267 -44.5716
L62.8648 -45.0446
L62.6946 -45.515
L62.5163 -45.9824
L62.33 -46.4467
L62.1356 -46.9079
L61.9333 -47.3658
L61.723 -47.8202
L61.5049 -48.271
L61.2791 -48.718
L61.0456 -49.1612
L60.8044 -49.6004
L60.5556 -50.0354
L60.2994 -50.4662
L60.0358 -50.8925
L59.7649 -51.3143
L59.4867 -51.7315
L59.2014 -52.1438
L58.909 -52.5513
L58.6096 -52.9537
L58.3034 -53.3509
L57.9903 -53.7429
L57.6706 -54.1294
L57.3442 -54.5104
L57.0114 -54.8858
L56.6721 -55.2555
L56.3266 -55.6192
L55.9748 -55.977
L55.617 -56.3287
z
" id="C0_1_0c2958f936"/>
     <path d="
M30.2143 -63.8677
L30.1414 -63.6279
L30.0622 -63.3855
L29.977 -63.1407
L29.8864 -62.8936
L29.7907 -62.6444
L29.6905 -62.393
L29.5861 -62.1397
L29.4778 -61.8845
L29.3661 -61.6275
L29.2514 -61.3688
L29.1339 -61.1085
L29.014 -60.8467
L28.892 -60.5836
L28.7682 -60.3191
L28.6429 -60.0534
L28.5162 -59.7866
L28.3885 -59.5187
L28.26 -59.2499
L28.1309 -58.9801
L28.0014 -58.7096
L27.8716 -58.4383
L27.7417 -58.1663
L27.612 -57.8937
L27.4824 -57.6206
L27.3533 -57.3471
L27.2246 -57.0731
L27.0965 -56.7988
L26.969 -56.5242
L26.8424 -56.2493
L26.7166 -55.9742
L26.5917 -55.699
L26.4679 -55.4236
L26.3451 -55.1482
L26.2234 -54.8727
L26.1029 -54.5972
L25.9836 -54.3218
L25.8656 -54.0464
L25.7488 -53.771
L25.6333 -53.4958
L25.5192 -53.2206
L25.4064 -52.9456
L25.295 -52.6707
L25.1849 -52.396
L25.0762 -52.1215
L24.9689 -51.8471
L24.8631 -51.5728
L24.7586 -51.2988
L24.6555 -51.0249
L24.5539 -50.7512
L24.4536 -50.4777
L24.3547 -50.2043
L24.2572 -49.9311
L24.1612 -49.658
L24.0664 -49.3851
L23.9731 -49.1123
L23.8811 -48.8396
L23.7905 -48.567
L23.7012 -48.2945
L23.6133 -48.0221
L23.5267 -47.7497
L23.4414 -47.4773
L23.3574 -47.2049
L23.2747 -46.9325
L23.1932 -46.6601
L23.1131 -46.3876
L23.0342 -46.1151
L22.9565 -45.8424
L22.8801 -45.5696
L22.8049 -45.2966
L22.7309 -45.0235
L22.6581 -44.7501
L22.5864 -44.4765
L22.516 -44.2026
L22.4468 -43.9284
L22.3787 -43.6539
L22.3117 -43.379
L22.2459 -43.1037
L22.1812 -42.828
L22.1177 -42.5519
L22.0553 -42.2753
L21.994 -41.9981
L21.9337 -41.7205
L21.8746 -41.4422
L21.8166 -41.1634
L21.7596 -40.8839
L21.7038 -40.6037
L21.649 -40.3229
L21.5953 -40.0413
L21.5426 -39.7589
L21.491 -39.4758
L21.4405 -39.1919
L21.391 -38.9071
L21.3425 -38.6215
L21.2951 -38.3349
L21.2488 -38.0475
L21.2035 -37.759
L21.1592 -37.4697
L21.116 -37.1793
L21.0738 -36.8878
L21.0326 -36.5954
L20.9925 -36.3019
L20.9534 -36.0072
L20.9153 -35.7115
L20.8783 -35.4147
L20.8422 -35.1167
L20.8072 -34.8176
L20.7732 -34.5173
L20.7403 -34.2159
L20.7083 -33.9133
L20.6773 -33.6095
L20.6473 -33.3045
L20.6183 -32.9984
L20.5903 -32.6911
L20.5633 -32.3826
L20.5372 -32.0729
L20.5121 -31.7622
L20.4878 -31.4503
L20.4645 -31.1372
L20.4421 -30.8231
L20.4206 -30.508
L20.3999 -30.1918
L20.38 -29.8747
L20.3609 -29.5566
L20.3426 -29.2376
L20.325 -28.9178
L20.308 -28.5972
L20.2916 -28.2759
L20.2759 -27.954
L20.2606 -27.6315
L20.2457 -27.3085
L20.2313 -26.9852
L20.2171 -26.6615
L20.2031 -26.3377
L20.1893 -26.0138
L20.1754 -25.6899
L20.1615 -25.3662
L20.1474 -25.0428
L20.1329 -24.7198
L20.1179 -24.3974
L20.1024 -24.0758
L20.086 -23.7551
L20.0687 -23.4355
L20.0503 -23.1172
L20.0306 -22.8003
L20.0094 -22.4851
L19.9865 -22.1718
L19.9617 -21.8605
L19.9347 -21.5516
L19.9053 -21.2451
L19.8733 -20.9414
L19.8385 -20.6407
L19.8005 -20.3433
L19.7591 -20.0493
L19.714 -19.7591
L19.665 -19.4728
L19.6119 -19.1908
L19.5542 -18.9133
L19.4918 -18.6406
L19.4245 -18.3729
L19.3519 -18.1105
L19.2738 -17.8536
L19.19 -17.6024
L19.1002 -17.3573
L19.0044 -17.1185
L18.9022 -16.8862
L18.7936 -16.6606
L18.6783 -16.442
L18.5563 -16.2306
L18.4274 -16.0265
L18.2917 -15.83
L18.1489 -15.6412
L17.9993 -15.4604
L17.8426 -15.2877
L17.6789 -15.1233
L17.5084 -14.9672
L17.331 -14.8197
L16.7503 -14.6809
L16.3865 -14.9834
L16.0286 -15.3225
L15.6768 -15.668
L15.3312 -16.0196
L14.9918 -16.3773
L14.6589 -16.741
L14.3325 -17.1106
L14.0127 -17.486
L13.6996 -17.8669
L13.3933 -18.2534
L13.0938 -18.6453
L12.8014 -19.0425
L12.516 -19.4449
L12.2377 -19.8522
L11.9667 -20.2646
L11.703 -20.6817
L11.4468 -21.1034
L11.198 -21.5297
L10.9567 -21.9605
L10.7231 -22.3955
L10.4972 -22.8346
L10.279 -23.2777
L10.0687 -23.7248
L9.86629 -24.1755
L9.67184 -24.6299
L9.4854 -25.0877
L9.30704 -25.5489
L9.13681 -26.0132
L8.97477 -26.4806
L8.82096 -26.9509
L8.67542 -27.4239
L8.53821 -27.8995
L8.40937 -28.3777
L8.28892 -28.8581
L8.17692 -29.3407
L8.0734 -29.8253
L7.97838 -30.3119
L7.8919 -30.8001
L7.81398 -31.2899
L7.74464 -31.7812
L7.68391 -32.2738
L7.63181 -32.7675
L7.58835 -33.2621
L7.55354 -33.7577
L7.5274 -34.2538
L7.50993 -34.7506
L7.50114 -35.2477
L7.50103 -35.745
L7.5096 -36.2424
L7.52685 -36.7398
L7.55278 -37.2369
L7.58736 -37.7336
L7.63061 -38.2298
L7.68249 -38.7254
L7.743 -39.2201
L7.81212 -39.7138
L7.88982 -40.2064
L7.97609 -40.6977
L8.07089 -41.1875
L8.1742 -41.6758
L8.28599 -42.1624
L8.40622 -42.6471
L8.53485 -43.1297
L8.67185 -43.6102
L8.81718 -44.0884
L8.97078 -44.5641
L9.13262 -45.0372
L9.30264 -45.5076
L9.4808 -45.975
L9.66703 -46.4394
L9.86128 -46.9007
L10.0635 -47.3586
L10.2736 -47.813
L10.4916 -48.2639
L10.7173 -48.711
L10.9507 -49.1543
L11.1918 -49.5935
L11.4404 -50.0286
L11.6965 -50.4594
L11.96 -50.8859
L12.2308 -51.3077
L12.5088 -51.725
L12.7941 -52.1374
L13.0863 -52.5449
L13.3856 -52.9474
L13.6918 -53.3447
L14.0047 -53.7368
L14.3244 -54.1234
L14.6506 -54.5045
L14.9834 -54.88
L15.3225 -55.2497
L15.668 -55.6135
L16.0196 -55.9714
L16.3773 -56.3232
L16.741 -56.6688
L17.1106 -57.0082
L17.486 -57.3411
L17.8669 -57.6675
L18.2534 -57.9873
L18.6453 -58.3004
L19.0425 -58.6067
L19.4449 -58.9062
L19.8522 -59.1986
L20.2646 -59.484
L20.6817 -59.7623
L21.1034 -60.0333
L21.5297 -60.297
L21.9605 -60.5532
L22.3955 -60.802
L22.8346 -61.0433
L23.2777 -61.2769
L23.7248 -61.5028
L24.1755 -61.721
L24.6299 -61.9313
L25.0877 -62.1337
L25.5489 -62.3282
L26.0132 -62.5146
L26.4806 -62.693
L26.9509 -62.8632
L27.4239 -63.0252
L27.8995 -63.179
L28.3777 -63.3246
L28.8581 -63.4618
L29.3407 -63.5906
z
" id="C0_2_223fe516a8"/>
    </defs>
    <g clip-path="url(#p1bffca34e9)">
     <use style="fill:#ff0000;stroke:#000000;stroke-width:2.0;" x="0.0" xlink:href="#C0_0_a811fe30f3" y="72.0"/>
    </g>
    <g clip-path="url(#p1bffca34e9)">
     <use style="fill:#ffffff;stroke:#000000;stroke-width:2.0;" x="0.0" xlink:href="#C0_1_0c2958f936" y="72.0"/>
    </g>
    <g clip-path="url(#p1bffca34e9)">
     <use style="fill:#ffffff;stroke:#000000;stroke-width:2.0;" x="0.0" xlink:href="#C0_2_223fe516a8" y="72.0"/>
    </g>
   </g>
  </g>
 </g>
 <defs>
  <clipPath id="p1bffca34e9">
   <rect height="72.0" width="72.0" x="0.0" y="0.0"/>
  </clipPath>
 </defs>
</svg>
