<?xml version="1.0" encoding="utf-8" standalone="no"?>
<!DOCTYPE svg PUBLIC "-//W3C//DTD SVG 1.1//EN"
  "http://www.w3.org/Graphics/SVG/1.1/DTD/svg11.dtd">
<!-- Created with matplotlib (http://matplotlib.org/) -->
<svg height="72pt" version="1.1" viewBox="0 0 72 72" width="72pt" xmlns="http://www.w3.org/2000/svg" xmlns:xlink="http://www.w3.org/1999/xlink">
 <defs>
  <style type="text/css">
*{stroke-linecap:butt;stroke-linejoin:round;}
  </style>
 </defs>
 <g id="figure_1">
  <g id="patch_1">
   <path d="
M0 72
L72 72
L72 0
L0 0
z
" style="fill:none;"/>
  </g>
  <g id="axes_1">
   <g id="PatchCollection_1">
    <defs>
     <path d="
M36 -7.5
C43.5583 -7.5 50.808 -10.5029 56.1525 -15.8475
C61.4971 -21.192 64.5 -28.4417 64.5 -36
C64.5 -43.5583 61.4971 -50.808 56.1525 -56.1525
C50.808 -61.4971 43.5583 -64.5 36 -64.5
C28.4417 -64.5 21.192 -61.4971 15.8475 -56.1525
C10.5029 -50.808 7.5 -43.5583 7.5 -36
C7.5 -28.4417 10.5029 -21.192 15.8475 -15.8475
C21.192 -10.5029 28.4417 -7.5 36 -7.5
z
" id="C0_0_a811fe30f3"/>
     <path d="
M7.72419 -37.9464
L7.95104 -38.156
L8.18332 -38.3432
L8.42056 -38.5081
L8.66232 -38.6508
L8.90821 -38.7715
L9.15783 -38.8706
L9.41085 -38.9487
L9.66694 -39.0064
L9.92584 -39.0447
L10.1873 -39.0643
L10.4511 -39.0664
L10.717 -39.0519
L10.9848 -39.0219
L11.2544 -38.9776
L11.5257 -38.92
L11.7985 -38.8501
L12.0727 -38.7692
L12.3482 -38.6781
L12.6248 -38.5779
L12.9025 -38.4694
L13.1811 -38.3536
L13.4605 -38.2311
L13.7406 -38.1029
L14.0214 -37.9696
L14.3026 -37.8318
L14.5843 -37.6901
L14.8662 -37.5451
L15.1484 -37.3972
L15.4307 -37.247
L15.713 -37.0948
L15.9952 -36.9411
L16.2772 -36.7861
L16.5589 -36.6302
L16.8403 -36.4736
L17.1213 -36.3166
L17.4018 -36.1595
L17.6817 -36.0024
L17.9609 -35.8455
L18.2395 -35.689
L18.5173 -35.533
L18.7943 -35.3776
L19.0704 -35.223
L19.3457 -35.0693
L19.6199 -34.9165
L19.8933 -34.7647
L20.1656 -34.614
L20.4369 -34.4645
L20.7071 -34.3161
L20.9762 -34.169
L21.2443 -34.0231
L21.5113 -33.8786
L21.7772 -33.7353
L22.0419 -33.5933
L22.3056 -33.4527
L22.5682 -33.3134
L22.8296 -33.1755
L23.09 -33.0389
L23.3493 -32.9036
L23.6076 -32.7697
L23.8647 -32.637
L24.1209 -32.5057
L24.3761 -32.3757
L24.6302 -32.247
L24.8834 -32.1195
L25.1357 -31.9932
L25.3871 -31.8682
L25.6376 -31.7444
L25.8872 -31.6218
L26.136 -31.5003
L26.384 -31.38
L26.6313 -31.2608
L26.8779 -31.1427
L27.1238 -31.0256
L27.369 -30.9097
L27.6136 -30.7947
L27.8577 -30.6807
L28.1013 -30.5677
L28.3443 -30.4557
L28.5869 -30.3445
L28.8291 -30.2343
L29.071 -30.125
L29.3125 -30.0165
L29.5537 -29.9088
L29.7948 -29.802
L30.0356 -29.6959
L30.2763 -29.5906
L30.5168 -29.486
L30.7574 -29.3822
L30.9979 -29.2791
L31.2384 -29.1766
L31.479 -29.0748
L31.7198 -28.9736
L32.2019 -28.873
L32.4433 -28.773
L32.685 -28.6736
L32.9271 -28.5747
L33.1696 -28.4764
L33.4126 -28.3786
L33.6561 -28.2812
L33.9001 -28.1844
L34.1447 -28.088
L34.39 -27.9921
L34.6359 -27.8966
L34.8826 -27.8015
L35.1301 -27.7068
L35.3785 -27.6125
L35.6277 -27.5185
L35.8779 -27.4249
L36.129 -27.3316
L36.3812 -27.2387
L36.6344 -27.1461
L36.8888 -27.0538
L37.1443 -26.9617
L37.4011 -26.87
L37.6591 -26.7785
L37.9184 -26.6873
L38.1791 -26.5963
L38.4411 -26.5055
L38.7046 -26.415
L38.9695 -26.3247
L39.236 -26.2346
L39.5039 -26.1447
L39.7735 -26.055
L40.0447 -25.9655
L40.3175 -25.8761
L40.5921 -25.787
L40.8683 -25.698
L41.1463 -25.6091
L41.426 -25.5205
L41.7075 -25.4319
L41.9907 -25.3435
L42.2758 -25.2553
L42.5627 -25.1672
L42.8515 -25.0792
L43.142 -24.9913
L43.4344 -24.9036
L43.7285 -24.8159
L44.0245 -24.7283
L44.3222 -24.6409
L44.6216 -24.5534
L44.9227 -24.4661
L45.2255 -24.3788
L45.5299 -24.2915
L45.8358 -24.2042
L46.1431 -24.1169
L46.4519 -24.0295
L46.7619 -23.9421
L47.073 -23.8545
L47.3852 -23.7667
L47.6983 -23.6788
L48.0121 -23.5905
L48.3265 -23.5019
L48.6413 -23.4128
L48.9562 -23.3233
L49.2711 -23.2331
L49.5857 -23.1421
L49.8997 -23.0503
L50.2128 -22.9574
L50.5247 -22.8634
L50.835 -22.7679
L51.1433 -22.6709
L51.4492 -22.572
L51.7524 -22.4709
L52.0522 -22.3674
L52.3481 -22.2612
L52.6397 -22.1519
L52.9263 -22.039
L53.2072 -21.9222
L53.4818 -21.8009
L53.7494 -21.6747
L54.0092 -21.5431
L54.2604 -21.4053
L54.5023 -21.2609
L54.7339 -21.1093
L54.9545 -20.9497
L55.1631 -20.7816
L55.359 -20.6043
L55.5412 -20.4172
L55.7089 -20.2197
L55.8613 -20.0114
L55.9978 -19.7918
L56.1175 -19.5605
L56.22 -19.3174
L56.3047 -19.0622
L56.3711 -18.7949
L56.4189 -18.5156
L56.4479 -18.2247
L56.4579 -17.9224
L56.4489 -17.6092
L56.4209 -17.2857
L56.3739 -16.9526
L56.3083 -16.6106
L56.0869 -16.2605
L55.731 -15.782
L55.3691 -15.4346
L55.0013 -15.0933
L54.6276 -14.7585
L54.2484 -14.4301
L53.8635 -14.1083
L53.4732 -13.7931
L53.0776 -13.4848
L52.6768 -13.1832
L52.2709 -12.8887
L51.8601 -12.6011
L51.4444 -12.3207
L51.024 -12.0475
L50.5991 -11.7816
L50.1697 -11.5231
L49.736 -11.2721
L49.298 -11.0285
L48.8561 -10.7926
L48.4102 -10.5644
L47.9606 -10.3439
L47.5073 -10.1312
L47.0505 -9.9264
L46.5903 -9.72954
L46.1269 -9.54069
L45.6604 -9.35989
L45.191 -9.18721
L44.7188 -9.02269
L44.2439 -8.8664
L43.7665 -8.71836
L43.2868 -8.57864
L42.8048 -8.44727
L42.3208 -8.3243
L41.8348 -8.20975
L41.3471 -8.10367
L40.8577 -8.00609
L40.3668 -7.91704
L39.8746 -7.83653
L39.3813 -7.76461
L38.8869 -7.70129
L38.3916 -7.64659
L37.8956 -7.60052
L37.399 -7.56311
L36.902 -7.53436
L36.4047 -7.51428
L35.9073 -7.50287
L35.41 -7.50015
L34.9128 -7.50611
L34.4159 -7.52075
L33.9195 -7.54406
L33.4238 -7.57604
L32.9288 -7.61668
L32.4348 -7.66596
L31.9418 -7.72388
L31.4501 -7.79041
L30.9598 -7.86553
L30.471 -7.94922
L29.9839 -8.04146
L29.4986 -8.14221
L29.0153 -8.25145
L28.5342 -8.36914
L28.0553 -8.49524
L27.5788 -8.62973
L27.1049 -8.77255
L26.6337 -8.92367
L26.1654 -9.08303
L25.7001 -9.2506
L25.2378 -9.42631
L24.7789 -9.61011
L24.3234 -9.80196
L23.8715 -10.0018
L23.4232 -10.2095
L22.9788 -10.4251
L22.5383 -10.6485
L22.1019 -10.8796
L21.6698 -11.1184
L21.2421 -11.3647
L20.8188 -11.6186
L20.4002 -11.8799
L19.9863 -12.1485
L19.5772 -12.4244
L19.1732 -12.7074
L18.7744 -12.9976
L18.3807 -13.2948
L17.9924 -13.5989
L17.6097 -13.9098
L17.2325 -14.2274
L16.861 -14.5517
L16.4954 -14.8825
L16.1357 -15.2197
L15.782 -15.5633
L15.4346 -15.9131
L15.0933 -16.269
L14.7585 -16.6309
L14.4301 -16.9987
L14.1083 -17.3724
L13.7931 -17.7516
L13.4848 -18.1365
L13.1832 -18.5268
L12.8887 -18.9224
L12.6011 -19.3232
L12.3207 -19.7291
L12.0475 -20.1399
L11.7816 -20.5556
L11.5231 -20.976
L11.2721 -21.4009
L11.0285 -21.8303
L10.7926 -22.264
L10.5644 -22.702
L10.3439 -23.1439
L10.1312 -23.5898
L9.9264 -24.0394
L9.72954 -24.4927
L9.54069 -24.9495
L9.35989 -25.4097
L9.18721 -25.8731
L9.02269 -26.3396
L8.8664 -26.809
L8.71836 -27.2812
L8.57864 -27.7561
L8.44727 -28.2335
L8.3243 -28.7132
L8.20975 -29.1952
L8.10367 -29.6792
L8.00609 -30.1652
L7.91704 -30.6529
L7.83653 -31.1423
L7.76461 -31.6332
L7.70129 -32.1254
L7.64659 -32.6187
L7.60052 -33.1131
L7.56311 -33.6084
L7.53436 -34.1044
L7.51428 -34.601
L7.50287 -35.098
L7.50015 -35.5953
L7.50611 -36.0927
L7.52075 -36.59
z
" id="C0_1_d6615e7fc6"/>
     <path d="
M15.7919 -56.0808
L16.1552 -56.1786
L16.5251 -56.2808
L16.901 -56.3863
L17.2822 -56.4942
L17.6683 -56.6038
L18.0588 -56.7141
L18.453 -56.8245
L18.8506 -56.9343
L19.251 -57.0429
L19.6538 -57.1497
L20.0585 -57.2543
L20.4647 -57.3562
L20.8721 -57.4552
L21.2802 -57.5508
L21.6887 -57.6428
L22.0973 -57.7309
L22.5056 -57.815
L22.9134 -57.895
L23.3205 -57.9706
L23.7266 -58.0418
L24.1314 -58.1086
L24.5347 -58.1708
L24.9364 -58.2285
L25.3363 -58.2816
L25.7343 -58.3302
L26.1301 -58.3742
L26.5237 -58.4138
L26.9149 -58.4488
L27.3037 -58.4795
L27.69 -58.5058
L28.0737 -58.5278
L28.4547 -58.5456
L28.833 -58.5593
L29.2085 -58.5688
L29.5812 -58.5744
L29.9511 -58.5761
L30.3181 -58.5739
L30.6823 -58.5679
L31.0436 -58.5583
L31.402 -58.5451
L31.7576 -58.5283
L32.1104 -58.5081
L32.4603 -58.4846
L32.8074 -58.4577
L33.1517 -58.4276
L33.4933 -58.3944
L33.8322 -58.358
L34.1684 -58.3187
L34.5019 -58.2763
L34.8328 -58.2311
L35.1612 -58.183
L35.487 -58.1322
L35.8104 -58.0785
L36.1314 -58.0222
L36.4499 -57.9633
L36.7662 -57.9017
L37.0802 -57.8376
L37.3919 -57.7709
L37.7015 -57.7018
L38.009 -57.6302
L38.3144 -57.5561
L38.6179 -57.4797
L38.9193 -57.4009
L39.2189 -57.3197
L39.5166 -57.2362
L39.8126 -57.1504
L40.1068 -57.0622
L40.3993 -56.9718
L40.6902 -56.8791
L40.9796 -56.784
L41.2674 -56.6868
L41.5537 -56.5872
L41.8387 -56.4854
L42.1222 -56.3813
L42.4045 -56.2749
L42.6855 -56.1662
L42.9653 -56.0552
L43.2439 -55.942
L43.5215 -55.8264
L43.7979 -55.7084
L44.0733 -55.5881
L44.3478 -55.4654
L44.6213 -55.3404
L44.894 -55.2129
L45.1658 -55.0829
L45.4368 -54.9505
L45.707 -54.8156
L45.9765 -54.6781
L46.2454 -54.5381
L46.5136 -54.3955
L46.7811 -54.2502
L47.0481 -54.1022
L47.3146 -53.9515
L47.5805 -53.7981
L47.846 -53.6418
L48.111 -53.4826
L48.3756 -53.3206
L48.6398 -53.1555
L48.9036 -52.9875
L49.167 -52.8164
L49.4301 -52.6422
L49.6929 -52.4647
L49.9554 -52.2841
L50.2176 -52.1001
L50.4795 -51.9128
L50.7411 -51.7221
L51.0025 -51.5278
L51.2636 -51.3301
L51.5244 -51.1287
L51.785 -50.9236
L52.0453 -50.7147
L52.3053 -50.5021
L52.565 -50.2855
L52.8245 -50.0651
L53.0835 -49.8405
L53.3423 -49.6119
L53.6006 -49.3792
L53.8586 -49.1423
L54.1161 -48.901
L54.3731 -48.6555
L54.6296 -48.4055
L54.8855 -48.1511
L55.1408 -47.8922
L55.3954 -47.6287
L55.6493 -47.3607
L55.9024 -47.088
L56.1546 -46.8107
L56.4059 -46.5287
L56.6561 -46.242
L56.9053 -45.9506
L57.1532 -45.6545
L57.3999 -45.3538
L57.6452 -45.0483
L57.8891 -44.7383
L58.1314 -44.4237
L58.372 -44.1045
L58.6108 -43.781
L58.8478 -43.4532
L59.0828 -43.1213
L59.3157 -42.7853
L59.5465 -42.4455
L59.775 -42.1021
L60.0012 -41.7554
L60.2249 -41.4055
L60.4462 -41.0528
L60.6648 -40.6977
L60.8809 -40.3405
L61.0943 -39.9817
L61.305 -39.6218
L61.5131 -39.2612
L61.7185 -38.9005
L61.9213 -38.5404
L62.1217 -38.1815
L62.3196 -37.8247
L62.5152 -37.4706
L62.7088 -37.1201
L62.9005 -36.7742
L63.0905 -36.4337
L63.2791 -36.0997
L63.4666 -35.7732
L63.6534 -35.4553
L63.8398 -35.147
L64.0261 -34.8495
L64.2128 -34.5638
L64.4741 -34.291
L64.491 -34.7848
L64.4991 -35.2819
L64.4987 -35.7793
L64.4895 -36.2767
L64.4716 -36.774
L64.4451 -37.2711
L64.4099 -37.7678
L64.3661 -38.264
L64.3136 -38.7595
L64.2525 -39.2541
L64.1828 -39.7477
L64.1045 -40.2402
L64.0177 -40.7315
L63.9223 -41.2212
L63.8184 -41.7094
L63.706 -42.1958
L63.5852 -42.6804
L63.456 -43.1629
L63.3184 -43.6433
L63.1725 -44.1213
L63.0183 -44.5968
L62.8559 -45.0697
L62.6853 -45.5399
L62.5066 -46.0071
L62.3198 -46.4713
L62.125 -46.9323
L61.9223 -47.39
L61.7116 -47.8442
L61.4931 -48.2948
L61.2669 -48.7417
L61.0329 -49.1846
L60.7913 -49.6236
L60.5422 -50.0584
L60.2856 -50.4889
L60.0216 -50.9151
L59.7503 -51.3366
L59.4717 -51.7535
L59.186 -52.1656
L58.8933 -52.5728
L58.5935 -52.9749
L58.2869 -53.3719
L57.9735 -53.7636
L57.6534 -54.1498
L57.3267 -54.5305
L56.9935 -54.9056
L56.6539 -55.2749
L56.308 -55.6384
L55.9559 -55.9959
L55.5978 -56.3472
L55.2337 -56.6924
L54.8637 -57.0313
L54.488 -57.3638
L54.1066 -57.6897
L53.7198 -58.0091
L53.3275 -58.3217
L52.9299 -58.6276
L52.5272 -58.9266
L52.1195 -59.2185
L51.7069 -59.5034
L51.2894 -59.7812
L50.8673 -60.0517
L50.4407 -60.3149
L50.0097 -60.5706
L49.5744 -60.8189
L49.135 -61.0596
L48.6916 -61.2927
L48.2443 -61.5181
L47.7933 -61.7357
L47.3387 -61.9455
L46.8806 -62.1474
L46.4192 -62.3413
L45.9547 -62.5271
L45.4871 -62.7049
L45.0166 -62.8746
L44.5434 -63.0361
L44.0676 -63.1893
L43.5893 -63.3343
L43.1087 -63.4709
L42.626 -63.5992
L42.1412 -63.7191
L41.6546 -63.8305
L41.1662 -63.9334
L40.6763 -64.0279
L40.1849 -64.1137
L39.6923 -64.1911
L39.1985 -64.2598
L38.7038 -64.32
L38.2082 -64.3715
L37.712 -64.4143
L37.2152 -64.4485
L36.7181 -64.4741
L36.2207 -64.491
L35.7233 -64.4991
L35.226 -64.4987
L34.7289 -64.4895
L34.2322 -64.4716
L33.736 -64.4451
L33.2405 -64.4099
L32.7459 -64.3661
L32.2523 -64.3136
L31.7598 -64.2525
L31.2685 -64.1828
L30.7788 -64.1045
L30.2906 -64.0177
L29.8042 -63.9223
L29.3196 -63.8184
L28.8371 -63.706
L28.3567 -63.5852
L27.8787 -63.456
L27.4032 -63.3184
L26.9303 -63.1725
L26.4601 -63.0183
L25.9929 -62.8559
L25.5287 -62.6853
L25.0677 -62.5066
L24.61 -62.3198
L24.1558 -62.125
L23.7052 -61.9223
L23.2583 -61.7116
L22.8154 -61.4931
L22.3764 -61.2669
L21.9416 -61.0329
L21.5111 -60.7913
L21.0849 -60.5422
L20.6634 -60.2856
L20.2465 -60.0216
L19.8344 -59.7503
L19.4272 -59.4717
L19.0251 -59.186
L18.6281 -58.8933
L18.2364 -58.5935
L17.8502 -58.2869
L17.4695 -57.9735
L17.0944 -57.6534
L16.7251 -57.3267
L16.3616 -56.9935
z
" id="C0_2_4648675b01"/>
    </defs>
    <g clip-path="url(#p1bffca34e9)">
     <use style="fill:#ff0000;stroke:#000000;stroke-width:2.0;" x="0.0" xlink:href="#C0_0_a811fe30f3" y="72.0"/>
    </g>
    <g clip-path="url(#p1bffca34e9)">
     <use style="fill:#ffffff;stroke:#000000;stroke-width:2.0;" x="0.0" xlink:href="#C0_1_d6615e7fc6" y="72.0"/>
    </g>
    <g clip-path="url(#p1bffca34e9)">
     <use style="fill:#ffffff;stroke:#000000;stroke-width:2.0;" x="0.0" xlink:href="#C0_2_4648675b01" y="72.0"/>
    </g>
   </g>
  </g>
 </g>
 <defs>
  <clipPath id="p1bffca34e9">
   <rect height="72.0" width="72.0" x="0.0" y="0.0"/>
  </clipPath>
 </defs>
</svg>
