<?xml version="1.0" encoding="utf-8" standalone="no"?>
<!DOCTYPE svg PUBLIC "-//W3C//DTD SVG 1.1//EN"
  "http://www.w3.org/Graphics/SVG/1.1/DTD/svg11.dtd">
<!-- Created with matplotlib (http://matplotlib.org/) -->
<svg height="72pt" version="1.1" viewBox="0 0 72 72" width="72pt" xmlns="http://www.w3.org/2000/svg" xmlns:xlink="http://www.w3.org/1999/xlink">
 <defs>
  <style type="text/css">
*{stroke-linecap:butt;stroke-linejoin:round;}
  </style>
 </defs>
 <g id="figure_1">
  <g id="patch_1">
   <path d="
M0 72
L72 72
L72 0
L0 0
z
" style="fill:none;"/>
  </g>
  <g id="axes_1">
   <g id="PatchCollection_1">
    <defs>
     <path d="
M36 -7.5
C43.5583 -7.5 50.808 -10.5029 56.1525 -15.8475
C61.4971 -21.192 64.5 -28.4417 64.5 -36
C64.5 -43.5583 61.4971 -50.808 56.1525 -56.1525
C50.808 -61.4971 43.5583 -64.5 36 -64.5
C28.4417 -64.5 21.192 -61.4971 15.8475 -56.1525
C10.5029 -50.808 7.5 -43.5583 7.5 -36
C7.5 -28.4417 10.5029 -21.192 15.8475 -15.8475
C21.192 -10.5029 28.4417 -7.5 36 -7.5
z
" id="C0_0_a811fe30f3"/>
     <path d="
M16.8453 -15.1736
L17.1046 -15.2449
L17.3521 -15.335
L17.5882 -15.443
L17.8131 -15.5682
L18.0273 -15.7096
L18.2313 -15.8663
L18.4256 -16.0374
L18.6109 -16.2219
L18.7877 -16.4189
L18.9567 -16.6274
L19.1186 -16.8465
L19.2739 -17.0753
L19.4232 -17.3129
L19.5672 -17.5585
L19.7063 -17.8114
L19.8411 -18.0707
L19.972 -18.3359
L20.0995 -18.6062
L20.224 -18.8811
L20.3457 -19.16
L20.4652 -19.4423
L20.5825 -19.7275
L20.6981 -20.0153
L20.8121 -20.3052
L20.9248 -20.5969
L21.0363 -20.8899
L21.1469 -21.1839
L21.2565 -21.4787
L21.3655 -21.7739
L21.4738 -22.0694
L21.5817 -22.3649
L21.6891 -22.6602
L21.7961 -22.9552
L21.9029 -23.2495
L22.0094 -23.5432
L22.1157 -23.836
L22.2219 -24.1279
L22.3279 -24.4187
L22.4339 -24.7083
L22.5398 -24.9967
L22.6457 -25.2838
L22.7515 -25.5695
L22.8573 -25.8538
L22.9632 -26.1366
L23.069 -26.4179
L23.1749 -26.6976
L23.2809 -26.9758
L23.3868 -27.2524
L23.4928 -27.5274
L23.5989 -27.8007
L23.7051 -28.0725
L23.8113 -28.3427
L23.9175 -28.6113
L24.0239 -28.8783
L24.1303 -29.1437
L24.2369 -29.4076
L24.3435 -29.67
L24.4503 -29.9309
L24.5571 -30.1902
L24.6641 -30.4482
L24.7712 -30.7047
L24.8785 -30.9598
L24.9858 -31.2136
L25.0934 -31.466
L25.2011 -31.7172
L25.309 -31.9671
L25.4171 -32.2159
L25.5253 -32.4634
L25.6338 -32.7098
L25.7425 -32.9552
L25.8514 -33.1995
L25.9606 -33.4428
L26.0701 -33.6851
L26.1798 -33.9266
L26.2898 -34.1671
L26.4001 -34.4069
L26.5108 -34.6458
L26.6218 -34.884
L26.7331 -35.1216
L26.8448 -35.3585
L26.957 -35.5947
L27.0695 -35.8305
L27.1825 -36.0657
L27.2959 -36.3005
L27.4098 -36.5348
L27.5242 -36.7688
L27.6391 -37.0025
L27.8705 -37.2359
L27.987 -37.469
L28.1042 -37.702
L28.222 -37.9348
L28.3404 -38.1675
L28.4595 -38.4002
L28.5793 -38.6328
L28.6999 -38.8656
L28.8211 -39.0983
L28.9432 -39.3312
L29.066 -39.5643
L29.1897 -39.7976
L29.3141 -40.0312
L29.4395 -40.2651
L29.5658 -40.4993
L29.693 -40.7339
L29.8211 -40.9689
L29.9502 -41.2044
L30.0803 -41.4404
L30.2115 -41.677
L30.3437 -41.9141
L30.477 -42.1519
L30.6114 -42.3904
L30.7469 -42.6296
L30.8836 -42.8695
L31.0215 -43.1103
L31.1606 -43.3518
L31.301 -43.5942
L31.4426 -43.8375
L31.5855 -44.0818
L31.7297 -44.327
L31.8752 -44.5732
L32.022 -44.8204
L32.1703 -45.0686
L32.3199 -45.318
L32.4709 -45.5684
L32.6233 -45.82
L32.7771 -46.0727
L32.9324 -46.3266
L33.0891 -46.5816
L33.2472 -46.8379
L33.4068 -47.0954
L33.5678 -47.3541
L33.7302 -47.614
L33.894 -47.8752
L34.0592 -48.1376
L34.2258 -48.4012
L34.3937 -48.6661
L34.5628 -48.9323
L34.7332 -49.1996
L34.9048 -49.4682
L35.0775 -49.7379
L35.2513 -50.0088
L35.426 -50.2809
L35.6015 -50.5541
L35.7778 -50.8283
L35.9548 -51.1036
L36.1322 -51.38
L36.3099 -51.6573
L36.4877 -51.9355
L36.6655 -52.2145
L36.843 -52.4944
L37.0199 -52.775
L37.1961 -53.0563
L37.3711 -53.3382
L37.5447 -53.6207
L37.7165 -53.9036
L37.8861 -54.187
L38.053 -54.4707
L38.2168 -54.7546
L38.377 -55.0387
L38.5329 -55.3229
L38.684 -55.6071
L38.8296 -55.8912
L38.9689 -56.1752
L39.1013 -56.459
L39.2259 -56.7425
L39.3419 -57.0256
L39.4483 -57.3083
L39.5442 -57.5904
L39.6286 -57.8719
L39.7006 -58.1527
L39.759 -58.4327
L39.803 -58.7118
L39.8315 -58.9899
L39.8435 -59.2668
L39.8382 -59.5425
L39.8147 -59.8166
L39.7724 -60.0891
L39.7104 -60.3598
L39.6285 -60.6282
L39.5261 -60.8943
L39.4032 -61.1575
L39.2595 -61.4177
L39.0952 -61.6744
L38.9105 -61.9273
L38.7058 -62.1758
L38.4814 -62.4196
L38.238 -62.6582
L37.9762 -62.8912
L37.6967 -63.118
L37.4003 -63.3384
L37.0878 -63.5518
L36.7601 -63.7579
L36.4181 -63.9562
L36.0625 -64.1464
L35.5655 -64.3282
L35.0682 -64.4967
L34.5712 -64.4848
L34.0747 -64.4642
L33.5787 -64.4349
L33.0835 -64.397
L32.5892 -64.3504
L32.0959 -64.2952
L31.6038 -64.2313
L31.113 -64.1589
L30.6237 -64.0779
L30.1361 -63.9883
L29.6502 -63.8902
L29.1663 -63.7836
L28.6844 -63.6686
L28.2048 -63.5451
L27.7276 -63.4132
L27.2529 -63.273
L26.7808 -63.1245
L26.3116 -62.9677
L25.8453 -62.8027
L25.3821 -62.6295
L24.9221 -62.4482
L24.4655 -62.2589
L24.0124 -62.0616
L23.563 -61.8563
L23.1173 -61.6431
L22.6756 -61.4222
L22.238 -61.1935
L21.8045 -60.9571
L21.3754 -60.7131
L20.9507 -60.4616
L20.5306 -60.2026
L20.1152 -59.9363
L19.7046 -59.6627
L19.299 -59.3819
L18.8985 -59.0939
L18.5033 -58.7989
L18.1133 -58.497
L17.7288 -58.1882
L17.3498 -57.8726
L16.9766 -57.5504
L16.6091 -57.2217
L16.2475 -56.8864
L15.892 -56.5448
L15.5426 -56.197
L15.1994 -55.843
L14.8625 -55.4829
L14.5321 -55.1169
L14.2082 -54.7451
L13.891 -54.3676
L13.5805 -53.9845
L13.2768 -53.5959
L12.98 -53.2019
L12.6903 -52.8027
L12.4077 -52.3984
L12.1322 -51.9891
L11.864 -51.5749
L11.6032 -51.156
L11.3498 -50.7325
L11.1039 -50.3044
L10.8656 -49.8721
L10.6349 -49.4354
L10.412 -48.9947
L10.1969 -48.5501
L9.9896 -48.1016
L9.79025 -47.6494
L9.59889 -47.1937
L9.41556 -46.7346
L9.24034 -46.2722
L9.07326 -45.8067
L8.91439 -45.3381
L8.76377 -44.8668
L8.62145 -44.3927
L8.48746 -43.9161
L8.36186 -43.4371
L8.24467 -42.9558
L8.13594 -42.4724
L8.0357 -41.987
L7.94397 -41.4998
L7.86079 -41.0109
L7.78618 -40.5205
L7.72017 -40.0287
L7.66277 -39.5357
L7.614 -39.0416
L7.57388 -38.5466
L7.54242 -38.0508
L7.51963 -37.5544
L7.50551 -37.0575
L7.50007 -36.5603
L7.50331 -36.0629
L7.51524 -35.5655
L7.53584 -35.0682
L7.56511 -34.5712
L7.60304 -34.0747
L7.64962 -33.5787
L7.70484 -33.0835
L7.76867 -32.5892
L7.84111 -32.0959
L7.92213 -31.6038
L8.01169 -31.113
L8.10978 -30.6237
L8.21637 -30.1361
L8.33142 -29.6502
L8.4549 -29.1663
L8.58677 -28.6844
L8.72699 -28.2048
L8.87552 -27.7276
L9.03231 -27.2529
L9.19731 -26.7808
L9.37048 -26.3116
L9.55176 -25.8453
L9.7411 -25.3821
L9.93843 -24.9221
L10.1437 -24.4655
L10.3569 -24.0124
L10.5778 -23.563
L10.8065 -23.1173
L11.0429 -22.6756
L11.2869 -22.238
L11.5384 -21.8045
L11.7974 -21.3754
L12.0637 -20.9507
L12.3373 -20.5306
L12.6181 -20.1152
L12.9061 -19.7046
L13.2011 -19.299
L13.503 -18.8985
L13.8118 -18.5033
L14.1274 -18.1133
L14.4496 -17.7288
L14.7783 -17.3498
L15.1136 -16.9766
L15.4552 -16.6091
L15.803 -16.2475
L16.157 -15.892
z
" id="C0_1_907b5f0df5"/>
     <path d="
M36.3056 -7.50437
L36.6773 -7.68233
L37.0511 -7.86333
L37.426 -8.04749
L37.8013 -8.23491
L38.1765 -8.42563
L38.5509 -8.61968
L38.9239 -8.81705
L39.2951 -9.01772
L39.664 -9.22164
L40.0301 -9.42875
L40.3931 -9.63898
L40.7528 -9.85224
L41.1088 -10.0684
L41.4608 -10.2874
L41.8087 -10.5092
L42.1523 -10.7335
L42.4914 -10.9603
L42.8258 -11.1894
L43.1556 -11.4208
L43.4805 -11.6543
L43.8005 -11.8898
L44.1156 -12.1272
L44.4257 -12.3663
L44.7308 -12.6071
L45.031 -12.8495
L45.3261 -13.0933
L45.6162 -13.3385
L45.9014 -13.5849
L46.1816 -13.8324
L46.457 -14.0811
L46.7275 -14.3308
L46.9932 -14.5814
L47.2541 -14.8328
L47.5104 -15.0851
L47.762 -15.3381
L48.0091 -15.5918
L48.2517 -15.8462
L48.4899 -16.1011
L48.7237 -16.3566
L48.9533 -16.6126
L49.1786 -16.8691
L49.3998 -17.126
L49.617 -17.3834
L49.8302 -17.6412
L50.0394 -17.8994
L50.2449 -18.158
L50.4465 -18.417
L50.6445 -18.6763
L50.8389 -18.936
L51.0297 -19.1961
L51.217 -19.4566
L51.4009 -19.7174
L51.5815 -19.9786
L51.7587 -20.2402
L51.9328 -20.5022
L52.1037 -20.7647
L52.2715 -21.0275
L52.4362 -21.2909
L52.5979 -21.5547
L52.7567 -21.819
L52.9126 -22.0839
L53.0657 -22.3493
L53.216 -22.6153
L53.3635 -22.8819
L53.5083 -23.1491
L53.6505 -23.417
L53.7901 -23.6857
L53.9271 -23.9551
L54.0615 -24.2252
L54.1934 -24.4962
L54.3229 -24.7681
L54.4499 -25.0409
L54.5745 -25.3146
L54.6967 -25.5893
L54.8165 -25.865
L54.9339 -26.1418
L55.0491 -26.4198
L55.1619 -26.6989
L55.2724 -26.9792
L55.3807 -27.2608
L55.4866 -27.5437
L55.5903 -27.8279
L55.6918 -28.1136
L55.791 -28.4007
L55.8879 -28.6894
L55.9826 -28.9796
L56.0751 -29.2714
L56.1653 -29.5649
L56.2532 -29.8601
L56.3389 -30.1571
L56.4222 -30.456
L56.5033 -30.7567
L56.5821 -31.0593
L56.6585 -31.364
L56.7326 -31.6707
L56.8043 -31.9795
L56.8735 -32.2904
L56.9404 -32.6035
L57.0048 -32.9189
L57.0667 -33.2366
L57.1261 -33.5567
L57.1829 -33.8791
L57.2371 -34.204
L57.2886 -34.5314
L57.3374 -34.8614
L57.3835 -35.1939
L57.4268 -35.529
L57.4672 -35.8668
L57.5048 -36.2073
L57.5393 -36.5506
L57.5709 -36.8966
L57.5993 -37.2454
L57.6247 -37.597
L57.6468 -37.9514
L57.6656 -38.3086
L57.6812 -38.6687
L57.6933 -39.0317
L57.7019 -39.3975
L57.707 -39.7662
L57.7085 -40.1376
L57.7064 -40.5119
L57.7005 -40.889
L57.6908 -41.2687
L57.6773 -41.6512
L57.6599 -42.0363
L57.6386 -42.424
L57.6132 -42.8141
L57.5839 -43.2066
L57.5505 -43.6014
L57.513 -43.9984
L57.4715 -44.3974
L57.4259 -44.7983
L57.3763 -45.2009
L57.3227 -45.6051
L57.2651 -46.0107
L57.2037 -46.4175
L57.1385 -46.8251
L57.0697 -47.2335
L56.9974 -47.6423
L56.9219 -48.0512
L56.8433 -48.46
L56.7619 -48.8683
L56.678 -49.2758
L56.592 -49.6821
L56.5042 -50.0868
L56.4152 -50.4895
L56.3254 -50.8898
L56.2354 -51.2872
L56.1458 -51.6814
L56.0572 -52.0717
L55.9704 -52.4577
L55.8863 -52.8389
L55.8055 -53.2148
L55.729 -53.5848
L55.6577 -53.9485
L55.5926 -54.3052
L55.5345 -54.6545
L55.4845 -54.9959
L55.4435 -55.3289
L55.4123 -55.653
L55.3918 -55.9677
L55.3827 -56.2728
L55.3858 -56.5678
L55.7748 -56.8523
L56.13 -56.5233
L56.479 -56.1751
L56.8218 -55.8207
L57.1583 -55.4603
L57.4883 -55.0939
L57.8118 -54.7217
L58.1286 -54.3439
L58.4387 -53.9604
L58.7419 -53.5715
L59.0382 -53.1772
L59.3275 -52.7777
L59.6097 -52.373
L59.8847 -51.9634
L60.1525 -51.5489
L60.4128 -51.1297
L60.6658 -50.7059
L60.9112 -50.2776
L61.149 -49.8449
L61.3792 -49.4081
L61.6016 -48.9671
L61.8163 -48.5222
L62.0231 -48.0735
L62.2219 -47.6211
L62.4128 -47.1652
L62.5956 -46.7058
L62.7703 -46.2432
L62.9369 -45.7775
L63.0952 -45.3088
L63.2453 -44.8373
L63.3872 -44.3631
L63.5206 -43.8863
L63.6457 -43.4071
L63.7624 -42.9257
L63.8706 -42.4422
L63.9703 -41.9567
L64.0615 -41.4693
L64.1441 -40.9804
L64.2182 -40.4899
L64.2837 -39.998
L64.3405 -39.5049
L64.3888 -39.0108
L64.4283 -38.5157
L64.4593 -38.0199
L64.4815 -37.5234
L64.4951 -37.0265
L64.5 -36.5293
L64.4962 -36.0319
L64.4837 -35.5345
L64.4626 -35.0372
L64.4328 -34.5403
L64.3943 -34.0437
L64.3472 -33.5478
L64.2914 -33.0526
L64.2271 -32.5584
L64.1541 -32.0651
L64.0725 -31.5731
L63.9824 -31.0824
L63.8838 -30.5932
L63.7767 -30.1057
L63.6611 -29.62
L63.5371 -29.1362
L63.4047 -28.6545
L63.264 -28.175
L63.1149 -27.6979
L62.9576 -27.2233
L62.7921 -26.7515
L62.6184 -26.2824
L62.4367 -25.8163
L62.2468 -25.3533
L62.049 -24.8935
L61.8432 -24.4371
L61.6296 -23.9843
L61.4081 -23.5351
L61.179 -23.0897
L60.9421 -22.6482
L60.6976 -22.2108
L60.4457 -21.7776
L60.1862 -21.3487
L59.9195 -20.9243
L59.6454 -20.5045
L59.3641 -20.0894
L59.0757 -19.6792
L58.7803 -19.2739
L58.4779 -18.8737
L58.1687 -18.4788
L57.8527 -18.0892
L57.5301 -17.705
L57.2009 -17.3264
L56.8653 -16.9535
L56.5233 -16.5864
L56.1751 -16.2252
L55.8207 -15.87
L55.4603 -15.521
L55.0939 -15.1782
L54.7217 -14.8417
L54.3439 -14.5117
L53.9604 -14.1882
L53.5715 -13.8714
L53.1772 -13.5613
L52.7777 -13.2581
L52.373 -12.9618
L51.9634 -12.6725
L51.5489 -12.3903
L51.1297 -12.1153
L50.7059 -11.8475
L50.2776 -11.5872
L49.8449 -11.3342
L49.4081 -11.0888
L48.9671 -10.851
L48.5222 -10.6208
L48.0735 -10.3984
L47.6211 -10.1837
L47.1652 -9.97694
L46.7058 -9.77808
L46.2432 -9.58722
L45.7775 -9.4044
L45.3088 -9.22968
L44.8373 -9.06312
L44.3631 -8.90476
L43.8863 -8.75465
L43.4071 -8.61285
L42.9257 -8.47938
L42.4422 -8.3543
L41.9567 -8.23764
L41.4693 -8.12944
L40.9804 -8.02972
L40.4899 -7.93853
L39.998 -7.85589
L39.5049 -7.78181
L39.0108 -7.71634
L38.5157 -7.65948
L38.0199 -7.61125
L37.5234 -7.57167
L37.0265 -7.54074
z
" id="C0_2_c54c523667"/>
    </defs>
    <g clip-path="url(#p1bffca34e9)">
     <use style="fill:#ff0000;stroke:#000000;stroke-width:2.0;" x="0.0" xlink:href="#C0_0_a811fe30f3" y="72.0"/>
    </g>
    <g clip-path="url(#p1bffca34e9)">
     <use style="fill:#ffffff;stroke:#000000;stroke-width:2.0;" x="0.0" xlink:href="#C0_1_907b5f0df5" y="72.0"/>
    </g>
    <g clip-path="url(#p1bffca34e9)">
     <use style="fill:#ffffff;stroke:#000000;stroke-width:2.0;" x="0.0" xlink:href="#C0_2_c54c523667" y="72.0"/>
    </g>
   </g>
  </g>
 </g>
 <defs>
  <clipPath id="p1bffca34e9">
   <rect height="72.0" width="72.0" x="0.0" y="0.0"/>
  </clipPath>
 </defs>
</svg>
