<?xml version="1.0" encoding="utf-8" standalone="no"?>
<!DOCTYPE svg PUBLIC "-//W3C//DTD SVG 1.1//EN"
  "http://www.w3.org/Graphics/SVG/1.1/DTD/svg11.dtd">
<!-- Created with matplotlib (http://matplotlib.org/) -->
<svg height="72pt" version="1.1" viewBox="0 0 72 72" width="72pt" xmlns="http://www.w3.org/2000/svg" xmlns:xlink="http://www.w3.org/1999/xlink">
 <defs>
  <style type="text/css">
*{stroke-linecap:butt;stroke-linejoin:round;}
  </style>
 </defs>
 <g id="figure_1">
  <g id="patch_1">
   <path d="
M0 72
L72 72
L72 0
L0 0
z
" style="fill:none;"/>
  </g>
  <g id="axes_1">
   <g id="PatchCollection_1">
    <defs>
     <path d="
M36 -7.5
C43.5583 -7.5 50.808 -10.5029 56.1525 -15.8475
C61.4971 -21.192 64.5 -28.4417 64.5 -36
C64.5 -43.5583 61.4971 -50.808 56.1525 -56.1525
C50.808 -61.4971 43.5583 -64.5 36 -64.5
C28.4417 -64.5 21.192 -61.4971 15.8475 -56.1525
C10.5029 -50.808 7.5 -43.5583 7.5 -36
C7.5 -28.4417 10.5029 -21.192 15.8475 -15.8475
C21.192 -10.5029 28.4417 -7.5 36 -7.5
z
" id="C0_0_a811fe30f3"/>
     <path d="
M46.889 -9.85076
L46.8363 -10.0789
L46.7862 -10.3089
L46.7383 -10.5406
L46.6925 -10.7739
L46.6486 -11.0085
L46.6065 -11.2445
L46.5659 -11.4815
L46.5267 -11.7196
L46.4889 -11.9585
L46.4522 -12.1983
L46.4166 -12.4387
L46.3819 -12.6797
L46.3481 -12.9212
L46.315 -13.1632
L46.2827 -13.4056
L46.2509 -13.6483
L46.2197 -13.8912
L46.189 -14.1343
L46.1587 -14.3776
L46.1288 -14.621
L46.0992 -14.8645
L46.0699 -15.108
L46.0409 -15.3516
L46.012 -15.5951
L45.9833 -15.8387
L45.9547 -16.0822
L45.9263 -16.3256
L45.8979 -16.569
L45.8695 -16.8123
L45.8412 -17.0555
L45.8129 -17.2987
L45.7846 -17.5418
L45.7562 -17.7848
L45.7278 -18.0277
L45.6993 -18.2707
L45.6708 -18.5135
L45.6421 -18.7563
L45.6134 -18.9992
L45.5845 -19.242
L45.5554 -19.4848
L45.5263 -19.7276
L45.4969 -19.9705
L45.4674 -20.2135
L45.4378 -20.4566
L45.4079 -20.6998
L45.3779 -20.9432
L45.3476 -21.1867
L45.3171 -21.4304
L45.2865 -21.6743
L45.2556 -21.9185
L45.2244 -22.163
L45.1931 -22.4078
L45.1614 -22.653
L45.1296 -22.8985
L45.0974 -23.1445
L45.065 -23.3909
L44.9994 -23.6378
L44.9662 -23.8851
L44.9327 -24.1331
L44.8989 -24.3816
L44.8648 -24.6308
L44.8304 -24.8806
L44.7957 -25.1311
L44.7607 -25.3823
L44.7254 -25.6344
L44.6897 -25.8872
L44.6537 -26.1409
L44.6174 -26.3954
L44.5808 -26.6509
L44.5438 -26.9073
L44.5065 -27.1648
L44.4688 -27.4232
L44.4308 -27.6828
L44.3925 -27.9435
L44.3538 -28.2053
L44.3148 -28.4683
L44.2754 -28.7325
L44.2356 -28.998
L44.1956 -29.2648
L44.1551 -29.533
L44.1143 -29.8025
L44.0732 -30.0734
L44.0318 -30.3458
L43.99 -30.6196
L43.9479 -30.895
L43.9054 -31.1719
L43.8627 -31.4504
L43.8196 -31.7304
L43.7763 -32.0121
L43.7327 -32.2955
L43.6888 -32.5805
L43.6446 -32.8672
L43.6003 -33.1557
L43.5557 -33.4458
L43.5109 -33.7378
L43.466 -34.0315
L43.421 -34.327
L43.3758 -34.6243
L43.3306 -34.9234
L43.2854 -35.2242
L43.2402 -35.5269
L43.195 -35.8314
L43.15 -36.1376
L43.1051 -36.4456
L43.0605 -36.7553
L43.0162 -37.0668
L42.9722 -37.38
L42.9287 -37.6948
L42.8857 -38.0112
L42.8434 -38.3293
L42.8018 -38.6488
L42.761 -38.9698
L42.7211 -39.2922
L42.6824 -39.616
L42.6448 -39.941
L42.6086 -40.2671
L42.574 -40.5944
L42.541 -40.9225
L42.5098 -41.2516
L42.4807 -41.5814
L42.4538 -41.9117
L42.4294 -42.2425
L42.4077 -42.5737
L42.3889 -42.905
L42.3732 -43.2362
L42.361 -43.5673
L42.3524 -43.898
L42.3479 -44.2281
L42.3476 -44.5575
L42.352 -44.8858
L42.3612 -45.213
L42.3756 -45.5387
L42.3956 -45.8627
L42.4215 -46.1847
L42.4536 -46.5046
L42.4922 -46.822
L42.5377 -47.1367
L42.5903 -47.4484
L42.6504 -47.7569
L42.7182 -48.0619
L42.7941 -48.3631
L42.8782 -48.6603
L42.9708 -48.9531
L43.0721 -49.2414
L43.1821 -49.5248
L43.3011 -49.8032
L43.4291 -50.0762
L43.5662 -50.3438
L43.7123 -50.6056
L43.8675 -50.8614
L44.0315 -51.1111
L44.2044 -51.3546
L44.386 -51.5915
L44.576 -51.8218
L44.7744 -52.0454
L44.9807 -52.2622
L45.1948 -52.472
L45.4163 -52.6747
L45.6449 -52.8703
L45.8804 -53.0588
L46.1223 -53.24
L46.3704 -53.4139
L46.6242 -53.5806
L46.8834 -53.74
L47.1476 -53.8921
L47.4166 -54.0369
L47.6899 -54.1744
L47.9672 -54.3047
L48.2481 -54.4277
L48.5325 -54.5436
L48.8198 -54.6523
L49.1099 -54.7539
L49.4024 -54.8484
L49.697 -54.936
L49.9936 -55.0167
L50.2917 -55.0904
L50.5913 -55.1574
L50.892 -55.2176
L51.1936 -55.2712
L51.496 -55.3182
L51.7989 -55.3586
L52.1022 -55.3926
L52.4056 -55.4202
L52.7091 -55.4416
L53.0124 -55.4567
L53.3155 -55.4656
L53.6182 -55.4685
L53.9203 -55.4653
L54.2219 -55.4562
L54.5227 -55.4412
L54.8227 -55.4204
L55.1217 -55.3938
L55.4198 -55.3616
L55.7168 -55.3237
L56.0127 -55.2803
L56.3073 -55.2313
L56.6007 -55.1769
L56.8928 -55.117
L57.1836 -55.0518
L57.5543 -54.9813
L57.8765 -54.6456
L58.1919 -54.2666
L58.5006 -53.8821
L58.8025 -53.492
L59.0974 -53.0967
L59.3853 -52.6961
L59.666 -52.2905
L59.9396 -51.8799
L60.2058 -51.4644
L60.4647 -51.0442
L60.7161 -50.6195
L60.96 -50.1903
L61.1963 -49.7568
L61.4249 -49.3191
L61.6457 -48.8773
L61.8588 -48.4316
L62.064 -47.9822
L62.2612 -47.529
L62.4505 -47.0724
L62.6316 -46.6124
L62.8047 -46.1492
L62.9696 -45.6828
L63.1263 -45.2135
L63.2747 -44.7415
L63.4149 -44.2667
L63.5466 -43.7894
L63.67 -43.3098
L63.785 -42.8279
L63.8914 -42.344
L63.9894 -41.8581
L64.0789 -41.3704
L64.1598 -40.8811
L64.2321 -40.3903
L64.2959 -39.8982
L64.351 -39.4049
L64.3975 -38.9106
L64.4353 -38.4153
L64.4645 -37.9193
L64.485 -37.4228
L64.4968 -36.9258
L64.4999 -36.4285
L64.4944 -35.9311
L64.4802 -35.4337
L64.4573 -34.9365
L64.4257 -34.4396
L64.3855 -33.9432
L64.3366 -33.4475
L64.2791 -32.9525
L64.213 -32.4584
L64.1383 -31.9654
L64.055 -31.4736
L63.9632 -30.9832
L63.8628 -30.4944
L63.754 -30.0072
L63.6367 -29.5218
L63.511 -29.0384
L63.3769 -28.5572
L63.2345 -28.0782
L63.0837 -27.6016
L62.9248 -27.1275
L62.7576 -26.6562
L62.5823 -26.1877
L62.3989 -25.7222
L62.2074 -25.2599
L62.008 -24.8008
L61.8006 -24.3451
L61.5854 -23.893
L61.3623 -23.4446
L61.1316 -22.9999
L60.8932 -22.5593
L60.6472 -22.1227
L60.3937 -21.6904
L60.1328 -21.2624
L59.8645 -20.8389
L59.589 -20.4201
L59.3063 -20.0059
L59.0164 -19.5967
L58.7196 -19.1924
L58.4158 -18.7933
L58.1053 -18.3994
L57.7879 -18.0109
L57.464 -17.6278
L57.1335 -17.2504
L56.7965 -16.8786
L56.4533 -16.5127
L56.1038 -16.1528
L55.7482 -15.7988
L55.3865 -15.451
L55.019 -15.1095
L54.6456 -14.7743
L54.2666 -14.4457
L53.8821 -14.1235
L53.492 -13.8081
L53.0967 -13.4994
L52.6961 -13.1975
L52.2905 -12.9026
L51.8799 -12.6147
L51.4644 -12.334
L51.0442 -12.0604
L50.6195 -11.7942
L50.1903 -11.5353
L49.7568 -11.2839
L49.3191 -11.04
L48.8773 -10.8037
L48.4316 -10.5751
L47.9822 -10.3543
L47.529 -10.1412
z
" id="C0_1_6e2319878c"/>
     <path d="
M14.6917 -17.2395
L14.6542 -17.5347
L14.6197 -17.8288
L14.5883 -18.122
L14.5598 -18.4142
L14.5342 -18.7054
L14.5115 -18.9956
L14.4916 -19.2848
L14.4744 -19.573
L14.46 -19.8602
L14.4482 -20.1465
L14.439 -20.4317
L14.4325 -20.7161
L14.4284 -20.9995
L14.4269 -21.282
L14.4278 -21.5637
L14.4311 -21.8445
L14.4368 -22.1244
L14.4448 -22.4036
L14.4552 -22.682
L14.4678 -22.9596
L14.4827 -23.2365
L14.4998 -23.5128
L14.519 -23.7884
L14.5405 -24.0633
L14.5641 -24.3377
L14.5897 -24.6116
L14.6175 -24.8849
L14.6474 -25.1578
L14.6793 -25.4302
L14.7133 -25.7023
L14.7493 -25.9739
L14.7873 -26.2453
L14.8274 -26.5163
L14.8694 -26.7872
L14.9134 -27.0578
L14.9594 -27.3282
L15.0073 -27.5985
L15.0573 -27.8687
L15.1092 -28.1389
L15.163 -28.4091
L15.2188 -28.6793
L15.2766 -28.9496
L15.3364 -29.2199
L15.3981 -29.4905
L15.4618 -29.7612
L15.5275 -30.0321
L15.5952 -30.3033
L15.6649 -30.5749
L15.7366 -30.8467
L15.8103 -31.119
L15.886 -31.3917
L15.9638 -31.6648
L16.0436 -31.9384
L16.1255 -32.2126
L16.2095 -32.4873
L16.2956 -32.7626
L16.3837 -33.0386
L16.4741 -33.3152
L16.5665 -33.5926
L16.6611 -33.8707
L16.7579 -34.1495
L16.8569 -34.4292
L16.9581 -34.7096
L17.0615 -34.991
L17.1672 -35.2732
L17.2752 -35.5564
L17.3854 -35.8405
L17.4979 -36.1255
L17.6128 -36.4115
L17.7299 -36.6986
L17.8494 -36.9866
L17.9713 -37.2757
L18.0955 -37.5659
L18.2221 -37.8571
L18.3511 -38.1494
L18.4825 -38.4428
L18.6162 -38.7373
L18.7524 -39.0329
L18.8909 -39.3296
L19.0318 -39.6274
L19.175 -39.9263
L19.3206 -40.2263
L19.4685 -40.5275
L19.6187 -40.8297
L19.7712 -41.1329
L19.9259 -41.4372
L20.0828 -41.7426
L20.2418 -42.0489
L20.4029 -42.3563
L20.566 -42.6646
L20.731 -42.9738
L20.8978 -43.2839
L21.0664 -43.5948
L21.2366 -43.9066
L21.4083 -44.2191
L21.5814 -44.5324
L21.7557 -44.8463
L21.9311 -45.1609
L22.1074 -45.476
L22.2844 -45.7916
L22.4619 -46.1076
L22.6397 -46.424
L22.8176 -46.7408
L22.9952 -47.0578
L23.1724 -47.3749
L23.3489 -47.6922
L23.5242 -48.0096
L23.6982 -48.3269
L23.8706 -48.6441
L24.0408 -48.9611
L24.2087 -49.2779
L24.3737 -49.5944
L24.5356 -49.9105
L24.694 -50.2261
L24.8484 -50.5412
L24.9985 -50.8557
L25.1438 -51.1696
L25.284 -51.4826
L25.4186 -51.7949
L25.5474 -52.1062
L25.6699 -52.4166
L25.7858 -52.7258
L25.8948 -53.034
L25.9966 -53.3409
L26.091 -53.6465
L26.1776 -53.9506
L26.2564 -54.2532
L26.327 -54.5543
L26.3896 -54.8536
L26.4438 -55.151
L26.4898 -55.4466
L26.5274 -55.74
L26.5567 -56.0313
L26.5779 -56.3203
L26.5909 -56.6069
L26.5958 -56.8909
L26.5929 -57.1722
L26.5824 -57.4508
L26.5643 -57.7264
L26.5389 -57.999
L26.5064 -58.2684
L26.4671 -58.5345
L26.4212 -58.7973
L26.3689 -59.0565
L26.3105 -59.3122
L26.2462 -59.5641
L26.1762 -59.8123
L26.1009 -60.0566
L26.0204 -60.297
L25.9349 -60.5333
L25.8448 -60.7655
L25.7501 -60.9936
L25.6511 -61.2174
L25.5481 -61.4371
L25.4411 -61.6524
L25.3304 -61.8633
L25.2161 -62.0699
L24.6193 -62.2721
L24.165 -62.1291
L23.7143 -61.9265
L23.2674 -61.716
L22.8243 -61.4977
L22.3853 -61.2716
L21.9504 -61.0378
L21.5198 -60.7963
L21.0936 -60.5474
L20.6719 -60.2909
L20.2549 -60.0271
L19.8427 -59.7559
L19.4354 -59.4775
L19.0332 -59.1919
L18.6361 -58.8993
L18.2444 -58.5997
L17.858 -58.2932
L17.4772 -57.9799
L17.102 -57.66
L16.7325 -57.3334
L16.369 -57.0003
L16.0114 -56.6609
L15.6599 -56.3151
L15.3146 -55.9632
L14.9755 -55.6052
L14.6429 -55.2412
L14.3168 -54.8713
L13.9974 -54.4957
L13.6846 -54.1145
L13.3786 -53.7277
L13.0795 -53.3355
L12.7873 -52.9381
L12.5023 -52.5355
L12.2244 -52.1279
L11.9538 -51.7153
L11.6904 -51.298
L11.4345 -50.876
L11.1861 -50.4495
L10.9452 -50.0185
L10.712 -49.5833
L10.4864 -49.144
L10.2686 -48.7007
L10.0587 -48.2535
L9.85668 -47.8025
L9.66261 -47.348
L9.47656 -46.89
L9.2986 -46.4287
L9.12877 -45.9642
L8.96712 -45.4967
L8.81371 -45.0263
L8.66857 -44.5531
L8.53177 -44.0773
L8.40333 -43.5991
L8.2833 -43.1186
L8.17171 -42.6358
L8.06859 -42.1511
L7.97399 -41.6645
L7.88792 -41.1762
L7.81042 -40.6863
L7.7415 -40.1949
L7.68119 -39.7023
L7.6295 -39.2086
L7.58646 -38.7138
L7.55207 -38.2183
L7.52635 -37.7221
L7.5093 -37.2253
L7.50094 -36.7282
L7.50125 -36.2309
L7.51024 -35.7334
L7.52791 -35.2361
L7.55425 -34.739
L7.58926 -34.2423
L7.63292 -33.7461
L7.68523 -33.2506
L7.74616 -32.756
L7.81569 -32.2623
L7.89381 -31.7698
L7.98049 -31.2785
L8.07571 -30.7887
L8.17943 -30.3005
L8.29163 -29.814
L8.41227 -29.3295
L8.54131 -28.8469
L8.67871 -28.3665
L8.82444 -27.8885
L8.97844 -27.4129
L9.14068 -26.9399
L9.3111 -26.4697
L9.48964 -26.0024
L9.67627 -25.5381
L9.87091 -25.077
L10.0735 -24.6193
L10.284 -24.165
L10.5023 -23.7143
L10.7284 -23.2674
L10.9622 -22.8243
L11.2037 -22.3853
L11.4526 -21.9504
L11.7091 -21.5198
L11.9729 -21.0936
L12.2441 -20.6719
L12.5225 -20.2549
L12.8081 -19.8427
L13.1007 -19.4354
L13.4003 -19.0332
L13.7068 -18.6361
L14.0201 -18.2444
z
" id="C0_2_0613ebfeb2"/>
    </defs>
    <g clip-path="url(#p1bffca34e9)">
     <use style="fill:#ffffff;stroke:#000000;stroke-width:2.0;" x="0.0" xlink:href="#C0_0_a811fe30f3" y="72.0"/>
    </g>
    <g clip-path="url(#p1bffca34e9)">
     <use style="fill:#ff0000;stroke:#000000;stroke-width:2.0;" x="0.0" xlink:href="#C0_1_6e2319878c" y="72.0"/>
    </g>
    <g clip-path="url(#p1bffca34e9)">
     <use style="fill:#ff0000;stroke:#000000;stroke-width:2.0;" x="0.0" xlink:href="#C0_2_0613ebfeb2" y="72.0"/>
    </g>
   </g>
  </g>
 </g>
 <defs>
  <clipPath id="p1bffca34e9">
   <rect height="72.0" width="72.0" x="0.0" y="0.0"/>
  </clipPath>
 </defs>
</svg>
