<?xml version="1.0" encoding="utf-8" standalone="no"?>
<!DOCTYPE svg PUBLIC "-//W3C//DTD SVG 1.1//EN"
  "http://www.w3.org/Graphics/SVG/1.1/DTD/svg11.dtd">
<!-- Created with matplotlib (http://matplotlib.org/) -->
<svg height="72pt" version="1.1" viewBox="0 0 72 72" width="72pt" xmlns="http://www.w3.org/2000/svg" xmlns:xlink="http://www.w3.org/1999/xlink">
 <defs>
  <style type="text/css">
*{stroke-linecap:butt;stroke-linejoin:round;}
  </style>
 </defs>
 <g id="figure_1">
  <g id="patch_1">
   <path d="
M0 72
L72 72
L72 0
L0 0
z
" style="fill:none;"/>
  </g>
  <g id="axes_1">
   <g id="PatchCollection_1">
    <defs>
     <path d="
M36 -7.5
C43.5583 -7.5 50.808 -10.5029 56.1525 -15.8475
C61.4971 -21.192 64.5 -28.4417 64.5 -36
C64.5 -43.5583 61.4971 -50.808 56.1525 -56.1525
C50.808 -61.4971 43.5583 -64.5 36 -64.5
C28.4417 -64.5 21.192 -61.4971 15.8475 -56.1525
C10.5029 -50.808 7.5 -43.5583 7.5 -36
C7.5 -28.4417 10.5029 -21.192 15.8475 -15.8475
C21.192 -10.5029 28.4417 -7.5 36 -7.5
z
" id="C0_0_a811fe30f3"/>
     <path d="
M61.2537 -23.2244
L60.8618 -23.0127
L60.4509 -22.7792
L60.027 -22.5368
L59.5937 -22.2928
L59.1536 -22.0517
L58.7082 -21.8161
L58.2589 -21.5877
L57.8067 -21.3675
L57.3523 -21.1561
L56.8966 -20.9541
L56.4401 -20.7615
L55.9834 -20.5785
L55.527 -20.405
L55.0714 -20.2411
L54.6169 -20.0866
L54.1639 -19.9413
L53.7128 -19.8051
L53.264 -19.6777
L52.8176 -19.5589
L52.374 -19.4485
L51.9334 -19.3463
L51.496 -19.252
L51.062 -19.1653
L50.6316 -19.086
L50.2049 -19.0139
L49.7821 -18.9486
L49.3633 -18.89
L48.9485 -18.8378
L48.5379 -18.7917
L48.1315 -18.7515
L47.7294 -18.717
L47.3316 -18.688
L46.9381 -18.6642
L46.549 -18.6454
L46.1642 -18.6314
L45.7837 -18.6221
L45.4076 -18.6172
L45.0357 -18.6166
L44.6682 -18.62
L44.3048 -18.6274
L43.9456 -18.6385
L43.5906 -18.6533
L43.2396 -18.6715
L42.8927 -18.693
L42.5497 -18.7177
L42.2106 -18.7454
L41.8752 -18.7761
L41.5437 -18.8097
L41.2158 -18.8459
L40.8915 -18.8848
L40.5707 -18.9263
L40.2533 -18.9701
L39.9392 -19.0164
L39.6285 -19.0649
L39.3209 -19.1156
L39.0164 -19.1684
L38.7149 -19.2234
L38.4163 -19.2803
L38.1206 -19.3392
L37.8276 -19.4
L37.5373 -19.4627
L37.2497 -19.5272
L36.9645 -19.5935
L36.6817 -19.6615
L36.4013 -19.7312
L36.1232 -19.8026
L35.8473 -19.8757
L35.5734 -19.9504
L35.3016 -20.0267
L35.0318 -20.1046
L34.7638 -20.184
L34.4976 -20.265
L34.2332 -20.3476
L33.9704 -20.4318
L33.7092 -20.5174
L33.4495 -20.6046
L33.1912 -20.6934
L32.9343 -20.7837
L32.6787 -20.8756
L32.4243 -20.969
L32.171 -21.064
L31.9189 -21.1605
L31.6678 -21.2587
L31.4176 -21.3584
L31.1684 -21.4598
L30.6723 -21.5629
L30.4254 -21.6676
L30.1791 -21.774
L29.9334 -21.8821
L29.6882 -21.992
L29.4435 -22.1037
L29.1992 -22.2171
L28.9553 -22.3324
L28.7117 -22.4496
L28.4683 -22.5688
L28.2251 -22.6899
L27.9821 -22.813
L27.7391 -22.9381
L27.4962 -23.0654
L27.2533 -23.1948
L27.0104 -23.3264
L26.7673 -23.4602
L26.5241 -23.5964
L26.2806 -23.735
L26.037 -23.876
L25.793 -24.0195
L25.5488 -24.1655
L25.3041 -24.3142
L25.0591 -24.4656
L24.8136 -24.6198
L24.5677 -24.7769
L24.3213 -24.9369
L24.0743 -25.0999
L23.8267 -25.266
L23.5786 -25.4353
L23.3299 -25.6079
L23.0805 -25.7839
L22.8305 -25.9634
L22.5798 -26.1464
L22.3284 -26.3332
L22.0763 -26.5237
L21.8236 -26.7181
L21.5702 -26.9165
L21.316 -27.119
L21.0613 -27.3257
L20.8058 -27.5368
L20.5497 -27.7524
L20.293 -27.9726
L20.0357 -28.1975
L19.7778 -28.4272
L19.5195 -28.6619
L19.2607 -28.9018
L19.0014 -29.1469
L18.7419 -29.3973
L18.4821 -29.6533
L18.2222 -29.915
L17.9622 -30.1824
L17.7022 -30.4558
L17.4424 -30.7352
L17.1829 -31.0209
L16.9237 -31.3129
L16.6652 -31.6113
L16.4073 -31.9163
L16.1504 -32.2281
L15.8946 -32.5467
L15.64 -32.8722
L15.387 -33.2048
L15.1357 -33.5446
L14.8864 -33.8916
L14.6393 -34.2459
L14.3947 -34.6077
L14.153 -34.9768
L13.9143 -35.3535
L13.679 -35.7377
L13.4474 -36.1294
L13.2198 -36.5286
L12.9967 -36.9353
L12.7783 -37.3494
L12.565 -37.7707
L12.3571 -38.1993
L12.155 -38.6348
L11.959 -39.0771
L11.7695 -39.5258
L11.5867 -39.9807
L11.4109 -40.4412
L11.2423 -40.9068
L11.081 -41.3766
L10.927 -41.8497
L10.7799 -42.3246
L10.639 -42.7993
L10.503 -43.2709
L10.3693 -43.7346
L10.2332 -44.183
L10.0861 -44.6033
L9.91424 -44.9737
L9.70043 -45.2591
L9.43539 -45.4171
L9.12653 -45.4237
L8.90737 -45.2958
L8.75713 -44.8453
L8.61518 -44.3711
L8.48157 -43.8944
L8.35635 -43.4153
L8.23955 -42.9339
L8.1312 -42.4504
L8.03134 -41.9649
L7.94001 -41.4776
L7.85722 -40.9887
L7.783 -40.4982
L7.71738 -40.0063
L7.66037 -39.5133
L7.61199 -39.0191
L7.57226 -38.5241
L7.5412 -38.0283
L7.5188 -37.5318
L7.50507 -37.0349
L7.50003 -36.5377
L7.50367 -36.0403
L7.51598 -35.5429
L7.53698 -35.0456
L7.56664 -34.5487
L7.60497 -34.0522
L7.65194 -33.5562
L7.70755 -33.061
L7.77178 -32.5667
L7.84461 -32.0735
L7.92601 -31.5814
L8.01596 -31.0907
L8.11444 -30.6015
L8.22141 -30.1139
L8.33685 -29.6282
L8.46071 -29.1443
L8.59296 -28.6626
L8.73356 -28.1831
L8.88246 -27.706
L9.03963 -27.2314
L9.205 -26.7594
L9.37854 -26.2903
L9.56019 -25.8242
L9.74989 -25.3611
L9.94759 -24.9013
L10.1532 -24.4448
L10.3667 -23.9919
L10.588 -23.5427
L10.8171 -23.0972
L11.0538 -22.6557
L11.2981 -22.2182
L11.55 -21.7849
L11.8093 -21.356
L12.076 -20.9315
L12.3499 -20.5116
L12.6311 -20.0964
L12.9193 -19.6861
L13.2147 -19.2807
L13.5169 -18.8805
L13.826 -18.4854
L14.1418 -18.0957
L14.4644 -17.7114
L14.7934 -17.3328
L15.129 -16.9598
L15.4708 -16.5925
L15.819 -16.2313
L16.1733 -15.876
L16.5336 -15.5268
L16.8998 -15.1839
L17.2719 -14.8474
L17.6497 -14.5172
L18.0331 -14.1937
L18.4219 -13.8767
L18.8161 -13.5665
L19.2155 -13.2632
L19.6201 -12.9667
L20.0296 -12.6773
L20.444 -12.395
L20.8631 -12.1199
L21.2869 -11.852
L21.7151 -11.5915
L22.1477 -11.3385
L22.5845 -11.0929
L23.0254 -10.8549
L23.4702 -10.6246
L23.9189 -10.4021
L24.3712 -10.1873
L24.8271 -9.98037
L25.2864 -9.78139
L25.7489 -9.59039
L26.2146 -9.40743
L26.6832 -9.23257
L27.1547 -9.06587
L27.6289 -8.90737
L28.1056 -8.75713
L28.5847 -8.61518
L29.0661 -8.48157
L29.5496 -8.35635
L30.0351 -8.23955
L30.5224 -8.1312
L31.0113 -8.03134
L31.5018 -7.94001
L31.9937 -7.85722
L32.4867 -7.783
L32.9809 -7.71738
L33.4759 -7.66037
L33.9717 -7.61199
L34.4682 -7.57226
L34.9651 -7.5412
L35.4623 -7.5188
L35.9597 -7.50507
L36.4571 -7.50003
L36.9544 -7.50367
L37.4513 -7.51598
L37.9478 -7.53698
L38.4438 -7.56664
L38.939 -7.60497
L39.4333 -7.65194
L39.9265 -7.70755
L40.4186 -7.77178
L40.9093 -7.84461
L41.3985 -7.92601
L41.8861 -8.01596
L42.3718 -8.11444
L42.8557 -8.22141
L43.3374 -8.33685
L43.8169 -8.46071
L44.294 -8.59296
L44.7686 -8.73356
L45.2406 -8.88246
L45.7097 -9.03963
L46.1758 -9.205
L46.6389 -9.37854
L47.0987 -9.56019
L47.5552 -9.74989
L48.0081 -9.94759
L48.4573 -10.1532
L48.9028 -10.3667
L49.3443 -10.588
L49.7818 -10.8171
L50.2151 -11.0538
L50.644 -11.2981
L51.0685 -11.55
L51.4884 -11.8093
L51.9036 -12.076
L52.3139 -12.3499
L52.7193 -12.6311
L53.1195 -12.9193
L53.5146 -13.2147
L53.9043 -13.5169
L54.2886 -13.826
L54.6672 -14.1418
L55.0402 -14.4644
L55.4075 -14.7934
L55.7687 -15.129
L56.124 -15.4708
L56.4732 -15.819
L56.8161 -16.1733
L57.1526 -16.5336
L57.4828 -16.8998
L57.8063 -17.2719
L58.1233 -17.6497
L58.4335 -18.0331
L58.7368 -18.4219
L59.0333 -18.8161
L59.3227 -19.2155
L59.605 -19.6201
L59.8801 -20.0296
L60.148 -20.444
L60.4085 -20.8631
L60.6615 -21.2869
L60.9071 -21.7151
L61.1451 -22.1477
z
" id="C0_1_4ef3243fb1"/>
     <path d="
M62.8631 -27.0444
L62.7427 -27.4779
L62.6244 -27.9401
L62.5033 -28.4177
L62.3767 -28.9031
L62.243 -29.3913
L62.1016 -29.8793
L61.9522 -30.365
L61.7948 -30.847
L61.6294 -31.3241
L61.4562 -31.7957
L61.2757 -32.2611
L61.088 -32.7198
L60.8935 -33.1715
L60.6926 -33.6159
L60.4857 -34.0528
L60.2732 -34.482
L60.0555 -34.9034
L59.8328 -35.3169
L59.6057 -35.7224
L59.3743 -36.1201
L59.1392 -36.5097
L58.9006 -36.8914
L58.6588 -37.2652
L58.4142 -37.6311
L58.1671 -37.9893
L57.9176 -38.3398
L57.6661 -38.6827
L57.4129 -39.018
L57.1581 -39.3461
L56.9019 -39.6668
L56.6447 -39.9804
L56.3865 -40.2871
L56.1276 -40.5869
L55.868 -40.8799
L55.608 -41.1664
L55.3478 -41.4465
L55.0873 -41.7203
L54.8267 -41.9879
L54.5662 -42.2496
L54.3059 -42.5054
L54.0457 -42.7555
L53.7859 -43.0001
L53.5264 -43.2392
L53.2673 -43.4731
L53.0087 -43.7019
L52.7506 -43.9257
L52.493 -44.1446
L52.236 -44.3588
L51.9796 -44.5684
L51.7239 -44.7736
L51.4687 -44.9744
L51.2142 -45.171
L50.9604 -45.3635
L50.7072 -45.552
L50.4546 -45.7367
L50.2027 -45.9176
L49.9513 -46.0948
L49.7006 -46.2685
L49.4505 -46.4388
L49.2009 -46.6056
L48.9519 -46.7692
L48.7033 -46.9297
L48.4553 -47.087
L48.2077 -47.2414
L47.9605 -47.3929
L47.7137 -47.5415
L47.4673 -47.6873
L47.2211 -47.8305
L46.9752 -47.971
L46.7296 -48.109
L46.4841 -48.2445
L46.2388 -48.3776
L45.9935 -48.5083
L45.7483 -48.6368
L45.5031 -48.763
L45.2579 -48.887
L45.0125 -49.0088
L44.767 -49.1286
L44.5213 -49.2463
L44.2753 -49.362
L44.029 -49.4757
L43.7824 -49.5875
L43.5353 -49.6975
L43.2877 -49.8056
L43.0396 -49.9118
L42.7909 -50.0163
L42.5416 -50.119
L42.2915 -50.22
L42.0406 -50.3193
L41.7889 -50.4169
L41.5363 -50.5129
L41.2828 -50.6072
L41.0282 -50.6998
L40.7724 -50.7909
L40.5156 -50.8803
L40.2575 -50.9682
L39.998 -51.0544
L39.7373 -51.1391
L39.475 -51.2222
L39.2113 -51.3037
L38.946 -51.3837
L38.679 -51.462
L38.4102 -51.5388
L38.1397 -51.6139
L37.8673 -51.6875
L37.5929 -51.7594
L37.3165 -51.8297
L37.0379 -51.8983
L36.7572 -51.9652
L36.4742 -52.0303
L36.1888 -52.0938
L35.901 -52.1555
L35.6107 -52.2153
L35.3178 -52.2733
L35.0222 -52.3294
L34.7238 -52.3835
L34.4225 -52.4357
L34.1184 -52.4858
L33.8112 -52.5338
L33.5009 -52.5796
L33.1875 -52.6232
L32.8707 -52.6644
L32.5507 -52.7033
L32.2271 -52.7397
L31.9001 -52.7736
L31.5695 -52.8048
L31.2353 -52.8332
L30.8973 -52.8588
L30.5555 -52.8815
L30.2098 -52.901
L29.8601 -52.9174
L29.5065 -52.9304
L29.1488 -52.94
L28.787 -52.946
L28.421 -52.9482
L28.0508 -52.9466
L27.6763 -52.9409
L27.2976 -52.9309
L26.9146 -52.9166
L26.5273 -52.8977
L26.1356 -52.874
L25.7397 -52.8454
L25.3394 -52.8116
L24.9349 -52.7724
L24.5261 -52.7277
L24.1132 -52.6771
L23.6961 -52.6206
L23.2751 -52.5578
L22.8501 -52.4885
L22.4213 -52.4126
L21.9888 -52.3297
L21.5528 -52.2396
L21.1135 -52.1421
L20.671 -52.037
L20.2256 -51.9241
L19.7775 -51.8031
L19.3269 -51.6737
L18.8742 -51.5359
L18.4197 -51.3895
L17.9637 -51.2342
L17.5067 -51.07
L17.0489 -50.8968
L16.5909 -50.7145
L16.1332 -50.5231
L15.6762 -50.3229
L15.2207 -50.1139
L14.7672 -49.8967
L14.3167 -49.6719
L13.87 -49.4406
L13.4284 -49.2043
L12.9935 -48.9657
L12.5676 -48.7291
L12.1542 -48.5015
L11.7589 -48.2955
L11.3912 -48.1324
L11.0658 -48.0469
L10.8007 -48.0811
L10.6061 -48.2587
L10.6528 -48.5625
L10.8841 -49.0296
L11.123 -49.4699
L11.3694 -49.9062
L11.6234 -50.3383
L11.8849 -50.7659
L12.1536 -51.1891
L12.4296 -51.6077
L12.7128 -52.0215
L13.0031 -52.4304
L13.3004 -52.8343
L13.6047 -53.2331
L13.9157 -53.6266
L14.2335 -54.0148
L14.5579 -54.3975
L14.8888 -54.7746
L15.2261 -55.1459
L15.5698 -55.5114
L15.9197 -55.871
L16.2758 -56.2246
L16.6378 -56.5719
L17.0057 -56.913
L17.3794 -57.2478
L17.7588 -57.576
L18.1438 -57.8977
L18.5342 -58.2127
L18.9299 -58.521
L19.3308 -58.8224
L19.7368 -59.1168
L20.1477 -59.4042
L20.5635 -59.6845
L20.9839 -59.9575
L21.409 -60.2233
L21.8385 -60.4817
L22.2723 -60.7326
L22.7102 -60.976
L23.1523 -61.2117
L23.5982 -61.4398
L24.0479 -61.6602
L24.5013 -61.8727
L24.9582 -62.0774
L25.4184 -62.2741
L25.8818 -62.4628
L26.3484 -62.6434
L26.8178 -62.816
L27.2901 -62.9803
L27.765 -63.1365
L28.2425 -63.2843
L28.7223 -63.4239
L29.2043 -63.5551
L29.6884 -63.6779
L30.1744 -63.7923
L30.6621 -63.8982
L31.1515 -63.9957
L31.6424 -64.0846
L32.1346 -64.1649
L32.628 -64.2367
L33.1224 -64.2998
L33.6177 -64.3544
L34.1137 -64.4003
L34.6103 -64.4375
L35.1073 -64.4661
L35.6046 -64.486
L36.102 -64.4973
L36.5994 -64.4998
L37.0966 -64.4937
L37.5935 -64.4789
L38.0898 -64.4554
L38.5856 -64.4233
L39.0805 -64.3825
L39.5745 -64.333
L40.0674 -64.2749
L40.5591 -64.2083
L41.0494 -64.133
L41.5382 -64.0491
L42.0252 -63.9567
L42.5105 -63.8558
L42.9937 -63.7464
L43.4748 -63.6286
L43.9537 -63.5023
L44.4301 -63.3677
L44.904 -63.2247
L45.3751 -63.0734
L45.8434 -62.9139
L46.3087 -62.7462
L46.7708 -62.5703
L47.2297 -62.3863
L47.6851 -62.1944
L48.137 -61.9944
L48.5852 -61.7865
L49.0296 -61.5707
L49.4699 -61.3472
L49.9062 -61.1159
L50.3383 -60.877
L50.7659 -60.6306
L51.1891 -60.3766
L51.6077 -60.1151
L52.0215 -59.8464
L52.4304 -59.5704
L52.8343 -59.2872
L53.2331 -58.9969
L53.6266 -58.6996
L54.0148 -58.3953
L54.3975 -58.0843
L54.7746 -57.7665
L55.1459 -57.4421
L55.5114 -57.1112
L55.871 -56.7739
L56.2246 -56.4302
L56.5719 -56.0803
L56.913 -55.7242
L57.2478 -55.3622
L57.576 -54.9943
L57.8977 -54.6206
L58.2127 -54.2412
L58.521 -53.8562
L58.8224 -53.4658
L59.1168 -53.0701
L59.4042 -52.6692
L59.6845 -52.2632
L59.9575 -51.8523
L60.2233 -51.4365
L60.4817 -51.0161
L60.7326 -50.591
L60.976 -50.1615
L61.2117 -49.7277
L61.4398 -49.2898
L61.6602 -48.8477
L61.8727 -48.4018
L62.0774 -47.9521
L62.2741 -47.4987
L62.4628 -47.0418
L62.6434 -46.5816
L62.816 -46.1182
L62.9803 -45.6516
L63.1365 -45.1822
L63.2843 -44.7099
L63.4239 -44.235
L63.5551 -43.7575
L63.6779 -43.2777
L63.7923 -42.7957
L63.8982 -42.3116
L63.9957 -41.8256
L64.0846 -41.3379
L64.1649 -40.8485
L64.2367 -40.3576
L64.2998 -39.8654
L64.3544 -39.372
L64.4003 -38.8776
L64.4375 -38.3823
L64.4661 -37.8863
L64.486 -37.3897
L64.4973 -36.8927
L64.4998 -36.3954
L64.4937 -35.898
L64.4789 -35.4006
L64.4554 -34.9034
L64.4233 -34.4065
L64.3825 -33.9102
L64.333 -33.4144
L64.2749 -32.9195
L64.2083 -32.4255
L64.133 -31.9326
L64.0491 -31.4409
L63.9567 -30.9506
L63.8558 -30.4618
L63.7464 -29.9748
L63.6286 -29.4895
L63.5023 -29.0063
L63.3677 -28.5252
L63.2247 -28.0463
z
" id="C0_2_ff1816f36f"/>
    </defs>
    <g clip-path="url(#p1bffca34e9)">
     <use style="fill:#ff0000;stroke:#000000;stroke-width:2.0;" x="0.0" xlink:href="#C0_0_a811fe30f3" y="72.0"/>
    </g>
    <g clip-path="url(#p1bffca34e9)">
     <use style="fill:#ffffff;stroke:#000000;stroke-width:2.0;" x="0.0" xlink:href="#C0_1_4ef3243fb1" y="72.0"/>
    </g>
    <g clip-path="url(#p1bffca34e9)">
     <use style="fill:#ffffff;stroke:#000000;stroke-width:2.0;" x="0.0" xlink:href="#C0_2_ff1816f36f" y="72.0"/>
    </g>
   </g>
  </g>
 </g>
 <defs>
  <clipPath id="p1bffca34e9">
   <rect height="72.0" width="72.0" x="0.0" y="0.0"/>
  </clipPath>
 </defs>
</svg>
