<?xml version="1.0" encoding="utf-8" standalone="no"?>
<!DOCTYPE svg PUBLIC "-//W3C//DTD SVG 1.1//EN"
  "http://www.w3.org/Graphics/SVG/1.1/DTD/svg11.dtd">
<!-- Created with matplotlib (http://matplotlib.org/) -->
<svg height="72pt" version="1.1" viewBox="0 0 72 72" width="72pt" xmlns="http://www.w3.org/2000/svg" xmlns:xlink="http://www.w3.org/1999/xlink">
 <defs>
  <style type="text/css">
*{stroke-linecap:butt;stroke-linejoin:round;}
  </style>
 </defs>
 <g id="figure_1">
  <g id="patch_1">
   <path d="
M0 72
L72 72
L72 0
L0 0
z
" style="fill:none;"/>
  </g>
  <g id="axes_1">
   <g id="PatchCollection_1">
    <defs>
     <path d="
M36 -7.5
C43.5583 -7.5 50.808 -10.5029 56.1525 -15.8475
C61.4971 -21.192 64.5 -28.4417 64.5 -36
C64.5 -43.5583 61.4971 -50.808 56.1525 -56.1525
C50.808 -61.4971 43.5583 -64.5 36 -64.5
C28.4417 -64.5 21.192 -61.4971 15.8475 -56.1525
C10.5029 -50.808 7.5 -43.5583 7.5 -36
C7.5 -28.4417 10.5029 -21.192 15.8475 -15.8475
C21.192 -10.5029 28.4417 -7.5 36 -7.5
z
" id="C0_0_a811fe30f3"/>
     <path d="
M60.5504 -21.5756
L60.1556 -21.3348
L59.7453 -21.1231
L59.3244 -20.9344
L58.8962 -20.7651
L58.4631 -20.6124
L58.0265 -20.4743
L57.5878 -20.3496
L57.1479 -20.2372
L56.7075 -20.1362
L56.2673 -20.0459
L55.8277 -19.9658
L55.3894 -19.8953
L54.9526 -19.8339
L54.5178 -19.7813
L54.0852 -19.7369
L53.6552 -19.7005
L53.228 -19.6715
L52.8039 -19.6498
L52.383 -19.635
L51.9656 -19.6267
L51.5518 -19.6246
L51.1418 -19.6285
L50.7356 -19.638
L50.3335 -19.6529
L49.9354 -19.6729
L49.5415 -19.6977
L49.1519 -19.7272
L48.7665 -19.7611
L48.3854 -19.7991
L48.0087 -19.8411
L47.6364 -19.8867
L47.2683 -19.936
L46.9047 -19.9886
L46.5454 -20.0443
L46.1903 -20.1031
L45.8396 -20.1648
L45.4931 -20.2291
L45.1508 -20.296
L44.8127 -20.3653
L44.4787 -20.4369
L44.1487 -20.5107
L43.8226 -20.5866
L43.5005 -20.6644
L43.1822 -20.744
L42.8677 -20.8255
L42.5569 -20.9086
L42.2497 -20.9933
L41.9461 -21.0796
L41.6459 -21.1673
L41.3491 -21.2564
L41.0556 -21.3468
L40.7653 -21.4385
L40.4782 -21.5315
L40.1941 -21.6256
L39.9129 -21.7208
L39.6347 -21.8172
L39.3593 -21.9146
L39.0866 -22.013
L38.8165 -22.1125
L38.549 -22.2129
L38.284 -22.3143
L38.0214 -22.4166
L37.7611 -22.5199
L37.5031 -22.624
L37.2472 -22.7291
L36.9934 -22.8351
L36.7416 -22.9419
L36.4918 -23.0496
L36.2438 -23.1582
L35.9976 -23.2677
L35.7531 -23.3781
L35.5103 -23.4894
L35.269 -23.6015
L35.0293 -23.7146
L34.7909 -23.8286
L34.554 -23.9435
L34.3183 -24.0593
L34.0839 -24.1761
L33.8506 -24.2939
L33.6185 -24.4127
L33.3874 -24.5325
L33.1572 -24.6533
L32.928 -24.7752
L32.6996 -24.8981
L32.472 -25.0222
L32.019 -25.1474
L31.7935 -25.2738
L31.5685 -25.4013
L31.344 -25.5301
L31.1199 -25.6602
L30.8962 -25.7915
L30.6729 -25.9242
L30.4499 -26.0583
L30.227 -26.1937
L30.0044 -26.3306
L29.7819 -26.469
L29.5595 -26.609
L29.3371 -26.7505
L29.1146 -26.8937
L28.8921 -27.0386
L28.6695 -27.1851
L28.4467 -27.3335
L28.2237 -27.4837
L28.0005 -27.6358
L27.7769 -27.7899
L27.553 -27.946
L27.3287 -28.1041
L27.104 -28.2644
L26.8789 -28.4269
L26.6532 -28.5916
L26.427 -28.7587
L26.2002 -28.9282
L25.9729 -29.1002
L25.7449 -29.2747
L25.5162 -29.4519
L25.2868 -29.6317
L25.0567 -29.8144
L24.8259 -29.9999
L24.5943 -30.1884
L24.362 -30.3799
L24.1288 -30.5746
L23.8949 -30.7725
L23.6601 -30.9736
L23.4245 -31.1782
L23.1881 -31.3863
L22.9508 -31.598
L22.7128 -31.8133
L22.4739 -32.0325
L22.2343 -32.2556
L21.9939 -32.4826
L21.7528 -32.7137
L21.511 -32.9491
L21.2686 -33.1887
L21.0255 -33.4328
L20.7819 -33.6814
L20.5378 -33.9346
L20.2933 -34.1925
L20.0484 -34.4552
L19.8033 -34.7229
L19.5581 -34.9956
L19.3128 -35.2734
L19.0676 -35.5564
L18.8227 -35.8448
L18.5781 -36.1385
L18.334 -36.4378
L18.0906 -36.7426
L17.848 -37.053
L17.6065 -37.3692
L17.3664 -37.6911
L17.1277 -38.0189
L16.8907 -38.3525
L16.6558 -38.692
L16.4231 -39.0375
L16.193 -39.3889
L15.9658 -39.7462
L15.7418 -40.1095
L15.5214 -40.4787
L15.305 -40.8539
L15.0929 -41.2348
L14.8856 -41.6215
L14.6837 -42.0139
L14.4875 -42.4119
L14.2977 -42.8154
L14.1149 -43.2241
L13.9399 -43.638
L13.7736 -44.0569
L13.6171 -44.4805
L13.4718 -44.9085
L13.3395 -45.3407
L13.2227 -45.7766
L13.1251 -46.2156
L13.0518 -46.6571
L13.0109 -47.1001
L13.0134 -47.5432
L13.0738 -47.984
L13.2057 -48.4197
L13.4146 -48.8463
L13.694 -49.2603
L14.0292 -49.6597
L14.4054 -50.0439
L14.8108 -50.4132
L15.2372 -50.7681
L15.6791 -51.109
L16.1326 -51.4363
L16.5949 -51.7503
L17.0641 -52.0511
L17.5385 -52.339
L18.0168 -52.6141
L18.4981 -52.8766
L18.9814 -53.1267
L19.4659 -53.3646
L19.951 -53.5905
L20.436 -53.8046
L20.9204 -54.0072
L21.4038 -54.1984
L21.8855 -54.3786
L22.3654 -54.5479
L22.8429 -54.7067
L23.3177 -54.8553
L23.7895 -54.9938
L24.2581 -55.1227
L24.7233 -55.2422
L25.1846 -55.3525
L25.6421 -55.454
L26.0955 -55.547
L26.5447 -55.6317
L26.9895 -55.7085
L27.4299 -55.7775
L27.8656 -55.8391
L28.2968 -55.8936
L28.7233 -55.9412
L29.145 -55.9821
L29.562 -56.0167
L29.9742 -56.0451
L30.3816 -56.0676
L30.7843 -56.0844
L31.1822 -56.0958
L31.5754 -56.1019
L31.9639 -56.1029
L32.3477 -56.0991
L32.7269 -56.0907
L33.1016 -56.0777
L33.4718 -56.0604
L33.8376 -56.039
L34.199 -56.0136
L34.5561 -55.9843
L34.909 -55.9513
L35.2578 -55.9148
L35.6025 -55.8748
L35.9433 -55.8314
L36.2801 -55.7849
L36.6132 -55.7352
L36.9426 -55.6826
L37.2683 -55.627
L37.5905 -55.5686
L37.9092 -55.5075
L38.2246 -55.4437
L38.5367 -55.3773
L38.8456 -55.3085
L39.1514 -55.2371
L39.4542 -55.1634
L39.7541 -55.0873
L40.0511 -55.0089
L40.3454 -54.9283
L40.637 -54.8455
L40.926 -54.7605
L41.2125 -54.6733
L41.4966 -54.5841
L41.7784 -54.4927
L42.0578 -54.3993
L42.3351 -54.3039
L42.6103 -54.2064
L42.8834 -54.1069
L43.1546 -54.0054
L43.4239 -53.9019
L43.6914 -53.7964
L43.9571 -53.6889
L44.2211 -53.5794
L44.4836 -53.4679
L44.7445 -53.3544
L45.0039 -53.2388
L45.2619 -53.1212
L45.5185 -53.0016
L45.7739 -52.8798
L46.028 -52.756
L46.281 -52.63
L46.5328 -52.5019
L46.7836 -52.3716
L47.0334 -52.2391
L47.2823 -52.1043
L47.5302 -51.9672
L47.7773 -51.8278
L48.0237 -51.686
L48.2692 -51.5418
L48.5141 -51.3951
L48.7583 -51.2459
L49.0018 -51.0942
L49.2449 -50.9398
L49.4873 -50.7827
L49.7293 -50.6228
L49.9708 -50.4601
L50.2119 -50.2946
L50.4526 -50.1261
L50.6929 -49.9545
L50.9329 -49.7798
L51.1726 -49.602
L51.4119 -49.4208
L51.651 -49.2364
L51.8899 -49.0484
L52.1285 -48.8569
L52.3668 -48.6618
L52.605 -48.4629
L52.8429 -48.2602
L53.0806 -48.0536
L53.3181 -47.8428
L53.5554 -47.628
L53.7924 -47.4088
L54.0292 -47.1852
L54.2657 -46.9571
L54.5019 -46.7243
L54.7378 -46.4867
L54.9733 -46.2442
L55.2084 -45.9967
L55.443 -45.7439
L55.6771 -45.4858
L55.9106 -45.2223
L56.1435 -44.953
L56.3756 -44.678
L56.6069 -44.3971
L56.8372 -44.11
L57.0666 -43.8167
L57.2947 -43.517
L57.5216 -43.2107
L57.7471 -42.8976
L57.971 -42.5777
L58.1931 -42.2506
L58.4134 -41.9164
L58.6315 -41.5747
L58.8473 -41.2256
L59.0605 -40.8687
L59.271 -40.5039
L59.4785 -40.1312
L59.6826 -39.7503
L59.8832 -39.3611
L60.08 -38.9636
L60.2725 -38.5575
L60.4605 -38.1428
L60.6436 -37.7193
L60.8215 -37.2871
L60.9937 -36.8459
L61.1599 -36.3958
L61.3195 -35.9368
L61.4723 -35.4688
L61.6177 -34.9919
L61.7553 -34.506
L61.8844 -34.0112
L62.0047 -33.5077
L62.1157 -32.9956
L62.2166 -32.475
L62.3071 -31.9461
L62.3864 -31.4093
L62.4541 -30.8647
L62.5094 -30.3129
L62.5516 -29.7542
L62.5801 -29.1891
L62.5941 -28.6184
L62.5927 -28.0427
L62.5749 -27.4631
L62.5394 -26.8809
L62.4847 -26.2976
L62.3832 -25.7155
L62.191 -25.2214
L61.9909 -24.7626
L61.7829 -24.3072
L61.567 -23.8554
L61.3434 -23.4073
L61.112 -22.963
L60.8729 -22.5227
z
" id="C0_1_bf1a638db8"/>
     <path d="
M9.69369 -46.8201
L10.0311 -47.2835
L10.3545 -47.7397
L10.6527 -48.1902
L10.9111 -48.6375
L11.1157 -49.0849
L11.2607 -49.5354
L10.9728 -49.9905
L10.7387 -49.6341
L10.5122 -49.1953
L10.2935 -48.7524
L10.0827 -48.3056
L9.87974 -47.8551
z
" id="C0_2_8e3263ab3e"/>
    </defs>
    <g clip-path="url(#p1bffca34e9)">
     <use style="fill:#ffffff;stroke:#000000;stroke-width:2.0;" x="0.0" xlink:href="#C0_0_a811fe30f3" y="72.0"/>
    </g>
    <g clip-path="url(#p1bffca34e9)">
     <use style="fill:#ff0000;stroke:#000000;stroke-width:2.0;" x="0.0" xlink:href="#C0_1_bf1a638db8" y="72.0"/>
    </g>
    <g clip-path="url(#p1bffca34e9)">
     <use style="fill:#ff0000;stroke:#000000;stroke-width:2.0;" x="0.0" xlink:href="#C0_2_8e3263ab3e" y="72.0"/>
    </g>
   </g>
  </g>
 </g>
 <defs>
  <clipPath id="p1bffca34e9">
   <rect height="72.0" width="72.0" x="0.0" y="0.0"/>
  </clipPath>
 </defs>
</svg>
