<?xml version="1.0" encoding="utf-8" standalone="no"?>
<!DOCTYPE svg PUBLIC "-//W3C//DTD SVG 1.1//EN"
  "http://www.w3.org/Graphics/SVG/1.1/DTD/svg11.dtd">
<!-- Created with matplotlib (http://matplotlib.org/) -->
<svg height="72pt" version="1.1" viewBox="0 0 72 72" width="72pt" xmlns="http://www.w3.org/2000/svg" xmlns:xlink="http://www.w3.org/1999/xlink">
 <defs>
  <style type="text/css">
*{stroke-linecap:butt;stroke-linejoin:round;}
  </style>
 </defs>
 <g id="figure_1">
  <g id="patch_1">
   <path d="
M0 72
L72 72
L72 0
L0 0
z
" style="fill:none;"/>
  </g>
  <g id="axes_1">
   <g id="PatchCollection_1">
    <defs>
     <path d="
M36 -7.5
C43.5583 -7.5 50.808 -10.5029 56.1525 -15.8475
C61.4971 -21.192 64.5 -28.4417 64.5 -36
C64.5 -43.5583 61.4971 -50.808 56.1525 -56.1525
C50.808 -61.4971 43.5583 -64.5 36 -64.5
C28.4417 -64.5 21.192 -61.4971 15.8475 -56.1525
C10.5029 -50.808 7.5 -43.5583 7.5 -36
C7.5 -28.4417 10.5029 -21.192 15.8475 -15.8475
C21.192 -10.5029 28.4417 -7.5 36 -7.5
z
" id="C0_0_a811fe30f3"/>
     <path d="
M63.6593 -29.3275
L63.4594 -29.4639
L63.2529 -29.5869
L63.0399 -29.6969
L62.8208 -29.7943
L62.5959 -29.8796
L62.3655 -29.9532
L62.13 -30.0158
L61.8896 -30.0677
L61.6446 -30.1096
L61.3953 -30.142
L61.142 -30.1654
L60.8848 -30.1805
L60.6242 -30.1877
L60.3603 -30.1876
L60.0933 -30.1807
L59.8236 -30.1675
L59.5512 -30.1485
L59.2765 -30.1241
L58.9996 -30.0949
L58.7208 -30.0611
L58.4401 -30.0233
L58.1579 -29.9819
L57.8742 -29.937
L57.5893 -29.8892
L57.3033 -29.8388
L57.0163 -29.7859
L56.7285 -29.7309
L56.44 -29.6741
L56.1509 -29.6157
L55.8614 -29.5559
L55.5716 -29.4948
L55.2816 -29.4328
L54.9915 -29.37
L54.7014 -29.3064
L54.4113 -29.2424
L54.1213 -29.1779
L53.8316 -29.1132
L53.5422 -29.0483
L53.2531 -28.9834
L52.9644 -28.9185
L52.6762 -28.8537
L52.3885 -28.7891
L52.1013 -28.7248
L51.8148 -28.6608
L51.5288 -28.5971
L51.2436 -28.5339
L50.9589 -28.4711
L50.675 -28.4089
L50.3918 -28.3472
L50.1094 -28.2861
L49.8276 -28.2256
L49.5466 -28.1657
L49.2664 -28.1064
L48.9869 -28.0478
L48.7082 -27.9899
L48.4302 -27.9327
L48.1529 -27.8761
L47.8764 -27.8203
L47.6006 -27.7652
L47.3255 -27.7108
L47.0511 -27.6571
L46.7773 -27.6042
L46.5042 -27.5519
L46.2318 -27.5004
L45.9599 -27.4496
L45.6887 -27.3996
L45.418 -27.3502
L45.1478 -27.3016
L44.8782 -27.2536
L44.609 -27.2064
L44.3403 -27.1599
L44.072 -27.1141
L43.8041 -27.0689
L43.5366 -27.0245
L43.2693 -26.9807
L43.0024 -26.9376
L42.7357 -26.8951
L42.4693 -26.8534
L42.203 -26.8123
L41.9369 -26.7718
L41.6709 -26.7319
L41.405 -26.6928
L41.1392 -26.6542
L40.8733 -26.6162
L40.6074 -26.5789
L40.3414 -26.5422
L39.8091 -26.5061
L39.5427 -26.4706
L39.2761 -26.4357
L39.0092 -26.4014
L38.742 -26.3676
L38.4744 -26.3345
L38.2065 -26.3019
L37.9381 -26.2699
L37.6693 -26.2384
L37.4 -26.2075
L37.1302 -26.1772
L36.8598 -26.1474
L36.5888 -26.1182
L36.3171 -26.0895
L36.0448 -26.0614
L35.7717 -26.0338
L35.4979 -26.0067
L35.2233 -25.9802
L34.9479 -25.9542
L34.6716 -25.9287
L34.3944 -25.9037
L34.1163 -25.8793
L33.8372 -25.8554
L33.5572 -25.8319
L33.2762 -25.809
L32.9941 -25.7866
L32.7109 -25.7646
L32.4267 -25.7432
L32.1414 -25.7222
L31.8549 -25.7017
L31.5672 -25.6817
L31.2785 -25.6621
L30.9885 -25.643
L30.6973 -25.6243
L30.4049 -25.6061
L30.1113 -25.5883
L29.8165 -25.5709
L29.5205 -25.5539
L29.2233 -25.5373
L28.9248 -25.521
L28.6252 -25.5051
L28.3244 -25.4894
L28.0224 -25.4741
L27.7192 -25.4591
L27.415 -25.4442
L27.1097 -25.4296
L26.8033 -25.4151
L26.496 -25.4008
L26.1876 -25.3865
L25.8784 -25.3723
L25.5684 -25.358
L25.2576 -25.3437
L24.9462 -25.3292
L24.6341 -25.3144
L24.3216 -25.2994
L24.0087 -25.2839
L23.6955 -25.2679
L23.3821 -25.2513
L23.0687 -25.234
L22.7554 -25.2159
L22.4424 -25.1968
L22.1298 -25.1765
L21.8178 -25.1549
L21.5066 -25.1319
L21.1964 -25.1072
L20.8874 -25.0807
L20.5798 -25.0521
L20.2738 -25.0212
L19.9697 -24.9877
L19.6678 -24.9514
L19.3683 -24.9121
L19.0716 -24.8693
L18.7778 -24.8229
L18.4873 -24.7724
L18.2005 -24.7176
L17.9176 -24.6581
L17.639 -24.5935
L17.3651 -24.5234
L17.0961 -24.4476
L16.8326 -24.3655
L16.5747 -24.2768
L16.323 -24.1812
L16.0777 -24.0781
L15.8393 -23.9674
L15.6081 -23.8485
L15.3846 -23.7213
L15.1689 -23.5853
L14.9616 -23.4402
L14.763 -23.2859
L14.5733 -23.122
L14.393 -22.9485
L14.2223 -22.7652
L14.0615 -22.572
L13.9108 -22.3688
L13.7706 -22.1557
L13.641 -21.9327
L13.5223 -21.7
L13.4146 -21.4576
L13.3182 -21.2058
L13.2331 -20.9448
L13.1594 -20.6748
L13.0974 -20.3963
L13.047 -20.1095
L13.0083 -19.8149
L12.9815 -19.5127
L13.2743 -19.2034
L13.5779 -18.8014
L13.8884 -18.4074
L14.2055 -18.0187
L14.5294 -17.6356
L14.8597 -17.258
L15.1965 -16.8862
L15.5397 -16.5201
L15.889 -16.16
L16.2445 -15.806
L16.6061 -15.458
L16.9735 -15.1164
L17.3467 -14.7811
L17.7256 -14.4523
L18.1101 -14.13
L18.5 -13.8144
L18.8952 -13.5056
L19.2957 -13.2036
L19.7012 -12.9085
L20.1117 -12.6205
L20.5271 -12.3396
L20.9472 -12.0659
L21.3718 -11.7995
L21.8009 -11.5405
L22.2343 -11.289
L22.672 -11.0449
L23.1136 -10.8085
L23.5593 -10.5797
L24.0087 -10.3587
L24.4617 -10.1455
L24.9183 -9.94011
L25.3782 -9.74271
L25.8414 -9.55331
L26.3077 -9.37196
L26.7769 -9.19872
L27.2489 -9.03365
L27.7236 -8.87679
L28.2008 -8.72819
L28.6804 -8.58791
L29.1622 -8.45597
L29.6462 -8.33242
L30.132 -8.2173
L30.6196 -8.11064
L31.1089 -8.01247
L31.5997 -7.92284
L32.0918 -7.84175
L32.585 -7.76924
L33.0794 -7.70533
L33.5746 -7.65004
L34.0706 -7.60339
L34.5671 -7.56539
L35.0641 -7.53604
L35.5614 -7.51537
L36.0588 -7.50338
L36.5561 -7.50006
L37.0533 -7.50543
L37.5502 -7.51947
L38.0467 -7.54219
L38.5425 -7.57358
L39.0375 -7.61363
L39.5316 -7.66233
L40.0246 -7.71965
L40.5164 -7.7856
L41.0068 -7.86013
L41.4957 -7.94324
L41.9829 -8.0349
L42.4683 -8.13507
L42.9518 -8.24373
L43.4331 -8.36084
L43.9121 -8.48638
L44.3888 -8.62029
L44.8628 -8.76255
L45.3342 -8.9131
L45.8028 -9.07191
L46.2683 -9.23891
L46.7307 -9.41407
L47.1899 -9.59733
L47.6456 -9.78862
L48.0978 -9.98791
L48.5464 -10.1951
L48.9911 -10.4102
L49.4318 -10.633
L49.8684 -10.8636
L50.3009 -11.1019
L50.7289 -11.3477
L51.1525 -11.601
L51.5715 -11.8618
L51.9857 -12.1299
L52.395 -12.4053
L52.7994 -12.6879
L53.1986 -12.9776
L53.5926 -13.2743
L53.9813 -13.5779
L54.3644 -13.8884
L54.742 -14.2055
L55.1138 -14.5294
L55.4799 -14.8597
L55.84 -15.1965
L56.194 -15.5397
L56.542 -15.889
L56.8836 -16.2445
L57.2189 -16.6061
L57.5477 -16.9735
L57.87 -17.3467
L58.1856 -17.7256
L58.4944 -18.1101
L58.7964 -18.5
L59.0915 -18.8952
L59.3795 -19.2957
L59.6604 -19.7012
L59.9341 -20.1117
L60.2005 -20.5271
L60.4595 -20.9472
L60.711 -21.3718
L60.9551 -21.8009
L61.1915 -22.2343
L61.4203 -22.672
L61.6413 -23.1136
L61.8545 -23.5593
L62.0599 -24.0087
L62.2573 -24.4617
L62.4467 -24.9183
L62.628 -25.3782
L62.8013 -25.8414
L62.9663 -26.3077
L63.1232 -26.7769
L63.2718 -27.2489
L63.4121 -27.7236
L63.544 -28.2008
z
" id="C0_1_8bac2b1530"/>
     <path d="
M58.72 -52.8795
L58.4098 -52.96
L58.0958 -53.0432
L57.7784 -53.1286
L57.4577 -53.2157
L57.1342 -53.3042
L56.8081 -53.3936
L56.4795 -53.4835
L56.1488 -53.5735
L55.8162 -53.6634
L55.4819 -53.7529
L55.1461 -53.8415
L54.8091 -53.9292
L54.4711 -54.0157
L54.1321 -54.1008
L53.7926 -54.1842
L53.4525 -54.2659
L53.112 -54.3456
L52.7714 -54.4233
L52.4308 -54.4988
L52.0902 -54.572
L51.7499 -54.6429
L51.4099 -54.7113
L51.0704 -54.7773
L50.7315 -54.8407
L50.3932 -54.9015
L50.0556 -54.9597
L49.7188 -55.0153
L49.383 -55.0683
L49.0481 -55.1186
L48.7142 -55.1662
L48.3814 -55.2111
L48.0497 -55.2534
L47.7191 -55.2931
L47.3898 -55.3301
L47.0616 -55.3645
L46.7347 -55.3963
L46.4091 -55.4256
L46.0847 -55.4522
L45.7616 -55.4764
L45.4399 -55.498
L45.1194 -55.5172
L44.8002 -55.5339
L44.4824 -55.5482
L44.1658 -55.5601
L43.8505 -55.5697
L43.5365 -55.5768
L43.2238 -55.5817
L42.9123 -55.5843
L42.602 -55.5847
L42.2929 -55.5828
L41.985 -55.5787
L41.6782 -55.5724
L41.3726 -55.5639
L41.0681 -55.5533
L40.7647 -55.5406
L40.4623 -55.5258
L40.1609 -55.509
L39.8605 -55.49
L39.5611 -55.4691
L39.2626 -55.4461
L38.9649 -55.421
L38.6681 -55.394
L38.3721 -55.365
L38.0769 -55.3341
L37.7824 -55.3011
L37.4886 -55.2662
L37.1954 -55.2294
L36.9029 -55.1906
L36.611 -55.1499
L36.3196 -55.1072
L36.0287 -55.0626
L35.7383 -55.0161
L35.4482 -54.9676
L35.1586 -54.9172
L34.8694 -54.8649
L34.5804 -54.8106
L34.2917 -54.7544
L34.0033 -54.6962
L33.715 -54.636
L33.4269 -54.5739
L33.1389 -54.5097
L32.851 -54.4436
L32.5631 -54.3755
L32.2753 -54.3053
L31.9874 -54.2331
L31.6994 -54.1589
L31.4114 -54.0826
L31.1232 -54.0041
L30.8349 -53.9236
L30.5464 -53.841
L30.2576 -53.7562
L29.9686 -53.6692
L29.6793 -53.58
L29.3897 -53.4886
L29.0997 -53.395
L28.8094 -53.2991
L28.5187 -53.2009
L28.2275 -53.1004
L27.936 -52.9975
L27.6439 -52.8923
L27.3514 -52.7847
L27.0584 -52.6747
L26.7649 -52.5622
L26.4708 -52.4472
L26.1762 -52.3297
L25.8811 -52.2098
L25.5854 -52.0872
L25.2892 -51.9621
L24.9924 -51.8344
L24.695 -51.7041
L24.397 -51.5711
L24.0985 -51.4355
L23.7995 -51.2972
L23.4999 -51.1563
L23.1998 -51.0126
L22.8992 -50.8662
L22.5981 -50.7172
L22.2965 -50.5654
L21.9945 -50.411
L21.6921 -50.2538
L21.3893 -50.094
L21.0862 -49.9316
L20.7828 -49.7665
L20.4791 -49.5989
L20.1752 -49.4287
L19.8712 -49.256
L19.5671 -49.0808
L19.2629 -48.9034
L18.9588 -48.7236
L18.6548 -48.5417
L18.3509 -48.3577
L18.0473 -48.1717
L17.744 -47.9839
L17.4411 -47.7945
L17.1387 -47.6035
L16.8369 -47.4112
L16.5357 -47.2178
L16.2353 -47.0235
L15.9357 -46.8286
L15.637 -46.6332
L15.3394 -46.4377
L15.0429 -46.2424
L14.7476 -46.0476
L14.4537 -45.8537
L14.1611 -45.661
L13.87 -45.47
L13.5806 -45.281
L13.2928 -45.0944
L13.0067 -44.9109
L12.7226 -44.7307
L12.4403 -44.5545
L12.1601 -44.3828
L11.882 -44.216
L11.606 -44.0547
L11.3323 -43.8994
L11.0609 -43.7508
L10.7919 -43.6092
L10.5253 -43.4754
L10.2612 -43.3497
L9.99978 -43.2327
L9.741 -43.1249
L9.48496 -43.0268
L9.23174 -42.9388
L8.98143 -42.8612
L8.73413 -42.7944
L8.44097 -42.7388
L8.57192 -43.2629
L8.71123 -43.7428
L8.85885 -44.2203
L9.01473 -44.6953
L9.17884 -45.1676
L9.35112 -45.6372
L9.53151 -46.1038
L9.71997 -46.5674
L9.91643 -47.0277
L10.1208 -47.4847
L10.3331 -47.9381
L10.5532 -48.388
L10.7811 -48.834
L11.0166 -49.2762
L11.2598 -49.7143
L11.5105 -50.1482
L11.7686 -50.5778
L12.0342 -51.003
L12.307 -51.4236
L12.587 -51.8395
L12.8742 -52.2506
L13.1684 -52.6568
L13.4696 -53.0578
L13.7777 -53.4537
L14.0925 -53.8443
L14.4139 -54.2294
L14.742 -54.6089
L15.0765 -54.9828
L15.4174 -55.3509
L15.7646 -55.7132
L16.118 -56.0694
L16.4774 -56.4195
L16.8427 -56.7633
L17.2139 -57.1009
L17.5908 -57.432
L17.9733 -57.7566
L18.3613 -58.0746
L18.7547 -58.3858
L19.1533 -58.6903
L19.5571 -58.9878
L19.9658 -59.2783
L20.3795 -59.5617
L20.7979 -59.838
L21.2209 -60.107
L21.6485 -60.3686
L22.0804 -60.6228
L22.5165 -60.8695
L22.9568 -61.1087
L23.401 -61.3402
L23.8491 -61.564
L24.3009 -61.7799
L24.7562 -61.9881
L25.215 -62.1883
L25.677 -62.3805
L26.1422 -62.5648
L26.6104 -62.7409
L27.0815 -62.9088
L27.5552 -63.0686
L28.0316 -63.2201
L28.5103 -63.3634
L28.9914 -63.4983
L29.4746 -63.6248
L29.9597 -63.7429
L30.4468 -63.8526
L30.9355 -63.9537
L31.4257 -64.0464
L31.9174 -64.1305
L32.4102 -64.2061
L32.9042 -64.273
L33.3991 -64.3314
L33.8949 -64.3811
L34.3912 -64.4221
L34.8881 -64.4546
L35.3852 -64.4783
L35.8826 -64.4934
L36.38 -64.4998
L36.8773 -64.4975
L37.3743 -64.4865
L37.8709 -64.4668
L38.367 -64.4385
L38.8623 -64.4015
L39.3567 -64.3559
L39.8502 -64.3016
L40.3424 -64.2387
L40.8333 -64.1672
L41.3228 -64.0872
L41.8106 -63.9985
L42.2967 -63.9014
L42.7808 -63.7957
L43.2629 -63.6816
L43.7428 -63.559
L44.2203 -63.4281
L44.6953 -63.2888
L45.1676 -63.1412
L45.6372 -62.9853
L46.1038 -62.8212
L46.5674 -62.6489
L47.0277 -62.4685
L47.4847 -62.28
L47.9381 -62.0836
L48.388 -61.8792
L48.834 -61.6669
L49.2762 -61.4468
L49.7143 -61.2189
L50.1482 -60.9834
L50.5778 -60.7402
L51.003 -60.4895
L51.4236 -60.2314
L51.8395 -59.9658
L52.2506 -59.693
L52.6568 -59.413
L53.0578 -59.1258
L53.4537 -58.8316
L53.8443 -58.5304
L54.2294 -58.2223
L54.6089 -57.9075
L54.9828 -57.5861
L55.3509 -57.258
L55.7132 -56.9235
L56.0694 -56.5826
L56.4195 -56.2354
L56.7633 -55.882
L57.1009 -55.5226
L57.432 -55.1573
L57.7566 -54.7861
L58.0746 -54.4092
L58.3858 -54.0267
z
" id="C0_2_97f5698008"/>
    </defs>
    <g clip-path="url(#p1bffca34e9)">
     <use style="fill:#ff0000;stroke:#000000;stroke-width:2.0;" x="0.0" xlink:href="#C0_0_a811fe30f3" y="72.0"/>
    </g>
    <g clip-path="url(#p1bffca34e9)">
     <use style="fill:#ffffff;stroke:#000000;stroke-width:2.0;" x="0.0" xlink:href="#C0_1_8bac2b1530" y="72.0"/>
    </g>
    <g clip-path="url(#p1bffca34e9)">
     <use style="fill:#ffffff;stroke:#000000;stroke-width:2.0;" x="0.0" xlink:href="#C0_2_97f5698008" y="72.0"/>
    </g>
   </g>
  </g>
 </g>
 <defs>
  <clipPath id="p1bffca34e9">
   <rect height="72.0" width="72.0" x="0.0" y="0.0"/>
  </clipPath>
 </defs>
</svg>
