<?xml version="1.0" encoding="utf-8" standalone="no"?>
<!DOCTYPE svg PUBLIC "-//W3C//DTD SVG 1.1//EN"
  "http://www.w3.org/Graphics/SVG/1.1/DTD/svg11.dtd">
<!-- Created with matplotlib (http://matplotlib.org/) -->
<svg height="72pt" version="1.1" viewBox="0 0 72 72" width="72pt" xmlns="http://www.w3.org/2000/svg" xmlns:xlink="http://www.w3.org/1999/xlink">
 <defs>
  <style type="text/css">
*{stroke-linecap:butt;stroke-linejoin:round;}
  </style>
 </defs>
 <g id="figure_1">
  <g id="patch_1">
   <path d="
M0 72
L72 72
L72 0
L0 0
z
" style="fill:none;"/>
  </g>
  <g id="axes_1">
   <g id="PatchCollection_1">
    <defs>
     <path d="
M36 -7.5
C43.5583 -7.5 50.808 -10.5029 56.1525 -15.8475
C61.4971 -21.192 64.5 -28.4417 64.5 -36
C64.5 -43.5583 61.4971 -50.808 56.1525 -56.1525
C50.808 -61.4971 43.5583 -64.5 36 -64.5
C28.4417 -64.5 21.192 -61.4971 15.8475 -56.1525
C10.5029 -50.808 7.5 -43.5583 7.5 -36
C7.5 -28.4417 10.5029 -21.192 15.8475 -15.8475
C21.192 -10.5029 28.4417 -7.5 36 -7.5
z
" id="C0_0_a811fe30f3"/>
     <path d="
M19.3525 -13.1021
L19.4471 -13.2704
L19.5423 -13.4385
L19.638 -13.6063
L19.7342 -13.7739
L19.8309 -13.9413
L19.9282 -14.1086
L20.026 -14.2758
L20.1242 -14.443
L20.2231 -14.6101
L20.3224 -14.7772
L20.4223 -14.9444
L20.5228 -15.1117
L20.6238 -15.2791
L20.7254 -15.4467
L20.8276 -15.6145
L20.9304 -15.7825
L21.0339 -15.9508
L21.138 -16.1195
L21.2427 -16.2885
L21.3481 -16.4579
L21.4543 -16.6278
L21.6687 -16.7982
L21.7771 -16.9692
L21.8862 -17.1407
L21.9962 -17.3128
L22.107 -17.4857
L22.2187 -17.6592
L22.3313 -17.8335
L22.4448 -18.0087
L22.5593 -18.1847
L22.6747 -18.3616
L22.7912 -18.5394
L22.9088 -18.7183
L23.0274 -18.8983
L23.1471 -19.0793
L23.2681 -19.2616
L23.3902 -19.445
L23.5135 -19.6297
L23.6381 -19.8158
L23.7641 -20.0032
L23.8913 -20.192
L24.02 -20.3824
L24.1501 -20.5743
L24.2817 -20.7678
L24.4148 -20.963
L24.5495 -21.1599
L24.6859 -21.3585
L24.8238 -21.5591
L24.9635 -21.7615
L25.105 -21.9659
L25.2483 -22.1723
L25.3934 -22.3808
L25.5405 -22.5914
L25.6895 -22.8043
L25.8405 -23.0194
L25.9937 -23.2369
L26.149 -23.4567
L26.3064 -23.6791
L26.4661 -23.9039
L26.6281 -24.1314
L26.7925 -24.3614
L26.9593 -24.5942
L27.1286 -24.8298
L27.3004 -25.0681
L27.4748 -25.3094
L27.6518 -25.5535
L27.8316 -25.8007
L28.0141 -26.0509
L28.1994 -26.3041
L28.3877 -26.5604
L28.5788 -26.8199
L28.773 -27.0826
L28.9701 -27.3485
L29.1704 -27.6176
L29.3738 -27.89
L29.5804 -28.1656
L29.7902 -28.4444
L30.0032 -28.7265
L30.2196 -29.0118
L30.4393 -29.3003
L30.6624 -29.592
L30.8889 -29.8867
L31.1188 -30.1845
L31.3521 -30.4851
L31.5889 -30.7886
L31.8292 -31.0947
L32.0729 -31.4033
L32.3201 -31.7143
L32.5708 -32.0274
L32.825 -32.3424
L33.0826 -32.659
L33.3437 -32.9768
L33.6082 -33.2956
L33.8761 -33.6147
L34.1474 -33.9338
L34.4221 -34.2523
L34.7002 -34.5695
L34.9817 -34.8845
L35.2666 -35.1966
L35.555 -35.5047
L35.8468 -35.8076
L36.1422 -36.1038
L36.4412 -36.3918
L36.7441 -36.6696
L37.0509 -36.9351
L37.3619 -37.1857
L37.6773 -37.4187
L37.9974 -37.6311
L38.3224 -37.8195
L38.6524 -37.9809
L38.9876 -38.1122
L39.3278 -38.2109
L39.6729 -38.2754
L40.0223 -38.3049
L40.3754 -38.2999
L40.7317 -38.2618
L41.0902 -38.1929
L41.4501 -38.096
L41.8107 -37.9741
L42.1713 -37.8303
L42.531 -37.6674
L42.8894 -37.4882
L43.2459 -37.2952
L43.5999 -37.0903
L43.9511 -36.8754
L44.2991 -36.6521
L44.6436 -36.4219
L44.9842 -36.1858
L45.3208 -35.9448
L45.6531 -35.7
L45.9809 -35.4519
L46.3041 -35.2013
L46.6225 -34.9488
L46.9361 -34.6949
L47.2447 -34.44
L47.5483 -34.1845
L47.8469 -33.9287
L48.1404 -33.6729
L48.4287 -33.4175
L48.7119 -33.1626
L48.9899 -32.9085
L49.2629 -32.6553
L49.5307 -32.4032
L49.7935 -32.1524
L50.0512 -31.9029
L50.304 -31.6548
L50.5518 -31.4083
L50.7948 -31.1634
L51.033 -30.9202
L51.2664 -30.6787
L51.4952 -30.439
L51.7194 -30.201
L51.939 -29.965
L52.1543 -29.7308
L52.3652 -29.4984
L52.5718 -29.2679
L52.7742 -29.0392
L52.9725 -28.8124
L53.1668 -28.5875
L53.3571 -28.3644
L53.5436 -28.143
L53.7264 -27.9235
L53.9054 -27.7057
L54.0808 -27.4896
L54.2527 -27.2752
L54.4212 -27.0625
L54.5863 -26.8514
L54.7481 -26.6418
L54.9066 -26.4338
L55.0621 -26.2273
L55.2144 -26.0222
L55.3637 -25.8186
L55.5101 -25.6163
L55.6537 -25.4153
L55.7944 -25.2156
L55.9324 -25.0171
L56.0677 -24.8197
L56.2003 -24.6235
L56.3304 -24.4284
L56.458 -24.2343
L56.5831 -24.0411
L56.7058 -23.8489
L56.8262 -23.6576
L56.9442 -23.467
L57.0599 -23.2773
L57.1734 -23.0882
L57.2847 -22.8998
L57.3938 -22.712
L57.5008 -22.5248
L57.6057 -22.3381
L57.7086 -22.1518
L57.8094 -21.966
L57.9082 -21.7804
L58.005 -21.5952
L58.0999 -21.4102
L58.1928 -21.2254
L58.2838 -21.0407
L58.3729 -20.8561
L58.4601 -20.6716
L58.5453 -20.4869
L58.6288 -20.3022
L58.7103 -20.1174
L58.7899 -19.9323
L58.8677 -19.747
L58.9436 -19.5613
L58.783 -19.3753
L58.4807 -18.8774
L58.1716 -18.4824
L57.8557 -18.0927
L57.5331 -17.7085
L57.204 -17.3299
L56.8684 -16.9569
L56.5265 -16.5897
L56.1783 -16.2285
L55.824 -15.8733
L55.4636 -15.5242
L55.0973 -15.1813
L54.7252 -14.8448
L54.3474 -14.5147
L53.964 -14.1912
L53.5751 -13.8743
L53.1808 -13.5642
L52.7814 -13.2609
L52.3768 -12.9645
L51.9672 -12.6751
L51.5528 -12.3928
L51.1336 -12.1178
L50.7098 -11.85
L50.2816 -11.5895
L49.849 -11.3365
L49.4121 -11.091
L48.9712 -10.8531
L48.5263 -10.6229
L48.0777 -10.4004
L47.6253 -10.1857
L47.1694 -9.97881
L46.7101 -9.77988
L46.2475 -9.58894
L45.7818 -9.40605
L45.3132 -9.23126
L44.8417 -9.06462
L44.3675 -8.90618
L43.8907 -8.756
L43.4116 -8.61412
L42.9302 -8.48058
L42.4466 -8.35542
L41.9612 -8.23868
L41.4739 -8.1304
L40.9849 -8.03061
L40.4944 -7.93934
L40.0025 -7.85661
L39.5095 -7.78246
L39.0153 -7.7169
L38.5203 -7.65996
L38.0244 -7.61165
L37.528 -7.57199
L37.0311 -7.54099
L36.5339 -7.51866
L36.0365 -7.505
L35.5391 -7.50002
L35.0418 -7.50373
L34.5448 -7.51611
L34.0483 -7.53717
L33.5524 -7.5669
L33.0572 -7.6053
L32.5629 -7.65234
L32.0697 -7.70801
L31.5776 -7.77231
L31.0869 -7.8452
L30.5977 -7.92667
L30.1102 -8.01669
L29.6244 -8.11523
L29.1406 -8.22227
L28.6589 -8.33777
L28.1794 -8.4617
L27.7023 -8.59401
L27.2277 -8.73467
L26.7558 -8.88364
L26.2867 -9.04087
L25.8206 -9.20631
L25.3575 -9.37991
L24.8977 -9.56162
L24.4413 -9.75138
L23.9884 -9.94914
L23.5392 -10.1548
L23.0938 -10.3684
L22.6523 -10.5898
L22.2148 -10.8189
L21.7816 -11.0557
L21.3527 -11.3001
L20.9282 -11.552
L20.5084 -11.8113
L20.0933 -12.078
L19.683 -12.3521
z
" id="C0_1_49471130ed"/>
     <path d="
M12.9874 -52.8075
L13.1878 -52.7938
L13.389 -52.7783
L13.591 -52.7611
L13.7938 -52.7421
L13.9975 -52.7214
L14.2021 -52.6989
L14.4078 -52.6747
L14.6146 -52.6488
L14.8225 -52.621
L15.0316 -52.5916
L15.242 -52.5604
L15.4537 -52.5274
L15.6668 -52.4926
L15.8813 -52.456
L16.0974 -52.4175
L16.315 -52.3773
L16.5344 -52.3351
L16.7554 -52.2911
L16.9782 -52.2452
L17.2029 -52.1974
L17.4295 -52.1476
L17.6581 -52.0958
L17.8888 -52.0419
L18.1216 -51.9861
L18.3567 -51.9281
L18.594 -51.868
L18.8336 -51.8057
L19.0757 -51.7413
L19.3204 -51.6746
L19.5675 -51.6056
L19.8174 -51.5342
L20.0699 -51.4605
L20.3253 -51.3844
L20.5835 -51.3058
L20.8446 -51.2247
L21.1088 -51.141
L21.3761 -51.0547
L21.6465 -50.9657
L21.9201 -50.874
L22.197 -50.7796
L22.4773 -50.6823
L22.761 -50.5821
L23.0482 -50.479
L23.3389 -50.373
L23.6332 -50.2639
L23.9311 -50.1518
L24.2327 -50.0365
L24.5381 -49.9181
L24.8472 -49.7965
L25.1601 -49.6717
L25.4768 -49.5437
L25.7973 -49.4124
L26.1218 -49.2779
L26.45 -49.14
L26.7821 -48.9989
L27.118 -48.8546
L27.4578 -48.707
L27.8013 -48.5562
L28.1485 -48.4023
L28.4994 -48.2453
L28.8539 -48.0855
L29.2119 -47.9228
L29.5732 -47.7574
L29.9379 -47.5896
L30.3057 -47.4196
L30.6764 -47.2476
L31.05 -47.074
L31.4262 -46.8992
L31.8047 -46.7236
L32.1854 -46.5479
L32.568 -46.3726
L32.9521 -46.1985
L33.3374 -46.0266
L33.7236 -45.8579
L34.1102 -45.6938
L34.4968 -45.5358
L34.8828 -45.3856
L35.2677 -45.2453
L35.6508 -45.1172
L36.0316 -45.0042
L36.4093 -44.909
L36.7832 -44.8349
L37.1526 -44.7849
L37.5168 -44.7619
L37.8753 -44.7684
L38.2276 -44.8059
L38.5735 -44.8751
L38.913 -44.9754
L39.2461 -45.1054
L39.5731 -45.2628
L39.8943 -45.4447
L40.2101 -45.648
L40.5208 -45.8698
L40.8268 -46.1069
L41.1283 -46.3568
L41.4256 -46.6171
L41.7188 -46.8855
L42.0081 -47.1604
L42.2936 -47.4401
L42.5753 -47.7233
L42.8534 -48.0088
L43.1278 -48.2958
L43.3986 -48.5832
L43.6658 -48.8705
L43.9294 -49.157
L44.1894 -49.4421
L44.4458 -49.7256
L44.6986 -50.0069
L44.9478 -50.2857
L45.1934 -50.5618
L45.4354 -50.8349
L45.6738 -51.1049
L45.9086 -51.3715
L46.1399 -51.6347
L46.3677 -51.8944
L46.592 -52.1504
L46.8128 -52.4027
L47.0301 -52.6512
L47.244 -52.8959
L47.4546 -53.1369
L47.6618 -53.374
L47.8658 -53.6073
L48.0665 -53.8368
L48.2641 -54.0625
L48.4585 -54.2845
L48.6499 -54.5028
L48.8382 -54.7174
L49.0235 -54.9284
L49.206 -55.1358
L49.3856 -55.3397
L49.5625 -55.5402
L49.7366 -55.7372
L49.908 -55.9309
L50.0768 -56.1213
L50.2432 -56.3086
L50.407 -56.4926
L50.5684 -56.6736
L50.7274 -56.8516
L50.8842 -57.0267
L51.0387 -57.1988
L51.1911 -57.3682
L51.3413 -57.5348
L51.4895 -57.6987
L51.6357 -57.86
L51.7799 -58.0188
L51.9222 -58.175
L52.0627 -58.3289
L52.2015 -58.4804
L52.3385 -58.6295
L52.4738 -58.7765
L52.6075 -58.9212
L52.3356 -59.0638
L51.9255 -59.3538
L51.5106 -59.6353
L51.0909 -59.9097
L50.6667 -60.1767
L50.238 -60.4364
L49.8049 -60.6887
L49.3677 -60.9334
L48.9264 -61.1705
L48.4811 -61.4
L48.032 -61.6217
L47.5793 -61.8356
L47.1231 -62.0417
L46.6634 -62.2398
L46.2005 -62.4299
L45.7345 -62.612
L45.2656 -62.786
L44.7938 -62.9518
L44.3193 -63.1094
L43.8423 -63.2587
L43.3629 -63.3998
L42.8813 -63.5325
L42.3976 -63.6568
L41.9119 -63.7727
L41.4244 -63.8801
L40.9353 -63.979
L40.4447 -64.0694
L39.9527 -64.1513
L39.4595 -64.2246
L38.9653 -64.2893
L38.4701 -64.3453
L37.9742 -64.3928
L37.4777 -64.4315
L36.9808 -64.4617
L36.4835 -64.4831
L35.9861 -64.4959
L35.4887 -64.5
L34.9915 -64.4954
L34.4946 -64.4822
L33.9981 -64.4602
L33.5022 -64.4296
L33.0071 -64.3903
L32.513 -64.3424
L32.0198 -64.2859
L31.5279 -64.2207
L31.0374 -64.1469
L30.5483 -64.0646
L30.0609 -63.9737
L29.5754 -63.8743
L29.0918 -63.7664
L28.6103 -63.6501
L28.131 -63.5253
L27.6541 -63.3921
L27.1798 -63.2506
L26.7082 -63.1008
L26.2394 -62.9428
L25.7736 -62.7765
L25.3109 -62.6021
L24.8514 -62.4195
L24.3953 -62.229
L23.9428 -62.0304
L23.494 -61.8239
L23.0489 -61.6095
L22.6078 -61.3874
L22.1708 -61.1575
L21.738 -60.9199
L21.3095 -60.6748
L20.8855 -60.4221
L20.4662 -60.162
L20.0515 -59.8946
L19.6417 -59.6198
L19.2369 -59.3379
L18.8372 -59.0488
L18.4427 -58.7528
L18.0536 -58.4498
L17.6699 -58.1399
L17.2919 -57.8233
L16.9195 -57.5001
L16.5529 -57.1703
L16.1923 -56.8341
L15.8377 -56.4915
L15.4892 -56.1427
L15.147 -55.7878
L14.8111 -55.4268
L14.4817 -55.0599
L14.1588 -54.6872
L13.8426 -54.3088
L13.5332 -53.9248
z
" id="C0_2_b5159d1d2e"/>
    </defs>
    <g clip-path="url(#p1bffca34e9)">
     <use style="fill:#ff0000;stroke:#000000;stroke-width:2.0;" x="0.0" xlink:href="#C0_0_a811fe30f3" y="72.0"/>
    </g>
    <g clip-path="url(#p1bffca34e9)">
     <use style="fill:#ffffff;stroke:#000000;stroke-width:2.0;" x="0.0" xlink:href="#C0_1_49471130ed" y="72.0"/>
    </g>
    <g clip-path="url(#p1bffca34e9)">
     <use style="fill:#ffffff;stroke:#000000;stroke-width:2.0;" x="0.0" xlink:href="#C0_2_b5159d1d2e" y="72.0"/>
    </g>
   </g>
  </g>
 </g>
 <defs>
  <clipPath id="p1bffca34e9">
   <rect height="72.0" width="72.0" x="0.0" y="0.0"/>
  </clipPath>
 </defs>
</svg>
