<?xml version="1.0" encoding="utf-8" standalone="no"?>
<!DOCTYPE svg PUBLIC "-//W3C//DTD SVG 1.1//EN"
  "http://www.w3.org/Graphics/SVG/1.1/DTD/svg11.dtd">
<!-- Created with matplotlib (http://matplotlib.org/) -->
<svg height="72pt" version="1.1" viewBox="0 0 72 72" width="72pt" xmlns="http://www.w3.org/2000/svg" xmlns:xlink="http://www.w3.org/1999/xlink">
 <defs>
  <style type="text/css">
*{stroke-linecap:butt;stroke-linejoin:round;}
  </style>
 </defs>
 <g id="figure_1">
  <g id="patch_1">
   <path d="
M0 72
L72 72
L72 0
L0 0
z
" style="fill:none;"/>
  </g>
  <g id="axes_1">
   <g id="PatchCollection_1">
    <defs>
     <path d="
M36 -7.5
C43.5583 -7.5 50.808 -10.5029 56.1525 -15.8475
C61.4971 -21.192 64.5 -28.4417 64.5 -36
C64.5 -43.5583 61.4971 -50.808 56.1525 -56.1525
C50.808 -61.4971 43.5583 -64.5 36 -64.5
C28.4417 -64.5 21.192 -61.4971 15.8475 -56.1525
C10.5029 -50.808 7.5 -43.5583 7.5 -36
C7.5 -28.4417 10.5029 -21.192 15.8475 -15.8475
C21.192 -10.5029 28.4417 -7.5 36 -7.5
z
" id="C0_0_a811fe30f3"/>
     <path d="
M59.5814 -20.2261
L59.424 -20.3182
L59.1061 -20.4107
L58.9455 -20.5035
L58.7837 -20.5966
L58.6207 -20.69
L58.4566 -20.7839
L58.2912 -20.8781
L58.1245 -20.9728
L57.9566 -21.0679
L57.7872 -21.1635
L57.6165 -21.2596
L57.4444 -21.3562
L57.2708 -21.4534
L57.0957 -21.5512
L56.9191 -21.6495
L56.7409 -21.7484
L56.5611 -21.848
L56.3795 -21.9483
L56.1963 -22.0493
L56.0113 -22.1509
L55.8245 -22.2533
L55.6359 -22.3565
L55.4453 -22.4604
L55.2527 -22.5652
L55.0582 -22.6707
L54.8616 -22.7772
L54.6629 -22.8845
L54.462 -22.9927
L54.2589 -23.1018
L54.0535 -23.2119
L53.8458 -23.3229
L53.6357 -23.4349
L53.4232 -23.5479
L53.2082 -23.6619
L52.9906 -23.7769
L52.7704 -23.893
L52.5476 -24.0101
L52.322 -24.1284
L52.0937 -24.2477
L51.8625 -24.3681
L51.6285 -24.4896
L51.3916 -24.6122
L51.1516 -24.7359
L50.9086 -24.8608
L50.6626 -24.9867
L50.4134 -25.1138
L50.1611 -25.2419
L49.9055 -25.3711
L49.6466 -25.5014
L49.3845 -25.6327
L49.1191 -25.7649
L48.8502 -25.8982
L48.578 -26.0324
L48.3024 -26.1674
L48.0234 -26.3032
L47.7409 -26.4398
L47.455 -26.5771
L47.1656 -26.7149
L46.8728 -26.8532
L46.5766 -26.9919
L46.2769 -27.1308
L45.9739 -27.2698
L45.6676 -27.4087
L45.3579 -27.5474
L45.0451 -27.6857
L44.729 -27.8234
L44.4099 -27.9602
L44.0878 -28.0959
L43.7627 -28.2302
L43.4349 -28.3628
L43.1045 -28.4933
L42.7715 -28.6214
L42.4362 -28.7467
L42.0987 -28.8688
L41.7593 -28.9872
L41.418 -29.1013
L41.0751 -29.2107
L40.7309 -29.3148
L40.3855 -29.413
L40.0393 -29.5047
L39.6925 -29.5891
L39.3454 -29.6657
L38.9982 -29.7337
L38.6513 -29.7924
L38.305 -29.8411
L37.9594 -29.8791
L37.615 -29.9058
L37.272 -29.9206
L36.9307 -29.9229
L36.5913 -29.9123
L36.2541 -29.8884
L35.9193 -29.8508
L35.5871 -29.7995
L35.2577 -29.7345
L34.9313 -29.6557
L34.608 -29.5634
L34.2879 -29.458
L33.9712 -29.3397
L33.6579 -29.2093
L33.3481 -29.0672
L33.0418 -28.9141
L32.7391 -28.7507
L32.44 -28.5777
L32.1446 -28.396
L31.8529 -28.2061
L31.5648 -28.0089
L31.2805 -27.8051
L30.9999 -27.5954
L30.723 -27.3805
L30.4498 -27.1609
L30.1804 -26.9374
L29.9146 -26.7104
L29.6526 -26.4806
L29.3943 -26.2483
L29.1397 -26.0141
L28.8888 -25.7784
L28.6415 -25.5416
L28.398 -25.304
L28.158 -25.0659
L27.9217 -24.8277
L27.689 -24.5896
L27.4598 -24.3519
L27.2342 -24.1147
L27.0121 -23.8783
L26.7934 -23.6429
L26.5782 -23.4087
L26.3664 -23.1756
L26.1579 -22.944
L25.9528 -22.7139
L25.7509 -22.4853
L25.5522 -22.2584
L25.3568 -22.0333
L25.1644 -21.8099
L24.9752 -21.5884
L24.7889 -21.3688
L24.6057 -21.1511
L24.4253 -20.9354
L24.2479 -20.7216
L24.0733 -20.5099
L23.9015 -20.3
L23.7323 -20.0922
L23.5659 -19.8864
L23.4021 -19.6825
L23.2408 -19.4806
L23.0821 -19.2806
L22.9258 -19.0825
L22.772 -18.8863
L22.6205 -18.6921
L22.4713 -18.4996
L22.3244 -18.309
L22.1797 -18.1201
L22.0372 -17.933
L21.8969 -17.7476
L21.7586 -17.5639
L21.6223 -17.3819
L21.4881 -17.2015
L21.3558 -17.0226
L21.2254 -16.8453
L21.0969 -16.6694
L20.9702 -16.4951
L20.8453 -16.3221
L20.7222 -16.1505
L20.6008 -15.9803
L20.4811 -15.8113
L20.363 -15.6437
L20.2466 -15.4772
L20.1318 -15.3119
L20.0185 -15.1477
L19.9068 -14.9846
L19.7966 -14.8226
L19.6879 -14.6616
L19.5806 -14.5016
L19.4748 -14.3425
L19.3703 -14.1843
L19.2673 -14.027
L19.1657 -13.8704
L19.0654 -13.7147
L18.9665 -13.5597
L18.8689 -13.4054
L19.2552 -13.2517
L19.6602 -12.9379
L20.0702 -12.6492
L20.4851 -12.3675
L20.9047 -12.0931
L21.3289 -11.826
L21.7576 -11.5662
L22.1906 -11.3139
L22.6278 -11.0691
L23.0691 -10.8319
L23.5143 -10.6024
L23.9633 -10.3805
L24.416 -10.1665
L24.8722 -9.9604
L25.3318 -9.7622
L25.7947 -9.57199
L26.2606 -9.38983
L26.7296 -9.21577
L27.2013 -9.04988
L27.6758 -8.89219
L28.1527 -8.74276
L28.6321 -8.60164
L29.1137 -8.46886
L29.5974 -8.34446
L30.0831 -8.22849
L30.5705 -8.12098
L31.0596 -8.02196
L31.5502 -7.93146
L32.0422 -7.84952
L32.5354 -7.77615
L33.0296 -7.71137
L33.5248 -7.65521
L34.0207 -7.60769
L34.5171 -7.56882
L35.0141 -7.5386
L35.5113 -7.51706
L36.0087 -7.50419
L36.5061 -7.5
L37.0034 -7.50449
L37.5003 -7.51767
L37.9968 -7.53952
L38.4926 -7.57004
L38.9877 -7.60921
L39.4819 -7.65704
L39.9751 -7.7135
L40.467 -7.77858
L40.9576 -7.85225
L41.4466 -7.9345
L41.934 -8.02529
L42.4196 -8.12461
L42.9032 -8.23242
L43.3848 -8.34869
L43.8641 -8.47338
L44.3409 -8.60645
L44.8153 -8.74787
L45.2869 -8.89759
L45.7558 -9.05556
L46.2216 -9.22175
L46.6844 -9.39609
L47.1439 -9.57853
L47.6 -9.76902
L48.0525 -9.96751
L48.5014 -10.1739
L48.9465 -10.3882
L49.3876 -10.6103
L49.8247 -10.8401
L50.2576 -11.0776
L50.6861 -11.3226
L51.1101 -11.5752
L51.5295 -11.8353
L51.9442 -12.1026
L52.3541 -12.3773
L52.7589 -12.6592
L53.1587 -12.9481
L53.5532 -13.2441
L53.9424 -13.5471
L54.3261 -13.8568
L54.7043 -14.1733
L55.0767 -14.4965
L55.4433 -14.8262
L55.804 -15.1624
L56.1587 -15.5049
L56.5072 -15.8536
L56.8495 -16.2085
L57.1855 -16.5694
L57.515 -16.9363
L57.8379 -17.3089
L58.1542 -17.6872
L58.4637 -18.0712
L58.7664 -18.4605
L59.0621 -18.8552
L59.3508 -19.2552
z
" id="C0_1_7de6bc98fd"/>
     <path d="
M53.0375 -58.6489
L52.9158 -58.5126
L52.7932 -58.3757
L52.6697 -58.238
L52.5452 -58.0996
L52.4198 -57.9605
L52.2934 -57.8205
L52.166 -57.6796
L52.0376 -57.5379
L51.9082 -57.3953
L51.7776 -57.2518
L51.646 -57.1072
L51.5132 -56.9617
L51.3793 -56.8151
L51.2442 -56.6674
L51.1078 -56.5186
L50.9702 -56.3687
L50.8313 -56.2175
L50.691 -56.0652
L50.5494 -55.9116
L50.4064 -55.7567
L50.262 -55.6004
L50.116 -55.4428
L49.9686 -55.2837
L49.8196 -55.1233
L49.669 -54.9613
L49.5167 -54.7978
L49.3628 -54.6327
L49.2072 -54.4661
L49.0497 -54.2978
L48.8905 -54.1278
L48.7294 -53.9561
L48.5664 -53.7827
L48.4015 -53.6075
L48.2345 -53.4305
L48.0655 -53.2516
L47.8945 -53.0709
L47.7212 -52.8882
L47.5458 -52.7036
L47.3682 -52.517
L47.1883 -52.3285
L47.006 -52.1379
L46.8213 -51.9453
L46.6342 -51.7506
L46.4447 -51.5539
L46.2526 -51.3551
L46.0579 -51.1542
L45.8606 -50.9513
L45.6606 -50.7462
L45.4579 -50.5391
L45.2525 -50.3299
L45.0442 -50.1187
L44.8331 -49.9055
L44.6191 -49.6903
L44.4022 -49.4733
L44.1823 -49.2543
L43.9594 -49.0336
L43.7335 -48.8111
L43.5044 -48.5871
L43.2723 -48.3615
L43.0371 -48.1345
L42.7987 -47.9063
L42.5571 -47.6769
L42.3123 -47.4467
L42.0643 -47.2157
L41.8131 -46.9842
L41.5586 -46.7524
L41.3009 -46.5206
L41.0399 -46.2891
L40.7757 -46.0582
L40.5081 -45.8283
L40.2374 -45.5997
L39.9633 -45.3729
L39.686 -45.1484
L39.4055 -44.9265
L39.1217 -44.7079
L38.8347 -44.4931
L38.5445 -44.2828
L38.2511 -44.0775
L37.9545 -43.8779
L37.6548 -43.6848
L37.3519 -43.4989
L37.046 -43.3209
L36.737 -43.1516
L36.4249 -42.9917
L36.1099 -42.842
L35.7919 -42.7032
L35.4712 -42.5759
L35.1476 -42.4608
L34.8214 -42.3583
L34.4927 -42.269
L34.1615 -42.1932
L33.8282 -42.1311
L33.4927 -42.0828
L33.1554 -42.0482
L32.8165 -42.0273
L32.4762 -42.0198
L32.1347 -42.0253
L31.7923 -42.0434
L31.4493 -42.0735
L31.106 -42.115
L30.7626 -42.1674
L30.4194 -42.2299
L30.0768 -42.3019
L29.7349 -42.3826
L29.3941 -42.4713
L29.0546 -42.5675
L28.7166 -42.6703
L28.3804 -42.7793
L28.0461 -42.8938
L27.7141 -43.0132
L27.3844 -43.137
L27.0572 -43.2646
L26.7328 -43.3958
L26.4112 -43.5299
L26.0926 -43.6666
L25.7771 -43.8055
L25.4648 -43.9463
L25.1557 -44.0887
L24.8501 -44.2324
L24.5479 -44.3771
L24.2492 -44.5226
L23.954 -44.6687
L23.6624 -44.8151
L23.3744 -44.9618
L23.0901 -45.1085
L22.8094 -45.2551
L22.5323 -45.4015
L22.2589 -45.5476
L21.9892 -45.6932
L21.723 -45.8383
L21.4605 -45.9828
L21.2015 -46.1265
L20.9461 -46.2696
L20.6942 -46.4118
L20.4458 -46.5532
L20.2009 -46.6937
L19.9593 -46.8333
L19.7212 -46.972
L19.4863 -47.1097
L19.2547 -47.2464
L19.0263 -47.3821
L18.801 -47.5168
L18.5789 -47.6506
L18.3598 -47.7833
L18.1437 -47.915
L17.9306 -48.0457
L17.7203 -48.1754
L17.5129 -48.3042
L17.3082 -48.4319
L17.1063 -48.5587
L16.907 -48.6846
L16.7104 -48.8095
L16.5163 -48.9336
L16.3247 -49.0567
L16.1355 -49.179
L15.9487 -49.3004
L15.7643 -49.421
L15.5822 -49.5408
L15.4022 -49.6598
L15.2245 -49.7781
L15.0489 -49.8956
L14.8754 -50.0125
L14.704 -50.1286
L14.5345 -50.2441
L14.367 -50.359
L14.2014 -50.4733
L14.0376 -50.587
L13.8757 -50.7002
L13.7156 -50.8128
L13.5572 -50.925
L13.4005 -51.0367
L13.2454 -51.148
L13.092 -51.2588
L12.9403 -51.3693
L12.79 -51.4795
L12.6413 -51.5894
L12.4942 -51.6989
L12.5853 -51.8082
L12.8725 -52.2482
L13.1667 -52.6544
L13.4678 -53.0555
L13.7758 -53.4514
L14.0906 -53.8419
L14.412 -54.2271
L14.74 -54.6067
L15.0745 -54.9806
L15.4154 -55.3488
L15.7625 -55.711
L16.1158 -56.0673
L16.4752 -56.4174
L16.8405 -56.7613
L17.2116 -57.0989
L17.5885 -57.4301
L17.971 -57.7547
L18.359 -58.0727
L18.7523 -58.384
L19.1509 -58.6885
L19.5546 -58.986
L19.9634 -59.2766
L20.377 -59.5601
L20.7954 -59.8363
L21.2184 -60.1054
L21.6459 -60.3671
L22.0778 -60.6213
L22.5139 -60.8681
L22.9541 -61.1073
L23.3984 -61.3388
L23.8464 -61.5626
L24.2982 -61.7787
L24.7535 -61.9869
L25.2122 -62.1871
L25.6742 -62.3794
L26.1394 -62.5637
L26.6076 -62.7398
L27.0786 -62.9079
L27.5524 -63.0677
L28.0287 -63.2193
L28.5075 -63.3625
L28.9885 -63.4975
L29.4717 -63.6241
L29.9568 -63.7422
L30.4438 -63.8519
L30.9325 -63.9532
L31.4228 -64.0459
L31.9144 -64.13
L32.4073 -64.2056
L32.9013 -64.2726
L33.3962 -64.331
L33.8919 -64.3808
L34.3882 -64.4219
L34.8851 -64.4544
L35.3823 -64.4782
L35.8796 -64.4933
L36.377 -64.4997
L36.8743 -64.4975
L37.3714 -64.4866
L37.868 -64.467
L38.364 -64.4387
L38.8593 -64.4018
L39.3538 -64.3562
L39.8472 -64.302
L40.3395 -64.2391
L40.8304 -64.1677
L41.3199 -64.0877
L41.8077 -63.9991
L42.2938 -63.902
L42.7779 -63.7964
L43.26 -63.6823
L43.7399 -63.5598
L44.2174 -63.4289
L44.6924 -63.2896
L45.1648 -63.1421
L45.6344 -62.9862
L46.101 -62.8222
L46.5646 -62.6499
L47.0249 -62.4696
L47.4819 -62.2812
L47.9354 -62.0848
L48.3853 -61.8804
L48.8314 -61.6682
L49.2736 -61.4481
L49.7117 -61.2203
L50.1456 -60.9848
L50.5753 -60.7417
L51.0005 -60.491
L51.4211 -60.2329
L51.8371 -59.9674
L52.2482 -59.6947
L52.6544 -59.4147
z
" id="C0_2_c53cb5a38d"/>
    </defs>
    <g clip-path="url(#p1bffca34e9)">
     <use style="fill:#ffffff;stroke:#000000;stroke-width:2.0;" x="0.0" xlink:href="#C0_0_a811fe30f3" y="72.0"/>
    </g>
    <g clip-path="url(#p1bffca34e9)">
     <use style="fill:#ff0000;stroke:#000000;stroke-width:2.0;" x="0.0" xlink:href="#C0_1_7de6bc98fd" y="72.0"/>
    </g>
    <g clip-path="url(#p1bffca34e9)">
     <use style="fill:#ff0000;stroke:#000000;stroke-width:2.0;" x="0.0" xlink:href="#C0_2_c53cb5a38d" y="72.0"/>
    </g>
   </g>
  </g>
 </g>
 <defs>
  <clipPath id="p1bffca34e9">
   <rect height="72.0" width="72.0" x="0.0" y="0.0"/>
  </clipPath>
 </defs>
</svg>
