<?xml version="1.0" encoding="utf-8" standalone="no"?>
<!DOCTYPE svg PUBLIC "-//W3C//DTD SVG 1.1//EN"
  "http://www.w3.org/Graphics/SVG/1.1/DTD/svg11.dtd">
<!-- Created with matplotlib (http://matplotlib.org/) -->
<svg height="72pt" version="1.1" viewBox="0 0 72 72" width="72pt" xmlns="http://www.w3.org/2000/svg" xmlns:xlink="http://www.w3.org/1999/xlink">
 <defs>
  <style type="text/css">
*{stroke-linecap:butt;stroke-linejoin:round;}
  </style>
 </defs>
 <g id="figure_1">
  <g id="patch_1">
   <path d="
M0 72
L72 72
L72 0
L0 0
z
" style="fill:none;"/>
  </g>
  <g id="axes_1">
   <g id="PatchCollection_1">
    <defs>
     <path d="
M36 -7.5
C43.5583 -7.5 50.808 -10.5029 56.1525 -15.8475
C61.4971 -21.192 64.5 -28.4417 64.5 -36
C64.5 -43.5583 61.4971 -50.808 56.1525 -56.1525
C50.808 -61.4971 43.5583 -64.5 36 -64.5
C28.4417 -64.5 21.192 -61.4971 15.8475 -56.1525
C10.5029 -50.808 7.5 -43.5583 7.5 -36
C7.5 -28.4417 10.5029 -21.192 15.8475 -15.8475
C21.192 -10.5029 28.4417 -7.5 36 -7.5
z
" id="C0_0_a811fe30f3"/>
     <path d="
M34.4757 -7.65194
L34.308 -7.88906
L34.1719 -8.13433
L34.0657 -8.38707
L33.9875 -8.64665
L33.9353 -8.91246
L33.9068 -9.18396
L33.8997 -9.46063
L33.9118 -9.742
L33.9409 -10.0276
L33.985 -10.3171
L34.0422 -10.6101
L34.1107 -10.9062
L34.1891 -11.2051
L34.2759 -11.5065
L34.3699 -11.81
L34.47 -12.1154
L34.5751 -12.4224
L34.6846 -12.7308
L34.7975 -13.0403
L34.9132 -13.3506
L35.0312 -13.6616
L35.1508 -13.973
L35.2718 -14.2847
L35.3936 -14.5964
L35.516 -14.908
L35.6386 -15.2193
L35.7612 -15.5302
L35.8836 -15.8405
L36.0055 -16.1501
L36.1268 -16.4588
L36.2474 -16.7666
L36.3671 -17.0733
L36.4858 -17.3789
L36.6034 -17.6832
L36.7199 -17.9863
L36.8351 -18.2879
L36.9491 -18.5881
L37.0618 -18.8869
L37.1732 -19.1841
L37.2832 -19.4798
L37.3918 -19.7738
L37.499 -20.0663
L37.6048 -20.3571
L37.7092 -20.6462
L37.8122 -20.9337
L37.9139 -21.2196
L38.0141 -21.5038
L38.113 -21.7863
L38.2105 -22.0672
L38.3066 -22.3465
L38.4014 -22.6241
L38.495 -22.9002
L38.5872 -23.1747
L38.6782 -23.4476
L38.7679 -23.7191
L38.8564 -23.9891
L38.9438 -24.2576
L39.0299 -24.5247
L39.1149 -24.7905
L39.1988 -25.0549
L39.2816 -25.318
L39.3633 -25.5799
L39.444 -25.8406
L39.5237 -26.1001
L39.6024 -26.3585
L39.6801 -26.6159
L39.7568 -26.8722
L39.8326 -27.1275
L39.9076 -27.382
L39.9816 -27.6355
L40.0549 -27.8882
L40.1272 -28.1402
L40.1988 -28.3914
L40.2696 -28.642
L40.3397 -28.8919
L40.4089 -29.1413
L40.4775 -29.3902
L40.5454 -29.6387
L40.6126 -29.8867
L40.6791 -30.1344
L40.745 -30.3818
L40.8103 -30.6289
L40.8749 -30.8759
L40.939 -31.1227
L41.0025 -31.3695
L41.0655 -31.6163
L41.1279 -31.8631
L41.2511 -32.11
L41.312 -32.357
L41.3724 -32.6043
L41.4323 -32.8518
L41.4918 -33.0997
L41.5509 -33.3479
L41.6095 -33.5966
L41.6677 -33.8458
L41.7255 -34.0955
L41.7829 -34.3458
L41.8399 -34.5968
L41.8966 -34.8486
L41.9528 -35.1011
L42.0088 -35.3545
L42.0644 -35.6088
L42.1196 -35.8641
L42.1745 -36.1203
L42.2291 -36.3777
L42.2834 -36.6362
L42.3374 -36.8959
L42.391 -37.1569
L42.4444 -37.4192
L42.4974 -37.6829
L42.5502 -37.948
L42.6027 -38.2146
L42.6549 -38.4827
L42.7068 -38.7525
L42.7584 -39.024
L42.8098 -39.2971
L42.8608 -39.5721
L42.9116 -39.8489
L42.9621 -40.1276
L43.0123 -40.4082
L43.0623 -40.6908
L43.1119 -40.9755
L43.1613 -41.2623
L43.2104 -41.5512
L43.2592 -41.8424
L43.3077 -42.1357
L43.3559 -42.4313
L43.4038 -42.7293
L43.4514 -43.0296
L43.4986 -43.3322
L43.5456 -43.6373
L43.5923 -43.9448
L43.6386 -44.2548
L43.6846 -44.5672
L43.7303 -44.8821
L43.7756 -45.1995
L43.8207 -45.5194
L43.8654 -45.8417
L43.9098 -46.1665
L43.9539 -46.4936
L43.9977 -46.8232
L44.0413 -47.1551
L44.0846 -47.4893
L44.1276 -47.8258
L44.1705 -48.1643
L44.2132 -48.5049
L44.2558 -48.8475
L44.2983 -49.1918
L44.3409 -49.5378
L44.3835 -49.8854
L44.4264 -50.2342
L44.4696 -50.5842
L44.5133 -50.9351
L44.5577 -51.2867
L44.6029 -51.6386
L44.6492 -51.9906
L44.6968 -52.3423
L44.7461 -52.6934
L44.7975 -53.0434
L44.8513 -53.3918
L44.9081 -53.7381
L44.9684 -54.0819
L45.0328 -54.4223
L45.1022 -54.7588
L45.1773 -55.0906
L45.2592 -55.4168
L45.3488 -55.7366
L45.4473 -56.0488
L45.5561 -56.3525
L45.6765 -56.6463
L45.81 -56.9291
L45.9581 -57.1995
L46.1223 -57.456
L46.3042 -57.6972
L46.5051 -57.9217
L46.7262 -58.1281
L46.9683 -58.3149
L47.232 -58.4811
L47.5174 -58.6256
L47.8245 -58.7477
L48.1524 -58.8467
L48.5002 -58.9224
L48.8666 -58.9748
L49.2501 -59.0039
L49.649 -59.0102
L50.0614 -58.9942
L50.4856 -58.9565
L50.9198 -58.8977
L51.362 -58.8187
L51.8108 -58.7201
L52.2645 -58.6028
L52.7215 -58.4676
L53.1807 -58.3152
L53.6406 -58.1463
L54.1002 -57.9616
L54.5584 -57.762
L54.9728 -57.5479
L55.3411 -57.2669
L55.7035 -56.9325
L56.0599 -56.5918
L56.4101 -56.2448
L56.7542 -55.8916
L57.0919 -55.5324
L57.4232 -55.1672
L57.748 -54.7962
L58.0661 -54.4194
L58.3776 -54.0371
L58.6822 -53.6492
L58.9799 -53.256
L59.2706 -52.8575
L59.5542 -52.4539
L59.8306 -52.0452
L60.0998 -51.6317
L60.3617 -51.2134
L60.6161 -50.7905
L60.863 -50.3631
L61.1023 -49.9313
L61.334 -49.4953
L61.558 -49.0551
L61.7742 -48.611
L61.9826 -48.163
L62.183 -47.7113
L62.3755 -47.2561
L62.5599 -46.7974
L62.7362 -46.3355
L62.9044 -45.8704
L63.0644 -45.4022
L63.2162 -44.9313
L63.3596 -44.4576
L63.4947 -43.9813
L63.6215 -43.5026
L63.7398 -43.0216
L63.8497 -42.5385
L63.9511 -42.0533
L64.044 -41.5664
L64.1284 -41.0777
L64.2041 -40.5875
L64.2713 -40.0959
L64.3299 -39.603
L64.3799 -39.1091
L64.4212 -38.6142
L64.4538 -38.1185
L64.4778 -37.6222
L64.4931 -37.1253
L64.4997 -36.6281
L64.4976 -36.1308
L64.4869 -35.6334
L64.4675 -35.1361
L64.4394 -34.639
L64.4026 -34.1424
L64.3572 -33.6464
L64.3032 -33.151
L64.2405 -32.6566
L64.1693 -32.1631
L64.0894 -31.6708
L64.001 -31.1799
L63.9041 -30.6904
L63.7987 -30.2025
L63.6848 -29.7164
L63.5624 -29.2322
L63.4317 -28.7501
L63.2926 -28.2701
L63.1452 -27.7926
L62.9896 -27.3175
L62.8257 -26.8451
L62.6536 -26.3754
L62.4735 -25.9087
L62.2852 -25.4451
L62.089 -24.9847
L61.8848 -24.5276
L61.6727 -24.074
L61.4528 -23.6241
L61.2251 -23.1779
L60.9898 -22.7357
L60.7469 -22.2975
L60.4964 -21.8634
L60.2384 -21.4337
L59.9731 -21.0084
L59.7005 -20.5876
L59.4206 -20.1716
L59.1336 -19.7604
L58.8396 -19.3541
L58.5386 -18.9529
L58.2307 -18.5569
L57.9161 -18.1662
L57.5948 -17.7809
L57.2669 -17.4012
L56.9325 -17.0272
L56.5918 -16.6589
L56.2448 -16.2965
L55.8916 -15.9401
L55.5324 -15.5899
L55.1672 -15.2458
L54.7962 -14.9081
L54.4194 -14.5768
L54.0371 -14.252
L53.6492 -13.9339
L53.256 -13.6224
L52.8575 -13.3178
L52.4539 -13.0201
L52.0452 -12.7294
L51.6317 -12.4458
L51.2134 -12.1694
L50.7905 -11.9002
L50.3631 -11.6383
L49.9313 -11.3839
L49.4953 -11.137
L49.0551 -10.8977
L48.611 -10.666
L48.163 -10.442
L47.7113 -10.2258
L47.2561 -10.0174
L46.7974 -9.81699
L46.3355 -9.62453
L45.8704 -9.4401
L45.4022 -9.26377
L44.9313 -9.09558
L44.4576 -8.93559
L43.9813 -8.78384
L43.5026 -8.64038
L43.0216 -8.50525
L42.5385 -8.3785
L42.0533 -8.26016
L41.5664 -8.15028
L41.0777 -8.04887
L40.5875 -7.95598
L40.0959 -7.87164
L39.603 -7.79586
L39.1091 -7.72867
L38.6142 -7.67009
L38.1185 -7.62015
L37.6222 -7.57885
L37.1253 -7.5462
L36.6281 -7.52223
L36.1308 -7.50692
L35.6334 -7.5003
L35.1361 -7.50236
z
" id="C0_1_5091921ad3"/>
     <path d="
M17.0755 -14.7805
L16.7962 -15.2055
L16.5236 -15.6332
L16.2582 -16.0629
L16.0003 -16.4942
L15.7502 -16.9268
L15.5082 -17.3603
L15.2744 -17.7941
L15.049 -18.2281
L14.8319 -18.6619
L14.6233 -19.0951
L14.4231 -19.5274
L14.2312 -19.9587
L14.0477 -20.3886
L13.8724 -20.817
L13.7052 -21.2435
L13.546 -21.6681
L13.3946 -22.0905
L13.2509 -22.5107
L13.1148 -22.9284
L12.9861 -23.3436
L12.8646 -23.7561
L12.7502 -24.1658
L12.6427 -24.5727
L12.5419 -24.9767
L12.4476 -25.3778
L12.3597 -25.7758
L12.278 -26.1708
L12.2024 -26.5628
L12.1327 -26.9517
L12.0686 -27.3375
L12.0102 -27.7202
L11.9571 -28.0998
L11.9093 -28.4764
L11.8667 -28.8499
L11.829 -29.2204
L11.7961 -29.5879
L11.768 -29.9525
L11.7445 -30.3141
L11.7254 -30.6728
L11.7107 -31.0287
L11.7003 -31.3818
L11.694 -31.7321
L11.6917 -32.0798
L11.6934 -32.4248
L11.6989 -32.7672
L11.7082 -33.1071
L11.7212 -33.4445
L11.7378 -33.7795
L11.7579 -34.1122
L11.7815 -34.4426
L11.8085 -34.7707
L11.8389 -35.0967
L11.8725 -35.4206
L11.9094 -35.7424
L11.9494 -36.0623
L11.9927 -36.3803
L12.039 -36.6964
L12.0884 -37.0107
L12.1408 -37.3234
L12.1963 -37.6343
L12.2547 -37.9437
L12.3161 -38.2515
L12.3804 -38.5579
L12.4477 -38.8628
L12.5179 -39.1664
L12.591 -39.4687
L12.667 -39.7698
L12.7459 -40.0697
L12.8277 -40.3685
L12.9125 -40.6662
L13.0001 -40.9629
L13.0907 -41.2587
L13.1842 -41.5536
L13.2807 -41.8477
L13.3802 -42.1409
L13.4826 -42.4335
L13.5881 -42.7253
L13.6967 -43.0165
L13.8083 -43.3071
L13.9231 -43.5972
L14.041 -43.8868
L14.1621 -44.1759
L14.2865 -44.4647
L14.4141 -44.753
L14.5451 -45.0411
L14.6795 -45.3288
L14.8173 -45.6163
L14.9586 -45.9036
L15.1035 -46.1907
L15.252 -46.4777
L15.4043 -46.7645
L15.5602 -47.0512
L15.72 -47.3378
L15.8838 -47.6244
L16.0515 -47.911
L16.2232 -48.1975
L16.3992 -48.4841
L16.5793 -48.7706
L16.7638 -49.0572
L16.9527 -49.3438
L17.1462 -49.6304
L17.3442 -49.917
L17.5469 -50.2037
L17.7545 -50.4903
L17.9669 -50.7769
L18.1843 -51.0635
L18.4069 -51.3501
L18.6347 -51.6365
L18.8678 -51.9228
L19.1064 -52.2089
L19.3504 -52.4949
L19.6002 -52.7805
L19.8557 -53.0659
L20.117 -53.3508
L20.3844 -53.6353
L20.6578 -53.9193
L20.9374 -54.2026
L21.2232 -54.4852
L21.5154 -54.7669
L21.814 -55.0478
L22.1192 -55.3276
L22.431 -55.6062
L22.7494 -55.8835
L23.0745 -56.1594
L23.4064 -56.4336
L23.7451 -56.7062
L24.0906 -56.9768
L24.4429 -57.2453
L24.8019 -57.5116
L25.1677 -57.7754
L25.5402 -58.0367
L25.9192 -58.2951
L26.3047 -58.5505
L26.6964 -58.8028
L27.0943 -59.0517
L27.4981 -59.297
L27.9075 -59.5386
L28.3221 -59.7763
L28.7416 -60.01
L29.1656 -60.2396
L29.5935 -60.4648
L30.0248 -60.6857
L30.4587 -60.9022
L30.8946 -61.1142
L31.3315 -61.3219
L31.7685 -61.5253
L32.2046 -61.7246
L32.6384 -61.92
L33.0688 -62.1118
L33.4941 -62.3004
L33.9127 -62.4863
L34.323 -62.6701
L34.723 -62.8525
L35.1107 -63.0343
L35.4841 -63.2162
L35.8412 -63.3993
L36.1797 -63.5844
L36.4979 -63.7724
L36.794 -63.9643
L37.0665 -64.1607
L36.822 -64.3622
L36.3247 -64.4881
L35.8273 -64.4981
L35.33 -64.4995
L34.8328 -64.4921
L34.336 -64.4761
L33.8397 -64.4514
L33.3441 -64.418
L32.8493 -64.376
L32.3554 -64.3253
L31.8626 -64.266
L31.3711 -64.1981
L30.8811 -64.1216
L30.3925 -64.0365
L29.9057 -63.9429
L29.4208 -63.8408
L28.9378 -63.7302
L28.457 -63.6111
L27.9785 -63.4837
L27.5024 -63.3479
L27.0289 -63.2037
L26.5582 -63.0513
L26.0903 -62.8906
L25.6255 -62.7217
L25.1638 -62.5447
L24.7054 -62.3596
L24.2505 -62.1664
L23.7991 -61.9653
L23.3514 -61.7563
L22.9077 -61.5395
L22.4678 -61.3148
L22.0322 -61.0825
L21.6007 -60.8425
L21.1737 -60.5949
L20.7511 -60.3399
L20.3333 -60.0774
L19.9201 -59.8076
L19.5119 -59.5306
L19.1087 -59.2464
L18.7107 -58.9551
L18.3179 -58.6568
L17.9305 -58.3516
L17.5486 -58.0396
L17.1723 -57.7209
L16.8018 -57.3955
L16.4371 -57.0637
L16.0784 -56.7254
L15.7257 -56.3809
L15.3792 -56.0301
L15.039 -55.6732
L14.7052 -55.3103
L14.3779 -54.9415
L14.0571 -54.567
L13.7431 -54.1868
L13.4358 -53.8011
L13.1354 -53.41
L12.8419 -53.0135
L12.5556 -52.6119
L12.2763 -52.2052
L12.0043 -51.7935
L11.7396 -51.3771
L11.4822 -50.956
L11.2324 -50.5303
L10.9901 -50.1002
L10.7554 -49.6658
L10.5284 -49.2272
L10.3091 -48.7846
L10.0977 -48.3381
L9.8942 -47.8879
L9.69862 -47.434
L9.51106 -46.9767
L9.33156 -46.516
L9.16019 -46.0521
L8.997 -45.5851
L8.84203 -45.1153
L8.69533 -44.6426
L8.55695 -44.1673
L8.42693 -43.6895
L8.3053 -43.2094
L8.19212 -42.7271
L8.0874 -42.2427
L7.99119 -41.7565
L7.90351 -41.2685
L7.82439 -40.7788
L7.75385 -40.2877
L7.69191 -39.7954
L7.6386 -39.3018
L7.59392 -38.8073
L7.5579 -38.3119
L7.53054 -37.8158
L7.51186 -37.3191
L7.50185 -36.822
L7.50052 -36.3247
L7.50788 -35.8273
L7.52391 -35.33
L7.54862 -34.8328
L7.58199 -34.336
L7.62402 -33.8397
L7.6747 -33.3441
L7.734 -32.8493
L7.80191 -32.3554
L7.87841 -31.8626
L7.96348 -31.3711
L8.05709 -30.8811
L8.15921 -30.3925
L8.26981 -29.9057
L8.38885 -29.4208
L8.51631 -28.9378
L8.65214 -28.457
L8.7963 -27.9785
L8.94875 -27.5024
L9.10943 -27.0289
L9.27831 -26.5582
L9.45533 -26.0903
L9.64043 -25.6255
L9.83356 -25.1638
L10.0347 -24.7054
L10.2437 -24.2505
L10.4605 -23.7991
L10.6852 -23.3514
L10.9175 -22.9077
L11.1575 -22.4678
L11.4051 -22.0322
L11.6601 -21.6007
L11.9226 -21.1737
L12.1924 -20.7511
L12.4694 -20.3333
L12.7536 -19.9201
L13.0449 -19.5119
L13.3432 -19.1087
L13.6484 -18.7107
L13.9604 -18.3179
L14.2791 -17.9305
L14.6045 -17.5486
L14.9363 -17.1723
L15.2746 -16.8018
L15.6191 -16.4371
L15.9699 -16.0784
L16.3268 -15.7257
z
" id="C0_2_a6653b5423"/>
    </defs>
    <g clip-path="url(#p1bffca34e9)">
     <use style="fill:#ff0000;stroke:#000000;stroke-width:2.0;" x="0.0" xlink:href="#C0_0_a811fe30f3" y="72.0"/>
    </g>
    <g clip-path="url(#p1bffca34e9)">
     <use style="fill:#ffffff;stroke:#000000;stroke-width:2.0;" x="0.0" xlink:href="#C0_1_5091921ad3" y="72.0"/>
    </g>
    <g clip-path="url(#p1bffca34e9)">
     <use style="fill:#ffffff;stroke:#000000;stroke-width:2.0;" x="0.0" xlink:href="#C0_2_a6653b5423" y="72.0"/>
    </g>
   </g>
  </g>
 </g>
 <defs>
  <clipPath id="p1bffca34e9">
   <rect height="72.0" width="72.0" x="0.0" y="0.0"/>
  </clipPath>
 </defs>
</svg>
