<?xml version="1.0" encoding="utf-8" standalone="no"?>
<!DOCTYPE svg PUBLIC "-//W3C//DTD SVG 1.1//EN"
  "http://www.w3.org/Graphics/SVG/1.1/DTD/svg11.dtd">
<!-- Created with matplotlib (http://matplotlib.org/) -->
<svg height="72pt" version="1.1" viewBox="0 0 72 72" width="72pt" xmlns="http://www.w3.org/2000/svg" xmlns:xlink="http://www.w3.org/1999/xlink">
 <defs>
  <style type="text/css">
*{stroke-linecap:butt;stroke-linejoin:round;}
  </style>
 </defs>
 <g id="figure_1">
  <g id="patch_1">
   <path d="
M0 72
L72 72
L72 0
L0 0
z
" style="fill:none;"/>
  </g>
  <g id="axes_1">
   <g id="PatchCollection_1">
    <defs>
     <path d="
M36 -7.5
C43.5583 -7.5 50.808 -10.5029 56.1525 -15.8475
C61.4971 -21.192 64.5 -28.4417 64.5 -36
C64.5 -43.5583 61.4971 -50.808 56.1525 -56.1525
C50.808 -61.4971 43.5583 -64.5 36 -64.5
C28.4417 -64.5 21.192 -61.4971 15.8475 -56.1525
C10.5029 -50.808 7.5 -43.5583 7.5 -36
C7.5 -28.4417 10.5029 -21.192 15.8475 -15.8475
C21.192 -10.5029 28.4417 -7.5 36 -7.5
z
" id="C0_0_a811fe30f3"/>
     <path d="
M64.1271 -39.1631
L63.8858 -39.2239
L63.6421 -39.2917
L63.3962 -39.3662
L63.1482 -39.4467
L62.8983 -39.5326
L62.6465 -39.6235
L62.393 -39.7188
L62.1378 -39.818
L61.8812 -39.9208
L61.6232 -40.0266
L61.364 -40.1352
L61.1036 -40.2462
L60.8421 -40.3591
L60.5796 -40.4738
L60.3163 -40.59
L60.0522 -40.7073
L59.7874 -40.8255
L59.522 -40.9444
L59.2561 -41.0638
L58.9898 -41.1834
L58.7231 -41.3033
L58.4561 -41.4231
L58.1888 -41.5427
L57.9214 -41.662
L57.6539 -41.7809
L57.3863 -41.8993
L57.1188 -42.017
L56.8512 -42.1341
L56.5838 -42.2504
L56.3165 -42.3658
L56.0493 -42.4804
L55.7823 -42.5939
L55.5156 -42.7065
L55.2491 -42.8181
L54.9829 -42.9286
L54.717 -43.0379
L54.4514 -43.1462
L54.1861 -43.2533
L53.9212 -43.3592
L53.6566 -43.464
L53.3924 -43.5676
L53.1285 -43.67
L52.8649 -43.7712
L52.6017 -43.8712
L52.3389 -43.9701
L52.0764 -44.0677
L51.8142 -44.1641
L51.5524 -44.2594
L51.2909 -44.3535
L51.0296 -44.4464
L50.7687 -44.5382
L50.508 -44.6288
L50.2476 -44.7183
L49.9874 -44.8067
L49.7274 -44.894
L49.4675 -44.9801
L49.2079 -45.0652
L48.9484 -45.1492
L48.689 -45.2322
L48.4296 -45.3141
L48.1704 -45.3949
L47.9111 -45.4748
L47.6519 -45.5537
L47.3926 -45.6315
L47.1332 -45.7084
L46.8738 -45.7843
L46.6142 -45.8593
L46.3545 -45.9333
L46.0945 -46.0065
L45.8343 -46.0787
L45.5739 -46.15
L45.3132 -46.2204
L45.0521 -46.29
L44.5287 -46.3587
L44.2664 -46.4265
L44.0036 -46.4935
L43.7403 -46.5597
L43.4764 -46.6251
L43.2119 -46.6896
L42.9468 -46.7534
L42.681 -46.8163
L42.4145 -46.8785
L42.1472 -46.9399
L41.8791 -47.0006
L41.6103 -47.0605
L41.3405 -47.1196
L41.0698 -47.1781
L40.7982 -47.2357
L40.5257 -47.2927
L40.2521 -47.3489
L39.9774 -47.4044
L39.7017 -47.4592
L39.4249 -47.5133
L39.1468 -47.5667
L38.8676 -47.6194
L38.5872 -47.6714
L38.3055 -47.7228
L38.0226 -47.7734
L37.7383 -47.8234
L37.4527 -47.8727
L37.1657 -47.9213
L36.8773 -47.9693
L36.5874 -48.0166
L36.2962 -48.0632
L36.0035 -48.1092
L35.7093 -48.1546
L35.4136 -48.1993
L35.1163 -48.2434
L34.8176 -48.2869
L34.5173 -48.3297
L34.2155 -48.372
L33.9122 -48.4136
L33.6074 -48.4547
L33.301 -48.4951
L32.9931 -48.5351
L32.6837 -48.5745
L32.3728 -48.6133
L32.0604 -48.6517
L31.7467 -48.6895
L31.4315 -48.727
L31.115 -48.764
L30.7972 -48.8006
L30.4782 -48.8368
L30.1579 -48.8727
L29.8365 -48.9084
L29.5141 -48.9439
L29.1908 -48.9791
L28.8666 -49.0143
L28.5416 -49.0495
L28.2159 -49.0847
L27.8898 -49.12
L27.5632 -49.1556
L27.2364 -49.1915
L26.9095 -49.2278
L26.5826 -49.2646
L26.256 -49.3022
L25.9298 -49.3406
L25.6042 -49.38
L25.2795 -49.4205
L24.9558 -49.4624
L24.6335 -49.5058
L24.3126 -49.5509
L23.9936 -49.598
L23.6767 -49.6473
L23.3622 -49.6991
L23.0503 -49.7536
L22.7414 -49.811
L22.4359 -49.8718
L22.134 -49.9361
L21.836 -50.0044
L21.5424 -50.0769
L21.2535 -50.1539
L20.9697 -50.2358
L20.6912 -50.323
L20.4186 -50.4157
L20.1521 -50.5144
L19.8921 -50.6192
L19.6389 -50.7306
L19.393 -50.8488
L19.1546 -50.9741
L18.9242 -51.1068
L18.7019 -51.2471
L18.4881 -51.3951
L18.2832 -51.551
L18.0872 -51.715
L17.9006 -51.8872
L17.7235 -52.0675
L17.5562 -52.2559
L17.3987 -52.4525
L17.2513 -52.6572
L17.1141 -52.8698
L16.9873 -53.0901
L16.8708 -53.318
L16.7648 -53.5533
L16.6694 -53.7956
L16.5845 -54.0448
L16.5103 -54.3004
L16.4466 -54.5623
L16.3936 -54.83
L16.3511 -55.1032
L16.3192 -55.3816
L16.2977 -55.6647
L16.2867 -55.9523
L16.2862 -56.2439
L16.6266 -56.5392
L16.9944 -56.9027
L17.3679 -57.2376
L17.7472 -57.5661
L18.1319 -57.888
L18.5222 -58.2032
L18.9177 -58.5117
L19.3185 -58.8133
L19.7243 -59.1079
L20.1351 -59.3955
L20.5507 -59.676
L20.971 -59.9493
L21.3959 -60.2153
L21.8253 -60.4739
L22.2589 -60.725
L22.6968 -60.9686
L23.1387 -61.2047
L23.5845 -61.433
L24.0341 -61.6536
L24.4874 -61.8664
L24.9442 -62.0712
L25.4043 -62.2682
L25.8676 -62.4571
L26.3341 -62.638
L26.8035 -62.8108
L27.2756 -62.9754
L27.7505 -63.1318
L28.2278 -63.2799
L28.7076 -63.4198
L29.1895 -63.5512
L29.6735 -63.6743
L30.1595 -63.789
L30.6472 -63.8951
L31.1366 -63.9928
L31.6274 -64.082
L32.1196 -64.1626
L32.6129 -64.2346
L33.1073 -64.298
L33.6026 -64.3528
L34.0986 -64.399
L34.5952 -64.4365
L35.0922 -64.4654
L35.5894 -64.4855
L36.0868 -64.497
L36.5842 -64.4999
L37.0814 -64.494
L37.5783 -64.4795
L38.0747 -64.4563
L38.5704 -64.4244
L39.0654 -64.3838
L39.5595 -64.3347
L40.0524 -64.2769
L40.5441 -64.2104
L41.0345 -64.1354
L41.5233 -64.0518
L42.0104 -63.9597
L42.4957 -63.859
L42.979 -63.7499
L43.4602 -63.6323
L43.9391 -63.5063
L44.4156 -63.3719
L44.8895 -63.2292
L45.3608 -63.0781
L45.8291 -62.9189
L46.2945 -62.7514
L46.7568 -62.5758
L47.2157 -62.3921
L47.6713 -62.2003
L48.1233 -62.0006
L48.5716 -61.793
L49.016 -61.5774
L49.4566 -61.3541
L49.893 -61.1231
L50.3251 -60.8844
L50.753 -60.6382
L51.1763 -60.3844
L51.595 -60.1232
L52.0089 -59.8547
L52.418 -59.5789
L52.8221 -59.2959
L53.221 -59.0058
L53.6147 -58.7087
L54.003 -58.4047
L54.3859 -58.0939
L54.7631 -57.7763
L55.1347 -57.4522
L55.5004 -57.1214
L55.8601 -56.7843
L56.2139 -56.4408
L56.5614 -56.091
L56.9027 -55.7352
L57.2376 -55.3734
L57.5661 -55.0056
L57.888 -54.6321
L58.2032 -54.2528
L58.5117 -53.8681
L58.8133 -53.4778
L59.1079 -53.0823
L59.3955 -52.6815
L59.676 -52.2757
L59.9493 -51.8649
L60.2153 -51.4493
L60.4739 -51.029
L60.725 -50.6041
L60.9686 -50.1747
L61.2047 -49.7411
L61.433 -49.3032
L61.6536 -48.8613
L61.8664 -48.4155
L62.0712 -47.9659
L62.2682 -47.5126
L62.4571 -47.0558
L62.638 -46.5957
L62.8108 -46.1324
L62.9754 -45.6659
L63.1318 -45.1965
L63.2799 -44.7244
L63.4198 -44.2495
L63.5512 -43.7722
L63.6743 -43.2924
L63.789 -42.8105
L63.8951 -42.3265
L63.9928 -41.8405
L64.082 -41.3528
L64.1626 -40.8634
L64.2346 -40.3726
z
" id="C0_1_82c87b6ae9"/>
     <path d="
M55.4578 -15.4227
L55.1559 -15.4279
L54.8511 -15.4323
L54.5437 -15.4364
L54.2341 -15.4402
L53.9226 -15.4442
L53.6094 -15.4484
L53.2948 -15.4532
L52.979 -15.4587
L52.6623 -15.4651
L52.3449 -15.4725
L52.027 -15.4811
L51.7088 -15.491
L51.3904 -15.5022
L51.0721 -15.5149
L50.754 -15.5292
L50.4361 -15.5451
L50.1188 -15.5626
L49.802 -15.5819
L49.4858 -15.6028
L49.1705 -15.6256
L48.856 -15.6502
L48.5425 -15.6765
L48.23 -15.7047
L47.9186 -15.7347
L47.6083 -15.7666
L47.2992 -15.8002
L46.9913 -15.8357
L46.6847 -15.873
L46.3794 -15.9121
L46.0755 -15.953
L45.7729 -15.9956
L45.4716 -16.04
L45.1717 -16.0862
L44.8733 -16.1341
L44.5762 -16.1837
L44.2805 -16.2349
L43.9862 -16.2879
L43.6932 -16.3425
L43.4017 -16.3987
L43.1115 -16.4566
L42.8226 -16.5161
L42.5351 -16.5771
L42.2488 -16.6397
L41.9639 -16.7039
L41.6802 -16.7696
L41.3978 -16.8369
L41.1165 -16.9056
L40.8365 -16.9759
L40.5576 -17.0476
L40.2798 -17.1209
L40.0031 -17.1956
L39.7275 -17.2717
L39.4529 -17.3494
L39.1793 -17.4285
L38.9067 -17.509
L38.635 -17.591
L38.3641 -17.6744
L38.0942 -17.7593
L37.825 -17.8456
L37.5566 -17.9334
L37.289 -18.0226
L37.0221 -18.1132
L36.7558 -18.2053
L36.4902 -18.2989
L36.2251 -18.3939
L35.9606 -18.4904
L35.6966 -18.5884
L35.4332 -18.6878
L35.1701 -18.7888
L34.9074 -18.8913
L34.6452 -18.9952
L34.3832 -19.1007
L34.1215 -19.2078
L33.8601 -19.3164
L33.5989 -19.4266
L33.3379 -19.5384
L33.0771 -19.6517
L32.8163 -19.7667
L32.5556 -19.8834
L32.295 -20.0017
L32.0344 -20.1217
L31.7738 -20.2434
L31.5131 -20.3668
L31.2523 -20.4919
L30.9914 -20.6188
L30.7303 -20.7475
L30.4691 -20.878
L30.2077 -21.0104
L29.946 -21.1446
L29.6841 -21.2806
L29.4219 -21.4186
L29.1594 -21.5585
L28.8965 -21.7003
L28.6333 -21.8441
L28.3697 -21.9899
L28.1057 -22.1377
L27.8413 -22.2875
L27.5765 -22.4394
L27.3112 -22.5933
L27.0455 -22.7494
L26.7792 -22.9075
L26.5125 -23.0677
L26.2453 -23.2301
L25.9776 -23.3947
L25.7094 -23.5613
L25.4407 -23.7302
L25.1715 -23.9012
L24.9017 -24.0744
L24.6315 -24.2497
L24.3607 -24.4272
L24.0895 -24.6068
L23.8178 -24.7886
L23.5456 -24.9725
L23.2729 -25.1585
L22.9998 -25.3465
L22.7263 -25.5366
L22.4524 -25.7286
L22.1781 -25.9226
L21.9034 -26.1184
L21.6285 -26.3161
L21.3532 -26.5154
L21.0777 -26.7164
L20.802 -26.9189
L20.5261 -27.1229
L20.2501 -27.3282
L19.9739 -27.5346
L19.6978 -27.7421
L19.4216 -27.9504
L19.1454 -28.1595
L18.8693 -28.369
L18.5933 -28.5788
L18.3176 -28.7887
L18.042 -28.9984
L17.7667 -29.2076
L17.4917 -29.4161
L17.2171 -29.6236
L16.9429 -29.8297
L16.6692 -30.0341
L16.3959 -30.2364
L16.1232 -30.4363
L15.851 -30.6334
L15.5794 -30.8271
L15.3085 -31.0172
L15.0383 -31.2031
L14.7687 -31.3844
L14.4999 -31.5606
L14.2318 -31.7312
L13.9645 -31.8957
L13.698 -32.0536
L13.4323 -32.2044
L13.1675 -32.3477
L12.9036 -32.4829
L12.6406 -32.6096
L12.3786 -32.7273
L12.1176 -32.8357
L11.8577 -32.9342
L11.599 -33.0225
L11.3414 -33.1003
L11.0852 -33.1673
L10.8303 -33.2232
L10.577 -33.2679
L10.3253 -33.301
L10.0753 -33.3226
L9.82716 -33.3324
L9.58108 -33.3304
L9.33718 -33.3167
L9.09563 -33.2913
L8.85659 -33.2542
L8.62026 -33.2055
L8.3868 -33.1453
L8.1564 -33.0738
L7.92926 -32.9912
L7.72832 -32.8976
L7.79546 -32.3997
L7.87119 -31.9069
L7.95549 -31.4153
L8.04833 -30.925
L8.14968 -30.4364
L8.25952 -29.9494
L8.37781 -29.4643
L8.50452 -28.9811
L8.63959 -28.5001
L8.78301 -28.0214
L8.93471 -27.5451
L9.09466 -27.0714
L9.2628 -26.6004
L9.43909 -26.1323
L9.62347 -25.6671
L9.81588 -25.2052
L10.0163 -24.7465
L10.2246 -24.2912
L10.4407 -23.8395
L10.6647 -23.3915
L10.8963 -22.9474
L11.1356 -22.5072
L11.3825 -22.0711
L11.6369 -21.6393
L11.8987 -21.2119
L12.1678 -20.7889
L12.4442 -20.3706
L12.7278 -19.9571
L13.0185 -19.5484
L13.3161 -19.1448
L13.6207 -18.7462
L13.9321 -18.353
L14.2502 -17.9651
L14.575 -17.5827
L14.9062 -17.2059
L15.2439 -16.8349
L15.5879 -16.4696
L15.9382 -16.1104
L16.2945 -15.7572
L16.6568 -15.4101
L17.0251 -15.0693
L17.3991 -14.735
L17.7788 -14.407
L18.164 -14.0857
L18.5547 -13.771
L18.9507 -13.4631
L19.3518 -13.1621
L19.7581 -12.868
L20.1693 -12.581
L20.5853 -12.3011
L21.006 -12.0284
L21.4313 -11.7631
L21.861 -11.5051
L22.295 -11.2545
L22.7332 -11.0115
L23.1754 -10.7762
L23.6216 -10.5485
L24.0715 -10.3285
L24.525 -10.1164
L24.9821 -9.91216
L25.4425 -9.71587
L25.9061 -9.52758
L26.3728 -9.34736
L26.8424 -9.17526
L27.3148 -9.01133
L27.7899 -8.85561
L28.2674 -8.70817
L28.7474 -8.56904
L29.2295 -8.43827
L29.7137 -8.31589
L30.1998 -8.20194
L30.6876 -8.09647
L31.1771 -7.99949
L31.6681 -7.91104
L32.1603 -7.83115
L32.6538 -7.75983
L33.1482 -7.69712
L33.6436 -7.64303
L34.1396 -7.59758
L34.6362 -7.56078
L35.1333 -7.53265
L35.6306 -7.51318
L36.128 -7.50239
L36.6253 -7.50029
L37.1225 -7.50686
L37.6194 -7.52212
L38.1157 -7.54604
L38.6114 -7.57864
L39.1063 -7.61989
L39.6003 -7.66979
L40.0931 -7.72832
L40.5847 -7.79546
L41.075 -7.87119
L41.5636 -7.95549
L42.0506 -8.04833
L42.5357 -8.14968
L43.0189 -8.25952
L43.4999 -8.37781
L43.9786 -8.50452
L44.4549 -8.63959
L44.9286 -8.78301
L45.3996 -8.93471
L45.8677 -9.09466
L46.3329 -9.2628
L46.7948 -9.43909
L47.2535 -9.62347
L47.7088 -9.81588
L48.1605 -10.0163
L48.6085 -10.2246
L49.0526 -10.4407
L49.4928 -10.6647
L49.9289 -10.8963
L50.3607 -11.1356
L50.7881 -11.3825
L51.2111 -11.6369
L51.6294 -11.8987
L52.0429 -12.1678
L52.4516 -12.4442
L52.8552 -12.7278
L53.2538 -13.0185
L53.647 -13.3161
L54.0349 -13.6207
L54.4173 -13.9321
L54.7941 -14.2502
L55.1651 -14.575
z
" id="C0_2_defc17a0e9"/>
    </defs>
    <g clip-path="url(#p1bffca34e9)">
     <use style="fill:#ff0000;stroke:#000000;stroke-width:2.0;" x="0.0" xlink:href="#C0_0_a811fe30f3" y="72.0"/>
    </g>
    <g clip-path="url(#p1bffca34e9)">
     <use style="fill:#ffffff;stroke:#000000;stroke-width:2.0;" x="0.0" xlink:href="#C0_1_82c87b6ae9" y="72.0"/>
    </g>
    <g clip-path="url(#p1bffca34e9)">
     <use style="fill:#ffffff;stroke:#000000;stroke-width:2.0;" x="0.0" xlink:href="#C0_2_defc17a0e9" y="72.0"/>
    </g>
   </g>
  </g>
 </g>
 <defs>
  <clipPath id="p1bffca34e9">
   <rect height="72.0" width="72.0" x="0.0" y="0.0"/>
  </clipPath>
 </defs>
</svg>
