<?xml version="1.0" encoding="utf-8" standalone="no"?>
<!DOCTYPE svg PUBLIC "-//W3C//DTD SVG 1.1//EN"
  "http://www.w3.org/Graphics/SVG/1.1/DTD/svg11.dtd">
<!-- Created with matplotlib (http://matplotlib.org/) -->
<svg height="72pt" version="1.1" viewBox="0 0 72 72" width="72pt" xmlns="http://www.w3.org/2000/svg" xmlns:xlink="http://www.w3.org/1999/xlink">
 <defs>
  <style type="text/css">
*{stroke-linecap:butt;stroke-linejoin:round;}
  </style>
 </defs>
 <g id="figure_1">
  <g id="patch_1">
   <path d="
M0 72
L72 72
L72 0
L0 0
z
" style="fill:none;"/>
  </g>
  <g id="axes_1">
   <g id="PatchCollection_1">
    <defs>
     <path d="
M36 -7.5
C43.5583 -7.5 50.808 -10.5029 56.1525 -15.8475
C61.4971 -21.192 64.5 -28.4417 64.5 -36
C64.5 -43.5583 61.4971 -50.808 56.1525 -56.1525
C50.808 -61.4971 43.5583 -64.5 36 -64.5
C28.4417 -64.5 21.192 -61.4971 15.8475 -56.1525
C10.5029 -50.808 7.5 -43.5583 7.5 -36
C7.5 -28.4417 10.5029 -21.192 15.8475 -15.8475
C21.192 -10.5029 28.4417 -7.5 36 -7.5
z
" id="C0_0_a811fe30f3"/>
     <path d="
M33.0163 -7.72357
L33.0438 -7.90722
L33.0718 -8.09142
L33.1002 -8.27622
L33.1291 -8.46163
L33.1584 -8.64768
L33.1882 -8.83441
L33.2184 -9.02185
L33.249 -9.21002
L33.28 -9.39897
L33.3114 -9.58873
L33.3432 -9.77932
L33.3755 -9.9708
L33.4412 -10.1632
L33.4747 -10.3565
L33.5086 -10.5509
L33.5429 -10.7462
L33.5777 -10.9427
L33.6128 -11.1402
L33.6484 -11.339
L33.6844 -11.5389
L33.7209 -11.74
L33.7578 -11.9425
L33.7952 -12.1462
L33.833 -12.3514
L33.8713 -12.558
L33.9101 -12.766
L33.9494 -12.9756
L33.9891 -13.1868
L34.0294 -13.3995
L34.0702 -13.614
L34.1116 -13.8301
L34.1535 -14.0481
L34.196 -14.2679
L34.239 -14.4895
L34.2826 -14.7131
L34.3268 -14.9387
L34.3717 -15.1663
L34.4172 -15.396
L34.4633 -15.6279
L34.5102 -15.8619
L34.5577 -16.0982
L34.6059 -16.3369
L34.6549 -16.5779
L34.7046 -16.8213
L34.7551 -17.0672
L34.8064 -17.3156
L34.8586 -17.5666
L34.9116 -17.8202
L34.9654 -18.0765
L35.0202 -18.3355
L35.0759 -18.5973
L35.1326 -18.8619
L35.1902 -19.1294
L35.2489 -19.3997
L35.3087 -19.673
L35.3696 -19.9493
L35.4316 -20.2286
L35.4948 -20.5109
L35.5592 -20.7962
L35.6249 -21.0846
L35.6918 -21.3761
L35.7602 -21.6707
L35.83 -21.9683
L35.9012 -22.269
L35.974 -22.5728
L36.0483 -22.8796
L36.1243 -23.1894
L36.2021 -23.5021
L36.2816 -23.8177
L36.3631 -24.1361
L36.4465 -24.4573
L36.5319 -24.7811
L36.6196 -25.1075
L36.7095 -25.4362
L36.8018 -25.7672
L36.8966 -26.1003
L36.9941 -26.4352
L37.0944 -26.7719
L37.1976 -27.11
L37.3039 -27.4493
L37.4136 -27.7894
L37.5268 -28.1302
L37.6437 -28.4712
L37.7646 -28.8121
L37.8897 -29.1525
L38.0192 -29.4918
L38.1536 -29.8297
L38.293 -30.1657
L38.4378 -30.4991
L38.5883 -30.8294
L38.7449 -31.1561
L38.9079 -31.4784
L39.0777 -31.7957
L39.2547 -32.1073
L39.4392 -32.4126
L39.6315 -32.7108
L39.8321 -33.0013
L40.0411 -33.2833
L40.2588 -33.5563
L40.4855 -33.8197
L40.7212 -34.0729
L40.9659 -34.3154
L41.2197 -34.5469
L41.4825 -34.767
L41.7541 -34.9756
L42.0341 -35.1725
L42.3224 -35.3578
L42.6184 -35.5314
L42.9217 -35.6936
L43.2317 -35.8446
L43.548 -35.9846
L43.87 -36.1142
L44.1969 -36.2336
L44.5283 -36.3433
L44.8636 -36.4437
L45.2021 -36.5354
L45.5433 -36.6187
L45.8866 -36.6941
L46.2315 -36.7621
L46.5774 -36.8231
L46.9241 -36.8776
L47.2709 -36.9258
L47.6175 -36.9683
L47.9634 -37.0053
L48.3084 -37.0372
L48.6522 -37.0643
L48.9944 -37.0869
L49.3347 -37.1053
L49.673 -37.1198
L50.0089 -37.1305
L50.3424 -37.1377
L50.6733 -37.1416
L51.0013 -37.1425
L51.3263 -37.1404
L51.6483 -37.1355
L51.9672 -37.1281
L52.2828 -37.1182
L52.5951 -37.106
L52.904 -37.0915
L53.2095 -37.0751
L53.5115 -37.0566
L53.8101 -37.0363
L54.1051 -37.0142
L54.3967 -36.9904
L54.6847 -36.965
L54.9693 -36.938
L55.2503 -36.9096
L55.528 -36.8798
L55.8021 -36.8486
L56.0729 -36.8162
L56.3403 -36.7825
L56.6043 -36.7476
L56.8651 -36.7116
L57.1226 -36.6744
L57.3769 -36.6362
L57.628 -36.5969
L57.876 -36.5567
L58.1209 -36.5154
L58.3629 -36.4732
L58.6019 -36.4301
L58.8379 -36.386
L59.0712 -36.341
L59.3016 -36.2952
L59.5293 -36.2485
L59.7543 -36.2009
L59.9767 -36.1525
L60.1965 -36.1032
L60.4138 -36.0531
L60.6286 -36.0022
L60.8411 -35.9504
L61.0511 -35.8978
L61.2589 -35.8444
L61.4644 -35.7901
L61.6678 -35.735
L61.869 -35.679
L62.068 -35.6222
L62.2651 -35.5645
L62.4601 -35.506
L62.6532 -35.4465
L62.8443 -35.3862
L63.0336 -35.3249
L63.2211 -35.2628
L63.4068 -35.1996
L63.5908 -35.1355
L63.7731 -35.0704
L63.9537 -35.0043
L64.1326 -34.9371
L64.31 -34.8689
L64.449 -34.7996
L64.4149 -34.2959
L64.3722 -33.7996
L64.3208 -33.304
L64.2608 -32.8093
L64.1922 -32.3155
L64.115 -31.8228
L64.0293 -31.3315
L63.935 -30.8415
L63.8322 -30.3531
L63.7209 -29.8664
L63.6012 -29.3816
L63.473 -28.8988
L63.3365 -28.4182
L63.1917 -27.9399
L63.0386 -27.464
L62.8772 -26.9908
L62.7077 -26.5203
L62.53 -26.0526
L62.3442 -25.588
L62.1505 -25.1266
L61.9487 -24.6685
L61.7391 -24.2138
L61.5216 -23.7628
L61.2963 -23.3154
L61.0634 -22.8719
L60.8227 -22.4324
L60.5746 -21.9971
L60.3189 -21.566
L60.0559 -21.1393
L59.7855 -20.7172
L59.5079 -20.2997
L59.2231 -19.8869
L58.9312 -19.4791
L58.6323 -19.0763
L58.3266 -18.6787
L58.0141 -18.2864
L57.6948 -17.8994
L57.3689 -17.518
L57.0366 -17.1422
L56.6978 -16.7721
L56.3527 -16.4079
L56.0014 -16.0496
L55.6441 -15.6975
L55.2807 -15.3515
L54.9115 -15.0118
L54.5365 -14.6785
L54.1558 -14.3517
L53.7697 -14.0315
L53.3781 -13.718
L52.9812 -13.4112
L52.5792 -13.1114
L52.1721 -12.8185
L51.76 -12.5327
L51.3432 -12.254
L50.9217 -11.9826
L50.4957 -11.7185
L50.0652 -11.4618
L49.6305 -11.2125
L49.1916 -10.9708
L48.7487 -10.7367
L48.3019 -10.5104
L47.8513 -10.2918
L47.3972 -10.081
L46.9395 -9.87808
L46.4786 -9.68315
L46.0144 -9.49624
L45.5472 -9.3174
L45.0771 -9.14669
L44.6043 -8.98416
L44.1288 -8.82985
L43.6508 -8.68383
L43.1705 -8.54612
L42.688 -8.41678
L42.2035 -8.29584
L41.7171 -8.18333
L41.2289 -8.07931
L40.7392 -7.98378
L40.248 -7.89679
L39.7555 -7.81836
L39.2619 -7.74852
L38.7672 -7.68728
L38.2718 -7.63466
L37.7756 -7.59069
L37.2789 -7.55537
L36.7818 -7.52871
L36.2845 -7.51073
L35.7871 -7.50142
L35.2897 -7.5008
L34.7926 -7.50885
L34.2959 -7.52559
L33.7996 -7.551
z
" id="C0_1_6f5207631e"/>
     <path d="
M7.54252 -37.2696
L7.72391 -37.3245
L7.90635 -37.379
L8.08988 -37.4331
L8.27453 -37.4869
L8.46034 -37.5403
L8.64735 -37.5934
L8.83558 -37.6462
L9.02509 -37.6987
L9.21591 -37.751
L9.40808 -37.803
L9.60164 -37.8547
L9.79664 -37.9062
L9.99312 -37.9575
L10.1911 -38.0086
L10.3907 -38.0595
L10.5919 -38.1102
L10.7948 -38.1607
L10.9994 -38.2111
L11.2057 -38.2614
L11.4139 -38.3115
L11.6239 -38.3616
L11.8358 -38.4115
L12.0497 -38.4613
L12.2657 -38.5111
L12.4837 -38.5608
L12.7038 -38.6105
L12.9262 -38.6601
L13.1508 -38.7098
L13.3776 -38.7594
L13.6069 -38.809
L13.8385 -38.8586
L14.0727 -38.9083
L14.3093 -38.958
L14.5485 -39.0078
L14.7904 -39.0577
L15.035 -39.1077
L15.2823 -39.1577
L15.5324 -39.2079
L15.7854 -39.2583
L16.0413 -39.3087
L16.3002 -39.3594
L16.5621 -39.4103
L16.8271 -39.4613
L17.0951 -39.5127
L17.3664 -39.5642
L17.6408 -39.6161
L17.9184 -39.6682
L18.1994 -39.7207
L18.4836 -39.7735
L18.7712 -39.8267
L19.0621 -39.8804
L19.3564 -39.9345
L19.6541 -39.9891
L19.9551 -40.0442
L20.2595 -40.0999
L20.5673 -40.1562
L20.8785 -40.2132
L21.1929 -40.2709
L21.5107 -40.3294
L21.8316 -40.3888
L22.1558 -40.4492
L22.483 -40.5105
L22.8132 -40.573
L23.1463 -40.6367
L23.4821 -40.7017
L23.8206 -40.7681
L24.1615 -40.8361
L24.5048 -40.9059
L24.8501 -40.9775
L25.1973 -41.0511
L25.5461 -41.127
L25.8962 -41.2054
L26.2473 -41.2864
L26.5992 -41.3703
L26.9514 -41.4575
L27.3035 -41.5481
L27.6552 -41.6425
L28.006 -41.7411
L28.3553 -41.8442
L28.7028 -41.9521
L29.0478 -42.0654
L29.3898 -42.1844
L29.7282 -42.3096
L30.0624 -42.4414
L30.3918 -42.5803
L30.7158 -42.7268
L31.0337 -42.8812
L31.345 -43.0441
L31.6491 -43.2157
L31.9455 -43.3965
L32.2337 -43.5867
L32.5132 -43.7865
L32.7837 -43.996
L33.045 -44.2154
L33.2969 -44.4445
L33.5391 -44.6832
L33.7718 -44.9313
L33.9949 -45.1884
L34.2085 -45.4542
L34.4129 -45.7282
L34.6083 -46.0098
L34.7949 -46.2985
L34.9731 -46.5937
L35.1433 -46.8947
L35.3057 -47.201
L35.4608 -47.5118
L35.609 -47.8266
L35.7505 -48.1447
L35.8857 -48.4655
L36.0151 -48.7886
L36.1388 -49.1133
L36.2573 -49.4391
L36.3708 -49.7656
L36.4796 -50.0924
L36.584 -50.4189
L36.6842 -50.745
L36.7804 -51.0701
L36.8729 -51.3941
L36.9618 -51.7165
L37.0474 -52.0372
L37.1297 -52.356
L37.209 -52.6725
L37.2854 -52.9867
L37.3591 -53.2983
L37.4301 -53.6073
L37.4986 -53.9134
L37.5647 -54.2166
L37.6285 -54.5169
L37.6901 -54.814
L37.7496 -55.108
L37.8071 -55.3988
L37.8626 -55.6863
L37.9163 -55.9706
L37.9682 -56.2516
L38.0183 -56.5293
L38.0668 -56.8036
L38.1136 -57.0747
L38.1589 -57.3425
L38.2027 -57.607
L38.245 -57.8682
L38.2859 -58.1263
L38.3255 -58.3811
L38.3637 -58.6327
L38.4007 -58.8813
L38.4364 -59.1267
L38.4708 -59.3691
L38.5041 -59.6085
L38.5363 -59.845
L38.5673 -60.0786
L38.5973 -60.3093
L38.6262 -60.5372
L38.654 -60.7624
L38.6809 -60.9849
L38.7067 -61.2048
L38.7316 -61.422
L38.7555 -61.6368
L38.7784 -61.8491
L38.8005 -62.059
L38.8216 -62.2665
L38.8419 -62.4717
L38.8613 -62.6747
L38.8798 -62.8754
L38.8974 -63.074
L38.9143 -63.2706
L38.9302 -63.4651
L38.9454 -63.6576
L38.9597 -63.8481
L38.9732 -64.0368
L38.5033 -64.2237
L38.0074 -64.3899
L37.5109 -64.4292
L37.014 -64.4599
L36.5168 -64.482
L36.0194 -64.4953
L35.522 -64.5
L35.0247 -64.496
L34.5278 -64.4833
L34.0313 -64.462
L33.5354 -64.4319
L33.0402 -64.3932
L32.546 -64.3459
L32.0528 -64.2899
L31.5608 -64.2253
L31.0701 -64.1521
L30.581 -64.0704
L30.0935 -63.9801
L29.6078 -63.8812
L29.124 -63.7739
L28.6424 -63.6581
L28.163 -63.5339
L27.686 -63.4013
L27.2115 -63.2603
L26.7396 -63.1111
L26.2707 -62.9536
L25.8046 -62.7879
L25.3417 -62.614
L24.882 -62.432
L24.4257 -62.242
L23.973 -62.0439
L23.5239 -61.838
L23.0786 -61.6241
L22.6372 -61.4025
L22.1999 -61.1731
L21.7668 -60.9361
L21.338 -60.6914
L20.9137 -60.4393
L20.4941 -60.1796
L20.0791 -59.9127
L19.669 -59.6384
L19.2638 -59.357
L18.8638 -59.0684
L18.4689 -58.7728
L18.0794 -58.4702
L17.6954 -58.1609
L17.317 -57.8447
L16.9442 -57.5219
L16.5772 -57.1926
L16.2162 -56.8568
L15.8612 -56.5147
L15.5123 -56.1663
L15.1696 -55.8117
L14.8334 -55.4511
L14.5035 -55.0846
L14.1802 -54.7123
L13.8635 -54.3343
L13.5536 -53.9507
L13.2506 -53.5616
L12.9544 -53.1672
L12.6653 -52.7676
L12.3833 -52.3628
L12.1085 -51.9531
L11.8409 -51.5385
L11.5807 -51.1191
L11.328 -50.6952
L11.0827 -50.2668
L10.8451 -49.834
L10.6151 -49.3971
L10.3929 -48.956
L10.1784 -48.511
L9.97185 -48.0622
L9.77319 -47.6097
L9.58253 -47.1537
L9.39991 -46.6943
L9.2254 -46.2316
L9.05904 -45.7658
L8.90089 -45.297
L8.75099 -44.8254
L8.60939 -44.3511
L8.47614 -43.8743
L8.35127 -43.3951
L8.23482 -42.9136
L8.12683 -42.43
L8.02733 -41.9445
L7.93635 -41.4571
L7.85392 -40.9681
L7.78007 -40.4775
L7.7148 -39.9856
L7.65816 -39.4925
L7.61015 -38.9983
L7.57078 -38.5033
z
" id="C0_2_55c93ac520"/>
    </defs>
    <g clip-path="url(#p1bffca34e9)">
     <use style="fill:#ffffff;stroke:#000000;stroke-width:2.0;" x="0.0" xlink:href="#C0_0_a811fe30f3" y="72.0"/>
    </g>
    <g clip-path="url(#p1bffca34e9)">
     <use style="fill:#ff0000;stroke:#000000;stroke-width:2.0;" x="0.0" xlink:href="#C0_1_6f5207631e" y="72.0"/>
    </g>
    <g clip-path="url(#p1bffca34e9)">
     <use style="fill:#ff0000;stroke:#000000;stroke-width:2.0;" x="0.0" xlink:href="#C0_2_55c93ac520" y="72.0"/>
    </g>
   </g>
  </g>
 </g>
 <defs>
  <clipPath id="p1bffca34e9">
   <rect height="72.0" width="72.0" x="0.0" y="0.0"/>
  </clipPath>
 </defs>
</svg>
