<?xml version="1.0" encoding="utf-8" standalone="no"?>
<!DOCTYPE svg PUBLIC "-//W3C//DTD SVG 1.1//EN"
  "http://www.w3.org/Graphics/SVG/1.1/DTD/svg11.dtd">
<!-- Created with matplotlib (http://matplotlib.org/) -->
<svg height="72pt" version="1.1" viewBox="0 0 72 72" width="72pt" xmlns="http://www.w3.org/2000/svg" xmlns:xlink="http://www.w3.org/1999/xlink">
 <defs>
  <style type="text/css">
*{stroke-linecap:butt;stroke-linejoin:round;}
  </style>
 </defs>
 <g id="figure_1">
  <g id="patch_1">
   <path d="
M0 72
L72 72
L72 0
L0 0
z
" style="fill:none;"/>
  </g>
  <g id="axes_1">
   <g id="PatchCollection_1">
    <defs>
     <path d="
M36 -7.5
C43.5583 -7.5 50.808 -10.5029 56.1525 -15.8475
C61.4971 -21.192 64.5 -28.4417 64.5 -36
C64.5 -43.5583 61.4971 -50.808 56.1525 -56.1525
C50.808 -61.4971 43.5583 -64.5 36 -64.5
C28.4417 -64.5 21.192 -61.4971 15.8475 -56.1525
C10.5029 -50.808 7.5 -43.5583 7.5 -36
C7.5 -28.4417 10.5029 -21.192 15.8475 -15.8475
C21.192 -10.5029 28.4417 -7.5 36 -7.5
z
" id="C0_0_a811fe30f3"/>
     <path d="
M38.3826 -7.70516
L38.335 -7.88184
L38.3114 -8.05958
L38.2878 -8.23842
L38.2644 -8.41839
L38.2411 -8.59956
L38.2178 -8.78196
L38.1946 -8.96564
L38.1714 -9.15066
L38.1483 -9.33707
L38.1253 -9.52491
L38.1023 -9.71425
L38.0793 -9.90514
L38.0563 -10.0976
L38.0334 -10.2918
L38.0104 -10.4877
L37.9875 -10.6853
L37.9646 -10.8848
L37.9416 -11.0863
L37.9186 -11.2897
L37.8956 -11.4951
L37.8726 -11.7026
L37.8495 -11.9124
L37.8264 -12.1244
L37.8032 -12.3387
L37.78 -12.5554
L37.7567 -12.7745
L37.7334 -12.9962
L37.71 -13.2206
L37.6865 -13.4476
L37.663 -13.6775
L37.6393 -13.9102
L37.6156 -14.1458
L37.5918 -14.3845
L37.5679 -14.6263
L37.5439 -14.8713
L37.5198 -15.1196
L37.4957 -15.3713
L37.4714 -15.6265
L37.447 -15.8852
L37.4225 -16.1475
L37.398 -16.4136
L37.3733 -16.6836
L37.3486 -16.9574
L37.3237 -17.2353
L37.2988 -17.5172
L37.2738 -17.8033
L37.2488 -18.0937
L37.2236 -18.3885
L37.1985 -18.6876
L37.1733 -18.9913
L37.148 -19.2995
L37.1228 -19.6124
L37.0975 -19.9301
L37.0723 -20.2525
L37.0472 -20.5797
L37.0221 -20.9118
L36.9972 -21.2489
L36.9724 -21.5909
L36.9478 -21.9379
L36.9234 -22.2899
L36.8994 -22.6468
L36.8757 -23.0088
L36.8524 -23.3757
L36.8296 -23.7476
L36.8074 -24.1243
L36.7859 -24.5058
L36.7652 -24.8919
L36.7454 -25.2827
L36.7268 -25.6778
L36.7094 -26.0772
L36.6935 -26.4805
L36.6793 -26.8876
L36.6672 -27.2982
L36.6573 -27.7119
L36.6502 -28.1283
L36.6463 -28.547
L36.6461 -28.9674
L36.6502 -29.3889
L36.6596 -29.8107
L36.675 -30.232
L36.6977 -30.6518
L36.7289 -31.0689
L36.7703 -31.482
L36.8238 -31.8894
L36.8917 -32.2893
L36.9765 -32.6795
L37.0808 -33.0575
L37.2077 -33.4208
L37.3599 -33.7667
L37.5395 -34.0924
L37.7482 -34.3959
L37.9862 -34.6754
L38.2529 -34.9304
L38.5464 -35.161
L38.8642 -35.3685
L39.2031 -35.5546
L39.56 -35.7217
L39.9318 -35.872
L40.3157 -36.0078
L40.7092 -36.1312
L41.11 -36.2439
L41.5163 -36.3476
L41.9266 -36.4435
L42.3394 -36.5326
L42.7536 -36.6161
L43.1682 -36.6944
L43.5824 -36.7684
L43.9954 -36.8384
L44.4068 -36.9049
L44.8158 -36.9683
L45.2221 -37.0289
L45.6254 -37.0869
L46.0251 -37.1426
L46.4212 -37.1961
L46.8133 -37.2476
L47.2012 -37.2972
L47.5847 -37.3451
L47.9638 -37.3913
L48.3382 -37.4359
L48.708 -37.4792
L49.073 -37.521
L49.4332 -37.5615
L49.7885 -37.6007
L50.1389 -37.6387
L50.4844 -37.6756
L50.8251 -37.7114
L51.1609 -37.7461
L51.4918 -37.7797
L51.818 -37.8124
L52.1394 -37.8442
L52.4561 -37.875
L52.7681 -37.905
L53.0756 -37.9341
L53.3785 -37.9624
L53.677 -37.9899
L53.9712 -38.0166
L54.261 -38.0426
L54.5466 -38.0679
L54.8281 -38.0924
L55.1056 -38.1163
L55.3791 -38.1396
L55.6487 -38.1622
L55.9145 -38.1841
L56.1766 -38.2055
L56.4352 -38.2263
L56.6902 -38.2465
L56.9417 -38.2662
L57.19 -38.2853
L57.4349 -38.3039
L57.6767 -38.322
L57.9155 -38.3396
L58.1512 -38.3568
L58.384 -38.3734
L58.6139 -38.3896
L58.8411 -38.4054
L59.0656 -38.4207
L59.2876 -38.4356
L59.507 -38.45
L59.7239 -38.4641
L59.9385 -38.4777
L60.1508 -38.491
L60.3609 -38.5039
L60.5689 -38.5163
L60.7747 -38.5285
L60.9785 -38.5402
L61.1804 -38.5516
L61.3804 -38.5626
L61.5786 -38.5733
L61.775 -38.5836
L61.9698 -38.5936
L62.1629 -38.6032
L62.3544 -38.6125
L62.5444 -38.6215
L62.7329 -38.6301
L62.9201 -38.6384
L63.1059 -38.6464
L63.2903 -38.654
L63.4735 -38.6613
L63.6556 -38.6683
L63.8364 -38.6749
L64.0162 -38.6812
L64.1949 -38.6872
L64.4139 -38.6928
L64.4482 -38.2141
L64.4738 -37.7178
L64.4908 -37.2211
L64.4991 -36.724
L64.4987 -36.2266
L64.4896 -35.7292
L64.4719 -35.2319
L64.4455 -34.7348
L64.4104 -34.2381
L64.3667 -33.7419
L64.3143 -33.2464
L64.2533 -32.7518
L64.1837 -32.2581
L64.1055 -31.7656
L64.0187 -31.2744
L63.9234 -30.7846
L63.8196 -30.2964
L63.7074 -29.8099
L63.5867 -29.3253
L63.4576 -28.8428
L63.3201 -28.3624
L63.1743 -27.8844
L63.0202 -27.4088
L62.8579 -26.9359
L62.6874 -26.4657
L62.5088 -25.9984
L62.3221 -25.5342
L62.1274 -25.0731
L61.9247 -24.6154
L61.7142 -24.1612
L61.4958 -23.7105
L61.2696 -23.2636
L61.0357 -22.8206
L60.7943 -22.3816
L60.5452 -21.9467
L60.2887 -21.5161
L60.0248 -21.09
L59.7536 -20.6683
L59.4751 -20.2514
L59.1895 -19.8392
L58.8968 -19.432
L58.5971 -19.0298
L58.2906 -18.6328
L57.9772 -18.2411
L57.6572 -17.8547
L57.3306 -17.4739
L56.9975 -17.0988
L56.658 -16.7294
L56.3122 -16.3659
L55.9602 -16.0083
L55.6021 -15.6569
L55.238 -15.3116
L54.8681 -14.9727
L54.4925 -14.6401
L54.1112 -14.3141
L53.7244 -13.9947
L53.3322 -13.6819
L52.9347 -13.376
L52.5321 -13.077
L52.1244 -12.7849
L51.7118 -12.4999
L51.2944 -12.2221
L50.8724 -11.9515
L50.4458 -11.6882
L50.0148 -11.4324
L49.5796 -11.184
L49.1402 -10.9432
L48.6969 -10.71
L48.2496 -10.4845
L47.7987 -10.2668
L47.3441 -10.057
L46.8861 -9.85499
L46.4247 -9.66099
L45.9602 -9.47501
L45.4927 -9.29712
L45.0222 -9.12735
L44.5491 -8.96578
L44.0733 -8.81243
L43.595 -8.66737
L43.1144 -8.53064
L42.6317 -8.40227
L42.147 -8.28231
L41.6603 -8.17079
L41.172 -8.06775
L40.6821 -7.97322
L40.1907 -7.88722
L39.6981 -7.80979
L39.2043 -7.74095
z
" id="C0_1_cc96489b81"/>
     <path d="
M7.62854 -33.302
L7.80412 -33.3304
L7.98096 -33.3589
L8.15909 -33.3875
L8.33856 -33.4162
L8.51943 -33.445
L8.70175 -33.474
L8.88557 -33.503
L9.07094 -33.5322
L9.25793 -33.5616
L9.44658 -33.591
L9.63696 -33.6207
L9.82913 -33.6505
L10.0231 -33.6805
L10.2191 -33.7107
L10.417 -33.7411
L10.6169 -33.7718
L10.8189 -33.8026
L11.0232 -33.8337
L11.2296 -33.865
L11.4384 -33.8966
L11.6496 -33.9284
L11.8632 -33.9605
L12.0794 -33.9929
L12.2982 -34.0256
L12.5197 -34.0586
L12.744 -34.0919
L12.9711 -34.1256
L13.2011 -34.1596
L13.4342 -34.194
L13.6704 -34.2287
L13.9098 -34.2639
L14.1524 -34.2994
L14.3984 -34.3354
L14.6479 -34.3717
L14.9009 -34.4086
L15.1576 -34.4458
L15.4179 -34.4836
L15.6821 -34.5218
L15.9502 -34.5606
L16.2222 -34.5998
L16.4983 -34.6396
L16.7786 -34.68
L17.0631 -34.7209
L17.352 -34.7625
L17.6452 -34.8046
L17.9429 -34.8474
L18.2452 -34.8908
L18.5521 -34.9349
L18.8637 -34.9796
L19.1801 -35.0251
L19.5012 -35.0714
L19.8272 -35.1184
L20.1581 -35.1662
L20.4939 -35.2148
L20.8347 -35.2643
L21.1804 -35.3147
L21.5311 -35.366
L21.8866 -35.4183
L22.2471 -35.4716
L22.6125 -35.5259
L22.9826 -35.5814
L23.3575 -35.6381
L23.7369 -35.696
L24.1208 -35.7553
L24.5089 -35.8159
L24.9011 -35.8782
L25.2972 -35.9421
L25.6969 -36.0078
L26.0998 -36.0754
L26.5055 -36.1453
L26.9137 -36.2176
L27.3238 -36.2926
L27.7351 -36.3707
L28.147 -36.4522
L28.5587 -36.5377
L28.9691 -36.6278
L29.3772 -36.7232
L29.7815 -36.8248
L30.1806 -36.9337
L30.5724 -37.0512
L30.9549 -37.1788
L31.3255 -37.3184
L31.6815 -37.472
L32.0197 -37.6419
L32.337 -37.8304
L32.6303 -38.0397
L32.8971 -38.2718
L33.1356 -38.5279
L33.345 -38.8081
L33.5257 -39.112
L33.6793 -39.4379
L33.8081 -39.7836
L33.9147 -40.1465
L34.0021 -40.5239
L34.0731 -40.9133
L34.1301 -41.3122
L34.1754 -41.7185
L34.211 -42.1302
L34.2383 -42.5459
L34.2589 -42.9641
L34.2737 -43.3837
L34.2838 -43.8036
L34.2898 -44.2231
L34.2925 -44.6413
L34.2924 -45.0578
L34.2899 -45.4718
L34.2853 -45.883
L34.2791 -46.2911
L34.2715 -46.6955
L34.2627 -47.0961
L34.2529 -47.4926
L34.2423 -47.8848
L34.231 -48.2726
L34.2191 -48.6557
L34.2068 -49.034
L34.1941 -49.4075
L34.1812 -49.7761
L34.168 -50.1397
L34.1547 -50.4983
L34.1413 -50.8518
L34.1278 -51.2003
L34.1143 -51.5438
L34.1008 -51.8822
L34.0874 -52.2157
L34.074 -52.5442
L34.0607 -52.8677
L34.0475 -53.1864
L34.0344 -53.5003
L34.0215 -53.8095
L34.0087 -54.114
L33.9961 -54.4138
L33.9836 -54.7092
L33.9713 -55.0001
L33.9592 -55.2866
L33.9473 -55.5689
L33.9355 -55.847
L33.9239 -56.1209
L33.9125 -56.3909
L33.9013 -56.6569
L33.8902 -56.9191
L33.8794 -57.1776
L33.8687 -57.4323
L33.8582 -57.6836
L33.8479 -57.9313
L33.8378 -58.1757
L33.8279 -58.4167
L33.8181 -58.6546
L33.8085 -58.8893
L33.7991 -59.121
L33.7898 -59.3498
L33.7807 -59.5756
L33.7718 -59.7987
L33.763 -60.0191
L33.7544 -60.2368
L33.7459 -60.452
L33.7376 -60.6647
L33.7295 -60.875
L33.7214 -61.083
L33.7136 -61.2887
L33.7059 -61.4922
L33.6983 -61.6937
L33.6908 -61.893
L33.6835 -62.0904
L33.6763 -62.2859
L33.6693 -62.4795
L33.6624 -62.6714
L33.6556 -62.8615
L33.6489 -63.0499
L33.6424 -63.2367
L33.6359 -63.422
L33.6296 -63.6057
L33.6234 -63.788
L33.6173 -63.9689
L33.6114 -64.1485
L33.1042 -64.3267
L32.6098 -64.3525
L32.1165 -64.2976
L31.6243 -64.2342
L31.1335 -64.1621
L30.6441 -64.0814
L30.1564 -63.9922
L29.6705 -63.8945
L29.1865 -63.7883
L28.7045 -63.6736
L28.2248 -63.5504
L27.7475 -63.4189
L27.2727 -63.279
L26.8005 -63.1309
L26.3311 -62.9744
L25.8647 -62.8097
L25.4014 -62.6369
L24.9413 -62.456
L24.4845 -62.267
L24.0313 -62.07
L23.5817 -61.865
L23.1359 -61.6522
L22.694 -61.4316
L22.2562 -61.2032
L21.8225 -60.9671
L21.3932 -60.7235
L20.9683 -60.4723
L20.548 -60.2136
L20.1325 -59.9476
L19.7217 -59.6743
L19.3159 -59.3937
L18.9152 -59.1061
L18.5197 -58.8114
L18.1295 -58.5097
L17.7447 -58.2012
L17.3656 -57.886
L16.9921 -57.564
L16.6243 -57.2355
L16.2625 -56.9006
L15.9067 -56.5592
L15.557 -56.2116
L15.2136 -55.8579
L14.8765 -55.4981
L14.5458 -55.1323
L14.2216 -54.7608
L13.9041 -54.3835
L13.5933 -54.0006
L13.2894 -53.6122
L12.9923 -53.2185
L12.7023 -52.8195
L12.4193 -52.4154
L12.1436 -52.0063
L11.8751 -51.5923
L11.6139 -51.1736
L11.3602 -50.7503
L11.114 -50.3224
L10.8754 -49.8902
L10.6444 -49.4538
L10.4212 -49.0132
L10.2057 -48.5687
L9.99811 -48.1204
L9.79843 -47.6684
L9.60673 -47.2128
L9.42307 -46.7538
L9.2475 -46.2916
L9.08008 -45.8262
L8.92087 -45.3578
L8.7699 -44.8865
L8.62723 -44.4126
L8.49289 -43.9361
L8.36694 -43.4572
L8.2494 -42.976
L8.14031 -42.4926
L8.03972 -42.0073
L7.94763 -41.5202
L7.8641 -41.0314
L7.78913 -40.541
L7.72276 -40.0493
L7.665 -39.5563
L7.61587 -39.0623
L7.57539 -38.5673
L7.54356 -38.0715
L7.52041 -37.5751
L7.50592 -37.0783
L7.50012 -36.5811
L7.503 -36.0837
L7.51456 -35.5863
L7.5348 -35.089
L7.56371 -34.592
z
" id="C0_2_ab7054896e"/>
    </defs>
    <g clip-path="url(#p1bffca34e9)">
     <use style="fill:#ffffff;stroke:#000000;stroke-width:2.0;" x="0.0" xlink:href="#C0_0_a811fe30f3" y="72.0"/>
    </g>
    <g clip-path="url(#p1bffca34e9)">
     <use style="fill:#ff0000;stroke:#000000;stroke-width:2.0;" x="0.0" xlink:href="#C0_1_cc96489b81" y="72.0"/>
    </g>
    <g clip-path="url(#p1bffca34e9)">
     <use style="fill:#ff0000;stroke:#000000;stroke-width:2.0;" x="0.0" xlink:href="#C0_2_ab7054896e" y="72.0"/>
    </g>
   </g>
  </g>
 </g>
 <defs>
  <clipPath id="p1bffca34e9">
   <rect height="72.0" width="72.0" x="0.0" y="0.0"/>
  </clipPath>
 </defs>
</svg>
