<?xml version="1.0" encoding="utf-8" standalone="no"?>
<!DOCTYPE svg PUBLIC "-//W3C//DTD SVG 1.1//EN"
  "http://www.w3.org/Graphics/SVG/1.1/DTD/svg11.dtd">
<!-- Created with matplotlib (http://matplotlib.org/) -->
<svg height="72pt" version="1.1" viewBox="0 0 72 72" width="72pt" xmlns="http://www.w3.org/2000/svg" xmlns:xlink="http://www.w3.org/1999/xlink">
 <defs>
  <style type="text/css">
*{stroke-linecap:butt;stroke-linejoin:round;}
  </style>
 </defs>
 <g id="figure_1">
  <g id="patch_1">
   <path d="
M0 72
L72 72
L72 0
L0 0
z
" style="fill:none;"/>
  </g>
  <g id="axes_1">
   <g id="PatchCollection_1">
    <defs>
     <path d="
M36 -7.5
C43.5583 -7.5 50.808 -10.5029 56.1525 -15.8475
C61.4971 -21.192 64.5 -28.4417 64.5 -36
C64.5 -43.5583 61.4971 -50.808 56.1525 -56.1525
C50.808 -61.4971 43.5583 -64.5 36 -64.5
C28.4417 -64.5 21.192 -61.4971 15.8475 -56.1525
C10.5029 -50.808 7.5 -43.5583 7.5 -36
C7.5 -28.4417 10.5029 -21.192 15.8475 -15.8475
C21.192 -10.5029 28.4417 -7.5 36 -7.5
z
" id="C0_0_a811fe30f3"/>
     <path d="
M13.0449 -19.4252
L13.2448 -19.6046
L13.4572 -19.7753
L13.6806 -19.9384
L13.9138 -20.0948
L14.1557 -20.2453
L14.4051 -20.3908
L14.6612 -20.5319
L14.9231 -20.6691
L15.19 -20.8032
L15.4611 -20.9344
L15.7359 -21.0632
L16.0137 -21.1899
L16.294 -21.3149
L16.5765 -21.4384
L16.8605 -21.5606
L17.1458 -21.6817
L17.432 -21.8019
L17.7188 -21.9212
L18.0059 -22.0399
L18.293 -22.158
L18.58 -22.2755
L18.8665 -22.3926
L19.1525 -22.5093
L19.4378 -22.6256
L19.7222 -22.7416
L20.0056 -22.8573
L20.2878 -22.9727
L20.5689 -23.0879
L20.8486 -23.2028
L21.1269 -23.3175
L21.4038 -23.432
L21.6793 -23.5463
L21.9531 -23.6603
L22.2254 -23.7742
L22.4961 -23.8878
L22.7651 -24.0013
L23.0325 -24.1146
L23.2983 -24.2276
L23.5624 -24.3405
L23.8248 -24.4532
L24.0856 -24.5657
L24.3448 -24.6781
L24.6023 -24.7903
L24.8583 -24.9023
L25.1126 -25.0141
L25.3654 -25.1258
L25.6167 -25.2374
L25.8665 -25.3488
L26.1148 -25.4601
L26.3617 -25.5712
L26.6071 -25.6823
L26.8512 -25.7932
L27.094 -25.9041
L27.3355 -26.0149
L27.5758 -26.1256
L27.8149 -26.2363
L28.0528 -26.3469
L28.2896 -26.4575
L28.5254 -26.5681
L28.7601 -26.6787
L28.9939 -26.7893
L29.2267 -26.9
L29.4586 -27.0107
L29.6898 -27.1215
L29.9201 -27.2324
L30.1497 -27.3434
L30.3786 -27.4545
L30.6069 -27.5658
L30.8346 -27.6773
L31.0618 -27.7889
L31.2885 -27.9008
L31.5147 -28.0129
L31.7406 -28.1252
L31.9661 -28.2378
L32.1913 -28.3508
L32.4163 -28.464
L32.6411 -28.5776
L32.8658 -28.6916
L33.3149 -28.806
L33.5395 -28.9208
L33.7641 -29.036
L33.9888 -29.1517
L34.2138 -29.2679
L34.4389 -29.3847
L34.6643 -29.502
L34.89 -29.6198
L35.1161 -29.7383
L35.3427 -29.8574
L35.5697 -29.9772
L35.7972 -30.0976
L36.0253 -30.2188
L36.254 -30.3407
L36.4834 -30.4634
L36.7135 -30.5869
L36.9445 -30.7113
L37.1762 -30.8365
L37.4088 -30.9626
L37.6424 -31.0896
L37.8769 -31.2176
L38.1125 -31.3466
L38.3491 -31.4766
L38.5869 -31.6077
L38.8258 -31.7399
L39.066 -31.8731
L39.3075 -32.0076
L39.5503 -32.1432
L39.7944 -32.28
L40.04 -32.418
L40.287 -32.5574
L40.5355 -32.698
L40.7856 -32.84
L41.0373 -32.9833
L41.2906 -33.128
L41.5456 -33.2741
L41.8023 -33.4217
L42.0607 -33.5707
L42.3209 -33.7212
L42.583 -33.8732
L42.8469 -34.0267
L43.1126 -34.1818
L43.3803 -34.3385
L43.6499 -34.4967
L43.9214 -34.6565
L44.1949 -34.8179
L44.4704 -34.9808
L44.7478 -35.1454
L45.0273 -35.3115
L45.3087 -35.4791
L45.5921 -35.6483
L45.8775 -35.819
L46.1649 -35.9912
L46.4543 -36.1648
L46.7455 -36.3398
L47.0387 -36.5161
L47.3337 -36.6936
L47.6306 -36.8723
L47.9292 -37.052
L48.2296 -37.2327
L48.5316 -37.4142
L48.8352 -37.5962
L49.1404 -37.7788
L49.447 -37.9616
L49.7549 -38.1445
L50.0641 -38.3271
L50.3744 -38.5093
L50.6858 -38.6906
L50.9982 -38.8708
L51.3113 -39.0493
L51.6251 -39.2258
L51.9394 -39.3997
L52.2542 -39.5705
L52.5692 -39.7375
L52.8844 -39.9001
L53.1994 -40.0574
L53.5143 -40.2085
L53.8289 -40.3525
L54.1429 -40.4883
L54.4562 -40.6147
L54.7687 -40.7306
L55.0801 -40.8344
L55.3902 -40.9247
L55.6989 -41
L56.006 -41.0587
L56.3111 -41.0991
L56.614 -41.1197
L56.9144 -41.1188
L57.212 -41.095
L57.5064 -41.047
L57.7971 -40.9739
L58.0838 -40.8748
L58.3659 -40.7493
L58.643 -40.5974
L58.9145 -40.4192
L59.18 -40.2154
L59.4388 -39.9867
L59.6905 -39.7344
L59.9347 -39.4595
L60.1708 -39.1635
L60.3985 -38.8478
L60.6174 -38.514
L60.8272 -38.1636
L61.0275 -37.798
L61.2182 -37.4186
L61.399 -37.0268
L61.5697 -36.6239
L61.7303 -36.2111
L61.8805 -35.7895
L62.0204 -35.3603
L62.1499 -34.9244
L62.269 -34.4827
L62.3777 -34.0362
L62.4761 -33.5855
L62.5641 -33.1314
L62.642 -32.6747
L62.7097 -32.2159
L62.7675 -31.7556
L62.8153 -31.2944
L62.8534 -30.8328
L62.8819 -30.3712
L62.901 -29.91
L62.9108 -29.4497
L62.9115 -28.9906
L62.9032 -28.533
L62.8862 -28.0772
L62.8605 -27.6235
L62.8265 -27.1722
L62.7842 -26.7234
L62.6158 -26.2774
L62.4339 -25.8094
L62.2439 -25.3464
L62.046 -24.8867
L61.8401 -24.4304
L61.6263 -23.9776
L61.4048 -23.5284
L61.1755 -23.0831
L60.9385 -22.6417
L60.6939 -22.2043
L60.4419 -21.7712
L60.1823 -21.3424
L59.9154 -20.9181
L59.6412 -20.4983
L59.3599 -20.0833
L59.0714 -19.6731
L58.7758 -19.2679
L58.4734 -18.8678
L58.164 -18.4729
L57.848 -18.0834
L57.5253 -17.6993
L57.196 -17.3208
L56.8603 -16.948
L56.5182 -16.5809
L56.1698 -16.2198
L55.8154 -15.8648
L55.4548 -15.5158
L55.0884 -15.1731
L54.7161 -14.8367
L54.3382 -14.5068
L53.9546 -14.1835
L53.5656 -13.8667
L53.1713 -13.5568
L52.7717 -13.2536
L52.367 -12.9574
L51.9573 -12.6682
L51.5427 -12.3861
L51.1234 -12.1112
L50.6995 -11.8436
L50.2712 -11.5833
L49.8385 -11.3305
L49.4015 -11.0852
L48.9605 -10.8475
L48.5156 -10.6174
L48.0668 -10.3951
L47.6143 -10.1806
L47.1584 -9.97391
L46.699 -9.77518
L46.2363 -9.58443
L45.7706 -9.40173
L45.3018 -9.22714
L44.8302 -9.06069
L44.356 -8.90246
L43.8792 -8.75248
L43.4 -8.61079
L42.9185 -8.47746
L42.4349 -8.3525
L41.9494 -8.23597
L41.4621 -8.12789
L40.9731 -8.0283
L40.4825 -7.93724
L39.9907 -7.85472
L39.4976 -7.78078
L39.0034 -7.71543
L38.5083 -7.65869
L38.0125 -7.61059
L37.516 -7.57114
L37.0191 -7.54035
L36.5219 -7.51823
L36.0245 -7.50478
L35.5271 -7.50001
L35.0298 -7.50392
L34.5329 -7.51652
L34.0363 -7.53779
L33.5404 -7.56773
L33.0453 -7.60633
L32.551 -7.65358
L32.0578 -7.70946
L31.5658 -7.77397
L31.0751 -7.84707
L30.586 -7.92874
L30.0984 -8.01897
L29.6127 -8.11772
L29.129 -8.22496
L28.6473 -8.34066
L28.1679 -8.46479
L27.6908 -8.59731
L27.2163 -8.73817
L26.7444 -8.88734
L26.2754 -9.04477
L25.8094 -9.2104
L25.3464 -9.3842
L24.8867 -9.56611
L24.4304 -9.75606
L23.9776 -9.95401
L23.5284 -10.1599
L23.0831 -10.3737
L22.6417 -10.5952
L22.2043 -10.8245
L21.7712 -11.0615
L21.3424 -11.3061
L20.9181 -11.5581
L20.4983 -11.8177
L20.0833 -12.0846
L19.6731 -12.3588
L19.2679 -12.6401
L18.8678 -12.9286
L18.4729 -13.2242
L18.0834 -13.5266
L17.6993 -13.836
L17.3208 -14.152
L16.948 -14.4747
L16.5809 -14.804
L16.2198 -15.1397
L15.8648 -15.4818
L15.5158 -15.8302
L15.1731 -16.1846
L14.8367 -16.5452
L14.5068 -16.9116
L14.1835 -17.2839
L13.8667 -17.6618
L13.5568 -18.0454
L13.2536 -18.4344
z
" id="C0_1_24d5470ea3"/>
     <path d="
M9.45608 -46.0934
L9.70979 -46.4523
L9.96593 -46.8033
L10.2243 -47.1465
L10.4848 -47.482
L10.7472 -47.8099
L11.0113 -48.1303
L11.277 -48.4434
L11.5441 -48.7493
L11.8125 -49.0481
L12.0822 -49.34
L12.3529 -49.6251
L12.6246 -49.9036
L12.8971 -50.1755
L13.1705 -50.4411
L13.4445 -50.7005
L13.7192 -50.9538
L13.9945 -51.2011
L14.2703 -51.4426
L14.5465 -51.6785
L14.8232 -51.9088
L15.1002 -52.1336
L15.3776 -52.3532
L15.6553 -52.5676
L15.9334 -52.777
L16.2116 -52.9814
L16.4902 -53.181
L16.769 -53.376
L17.0481 -53.5663
L17.3274 -53.7521
L17.6069 -53.9335
L17.8867 -54.1106
L18.1668 -54.2836
L18.4471 -54.4524
L18.7278 -54.6172
L19.0087 -54.778
L19.29 -54.935
L19.5716 -55.0882
L19.8536 -55.2377
L20.136 -55.3836
L20.4188 -55.5259
L20.7021 -55.6647
L20.9859 -55.8
L21.2702 -55.932
L21.5551 -56.0606
L21.8406 -56.186
L22.1267 -56.3081
L22.4136 -56.4271
L22.7011 -56.5429
L22.9894 -56.6556
L23.2786 -56.7652
L23.5686 -56.8718
L23.8595 -56.9754
L24.1513 -57.076
L24.4442 -57.1737
L24.7382 -57.2685
L25.0332 -57.3603
L25.3294 -57.4492
L25.6268 -57.5353
L25.9255 -57.6184
L26.2256 -57.6987
L26.527 -57.7762
L26.8298 -57.8507
L27.1341 -57.9224
L27.44 -57.9913
L27.7475 -58.0572
L28.0567 -58.1203
L28.3676 -58.1804
L28.6802 -58.2376
L28.9948 -58.2919
L29.3112 -58.3432
L29.6295 -58.3914
L29.9499 -58.4367
L30.2724 -58.4789
L30.597 -58.5179
L30.9238 -58.5539
L31.2529 -58.5866
L31.5843 -58.6161
L31.918 -58.6423
L32.2542 -58.6652
L32.5928 -58.6846
L32.9339 -58.7006
L33.2777 -58.7131
L33.624 -58.722
L33.9731 -58.7272
L34.3248 -58.7286
L34.6793 -58.7262
L35.0366 -58.72
L35.3968 -58.7097
L35.7598 -58.6954
L36.1257 -58.6768
L36.4946 -58.6541
L36.8664 -58.627
L37.2411 -58.5954
L37.6188 -58.5593
L37.9995 -58.5185
L38.3832 -58.473
L38.7698 -58.4226
L39.1594 -58.3673
L39.5519 -58.3069
L39.9473 -58.2413
L40.3456 -58.1705
L40.7466 -58.0943
L41.1504 -58.0127
L41.5569 -57.9255
L41.966 -57.8327
L42.3775 -57.7342
L42.7914 -57.63
L43.2076 -57.5199
L43.626 -57.404
L44.0463 -57.2821
L44.4684 -57.1544
L44.8922 -57.0208
L45.3174 -56.8813
L45.7438 -56.736
L46.1713 -56.5849
L46.5994 -56.4283
L47.0281 -56.2662
L47.457 -56.0989
L47.8857 -55.9265
L48.3141 -55.7495
L48.7417 -55.5681
L49.1682 -55.3828
L49.5931 -55.1941
L50.0162 -55.0026
L50.4371 -54.8089
L50.8552 -54.6139
L51.2701 -54.4183
L51.6814 -54.2233
L52.0887 -54.0298
L52.4914 -53.8392
L52.8892 -53.6527
L53.2814 -53.4719
L53.6677 -53.2982
L54.0476 -53.1333
L54.4206 -52.979
L54.7864 -52.8367
L55.1446 -52.7083
L55.4948 -52.5953
L55.8367 -52.499
L56.1701 -52.4206
L56.4948 -52.361
L56.8106 -52.3208
L57.1176 -52.3004
L57.4157 -52.2998
L57.7048 -52.3185
L57.985 -52.356
L58.2565 -52.4114
L58.5193 -52.4839
L58.7734 -52.5724
L58.7849 -52.6755
L58.4826 -53.1201
L58.1735 -53.5152
L57.8577 -53.9049
L57.5352 -54.2891
L57.2061 -54.6678
L56.8705 -55.0408
L56.5286 -55.408
L56.1805 -55.7693
L55.8262 -56.1245
L55.4659 -56.4737
L55.0996 -56.8166
L54.7275 -57.1531
L54.3497 -57.4832
L53.9664 -57.8068
L53.5775 -58.1237
L53.1833 -58.4339
L52.7839 -58.7373
L52.3793 -59.0337
L51.9698 -59.3231
L51.5554 -59.6054
L51.1362 -59.8805
L50.7125 -60.1484
L50.2842 -60.4089
L49.8517 -60.6619
L49.4149 -60.9075
L48.974 -61.1454
L48.5291 -61.3757
L48.0805 -61.5983
L47.6281 -61.813
L47.1722 -62.0199
L46.713 -62.2189
L46.2504 -62.4099
L45.7847 -62.5928
L45.3161 -62.7677
L44.8446 -62.9344
L44.3704 -63.0929
L43.8937 -63.2431
L43.4146 -63.385
L42.9332 -63.5186
L42.4496 -63.6438
L41.9642 -63.7606
L41.4769 -63.869
L40.9879 -63.9688
L40.4975 -64.0601
L40.0056 -64.1429
L39.5125 -64.2171
L39.0184 -64.2827
L38.5233 -64.3397
L38.0275 -64.3881
L37.5311 -64.4278
L37.0342 -64.4588
L36.5369 -64.4812
L36.0396 -64.4949
L35.5422 -64.5
L35.0449 -64.4963
L34.5479 -64.484
L34.0514 -64.463
L33.5555 -64.4333
L33.0603 -64.395
L32.566 -64.348
L32.0727 -64.2924
L31.5807 -64.2281
L31.09 -64.1553
L30.6008 -64.0739
L30.1132 -63.9839
L29.6274 -63.8854
L29.1436 -63.7784
L28.6619 -63.663
L28.1824 -63.5391
L27.7052 -63.4068
L27.2307 -63.2662
L26.7587 -63.1173
L26.2896 -62.9601
L25.8235 -62.7947
L25.3604 -62.6212
L24.9006 -62.4395
L24.4442 -62.2498
L23.9912 -62.0521
L23.542 -61.8465
L23.0965 -61.6329
L22.655 -61.4116
L22.2175 -61.1826
L21.7843 -60.9458
L21.3553 -60.7015
L20.9309 -60.4496
L20.511 -60.1903
L20.0958 -59.9236
L19.6855 -59.6497
L19.2801 -59.3685
L18.8799 -59.0802
L18.4848 -58.7849
L18.0951 -58.4826
L17.7109 -58.1735
L17.3322 -57.8577
L16.9592 -57.5352
L16.592 -57.2061
L16.2307 -56.8705
L15.8755 -56.5286
L15.5263 -56.1805
L15.1834 -55.8262
L14.8469 -55.4659
L14.5168 -55.0996
L14.1932 -54.7275
L13.8763 -54.3497
L13.5661 -53.9664
L13.2627 -53.5775
L12.9663 -53.1833
L12.6769 -52.7839
L12.3946 -52.3793
L12.1195 -51.9698
L11.8516 -51.5554
L11.5911 -51.1362
L11.3381 -50.7125
L11.0925 -50.2842
L10.8546 -49.8517
L10.6243 -49.4149
L10.4017 -48.974
L10.187 -48.5291
L9.98007 -48.0805
L9.7811 -47.6281
L9.59011 -47.1722
z
" id="C0_2_0cd17d347c"/>
    </defs>
    <g clip-path="url(#p1bffca34e9)">
     <use style="fill:#ff0000;stroke:#000000;stroke-width:2.0;" x="0.0" xlink:href="#C0_0_a811fe30f3" y="72.0"/>
    </g>
    <g clip-path="url(#p1bffca34e9)">
     <use style="fill:#ffffff;stroke:#000000;stroke-width:2.0;" x="0.0" xlink:href="#C0_1_24d5470ea3" y="72.0"/>
    </g>
    <g clip-path="url(#p1bffca34e9)">
     <use style="fill:#ffffff;stroke:#000000;stroke-width:2.0;" x="0.0" xlink:href="#C0_2_0cd17d347c" y="72.0"/>
    </g>
   </g>
  </g>
 </g>
 <defs>
  <clipPath id="p1bffca34e9">
   <rect height="72.0" width="72.0" x="0.0" y="0.0"/>
  </clipPath>
 </defs>
</svg>
