<?xml version="1.0" encoding="utf-8" standalone="no"?>
<!DOCTYPE svg PUBLIC "-//W3C//DTD SVG 1.1//EN"
  "http://www.w3.org/Graphics/SVG/1.1/DTD/svg11.dtd">
<!-- Created with matplotlib (http://matplotlib.org/) -->
<svg height="72pt" version="1.1" viewBox="0 0 72 72" width="72pt" xmlns="http://www.w3.org/2000/svg" xmlns:xlink="http://www.w3.org/1999/xlink">
 <defs>
  <style type="text/css">
*{stroke-linecap:butt;stroke-linejoin:round;}
  </style>
 </defs>
 <g id="figure_1">
  <g id="patch_1">
   <path d="
M0 72
L72 72
L72 0
L0 0
z
" style="fill:none;"/>
  </g>
  <g id="axes_1">
   <g id="PatchCollection_1">
    <defs>
     <path d="
M36 -7.5
C43.5583 -7.5 50.808 -10.5029 56.1525 -15.8475
C61.4971 -21.192 64.5 -28.4417 64.5 -36
C64.5 -43.5583 61.4971 -50.808 56.1525 -56.1525
C50.808 -61.4971 43.5583 -64.5 36 -64.5
C28.4417 -64.5 21.192 -61.4971 15.8475 -56.1525
C10.5029 -50.808 7.5 -43.5583 7.5 -36
C7.5 -28.4417 10.5029 -21.192 15.8475 -15.8475
C21.192 -10.5029 28.4417 -7.5 36 -7.5
z
" id="C0_0_a811fe30f3"/>
     <path d="
M40.9496 -7.99195
L40.6086 -8.11789
L40.2828 -8.255
L39.9729 -8.40296
L39.6792 -8.56147
L39.4025 -8.73017
L39.1429 -8.9087
L38.9008 -9.09667
L38.6763 -9.29369
L38.4695 -9.49936
L38.2802 -9.71326
L38.1083 -9.93497
L37.9536 -10.1641
L37.8155 -10.4001
L37.6937 -10.6428
L37.5875 -10.8915
L37.4963 -11.146
L37.4194 -11.4059
L37.3561 -11.6707
L37.3057 -11.9402
L37.2673 -12.2139
L37.2403 -12.4914
L37.2238 -12.7726
L37.2171 -13.057
L37.2195 -13.3443
L37.2301 -13.6343
L37.2485 -13.9267
L37.2738 -14.2212
L37.3056 -14.5175
L37.3432 -14.8155
L37.386 -15.1148
L37.4337 -15.4153
L37.4856 -15.7168
L37.5414 -16.0191
L37.6006 -16.3219
L37.6629 -16.6252
L37.7279 -16.9287
L37.7953 -17.2323
L37.8648 -17.5359
L37.9362 -17.8394
L38.0091 -18.1425
L38.0835 -18.4452
L38.1589 -18.7474
L38.2354 -19.049
L38.3127 -19.3498
L38.3906 -19.6499
L38.469 -19.9492
L38.5478 -20.2474
L38.6268 -20.5448
L38.706 -20.841
L38.7853 -21.1362
L38.8645 -21.4302
L38.9437 -21.7231
L39.0227 -22.0147
L39.1015 -22.3052
L39.18 -22.5943
L39.2582 -22.8823
L39.336 -23.1689
L39.4134 -23.4543
L39.4904 -23.7383
L39.5669 -24.0211
L39.6429 -24.3026
L39.7185 -24.5828
L39.7935 -24.8618
L39.868 -25.1395
L39.9419 -25.4159
L40.0153 -25.6911
L40.0881 -25.9651
L40.1604 -26.238
L40.232 -26.5097
L40.3031 -26.7802
L40.3737 -27.0497
L40.4436 -27.318
L40.513 -27.5854
L40.5819 -27.8517
L40.6502 -28.117
L40.7179 -28.3814
L40.7851 -28.6449
L40.8517 -28.9076
L40.9178 -29.1694
L40.9834 -29.4304
L41.0485 -29.6906
L41.113 -29.9502
L41.1771 -30.209
L41.2407 -30.4673
L41.3038 -30.7249
L41.3664 -30.982
L41.4286 -31.2387
L41.4903 -31.4948
L41.5516 -31.7505
L41.6125 -32.0059
L41.6729 -32.261
L41.7329 -32.5157
L41.7926 -32.7703
L41.8519 -33.0246
L41.9107 -33.2788
L41.9693 -33.5329
L42.0274 -33.7869
L42.1428 -34.041
L42.2 -34.295
L42.2568 -34.5492
L42.3134 -34.8035
L42.3697 -35.058
L42.4257 -35.3127
L42.4815 -35.5676
L42.5369 -35.8229
L42.5922 -36.0786
L42.6472 -36.3346
L42.7019 -36.5911
L42.7564 -36.8481
L42.8108 -37.1057
L42.8649 -37.3638
L42.9188 -37.6225
L42.9726 -37.882
L43.0262 -38.1421
L43.0796 -38.4031
L43.1328 -38.6648
L43.186 -38.9274
L43.2389 -39.1908
L43.2918 -39.4552
L43.3445 -39.7206
L43.3972 -39.9869
L43.4497 -40.2544
L43.5021 -40.5229
L43.5545 -40.7925
L43.6068 -41.0633
L43.6591 -41.3352
L43.7113 -41.6084
L43.7634 -41.8828
L43.8156 -42.1585
L43.8677 -42.4355
L43.9198 -42.7139
L43.972 -42.9935
L44.0242 -43.2746
L44.0764 -43.557
L44.1287 -43.8408
L44.1811 -44.1261
L44.2336 -44.4127
L44.2862 -44.7008
L44.3389 -44.9902
L44.3919 -45.2811
L44.445 -45.5733
L44.4984 -45.867
L44.552 -46.162
L44.6059 -46.4583
L44.6601 -46.7559
L44.7147 -47.0548
L44.7698 -47.3549
L44.8253 -47.6561
L44.8814 -47.9584
L44.938 -48.2617
L44.9953 -48.566
L45.0534 -48.8711
L45.1123 -49.1769
L45.1721 -49.4833
L45.233 -49.7903
L45.2949 -50.0976
L45.3582 -50.4051
L45.4228 -50.7126
L45.489 -51.02
L45.557 -51.327
L45.6268 -51.6334
L45.6988 -51.9391
L45.773 -52.2437
L45.8499 -52.5469
L45.9295 -52.8486
L46.0123 -53.1483
L46.0985 -53.4457
L46.1885 -53.7405
L46.2825 -54.0322
L46.3811 -54.3205
L46.4846 -54.6049
L46.5935 -54.885
L46.7081 -55.1603
L46.8291 -55.4302
L46.9568 -55.6942
L47.0919 -55.9517
L47.2348 -56.2022
L47.3862 -56.4451
L47.5464 -56.6797
L47.7162 -56.9054
L47.8959 -57.1216
L48.0861 -57.3275
L48.2871 -57.5226
L48.4995 -57.7062
L48.7235 -57.8777
L48.9593 -58.0364
L49.2072 -58.1819
L49.4672 -58.3135
L49.7393 -58.4308
L50.0234 -58.5334
L50.3193 -58.6207
L50.6268 -58.6926
L50.9453 -58.7486
L51.2745 -58.7886
L51.6137 -58.8125
L51.9624 -58.8201
L52.3199 -58.8114
L52.6854 -58.7863
L53.0581 -58.745
L53.5222 -58.6876
L53.9118 -58.4771
L54.296 -58.1679
L54.6746 -57.8519
L55.0475 -57.5293
L55.4145 -57.2001
L55.7757 -56.8645
L56.1309 -56.5224
L56.4799 -56.1742
L56.8227 -55.8198
L57.1591 -55.4593
L57.4891 -55.093
L57.8126 -54.7208
L58.1294 -54.3429
L58.4394 -53.9594
L58.7427 -53.5705
L59.039 -53.1762
L59.3283 -52.7766
L59.6104 -52.372
L59.8854 -51.9624
L60.1531 -51.5479
L60.4135 -51.1287
L60.6664 -50.7048
L60.9118 -50.2765
L61.1496 -49.8439
L61.3798 -49.407
L61.6022 -48.966
L61.8168 -48.5211
L62.0236 -48.0724
L62.2224 -47.62
L62.4133 -47.164
L62.5961 -46.7047
L62.7707 -46.2421
L62.9373 -45.7763
L63.0956 -45.3076
L63.2457 -44.8361
L63.3875 -44.3619
L63.5209 -43.8851
L63.646 -43.4059
L63.7626 -42.9245
L63.8708 -42.4409
L63.9705 -41.9554
L64.0617 -41.4681
L64.1443 -40.9791
L64.2184 -40.4886
L64.2838 -39.9968
L64.3407 -39.5037
L64.3889 -39.0095
L64.4284 -38.5144
L64.4593 -38.0186
L64.4816 -37.5222
L64.4951 -37.0252
L64.5 -36.528
L64.4962 -36.0306
L64.4837 -35.5332
L64.4625 -35.036
L64.4327 -34.539
L64.3942 -34.0425
L64.3471 -33.5466
L64.2913 -33.0514
L64.2269 -32.5571
L64.1539 -32.0639
L64.0723 -31.5719
L63.9822 -31.0812
L63.8836 -30.592
L63.7764 -30.1045
L63.6608 -29.6187
L63.5368 -29.1349
L63.4044 -28.6532
L63.2636 -28.1738
L63.1146 -27.6967
L62.9572 -27.2221
L62.7917 -26.7503
L62.618 -26.2812
L62.4362 -25.8151
L62.2463 -25.3521
L62.0485 -24.8924
L61.8427 -24.436
L61.629 -23.9831
L61.4076 -23.534
L61.1784 -23.0886
L60.9415 -22.6471
L60.697 -22.2097
L60.445 -21.7765
L60.1856 -21.3477
L59.9188 -20.9233
L59.6447 -20.5035
L59.3634 -20.0884
L59.075 -19.6782
L58.7795 -19.2729
L58.4771 -18.8727
L58.1679 -18.4778
L57.8519 -18.0882
L57.5293 -17.704
L57.2001 -17.3254
L56.8645 -16.9525
L56.5224 -16.5855
L56.1742 -16.2243
L55.8198 -15.8691
L55.4593 -15.5201
L55.093 -15.1773
L54.7208 -14.8409
L54.3429 -14.5109
L53.9594 -14.1874
L53.5705 -13.8706
L53.1762 -13.5606
L52.7766 -13.2573
L52.372 -12.961
L51.9624 -12.6717
L51.5479 -12.3896
L51.1287 -12.1146
L50.7048 -11.8469
L50.2765 -11.5865
L49.8439 -11.3336
L49.407 -11.0882
L48.966 -10.8504
L48.5211 -10.6202
L48.0724 -10.3978
L47.62 -10.1832
L47.164 -9.97643
L46.7047 -9.77759
L46.2421 -9.58675
L45.7763 -9.40395
L45.3076 -9.22925
L44.8361 -9.06271
L44.3619 -8.90437
L43.8851 -8.75428
L43.4059 -8.6125
L42.9245 -8.47906
L42.4409 -8.354
L41.9554 -8.23736
L41.4681 -8.12918
z
" id="C0_1_68c9061211"/>
     <path d="
M18.6314 -13.4751
L18.4554 -13.8262
L18.2765 -14.1817
L18.0957 -14.5414
L17.9136 -14.905
L17.7309 -15.2722
L17.5484 -15.6427
L17.3664 -16.0161
L17.1857 -16.3922
L17.0067 -16.7706
L16.8298 -17.1511
L16.6555 -17.5334
L16.4842 -17.9172
L16.3161 -18.3023
L16.1515 -18.6884
L15.9906 -19.0752
L15.8338 -19.4625
L15.6811 -19.8502
L15.5328 -20.2379
L15.3888 -20.6255
L15.2495 -21.0128
L15.1147 -21.3996
L14.9847 -21.7858
L14.8594 -22.1712
L14.7388 -22.5556
L14.623 -22.9389
L14.512 -23.3211
L14.4057 -23.702
L14.3042 -24.0814
L14.2074 -24.4594
L14.1152 -24.8357
L14.0276 -25.2104
L13.9446 -25.5834
L13.8661 -25.9546
L13.7921 -26.324
L13.7225 -26.6915
L13.6572 -27.0572
L13.5961 -27.4208
L13.5392 -27.7826
L13.4865 -28.1423
L13.4378 -28.5001
L13.3931 -28.8559
L13.3523 -29.2096
L13.3153 -29.5614
L13.2821 -29.9113
L13.2527 -30.2591
L13.2268 -30.605
L13.2046 -30.9489
L13.1859 -31.2909
L13.1706 -31.6311
L13.1587 -31.9693
L13.1502 -32.3058
L13.1449 -32.6404
L13.1429 -32.9732
L13.1441 -33.3043
L13.1484 -33.6337
L13.1559 -33.9614
L13.1663 -34.2875
L13.1798 -34.612
L13.1962 -34.935
L13.2156 -35.2564
L13.2379 -35.5764
L13.2631 -35.895
L13.2911 -36.2122
L13.3219 -36.5281
L13.3555 -36.8427
L13.3919 -37.1561
L13.431 -37.4683
L13.4729 -37.7793
L13.5175 -38.0893
L13.5648 -38.3982
L13.6148 -38.7061
L13.6675 -39.0131
L13.7229 -39.3191
L13.7809 -39.6243
L13.8417 -39.9287
L13.9051 -40.2323
L13.9713 -40.5352
L14.0401 -40.8374
L14.1117 -41.139
L14.1859 -41.44
L14.2629 -41.7404
L14.3427 -42.0404
L14.4252 -42.3399
L14.5105 -42.6389
L14.5986 -42.9376
L14.6895 -43.236
L14.7833 -43.534
L14.8799 -43.8318
L14.9795 -44.1294
L15.0821 -44.4267
L15.1876 -44.724
L15.2961 -45.0211
L15.4077 -45.3181
L15.5224 -45.6151
L15.6402 -45.912
L15.7612 -46.2089
L15.8854 -46.5059
L16.0129 -46.8029
L16.1438 -47.1
L16.278 -47.3972
L16.4156 -47.6945
L16.5568 -47.992
L16.7015 -48.2896
L16.8497 -48.5874
L17.0017 -48.8853
L17.1573 -49.1834
L17.3168 -49.4817
L17.48 -49.7802
L17.6472 -50.0788
L17.8184 -50.3777
L17.9936 -50.6767
L18.1728 -50.9759
L18.3563 -51.2752
L18.5439 -51.5746
L18.7358 -51.8742
L18.9321 -52.1738
L19.1328 -52.4735
L19.3379 -52.7732
L19.5476 -53.0729
L19.7618 -53.3725
L19.9807 -53.672
L20.2042 -53.9714
L20.4324 -54.2705
L20.6653 -54.5693
L20.903 -54.8677
L21.1455 -55.1658
L21.3928 -55.4633
L21.6449 -55.7602
L21.9019 -56.0564
L22.1636 -56.3519
L22.4301 -56.6465
L22.7013 -56.9401
L22.9772 -57.2327
L23.2577 -57.5241
L23.5427 -57.8141
L23.8321 -58.1028
L24.1258 -58.3899
L24.4237 -58.6754
L24.7255 -58.9591
L25.031 -59.2409
L25.3401 -59.5207
L25.6525 -59.7983
L25.9679 -60.0738
L26.2859 -60.3469
L26.6062 -60.6175
L26.9283 -60.8856
L27.252 -61.1511
L27.5766 -61.4139
L27.9016 -61.674
L28.2266 -61.9312
L28.5508 -62.1857
L28.8736 -62.4373
L29.1942 -62.686
L29.5121 -62.932
L29.8263 -63.1752
L30.1361 -63.4157
L30.4406 -63.6536
L30.2289 -63.8891
L29.7427 -63.9096
L29.2584 -63.8046
L28.7761 -63.6912
L28.2961 -63.5693
L27.8184 -63.439
L27.3432 -63.3004
L26.8706 -63.1534
L26.4008 -62.9982
L25.9339 -62.8348
L25.4701 -62.6632
L25.0095 -62.4834
L24.5523 -62.2956
L24.0985 -62.0998
L23.6484 -61.896
L23.202 -61.6844
L22.7595 -61.4649
L22.3211 -61.2377
L21.8868 -61.0028
L21.4569 -60.7602
L21.0313 -60.5101
L20.6103 -60.2526
L20.194 -59.9877
L19.7825 -59.7154
L19.376 -59.436
L18.9745 -59.1494
L18.5782 -58.8557
L18.1872 -58.5551
L17.8017 -58.2476
L17.4217 -57.9333
L17.0473 -57.6124
L16.6787 -57.2849
L16.316 -56.9508
L15.9593 -56.6104
L15.6087 -56.2638
L15.2643 -55.9109
L14.9262 -55.552
L14.5946 -55.1872
L14.2695 -54.8164
L13.951 -54.44
L13.6392 -54.0579
L13.3342 -53.6704
L13.0361 -53.2774
L12.745 -52.8792
L12.461 -52.4759
L12.1842 -52.0675
L11.9146 -51.6543
L11.6524 -51.2362
L11.3975 -50.8136
L11.1502 -50.3864
L10.9104 -49.9548
L10.6783 -49.519
L10.4539 -49.0791
L10.2373 -48.6352
L10.0285 -48.1874
L9.82765 -47.7359
L9.63476 -47.2809
L9.4499 -46.8224
L9.27312 -46.3606
L9.10449 -45.8957
L8.94405 -45.4277
L8.79185 -44.9569
L8.64794 -44.4833
L8.51236 -44.0072
L8.38516 -43.5286
L8.26636 -43.0477
L8.15602 -42.5647
L8.05415 -42.0797
L7.9608 -41.5928
L7.87599 -41.1042
L7.79975 -40.6141
L7.73209 -40.1226
L7.67305 -39.6298
L7.62263 -39.1359
L7.58086 -38.641
L7.54775 -38.1454
L7.5233 -37.6491
L7.50753 -37.1523
L7.50044 -36.6551
L7.50202 -36.1577
L7.51229 -35.6603
L7.53124 -35.163
L7.55886 -34.666
L7.59514 -34.1693
L7.64007 -33.6732
L7.69364 -33.1779
L7.75584 -32.6833
L7.82664 -32.1898
L7.90602 -31.6975
L7.99395 -31.2064
L8.09042 -30.7169
L8.19539 -30.2289
L8.30883 -29.7427
L8.43071 -29.2584
L8.56098 -28.7761
L8.69961 -28.2961
L8.84656 -27.8184
L9.00178 -27.3432
L9.16522 -26.8706
L9.33684 -26.4008
L9.51657 -25.9339
L9.70438 -25.4701
L9.90019 -25.0095
L10.104 -24.5523
L10.3156 -24.0985
L10.5351 -23.6484
L10.7623 -23.202
L10.9972 -22.7595
L11.2398 -22.3211
L11.4899 -21.8868
L11.7474 -21.4569
L12.0123 -21.0313
L12.2846 -20.6103
L12.564 -20.194
L12.8506 -19.7825
L13.1443 -19.376
L13.4449 -18.9745
L13.7524 -18.5782
L14.0667 -18.1872
L14.3876 -17.8017
L14.7151 -17.4217
L15.0492 -17.0473
L15.3896 -16.6787
L15.7362 -16.316
L16.0891 -15.9593
L16.448 -15.6087
L16.8128 -15.2643
L17.1836 -14.9262
L17.56 -14.5946
L17.9421 -14.2695
z
" id="C0_2_0d7b31108f"/>
    </defs>
    <g clip-path="url(#p1bffca34e9)">
     <use style="fill:#ff0000;stroke:#000000;stroke-width:2.0;" x="0.0" xlink:href="#C0_0_a811fe30f3" y="72.0"/>
    </g>
    <g clip-path="url(#p1bffca34e9)">
     <use style="fill:#ffffff;stroke:#000000;stroke-width:2.0;" x="0.0" xlink:href="#C0_1_68c9061211" y="72.0"/>
    </g>
    <g clip-path="url(#p1bffca34e9)">
     <use style="fill:#ffffff;stroke:#000000;stroke-width:2.0;" x="0.0" xlink:href="#C0_2_0d7b31108f" y="72.0"/>
    </g>
   </g>
  </g>
 </g>
 <defs>
  <clipPath id="p1bffca34e9">
   <rect height="72.0" width="72.0" x="0.0" y="0.0"/>
  </clipPath>
 </defs>
</svg>
