<?xml version="1.0" encoding="utf-8" standalone="no"?>
<!DOCTYPE svg PUBLIC "-//W3C//DTD SVG 1.1//EN"
  "http://www.w3.org/Graphics/SVG/1.1/DTD/svg11.dtd">
<!-- Created with matplotlib (http://matplotlib.org/) -->
<svg height="72pt" version="1.1" viewBox="0 0 72 72" width="72pt" xmlns="http://www.w3.org/2000/svg" xmlns:xlink="http://www.w3.org/1999/xlink">
 <defs>
  <style type="text/css">
*{stroke-linecap:butt;stroke-linejoin:round;}
  </style>
 </defs>
 <g id="figure_1">
  <g id="patch_1">
   <path d="
M0 72
L72 72
L72 0
L0 0
z
" style="fill:none;"/>
  </g>
  <g id="axes_1">
   <g id="PatchCollection_1">
    <defs>
     <path d="
M36 -7.5
C43.5583 -7.5 50.808 -10.5029 56.1525 -15.8475
C61.4971 -21.192 64.5 -28.4417 64.5 -36
C64.5 -43.5583 61.4971 -50.808 56.1525 -56.1525
C50.808 -61.4971 43.5583 -64.5 36 -64.5
C28.4417 -64.5 21.192 -61.4971 15.8475 -56.1525
C10.5029 -50.808 7.5 -43.5583 7.5 -36
C7.5 -28.4417 10.5029 -21.192 15.8475 -15.8475
C21.192 -10.5029 28.4417 -7.5 36 -7.5
z
" id="C0_0_a811fe30f3"/>
     <path d="
M44.5527 -30.4676
L44.6914 -30.6865
L44.8289 -30.9062
L44.9654 -31.1268
L45.1009 -31.3481
L45.2355 -31.5704
L45.369 -31.7937
L45.5017 -32.018
L45.6334 -32.2434
L45.7643 -32.4699
L45.8943 -32.6977
L46.0234 -32.9267
L46.1518 -33.157
L46.2793 -33.3887
L46.406 -33.6218
L46.532 -33.8565
L46.6572 -34.0927
L46.7816 -34.3306
L46.9053 -34.5702
L47.0283 -34.8115
L47.1505 -35.0547
L47.272 -35.2998
L47.3928 -35.5469
L47.5128 -35.796
L47.6322 -36.0472
L47.7507 -36.3006
L47.8685 -36.5563
L47.9856 -36.8143
L48.1019 -37.0746
L48.2174 -37.3375
L48.3321 -37.6029
L48.446 -37.871
L48.559 -38.1417
L48.6711 -38.4152
L48.7823 -38.6915
L48.8926 -38.9707
L49.0019 -39.253
L49.1102 -39.5383
L49.2173 -39.8267
L49.3234 -40.1183
L49.4282 -40.4132
L49.5318 -40.7114
L49.6341 -41.013
L49.735 -41.3181
L49.8344 -41.6267
L49.9323 -41.9389
L50.0285 -42.2548
L50.1229 -42.5743
L50.2156 -42.8976
L50.3062 -43.2246
L50.3947 -43.5555
L50.4811 -43.8902
L50.565 -44.2289
L50.6465 -44.5714
L50.7253 -44.9178
L50.8012 -45.2681
L50.8742 -45.6224
L50.944 -45.9805
L51.0103 -46.3426
L51.073 -46.7084
L51.1319 -47.0781
L51.1867 -47.4514
L51.2372 -47.8284
L51.283 -48.209
L51.324 -48.5929
L51.3597 -48.9802
L51.3898 -49.3706
L51.414 -49.764
L51.432 -50.1601
L51.4433 -50.5588
L51.4474 -50.9597
L51.4439 -51.3627
L51.4323 -51.7672
L51.412 -52.173
L51.3824 -52.5797
L51.3428 -52.9867
L51.2925 -53.3935
L51.2307 -53.7995
L51.1564 -54.204
L51.0686 -54.6062
L50.9662 -55.0051
L50.8479 -55.3998
L50.7123 -55.7891
L50.558 -56.1717
L50.3832 -56.5461
L50.1865 -56.9106
L49.9661 -57.2636
L49.7206 -57.6033
L49.4488 -57.9278
L49.1499 -58.2355
L48.8237 -58.5249
L48.4708 -58.7947
L48.0921 -59.0441
L47.6895 -59.2727
L47.2651 -59.4803
L46.8215 -59.6671
L46.3612 -59.8336
L45.8869 -59.9803
L45.401 -60.108
L44.9059 -60.2174
L44.4037 -60.3093
L43.8963 -60.3844
L43.3854 -60.4435
L42.8725 -60.4874
L42.3588 -60.5167
L41.8454 -60.532
L41.3335 -60.5341
L40.8239 -60.5235
L40.3172 -60.5008
L39.8143 -60.4667
L39.3156 -60.4216
L38.8217 -60.366
L38.333 -60.3006
L37.8499 -60.2257
L37.3726 -60.142
L36.9015 -60.0497
L36.4368 -59.9494
L35.9787 -59.8415
L35.5272 -59.7264
L35.0827 -59.6045
L34.645 -59.4762
L34.2143 -59.3418
L33.7907 -59.2018
L33.3742 -59.0563
L32.9647 -58.9058
L32.5622 -58.7505
L32.1667 -58.5907
L31.7782 -58.4267
L31.3967 -58.2588
L31.0219 -58.0872
L30.654 -57.9121
L30.2927 -57.7337
L29.938 -57.5523
L29.5898 -57.368
L29.2479 -57.181
L28.9124 -56.9915
L28.583 -56.7996
L28.2597 -56.6056
L27.9424 -56.4094
L27.6308 -56.2113
L27.325 -56.0114
L27.0248 -55.8098
L26.73 -55.6065
L26.4406 -55.4017
L26.1564 -55.1954
L25.8773 -54.9878
L25.6033 -54.7788
L25.3341 -54.5687
L25.0696 -54.3573
L24.8099 -54.1448
L24.5546 -53.9313
L24.3039 -53.7166
L24.0574 -53.501
L23.8152 -53.2844
L23.5771 -53.0668
L23.343 -52.8482
L23.1128 -52.6288
L22.8865 -52.4084
L22.6639 -52.1871
L22.445 -51.965
L22.2297 -51.7419
L22.0178 -51.5179
L21.8093 -51.293
L21.6041 -51.0672
L21.4022 -50.8404
L21.2034 -50.6127
L21.0078 -50.384
L20.8151 -50.1544
L20.6255 -49.9237
L20.4387 -49.692
L20.2548 -49.4593
L20.0736 -49.2254
L19.8951 -48.9905
L19.7194 -48.7544
L19.5462 -48.5171
L19.3756 -48.2785
L19.2076 -48.0387
L19.042 -47.7976
L18.8788 -47.5551
L18.7181 -47.3113
L18.5597 -47.066
L18.4036 -46.8192
L18.2499 -46.5708
L18.0984 -46.3209
L17.9492 -46.0693
L17.8022 -45.816
L17.6575 -45.561
L17.5149 -45.3041
L17.3745 -45.0454
L17.2362 -44.7847
L17.1002 -44.5221
L16.9663 -44.2573
L16.8345 -43.9904
L16.7049 -43.7214
L16.5774 -43.45
L16.4522 -43.1764
L16.3291 -42.9003
L16.2082 -42.6217
L16.0895 -42.3406
L15.973 -42.0569
L15.8588 -41.7704
L15.7469 -41.4812
L15.6373 -41.1891
L15.53 -40.8941
L15.4252 -40.596
L15.3228 -40.2949
L15.2229 -39.9906
L15.1256 -39.683
L15.0308 -39.372
L14.9388 -39.0577
L14.8495 -38.7398
L14.763 -38.4184
L14.6794 -38.0932
L14.5988 -37.7643
L14.5213 -37.4316
L14.447 -37.095
L14.376 -36.7543
L14.3084 -36.4096
L14.2443 -36.0608
L14.1838 -35.7077
L14.1272 -35.3504
L14.0744 -34.9886
L14.0258 -34.6225
L13.9814 -34.2519
L13.9414 -33.8767
L13.9059 -33.497
L13.8752 -33.1127
L13.8495 -32.7237
L13.8289 -32.33
L13.8136 -31.9317
L13.8039 -31.5286
L13.8001 -31.1208
L13.8022 -30.7084
L13.8106 -30.2912
L13.8255 -29.8695
L13.8472 -29.4432
L13.876 -29.0124
L13.912 -28.5772
L13.9557 -28.1377
L14.0072 -27.6941
L14.0669 -27.2465
L14.1352 -26.795
L14.2121 -26.34
L14.2982 -25.8816
L14.3937 -25.4201
L14.4989 -24.9559
L14.6141 -24.4892
L14.7397 -24.0205
L14.8759 -23.5502
L15.023 -23.0788
L15.1814 -22.6068
L15.3512 -22.1349
L15.5329 -21.6637
L15.7266 -21.1941
L15.9326 -20.7267
L16.1511 -20.2626
L16.3823 -19.8028
L16.6263 -19.3486
L16.8834 -18.9011
L17.1534 -18.462
L17.4366 -18.0327
L17.7328 -17.6153
L18.0419 -17.2117
L18.3638 -16.8241
L18.6981 -16.4551
L19.0444 -16.107
L19.4021 -15.7827
L19.7706 -15.4846
L20.1488 -15.2151
L20.5358 -14.9761
L20.9305 -14.769
L21.3314 -14.5944
L21.7375 -14.4523
L22.1473 -14.3419
L22.5596 -14.2618
L22.9733 -14.21
L23.3875 -14.1846
L23.8012 -14.1833
L24.2137 -14.204
L24.6242 -14.2446
L25.0324 -14.3032
L25.4376 -14.378
L25.8395 -14.4675
L26.2378 -14.5701
L26.6321 -14.6848
L27.0222 -14.8103
L27.408 -14.9456
L27.7892 -15.0899
L28.1657 -15.2422
L28.5373 -15.402
L28.904 -15.5684
L29.2657 -15.7409
L29.6223 -15.919
L29.9737 -16.1021
L30.32 -16.2898
L30.661 -16.4816
L30.9969 -16.6771
L31.3275 -16.876
L31.6529 -17.0779
L31.9732 -17.2825
L32.2883 -17.4895
L32.5983 -17.6987
L32.9033 -17.9098
L33.2032 -18.1226
L33.4982 -18.3369
L33.7883 -18.5524
L34.0736 -18.769
L34.3541 -18.9866
L34.6299 -19.2049
L34.9012 -19.4238
L35.1679 -19.6433
L35.4302 -19.8632
L35.6881 -20.0833
L35.9418 -20.3037
L36.1913 -20.5242
L36.4367 -20.7447
L36.6782 -20.9651
L36.9157 -21.1855
L37.1494 -21.4057
L37.3793 -21.6258
L37.6056 -21.8456
L37.8284 -22.0651
L38.0477 -22.2844
L38.2636 -22.5033
L38.4763 -22.7219
L38.6857 -22.9402
L38.892 -23.1581
L39.0953 -23.3756
L39.2956 -23.5927
L39.493 -23.8095
L39.6876 -24.026
L39.8795 -24.2421
L40.0688 -24.4578
L40.2554 -24.6732
L40.4396 -24.8883
L40.6214 -25.1031
L40.8008 -25.3177
L40.9779 -25.532
L41.1528 -25.746
L41.3255 -25.9599
L41.4961 -26.1736
L41.6647 -26.3872
L41.8313 -26.6006
L41.996 -26.814
L42.1588 -27.0273
L42.3199 -27.2407
L42.4792 -27.454
L42.6368 -27.6675
L42.7927 -27.881
L42.9471 -28.0947
L43.0999 -28.3086
L43.2512 -28.5227
L43.4011 -28.7371
L43.5495 -28.9518
L43.6966 -29.1669
L43.8424 -29.3824
L43.9869 -29.5983
L44.1301 -29.8147
L44.2721 -30.0317
z
" id="C0_1_c0b7bbb13f"/>
    </defs>
    <g clip-path="url(#p1bffca34e9)">
     <use style="fill:#ffffff;stroke:#000000;stroke-width:2.0;" x="0.0" xlink:href="#C0_0_a811fe30f3" y="72.0"/>
    </g>
    <g clip-path="url(#p1bffca34e9)">
     <use style="fill:#ff0000;stroke:#000000;stroke-width:2.0;" x="0.0" xlink:href="#C0_1_c0b7bbb13f" y="72.0"/>
    </g>
   </g>
  </g>
 </g>
 <defs>
  <clipPath id="p1bffca34e9">
   <rect height="72.0" width="72.0" x="0.0" y="0.0"/>
  </clipPath>
 </defs>
</svg>
