<?xml version="1.0" encoding="utf-8" standalone="no"?>
<!DOCTYPE svg PUBLIC "-//W3C//DTD SVG 1.1//EN"
  "http://www.w3.org/Graphics/SVG/1.1/DTD/svg11.dtd">
<!-- Created with matplotlib (http://matplotlib.org/) -->
<svg height="72pt" version="1.1" viewBox="0 0 72 72" width="72pt" xmlns="http://www.w3.org/2000/svg" xmlns:xlink="http://www.w3.org/1999/xlink">
 <defs>
  <style type="text/css">
*{stroke-linecap:butt;stroke-linejoin:round;}
  </style>
 </defs>
 <g id="figure_1">
  <g id="patch_1">
   <path d="
M0 72
L72 72
L72 0
L0 0
z
" style="fill:none;"/>
  </g>
  <g id="axes_1">
   <g id="PatchCollection_1">
    <defs>
     <path d="
M36 -7.5
C43.5583 -7.5 50.808 -10.5029 56.1525 -15.8475
C61.4971 -21.192 64.5 -28.4417 64.5 -36
C64.5 -43.5583 61.4971 -50.808 56.1525 -56.1525
C50.808 -61.4971 43.5583 -64.5 36 -64.5
C28.4417 -64.5 21.192 -61.4971 15.8475 -56.1525
C10.5029 -50.808 7.5 -43.5583 7.5 -36
C7.5 -28.4417 10.5029 -21.192 15.8475 -15.8475
C21.192 -10.5029 28.4417 -7.5 36 -7.5
z
" id="C0_0_a811fe30f3"/>
     <path d="
M49.4378 -11.056
L49.2741 -11.2382
L49.1167 -11.4267
L48.9653 -11.6211
L48.8194 -11.8209
L48.6788 -12.0257
L48.543 -12.2351
L48.4119 -12.4488
L48.285 -12.6665
L48.162 -12.8877
L48.0429 -13.1122
L47.9272 -13.3397
L47.8147 -13.5699
L47.7053 -13.8026
L47.5987 -14.0375
L47.4948 -14.2745
L47.3933 -14.5132
L47.2941 -14.7536
L47.1971 -14.9953
L47.1021 -15.2384
L47.009 -15.4826
L46.9176 -15.7277
L46.8279 -15.9736
L46.7397 -16.2203
L46.653 -16.4676
L46.5676 -16.7153
L46.4835 -16.9635
L46.4006 -17.2119
L46.3188 -17.4606
L46.2381 -17.7095
L46.1583 -17.9584
L46.0795 -18.2074
L46.0015 -18.4563
L45.9244 -18.7052
L45.848 -18.954
L45.7723 -19.2027
L45.6973 -19.4512
L45.623 -19.6994
L45.5493 -19.9475
L45.4761 -20.1953
L45.4035 -20.4428
L45.3313 -20.6901
L45.2597 -20.9371
L45.1885 -21.1838
L45.1177 -21.4303
L45.0472 -21.6765
L44.9772 -21.9223
L44.9075 -22.168
L44.8381 -22.4133
L44.769 -22.6584
L44.7001 -22.9033
L44.6315 -23.1479
L44.5632 -23.3924
L44.4951 -23.6366
L44.4271 -23.8807
L44.3594 -24.1246
L44.2918 -24.3684
L44.2243 -24.6121
L44.157 -24.8557
L44.0898 -25.0993
L44.0227 -25.3428
L43.9556 -25.5863
L43.8887 -25.8299
L43.8218 -26.0736
L43.7549 -26.3173
L43.6881 -26.5612
L43.6212 -26.8052
L43.5544 -27.0494
L43.4875 -27.2939
L43.4207 -27.5386
L43.3538 -27.7836
L43.2198 -28.0289
L43.1527 -28.2746
L43.0855 -28.5207
L43.0183 -28.7673
L42.9509 -29.0143
L42.8834 -29.2618
L42.8158 -29.5099
L42.7481 -29.7586
L42.6802 -30.008
L42.6121 -30.258
L42.5439 -30.5087
L42.4755 -30.7601
L42.407 -31.0123
L42.3382 -31.2654
L42.2693 -31.5193
L42.2002 -31.7742
L42.1309 -32.0299
L42.0613 -32.2867
L41.9916 -32.5445
L41.9216 -32.8033
L41.8514 -33.0632
L41.781 -33.3243
L41.7104 -33.5865
L41.6395 -33.85
L41.5684 -34.1146
L41.4971 -34.3806
L41.4256 -34.6479
L41.3539 -34.9165
L41.282 -35.1865
L41.2098 -35.4579
L41.1375 -35.7308
L41.065 -36.0051
L40.9923 -36.2809
L40.9194 -36.5583
L40.8464 -36.8372
L40.7733 -37.1177
L40.7001 -37.3998
L40.6269 -37.6835
L40.5535 -37.9688
L40.4802 -38.2558
L40.4069 -38.5445
L40.3336 -38.8348
L40.2604 -39.1268
L40.1874 -39.4205
L40.1145 -39.7158
L40.0419 -40.0129
L39.9696 -40.3116
L39.8977 -40.6119
L39.8262 -40.9139
L39.7553 -41.2176
L39.6849 -41.5228
L39.6152 -41.8296
L39.5464 -42.1379
L39.4784 -42.4477
L39.4114 -42.7589
L39.3456 -43.0716
L39.2811 -43.3855
L39.218 -43.7007
L39.1565 -44.0171
L39.0968 -44.3346
L39.039 -44.6532
L38.9833 -44.9726
L38.9299 -45.2928
L38.8791 -45.6138
L38.8311 -45.9353
L38.7862 -46.2572
L38.7445 -46.5795
L38.7064 -46.9019
L38.6722 -47.2243
L38.6422 -47.5465
L38.6167 -47.8683
L38.5961 -48.1896
L38.5806 -48.5101
L38.5708 -48.8297
L38.5668 -49.1481
L38.5692 -49.4651
L38.5783 -49.7804
L38.5946 -50.0938
L38.6183 -50.4051
L38.65 -50.714
L38.69 -51.0202
L38.7387 -51.3235
L38.7964 -51.6235
L38.8636 -51.9201
L38.9405 -52.2128
L39.0275 -52.5014
L39.1248 -52.7857
L39.2326 -53.0653
L39.3512 -53.34
L39.4807 -53.6095
L39.6212 -53.8734
L39.7728 -54.1316
L39.9354 -54.3839
L40.109 -54.6298
L40.2936 -54.8693
L40.4889 -55.1021
L40.6948 -55.3279
L40.9111 -55.5467
L41.1375 -55.7581
L41.3736 -55.9622
L41.6191 -56.1586
L41.8737 -56.3473
L42.1369 -56.5281
L42.4084 -56.701
L42.6877 -56.8659
L42.9745 -57.0226
L43.2681 -57.1712
L43.5683 -57.3116
L43.8746 -57.4438
L44.1864 -57.5677
L44.5035 -57.6833
L44.8253 -57.7907
L45.1515 -57.8898
L45.4816 -57.9807
L45.8153 -58.0634
L46.1522 -58.138
L46.4919 -58.2045
L46.834 -58.2629
L47.1783 -58.3134
L47.5243 -58.3559
L47.8719 -58.3906
L48.2207 -58.4176
L48.5704 -58.4369
L48.9208 -58.4485
L49.2716 -58.4527
L49.6226 -58.4494
L49.9736 -58.4388
L50.3243 -58.421
L50.6746 -58.396
L51.0243 -58.364
L51.3733 -58.325
L51.7213 -58.2791
L52.0682 -58.2265
L52.4139 -58.1672
L52.7583 -58.1013
L53.1011 -58.0288
L53.4424 -57.95
L53.7821 -57.8649
L54.1199 -57.7735
L54.4559 -57.6759
L54.9026 -57.5722
L55.272 -57.3293
L55.6355 -56.9962
L55.993 -56.6566
L56.3444 -56.3108
L56.6897 -55.9588
L57.0286 -55.6007
L57.3611 -55.2366
L57.6871 -54.8667
L58.0066 -54.491
L58.3193 -54.1097
L58.6252 -53.7229
L58.9242 -53.3307
L59.2162 -52.9332
L59.5012 -52.5305
L59.779 -52.1228
L60.0495 -51.7102
L60.3128 -51.2928
L60.5686 -50.8707
L60.8169 -50.4442
L61.0577 -50.0132
L61.2909 -49.5779
L61.5163 -49.1385
L61.734 -48.6952
L61.9438 -48.2479
L62.1458 -47.7969
L62.3397 -47.3423
L62.5257 -46.8843
L62.7036 -46.423
L62.8733 -45.9584
L63.0348 -45.4909
L63.1881 -45.0204
L63.3332 -44.5472
L63.4699 -44.0714
L63.5982 -43.5932
L63.7181 -43.1126
L63.8296 -42.6299
L63.9326 -42.1451
L64.0271 -41.6585
L64.1131 -41.1701
L64.1905 -40.6802
L64.2593 -40.1888
L64.3195 -39.6962
L64.3711 -39.2025
L64.414 -38.7077
L64.4483 -38.2122
L64.4739 -37.7159
L64.4909 -37.2192
L64.4991 -36.7221
L64.4987 -36.2247
L64.4896 -35.7273
L64.4718 -35.23
L64.4454 -34.7329
L64.4103 -34.2362
L64.3665 -33.74
L64.3141 -33.2445
L64.253 -32.7499
L64.1834 -32.2562
L64.1052 -31.7637
L64.0184 -31.2725
L63.9231 -30.7827
L63.8192 -30.2945
L63.7069 -29.808
L63.5862 -29.3235
L63.457 -28.8409
L63.3195 -28.3606
L63.1737 -27.8826
L63.0196 -27.407
L62.8573 -26.9341
L62.6867 -26.4639
L62.5081 -25.9966
L62.3214 -25.5324
L62.1266 -25.0714
L61.9239 -24.6137
L61.7133 -24.1594
L61.4949 -23.7088
L61.2687 -23.2619
L61.0348 -22.8189
L60.7933 -22.3799
L60.5442 -21.9451
L60.2877 -21.5145
L60.0238 -21.0883
L59.7525 -20.6667
L59.474 -20.2498
L59.1884 -19.8377
L58.8956 -19.4304
L58.596 -19.0283
L58.2894 -18.6313
L57.976 -18.2396
L57.656 -17.8533
L57.3293 -17.4725
L56.9962 -17.0974
L56.6566 -16.728
L56.3108 -16.3645
L55.9588 -16.007
L55.6007 -15.6556
L55.2366 -15.3103
L54.8667 -14.9714
L54.491 -14.6389
L54.1097 -14.3129
L53.7229 -13.9934
L53.3307 -13.6807
L52.9332 -13.3748
L52.5305 -13.0758
L52.1228 -12.7838
L51.7102 -12.4988
L51.2928 -12.221
L50.8707 -11.9505
L50.4442 -11.6872
L50.0132 -11.4314
z
" id="C0_1_32ba2118ed"/>
     <path d="
M17.2437 -14.5757
L17.0909 -14.8906
L16.9428 -15.205
L16.7992 -15.5191
L16.6601 -15.8326
L16.5254 -16.1457
L16.395 -16.4583
L16.269 -16.7704
L16.1471 -17.0819
L16.0293 -17.3928
L15.9155 -17.7032
L15.8058 -18.013
L15.6999 -18.3221
L15.5979 -18.6307
L15.4996 -18.9387
L15.405 -19.2461
L15.314 -19.5529
L15.2267 -19.8592
L15.1428 -20.1649
L15.0623 -20.47
L14.9852 -20.7746
L14.9115 -21.0788
L14.841 -21.3824
L14.7738 -21.6856
L14.7097 -21.9883
L14.6488 -22.2906
L14.5909 -22.5925
L14.536 -22.8941
L14.4842 -23.1953
L14.4353 -23.4962
L14.3893 -23.7969
L14.3461 -24.0973
L14.3059 -24.3976
L14.2684 -24.6976
L14.2337 -24.9976
L14.2017 -25.2974
L14.1725 -25.5972
L14.146 -25.897
L14.1222 -26.1968
L14.101 -26.4966
L14.0825 -26.7965
L14.0666 -27.0966
L14.0533 -27.3968
L14.0426 -27.6973
L14.0345 -27.998
L14.029 -28.299
L14.0261 -28.6003
L14.0257 -28.902
L14.028 -29.2041
L14.0327 -29.5067
L14.0401 -29.8097
L14.05 -30.1133
L14.0625 -30.4174
L14.0776 -30.7222
L14.0953 -31.0276
L14.1156 -31.3337
L14.1385 -31.6405
L14.164 -31.948
L14.1921 -32.2564
L14.2229 -32.5656
L14.2563 -32.8756
L14.2925 -33.1866
L14.3313 -33.4985
L14.3728 -33.8113
L14.4171 -34.1252
L14.4642 -34.4401
L14.514 -34.756
L14.5666 -35.073
L14.6221 -35.3911
L14.6804 -35.7104
L14.7416 -36.0308
L14.8057 -36.3524
L14.8727 -36.6751
L14.9427 -36.9991
L15.0157 -37.3243
L15.0916 -37.6508
L15.1706 -37.9785
L15.2526 -38.3074
L15.3377 -38.6376
L15.4259 -38.969
L15.5172 -39.3017
L15.6116 -39.6357
L15.7092 -39.9709
L15.8099 -40.3073
L15.9137 -40.6449
L16.0207 -40.9837
L16.1309 -41.3237
L16.2442 -41.6648
L16.3606 -42.0071
L16.4802 -42.3504
L16.6029 -42.6947
L16.7286 -43.04
L16.8574 -43.3862
L16.9892 -43.7333
L17.1239 -44.0812
L17.2615 -44.4299
L17.4018 -44.7793
L17.5449 -45.1292
L17.6906 -45.4797
L17.8387 -45.8306
L17.9893 -46.1818
L18.142 -46.5333
L18.2968 -46.885
L18.4535 -47.2367
L18.6119 -47.5884
L18.7718 -47.9398
L18.9329 -48.291
L19.0951 -48.6418
L19.2579 -48.9921
L19.4212 -49.3417
L19.5846 -49.6906
L19.7479 -50.0385
L19.9105 -50.3855
L20.0723 -50.7312
L20.2327 -51.0758
L20.3914 -51.4189
L20.548 -51.7604
L20.7019 -52.1003
L20.8529 -52.4385
L21.0004 -52.7747
L21.144 -53.1089
L21.2832 -53.441
L21.4176 -53.7709
L21.5467 -54.0983
L21.6702 -54.4234
L21.7875 -54.7458
L21.8985 -55.0656
L22.0025 -55.3826
L22.0995 -55.6967
L22.1891 -56.0079
L22.271 -56.316
L22.345 -56.621
L22.411 -56.9227
L22.4689 -57.2211
L22.5187 -57.516
L22.5602 -57.8075
L22.5935 -58.0953
L22.6187 -58.3794
L22.6359 -58.6597
L22.6451 -58.9362
L22.6466 -59.2087
L22.6405 -59.4771
L22.627 -59.7415
L22.6064 -60.0016
L22.5789 -60.2574
L22.5447 -60.5089
L22.5041 -60.756
L21.9892 -60.9986
L21.5582 -60.8183
L21.1316 -60.57
L20.7096 -60.3142
L20.2921 -60.051
L19.8795 -59.7805
L19.4718 -59.5028
L19.0691 -59.2178
L18.6716 -58.9258
L18.2793 -58.6269
L17.8924 -58.321
L17.5111 -58.0083
L17.1354 -57.689
L16.7654 -57.363
L16.4013 -57.0305
L16.0432 -56.6916
L15.6911 -56.3464
L15.3453 -55.995
L15.0057 -55.6375
L14.6725 -55.2741
L14.3458 -54.9047
L14.0257 -54.5296
L13.7124 -54.1489
L13.4057 -53.7626
L13.106 -53.3709
L12.8133 -52.974
L12.5276 -52.5718
L12.249 -52.1646
L11.9777 -51.7525
L11.7138 -51.3356
L11.4572 -50.914
L11.2081 -50.4879
L10.9665 -50.0574
L10.7326 -49.6226
L10.5063 -49.1836
L10.2879 -48.7406
L10.0772 -48.2937
L9.87448 -47.8431
L9.67969 -47.3889
L9.49293 -46.9312
L9.31423 -46.4702
L9.14367 -46.006
L8.98129 -45.5387
L8.82713 -45.0686
L8.68126 -44.5957
L8.5437 -44.1201
L8.41451 -43.6421
L8.29372 -43.1618
L8.18137 -42.6792
L8.0775 -42.1947
L7.98213 -41.7082
L7.89529 -41.22
L7.81702 -40.7303
L7.74733 -40.2391
L7.68625 -39.7465
L7.63379 -39.2529
L7.58997 -38.7583
L7.55481 -38.2628
L7.52831 -37.7666
L7.51048 -37.2699
L7.50133 -36.7728
L7.50086 -36.2755
L7.50908 -35.7781
L7.52597 -35.2807
L7.55154 -34.7836
L7.58577 -34.2869
L7.62865 -33.7906
L7.68018 -33.2951
L7.74034 -32.8003
L7.8091 -32.3066
L7.88645 -31.8139
L7.97237 -31.3226
L8.06682 -30.8326
L8.16978 -30.3443
L8.28122 -29.8576
L8.4011 -29.3729
L8.52939 -28.8901
L8.66604 -28.4095
L8.81103 -27.9312
L8.96429 -27.4554
L9.12579 -26.9822
L9.29547 -26.5118
L9.4733 -26.0442
L9.6592 -25.5796
L9.85312 -25.1183
L10.055 -24.6602
L10.2648 -24.2056
L10.4824 -23.7546
L10.7078 -23.3073
L10.9409 -22.8639
L11.1817 -22.4245
L11.43 -21.9892
L11.6858 -21.5582
L11.949 -21.1316
L12.2195 -20.7096
L12.4972 -20.2921
L12.7822 -19.8795
L13.0742 -19.4718
L13.3731 -19.0691
L13.679 -18.6716
L13.9917 -18.2793
L14.311 -17.8924
L14.637 -17.5111
L14.9695 -17.1354
L15.3084 -16.7654
L15.6536 -16.4013
L16.005 -16.0432
L16.3625 -15.6911
L16.7259 -15.3453
z
" id="C0_2_f51ed60022"/>
    </defs>
    <g clip-path="url(#p1bffca34e9)">
     <use style="fill:#ffffff;stroke:#000000;stroke-width:2.0;" x="0.0" xlink:href="#C0_0_a811fe30f3" y="72.0"/>
    </g>
    <g clip-path="url(#p1bffca34e9)">
     <use style="fill:#ff0000;stroke:#000000;stroke-width:2.0;" x="0.0" xlink:href="#C0_1_32ba2118ed" y="72.0"/>
    </g>
    <g clip-path="url(#p1bffca34e9)">
     <use style="fill:#ff0000;stroke:#000000;stroke-width:2.0;" x="0.0" xlink:href="#C0_2_f51ed60022" y="72.0"/>
    </g>
   </g>
  </g>
 </g>
 <defs>
  <clipPath id="p1bffca34e9">
   <rect height="72.0" width="72.0" x="0.0" y="0.0"/>
  </clipPath>
 </defs>
</svg>
