<?xml version="1.0" encoding="utf-8" standalone="no"?>
<!DOCTYPE svg PUBLIC "-//W3C//DTD SVG 1.1//EN"
  "http://www.w3.org/Graphics/SVG/1.1/DTD/svg11.dtd">
<!-- Created with matplotlib (http://matplotlib.org/) -->
<svg height="72pt" version="1.1" viewBox="0 0 72 72" width="72pt" xmlns="http://www.w3.org/2000/svg" xmlns:xlink="http://www.w3.org/1999/xlink">
 <defs>
  <style type="text/css">
*{stroke-linecap:butt;stroke-linejoin:round;}
  </style>
 </defs>
 <g id="figure_1">
  <g id="patch_1">
   <path d="
M0 72
L72 72
L72 0
L0 0
z
" style="fill:none;"/>
  </g>
  <g id="axes_1">
   <g id="PatchCollection_1">
    <defs>
     <path d="
M36 -7.5
C43.5583 -7.5 50.808 -10.5029 56.1525 -15.8475
C61.4971 -21.192 64.5 -28.4417 64.5 -36
C64.5 -43.5583 61.4971 -50.808 56.1525 -56.1525
C50.808 -61.4971 43.5583 -64.5 36 -64.5
C28.4417 -64.5 21.192 -61.4971 15.8475 -56.1525
C10.5029 -50.808 7.5 -43.5583 7.5 -36
C7.5 -28.4417 10.5029 -21.192 15.8475 -15.8475
C21.192 -10.5029 28.4417 -7.5 36 -7.5
z
" id="C0_0_a811fe30f3"/>
     <path d="
M48.4406 -61.4594
L48.1968 -61.3121
L47.9896 -61.1309
L47.8153 -60.9195
L47.6694 -60.6815
L47.5474 -60.4208
L47.4452 -60.1409
L47.3588 -59.8448
L47.285 -59.5353
L47.2211 -59.2146
L47.1647 -58.8847
L47.1141 -58.5473
L47.0678 -58.2037
L47.0245 -57.8552
L46.9832 -57.5028
L46.9433 -57.1472
L46.904 -56.7894
L46.865 -56.4299
L46.8258 -56.0692
L46.7861 -55.708
L46.7457 -55.3467
L46.7044 -54.9856
L46.6622 -54.625
L46.6188 -54.2654
L46.5743 -53.907
L46.5285 -53.55
L46.4816 -53.1946
L46.4334 -52.841
L46.384 -52.4895
L46.3334 -52.1401
L46.2816 -51.793
L46.2287 -51.4482
L46.1746 -51.106
L46.1195 -50.7664
L46.0633 -50.4293
L46.0061 -50.095
L45.948 -49.7635
L45.889 -49.4347
L45.8291 -49.1087
L45.7683 -48.7855
L45.7068 -48.4652
L45.6445 -48.1477
L45.5815 -47.833
L45.5178 -47.5211
L45.4535 -47.212
L45.3886 -46.9057
L45.323 -46.6021
L45.257 -46.3012
L45.1904 -46.003
L45.1233 -45.7074
L45.0557 -45.4144
L44.9877 -45.1239
L44.9192 -44.8359
L44.8503 -44.5504
L44.781 -44.2672
L44.7113 -43.9864
L44.6412 -43.7079
L44.5708 -43.4315
L44.5 -43.1573
L44.4289 -42.8852
L44.3574 -42.6151
L44.2856 -42.3471
L44.2134 -42.0809
L44.1409 -41.8165
L44.0681 -41.554
L43.995 -41.2931
L43.9215 -41.0339
L43.8477 -40.7763
L43.7736 -40.5203
L43.6991 -40.2657
L43.6243 -40.0125
L43.5491 -39.7606
L43.4736 -39.51
L43.3977 -39.2606
L43.3215 -39.0124
L43.2449 -38.7652
L43.1678 -38.5191
L43.0904 -38.2739
L43.0126 -38.0296
L42.9343 -37.7861
L42.8556 -37.5434
L42.7765 -37.3014
L42.6969 -37.0601
L42.6168 -36.8193
L42.5362 -36.5791
L42.4551 -36.3393
L42.3734 -36.0999
L42.2912 -35.8609
L42.1251 -35.6221
L42.0411 -35.3836
L41.9565 -35.1452
L41.8713 -34.9069
L41.7854 -34.6686
L41.6987 -34.4304
L41.6114 -34.192
L41.5233 -33.9535
L41.4344 -33.7148
L41.3447 -33.4759
L41.2542 -33.2366
L41.1629 -32.997
L41.0706 -32.7569
L40.9775 -32.5164
L40.8834 -32.2753
L40.7884 -32.0336
L40.6923 -31.7912
L40.5952 -31.5481
L40.497 -31.3042
L40.3978 -31.0595
L40.2974 -30.8139
L40.1958 -30.5673
L40.093 -30.3197
L39.989 -30.0711
L39.8837 -29.8214
L39.777 -29.5704
L39.6691 -29.3183
L39.5597 -29.0649
L39.4488 -28.8101
L39.3365 -28.554
L39.2227 -28.2964
L39.1073 -28.0373
L38.9903 -27.7767
L38.8716 -27.5145
L38.7512 -27.2507
L38.6291 -26.9852
L38.5052 -26.7179
L38.3795 -26.4489
L38.2518 -26.1781
L38.1223 -25.9055
L37.9908 -25.631
L37.8573 -25.3546
L37.7217 -25.0762
L37.584 -24.7959
L37.4441 -24.5136
L37.3021 -24.2293
L37.1578 -23.9429
L37.0113 -23.6545
L36.8624 -23.3641
L36.7113 -23.0717
L36.5577 -22.7772
L36.4017 -22.4807
L36.2433 -22.1821
L36.0825 -21.8816
L35.9192 -21.5791
L35.7534 -21.2747
L35.5851 -20.9684
L35.4144 -20.6603
L35.2412 -20.3504
L35.0656 -20.0389
L34.8876 -19.7257
L34.7072 -19.411
L34.5246 -19.0949
L34.3397 -18.7774
L34.1527 -18.4588
L33.9638 -18.139
L33.773 -17.8184
L33.5806 -17.497
L33.3868 -17.175
L33.1919 -16.8525
L32.996 -16.5298
L32.7997 -16.2071
L32.6034 -15.8844
L32.4076 -15.5622
L32.2129 -15.2405
L32.0201 -14.9196
L31.8302 -14.5998
L31.6441 -14.2812
L31.4633 -13.9641
L31.2892 -13.6488
L31.124 -13.3355
L30.9699 -13.0244
L30.8297 -12.7158
L30.7068 -12.4098
L30.6053 -12.1067
L30.5297 -11.8068
L30.4852 -11.5102
L30.4772 -11.2173
L30.5112 -10.9283
L30.592 -10.6437
L30.723 -10.364
L30.9061 -10.0898
L31.1409 -9.82191
L31.4252 -9.56132
L31.7554 -9.30901
L32.127 -9.06595
L32.5349 -8.83312
L32.9745 -8.61139
L33.4411 -8.40152
L33.9307 -8.20417
L34.4397 -8.01986
L34.965 -7.84905
L35.504 -7.69207
L36.0006 -7.54919
L36.498 -7.5
L36.9952 -7.50435
L37.4922 -7.51738
L37.9887 -7.53909
L38.4845 -7.56947
L38.9797 -7.6085
L39.4739 -7.65619
L39.967 -7.71251
L40.459 -7.77744
L40.9496 -7.85098
L41.4386 -7.93308
L41.9261 -8.02374
L42.4117 -8.12292
L42.8954 -8.23059
L43.3769 -8.34672
L43.8562 -8.47127
L44.3332 -8.60421
L44.8075 -8.74549
L45.2793 -8.89507
L45.7481 -9.05291
L46.214 -9.21896
L46.6768 -9.39317
L47.1364 -9.57548
L47.5925 -9.76584
L48.0452 -9.9642
L48.4941 -10.1705
L48.9393 -10.3846
L49.3805 -10.6066
L49.8176 -10.8363
L50.2505 -11.0736
L50.6791 -11.3186
L51.1032 -11.571
L51.5227 -11.8309
L51.9375 -12.0982
L52.3474 -12.3728
L52.7524 -12.6545
L53.1522 -12.9434
L53.5468 -13.2392
L53.9361 -13.5421
L54.3199 -13.8517
L54.6981 -14.1681
L55.0707 -14.4912
L55.4374 -14.8208
L55.7982 -15.1568
L56.153 -15.4992
L56.5016 -15.8479
L56.844 -16.2027
L57.18 -16.5635
L57.5096 -16.9302
L57.8326 -17.3028
L58.149 -17.681
L58.4587 -18.0648
L58.7615 -18.4541
L59.0573 -18.8487
L59.3462 -19.2486
L59.6279 -19.6536
L59.9024 -20.0635
L60.1697 -20.4783
L60.4296 -20.8978
L60.682 -21.3219
L60.9269 -21.7505
L61.1643 -22.1834
L61.394 -22.6206
L61.6159 -23.0618
L61.83 -23.507
L62.0363 -23.9559
L62.2346 -24.4085
L62.425 -24.8647
L62.6073 -25.3243
L62.7814 -25.7871
L62.9475 -26.253
L63.1053 -26.7219
L63.2549 -27.1936
L63.3961 -27.668
L63.529 -28.1449
L63.6536 -28.6242
L63.7697 -29.1058
L63.8773 -29.5895
L63.9765 -30.0751
L64.0671 -30.5625
L64.1492 -31.0516
L64.2227 -31.5422
L64.2876 -32.0342
L64.3439 -32.5273
L64.3916 -33.0215
L64.4306 -33.5167
L64.461 -34.0125
L64.4827 -34.509
L64.4957 -35.006
L64.5 -35.5032
L64.4956 -36.0006
L64.4826 -36.498
L64.4609 -36.9952
L64.4305 -37.4922
L64.3915 -37.9887
L64.3438 -38.4845
L64.2875 -38.9797
L64.2226 -39.4739
L64.149 -39.967
L64.0669 -40.459
L63.9763 -40.9496
L63.8771 -41.4386
L63.7694 -41.9261
L63.6533 -42.4117
L63.5287 -42.8954
L63.3958 -43.3769
L63.2545 -43.8562
L63.1049 -44.3332
L62.9471 -44.8075
L62.781 -45.2793
L62.6068 -45.7481
L62.4245 -46.214
L62.2342 -46.6768
L62.0358 -47.1364
L61.8295 -47.5925
L61.6154 -48.0452
L61.3934 -48.4941
L61.1637 -48.9393
L60.9264 -49.3805
L60.6814 -49.8176
L60.429 -50.2505
L60.1691 -50.6791
L59.9018 -51.1032
L59.6272 -51.5227
L59.3455 -51.9375
L59.0566 -52.3474
L58.7608 -52.7524
L58.4579 -53.1522
L58.1483 -53.5468
L57.8319 -53.9361
L57.5088 -54.3199
L57.1792 -54.6981
L56.8432 -55.0707
L56.5008 -55.4374
L56.1521 -55.7982
L55.7973 -56.153
L55.4365 -56.5016
L55.0698 -56.844
L54.6972 -57.18
L54.319 -57.5096
L53.9352 -57.8326
L53.5459 -58.149
L53.1513 -58.4587
L52.7514 -58.7615
L52.3464 -59.0573
L51.9365 -59.3462
L51.5217 -59.6279
L51.1022 -59.9024
L50.6781 -60.1697
L50.2495 -60.4296
L49.8166 -60.682
L49.3794 -60.9269
z
" id="C0_1_9e2a3bc584"/>
     <path d="
M35.9461 -64.4203
L35.3951 -64.292
L34.8459 -64.1553
L34.2998 -64.0101
L33.7581 -63.8564
L33.2216 -63.6943
L32.6911 -63.524
L32.1672 -63.3457
L31.6506 -63.1595
L31.1417 -62.9659
L30.6409 -62.7651
L30.1485 -62.5575
L29.6647 -62.3434
L29.1899 -62.1232
L28.724 -61.8972
L28.2673 -61.6657
L27.8198 -61.4291
L27.3816 -61.1878
L26.9526 -60.942
L26.5329 -60.6921
L26.1224 -60.4384
L25.7211 -60.1811
L25.3288 -59.9207
L24.9455 -59.6572
L24.571 -59.391
L24.2054 -59.1224
L23.8483 -58.8515
L23.4997 -58.5786
L23.1595 -58.3038
L22.8274 -58.0274
L22.5034 -57.7495
L22.1872 -57.4704
L21.8788 -57.19
L21.5779 -56.9087
L21.2844 -56.6264
L20.9981 -56.3434
L20.7189 -56.0597
L20.4465 -55.7755
L20.1809 -55.4908
L19.9219 -55.2057
L19.6693 -54.9203
L19.4229 -54.6346
L19.1827 -54.3487
L18.9483 -54.0626
L18.7199 -53.7764
L18.497 -53.4902
L18.2797 -53.2039
L18.0678 -52.9175
L17.8612 -52.6312
L17.6596 -52.3449
L17.4631 -52.0585
L17.2715 -51.7722
L17.0846 -51.4859
L16.9024 -51.1997
L16.7248 -50.9134
L16.5516 -50.6271
L16.3827 -50.3408
L16.218 -50.0545
L16.0576 -49.7681
L15.9011 -49.4816
L15.7487 -49.195
L15.6001 -48.9082
L15.4554 -48.6213
L15.3143 -48.3342
L15.177 -48.0469
L15.0433 -47.7592
L14.9131 -47.4713
L14.7863 -47.183
L14.663 -46.8943
L14.5431 -46.6051
L14.4264 -46.3155
L14.3131 -46.0253
L14.203 -45.7345
L14.096 -45.4431
L13.9922 -45.151
L13.8916 -44.8582
L13.794 -44.5645
L13.6995 -44.2701
L13.608 -43.9747
L13.5196 -43.6783
L13.4341 -43.3809
L13.3517 -43.0825
L13.2722 -42.7828
L13.1957 -42.482
L13.1222 -42.18
L13.0517 -41.8765
L12.9842 -41.5718
L12.9196 -41.2655
L12.8581 -40.9577
L12.7996 -40.6484
L12.7441 -40.3373
L12.6917 -40.0246
L12.6424 -39.7101
L12.5962 -39.3937
L12.5531 -39.0754
L12.5132 -38.7551
L12.4766 -38.4328
L12.4433 -38.1083
L12.4133 -37.7816
L12.3867 -37.4527
L12.3635 -37.1214
L12.3439 -36.7877
L12.3278 -36.4516
L12.3154 -36.1129
L12.3068 -35.7716
L12.3019 -35.4276
L12.301 -35.081
L12.3041 -34.7315
L12.3113 -34.3792
L12.3227 -34.0239
L12.3384 -33.6657
L12.3586 -33.3044
L12.3833 -32.9401
L12.4127 -32.5727
L12.4469 -32.2021
L12.4861 -31.8282
L12.5303 -31.4511
L12.5798 -31.0708
L12.6348 -30.6871
L12.6952 -30.3001
L12.7615 -29.9097
L12.8336 -29.516
L12.9118 -29.1189
L12.9962 -28.7185
L13.0871 -28.3147
L13.1846 -27.9077
L13.289 -27.4973
L13.4004 -27.0837
L13.519 -26.667
L13.645 -26.2471
L13.7786 -25.8242
L13.9201 -25.3984
L14.0696 -24.9698
L14.2274 -24.5386
L14.3935 -24.1047
L14.5683 -23.6685
L14.7518 -23.2302
L14.9443 -22.7898
L15.1459 -22.3477
L15.3567 -21.904
L15.577 -21.4591
L15.8067 -21.0132
L16.0459 -20.5666
L16.2948 -20.1197
L16.5532 -19.6728
L16.8212 -19.2263
L17.0987 -18.7806
L17.3854 -18.3361
L17.6813 -17.8933
L17.9859 -17.4527
L18.2989 -17.0147
L18.6197 -16.5798
L18.9476 -16.1487
L19.2818 -15.7218
L19.6212 -15.2997
L19.9645 -14.8832
L20.3101 -14.4726
L20.656 -14.0688
L20.9998 -13.6724
L21.3386 -13.2839
L21.6687 -12.9042
L21.9861 -12.5338
L22.286 -12.1734
L22.5629 -11.8235
L22.8112 -11.4848
L23.0251 -11.1577
L23.1995 -10.8423
L22.8601 -10.5389
L22.4207 -10.7098
L21.9855 -10.943
L21.5545 -11.1838
L21.1279 -11.4322
L20.7059 -11.688
L20.2885 -11.9513
L19.8759 -12.2219
L19.4682 -12.4997
L19.0656 -12.7847
L18.6681 -13.0767
L18.2759 -13.3758
L17.8891 -13.6817
L17.5078 -13.9944
L17.1321 -14.3139
L16.7622 -14.6399
L16.3982 -14.9725
L16.0401 -15.3114
L15.6881 -15.6566
L15.3423 -16.0081
L15.0028 -16.3656
L14.6696 -16.7292
L14.343 -17.0985
L14.023 -17.4737
L13.7096 -17.8545
L13.4031 -18.2408
L13.1034 -18.6325
L12.8107 -19.0295
L12.5251 -19.4317
L12.2466 -19.8389
L11.9754 -20.2511
L11.7115 -20.6681
L11.455 -21.0897
L11.2059 -21.5158
L10.9644 -21.9464
L10.7306 -22.3813
L10.5044 -22.8203
L10.286 -23.2633
L10.0754 -23.7102
L9.87274 -24.1608
L9.67802 -24.6151
L9.49133 -25.0728
L9.3127 -25.5339
L9.14221 -25.9981
L8.9799 -26.4654
L8.82582 -26.9356
L8.68002 -27.4085
L8.54253 -27.8841
L8.41342 -28.3621
L8.2927 -28.8425
L8.18043 -29.325
L8.07663 -29.8096
L7.98133 -30.296
L7.89457 -30.7842
L7.81637 -31.274
L7.74676 -31.7653
L7.68575 -32.2578
L7.63337 -32.7514
L7.58962 -33.2461
L7.55454 -33.7416
L7.52811 -34.2377
L7.51036 -34.7344
L7.50129 -35.2315
L7.5009 -35.7289
L7.50919 -36.2263
L7.52616 -36.7236
L7.5518 -37.2207
L7.58611 -37.7175
L7.62907 -38.2137
L7.68067 -38.7093
L7.7409 -39.204
L7.80974 -39.6978
L7.88717 -40.1904
L7.97316 -40.6817
L8.06768 -41.1717
L8.17072 -41.66
L8.28223 -42.1466
L8.40219 -42.6314
L8.53055 -43.1141
L8.66728 -43.5947
L8.81233 -44.0729
L8.96567 -44.5487
L9.12724 -45.0219
L9.297 -45.4924
L9.47489 -45.9599
L9.66086 -46.4244
L9.85485 -46.8858
L10.0568 -47.3438
L10.2667 -47.7983
L10.4844 -48.2493
L10.7098 -48.6966
L10.943 -49.1399
L11.1838 -49.5793
L11.4322 -50.0145
L11.688 -50.4455
L11.9513 -50.8721
L12.2219 -51.2941
L12.4997 -51.7115
L12.7847 -52.1241
L13.0767 -52.5318
L13.3758 -52.9344
L13.6817 -53.3319
L13.9944 -53.7241
L14.3139 -54.1109
L14.6399 -54.4922
L14.9725 -54.8679
L15.3114 -55.2378
L15.6566 -55.6018
L16.0081 -55.9599
L16.3656 -56.3119
L16.7292 -56.6577
L17.0985 -56.9972
L17.4737 -57.3304
L17.8545 -57.657
L18.2408 -57.977
L18.6325 -58.2904
L19.0295 -58.5969
L19.4317 -58.8966
L19.8389 -59.1893
L20.2511 -59.4749
L20.6681 -59.7534
L21.0897 -60.0246
L21.5158 -60.2885
L21.9464 -60.545
L22.3813 -60.7941
L22.8203 -61.0356
L23.2633 -61.2694
L23.7102 -61.4956
L24.1608 -61.714
L24.6151 -61.9246
L25.0728 -62.1273
L25.5339 -62.322
L25.9981 -62.5087
L26.4654 -62.6873
L26.9356 -62.8578
L27.4085 -63.0201
L27.8841 -63.1742
L28.3621 -63.32
L28.8425 -63.4575
L29.325 -63.5866
L29.8096 -63.7073
L30.296 -63.8196
L30.7842 -63.9234
L31.274 -64.0187
L31.7653 -64.1054
L32.2578 -64.1836
L32.7514 -64.2532
L33.2461 -64.3143
L33.7416 -64.3666
L34.2377 -64.4104
L34.7344 -64.4455
L35.2315 -64.4719
z
" id="C0_2_b3401a292f"/>
    </defs>
    <g clip-path="url(#p1bffca34e9)">
     <use style="fill:#ff0000;stroke:#000000;stroke-width:2.0;" x="0.0" xlink:href="#C0_0_a811fe30f3" y="72.0"/>
    </g>
    <g clip-path="url(#p1bffca34e9)">
     <use style="fill:#ffffff;stroke:#000000;stroke-width:2.0;" x="0.0" xlink:href="#C0_1_9e2a3bc584" y="72.0"/>
    </g>
    <g clip-path="url(#p1bffca34e9)">
     <use style="fill:#ffffff;stroke:#000000;stroke-width:2.0;" x="0.0" xlink:href="#C0_2_b3401a292f" y="72.0"/>
    </g>
   </g>
  </g>
 </g>
 <defs>
  <clipPath id="p1bffca34e9">
   <rect height="72.0" width="72.0" x="0.0" y="0.0"/>
  </clipPath>
 </defs>
</svg>
