<?xml version="1.0" encoding="utf-8" standalone="no"?>
<!DOCTYPE svg PUBLIC "-//W3C//DTD SVG 1.1//EN"
  "http://www.w3.org/Graphics/SVG/1.1/DTD/svg11.dtd">
<!-- Created with matplotlib (http://matplotlib.org/) -->
<svg height="72pt" version="1.1" viewBox="0 0 72 72" width="72pt" xmlns="http://www.w3.org/2000/svg" xmlns:xlink="http://www.w3.org/1999/xlink">
 <defs>
  <style type="text/css">
*{stroke-linecap:butt;stroke-linejoin:round;}
  </style>
 </defs>
 <g id="figure_1">
  <g id="patch_1">
   <path d="
M0 72
L72 72
L72 0
L0 0
z
" style="fill:none;"/>
  </g>
  <g id="axes_1">
   <g id="PatchCollection_1">
    <defs>
     <path d="
M36 -7.5
C43.5583 -7.5 50.808 -10.5029 56.1525 -15.8475
C61.4971 -21.192 64.5 -28.4417 64.5 -36
C64.5 -43.5583 61.4971 -50.808 56.1525 -56.1525
C50.808 -61.4971 43.5583 -64.5 36 -64.5
C28.4417 -64.5 21.192 -61.4971 15.8475 -56.1525
C10.5029 -50.808 7.5 -43.5583 7.5 -36
C7.5 -28.4417 10.5029 -21.192 15.8475 -15.8475
C21.192 -10.5029 28.4417 -7.5 36 -7.5
z
" id="C0_0_a811fe30f3"/>
     <path d="
M26.772 -62.7683
L27.0135 -62.6099
L27.2296 -62.4329
L27.4216 -62.2383
L27.5907 -62.0274
L27.7387 -61.8015
L27.8672 -61.5618
L27.9781 -61.3095
L28.0731 -61.0459
L28.154 -60.7721
L28.2224 -60.4892
L28.2799 -60.1982
L28.3279 -59.9001
L28.3677 -59.5957
L28.4004 -59.2859
L28.427 -58.9713
L28.4486 -58.6526
L28.4658 -58.3304
L28.4794 -58.0053
L28.4901 -57.6778
L28.4982 -57.3483
L28.5044 -57.0173
L28.5091 -56.6852
L28.5125 -56.3523
L28.5149 -56.0189
L28.5168 -55.6854
L28.5182 -55.352
L28.5193 -55.0189
L28.5204 -54.6863
L28.5216 -54.3545
L28.523 -54.0237
L28.5246 -53.6939
L28.5266 -53.3654
L28.5291 -53.0382
L28.5321 -52.7125
L28.5356 -52.3884
L28.5397 -52.066
L28.5444 -51.7453
L28.5498 -51.4264
L28.5558 -51.1094
L28.5625 -50.7943
L28.5699 -50.4811
L28.578 -50.17
L28.5867 -49.8608
L28.5962 -49.5536
L28.6063 -49.2485
L28.6171 -48.9453
L28.6286 -48.6442
L28.6407 -48.3451
L28.6536 -48.048
L28.667 -47.7529
L28.6811 -47.4597
L28.6958 -47.1685
L28.7112 -46.8792
L28.7272 -46.5917
L28.7437 -46.3061
L28.7609 -46.0223
L28.7786 -45.7402
L28.7969 -45.4599
L28.8158 -45.1813
L28.8352 -44.9043
L28.8552 -44.6288
L28.8757 -44.355
L28.8968 -44.0826
L28.9184 -43.8116
L28.9405 -43.5421
L28.9631 -43.2739
L28.9863 -43.0069
L29.0099 -42.7412
L29.034 -42.4767
L29.0587 -42.2133
L29.0838 -41.951
L29.1095 -41.6897
L29.1356 -41.4294
L29.1622 -41.17
L29.1893 -40.9114
L29.2169 -40.6536
L29.245 -40.3965
L29.2736 -40.1402
L29.3026 -39.8844
L29.3322 -39.6292
L29.3623 -39.3745
L29.3928 -39.1203
L29.4239 -38.8665
L29.4555 -38.613
L29.4876 -38.3597
L29.5202 -38.1067
L29.5533 -37.8539
L29.6212 -37.6012
L29.6559 -37.3485
L29.6912 -37.0958
L29.7271 -36.843
L29.7635 -36.5901
L29.8005 -36.337
L29.8381 -36.0837
L29.8763 -35.8301
L29.9152 -35.5761
L29.9546 -35.3218
L29.9947 -35.0669
L30.0354 -34.8115
L30.0767 -34.5556
L30.1188 -34.299
L30.1615 -34.0417
L30.2049 -33.7836
L30.2491 -33.5247
L30.2939 -33.2649
L30.3396 -33.0043
L30.3859 -32.7426
L30.4331 -32.4799
L30.4811 -32.2161
L30.5298 -31.9511
L30.5794 -31.6849
L30.6299 -31.4175
L30.6812 -31.1487
L30.7334 -30.8786
L30.7865 -30.607
L30.8405 -30.334
L30.8954 -30.0594
L30.9514 -29.7832
L31.0083 -29.5054
L31.0662 -29.226
L31.1251 -28.9448
L31.1851 -28.6618
L31.2461 -28.3771
L31.3082 -28.0904
L31.3714 -27.8019
L31.4358 -27.5114
L31.5012 -27.219
L31.5678 -26.9246
L31.6355 -26.6281
L31.7044 -26.3296
L31.7745 -26.0289
L31.8458 -25.7262
L31.9183 -25.4214
L31.992 -25.1144
L32.0668 -24.8054
L32.1429 -24.4941
L32.2201 -24.1808
L32.2986 -23.8653
L32.3782 -23.5478
L32.4589 -23.2281
L32.5407 -22.9064
L32.6236 -22.5827
L32.7075 -22.2571
L32.7923 -21.9295
L32.8781 -21.6001
L32.9646 -21.269
L33.0519 -20.9362
L33.1397 -20.6018
L33.228 -20.2659
L33.3167 -19.9287
L33.4054 -19.5903
L33.4941 -19.2509
L33.5824 -18.9105
L33.6702 -18.5695
L33.757 -18.2279
L33.8427 -17.8861
L33.9266 -17.5442
L34.0085 -17.2025
L34.0877 -16.8612
L34.1637 -16.5207
L34.2358 -16.1813
L34.3033 -15.8433
L34.3652 -15.5072
L34.4207 -15.1732
L34.4686 -14.8418
L34.5077 -14.5135
L34.5367 -14.1889
L34.5542 -13.8683
L34.5586 -13.5524
L34.5482 -13.2419
L34.5212 -12.9372
L34.4757 -12.6392
L34.41 -12.3486
L34.3223 -12.0661
L34.211 -11.7924
L34.0744 -11.5283
L33.9116 -11.2747
L33.7217 -11.0322
L33.5043 -10.8015
L33.2593 -10.5832
L32.9872 -10.378
L32.6888 -10.1864
L32.3652 -10.0087
L32.0178 -9.84537
L31.6483 -9.69658
L31.2584 -9.56254
L30.85 -9.44338
L30.4249 -9.33916
L29.9849 -9.24988
L29.5319 -9.17552
L29.0673 -9.11599
L28.593 -9.0712
L28.1104 -9.041
L27.6209 -9.02524
L27.1257 -9.02374
L26.6192 -9.03628
L26.1509 -9.08811
L25.6857 -9.25593
L25.2236 -9.43189
L24.7647 -9.61595
L24.3093 -9.80804
L23.8575 -10.0081
L23.4093 -10.2161
L22.965 -10.4319
L22.5247 -10.6556
L22.0885 -10.8869
L21.6565 -11.1259
L21.2289 -11.3725
L20.8057 -11.6266
L20.3872 -11.8881
L19.9735 -12.1569
L19.5646 -12.4331
L19.1608 -12.7163
L18.7621 -13.0067
L18.3686 -13.3041
L17.9805 -13.6084
L17.5979 -13.9195
L17.2209 -14.2374
L16.8496 -14.5619
L16.4841 -14.8929
L16.1246 -15.2303
L15.7712 -15.5741
L15.4239 -15.924
L15.0828 -16.2801
L14.7482 -16.6423
L14.42 -17.0103
L14.0984 -17.384
L13.7835 -17.7635
L13.4753 -18.1485
L13.174 -18.539
L12.8796 -18.9347
L12.5923 -19.3357
L12.3121 -19.7417
L12.0392 -20.1527
L11.7735 -20.5686
L11.5152 -20.9891
L11.2644 -21.4142
L11.0211 -21.8437
L10.7854 -22.2776
L10.5574 -22.7156
L10.3372 -23.1577
L10.1247 -23.6037
L9.92017 -24.0534
L9.72356 -24.5069
L9.53495 -24.9638
L9.35441 -25.424
L9.18198 -25.8875
L9.01772 -26.3541
L8.86168 -26.8236
L8.7139 -27.2959
L8.57444 -27.7709
L8.44333 -28.2483
L8.32062 -28.7281
L8.20633 -29.2102
L8.10052 -29.6943
L8.0032 -30.1803
L7.91441 -30.6681
L7.83417 -31.1575
L7.76252 -31.6484
L7.69946 -32.1407
L7.64503 -32.6341
L7.59923 -33.1285
L7.56209 -33.6238
L7.53361 -34.1198
L7.51379 -34.6164
L7.50266 -35.1134
L7.50021 -35.6107
L7.50643 -36.1081
L7.52134 -36.6055
L7.54492 -37.1027
L7.57717 -37.5995
L7.61808 -38.0959
L7.66763 -38.5916
L7.72581 -39.0866
L7.79261 -39.5806
L7.868 -40.0735
L7.95195 -40.5651
L8.04445 -41.0554
L8.14547 -41.5441
L8.25497 -42.0312
L8.37292 -42.5164
L8.49929 -42.9996
L8.63404 -43.4807
L8.77712 -43.9595
L8.92849 -44.4359
L9.08811 -44.9097
L9.25593 -45.3808
L9.43189 -45.8491
L9.61595 -46.3143
L9.80804 -46.7764
L10.0081 -47.2353
L10.2161 -47.6907
L10.4319 -48.1425
L10.6556 -48.5907
L10.8869 -49.035
L11.1259 -49.4753
L11.3725 -49.9115
L11.6266 -50.3435
L11.8881 -50.7711
L12.1569 -51.1943
L12.4331 -51.6128
L12.7163 -52.0265
L13.0067 -52.4354
L13.3041 -52.8392
L13.6084 -53.2379
L13.9195 -53.6314
L14.2374 -54.0195
L14.5619 -54.4021
L14.8929 -54.7791
L15.2303 -55.1504
L15.5741 -55.5159
L15.924 -55.8754
L16.2801 -56.2288
L16.6423 -56.5761
L17.0103 -56.9172
L17.384 -57.2518
L17.7635 -57.58
L18.1485 -57.9016
L18.539 -58.2165
L18.9347 -58.5247
L19.3357 -58.826
L19.7417 -59.1204
L20.1527 -59.4077
L20.5686 -59.6879
L20.9891 -59.9608
L21.4142 -60.2265
L21.8437 -60.4848
L22.2776 -60.7356
L22.7156 -60.9789
L23.1577 -61.2146
L23.6037 -61.4426
L24.0534 -61.6628
L24.5069 -61.8753
L24.9638 -62.0798
L25.424 -62.2764
L25.8875 -62.465
z
" id="C0_1_881824c536"/>
     <path d="
M45.3595 -62.8963
L45.7705 -62.6087
L46.1774 -62.3161
L46.5793 -62.0189
L46.9757 -61.7173
L47.3661 -61.4116
L47.7501 -61.102
L48.1272 -60.7888
L48.4972 -60.4722
L48.8598 -60.1526
L49.2148 -59.8303
L49.5622 -59.5054
L49.9017 -59.1784
L50.2333 -58.8493
L50.5569 -58.5185
L50.8727 -58.1862
L51.1804 -57.8526
L51.4803 -57.5179
L51.7723 -57.1824
L52.0566 -56.8462
L52.3331 -56.5096
L52.6021 -56.1726
L52.8635 -55.8354
L53.1175 -55.4982
L53.3643 -55.1611
L53.604 -54.8242
L53.8366 -54.4876
L54.0624 -54.1515
L54.2814 -53.8159
L54.4938 -53.4809
L54.6998 -53.1467
L54.8994 -52.8131
L55.0929 -52.4804
L55.2803 -52.1485
L55.4618 -51.8175
L55.6376 -51.4874
L55.8077 -51.1584
L55.9723 -50.8302
L56.1315 -50.5031
L56.2855 -50.177
L56.4344 -49.8519
L56.5782 -49.5278
L56.7171 -49.2048
L56.8513 -48.8827
L56.9808 -48.5617
L57.1057 -48.2416
L57.2262 -47.9225
L57.3423 -47.6043
L57.4541 -47.287
L57.5618 -46.9707
L57.6653 -46.6552
L57.7649 -46.3405
L57.8605 -46.0266
L57.9523 -45.7135
L58.0403 -45.4011
L58.1246 -45.0894
L58.2052 -44.7783
L58.2823 -44.4678
L58.3558 -44.1579
L58.4259 -43.8485
L58.4925 -43.5396
L58.5558 -43.231
L58.6158 -42.9229
L58.6725 -42.615
L58.726 -42.3074
L58.7762 -42.0001
L58.8233 -41.6929
L58.8672 -41.3858
L58.9081 -41.0788
L58.9458 -40.7718
L58.9805 -40.4647
L59.0121 -40.1576
L59.0406 -39.8502
L59.0661 -39.5427
L59.0886 -39.2349
L59.1081 -38.9268
L59.1246 -38.6183
L59.138 -38.3094
L59.1484 -38
L59.1557 -37.69
L59.1601 -37.3795
L59.1613 -37.0683
L59.1595 -36.7563
L59.1546 -36.4436
L59.1465 -36.1301
L59.1353 -35.8157
L59.1209 -35.5004
L59.1033 -35.1841
L59.0825 -34.8667
L59.0583 -34.5483
L59.0308 -34.2287
L59 -33.9079
L58.9657 -33.5858
L58.9279 -33.2625
L58.8866 -32.9378
L58.8417 -32.6117
L58.7931 -32.2842
L58.7407 -31.9552
L58.6846 -31.6246
L58.6246 -31.2925
L58.5606 -30.9587
L58.4926 -30.6233
L58.4205 -30.2863
L58.3442 -29.9475
L58.2635 -29.6069
L58.1785 -29.2646
L58.089 -28.9205
L57.9948 -28.5746
L57.896 -28.2268
L57.7924 -27.8772
L57.6839 -27.5257
L57.5703 -27.1724
L57.4516 -26.8173
L57.3276 -26.4603
L57.1983 -26.1014
L57.0635 -25.7408
L56.923 -25.3784
L56.7769 -25.0143
L56.6248 -24.6484
L56.4668 -24.2809
L56.3028 -23.9118
L56.1325 -23.5412
L55.9559 -23.1691
L55.7729 -22.7957
L55.5833 -22.421
L55.3871 -22.0452
L55.1843 -21.6683
L54.9746 -21.2906
L54.7581 -20.9121
L54.5347 -20.5329
L54.3043 -20.1534
L54.067 -19.7736
L53.8227 -19.3937
L53.5715 -19.0139
L53.3135 -18.6345
L53.0486 -18.2557
L52.777 -17.8778
L52.499 -17.5009
L52.2146 -17.1253
L51.9242 -16.7513
L51.6279 -16.3792
L51.3264 -16.0093
L51.0198 -15.6418
L50.7089 -15.2771
L50.3941 -14.9153
L50.0763 -14.5569
L49.7561 -14.2021
L49.4346 -13.8511
L49.1127 -13.5043
L48.7917 -13.1618
L48.473 -12.8238
L48.1579 -12.4906
L47.8482 -12.1623
L47.5456 -11.839
L47.252 -11.5208
L46.9695 -11.2077
L46.7001 -10.8997
L46.4461 -10.5968
L46.2094 -10.299
L45.9921 -10.0061
L45.796 -9.71796
L45.6226 -9.43457
L45.9519 -9.15582
L46.4165 -9.29402
L46.8779 -9.47177
L47.336 -9.65761
L47.7906 -9.85146
L48.2416 -10.0533
L48.6889 -10.263
L49.1324 -10.4806
L49.5718 -10.7059
L50.0071 -10.939
L50.4382 -11.1796
L50.8648 -11.4279
L51.2869 -11.6836
L51.7044 -11.9467
L52.1171 -12.2172
L52.5248 -12.4949
L52.9276 -12.7797
L53.3251 -13.0717
L53.7174 -13.3706
L54.1043 -13.6764
L54.4857 -13.989
L54.8615 -14.3083
L55.2315 -14.6343
L55.5956 -14.9667
L55.9538 -15.3055
L56.3059 -15.6507
L56.6519 -16.002
L56.9915 -16.3595
L57.3247 -16.7229
L57.6515 -17.0922
L57.9716 -17.4672
L58.2851 -17.8479
L58.5917 -18.2341
L58.8915 -18.6258
L59.1843 -19.0227
L59.4701 -19.4248
L59.7486 -19.8319
L60.02 -20.244
L60.2841 -20.6609
L60.5407 -21.0824
L60.7899 -21.5085
L61.0315 -21.939
L61.2655 -22.3738
L61.4918 -22.8127
L61.7103 -23.2557
L61.921 -23.7025
L62.1239 -24.1531
L62.3187 -24.6073
L62.5055 -25.0649
L62.6843 -25.5259
L62.8549 -25.9901
L63.0174 -26.4573
L63.1716 -26.9275
L63.3176 -27.4004
L63.4552 -27.8759
L63.5844 -28.3539
L63.7053 -28.8342
L63.8177 -29.3167
L63.9217 -29.8013
L64.0171 -30.2877
L64.104 -30.7759
L64.1824 -31.2656
L64.2521 -31.7568
L64.3133 -32.2493
L64.3658 -32.743
L64.4097 -33.2376
L64.4449 -33.7331
L64.4715 -34.2292
L64.4894 -34.7259
L64.4986 -35.223
L64.4992 -35.7203
L64.491 -36.2178
L64.4742 -36.7151
L64.4487 -37.2122
L64.4146 -37.709
L64.3717 -38.2052
L64.3203 -38.7008
L64.2602 -39.1955
L64.1915 -39.6893
L64.1142 -40.182
L64.0284 -40.6733
L63.934 -41.1633
L63.8311 -41.6517
L63.7198 -42.1383
L63.5999 -42.6231
L63.4717 -43.1059
L63.3351 -43.5865
L63.1902 -44.0648
L63.037 -44.5406
L62.8756 -45.0138
L62.706 -45.4843
L62.5282 -45.9519
L62.3424 -46.4165
L62.1485 -46.8779
L61.9467 -47.336
L61.737 -47.7906
L61.5194 -48.2416
L61.2941 -48.6889
L61.061 -49.1324
L60.8204 -49.5718
L60.5721 -50.0071
L60.3164 -50.4382
L60.0533 -50.8648
L59.7828 -51.2869
L59.5051 -51.7044
L59.2203 -52.1171
L58.9283 -52.5248
L58.6294 -52.9276
L58.3236 -53.3251
L58.011 -53.7174
L57.6917 -54.1043
L57.3657 -54.4857
L57.0333 -54.8615
L56.6945 -55.2315
L56.3493 -55.5956
L55.998 -55.9538
L55.6405 -56.3059
L55.2771 -56.6519
L54.9078 -56.9915
L54.5328 -57.3247
L54.1521 -57.6515
L53.7659 -57.9716
L53.3742 -58.2851
L52.9773 -58.5917
L52.5752 -58.8915
L52.1681 -59.1843
L51.756 -59.4701
L51.3391 -59.7486
L50.9176 -60.02
L50.4915 -60.2841
L50.061 -60.5407
L49.6262 -60.7899
L49.1873 -61.0315
L48.7443 -61.2655
L48.2975 -61.4918
L47.8469 -61.7103
L47.3927 -61.921
L46.9351 -62.1239
L46.4741 -62.3187
L46.0099 -62.5055
z
" id="C0_2_1b71916f49"/>
    </defs>
    <g clip-path="url(#p1bffca34e9)">
     <use style="fill:#ff0000;stroke:#000000;stroke-width:2.0;" x="0.0" xlink:href="#C0_0_a811fe30f3" y="72.0"/>
    </g>
    <g clip-path="url(#p1bffca34e9)">
     <use style="fill:#ffffff;stroke:#000000;stroke-width:2.0;" x="0.0" xlink:href="#C0_1_881824c536" y="72.0"/>
    </g>
    <g clip-path="url(#p1bffca34e9)">
     <use style="fill:#ffffff;stroke:#000000;stroke-width:2.0;" x="0.0" xlink:href="#C0_2_1b71916f49" y="72.0"/>
    </g>
   </g>
  </g>
 </g>
 <defs>
  <clipPath id="p1bffca34e9">
   <rect height="72.0" width="72.0" x="0.0" y="0.0"/>
  </clipPath>
 </defs>
</svg>
