<?xml version="1.0" encoding="utf-8" standalone="no"?>
<!DOCTYPE svg PUBLIC "-//W3C//DTD SVG 1.1//EN"
  "http://www.w3.org/Graphics/SVG/1.1/DTD/svg11.dtd">
<!-- Created with matplotlib (http://matplotlib.org/) -->
<svg height="72pt" version="1.1" viewBox="0 0 72 72" width="72pt" xmlns="http://www.w3.org/2000/svg" xmlns:xlink="http://www.w3.org/1999/xlink">
 <defs>
  <style type="text/css">
*{stroke-linecap:butt;stroke-linejoin:round;}
  </style>
 </defs>
 <g id="figure_1">
  <g id="patch_1">
   <path d="
M0 72
L72 72
L72 0
L0 0
z
" style="fill:none;"/>
  </g>
  <g id="axes_1">
   <g id="PatchCollection_1">
    <defs>
     <path d="
M36 -7.5
C43.5583 -7.5 50.808 -10.5029 56.1525 -15.8475
C61.4971 -21.192 64.5 -28.4417 64.5 -36
C64.5 -43.5583 61.4971 -50.808 56.1525 -56.1525
C50.808 -61.4971 43.5583 -64.5 36 -64.5
C28.4417 -64.5 21.192 -61.4971 15.8475 -56.1525
C10.5029 -50.808 7.5 -43.5583 7.5 -36
C7.5 -28.4417 10.5029 -21.192 15.8475 -15.8475
C21.192 -10.5029 28.4417 -7.5 36 -7.5
z
" id="C0_0_a811fe30f3"/>
     <path d="
M8.03203 -31.3214
L8.23717 -31.3299
L8.44375 -31.3358
L8.65171 -31.3391
L8.86103 -31.3401
L9.07168 -31.3387
L9.28361 -31.3351
L9.49681 -31.3294
L9.71124 -31.3216
L9.92687 -31.3119
L10.1437 -31.3003
L10.3617 -31.2868
L10.5808 -31.2715
L10.801 -31.2546
L11.0224 -31.2361
L11.2448 -31.2159
L11.4683 -31.1943
L11.6928 -31.1711
L11.9184 -31.1466
L12.145 -31.1207
L12.3727 -31.0934
L12.6013 -31.0649
L12.831 -31.0351
L13.0616 -31.0041
L13.2933 -30.972
L13.5259 -30.9387
L13.7595 -30.9043
L13.994 -30.8688
L14.2295 -30.8323
L14.466 -30.7947
L14.7035 -30.7562
L14.9419 -30.7167
L15.1813 -30.6762
L15.4216 -30.6348
L15.6629 -30.5925
L15.9052 -30.5493
L16.3926 -30.5052
L16.6377 -30.4602
L16.8838 -30.4144
L17.1309 -30.3677
L17.3789 -30.3203
L17.6279 -30.272
L17.8779 -30.2228
L18.1289 -30.1729
L18.3808 -30.1222
L18.6337 -30.0707
L18.8876 -30.0185
L19.1425 -29.9654
L19.3983 -29.9116
L19.6552 -29.8569
L19.913 -29.8015
L20.1718 -29.7454
L20.4316 -29.6884
L20.6924 -29.6307
L20.9542 -29.5722
L21.217 -29.513
L21.4808 -29.4529
L21.7455 -29.3921
L22.0113 -29.3304
L22.278 -29.268
L22.5457 -29.2047
L22.8143 -29.1406
L23.0839 -29.0757
L23.3545 -29.01
L23.626 -28.9434
L23.8984 -28.876
L24.1718 -28.8077
L24.4461 -28.7385
L24.7213 -28.6685
L24.9974 -28.5975
L25.2743 -28.5256
L25.5521 -28.4528
L25.8308 -28.379
L26.1102 -28.3042
L26.3905 -28.2285
L26.6715 -28.1518
L26.9533 -28.074
L27.2358 -27.9952
L27.5189 -27.9153
L27.8028 -27.8343
L28.0872 -27.7523
L28.3722 -27.669
L28.6578 -27.5847
L28.944 -27.4992
L29.2305 -27.4124
L29.5175 -27.3244
L29.8049 -27.2352
L30.0927 -27.1447
L30.3807 -27.0529
L30.6689 -26.9597
L30.9574 -26.8652
L31.2459 -26.7693
L31.5346 -26.672
L31.8232 -26.5732
L32.1118 -26.4729
L32.4002 -26.3711
L32.6884 -26.2677
L32.9764 -26.1628
L33.2641 -26.0563
L33.5513 -25.9481
L33.8381 -25.8383
L34.1243 -25.7268
L34.4099 -25.6135
L34.6947 -25.4985
L34.9787 -25.3816
L35.2619 -25.263
L35.5441 -25.1425
L35.8252 -25.0201
L36.1052 -24.8959
L36.3839 -24.7697
L36.6613 -24.6415
L36.9373 -24.5114
L37.2118 -24.3793
L37.4847 -24.2452
L37.7559 -24.109
L38.0254 -23.9708
L38.2929 -23.8305
L38.5585 -23.6881
L38.8221 -23.5436
L39.0835 -23.3971
L39.3427 -23.2484
L39.5996 -23.0976
L39.854 -22.9447
L40.106 -22.7898
L40.3554 -22.6327
L40.6022 -22.4735
L40.8462 -22.3122
L41.0875 -22.1489
L41.3258 -21.9835
L41.5612 -21.8161
L41.7935 -21.6467
L42.0227 -21.4753
L42.2488 -21.3019
L42.4716 -21.1266
L42.6911 -20.9494
L42.9073 -20.7703
L43.12 -20.5894
L43.3293 -20.4067
L43.5351 -20.2223
L43.7372 -20.0361
L43.9358 -19.8483
L44.1306 -19.6589
L44.3218 -19.4679
L44.5092 -19.2754
L44.6928 -19.0815
L44.8726 -18.8861
L45.0485 -18.6894
L45.2206 -18.4913
L45.3887 -18.292
L45.5528 -18.0915
L45.713 -17.8899
L45.8692 -17.6872
L46.0213 -17.4834
L46.1694 -17.2787
L46.3135 -17.073
L46.4534 -16.8665
L46.5893 -16.6592
L46.721 -16.451
L46.8486 -16.2422
L46.9721 -16.0327
L47.0914 -15.8226
L47.2065 -15.6119
L47.3174 -15.4007
L47.4242 -15.189
L47.5267 -14.9769
L47.625 -14.7644
L47.7191 -14.5516
L47.8089 -14.3384
L47.8945 -14.125
L47.9758 -13.9114
L48.0528 -13.6976
L48.1255 -13.4836
L48.1939 -13.2695
L48.258 -13.0553
L48.3177 -12.841
L48.3731 -12.6267
L48.4241 -12.4124
L48.4707 -12.1981
L48.5129 -11.9839
L48.5506 -11.7698
L48.5838 -11.5557
L48.6126 -11.3418
L48.6368 -11.128
L48.6565 -10.9144
L48.6716 -10.7009
L48.2304 -10.4876
L47.7793 -10.2577
L47.3246 -10.0482
L46.8664 -9.84654
L46.405 -9.65288
L45.9403 -9.46725
L45.4726 -9.2897
L45.0021 -9.12028
L44.5288 -8.95906
L44.0529 -8.80607
L43.5745 -8.66136
L43.0939 -8.52498
L42.6111 -8.39697
L42.1262 -8.27737
L41.6395 -8.16622
L41.1511 -8.06354
L40.6611 -7.96937
L40.1697 -7.88374
L39.677 -7.80668
L39.1832 -7.7382
L38.6885 -7.67833
L38.1929 -7.62709
L37.6966 -7.58449
L37.1999 -7.55055
L36.7027 -7.52527
L36.2054 -7.50866
L35.708 -7.50074
L35.2106 -7.5015
L34.7136 -7.51093
L34.2169 -7.52905
L33.7207 -7.55584
L33.2253 -7.59129
L32.7307 -7.63539
L32.237 -7.68814
L31.7446 -7.74951
L31.2534 -7.81949
L30.7637 -7.89804
L30.2756 -7.98516
L29.7892 -8.08082
L29.3047 -8.18497
L28.8222 -8.2976
L28.342 -8.41867
L27.864 -8.54814
L27.3886 -8.68598
L26.9157 -8.83213
L26.4457 -8.98656
L25.9785 -9.14921
L25.5144 -9.32005
L25.0535 -9.49901
L24.5959 -9.68605
L24.1418 -9.8811
L23.6913 -10.0841
L23.2446 -10.295
L22.8017 -10.5137
L22.3629 -10.7402
L21.9282 -10.9744
L21.4978 -11.2162
L21.0719 -11.4656
L20.6504 -11.7224
L20.2337 -11.9867
L19.8217 -12.2582
L19.4147 -12.537
L19.0127 -12.8229
L18.6159 -13.1159
L18.2244 -13.4158
L17.8384 -13.7227
L17.4578 -14.0363
L17.0829 -14.3566
L16.7138 -14.6835
L16.3505 -15.0169
L15.9932 -15.3567
L15.642 -15.7028
L15.297 -16.055
L14.9583 -16.4133
L14.6261 -16.7776
L14.3003 -17.1478
L13.9812 -17.5237
L13.6687 -17.9052
L13.3631 -18.2923
L13.0643 -18.6847
L12.7726 -19.0824
L12.4879 -19.4853
L12.2104 -19.8932
L11.9401 -20.3059
L11.6771 -20.7235
L11.4216 -21.1458
L11.1736 -21.5725
L10.9331 -22.0037
L10.7002 -22.4391
L10.4751 -22.8786
L10.2577 -23.3222
L10.0482 -23.7696
L9.84654 -24.2207
L9.65288 -24.6754
L9.46725 -25.1336
L9.2897 -25.595
L9.12028 -26.0597
L8.95906 -26.5274
L8.80607 -26.9979
L8.66136 -27.4712
L8.52498 -27.9471
L8.39697 -28.4255
L8.27737 -28.9061
L8.16622 -29.3889
L8.06354 -29.8738
z
" id="C0_1_c85ff35c60"/>
     <path d="
M23.479 -61.3987
L23.644 -61.2597
L23.8109 -61.1207
L23.9795 -60.9814
L24.1498 -60.842
L24.3218 -60.7024
L24.4954 -60.5625
L24.6705 -60.4223
L24.8471 -60.2819
L25.0251 -60.1412
L25.2046 -60.0001
L25.3854 -59.8587
L25.5675 -59.7169
L25.7509 -59.5748
L25.9356 -59.4322
L26.1214 -59.2893
L26.3085 -59.1459
L26.4967 -59.0021
L26.686 -58.8578
L26.8765 -58.713
L27.068 -58.5678
L27.2606 -58.4221
L27.4543 -58.2758
L27.649 -58.129
L27.8447 -57.9817
L28.0414 -57.8339
L28.2391 -57.6855
L28.4378 -57.5365
L28.6374 -57.387
L28.838 -57.2369
L29.0396 -57.0862
L29.2421 -56.9349
L29.4455 -56.7829
L29.6499 -56.6304
L29.8552 -56.4772
L30.0614 -56.3235
L30.2686 -56.169
L30.4767 -56.014
L30.6857 -55.8583
L30.8956 -55.7019
L31.1065 -55.5449
L31.3182 -55.3872
L31.5309 -55.2289
L31.7446 -55.0699
L31.9591 -54.9102
L32.1746 -54.7499
L32.3911 -54.5889
L32.6084 -54.4272
L32.8267 -54.2649
L33.046 -54.1019
L33.2662 -53.9382
L33.4874 -53.7739
L33.7095 -53.6089
L33.9326 -53.4432
L34.1566 -53.2769
L34.3817 -53.11
L34.6077 -52.9424
L34.8346 -52.7743
L35.0626 -52.6055
L35.2916 -52.436
L35.5215 -52.2661
L35.7525 -52.0955
L35.9844 -51.9243
L36.2174 -51.7527
L36.4514 -51.5805
L36.6863 -51.4077
L36.9223 -51.2345
L37.1593 -51.0609
L37.3974 -50.8868
L37.6364 -50.7122
L37.8765 -50.5373
L38.1176 -50.362
L38.3597 -50.1864
L38.6029 -50.0105
L38.847 -49.8343
L39.0922 -49.6579
L39.3384 -49.4813
L39.5856 -49.3046
L39.8338 -49.1278
L40.083 -48.9509
L40.3333 -48.7739
L40.5845 -48.5971
L40.8367 -48.4202
L41.0899 -48.2436
L41.3441 -48.0671
L41.5992 -47.8909
L41.8553 -47.7149
L42.1123 -47.5394
L42.3702 -47.3642
L42.6291 -47.1896
L42.8889 -47.0155
L43.1496 -46.8421
L43.4111 -46.6693
L43.6735 -46.4973
L43.9368 -46.3262
L44.2009 -46.156
L44.4657 -45.9868
L44.7314 -45.8186
L44.9978 -45.6516
L45.2649 -45.4859
L45.5328 -45.3214
L45.8013 -45.1584
L46.0705 -44.9968
L46.3403 -44.8368
L46.6107 -44.6784
L46.8817 -44.5218
L47.1532 -44.367
L47.4252 -44.214
L47.6977 -44.0631
L47.9706 -43.9142
L48.2439 -43.7674
L48.5175 -43.6228
L48.7914 -43.4805
L49.0656 -43.3406
L49.3401 -43.2031
L49.6147 -43.0682
L49.8894 -42.9358
L50.1643 -42.8061
L50.4392 -42.679
L50.714 -42.5548
L50.9888 -42.4334
L51.2635 -42.3149
L51.538 -42.1993
L51.8123 -42.0868
L52.0863 -41.9773
L52.36 -41.8709
L52.6333 -41.7676
L52.9062 -41.6675
L53.1786 -41.5706
L53.4504 -41.477
L53.7216 -41.3866
L53.9921 -41.2996
L54.2619 -41.2158
L54.5308 -41.1354
L54.799 -41.0584
L55.0662 -40.9848
L55.3325 -40.9145
L55.5978 -40.8476
L55.8619 -40.7842
L56.125 -40.7241
L56.3868 -40.6675
L56.6474 -40.6143
L56.9067 -40.5645
L57.1646 -40.5181
L57.4212 -40.4751
L57.6762 -40.4355
L57.9298 -40.3993
L58.1818 -40.3665
L58.4322 -40.337
L58.681 -40.311
L58.928 -40.2882
L59.1733 -40.2689
L59.4168 -40.2528
L59.6585 -40.2401
L59.8983 -40.2307
L60.1362 -40.2246
L60.3722 -40.2218
L60.6062 -40.2223
L60.8381 -40.226
L61.068 -40.233
L61.2958 -40.2432
L61.5215 -40.2567
L61.7451 -40.2734
L61.9665 -40.2934
L62.1856 -40.3166
L62.4026 -40.343
L62.6172 -40.3726
L62.8296 -40.4054
L63.0397 -40.4415
L63.2474 -40.4808
L63.4528 -40.5233
L63.6558 -40.569
L63.8563 -40.618
L64.0272 -40.6702
L63.9327 -41.1699
L63.8297 -41.6583
L63.7182 -42.1449
L63.5983 -42.6297
L63.4699 -43.1124
L63.3332 -43.593
L63.1882 -44.0713
L63.0349 -44.5471
L62.8733 -45.0203
L62.7036 -45.4907
L62.5258 -45.9583
L62.3398 -46.4228
L62.1458 -46.8841
L61.9439 -47.3422
L61.7341 -47.7968
L61.5164 -48.2477
L61.291 -48.695
L61.0578 -49.1384
L60.817 -49.5778
L60.5687 -50.013
L60.3129 -50.444
L60.0496 -50.8706
L59.7791 -51.2926
L59.5013 -51.71
L59.2163 -52.1226
L58.9243 -52.5303
L58.6253 -52.933
L58.3194 -53.3305
L58.0067 -53.7227
L57.6873 -54.1096
L57.3613 -54.4909
L57.0287 -54.8666
L56.6898 -55.2365
L56.3446 -55.6006
L55.9932 -55.9587
L55.6356 -56.3107
L55.2721 -56.6565
L54.9028 -56.9961
L54.5276 -57.3292
L54.1469 -57.6559
L53.7606 -57.9759
L53.3689 -58.2893
L52.9719 -58.5958
L52.5697 -58.8955
L52.1625 -59.1882
L51.7504 -59.4739
L51.3334 -59.7524
L50.9118 -60.0237
L50.4857 -60.2876
L50.0551 -60.5442
L49.6203 -60.7932
L49.1813 -61.0347
L48.7383 -61.2686
L48.2914 -61.4948
L47.8408 -61.7133
L47.3865 -61.9239
L46.9288 -62.1266
L46.4678 -62.3213
L46.0036 -62.508
L45.5363 -62.6867
L45.0661 -62.8572
L44.5932 -63.0195
L44.1176 -63.1737
L43.6396 -63.3195
L43.1592 -63.457
L42.6767 -63.5861
L42.1921 -63.7069
L41.7057 -63.8192
L41.2175 -63.923
L40.7277 -64.0183
L40.2365 -64.1051
L39.744 -64.1834
L39.2503 -64.253
L38.7557 -64.3141
L38.2602 -64.3665
L37.764 -64.4102
L37.2673 -64.4454
L36.7702 -64.4718
L36.2729 -64.4896
L35.7755 -64.4987
L35.2781 -64.4991
L34.781 -64.4909
L34.2843 -64.4739
L33.788 -64.4483
L33.2925 -64.414
L32.7977 -64.3711
L32.304 -64.3195
L31.8113 -64.2593
L31.32 -64.1905
L30.8301 -64.1131
L30.3417 -64.0272
L29.8551 -63.9327
L29.3703 -63.8297
L28.8876 -63.7182
L28.407 -63.5983
L27.9287 -63.4699
L27.4529 -63.3332
L26.9797 -63.1882
L26.5093 -63.0349
L26.0417 -62.8733
L25.5772 -62.7036
L25.1159 -62.5258
L24.6578 -62.3398
L24.2032 -62.1458
z
" id="C0_2_97b0a349e1"/>
    </defs>
    <g clip-path="url(#p1bffca34e9)">
     <use style="fill:#ff0000;stroke:#000000;stroke-width:2.0;" x="0.0" xlink:href="#C0_0_a811fe30f3" y="72.0"/>
    </g>
    <g clip-path="url(#p1bffca34e9)">
     <use style="fill:#ffffff;stroke:#000000;stroke-width:2.0;" x="0.0" xlink:href="#C0_1_c85ff35c60" y="72.0"/>
    </g>
    <g clip-path="url(#p1bffca34e9)">
     <use style="fill:#ffffff;stroke:#000000;stroke-width:2.0;" x="0.0" xlink:href="#C0_2_97b0a349e1" y="72.0"/>
    </g>
   </g>
  </g>
 </g>
 <defs>
  <clipPath id="p1bffca34e9">
   <rect height="72.0" width="72.0" x="0.0" y="0.0"/>
  </clipPath>
 </defs>
</svg>
