<?xml version="1.0" encoding="utf-8" standalone="no"?>
<!DOCTYPE svg PUBLIC "-//W3C//DTD SVG 1.1//EN"
  "http://www.w3.org/Graphics/SVG/1.1/DTD/svg11.dtd">
<!-- Created with matplotlib (http://matplotlib.org/) -->
<svg height="72pt" version="1.1" viewBox="0 0 72 72" width="72pt" xmlns="http://www.w3.org/2000/svg" xmlns:xlink="http://www.w3.org/1999/xlink">
 <defs>
  <style type="text/css">
*{stroke-linecap:butt;stroke-linejoin:round;}
  </style>
 </defs>
 <g id="figure_1">
  <g id="patch_1">
   <path d="
M0 72
L72 72
L72 0
L0 0
z
" style="fill:none;"/>
  </g>
  <g id="axes_1">
   <g id="PatchCollection_1">
    <defs>
     <path d="
M36 -7.5
C43.5583 -7.5 50.808 -10.5029 56.1525 -15.8475
C61.4971 -21.192 64.5 -28.4417 64.5 -36
C64.5 -43.5583 61.4971 -50.808 56.1525 -56.1525
C50.808 -61.4971 43.5583 -64.5 36 -64.5
C28.4417 -64.5 21.192 -61.4971 15.8475 -56.1525
C10.5029 -50.808 7.5 -43.5583 7.5 -36
C7.5 -28.4417 10.5029 -21.192 15.8475 -15.8475
C21.192 -10.5029 28.4417 -7.5 36 -7.5
z
" id="C0_0_a811fe30f3"/>
     <path d="
M20.3127 -36.5312
L20.3229 -36.2576
L20.3352 -35.9839
L20.3496 -35.7102
L20.3662 -35.4364
L20.3849 -35.1625
L20.4057 -34.8883
L20.4288 -34.6139
L20.454 -34.3391
L20.4814 -34.0639
L20.5111 -33.7883
L20.543 -33.5123
L20.5773 -33.2356
L20.6138 -32.9584
L20.6526 -32.6806
L20.6939 -32.402
L20.7375 -32.1227
L20.7836 -31.8427
L20.8322 -31.5617
L20.8833 -31.2799
L20.937 -30.9971
L20.9933 -30.7134
L21.0523 -30.4286
L21.1141 -30.1427
L21.1787 -29.8557
L21.2461 -29.5675
L21.3165 -29.2781
L21.3898 -28.9875
L21.4662 -28.6956
L21.5458 -28.4025
L21.6286 -28.1079
L21.7147 -27.812
L21.8042 -27.5147
L21.8971 -27.2159
L21.9937 -26.9158
L22.0939 -26.6141
L22.1978 -26.311
L22.3056 -26.0064
L22.4174 -25.7004
L22.5333 -25.3928
L22.6534 -25.0838
L22.7778 -24.7733
L22.9066 -24.4614
L23.0399 -24.148
L23.178 -23.8333
L23.3208 -23.5172
L23.4686 -23.1998
L23.6214 -22.8812
L23.7795 -22.5614
L23.943 -22.2405
L24.1119 -21.9187
L24.2865 -21.5959
L24.4668 -21.2723
L24.6532 -20.9481
L24.8455 -20.6233
L25.0442 -20.2982
L25.2492 -19.9729
L25.4608 -19.6477
L25.679 -19.3226
L25.9041 -18.998
L26.1361 -18.6742
L26.3753 -18.3513
L26.6217 -18.0296
L26.8755 -17.7097
L27.1367 -17.3917
L27.4056 -17.076
L27.6823 -16.7631
L27.9667 -16.4535
L28.259 -16.1476
L28.5593 -15.846
L28.8676 -15.5492
L29.184 -15.2579
L29.5084 -14.9727
L29.8409 -14.6943
L30.1814 -14.4237
L30.5299 -14.1614
L30.8862 -13.9086
L31.2502 -13.6662
L31.6218 -13.4351
L32.0007 -13.2165
L32.3866 -13.0116
L32.7791 -12.8216
L33.178 -12.6478
L33.5827 -12.4914
L33.9926 -12.3537
L34.4071 -12.236
L34.8255 -12.1394
L35.2471 -12.065
L35.671 -12.0137
L36.0963 -11.9861
L36.522 -11.9827
L36.9473 -12.0035
L37.3713 -12.0484
L37.7929 -12.117
L38.2113 -12.2086
L38.6258 -12.3222
L39.0355 -12.4567
L39.4398 -12.6111
L39.8382 -12.784
L40.2301 -12.9741
L40.6152 -13.18
L40.9929 -13.4006
L41.3631 -13.6346
L41.7255 -13.8808
L42.0799 -14.1381
L42.4262 -14.4054
L42.7643 -14.6819
L43.0941 -14.9664
L43.4155 -15.2584
L43.7286 -15.5568
L44.0333 -15.861
L44.3298 -16.1704
L44.6181 -16.4843
L44.8982 -16.8022
L45.1702 -17.1235
L45.4343 -17.4477
L45.6906 -17.7743
L45.9391 -18.1031
L46.18 -18.4335
L46.4135 -18.7652
L46.6396 -19.0979
L46.8586 -19.4313
L47.0706 -19.7652
L47.2757 -20.0992
L47.4741 -20.4332
L47.666 -20.7669
L47.8514 -21.1002
L48.0306 -21.4329
L48.2038 -21.7648
L48.371 -22.0958
L48.5324 -22.4258
L48.6882 -22.7547
L48.8386 -23.0823
L48.9836 -23.4087
L49.1234 -23.7336
L49.2582 -24.0571
L49.3881 -24.3791
L49.5132 -24.6995
L49.6337 -25.0184
L49.7497 -25.3357
L49.8613 -25.6513
L49.9686 -25.9654
L50.0718 -26.2777
L50.171 -26.5884
L50.2662 -26.8975
L50.3577 -27.2049
L50.4454 -27.5107
L50.5295 -27.8149
L50.6101 -28.1175
L50.6872 -28.4186
L50.761 -28.7181
L50.8316 -29.016
L50.899 -29.3126
L50.9633 -29.6076
L51.0245 -29.9013
L51.0828 -30.1936
L51.1382 -30.4846
L51.1908 -30.7743
L51.2406 -31.0627
L51.2878 -31.35
L51.3322 -31.6361
L51.3741 -31.9211
L51.4134 -32.205
L51.4502 -32.488
L51.4845 -32.77
L51.5164 -33.0511
L51.5459 -33.3314
L51.5731 -33.6109
L51.598 -33.8896
L51.6205 -34.1676
L51.6408 -34.445
L51.6589 -34.7219
L51.6747 -34.9982
L51.6883 -35.274
L51.6998 -35.5494
L51.709 -35.8244
L51.7161 -36.0992
L51.7211 -36.3736
L51.7239 -36.6479
L51.7246 -36.9221
L51.7231 -37.1961
L51.7195 -37.4701
L51.7138 -37.7442
L51.7059 -38.0183
L51.6959 -38.2926
L51.6837 -38.567
L51.6693 -38.8417
L51.6527 -39.1167
L51.634 -39.3921
L51.613 -39.6678
L51.5897 -39.944
L51.5642 -40.2207
L51.5364 -40.498
L51.5062 -40.776
L51.4737 -41.0545
L51.4388 -41.3338
L51.4015 -41.6139
L51.3616 -41.8948
L51.3193 -42.1766
L51.2743 -42.4593
L51.2268 -42.743
L51.1766 -43.0277
L51.1236 -43.3134
L51.0679 -43.6003
L51.0094 -43.8883
L50.9479 -44.1775
L50.8834 -44.468
L50.8159 -44.7597
L50.7452 -45.0527
L50.6714 -45.3471
L50.5942 -45.6428
L50.5137 -45.9399
L50.4297 -46.2385
L50.3421 -46.5385
L50.2509 -46.84
L50.1559 -47.1429
L50.0571 -47.4474
L49.9543 -47.7534
L49.8473 -48.0609
L49.7362 -48.3698
L49.6208 -48.6803
L49.5009 -48.9923
L49.3764 -49.3057
L49.2472 -49.6206
L49.1131 -49.9369
L48.9741 -50.2545
L48.8299 -50.5735
L48.6804 -50.8937
L48.5254 -51.2151
L48.3649 -51.5376
L48.1986 -51.8611
L48.0264 -52.1855
L47.8481 -52.5107
L47.6636 -52.8365
L47.4726 -53.1629
L47.2751 -53.4896
L47.0708 -53.8165
L46.8596 -54.1433
L46.6413 -54.4699
L46.4157 -54.796
L46.1827 -55.1214
L45.9421 -55.4457
L45.6937 -55.7686
L45.4375 -56.0899
L45.1732 -56.4092
L44.9007 -56.726
L44.6198 -57.04
L44.3305 -57.3506
L44.0327 -57.6574
L43.7262 -57.9598
L43.4109 -58.2572
L43.0869 -58.5491
L42.7541 -58.8347
L42.4124 -59.1133
L42.0619 -59.3841
L41.7026 -59.6463
L41.3347 -59.8989
L40.9582 -60.1411
L40.5734 -60.3716
L40.1805 -60.5896
L39.7797 -60.7937
L39.3715 -60.9828
L38.9563 -61.1557
L38.5346 -61.311
L38.107 -61.4475
L37.6743 -61.564
L37.2371 -61.6594
L36.7965 -61.7325
L36.3533 -61.7826
L35.9086 -61.809
L35.4634 -61.8113
L35.0188 -61.7895
L34.5758 -61.7436
L34.1354 -61.6741
L33.6987 -61.5817
L33.2666 -61.4673
L32.8398 -61.332
L32.4191 -61.1769
L32.0051 -61.0033
L31.5985 -60.8125
L31.1996 -60.6057
L30.8088 -60.3843
L30.4265 -60.1495
L30.0528 -59.9024
L29.688 -59.6442
L29.3322 -59.3759
L28.9855 -59.0984
L28.6479 -58.8127
L28.3195 -58.5196
L28.0002 -58.22
L27.69 -57.9145
L27.3888 -57.6037
L27.0965 -57.2885
L26.813 -56.9692
L26.5382 -56.6466
L26.272 -56.3209
L26.0142 -55.9928
L25.7647 -55.6626
L25.5233 -55.3307
L25.2899 -54.9975
L25.0642 -54.6633
L24.8462 -54.3285
L24.6355 -53.9931
L24.4322 -53.6577
L24.2359 -53.3223
L24.0465 -52.9871
L23.8638 -52.6524
L23.6877 -52.3184
L23.5179 -51.9851
L23.3543 -51.6528
L23.1968 -51.3216
L23.0451 -50.9914
L22.899 -50.6626
L22.7586 -50.3351
L22.6234 -50.009
L22.4935 -49.6844
L22.3687 -49.3613
L22.2487 -49.0398
L22.1336 -48.72
L22.023 -48.4017
L21.917 -48.0852
L21.8153 -47.7703
L21.7179 -47.4571
L21.6246 -47.1455
L21.5353 -46.8357
L21.4499 -46.5275
L21.3683 -46.221
L21.2903 -45.9162
L21.216 -45.6129
L21.1451 -45.3113
L21.0776 -45.0113
L21.0134 -44.7128
L20.9524 -44.4158
L20.8945 -44.1202
L20.8398 -43.8261
L20.788 -43.5335
L20.7391 -43.2421
L20.693 -42.9521
L20.6497 -42.6634
L20.6092 -42.3759
L20.5713 -42.0896
L20.5361 -41.8043
L20.5034 -41.5202
L20.4732 -41.2371
L20.4455 -40.955
L20.4202 -40.6738
L20.3973 -40.3935
L20.3768 -40.1141
L20.3586 -39.8353
L20.3426 -39.5574
L20.329 -39.28
L20.3176 -39.0033
L20.3084 -38.7271
L20.3014 -38.4515
L20.2966 -38.1763
L20.2939 -37.9014
L20.2934 -37.6269
L20.295 -37.3527
L20.2988 -37.0787
z
" id="C0_1_c782df3470"/>
    </defs>
    <g clip-path="url(#p1bffca34e9)">
     <use style="fill:#ffffff;stroke:#000000;stroke-width:2.0;" x="0.0" xlink:href="#C0_0_a811fe30f3" y="72.0"/>
    </g>
    <g clip-path="url(#p1bffca34e9)">
     <use style="fill:#ff0000;stroke:#000000;stroke-width:2.0;" x="0.0" xlink:href="#C0_1_c782df3470" y="72.0"/>
    </g>
   </g>
  </g>
 </g>
 <defs>
  <clipPath id="p1bffca34e9">
   <rect height="72.0" width="72.0" x="0.0" y="0.0"/>
  </clipPath>
 </defs>
</svg>
