<?xml version="1.0" encoding="utf-8" standalone="no"?>
<!DOCTYPE svg PUBLIC "-//W3C//DTD SVG 1.1//EN"
  "http://www.w3.org/Graphics/SVG/1.1/DTD/svg11.dtd">
<!-- Created with matplotlib (http://matplotlib.org/) -->
<svg height="72pt" version="1.1" viewBox="0 0 72 72" width="72pt" xmlns="http://www.w3.org/2000/svg" xmlns:xlink="http://www.w3.org/1999/xlink">
 <defs>
  <style type="text/css">
*{stroke-linecap:butt;stroke-linejoin:round;}
  </style>
 </defs>
 <g id="figure_1">
  <g id="patch_1">
   <path d="
M0 72
L72 72
L72 0
L0 0
z
" style="fill:none;"/>
  </g>
  <g id="axes_1">
   <g id="PatchCollection_1">
    <defs>
     <path d="
M36 -7.5
C43.5583 -7.5 50.808 -10.5029 56.1525 -15.8475
C61.4971 -21.192 64.5 -28.4417 64.5 -36
C64.5 -43.5583 61.4971 -50.808 56.1525 -56.1525
C50.808 -61.4971 43.5583 -64.5 36 -64.5
C28.4417 -64.5 21.192 -61.4971 15.8475 -56.1525
C10.5029 -50.808 7.5 -43.5583 7.5 -36
C7.5 -28.4417 10.5029 -21.192 15.8475 -15.8475
C21.192 -10.5029 28.4417 -7.5 36 -7.5
z
" id="C0_0_a811fe30f3"/>
     <path d="
M24.9744 -34.2468
L25.0382 -33.9947
L25.1034 -33.7428
L25.1699 -33.4912
L25.2379 -33.2397
L25.3072 -32.9882
L25.378 -32.7368
L25.4503 -32.4853
L25.5241 -32.2337
L25.5994 -31.9819
L25.6762 -31.7299
L25.7546 -31.4776
L25.8346 -31.225
L25.9162 -30.9719
L25.9996 -30.7185
L26.0846 -30.4645
L26.1714 -30.2099
L26.26 -29.9547
L26.3505 -29.6989
L26.4428 -29.4423
L26.5371 -29.1849
L26.6333 -28.9267
L26.7316 -28.6676
L26.832 -28.4076
L26.9346 -28.1466
L27.0393 -27.8846
L27.1463 -27.6215
L27.2556 -27.3573
L27.3673 -27.0919
L27.4815 -26.8253
L27.5982 -26.5575
L27.7175 -26.2884
L27.8395 -26.0179
L27.9642 -25.7461
L28.0917 -25.4729
L28.2222 -25.1983
L28.3557 -24.9223
L28.4922 -24.6448
L28.6319 -24.3657
L28.7749 -24.0852
L28.9213 -23.8032
L29.0711 -23.5197
L29.2244 -23.2346
L29.3814 -22.9481
L29.5422 -22.66
L29.7068 -22.3704
L29.8754 -22.0794
L30.0481 -21.7869
L30.225 -21.493
L30.4062 -21.1977
L30.5918 -20.9011
L30.782 -20.6033
L30.9768 -20.3043
L31.1765 -20.0042
L31.381 -19.7032
L31.5905 -19.4012
L31.8052 -19.0985
L32.0252 -18.7951
L32.2506 -18.4912
L32.4814 -18.1871
L32.7179 -17.8828
L32.9601 -17.5786
L33.2082 -17.2747
L33.4623 -16.9713
L33.7224 -16.6687
L33.9888 -16.3672
L34.2614 -16.0671
L34.5404 -15.7688
L34.826 -15.4726
L35.118 -15.1789
L35.4168 -14.8883
L35.7223 -14.6011
L36.0346 -14.318
L36.3539 -14.0396
L36.6801 -13.7666
L37.0133 -13.4996
L37.3536 -13.2395
L37.7011 -12.9874
L38.0558 -12.7444
L38.4177 -12.5116
L38.787 -12.2906
L39.1637 -12.0831
L39.5478 -11.8912
L39.9394 -11.7171
L40.3386 -11.5635
L40.7452 -11.4336
L41.1591 -11.3306
L41.5801 -11.2583
L42.0077 -11.2199
L42.441 -11.2184
L42.8791 -11.256
L43.3205 -11.3333
L43.7636 -11.4497
L44.2064 -11.6035
L44.6472 -11.7917
L45.0844 -12.011
L45.5164 -12.2578
L45.9419 -12.5288
L46.3598 -12.8208
L46.7694 -13.1311
L47.1698 -13.4571
L47.5607 -13.7969
L47.9414 -14.1484
L48.3118 -14.5103
L48.6716 -14.8809
L49.0207 -15.2592
L49.3589 -15.6439
L49.6863 -16.0342
L50.0028 -16.4292
L50.3085 -16.8281
L50.6035 -17.2301
L50.8878 -17.6347
L51.1616 -18.0412
L51.425 -18.4491
L51.6782 -18.858
L51.9215 -19.2673
L52.1549 -19.6767
L52.3786 -20.0858
L52.593 -20.4943
L52.7981 -20.9018
L52.9943 -21.308
L53.1818 -21.7128
L53.3607 -22.1159
L53.5313 -22.5171
L53.6939 -22.9162
L53.8486 -23.3131
L53.9958 -23.7075
L54.1355 -24.0995
L54.2681 -24.4888
L54.3938 -24.8754
L54.5127 -25.2592
L54.6251 -25.6402
L54.7312 -26.0182
L54.8312 -26.3933
L54.9252 -26.7654
L55.0135 -27.1346
L55.0962 -27.5007
L55.1736 -27.8637
L55.2458 -28.2238
L55.3129 -28.5809
L55.3751 -28.935
L55.4326 -29.2861
L55.4855 -29.6344
L55.5339 -29.9797
L55.578 -30.3222
L55.618 -30.6618
L55.6539 -30.9987
L55.6858 -31.3329
L55.7139 -31.6644
L55.7382 -31.9933
L55.759 -32.3196
L55.7762 -32.6434
L55.7899 -32.9648
L55.8003 -33.2839
L55.8075 -33.6006
L55.8114 -33.915
L55.8122 -34.2273
L55.81 -34.5375
L55.8048 -34.8456
L55.7966 -35.1517
L55.7856 -35.4558
L55.7718 -35.7582
L55.7551 -36.0587
L55.7358 -36.3575
L55.7137 -36.6547
L55.689 -36.9503
L55.6617 -37.2443
L55.6318 -37.5369
L55.5993 -37.8281
L55.5643 -38.118
L55.5268 -38.4067
L55.4867 -38.6941
L55.4442 -38.9804
L55.3992 -39.2657
L55.3517 -39.55
L55.3017 -39.8333
L55.2493 -40.1157
L55.1944 -40.3974
L55.137 -40.6783
L55.0772 -40.9585
L55.0148 -41.2381
L54.95 -41.5172
L54.8826 -41.7957
L54.8127 -42.0738
L54.7402 -42.3515
L54.6652 -42.6289
L54.5875 -42.9059
L54.5072 -43.1828
L54.4241 -43.4595
L54.3384 -43.7361
L54.2499 -44.0127
L54.1586 -44.2892
L54.0645 -44.5658
L53.9675 -44.8425
L53.8675 -45.1193
L53.7645 -45.3963
L53.6584 -45.6736
L53.5492 -45.9511
L53.4369 -46.2289
L53.3212 -46.5072
L53.2023 -46.7858
L53.0799 -47.0649
L52.954 -47.3444
L52.8246 -47.6245
L52.6915 -47.9051
L52.5546 -48.1863
L52.4139 -48.4681
L52.2693 -48.7506
L52.1206 -49.0337
L51.9678 -49.3174
L51.8107 -49.6019
L51.6492 -49.887
L51.4832 -50.1728
L51.3126 -50.4594
L51.1373 -50.7466
L50.9571 -51.0346
L50.7719 -51.3232
L50.5815 -51.6125
L50.3859 -51.9025
L50.1848 -52.1931
L49.9781 -52.4843
L49.7657 -52.776
L49.5474 -53.0682
L49.323 -53.3608
L49.0924 -53.6538
L48.8554 -53.9471
L48.6119 -54.2406
L48.3616 -54.5342
L48.1044 -54.8278
L47.8402 -55.1213
L47.5687 -55.4145
L47.2898 -55.7073
L47.0032 -55.9995
L46.7089 -56.291
L46.4067 -56.5816
L46.0963 -56.871
L45.7776 -57.159
L45.4505 -57.4455
L45.1149 -57.73
L44.7704 -58.0124
L44.4171 -58.2923
L44.0548 -58.5695
L43.6834 -58.8435
L43.3028 -59.1141
L42.9129 -59.3807
L42.5137 -59.643
L42.1051 -59.9006
L41.687 -60.1529
L41.2596 -60.3994
L40.8229 -60.6397
L40.377 -60.8731
L39.9219 -61.0991
L39.4579 -61.3169
L38.9853 -61.5259
L38.5043 -61.7254
L38.0152 -61.9145
L37.5187 -62.0924
L37.0152 -62.258
L36.5055 -62.4105
L35.9904 -62.5486
L35.4709 -62.671
L34.9483 -62.7764
L34.424 -62.8631
L33.9 -62.9292
L33.3781 -62.9729
L32.8611 -62.992
L32.3516 -62.984
L31.8528 -62.9469
L31.3679 -62.8784
L30.9 -62.7772
L30.4518 -62.6425
L30.0252 -62.4746
L29.6213 -62.275
L29.2402 -62.046
L28.8814 -61.7905
L28.5438 -61.5118
L28.2262 -61.2129
L27.9269 -60.897
L27.6447 -60.5666
L27.3783 -60.224
L27.1265 -59.8713
L26.8884 -59.5102
L26.663 -59.142
L26.4497 -58.7681
L26.2476 -58.3896
L26.0563 -58.0073
L25.8752 -57.6221
L25.7038 -57.2347
L25.5417 -56.8457
L25.3885 -56.4556
L25.2437 -56.0651
L25.1071 -55.6745
L24.9783 -55.2842
L24.857 -54.8946
L24.7429 -54.506
L24.6357 -54.1187
L24.5351 -53.733
L24.4409 -53.3491
L24.3529 -52.9671
L24.2707 -52.5874
L24.1942 -52.21
L24.1231 -51.8351
L24.0572 -51.4628
L23.9964 -51.0932
L23.9403 -50.7265
L23.8889 -50.3627
L23.8419 -50.0018
L23.7991 -49.6439
L23.7604 -49.2891
L23.7257 -48.9374
L23.6947 -48.5888
L23.6674 -48.2433
L23.6435 -47.9009
L23.6229 -47.5617
L23.6056 -47.2256
L23.5913 -46.8925
L23.58 -46.5625
L23.5715 -46.2356
L23.5658 -45.9116
L23.5627 -45.5906
L23.5622 -45.2726
L23.5641 -44.9574
L23.5684 -44.645
L23.5749 -44.3354
L23.5836 -44.0285
L23.5945 -43.7243
L23.6074 -43.4227
L23.6223 -43.1236
L23.6391 -42.827
L23.6577 -42.5328
L23.6782 -42.241
L23.7005 -41.9515
L23.7244 -41.6642
L23.75 -41.379
L23.7772 -41.0959
L23.806 -40.8149
L23.8363 -40.5357
L23.8682 -40.2585
L23.9015 -39.9831
L23.9363 -39.7094
L23.9725 -39.4374
L24.0101 -39.1671
L24.0491 -38.8982
L24.0894 -38.6308
L24.1311 -38.3649
L24.1741 -38.1003
L24.2184 -37.8369
L24.264 -37.5748
L24.3109 -37.3137
L24.3592 -37.0538
L24.4086 -36.7949
L24.4594 -36.5369
L24.5115 -36.2798
L24.5648 -36.0235
L24.6194 -35.7679
L24.6753 -35.5131
L24.7325 -35.2588
L24.791 -35.0051
L24.8508 -34.7519
z
" id="C0_1_1365fc6e62"/>
    </defs>
    <g clip-path="url(#p1bffca34e9)">
     <use style="fill:#ffffff;stroke:#000000;stroke-width:2.0;" x="0.0" xlink:href="#C0_0_a811fe30f3" y="72.0"/>
    </g>
    <g clip-path="url(#p1bffca34e9)">
     <use style="fill:#ff0000;stroke:#000000;stroke-width:2.0;" x="0.0" xlink:href="#C0_1_1365fc6e62" y="72.0"/>
    </g>
   </g>
  </g>
 </g>
 <defs>
  <clipPath id="p1bffca34e9">
   <rect height="72.0" width="72.0" x="0.0" y="0.0"/>
  </clipPath>
 </defs>
</svg>
