<?xml version="1.0" encoding="utf-8" standalone="no"?>
<!DOCTYPE svg PUBLIC "-//W3C//DTD SVG 1.1//EN"
  "http://www.w3.org/Graphics/SVG/1.1/DTD/svg11.dtd">
<!-- Created with matplotlib (http://matplotlib.org/) -->
<svg height="72pt" version="1.1" viewBox="0 0 72 72" width="72pt" xmlns="http://www.w3.org/2000/svg" xmlns:xlink="http://www.w3.org/1999/xlink">
 <defs>
  <style type="text/css">
*{stroke-linecap:butt;stroke-linejoin:round;}
  </style>
 </defs>
 <g id="figure_1">
  <g id="patch_1">
   <path d="
M0 72
L72 72
L72 0
L0 0
z
" style="fill:none;"/>
  </g>
  <g id="axes_1">
   <g id="PatchCollection_1">
    <defs>
     <path d="
M36 -7.5
C43.5583 -7.5 50.808 -10.5029 56.1525 -15.8475
C61.4971 -21.192 64.5 -28.4417 64.5 -36
C64.5 -43.5583 61.4971 -50.808 56.1525 -56.1525
C50.808 -61.4971 43.5583 -64.5 36 -64.5
C28.4417 -64.5 21.192 -61.4971 15.8475 -56.1525
C10.5029 -50.808 7.5 -43.5583 7.5 -36
C7.5 -28.4417 10.5029 -21.192 15.8475 -15.8475
C21.192 -10.5029 28.4417 -7.5 36 -7.5
z
" id="C0_0_a811fe30f3"/>
     <path d="
M63.9081 -30.9844
L63.6183 -30.81
L63.3247 -30.6313
L63.0278 -30.4496
L62.7278 -30.2659
L62.4251 -30.0813
L62.1199 -29.8964
L61.8125 -29.712
L61.5033 -29.5286
L61.1925 -29.3469
L60.8803 -29.1672
L60.5671 -28.9899
L60.2529 -28.8153
L59.9382 -28.6436
L59.623 -28.475
L59.3076 -28.3097
L58.9921 -28.1478
L58.6767 -27.9895
L58.3617 -27.8347
L58.047 -27.6836
L57.7329 -27.5361
L57.4195 -27.3923
L57.1069 -27.2522
L56.7952 -27.1158
L56.4845 -26.9829
L56.1749 -26.8537
L55.8664 -26.728
L55.5592 -26.6059
L55.2532 -26.4871
L54.9486 -26.3718
L54.6453 -26.2598
L54.3434 -26.1511
L54.0429 -26.0455
L53.7439 -25.9432
L53.4463 -25.8438
L53.1502 -25.7475
L52.8556 -25.6541
L52.5625 -25.5636
L52.2709 -25.4758
L51.9807 -25.3908
L51.6919 -25.3085
L51.4046 -25.2287
L51.1188 -25.1515
L50.8343 -25.0768
L50.5511 -25.0044
L50.2694 -24.9344
L49.9889 -24.8667
L49.7097 -24.8013
L49.4317 -24.738
L49.155 -24.6769
L48.8794 -24.6178
L48.6049 -24.5608
L48.3315 -24.5057
L48.0592 -24.4526
L47.7878 -24.4014
L47.5174 -24.352
L47.2479 -24.3044
L46.9792 -24.2586
L46.7113 -24.2146
L46.4442 -24.1723
L46.1778 -24.1316
L45.9121 -24.0926
L45.6469 -24.0551
L45.3823 -24.0193
L45.1182 -23.985
L44.8545 -23.9522
L44.5912 -23.921
L44.3283 -23.8912
L44.0656 -23.8629
L43.8031 -23.836
L43.5408 -23.8106
L43.2787 -23.7866
L43.0165 -23.764
L42.7544 -23.7428
L42.4922 -23.7229
L41.9674 -23.7044
L41.7046 -23.6873
L41.4416 -23.6715
L41.1783 -23.6571
L40.9145 -23.644
L40.6502 -23.6322
L40.3855 -23.6218
L40.1201 -23.6127
L39.8541 -23.605
L39.5874 -23.5986
L39.3199 -23.5935
L39.0516 -23.5898
L38.7824 -23.5875
L38.5123 -23.5865
L38.2411 -23.5869
L37.9689 -23.5887
L37.6956 -23.5919
L37.4211 -23.5965
L37.1453 -23.6025
L36.8682 -23.61
L36.5897 -23.619
L36.3099 -23.6294
L36.0285 -23.6414
L35.7456 -23.6548
L35.461 -23.6699
L35.1748 -23.6865
L34.8869 -23.7047
L34.5972 -23.7245
L34.3057 -23.7461
L34.0123 -23.7693
L33.7169 -23.7943
L33.4195 -23.821
L33.1201 -23.8495
L32.8185 -23.8799
L32.5148 -23.9121
L32.2089 -23.9463
L31.9008 -23.9824
L31.5904 -24.0205
L31.2776 -24.0607
L30.9625 -24.103
L30.6449 -24.1474
L30.325 -24.194
L30.0026 -24.2427
L29.6777 -24.2938
L29.3503 -24.3472
L29.0204 -24.4029
L28.6879 -24.4611
L28.3529 -24.5217
L28.0155 -24.5848
L27.6755 -24.6504
L27.333 -24.7186
L26.988 -24.7894
L26.6406 -24.8629
L26.2908 -24.939
L25.9387 -25.0178
L25.5843 -25.0992
L25.2277 -25.1834
L24.8689 -25.2703
L24.5082 -25.3599
L24.1455 -25.4522
L23.781 -25.5471
L23.4149 -25.6446
L23.0472 -25.7446
L22.6782 -25.847
L22.3081 -25.9517
L21.9371 -26.0586
L21.5653 -26.1675
L21.193 -26.2782
L20.8206 -26.3903
L20.4482 -26.5038
L20.0762 -26.6181
L19.7049 -26.7329
L19.3347 -26.8477
L18.966 -26.962
L18.5992 -27.0752
L18.2347 -27.1864
L17.8731 -27.295
L17.5148 -27.3999
L17.1604 -27.5002
L16.8105 -27.5945
L16.4657 -27.6817
L16.1267 -27.7601
L15.7941 -27.8283
L15.4688 -27.8844
L15.1513 -27.9267
L14.8425 -27.9532
L14.5431 -27.962
L14.2538 -27.9512
L13.9753 -27.9191
L13.7083 -27.864
L13.4533 -27.7846
L13.2108 -27.6799
L12.9812 -27.5494
L12.7649 -27.3929
L12.5619 -27.2105
L12.3726 -27.003
L12.1969 -26.7713
L12.0348 -26.5166
L11.8864 -26.2405
L11.7514 -25.9444
L11.6299 -25.63
L11.5217 -25.2989
L11.4266 -24.9529
L11.3445 -24.5934
L11.2752 -24.222
L11.2187 -23.8401
L11.1747 -23.449
L11.143 -23.0499
L11.1236 -22.644
L11.3089 -22.2322
L11.561 -21.7663
L11.8207 -21.3376
L12.0876 -20.9133
L12.3619 -20.4936
L12.6434 -20.0786
L12.932 -19.6685
L13.2276 -19.2634
L13.5301 -18.8633
L13.8395 -18.4685
L14.1556 -18.079
L14.4784 -17.695
L14.8078 -17.3165
L15.1436 -16.9438
L15.4857 -16.5768
L15.8341 -16.2158
L16.1887 -15.8608
L16.5493 -15.5119
L16.9158 -15.1693
L17.2881 -14.833
L17.6661 -14.5031
L18.0497 -14.1798
L18.4388 -13.8632
L18.8332 -13.5533
L19.2329 -13.2502
L19.6377 -12.9541
L20.0474 -12.665
L20.462 -12.383
L20.8813 -12.1081
L21.3053 -11.8406
L21.7337 -11.5804
L22.1665 -11.3277
L22.6034 -11.0825
L23.0445 -10.8448
L23.4895 -10.6149
L23.9383 -10.3926
L24.3908 -10.1782
L24.8468 -9.97162
L25.3063 -9.77297
L25.7689 -9.58232
L26.2347 -9.39971
L26.7035 -9.22521
L27.1751 -9.05886
L27.6494 -8.90071
L28.1262 -8.75083
L28.6055 -8.60924
L29.087 -8.47599
L29.5705 -8.35113
L30.0561 -8.23469
L30.5435 -8.12671
L31.0325 -8.02722
L31.523 -7.93625
L32.0149 -7.85383
L32.508 -7.77999
L33.0022 -7.71474
L33.4973 -7.6581
L33.9932 -7.6101
L34.4896 -7.57074
L34.9865 -7.54005
L35.4838 -7.51802
L35.9812 -7.50468
L36.4786 -7.50001
L36.9758 -7.50402
L37.4728 -7.51671
L37.9693 -7.53808
L38.4652 -7.56812
L38.9603 -7.60682
L39.4546 -7.65416
L39.9478 -7.71015
L40.4398 -7.77475
L40.9304 -7.84794
L41.4196 -7.92972
L41.9071 -8.02004
L42.3928 -8.11888
L42.8765 -8.22622
L43.3582 -8.34202
L43.8376 -8.46625
L44.3146 -8.59886
L44.7891 -8.73982
L45.2609 -8.88908
L45.7299 -9.0466
L46.1959 -9.21233
L46.6588 -9.38622
L47.1185 -9.56821
L47.5748 -9.75826
L48.0276 -9.9563
L48.4767 -10.1623
L48.9219 -10.3761
L49.3633 -10.5978
L49.8006 -10.8272
L50.2337 -11.0642
L50.6624 -11.3089
L51.0867 -11.561
L51.5064 -11.8207
L51.9214 -12.0876
L52.3315 -12.3619
L52.7366 -12.6434
L53.1367 -12.932
L53.5315 -13.2276
L53.921 -13.5301
L54.305 -13.8395
L54.6835 -14.1556
L55.0562 -14.4784
L55.4232 -14.8078
L55.7842 -15.1436
L56.1392 -15.4857
L56.4881 -15.8341
L56.8307 -16.1887
L57.167 -16.5493
L57.4969 -16.9158
L57.8202 -17.2881
L58.1368 -17.6661
L58.4467 -18.0497
L58.7498 -18.4388
L59.0459 -18.8332
L59.335 -19.2329
L59.617 -19.6377
L59.8919 -20.0474
L60.1594 -20.462
L60.4196 -20.8813
L60.6723 -21.3053
L60.9175 -21.7337
L61.1552 -22.1665
L61.3851 -22.6034
L61.6074 -23.0445
L61.8218 -23.4895
L62.0284 -23.9383
L62.227 -24.3908
L62.4177 -24.8468
L62.6003 -25.3063
L62.7748 -25.7689
L62.9411 -26.2347
L63.0993 -26.7035
L63.2492 -27.1751
L63.3908 -27.6494
L63.524 -28.1262
L63.6489 -28.6055
L63.7653 -29.087
L63.8733 -29.5705
z
" id="C0_1_dae16855cf"/>
     <path d="
M60.6354 -50.0427
L60.2731 -50.249
L59.9085 -50.4515
L59.5421 -50.6499
L59.1743 -50.8437
L58.8055 -51.0324
L58.4359 -51.216
L58.0659 -51.3941
L57.6958 -51.5665
L57.3258 -51.7333
L56.9563 -51.8943
L56.5875 -52.0495
L56.2196 -52.1989
L55.8527 -52.3424
L55.4871 -52.4802
L55.1229 -52.6123
L54.7603 -52.7388
L54.3994 -52.8597
L54.0403 -52.9751
L53.6831 -53.0852
L53.3279 -53.19
L52.9748 -53.2897
L52.6239 -53.3844
L52.2751 -53.4742
L51.9287 -53.5592
L51.5845 -53.6395
L51.2426 -53.7153
L50.9031 -53.7867
L50.5659 -53.8538
L50.2311 -53.9167
L49.8986 -53.9756
L49.5685 -54.0305
L49.2407 -54.0815
L48.9152 -54.1288
L48.5921 -54.1725
L48.2712 -54.2126
L47.9526 -54.2493
L47.6362 -54.2827
L47.3219 -54.3128
L47.0098 -54.3398
L46.6998 -54.3636
L46.3918 -54.3845
L46.0859 -54.4025
L45.7819 -54.4175
L45.4798 -54.4299
L45.1796 -54.4395
L44.8812 -54.4464
L44.5845 -54.4508
L44.2895 -54.4526
L43.9962 -54.452
L43.7045 -54.4489
L43.4142 -54.4434
L43.1255 -54.4356
L42.8381 -54.4255
L42.5522 -54.4131
L42.2675 -54.3986
L41.984 -54.3818
L41.7017 -54.3629
L41.4205 -54.3418
L41.1404 -54.3186
L40.8613 -54.2934
L40.5831 -54.2661
L40.3058 -54.2367
L40.0293 -54.2054
L39.7536 -54.172
L39.4785 -54.1366
L39.2041 -54.0992
L38.9303 -54.0598
L38.657 -54.0184
L38.3842 -53.9751
L38.1117 -53.9297
L37.8396 -53.8824
L37.5678 -53.8331
L37.2962 -53.7817
L37.0248 -53.7284
L36.7535 -53.6731
L36.4822 -53.6157
L36.2109 -53.5563
L35.9396 -53.4948
L35.6682 -53.4312
L35.3966 -53.3655
L35.1247 -53.2977
L34.8526 -53.2278
L34.5802 -53.1556
L34.3073 -53.0813
L34.034 -53.0047
L33.7602 -52.9258
L33.4859 -52.8446
L33.211 -52.7611
L32.9354 -52.6752
L32.6591 -52.5869
L32.3821 -52.496
L32.1042 -52.4027
L31.8255 -52.3068
L31.546 -52.2083
L31.2655 -52.1071
L30.984 -52.0032
L30.7015 -51.8965
L30.4179 -51.7869
L30.1332 -51.6745
L29.8474 -51.5591
L29.5604 -51.4407
L29.2721 -51.3192
L28.9827 -51.1945
L28.6919 -51.0666
L28.3999 -50.9355
L28.1065 -50.8009
L27.8118 -50.6629
L27.5158 -50.5215
L27.2183 -50.3764
L26.9195 -50.2277
L26.6192 -50.0752
L26.3175 -49.9189
L26.0145 -49.7588
L25.71 -49.5946
L25.4042 -49.4265
L25.097 -49.2542
L24.7884 -49.0778
L24.4785 -48.8971
L24.1673 -48.7122
L23.8548 -48.5228
L23.5412 -48.3291
L23.2264 -48.1308
L22.9104 -47.9281
L22.5935 -47.7208
L22.2756 -47.5089
L21.9568 -47.2924
L21.6372 -47.0714
L21.3169 -46.8457
L20.9961 -46.6155
L20.6747 -46.3808
L20.3531 -46.1416
L20.0312 -45.898
L19.7092 -45.6502
L19.3874 -45.3982
L19.0657 -45.1423
L18.7444 -44.8826
L18.4237 -44.6195
L18.1037 -44.3531
L17.7846 -44.0839
L17.4666 -43.8123
L17.1498 -43.5387
L16.8344 -43.2636
L16.5206 -42.9878
L16.2086 -42.7118
L15.8985 -42.4366
L15.5904 -42.1631
L15.2845 -41.8923
L14.9809 -41.6253
L14.6797 -41.3636
L14.3809 -41.1085
L14.0846 -40.8617
L13.7909 -40.625
L13.4996 -40.4002
L13.2107 -40.1892
L12.9243 -39.9943
L12.6402 -39.8175
L12.3583 -39.6608
L12.0786 -39.5262
L11.801 -39.4156
L11.5256 -39.3303
L11.2523 -39.2716
L10.9813 -39.2403
L10.7127 -39.2367
L10.4469 -39.2607
L10.184 -39.312
L9.9244 -39.3898
L9.66857 -39.4929
L9.4169 -39.6202
L9.16982 -39.7702
L8.92777 -39.9416
L8.6912 -40.1327
L8.46051 -40.3421
L8.23611 -40.5685
L8.00059 -40.8104
L8.09767 -41.3182
L8.20325 -41.806
L8.31729 -42.2921
L8.43977 -42.7763
L8.57064 -43.2584
L8.70987 -43.7382
L8.85741 -44.2158
L9.01322 -44.6908
L9.17725 -45.1632
L9.34945 -45.6328
L9.52977 -46.0994
L9.71815 -46.563
L9.91454 -47.0234
L10.1189 -47.4804
L10.3311 -47.9339
L10.5511 -48.3837
L10.7789 -48.8298
L11.0144 -49.272
L11.2575 -49.7102
L11.5081 -50.1441
L11.7662 -50.5738
L12.0316 -50.999
L12.3044 -51.4197
L12.5844 -51.8356
L12.8715 -52.2468
L13.1656 -52.653
L13.4667 -53.0541
L13.7747 -53.45
L14.0895 -53.8406
L14.4109 -54.2258
L14.7389 -54.6054
L15.0734 -54.9793
L15.4142 -55.3475
L15.7613 -55.7098
L16.1146 -56.066
L16.4739 -56.4162
L16.8392 -56.7601
L17.2104 -57.0977
L17.5872 -57.4289
L17.9697 -57.7536
L18.3576 -58.0716
L18.7509 -58.3829
L19.1495 -58.6874
L19.5532 -58.985
L19.9619 -59.2756
L20.3755 -59.5591
L20.7939 -59.8354
L21.2169 -60.1045
L21.6444 -60.3662
L22.0763 -60.6205
L22.5124 -60.8672
L22.9526 -61.1065
L23.3968 -61.338
L23.8448 -61.5619
L24.2966 -61.7779
L24.7519 -61.9862
L25.2106 -62.1864
L25.6726 -62.3788
L26.1378 -62.563
L26.606 -62.7392
L27.077 -62.9073
L27.5507 -63.0671
L28.0271 -63.2187
L28.5058 -63.3621
L28.9868 -63.497
L29.47 -63.6236
L29.9552 -63.7418
L30.4422 -63.8516
L30.9308 -63.9528
L31.4211 -64.0456
L31.9127 -64.1298
L32.4056 -64.2054
L32.8996 -64.2724
L33.3945 -64.3309
L33.8902 -64.3806
L34.3865 -64.4218
L34.8834 -64.4543
L35.3805 -64.4781
L35.8779 -64.4933
L36.3753 -64.4997
L36.8726 -64.4975
L37.3696 -64.4866
L37.8663 -64.4671
L38.3623 -64.4388
L38.8576 -64.4019
L39.3521 -64.3564
L39.8455 -64.3022
L40.3378 -64.2394
L40.8287 -64.168
L41.3182 -64.088
L41.806 -63.9994
L42.2921 -63.9023
L42.7763 -63.7968
L43.2584 -63.6827
L43.7382 -63.5602
L44.2158 -63.4294
L44.6908 -63.2901
L45.1632 -63.1426
L45.6328 -62.9868
L46.0994 -62.8227
L46.563 -62.6505
L47.0234 -62.4702
L47.4804 -62.2818
L47.9339 -62.0855
L48.3837 -61.8811
L48.8298 -61.6689
L49.272 -61.4489
L49.7102 -61.2211
L50.1441 -60.9856
L50.5738 -60.7425
L50.999 -60.4919
L51.4197 -60.2338
L51.8356 -59.9684
L52.2468 -59.6956
L52.653 -59.4156
L53.0541 -59.1285
L53.45 -58.8344
L53.8406 -58.5333
L54.2258 -58.2253
L54.6054 -57.9105
L54.9793 -57.5891
L55.3475 -57.2611
L55.7098 -56.9266
L56.066 -56.5858
L56.4162 -56.2387
L56.7601 -55.8854
L57.0977 -55.5261
L57.4289 -55.1608
L57.7536 -54.7896
L58.0716 -54.4128
L58.3829 -54.0303
L58.6874 -53.6424
L58.985 -53.2491
L59.2756 -52.8505
L59.5591 -52.4468
L59.8354 -52.0381
L60.1045 -51.6245
L60.3662 -51.2061
z
" id="C0_2_0bad0e0c54"/>
    </defs>
    <g clip-path="url(#p1bffca34e9)">
     <use style="fill:#ffffff;stroke:#000000;stroke-width:2.0;" x="0.0" xlink:href="#C0_0_a811fe30f3" y="72.0"/>
    </g>
    <g clip-path="url(#p1bffca34e9)">
     <use style="fill:#ff0000;stroke:#000000;stroke-width:2.0;" x="0.0" xlink:href="#C0_1_dae16855cf" y="72.0"/>
    </g>
    <g clip-path="url(#p1bffca34e9)">
     <use style="fill:#ff0000;stroke:#000000;stroke-width:2.0;" x="0.0" xlink:href="#C0_2_0bad0e0c54" y="72.0"/>
    </g>
   </g>
  </g>
 </g>
 <defs>
  <clipPath id="p1bffca34e9">
   <rect height="72.0" width="72.0" x="0.0" y="0.0"/>
  </clipPath>
 </defs>
</svg>
