<?xml version="1.0" encoding="utf-8" standalone="no"?>
<!DOCTYPE svg PUBLIC "-//W3C//DTD SVG 1.1//EN"
  "http://www.w3.org/Graphics/SVG/1.1/DTD/svg11.dtd">
<!-- Created with matplotlib (http://matplotlib.org/) -->
<svg height="72pt" version="1.1" viewBox="0 0 72 72" width="72pt" xmlns="http://www.w3.org/2000/svg" xmlns:xlink="http://www.w3.org/1999/xlink">
 <defs>
  <style type="text/css">
*{stroke-linecap:butt;stroke-linejoin:round;}
  </style>
 </defs>
 <g id="figure_1">
  <g id="patch_1">
   <path d="
M0 72
L72 72
L72 0
L0 0
z
" style="fill:none;"/>
  </g>
  <g id="axes_1">
   <g id="PatchCollection_1">
    <defs>
     <path d="
M36 -7.5
C43.5583 -7.5 50.808 -10.5029 56.1525 -15.8475
C61.4971 -21.192 64.5 -28.4417 64.5 -36
C64.5 -43.5583 61.4971 -50.808 56.1525 -56.1525
C50.808 -61.4971 43.5583 -64.5 36 -64.5
C28.4417 -64.5 21.192 -61.4971 15.8475 -56.1525
C10.5029 -50.808 7.5 -43.5583 7.5 -36
C7.5 -28.4417 10.5029 -21.192 15.8475 -15.8475
C21.192 -10.5029 28.4417 -7.5 36 -7.5
z
" id="C0_0_a811fe30f3"/>
     <path d="
M26.8208 -62.8661
L26.877 -62.5901
L26.9192 -62.3032
L26.9498 -62.0068
L26.9711 -61.7024
L26.9847 -61.391
L26.9922 -61.0737
L26.995 -60.7513
L26.9942 -60.4248
L26.9907 -60.0948
L26.9852 -59.7619
L26.9785 -59.4268
L26.971 -59.0899
L26.9632 -58.7517
L26.9555 -58.4126
L26.9481 -58.073
L26.9413 -57.7332
L26.9353 -57.3935
L26.9302 -57.0543
L26.9263 -56.7156
L26.9235 -56.3778
L26.9219 -56.0411
L26.9216 -55.7056
L26.9227 -55.3716
L26.9251 -55.039
L26.9289 -54.7082
L26.934 -54.3791
L26.9405 -54.0518
L26.9484 -53.7266
L26.9576 -53.4033
L26.9681 -53.0822
L26.9798 -52.7632
L26.9929 -52.4463
L27.0071 -52.1317
L27.0226 -51.8193
L27.0392 -51.5091
L27.0569 -51.2012
L27.0757 -50.8956
L27.0957 -50.5922
L27.1166 -50.2911
L27.1385 -49.9922
L27.1615 -49.6955
L27.1854 -49.401
L27.2101 -49.1086
L27.2358 -48.8184
L27.2624 -48.5302
L27.2898 -48.2442
L27.318 -47.9601
L27.347 -47.678
L27.3768 -47.3978
L27.4073 -47.1196
L27.4386 -46.8431
L27.4706 -46.5685
L27.5032 -46.2956
L27.5366 -46.0243
L27.5707 -45.7547
L27.6054 -45.4867
L27.6407 -45.2202
L27.6767 -44.9551
L27.7133 -44.6914
L27.7506 -44.4292
L27.7884 -44.1681
L27.8269 -43.9084
L27.8659 -43.6498
L27.9056 -43.3923
L27.9458 -43.1359
L27.9867 -42.8804
L28.0281 -42.626
L28.0701 -42.3724
L28.1127 -42.1196
L28.1559 -41.8675
L28.1997 -41.6162
L28.244 -41.3655
L28.289 -41.1154
L28.3346 -40.8658
L28.3808 -40.6167
L28.4276 -40.368
L28.475 -40.1196
L28.523 -39.8715
L28.5717 -39.6236
L28.621 -39.3758
L28.7216 -39.1282
L28.7729 -38.8806
L28.8249 -38.633
L28.8776 -38.3853
L28.931 -38.1375
L28.9852 -37.8894
L29.04 -37.6411
L29.0957 -37.3925
L29.1521 -37.1435
L29.2093 -36.8941
L29.2673 -36.6441
L29.3261 -36.3936
L29.3858 -36.1425
L29.4464 -35.8906
L29.5078 -35.6381
L29.5701 -35.3847
L29.6334 -35.1305
L29.6976 -34.8753
L29.7628 -34.6191
L29.829 -34.3619
L29.8963 -34.1036
L29.9646 -33.8441
L30.0339 -33.5834
L30.1044 -33.3214
L30.176 -33.0581
L30.2488 -32.7933
L30.3228 -32.5271
L30.398 -32.2594
L30.4744 -31.9901
L30.5522 -31.7191
L30.6312 -31.4464
L30.7116 -31.172
L30.7934 -30.8958
L30.8766 -30.6177
L30.9613 -30.3377
L31.0475 -30.0558
L31.1351 -29.7718
L31.2244 -29.4858
L31.3152 -29.1976
L31.4076 -28.9073
L31.5017 -28.6149
L31.5975 -28.3202
L31.6951 -28.0232
L31.7943 -27.7239
L31.8954 -27.4223
L31.9983 -27.1183
L32.103 -26.812
L32.2097 -26.5032
L32.3182 -26.1921
L32.4286 -25.8785
L32.541 -25.5626
L32.6553 -25.2442
L32.7715 -24.9234
L32.8898 -24.6002
L33.0099 -24.2747
L33.1321 -23.9469
L33.2562 -23.6167
L33.3821 -23.2844
L33.51 -22.9498
L33.6397 -22.6132
L33.7711 -22.2745
L33.9042 -21.9339
L34.0389 -21.5915
L34.1751 -21.2474
L34.3126 -20.9017
L34.4513 -20.5546
L34.5909 -20.2062
L34.7313 -19.8567
L34.8721 -19.5062
L35.013 -19.1551
L35.1538 -18.8035
L35.2938 -18.4516
L35.4326 -18.0997
L35.5696 -17.7482
L35.704 -17.3972
L35.8351 -17.0471
L35.9619 -16.6983
L36.0832 -16.3512
L36.1977 -16.0061
L36.3038 -15.6635
L36.3999 -15.3239
L36.4838 -14.9878
L36.5533 -14.6557
L36.6057 -14.3283
L36.6383 -14.0062
L36.6478 -13.6901
L36.6313 -13.3809
L36.5856 -13.0793
L36.5079 -12.7862
L36.3957 -12.5025
L36.2475 -12.2289
L36.0623 -11.9662
L35.8403 -11.7153
L35.5824 -11.4767
L35.2903 -11.2509
L34.9665 -11.0384
L34.6135 -10.8393
L34.2344 -10.654
L33.8321 -10.4826
L33.4093 -10.325
L32.9688 -10.1814
L32.5131 -10.0517
L32.0443 -9.93575
L31.5646 -9.8336
L31.0757 -9.74511
L30.5793 -9.67015
L30.077 -9.60858
L29.5699 -9.56026
L29.0594 -9.525
L28.5464 -9.50262
L28.0319 -9.49293
L27.5169 -9.49571
L27.0021 -9.51074
L26.4881 -9.53777
L25.9757 -9.57657
L25.4654 -9.62688
L24.9578 -9.68844
L24.4886 -9.76098
L24.0353 -9.92824
L23.5857 -10.1331
L23.1398 -10.3459
L22.6979 -10.5664
L22.2601 -10.7947
L21.8264 -11.0307
L21.397 -11.2743
L20.9721 -11.5255
L20.5518 -11.784
L20.1361 -12.05
L19.7253 -12.3233
L19.3195 -12.6037
L18.9187 -12.8913
L18.5232 -13.186
L18.1329 -13.4876
L17.7481 -13.796
L17.3689 -14.1112
L16.9954 -14.4331
L16.6276 -14.7615
L16.2657 -15.0964
L15.9099 -15.4377
L15.5601 -15.7852
L15.2166 -16.1389
L14.8794 -16.4987
L14.5487 -16.8644
L14.2245 -17.2359
L13.9069 -17.6131
L13.5961 -17.996
L13.292 -18.3843
L12.9949 -18.778
L12.7048 -19.1769
L12.4218 -19.581
L12.146 -19.99
L11.8774 -20.404
L11.6162 -20.8226
L11.3625 -21.246
L11.1162 -21.6738
L10.8775 -22.1059
L10.6464 -22.5423
L10.4231 -22.9828
L10.2076 -23.4273
L9.99992 -23.8756
L9.80017 -24.3276
L9.6084 -24.7831
L9.42466 -25.2421
L9.24903 -25.7043
L9.08154 -26.1697
L8.92225 -26.638
L8.77121 -27.1093
L8.62846 -27.5832
L8.49405 -28.0597
L8.36802 -28.5386
L8.25041 -29.0198
L8.14125 -29.5031
L8.04057 -29.9884
L7.94841 -30.4755
L7.8648 -30.9643
L7.78976 -31.4546
L7.72331 -31.9463
L7.66547 -32.4393
L7.61627 -32.9333
L7.57571 -33.4283
L7.54381 -33.924
L7.52057 -34.4204
L7.50601 -34.9173
L7.50014 -35.4145
L7.50294 -35.9119
L7.51442 -36.4093
L7.53458 -36.9066
L7.56341 -37.4036
L7.60091 -37.9001
L7.64705 -38.3961
L7.70183 -38.8914
L7.76523 -39.3858
L7.83723 -39.8792
L7.91781 -40.3713
L8.00695 -40.8622
L8.10461 -41.3515
L8.21076 -41.8393
L8.32539 -42.3252
L8.44844 -42.8092
L8.57988 -43.2912
L8.71968 -43.7709
L8.86779 -44.2483
L9.02416 -44.7231
L9.18875 -45.1953
L9.36151 -45.6647
L9.54238 -46.1312
L9.73131 -46.5945
L9.92824 -47.0547
L10.1331 -47.5114
L10.3459 -47.9647
L10.5664 -48.4143
L10.7947 -48.8602
L11.0307 -49.3021
L11.2743 -49.7399
L11.5255 -50.1736
L11.784 -50.603
L12.05 -51.0279
L12.3233 -51.4482
L12.6037 -51.8639
L12.8913 -52.2747
L13.186 -52.6805
L13.4876 -53.0813
L13.796 -53.4768
L14.1112 -53.8671
L14.4331 -54.2519
L14.7615 -54.6311
L15.0964 -55.0046
L15.4377 -55.3724
L15.7852 -55.7343
L16.1389 -56.0901
L16.4987 -56.4399
L16.8644 -56.7834
L17.2359 -57.1206
L17.6131 -57.4513
L17.996 -57.7755
L18.3843 -58.0931
L18.778 -58.4039
L19.1769 -58.708
L19.581 -59.0051
L19.99 -59.2952
L20.404 -59.5782
L20.8226 -59.854
L21.246 -60.1226
L21.6738 -60.3838
L22.1059 -60.6375
L22.5423 -60.8838
L22.9828 -61.1225
L23.4273 -61.3536
L23.8756 -61.5769
L24.3276 -61.7924
L24.7831 -62.0001
L25.2421 -62.1998
L25.7043 -62.3916
L26.1697 -62.5753
z
" id="C0_1_882d51dd77"/>
     <path d="
M47.473 -61.9888
L47.8691 -61.6758
L48.2553 -61.3596
L48.6317 -61.0405
L48.9983 -60.7189
L49.3551 -60.395
L49.7023 -60.0692
L50.0399 -59.7418
L50.368 -59.413
L50.6868 -59.083
L50.9964 -58.7521
L51.2971 -58.4206
L51.5889 -58.0885
L51.872 -57.7561
L52.1466 -57.4236
L52.4129 -57.0911
L52.6711 -56.7587
L52.9214 -56.4267
L53.1639 -56.095
L53.3988 -55.7639
L53.6264 -55.4334
L53.8468 -55.1035
L54.0603 -54.7745
L54.2669 -54.4463
L54.4668 -54.1189
L54.6603 -53.7925
L54.8475 -53.4671
L55.0286 -53.1427
L55.2037 -52.8193
L55.373 -52.497
L55.5367 -52.1758
L55.6949 -51.8556
L55.8477 -51.5365
L55.9952 -51.2185
L56.1377 -50.9015
L56.2753 -50.5856
L56.408 -50.2708
L56.536 -49.9569
L56.6595 -49.6441
L56.7784 -49.3323
L56.893 -49.0214
L57.0033 -48.7114
L57.1095 -48.4023
L57.2116 -48.094
L57.3097 -47.7865
L57.4039 -47.4798
L57.4943 -47.1739
L57.5809 -46.8686
L57.6639 -46.564
L57.7433 -46.2599
L57.8191 -45.9564
L57.8915 -45.6534
L57.9605 -45.3508
L58.026 -45.0487
L58.0883 -44.7468
L58.1474 -44.4453
L58.2032 -44.144
L58.2558 -43.8428
L58.3053 -43.5418
L58.3516 -43.2409
L58.3949 -42.94
L58.4351 -42.639
L58.4723 -42.338
L58.5064 -42.0368
L58.5376 -41.7353
L58.5657 -41.4336
L58.5909 -41.1316
L58.6131 -40.8291
L58.6323 -40.5262
L58.6486 -40.2228
L58.6618 -39.9189
L58.6721 -39.6143
L58.6794 -39.309
L58.6837 -39.0029
L58.6849 -38.6961
L58.6831 -38.3883
L58.6782 -38.0797
L58.6702 -37.77
L58.6591 -37.4593
L58.6449 -37.1475
L58.6274 -36.8346
L58.6067 -36.5204
L58.5827 -36.2049
L58.5554 -35.8881
L58.5246 -35.5698
L58.4905 -35.2502
L58.4528 -34.929
L58.4116 -34.6062
L58.3668 -34.2819
L58.3182 -33.9559
L58.2659 -33.6281
L58.2097 -33.2986
L58.1497 -32.9673
L58.0855 -32.6342
L58.0173 -32.2991
L57.9449 -31.9621
L57.8682 -31.6232
L57.7871 -31.2822
L57.7016 -30.9392
L57.6114 -30.5941
L57.5164 -30.2469
L57.4167 -29.8977
L57.312 -29.5463
L57.2022 -29.1928
L57.0873 -28.8371
L56.967 -28.4793
L56.8412 -28.1194
L56.7099 -27.7573
L56.5729 -27.3932
L56.43 -27.0269
L56.2811 -26.6587
L56.1261 -26.2885
L55.9648 -25.9163
L55.7971 -25.5422
L55.6229 -25.1664
L55.442 -24.7888
L55.2544 -24.4096
L55.0598 -24.0288
L54.8582 -23.6467
L54.6495 -23.2633
L54.4335 -22.8788
L54.2102 -22.4932
L53.9796 -22.1069
L53.7414 -21.7199
L53.4958 -21.3326
L53.2428 -20.945
L52.9822 -20.5574
L52.7141 -20.17
L52.4387 -19.7832
L52.1561 -19.3972
L51.8663 -19.0121
L51.5696 -18.6285
L51.2663 -18.2465
L50.9566 -17.8664
L50.6411 -17.4886
L50.3202 -17.1134
L49.9945 -16.7411
L49.6648 -16.3721
L49.3319 -16.0066
L48.9968 -15.6451
L48.6607 -15.2877
L48.325 -14.9348
L47.9915 -14.5866
L47.6619 -14.2433
L47.3385 -13.9052
L47.0237 -13.5724
L46.7204 -13.2449
L46.4316 -12.9228
L46.1605 -12.606
L45.9107 -12.2945
L45.6854 -11.9881
L45.4879 -11.6866
L45.3207 -11.3899
L45.1859 -11.0978
L45.0848 -10.8102
L45.0175 -10.5271
L44.9836 -10.2484
L44.9816 -9.97431
L45.0095 -9.70497
L45.0652 -9.44062
L45.6686 -9.1815
L46.135 -9.19015
L46.5984 -9.36298
L47.0585 -9.54391
L47.5152 -9.73291
L47.9685 -9.92991
L48.418 -10.1348
L48.8638 -10.3477
L49.3057 -10.5683
L49.7436 -10.7967
L50.1772 -11.0327
L50.6065 -11.2764
L51.0314 -11.5276
L51.4517 -11.7862
L51.8673 -12.0523
L52.2781 -12.3256
L52.6839 -12.6061
L53.0846 -12.8938
L53.4801 -13.1884
L53.8703 -13.4901
L54.255 -13.7986
L54.6342 -14.1138
L55.0077 -14.4358
L55.3754 -14.7643
L55.7373 -15.0992
L56.0931 -15.4406
L56.4428 -15.7882
L56.7862 -16.1419
L57.1233 -16.5017
L57.454 -16.8674
L57.7782 -17.239
L58.0957 -17.6163
L58.4065 -17.9992
L58.7105 -18.3875
L59.0075 -18.7813
L59.2976 -19.1802
L59.5805 -19.5843
L59.8563 -19.9934
L60.1248 -20.4074
L60.3859 -20.8261
L60.6396 -21.2495
L60.8858 -21.6773
L61.1245 -22.1095
L61.3554 -22.546
L61.5787 -22.9865
L61.7942 -23.431
L62.0018 -23.8793
L62.2015 -24.3313
L62.3932 -24.7869
L62.5768 -25.2459
L62.7524 -25.7082
L62.9198 -26.1735
L63.079 -26.6419
L63.23 -27.1132
L63.3727 -27.5871
L63.507 -28.0636
L63.633 -28.5426
L63.7505 -29.0238
L63.8596 -29.5071
L63.9602 -29.9924
L64.0523 -30.4795
L64.1359 -30.9683
L64.2108 -31.4587
L64.2772 -31.9504
L64.335 -32.4434
L64.3841 -32.9374
L64.4246 -33.4324
L64.4564 -33.9282
L64.4796 -34.4246
L64.4941 -34.9214
L64.4999 -35.4186
L64.497 -35.916
L64.4854 -36.4134
L64.4652 -36.9107
L64.4363 -37.4077
L64.3987 -37.9043
L64.3525 -38.4003
L64.2977 -38.8955
L64.2342 -39.3899
L64.1621 -39.8832
L64.0815 -40.3754
L63.9923 -40.8662
L63.8945 -41.3556
L63.7883 -41.8433
L63.6736 -42.3292
L63.5505 -42.8133
L63.419 -43.2952
L63.2791 -43.7749
L63.1309 -44.2522
L62.9745 -44.7271
L62.8098 -45.1992
L62.637 -45.6686
L62.4561 -46.135
L62.2671 -46.5984
L62.0701 -47.0585
L61.8652 -47.5152
L61.6523 -47.9685
L61.4317 -48.418
L61.2033 -48.8638
L60.9673 -49.3057
L60.7236 -49.7436
L60.4724 -50.1772
L60.2138 -50.6065
L59.9477 -51.0314
L59.6744 -51.4517
L59.3939 -51.8673
L59.1062 -52.2781
L58.8116 -52.6839
L58.5099 -53.0846
L58.2014 -53.4801
L57.8862 -53.8703
L57.5642 -54.255
L57.2357 -54.6342
L56.9008 -55.0077
L56.5594 -55.3754
L56.2118 -55.7373
L55.8581 -56.0931
L55.4983 -56.4428
L55.1326 -56.7862
L54.761 -57.1233
L54.3837 -57.454
L54.0008 -57.7782
L53.6125 -58.0957
L53.2187 -58.4065
L52.8198 -58.7105
L52.4157 -59.0075
L52.0066 -59.2976
L51.5926 -59.5805
L51.1739 -59.8563
L50.7505 -60.1248
L50.3227 -60.3859
L49.8905 -60.6396
L49.454 -60.8858
L49.0135 -61.1245
L48.569 -61.3554
L48.1207 -61.5787
z
" id="C0_2_6dcc615a0a"/>
    </defs>
    <g clip-path="url(#p1bffca34e9)">
     <use style="fill:#ff0000;stroke:#000000;stroke-width:2.0;" x="0.0" xlink:href="#C0_0_a811fe30f3" y="72.0"/>
    </g>
    <g clip-path="url(#p1bffca34e9)">
     <use style="fill:#ffffff;stroke:#000000;stroke-width:2.0;" x="0.0" xlink:href="#C0_1_882d51dd77" y="72.0"/>
    </g>
    <g clip-path="url(#p1bffca34e9)">
     <use style="fill:#ffffff;stroke:#000000;stroke-width:2.0;" x="0.0" xlink:href="#C0_2_6dcc615a0a" y="72.0"/>
    </g>
   </g>
  </g>
 </g>
 <defs>
  <clipPath id="p1bffca34e9">
   <rect height="72.0" width="72.0" x="0.0" y="0.0"/>
  </clipPath>
 </defs>
</svg>
