<?xml version="1.0" encoding="utf-8" standalone="no"?>
<!DOCTYPE svg PUBLIC "-//W3C//DTD SVG 1.1//EN"
  "http://www.w3.org/Graphics/SVG/1.1/DTD/svg11.dtd">
<!-- Created with matplotlib (http://matplotlib.org/) -->
<svg height="72pt" version="1.1" viewBox="0 0 72 72" width="72pt" xmlns="http://www.w3.org/2000/svg" xmlns:xlink="http://www.w3.org/1999/xlink">
 <defs>
  <style type="text/css">
*{stroke-linecap:butt;stroke-linejoin:round;}
  </style>
 </defs>
 <g id="figure_1">
  <g id="patch_1">
   <path d="
M0 72
L72 72
L72 0
L0 0
z
" style="fill:none;"/>
  </g>
  <g id="axes_1">
   <g id="PatchCollection_1">
    <defs>
     <path d="
M36 -7.5
C43.5583 -7.5 50.808 -10.5029 56.1525 -15.8475
C61.4971 -21.192 64.5 -28.4417 64.5 -36
C64.5 -43.5583 61.4971 -50.808 56.1525 -56.1525
C50.808 -61.4971 43.5583 -64.5 36 -64.5
C28.4417 -64.5 21.192 -61.4971 15.8475 -56.1525
C10.5029 -50.808 7.5 -43.5583 7.5 -36
C7.5 -28.4417 10.5029 -21.192 15.8475 -15.8475
C21.192 -10.5029 28.4417 -7.5 36 -7.5
z
" id="C0_0_a811fe30f3"/>
     <path d="
M14.7934 -54.8873
L15.014 -54.7729
L15.2256 -54.6415
L15.4286 -54.4941
L15.6238 -54.3319
L15.8116 -54.1558
L15.9927 -53.9671
L16.1676 -53.7668
L16.3371 -53.5558
L16.5015 -53.3352
L16.6615 -53.1059
L16.8175 -52.8688
L16.9701 -52.6246
L17.1196 -52.3742
L17.2665 -52.1182
L17.411 -51.8574
L17.5536 -51.5924
L17.6945 -51.3237
L17.8339 -51.0518
L17.9721 -50.7773
L18.1093 -50.5007
L18.2456 -50.2222
L18.3812 -49.9423
L18.5162 -49.6614
L18.6507 -49.3797
L18.7849 -49.0975
L18.9188 -48.8151
L19.0525 -48.5328
L19.186 -48.2507
L19.3194 -47.969
L19.4527 -47.6879
L19.586 -47.4076
L19.7192 -47.1282
L19.8525 -46.8497
L19.9857 -46.5725
L20.119 -46.2964
L20.2523 -46.0216
L20.3857 -45.7482
L20.5191 -45.4763
L20.6526 -45.2059
L20.7861 -44.9369
L20.9196 -44.6696
L21.0533 -44.4038
L21.1869 -44.1397
L21.3207 -43.8772
L21.4544 -43.6164
L21.5883 -43.3572
L21.7222 -43.0997
L21.8561 -42.8438
L21.9901 -42.5896
L22.1242 -42.3369
L22.2583 -42.0859
L22.3925 -41.8365
L22.5267 -41.5886
L22.6611 -41.3423
L22.7955 -41.0975
L22.93 -40.8542
L23.0646 -40.6124
L23.1993 -40.372
L23.3341 -40.1329
L23.4691 -39.8953
L23.6041 -39.6589
L23.7394 -39.4239
L23.8748 -39.1901
L24.0104 -38.9575
L24.1461 -38.726
L24.2821 -38.4957
L24.4183 -38.2665
L24.5547 -38.0383
L24.6914 -37.8111
L24.8283 -37.5849
L24.9656 -37.3596
L25.1032 -37.1351
L25.241 -36.9115
L25.3793 -36.6887
L25.5179 -36.4666
L25.6569 -36.2452
L25.7964 -36.0245
L25.9362 -35.8044
L26.0766 -35.5849
L26.2174 -35.3658
L26.3587 -35.1473
L26.5006 -34.9292
L26.6431 -34.7115
L26.9298 -34.4941
L27.0741 -34.2771
L27.2191 -34.0603
L27.3647 -33.8437
L27.5112 -33.6274
L27.6583 -33.4111
L27.8063 -33.1949
L27.9551 -32.9788
L28.1047 -32.7627
L28.2553 -32.5466
L28.4067 -32.3304
L28.5591 -32.1141
L28.7125 -31.8977
L28.8669 -31.681
L29.0223 -31.4641
L29.1788 -31.2469
L29.3364 -31.0294
L29.4952 -30.8116
L29.6551 -30.5934
L29.8162 -30.3747
L29.9786 -30.1556
L30.1423 -29.936
L30.3072 -29.7158
L30.4735 -29.4951
L30.6412 -29.2738
L30.8103 -29.0518
L30.9809 -28.8291
L31.1529 -28.6057
L31.3264 -28.3816
L31.5014 -28.1568
L31.678 -27.9311
L31.8562 -27.7046
L32.036 -27.4772
L32.2175 -27.249
L32.4006 -27.0198
L32.5854 -26.7897
L32.772 -26.5587
L32.9602 -26.3267
L33.1502 -26.0937
L33.3419 -25.8597
L33.5354 -25.6246
L33.7307 -25.3886
L33.9277 -25.1514
L34.1265 -24.9133
L34.327 -24.674
L34.5293 -24.4337
L34.7333 -24.1923
L34.939 -23.9499
L35.1464 -23.7064
L35.3554 -23.4618
L35.5659 -23.2162
L35.778 -22.9695
L35.9914 -22.7218
L36.2063 -22.473
L36.4224 -22.2233
L36.6397 -21.9726
L36.8579 -21.7209
L37.0771 -21.4683
L37.297 -21.2148
L37.5175 -20.9605
L37.7383 -20.7053
L37.9593 -20.4492
L38.1801 -20.1924
L38.4006 -19.9349
L38.6203 -19.6766
L38.8391 -19.4177
L39.0565 -19.1581
L39.2721 -18.8979
L39.4855 -18.637
L39.6962 -18.3757
L39.9037 -18.1137
L40.1073 -17.8512
L40.3066 -17.5882
L40.5008 -17.3246
L40.6892 -17.0605
L40.871 -16.7958
L41.0455 -16.5306
L41.2117 -16.2647
L41.3687 -15.9982
L41.5156 -15.731
L41.6514 -15.4631
L41.775 -15.1944
L41.8855 -14.9248
L41.9817 -14.6544
L42.0628 -14.3831
L42.1276 -14.1108
L42.1753 -13.8377
L42.2049 -13.5637
L42.2158 -13.2888
L42.2072 -13.0133
L42.1787 -12.7372
L42.1297 -12.4608
L42.0601 -12.1842
L41.9697 -11.9078
L41.8585 -11.632
L41.7268 -11.3571
L41.5748 -11.0835
L41.403 -10.8117
L41.2117 -10.5422
L41.0018 -10.2755
L40.7737 -10.0121
L40.5283 -9.75245
L40.2663 -9.49713
L39.9885 -9.24661
L39.6957 -9.00137
L39.3887 -8.76187
L39.0683 -8.52855
L38.7353 -8.30183
L38.3905 -8.08208
L38.0346 -7.86966
L37.5448 -7.6649
L37.0479 -7.5419
L36.5507 -7.51927
L36.0533 -7.50532
L35.5559 -7.50005
L35.0586 -7.50346
L34.5616 -7.51555
L34.0651 -7.53632
L33.5691 -7.56576
L33.0739 -7.60386
L32.5796 -7.65061
L32.0863 -7.70599
L31.5942 -7.76999
L31.1035 -7.8426
L30.6143 -7.92378
L30.1266 -8.01351
L29.6408 -8.11176
L29.1569 -8.21852
L28.6751 -8.33373
L28.1956 -8.45737
L27.7184 -8.5894
L27.2437 -8.72979
L26.7717 -8.87847
L26.3025 -9.03542
L25.8363 -9.20058
L25.3731 -9.37391
L24.9132 -9.55535
L24.4567 -9.74484
L24.0037 -9.94233
L23.5543 -10.1478
L23.1088 -10.3611
L22.6671 -10.5822
L22.2295 -10.811
L21.7962 -11.0476
L21.3671 -11.2917
L20.9425 -11.5433
L20.5225 -11.8024
L20.1072 -12.0689
L19.6967 -12.3427
L19.2913 -12.6236
L18.8909 -12.9117
L18.4957 -13.2069
L18.1058 -13.5089
L17.7214 -13.8178
L17.3426 -14.1335
L16.9694 -14.4559
L16.602 -14.7848
L16.2406 -15.1201
L15.8852 -15.4618
L15.5359 -15.8098
L15.1928 -16.1639
L14.8561 -16.5241
L14.5258 -16.8902
L14.202 -17.2621
L13.8849 -17.6398
L13.5745 -18.023
L13.271 -18.4117
L12.9744 -18.8058
L12.6848 -19.205
L12.4023 -19.6095
L12.1269 -20.0189
L11.8589 -20.4331
L11.5982 -20.8521
L11.345 -21.2758
L11.0992 -21.7039
L10.8611 -22.1364
L10.6305 -22.573
L10.4078 -23.0138
L10.1928 -23.4586
L9.98567 -23.9071
L9.78648 -24.3594
L9.59526 -24.8151
L9.4121 -25.2743
L9.23703 -25.7368
L9.07011 -26.2024
L8.9114 -26.6709
L8.76094 -27.1424
L8.61878 -27.6165
L8.48495 -28.0931
L8.35951 -28.5722
L8.24249 -29.0535
L8.13392 -29.537
L8.03384 -30.0224
L7.94228 -30.5097
L7.85927 -30.9986
L7.78482 -31.489
L7.71898 -31.9808
L7.66174 -32.4738
L7.61314 -32.968
L7.57319 -33.463
L7.5419 -33.9588
L7.51927 -34.4552
L7.50532 -34.9521
L7.50005 -35.4493
L7.50346 -35.9467
L7.51555 -36.4441
L7.53632 -36.9414
L7.56576 -37.4384
L7.60386 -37.9349
L7.65061 -38.4309
L7.70599 -38.9261
L7.76999 -39.4204
L7.8426 -39.9137
L7.92378 -40.4058
L8.01351 -40.8965
L8.11176 -41.3857
L8.21852 -41.8734
L8.33373 -42.3592
L8.45737 -42.8431
L8.5894 -43.3249
L8.72979 -43.8044
L8.87847 -44.2816
L9.03542 -44.7563
L9.20058 -45.2283
L9.37391 -45.6975
L9.55535 -46.1637
L9.74484 -46.6269
L9.94233 -47.0868
L10.1478 -47.5433
L10.3611 -47.9963
L10.5822 -48.4457
L10.811 -48.8912
L11.0476 -49.3329
L11.2917 -49.7705
L11.5433 -50.2038
L11.8024 -50.6329
L12.0689 -51.0575
L12.3427 -51.4775
L12.6236 -51.8928
L12.9117 -52.3033
L13.2069 -52.7087
L13.5089 -53.1091
L13.8178 -53.5043
L14.1335 -53.8942
z
" id="C0_1_534694a8f6"/>
     <path d="
M34.341 -64.3707
L34.7299 -64.2197
L35.1183 -64.0651
L35.5057 -63.9071
L35.8915 -63.7454
L36.2752 -63.5802
L36.6564 -63.4114
L37.0349 -63.2391
L37.4101 -63.0635
L37.7819 -62.8844
L38.1499 -62.7022
L38.514 -62.5167
L38.874 -62.3282
L39.2297 -62.1368
L39.5809 -61.9426
L39.9275 -61.7456
L40.2695 -61.5461
L40.6067 -61.3441
L40.9392 -61.1397
L41.2668 -60.9331
L41.5896 -60.7244
L41.9075 -60.5137
L42.2205 -60.301
L42.5286 -60.0866
L42.832 -59.8704
L43.1305 -59.6526
L43.4242 -59.4333
L43.7131 -59.2126
L43.9974 -58.9905
L44.2771 -58.7671
L44.5521 -58.5425
L44.8227 -58.3168
L45.0888 -58.09
L45.3504 -57.8621
L45.6078 -57.6333
L45.8609 -57.4035
L46.1099 -57.1729
L46.3547 -56.9414
L46.5955 -56.7091
L46.8323 -56.476
L47.0653 -56.2422
L47.2944 -56.0076
L47.5198 -55.7724
L47.7415 -55.5364
L47.9597 -55.2998
L48.1743 -55.0625
L48.3855 -54.8245
L48.5933 -54.5858
L48.7978 -54.3465
L48.9991 -54.1066
L49.1971 -53.8659
L49.3921 -53.6247
L49.584 -53.3827
L49.773 -53.14
L49.959 -52.8966
L50.1421 -52.6525
L50.3225 -52.4077
L50.5 -52.1621
L50.6749 -51.9157
L50.8471 -51.6685
L51.0168 -51.4205
L51.1838 -51.1716
L51.3484 -50.9218
L51.5105 -50.6711
L51.6702 -50.4194
L51.8275 -50.1668
L51.9825 -49.9131
L52.1352 -49.6584
L52.2856 -49.4026
L52.4337 -49.1457
L52.5797 -48.8876
L52.7235 -48.6282
L52.8651 -48.3677
L53.0047 -48.1058
L53.1421 -47.8426
L53.2774 -47.5779
L53.4107 -47.3119
L53.542 -47.0443
L53.6712 -46.7753
L53.7985 -46.5046
L53.9237 -46.2323
L54.0469 -45.9584
L54.1682 -45.6827
L54.2875 -45.4052
L54.4048 -45.1258
L54.5202 -44.8446
L54.6336 -44.5614
L54.745 -44.2762
L54.8544 -43.989
L54.9618 -43.6997
L55.0672 -43.4082
L55.1707 -43.1144
L55.2721 -42.8184
L55.3714 -42.5201
L55.4687 -42.2193
L55.5639 -41.9161
L55.657 -41.6105
L55.748 -41.3022
L55.8368 -40.9914
L55.9234 -40.6779
L56.0078 -40.3617
L56.0899 -40.0427
L56.1697 -39.721
L56.2472 -39.3963
L56.3223 -39.0688
L56.3949 -38.7384
L56.4651 -38.4049
L56.5327 -38.0685
L56.5978 -37.7289
L56.6602 -37.3864
L56.7199 -37.0407
L56.7769 -36.6918
L56.8311 -36.3398
L56.8824 -35.9847
L56.9308 -35.6264
L56.9762 -35.2649
L57.0186 -34.9003
L57.0578 -34.5325
L57.0939 -34.1615
L57.1268 -33.7875
L57.1564 -33.4104
L57.1827 -33.0303
L57.2056 -32.6472
L57.2251 -32.2613
L57.2412 -31.8725
L57.2537 -31.481
L57.2628 -31.0869
L57.2684 -30.6903
L57.2704 -30.2914
L57.2689 -29.8903
L57.2639 -29.4872
L57.2555 -29.0822
L57.2437 -28.6756
L57.2286 -28.2676
L57.2104 -27.8585
L57.189 -27.4484
L57.1648 -27.0378
L57.1379 -26.627
L57.1084 -26.2162
L57.0768 -25.8059
L57.0433 -25.3964
L57.0082 -24.9881
L56.972 -24.5816
L56.9351 -24.1773
L56.8981 -23.7757
L56.8614 -23.3772
L56.8257 -22.9826
L56.7916 -22.5923
L56.76 -22.2069
L56.7315 -21.827
L56.7069 -21.4533
L56.6872 -21.0864
L56.6732 -20.7269
L56.6658 -20.3755
L56.6658 -20.0328
L56.6742 -19.6993
L56.6918 -19.3757
L56.7193 -19.0625
L56.7574 -18.7601
L56.8068 -18.469
L56.8679 -18.1896
L56.9411 -17.9223
L57.0267 -17.6672
L57.1249 -17.4246
L57.6629 -17.1946
L57.9828 -17.4806
L58.296 -17.8615
L58.6024 -18.2479
L58.902 -18.6397
L59.1945 -19.0368
L59.48 -19.4391
L59.7584 -19.8464
L60.0295 -20.2587
L60.2933 -20.6757
L60.5496 -21.0974
L60.7986 -21.5236
L61.0399 -21.9543
L61.2736 -22.3892
L61.4997 -22.8283
L61.7179 -23.2714
L61.9284 -23.7184
L62.1309 -24.1691
L62.3255 -24.6234
L62.512 -25.0812
L62.6905 -25.5423
L62.8608 -26.0066
L63.023 -26.4739
L63.1769 -26.9441
L63.3226 -27.4171
L63.4599 -27.8928
L63.5889 -28.3708
L63.7094 -28.8512
L63.8215 -29.3338
L63.9252 -29.8184
L64.0203 -30.3049
L64.1069 -30.7932
L64.185 -31.283
L64.2544 -31.7742
L64.3153 -32.2668
L64.3675 -32.7604
L64.4111 -33.2551
L64.446 -33.7506
L64.4723 -34.2468
L64.4899 -34.7435
L64.4988 -35.2406
L64.499 -35.7379
L64.4906 -36.2353
L64.4735 -36.7327
L64.4477 -37.2298
L64.4132 -37.7265
L64.3701 -38.2228
L64.3183 -38.7183
L64.2579 -39.213
L64.1889 -39.7068
L64.1113 -40.1994
L64.0252 -40.6907
L63.9305 -41.1806
L63.8273 -41.6689
L63.7157 -42.1555
L63.5955 -42.6402
L63.467 -43.1229
L63.3302 -43.6034
L63.1849 -44.0816
L63.0315 -44.5574
L62.8697 -45.0305
L62.6998 -45.5009
L62.5218 -45.9684
L62.3357 -46.4329
L62.1415 -46.8941
L61.9394 -47.3521
L61.7294 -47.8066
L61.5116 -48.2575
L61.286 -48.7047
L61.0527 -49.148
L60.8117 -49.5873
L60.5632 -50.0224
L60.3072 -50.4533
L60.0438 -50.8798
L59.7731 -51.3018
L59.4952 -51.7191
L59.21 -52.1316
L58.9179 -52.5392
L58.6187 -52.9417
L58.3126 -53.3391
L57.9998 -53.7312
L57.6802 -54.1179
L57.3541 -54.4991
L57.0214 -54.8747
L56.6824 -55.2445
L56.337 -55.6084
L55.9854 -55.9664
L55.6278 -56.3183
L55.2642 -56.664
L54.8947 -57.0034
L54.5194 -57.3364
L54.1385 -57.6629
L53.7521 -57.9828
L53.3603 -58.296
L52.9632 -58.6024
L52.5609 -58.902
L52.1536 -59.1945
L51.7413 -59.48
L51.3243 -59.7584
L50.9026 -60.0295
L50.4764 -60.2933
L50.0457 -60.5496
L49.6108 -60.7986
L49.1717 -61.0399
L48.7286 -61.2736
L48.2816 -61.4997
L47.8309 -61.7179
L47.3766 -61.9284
L46.9188 -62.1309
L46.4577 -62.3255
L45.9934 -62.512
L45.5261 -62.6905
L45.0559 -62.8608
L44.5829 -63.023
L44.1072 -63.1769
L43.6292 -63.3226
L43.1488 -63.4599
L42.6662 -63.5889
L42.1816 -63.7094
L41.6951 -63.8215
L41.2068 -63.9252
L40.717 -64.0203
L40.2258 -64.1069
L39.7332 -64.185
L39.2396 -64.2544
L38.7449 -64.3153
L38.2494 -64.3675
L37.7532 -64.4111
L37.2565 -64.446
L36.7594 -64.4723
L36.2621 -64.4899
L35.7647 -64.4988
L35.2673 -64.499
z
" id="C0_2_66179ce978"/>
    </defs>
    <g clip-path="url(#p1bffca34e9)">
     <use style="fill:#ffffff;stroke:#000000;stroke-width:2.0;" x="0.0" xlink:href="#C0_0_a811fe30f3" y="72.0"/>
    </g>
    <g clip-path="url(#p1bffca34e9)">
     <use style="fill:#ff0000;stroke:#000000;stroke-width:2.0;" x="0.0" xlink:href="#C0_1_534694a8f6" y="72.0"/>
    </g>
    <g clip-path="url(#p1bffca34e9)">
     <use style="fill:#ff0000;stroke:#000000;stroke-width:2.0;" x="0.0" xlink:href="#C0_2_66179ce978" y="72.0"/>
    </g>
   </g>
  </g>
 </g>
 <defs>
  <clipPath id="p1bffca34e9">
   <rect height="72.0" width="72.0" x="0.0" y="0.0"/>
  </clipPath>
 </defs>
</svg>
