<?xml version="1.0" encoding="utf-8" standalone="no"?>
<!DOCTYPE svg PUBLIC "-//W3C//DTD SVG 1.1//EN"
  "http://www.w3.org/Graphics/SVG/1.1/DTD/svg11.dtd">
<!-- Created with matplotlib (http://matplotlib.org/) -->
<svg height="72pt" version="1.1" viewBox="0 0 72 72" width="72pt" xmlns="http://www.w3.org/2000/svg" xmlns:xlink="http://www.w3.org/1999/xlink">
 <defs>
  <style type="text/css">
*{stroke-linecap:butt;stroke-linejoin:round;}
  </style>
 </defs>
 <g id="figure_1">
  <g id="patch_1">
   <path d="
M0 72
L72 72
L72 0
L0 0
z
" style="fill:none;"/>
  </g>
  <g id="axes_1">
   <g id="PatchCollection_1">
    <defs>
     <path d="
M36 -7.5
C43.5583 -7.5 50.808 -10.5029 56.1525 -15.8475
C61.4971 -21.192 64.5 -28.4417 64.5 -36
C64.5 -43.5583 61.4971 -50.808 56.1525 -56.1525
C50.808 -61.4971 43.5583 -64.5 36 -64.5
C28.4417 -64.5 21.192 -61.4971 15.8475 -56.1525
C10.5029 -50.808 7.5 -43.5583 7.5 -36
C7.5 -28.4417 10.5029 -21.192 15.8475 -15.8475
C21.192 -10.5029 28.4417 -7.5 36 -7.5
z
" id="C0_0_a811fe30f3"/>
     <path d="
M59.1588 -52.5975
L58.9424 -52.5272
L58.7221 -52.4605
L58.498 -52.397
L58.2704 -52.3367
L58.0395 -52.2792
L57.8054 -52.2244
L57.5684 -52.1722
L57.3286 -52.1223
L57.0861 -52.0745
L56.8412 -52.0288
L56.594 -51.9848
L56.3446 -51.9426
L56.0932 -51.9018
L55.84 -51.8625
L55.5849 -51.8245
L55.3283 -51.7876
L55.0701 -51.7517
L54.8105 -51.7168
L54.5496 -51.6827
L54.2875 -51.6493
L54.0243 -51.6166
L53.7601 -51.5844
L53.495 -51.5527
L53.229 -51.5213
L52.9622 -51.4903
L52.6948 -51.4596
L52.4267 -51.4291
L52.158 -51.3986
L51.8888 -51.3683
L51.6192 -51.338
L51.3492 -51.3077
L51.0788 -51.2774
L50.808 -51.247
L50.537 -51.2164
L50.2658 -51.1856
L49.9943 -51.1547
L49.7227 -51.1235
L49.4509 -51.0921
L49.1789 -51.0604
L48.9069 -51.0283
L48.6348 -50.996
L48.3626 -50.9632
L48.0903 -50.9301
L47.818 -50.8967
L47.5457 -50.8628
L47.2733 -50.8284
L47.0009 -50.7937
L46.7285 -50.7585
L46.4561 -50.7228
L46.1837 -50.6866
L45.9112 -50.65
L45.6387 -50.6128
L45.3662 -50.5752
L45.0937 -50.537
L44.8212 -50.4983
L44.5486 -50.4591
L44.2759 -50.4193
L44.0032 -50.379
L43.7304 -50.3381
L43.4576 -50.2966
L43.1846 -50.2546
L42.9116 -50.212
L42.6384 -50.1688
L42.365 -50.125
L42.0916 -50.0807
L41.8179 -50.0357
L41.5441 -49.9902
L41.2701 -49.944
L40.7213 -49.8972
L40.4466 -49.8498
L40.1716 -49.8018
L39.8962 -49.7532
L39.6206 -49.7039
L39.3447 -49.6541
L39.0684 -49.6036
L38.7917 -49.5524
L38.5147 -49.5007
L38.2372 -49.4483
L37.9594 -49.3952
L37.6811 -49.3415
L37.4023 -49.2872
L37.123 -49.2323
L36.8433 -49.1767
L36.563 -49.1204
L36.2823 -49.0636
L36.0009 -49.006
L35.7191 -48.9479
L35.4366 -48.8891
L35.1536 -48.8297
L34.8699 -48.7697
L34.5857 -48.7091
L34.3008 -48.6478
L34.0153 -48.586
L33.7291 -48.5235
L33.4423 -48.4605
L33.1548 -48.3969
L32.8666 -48.3327
L32.5778 -48.2679
L32.2883 -48.2026
L31.998 -48.1368
L31.7072 -48.0705
L31.4156 -48.0037
L31.1233 -47.9364
L30.8304 -47.8687
L30.5368 -47.8005
L30.2425 -47.732
L29.9476 -47.6631
L29.652 -47.5938
L29.3558 -47.5243
L29.059 -47.4545
L28.7616 -47.3844
L28.4636 -47.3142
L28.165 -47.2438
L27.8659 -47.1733
L27.5663 -47.1028
L27.2662 -47.0324
L26.9657 -46.962
L26.6648 -46.8917
L26.3635 -46.8216
L26.0618 -46.7518
L25.7599 -46.6824
L25.4578 -46.6134
L25.1554 -46.5449
L24.8529 -46.4771
L24.5503 -46.4099
L24.2477 -46.3436
L23.9451 -46.2781
L23.6427 -46.2137
L23.3404 -46.1504
L23.0383 -46.0883
L22.7366 -46.0277
L22.4352 -45.9685
L22.1343 -45.911
L21.8339 -45.8553
L21.5342 -45.8015
L21.2353 -45.7498
L20.9371 -45.7004
L20.6399 -45.6533
L20.3436 -45.6088
L20.0485 -45.5671
L19.7546 -45.5282
L19.462 -45.4924
L19.1708 -45.4599
L18.8811 -45.4307
L18.5931 -45.4052
L18.3069 -45.3834
L18.0225 -45.3656
L17.7401 -45.352
L17.4598 -45.3426
L17.1817 -45.3377
L16.906 -45.3375
L16.6328 -45.3421
L16.3621 -45.3516
L16.0941 -45.3663
L15.829 -45.3862
L15.5669 -45.4115
L15.3078 -45.4424
L15.0519 -45.479
L14.7994 -45.5213
L14.5503 -45.5695
L14.3048 -45.6237
L14.063 -45.6839
L13.8251 -45.7503
L13.591 -45.8229
L13.3611 -45.9017
L13.1353 -45.9868
L12.9138 -46.0782
L12.6968 -46.1759
L12.4842 -46.28
L12.2763 -46.3903
L12.0732 -46.507
L11.8749 -46.63
L11.6816 -46.7593
L11.4933 -46.8948
L11.3103 -47.0364
L11.1324 -47.1842
L10.96 -47.338
L10.793 -47.4978
L10.6316 -47.6635
L10.4758 -47.835
L10.3257 -48.0123
L10.4739 -48.1952
L10.699 -48.6754
L10.9318 -49.119
L11.1722 -49.5586
L11.4203 -49.994
L11.6757 -50.4252
L11.9387 -50.852
L12.2089 -51.2742
L12.4864 -51.6918
L12.771 -52.1046
L13.0627 -52.5126
L13.3615 -52.9154
L13.6671 -53.3132
L13.9795 -53.7056
L14.2986 -54.0927
L14.6243 -54.4743
L14.9565 -54.8502
L15.2952 -55.2204
L15.6401 -55.5847
L15.9913 -55.9431
L16.3485 -56.2954
L16.7118 -56.6415
L17.0809 -56.9813
L17.4558 -57.3147
L17.8363 -57.6417
L18.2224 -57.962
L18.6138 -58.2757
L19.0106 -58.5825
L19.4125 -58.8825
L19.8195 -59.1755
L20.2315 -59.4615
L20.6482 -59.7403
L21.0696 -60.0119
L21.4955 -60.2762
L21.9259 -60.533
L22.3606 -60.7825
L22.7994 -61.0243
L23.2422 -61.2585
L23.6889 -61.4851
L24.1394 -61.7038
L24.5935 -61.9148
L25.051 -62.1178
L25.5119 -62.3129
L25.976 -62.5
L26.4432 -62.679
L26.9132 -62.8499
L27.386 -63.0126
L27.8615 -63.1671
L28.3394 -63.3133
L28.8196 -63.4511
L29.3021 -63.5807
L29.7866 -63.7018
L30.2729 -63.8144
L30.7611 -63.9186
L31.2508 -64.0143
L31.7419 -64.1015
L32.2344 -64.1801
L32.728 -64.2501
L33.2226 -64.3116
L33.7181 -64.3643
L34.2142 -64.4085
L34.7109 -64.444
L35.208 -64.4708
L35.7053 -64.489
L36.2027 -64.4985
L36.7001 -64.4993
L37.1972 -64.4914
L37.694 -64.4748
L38.1902 -64.4496
L38.6858 -64.4157
L39.1806 -64.3732
L39.6744 -64.322
L40.1671 -64.2621
L40.6585 -64.1937
L41.1485 -64.1167
L41.6369 -64.0311
L42.1236 -63.937
L42.6085 -63.8344
L43.0913 -63.7232
L43.572 -63.6037
L44.0503 -63.4757
L44.5262 -63.3394
L44.9995 -63.1947
L45.4701 -63.0418
L45.9378 -62.8806
L46.4025 -62.7112
L46.864 -62.5337
L47.3221 -62.3481
L47.7769 -62.1545
L48.228 -61.9529
L48.6754 -61.7435
L49.119 -61.5261
L49.5586 -61.301
L49.994 -61.0682
L50.4252 -60.8278
L50.852 -60.5797
L51.2742 -60.3243
L51.6918 -60.0613
L52.1046 -59.7911
L52.5126 -59.5136
L52.9154 -59.229
L53.3132 -58.9373
L53.7056 -58.6385
L54.0927 -58.3329
L54.4743 -58.0205
L54.8502 -57.7014
L55.2204 -57.3757
L55.5847 -57.0435
L55.9431 -56.7048
L56.2954 -56.3599
L56.6415 -56.0087
L56.9813 -55.6515
L57.3147 -55.2882
L57.6417 -54.9191
L57.962 -54.5442
L58.2757 -54.1637
L58.5825 -53.7776
z
" id="C0_1_dbb41df40f"/>
     <path d="
M61.5748 -23.7332
L61.3345 -23.7239
L61.0916 -23.7116
L60.8463 -23.6964
L60.5987 -23.6786
L60.3488 -23.6584
L60.0969 -23.636
L59.8431 -23.6116
L59.5874 -23.5855
L59.33 -23.5576
L59.071 -23.5283
L58.8105 -23.4977
L58.5485 -23.466
L58.2852 -23.4332
L58.0207 -23.3995
L57.755 -23.3651
L57.4883 -23.33
L57.2206 -23.2944
L56.9519 -23.2583
L56.6824 -23.222
L56.4121 -23.1853
L56.1411 -23.1486
L55.8694 -23.1117
L55.597 -23.0748
L55.3242 -23.038
L55.0508 -23.0013
L54.777 -22.9648
L54.5027 -22.9285
L54.228 -22.8926
L53.953 -22.8569
L53.6777 -22.8217
L53.4021 -22.7868
L53.1262 -22.7524
L52.8501 -22.7185
L52.5738 -22.6851
L52.2973 -22.6523
L52.0207 -22.6201
L51.7439 -22.5884
L51.4669 -22.5573
L51.1898 -22.5269
L50.9126 -22.4972
L50.6353 -22.4681
L50.3579 -22.4397
L50.0804 -22.412
L49.8028 -22.3851
L49.525 -22.3588
L49.2472 -22.3333
L48.9693 -22.3085
L48.6913 -22.2845
L48.4132 -22.2612
L48.135 -22.2386
L47.8566 -22.2169
L47.5781 -22.1959
L47.2995 -22.1757
L47.0208 -22.1562
L46.7418 -22.1375
L46.4627 -22.1196
L46.1834 -22.1025
L45.904 -22.0862
L45.6243 -22.0707
L45.3444 -22.0559
L45.0642 -22.0419
L44.7838 -22.0287
L44.5031 -22.0163
L44.2221 -22.0047
L43.9408 -21.9939
L43.6591 -21.9838
L43.3772 -21.9746
L43.0948 -21.9661
L42.8121 -21.9584
L42.5289 -21.9515
L42.2454 -21.9453
L41.9614 -21.94
L41.6769 -21.9354
L41.3919 -21.9316
L41.1065 -21.9285
L40.8205 -21.9263
L40.534 -21.9248
L40.247 -21.924
L39.9593 -21.9241
L39.6711 -21.9249
L39.3823 -21.9264
L39.0928 -21.9287
L38.8027 -21.9318
L38.512 -21.9356
L38.2205 -21.9401
L37.9284 -21.9454
L37.6356 -21.9514
L37.3421 -21.9581
L37.0478 -21.9656
L36.7528 -21.9737
L36.4571 -21.9826
L36.1606 -21.9921
L35.8634 -22.0024
L35.5654 -22.0133
L35.2666 -22.0249
L34.967 -22.0371
L34.6667 -22.05
L34.3656 -22.0634
L34.0637 -22.0775
L33.761 -22.0922
L33.4576 -22.1074
L33.1534 -22.1232
L32.8485 -22.1395
L32.5428 -22.1564
L32.2364 -22.1737
L31.9294 -22.1914
L31.6216 -22.2096
L31.3131 -22.2281
L31.0041 -22.247
L30.6944 -22.2662
L30.3841 -22.2857
L30.0733 -22.3054
L29.7619 -22.3253
L29.4501 -22.3453
L29.1379 -22.3654
L28.8252 -22.3855
L28.5123 -22.4056
L28.199 -22.4255
L27.8855 -22.4453
L27.5719 -22.4649
L27.2581 -22.4841
L26.9443 -22.5029
L26.6305 -22.5213
L26.3169 -22.539
L26.0034 -22.5561
L25.6902 -22.5724
L25.3773 -22.5879
L25.0649 -22.6023
L24.753 -22.6157
L24.4418 -22.6278
L24.1313 -22.6386
L23.8216 -22.6479
L23.5129 -22.6557
L23.2052 -22.6617
L22.8987 -22.6658
L22.5935 -22.6679
L22.2898 -22.6678
L21.9875 -22.6654
L21.687 -22.6606
L21.3882 -22.6531
L21.0913 -22.6428
L20.7966 -22.6296
L20.504 -22.6133
L20.2137 -22.5938
L19.926 -22.5708
L19.6408 -22.5443
L19.3584 -22.5141
L19.0789 -22.48
L18.8024 -22.4419
L18.5291 -22.3996
L18.2591 -22.3531
L17.9926 -22.3021
L17.7297 -22.2466
L17.4706 -22.1864
L17.2153 -22.1215
L16.964 -22.0517
L16.7169 -21.977
L16.4741 -21.8972
L16.2356 -21.8124
L16.0017 -21.7224
L15.7725 -21.6272
L15.5481 -21.5267
L15.3285 -21.421
L15.114 -21.3099
L14.9046 -21.1936
L14.7004 -21.072
L14.5016 -20.9451
L14.3083 -20.8129
L14.1204 -20.6755
L13.9383 -20.5329
L13.7618 -20.3851
L13.5912 -20.2322
L13.4265 -20.0743
L13.2679 -19.9114
L13.1153 -19.7435
L13.0906 -19.5709
L13.39 -19.0468
L13.6962 -18.6496
L14.0093 -18.2576
L14.329 -17.8711
L14.6554 -17.49
L14.9882 -17.1146
L15.3275 -16.745
L15.673 -16.3812
L16.0247 -16.0234
L16.3826 -15.6717
L16.7464 -15.3262
L17.116 -14.987
L17.4914 -14.6541
L17.8725 -14.3278
L18.2591 -14.0081
L18.651 -13.6951
L19.0483 -13.3889
L19.4507 -13.0895
L19.8582 -12.7972
L20.2706 -12.5119
L20.6877 -12.2337
L21.1096 -11.9628
L21.536 -11.6993
L21.9667 -11.4431
L22.4018 -11.1944
L22.841 -10.9533
L23.2842 -10.7198
L23.7313 -10.494
L24.1821 -10.2759
L24.6365 -10.0657
L25.0944 -9.86342
L25.5556 -9.66908
L26.02 -9.48276
L26.4874 -9.30452
L26.9577 -9.13441
L27.4308 -8.97248
L27.9064 -8.81879
L28.3846 -8.67338
L28.8651 -8.53629
L29.3477 -8.40756
L29.8324 -8.28724
L30.3189 -8.17536
L30.8072 -8.07196
L31.2971 -7.97707
L31.7883 -7.89071
L32.2809 -7.81291
L32.7746 -7.7437
L33.2693 -7.6831
L33.7648 -7.63112
L34.261 -7.58778
L34.7578 -7.5531
L35.2549 -7.52709
L35.7522 -7.50974
L36.2496 -7.50108
L36.747 -7.50109
L37.2441 -7.50979
L37.7408 -7.52717
L38.237 -7.55321
L38.7325 -7.58793
L39.2272 -7.6313
L39.7209 -7.68331
L40.2135 -7.74394
L40.7048 -7.81318
L41.1946 -7.89101
L41.6829 -7.9774
L42.1694 -8.07233
L42.6541 -8.17576
L43.1367 -8.28767
L43.6172 -8.40802
L44.0953 -8.53678
L44.571 -8.6739
L45.0441 -8.81934
L45.5144 -8.97307
L45.9818 -9.13503
L46.4461 -9.30517
L46.9073 -9.48344
L47.3652 -9.66979
L47.8196 -9.86416
L48.2704 -10.0665
L48.7175 -10.2767
L49.1607 -10.4948
L49.5998 -10.7206
L50.0349 -10.9542
L50.4656 -11.1953
L50.892 -11.444
L51.3138 -11.7002
L51.731 -11.9638
L52.1433 -12.2348
L52.5508 -12.5129
L52.9532 -12.7982
L53.3504 -13.0906
L53.7424 -13.39
L54.1289 -13.6962
L54.51 -14.0093
L54.8854 -14.329
L55.255 -14.6554
L55.6188 -14.9882
L55.9766 -15.3275
L56.3283 -15.673
L56.6738 -16.0247
L57.013 -16.3826
L57.3459 -16.7464
L57.6722 -17.116
L57.9919 -17.4914
L58.3049 -17.8725
L58.6111 -18.2591
L58.9105 -18.651
L59.2028 -19.0483
L59.4881 -19.4507
L59.7663 -19.8582
L60.0372 -20.2706
L60.3007 -20.6877
L60.5569 -21.1096
L60.8056 -21.536
L61.0467 -21.9667
L61.2802 -22.4018
z
" id="C0_2_84a7cb57f4"/>
    </defs>
    <g clip-path="url(#p1bffca34e9)">
     <use style="fill:#ff0000;stroke:#000000;stroke-width:2.0;" x="0.0" xlink:href="#C0_0_a811fe30f3" y="72.0"/>
    </g>
    <g clip-path="url(#p1bffca34e9)">
     <use style="fill:#ffffff;stroke:#000000;stroke-width:2.0;" x="0.0" xlink:href="#C0_1_dbb41df40f" y="72.0"/>
    </g>
    <g clip-path="url(#p1bffca34e9)">
     <use style="fill:#ffffff;stroke:#000000;stroke-width:2.0;" x="0.0" xlink:href="#C0_2_84a7cb57f4" y="72.0"/>
    </g>
   </g>
  </g>
 </g>
 <defs>
  <clipPath id="p1bffca34e9">
   <rect height="72.0" width="72.0" x="0.0" y="0.0"/>
  </clipPath>
 </defs>
</svg>
