<?xml version="1.0" encoding="utf-8" standalone="no"?>
<!DOCTYPE svg PUBLIC "-//W3C//DTD SVG 1.1//EN"
  "http://www.w3.org/Graphics/SVG/1.1/DTD/svg11.dtd">
<!-- Created with matplotlib (http://matplotlib.org/) -->
<svg height="72pt" version="1.1" viewBox="0 0 72 72" width="72pt" xmlns="http://www.w3.org/2000/svg" xmlns:xlink="http://www.w3.org/1999/xlink">
 <defs>
  <style type="text/css">
*{stroke-linecap:butt;stroke-linejoin:round;}
  </style>
 </defs>
 <g id="figure_1">
  <g id="patch_1">
   <path d="
M0 72
L72 72
L72 0
L0 0
z
" style="fill:none;"/>
  </g>
  <g id="axes_1">
   <g id="PatchCollection_1">
    <defs>
     <path d="
M36 -7.5
C43.5583 -7.5 50.808 -10.5029 56.1525 -15.8475
C61.4971 -21.192 64.5 -28.4417 64.5 -36
C64.5 -43.5583 61.4971 -50.808 56.1525 -56.1525
C50.808 -61.4971 43.5583 -64.5 36 -64.5
C28.4417 -64.5 21.192 -61.4971 15.8475 -56.1525
C10.5029 -50.808 7.5 -43.5583 7.5 -36
C7.5 -28.4417 10.5029 -21.192 15.8475 -15.8475
C21.192 -10.5029 28.4417 -7.5 36 -7.5
z
" id="C0_0_a811fe30f3"/>
     <path d="
M58.8069 -52.8909
L58.6345 -52.8124
L58.4622 -52.7322
L58.29 -52.6503
L58.1177 -52.5668
L57.9453 -52.4815
L57.7729 -52.3947
L57.6003 -52.3061
L57.2547 -52.216
L57.0815 -52.1242
L56.908 -52.0308
L56.7343 -51.9358
L56.5602 -51.8391
L56.3857 -51.7409
L56.2108 -51.641
L56.0354 -51.5394
L55.8596 -51.4363
L55.6832 -51.3314
L55.5063 -51.225
L55.3288 -51.1168
L55.1507 -51.0069
L54.9719 -50.8954
L54.7924 -50.7821
L54.6122 -50.6671
L54.4313 -50.5503
L54.2495 -50.4318
L54.067 -50.3114
L53.8836 -50.1892
L53.6993 -50.0652
L53.5141 -49.9392
L53.328 -49.8114
L53.141 -49.6817
L52.9529 -49.5499
L52.7639 -49.4162
L52.5738 -49.2804
L52.3826 -49.1426
L52.1904 -49.0027
L51.9971 -48.8607
L51.8027 -48.7164
L51.6071 -48.57
L51.4104 -48.4214
L51.2125 -48.2704
L51.0135 -48.1172
L50.8133 -47.9616
L50.6119 -47.8036
L50.4093 -47.6431
L50.2056 -47.4802
L50.0006 -47.3147
L49.7945 -47.1467
L49.5873 -46.9761
L49.3789 -46.8028
L49.1694 -46.6269
L48.9588 -46.4482
L48.7472 -46.2667
L48.5345 -46.0825
L48.3209 -45.8953
L48.1063 -45.7053
L47.8909 -45.5124
L47.6747 -45.3164
L47.4577 -45.1175
L47.2402 -44.9155
L47.022 -44.7104
L46.8035 -44.5022
L46.5845 -44.2908
L46.3654 -44.0763
L46.1462 -43.8585
L45.9271 -43.6375
L45.7082 -43.4132
L45.4897 -43.1856
L45.2718 -42.9546
L45.0547 -42.7204
L44.8386 -42.4828
L44.6238 -42.2418
L44.4104 -41.9974
L44.1988 -41.7496
L43.9892 -41.4984
L43.782 -41.2439
L43.5774 -40.9859
L43.3758 -40.7245
L43.1775 -40.4597
L42.9829 -40.1916
L42.7923 -39.9201
L42.6062 -39.6453
L42.4249 -39.3671
L42.2489 -39.0857
L42.0785 -38.8011
L41.9141 -38.5132
L41.7562 -38.2222
L41.6052 -37.9282
L41.4615 -37.631
L41.3254 -37.331
L41.1973 -37.0281
L41.0776 -36.7224
L40.9665 -36.414
L40.8644 -36.103
L40.7714 -35.7896
L40.6878 -35.4738
L40.6137 -35.1559
L40.5493 -34.8359
L40.4946 -34.5141
L40.4496 -34.1905
L40.4143 -33.8654
L40.3885 -33.539
L40.3723 -33.2114
L40.3653 -32.8828
L40.3674 -32.5536
L40.3783 -32.2238
L40.3978 -31.8936
L40.4256 -31.5634
L40.4613 -31.2333
L40.5046 -30.9035
L40.5552 -30.5742
L40.6126 -30.2456
L40.6766 -29.918
L40.7467 -29.5915
L40.8227 -29.2663
L40.9041 -28.9426
L40.9906 -28.6205
L41.0819 -28.3003
L41.1776 -27.982
L41.2774 -27.6659
L41.3811 -27.352
L41.4883 -27.0404
L41.5987 -26.7314
L41.7121 -26.4249
L41.8282 -26.1212
L41.9468 -25.8202
L42.0677 -25.5221
L42.1907 -25.2269
L42.3155 -24.9347
L42.442 -24.6456
L42.57 -24.3595
L42.6994 -24.0766
L42.83 -23.7968
L42.9617 -23.5202
L43.0943 -23.2468
L43.2277 -22.9767
L43.3618 -22.7097
L43.4966 -22.446
L43.6318 -22.1855
L43.7675 -21.9283
L43.9036 -21.6742
L44.0399 -21.4234
L44.1765 -21.1757
L44.3133 -20.9312
L44.4501 -20.6898
L44.5871 -20.4515
L44.724 -20.2163
L44.861 -19.9842
L44.9979 -19.7551
L45.1348 -19.5289
L45.2716 -19.3057
L45.4082 -19.0854
L45.5448 -18.868
L45.6812 -18.6535
L45.8174 -18.4417
L45.9535 -18.2326
L46.0894 -18.0263
L46.2252 -17.8227
L46.3608 -17.6217
L46.4962 -17.4233
L46.6315 -17.2274
L46.7666 -17.0341
L46.9016 -16.8432
L47.0365 -16.6547
L47.1712 -16.4687
L47.3058 -16.285
L47.4403 -16.1036
L47.5748 -15.9245
L47.7092 -15.7477
L47.8435 -15.5731
L47.9778 -15.4006
L48.1121 -15.2303
L48.2465 -15.0621
L48.3808 -14.896
L48.5153 -14.7319
L48.6498 -14.5698
L48.7844 -14.4098
L48.9192 -14.2517
L49.0542 -14.0955
L49.1893 -13.9413
L49.3247 -13.789
L49.4604 -13.6385
L49.5963 -13.4899
L49.7326 -13.3431
L49.8692 -13.1982
L50.0063 -13.0551
L50.1438 -12.9138
L50.2817 -12.7743
L50.4202 -12.6365
L50.5592 -12.5005
L50.6988 -12.3664
L50.839 -12.2339
L50.9799 -12.1033
L51.1216 -11.9744
L51.543 -11.8473
L51.9576 -12.1114
L52.3673 -12.3863
L52.772 -12.6684
L53.1716 -12.9576
L53.5659 -13.2539
L53.9549 -13.557
L54.3385 -13.867
L54.7164 -14.1837
L55.0887 -14.5071
L55.4551 -14.837
L55.8156 -15.1734
L56.1701 -15.5161
L56.5184 -15.865
L56.8605 -16.2201
L57.1962 -16.5812
L57.5255 -16.9483
L57.8482 -17.3211
L58.1643 -17.6996
L58.4736 -18.0837
L58.7761 -18.4732
L59.0716 -18.8681
L59.3601 -19.2682
L59.6415 -19.6734
L59.9156 -20.0836
L60.1825 -20.4986
L60.4421 -20.9184
L60.6941 -21.3427
L60.9387 -21.7715
L61.1757 -22.2047
L61.405 -22.642
L61.6265 -23.0834
L61.8403 -23.5288
L62.0461 -23.9779
L62.2441 -24.4307
L62.434 -24.887
L62.6159 -25.3468
L62.7897 -25.8097
L62.9554 -26.2758
L63.1128 -26.7448
L63.2619 -27.2167
L63.4028 -27.6912
L63.5353 -28.1682
L63.6594 -28.6477
L63.7751 -29.1293
L63.8824 -29.6131
L63.9811 -30.0988
L64.0713 -30.5863
L64.153 -31.0755
L64.2261 -31.5662
L64.2906 -32.0582
L64.3465 -32.5514
L64.3937 -33.0457
L64.4323 -33.5408
L64.4622 -34.0367
L64.4835 -34.5332
L64.4961 -35.0302
L64.5 -35.5275
L64.4952 -36.0249
L64.4818 -36.5222
L64.4596 -37.0195
L64.4288 -37.5164
L64.3894 -38.0128
L64.3413 -38.5087
L64.2845 -39.0038
L64.2192 -39.4979
L64.1452 -39.991
L64.0627 -40.4829
L63.9716 -40.9734
L63.872 -41.4624
L63.7639 -41.9498
L63.6474 -42.4353
L63.5224 -42.9189
L63.3891 -43.4003
L63.2474 -43.8795
L63.0974 -44.3564
L62.9392 -44.8306
L62.7727 -45.3022
L62.5981 -45.7709
L62.4154 -46.2367
L62.2247 -46.6993
L62.0259 -47.1587
L61.8193 -47.6147
L61.6047 -48.0671
L61.3824 -48.5159
L61.1523 -48.9609
L60.9146 -49.4019
L60.6693 -49.8388
L60.4165 -50.2715
L60.1562 -50.6999
L59.8886 -51.1238
L59.6137 -51.543
L59.3316 -51.9576
z
" id="C0_1_72f4e813fc"/>
     <path d="
M20.9257 -59.9762
L20.978 -59.7914
L21.0309 -59.6051
L21.0843 -59.4174
L21.1384 -59.2283
L21.193 -59.0376
L21.2483 -58.8454
L21.3042 -58.6516
L21.3608 -58.4562
L21.4179 -58.2592
L21.4758 -58.0604
L21.5343 -57.8599
L21.5935 -57.6576
L21.6534 -57.4536
L21.7139 -57.2476
L21.7752 -57.0398
L21.8372 -56.83
L21.8999 -56.6182
L21.9633 -56.4044
L22.0275 -56.1885
L22.0924 -55.9704
L22.158 -55.7503
L22.2244 -55.5279
L22.2915 -55.3032
L22.3594 -55.0763
L22.428 -54.847
L22.4974 -54.6153
L22.5675 -54.3812
L22.6384 -54.1446
L22.71 -53.9055
L22.7823 -53.6639
L22.8553 -53.4196
L22.9291 -53.1728
L23.0035 -52.9233
L23.0786 -52.671
L23.1543 -52.4161
L23.2307 -52.1583
L23.3077 -51.8978
L23.3853 -51.6345
L23.4633 -51.3683
L23.5419 -51.0992
L23.6209 -50.8273
L23.7003 -50.5525
L23.78 -50.2747
L23.86 -49.994
L23.9402 -49.7105
L24.0205 -49.424
L24.1009 -49.1345
L24.1812 -48.8422
L24.2614 -48.547
L24.3412 -48.249
L24.4207 -47.9481
L24.4997 -47.6444
L24.5779 -47.338
L24.6554 -47.0288
L24.7319 -46.7171
L24.8072 -46.4027
L24.8811 -46.0859
L24.9535 -45.7666
L25.0241 -45.445
L25.0927 -45.1211
L25.159 -44.7952
L25.2228 -44.4672
L25.2838 -44.1373
L25.3416 -43.8056
L25.3961 -43.4724
L25.4469 -43.1376
L25.4937 -42.8016
L25.536 -42.4644
L25.5737 -42.1262
L25.6064 -41.7872
L25.6336 -41.4475
L25.6551 -41.1074
L25.6706 -40.7671
L25.6797 -40.4267
L25.682 -40.0864
L25.6774 -39.7464
L25.6655 -39.407
L25.6461 -39.0682
L25.619 -38.7303
L25.584 -38.3934
L25.5409 -38.0578
L25.4898 -37.7235
L25.4304 -37.3908
L25.363 -37.0598
L25.2874 -36.7306
L25.2037 -36.4033
L25.1122 -36.0782
L25.013 -35.7552
L24.9063 -35.4345
L24.7924 -35.1161
L24.6715 -34.8003
L24.544 -34.4869
L24.4102 -34.1762
L24.2704 -33.8681
L24.1251 -33.5628
L23.9746 -33.2602
L23.8192 -32.9604
L23.6595 -32.6635
L23.4956 -32.3694
L23.3281 -32.0783
L23.1573 -31.7901
L22.9835 -31.5049
L22.8071 -31.2226
L22.6284 -30.9433
L22.4478 -30.667
L22.2654 -30.3937
L22.0817 -30.1235
L21.8968 -29.8562
L21.7111 -29.592
L21.5248 -29.3308
L21.338 -29.0726
L21.151 -28.8174
L20.9641 -28.5652
L20.7772 -28.316
L20.5907 -28.0697
L20.4047 -27.8264
L20.2193 -27.586
L20.0346 -27.3486
L19.8507 -27.114
L19.6679 -26.8822
L19.486 -26.6533
L19.3053 -26.4272
L19.1257 -26.2039
L18.9474 -25.9833
L18.7704 -25.7654
L18.5948 -25.5502
L18.4206 -25.3376
L18.2479 -25.1276
L18.0766 -24.9202
L17.9068 -24.7153
L17.7386 -24.5129
L17.5718 -24.3129
L17.4066 -24.1154
L17.243 -23.9202
L17.081 -23.7273
L16.9204 -23.5368
L16.7615 -23.3484
L16.6041 -23.1623
L16.4482 -22.9783
L16.2939 -22.7965
L16.1411 -22.6167
L15.9898 -22.439
L15.84 -22.2632
L15.6917 -22.0894
L15.5448 -21.9176
L15.3994 -21.7476
L15.2554 -21.5794
L15.1128 -21.4131
L14.9716 -21.2485
L14.8317 -21.0856
L14.6931 -20.9245
L14.5559 -20.7649
L14.4199 -20.607
L14.2852 -20.4507
L14.1517 -20.2959
L14.0194 -20.1427
L13.8883 -19.9909
L13.7584 -19.8405
L13.6296 -19.6916
L13.5018 -19.5441
L13.3752 -19.3979
L13.2496 -19.253
L12.7809 -19.1095
L12.496 -19.4736
L12.2182 -19.8814
L11.9478 -20.294
L11.6846 -20.7115
L11.4288 -21.1336
L11.1806 -21.5602
L10.9399 -21.9912
L10.7068 -22.4265
L10.4814 -22.8659
L10.2638 -23.3094
L10.0541 -23.7567
L9.85222 -24.2077
L9.65833 -24.6623
L9.47247 -25.1204
L9.29468 -25.5817
L9.12504 -26.0463
L8.96357 -26.5139
L8.81035 -26.9844
L8.6654 -27.4576
L8.52878 -27.9334
L8.40053 -28.4117
L8.28069 -28.8923
L8.16929 -29.3751
L8.06637 -29.8598
L7.97196 -30.3465
L7.88608 -30.8348
L7.80877 -31.3248
L7.74004 -31.8162
L7.67993 -32.3088
L7.62844 -32.8026
L7.58559 -33.2973
L7.5514 -33.7929
L7.52587 -34.2891
L7.50902 -34.7859
L7.50085 -35.283
L7.50135 -35.7803
L7.51054 -36.2778
L7.52841 -36.7751
L7.55495 -37.2722
L7.59015 -37.7689
L7.63401 -38.265
L7.6865 -38.7605
L7.74763 -39.2551
L7.81736 -39.7488
L7.89567 -40.2413
L7.98254 -40.7325
L8.07795 -41.2223
L8.18186 -41.7104
L8.29425 -42.1969
L8.41508 -42.6814
L8.54431 -43.1639
L8.6819 -43.6443
L8.82782 -44.1223
L8.98201 -44.5978
L9.14443 -45.0707
L9.31503 -45.5409
L9.49376 -46.0081
L9.68056 -46.4723
L9.87538 -46.9333
L10.0782 -47.391
L10.2888 -47.8452
L10.5073 -48.2958
L10.7336 -48.7426
L10.9676 -49.1856
L11.2092 -49.6245
L11.4583 -50.0593
L11.7149 -50.4899
L11.979 -50.916
L12.2503 -51.3375
L12.5289 -51.7544
L12.8146 -52.1665
L13.1074 -52.5737
L13.4071 -52.9758
L13.7138 -53.3727
L14.0272 -53.7644
L14.3473 -54.1506
L14.674 -54.5313
L15.0072 -54.9064
L15.3468 -55.2757
L15.6927 -55.6392
L16.0448 -55.9966
L16.403 -56.348
L16.7671 -56.6932
L17.1371 -57.032
L17.5128 -57.3645
L17.8942 -57.6904
L18.2811 -58.0098
L18.6734 -58.3224
L19.0709 -58.6282
L19.4736 -58.9272
L19.8814 -59.2191
L20.294 -59.504
z
" id="C0_2_9b75223c9f"/>
    </defs>
    <g clip-path="url(#p1bffca34e9)">
     <use style="fill:#ffffff;stroke:#000000;stroke-width:2.0;" x="0.0" xlink:href="#C0_0_a811fe30f3" y="72.0"/>
    </g>
    <g clip-path="url(#p1bffca34e9)">
     <use style="fill:#ff0000;stroke:#000000;stroke-width:2.0;" x="0.0" xlink:href="#C0_1_72f4e813fc" y="72.0"/>
    </g>
    <g clip-path="url(#p1bffca34e9)">
     <use style="fill:#ff0000;stroke:#000000;stroke-width:2.0;" x="0.0" xlink:href="#C0_2_9b75223c9f" y="72.0"/>
    </g>
   </g>
  </g>
 </g>
 <defs>
  <clipPath id="p1bffca34e9">
   <rect height="72.0" width="72.0" x="0.0" y="0.0"/>
  </clipPath>
 </defs>
</svg>
