<?xml version="1.0" encoding="utf-8" standalone="no"?>
<!DOCTYPE svg PUBLIC "-//W3C//DTD SVG 1.1//EN"
  "http://www.w3.org/Graphics/SVG/1.1/DTD/svg11.dtd">
<!-- Created with matplotlib (http://matplotlib.org/) -->
<svg height="72pt" version="1.1" viewBox="0 0 72 72" width="72pt" xmlns="http://www.w3.org/2000/svg" xmlns:xlink="http://www.w3.org/1999/xlink">
 <defs>
  <style type="text/css">
*{stroke-linecap:butt;stroke-linejoin:round;}
  </style>
 </defs>
 <g id="figure_1">
  <g id="patch_1">
   <path d="
M0 72
L72 72
L72 0
L0 0
z
" style="fill:none;"/>
  </g>
  <g id="axes_1">
   <g id="PatchCollection_1">
    <defs>
     <path d="
M36 -7.5
C43.5583 -7.5 50.808 -10.5029 56.1525 -15.8475
C61.4971 -21.192 64.5 -28.4417 64.5 -36
C64.5 -43.5583 61.4971 -50.808 56.1525 -56.1525
C50.808 -61.4971 43.5583 -64.5 36 -64.5
C28.4417 -64.5 21.192 -61.4971 15.8475 -56.1525
C10.5029 -50.808 7.5 -43.5583 7.5 -36
C7.5 -28.4417 10.5029 -21.192 15.8475 -15.8475
C21.192 -10.5029 28.4417 -7.5 36 -7.5
z
" id="C0_0_a811fe30f3"/>
     <path d="
M37.1413 -7.55672
L37.0391 -7.73889
L36.9391 -7.92171
L36.8411 -8.10519
L36.7452 -8.28931
L36.6512 -8.4741
L36.559 -8.65954
L36.4687 -8.84566
L36.38 -9.03247
L36.2931 -9.21997
L36.2078 -9.40819
L36.124 -9.59713
L36.0417 -9.78683
L35.9609 -9.9773
L35.8815 -10.1686
L35.8035 -10.3607
L35.7268 -10.5536
L35.6514 -10.7474
L35.5772 -10.9421
L35.5043 -11.1377
L35.4325 -11.3343
L35.3618 -11.532
L35.2238 -11.7306
L35.1564 -11.9303
L35.09 -12.1312
L35.0246 -12.3331
L34.9602 -12.5363
L34.8967 -12.7407
L34.8341 -12.9464
L34.7725 -13.1533
L34.7117 -13.3617
L34.6518 -13.5714
L34.5928 -13.7826
L34.5346 -13.9953
L34.4772 -14.2096
L34.4207 -14.4254
L34.3649 -14.643
L34.3099 -14.8622
L34.2558 -15.0831
L34.2024 -15.3059
L34.1497 -15.5305
L34.0979 -15.7571
L34.0468 -15.9856
L33.9964 -16.2162
L33.9469 -16.4489
L33.898 -16.6837
L33.85 -16.9207
L33.8027 -17.16
L33.7562 -17.4016
L33.7104 -17.6456
L33.6654 -17.8921
L33.6213 -18.141
L33.5779 -18.3926
L33.5354 -18.6468
L33.4937 -18.9036
L33.4528 -19.1632
L33.4129 -19.4257
L33.3738 -19.691
L33.3356 -19.9593
L33.2984 -20.2305
L33.2621 -20.5048
L33.2269 -20.7822
L33.1926 -21.0627
L33.1595 -21.3465
L33.1275 -21.6335
L33.0966 -21.9238
L33.0669 -22.2175
L33.0384 -22.5145
L33.0113 -22.815
L32.9855 -23.1189
L32.9611 -23.4263
L32.9382 -23.7372
L32.9169 -24.0515
L32.8972 -24.3694
L32.8792 -24.6909
L32.863 -25.0158
L32.8487 -25.3442
L32.8364 -25.676
L32.8262 -26.0113
L32.8182 -26.35
L32.8125 -26.6919
L32.8093 -27.0371
L32.8088 -27.3854
L32.811 -27.7367
L32.8161 -28.0909
L32.8244 -28.4478
L32.8359 -28.8073
L32.851 -29.1691
L32.8698 -29.5331
L32.8926 -29.8991
L32.9197 -30.2666
L32.9513 -30.6355
L32.9877 -31.0053
L33.0293 -31.3757
L33.0765 -31.7464
L33.1295 -32.1168
L33.1889 -32.4864
L33.2551 -32.8547
L33.3285 -33.2212
L33.4096 -33.5852
L33.499 -33.946
L33.5973 -34.303
L33.7049 -34.6553
L33.8226 -35.0022
L33.9508 -35.3428
L34.0901 -35.6764
L34.2411 -36.002
L34.4043 -36.3189
L34.5801 -36.6262
L34.7689 -36.9231
L34.9709 -37.209
L35.1864 -37.4831
L35.4152 -37.7451
L35.6572 -37.9945
L35.9123 -38.2309
L36.18 -38.4543
L36.4598 -38.6647
L36.751 -38.862
L37.053 -39.0466
L37.3649 -39.2188
L37.686 -39.3789
L38.0153 -39.5274
L38.352 -39.6648
L38.6953 -39.7916
L39.0443 -39.9083
L39.3981 -40.0155
L39.7561 -40.1138
L40.1174 -40.2036
L40.4813 -40.2854
L40.8473 -40.3597
L41.2147 -40.4269
L41.583 -40.4875
L41.9517 -40.5419
L42.3202 -40.5904
L42.6882 -40.6333
L43.0553 -40.6711
L43.4211 -40.7039
L43.7853 -40.732
L44.1476 -40.7558
L44.5078 -40.7755
L44.8657 -40.7912
L45.221 -40.8032
L45.5735 -40.8116
L45.9232 -40.8168
L46.2699 -40.8187
L46.6134 -40.8177
L46.9536 -40.8137
L47.2906 -40.8071
L47.6242 -40.7978
L47.9543 -40.786
L48.2809 -40.7719
L48.604 -40.7555
L48.9236 -40.737
L49.2397 -40.7163
L49.5522 -40.6937
L49.8611 -40.6692
L50.1665 -40.6428
L50.4685 -40.6147
L50.7669 -40.5849
L51.0619 -40.5535
L51.3534 -40.5205
L51.6416 -40.486
L51.9264 -40.4501
L52.2079 -40.4127
L52.4862 -40.3739
L52.7612 -40.3339
L53.0332 -40.2925
L53.302 -40.2499
L53.5678 -40.206
L53.8306 -40.161
L54.0906 -40.1147
L54.3476 -40.0674
L54.6018 -40.0189
L54.8533 -39.9693
L55.1022 -39.9186
L55.3484 -39.8669
L55.592 -39.8141
L55.8332 -39.7603
L56.0719 -39.7054
L56.3082 -39.6495
L56.5422 -39.5925
L56.7739 -39.5346
L57.0035 -39.4756
L57.2309 -39.4156
L57.4562 -39.3546
L57.6794 -39.2926
L57.9007 -39.2296
L58.1201 -39.1655
L58.3376 -39.1003
L58.5533 -39.0342
L58.7672 -38.9669
L58.9794 -38.8986
L59.1899 -38.8292
L59.3988 -38.7587
L59.6061 -38.6871
L59.8119 -38.6143
L60.0162 -38.5404
L60.2191 -38.4652
L60.4206 -38.3889
L60.6207 -38.3114
L60.8195 -38.2325
L61.017 -38.1524
L61.2133 -38.071
L61.4084 -37.9882
L61.6023 -37.904
L61.7951 -37.8184
L61.9867 -37.7313
L62.1773 -37.6427
L62.3668 -37.5526
L62.5553 -37.4609
L62.7428 -37.3675
L62.9293 -37.2724
L63.1149 -37.1756
L63.2995 -37.077
L63.4832 -36.9765
L63.666 -36.8741
L63.8479 -36.7697
L64.029 -36.6633
L64.2091 -36.5548
L64.3884 -36.444
L64.4995 -36.331
L64.4923 -35.8349
L64.4764 -35.3375
L64.4518 -34.8403
L64.4186 -34.3435
L64.3767 -33.8472
L64.3261 -33.3516
L64.267 -32.8567
L64.1992 -32.3629
L64.1228 -31.8701
L64.0379 -31.3786
L63.9444 -30.8885
L63.8424 -30.3999
L63.7319 -29.9131
L63.613 -29.4281
L63.4857 -28.9451
L63.35 -28.4643
L63.2059 -27.9857
L63.0536 -27.5096
L62.8931 -27.0361
L62.7243 -26.5653
L62.5474 -26.0974
L62.3624 -25.6325
L62.1694 -25.1708
L61.9684 -24.7123
L61.7595 -24.2573
L61.5428 -23.8059
L61.3183 -23.3582
L61.0861 -22.9143
L60.8462 -22.4745
L60.5987 -22.0387
L60.3438 -21.6072
L60.0814 -21.1801
L59.8118 -20.7575
L59.5348 -20.3395
L59.2507 -19.9264
L58.9595 -19.5181
L58.6613 -19.1148
L58.3563 -18.7167
L58.0444 -18.3238
L57.7257 -17.9363
L57.4005 -17.5544
L57.0688 -17.178
L56.7306 -16.8074
L56.3861 -16.4426
L56.0354 -16.0838
L55.6786 -15.731
L55.3158 -15.3844
L54.9472 -15.0441
L54.5727 -14.7102
L54.1926 -14.3828
L53.807 -14.0619
L53.4159 -13.7478
L53.0195 -13.4404
L52.618 -13.1399
L52.2114 -12.8463
L51.7998 -12.5598
L51.3834 -12.2805
L50.9624 -12.0083
L50.5368 -11.7435
L50.1067 -11.4861
L49.6724 -11.2361
L49.2339 -10.9937
L48.7914 -10.7589
L48.3449 -10.5318
L47.8947 -10.3124
L47.4409 -10.1009
L46.9836 -9.89722
L46.523 -9.70152
L46.0591 -9.51384
L45.5922 -9.33422
L45.1224 -9.16273
L44.6498 -8.99941
L44.1745 -8.84431
L43.6968 -8.69749
L43.2167 -8.55898
L42.7344 -8.42883
L42.2501 -8.30708
L41.7638 -8.19377
L41.2759 -8.08893
L40.7863 -7.99258
L40.2952 -7.90477
L39.8028 -7.82552
L39.3093 -7.75485
L38.8148 -7.69278
L38.3194 -7.63934
L37.8233 -7.59453
z
" id="C0_1_c920979551"/>
     <path d="
M7.5686 -35.7854
L7.74681 -35.9039
L7.92737 -36.0219
L8.11034 -36.1395
L8.29576 -36.2567
L8.48369 -36.3735
L8.67419 -36.49
L8.8673 -36.6062
L9.06309 -36.7221
L9.26162 -36.8378
L9.46293 -36.9532
L9.66709 -37.0685
L9.87417 -37.1836
L10.0842 -37.2985
L10.2973 -37.4133
L10.5135 -37.528
L10.7328 -37.6427
L10.9553 -37.7572
L11.1811 -37.8718
L11.4103 -37.9863
L11.6428 -38.1008
L11.8788 -38.2154
L12.1184 -38.33
L12.3614 -38.4447
L12.6082 -38.5595
L12.8586 -38.6744
L13.1127 -38.7894
L13.3706 -38.9046
L13.6323 -39.0199
L13.8979 -39.1354
L14.1674 -39.2512
L14.4407 -39.3672
L14.7181 -39.4835
L14.9994 -39.6001
L15.2847 -39.717
L15.5739 -39.8342
L15.8672 -39.9519
L16.1643 -40.0699
L16.4655 -40.1885
L16.7704 -40.3075
L17.0793 -40.4271
L17.3918 -40.5473
L17.7081 -40.6683
L18.0279 -40.7899
L18.3512 -40.9124
L18.6778 -41.0358
L19.0076 -41.1602
L19.3403 -41.2858
L19.6758 -41.4126
L20.0138 -41.5408
L20.354 -41.6706
L20.6961 -41.8021
L21.0398 -41.9356
L21.3847 -42.0713
L21.7304 -42.2094
L22.0764 -42.3502
L22.4222 -42.494
L22.7673 -42.6413
L23.1111 -42.7923
L23.453 -42.9475
L23.7923 -43.1073
L24.1282 -43.2722
L24.46 -43.4427
L24.787 -43.6193
L25.1084 -43.8026
L25.4233 -43.9931
L25.7311 -44.1914
L26.0309 -44.3979
L26.3221 -44.6131
L26.6041 -44.8374
L26.8763 -45.0711
L27.1383 -45.3144
L27.3899 -45.5674
L27.6308 -45.83
L27.861 -46.1022
L28.0806 -46.3837
L28.2899 -46.674
L28.4891 -46.9727
L28.6787 -47.2793
L28.8591 -47.5929
L29.031 -47.9131
L29.1947 -48.239
L29.3511 -48.5699
L29.5005 -48.905
L29.6436 -49.2437
L29.781 -49.5853
L29.9131 -49.929
L30.0405 -50.2743
L30.1636 -50.6205
L30.2827 -50.9671
L30.3984 -51.3136
L30.511 -51.6595
L30.6207 -52.0044
L30.7279 -52.3478
L30.8328 -52.6895
L30.9357 -53.0291
L31.0367 -53.3663
L31.1362 -53.7008
L31.2341 -54.0325
L31.3307 -54.3612
L31.4261 -54.6866
L31.5205 -55.0086
L31.6139 -55.3271
L31.7064 -55.6419
L31.7982 -55.9531
L31.8892 -56.2604
L31.9797 -56.5639
L32.0696 -56.8634
L32.1589 -57.1591
L32.2478 -57.4508
L32.3363 -57.7385
L32.4245 -58.0222
L32.5123 -58.302
L32.5998 -58.5778
L32.687 -58.8497
L32.7741 -59.1177
L32.8609 -59.3819
L32.9476 -59.6422
L33.0341 -59.8987
L33.1205 -60.1515
L33.2068 -60.4006
L33.293 -60.646
L33.3792 -60.8879
L33.4653 -61.1263
L33.5514 -61.3612
L33.6375 -61.5926
L33.7237 -61.8208
L33.8099 -62.0456
L33.8962 -62.2673
L33.9826 -62.4858
L34.0691 -62.7012
L34.1557 -62.9135
L34.2425 -63.1229
L34.3294 -63.3294
L34.4166 -63.5331
L34.5039 -63.734
L34.5915 -63.9321
L34.6794 -64.1276
L34.2642 -64.3205
L33.768 -64.4471
L33.2725 -64.4125
L32.7778 -64.3692
L32.2841 -64.3173
L31.7915 -64.2567
L31.3002 -64.1876
L30.8103 -64.1098
L30.322 -64.0235
L29.8355 -63.9287
L29.3508 -63.8253
L28.8681 -63.7135
L28.3876 -63.5932
L27.9095 -63.4646
L27.4338 -63.3275
L26.9607 -63.1822
L26.4904 -63.0285
L26.0229 -62.8666
L25.5585 -62.6966
L25.0973 -62.5184
L24.6394 -62.3321
L24.185 -62.1378
L23.7341 -61.9356
L23.287 -61.7254
L22.8438 -61.5075
L22.4046 -61.2817
L21.9695 -61.0482
L21.5387 -60.8071
L21.1123 -60.5585
L20.6904 -60.3024
L20.2732 -60.0389
L19.8608 -59.768
L19.4533 -59.4899
L19.0508 -59.2047
L18.6535 -58.9123
L18.2615 -58.6131
L17.8749 -58.3069
L17.4938 -57.9939
L17.1184 -57.6742
L16.7487 -57.3479
L16.3849 -57.0152
L16.027 -56.676
L15.6752 -56.3305
L15.3296 -55.9788
L14.9904 -55.6211
L14.6575 -55.2573
L14.3311 -54.8877
L14.0113 -54.5124
L13.6982 -54.1314
L13.3919 -53.7449
L13.0925 -53.3529
L12.8001 -52.9557
L12.5147 -52.5534
L12.2365 -52.1459
L11.9655 -51.7336
L11.7019 -51.3165
L11.4456 -50.8947
L11.1969 -50.4684
L10.9557 -50.0376
L10.7221 -49.6026
L10.4962 -49.1635
L10.2781 -48.7203
L10.0678 -48.2733
L9.86542 -47.8225
L9.671 -47.3681
L9.4846 -46.9103
L9.30627 -46.4491
L9.13608 -45.9847
L8.97407 -45.5173
L8.8203 -45.0471
L8.6748 -44.574
L8.53762 -44.0984
L8.40881 -43.6202
L8.28841 -43.1398
L8.17645 -42.6572
L8.07296 -42.1725
L7.97798 -41.686
L7.89153 -41.1977
L7.81365 -40.7079
L7.74435 -40.2166
L7.68366 -39.724
L7.6316 -39.2303
L7.58818 -38.7357
L7.55341 -38.2402
L7.5273 -37.744
L7.50987 -37.2472
z
" id="C0_2_3084e94176"/>
    </defs>
    <g clip-path="url(#p1bffca34e9)">
     <use style="fill:#ff0000;stroke:#000000;stroke-width:2.0;" x="0.0" xlink:href="#C0_0_a811fe30f3" y="72.0"/>
    </g>
    <g clip-path="url(#p1bffca34e9)">
     <use style="fill:#ffffff;stroke:#000000;stroke-width:2.0;" x="0.0" xlink:href="#C0_1_c920979551" y="72.0"/>
    </g>
    <g clip-path="url(#p1bffca34e9)">
     <use style="fill:#ffffff;stroke:#000000;stroke-width:2.0;" x="0.0" xlink:href="#C0_2_3084e94176" y="72.0"/>
    </g>
   </g>
  </g>
 </g>
 <defs>
  <clipPath id="p1bffca34e9">
   <rect height="72.0" width="72.0" x="0.0" y="0.0"/>
  </clipPath>
 </defs>
</svg>
