<?xml version="1.0" encoding="utf-8" standalone="no"?>
<!DOCTYPE svg PUBLIC "-//W3C//DTD SVG 1.1//EN"
  "http://www.w3.org/Graphics/SVG/1.1/DTD/svg11.dtd">
<!-- Created with matplotlib (http://matplotlib.org/) -->
<svg height="72pt" version="1.1" viewBox="0 0 72 72" width="72pt" xmlns="http://www.w3.org/2000/svg" xmlns:xlink="http://www.w3.org/1999/xlink">
 <defs>
  <style type="text/css">
*{stroke-linecap:butt;stroke-linejoin:round;}
  </style>
 </defs>
 <g id="figure_1">
  <g id="patch_1">
   <path d="
M0 72
L72 72
L72 0
L0 0
z
" style="fill:none;"/>
  </g>
  <g id="axes_1">
   <g id="PatchCollection_1">
    <defs>
     <path d="
M36 -7.5
C43.5583 -7.5 50.808 -10.5029 56.1525 -15.8475
C61.4971 -21.192 64.5 -28.4417 64.5 -36
C64.5 -43.5583 61.4971 -50.808 56.1525 -56.1525
C50.808 -61.4971 43.5583 -64.5 36 -64.5
C28.4417 -64.5 21.192 -61.4971 15.8475 -56.1525
C10.5029 -50.808 7.5 -43.5583 7.5 -36
C7.5 -28.4417 10.5029 -21.192 15.8475 -15.8475
C21.192 -10.5029 28.4417 -7.5 36 -7.5
z
" id="C0_0_a811fe30f3"/>
     <path d="
M54.5175 -57.4699
L54.1557 -57.5335
L53.8037 -57.5766
L53.4624 -57.5989
L53.1325 -57.6006
L52.8146 -57.5816
L52.5093 -57.5422
L52.217 -57.4828
L51.9377 -57.4039
L51.6715 -57.306
L51.4184 -57.1897
L51.178 -57.056
L50.95 -56.9055
L50.734 -56.7393
L50.5293 -56.5583
L50.3353 -56.3633
L50.1514 -56.1555
L49.9768 -55.9358
L49.8109 -55.7051
L49.653 -55.4644
L49.5023 -55.2146
L49.3583 -54.9565
L49.2202 -54.6909
L49.0875 -54.4187
L48.9598 -54.1405
L48.8363 -53.8571
L48.7168 -53.5691
L48.6008 -53.2769
L48.4879 -52.9813
L48.3778 -52.6828
L48.2701 -52.3816
L48.1646 -52.0784
L48.061 -51.7735
L47.9592 -51.4673
L47.8588 -51.1601
L47.7598 -50.8522
L47.662 -50.5439
L47.5652 -50.2355
L47.4694 -49.9271
L47.3743 -49.619
L47.28 -49.3114
L47.1863 -49.0045
L47.0933 -48.6983
L47.0007 -48.3932
L46.9085 -48.089
L46.8168 -47.7861
L46.7255 -47.4845
L46.6344 -47.1842
L46.5437 -46.8854
L46.4532 -46.5881
L46.363 -46.2923
L46.273 -45.9981
L46.1831 -45.7056
L46.0935 -45.4148
L46.004 -45.1256
L45.9147 -44.8382
L45.8255 -44.5524
L45.7364 -44.2684
L45.6474 -43.9862
L45.5585 -43.7056
L45.4697 -43.4268
L45.381 -43.1497
L45.2923 -42.8742
L45.2037 -42.6004
L45.1152 -42.3283
L45.0266 -42.0577
L44.9381 -41.7888
L44.8497 -41.5214
L44.7612 -41.2555
L44.6727 -40.9911
L44.5842 -40.7281
L44.4957 -40.4666
L44.4072 -40.2064
L44.3186 -39.9476
L44.2299 -39.6901
L44.1412 -39.4338
L44.0524 -39.1787
L43.9635 -38.9248
L43.8745 -38.672
L43.7854 -38.4202
L43.6961 -38.1695
L43.6067 -37.9198
L43.5171 -37.671
L43.4274 -37.4231
L43.3375 -37.176
L43.2473 -36.9296
L43.157 -36.6841
L43.0664 -36.4392
L42.9755 -36.1949
L42.8844 -35.9513
L42.793 -35.7082
L42.7014 -35.4656
L42.6093 -35.2234
L42.517 -34.9816
L42.4243 -34.7402
L42.3312 -34.499
L42.1439 -34.2582
L42.0496 -34.0175
L41.9549 -33.7769
L41.8597 -33.5365
L41.764 -33.2961
L41.6678 -33.0557
L41.5711 -32.8153
L41.4738 -32.5748
L41.376 -32.3341
L41.2776 -32.0933
L41.1785 -31.8522
L41.0789 -31.6109
L40.9786 -31.3692
L40.8776 -31.1271
L40.7759 -30.8846
L40.6735 -30.6416
L40.5704 -30.3982
L40.4665 -30.1541
L40.3618 -29.9095
L40.2563 -29.6642
L40.15 -29.4182
L40.0429 -29.1714
L39.9349 -28.9239
L39.826 -28.6756
L39.7162 -28.4264
L39.6054 -28.1763
L39.4937 -27.9252
L39.3811 -27.6732
L39.2674 -27.4201
L39.1527 -27.166
L39.0371 -26.9107
L38.9203 -26.6544
L38.8025 -26.3968
L38.6837 -26.1381
L38.5637 -25.8782
L38.4427 -25.617
L38.3206 -25.3545
L38.1973 -25.0907
L38.073 -24.8256
L37.9475 -24.5591
L37.8209 -24.2913
L37.6932 -24.022
L37.5644 -23.7514
L37.4346 -23.4794
L37.3036 -23.206
L37.1716 -22.9311
L37.0386 -22.6549
L36.9045 -22.3772
L36.7696 -22.0981
L36.6337 -21.8177
L36.4969 -21.5359
L36.3594 -21.2527
L36.2212 -20.9682
L36.0823 -20.6824
L35.9429 -20.3954
L35.8031 -20.1071
L35.663 -19.8177
L35.5227 -19.5271
L35.3824 -19.2356
L35.2423 -18.943
L35.1025 -18.6495
L34.9634 -18.3551
L34.825 -18.06
L34.6878 -17.7643
L34.5519 -17.4679
L34.4178 -17.1711
L34.2858 -16.8739
L34.1562 -16.5765
L34.0296 -16.279
L33.9065 -15.9814
L33.7873 -15.684
L33.6727 -15.3868
L33.5633 -15.0901
L33.4598 -14.7939
L33.3629 -14.4984
L33.2736 -14.2037
L33.1925 -13.9102
L33.1208 -13.6178
L33.0594 -13.3268
L33.0093 -13.0374
L32.9716 -12.7497
L32.9474 -12.464
L32.938 -12.1806
L32.9444 -11.8995
L32.9677 -11.6211
L33.0092 -11.3456
L33.0697 -11.0734
L33.1503 -10.8047
L33.2518 -10.5399
L33.3749 -10.2793
L33.52 -10.0233
L33.6876 -9.7724
L33.8777 -9.52696
L34.0905 -9.28745
L34.3256 -9.05436
L34.5827 -8.82816
L34.8612 -8.60934
L35.1604 -8.3984
L35.4796 -8.19581
L35.8177 -8.00204
L36.1739 -7.81754
L36.6721 -7.64273
L37.1693 -7.50793
L37.6661 -7.524
L38.1623 -7.54874
L38.658 -7.58215
L39.1528 -7.62421
L39.6467 -7.67492
L40.1394 -7.73426
L40.6309 -7.80221
L41.121 -7.87875
L41.6095 -7.96385
L42.0963 -8.05749
L42.5813 -8.15965
L43.0642 -8.27028
L43.545 -8.38937
L44.0235 -8.51686
L44.4995 -8.65272
L44.973 -8.79692
L45.4437 -8.9494
L45.9116 -9.11012
L46.3764 -9.27903
L46.8381 -9.45608
L47.2965 -9.64122
L47.7514 -9.83438
L48.2028 -10.0355
L48.6504 -10.2446
L49.0942 -10.4615
L49.534 -10.6861
L49.9697 -10.9185
L50.4011 -11.1585
L50.8281 -11.4061
L51.2506 -11.6612
L51.6685 -11.9237
L52.0816 -12.1935
L52.4898 -12.4706
L52.8929 -12.7548
L53.291 -13.0462
L53.6837 -13.3445
L54.0711 -13.6497
L54.453 -13.9617
L54.8292 -14.2805
L55.1997 -14.6058
L55.5644 -14.9377
L55.9231 -15.276
L56.2757 -15.6206
L56.6222 -15.9714
L56.9624 -16.3283
L57.2962 -16.6912
L57.6235 -17.06
L57.9442 -17.4346
L58.2582 -17.8148
L58.5655 -18.2005
L58.8658 -18.5917
L59.1593 -18.9882
L59.4456 -19.3898
L59.7248 -19.7965
L59.9968 -20.2082
L60.2615 -20.6246
L60.5188 -21.0458
L60.7686 -21.4715
L61.0109 -21.9016
L61.2456 -22.336
L61.4725 -22.7746
L61.6918 -23.2172
L61.9031 -23.6637
L62.1066 -24.114
L62.3022 -24.5679
L62.4897 -25.0252
L62.6692 -25.4859
L62.8405 -25.9498
L63.0037 -26.4168
L63.1586 -26.8867
L63.3053 -27.3594
L63.4436 -27.8347
L63.5736 -28.3125
L63.6952 -28.7926
L63.8083 -29.2749
L63.913 -29.7593
L64.0092 -30.2456
L64.0968 -30.7336
L64.1759 -31.2232
L64.2464 -31.7143
L64.3083 -32.2067
L64.3616 -32.7002
L64.4062 -33.1948
L64.4422 -33.6902
L64.4696 -34.1863
L64.4882 -34.683
L64.4982 -35.18
L64.4995 -35.6773
L64.4921 -36.1747
L64.476 -36.6721
L64.4513 -37.1693
L64.4179 -37.6661
L64.3758 -38.1623
L64.3251 -38.658
L64.2657 -39.1528
L64.1978 -39.6467
L64.1213 -40.1394
L64.0361 -40.6309
L63.9425 -41.121
L63.8404 -41.6095
L63.7297 -42.0963
L63.6106 -42.5813
L63.4831 -43.0642
L63.3473 -43.545
L63.2031 -44.0235
L63.0506 -44.4995
L62.8899 -44.973
L62.721 -45.4437
L62.5439 -45.9116
L62.3588 -46.3764
L62.1656 -46.8381
L61.9645 -47.2965
L61.7554 -47.7514
L61.5385 -48.2028
L61.3139 -48.6504
L61.0815 -49.0942
L60.8415 -49.534
L60.5939 -49.9697
L60.3388 -50.4011
L60.0763 -50.8281
L59.8065 -51.2506
L59.5294 -51.6685
L59.2452 -52.0816
L58.9538 -52.4898
L58.6555 -52.8929
L58.3503 -53.291
L58.0383 -53.6837
L57.7195 -54.0711
L57.3942 -54.453
L57.0623 -54.8292
L56.724 -55.1997
L56.3794 -55.5644
L56.0286 -55.9231
L55.6717 -56.2757
L55.3088 -56.6222
z
" id="C0_1_2eec5f7605"/>
     <path d="
M35.4541 -64.4675
L35.0766 -64.2921
L34.6931 -64.1144
L34.3047 -63.9341
L33.9124 -63.7509
L33.5173 -63.5646
L33.1202 -63.3749
L32.722 -63.1818
L32.3235 -62.9852
L31.9254 -62.7849
L31.5284 -62.581
L31.1331 -62.3734
L30.74 -62.1622
L30.3496 -61.9474
L29.9624 -61.7292
L29.5787 -61.5074
L29.1989 -61.2824
L28.8233 -61.0541
L28.4522 -60.8228
L28.0857 -60.5884
L27.7242 -60.3513
L27.3676 -60.1114
L27.0163 -59.8689
L26.6703 -59.624
L26.3297 -59.3769
L25.9946 -59.1275
L25.665 -58.8761
L25.341 -58.6229
L25.0226 -58.3678
L24.7097 -58.1111
L24.4024 -57.8528
L24.1007 -57.5931
L23.8045 -57.3321
L23.5138 -57.0699
L23.2286 -56.8066
L22.9487 -56.5422
L22.6742 -56.2768
L22.405 -56.0106
L22.141 -55.7436
L21.8821 -55.4758
L21.6283 -55.2073
L21.3795 -54.9383
L21.1356 -54.6687
L20.8966 -54.3985
L20.6623 -54.1279
L20.4326 -53.8568
L20.2076 -53.5853
L19.9871 -53.3134
L19.771 -53.0412
L19.5592 -52.7686
L19.3517 -52.4957
L19.1484 -52.2225
L18.9492 -51.949
L18.754 -51.6752
L18.5628 -51.4011
L18.3754 -51.1267
L18.1919 -50.852
L18.0121 -50.5769
L17.8359 -50.3016
L17.6634 -50.0259
L17.4944 -49.7499
L17.3288 -49.4735
L17.1667 -49.1967
L17.0079 -48.9196
L16.8524 -48.642
L16.7002 -48.3639
L16.5511 -48.0854
L16.4052 -47.8063
L16.2623 -47.5268
L16.1225 -47.2466
L15.9857 -46.9658
L15.8519 -46.6844
L15.7209 -46.4023
L15.5929 -46.1195
L15.4677 -45.8359
L15.3453 -45.5516
L15.2257 -45.2664
L15.1088 -44.9803
L14.9947 -44.6932
L14.8833 -44.4052
L14.7746 -44.1162
L14.6686 -43.8261
L14.5652 -43.5349
L14.4645 -43.2426
L14.3664 -42.949
L14.2709 -42.6541
L14.1781 -42.358
L14.0879 -42.0605
L14.0003 -41.7615
L13.9154 -41.4611
L13.833 -41.1591
L13.7534 -40.8556
L13.6763 -40.5504
L13.602 -40.2436
L13.5303 -39.935
L13.4613 -39.6246
L13.3951 -39.3123
L13.3316 -38.9982
L13.2709 -38.6821
L13.2129 -38.3639
L13.1579 -38.0437
L13.1057 -37.7213
L13.0564 -37.3968
L13.0101 -37.07
L12.9668 -36.741
L12.9266 -36.4096
L12.8895 -36.0758
L12.8555 -35.7396
L12.8248 -35.4009
L12.7973 -35.0596
L12.7732 -34.7158
L12.7525 -34.3694
L12.7354 -34.0203
L12.7217 -33.6685
L12.7118 -33.314
L12.7055 -32.9567
L12.703 -32.5967
L12.7045 -32.2338
L12.7099 -31.8681
L12.7193 -31.4996
L12.7329 -31.1282
L12.7508 -30.754
L12.773 -30.3769
L12.7996 -29.997
L12.8307 -29.6142
L12.8665 -29.2287
L12.907 -28.8403
L12.9523 -28.4493
L13.0024 -28.0555
L13.0576 -27.6592
L13.1178 -27.2602
L13.1832 -26.8588
L13.2537 -26.455
L13.3296 -26.049
L13.4107 -25.6407
L13.4973 -25.2304
L13.5892 -24.8183
L13.6866 -24.4044
L13.7894 -23.9889
L13.8976 -23.572
L14.0111 -23.154
L14.13 -22.7351
L14.254 -22.3155
L14.3832 -21.8954
L14.5173 -21.4751
L14.6561 -21.0551
L14.7994 -20.6354
L14.947 -20.2166
L15.0984 -19.7988
L15.2534 -19.3826
L15.4114 -18.9684
L15.5719 -18.5564
L15.7344 -18.1471
L15.8983 -17.7411
L16.0627 -17.3386
L16.227 -16.9403
L16.3902 -16.5465
L16.5514 -16.1578
L16.7097 -15.7746
L16.8638 -15.3975
L17.0127 -15.0268
L16.7636 -14.6632
L16.3995 -14.9712
L16.0414 -15.3101
L15.6894 -15.6553
L15.3436 -16.0068
L15.004 -16.3643
L14.6709 -16.7278
L14.3442 -17.0971
L14.0242 -17.4723
L13.7108 -17.853
L13.4042 -18.2393
L13.1045 -18.631
L12.8118 -19.028
L12.5262 -19.4302
L12.2477 -19.8374
L11.9764 -20.2495
L11.7125 -20.6665
L11.4559 -21.0881
L11.2068 -21.5142
L10.9653 -21.9448
L10.7314 -22.3796
L10.5052 -22.8186
L10.2868 -23.2616
L10.0762 -23.7085
L9.87349 -24.1591
L9.67875 -24.6134
L9.49202 -25.0711
L9.31337 -25.5321
L9.14284 -25.9963
L8.9805 -26.4636
L8.82639 -26.9338
L8.68055 -27.4067
L8.54304 -27.8823
L8.41389 -28.3603
L8.29314 -28.8406
L8.18084 -29.3232
L8.077 -29.8077
L7.98168 -30.2942
L7.89488 -30.7824
L7.81665 -31.2722
L7.747 -31.7634
L7.68596 -32.2559
L7.63355 -32.7496
L7.58977 -33.2442
L7.55465 -33.7397
L7.5282 -34.2359
L7.51041 -34.7326
L7.50131 -35.2297
L7.50088 -35.727
L7.50914 -36.2244
L7.52608 -36.7217
L7.55168 -37.2189
L7.58596 -37.7156
L7.62889 -38.2119
L7.68046 -38.7074
L7.74066 -39.2021
L7.80947 -39.6959
L7.88686 -40.1885
L7.97282 -40.6799
L8.06731 -41.1698
L8.17031 -41.6582
L8.28179 -42.1448
L8.40172 -42.6296
L8.53005 -43.1123
L8.66674 -43.5929
L8.81177 -44.0711
L8.96507 -44.5469
L9.12661 -45.0201
L9.29634 -45.4906
L9.4742 -45.9581
L9.66014 -46.4227
L9.8541 -46.884
L10.056 -47.3421
L10.2659 -47.7966
L10.4835 -48.2476
L10.709 -48.6949
L10.9421 -49.1383
L11.1829 -49.5777
L11.4312 -50.0129
L11.6871 -50.4439
L11.9503 -50.8705
L12.2208 -51.2925
L12.4986 -51.7099
L12.7836 -52.1225
L13.0756 -52.5302
L13.3746 -52.9329
L13.6805 -53.3304
L13.9932 -53.7226
L14.3127 -54.1095
L14.6387 -54.4908
L14.9712 -54.8665
L15.3101 -55.2364
L15.6553 -55.6005
L16.0068 -55.9586
L16.3643 -56.3106
L16.7278 -56.6564
L17.0971 -56.996
L17.4723 -57.3291
L17.853 -57.6558
L18.2393 -57.9758
L18.631 -58.2892
L19.028 -58.5958
L19.4302 -58.8955
L19.8374 -59.1882
L20.2495 -59.4738
L20.6665 -59.7523
L21.0881 -60.0236
L21.5142 -60.2875
L21.9448 -60.5441
L22.3796 -60.7932
L22.8186 -61.0347
L23.2616 -61.2686
L23.7085 -61.4948
L24.1591 -61.7132
L24.6134 -61.9238
L25.0711 -62.1265
L25.5321 -62.3213
L25.9963 -62.508
L26.4636 -62.6866
L26.9338 -62.8572
L27.4067 -63.0195
L27.8823 -63.1736
L28.3603 -63.3194
L28.8406 -63.457
L29.3232 -63.5861
L29.8077 -63.7069
L30.2942 -63.8192
L30.7824 -63.923
L31.2722 -64.0183
L31.7634 -64.1051
L32.2559 -64.1833
L32.7496 -64.253
L33.2442 -64.314
L33.7397 -64.3665
L34.2359 -64.4102
L34.7326 -64.4453
z
" id="C0_2_2fca1eb8a8"/>
    </defs>
    <g clip-path="url(#p1bffca34e9)">
     <use style="fill:#ff0000;stroke:#000000;stroke-width:2.0;" x="0.0" xlink:href="#C0_0_a811fe30f3" y="72.0"/>
    </g>
    <g clip-path="url(#p1bffca34e9)">
     <use style="fill:#ffffff;stroke:#000000;stroke-width:2.0;" x="0.0" xlink:href="#C0_1_2eec5f7605" y="72.0"/>
    </g>
    <g clip-path="url(#p1bffca34e9)">
     <use style="fill:#ffffff;stroke:#000000;stroke-width:2.0;" x="0.0" xlink:href="#C0_2_2fca1eb8a8" y="72.0"/>
    </g>
   </g>
  </g>
 </g>
 <defs>
  <clipPath id="p1bffca34e9">
   <rect height="72.0" width="72.0" x="0.0" y="0.0"/>
  </clipPath>
 </defs>
</svg>
