<?xml version="1.0" encoding="utf-8" standalone="no"?>
<!DOCTYPE svg PUBLIC "-//W3C//DTD SVG 1.1//EN"
  "http://www.w3.org/Graphics/SVG/1.1/DTD/svg11.dtd">
<!-- Created with matplotlib (http://matplotlib.org/) -->
<svg height="72pt" version="1.1" viewBox="0 0 72 72" width="72pt" xmlns="http://www.w3.org/2000/svg" xmlns:xlink="http://www.w3.org/1999/xlink">
 <defs>
  <style type="text/css">
*{stroke-linecap:butt;stroke-linejoin:round;}
  </style>
 </defs>
 <g id="figure_1">
  <g id="patch_1">
   <path d="
M0 72
L72 72
L72 0
L0 0
z
" style="fill:none;"/>
  </g>
  <g id="axes_1">
   <g id="PatchCollection_1">
    <defs>
     <path d="
M36 -7.5
C43.5583 -7.5 50.808 -10.5029 56.1525 -15.8475
C61.4971 -21.192 64.5 -28.4417 64.5 -36
C64.5 -43.5583 61.4971 -50.808 56.1525 -56.1525
C50.808 -61.4971 43.5583 -64.5 36 -64.5
C28.4417 -64.5 21.192 -61.4971 15.8475 -56.1525
C10.5029 -50.808 7.5 -43.5583 7.5 -36
C7.5 -28.4417 10.5029 -21.192 15.8475 -15.8475
C21.192 -10.5029 28.4417 -7.5 36 -7.5
z
" id="C0_0_a811fe30f3"/>
     <path d="
M33.987 -7.57127
L33.9398 -7.81519
L33.9205 -8.06192
L33.9279 -8.31122
L33.9602 -8.56295
L34.0158 -8.81698
L34.0926 -9.07323
L34.1887 -9.33167
L34.3022 -9.59226
L34.4312 -9.85496
L34.5739 -10.1197
L34.7285 -10.3866
L34.8934 -10.6554
L35.0672 -10.9262
L35.2485 -11.1989
L35.436 -11.4734
L35.6287 -11.7495
L35.8255 -12.0273
L36.0256 -12.3065
L36.2281 -12.5871
L36.4323 -12.8689
L36.6376 -13.1518
L36.8435 -13.4357
L37.0495 -13.7204
L37.2551 -14.0057
L37.4599 -14.2916
L37.6637 -14.578
L37.8661 -14.8646
L38.0669 -15.1514
L38.2659 -15.4382
L38.4629 -15.725
L38.6578 -16.0116
L38.8504 -16.2979
L39.0406 -16.5838
L39.2284 -16.8693
L39.4136 -17.1542
L39.5962 -17.4385
L39.7761 -17.7221
L39.9534 -18.0049
L40.1281 -18.2869
L40.3 -18.5681
L40.4692 -18.8483
L40.6357 -19.1275
L40.7996 -19.4058
L40.9608 -19.683
L41.1194 -19.9592
L41.2754 -20.2343
L41.4287 -20.5083
L41.5796 -20.7812
L41.7279 -21.0531
L41.8738 -21.3238
L42.0172 -21.5934
L42.1583 -21.862
L42.297 -22.1294
L42.4334 -22.3958
L42.5675 -22.6611
L42.6995 -22.9254
L42.8292 -23.1886
L42.9569 -23.4509
L43.0825 -23.7121
L43.206 -23.9724
L43.3276 -24.2318
L43.4472 -24.4903
L43.5649 -24.748
L43.6808 -25.0048
L43.7948 -25.2608
L43.9071 -25.5161
L44.0177 -25.7707
L44.1266 -26.0246
L44.2338 -26.2778
L44.3394 -26.5305
L44.4434 -26.7826
L44.5459 -27.0342
L44.6469 -27.2853
L44.7464 -27.5361
L44.8445 -27.7864
L44.9412 -28.0365
L45.0365 -28.2862
L45.1305 -28.5357
L45.2232 -28.7851
L45.3145 -29.0343
L45.4047 -29.2834
L45.4936 -29.5325
L45.5813 -29.7816
L45.6678 -30.0308
L45.7532 -30.2801
L45.8374 -30.5296
L45.9206 -30.7793
L46.0836 -31.0293
L46.1635 -31.2796
L46.2424 -31.5303
L46.3203 -31.7815
L46.3971 -32.0331
L46.473 -32.2853
L46.5479 -32.5381
L46.6219 -32.7915
L46.6949 -33.0457
L46.7669 -33.3006
L46.838 -33.5564
L46.9082 -33.8131
L46.9775 -34.0707
L47.0459 -34.3293
L47.1133 -34.5889
L47.1799 -34.8497
L47.2455 -35.1117
L47.3103 -35.3748
L47.3741 -35.6393
L47.4371 -35.9051
L47.4991 -36.1723
L47.5603 -36.441
L47.6205 -36.7112
L47.6798 -36.983
L47.7382 -37.2564
L47.7956 -37.5315
L47.8521 -37.8084
L47.9077 -38.087
L47.9623 -38.3676
L48.0159 -38.65
L48.0685 -38.9344
L48.1201 -39.2209
L48.1707 -39.5094
L48.2202 -39.8
L48.2686 -40.0928
L48.316 -40.3879
L48.3623 -40.6852
L48.4074 -40.9848
L48.4514 -41.2868
L48.4941 -41.5912
L48.5357 -41.8979
L48.576 -42.2072
L48.6151 -42.5189
L48.6529 -42.8332
L48.6893 -43.15
L48.7244 -43.4693
L48.7582 -43.7912
L48.7905 -44.1156
L48.8214 -44.4426
L48.8508 -44.7722
L48.8788 -45.1043
L48.9053 -45.4389
L48.9302 -45.776
L48.9537 -46.1155
L48.9755 -46.4573
L48.9959 -46.8016
L49.0147 -47.148
L49.032 -47.4966
L49.0479 -47.8472
L49.0622 -48.1998
L49.0751 -48.5541
L49.0867 -48.9101
L49.097 -49.2676
L49.1062 -49.6263
L49.1143 -49.9861
L49.1215 -50.3467
L49.128 -50.7079
L49.134 -51.0693
L49.1398 -51.4307
L49.1456 -51.7917
L49.1518 -52.1519
L49.1589 -52.5108
L49.1673 -52.8681
L49.1774 -53.2232
L49.1901 -53.5755
L49.2058 -53.9245
L49.2255 -54.2695
L49.25 -54.6097
L49.2803 -54.9445
L49.3174 -55.2729
L49.3626 -55.5942
L49.417 -55.9073
L49.4821 -56.2113
L49.5592 -56.505
L49.6497 -56.7875
L49.755 -57.0576
L49.8765 -57.3142
L50.0154 -57.5562
L50.1728 -57.7825
L50.3495 -57.992
L50.5464 -58.184
L50.7636 -58.3576
L51.0013 -58.5121
L51.2592 -58.6469
L51.5369 -58.7618
L51.8336 -58.8565
L52.1483 -58.9308
L52.4798 -58.9849
L52.9923 -59.0189
L53.3891 -58.8804
L53.7805 -58.5803
L54.1665 -58.2734
L54.547 -57.9597
L54.9218 -57.6393
L55.2909 -57.3123
L55.6541 -56.9788
L56.0113 -56.639
L56.3624 -56.2928
L56.7073 -55.9405
L57.0459 -55.5821
L57.3781 -55.2177
L57.7038 -54.8475
L58.0228 -54.4715
L58.3352 -54.0899
L58.6408 -53.7028
L58.9394 -53.3103
L59.2311 -52.9125
L59.5157 -52.5096
L59.7931 -52.1016
L60.0633 -51.6888
L60.3261 -51.2711
L60.5816 -50.8489
L60.8295 -50.422
L61.0699 -49.9908
L61.3027 -49.5554
L61.5277 -49.1158
L61.745 -48.6722
L61.9544 -48.2247
L62.156 -47.7736
L62.3495 -47.3188
L62.5351 -46.8606
L62.7125 -46.3991
L62.8818 -45.9344
L63.0429 -45.4667
L63.1958 -44.9961
L63.3404 -44.5228
L63.4767 -44.0468
L63.6046 -43.5684
L63.7241 -43.0878
L63.8351 -42.6049
L63.9377 -42.12
L64.0318 -41.6333
L64.1173 -41.1449
L64.1942 -40.6549
L64.2626 -40.1635
L64.3224 -39.6708
L64.3735 -39.177
L64.416 -38.6822
L64.4498 -38.1866
L64.475 -37.6903
L64.4915 -37.1935
L64.4993 -36.6964
L64.4984 -36.1991
L64.4889 -35.7016
L64.4707 -35.2043
L64.4438 -34.7072
L64.4082 -34.2106
L64.364 -33.7144
L64.3111 -33.219
L64.2497 -32.7244
L64.1796 -32.2308
L64.1009 -31.7383
L64.0137 -31.2472
L63.9179 -30.7575
L63.8136 -30.2694
L63.7009 -29.783
L63.5797 -29.2985
L63.4502 -28.8161
L63.3122 -28.3359
L63.166 -27.858
L63.0114 -27.3825
L62.8487 -26.9097
L62.6777 -26.4397
L62.4987 -25.9726
L62.3115 -25.5085
L62.1164 -25.0477
L61.9133 -24.5901
L61.7023 -24.1361
L61.4834 -23.6856
L61.2568 -23.2389
L61.0226 -22.7961
L60.7807 -22.3574
L60.5312 -21.9227
L60.2743 -21.4924
L60.0099 -21.0665
L59.7383 -20.6451
L59.4594 -20.2284
L59.1734 -19.8165
L58.8804 -19.4096
L58.5803 -19.0077
L58.2734 -18.6109
L57.9597 -18.2195
L57.6393 -17.8335
L57.3123 -17.453
L56.9788 -17.0782
L56.639 -16.7091
L56.2928 -16.3459
L55.9405 -15.9887
L55.5821 -15.6376
L55.2177 -15.2927
L54.8475 -14.9541
L54.4715 -14.6219
L54.0899 -14.2962
L53.7028 -13.9772
L53.3103 -13.6648
L52.9125 -13.3592
L52.5096 -13.0606
L52.1016 -12.7689
L51.6888 -12.4843
L51.2711 -12.2069
L50.8489 -11.9367
L50.422 -11.6739
L49.9908 -11.4184
L49.5554 -11.1705
L49.1158 -10.9301
L48.6722 -10.6973
L48.2247 -10.4723
L47.7736 -10.255
L47.3188 -10.0456
L46.8606 -9.84403
L46.3991 -9.65047
L45.9344 -9.46494
L45.4667 -9.2875
L44.9961 -9.11819
L44.5228 -8.95706
L44.0468 -8.80418
L43.5684 -8.65958
L43.0878 -8.52331
L42.6049 -8.3954
L42.12 -8.27591
L41.6333 -8.16486
L41.1449 -8.06229
L40.6549 -7.96823
L40.1635 -7.88271
L39.6708 -7.80575
L39.177 -7.73738
L38.6822 -7.67762
L38.1866 -7.62649
L37.6903 -7.584
L37.1935 -7.55017
L36.6964 -7.525
L36.1991 -7.50851
L35.7016 -7.5007
L35.2043 -7.50156
L34.7072 -7.51111
z
" id="C0_1_25a2f09e89"/>
     <path d="
M19.2023 -13.007
L19.094 -13.3506
L18.9766 -13.7031
L18.8518 -14.0637
L18.7212 -14.4315
L18.5863 -14.8057
L18.4485 -15.1858
L18.3089 -15.5709
L18.1686 -15.9605
L18.0287 -16.3538
L17.8898 -16.7502
L17.7529 -17.1494
L17.6184 -17.5506
L17.487 -17.9534
L17.359 -18.3574
L17.2349 -18.7622
L17.115 -19.1672
L16.9995 -19.5723
L16.8886 -19.977
L16.7824 -20.3811
L16.6812 -20.7842
L16.5849 -21.1861
L16.4937 -21.5865
L16.4074 -21.9853
L16.3263 -22.3822
L16.2501 -22.7771
L16.1789 -23.1699
L16.1127 -23.5603
L16.0513 -23.9482
L15.9947 -24.3336
L15.9429 -24.7163
L15.8957 -25.0963
L15.853 -25.4735
L15.8147 -25.8479
L15.7808 -26.2194
L15.7511 -26.5879
L15.7256 -26.9534
L15.7041 -27.316
L15.6866 -27.6756
L15.6729 -28.0322
L15.6629 -28.3858
L15.6566 -28.7364
L15.6539 -29.0841
L15.6546 -29.4289
L15.6586 -29.7707
L15.666 -30.1097
L15.6765 -30.4458
L15.6901 -30.7791
L15.7068 -31.1097
L15.7265 -31.4375
L15.749 -31.7627
L15.7743 -32.0853
L15.8024 -32.4052
L15.8332 -32.7227
L15.8666 -33.0377
L15.9026 -33.3503
L15.9411 -33.6606
L15.9821 -33.9686
L16.0255 -34.2744
L16.0712 -34.5779
L16.1193 -34.8794
L16.1697 -35.1789
L16.2224 -35.4763
L16.2773 -35.7719
L16.3344 -36.0655
L16.3937 -36.3574
L16.4551 -36.6476
L16.5187 -36.936
L16.5844 -37.2229
L16.6521 -37.5082
L16.722 -37.792
L16.7939 -38.0744
L16.8679 -38.3554
L16.944 -38.6351
L17.0221 -38.9135
L17.1022 -39.1908
L17.1844 -39.4669
L17.2687 -39.7419
L17.355 -40.016
L17.4434 -40.289
L17.5339 -40.5612
L17.6264 -40.8325
L17.7211 -41.103
L17.8179 -41.3728
L17.9168 -41.6418
L18.0179 -41.9103
L18.1212 -42.1781
L18.2267 -42.4454
L18.3344 -42.7123
L18.4444 -42.9787
L18.5566 -43.2447
L18.6712 -43.5104
L18.7882 -43.7757
L18.9076 -44.0409
L19.0294 -44.3058
L19.1537 -44.5706
L19.2805 -44.8352
L19.4099 -45.0998
L19.5419 -45.3643
L19.6766 -45.6289
L19.814 -45.8934
L19.9541 -46.1581
L20.0971 -46.4228
L20.243 -46.6877
L20.3919 -46.9527
L20.5437 -47.218
L20.6987 -47.4835
L20.8567 -47.7492
L21.018 -48.0152
L21.1826 -48.2815
L21.3505 -48.5481
L21.5218 -48.815
L21.6966 -49.0823
L21.875 -49.3499
L22.057 -49.6178
L22.2427 -49.8862
L22.4323 -50.1549
L22.6257 -50.4239
L22.8231 -50.6933
L23.0246 -50.963
L23.2302 -51.2331
L23.4399 -51.5035
L23.654 -51.7742
L23.8724 -52.0451
L24.0953 -52.3162
L24.3227 -52.5876
L24.5547 -52.859
L24.7913 -53.1306
L25.0327 -53.4023
L25.2789 -53.6739
L25.5299 -53.9454
L25.7858 -54.2168
L26.0467 -54.4879
L26.3126 -54.7588
L26.5835 -55.0292
L26.8594 -55.2992
L27.1404 -55.5685
L27.4265 -55.8372
L27.7175 -56.105
L28.0136 -56.3719
L28.3146 -56.6377
L28.6204 -56.9023
L28.931 -57.1657
L29.2462 -57.4275
L29.5659 -57.6878
L29.8899 -57.9464
L30.2179 -58.2032
L30.5497 -58.4579
L30.8851 -58.7105
L31.2235 -58.961
L31.5647 -59.209
L31.9081 -59.4547
L32.2533 -59.6978
L32.5995 -59.9384
L32.9462 -60.1764
L33.2925 -60.4117
L33.6375 -60.6445
L33.9804 -60.8747
L34.3201 -61.1025
L34.6552 -61.328
L34.9847 -61.5514
L35.307 -61.773
L35.6207 -61.993
L35.924 -62.2119
L36.2154 -62.4299
L36.493 -62.6475
L36.7551 -62.8652
L36.9998 -63.0836
L37.2253 -63.3029
L37.43 -63.5238
L37.6123 -63.7465
L37.7709 -63.9715
L37.4242 -64.1989
L36.9272 -64.4644
L36.4299 -64.4849
L35.9325 -64.4968
L35.4351 -64.4999
L34.9379 -64.4944
L34.441 -64.4802
L33.9446 -64.4573
L33.4488 -64.4258
L32.9538 -64.3856
L32.4597 -64.3367
L31.9667 -64.2793
L31.4749 -64.2132
L30.9846 -64.1385
L30.4957 -64.0552
L30.0085 -63.9634
L29.5231 -63.8631
L29.0397 -63.7543
L28.5585 -63.637
L28.0795 -63.5113
L27.6029 -63.3773
L27.1288 -63.2349
L26.6575 -63.0842
L26.189 -62.9252
L25.7235 -62.7581
L25.2611 -62.5828
L24.802 -62.3994
L24.3464 -62.2079
L23.8942 -62.0085
L23.4458 -61.8012
L23.0012 -61.586
L22.5605 -61.363
L22.1239 -61.1322
L21.6916 -60.8939
L21.2636 -60.6479
L20.8401 -60.3944
L20.4212 -60.1335
L20.0071 -59.8653
L19.5978 -59.5898
L19.1935 -59.307
L18.7944 -59.0172
L18.4005 -58.7204
L18.012 -58.4167
L17.6289 -58.1061
L17.2514 -57.7888
L16.8797 -57.4649
L16.5137 -57.1344
L16.1537 -56.7975
L15.7998 -56.4542
L15.452 -56.1047
L15.1104 -55.7491
L14.7753 -55.3875
L14.4465 -55.02
L14.1244 -54.6467
L13.8089 -54.2677
L13.5002 -53.8831
L13.1983 -53.4931
L12.9034 -53.0978
L12.6155 -52.6972
L12.3347 -52.2916
L12.0612 -51.881
L11.7949 -51.4655
L11.536 -51.0454
L11.2846 -50.6207
L11.0407 -50.1915
L10.8044 -49.758
L10.5757 -49.3203
L10.3548 -48.8785
L10.1418 -48.4329
L9.93657 -47.9834
L9.73931 -47.5303
L9.55004 -47.0737
L9.36884 -46.6137
L9.19575 -46.1504
L9.03082 -45.6841
L8.8741 -45.2148
L8.72565 -44.7428
L8.58551 -44.268
L8.45372 -43.7907
L8.33032 -43.3111
L8.21534 -42.8292
L8.10884 -42.3453
L8.01082 -41.8594
L7.92133 -41.3718
L7.8404 -40.8825
L7.76804 -40.3917
L7.70429 -39.8996
L7.64915 -39.4063
L7.60265 -38.9119
L7.56479 -38.4167
L7.5356 -37.9207
L7.51509 -37.4242
L7.50324 -36.9272
L7.50008 -36.4299
L7.5056 -35.9325
L7.5198 -35.4351
L7.54267 -34.9379
L7.57421 -34.441
L7.61441 -33.9446
L7.66326 -33.4488
L7.72074 -32.9538
L7.78684 -32.4597
L7.86152 -31.9667
L7.94478 -31.4749
L8.03659 -30.9846
L8.13691 -30.4957
L8.24572 -30.0085
L8.36298 -29.5231
L8.48866 -29.0397
L8.62273 -28.5585
L8.76513 -28.0795
L8.91583 -27.6029
L9.07478 -27.1288
L9.24193 -26.6575
L9.41723 -26.189
L9.60062 -25.7235
L9.79206 -25.2611
L9.99149 -24.802
L10.1988 -24.3464
L10.414 -23.8942
L10.637 -23.4458
L10.8678 -23.0012
L11.1061 -22.5605
L11.3521 -22.1239
L11.6056 -21.6916
L11.8665 -21.2636
L12.1347 -20.8401
L12.4102 -20.4212
L12.693 -20.0071
L12.9828 -19.5978
L13.2796 -19.1935
L13.5833 -18.7944
L13.8939 -18.4005
L14.2112 -18.012
L14.5351 -17.6289
L14.8656 -17.2514
L15.2025 -16.8797
L15.5458 -16.5137
L15.8953 -16.1537
L16.2509 -15.7998
L16.6125 -15.452
L16.98 -15.1104
L17.3533 -14.7753
L17.7323 -14.4465
L18.1169 -14.1244
L18.5069 -13.8089
z
" id="C0_2_89fb0a20cd"/>
    </defs>
    <g clip-path="url(#p1bffca34e9)">
     <use style="fill:#ff0000;stroke:#000000;stroke-width:2.0;" x="0.0" xlink:href="#C0_0_a811fe30f3" y="72.0"/>
    </g>
    <g clip-path="url(#p1bffca34e9)">
     <use style="fill:#ffffff;stroke:#000000;stroke-width:2.0;" x="0.0" xlink:href="#C0_1_25a2f09e89" y="72.0"/>
    </g>
    <g clip-path="url(#p1bffca34e9)">
     <use style="fill:#ffffff;stroke:#000000;stroke-width:2.0;" x="0.0" xlink:href="#C0_2_89fb0a20cd" y="72.0"/>
    </g>
   </g>
  </g>
 </g>
 <defs>
  <clipPath id="p1bffca34e9">
   <rect height="72.0" width="72.0" x="0.0" y="0.0"/>
  </clipPath>
 </defs>
</svg>
