<?xml version="1.0" encoding="utf-8" standalone="no"?>
<!DOCTYPE svg PUBLIC "-//W3C//DTD SVG 1.1//EN"
  "http://www.w3.org/Graphics/SVG/1.1/DTD/svg11.dtd">
<!-- Created with matplotlib (http://matplotlib.org/) -->
<svg height="72pt" version="1.1" viewBox="0 0 72 72" width="72pt" xmlns="http://www.w3.org/2000/svg" xmlns:xlink="http://www.w3.org/1999/xlink">
 <defs>
  <style type="text/css">
*{stroke-linecap:butt;stroke-linejoin:round;}
  </style>
 </defs>
 <g id="figure_1">
  <g id="patch_1">
   <path d="
M0 72
L72 72
L72 0
L0 0
z
" style="fill:none;"/>
  </g>
  <g id="axes_1">
   <g id="PatchCollection_1">
    <defs>
     <path d="
M36 -7.5
C43.5583 -7.5 50.808 -10.5029 56.1525 -15.8475
C61.4971 -21.192 64.5 -28.4417 64.5 -36
C64.5 -43.5583 61.4971 -50.808 56.1525 -56.1525
C50.808 -61.4971 43.5583 -64.5 36 -64.5
C28.4417 -64.5 21.192 -61.4971 15.8475 -56.1525
C10.5029 -50.808 7.5 -43.5583 7.5 -36
C7.5 -28.4417 10.5029 -21.192 15.8475 -15.8475
C21.192 -10.5029 28.4417 -7.5 36 -7.5
z
" id="C0_0_a811fe30f3"/>
     <path d="
M23.3337 -61.505
L23.4114 -61.3432
L23.569 -61.1806
L23.6489 -61.0172
L23.7296 -60.853
L23.8111 -60.6879
L23.8934 -60.5218
L23.9765 -60.3548
L24.0604 -60.1868
L24.1452 -60.0177
L24.2308 -59.8475
L24.3173 -59.6761
L24.4048 -59.5036
L24.4932 -59.3298
L24.5825 -59.1547
L24.6729 -58.9783
L24.7642 -58.8005
L24.8566 -58.6213
L24.95 -58.4406
L25.0445 -58.2584
L25.1402 -58.0746
L25.237 -57.8892
L25.335 -57.7021
L25.4341 -57.5132
L25.5346 -57.3225
L25.6363 -57.13
L25.7393 -56.9356
L25.8436 -56.7392
L25.9494 -56.5408
L26.0565 -56.3403
L26.1651 -56.1377
L26.2752 -55.9328
L26.3869 -55.7258
L26.5001 -55.5164
L26.6149 -55.3046
L26.7314 -55.0905
L26.8495 -54.8738
L26.9695 -54.6546
L27.0912 -54.4328
L27.2147 -54.2083
L27.3401 -53.9811
L27.4675 -53.7512
L27.5968 -53.5184
L27.7281 -53.2828
L27.8615 -53.0442
L27.997 -52.8027
L28.1347 -52.5582
L28.2745 -52.3106
L28.4167 -52.0599
L28.5611 -51.8062
L28.7079 -51.5492
L28.8572 -51.2891
L29.0089 -51.0258
L29.1631 -50.7593
L29.3198 -50.4896
L29.4792 -50.2167
L29.6413 -49.9406
L29.806 -49.6614
L29.9736 -49.379
L30.1439 -49.0936
L30.3172 -48.8051
L30.4933 -48.5138
L30.6724 -48.2195
L30.8546 -47.9226
L31.0398 -47.623
L31.2282 -47.3211
L31.4198 -47.0168
L31.6146 -46.7105
L31.8128 -46.4024
L32.0143 -46.0928
L32.2193 -45.782
L32.4278 -45.4702
L32.6399 -45.158
L32.8558 -44.8457
L33.0754 -44.5339
L33.299 -44.2231
L33.5267 -43.914
L33.7585 -43.6071
L33.9947 -43.3033
L34.2355 -43.0035
L34.481 -42.7084
L34.7314 -42.4193
L34.9871 -42.137
L35.2482 -41.8629
L35.515 -41.5982
L35.7878 -41.3441
L36.0669 -41.1021
L36.3525 -40.8735
L36.6449 -40.6597
L36.9441 -40.462
L37.2505 -40.2814
L37.5639 -40.1191
L37.8843 -39.9758
L38.2115 -39.8519
L38.5453 -39.7478
L38.8854 -39.6634
L39.2312 -39.5983
L39.5822 -39.5519
L39.9379 -39.5234
L40.2975 -39.5117
L40.6605 -39.5158
L41.0263 -39.5344
L41.3941 -39.5662
L41.7634 -39.6102
L42.1335 -39.665
L42.504 -39.7296
L42.8743 -39.8029
L43.2439 -39.8838
L43.6125 -39.9716
L43.9795 -40.0653
L44.3447 -40.1642
L44.7077 -40.2675
L45.0682 -40.3748
L45.426 -40.4854
L45.7808 -40.5989
L46.1324 -40.7147
L46.4806 -40.8325
L46.8254 -40.9519
L47.1664 -41.0727
L47.5037 -41.1944
L47.8371 -41.317
L48.1665 -41.44
L48.4919 -41.5634
L48.8132 -41.687
L49.1304 -41.8105
L49.4435 -41.9339
L49.7524 -42.057
L50.0571 -42.1797
L50.3577 -42.302
L50.6541 -42.4237
L50.9463 -42.5447
L51.2345 -42.6651
L51.5186 -42.7847
L51.7987 -42.9035
L52.0748 -43.0215
L52.347 -43.1386
L52.6152 -43.2548
L52.8797 -43.3701
L53.1403 -43.4845
L53.3973 -43.5979
L53.6506 -43.7104
L53.9003 -43.8219
L54.1465 -43.9325
L54.3892 -44.0421
L54.6286 -44.1508
L54.8647 -44.2586
L55.0975 -44.3654
L55.3271 -44.4713
L55.5537 -44.5764
L55.7772 -44.6805
L55.9978 -44.7837
L56.2154 -44.8861
L56.4303 -44.9877
L56.6424 -45.0885
L56.8518 -45.1884
L57.0585 -45.2876
L57.2628 -45.386
L57.4645 -45.4837
L57.6638 -45.5807
L57.8608 -45.677
L58.0555 -45.7726
L58.2479 -45.8676
L58.4381 -45.962
L58.6263 -46.0558
L58.8123 -46.149
L58.9964 -46.2417
L59.1785 -46.3339
L59.3587 -46.4256
L59.5371 -46.5168
L59.7137 -46.6075
L59.8885 -46.6979
L60.0616 -46.7878
L60.2331 -46.8774
L60.403 -46.9666
L60.5713 -47.0555
L60.7382 -47.1442
L60.9035 -47.2325
L61.0674 -47.3206
L61.23 -47.4086
L61.3911 -47.4963
L61.551 -47.5838
L61.7096 -47.6713
L61.8669 -47.7586
L61.701 -47.8458
L61.4822 -48.3169
L61.2555 -48.7636
L61.0212 -49.2064
L60.7792 -49.6451
L60.5297 -50.0797
L60.2728 -50.51
L60.0084 -50.9359
L59.7367 -51.3573
L59.4578 -51.7739
L59.1718 -52.1858
L58.8787 -52.5927
L58.5786 -52.9946
L58.2716 -53.3913
L57.9579 -53.7827
L57.6374 -54.1687
L57.3104 -54.5492
L56.9769 -54.924
L56.637 -55.293
L56.2908 -55.6561
L55.9384 -56.0133
L55.58 -56.3644
L55.2156 -56.7093
L54.8453 -57.0478
L54.4693 -57.38
L54.0877 -57.7056
L53.7006 -58.0247
L53.308 -58.337
L52.9102 -58.6425
L52.5073 -58.9411
L52.0993 -59.2327
L51.6864 -59.5173
L51.2687 -59.7947
L50.8464 -60.0648
L50.4196 -60.3276
L49.9884 -60.583
L49.5529 -60.8309
L49.1133 -61.0713
L48.6696 -61.304
L48.2222 -61.529
L47.771 -61.7462
L47.3162 -61.9556
L46.858 -62.1571
L46.3964 -62.3506
L45.9317 -62.5361
L45.464 -62.7135
L44.9934 -62.8828
L44.52 -63.0438
L44.0441 -63.1967
L43.5657 -63.3412
L43.085 -63.4774
L42.6021 -63.6053
L42.1173 -63.7247
L41.6305 -63.8357
L41.1421 -63.9383
L40.6521 -64.0323
L40.1606 -64.1178
L39.6679 -64.1947
L39.1741 -64.263
L38.6794 -64.3227
L38.1838 -64.3738
L37.6875 -64.4162
L37.1907 -64.45
L36.6936 -64.4751
L36.1962 -64.4916
L35.6988 -64.4993
L35.2015 -64.4984
L34.7044 -64.4888
L34.2077 -64.4705
L33.7116 -64.4436
L33.2162 -64.408
L32.7216 -64.3637
L32.228 -64.3108
L31.7355 -64.2493
L31.2444 -64.1791
L30.7547 -64.1004
L30.2666 -64.0132
L29.7802 -63.9173
L29.2958 -63.813
L28.8134 -63.7002
L28.3331 -63.579
L27.8552 -63.4494
L27.3798 -63.3114
L26.9071 -63.1651
L26.437 -63.0105
L25.9699 -62.8477
L25.5059 -62.6767
L25.045 -62.4976
L24.5875 -62.3104
L24.1335 -62.1152
z
" id="C0_1_cb991c5564"/>
     <path d="
M10.2112 -24.1744
L10.3807 -24.2364
L10.5513 -24.2987
L10.7231 -24.3615
L10.8962 -24.4247
L11.0705 -24.4884
L11.2461 -24.5525
L11.423 -24.6171
L11.6014 -24.6822
L11.7812 -24.7479
L11.9625 -24.8141
L12.1454 -24.8808
L12.3298 -24.9481
L12.5159 -25.016
L12.7037 -25.0846
L12.8932 -25.1537
L13.0846 -25.2235
L13.2778 -25.294
L13.4729 -25.3652
L13.6701 -25.4371
L13.8692 -25.5097
L14.0705 -25.5831
L14.2739 -25.6572
L14.4796 -25.7322
L14.6875 -25.8079
L14.8978 -25.8845
L15.1105 -25.962
L15.3257 -26.0403
L15.5435 -26.1195
L15.7639 -26.1996
L15.987 -26.2807
L16.2128 -26.3627
L16.4414 -26.4457
L16.673 -26.5296
L16.9075 -26.6146
L17.1451 -26.7006
L17.3857 -26.7877
L17.6296 -26.8758
L17.8767 -26.965
L18.1271 -27.0552
L18.3809 -27.1465
L18.6381 -27.239
L18.8989 -27.3325
L19.1632 -27.4271
L19.4312 -27.5229
L19.7029 -27.6197
L19.9783 -27.7177
L20.2576 -27.8167
L20.5407 -27.9169
L20.8277 -28.018
L21.1186 -28.1202
L21.4136 -28.2234
L21.7126 -28.3276
L22.0156 -28.4326
L22.3226 -28.5386
L22.6337 -28.6453
L22.9489 -28.7527
L23.2681 -28.8608
L23.5914 -28.9694
L23.9187 -29.0785
L24.2499 -29.1878
L24.5851 -29.2973
L24.924 -29.4068
L25.2667 -29.516
L25.6131 -29.6249
L25.963 -29.733
L26.3163 -29.8403
L26.6727 -29.9462
L27.0322 -30.0506
L27.3945 -30.153
L27.7594 -30.253
L28.1266 -30.35
L28.4958 -30.4436
L28.8667 -30.5332
L29.2389 -30.618
L29.612 -30.6973
L29.9856 -30.7704
L30.3592 -30.8362
L30.7322 -30.8939
L31.1042 -30.9422
L31.4745 -30.9803
L31.8425 -31.0067
L32.2077 -31.0204
L32.5692 -31.02
L32.9266 -31.0044
L33.2792 -30.9724
L33.6264 -30.923
L33.9677 -30.8554
L34.3026 -30.7689
L34.6308 -30.6632
L34.952 -30.5381
L35.266 -30.394
L35.5729 -30.2312
L35.8727 -30.0506
L36.1654 -29.8532
L36.4513 -29.64
L36.7306 -29.4123
L37.0036 -29.1715
L37.2705 -28.919
L37.5317 -28.656
L37.7874 -28.384
L38.0378 -28.104
L38.2832 -27.8173
L38.5239 -27.525
L38.7599 -27.2281
L38.9916 -26.9275
L39.2191 -26.624
L39.4425 -26.3184
L39.6619 -26.0113
L39.8775 -25.7034
L40.0894 -25.3952
L40.2976 -25.0872
L40.5023 -24.7798
L40.7036 -24.4735
L40.9014 -24.1685
L41.0959 -23.8652
L41.2871 -23.5638
L41.4752 -23.2646
L41.6601 -22.9678
L41.8419 -22.6735
L42.0206 -22.3819
L42.1964 -22.0931
L42.3693 -21.8072
L42.5393 -21.5244
L42.7065 -21.2446
L42.8709 -20.968
L43.0325 -20.6946
L43.1916 -20.4245
L43.3479 -20.1575
L43.5018 -19.8939
L43.6531 -19.6335
L43.802 -19.3763
L43.9484 -19.1224
L44.0925 -18.8717
L44.2343 -18.6242
L44.3738 -18.3798
L44.5111 -18.1386
L44.6462 -17.9005
L44.7793 -17.6654
L44.9102 -17.4334
L45.0392 -17.2042
L45.1662 -16.978
L45.2913 -16.7546
L45.4145 -16.5341
L45.5358 -16.3162
L45.6554 -16.1011
L45.7733 -15.8886
L45.8894 -15.6786
L46.004 -15.4712
L46.1169 -15.2662
L46.2282 -15.0636
L46.338 -14.8633
L46.4463 -14.6653
L46.5532 -14.4696
L46.6586 -14.276
L46.7627 -14.0845
L46.8655 -13.895
L46.9669 -13.7075
L47.0671 -13.522
L47.166 -13.3383
L47.2637 -13.1565
L47.3603 -12.9765
L47.4557 -12.7981
L47.55 -12.6214
L47.6432 -12.4464
L47.7354 -12.2729
L47.8266 -12.1009
L47.9167 -11.9303
L48.0059 -11.7612
L48.0941 -11.5935
L48.1813 -11.4271
L48.2677 -11.2619
L48.3532 -11.098
L48.4378 -10.9353
L48.5216 -10.7737
L48.2267 -10.6132
L47.7755 -10.2559
L47.3208 -10.0464
L46.8626 -9.84488
L46.4011 -9.65129
L45.9364 -9.46572
L45.4687 -9.28824
L44.9981 -9.11889
L44.5248 -8.95774
L44.0489 -8.80482
L43.5705 -8.66018
L43.0898 -8.52387
L42.607 -8.39593
L42.1221 -8.2764
L41.6354 -8.16532
L41.147 -8.06271
L40.657 -7.96861
L40.1656 -7.88306
L39.6729 -7.80606
L39.1791 -7.73766
L38.6843 -7.67786
L38.1887 -7.62669
L37.6925 -7.58417
L37.1957 -7.5503
L36.6985 -7.52509
L36.2012 -7.50856
L35.7038 -7.50071
L35.2065 -7.50154
L34.7094 -7.51105
L34.2127 -7.52924
L33.7165 -7.5561
L33.2211 -7.59162
L32.7265 -7.6358
L32.2329 -7.68862
L31.7404 -7.75006
L31.2493 -7.82011
L30.7596 -7.89874
L30.2715 -7.98593
L29.7851 -8.08166
L29.3006 -8.18589
L28.8182 -8.29859
L28.3379 -8.41973
L27.86 -8.54927
L27.3846 -8.68717
L26.9118 -8.83339
L26.4417 -8.98789
L25.9746 -9.15062
L25.5105 -9.32152
L25.0496 -9.50055
L24.5921 -9.68765
L24.138 -9.88277
L23.6876 -10.0858
L23.2409 -10.2968
L22.798 -10.5156
L22.3592 -10.7422
L21.9246 -10.9764
L21.4942 -11.2183
L21.0683 -11.4677
L20.6469 -11.7246
L20.2302 -11.9889
L19.8183 -12.2605
L19.4113 -12.5393
L19.0094 -12.8253
L18.6126 -13.1184
L18.2212 -13.4184
L17.8351 -13.7253
L17.4546 -14.039
L17.0798 -14.3593
L16.7107 -14.6863
L16.3475 -15.0197
L15.9902 -15.3596
L15.6391 -15.7057
L15.2942 -16.058
L14.9555 -16.4164
L14.6233 -16.7807
L14.2976 -17.1509
L13.9785 -17.5269
L13.6661 -17.9085
L13.3605 -18.2955
L13.0618 -18.688
L12.7701 -19.0858
L12.4855 -19.4887
L12.2081 -19.8966
L11.9378 -20.3094
L11.675 -20.7271
L11.4195 -21.1493
L11.1715 -21.5761
L10.9311 -22.0073
L10.6983 -22.4428
L10.4732 -22.8823
z
" id="C0_2_6f2b92bc35"/>
    </defs>
    <g clip-path="url(#p1bffca34e9)">
     <use style="fill:#ffffff;stroke:#000000;stroke-width:2.0;" x="0.0" xlink:href="#C0_0_a811fe30f3" y="72.0"/>
    </g>
    <g clip-path="url(#p1bffca34e9)">
     <use style="fill:#ff0000;stroke:#000000;stroke-width:2.0;" x="0.0" xlink:href="#C0_1_cb991c5564" y="72.0"/>
    </g>
    <g clip-path="url(#p1bffca34e9)">
     <use style="fill:#ff0000;stroke:#000000;stroke-width:2.0;" x="0.0" xlink:href="#C0_2_6f2b92bc35" y="72.0"/>
    </g>
   </g>
  </g>
 </g>
 <defs>
  <clipPath id="p1bffca34e9">
   <rect height="72.0" width="72.0" x="0.0" y="0.0"/>
  </clipPath>
 </defs>
</svg>
