<?xml version="1.0" encoding="utf-8" standalone="no"?>
<!DOCTYPE svg PUBLIC "-//W3C//DTD SVG 1.1//EN"
  "http://www.w3.org/Graphics/SVG/1.1/DTD/svg11.dtd">
<!-- Created with matplotlib (http://matplotlib.org/) -->
<svg height="72pt" version="1.1" viewBox="0 0 72 72" width="72pt" xmlns="http://www.w3.org/2000/svg" xmlns:xlink="http://www.w3.org/1999/xlink">
 <defs>
  <style type="text/css">
*{stroke-linecap:butt;stroke-linejoin:round;}
  </style>
 </defs>
 <g id="figure_1">
  <g id="patch_1">
   <path d="
M0 72
L72 72
L72 0
L0 0
z
" style="fill:none;"/>
  </g>
  <g id="axes_1">
   <g id="PatchCollection_1">
    <defs>
     <path d="
M36 -7.5
C43.5583 -7.5 50.808 -10.5029 56.1525 -15.8475
C61.4971 -21.192 64.5 -28.4417 64.5 -36
C64.5 -43.5583 61.4971 -50.808 56.1525 -56.1525
C50.808 -61.4971 43.5583 -64.5 36 -64.5
C28.4417 -64.5 21.192 -61.4971 15.8475 -56.1525
C10.5029 -50.808 7.5 -43.5583 7.5 -36
C7.5 -28.4417 10.5029 -21.192 15.8475 -15.8475
C21.192 -10.5029 28.4417 -7.5 36 -7.5
z
" id="C0_0_a811fe30f3"/>
     <path d="
M11.5843 -21.6024
L11.858 -21.7014
L12.1378 -21.7961
L12.4229 -21.8872
L12.7125 -21.9756
L13.0058 -22.0617
L13.3021 -22.1461
L13.6009 -22.2292
L13.9017 -22.3114
L14.2039 -22.3929
L14.5072 -22.4739
L14.8113 -22.5548
L15.1157 -22.6355
L15.4201 -22.7164
L15.7244 -22.7974
L16.0282 -22.8786
L16.3314 -22.9601
L16.6337 -23.0419
L16.9351 -23.1241
L17.2353 -23.2067
L17.5342 -23.2897
L17.8317 -23.3731
L18.1277 -23.4568
L18.4221 -23.541
L18.7148 -23.6256
L19.0058 -23.7106
L19.2951 -23.7959
L19.5825 -23.8816
L19.8681 -23.9676
L20.1517 -24.0539
L20.4335 -24.1405
L20.7134 -24.2275
L20.9913 -24.3147
L21.2673 -24.4021
L21.5414 -24.4898
L21.8136 -24.5777
L22.084 -24.6659
L22.3524 -24.7542
L22.619 -24.8428
L22.8838 -24.9315
L23.1468 -25.0205
L23.408 -25.1096
L23.6675 -25.1988
L23.9253 -25.2883
L24.1815 -25.3779
L24.436 -25.4676
L24.689 -25.5575
L24.9405 -25.6476
L25.1904 -25.7378
L25.439 -25.8282
L25.6861 -25.9188
L25.932 -26.0096
L26.1765 -26.1005
L26.4198 -26.1916
L26.6619 -26.2828
L26.9029 -26.3743
L27.1427 -26.466
L27.3816 -26.5579
L27.6194 -26.6501
L27.8564 -26.7424
L28.0924 -26.8351
L28.3277 -26.9279
L28.5621 -27.0211
L28.7959 -27.1145
L29.029 -27.2083
L29.2614 -27.3024
L29.4934 -27.3968
L29.7248 -27.4915
L29.9558 -27.5866
L30.1864 -27.6821
L30.4166 -27.778
L30.6466 -27.8744
L30.8763 -27.9712
L31.1059 -28.0684
L31.3354 -28.1661
L31.7941 -28.2644
L32.0236 -28.3631
L32.2531 -28.4624
L32.4828 -28.5623
L32.7127 -28.6628
L32.9428 -28.7639
L33.1733 -28.8656
L33.4042 -28.968
L33.6355 -29.0711
L33.8673 -29.175
L34.0996 -29.2795
L34.3325 -29.3849
L34.5661 -29.4911
L34.8004 -29.598
L35.0354 -29.7059
L35.2713 -29.8146
L35.5081 -29.9243
L35.7457 -30.0349
L35.9844 -30.1465
L36.2241 -30.2591
L36.465 -30.3728
L36.7069 -30.4875
L36.9501 -30.6034
L37.1946 -30.7204
L37.4403 -30.8386
L37.6875 -30.958
L37.9361 -31.0786
L38.1861 -31.2006
L38.4377 -31.3238
L38.6909 -31.4484
L38.9458 -31.5744
L39.2023 -31.7018
L39.4605 -31.8307
L39.7206 -31.9611
L39.9825 -32.093
L40.2463 -32.2264
L40.512 -32.3615
L40.7797 -32.4982
L41.0494 -32.6365
L41.3212 -32.7766
L41.595 -32.9184
L41.871 -33.062
L42.1492 -33.2073
L42.4295 -33.3544
L42.7121 -33.5034
L42.9969 -33.6543
L43.284 -33.807
L43.5733 -33.9616
L43.865 -34.1181
L44.1589 -34.2765
L44.4551 -34.4369
L44.7537 -34.5992
L45.0545 -34.7633
L45.3576 -34.9294
L45.6629 -35.0973
L45.9704 -35.2671
L46.2802 -35.4387
L46.592 -35.612
L46.906 -35.787
L47.222 -35.9636
L47.5399 -36.1417
L47.8597 -36.3213
L48.1814 -36.5022
L48.5047 -36.6841
L48.8296 -36.8671
L49.156 -37.0509
L49.4837 -37.2352
L49.8126 -37.4197
L50.1427 -37.6043
L50.4736 -37.7886
L50.8052 -37.972
L51.1375 -38.1543
L51.4701 -38.3349
L51.8028 -38.5132
L52.1356 -38.6885
L52.468 -38.8601
L52.8 -39.0271
L53.1313 -39.1884
L53.4616 -39.3431
L53.7907 -39.4896
L54.1183 -39.6267
L54.4441 -39.7527
L54.7679 -39.8656
L55.0892 -39.9636
L55.4078 -40.0445
L55.7234 -40.1059
L56.0354 -40.1454
L56.3436 -40.1606
L56.6474 -40.1493
L56.9465 -40.1093
L57.2402 -40.039
L57.5281 -39.9372
L57.8096 -39.8032
L58.0841 -39.637
L58.3513 -39.4393
L58.6105 -39.2112
L58.8612 -38.9544
L59.1032 -38.6706
L59.3358 -38.3621
L59.559 -38.0311
L59.7722 -37.6797
L59.9753 -37.3102
L60.1681 -36.9245
L60.3505 -36.5246
L60.5222 -36.1121
L60.6832 -35.6889
L60.8334 -35.2562
L60.9729 -34.8155
L61.1017 -34.368
L61.2196 -33.9148
L61.3269 -33.4569
L61.4236 -32.9952
L61.5098 -32.5306
L61.5855 -32.0638
L61.651 -31.5955
L61.7064 -31.1264
L61.7517 -30.6569
L61.7873 -30.1877
L61.8132 -29.7192
L61.8296 -29.2518
L61.8367 -28.786
L61.8348 -28.322
L61.824 -27.8602
L61.8044 -27.4009
L61.7764 -26.9444
L61.74 -26.4909
L61.6956 -26.0405
L61.6432 -25.5936
L61.5832 -25.1502
L61.5156 -24.7106
L61.4406 -24.2748
L61.3586 -23.8429
L61.2695 -23.4152
L61.108 -22.9915
L60.8688 -22.5152
L60.6221 -22.0791
L60.3678 -21.6472
L60.1062 -21.2197
L59.8372 -20.7966
L59.5609 -20.3783
L59.2775 -19.9646
L58.9869 -19.5559
L58.6894 -19.1521
L58.3849 -18.7535
L58.0737 -18.3601
L57.7557 -17.9722
L57.4311 -17.5897
L57.0999 -17.2128
L56.7623 -16.8416
L56.4184 -16.4763
L56.0683 -16.1169
L55.7121 -15.7636
L55.3499 -15.4164
L54.9817 -15.0755
L54.6078 -14.741
L54.2282 -14.413
L53.8431 -14.0915
L53.4525 -13.7767
L53.0567 -13.4687
L52.6556 -13.1676
L52.2494 -12.8734
L51.8383 -12.5862
L51.4224 -12.3062
L51.0018 -12.0334
L50.5766 -11.7679
L50.147 -11.5097
L49.713 -11.2591
L49.2749 -11.0159
L48.8327 -10.7804
L48.3867 -10.5526
L47.9368 -10.3325
L47.4833 -10.1202
L47.0263 -9.91584
L46.566 -9.7194
L46.1024 -9.53097
L45.6358 -9.3506
L45.1662 -9.17835
L44.6939 -9.01426
L44.2189 -8.8584
L43.7414 -8.7108
L43.2615 -8.57152
L42.7794 -8.44059
L42.2953 -8.31806
L41.8092 -8.20396
L41.3213 -8.09833
L40.8319 -8.00119
L40.341 -7.91259
L39.8487 -7.83254
L39.3553 -7.76107
L38.8608 -7.6982
L38.3655 -7.64395
L37.8695 -7.59834
L37.3729 -7.56138
L36.8759 -7.53309
L36.3786 -7.51346
L35.8812 -7.50251
L35.3838 -7.50025
L34.8866 -7.50666
L34.3898 -7.52176
L33.8934 -7.54553
L33.3977 -7.57796
L32.9028 -7.61906
L32.4088 -7.6688
L31.9159 -7.72716
L31.4243 -7.79415
L30.934 -7.86972
L30.4453 -7.95386
L29.9583 -8.04655
L29.4732 -8.14775
L28.99 -8.25743
L28.5089 -8.37556
L28.0302 -8.50211
L27.5538 -8.63704
L27.0801 -8.7803
L26.609 -8.93185
L26.1408 -9.09165
L25.6757 -9.25964
L25.2136 -9.43578
L24.7549 -9.62001
L24.2995 -9.81228
L23.8478 -10.0125
L23.3997 -10.2207
L22.9555 -10.4367
L22.5152 -10.6605
L22.0791 -10.892
L21.6472 -11.1312
L21.2197 -11.3779
L20.7966 -11.6322
L20.3783 -11.8938
L19.9646 -12.1628
L19.5559 -12.4391
L19.1521 -12.7225
L18.7535 -13.0131
L18.3601 -13.3106
L17.9722 -13.6151
L17.5897 -13.9263
L17.2128 -14.2443
L16.8416 -14.5689
L16.4763 -14.9001
L16.1169 -15.2377
L15.7636 -15.5816
L15.4164 -15.9317
L15.0755 -16.2879
L14.741 -16.6501
L14.413 -17.0183
L14.0915 -17.3922
L13.7767 -17.7718
L13.4687 -18.1569
L13.1676 -18.5475
L12.8734 -18.9433
L12.5862 -19.3444
L12.3062 -19.7506
L12.0334 -20.1617
L11.7679 -20.5776
z
" id="C0_1_54f835f5d5"/>
     <path d="
M10.8812 -49.3986
L11.1729 -49.7082
L11.4656 -50.0095
L11.7591 -50.3026
L12.0532 -50.5878
L12.348 -50.8651
L12.6432 -51.1349
L12.9387 -51.3972
L13.2344 -51.6524
L13.5303 -51.9005
L13.8262 -52.1417
L14.1222 -52.3763
L14.4181 -52.6043
L14.7138 -52.8261
L15.0094 -53.0416
L15.3048 -53.2512
L15.6 -53.4548
L15.8949 -53.6528
L16.1895 -53.8453
L16.4838 -54.0323
L16.7778 -54.2141
L17.0715 -54.3907
L17.3649 -54.5624
L17.658 -54.7291
L17.9508 -54.8911
L18.2432 -55.0485
L18.5354 -55.2014
L18.8274 -55.3498
L19.119 -55.4939
L19.4105 -55.6338
L19.7018 -55.7696
L19.9929 -55.9014
L20.2839 -56.0292
L20.5747 -56.1532
L20.8655 -56.2734
L21.1563 -56.3899
L21.4471 -56.5027
L21.7379 -56.612
L22.0288 -56.7178
L22.3199 -56.8202
L22.6111 -56.9191
L22.9026 -57.0148
L23.1943 -57.1071
L23.4863 -57.1962
L23.7787 -57.2821
L24.0715 -57.3649
L24.3648 -57.4445
L24.6586 -57.521
L24.9529 -57.5945
L25.2479 -57.665
L25.5436 -57.7324
L25.84 -57.7968
L26.1372 -57.8583
L26.4353 -57.9167
L26.7342 -57.9723
L27.0342 -58.0248
L27.3351 -58.0745
L27.6371 -58.1211
L27.9403 -58.1648
L28.2447 -58.2056
L28.5503 -58.2434
L28.8572 -58.2782
L29.1656 -58.31
L29.4753 -58.3388
L29.7866 -58.3645
L30.0994 -58.3871
L30.4139 -58.4067
L30.73 -58.4231
L31.0479 -58.4364
L31.3676 -58.4464
L31.6891 -58.4532
L32.0126 -58.4567
L32.338 -58.4569
L32.6655 -58.4536
L32.9951 -58.4469
L33.3268 -58.4366
L33.6608 -58.4227
L33.997 -58.4052
L34.3355 -58.384
L34.6763 -58.3589
L35.0196 -58.33
L35.3653 -58.2971
L35.7135 -58.2601
L36.0643 -58.219
L36.4176 -58.1736
L36.7735 -58.1239
L37.132 -58.0698
L37.4933 -58.0111
L37.8571 -57.9478
L38.2237 -57.8797
L38.593 -57.8068
L38.965 -57.7289
L39.3397 -57.6458
L39.7171 -57.5576
L40.0972 -57.4641
L40.48 -57.3651
L40.8654 -57.2606
L41.2534 -57.1504
L41.6439 -57.0344
L42.0369 -56.9125
L42.4324 -56.7846
L42.8302 -56.6507
L43.2302 -56.5105
L43.6324 -56.364
L44.0366 -56.2112
L44.4428 -56.0519
L44.8507 -55.8862
L45.2602 -55.7139
L45.6711 -55.5351
L46.0833 -55.3498
L46.4965 -55.1579
L46.9106 -54.9595
L47.3252 -54.7548
L47.7402 -54.5438
L48.1553 -54.3268
L48.5702 -54.1038
L48.9846 -53.8753
L49.3982 -53.6414
L49.8106 -53.4027
L50.2216 -53.1596
L50.6307 -52.9127
L51.0377 -52.6627
L51.4421 -52.4104
L51.8435 -52.1568
L52.2416 -51.9028
L52.6359 -51.6499
L53.0261 -51.3995
L53.4118 -51.1531
L53.7925 -50.9128
L54.1678 -50.6804
L54.5375 -50.4583
L54.9012 -50.2488
L55.2585 -50.0545
L55.6091 -49.8779
L55.9529 -49.7214
L56.2895 -49.5873
L56.619 -49.4773
L56.9411 -49.393
L57.2558 -49.335
L57.5632 -49.3038
L57.8631 -49.2988
L58.1556 -49.3193
L58.4409 -49.3638
L58.7188 -49.4307
L58.9895 -49.5183
L59.2529 -49.6245
L59.5092 -49.7476
L59.7583 -49.8856
L60.0002 -50.0368
L60.2349 -50.1998
L60.3167 -50.373
L60.0536 -50.8643
L59.7831 -51.2864
L59.5055 -51.7039
L59.2206 -52.1166
L58.9287 -52.5243
L58.6298 -52.9271
L58.324 -53.3247
L58.0114 -53.717
L57.6921 -54.1039
L57.3661 -54.4853
L57.0337 -54.861
L56.6949 -55.231
L56.3497 -55.5952
L55.9984 -55.9534
L55.641 -56.3055
L55.2776 -56.6514
L54.9083 -56.9911
L54.5333 -57.3243
L54.1526 -57.6511
L53.7664 -57.9712
L53.3747 -58.2847
L52.9778 -58.5913
L52.5757 -58.8911
L52.1686 -59.184
L51.7565 -59.4697
L51.3396 -59.7483
L50.9181 -60.0197
L50.492 -60.2837
L50.0615 -60.5404
L49.6267 -60.7896
L49.1878 -61.0312
L48.7449 -61.2652
L48.298 -61.4915
L47.8475 -61.7101
L47.3933 -61.9208
L46.9356 -62.1236
L46.4746 -62.3185
L46.0105 -62.5053
L45.5432 -62.6841
L45.0731 -62.8547
L44.6002 -63.0172
L44.1247 -63.1714
L43.6467 -63.3174
L43.1664 -63.455
L42.6839 -63.5843
L42.1993 -63.7052
L41.7129 -63.8176
L41.2247 -63.9215
L40.735 -64.017
L40.2438 -64.1039
L39.7513 -64.1823
L39.2576 -64.252
L38.763 -64.3132
L38.2675 -64.3657
L37.7714 -64.4097
L37.2747 -64.4449
L36.7776 -64.4715
L36.2803 -64.4894
L35.7828 -64.4986
L35.2855 -64.4992
L34.7884 -64.491
L34.2916 -64.4742
L33.7954 -64.4488
L33.2998 -64.4146
L32.8051 -64.3718
L32.3113 -64.3204
L31.8186 -64.2603
L31.3273 -64.1916
L30.8373 -64.1143
L30.3489 -64.0285
L29.8623 -63.9341
L29.3775 -63.8312
L28.8947 -63.7199
L28.4141 -63.6001
L27.9358 -63.4719
L27.46 -63.3353
L26.9867 -63.1904
L26.5163 -63.0372
L26.0487 -62.8758
L25.5841 -62.7062
L25.1227 -62.5284
L24.6646 -62.3426
L24.21 -62.1488
L23.7589 -61.947
L23.3116 -61.7372
L22.8682 -61.5197
L22.4287 -61.2944
L21.9934 -61.0613
L21.5624 -60.8207
L21.1357 -60.5724
L20.7136 -60.3167
L20.2961 -60.0536
L19.8834 -59.7831
L19.4757 -59.5055
L19.0729 -59.2206
L18.6753 -58.9287
L18.283 -58.6298
L17.8961 -58.324
L17.5147 -58.0114
L17.139 -57.6921
L16.769 -57.3661
L16.4048 -57.0337
L16.0466 -56.6949
L15.6945 -56.3497
L15.3486 -55.9984
L15.0089 -55.641
L14.6757 -55.2776
L14.3489 -54.9083
L14.0288 -54.5333
L13.7153 -54.1526
L13.4087 -53.7664
L13.1089 -53.3747
L12.816 -52.9778
L12.5303 -52.5757
L12.2517 -52.1686
L11.9803 -51.7565
L11.7163 -51.3396
L11.4596 -50.9181
L11.2104 -50.492
z
" id="C0_2_54acd98a58"/>
    </defs>
    <g clip-path="url(#p1bffca34e9)">
     <use style="fill:#ff0000;stroke:#000000;stroke-width:2.0;" x="0.0" xlink:href="#C0_0_a811fe30f3" y="72.0"/>
    </g>
    <g clip-path="url(#p1bffca34e9)">
     <use style="fill:#ffffff;stroke:#000000;stroke-width:2.0;" x="0.0" xlink:href="#C0_1_54f835f5d5" y="72.0"/>
    </g>
    <g clip-path="url(#p1bffca34e9)">
     <use style="fill:#ffffff;stroke:#000000;stroke-width:2.0;" x="0.0" xlink:href="#C0_2_54acd98a58" y="72.0"/>
    </g>
   </g>
  </g>
 </g>
 <defs>
  <clipPath id="p1bffca34e9">
   <rect height="72.0" width="72.0" x="0.0" y="0.0"/>
  </clipPath>
 </defs>
</svg>
