<?xml version="1.0" encoding="utf-8" standalone="no"?>
<!DOCTYPE svg PUBLIC "-//W3C//DTD SVG 1.1//EN"
  "http://www.w3.org/Graphics/SVG/1.1/DTD/svg11.dtd">
<!-- Created with matplotlib (http://matplotlib.org/) -->
<svg height="72pt" version="1.1" viewBox="0 0 72 72" width="72pt" xmlns="http://www.w3.org/2000/svg" xmlns:xlink="http://www.w3.org/1999/xlink">
 <defs>
  <style type="text/css">
*{stroke-linecap:butt;stroke-linejoin:round;}
  </style>
 </defs>
 <g id="figure_1">
  <g id="patch_1">
   <path d="
M0 72
L72 72
L72 0
L0 0
z
" style="fill:none;"/>
  </g>
  <g id="axes_1">
   <g id="PatchCollection_1">
    <defs>
     <path d="
M36 -7.5
C43.5583 -7.5 50.808 -10.5029 56.1525 -15.8475
C61.4971 -21.192 64.5 -28.4417 64.5 -36
C64.5 -43.5583 61.4971 -50.808 56.1525 -56.1525
C50.808 -61.4971 43.5583 -64.5 36 -64.5
C28.4417 -64.5 21.192 -61.4971 15.8475 -56.1525
C10.5029 -50.808 7.5 -43.5583 7.5 -36
C7.5 -28.4417 10.5029 -21.192 15.8475 -15.8475
C21.192 -10.5029 28.4417 -7.5 36 -7.5
z
" id="C0_0_a811fe30f3"/>
     <path d="
M28.1306 -8.65614
L28.0145 -8.8971
L27.9089 -9.13924
L27.8138 -9.38237
L27.7289 -9.62636
L27.6542 -9.87104
L27.5894 -10.1163
L27.5343 -10.3619
L27.4886 -10.6079
L27.4522 -10.8541
L27.4249 -11.1003
L27.4064 -11.3465
L27.3964 -11.5927
L27.3948 -11.8386
L27.4012 -12.0843
L27.4155 -12.3297
L27.4373 -12.5747
L27.4665 -12.8193
L27.5028 -13.0633
L27.5458 -13.3069
L27.5955 -13.5499
L27.6515 -13.7922
L27.7136 -14.034
L27.7816 -14.275
L27.8552 -14.5154
L27.9342 -14.7551
L28.0183 -14.994
L28.1074 -15.2322
L28.2013 -15.4697
L28.2996 -15.7064
L28.4023 -15.9423
L28.5091 -16.1774
L28.6198 -16.4118
L28.7343 -16.6454
L28.8523 -16.8781
L28.9738 -17.1101
L29.0985 -17.3413
L29.2262 -17.5716
L29.3569 -17.8012
L29.4903 -18.03
L29.6263 -18.258
L29.7649 -18.4852
L29.9058 -18.7117
L30.0489 -18.9373
L30.1941 -19.1622
L30.3414 -19.3863
L30.4906 -19.6097
L30.6415 -19.8323
L30.7942 -20.0542
L30.9484 -20.2753
L31.1042 -20.4957
L31.2614 -20.7154
L31.42 -20.9344
L31.5798 -21.1527
L31.7409 -21.3703
L31.9032 -21.5872
L32.0665 -21.8035
L32.2308 -22.0191
L32.3962 -22.234
L32.5624 -22.4484
L32.7296 -22.6621
L32.8975 -22.8752
L33.0663 -23.0877
L33.2358 -23.2996
L33.4061 -23.5109
L33.577 -23.7217
L33.7486 -23.932
L33.9208 -24.1417
L34.0936 -24.3509
L34.267 -24.5597
L34.441 -24.7679
L34.6155 -24.9757
L34.7905 -25.183
L34.966 -25.3898
L35.1421 -25.5963
L35.3186 -25.8023
L35.4956 -26.0079
L35.673 -26.2132
L35.851 -26.418
L36.0293 -26.6226
L36.2082 -26.8268
L36.3874 -27.0306
L36.5671 -27.2342
L36.7473 -27.4374
L36.9279 -27.6404
L37.109 -27.8431
L37.2905 -28.0455
L37.4724 -28.2477
L37.6549 -28.4497
L37.8377 -28.6514
L38.2049 -28.853
L38.3892 -29.0543
L38.574 -29.2555
L38.7593 -29.4564
L38.9451 -29.6573
L39.1315 -29.8579
L39.3183 -30.0585
L39.5057 -30.2588
L39.6937 -30.4591
L39.8822 -30.6592
L40.0713 -30.8592
L40.261 -31.0592
L40.4513 -31.259
L40.6422 -31.4587
L40.8337 -31.6583
L41.0259 -31.8577
L41.2188 -32.0571
L41.4123 -32.2564
L41.6065 -32.4556
L41.8014 -32.6547
L41.997 -32.8537
L42.1934 -33.0526
L42.3904 -33.2513
L42.5883 -33.4499
L42.7869 -33.6484
L42.9864 -33.8467
L43.1866 -34.0448
L43.3876 -34.2427
L43.5895 -34.4405
L43.7923 -34.638
L43.9959 -34.8352
L44.2004 -35.0322
L44.4057 -35.2289
L44.612 -35.4252
L44.8193 -35.6212
L45.0274 -35.8167
L45.2365 -36.0118
L45.4466 -36.2065
L45.6576 -36.4005
L45.8697 -36.5941
L46.0827 -36.7869
L46.2968 -36.9791
L46.5119 -37.1706
L46.728 -37.3612
L46.9452 -37.551
L47.1634 -37.7398
L47.3827 -37.9276
L47.6031 -38.1142
L47.8246 -38.2997
L48.0472 -38.484
L48.2709 -38.6668
L48.4958 -38.8482
L48.7217 -39.028
L48.9488 -39.2062
L49.1771 -39.3825
L49.4064 -39.557
L49.637 -39.7294
L49.8687 -39.8996
L50.1015 -40.0676
L50.3355 -40.2331
L50.5707 -40.396
L50.8071 -40.5562
L51.0446 -40.7136
L51.2832 -40.8679
L51.523 -41.0189
L51.764 -41.1666
L52.0061 -41.3108
L52.2494 -41.4512
L52.4938 -41.5877
L52.7393 -41.7201
L52.9859 -41.8483
L53.2335 -41.9719
L53.4823 -42.0908
L53.732 -42.2049
L53.9828 -42.3139
L54.2346 -42.4176
L54.4873 -42.5158
L54.741 -42.6084
L54.9955 -42.695
L55.2508 -42.7755
L55.5069 -42.8498
L55.7637 -42.9175
L56.0212 -42.9786
L56.2793 -43.0328
L56.5379 -43.0799
L56.7969 -43.1198
L57.0563 -43.1523
L57.316 -43.1771
L57.5759 -43.1943
L57.8359 -43.2035
L58.0958 -43.2047
L58.3556 -43.1977
L58.6152 -43.1823
L58.8743 -43.1586
L59.133 -43.1263
L59.3911 -43.0854
L59.6483 -43.0358
L59.9047 -42.9774
L60.1599 -42.9102
L60.414 -42.834
L60.6667 -42.7489
L60.9178 -42.6549
L61.1672 -42.5519
L61.4148 -42.4399
L61.6603 -42.3189
L61.9036 -42.1889
L62.1445 -42.05
L62.3829 -41.9022
L62.6186 -41.7455
L62.8513 -41.58
L63.081 -41.4057
L63.3074 -41.2228
L63.5304 -41.0312
L63.7497 -40.8311
L63.9653 -40.6226
L64.177 -40.4058
L64.2601 -40.1807
L64.3202 -39.6902
L64.3717 -39.1964
L64.4145 -38.7016
L64.4487 -38.2061
L64.4742 -37.7098
L64.491 -37.2131
L64.4992 -36.716
L64.4986 -36.2186
L64.4894 -35.7212
L64.4715 -35.2239
L64.445 -34.7268
L64.4098 -34.2301
L64.3659 -33.7339
L64.3134 -33.2384
L64.2522 -32.7438
L64.1825 -32.2502
L64.1042 -31.7577
L64.0173 -31.2665
L63.9218 -30.7767
L63.8179 -30.2885
L63.7055 -29.8021
L63.5847 -29.3175
L63.4554 -28.835
L63.3178 -28.3547
L63.1719 -27.8767
L63.0177 -27.4012
L62.8552 -26.9283
L62.6846 -26.4581
L62.5059 -25.9909
L62.319 -25.5267
L62.1242 -25.0657
L61.9214 -24.6081
L61.7107 -24.1539
L61.4922 -23.7033
L61.2659 -23.2564
L61.0319 -22.8135
L60.7903 -22.3745
L60.5411 -21.9397
L60.2845 -21.5092
L60.0205 -21.0831
L59.7491 -20.6616
L59.4705 -20.2447
L59.1848 -19.8326
L58.892 -19.4255
L58.5922 -19.0234
L58.2856 -18.6264
L57.9721 -18.2348
L57.652 -17.8486
L57.3253 -17.4679
L56.9921 -17.0928
L56.6524 -16.7235
L56.3065 -16.3601
L55.9544 -16.0026
L55.5963 -15.6513
L55.2321 -15.3061
L54.8621 -14.9673
L54.4864 -14.6348
L54.105 -14.3089
L53.7181 -13.9896
L53.3258 -13.6769
L52.9282 -13.3711
L52.5255 -13.0722
L52.1178 -12.7802
L51.7051 -12.4954
L51.2876 -12.2177
L50.8655 -11.9472
L50.4389 -11.684
L50.0079 -11.4283
L49.5726 -11.1801
L49.1331 -10.9394
L48.6897 -10.7063
L48.2424 -10.481
L47.7914 -10.2634
L47.3367 -10.0536
L46.8787 -9.8518
L46.4173 -9.65793
L45.9527 -9.47208
L45.4851 -9.29432
L45.0146 -9.12469
L44.5414 -8.96324
L44.0656 -8.81003
L43.5873 -8.6651
L43.1067 -8.5285
L42.6239 -8.40027
L42.1391 -8.28045
L41.6525 -8.16906
L41.1641 -8.06616
L40.6742 -7.97177
L40.1828 -7.88591
L39.6902 -7.80861
L39.1964 -7.73991
L38.7016 -7.67981
L38.2061 -7.62834
L37.7098 -7.58551
L37.2131 -7.55134
L36.716 -7.52583
L36.2186 -7.50899
L35.7212 -7.50084
L35.2239 -7.50136
L34.7268 -7.51057
L34.2301 -7.52845
L33.7339 -7.55501
L33.2384 -7.59023
L32.7438 -7.63411
L32.2502 -7.68663
L31.7577 -7.74777
L31.2665 -7.81751
L30.7767 -7.89584
L30.2885 -7.98274
L29.8021 -8.07816
L29.3175 -8.18209
L28.835 -8.2945
z
" id="C0_1_48239a916e"/>
     <path d="
M7.92877 -32.0961
L8.06467 -32.3784
L8.20197 -32.6616
L8.34071 -32.9457
L8.48092 -33.2305
L8.62262 -33.5158
L8.76583 -33.8015
L8.91058 -34.0875
L9.05687 -34.3735
L9.20472 -34.6595
L9.35414 -34.9454
L9.50514 -35.231
L9.65771 -35.5162
L9.81186 -35.801
L9.96759 -36.0851
L10.1249 -36.3687
L10.2838 -36.6514
L10.4442 -36.9334
L10.6062 -37.2144
L10.7698 -37.4944
L10.9349 -37.7735
L11.1016 -38.0514
L11.2697 -38.3281
L11.4394 -38.6037
L11.6106 -38.878
L11.7833 -39.151
L11.9574 -39.4227
L12.133 -39.6931
L12.3101 -39.962
L12.4886 -40.2295
L12.6685 -40.4956
L12.8499 -40.7602
L13.0326 -41.0233
L13.2168 -41.2849
L13.4023 -41.545
L13.5892 -41.8036
L13.7775 -42.0606
L13.9671 -42.3161
L14.1581 -42.5701
L14.3505 -42.8225
L14.5441 -43.0733
L14.7391 -43.3226
L14.9354 -43.5704
L15.1331 -43.8166
L15.332 -44.0613
L15.5323 -44.3044
L15.7338 -44.546
L15.9367 -44.7861
L16.1409 -45.0246
L16.3464 -45.2617
L16.5532 -45.4973
L16.7613 -45.7313
L16.9707 -45.964
L17.1815 -46.1951
L17.3935 -46.4248
L17.6069 -46.6531
L17.8216 -46.8799
L18.0376 -47.1053
L18.255 -47.3293
L18.4737 -47.552
L18.6938 -47.7732
L18.9153 -47.9931
L19.1381 -48.2117
L19.3623 -48.4289
L19.5878 -48.6448
L19.8148 -48.8594
L20.0432 -49.0726
L20.273 -49.2846
L20.5042 -49.4954
L20.7368 -49.7048
L20.9709 -49.913
L21.2065 -50.12
L21.4435 -50.3257
L21.682 -50.5302
L21.922 -50.7335
L22.1635 -50.9355
L22.4065 -51.1364
L22.6511 -51.3361
L22.8971 -51.5346
L23.1447 -51.732
L23.3939 -51.9282
L23.6446 -52.1232
L23.8969 -52.317
L24.1508 -52.5097
L24.4063 -52.7013
L24.6633 -52.8917
L24.922 -53.081
L25.1822 -53.2691
L25.4441 -53.4562
L25.7075 -53.642
L25.9726 -53.8268
L26.2393 -54.0104
L26.5076 -54.1928
L26.7775 -54.3742
L27.049 -54.5544
L27.322 -54.7335
L27.5967 -54.9114
L27.8729 -55.0882
L28.1507 -55.2639
L28.43 -55.4384
L28.7109 -55.6118
L28.9932 -55.784
L29.277 -55.9551
L29.5623 -56.125
L29.849 -56.2938
L30.1371 -56.4615
L30.4266 -56.6279
L30.7173 -56.7933
L31.0094 -56.9574
L31.3026 -57.1204
L31.597 -57.2823
L31.8926 -57.4429
L32.1892 -57.6025
L32.4868 -57.7609
L32.7853 -57.9181
L33.0847 -58.0742
L33.3848 -58.2292
L33.6857 -58.383
L33.9872 -58.5358
L34.2891 -58.6874
L34.5915 -58.8379
L34.8942 -58.9874
L35.1971 -59.1359
L35.5001 -59.2833
L35.8031 -59.4297
L36.106 -59.5751
L36.4085 -59.7195
L36.7107 -59.8631
L37.0123 -60.0057
L37.3132 -60.1476
L37.6133 -60.2886
L37.9123 -60.4288
L38.2103 -60.5683
L38.5069 -60.7072
L38.802 -60.8454
L39.0955 -60.983
L39.3872 -61.1202
L39.6769 -61.2569
L39.9645 -61.3931
L40.2496 -61.5291
L40.5323 -61.6648
L40.8123 -61.8002
L41.0893 -61.9355
L41.3633 -62.0708
L41.6341 -62.206
L41.9014 -62.3413
L42.165 -62.4766
L42.4249 -62.6122
L42.6808 -62.748
L42.9326 -62.8841
L43.1801 -63.0206
L43.4231 -63.1575
L43.222 -63.2949
L42.7397 -63.5698
L42.2554 -63.6916
L41.7692 -63.805
L41.2812 -63.91
L40.7916 -64.0064
L40.3006 -64.0943
L39.8082 -64.1737
L39.3147 -64.2444
L38.8202 -64.3066
L38.3248 -64.3601
L37.8287 -64.405
L37.3321 -64.4413
L36.835 -64.4689
L36.3377 -64.4878
L35.8403 -64.498
L35.3429 -64.4996
L34.8458 -64.4924
L34.349 -64.4766
L33.8526 -64.4521
L33.357 -64.419
L32.8621 -64.3772
L32.3683 -64.3267
L31.8755 -64.2677
L31.3839 -64.2
L30.8938 -64.1237
L30.4053 -64.0388
L29.9184 -63.9455
L29.4334 -63.8436
L28.9504 -63.7332
L28.4695 -63.6144
L27.9909 -63.4871
L27.5148 -63.3515
L27.0413 -63.2076
L26.5704 -63.0553
L26.1025 -62.8949
L25.6376 -62.7262
L25.1758 -62.5494
L24.7173 -62.3645
L24.2623 -62.1716
L23.8108 -61.9707
L23.3631 -61.7619
L22.9192 -61.5452
L22.4793 -61.3208
L22.0435 -61.0886
L21.6119 -60.8488
L21.1847 -60.6015
L20.7621 -60.3466
L20.3441 -60.0844
L19.9308 -59.8148
L19.5225 -59.5379
L19.1192 -59.2539
L18.721 -58.9627
L18.3281 -58.6646
L17.9405 -58.3596
L17.5585 -58.0478
L17.1821 -57.7293
L16.8114 -57.4041
L16.4465 -57.0724
L16.0877 -56.7343
L15.7348 -56.3899
L15.3882 -56.0393
L15.0478 -55.6826
L14.7138 -55.3198
L14.3863 -54.9512
L14.0654 -54.5769
L13.7512 -54.1968
L13.4437 -53.8112
L13.1431 -53.4202
L12.8495 -53.0239
L12.5629 -52.6224
L12.2835 -52.2158
L12.0113 -51.8043
L11.7464 -51.388
L11.4889 -50.967
L11.2388 -50.5415
L10.9963 -50.1115
L10.7614 -49.6772
L10.5342 -49.2387
L10.3148 -48.7962
L10.1031 -48.3498
L9.8994 -47.8997
L9.70362 -47.4459
L9.51585 -46.9886
L9.33614 -46.528
L9.16456 -46.0642
L9.00115 -45.5973
L8.84596 -45.1275
L8.69905 -44.655
L8.56045 -44.1797
L8.43021 -43.702
L8.30837 -43.222
L8.19496 -42.7397
L8.09002 -42.2554
L7.99359 -41.7692
L7.90569 -41.2812
L7.82634 -40.7916
L7.75558 -40.3006
L7.69341 -39.8082
L7.63988 -39.3147
L7.59498 -38.8202
L7.55873 -38.3248
L7.53115 -37.8287
L7.51223 -37.3321
L7.502 -36.835
L7.50045 -36.3377
L7.50758 -35.8403
L7.52338 -35.3429
L7.54786 -34.8458
L7.58101 -34.349
L7.62282 -33.8526
L7.67327 -33.357
z
" id="C0_2_cc621cf2d1"/>
    </defs>
    <g clip-path="url(#p1bffca34e9)">
     <use style="fill:#ff0000;stroke:#000000;stroke-width:2.0;" x="0.0" xlink:href="#C0_0_a811fe30f3" y="72.0"/>
    </g>
    <g clip-path="url(#p1bffca34e9)">
     <use style="fill:#ffffff;stroke:#000000;stroke-width:2.0;" x="0.0" xlink:href="#C0_1_48239a916e" y="72.0"/>
    </g>
    <g clip-path="url(#p1bffca34e9)">
     <use style="fill:#ffffff;stroke:#000000;stroke-width:2.0;" x="0.0" xlink:href="#C0_2_cc621cf2d1" y="72.0"/>
    </g>
   </g>
  </g>
 </g>
 <defs>
  <clipPath id="p1bffca34e9">
   <rect height="72.0" width="72.0" x="0.0" y="0.0"/>
  </clipPath>
 </defs>
</svg>
