<?xml version="1.0" encoding="utf-8" standalone="no"?>
<!DOCTYPE svg PUBLIC "-//W3C//DTD SVG 1.1//EN"
  "http://www.w3.org/Graphics/SVG/1.1/DTD/svg11.dtd">
<!-- Created with matplotlib (http://matplotlib.org/) -->
<svg height="72pt" version="1.1" viewBox="0 0 72 72" width="72pt" xmlns="http://www.w3.org/2000/svg" xmlns:xlink="http://www.w3.org/1999/xlink">
 <defs>
  <style type="text/css">
*{stroke-linecap:butt;stroke-linejoin:round;}
  </style>
 </defs>
 <g id="figure_1">
  <g id="patch_1">
   <path d="
M0 72
L72 72
L72 0
L0 0
z
" style="fill:none;"/>
  </g>
  <g id="axes_1">
   <g id="PatchCollection_1">
    <defs>
     <path d="
M36 -7.5
C43.5583 -7.5 50.808 -10.5029 56.1525 -15.8475
C61.4971 -21.192 64.5 -28.4417 64.5 -36
C64.5 -43.5583 61.4971 -50.808 56.1525 -56.1525
C50.808 -61.4971 43.5583 -64.5 36 -64.5
C28.4417 -64.5 21.192 -61.4971 15.8475 -56.1525
C10.5029 -50.808 7.5 -43.5583 7.5 -36
C7.5 -28.4417 10.5029 -21.192 15.8475 -15.8475
C21.192 -10.5029 28.4417 -7.5 36 -7.5
z
" id="C0_0_a811fe30f3"/>
     <path d="
M25.008 -9.85748
L24.9925 -10.1236
L25.0169 -10.3813
L25.079 -10.631
L25.1761 -10.8733
L25.3051 -11.1089
L25.4624 -11.3389
L25.6448 -11.5641
L25.8489 -11.7857
L26.0717 -12.0044
L26.3101 -12.2213
L26.5618 -12.4369
L26.8244 -12.652
L27.096 -12.8669
L27.3748 -13.0822
L27.6592 -13.2981
L27.948 -13.5149
L28.2399 -13.7326
L28.5342 -13.9516
L28.8297 -14.1717
L29.126 -14.393
L29.4222 -14.6156
L29.7178 -14.8394
L30.0125 -15.0643
L30.3057 -15.2902
L30.5971 -15.5172
L30.8865 -15.745
L31.1735 -15.9737
L31.4579 -16.203
L31.7397 -16.433
L32.0185 -16.6634
L32.2943 -16.8942
L32.567 -17.1254
L32.8365 -17.3568
L33.1027 -17.5882
L33.3656 -17.8198
L33.6252 -18.0512
L33.8814 -18.2826
L34.1342 -18.5138
L34.3837 -18.7447
L34.6298 -18.9753
L34.8725 -19.2055
L35.1119 -19.4353
L35.348 -19.6646
L35.5809 -19.8935
L35.8105 -20.1218
L36.037 -20.3495
L36.2603 -20.5767
L36.4806 -20.8032
L36.6978 -21.0291
L36.9121 -21.2543
L37.1235 -21.4789
L37.332 -21.7029
L37.5377 -21.9262
L37.7407 -22.1488
L37.941 -22.3708
L38.1387 -22.5921
L38.3339 -22.8128
L38.5266 -23.0329
L38.7169 -23.2523
L38.9048 -23.4712
L39.0904 -23.6895
L39.2737 -23.9072
L39.4549 -24.1244
L39.634 -24.3411
L39.811 -24.5574
L39.986 -24.7732
L40.159 -24.9886
L40.3302 -25.2035
L40.4995 -25.4182
L40.667 -25.6325
L40.8328 -25.8465
L40.997 -26.0603
L41.1595 -26.2739
L41.3204 -26.4873
L41.4798 -26.7005
L41.6378 -26.9137
L41.7943 -27.1268
L41.9494 -27.3399
L42.1032 -27.553
L42.2557 -27.7662
L42.407 -27.9795
L42.5571 -28.193
L42.706 -28.4067
L42.8538 -28.6206
L43.0005 -28.8349
L43.1462 -29.0495
L43.2908 -29.2644
L43.4345 -29.4799
L43.7192 -29.6958
L43.8602 -29.9122
L44.0004 -30.1293
L44.1398 -30.347
L44.2784 -30.5654
L44.4163 -30.7846
L44.5535 -31.0045
L44.69 -31.2254
L44.8259 -31.4471
L44.9612 -31.6698
L45.0959 -31.8935
L45.23 -32.1184
L45.3635 -32.3443
L45.4965 -32.5715
L45.6291 -32.7999
L45.7611 -33.0296
L45.8927 -33.2607
L46.0238 -33.4933
L46.1545 -33.7273
L46.2848 -33.9629
L46.4147 -34.2001
L46.5443 -34.439
L46.6734 -34.6797
L46.8022 -34.9221
L46.9306 -35.1665
L47.0587 -35.4127
L47.1865 -35.661
L47.3139 -35.9114
L47.441 -36.1639
L47.5678 -36.4186
L47.6942 -36.6755
L47.8203 -36.9348
L47.9461 -37.1965
L48.0715 -37.4607
L48.1966 -37.7273
L48.3213 -37.9966
L48.4457 -38.2685
L48.5697 -38.5432
L48.6932 -38.8206
L48.8164 -39.1008
L48.9391 -39.3839
L49.0613 -39.67
L49.183 -39.9591
L49.3043 -40.2512
L49.4249 -40.5464
L49.545 -40.8448
L49.6644 -41.1464
L49.7832 -41.4511
L49.9012 -41.7591
L50.0185 -42.0704
L50.135 -42.3849
L50.2507 -42.7028
L50.3654 -43.024
L50.4792 -43.3484
L50.5919 -43.6762
L50.7036 -44.0072
L50.8142 -44.3414
L50.9236 -44.6788
L51.0318 -45.0194
L51.1387 -45.3629
L51.2443 -45.7095
L51.3485 -46.0588
L51.4512 -46.4109
L51.5526 -46.7655
L51.6525 -47.1225
L51.751 -47.4816
L51.8481 -47.8427
L51.9438 -48.2055
L52.0381 -48.5696
L52.1312 -48.9347
L52.2233 -49.3004
L52.3144 -49.6663
L52.4049 -50.0318
L52.495 -50.3964
L52.5851 -50.7594
L52.6758 -51.12
L52.7674 -51.4775
L52.8609 -51.8309
L52.957 -52.179
L53.0566 -52.5206
L53.1611 -52.8543
L53.2718 -53.1786
L53.3903 -53.4915
L53.5183 -53.7912
L53.6579 -54.0754
L53.811 -54.3417
L53.98 -54.5875
L54.1667 -54.8103
L54.3731 -55.0073
L54.6007 -55.1762
L54.8506 -55.3147
L55.1231 -55.4211
L55.4181 -55.4942
L55.7345 -55.5333
L56.071 -55.5384
L56.4258 -55.5102
L56.7966 -55.4494
L57.1971 -55.3576
L57.5263 -55.0508
L57.849 -54.678
L58.1651 -54.2995
L58.4744 -53.9154
L58.7768 -53.5258
L59.0723 -53.1309
L59.3608 -52.7308
L59.6421 -52.3256
L59.9163 -51.9154
L60.1832 -51.5003
L60.4427 -51.0806
L60.6948 -50.6562
L60.9393 -50.2274
L61.1762 -49.7943
L61.4055 -49.3569
L61.6271 -48.9155
L61.8408 -48.4701
L62.0466 -48.021
L62.2446 -47.5682
L62.4345 -47.1118
L62.6164 -46.6521
L62.7901 -46.1891
L62.9558 -45.7231
L63.1132 -45.254
L63.2623 -44.7822
L63.4031 -44.3076
L63.5356 -43.8306
L63.6597 -43.3511
L63.7754 -42.8695
L63.8826 -42.3857
L63.9813 -41.9
L64.0715 -41.4125
L64.1532 -40.9233
L64.2263 -40.4326
L64.2907 -39.9406
L64.3466 -39.4474
L64.3938 -38.9531
L64.4324 -38.458
L64.4623 -37.962
L64.4835 -37.4655
L64.4961 -36.9686
L64.5 -36.4713
L64.4952 -35.9739
L64.4817 -35.4765
L64.4596 -34.9793
L64.4287 -34.4824
L64.3893 -33.9859
L64.3411 -33.4901
L64.2844 -32.995
L64.219 -32.5008
L64.145 -32.0077
L64.0625 -31.5159
L63.9714 -31.0253
L63.8718 -30.5363
L63.7637 -30.049
L63.6471 -29.5635
L63.5221 -29.0799
L63.3888 -28.5985
L63.247 -28.1193
L63.097 -27.6425
L62.9388 -27.1682
L62.7723 -26.6967
L62.5977 -26.2279
L62.415 -25.7622
L62.2242 -25.2995
L62.0254 -24.8402
L61.8187 -24.3842
L61.6042 -23.9317
L61.3818 -23.483
L61.1518 -23.038
L60.914 -22.597
L60.6687 -22.1601
L60.4158 -21.7274
L60.1555 -21.2991
L59.8879 -20.8752
L59.613 -20.4559
L59.3309 -20.0414
L59.0416 -19.6317
L58.7454 -19.227
L58.4422 -18.8274
L58.1322 -18.4331
L57.8155 -18.0441
L57.4921 -17.6606
L57.1622 -17.2826
L56.8258 -16.9104
L56.4831 -16.544
L56.1341 -16.1835
L55.779 -15.829
L55.4179 -15.4807
L55.0508 -15.1386
L54.678 -14.8029
L54.2995 -14.4737
L53.9154 -14.151
L53.5258 -13.8349
L53.1309 -13.5256
L52.7308 -13.2232
L52.3256 -12.9277
L51.9154 -12.6392
L51.5003 -12.3579
L51.0806 -12.0837
L50.6562 -11.8168
L50.2274 -11.5573
L49.7943 -11.3052
L49.3569 -11.0607
L48.9155 -10.8238
L48.4701 -10.5945
L48.021 -10.3729
L47.5682 -10.1592
L47.1118 -9.95336
L46.6521 -9.75543
L46.1891 -9.5655
L45.7231 -9.38362
L45.254 -9.20985
L44.7822 -9.04424
L44.3076 -8.88684
L43.8306 -8.7377
L43.3511 -8.59686
L42.8695 -8.46437
L42.3857 -8.34027
L41.9 -8.2246
L41.4125 -8.11738
L40.9233 -8.01866
L40.4326 -7.92846
L39.9406 -7.84681
L39.4474 -7.77374
L38.9531 -7.70927
L38.458 -7.65341
L37.962 -7.60619
L37.4655 -7.56762
L36.9686 -7.53771
L36.4713 -7.51646
L35.9739 -7.5039
L35.4765 -7.50001
L34.9793 -7.50481
L34.4824 -7.51828
L33.9859 -7.54044
L33.4901 -7.57126
L32.995 -7.61074
L32.5008 -7.65886
L32.0077 -7.71563
L31.5159 -7.781
L31.0253 -7.85497
L30.5363 -7.93752
L30.049 -8.02861
L29.5635 -8.12823
L29.0799 -8.23633
L28.5985 -8.35289
L28.1193 -8.47788
L27.6425 -8.61124
L27.1682 -8.75295
L26.6967 -8.90296
L26.2279 -9.06122
L25.7622 -9.22769
z
" id="C0_1_a25adfc83e"/>
     <path d="
M14.9855 -16.9152
L14.8859 -17.3228
L14.778 -17.7429
L14.6645 -18.1739
L14.5476 -18.6141
L14.4293 -19.062
L14.3112 -19.5164
L14.1949 -19.9759
L14.0814 -20.4394
L13.9717 -20.9061
L13.8667 -21.3749
L13.767 -21.845
L13.6731 -22.3158
L13.5853 -22.7865
L13.504 -23.2566
L13.4293 -23.7255
L13.3614 -24.1927
L13.3004 -24.6578
L13.2462 -25.1205
L13.199 -25.5803
L13.1585 -26.037
L13.1247 -26.4902
L13.0975 -26.9398
L13.0768 -27.3856
L13.0625 -27.8272
L13.0543 -28.2647
L13.0522 -28.6979
L13.0559 -29.1265
L13.0654 -29.5507
L13.0803 -29.9702
L13.1005 -30.385
L13.126 -30.7952
L13.1564 -31.2006
L13.1916 -31.6012
L13.2314 -31.9971
L13.2758 -32.3882
L13.3244 -32.7746
L13.3772 -33.1562
L13.4341 -33.5333
L13.4947 -33.9056
L13.5591 -34.2734
L13.6271 -34.6367
L13.6986 -34.9955
L13.7734 -35.3499
L13.8514 -35.7
L13.9325 -36.0457
L14.0167 -36.3873
L14.1037 -36.7248
L14.1935 -37.0583
L14.2861 -37.3877
L14.3813 -37.7133
L14.479 -38.0351
L14.5793 -38.3532
L14.6819 -38.6677
L14.7869 -38.9786
L14.8942 -39.286
L15.0037 -39.5901
L15.1154 -39.8909
L15.2292 -40.1884
L15.3452 -40.4828
L15.4632 -40.7742
L15.5832 -41.0626
L15.7052 -41.3481
L15.8292 -41.6308
L15.9551 -41.9108
L16.083 -42.1881
L16.2127 -42.4629
L16.3444 -42.7351
L16.4779 -43.0049
L16.6133 -43.2724
L16.7506 -43.5376
L16.8898 -43.8005
L17.0308 -44.0614
L17.1737 -44.3201
L17.3186 -44.5768
L17.4653 -44.8316
L17.6139 -45.0845
L17.7644 -45.3356
L17.9169 -45.5849
L18.0713 -45.8325
L18.2277 -46.0785
L18.3862 -46.3229
L18.5466 -46.5657
L18.7092 -46.8071
L18.8738 -47.047
L19.0405 -47.2856
L19.2095 -47.5228
L19.3806 -47.7587
L19.554 -47.9934
L19.7296 -48.2269
L19.9077 -48.4592
L20.088 -48.6904
L20.2709 -48.9206
L20.4562 -49.1497
L20.644 -49.3777
L20.8345 -49.6049
L21.0276 -49.831
L21.2234 -50.0563
L21.422 -50.2806
L21.6234 -50.5041
L21.8278 -50.7268
L22.0351 -50.9486
L22.2455 -51.1696
L22.4591 -51.3899
L22.6758 -51.6093
L22.8958 -51.828
L23.1192 -52.046
L23.346 -52.2631
L23.5764 -52.4795
L23.8104 -52.6952
L24.0481 -52.9101
L24.2896 -53.1243
L24.535 -53.3376
L24.7844 -53.5502
L25.0379 -53.7619
L25.2956 -53.9728
L25.5575 -54.1828
L25.8238 -54.3919
L26.0946 -54.6001
L26.37 -54.8073
L26.6501 -55.0134
L26.935 -55.2185
L27.2247 -55.4224
L27.5195 -55.6252
L27.8193 -55.8266
L28.1243 -56.0267
L28.4347 -56.2254
L28.7504 -56.4225
L29.0716 -56.618
L29.3984 -56.8118
L29.7308 -57.0037
L30.069 -57.1938
L30.4131 -57.3817
L30.763 -57.5674
L31.1188 -57.7508
L31.4807 -57.9318
L31.8486 -58.11
L32.2226 -58.2855
L32.6027 -58.4581
L32.9889 -58.6275
L33.3813 -58.7936
L33.7797 -58.9563
L34.1841 -59.1153
L34.5945 -59.2705
L35.0108 -59.4217
L35.4329 -59.5686
L35.8605 -59.7112
L36.2935 -59.8493
L36.7318 -59.9827
L37.175 -60.1112
L37.6228 -60.2348
L38.0749 -60.3533
L38.5308 -60.4667
L38.9901 -60.5748
L39.4522 -60.6778
L39.9165 -60.7757
L40.3822 -60.8685
L40.8485 -60.9566
L41.3144 -61.0401
L41.7789 -61.1194
L42.2407 -61.1952
L42.6984 -61.268
L43.1504 -61.3387
L43.5948 -61.4082
L44.0298 -61.4779
L44.4531 -61.5492
L44.8621 -61.6236
L45.2543 -61.7032
L45.6269 -61.7898
L45.977 -61.8856
L46.3018 -61.9928
L46.5988 -62.1134
L46.4393 -62.249
L45.9748 -62.5193
L45.5074 -62.6974
L45.037 -62.8674
L44.5639 -63.0293
L44.0882 -63.1829
L43.61 -63.3282
L43.1296 -63.4652
L42.6469 -63.5938
L42.1622 -63.7141
L41.6756 -63.8258
L41.1873 -63.9291
L40.6975 -64.0239
L40.2062 -64.1102
L39.7136 -64.1879
L39.2198 -64.257
L38.7251 -64.3175
L38.2296 -64.3694
L37.7334 -64.4127
L37.2367 -64.4472
L36.7396 -64.4732
L36.2422 -64.4904
L35.7448 -64.499
L35.2475 -64.4989
L34.7504 -64.4901
L34.2536 -64.4726
L33.7574 -64.4464
L33.2619 -64.4116
L32.7673 -64.3682
L32.2736 -64.3161
L31.781 -64.2553
L31.2897 -64.186
L30.7999 -64.1081
L30.3117 -64.0216
L29.8251 -63.9266
L29.3405 -63.823
L28.8579 -63.711
L28.3775 -63.5906
L27.8993 -63.4617
L27.4237 -63.3245
L26.9507 -63.179
L26.4804 -63.0252
L26.013 -62.8631
L25.5487 -62.6929
L25.0875 -62.5145
L24.6297 -62.3281
L24.1753 -62.1336
L23.7246 -61.9312
L23.2776 -61.7209
L22.8344 -61.5027
L22.3953 -61.2768
L21.9603 -61.0432
L21.5296 -60.8019
L21.1033 -60.5531
L20.6815 -60.2969
L20.2644 -60.0332
L19.8521 -59.7622
L19.4447 -59.4839
L19.0423 -59.1985
L18.6452 -58.9061
L18.2533 -58.6066
L17.8668 -58.3003
L17.4858 -57.9872
L17.1105 -57.6674
L16.7409 -57.3409
L16.3772 -57.008
L16.0195 -56.6687
L15.6678 -56.3231
L15.3224 -55.9713
L14.9832 -55.6134
L14.6505 -55.2495
L14.3242 -54.8798
L14.0046 -54.5043
L13.6916 -54.1232
L13.3855 -53.7366
L13.0862 -53.3446
L12.7939 -52.9472
L12.5087 -52.5448
L12.2307 -52.1372
L11.9599 -51.7248
L11.6964 -51.3076
L11.4403 -50.8857
L11.1917 -50.4593
L10.9506 -50.0284
L10.7172 -49.5933
L10.4915 -49.1541
L10.2735 -48.7108
L10.0634 -48.2637
L9.8612 -47.8129
L9.66695 -47.3584
L9.48072 -46.9005
L9.30257 -46.4393
L9.13255 -45.9748
L8.97072 -45.5074
L8.81712 -45.037
L8.6718 -44.5639
L8.5348 -44.0882
L8.40617 -43.61
L8.28594 -43.1296
L8.17416 -42.6469
L8.07085 -42.1622
L7.97605 -41.6756
L7.88979 -41.1873
L7.81209 -40.6975
L7.74298 -40.2062
L7.68247 -39.7136
L7.63059 -39.2198
L7.58735 -38.7251
L7.55276 -38.2296
L7.52684 -37.7334
L7.5096 -37.2367
L7.50103 -36.7396
L7.50114 -36.2422
L7.50994 -35.7448
L7.52741 -35.2475
L7.55355 -34.7504
L7.58837 -34.2536
L7.63183 -33.7574
L7.68394 -33.2619
L7.74467 -32.7673
L7.81401 -32.2736
L7.89193 -31.781
L7.97842 -31.2897
L8.07344 -30.7999
L8.17697 -30.3117
L8.28897 -29.8251
L8.40942 -29.3405
L8.53827 -28.8579
L8.67548 -28.3775
L8.82102 -27.8993
L8.97483 -27.4237
L9.13688 -26.9507
L9.30711 -26.4804
L9.48548 -26.013
L9.67192 -25.5487
L9.86637 -25.0875
L10.0688 -24.6297
L10.2791 -24.1753
L10.4973 -23.7246
L10.7232 -23.2776
L10.9568 -22.8344
L11.1981 -22.3953
L11.4469 -21.9603
L11.7031 -21.5296
L11.9668 -21.1033
L12.2378 -20.6815
L12.5161 -20.2644
L12.8015 -19.8521
L13.0939 -19.4447
L13.3934 -19.0423
L13.6997 -18.6452
L14.0128 -18.2533
L14.3326 -17.8668
z
" id="C0_2_d6ff89c78d"/>
    </defs>
    <g clip-path="url(#p1bffca34e9)">
     <use style="fill:#ff0000;stroke:#000000;stroke-width:2.0;" x="0.0" xlink:href="#C0_0_a811fe30f3" y="72.0"/>
    </g>
    <g clip-path="url(#p1bffca34e9)">
     <use style="fill:#ffffff;stroke:#000000;stroke-width:2.0;" x="0.0" xlink:href="#C0_1_a25adfc83e" y="72.0"/>
    </g>
    <g clip-path="url(#p1bffca34e9)">
     <use style="fill:#ffffff;stroke:#000000;stroke-width:2.0;" x="0.0" xlink:href="#C0_2_d6ff89c78d" y="72.0"/>
    </g>
   </g>
  </g>
 </g>
 <defs>
  <clipPath id="p1bffca34e9">
   <rect height="72.0" width="72.0" x="0.0" y="0.0"/>
  </clipPath>
 </defs>
</svg>
