<?xml version="1.0" encoding="utf-8" standalone="no"?>
<!DOCTYPE svg PUBLIC "-//W3C//DTD SVG 1.1//EN"
  "http://www.w3.org/Graphics/SVG/1.1/DTD/svg11.dtd">
<!-- Created with matplotlib (http://matplotlib.org/) -->
<svg height="72pt" version="1.1" viewBox="0 0 72 72" width="72pt" xmlns="http://www.w3.org/2000/svg" xmlns:xlink="http://www.w3.org/1999/xlink">
 <defs>
  <style type="text/css">
*{stroke-linecap:butt;stroke-linejoin:round;}
  </style>
 </defs>
 <g id="figure_1">
  <g id="patch_1">
   <path d="
M0 72
L72 72
L72 0
L0 0
z
" style="fill:none;"/>
  </g>
  <g id="axes_1">
   <g id="PatchCollection_1">
    <defs>
     <path d="
M36 -7.5
C43.5583 -7.5 50.808 -10.5029 56.1525 -15.8475
C61.4971 -21.192 64.5 -28.4417 64.5 -36
C64.5 -43.5583 61.4971 -50.808 56.1525 -56.1525
C50.808 -61.4971 43.5583 -64.5 36 -64.5
C28.4417 -64.5 21.192 -61.4971 15.8475 -56.1525
C10.5029 -50.808 7.5 -43.5583 7.5 -36
C7.5 -28.4417 10.5029 -21.192 15.8475 -15.8475
C21.192 -10.5029 28.4417 -7.5 36 -7.5
z
" id="C0_0_a811fe30f3"/>
     <path d="
M22.271 -11.1329
L22.6959 -11.0557
L23.1129 -11.0104
L23.5215 -10.9953
L23.9214 -11.0085
L24.3123 -11.0478
L24.6944 -11.111
L25.0679 -11.1958
L25.4331 -11.3001
L25.7903 -11.4218
L26.1397 -11.5593
L26.4817 -11.7107
L26.8165 -11.8747
L27.1445 -12.0499
L27.4659 -12.2351
L27.7809 -12.4292
L28.0896 -12.6313
L28.3924 -12.8406
L28.6893 -13.0562
L28.9806 -13.2775
L29.2662 -13.5039
L29.5465 -13.7347
L29.8215 -13.9695
L30.0913 -14.2078
L30.356 -14.4491
L30.6158 -14.6931
L30.8707 -14.9394
L31.1209 -15.1877
L31.3665 -15.4377
L31.6075 -15.689
L31.844 -15.9415
L32.0761 -16.1949
L32.304 -16.449
L32.5278 -16.7037
L32.7474 -16.9586
L32.963 -17.2138
L33.1748 -17.4689
L33.3827 -17.724
L33.5869 -17.9789
L33.7875 -18.2334
L33.9845 -18.4876
L34.1781 -18.7412
L34.3683 -18.9943
L34.5551 -19.2467
L34.7388 -19.4984
L34.9194 -19.7495
L35.0969 -19.9997
L35.2715 -20.2491
L35.4431 -20.4977
L35.612 -20.7454
L35.7781 -20.9922
L35.9416 -21.2381
L36.1025 -21.4832
L36.2609 -21.7273
L36.4168 -21.9706
L36.5704 -22.213
L36.7216 -22.4544
L36.8706 -22.6951
L37.0175 -22.9348
L37.1622 -23.1738
L37.3049 -23.4119
L37.4456 -23.6493
L37.5844 -23.8859
L37.7213 -24.1218
L37.8564 -24.3569
L37.9898 -24.5914
L38.1214 -24.8253
L38.2514 -25.0586
L38.3798 -25.2913
L38.5066 -25.5235
L38.6319 -25.7552
L38.7558 -25.9864
L38.8782 -26.2173
L38.9993 -26.4478
L39.119 -26.6779
L39.2375 -26.9078
L39.3548 -27.1375
L39.4708 -27.367
L39.5856 -27.5964
L39.6994 -27.8257
L39.812 -28.0549
L39.9236 -28.2842
L40.0342 -28.5135
L40.1438 -28.7429
L40.2524 -28.9725
L40.3601 -29.2023
L40.4669 -29.4323
L40.5729 -29.6627
L40.7823 -29.8935
L40.8858 -30.1246
L40.9886 -30.3563
L41.0906 -30.5885
L41.1919 -30.8213
L41.2926 -31.0547
L41.3926 -31.2888
L41.4919 -31.5237
L41.5906 -31.7594
L41.6887 -31.996
L41.7862 -32.2335
L41.8831 -32.4721
L41.9795 -32.7116
L42.0753 -32.9523
L42.1706 -33.1942
L42.2654 -33.4373
L42.3596 -33.6817
L42.4534 -33.9275
L42.5467 -34.1747
L42.6395 -34.4234
L42.7318 -34.6736
L42.8237 -34.9255
L42.915 -35.179
L43.006 -35.4344
L43.0964 -35.6915
L43.1864 -35.9505
L43.2759 -36.2115
L43.365 -36.4744
L43.4535 -36.7395
L43.5416 -37.0067
L43.6292 -37.2762
L43.7162 -37.5479
L43.8028 -37.822
L43.8887 -38.0985
L43.9742 -38.3775
L44.059 -38.659
L44.1432 -38.9432
L44.2268 -39.23
L44.3097 -39.5196
L44.3919 -39.812
L44.4733 -40.1072
L44.554 -40.4054
L44.6338 -40.7065
L44.7127 -41.0107
L44.7907 -41.3179
L44.8677 -41.6283
L44.9437 -41.9418
L45.0185 -42.2586
L45.0921 -42.5786
L45.1644 -42.9019
L45.2353 -43.2285
L45.3048 -43.5584
L45.3727 -43.8916
L45.4389 -44.2282
L45.5033 -44.5681
L45.5658 -44.9114
L45.6263 -45.258
L45.6845 -45.6079
L45.7404 -45.9611
L45.7938 -46.3174
L45.8445 -46.677
L45.8922 -47.0396
L45.9369 -47.4051
L45.9783 -47.7736
L46.016 -48.1448
L46.05 -48.5187
L46.0798 -48.895
L46.1052 -49.2736
L46.1259 -49.6543
L46.1414 -50.0369
L46.1514 -50.4211
L46.1554 -50.8065
L46.153 -51.193
L46.1435 -51.5801
L46.1265 -51.9675
L46.1011 -52.3546
L46.0666 -52.741
L46.0223 -53.1262
L45.9671 -53.5094
L45.8999 -53.8901
L45.8196 -54.2673
L45.7248 -54.6402
L45.6141 -55.0079
L45.4857 -55.3691
L45.3381 -55.7227
L45.1695 -56.0673
L44.9781 -56.4015
L44.7624 -56.7237
L44.521 -57.0325
L44.253 -57.3262
L43.958 -57.6035
L43.636 -57.8631
L43.288 -58.1041
L42.9153 -58.3259
L42.5197 -58.5279
L42.1034 -58.7103
L41.6687 -58.8731
L41.2181 -59.0168
L40.7541 -59.1418
L40.2788 -59.2488
L39.7944 -59.3385
L39.3029 -59.4116
L38.8059 -59.4687
L38.3052 -59.5105
L37.802 -59.5377
L37.2977 -59.5509
L36.7933 -59.5508
L36.2898 -59.5378
L35.7881 -59.5126
L35.2889 -59.4756
L34.793 -59.4275
L34.3008 -59.3687
L33.8129 -59.2998
L33.3298 -59.2211
L32.8519 -59.1331
L32.3795 -59.0363
L31.9128 -58.9311
L31.4522 -58.8179
L30.9979 -58.6972
L30.5499 -58.5692
L30.1086 -58.4344
L29.6739 -58.293
L29.2459 -58.1456
L28.8249 -57.9923
L28.4106 -57.8336
L28.0033 -57.6696
L27.6029 -57.5008
L27.2093 -57.3273
L26.8226 -57.1494
L26.4428 -56.9675
L26.0697 -56.7816
L25.7033 -56.5921
L25.3435 -56.3991
L24.9904 -56.2029
L24.6437 -56.0036
L24.3034 -55.8015
L23.9695 -55.5966
L23.6417 -55.3892
L23.32 -55.1794
L23.0044 -54.9673
L22.6946 -54.753
L22.3907 -54.5368
L22.0924 -54.3186
L21.7997 -54.0986
L21.5125 -53.8768
L21.2306 -53.6534
L20.954 -53.4285
L20.6825 -53.2021
L20.4161 -52.9742
L20.1546 -52.745
L19.8979 -52.5145
L19.646 -52.2826
L19.3986 -52.0496
L19.1559 -51.8154
L18.9175 -51.58
L18.6835 -51.3434
L18.4537 -51.1058
L18.2281 -50.867
L18.0065 -50.6272
L17.789 -50.3863
L17.5753 -50.1443
L17.3655 -49.9012
L17.1594 -49.657
L16.957 -49.4118
L16.7582 -49.1655
L16.5629 -48.918
L16.3711 -48.6695
L16.1827 -48.4198
L15.9977 -48.1689
L15.8159 -47.9169
L15.6374 -47.6636
L15.462 -47.4091
L15.2898 -47.1533
L15.1207 -46.8963
L14.9546 -46.6379
L14.7916 -46.3781
L14.6315 -46.1169
L14.4743 -45.8542
L14.3201 -45.5901
L14.1687 -45.3244
L14.0202 -45.0571
L13.8745 -44.7882
L13.7316 -44.5175
L13.5915 -44.2452
L13.4542 -43.971
L13.3196 -43.695
L13.1879 -43.417
L13.0589 -43.1371
L12.9327 -42.8552
L12.8092 -42.5712
L12.6885 -42.285
L12.5707 -41.9966
L12.4556 -41.7059
L12.3434 -41.4128
L12.234 -41.1173
L12.1275 -40.8193
L12.0239 -40.5188
L11.9233 -40.2156
L11.8256 -39.9097
L11.7311 -39.601
L11.6395 -39.2894
L11.5512 -38.9749
L11.466 -38.6574
L11.3842 -38.3367
L11.3056 -38.0129
L11.2305 -37.6859
L11.1589 -37.3555
L11.0909 -37.0217
L11.0265 -36.6844
L10.966 -36.3435
L10.9093 -35.999
L10.8567 -35.6508
L10.8082 -35.2987
L10.7639 -34.9428
L10.7241 -34.5829
L10.6888 -34.219
L10.6582 -33.851
L10.6324 -33.4789
L10.6117 -33.1026
L10.5961 -32.7219
L10.586 -32.337
L10.5814 -31.9476
L10.5826 -31.5539
L10.5898 -31.1556
L10.6032 -30.7529
L10.623 -30.3457
L10.6496 -29.9339
L10.683 -29.5176
L10.7237 -29.0968
L10.7717 -28.6714
L10.8276 -28.2416
L10.8914 -27.8073
L10.9635 -27.3687
L11.0442 -26.9257
L11.1338 -26.4786
L11.2326 -26.0273
L11.3409 -25.5721
L11.459 -25.113
L11.5873 -24.6504
L11.726 -24.1843
L11.8756 -23.715
L12.0362 -23.2428
L12.2083 -22.768
L12.3921 -22.2909
L12.5879 -21.8119
L12.7959 -21.3314
L13.0166 -20.8499
L13.2501 -20.3678
L13.4966 -19.8857
L13.7563 -19.4043
L14.0293 -18.9241
L14.3159 -18.446
L14.616 -17.9707
L14.9297 -17.4991
L15.2568 -17.0321
L15.5973 -16.5708
L15.9398 -16.1163
L16.2962 -15.7555
L16.6585 -15.4085
L17.0268 -15.0678
L17.4008 -14.7334
L17.7805 -14.4055
L18.1658 -14.0842
L18.5565 -13.7696
L18.9525 -13.4617
L19.3537 -13.1607
L19.76 -12.8667
L20.1712 -12.5797
L20.5872 -12.2998
L21.0079 -12.0272
L21.4332 -11.7618
z
" id="C0_1_5cd8d6863f"/>
     <path d="
M55.9744 -56.2545
L55.5274 -56.6034
L55.0784 -56.9458
L54.6286 -57.2818
L54.1795 -57.6116
L53.7328 -57.9357
L53.2903 -58.2547
L52.8538 -58.5691
L52.4255 -58.8797
L52.0075 -59.1876
L51.6019 -59.4936
L51.2108 -59.7989
L50.836 -60.1046
L50.4788 -60.4116
L50.5801 -60.7207
L51.0053 -60.4881
L51.4259 -60.23
L51.8418 -59.9644
L52.2528 -59.6915
L52.6589 -59.4114
L53.06 -59.1242
L53.4558 -58.83
L53.8463 -58.5287
L54.2314 -58.2207
L54.611 -57.9058
L54.9848 -57.5843
L55.3529 -57.2562
z
" id="C0_2_e62cc1207b"/>
    </defs>
    <g clip-path="url(#p1bffca34e9)">
     <use style="fill:#ffffff;stroke:#000000;stroke-width:2.0;" x="0.0" xlink:href="#C0_0_a811fe30f3" y="72.0"/>
    </g>
    <g clip-path="url(#p1bffca34e9)">
     <use style="fill:#ff0000;stroke:#000000;stroke-width:2.0;" x="0.0" xlink:href="#C0_1_5cd8d6863f" y="72.0"/>
    </g>
    <g clip-path="url(#p1bffca34e9)">
     <use style="fill:#ff0000;stroke:#000000;stroke-width:2.0;" x="0.0" xlink:href="#C0_2_e62cc1207b" y="72.0"/>
    </g>
   </g>
  </g>
 </g>
 <defs>
  <clipPath id="p1bffca34e9">
   <rect height="72.0" width="72.0" x="0.0" y="0.0"/>
  </clipPath>
 </defs>
</svg>
