<?xml version="1.0" encoding="utf-8" standalone="no"?>
<!DOCTYPE svg PUBLIC "-//W3C//DTD SVG 1.1//EN"
  "http://www.w3.org/Graphics/SVG/1.1/DTD/svg11.dtd">
<!-- Created with matplotlib (http://matplotlib.org/) -->
<svg height="72pt" version="1.1" viewBox="0 0 72 72" width="72pt" xmlns="http://www.w3.org/2000/svg" xmlns:xlink="http://www.w3.org/1999/xlink">
 <defs>
  <style type="text/css">
*{stroke-linecap:butt;stroke-linejoin:round;}
  </style>
 </defs>
 <g id="figure_1">
  <g id="patch_1">
   <path d="
M0 72
L72 72
L72 0
L0 0
z
" style="fill:none;"/>
  </g>
  <g id="axes_1">
   <g id="PatchCollection_1">
    <defs>
     <path d="
M36 -7.5
C43.5583 -7.5 50.808 -10.5029 56.1525 -15.8475
C61.4971 -21.192 64.5 -28.4417 64.5 -36
C64.5 -43.5583 61.4971 -50.808 56.1525 -56.1525
C50.808 -61.4971 43.5583 -64.5 36 -64.5
C28.4417 -64.5 21.192 -61.4971 15.8475 -56.1525
C10.5029 -50.808 7.5 -43.5583 7.5 -36
C7.5 -28.4417 10.5029 -21.192 15.8475 -15.8475
C21.192 -10.5029 28.4417 -7.5 36 -7.5
z
" id="C0_0_a811fe30f3"/>
     <path d="
M38.1801 -7.7939
L37.9923 -8.00468
L37.828 -8.22339
L37.6869 -8.44959
L37.5686 -8.68281
L37.4725 -8.92263
L37.3977 -9.16862
L37.3432 -9.42039
L37.308 -9.67755
L37.291 -9.93974
L37.2907 -10.2066
L37.3061 -10.4778
L37.3359 -10.753
L37.3786 -11.0319
L37.4332 -11.3143
L37.4985 -11.5998
L37.5733 -11.8882
L37.6566 -12.1792
L37.7473 -12.4726
L37.8446 -12.7681
L37.9476 -13.0655
L38.0555 -13.3646
L38.1677 -13.6651
L38.2833 -13.9669
L38.4019 -14.2697
L38.523 -14.5734
L38.646 -14.8777
L38.7704 -15.1826
L38.896 -15.4878
L39.0224 -15.7931
L39.1492 -16.0985
L39.2761 -16.4038
L39.403 -16.7089
L39.5296 -17.0136
L39.6557 -17.3178
L39.7812 -17.6215
L39.9058 -17.9244
L40.0295 -18.2266
L40.1521 -18.528
L40.2736 -18.8284
L40.3939 -19.1278
L40.5129 -19.4262
L40.6305 -19.7234
L40.7467 -20.0196
L40.8614 -20.3145
L40.9747 -20.6081
L41.0865 -20.9006
L41.1967 -21.1917
L41.3054 -21.4815
L41.4125 -21.77
L41.5181 -22.0572
L41.6222 -22.343
L41.7247 -22.6275
L41.8256 -22.9107
L41.9251 -23.1925
L42.023 -23.473
L42.1194 -23.7522
L42.2144 -24.0301
L42.3079 -24.3068
L42.3999 -24.5822
L42.4905 -24.8563
L42.5797 -25.1293
L42.6675 -25.401
L42.754 -25.6717
L42.8391 -25.9412
L42.9229 -26.2096
L43.0055 -26.477
L43.0867 -26.7434
L43.1668 -27.0088
L43.2456 -27.2733
L43.3232 -27.5369
L43.3996 -27.7996
L43.4749 -28.0616
L43.549 -28.3227
L43.6221 -28.5831
L43.6941 -28.8429
L43.765 -29.102
L43.8348 -29.3605
L43.9037 -29.6185
L43.9716 -29.876
L44.0384 -30.1331
L44.1043 -30.3897
L44.1693 -30.646
L44.2334 -30.902
L44.2965 -31.1577
L44.3587 -31.4133
L44.4201 -31.6686
L44.4806 -31.9239
L44.5403 -32.1791
L44.5992 -32.4344
L44.6572 -32.6896
L44.7709 -32.945
L44.8265 -33.2005
L44.8814 -33.4562
L44.9355 -33.7122
L44.9889 -33.9685
L45.0416 -34.2252
L45.0935 -34.4822
L45.1447 -34.7397
L45.1952 -34.9978
L45.245 -35.2564
L45.2941 -35.5156
L45.3425 -35.7755
L45.3902 -36.0361
L45.4372 -36.2975
L45.4835 -36.5597
L45.5292 -36.8229
L45.5742 -37.0869
L45.6185 -37.3519
L45.6621 -37.618
L45.705 -37.8852
L45.7473 -38.1535
L45.7889 -38.423
L45.8298 -38.6937
L45.8701 -38.9657
L45.9096 -39.2391
L45.9485 -39.5139
L45.9866 -39.7901
L46.0241 -40.0677
L46.0609 -40.3469
L46.097 -40.6277
L46.1323 -40.9101
L46.167 -41.1941
L46.2009 -41.4799
L46.234 -41.7674
L46.2665 -42.0566
L46.2982 -42.3477
L46.3291 -42.6406
L46.3592 -42.9354
L46.3886 -43.232
L46.4173 -43.5306
L46.4451 -43.8311
L46.4721 -44.1336
L46.4984 -44.438
L46.5238 -44.7444
L46.5485 -45.0528
L46.5724 -45.3632
L46.5954 -45.6755
L46.6177 -45.9898
L46.6392 -46.306
L46.6599 -46.6242
L46.6799 -46.9442
L46.6991 -47.266
L46.7176 -47.5896
L46.7354 -47.915
L46.7526 -48.242
L46.7692 -48.5705
L46.7853 -48.9005
L46.8009 -49.2319
L46.8161 -49.5646
L46.831 -49.8983
L46.8458 -50.2331
L46.8604 -50.5686
L46.8751 -50.9048
L46.8901 -51.2414
L46.9055 -51.5781
L46.9216 -51.9149
L46.9385 -52.2514
L46.9566 -52.5872
L46.9762 -52.9222
L46.9976 -53.256
L47.0212 -53.5881
L47.0474 -53.9183
L47.0768 -54.2461
L47.1099 -54.571
L47.1472 -54.8925
L47.1894 -55.2101
L47.2372 -55.5233
L47.2914 -55.8315
L47.3527 -56.134
L47.4221 -56.4301
L47.5004 -56.7192
L47.5886 -57.0005
L47.6877 -57.2732
L47.7985 -57.5366
L47.9221 -57.7898
L48.0594 -58.0321
L48.2113 -58.2626
L48.3784 -58.4805
L48.5615 -58.6851
L48.761 -58.8757
L48.9774 -59.0515
L49.2109 -59.2119
L49.4614 -59.3565
L49.7288 -59.4846
L50.0128 -59.5959
L50.3128 -59.6902
L50.6283 -59.7671
L50.9584 -59.8265
L51.3022 -59.8684
L51.7873 -59.8927
L52.199 -59.7278
L52.6058 -59.4487
L53.0075 -59.1624
L53.404 -58.8691
L53.7953 -58.5688
L54.1811 -58.2616
L54.5613 -57.9476
L54.936 -57.627
L55.3048 -57.2998
L55.6678 -56.966
L56.0247 -56.6259
L56.3756 -56.2795
L56.7203 -55.927
L57.0587 -55.5683
L57.3906 -55.2037
L57.716 -54.8333
L58.0348 -54.4571
L58.3469 -54.0753
L58.6522 -53.688
L58.9506 -53.2953
L59.242 -52.8973
L59.5264 -52.4942
L59.8035 -52.086
L60.0734 -51.673
L60.336 -51.2552
L60.5912 -50.8327
L60.8388 -50.4057
L61.0789 -49.9744
L61.3114 -49.5387
L61.5361 -49.099
L61.7531 -48.6553
L61.9622 -48.2077
L62.1635 -47.7563
L62.3567 -47.3015
L62.5419 -46.8431
L62.7191 -46.3815
L62.8881 -45.9167
L63.0489 -45.4489
L63.2015 -44.9781
L63.3458 -44.5047
L63.4817 -44.0287
L63.6093 -43.5502
L63.7285 -43.0694
L63.8392 -42.5865
L63.9414 -42.1016
L64.0352 -41.6148
L64.1204 -41.1263
L64.197 -40.6362
L64.265 -40.1448
L64.3245 -39.652
L64.3753 -39.1582
L64.4174 -38.6634
L64.4509 -38.1677
L64.4758 -37.6715
L64.4919 -37.1747
L64.4994 -36.6775
L64.4982 -36.1802
L64.4884 -35.6827
L64.4698 -35.1854
L64.4426 -34.6884
L64.4067 -34.1917
L64.3621 -33.6956
L64.309 -33.2002
L64.2471 -32.7056
L64.1767 -32.2121
L64.0977 -31.7196
L64.0102 -31.2285
L63.9141 -30.7389
L63.8095 -30.2509
L63.6965 -29.7646
L63.575 -29.2802
L63.4451 -28.7978
L63.3068 -28.3177
L63.1602 -27.8399
L63.0054 -27.3645
L62.8423 -26.8918
L62.6711 -26.4219
L62.4917 -25.9549
L62.3043 -25.491
L62.1088 -25.0302
L61.9054 -24.5728
L61.6941 -24.1189
L61.475 -23.6686
L61.2481 -23.2221
L61.0135 -22.7794
L60.7713 -22.3408
L60.5216 -21.9063
L60.2644 -21.4761
L59.9998 -21.0504
L59.7278 -20.6292
L59.4487 -20.2127
L59.1624 -19.801
L58.8691 -19.3942
L58.5688 -18.9925
L58.2616 -18.596
L57.9476 -18.2047
L57.627 -17.8189
L57.2998 -17.4387
L56.966 -17.064
L56.6259 -16.6952
L56.2795 -16.3322
L55.927 -15.9753
L55.5683 -15.6244
L55.2037 -15.2797
L54.8333 -14.9413
L54.4571 -14.6094
L54.0753 -14.284
L53.688 -13.9652
L53.2953 -13.6531
L52.8973 -13.3478
L52.4942 -13.0494
L52.086 -12.758
L51.673 -12.4736
L51.2552 -12.1965
L50.8327 -11.9266
L50.4057 -11.664
L49.9744 -11.4088
L49.5387 -11.1612
L49.099 -10.9211
L48.6553 -10.6886
L48.2077 -10.4639
L47.7563 -10.2469
L47.3015 -10.0378
L46.8431 -9.83653
L46.3815 -9.64328
L45.9167 -9.45805
L45.4489 -9.28091
L44.9781 -9.11191
L44.5047 -8.9511
L44.0287 -8.79853
L43.5502 -8.65425
L43.0694 -8.51829
L42.5865 -8.39071
L42.1016 -8.27154
L41.6148 -8.16081
L41.1263 -8.05856
L40.6362 -7.96482
L40.1448 -7.87963
L39.652 -7.803
L39.1582 -7.73496
z
" id="C0_1_c746ff7ec4"/>
     <path d="
M20.4207 -12.222
L20.2719 -12.5571
L20.116 -12.8987
L19.9542 -13.2463
L19.7876 -13.5995
L19.6175 -13.9577
L19.4448 -14.3206
L19.2705 -14.6876
L19.0955 -15.0585
L18.9206 -15.4327
L18.7466 -15.8099
L18.574 -16.1896
L18.4034 -16.5716
L18.2353 -16.9553
L18.0702 -17.3406
L17.9084 -17.727
L17.7503 -18.1142
L17.5962 -18.5021
L17.4462 -18.8902
L17.3006 -19.2783
L17.1595 -19.6661
L17.023 -20.0536
L16.8913 -20.4403
L16.7644 -20.8262
L16.6423 -21.2111
L16.525 -21.5948
L16.4127 -21.9771
L16.3052 -22.3579
L16.2026 -22.737
L16.1047 -23.1145
L16.0117 -23.4901
L15.9233 -23.8638
L15.8396 -24.2355
L15.7604 -24.6051
L15.6858 -24.9725
L15.6156 -25.3378
L15.5498 -25.7009
L15.4883 -26.0617
L15.4309 -26.4202
L15.3777 -26.7764
L15.3284 -27.1303
L15.2832 -27.4819
L15.2418 -27.8312
L15.2042 -28.1781
L15.1702 -28.5227
L15.14 -28.8651
L15.1132 -29.2052
L15.0899 -29.543
L15.07 -29.8786
L15.0535 -30.212
L15.0402 -30.5432
L15.0301 -30.8723
L15.0231 -31.1993
L15.0192 -31.5242
L15.0182 -31.8472
L15.0203 -32.1681
L15.0252 -32.4872
L15.0329 -32.8044
L15.0435 -33.1197
L15.0568 -33.4332
L15.0728 -33.7451
L15.0915 -34.0552
L15.1127 -34.3637
L15.1366 -34.6706
L15.163 -34.9761
L15.192 -35.28
L15.2234 -35.5825
L15.2574 -35.8836
L15.2937 -36.1835
L15.3325 -36.4821
L15.3738 -36.7794
L15.4174 -37.0757
L15.4634 -37.3708
L15.5117 -37.6649
L15.5625 -37.958
L15.6155 -38.2502
L15.671 -38.5415
L15.7288 -38.832
L15.7889 -39.1216
L15.8514 -39.4106
L15.9163 -39.6989
L15.9835 -39.9866
L16.0532 -40.2737
L16.1252 -40.5603
L16.1996 -40.8465
L16.2765 -41.1322
L16.3557 -41.4175
L16.4375 -41.7026
L16.5217 -41.9873
L16.6085 -42.2719
L16.6978 -42.5562
L16.7896 -42.8404
L16.8841 -43.1246
L16.9812 -43.4087
L17.081 -43.6927
L17.1834 -43.9769
L17.2887 -44.2611
L17.3967 -44.5454
L17.5075 -44.8298
L17.6213 -45.1145
L17.7379 -45.3994
L17.8576 -45.6845
L17.9802 -45.97
L18.106 -46.2557
L18.2349 -46.5418
L18.367 -46.8283
L18.5024 -47.1152
L18.6411 -47.4025
L18.7832 -47.6902
L18.9287 -47.9784
L19.0777 -48.2671
L19.2304 -48.5563
L19.3867 -48.8459
L19.5467 -49.1361
L19.7105 -49.4268
L19.8782 -49.718
L20.0498 -50.0097
L20.2254 -50.3019
L20.4052 -50.5946
L20.589 -50.8878
L20.7771 -51.1814
L20.9696 -51.4755
L21.1664 -51.7699
L21.3676 -52.0648
L21.5733 -52.36
L21.7836 -52.6554
L21.9986 -52.9512
L22.2182 -53.2471
L22.4426 -53.5431
L22.6717 -53.8392
L22.9057 -54.1353
L23.1445 -54.4313
L23.3882 -54.7272
L23.6368 -55.0228
L23.8902 -55.318
L24.1486 -55.6128
L24.4118 -55.907
L24.6798 -56.2006
L24.9526 -56.4933
L25.23 -56.7852
L25.512 -57.076
L25.7985 -57.3657
L26.0893 -57.654
L26.3842 -57.9409
L26.683 -58.2262
L26.9855 -58.5098
L27.2914 -58.7916
L27.6003 -59.0714
L27.912 -59.3491
L28.2259 -59.6245
L28.5416 -59.8976
L28.8586 -60.1682
L29.1763 -60.4364
L29.494 -60.7019
L29.811 -60.9647
L30.1265 -61.2248
L30.4397 -61.4823
L30.7496 -61.737
L31.0551 -61.9891
L31.3553 -62.2385
L31.6489 -62.4855
L31.9348 -62.7301
L32.2116 -62.9725
L32.4782 -63.2128
L32.733 -63.4512
L32.9749 -63.688
L33.2026 -63.9234
L33.4147 -64.1575
L33.1141 -64.3906
L32.6197 -64.3535
L32.1263 -64.2988
L31.6341 -64.2355
L31.1433 -64.1636
L30.6539 -64.0831
L30.1661 -63.9941
L29.6802 -63.8965
L29.1961 -63.7905
L28.7141 -63.6759
L28.2344 -63.553
L27.757 -63.4216
L27.2821 -63.2819
L26.8099 -63.1339
L26.3405 -62.9776
L25.874 -62.8131
L25.4106 -62.6405
L24.9504 -62.4597
L24.4936 -62.2708
L24.0403 -62.074
L23.5906 -61.8692
L23.1448 -61.6565
L22.7028 -61.4361
L22.2649 -61.2078
L21.8312 -60.9719
L21.4017 -60.7284
L20.9768 -60.4774
L20.5564 -60.2189
L20.1407 -59.953
L19.7299 -59.6798
L19.324 -59.3994
L18.9231 -59.1119
L18.5275 -58.8173
L18.1372 -58.5158
L17.7524 -58.2075
L17.3731 -57.8923
L16.9995 -57.5705
L16.6316 -57.2422
L16.2697 -56.9073
L15.9138 -56.5661
L15.564 -56.2186
L15.2204 -55.865
L14.8831 -55.5053
L14.5523 -55.1397
L14.228 -54.7682
L13.9104 -54.3911
L13.5995 -54.0083
L13.2954 -53.62
L12.9982 -53.2264
L12.708 -52.8275
L12.4249 -52.4235
L12.149 -52.0145
L11.8804 -51.6006
L11.6191 -51.182
L11.3652 -50.7588
L11.1189 -50.331
L10.8801 -49.8989
L10.649 -49.4625
L10.4255 -49.0221
L10.2099 -48.5777
L10.0022 -48.1294
L9.80233 -47.6775
L9.61047 -47.222
L9.42665 -46.763
L9.25093 -46.3008
L9.08335 -45.8355
L8.92397 -45.3672
L8.77283 -44.896
L8.63 -44.4221
L8.49549 -43.9456
L8.36937 -43.4667
L8.25166 -42.9856
L8.14241 -42.5023
L8.04164 -42.017
L7.94939 -41.5299
L7.86568 -41.0411
L7.79054 -40.5508
L7.724 -40.0591
L7.66607 -39.5662
L7.61676 -39.0722
L7.57611 -38.5772
L7.54411 -38.0814
L7.52078 -37.5851
L7.50613 -37.0882
L7.50015 -36.591
L7.50286 -36.0936
L7.51425 -35.5962
L7.53431 -35.0989
L7.56305 -34.6019
L7.60044 -34.1053
L7.64649 -33.6093
L7.70118 -33.1141
L7.76448 -32.6197
L7.83639 -32.1263
L7.91687 -31.6341
L8.00591 -31.1433
L8.10348 -30.6539
L8.20954 -30.1661
L8.32407 -29.6802
L8.44703 -29.1961
L8.57838 -28.7141
L8.71809 -28.2344
L8.8661 -27.757
L9.02239 -27.2821
L9.18688 -26.8099
L9.35955 -26.3405
L9.54033 -25.874
L9.72917 -25.4106
L9.92601 -24.9504
L10.1308 -24.4936
L10.3435 -24.0403
L10.5639 -23.5906
L10.7922 -23.1448
L11.0281 -22.7028
L11.2716 -22.2649
L11.5226 -21.8312
L11.7811 -21.4017
L12.047 -20.9768
L12.3202 -20.5564
L12.6006 -20.1407
L12.8881 -19.7299
L13.1827 -19.324
L13.4842 -18.9231
L13.7925 -18.5275
L14.1077 -18.1372
L14.4295 -17.7524
L14.7578 -17.3731
L15.0927 -16.9995
L15.4339 -16.6316
L15.7814 -16.2697
L16.135 -15.9138
L16.4947 -15.564
L16.8603 -15.2204
L17.2318 -14.8831
L17.6089 -14.5523
L17.9917 -14.228
L18.38 -13.9104
L18.7736 -13.5995
L19.1725 -13.2954
L19.5765 -12.9982
z
" id="C0_2_9907ae60a7"/>
    </defs>
    <g clip-path="url(#p1bffca34e9)">
     <use style="fill:#ff0000;stroke:#000000;stroke-width:2.0;" x="0.0" xlink:href="#C0_0_a811fe30f3" y="72.0"/>
    </g>
    <g clip-path="url(#p1bffca34e9)">
     <use style="fill:#ffffff;stroke:#000000;stroke-width:2.0;" x="0.0" xlink:href="#C0_1_c746ff7ec4" y="72.0"/>
    </g>
    <g clip-path="url(#p1bffca34e9)">
     <use style="fill:#ffffff;stroke:#000000;stroke-width:2.0;" x="0.0" xlink:href="#C0_2_9907ae60a7" y="72.0"/>
    </g>
   </g>
  </g>
 </g>
 <defs>
  <clipPath id="p1bffca34e9">
   <rect height="72.0" width="72.0" x="0.0" y="0.0"/>
  </clipPath>
 </defs>
</svg>
