<?xml version="1.0" encoding="utf-8" standalone="no"?>
<!DOCTYPE svg PUBLIC "-//W3C//DTD SVG 1.1//EN"
  "http://www.w3.org/Graphics/SVG/1.1/DTD/svg11.dtd">
<!-- Created with matplotlib (http://matplotlib.org/) -->
<svg height="72pt" version="1.1" viewBox="0 0 72 72" width="72pt" xmlns="http://www.w3.org/2000/svg" xmlns:xlink="http://www.w3.org/1999/xlink">
 <defs>
  <style type="text/css">
*{stroke-linecap:butt;stroke-linejoin:round;}
  </style>
 </defs>
 <g id="figure_1">
  <g id="patch_1">
   <path d="
M0 72
L72 72
L72 0
L0 0
z
" style="fill:none;"/>
  </g>
  <g id="axes_1">
   <g id="PatchCollection_1">
    <defs>
     <path d="
M36 -7.5
C43.5583 -7.5 50.808 -10.5029 56.1525 -15.8475
C61.4971 -21.192 64.5 -28.4417 64.5 -36
C64.5 -43.5583 61.4971 -50.808 56.1525 -56.1525
C50.808 -61.4971 43.5583 -64.5 36 -64.5
C28.4417 -64.5 21.192 -61.4971 15.8475 -56.1525
C10.5029 -50.808 7.5 -43.5583 7.5 -36
C7.5 -28.4417 10.5029 -21.192 15.8475 -15.8475
C21.192 -10.5029 28.4417 -7.5 36 -7.5
z
" id="C0_0_a811fe30f3"/>
     <path d="
M7.63698 -33.6998
L7.82537 -33.7764
L8.01434 -33.8534
L8.20389 -33.931
L8.39404 -34.0089
L8.58478 -34.0873
L8.77614 -34.1662
L8.96812 -34.2453
L9.16074 -34.3249
L9.354 -34.4048
L9.54792 -34.485
L9.74252 -34.5656
L9.9378 -34.6465
L10.1338 -34.7276
L10.3305 -34.8091
L10.528 -34.8909
L10.7262 -34.9729
L10.9252 -35.0552
L11.125 -35.1378
L11.3256 -35.2207
L11.5271 -35.3038
L11.7294 -35.3873
L11.9326 -35.471
L12.1368 -35.555
L12.5478 -35.6392
L12.7548 -35.7238
L12.9629 -35.8087
L13.1719 -35.8939
L13.382 -35.9794
L13.5932 -36.0652
L13.8055 -36.1513
L14.019 -36.2378
L14.2336 -36.3246
L14.4495 -36.4118
L14.6665 -36.4994
L14.8848 -36.5873
L15.1044 -36.6756
L15.3254 -36.7643
L15.5476 -36.8535
L15.7712 -36.9431
L15.9963 -37.0331
L16.2227 -37.1236
L16.4506 -37.2146
L16.68 -37.306
L16.9109 -37.398
L17.1434 -37.4905
L17.3774 -37.5835
L17.6129 -37.6771
L17.8502 -37.7712
L18.089 -37.866
L18.3295 -37.9614
L18.5717 -38.0574
L18.8156 -38.1541
L19.0612 -38.2514
L19.3086 -38.3495
L19.5577 -38.4482
L19.8086 -38.5478
L20.0613 -38.6481
L20.3158 -38.7491
L20.5721 -38.851
L20.8302 -38.9538
L21.0901 -39.0574
L21.3519 -39.1619
L21.6155 -39.2674
L21.8809 -39.3738
L22.1481 -39.4812
L22.417 -39.5896
L22.6878 -39.6991
L22.9603 -39.8096
L23.2346 -39.9213
L23.5105 -40.0342
L23.7882 -40.1482
L24.0674 -40.2635
L24.3483 -40.3801
L24.6306 -40.498
L24.9144 -40.6173
L25.1997 -40.738
L25.4863 -40.8602
L25.7741 -40.9839
L26.0631 -41.1092
L26.3531 -41.2362
L26.6442 -41.3648
L26.9361 -41.4952
L27.2287 -41.6274
L27.522 -41.7614
L27.8157 -41.8975
L28.1098 -42.0356
L28.404 -42.1757
L28.6983 -42.3181
L28.9924 -42.4627
L29.2861 -42.6097
L29.5793 -42.7591
L29.8718 -42.9111
L30.1633 -43.0657
L30.4537 -43.2229
L30.7426 -43.383
L31.03 -43.546
L31.3154 -43.712
L31.5988 -43.8811
L31.8798 -44.0533
L32.1583 -44.2289
L32.4338 -44.4078
L32.7063 -44.5902
L32.9754 -44.7762
L33.2408 -44.9658
L33.5025 -45.1591
L33.76 -45.3562
L34.0131 -45.5571
L34.2617 -45.7619
L34.5056 -45.9706
L34.7444 -46.1832
L34.978 -46.3998
L35.2063 -46.6203
L35.4291 -46.8448
L35.6462 -47.0731
L35.8575 -47.3053
L36.0629 -47.5413
L36.2623 -47.781
L36.4557 -48.0243
L36.6429 -48.2711
L36.8239 -48.5212
L36.9987 -48.7746
L37.1674 -49.031
L37.3298 -49.2903
L37.4861 -49.5524
L37.6362 -49.817
L37.7803 -50.084
L37.9183 -50.3531
L38.0504 -50.6242
L38.1767 -50.897
L38.2971 -51.1714
L38.4119 -51.4471
L38.5211 -51.724
L38.6248 -52.0017
L38.7231 -52.2802
L38.8161 -52.5592
L38.904 -52.8386
L38.9869 -53.118
L39.0648 -53.3975
L39.1379 -53.6767
L39.2063 -53.9556
L39.2701 -54.2339
L39.3295 -54.5115
L39.3844 -54.7883
L39.4351 -55.0641
L39.4816 -55.3388
L39.5241 -55.6123
L39.5625 -55.8845
L39.5971 -56.1552
L39.628 -56.4244
L39.6551 -56.692
L39.6786 -56.9579
L39.6986 -57.222
L39.7151 -57.4842
L39.7283 -57.7446
L39.7381 -58.0029
L39.7448 -58.2593
L39.7483 -58.5136
L39.7486 -58.7658
L39.746 -59.0159
L39.7403 -59.2639
L39.7317 -59.5096
L39.7202 -59.7532
L39.7059 -59.9945
L39.6888 -60.2336
L39.669 -60.4705
L39.6464 -60.7052
L39.6212 -60.9376
L39.5933 -61.1677
L39.5628 -61.3956
L39.5297 -61.6213
L39.4941 -61.8448
L39.4559 -62.066
L39.4152 -62.285
L39.3719 -62.5019
L39.3262 -62.7165
L39.2779 -62.929
L39.2272 -63.1393
L39.174 -63.3475
L39.1183 -63.5535
L39.0601 -63.7575
L38.9994 -63.9593
L38.5236 -64.1591
L38.0278 -64.3881
L37.5313 -64.4278
L37.0344 -64.4588
L36.5372 -64.4812
L36.0398 -64.4949
L35.5424 -64.5
L35.0451 -64.4963
L34.5482 -64.484
L34.0516 -64.463
L33.5557 -64.4333
L33.0605 -64.395
L32.5662 -64.348
L32.073 -64.2924
L31.5809 -64.2282
L31.0902 -64.1553
L30.601 -64.0739
L30.1135 -63.9839
L29.6277 -63.8855
L29.1439 -63.7785
L28.6621 -63.663
L28.1826 -63.5392
L27.7055 -63.4069
L27.2309 -63.2663
L26.7589 -63.1174
L26.2898 -62.9602
L25.8237 -62.7948
L25.3606 -62.6213
L24.9008 -62.4396
L24.4444 -62.2499
L23.9915 -62.0522
L23.5422 -61.8466
L23.0967 -61.6331
L22.6552 -61.4117
L22.2178 -61.1827
L21.7845 -60.9459
L21.3555 -60.7016
L20.9311 -60.4497
L20.5112 -60.1904
L20.096 -59.9238
L19.6857 -59.6498
L19.2803 -59.3686
L18.8801 -59.0804
L18.485 -58.785
L18.0953 -58.4828
L17.7111 -58.1737
L17.3324 -57.8578
L16.9594 -57.5353
L16.5922 -57.2062
L16.2309 -56.8707
L15.8756 -56.5288
L15.5265 -56.1807
L15.1836 -55.8264
L14.847 -55.466
L14.5169 -55.0998
L14.1933 -54.7277
L13.8764 -54.3499
L13.5662 -53.9665
L13.2629 -53.5777
L12.9664 -53.1835
L12.677 -52.7841
L12.3947 -52.3795
L12.1196 -51.97
L11.8517 -51.5556
L11.5913 -51.1364
L11.3382 -50.7127
L11.0927 -50.2845
L10.8547 -49.8519
L10.6244 -49.4151
L10.4018 -48.9742
L10.1871 -48.5293
L9.98017 -48.0807
L9.78119 -47.6283
L9.5902 -47.1725
L9.40725 -46.7132
L9.2324 -46.2506
L9.0657 -45.785
L8.90721 -45.3163
L8.75698 -44.8448
L8.61504 -44.3706
L8.48144 -43.8939
L8.35623 -43.4148
L8.23943 -42.9334
L8.1311 -42.4499
L8.03125 -41.9644
L7.93992 -41.4771
L7.85714 -40.9882
L7.78293 -40.4977
L7.71731 -40.0058
L7.66031 -39.5128
L7.61195 -39.0186
L7.57223 -38.5236
L7.54117 -38.0278
L7.51878 -37.5313
L7.50506 -37.0344
L7.50003 -36.5372
L7.50367 -36.0398
L7.516 -35.5424
L7.537 -35.0451
z
" id="C0_1_b3de8cda71"/>
     <path d="
M33.0655 -7.65993
L33.1689 -7.83973
L33.2724 -8.02024
L33.376 -8.20148
L33.4797 -8.38346
L33.5834 -8.56618
L33.6872 -8.74966
L33.7911 -8.93391
L33.8951 -9.11894
L33.999 -9.30477
L34.1031 -9.4914
L34.2072 -9.67887
L34.3113 -9.86717
L34.4155 -10.0563
L34.5198 -10.2464
L34.6241 -10.4373
L34.7285 -10.6292
L34.8329 -10.822
L34.9375 -11.0157
L35.0421 -11.2104
L35.1468 -11.4061
L35.2517 -11.6029
L35.3566 -11.8006
L35.4617 -11.9995
L35.5669 -12.1994
L35.6723 -12.4005
L35.7779 -12.6027
L35.8836 -12.806
L35.9895 -13.0106
L36.0956 -13.2163
L36.2019 -13.4234
L36.3085 -13.6316
L36.4153 -13.8412
L36.5224 -14.0521
L36.6297 -14.2644
L36.7374 -14.478
L36.8454 -14.6931
L36.9537 -14.9096
L37.0623 -15.1275
L37.1713 -15.347
L37.2807 -15.568
L37.3905 -15.7905
L37.5007 -16.0146
L37.6113 -16.2403
L37.7224 -16.4676
L37.834 -16.6966
L37.9461 -16.9272
L38.0586 -17.1596
L38.1718 -17.3936
L38.2855 -17.6295
L38.3997 -17.8671
L38.5146 -18.1064
L38.6301 -18.3476
L38.7462 -18.5906
L38.8631 -18.8355
L38.9806 -19.0822
L39.0988 -19.3307
L39.2178 -19.5812
L39.3375 -19.8335
L39.4581 -20.0877
L39.5795 -20.3437
L39.7017 -20.6017
L39.8248 -20.8616
L39.9489 -21.1233
L40.0739 -21.3869
L40.1998 -21.6523
L40.3268 -21.9196
L40.4548 -22.1886
L40.5839 -22.4595
L40.7141 -22.732
L40.8455 -23.0063
L40.978 -23.2822
L41.1118 -23.5598
L41.2469 -23.8389
L41.3833 -24.1194
L41.5211 -24.4014
L41.6603 -24.6847
L41.801 -24.9693
L41.9431 -25.255
L42.0869 -25.5418
L42.2323 -25.8296
L42.3794 -26.1181
L42.5283 -26.4074
L42.679 -26.6972
L42.8316 -26.9875
L42.9862 -27.278
L43.1428 -27.5686
L43.3015 -27.8592
L43.4624 -28.1495
L43.6256 -28.4394
L43.7912 -28.7286
L43.9592 -29.017
L44.1297 -29.3043
L44.3029 -29.5903
L44.4788 -29.8748
L44.6575 -30.1576
L44.8391 -30.4383
L45.0236 -30.7169
L45.2113 -30.9929
L45.4021 -31.2662
L45.5961 -31.5364
L45.7934 -31.8035
L45.9941 -32.067
L46.1982 -32.3268
L46.4058 -32.5826
L46.6169 -32.8342
L46.8316 -33.0813
L47.0499 -33.3238
L47.2717 -33.5615
L47.4972 -33.7941
L47.7262 -34.0214
L47.9588 -34.2434
L48.1949 -34.4599
L48.4344 -34.6707
L48.6772 -34.8758
L48.9233 -35.0751
L49.1726 -35.2684
L49.4249 -35.4558
L49.6801 -35.6371
L49.938 -35.8125
L50.1985 -35.9818
L50.4615 -36.1451
L50.7266 -36.3025
L50.9939 -36.4539
L51.263 -36.5994
L51.5338 -36.7391
L51.8061 -36.8731
L52.0796 -37.0014
L52.3542 -37.1241
L52.6298 -37.2413
L52.906 -37.3532
L53.1827 -37.4598
L53.4597 -37.5613
L53.7368 -37.6577
L54.0138 -37.7492
L54.2907 -37.8358
L54.5671 -37.9177
L54.843 -37.9951
L55.1182 -38.0679
L55.3925 -38.1364
L55.6658 -38.2006
L55.938 -38.2607
L56.209 -38.3167
L56.4786 -38.3687
L56.7468 -38.4169
L57.0134 -38.4614
L57.2784 -38.5021
L57.5416 -38.5393
L57.803 -38.573
L58.0626 -38.6033
L58.3202 -38.6303
L58.5758 -38.6541
L58.8294 -38.6746
L59.0809 -38.6921
L59.3303 -38.7065
L59.5775 -38.7179
L59.8226 -38.7264
L60.0654 -38.7321
L60.306 -38.735
L60.5443 -38.7351
L60.7804 -38.7325
L61.0143 -38.7273
L61.2458 -38.7194
L61.4751 -38.709
L61.7021 -38.696
L61.9268 -38.6805
L62.1493 -38.6625
L62.3695 -38.6421
L62.5875 -38.6193
L62.8032 -38.594
L63.0167 -38.5664
L63.228 -38.5364
L63.4372 -38.5041
L63.6441 -38.4694
L63.8489 -38.4323
L64.0515 -38.393
L64.4387 -38.3513
L64.467 -37.8677
L64.4866 -37.3711
L64.4975 -36.8741
L64.4997 -36.3768
L64.4933 -35.8794
L64.4782 -35.382
L64.4544 -34.8848
L64.4219 -34.388
L64.3808 -33.8916
L64.331 -33.3959
L64.2726 -32.901
L64.2056 -32.407
L64.13 -31.9141
L64.0458 -31.4225
L63.9531 -30.9323
L63.8519 -30.4436
L63.7422 -29.9566
L63.624 -29.4714
L63.4974 -28.9882
L63.3625 -28.5072
L63.2192 -28.0284
L63.0676 -27.5521
L62.9078 -27.0784
L62.7397 -26.6073
L62.5636 -26.1391
L62.3793 -25.674
L62.187 -25.212
L61.9867 -24.7532
L61.7786 -24.2979
L61.5625 -23.8462
L61.3387 -23.3981
L61.1071 -22.9539
L60.868 -22.5137
L60.6212 -22.0775
L60.3669 -21.6457
L60.1052 -21.2181
L59.8362 -20.7951
L59.5599 -20.3767
L59.2764 -19.9631
L58.9859 -19.5544
L58.6883 -19.1507
L58.3838 -18.7521
L58.0725 -18.3587
L57.7545 -17.9708
L57.4299 -17.5883
L57.0987 -17.2114
L56.7611 -16.8403
L56.4172 -16.475
L56.0671 -16.1156
L55.7108 -15.7623
L55.3485 -15.4152
L54.9804 -15.0743
L54.6065 -14.7398
L54.2269 -14.4118
L53.8417 -14.0904
L53.4511 -13.7756
L53.0552 -13.4676
L52.6541 -13.1665
L52.248 -12.8723
L51.8368 -12.5852
L51.4209 -12.3052
L51.0003 -12.0324
L50.575 -11.7669
L50.1454 -11.5088
L49.7114 -11.2582
L49.2733 -11.0151
L48.8311 -10.7796
L48.385 -10.5518
L47.9352 -10.3317
L47.4817 -10.1195
L47.0247 -9.91512
L46.5643 -9.71871
L46.1008 -9.5303
L45.6341 -9.34996
L45.1645 -9.17774
L44.6922 -9.01369
L44.2172 -8.85785
L43.7396 -8.71029
L43.2597 -8.57103
L42.7777 -8.44014
L42.2935 -8.31763
L41.8074 -8.20356
L41.3196 -8.09796
L40.8301 -8.00086
L40.3392 -7.91228
L39.8469 -7.83226
L39.3535 -7.76082
L38.8591 -7.69799
L38.3637 -7.64377
L37.8677 -7.59819
L37.3711 -7.56126
L36.8741 -7.533
L36.3768 -7.51341
L35.8794 -7.50249
L35.382 -7.50026
L34.8848 -7.5067
L34.388 -7.52183
L33.8916 -7.54563
z
" id="C0_2_bdf377da49"/>
    </defs>
    <g clip-path="url(#p1bffca34e9)">
     <use style="fill:#ffffff;stroke:#000000;stroke-width:2.0;" x="0.0" xlink:href="#C0_0_a811fe30f3" y="72.0"/>
    </g>
    <g clip-path="url(#p1bffca34e9)">
     <use style="fill:#ff0000;stroke:#000000;stroke-width:2.0;" x="0.0" xlink:href="#C0_1_b3de8cda71" y="72.0"/>
    </g>
    <g clip-path="url(#p1bffca34e9)">
     <use style="fill:#ff0000;stroke:#000000;stroke-width:2.0;" x="0.0" xlink:href="#C0_2_bdf377da49" y="72.0"/>
    </g>
   </g>
  </g>
 </g>
 <defs>
  <clipPath id="p1bffca34e9">
   <rect height="72.0" width="72.0" x="0.0" y="0.0"/>
  </clipPath>
 </defs>
</svg>
