<?xml version="1.0" encoding="utf-8" standalone="no"?>
<!DOCTYPE svg PUBLIC "-//W3C//DTD SVG 1.1//EN"
  "http://www.w3.org/Graphics/SVG/1.1/DTD/svg11.dtd">
<!-- Created with matplotlib (http://matplotlib.org/) -->
<svg height="72pt" version="1.1" viewBox="0 0 72 72" width="72pt" xmlns="http://www.w3.org/2000/svg" xmlns:xlink="http://www.w3.org/1999/xlink">
 <defs>
  <style type="text/css">
*{stroke-linecap:butt;stroke-linejoin:round;}
  </style>
 </defs>
 <g id="figure_1">
  <g id="patch_1">
   <path d="
M0 72
L72 72
L72 0
L0 0
z
" style="fill:none;"/>
  </g>
  <g id="axes_1">
   <g id="PatchCollection_1">
    <defs>
     <path d="
M36 -7.5
C43.5583 -7.5 50.808 -10.5029 56.1525 -15.8475
C61.4971 -21.192 64.5 -28.4417 64.5 -36
C64.5 -43.5583 61.4971 -50.808 56.1525 -56.1525
C50.808 -61.4971 43.5583 -64.5 36 -64.5
C28.4417 -64.5 21.192 -61.4971 15.8475 -56.1525
C10.5029 -50.808 7.5 -43.5583 7.5 -36
C7.5 -28.4417 10.5029 -21.192 15.8475 -15.8475
C21.192 -10.5029 28.4417 -7.5 36 -7.5
z
" id="C0_0_a811fe30f3"/>
     <path d="
M7.66505 -34.5192
L7.84982 -34.4849
L8.03532 -34.4517
L8.22157 -34.4197
L8.40861 -34.3888
L8.59647 -34.3589
L8.78517 -34.3301
L8.97475 -34.3023
L9.16524 -34.2754
L9.35667 -34.2496
L9.74252 -34.2246
L9.93701 -34.2006
L10.1326 -34.1775
L10.3293 -34.1552
L10.5272 -34.1339
L10.7263 -34.1134
L10.9267 -34.0937
L11.1283 -34.0748
L11.3313 -34.0568
L11.5358 -34.0395
L11.7416 -34.0231
L11.9489 -34.0074
L12.1578 -33.9926
L12.3683 -33.9785
L12.5803 -33.9652
L12.7941 -33.9526
L13.0096 -33.9408
L13.2269 -33.9298
L13.4461 -33.9196
L13.6671 -33.9101
L13.8901 -33.9014
L14.1151 -33.8934
L14.3421 -33.8863
L14.5713 -33.8799
L14.8027 -33.8744
L15.0362 -33.8696
L15.2721 -33.8656
L15.5103 -33.8625
L15.7509 -33.8602
L15.9939 -33.8587
L16.2395 -33.8582
L16.4876 -33.8585
L16.7384 -33.8596
L16.9918 -33.8617
L17.248 -33.8648
L17.507 -33.8688
L17.7688 -33.8738
L18.0335 -33.8797
L18.3012 -33.8868
L18.5718 -33.8949
L18.8455 -33.904
L19.1222 -33.9143
L19.4021 -33.9258
L19.6851 -33.9385
L19.9712 -33.9524
L20.2606 -33.9676
L20.5533 -33.9842
L20.8492 -34.0021
L21.1483 -34.0215
L21.4507 -34.0423
L21.7564 -34.0647
L22.0653 -34.0888
L22.3775 -34.1145
L22.6929 -34.1419
L23.0114 -34.1712
L23.3331 -34.2024
L23.6579 -34.2356
L23.9856 -34.2708
L24.3162 -34.3083
L24.6496 -34.3481
L24.9858 -34.3902
L25.3244 -34.4349
L25.6654 -34.4823
L26.0086 -34.5325
L26.3538 -34.5857
L26.7008 -34.6419
L27.0493 -34.7015
L27.3991 -34.7646
L27.7497 -34.8314
L28.101 -34.9021
L28.4524 -34.9769
L28.8037 -35.0562
L29.1544 -35.1402
L29.5039 -35.2291
L29.8519 -35.3234
L30.1976 -35.4233
L30.5406 -35.5292
L30.8802 -35.6414
L31.2158 -35.7605
L31.5466 -35.8867
L31.872 -36.0205
L32.1913 -36.1624
L32.5037 -36.3128
L32.8084 -36.4721
L33.1049 -36.6407
L33.3923 -36.819
L33.6702 -37.0073
L33.9378 -37.2061
L34.1947 -37.4154
L34.4404 -37.6355
L34.6748 -37.8664
L34.8974 -38.1081
L35.1083 -38.3605
L35.3074 -38.6234
L35.4948 -38.8964
L35.6707 -39.1792
L35.8354 -39.4712
L35.9891 -39.772
L36.1324 -40.0808
L36.2656 -40.3972
L36.3891 -40.7203
L36.5036 -41.0495
L36.6093 -41.3841
L36.7069 -41.7235
L36.7969 -42.0669
L36.8795 -42.4136
L36.9554 -42.7632
L37.0249 -43.115
L37.0884 -43.4684
L37.1464 -43.8229
L37.1991 -44.178
L37.2468 -44.5333
L37.29 -44.8883
L37.3288 -45.2427
L37.3636 -45.5962
L37.3946 -45.9483
L37.422 -46.2989
L37.446 -46.6476
L37.4669 -46.9942
L37.4848 -47.3386
L37.4998 -47.6804
L37.5123 -48.0196
L37.5222 -48.356
L37.5297 -48.6895
L37.5351 -49.02
L37.5382 -49.3473
L37.5394 -49.6715
L37.5387 -49.9923
L37.5361 -50.3099
L37.5318 -50.624
L37.5259 -50.9348
L37.5184 -51.2422
L37.5094 -51.5462
L37.499 -51.8467
L37.4872 -52.1438
L37.474 -52.4375
L37.4597 -52.7278
L37.4441 -53.0147
L37.4273 -53.2983
L37.4095 -53.5786
L37.3905 -53.8556
L37.3705 -54.1294
L37.3495 -54.3999
L37.3275 -54.6674
L37.3046 -54.9317
L37.2808 -55.193
L37.256 -55.4512
L37.2304 -55.7065
L37.2039 -55.959
L37.1766 -56.2086
L37.1484 -56.4554
L37.1195 -56.6995
L37.0897 -56.9409
L37.0592 -57.1797
L37.0279 -57.416
L36.9958 -57.6498
L36.963 -57.8811
L36.9294 -58.11
L36.895 -58.3367
L36.8599 -58.561
L36.8241 -58.7832
L36.7875 -59.0032
L36.7502 -59.2211
L36.7121 -59.437
L36.6733 -59.6508
L36.6337 -59.8628
L36.5933 -60.0728
L36.5521 -60.281
L36.5102 -60.4874
L36.4675 -60.6921
L36.4239 -60.8951
L36.3796 -61.0965
L36.3344 -61.2963
L36.2883 -61.4945
L36.2414 -61.6912
L36.1936 -61.8865
L36.1449 -62.0803
L36.0953 -62.2727
L36.0447 -62.4639
L35.9931 -62.6537
L35.9406 -62.8422
L35.887 -63.0296
L35.8324 -63.2157
L35.7767 -63.4007
L35.7198 -63.5845
L35.6618 -63.7673
L35.6027 -63.949
L35.5423 -64.1296
L35.4806 -64.3093
L34.9833 -64.4879
L34.4863 -64.4819
L33.9899 -64.4598
L33.494 -64.429
L32.9989 -64.3896
L32.5048 -64.3416
L32.0117 -64.2849
L31.5198 -64.2196
L31.0292 -64.1456
L30.5402 -64.0632
L30.0529 -63.9721
L29.5673 -63.8726
L29.0838 -63.7646
L28.6023 -63.6481
L28.1231 -63.5232
L27.6463 -63.3899
L27.172 -63.2482
L26.7004 -63.0983
L26.2316 -62.9401
L25.7659 -62.7737
L25.3032 -62.5991
L24.8438 -62.4164
L24.3878 -62.2257
L23.9353 -62.027
L23.4865 -61.8204
L23.0416 -61.6059
L22.6005 -61.3836
L22.1636 -61.1536
L21.7308 -60.9159
L21.3025 -60.6707
L20.8785 -60.4179
L20.4592 -60.1576
L20.0447 -59.8901
L19.635 -59.6152
L19.2302 -59.3331
L18.8306 -59.044
L18.4362 -58.7478
L18.0472 -58.4447
L17.6636 -58.1347
L17.2856 -57.818
L16.9133 -57.4947
L16.5469 -57.1648
L16.1863 -56.8285
L15.8318 -56.4858
L15.4835 -56.1369
L15.1413 -55.7818
L14.8056 -55.4208
L14.4763 -55.0538
L14.1535 -54.681
L13.8374 -54.3025
L13.5281 -53.9184
L13.2256 -53.5289
L12.93 -53.1341
L12.6415 -52.734
L12.3601 -52.3288
L12.0858 -51.9187
L11.8189 -51.5037
L11.5593 -51.0839
L11.3072 -50.6596
L11.0626 -50.2308
L10.8256 -49.7977
L10.5963 -49.3604
L10.3747 -48.919
L10.1609 -48.4737
L9.95496 -48.0246
L9.75698 -47.5718
L9.56698 -47.1155
L9.38504 -46.6558
L9.2112 -46.1928
L9.04553 -45.7268
L8.88806 -45.2578
L8.73885 -44.7859
L8.59795 -44.3114
L8.4654 -43.8344
L8.34123 -43.355
L8.22549 -42.8733
L8.1182 -42.3895
L8.01941 -41.9038
L7.92915 -41.4163
L7.84743 -40.9272
L7.77429 -40.4365
L7.70975 -39.9445
L7.65382 -39.4513
L7.60653 -38.9571
L7.56789 -38.4619
L7.53791 -37.966
L7.5166 -37.4695
L7.50396 -36.9725
L7.50001 -36.4753
L7.50474 -35.9779
z
" id="C0_1_abe5d1ce07"/>
     <path d="
M36.5754 -7.67844
L36.6309 -7.86106
L36.6863 -8.04532
L36.7415 -8.23128
L36.7966 -8.41897
L36.8516 -8.60844
L36.9066 -8.79975
L36.9614 -8.99294
L37.0162 -9.18806
L37.0709 -9.38517
L37.1256 -9.58431
L37.1803 -9.78555
L37.235 -9.98892
L37.2897 -10.1945
L37.3444 -10.4023
L37.3992 -10.6125
L37.454 -10.825
L37.509 -11.0399
L37.564 -11.2573
L37.6191 -11.4773
L37.6744 -11.6998
L37.7298 -11.9251
L37.7853 -12.153
L37.8411 -12.3837
L37.897 -12.6173
L37.9531 -12.8537
L38.0095 -13.0931
L38.0662 -13.3355
L38.1231 -13.581
L38.1803 -13.8296
L38.2378 -14.0814
L38.2956 -14.3364
L38.3538 -14.5946
L38.4124 -14.8562
L38.4714 -15.1212
L38.5309 -15.3896
L38.5908 -15.6614
L38.6512 -15.9367
L38.7121 -16.2155
L38.7736 -16.4978
L38.8357 -16.7837
L38.8985 -17.0732
L38.962 -17.3662
L39.0261 -17.6628
L39.0911 -17.963
L39.1569 -18.2667
L39.2237 -18.5739
L39.2914 -18.8846
L39.3601 -19.1986
L39.43 -19.5161
L39.501 -19.8368
L39.5734 -20.1606
L39.6472 -20.4876
L39.7225 -20.8174
L39.7995 -21.15
L39.8783 -21.4853
L39.959 -21.8229
L40.0418 -22.1627
L40.1269 -22.5045
L40.2146 -22.848
L40.3049 -23.1928
L40.3982 -23.5386
L40.4947 -23.8852
L40.5948 -24.232
L40.6987 -24.5787
L40.8067 -24.9248
L40.9193 -25.2698
L41.0369 -25.6131
L41.1597 -25.9543
L41.2884 -26.2926
L41.4233 -26.6276
L41.5648 -26.9585
L41.7136 -27.2847
L41.8701 -27.6056
L42.0346 -27.9205
L42.2078 -28.2287
L42.3899 -28.5297
L42.5814 -28.8228
L42.7825 -29.1076
L42.9935 -29.3837
L43.2146 -29.6507
L43.4457 -29.9082
L43.6868 -30.1562
L43.9377 -30.3945
L44.1982 -30.6232
L44.4679 -30.8424
L44.7464 -31.0523
L45.0332 -31.2531
L45.3277 -31.4451
L45.6292 -31.6287
L45.9371 -31.8044
L46.2507 -31.9725
L46.5694 -32.1334
L46.8925 -32.2877
L47.2192 -32.4356
L47.5491 -32.5778
L47.8814 -32.7144
L48.2156 -32.846
L48.5511 -32.9728
L48.8874 -33.0953
L49.2241 -33.2137
L49.5606 -33.3282
L49.8966 -33.4393
L50.2317 -33.5471
L50.5656 -33.6519
L50.8979 -33.7538
L51.2285 -33.8531
L51.5569 -33.9499
L51.883 -34.0444
L52.2066 -34.1367
L52.5275 -34.2269
L52.8456 -34.3153
L53.1607 -34.4018
L53.4727 -34.4867
L53.7815 -34.57
L54.0871 -34.6517
L54.3893 -34.732
L54.6881 -34.8109
L54.9834 -34.8886
L55.2753 -34.965
L55.5636 -35.0402
L55.8485 -35.1143
L56.1298 -35.1874
L56.4076 -35.2594
L56.6819 -35.3305
L56.9527 -35.4006
L57.2201 -35.4698
L57.484 -35.5382
L57.7445 -35.6058
L58.0017 -35.6726
L58.2555 -35.7387
L58.5061 -35.804
L58.7534 -35.8687
L58.9975 -35.9327
L59.2385 -35.996
L59.4764 -36.0588
L59.7113 -36.121
L59.9432 -36.1826
L60.1722 -36.2437
L60.3984 -36.3042
L60.6217 -36.3643
L60.8423 -36.424
L61.0602 -36.4832
L61.2754 -36.5419
L61.4881 -36.6003
L61.6983 -36.6583
L61.906 -36.7159
L62.1113 -36.7731
L62.3143 -36.8301
L62.515 -36.8867
L62.7135 -36.943
L62.9097 -36.9991
L63.1039 -37.0549
L63.296 -37.1105
L63.486 -37.1658
L63.6741 -37.2209
L63.8603 -37.2758
L64.0446 -37.3306
L64.2271 -37.3852
L64.4843 -37.4396
L64.4965 -36.9455
L64.5 -36.4482
L64.4948 -35.9508
L64.4809 -35.4534
L64.4583 -34.9562
L64.4271 -34.4593
L64.3872 -33.9629
L64.3387 -33.4671
L64.2815 -32.972
L64.2158 -32.4779
L64.1414 -31.9849
L64.0584 -31.493
L63.9669 -31.0026
L63.8669 -30.5137
L63.7584 -30.0264
L63.6415 -29.541
L63.5161 -29.0575
L63.3824 -28.5762
L63.2403 -28.0971
L63.0899 -27.6204
L62.9312 -27.1463
L62.7644 -26.6748
L62.5894 -26.2062
L62.4063 -25.7406
L62.2151 -25.2781
L62.016 -24.8189
L61.8089 -24.3631
L61.594 -23.9108
L61.3713 -23.4622
L61.1409 -23.0175
L60.9028 -22.5767
L60.6571 -22.1399
L60.4039 -21.7074
L60.1433 -21.2793
L59.8753 -20.8556
L59.6 -20.4366
L59.3176 -20.0223
L59.028 -19.6128
L58.7315 -19.2084
L58.428 -18.809
L58.1177 -18.4149
L57.8006 -18.0262
L57.4769 -17.6429
L57.1467 -17.2652
L56.81 -16.8933
L56.467 -16.5271
L56.1177 -16.1669
L55.7624 -15.8127
L55.401 -15.4647
L55.0336 -15.1229
L54.6605 -14.7875
L54.2817 -14.4585
L53.8974 -14.1362
L53.5076 -13.8204
L53.1124 -13.5114
L52.7121 -13.2093
L52.3066 -12.9141
L51.8962 -12.626
L51.4809 -12.345
L51.061 -12.0711
L50.6364 -11.8046
L50.2074 -11.5454
L49.774 -11.2937
L49.3365 -11.0495
L48.8949 -10.8129
L48.4494 -10.584
L48 -10.3628
L47.547 -10.1495
L47.0906 -9.94399
L46.6307 -9.74643
L46.1676 -9.55688
L45.7013 -9.37537
L45.2322 -9.20198
L44.7602 -9.03675
L44.2855 -8.87973
L43.8084 -8.73098
L43.3288 -8.59053
L42.847 -8.45843
L42.3632 -8.33472
L41.8774 -8.21943
L41.3898 -8.11261
L40.9005 -8.01428
L40.4098 -7.92448
L39.9177 -7.84323
L39.4245 -7.77056
L38.9301 -7.70648
L38.4349 -7.65103
L37.939 -7.60421
L37.4425 -7.56604
z
" id="C0_2_b22f99435b"/>
    </defs>
    <g clip-path="url(#p1bffca34e9)">
     <use style="fill:#ffffff;stroke:#000000;stroke-width:2.0;" x="0.0" xlink:href="#C0_0_a811fe30f3" y="72.0"/>
    </g>
    <g clip-path="url(#p1bffca34e9)">
     <use style="fill:#ff0000;stroke:#000000;stroke-width:2.0;" x="0.0" xlink:href="#C0_1_abe5d1ce07" y="72.0"/>
    </g>
    <g clip-path="url(#p1bffca34e9)">
     <use style="fill:#ff0000;stroke:#000000;stroke-width:2.0;" x="0.0" xlink:href="#C0_2_b22f99435b" y="72.0"/>
    </g>
   </g>
  </g>
 </g>
 <defs>
  <clipPath id="p1bffca34e9">
   <rect height="72.0" width="72.0" x="0.0" y="0.0"/>
  </clipPath>
 </defs>
</svg>
