<?xml version="1.0" encoding="utf-8" standalone="no"?>
<!DOCTYPE svg PUBLIC "-//W3C//DTD SVG 1.1//EN"
  "http://www.w3.org/Graphics/SVG/1.1/DTD/svg11.dtd">
<!-- Created with matplotlib (http://matplotlib.org/) -->
<svg height="72pt" version="1.1" viewBox="0 0 72 72" width="72pt" xmlns="http://www.w3.org/2000/svg" xmlns:xlink="http://www.w3.org/1999/xlink">
 <defs>
  <style type="text/css">
*{stroke-linecap:butt;stroke-linejoin:round;}
  </style>
 </defs>
 <g id="figure_1">
  <g id="patch_1">
   <path d="
M0 72
L72 72
L72 0
L0 0
z
" style="fill:none;"/>
  </g>
  <g id="axes_1">
   <g id="PatchCollection_1">
    <defs>
     <path d="
M36 -7.5
C43.5583 -7.5 50.808 -10.5029 56.1525 -15.8475
C61.4971 -21.192 64.5 -28.4417 64.5 -36
C64.5 -43.5583 61.4971 -50.808 56.1525 -56.1525
C50.808 -61.4971 43.5583 -64.5 36 -64.5
C28.4417 -64.5 21.192 -61.4971 15.8475 -56.1525
C10.5029 -50.808 7.5 -43.5583 7.5 -36
C7.5 -28.4417 10.5029 -21.192 15.8475 -15.8475
C21.192 -10.5029 28.4417 -7.5 36 -7.5
z
" id="C0_0_a811fe30f3"/>
     <path d="
M59.7602 -51.4209
L59.6372 -51.1899
L59.502 -50.9686
L59.3555 -50.7566
L59.1982 -50.5536
L59.0307 -50.359
L58.8538 -50.1724
L58.6681 -49.9935
L58.4741 -49.8217
L58.2725 -49.6567
L58.0638 -49.498
L57.8486 -49.3452
L57.6273 -49.1979
L57.4006 -49.0557
L57.1687 -48.9183
L56.9323 -48.7854
L56.6917 -48.6565
L56.4473 -48.5315
L56.1994 -48.41
L55.9485 -48.2918
L55.6948 -48.1766
L55.4387 -48.0642
L55.1804 -47.9544
L54.9203 -47.847
L54.6584 -47.7418
L54.3952 -47.6387
L54.1308 -47.5375
L53.8653 -47.438
L53.599 -47.3402
L53.3321 -47.2439
L53.0647 -47.149
L52.7969 -47.0554
L52.5289 -46.9631
L52.2608 -46.8718
L51.9927 -46.7816
L51.7247 -46.6925
L51.457 -46.6042
L51.1895 -46.5168
L50.9223 -46.4301
L50.6556 -46.3443
L50.3893 -46.2591
L50.1236 -46.1746
L49.8584 -46.0907
L49.5939 -46.0073
L49.33 -45.9245
L49.0667 -45.8422
L48.8042 -45.7604
L48.5423 -45.679
L48.2812 -45.598
L48.0209 -45.5174
L47.7612 -45.4372
L47.5024 -45.3573
L47.2442 -45.2777
L46.9868 -45.1984
L46.7301 -45.1194
L46.4742 -45.0406
L46.2189 -44.9621
L45.9644 -44.8838
L45.7105 -44.8056
L45.4573 -44.7276
L45.2047 -44.6498
L44.9528 -44.5721
L44.7014 -44.4946
L44.4506 -44.4171
L44.2003 -44.3398
L43.9506 -44.2625
L43.7013 -44.1853
L43.4525 -44.1081
L43.2041 -44.0309
L42.9561 -43.9538
L42.7084 -43.8767
L42.461 -43.7995
L42.214 -43.7223
L41.9672 -43.6451
L41.7206 -43.5678
L41.4741 -43.4905
L41.2278 -43.413
L40.9816 -43.3355
L40.7355 -43.2578
L40.4894 -43.18
L40.2432 -43.1021
L39.9971 -43.024
L39.5043 -42.9457
L39.2577 -42.8673
L39.0109 -42.7887
L38.7638 -42.7098
L38.5164 -42.6308
L38.2686 -42.5515
L38.0205 -42.4719
L37.7719 -42.3921
L37.5229 -42.312
L37.2733 -42.2317
L37.0232 -42.151
L36.7725 -42.07
L36.5212 -41.9887
L36.2692 -41.9071
L36.0165 -41.8251
L35.763 -41.7428
L35.5087 -41.6601
L35.2535 -41.5771
L34.9975 -41.4936
L34.7406 -41.4098
L34.4826 -41.3255
L34.2237 -41.2408
L33.9638 -41.1558
L33.7027 -41.0703
L33.4406 -40.9843
L33.1773 -40.898
L32.9128 -40.8111
L32.6471 -40.7239
L32.3801 -40.6362
L32.1119 -40.5481
L31.8423 -40.4595
L31.5714 -40.3705
L31.2991 -40.281
L31.0254 -40.1911
L30.7502 -40.1008
L30.4737 -40.0101
L30.1956 -39.919
L29.9161 -39.8275
L29.635 -39.7356
L29.3524 -39.6434
L29.0683 -39.5509
L28.7827 -39.458
L28.4955 -39.365
L28.2067 -39.2716
L27.9164 -39.1781
L27.6246 -39.0845
L27.3312 -38.9908
L27.0363 -38.897
L26.7399 -38.8033
L26.442 -38.7097
L26.1427 -38.6162
L25.8419 -38.523
L25.5398 -38.4302
L25.2363 -38.3378
L24.9315 -38.2459
L24.6254 -38.1548
L24.3182 -38.0644
L24.0099 -37.9751
L23.7005 -37.8868
L23.3902 -37.7998
L23.0791 -37.7143
L22.7671 -37.6304
L22.4545 -37.5485
L22.1414 -37.4686
L21.8278 -37.3911
L21.514 -37.3163
L21.2 -37.2443
L20.886 -37.1757
L20.5721 -37.1105
L20.2586 -37.0493
L19.9456 -36.9924
L19.6332 -36.9402
L19.3218 -36.8931
L19.0115 -36.8515
L18.7024 -36.816
L18.3949 -36.7869
L18.0892 -36.7649
L17.7855 -36.7504
L17.4841 -36.7439
L17.1852 -36.746
L16.8891 -36.7573
L16.5961 -36.7783
L16.3066 -36.8095
L16.0207 -36.8515
L15.7388 -36.9047
L15.4611 -36.9697
L15.1881 -37.047
L14.92 -37.1369
L14.6572 -37.2397
L14.3999 -37.3559
L14.1484 -37.4856
L13.9031 -37.6291
L13.6643 -37.7864
L13.4322 -37.9577
L13.2071 -38.1428
L12.9894 -38.3416
L12.7793 -38.554
L12.5769 -38.7798
L12.3826 -39.0186
L12.1966 -39.2701
L12.019 -39.5338
L11.8501 -39.8094
L11.69 -40.0963
L11.5388 -40.394
L11.3967 -40.7019
L11.2638 -41.0195
L11.1401 -41.3462
L11.0258 -41.6815
L10.9209 -42.0246
L10.8255 -42.3752
L10.7395 -42.7325
L10.663 -43.096
L10.596 -43.4652
L10.5384 -43.8396
L10.4903 -44.2185
L10.4516 -44.6016
L10.4221 -44.9882
L10.402 -45.378
L10.3911 -45.7705
L10.3893 -46.1652
L10.3965 -46.5618
L10.4127 -46.9599
L10.4377 -47.359
L10.4714 -47.7589
L10.5138 -48.1592
L10.6594 -48.5596
L10.8909 -49.0424
L11.13 -49.4827
L11.3767 -49.9188
L11.6309 -50.3508
L11.8926 -50.7783
L12.1615 -51.2014
L12.4378 -51.6198
L12.7212 -52.0334
L13.0117 -52.4422
L13.3092 -52.846
L13.6136 -53.2446
L13.9248 -53.638
L14.2428 -54.026
L14.5674 -54.4085
L14.8985 -54.7854
L15.236 -55.1566
L15.5799 -55.522
L15.93 -55.8814
L16.2862 -56.2347
L16.6484 -56.5819
L17.0165 -56.9228
L17.3904 -57.2574
L17.7699 -57.5855
L18.155 -57.907
L18.5456 -58.2218
L18.9414 -58.5298
L19.3425 -58.831
L19.7486 -59.1253
L20.1597 -59.4124
L20.5756 -59.6925
L20.9962 -59.9654
L21.4214 -60.2309
L21.851 -60.4891
L22.2849 -60.7398
L22.723 -60.9829
L23.1652 -61.2185
L23.6112 -61.4464
L24.061 -61.6665
L24.5145 -61.8788
L24.9715 -62.0832
L25.4318 -62.2797
L25.8953 -62.4682
L26.362 -62.6486
L26.8315 -62.8209
L27.3039 -62.985
L27.7789 -63.1409
L28.2564 -63.2885
L28.7362 -63.4278
L29.2183 -63.5588
L29.7024 -63.6814
L30.1885 -63.7955
L30.6763 -63.9012
L31.1658 -63.9984
L31.6567 -64.087
L32.1489 -64.1671
L32.6424 -64.2386
L33.1368 -64.3015
L33.6321 -64.3558
L34.1282 -64.4015
L34.6248 -64.4385
L35.1218 -64.4668
L35.6191 -64.4865
L36.1165 -64.4975
L36.6139 -64.4998
L37.111 -64.4934
L37.6079 -64.4783
L38.1042 -64.4546
L38.6 -64.4222
L39.0949 -64.3812
L39.5889 -64.3315
L40.0817 -64.2731
L40.5734 -64.2062
L41.0636 -64.1307
L41.5524 -64.0466
L42.0394 -63.9539
L42.5245 -63.8528
L43.0077 -63.7431
L43.4888 -63.625
L43.9676 -63.4985
L44.4439 -63.3636
L44.9177 -63.2204
L45.3887 -63.0689
L45.8569 -62.9091
L46.3221 -62.7412
L46.7842 -62.5651
L47.243 -62.3809
L47.6983 -62.1887
L48.1501 -61.9885
L48.5982 -61.7803
L49.0424 -61.5644
L49.4827 -61.3406
L49.9188 -61.1091
L50.3508 -60.87
L50.7783 -60.6233
L51.2014 -60.3691
L51.6198 -60.1074
L52.0334 -59.8385
L52.4422 -59.5622
L52.846 -59.2788
L53.2446 -58.9883
L53.638 -58.6908
L54.026 -58.3864
L54.4085 -58.0752
L54.7854 -57.7572
L55.1566 -57.4326
L55.522 -57.1015
L55.8814 -56.764
L56.2347 -56.4201
L56.5819 -56.07
L56.9228 -55.7138
L57.2574 -55.3516
L57.5855 -54.9835
L57.907 -54.6096
L58.2218 -54.2301
L58.5298 -53.845
L58.831 -53.4544
L59.1253 -53.0586
L59.4124 -52.6575
z
" id="C0_1_7287f6be59"/>
     <path d="
M61.3521 -23.0826
L61.0603 -22.8067
L60.7669 -22.5358
L60.4723 -22.2701
L60.1764 -22.0095
L59.8794 -21.7541
L59.5814 -21.5039
L59.2826 -21.2588
L58.9829 -21.0189
L58.6826 -20.7841
L58.3817 -20.5544
L58.0803 -20.3298
L57.7784 -20.1102
L57.4763 -19.8956
L57.1738 -19.686
L56.8711 -19.4812
L56.5683 -19.2812
L56.2653 -19.086
L55.9623 -18.8954
L55.6593 -18.7094
L55.3563 -18.528
L55.0533 -18.3511
L54.7505 -18.1786
L54.4477 -18.0104
L54.1451 -17.8464
L53.8426 -17.6867
L53.5403 -17.531
L53.2382 -17.3794
L52.9362 -17.2318
L52.6344 -17.0881
L52.3328 -16.9482
L52.0314 -16.8121
L51.7302 -16.6798
L51.4291 -16.551
L51.1282 -16.4259
L50.8274 -16.3043
L50.5268 -16.1862
L50.2262 -16.0715
L49.9258 -15.9601
L49.6254 -15.852
L49.3251 -15.7473
L49.0248 -15.6457
L48.7245 -15.5473
L48.4242 -15.452
L48.1238 -15.3598
L47.8233 -15.2706
L47.5227 -15.1844
L47.2219 -15.1012
L46.921 -15.021
L46.6198 -14.9436
L46.3184 -14.8691
L46.0167 -14.7974
L45.7147 -14.7286
L45.4123 -14.6625
L45.1095 -14.5992
L44.8062 -14.5387
L44.5025 -14.4809
L44.1982 -14.4259
L43.8934 -14.3735
L43.5879 -14.3239
L43.2819 -14.2769
L42.9751 -14.2326
L42.6676 -14.191
L42.3593 -14.1521
L42.0502 -14.1159
L41.7403 -14.0823
L41.4294 -14.0514
L41.1176 -14.0232
L40.8049 -13.9977
L40.4911 -13.9749
L40.1762 -13.9548
L39.8602 -13.9375
L39.5431 -13.9229
L39.2248 -13.911
L38.9053 -13.9019
L38.5845 -13.8957
L38.2624 -13.8922
L37.9389 -13.8916
L37.6141 -13.8939
L37.2879 -13.8991
L36.9602 -13.9072
L36.6311 -13.9183
L36.3004 -13.9324
L35.9682 -13.9495
L35.6345 -13.9696
L35.2991 -13.9929
L34.9622 -14.0193
L34.6236 -14.0489
L34.2834 -14.0817
L33.9414 -14.1178
L33.5979 -14.1571
L33.2526 -14.1998
L32.9056 -14.2459
L32.557 -14.2954
L32.2066 -14.3483
L31.8545 -14.4047
L31.5008 -14.4647
L31.1454 -14.5282
L30.7883 -14.5954
L30.4296 -14.6661
L30.0693 -14.7406
L29.7075 -14.8187
L29.3441 -14.9005
L28.9792 -14.986
L28.6129 -15.0753
L28.2452 -15.1684
L27.8762 -15.2651
L27.506 -15.3656
L27.1346 -15.4698
L26.7621 -15.5777
L26.3886 -15.6892
L26.0143 -15.8044
L25.6392 -15.923
L25.2634 -16.0452
L24.8871 -16.1707
L24.5104 -16.2994
L24.1334 -16.4313
L23.7564 -16.5662
L23.3793 -16.7039
L23.0025 -16.8442
L22.6261 -16.987
L22.2502 -17.132
L21.875 -17.2788
L21.5008 -17.4274
L21.1277 -17.5772
L20.7559 -17.728
L20.3857 -17.8795
L20.0172 -18.0311
L19.6507 -18.1825
L19.2863 -18.3332
L18.9243 -18.4827
L18.5649 -18.6305
L18.2084 -18.776
L17.8548 -18.9188
L17.5045 -19.0581
L17.1576 -19.1935
L16.8143 -19.3243
L16.4749 -19.45
L16.1394 -19.5699
L15.8082 -19.6835
L15.4813 -19.7902
L15.1589 -19.8895
L14.8412 -19.9809
L14.5283 -20.0639
L14.2204 -20.1383
L13.9175 -20.2035
L13.6199 -20.2594
L13.3275 -20.3057
L13.0405 -20.3423
L12.759 -20.369
L12.4831 -20.3858
L12.4477 -20.3928
L12.7314 -19.952
L13.0221 -19.5434
L13.3199 -19.1398
L13.6245 -18.7413
L13.936 -18.3481
L14.2542 -17.9603
L14.579 -17.578
L14.9104 -17.2013
L15.2481 -16.8303
L15.5922 -16.4651
L15.9425 -16.106
L16.299 -15.7528
L16.6614 -15.4059
L17.0297 -15.0652
L17.4038 -14.7308
L17.7835 -14.403
L18.1688 -14.0817
L18.5596 -13.7672
L18.9556 -13.4593
L19.3568 -13.1584
L19.7631 -12.8644
L20.1744 -12.5775
L20.5905 -12.2977
L21.0112 -12.0251
L21.4366 -11.7598
L21.8663 -11.5019
L22.3004 -11.2515
L22.7387 -11.0086
L23.1809 -10.7733
L23.6271 -10.5457
L24.0771 -10.3258
L24.5307 -10.1138
L24.9878 -9.90968
L25.4482 -9.71348
L25.9119 -9.5253
L26.3786 -9.34518
L26.8483 -9.17317
L27.3207 -9.00934
L27.7958 -8.85373
L28.2734 -8.70639
L28.7533 -8.56737
L29.2355 -8.4367
L29.7197 -8.31442
L30.2058 -8.20058
L30.6937 -8.09521
L31.1832 -7.99834
L31.6742 -7.90999
L32.1665 -7.83021
L32.6599 -7.759
L33.1544 -7.6964
L33.6497 -7.64242
L34.1458 -7.59707
L34.6424 -7.56038
L35.1394 -7.53235
L35.6367 -7.513
L36.1342 -7.50232
L36.6315 -7.50032
L37.1287 -7.507
L37.6255 -7.52236
L38.1219 -7.54639
L38.6176 -7.5791
L39.1124 -7.62046
L39.6064 -7.67046
L40.0992 -7.7291
L40.5908 -7.79634
L41.081 -7.87218
L41.5697 -7.95659
L42.0566 -8.04953
L42.5418 -8.15099
L43.0249 -8.26094
L43.5058 -8.37933
L43.9845 -8.50614
L44.4608 -8.64132
L44.9345 -8.78484
L45.4054 -8.93665
L45.8735 -9.0967
L46.3386 -9.26494
L46.8006 -9.44133
L47.2592 -9.62581
L47.7144 -9.81832
L48.1661 -10.0188
L48.614 -10.2272
L49.0581 -10.4435
L49.4982 -10.6675
L49.9343 -10.8993
L50.366 -11.1387
L50.7934 -11.3856
L51.2163 -11.6401
L51.6346 -11.902
L52.048 -12.1712
L52.4566 -12.4477
L52.8602 -12.7314
L53.2587 -13.0221
L53.6519 -13.3199
L54.0397 -13.6245
L54.422 -13.936
L54.7987 -14.2542
L55.1697 -14.579
L55.5349 -14.9104
L55.894 -15.2481
L56.2472 -15.5922
L56.5941 -15.9425
L56.9348 -16.299
L57.2692 -16.6614
L57.597 -17.0297
L57.9183 -17.4038
L58.2328 -17.7835
L58.5407 -18.1688
L58.8416 -18.5596
L59.1356 -18.9556
L59.4225 -19.3568
L59.7023 -19.7631
L59.9749 -20.1744
L60.2402 -20.5905
L60.4981 -21.0112
L60.7485 -21.4366
L60.9914 -21.8663
z
" id="C0_2_ff9e88af93"/>
    </defs>
    <g clip-path="url(#p1bffca34e9)">
     <use style="fill:#ffffff;stroke:#000000;stroke-width:2.0;" x="0.0" xlink:href="#C0_0_a811fe30f3" y="72.0"/>
    </g>
    <g clip-path="url(#p1bffca34e9)">
     <use style="fill:#ff0000;stroke:#000000;stroke-width:2.0;" x="0.0" xlink:href="#C0_1_7287f6be59" y="72.0"/>
    </g>
    <g clip-path="url(#p1bffca34e9)">
     <use style="fill:#ff0000;stroke:#000000;stroke-width:2.0;" x="0.0" xlink:href="#C0_2_ff9e88af93" y="72.0"/>
    </g>
   </g>
  </g>
 </g>
 <defs>
  <clipPath id="p1bffca34e9">
   <rect height="72.0" width="72.0" x="0.0" y="0.0"/>
  </clipPath>
 </defs>
</svg>
