<?xml version="1.0" encoding="utf-8" standalone="no"?>
<!DOCTYPE svg PUBLIC "-//W3C//DTD SVG 1.1//EN"
  "http://www.w3.org/Graphics/SVG/1.1/DTD/svg11.dtd">
<!-- Created with matplotlib (http://matplotlib.org/) -->
<svg height="72pt" version="1.1" viewBox="0 0 72 72" width="72pt" xmlns="http://www.w3.org/2000/svg" xmlns:xlink="http://www.w3.org/1999/xlink">
 <defs>
  <style type="text/css">
*{stroke-linecap:butt;stroke-linejoin:round;}
  </style>
 </defs>
 <g id="figure_1">
  <g id="patch_1">
   <path d="
M0 72
L72 72
L72 0
L0 0
z
" style="fill:none;"/>
  </g>
  <g id="axes_1">
   <g id="PatchCollection_1">
    <defs>
     <path d="
M36 -7.5
C43.5583 -7.5 50.808 -10.5029 56.1525 -15.8475
C61.4971 -21.192 64.5 -28.4417 64.5 -36
C64.5 -43.5583 61.4971 -50.808 56.1525 -56.1525
C50.808 -61.4971 43.5583 -64.5 36 -64.5
C28.4417 -64.5 21.192 -61.4971 15.8475 -56.1525
C10.5029 -50.808 7.5 -43.5583 7.5 -36
C7.5 -28.4417 10.5029 -21.192 15.8475 -15.8475
C21.192 -10.5029 28.4417 -7.5 36 -7.5
z
" id="C0_0_a811fe30f3"/>
     <path d="
M11.7708 -50.7193
L11.9389 -50.5231
L12.1232 -50.342
L12.3226 -50.1748
L12.5357 -50.0205
L12.7613 -49.8777
L12.9985 -49.7455
L13.2459 -49.6228
L13.5026 -49.5084
L13.7676 -49.4014
L14.0401 -49.301
L14.3191 -49.2062
L14.6038 -49.1165
L14.8936 -49.031
L15.1878 -48.9492
L15.4857 -48.8705
L15.7869 -48.7945
L16.0907 -48.7208
L16.3968 -48.649
L16.7047 -48.5787
L17.0139 -48.5097
L17.3242 -48.4418
L17.6353 -48.3746
L17.9467 -48.3081
L18.2583 -48.2421
L18.5698 -48.1764
L18.881 -48.111
L19.1916 -48.0456
L19.5016 -47.9803
L19.8107 -47.915
L20.1188 -47.8496
L20.4258 -47.784
L20.7316 -47.7183
L21.036 -47.6523
L21.339 -47.5861
L21.6405 -47.5197
L21.9404 -47.4529
L22.2387 -47.3859
L22.5354 -47.3186
L22.8303 -47.2509
L23.1235 -47.183
L23.4149 -47.1147
L23.7046 -47.0461
L23.9925 -46.9772
L24.2786 -46.9079
L24.5629 -46.8384
L24.8454 -46.7685
L25.1262 -46.6983
L25.4052 -46.6278
L25.6825 -46.557
L25.9581 -46.4859
L26.232 -46.4145
L26.5042 -46.3428
L26.7748 -46.2708
L27.0438 -46.1985
L27.3113 -46.1258
L27.5772 -46.0529
L27.8417 -45.9797
L28.1047 -45.9061
L28.3663 -45.8323
L28.6265 -45.7581
L28.8854 -45.6836
L29.1431 -45.6088
L29.3995 -45.5337
L29.6548 -45.4582
L29.9089 -45.3824
L30.1619 -45.3063
L30.4139 -45.2298
L30.6649 -45.153
L30.915 -45.0758
L31.1642 -44.9983
L31.4126 -44.9203
L31.6602 -44.842
L31.907 -44.7632
L32.1532 -44.6841
L32.3988 -44.6045
L32.6437 -44.5245
L32.8882 -44.444
L33.1321 -44.3631
L33.3757 -44.2817
L33.6189 -44.1998
L33.8617 -44.1174
L34.1043 -44.0344
L34.3467 -43.951
L34.831 -43.8669
L35.0731 -43.7823
L35.3151 -43.6972
L35.5572 -43.6114
L35.7994 -43.525
L36.0418 -43.4379
L36.2843 -43.3502
L36.5271 -43.2618
L36.7702 -43.1727
L37.0137 -43.0829
L37.2576 -42.9923
L37.5019 -42.9009
L37.7468 -42.8088
L37.9922 -42.7159
L38.2382 -42.6221
L38.4849 -42.5274
L38.7323 -42.4319
L38.9805 -42.3355
L39.2294 -42.2381
L39.4793 -42.1398
L39.73 -42.0405
L39.9818 -41.9403
L40.2345 -41.8389
L40.4883 -41.7365
L40.7432 -41.6331
L40.9992 -41.5285
L41.2565 -41.4228
L41.5149 -41.3159
L41.7747 -41.2079
L42.0358 -41.0986
L42.2983 -40.9881
L42.5621 -40.8763
L42.8274 -40.7633
L43.0942 -40.6489
L43.3626 -40.5332
L43.6324 -40.4162
L43.9039 -40.2977
L44.177 -40.1779
L44.4517 -40.0567
L44.7281 -39.934
L45.0062 -39.8099
L45.286 -39.6843
L45.5675 -39.5573
L45.8508 -39.4287
L46.1358 -39.2987
L46.4226 -39.1672
L46.7111 -39.0343
L47.0015 -38.8998
L47.2935 -38.7639
L47.5873 -38.6266
L47.8828 -38.4878
L48.1801 -38.3477
L48.479 -38.2062
L48.7795 -38.0634
L49.0817 -37.9193
L49.3854 -37.7741
L49.6906 -37.6278
L49.9972 -37.4805
L50.3053 -37.3323
L50.6146 -37.1834
L50.9251 -37.0338
L51.2368 -36.8838
L51.5495 -36.7334
L51.8631 -36.583
L52.1775 -36.4328
L52.4926 -36.2829
L52.8083 -36.1338
L53.1243 -35.9858
L53.4407 -35.8391
L53.7571 -35.6943
L54.0734 -35.5519
L54.3895 -35.4122
L54.7052 -35.2759
L55.0203 -35.1437
L55.3345 -35.0161
L55.6477 -34.8941
L55.9597 -34.7784
L56.2703 -34.67
L56.5791 -34.5699
L56.886 -34.4792
L57.1907 -34.3989
L57.4929 -34.3305
L57.7924 -34.2751
L58.0889 -34.2341
L58.382 -34.2088
L58.6715 -34.2008
L58.957 -34.2112
L59.2381 -34.2414
L59.5145 -34.2925
L59.7857 -34.3656
L60.0514 -34.4615
L60.3111 -34.5809
L60.5643 -34.7241
L60.8106 -34.8913
L61.0497 -35.0823
L61.2809 -35.2968
L61.5039 -35.5343
L61.7184 -35.7938
L61.9238 -36.0746
L62.1199 -36.3755
L62.3063 -36.6954
L62.4827 -37.033
L62.6488 -37.3871
L62.8045 -37.7564
L62.9494 -38.1397
L63.0834 -38.5357
L63.2065 -38.9432
L63.3184 -39.3611
L63.4192 -39.7883
L63.5087 -40.2238
L63.5869 -40.6665
L63.6539 -41.1156
L63.7097 -41.5702
L63.7384 -42.0293
L63.6199 -42.5446
L63.4931 -43.0277
L63.3579 -43.5087
L63.2143 -43.9874
L63.0624 -44.4636
L62.9023 -44.9373
L62.734 -45.4082
L62.5576 -45.8763
L62.3731 -46.3414
L62.1805 -46.8033
L61.98 -47.2619
L61.7715 -47.7171
L61.5552 -48.1687
L61.3312 -48.6167
L61.0994 -49.0607
L60.8599 -49.5008
L60.6129 -49.9368
L60.3584 -50.3686
L60.0964 -50.7959
L59.8272 -51.2188
L59.5506 -51.637
L59.2669 -52.0505
L58.9761 -52.459
L58.6783 -52.8626
L58.3736 -53.261
L58.0621 -53.6542
L57.7439 -54.042
L57.419 -54.4243
L57.0876 -54.8009
L56.7498 -55.1719
L56.4057 -55.537
L56.0554 -55.8962
L55.6989 -56.2493
L55.3365 -56.5962
L54.9681 -56.9368
L54.594 -57.2711
L54.2142 -57.5989
L53.8289 -57.9201
L53.4381 -58.2347
L53.042 -58.5425
L52.6408 -58.8434
L52.2344 -59.1373
L51.8232 -59.4242
L51.4071 -59.704
L50.9863 -59.9765
L50.5609 -60.2417
L50.1311 -60.4996
L49.697 -60.75
L49.2587 -60.9928
L48.8164 -61.2281
L48.3702 -61.4556
L47.9202 -61.6754
L47.4666 -61.8874
L47.0095 -62.0915
L46.5491 -62.2877
L46.0854 -62.4758
L45.6186 -62.6559
L45.149 -62.8278
L44.6765 -62.9916
L44.2014 -63.1472
L43.7238 -63.2945
L43.2438 -63.4334
L42.7617 -63.5641
L42.2775 -63.6863
L41.7913 -63.8001
L41.3034 -63.9054
L40.8139 -64.0022
L40.3229 -64.0905
L39.8306 -64.1702
L39.3372 -64.2414
L38.8427 -64.3039
L38.3473 -64.3579
L37.8513 -64.4032
L37.3547 -64.4398
L36.8576 -64.4678
L36.3603 -64.4871
L35.8629 -64.4977
L35.3655 -64.4997
L34.8684 -64.4929
L34.3715 -64.4775
L33.8752 -64.4534
L33.3795 -64.4207
L32.8846 -64.3793
L32.3907 -64.3292
L31.8979 -64.2705
L31.4063 -64.2032
L30.9161 -64.1273
L30.4274 -64.0429
L29.9405 -63.9499
L29.4554 -63.8484
L28.9723 -63.7384
L28.4913 -63.6199
L28.0126 -63.4931
L27.5364 -63.3579
L27.0627 -63.2143
L26.5918 -63.0624
L26.1237 -62.9023
L25.6586 -62.734
L25.1967 -62.5576
L24.7381 -62.3731
L24.2829 -62.1805
L23.8313 -61.98
L23.3833 -61.7715
L22.9393 -61.5552
L22.4992 -61.3312
L22.0632 -61.0994
L21.6314 -60.8599
L21.2041 -60.6129
L20.7812 -60.3584
L20.363 -60.0964
L19.9495 -59.8272
L19.541 -59.5506
L19.1374 -59.2669
L18.739 -58.9761
L18.3458 -58.6783
L17.958 -58.3736
L17.5757 -58.0621
L17.1991 -57.7439
L16.8281 -57.419
L16.463 -57.0876
L16.1038 -56.7498
L15.7507 -56.4057
L15.4038 -56.0554
L15.0632 -55.6989
L14.7289 -55.3365
L14.4011 -54.9681
L14.0799 -54.594
L13.7653 -54.2142
L13.4575 -53.8289
L13.1566 -53.4381
L12.8627 -53.042
L12.5758 -52.6408
L12.296 -52.2344
L12.0235 -51.8232
z
" id="C0_1_13d9368167"/>
     <path d="
M8.25257 -29.5092
L8.4958 -29.1124
L8.74312 -28.7206
L8.99433 -28.3339
L9.24923 -27.9529
L9.50764 -27.5778
L9.76935 -27.2087
L10.0341 -26.846
L10.3018 -26.4897
L10.5722 -26.14
L10.845 -25.7969
L11.1201 -25.4606
L11.3973 -25.1309
L11.6764 -24.8081
L11.9573 -24.492
L12.2397 -24.1826
L12.5235 -23.88
L12.8086 -23.584
L13.0947 -23.2946
L13.3819 -23.0117
L13.6699 -22.7352
L13.9586 -22.4651
L14.248 -22.2013
L14.5378 -21.9436
L14.8281 -21.6919
L15.1188 -21.4463
L15.4096 -21.2065
L15.7007 -20.9724
L15.9919 -20.7439
L16.2832 -20.521
L16.5744 -20.3034
L16.8656 -20.0912
L17.1568 -19.8841
L17.4478 -19.6821
L17.7387 -19.4851
L18.0295 -19.293
L18.3201 -19.1055
L18.6104 -18.9228
L18.9006 -18.7446
L19.1905 -18.5708
L19.4803 -18.4014
L19.7698 -18.2362
L20.0591 -18.0752
L20.3482 -17.9183
L20.6372 -17.7654
L20.9259 -17.6163
L21.2145 -17.4711
L21.503 -17.3297
L21.7913 -17.1919
L22.0796 -17.0577
L22.3678 -16.927
L22.6559 -16.7998
L22.944 -16.676
L23.2322 -16.5556
L23.5204 -16.4384
L23.8087 -16.3244
L24.0972 -16.2136
L24.3858 -16.1059
L24.6746 -16.0013
L24.9637 -15.8997
L25.2531 -15.8011
L25.5428 -15.7054
L25.8329 -15.6127
L26.1234 -15.5228
L26.4144 -15.4357
L26.7059 -15.3515
L26.998 -15.2701
L27.2906 -15.1914
L27.584 -15.1155
L27.8781 -15.0423
L28.1729 -14.9718
L28.4686 -14.904
L28.7651 -14.8389
L29.0626 -14.7765
L29.3611 -14.7168
L29.6605 -14.6597
L29.9611 -14.6053
L30.2628 -14.5536
L30.5657 -14.5046
L30.8699 -14.4583
L31.1754 -14.4147
L31.4823 -14.3738
L31.7905 -14.3356
L32.1003 -14.3002
L32.4116 -14.2676
L32.7244 -14.2378
L33.039 -14.2109
L33.3552 -14.1868
L33.6732 -14.1656
L33.993 -14.1473
L34.3146 -14.132
L34.6382 -14.1198
L34.9638 -14.1106
L35.2914 -14.1045
L35.621 -14.1016
L35.9528 -14.102
L36.2867 -14.1056
L36.6229 -14.1125
L36.9613 -14.1229
L37.302 -14.1367
L37.645 -14.1541
L37.9905 -14.1751
L38.3383 -14.1998
L38.6886 -14.2282
L39.0413 -14.2605
L39.3966 -14.2967
L39.7543 -14.337
L40.1146 -14.3813
L40.4775 -14.4298
L40.8428 -14.4826
L41.2108 -14.5397
L41.5812 -14.6013
L41.9542 -14.6675
L42.3297 -14.7382
L42.7077 -14.8137
L43.0882 -14.894
L43.4711 -14.9792
L43.8563 -15.0693
L44.2438 -15.1645
L44.6336 -15.2648
L45.0255 -15.3703
L45.4194 -15.481
L45.8153 -15.597
L46.2131 -15.7183
L46.6126 -15.845
L47.0136 -15.9771
L47.4161 -16.1145
L47.8198 -16.2573
L48.2246 -16.4053
L48.6302 -16.5585
L49.0366 -16.7169
L49.4433 -16.8803
L49.8502 -17.0485
L50.2571 -17.2213
L50.6636 -17.3985
L51.0695 -17.5798
L51.4744 -17.7648
L51.8781 -17.9531
L52.2801 -18.1443
L52.6803 -18.3379
L53.0781 -18.5331
L53.4732 -18.7293
L53.8652 -18.9257
L54.2538 -19.1215
L54.6385 -19.3156
L55.019 -19.5071
L55.3947 -19.6947
L55.7654 -19.8772
L56.1306 -20.0532
L56.4899 -20.2215
L56.8429 -20.3806
L57.1894 -20.5289
L57.5288 -20.6652
L57.861 -20.7879
L58.1856 -20.8958
L58.5023 -20.9877
L58.811 -21.0626
L59.1114 -21.1197
L59.4034 -21.1584
L59.6869 -21.1783
L59.9617 -21.1793
L60.0405 -21.1614
L59.7697 -20.6929
L59.4916 -20.2757
L59.2064 -19.8633
L58.9141 -19.4557
L58.6149 -19.0532
L58.3087 -18.6559
L57.9958 -18.2639
L57.6762 -17.8772
L57.3499 -17.4961
L57.0172 -17.1206
L56.678 -16.7509
L56.3326 -16.387
L55.981 -16.0291
L55.6232 -15.6773
L55.2595 -15.3317
L54.89 -14.9924
L54.5147 -14.6595
L54.1337 -14.333
L53.7472 -14.0132
L53.3553 -13.7001
L52.9581 -13.3937
L52.5558 -13.0943
L52.1484 -12.8018
L51.7361 -12.5164
L51.319 -12.2382
L50.8973 -11.9672
L50.471 -11.7035
L50.0402 -11.4472
L49.6053 -11.1984
L49.1661 -10.9571
L48.723 -10.7235
L48.276 -10.4975
L47.8252 -10.2794
L47.3708 -10.069
L46.913 -9.86662
L46.4519 -9.67215
L45.9875 -9.4857
L45.5202 -9.30733
L45.0499 -9.13708
L44.5769 -8.97503
L44.1012 -8.8212
L43.6231 -8.67565
L43.1427 -8.53843
L42.6601 -8.40957
L42.1754 -8.28911
L41.6889 -8.1771
L41.2007 -8.07356
L40.7108 -7.97853
L40.2196 -7.89203
L39.727 -7.8141
L39.2333 -7.74475
L38.7387 -7.68401
L38.2432 -7.63189
L37.747 -7.58841
L37.2502 -7.55359
L36.7531 -7.52744
L36.2558 -7.50995
L35.7584 -7.50115
L35.261 -7.50102
L34.7639 -7.50958
L34.2672 -7.52682
L33.771 -7.55273
L33.2755 -7.5873
L32.7808 -7.63053
L32.287 -7.6824
L31.7944 -7.7429
L31.3031 -7.812
L30.8133 -7.88969
L30.325 -7.97594
L29.8384 -8.07073
L29.3537 -8.17403
L28.871 -8.2858
L28.3905 -8.40602
L27.9124 -8.53464
L27.4366 -8.67163
L26.9635 -8.81694
L26.4932 -8.97053
L26.0257 -9.13235
L25.5613 -9.30236
L25.1001 -9.4805
L24.6422 -9.66672
L24.1877 -9.86096
L23.7368 -10.0632
L23.2897 -10.2733
L22.8465 -10.4912
L22.4072 -10.7169
L21.9721 -10.9503
L21.5413 -11.1914
L21.1148 -11.44
L20.6929 -11.6961
L20.2757 -11.9595
L19.8633 -12.2303
L19.4557 -12.5084
L19.0532 -12.7936
L18.6559 -13.0859
L18.2639 -13.3851
L17.8772 -13.6913
L17.4961 -14.0042
L17.1206 -14.3238
L16.7509 -14.6501
L16.387 -14.9828
L16.0291 -15.322
L15.6773 -15.6674
L15.3317 -16.019
L14.9924 -16.3768
L14.6595 -16.7405
L14.333 -17.11
L14.0132 -17.4853
L13.7001 -17.8663
L13.3937 -18.2528
L13.0943 -18.6447
L12.8018 -19.0419
L12.5164 -19.4442
L12.2382 -19.8516
L11.9672 -20.2639
L11.7035 -20.681
L11.4472 -21.1027
L11.1984 -21.529
L10.9571 -21.9598
L10.7235 -22.3947
L10.4975 -22.8339
L10.2794 -23.277
L10.069 -23.724
L9.86662 -24.1748
L9.67215 -24.6292
L9.4857 -25.087
L9.30733 -25.5481
L9.13708 -26.0125
L8.97503 -26.4798
L8.8212 -26.9501
L8.67565 -27.4231
L8.53843 -27.8988
L8.40957 -28.3769
z
" id="C0_2_3b84b31ce5"/>
    </defs>
    <g clip-path="url(#p1bffca34e9)">
     <use style="fill:#ffffff;stroke:#000000;stroke-width:2.0;" x="0.0" xlink:href="#C0_0_a811fe30f3" y="72.0"/>
    </g>
    <g clip-path="url(#p1bffca34e9)">
     <use style="fill:#ff0000;stroke:#000000;stroke-width:2.0;" x="0.0" xlink:href="#C0_1_13d9368167" y="72.0"/>
    </g>
    <g clip-path="url(#p1bffca34e9)">
     <use style="fill:#ff0000;stroke:#000000;stroke-width:2.0;" x="0.0" xlink:href="#C0_2_3b84b31ce5" y="72.0"/>
    </g>
   </g>
  </g>
 </g>
 <defs>
  <clipPath id="p1bffca34e9">
   <rect height="72.0" width="72.0" x="0.0" y="0.0"/>
  </clipPath>
 </defs>
</svg>
