<?xml version="1.0" encoding="utf-8" standalone="no"?>
<!DOCTYPE svg PUBLIC "-//W3C//DTD SVG 1.1//EN"
  "http://www.w3.org/Graphics/SVG/1.1/DTD/svg11.dtd">
<!-- Created with matplotlib (http://matplotlib.org/) -->
<svg height="72pt" version="1.1" viewBox="0 0 72 72" width="72pt" xmlns="http://www.w3.org/2000/svg" xmlns:xlink="http://www.w3.org/1999/xlink">
 <defs>
  <style type="text/css">
*{stroke-linecap:butt;stroke-linejoin:round;}
  </style>
 </defs>
 <g id="figure_1">
  <g id="patch_1">
   <path d="
M0 72
L72 72
L72 0
L0 0
z
" style="fill:none;"/>
  </g>
  <g id="axes_1">
   <g id="PatchCollection_1">
    <defs>
     <path d="
M36 -7.5
C43.5583 -7.5 50.808 -10.5029 56.1525 -15.8475
C61.4971 -21.192 64.5 -28.4417 64.5 -36
C64.5 -43.5583 61.4971 -50.808 56.1525 -56.1525
C50.808 -61.4971 43.5583 -64.5 36 -64.5
C28.4417 -64.5 21.192 -61.4971 15.8475 -56.1525
C10.5029 -50.808 7.5 -43.5583 7.5 -36
C7.5 -28.4417 10.5029 -21.192 15.8475 -15.8475
C21.192 -10.5029 28.4417 -7.5 36 -7.5
z
" id="C0_0_a811fe30f3"/>
     <path d="
M19.8309 -12.6312
L19.854 -12.839
L19.8795 -13.0461
L19.9073 -13.2526
L19.9374 -13.4586
L19.9697 -13.664
L20.0042 -13.869
L20.0408 -14.0735
L20.0795 -14.2776
L20.1202 -14.4814
L20.1629 -14.6849
L20.2076 -14.8881
L20.2541 -15.0911
L20.3026 -15.2939
L20.353 -15.4966
L20.4052 -15.6991
L20.4593 -15.9017
L20.5151 -16.1042
L20.5728 -16.3068
L20.6934 -16.5095
L20.7564 -16.7123
L20.8211 -16.9152
L20.8877 -17.1184
L20.9559 -17.3218
L21.0259 -17.5256
L21.0977 -17.7296
L21.1713 -17.9341
L21.2466 -18.139
L21.3237 -18.3443
L21.4026 -18.5501
L21.4834 -18.7565
L21.5659 -18.9635
L21.6503 -19.1711
L21.7365 -19.3794
L21.8246 -19.5884
L21.9146 -19.7982
L22.0065 -20.0088
L22.1003 -20.2202
L22.1961 -20.4324
L22.2939 -20.6456
L22.3937 -20.8597
L22.4956 -21.0749
L22.5996 -21.291
L22.7056 -21.5082
L22.8139 -21.7265
L22.9243 -21.946
L23.0369 -22.1666
L23.1518 -22.3884
L23.269 -22.6114
L23.3885 -22.8357
L23.5104 -23.0612
L23.6348 -23.2881
L23.7616 -23.5163
L23.8909 -23.7459
L24.0229 -23.9768
L24.1574 -24.2091
L24.2946 -24.4429
L24.4345 -24.678
L24.5772 -24.9146
L24.7226 -25.1526
L24.871 -25.392
L25.0223 -25.6328
L25.1765 -25.8751
L25.3338 -26.1188
L25.4941 -26.3638
L25.6576 -26.6102
L25.8243 -26.8579
L25.9942 -27.1069
L26.1674 -27.3572
L26.344 -27.6086
L26.524 -27.8611
L26.7074 -28.1147
L26.8943 -28.3693
L27.0848 -28.6247
L27.2789 -28.8809
L27.4766 -29.1378
L27.678 -29.3951
L27.8832 -29.6529
L28.0922 -29.9108
L28.305 -30.1688
L28.5216 -30.4267
L28.7421 -30.6841
L28.9666 -30.941
L29.1951 -31.1971
L29.4275 -31.452
L29.6639 -31.7055
L29.9044 -31.9572
L30.1489 -32.2069
L30.3975 -32.4542
L30.6501 -32.6986
L30.9068 -32.9398
L31.1676 -33.1772
L31.4325 -33.4105
L31.7014 -33.6391
L31.9744 -33.8625
L32.2514 -34.0801
L32.5324 -34.2915
L32.8174 -34.4959
L33.1062 -34.6928
L33.3989 -34.8816
L33.6954 -35.0617
L33.9956 -35.2324
L34.2994 -35.3932
L34.6067 -35.5435
L34.9175 -35.6827
L35.2314 -35.8103
L35.5485 -35.9259
L35.8685 -36.0291
L36.1912 -36.1195
L36.5165 -36.1969
L36.844 -36.2611
L37.1736 -36.312
L37.5051 -36.3496
L37.8381 -36.3741
L38.1723 -36.3855
L38.5075 -36.3841
L38.8435 -36.3703
L39.1798 -36.3443
L39.5163 -36.3067
L39.8526 -36.2579
L40.1884 -36.1983
L40.5235 -36.1287
L40.8576 -36.0493
L41.1905 -35.961
L41.5218 -35.8641
L41.8514 -35.7592
L42.1791 -35.6469
L42.5046 -35.5278
L42.8278 -35.4022
L43.1484 -35.2707
L43.4664 -35.1338
L43.7815 -34.9919
L44.0937 -34.8454
L44.4027 -34.6947
L44.7086 -34.5403
L45.0111 -34.3824
L45.3102 -34.2214
L45.6059 -34.0575
L45.8981 -33.8912
L46.1866 -33.7226
L46.4715 -33.552
L46.7528 -33.3796
L47.0304 -33.2057
L47.3043 -33.0304
L47.5744 -32.854
L47.8408 -32.6765
L48.1035 -32.4981
L48.3625 -32.3191
L48.6178 -32.1395
L48.8693 -31.9593
L49.1173 -31.7789
L49.3615 -31.5981
L49.6022 -31.4172
L49.8393 -31.2362
L50.0729 -31.0551
L50.3029 -30.8741
L50.5295 -30.6932
L50.7527 -30.5125
L50.9725 -30.3319
L51.189 -30.1515
L51.4022 -29.9714
L51.6122 -29.7916
L51.819 -29.6121
L52.0227 -29.4329
L52.2232 -29.254
L52.4208 -29.0755
L52.6154 -28.8974
L52.807 -28.7196
L52.9958 -28.5422
L53.1817 -28.3652
L53.3649 -28.1885
L53.5453 -28.0121
L53.723 -27.8361
L53.8981 -27.6604
L54.0706 -27.4851
L54.2406 -27.31
L54.408 -27.1352
L54.573 -26.9607
L54.7356 -26.7864
L54.8958 -26.6123
L55.0536 -26.4385
L55.2092 -26.2648
L55.3625 -26.0912
L55.5136 -25.9178
L55.6624 -25.7444
L55.8092 -25.5711
L55.9537 -25.3978
L56.0962 -25.2246
L56.2367 -25.0512
L56.375 -24.8779
L56.5114 -24.7044
L56.6457 -24.5307
L56.7781 -24.3569
L56.9085 -24.1829
L57.037 -24.0086
L57.1636 -23.834
L57.2882 -23.6591
L57.411 -23.4838
L57.5318 -23.3081
L57.6508 -23.132
L57.7679 -22.9553
L57.8831 -22.7781
L57.9964 -22.6003
L58.1079 -22.4218
L58.2175 -22.2427
L58.3252 -22.0628
L58.431 -21.8822
L58.5348 -21.7007
L58.6368 -21.5183
L58.7368 -21.335
L58.8348 -21.1507
L58.9308 -20.9654
L59.0248 -20.7789
L59.1168 -20.5913
L59.2066 -20.4025
L59.2943 -20.2123
L59.3799 -20.0209
L59.1525 -19.828
L58.859 -19.3804
L58.5584 -18.9789
L58.251 -18.5826
L57.9368 -18.1915
L57.616 -17.8059
L57.2885 -17.4258
L56.9546 -17.0514
L56.6142 -16.6827
L56.2676 -16.32
L55.9149 -15.9632
L55.556 -15.6125
L55.1912 -15.2681
L54.8206 -14.9299
L54.4442 -14.5982
L54.0622 -14.273
L53.6747 -13.9544
L53.2818 -13.6426
L52.8837 -13.3375
L52.4804 -13.0393
L52.0721 -12.7482
L51.6588 -12.4641
L51.2409 -12.1872
L50.8183 -11.9175
L50.3911 -11.6552
L49.9596 -11.4003
L49.5238 -11.1529
L49.0839 -10.913
L48.6401 -10.6808
L48.1924 -10.4563
L47.7409 -10.2396
L47.2859 -10.0308
L46.8275 -9.82982
L46.3657 -9.63684
L45.9008 -9.45189
L45.4329 -9.27502
L44.9621 -9.1063
L44.4885 -8.94577
L44.0124 -8.79348
L43.5339 -8.64948
L43.053 -8.51381
L42.57 -8.38651
L42.085 -8.26763
L41.5982 -8.15719
L41.1096 -8.05523
L40.6195 -7.96178
L40.128 -7.87688
L39.6352 -7.80054
L39.1413 -7.73279
L38.6465 -7.67365
L38.1509 -7.62314
L37.6545 -7.58128
L37.1577 -7.54807
L36.6606 -7.52352
L36.1632 -7.50766
L35.6658 -7.50047
L35.1685 -7.50196
L34.6714 -7.51213
L34.1748 -7.53098
L33.6787 -7.5585
L33.1833 -7.59469
L32.6888 -7.63953
L32.1953 -7.69301
L31.7029 -7.75511
L31.2119 -7.82581
L30.7223 -7.9051
L30.2343 -7.99294
L29.748 -8.08931
L29.2637 -8.19419
L28.7814 -8.30754
L28.3014 -8.42932
L27.8236 -8.5595
L27.3484 -8.69804
L26.8758 -8.8449
L26.406 -9.00002
L25.9391 -9.16337
L25.4752 -9.3349
L25.0146 -9.51455
L24.5573 -9.70227
L24.1035 -9.89799
L23.6533 -10.1017
L23.2069 -10.3132
L22.7644 -10.5326
L22.3259 -10.7598
L21.8916 -10.9946
L21.4616 -11.2371
L21.036 -11.4871
L20.6149 -11.7445
L20.1986 -12.0094
z
" id="C0_1_7311e9d795"/>
     <path d="
M12.7132 -52.2433
L12.9261 -52.2314
L13.1407 -52.218
L13.357 -52.2032
L13.5751 -52.1868
L13.795 -52.169
L14.0168 -52.1498
L14.2406 -52.129
L14.4663 -52.1068
L14.6941 -52.083
L14.9239 -52.0578
L15.156 -52.0311
L15.3902 -52.0029
L15.6267 -51.9731
L15.8655 -51.9419
L16.1066 -51.9091
L16.3502 -51.8748
L16.5963 -51.839
L16.8449 -51.8016
L17.096 -51.7627
L17.3498 -51.7223
L17.6063 -51.6803
L17.8655 -51.6367
L18.1274 -51.5917
L18.3922 -51.5451
L18.6598 -51.4969
L18.9304 -51.4473
L19.2038 -51.3961
L19.4802 -51.3434
L19.7597 -51.2893
L20.0421 -51.2337
L20.3276 -51.1767
L20.6162 -51.1183
L20.9079 -51.0585
L21.2027 -50.9975
L21.5006 -50.9351
L21.8016 -50.8717
L22.1058 -50.807
L22.413 -50.7414
L22.7234 -50.6748
L23.0367 -50.6073
L23.3532 -50.5391
L23.6726 -50.4703
L23.995 -50.401
L24.3202 -50.3314
L24.6483 -50.2616
L24.9792 -50.1919
L25.3127 -50.1225
L25.6488 -50.0535
L25.9874 -49.9853
L26.3284 -49.9181
L26.6716 -49.8522
L27.0169 -49.7879
L27.3642 -49.7256
L27.7132 -49.6657
L28.0639 -49.6084
L28.4161 -49.5543
L28.7695 -49.5038
L29.124 -49.4574
L29.4794 -49.4154
L29.8355 -49.3785
L30.1919 -49.3471
L30.5487 -49.3218
L30.9054 -49.3029
L31.2619 -49.2911
L31.618 -49.2868
L31.9735 -49.2904
L32.3281 -49.3024
L32.6816 -49.3231
L33.0339 -49.3529
L33.3847 -49.3919
L33.7339 -49.4404
L34.0814 -49.4985
L34.427 -49.5661
L34.7706 -49.6433
L35.112 -49.7299
L35.4512 -49.8256
L35.7881 -49.9302
L36.1227 -50.0434
L36.4548 -50.1646
L36.7844 -50.2936
L37.1116 -50.4297
L37.4361 -50.5725
L37.7581 -50.7215
L38.0775 -50.8761
L38.3943 -51.0357
L38.7084 -51.1998
L39.0198 -51.3679
L39.3286 -51.5394
L39.6347 -51.7139
L39.9381 -51.8909
L40.2388 -52.07
L40.5368 -52.2507
L40.832 -52.4326
L41.1245 -52.6154
L41.4142 -52.7986
L41.7012 -52.9821
L41.9855 -53.1654
L42.2669 -53.3484
L42.5457 -53.5307
L42.8216 -53.7122
L43.0949 -53.8926
L43.3653 -54.0718
L43.6331 -54.2496
L43.8981 -54.4258
L44.1604 -54.6003
L44.42 -54.7731
L44.677 -54.9439
L44.9313 -55.1127
L45.183 -55.2795
L45.4321 -55.4441
L45.6786 -55.6065
L45.9226 -55.7667
L46.1641 -55.9246
L46.4031 -56.0802
L46.6396 -56.2334
L46.8738 -56.3843
L47.1056 -56.5328
L47.3351 -56.6789
L47.5622 -56.8227
L47.7872 -56.964
L48.01 -57.103
L48.2306 -57.2397
L48.449 -57.3739
L48.6655 -57.5059
L48.8799 -57.6355
L49.0923 -57.7628
L49.3029 -57.8878
L49.5115 -58.0106
L49.7183 -58.1311
L49.9234 -58.2494
L50.1267 -58.3655
L50.3283 -58.4794
L50.5283 -58.5912
L50.7268 -58.7009
L50.9237 -58.8084
L51.1191 -58.9139
L51.3131 -59.0174
L51.5056 -59.1188
L51.6969 -59.2182
L51.8869 -59.3157
L51.7202 -59.4112
L51.3029 -59.7723
L50.881 -60.0431
L50.4545 -60.3065
L50.0237 -60.5625
L49.5885 -60.811
L49.1492 -61.052
L48.7059 -61.2853
L48.2588 -61.511
L47.8079 -61.7288
L47.3534 -61.9389
L46.8954 -62.141
L46.4341 -62.3351
L45.9697 -62.5213
L45.5022 -62.6993
L45.0318 -62.8693
L44.5587 -63.031
L44.083 -63.1845
L43.6048 -63.3298
L43.1242 -63.4667
L42.6416 -63.5952
L42.1568 -63.7153
L41.6703 -63.827
L41.1819 -63.9302
L40.6921 -64.0249
L40.2007 -64.1111
L39.7081 -64.1887
L39.2144 -64.2577
L38.7197 -64.3182
L38.2242 -64.3699
L37.7279 -64.4131
L37.2312 -64.4476
L36.7341 -64.4734
L36.2367 -64.4905
L35.7393 -64.499
L35.242 -64.4988
L34.7449 -64.4899
L34.2482 -64.4723
L33.752 -64.4461
L33.2565 -64.4112
L32.7618 -64.3676
L32.2681 -64.3154
L31.7756 -64.2546
L31.2843 -64.1852
L30.7945 -64.1072
L30.3063 -64.0206
L29.8198 -63.9255
L29.3352 -63.8218
L28.8526 -63.7097
L28.3722 -63.5892
L27.8941 -63.4603
L27.4185 -63.323
L26.9455 -63.1773
L26.4752 -63.0234
L26.0079 -62.8613
L25.5436 -62.691
L25.0825 -62.5125
L24.6247 -62.326
L24.1704 -62.1314
L23.7196 -61.9289
L23.2727 -61.7185
L22.8295 -61.5003
L22.3905 -61.2743
L21.9555 -61.0406
L21.5248 -60.7992
L21.0986 -60.5504
L20.6769 -60.294
L20.2598 -60.0302
L19.8476 -59.7591
L19.4402 -59.4808
L19.0379 -59.1953
L18.6408 -58.9028
L18.249 -58.6033
L17.8625 -58.2969
L17.4816 -57.9837
L17.1064 -57.6638
L16.7369 -57.3373
L16.3732 -57.0043
L16.0156 -56.6649
L15.664 -56.3192
L15.3186 -55.9674
L14.9795 -55.6094
L14.6468 -55.2455
L14.3207 -54.8757
L14.0011 -54.5002
L13.6882 -54.119
L13.3821 -53.7323
L13.083 -53.3402
z
" id="C0_2_b9e3fe4459"/>
    </defs>
    <g clip-path="url(#p1bffca34e9)">
     <use style="fill:#ff0000;stroke:#000000;stroke-width:2.0;" x="0.0" xlink:href="#C0_0_a811fe30f3" y="72.0"/>
    </g>
    <g clip-path="url(#p1bffca34e9)">
     <use style="fill:#ffffff;stroke:#000000;stroke-width:2.0;" x="0.0" xlink:href="#C0_1_7311e9d795" y="72.0"/>
    </g>
    <g clip-path="url(#p1bffca34e9)">
     <use style="fill:#ffffff;stroke:#000000;stroke-width:2.0;" x="0.0" xlink:href="#C0_2_b9e3fe4459" y="72.0"/>
    </g>
   </g>
  </g>
 </g>
 <defs>
  <clipPath id="p1bffca34e9">
   <rect height="72.0" width="72.0" x="0.0" y="0.0"/>
  </clipPath>
 </defs>
</svg>
