<?xml version="1.0" encoding="utf-8" standalone="no"?>
<!DOCTYPE svg PUBLIC "-//W3C//DTD SVG 1.1//EN"
  "http://www.w3.org/Graphics/SVG/1.1/DTD/svg11.dtd">
<!-- Created with matplotlib (http://matplotlib.org/) -->
<svg height="72pt" version="1.1" viewBox="0 0 72 72" width="72pt" xmlns="http://www.w3.org/2000/svg" xmlns:xlink="http://www.w3.org/1999/xlink">
 <defs>
  <style type="text/css">
*{stroke-linecap:butt;stroke-linejoin:round;}
  </style>
 </defs>
 <g id="figure_1">
  <g id="patch_1">
   <path d="
M0 72
L72 72
L72 0
L0 0
z
" style="fill:none;"/>
  </g>
  <g id="axes_1">
   <g id="PatchCollection_1">
    <defs>
     <path d="
M36 -7.5
C43.5583 -7.5 50.808 -10.5029 56.1525 -15.8475
C61.4971 -21.192 64.5 -28.4417 64.5 -36
C64.5 -43.5583 61.4971 -50.808 56.1525 -56.1525
C50.808 -61.4971 43.5583 -64.5 36 -64.5
C28.4417 -64.5 21.192 -61.4971 15.8475 -56.1525
C10.5029 -50.808 7.5 -43.5583 7.5 -36
C7.5 -28.4417 10.5029 -21.192 15.8475 -15.8475
C21.192 -10.5029 28.4417 -7.5 36 -7.5
z
" id="C0_0_a811fe30f3"/>
     <path d="
M28.8188 -8.57213
L28.5828 -8.91757
L28.3558 -9.26397
L28.1375 -9.61101
L27.9278 -9.95838
L27.7264 -10.3058
L27.5331 -10.653
L27.3476 -10.9997
L27.1697 -11.3457
L26.9992 -11.6909
L26.8358 -12.0349
L26.6794 -12.3777
L26.5296 -12.719
L26.3862 -13.0588
L26.249 -13.3968
L26.1178 -13.7331
L25.9924 -14.0674
L25.8726 -14.3998
L25.7582 -14.7301
L25.6489 -15.0582
L25.5446 -15.3842
L25.4451 -15.7079
L25.3502 -16.0294
L25.2598 -16.3486
L25.1736 -16.6655
L25.0916 -16.9801
L25.0136 -17.2923
L24.9393 -17.6022
L24.8688 -17.9099
L24.8018 -18.2152
L24.7383 -18.5183
L24.678 -18.8191
L24.621 -19.1177
L24.5669 -19.4141
L24.5159 -19.7084
L24.4677 -20.0005
L24.4223 -20.2906
L24.3795 -20.5787
L24.3393 -20.8648
L24.3016 -21.149
L24.2663 -21.4313
L24.2333 -21.7118
L24.2026 -21.9905
L24.174 -22.2675
L24.1476 -22.5428
L24.1232 -22.8165
L24.1009 -23.0887
L24.0805 -23.3595
L24.062 -23.6288
L24.0453 -23.8967
L24.0304 -24.1633
L24.0173 -24.4288
L24.0059 -24.693
L23.9961 -24.9561
L23.988 -25.2182
L23.9815 -25.4793
L23.9765 -25.7395
L23.9731 -25.9988
L23.9713 -26.2573
L23.9709 -26.5151
L23.972 -26.7722
L23.9745 -27.0287
L23.9785 -27.2847
L23.9838 -27.5402
L23.9906 -27.7953
L23.9988 -28.0501
L24.0083 -28.3046
L24.0192 -28.5588
L24.0315 -28.8129
L24.0451 -29.067
L24.0764 -29.321
L24.0941 -29.575
L24.1132 -29.8292
L24.1336 -30.0835
L24.1553 -30.3381
L24.1784 -30.593
L24.2029 -30.8483
L24.2288 -31.104
L24.2561 -31.3602
L24.2848 -31.6169
L24.3149 -31.8743
L24.3465 -32.1324
L24.3795 -32.3913
L24.414 -32.6511
L24.45 -32.9117
L24.4875 -33.1733
L24.5266 -33.4359
L24.5673 -33.6997
L24.6095 -33.9646
L24.6535 -34.2308
L24.699 -34.4983
L24.7463 -34.7672
L24.7954 -35.0375
L24.8462 -35.3094
L24.8988 -35.5828
L24.9533 -35.8579
L25.0098 -36.1348
L25.0681 -36.4134
L25.1285 -36.6939
L25.191 -36.9763
L25.2556 -37.2608
L25.3223 -37.5472
L25.3913 -37.8359
L25.4625 -38.1267
L25.5361 -38.4198
L25.6122 -38.7152
L25.6907 -39.013
L25.7718 -39.3133
L25.8555 -39.616
L25.9419 -39.9214
L26.0312 -40.2293
L26.1233 -40.54
L26.2183 -40.8533
L26.3164 -41.1695
L26.4176 -41.4884
L26.522 -41.8102
L26.6297 -42.1349
L26.7408 -42.4625
L26.8555 -42.7931
L26.9737 -43.1266
L27.0956 -43.4631
L27.2213 -43.8027
L27.3509 -44.1452
L27.4845 -44.4907
L27.6222 -44.8392
L27.7642 -45.1907
L27.9104 -45.5451
L28.061 -45.9024
L28.2162 -46.2625
L28.376 -46.6254
L28.5405 -46.9911
L28.7098 -47.3593
L28.884 -47.7301
L29.0632 -48.1033
L29.2474 -48.4788
L29.4368 -48.8564
L29.6314 -49.2361
L29.8313 -49.6176
L30.0364 -50.0007
L30.2469 -50.3853
L30.4627 -50.7711
L30.6839 -51.1579
L30.9104 -51.5455
L31.1422 -51.9335
L31.3791 -52.3218
L31.6211 -52.7099
L31.8681 -53.0976
L32.1196 -53.4846
L32.3756 -53.8704
L32.6354 -54.2547
L32.8985 -54.6371
L33.1641 -55.0172
L33.4309 -55.3945
L33.6972 -55.7685
L33.9605 -56.1386
L34.2164 -56.504
L34.4581 -56.8639
L34.674 -57.217
L34.8442 -57.5615
L34.9374 -57.8943
L34.9164 -58.2109
L34.7612 -58.5061
L34.4877 -58.7763
L34.131 -59.0229
L33.7211 -59.2498
L33.2776 -59.4604
L32.8121 -59.6568
L32.3318 -59.8403
L31.8409 -60.0115
L31.3425 -60.1707
L30.8387 -60.3182
L30.3309 -60.4541
L29.8203 -60.5784
L29.308 -60.6911
L28.7947 -60.7924
L28.281 -60.8822
L27.7676 -60.9607
L27.2551 -61.0278
L26.7438 -61.0837
L26.2342 -61.1284
L25.7267 -61.1622
L25.2217 -61.185
L24.7195 -61.197
L24.2205 -61.1985
L23.7248 -61.1894
L23.2327 -61.1701
L22.7445 -61.1407
L22.2536 -61.1013
L21.82 -60.9657
L21.3907 -60.722
L20.9659 -60.4708
L20.5456 -60.2121
L20.13 -59.946
L19.7193 -59.6727
L19.3135 -59.3921
L18.9129 -59.1044
L18.5174 -58.8096
L18.1272 -58.508
L17.7425 -58.1994
L17.3634 -57.8841
L16.9899 -57.5621
L16.6222 -57.2336
L16.2604 -56.8986
L15.9047 -56.5572
L15.555 -56.2096
L15.2116 -55.8558
L14.8745 -55.496
L14.5439 -55.1302
L14.2197 -54.7586
L13.9023 -54.3813
L13.5915 -53.9983
L13.2876 -53.6099
L12.9906 -53.2162
L12.7006 -52.8172
L12.4177 -52.413
L12.142 -52.0039
L11.8735 -51.5899
L11.6124 -51.1711
L11.3588 -50.7478
L11.1126 -50.3199
L10.874 -49.8877
L10.6431 -49.4512
L10.4199 -49.0107
L10.2045 -48.5661
L9.99692 -48.1178
L9.79728 -47.6657
L9.60563 -47.2102
L9.42202 -46.7511
L9.2465 -46.2889
L9.07913 -45.8234
L8.91996 -45.355
L8.76904 -44.8838
L8.62642 -44.4098
L8.49213 -43.9333
L8.36623 -43.4543
L8.24874 -42.9731
L8.1397 -42.4898
L8.03915 -42.0045
L7.94712 -41.5173
L7.86363 -41.0285
L7.78872 -40.5382
L7.72239 -40.0464
L7.66468 -39.5534
L7.61561 -39.0594
L7.57517 -38.5644
L7.5434 -38.0686
L7.5203 -37.5722
L7.50587 -37.0754
L7.50011 -36.5782
L7.50305 -36.0808
L7.51466 -35.5834
L7.53494 -35.0861
L7.5639 -34.5891
L7.60152 -34.0925
L7.6478 -33.5965
L7.7027 -33.1013
L7.76623 -32.6069
L7.83836 -32.1136
L7.91906 -31.6214
L8.00832 -31.1306
L8.10611 -30.6413
L8.21239 -30.1536
L8.32714 -29.6676
L8.45032 -29.1836
L8.58188 -28.7017
L8.7218 -28.222
L8.87003 -27.7447
L9.02653 -27.2699
L9.19124 -26.7977
L9.36411 -26.3284
L9.5451 -25.862
L9.73415 -25.3987
L9.9312 -24.9386
L10.1362 -24.4819
L10.3491 -24.0286
L10.5697 -23.5791
L10.7982 -23.1333
L11.0343 -22.6914
L11.278 -22.2536
L11.5292 -21.82
L11.7879 -21.3907
L12.054 -20.9659
L12.3273 -20.5456
L12.6079 -20.13
L12.8956 -19.7193
L13.1904 -19.3135
L13.492 -18.9129
L13.8006 -18.5174
L14.1159 -18.1272
L14.4379 -17.7425
L14.7664 -17.3634
L15.1014 -16.9899
L15.4428 -16.6222
L15.7904 -16.2604
L16.1442 -15.9047
L16.504 -15.555
L16.8698 -15.2116
L17.2414 -14.8745
L17.6187 -14.5439
L18.0017 -14.2197
L18.3901 -13.9023
L18.7838 -13.5915
L19.1828 -13.2876
L19.587 -12.9906
L19.9961 -12.7006
L20.4101 -12.4177
L20.8289 -12.142
L21.2522 -11.8735
L21.6801 -11.6124
L22.1123 -11.3588
L22.5488 -11.1126
L22.9893 -10.874
L23.4339 -10.6431
L23.8822 -10.4199
L24.3343 -10.2045
L24.7898 -9.99692
L25.2489 -9.79728
L25.7111 -9.60563
L26.1766 -9.42202
L26.645 -9.2465
L27.1162 -9.07913
L27.5902 -8.91996
L28.0667 -8.76904
z
" id="C0_1_309c439e84"/>
     <path d="
M49.6698 -11.0751
L49.9658 -11.4523
L50.2498 -11.8292
L50.5222 -12.2057
L50.7834 -12.5813
L51.0337 -12.9559
L51.2735 -13.3292
L51.5031 -13.7011
L51.7227 -14.0712
L51.9329 -14.4396
L52.1339 -14.806
L52.326 -15.1704
L52.5095 -15.5325
L52.6848 -15.8924
L52.8521 -16.2498
L53.0117 -16.6049
L53.1639 -16.9574
L53.309 -17.3075
L53.4472 -17.655
L53.5787 -17.9999
L53.7039 -18.3422
L53.8228 -18.6819
L53.9359 -19.019
L54.0432 -19.3535
L54.145 -19.6854
L54.2414 -20.0148
L54.3327 -20.3417
L54.419 -20.6661
L54.5005 -20.9881
L54.5774 -21.3076
L54.6498 -21.6247
L54.7178 -21.9396
L54.7817 -22.2521
L54.8415 -22.5625
L54.8974 -22.8707
L54.9495 -23.1768
L54.9979 -23.4808
L55.0426 -23.7828
L55.084 -24.0829
L55.1219 -24.3811
L55.1565 -24.6776
L55.188 -24.9723
L55.2163 -25.2653
L55.2416 -25.5567
L55.2639 -25.8465
L55.2833 -26.1349
L55.2998 -26.4219
L55.3136 -26.7075
L55.3247 -26.9918
L55.3331 -27.275
L55.3389 -27.5569
L55.3421 -27.8379
L55.3428 -28.1178
L55.341 -28.3967
L55.3367 -28.6748
L55.33 -28.9521
L55.3209 -29.2286
L55.3094 -29.5045
L55.2955 -29.7797
L55.2793 -30.0545
L55.2608 -30.3287
L55.24 -30.6025
L55.2168 -30.876
L55.1914 -31.1493
L55.1636 -31.4223
L55.1335 -31.6952
L55.1012 -31.968
L55.0665 -32.2407
L55.0296 -32.5136
L54.9903 -32.7866
L54.9486 -33.0597
L54.9046 -33.3331
L54.8582 -33.6068
L54.8095 -33.8809
L54.7583 -34.1554
L54.7046 -34.4304
L54.6485 -34.706
L54.5899 -34.9822
L54.5287 -35.2592
L54.4649 -35.5368
L54.3985 -35.8153
L54.3294 -36.0947
L54.2576 -36.375
L54.183 -36.6563
L54.1056 -36.9387
L54.0253 -37.2222
L53.942 -37.5068
L53.8558 -37.7927
L53.7664 -38.0799
L53.6739 -38.3684
L53.5782 -38.6584
L53.4792 -38.9498
L53.3768 -39.2427
L53.271 -39.5371
L53.1615 -39.8332
L53.0485 -40.1309
L52.9317 -40.4303
L52.8111 -40.7314
L52.6865 -41.0343
L52.5579 -41.339
L52.4252 -41.6456
L52.2882 -41.9541
L52.1468 -42.2644
L52.0009 -42.5767
L51.8504 -42.8909
L51.6951 -43.2071
L51.535 -43.5252
L51.3698 -43.8454
L51.1996 -44.1675
L51.024 -44.4915
L50.843 -44.8175
L50.6564 -45.1454
L50.4642 -45.4753
L50.2661 -45.8069
L50.0619 -46.1404
L49.8517 -46.4757
L49.6351 -46.8126
L49.4121 -47.1511
L49.1825 -47.4912
L48.9461 -47.8327
L48.7029 -48.1755
L48.4527 -48.5195
L48.1953 -48.8645
L47.9306 -49.2105
L47.6585 -49.5572
L47.3789 -49.9044
L47.0917 -50.252
L46.7967 -50.5999
L46.4939 -50.9476
L46.1833 -51.295
L45.8647 -51.642
L45.5381 -51.988
L45.2035 -52.333
L44.861 -52.6767
L44.5105 -53.0186
L44.1521 -53.3585
L43.7858 -53.696
L43.412 -54.0309
L43.0306 -54.3627
L42.642 -54.6911
L42.2465 -55.0158
L41.8444 -55.3364
L41.4364 -55.6525
L41.0232 -55.9638
L40.6057 -56.2701
L40.1852 -56.571
L39.7636 -56.8664
L39.3438 -57.1562
L38.93 -57.4405
L38.5294 -57.7198
L38.1537 -57.9953
L37.8229 -58.2692
L37.5686 -58.5452
L37.4283 -58.8281
L37.422 -59.1206
L37.534 -59.4208
L37.7296 -59.7241
L37.9789 -60.0265
L38.2625 -60.3255
L38.569 -60.6194
L38.8915 -60.9069
L39.2259 -61.1874
L39.5693 -61.4603
L39.92 -61.7253
L40.2765 -61.9819
L40.638 -62.23
L41.0036 -62.4693
L41.3727 -62.6996
L41.7449 -62.9208
L42.1196 -63.1328
L42.4965 -63.3355
L43.3873 -63.5288
L43.8666 -63.5259
L44.3435 -63.3928
L44.8178 -63.2514
L45.2894 -63.1016
L45.7582 -62.9436
L46.2241 -62.7774
L46.6868 -62.603
L47.1463 -62.4205
L47.6024 -62.2299
L48.0549 -62.0314
L48.5038 -61.825
L48.9488 -61.6106
L49.39 -61.3885
L49.827 -61.1587
L50.2598 -60.9212
L50.6883 -60.676
L51.1123 -60.4234
L51.5317 -60.1634
L51.9464 -59.8959
L52.3562 -59.6212
L52.7611 -59.3393
L53.1608 -59.0503
L53.5553 -58.7543
L53.9445 -58.4513
L54.3281 -58.1415
L54.7063 -57.825
L55.0787 -57.5018
L55.4453 -57.172
L55.8059 -56.8358
L56.1606 -56.4933
L56.5091 -56.1445
L56.8513 -55.7896
L57.1872 -55.4286
L57.5167 -55.0618
L57.8396 -54.6891
L58.1558 -54.3107
L58.4653 -53.9268
L58.7679 -53.5374
L59.0637 -53.1427
L59.3523 -52.7427
L59.6339 -52.3376
L59.9083 -51.9276
L60.1754 -51.5127
L60.4351 -51.0931
L60.6874 -50.6688
L60.9322 -50.2402
L61.1693 -49.8071
L61.3988 -49.3699
L61.6206 -48.9286
L61.8346 -48.4834
L62.0407 -48.0343
L62.2388 -47.5816
L62.429 -47.1254
L62.6111 -46.6658
L62.7851 -46.2029
L62.951 -45.7369
L63.1086 -45.268
L63.258 -44.7962
L63.3991 -44.3217
L63.5318 -43.8447
L63.6562 -43.3654
L63.7721 -42.8838
L63.8796 -42.4
L63.9785 -41.9144
L64.069 -41.4269
L64.1509 -40.9378
L64.2242 -40.4472
L64.2889 -39.9552
L64.3451 -39.462
L64.3925 -38.9678
L64.4314 -38.4726
L64.4615 -37.9767
L64.483 -37.4802
L64.4959 -36.9833
L64.5 -36.486
L64.4955 -35.9886
L64.4822 -35.4913
L64.4603 -34.994
L64.4298 -34.4971
L64.3906 -34.0006
L64.3427 -33.5047
L64.2862 -33.0096
L64.2211 -32.5155
L64.1473 -32.0223
L64.065 -31.5304
L63.9742 -31.0398
L63.8748 -30.5508
L63.767 -30.0634
L63.6507 -29.5778
L63.5259 -29.0942
L63.3928 -28.6127
L63.2514 -28.1334
L63.1016 -27.6565
L62.9436 -27.1822
L62.7774 -26.7106
L62.603 -26.2418
L62.4205 -25.7759
L62.2299 -25.3132
L62.0314 -24.8537
L61.825 -24.3976
L61.6106 -23.9451
L61.3885 -23.4962
L61.1587 -23.0512
L60.9212 -22.61
L60.676 -22.173
L60.4234 -21.7402
L60.1634 -21.3117
L59.8959 -20.8877
L59.6212 -20.4683
L59.3393 -20.0536
L59.0503 -19.6438
L58.7543 -19.2389
L58.4513 -18.8392
L58.1415 -18.4447
L57.825 -18.0555
L57.5018 -17.6719
L57.172 -17.2937
L56.8358 -16.9213
L56.4933 -16.5547
L56.1445 -16.1941
L55.7896 -15.8394
L55.4286 -15.4909
L55.0618 -15.1487
L54.6891 -14.8128
L54.3107 -14.4833
L53.9268 -14.1604
L53.5374 -13.8442
L53.1427 -13.5347
L52.7427 -13.2321
L52.3376 -12.9363
L51.9276 -12.6477
L51.5127 -12.3661
L51.0931 -12.0917
L50.6688 -11.8246
L50.2402 -11.5649
z
" id="C0_2_2d94367549"/>
    </defs>
    <g clip-path="url(#p1bffca34e9)">
     <use style="fill:#ff0000;stroke:#000000;stroke-width:2.0;" x="0.0" xlink:href="#C0_0_a811fe30f3" y="72.0"/>
    </g>
    <g clip-path="url(#p1bffca34e9)">
     <use style="fill:#ffffff;stroke:#000000;stroke-width:2.0;" x="0.0" xlink:href="#C0_1_309c439e84" y="72.0"/>
    </g>
    <g clip-path="url(#p1bffca34e9)">
     <use style="fill:#ffffff;stroke:#000000;stroke-width:2.0;" x="0.0" xlink:href="#C0_2_2d94367549" y="72.0"/>
    </g>
   </g>
  </g>
 </g>
 <defs>
  <clipPath id="p1bffca34e9">
   <rect height="72.0" width="72.0" x="0.0" y="0.0"/>
  </clipPath>
 </defs>
</svg>
