<?xml version="1.0" encoding="utf-8" standalone="no"?>
<!DOCTYPE svg PUBLIC "-//W3C//DTD SVG 1.1//EN"
  "http://www.w3.org/Graphics/SVG/1.1/DTD/svg11.dtd">
<!-- Created with matplotlib (http://matplotlib.org/) -->
<svg height="72pt" version="1.1" viewBox="0 0 72 72" width="72pt" xmlns="http://www.w3.org/2000/svg" xmlns:xlink="http://www.w3.org/1999/xlink">
 <defs>
  <style type="text/css">
*{stroke-linecap:butt;stroke-linejoin:round;}
  </style>
 </defs>
 <g id="figure_1">
  <g id="patch_1">
   <path d="
M0 72
L72 72
L72 0
L0 0
z
" style="fill:none;"/>
  </g>
  <g id="axes_1">
   <g id="PatchCollection_1">
    <defs>
     <path d="
M36 -7.5
C43.5583 -7.5 50.808 -10.5029 56.1525 -15.8475
C61.4971 -21.192 64.5 -28.4417 64.5 -36
C64.5 -43.5583 61.4971 -50.808 56.1525 -56.1525
C50.808 -61.4971 43.5583 -64.5 36 -64.5
C28.4417 -64.5 21.192 -61.4971 15.8475 -56.1525
C10.5029 -50.808 7.5 -43.5583 7.5 -36
C7.5 -28.4417 10.5029 -21.192 15.8475 -15.8475
C21.192 -10.5029 28.4417 -7.5 36 -7.5
z
" id="C0_0_a811fe30f3"/>
     <path d="
M9.65998 -25.4269
L9.69999 -25.8604
L9.75225 -26.2878
L9.81601 -26.709
L9.89053 -27.1238
L9.97513 -27.5321
L10.0691 -27.9338
L10.172 -28.3288
L10.283 -28.7171
L10.4017 -29.0987
L10.5275 -29.4735
L10.66 -29.8415
L10.7987 -30.2029
L10.9432 -30.5577
L11.093 -30.9058
L11.2477 -31.2475
L11.4071 -31.5827
L11.5708 -31.9115
L11.7384 -32.2341
L11.9097 -32.5506
L12.0844 -32.861
L12.2621 -33.1655
L12.4428 -33.4642
L12.6261 -33.7571
L12.8118 -34.0444
L12.9998 -34.3263
L13.1899 -34.6028
L13.3818 -34.8741
L13.5755 -35.1403
L13.7708 -35.4015
L13.9676 -35.6578
L14.1657 -35.9093
L14.365 -36.1562
L14.5654 -36.3986
L14.7668 -36.6366
L14.9692 -36.8703
L15.1725 -37.0998
L15.3765 -37.3252
L15.5813 -37.5467
L15.7868 -37.7643
L15.9928 -37.9782
L16.1995 -38.1884
L16.4067 -38.3951
L16.6143 -38.5983
L16.8225 -38.7981
L17.0311 -38.9947
L17.2402 -39.1881
L17.4496 -39.3784
L17.6595 -39.5658
L17.8698 -39.7502
L18.0804 -39.9317
L18.2914 -40.1106
L18.5029 -40.2867
L18.7147 -40.4603
L18.927 -40.6313
L19.1396 -40.7998
L19.3527 -40.966
L19.5662 -41.1298
L19.7802 -41.2914
L19.9947 -41.4508
L20.2097 -41.608
L20.4252 -41.7632
L20.6412 -41.9164
L20.8578 -42.0675
L21.0751 -42.2168
L21.293 -42.3642
L21.5115 -42.5098
L21.7308 -42.6536
L21.9508 -42.7957
L22.1715 -42.9361
L22.3931 -43.0749
L22.6156 -43.2121
L22.8389 -43.3477
L23.2884 -43.4818
L23.5147 -43.6144
L23.7421 -43.7456
L23.9705 -43.8753
L24.2002 -44.0037
L24.431 -44.1307
L24.6631 -44.2563
L24.8965 -44.3807
L25.1313 -44.5037
L25.3676 -44.6255
L25.6053 -44.746
L25.8445 -44.8653
L26.0853 -44.9834
L26.3278 -45.1003
L26.5719 -45.2161
L26.8179 -45.3306
L27.0656 -45.444
L27.3153 -45.5562
L27.5669 -45.6673
L27.8205 -45.7772
L28.0761 -45.8859
L28.3339 -45.9936
L28.5939 -46.1
L28.8562 -46.2053
L29.1208 -46.3095
L29.3878 -46.4125
L29.6573 -46.5142
L29.9293 -46.6148
L30.2039 -46.7142
L30.4812 -46.8123
L30.7612 -46.9091
L31.044 -47.0047
L31.3297 -47.0989
L31.6183 -47.1918
L31.9099 -47.2833
L32.2046 -47.3733
L32.5024 -47.4619
L32.8034 -47.5489
L33.1076 -47.6344
L33.4152 -47.7183
L33.7261 -47.8004
L34.0404 -47.8808
L34.3582 -47.9594
L34.6795 -48.036
L35.0044 -48.1107
L35.3329 -48.1833
L35.665 -48.2538
L36.0007 -48.322
L36.3402 -48.3879
L36.6833 -48.4513
L37.0302 -48.5121
L37.3808 -48.5702
L37.735 -48.6254
L38.093 -48.6777
L38.4546 -48.7269
L38.8199 -48.7728
L39.1887 -48.8153
L39.5611 -48.8542
L39.9369 -48.8893
L40.316 -48.9204
L40.6983 -48.9473
L41.0837 -48.9699
L41.472 -48.9878
L41.8631 -49.0009
L42.2568 -49.0089
L42.6528 -49.0115
L43.0509 -49.0085
L43.4507 -48.9996
L43.8521 -48.9844
L44.2545 -48.9626
L44.6577 -48.934
L45.0611 -48.898
L45.4643 -48.8544
L45.8667 -48.8027
L46.2677 -48.7424
L46.6668 -48.6731
L47.063 -48.5943
L47.4558 -48.5055
L47.8441 -48.406
L48.2271 -48.2953
L48.6037 -48.1728
L48.9728 -48.0378
L49.3334 -47.8896
L49.6842 -47.7275
L50.0239 -47.5509
L50.3513 -47.3592
L50.6653 -47.1517
L50.9645 -46.928
L51.248 -46.6877
L51.5148 -46.4305
L51.7641 -46.1565
L51.9953 -45.8658
L52.2082 -45.5588
L52.4025 -45.236
L52.5784 -44.8984
L52.736 -44.5467
L52.8758 -44.1822
L52.9983 -43.806
L53.1042 -43.4194
L53.1941 -43.0236
L53.2687 -42.6199
L53.3288 -42.2095
L53.3752 -41.7935
L53.4085 -41.3731
L53.4293 -40.9493
L53.4385 -40.523
L53.4366 -40.0951
L53.4242 -39.6663
L53.4019 -39.2374
L53.3702 -38.809
L53.3297 -38.3817
L53.2808 -37.9561
L53.224 -37.5325
L53.1596 -37.1115
L53.0883 -36.6934
L53.0102 -36.2785
L52.9258 -35.8671
L52.8354 -35.4594
L52.7394 -35.0558
L52.6381 -34.6564
L52.5317 -34.2613
L52.4206 -33.8707
L52.3051 -33.4847
L52.1853 -33.1035
L52.0615 -32.727
L51.9339 -32.3553
L51.8028 -31.9886
L51.6684 -31.6268
L51.5308 -31.2699
L51.3902 -30.9179
L51.2468 -30.5709
L51.1008 -30.2288
L50.9523 -29.8916
L50.8014 -29.5592
L50.6483 -29.2317
L50.4931 -28.9089
L50.3359 -28.5909
L50.1768 -28.2775
L50.016 -27.9687
L49.8534 -27.6644
L49.6893 -27.3647
L49.5236 -27.0693
L49.3564 -26.7782
L49.1879 -26.4914
L49.018 -26.2087
L48.8469 -25.9302
L48.6745 -25.6556
L48.501 -25.385
L48.3263 -25.1183
L48.1505 -24.8554
L47.9736 -24.5961
L47.7957 -24.3405
L47.6167 -24.0884
L47.4368 -23.8398
L47.2558 -23.5946
L47.0739 -23.3527
L46.891 -23.114
L46.7071 -22.8786
L46.5223 -22.6462
L46.3365 -22.4168
L46.1497 -22.1904
L45.962 -21.9669
L45.7732 -21.7463
L45.5835 -21.5283
L45.3928 -21.3131
L45.201 -21.1005
L45.0082 -20.8905
L44.8143 -20.683
L44.6194 -20.478
L44.4233 -20.2754
L44.2261 -20.0752
L44.0278 -19.8772
L43.8282 -19.6815
L43.6275 -19.488
L43.4254 -19.2967
L43.2221 -19.1075
L43.0174 -18.9204
L42.8114 -18.7353
L42.6039 -18.5522
L42.395 -18.3711
L42.1846 -18.1919
L41.9726 -18.0146
L41.759 -17.8392
L41.5438 -17.6656
L41.3269 -17.4939
L41.1082 -17.3239
L40.8878 -17.1557
L40.6654 -16.9893
L40.4412 -16.8246
L40.215 -16.6617
L39.9867 -16.5005
L39.7563 -16.341
L39.5238 -16.1832
L39.289 -16.0271
L39.0519 -15.8727
L38.8125 -15.72
L38.5706 -15.569
L38.3262 -15.4197
L38.0792 -15.2722
L37.8296 -15.1265
L37.5772 -14.9825
L37.3219 -14.8403
L37.0638 -14.6999
L36.8027 -14.5614
L36.5385 -14.4247
L36.2712 -14.29
L36.0007 -14.1573
L35.7268 -14.0265
L35.4495 -13.8979
L35.1687 -13.7714
L34.8843 -13.6471
L34.5962 -13.525
L34.3043 -13.4053
L34.0086 -13.288
L33.7089 -13.1733
L33.4052 -13.0611
L33.0973 -12.9517
L32.7852 -12.8451
L32.4687 -12.7414
L32.1478 -12.6409
L31.8224 -12.5435
L31.4924 -12.4494
L31.1577 -12.3589
L30.8183 -12.272
L30.474 -12.1889
L30.1247 -12.1099
L29.7705 -12.035
L29.4112 -11.9646
L29.0468 -11.8988
L28.6772 -11.8378
L28.3024 -11.782
L27.9223 -11.7314
L27.5369 -11.6865
L27.1461 -11.6475
L26.7501 -11.6146
L26.3488 -11.5882
L25.9421 -11.5686
L25.5302 -11.5562
L25.1131 -11.5512
L24.6909 -11.554
L24.2637 -11.565
L23.8315 -11.5846
L23.3946 -11.6132
L22.9531 -11.6512
L22.5073 -11.699
L22.0573 -11.7571
L21.6036 -11.8259
L21.1463 -11.9058
L20.6859 -11.9973
L20.2072 -12.1009
L19.7955 -12.2758
L19.3888 -12.555
L18.9872 -12.8414
L18.5907 -13.1349
L18.1996 -13.4353
L17.8138 -13.7425
L17.4337 -14.0566
L17.0591 -14.3773
L16.6903 -14.7046
L16.3275 -15.0384
L15.9706 -15.3786
L15.6198 -15.7251
L15.2752 -16.0778
L14.9369 -16.4365
L14.605 -16.8012
L14.2797 -17.1717
L13.961 -17.5479
L13.649 -17.9298
L13.3438 -18.3172
L13.0455 -18.71
L12.7542 -19.108
L12.4699 -19.5112
L12.1929 -19.9194
L11.9231 -20.3325
L11.6606 -20.7504
L11.4055 -21.1729
L11.1579 -21.6
L10.9179 -22.0314
L10.6856 -22.4671
L10.4609 -22.9069
L10.2441 -23.3507
L10.035 -23.7983
L9.83391 -24.2497
z
" id="C0_1_8cdfc3daab"/>
     <path d="
M51.7327 -59.7157
L52.0227 -59.3335
L52.3084 -58.9467
L52.5901 -58.5557
L52.8678 -58.161
L53.1417 -57.7631
L53.4121 -57.3626
L53.6792 -56.9601
L53.9435 -56.5562
L54.2054 -56.1516
L54.4654 -55.7473
L54.7241 -55.3439
L54.9821 -54.9423
L55.2401 -54.5434
L55.499 -54.1482
L55.7596 -53.7575
L56.0227 -53.3722
L56.2892 -52.9931
L56.5598 -52.6208
L56.8352 -52.2559
L57.1162 -51.8988
L57.4031 -51.5498
L57.6961 -51.2087
L57.9954 -50.8754
L58.3008 -50.5495
L58.612 -50.2305
L58.9286 -49.9176
L59.25 -49.6101
L59.5753 -49.3073
L59.904 -49.0081
L60.2351 -48.7118
L60.5679 -48.4177
L60.9016 -48.1249
L61.2353 -47.8328
L61.5684 -47.5408
L61.9001 -47.2484
L62.1028 -46.9549
L61.8991 -47.4409
L61.6876 -47.8947
L61.4682 -48.3449
L61.2411 -48.7913
L61.0063 -49.2339
L60.7639 -49.6724
L60.5139 -50.1067
L60.2565 -50.5368
L59.9917 -50.9624
L59.7195 -51.3834
L59.4402 -51.7998
L59.1537 -52.2114
L58.8601 -52.618
L58.5596 -53.0195
L58.2522 -53.4159
L57.9381 -53.807
L57.6172 -54.1926
L57.2898 -54.5727
L56.9559 -54.9472
L56.6156 -55.3158
L56.269 -55.6786
L55.9162 -56.0354
L55.5574 -56.3861
L55.1926 -56.7306
L54.822 -57.0687
L54.4457 -57.4005
L54.0637 -57.7257
L53.6762 -58.0443
L53.2834 -58.3562
L52.8852 -58.6613
L52.482 -58.9595
z
" id="C0_2_5e57d4fcc2"/>
    </defs>
    <g clip-path="url(#p1bffca34e9)">
     <use style="fill:#ff0000;stroke:#000000;stroke-width:2.0;" x="0.0" xlink:href="#C0_0_a811fe30f3" y="72.0"/>
    </g>
    <g clip-path="url(#p1bffca34e9)">
     <use style="fill:#ffffff;stroke:#000000;stroke-width:2.0;" x="0.0" xlink:href="#C0_1_8cdfc3daab" y="72.0"/>
    </g>
    <g clip-path="url(#p1bffca34e9)">
     <use style="fill:#ffffff;stroke:#000000;stroke-width:2.0;" x="0.0" xlink:href="#C0_2_5e57d4fcc2" y="72.0"/>
    </g>
   </g>
  </g>
 </g>
 <defs>
  <clipPath id="p1bffca34e9">
   <rect height="72.0" width="72.0" x="0.0" y="0.0"/>
  </clipPath>
 </defs>
</svg>
