<?xml version="1.0" encoding="utf-8" standalone="no"?>
<!DOCTYPE svg PUBLIC "-//W3C//DTD SVG 1.1//EN"
  "http://www.w3.org/Graphics/SVG/1.1/DTD/svg11.dtd">
<!-- Created with matplotlib (http://matplotlib.org/) -->
<svg height="72pt" version="1.1" viewBox="0 0 72 72" width="72pt" xmlns="http://www.w3.org/2000/svg" xmlns:xlink="http://www.w3.org/1999/xlink">
 <defs>
  <style type="text/css">
*{stroke-linecap:butt;stroke-linejoin:round;}
  </style>
 </defs>
 <g id="figure_1">
  <g id="patch_1">
   <path d="
M0 72
L72 72
L72 0
L0 0
z
" style="fill:none;"/>
  </g>
  <g id="axes_1">
   <g id="PatchCollection_1">
    <defs>
     <path d="
M36 -7.5
C43.5583 -7.5 50.808 -10.5029 56.1525 -15.8475
C61.4971 -21.192 64.5 -28.4417 64.5 -36
C64.5 -43.5583 61.4971 -50.808 56.1525 -56.1525
C50.808 -61.4971 43.5583 -64.5 36 -64.5
C28.4417 -64.5 21.192 -61.4971 15.8475 -56.1525
C10.5029 -50.808 7.5 -43.5583 7.5 -36
C7.5 -28.4417 10.5029 -21.192 15.8475 -15.8475
C21.192 -10.5029 28.4417 -7.5 36 -7.5
z
" id="C0_0_a811fe30f3"/>
     <path d="
M20.0518 -59.5861
L20.1895 -59.4428
L20.3272 -59.2993
L20.4648 -59.1556
L20.6025 -59.0117
L20.7401 -58.8676
L20.8777 -58.7233
L21.0154 -58.5787
L21.153 -58.4338
L21.2907 -58.2887
L21.4284 -58.1432
L21.5662 -57.9975
L21.7041 -57.8513
L21.8421 -57.7048
L21.9802 -57.5579
L22.1185 -57.4106
L22.2569 -57.2628
L22.3955 -57.1146
L22.5344 -56.9658
L22.6734 -56.8166
L22.8127 -56.6668
L22.9523 -56.5164
L23.0923 -56.3655
L23.2325 -56.2139
L23.3731 -56.0616
L23.5142 -55.9087
L23.7975 -55.755
L23.9399 -55.6006
L24.0828 -55.4453
L24.2262 -55.2893
L24.3703 -55.1324
L24.5149 -54.9746
L24.6602 -54.8159
L24.8061 -54.6562
L24.9528 -54.4956
L25.1002 -54.3338
L25.2483 -54.1711
L25.3973 -54.0072
L25.5472 -53.8421
L25.6979 -53.6759
L25.8496 -53.5084
L26.0022 -53.3397
L26.1559 -53.1697
L26.3106 -52.9983
L26.4663 -52.8255
L26.6232 -52.6512
L26.7812 -52.4755
L26.9405 -52.2982
L27.101 -52.1194
L27.2628 -51.939
L27.4259 -51.7569
L27.5903 -51.5731
L27.7562 -51.3876
L27.9236 -51.2002
L28.0924 -51.011
L28.2628 -50.82
L28.4348 -50.627
L28.6085 -50.432
L28.7838 -50.235
L28.9608 -50.036
L29.1396 -49.8349
L29.3202 -49.6316
L29.5027 -49.4261
L29.6871 -49.2185
L29.8734 -49.0085
L30.0617 -48.7963
L30.2521 -48.5818
L30.4445 -48.3649
L30.6391 -48.1456
L30.8359 -47.9239
L31.0348 -47.6998
L31.236 -47.4733
L31.4395 -47.2443
L31.6453 -47.0128
L31.8535 -46.7789
L32.0641 -46.5425
L32.2772 -46.3037
L32.4927 -46.0624
L32.7107 -45.8187
L32.9313 -45.5727
L33.1545 -45.3244
L33.3802 -45.0738
L33.6085 -44.821
L33.8395 -44.5661
L34.0732 -44.3091
L34.3095 -44.0503
L34.5486 -43.7898
L34.7903 -43.5276
L35.0348 -43.2639
L35.282 -42.999
L35.532 -42.7331
L35.7847 -42.4664
L36.0402 -42.1992
L36.2985 -41.9318
L36.5596 -41.6645
L36.8234 -41.3978
L37.0901 -41.132
L37.3596 -40.8675
L37.6319 -40.605
L37.907 -40.345
L38.185 -40.0881
L38.4659 -39.8349
L38.7496 -39.5861
L39.0364 -39.3426
L39.3261 -39.1052
L39.6188 -38.8747
L39.9145 -38.6522
L40.2134 -38.4386
L40.5154 -38.2348
L40.8205 -38.0421
L41.1289 -37.8614
L41.4404 -37.6937
L41.7551 -37.54
L42.0729 -37.4013
L42.3937 -37.2784
L42.7175 -37.172
L43.044 -37.0827
L43.3731 -37.0109
L43.7045 -36.9567
L44.038 -36.9202
L44.3731 -36.9013
L44.7097 -36.8997
L45.0472 -36.9147
L45.3853 -36.9459
L45.7236 -36.9925
L46.0617 -37.0536
L46.3991 -37.1284
L46.7355 -37.2161
L47.0706 -37.3156
L47.4039 -37.4262
L47.7351 -37.5468
L48.0639 -37.6768
L48.39 -37.8152
L48.7132 -37.9612
L49.0331 -38.1143
L49.3496 -38.2736
L49.6624 -38.4386
L49.9714 -38.6086
L50.2764 -38.7832
L50.5773 -38.9618
L50.874 -39.144
L51.1663 -39.3293
L51.4542 -39.5175
L51.7376 -39.708
L52.0164 -39.9007
L52.2906 -40.0951
L52.5602 -40.2911
L52.8251 -40.4884
L53.0853 -40.6867
L53.3409 -40.8859
L53.5918 -41.0858
L53.8381 -41.2862
L54.0798 -41.487
L54.3169 -41.6881
L54.5494 -41.8892
L54.7774 -42.0904
L55.001 -42.2915
L55.2201 -42.4924
L55.4349 -42.6931
L55.6453 -42.8935
L55.8515 -43.0935
L56.0535 -43.2931
L56.2514 -43.4922
L56.4452 -43.6909
L56.635 -43.889
L56.8209 -44.0866
L57.0028 -44.2837
L57.181 -44.4802
L57.3554 -44.6761
L57.5261 -44.8714
L57.6932 -45.0662
L57.8567 -45.2604
L58.0167 -45.454
L58.1733 -45.6471
L58.3265 -45.8396
L58.4764 -46.0317
L58.623 -46.2232
L58.7664 -46.4142
L58.9067 -46.6048
L59.0438 -46.795
L59.1779 -46.9847
L59.309 -47.1741
L59.4371 -47.3632
L59.5623 -47.5519
L59.6846 -47.7404
L59.8041 -47.9286
L59.9208 -48.1166
L60.0347 -48.3045
L60.1459 -48.4922
L60.2544 -48.6799
L60.3602 -48.8675
L60.4633 -49.0551
L60.5639 -49.2428
L60.6618 -49.4306
L60.7572 -49.6185
L60.6449 -49.8066
L60.3914 -50.3135
L60.1304 -50.7415
L59.8621 -51.1649
L59.5864 -51.5837
L59.3037 -51.9978
L59.0138 -52.407
L58.7169 -52.8112
L58.413 -53.2103
L58.1024 -53.6041
L57.785 -53.9926
L57.461 -54.3756
L57.1304 -54.753
L56.7935 -55.1247
L56.4501 -55.4906
L56.1006 -55.8505
L55.7449 -56.2044
L55.3832 -56.5521
L55.0156 -56.8936
L54.6422 -57.2287
L54.2632 -57.5573
L53.8785 -57.8794
L53.4885 -58.1948
L53.0931 -58.5034
L52.6924 -58.8052
L52.2867 -59.1001
L51.8761 -59.3879
L51.4606 -59.6685
L51.0404 -59.942
L50.6156 -60.2082
L50.1864 -60.467
L49.7528 -60.7183
L49.3151 -60.9622
L48.8733 -61.1984
L48.4276 -61.4269
L47.9781 -61.6477
L47.5249 -61.8607
L47.0682 -62.0658
L46.6082 -62.263
L46.1449 -62.4521
L45.6786 -62.6333
L45.2093 -62.8063
L44.7371 -62.9711
L44.2624 -63.1277
L43.7851 -63.2761
L43.3054 -63.4161
L42.8235 -63.5478
L42.3396 -63.6711
L41.8537 -63.786
L41.366 -63.8924
L40.8767 -63.9903
L40.3859 -64.0797
L39.8937 -64.1605
L39.4004 -64.2328
L38.9061 -64.2964
L38.4108 -64.3515
L37.9148 -64.3979
L37.4183 -64.4356
L36.9213 -64.4647
L36.424 -64.4851
L35.9266 -64.4968
L35.4292 -64.4999
L34.932 -64.4943
L34.4351 -64.48
L33.9387 -64.457
L33.4429 -64.4254
L32.9479 -64.3851
L32.4539 -64.3361
L31.9609 -64.2785
L31.4691 -64.2123
L30.9788 -64.1375
L30.4899 -64.0542
L30.0027 -63.9623
L29.5174 -63.8619
L29.034 -63.7529
L28.5528 -63.6356
L28.0738 -63.5098
L27.5972 -63.3756
L27.1232 -63.2331
L26.6519 -63.0823
L26.1835 -62.9233
L25.718 -62.756
L25.2557 -62.5806
L24.7966 -62.3972
L24.341 -62.2056
L23.8889 -62.0061
L23.4405 -61.7987
L22.9959 -61.5834
L22.5553 -61.3603
L22.1188 -61.1295
L21.6865 -60.891
L21.2585 -60.6449
L20.8351 -60.3914
z
" id="C0_1_0a8c37f5e9"/>
     <path d="
M11.1845 -22.0245
L11.3934 -22.0061
L11.6025 -21.9894
L11.8118 -21.9743
L12.0215 -21.9608
L12.2315 -21.9489
L12.4419 -21.9385
L12.6528 -21.9297
L12.8641 -21.9223
L13.076 -21.9164
L13.2885 -21.912
L13.5015 -21.9089
L13.7153 -21.9074
L13.9298 -21.9072
L14.145 -21.9084
L14.361 -21.911
L14.5779 -21.915
L14.7958 -21.9204
L15.0146 -21.9271
L15.2344 -21.9352
L15.4552 -21.9447
L15.6773 -21.9555
L15.9004 -21.9676
L16.1248 -21.9811
L16.3505 -21.996
L16.5776 -22.0123
L16.806 -22.0299
L17.0359 -22.0488
L17.2673 -22.0692
L17.5003 -22.0909
L17.7349 -22.1141
L17.9712 -22.1386
L18.2092 -22.1646
L18.449 -22.1919
L18.6907 -22.2208
L18.9344 -22.251
L19.18 -22.2828
L19.4276 -22.316
L19.6774 -22.3508
L19.9293 -22.387
L20.1835 -22.4248
L20.44 -22.4641
L20.6988 -22.505
L20.96 -22.5475
L21.2237 -22.5917
L21.49 -22.6374
L21.7588 -22.6848
L22.0303 -22.7338
L22.3045 -22.7846
L22.5814 -22.837
L22.8612 -22.8912
L23.1438 -22.9471
L23.4294 -23.0048
L23.7179 -23.0642
L24.0095 -23.1254
L24.3041 -23.1884
L24.6018 -23.2533
L24.9026 -23.3199
L25.2067 -23.3883
L25.5139 -23.4586
L25.8243 -23.5306
L26.138 -23.6045
L26.455 -23.6801
L26.7752 -23.7575
L27.0987 -23.8366
L27.4255 -23.9174
L27.7555 -23.9999
L28.0887 -24.0839
L28.4252 -24.1695
L28.7648 -24.2565
L29.1076 -24.3449
L29.4533 -24.4346
L29.8021 -24.5254
L30.1538 -24.6172
L30.5083 -24.7098
L30.8655 -24.803
L31.2252 -24.8967
L31.5874 -24.9906
L31.9519 -25.0844
L32.3185 -25.1778
L32.6869 -25.2705
L33.0571 -25.3621
L33.4288 -25.4522
L33.8016 -25.5403
L34.1755 -25.6259
L34.55 -25.7085
L34.9248 -25.7874
L35.2997 -25.8619
L35.6742 -25.9314
L36.0481 -25.995
L36.4208 -26.0519
L36.7921 -26.1012
L37.1615 -26.142
L37.5285 -26.1734
L37.8928 -26.1945
L38.2539 -26.2043
L38.6114 -26.2019
L38.9649 -26.1866
L39.314 -26.1575
L39.6585 -26.1141
L39.9979 -26.0559
L40.332 -25.9827
L40.6606 -25.8942
L40.9836 -25.7906
L41.3008 -25.672
L41.6121 -25.539
L41.9175 -25.392
L42.2171 -25.2317
L42.5108 -25.0589
L42.7986 -24.8746
L43.0808 -24.6795
L43.3573 -24.4746
L43.6283 -24.2609
L43.8938 -24.0394
L44.1539 -23.8108
L44.4088 -23.5761
L44.6586 -23.3361
L44.9033 -23.0916
L45.143 -22.8432
L45.3778 -22.5917
L45.6078 -22.3377
L45.8331 -22.0817
L46.0538 -21.8242
L46.2698 -21.5658
L46.4813 -21.3069
L46.6884 -21.0478
L46.8911 -20.7889
L47.0895 -20.5305
L47.2837 -20.2729
L47.4737 -20.0163
L47.6595 -19.761
L47.8413 -19.5072
L48.0191 -19.2549
L48.193 -19.0045
L48.363 -18.756
L48.5293 -18.5095
L48.6918 -18.2651
L48.8506 -18.0229
L49.0059 -17.783
L49.1576 -17.5454
L49.3059 -17.3102
L49.4507 -17.0774
L49.5922 -16.8471
L49.7304 -16.6191
L49.8655 -16.3937
L49.9973 -16.1706
L50.1261 -15.9501
L50.2519 -15.7319
L50.3746 -15.5162
L50.4945 -15.3029
L50.6115 -15.0919
L50.7258 -14.8833
L50.8373 -14.677
L50.9461 -14.473
L51.0522 -14.2713
L51.1558 -14.0717
L51.2569 -13.8743
L51.3555 -13.679
L51.4516 -13.4858
L51.5453 -13.2946
L51.6368 -13.1054
L51.7258 -12.9181
L51.8127 -12.7327
L51.5778 -12.5491
L51.1589 -12.1341
L50.7354 -11.8658
L50.3074 -11.6049
L49.875 -11.3515
L49.4384 -11.1055
L48.9978 -10.8672
L48.5531 -10.6365
L48.1047 -10.4135
L47.6525 -10.1983
L47.1968 -9.99099
L46.7377 -9.79159
L46.2754 -9.60017
L45.8098 -9.41679
L45.3414 -9.24151
L44.87 -9.07438
L44.396 -8.91545
L43.9194 -8.76477
L43.4404 -8.62239
L42.9591 -8.48835
L42.4757 -8.36268
L41.9903 -8.24544
L41.5031 -8.13665
L41.0142 -8.03635
L40.5238 -7.94457
L40.0321 -7.86133
L39.5391 -7.78666
L39.045 -7.72059
L38.55 -7.66313
L38.0542 -7.61431
L37.5578 -7.57413
L37.0609 -7.5426
L36.5637 -7.51975
L36.0663 -7.50557
L35.5689 -7.50008
L35.0716 -7.50326
L34.5746 -7.51512
L34.0781 -7.53567
L33.5821 -7.56488
L33.0869 -7.60275
L32.5925 -7.64927
L32.0992 -7.70443
L31.6071 -7.76821
L31.1163 -7.84059
L30.627 -7.92154
L30.1394 -8.01105
L29.6535 -8.10909
L29.1696 -8.21562
L28.6877 -8.33061
L28.2081 -8.45403
L27.7308 -8.58584
L27.2561 -8.72601
L26.784 -8.87448
L26.3147 -9.03121
L25.8484 -9.19616
L25.3852 -9.36927
L24.9252 -9.5505
L24.4686 -9.73978
L24.0155 -9.93706
L23.566 -10.1423
L23.1204 -10.3554
L22.6786 -10.5763
L22.2409 -10.8049
L21.8075 -11.0413
L21.3783 -11.2852
L20.9536 -11.5367
L20.5334 -11.7956
L20.118 -12.0618
L19.7074 -12.3354
L19.3018 -12.6162
L18.9013 -12.9041
L18.5059 -13.1991
L18.1159 -13.5009
L17.7314 -13.8097
L17.3524 -14.1252
L16.9791 -14.4473
L16.6116 -14.7761
L16.25 -15.1113
L15.8944 -15.4528
L15.5449 -15.8006
L15.2017 -16.1546
L14.8648 -16.5146
L14.5343 -16.8806
L14.2104 -17.2523
L13.8931 -17.6298
L13.5826 -18.0129
L13.2788 -18.4015
L12.982 -18.7954
L12.6923 -19.1945
L12.4096 -19.5988
L12.1341 -20.0081
L11.8658 -20.4222
L11.6049 -20.8411
z
" id="C0_2_8c05c0d066"/>
    </defs>
    <g clip-path="url(#p1bffca34e9)">
     <use style="fill:#ffffff;stroke:#000000;stroke-width:2.0;" x="0.0" xlink:href="#C0_0_a811fe30f3" y="72.0"/>
    </g>
    <g clip-path="url(#p1bffca34e9)">
     <use style="fill:#ff0000;stroke:#000000;stroke-width:2.0;" x="0.0" xlink:href="#C0_1_0a8c37f5e9" y="72.0"/>
    </g>
    <g clip-path="url(#p1bffca34e9)">
     <use style="fill:#ff0000;stroke:#000000;stroke-width:2.0;" x="0.0" xlink:href="#C0_2_8c05c0d066" y="72.0"/>
    </g>
   </g>
  </g>
 </g>
 <defs>
  <clipPath id="p1bffca34e9">
   <rect height="72.0" width="72.0" x="0.0" y="0.0"/>
  </clipPath>
 </defs>
</svg>
