<?xml version="1.0" encoding="utf-8" standalone="no"?>
<!DOCTYPE svg PUBLIC "-//W3C//DTD SVG 1.1//EN"
  "http://www.w3.org/Graphics/SVG/1.1/DTD/svg11.dtd">
<!-- Created with matplotlib (http://matplotlib.org/) -->
<svg height="72pt" version="1.1" viewBox="0 0 72 72" width="72pt" xmlns="http://www.w3.org/2000/svg" xmlns:xlink="http://www.w3.org/1999/xlink">
 <defs>
  <style type="text/css">
*{stroke-linecap:butt;stroke-linejoin:round;}
  </style>
 </defs>
 <g id="figure_1">
  <g id="patch_1">
   <path d="
M0 72
L72 72
L72 0
L0 0
z
" style="fill:none;"/>
  </g>
  <g id="axes_1">
   <g id="PatchCollection_1">
    <defs>
     <path d="
M36 -7.5
C43.5583 -7.5 50.808 -10.5029 56.1525 -15.8475
C61.4971 -21.192 64.5 -28.4417 64.5 -36
C64.5 -43.5583 61.4971 -50.808 56.1525 -56.1525
C50.808 -61.4971 43.5583 -64.5 36 -64.5
C28.4417 -64.5 21.192 -61.4971 15.8475 -56.1525
C10.5029 -50.808 7.5 -43.5583 7.5 -36
C7.5 -28.4417 10.5029 -21.192 15.8475 -15.8475
C21.192 -10.5029 28.4417 -7.5 36 -7.5
z
" id="C0_0_a811fe30f3"/>
     <path d="
M57.8521 -54.1494
L57.5286 -54.2142
L57.2161 -54.2512
L56.915 -54.2607
L56.6258 -54.2432
L56.3484 -54.1995
L56.0829 -54.1306
L55.8288 -54.0377
L55.5857 -53.9222
L55.3531 -53.7855
L55.13 -53.6293
L54.9159 -53.4551
L54.7098 -53.2646
L54.5109 -53.0592
L54.3185 -52.8405
L54.1318 -52.6099
L53.9501 -52.3688
L53.7727 -52.1183
L53.5991 -51.8597
L53.4287 -51.5939
L53.261 -51.3219
L53.0957 -51.0447
L52.9324 -50.763
L52.7708 -50.4776
L52.6106 -50.189
L52.4515 -49.898
L52.2935 -49.605
L52.1363 -49.3105
L51.9798 -49.0149
L51.8238 -48.7187
L51.6684 -48.4223
L51.5134 -48.1258
L51.3588 -47.8296
L51.2045 -47.534
L51.0505 -47.2392
L50.8967 -46.9454
L50.7432 -46.6527
L50.59 -46.3613
L50.437 -46.0714
L50.2842 -45.7831
L50.1316 -45.4965
L49.9792 -45.2117
L49.8271 -44.9287
L49.6753 -44.6476
L49.5236 -44.3685
L49.3723 -44.0914
L49.2212 -43.8163
L49.0703 -43.5433
L48.9198 -43.2724
L48.7695 -43.0037
L48.6195 -42.737
L48.4697 -42.4724
L48.3203 -42.2099
L48.1711 -41.9495
L48.0223 -41.6912
L47.8737 -41.435
L47.7253 -41.1807
L47.5773 -40.9285
L47.4295 -40.6782
L47.282 -40.4299
L47.1348 -40.1835
L46.9877 -39.9389
L46.841 -39.6962
L46.6944 -39.4552
L46.5481 -39.216
L46.4019 -38.9785
L46.256 -38.7427
L46.1102 -38.5085
L45.9645 -38.2758
L45.819 -38.0447
L45.6736 -37.815
L45.5284 -37.5868
L45.3831 -37.36
L45.238 -37.1344
L45.0929 -36.9102
L44.9477 -36.6872
L44.8026 -36.4654
L44.6575 -36.2447
L44.5123 -36.0251
L44.367 -35.8065
L44.2216 -35.589
L44.0761 -35.3723
L43.9304 -35.1566
L43.7845 -34.9417
L43.6384 -34.7276
L43.4921 -34.5142
L43.3455 -34.3015
L43.1986 -34.0895
L43.0514 -33.8781
L42.9038 -33.6672
L42.7559 -33.4568
L42.6075 -33.2469
L42.3093 -33.0374
L42.1595 -32.8283
L42.0091 -32.6195
L41.8581 -32.411
L41.7065 -32.2027
L41.5542 -31.9945
L41.4013 -31.7865
L41.2477 -31.5786
L41.0932 -31.3708
L40.938 -31.163
L40.782 -30.9551
L40.6251 -30.7471
L40.4673 -30.539
L40.3086 -30.3307
L40.1488 -30.1223
L39.9881 -29.9135
L39.8263 -29.7045
L39.6634 -29.4951
L39.4994 -29.2854
L39.3342 -29.0752
L39.1677 -28.8646
L39.0001 -28.6535
L38.8311 -28.4419
L38.6608 -28.2297
L38.4891 -28.0168
L38.316 -27.8034
L38.1415 -27.5892
L37.9655 -27.3744
L37.7879 -27.1588
L37.6088 -26.9424
L37.428 -26.7252
L37.2457 -26.5071
L37.0616 -26.2882
L36.8758 -26.0684
L36.6883 -25.8477
L36.499 -25.626
L36.3078 -25.4033
L36.1149 -25.1796
L35.92 -24.955
L35.7232 -24.7292
L35.5246 -24.5025
L35.324 -24.2746
L35.1214 -24.0457
L34.9168 -23.8157
L34.7103 -23.5846
L34.5018 -23.3524
L34.2913 -23.1191
L34.0789 -22.8847
L33.8644 -22.6492
L33.648 -22.4126
L33.4298 -22.175
L33.2096 -21.9362
L32.9876 -21.6964
L32.7638 -21.4556
L32.5384 -21.2138
L32.3113 -20.971
L32.0826 -20.7273
L31.8526 -20.4826
L31.6213 -20.237
L31.3888 -19.9906
L31.1554 -19.7434
L30.9212 -19.4954
L30.6864 -19.2466
L30.4513 -18.9972
L30.2163 -18.7471
L29.9815 -18.4965
L29.7473 -18.2452
L29.5142 -17.9934
L29.2826 -17.7412
L29.053 -17.4884
L28.8259 -17.2351
L28.6019 -16.9814
L28.3819 -16.7273
L28.1664 -16.4726
L27.9564 -16.2174
L27.7527 -15.9616
L27.5565 -15.7052
L27.3689 -15.448
L27.191 -15.19
L27.0242 -14.9309
L26.87 -14.6706
L26.7299 -14.4089
L26.6054 -14.1457
L26.4982 -13.8807
L26.41 -13.6136
L26.3425 -13.3443
L26.2973 -13.0727
L26.276 -12.7985
L26.2798 -12.5217
L26.31 -12.2423
L26.3675 -11.9605
L26.4529 -11.6763
L26.5666 -11.3902
L26.7085 -11.1027
L26.8783 -10.8142
L27.0756 -10.5254
L27.2995 -10.2371
L27.5491 -9.95009
L27.8231 -9.66521
L28.1203 -9.38331
L28.4395 -9.10526
L28.7793 -8.83192
L29.2284 -8.56409
L29.7125 -8.31616
L30.1986 -8.2022
L30.6865 -8.0967
L31.176 -7.9997
L31.6669 -7.91123
L32.1592 -7.83132
L32.6527 -7.75999
L33.1471 -7.69726
L33.6424 -7.64315
L34.1385 -7.59768
L34.6351 -7.56086
L35.1321 -7.5327
L35.6294 -7.51322
L36.1268 -7.50241
L36.6242 -7.50028
L37.1214 -7.50684
L37.6182 -7.52207
L38.1146 -7.54598
L38.6103 -7.57855
L39.1052 -7.61979
L39.5991 -7.66966
L40.092 -7.72817
L40.5836 -7.79529
L41.0738 -7.871
L41.5625 -7.95528
L42.0495 -8.0481
L42.5346 -8.14944
L43.0178 -8.25926
L43.4988 -8.37753
L43.9775 -8.50421
L44.4538 -8.63927
L44.9275 -8.78267
L45.3985 -8.93435
L45.8667 -9.09428
L46.3318 -9.26241
L46.7938 -9.43868
L47.2525 -9.62304
L47.7078 -9.81543
L48.1595 -10.0158
L48.6075 -10.2241
L49.0516 -10.4402
L49.4918 -10.6641
L49.9279 -10.8958
L50.3597 -11.1351
L50.7872 -11.3819
L51.2101 -11.6363
L51.6284 -11.8981
L52.042 -12.1672
L52.4507 -12.4436
L52.8543 -12.7271
L53.2529 -13.0178
L53.6461 -13.3154
L54.034 -13.62
L54.4164 -13.9314
L54.7932 -14.2495
L55.1643 -14.5742
L55.5295 -14.9055
L55.8888 -15.2431
L56.242 -15.5871
L56.5891 -15.9373
L56.9299 -16.2937
L57.2643 -16.656
L57.5922 -17.0242
L57.9136 -17.3982
L58.2283 -17.7779
L58.5362 -18.1631
L58.8372 -18.5538
L59.1313 -18.9497
L59.4184 -19.3509
L59.6983 -19.7571
L59.971 -20.1683
L60.2363 -20.5843
L60.4944 -21.005
L60.7449 -21.4303
L60.9879 -21.86
L61.2233 -22.294
L61.451 -22.7322
L61.671 -23.1744
L61.8831 -23.6205
L62.0874 -24.0705
L62.2837 -24.524
L62.472 -24.981
L62.6522 -25.4414
L62.8244 -25.905
L62.9883 -26.3717
L63.144 -26.8413
L63.2915 -27.3137
L63.4306 -27.7888
L63.5614 -28.2663
L63.6838 -28.7462
L63.7978 -29.2284
L63.9033 -29.7125
L64.0003 -30.1986
L64.0888 -30.6865
L64.1687 -31.176
L64.24 -31.6669
L64.3027 -32.1592
L64.3569 -32.6527
L64.4023 -33.1471
L64.4391 -33.6424
L64.4673 -34.1385
L64.4868 -34.6351
L64.4976 -35.1321
L64.4997 -35.6294
L64.4932 -36.1268
L64.4779 -36.6242
L64.454 -37.1214
L64.4214 -37.6182
L64.3802 -38.1146
L64.3303 -38.6103
L64.2718 -39.1052
L64.2047 -39.5991
L64.129 -40.092
L64.0447 -40.5836
L63.9519 -41.0738
L63.8506 -41.5625
L63.7407 -42.0495
L63.6225 -42.5346
L63.4958 -43.0178
L63.3607 -43.4988
L63.2173 -43.9775
L63.0656 -44.4538
L62.9057 -44.9275
L62.7376 -45.3985
L62.5613 -45.8667
L62.377 -46.3318
L62.1846 -46.7938
L61.9842 -47.2525
L61.7759 -47.7078
L61.5598 -48.1595
L61.3359 -48.6075
L61.1042 -49.0516
L60.8649 -49.4918
L60.6181 -49.9279
L60.3637 -50.3597
L60.1019 -50.7872
L59.8328 -51.2101
L59.5564 -51.6284
L59.2729 -52.042
L58.9822 -52.4507
L58.6846 -52.8543
L58.38 -53.2529
z
" id="C0_1_a1a0bdf0c3"/>
     <path d="
M42.845 -63.6299
L42.3968 -63.572
L41.9432 -63.5118
L41.4854 -63.4486
L41.0247 -63.382
L40.5618 -63.3115
L40.0979 -63.2367
L39.6338 -63.1573
L39.1701 -63.073
L38.7077 -62.9838
L38.2472 -62.8894
L37.7891 -62.7898
L37.3339 -62.6851
L36.8821 -62.5751
L36.434 -62.4601
L35.9901 -62.3399
L35.5506 -62.2148
L35.1159 -62.0848
L34.686 -61.9502
L34.2613 -61.8109
L33.8419 -61.6671
L33.4279 -61.5191
L33.0195 -61.3669
L32.6167 -61.2108
L32.2196 -61.0508
L31.8283 -60.8872
L31.4427 -60.72
L31.063 -60.5496
L30.689 -60.3759
L30.3208 -60.1991
L29.9584 -60.0194
L29.6018 -59.837
L29.2508 -59.6519
L28.9054 -59.4643
L28.5656 -59.2743
L28.2314 -59.082
L27.9026 -58.8875
L27.5791 -58.6909
L27.261 -58.4924
L26.948 -58.292
L26.6402 -58.0898
L26.3374 -57.8859
L26.0396 -57.6803
L25.7466 -57.4731
L25.4584 -57.2645
L25.1749 -57.0543
L24.896 -56.8428
L24.6216 -56.6299
L24.3516 -56.4156
L24.0859 -56.2001
L23.8244 -55.9834
L23.5671 -55.7655
L23.3138 -55.5463
L23.0645 -55.326
L22.819 -55.1045
L22.5774 -54.8819
L22.3395 -54.6582
L22.1052 -54.4334
L21.8744 -54.2074
L21.6472 -53.9804
L21.4233 -53.7522
L21.2028 -53.5229
L20.9856 -53.2925
L20.7715 -53.0609
L20.5606 -52.8282
L20.3527 -52.5944
L20.1479 -52.3593
L19.9459 -52.1231
L19.7469 -51.8856
L19.5507 -51.6469
L19.3572 -51.4068
L19.1665 -51.1655
L18.9784 -50.9229
L18.793 -50.6789
L18.6101 -50.4334
L18.4298 -50.1866
L18.252 -49.9382
L18.0766 -49.6884
L17.9036 -49.437
L17.7331 -49.1839
L17.5649 -48.9293
L17.399 -48.6729
L17.2354 -48.4148
L17.0742 -48.1549
L16.9151 -47.8932
L16.7583 -47.6295
L16.6038 -47.3639
L16.4514 -47.0963
L16.3012 -46.8267
L16.1533 -46.5549
L16.0075 -46.2809
L15.8639 -46.0048
L15.7225 -45.7263
L15.5832 -45.4454
L15.4462 -45.1621
L15.3113 -44.8764
L15.1786 -44.588
L15.0482 -44.2971
L14.92 -44.0034
L14.7941 -43.707
L14.6705 -43.4078
L14.5491 -43.1057
L14.4301 -42.8006
L14.3135 -42.4925
L14.1993 -42.1813
L14.0876 -41.8669
L13.9784 -41.5493
L13.8717 -41.2283
L13.7676 -40.904
L13.6662 -40.5762
L13.5675 -40.2449
L13.4716 -39.91
L13.3785 -39.5715
L13.2884 -39.2292
L13.2013 -38.8832
L13.1172 -38.5334
L13.0364 -38.1797
L12.9588 -37.822
L12.8845 -37.4603
L12.8138 -37.0946
L12.7466 -36.7249
L12.683 -36.351
L12.6232 -35.973
L12.5673 -35.5908
L12.5154 -35.2044
L12.4676 -34.8139
L12.4241 -34.4192
L12.3849 -34.0202
L12.3502 -33.6172
L12.3201 -33.2099
L12.2947 -32.7986
L12.2742 -32.3833
L12.2586 -31.964
L12.2482 -31.5408
L12.2429 -31.1137
L12.2429 -30.6831
L12.2483 -30.2488
L12.2592 -29.8112
L12.2756 -29.3704
L12.2976 -28.9265
L12.3253 -28.4799
L12.3586 -28.0307
L12.3975 -27.5792
L12.4421 -27.1258
L12.4921 -26.6707
L12.5476 -26.2143
L12.6084 -25.7571
L12.6742 -25.2994
L12.7447 -24.8418
L12.8197 -24.3848
L12.8988 -23.9288
L12.9814 -23.4746
L13.067 -23.0227
L13.155 -22.5739
L13.2445 -22.1288
L13.3346 -21.6883
L13.4245 -21.2532
L13.5129 -20.8243
L13.5987 -20.4027
L13.6805 -19.9891
L13.7569 -19.5845
L13.8264 -19.19
L13.8874 -18.8065
L13.9383 -18.4349
L13.5852 -18.0761
L13.2815 -18.3981
L12.9846 -18.7919
L12.6947 -19.191
L12.412 -19.5953
L12.1364 -20.0045
L11.8681 -20.4186
L11.6072 -20.8375
L11.3537 -21.2609
L11.1077 -21.6889
L10.8692 -22.1212
L10.6385 -22.5577
L10.4154 -22.9984
L10.2002 -23.443
L9.99276 -23.8914
L9.79329 -24.3435
L9.6018 -24.7992
L9.41835 -25.2583
L9.243 -25.7206
L9.0758 -26.1861
L8.9168 -26.6546
L8.76605 -27.1259
L8.62359 -27.5999
L8.48948 -28.0765
L8.36374 -28.5555
L8.24642 -29.0367
L8.13756 -29.5201
L8.03719 -30.0055
L7.94533 -30.4926
L7.86202 -30.9815
L7.78728 -31.4719
L7.72113 -31.9636
L7.66359 -32.4566
L7.61469 -32.9507
L7.57444 -33.4457
L7.54284 -33.9415
L7.51991 -34.4379
L7.50566 -34.9348
L7.50009 -35.432
L7.5032 -35.9294
L7.51498 -36.4268
L7.53545 -36.9241
L7.56459 -37.421
L7.60238 -37.9176
L7.64883 -38.4136
L7.70391 -38.9088
L7.76762 -39.4032
L7.83992 -39.8965
L7.9208 -40.3886
L8.01024 -40.8794
L8.1082 -41.3687
L8.21465 -41.8564
L8.32957 -42.3423
L8.45292 -42.8262
L8.58466 -43.3081
L8.72475 -43.7878
L8.87315 -44.265
L9.02981 -44.7398
L9.19469 -45.2119
L9.36773 -45.6812
L9.54889 -46.1475
L9.7381 -46.6108
L9.93531 -47.0708
L10.1405 -47.5274
L10.3535 -47.9806
L10.5743 -48.4301
L10.8029 -48.8758
L11.0392 -49.3175
L11.283 -49.7553
L11.5344 -50.1888
L11.7933 -50.618
L12.0595 -51.0428
L12.333 -51.4629
L12.6137 -51.8784
L12.9016 -52.289
L13.1965 -52.6947
L13.4983 -53.0953
L13.807 -53.4906
L14.1224 -53.8807
L14.4445 -54.2653
L14.7732 -54.6443
L15.1083 -55.0177
L15.4498 -55.3852
L15.7976 -55.7469
L16.1515 -56.1025
L16.5115 -56.4521
L16.8774 -56.7954
L17.2491 -57.1323
L17.6265 -57.4628
L18.0095 -57.7868
L18.3981 -58.1041
L18.7919 -58.4148
L19.191 -58.7185
L19.5953 -59.0154
L20.0045 -59.3053
L20.4186 -59.588
L20.8375 -59.8636
L21.2609 -60.1319
L21.6889 -60.3928
L22.1212 -60.6463
L22.5577 -60.8923
L22.9984 -61.1308
L23.443 -61.3615
L23.8914 -61.5846
L24.3435 -61.7998
L24.7992 -62.0072
L25.2583 -62.2067
L25.7206 -62.3982
L26.1861 -62.5817
L26.6546 -62.757
L27.1259 -62.9242
L27.5999 -63.0832
L28.0765 -63.234
L28.5555 -63.3764
L29.0367 -63.5105
L29.5201 -63.6363
L30.0055 -63.7536
L30.4926 -63.8624
L30.9815 -63.9628
L31.4719 -64.0547
L31.9636 -64.138
L32.4566 -64.2127
L32.9507 -64.2789
L33.4457 -64.3364
L33.9415 -64.3853
L34.4379 -64.4256
L34.9348 -64.4572
L35.432 -64.4801
L35.9294 -64.4943
L36.4268 -64.4999
L36.9241 -64.4968
L37.421 -64.485
L37.9176 -64.4646
L38.4136 -64.4354
L38.9088 -64.3976
L39.4032 -64.3512
L39.8965 -64.2961
L40.3886 -64.2324
L40.8794 -64.1601
L41.3687 -64.0792
L41.8564 -63.9898
L42.3423 -63.8918
z
" id="C0_2_02ca7e93c6"/>
    </defs>
    <g clip-path="url(#p1bffca34e9)">
     <use style="fill:#ff0000;stroke:#000000;stroke-width:2.0;" x="0.0" xlink:href="#C0_0_a811fe30f3" y="72.0"/>
    </g>
    <g clip-path="url(#p1bffca34e9)">
     <use style="fill:#ffffff;stroke:#000000;stroke-width:2.0;" x="0.0" xlink:href="#C0_1_a1a0bdf0c3" y="72.0"/>
    </g>
    <g clip-path="url(#p1bffca34e9)">
     <use style="fill:#ffffff;stroke:#000000;stroke-width:2.0;" x="0.0" xlink:href="#C0_2_02ca7e93c6" y="72.0"/>
    </g>
   </g>
  </g>
 </g>
 <defs>
  <clipPath id="p1bffca34e9">
   <rect height="72.0" width="72.0" x="0.0" y="0.0"/>
  </clipPath>
 </defs>
</svg>
