<?xml version="1.0" encoding="utf-8" standalone="no"?>
<!DOCTYPE svg PUBLIC "-//W3C//DTD SVG 1.1//EN"
  "http://www.w3.org/Graphics/SVG/1.1/DTD/svg11.dtd">
<!-- Created with matplotlib (http://matplotlib.org/) -->
<svg height="72pt" version="1.1" viewBox="0 0 72 72" width="72pt" xmlns="http://www.w3.org/2000/svg" xmlns:xlink="http://www.w3.org/1999/xlink">
 <defs>
  <style type="text/css">
*{stroke-linecap:butt;stroke-linejoin:round;}
  </style>
 </defs>
 <g id="figure_1">
  <g id="patch_1">
   <path d="
M0 72
L72 72
L72 0
L0 0
z
" style="fill:none;"/>
  </g>
  <g id="axes_1">
   <g id="PatchCollection_1">
    <defs>
     <path d="
M36 -7.5
C43.5583 -7.5 50.808 -10.5029 56.1525 -15.8475
C61.4971 -21.192 64.5 -28.4417 64.5 -36
C64.5 -43.5583 61.4971 -50.808 56.1525 -56.1525
C50.808 -61.4971 43.5583 -64.5 36 -64.5
C28.4417 -64.5 21.192 -61.4971 15.8475 -56.1525
C10.5029 -50.808 7.5 -43.5583 7.5 -36
C7.5 -28.4417 10.5029 -21.192 15.8475 -15.8475
C21.192 -10.5029 28.4417 -7.5 36 -7.5
z
" id="C0_0_a811fe30f3"/>
     <path d="
M64.1058 -31.8165
L63.9221 -31.8937
L63.738 -31.9694
L63.5534 -32.0439
L63.3683 -32.1171
L63.1827 -32.1891
L62.9966 -32.26
L62.81 -32.3297
L62.6229 -32.3984
L62.4352 -32.466
L62.247 -32.5327
L62.0582 -32.5984
L61.8688 -32.6632
L61.6787 -32.7272
L61.4881 -32.7903
L61.2967 -32.8526
L61.1047 -32.9142
L60.9119 -32.975
L60.7183 -33.0351
L60.524 -33.0945
L60.3288 -33.1532
L60.1328 -33.2114
L59.9359 -33.2689
L59.7381 -33.3258
L59.3395 -33.3822
L59.1386 -33.438
L58.9367 -33.4934
L58.7336 -33.5482
L58.5294 -33.6025
L58.324 -33.6564
L58.1172 -33.7098
L57.9092 -33.7628
L57.6999 -33.8154
L57.4891 -33.8676
L57.2768 -33.9194
L57.0631 -33.9708
L56.8478 -34.0219
L56.6309 -34.0726
L56.4124 -34.123
L56.1921 -34.173
L55.9701 -34.2228
L55.7462 -34.2722
L55.5204 -34.3214
L55.2928 -34.3702
L55.0631 -34.4188
L54.8313 -34.4671
L54.5975 -34.5151
L54.3614 -34.5628
L54.1232 -34.6103
L53.8826 -34.6575
L53.6396 -34.7045
L53.3943 -34.7512
L53.1464 -34.7976
L52.896 -34.8438
L52.643 -34.8897
L52.3873 -34.9353
L52.1289 -34.9806
L51.8677 -35.0257
L51.6036 -35.0704
L51.3366 -35.1149
L51.0666 -35.159
L50.7936 -35.2029
L50.5175 -35.2463
L50.2382 -35.2894
L49.9557 -35.3322
L49.67 -35.3745
L49.3809 -35.4164
L49.0885 -35.4578
L48.7927 -35.4988
L48.4935 -35.5392
L48.1908 -35.5791
L47.8845 -35.6184
L47.5748 -35.6571
L47.2615 -35.695
L46.9446 -35.7323
L46.6242 -35.7687
L46.3002 -35.8043
L45.9726 -35.8389
L45.6416 -35.8725
L45.307 -35.9051
L44.9689 -35.9364
L44.6274 -35.9665
L44.2826 -35.9952
L43.9345 -36.0224
L43.5832 -36.048
L43.2288 -36.0717
L42.8716 -36.0936
L42.5115 -36.1134
L42.1489 -36.1309
L41.7838 -36.146
L41.4166 -36.1583
L41.0474 -36.1678
L40.6765 -36.1741
L40.3043 -36.1769
L39.931 -36.1759
L39.5571 -36.1708
L39.1829 -36.1613
L38.809 -36.1468
L38.4357 -36.1271
L38.0636 -36.1016
L37.6934 -36.0698
L37.3255 -36.0312
L36.9606 -35.9851
L36.5995 -35.931
L36.2428 -35.8683
L35.8914 -35.7961
L35.5459 -35.7139
L35.2072 -35.6209
L34.876 -35.5165
L34.5531 -35.3999
L34.2392 -35.2705
L33.935 -35.1277
L33.6411 -34.9712
L33.3581 -34.8004
L33.0862 -34.6151
L32.8258 -34.4153
L32.5771 -34.2011
L32.3402 -33.9725
L32.1151 -33.7301
L31.9014 -33.4743
L31.6992 -33.2057
L31.508 -32.9252
L31.3274 -32.6335
L31.1572 -32.3315
L30.9968 -32.0201
L30.8459 -31.7004
L30.7039 -31.3731
L30.5705 -31.0393
L30.4453 -30.6997
L30.3278 -30.3553
L30.2176 -30.0068
L30.1143 -29.655
L30.0177 -29.3005
L29.9274 -28.9441
L29.8431 -28.5863
L29.7644 -28.2276
L29.6912 -27.8686
L29.6231 -27.5098
L29.56 -27.1515
L29.5016 -26.7941
L29.4477 -26.4379
L29.3981 -26.0834
L29.3526 -25.7306
L29.3111 -25.38
L29.2734 -25.0317
L29.2393 -24.6858
L29.2088 -24.3426
L29.1816 -24.0023
L29.1576 -23.6648
L29.1368 -23.3305
L29.1189 -22.9992
L29.104 -22.6712
L29.0918 -22.3464
L29.0824 -22.025
L29.0755 -21.707
L29.0712 -21.3923
L29.0693 -21.081
L29.0697 -20.7732
L29.0724 -20.4688
L29.0774 -20.1678
L29.0844 -19.8701
L29.0936 -19.5759
L29.1048 -19.285
L29.1179 -18.9974
L29.133 -18.7131
L29.1499 -18.432
L29.1686 -18.1542
L29.1891 -17.8795
L29.2114 -17.6079
L29.2353 -17.3393
L29.2609 -17.0738
L29.2882 -16.8112
L29.317 -16.5515
L29.3474 -16.2946
L29.3793 -16.0405
L29.4128 -15.7892
L29.4478 -15.5405
L29.4842 -15.2944
L29.5222 -15.0509
L29.5616 -14.8099
L29.6024 -14.5713
L29.6446 -14.335
L29.6883 -14.1011
L29.7334 -13.8695
L29.78 -13.64
L29.8279 -13.4127
L29.8773 -13.1874
L29.9281 -12.9642
L29.9803 -12.743
L30.0339 -12.5237
L30.089 -12.3062
L30.1455 -12.0906
L30.2035 -11.8767
L30.263 -11.6646
L30.324 -11.4541
L30.3864 -11.2452
L30.4505 -11.0379
L30.516 -10.8321
L30.5832 -10.6278
L30.6519 -10.425
L30.7223 -10.2235
L30.7943 -10.0233
L30.8681 -9.82452
L30.9436 -9.62696
L31.0208 -9.43064
L31.0999 -9.23551
L31.1808 -9.04153
L31.2637 -8.84869
L31.3484 -8.65694
L31.4352 -8.46625
L31.5241 -8.2766
L31.6151 -8.08796
L32.0979 -7.9003
L32.5912 -7.76839
L33.0856 -7.70459
L33.5808 -7.64941
L34.0768 -7.60286
L34.5733 -7.56497
L35.0703 -7.53573
L35.5676 -7.51517
L36.065 -7.50328
L36.5623 -7.50007
L37.0596 -7.50555
L37.5564 -7.5197
L38.0529 -7.54253
L38.5487 -7.57403
L39.0437 -7.61419
L39.5377 -7.66299
L40.0308 -7.72043
L40.5225 -7.78647
L41.0129 -7.86112
L41.5018 -7.94433
L41.989 -8.03609
L42.4744 -8.13637
L42.9578 -8.24514
L43.4391 -8.36236
L43.9181 -8.488
L44.3947 -8.62202
L44.8687 -8.76438
L45.3401 -8.91504
L45.8086 -9.07394
L46.2741 -9.24105
L46.7365 -9.41631
L47.1956 -9.59967
L47.6513 -9.79106
L48.1035 -9.99045
L48.5519 -10.1978
L48.9966 -10.4129
L49.4373 -10.6359
L49.8739 -10.8666
L50.3062 -11.1049
L50.7342 -11.3508
L51.1578 -11.6043
L51.5767 -11.8651
L51.9908 -12.1333
L52.4001 -12.4088
L52.8044 -12.6915
L53.2036 -12.9813
L53.5975 -13.278
L53.9861 -13.5817
L54.3692 -13.8923
L54.7467 -14.2095
L55.1185 -14.5335
L55.4844 -14.8639
L55.8444 -15.2008
L56.1984 -15.544
L56.5463 -15.8934
L56.8878 -16.249
L57.223 -16.6106
L57.5518 -16.9781
L57.874 -17.3514
L58.1895 -17.7304
L58.4982 -18.1149
L58.8002 -18.5049
L59.0951 -18.9002
L59.383 -19.3007
L59.6638 -19.7063
L59.9374 -20.1169
L60.2037 -20.5323
L60.4627 -20.9524
L60.7141 -21.3771
L60.9581 -21.8063
L61.1944 -22.2398
L61.4231 -22.6775
L61.644 -23.1192
L61.8572 -23.5648
L62.0624 -24.0143
L62.2597 -24.4674
L62.449 -24.924
L62.6303 -25.384
L62.8034 -25.8472
L62.9684 -26.3135
L63.1251 -26.7828
L63.2736 -27.2548
L63.4138 -27.7296
L63.5456 -28.2068
L63.6691 -28.6864
L63.7841 -29.1683
L63.8906 -29.6522
L63.9887 -30.1381
L64.0782 -30.6257
z
" id="C0_1_6f3e2ef517"/>
     <path d="
M40.2586 -64.0682
L40.1144 -63.9159
L39.9706 -63.7617
L39.8272 -63.6055
L39.6843 -63.4473
L39.5417 -63.287
L39.3995 -63.1247
L39.2575 -62.9602
L39.1158 -62.7936
L38.9743 -62.6247
L38.833 -62.4536
L38.6918 -62.2802
L38.5508 -62.1045
L38.4098 -61.9264
L38.2688 -61.7458
L38.1278 -61.5627
L37.9868 -61.3771
L37.8457 -61.1889
L37.7046 -60.998
L37.5633 -60.8044
L37.4218 -60.608
L37.2802 -60.4088
L37.1383 -60.2068
L36.9962 -60.0018
L36.8538 -59.7937
L36.7111 -59.5827
L36.5681 -59.3685
L36.4247 -59.1511
L36.2809 -58.9305
L36.1367 -58.7066
L35.9921 -58.4794
L35.847 -58.2487
L35.7015 -58.0146
L35.5554 -57.777
L35.4088 -57.5358
L35.2616 -57.291
L35.1138 -57.0425
L34.9655 -56.7903
L34.8165 -56.5344
L34.6669 -56.2747
L34.5166 -56.0112
L34.3656 -55.7439
L34.2139 -55.4727
L34.0614 -55.1977
L33.9082 -54.9188
L33.7542 -54.636
L33.5994 -54.3495
L33.4437 -54.0591
L33.2872 -53.7649
L33.1297 -53.467
L32.9713 -53.1654
L32.8119 -52.8603
L32.6515 -52.5516
L32.4899 -52.2397
L32.3273 -51.9245
L32.1634 -51.6062
L31.9983 -51.285
L31.8318 -50.9612
L31.6638 -50.635
L31.4943 -50.3066
L31.3232 -49.9763
L31.1502 -49.6446
L30.9752 -49.3117
L30.7982 -48.9781
L30.6187 -48.6442
L30.4368 -48.3107
L30.252 -47.9779
L30.0642 -47.6466
L29.873 -47.3175
L29.6781 -46.9911
L29.4792 -46.6683
L29.2758 -46.3498
L29.0675 -46.0366
L28.854 -45.7295
L28.6347 -45.4293
L28.4093 -45.1371
L28.1772 -44.8536
L27.9382 -44.5797
L27.6917 -44.3163
L27.4375 -44.0639
L27.1754 -43.8233
L26.9051 -43.595
L26.6266 -43.3792
L26.3399 -43.1762
L26.0452 -42.986
L25.7428 -42.8085
L25.4329 -42.6435
L25.1162 -42.4906
L24.793 -42.3492
L24.4639 -42.2188
L24.1297 -42.0989
L23.7909 -41.9886
L23.4481 -41.8874
L23.1022 -41.7946
L22.7537 -41.7094
L22.4032 -41.6312
L22.0513 -41.5594
L21.6986 -41.4935
L21.3457 -41.4327
L20.993 -41.3768
L20.641 -41.325
L20.2901 -41.2772
L19.9407 -41.2328
L19.5931 -41.1914
L19.2476 -41.1529
L18.9046 -41.1167
L18.5643 -41.0828
L18.2268 -41.0509
L17.8925 -41.0207
L17.5615 -40.9921
L17.2338 -40.9648
L16.9098 -40.9387
L16.5894 -40.9138
L16.2727 -40.8897
L15.9599 -40.8665
L15.6509 -40.844
L15.3459 -40.8222
L15.0449 -40.8009
L14.7478 -40.78
L14.4548 -40.7596
L14.1657 -40.7395
L13.8807 -40.7197
L13.5996 -40.7002
L13.3224 -40.6808
L13.0492 -40.6616
L12.7799 -40.6425
L12.5144 -40.6235
L12.2527 -40.6046
L11.9947 -40.5857
L11.7405 -40.5668
L11.4899 -40.5478
L11.2429 -40.5289
L10.9994 -40.5098
L10.7594 -40.4907
L10.5228 -40.4716
L10.2896 -40.4523
L10.0596 -40.4328
L9.83282 -40.4133
L9.6092 -40.3936
L9.38865 -40.3738
L9.17111 -40.3538
L8.95652 -40.3336
L8.74481 -40.3132
L8.53591 -40.2927
L8.32975 -40.2719
L8.12628 -40.2509
L7.89645 -40.2298
L7.9834 -40.7371
L8.07889 -41.2269
L8.18289 -41.715
L8.29535 -42.2015
L8.41626 -42.686
L8.54557 -43.1685
L8.68324 -43.6488
L8.82923 -44.1268
L8.9835 -44.6023
L9.146 -45.0752
L9.31668 -45.5453
L9.49548 -46.0125
L9.68236 -46.4767
L9.87726 -46.9376
L10.0801 -47.3953
L10.2909 -47.8495
L10.5094 -48.3
L10.7358 -48.7468
L10.9698 -49.1898
L11.2115 -49.6287
L11.4607 -50.0634
L11.7174 -50.4939
L11.9815 -50.92
L12.2529 -51.3415
L12.5315 -51.7583
L12.8173 -52.1704
L13.1102 -52.5775
L13.41 -52.9796
L13.7167 -53.3765
L14.0302 -53.7681
L14.3504 -54.1543
L14.6771 -54.5349
L15.0104 -54.9099
L15.3501 -55.2792
L15.696 -55.6426
L16.0482 -56
L16.4064 -56.3513
L16.7706 -56.6964
L17.1406 -57.0352
L17.5164 -57.3676
L17.8978 -57.6935
L18.2848 -58.0127
L18.6771 -58.3253
L19.0747 -58.6311
L19.4774 -58.93
L19.8852 -59.2219
L20.2979 -59.5067
L20.7154 -59.7844
L21.1376 -60.0548
L21.5642 -60.3179
L21.9953 -60.5735
L22.4306 -60.8217
L22.8701 -61.0624
L23.3136 -61.2954
L23.7609 -61.5207
L24.212 -61.7382
L24.6666 -61.9479
L25.1247 -62.1496
L25.5861 -62.3435
L26.0507 -62.5292
L26.5183 -62.707
L26.9888 -62.8765
L27.4621 -63.0379
L27.9379 -63.1911
L28.4162 -63.3359
L28.8968 -63.4725
L29.3796 -63.6006
L29.8644 -63.7204
L30.3511 -63.8317
L30.8395 -63.9346
L31.3294 -64.0289
L31.8208 -64.1147
L32.3135 -64.1919
L32.8072 -64.2606
L33.302 -64.3206
L33.7976 -64.372
L34.2938 -64.4148
L34.7906 -64.4489
L35.2877 -64.4743
L35.785 -64.4911
L36.2824 -64.4992
L36.7798 -64.4986
L37.2769 -64.4893
L37.7736 -64.4714
L38.2697 -64.4448
L38.7652 -64.4095
L39.2598 -64.3655
L39.7534 -64.313
z
" id="C0_2_01ac3efc51"/>
    </defs>
    <g clip-path="url(#p1bffca34e9)">
     <use style="fill:#ff0000;stroke:#000000;stroke-width:2.0;" x="0.0" xlink:href="#C0_0_a811fe30f3" y="72.0"/>
    </g>
    <g clip-path="url(#p1bffca34e9)">
     <use style="fill:#ffffff;stroke:#000000;stroke-width:2.0;" x="0.0" xlink:href="#C0_1_6f3e2ef517" y="72.0"/>
    </g>
    <g clip-path="url(#p1bffca34e9)">
     <use style="fill:#ffffff;stroke:#000000;stroke-width:2.0;" x="0.0" xlink:href="#C0_2_01ac3efc51" y="72.0"/>
    </g>
   </g>
  </g>
 </g>
 <defs>
  <clipPath id="p1bffca34e9">
   <rect height="72.0" width="72.0" x="0.0" y="0.0"/>
  </clipPath>
 </defs>
</svg>
