<?xml version="1.0" encoding="utf-8" standalone="no"?>
<!DOCTYPE svg PUBLIC "-//W3C//DTD SVG 1.1//EN"
  "http://www.w3.org/Graphics/SVG/1.1/DTD/svg11.dtd">
<!-- Created with matplotlib (http://matplotlib.org/) -->
<svg height="72pt" version="1.1" viewBox="0 0 72 72" width="72pt" xmlns="http://www.w3.org/2000/svg" xmlns:xlink="http://www.w3.org/1999/xlink">
 <defs>
  <style type="text/css">
*{stroke-linecap:butt;stroke-linejoin:round;}
  </style>
 </defs>
 <g id="figure_1">
  <g id="patch_1">
   <path d="
M0 72
L72 72
L72 0
L0 0
z
" style="fill:none;"/>
  </g>
  <g id="axes_1">
   <g id="PatchCollection_1">
    <defs>
     <path d="
M36 -7.5
C43.5583 -7.5 50.808 -10.5029 56.1525 -15.8475
C61.4971 -21.192 64.5 -28.4417 64.5 -36
C64.5 -43.5583 61.4971 -50.808 56.1525 -56.1525
C50.808 -61.4971 43.5583 -64.5 36 -64.5
C28.4417 -64.5 21.192 -61.4971 15.8475 -56.1525
C10.5029 -50.808 7.5 -43.5583 7.5 -36
C7.5 -28.4417 10.5029 -21.192 15.8475 -15.8475
C21.192 -10.5029 28.4417 -7.5 36 -7.5
z
" id="C0_0_a811fe30f3"/>
     <path d="
M17.9005 -57.9153
L17.9744 -57.7269
L18.05 -57.5393
L18.1272 -57.3526
L18.206 -57.1666
L18.2863 -56.9812
L18.3681 -56.7966
L18.4514 -56.6125
L18.5362 -56.429
L18.6223 -56.246
L18.7099 -56.0635
L18.7987 -55.8814
L18.889 -55.6997
L18.9805 -55.5184
L19.0734 -55.3373
L19.1675 -55.1565
L19.263 -54.9759
L19.3597 -54.7955
L19.4577 -54.6153
L19.557 -54.4351
L19.6575 -54.255
L19.7594 -54.0748
L19.8625 -53.8947
L19.9668 -53.7144
L20.1795 -53.5341
L20.2878 -53.3536
L20.3974 -53.1729
L20.5083 -52.9919
L20.6206 -52.8107
L20.7342 -52.6292
L20.8493 -52.4473
L20.9657 -52.2649
L21.0836 -52.0822
L21.2029 -51.899
L21.3237 -51.7152
L21.446 -51.5309
L21.5698 -51.346
L21.6951 -51.1604
L21.8221 -50.9741
L21.9506 -50.7872
L22.0808 -50.5994
L22.2126 -50.4109
L22.3462 -50.2215
L22.4815 -50.0312
L22.6186 -49.8401
L22.7575 -49.6479
L22.8982 -49.4548
L23.0409 -49.2607
L23.1855 -49.0654
L23.332 -48.8691
L23.4806 -48.6717
L23.6312 -48.473
L23.784 -48.2732
L23.9389 -48.0722
L24.096 -47.8698
L24.2553 -47.6662
L24.4169 -47.4613
L24.5809 -47.255
L24.7473 -47.0473
L24.9161 -46.8382
L25.0874 -46.6278
L25.2612 -46.4159
L25.4376 -46.2025
L25.6167 -45.9877
L25.7984 -45.7714
L25.9829 -45.5537
L26.1702 -45.3344
L26.3604 -45.1137
L26.5534 -44.8916
L26.7494 -44.6679
L26.9484 -44.4429
L27.1504 -44.2164
L27.3555 -43.9886
L27.5638 -43.7594
L27.7752 -43.529
L27.9899 -43.2973
L28.2078 -43.0644
L28.4291 -42.8304
L28.6537 -42.5955
L28.8816 -42.3595
L29.113 -42.1228
L29.3478 -41.8854
L29.5861 -41.6475
L29.8278 -41.4091
L30.0731 -41.1705
L30.3219 -40.9318
L30.5742 -40.6933
L30.83 -40.4552
L31.0894 -40.2178
L31.3523 -39.9812
L31.6188 -39.7459
L31.8888 -39.512
L32.1622 -39.2801
L32.4392 -39.0504
L32.7196 -38.8234
L33.0034 -38.5995
L33.2906 -38.3793
L33.5811 -38.1631
L33.8748 -37.9516
L34.1718 -37.7453
L34.4719 -37.5449
L34.7751 -37.3511
L35.0813 -37.1644
L35.3903 -36.9855
L35.7022 -36.8153
L36.0167 -36.6545
L36.3339 -36.5037
L36.6534 -36.3638
L36.9752 -36.2353
L37.2992 -36.1192
L37.6252 -36.0158
L37.9529 -35.926
L38.2822 -35.85
L38.6129 -35.7885
L38.9447 -35.7417
L39.2774 -35.7098
L39.6108 -35.6929
L39.9445 -35.6911
L40.2784 -35.7041
L40.6121 -35.7318
L40.9454 -35.7738
L41.278 -35.8297
L41.6096 -35.899
L41.94 -35.981
L42.2688 -36.0753
L42.5958 -36.1811
L42.9209 -36.2978
L43.2436 -36.4246
L43.5639 -36.5609
L43.8815 -36.706
L44.1962 -36.8592
L44.5079 -37.0198
L44.8163 -37.1874
L45.1214 -37.3612
L45.4229 -37.5407
L45.7208 -37.7253
L46.015 -37.9146
L46.3053 -38.1081
L46.5917 -38.3053
L46.8741 -38.5059
L47.1524 -38.7094
L47.4267 -38.9155
L47.6967 -39.1238
L47.9627 -39.3342
L48.2244 -39.5461
L48.4819 -39.7595
L48.7352 -39.9741
L48.9842 -40.1897
L49.2291 -40.406
L49.4698 -40.6229
L49.7063 -40.8402
L49.9387 -41.0577
L50.167 -41.2754
L50.3912 -41.4931
L50.6113 -41.7107
L50.8275 -41.9281
L51.0397 -42.1452
L51.2481 -42.362
L51.4525 -42.5782
L51.6532 -42.794
L51.8501 -43.0092
L52.0433 -43.2239
L52.2329 -43.4378
L52.4189 -43.6511
L52.6014 -43.8637
L52.7804 -44.0756
L52.956 -44.2868
L53.1282 -44.4971
L53.2972 -44.7068
L53.4629 -44.9156
L53.6254 -45.1237
L53.7847 -45.3311
L53.941 -45.5377
L54.0943 -45.7436
L54.2446 -45.9487
L54.392 -46.1531
L54.5364 -46.3569
L54.6781 -46.5599
L54.817 -46.7624
L54.9531 -46.9642
L55.0866 -47.1653
L55.2174 -47.366
L55.3456 -47.566
L55.4712 -47.7656
L55.5943 -47.9647
L55.7149 -48.1633
L55.8331 -48.3616
L55.9488 -48.5594
L56.0621 -48.7569
L56.1731 -48.9541
L56.2817 -49.151
L56.3879 -49.3477
L56.4919 -49.5443
L56.5936 -49.7406
L56.6931 -49.9369
L56.7903 -50.1331
L56.8852 -50.3293
L56.978 -50.5255
L57.0685 -50.7218
L57.1569 -50.9182
L57.243 -51.1147
L57.3269 -51.3115
L57.4087 -51.5085
L57.4882 -51.7058
L57.5655 -51.9035
L57.6407 -52.1016
L57.7135 -52.3001
L57.7842 -52.4992
L57.8526 -52.6988
L57.9187 -52.899
L57.9824 -53.0998
L58.0439 -53.3014
L58.103 -53.5038
L58.1597 -53.707
L57.849 -53.911
L57.5263 -54.2995
L57.197 -54.678
L56.8613 -55.0509
L56.5193 -55.4179
L56.1709 -55.779
L55.8165 -56.1341
L55.456 -56.4831
L55.0896 -56.8258
L54.7173 -57.1622
L54.3394 -57.4921
L53.9559 -57.8155
L53.5669 -58.1323
L53.1725 -58.4423
L52.7729 -58.7454
L52.3683 -59.0417
L51.9586 -59.3309
L51.544 -59.613
L51.1248 -59.8879
L50.7009 -60.1556
L50.2725 -60.4158
L49.8398 -60.6687
L49.4029 -60.914
L48.9619 -61.1518
L48.517 -61.3819
L48.0682 -61.6042
L47.6158 -61.8188
L47.1598 -62.0254
L46.7004 -62.2242
L46.2378 -62.415
L45.772 -62.5977
L45.3033 -62.7723
L44.8317 -62.9388
L44.3575 -63.0971
L43.8807 -63.2471
L43.4015 -63.3888
L42.92 -63.5221
L42.4365 -63.6471
L41.951 -63.7637
L41.4636 -63.8718
L40.9746 -63.9714
L40.4841 -64.0625
L39.9922 -64.145
L39.4991 -64.219
L39.005 -64.2844
L38.5099 -64.3411
L38.014 -64.3893
L37.5176 -64.4287
L37.0207 -64.4596
L36.5234 -64.4817
L36.026 -64.4952
L35.5286 -64.5
L35.0314 -64.4961
L34.5344 -64.4835
L34.0379 -64.4623
L33.542 -64.4324
L33.0468 -64.3938
L32.5526 -64.3466
L32.0594 -64.2907
L31.5673 -64.2263
L31.0767 -64.1532
L30.5875 -64.0715
L30.1 -63.9813
L29.6143 -63.8826
L29.1305 -63.7754
L28.6488 -63.6597
L28.1694 -63.5356
L27.6923 -63.4031
L27.2178 -63.2623
L26.7459 -63.1131
L26.2769 -62.9557
L25.8108 -62.7901
L25.3479 -62.6164
L24.8881 -62.4345
L24.4318 -62.2446
L23.979 -62.0466
L23.5298 -61.8408
L23.0845 -61.627
L22.6431 -61.4055
L22.2057 -61.1762
L21.7726 -60.9393
L21.3437 -60.6947
L20.9194 -60.4427
L20.4996 -60.1832
L20.0846 -59.9163
L19.6744 -59.6421
L19.2692 -59.3608
L18.8691 -59.0723
L18.4742 -58.7768
z
" id="C0_1_a6f1eb09f4"/>
     <path d="
M14.0417 -18.0924
L14.2548 -18.1062
L14.469 -18.1217
L14.6844 -18.1389
L14.9009 -18.1579
L15.1187 -18.1785
L15.3378 -18.2009
L15.5582 -18.2249
L15.78 -18.2507
L16.0033 -18.2782
L16.2281 -18.3074
L16.4544 -18.3384
L16.6824 -18.3711
L16.912 -18.4055
L17.1434 -18.4417
L17.3765 -18.4797
L17.6115 -18.5195
L17.8484 -18.5611
L18.0872 -18.6045
L18.3281 -18.6497
L18.571 -18.6968
L18.816 -18.7457
L19.0632 -18.7966
L19.3127 -18.8493
L19.5644 -18.9039
L19.8184 -18.9604
L20.0749 -19.0189
L20.3338 -19.0794
L20.5951 -19.1418
L20.8591 -19.2062
L21.1256 -19.2726
L21.3947 -19.341
L21.6666 -19.4114
L21.9411 -19.4838
L22.2185 -19.5582
L22.4986 -19.6347
L22.7816 -19.7132
L23.0674 -19.7937
L23.3562 -19.8763
L23.6478 -19.9608
L23.9425 -20.0473
L24.24 -20.1357
L24.5406 -20.226
L24.8442 -20.3182
L25.1507 -20.4123
L25.4603 -20.5081
L25.7728 -20.6056
L26.0883 -20.7047
L26.4067 -20.8053
L26.7281 -20.9073
L27.0523 -21.0106
L27.3793 -21.1151
L27.7091 -21.2206
L28.0417 -21.3269
L28.3769 -21.4338
L28.7146 -21.5411
L29.0549 -21.6486
L29.3975 -21.756
L29.7424 -21.863
L30.0894 -21.9693
L30.4384 -22.0745
L30.7893 -22.1782
L31.142 -22.28
L31.4961 -22.3794
L31.8517 -22.476
L32.2085 -22.5692
L32.5663 -22.6585
L32.9249 -22.7433
L33.2842 -22.823
L33.6438 -22.8969
L34.0036 -22.9643
L34.3634 -23.0247
L34.723 -23.0773
L35.082 -23.1216
L35.4404 -23.1569
L35.7979 -23.1825
L36.1543 -23.1981
L36.5093 -23.2032
L36.8629 -23.1973
L37.2148 -23.1802
L37.5649 -23.1517
L37.913 -23.1118
L38.259 -23.0605
L38.6027 -22.9979
L38.9441 -22.9243
L39.2831 -22.8401
L39.6195 -22.7456
L39.9533 -22.6414
L40.2844 -22.528
L40.6128 -22.4061
L40.9384 -22.2763
L41.2611 -22.1392
L41.5809 -21.9955
L41.8978 -21.8459
L42.2117 -21.6909
L42.5225 -21.5313
L42.8303 -21.3675
L43.1349 -21.2003
L43.4365 -21.0301
L43.7349 -20.8574
L44.03 -20.6827
L44.322 -20.5065
L44.6107 -20.3291
L44.8962 -20.1509
L45.1784 -19.9723
L45.4574 -19.7936
L45.7331 -19.6151
L46.0055 -19.437
L46.2746 -19.2595
L46.5404 -19.0829
L46.803 -18.9074
L47.0623 -18.7331
L47.3184 -18.5602
L47.5713 -18.3889
L47.821 -18.2191
L48.0675 -18.0511
L48.3108 -17.8849
L48.5511 -17.7205
L48.7883 -17.5582
L49.0224 -17.3979
L49.2536 -17.2396
L49.4818 -17.0834
L49.7071 -16.9293
L49.9295 -16.7774
L50.1491 -16.6276
L50.3659 -16.4801
L50.5799 -16.3346
L50.7913 -16.1914
L51.0001 -16.0503
L51.2063 -15.9114
L51.4099 -15.7746
L51.6111 -15.6399
L51.8099 -15.5074
L52.0062 -15.377
L52.2003 -15.2486
L52.3921 -15.1223
L52.5817 -14.998
L52.7692 -14.8757
L52.9545 -14.7554
L53.1378 -14.637
L53.3191 -14.5206
L53.4984 -14.406
L53.6759 -14.2933
L53.8515 -14.1825
L53.7116 -14.0735
L53.3192 -13.6718
L52.9216 -13.3661
L52.5188 -13.0673
L52.1109 -12.7754
L51.6982 -12.4907
L51.2806 -12.2131
L50.8585 -11.9427
L50.4317 -11.6797
L50.0006 -11.4241
L49.5653 -11.176
L49.1258 -10.9354
L48.6823 -10.7025
L48.2349 -10.4773
L47.7838 -10.2598
L47.3291 -10.0502
L46.871 -9.8485
L46.4095 -9.65476
L45.9449 -9.46905
L45.4773 -9.29142
L45.0068 -9.12192
L44.5335 -8.96062
L44.0576 -8.80754
L43.5793 -8.66276
L43.0986 -8.5263
L42.6158 -8.3982
L42.131 -8.27852
L41.6444 -8.16728
L41.156 -8.06452
L40.666 -7.97026
L40.1746 -7.88455
L39.6819 -7.8074
L39.1881 -7.73884
L38.6934 -7.67888
L38.1978 -7.62755
L37.7016 -7.58487
L37.2048 -7.55084
L36.7077 -7.52548
L36.2103 -7.50879
L35.7129 -7.50078
L35.2156 -7.50145
L34.7185 -7.5108
L34.2218 -7.52883
L33.7256 -7.55553
L33.2302 -7.59089
L32.7356 -7.63491
L32.2419 -7.68757
L31.7495 -7.74886
L31.2583 -7.81875
L30.7685 -7.89722
L30.2804 -7.98426
L29.794 -8.07983
L29.3095 -8.1839
L28.827 -8.29645
L28.3467 -8.41743
L27.8688 -8.54682
L27.3933 -8.68457
L26.9204 -8.83064
L26.4503 -8.98498
L25.9831 -9.14756
L25.519 -9.31831
L25.0581 -9.4972
L24.6004 -9.68415
L24.1463 -9.87912
L23.6958 -10.0821
L23.249 -10.2929
L22.8061 -10.5115
L22.3672 -10.7379
L21.9325 -10.9721
L21.5021 -11.2138
L21.0761 -11.4631
L20.6546 -11.7198
L20.2378 -11.984
L19.8258 -12.2555
L19.4187 -12.5342
L19.0167 -12.82
L18.6199 -13.1129
L18.2283 -13.4128
L17.8422 -13.7196
L17.4615 -14.0331
L17.0866 -14.3534
L16.7174 -14.6802
L16.3541 -15.0136
L15.9967 -15.3533
L15.6455 -15.6993
L15.3004 -16.0515
L14.9617 -16.4098
L14.6293 -16.774
L14.3035 -17.1441
z
" id="C0_2_9fc30afafc"/>
    </defs>
    <g clip-path="url(#p1bffca34e9)">
     <use style="fill:#ffffff;stroke:#000000;stroke-width:2.0;" x="0.0" xlink:href="#C0_0_a811fe30f3" y="72.0"/>
    </g>
    <g clip-path="url(#p1bffca34e9)">
     <use style="fill:#ff0000;stroke:#000000;stroke-width:2.0;" x="0.0" xlink:href="#C0_1_a6f1eb09f4" y="72.0"/>
    </g>
    <g clip-path="url(#p1bffca34e9)">
     <use style="fill:#ff0000;stroke:#000000;stroke-width:2.0;" x="0.0" xlink:href="#C0_2_9fc30afafc" y="72.0"/>
    </g>
   </g>
  </g>
 </g>
 <defs>
  <clipPath id="p1bffca34e9">
   <rect height="72.0" width="72.0" x="0.0" y="0.0"/>
  </clipPath>
 </defs>
</svg>
