<?xml version="1.0" encoding="utf-8" standalone="no"?>
<!DOCTYPE svg PUBLIC "-//W3C//DTD SVG 1.1//EN"
  "http://www.w3.org/Graphics/SVG/1.1/DTD/svg11.dtd">
<!-- Created with matplotlib (http://matplotlib.org/) -->
<svg height="72pt" version="1.1" viewBox="0 0 72 72" width="72pt" xmlns="http://www.w3.org/2000/svg" xmlns:xlink="http://www.w3.org/1999/xlink">
 <defs>
  <style type="text/css">
*{stroke-linecap:butt;stroke-linejoin:round;}
  </style>
 </defs>
 <g id="figure_1">
  <g id="patch_1">
   <path d="
M0 72
L72 72
L72 0
L0 0
z
" style="fill:none;"/>
  </g>
  <g id="axes_1">
   <g id="PatchCollection_1">
    <defs>
     <path d="
M36 -7.5
C43.5583 -7.5 50.808 -10.5029 56.1525 -15.8475
C61.4971 -21.192 64.5 -28.4417 64.5 -36
C64.5 -43.5583 61.4971 -50.808 56.1525 -56.1525
C50.808 -61.4971 43.5583 -64.5 36 -64.5
C28.4417 -64.5 21.192 -61.4971 15.8475 -56.1525
C10.5029 -50.808 7.5 -43.5583 7.5 -36
C7.5 -28.4417 10.5029 -21.192 15.8475 -15.8475
C21.192 -10.5029 28.4417 -7.5 36 -7.5
z
" id="C0_0_a811fe30f3"/>
     <path d="
M56.273 -16.2315
L56.1902 -16.5006
L56.1282 -16.7946
L56.084 -17.1109
L56.0545 -17.4466
L56.0367 -17.7992
L56.028 -18.1663
L56.0259 -18.5455
L56.0285 -18.9348
L56.0338 -19.3325
L56.0405 -19.737
L56.0472 -20.1468
L56.053 -20.5607
L56.0569 -20.9776
L56.0584 -21.3965
L56.0569 -21.8167
L56.052 -22.2373
L56.0434 -22.6578
L56.0308 -23.0775
L56.0141 -23.4959
L55.9932 -23.9125
L55.968 -24.3271
L55.9386 -24.7392
L55.9049 -25.1485
L55.8669 -25.5548
L55.8249 -25.9579
L55.7787 -26.3575
L55.7286 -26.7534
L55.6746 -27.1456
L55.6169 -27.5339
L55.5555 -27.9182
L55.4907 -28.2984
L55.4224 -28.6744
L55.3509 -29.0463
L55.2763 -29.414
L55.1986 -29.7774
L55.1181 -30.1366
L55.0348 -30.4916
L54.9489 -30.8423
L54.8604 -31.1888
L54.7695 -31.5312
L54.6762 -31.8694
L54.5807 -32.2035
L54.4831 -32.5335
L54.3834 -32.8596
L54.2818 -33.1817
L54.1783 -33.5
L54.073 -33.8144
L53.966 -34.1251
L53.8573 -34.4321
L53.747 -34.7355
L53.6351 -35.0353
L53.5218 -35.3317
L53.4071 -35.6248
L53.2909 -35.9145
L53.1734 -36.201
L53.0546 -36.4844
L52.9345 -36.7646
L52.8132 -37.0419
L52.6907 -37.3163
L52.5669 -37.5879
L52.4421 -37.8566
L52.316 -38.1227
L52.1889 -38.3862
L52.0606 -38.6472
L51.9312 -38.9057
L51.8008 -39.1618
L51.6692 -39.4157
L51.5365 -39.6673
L51.4028 -39.9167
L51.268 -40.164
L51.1321 -40.4094
L50.9951 -40.6527
L50.857 -40.8942
L50.7178 -41.1339
L50.5774 -41.3718
L50.436 -41.608
L50.2933 -41.8426
L50.1495 -42.0756
L50.0045 -42.3072
L49.8583 -42.5373
L49.7109 -42.766
L49.5622 -42.9934
L49.4122 -43.2195
L49.2609 -43.4444
L49.1083 -43.6682
L48.7988 -43.8908
L48.642 -44.1124
L48.4836 -44.333
L48.3238 -44.5527
L48.1624 -44.7715
L47.9994 -44.9894
L47.8348 -45.2065
L47.6684 -45.4228
L47.5004 -45.6384
L47.3306 -45.8534
L47.159 -46.0677
L46.9854 -46.2815
L46.81 -46.4947
L46.6326 -46.7074
L46.4532 -46.9196
L46.2716 -47.1314
L46.0879 -47.3427
L45.902 -47.5537
L45.7139 -47.7644
L45.5233 -47.9748
L45.3304 -48.1848
L45.135 -48.3947
L44.9371 -48.6043
L44.7366 -48.8136
L44.5334 -49.0229
L44.3274 -49.2319
L44.1186 -49.4408
L43.907 -49.6495
L43.6923 -49.8582
L43.4745 -50.0667
L43.2537 -50.2751
L43.0296 -50.4835
L42.8021 -50.6917
L42.5713 -50.8998
L42.3371 -51.1078
L42.0992 -51.3158
L41.8577 -51.5236
L41.6125 -51.7312
L41.3634 -51.9388
L41.1105 -52.1461
L40.8535 -52.3533
L40.5925 -52.5602
L40.3273 -52.7668
L40.0578 -52.9732
L39.784 -53.1792
L39.5058 -53.3848
L39.2232 -53.5899
L38.9359 -53.7946
L38.644 -53.9986
L38.3474 -54.202
L38.0461 -54.4047
L37.7399 -54.6065
L37.4288 -54.8075
L37.1129 -55.0074
L36.792 -55.2063
L36.4662 -55.4039
L36.1354 -55.6002
L35.7997 -55.7951
L35.459 -55.9883
L35.1134 -56.1799
L34.763 -56.3697
L34.4078 -56.5575
L34.0479 -56.7432
L33.6836 -56.9267
L33.3148 -57.1078
L32.9419 -57.2864
L32.565 -57.4623
L32.1845 -57.6355
L31.8006 -57.8058
L31.4138 -57.9731
L31.0245 -58.1374
L30.6333 -58.2986
L30.2406 -58.4568
L29.8473 -58.6118
L29.4542 -58.7638
L29.0622 -58.913
L28.6724 -59.0594
L28.2862 -59.2035
L27.9048 -59.3457
L27.5302 -59.4863
L27.1641 -59.6262
L26.8089 -59.7661
L26.467 -59.9071
L26.1413 -60.0502
L25.8348 -60.1971
L25.5509 -60.3491
L25.2931 -60.5082
L25.0647 -60.676
L24.8692 -60.8546
L24.7093 -61.0456
L24.5873 -61.2504
L24.5046 -61.4701
L24.462 -61.7052
L24.8795 -61.9557
L25.3392 -62.2409
L25.8021 -62.431
L26.2681 -62.613
L26.7371 -62.7869
L27.2089 -62.9527
L27.6834 -63.1103
L28.1604 -63.2596
L28.6398 -63.4006
L29.1214 -63.5332
L29.6052 -63.6575
L30.0909 -63.7733
L30.5783 -63.8807
L31.0675 -63.9796
L31.5581 -64.0699
L32.0501 -64.1517
L32.5433 -64.225
L33.0375 -64.2896
L33.5327 -64.3456
L34.0286 -64.393
L34.5251 -64.4317
L35.0221 -64.4618
L35.5193 -64.4832
L36.0167 -64.4959
L36.5141 -64.5
L37.0113 -64.4954
L37.5082 -64.4821
L38.0047 -64.4601
L38.5006 -64.4294
L38.9957 -64.3901
L39.4898 -64.3421
L39.983 -64.2855
L40.4749 -64.2203
L40.9654 -64.1465
L41.4544 -64.0641
L41.9418 -63.9732
L42.4274 -63.8737
L42.911 -63.7658
L43.3925 -63.6494
L43.8717 -63.5246
L44.3486 -63.3914
L44.8229 -63.2498
L45.2945 -63.0999
L45.7633 -62.9418
L46.2291 -62.7755
L46.6918 -62.6011
L47.1512 -62.4185
L47.6072 -62.2279
L48.0598 -62.0292
L48.5086 -61.8227
L48.9536 -61.6083
L49.3947 -61.3861
L49.8317 -61.1562
L50.2645 -60.9186
L50.6929 -60.6734
L51.1169 -60.4207
L51.5362 -60.1605
L51.9508 -59.893
L52.3606 -59.6182
L52.7654 -59.3363
L53.1651 -59.0472
L53.5595 -58.7511
L53.9486 -58.448
L54.3322 -58.1381
L54.7103 -57.8215
L55.0826 -57.4983
L55.4492 -57.1685
L55.8098 -56.8322
L56.1643 -56.4896
L56.5128 -56.1407
L56.855 -55.7857
L57.1908 -55.4247
L57.5202 -55.0578
L57.843 -54.6851
L58.1592 -54.3067
L58.4686 -53.9227
L58.7712 -53.5332
L59.0668 -53.1384
L59.3554 -52.7384
L59.6369 -52.3332
L59.9112 -51.9232
L60.1782 -51.5082
L60.4379 -51.0885
L60.6901 -50.6643
L60.9348 -50.2355
L61.1718 -49.8025
L61.4013 -49.3652
L61.6229 -48.9238
L61.8368 -48.4786
L62.0428 -48.0295
L62.2409 -47.5767
L62.431 -47.1205
L62.613 -46.6608
L62.7869 -46.1979
L62.9527 -45.7319
L63.1103 -45.2629
L63.2596 -44.7911
L63.4006 -44.3166
L63.5332 -43.8396
L63.6575 -43.3602
L63.7733 -42.8786
L63.8807 -42.3948
L63.9796 -41.9091
L64.0699 -41.4217
L64.1517 -40.9325
L64.225 -40.4419
L64.2896 -39.9499
L64.3456 -39.4567
L64.393 -38.9625
L64.4317 -38.4673
L64.4618 -37.9714
L64.4832 -37.4749
L64.4959 -36.9779
L64.5 -36.4807
L64.4954 -35.9833
L64.4821 -35.4859
L64.4601 -34.9887
L64.4294 -34.4918
L64.3901 -33.9953
L64.3421 -33.4994
L64.2855 -33.0043
L64.2203 -32.5102
L64.1465 -32.017
L64.0641 -31.5251
L63.9732 -31.0346
L63.8737 -30.5456
L63.7658 -30.0582
L63.6494 -29.5726
L63.5246 -29.089
L63.3914 -28.6075
L63.2498 -28.1283
L63.0999 -27.6514
L62.9418 -27.1771
L62.7755 -26.7055
L62.6011 -26.2367
L62.4185 -25.7709
L62.2279 -25.3082
L62.0292 -24.8488
L61.8227 -24.3928
L61.6083 -23.9402
L61.3861 -23.4914
L61.1562 -23.0464
L60.9186 -22.6053
L60.6734 -22.1683
L60.4207 -21.7355
L60.1605 -21.3071
L59.893 -20.8831
L59.6182 -20.4638
L59.3363 -20.0492
L59.0472 -19.6394
L58.7511 -19.2346
L58.448 -18.8349
L58.1381 -18.4405
L57.8215 -18.0514
L57.4983 -17.6678
L57.1685 -17.2897
L56.8322 -16.9174
z
" id="C0_1_2fff7e75e2"/>
     <path d="
M47.4211 -10.0513
L47.1929 -10.2196
L46.9342 -10.377
L46.6485 -10.5255
L46.3395 -10.667
L46.0107 -10.8034
L45.6653 -10.9364
L45.3063 -11.0674
L44.9362 -11.1977
L44.5575 -11.3283
L44.172 -11.4602
L43.7815 -11.5939
L43.3876 -11.7301
L42.9916 -11.8691
L42.5946 -12.0112
L42.1975 -12.1567
L41.8013 -12.3056
L41.4067 -12.458
L41.0142 -12.614
L40.6244 -12.7735
L40.2378 -12.9365
L39.8547 -13.1028
L39.4755 -13.2723
L39.1004 -13.445
L38.7298 -13.6207
L38.3637 -13.7992
L38.0023 -13.9804
L37.6459 -14.1641
L37.2943 -14.3503
L36.9478 -14.5386
L36.6064 -14.7291
L36.2701 -14.9215
L35.939 -15.1156
L35.6129 -15.3115
L35.292 -15.5089
L34.9762 -15.7077
L34.6654 -15.9078
L34.3596 -16.109
L34.0588 -16.3113
L33.7628 -16.5146
L33.4717 -16.7188
L33.1853 -16.9238
L32.9037 -17.1294
L32.6266 -17.3357
L32.354 -17.5426
L32.0859 -17.75
L31.8221 -17.9578
L31.5626 -18.1661
L31.3072 -18.3747
L31.0559 -18.5836
L30.8086 -18.7927
L30.5652 -19.0022
L30.3256 -19.2118
L30.0897 -19.4217
L29.8574 -19.6317
L29.6287 -19.8419
L29.4034 -20.0523
L29.1815 -20.2628
L28.9629 -20.4734
L28.7475 -20.6842
L28.5352 -20.8952
L28.3259 -21.1062
L28.1195 -21.3175
L27.9161 -21.5289
L27.7154 -21.7406
L27.5174 -21.9524
L27.3221 -22.1644
L27.1294 -22.3767
L26.9392 -22.5892
L26.7514 -22.802
L26.566 -23.0151
L26.3829 -23.2286
L26.202 -23.4424
L26.0234 -23.6566
L25.8468 -23.8713
L25.6723 -24.0864
L25.4998 -24.302
L25.3293 -24.5181
L25.1607 -24.7348
L24.9939 -24.9521
L24.829 -25.1701
L24.6658 -25.3887
L24.5043 -25.6081
L24.3444 -25.8282
L24.1862 -26.0492
L24.0296 -26.2711
L23.8745 -26.4939
L23.7209 -26.7176
L23.5688 -26.9424
L23.4181 -27.1682
L23.2688 -27.3951
L23.1209 -27.6233
L22.9743 -27.8526
L22.829 -28.0833
L22.6851 -28.3152
L22.5423 -28.5486
L22.4009 -28.7835
L22.2606 -29.0198
L22.1215 -29.2578
L21.9836 -29.4974
L21.8469 -29.7387
L21.7114 -29.9818
L21.5769 -30.2267
L21.4436 -30.4735
L21.3115 -30.7223
L21.1804 -30.9731
L21.0505 -31.226
L20.9216 -31.4812
L20.7939 -31.7385
L20.6673 -31.9982
L20.5419 -32.2604
L20.4175 -32.5249
L20.2943 -32.7921
L20.1723 -33.0618
L20.0514 -33.3343
L19.9317 -33.6095
L19.8132 -33.8876
L19.696 -34.1686
L19.58 -34.4527
L19.4653 -34.7398
L19.3519 -35.0301
L19.2399 -35.3236
L19.1293 -35.6205
L19.0202 -35.9208
L18.9126 -36.2245
L18.8065 -36.5318
L18.702 -36.8427
L18.5992 -37.1573
L18.4982 -37.4756
L18.3989 -37.7978
L18.3016 -38.1239
L18.2061 -38.4539
L18.1128 -38.7879
L18.0215 -39.126
L17.9325 -39.4682
L17.8457 -39.8145
L17.7614 -40.1651
L17.6796 -40.5198
L17.6004 -40.8787
L17.5239 -41.2419
L17.4503 -41.6093
L17.3796 -41.981
L17.312 -42.3568
L17.2476 -42.7369
L17.1864 -43.121
L17.1287 -43.5092
L17.0745 -43.9014
L17.0239 -44.2975
L16.9771 -44.6974
L16.9342 -45.1008
L16.8951 -45.5077
L16.86 -45.9178
L16.829 -46.3309
L16.8021 -46.7468
L16.7792 -47.1652
L16.7604 -47.5856
L16.7456 -48.0078
L16.7347 -48.4313
L16.7275 -48.8555
L16.7238 -49.28
L16.7232 -49.704
L16.7254 -50.1269
L16.7298 -50.5479
L16.7357 -50.9659
L16.7424 -51.38
L16.7488 -51.789
L16.7537 -52.1916
L16.7556 -52.5861
L16.7528 -52.9709
L16.7433 -53.3441
L16.7247 -53.7034
L16.6946 -54.0467
L16.6499 -54.3714
L16.5878 -54.6749
L16.5054 -54.9547
L16.3997 -55.2082
L16.2685 -55.4335
L16.1099 -55.6287
L15.923 -55.7926
L15.3186 -55.9246
L14.9795 -55.6094
L14.6468 -55.2455
L14.3206 -54.8757
L14.0011 -54.5001
L13.6882 -54.119
L13.3821 -53.7323
L13.0829 -53.3402
L12.7907 -52.9428
L12.5056 -52.5403
L12.2276 -52.1327
L11.9569 -51.7202
L11.6935 -51.3029
L11.4375 -50.881
L11.189 -50.4545
L10.948 -50.0236
L10.7147 -49.5885
L10.489 -49.1492
L10.2712 -48.7059
L10.0611 -48.2587
L9.85901 -47.8078
L9.66485 -47.3534
L9.47871 -46.8954
L9.30065 -46.4341
L9.13072 -45.9697
L8.96897 -45.5022
L8.81546 -45.0318
L8.67023 -44.5587
L8.53333 -44.0829
L8.40479 -43.6047
L8.28466 -43.1242
L8.17297 -42.6415
L8.06976 -42.1568
L7.97505 -41.6702
L7.88888 -41.1819
L7.81128 -40.692
L7.74226 -40.2007
L7.68185 -39.7081
L7.63006 -39.2144
L7.58692 -38.7197
L7.55243 -38.2241
L7.52661 -37.7279
L7.50945 -37.2312
L7.50098 -36.7341
L7.50119 -36.2367
L7.51008 -35.7393
L7.52765 -35.242
L7.55389 -34.7449
L7.5888 -34.2481
L7.63236 -33.752
L7.68456 -33.2565
L7.74539 -32.7618
L7.81482 -32.2681
L7.89284 -31.7756
L7.97942 -31.2843
L8.07454 -30.7945
L8.17816 -30.3063
L8.29026 -29.8198
L8.4108 -29.3351
L8.53974 -28.8526
L8.67705 -28.3722
L8.82268 -27.8941
L8.97658 -27.4184
L9.13872 -26.9454
L9.30904 -26.4752
L9.4875 -26.0079
L9.67402 -25.5436
L9.86857 -25.0824
L10.0711 -24.6247
L10.2815 -24.1703
L10.4997 -23.7196
L10.7257 -23.2726
L10.9594 -22.8295
L11.2008 -22.3904
L11.4497 -21.9555
L11.706 -21.5248
L11.9698 -21.0986
L12.2409 -20.6768
L12.5192 -20.2598
L12.8047 -19.8475
L13.0972 -19.4402
L13.3967 -19.0379
L13.7031 -18.6408
L14.0163 -18.2489
L14.3362 -17.8625
L14.6627 -17.4816
L14.9957 -17.1063
L15.3351 -16.7368
L15.6808 -16.3732
L16.0326 -16.0155
L16.3906 -15.664
L16.7545 -15.3186
L17.1243 -14.9795
L17.4999 -14.6468
L17.881 -14.3206
L18.2677 -14.0011
L18.6598 -13.6882
L19.0572 -13.3821
L19.4597 -13.0829
L19.8673 -12.7907
L20.2798 -12.5056
L20.6971 -12.2276
L21.119 -11.9569
L21.5455 -11.6935
L21.9764 -11.4375
L22.4115 -11.189
L22.8508 -10.948
L23.2941 -10.7147
L23.7413 -10.489
L24.1922 -10.2712
L24.6466 -10.0611
L25.1046 -9.85901
L25.5659 -9.66485
L26.0303 -9.47871
L26.4978 -9.30065
L26.9682 -9.13072
L27.4413 -8.96897
L27.9171 -8.81546
L28.3953 -8.67023
L28.8758 -8.53333
L29.3585 -8.40479
L29.8432 -8.28466
L30.3298 -8.17297
L30.8181 -8.06976
L31.308 -7.97505
L31.7993 -7.88888
L32.2919 -7.81128
L32.7856 -7.74226
L33.2803 -7.68185
L33.7759 -7.63006
L34.2721 -7.58692
L34.7688 -7.55243
L35.2659 -7.52661
L35.7633 -7.50945
L36.2607 -7.50098
L36.758 -7.50119
L37.2551 -7.51008
L37.7519 -7.52765
L38.248 -7.55389
L38.7435 -7.5888
L39.2382 -7.63236
L39.7319 -7.68456
L40.2244 -7.74539
L40.7157 -7.81482
L41.2055 -7.89284
L41.6937 -7.97942
L42.1802 -8.07454
L42.6649 -8.17816
L43.1474 -8.29026
L43.6278 -8.4108
L44.1059 -8.53974
L44.5816 -8.67705
L45.0546 -8.82268
L45.5248 -8.97658
L45.9921 -9.13872
L46.4564 -9.30904
L46.9176 -9.4875
z
" id="C0_2_b67880feaf"/>
    </defs>
    <g clip-path="url(#p1bffca34e9)">
     <use style="fill:#ff0000;stroke:#000000;stroke-width:2.0;" x="0.0" xlink:href="#C0_0_a811fe30f3" y="72.0"/>
    </g>
    <g clip-path="url(#p1bffca34e9)">
     <use style="fill:#ffffff;stroke:#000000;stroke-width:2.0;" x="0.0" xlink:href="#C0_1_2fff7e75e2" y="72.0"/>
    </g>
    <g clip-path="url(#p1bffca34e9)">
     <use style="fill:#ffffff;stroke:#000000;stroke-width:2.0;" x="0.0" xlink:href="#C0_2_b67880feaf" y="72.0"/>
    </g>
   </g>
  </g>
 </g>
 <defs>
  <clipPath id="p1bffca34e9">
   <rect height="72.0" width="72.0" x="0.0" y="0.0"/>
  </clipPath>
 </defs>
</svg>
