<?xml version="1.0" encoding="utf-8" standalone="no"?>
<!DOCTYPE svg PUBLIC "-//W3C//DTD SVG 1.1//EN"
  "http://www.w3.org/Graphics/SVG/1.1/DTD/svg11.dtd">
<!-- Created with matplotlib (http://matplotlib.org/) -->
<svg height="72pt" version="1.1" viewBox="0 0 72 72" width="72pt" xmlns="http://www.w3.org/2000/svg" xmlns:xlink="http://www.w3.org/1999/xlink">
 <defs>
  <style type="text/css">
*{stroke-linecap:butt;stroke-linejoin:round;}
  </style>
 </defs>
 <g id="figure_1">
  <g id="patch_1">
   <path d="
M0 72
L72 72
L72 0
L0 0
z
" style="fill:none;"/>
  </g>
  <g id="axes_1">
   <g id="PatchCollection_1">
    <defs>
     <path d="
M36 -7.5
C43.5583 -7.5 50.808 -10.5029 56.1525 -15.8475
C61.4971 -21.192 64.5 -28.4417 64.5 -36
C64.5 -43.5583 61.4971 -50.808 56.1525 -56.1525
C50.808 -61.4971 43.5583 -64.5 36 -64.5
C28.4417 -64.5 21.192 -61.4971 15.8475 -56.1525
C10.5029 -50.808 7.5 -43.5583 7.5 -36
C7.5 -28.4417 10.5029 -21.192 15.8475 -15.8475
C21.192 -10.5029 28.4417 -7.5 36 -7.5
z
" id="C0_0_a811fe30f3"/>
     <path d="
M22.5929 -10.9395
L22.5975 -11.152
L22.6041 -11.3637
L22.6129 -11.5748
L22.6236 -11.7853
L22.6363 -11.9952
L22.6509 -12.2045
L22.6672 -12.4134
L22.6854 -12.6218
L22.7052 -12.8298
L22.7267 -13.0375
L22.7499 -13.2448
L22.7747 -13.4519
L22.801 -13.6587
L22.8288 -13.8654
L22.8582 -14.0719
L22.889 -14.2783
L22.9213 -14.4846
L22.955 -14.691
L22.9902 -14.8974
L23.0267 -15.1039
L23.0646 -15.3106
L23.1039 -15.5174
L23.1446 -15.7245
L23.1866 -15.9319
L23.2746 -16.1396
L23.3207 -16.3476
L23.3681 -16.5562
L23.4168 -16.7652
L23.4669 -16.9747
L23.5183 -17.1848
L23.5711 -17.3956
L23.6252 -17.607
L23.6807 -17.8192
L23.7376 -18.0322
L23.7959 -18.246
L23.8557 -18.4608
L23.9168 -18.6764
L23.9794 -18.8931
L24.0435 -19.1109
L24.109 -19.3297
L24.1761 -19.5497
L24.2446 -19.771
L24.3148 -19.9935
L24.3865 -20.2174
L24.4598 -20.4426
L24.5348 -20.6693
L24.6114 -20.8975
L24.6897 -21.1272
L24.7698 -21.3586
L24.8516 -21.5916
L24.9353 -21.8264
L25.0208 -22.0629
L25.1081 -22.3013
L25.1974 -22.5416
L25.2887 -22.7838
L25.382 -23.028
L25.4773 -23.2743
L25.5747 -23.5227
L25.6743 -23.7732
L25.7761 -24.0259
L25.8801 -24.2809
L25.9865 -24.5383
L26.0951 -24.7979
L26.2063 -25.06
L26.3198 -25.3245
L26.4359 -25.5914
L26.5546 -25.8609
L26.6759 -26.1329
L26.8 -26.4075
L26.9268 -26.6847
L27.0564 -26.9645
L27.1889 -27.2469
L27.3244 -27.5319
L27.4629 -27.8196
L27.6045 -28.1099
L27.7492 -28.4029
L27.8971 -28.6984
L28.0484 -28.9965
L28.203 -29.2971
L28.361 -29.6001
L28.5225 -29.9056
L28.6875 -30.2134
L28.8562 -30.5234
L29.0285 -30.8355
L29.2046 -31.1496
L29.3846 -31.4656
L29.5684 -31.7832
L29.7561 -32.1023
L29.9479 -32.4226
L30.1438 -32.7439
L30.3438 -33.066
L30.5481 -33.3884
L30.7566 -33.711
L30.9695 -34.0331
L31.1869 -34.3546
L31.4088 -34.6747
L31.6352 -34.9931
L31.8664 -35.3091
L32.1024 -35.6221
L32.3433 -35.9313
L32.5892 -36.2359
L32.8402 -36.535
L33.0965 -36.8277
L33.3582 -37.1129
L33.6254 -37.3895
L33.8984 -37.6563
L34.1771 -37.912
L34.4619 -38.1552
L34.7528 -38.3845
L35.05 -38.5986
L35.3534 -38.7959
L35.6632 -38.9753
L35.9793 -39.1355
L36.3015 -39.2755
L36.6298 -39.3945
L36.9638 -39.4919
L37.3032 -39.5674
L37.6474 -39.6212
L37.9962 -39.6535
L38.3487 -39.665
L38.7046 -39.6565
L39.0631 -39.629
L39.4236 -39.5837
L39.7856 -39.5218
L40.1484 -39.4445
L40.5114 -39.3532
L40.8742 -39.249
L41.2362 -39.1332
L41.5969 -39.0068
L41.956 -38.8709
L42.313 -38.7264
L42.6677 -38.5744
L43.0196 -38.4155
L43.3685 -38.2506
L43.7142 -38.0803
L44.0564 -37.9052
L44.3949 -37.726
L44.7295 -37.543
L45.0602 -37.3569
L45.3867 -37.168
L45.709 -36.9767
L46.027 -36.7834
L46.3406 -36.5883
L46.6497 -36.3918
L46.9544 -36.1941
L47.2545 -35.9954
L47.55 -35.796
L47.841 -35.596
L48.1275 -35.3957
L48.4094 -35.1952
L48.6868 -34.9945
L48.9597 -34.7939
L49.2282 -34.5935
L49.4922 -34.3933
L49.7518 -34.1935
L50.0072 -33.9941
L50.2582 -33.7951
L50.5051 -33.5967
L50.7478 -33.399
L50.9864 -33.2018
L51.221 -33.0053
L51.4516 -32.8096
L51.6783 -32.6145
L51.9012 -32.4202
L52.1204 -32.2267
L52.3358 -32.034
L52.5477 -31.842
L52.756 -31.6508
L52.9609 -31.4604
L53.1623 -31.2708
L53.3605 -31.0819
L53.5554 -30.8937
L53.747 -30.7063
L53.9356 -30.5197
L54.1211 -30.3337
L54.3037 -30.1484
L54.4833 -29.9637
L54.66 -29.7797
L54.834 -29.5963
L55.0052 -29.4134
L55.1737 -29.2311
L55.3396 -29.0493
L55.503 -28.868
L55.6638 -28.6872
L55.8222 -28.5067
L55.9782 -28.3267
L56.1318 -28.1469
L56.2831 -27.9675
L56.4321 -27.7884
L56.5789 -27.6095
L56.7236 -27.4307
L56.8661 -27.2522
L57.0065 -27.0737
L57.1448 -26.8953
L57.2812 -26.7169
L57.4155 -26.5385
L57.5478 -26.36
L57.6783 -26.1815
L57.8068 -26.0027
L57.9334 -25.8238
L58.0582 -25.6447
L58.1811 -25.4652
L58.3022 -25.2854
L58.4216 -25.1052
L58.5391 -24.9245
L58.6548 -24.7434
L58.7688 -24.5617
L58.881 -24.3794
L58.9915 -24.1965
L59.1002 -24.0129
L59.2072 -23.8285
L59.3124 -23.6433
L59.4159 -23.4572
L59.5175 -23.2702
L59.6174 -23.0822
L59.7155 -22.8931
L59.8118 -22.7029
L59.9063 -22.5116
L59.9989 -22.3189
L60.0896 -22.125
L60.1784 -21.9297
L60.2652 -21.733
L60.3501 -21.5347
L60.1538 -21.3348
L59.8861 -20.8724
L59.6111 -20.4532
L59.329 -20.0387
L59.0397 -19.629
L58.7434 -19.2244
L58.4402 -18.8248
L58.1302 -18.4305
L57.8134 -18.0416
L57.4899 -17.6581
L57.16 -17.2802
L56.8235 -16.908
L56.4808 -16.5416
L56.1318 -16.1811
L55.7766 -15.8267
L55.4155 -15.4784
L55.0484 -15.1364
L54.6755 -14.8007
L54.2969 -14.4715
L53.9128 -14.1489
L53.5232 -13.8329
L53.1283 -13.5236
L52.7281 -13.2212
L52.3229 -12.9258
L51.9126 -12.6373
L51.4976 -12.356
L51.0778 -12.0819
L50.6534 -11.8151
L50.2246 -11.5556
L49.7914 -11.3036
L49.354 -11.0591
L48.9126 -10.8222
L48.4672 -10.593
L48.018 -10.3715
L47.5652 -10.1578
L47.1088 -9.95203
L46.6491 -9.75415
L46.1861 -9.56428
L45.72 -9.38245
L45.2509 -9.20873
L44.7791 -9.04318
L44.3045 -8.88583
L43.8274 -8.73674
L43.348 -8.59596
L42.8663 -8.46353
L42.3825 -8.33948
L41.8968 -8.22386
L41.4092 -8.1167
L40.9201 -8.01804
L40.4294 -7.9279
L39.9374 -7.8463
L39.4441 -7.77329
L38.9499 -7.70887
L38.4547 -7.65307
L37.9588 -7.60591
L37.4623 -7.56739
L36.9653 -7.53754
L36.468 -7.51635
L35.9706 -7.50384
L35.4733 -7.50002
L34.976 -7.50487
L34.4791 -7.5184
L33.9827 -7.54061
L33.4868 -7.57149
L32.9917 -7.61103
L32.4976 -7.65921
L32.0045 -7.71603
L31.5126 -7.78146
L31.0221 -7.85549
L30.5331 -7.93809
L30.0458 -8.02924
L29.5603 -8.12891
L29.0767 -8.23707
L28.5953 -8.35369
L28.1161 -8.47873
L27.6393 -8.61215
L27.1651 -8.75391
L26.6936 -8.90398
L26.2248 -9.06229
L25.7591 -9.22882
L25.2965 -9.40349
L24.8371 -9.58627
L24.3812 -9.7771
L23.9288 -9.97591
L23.48 -10.1827
L23.0351 -10.3973
z
" id="C0_1_752047d1c2"/>
     <path d="
M11.739 -50.7621
L11.9578 -50.7802
L12.1784 -50.7965
L12.401 -50.8109
L12.6256 -50.8235
L12.8521 -50.8343
L13.0808 -50.8432
L13.3117 -50.8503
L13.5448 -50.8555
L13.7802 -50.8589
L14.018 -50.8605
L14.2583 -50.8601
L14.5011 -50.8578
L14.7464 -50.8536
L14.9944 -50.8475
L15.2451 -50.8395
L15.4987 -50.8294
L15.755 -50.8174
L16.0144 -50.8034
L16.2767 -50.7873
L16.5421 -50.7692
L16.8106 -50.749
L17.0823 -50.7267
L17.3573 -50.7023
L17.6357 -50.6758
L17.9174 -50.6471
L18.2025 -50.6161
L18.4912 -50.583
L18.7834 -50.5477
L19.0792 -50.5101
L19.3787 -50.4703
L19.6819 -50.4282
L19.9888 -50.3839
L20.2994 -50.3372
L20.6139 -50.2883
L20.9321 -50.2372
L21.2542 -50.1838
L21.5801 -50.1281
L21.9098 -50.0703
L22.2433 -50.0104
L22.5806 -49.9483
L22.9216 -49.8843
L23.2664 -49.8183
L23.6148 -49.7504
L23.9667 -49.6808
L24.3222 -49.6097
L24.6811 -49.5371
L25.0432 -49.4633
L25.4085 -49.3885
L25.7767 -49.313
L26.1478 -49.2371
L26.5215 -49.161
L26.8975 -49.0852
L27.2758 -49.0102
L27.6559 -48.9363
L28.0376 -48.8643
L28.4206 -48.7948
L28.8045 -48.7283
L29.189 -48.6659
L29.5736 -48.6082
L29.9579 -48.5564
L30.3414 -48.5113
L30.7237 -48.4743
L31.1043 -48.4463
L31.4826 -48.4288
L31.8581 -48.4228
L32.2304 -48.4297
L32.5989 -48.4506
L32.9633 -48.4866
L33.3231 -48.5385
L33.678 -48.6071
L34.0278 -48.6926
L34.3723 -48.7954
L34.7114 -48.9152
L35.0451 -49.0515
L35.3736 -49.2038
L35.6969 -49.371
L36.0152 -49.5521
L36.3287 -49.7458
L36.6377 -49.951
L36.9423 -50.1662
L37.2428 -50.3902
L37.5394 -50.6218
L37.8322 -50.8598
L38.1215 -51.103
L38.4074 -51.3505
L38.69 -51.6012
L38.9694 -51.8543
L39.2457 -52.1091
L39.5191 -52.3647
L39.7895 -52.6207
L40.0571 -52.8763
L40.3218 -53.1312
L40.5838 -53.3849
L40.843 -53.6369
L41.0995 -53.8871
L41.3533 -54.1349
L41.6044 -54.3803
L41.8529 -54.6229
L42.0988 -54.8626
L42.3421 -55.0991
L42.5828 -55.3325
L42.8209 -55.5625
L43.0565 -55.789
L43.2896 -56.012
L43.5202 -56.2314
L43.7484 -56.4472
L43.9742 -56.6594
L44.1975 -56.8678
L44.4186 -57.0725
L44.6373 -57.2736
L44.8537 -57.471
L45.0679 -57.6647
L45.2799 -57.8547
L45.4897 -58.0411
L45.6974 -58.224
L45.903 -58.4033
L46.1066 -58.5791
L46.3083 -58.7514
L46.508 -58.9203
L46.7058 -59.0858
L46.9018 -59.248
L47.096 -59.4069
L47.2884 -59.5626
L47.4792 -59.7152
L47.6683 -59.8646
L47.8559 -60.0109
L48.0419 -60.1543
L48.2264 -60.2947
L48.4095 -60.4322
L48.5912 -60.5668
L48.7716 -60.6986
L48.9508 -60.8277
L49.1287 -60.9541
L48.9161 -61.0778
L48.4708 -61.4052
L48.0216 -61.6267
L47.5688 -61.8405
L47.1125 -62.0464
L46.6528 -62.2443
L46.1898 -62.4342
L45.7237 -62.6161
L45.2547 -62.7899
L44.7829 -62.9555
L44.3083 -63.1129
L43.8313 -63.2621
L43.3518 -63.4029
L42.8702 -63.5354
L42.3864 -63.6596
L41.9007 -63.7752
L41.4131 -63.8825
L40.924 -63.9812
L40.4333 -64.0714
L39.9413 -64.1531
L39.4481 -64.2262
L38.9538 -64.2906
L38.4587 -64.3465
L37.9627 -64.3937
L37.4662 -64.4323
L36.9693 -64.4623
L36.472 -64.4835
L35.9746 -64.4961
L35.4772 -64.5
L34.98 -64.4952
L34.4831 -64.4817
L33.9866 -64.4596
L33.4908 -64.4288
L32.9957 -64.3893
L32.5015 -64.3412
L32.0084 -64.2845
L31.5166 -64.2191
L31.026 -64.1451
L30.537 -64.0626
L30.0497 -63.9715
L29.5642 -63.8719
L29.0806 -63.7638
L28.5992 -63.6473
L28.1199 -63.5223
L27.6431 -63.389
L27.1689 -63.2473
L26.6973 -63.0973
L26.2286 -62.939
L25.7628 -62.7726
L25.3002 -62.5979
L24.8408 -62.4152
L24.3848 -62.2245
L23.9324 -62.0257
L23.4836 -61.819
L23.0387 -61.6045
L22.5977 -61.3822
L22.1607 -61.1521
L21.728 -60.9144
L21.2997 -60.669
L20.8758 -60.4162
L20.4565 -60.1559
L20.042 -59.8883
L19.6323 -59.6134
L19.2276 -59.3313
L18.828 -59.0421
L18.4337 -58.7458
L18.0447 -58.4427
L17.6611 -58.1327
L17.2832 -57.8159
L16.9109 -57.4926
L16.5445 -57.1626
L16.184 -56.8263
L15.8295 -56.4836
L15.4812 -56.1346
L15.1391 -55.7795
L14.8034 -55.4184
L14.4741 -55.0514
L14.1514 -54.6785
L13.8354 -54.3
L13.5261 -53.9159
L13.2236 -53.5264
L12.9281 -53.1315
L12.6396 -52.7313
L12.3583 -52.3261
L12.0841 -51.916
z
" id="C0_2_f8d0950349"/>
    </defs>
    <g clip-path="url(#p1bffca34e9)">
     <use style="fill:#ffffff;stroke:#000000;stroke-width:2.0;" x="0.0" xlink:href="#C0_0_a811fe30f3" y="72.0"/>
    </g>
    <g clip-path="url(#p1bffca34e9)">
     <use style="fill:#ff0000;stroke:#000000;stroke-width:2.0;" x="0.0" xlink:href="#C0_1_752047d1c2" y="72.0"/>
    </g>
    <g clip-path="url(#p1bffca34e9)">
     <use style="fill:#ff0000;stroke:#000000;stroke-width:2.0;" x="0.0" xlink:href="#C0_2_f8d0950349" y="72.0"/>
    </g>
   </g>
  </g>
 </g>
 <defs>
  <clipPath id="p1bffca34e9">
   <rect height="72.0" width="72.0" x="0.0" y="0.0"/>
  </clipPath>
 </defs>
</svg>
