<?xml version="1.0" encoding="utf-8" standalone="no"?>
<!DOCTYPE svg PUBLIC "-//W3C//DTD SVG 1.1//EN"
  "http://www.w3.org/Graphics/SVG/1.1/DTD/svg11.dtd">
<!-- Created with matplotlib (http://matplotlib.org/) -->
<svg height="72pt" version="1.1" viewBox="0 0 72 72" width="72pt" xmlns="http://www.w3.org/2000/svg" xmlns:xlink="http://www.w3.org/1999/xlink">
 <defs>
  <style type="text/css">
*{stroke-linecap:butt;stroke-linejoin:round;}
  </style>
 </defs>
 <g id="figure_1">
  <g id="patch_1">
   <path d="
M0 72
L72 72
L72 0
L0 0
z
" style="fill:none;"/>
  </g>
  <g id="axes_1">
   <g id="PatchCollection_1">
    <defs>
     <path d="
M36 -7.5
C43.5583 -7.5 50.808 -10.5029 56.1525 -15.8475
C61.4971 -21.192 64.5 -28.4417 64.5 -36
C64.5 -43.5583 61.4971 -50.808 56.1525 -56.1525
C50.808 -61.4971 43.5583 -64.5 36 -64.5
C28.4417 -64.5 21.192 -61.4971 15.8475 -56.1525
C10.5029 -50.808 7.5 -43.5583 7.5 -36
C7.5 -28.4417 10.5029 -21.192 15.8475 -15.8475
C21.192 -10.5029 28.4417 -7.5 36 -7.5
z
" id="C0_0_a811fe30f3"/>
     <path d="
M7.70092 -33.9164
L7.95483 -33.5707
L8.22187 -33.2391
L8.50026 -32.9211
L8.78848 -32.6157
L9.08521 -32.3224
L9.38928 -32.0406
L9.69968 -31.7697
L10.0155 -31.5092
L10.336 -31.2586
L10.6604 -31.0177
L10.9881 -30.7859
L11.3186 -30.563
L11.6513 -30.3486
L11.9857 -30.1424
L12.3215 -29.9441
L12.6583 -29.7534
L12.9956 -29.5701
L13.3333 -29.3938
L13.6709 -29.2244
L14.0083 -29.0616
L14.3452 -28.9052
L14.6814 -28.7549
L15.0166 -28.6106
L15.3508 -28.4719
L15.6838 -28.3388
L16.0154 -28.211
L16.3455 -28.0883
L16.674 -27.9706
L17.0008 -27.8577
L17.3258 -27.7494
L17.649 -27.6455
L17.9702 -27.5459
L18.2895 -27.4504
L18.6067 -27.3589
L18.922 -27.2713
L19.2352 -27.1874
L19.5462 -27.107
L19.8553 -27.0301
L20.1622 -26.9565
L20.467 -26.8861
L20.7698 -26.8189
L21.0705 -26.7546
L21.3692 -26.6932
L21.6658 -26.6347
L21.9605 -26.5788
L22.2532 -26.5255
L22.544 -26.4748
L22.8329 -26.4265
L23.1199 -26.3805
L23.4052 -26.3369
L23.6887 -26.2955
L23.9704 -26.2562
L24.2505 -26.219
L24.529 -26.1839
L24.8059 -26.1507
L25.0813 -26.1194
L25.3552 -26.09
L25.6277 -26.0624
L25.8989 -26.0366
L26.1688 -26.0125
L26.4374 -25.99
L26.7048 -25.9692
L26.9712 -25.95
L27.2364 -25.9324
L27.5007 -25.9163
L27.764 -25.9017
L28.0264 -25.8886
L28.288 -25.8769
L28.5488 -25.8666
L28.8089 -25.8577
L29.0684 -25.8503
L29.3273 -25.8441
L29.5857 -25.8393
L29.8436 -25.8359
L30.1011 -25.8337
L30.3582 -25.8329
L30.6151 -25.8333
L30.8718 -25.835
L31.1283 -25.838
L31.3847 -25.8423
L31.8975 -25.8478
L32.154 -25.8546
L32.4107 -25.8626
L32.6676 -25.8719
L32.9248 -25.8825
L33.1823 -25.8943
L33.4402 -25.9074
L33.6986 -25.9218
L33.9575 -25.9375
L34.217 -25.9545
L34.4772 -25.9727
L34.7381 -25.9923
L34.9998 -26.0132
L35.2623 -26.0355
L35.5258 -26.0592
L35.7902 -26.0842
L36.0557 -26.1106
L36.3223 -26.1385
L36.59 -26.1678
L36.859 -26.1987
L37.1292 -26.231
L37.4009 -26.2648
L37.6739 -26.3003
L37.9484 -26.3373
L38.2245 -26.376
L38.5022 -26.4163
L38.7815 -26.4584
L39.0626 -26.5022
L39.3455 -26.5479
L39.6302 -26.5954
L39.9168 -26.6447
L40.2054 -26.6961
L40.496 -26.7494
L40.7887 -26.8048
L41.0836 -26.8623
L41.3806 -26.9219
L41.6798 -26.9839
L41.9813 -27.0481
L42.2852 -27.1146
L42.5914 -27.1836
L42.9 -27.2552
L43.211 -27.3293
L43.5245 -27.4061
L43.8405 -27.4856
L44.159 -27.568
L44.4801 -27.6532
L44.8037 -27.7415
L45.1298 -27.8329
L45.4585 -27.9275
L45.7898 -28.0254
L46.1235 -28.1267
L46.4598 -28.2315
L46.7985 -28.3399
L47.1397 -28.452
L47.4832 -28.568
L47.8291 -28.6879
L48.1771 -28.8119
L48.5273 -28.9401
L48.8795 -29.0726
L49.2337 -29.2095
L49.5895 -29.351
L49.947 -29.4972
L50.3059 -29.6482
L50.6661 -29.8042
L51.0272 -29.9652
L51.3891 -30.1316
L51.7515 -30.3033
L52.1141 -30.4806
L52.4765 -30.6635
L52.8383 -30.8523
L53.1992 -31.0471
L53.5586 -31.2481
L53.9161 -31.4554
L54.271 -31.6692
L54.6227 -31.8898
L54.9705 -32.1174
L55.3136 -32.3522
L55.6508 -32.5944
L55.9813 -32.8444
L56.3037 -33.1024
L56.6165 -33.369
L56.918 -33.6445
L57.2064 -33.9295
L57.4792 -34.2245
L57.7341 -34.5302
L57.968 -34.8474
L58.1779 -35.1769
L58.3605 -35.5193
L58.5128 -35.8755
L58.632 -36.246
L58.7162 -36.6308
L58.7644 -37.0297
L58.7766 -37.442
L58.7541 -37.8661
L58.6988 -38.3005
L58.6131 -38.7429
L58.5 -39.1913
L58.362 -39.6436
L58.2018 -40.0978
L58.0217 -40.5521
L57.824 -41.0051
L57.6105 -41.4554
L57.3829 -41.9018
L57.1427 -42.3436
L56.8911 -42.7798
L56.6293 -43.2099
L56.3583 -43.6333
L56.0792 -44.0495
L55.7926 -44.4582
L55.4994 -44.859
L55.2002 -45.2518
L54.8957 -45.6364
L54.5865 -46.0126
L54.2732 -46.3803
L53.9561 -46.7395
L53.6359 -47.0901
L53.3128 -47.4321
L52.9874 -47.7656
L52.6599 -48.0906
L52.3308 -48.4071
L52.0003 -48.7152
L51.6687 -49.0151
L51.3364 -49.3068
L51.0035 -49.5904
L50.6702 -49.8661
L50.3369 -50.1339
L50.0036 -50.3942
L49.6706 -50.6468
L49.338 -50.8922
L49.006 -51.1302
L48.6746 -51.3613
L48.3441 -51.5854
L48.0144 -51.8027
L47.6858 -52.0134
L47.3582 -52.2177
L47.0318 -52.4157
L46.7066 -52.6076
L46.3826 -52.7934
L46.06 -52.9734
L45.7386 -53.1478
L45.4187 -53.3165
L45.1001 -53.4799
L44.7829 -53.638
L44.4671 -53.791
L44.1528 -53.9389
L43.8398 -54.082
L43.5282 -54.2204
L43.218 -54.3541
L42.9092 -54.4832
L42.6017 -54.608
L42.2955 -54.7285
L41.9907 -54.8448
L41.687 -54.957
L41.3847 -55.0652
L41.0835 -55.1695
L40.7834 -55.2701
L40.4845 -55.3668
L40.1866 -55.46
L39.8898 -55.5496
L39.594 -55.6357
L39.2991 -55.7183
L39.0051 -55.7976
L38.7119 -55.8737
L38.4195 -55.9465
L38.1279 -56.0161
L37.837 -56.0826
L37.5466 -56.1461
L37.2569 -56.2065
L36.9677 -56.264
L36.6789 -56.3185
L36.3906 -56.3701
L36.1026 -56.4189
L35.8149 -56.4648
L35.5274 -56.5079
L35.2401 -56.5482
L34.9529 -56.5858
L34.6658 -56.6206
L34.3787 -56.6527
L34.0916 -56.6821
L33.8043 -56.7087
L33.5168 -56.7327
L33.2291 -56.754
L32.9411 -56.7725
L32.6528 -56.7884
L32.364 -56.8015
L32.0747 -56.8119
L31.7849 -56.8196
L31.4944 -56.8246
L31.2033 -56.8267
L30.9115 -56.8261
L30.6189 -56.8227
L30.3254 -56.8164
L30.031 -56.8072
L29.7357 -56.7951
L29.4393 -56.78
L29.1418 -56.7619
L28.8431 -56.7408
L28.5433 -56.7165
L28.2421 -56.6891
L27.9396 -56.6585
L27.6358 -56.6246
L27.3305 -56.5873
L27.0237 -56.5466
L26.7153 -56.5024
L26.4053 -56.4546
L26.0937 -56.4031
L25.7803 -56.3479
L25.4652 -56.2888
L25.1483 -56.2257
L24.8295 -56.1585
L24.5088 -56.0872
L24.1862 -56.0115
L23.8616 -55.9314
L23.535 -55.8468
L23.2064 -55.7574
L22.8757 -55.6632
L22.543 -55.564
L22.2081 -55.4597
L21.8712 -55.35
L21.5321 -55.2349
L21.1909 -55.1141
L20.8476 -54.9875
L20.5023 -54.8549
L20.1549 -54.7161
L19.8054 -54.5708
L19.4539 -54.419
L19.1005 -54.2602
L18.7453 -54.0945
L18.3882 -53.9214
L18.0294 -53.7408
L17.6691 -53.5525
L17.3072 -53.3562
L16.9439 -53.1516
L16.5795 -52.9384
L16.2139 -52.7166
L15.8476 -52.4857
L15.4805 -52.2455
L15.1131 -51.9957
L14.7454 -51.7361
L14.3778 -51.4664
L14.0107 -51.1864
L13.6442 -50.8958
L13.2789 -50.5943
L12.915 -50.2817
L12.553 -49.9577
L12.1933 -49.6222
L11.8364 -49.275
L11.4829 -48.9157
L11.1334 -48.5444
L10.7883 -48.1608
L10.4485 -47.7648
L10.1145 -47.3564
L9.78722 -46.9355
L9.46741 -46.5022
L9.17782 -46.0565
L9.01376 -45.6343
L8.85793 -45.1648
L8.71036 -44.6924
L8.5711 -44.2174
L8.4402 -43.7399
L8.31769 -43.26
L8.20362 -42.7779
L8.09801 -42.2937
L8.0009 -41.8077
L7.91232 -41.3198
L7.8323 -40.8304
L7.76086 -40.3394
L7.69801 -39.8472
L7.64379 -39.3537
L7.59821 -38.8593
L7.56128 -38.364
L7.53301 -37.8679
L7.51341 -37.3713
L7.50249 -36.8743
L7.50025 -36.377
L7.5067 -35.8796
L7.52182 -35.3822
z
" id="C0_1_c4e916eda3"/>
     <path d="
M62.828 -26.4071
L62.8801 -26.9606
L62.9237 -27.5147
L62.9592 -28.0686
L62.9873 -28.6215
L63.009 -29.1727
L63.0253 -29.7211
L63.0375 -30.2658
L63.0474 -30.8057
L63.0568 -31.3396
L63.0681 -31.8662
L63.0839 -32.3842
L63.1071 -32.8922
L63.1407 -33.389
L63.1877 -33.8735
L63.2507 -34.345
L63.3315 -34.8032
L63.431 -35.2484
L63.5493 -35.6813
L63.685 -36.1032
L63.8362 -36.5155
L64.0006 -36.9201
L64.1755 -37.3183
L64.4739 -37.7118
L64.4908 -37.2205
L64.4991 -36.7234
L64.4987 -36.226
L64.4896 -35.7286
L64.4719 -35.2313
L64.4454 -34.7342
L64.4104 -34.2375
L64.3666 -33.7413
L64.3142 -33.2458
L64.2532 -32.7512
L64.1836 -32.2575
L64.1054 -31.765
L64.0186 -31.2738
L63.9233 -30.784
L63.8195 -30.2958
L63.7072 -29.8093
L63.5865 -29.3248
L63.4574 -28.8422
L63.3199 -28.3619
L63.1741 -27.8838
L63.02 -27.4083
z
" id="C0_2_028e86ef63"/>
    </defs>
    <g clip-path="url(#p1bffca34e9)">
     <use style="fill:#ffffff;stroke:#000000;stroke-width:2.0;" x="0.0" xlink:href="#C0_0_a811fe30f3" y="72.0"/>
    </g>
    <g clip-path="url(#p1bffca34e9)">
     <use style="fill:#ff0000;stroke:#000000;stroke-width:2.0;" x="0.0" xlink:href="#C0_1_c4e916eda3" y="72.0"/>
    </g>
    <g clip-path="url(#p1bffca34e9)">
     <use style="fill:#ff0000;stroke:#000000;stroke-width:2.0;" x="0.0" xlink:href="#C0_2_028e86ef63" y="72.0"/>
    </g>
   </g>
  </g>
 </g>
 <defs>
  <clipPath id="p1bffca34e9">
   <rect height="72.0" width="72.0" x="0.0" y="0.0"/>
  </clipPath>
 </defs>
</svg>
