<?xml version="1.0" encoding="utf-8" standalone="no"?>
<!DOCTYPE svg PUBLIC "-//W3C//DTD SVG 1.1//EN"
  "http://www.w3.org/Graphics/SVG/1.1/DTD/svg11.dtd">
<!-- Created with matplotlib (http://matplotlib.org/) -->
<svg height="72pt" version="1.1" viewBox="0 0 72 72" width="72pt" xmlns="http://www.w3.org/2000/svg" xmlns:xlink="http://www.w3.org/1999/xlink">
 <defs>
  <style type="text/css">
*{stroke-linecap:butt;stroke-linejoin:round;}
  </style>
 </defs>
 <g id="figure_1">
  <g id="patch_1">
   <path d="
M0 72
L72 72
L72 0
L0 0
z
" style="fill:none;"/>
  </g>
  <g id="axes_1">
   <g id="PatchCollection_1">
    <defs>
     <path d="
M36 -7.5
C43.5583 -7.5 50.808 -10.5029 56.1525 -15.8475
C61.4971 -21.192 64.5 -28.4417 64.5 -36
C64.5 -43.5583 61.4971 -50.808 56.1525 -56.1525
C50.808 -61.4971 43.5583 -64.5 36 -64.5
C28.4417 -64.5 21.192 -61.4971 15.8475 -56.1525
C10.5029 -50.808 7.5 -43.5583 7.5 -36
C7.5 -28.4417 10.5029 -21.192 15.8475 -15.8475
C21.192 -10.5029 28.4417 -7.5 36 -7.5
z
" id="C0_0_a811fe30f3"/>
     <path d="
M41.3627 -8.01774
L41.3821 -8.20829
L41.4006 -8.39916
L41.4185 -8.59039
L41.4357 -8.78202
L41.4522 -8.97406
L41.468 -9.16656
L41.4832 -9.35954
L41.4978 -9.55306
L41.5117 -9.74714
L41.525 -9.94182
L41.5377 -10.1371
L41.5498 -10.3331
L41.5614 -10.5299
L41.5724 -10.7273
L41.5828 -10.9256
L41.602 -11.1248
L41.6108 -11.3248
L41.6191 -11.5258
L41.6268 -11.7278
L41.634 -11.9308
L41.6408 -12.1349
L41.647 -12.3402
L41.6527 -12.5466
L41.6579 -12.7543
L41.6626 -12.9632
L41.6668 -13.1736
L41.6705 -13.3853
L41.6737 -13.5985
L41.6764 -13.8132
L41.6786 -14.0295
L41.6804 -14.2474
L41.6816 -14.467
L41.6824 -14.6884
L41.6826 -14.9116
L41.6824 -15.1367
L41.6817 -15.3637
L41.6804 -15.5928
L41.6787 -15.8239
L41.6764 -16.0572
L41.6737 -16.2927
L41.6704 -16.5305
L41.6666 -16.7706
L41.6623 -17.0132
L41.6575 -17.2582
L41.6521 -17.5058
L41.6462 -17.7561
L41.6398 -18.0091
L41.6328 -18.2648
L41.6252 -18.5235
L41.6172 -18.785
L41.6085 -19.0496
L41.5993 -19.3172
L41.5895 -19.588
L41.5791 -19.862
L41.5682 -20.1393
L41.5567 -20.42
L41.5446 -20.7041
L41.5319 -20.9917
L41.5187 -21.2828
L41.5049 -21.5777
L41.4905 -21.8761
L41.4755 -22.1784
L41.4599 -22.4845
L41.4438 -22.7944
L41.4272 -23.1082
L41.41 -23.426
L41.3923 -23.7477
L41.3741 -24.0735
L41.3555 -24.4033
L41.3364 -24.7371
L41.3169 -25.075
L41.297 -25.417
L41.2769 -25.763
L41.2565 -26.113
L41.2359 -26.4671
L41.2152 -26.825
L41.1945 -27.1869
L41.174 -27.5525
L41.1536 -27.9218
L41.1336 -28.2947
L41.1141 -28.6711
L41.0953 -29.0507
L41.0774 -29.4335
L41.0606 -29.8191
L41.0453 -30.2073
L41.0316 -30.5979
L41.0201 -30.9905
L41.011 -31.3849
L41.0048 -31.7805
L41.0021 -32.177
L41.0034 -32.5738
L41.0094 -32.9705
L41.0207 -33.3664
L41.0384 -33.7608
L41.0632 -34.153
L41.0961 -34.5423
L41.1384 -34.9276
L41.1911 -35.3081
L41.2556 -35.6828
L41.333 -36.0507
L41.4247 -36.4105
L41.532 -36.7614
L41.656 -37.1021
L41.7975 -37.4316
L41.9575 -37.7492
L42.1362 -38.054
L42.3338 -38.3455
L42.5501 -38.6234
L42.7844 -38.8874
L43.036 -39.1377
L43.3038 -39.3745
L43.5864 -39.5983
L43.8825 -39.8097
L44.1906 -40.0092
L44.5092 -40.1976
L44.837 -40.3755
L45.1726 -40.5437
L45.5147 -40.7028
L45.8621 -40.8534
L46.2138 -40.9961
L46.5687 -41.1314
L46.9259 -41.2599
L47.2848 -41.3819
L47.6445 -41.4979
L48.0043 -41.6082
L48.3638 -41.7131
L48.7224 -41.813
L49.0797 -41.908
L49.4352 -41.9985
L49.7886 -42.0846
L50.1397 -42.1665
L50.488 -42.2445
L50.8334 -42.3186
L51.1758 -42.3891
L51.5148 -42.4561
L51.8504 -42.5197
L52.1824 -42.58
L52.5108 -42.6372
L52.8355 -42.6914
L53.1563 -42.7427
L53.4733 -42.7911
L53.7863 -42.8368
L54.0955 -42.8798
L54.4008 -42.9203
L54.7021 -42.9583
L54.9995 -42.9939
L55.293 -43.0272
L55.5826 -43.0582
L55.8684 -43.087
L56.1503 -43.1136
L56.4285 -43.1382
L56.703 -43.1608
L56.9739 -43.1813
L57.2411 -43.2
L57.5048 -43.2168
L57.765 -43.2318
L58.0218 -43.245
L58.2752 -43.2564
L58.5253 -43.2662
L58.7722 -43.2742
L59.0159 -43.2807
L59.2565 -43.2856
L59.4942 -43.2889
L59.7289 -43.2906
L59.9607 -43.2909
L60.1896 -43.2896
L60.4159 -43.2869
L60.6395 -43.2828
L60.8605 -43.2772
L61.0789 -43.2702
L61.2949 -43.2618
L61.5085 -43.2521
L61.7197 -43.2409
L61.9287 -43.2285
L62.1355 -43.2146
L62.3401 -43.1994
L62.5427 -43.1829
L62.7433 -43.165
L62.9419 -43.1458
L63.1386 -43.1253
L63.3334 -43.1034
L63.5265 -43.0802
L63.7268 -43.0556
L63.8377 -42.5934
L63.94 -42.1085
L64.0339 -41.6218
L64.1192 -41.1333
L64.196 -40.6432
L64.2641 -40.1518
L64.3237 -39.6591
L64.3746 -39.1652
L64.4169 -38.6704
L64.4505 -38.1748
L64.4755 -37.6785
L64.4918 -37.1818
L64.4994 -36.6846
L64.4983 -36.1873
L64.4886 -35.6898
L64.4701 -35.1925
L64.443 -34.6955
L64.4073 -34.1988
L64.3628 -33.7027
L64.3098 -33.2072
L64.2481 -32.7127
L64.1778 -32.2191
L64.0989 -31.7267
L64.0115 -31.2355
L63.9155 -30.7459
L63.8111 -30.2578
L63.6981 -29.7715
L63.5768 -29.2871
L63.447 -28.8047
L63.3088 -28.3245
L63.1624 -27.8467
L63.0077 -27.3713
L62.8447 -26.8986
L62.6736 -26.4286
L62.4943 -25.9616
L62.307 -25.4976
L62.1116 -25.0368
L61.9084 -24.5793
L61.6972 -24.1254
L61.4782 -23.675
L61.2514 -23.2284
L61.0169 -22.7857
L60.7748 -22.347
L60.5252 -21.9125
L60.2681 -21.4822
L60.0036 -21.0564
L59.7318 -20.6352
L59.4527 -20.2186
L59.1666 -19.8068
L58.8733 -19.4
L58.5731 -18.9982
L58.266 -18.6016
L57.9522 -18.2103
L57.6316 -17.8244
L57.3045 -17.444
L56.9708 -17.0693
L56.6308 -16.7004
L56.2845 -16.3374
L55.932 -15.9803
L55.5735 -15.6293
L55.209 -15.2846
L54.8386 -14.9461
L54.4625 -14.6141
L54.0808 -14.2886
L53.6935 -13.9697
L53.3009 -13.6575
L52.903 -13.3521
L52.5 -13.0536
L52.0919 -12.7621
L51.6789 -12.4777
L51.2612 -12.2004
L50.8388 -11.9304
L50.4119 -11.6677
L49.9806 -11.4124
L49.545 -11.1647
L49.1053 -10.9244
L48.6616 -10.6919
L48.2141 -10.467
L47.7628 -10.2499
L47.308 -10.0407
L46.8497 -9.83935
L46.3881 -9.64598
L45.9233 -9.46064
L45.4555 -9.28338
L44.9849 -9.11427
L44.5115 -8.95334
L44.0355 -8.80065
L43.5571 -8.65625
L43.0763 -8.52017
L42.5934 -8.39247
L42.1085 -8.27318
z
" id="C0_1_d0c6335f4a"/>
     <path d="
M8.46733 -29.0174
L8.62382 -29.1311
L8.78118 -29.2441
L8.93942 -29.3565
L9.09857 -29.4683
L9.25865 -29.5795
L9.41967 -29.6903
L9.58167 -29.8005
L9.74468 -29.9103
L9.90871 -30.0197
L10.0738 -30.1287
L10.24 -30.2373
L10.4073 -30.3456
L10.5758 -30.4537
L10.7454 -30.5615
L10.9163 -30.669
L11.0885 -30.7764
L11.262 -30.8837
L11.4368 -30.9908
L11.613 -31.0978
L11.7906 -31.2047
L11.9697 -31.3117
L12.1504 -31.4186
L12.3326 -31.5255
L12.5164 -31.6325
L12.7019 -31.7396
L12.8891 -31.8468
L13.078 -31.9541
L13.2688 -32.0617
L13.4615 -32.1694
L13.656 -32.2773
L13.8526 -32.3855
L14.0512 -32.494
L14.2519 -32.6029
L14.4548 -32.712
L14.6599 -32.8216
L14.8673 -32.9315
L15.077 -33.0418
L15.2892 -33.1527
L15.5038 -33.264
L15.721 -33.3758
L15.9408 -33.4881
L16.1632 -33.6011
L16.3884 -33.7146
L16.6164 -33.8287
L16.8473 -33.9435
L17.0811 -34.059
L17.318 -34.1751
L17.5579 -34.292
L17.801 -34.4097
L18.0473 -34.5281
L18.2969 -34.6473
L18.5499 -34.7674
L18.8062 -34.8883
L19.0661 -35.0102
L19.3295 -35.1329
L19.5965 -35.2566
L19.8672 -35.3812
L20.1416 -35.5068
L20.4198 -35.6334
L20.7018 -35.7611
L20.9876 -35.8898
L21.2773 -36.0196
L21.5709 -36.1505
L21.8685 -36.2826
L22.1701 -36.4158
L22.4756 -36.5501
L22.785 -36.6857
L23.0985 -36.8225
L23.4158 -36.9606
L23.737 -37.1
L24.0621 -37.2407
L24.3909 -37.3828
L24.7234 -37.5262
L25.0594 -37.6711
L25.3989 -37.8175
L25.7417 -37.9654
L26.0876 -38.115
L26.4364 -38.2661
L26.7879 -38.419
L27.1417 -38.5738
L27.4976 -38.7305
L27.8552 -38.8892
L28.2141 -39.0501
L28.5738 -39.2133
L28.9339 -39.3791
L29.2936 -39.5476
L29.6524 -39.7191
L30.0096 -39.8938
L30.3642 -40.0722
L30.7154 -40.2546
L31.0622 -40.4413
L31.4034 -40.633
L31.7379 -40.8301
L32.0642 -41.0332
L32.3811 -41.243
L32.687 -41.4601
L32.9803 -41.6853
L33.2597 -41.9193
L33.5235 -42.1627
L33.7705 -42.4161
L33.9993 -42.6801
L34.209 -42.955
L34.399 -43.2409
L34.5688 -43.5379
L34.7185 -43.8456
L34.8483 -44.1637
L34.959 -44.4914
L35.0513 -44.828
L35.1264 -45.1726
L35.1853 -45.5242
L35.2294 -45.8817
L35.2598 -46.2443
L35.2779 -46.6109
L35.2847 -46.9806
L35.2814 -47.3525
L35.2691 -47.7258
L35.2486 -48.0997
L35.2208 -48.4736
L35.1864 -48.8469
L35.1463 -49.219
L35.1009 -49.5894
L35.0508 -49.9576
L34.9966 -50.3234
L34.9387 -50.6863
L34.8774 -51.046
L34.8132 -51.4022
L34.7464 -51.7548
L34.6772 -52.1036
L34.6059 -52.4483
L34.5327 -52.7888
L34.4579 -53.125
L34.3817 -53.4568
L34.3041 -53.7842
L34.2254 -54.107
L34.1456 -54.4252
L34.065 -54.7389
L33.9835 -55.0479
L33.9014 -55.3523
L33.8187 -55.652
L33.7354 -55.9472
L33.6517 -56.2377
L33.5677 -56.5238
L33.4832 -56.8053
L33.3985 -57.0824
L33.3136 -57.355
L33.2284 -57.6233
L33.1431 -57.8873
L33.0577 -58.1471
L32.9721 -58.4027
L32.8864 -58.6543
L32.8007 -58.9018
L32.7148 -59.1453
L32.629 -59.385
L32.5431 -59.6209
L32.4571 -59.8531
L32.3712 -60.0816
L32.2851 -60.3065
L32.1991 -60.528
L32.113 -60.746
L32.0269 -60.9607
L31.9407 -61.1721
L31.8545 -61.3803
L31.7682 -61.5855
L31.6819 -61.7875
L31.5954 -61.9866
L31.5089 -62.1828
L31.4222 -62.3761
L31.3354 -62.5667
L31.2485 -62.7545
L31.1614 -62.9397
L31.0741 -63.1224
L30.9866 -63.3025
L30.8988 -63.4801
L30.8109 -63.6554
L30.202 -63.8283
L29.7159 -63.904
L29.2317 -63.7986
L28.7496 -63.6847
L28.2696 -63.5623
L27.7921 -63.4316
L27.317 -63.2925
L26.8446 -63.1451
L26.3749 -62.9894
L25.9082 -62.8255
L25.4446 -62.6534
L24.9842 -62.4733
L24.5271 -62.285
L24.0736 -62.0888
L23.6236 -61.8846
L23.1775 -61.6725
L22.7352 -61.4526
L22.297 -61.2249
L21.863 -60.9896
L21.4332 -60.7466
L21.0079 -60.4961
L20.5872 -60.2382
L20.1712 -59.9728
L19.76 -59.7002
L19.3537 -59.4203
L18.9525 -59.1333
L18.5565 -58.8393
L18.1658 -58.5383
L17.7805 -58.2304
L17.4008 -57.9158
L17.0268 -57.5945
L16.6585 -57.2666
L16.2962 -56.9322
L15.9398 -56.5915
L15.5895 -56.2444
L15.2455 -55.8913
L14.9078 -55.532
L14.5765 -55.1668
L14.2517 -54.7958
L13.9336 -54.4191
L13.6221 -54.0367
L13.3175 -53.6488
L13.0198 -53.2556
L12.7291 -52.8571
L12.4455 -52.4535
L12.1691 -52.0448
L11.8999 -51.6313
L11.6381 -51.213
L11.3837 -50.7901
L11.1368 -50.3627
L10.8974 -49.9309
L10.6657 -49.4948
L10.4417 -49.0547
L10.2256 -48.6105
L10.0172 -48.1626
L9.81679 -47.7109
L9.62434 -47.2556
L9.43992 -46.797
L9.2636 -46.335
L9.09541 -45.8699
L8.93543 -45.4018
L8.78369 -44.9308
L8.64024 -44.4571
L8.50512 -43.9808
L8.37838 -43.5021
L8.26005 -43.0211
L8.15017 -42.538
L8.04877 -42.0528
L7.95589 -41.5659
L7.87156 -41.0772
L7.79579 -40.587
L7.72861 -40.0954
L7.67004 -39.6025
L7.6201 -39.1086
L7.57881 -38.6137
L7.54617 -38.118
L7.52221 -37.6217
L7.50691 -37.1248
L7.5003 -36.6276
L7.50236 -36.1303
L7.51311 -35.6329
L7.53254 -35.1356
L7.56063 -34.6385
L7.59739 -34.1419
L7.6428 -33.6459
L7.69685 -33.1505
L7.75952 -32.6561
L7.8308 -32.1626
L7.91065 -31.6703
L7.99906 -31.1794
L8.096 -30.6899
L8.20144 -30.202
z
" id="C0_2_f5ebd1d891"/>
    </defs>
    <g clip-path="url(#p1bffca34e9)">
     <use style="fill:#ffffff;stroke:#000000;stroke-width:2.0;" x="0.0" xlink:href="#C0_0_a811fe30f3" y="72.0"/>
    </g>
    <g clip-path="url(#p1bffca34e9)">
     <use style="fill:#ff0000;stroke:#000000;stroke-width:2.0;" x="0.0" xlink:href="#C0_1_d0c6335f4a" y="72.0"/>
    </g>
    <g clip-path="url(#p1bffca34e9)">
     <use style="fill:#ff0000;stroke:#000000;stroke-width:2.0;" x="0.0" xlink:href="#C0_2_f5ebd1d891" y="72.0"/>
    </g>
   </g>
  </g>
 </g>
 <defs>
  <clipPath id="p1bffca34e9">
   <rect height="72.0" width="72.0" x="0.0" y="0.0"/>
  </clipPath>
 </defs>
</svg>
