<?xml version="1.0" encoding="utf-8" standalone="no"?>
<!DOCTYPE svg PUBLIC "-//W3C//DTD SVG 1.1//EN"
  "http://www.w3.org/Graphics/SVG/1.1/DTD/svg11.dtd">
<!-- Created with matplotlib (http://matplotlib.org/) -->
<svg height="72pt" version="1.1" viewBox="0 0 72 72" width="72pt" xmlns="http://www.w3.org/2000/svg" xmlns:xlink="http://www.w3.org/1999/xlink">
 <defs>
  <style type="text/css">
*{stroke-linecap:butt;stroke-linejoin:round;}
  </style>
 </defs>
 <g id="figure_1">
  <g id="patch_1">
   <path d="
M0 72
L72 72
L72 0
L0 0
z
" style="fill:none;"/>
  </g>
  <g id="axes_1">
   <g id="PatchCollection_1">
    <defs>
     <path d="
M36 -7.5
C43.5583 -7.5 50.808 -10.5029 56.1525 -15.8475
C61.4971 -21.192 64.5 -28.4417 64.5 -36
C64.5 -43.5583 61.4971 -50.808 56.1525 -56.1525
C50.808 -61.4971 43.5583 -64.5 36 -64.5
C28.4417 -64.5 21.192 -61.4971 15.8475 -56.1525
C10.5029 -50.808 7.5 -43.5583 7.5 -36
C7.5 -28.4417 10.5029 -21.192 15.8475 -15.8475
C21.192 -10.5029 28.4417 -7.5 36 -7.5
z
" id="C0_0_a811fe30f3"/>
     <path d="
M32.1012 -64.1769
L31.986 -63.8677
L31.8597 -63.5515
L31.7256 -63.2293
L31.5862 -62.902
L31.4434 -62.5702
L31.2989 -62.2347
L31.1538 -61.8959
L31.0093 -61.5545
L30.866 -61.2109
L30.7245 -60.8655
L30.5855 -60.5187
L30.4491 -60.171
L30.3158 -59.8226
L30.1856 -59.4738
L30.0589 -59.125
L29.9356 -58.7764
L29.8159 -58.4282
L29.6998 -58.0807
L29.5874 -57.7341
L29.4786 -57.3885
L29.3733 -57.0442
L29.2717 -56.7013
L29.1735 -56.3599
L29.0789 -56.0201
L28.9876 -55.6822
L28.8997 -55.3461
L28.8151 -55.012
L28.7336 -54.6799
L28.6552 -54.3499
L28.5799 -54.0221
L28.5075 -53.6965
L28.438 -53.3731
L28.3713 -53.0519
L28.3073 -52.7331
L28.2459 -52.4166
L28.1871 -52.1023
L28.1308 -51.7904
L28.0768 -51.4808
L28.0252 -51.1734
L27.9758 -50.8683
L27.9287 -50.5655
L27.8836 -50.2649
L27.8406 -49.9665
L27.7996 -49.6702
L27.7605 -49.3761
L27.7233 -49.084
L27.6879 -48.794
L27.6542 -48.506
L27.6223 -48.2199
L27.592 -47.9357
L27.5634 -47.6534
L27.5363 -47.3729
L27.5107 -47.0941
L27.4866 -46.817
L27.4639 -46.5416
L27.4427 -46.2677
L27.4228 -45.9953
L27.4042 -45.7245
L27.387 -45.455
L27.371 -45.1868
L27.3562 -44.92
L27.3426 -44.6543
L27.3303 -44.3898
L27.3191 -44.1264
L27.309 -43.8641
L27.3001 -43.6027
L27.2922 -43.3423
L27.2854 -43.0827
L27.2797 -42.8239
L27.2751 -42.5658
L27.2714 -42.3083
L27.2688 -42.0515
L27.2672 -41.7952
L27.2666 -41.5394
L27.267 -41.284
L27.2683 -41.029
L27.2707 -40.7742
L27.274 -40.5196
L27.2782 -40.2652
L27.2834 -40.011
L27.2967 -39.7567
L27.3048 -39.5024
L27.3139 -39.248
L27.3239 -38.9934
L27.3348 -38.7386
L27.3468 -38.4836
L27.3597 -38.2282
L27.3736 -37.9723
L27.3884 -37.716
L27.4043 -37.4591
L27.4212 -37.2016
L27.4391 -36.9435
L27.458 -36.6846
L27.478 -36.4248
L27.4991 -36.1643
L27.5212 -35.9027
L27.5444 -35.6402
L27.5687 -35.3766
L27.5942 -35.1118
L27.6208 -34.8459
L27.6487 -34.5787
L27.6777 -34.3101
L27.7079 -34.0402
L27.7394 -33.7688
L27.7722 -33.4958
L27.8063 -33.2212
L27.8417 -32.945
L27.8785 -32.667
L27.9167 -32.3873
L27.9564 -32.1057
L27.9975 -31.8221
L28.0402 -31.5366
L28.0845 -31.249
L28.1303 -30.9593
L28.1778 -30.6674
L28.227 -30.3733
L28.2779 -30.0769
L28.3306 -29.7781
L28.3851 -29.4769
L28.4416 -29.1733
L28.4999 -28.8672
L28.5603 -28.5585
L28.6227 -28.2472
L28.6872 -27.9332
L28.7539 -27.6166
L28.8228 -27.2972
L28.894 -26.9751
L28.9675 -26.6503
L29.0434 -26.3226
L29.1218 -25.9921
L29.2027 -25.6588
L29.2861 -25.3226
L29.3723 -24.9837
L29.4611 -24.6419
L29.5526 -24.2973
L29.647 -23.9499
L29.7442 -23.5998
L29.8444 -23.247
L29.9474 -22.8916
L30.0535 -22.5337
L30.1626 -22.1732
L30.2747 -21.8104
L30.3898 -21.4452
L30.508 -21.078
L30.6292 -20.7086
L30.7534 -20.3374
L30.8806 -19.9645
L31.0106 -19.5901
L31.1433 -19.2143
L31.2787 -18.8375
L31.4165 -18.4598
L31.5564 -18.0815
L31.6983 -17.7029
L31.8417 -17.3244
L31.9861 -16.9462
L32.131 -16.5687
L32.2757 -16.1925
L32.4193 -15.8178
L32.5606 -15.4453
L32.6983 -15.0755
L32.8306 -14.709
L32.9554 -14.3466
L33.0699 -13.989
L33.1709 -13.6372
L33.2542 -13.2923
L33.3148 -12.9556
L33.347 -12.6286
L33.3443 -12.313
L33.3002 -12.0106
L33.2087 -11.7235
L33.0653 -11.4535
L32.8678 -11.2024
L32.6171 -10.9712
L32.3161 -10.7608
L31.9701 -10.571
L31.5847 -10.4016
L31.166 -10.2518
L30.7196 -10.121
L30.2505 -10.0083
L29.7629 -9.91299
L29.2605 -9.83456
L28.7462 -9.77241
L28.2227 -9.72609
L27.6921 -9.69517
L27.1563 -9.6793
L26.6168 -9.67813
L26.0749 -9.69136
L25.532 -9.71867
L24.9889 -9.75977
L24.4958 -9.81437
L24.0425 -9.92504
L23.5928 -10.1298
L23.1469 -10.3424
L22.7049 -10.5629
L22.267 -10.791
L21.8333 -11.0269
L21.4038 -11.2704
L20.9788 -11.5214
L20.5584 -11.7799
L20.1427 -12.0457
L19.7318 -12.3189
L19.3259 -12.5992
L18.9251 -12.8867
L18.5294 -13.1812
L18.1391 -13.4827
L17.7542 -13.791
L17.3749 -14.1061
L17.0013 -14.4279
L16.6334 -14.7562
L16.2714 -15.091
L15.9155 -15.4322
L15.5657 -15.7797
L15.222 -16.1333
L14.8848 -16.4929
L14.5539 -16.8585
L14.2296 -17.2299
L13.9119 -17.6071
L13.601 -17.9898
L13.2968 -18.3781
L12.9996 -18.7717
L12.7094 -19.1705
L12.4263 -19.5745
L12.1503 -19.9835
L11.8817 -20.3973
L11.6203 -20.8159
L11.3664 -21.2392
L11.12 -21.6669
L10.8812 -22.099
L10.6501 -22.5353
L10.4266 -22.9758
L10.211 -23.4202
L10.0032 -23.8684
L9.80329 -24.3203
L9.61139 -24.7758
L9.42753 -25.2347
L9.25176 -25.6969
L9.08414 -26.1622
L8.92472 -26.6305
L8.77355 -27.1017
L8.63067 -27.5756
L8.49613 -28.0521
L8.36997 -28.5309
L8.25222 -29.0121
L8.14292 -29.4953
L8.04211 -29.9806
L7.94982 -30.4677
L7.86607 -30.9565
L7.79089 -31.4468
L7.7243 -31.9385
L7.66633 -32.4314
L7.61698 -32.9254
L7.57629 -33.4204
L7.54425 -33.9161
L7.52088 -34.4125
L7.50618 -34.9094
L7.50016 -35.4066
L7.50283 -35.9039
L7.51417 -36.4014
L7.53419 -36.8986
L7.56289 -37.3956
L7.60024 -37.8922
L7.64625 -38.3882
L7.70089 -38.8835
L7.76415 -39.3779
L7.83602 -39.8713
L7.91646 -40.3635
L8.00546 -40.8544
L8.10298 -41.3437
L8.209 -41.8315
L8.32349 -42.3175
L8.44641 -42.8015
L8.57772 -43.2835
L8.71739 -43.7633
L8.86536 -44.2407
L9.0216 -44.7156
L9.18606 -45.1878
L9.35869 -45.6573
L9.53943 -46.1238
L9.72823 -46.5872
L9.92504 -47.0474
L10.1298 -47.5042
L10.3424 -47.9575
L10.5629 -48.4072
L10.791 -48.8531
L11.0269 -49.2951
L11.2704 -49.733
L11.5214 -50.1667
L11.7799 -50.5962
L12.0457 -51.0212
L12.3189 -51.4416
L12.5992 -51.8573
L12.8867 -52.2682
L13.1812 -52.6741
L13.4827 -53.0749
L13.791 -53.4706
L14.1061 -53.8609
L14.4279 -54.2458
L14.7562 -54.6251
L15.091 -54.9987
L15.4322 -55.3666
L15.7797 -55.7286
L16.1333 -56.0845
L16.4929 -56.4343
L16.8585 -56.778
L17.2299 -57.1152
L17.6071 -57.4461
L17.9898 -57.7704
L18.3781 -58.0881
L18.7717 -58.399
L19.1705 -58.7032
L19.5745 -59.0004
L19.9835 -59.2906
L20.3973 -59.5737
L20.8159 -59.8497
L21.2392 -60.1183
L21.6669 -60.3797
L22.099 -60.6336
L22.5353 -60.88
L22.9758 -61.1188
L23.4202 -61.3499
L23.8684 -61.5734
L24.3203 -61.789
L24.7758 -61.9968
L25.2347 -62.1967
L25.6969 -62.3886
L26.1622 -62.5725
L26.6305 -62.7482
L27.1017 -62.9159
L27.5756 -63.0753
L28.0521 -63.2264
L28.5309 -63.3693
L29.0121 -63.5039
L29.4953 -63.63
L29.9806 -63.7478
L30.4677 -63.8571
L30.9565 -63.9579
L31.4468 -64.0502
z
" id="C0_1_9b88f83798"/>
     <path d="
M47.5055 -62.0096
L47.9174 -61.6569
L48.3189 -61.2999
L48.7095 -60.9392
L49.0894 -60.5752
L49.4582 -60.2084
L49.8161 -59.8392
L50.1631 -59.468
L50.4991 -59.0951
L50.8244 -58.721
L51.139 -58.346
L51.4431 -57.9704
L51.7369 -57.5945
L52.0205 -57.2186
L52.2942 -56.843
L52.5582 -56.4678
L52.8126 -56.0933
L53.0578 -55.7198
L53.2939 -55.3473
L53.5211 -54.9761
L53.7398 -54.6062
L53.9501 -54.2379
L54.1522 -53.8712
L54.3465 -53.5062
L54.5331 -53.1431
L54.7122 -52.7819
L54.8841 -52.4227
L55.0489 -52.0655
L55.207 -51.7103
L55.3584 -51.3573
L55.5035 -51.0064
L55.6423 -50.6577
L55.7751 -50.3111
L55.9021 -49.9666
L56.0234 -49.6244
L56.1391 -49.2842
L56.2496 -48.9462
L56.3549 -48.6104
L56.4551 -48.2766
L56.5505 -47.9449
L56.6411 -47.6152
L56.7272 -47.2875
L56.8087 -46.9618
L56.8859 -46.6379
L56.9589 -46.316
L57.0277 -45.9959
L57.0925 -45.6775
L57.1535 -45.3609
L57.2105 -45.0459
L57.2639 -44.7326
L57.3136 -44.4208
L57.3598 -44.1105
L57.4024 -43.8017
L57.4417 -43.4942
L57.4777 -43.1881
L57.5103 -42.8833
L57.5398 -42.5796
L57.566 -42.2771
L57.5892 -41.9757
L57.6094 -41.6753
L57.6265 -41.3759
L57.6406 -41.0774
L57.6518 -40.7797
L57.6602 -40.4827
L57.6656 -40.1865
L57.6682 -39.8909
L57.668 -39.5959
L57.665 -39.3015
L57.6592 -39.0074
L57.6507 -38.7138
L57.6394 -38.4205
L57.6253 -38.1274
L57.6085 -37.8346
L57.5889 -37.5419
L57.5666 -37.2492
L57.5416 -36.9566
L57.5138 -36.6639
L57.4832 -36.3712
L57.4498 -36.0782
L57.4136 -35.785
L57.3746 -35.4915
L57.3327 -35.1977
L57.288 -34.9034
L57.2403 -34.6087
L57.1897 -34.3134
L57.1361 -34.0175
L57.0795 -33.721
L57.0198 -33.4237
L56.957 -33.1257
L56.891 -32.8269
L56.8218 -32.5272
L56.7493 -32.2265
L56.6735 -31.9249
L56.5943 -31.6222
L56.5116 -31.3184
L56.4254 -31.0135
L56.3355 -30.7074
L56.2419 -30.4001
L56.1446 -30.0915
L56.0434 -29.7815
L55.9382 -29.4702
L55.829 -29.1575
L55.7156 -28.8434
L55.5979 -28.5278
L55.4759 -28.2107
L55.3494 -27.892
L55.2183 -27.5718
L55.0825 -27.2501
L54.9419 -26.9267
L54.7963 -26.6018
L54.6456 -26.2752
L54.4897 -25.9471
L54.3285 -25.6173
L54.1617 -25.286
L53.9893 -24.9531
L53.8112 -24.6186
L53.6271 -24.2826
L53.4369 -23.9451
L53.2405 -23.6062
L53.0377 -23.2659
L52.8284 -22.9243
L52.6124 -22.5814
L52.3895 -22.2374
L52.1597 -21.8923
L51.9227 -21.5463
L51.6784 -21.1994
L51.4267 -20.8517
L51.1675 -20.5035
L50.9005 -20.1549
L50.6258 -19.8061
L50.3431 -19.4572
L50.0524 -19.1084
L49.7537 -18.7599
L49.4467 -18.412
L49.1316 -18.0649
L48.8082 -17.7189
L48.4767 -17.3742
L48.1369 -17.0311
L47.789 -16.6898
L47.4331 -16.3508
L47.0694 -16.0142
L46.6981 -15.6805
L46.3194 -15.3498
L45.9337 -15.0227
L45.5416 -14.6993
L45.1434 -14.3799
L44.74 -14.065
L44.3322 -13.7547
L43.921 -13.4493
L43.5078 -13.149
L43.094 -12.8539
L42.6818 -12.5642
L42.2733 -12.2797
L41.8717 -12.0004
L41.4806 -11.726
L41.1043 -11.4559
L40.7482 -11.1894
L40.4183 -10.9256
L40.1214 -10.6634
L39.8645 -10.4015
L39.654 -10.1387
L39.4947 -9.87401
L39.3891 -9.60684
L39.337 -9.33721
L39.3357 -9.06561
L39.3805 -8.79296
L39.466 -8.5204
L39.5867 -8.24912
L40.2606 -7.98028
L40.7518 -7.82028
L41.2415 -7.89893
L41.7296 -7.98614
L42.216 -8.08188
L42.7005 -8.18613
L43.1829 -8.29885
L43.6631 -8.42001
L44.141 -8.54957
L44.6165 -8.68749
L45.0893 -8.83373
L45.5593 -8.98824
L46.0264 -9.15099
L46.4905 -9.32191
L46.9514 -9.50096
L47.4089 -9.68808
L47.863 -9.88321
L48.3134 -10.0863
L48.7601 -10.2973
L49.2029 -10.5161
L49.6417 -10.7427
L50.0764 -10.9769
L50.5067 -11.2188
L50.9326 -11.4683
L51.354 -11.7252
L51.7707 -11.9895
L52.1826 -12.2611
L52.5896 -12.54
L52.9915 -12.826
L53.3882 -13.119
L53.7797 -13.4191
L54.1657 -13.726
L54.5462 -14.0397
L54.9211 -14.36
L55.2901 -14.687
L55.6533 -15.0205
L56.0106 -15.3603
L56.3617 -15.7065
L56.7066 -16.0588
L57.0452 -16.4172
L57.3774 -16.7816
L57.7031 -17.1518
L58.0222 -17.5277
L58.3346 -17.9093
L58.6401 -18.2964
L58.9388 -18.6889
L59.2305 -19.0867
L59.5151 -19.4896
L59.7925 -19.8975
L60.0627 -20.3104
L60.3256 -20.728
L60.5811 -21.1503
L60.829 -21.5771
L61.0695 -22.0083
L61.3022 -22.4437
L61.5273 -22.8833
L61.7446 -23.3269
L61.954 -23.7743
L62.1556 -24.2255
L62.3491 -24.6803
L62.5347 -25.1385
L62.7121 -25.6
L62.8815 -26.0646
L63.0426 -26.5324
L63.1955 -27.0029
L63.3401 -27.4763
L63.4764 -27.9522
L63.6043 -28.4306
L63.7239 -28.9113
L63.8349 -29.3941
L63.9375 -29.8789
L64.0316 -30.3657
L64.1171 -30.8541
L64.1941 -31.3441
L64.2625 -31.8355
L64.3223 -32.3282
L64.3734 -32.822
L64.4159 -33.3168
L64.4498 -33.8124
L64.475 -34.3086
L64.4915 -34.8054
L64.4993 -35.3026
L64.4984 -35.7999
L64.4889 -36.2973
L64.4707 -36.7946
L64.4438 -37.2917
L64.4083 -37.7884
L64.3641 -38.2846
L64.3113 -38.78
L64.2498 -39.2746
L64.1797 -39.7682
L64.1011 -40.2606
L64.0139 -40.7518
L63.9181 -41.2415
L63.8139 -41.7296
L63.7012 -42.216
L63.58 -42.7005
L63.4504 -43.1829
L63.3125 -43.6631
L63.1663 -44.141
L63.0118 -44.6165
L62.849 -45.0893
L62.6781 -45.5593
L62.499 -46.0264
L62.3119 -46.4905
L62.1168 -46.9514
L61.9137 -47.4089
L61.7027 -47.863
L61.4839 -48.3134
L61.2573 -48.7601
L61.0231 -49.2029
L60.7812 -49.6417
L60.5317 -50.0764
L60.2748 -50.5067
L60.0105 -50.9326
L59.7389 -51.354
L59.46 -51.7707
L59.174 -52.1826
L58.881 -52.5896
L58.5809 -52.9915
L58.274 -53.3882
L57.9603 -53.7797
L57.64 -54.1657
L57.313 -54.5462
L56.9795 -54.9211
L56.6397 -55.2901
L56.2935 -55.6533
L55.9412 -56.0106
L55.5828 -56.3617
L55.2184 -56.7066
L54.8482 -57.0452
L54.4723 -57.3774
L54.0907 -57.7031
L53.7036 -58.0222
L53.3111 -58.3346
L52.9133 -58.6401
L52.5104 -58.9388
L52.1025 -59.2305
L51.6896 -59.5151
L51.272 -59.7925
L50.8497 -60.0627
L50.4229 -60.3256
L49.9917 -60.5811
L49.5563 -60.829
L49.1167 -61.0695
L48.6731 -61.3022
L48.2257 -61.5273
z
" id="C0_2_f7f04fc5d5"/>
    </defs>
    <g clip-path="url(#p1bffca34e9)">
     <use style="fill:#ff0000;stroke:#000000;stroke-width:2.0;" x="0.0" xlink:href="#C0_0_a811fe30f3" y="72.0"/>
    </g>
    <g clip-path="url(#p1bffca34e9)">
     <use style="fill:#ffffff;stroke:#000000;stroke-width:2.0;" x="0.0" xlink:href="#C0_1_9b88f83798" y="72.0"/>
    </g>
    <g clip-path="url(#p1bffca34e9)">
     <use style="fill:#ffffff;stroke:#000000;stroke-width:2.0;" x="0.0" xlink:href="#C0_2_f7f04fc5d5" y="72.0"/>
    </g>
   </g>
  </g>
 </g>
 <defs>
  <clipPath id="p1bffca34e9">
   <rect height="72.0" width="72.0" x="0.0" y="0.0"/>
  </clipPath>
 </defs>
</svg>
