<?xml version="1.0" encoding="utf-8" standalone="no"?>
<!DOCTYPE svg PUBLIC "-//W3C//DTD SVG 1.1//EN"
  "http://www.w3.org/Graphics/SVG/1.1/DTD/svg11.dtd">
<!-- Created with matplotlib (http://matplotlib.org/) -->
<svg height="72pt" version="1.1" viewBox="0 0 72 72" width="72pt" xmlns="http://www.w3.org/2000/svg" xmlns:xlink="http://www.w3.org/1999/xlink">
 <defs>
  <style type="text/css">
*{stroke-linecap:butt;stroke-linejoin:round;}
  </style>
 </defs>
 <g id="figure_1">
  <g id="patch_1">
   <path d="
M0 72
L72 72
L72 0
L0 0
z
" style="fill:none;"/>
  </g>
  <g id="axes_1">
   <g id="PatchCollection_1">
    <defs>
     <path d="
M36 -7.5
C43.5583 -7.5 50.808 -10.5029 56.1525 -15.8475
C61.4971 -21.192 64.5 -28.4417 64.5 -36
C64.5 -43.5583 61.4971 -50.808 56.1525 -56.1525
C50.808 -61.4971 43.5583 -64.5 36 -64.5
C28.4417 -64.5 21.192 -61.4971 15.8475 -56.1525
C10.5029 -50.808 7.5 -43.5583 7.5 -36
C7.5 -28.4417 10.5029 -21.192 15.8475 -15.8475
C21.192 -10.5029 28.4417 -7.5 36 -7.5
z
" id="C0_0_a811fe30f3"/>
     <path d="
M28.8578 -26.8383
L28.6728 -27.0214
L28.4888 -27.2056
L28.3056 -27.3909
L28.1233 -27.5773
L27.9417 -27.765
L27.7609 -27.954
L27.5808 -28.1442
L27.4014 -28.3359
L27.2226 -28.5289
L27.0443 -28.7234
L26.8667 -28.9195
L26.6895 -29.1172
L26.5128 -29.3165
L26.3366 -29.5175
L26.1609 -29.7203
L25.9855 -29.925
L25.8105 -30.1315
L25.6358 -30.34
L25.4615 -30.5506
L25.2874 -30.7633
L25.1137 -30.9782
L24.9402 -31.1953
L24.7669 -31.4147
L24.5939 -31.6365
L24.4211 -31.8609
L24.2485 -32.0877
L24.076 -32.3173
L23.9038 -32.5495
L23.7318 -32.7845
L23.5599 -33.0224
L23.3883 -33.2633
L23.2168 -33.5072
L23.0455 -33.7543
L22.8745 -34.0046
L22.7036 -34.2582
L22.5331 -34.5152
L22.3627 -34.7758
L22.1927 -35.0399
L22.023 -35.3076
L21.8537 -35.5792
L21.6847 -35.8546
L21.5162 -36.134
L21.3482 -36.4174
L21.1808 -36.7049
L21.014 -36.9967
L20.8478 -37.2928
L20.6825 -37.5932
L20.5179 -37.8982
L20.3544 -38.2077
L20.1918 -38.5219
L20.0305 -38.8407
L19.8704 -39.1644
L19.7116 -39.4929
L19.5545 -39.8264
L19.399 -40.1648
L19.2453 -40.5082
L19.0937 -40.8568
L18.9442 -41.2104
L18.7971 -41.5691
L18.6527 -41.9331
L18.511 -42.3021
L18.3723 -42.6763
L18.237 -43.0557
L18.1052 -43.4402
L17.9772 -43.8297
L17.8534 -44.2242
L17.734 -44.6237
L17.6194 -45.0279
L17.5099 -45.4369
L17.406 -45.8505
L17.3081 -46.2684
L17.2166 -46.6906
L17.1319 -47.1167
L17.0547 -47.5466
L16.9855 -47.9799
L16.9251 -48.4163
L16.874 -48.8553
L16.8332 -49.2966
L16.8038 -49.7395
L16.7868 -50.1834
L16.7837 -50.6274
L16.7963 -51.0707
L16.8266 -51.5119
L16.8774 -51.9497
L16.9518 -52.3821
L17.0537 -52.8068
L17.1877 -53.221
L17.3582 -53.6217
L17.5697 -54.0055
L17.8247 -54.3693
L18.1238 -54.7111
L18.4647 -55.0296
L18.8431 -55.3248
L19.2533 -55.5975
L19.6895 -55.849
L20.1465 -56.0806
L20.6196 -56.2935
L21.1051 -56.489
L21.6 -56.668
L22.1017 -56.8313
L22.6083 -56.9798
L23.118 -57.1141
L23.6296 -57.2347
L24.1418 -57.3423
L24.6537 -57.4372
L25.1645 -57.5201
L25.6734 -57.5913
L26.1797 -57.6513
L26.6831 -57.7005
L27.1829 -57.7394
L27.6787 -57.7683
L28.1703 -57.7876
L28.6572 -57.7977
L29.1392 -57.799
L29.6161 -57.7919
L30.0876 -57.7768
L30.5536 -57.7539
L31.0139 -57.7236
L31.4684 -57.6863
L31.9171 -57.6423
L32.3598 -57.5919
L32.7964 -57.5353
L33.2271 -57.473
L33.6516 -57.4051
L34.0701 -57.3319
L34.4826 -57.2538
L34.889 -57.1708
L35.2894 -57.0834
L35.6838 -56.9916
L36.0724 -56.8957
L36.4551 -56.796
L36.832 -56.6925
L37.2033 -56.5856
L37.5689 -56.4753
L37.929 -56.3618
L38.2837 -56.2453
L38.633 -56.1259
L38.9771 -56.0038
L39.3161 -55.8791
L39.65 -55.7519
L39.9789 -55.6223
L40.3031 -55.4904
L40.6225 -55.3563
L40.9372 -55.2201
L41.2475 -55.082
L41.5533 -54.9419
L41.8549 -54.7999
L42.1522 -54.6562
L42.4454 -54.5107
L42.7346 -54.3635
L43.0199 -54.2147
L43.3014 -54.0643
L43.5792 -53.9124
L43.8535 -53.7589
L44.1242 -53.604
L44.3914 -53.4475
L44.6554 -53.2897
L44.9162 -53.1304
L45.1737 -52.9697
L45.4283 -52.8077
L45.6799 -52.6442
L45.9285 -52.4794
L46.1744 -52.3132
L46.4176 -52.1455
L46.6581 -51.9765
L46.896 -51.8062
L47.1314 -51.6344
L47.3644 -51.4611
L47.595 -51.2865
L47.8234 -51.1104
L48.0495 -50.9328
L48.2735 -50.7537
L48.4953 -50.5731
L48.7152 -50.3909
L48.933 -50.2072
L49.1489 -50.0218
L49.363 -49.8348
L49.5752 -49.6461
L49.7857 -49.4557
L49.9944 -49.2635
L50.2015 -49.0696
L50.4069 -48.8737
L50.6108 -48.676
L50.8131 -48.4763
L51.0139 -48.2746
L51.2132 -48.0708
L51.4111 -47.865
L51.6076 -47.6569
L51.8027 -47.4467
L51.9964 -47.2341
L52.1889 -47.0192
L52.38 -46.8019
L52.5698 -46.582
L52.7584 -46.3596
L52.9457 -46.1346
L53.1318 -45.9069
L53.3167 -45.6763
L53.5004 -45.4429
L53.6828 -45.2066
L53.864 -44.9672
L54.044 -44.7246
L54.2228 -44.4789
L54.4003 -44.2299
L54.5766 -43.9774
L54.7517 -43.7215
L54.9254 -43.462
L55.0978 -43.1988
L55.269 -42.9318
L55.4387 -42.6609
L55.607 -42.386
L55.7739 -42.107
L55.9393 -41.8238
L56.1031 -41.5362
L56.2653 -41.2442
L56.4258 -40.9477
L56.5846 -40.6464
L56.7415 -40.3404
L56.8965 -40.0295
L57.0495 -39.7135
L57.2004 -39.3925
L57.349 -39.0661
L57.4953 -38.7344
L57.6392 -38.3971
L57.7804 -38.0543
L57.9188 -37.7057
L58.0544 -37.3513
L58.1869 -36.9909
L58.3161 -36.6245
L58.4419 -36.2519
L58.5641 -35.873
L58.6824 -35.4878
L58.7966 -35.0962
L58.9065 -34.6981
L59.0119 -34.2933
L59.1124 -33.8819
L59.2079 -33.4639
L59.2979 -33.0391
L59.3823 -32.6075
L59.4607 -32.1691
L59.5327 -31.724
L59.5981 -31.2722
L59.6565 -30.8136
L59.7075 -30.3484
L59.7507 -29.8767
L59.7857 -29.3986
L59.8121 -28.9141
L59.8295 -28.4236
L59.8375 -27.9272
L59.8357 -27.4251
L59.8234 -26.9177
L59.8004 -26.4053
L59.7661 -25.8883
L59.7201 -25.3672
L59.6618 -24.8424
L59.5907 -24.3146
L59.5063 -23.7845
L59.4081 -23.2529
L59.2954 -22.7208
L59.1677 -22.1894
L59.0243 -21.6599
L58.8645 -21.1341
L58.6876 -20.6138
L58.4927 -20.1017
L58.2789 -19.6007
L58.0449 -19.1145
L57.7898 -18.6477
L57.5123 -18.2056
L57.2115 -17.7938
L56.8868 -17.4182
L56.5387 -17.0831
L56.1685 -16.791
L55.7788 -16.5419
L55.3726 -16.3332
L54.9534 -16.1612
L54.5242 -16.0214
L54.0878 -15.9097
L53.6465 -15.8224
L53.2021 -15.7564
L52.756 -15.7091
L52.3094 -15.6784
L51.8632 -15.6626
L51.4183 -15.6603
L50.9752 -15.6704
L50.5344 -15.6918
L50.0966 -15.7236
L49.6619 -15.7651
L49.2308 -15.8156
L48.8035 -15.8745
L48.3803 -15.9412
L47.9614 -16.0152
L47.547 -16.096
L47.1373 -16.1832
L46.7323 -16.2763
L46.3321 -16.375
L45.937 -16.4788
L45.5469 -16.5876
L45.1618 -16.7008
L44.7819 -16.8183
L44.4072 -16.9397
L44.0376 -17.0647
L43.6731 -17.1932
L43.3139 -17.3248
L42.9597 -17.4593
L42.6107 -17.5966
L42.2667 -17.7363
L41.9277 -17.8784
L41.5937 -18.0226
L41.2646 -18.1688
L40.9404 -18.3169
L40.6209 -18.4666
L40.306 -18.6178
L39.9959 -18.7705
L39.6902 -18.9245
L39.389 -19.0797
L39.0922 -19.2359
L38.7996 -19.3932
L38.5112 -19.5514
L38.227 -19.7105
L37.9467 -19.8703
L37.6704 -20.0309
L37.3979 -20.1921
L37.1291 -20.354
L36.864 -20.5164
L36.6024 -20.6793
L36.3442 -20.8427
L36.0895 -21.0066
L35.838 -21.1709
L35.5897 -21.3356
L35.3445 -21.5007
L35.1023 -21.6662
L34.863 -21.832
L34.6266 -21.9982
L34.393 -22.1648
L34.162 -22.3317
L33.9336 -22.4989
L33.7077 -22.6665
L33.4843 -22.8345
L33.2632 -23.0028
L33.0444 -23.1715
L32.8278 -23.3405
L32.6134 -23.51
L32.401 -23.6799
L32.1906 -23.8503
L31.9821 -24.0211
L31.7755 -24.1923
L31.5707 -24.3641
L31.3676 -24.5364
L31.1662 -24.7092
L30.9664 -24.8827
L30.7681 -25.0567
L30.5713 -25.2314
L30.3759 -25.4068
L30.1819 -25.5828
L29.9893 -25.7597
L29.7978 -25.9373
L29.6076 -26.1157
L29.4185 -26.2949
L29.2306 -26.4751
z
" id="C0_1_a14d9db73a"/>
    </defs>
    <g clip-path="url(#p1bffca34e9)">
     <use style="fill:#ffffff;stroke:#000000;stroke-width:2.0;" x="0.0" xlink:href="#C0_0_a811fe30f3" y="72.0"/>
    </g>
    <g clip-path="url(#p1bffca34e9)">
     <use style="fill:#ff0000;stroke:#000000;stroke-width:2.0;" x="0.0" xlink:href="#C0_1_a14d9db73a" y="72.0"/>
    </g>
   </g>
  </g>
 </g>
 <defs>
  <clipPath id="p1bffca34e9">
   <rect height="72.0" width="72.0" x="0.0" y="0.0"/>
  </clipPath>
 </defs>
</svg>
