<?xml version="1.0" encoding="utf-8" standalone="no"?>
<!DOCTYPE svg PUBLIC "-//W3C//DTD SVG 1.1//EN"
  "http://www.w3.org/Graphics/SVG/1.1/DTD/svg11.dtd">
<!-- Created with matplotlib (http://matplotlib.org/) -->
<svg height="72pt" version="1.1" viewBox="0 0 72 72" width="72pt" xmlns="http://www.w3.org/2000/svg" xmlns:xlink="http://www.w3.org/1999/xlink">
 <defs>
  <style type="text/css">
*{stroke-linecap:butt;stroke-linejoin:round;}
  </style>
 </defs>
 <g id="figure_1">
  <g id="patch_1">
   <path d="
M0 72
L72 72
L72 0
L0 0
z
" style="fill:none;"/>
  </g>
  <g id="axes_1">
   <g id="PatchCollection_1">
    <defs>
     <path d="
M36 -7.5
C43.5583 -7.5 50.808 -10.5029 56.1525 -15.8475
C61.4971 -21.192 64.5 -28.4417 64.5 -36
C64.5 -43.5583 61.4971 -50.808 56.1525 -56.1525
C50.808 -61.4971 43.5583 -64.5 36 -64.5
C28.4417 -64.5 21.192 -61.4971 15.8475 -56.1525
C10.5029 -50.808 7.5 -43.5583 7.5 -36
C7.5 -28.4417 10.5029 -21.192 15.8475 -15.8475
C21.192 -10.5029 28.4417 -7.5 36 -7.5
z
" id="C0_0_a811fe30f3"/>
     <path d="
M9.893 -24.6727
L10.094 -24.7873
L10.3027 -24.8904
L10.5187 -24.9823
L10.7417 -25.0635
L10.9713 -25.1345
L11.2073 -25.1958
L11.4491 -25.2479
L11.6966 -25.2913
L11.9494 -25.3265
L12.2071 -25.3541
L12.4695 -25.3746
L12.7363 -25.3885
L13.0071 -25.3962
L13.2816 -25.3984
L13.5597 -25.3954
L13.8409 -25.3878
L14.1251 -25.3759
L14.4119 -25.3601
L14.7012 -25.3409
L14.9927 -25.3187
L15.2862 -25.2937
L15.5815 -25.2663
L15.8783 -25.2369
L16.1765 -25.2056
L16.476 -25.1728
L16.7764 -25.1387
L17.0776 -25.1036
L17.3796 -25.0675
L17.6821 -25.0308
L17.985 -24.9936
L18.2882 -24.9561
L18.5916 -24.9184
L18.895 -24.8807
L19.1984 -24.843
L19.5015 -24.8055
L19.8045 -24.7683
L20.1071 -24.7314
L20.4093 -24.695
L20.7111 -24.6592
L21.0123 -24.6239
L21.3129 -24.5892
L21.6129 -24.5553
L21.9121 -24.5221
L22.2107 -24.4897
L22.5085 -24.4581
L22.8054 -24.4273
L23.1016 -24.3974
L23.3969 -24.3685
L23.6914 -24.3404
L23.985 -24.3132
L24.2777 -24.287
L24.5695 -24.2618
L24.8604 -24.2375
L25.1504 -24.2142
L25.4395 -24.1918
L25.7277 -24.1704
L26.0151 -24.15
L26.3016 -24.1306
L26.5872 -24.1122
L26.872 -24.0947
L27.156 -24.0782
L27.4391 -24.0627
L27.7215 -24.0481
L28.0031 -24.0345
L28.284 -24.0219
L28.5642 -24.0102
L28.8437 -23.9995
L29.1225 -23.9898
L29.4007 -23.9809
L29.6783 -23.9731
L29.9553 -23.9661
L30.2319 -23.9601
L30.5079 -23.955
L30.7834 -23.9508
L31.0585 -23.9476
L31.3332 -23.9453
L31.6075 -23.9439
L31.8816 -23.9433
L32.1553 -23.9437
L32.4287 -23.945
L32.702 -23.9472
L32.9751 -23.9503
L33.248 -23.9544
L33.5209 -23.9593
L33.7936 -23.9651
L34.3392 -23.9717
L34.612 -23.9793
L34.8849 -23.9878
L35.1579 -23.9972
L35.4312 -24.0075
L35.7046 -24.0187
L35.9783 -24.0308
L36.2522 -24.0438
L36.5265 -24.0577
L36.8012 -24.0725
L37.0763 -24.0883
L37.3518 -24.1049
L37.6278 -24.1225
L37.9043 -24.141
L38.1813 -24.1605
L38.4589 -24.1808
L38.7372 -24.2022
L39.0161 -24.2244
L39.2957 -24.2476
L39.5761 -24.2718
L39.8572 -24.297
L40.1391 -24.3231
L40.4218 -24.3501
L40.7053 -24.3782
L40.9898 -24.4073
L41.2751 -24.4373
L41.5614 -24.4683
L41.8486 -24.5003
L42.1368 -24.5334
L42.426 -24.5674
L42.7162 -24.6024
L43.0075 -24.6385
L43.2998 -24.6755
L43.5931 -24.7136
L43.8876 -24.7526
L44.1831 -24.7927
L44.4797 -24.8338
L44.7774 -24.8758
L45.0761 -24.9189
L45.376 -24.9629
L45.677 -25.0078
L45.979 -25.0537
L46.282 -25.1005
L46.5861 -25.1483
L46.8912 -25.1969
L47.1973 -25.2463
L47.5043 -25.2965
L47.8123 -25.3476
L48.1211 -25.3993
L48.4308 -25.4517
L48.7412 -25.5047
L49.0523 -25.5583
L49.3641 -25.6123
L49.6765 -25.6668
L49.9894 -25.7215
L50.3027 -25.7765
L50.6163 -25.8315
L50.9302 -25.8866
L51.2442 -25.9415
L51.5582 -25.9961
L51.872 -26.0503
L52.1857 -26.1039
L52.499 -26.1566
L52.8117 -26.2084
L53.1238 -26.259
L53.4351 -26.3081
L53.7453 -26.3555
L54.0544 -26.401
L54.3621 -26.4442
L54.6682 -26.4849
L54.9725 -26.5226
L55.2749 -26.5572
L55.5751 -26.5882
L55.8729 -26.6151
L56.1679 -26.6377
L56.4601 -26.6556
L56.7491 -26.6681
L57.0347 -26.6751
L57.3167 -26.6759
L57.5946 -26.6701
L57.8684 -26.6572
L58.1377 -26.6368
L58.4022 -26.6084
L58.6616 -26.5715
L58.9157 -26.5257
L59.1642 -26.4706
L59.4068 -26.4057
L59.6432 -26.3306
L59.8731 -26.245
L60.0963 -26.1486
L60.3124 -26.0411
L60.5213 -25.9222
L60.7226 -25.7918
L60.9161 -25.6497
L61.1016 -25.4958
L61.2787 -25.3301
L61.4474 -25.1526
L61.6072 -24.9633
L61.7582 -24.7624
L61.9 -24.5499
L61.7744 -24.3262
L61.5582 -23.8372
L61.3342 -23.3893
L61.1025 -22.9451
L60.8631 -22.505
L60.6162 -22.0689
L60.3618 -21.6371
L60.1 -21.2097
L59.8308 -20.7868
L59.5544 -20.3685
L59.2707 -19.955
L58.98 -19.5464
L58.6823 -19.1427
L58.3777 -18.7442
L58.0663 -18.351
L57.7482 -17.9631
L57.4234 -17.5808
L57.0921 -17.204
L56.7544 -16.833
L56.4103 -16.4678
L56.0601 -16.1086
L55.7037 -15.7554
L55.3413 -15.4084
L54.973 -15.0676
L54.599 -14.7333
L54.2193 -14.4054
L53.834 -14.0841
L53.4433 -13.7695
L53.0473 -13.4616
L52.6461 -13.1606
L52.2399 -12.8666
L51.8286 -12.5796
L51.4126 -12.2997
L50.9919 -12.0271
L50.5666 -11.7617
L50.1368 -11.5038
L49.7028 -11.2533
L49.2646 -11.0103
L48.8223 -10.775
L48.3762 -10.5473
L47.9262 -10.3274
L47.4727 -10.1154
L47.0156 -9.91115
L46.5552 -9.7149
L46.0916 -9.52665
L45.6249 -9.34647
L45.1552 -9.17441
L44.6828 -9.01052
L44.2077 -8.85485
L43.7301 -8.70745
L43.2502 -8.56836
L42.7681 -8.43763
L42.2839 -8.31529
L41.7978 -8.20139
L41.3099 -8.09595
L40.8204 -7.99902
L40.3295 -7.91061
L39.8372 -7.83076
L39.3437 -7.7595
L38.8493 -7.69683
L38.3539 -7.64278
L37.8579 -7.59738
L37.3612 -7.56062
L36.8642 -7.53253
L36.3669 -7.51311
L35.8695 -7.50236
L35.3721 -7.5003
L34.875 -7.50692
L34.3781 -7.52221
L33.8818 -7.54619
L33.3861 -7.57883
L32.8912 -7.62012
L32.3972 -7.67006
L31.9044 -7.72863
L31.4128 -7.79582
L30.9226 -7.87159
L30.4339 -7.95593
L29.9469 -8.04882
L29.4618 -8.15022
L28.9787 -8.2601
L28.4977 -8.37843
L28.019 -8.50518
L27.5427 -8.6403
L27.069 -8.78375
L26.598 -8.9355
L26.1299 -9.09549
L25.6648 -9.26367
L25.2028 -9.44
L24.7442 -9.62442
L24.2889 -9.81687
L23.8372 -10.0173
L23.3893 -10.2256
L22.9451 -10.4418
L22.505 -10.6658
L22.0689 -10.8975
L21.6371 -11.1369
L21.2097 -11.3838
L20.7868 -11.6382
L20.3685 -11.9
L19.955 -12.1692
L19.5464 -12.4456
L19.1427 -12.7293
L18.7442 -13.02
L18.351 -13.3177
L17.9631 -13.6223
L17.5808 -13.9337
L17.204 -14.2518
L16.833 -14.5766
L16.4678 -14.9079
L16.1086 -15.2456
L15.7554 -15.5897
L15.4084 -15.9399
L15.0676 -16.2963
L14.7333 -16.6587
L14.4054 -17.027
L14.0841 -17.401
L13.7695 -17.7807
L13.4616 -18.166
L13.1606 -18.5567
L12.8666 -18.9527
L12.5796 -19.3539
L12.2997 -19.7601
L12.0271 -20.1714
L11.7617 -20.5874
L11.5038 -21.0081
L11.2533 -21.4334
L11.0103 -21.8632
L10.775 -22.2972
L10.5473 -22.7354
L10.3274 -23.1777
L10.1154 -23.6238
z
" id="C0_1_30d980c1d1"/>
     <path d="
M10.199 -47.8028
L10.4676 -47.8647
L10.7406 -47.9336
L11.0177 -48.0087
L11.2987 -48.0895
L11.5833 -48.1754
L11.8713 -48.2659
L12.1626 -48.3604
L12.4568 -48.4584
L12.7538 -48.5595
L13.0535 -48.6631
L13.3555 -48.7689
L13.6597 -48.8764
L13.9658 -48.9852
L14.2738 -49.095
L14.5834 -49.2054
L14.8945 -49.3162
L15.2068 -49.427
L15.5203 -49.5376
L15.8348 -49.6477
L16.15 -49.7571
L16.466 -49.8657
L16.7824 -49.9732
L17.0993 -50.0795
L17.4165 -50.1845
L17.7339 -50.2879
L18.0514 -50.3898
L18.3688 -50.4899
L18.6861 -50.5882
L19.0032 -50.6847
L19.32 -50.7792
L19.6364 -50.8717
L19.9524 -50.9622
L20.2679 -51.0506
L20.5828 -51.1368
L20.8971 -51.2209
L21.2108 -51.3029
L21.5237 -51.3826
L21.8359 -51.4602
L22.1474 -51.5356
L22.458 -51.6088
L22.7678 -51.6797
L23.0768 -51.7485
L23.3849 -51.8152
L23.6922 -51.8796
L23.9985 -51.9419
L24.304 -52.002
L24.6086 -52.06
L24.9123 -52.116
L25.2151 -52.1698
L25.517 -52.2215
L25.8181 -52.2712
L26.1183 -52.3189
L26.4176 -52.3645
L26.7161 -52.4082
L27.0139 -52.4499
L27.3108 -52.4896
L27.6069 -52.5274
L27.9023 -52.5633
L28.197 -52.5973
L28.491 -52.6294
L28.7843 -52.6597
L29.077 -52.6882
L29.369 -52.7148
L29.6605 -52.7396
L29.9514 -52.7627
L30.2418 -52.784
L30.5317 -52.8035
L30.8212 -52.8213
L31.1102 -52.8373
L31.3989 -52.8517
L31.6872 -52.8643
L31.9752 -52.8752
L32.263 -52.8845
L32.5505 -52.8921
L32.8378 -52.898
L33.1249 -52.9022
L33.412 -52.9048
L33.6989 -52.9057
L33.9859 -52.905
L34.2728 -52.9026
L34.5597 -52.8986
L34.8468 -52.8929
L35.1339 -52.8856
L35.4212 -52.8766
L35.7087 -52.866
L35.9964 -52.8537
L36.2844 -52.8397
L36.5727 -52.8241
L36.8614 -52.8068
L37.1504 -52.7879
L37.4398 -52.7672
L37.7298 -52.7448
L38.0202 -52.7208
L38.3111 -52.695
L38.6026 -52.6675
L38.8948 -52.6382
L39.1875 -52.6072
L39.481 -52.5744
L39.7751 -52.5398
L40.07 -52.5034
L40.3656 -52.4652
L40.662 -52.4252
L40.9593 -52.3833
L41.2574 -52.3396
L41.5563 -52.294
L41.8562 -52.2465
L42.157 -52.197
L42.4588 -52.1456
L42.7615 -52.0923
L43.0651 -52.037
L43.3698 -51.9797
L43.6755 -51.9204
L43.9822 -51.8591
L44.2899 -51.7958
L44.5987 -51.7304
L44.9085 -51.663
L45.2193 -51.5934
L45.5312 -51.5219
L45.8441 -51.4482
L46.158 -51.3724
L46.4729 -51.2946
L46.7887 -51.2146
L47.1056 -51.1326
L47.4234 -51.0485
L47.742 -50.9624
L48.0616 -50.8742
L48.382 -50.7839
L48.7031 -50.6917
L49.025 -50.5976
L49.3476 -50.5015
L49.6709 -50.4036
L49.9946 -50.3038
L50.3189 -50.2024
L50.6436 -50.0992
L50.9686 -49.9945
L51.2939 -49.8884
L51.6193 -49.7809
L51.9447 -49.6721
L52.2701 -49.5623
L52.5953 -49.4515
L52.9202 -49.34
L53.2447 -49.2279
L53.5686 -49.1155
L53.8919 -49.0029
L54.2143 -48.8904
L54.5357 -48.7783
L54.856 -48.6668
L55.175 -48.5563
L55.4925 -48.4472
L55.8083 -48.3396
L56.1224 -48.2341
L56.4344 -48.131
L56.7443 -48.0308
L57.0518 -47.9339
L57.3567 -47.8406
L57.6589 -47.7516
L57.9582 -47.6673
L58.2543 -47.5882
L58.547 -47.5149
L58.8362 -47.4477
L59.1217 -47.3873
L59.4032 -47.3342
L59.6806 -47.2888
L59.9537 -47.2517
L60.2222 -47.2234
L60.4859 -47.2043
L60.7448 -47.1948
L60.9984 -47.1954
L61.2468 -47.2064
L61.4897 -47.2281
L61.7268 -47.2609
L61.927 -47.3049
L61.7165 -47.8339
L61.4982 -48.2846
L61.2721 -48.7315
L61.0384 -49.1746
L60.7969 -49.6136
L60.548 -50.0485
L60.2916 -50.4792
L60.0277 -50.9054
L59.7566 -51.3271
L59.4782 -51.7441
L59.1926 -52.1563
L58.9 -52.5636
L58.6004 -52.9658
L58.294 -53.3629
L57.9807 -53.7547
L57.6608 -54.141
L57.3342 -54.5219
L57.0012 -54.8971
L56.6617 -55.2666
L56.316 -55.6302
L55.9641 -55.9878
L55.606 -56.3393
L55.2421 -56.6846
L54.8722 -57.0236
L54.4966 -57.3562
L54.1154 -57.6824
L53.7287 -58.0019
L53.3365 -58.3147
L52.9391 -58.6207
L52.5365 -58.9198
L52.1289 -59.2119
L51.7163 -59.497
L51.299 -59.7749
L50.877 -60.0456
L50.4505 -60.3089
L50.0196 -60.5649
L49.5844 -60.8133
L49.1451 -61.0542
L48.7018 -61.2875
L48.2546 -61.513
L47.8036 -61.7308
L47.3491 -61.9408
L46.8911 -62.1428
L46.4298 -62.3369
L45.9653 -62.523
L45.4978 -62.701
L45.0274 -62.8708
L44.5543 -63.0325
L44.0785 -63.1859
L43.6003 -63.3311
L43.1197 -63.4679
L42.637 -63.5964
L42.1523 -63.7164
L41.6657 -63.828
L41.1774 -63.9312
L40.6875 -64.0258
L40.1961 -64.1119
L39.7035 -64.1894
L39.2098 -64.2583
L38.7151 -64.3187
L38.2195 -64.3704
L37.7233 -64.4134
L37.2266 -64.4479
L36.7294 -64.4736
L36.2321 -64.4907
L35.7347 -64.4991
L35.2373 -64.4988
L34.7402 -64.4898
L34.2435 -64.4721
L33.7473 -64.4458
L33.2519 -64.4108
L32.7572 -64.3672
L32.2635 -64.3149
L31.771 -64.254
L31.2798 -64.1845
L30.7899 -64.1064
L30.3017 -64.0197
L29.8152 -63.9245
L29.3306 -63.8208
L28.8481 -63.7087
L28.3677 -63.588
L27.8896 -63.459
L27.414 -63.3216
L26.9411 -63.1759
L26.4708 -63.0219
L26.0035 -62.8597
L25.5393 -62.6893
L25.0782 -62.5108
L24.6204 -62.3242
L24.1661 -62.1296
L23.7154 -61.927
L23.2685 -61.7165
L22.8254 -61.4982
L22.3864 -61.2721
L21.9515 -61.0384
L21.5208 -60.7969
L21.0946 -60.548
L20.6729 -60.2916
L20.2559 -60.0277
L19.8437 -59.7566
L19.4364 -59.4782
L19.0342 -59.1926
L18.6371 -58.9
L18.2453 -58.6004
L17.859 -58.294
L17.4781 -57.9807
L17.1029 -57.6608
L16.7334 -57.3342
L16.3698 -57.0012
L16.0122 -56.6617
L15.6607 -56.316
L15.3154 -55.9641
L14.9764 -55.606
L14.6438 -55.2421
L14.3176 -54.8722
L13.9981 -54.4966
L13.6853 -54.1154
L13.3793 -53.7287
L13.0802 -53.3365
L12.7881 -52.9391
L12.503 -52.5365
L12.2251 -52.1289
L11.9544 -51.7163
L11.6911 -51.299
L11.4351 -50.877
L11.1867 -50.4505
L10.9458 -50.0196
L10.7125 -49.5844
L10.487 -49.1451
z
" id="C0_2_abcb835762"/>
    </defs>
    <g clip-path="url(#p1bffca34e9)">
     <use style="fill:#ff0000;stroke:#000000;stroke-width:2.0;" x="0.0" xlink:href="#C0_0_a811fe30f3" y="72.0"/>
    </g>
    <g clip-path="url(#p1bffca34e9)">
     <use style="fill:#ffffff;stroke:#000000;stroke-width:2.0;" x="0.0" xlink:href="#C0_1_30d980c1d1" y="72.0"/>
    </g>
    <g clip-path="url(#p1bffca34e9)">
     <use style="fill:#ffffff;stroke:#000000;stroke-width:2.0;" x="0.0" xlink:href="#C0_2_abcb835762" y="72.0"/>
    </g>
   </g>
  </g>
 </g>
 <defs>
  <clipPath id="p1bffca34e9">
   <rect height="72.0" width="72.0" x="0.0" y="0.0"/>
  </clipPath>
 </defs>
</svg>
