<?xml version="1.0" encoding="utf-8" standalone="no"?>
<!DOCTYPE svg PUBLIC "-//W3C//DTD SVG 1.1//EN"
  "http://www.w3.org/Graphics/SVG/1.1/DTD/svg11.dtd">
<!-- Created with matplotlib (http://matplotlib.org/) -->
<svg height="72pt" version="1.1" viewBox="0 0 72 72" width="72pt" xmlns="http://www.w3.org/2000/svg" xmlns:xlink="http://www.w3.org/1999/xlink">
 <defs>
  <style type="text/css">
*{stroke-linecap:butt;stroke-linejoin:round;}
  </style>
 </defs>
 <g id="figure_1">
  <g id="patch_1">
   <path d="
M0 72
L72 72
L72 0
L0 0
z
" style="fill:none;"/>
  </g>
  <g id="axes_1">
   <g id="PatchCollection_1">
    <defs>
     <path d="
M36 -7.5
C43.5583 -7.5 50.808 -10.5029 56.1525 -15.8475
C61.4971 -21.192 64.5 -28.4417 64.5 -36
C64.5 -43.5583 61.4971 -50.808 56.1525 -56.1525
C50.808 -61.4971 43.5583 -64.5 36 -64.5
C28.4417 -64.5 21.192 -61.4971 15.8475 -56.1525
C10.5029 -50.808 7.5 -43.5583 7.5 -36
C7.5 -28.4417 10.5029 -21.192 15.8475 -15.8475
C21.192 -10.5029 28.4417 -7.5 36 -7.5
z
" id="C0_0_a811fe30f3"/>
     <path d="
M26.2446 -9.27165
L26.418 -9.47416
L26.6069 -9.67419
L26.8097 -9.87222
L27.0249 -10.0687
L27.251 -10.2641
L27.4866 -10.4588
L27.7304 -10.6531
L27.9812 -10.8474
L28.2379 -11.0418
L28.4997 -11.2367
L28.7654 -11.4322
L29.0344 -11.6284
L29.3059 -11.8255
L29.5792 -12.0235
L29.8538 -12.2225
L30.1291 -12.4225
L30.4046 -12.6235
L30.6799 -12.8256
L30.9546 -13.0286
L31.2284 -13.2327
L31.5011 -13.4377
L31.7722 -13.6436
L32.0417 -13.8503
L32.3093 -14.0579
L32.5749 -14.2661
L32.8382 -14.4751
L33.0993 -14.6847
L33.3578 -14.8948
L33.6139 -15.1054
L33.8674 -15.3165
L34.1182 -15.5279
L34.3664 -15.7397
L34.6118 -15.9517
L34.8544 -16.164
L35.0943 -16.3764
L35.3314 -16.589
L35.5657 -16.8017
L35.7973 -17.0144
L36.0261 -17.2272
L36.2522 -17.44
L36.4755 -17.6527
L36.6962 -17.8654
L36.9143 -18.078
L37.1297 -18.2905
L37.3425 -18.5029
L37.5528 -18.7153
L37.7607 -18.9274
L37.966 -19.1395
L38.169 -19.3514
L38.3696 -19.5632
L38.5678 -19.7749
L38.7639 -19.9864
L38.9576 -20.1978
L39.1493 -20.4091
L39.3388 -20.6203
L39.5262 -20.8314
L39.7116 -21.0425
L39.8951 -21.2535
L40.0766 -21.4644
L40.2563 -21.6754
L40.4341 -21.8863
L40.6102 -22.0973
L40.7845 -22.3083
L40.9571 -22.5194
L41.1281 -22.7306
L41.2975 -22.942
L41.4654 -23.1535
L41.6318 -23.3652
L41.7967 -23.5771
L41.9602 -23.7893
L42.1223 -24.0017
L42.2831 -24.2145
L42.4426 -24.4277
L42.6009 -24.6412
L42.7579 -24.8552
L42.9138 -25.0697
L43.0686 -25.2847
L43.2222 -25.5002
L43.3748 -25.7164
L43.5264 -25.9331
L43.8266 -26.1506
L43.9753 -26.3688
L44.1231 -26.5877
L44.27 -26.8075
L44.4161 -27.0281
L44.5614 -27.2497
L44.706 -27.4721
L44.8497 -27.6956
L44.9928 -27.9202
L45.1352 -28.1458
L45.2768 -28.3726
L45.4179 -28.6005
L45.5583 -28.8298
L45.6981 -29.0603
L45.8374 -29.2922
L45.976 -29.5255
L46.1142 -29.7602
L46.2518 -29.9964
L46.3889 -30.2343
L46.5255 -30.4737
L46.6616 -30.7148
L46.7972 -30.9577
L46.9324 -31.2023
L47.0672 -31.4487
L47.2015 -31.6971
L47.3354 -31.9474
L47.4689 -32.1997
L47.602 -32.4541
L47.7346 -32.7106
L47.8669 -32.9692
L47.9988 -33.2301
L48.1302 -33.4932
L48.2613 -33.7587
L48.3919 -34.0266
L48.5222 -34.2969
L48.652 -34.5696
L48.7814 -34.8449
L48.9104 -35.1228
L49.0389 -35.4032
L49.167 -35.6863
L49.2947 -35.9722
L49.4218 -36.2607
L49.5485 -36.552
L49.6746 -36.8461
L49.8002 -37.1429
L49.9253 -37.4426
L50.0498 -37.7452
L50.1738 -38.0506
L50.2971 -38.3588
L50.4198 -38.6699
L50.5418 -38.9838
L50.6632 -39.3005
L50.7839 -39.6199
L50.9039 -39.9421
L51.0231 -40.267
L51.1417 -40.5944
L51.2595 -40.9244
L51.3765 -41.2569
L51.4929 -41.5916
L51.6084 -41.9285
L51.7233 -42.2675
L51.8375 -42.6084
L51.951 -42.9509
L52.0639 -43.295
L52.1763 -43.6402
L52.2883 -43.9865
L52.3999 -44.3334
L52.5112 -44.6807
L52.6226 -45.0279
L52.734 -45.3747
L52.8458 -45.7206
L52.9582 -46.0652
L53.0715 -46.4078
L53.186 -46.7479
L53.3022 -47.0849
L53.4204 -47.418
L53.5413 -47.7465
L53.6652 -48.0695
L53.7929 -48.3862
L53.925 -48.6957
L54.0622 -48.9967
L54.2052 -49.2885
L54.355 -49.5697
L54.5122 -49.8392
L54.6777 -50.0959
L54.8523 -50.3385
L55.0367 -50.5659
L55.2316 -50.7769
L55.4375 -50.9705
L55.655 -51.1455
L55.8842 -51.3012
L56.1253 -51.4367
L56.3783 -51.5515
L56.6429 -51.6452
L56.9187 -51.7175
L57.2052 -51.7682
L57.5017 -51.7974
L57.8074 -51.8054
L58.1215 -51.7924
L58.4429 -51.7588
L58.7708 -51.7052
L59.1042 -51.6321
L59.442 -51.54
L59.7833 -51.4297
L60.1272 -51.3017
L60.3941 -51.1567
L60.6476 -50.737
L60.8935 -50.309
L61.1319 -49.8767
L61.3627 -49.4401
L61.5857 -48.9995
L61.8009 -48.5548
L62.0082 -48.1064
L62.2077 -47.6543
L62.3991 -47.1986
L62.5825 -46.7395
L62.7578 -46.2771
L62.925 -45.8116
L63.084 -45.3431
L63.2347 -44.8718
L63.3771 -44.3978
L63.5112 -43.9212
L63.6369 -43.4422
L63.7541 -42.9609
L63.8629 -42.4775
L63.9633 -41.9922
L64.0551 -41.505
L64.1384 -41.0161
L64.2131 -40.5257
L64.2792 -40.034
L64.3367 -39.541
L64.3855 -39.0469
L64.4257 -38.5519
L64.4573 -38.0561
L64.4802 -37.5597
L64.4944 -37.0628
L64.4999 -36.5656
L64.4968 -36.0682
L64.4849 -35.5708
L64.4644 -35.0735
L64.4353 -34.5765
L64.3974 -34.08
L64.3509 -33.584
L64.2958 -33.0888
L64.2321 -32.5944
L64.1597 -32.1011
L64.0788 -31.609
L63.9893 -31.1182
L63.8913 -30.6289
L63.7848 -30.1412
L63.6698 -29.6554
L63.5465 -29.1714
L63.4147 -28.6896
L63.2745 -28.2099
L63.1261 -27.7326
L62.9694 -27.2579
L62.8045 -26.7858
L62.6314 -26.3165
L62.4502 -25.8502
L62.261 -25.387
L62.0637 -24.927
L61.8585 -24.4703
L61.6455 -24.0172
L61.4246 -23.5678
L61.196 -23.1221
L60.9597 -22.6803
L60.7158 -22.2426
L60.4643 -21.8091
L60.2054 -21.3799
L59.9392 -20.9552
L59.6656 -20.535
L59.3849 -20.1196
L59.097 -19.709
L58.8021 -19.3033
L58.5002 -18.9028
L58.1915 -18.5074
L57.876 -18.1174
L57.5539 -17.7328
L57.2252 -17.3538
L56.89 -16.9805
L56.5485 -16.613
L56.2007 -16.2514
L55.8468 -15.8957
L55.4868 -15.5462
L55.1208 -15.203
L54.7491 -14.8661
L54.3716 -14.5356
L53.9886 -14.2116
L53.6 -13.8943
L53.2061 -13.5837
L52.807 -13.28
L52.4027 -12.9832
L51.9935 -12.6934
L51.5794 -12.4106
L51.1605 -12.1351
L50.737 -11.8668
L50.309 -11.6059
L49.8767 -11.3524
L49.4401 -11.1065
L48.9995 -10.8681
L48.5548 -10.6373
L48.1064 -10.4143
L47.6543 -10.1991
L47.1986 -9.99177
L46.7395 -9.79233
L46.2771 -9.60088
L45.8116 -9.41747
L45.3431 -9.24216
L44.8718 -9.075
L44.3978 -8.91604
L43.9212 -8.76533
L43.4422 -8.62292
L42.9609 -8.48884
L42.4775 -8.36315
L41.9922 -8.24587
L41.505 -8.13705
L41.0161 -8.03672
L40.5257 -7.9449
L40.034 -7.86163
L39.541 -7.78693
L39.0469 -7.72083
L38.5519 -7.66334
L38.0561 -7.61448
L37.5597 -7.57426
L37.0628 -7.54271
L36.5656 -7.51982
L36.0682 -7.50561
L35.5708 -7.50008
L35.0735 -7.50323
L34.5765 -7.51506
L34.08 -7.53557
L33.584 -7.56475
L33.0888 -7.60259
L32.5944 -7.64908
L32.1011 -7.7042
L31.609 -7.76795
L31.1182 -7.84029
L30.6289 -7.92122
L30.1412 -8.01069
L29.6554 -8.10869
L29.1714 -8.21519
L28.6896 -8.33015
L28.2099 -8.45354
L27.7326 -8.58532
L27.2579 -8.72545
L26.7858 -8.87389
z
" id="C0_1_d55572441d"/>
     <path d="
M11.8721 -21.2159
L11.8835 -21.6012
L11.8957 -21.9907
L11.9093 -22.3836
L11.9248 -22.779
L11.9427 -23.1763
L11.9632 -23.5749
L11.9868 -23.974
L12.0137 -24.3733
L12.044 -24.7721
L12.0779 -25.1701
L12.1155 -25.5669
L12.1568 -25.962
L12.202 -26.3552
L12.251 -26.7462
L12.3037 -27.1347
L12.3603 -27.5205
L12.4206 -27.9034
L12.4846 -28.2833
L12.5522 -28.6599
L12.6234 -29.0332
L12.698 -29.403
L12.776 -29.7693
L12.8572 -30.132
L12.9417 -30.491
L13.0292 -30.8463
L13.1197 -31.1978
L13.2132 -31.5455
L13.3094 -31.8895
L13.4084 -32.2296
L13.5099 -32.566
L13.614 -32.8986
L13.7206 -33.2275
L13.8295 -33.5526
L13.9407 -33.8741
L14.0541 -34.1919
L14.1696 -34.5062
L14.2872 -34.8168
L14.4068 -35.124
L14.5283 -35.4277
L14.6517 -35.7281
L14.7769 -36.0251
L14.9039 -36.3188
L15.0325 -36.6093
L15.1629 -36.8966
L15.2949 -37.1809
L15.4284 -37.4622
L15.5635 -37.7404
L15.7002 -38.0158
L15.8383 -38.2884
L15.9779 -38.5582
L16.1189 -38.8254
L16.2614 -39.0899
L16.4053 -39.3518
L16.5505 -39.6113
L16.6972 -39.8683
L16.8452 -40.123
L16.9945 -40.3754
L17.1453 -40.6255
L17.2974 -40.8735
L17.4508 -41.1193
L17.6056 -41.3631
L17.7618 -41.6049
L17.9194 -41.8448
L18.0783 -42.0828
L18.2386 -42.3191
L18.4004 -42.5535
L18.5635 -42.7862
L18.7281 -43.0173
L18.8942 -43.2469
L19.0617 -43.4748
L19.2307 -43.7013
L19.4013 -43.9263
L19.5734 -44.15
L19.747 -44.3723
L19.9223 -44.5933
L20.0993 -44.813
L20.2779 -45.0315
L20.4582 -45.2489
L20.6402 -45.4652
L20.824 -45.6803
L21.0096 -45.8945
L21.1971 -46.1076
L21.3865 -46.3197
L21.5779 -46.5309
L21.7712 -46.7412
L21.9665 -46.9507
L22.1639 -47.1593
L22.3635 -47.3671
L22.5652 -47.5741
L22.7692 -47.7804
L22.9754 -47.986
L23.184 -48.1908
L23.395 -48.395
L23.6084 -48.5985
L23.8244 -48.8013
L24.0429 -49.0036
L24.264 -49.2052
L24.4878 -49.4062
L24.7144 -49.6066
L24.9437 -49.8065
L25.176 -50.0058
L25.4112 -50.2045
L25.6494 -50.4027
L25.8906 -50.6003
L26.135 -50.7973
L26.3826 -50.9937
L26.6334 -51.1896
L26.8876 -51.3849
L27.1451 -51.5795
L27.4062 -51.7736
L27.6707 -51.967
L27.9388 -52.1597
L28.2105 -52.3517
L28.486 -52.5431
L28.7652 -52.7337
L29.0481 -52.9235
L29.335 -53.1124
L29.6257 -53.3006
L29.9204 -53.4878
L30.219 -53.674
L30.5217 -53.8593
L30.8284 -54.0435
L31.1391 -54.2266
L31.4539 -54.4085
L31.7728 -54.5892
L32.0957 -54.7685
L32.4227 -54.9466
L32.7537 -55.1231
L33.0887 -55.2982
L33.4275 -55.4717
L33.7702 -55.6436
L34.1167 -55.8138
L34.4668 -55.9822
L34.8205 -56.1488
L35.1775 -56.3135
L35.5377 -56.4763
L35.9009 -56.6371
L36.2669 -56.7959
L36.6353 -56.9527
L37.006 -57.1074
L37.3785 -57.2602
L37.7526 -57.4109
L38.1277 -57.5598
L38.5034 -57.7067
L38.8793 -57.8519
L39.2546 -57.9956
L39.6288 -58.1378
L40.0013 -58.2788
L40.3711 -58.4189
L40.7376 -58.5584
L41.0998 -58.6976
L41.4568 -58.8371
L41.8074 -58.9772
L42.1507 -59.1186
L42.4855 -59.2618
L42.8104 -59.4075
L43.1243 -59.5563
L43.4259 -59.709
L43.7139 -59.8663
L43.987 -60.0289
L44.2439 -60.1976
L44.4835 -60.3729
L44.7048 -60.5554
L44.9068 -60.7457
L45.0888 -60.944
L45.2501 -61.1505
L45.3904 -61.3655
L45.5093 -61.5886
L45.6069 -61.8199
L45.6832 -62.0588
L45.7384 -62.305
L45.3742 -62.5578
L44.9031 -62.9142
L44.4292 -63.0737
L43.9528 -63.225
L43.474 -63.3679
L42.9928 -63.5025
L42.5096 -63.6288
L42.0243 -63.7466
L41.5373 -63.856
L41.0485 -63.9569
L40.5582 -64.0493
L40.0665 -64.1331
L39.5736 -64.2084
L39.0796 -64.2751
L38.5846 -64.3331
L38.0889 -64.3826
L37.5925 -64.4233
L37.0957 -64.4555
L36.5985 -64.4789
L36.1011 -64.4937
L35.6037 -64.4998
L35.1064 -64.4972
L34.6094 -64.486
L34.1128 -64.4661
L33.6168 -64.4374
L33.1215 -64.4002
L32.6271 -64.3543
L32.1337 -64.2997
L31.6415 -64.2365
L31.1506 -64.1648
L30.6612 -64.0844
L30.1735 -63.9955
L29.6875 -63.8981
L29.2034 -63.7921
L28.7214 -63.6777
L28.2416 -63.5549
L27.7641 -63.4237
L27.2892 -63.2841
L26.817 -63.1362
L26.3475 -62.98
L25.881 -62.8157
L25.4175 -62.6431
L24.9573 -62.4624
L24.5004 -62.2737
L24.0471 -62.077
L23.5974 -61.8723
L23.1514 -61.6598
L22.7094 -61.4394
L22.2714 -61.2113
L21.8377 -60.9755
L21.4082 -60.7321
L20.9831 -60.4812
L20.5627 -60.2228
L20.1469 -59.957
L19.736 -59.684
L19.33 -59.4037
L18.9291 -59.1163
L18.5334 -58.8218
L18.1431 -58.5204
L17.7581 -58.2122
L17.3787 -57.8971
L17.005 -57.5754
L16.6371 -57.2471
L16.2751 -56.9124
L15.9191 -56.5713
L15.5692 -56.2239
L15.2255 -55.8704
L14.8882 -55.5108
L14.5572 -55.1452
L14.2329 -54.7739
L13.9151 -54.3968
L13.6041 -54.0141
L13.2999 -53.6259
L13.0026 -53.2324
L12.7123 -52.8336
L12.4291 -52.4296
L12.1531 -52.0207
L11.8844 -51.6069
L11.623 -51.1883
L11.369 -50.7652
L11.1225 -50.3375
L10.8836 -49.9054
L10.6524 -49.4691
L10.4289 -49.0287
L10.2131 -48.5844
L10.0052 -48.1362
L9.80528 -47.6843
L9.6133 -47.2288
L9.42936 -46.77
L9.25351 -46.3078
L9.08581 -45.8425
L8.9263 -45.3742
L8.77505 -44.9031
L8.63208 -44.4292
L8.49746 -43.9528
L8.37121 -43.474
L8.25337 -42.9928
L8.14399 -42.5096
L8.04309 -42.0243
L7.95071 -41.5373
L7.86688 -41.0485
L7.79161 -40.5582
L7.72493 -40.0665
L7.66687 -39.5736
L7.61744 -39.0796
L7.57666 -38.5846
L7.54453 -38.0889
L7.52107 -37.5925
L7.50628 -37.0957
L7.50018 -36.5985
L7.50276 -36.1011
L7.51401 -35.6037
L7.53395 -35.1064
L7.56255 -34.6094
L7.59982 -34.1128
L7.64574 -33.6168
L7.70029 -33.1215
L7.76347 -32.6271
L7.83524 -32.1337
L7.9156 -31.6415
L8.00451 -31.1506
L8.10195 -30.6612
L8.20788 -30.1735
L8.32229 -29.6875
L8.44512 -29.2034
L8.57634 -28.7214
L8.71592 -28.2416
L8.86382 -27.7641
L9.01997 -27.2892
L9.18435 -26.817
L9.35689 -26.3475
L9.53755 -25.881
L9.72627 -25.4175
L9.92299 -24.9573
L10.1277 -24.5004
L10.3402 -24.0471
L10.5606 -23.5974
L10.7887 -23.1514
L11.0245 -22.7094
L11.2679 -22.2714
z
" id="C0_2_6783b522f2"/>
    </defs>
    <g clip-path="url(#p1bffca34e9)">
     <use style="fill:#ff0000;stroke:#000000;stroke-width:2.0;" x="0.0" xlink:href="#C0_0_a811fe30f3" y="72.0"/>
    </g>
    <g clip-path="url(#p1bffca34e9)">
     <use style="fill:#ffffff;stroke:#000000;stroke-width:2.0;" x="0.0" xlink:href="#C0_1_d55572441d" y="72.0"/>
    </g>
    <g clip-path="url(#p1bffca34e9)">
     <use style="fill:#ffffff;stroke:#000000;stroke-width:2.0;" x="0.0" xlink:href="#C0_2_6783b522f2" y="72.0"/>
    </g>
   </g>
  </g>
 </g>
 <defs>
  <clipPath id="p1bffca34e9">
   <rect height="72.0" width="72.0" x="0.0" y="0.0"/>
  </clipPath>
 </defs>
</svg>
