<?xml version="1.0" encoding="utf-8" standalone="no"?>
<!DOCTYPE svg PUBLIC "-//W3C//DTD SVG 1.1//EN"
  "http://www.w3.org/Graphics/SVG/1.1/DTD/svg11.dtd">
<!-- Created with matplotlib (http://matplotlib.org/) -->
<svg height="72pt" version="1.1" viewBox="0 0 72 72" width="72pt" xmlns="http://www.w3.org/2000/svg" xmlns:xlink="http://www.w3.org/1999/xlink">
 <defs>
  <style type="text/css">
*{stroke-linecap:butt;stroke-linejoin:round;}
  </style>
 </defs>
 <g id="figure_1">
  <g id="patch_1">
   <path d="
M0 72
L72 72
L72 0
L0 0
z
" style="fill:none;"/>
  </g>
  <g id="axes_1">
   <g id="PatchCollection_1">
    <defs>
     <path d="
M36 -7.5
C43.5583 -7.5 50.808 -10.5029 56.1525 -15.8475
C61.4971 -21.192 64.5 -28.4417 64.5 -36
C64.5 -43.5583 61.4971 -50.808 56.1525 -56.1525
C50.808 -61.4971 43.5583 -64.5 36 -64.5
C28.4417 -64.5 21.192 -61.4971 15.8475 -56.1525
C10.5029 -50.808 7.5 -43.5583 7.5 -36
C7.5 -28.4417 10.5029 -21.192 15.8475 -15.8475
C21.192 -10.5029 28.4417 -7.5 36 -7.5
z
" id="C0_0_a811fe30f3"/>
     <path d="
M63.0177 -27.6676
L62.6403 -27.428
L62.2613 -27.1986
L61.881 -26.9791
L61.4999 -26.7692
L61.1183 -26.5686
L60.7365 -26.3771
L60.3549 -26.1944
L59.9737 -26.0203
L59.5933 -25.8544
L59.2138 -25.6964
L58.8355 -25.5462
L58.4587 -25.4035
L58.0835 -25.268
L57.7102 -25.1394
L57.3388 -25.0175
L56.9696 -24.902
L56.6027 -24.7928
L56.2382 -24.6896
L55.8761 -24.5922
L55.5167 -24.5002
L55.16 -24.4137
L54.806 -24.3322
L54.4548 -24.2557
L54.1065 -24.1839
L53.7611 -24.1167
L53.4186 -24.0538
L53.079 -23.9952
L52.7423 -23.9406
L52.4086 -23.8899
L52.0778 -23.8429
L51.7499 -23.7994
L51.4249 -23.7595
L51.1028 -23.7228
L50.7836 -23.6893
L50.4671 -23.6589
L50.1534 -23.6314
L49.8425 -23.6068
L49.5342 -23.5849
L49.2286 -23.5656
L48.9255 -23.5489
L48.625 -23.5346
L48.3269 -23.5226
L48.0313 -23.513
L47.738 -23.5055
L47.447 -23.5002
L47.1583 -23.4969
L46.8717 -23.4956
L46.5872 -23.4962
L46.3047 -23.4988
L46.0242 -23.5031
L45.7456 -23.5092
L45.4689 -23.5171
L45.1939 -23.5266
L44.9206 -23.5377
L44.6489 -23.5505
L44.3789 -23.5648
L44.1103 -23.5806
L43.8431 -23.5979
L43.5773 -23.6167
L43.3127 -23.6369
L43.0494 -23.6586
L42.7873 -23.6816
L42.5262 -23.7061
L42.2661 -23.7318
L42.007 -23.759
L41.7488 -23.7874
L41.4914 -23.8172
L41.2347 -23.8483
L40.9788 -23.8806
L40.7234 -23.9143
L40.4686 -23.9493
L40.2142 -23.9855
L39.9603 -24.0231
L39.7067 -24.0619
L39.4534 -24.1021
L38.9474 -24.1435
L38.6946 -24.1863
L38.4418 -24.2303
L38.1889 -24.2757
L37.9359 -24.3224
L37.6828 -24.3705
L37.4294 -24.4199
L37.1757 -24.4707
L36.9216 -24.5229
L36.6671 -24.5765
L36.4121 -24.6315
L36.1565 -24.6881
L35.9003 -24.746
L35.6434 -24.8056
L35.3857 -24.8666
L35.1272 -24.9292
L34.8679 -24.9934
L34.6075 -25.0593
L34.3462 -25.1268
L34.0838 -25.196
L33.8202 -25.267
L33.5554 -25.3397
L33.2893 -25.4143
L33.0219 -25.4908
L32.7531 -25.5691
L32.4829 -25.6495
L32.2111 -25.7319
L31.9377 -25.8163
L31.6627 -25.9029
L31.386 -25.9916
L31.1075 -26.0827
L30.8272 -26.176
L30.545 -26.2717
L30.2608 -26.3698
L29.9747 -26.4705
L29.6865 -26.5737
L29.3963 -26.6796
L29.1039 -26.7883
L28.8093 -26.8997
L28.5124 -27.0141
L28.2133 -27.1314
L27.9119 -27.2519
L27.6082 -27.3754
L27.302 -27.5023
L26.9935 -27.6324
L26.6826 -27.766
L26.3692 -27.9032
L26.0533 -28.044
L25.735 -28.1886
L25.4143 -28.337
L25.0911 -28.4893
L24.7655 -28.6457
L24.4374 -28.8063
L24.107 -28.9712
L23.7742 -29.1405
L23.4392 -29.3143
L23.1019 -29.4928
L22.7624 -29.6759
L22.4209 -29.8639
L22.0773 -30.0569
L21.7319 -30.255
L21.3847 -30.4582
L21.0359 -30.6667
L20.6856 -30.8806
L20.3339 -31.1
L19.9811 -31.325
L19.6273 -31.5557
L19.2728 -31.7921
L18.9177 -32.0344
L18.5623 -32.2826
L18.2068 -32.5367
L17.8515 -32.7969
L17.4968 -33.0633
L17.1428 -33.3357
L16.7899 -33.6143
L16.4384 -33.8991
L16.0888 -34.1901
L15.7413 -34.4872
L15.3963 -34.7906
L15.0543 -35.1001
L14.7156 -35.4157
L14.3807 -35.7374
L14.0502 -36.0651
L13.7246 -36.3987
L13.4046 -36.7383
L13.0911 -37.0837
L12.7857 -37.435
L12.4911 -37.7922
L12.2141 -38.1557
L11.9767 -38.5267
L11.8617 -38.9095
L11.9727 -39.3207
L12.2082 -39.7774
L12.4857 -40.2528
L12.7834 -40.728
L13.0943 -41.1978
L13.4157 -41.6607
L13.7459 -42.1156
L14.0839 -42.5623
L14.4289 -43.0003
L14.7803 -43.4293
L15.1374 -43.8492
L15.4997 -44.2598
L15.8667 -44.6609
L16.2379 -45.0525
L16.6128 -45.4344
L16.9909 -45.8066
L17.3717 -46.1691
L17.755 -46.5218
L18.1402 -46.8649
L18.5269 -47.1983
L18.9149 -47.5221
L19.3036 -47.8364
L19.6929 -48.1412
L20.0824 -48.4368
L20.4718 -48.7231
L20.8608 -49.0004
L21.2492 -49.2688
L21.6366 -49.5284
L22.023 -49.7794
L22.4081 -50.022
L22.7917 -50.2563
L23.1737 -50.4826
L23.5538 -50.7009
L23.932 -50.9116
L24.3082 -51.1147
L24.6821 -51.3106
L25.0538 -51.4992
L25.4232 -51.6809
L25.7901 -51.8559
L26.1545 -52.0242
L26.5165 -52.1862
L26.8758 -52.3419
L27.2326 -52.4915
L27.5867 -52.6353
L27.9382 -52.7734
L28.2871 -52.9059
L28.6334 -53.0331
L28.977 -53.155
L29.3181 -53.2719
L29.6565 -53.3838
L29.9925 -53.4909
L30.3259 -53.5934
L30.6568 -53.6914
L30.9852 -53.785
L31.3112 -53.8744
L31.6349 -53.9596
L31.9563 -54.0407
L32.2754 -54.118
L32.5923 -54.1915
L32.907 -54.2612
L33.2196 -54.3274
L33.5302 -54.39
L33.8388 -54.4492
L34.1455 -54.505
L34.4503 -54.5576
L34.7533 -54.607
L35.0546 -54.6533
L35.3543 -54.6966
L35.6523 -54.7368
L35.9488 -54.7742
L36.2438 -54.8086
L36.5374 -54.8403
L36.8297 -54.8692
L37.1207 -54.8954
L37.4105 -54.9189
L37.6991 -54.9398
L37.9867 -54.9581
L38.2733 -54.9738
L38.559 -54.987
L38.8438 -54.9977
L39.1278 -55.0059
L39.411 -55.0116
L39.6936 -55.0149
L39.9756 -55.0158
L40.2571 -55.0143
L40.5381 -55.0103
L40.8186 -55.004
L41.0989 -54.9953
L41.3789 -54.9842
L41.6587 -54.9706
L41.9383 -54.9547
L42.2179 -54.9364
L42.4974 -54.9156
L42.777 -54.8924
L43.0568 -54.8668
L43.3367 -54.8386
L43.6169 -54.808
L43.8973 -54.7749
L44.1782 -54.7392
L44.4595 -54.7009
L44.7413 -54.66
L45.0236 -54.6164
L45.3066 -54.5701
L45.5903 -54.5211
L45.8747 -54.4693
L46.1599 -54.4146
L46.446 -54.357
L46.733 -54.2965
L47.021 -54.2329
L47.31 -54.1662
L47.6001 -54.0963
L47.8913 -54.0232
L48.1838 -53.9467
L48.4775 -53.8669
L48.7725 -53.7835
L49.0688 -53.6965
L49.3665 -53.6058
L49.6657 -53.5113
L49.9664 -53.4129
L50.2686 -53.3105
L50.5723 -53.2038
L50.8776 -53.093
L51.1846 -52.9777
L51.4932 -52.8578
L51.8035 -52.7333
L52.1154 -52.6039
L52.4291 -52.4696
L52.7445 -52.33
L53.0616 -52.1852
L53.3805 -52.0348
L53.701 -51.8788
L54.0233 -51.7168
L54.3472 -51.5488
L54.6728 -51.3746
L55 -51.1938
L55.3287 -51.0064
L55.6589 -50.812
L55.9905 -50.6105
L56.3235 -50.4016
L56.6578 -50.185
L56.9931 -49.9606
L57.3295 -49.7281
L57.6668 -49.4871
L58.0048 -49.2375
L58.3433 -48.9789
L58.6822 -48.7112
L59.0213 -48.4339
L59.3603 -48.1469
L59.6989 -47.8498
L60.037 -47.5424
L60.3742 -47.2243
L60.7102 -46.8953
L61.0447 -46.5552
L61.3772 -46.2035
L61.7075 -45.8402
L62.0351 -45.4648
L62.3594 -45.0771
L62.6802 -44.677
L62.9968 -44.2641
L63.3088 -43.8382
L63.6156 -43.3992
L63.756 -42.9469
L63.8647 -42.4693
L63.9649 -41.9839
L64.0566 -41.4967
L64.1397 -41.0078
L64.2143 -40.5174
L64.2802 -40.0256
L64.3376 -39.5326
L64.3863 -39.0385
L64.4263 -38.5434
L64.4578 -38.0476
L64.4805 -37.5512
L64.4946 -37.0543
L64.4999 -36.5571
L64.4966 -36.0597
L64.4847 -35.5623
L64.464 -35.0651
L64.4347 -34.5681
L64.3967 -34.0715
L64.3501 -33.5756
L64.2948 -33.0804
L64.2309 -32.586
L64.1584 -32.0927
L64.0773 -31.6006
L63.9877 -31.1099
L63.8896 -30.6206
L63.7829 -30.133
L63.6678 -29.6471
L63.5443 -29.1632
L63.4124 -28.6814
z
" id="C0_1_c52972c0f5"/>
     <path d="
M8.39407 -29.5911
L8.46287 -30.1419
L8.54425 -30.6933
L8.63825 -31.2449
L8.74488 -31.7963
L8.86413 -32.3472
L8.99594 -32.8969
L9.14023 -33.4451
L9.29687 -33.9914
L9.46566 -34.5351
L9.64635 -35.0758
L9.83858 -35.6131
L10.0418 -36.1464
L10.2553 -36.6751
L10.4777 -37.1985
L10.7063 -37.7156
L10.9344 -38.2248
L11.1401 -38.7211
L11.2405 -39.1873
L11.1321 -39.6057
L10.9162 -40.0025
L10.6752 -40.3962
L10.4309 -40.7913
L10.19 -41.1889
L9.95522 -41.5895
L9.72785 -41.9929
L9.5087 -42.3991
L9.29831 -42.8079
L9.09707 -43.2191
L8.90527 -43.6326
L8.52842 -44.0481
L8.40019 -43.587
L8.28037 -43.1064
L8.169 -42.6236
L8.0661 -42.1388
L7.97171 -41.6522
L7.88586 -41.1638
L7.80857 -40.6739
L7.73987 -40.1825
L7.67978 -39.6898
L7.62831 -39.1961
L7.58549 -38.7013
L7.55132 -38.2058
L7.52582 -37.7095
L7.50899 -37.2128
L7.50084 -36.7156
L7.50137 -36.2183
L7.51058 -35.7209
L7.52847 -35.2236
L7.55503 -34.7265
L7.59026 -34.2298
L7.63414 -33.7336
L7.68666 -33.2381
L7.74781 -32.7435
L7.81756 -32.2499
L7.8959 -31.7574
L7.98279 -31.2661
L8.07823 -30.7764
z
" id="C0_2_1308f1ac49"/>
    </defs>
    <g clip-path="url(#p1bffca34e9)">
     <use style="fill:#ff0000;stroke:#000000;stroke-width:2.0;" x="0.0" xlink:href="#C0_0_a811fe30f3" y="72.0"/>
    </g>
    <g clip-path="url(#p1bffca34e9)">
     <use style="fill:#ffffff;stroke:#000000;stroke-width:2.0;" x="0.0" xlink:href="#C0_1_c52972c0f5" y="72.0"/>
    </g>
    <g clip-path="url(#p1bffca34e9)">
     <use style="fill:#ffffff;stroke:#000000;stroke-width:2.0;" x="0.0" xlink:href="#C0_2_1308f1ac49" y="72.0"/>
    </g>
   </g>
  </g>
 </g>
 <defs>
  <clipPath id="p1bffca34e9">
   <rect height="72.0" width="72.0" x="0.0" y="0.0"/>
  </clipPath>
 </defs>
</svg>
