<?xml version="1.0" encoding="utf-8" standalone="no"?>
<!DOCTYPE svg PUBLIC "-//W3C//DTD SVG 1.1//EN"
  "http://www.w3.org/Graphics/SVG/1.1/DTD/svg11.dtd">
<!-- Created with matplotlib (http://matplotlib.org/) -->
<svg height="72pt" version="1.1" viewBox="0 0 72 72" width="72pt" xmlns="http://www.w3.org/2000/svg" xmlns:xlink="http://www.w3.org/1999/xlink">
 <defs>
  <style type="text/css">
*{stroke-linecap:butt;stroke-linejoin:round;}
  </style>
 </defs>
 <g id="figure_1">
  <g id="patch_1">
   <path d="
M0 72
L72 72
L72 0
L0 0
z
" style="fill:none;"/>
  </g>
  <g id="axes_1">
   <g id="PatchCollection_1">
    <defs>
     <path d="
M36 -7.5
C43.5583 -7.5 50.808 -10.5029 56.1525 -15.8475
C61.4971 -21.192 64.5 -28.4417 64.5 -36
C64.5 -43.5583 61.4971 -50.808 56.1525 -56.1525
C50.808 -61.4971 43.5583 -64.5 36 -64.5
C28.4417 -64.5 21.192 -61.4971 15.8475 -56.1525
C10.5029 -50.808 7.5 -43.5583 7.5 -36
C7.5 -28.4417 10.5029 -21.192 15.8475 -15.8475
C21.192 -10.5029 28.4417 -7.5 36 -7.5
z
" id="C0_0_a811fe30f3"/>
     <path d="
M8.05045 -30.9274
L8.26264 -30.8066
L8.47522 -30.6897
L8.68817 -30.5768
L8.90146 -30.4675
L9.11507 -30.3618
L9.32899 -30.2596
L9.54321 -30.1608
L9.75772 -30.0652
L9.97252 -29.9727
L10.1876 -29.8833
L10.403 -29.7969
L10.6186 -29.7133
L10.8346 -29.6325
L11.0509 -29.5543
L11.2675 -29.4788
L11.4844 -29.4059
L11.7017 -29.3354
L11.9193 -29.2673
L12.1373 -29.2016
L12.3557 -29.1381
L12.5746 -29.0769
L12.7939 -29.0178
L13.0137 -28.9609
L13.234 -28.9061
L13.4548 -28.8533
L13.6762 -28.8024
L13.8982 -28.7536
L14.1208 -28.7066
L14.344 -28.6616
L14.568 -28.6183
L15.018 -28.5769
L15.2443 -28.5373
L15.4713 -28.4995
L15.6992 -28.4634
L15.928 -28.429
L16.1578 -28.3964
L16.3885 -28.3654
L16.6203 -28.3361
L16.8531 -28.3084
L17.087 -28.2825
L17.3221 -28.2581
L17.5584 -28.2354
L17.7959 -28.2143
L18.0347 -28.1948
L18.2748 -28.177
L18.5162 -28.1607
L18.7591 -28.1461
L19.0034 -28.1332
L19.2492 -28.1218
L19.4965 -28.1121
L19.7454 -28.1041
L19.996 -28.0977
L20.2482 -28.093
L20.5021 -28.09
L20.7578 -28.0887
L21.0152 -28.0891
L21.2745 -28.0913
L21.5357 -28.0952
L21.7988 -28.101
L22.0638 -28.1085
L22.3309 -28.1179
L22.5999 -28.1292
L22.871 -28.1424
L23.1442 -28.1575
L23.4196 -28.1747
L23.697 -28.1938
L23.9767 -28.215
L24.2585 -28.2383
L24.5426 -28.2638
L24.8289 -28.2915
L25.1175 -28.3215
L25.4083 -28.3537
L25.7013 -28.3883
L25.9966 -28.4254
L26.2942 -28.4649
L26.594 -28.507
L26.896 -28.5516
L27.2003 -28.599
L27.5066 -28.6492
L27.8152 -28.7021
L28.1257 -28.758
L28.4383 -28.8169
L28.7529 -28.8788
L29.0693 -28.9439
L29.3875 -29.0123
L29.7073 -29.0841
L30.0288 -29.1592
L30.3516 -29.238
L30.6758 -29.3204
L31.001 -29.4066
L31.3273 -29.4967
L31.6543 -29.5907
L31.9818 -29.689
L32.3096 -29.7914
L32.6375 -29.8983
L32.9652 -30.0097
L33.2924 -30.1258
L33.6188 -30.2467
L33.944 -30.3725
L34.2677 -30.5035
L34.5894 -30.6398
L34.9088 -30.7815
L35.2254 -30.9289
L35.5387 -31.082
L35.8483 -31.2412
L36.1537 -31.4064
L36.4543 -31.5781
L36.7495 -31.7562
L37.0388 -31.941
L37.3217 -32.1326
L37.5975 -32.3313
L37.8657 -32.5372
L38.1257 -32.7503
L38.3769 -32.9709
L38.6189 -33.199
L38.851 -33.4347
L39.0729 -33.6781
L39.2842 -33.9291
L39.4843 -34.1877
L39.6731 -34.4539
L39.8503 -34.7275
L40.0157 -35.0084
L40.1693 -35.2964
L40.3108 -35.5913
L40.4405 -35.8927
L40.5584 -36.2004
L40.6646 -36.5139
L40.7594 -36.833
L40.8429 -37.1571
L40.9156 -37.4859
L40.9776 -37.8189
L41.0295 -38.1557
L41.0715 -38.4958
L41.104 -38.8387
L41.1275 -39.1841
L41.1423 -39.5314
L41.1489 -39.8802
L41.1476 -40.2301
L41.1388 -40.5808
L41.123 -40.9318
L41.1004 -41.2828
L41.0714 -41.6334
L41.0365 -41.9834
L40.9958 -42.3323
L40.9497 -42.6801
L40.8985 -43.0263
L40.8426 -43.3708
L40.7821 -43.7134
L40.7173 -44.0538
L40.6484 -44.3919
L40.5758 -44.7275
L40.4996 -45.0604
L40.42 -45.3906
L40.3371 -45.718
L40.2513 -46.0423
L40.1626 -46.3636
L40.0713 -46.6817
L39.9773 -46.9966
L39.881 -47.3083
L39.7824 -47.6166
L39.6817 -47.9216
L39.579 -48.2233
L39.4743 -48.5215
L39.3678 -48.8164
L39.2595 -49.1079
L39.1497 -49.3959
L39.0382 -49.6806
L38.9253 -49.9619
L38.8109 -50.2398
L38.6952 -50.5144
L38.5782 -50.7857
L38.46 -51.0537
L38.3405 -51.3184
L38.2199 -51.5799
L38.0982 -51.8383
L37.9754 -52.0935
L37.8516 -52.3455
L37.7267 -52.5946
L37.6009 -52.8405
L37.4741 -53.0836
L37.3463 -53.3237
L37.2176 -53.5609
L37.088 -53.7952
L36.9575 -54.0268
L36.8261 -54.2556
L36.6937 -54.4817
L36.5605 -54.7052
L36.4264 -54.9261
L36.2914 -55.1444
L36.1555 -55.3601
L36.0187 -55.5734
L35.881 -55.7843
L35.7423 -55.9928
L35.6027 -56.199
L35.4622 -56.4028
L35.3207 -56.6044
L35.1782 -56.8038
L35.0347 -57.001
L34.8902 -57.196
L34.7446 -57.3889
L34.5979 -57.5798
L34.4502 -57.7686
L34.3013 -57.9554
L34.1512 -58.1402
L34 -58.3231
L33.8476 -58.504
L33.6938 -58.6831
L33.5388 -58.8602
L33.3825 -59.0356
L33.2247 -59.2091
L33.0656 -59.3807
L32.905 -59.5506
L32.7429 -59.7187
L32.5792 -59.8851
L32.414 -60.0496
L32.2471 -60.2125
L32.0784 -60.3736
L31.9081 -60.5329
L31.7359 -60.6905
L31.5618 -60.8464
L31.3858 -61.0005
L31.2078 -61.1529
L31.0277 -61.3035
L30.8455 -61.4523
L30.6611 -61.5993
L30.4744 -61.7446
L30.2854 -61.888
L30.0939 -62.0295
L29.9 -62.1692
L29.7034 -62.3069
L29.5042 -62.4426
L29.3022 -62.5764
L29.0974 -62.7081
L28.8897 -62.8377
L28.6789 -62.9651
L28.4649 -63.0903
L28.2477 -63.2132
L27.7463 -63.3337
L27.2715 -63.2787
L26.7993 -63.1305
L26.33 -62.974
L25.8636 -62.8093
L25.4002 -62.6365
L24.9401 -62.4555
L24.4834 -62.2665
L24.0302 -62.0695
L23.5806 -61.8645
L23.1348 -61.6517
L22.6929 -61.431
L22.2551 -61.2026
L21.8215 -60.9665
L21.3922 -60.7229
L20.9673 -60.4716
L20.547 -60.213
L20.1314 -59.9469
L19.7207 -59.6736
L19.3149 -59.393
L18.9142 -59.1054
L18.5187 -58.8107
L18.1285 -58.509
L17.7438 -58.2005
L17.3646 -57.8852
L16.9911 -57.5632
L16.6234 -57.2347
L16.2616 -56.8997
L15.9059 -56.5584
L15.5562 -56.2108
L15.2128 -55.857
L14.8756 -55.4972
L14.545 -55.1314
L14.2208 -54.7598
L13.9033 -54.3825
L13.5926 -53.9996
L13.2886 -53.6113
L12.9916 -53.2175
L12.7016 -52.8185
L12.4186 -52.4144
L12.1429 -52.0053
L11.8744 -51.5913
L11.6133 -51.1726
L11.3596 -50.7492
L11.1134 -50.3214
L10.8748 -49.8891
L10.6439 -49.4527
L10.4206 -49.0122
L10.2052 -48.5677
L9.99761 -48.1193
L9.79795 -47.6673
L9.60627 -47.2117
L9.42262 -46.7527
L9.24708 -46.2904
L9.07968 -45.825
L8.92049 -45.3566
L8.76954 -44.8854
L8.62689 -44.4114
L8.49257 -43.9349
L8.36664 -43.456
L8.24912 -42.9748
L8.14006 -42.4914
L8.03948 -42.0061
L7.94742 -41.519
L7.8639 -41.0302
L7.78896 -40.5398
L7.7226 -40.0481
L7.66487 -39.5551
L7.61576 -39.0611
L7.5753 -38.5661
L7.54349 -38.0703
L7.52036 -37.5739
L7.5059 -37.0771
L7.50012 -36.5799
L7.50302 -36.0825
L7.5146 -35.5851
L7.53486 -35.0878
L7.56379 -34.5908
L7.60138 -34.0942
L7.64762 -33.5982
L7.7025 -33.103
L7.766 -32.6086
L7.8381 -32.1153
z
" id="C0_1_5f717ca490"/>
     <path d="
M43.9247 -8.7138
L44.0479 -8.93355
L44.1699 -9.15606
L44.2907 -9.38138
L44.4104 -9.60956
L44.529 -9.84064
L44.6464 -10.0747
L44.7628 -10.3117
L44.8782 -10.5518
L44.9925 -10.795
L45.1058 -11.0413
L45.218 -11.2908
L45.3293 -11.5435
L45.4397 -11.7995
L45.549 -12.0588
L45.6575 -12.3214
L45.765 -12.5875
L45.8716 -12.8569
L45.9773 -13.1297
L46.0822 -13.406
L46.1862 -13.6858
L46.2895 -13.9691
L46.3919 -14.2559
L46.4936 -14.5462
L46.5945 -14.84
L46.6948 -15.1373
L46.7944 -15.4381
L46.8934 -15.7424
L46.9919 -16.0501
L47.0898 -16.3612
L47.1873 -16.6757
L47.2844 -16.9934
L47.3812 -17.3144
L47.4778 -17.6385
L47.5742 -17.9656
L47.6706 -18.2957
L47.7671 -18.6286
L47.8638 -18.9642
L47.9609 -19.3023
L48.0584 -19.6428
L48.1567 -19.9855
L48.2558 -20.3301
L48.3559 -20.6766
L48.4573 -21.0245
L48.5602 -21.3738
L48.6649 -21.724
L48.7716 -22.075
L48.8806 -22.4264
L48.9922 -22.7779
L49.1067 -23.1292
L49.2246 -23.48
L49.346 -23.8299
L49.4714 -24.1785
L49.6011 -24.5254
L49.7355 -24.8704
L49.8749 -25.2131
L50.0196 -25.5531
L50.17 -25.8901
L50.3262 -26.2238
L50.4887 -26.5539
L50.6575 -26.8802
L50.8329 -27.2023
L51.0149 -27.5202
L51.2035 -27.8337
L51.3988 -28.1426
L51.6007 -28.4469
L51.8091 -28.7466
L52.0237 -29.0416
L52.2443 -29.332
L52.4705 -29.6179
L52.7022 -29.8993
L52.9388 -30.1764
L53.1799 -30.4492
L53.4252 -30.718
L53.6741 -30.983
L53.9263 -31.2441
L54.1812 -31.5018
L54.4385 -31.756
L54.6975 -32.007
L54.958 -32.2549
L55.2195 -32.4999
L55.4816 -32.7422
L55.7439 -32.9818
L56.006 -33.2189
L56.2677 -33.4537
L56.5285 -33.6861
L56.7882 -33.9165
L57.0466 -34.1448
L57.3033 -34.3711
L57.5581 -34.5955
L57.8109 -34.8181
L58.0614 -35.0391
L58.3095 -35.2583
L58.555 -35.476
L58.7977 -35.6921
L59.0377 -35.9067
L59.2746 -36.1199
L59.5086 -36.3318
L59.7394 -36.5423
L59.967 -36.7515
L60.1914 -36.9594
L60.4125 -37.1662
L60.6303 -37.3717
L60.8447 -37.5762
L61.0557 -37.7796
L61.2634 -37.9819
L61.4677 -38.1832
L61.6686 -38.3835
L61.8661 -38.5828
L62.0602 -38.7813
L62.251 -38.9789
L62.4384 -39.1757
L62.6225 -39.3717
L62.8032 -39.5669
L62.9807 -39.7614
L63.155 -39.9552
L63.326 -40.1484
L63.4939 -40.341
L63.6585 -40.533
L63.8201 -40.7245
L64.1519 -40.9155
L64.2251 -40.4409
L64.2897 -39.9489
L64.3457 -39.4557
L64.3931 -38.9615
L64.4318 -38.4663
L64.4619 -37.9704
L64.4833 -37.4739
L64.496 -36.9769
L64.5 -36.4797
L64.4953 -35.9823
L64.482 -35.4849
L64.46 -34.9877
L64.4293 -34.4907
L64.39 -33.9943
L64.342 -33.4984
L64.2854 -33.0033
L64.2202 -32.5092
L64.1463 -32.016
L64.0639 -31.5241
L63.973 -31.0336
L63.8735 -30.5446
L63.7656 -30.0572
L63.6491 -29.5716
L63.5243 -29.0881
L63.3911 -28.6066
L63.2495 -28.1273
L63.0996 -27.6505
L62.9415 -27.1762
L62.7752 -26.7046
L62.6007 -26.2358
L62.4181 -25.77
L62.2275 -25.3073
L62.0288 -24.8479
L61.8223 -24.3918
L61.6079 -23.9393
L61.3856 -23.4905
L61.1557 -23.0455
L60.9181 -22.6044
L60.6729 -22.1674
L60.4201 -21.7347
L60.16 -21.3062
L59.8925 -20.8823
L59.6177 -20.4629
L59.3357 -20.0483
L59.0466 -19.6386
L58.7505 -19.2338
L58.4474 -18.8341
L58.1375 -18.4397
L57.8209 -18.0506
L57.4976 -17.667
L57.1678 -17.289
L56.8315 -16.9166
L56.4889 -16.5501
L56.14 -16.1895
L55.785 -15.8349
L55.424 -15.4865
L55.0571 -15.1444
L54.6843 -14.8085
L54.3059 -14.4792
L53.9219 -14.1564
L53.5324 -13.8402
L53.1376 -13.5308
L52.7376 -13.2282
L52.3324 -12.9326
L51.9223 -12.644
L51.5074 -12.3625
L51.0877 -12.0883
L50.6634 -11.8213
L50.2347 -11.5616
L49.8016 -11.3094
L49.3643 -11.0648
L48.923 -10.8277
L48.4777 -10.5983
L48.0286 -10.3766
L47.5758 -10.1628
L47.1195 -9.95676
L46.6599 -9.7587
L46.197 -9.56863
L45.7309 -9.38662
L45.262 -9.21271
L44.7901 -9.04696
z
" id="C0_2_3f2b19f8d2"/>
    </defs>
    <g clip-path="url(#p1bffca34e9)">
     <use style="fill:#ffffff;stroke:#000000;stroke-width:2.0;" x="0.0" xlink:href="#C0_0_a811fe30f3" y="72.0"/>
    </g>
    <g clip-path="url(#p1bffca34e9)">
     <use style="fill:#ff0000;stroke:#000000;stroke-width:2.0;" x="0.0" xlink:href="#C0_1_5f717ca490" y="72.0"/>
    </g>
    <g clip-path="url(#p1bffca34e9)">
     <use style="fill:#ff0000;stroke:#000000;stroke-width:2.0;" x="0.0" xlink:href="#C0_2_3f2b19f8d2" y="72.0"/>
    </g>
   </g>
  </g>
 </g>
 <defs>
  <clipPath id="p1bffca34e9">
   <rect height="72.0" width="72.0" x="0.0" y="0.0"/>
  </clipPath>
 </defs>
</svg>
