<?xml version="1.0" encoding="utf-8" standalone="no"?>
<!DOCTYPE svg PUBLIC "-//W3C//DTD SVG 1.1//EN"
  "http://www.w3.org/Graphics/SVG/1.1/DTD/svg11.dtd">
<!-- Created with matplotlib (http://matplotlib.org/) -->
<svg height="72pt" version="1.1" viewBox="0 0 72 72" width="72pt" xmlns="http://www.w3.org/2000/svg" xmlns:xlink="http://www.w3.org/1999/xlink">
 <defs>
  <style type="text/css">
*{stroke-linecap:butt;stroke-linejoin:round;}
  </style>
 </defs>
 <g id="figure_1">
  <g id="patch_1">
   <path d="
M0 72
L72 72
L72 0
L0 0
z
" style="fill:none;"/>
  </g>
  <g id="axes_1">
   <g id="PatchCollection_1">
    <defs>
     <path d="
M36 -7.5
C43.5583 -7.5 50.808 -10.5029 56.1525 -15.8475
C61.4971 -21.192 64.5 -28.4417 64.5 -36
C64.5 -43.5583 61.4971 -50.808 56.1525 -56.1525
C50.808 -61.4971 43.5583 -64.5 36 -64.5
C28.4417 -64.5 21.192 -61.4971 15.8475 -56.1525
C10.5029 -50.808 7.5 -43.5583 7.5 -36
C7.5 -28.4417 10.5029 -21.192 15.8475 -15.8475
C21.192 -10.5029 28.4417 -7.5 36 -7.5
z
" id="C0_0_a811fe30f3"/>
     <path d="
M61.8 -47.8622
L61.5707 -47.8572
L61.3392 -47.8546
L61.1058 -47.8541
L60.8706 -47.8556
L60.6335 -47.8588
L60.3948 -47.8638
L60.1546 -47.8703
L59.9128 -47.8782
L59.6696 -47.8874
L59.4251 -47.8978
L59.1793 -47.9092
L58.9323 -47.9215
L58.6841 -47.9347
L58.4349 -47.9487
L58.1847 -47.9634
L57.9336 -47.9786
L57.6815 -47.9944
L57.4286 -48.0106
L57.1749 -48.0272
L56.9204 -48.0441
L56.6652 -48.0613
L56.4093 -48.0787
L56.1527 -48.0963
L55.8956 -48.1139
L55.6378 -48.1316
L55.3794 -48.1494
L55.1206 -48.1671
L54.8612 -48.1848
L54.6013 -48.2023
L54.3409 -48.2198
L54.08 -48.2371
L53.8187 -48.2543
L53.557 -48.2712
L53.2948 -48.2879
L53.0322 -48.3044
L52.7692 -48.3207
L52.5058 -48.3366
L52.242 -48.3522
L51.9778 -48.3676
L51.7132 -48.3826
L51.4481 -48.3973
L51.1827 -48.4116
L50.9169 -48.4255
L50.6506 -48.4391
L50.384 -48.4523
L50.1169 -48.4651
L49.8493 -48.4775
L49.5814 -48.4895
L49.313 -48.5011
L49.0441 -48.5123
L48.7748 -48.5231
L48.505 -48.5334
L48.2347 -48.5433
L47.9639 -48.5528
L47.6926 -48.5618
L47.4208 -48.5704
L46.8755 -48.5786
L46.602 -48.5863
L46.3279 -48.5936
L46.0532 -48.6004
L45.7779 -48.6068
L45.502 -48.6127
L45.2254 -48.6182
L44.9481 -48.6233
L44.6702 -48.6279
L44.3916 -48.6321
L44.1123 -48.6358
L43.8322 -48.6391
L43.5514 -48.642
L43.2699 -48.6444
L42.9876 -48.6464
L42.7045 -48.648
L42.4206 -48.6492
L42.1359 -48.65
L41.8503 -48.6504
L41.564 -48.6503
L41.2768 -48.6499
L40.9887 -48.6491
L40.6997 -48.6479
L40.4099 -48.6464
L40.1192 -48.6444
L39.8276 -48.6422
L39.5351 -48.6396
L39.2418 -48.6367
L38.9475 -48.6335
L38.6523 -48.6299
L38.3561 -48.6261
L38.0591 -48.6221
L37.7612 -48.6177
L37.4624 -48.6132
L37.1626 -48.6084
L36.862 -48.6035
L36.5605 -48.5984
L36.2582 -48.5931
L35.955 -48.5878
L35.6509 -48.5823
L35.346 -48.5768
L35.0404 -48.5713
L34.7339 -48.5658
L34.4267 -48.5603
L34.1188 -48.5549
L33.8102 -48.5496
L33.5009 -48.5446
L33.191 -48.5397
L32.8806 -48.535
L32.5695 -48.5307
L32.258 -48.5268
L31.9461 -48.5232
L31.6337 -48.5202
L31.321 -48.5177
L31.0081 -48.5158
L30.6949 -48.5146
L30.3816 -48.5141
L30.0681 -48.5144
L29.7547 -48.5157
L29.4414 -48.5179
L29.1281 -48.5212
L28.8152 -48.5257
L28.5025 -48.5314
L28.1902 -48.5384
L27.8785 -48.5469
L27.5673 -48.5569
L27.2568 -48.5686
L26.9472 -48.582
L26.6384 -48.5973
L26.3306 -48.6145
L26.024 -48.6338
L25.7186 -48.6553
L25.4146 -48.6792
L25.112 -48.7054
L24.8111 -48.7342
L24.5118 -48.7657
L24.2144 -48.7999
L23.919 -48.837
L23.6257 -48.8772
L23.3346 -48.9204
L23.0458 -48.9669
L22.7595 -49.0168
L22.4758 -49.07
L22.1949 -49.1269
L21.9168 -49.1873
L21.6418 -49.2515
L21.3698 -49.3195
L21.1011 -49.3915
L20.8357 -49.4674
L20.5739 -49.5473
L20.3156 -49.6313
L20.0611 -49.7195
L19.8104 -49.8119
L19.5637 -49.9085
L19.3211 -50.0094
L19.0826 -50.1145
L18.8483 -50.224
L18.6185 -50.3377
L18.3931 -50.4558
L18.1723 -50.5781
L17.9562 -50.7047
L17.7448 -50.8356
L17.5382 -50.9706
L17.3365 -51.1099
L17.1398 -51.2532
L16.9482 -51.4007
L16.7617 -51.5521
L16.5804 -51.7076
L16.4043 -51.8669
L16.2336 -52.0301
L16.0682 -52.197
L15.9083 -52.3676
L15.7538 -52.5418
L15.6049 -52.7195
L15.4615 -52.9007
L15.3238 -53.0852
L15.1917 -53.273
L15.0654 -53.464
L14.9448 -53.6581
L14.8299 -53.8553
L14.7209 -54.0554
L14.6178 -54.2583
L14.5205 -54.4641
L14.8207 -54.6725
L15.1568 -55.0706
L15.4992 -55.4373
L15.8478 -55.7981
L16.2026 -56.1529
L16.5634 -56.5015
L16.9301 -56.8439
L17.3027 -57.18
L17.6809 -57.5095
L18.0647 -57.8326
L18.454 -58.149
L18.8487 -58.4586
L19.2485 -58.7614
L19.6535 -59.0573
L20.0634 -59.3461
L20.4782 -59.6278
L20.8977 -59.9024
L21.3218 -60.1696
L21.7504 -60.4295
L22.1834 -60.682
L22.6205 -60.9269
L23.0617 -61.1642
L23.5069 -61.3939
L23.9558 -61.6158
L24.4084 -61.83
L24.8646 -62.0362
L25.3242 -62.2346
L25.787 -62.4249
L26.2529 -62.6072
L26.7218 -62.7814
L27.1935 -62.9474
L27.6679 -63.1053
L28.1448 -63.2548
L28.6241 -63.3961
L29.1057 -63.529
L29.5894 -63.6535
L30.075 -63.7697
L30.5624 -63.8773
L31.0515 -63.9765
L31.5421 -64.0671
L32.034 -64.1492
L32.5272 -64.2227
L33.0214 -64.2876
L33.5165 -64.3439
L34.0124 -64.3916
L34.5089 -64.4306
L35.0058 -64.461
L35.5031 -64.4827
L36.0005 -64.4957
L36.4979 -64.5
L36.9951 -64.4957
L37.4921 -64.4826
L37.9885 -64.4609
L38.4844 -64.4305
L38.9795 -64.3915
L39.4738 -64.3438
L39.9669 -64.2875
L40.4589 -64.2226
L40.9495 -64.149
L41.4385 -64.0669
L41.926 -63.9763
L42.4116 -63.8771
L42.8952 -63.7694
L43.3768 -63.6533
L43.8561 -63.5288
L44.3331 -63.3958
L44.8074 -63.2545
L45.2792 -63.105
L45.748 -62.9471
L46.2139 -62.7811
L46.6767 -62.6069
L47.1363 -62.4246
L47.5924 -62.2342
L48.0451 -62.0358
L48.494 -61.8296
L48.9392 -61.6154
L49.3804 -61.3935
L49.8175 -61.1638
L50.2504 -60.9264
L50.679 -60.6815
L51.1031 -60.429
L51.5226 -60.1691
L51.9374 -59.9018
L52.3473 -59.6273
L52.7523 -59.3456
L53.1521 -59.0567
L53.5467 -58.7608
L53.936 -58.458
L54.3198 -58.1484
L54.698 -57.832
L55.0706 -57.5089
L55.4373 -57.1793
L55.7981 -56.8432
L56.1529 -56.5008
L56.5015 -56.1522
L56.8439 -55.7974
L57.18 -55.4366
L57.5095 -55.0699
L57.8326 -54.6973
L58.149 -54.3191
L58.4586 -53.9353
L58.7614 -53.546
L59.0573 -53.1513
L59.3461 -52.7515
L59.6278 -52.3465
L59.9024 -51.9366
L60.1696 -51.5218
L60.4295 -51.1023
L60.682 -50.6782
L60.9269 -50.2496
L61.1642 -49.8166
L61.3939 -49.3795
L61.6158 -48.9383
z
" id="C0_1_9855a53b8f"/>
     <path d="
M57.3163 -17.3393
L57.0918 -17.4005
L56.8649 -17.4604
L56.6357 -17.519
L56.4044 -17.5765
L56.171 -17.6329
L55.9357 -17.6884
L55.6987 -17.743
L55.46 -17.797
L55.2197 -17.8502
L54.978 -17.9029
L54.7349 -17.9551
L54.4905 -18.007
L54.2449 -18.0584
L53.9982 -18.1096
L53.7504 -18.1606
L53.5017 -18.2115
L53.2521 -18.2622
L53.0016 -18.3129
L52.7503 -18.3636
L52.4983 -18.4143
L52.2456 -18.4651
L51.9923 -18.5161
L51.7384 -18.5672
L51.4839 -18.6184
L51.2289 -18.6699
L50.9734 -18.7217
L50.7175 -18.7737
L50.4611 -18.826
L50.2044 -18.8787
L49.9472 -18.9317
L49.6897 -18.9851
L49.4319 -19.0388
L49.1737 -19.093
L48.9152 -19.1476
L48.6564 -19.2026
L48.3973 -19.2581
L48.138 -19.3141
L47.8783 -19.3705
L47.6184 -19.4274
L47.3583 -19.4849
L47.0978 -19.5428
L46.8371 -19.6013
L46.5761 -19.6603
L46.3149 -19.7199
L46.0533 -19.78
L45.7915 -19.8407
L45.5294 -19.902
L45.267 -19.9639
L45.0043 -20.0263
L44.7413 -20.0893
L44.478 -20.153
L44.2143 -20.2172
L43.9503 -20.2821
L43.6859 -20.3476
L43.4212 -20.4137
L43.1561 -20.4804
L42.8906 -20.5478
L42.6247 -20.6158
L42.3583 -20.6845
L42.0916 -20.7538
L41.8244 -20.8238
L41.5567 -20.8944
L41.2885 -20.9657
L41.0198 -21.0377
L40.7507 -21.1103
L40.4809 -21.1836
L40.2107 -21.2576
L39.9399 -21.3322
L39.6685 -21.4076
L39.3965 -21.4836
L39.1239 -21.5602
L38.8507 -21.6376
L38.5769 -21.7156
L38.3024 -21.7943
L38.0272 -21.8736
L37.7514 -21.9537
L37.4748 -22.0344
L37.1976 -22.1157
L36.9197 -22.1977
L36.641 -22.2803
L36.3616 -22.3636
L36.0814 -22.4475
L35.8005 -22.5321
L35.5188 -22.6172
L35.2363 -22.703
L34.9531 -22.7893
L34.6691 -22.8762
L34.3843 -22.9636
L34.0987 -23.0516
L33.8123 -23.1401
L33.5251 -23.2291
L33.2371 -23.3186
L32.9484 -23.4085
L32.6588 -23.4988
L32.3685 -23.5895
L32.0774 -23.6806
L31.7855 -23.772
L31.4928 -23.8636
L31.1995 -23.9555
L30.9053 -24.0476
L30.6105 -24.1399
L30.315 -24.2322
L30.0188 -24.3246
L29.7219 -24.417
L29.4244 -24.5094
L29.1263 -24.6016
L28.8277 -24.6936
L28.5284 -24.7854
L28.2287 -24.8768
L27.9285 -24.9678
L27.6278 -25.0583
L27.3267 -25.1483
L27.0253 -25.2375
L26.7235 -25.326
L26.4215 -25.4137
L26.1192 -25.5004
L25.8168 -25.586
L25.5143 -25.6704
L25.2117 -25.7535
L24.909 -25.8352
L24.6065 -25.9154
L24.304 -25.9939
L24.0018 -26.0707
L23.6998 -26.1455
L23.3981 -26.2182
L23.0968 -26.2888
L22.796 -26.357
L22.4957 -26.4227
L22.1961 -26.4858
L21.8971 -26.5461
L21.5989 -26.6035
L21.3016 -26.6579
L21.0053 -26.709
L20.71 -26.7568
L20.4158 -26.8011
L20.1229 -26.8417
L19.8312 -26.8786
L19.541 -26.9115
L19.2523 -26.9404
L18.9651 -26.965
L18.6797 -26.9854
L18.396 -27.0014
L18.1142 -27.0128
L17.8344 -27.0196
L17.5567 -27.0216
L17.2811 -27.0188
L17.0078 -27.011
L16.7369 -26.9983
L16.4685 -26.9804
L16.2026 -26.9575
L15.9394 -26.9294
L15.679 -26.896
L15.4214 -26.8574
L15.1668 -26.8134
L14.9152 -26.7642
L14.6668 -26.7097
L14.4216 -26.6498
L14.1797 -26.5846
L13.9413 -26.5141
L13.7063 -26.4383
L13.475 -26.3572
L13.2473 -26.2709
L13.0234 -26.1794
L12.8033 -26.0827
L12.5871 -25.9809
L12.375 -25.8741
L12.1669 -25.7622
L11.9629 -25.6454
L11.7632 -25.5237
L11.5677 -25.3972
L11.3766 -25.2659
L11.1899 -25.1298
L11.0077 -24.9892
L10.8301 -24.8439
L10.657 -24.6942
L10.4886 -24.54
L10.3249 -24.3814
L10.2796 -24.2185
L10.4977 -23.7236
L10.7237 -23.2766
L10.9573 -22.8335
L11.1986 -22.3944
L11.4474 -21.9594
L11.7037 -21.5287
L11.9674 -21.1024
L12.2384 -20.6806
L12.5167 -20.2635
L12.8021 -19.8512
L13.0946 -19.4438
L13.394 -19.0415
L13.7004 -18.6443
L14.0135 -18.2524
L14.3333 -17.866
L14.6598 -17.485
L14.9927 -17.1097
L15.332 -16.7401
L15.6776 -16.3764
L16.0295 -16.0187
L16.3874 -15.6671
L16.7512 -15.3216
L17.121 -14.9825
L17.4965 -14.6498
L17.8776 -14.3235
L18.2642 -14.0039
L18.6563 -13.691
L19.0536 -13.3848
L19.4561 -13.0856
L19.8636 -12.7933
L20.2761 -12.5081
L20.6933 -12.2301
L21.1152 -11.9593
L21.5416 -11.6958
L21.9725 -11.4397
L22.4076 -11.1912
L22.8468 -10.9501
L23.2901 -10.7167
L23.7372 -10.491
L24.1881 -10.2731
L24.6426 -10.063
L25.1005 -9.86079
L25.5617 -9.66655
L26.0261 -9.48034
L26.4936 -9.30221
L26.964 -9.1322
L27.4371 -8.97039
L27.9128 -8.8168
L28.391 -8.6715
L28.8715 -8.53452
L29.3541 -8.40591
L29.8388 -8.2857
L30.3254 -8.17393
L30.8137 -8.07065
L31.3036 -7.97586
L31.7949 -7.88962
L32.2875 -7.81194
L32.7812 -7.74284
L33.2759 -7.68235
L33.7714 -7.63049
L34.2676 -7.58727
L34.7644 -7.5527
L35.2615 -7.5268
L35.7588 -7.50957
L36.2562 -7.50102
L36.7536 -7.50115
L37.2507 -7.50996
L37.7474 -7.52746
L38.2436 -7.55362
L38.7391 -7.58845
L39.2338 -7.63193
L39.7275 -7.68406
L40.22 -7.74481
L40.7113 -7.81416
L41.2011 -7.8921
L41.6894 -7.97861
L42.1759 -8.07365
L42.6605 -8.17719
L43.1431 -8.28922
L43.6236 -8.40968
L44.1017 -8.53855
L44.5773 -8.67578
L45.0503 -8.82133
L45.5206 -8.97517
L45.988 -9.13723
L46.4523 -9.30748
L46.9134 -9.48586
L47.3713 -9.67232
L47.8256 -9.86679
L48.2764 -10.0692
L48.7234 -10.2796
L49.1665 -10.4977
L49.6056 -10.7237
L50.0406 -10.9573
L50.4713 -11.1986
L50.8976 -11.4474
L51.3194 -11.7037
L51.7365 -11.9674
L52.1488 -12.2384
L52.5562 -12.5167
L52.9585 -12.8021
L53.3557 -13.0946
L53.7476 -13.394
L54.134 -13.7004
L54.515 -14.0135
L54.8903 -14.3333
L55.2599 -14.6598
L55.6236 -14.9927
L55.9813 -15.332
L56.3329 -15.6776
L56.6784 -16.0295
L57.0175 -16.3874
z
" id="C0_2_3f61684490"/>
    </defs>
    <g clip-path="url(#p1bffca34e9)">
     <use style="fill:#ff0000;stroke:#000000;stroke-width:2.0;" x="0.0" xlink:href="#C0_0_a811fe30f3" y="72.0"/>
    </g>
    <g clip-path="url(#p1bffca34e9)">
     <use style="fill:#ffffff;stroke:#000000;stroke-width:2.0;" x="0.0" xlink:href="#C0_1_9855a53b8f" y="72.0"/>
    </g>
    <g clip-path="url(#p1bffca34e9)">
     <use style="fill:#ffffff;stroke:#000000;stroke-width:2.0;" x="0.0" xlink:href="#C0_2_3f61684490" y="72.0"/>
    </g>
   </g>
  </g>
 </g>
 <defs>
  <clipPath id="p1bffca34e9">
   <rect height="72.0" width="72.0" x="0.0" y="0.0"/>
  </clipPath>
 </defs>
</svg>
