<?xml version="1.0" encoding="utf-8" standalone="no"?>
<!DOCTYPE svg PUBLIC "-//W3C//DTD SVG 1.1//EN"
  "http://www.w3.org/Graphics/SVG/1.1/DTD/svg11.dtd">
<!-- Created with matplotlib (http://matplotlib.org/) -->
<svg height="72pt" version="1.1" viewBox="0 0 72 72" width="72pt" xmlns="http://www.w3.org/2000/svg" xmlns:xlink="http://www.w3.org/1999/xlink">
 <defs>
  <style type="text/css">
*{stroke-linecap:butt;stroke-linejoin:round;}
  </style>
 </defs>
 <g id="figure_1">
  <g id="patch_1">
   <path d="
M0 72
L72 72
L72 0
L0 0
z
" style="fill:none;"/>
  </g>
  <g id="axes_1">
   <g id="PatchCollection_1">
    <defs>
     <path d="
M36 -7.5
C43.5583 -7.5 50.808 -10.5029 56.1525 -15.8475
C61.4971 -21.192 64.5 -28.4417 64.5 -36
C64.5 -43.5583 61.4971 -50.808 56.1525 -56.1525
C50.808 -61.4971 43.5583 -64.5 36 -64.5
C28.4417 -64.5 21.192 -61.4971 15.8475 -56.1525
C10.5029 -50.808 7.5 -43.5583 7.5 -36
C7.5 -28.4417 10.5029 -21.192 15.8475 -15.8475
C21.192 -10.5029 28.4417 -7.5 36 -7.5
z
" id="C0_0_a811fe30f3"/>
     <path d="
M41.6597 -63.748
L41.702 -63.4464
L41.7632 -63.1339
L41.8386 -62.8122
L41.9247 -62.4828
L42.0183 -62.1468
L42.1171 -61.8054
L42.2192 -61.4595
L42.3232 -61.1098
L42.4279 -60.757
L42.5323 -60.4016
L42.6358 -60.0443
L42.7377 -59.6856
L42.8376 -59.3258
L42.9353 -58.9653
L43.0303 -58.6045
L43.1226 -58.2437
L43.2119 -57.8833
L43.2982 -57.5234
L43.3814 -57.1644
L43.4615 -56.8064
L43.5384 -56.4497
L43.6122 -56.0944
L43.6829 -55.7407
L43.7505 -55.3888
L43.8151 -55.0388
L43.8767 -54.6908
L43.9353 -54.3449
L43.9911 -54.0012
L44.0441 -53.6598
L44.0943 -53.3207
L44.1419 -52.9841
L44.1869 -52.6499
L44.2294 -52.3182
L44.2695 -51.989
L44.3072 -51.6623
L44.3426 -51.3382
L44.3758 -51.0166
L44.4069 -50.6976
L44.4358 -50.3811
L44.4628 -50.0672
L44.4878 -49.7557
L44.5109 -49.4467
L44.5321 -49.1402
L44.5516 -48.8361
L44.5694 -48.5344
L44.5856 -48.235
L44.6001 -47.938
L44.613 -47.6431
L44.6245 -47.3505
L44.6345 -47.0601
L44.643 -46.7718
L44.6502 -46.4855
L44.656 -46.2012
L44.6606 -45.9189
L44.6638 -45.6384
L44.6659 -45.3598
L44.6667 -45.0829
L44.6663 -44.8078
L44.6649 -44.5343
L44.6623 -44.2623
L44.6586 -43.9919
L44.6538 -43.723
L44.648 -43.4555
L44.6412 -43.1892
L44.6333 -42.9243
L44.6245 -42.6606
L44.6147 -42.398
L44.6039 -42.1364
L44.5922 -41.8759
L44.5796 -41.6164
L44.566 -41.3577
L44.5515 -41.0999
L44.5361 -40.8428
L44.5199 -40.5864
L44.5027 -40.3307
L44.4846 -40.0755
L44.4657 -39.8208
L44.4459 -39.5665
L44.4252 -39.3126
L44.4036 -39.0591
L44.3811 -38.8057
L44.3578 -38.5526
L44.3085 -38.2996
L44.2825 -38.0466
L44.2555 -37.7937
L44.2277 -37.5406
L44.199 -37.2874
L44.1693 -37.0341
L44.1388 -36.7804
L44.1072 -36.5264
L44.0747 -36.2721
L44.0413 -36.0173
L44.0068 -35.7619
L43.9713 -35.506
L43.9349 -35.2495
L43.8974 -34.9922
L43.8588 -34.7342
L43.8191 -34.4753
L43.7784 -34.2155
L43.7365 -33.9547
L43.6935 -33.6929
L43.6493 -33.43
L43.6039 -33.166
L43.5573 -32.9007
L43.5095 -32.6341
L43.4603 -32.3662
L43.4099 -32.0969
L43.3581 -31.8261
L43.3049 -31.5537
L43.2503 -31.2798
L43.1942 -31.0041
L43.1367 -30.7268
L43.0776 -30.4476
L43.0169 -30.1666
L42.9547 -29.8837
L42.8908 -29.5988
L42.8251 -29.3119
L42.7577 -29.0229
L42.6886 -28.7318
L42.6175 -28.4385
L42.5446 -28.143
L42.4697 -27.8451
L42.3929 -27.545
L42.3139 -27.2424
L42.2329 -26.9375
L42.1497 -26.63
L42.0642 -26.3201
L41.9765 -26.0077
L41.8864 -25.6927
L41.794 -25.3752
L41.6991 -25.0551
L41.6016 -24.7323
L41.5016 -24.407
L41.399 -24.0791
L41.2937 -23.7486
L41.1857 -23.4155
L41.0748 -23.0799
L40.9612 -22.7418
L40.8446 -22.4012
L40.7252 -22.0581
L40.6028 -21.7127
L40.4774 -21.365
L40.349 -21.0151
L40.2176 -20.6631
L40.0832 -20.309
L39.9458 -19.9531
L39.8054 -19.5954
L39.6621 -19.2362
L39.516 -18.8755
L39.3671 -18.5135
L39.2155 -18.1505
L39.0615 -17.7866
L38.9053 -17.4222
L38.747 -17.0574
L38.587 -16.6925
L38.4258 -16.3278
L38.2637 -15.9637
L38.1015 -15.6005
L37.9398 -15.2386
L37.7796 -14.8783
L37.622 -14.5202
L37.4686 -14.1646
L37.3209 -13.8123
L37.1814 -13.4636
L37.0528 -13.1194
L36.9386 -12.7804
L36.8428 -12.4475
L36.7708 -12.1217
L36.7283 -11.8042
L36.7219 -11.4963
L36.7585 -11.1994
L36.8442 -10.9153
L36.9835 -10.6454
L37.1788 -10.3911
L37.4292 -10.1537
L37.7317 -9.93376
L38.0812 -9.73167
L38.4717 -9.54743
L38.8971 -9.38082
L39.3516 -9.23151
L39.8303 -9.09912
L40.3286 -8.9833
L40.843 -8.88372
L41.3702 -8.80007
L41.9076 -8.7321
L42.4531 -8.67955
L43.0046 -8.64218
L43.5606 -8.61977
L44.0622 -8.61208
L44.5381 -8.66411
L45.0113 -8.80898
L45.4818 -8.96213
L45.9494 -9.12352
L46.414 -9.29309
L46.8754 -9.4708
L47.3335 -9.65659
L47.7882 -9.8504
L48.2392 -10.0522
L48.6865 -10.2619
L49.13 -10.4794
L49.5695 -10.7047
L50.0048 -10.9377
L50.4359 -11.1783
L50.8625 -11.4265
L51.2847 -11.6822
L51.7022 -11.9453
L52.1149 -12.2157
L52.5227 -12.4934
L52.9254 -12.7782
L53.323 -13.0701
L53.7153 -13.369
L54.1023 -13.6748
L54.4837 -13.9873
L54.8595 -14.3066
L55.2295 -14.6325
L55.5937 -14.9649
L55.9519 -15.3037
L56.3041 -15.6488
L56.65 -16.0001
L56.9897 -16.3575
L57.3229 -16.7209
L57.6497 -17.0902
L57.9699 -17.4652
L58.2834 -17.8458
L58.5901 -18.232
L58.8899 -18.6236
L59.1828 -19.0205
L59.4685 -19.4226
L59.7472 -19.8297
L60.0186 -20.2418
L60.2827 -20.6586
L60.5394 -21.0801
L60.7886 -21.5062
L61.0302 -21.9367
L61.2643 -22.3714
L61.4906 -22.8104
L61.7092 -23.2533
L61.9199 -23.7001
L62.1228 -24.1507
L62.3177 -24.6048
L62.5046 -25.0625
L62.6834 -25.5234
L62.854 -25.9876
L63.0165 -26.4548
L63.1708 -26.9249
L63.3168 -27.3978
L63.4545 -27.8733
L63.5838 -28.3513
L63.7047 -28.8316
L63.8171 -29.3141
L63.9211 -29.7987
L64.0166 -30.2851
L64.1036 -30.7732
L64.182 -31.263
L64.2518 -31.7542
L64.313 -32.2467
L64.3656 -32.7403
L64.4095 -33.2349
L64.4448 -33.7304
L64.4714 -34.2266
L64.4893 -34.7233
L64.4986 -35.2204
L64.4992 -35.7177
L64.4911 -36.2151
L64.4743 -36.7124
L64.4489 -37.2096
L64.4148 -37.7063
L64.372 -38.2026
L64.3206 -38.6981
L64.2605 -39.1929
L64.1919 -39.6867
L64.1147 -40.1793
L64.0289 -40.6707
L63.9345 -41.1607
L63.8317 -41.649
L63.7204 -42.1357
L63.6006 -42.6205
L63.4724 -43.1033
L63.3359 -43.5839
L63.191 -44.0622
L63.0379 -44.5381
L62.8765 -45.0113
L62.7069 -45.4818
L62.5292 -45.9494
L62.3434 -46.414
L62.1496 -46.8754
L61.9478 -47.3335
L61.7381 -47.7882
L61.5206 -48.2392
L61.2953 -48.6865
L61.0623 -49.13
L60.8217 -49.5695
L60.5735 -50.0048
L60.3178 -50.4359
L60.0547 -50.8625
L59.7843 -51.2847
L59.5066 -51.7022
L59.2218 -52.1149
L58.9299 -52.5227
L58.631 -52.9254
L58.3252 -53.323
L58.0127 -53.7153
L57.6934 -54.1023
L57.3675 -54.4837
L57.0351 -54.8595
L56.6963 -55.2295
L56.3512 -55.5937
L55.9999 -55.9519
L55.6425 -56.3041
L55.2791 -56.65
L54.9098 -56.9897
L54.5348 -57.3229
L54.1542 -57.6497
L53.768 -57.9699
L53.3764 -58.2834
L52.9795 -58.5901
L52.5774 -58.8899
L52.1703 -59.1828
L51.7582 -59.4685
L51.3414 -59.7472
L50.9199 -60.0186
L50.4938 -60.2827
L50.0633 -60.5394
L49.6286 -60.7886
L49.1896 -61.0302
L48.7467 -61.2643
L48.2999 -61.4906
L47.8493 -61.7092
L47.3952 -61.9199
L46.9375 -62.1228
L46.4766 -62.3177
L46.0124 -62.5046
L45.5452 -62.6834
L45.0751 -62.854
L44.6022 -63.0165
L44.1267 -63.1708
L43.6487 -63.3168
L43.1684 -63.4545
L42.6859 -63.5838
L42.2013 -63.7047
z
" id="C0_1_9e5b78561b"/>
     <path d="
M27.9144 -63.2666
L27.4435 -62.9697
L26.981 -62.6663
L26.5275 -62.3568
L26.0834 -62.0417
L25.6491 -61.7214
L25.225 -61.3964
L24.8112 -61.0671
L24.4079 -60.7339
L24.0151 -60.3973
L23.6328 -60.0576
L23.2611 -59.7153
L22.8999 -59.3707
L22.5492 -59.0241
L22.2087 -58.6759
L21.8784 -58.3264
L21.5582 -57.9759
L21.2478 -57.6247
L20.9472 -57.273
L20.656 -56.9211
L20.3741 -56.5691
L20.1014 -56.2173
L19.8376 -55.8659
L19.5825 -55.515
L19.3358 -55.1648
L19.0974 -54.8155
L18.8671 -54.467
L18.6446 -54.1197
L18.4298 -53.7735
L18.2224 -53.4286
L18.0222 -53.085
L17.8291 -52.7428
L17.6427 -52.402
L17.4631 -52.0628
L17.2898 -51.725
L17.1228 -51.3889
L16.9619 -51.0543
L16.8069 -50.7213
L16.6577 -50.3899
L16.5141 -50.0602
L16.3758 -49.732
L16.2429 -49.4055
L16.115 -49.0805
L15.9922 -48.7571
L15.8741 -48.4352
L15.7609 -48.1149
L15.6522 -47.796
L15.5479 -47.4786
L15.448 -47.1626
L15.3524 -46.8481
L15.2609 -46.5348
L15.1735 -46.2229
L15.0899 -45.9122
L15.0103 -45.6027
L14.9344 -45.2944
L14.8621 -44.9872
L14.7935 -44.681
L14.7284 -44.3759
L14.6668 -44.0717
L14.6085 -43.7685
L14.5536 -43.466
L14.502 -43.1644
L14.4536 -42.8635
L14.4083 -42.5632
L14.3662 -42.2636
L14.3272 -41.9646
L14.2912 -41.666
L14.2582 -41.3679
L14.2281 -41.0701
L14.2011 -40.7727
L14.1769 -40.4755
L14.1557 -40.1785
L14.1373 -39.8817
L14.1218 -39.5849
L14.1091 -39.2882
L14.0993 -38.9913
L14.0924 -38.6944
L14.0882 -38.3973
L14.0869 -38.0999
L14.0885 -37.8023
L14.0929 -37.5042
L14.1002 -37.2058
L14.1103 -36.9068
L14.1234 -36.6073
L14.1393 -36.3072
L14.1582 -36.0064
L14.1801 -35.7049
L14.2049 -35.4025
L14.2328 -35.0994
L14.2638 -34.7952
L14.2979 -34.4901
L14.3351 -34.184
L14.3755 -33.8767
L14.4192 -33.5683
L14.4662 -33.2587
L14.5166 -32.9478
L14.5704 -32.6355
L14.6278 -32.3219
L14.6887 -32.0068
L14.7532 -31.6902
L14.8215 -31.3721
L14.8936 -31.0523
L14.9696 -30.7309
L15.0496 -30.4079
L15.1336 -30.083
L15.2219 -29.7564
L15.3144 -29.428
L15.4114 -29.0977
L15.5129 -28.7656
L15.619 -28.4315
L15.7299 -28.0954
L15.8456 -27.7574
L15.9664 -27.4174
L16.0923 -27.0755
L16.2235 -26.7314
L16.3602 -26.3854
L16.5024 -26.0374
L16.6503 -25.6874
L16.8042 -25.3354
L16.964 -24.9814
L17.1301 -24.6255
L17.3026 -24.2677
L17.4816 -23.9081
L17.6672 -23.5466
L17.8598 -23.1835
L18.0594 -22.8188
L18.2661 -22.4525
L18.4803 -22.0847
L18.702 -21.7157
L18.9313 -21.3454
L19.1685 -20.9741
L19.4137 -20.6019
L19.6671 -20.229
L19.9287 -19.8555
L20.1987 -19.4817
L20.4772 -19.1078
L20.7642 -18.734
L21.06 -18.3605
L21.3644 -17.9877
L21.6776 -17.6157
L21.9995 -17.245
L22.3301 -16.8758
L22.6692 -16.5085
L23.0168 -16.1433
L23.3727 -15.7807
L23.7366 -15.4209
L24.1081 -15.0644
L24.4869 -14.7115
L24.8724 -14.3626
L25.2639 -14.0181
L25.6605 -13.6783
L26.0613 -13.3435
L26.4649 -13.0142
L26.8697 -12.6904
L27.2739 -12.3725
L27.6748 -12.0606
L28.0696 -11.7548
L28.4545 -11.455
L28.825 -11.1611
L29.1758 -10.8726
L29.5006 -10.589
L29.7925 -10.3097
L30.0443 -10.0339
L30.2496 -9.76061
L30.4033 -9.48924
L30.5028 -9.21931
L30.5483 -8.95074
L30.5426 -8.68379
L30.4904 -8.41902
L29.8908 -8.15718
L29.4059 -8.16249
L28.923 -8.27335
L28.4422 -8.39265
L27.9638 -8.52037
L27.4878 -8.65646
L27.0144 -8.80087
L26.5438 -8.95357
L26.076 -9.11451
L25.6112 -9.28364
L25.1496 -9.46091
L24.6914 -9.64626
L24.2365 -9.83964
L23.7853 -10.041
L23.3377 -10.2502
L22.894 -10.4673
L22.4544 -10.6922
L22.0188 -10.9248
L21.5875 -11.165
L21.1606 -11.4128
L20.7382 -11.6681
L20.3205 -11.9308
L19.9075 -12.2008
L19.4994 -12.4781
L19.0964 -12.7625
L18.6985 -13.054
L18.3059 -13.3525
L17.9187 -13.6579
L17.5369 -13.9701
L17.1608 -14.289
L16.7905 -14.6146
L16.426 -14.9466
L16.0674 -15.2851
L15.715 -15.6299
L15.3687 -15.9808
L15.0287 -16.3379
L14.695 -16.701
L14.3679 -17.0699
L14.0474 -17.4446
L13.7335 -17.825
L13.4264 -18.2109
L13.1262 -18.6022
L12.833 -18.9988
L12.5468 -19.4006
L12.2678 -19.8074
L11.996 -20.2192
L11.7315 -20.6358
L11.4744 -21.0571
L11.2248 -21.4829
L10.9827 -21.9131
L10.7483 -22.3477
L10.5215 -22.7863
L10.3025 -23.2291
L10.0913 -23.6757
L9.88806 -24.126
L9.69273 -24.58
L9.50541 -25.0375
L9.32617 -25.4983
L9.15504 -25.9622
L8.9921 -26.4293
L8.83739 -26.8993
L8.69094 -27.372
L8.55282 -27.8474
L8.42306 -28.3252
L8.30169 -28.8054
L8.18877 -29.2878
L8.08431 -29.7722
L7.98836 -30.2585
L7.90094 -30.7466
L7.82209 -31.2363
L7.75181 -31.7274
L7.69014 -32.2198
L7.63709 -32.7134
L7.59268 -33.208
L7.55693 -33.7034
L7.52984 -34.1995
L7.51142 -34.6962
L7.50168 -35.1933
L7.50062 -35.6906
L7.50824 -36.188
L7.52454 -36.6853
L7.54952 -37.1825
L7.58316 -37.6793
L7.62545 -38.1756
L7.67639 -38.6712
L7.73596 -39.166
L7.80414 -39.6598
L7.8809 -40.1525
L7.96623 -40.644
L8.06011 -41.134
L8.16249 -41.6225
L8.27335 -42.1092
L8.39265 -42.5941
L8.52037 -43.077
L8.65646 -43.5578
L8.80087 -44.0362
L8.95357 -44.5122
L9.11451 -44.9856
L9.28364 -45.4562
L9.46091 -45.924
L9.64626 -46.3888
L9.83964 -46.8504
L10.041 -47.3086
L10.2502 -47.7635
L10.4673 -48.2147
L10.6922 -48.6623
L10.9248 -49.106
L11.165 -49.5456
L11.4128 -49.9812
L11.6681 -50.4125
L11.9308 -50.8394
L12.2008 -51.2618
L12.4781 -51.6795
L12.7625 -52.0925
L13.054 -52.5006
L13.3525 -52.9036
L13.6579 -53.3015
L13.9701 -53.6941
L14.289 -54.0813
L14.6146 -54.4631
L14.9466 -54.8392
L15.2851 -55.2095
L15.6299 -55.574
L15.9808 -55.9326
L16.3379 -56.285
L16.701 -56.6313
L17.0699 -56.9713
L17.4446 -57.305
L17.825 -57.6321
L18.2109 -57.9526
L18.6022 -58.2665
L18.9988 -58.5736
L19.4006 -58.8738
L19.8074 -59.167
L20.2192 -59.4532
L20.6358 -59.7322
L21.0571 -60.004
L21.4829 -60.2685
L21.9131 -60.5256
L22.3477 -60.7752
L22.7863 -61.0173
L23.2291 -61.2517
L23.6757 -61.4785
L24.126 -61.6975
L24.58 -61.9087
L25.0375 -62.1119
L25.4983 -62.3073
L25.9622 -62.4946
L26.4293 -62.6738
L26.8993 -62.845
L27.372 -63.0079
z
" id="C0_2_40ab7347f7"/>
    </defs>
    <g clip-path="url(#p1bffca34e9)">
     <use style="fill:#ff0000;stroke:#000000;stroke-width:2.0;" x="0.0" xlink:href="#C0_0_a811fe30f3" y="72.0"/>
    </g>
    <g clip-path="url(#p1bffca34e9)">
     <use style="fill:#ffffff;stroke:#000000;stroke-width:2.0;" x="0.0" xlink:href="#C0_1_9e5b78561b" y="72.0"/>
    </g>
    <g clip-path="url(#p1bffca34e9)">
     <use style="fill:#ffffff;stroke:#000000;stroke-width:2.0;" x="0.0" xlink:href="#C0_2_40ab7347f7" y="72.0"/>
    </g>
   </g>
  </g>
 </g>
 <defs>
  <clipPath id="p1bffca34e9">
   <rect height="72.0" width="72.0" x="0.0" y="0.0"/>
  </clipPath>
 </defs>
</svg>
