<?xml version="1.0" encoding="utf-8" standalone="no"?>
<!DOCTYPE svg PUBLIC "-//W3C//DTD SVG 1.1//EN"
  "http://www.w3.org/Graphics/SVG/1.1/DTD/svg11.dtd">
<!-- Created with matplotlib (http://matplotlib.org/) -->
<svg height="72pt" version="1.1" viewBox="0 0 72 72" width="72pt" xmlns="http://www.w3.org/2000/svg" xmlns:xlink="http://www.w3.org/1999/xlink">
 <defs>
  <style type="text/css">
*{stroke-linecap:butt;stroke-linejoin:round;}
  </style>
 </defs>
 <g id="figure_1">
  <g id="patch_1">
   <path d="
M0 72
L72 72
L72 0
L0 0
z
" style="fill:none;"/>
  </g>
  <g id="axes_1">
   <g id="PatchCollection_1">
    <defs>
     <path d="
M36 -7.5
C43.5583 -7.5 50.808 -10.5029 56.1525 -15.8475
C61.4971 -21.192 64.5 -28.4417 64.5 -36
C64.5 -43.5583 61.4971 -50.808 56.1525 -56.1525
C50.808 -61.4971 43.5583 -64.5 36 -64.5
C28.4417 -64.5 21.192 -61.4971 15.8475 -56.1525
C10.5029 -50.808 7.5 -43.5583 7.5 -36
C7.5 -28.4417 10.5029 -21.192 15.8475 -15.8475
C21.192 -10.5029 28.4417 -7.5 36 -7.5
z
" id="C0_0_a811fe30f3"/>
     <path d="
M49.3219 -61.1168
L49.0267 -61.0197
L48.7608 -60.8979
L48.5248 -60.7519
L48.3188 -60.5821
L48.142 -60.3898
L47.9931 -60.176
L47.8704 -59.9422
L47.7715 -59.69
L47.6941 -59.4211
L47.6357 -59.1371
L47.5937 -58.8396
L47.5659 -58.5302
L47.5498 -58.2103
L47.5436 -57.8813
L47.5454 -57.5444
L47.5536 -57.2008
L47.5669 -56.8514
L47.584 -56.4971
L47.6039 -56.1388
L47.6257 -55.7773
L47.6487 -55.4131
L47.6722 -55.0469
L47.6957 -54.6793
L47.7188 -54.3107
L47.7411 -53.9415
L47.7623 -53.5722
L47.7822 -53.2032
L47.8005 -52.8347
L47.8172 -52.467
L47.832 -52.1005
L47.8448 -51.7352
L47.8557 -51.3716
L47.8646 -51.0097
L47.8714 -50.6497
L47.8761 -50.2917
L47.8788 -49.9359
L47.8794 -49.5825
L47.8779 -49.2314
L47.8744 -48.8828
L47.869 -48.5368
L47.8615 -48.1934
L47.8522 -47.8526
L47.841 -47.5145
L47.8279 -47.1791
L47.813 -46.8465
L47.7964 -46.5166
L47.7781 -46.1894
L47.7582 -45.865
L47.7366 -45.5434
L47.7135 -45.2244
L47.6889 -44.9081
L47.6628 -44.5945
L47.6352 -44.2836
L47.6063 -43.9752
L47.576 -43.6694
L47.5444 -43.3661
L47.5115 -43.0653
L47.4774 -42.7669
L47.4421 -42.4709
L47.4055 -42.1773
L47.3679 -41.8859
L47.329 -41.5967
L47.2891 -41.3097
L47.2481 -41.0248
L47.2061 -40.742
L47.163 -40.4611
L47.1189 -40.1822
L47.0738 -39.9051
L47.0278 -39.6299
L46.9807 -39.3563
L46.9327 -39.0845
L46.8838 -38.8143
L46.8339 -38.5457
L46.7831 -38.2785
L46.7314 -38.0128
L46.6788 -37.7485
L46.6252 -37.4855
L46.5708 -37.2237
L46.5155 -36.9631
L46.4592 -36.7036
L46.4021 -36.4452
L46.344 -36.1878
L46.2851 -35.9313
L46.2252 -35.6757
L46.1644 -35.4209
L46.1027 -35.1669
L46.0401 -34.9135
L45.9765 -34.6608
L45.9119 -34.4087
L45.8464 -34.1571
L45.78 -33.9059
L45.6441 -33.6552
L45.5746 -33.4047
L45.5041 -33.1546
L45.4325 -32.9047
L45.3599 -32.6549
L45.2862 -32.4052
L45.2114 -32.1556
L45.1354 -31.906
L45.0583 -31.6563
L44.98 -31.4065
L44.9005 -31.1565
L44.8197 -30.9063
L44.7377 -30.6557
L44.6544 -30.4049
L44.5698 -30.1536
L44.4839 -29.9019
L44.3965 -29.6497
L44.3078 -29.3969
L44.2176 -29.1435
L44.1259 -28.8894
L44.0327 -28.6347
L43.9379 -28.3791
L43.8415 -28.1228
L43.7435 -27.8655
L43.6438 -27.6074
L43.5424 -27.3483
L43.4392 -27.0882
L43.3342 -26.827
L43.2273 -26.5647
L43.1185 -26.3013
L43.0078 -26.0367
L42.895 -25.7709
L42.7802 -25.5038
L42.6633 -25.2354
L42.5443 -24.9657
L42.423 -24.6946
L42.2995 -24.4221
L42.1736 -24.1482
L42.0454 -23.8728
L41.9148 -23.5959
L41.7817 -23.3176
L41.6461 -23.0377
L41.5079 -22.7563
L41.367 -22.4734
L41.2235 -22.1889
L41.0773 -21.9029
L40.9282 -21.6153
L40.7764 -21.3262
L40.6217 -21.0355
L40.4641 -20.7434
L40.3035 -20.4498
L40.14 -20.1548
L39.9735 -19.8583
L39.804 -19.5605
L39.6315 -19.2614
L39.4559 -18.961
L39.2774 -18.6595
L39.0959 -18.3568
L38.9114 -18.0532
L38.724 -17.7485
L38.5338 -17.4431
L38.3409 -17.1369
L38.1453 -16.8302
L37.9472 -16.523
L37.7468 -16.2154
L37.5443 -15.9076
L37.3399 -15.5999
L37.1338 -15.2922
L36.9265 -14.9848
L36.7184 -14.678
L36.5098 -14.3717
L36.3013 -14.0664
L36.0937 -13.762
L35.8875 -13.459
L35.6836 -13.1573
L35.4831 -12.8573
L35.287 -12.5591
L35.0967 -12.2629
L34.9136 -11.9688
L34.7396 -11.6772
L34.5764 -11.388
L34.4263 -11.1016
L34.2917 -10.8179
L34.1753 -10.5371
L34.0798 -10.2594
L34.0083 -9.98481
L33.9637 -9.71348
L33.949 -9.44556
L33.9669 -9.18123
L34.0197 -8.9207
L34.109 -8.66429
L34.236 -8.41239
L34.4011 -8.16547
L34.6038 -7.9241
L35.0932 -7.68893
L35.5905 -7.51443
L36.0879 -7.50294
L36.5853 -7.50014
L37.0825 -7.50601
L37.5793 -7.52056
L38.0757 -7.54379
L38.5715 -7.57569
L39.0665 -7.61625
L39.5605 -7.66545
L40.0535 -7.72328
L40.5452 -7.78973
L41.0355 -7.86477
L41.5243 -7.94837
L42.0114 -8.04053
L42.4967 -8.1412
L42.98 -8.25036
L43.4612 -8.36797
L43.9401 -8.49399
L44.4166 -8.6284
L44.8905 -8.77114
L45.3618 -8.92218
L45.8301 -9.08146
L46.2955 -9.24895
L46.7577 -9.42458
L47.2167 -9.60831
L47.6722 -9.80008
L48.1242 -9.99983
L48.5725 -10.2075
L49.017 -10.423
L49.4575 -10.6463
L49.8939 -10.8774
L50.326 -11.1161
L50.7539 -11.3623
L51.1772 -11.6161
L51.5959 -11.8773
L52.0098 -12.1459
L52.4188 -12.4217
L52.8229 -12.7047
L53.2218 -12.9948
L53.6155 -13.2919
L54.0039 -13.5959
L54.3867 -13.9068
L54.7639 -14.2243
L55.1354 -14.5485
L55.5011 -14.8793
L55.8609 -15.2165
L56.2146 -15.56
L56.5621 -15.9097
L56.9034 -16.2656
L57.2383 -16.6274
L57.5668 -16.9952
L57.8887 -17.3687
L58.2039 -17.748
L58.5123 -18.1328
L58.8139 -18.523
L59.1085 -18.9185
L59.3961 -19.3193
L59.6766 -19.7251
L59.9499 -20.1359
L60.2158 -20.5516
L60.4744 -20.9719
L60.7256 -21.3968
L60.9692 -21.8262
L61.2051 -22.2599
L61.4335 -22.6977
L61.654 -23.1396
L61.8668 -23.5855
L62.0717 -24.0351
L62.2686 -24.4884
L62.4575 -24.9451
L62.6384 -25.4053
L62.8112 -25.8686
L62.9758 -26.3351
L63.1321 -26.8045
L63.2803 -27.2766
L63.4201 -27.7515
L63.5515 -28.2289
L63.6746 -28.7086
L63.7892 -29.1905
L63.8953 -29.6746
L63.993 -30.1605
L64.0821 -30.6482
L64.1627 -31.1376
L64.2347 -31.6284
L64.2981 -32.1206
L64.3529 -32.614
L64.3991 -33.1084
L64.4366 -33.6036
L64.4654 -34.0996
L64.4856 -34.5962
L64.4971 -35.0932
L64.4999 -35.5905
L64.494 -36.0879
L64.4794 -36.5853
L64.4562 -37.0825
L64.4243 -37.5793
L64.3838 -38.0757
L64.3346 -38.5715
L64.2767 -39.0665
L64.2103 -39.5605
L64.1352 -40.0535
L64.0516 -40.5452
L63.9595 -41.0355
L63.8588 -41.5243
L63.7496 -42.0114
L63.632 -42.4967
L63.506 -42.98
L63.3716 -43.4612
L63.2289 -43.9401
L63.0778 -44.4166
L62.9185 -44.8905
L62.7511 -45.3618
L62.5754 -45.8301
L62.3917 -46.2955
L62.1999 -46.7577
L62.0002 -47.2167
L61.7925 -47.6722
L61.577 -48.1242
L61.3537 -48.5725
L61.1226 -49.017
L60.8839 -49.4575
L60.6377 -49.8939
L60.3839 -50.326
L60.1227 -50.7539
L59.8541 -51.1772
L59.5783 -51.5959
L59.2953 -52.0098
L59.0052 -52.4188
L58.7081 -52.8229
L58.4041 -53.2218
L58.0932 -53.6155
L57.7757 -54.0039
L57.4515 -54.3867
L57.1207 -54.7639
L56.7835 -55.1354
L56.44 -55.5011
L56.0903 -55.8609
L55.7344 -56.2146
L55.3726 -56.5621
L55.0048 -56.9034
L54.6313 -57.2383
L54.252 -57.5668
L53.8672 -57.8887
L53.477 -58.2039
L53.0815 -58.5123
L52.6807 -58.8139
L52.2749 -59.1085
L51.8641 -59.3961
L51.4484 -59.6766
L51.0281 -59.9499
L50.6032 -60.2158
L50.1738 -60.4744
z
" id="C0_1_506ca0388e"/>
     <path d="
M37.1517 -64.4138
L36.8653 -64.2106
L36.5553 -64.0085
L36.2248 -63.8064
L35.8765 -63.6036
L35.5136 -63.3992
L35.1386 -63.1925
L34.754 -62.9829
L34.3621 -62.77
L33.9647 -62.5534
L33.5638 -62.3328
L33.1609 -62.108
L32.7572 -61.8789
L32.3541 -61.6456
L31.9525 -61.408
L31.5533 -61.1662
L31.1574 -60.9204
L30.7653 -60.6706
L30.3776 -60.417
L29.9948 -60.1598
L29.6174 -59.8993
L29.2455 -59.6355
L28.8796 -59.3688
L28.5198 -59.0993
L28.1664 -58.8273
L27.8194 -58.5529
L27.479 -58.2765
L27.1452 -57.9981
L26.818 -57.718
L26.4976 -57.4363
L26.1839 -57.1534
L25.8768 -56.8692
L25.5764 -56.5841
L25.2826 -56.2981
L24.9953 -56.0114
L24.7144 -55.7241
L24.4399 -55.4364
L24.1717 -55.1484
L23.9096 -54.8601
L23.6536 -54.5718
L23.4036 -54.2834
L23.1595 -53.9952
L22.9211 -53.707
L22.6883 -53.4191
L22.461 -53.1314
L22.2391 -52.8441
L22.0225 -52.5571
L21.8111 -52.2706
L21.6047 -51.9845
L21.4033 -51.6989
L21.2066 -51.4138
L21.0147 -51.1292
L20.8274 -50.8451
L20.6445 -50.5616
L20.4661 -50.2786
L20.2919 -49.9962
L20.1219 -49.7143
L19.956 -49.433
L19.7941 -49.1521
L19.636 -48.8718
L19.4818 -48.592
L19.3313 -48.3126
L19.1844 -48.0337
L19.0411 -47.7552
L18.9012 -47.4771
L18.7647 -47.1994
L18.6316 -46.922
L18.5016 -46.6449
L18.3749 -46.3681
L18.2513 -46.0914
L18.1307 -45.815
L18.0131 -45.5388
L17.8985 -45.2626
L17.7867 -44.9865
L17.6778 -44.7104
L17.5716 -44.4343
L17.4682 -44.1581
L17.3675 -43.8818
L17.2694 -43.6053
L17.174 -43.3286
L17.0811 -43.0516
L16.9908 -42.7742
L16.903 -42.4965
L16.8176 -42.2184
L16.7348 -41.9398
L16.6544 -41.6606
L16.5764 -41.3808
L16.5008 -41.1004
L16.4276 -40.8192
L16.3567 -40.5373
L16.2883 -40.2545
L16.2222 -39.9709
L16.1585 -39.6863
L16.0971 -39.4006
L16.0381 -39.1139
L15.9814 -38.8261
L15.9271 -38.537
L15.8752 -38.2467
L15.8257 -37.9551
L15.7786 -37.6621
L15.7339 -37.3676
L15.6916 -37.0716
L15.6518 -36.774
L15.6146 -36.4747
L15.5798 -36.1738
L15.5476 -35.871
L15.518 -35.5664
L15.491 -35.2599
L15.4668 -34.9514
L15.4452 -34.6409
L15.4264 -34.3283
L15.4105 -34.0135
L15.3974 -33.6964
L15.3873 -33.3771
L15.3802 -33.0554
L15.3762 -32.7313
L15.3754 -32.4046
L15.3778 -32.0755
L15.3835 -31.7438
L15.3925 -31.4094
L15.4051 -31.0723
L15.4213 -30.7324
L15.4411 -30.3898
L15.4647 -30.0443
L15.4922 -29.6959
L15.5237 -29.3446
L15.5592 -28.9903
L15.599 -28.633
L15.6432 -28.2728
L15.6917 -27.9095
L15.7449 -27.5431
L15.8028 -27.1737
L15.8656 -26.8012
L15.9333 -26.4257
L16.0062 -26.0472
L16.0843 -25.6656
L16.1678 -25.2811
L16.2569 -24.8937
L16.3517 -24.5034
L16.4522 -24.1103
L16.5587 -23.7144
L16.6713 -23.3159
L16.7901 -22.915
L16.9151 -22.5116
L17.0467 -22.1059
L17.1847 -21.6982
L17.3293 -21.2885
L17.4805 -20.877
L17.6385 -20.4641
L17.8032 -20.0498
L17.9746 -19.6345
L18.1526 -19.2184
L18.3372 -18.8019
L18.5282 -18.3852
L18.7255 -17.9687
L18.9289 -17.5528
L19.1379 -17.1378
L19.3522 -16.7243
L19.5713 -16.3126
L19.7946 -15.9033
L20.0214 -15.4968
L20.2507 -15.0937
L20.4817 -14.6946
L20.7129 -14.3002
L20.9431 -13.9109
L21.1706 -13.5276
L21.3934 -13.1508
L21.6094 -12.7814
L21.8163 -12.4201
L22.0113 -12.0676
L22.1915 -11.7248
L22.354 -11.3924
L21.9898 -11.0711
L21.5588 -11.1814
L21.1322 -11.4297
L20.7101 -11.6854
L20.2927 -11.9486
L19.88 -12.2191
L19.4723 -12.4969
L19.0696 -12.7818
L18.6721 -13.0738
L18.2798 -13.3727
L17.893 -13.6786
L17.5116 -13.9913
L17.1359 -14.3106
L16.7659 -14.6366
L16.4018 -14.9691
L16.0437 -15.308
L15.6916 -15.6531
L15.3457 -16.0045
L15.0061 -16.362
L14.673 -16.7255
L14.3463 -17.0948
L14.0262 -17.4699
L13.7128 -17.8506
L13.4061 -18.2369
L13.1064 -18.6285
L12.8137 -19.0255
L12.528 -19.4276
L12.2494 -19.8348
L11.9781 -20.2469
L11.7141 -20.6638
L11.4575 -21.0854
L11.2084 -21.5115
L10.9668 -21.9421
L10.7329 -22.3769
L10.5066 -22.8158
L10.2881 -23.2588
L10.0775 -23.7057
L9.87474 -24.1563
L9.67995 -24.6105
L9.49317 -25.0682
L9.31446 -25.5292
L9.14389 -25.9934
L8.98149 -26.4606
L8.82733 -26.9308
L8.68144 -27.4037
L8.54388 -27.8793
L8.41467 -28.3573
L8.29388 -28.8376
L8.18152 -29.3201
L8.07763 -29.8047
L7.98225 -30.2911
L7.8954 -30.7793
L7.81712 -31.2691
L7.74742 -31.7603
L7.68632 -32.2528
L7.63385 -32.7464
L7.59002 -33.2411
L7.55485 -33.7366
L7.52834 -34.2327
L7.5105 -34.7294
L7.50134 -35.2265
L7.50086 -35.7239
L7.50906 -36.2213
L7.52594 -36.7186
L7.5515 -37.2157
L7.58572 -37.7125
L7.62859 -38.2087
L7.68011 -38.7043
L7.74025 -39.199
L7.80901 -39.6928
L7.88634 -40.1854
L7.97225 -40.6768
L8.06669 -41.1667
L8.16964 -41.6551
L8.28106 -42.1417
L8.40094 -42.6265
L8.52921 -43.1093
L8.66586 -43.5899
L8.81083 -44.0681
L8.96408 -44.5439
L9.12557 -45.0172
L9.29525 -45.4876
L9.47306 -45.9552
L9.65895 -46.4198
L9.85286 -46.8811
L10.0547 -47.3392
L10.2645 -47.7938
L10.4821 -48.2448
L10.7075 -48.6921
L10.9406 -49.1355
L11.1814 -49.5749
L11.4297 -50.0102
L11.6854 -50.4412
L11.9486 -50.8678
L12.2191 -51.2899
L12.4969 -51.7073
L12.7818 -52.12
L13.0738 -52.5277
L13.3727 -52.9304
L13.6786 -53.3279
L13.9913 -53.7202
L14.3106 -54.107
L14.6366 -54.4884
L14.9691 -54.8641
L15.308 -55.2341
L15.6531 -55.5982
L16.0045 -55.9563
L16.362 -56.3084
L16.7255 -56.6543
L17.0948 -56.9939
L17.4699 -57.327
L17.8506 -57.6537
L18.2369 -57.9738
L18.6285 -58.2872
L19.0255 -58.5939
L19.4276 -58.8936
L19.8348 -59.1863
L20.2469 -59.472
L20.6638 -59.7506
L21.0854 -60.0219
L21.5115 -60.2859
L21.9421 -60.5425
L22.3769 -60.7916
L22.8158 -61.0332
L23.2588 -61.2671
L23.7057 -61.4934
L24.1563 -61.7119
L24.6105 -61.9225
L25.0682 -62.1253
L25.5292 -62.3201
L25.9934 -62.5068
L26.4606 -62.6855
L26.9308 -62.8561
L27.4037 -63.0185
L27.8793 -63.1727
L28.3573 -63.3186
L28.8376 -63.4561
L29.3201 -63.5853
L29.8047 -63.7061
L30.2911 -63.8185
L30.7793 -63.9224
L31.2691 -64.0178
L31.7603 -64.1046
L32.2528 -64.1829
L32.7464 -64.2526
L33.2411 -64.3137
L33.7366 -64.3661
L34.2327 -64.41
L34.7294 -64.4452
L35.2265 -64.4717
L35.7239 -64.4895
L36.2213 -64.4987
z
" id="C0_2_24fef09bc3"/>
    </defs>
    <g clip-path="url(#p1bffca34e9)">
     <use style="fill:#ff0000;stroke:#000000;stroke-width:2.0;" x="0.0" xlink:href="#C0_0_a811fe30f3" y="72.0"/>
    </g>
    <g clip-path="url(#p1bffca34e9)">
     <use style="fill:#ffffff;stroke:#000000;stroke-width:2.0;" x="0.0" xlink:href="#C0_1_506ca0388e" y="72.0"/>
    </g>
    <g clip-path="url(#p1bffca34e9)">
     <use style="fill:#ffffff;stroke:#000000;stroke-width:2.0;" x="0.0" xlink:href="#C0_2_24fef09bc3" y="72.0"/>
    </g>
   </g>
  </g>
 </g>
 <defs>
  <clipPath id="p1bffca34e9">
   <rect height="72.0" width="72.0" x="0.0" y="0.0"/>
  </clipPath>
 </defs>
</svg>
