<?xml version="1.0" encoding="utf-8" standalone="no"?>
<!DOCTYPE svg PUBLIC "-//W3C//DTD SVG 1.1//EN"
  "http://www.w3.org/Graphics/SVG/1.1/DTD/svg11.dtd">
<!-- Created with matplotlib (http://matplotlib.org/) -->
<svg height="72pt" version="1.1" viewBox="0 0 72 72" width="72pt" xmlns="http://www.w3.org/2000/svg" xmlns:xlink="http://www.w3.org/1999/xlink">
 <defs>
  <style type="text/css">
*{stroke-linecap:butt;stroke-linejoin:round;}
  </style>
 </defs>
 <g id="figure_1">
  <g id="patch_1">
   <path d="
M0 72
L72 72
L72 0
L0 0
z
" style="fill:none;"/>
  </g>
  <g id="axes_1">
   <g id="PatchCollection_1">
    <defs>
     <path d="
M36 -7.5
C43.5583 -7.5 50.808 -10.5029 56.1525 -15.8475
C61.4971 -21.192 64.5 -28.4417 64.5 -36
C64.5 -43.5583 61.4971 -50.808 56.1525 -56.1525
C50.808 -61.4971 43.5583 -64.5 36 -64.5
C28.4417 -64.5 21.192 -61.4971 15.8475 -56.1525
C10.5029 -50.808 7.5 -43.5583 7.5 -36
C7.5 -28.4417 10.5029 -21.192 15.8475 -15.8475
C21.192 -10.5029 28.4417 -7.5 36 -7.5
z
" id="C0_0_a811fe30f3"/>
     <path d="
M12.8369 -19.7198
L12.9806 -19.8441
L13.1246 -19.9681
L13.2688 -20.092
L13.4134 -20.2157
L13.5582 -20.3392
L13.7035 -20.4626
L13.8491 -20.586
L13.9951 -20.7093
L14.1416 -20.8326
L14.2885 -20.9559
L14.4359 -21.0793
L14.5838 -21.2027
L14.7322 -21.3262
L14.8812 -21.4499
L15.0308 -21.5737
L15.181 -21.6978
L15.3319 -21.822
L15.4835 -21.9466
L15.6359 -22.0714
L15.9429 -22.1966
L16.0977 -22.3221
L16.2534 -22.4481
L16.41 -22.5744
L16.5676 -22.7013
L16.7262 -22.8287
L16.8859 -22.9566
L17.0467 -23.0851
L17.2087 -23.2142
L17.3718 -23.344
L17.5362 -23.4744
L17.7019 -23.6056
L17.869 -23.7376
L18.0374 -23.8704
L18.2074 -24.0041
L18.3788 -24.1387
L18.5518 -24.2742
L18.7265 -24.4107
L18.9028 -24.5482
L19.0808 -24.6868
L19.2607 -24.8265
L19.4425 -24.9674
L19.6261 -25.1094
L19.8118 -25.2528
L19.9995 -25.3974
L20.1894 -25.5434
L20.3814 -25.6908
L20.5757 -25.8396
L20.7724 -25.99
L20.9714 -26.1419
L21.173 -26.2954
L21.3771 -26.4505
L21.5838 -26.6074
L21.7932 -26.766
L22.0055 -26.9264
L22.2205 -27.0887
L22.4386 -27.253
L22.6596 -27.4192
L22.8838 -27.5874
L23.1111 -27.7577
L23.3417 -27.9302
L23.5756 -28.1048
L23.813 -28.2817
L24.0539 -28.461
L24.2983 -28.6425
L24.5464 -28.8265
L24.7983 -29.013
L25.054 -29.2019
L25.3135 -29.3935
L25.5771 -29.5876
L25.8447 -29.7845
L26.1163 -29.984
L26.3922 -30.1863
L26.6723 -30.3913
L26.9566 -30.5992
L27.2453 -30.81
L27.5384 -31.0237
L27.8359 -31.2402
L28.1379 -31.4597
L28.4443 -31.6822
L28.7553 -31.9077
L29.0707 -32.1361
L29.3907 -32.3675
L29.7151 -32.6019
L30.044 -32.8393
L30.3773 -33.0796
L30.7149 -33.3228
L31.0569 -33.5689
L31.4031 -33.8179
L31.7534 -34.0697
L32.1077 -34.3242
L32.4659 -34.5814
L32.8277 -34.8412
L33.193 -35.1035
L33.5616 -35.3683
L33.9331 -35.6354
L34.3074 -35.9047
L34.6839 -36.1762
L35.0624 -36.4496
L35.4421 -36.725
L35.8226 -37.0023
L36.2029 -37.2812
L36.5819 -37.5618
L36.958 -37.8441
L37.329 -38.1281
L37.6914 -38.4139
L38.0394 -38.7021
L38.3635 -38.9934
L38.647 -39.2894
L38.8632 -39.5929
L38.9797 -39.9088
L38.9796 -40.2428
L38.8789 -40.5977
L38.7097 -40.9699
L38.4982 -41.3529
L38.2609 -41.7412
L38.0073 -42.1315
L37.7431 -42.5216
L37.4716 -42.9104
L37.1951 -43.2968
L36.9151 -43.6802
L36.6327 -44.0603
L36.3488 -44.4365
L36.0638 -44.8086
L35.7784 -45.1762
L35.493 -45.5393
L35.2079 -45.8975
L34.9234 -46.2506
L34.6398 -46.5986
L34.3572 -46.9414
L34.076 -47.2787
L33.7963 -47.6105
L33.5183 -47.9368
L33.242 -48.2574
L32.9677 -48.5724
L32.6954 -48.8817
L32.4252 -49.1853
L32.1573 -49.4833
L31.8916 -49.7755
L31.6282 -50.0621
L31.3673 -50.3431
L31.1087 -50.6185
L30.8527 -50.8884
L30.5991 -51.1528
L30.348 -51.4118
L30.0995 -51.6655
L29.8534 -51.9139
L29.6099 -52.1571
L29.3688 -52.3952
L29.1302 -52.6283
L28.8941 -52.8565
L28.6604 -53.0799
L28.4292 -53.2985
L28.2003 -53.5125
L27.9738 -53.7219
L27.7495 -53.9269
L27.5275 -54.1275
L27.3078 -54.3238
L27.0902 -54.516
L26.8747 -54.7041
L26.6614 -54.8883
L26.45 -55.0685
L26.2406 -55.245
L26.0332 -55.4178
L25.8276 -55.5869
L25.6238 -55.7526
L25.4219 -55.9148
L25.2216 -56.0736
L25.0229 -56.2292
L24.8259 -56.3815
L24.6304 -56.5308
L24.4363 -56.677
L24.2437 -56.8202
L24.0525 -56.9606
L23.8625 -57.0981
L23.6739 -57.2328
L23.4864 -57.3649
L23.3 -57.4943
L23.1148 -57.6211
L22.9305 -57.7454
L22.7472 -57.8673
L22.5649 -57.9867
L22.3834 -58.1038
L22.2027 -58.2185
L22.0227 -58.331
L21.8434 -58.4413
L21.6647 -58.5493
L21.4867 -58.6552
L21.3091 -58.7591
L21.132 -58.8608
L20.9553 -58.9605
L20.7789 -59.0582
L20.6028 -59.1538
L20.427 -59.2476
L20.2513 -59.3394
L20.0758 -59.4292
L19.6111 -59.5172
L19.2066 -59.3164
L18.8073 -59.0268
L18.4133 -58.7302
L18.0245 -58.4267
L17.6413 -58.1163
L17.2636 -57.7993
L16.8917 -57.4755
L16.5256 -57.1453
L16.1654 -56.8086
L15.8112 -56.4655
L15.4632 -56.1162
L15.1215 -55.7608
L14.7861 -55.3994
L14.4572 -55.0321
L14.1348 -54.6589
L13.8191 -54.2801
L13.5101 -53.8957
L13.2081 -53.5059
L12.9129 -53.1107
L12.6248 -52.7104
L12.3438 -52.3049
L12.07 -51.8944
L11.8035 -51.4792
L11.5444 -51.0592
L11.2927 -50.6346
L11.0485 -50.2056
L10.812 -49.7722
L10.5831 -49.3346
L10.3619 -48.893
L10.1486 -48.4475
L9.94313 -47.9981
L9.74561 -47.5451
L9.55609 -47.0886
L9.37462 -46.6287
L9.20126 -46.1656
L9.03606 -45.6994
L8.87908 -45.2302
L8.73036 -44.7582
L8.58995 -44.2835
L8.45788 -43.8063
L8.33421 -43.3268
L8.21896 -42.845
L8.11217 -42.3611
L8.01388 -41.8753
L7.92412 -41.3877
L7.8429 -40.8984
L7.77027 -40.4077
L7.70623 -39.9156
L7.65081 -39.4224
L7.60403 -38.928
L7.56589 -38.4328
L7.53642 -37.9369
L7.51562 -37.4403
L7.50349 -36.9434
L7.50005 -36.4461
L7.50528 -35.9487
L7.5192 -35.4513
L7.54179 -34.9541
L7.57305 -34.4572
L7.61297 -33.9608
L7.66153 -33.465
L7.71873 -32.9699
L7.78454 -32.4758
L7.85895 -31.9828
L7.94193 -31.491
L8.03346 -31.0005
L8.1335 -30.5116
L8.24204 -30.0244
L8.35903 -29.5389
L8.48444 -29.0555
L8.61823 -28.5741
L8.76036 -28.095
L8.91078 -27.6184
L9.06946 -27.1442
L9.23635 -26.6728
L9.41138 -26.2042
L9.59452 -25.7386
L9.7857 -25.2762
L9.98486 -24.817
L10.1919 -24.3612
L10.4069 -23.9089
L10.6296 -23.4603
L10.8601 -23.0156
L11.0982 -22.5748
L11.344 -22.1381
L11.5972 -21.7056
L11.8579 -21.2775
L12.1259 -20.8538
z
" id="C0_1_3c158c62bf"/>
     <path d="
M52.0193 -12.5146
L52.0024 -12.7095
L51.9838 -12.9048
L51.9636 -13.1004
L51.9418 -13.2965
L51.9183 -13.4929
L51.8933 -13.6899
L51.8667 -13.8874
L51.8385 -14.0856
L51.8088 -14.2844
L51.7775 -14.484
L51.7446 -14.6843
L51.7101 -14.8855
L51.6741 -15.0877
L51.6365 -15.2908
L51.5972 -15.495
L51.5564 -15.7002
L51.514 -15.9067
L51.4699 -16.1144
L51.4242 -16.3233
L51.3768 -16.5336
L51.3277 -16.7454
L51.2769 -16.9587
L51.2244 -17.1735
L51.1701 -17.3899
L51.114 -17.6081
L51.0561 -17.8281
L50.9964 -18.0498
L50.9347 -18.2735
L50.8712 -18.4992
L50.8057 -18.727
L50.7382 -18.9569
L50.6686 -19.1891
L50.597 -19.4235
L50.5233 -19.6603
L50.4474 -19.8996
L50.3692 -20.1413
L50.2888 -20.3857
L50.2061 -20.6328
L50.1209 -20.8827
L50.0334 -21.1354
L49.9433 -21.3911
L49.8507 -21.6497
L49.7555 -21.9115
L49.6576 -22.1764
L49.5569 -22.4445
L49.4534 -22.716
L49.3471 -22.991
L49.2378 -23.2693
L49.1254 -23.5513
L49.01 -23.8369
L48.8914 -24.1262
L48.7696 -24.4193
L48.6445 -24.7162
L48.516 -25.017
L48.384 -25.3217
L48.2485 -25.6305
L48.1095 -25.9434
L47.9667 -26.2604
L47.8202 -26.5815
L47.6699 -26.9068
L47.5157 -27.2363
L47.3576 -27.57
L47.1954 -27.908
L47.0293 -28.2503
L46.859 -28.5967
L46.6846 -28.9474
L46.506 -29.3023
L46.3232 -29.6613
L46.1362 -30.0244
L45.9449 -30.3916
L45.7494 -30.7627
L45.5496 -31.1377
L45.3456 -31.5165
L45.1374 -31.8989
L44.9251 -32.2848
L44.7087 -32.674
L44.4884 -33.0665
L44.2643 -33.4619
L44.0365 -33.8601
L43.8052 -34.2608
L43.5707 -34.6638
L43.3334 -35.0689
L43.0935 -35.4756
L42.8518 -35.8838
L42.6088 -36.2929
L42.3657 -36.7026
L42.1238 -37.1123
L41.8854 -37.5213
L41.6538 -37.9287
L41.4346 -38.3332
L41.2374 -38.7326
L41.0785 -39.1236
L40.9846 -39.5009
L40.9882 -39.8581
L41.1059 -40.192
L41.3218 -40.5056
L41.6036 -40.8049
L41.9249 -41.0948
L42.2693 -41.3783
L42.6272 -41.6569
L42.9929 -41.9315
L43.363 -42.2025
L43.7352 -42.4702
L44.1079 -42.7346
L44.48 -42.9958
L44.8508 -43.2537
L45.2195 -43.5084
L45.5857 -43.7596
L45.9489 -44.0075
L46.3088 -44.2518
L46.6652 -44.4926
L47.0177 -44.7299
L47.3662 -44.9634
L47.7106 -45.1933
L48.0506 -45.4195
L48.3861 -45.6419
L48.7171 -45.8605
L49.0435 -46.0754
L49.3652 -46.2865
L49.6822 -46.4938
L49.9944 -46.6974
L50.3019 -46.8972
L50.6045 -47.0933
L50.9025 -47.2858
L51.1956 -47.4745
L51.4841 -47.6597
L51.7679 -47.8413
L52.047 -48.0194
L52.3216 -48.194
L52.5916 -48.3651
L52.8571 -48.5329
L53.1183 -48.6975
L53.3751 -48.8587
L53.6276 -49.0168
L53.876 -49.1718
L54.1202 -49.3237
L54.3604 -49.4726
L54.5967 -49.6185
L54.8292 -49.7617
L55.0578 -49.902
L55.2828 -50.0396
L55.5041 -50.1745
L55.722 -50.3068
L55.9364 -50.4365
L56.1475 -50.5638
L56.3553 -50.6887
L56.56 -50.8112
L56.7616 -50.9314
L56.9602 -51.0494
L57.1558 -51.1651
L57.3487 -51.2788
L57.5387 -51.3904
L57.7261 -51.5
L57.9109 -51.6076
L58.0932 -51.7133
L58.2731 -51.8171
L58.4505 -51.9191
L58.6257 -52.0194
L58.7987 -52.1179
L58.9694 -52.2147
L59.1382 -52.3099
L59.5884 -52.4036
L59.864 -51.9949
L60.1323 -51.5808
L60.3932 -51.1619
L60.6467 -50.7385
L60.8927 -50.3105
L61.1311 -49.8782
L61.3619 -49.4416
L61.5849 -49.001
L61.8002 -48.5564
L62.0075 -48.1079
L62.207 -47.6558
L62.3985 -47.2002
L62.5819 -46.7411
L62.7573 -46.2787
L62.9244 -45.8132
L63.0834 -45.3448
L63.2342 -44.8734
L63.3766 -44.3994
L63.5107 -43.9228
L63.6364 -43.4438
L63.7537 -42.9626
L63.8626 -42.4792
L63.963 -41.9938
L64.0548 -41.5067
L64.1381 -41.0178
L64.2128 -40.5274
L64.279 -40.0356
L64.3365 -39.5426
L64.3854 -39.0486
L64.4256 -38.5536
L64.4572 -38.0578
L64.4801 -37.5614
L64.4944 -37.0645
L64.4999 -36.5673
L64.4968 -36.0699
L64.485 -35.5725
L64.4645 -35.0752
L64.4354 -34.5782
L64.3976 -34.0817
L64.3511 -33.5857
L64.296 -33.0905
L64.2323 -32.5961
L64.16 -32.1028
L64.0791 -31.6107
L63.9896 -31.1199
L63.8917 -30.6306
L63.7852 -30.1429
L63.6703 -29.657
L63.5469 -29.1731
L63.4151 -28.6912
L63.275 -28.2116
L63.1266 -27.7343
L62.97 -27.2595
L62.8051 -26.7874
L62.632 -26.3181
L62.4508 -25.8518
L62.2616 -25.3886
L62.0644 -24.9285
L61.8592 -24.4719
L61.6462 -24.0188
L61.4253 -23.5693
L61.1967 -23.1236
L60.9605 -22.6818
L60.7166 -22.2441
L60.4652 -21.8106
L60.2063 -21.3814
L59.9401 -20.9566
L59.6666 -20.5365
L59.3859 -20.121
L59.098 -19.7104
L58.8031 -19.3047
L58.5013 -18.9042
L58.1926 -18.5088
L57.8771 -18.1187
L57.555 -17.7342
L57.2263 -17.3551
L56.8912 -16.9818
L56.5497 -16.6142
L56.2019 -16.2526
L55.848 -15.8969
L55.488 -15.5474
L55.1221 -15.2042
L54.7504 -14.8672
L54.3729 -14.5367
L53.9899 -14.2127
L53.6014 -13.8954
L53.2075 -13.5848
L52.8084 -13.281
z
" id="C0_2_48ba044b5b"/>
    </defs>
    <g clip-path="url(#p1bffca34e9)">
     <use style="fill:#ffffff;stroke:#000000;stroke-width:2.0;" x="0.0" xlink:href="#C0_0_a811fe30f3" y="72.0"/>
    </g>
    <g clip-path="url(#p1bffca34e9)">
     <use style="fill:#ff0000;stroke:#000000;stroke-width:2.0;" x="0.0" xlink:href="#C0_1_3c158c62bf" y="72.0"/>
    </g>
    <g clip-path="url(#p1bffca34e9)">
     <use style="fill:#ff0000;stroke:#000000;stroke-width:2.0;" x="0.0" xlink:href="#C0_2_48ba044b5b" y="72.0"/>
    </g>
   </g>
  </g>
 </g>
 <defs>
  <clipPath id="p1bffca34e9">
   <rect height="72.0" width="72.0" x="0.0" y="0.0"/>
  </clipPath>
 </defs>
</svg>
