<?xml version="1.0" encoding="utf-8" standalone="no"?>
<!DOCTYPE svg PUBLIC "-//W3C//DTD SVG 1.1//EN"
  "http://www.w3.org/Graphics/SVG/1.1/DTD/svg11.dtd">
<!-- Created with matplotlib (http://matplotlib.org/) -->
<svg height="72pt" version="1.1" viewBox="0 0 72 72" width="72pt" xmlns="http://www.w3.org/2000/svg" xmlns:xlink="http://www.w3.org/1999/xlink">
 <defs>
  <style type="text/css">
*{stroke-linecap:butt;stroke-linejoin:round;}
  </style>
 </defs>
 <g id="figure_1">
  <g id="patch_1">
   <path d="
M0 72
L72 72
L72 0
L0 0
z
" style="fill:none;"/>
  </g>
  <g id="axes_1">
   <g id="PatchCollection_1">
    <defs>
     <path d="
M36 -7.5
C43.5583 -7.5 50.808 -10.5029 56.1525 -15.8475
C61.4971 -21.192 64.5 -28.4417 64.5 -36
C64.5 -43.5583 61.4971 -50.808 56.1525 -56.1525
C50.808 -61.4971 43.5583 -64.5 36 -64.5
C28.4417 -64.5 21.192 -61.4971 15.8475 -56.1525
C10.5029 -50.808 7.5 -43.5583 7.5 -36
C7.5 -28.4417 10.5029 -21.192 15.8475 -15.8475
C21.192 -10.5029 28.4417 -7.5 36 -7.5
z
" id="C0_0_a811fe30f3"/>
     <path d="
M33.3131 -7.74782
L33.0781 -7.97484
L32.8661 -8.20781
L32.6775 -8.44621
L32.512 -8.68956
L32.3695 -8.93739
L32.2496 -9.18928
L32.1518 -9.44483
L32.0752 -9.70368
L32.0191 -9.96552
L31.9825 -10.23
L31.9643 -10.497
L31.9635 -10.7662
L31.9789 -11.0373
L32.0093 -11.3103
L32.0536 -11.5849
L32.1106 -11.8611
L32.1792 -12.1385
L32.2584 -12.4172
L32.3472 -12.697
L32.4446 -12.9778
L32.5498 -13.2594
L32.6618 -13.5417
L32.7799 -13.8247
L32.9035 -14.1081
L33.0318 -14.3919
L33.1642 -14.6761
L33.3002 -14.9604
L33.4392 -15.2447
L33.5809 -15.529
L33.7248 -15.8132
L33.8704 -16.0972
L34.0176 -16.3808
L34.1659 -16.6641
L34.3151 -16.9468
L34.4649 -17.229
L34.6151 -17.5105
L34.7654 -17.7914
L34.9158 -18.0714
L35.066 -18.3506
L35.216 -18.629
L35.3654 -18.9063
L35.5144 -19.1827
L35.6626 -19.4581
L35.8102 -19.7324
L35.9569 -20.0056
L36.1027 -20.2777
L36.2476 -20.5486
L36.3915 -20.8184
L36.5344 -21.087
L36.6762 -21.3543
L36.8168 -21.6205
L36.9564 -21.8855
L37.0948 -22.1493
L37.2321 -22.4119
L37.3682 -22.6733
L37.5032 -22.9336
L37.637 -23.1926
L37.7696 -23.4505
L37.901 -23.7072
L38.0313 -23.9628
L38.1605 -24.2174
L38.2885 -24.4708
L38.4153 -24.7232
L38.5411 -24.9745
L38.6658 -25.2248
L38.7894 -25.4742
L38.912 -25.7226
L39.0335 -25.9702
L39.154 -26.2168
L39.2735 -26.4626
L39.392 -26.7076
L39.5096 -26.9519
L39.6262 -27.1954
L39.7419 -27.4382
L39.8568 -27.6803
L39.9707 -27.9219
L40.0839 -28.1628
L40.1962 -28.4033
L40.3077 -28.6432
L40.4184 -28.8827
L40.5284 -29.1218
L40.6377 -29.3606
L40.7462 -29.599
L40.8541 -29.8372
L40.9614 -30.0751
L41.068 -30.3129
L41.1739 -30.5505
L41.2793 -30.788
L41.3842 -31.0255
L41.4884 -31.263
L41.5922 -31.5005
L41.6955 -31.7381
L41.9005 -31.9759
L42.0024 -32.2139
L42.1039 -32.4521
L42.2049 -32.6906
L42.3056 -32.9294
L42.4059 -33.1686
L42.5059 -33.4082
L42.6056 -33.6483
L42.7049 -33.889
L42.804 -34.1302
L42.9028 -34.372
L43.0014 -34.6145
L43.0997 -34.8577
L43.1978 -35.1017
L43.2957 -35.3465
L43.3935 -35.5922
L43.491 -35.8388
L43.5885 -36.0863
L43.6857 -36.3348
L43.7829 -36.5844
L43.88 -36.8351
L43.9769 -37.0869
L44.0738 -37.34
L44.1706 -37.5942
L44.2674 -37.8498
L44.3641 -38.1066
L44.4608 -38.3649
L44.5575 -38.6245
L44.6542 -38.8856
L44.7509 -39.1482
L44.8477 -39.4123
L44.9444 -39.678
L45.0412 -39.9452
L45.1381 -40.2142
L45.235 -40.4847
L45.332 -40.757
L45.4291 -41.031
L45.5263 -41.3067
L45.6235 -41.5842
L45.7209 -41.8635
L45.8185 -42.1446
L45.9161 -42.4275
L46.0139 -42.7122
L46.1119 -42.9987
L46.2101 -43.287
L46.3084 -43.5771
L46.407 -43.869
L46.5057 -44.1627
L46.6048 -44.4581
L46.704 -44.7552
L46.8036 -45.054
L46.9035 -45.3543
L47.0037 -45.6562
L47.1043 -45.9595
L47.2053 -46.2643
L47.3068 -46.5703
L47.4088 -46.8774
L47.5114 -47.1856
L47.6146 -47.4948
L47.7186 -47.8046
L47.8233 -48.1151
L47.9289 -48.4259
L48.0356 -48.7369
L48.1433 -49.0479
L48.2524 -49.3585
L48.3629 -49.6686
L48.475 -49.9777
L48.5889 -50.2856
L48.7049 -50.5919
L48.8231 -50.8962
L48.944 -51.1981
L49.0677 -51.4971
L49.1947 -51.7927
L49.3254 -52.0843
L49.46 -52.3715
L49.5991 -52.6534
L49.7433 -52.9295
L49.8929 -53.1991
L50.0486 -53.4615
L50.2109 -53.7157
L50.3804 -53.9609
L50.5578 -54.1964
L50.7437 -54.4212
L50.9386 -54.6344
L51.1432 -54.835
L51.3581 -55.0221
L51.5836 -55.1949
L51.8203 -55.3523
L52.0683 -55.4936
L52.328 -55.618
L52.5994 -55.7248
L52.8826 -55.8134
L53.1772 -55.8831
L53.483 -55.9336
L53.7996 -55.9647
L54.1264 -55.976
L54.4627 -55.9675
L54.8078 -55.9392
L55.1609 -55.8913
L55.5211 -55.8239
L55.8874 -55.7373
L56.2589 -55.6318
L56.6347 -55.508
L57.0137 -55.3661
L57.3691 -55.2067
L57.695 -54.8577
L58.0142 -54.4818
L58.3268 -54.1004
L58.6325 -53.7134
L58.9313 -53.3211
L59.2232 -52.9235
L59.508 -52.5207
L59.7856 -52.1129
L60.056 -51.7001
L60.3191 -51.2826
L60.5747 -50.8605
L60.8229 -50.4338
L61.0635 -50.0027
L61.2964 -49.5673
L61.5217 -49.1278
L61.7392 -48.6844
L61.9488 -48.237
L62.1506 -47.7859
L62.3443 -47.3313
L62.5301 -46.8732
L62.7078 -46.4117
L62.8773 -45.9471
L63.0386 -45.4795
L63.1918 -45.009
L63.3366 -44.5357
L63.4731 -44.0599
L63.6012 -43.5815
L63.7209 -43.1009
L63.8322 -42.6181
L63.935 -42.1333
L64.0293 -41.6467
L64.1151 -41.1583
L64.1923 -40.6683
L64.2609 -40.1769
L64.3209 -39.6842
L64.3722 -39.1905
L64.4149 -38.6957
L64.449 -38.2001
L64.4744 -37.7039
L64.4912 -37.2071
L64.4992 -36.71
L64.4986 -36.2127
L64.4893 -35.7152
L64.4713 -35.2179
L64.4446 -34.7208
L64.4093 -34.2241
L64.3653 -33.728
L64.3127 -33.2325
L64.2515 -32.7379
L64.1816 -32.2443
L64.1032 -31.7518
L64.0162 -31.2606
L63.9206 -30.7708
L63.8166 -30.2827
L63.7041 -29.7963
L63.5832 -29.3118
L63.4538 -28.8293
L63.3161 -28.349
L63.1701 -27.871
L63.0158 -27.3955
L62.8532 -26.9226
L62.6825 -26.4525
L62.5037 -25.9853
L62.3167 -25.5212
L62.1218 -25.0602
L61.9189 -24.6026
L61.7081 -24.1484
L61.4895 -23.6979
L61.2631 -23.2511
L61.0291 -22.8082
L60.7874 -22.3693
L60.5381 -21.9346
L60.2814 -21.5041
L60.0173 -21.0781
L59.7458 -20.6566
L59.4672 -20.2397
L59.1813 -19.8277
L58.8885 -19.4206
L58.5886 -19.0186
L58.2819 -18.6217
L57.9684 -18.2301
L57.6481 -17.844
L57.3213 -17.4633
L56.988 -17.0883
L56.6483 -16.7191
L56.3024 -16.3558
L55.9502 -15.9984
L55.5919 -15.6471
L55.2277 -15.302
L54.8577 -14.9633
L54.4818 -14.6309
L54.1004 -14.305
L53.7134 -13.9858
L53.3211 -13.6732
L52.9235 -13.3675
L52.5207 -13.0687
L52.1129 -12.7768
L51.7001 -12.492
L51.2826 -12.2144
L50.8605 -11.944
L50.4338 -11.6809
L50.0027 -11.4253
L49.5673 -11.1771
L49.1278 -10.9365
L48.6844 -10.7036
L48.237 -10.4783
L47.7859 -10.2608
L47.3313 -10.0512
L46.8732 -9.84943
L46.4117 -9.65566
L45.9471 -9.46991
L45.4795 -9.29224
L45.009 -9.1227
L44.5357 -8.96136
L44.0599 -8.80825
L43.5815 -8.66342
L43.1009 -8.52692
L42.6181 -8.39879
L42.1333 -8.27906
L41.6467 -8.16778
L41.1583 -8.06498
L40.6683 -7.97069
L40.1769 -7.88493
L39.6842 -7.80774
L39.1905 -7.73914
L38.6957 -7.67914
L38.2001 -7.62778
L37.7039 -7.58505
L37.2071 -7.55098
L36.71 -7.52558
L36.2127 -7.50885
L35.7152 -7.50079
L35.2179 -7.50142
L34.7208 -7.51073
L34.2241 -7.52872
z
" id="C0_1_a3cf4ea147"/>
     <path d="
M14.8055 -17.1482
L14.67 -17.55
L14.5344 -17.9562
L14.3997 -18.3663
L14.2664 -18.7797
L14.1352 -19.1959
L14.0067 -19.6144
L13.8814 -20.0348
L13.7596 -20.4566
L13.6417 -20.8795
L13.5281 -21.3031
L13.4189 -21.7269
L13.3145 -22.1507
L13.215 -22.5742
L13.1205 -22.9969
L13.0312 -23.4187
L12.947 -23.8393
L12.8682 -24.2585
L12.7946 -24.6761
L12.7263 -25.0918
L12.6633 -25.5054
L12.6056 -25.9169
L12.553 -26.3261
L12.5057 -26.7328
L12.4634 -27.1369
L12.4262 -27.5383
L12.3938 -27.937
L12.3664 -28.3328
L12.3437 -28.7257
L12.3257 -29.1157
L12.3123 -29.5026
L12.3034 -29.8865
L12.2989 -30.2674
L12.2987 -30.6451
L12.3027 -31.0197
L12.3108 -31.3913
L12.3229 -31.7597
L12.3389 -32.1251
L12.3587 -32.4873
L12.3823 -32.8465
L12.4095 -33.2027
L12.4403 -33.5559
L12.4746 -33.9061
L12.5123 -34.2533
L12.5533 -34.5977
L12.5976 -34.9391
L12.6451 -35.2778
L12.6957 -35.6137
L12.7493 -35.9469
L12.806 -36.2774
L12.8656 -36.6053
L12.9281 -36.9306
L12.9935 -37.2534
L13.0616 -37.5737
L13.1325 -37.8916
L13.2061 -38.2072
L13.2823 -38.5205
L13.3613 -38.8315
L13.4428 -39.1404
L13.5269 -39.4471
L13.6135 -39.7517
L13.7027 -40.0544
L13.7944 -40.355
L13.8886 -40.6538
L13.9852 -40.9508
L14.0844 -41.2459
L14.186 -41.5393
L14.29 -41.8311
L14.3965 -42.1212
L14.5054 -42.4097
L14.6168 -42.6968
L14.7307 -42.9823
L14.847 -43.2665
L14.9657 -43.5492
L15.087 -43.8307
L15.2107 -44.1109
L15.3369 -44.3899
L15.4657 -44.6677
L15.597 -44.9444
L15.7309 -45.22
L15.8674 -45.4945
L16.0065 -45.7681
L16.1482 -46.0407
L16.2927 -46.3124
L16.4398 -46.5832
L16.5897 -46.8532
L16.7424 -47.1223
L16.8979 -47.3907
L17.0563 -47.6584
L17.2176 -47.9254
L17.3819 -48.1916
L17.5491 -48.4573
L17.7195 -48.7223
L17.8929 -48.9867
L18.0695 -49.2506
L18.2494 -49.5138
L18.4325 -49.7766
L18.6189 -50.0388
L18.8088 -50.3006
L19.0021 -50.5618
L19.1989 -50.8225
L19.3994 -51.0828
L19.6035 -51.3426
L19.8113 -51.6019
L20.0229 -51.8607
L20.2384 -52.1191
L20.4578 -52.377
L20.6813 -52.6343
L20.9088 -52.8912
L21.1405 -53.1475
L21.3764 -53.4032
L21.6166 -53.6584
L21.8612 -53.913
L22.1102 -54.1669
L22.3637 -54.4201
L22.6218 -54.6726
L22.8845 -54.9244
L23.152 -55.1753
L23.4242 -55.4253
L23.7013 -55.6744
L23.9832 -55.9225
L24.2701 -56.1696
L24.5619 -56.4154
L24.8587 -56.6601
L25.1606 -56.9034
L25.4675 -57.1454
L25.7795 -57.3858
L26.0966 -57.6247
L26.4187 -57.8619
L26.7459 -58.0973
L27.0781 -58.3308
L27.4152 -58.5624
L27.7573 -58.7918
L28.1041 -59.019
L28.4556 -59.2438
L28.8117 -59.4663
L29.1723 -59.6862
L29.537 -59.9034
L29.9058 -60.1179
L30.2784 -60.3296
L30.6546 -60.5383
L31.0339 -60.744
L31.4162 -60.9467
L31.8009 -61.1463
L32.1877 -61.3428
L32.5761 -61.5362
L32.9656 -61.7264
L33.3555 -61.9136
L33.7453 -62.0978
L34.1343 -62.2791
L34.5218 -62.4577
L34.9068 -62.6337
L35.2887 -62.8074
L35.6664 -62.9789
L36.0391 -63.1488
L36.4056 -63.3171
L36.765 -63.4845
L37.1161 -63.6512
L37.4579 -63.8177
L37.7892 -63.9844
L38.109 -64.152
L37.9267 -64.3208
L37.4301 -64.4348
L36.9332 -64.4641
L36.4359 -64.4847
L35.9385 -64.4967
L35.4411 -64.4999
L34.9439 -64.4945
L34.447 -64.4804
L33.9506 -64.4577
L33.4548 -64.4262
L32.9598 -64.3861
L32.4657 -64.3374
L31.9727 -64.28
L31.4809 -64.214
L30.9905 -64.1394
L30.5016 -64.0563
L30.0144 -63.9646
L29.529 -63.8644
L29.0456 -63.7556
L28.5643 -63.6385
L28.0852 -63.5129
L27.6086 -63.3789
L27.1345 -63.2366
L26.6632 -63.086
L26.1946 -62.9272
L25.7291 -62.7601
L25.2667 -62.5849
L24.8076 -62.4016
L24.3518 -62.2103
L23.8997 -62.011
L23.4512 -61.8037
L23.0065 -61.5886
L22.5658 -61.3657
L22.1292 -61.1351
L21.6968 -60.8968
L21.2687 -60.6509
L20.8452 -60.3975
L20.4262 -60.1367
L20.012 -59.8686
L19.6027 -59.5931
L19.1984 -59.3105
L18.7992 -59.0208
L18.4052 -58.724
L18.0166 -58.4204
L17.6335 -58.1099
L17.2559 -57.7927
L16.8841 -57.4688
L16.5181 -57.1384
L16.158 -56.8016
L15.804 -56.4584
L15.4561 -56.109
L15.1145 -55.7535
L14.7793 -55.3919
L14.4505 -55.0245
L14.1282 -54.6512
L13.8127 -54.2723
L13.5039 -53.8878
L13.2019 -53.4978
L12.9069 -53.1026
L12.6189 -52.7021
L12.3381 -52.2965
L12.0644 -51.886
L11.7981 -51.4706
L11.5391 -51.0505
L11.2876 -50.6258
L11.0436 -50.1967
L10.8072 -49.7632
L10.5784 -49.3256
L10.3575 -48.8839
L10.1443 -48.4383
L9.93899 -47.9888
L9.74164 -47.5358
L9.55228 -47.0792
L9.37097 -46.6192
L9.19778 -46.156
L9.03276 -45.6897
L8.87594 -45.2205
L8.72739 -44.7485
L8.58715 -44.2737
L8.45526 -43.7965
L8.33175 -43.3169
L8.21668 -42.8351
L8.11007 -42.3512
L8.01195 -41.8653
L7.92236 -41.3777
L7.84132 -40.8884
L7.76886 -40.3976
L7.705 -39.9055
L7.64976 -39.4122
L7.60316 -38.9179
L7.5652 -38.4227
L7.53591 -37.9267
L7.51528 -37.4301
L7.50333 -36.9332
L7.50007 -36.4359
L7.50548 -35.9385
L7.51957 -35.4411
L7.54234 -34.9439
L7.57378 -34.447
L7.61388 -33.9506
L7.66262 -33.4548
L7.72 -32.9598
L7.78599 -32.4657
L7.86057 -31.9727
L7.94373 -31.4809
L8.03543 -30.9905
L8.13565 -30.5016
L8.24436 -30.0144
L8.36152 -29.529
L8.4871 -29.0456
L8.62106 -28.5643
L8.76336 -28.0852
L8.91396 -27.6086
L9.07281 -27.1345
L9.23986 -26.6632
L9.41507 -26.1946
L9.59837 -25.7291
L9.78971 -25.2667
L9.98904 -24.8076
L10.1963 -24.3518
L10.4114 -23.8997
L10.6343 -23.4512
L10.8649 -23.0065
L11.1032 -22.5658
L11.3491 -22.1292
L11.6025 -21.6968
L11.8633 -21.2687
L12.1314 -20.8452
L12.4069 -20.4262
L12.6895 -20.012
L12.9792 -19.6027
L13.276 -19.1984
L13.5796 -18.7992
L13.8901 -18.4052
L14.2073 -18.0166
z
" id="C0_2_b4cc343739"/>
    </defs>
    <g clip-path="url(#p1bffca34e9)">
     <use style="fill:#ff0000;stroke:#000000;stroke-width:2.0;" x="0.0" xlink:href="#C0_0_a811fe30f3" y="72.0"/>
    </g>
    <g clip-path="url(#p1bffca34e9)">
     <use style="fill:#ffffff;stroke:#000000;stroke-width:2.0;" x="0.0" xlink:href="#C0_1_a3cf4ea147" y="72.0"/>
    </g>
    <g clip-path="url(#p1bffca34e9)">
     <use style="fill:#ffffff;stroke:#000000;stroke-width:2.0;" x="0.0" xlink:href="#C0_2_b4cc343739" y="72.0"/>
    </g>
   </g>
  </g>
 </g>
 <defs>
  <clipPath id="p1bffca34e9">
   <rect height="72.0" width="72.0" x="0.0" y="0.0"/>
  </clipPath>
 </defs>
</svg>
