<?xml version="1.0" encoding="utf-8" standalone="no"?>
<!DOCTYPE svg PUBLIC "-//W3C//DTD SVG 1.1//EN"
  "http://www.w3.org/Graphics/SVG/1.1/DTD/svg11.dtd">
<!-- Created with matplotlib (http://matplotlib.org/) -->
<svg height="72pt" version="1.1" viewBox="0 0 72 72" width="72pt" xmlns="http://www.w3.org/2000/svg" xmlns:xlink="http://www.w3.org/1999/xlink">
 <defs>
  <style type="text/css">
*{stroke-linecap:butt;stroke-linejoin:round;}
  </style>
 </defs>
 <g id="figure_1">
  <g id="patch_1">
   <path d="
M0 72
L72 72
L72 0
L0 0
z
" style="fill:none;"/>
  </g>
  <g id="axes_1">
   <g id="PatchCollection_1">
    <defs>
     <path d="
M36 -7.5
C43.5583 -7.5 50.808 -10.5029 56.1525 -15.8475
C61.4971 -21.192 64.5 -28.4417 64.5 -36
C64.5 -43.5583 61.4971 -50.808 56.1525 -56.1525
C50.808 -61.4971 43.5583 -64.5 36 -64.5
C28.4417 -64.5 21.192 -61.4971 15.8475 -56.1525
C10.5029 -50.808 7.5 -43.5583 7.5 -36
C7.5 -28.4417 10.5029 -21.192 15.8475 -15.8475
C21.192 -10.5029 28.4417 -7.5 36 -7.5
z
" id="C0_0_a811fe30f3"/>
     <path d="
M24.1357 -34.0013
L24.1813 -33.7414
L24.2284 -33.4816
L24.2772 -33.222
L24.3276 -32.9625
L24.3796 -32.703
L24.4333 -32.4435
L24.4887 -32.184
L24.5457 -31.9244
L24.6045 -31.6646
L24.6651 -31.4045
L24.7274 -31.1442
L24.7916 -30.8835
L24.8575 -30.6225
L24.9254 -30.361
L24.9951 -30.0991
L25.0668 -29.8366
L25.1405 -29.5735
L25.2162 -29.3098
L25.294 -29.0454
L25.3739 -28.7803
L25.456 -28.5144
L25.5403 -28.2477
L25.6268 -27.9801
L25.7157 -27.7116
L25.807 -27.4422
L25.9007 -27.1718
L25.9969 -26.9004
L26.0957 -26.628
L26.1971 -26.3544
L26.3013 -26.0797
L26.4082 -25.8039
L26.518 -25.5269
L26.6307 -25.2488
L26.7465 -24.9694
L26.8653 -24.6887
L26.9874 -24.4068
L27.1127 -24.1237
L27.2414 -23.8393
L27.3736 -23.5537
L27.5093 -23.2668
L27.6487 -22.9786
L27.7919 -22.6892
L27.9389 -22.3986
L28.09 -22.1068
L28.2452 -21.8139
L28.4045 -21.5199
L28.5683 -21.2248
L28.7364 -20.9288
L28.9092 -20.6318
L29.0866 -20.334
L29.2689 -20.0354
L29.4562 -19.7362
L29.6485 -19.4365
L29.8461 -19.1364
L30.049 -18.836
L30.2574 -18.5355
L30.4714 -18.2351
L30.6912 -17.935
L30.9169 -17.6354
L31.1486 -17.3365
L31.3865 -17.0386
L31.6306 -16.7419
L31.8812 -16.4468
L32.1383 -16.1536
L32.4021 -15.8626
L32.6727 -15.5743
L32.9502 -15.289
L33.2348 -15.0073
L33.5264 -14.7296
L33.8253 -14.4565
L34.1316 -14.1885
L34.4452 -13.9264
L34.7663 -13.6709
L35.095 -13.4226
L35.4313 -13.1825
L35.7752 -12.9514
L36.1268 -12.7304
L36.486 -12.5205
L36.8529 -12.3228
L37.2272 -12.1387
L37.6091 -11.9695
L37.9982 -11.8166
L38.3943 -11.6814
L38.7972 -11.5654
L39.2065 -11.4702
L39.6217 -11.3972
L40.0422 -11.3477
L40.4673 -11.3229
L40.8962 -11.3236
L41.3279 -11.3504
L41.7614 -11.4036
L42.1956 -11.483
L42.6295 -11.5881
L43.0618 -11.7182
L43.4915 -11.8722
L43.9174 -12.0487
L44.3387 -12.2464
L44.7545 -12.4638
L45.1639 -12.6994
L45.5662 -12.9517
L45.9608 -13.2191
L46.3473 -13.5005
L46.7251 -13.7943
L47.0941 -14.0994
L47.4537 -14.4147
L47.804 -14.739
L48.1446 -15.0714
L48.4755 -15.4109
L48.7966 -15.7567
L49.108 -16.1081
L49.4095 -16.4642
L49.7013 -16.8245
L49.9834 -17.1882
L50.2559 -17.5549
L50.519 -17.9241
L50.7727 -18.2951
L51.0172 -18.6677
L51.2527 -19.0413
L51.4792 -19.4156
L51.6971 -19.7903
L51.9065 -20.165
L52.1075 -20.5395
L52.3004 -20.9135
L52.4853 -21.2868
L52.6625 -21.6591
L52.8321 -22.0302
L52.9943 -22.4001
L53.1494 -22.7684
L53.2976 -23.1352
L53.4389 -23.5002
L53.5737 -23.8634
L53.7021 -24.2247
L53.8242 -24.5839
L53.9404 -24.941
L54.0506 -25.2961
L54.1552 -25.6489
L54.2543 -25.9995
L54.348 -26.3479
L54.4364 -26.694
L54.5199 -27.0378
L54.5984 -27.3793
L54.6722 -27.7185
L54.7413 -28.0555
L54.8059 -28.3902
L54.8662 -28.7226
L54.9222 -29.0528
L54.9741 -29.3809
L55.0219 -29.7067
L55.0659 -30.0304
L55.106 -30.352
L55.1424 -30.6715
L55.1752 -30.9891
L55.2044 -31.3046
L55.2302 -31.6182
L55.2527 -31.9299
L55.2718 -32.2398
L55.2877 -32.5479
L55.3004 -32.8543
L55.3101 -33.159
L55.3167 -33.462
L55.3203 -33.7635
L55.3211 -34.0635
L55.3189 -34.362
L55.3139 -34.6591
L55.3061 -34.9549
L55.2955 -35.2493
L55.2822 -35.5426
L55.2663 -35.8346
L55.2476 -36.1256
L55.2263 -36.4154
L55.2024 -36.7043
L55.1759 -36.9923
L55.1468 -37.2793
L55.1152 -37.5655
L55.081 -37.851
L55.0442 -38.1357
L55.0049 -38.4197
L54.963 -38.7032
L54.9185 -38.9861
L54.8715 -39.2685
L54.822 -39.5505
L54.7698 -39.8321
L54.7151 -40.1133
L54.6577 -40.3943
L54.5977 -40.6751
L54.5351 -40.9557
L54.4698 -41.2361
L54.4018 -41.5165
L54.331 -41.7969
L54.2575 -42.0773
L54.1812 -42.3577
L54.1021 -42.6383
L54.02 -42.9191
L53.935 -43.2001
L53.8471 -43.4813
L53.7561 -43.7628
L53.662 -44.0447
L53.5648 -44.327
L53.4644 -44.6096
L53.3607 -44.8928
L53.2536 -45.1764
L53.1432 -45.4605
L53.0293 -45.7452
L52.9118 -46.0305
L52.7907 -46.3164
L52.6659 -46.603
L52.5372 -46.8902
L52.4047 -47.178
L52.2681 -47.4666
L52.1275 -47.7558
L51.9827 -48.0458
L51.8335 -48.3365
L51.68 -48.6279
L51.5219 -48.92
L51.3592 -49.2128
L51.1918 -49.5063
L51.0194 -49.8004
L50.8421 -50.0952
L50.6596 -50.3906
L50.4719 -50.6866
L50.2788 -50.9831
L50.0801 -51.28
L49.8758 -51.5774
L49.6656 -51.8751
L49.4495 -52.1731
L49.2273 -52.4712
L48.9989 -52.7694
L48.764 -53.0675
L48.5226 -53.3655
L48.2745 -53.6631
L48.0196 -53.9603
L47.7577 -54.2569
L47.4887 -54.5527
L47.2124 -54.8475
L46.9287 -55.141
L46.6375 -55.4331
L46.3387 -55.7236
L46.0321 -56.0121
L45.7177 -56.2983
L45.3952 -56.582
L45.0648 -56.8628
L44.7262 -57.1403
L44.3795 -57.4142
L44.0246 -57.6841
L43.6614 -57.9495
L43.2901 -58.2099
L42.9106 -58.4649
L42.523 -58.7139
L42.1275 -58.9564
L41.7241 -59.1918
L41.313 -59.4193
L40.8945 -59.6384
L40.4689 -59.8482
L40.0364 -60.0481
L39.5976 -60.2371
L39.1528 -60.4145
L38.7027 -60.5791
L38.2479 -60.7302
L37.7891 -60.8666
L37.3272 -60.9871
L36.8631 -61.0908
L36.3978 -61.1764
L35.9327 -61.2427
L35.4688 -61.2886
L35.0075 -61.3129
L34.5504 -61.3147
L34.0986 -61.2931
L33.6538 -61.2475
L33.2171 -61.1775
L32.7899 -61.0831
L32.3732 -60.9644
L31.9679 -60.822
L31.5747 -60.6568
L31.1941 -60.4699
L30.8263 -60.2627
L30.4716 -60.0365
L30.1298 -59.7928
L29.8008 -59.5333
L29.4845 -59.2594
L29.1805 -58.9726
L28.8885 -58.6743
L28.6081 -58.3657
L28.3391 -58.0481
L28.081 -57.7226
L27.8335 -57.3901
L27.5962 -57.0517
L27.3689 -56.7081
L27.1511 -56.3602
L26.9426 -56.0086
L26.7431 -55.654
L26.5523 -55.2969
L26.3698 -54.938
L26.1953 -54.5776
L26.0288 -54.2162
L25.8697 -53.8542
L25.718 -53.492
L25.5734 -53.13
L25.4355 -52.7683
L25.3043 -52.4073
L25.1794 -52.0471
L25.0607 -51.6882
L24.9479 -51.3305
L24.8408 -50.9744
L24.7393 -50.6199
L24.6431 -50.2672
L24.552 -49.9165
L24.466 -49.5677
L24.3847 -49.2211
L24.308 -48.8767
L24.2359 -48.5345
L24.168 -48.1946
L24.1043 -47.8571
L24.0446 -47.522
L23.9888 -47.1893
L23.9368 -46.8591
L23.8884 -46.5312
L23.8434 -46.2059
L23.8018 -45.8829
L23.7635 -45.5624
L23.7284 -45.2444
L23.6962 -44.9287
L23.6671 -44.6154
L23.6408 -44.3044
L23.6172 -43.9958
L23.5964 -43.6894
L23.5781 -43.3852
L23.5623 -43.0833
L23.549 -42.7835
L23.5381 -42.4858
L23.5295 -42.1902
L23.5231 -41.8966
L23.5189 -41.6049
L23.5168 -41.3152
L23.5168 -41.0273
L23.5188 -40.7412
L23.5228 -40.4568
L23.5287 -40.1741
L23.5366 -39.893
L23.5463 -39.6135
L23.5578 -39.3356
L23.571 -39.059
L23.5861 -38.7839
L23.6029 -38.5101
L23.6213 -38.2375
L23.6415 -37.9662
L23.6633 -37.696
L23.6867 -37.4269
L23.7118 -37.1589
L23.7384 -36.8918
L23.7667 -36.6256
L23.7965 -36.3603
L23.828 -36.0958
L23.861 -35.8321
L23.8955 -35.569
L23.9316 -35.3065
L23.9693 -35.0446
L24.0086 -34.7831
L24.0494 -34.5222
z
" id="C0_1_5d7b7935c7"/>
    </defs>
    <g clip-path="url(#p1bffca34e9)">
     <use style="fill:#ff0000;stroke:#000000;stroke-width:2.0;" x="0.0" xlink:href="#C0_0_a811fe30f3" y="72.0"/>
    </g>
    <g clip-path="url(#p1bffca34e9)">
     <use style="fill:#ffffff;stroke:#000000;stroke-width:2.0;" x="0.0" xlink:href="#C0_1_5d7b7935c7" y="72.0"/>
    </g>
   </g>
  </g>
 </g>
 <defs>
  <clipPath id="p1bffca34e9">
   <rect height="72.0" width="72.0" x="0.0" y="0.0"/>
  </clipPath>
 </defs>
</svg>
