<?xml version="1.0" encoding="utf-8" standalone="no"?>
<!DOCTYPE svg PUBLIC "-//W3C//DTD SVG 1.1//EN"
  "http://www.w3.org/Graphics/SVG/1.1/DTD/svg11.dtd">
<!-- Created with matplotlib (http://matplotlib.org/) -->
<svg height="72pt" version="1.1" viewBox="0 0 72 72" width="72pt" xmlns="http://www.w3.org/2000/svg" xmlns:xlink="http://www.w3.org/1999/xlink">
 <defs>
  <style type="text/css">
*{stroke-linecap:butt;stroke-linejoin:round;}
  </style>
 </defs>
 <g id="figure_1">
  <g id="patch_1">
   <path d="
M0 72
L72 72
L72 0
L0 0
z
" style="fill:none;"/>
  </g>
  <g id="axes_1">
   <g id="PatchCollection_1">
    <defs>
     <path d="
M36 -7.5
C43.5583 -7.5 50.808 -10.5029 56.1525 -15.8475
C61.4971 -21.192 64.5 -28.4417 64.5 -36
C64.5 -43.5583 61.4971 -50.808 56.1525 -56.1525
C50.808 -61.4971 43.5583 -64.5 36 -64.5
C28.4417 -64.5 21.192 -61.4971 15.8475 -56.1525
C10.5029 -50.808 7.5 -43.5583 7.5 -36
C7.5 -28.4417 10.5029 -21.192 15.8475 -15.8475
C21.192 -10.5029 28.4417 -7.5 36 -7.5
z
" id="C0_0_a811fe30f3"/>
     <path d="
M41.5113 -33.3954
L41.3252 -33.223
L41.1385 -33.0511
L40.951 -32.8797
L40.7628 -32.7087
L40.5738 -32.5381
L40.384 -32.3678
L40.1933 -32.1978
L40.0017 -32.028
L39.8091 -31.8585
L39.6154 -31.6892
L39.4207 -31.5201
L39.2249 -31.3511
L39.0279 -31.1822
L38.8296 -31.0133
L38.6301 -30.8445
L38.4292 -30.6757
L38.227 -30.5069
L38.0233 -30.338
L37.8181 -30.169
L37.6113 -29.9999
L37.4029 -29.8307
L37.1928 -29.6614
L36.981 -29.4918
L36.7675 -29.3221
L36.552 -29.1521
L36.3347 -28.9819
L36.1153 -28.8114
L35.894 -28.6407
L35.6705 -28.4697
L35.4449 -28.2984
L35.217 -28.1268
L34.9869 -27.9548
L34.7544 -27.7826
L34.5195 -27.61
L34.2821 -27.4372
L34.0422 -27.264
L33.7997 -27.0905
L33.5545 -26.9167
L33.3066 -26.7427
L33.0559 -26.5683
L32.8024 -26.3938
L32.546 -26.219
L32.2866 -26.0441
L32.0241 -25.869
L31.7587 -25.6939
L31.49 -25.5186
L31.2182 -25.3434
L30.9432 -25.1683
L30.6649 -24.9933
L30.3833 -24.8186
L30.0984 -24.6441
L29.8101 -24.4701
L29.5183 -24.2966
L29.2232 -24.1237
L28.9245 -23.9516
L28.6224 -23.7803
L28.3169 -23.6102
L28.0078 -23.4413
L27.6953 -23.2738
L27.3793 -23.1079
L27.0598 -22.9438
L26.737 -22.7819
L26.4107 -22.6223
L26.0812 -22.4654
L25.7484 -22.3114
L25.4123 -22.1607
L25.0732 -22.0138
L24.7311 -21.8709
L24.386 -21.7326
L24.0381 -21.5994
L23.6876 -21.4718
L23.3345 -21.3504
L22.9792 -21.236
L22.6216 -21.1293
L22.2622 -21.031
L21.901 -20.9422
L21.5384 -20.8639
L21.1746 -20.7972
L20.81 -20.7433
L20.4449 -20.7037
L20.0797 -20.6799
L19.7149 -20.6734
L19.3509 -20.6862
L18.9884 -20.7199
L18.6279 -20.7763
L18.2702 -20.8574
L17.9159 -20.9647
L17.5659 -21.0996
L17.2212 -21.2632
L16.8824 -21.4562
L16.5506 -21.6786
L16.2266 -21.9301
L15.9113 -22.2099
L15.6053 -22.5165
L15.3094 -22.8483
L15.0242 -23.2034
L14.7502 -23.5797
L14.4877 -23.9751
L14.2372 -24.3874
L13.9988 -24.8147
L13.7727 -25.2551
L13.559 -25.7066
L13.3578 -26.1676
L13.169 -26.6367
L12.9926 -27.1124
L12.8285 -27.5934
L12.6765 -28.0785
L12.5365 -28.5668
L12.4084 -29.0573
L12.2918 -29.549
L12.1867 -30.0413
L12.0926 -30.5333
L12.0094 -31.0245
L11.9369 -31.5144
L11.8746 -32.0023
L11.8224 -32.4878
L11.78 -32.9704
L11.747 -33.4499
L11.7232 -33.9259
L11.7083 -34.3981
L11.702 -34.8662
L11.7039 -35.33
L11.7139 -35.7893
L11.7316 -36.244
L11.7568 -36.6938
L11.7891 -37.1387
L11.8284 -37.5786
L11.8743 -38.0133
L11.9267 -38.4429
L11.9852 -38.8672
L12.0496 -39.2863
L12.1198 -39.7001
L12.1954 -40.1086
L12.2764 -40.5118
L12.3624 -40.9098
L12.4533 -41.3025
L12.549 -41.69
L12.6491 -42.0724
L12.7536 -42.4496
L12.8624 -42.8218
L12.9751 -43.1889
L13.0918 -43.5511
L13.2123 -43.9085
L13.3364 -44.261
L13.4641 -44.6087
L13.5952 -44.9518
L13.7295 -45.2904
L13.8671 -45.6244
L14.0078 -45.9539
L14.1515 -46.2791
L14.2982 -46.6001
L14.4478 -46.9168
L14.6001 -47.2294
L14.7552 -47.538
L14.913 -47.8427
L15.0734 -48.1434
L15.2364 -48.4404
L15.4019 -48.7337
L15.57 -49.0233
L15.7405 -49.3094
L15.9134 -49.592
L16.0888 -49.8711
L16.2665 -50.147
L16.4467 -50.4195
L16.6292 -50.6889
L16.814 -50.9551
L17.0013 -51.2182
L17.1908 -51.4784
L17.3827 -51.7355
L17.577 -51.9898
L17.7737 -52.2413
L17.9727 -52.49
L18.1741 -52.7359
L18.378 -52.9792
L18.5842 -53.2199
L18.793 -53.458
L19.0042 -53.6935
L19.2179 -53.9266
L19.4342 -54.1572
L19.653 -54.3854
L19.8745 -54.6112
L20.0987 -54.8346
L20.3255 -55.0558
L20.5551 -55.2746
L20.7875 -55.4912
L21.0228 -55.7055
L21.2609 -55.9176
L21.5021 -56.1275
L21.7462 -56.3351
L21.9934 -56.5406
L22.2438 -56.7438
L22.4974 -56.9449
L22.7543 -57.1438
L23.0145 -57.3405
L23.2781 -57.535
L23.5453 -57.7273
L23.816 -57.9173
L24.0904 -58.1051
L24.3685 -58.2906
L24.6504 -58.4738
L24.9362 -58.6546
L25.226 -58.8331
L25.5199 -59.0091
L25.818 -59.1827
L26.1203 -59.3537
L26.427 -59.5222
L26.7381 -59.688
L27.0538 -59.851
L27.3741 -60.0113
L27.6991 -60.1687
L28.029 -60.3231
L28.3638 -60.4744
L28.7036 -60.6225
L29.0486 -60.7673
L29.3988 -60.9087
L29.7543 -61.0466
L30.1151 -61.1807
L30.4815 -61.3111
L30.8535 -61.4374
L31.2312 -61.5596
L31.6146 -61.6775
L32.0038 -61.7908
L32.3989 -61.8995
L32.8 -62.0032
L33.2071 -62.1018
L33.6203 -62.1951
L34.0396 -62.2828
L34.465 -62.3646
L34.8967 -62.4404
L35.3344 -62.5098
L35.7784 -62.5726
L36.2285 -62.6285
L36.6847 -62.6771
L37.147 -62.7182
L37.6153 -62.7515
L38.0894 -62.7766
L38.5693 -62.7932
L39.0548 -62.801
L39.5458 -62.7996
L40.042 -62.7886
L40.5431 -62.7677
L41.049 -62.7365
L41.5593 -62.6947
L42.0736 -62.642
L42.5915 -62.5779
L43.1125 -62.5021
L43.6362 -62.4143
L44.162 -62.3141
L44.6892 -62.2013
L45.2171 -62.0756
L45.745 -61.9366
L46.272 -61.7842
L46.797 -61.6182
L47.3192 -61.4383
L47.8372 -61.2445
L48.3499 -61.0368
L48.8558 -60.8151
L49.3535 -60.5795
L49.8411 -60.3302
L50.3171 -60.0674
L50.7793 -59.7916
L51.2257 -59.503
L51.6542 -59.2025
L52.0626 -58.8905
L52.4485 -58.568
L52.8098 -58.236
L53.1445 -57.8954
L53.4509 -57.5474
L53.7274 -57.1931
L53.9732 -56.8338
L54.188 -56.4706
L54.3717 -56.1045
L54.5252 -55.7366
L54.6494 -55.3677
L54.7459 -54.9986
L54.8163 -54.6299
L54.8624 -54.2621
L54.8863 -53.8957
L54.8897 -53.531
L54.8744 -53.1683
L54.8422 -52.8079
L54.7946 -52.4498
L54.7331 -52.0943
L54.659 -51.7415
L54.5734 -51.3916
L54.4775 -51.0446
L54.3723 -50.7006
L54.2585 -50.3598
L54.137 -50.0221
L54.0086 -49.6877
L53.8738 -49.3566
L53.7334 -49.0289
L53.5877 -48.7046
L53.4374 -48.3837
L53.2828 -48.0663
L53.1243 -47.7523
L52.9625 -47.4419
L52.7975 -47.1351
L52.6297 -46.8317
L52.4595 -46.5319
L52.287 -46.2357
L52.1125 -45.9429
L51.9363 -45.6537
L51.7585 -45.3679
L51.5793 -45.0856
L51.399 -44.8068
L51.2177 -44.5313
L51.0354 -44.2593
L50.8525 -43.9905
L50.6689 -43.725
L50.4848 -43.4628
L50.3002 -43.2038
L50.1154 -42.9479
L49.9303 -42.6951
L49.7451 -42.4453
L49.5597 -42.1986
L49.3743 -41.9547
L49.189 -41.7137
L49.0037 -41.4756
L48.8185 -41.2401
L48.6334 -41.0074
L48.4485 -40.7773
L48.2637 -40.5498
L48.0792 -40.3247
L47.8949 -40.1021
L47.7108 -39.8819
L47.527 -39.6641
L47.3434 -39.4484
L47.1601 -39.235
L46.977 -39.0237
L46.7942 -38.8145
L46.6115 -38.6072
L46.4292 -38.402
L46.247 -38.1986
L46.0651 -37.9971
L45.8833 -37.7973
L45.7017 -37.5993
L45.5202 -37.4029
L45.3389 -37.2081
L45.1577 -37.0149
L44.9766 -36.8231
L44.7955 -36.6328
L44.6145 -36.4439
L44.4334 -36.2563
L44.2524 -36.07
L44.0713 -35.8849
L43.8901 -35.701
L43.7088 -35.5182
L43.5274 -35.3365
L43.3457 -35.1559
L43.1639 -34.9762
L42.9818 -34.7974
L42.7994 -34.6195
L42.6167 -34.4425
L42.4336 -34.2663
L42.2501 -34.0908
L42.0662 -33.916
L41.8818 -33.7419
z
" id="C0_1_2d5a001ab3"/>
    </defs>
    <g clip-path="url(#p1bffca34e9)">
     <use style="fill:#ffffff;stroke:#000000;stroke-width:2.0;" x="0.0" xlink:href="#C0_0_a811fe30f3" y="72.0"/>
    </g>
    <g clip-path="url(#p1bffca34e9)">
     <use style="fill:#ff0000;stroke:#000000;stroke-width:2.0;" x="0.0" xlink:href="#C0_1_2d5a001ab3" y="72.0"/>
    </g>
   </g>
  </g>
 </g>
 <defs>
  <clipPath id="p1bffca34e9">
   <rect height="72.0" width="72.0" x="0.0" y="0.0"/>
  </clipPath>
 </defs>
</svg>
