<?xml version="1.0" encoding="utf-8" standalone="no"?>
<!DOCTYPE svg PUBLIC "-//W3C//DTD SVG 1.1//EN"
  "http://www.w3.org/Graphics/SVG/1.1/DTD/svg11.dtd">
<!-- Created with matplotlib (http://matplotlib.org/) -->
<svg height="72pt" version="1.1" viewBox="0 0 72 72" width="72pt" xmlns="http://www.w3.org/2000/svg" xmlns:xlink="http://www.w3.org/1999/xlink">
 <defs>
  <style type="text/css">
*{stroke-linecap:butt;stroke-linejoin:round;}
  </style>
 </defs>
 <g id="figure_1">
  <g id="patch_1">
   <path d="
M0 72
L72 72
L72 0
L0 0
z
" style="fill:none;"/>
  </g>
  <g id="axes_1">
   <g id="PatchCollection_1">
    <defs>
     <path d="
M36 -7.5
C43.5583 -7.5 50.808 -10.5029 56.1525 -15.8475
C61.4971 -21.192 64.5 -28.4417 64.5 -36
C64.5 -43.5583 61.4971 -50.808 56.1525 -56.1525
C50.808 -61.4971 43.5583 -64.5 36 -64.5
C28.4417 -64.5 21.192 -61.4971 15.8475 -56.1525
C10.5029 -50.808 7.5 -43.5583 7.5 -36
C7.5 -28.4417 10.5029 -21.192 15.8475 -15.8475
C21.192 -10.5029 28.4417 -7.5 36 -7.5
z
" id="C0_0_a811fe30f3"/>
     <path d="
M21.8266 -60.6686
L22.0196 -60.4967
L22.18 -60.2963
L22.3104 -60.0697
L22.4144 -59.8195
L22.4954 -59.5486
L22.5569 -59.2595
L22.6025 -58.9546
L22.635 -58.6363
L22.6571 -58.3065
L22.6713 -57.9671
L22.6793 -57.6197
L22.683 -57.2655
L22.6836 -56.9058
L22.6822 -56.5417
L22.68 -56.1741
L22.6775 -55.8037
L22.6754 -55.4314
L22.6742 -55.0577
L22.6743 -54.6832
L22.676 -54.3084
L22.6796 -53.9337
L22.6852 -53.5595
L22.6929 -53.1862
L22.703 -52.814
L22.7154 -52.4434
L22.7301 -52.0744
L22.7472 -51.7073
L22.7667 -51.3423
L22.7885 -50.9796
L22.8126 -50.6193
L22.8391 -50.2616
L22.8677 -49.9065
L22.8986 -49.5542
L22.9315 -49.2047
L22.9665 -48.858
L23.0036 -48.5144
L23.0425 -48.1737
L23.0833 -47.836
L23.1259 -47.5013
L23.1702 -47.1697
L23.2162 -46.8411
L23.2638 -46.5156
L23.3129 -46.193
L23.3636 -45.8735
L23.4156 -45.557
L23.4691 -45.2434
L23.5238 -44.9328
L23.5799 -44.625
L23.6372 -44.3201
L23.6957 -44.0179
L23.7553 -43.7185
L23.816 -43.4218
L23.8778 -43.1278
L23.9406 -42.8363
L24.0045 -42.5473
L24.0693 -42.2609
L24.1351 -41.9768
L24.2017 -41.6951
L24.2693 -41.4157
L24.3378 -41.1385
L24.4071 -40.8634
L24.4772 -40.5905
L24.5482 -40.3195
L24.62 -40.0506
L24.6926 -39.7835
L24.766 -39.5183
L24.8401 -39.2549
L24.9151 -38.9931
L24.9908 -38.733
L25.0673 -38.4745
L25.1445 -38.2174
L25.2225 -37.9619
L25.3013 -37.7077
L25.3809 -37.4548
L25.4612 -37.2031
L25.5423 -36.9526
L25.6242 -36.7033
L25.7069 -36.455
L25.7903 -36.2077
L25.8746 -35.9614
L25.9598 -35.7159
L26.0457 -35.4712
L26.1325 -35.2273
L26.2202 -34.9841
L26.3087 -34.7414
L26.3981 -34.4994
L26.4885 -34.2579
L26.672 -34.0168
L26.7652 -33.7761
L26.8595 -33.5357
L26.9547 -33.2956
L27.051 -33.0558
L27.1483 -32.816
L27.2468 -32.5764
L27.3464 -32.3368
L27.4471 -32.0973
L27.549 -31.8576
L27.6522 -31.6178
L27.7566 -31.3779
L27.8622 -31.1377
L27.9692 -30.8972
L28.0776 -30.6564
L28.1874 -30.4152
L28.2985 -30.1735
L28.4112 -29.9313
L28.5254 -29.6886
L28.6411 -29.4453
L28.7584 -29.2013
L28.8774 -28.9566
L28.998 -28.7112
L29.1204 -28.465
L29.2446 -28.2179
L29.3706 -27.9699
L29.4984 -27.721
L29.6283 -27.471
L29.7601 -27.2201
L29.8939 -26.968
L30.0299 -26.7149
L30.1679 -26.4606
L30.3083 -26.205
L30.4508 -25.9483
L30.5957 -25.6903
L30.743 -25.431
L30.8927 -25.1703
L31.045 -24.9083
L31.1998 -24.6449
L31.3572 -24.3801
L31.5174 -24.1138
L31.6802 -23.8461
L31.8459 -23.577
L32.0145 -23.3063
L32.186 -23.0342
L32.3605 -22.7606
L32.538 -22.4855
L32.7187 -22.209
L32.9025 -21.931
L33.0895 -21.6515
L33.2798 -21.3706
L33.4733 -21.0884
L33.6702 -20.8048
L33.8705 -20.5198
L34.0741 -20.2336
L34.2812 -19.9462
L34.4916 -19.6577
L34.7055 -19.368
L34.9228 -19.0774
L35.1434 -18.7859
L35.3674 -18.4936
L35.5947 -18.2006
L35.8252 -17.907
L36.0587 -17.6129
L36.2952 -17.3185
L36.5346 -17.0238
L36.7765 -16.7292
L37.0209 -16.4346
L37.2673 -16.1403
L37.5156 -15.8463
L37.7652 -15.553
L38.0158 -15.2604
L38.2667 -14.9688
L38.5174 -14.6782
L38.767 -14.3888
L39.0146 -14.1008
L39.2593 -13.8144
L39.4997 -13.5296
L39.7343 -13.2465
L39.9615 -12.9652
L40.1791 -12.6857
L40.3848 -12.408
L40.5758 -12.1321
L40.7489 -11.8578
L40.9007 -11.5849
L41.0271 -11.3132
L41.1242 -11.0424
L41.1877 -10.7722
L41.2136 -10.5025
L41.1987 -10.233
L41.1402 -9.96367
L41.0366 -9.69468
L40.8878 -9.42642
L40.6947 -9.15951
L40.4591 -8.89481
L40.1839 -8.6333
L39.8722 -8.37611
L39.5273 -8.12436
L39.053 -7.87917
L38.558 -7.66399
L38.0622 -7.61503
L37.5658 -7.57471
L37.0689 -7.54304
L36.5717 -7.52005
L36.0743 -7.50573
L35.5769 -7.5001
L35.0796 -7.50314
L34.5827 -7.51486
L34.0861 -7.53527
L33.5901 -7.56434
L33.0949 -7.60207
L32.6005 -7.64845
L32.1072 -7.70347
L31.615 -7.76711
L31.1242 -7.83935
L30.6349 -7.92017
L30.1472 -8.00954
L29.6613 -8.10744
L29.1774 -8.21383
L28.6955 -8.32869
L28.2158 -8.45197
L27.7385 -8.58365
L27.2637 -8.72368
L26.7916 -8.87201
L26.3223 -9.02861
L25.8559 -9.19343
L25.3927 -9.36641
L24.9326 -9.54751
L24.4759 -9.73666
L24.0228 -9.93381
L23.5733 -10.1389
L23.1275 -10.3519
L22.6857 -10.5727
L22.248 -10.8012
L21.8144 -11.0374
L21.3852 -11.2812
L20.9604 -11.5325
L20.5402 -11.7913
L20.1247 -12.0575
L19.714 -12.3309
L19.3083 -12.6116
L18.9077 -12.8994
L18.5123 -13.1942
L18.1222 -13.496
L17.7376 -13.8046
L17.3585 -14.12
L16.9851 -14.4421
L16.6175 -14.7707
L16.2558 -15.1058
L15.9001 -15.4473
L15.5505 -15.795
L15.2072 -16.1488
L14.8702 -16.5088
L14.5396 -16.8746
L14.2156 -17.2463
L13.8982 -17.6237
L13.5875 -18.0067
L13.2837 -18.3951
L12.9868 -18.789
L12.6969 -19.188
L12.4141 -19.5922
L12.1384 -20.0014
L11.8701 -20.4155
L11.6091 -20.8343
L11.3555 -21.2578
L11.1095 -21.6857
L10.871 -22.118
L10.6401 -22.5545
L10.417 -22.9951
L10.2017 -23.4397
L9.99427 -23.8881
L9.79474 -24.3401
L9.60319 -24.7958
L9.41968 -25.2548
L9.24427 -25.7172
L9.07701 -26.1826
L8.91795 -26.6511
L8.76714 -27.1224
L8.62462 -27.5964
L8.49044 -28.0729
L8.36465 -28.5519
L8.24727 -29.0331
L8.13834 -29.5165
L8.0379 -30.0018
L7.94598 -30.489
L7.8626 -30.9778
L7.7878 -31.4682
L7.72159 -31.96
L7.66399 -32.453
L7.61503 -32.947
L7.57471 -33.442
L7.54304 -33.9378
L7.52005 -34.4342
L7.50573 -34.9311
L7.5001 -35.4283
L7.50314 -35.9257
L7.51486 -36.4231
L7.53527 -36.9204
L7.56434 -37.4173
L7.60207 -37.9139
L7.64845 -38.4099
L7.70347 -38.9051
L7.76711 -39.3995
L7.83935 -39.8928
L7.92017 -40.385
L8.00954 -40.8758
L8.10744 -41.3651
L8.21383 -41.8528
L8.32869 -42.3387
L8.45197 -42.8226
L8.58365 -43.3045
L8.72368 -43.7842
L8.87201 -44.2615
L9.02861 -44.7363
L9.19343 -45.2084
L9.36641 -45.6777
L9.54751 -46.1441
L9.73666 -46.6073
L9.93381 -47.0674
L10.1389 -47.5241
L10.3519 -47.9772
L10.5727 -48.4267
L10.8012 -48.8725
L11.0374 -49.3143
L11.2812 -49.752
L11.5325 -50.1856
L11.7913 -50.6148
L12.0575 -51.0396
L12.3309 -51.4598
L12.6116 -51.8753
L12.8994 -52.286
L13.1942 -52.6917
L13.496 -53.0923
L13.8046 -53.4877
L14.12 -53.8778
L14.4421 -54.2624
L14.7707 -54.6415
L15.1058 -55.0149
L15.4473 -55.3825
L15.795 -55.7442
L16.1488 -56.0999
L16.5088 -56.4495
L16.8746 -56.7928
L17.2463 -57.1298
L17.6237 -57.4604
L18.0067 -57.7844
L18.3951 -58.1018
L18.789 -58.4125
L19.188 -58.7163
L19.5922 -59.0132
L20.0014 -59.3031
L20.4155 -59.5859
L20.8343 -59.8616
L21.2578 -60.1299
z
" id="C0_1_20436b9217"/>
     <path d="
M32.8548 -64.2926
L33.2909 -64.1488
L33.7386 -64.0025
L34.1948 -63.8526
L34.657 -63.6984
L35.1231 -63.5393
L35.5911 -63.3748
L36.0596 -63.2046
L36.527 -63.0286
L36.9922 -62.8467
L37.4543 -62.6589
L37.9124 -62.4653
L38.3657 -62.266
L38.8137 -62.0612
L39.2558 -61.8511
L39.6916 -61.6359
L40.1209 -61.4158
L40.5432 -61.1911
L40.9584 -60.9621
L41.3662 -60.729
L41.7666 -60.4921
L42.1595 -60.2516
L42.5447 -60.0078
L42.9223 -59.761
L43.2922 -59.5114
L43.6545 -59.2592
L44.0092 -59.0047
L44.3564 -58.748
L44.6961 -58.4894
L45.0283 -58.229
L45.3533 -57.9671
L45.671 -57.7038
L45.9817 -57.4394
L46.2854 -57.1738
L46.5822 -56.9073
L46.8723 -56.64
L47.1558 -56.372
L47.4328 -56.1035
L47.7035 -55.8345
L47.968 -55.5651
L48.2264 -55.2954
L48.4789 -55.0255
L48.7256 -54.7554
L48.9667 -54.4853
L49.2023 -54.2152
L49.4324 -53.945
L49.6574 -53.6749
L49.8771 -53.4049
L50.0919 -53.135
L50.3018 -52.8652
L50.507 -52.5956
L50.7075 -52.3262
L50.9035 -52.057
L51.0951 -51.7879
L51.2824 -51.519
L51.4654 -51.2503
L51.6444 -50.9817
L51.8194 -50.7134
L51.9906 -50.4451
L52.1579 -50.177
L52.3215 -49.909
L52.4814 -49.6411
L52.6379 -49.3733
L52.7908 -49.1055
L52.9404 -48.8377
L53.0867 -48.5698
L53.2298 -48.3019
L53.3696 -48.034
L53.5064 -47.7659
L53.6402 -47.4976
L53.771 -47.2291
L53.8988 -46.9603
L54.0238 -46.6913
L54.146 -46.4219
L54.2654 -46.1521
L54.3821 -45.8819
L54.4961 -45.6113
L54.6074 -45.34
L54.7162 -45.0682
L54.8224 -44.7958
L54.9261 -44.5226
L55.0272 -44.2487
L55.1259 -43.974
L55.2221 -43.6985
L55.3159 -43.422
L55.4073 -43.1446
L55.4962 -42.8661
L55.5828 -42.5865
L55.667 -42.3058
L55.7488 -42.0239
L55.8283 -41.7406
L55.9053 -41.456
L55.98 -41.1701
L56.0524 -40.8826
L56.1223 -40.5936
L56.1899 -40.303
L56.255 -40.0107
L56.3177 -39.7167
L56.378 -39.4208
L56.4358 -39.1231
L56.4912 -38.8234
L56.544 -38.5217
L56.5942 -38.2179
L56.6419 -37.9119
L56.6869 -37.6037
L56.7292 -37.2932
L56.7688 -36.9804
L56.8057 -36.665
L56.8397 -36.3472
L56.8708 -36.0268
L56.899 -35.7037
L56.9241 -35.3778
L56.9461 -35.0492
L56.965 -34.7177
L56.9807 -34.3833
L56.9929 -34.0459
L57.0018 -33.7054
L57.0071 -33.3618
L57.0089 -33.015
L57.0069 -32.6649
L57.001 -32.3116
L56.9913 -31.9549
L56.9774 -31.5949
L56.9594 -31.2314
L56.937 -30.8644
L56.9102 -30.4939
L56.8788 -30.1199
L56.8427 -29.7423
L56.8017 -29.3611
L56.7557 -28.9764
L56.7045 -28.588
L56.648 -28.1961
L56.586 -27.8007
L56.5183 -27.4017
L56.4449 -26.9992
L56.3654 -26.5932
L56.2798 -26.1839
L56.1879 -25.7713
L56.0896 -25.3555
L55.9846 -24.9365
L55.8728 -24.5146
L55.7542 -24.0898
L55.6285 -23.6623
L55.4957 -23.2324
L55.3556 -22.8001
L55.2081 -22.3657
L55.0533 -21.9295
L54.891 -21.4917
L54.7212 -21.0526
L54.5441 -20.6125
L54.3596 -20.1719
L54.168 -19.731
L53.9693 -19.2903
L53.7639 -18.8501
L53.5522 -18.4111
L53.3346 -17.9737
L53.1117 -17.5385
L52.8843 -17.106
L52.6532 -16.6769
L52.4196 -16.2519
L52.1848 -15.8318
L51.9505 -15.4173
L51.7186 -15.0092
L51.4913 -14.6087
L51.2715 -14.2165
L51.0622 -13.8338
L50.8669 -13.4617
L50.6896 -13.1014
L50.5343 -12.754
L50.4053 -12.4206
L50.3065 -12.1022
L50.2416 -11.7999
L50.7355 -11.5142
L51.159 -11.605
L51.5779 -11.8659
L51.992 -12.1341
L52.4013 -12.4096
L52.8056 -12.6923
L53.2047 -12.9821
L53.5987 -13.2789
L53.9872 -13.5827
L54.3703 -13.8932
L54.7478 -14.2105
L55.1195 -14.5344
L55.4855 -14.8649
L55.8455 -15.2018
L56.1995 -15.545
L56.5473 -15.8945
L56.8888 -16.2501
L57.224 -16.6117
L57.5527 -16.9792
L57.8749 -17.3525
L58.1904 -17.7315
L58.4991 -18.116
L58.801 -18.506
L59.096 -18.9014
L59.3839 -19.3019
L59.6647 -19.7075
L59.9382 -20.1181
L60.2045 -20.5335
L60.4634 -20.9537
L60.7149 -21.3784
L60.9588 -21.8076
L61.1951 -22.2411
L61.4238 -22.6788
L61.6447 -23.1205
L61.8578 -23.5662
L62.063 -24.0156
L62.2603 -24.4687
L62.4496 -24.9253
L62.6308 -25.3853
L62.8039 -25.8486
L62.9688 -26.3149
L63.1256 -26.7841
L63.274 -27.2562
L63.4142 -27.731
L63.546 -28.2082
L63.6694 -28.6878
L63.7844 -29.1697
L63.8909 -29.6536
L63.989 -30.1395
L64.0785 -30.6272
L64.1594 -31.1165
L64.2318 -31.6072
L64.2956 -32.0994
L64.3507 -32.5927
L64.3973 -33.087
L64.4351 -33.5822
L64.4643 -34.0782
L64.4849 -34.5748
L64.4967 -35.0718
L64.4999 -35.569
L64.4944 -36.0664
L64.4802 -36.5638
L64.4574 -37.061
L64.4259 -37.5579
L64.3857 -38.0543
L64.3369 -38.5501
L64.2794 -39.0451
L64.2133 -39.5392
L64.1386 -40.0322
L64.0554 -40.524
L63.9636 -41.0144
L63.8633 -41.5033
L63.7545 -41.9904
L63.6373 -42.4758
L63.5116 -42.9592
L63.3776 -43.4405
L63.2352 -43.9195
L63.0845 -44.3961
L62.9256 -44.8701
L62.7584 -45.3415
L62.5832 -45.81
L62.3998 -46.2755
L62.2084 -46.7379
L62.009 -47.197
L61.8016 -47.6527
L61.5864 -48.1048
L61.3635 -48.5533
L61.1328 -48.9979
L60.8944 -49.4386
L60.6484 -49.8751
L60.395 -50.3075
L60.1341 -50.7355
L59.8659 -51.159
L59.5904 -51.5779
L59.3077 -51.992
L59.0179 -52.4013
L58.7211 -52.8056
L58.4173 -53.2047
L58.1068 -53.5987
L57.7895 -53.9872
L57.4656 -54.3703
L57.1351 -54.7478
L56.7982 -55.1195
L56.455 -55.4855
L56.1055 -55.8455
L55.7499 -56.1995
L55.3883 -56.5473
L55.0208 -56.8888
L54.6475 -57.224
L54.2685 -57.5527
L53.884 -57.8749
L53.494 -58.1904
L53.0986 -58.4991
L52.6981 -58.801
L52.2925 -59.096
L51.8819 -59.3839
L51.4665 -59.6647
L51.0463 -59.9382
L50.6216 -60.2045
L50.1924 -60.4634
L49.7589 -60.7149
L49.3212 -60.9588
L48.8795 -61.1951
L48.4338 -61.4238
L47.9844 -61.6447
L47.5313 -61.8578
L47.0747 -62.063
L46.6147 -62.2603
L46.1514 -62.4496
L45.6851 -62.6308
L45.2159 -62.8039
L44.7438 -62.9688
L44.269 -63.1256
L43.7918 -63.274
L43.3122 -63.4142
L42.8303 -63.546
L42.3464 -63.6694
L41.8605 -63.7844
L41.3728 -63.8909
L40.8835 -63.989
L40.3928 -64.0785
L39.9006 -64.1594
L39.4073 -64.2318
L38.913 -64.2956
L38.4178 -64.3507
L37.9218 -64.3973
L37.4252 -64.4351
L36.9282 -64.4643
L36.431 -64.4849
L35.9336 -64.4967
L35.4362 -64.4999
L34.939 -64.4944
L34.4421 -64.4802
L33.9457 -64.4574
L33.4499 -64.4259
z
" id="C0_2_e6db12297f"/>
    </defs>
    <g clip-path="url(#p1bffca34e9)">
     <use style="fill:#ff0000;stroke:#000000;stroke-width:2.0;" x="0.0" xlink:href="#C0_0_a811fe30f3" y="72.0"/>
    </g>
    <g clip-path="url(#p1bffca34e9)">
     <use style="fill:#ffffff;stroke:#000000;stroke-width:2.0;" x="0.0" xlink:href="#C0_1_20436b9217" y="72.0"/>
    </g>
    <g clip-path="url(#p1bffca34e9)">
     <use style="fill:#ffffff;stroke:#000000;stroke-width:2.0;" x="0.0" xlink:href="#C0_2_e6db12297f" y="72.0"/>
    </g>
   </g>
  </g>
 </g>
 <defs>
  <clipPath id="p1bffca34e9">
   <rect height="72.0" width="72.0" x="0.0" y="0.0"/>
  </clipPath>
 </defs>
</svg>
