<?xml version="1.0" encoding="utf-8" standalone="no"?>
<!DOCTYPE svg PUBLIC "-//W3C//DTD SVG 1.1//EN"
  "http://www.w3.org/Graphics/SVG/1.1/DTD/svg11.dtd">
<!-- Created with matplotlib (http://matplotlib.org/) -->
<svg height="72pt" version="1.1" viewBox="0 0 72 72" width="72pt" xmlns="http://www.w3.org/2000/svg" xmlns:xlink="http://www.w3.org/1999/xlink">
 <defs>
  <style type="text/css">
*{stroke-linecap:butt;stroke-linejoin:round;}
  </style>
 </defs>
 <g id="figure_1">
  <g id="patch_1">
   <path d="
M0 72
L72 72
L72 0
L0 0
z
" style="fill:none;"/>
  </g>
  <g id="axes_1">
   <g id="PatchCollection_1">
    <defs>
     <path d="
M36 -7.5
C43.5583 -7.5 50.808 -10.5029 56.1525 -15.8475
C61.4971 -21.192 64.5 -28.4417 64.5 -36
C64.5 -43.5583 61.4971 -50.808 56.1525 -56.1525
C50.808 -61.4971 43.5583 -64.5 36 -64.5
C28.4417 -64.5 21.192 -61.4971 15.8475 -56.1525
C10.5029 -50.808 7.5 -43.5583 7.5 -36
C7.5 -28.4417 10.5029 -21.192 15.8475 -15.8475
C21.192 -10.5029 28.4417 -7.5 36 -7.5
z
" id="C0_0_a811fe30f3"/>
     <path d="
M17.4971 -57.6022
L17.628 -57.4332
L17.7586 -57.2646
L17.8889 -57.0962
L18.019 -56.9281
L18.1488 -56.7603
L18.2783 -56.5928
L18.4077 -56.4256
L18.5368 -56.2587
L18.6657 -56.092
L18.7945 -55.9256
L18.9231 -55.7595
L19.0515 -55.5935
L19.1798 -55.4277
L19.308 -55.2622
L19.4361 -55.0967
L19.5642 -54.9315
L19.6922 -54.7663
L19.8201 -54.6012
L19.9481 -54.4362
L20.076 -54.2712
L20.2041 -54.1062
L20.3321 -53.9412
L20.4603 -53.7761
L20.5886 -53.6109
L20.717 -53.4456
L20.8456 -53.2802
L20.9744 -53.1146
L21.1034 -52.9488
L21.2326 -52.7827
L21.3622 -52.6163
L21.492 -52.4496
L21.6222 -52.2825
L21.7527 -52.115
L21.8836 -51.9471
L22.015 -51.7787
L22.2791 -51.6097
L22.4119 -51.4402
L22.5453 -51.2701
L22.6793 -51.0994
L22.8139 -50.928
L22.9491 -50.7558
L23.0851 -50.5829
L23.2218 -50.4091
L23.3592 -50.2345
L23.4975 -50.0589
L23.6366 -49.8824
L23.7765 -49.7049
L23.9174 -49.5263
L24.0593 -49.3466
L24.2021 -49.1658
L24.346 -48.9837
L24.4909 -48.8004
L24.637 -48.6158
L24.7843 -48.4298
L24.9327 -48.2423
L25.0824 -48.0534
L25.2334 -47.863
L25.3857 -47.671
L25.5394 -47.4773
L25.6946 -47.2819
L25.8512 -47.0847
L26.0093 -46.8858
L26.169 -46.6849
L26.3303 -46.4821
L26.4932 -46.2773
L26.6579 -46.0704
L26.8243 -45.8614
L26.9925 -45.6502
L27.1626 -45.4368
L27.3345 -45.221
L27.5084 -45.0028
L27.6843 -44.7822
L27.8622 -44.5591
L28.0422 -44.3334
L28.2243 -44.105
L28.4086 -43.874
L28.5951 -43.6401
L28.7838 -43.4035
L28.9748 -43.1639
L29.1681 -42.9215
L29.3637 -42.676
L29.5618 -42.4274
L29.7622 -42.1757
L29.965 -41.9208
L30.1703 -41.6627
L30.3781 -41.4014
L30.5883 -41.1367
L30.801 -40.8686
L31.0162 -40.5972
L31.2337 -40.3223
L31.4538 -40.044
L31.6762 -39.7621
L31.9009 -39.4768
L32.128 -39.1879
L32.3573 -38.8955
L32.5888 -38.5996
L32.8223 -38.3002
L33.0577 -37.9973
L33.2949 -37.6909
L33.5338 -37.3811
L33.7741 -37.0679
L34.0157 -36.7513
L34.2583 -36.4315
L34.5015 -36.1084
L34.7452 -35.7823
L34.9888 -35.4531
L35.232 -35.121
L35.4742 -34.7862
L35.7149 -34.4487
L35.9534 -34.1088
L36.189 -33.7665
L36.4207 -33.4222
L36.6475 -33.0759
L36.8681 -32.7278
L37.0813 -32.3784
L37.2854 -32.0277
L37.4785 -31.6761
L37.6585 -31.3238
L37.823 -30.9712
L37.9694 -30.6186
L38.0947 -30.2665
L38.196 -29.9151
L38.2703 -29.565
L38.3149 -29.2164
L38.3275 -28.87
L38.3067 -28.5261
L38.2518 -28.1852
L38.1632 -27.8476
L38.0421 -27.5138
L37.8907 -27.1841
L37.7114 -26.8588
L37.507 -26.538
L37.2806 -26.2221
L37.0348 -25.9112
L36.7724 -25.6054
L36.4956 -25.305
L36.2068 -25.01
L35.9076 -24.7205
L35.5998 -24.4366
L35.2849 -24.1585
L34.9641 -23.8862
L34.6384 -23.6197
L34.3089 -23.3591
L33.9763 -23.1044
L33.6415 -22.8557
L33.3051 -22.613
L32.9675 -22.3762
L32.6294 -22.1455
L32.2912 -21.9207
L31.9532 -21.7018
L31.6158 -21.4889
L31.2794 -21.2818
L30.9441 -21.0805
L30.6102 -20.885
L30.2779 -20.6951
L29.9475 -20.5109
L29.619 -20.3323
L29.2926 -20.1591
L28.9684 -19.9913
L28.6466 -19.8289
L28.3271 -19.6716
L28.0101 -19.5195
L27.6957 -19.3724
L27.3838 -19.2302
L27.0745 -19.0929
L26.7679 -18.9603
L26.4638 -18.8324
L26.1625 -18.709
L25.8638 -18.5901
L25.5677 -18.4756
L25.2743 -18.3653
L24.9834 -18.2593
L24.6952 -18.1573
L24.4095 -18.0593
L24.1263 -17.9653
L23.8456 -17.875
L23.5673 -17.7886
L23.2914 -17.7058
L23.0178 -17.6266
L22.7466 -17.5509
L22.4776 -17.4787
L22.2108 -17.4099
L21.9461 -17.3444
L21.6835 -17.2821
L21.423 -17.223
L21.1644 -17.1671
L20.9077 -17.1142
L20.6528 -17.0643
L20.3998 -17.0175
L20.1484 -16.9735
L19.8988 -16.9324
L19.6507 -16.8942
L19.4041 -16.8588
L19.1591 -16.8262
L18.9155 -16.7962
L18.6732 -16.769
L18.4322 -16.7445
L18.1924 -16.7227
L17.9538 -16.7034
L17.7163 -16.6868
L17.4799 -16.6728
L17.2444 -16.6614
L17.0098 -16.6526
L16.7761 -16.6464
L16.5432 -16.6428
L16.3111 -16.6417
L16.0796 -16.6432
L15.8487 -16.6474
L15.6184 -16.6541
L15.3886 -16.6634
L15.1592 -16.6754
L14.7594 -16.6901
L14.431 -16.9977
L14.1092 -17.3713
L13.794 -17.7506
L13.4856 -18.1354
L13.1841 -18.5257
L12.8895 -18.9213
L12.6019 -19.322
L12.3215 -19.7279
L12.0483 -20.1388
L11.7824 -20.5544
L11.5238 -20.9748
L11.2728 -21.3997
L11.0292 -21.8291
L10.7933 -22.2628
L10.565 -22.7007
L10.3445 -23.1427
L10.1318 -23.5885
L9.92696 -24.0382
L9.73008 -24.4914
L9.5412 -24.9482
L9.36039 -25.4084
L9.18768 -25.8718
L9.02314 -26.3382
L8.86682 -26.8077
L8.71877 -27.2799
L8.57902 -27.7547
L8.44763 -28.2321
L8.32463 -28.7119
L8.21006 -29.1938
L8.10396 -29.6779
L8.00635 -30.1638
L7.91727 -30.6516
L7.83675 -31.1409
L7.7648 -31.6318
L7.70146 -32.124
L7.64673 -32.6173
L7.60064 -33.1117
L7.5632 -33.607
L7.53443 -34.103
L7.51432 -34.5996
L7.50289 -35.0966
L7.50015 -35.5939
L7.50608 -36.0913
L7.52069 -36.5886
L7.54398 -37.0858
L7.57594 -37.5827
L7.61655 -38.0791
L7.66581 -38.5749
L7.7237 -39.0698
L7.79021 -39.5639
L7.8653 -40.0568
L7.94897 -40.5485
L8.04118 -41.0388
L8.14191 -41.5276
L8.25113 -42.0147
L8.36879 -42.5
L8.49488 -42.9833
L8.62934 -43.4645
L8.77214 -43.9434
L8.92323 -44.4198
L9.08257 -44.8937
L9.25011 -45.3649
L9.4258 -45.8333
L9.60959 -46.2986
L9.80141 -46.7609
L10.0012 -47.2198
L10.2089 -47.6753
L10.4245 -48.1273
L10.6479 -48.5755
L10.879 -49.02
L11.1177 -49.4605
L11.364 -49.8968
L11.6179 -50.329
L11.8791 -50.7567
L12.1477 -51.18
L12.4236 -51.5987
L12.7066 -52.0126
L12.9968 -52.4216
L13.2939 -52.8256
L13.598 -53.2245
L13.9089 -53.6182
L14.2265 -54.0065
L14.5508 -54.3893
L14.8816 -54.7665
L15.2188 -55.138
L15.5623 -55.5036
L15.9121 -55.8633
L16.268 -56.217
L16.6299 -56.5645
L16.9977 -56.9057
z
" id="C0_1_dc1d8d80e7"/>
     <path d="
M56.9691 -55.2004
L56.9653 -54.9711
L56.959 -54.7419
L56.9503 -54.513
L56.9392 -54.2842
L56.9258 -54.0554
L56.91 -53.8266
L56.8918 -53.5978
L56.8714 -53.3688
L56.8487 -53.1396
L56.8237 -52.9102
L56.7964 -52.6804
L56.7668 -52.4503
L56.735 -52.2197
L56.7009 -51.9886
L56.6645 -51.757
L56.6258 -51.5247
L56.5848 -51.2918
L56.5416 -51.0581
L56.496 -50.8236
L56.448 -50.5882
L56.3977 -50.3519
L56.3451 -50.1145
L56.29 -49.8762
L56.2325 -49.6366
L56.1725 -49.3959
L56.1101 -49.154
L56.0451 -48.9107
L55.9776 -48.6661
L55.9074 -48.42
L55.8347 -48.1724
L55.7592 -47.9232
L55.681 -47.6724
L55.6 -47.4199
L55.5162 -47.1657
L55.4296 -46.9097
L55.3399 -46.6517
L55.2474 -46.3919
L55.1517 -46.13
L55.053 -45.8661
L54.951 -45.6001
L54.8459 -45.3319
L54.7374 -45.0615
L54.6256 -44.7888
L54.5104 -44.5137
L54.3917 -44.2363
L54.2694 -43.9565
L54.1434 -43.6742
L54.0138 -43.3893
L53.8804 -43.1019
L53.7431 -42.8119
L53.6019 -42.5193
L53.4568 -42.224
L53.3076 -41.926
L53.1543 -41.6253
L52.9968 -41.3218
L52.8351 -41.0156
L52.6691 -40.7067
L52.4988 -40.395
L52.3241 -40.0805
L52.145 -39.7633
L51.9615 -39.4434
L51.7736 -39.1208
L51.5811 -38.7955
L51.3843 -38.4676
L51.1831 -38.1371
L50.9774 -37.8042
L50.7675 -37.4687
L50.5533 -37.1309
L50.335 -36.7909
L50.1127 -36.4486
L49.8866 -36.1043
L49.657 -35.758
L49.4239 -35.4098
L49.1878 -35.06
L48.949 -34.7086
L48.708 -34.3558
L48.4653 -34.0018
L48.2214 -33.6467
L47.9771 -33.2907
L47.7332 -32.934
L47.4907 -32.5768
L47.2508 -32.2192
L47.0149 -31.8615
L46.7844 -31.5038
L46.5612 -31.1462
L46.3475 -30.789
L46.1457 -30.4323
L45.9583 -30.0763
L45.7882 -29.721
L45.6386 -29.3665
L45.5123 -29.013
L45.412 -28.6605
L45.3402 -28.309
L45.2983 -27.9587
L45.287 -27.6097
L45.306 -27.262
L45.354 -26.9158
L45.4292 -26.5714
L45.5291 -26.2288
L45.6508 -25.8883
L45.7917 -25.5502
L45.9489 -25.2146
L46.12 -24.8819
L46.3026 -24.5522
L46.4948 -24.2256
L46.6947 -23.9026
L46.9009 -23.5831
L47.112 -23.2673
L47.3268 -22.9555
L47.5444 -22.6477
L47.764 -22.3441
L47.9847 -22.0448
L48.2061 -21.7498
L48.4275 -21.4592
L48.6485 -21.1732
L48.8687 -20.8917
L49.0878 -20.6147
L49.3055 -20.3424
L49.5216 -20.0747
L49.7357 -19.8117
L49.9479 -19.5533
L50.1578 -19.2995
L50.3655 -19.0503
L50.5707 -18.8057
L50.7734 -18.5656
L50.9736 -18.3301
L51.1711 -18.099
L51.366 -17.8723
L51.5583 -17.6499
L51.7478 -17.4318
L51.9347 -17.218
L52.1188 -17.0083
L52.3003 -16.8026
L52.4791 -16.6011
L52.6553 -16.4034
L52.8289 -16.2096
L52.9999 -16.0196
L53.1683 -15.8334
L53.3342 -15.6507
L53.4977 -15.4717
L53.6588 -15.2961
L53.8174 -15.1239
L53.9738 -14.9551
L54.1278 -14.7895
L54.2796 -14.6271
L54.907 -14.4678
L55.2763 -14.6745
L55.6397 -15.0078
L55.9972 -15.3474
L56.3485 -15.6933
L56.6937 -16.0454
L57.0326 -16.4035
L57.365 -16.7677
L57.6909 -17.1377
L58.0103 -17.5134
L58.3229 -17.8948
L58.6287 -18.2817
L58.9277 -18.674
L59.2196 -19.0715
L59.5045 -19.4743
L59.7822 -19.882
L60.0527 -20.2947
L60.3158 -20.7121
L60.5716 -21.1342
L60.8198 -21.5609
L61.0605 -21.9919
L61.2936 -22.4272
L61.5189 -22.8666
L61.7365 -23.3101
L61.9463 -23.7574
L62.1481 -24.2084
L62.342 -24.663
L62.5278 -25.1211
L62.7056 -25.5825
L62.8752 -26.047
L63.0367 -26.5146
L63.1899 -26.9851
L63.3348 -27.4583
L63.4714 -27.9342
L63.5997 -28.4125
L63.7195 -28.8931
L63.8309 -29.3758
L63.9338 -29.8606
L64.0282 -30.3473
L64.114 -30.8356
L64.1913 -31.3256
L64.2601 -31.8169
L64.3202 -32.3096
L64.3716 -32.8034
L64.4145 -33.2981
L64.4486 -33.7937
L64.4742 -34.2899
L64.491 -34.7867
L64.4992 -35.2838
L64.4986 -35.7811
L64.4894 -36.2785
L64.4716 -36.7759
L64.445 -37.273
L64.4098 -37.7697
L64.3659 -38.2658
L64.3134 -38.7613
L64.2523 -39.2559
L64.1825 -39.7496
L64.1042 -40.2421
L64.0173 -40.7333
L63.9219 -41.223
L63.818 -41.7112
L63.7056 -42.1977
L63.5847 -42.6822
L63.4555 -43.1647
L63.3179 -43.645
L63.1719 -44.123
L63.0177 -44.5986
L62.8553 -45.0715
L62.6847 -45.5416
L62.506 -46.0089
L62.3191 -46.473
L62.1243 -46.934
L61.9215 -47.3917
L61.7108 -47.8459
L61.4923 -48.2965
L61.266 -48.7433
L61.032 -49.1863
L60.7904 -49.6252
L60.5413 -50.06
L60.2846 -50.4905
L60.0206 -50.9166
L59.7493 -51.3382
L59.4707 -51.7551
L59.185 -52.1672
L58.8922 -52.5743
L58.5924 -52.9764
L58.2857 -53.3734
L57.9723 -53.765
L57.6522 -54.1512
z
" id="C0_2_9707d8044a"/>
    </defs>
    <g clip-path="url(#p1bffca34e9)">
     <use style="fill:#ff0000;stroke:#000000;stroke-width:2.0;" x="0.0" xlink:href="#C0_0_a811fe30f3" y="72.0"/>
    </g>
    <g clip-path="url(#p1bffca34e9)">
     <use style="fill:#ffffff;stroke:#000000;stroke-width:2.0;" x="0.0" xlink:href="#C0_1_dc1d8d80e7" y="72.0"/>
    </g>
    <g clip-path="url(#p1bffca34e9)">
     <use style="fill:#ffffff;stroke:#000000;stroke-width:2.0;" x="0.0" xlink:href="#C0_2_9707d8044a" y="72.0"/>
    </g>
   </g>
  </g>
 </g>
 <defs>
  <clipPath id="p1bffca34e9">
   <rect height="72.0" width="72.0" x="0.0" y="0.0"/>
  </clipPath>
 </defs>
</svg>
