<?xml version="1.0" encoding="utf-8" standalone="no"?>
<!DOCTYPE svg PUBLIC "-//W3C//DTD SVG 1.1//EN"
  "http://www.w3.org/Graphics/SVG/1.1/DTD/svg11.dtd">
<!-- Created with matplotlib (http://matplotlib.org/) -->
<svg height="72pt" version="1.1" viewBox="0 0 72 72" width="72pt" xmlns="http://www.w3.org/2000/svg" xmlns:xlink="http://www.w3.org/1999/xlink">
 <defs>
  <style type="text/css">
*{stroke-linecap:butt;stroke-linejoin:round;}
  </style>
 </defs>
 <g id="figure_1">
  <g id="patch_1">
   <path d="
M0 72
L72 72
L72 0
L0 0
z
" style="fill:none;"/>
  </g>
  <g id="axes_1">
   <g id="PatchCollection_1">
    <defs>
     <path d="
M36 -7.5
C43.5583 -7.5 50.808 -10.5029 56.1525 -15.8475
C61.4971 -21.192 64.5 -28.4417 64.5 -36
C64.5 -43.5583 61.4971 -50.808 56.1525 -56.1525
C50.808 -61.4971 43.5583 -64.5 36 -64.5
C28.4417 -64.5 21.192 -61.4971 15.8475 -56.1525
C10.5029 -50.808 7.5 -43.5583 7.5 -36
C7.5 -28.4417 10.5029 -21.192 15.8475 -15.8475
C21.192 -10.5029 28.4417 -7.5 36 -7.5
z
" id="C0_0_a811fe30f3"/>
     <path d="
M14.76 -54.8159
L15.1053 -54.8095
L15.4454 -54.764
L15.7817 -54.6883
L16.1149 -54.5894
L16.4456 -54.4723
L16.7745 -54.3407
L17.1015 -54.1974
L17.427 -54.0444
L17.751 -53.8834
L18.0735 -53.7157
L18.3944 -53.5421
L18.7138 -53.3637
L19.0315 -53.1809
L19.3474 -52.9945
L19.6616 -52.805
L19.9737 -52.6127
L20.2839 -52.4181
L20.5919 -52.2215
L20.8977 -52.0233
L21.2012 -51.8236
L21.5024 -51.6229
L21.8011 -51.4212
L22.0973 -51.2188
L22.3909 -51.0159
L22.6819 -50.8127
L22.9703 -50.6093
L23.2559 -50.4059
L23.5388 -50.2026
L23.819 -49.9995
L24.0964 -49.7968
L24.371 -49.5945
L24.6428 -49.3928
L24.9119 -49.1916
L25.1782 -48.9911
L25.4417 -48.7914
L25.7024 -48.5924
L25.9605 -48.3943
L26.2158 -48.1971
L26.4685 -48.0008
L26.7185 -47.8054
L26.9659 -47.611
L27.2107 -47.4176
L27.453 -47.2252
L27.6928 -47.0338
L27.9302 -46.8434
L28.1652 -46.654
L28.3978 -46.4657
L28.6281 -46.2783
L28.8562 -46.0919
L29.0821 -45.9066
L29.3058 -45.7222
L29.5275 -45.5388
L29.7471 -45.3563
L29.9648 -45.1747
L30.1805 -44.994
L30.3943 -44.8142
L30.6064 -44.6353
L30.8167 -44.4571
L31.0253 -44.2798
L31.2322 -44.1032
L31.4376 -43.9274
L31.6414 -43.7522
L31.8438 -43.5778
L32.0447 -43.404
L32.2443 -43.2307
L32.4426 -43.0581
L32.6396 -42.886
L32.8354 -42.7144
L33.0301 -42.5432
L33.2237 -42.3725
L33.4162 -42.2021
L33.6078 -42.0321
L33.7984 -41.8625
L33.9882 -41.693
L34.1771 -41.5239
L34.3653 -41.3549
L34.5527 -41.1861
L34.7395 -41.0173
L34.9256 -40.8487
L35.1112 -40.6801
L35.2962 -40.5115
L35.4808 -40.3428
L35.6649 -40.174
L35.8487 -40.0051
L36.0321 -39.8361
L36.3982 -39.6668
L36.581 -39.4972
L36.7636 -39.3273
L36.9462 -39.1571
L37.1287 -38.9865
L37.3112 -38.8154
L37.4938 -38.6438
L37.6765 -38.4717
L37.8593 -38.2991
L38.0423 -38.1258
L38.2256 -37.9518
L38.4091 -37.7771
L38.593 -37.6016
L38.7773 -37.4253
L38.962 -37.2481
L39.1471 -37.0701
L39.3328 -36.891
L39.5191 -36.7109
L39.7059 -36.5298
L39.8934 -36.3475
L40.0816 -36.1641
L40.2705 -35.9794
L40.4602 -35.7934
L40.6508 -35.6061
L40.8422 -35.4174
L41.0345 -35.2273
L41.2277 -35.0357
L41.422 -34.8425
L41.6172 -34.6477
L41.8136 -34.4512
L42.0111 -34.253
L42.2097 -34.0531
L42.4094 -33.8512
L42.6105 -33.6475
L42.8127 -33.4418
L43.0163 -33.2342
L43.2211 -33.0244
L43.4274 -32.8125
L43.635 -32.5985
L43.844 -32.3821
L44.0544 -32.1635
L44.2663 -31.9426
L44.4796 -31.7192
L44.6944 -31.4934
L44.9107 -31.265
L45.1285 -31.0341
L45.3478 -30.8006
L45.5686 -30.5644
L45.7909 -30.3255
L46.0147 -30.0839
L46.24 -29.8394
L46.4668 -29.5921
L46.6949 -29.342
L46.9245 -29.089
L47.1554 -28.833
L47.3876 -28.5741
L47.6211 -28.3122
L47.8558 -28.0473
L48.0916 -27.7794
L48.3284 -27.5086
L48.5661 -27.2347
L48.8047 -26.9579
L49.044 -26.678
L49.2838 -26.3953
L49.5241 -26.1096
L49.7647 -25.821
L50.0054 -25.5295
L50.2459 -25.2353
L50.4861 -24.9383
L50.7257 -24.6387
L50.9645 -24.3364
L51.2022 -24.0316
L51.4384 -23.7244
L51.6727 -23.4149
L51.9047 -23.103
L52.134 -22.789
L52.3599 -22.4729
L52.5818 -22.1549
L52.7989 -21.8349
L53.0101 -21.5131
L53.2144 -21.1895
L53.4101 -20.8641
L53.5951 -20.5369
L53.7669 -20.2078
L53.9219 -19.8765
L54.0551 -19.5426
L54.16 -19.2057
L54.2277 -18.8649
L54.2475 -18.5191
L54.2077 -18.1672
L54.0984 -17.8079
L53.9153 -17.4411
L53.6616 -17.0677
L53.3462 -16.6903
L52.9803 -16.3122
L52.5747 -15.9369
L52.1379 -15.5673
L51.677 -15.2057
L51.197 -14.8538
L50.7018 -14.5129
L50.1945 -14.1838
L49.6775 -13.8672
L49.1527 -13.5635
L48.6218 -13.2731
L48.086 -12.9962
L47.5466 -12.7328
L47.0045 -12.4831
L46.4608 -12.2469
L45.9161 -12.0243
L45.3713 -11.8151
L44.8271 -11.6192
L44.2839 -11.4365
L43.7424 -11.2666
L43.203 -11.1093
L42.6664 -10.9645
L42.1327 -10.8318
L41.6025 -10.711
L41.0761 -10.6018
L40.5538 -10.5038
L40.0358 -10.4168
L39.5224 -10.3404
L39.0138 -10.2744
L38.5103 -10.2183
L38.0119 -10.172
L37.5189 -10.135
L37.0312 -10.1071
L36.5492 -10.088
L36.0727 -10.0773
L35.6019 -10.0747
L35.1368 -10.08
L34.6774 -10.0929
L34.2238 -10.1131
L33.776 -10.1403
L33.3339 -10.1743
L32.8975 -10.2149
L32.4669 -10.2617
L32.0419 -10.3146
L31.6225 -10.3732
L31.2087 -10.4376
L30.8004 -10.5073
L30.3975 -10.5822
L29.9999 -10.6622
L29.6077 -10.747
L29.2207 -10.8366
L28.8388 -10.9306
L28.4619 -11.029
L28.09 -11.1317
L27.723 -11.2384
L27.3607 -11.3491
L27.0031 -11.4637
L26.6501 -11.582
L26.3017 -11.704
L25.9576 -11.8295
L25.6179 -11.9584
L25.2823 -12.0907
L24.951 -12.2262
L24.6236 -12.365
L24.3002 -12.507
L23.9807 -12.652
L23.665 -12.8
L23.353 -12.9511
L23.0445 -13.105
L22.7397 -13.2619
L22.4382 -13.4217
L22.1401 -13.5842
L21.8454 -13.7496
L21.5538 -13.9178
L21.2654 -14.0888
L20.98 -14.2625
L20.6976 -14.439
L20.4182 -14.6183
L20.1417 -14.8003
L19.8679 -14.9851
L19.5969 -15.1726
L19.3286 -15.363
L19.0629 -15.5561
L18.7997 -15.7521
L18.5391 -15.9509
L18.281 -16.1526
L18.0253 -16.3572
L17.772 -16.5647
L17.521 -16.7752
L17.2723 -16.9887
L17.0259 -17.2053
L16.7817 -17.4249
L16.5397 -17.6477
L16.2999 -17.8737
L16.0622 -18.103
L15.8267 -18.3356
L15.5933 -18.5716
L15.3619 -18.811
L15.1327 -19.054
L14.9055 -19.3005
L14.6804 -19.5507
L14.4574 -19.8046
L14.2365 -20.0624
L14.0176 -20.324
L13.8008 -20.5897
L13.5862 -20.8594
L13.3737 -21.1333
L13.1633 -21.4115
L12.9552 -21.694
L12.7492 -21.981
L12.5455 -22.2726
L12.3442 -22.5688
L12.1452 -22.8699
L11.9486 -23.1758
L11.7546 -23.4867
L11.5631 -23.8028
L11.3742 -24.1241
L11.1881 -24.4508
L11.0048 -24.783
L10.8244 -25.1208
L10.6471 -25.4643
L10.4729 -25.8137
L10.302 -26.1691
L10.1346 -26.5306
L9.97066 -26.8984
L9.8105 -27.2725
L9.65423 -27.6532
L9.50204 -28.0404
L9.35411 -28.4344
L9.21065 -28.8353
L9.07187 -29.2432
L8.938 -29.6582
L8.80927 -30.0805
L8.68594 -30.51
L8.56828 -30.947
L8.45655 -31.3915
L8.35105 -31.8436
L8.25209 -32.3034
L8.15999 -32.7709
L8.07507 -33.2462
L7.99768 -33.7294
L7.92818 -34.2204
L7.86695 -34.7192
L7.81436 -35.226
L7.77082 -35.7405
L7.73672 -36.2628
L7.71249 -36.7928
L7.69855 -37.3304
L7.69533 -37.8755
L7.70328 -38.4278
L7.72283 -38.9873
L7.78876 -39.5537
L7.86368 -40.0467
L7.94717 -40.5384
L8.03921 -41.0288
L8.13976 -41.5176
L8.2488 -42.0048
L8.36629 -42.4901
L8.49221 -42.9734
L8.6265 -43.4546
L8.76913 -43.9336
L8.92005 -44.4101
L9.07922 -44.884
L9.24659 -45.3553
L9.42212 -45.8237
L9.60573 -46.2891
L9.79739 -46.7514
L9.99703 -47.2104
L10.2046 -47.666
L10.42 -48.118
L10.6432 -48.5664
L10.8742 -49.0109
L11.1127 -49.4515
L11.3589 -49.8879
L11.6126 -50.3201
L11.8737 -50.748
L12.1421 -51.1714
L12.4179 -51.5901
L12.7008 -52.0041
L12.9908 -52.4133
L13.2878 -52.8174
L13.5917 -53.2164
L13.9024 -53.6102
L14.2199 -53.9986
z
" id="C0_1_7d0246ad11"/>
     <path d="
M64.1556 -31.8865
L64.0209 -31.3242
L63.8736 -30.7597
L63.7135 -30.1934
L63.5406 -29.6259
L63.3546 -29.0575
L63.1555 -28.4887
L62.9434 -27.9202
L62.7181 -27.3524
L62.4799 -26.786
L62.2287 -26.2215
L61.965 -25.6595
L61.6891 -25.1009
L61.4013 -24.5462
L61.1025 -23.9963
L60.7934 -23.4518
L60.4751 -22.9136
L60.1493 -22.3825
L59.8179 -21.8596
L59.4835 -21.3459
L59.1499 -20.8425
L58.8221 -20.3509
L58.5068 -19.8726
L58.2129 -19.4096
L57.9516 -18.9637
L57.7349 -18.5369
L57.5729 -18.1302
L57.4701 -17.7431
L57.831 -17.3738
L58.1474 -17.679
L58.4571 -18.0628
L58.7599 -18.4521
L59.0558 -18.8467
L59.3447 -19.2465
L59.6264 -19.6514
L59.901 -20.0613
L60.1683 -20.4761
L60.4282 -20.8956
L60.6807 -21.3197
L60.9257 -21.7482
L61.1631 -22.1812
L61.3928 -22.6183
L61.6147 -23.0595
L61.8289 -23.5046
L62.0352 -23.9535
L62.2336 -24.4062
L62.424 -24.8623
L62.6063 -25.3218
L62.7805 -25.7846
L62.9466 -26.2505
L63.1045 -26.7194
L63.2541 -27.1911
L63.3954 -27.6655
L63.5284 -28.1424
L63.6529 -28.6217
L63.7691 -29.1033
L63.8768 -29.5869
L63.976 -30.0725
L64.0667 -30.56
z
" id="C0_2_b757e75234"/>
    </defs>
    <g clip-path="url(#p1bffca34e9)">
     <use style="fill:#ff0000;stroke:#000000;stroke-width:2.0;" x="0.0" xlink:href="#C0_0_a811fe30f3" y="72.0"/>
    </g>
    <g clip-path="url(#p1bffca34e9)">
     <use style="fill:#ffffff;stroke:#000000;stroke-width:2.0;" x="0.0" xlink:href="#C0_1_7d0246ad11" y="72.0"/>
    </g>
    <g clip-path="url(#p1bffca34e9)">
     <use style="fill:#ffffff;stroke:#000000;stroke-width:2.0;" x="0.0" xlink:href="#C0_2_b757e75234" y="72.0"/>
    </g>
   </g>
  </g>
 </g>
 <defs>
  <clipPath id="p1bffca34e9">
   <rect height="72.0" width="72.0" x="0.0" y="0.0"/>
  </clipPath>
 </defs>
</svg>
