<?xml version="1.0" encoding="utf-8" standalone="no"?>
<!DOCTYPE svg PUBLIC "-//W3C//DTD SVG 1.1//EN"
  "http://www.w3.org/Graphics/SVG/1.1/DTD/svg11.dtd">
<!-- Created with matplotlib (http://matplotlib.org/) -->
<svg height="72pt" version="1.1" viewBox="0 0 72 72" width="72pt" xmlns="http://www.w3.org/2000/svg" xmlns:xlink="http://www.w3.org/1999/xlink">
 <defs>
  <style type="text/css">
*{stroke-linecap:butt;stroke-linejoin:round;}
  </style>
 </defs>
 <g id="figure_1">
  <g id="patch_1">
   <path d="
M0 72
L72 72
L72 0
L0 0
z
" style="fill:none;"/>
  </g>
  <g id="axes_1">
   <g id="PatchCollection_1">
    <defs>
     <path d="
M36 -7.5
C43.5583 -7.5 50.808 -10.5029 56.1525 -15.8475
C61.4971 -21.192 64.5 -28.4417 64.5 -36
C64.5 -43.5583 61.4971 -50.808 56.1525 -56.1525
C50.808 -61.4971 43.5583 -64.5 36 -64.5
C28.4417 -64.5 21.192 -61.4971 15.8475 -56.1525
C10.5029 -50.808 7.5 -43.5583 7.5 -36
C7.5 -28.4417 10.5029 -21.192 15.8475 -15.8475
C21.192 -10.5029 28.4417 -7.5 36 -7.5
z
" id="C0_0_a811fe30f3"/>
     <path d="
M20.9038 -12.0209
L21.0611 -12.1836
L21.216 -12.3485
L21.3685 -12.5154
L21.5188 -12.6842
L21.6671 -12.8548
L21.8133 -13.0271
L21.9576 -13.2009
L22.1001 -13.3762
L22.2408 -13.5529
L22.3799 -13.7308
L22.5174 -13.9099
L22.6533 -14.0901
L22.7878 -14.2713
L22.9208 -14.4535
L23.0526 -14.6367
L23.183 -14.8208
L23.3122 -15.0057
L23.4403 -15.1913
L23.5672 -15.3778
L23.693 -15.565
L23.8179 -15.7529
L23.9417 -15.9414
L24.0646 -16.1306
L24.1866 -16.3205
L24.3077 -16.511
L24.4281 -16.7021
L24.5476 -16.8938
L24.6664 -17.0861
L24.7845 -17.279
L24.9019 -17.4725
L25.0187 -17.6666
L25.1349 -17.8614
L25.2505 -18.0567
L25.3656 -18.2527
L25.4801 -18.4492
L25.5942 -18.6465
L25.7078 -18.8443
L25.821 -19.0429
L25.9338 -19.2421
L26.0463 -19.4421
L26.1584 -19.6427
L26.2701 -19.8441
L26.3816 -20.0463
L26.4928 -20.2492
L26.6038 -20.453
L26.7145 -20.6576
L26.9354 -20.863
L27.0456 -21.0694
L27.1557 -21.2767
L27.2657 -21.4849
L27.3756 -21.6941
L27.4854 -21.9042
L27.5951 -22.1155
L27.7049 -22.3278
L27.8146 -22.5412
L27.9243 -22.7557
L28.034 -22.9715
L28.1438 -23.1884
L28.2536 -23.4066
L28.3635 -23.626
L28.4735 -23.8468
L28.5835 -24.0689
L28.6937 -24.2924
L28.804 -24.5174
L28.9144 -24.7438
L29.025 -24.9717
L29.1357 -25.2012
L29.2466 -25.4323
L29.3577 -25.6649
L29.4689 -25.8993
L29.5803 -26.1353
L29.6919 -26.3731
L29.8037 -26.6127
L29.9156 -26.8541
L30.0278 -27.0974
L30.1401 -27.3425
L30.2526 -27.5896
L30.3653 -27.8387
L30.4782 -28.0898
L30.5912 -28.3429
L30.7043 -28.5981
L30.8176 -28.8554
L30.931 -29.1149
L31.0444 -29.3766
L31.1579 -29.6404
L31.2715 -29.9065
L31.3851 -30.1749
L31.4986 -30.4455
L31.612 -30.7185
L31.7253 -30.9938
L31.8385 -31.2714
L31.9514 -31.5514
L32.0641 -31.8338
L32.1764 -32.1185
L32.2883 -32.4057
L32.3997 -32.6952
L32.5105 -32.9871
L32.6207 -33.2813
L32.73 -33.578
L32.8385 -33.8769
L32.946 -34.1782
L33.0524 -34.4818
L33.1575 -34.7876
L33.2612 -35.0957
L33.3633 -35.4059
L33.4638 -35.7182
L33.5623 -36.0326
L33.6587 -36.3489
L33.7528 -36.6672
L33.8443 -36.9872
L33.9331 -37.309
L34.0189 -37.6324
L34.1015 -37.9573
L34.1804 -38.2836
L34.2556 -38.6111
L34.3266 -38.9398
L34.3932 -39.2694
L34.455 -39.5998
L34.5117 -39.9309
L34.5629 -40.2624
L34.6083 -40.5942
L34.6475 -40.926
L34.6801 -41.2577
L34.7057 -41.5891
L34.724 -41.9198
L34.7345 -42.2498
L34.737 -42.5787
L34.731 -42.9064
L34.7161 -43.2324
L34.6922 -43.5567
L34.6588 -43.879
L34.6158 -44.199
L34.5627 -44.5164
L34.4995 -44.831
L34.426 -45.1425
L34.3421 -45.4507
L34.2476 -45.7554
L34.1427 -46.0564
L34.0272 -46.3533
L33.9012 -46.646
L33.7649 -46.9344
L33.6185 -47.2181
L33.4621 -47.497
L33.2961 -47.771
L33.1206 -48.04
L32.936 -48.3036
L32.7426 -48.562
L32.5408 -48.8148
L32.331 -49.0622
L32.1136 -49.3038
L31.889 -49.5397
L31.6576 -49.7699
L31.4199 -49.9942
L31.1761 -50.2127
L30.9268 -50.4252
L30.6723 -50.6318
L30.4131 -50.8325
L30.1495 -51.0272
L29.8819 -51.216
L29.6106 -51.3989
L29.336 -51.5759
L29.0585 -51.747
L28.7782 -51.9122
L28.4957 -52.0717
L28.211 -52.2254
L27.9245 -52.3733
L27.6365 -52.5156
L27.3472 -52.6523
L27.0567 -52.7834
L26.7654 -52.909
L26.4734 -53.0291
L26.1809 -53.1439
L25.888 -53.2533
L25.5949 -53.3575
L25.3019 -53.4565
L25.0089 -53.5504
L24.7161 -53.6392
L24.4237 -53.723
L24.1317 -53.802
L23.8402 -53.876
L23.5494 -53.9453
L23.2592 -54.0099
L22.9699 -54.0698
L22.6813 -54.1251
L22.3936 -54.1759
L22.1068 -54.2222
L21.8211 -54.2641
L21.5363 -54.3016
L21.2525 -54.3348
L20.9699 -54.3638
L20.6883 -54.3886
L20.4078 -54.4092
L20.1284 -54.4258
L19.8502 -54.4382
L19.5731 -54.4467
L19.2971 -54.4512
L19.0222 -54.4517
L18.7485 -54.4483
L18.476 -54.4411
L18.2045 -54.43
L17.9342 -54.415
L17.6649 -54.3963
L17.3968 -54.3738
L17.1297 -54.3475
L16.8637 -54.3174
L16.5987 -54.2836
L16.3348 -54.246
L16.0718 -54.2047
L15.8099 -54.1597
L15.5489 -54.1109
L15.2888 -54.0584
L15.0297 -54.0021
L14.7715 -53.9421
L14.5142 -53.8783
L14.2577 -53.8106
L14.002 -53.7392
L13.7472 -53.6638
L13.334 -53.5846
L13.0359 -53.2772
L12.7448 -52.879
L12.4608 -52.4756
L12.184 -52.0673
L11.9144 -51.654
L11.6522 -51.236
L11.3974 -50.8133
L11.15 -50.3861
L10.9103 -49.9546
L10.6782 -49.5187
L10.4538 -49.0788
L10.2372 -48.6349
L10.0284 -48.1871
L9.82753 -47.7356
L9.63464 -47.2806
L9.44978 -46.8221
L9.27301 -46.3603
L9.10439 -45.8954
L8.94395 -45.4274
L8.79176 -44.9566
L8.64785 -44.483
L8.51228 -44.0069
L8.38508 -43.5283
L8.26629 -43.0474
L8.15595 -42.5644
L8.05409 -42.0794
L7.96075 -41.5925
L7.87594 -41.1039
L7.7997 -40.6138
L7.73205 -40.1223
L7.67301 -39.6295
L7.62261 -39.1356
L7.58084 -38.6407
L7.54773 -38.1451
L7.52329 -37.6488
L7.50752 -37.152
L7.50043 -36.6548
L7.50203 -36.1574
L7.5123 -35.66
L7.53125 -35.1627
L7.55888 -34.6657
L7.59516 -34.169
L7.6401 -33.6729
L7.69368 -33.1776
L7.75588 -32.683
L7.82668 -32.1895
L7.90607 -31.6972
L7.99401 -31.2061
L8.09049 -30.7166
L8.19546 -30.2286
L8.30891 -29.7424
L8.43079 -29.2581
L8.56107 -28.7758
L8.6997 -28.2958
L8.84665 -27.8181
L9.00188 -27.3429
L9.16532 -26.8703
L9.33694 -26.4005
L9.51669 -25.9336
L9.7045 -25.4698
L9.90032 -25.0093
L10.1041 -24.552
L10.3157 -24.0982
L10.5352 -23.6481
L10.7625 -23.2017
L10.9974 -22.7593
L11.2399 -22.3208
L11.49 -21.8866
L11.7476 -21.4566
L12.0125 -21.031
L12.2848 -20.6101
L12.5642 -20.1938
L12.8508 -19.7823
L13.1445 -19.3757
L13.4451 -18.9743
L13.7526 -18.578
L14.0669 -18.187
L14.3878 -17.8014
L14.7154 -17.4214
L15.0494 -17.0471
L15.3898 -16.6785
L15.7364 -16.3158
L16.0893 -15.9591
L16.4482 -15.6085
L16.8131 -15.2641
L17.1838 -14.926
L17.5602 -14.5944
L17.9423 -14.2693
L18.3299 -13.9508
L18.7228 -13.639
L19.121 -13.334
L19.5244 -13.0359
L19.9327 -12.7448
L20.346 -12.4608
z
" id="C0_1_c6a6e77d66"/>
     <path d="
M58.49 -18.5116
L58.5084 -18.7782
L58.5241 -19.0444
L58.5371 -19.3104
L58.5475 -19.5762
L58.5553 -19.8417
L58.5604 -20.1072
L58.563 -20.3725
L58.5631 -20.6378
L58.5607 -20.903
L58.5558 -21.1683
L58.5484 -21.4337
L58.5386 -21.6991
L58.5264 -21.9648
L58.5118 -22.2306
L58.4948 -22.4967
L58.4754 -22.7631
L58.4536 -23.0298
L58.4295 -23.297
L58.403 -23.5645
L58.3741 -23.8325
L58.3429 -24.101
L58.3093 -24.3701
L58.2734 -24.6398
L58.2351 -24.9101
L58.1945 -25.1812
L58.1515 -25.4529
L58.1061 -25.7255
L58.0584 -25.9988
L58.0082 -26.273
L57.9557 -26.5481
L57.9008 -26.8242
L57.8434 -27.1012
L57.7836 -27.3793
L57.7213 -27.6584
L57.6566 -27.9386
L57.5894 -28.22
L57.5198 -28.5025
L57.4476 -28.7863
L57.3729 -29.0712
L57.2956 -29.3575
L57.2158 -29.6451
L57.1335 -29.934
L57.0485 -30.2242
L56.9609 -30.5159
L56.8708 -30.809
L56.778 -31.1035
L56.6826 -31.3996
L56.5845 -31.6971
L56.4838 -31.9961
L56.3804 -32.2966
L56.2744 -32.5987
L56.1657 -32.9023
L56.0543 -33.2075
L55.9403 -33.5143
L55.8237 -33.8226
L55.7045 -34.1325
L55.5826 -34.444
L55.4582 -34.757
L55.3312 -35.0716
L55.2017 -35.3877
L55.0698 -35.7054
L54.9355 -36.0246
L54.7988 -36.3453
L54.6599 -36.6674
L54.5187 -36.991
L54.3755 -37.316
L54.2303 -37.6423
L54.0832 -37.97
L53.9344 -38.2989
L53.784 -38.6291
L53.6321 -38.9605
L53.4789 -39.293
L53.3247 -39.6266
L53.1695 -39.9611
L53.0137 -40.2966
L52.8575 -40.633
L52.7011 -40.9703
L52.5448 -41.3082
L52.3889 -41.6468
L52.2337 -41.986
L52.0795 -42.3257
L51.9266 -42.6659
L51.7755 -43.0064
L51.6264 -43.3471
L51.4799 -43.6881
L51.3361 -44.0292
L51.1957 -44.3703
L51.0588 -44.7114
L50.926 -45.0523
L50.7976 -45.393
L50.6741 -45.7334
L50.5557 -46.0734
L50.4429 -46.4129
L50.3359 -46.7519
L50.2351 -47.0903
L50.1408 -47.4279
L50.0531 -47.7646
L49.9723 -48.1005
L49.8986 -48.4353
L49.832 -48.769
L49.7726 -49.1014
L49.7205 -49.4326
L49.6756 -49.7622
L49.6379 -50.0903
L49.6073 -50.4168
L49.5837 -50.7414
L49.5668 -51.0641
L49.5565 -51.3848
L49.5526 -51.7033
L49.5548 -52.0196
L49.5629 -52.3335
L49.5765 -52.6449
L49.5955 -52.9537
L49.6195 -53.2597
L49.6482 -53.563
L49.6813 -53.8633
L49.7186 -54.1606
L49.7598 -54.4548
L49.8045 -54.7458
L49.8526 -55.0336
L49.9038 -55.3181
L49.9577 -55.5991
L50.0142 -55.8768
L50.0731 -56.1509
L50.1342 -56.4215
L50.1971 -56.6885
L50.2619 -56.9519
L50.3281 -57.2117
L50.3958 -57.4679
L50.4648 -57.7204
L50.5348 -57.9692
L50.6058 -58.2143
L50.6777 -58.4558
L50.7503 -58.6936
L50.8235 -58.9277
L50.8973 -59.1583
L50.9715 -59.3852
L51.046 -59.6085
L51.1208 -59.8282
L51.6441 -60.0444
L52.0575 -59.8225
L52.466 -59.5459
L52.8694 -59.262
L53.2678 -58.9711
L53.6608 -58.6732
L54.0485 -58.3684
L54.4307 -58.0568
L54.8073 -57.7384
L55.1782 -57.4134
L55.5432 -57.0819
L55.9022 -56.744
L56.2552 -56.3998
L56.602 -56.0493
L56.9426 -55.6928
L57.2768 -55.3302
L57.6045 -54.9618
L57.9256 -54.5876
L58.24 -54.2077
L58.5476 -53.8223
L58.8484 -53.4314
L59.1423 -53.0352
L59.429 -52.6339
L59.7087 -52.2275
L59.9811 -51.8161
L60.2462 -51.3999
L60.5039 -50.979
L60.7542 -50.5536
L60.9969 -50.1237
L61.232 -49.6896
L61.4594 -49.2512
L61.6791 -48.8088
L61.891 -48.3626
L62.0949 -47.9125
L62.2909 -47.4588
L62.4789 -47.0017
L62.6589 -46.5412
L62.8307 -46.0774
L62.9943 -45.6106
L63.1497 -45.1409
L63.2969 -44.6684
L63.4357 -44.1933
L63.5662 -43.7156
L63.6883 -43.2356
L63.8019 -42.7534
L63.9071 -42.2692
L64.0038 -41.783
L64.0919 -41.2951
L64.1715 -40.8055
L64.2425 -40.3145
L64.3049 -39.8222
L64.3587 -39.3287
L64.4039 -38.8342
L64.4404 -38.3389
L64.4682 -37.8428
L64.4873 -37.3462
L64.4978 -36.8491
L64.4996 -36.3518
L64.4927 -35.8544
L64.4772 -35.3571
L64.453 -34.8599
L64.42 -34.3631
L64.3785 -33.8667
L64.3283 -33.3711
L64.2695 -32.8762
L64.202 -32.3823
L64.126 -31.8895
L64.0414 -31.3979
L63.9482 -30.9077
L63.8466 -30.4191
L63.7364 -29.9322
L63.6178 -29.4471
L63.4908 -28.9641
L63.3555 -28.4831
L63.2118 -28.0045
L63.0598 -27.5283
L62.8995 -27.0547
L62.7311 -26.5838
L62.5545 -26.1157
L62.3699 -25.6507
L62.1772 -25.1889
L61.9765 -24.7303
L61.7679 -24.2752
L61.5515 -23.8236
L61.3273 -23.3757
L61.0953 -22.9317
L60.8558 -22.4917
L60.6086 -22.0558
L60.354 -21.6241
L60.0919 -21.1968
L59.8225 -20.774
L59.5459 -20.3559
L59.262 -19.9425
L58.9711 -19.534
z
" id="C0_2_8d13836d33"/>
    </defs>
    <g clip-path="url(#p1bffca34e9)">
     <use style="fill:#ffffff;stroke:#000000;stroke-width:2.0;" x="0.0" xlink:href="#C0_0_a811fe30f3" y="72.0"/>
    </g>
    <g clip-path="url(#p1bffca34e9)">
     <use style="fill:#ff0000;stroke:#000000;stroke-width:2.0;" x="0.0" xlink:href="#C0_1_c6a6e77d66" y="72.0"/>
    </g>
    <g clip-path="url(#p1bffca34e9)">
     <use style="fill:#ff0000;stroke:#000000;stroke-width:2.0;" x="0.0" xlink:href="#C0_2_8d13836d33" y="72.0"/>
    </g>
   </g>
  </g>
 </g>
 <defs>
  <clipPath id="p1bffca34e9">
   <rect height="72.0" width="72.0" x="0.0" y="0.0"/>
  </clipPath>
 </defs>
</svg>
