<?xml version="1.0" encoding="utf-8" standalone="no"?>
<!DOCTYPE svg PUBLIC "-//W3C//DTD SVG 1.1//EN"
  "http://www.w3.org/Graphics/SVG/1.1/DTD/svg11.dtd">
<!-- Created with matplotlib (http://matplotlib.org/) -->
<svg height="72pt" version="1.1" viewBox="0 0 72 72" width="72pt" xmlns="http://www.w3.org/2000/svg" xmlns:xlink="http://www.w3.org/1999/xlink">
 <defs>
  <style type="text/css">
*{stroke-linecap:butt;stroke-linejoin:round;}
  </style>
 </defs>
 <g id="figure_1">
  <g id="patch_1">
   <path d="
M0 72
L72 72
L72 0
L0 0
z
" style="fill:none;"/>
  </g>
  <g id="axes_1">
   <g id="PatchCollection_1">
    <defs>
     <path d="
M36 -7.5
C43.5583 -7.5 50.808 -10.5029 56.1525 -15.8475
C61.4971 -21.192 64.5 -28.4417 64.5 -36
C64.5 -43.5583 61.4971 -50.808 56.1525 -56.1525
C50.808 -61.4971 43.5583 -64.5 36 -64.5
C28.4417 -64.5 21.192 -61.4971 15.8475 -56.1525
C10.5029 -50.808 7.5 -43.5583 7.5 -36
C7.5 -28.4417 10.5029 -21.192 15.8475 -15.8475
C21.192 -10.5029 28.4417 -7.5 36 -7.5
z
" id="C0_0_a811fe30f3"/>
     <path d="
M19.4944 -12.7664
L19.9009 -12.6453
L20.3011 -12.5441
L20.6942 -12.463
L21.0793 -12.4022
L21.4554 -12.3615
L21.8221 -12.3408
L22.1787 -12.3398
L22.5248 -12.3582
L22.86 -12.3954
L23.1841 -12.451
L23.4971 -12.5243
L23.799 -12.6145
L24.09 -12.7209
L24.3701 -12.8426
L24.6398 -12.9787
L24.8993 -13.1285
L25.1491 -13.291
L25.3897 -13.4653
L25.6213 -13.6506
L25.8446 -13.8462
L26.0599 -14.0511
L26.2677 -14.2645
L26.4685 -14.4859
L26.6627 -14.7145
L26.8506 -14.9495
L27.0327 -15.1905
L27.2093 -15.4368
L27.3808 -15.6879
L27.5474 -15.9432
L27.7095 -16.2024
L27.8674 -16.4649
L28.0212 -16.7304
L28.1712 -16.9984
L28.3177 -17.2687
L28.4609 -17.5409
L28.6008 -17.8148
L28.7378 -18.0899
L28.8719 -18.3661
L29.0033 -18.6432
L29.1321 -18.9209
L29.2585 -19.199
L29.3825 -19.4774
L29.5043 -19.7559
L29.624 -20.0344
L29.7417 -20.3126
L29.8574 -20.5905
L29.9712 -20.8681
L30.0833 -21.1451
L30.1936 -21.4215
L30.3023 -21.6972
L30.4095 -21.9721
L30.5151 -22.2463
L30.6192 -22.5196
L30.7219 -22.792
L30.8232 -23.0634
L30.9233 -23.3339
L31.0221 -23.6033
L31.1196 -23.8718
L31.216 -24.1392
L31.3112 -24.4055
L31.4054 -24.6708
L31.4984 -24.9351
L31.5905 -25.1983
L31.6816 -25.4604
L31.7717 -25.7216
L31.8609 -25.9817
L31.9492 -26.2408
L32.0367 -26.4989
L32.1233 -26.7561
L32.2091 -27.0123
L32.2942 -27.2676
L32.3785 -27.522
L32.4621 -27.7756
L32.545 -28.0283
L32.6273 -28.2802
L32.7089 -28.5314
L32.7899 -28.7818
L32.8703 -29.0316
L32.9501 -29.2807
L33.0294 -29.5292
L33.1082 -29.7771
L33.1865 -30.0245
L33.2643 -30.2713
L33.3416 -30.5177
L33.4185 -30.7638
L33.495 -31.0094
L33.5711 -31.2547
L33.6468 -31.4997
L33.7221 -31.7445
L33.7971 -31.9891
L33.8717 -32.2336
L33.9461 -32.4779
L34.0201 -32.7222
L34.0939 -32.9665
L34.1674 -33.2108
L34.3137 -33.4552
L34.3865 -33.6997
L34.4592 -33.9445
L34.5316 -34.1894
L34.6038 -34.4346
L34.6759 -34.6801
L34.7479 -34.926
L34.8197 -35.1724
L34.8914 -35.4192
L34.9629 -35.6665
L35.0344 -35.9143
L35.1058 -36.1628
L35.1771 -36.412
L35.2483 -36.6618
L35.3195 -36.9124
L35.3906 -37.1638
L35.4616 -37.4161
L35.5326 -37.6693
L35.6036 -37.9235
L35.6746 -38.1786
L35.7455 -38.4348
L35.8164 -38.6921
L35.8872 -38.9505
L35.9581 -39.2101
L36.0289 -39.471
L36.0998 -39.7331
L36.1706 -39.9966
L36.2413 -40.2615
L36.3121 -40.5277
L36.3828 -40.7954
L36.4535 -41.0647
L36.5241 -41.3354
L36.5946 -41.6078
L36.6651 -41.8817
L36.7355 -42.1573
L36.8058 -42.4346
L36.8759 -42.7137
L36.9459 -42.9944
L37.0158 -43.277
L37.0854 -43.5614
L37.1547 -43.8476
L37.2238 -44.1356
L37.2926 -44.4255
L37.361 -44.7173
L37.429 -45.011
L37.4965 -45.3066
L37.5635 -45.6041
L37.6299 -45.9035
L37.6956 -46.2048
L37.7606 -46.5079
L37.8248 -46.813
L37.888 -47.1198
L37.9502 -47.4285
L38.0113 -47.739
L38.0711 -48.0511
L38.1294 -48.365
L38.1863 -48.6805
L38.2414 -48.9975
L38.2947 -49.316
L38.3458 -49.6359
L38.3947 -49.957
L38.4411 -50.2794
L38.4848 -50.6028
L38.5255 -50.9271
L38.5628 -51.2522
L38.5966 -51.5779
L38.6265 -51.9041
L38.652 -52.2306
L38.6729 -52.5571
L38.6887 -52.8835
L38.6989 -53.2094
L38.703 -53.5348
L38.7006 -53.8592
L38.6911 -54.1824
L38.6739 -54.5041
L38.6484 -54.824
L38.6138 -55.1417
L38.5696 -55.4568
L38.515 -55.7689
L38.4492 -56.0777
L38.3716 -56.3827
L38.2814 -56.6834
L38.1778 -56.9793
L38.06 -57.27
L37.9275 -57.5549
L37.7796 -57.8336
L37.6156 -58.1055
L37.4352 -58.37
L37.2379 -58.6267
L37.0234 -58.875
L36.7917 -59.1143
L36.5427 -59.3443
L36.2765 -59.5644
L35.9934 -59.7741
L35.6937 -59.9732
L35.3781 -60.1611
L35.0472 -60.3377
L34.7016 -60.5025
L34.3422 -60.6554
L33.9699 -60.7961
L33.5855 -60.9246
L33.1901 -61.0406
L32.7847 -61.1442
L32.3701 -61.2353
L31.9474 -61.3138
L31.5176 -61.3799
L31.0815 -61.4336
L30.64 -61.475
L30.1942 -61.5042
L29.7447 -61.5214
L29.2923 -61.5267
L28.8379 -61.5204
L28.3821 -61.5025
L27.9256 -61.4735
L27.469 -61.4334
L27.0129 -61.3825
L26.5578 -61.321
L26.1043 -61.2493
L25.6528 -61.1676
L25.2038 -61.0762
L24.7575 -60.9752
L24.3145 -60.8651
L23.875 -60.746
L23.4393 -60.6183
L23.0078 -60.4822
L22.5805 -60.338
L22.1579 -60.1859
L21.74 -60.0262
L21.3271 -59.8593
L20.9193 -59.6852
L20.5167 -59.5043
L20.1194 -59.3169
L19.7277 -59.1231
L19.3415 -58.9231
L18.9609 -58.7173
L18.5859 -58.5058
L18.2168 -58.2889
L17.8533 -58.0666
L17.4957 -57.8393
L17.1439 -57.6071
L16.7737 -57.3702
L16.4094 -57.038
L16.0512 -56.6993
L15.699 -56.3542
L15.353 -56.0029
L15.0132 -55.6456
L14.6799 -55.2823
L14.3531 -54.9131
L14.0328 -54.5381
L13.7193 -54.1575
L13.4125 -53.7713
L13.1127 -53.3798
L12.8198 -52.9829
L12.5339 -52.5809
L12.2552 -52.1738
L11.9837 -51.7618
L11.7196 -51.345
L11.4628 -50.9235
L11.2136 -50.4975
L10.9718 -50.0671
L10.7377 -49.6323
L10.5113 -49.1935
L10.2927 -48.7506
L10.0819 -48.3038
L9.87893 -47.8533
L9.68397 -47.3991
L9.49702 -46.9415
L9.31815 -46.4806
L9.1474 -46.0164
L8.98483 -45.5492
L8.8305 -45.0791
L8.68443 -44.6063
L8.54669 -44.1308
L8.41731 -43.6528
L8.29634 -43.1725
L8.1838 -42.6901
L8.07973 -42.2056
L7.98417 -41.7191
L7.89714 -41.231
L7.81868 -40.7413
L7.7488 -40.2501
L7.68752 -39.7576
L7.63487 -39.264
L7.59086 -38.7694
L7.5555 -38.2739
L7.52881 -37.7777
L7.51078 -37.281
L7.50144 -36.784
L7.50078 -36.2866
L7.5088 -35.7892
L7.5255 -35.2919
L7.55087 -34.7947
L7.58491 -34.298
L7.6276 -33.8017
L7.67893 -33.3061
L7.7389 -32.8114
L7.80747 -32.3176
L7.88463 -31.8249
L7.97035 -31.3336
L8.06461 -30.8436
L8.16738 -30.3552
L8.27863 -29.8685
L8.39832 -29.3837
L8.52642 -28.9009
L8.66289 -28.4203
L8.80769 -27.9419
L8.96077 -27.4661
L9.12208 -26.9928
L9.29158 -26.5223
L9.46922 -26.0546
L9.65494 -25.59
L9.84869 -25.1286
L10.0504 -24.6704
L10.26 -24.2158
L10.4775 -23.7647
L10.7027 -23.3173
L10.9356 -22.8738
L11.1762 -22.4343
L11.4243 -21.9989
L11.68 -21.5678
L11.943 -21.1411
L12.2133 -20.719
L12.4909 -20.3014
L12.7757 -19.8887
L13.0675 -19.4809
L13.3664 -19.0781
L13.6721 -18.6804
L13.9846 -18.288
L14.3038 -17.9011
L14.6297 -17.5196
L14.962 -17.1437
L15.3007 -16.7737
L15.6458 -16.4094
L15.9971 -16.0512
L16.3544 -15.699
L16.7177 -15.353
L17.0869 -15.0132
L17.4619 -14.6799
L17.8425 -14.3531
L18.2287 -14.0328
L18.6202 -13.7193
L19.0171 -13.4125
z
" id="C0_1_4f9279b443"/>
     <path d="
M55.1338 -14.9464
L55.4045 -15.2643
L55.6686 -15.5831
L55.9262 -15.9027
L56.1774 -16.2229
L56.4223 -16.5439
L56.661 -16.8653
L56.8937 -17.1873
L57.1204 -17.5098
L57.3412 -17.8326
L57.5562 -18.1558
L57.7656 -18.4793
L57.9694 -18.8031
L58.1677 -19.1272
L58.3607 -19.4515
L58.5484 -19.776
L58.731 -20.1008
L58.9085 -20.4257
L59.0809 -20.7508
L59.2485 -21.0761
L59.4112 -21.4015
L59.5692 -21.7272
L59.7226 -22.053
L59.8713 -22.3791
L60.0155 -22.7053
L60.1553 -23.0318
L60.2907 -23.3585
L60.4217 -23.6855
L60.5485 -24.0127
L60.6711 -24.3403
L60.7895 -24.6682
L60.9039 -24.9964
L61.0141 -25.325
L61.1204 -25.6541
L61.2227 -25.9836
L61.321 -26.3135
L61.4155 -26.644
L61.5061 -26.9751
L61.5928 -27.3067
L61.6758 -27.6389
L61.7549 -27.9718
L61.8303 -28.3054
L61.9019 -28.6397
L61.9698 -28.9749
L62.0339 -29.3108
L62.0943 -29.6476
L62.151 -29.9853
L62.2039 -30.324
L62.2531 -30.6636
L62.2986 -31.0043
L62.3403 -31.3461
L62.3783 -31.689
L62.4125 -32.033
L62.4429 -32.3783
L62.4695 -32.7248
L62.4922 -33.0726
L62.511 -33.4217
L62.526 -33.7722
L62.537 -34.1241
L62.544 -34.4775
L62.547 -34.8324
L62.5459 -35.1888
L62.5407 -35.5467
L62.5314 -35.9063
L62.5178 -36.2675
L62.4999 -36.6304
L62.4776 -36.9949
L62.451 -37.3612
L62.4199 -37.7293
L62.3842 -38.0991
L62.3439 -38.4707
L62.2989 -38.8441
L62.2491 -39.2193
L62.1945 -39.5964
L62.1349 -39.9753
L62.0703 -40.356
L62.0006 -40.7386
L61.9257 -41.1231
L61.8455 -41.5093
L61.7599 -41.8974
L61.6688 -42.2872
L61.5722 -42.6789
L61.4699 -43.0722
L61.3618 -43.4673
L61.2479 -43.864
L61.1281 -44.2622
L61.0023 -44.662
L60.8703 -45.0633
L60.7322 -45.466
L60.5878 -45.87
L60.4371 -46.2751
L60.28 -46.6814
L60.1164 -47.0887
L59.9464 -47.4969
L59.7699 -47.9058
L59.5868 -48.3153
L59.3971 -48.7253
L59.2009 -49.1355
L58.9983 -49.5459
L58.7891 -49.9563
L58.5735 -50.3664
L58.3516 -50.7761
L58.1235 -51.1852
L57.8893 -51.5934
L57.6492 -52.0006
L57.4035 -52.4065
L57.1523 -52.8108
L56.8959 -53.2134
L56.6347 -53.614
L56.369 -54.0124
L56.0993 -54.4083
L55.826 -54.8015
L55.5496 -55.1918
L55.2707 -55.5789
L54.9899 -55.9626
L54.7079 -56.3427
L54.4254 -56.719
L54.1433 -57.0913
L53.8623 -57.4595
L53.5833 -57.8234
L53.3072 -58.1829
L53.035 -58.5379
L53.2413 -58.8883
L53.6347 -58.6933
L54.0228 -58.389
L54.4054 -58.0778
L54.7823 -57.7599
L55.1536 -57.4354
L55.519 -57.1043
L55.8784 -56.7668
L56.2318 -56.423
L56.5791 -56.073
L56.92 -55.7168
L57.2546 -55.3546
L57.5828 -54.9866
L57.9043 -54.6128
L58.2192 -54.2333
L58.5273 -53.8482
L58.8285 -53.4577
L59.1228 -53.0619
L59.4101 -52.6609
L59.6902 -52.2548
L59.9631 -51.8437
L60.2287 -51.4279
L60.4869 -51.0073
L60.7377 -50.5822
L60.9809 -50.1526
L61.2165 -49.7187
L61.4445 -49.2806
L61.6647 -48.8385
L61.877 -48.3925
L62.0815 -47.9427
L62.2781 -47.4893
L62.4666 -47.0323
L62.6471 -46.5721
L62.8195 -46.1085
L62.9836 -45.6419
L63.1396 -45.1724
L63.2873 -44.7001
L63.4267 -44.2251
L63.5577 -43.7476
L63.6804 -43.2678
L63.7946 -42.7857
L63.9003 -42.3016
L63.9976 -41.8156
L64.0863 -41.3277
L64.1665 -40.8383
L64.2381 -40.3474
L64.301 -39.8552
L64.3554 -39.3618
L64.4011 -38.8673
L64.4382 -38.372
L64.4666 -37.876
L64.4863 -37.3794
L64.4974 -36.8824
L64.4998 -36.3851
L64.4935 -35.8877
L64.4785 -35.3903
L64.4548 -34.8931
L64.4225 -34.3963
L64.3815 -33.8999
L64.3319 -33.4042
L64.2737 -32.9092
L64.2068 -32.4153
L64.1313 -31.9224
L64.0473 -31.4307
L63.9547 -30.9404
L63.8536 -30.4517
L63.7441 -29.9647
L63.626 -29.4795
L63.4996 -28.9963
L63.3648 -28.5152
L63.2216 -28.0364
L63.0702 -27.56
L62.9105 -27.0862
L62.7426 -26.6152
L62.5666 -26.1469
L62.3825 -25.6817
L62.1903 -25.2196
L61.9902 -24.7608
L61.7821 -24.3055
L61.5662 -23.8537
L61.3425 -23.4056
L61.1111 -22.9613
L60.872 -22.521
L60.6254 -22.0848
L60.3712 -21.6528
L60.1097 -21.2252
L59.8407 -20.8022
L59.5646 -20.3837
L59.2812 -19.97
L58.9908 -19.5612
L58.6933 -19.1574
L58.389 -18.7587
L58.0778 -18.3653
L57.7599 -17.9772
L57.4354 -17.5946
L57.1043 -17.2177
L56.7668 -16.8464
L56.423 -16.481
L56.073 -16.1216
L55.7168 -15.7682
z
" id="C0_2_8876c21479"/>
    </defs>
    <g clip-path="url(#p1bffca34e9)">
     <use style="fill:#ff0000;stroke:#000000;stroke-width:2.0;" x="0.0" xlink:href="#C0_0_a811fe30f3" y="72.0"/>
    </g>
    <g clip-path="url(#p1bffca34e9)">
     <use style="fill:#ffffff;stroke:#000000;stroke-width:2.0;" x="0.0" xlink:href="#C0_1_4f9279b443" y="72.0"/>
    </g>
    <g clip-path="url(#p1bffca34e9)">
     <use style="fill:#ffffff;stroke:#000000;stroke-width:2.0;" x="0.0" xlink:href="#C0_2_8876c21479" y="72.0"/>
    </g>
   </g>
  </g>
 </g>
 <defs>
  <clipPath id="p1bffca34e9">
   <rect height="72.0" width="72.0" x="0.0" y="0.0"/>
  </clipPath>
 </defs>
</svg>
