<?xml version="1.0" encoding="utf-8" standalone="no"?>
<!DOCTYPE svg PUBLIC "-//W3C//DTD SVG 1.1//EN"
  "http://www.w3.org/Graphics/SVG/1.1/DTD/svg11.dtd">
<!-- Created with matplotlib (http://matplotlib.org/) -->
<svg height="72pt" version="1.1" viewBox="0 0 72 72" width="72pt" xmlns="http://www.w3.org/2000/svg" xmlns:xlink="http://www.w3.org/1999/xlink">
 <defs>
  <style type="text/css">
*{stroke-linecap:butt;stroke-linejoin:round;}
  </style>
 </defs>
 <g id="figure_1">
  <g id="patch_1">
   <path d="
M0 72
L72 72
L72 0
L0 0
z
" style="fill:none;"/>
  </g>
  <g id="axes_1">
   <g id="PatchCollection_1">
    <defs>
     <path d="
M36 -7.5
C43.5583 -7.5 50.808 -10.5029 56.1525 -15.8475
C61.4971 -21.192 64.5 -28.4417 64.5 -36
C64.5 -43.5583 61.4971 -50.808 56.1525 -56.1525
C50.808 -61.4971 43.5583 -64.5 36 -64.5
C28.4417 -64.5 21.192 -61.4971 15.8475 -56.1525
C10.5029 -50.808 7.5 -43.5583 7.5 -36
C7.5 -28.4417 10.5029 -21.192 15.8475 -15.8475
C21.192 -10.5029 28.4417 -7.5 36 -7.5
z
" id="C0_0_a811fe30f3"/>
     <path d="
M32.6348 -64.1123
L32.4521 -63.8183
L32.2666 -63.5208
L32.0795 -63.2201
L31.8917 -62.9165
L31.7041 -62.6105
L31.5175 -62.3023
L31.3325 -61.9922
L31.1495 -61.6805
L30.969 -61.3675
L30.7913 -61.0535
L30.6166 -60.7386
L30.4452 -60.4232
L30.2772 -60.1074
L30.1128 -59.7915
L29.9521 -59.4757
L29.7951 -59.16
L29.6419 -58.8448
L29.4924 -58.5301
L29.3468 -58.2161
L29.2049 -57.9029
L29.0668 -57.5907
L28.9324 -57.2795
L28.8016 -56.9694
L28.6745 -56.6606
L28.5509 -56.353
L28.4309 -56.0468
L28.3142 -55.742
L28.2009 -55.4387
L28.0909 -55.1369
L27.9841 -54.8366
L27.8805 -54.5379
L27.7799 -54.2407
L27.6822 -53.9452
L27.5875 -53.6513
L27.4957 -53.359
L27.4065 -53.0683
L27.3201 -52.7791
L27.2363 -52.4916
L27.1551 -52.2057
L27.0763 -51.9213
L26.9999 -51.6384
L26.9259 -51.357
L26.8542 -51.0772
L26.7846 -50.7987
L26.7173 -50.5217
L26.652 -50.246
L26.5889 -49.9717
L26.5277 -49.6987
L26.4684 -49.4269
L26.411 -49.1564
L26.3555 -48.887
L26.3018 -48.6188
L26.2499 -48.3516
L26.1996 -48.0854
L26.151 -47.8202
L26.1041 -47.556
L26.0587 -47.2926
L26.015 -47.0301
L25.9727 -46.7683
L25.9319 -46.5072
L25.8926 -46.2468
L25.8548 -45.987
L25.8183 -45.7278
L25.7832 -45.469
L25.7495 -45.2107
L25.7171 -44.9528
L25.686 -44.6952
L25.6562 -44.4379
L25.6277 -44.1808
L25.6005 -43.9238
L25.5745 -43.667
L25.5497 -43.4102
L25.5261 -43.1533
L25.5037 -42.8964
L25.4626 -42.6393
L25.4438 -42.3821
L25.4261 -42.1245
L25.4097 -41.8667
L25.3944 -41.6085
L25.3802 -41.3498
L25.3672 -41.0906
L25.3554 -40.8309
L25.3447 -40.5705
L25.3352 -40.3094
L25.3269 -40.0476
L25.3197 -39.785
L25.3137 -39.5214
L25.3089 -39.257
L25.3053 -38.9915
L25.3029 -38.725
L25.3017 -38.4573
L25.3018 -38.1884
L25.3031 -37.9183
L25.3057 -37.6468
L25.3095 -37.3739
L25.3147 -37.0996
L25.3212 -36.8238
L25.329 -36.5463
L25.3382 -36.2673
L25.3488 -35.9865
L25.3608 -35.7039
L25.3742 -35.4194
L25.3891 -35.1331
L25.4056 -34.8448
L25.4235 -34.5545
L25.4431 -34.262
L25.4643 -33.9674
L25.4871 -33.6706
L25.5115 -33.3715
L25.5378 -33.0701
L25.5657 -32.7663
L25.5955 -32.46
L25.6272 -32.1513
L25.6607 -31.84
L25.6962 -31.5261
L25.7337 -31.2096
L25.7732 -30.8903
L25.8148 -30.5684
L25.8586 -30.2437
L25.9045 -29.9163
L25.9526 -29.586
L26.0031 -29.2529
L26.0559 -28.9169
L26.111 -28.5781
L26.1686 -28.2364
L26.2287 -27.8919
L26.2913 -27.5445
L26.3564 -27.1942
L26.4241 -26.8412
L26.4944 -26.4854
L26.5674 -26.1269
L26.643 -25.7658
L26.7213 -25.402
L26.8022 -25.0358
L26.8858 -24.6671
L26.972 -24.2961
L27.0608 -23.923
L27.152 -23.5478
L27.2457 -23.1707
L27.3417 -22.7919
L27.4398 -22.4116
L27.5399 -22.0301
L27.6418 -21.6474
L27.7451 -21.264
L27.8497 -20.8801
L27.955 -20.4961
L28.0606 -20.1121
L28.166 -19.7288
L28.2705 -19.3464
L28.3733 -18.9655
L28.4736 -18.5865
L28.5702 -18.2099
L28.6619 -17.8365
L28.7473 -17.4668
L28.8247 -17.1015
L28.8922 -16.7416
L28.9477 -16.3878
L28.9887 -16.041
L29.0127 -15.7024
L29.0168 -15.373
L28.9983 -15.054
L28.9545 -14.7465
L28.8827 -14.4517
L28.7808 -14.1708
L28.6475 -13.9047
L28.4817 -13.6543
L28.2836 -13.4204
L28.0539 -13.2034
L27.7939 -13.0035
L27.5057 -12.8209
L27.1914 -12.6553
L26.8536 -12.5065
L26.4948 -12.3742
L26.1175 -12.2581
L25.7242 -12.1577
L25.3169 -12.0726
L24.8978 -12.0025
L24.4688 -11.9468
L24.0314 -11.9054
L23.5873 -11.8777
L23.1377 -11.8636
L22.6838 -11.8626
L22.2269 -11.8746
L21.7678 -11.8991
L21.3074 -11.936
L20.8465 -11.9849
L20.3456 -12.0456
L19.9323 -12.1843
L19.524 -12.4611
L19.1206 -12.7451
L18.7224 -13.0362
L18.3295 -13.3343
L17.9419 -13.6393
L17.5599 -13.9511
L17.1834 -14.2696
L16.8127 -14.5947
L16.4479 -14.9264
L16.0889 -15.2644
L15.7361 -15.6088
L15.3894 -15.9594
L15.049 -16.3161
L14.715 -16.6788
L14.3875 -17.0474
L14.0666 -17.4218
L13.7523 -17.8018
L13.4448 -18.1874
L13.1442 -18.5784
L12.8506 -18.9746
L12.564 -19.3761
L12.2845 -19.7827
L12.0123 -20.1942
L11.7473 -20.6105
L11.4898 -21.0314
L11.2397 -21.457
L10.9972 -21.887
L10.7622 -22.3212
L10.535 -22.7597
L10.3155 -23.2022
L10.1039 -23.6485
L9.90013 -24.0987
L9.70431 -24.5524
L9.51651 -25.0097
L9.33678 -25.4703
L9.16516 -25.9341
L9.00172 -26.401
L8.84651 -26.8708
L8.69956 -27.3433
L8.56094 -27.8185
L8.43067 -28.2962
L8.30879 -28.7763
L8.19536 -29.2586
L8.09039 -29.7429
L7.99392 -30.2291
L7.90599 -30.717
L7.82661 -31.2066
L7.75582 -31.6977
L7.69362 -32.19
L7.64005 -32.6835
L7.59512 -33.178
L7.55885 -33.6734
L7.53123 -34.1695
L7.51229 -34.6661
L7.50202 -35.1632
L7.50044 -35.6605
L7.50753 -36.1579
L7.52331 -36.6553
L7.54776 -37.1524
L7.58088 -37.6492
L7.62265 -38.1456
L7.67307 -38.6412
L7.73211 -39.1361
L7.79977 -39.63
L7.87602 -40.1227
L7.96083 -40.6143
L8.05419 -41.1044
L8.15605 -41.593
L8.2664 -42.0799
L8.3852 -42.5649
L8.51241 -43.0479
L8.64799 -43.5288
L8.7919 -44.0073
L8.9441 -44.4835
L9.10454 -44.957
L9.27318 -45.4279
L9.44996 -45.8958
L9.63482 -46.3608
L9.82771 -46.8225
L10.0286 -47.281
L10.2374 -47.7361
L10.454 -48.1876
L10.6784 -48.6353
L10.9105 -49.0792
L11.1503 -49.5192
L11.3976 -49.955
L11.6524 -50.3865
L11.9147 -50.8137
L12.1843 -51.2364
L12.4611 -51.6544
L12.7451 -52.0677
L13.0362 -52.476
L13.3343 -52.8794
L13.6393 -53.2776
L13.9511 -53.6705
L14.2696 -54.0581
L14.5947 -54.4401
L14.9264 -54.8166
L15.2644 -55.1873
L15.6088 -55.5521
L15.9594 -55.9111
L16.3161 -56.2639
L16.6788 -56.6106
L17.0474 -56.951
L17.4218 -57.285
L17.8018 -57.6125
L18.1874 -57.9334
L18.5784 -58.2477
L18.9746 -58.5552
L19.3761 -58.8558
L19.7827 -59.1494
L20.1942 -59.436
L20.6105 -59.7155
L21.0314 -59.9877
L21.457 -60.2527
L21.887 -60.5102
L22.3212 -60.7603
L22.7597 -61.0028
L23.2022 -61.2378
L23.6485 -61.465
L24.0987 -61.6845
L24.5524 -61.8961
L25.0097 -62.0999
L25.4703 -62.2957
L25.9341 -62.4835
L26.401 -62.6632
L26.8708 -62.8348
L27.3433 -62.9983
L27.8185 -63.1535
L28.2962 -63.3004
L28.7763 -63.4391
L29.2586 -63.5693
L29.7429 -63.6912
L30.2291 -63.8046
L30.717 -63.9096
L31.2066 -64.0061
L31.6977 -64.094
z
" id="C0_1_c15970e7f0"/>
     <path d="
M51.5775 -59.826
L51.8285 -59.4351
L52.0715 -59.0433
L52.3064 -58.6509
L52.5331 -58.2583
L52.7516 -57.8659
L52.9618 -57.4739
L53.1639 -57.0826
L53.3578 -56.6923
L53.5438 -56.3032
L53.7219 -55.9155
L53.8923 -55.5295
L54.0551 -55.1452
L54.2105 -54.763
L54.3586 -54.3828
L54.4996 -54.0048
L54.6338 -53.6292
L54.7612 -53.256
L54.8822 -52.8853
L54.9967 -52.5171
L55.1052 -52.1516
L55.2076 -51.7888
L55.3043 -51.4286
L55.3953 -51.0712
L55.4809 -50.7165
L55.5612 -50.3646
L55.6363 -50.0155
L55.7065 -49.6691
L55.7719 -49.3254
L55.8327 -48.9845
L55.8889 -48.6462
L55.9408 -48.3106
L55.9884 -47.9776
L56.0319 -47.6473
L56.0714 -47.3195
L56.107 -46.9942
L56.1389 -46.6713
L56.1671 -46.3509
L56.1918 -46.0329
L56.2131 -45.7171
L56.231 -45.4036
L56.2456 -45.0923
L56.257 -44.7832
L56.2654 -44.4761
L56.2707 -44.1711
L56.273 -43.868
L56.2725 -43.5668
L56.2692 -43.2674
L56.2631 -42.9698
L56.2543 -42.6739
L56.2428 -42.3797
L56.2287 -42.087
L56.2121 -41.7959
L56.193 -41.5062
L56.1713 -41.2178
L56.1473 -40.9308
L56.1208 -40.6451
L56.0919 -40.3605
L56.0607 -40.0771
L56.0271 -39.7947
L55.9912 -39.5133
L55.953 -39.2328
L55.9126 -38.9532
L55.8698 -38.6745
L55.8248 -38.3964
L55.7775 -38.1191
L55.728 -37.8424
L55.6762 -37.5662
L55.6222 -37.2905
L55.5658 -37.0153
L55.5073 -36.7404
L55.4464 -36.4658
L55.3832 -36.1915
L55.3178 -35.9174
L55.25 -35.6435
L55.1798 -35.3696
L55.1073 -35.0957
L55.0324 -34.8218
L54.9551 -34.5478
L54.8753 -34.2737
L54.7931 -33.9994
L54.7083 -33.7248
L54.621 -33.4499
L54.5311 -33.1746
L54.4385 -32.8989
L54.3433 -32.6227
L54.2453 -32.3461
L54.1446 -32.0688
L54.0411 -31.791
L53.9346 -31.5124
L53.8253 -31.2332
L53.7129 -30.9532
L53.5975 -30.6724
L53.4789 -30.3908
L53.3571 -30.1083
L53.2321 -29.8248
L53.1038 -29.5404
L52.972 -29.2551
L52.8368 -28.9686
L52.6979 -28.6812
L52.5555 -28.3926
L52.4093 -28.1029
L52.2593 -27.8121
L52.1053 -27.5201
L51.9474 -27.227
L51.7854 -26.9327
L51.6191 -26.6372
L51.4487 -26.3405
L51.2738 -26.0425
L51.0944 -25.7434
L50.9105 -25.4431
L50.7219 -25.1416
L50.5285 -24.839
L50.3303 -24.5352
L50.127 -24.2303
L49.9188 -23.9244
L49.7053 -23.6174
L49.4866 -23.3095
L49.2626 -23.0006
L49.0331 -22.6909
L48.7981 -22.3804
L48.5576 -22.0692
L48.3114 -21.7574
L48.0595 -21.4452
L47.8019 -21.1325
L47.5385 -20.8195
L47.2693 -20.5064
L46.9943 -20.1932
L46.7135 -19.8802
L46.4269 -19.5674
L46.1346 -19.2551
L45.8368 -18.9433
L45.5334 -18.6324
L45.2246 -18.3223
L44.9107 -18.0135
L44.5919 -17.7059
L44.2684 -17.3999
L43.9406 -17.0956
L43.609 -16.7931
L43.2739 -16.4928
L42.9359 -16.1947
L42.5958 -15.899
L42.2543 -15.6059
L41.9124 -15.3154
L41.571 -15.0277
L41.2315 -14.7427
L40.8953 -14.4606
L40.5639 -14.1813
L40.2394 -13.9045
L39.9237 -13.6303
L39.6193 -13.3582
L39.3288 -13.0881
L39.055 -12.8194
L38.8011 -12.5518
L38.57 -12.2847
L38.3648 -12.0176
L38.1883 -11.75
L38.0429 -11.4816
L37.9304 -11.2121
L37.8519 -10.9413
L37.8078 -10.6695
L37.7975 -10.3967
L37.8199 -10.1236
L37.8736 -9.85074
L37.9563 -9.57869
L38.066 -9.30823
L38.2003 -9.04009
L38.3571 -8.775
L38.5342 -8.51364
L38.7297 -8.25666
L38.9418 -8.00465
L39.6718 -7.75814
L40.1644 -7.73751
L40.6559 -7.8059
L41.1459 -7.88287
L41.6343 -7.96841
L42.121 -8.06249
L42.6059 -8.16507
L43.0887 -8.27614
L43.5694 -8.39565
L44.0478 -8.52357
L44.5237 -8.65986
L44.997 -8.80448
L45.4676 -8.95738
L45.9353 -9.11852
L46.4 -9.28784
L46.8615 -9.46531
L47.3197 -9.65085
L47.7745 -9.84443
L48.2256 -10.046
L48.6731 -10.2554
L49.1167 -10.4727
L49.5562 -10.6978
L49.9917 -10.9305
L50.4229 -11.1709
L50.8497 -11.4189
L51.272 -11.6744
L51.6896 -11.9372
L52.1025 -12.2074
L52.5104 -12.4849
L52.9133 -12.7695
L53.3111 -13.0612
L53.7036 -13.3598
L54.0907 -13.6654
L54.4722 -13.9778
L54.8482 -14.2969
L55.2184 -14.6226
L55.5828 -14.9548
L55.9412 -15.2934
L56.2935 -15.6383
L56.6397 -15.9894
L56.9795 -16.3466
L57.313 -16.7098
L57.6399 -17.0789
L57.9603 -17.4538
L58.274 -17.8343
L58.5809 -18.2203
L58.8809 -18.6117
L59.174 -19.0085
L59.46 -19.4104
L59.7389 -19.8174
L60.0105 -20.2292
L60.2748 -20.646
L60.5317 -21.0673
L60.7811 -21.4933
L61.023 -21.9236
L61.2573 -22.3582
L61.4839 -22.797
L61.7027 -23.2398
L61.9137 -23.6865
L62.1168 -24.137
L62.3119 -24.5911
L62.499 -25.0486
L62.6781 -25.5095
L62.849 -25.9735
L63.0117 -26.4407
L63.1663 -26.9107
L63.3125 -27.3835
L63.4504 -27.8589
L63.58 -28.3368
L63.7011 -28.8171
L63.8139 -29.2995
L63.9181 -29.784
L64.0139 -30.2703
L64.1011 -30.7585
L64.1797 -31.2482
L64.2498 -31.7393
L64.3112 -32.2318
L64.3641 -32.7254
L64.4083 -33.22
L64.4438 -33.7154
L64.4707 -34.2116
L64.4889 -34.7082
L64.4984 -35.2053
L64.4993 -35.7026
L64.4915 -36.2001
L64.475 -36.6974
L64.4498 -37.1945
L64.4159 -37.6913
L64.3734 -38.1876
L64.3223 -38.6832
L64.2625 -39.1779
L64.1941 -39.6718
L64.1171 -40.1644
L64.0316 -40.6559
L63.9375 -41.1459
L63.8349 -41.6343
L63.7239 -42.121
L63.6043 -42.6059
L63.4764 -43.0887
L63.3401 -43.5694
L63.1955 -44.0478
L63.0426 -44.5237
L62.8815 -44.997
L62.7122 -45.4676
L62.5347 -45.9353
L62.3491 -46.4
L62.1556 -46.8615
L61.954 -47.3197
L61.7446 -47.7745
L61.5273 -48.2256
L61.3022 -48.6731
L61.0695 -49.1167
L60.8291 -49.5562
L60.5811 -49.9917
L60.3256 -50.4229
L60.0628 -50.8497
L59.7926 -51.272
L59.5151 -51.6896
L59.2305 -52.1025
L58.9388 -52.5104
L58.6402 -52.9133
L58.3346 -53.3111
L58.0222 -53.7036
L57.7031 -54.0907
L57.3774 -54.4722
L57.0452 -54.8482
L56.7066 -55.2184
L56.3617 -55.5828
L56.0106 -55.9412
L55.6534 -56.2935
L55.2902 -56.6397
L54.9211 -56.9795
L54.5462 -57.313
L54.1657 -57.6399
L53.7797 -57.9603
L53.3883 -58.274
L52.9915 -58.5809
L52.5896 -58.8809
L52.1826 -59.174
z
" id="C0_2_409a4a26bc"/>
    </defs>
    <g clip-path="url(#p1bffca34e9)">
     <use style="fill:#ffffff;stroke:#000000;stroke-width:2.0;" x="0.0" xlink:href="#C0_0_a811fe30f3" y="72.0"/>
    </g>
    <g clip-path="url(#p1bffca34e9)">
     <use style="fill:#ff0000;stroke:#000000;stroke-width:2.0;" x="0.0" xlink:href="#C0_1_c15970e7f0" y="72.0"/>
    </g>
    <g clip-path="url(#p1bffca34e9)">
     <use style="fill:#ff0000;stroke:#000000;stroke-width:2.0;" x="0.0" xlink:href="#C0_2_409a4a26bc" y="72.0"/>
    </g>
   </g>
  </g>
 </g>
 <defs>
  <clipPath id="p1bffca34e9">
   <rect height="72.0" width="72.0" x="0.0" y="0.0"/>
  </clipPath>
 </defs>
</svg>
