<?xml version="1.0" encoding="utf-8" standalone="no"?>
<!DOCTYPE svg PUBLIC "-//W3C//DTD SVG 1.1//EN"
  "http://www.w3.org/Graphics/SVG/1.1/DTD/svg11.dtd">
<!-- Created with matplotlib (http://matplotlib.org/) -->
<svg height="72pt" version="1.1" viewBox="0 0 72 72" width="72pt" xmlns="http://www.w3.org/2000/svg" xmlns:xlink="http://www.w3.org/1999/xlink">
 <defs>
  <style type="text/css">
*{stroke-linecap:butt;stroke-linejoin:round;}
  </style>
 </defs>
 <g id="figure_1">
  <g id="patch_1">
   <path d="
M0 72
L72 72
L72 0
L0 0
z
" style="fill:none;"/>
  </g>
  <g id="axes_1">
   <g id="PatchCollection_1">
    <defs>
     <path d="
M36 -7.5
C43.5583 -7.5 50.808 -10.5029 56.1525 -15.8475
C61.4971 -21.192 64.5 -28.4417 64.5 -36
C64.5 -43.5583 61.4971 -50.808 56.1525 -56.1525
C50.808 -61.4971 43.5583 -64.5 36 -64.5
C28.4417 -64.5 21.192 -61.4971 15.8475 -56.1525
C10.5029 -50.808 7.5 -43.5583 7.5 -36
C7.5 -28.4417 10.5029 -21.192 15.8475 -15.8475
C21.192 -10.5029 28.4417 -7.5 36 -7.5
z
" id="C0_0_a811fe30f3"/>
     <path d="
M29.1435 -8.48363
L29.0577 -8.73813
L28.9934 -8.99236
L28.9504 -9.24604
L28.9282 -9.49896
L28.9261 -9.75094
L28.9434 -10.0019
L28.9793 -10.2517
L29.0328 -10.5003
L29.1031 -10.7479
L29.1892 -10.9943
L29.29 -11.2398
L29.4044 -11.4843
L29.5314 -11.728
L29.6701 -11.9709
L29.8194 -12.2132
L29.9783 -12.455
L30.1459 -12.6964
L30.3214 -12.9374
L30.5039 -13.1781
L30.6926 -13.4186
L30.8867 -13.6589
L31.0857 -13.8991
L31.2888 -14.1392
L31.4954 -14.3793
L31.7051 -14.6193
L31.9173 -14.8593
L32.1316 -15.0993
L32.3475 -15.3392
L32.5646 -15.579
L32.7827 -15.8187
L33.0013 -16.0583
L33.2202 -16.2978
L33.4392 -16.5371
L33.6579 -16.7762
L33.8762 -17.0151
L34.094 -17.2537
L34.3109 -17.492
L34.527 -17.73
L34.742 -17.9676
L34.9558 -18.2048
L35.1683 -18.4417
L35.3794 -18.678
L35.5891 -18.9139
L35.7973 -19.1493
L36.004 -19.3842
L36.209 -19.6186
L36.4123 -19.8524
L36.6139 -20.0857
L36.8139 -20.3184
L37.0121 -20.5505
L37.2085 -20.782
L37.4032 -21.0129
L37.5962 -21.2433
L37.7873 -21.473
L37.9768 -21.7022
L38.1645 -21.9308
L38.3504 -22.1588
L38.5347 -22.3862
L38.7172 -22.6131
L38.8981 -22.8394
L39.0773 -23.0652
L39.2549 -23.2904
L39.4309 -23.5152
L39.6053 -23.7395
L39.7782 -23.9633
L39.9495 -24.1867
L40.1194 -24.4096
L40.2877 -24.6322
L40.4547 -24.8544
L40.6202 -25.0763
L40.7844 -25.2978
L40.9472 -25.5191
L41.1087 -25.7401
L41.269 -25.9609
L41.428 -26.1814
L41.5858 -26.4019
L41.7425 -26.6222
L41.8979 -26.8424
L42.0523 -27.0625
L42.2056 -27.2826
L42.3579 -27.5027
L42.5091 -27.7229
L42.6594 -27.9431
L42.8087 -28.1635
L42.957 -28.384
L43.1045 -28.6047
L43.2511 -28.8257
L43.3969 -29.0469
L43.5419 -29.2685
L43.6861 -29.4904
L43.9723 -29.7126
L44.1143 -29.9354
L44.2557 -30.1586
L44.3964 -30.3823
L44.5366 -30.6066
L44.6761 -30.8315
L44.8151 -31.0571
L44.9535 -31.2833
L45.0914 -31.5103
L45.2288 -31.7381
L45.3658 -31.9666
L45.5022 -32.1961
L45.6383 -32.4265
L45.7739 -32.6578
L45.9092 -32.8901
L46.0441 -33.1234
L46.1786 -33.3579
L46.3128 -33.5935
L46.4467 -33.8302
L46.5803 -34.0682
L46.7136 -34.3074
L46.8466 -34.548
L46.9794 -34.7899
L47.112 -35.0331
L47.2443 -35.2779
L47.3764 -35.5241
L47.5082 -35.7718
L47.6399 -36.021
L47.7714 -36.2719
L47.9028 -36.5244
L48.0339 -36.7785
L48.1649 -37.0344
L48.2957 -37.292
L48.4264 -37.5514
L48.557 -37.8125
L48.6874 -38.0755
L48.8177 -38.3403
L48.9478 -38.607
L49.0778 -38.8756
L49.2077 -39.1461
L49.3375 -39.4185
L49.4671 -39.6928
L49.5967 -39.9691
L49.7261 -40.2473
L49.8553 -40.5274
L49.9845 -40.8094
L50.1135 -41.0933
L50.2425 -41.379
L50.3713 -41.6666
L50.5 -41.956
L50.6286 -42.2471
L50.7571 -42.54
L50.8856 -42.8344
L51.014 -43.1304
L51.1423 -43.4278
L51.2706 -43.7265
L51.399 -44.0265
L51.5274 -44.3276
L51.6558 -44.6297
L51.7844 -44.9325
L51.9132 -45.2359
L52.0422 -45.5398
L52.1716 -45.8438
L52.3014 -46.1478
L52.4317 -46.4514
L52.5627 -46.7544
L52.6945 -47.0565
L52.8273 -47.3573
L52.9612 -47.6564
L53.0965 -47.9534
L53.2333 -48.248
L53.3719 -48.5395
L53.5127 -48.8275
L53.6558 -49.1114
L53.8017 -49.3907
L53.9508 -49.6647
L54.1033 -49.9327
L54.2598 -50.194
L54.4207 -50.448
L54.5864 -50.6937
L54.7574 -50.9305
L54.9342 -51.1574
L55.1173 -51.3737
L55.3072 -51.5783
L55.5043 -51.7706
L55.7091 -51.9495
L55.9219 -52.1143
L56.1431 -52.2641
L56.3729 -52.3981
L56.6114 -52.5157
L56.8589 -52.6161
L57.1153 -52.6988
L57.3804 -52.7632
L57.6542 -52.809
L57.9363 -52.8359
L58.2262 -52.8435
L58.5237 -52.8318
L58.828 -52.8007
L59.2686 -52.7502
L59.5523 -52.4566
L59.8288 -52.048
L60.098 -51.6345
L60.3599 -51.2163
L60.6144 -50.7934
L60.8614 -50.366
L61.1008 -49.9342
L61.3325 -49.4982
L61.5565 -49.0581
L61.7728 -48.614
L61.9812 -48.1661
L62.1817 -47.7144
L62.3742 -47.2592
L62.5587 -46.8005
L62.7351 -46.3386
L62.9033 -45.8735
L63.0634 -45.4054
L63.2152 -44.9345
L63.3587 -44.4608
L63.4939 -43.9845
L63.6207 -43.5058
L63.7391 -43.0249
L63.849 -42.5417
L63.9505 -42.0566
L64.0434 -41.5697
L64.1278 -41.081
L64.2037 -40.5908
L64.2709 -40.0992
L64.3295 -39.6064
L64.3795 -39.1124
L64.4209 -38.6175
L64.4536 -38.1219
L64.4776 -37.6255
L64.493 -37.1287
L64.4997 -36.6315
L64.4977 -36.1341
L64.487 -35.6367
L64.4676 -35.1394
L64.4396 -34.6424
L64.4029 -34.1458
L64.3576 -33.6497
L64.3036 -33.1544
L64.241 -32.6599
L64.1698 -32.1664
L64.09 -31.6742
L64.0017 -31.1832
L63.9048 -30.6937
L63.7994 -30.2058
L63.6856 -29.7197
L63.5633 -29.2355
L63.4326 -28.7533
L63.2936 -28.2734
L63.1463 -27.7958
L62.9907 -27.3207
L62.8268 -26.8482
L62.6548 -26.3786
L62.4747 -25.9119
L62.2865 -25.4482
L62.0903 -24.9878
L61.8862 -24.5307
L61.6742 -24.0771
L61.4543 -23.6271
L61.2267 -23.1809
L60.9914 -22.7386
L60.7485 -22.3004
L60.4981 -21.8663
L60.2402 -21.4366
L59.9749 -21.0112
L59.7023 -20.5905
L59.4225 -20.1744
L59.1356 -19.7631
L58.8416 -19.3568
L58.5406 -18.9556
L58.2328 -18.5595
L57.9182 -18.1688
L57.597 -17.7835
L57.2692 -17.4038
L56.9348 -17.0297
L56.5941 -16.6614
L56.2472 -16.2989
L55.894 -15.9425
L55.5348 -15.5922
L55.1697 -15.2481
L54.7987 -14.9104
L54.422 -14.579
L54.0397 -14.2542
L53.6519 -13.936
L53.2587 -13.6245
L52.8602 -13.3199
L52.4566 -13.0221
L52.048 -12.7314
L51.6345 -12.4477
L51.2163 -12.1712
L50.7934 -11.902
L50.366 -11.6401
L49.9342 -11.3856
L49.4982 -11.1386
L49.0581 -10.8992
L48.614 -10.6675
L48.1661 -10.4435
L47.7144 -10.2272
L47.2592 -10.0188
L46.8005 -9.81832
L46.3386 -9.6258
L45.8735 -9.44132
L45.4054 -9.26494
L44.9345 -9.09669
L44.4608 -8.93664
L43.9845 -8.78484
L43.5058 -8.64132
L43.0249 -8.50614
L42.5417 -8.37933
L42.0566 -8.26094
L41.5697 -8.15099
L41.081 -8.04953
L40.5908 -7.95658
L40.0992 -7.87218
L39.6064 -7.79634
L39.1124 -7.7291
L38.6175 -7.67046
L38.1219 -7.62046
L37.6255 -7.5791
L37.1287 -7.54639
L36.6315 -7.52236
L36.1341 -7.507
L35.6367 -7.50032
L35.1394 -7.50232
L34.6424 -7.513
L34.1458 -7.53235
L33.6497 -7.56038
L33.1544 -7.59707
L32.6599 -7.64242
L32.1664 -7.6964
L31.6742 -7.759
L31.1832 -7.83021
L30.6937 -7.91
L30.2058 -7.99834
L29.7197 -8.09521
z
" id="C0_1_a0c5ce53c7"/>
     <path d="
M12.9009 -19.3479
L12.9225 -19.675
L12.9388 -20.0112
L12.9507 -20.3556
L12.959 -20.7076
L12.9644 -21.0664
L12.9675 -21.4312
L12.9692 -21.8014
L12.97 -22.1764
L12.9705 -22.5554
L12.9712 -22.938
L12.9726 -23.3234
L12.9751 -23.7113
L12.979 -24.1009
L12.9848 -24.492
L12.9926 -24.884
L13.0028 -25.2764
L13.0155 -25.669
L13.031 -26.0614
L13.0493 -26.4532
L13.0706 -26.8441
L13.095 -27.2339
L13.1225 -27.6223
L13.1532 -28.009
L13.1871 -28.3939
L13.2242 -28.7768
L13.2646 -29.1574
L13.3082 -29.5357
L13.355 -29.9115
L13.405 -30.2847
L13.4581 -30.6552
L13.5143 -31.0228
L13.5735 -31.3876
L13.6358 -31.7494
L13.701 -32.1082
L13.769 -32.464
L13.8399 -32.8167
L13.9135 -33.1663
L13.9899 -33.5127
L14.0689 -33.856
L14.1504 -34.1962
L14.2345 -34.5333
L14.321 -34.8673
L14.4099 -35.1981
L14.5012 -35.5259
L14.5948 -35.8506
L14.6905 -36.1723
L14.7885 -36.491
L14.8886 -36.8067
L14.9909 -37.1195
L15.0951 -37.4294
L15.2014 -37.7365
L15.3096 -38.0408
L15.4198 -38.3423
L15.5319 -38.6412
L15.6458 -38.9374
L15.7616 -39.231
L15.8792 -39.5221
L15.9985 -39.8107
L16.1197 -40.0968
L16.2426 -40.3806
L16.3672 -40.662
L16.4935 -40.9411
L16.6215 -41.2181
L16.7513 -41.4928
L16.8827 -41.7655
L17.0157 -42.036
L17.1505 -42.3046
L17.2869 -42.5712
L17.425 -42.836
L17.5648 -43.0989
L17.7062 -43.3599
L17.8494 -43.6193
L17.9942 -43.8769
L18.1407 -44.1329
L18.289 -44.3873
L18.4389 -44.6402
L18.5907 -44.8915
L18.7441 -45.1415
L18.8994 -45.39
L19.0564 -45.6371
L19.2153 -45.8829
L19.3761 -46.1275
L19.5387 -46.3708
L19.7032 -46.6129
L19.8696 -46.8539
L20.038 -47.0937
L20.2083 -47.3325
L20.3807 -47.5702
L20.5552 -47.807
L20.7318 -48.0427
L20.9104 -48.2776
L21.0913 -48.5115
L21.2744 -48.7445
L21.4597 -48.9767
L21.6474 -49.2081
L21.8373 -49.4387
L22.0297 -49.6685
L22.2245 -49.8976
L22.4218 -50.1259
L22.6216 -50.3535
L22.824 -50.5804
L23.0291 -50.8067
L23.2368 -51.0323
L23.4473 -51.2572
L23.6605 -51.4815
L23.8767 -51.7052
L24.0957 -51.9282
L24.3177 -52.1506
L24.5427 -52.3724
L24.7708 -52.5936
L25.002 -52.8141
L25.2364 -53.034
L25.474 -53.2533
L25.715 -53.4719
L25.9593 -53.6898
L26.207 -53.907
L26.4582 -54.1236
L26.7128 -54.3394
L26.9711 -54.5544
L27.2329 -54.7687
L27.4984 -54.9821
L27.7676 -55.1947
L28.0406 -55.4063
L28.3173 -55.6171
L28.5978 -55.8269
L28.8821 -56.0356
L29.1703 -56.2433
L29.4623 -56.4498
L29.7582 -56.6551
L30.0579 -56.8592
L30.3615 -57.062
L30.669 -57.2634
L30.9802 -57.4634
L31.2952 -57.6618
L31.614 -57.8587
L31.9363 -58.054
L32.2623 -58.2476
L32.5917 -58.4394
L32.9245 -58.6293
L33.2604 -58.8174
L33.5995 -59.0035
L33.9414 -59.1875
L34.286 -59.3696
L34.6331 -59.5495
L34.9823 -59.7274
L35.3335 -59.903
L35.6863 -60.0766
L36.0403 -60.248
L36.3952 -60.4172
L36.7505 -60.5844
L37.1057 -60.7496
L37.4605 -60.9129
L37.8141 -61.0743
L38.166 -61.2341
L38.5156 -61.3924
L38.8622 -61.5494
L39.2051 -61.7053
L39.5434 -61.8605
L39.8764 -62.0151
L40.2031 -62.1695
L40.5228 -62.3241
L40.8344 -62.4793
L41.137 -62.6355
L41.4298 -62.793
L41.7116 -62.9524
L41.9816 -63.1141
L42.2388 -63.2785
L42.4823 -63.446
L42.2457 -63.6169
L41.7595 -63.8072
L41.2715 -63.912
L40.7818 -64.0082
L40.2908 -64.096
L39.7984 -64.1752
L39.3049 -64.2457
L38.8103 -64.3077
L38.3149 -64.3611
L37.8188 -64.4058
L37.3222 -64.4419
L36.8251 -64.4693
L36.3278 -64.4881
L35.8304 -64.4981
L35.333 -64.4995
L34.8359 -64.4922
L34.3391 -64.4762
L33.8428 -64.4516
L33.3471 -64.4182
L32.8523 -64.3763
L32.3584 -64.3256
L31.8657 -64.2664
L31.3742 -64.1985
L30.8841 -64.1221
L30.3955 -64.0371
L29.9087 -63.9435
L29.4237 -63.8414
L28.9408 -63.7309
L28.4599 -63.6119
L27.9814 -63.4845
L27.5053 -63.3487
L27.0319 -63.2046
L26.5611 -63.0522
L26.0932 -62.8916
L25.6283 -62.7228
L25.1666 -62.5458
L24.7082 -62.3607
L24.2533 -62.1676
L23.8019 -61.9666
L23.3542 -61.7576
L22.9104 -61.5408
L22.4705 -61.3162
L22.0348 -61.0839
L21.6034 -60.844
L21.1763 -60.5965
L20.7537 -60.3415
L20.3358 -60.0791
L19.9227 -59.8093
L19.5144 -59.5323
L19.1112 -59.2481
L18.7131 -58.9569
L18.3203 -58.6586
L17.9329 -58.3535
L17.5509 -58.0415
L17.1746 -57.7228
L16.8041 -57.3976
L16.4393 -57.0658
L16.0806 -56.7275
L15.7279 -56.383
L15.3814 -56.0322
L15.0411 -55.6754
L14.7072 -55.3126
L14.3799 -54.9438
L14.0591 -54.5693
L13.745 -54.1892
L13.4377 -53.8035
L13.1372 -53.4124
L12.8437 -53.016
L12.5573 -52.6144
L12.278 -52.2077
L12.0059 -51.7961
L11.7412 -51.3797
L11.4838 -50.9586
L11.2339 -50.5329
L10.9915 -50.1029
L10.7568 -49.6685
L10.5298 -49.2299
L10.3105 -48.7874
L10.099 -48.3409
L9.89542 -47.8907
L9.6998 -47.4368
L9.51219 -46.9795
L9.33264 -46.5188
L9.16122 -46.055
L8.99797 -45.588
L8.84295 -45.1181
L8.6962 -44.6455
L8.55777 -44.1702
L8.4277 -43.6925
L8.30603 -43.2124
L8.19279 -42.7301
L8.08802 -42.2457
L7.99176 -41.7595
L7.90402 -41.2715
L7.82485 -40.7818
L7.75425 -40.2908
L7.69226 -39.7984
L7.6389 -39.3049
L7.59417 -38.8103
L7.5581 -38.3149
L7.53069 -37.8188
L7.51195 -37.3222
L7.50189 -36.8251
L7.5005 -36.3278
L7.50781 -35.8304
L7.52379 -35.333
L7.54844 -34.8359
L7.58176 -34.3391
L7.62374 -33.8428
L7.67436 -33.3471
L7.73361 -32.8523
L7.80147 -32.3584
L7.87792 -31.8657
L7.96293 -31.3742
L8.05649 -30.8841
L8.15855 -30.3955
L8.2691 -29.9087
L8.3881 -29.4237
L8.5155 -28.9408
L8.65128 -28.4599
L8.79539 -27.9814
L8.94778 -27.5053
L9.10842 -27.0319
L9.27725 -26.5611
L9.45422 -26.0932
L9.63927 -25.6283
L9.83235 -25.1666
L10.0334 -24.7082
L10.2424 -24.2533
L10.4592 -23.8019
L10.6838 -23.3542
L10.9161 -22.9104
L11.156 -22.4705
L11.4035 -22.0348
L11.6585 -21.6034
L11.9209 -21.1763
L12.1907 -20.7537
L12.4677 -20.3358
z
" id="C0_2_98d047d134"/>
    </defs>
    <g clip-path="url(#p1bffca34e9)">
     <use style="fill:#ff0000;stroke:#000000;stroke-width:2.0;" x="0.0" xlink:href="#C0_0_a811fe30f3" y="72.0"/>
    </g>
    <g clip-path="url(#p1bffca34e9)">
     <use style="fill:#ffffff;stroke:#000000;stroke-width:2.0;" x="0.0" xlink:href="#C0_1_a0c5ce53c7" y="72.0"/>
    </g>
    <g clip-path="url(#p1bffca34e9)">
     <use style="fill:#ffffff;stroke:#000000;stroke-width:2.0;" x="0.0" xlink:href="#C0_2_98d047d134" y="72.0"/>
    </g>
   </g>
  </g>
 </g>
 <defs>
  <clipPath id="p1bffca34e9">
   <rect height="72.0" width="72.0" x="0.0" y="0.0"/>
  </clipPath>
 </defs>
</svg>
