<?xml version="1.0" encoding="utf-8" standalone="no"?>
<!DOCTYPE svg PUBLIC "-//W3C//DTD SVG 1.1//EN"
  "http://www.w3.org/Graphics/SVG/1.1/DTD/svg11.dtd">
<!-- Created with matplotlib (http://matplotlib.org/) -->
<svg height="72pt" version="1.1" viewBox="0 0 72 72" width="72pt" xmlns="http://www.w3.org/2000/svg" xmlns:xlink="http://www.w3.org/1999/xlink">
 <defs>
  <style type="text/css">
*{stroke-linecap:butt;stroke-linejoin:round;}
  </style>
 </defs>
 <g id="figure_1">
  <g id="patch_1">
   <path d="
M0 72
L72 72
L72 0
L0 0
z
" style="fill:none;"/>
  </g>
  <g id="axes_1">
   <g id="PatchCollection_1">
    <defs>
     <path d="
M36 -7.5
C43.5583 -7.5 50.808 -10.5029 56.1525 -15.8475
C61.4971 -21.192 64.5 -28.4417 64.5 -36
C64.5 -43.5583 61.4971 -50.808 56.1525 -56.1525
C50.808 -61.4971 43.5583 -64.5 36 -64.5
C28.4417 -64.5 21.192 -61.4971 15.8475 -56.1525
C10.5029 -50.808 7.5 -43.5583 7.5 -36
C7.5 -28.4417 10.5029 -21.192 15.8475 -15.8475
C21.192 -10.5029 28.4417 -7.5 36 -7.5
z
" id="C0_0_a811fe30f3"/>
     <path d="
M17.0513 -57.1509
L17.1403 -56.9763
L17.2309 -56.8022
L17.323 -56.6288
L17.4168 -56.456
L17.512 -56.2836
L17.6088 -56.1117
L17.7071 -55.9403
L17.8068 -55.7692
L17.9079 -55.5984
L18.0105 -55.4279
L18.1145 -55.2577
L18.2199 -55.0878
L18.3267 -54.9179
L18.4348 -54.7483
L18.5444 -54.5787
L18.6553 -54.4091
L18.7677 -54.2396
L18.8814 -54.0701
L19.113 -53.9005
L19.2309 -53.7309
L19.3502 -53.5611
L19.471 -53.3911
L19.5932 -53.2209
L19.7169 -53.0505
L19.842 -52.8798
L19.9686 -52.7088
L20.0968 -52.5374
L20.2264 -52.3657
L20.3577 -52.1935
L20.4905 -52.0209
L20.6249 -51.8477
L20.7609 -51.6741
L20.8986 -51.4999
L21.0379 -51.3251
L21.179 -51.1497
L21.3219 -50.9736
L21.4664 -50.7968
L21.6129 -50.6194
L21.7611 -50.4411
L21.9112 -50.2621
L22.0633 -50.0823
L22.2173 -49.9016
L22.3733 -49.72
L22.5313 -49.5376
L22.6914 -49.3542
L22.8535 -49.1699
L23.0179 -48.9846
L23.1844 -48.7983
L23.3532 -48.611
L23.5242 -48.4226
L23.6976 -48.2332
L23.8733 -48.0427
L24.0515 -47.8512
L24.2321 -47.6585
L24.4152 -47.4648
L24.6008 -47.2699
L24.7891 -47.0739
L24.98 -46.8768
L25.1735 -46.6786
L25.3698 -46.4793
L25.5689 -46.2789
L25.7708 -46.0774
L25.9755 -45.8748
L26.1832 -45.6713
L26.3937 -45.4667
L26.6073 -45.2611
L26.8239 -45.0547
L27.0436 -44.8474
L27.2663 -44.6392
L27.4922 -44.4303
L27.7212 -44.2208
L27.9534 -44.0106
L28.1889 -43.8
L28.4275 -43.589
L28.6695 -43.3777
L28.9147 -43.1663
L29.1632 -42.9549
L29.415 -42.7437
L29.6701 -42.5327
L29.9285 -42.3223
L30.1902 -42.1126
L30.4552 -41.9039
L30.7235 -41.6963
L30.9951 -41.4902
L31.2699 -41.2857
L31.5479 -41.0833
L31.8291 -40.8832
L32.1135 -40.6858
L32.4009 -40.4914
L32.6914 -40.3005
L32.9849 -40.1133
L33.2813 -39.9305
L33.5806 -39.7523
L33.8826 -39.5793
L34.1873 -39.412
L34.4946 -39.2509
L34.8044 -39.0964
L35.1165 -38.9492
L35.4309 -38.8097
L35.7475 -38.6786
L36.066 -38.5562
L36.3865 -38.4431
L36.7086 -38.3399
L37.0322 -38.2469
L37.3573 -38.1646
L37.6835 -38.0934
L38.0108 -38.0336
L38.3388 -37.9855
L38.6675 -37.9492
L38.9967 -37.925
L39.326 -37.9128
L39.6553 -37.9127
L39.9844 -37.9246
L40.313 -37.9484
L40.641 -37.9838
L40.9681 -38.0306
L41.2941 -38.0884
L41.6187 -38.1569
L41.9419 -38.2357
L42.2633 -38.3243
L42.5828 -38.4222
L42.9001 -38.529
L43.2152 -38.6441
L43.5279 -38.7671
L43.8379 -38.8975
L44.1451 -39.0347
L44.4495 -39.1784
L44.7508 -39.3279
L45.049 -39.4829
L45.3439 -39.6429
L45.6354 -39.8076
L45.9235 -39.9764
L46.2081 -40.1491
L46.4891 -40.3253
L46.7664 -40.5045
L47.04 -40.6866
L47.3099 -40.8712
L47.576 -41.058
L47.8383 -41.2468
L48.0968 -41.4374
L48.3515 -41.6294
L48.6023 -41.8228
L48.8493 -42.0172
L49.0924 -42.2126
L49.3317 -42.4087
L49.5672 -42.6054
L49.7989 -42.8027
L50.0268 -43.0002
L50.251 -43.198
L50.4715 -43.3959
L50.6883 -43.5939
L50.9015 -43.7918
L51.111 -43.9896
L51.317 -44.1872
L51.5195 -44.3845
L51.7185 -44.5815
L51.9141 -44.7782
L52.1063 -44.9745
L52.2951 -45.1703
L52.4807 -45.3657
L52.663 -45.5606
L52.8421 -45.755
L53.0181 -45.9488
L53.1909 -46.1421
L53.3607 -46.3349
L53.5275 -46.5272
L53.6914 -46.7189
L53.8523 -46.9101
L54.0103 -47.1007
L54.1656 -47.2908
L54.318 -47.4804
L54.4677 -47.6694
L54.6147 -47.858
L54.7591 -48.0462
L54.9008 -48.2338
L55.04 -48.421
L55.1766 -48.6079
L55.3107 -48.7943
L55.4423 -48.9804
L55.5714 -49.1661
L55.6982 -49.3516
L55.8226 -49.5367
L55.9446 -49.7217
L56.0643 -49.9064
L56.1817 -50.0909
L56.2968 -50.2753
L56.4096 -50.4595
L56.5202 -50.6437
L56.6285 -50.8279
L56.7347 -51.012
L56.8386 -51.1962
L56.9403 -51.3805
L57.0398 -51.5648
L57.1372 -51.7494
L57.2324 -51.9341
L57.3254 -52.1191
L57.4162 -52.3043
L57.5048 -52.4899
L57.5912 -52.6759
L57.6754 -52.8622
L57.7574 -53.0491
L57.8372 -53.2364
L57.9147 -53.4244
L57.99 -53.6129
L58.063 -53.8021
L57.7692 -53.992
L57.4449 -54.3943
L57.114 -54.7714
L56.7767 -55.1428
L56.4331 -55.5084
L56.0832 -55.868
L55.7273 -56.2216
L55.3653 -56.569
L54.9974 -56.9102
L54.6237 -57.245
L54.2444 -57.5733
L53.8595 -57.895
L53.4691 -58.2101
L53.0735 -58.5184
L52.6726 -58.8199
L52.2667 -59.1144
L51.8558 -59.4018
L51.4401 -59.6821
L51.0196 -59.9553
L50.5946 -60.2211
L50.1652 -60.4795
L49.7314 -60.7305
L49.2935 -60.974
L48.8515 -61.2098
L48.4056 -61.438
L47.9559 -61.6584
L47.5025 -61.871
L47.0457 -62.0757
L46.5855 -62.2725
L46.1221 -62.4612
L45.6556 -62.642
L45.1861 -62.8145
L44.7139 -62.979
L44.239 -63.1352
L43.7616 -63.2831
L43.2818 -63.4228
L42.7998 -63.554
L42.3157 -63.6769
L41.8297 -63.7914
L41.342 -63.8974
L40.8526 -63.9949
L40.3617 -64.0838
L39.8695 -64.1643
L39.3761 -64.2361
L38.8817 -64.2993
L38.3864 -64.3539
L37.8904 -64.3999
L37.3939 -64.4372
L36.8968 -64.4659
L36.3996 -64.4859
L35.9022 -64.4972
L35.4048 -64.4998
L34.9076 -64.4938
L34.4107 -64.4791
L33.9143 -64.4557
L33.4186 -64.4236
L32.9236 -64.3829
L32.4296 -64.3335
L31.9367 -64.2755
L31.445 -64.2089
L30.9547 -64.1336
L30.4659 -64.0499
L29.9788 -63.9575
L29.4936 -63.8567
L29.0103 -63.7474
L28.5292 -63.6296
L28.0503 -63.5034
L27.5739 -63.3688
L27.1 -63.2259
L26.6288 -63.0747
L26.1605 -62.9153
L25.6952 -62.7476
L25.2331 -62.5718
L24.7742 -62.3879
L24.3187 -62.196
L23.8668 -61.9961
L23.4186 -61.7883
L22.9742 -61.5726
L22.5337 -61.3491
L22.0974 -61.1179
L21.6653 -60.8791
L21.2376 -60.6327
L20.8144 -60.3787
L20.3958 -60.1174
L19.982 -59.8487
L19.573 -59.5727
L19.1691 -59.2896
L18.7702 -58.9993
L18.3766 -58.7021
L17.9884 -58.3979
L17.6057 -58.087
z
" id="C0_1_3bf42aa792"/>
     <path d="
M14.0902 -18.0012
L14.2924 -18.0348
L14.4956 -18.0699
L14.6998 -18.1062
L14.9052 -18.1439
L15.1117 -18.183
L15.3194 -18.2234
L15.5284 -18.2652
L15.7386 -18.3083
L15.9503 -18.3529
L16.1633 -18.3988
L16.3777 -18.4461
L16.5936 -18.4948
L16.8111 -18.5449
L17.0302 -18.5965
L17.2509 -18.6494
L17.4732 -18.7038
L17.6973 -18.7597
L17.9232 -18.817
L18.1509 -18.8757
L18.3805 -18.936
L18.6121 -18.9977
L18.8456 -19.061
L19.0811 -19.1258
L19.3188 -19.1921
L19.5585 -19.2599
L19.8004 -19.3293
L20.0446 -19.4002
L20.291 -19.4727
L20.5397 -19.5467
L20.7908 -19.6223
L21.0443 -19.6995
L21.3003 -19.7783
L21.5588 -19.8587
L21.8197 -19.9406
L22.0833 -20.0241
L22.3495 -20.1092
L22.6183 -20.1958
L22.8898 -20.284
L23.1639 -20.3736
L23.4409 -20.4648
L23.7205 -20.5575
L24.003 -20.6515
L24.2882 -20.747
L24.5763 -20.8438
L24.8671 -20.9419
L25.1608 -21.0413
L25.4573 -21.1418
L25.7567 -21.2434
L26.0588 -21.346
L26.3637 -21.4495
L26.6714 -21.5538
L26.9819 -21.6587
L27.295 -21.7642
L27.6108 -21.87
L27.9293 -21.976
L28.2503 -22.0821
L28.5738 -22.188
L28.8998 -22.2935
L29.2281 -22.3983
L29.5587 -22.5022
L29.8915 -22.605
L30.2263 -22.7063
L30.5631 -22.8057
L30.9018 -22.9031
L31.2422 -22.9979
L31.5842 -23.0898
L31.9277 -23.1784
L32.2725 -23.2633
L32.6184 -23.344
L32.9653 -23.4201
L33.3131 -23.4911
L33.6615 -23.5565
L34.0104 -23.6159
L34.3597 -23.6688
L34.7091 -23.7147
L35.0584 -23.7532
L35.4076 -23.7839
L35.7563 -23.8065
L36.1045 -23.8205
L36.452 -23.8257
L36.7986 -23.8218
L37.1441 -23.8087
L37.4884 -23.7863
L37.8314 -23.7545
L38.1729 -23.7134
L38.5127 -23.663
L38.8508 -23.6036
L39.1871 -23.5352
L39.5213 -23.4583
L39.8535 -23.3731
L40.1834 -23.2799
L40.5111 -23.1793
L40.8364 -23.0716
L41.1592 -22.9573
L41.4795 -22.8368
L41.7972 -22.7107
L42.1121 -22.5794
L42.4244 -22.4433
L42.7338 -22.3029
L43.0403 -22.1588
L43.344 -22.0112
L43.6446 -21.8606
L43.9423 -21.7075
L44.2369 -21.5522
L44.5284 -21.3949
L44.8168 -21.2362
L45.102 -21.0763
L45.3841 -20.9154
L45.663 -20.7539
L45.9387 -20.592
L46.2113 -20.43
L46.4806 -20.2679
L46.7467 -20.1061
L47.0096 -19.9447
L47.2693 -19.7839
L47.5259 -19.6238
L47.7792 -19.4645
L48.0295 -19.3062
L48.2766 -19.1489
L48.5205 -18.9929
L48.7615 -18.838
L48.9993 -18.6845
L49.2342 -18.5323
L49.466 -18.3816
L49.6949 -18.2324
L49.9209 -18.0847
L50.144 -17.9385
L50.3643 -17.7939
L50.5818 -17.6509
L50.7966 -17.5096
L51.0087 -17.3699
L51.2181 -17.2318
L51.4248 -17.0954
L51.6291 -16.9606
L51.8308 -16.8274
L52.03 -16.6959
L52.2268 -16.566
L52.4213 -16.4378
L52.6134 -16.3111
L52.8032 -16.186
L52.9909 -16.0625
L53.1763 -15.9406
L53.3596 -15.8202
L53.5408 -15.7014
L53.72 -15.584
L53.8971 -15.4681
L54.0724 -15.3537
L54.2457 -15.2407
L54.4172 -15.1291
L54.5868 -15.0189
L54.7547 -14.9101
L54.6045 -14.8027
L54.2249 -14.4101
L53.8397 -14.0887
L53.4491 -13.774
L53.0532 -13.466
L52.652 -13.1649
L52.2458 -12.8708
L51.8347 -12.5837
L51.4187 -12.3037
L50.9981 -12.031
L50.5728 -11.7656
L50.1432 -11.5075
L49.7092 -11.2569
L49.271 -11.0138
L48.8288 -10.7784
L48.3827 -10.5506
L47.9328 -10.3306
L47.4793 -10.1184
L47.0223 -9.91408
L46.5619 -9.71771
L46.0984 -9.52935
L45.6317 -9.34905
L45.1621 -9.17687
L44.6897 -9.01286
L44.2147 -8.85707
L43.7371 -8.70954
L43.2573 -8.57033
L42.7752 -8.43948
L42.291 -8.31702
L41.8049 -8.203
L41.3171 -8.09744
L40.8276 -8.00038
L40.3366 -7.91185
L39.8444 -7.83187
L39.3509 -7.76048
L38.8565 -7.69768
L38.3612 -7.64351
L37.8651 -7.59798
L37.3685 -7.5611
L36.8715 -7.53288
L36.3742 -7.51333
L35.8768 -7.50246
L35.3794 -7.50027
L34.8822 -7.50676
L34.3854 -7.52193
L33.889 -7.54577
L33.3933 -7.57829
L32.8984 -7.61946
L32.4045 -7.66927
L31.9116 -7.72772
L31.42 -7.79477
L30.9297 -7.87042
L30.441 -7.95464
L29.954 -8.0474
L29.4689 -8.14867
L28.9857 -8.25843
L28.5047 -8.37664
L28.026 -8.50326
L27.5497 -8.63826
L27.0759 -8.78159
L26.6049 -8.93322
L26.1367 -9.09309
L25.6716 -9.26115
L25.2096 -9.43736
L24.7508 -9.62166
L24.2956 -9.814
L23.8438 -10.0143
L23.3958 -10.2225
L22.9516 -10.4386
L22.5114 -10.6625
L22.0753 -10.8941
L21.6434 -11.1333
L21.2159 -11.3801
L20.7929 -11.6344
L20.3746 -11.8961
L19.961 -12.1652
L19.5523 -12.4416
L19.1486 -12.7251
L18.75 -13.0157
L18.3567 -13.3133
L17.9688 -13.6178
L17.5863 -13.9291
L17.2095 -14.2471
L16.8384 -14.5718
L16.4731 -14.903
L16.1138 -15.2406
L15.7605 -15.5846
L15.4134 -15.9348
L15.0726 -16.2911
L14.7381 -16.6533
L14.4101 -17.0215
z
" id="C0_2_13328330ab"/>
    </defs>
    <g clip-path="url(#p1bffca34e9)">
     <use style="fill:#ff0000;stroke:#000000;stroke-width:2.0;" x="0.0" xlink:href="#C0_0_a811fe30f3" y="72.0"/>
    </g>
    <g clip-path="url(#p1bffca34e9)">
     <use style="fill:#ffffff;stroke:#000000;stroke-width:2.0;" x="0.0" xlink:href="#C0_1_3bf42aa792" y="72.0"/>
    </g>
    <g clip-path="url(#p1bffca34e9)">
     <use style="fill:#ffffff;stroke:#000000;stroke-width:2.0;" x="0.0" xlink:href="#C0_2_13328330ab" y="72.0"/>
    </g>
   </g>
  </g>
 </g>
 <defs>
  <clipPath id="p1bffca34e9">
   <rect height="72.0" width="72.0" x="0.0" y="0.0"/>
  </clipPath>
 </defs>
</svg>
