<?xml version="1.0" encoding="utf-8" standalone="no"?>
<!DOCTYPE svg PUBLIC "-//W3C//DTD SVG 1.1//EN"
  "http://www.w3.org/Graphics/SVG/1.1/DTD/svg11.dtd">
<!-- Created with matplotlib (http://matplotlib.org/) -->
<svg height="72pt" version="1.1" viewBox="0 0 72 72" width="72pt" xmlns="http://www.w3.org/2000/svg" xmlns:xlink="http://www.w3.org/1999/xlink">
 <defs>
  <style type="text/css">
*{stroke-linecap:butt;stroke-linejoin:round;}
  </style>
 </defs>
 <g id="figure_1">
  <g id="patch_1">
   <path d="
M0 72
L72 72
L72 0
L0 0
z
" style="fill:none;"/>
  </g>
  <g id="axes_1">
   <g id="PatchCollection_1">
    <defs>
     <path d="
M36 -7.5
C43.5583 -7.5 50.808 -10.5029 56.1525 -15.8475
C61.4971 -21.192 64.5 -28.4417 64.5 -36
C64.5 -43.5583 61.4971 -50.808 56.1525 -56.1525
C50.808 -61.4971 43.5583 -64.5 36 -64.5
C28.4417 -64.5 21.192 -61.4971 15.8475 -56.1525
C10.5029 -50.808 7.5 -43.5583 7.5 -36
C7.5 -28.4417 10.5029 -21.192 15.8475 -15.8475
C21.192 -10.5029 28.4417 -7.5 36 -7.5
z
" id="C0_0_a811fe30f3"/>
     <path d="
M63.1564 -27.6762
L62.9693 -27.6986
L62.7817 -27.7227
L62.5935 -27.7483
L62.4048 -27.7753
L62.2154 -27.8039
L62.0254 -27.834
L61.8347 -27.8655
L61.4511 -27.8984
L61.2582 -27.9327
L61.0645 -27.9684
L60.87 -28.0055
L60.6745 -28.044
L60.4782 -28.0838
L60.2809 -28.125
L60.0826 -28.1675
L59.8834 -28.2114
L59.683 -28.2567
L59.4816 -28.3033
L59.2791 -28.3512
L59.0754 -28.4005
L58.8706 -28.4511
L58.6644 -28.5032
L58.4571 -28.5565
L58.2484 -28.6113
L58.0384 -28.6675
L57.827 -28.725
L57.6142 -28.784
L57.3999 -28.8444
L57.1842 -28.9063
L56.9669 -28.9696
L56.7481 -29.0344
L56.5277 -29.1007
L56.3056 -29.1685
L56.0819 -29.2379
L55.8566 -29.3088
L55.6295 -29.3813
L55.4006 -29.4555
L55.17 -29.5312
L54.9375 -29.6087
L54.7033 -29.6879
L54.4671 -29.7688
L54.2291 -29.8514
L53.9892 -29.9359
L53.7474 -30.0222
L53.5037 -30.1104
L53.258 -30.2004
L53.0103 -30.2925
L52.7607 -30.3865
L52.5092 -30.4826
L52.2557 -30.5807
L52.0002 -30.6809
L51.7428 -30.7834
L51.4835 -30.888
L51.2223 -30.9949
L50.9592 -31.1041
L50.6943 -31.2157
L50.4276 -31.3297
L50.1592 -31.4461
L49.889 -31.5651
L49.6173 -31.6867
L49.344 -31.8109
L49.0692 -31.9379
L48.7931 -32.0676
L48.5158 -32.2002
L48.2373 -32.3357
L47.9577 -32.4741
L47.6773 -32.6157
L47.3962 -32.7603
L47.1146 -32.9082
L46.8326 -33.0593
L46.5504 -33.2138
L46.2682 -33.3718
L45.9864 -33.5333
L45.705 -33.6984
L45.4245 -33.8672
L45.1449 -34.0399
L44.8668 -34.2164
L44.5903 -34.397
L44.3158 -34.5816
L44.0436 -34.7705
L43.7741 -34.9636
L43.5076 -35.1612
L43.2445 -35.3632
L42.9853 -35.5699
L42.7302 -35.7812
L42.4797 -35.9974
L42.2342 -36.2184
L41.9941 -36.4444
L41.7598 -36.6754
L41.5316 -36.9114
L41.3099 -37.1527
L41.0951 -37.399
L40.8874 -37.6506
L40.6872 -37.9074
L40.4947 -38.1693
L40.3102 -38.4363
L40.1339 -38.7084
L39.9658 -38.9855
L39.8062 -39.2675
L39.6551 -39.5541
L39.5125 -39.8454
L39.3784 -40.141
L39.2527 -40.4408
L39.1354 -40.7445
L39.0264 -41.0519
L38.9255 -41.3628
L38.8325 -41.6768
L38.7472 -41.9938
L38.6694 -42.3133
L38.5988 -42.6351
L38.5352 -42.9588
L38.4784 -43.2843
L38.428 -43.6111
L38.3838 -43.9391
L38.3455 -44.2678
L38.3129 -44.597
L38.2856 -44.9265
L38.2635 -45.2559
L38.2462 -45.5851
L38.2335 -45.9137
L38.2252 -46.2416
L38.221 -46.5685
L38.2208 -46.8942
L38.2242 -47.2186
L38.2312 -47.5415
L38.2414 -47.8626
L38.2548 -48.1819
L38.2711 -48.4992
L38.2902 -48.8144
L38.3119 -49.1273
L38.3361 -49.438
L38.3626 -49.7461
L38.3914 -50.0518
L38.4222 -50.3549
L38.455 -50.6553
L38.4897 -50.9531
L38.5262 -51.248
L38.5643 -51.5402
L38.604 -51.8296
L38.6452 -52.1161
L38.6878 -52.3997
L38.7318 -52.6805
L38.7771 -52.9584
L38.8235 -53.2334
L38.8712 -53.5055
L38.92 -53.7747
L38.9698 -54.041
L39.0207 -54.3045
L39.0725 -54.5652
L39.1253 -54.823
L39.1789 -55.0781
L39.2335 -55.3304
L39.2889 -55.5799
L39.3451 -55.8268
L39.4021 -56.071
L39.4599 -56.3125
L39.5185 -56.5514
L39.5778 -56.7878
L39.6378 -57.0216
L39.6985 -57.2529
L39.76 -57.4818
L39.8221 -57.7083
L39.885 -57.9323
L39.9485 -58.1541
L40.0127 -58.3735
L40.0776 -58.5907
L40.1432 -58.8056
L40.2095 -59.0184
L40.2765 -59.229
L40.3442 -59.4375
L40.4126 -59.6439
L40.4817 -59.8484
L40.5516 -60.0508
L40.6221 -60.2512
L40.6935 -60.4498
L40.7656 -60.6464
L40.8385 -60.8412
L40.9122 -61.0342
L40.9867 -61.2254
L41.062 -61.4148
L41.1383 -61.6025
L41.2154 -61.7885
L41.2934 -61.9728
L41.3724 -62.1555
L41.4523 -62.3365
L41.5332 -62.516
L41.6152 -62.6938
L41.6982 -62.8701
L41.7823 -63.0449
L41.8675 -63.2182
L41.9539 -63.3899
L42.0416 -63.5602
L42.5523 -63.729
L43.0353 -63.7366
L43.5163 -63.618
L43.9949 -63.491
L44.4711 -63.3556
L44.9447 -63.2119
L45.4156 -63.06
L45.8837 -62.8997
L46.3487 -62.7313
L46.8106 -62.5547
L47.2691 -62.3701
L47.7243 -62.1774
L48.1758 -61.9767
L48.6237 -61.7682
L49.0677 -61.5517
L49.5078 -61.3275
L49.9437 -61.0956
L50.3754 -60.8561
L50.8027 -60.6089
L51.2254 -60.3543
L51.6436 -60.0922
L52.057 -59.8228
L52.4655 -59.5462
L52.8689 -59.2624
L53.2673 -58.9715
L53.6604 -58.6736
L54.0481 -58.3688
L54.4303 -58.0571
L54.8068 -57.7388
L55.1777 -57.4138
L55.5427 -57.0824
L55.9018 -56.7444
L56.2548 -56.4002
L56.6016 -56.0498
L56.9422 -55.6932
L57.2764 -55.3307
L57.6041 -54.9622
L57.9252 -54.588
L58.2396 -54.2082
L58.5473 -53.8227
L58.8481 -53.4319
L59.1419 -53.0357
L59.4287 -52.6344
L59.7083 -52.228
L59.9808 -51.8166
L60.2459 -51.4004
L60.5036 -50.9796
L60.7539 -50.5541
L60.9966 -50.1243
L61.2317 -49.6901
L61.4592 -49.2518
L61.6788 -48.8094
L61.8907 -48.3631
L62.0947 -47.9131
L62.2907 -47.4594
L62.4787 -47.0023
L62.6586 -46.5417
L62.8305 -46.078
L62.9941 -45.6112
L63.1496 -45.1415
L63.2967 -44.669
L63.4356 -44.1939
L63.5661 -43.7162
L63.6881 -43.2362
L63.8018 -42.754
L63.907 -42.2698
L64.0037 -41.7836
L64.0918 -41.2957
L64.1714 -40.8061
L64.2425 -40.3151
L64.3049 -39.8228
L64.3587 -39.3293
L64.4038 -38.8349
L64.4403 -38.3395
L64.4682 -37.8434
L64.4873 -37.3468
L64.4978 -36.8497
L64.4996 -36.3524
L64.4928 -35.855
L64.4772 -35.3577
L64.453 -34.8605
L64.4201 -34.3637
L64.3785 -33.8674
L64.3284 -33.3717
L64.2695 -32.8768
L64.2021 -32.3829
L64.1261 -31.8901
L64.0415 -31.3985
L63.9484 -30.9083
L63.8467 -30.4197
L63.7366 -29.9328
L63.618 -29.4477
L63.491 -28.9647
z
" id="C0_1_42c49a69e9"/>
     <path d="
M29.8962 -8.2249
L29.8852 -8.41512
L29.8742 -8.60677
L29.8633 -8.79989
L29.8524 -8.99451
L29.8415 -9.19068
L29.8307 -9.38841
L29.82 -9.58777
L29.8092 -9.78877
L29.7985 -9.99146
L29.7879 -10.1959
L29.7772 -10.4021
L29.7666 -10.6101
L29.756 -10.8199
L29.7454 -11.0317
L29.7348 -11.2454
L29.7242 -11.461
L29.7136 -11.6787
L29.703 -11.8984
L29.6924 -12.1203
L29.6818 -12.3443
L29.6711 -12.5704
L29.6604 -12.7988
L29.6496 -13.0295
L29.6388 -13.2625
L29.6278 -13.4979
L29.6168 -13.7357
L29.6057 -13.9759
L29.5945 -14.2185
L29.5831 -14.4637
L29.5715 -14.7115
L29.5598 -14.9619
L29.5479 -15.2148
L29.5358 -15.4705
L29.5234 -15.7288
L29.5107 -15.9898
L29.4977 -16.2536
L29.4844 -16.5202
L29.4708 -16.7895
L29.4567 -17.0617
L29.4422 -17.3366
L29.4272 -17.6144
L29.4116 -17.895
L29.3955 -18.1785
L29.3787 -18.4648
L29.3613 -18.7539
L29.343 -19.0458
L29.324 -19.3405
L29.304 -19.6379
L29.2831 -19.938
L29.2611 -20.2408
L29.2379 -20.5462
L29.2135 -20.8542
L29.1877 -21.1647
L29.1605 -21.4776
L29.1317 -21.7928
L29.1011 -22.1102
L29.0687 -22.4297
L29.0343 -22.7512
L28.9978 -23.0745
L28.9589 -23.3996
L28.9175 -23.7262
L28.8734 -24.0542
L28.8264 -24.3833
L28.7764 -24.7135
L28.723 -25.0445
L28.6661 -25.376
L28.6055 -25.7079
L28.5408 -26.0398
L28.4719 -26.3717
L28.3985 -26.7031
L28.3203 -27.0338
L28.2371 -27.3635
L28.1487 -27.692
L28.0547 -28.0189
L27.9549 -28.3441
L27.8491 -28.6671
L27.737 -28.9877
L27.6185 -29.3057
L27.4934 -29.6208
L27.3615 -29.9326
L27.2227 -30.2411
L27.0768 -30.5459
L26.9239 -30.8469
L26.7638 -31.1438
L26.5966 -31.4365
L26.4224 -31.7249
L26.2412 -32.0088
L26.0531 -32.2882
L25.8584 -32.5629
L25.6572 -32.8331
L25.4498 -33.0985
L25.2364 -33.3592
L25.0173 -33.6152
L24.7928 -33.8667
L24.5634 -34.1135
L24.3292 -34.3557
L24.0906 -34.5935
L23.8481 -34.8269
L23.602 -35.0559
L23.3527 -35.2808
L23.1005 -35.5015
L22.8457 -35.7181
L22.5888 -35.9308
L22.3301 -36.1397
L22.0698 -36.3448
L21.8083 -36.5463
L21.5459 -36.7442
L21.2829 -36.9386
L21.0196 -37.1297
L20.7561 -37.3175
L20.4928 -37.502
L20.2298 -37.6834
L19.9674 -37.8618
L19.7057 -38.0373
L19.445 -38.2098
L19.1853 -38.3795
L18.9269 -38.5464
L18.6698 -38.7107
L18.4143 -38.8723
L18.1603 -39.0314
L17.9081 -39.188
L17.6576 -39.3421
L17.409 -39.4939
L17.1623 -39.6433
L16.9177 -39.7905
L16.6751 -39.9354
L16.4345 -40.0782
L16.1961 -40.2188
L15.9599 -40.3574
L15.7258 -40.494
L15.494 -40.6285
L15.2643 -40.7612
L15.0369 -40.8919
L14.8117 -41.0209
L14.5887 -41.148
L14.368 -41.2733
L14.1494 -41.3969
L13.933 -41.5189
L13.7188 -41.6392
L13.5068 -41.7579
L13.2969 -41.875
L13.0891 -41.9905
L12.8834 -42.1046
L12.6798 -42.2172
L12.4783 -42.3284
L12.2787 -42.4382
L12.0811 -42.5466
L11.8855 -42.6536
L11.6918 -42.7593
L11.4999 -42.8638
L11.31 -42.967
L11.1218 -43.069
L10.9354 -43.1697
L10.7508 -43.2693
L10.5679 -43.3677
L10.3867 -43.465
L10.2071 -43.5612
L10.0292 -43.6563
L9.85277 -43.7504
L9.67792 -43.8433
L9.50459 -43.9353
L9.33273 -44.0263
L9.16231 -44.1162
L8.99329 -44.2052
L8.60013 -44.2932
L8.46744 -43.842
L8.34314 -43.3626
L8.22726 -42.881
L8.11984 -42.3973
L8.02092 -41.9116
L7.93052 -41.4241
L7.84866 -40.935
L7.77539 -40.4444
L7.71071 -39.9524
L7.65464 -39.4592
L7.60722 -38.9649
L7.56844 -38.4698
L7.53832 -37.9739
L7.51687 -37.4774
L7.5041 -36.9804
L7.5 -36.4832
L7.50459 -35.9858
L7.51786 -35.4884
L7.53981 -34.9912
L7.57042 -34.4942
L7.60969 -33.9978
L7.65761 -33.5019
L7.71417 -33.0068
L7.77934 -32.5126
L7.85311 -32.0195
L7.93545 -31.5276
L8.02634 -31.037
L8.12575 -30.548
L8.23365 -30.0606
L8.35001 -29.5751
L8.47479 -29.0914
L8.60796 -28.6099
L8.74947 -28.1307
L8.89928 -27.6538
L9.05735 -27.1795
L9.22362 -26.7079
L9.39805 -26.2391
L9.58058 -25.7733
L9.77116 -25.3105
L9.96973 -24.8511
L10.1762 -24.395
L10.3906 -23.9425
L10.6128 -23.4937
L10.8427 -23.0486
L11.0802 -22.6075
L11.3254 -22.1705
L11.5781 -21.7377
L11.8382 -21.3092
L12.1056 -20.8853
L12.3804 -20.4659
L12.6623 -20.0512
L12.9514 -19.6414
L13.2474 -19.2366
L13.5504 -18.8369
L13.8603 -18.4425
L14.1769 -18.0533
L14.5001 -17.6697
L14.8299 -17.2916
L15.1661 -16.9192
L15.5087 -16.5527
L15.8575 -16.192
L16.2125 -15.8374
L16.5734 -15.489
L16.9403 -15.1467
L17.313 -14.8109
L17.6914 -14.4815
L18.0754 -14.1586
L18.4648 -13.8424
L18.8596 -13.533
L19.2596 -13.2303
L19.6647 -12.9347
L20.0748 -12.646
L20.4897 -12.3645
L20.9093 -12.0902
L21.3336 -11.8231
L21.7623 -11.5634
L22.1953 -11.3112
L22.6326 -11.0665
L23.0739 -10.8293
L23.5192 -10.5999
L23.9683 -10.3781
L24.421 -10.1642
L24.8772 -9.95818
L25.3369 -9.76007
L25.7998 -9.56994
L26.2658 -9.38787
L26.7347 -9.21391
L27.2065 -9.0481
L27.681 -8.8905
L28.158 -8.74117
L28.6374 -8.60013
L29.119 -8.46744
z
" id="C0_2_9edcad0259"/>
    </defs>
    <g clip-path="url(#p1bffca34e9)">
     <use style="fill:#ffffff;stroke:#000000;stroke-width:2.0;" x="0.0" xlink:href="#C0_0_a811fe30f3" y="72.0"/>
    </g>
    <g clip-path="url(#p1bffca34e9)">
     <use style="fill:#ff0000;stroke:#000000;stroke-width:2.0;" x="0.0" xlink:href="#C0_1_42c49a69e9" y="72.0"/>
    </g>
    <g clip-path="url(#p1bffca34e9)">
     <use style="fill:#ff0000;stroke:#000000;stroke-width:2.0;" x="0.0" xlink:href="#C0_2_9edcad0259" y="72.0"/>
    </g>
   </g>
  </g>
 </g>
 <defs>
  <clipPath id="p1bffca34e9">
   <rect height="72.0" width="72.0" x="0.0" y="0.0"/>
  </clipPath>
 </defs>
</svg>
