<?xml version="1.0" encoding="utf-8" standalone="no"?>
<!DOCTYPE svg PUBLIC "-//W3C//DTD SVG 1.1//EN"
  "http://www.w3.org/Graphics/SVG/1.1/DTD/svg11.dtd">
<!-- Created with matplotlib (http://matplotlib.org/) -->
<svg height="72pt" version="1.1" viewBox="0 0 72 72" width="72pt" xmlns="http://www.w3.org/2000/svg" xmlns:xlink="http://www.w3.org/1999/xlink">
 <defs>
  <style type="text/css">
*{stroke-linecap:butt;stroke-linejoin:round;}
  </style>
 </defs>
 <g id="figure_1">
  <g id="patch_1">
   <path d="
M0 72
L72 72
L72 0
L0 0
z
" style="fill:none;"/>
  </g>
  <g id="axes_1">
   <g id="PatchCollection_1">
    <defs>
     <path d="
M36 -7.5
C43.5583 -7.5 50.808 -10.5029 56.1525 -15.8475
C61.4971 -21.192 64.5 -28.4417 64.5 -36
C64.5 -43.5583 61.4971 -50.808 56.1525 -56.1525
C50.808 -61.4971 43.5583 -64.5 36 -64.5
C28.4417 -64.5 21.192 -61.4971 15.8475 -56.1525
C10.5029 -50.808 7.5 -43.5583 7.5 -36
C7.5 -28.4417 10.5029 -21.192 15.8475 -15.8475
C21.192 -10.5029 28.4417 -7.5 36 -7.5
z
" id="C0_0_a811fe30f3"/>
     <path d="
M64.0761 -40.2047
L63.8877 -40.1835
L63.699 -40.1617
L63.5101 -40.1393
L63.3209 -40.1164
L63.1313 -40.0929
L62.9414 -40.0689
L62.7511 -40.0444
L62.5604 -40.0194
L62.3692 -39.9939
L62.1776 -39.9679
L61.9854 -39.9414
L61.7927 -39.9145
L61.5994 -39.8871
L61.4055 -39.8593
L61.2109 -39.831
L61.0156 -39.8022
L60.8195 -39.773
L60.6227 -39.7433
L60.2265 -39.7132
L60.0271 -39.6826
L59.8267 -39.6516
L59.6253 -39.6201
L59.4228 -39.5881
L59.2193 -39.5557
L59.0146 -39.5228
L58.8088 -39.4895
L58.6017 -39.4556
L58.3933 -39.4213
L58.1835 -39.3865
L57.9724 -39.3511
L57.7598 -39.3153
L57.5458 -39.2789
L57.3301 -39.242
L57.1129 -39.2046
L56.894 -39.1666
L56.6734 -39.128
L56.451 -39.0889
L56.2268 -39.0492
L56.0007 -39.0089
L55.7726 -38.9679
L55.5425 -38.9264
L55.3104 -38.8842
L55.0761 -38.8413
L54.8397 -38.7977
L54.6009 -38.7535
L54.3599 -38.7085
L54.1165 -38.6628
L53.8706 -38.6164
L53.6223 -38.5692
L53.3714 -38.5211
L53.1178 -38.4723
L52.8616 -38.4226
L52.6027 -38.3721
L52.341 -38.3207
L52.0764 -38.2683
L51.8088 -38.215
L51.5384 -38.1608
L51.2649 -38.1055
L50.9883 -38.0493
L50.7086 -37.9919
L50.4258 -37.9335
L50.1398 -37.8739
L49.8505 -37.8132
L49.5579 -37.7513
L49.2621 -37.6881
L48.9629 -37.6237
L48.6603 -37.558
L48.3544 -37.4909
L48.0452 -37.4223
L47.7326 -37.3524
L47.4166 -37.2809
L47.0974 -37.2078
L46.7748 -37.1331
L46.449 -37.0568
L46.12 -36.9787
L45.7879 -36.8987
L45.4528 -36.8169
L45.1147 -36.7331
L44.7739 -36.6473
L44.4303 -36.5593
L44.0843 -36.4691
L43.736 -36.3765
L43.3855 -36.2814
L43.0332 -36.1838
L42.6793 -36.0834
L42.3241 -35.9802
L41.9679 -35.8739
L41.6112 -35.7643
L41.2542 -35.6514
L40.8976 -35.5348
L40.5417 -35.4143
L40.1872 -35.2897
L39.8346 -35.1607
L39.4847 -35.0269
L39.138 -34.888
L38.7954 -34.7437
L38.4577 -34.5935
L38.1258 -34.437
L37.8006 -34.2738
L37.4831 -34.1033
L37.1742 -33.9251
L36.8749 -33.7387
L36.5863 -33.5435
L36.3092 -33.3391
L36.0447 -33.1249
L35.7936 -32.9007
L35.5565 -32.666
L35.334 -32.4207
L35.1267 -32.1645
L34.9347 -31.8974
L34.7583 -31.6196
L34.5972 -31.3313
L34.4513 -31.0329
L34.3202 -30.7248
L34.2034 -30.4077
L34.1003 -30.0823
L34.0103 -29.7492
L33.9327 -29.4092
L33.8667 -29.0633
L33.8116 -28.712
L33.7668 -28.3564
L33.7313 -27.9971
L33.7047 -27.6349
L33.6863 -27.2704
L33.6755 -26.9044
L33.6716 -26.5374
L33.6742 -26.1701
L33.6829 -25.803
L33.697 -25.4364
L33.7163 -25.071
L33.7404 -24.707
L33.7688 -24.3449
L33.8014 -23.9849
L33.8377 -23.6274
L33.8775 -23.2726
L33.9206 -22.9207
L33.9667 -22.572
L34.0157 -22.2266
L34.0672 -21.8846
L34.1212 -21.5463
L34.1774 -21.2116
L34.2358 -20.8808
L34.2962 -20.5538
L34.3584 -20.2308
L34.4223 -19.9118
L34.4878 -19.5967
L34.5549 -19.2858
L34.6234 -18.9788
L34.6932 -18.676
L34.7643 -18.3771
L34.8366 -18.0823
L34.91 -17.7916
L34.9845 -17.5048
L35.0599 -17.2219
L35.1364 -16.943
L35.2137 -16.6679
L35.2919 -16.3967
L35.371 -16.1292
L35.4508 -15.8654
L35.5314 -15.6053
L35.6128 -15.3489
L35.6948 -15.0959
L35.7776 -14.8465
L35.861 -14.6004
L35.9452 -14.3577
L36.0299 -14.1183
L36.1153 -13.8822
L36.2014 -13.6492
L36.2881 -13.4193
L36.3754 -13.1924
L36.4634 -12.9685
L36.5519 -12.7475
L36.6411 -12.5294
L36.731 -12.314
L36.8215 -12.1014
L36.9126 -11.8914
L37.0044 -11.684
L37.0969 -11.4792
L37.1901 -11.2768
L37.284 -11.0769
L37.3785 -10.8793
L37.4739 -10.684
L37.57 -10.491
L37.6668 -10.3003
L37.7645 -10.1116
L37.863 -9.92513
L37.9623 -9.74068
L38.0625 -9.55825
L38.1636 -9.3778
L38.2657 -9.19928
L38.3687 -9.02264
L38.4727 -8.84786
L38.5778 -8.67489
L38.6839 -8.5037
L38.7912 -8.33426
L38.8996 -8.16652
L39.0092 -8.00046
L39.12 -7.83605
L39.6141 -7.67326
L40.107 -7.73009
L40.5985 -7.79747
L41.0887 -7.87344
L41.5773 -7.95798
L42.0643 -8.05106
L42.5493 -8.15265
L43.0324 -8.26273
L43.5134 -8.38126
L43.992 -8.5082
L44.4682 -8.64351
L44.9419 -8.78716
L45.4128 -8.93909
L45.8808 -9.09927
L46.3459 -9.26764
L46.8078 -9.44416
L47.2664 -9.62876
L47.7215 -9.8214
L48.1731 -10.022
L48.621 -10.2305
L49.065 -10.4469
L49.5051 -10.6711
L49.9411 -10.9029
L50.3728 -11.1425
L50.8001 -11.3896
L51.2229 -11.6441
L51.6411 -11.9062
L52.0545 -12.1755
L52.463 -12.4521
L52.8665 -12.7359
L53.2649 -13.0267
L53.658 -13.3246
L54.0457 -13.6294
L54.428 -13.9409
L54.8046 -14.2592
L55.1755 -14.5842
L55.5405 -14.9156
L55.8996 -15.2535
L56.2527 -15.5977
L56.5995 -15.9481
L56.9401 -16.3046
L57.2743 -16.6671
L57.6021 -17.0355
L57.9232 -17.4097
L58.2377 -17.7895
L58.5454 -18.1749
L58.8463 -18.5657
L59.1401 -18.9619
L59.427 -19.3632
L59.7067 -19.7696
L59.9791 -20.1809
L60.2443 -20.597
L60.5021 -21.0179
L60.7524 -21.4433
L60.9952 -21.8731
L61.2303 -22.3073
L61.4578 -22.7456
L61.6775 -23.1879
L61.8894 -23.6342
L62.0935 -24.0842
L62.2895 -24.5378
L62.4776 -24.995
L62.6576 -25.4555
L62.8295 -25.9192
L62.9932 -26.3859
L63.1486 -26.8556
L63.2959 -27.3281
L63.4347 -27.8033
L63.5653 -28.2809
L63.6874 -28.7609
L63.8011 -29.243
L63.9064 -29.7273
L64.0031 -30.2134
L64.0913 -30.7014
L64.171 -31.1909
L64.242 -31.6819
L64.3045 -32.1742
L64.3584 -32.6677
L64.4036 -33.1621
L64.4401 -33.6575
L64.468 -34.1536
L64.4872 -34.6502
L64.4978 -35.1472
L64.4996 -35.6445
L64.4928 -36.142
L64.4773 -36.6393
L64.4532 -37.1365
L64.4203 -37.6333
L64.3788 -38.1296
L64.3287 -38.6253
L64.2699 -39.1202
z
" id="C0_1_45b905f9b6"/>
     <path d="
M32.8065 -64.1477
L32.7343 -63.9636
L32.663 -63.7782
L32.5926 -63.5915
L32.523 -63.4035
L32.4542 -63.2142
L32.3861 -63.0234
L32.3189 -62.8312
L32.2523 -62.6375
L32.1865 -62.4423
L32.1213 -62.2455
L32.0568 -62.047
L31.993 -61.8468
L31.9298 -61.6449
L31.8672 -61.4412
L31.8052 -61.2357
L31.7437 -61.0282
L31.6829 -60.8189
L31.6225 -60.6074
L31.5627 -60.394
L31.5035 -60.1784
L31.4447 -59.9606
L31.3864 -59.7405
L31.3286 -59.5182
L31.2713 -59.2935
L31.2144 -59.0663
L31.158 -58.8367
L31.102 -58.6045
L31.0464 -58.3696
L30.9912 -58.1321
L30.9365 -57.8918
L30.8821 -57.6487
L30.8282 -57.4027
L30.7746 -57.1537
L30.7214 -56.9017
L30.6686 -56.6467
L30.6161 -56.3884
L30.564 -56.127
L30.5122 -55.8623
L30.4608 -55.5942
L30.4096 -55.3228
L30.3588 -55.0479
L30.3084 -54.7694
L30.2582 -54.4874
L30.2083 -54.2018
L30.1586 -53.9125
L30.1093 -53.6195
L30.0602 -53.3227
L30.0113 -53.0221
L29.9626 -52.7178
L29.9142 -52.4096
L29.8658 -52.0975
L29.8177 -51.7815
L29.7696 -51.4617
L29.7216 -51.138
L29.6737 -50.8105
L29.6257 -50.4792
L29.5777 -50.144
L29.5295 -49.8052
L29.4811 -49.4627
L29.4325 -49.1166
L29.3835 -48.7671
L29.334 -48.4142
L29.284 -48.0581
L29.2332 -47.699
L29.1816 -47.337
L29.1289 -46.9723
L29.0751 -46.6052
L29.0198 -46.236
L28.9629 -45.8649
L28.904 -45.4923
L28.8429 -45.1185
L28.7792 -44.744
L28.7126 -44.3692
L28.6426 -43.9946
L28.5688 -43.6207
L28.4907 -43.2481
L28.4077 -42.8775
L28.3193 -42.5094
L28.2248 -42.1446
L28.1235 -41.7839
L28.0147 -41.428
L27.8977 -41.0777
L27.7718 -40.7339
L27.6361 -40.3972
L27.4901 -40.0686
L27.333 -39.7487
L27.1644 -39.4381
L26.9837 -39.1376
L26.7906 -38.8475
L26.585 -38.5683
L26.3668 -38.3001
L26.1362 -38.0431
L25.8935 -37.7972
L25.6392 -37.5623
L25.3738 -37.338
L25.0982 -37.1242
L24.813 -36.9203
L24.5192 -36.7258
L24.2177 -36.5404
L23.9092 -36.3634
L23.5949 -36.1943
L23.2754 -36.0326
L22.9518 -35.8779
L22.6246 -35.7296
L22.2948 -35.5874
L21.9631 -35.4508
L21.63 -35.3194
L21.2961 -35.1929
L20.9621 -35.071
L20.6284 -34.9534
L20.2955 -34.8398
L19.9638 -34.7299
L19.6336 -34.6236
L19.3052 -34.5206
L18.979 -34.4208
L18.6553 -34.324
L18.3342 -34.23
L18.0159 -34.1387
L17.7007 -34.05
L17.3886 -33.9637
L17.0798 -33.8797
L16.7745 -33.798
L16.4726 -33.7184
L16.1743 -33.6408
L15.8796 -33.5652
L15.5885 -33.4915
L15.3012 -33.4196
L15.0176 -33.3495
L14.7377 -33.281
L14.4615 -33.2142
L14.189 -33.149
L13.9202 -33.0852
L13.6551 -33.0229
L13.3937 -32.9621
L13.1358 -32.9026
L12.8815 -32.8444
L12.6307 -32.7876
L12.3835 -32.7319
L12.1396 -32.6775
L11.8991 -32.6243
L11.6619 -32.5722
L11.428 -32.5212
L11.1973 -32.4713
L10.9698 -32.4224
L10.7453 -32.3746
L10.5238 -32.3277
L10.3053 -32.2818
L10.0897 -32.2368
L9.87692 -32.1928
L9.6669 -32.1496
L9.45958 -32.1073
L9.2549 -32.0659
L9.0528 -32.0252
L8.85322 -31.9854
L8.65609 -31.9464
L8.46136 -31.9081
L8.26895 -31.8706
L8.07882 -31.8339
L7.74398 -31.7978
L7.68334 -32.2788
L7.63133 -32.7725
L7.58795 -33.2672
L7.55323 -33.7627
L7.52718 -34.2589
L7.5098 -34.7556
L7.5011 -35.2527
L7.50107 -35.7501
L7.50973 -36.2475
L7.52707 -36.7448
L7.55308 -37.2419
L7.58776 -37.7386
L7.63109 -38.2348
L7.68306 -38.7304
L7.74366 -39.2251
L7.81286 -39.7188
L7.89066 -40.2113
L7.97701 -40.7026
L8.0719 -41.1925
L8.17529 -41.6808
L8.28717 -42.1673
L8.40748 -42.652
L8.5362 -43.1346
L8.67328 -43.6151
L8.81869 -44.0932
L8.97238 -44.5689
L9.1343 -45.042
L9.30441 -45.5123
L9.48264 -45.9797
L9.66896 -46.4441
L9.86329 -46.9053
L10.0656 -47.3632
L10.2758 -47.8176
L10.4938 -48.2684
L10.7196 -48.7155
L10.9531 -49.1587
L11.1943 -49.5979
L11.4429 -50.033
L11.6991 -50.4638
L11.9627 -50.8901
L12.2336 -51.312
L12.5117 -51.7292
L12.797 -52.1416
L13.0893 -52.549
L13.3887 -52.9514
L13.6949 -53.3487
L14.0079 -53.7407
L14.3276 -54.1273
L14.6539 -54.5083
L14.9868 -54.8837
L15.326 -55.2534
L15.6715 -55.6172
L16.0232 -55.975
L16.381 -56.3268
L16.7448 -56.6723
L17.1144 -57.0116
L17.4898 -57.3444
L17.8708 -57.6708
L18.2574 -57.9905
L18.6493 -58.3036
L19.0466 -58.6098
L19.449 -58.9092
L19.8564 -59.2016
L20.2688 -59.4869
L20.6859 -59.7651
L21.1077 -60.036
L21.5341 -60.2996
L21.9648 -60.5558
L22.3999 -60.8045
L22.8391 -61.0457
L23.2822 -61.2792
L23.7293 -61.5051
L24.1801 -61.7231
L24.6345 -61.9334
L25.0924 -62.1357
L25.5536 -62.3301
L26.0179 -62.5164
L26.4853 -62.6947
L26.9556 -62.8649
L27.4287 -63.0268
L27.9044 -63.1806
L28.3825 -63.326
L28.863 -63.4631
L29.3456 -63.5919
L29.8303 -63.7123
L30.3168 -63.8242
L30.8051 -63.9276
L31.2949 -64.0225
L31.7862 -64.1089
L32.2788 -64.1868
z
" id="C0_2_e2c7998709"/>
    </defs>
    <g clip-path="url(#p1bffca34e9)">
     <use style="fill:#ffffff;stroke:#000000;stroke-width:2.0;" x="0.0" xlink:href="#C0_0_a811fe30f3" y="72.0"/>
    </g>
    <g clip-path="url(#p1bffca34e9)">
     <use style="fill:#ff0000;stroke:#000000;stroke-width:2.0;" x="0.0" xlink:href="#C0_1_45b905f9b6" y="72.0"/>
    </g>
    <g clip-path="url(#p1bffca34e9)">
     <use style="fill:#ff0000;stroke:#000000;stroke-width:2.0;" x="0.0" xlink:href="#C0_2_e2c7998709" y="72.0"/>
    </g>
   </g>
  </g>
 </g>
 <defs>
  <clipPath id="p1bffca34e9">
   <rect height="72.0" width="72.0" x="0.0" y="0.0"/>
  </clipPath>
 </defs>
</svg>
