<?xml version="1.0" encoding="utf-8" standalone="no"?>
<!DOCTYPE svg PUBLIC "-//W3C//DTD SVG 1.1//EN"
  "http://www.w3.org/Graphics/SVG/1.1/DTD/svg11.dtd">
<!-- Created with matplotlib (http://matplotlib.org/) -->
<svg height="72pt" version="1.1" viewBox="0 0 72 72" width="72pt" xmlns="http://www.w3.org/2000/svg" xmlns:xlink="http://www.w3.org/1999/xlink">
 <defs>
  <style type="text/css">
*{stroke-linecap:butt;stroke-linejoin:round;}
  </style>
 </defs>
 <g id="figure_1">
  <g id="patch_1">
   <path d="
M0 72
L72 72
L72 0
L0 0
z
" style="fill:none;"/>
  </g>
  <g id="axes_1">
   <g id="PatchCollection_1">
    <defs>
     <path d="
M36 -7.5
C43.5583 -7.5 50.808 -10.5029 56.1525 -15.8475
C61.4971 -21.192 64.5 -28.4417 64.5 -36
C64.5 -43.5583 61.4971 -50.808 56.1525 -56.1525
C50.808 -61.4971 43.5583 -64.5 36 -64.5
C28.4417 -64.5 21.192 -61.4971 15.8475 -56.1525
C10.5029 -50.808 7.5 -43.5583 7.5 -36
C7.5 -28.4417 10.5029 -21.192 15.8475 -15.8475
C21.192 -10.5029 28.4417 -7.5 36 -7.5
z
" id="C0_0_a811fe30f3"/>
     <path d="
M11.8943 -21.2131
L12.0143 -21.4666
L12.1637 -21.6907
L12.3409 -21.8868
L12.5436 -22.0568
L12.7697 -22.2032
L13.0167 -22.3288
L13.2823 -22.4361
L13.5641 -22.528
L13.8601 -22.6068
L14.1682 -22.6749
L14.4868 -22.7342
L14.8143 -22.7864
L15.1492 -22.8332
L15.4903 -22.8757
L15.8366 -22.9151
L16.1871 -22.9523
L16.541 -22.9879
L16.8974 -23.0227
L17.2558 -23.0571
L17.6155 -23.0916
L17.9761 -23.1265
L18.3369 -23.1622
L18.6977 -23.1987
L19.0581 -23.2363
L19.4177 -23.2751
L19.7763 -23.3152
L20.1335 -23.3568
L20.4892 -23.3997
L20.8431 -23.4441
L21.1951 -23.49
L21.5449 -23.5374
L21.8926 -23.5862
L22.2378 -23.6365
L22.5807 -23.6882
L22.9209 -23.7413
L23.2586 -23.7957
L23.5935 -23.8515
L23.9257 -23.9085
L24.2552 -23.9668
L24.5818 -24.0262
L24.9057 -24.0868
L25.2267 -24.1485
L25.5449 -24.2113
L25.8603 -24.2751
L26.1729 -24.3399
L26.4826 -24.4057
L26.7896 -24.4723
L27.0939 -24.5398
L27.3955 -24.6082
L27.6944 -24.6774
L27.9906 -24.7474
L28.2843 -24.8181
L28.5754 -24.8896
L28.8641 -24.9618
L29.1502 -25.0346
L29.434 -25.1081
L29.7155 -25.1823
L29.9947 -25.2571
L30.2716 -25.3325
L30.5464 -25.4085
L30.8191 -25.485
L31.0897 -25.5622
L31.3584 -25.6399
L31.6251 -25.7182
L31.8899 -25.7971
L32.153 -25.8765
L32.4143 -25.9564
L32.6739 -26.0369
L32.932 -26.1179
L33.1884 -26.1995
L33.4434 -26.2817
L33.697 -26.3643
L33.9492 -26.4476
L34.2001 -26.5314
L34.4497 -26.6158
L34.6982 -26.7007
L34.9456 -26.7862
L35.1919 -26.8724
L35.4372 -26.9591
L35.6816 -27.0465
L35.9251 -27.1344
L36.1678 -27.2231
L36.4097 -27.3124
L36.651 -27.4023
L36.8916 -27.493
L37.1316 -27.5844
L37.3712 -27.6765
L37.6103 -27.7693
L38.0873 -27.8629
L38.3253 -27.9573
L38.5631 -28.0526
L38.8008 -28.1486
L39.0383 -28.2455
L39.2758 -28.3433
L39.5133 -28.442
L39.7508 -28.5416
L39.9885 -28.6422
L40.2263 -28.7438
L40.4643 -28.8464
L40.7026 -28.9501
L40.9412 -29.0548
L41.1802 -29.1607
L41.4196 -29.2677
L41.6596 -29.3758
L41.9 -29.4852
L42.1411 -29.5959
L42.3827 -29.7078
L42.6251 -29.821
L42.8682 -29.9356
L43.1122 -30.0517
L43.3569 -30.1691
L43.6026 -30.288
L43.8491 -30.4085
L44.0967 -30.5305
L44.3453 -30.6542
L44.595 -30.7795
L44.8458 -30.9065
L45.0977 -31.0352
L45.3508 -31.1658
L45.6052 -31.2982
L45.8609 -31.4325
L46.1179 -31.5687
L46.3762 -31.7069
L46.6359 -31.8472
L46.8971 -31.9895
L47.1596 -32.134
L47.4237 -32.2807
L47.6892 -32.4296
L47.9563 -32.5808
L48.2248 -32.7344
L48.4949 -32.8903
L48.7666 -33.0487
L49.0398 -33.2096
L49.3146 -33.373
L49.5909 -33.539
L49.8688 -33.7075
L50.1482 -33.8788
L50.4291 -34.0527
L50.7115 -34.2294
L50.9954 -34.4088
L51.2807 -34.591
L51.5674 -34.7759
L51.8554 -34.9637
L52.1447 -35.1543
L52.4352 -35.3476
L52.7268 -35.5438
L53.0196 -35.7427
L53.3133 -35.9443
L53.6078 -36.1486
L53.9032 -36.3555
L54.1992 -36.5648
L54.4958 -36.7766
L54.7928 -36.9906
L55.0901 -37.2068
L55.3876 -37.4248
L55.685 -37.6445
L55.9823 -37.8656
L56.2794 -38.0878
L56.5759 -38.3108
L56.8719 -38.534
L57.1671 -38.7569
L57.4614 -38.9791
L57.7547 -39.1997
L58.0467 -39.418
L58.3375 -39.633
L58.6268 -39.8436
L58.9146 -40.0486
L59.2009 -40.2465
L59.4855 -40.4356
L59.7686 -40.6139
L60.0501 -40.7791
L60.3301 -40.9287
L60.6086 -41.0599
L60.8858 -41.1695
L61.1617 -41.2543
L61.4362 -41.3107
L61.7095 -41.3353
L61.9812 -41.3251
L62.251 -41.2773
L62.5185 -41.1899
L62.7831 -41.0616
L63.0438 -40.8924
L63.3 -40.6827
L63.5505 -40.4342
L63.7944 -40.1488
L64.0307 -39.8292
L64.2586 -39.4782
L64.3801 -39.0985
L64.4214 -38.6115
L64.454 -38.1158
L64.4779 -37.6194
L64.4931 -37.1226
L64.4997 -36.6254
L64.4976 -36.128
L64.4868 -35.6306
L64.4674 -35.1333
L64.4392 -34.6363
L64.4024 -34.1397
L64.357 -33.6436
L64.3029 -33.1483
L64.2402 -32.6538
L64.1689 -32.1604
L64.089 -31.6681
L64.0005 -31.1772
L63.9035 -30.6877
L63.7981 -30.1998
L63.6841 -29.7137
L63.5617 -29.2295
L63.431 -28.7474
L63.2918 -28.2675
L63.1444 -27.7899
L62.9887 -27.3149
L62.8248 -26.8425
L62.6527 -26.3728
L62.4724 -25.9061
L62.2842 -25.4425
L62.0879 -24.9821
L61.8836 -24.5251
L61.6715 -24.0715
L61.4516 -23.6216
L61.2239 -23.1755
L60.9885 -22.7332
L60.7455 -22.295
L60.495 -21.861
L60.237 -21.4313
L59.9716 -21.006
L59.6989 -20.5853
L59.419 -20.1693
L59.132 -19.7581
L58.8379 -19.3519
L58.5369 -18.9507
L58.229 -18.5547
L57.9143 -18.1641
L57.593 -17.7788
L57.2651 -17.3991
L56.9307 -17.0251
L56.5899 -16.6569
L56.2429 -16.2945
L55.8897 -15.9382
L55.5304 -15.588
L55.1652 -15.2439
L54.7941 -14.9063
L54.4173 -14.575
L54.035 -14.2503
L53.6471 -13.9321
L53.2538 -13.6207
L52.8553 -13.3162
L52.4516 -13.0185
L52.043 -12.7278
L51.6294 -12.4443
L51.2111 -12.1679
L50.7882 -11.8987
L50.3607 -11.6369
L49.9289 -11.3825
L49.4929 -11.1357
L49.0527 -10.8964
L48.6085 -10.6647
L48.1605 -10.4408
L47.7088 -10.2246
L47.2536 -10.0163
L46.7949 -9.8159
L46.3329 -9.62349
L45.8678 -9.43911
L45.3997 -9.26282
L44.9287 -9.09468
L44.4549 -8.93473
L43.9787 -8.78302
L43.4999 -8.63961
L43.0189 -8.50453
L42.5358 -8.37782
L42.0507 -8.25953
L41.5637 -8.14969
L41.075 -8.04834
L40.5848 -7.95549
L40.0932 -7.8712
L39.6003 -7.79546
L39.1064 -7.72832
L38.6115 -7.6698
L38.1158 -7.6199
L37.6194 -7.57864
L37.1226 -7.54605
L36.6254 -7.52212
L36.128 -7.50686
L35.6306 -7.50029
L35.1333 -7.50239
L34.6363 -7.51318
L34.1397 -7.53264
L33.6436 -7.56078
L33.1483 -7.59758
L32.6538 -7.64303
L32.1604 -7.69712
L31.6681 -7.75983
L31.1772 -7.83114
L30.6877 -7.91103
L30.1998 -7.99948
L29.7137 -8.09646
L29.2295 -8.20193
L28.7474 -8.31588
L28.2675 -8.43825
L27.7899 -8.56903
L27.3149 -8.70816
L26.8425 -8.8556
L26.3728 -9.01131
L25.9061 -9.17524
L25.4425 -9.34734
L24.9821 -9.52756
L24.5251 -9.71585
L24.0715 -9.91214
L23.6216 -10.1164
L23.1755 -10.3285
L22.7332 -10.5484
L22.295 -10.7761
L21.861 -11.0115
L21.4313 -11.2545
L21.006 -11.505
L20.5853 -11.763
L20.1693 -12.0284
L19.7581 -12.3011
L19.3519 -12.581
L18.9507 -12.868
L18.5547 -13.1621
L18.1641 -13.4631
L17.7788 -13.771
L17.3991 -14.0857
L17.0251 -14.407
L16.6569 -14.7349
L16.2945 -15.0693
L15.9382 -15.4101
L15.588 -15.7571
L15.2439 -16.1103
L14.9063 -16.4696
L14.575 -16.8348
L14.2503 -17.2059
L13.9321 -17.5827
L13.6207 -17.965
L13.3162 -18.3529
L13.0185 -18.7462
L12.7278 -19.1447
L12.4443 -19.5484
L12.1679 -19.957
z
" id="C0_1_2a00d352ca"/>
     <path d="
M7.73071 -33.3266
L7.86508 -33.7789
L8.00251 -34.2401
L8.14386 -34.7079
L8.2898 -35.1803
L8.44084 -35.6553
L8.59735 -36.1314
L8.75958 -36.6073
L8.92767 -37.0818
L9.10168 -37.5537
L9.2816 -38.0223
L9.46736 -38.4868
L9.65884 -38.9465
L9.85588 -39.4008
L10.0583 -39.8493
L10.2659 -40.2916
L10.4784 -40.7274
L10.6957 -41.1563
L10.9173 -41.5782
L11.1432 -41.9929
L11.3731 -42.4002
L11.6067 -42.8001
L11.8437 -43.1924
L12.084 -43.5772
L12.3273 -43.9544
L12.5733 -44.324
L12.8219 -44.6861
L13.0729 -45.0408
L13.326 -45.388
L13.581 -45.7278
L13.8378 -46.0604
L14.0963 -46.3858
L14.3562 -46.7041
L14.6173 -47.0155
L14.8797 -47.32
L15.1431 -47.6178
L15.4074 -47.909
L15.6725 -48.1937
L15.9383 -48.4721
L16.2047 -48.7442
L16.4716 -49.0103
L16.739 -49.2704
L17.0068 -49.5247
L17.2749 -49.7734
L17.5432 -50.0164
L17.8117 -50.254
L18.0805 -50.4863
L18.3493 -50.7135
L18.6182 -50.9355
L18.8873 -51.1527
L19.1563 -51.365
L19.4254 -51.5726
L19.6946 -51.7756
L19.9637 -51.9741
L20.2329 -52.1683
L20.5021 -52.3582
L20.7713 -52.5439
L21.0406 -52.7255
L21.3098 -52.9032
L21.5792 -53.0769
L21.8486 -53.2469
L22.1181 -53.4132
L22.3878 -53.5758
L22.6575 -53.7349
L22.9275 -53.8905
L23.1976 -54.0427
L23.468 -54.1915
L23.7386 -54.3371
L24.0095 -54.4795
L24.2808 -54.6188
L24.5524 -54.755
L24.8245 -54.8881
L25.097 -55.0183
L25.37 -55.1456
L25.6436 -55.27
L25.9177 -55.3915
L26.1925 -55.5103
L26.468 -55.6263
L26.7443 -55.7395
L27.0213 -55.8501
L27.2992 -55.9581
L27.5779 -56.0634
L27.8576 -56.166
L28.1384 -56.2662
L28.4202 -56.3637
L28.7031 -56.4587
L28.9872 -56.5511
L29.2726 -56.641
L29.5592 -56.7284
L29.8473 -56.8133
L30.1367 -56.8956
L30.4277 -56.9754
L30.7202 -57.0527
L31.0144 -57.1274
L31.3102 -57.1996
L31.6078 -57.2693
L31.9072 -57.3363
L32.2085 -57.4008
L32.5117 -57.4626
L32.817 -57.5217
L33.1244 -57.5782
L33.434 -57.632
L33.7457 -57.6829
L34.0598 -57.7311
L34.3763 -57.7765
L34.6952 -57.8189
L35.0166 -57.8584
L35.3406 -57.8948
L35.6673 -57.9282
L35.9967 -57.9584
L36.3289 -57.9855
L36.6639 -58.0092
L37.0019 -58.0295
L37.3428 -58.0464
L37.6868 -58.0598
L38.0339 -58.0695
L38.3841 -58.0755
L38.7376 -58.0777
L39.0944 -58.0759
L39.4545 -58.07
L39.8179 -58.06
L40.1848 -58.0456
L40.5552 -58.0268
L40.929 -58.0035
L41.3063 -57.9755
L41.6872 -57.9426
L42.0717 -57.9048
L42.4597 -57.8618
L42.8512 -57.8135
L43.2464 -57.7598
L43.645 -57.7005
L44.0472 -57.6355
L44.4529 -57.5645
L44.862 -57.4875
L45.2745 -57.4042
L45.6902 -57.3145
L46.1092 -57.2182
L46.5313 -57.1152
L46.9564 -57.0054
L47.3843 -56.8885
L47.815 -56.7646
L48.2482 -56.6333
L48.6837 -56.4947
L49.1213 -56.3486
L49.5608 -56.1951
L50.0019 -56.0339
L50.4444 -55.8652
L50.8879 -55.6889
L51.3322 -55.5052
L51.7767 -55.3141
L52.2212 -55.1158
L52.6652 -54.9106
L53.1083 -54.6987
L53.5499 -54.4807
L53.9897 -54.257
L54.4269 -54.0282
L54.861 -53.7951
L55.2914 -53.5588
L55.7174 -53.3204
L56.1382 -53.0811
L56.5532 -52.8428
L56.9615 -52.6072
L57.3622 -52.3765
L57.7545 -52.1533
L58.1375 -51.9404
L58.5101 -51.741
L58.8716 -51.5585
L59.2208 -51.3963
L59.557 -51.2579
L59.8793 -51.1467
L59.9244 -51.0655
L59.6505 -51.4878
L59.3693 -51.903
L59.081 -52.3133
L58.7857 -52.7187
L58.4835 -53.119
L58.1744 -53.514
L57.8586 -53.9038
L57.5361 -54.288
L57.207 -54.6667
L56.8715 -55.0398
L56.5296 -55.407
L56.1815 -55.7683
L55.8272 -56.1235
L55.4669 -56.4727
L55.1007 -56.8156
L54.7286 -57.1522
L54.3508 -57.4823
L53.9675 -57.8059
L53.5786 -58.1228
L53.1844 -58.4331
L52.785 -58.7364
L52.3805 -59.0329
L51.971 -59.3223
L51.5566 -59.6046
L51.1374 -59.8798
L50.7137 -60.1476
L50.2855 -60.4081
L49.8529 -60.6612
L49.4161 -60.9068
L48.9752 -61.1447
L48.5304 -61.3751
L48.0817 -61.5976
L47.6294 -61.8124
L47.1735 -62.0194
L46.7143 -62.2184
L46.2517 -62.4094
L45.7861 -62.5923
L45.3174 -62.7672
L44.8459 -62.9339
L44.3718 -63.0924
L43.895 -63.2427
L43.4159 -63.3846
L42.9345 -63.5183
L42.451 -63.6435
L41.9656 -63.7603
L41.4783 -63.8687
L40.9893 -63.9685
L40.4988 -64.0599
L40.007 -64.1427
L39.5139 -64.2169
L39.0198 -64.2825
L38.5248 -64.3396
L38.0289 -64.3879
L37.5325 -64.4277
L37.0356 -64.4588
L36.5384 -64.4812
L36.041 -64.4949
L35.5436 -64.5
L35.0463 -64.4963
L34.5493 -64.484
L34.0528 -64.4631
L33.5569 -64.4334
L33.0617 -64.3951
L32.5674 -64.3481
L32.0741 -64.2925
L31.5821 -64.2283
L31.0914 -64.1555
L30.6022 -64.0741
L30.1146 -63.9842
L29.6288 -63.8857
L29.145 -63.7787
L28.6632 -63.6633
L28.1837 -63.5395
L27.7066 -63.4072
L27.232 -63.2666
L26.7601 -63.1177
L26.2909 -62.9606
L25.8248 -62.7952
L25.3617 -62.6217
L24.9019 -62.4401
L24.4455 -62.2504
L23.9925 -62.0527
L23.5433 -61.8471
L23.0978 -61.6336
L22.6563 -61.4123
L22.2188 -61.1832
L21.7855 -60.9465
L21.3566 -60.7022
L20.9321 -60.4503
L20.5122 -60.1911
L20.097 -59.9244
L19.6867 -59.6505
L19.2813 -59.3693
L18.881 -59.081
L18.486 -58.7857
L18.0962 -58.4835
L17.712 -58.1744
L17.3333 -57.8586
L16.9602 -57.5361
L16.593 -57.207
L16.2317 -56.8715
L15.8765 -56.5296
L15.5273 -56.1815
L15.1844 -55.8272
L14.8478 -55.4669
L14.5177 -55.1007
L14.1941 -54.7286
L13.8772 -54.3508
L13.5669 -53.9675
L13.2636 -53.5786
L12.9671 -53.1844
L12.6777 -52.785
L12.3954 -52.3805
L12.1202 -51.971
L11.8524 -51.5566
L11.5919 -51.1374
L11.3388 -50.7137
L11.0932 -50.2855
L10.8553 -49.8529
L10.6249 -49.4161
L10.4024 -48.9752
L10.1876 -48.5304
L9.98065 -48.0817
L9.78165 -47.6294
L9.59064 -47.1735
L9.40767 -46.7143
L9.2328 -46.2517
L9.06609 -45.7861
L8.90758 -45.3174
L8.75732 -44.8459
L8.61536 -44.3718
L8.48175 -43.895
L8.35651 -43.4159
L8.2397 -42.9345
L8.13134 -42.451
L8.03147 -41.9656
L7.94012 -41.4783
L7.85732 -40.9893
L7.78309 -40.4988
L7.71746 -40.007
L7.66044 -39.5139
L7.61205 -39.0198
L7.57231 -38.5248
L7.54123 -38.0289
L7.51882 -37.5325
L7.50509 -37.0356
L7.50003 -36.5384
L7.50365 -36.041
L7.51596 -35.5436
L7.53694 -35.0463
L7.5666 -34.5493
z
" id="C0_2_9cecc5ea82"/>
    </defs>
    <g clip-path="url(#p1bffca34e9)">
     <use style="fill:#ff0000;stroke:#000000;stroke-width:2.0;" x="0.0" xlink:href="#C0_0_a811fe30f3" y="72.0"/>
    </g>
    <g clip-path="url(#p1bffca34e9)">
     <use style="fill:#ffffff;stroke:#000000;stroke-width:2.0;" x="0.0" xlink:href="#C0_1_2a00d352ca" y="72.0"/>
    </g>
    <g clip-path="url(#p1bffca34e9)">
     <use style="fill:#ffffff;stroke:#000000;stroke-width:2.0;" x="0.0" xlink:href="#C0_2_9cecc5ea82" y="72.0"/>
    </g>
   </g>
  </g>
 </g>
 <defs>
  <clipPath id="p1bffca34e9">
   <rect height="72.0" width="72.0" x="0.0" y="0.0"/>
  </clipPath>
 </defs>
</svg>
