<?xml version="1.0" encoding="utf-8" standalone="no"?>
<!DOCTYPE svg PUBLIC "-//W3C//DTD SVG 1.1//EN"
  "http://www.w3.org/Graphics/SVG/1.1/DTD/svg11.dtd">
<!-- Created with matplotlib (http://matplotlib.org/) -->
<svg height="72pt" version="1.1" viewBox="0 0 72 72" width="72pt" xmlns="http://www.w3.org/2000/svg" xmlns:xlink="http://www.w3.org/1999/xlink">
 <defs>
  <style type="text/css">
*{stroke-linecap:butt;stroke-linejoin:round;}
  </style>
 </defs>
 <g id="figure_1">
  <g id="patch_1">
   <path d="
M0 72
L72 72
L72 0
L0 0
z
" style="fill:none;"/>
  </g>
  <g id="axes_1">
   <g id="PatchCollection_1">
    <defs>
     <path d="
M36 -7.5
C43.5583 -7.5 50.808 -10.5029 56.1525 -15.8475
C61.4971 -21.192 64.5 -28.4417 64.5 -36
C64.5 -43.5583 61.4971 -50.808 56.1525 -56.1525
C50.808 -61.4971 43.5583 -64.5 36 -64.5
C28.4417 -64.5 21.192 -61.4971 15.8475 -56.1525
C10.5029 -50.808 7.5 -43.5583 7.5 -36
C7.5 -28.4417 10.5029 -21.192 15.8475 -15.8475
C21.192 -10.5029 28.4417 -7.5 36 -7.5
z
" id="C0_0_a811fe30f3"/>
     <path d="
M46.0067 -31.0414
L45.8019 -30.8726
L45.5959 -30.7051
L45.3885 -30.5389
L45.1798 -30.374
L44.9698 -30.2102
L44.7583 -30.0477
L44.5454 -29.8864
L44.3311 -29.7262
L44.1152 -29.5671
L43.8978 -29.4092
L43.6788 -29.2524
L43.4583 -29.0967
L43.236 -28.9421
L43.0121 -28.7885
L42.7864 -28.6361
L42.559 -28.4847
L42.3297 -28.3344
L42.0986 -28.1852
L41.8655 -28.037
L41.6305 -27.8899
L41.3935 -27.7439
L41.1545 -27.599
L40.9134 -27.4552
L40.6702 -27.3125
L40.4248 -27.1709
L40.1772 -27.0305
L39.9273 -26.8913
L39.6751 -26.7532
L39.4206 -26.6164
L39.1636 -26.4808
L38.9043 -26.3466
L38.6424 -26.2136
L38.3781 -26.082
L38.1112 -25.9519
L37.8416 -25.8232
L37.5695 -25.696
L37.2946 -25.5704
L37.0171 -25.4465
L36.7368 -25.3243
L36.4538 -25.2038
L36.168 -25.0853
L35.8793 -24.9687
L35.5878 -24.8541
L35.2934 -24.7417
L34.9962 -24.6315
L34.6961 -24.5237
L34.3931 -24.4183
L34.0873 -24.3156
L33.7785 -24.2156
L33.4669 -24.1184
L33.1524 -24.0243
L32.8351 -23.9333
L32.5151 -23.8457
L32.1922 -23.7616
L31.8667 -23.6812
L31.5385 -23.6047
L31.2078 -23.5323
L30.8745 -23.4642
L30.5388 -23.4007
L30.2009 -23.3419
L29.8607 -23.2882
L29.5185 -23.2397
L29.1743 -23.1968
L28.8284 -23.1597
L28.4808 -23.1287
L28.1319 -23.1042
L27.7817 -23.0864
L27.4305 -23.0757
L27.0786 -23.0724
L26.7261 -23.0768
L26.3734 -23.0894
L26.0208 -23.1104
L25.6685 -23.1402
L25.317 -23.1793
L24.9665 -23.2279
L24.6175 -23.2865
L24.2702 -23.3553
L23.9252 -23.4348
L23.5828 -23.5254
L23.2435 -23.6272
L22.9077 -23.7407
L22.5759 -23.8661
L22.2485 -24.0037
L21.926 -24.1536
L21.609 -24.3161
L21.2977 -24.4912
L20.9927 -24.679
L20.6945 -24.8795
L20.4034 -25.0927
L20.1198 -25.3185
L19.8442 -25.5566
L19.5769 -25.8069
L19.3183 -26.069
L19.0685 -26.3426
L18.8279 -26.6273
L18.5966 -26.9226
L18.375 -27.2281
L18.1631 -27.5432
L17.961 -27.8674
L17.7688 -28.2
L17.5866 -28.5406
L17.4144 -28.8885
L17.2522 -29.243
L17.0999 -29.6037
L16.9576 -29.9699
L16.825 -30.3409
L16.7022 -30.7163
L16.5889 -31.0955
L16.4851 -31.4779
L16.3906 -31.863
L16.3052 -32.2504
L16.2288 -32.6395
L16.1612 -33.0299
L16.1022 -33.4212
L16.0517 -33.813
L16.0093 -34.2049
L15.975 -34.5966
L15.9484 -34.9877
L15.9295 -35.378
L15.918 -35.7671
L15.9137 -36.1548
L15.9164 -36.5409
L15.9259 -36.9251
L15.942 -37.3072
L15.9645 -37.6871
L15.9932 -38.0646
L16.0279 -38.4396
L16.0685 -38.8118
L16.1148 -39.1812
L16.1665 -39.5477
L16.2235 -39.9112
L16.2857 -40.2716
L16.3529 -40.6289
L16.4249 -40.9829
L16.5016 -41.3336
L16.5828 -41.681
L16.6685 -42.0251
L16.7584 -42.3658
L16.8524 -42.7031
L16.9505 -43.037
L17.0524 -43.3675
L17.1581 -43.6945
L17.2676 -44.0182
L17.3805 -44.3385
L17.497 -44.6554
L17.6169 -44.9689
L17.74 -45.2791
L17.8664 -45.5859
L17.9959 -45.8895
L18.1285 -46.1898
L18.2641 -46.4868
L18.4026 -46.7807
L18.544 -47.0713
L18.6882 -47.3589
L18.8352 -47.6433
L18.9849 -47.9247
L19.1373 -48.203
L19.2924 -48.4784
L19.45 -48.7508
L19.6103 -49.0203
L19.773 -49.2869
L19.9383 -49.5507
L20.1061 -49.8117
L20.2764 -50.0699
L20.4491 -50.3254
L20.6243 -50.5782
L20.802 -50.8283
L20.9821 -51.0759
L21.1646 -51.3208
L21.3495 -51.5632
L21.5369 -51.8031
L21.7268 -52.0404
L21.919 -52.2753
L22.1138 -52.5078
L22.311 -52.7379
L22.5107 -52.9655
L22.7129 -53.1908
L22.9176 -53.4138
L23.1249 -53.6344
L23.3348 -53.8527
L23.5472 -54.0688
L23.7623 -54.2825
L23.98 -54.4939
L24.2004 -54.7031
L24.4235 -54.9101
L24.6494 -55.1148
L24.878 -55.3172
L25.1095 -55.5174
L25.3439 -55.7153
L25.5811 -55.9109
L25.8214 -56.1043
L26.0646 -56.2954
L26.3109 -56.4841
L26.5603 -56.6706
L26.8129 -56.8547
L27.0686 -57.0364
L27.3276 -57.2158
L27.5899 -57.3927
L27.8556 -57.5671
L28.1247 -57.739
L28.3973 -57.9084
L28.6733 -58.0751
L28.953 -58.2392
L29.2364 -58.4006
L29.5234 -58.5592
L29.8142 -58.715
L30.1088 -58.8678
L30.4072 -59.0176
L30.7096 -59.1644
L31.016 -59.308
L31.3264 -59.4484
L31.641 -59.5853
L31.9596 -59.7189
L32.2824 -59.8488
L32.6095 -59.975
L32.9408 -60.0975
L33.2765 -60.2159
L33.6165 -60.3303
L33.9609 -60.4404
L34.3097 -60.5462
L34.6629 -60.6474
L35.0206 -60.7439
L35.3827 -60.8355
L35.7493 -60.9221
L36.1203 -61.0034
L36.4957 -61.0792
L36.8756 -61.1494
L37.2598 -61.2138
L37.6483 -61.272
L38.0411 -61.324
L38.4381 -61.3694
L38.8392 -61.4081
L39.2442 -61.4397
L39.6532 -61.4641
L40.0659 -61.4811
L40.4821 -61.4902
L40.9018 -61.4913
L41.3247 -61.4842
L41.7505 -61.4685
L42.1791 -61.4441
L42.6102 -61.4105
L43.0435 -61.3677
L43.4785 -61.3153
L43.9151 -61.2531
L44.3528 -61.1808
L44.7912 -61.0982
L45.2298 -61.0051
L45.6682 -60.9013
L46.1059 -60.7866
L46.5423 -60.6609
L46.9768 -60.5239
L47.4088 -60.3755
L47.8378 -60.2157
L48.263 -60.0444
L48.6838 -59.8616
L49.0994 -59.6672
L49.5091 -59.4613
L49.9122 -59.244
L50.3078 -59.0153
L50.6953 -58.7756
L51.0739 -58.5249
L51.4429 -58.2636
L51.8014 -57.9919
L52.1488 -57.7101
L52.4845 -57.4188
L52.8077 -57.1183
L53.118 -56.8091
L53.4148 -56.4917
L53.6976 -56.1667
L53.966 -55.8345
L54.2197 -55.4959
L54.4585 -55.1514
L54.6823 -54.8015
L54.8908 -54.4469
L55.0841 -54.0883
L55.2623 -53.7261
L55.4254 -53.3611
L55.5737 -52.9936
L55.7073 -52.6244
L55.8266 -52.2538
L55.9318 -51.8824
L56.0234 -51.5106
L56.1017 -51.1389
L56.1672 -50.7677
L56.2202 -50.3974
L56.2612 -50.0282
L56.2907 -49.6605
L56.3091 -49.2947
L56.3169 -48.9309
L56.3144 -48.5694
L56.3023 -48.2105
L56.2808 -47.8542
L56.2504 -47.5008
L56.2116 -47.1505
L56.1648 -46.8033
L56.1102 -46.4595
L56.0484 -46.119
L55.9797 -45.782
L55.9044 -45.4485
L55.8229 -45.1186
L55.7355 -44.7924
L55.6426 -44.4699
L55.5443 -44.1511
L55.441 -43.8361
L55.3329 -43.5247
L55.2204 -43.2172
L55.1036 -42.9134
L54.9828 -42.6133
L54.8582 -42.3169
L54.73 -42.0243
L54.5984 -41.7353
L54.4636 -41.4499
L54.3257 -41.1681
L54.185 -40.8899
L54.0416 -40.6152
L53.8956 -40.344
L53.7471 -40.0763
L53.5964 -39.8119
L53.4434 -39.5508
L53.2884 -39.293
L53.1314 -39.0384
L52.9725 -38.787
L52.8119 -38.5387
L52.6495 -38.2935
L52.4855 -38.0513
L52.32 -37.812
L52.153 -37.5756
L51.9846 -37.342
L51.8148 -37.1112
L51.6437 -36.8831
L51.4713 -36.6576
L51.2977 -36.4348
L51.1229 -36.2145
L50.947 -35.9967
L50.7699 -35.7813
L50.5918 -35.5683
L50.4126 -35.3576
L50.2323 -35.1491
L50.051 -34.9429
L49.8686 -34.7389
L49.6853 -34.5369
L49.5009 -34.3371
L49.3156 -34.1392
L49.1293 -33.9433
L48.9419 -33.7493
L48.7536 -33.5572
L48.5643 -33.367
L48.3739 -33.1785
L48.1826 -32.9917
L47.9902 -32.8067
L47.7968 -32.6233
L47.6024 -32.4415
L47.4068 -32.2613
L47.2102 -32.0827
L47.0125 -31.9056
L46.8137 -31.7299
L46.6137 -31.5557
L46.4126 -31.3829
z
" id="C0_1_8dd37dd0ed"/>
    </defs>
    <g clip-path="url(#p1bffca34e9)">
     <use style="fill:#ff0000;stroke:#000000;stroke-width:2.0;" x="0.0" xlink:href="#C0_0_a811fe30f3" y="72.0"/>
    </g>
    <g clip-path="url(#p1bffca34e9)">
     <use style="fill:#ffffff;stroke:#000000;stroke-width:2.0;" x="0.0" xlink:href="#C0_1_8dd37dd0ed" y="72.0"/>
    </g>
   </g>
  </g>
 </g>
 <defs>
  <clipPath id="p1bffca34e9">
   <rect height="72.0" width="72.0" x="0.0" y="0.0"/>
  </clipPath>
 </defs>
</svg>
