<?xml version="1.0" encoding="utf-8" standalone="no"?>
<!DOCTYPE svg PUBLIC "-//W3C//DTD SVG 1.1//EN"
  "http://www.w3.org/Graphics/SVG/1.1/DTD/svg11.dtd">
<!-- Created with matplotlib (http://matplotlib.org/) -->
<svg height="72pt" version="1.1" viewBox="0 0 72 72" width="72pt" xmlns="http://www.w3.org/2000/svg" xmlns:xlink="http://www.w3.org/1999/xlink">
 <defs>
  <style type="text/css">
*{stroke-linecap:butt;stroke-linejoin:round;}
  </style>
 </defs>
 <g id="figure_1">
  <g id="patch_1">
   <path d="
M0 72
L72 72
L72 0
L0 0
z
" style="fill:none;"/>
  </g>
  <g id="axes_1">
   <g id="PatchCollection_1">
    <defs>
     <path d="
M36 -7.5
C43.5583 -7.5 50.808 -10.5029 56.1525 -15.8475
C61.4971 -21.192 64.5 -28.4417 64.5 -36
C64.5 -43.5583 61.4971 -50.808 56.1525 -56.1525
C50.808 -61.4971 43.5583 -64.5 36 -64.5
C28.4417 -64.5 21.192 -61.4971 15.8475 -56.1525
C10.5029 -50.808 7.5 -43.5583 7.5 -36
C7.5 -28.4417 10.5029 -21.192 15.8475 -15.8475
C21.192 -10.5029 28.4417 -7.5 36 -7.5
z
" id="C0_0_a811fe30f3"/>
     <path d="
M9.26156 -45.3759
L9.54163 -45.5343
L9.82071 -45.6677
L10.0982 -45.7758
L10.3735 -45.8587
L10.6463 -45.9166
L10.9163 -45.9498
L11.1831 -45.959
L11.4467 -45.9448
L11.707 -45.9084
L11.964 -45.8507
L12.2179 -45.7729
L12.4688 -45.6763
L12.7169 -45.5623
L12.9624 -45.4322
L13.2055 -45.2872
L13.4467 -45.1289
L13.6859 -44.9583
L13.9236 -44.7768
L14.1599 -44.5855
L14.395 -44.3854
L14.6291 -44.1778
L14.8624 -43.9634
L15.095 -43.7431
L15.327 -43.5179
L15.5585 -43.2883
L15.7895 -43.0552
L16.0202 -42.8191
L16.2506 -42.5805
L16.4807 -42.3401
L16.7106 -42.0982
L16.9401 -41.8553
L17.1694 -41.6117
L17.3984 -41.3679
L17.6271 -41.124
L17.8555 -40.8804
L18.0836 -40.6373
L18.3113 -40.395
L18.5386 -40.1536
L18.7655 -39.9132
L18.992 -39.6742
L19.218 -39.4365
L19.4435 -39.2003
L19.6685 -38.9656
L19.8929 -38.7327
L20.1167 -38.5015
L20.34 -38.2721
L20.5626 -38.0446
L20.7846 -37.819
L21.006 -37.5953
L21.2267 -37.3736
L21.4468 -37.1538
L21.6661 -36.9361
L21.8848 -36.7203
L22.1028 -36.5065
L22.3201 -36.2947
L22.5368 -36.0849
L22.7527 -35.877
L22.968 -35.671
L23.1826 -35.467
L23.3966 -35.2649
L23.6099 -35.0646
L23.8226 -34.8662
L24.0347 -34.6696
L24.2462 -34.4748
L24.4571 -34.2818
L24.6674 -34.0904
L24.8772 -33.9008
L25.0865 -33.7127
L25.2953 -33.5263
L25.5036 -33.3415
L25.7115 -33.1582
L25.919 -32.9763
L26.1261 -32.796
L26.3328 -32.617
L26.5392 -32.4395
L26.7453 -32.2632
L26.9512 -32.0883
L27.1568 -31.9146
L27.3622 -31.7422
L27.5675 -31.5709
L27.7726 -31.4008
L27.9777 -31.2317
L28.1827 -31.0638
L28.3876 -30.8968
L28.5926 -30.7309
L28.7977 -30.5659
L29.0028 -30.4018
L29.2081 -30.2386
L29.4136 -30.0763
L29.6192 -29.9148
L29.8252 -29.754
L30.0314 -29.594
L30.2379 -29.4346
L30.6522 -29.276
L30.8601 -29.118
L31.0684 -28.9606
L31.2773 -28.8037
L31.4867 -28.6474
L31.6969 -28.4917
L31.9077 -28.3364
L32.1192 -28.1815
L32.3315 -28.0271
L32.5446 -27.873
L32.7586 -27.7193
L32.9734 -27.566
L33.1893 -27.4129
L33.4061 -27.2602
L33.624 -27.1076
L33.843 -26.9553
L34.0631 -26.8033
L34.2844 -26.6514
L34.507 -26.4996
L34.7308 -26.348
L34.9559 -26.1965
L35.1825 -26.0451
L35.4104 -25.8937
L35.6398 -25.7424
L35.8707 -25.5912
L36.1032 -25.4399
L36.3373 -25.2887
L36.573 -25.1374
L36.8104 -24.9861
L37.0496 -24.8347
L37.2905 -24.6833
L37.5332 -24.5318
L37.7778 -24.3802
L38.0242 -24.2285
L38.2726 -24.0767
L38.523 -23.9248
L38.7753 -23.7728
L39.0296 -23.6206
L39.286 -23.4683
L39.5444 -23.3159
L39.8049 -23.1633
L40.0675 -23.0106
L40.3321 -22.8578
L40.5989 -22.7048
L40.8678 -22.5517
L41.1389 -22.3985
L41.412 -22.2451
L41.6871 -22.0916
L41.9643 -21.938
L42.2436 -21.7842
L42.5248 -21.6304
L42.8079 -21.4764
L43.0928 -21.3224
L43.3796 -21.1683
L43.668 -21.014
L43.958 -20.8597
L44.2495 -20.7053
L44.5423 -20.5508
L44.8363 -20.3961
L45.1313 -20.2414
L45.4271 -20.0865
L45.7235 -19.9315
L46.0203 -19.7762
L46.3171 -19.6207
L46.6138 -19.4649
L46.9099 -19.3088
L47.2052 -19.1522
L47.4991 -18.9951
L47.7913 -18.8373
L48.0813 -18.6787
L48.3685 -18.5192
L48.6524 -18.3584
L48.9323 -18.1964
L49.2076 -18.0327
L49.4775 -17.867
L49.7411 -17.6992
L49.9977 -17.5287
L50.2462 -17.3552
L50.4857 -17.1783
L50.7151 -16.9974
L50.9333 -16.8121
L51.1392 -16.6218
L51.3315 -16.4259
L51.509 -16.2238
L51.6705 -16.0149
L51.8147 -15.7988
L51.9406 -15.5747
L52.0469 -15.3423
L52.1327 -15.1011
L52.1971 -14.8509
L52.2392 -14.5913
L52.2584 -14.3224
L52.2543 -14.0441
L52.2265 -13.7567
L52.175 -13.4606
L52.0998 -13.1563
L52.001 -12.8444
L51.6387 -12.5255
L51.2205 -12.1739
L50.7976 -11.9046
L50.3703 -11.6427
L49.9386 -11.3881
L49.5026 -11.1411
L49.0625 -10.9016
L48.6184 -10.6698
L48.1705 -10.4456
L47.7189 -10.2293
L47.2637 -10.0208
L46.8051 -9.82027
L46.3432 -9.62768
L45.8782 -9.44312
L45.4101 -9.26665
L44.9392 -9.09832
L44.4655 -8.93819
L43.9893 -8.7863
L43.5106 -8.6427
L43.0296 -8.50744
L42.5465 -8.38055
L42.0615 -8.26207
L41.5745 -8.15204
L41.0859 -8.0505
L40.5957 -7.95747
L40.1041 -7.87298
L39.6113 -7.79705
L39.1173 -7.72972
L38.6225 -7.671
L38.1268 -7.62091
L37.6305 -7.57947
L37.1336 -7.54668
L36.6365 -7.52255
L36.1391 -7.50711
L35.6417 -7.50034
L35.1444 -7.50225
L34.6473 -7.51285
L34.1507 -7.53212
L33.6546 -7.56006
L33.1593 -7.59667
L32.6648 -7.64193
L32.1713 -7.69582
L31.679 -7.75834
L31.1881 -7.82946
L30.6985 -7.90916
L30.2106 -7.99742
L29.7245 -8.09421
L29.2403 -8.1995
L28.7581 -8.31325
L28.2781 -8.43544
L27.8005 -8.56603
L27.3254 -8.70497
L26.8529 -8.85223
L26.3832 -9.00776
L25.9165 -9.17151
L25.4528 -9.34343
L24.9923 -9.52347
L24.5352 -9.71158
L24.0816 -9.90769
L23.6316 -10.1118
L23.1854 -10.3237
L22.743 -10.5435
L22.3047 -10.771
L21.8706 -11.0062
L21.4408 -11.249
L21.0154 -11.4994
L20.5946 -11.7572
L20.1785 -12.0224
L19.7672 -12.2949
L19.3608 -12.5747
L18.9596 -12.8615
L18.5635 -13.1555
L18.1727 -13.4563
L17.7873 -13.7641
L17.4075 -14.0786
L17.0334 -14.3998
L16.665 -14.7276
L16.3025 -15.0618
L15.946 -15.4024
L15.5957 -15.7493
L15.2515 -16.1024
L14.9137 -16.4616
L14.5823 -16.8266
L14.2574 -17.1976
L13.9391 -17.5742
L13.6276 -17.9565
L13.3229 -18.3443
L13.025 -18.7374
L12.7342 -19.1358
L12.4505 -19.5393
L12.1739 -19.9479
L11.9046 -20.3613
L11.6427 -20.7795
L11.3881 -21.2024
L11.1411 -21.6297
L10.9016 -22.0614
L10.6698 -22.4974
L10.4456 -22.9375
L10.2293 -23.3816
L10.0208 -23.8295
L9.82027 -24.2811
L9.62768 -24.7363
L9.44312 -25.1949
L9.26665 -25.6568
L9.09832 -26.1218
L8.93819 -26.5899
L8.7863 -27.0608
L8.6427 -27.5345
L8.50744 -28.0107
L8.38055 -28.4894
L8.26207 -28.9704
L8.15204 -29.4535
L8.0505 -29.9385
L7.95747 -30.4255
L7.87298 -30.9141
L7.79705 -31.4043
L7.72972 -31.8959
L7.671 -32.3887
L7.62091 -32.8827
L7.57947 -33.3775
L7.54668 -33.8732
L7.52255 -34.3695
L7.50711 -34.8664
L7.50034 -35.3635
L7.50225 -35.8609
L7.51285 -36.3583
L7.53212 -36.8556
L7.56006 -37.3527
L7.59667 -37.8493
L7.64193 -38.3454
L7.69582 -38.8407
L7.75834 -39.3352
L7.82946 -39.8287
L7.90916 -40.321
L7.99742 -40.8119
L8.09421 -41.3015
L8.1995 -41.7894
L8.31325 -42.2755
L8.43544 -42.7597
L8.56603 -43.2419
L8.70497 -43.7219
L8.85223 -44.1995
z
" id="C0_1_e6f9d77248"/>
     <path d="
M20.2438 -59.6154
L20.6021 -59.6138
L20.9709 -59.6181
L21.3493 -59.6275
L21.7363 -59.6407
L22.131 -59.6569
L22.5324 -59.6749
L22.9397 -59.694
L23.3521 -59.7133
L23.7688 -59.7321
L24.189 -59.7498
L24.612 -59.7657
L25.0371 -59.7795
L25.4638 -59.7906
L25.8914 -59.7987
L26.3195 -59.8035
L26.7475 -59.8047
L27.175 -59.8021
L27.6016 -59.7955
L28.0269 -59.7849
L28.4506 -59.7701
L28.8723 -59.7511
L29.2918 -59.7278
L29.7088 -59.7003
L30.1231 -59.6684
L30.5345 -59.6323
L30.9428 -59.592
L31.3479 -59.5476
L31.7496 -59.4991
L32.1477 -59.4465
L32.5423 -59.39
L32.9332 -59.3296
L33.3203 -59.2655
L33.7036 -59.1977
L34.083 -59.1263
L34.4585 -59.0515
L34.8302 -58.9732
L35.1978 -58.8916
L35.5616 -58.8068
L35.9214 -58.7189
L36.2773 -58.628
L36.6293 -58.5341
L36.9775 -58.4374
L37.3218 -58.3379
L37.6623 -58.2357
L37.9991 -58.1309
L38.3321 -58.0235
L38.6614 -57.9137
L38.9872 -57.8014
L39.3093 -57.6868
L39.628 -57.5699
L39.9432 -57.4508
L40.255 -57.3295
L40.5635 -57.2061
L40.8687 -57.0805
L41.1707 -56.953
L41.4696 -56.8234
L41.7654 -56.6919
L42.0582 -56.5584
L42.348 -56.423
L42.635 -56.2858
L42.9191 -56.1466
L43.2005 -56.0057
L43.4792 -55.8629
L43.7553 -55.7183
L44.0288 -55.572
L44.2998 -55.4238
L44.5684 -55.2739
L44.8346 -55.1222
L45.0984 -54.9687
L45.3601 -54.8135
L45.6195 -54.6565
L45.8768 -54.4977
L46.132 -54.3371
L46.3852 -54.1747
L46.6364 -54.0105
L46.8857 -53.8445
L47.1332 -53.6766
L47.3788 -53.5069
L47.6226 -53.3353
L47.8648 -53.1617
L48.1052 -52.9863
L48.3441 -52.8089
L48.5813 -52.6295
L48.817 -52.4481
L49.0512 -52.2646
L49.284 -52.0791
L49.5153 -51.8914
L49.7453 -51.7016
L49.9739 -51.5095
L50.2011 -51.3153
L50.4271 -51.1187
L50.6519 -50.9198
L50.8754 -50.7185
L51.0977 -50.5149
L51.3189 -50.3087
L51.5389 -50.1
L51.7578 -49.8887
L51.9755 -49.6748
L52.1922 -49.4581
L52.4078 -49.2388
L52.6223 -49.0166
L52.8357 -48.7915
L53.0482 -48.5635
L53.2595 -48.3325
L53.4699 -48.0984
L53.6791 -47.8612
L53.8874 -47.6208
L54.0946 -47.3771
L54.3007 -47.13
L54.5058 -46.8796
L54.7098 -46.6257
L54.9127 -46.3682
L55.1145 -46.1071
L55.3151 -45.8423
L55.5146 -45.5737
L55.7129 -45.3013
L55.9099 -45.025
L56.1057 -44.7447
L56.3002 -44.4604
L56.4933 -44.1719
L56.685 -43.8792
L56.8752 -43.5823
L57.0639 -43.2811
L57.2511 -42.9756
L57.4365 -42.6655
L57.6203 -42.3511
L57.8023 -42.0321
L57.9824 -41.7085
L58.1606 -41.3803
L58.3367 -41.0475
L58.5107 -40.7101
L58.6824 -40.368
L58.8519 -40.0212
L59.0189 -39.6698
L59.1834 -39.3137
L59.3453 -38.953
L59.5045 -38.5878
L59.6609 -38.218
L59.8144 -37.8438
L59.9648 -37.4653
L60.1121 -37.0826
L60.2562 -36.6958
L60.397 -36.3051
L60.5345 -35.9106
L60.6685 -35.5127
L60.799 -35.1115
L60.926 -34.7072
L61.0495 -34.3004
L61.1694 -33.8912
L61.2857 -33.4801
L61.3986 -33.0675
L61.5081 -32.6539
L61.6143 -32.2398
L61.7174 -31.8259
L61.8176 -31.4128
L61.9152 -31.0012
L62.0103 -30.5918
L62.1035 -30.1855
L62.1952 -29.7832
L62.2857 -29.3857
L62.3758 -28.9943
L62.4659 -28.6098
L62.5568 -28.2334
L62.6492 -27.8664
L62.7438 -27.5098
L62.8416 -27.1649
L63.1372 -26.8329
L63.285 -27.2923
L63.4245 -27.7672
L63.5557 -28.2447
L63.6785 -28.7245
L63.7928 -29.2065
L63.8987 -29.6906
L63.9961 -30.1766
L64.0849 -30.6644
L64.1652 -31.1538
L64.237 -31.6447
L64.3001 -32.1369
L64.3546 -32.6303
L64.4005 -33.1247
L64.4377 -33.62
L64.4662 -34.116
L64.4861 -34.6126
L64.4973 -35.1096
L64.4998 -35.6069
L64.4936 -36.1043
L64.4788 -36.6017
L64.4553 -37.0989
L64.4231 -37.5957
L64.3823 -38.0921
L64.3328 -38.5878
L64.2747 -39.0828
L64.2079 -39.5768
L64.1326 -40.0697
L64.0487 -40.5614
L63.9563 -41.0517
L63.8553 -41.5404
L63.7459 -42.0275
L63.628 -42.5127
L63.5017 -42.996
L63.367 -43.4771
L63.224 -43.9559
L63.0727 -44.4323
L62.9131 -44.9061
L62.7454 -45.3773
L62.5695 -45.8455
L62.3855 -46.3108
L62.1934 -46.7729
L61.9934 -47.2318
L61.7855 -47.6872
L61.5697 -48.1391
L61.3462 -48.5873
L61.1149 -49.0316
L60.8759 -49.472
L60.6294 -49.9082
L60.3754 -50.3403
L60.1139 -50.7679
L59.8451 -51.1911
L59.5691 -51.6096
L59.2858 -52.0234
L58.9955 -52.4323
L58.6982 -52.8362
L58.3939 -53.2349
L58.0829 -53.6284
L57.7651 -54.0166
L57.4406 -54.3992
L57.1097 -54.7763
L56.7723 -55.1476
L56.4286 -55.5131
L56.0786 -55.8727
L55.7226 -56.2262
L55.3605 -56.5735
L54.9926 -56.9146
L54.6188 -57.2493
L54.2394 -57.5775
L53.8544 -57.8992
L53.464 -58.2142
L53.0683 -58.5224
L52.6674 -58.8237
L52.2614 -59.1182
L51.8504 -59.4055
L51.4346 -59.6858
L51.0141 -59.9588
L50.5891 -60.2245
L50.1596 -60.4828
L49.7257 -60.7337
L49.2877 -60.9771
L48.8457 -61.2128
L48.3997 -61.4409
L47.95 -61.6612
L47.4966 -61.8737
L47.0397 -62.0783
L46.5795 -62.275
L46.116 -62.4636
L45.6495 -62.6443
L45.18 -62.8167
L44.7077 -62.9811
L44.2328 -63.1372
L43.7553 -63.285
L43.2755 -63.4245
L42.7935 -63.5557
L42.3094 -63.6785
L41.8234 -63.7928
L41.3356 -63.8987
L40.8462 -63.9961
L40.3553 -64.0849
L39.8631 -64.1652
L39.3697 -64.237
L38.8753 -64.3001
L38.38 -64.3546
L37.884 -64.4005
L37.3874 -64.4377
L36.8904 -64.4662
L36.3931 -64.4861
L35.8957 -64.4973
L35.3983 -64.4998
L34.9011 -64.4936
L34.4043 -64.4788
L33.9079 -64.4553
L33.4122 -64.4231
L32.9172 -64.3823
L32.4232 -64.3328
L31.9303 -64.2747
L31.4386 -64.2079
L30.9483 -64.1326
L30.4596 -64.0487
L29.9725 -63.9563
L29.4873 -63.8553
L29.004 -63.7459
L28.5229 -63.628
L28.0441 -63.5017
L27.5677 -63.367
L27.0939 -63.224
L26.6227 -63.0727
L26.1545 -62.9131
L25.6892 -62.7454
L25.2271 -62.5695
L24.7682 -62.3855
L24.3128 -62.1934
L23.8609 -61.9934
L23.4127 -61.7855
L22.9684 -61.5697
L22.528 -61.3462
L22.0918 -61.1149
L21.6597 -60.8759
L21.2321 -60.6294
L20.8089 -60.3754
z
" id="C0_2_e855065511"/>
    </defs>
    <g clip-path="url(#p1bffca34e9)">
     <use style="fill:#ff0000;stroke:#000000;stroke-width:2.0;" x="0.0" xlink:href="#C0_0_a811fe30f3" y="72.0"/>
    </g>
    <g clip-path="url(#p1bffca34e9)">
     <use style="fill:#ffffff;stroke:#000000;stroke-width:2.0;" x="0.0" xlink:href="#C0_1_e6f9d77248" y="72.0"/>
    </g>
    <g clip-path="url(#p1bffca34e9)">
     <use style="fill:#ffffff;stroke:#000000;stroke-width:2.0;" x="0.0" xlink:href="#C0_2_e855065511" y="72.0"/>
    </g>
   </g>
  </g>
 </g>
 <defs>
  <clipPath id="p1bffca34e9">
   <rect height="72.0" width="72.0" x="0.0" y="0.0"/>
  </clipPath>
 </defs>
</svg>
