<?xml version="1.0" encoding="utf-8" standalone="no"?>
<!DOCTYPE svg PUBLIC "-//W3C//DTD SVG 1.1//EN"
  "http://www.w3.org/Graphics/SVG/1.1/DTD/svg11.dtd">
<!-- Created with matplotlib (http://matplotlib.org/) -->
<svg height="72pt" version="1.1" viewBox="0 0 72 72" width="72pt" xmlns="http://www.w3.org/2000/svg" xmlns:xlink="http://www.w3.org/1999/xlink">
 <defs>
  <style type="text/css">
*{stroke-linecap:butt;stroke-linejoin:round;}
  </style>
 </defs>
 <g id="figure_1">
  <g id="patch_1">
   <path d="
M0 72
L72 72
L72 0
L0 0
z
" style="fill:none;"/>
  </g>
  <g id="axes_1">
   <g id="PatchCollection_1">
    <defs>
     <path d="
M36 -7.5
C43.5583 -7.5 50.808 -10.5029 56.1525 -15.8475
C61.4971 -21.192 64.5 -28.4417 64.5 -36
C64.5 -43.5583 61.4971 -50.808 56.1525 -56.1525
C50.808 -61.4971 43.5583 -64.5 36 -64.5
C28.4417 -64.5 21.192 -61.4971 15.8475 -56.1525
C10.5029 -50.808 7.5 -43.5583 7.5 -36
C7.5 -28.4417 10.5029 -21.192 15.8475 -15.8475
C21.192 -10.5029 28.4417 -7.5 36 -7.5
z
" id="C0_0_a811fe30f3"/>
     <path d="
M63.1954 -27.5189
L62.9679 -27.1337
L62.7301 -26.7666
L62.4824 -26.4185
L62.2257 -26.0899
L61.9604 -25.7812
L61.6874 -25.4929
L61.4072 -25.225
L61.1206 -24.9774
L60.8283 -24.75
L60.5308 -24.5425
L60.2288 -24.3543
L59.9229 -24.185
L59.6136 -24.0338
L59.3014 -23.9
L58.9867 -23.783
L58.6702 -23.6818
L58.352 -23.5957
L58.0326 -23.5238
L57.7124 -23.4653
L57.3916 -23.4195
L57.0706 -23.3855
L56.7496 -23.3626
L56.4288 -23.3502
L56.1084 -23.3474
L55.7887 -23.3538
L55.4698 -23.3686
L55.1518 -23.3914
L54.8351 -23.4215
L54.5196 -23.4585
L54.2055 -23.5019
L53.8929 -23.5512
L53.5819 -23.606
L53.2727 -23.666
L52.9652 -23.7308
L52.6596 -23.8001
L52.3559 -23.8735
L52.0542 -23.9507
L51.7546 -24.0315
L51.457 -24.1156
L51.1615 -24.2028
L50.8682 -24.2929
L50.577 -24.3856
L50.288 -24.4808
L50.0012 -24.5783
L49.7166 -24.6779
L49.4342 -24.7795
L49.154 -24.8829
L48.876 -24.988
L48.6002 -25.0947
L48.3266 -25.2029
L48.0551 -25.3124
L47.7857 -25.4232
L47.5185 -25.5352
L47.2533 -25.6482
L46.9902 -25.7623
L46.7291 -25.8774
L46.4701 -25.9933
L46.213 -26.1101
L45.9578 -26.2276
L45.7045 -26.3459
L45.453 -26.4648
L45.2034 -26.5845
L44.9556 -26.7047
L44.7095 -26.8255
L44.465 -26.9469
L44.2223 -27.0688
L43.9811 -27.1912
L43.7415 -27.3141
L43.5034 -27.4375
L43.2667 -27.5614
L43.0315 -27.6857
L42.7977 -27.8105
L42.5651 -27.9357
L42.3339 -28.0613
L42.1039 -28.1874
L41.8751 -28.314
L41.6474 -28.4409
L41.4209 -28.5683
L41.1954 -28.6962
L40.9708 -28.8245
L40.7473 -28.9533
L40.5246 -29.0826
L40.3028 -29.2123
L40.0818 -29.3426
L39.8616 -29.4733
L39.6421 -29.6046
L39.4233 -29.7365
L39.2052 -29.8689
L38.9876 -30.0018
L38.7705 -30.1354
L38.554 -30.2696
L38.3379 -30.4045
L38.1222 -30.54
L37.692 -30.6762
L37.4773 -30.8131
L37.2628 -30.9507
L37.0486 -31.0892
L36.8344 -31.2284
L36.6205 -31.3684
L36.4066 -31.5093
L36.1927 -31.651
L35.9788 -31.7937
L35.7649 -31.9372
L35.5509 -32.0818
L35.3367 -32.2274
L35.1225 -32.374
L34.908 -32.5216
L34.6933 -32.6704
L34.4783 -32.8203
L34.263 -32.9714
L34.0474 -33.1237
L33.8315 -33.2773
L33.6151 -33.4322
L33.3983 -33.5883
L33.1811 -33.7459
L32.9634 -33.9049
L32.7451 -34.0653
L32.5264 -34.2272
L32.307 -34.3907
L32.0871 -34.5557
L31.8666 -34.7224
L31.6455 -34.8908
L31.4237 -35.0609
L31.2013 -35.2327
L30.9783 -35.4064
L30.7545 -35.5819
L30.5301 -35.7593
L30.3051 -35.9387
L30.0793 -36.1201
L29.8529 -36.3035
L29.6258 -36.4891
L29.3981 -36.6768
L29.1697 -36.8667
L28.9408 -37.0588
L28.7112 -37.2533
L28.4811 -37.4501
L28.2504 -37.6493
L28.0193 -37.851
L27.7878 -38.0552
L27.5559 -38.2619
L27.3238 -38.4713
L27.0914 -38.6833
L26.8588 -38.898
L26.6263 -39.1154
L26.3937 -39.3356
L26.1614 -39.5587
L25.9294 -39.7847
L25.6978 -40.0136
L25.4668 -40.2455
L25.2366 -40.4804
L25.0073 -40.7183
L24.7791 -40.9594
L24.5524 -41.2035
L24.3272 -41.4509
L24.1039 -41.7015
L23.8828 -41.9553
L23.6641 -42.2123
L23.4482 -42.4727
L23.2354 -42.7364
L23.0261 -43.0035
L22.8208 -43.274
L22.6198 -43.5479
L22.4236 -43.8252
L22.2328 -44.1059
L22.0479 -44.3902
L21.8695 -44.6779
L21.6982 -44.9692
L21.5346 -45.2639
L21.3795 -45.5622
L21.2336 -45.864
L21.0976 -46.1694
L20.9723 -46.4782
L20.8587 -46.7905
L20.7574 -47.1063
L20.6694 -47.4254
L20.5954 -47.7479
L20.5364 -48.0735
L20.4932 -48.4023
L20.4665 -48.734
L20.457 -49.0684
L20.4654 -49.4054
L20.4921 -49.7446
L20.5377 -50.0857
L20.6024 -50.4283
L20.6864 -50.7721
L20.7898 -51.1165
L20.9125 -51.4612
L21.0542 -51.8055
L21.2146 -52.1489
L21.3934 -52.4908
L21.5898 -52.8307
L21.8032 -53.168
L22.0331 -53.502
L22.2785 -53.8322
L22.5388 -54.1581
L22.813 -54.4792
L23.1003 -54.7949
L23.4 -55.1048
L23.711 -55.4085
L24.0328 -55.7055
L24.3643 -55.9956
L24.7048 -56.2784
L25.0537 -56.5537
L25.41 -56.8212
L25.7733 -57.0807
L26.1427 -57.3321
L26.5177 -57.5752
L26.8976 -57.8099
L27.2819 -58.0361
L27.67 -58.2538
L28.0615 -58.463
L28.4558 -58.6636
L28.8525 -58.8557
L29.2512 -59.0393
L29.6516 -59.2145
L30.0531 -59.3812
L30.4555 -59.5397
L30.8585 -59.6899
L31.2618 -59.832
L31.6651 -59.9661
L32.0681 -60.0923
L32.4706 -60.2107
L32.8724 -60.3215
L33.2733 -60.4247
L33.6732 -60.5206
L34.0718 -60.6092
L34.469 -60.6907
L34.8647 -60.7652
L35.2588 -60.8328
L35.6511 -60.8938
L36.0415 -60.9482
L36.43 -60.9961
L36.8165 -61.0378
L37.2009 -61.0733
L37.5832 -61.1028
L37.9633 -61.1264
L38.3412 -61.1441
L38.7168 -61.1563
L39.0901 -61.1628
L39.4611 -61.164
L39.8298 -61.1598
L40.1962 -61.1504
L40.5602 -61.1359
L40.9219 -61.1163
L41.2813 -61.0919
L41.6383 -61.0626
L41.9931 -61.0285
L42.3455 -60.9898
L42.6956 -60.9465
L43.0435 -60.8986
L43.3891 -60.8464
L43.7325 -60.7897
L44.0738 -60.7287
L44.4128 -60.6634
L44.7497 -60.5939
L45.0845 -60.5202
L45.4172 -60.4424
L45.7478 -60.3606
L46.0765 -60.2746
L46.4031 -60.1847
L46.7278 -60.0907
L47.0505 -59.9928
L47.3714 -59.8909
L47.6903 -59.7851
L48.0075 -59.6754
L48.3228 -59.5618
L48.6364 -59.4443
L48.9482 -59.3228
L49.2583 -59.1975
L49.5667 -59.0683
L49.8734 -58.9351
L50.1785 -58.798
L50.482 -58.657
L50.7839 -58.5121
L51.0842 -58.3631
L51.3829 -58.2102
L51.6801 -58.0532
L51.9758 -57.8921
L52.27 -57.7269
L52.5626 -57.5577
L52.8538 -57.3842
L53.1435 -57.2065
L53.4317 -57.0245
L53.7184 -56.8382
L54.0037 -56.6475
L54.2874 -56.4525
L54.5697 -56.2529
L54.8504 -56.0487
L55.1296 -55.84
L55.4073 -55.6265
L55.6834 -55.4083
L55.9579 -55.1853
L56.2308 -54.9573
L56.502 -54.7244
L56.7715 -54.4864
L57.0393 -54.2433
L57.3053 -53.9949
L57.5695 -53.7412
L57.8317 -53.4821
L58.0919 -53.2175
L58.3501 -52.9473
L58.6062 -52.6714
L58.8601 -52.3898
L59.1116 -52.1023
L59.3607 -51.8088
L59.6073 -51.5092
L59.8513 -51.2035
L60.0925 -50.8915
L60.3308 -50.5732
L60.5661 -50.2484
L60.7982 -49.9172
L61.0269 -49.5793
L61.2521 -49.2347
L61.4736 -48.8833
L61.6913 -48.5251
L61.9048 -48.1599
L62.114 -47.7878
L62.3116 -47.4086
L62.4987 -46.9521
L62.6778 -46.4913
L62.8487 -46.0272
L63.0115 -45.5601
L63.166 -45.09
L63.3123 -44.6172
L63.4502 -44.1418
L63.5798 -43.6639
L63.701 -43.1837
L63.8137 -42.7012
L63.918 -42.2168
L64.0137 -41.7304
L64.1009 -41.2423
L64.1796 -40.7526
L64.2497 -40.2614
L64.3112 -39.769
L64.364 -39.2754
L64.4082 -38.7808
L64.4438 -38.2854
L64.4707 -37.7892
L64.4889 -37.2925
L64.4984 -36.7955
L64.4993 -36.2981
L64.4915 -35.8007
L64.475 -35.3034
L64.4498 -34.8062
L64.416 -34.3095
L64.3735 -33.8132
L64.3224 -33.3176
L64.2626 -32.8228
L64.1942 -32.329
L64.1173 -31.8363
L64.0317 -31.3449
L63.9377 -30.8549
L63.8351 -30.3665
L63.724 -29.8797
L63.6045 -29.3949
L63.4766 -28.912
z
" id="C0_1_736e4ccbae"/>
     <path d="
M9.74333 -25.0037
L9.61046 -25.4228
L9.4826 -25.8468
L9.35987 -26.2754
L9.24238 -26.7088
L9.13024 -27.1468
L9.02358 -27.5895
L8.9225 -28.0366
L8.82712 -28.4883
L8.73754 -28.9444
L8.65386 -29.4047
L8.57619 -29.8692
L8.50461 -30.3378
L8.43922 -30.8102
L8.38007 -31.2864
L8.32724 -31.7662
L8.28077 -32.2494
L8.2407 -32.7357
L8.20705 -33.2249
L8.1798 -33.7169
L8.15894 -34.2113
L8.14441 -34.7078
L8.13614 -35.2062
L8.13401 -35.706
L8.13789 -36.207
L8.1476 -36.7088
L8.16291 -37.2111
L8.18358 -37.7133
L8.2093 -38.2151
L8.23972 -38.716
L8.27444 -39.2156
L8.31301 -39.7135
L8.35493 -40.2091
L8.39967 -40.7019
L8.44662 -41.1915
L8.49515 -41.6774
L8.54458 -42.1591
L8.59421 -42.6361
L8.64331 -43.108
L8.69113 -43.5743
L8.52603 -44.0347
L8.39796 -43.5783
L8.27829 -43.0977
L8.16707 -42.6149
L8.06432 -42.1301
L7.97008 -41.6434
L7.88439 -41.155
L7.80725 -40.665
L7.73871 -40.1736
L7.67877 -39.6809
L7.62746 -39.1872
L7.58479 -38.6924
L7.55078 -38.1968
L7.52543 -37.7006
L7.50876 -37.2038
L7.50077 -36.7067
L7.50146 -36.2093
L7.51082 -35.7119
L7.52887 -35.2146
L7.55559 -34.7175
L7.59097 -34.2208
L7.63501 -33.7247
L7.68769 -33.2292
L7.74899 -32.7346
L7.8189 -32.241
L7.89739 -31.7485
L7.98444 -31.2573
L8.08003 -30.7676
L8.18412 -30.2794
L8.29668 -29.793
L8.41768 -29.3085
L8.54708 -28.826
L8.68485 -28.3458
L8.83094 -27.8678
L8.9853 -27.3923
L9.14789 -26.9195
L9.31866 -26.4494
L9.49756 -25.9822
z
" id="C0_2_916feed5ea"/>
    </defs>
    <g clip-path="url(#p1bffca34e9)">
     <use style="fill:#ff0000;stroke:#000000;stroke-width:2.0;" x="0.0" xlink:href="#C0_0_a811fe30f3" y="72.0"/>
    </g>
    <g clip-path="url(#p1bffca34e9)">
     <use style="fill:#ffffff;stroke:#000000;stroke-width:2.0;" x="0.0" xlink:href="#C0_1_736e4ccbae" y="72.0"/>
    </g>
    <g clip-path="url(#p1bffca34e9)">
     <use style="fill:#ffffff;stroke:#000000;stroke-width:2.0;" x="0.0" xlink:href="#C0_2_916feed5ea" y="72.0"/>
    </g>
   </g>
  </g>
 </g>
 <defs>
  <clipPath id="p1bffca34e9">
   <rect height="72.0" width="72.0" x="0.0" y="0.0"/>
  </clipPath>
 </defs>
</svg>
