<?xml version="1.0" encoding="utf-8" standalone="no"?>
<!DOCTYPE svg PUBLIC "-//W3C//DTD SVG 1.1//EN"
  "http://www.w3.org/Graphics/SVG/1.1/DTD/svg11.dtd">
<!-- Created with matplotlib (http://matplotlib.org/) -->
<svg height="72pt" version="1.1" viewBox="0 0 72 72" width="72pt" xmlns="http://www.w3.org/2000/svg" xmlns:xlink="http://www.w3.org/1999/xlink">
 <defs>
  <style type="text/css">
*{stroke-linecap:butt;stroke-linejoin:round;}
  </style>
 </defs>
 <g id="figure_1">
  <g id="patch_1">
   <path d="
M0 72
L72 72
L72 0
L0 0
z
" style="fill:none;"/>
  </g>
  <g id="axes_1">
   <g id="PatchCollection_1">
    <defs>
     <path d="
M36 -7.5
C43.5583 -7.5 50.808 -10.5029 56.1525 -15.8475
C61.4971 -21.192 64.5 -28.4417 64.5 -36
C64.5 -43.5583 61.4971 -50.808 56.1525 -56.1525
C50.808 -61.4971 43.5583 -64.5 36 -64.5
C28.4417 -64.5 21.192 -61.4971 15.8475 -56.1525
C10.5029 -50.808 7.5 -43.5583 7.5 -36
C7.5 -28.4417 10.5029 -21.192 15.8475 -15.8475
C21.192 -10.5029 28.4417 -7.5 36 -7.5
z
" id="C0_0_a811fe30f3"/>
     <path d="
M58.0018 -18.1907
L57.7335 -18.2721
L57.406 -18.2942
L57.0361 -18.277
L56.6369 -18.2359
L56.2176 -18.1817
L55.7844 -18.1214
L55.3419 -18.0598
L54.8929 -17.9999
L54.4397 -17.9436
L53.9839 -17.8922
L53.5267 -17.8466
L53.0692 -17.8073
L52.6122 -17.7747
L52.1563 -17.7488
L51.702 -17.7298
L51.25 -17.7176
L50.8005 -17.7121
L50.3541 -17.7132
L49.9109 -17.7208
L49.4712 -17.7346
L49.0354 -17.7544
L48.6036 -17.7801
L48.176 -17.8114
L47.7527 -17.8481
L47.334 -17.89
L46.9198 -17.9368
L46.5104 -17.9884
L46.1057 -18.0444
L45.7059 -18.1047
L45.3109 -18.1691
L44.9209 -18.2373
L44.5357 -18.3092
L44.1555 -18.3846
L43.7802 -18.4633
L43.4099 -18.5451
L43.0443 -18.6299
L42.6836 -18.7174
L42.3277 -18.8076
L41.9766 -18.9003
L41.6301 -18.9954
L41.2883 -19.0927
L40.951 -19.1921
L40.6182 -19.2935
L40.2898 -19.3968
L39.9658 -19.5019
L39.646 -19.6086
L39.3303 -19.717
L39.0188 -19.8269
L38.7113 -19.9382
L38.4076 -20.051
L38.1078 -20.165
L37.8118 -20.2802
L37.5193 -20.3967
L37.2304 -20.5143
L36.945 -20.633
L36.663 -20.7528
L36.3842 -20.8736
L36.1087 -20.9953
L35.8362 -21.118
L35.5667 -21.2417
L35.3002 -21.3662
L35.0365 -21.4916
L34.7756 -21.6179
L34.5174 -21.7451
L34.2617 -21.8731
L34.0085 -22.0019
L33.7578 -22.1315
L33.5094 -22.262
L33.2633 -22.3933
L33.0193 -22.5255
L32.7775 -22.6584
L32.5377 -22.7923
L32.2998 -22.9269
L32.0639 -23.0624
L31.8297 -23.1988
L31.5973 -23.3361
L31.3666 -23.4742
L31.1375 -23.6133
L30.9099 -23.7533
L30.6838 -23.8943
L30.4591 -24.0363
L30.2358 -24.1792
L30.0137 -24.3232
L29.7928 -24.4683
L29.5732 -24.6144
L29.3546 -24.7617
L29.137 -24.9101
L28.7049 -25.0597
L28.4901 -25.2106
L28.2762 -25.3626
L28.0631 -25.516
L27.8507 -25.6707
L27.6389 -25.8268
L27.4278 -25.9844
L27.2173 -26.1433
L27.0072 -26.3038
L26.7977 -26.4659
L26.5886 -26.6296
L26.3799 -26.7949
L26.1715 -26.9619
L25.9635 -27.1308
L25.7557 -27.3014
L25.5481 -27.4739
L25.3408 -27.6484
L25.1336 -27.8249
L24.9265 -28.0034
L24.7195 -28.1841
L24.5126 -28.367
L24.3056 -28.5521
L24.0987 -28.7396
L23.8918 -28.9295
L23.6848 -29.1219
L23.4777 -29.3169
L23.2705 -29.5145
L23.0632 -29.7148
L22.8558 -29.9179
L22.6482 -30.1239
L22.4405 -30.3329
L22.2326 -30.5449
L22.0245 -30.7601
L21.8162 -30.9785
L21.6078 -31.2003
L21.3992 -31.4255
L21.1904 -31.6543
L20.9815 -31.8866
L20.7724 -32.1227
L20.5632 -32.3626
L20.3539 -32.6065
L20.1446 -32.8544
L19.9352 -33.1064
L19.7258 -33.3627
L19.5165 -33.6233
L19.3073 -33.8884
L19.0983 -34.158
L18.8895 -34.4324
L18.681 -34.7115
L18.473 -34.9955
L18.2654 -35.2845
L18.0584 -35.5786
L17.852 -35.8779
L17.6465 -36.1824
L17.4419 -36.4924
L17.2384 -36.8078
L17.0361 -37.1289
L16.8352 -37.4555
L16.6357 -37.7879
L16.438 -38.126
L16.2422 -38.47
L16.0485 -38.8199
L15.8571 -39.1757
L15.6681 -39.5375
L15.482 -39.9053
L15.2988 -40.2791
L15.1188 -40.6588
L14.9423 -41.0444
L14.7696 -41.436
L14.6008 -41.8333
L14.4363 -42.2364
L14.2764 -42.645
L14.1212 -43.059
L13.9712 -43.4783
L13.8263 -43.9025
L13.687 -44.3314
L13.5534 -44.7645
L13.4257 -45.2016
L13.3038 -45.6419
L13.1878 -46.0848
L13.0776 -46.5295
L12.9726 -46.9748
L12.8724 -47.4193
L12.7758 -47.861
L12.681 -48.2973
L12.5851 -48.7242
L12.4838 -49.1362
L12.3701 -49.525
L12.2341 -49.8784
L12.0631 -50.179
L11.8447 -50.4046
L11.5733 -50.5338
L11.2662 -50.5553
L11.0228 -50.1594
L10.7871 -49.7255
L10.559 -49.2875
L10.3387 -48.8455
L10.1262 -48.3995
L9.9216 -47.9498
L9.72493 -47.4964
L9.53627 -47.0395
L9.35567 -46.5793
L9.18318 -46.1158
L9.01886 -45.6493
L8.86276 -45.1798
L8.71493 -44.7075
L8.57541 -44.2325
L8.44424 -43.7551
L8.32146 -43.2753
L8.20712 -42.7933
L8.10124 -42.3092
L8.00386 -41.8232
L7.91501 -41.3354
L7.83472 -40.846
L7.763 -40.3551
L7.69988 -39.8629
L7.64539 -39.3695
L7.59953 -38.8751
L7.56232 -38.3798
L7.53378 -37.8837
L7.5139 -37.3872
L7.50271 -36.8901
L7.50019 -36.3928
L7.50636 -35.8954
L7.5212 -35.3981
L7.54472 -34.9009
L7.57691 -34.404
L7.61775 -33.9077
L7.66725 -33.4119
L7.72537 -32.917
L7.7921 -32.423
L7.86743 -31.9301
L7.95132 -31.4384
L8.04376 -30.9481
L8.14472 -30.4593
L8.25416 -29.9723
L8.37205 -29.4871
L8.49836 -29.0038
L8.63305 -28.5227
L8.77607 -28.0439
L8.92738 -27.5675
L9.08694 -27.0936
L9.2547 -26.6225
L9.43061 -26.1542
L9.61461 -25.689
L9.80664 -25.2268
L10.0067 -24.768
L10.2146 -24.3126
L10.4304 -23.8607
L10.654 -23.4125
L10.8852 -22.9682
L11.1242 -22.5278
L11.3707 -22.0916
L11.6247 -21.6595
L11.8862 -21.2319
L12.155 -20.8087
L12.4311 -20.3902
L12.7143 -19.9764
L13.0046 -19.5675
L13.302 -19.1636
L13.6062 -18.7649
L13.9173 -18.3714
L14.2351 -17.9832
L14.5595 -17.6006
L14.8905 -17.2235
L15.2279 -16.8522
L15.5716 -16.4867
L15.9215 -16.1272
L16.2776 -15.7737
L16.6396 -15.4263
L17.0076 -15.0853
L17.3814 -14.7506
L17.7608 -14.4223
L18.1457 -14.1007
L18.5362 -13.7857
L18.9319 -13.4775
L19.3328 -13.1761
L19.7388 -12.8817
L20.1498 -12.5944
L20.5656 -12.3141
L20.9861 -12.0411
L21.4111 -11.7754
L21.8406 -11.517
L22.2745 -11.2662
L22.7125 -11.0228
L23.1545 -10.7871
L23.6005 -10.559
L24.0502 -10.3387
L24.5036 -10.1262
L24.9605 -9.9216
L25.4207 -9.72493
L25.8842 -9.53627
L26.3507 -9.35567
L26.8202 -9.18318
L27.2925 -9.01886
L27.7675 -8.86276
L28.2449 -8.71493
L28.7247 -8.57541
L29.2067 -8.44424
L29.6908 -8.32146
L30.1768 -8.20712
L30.6646 -8.10124
L31.154 -8.00386
L31.6449 -7.91501
L32.1371 -7.83472
L32.6305 -7.763
L33.1249 -7.69988
L33.6202 -7.64539
L34.1163 -7.59953
L34.6128 -7.56232
L35.1099 -7.53378
L35.6072 -7.5139
L36.1046 -7.50271
L36.6019 -7.50019
L37.0991 -7.50636
L37.596 -7.5212
L38.0923 -7.54472
L38.5881 -7.57691
L39.083 -7.61775
L39.577 -7.66725
L40.0699 -7.72537
L40.5616 -7.7921
L41.0519 -7.86743
L41.5407 -7.95132
L42.0277 -8.04376
L42.5129 -8.14472
L42.9962 -8.25416
L43.4773 -8.37205
L43.9561 -8.49836
L44.4325 -8.63305
L44.9064 -8.77607
L45.3775 -8.92738
L45.8458 -9.08694
L46.311 -9.2547
L46.7732 -9.43061
L47.232 -9.61461
L47.6874 -9.80664
L48.1393 -10.0067
L48.5875 -10.2146
L49.0318 -10.4304
L49.4722 -10.654
L49.9084 -10.8852
L50.3405 -11.1242
L50.7681 -11.3707
L51.1913 -11.6247
L51.6098 -11.8862
L52.0236 -12.155
L52.4325 -12.4311
L52.8364 -12.7143
L53.2351 -13.0046
L53.6286 -13.302
L54.0168 -13.6062
L54.3994 -13.9173
L54.7765 -14.2351
L55.1478 -14.5595
L55.5133 -14.8905
L55.8728 -15.2279
L56.2263 -15.5716
L56.5737 -15.9215
L56.9147 -16.2776
L57.2494 -16.6396
L57.5777 -17.0076
z
" id="C0_1_8ebf958209"/>
     <path d="
M60.4537 -21.6966
L60.411 -22.0858
L60.3949 -22.5246
L60.393 -22.9968
L60.3969 -23.4909
L60.4009 -23.9991
L60.4015 -24.516
L60.3963 -25.0379
L60.384 -25.562
L60.3637 -26.0865
L60.3348 -26.6098
L60.2971 -27.1307
L60.2506 -27.6484
L60.1953 -28.1619
L60.1313 -28.6709
L60.0589 -29.1746
L59.9782 -29.6727
L59.8896 -30.1648
L59.7933 -30.6506
L59.6898 -31.1299
L59.5792 -31.6024
L59.462 -32.068
L59.3384 -32.5265
L59.2089 -32.9779
L59.0737 -33.4221
L58.9331 -33.8589
L58.7875 -34.2885
L58.6372 -34.7107
L58.4824 -35.1256
L58.3234 -35.5333
L58.1606 -35.9337
L57.9941 -36.3269
L57.8243 -36.713
L57.6512 -37.092
L57.4753 -37.4641
L57.2966 -37.8294
L57.1154 -38.1879
L56.9319 -38.5397
L56.7462 -38.885
L56.5586 -39.2239
L56.3691 -39.5565
L56.1778 -39.8829
L55.9851 -40.2033
L55.7909 -40.5178
L55.5953 -40.8264
L55.3986 -41.1294
L55.2007 -41.4269
L55.0018 -41.719
L54.8019 -42.0058
L54.6012 -42.2875
L54.3997 -42.5642
L54.1974 -42.836
L53.9944 -43.103
L53.7907 -43.3654
L53.5865 -43.6233
L53.3816 -43.8767
L53.1763 -44.1259
L52.9704 -44.3709
L52.764 -44.6119
L52.5571 -44.8489
L52.3498 -45.0821
L52.142 -45.3115
L51.9338 -45.5374
L51.7251 -45.7597
L51.516 -45.9785
L51.3064 -46.194
L51.0963 -46.4063
L50.8858 -46.6154
L50.6748 -46.8215
L50.4633 -47.0245
L50.2513 -47.2247
L50.0387 -47.422
L49.8255 -47.6166
L49.6118 -47.8086
L49.3974 -47.9979
L49.1824 -48.1847
L48.9667 -48.369
L48.7503 -48.551
L48.5332 -48.7306
L48.3153 -48.9079
L48.0965 -49.0831
L47.8769 -49.256
L47.6564 -49.4269
L47.4349 -49.5957
L47.2124 -49.7625
L46.9889 -49.9274
L46.7643 -50.0903
L46.5385 -50.2514
L46.3116 -50.4107
L46.0834 -50.5681
L45.8539 -50.7239
L45.6231 -50.8779
L45.3908 -51.0302
L45.1571 -51.1809
L44.9218 -51.3299
L44.685 -51.4774
L44.4465 -51.6232
L44.2062 -51.7676
L43.9642 -51.9103
L43.7203 -52.0516
L43.4745 -52.1914
L43.2267 -52.3296
L42.9769 -52.4664
L42.7248 -52.6017
L42.4706 -52.7355
L42.2141 -52.8679
L41.9552 -52.9987
L41.6938 -53.1281
L41.4299 -53.2561
L41.1634 -53.3825
L40.8941 -53.5074
L40.6221 -53.6308
L40.3472 -53.7526
L40.0694 -53.8729
L39.7884 -53.9915
L39.5044 -54.1086
L39.217 -54.2239
L38.9264 -54.3376
L38.6323 -54.4495
L38.3347 -54.5597
L38.0334 -54.668
L37.7285 -54.7743
L37.4197 -54.8787
L37.107 -54.9811
L36.7903 -55.0814
L36.4695 -55.1795
L36.1444 -55.2753
L35.8151 -55.3687
L35.4813 -55.4597
L35.1431 -55.5481
L34.8002 -55.6338
L34.4527 -55.7167
L34.1003 -55.7968
L33.7431 -55.8737
L33.381 -55.9475
L33.0138 -56.0179
L32.6415 -56.0848
L32.264 -56.1481
L31.8812 -56.2075
L31.4932 -56.2629
L31.0998 -56.314
L30.701 -56.3608
L30.2967 -56.4029
L29.887 -56.4402
L29.4718 -56.4725
L29.0511 -56.4994
L28.6249 -56.5208
L28.1933 -56.5364
L27.7563 -56.546
L27.3139 -56.5493
L26.8662 -56.546
L26.4133 -56.5358
L25.9553 -56.5186
L25.4923 -56.494
L25.0246 -56.4617
L24.5522 -56.4214
L24.0755 -56.373
L23.5946 -56.3161
L23.1097 -56.2505
L22.6213 -56.176
L22.1297 -56.0924
L21.6352 -55.9994
L21.1383 -55.8971
L20.6394 -55.7852
L20.1392 -55.6638
L19.6382 -55.533
L19.1371 -55.393
L18.6369 -55.2443
L18.1385 -55.0873
L17.6431 -54.9232
L17.1523 -54.7534
L16.6681 -54.5801
L16.1931 -54.4068
L15.7311 -54.2385
L15.2875 -54.0832
L14.87 -53.9526
L14.4896 -53.8637
L14.1598 -53.8383
L14.1659 -53.8975
L14.4889 -54.3172
L14.8184 -54.6955
L15.1544 -55.0681
L15.4968 -55.4348
L15.8454 -55.7957
L16.2001 -56.1505
L16.5609 -56.4992
L16.9276 -56.8416
L17.3001 -57.1777
L17.6783 -57.5073
L18.0621 -57.8304
L18.4514 -58.1468
L18.8459 -58.4565
L19.2458 -58.7594
L19.6507 -59.0553
L20.0606 -59.3442
L20.4753 -59.6259
L20.8948 -59.9005
L21.3189 -60.1678
L21.7475 -60.4278
L22.1804 -60.6803
L22.6175 -60.9253
L23.0587 -61.1626
L23.5038 -61.3924
L23.9527 -61.6144
L24.4053 -61.8285
L24.8615 -62.0349
L25.321 -62.2333
L25.7838 -62.4237
L26.2497 -62.606
L26.7186 -62.7802
L27.1903 -62.9463
L27.6646 -63.1042
L28.1415 -63.2538
L28.6208 -63.3952
L29.1024 -63.5281
L29.5861 -63.6527
L30.0717 -63.7689
L30.5591 -63.8766
L31.0482 -63.9758
L31.5387 -64.0665
L32.0307 -64.1487
L32.5238 -64.2222
L33.018 -64.2872
L33.5132 -64.3436
L34.009 -64.3913
L34.5055 -64.4304
L35.0025 -64.4608
L35.4997 -64.4825
L35.9971 -64.4956
L36.4945 -64.5
L36.9917 -64.4957
L37.4887 -64.4827
L37.9852 -64.4611
L38.481 -64.4308
L38.9762 -64.3918
L39.4704 -64.3442
L39.9636 -64.2879
L40.4555 -64.223
L40.9461 -64.1496
L41.4352 -64.0675
L41.9226 -63.9769
L42.4083 -63.8778
L42.892 -63.7702
L43.3735 -63.6541
L43.8529 -63.5296
L44.3298 -63.3968
L44.8042 -63.2555
L45.2759 -63.106
L45.7448 -62.9482
L46.2108 -62.7822
L46.6736 -62.6081
L47.1332 -62.4258
L47.5893 -62.2355
L48.042 -62.0372
L48.491 -61.831
L48.9361 -61.6169
L49.3774 -61.395
L49.8145 -61.1654
L50.2475 -60.9281
L50.6761 -60.6832
L51.1002 -60.4308
L51.5198 -60.1709
L51.9346 -59.9037
L52.3445 -59.6292
L52.7495 -59.3475
L53.1494 -59.0587
L53.5441 -58.7629
L53.9334 -58.4601
L54.3172 -58.1505
L54.6955 -57.8341
L55.0681 -57.5111
L55.4348 -57.1816
L55.7957 -56.8456
L56.1505 -56.5032
L56.4992 -56.1546
L56.8416 -55.7999
L57.1777 -55.4391
L57.5073 -55.0724
L57.8304 -54.6999
L58.1468 -54.3217
L58.4565 -53.9379
L58.7594 -53.5486
L59.0553 -53.1541
L59.3442 -52.7542
L59.6259 -52.3493
L59.9005 -51.9394
L60.1678 -51.5247
L60.4278 -51.1052
L60.6803 -50.6811
L60.9253 -50.2525
L61.1626 -49.8196
L61.3924 -49.3825
L61.6144 -48.9413
L61.8285 -48.4962
L62.0349 -48.0473
L62.2333 -47.5947
L62.4237 -47.1385
L62.606 -46.679
L62.7802 -46.2162
L62.9463 -45.7503
L63.1042 -45.2814
L63.2538 -44.8097
L63.3952 -44.3354
L63.5281 -43.8585
L63.6527 -43.3792
L63.7689 -42.8976
L63.8766 -42.4139
L63.9758 -41.9283
L64.0665 -41.4409
L64.1487 -40.9518
L64.2222 -40.4613
L64.2872 -39.9693
L64.3436 -39.4762
L64.3913 -38.982
L64.4304 -38.4868
L64.4608 -37.991
L64.4825 -37.4945
L64.4956 -36.9975
L64.5 -36.5003
L64.4957 -36.0029
L64.4827 -35.5055
L64.4611 -35.0083
L64.4308 -34.5113
L64.3918 -34.0148
L64.3442 -33.519
L64.2879 -33.0238
L64.223 -32.5296
L64.1496 -32.0364
L64.0675 -31.5445
L63.9769 -31.0539
L63.8778 -30.5648
L63.7702 -30.0774
L63.6541 -29.5917
L63.5296 -29.108
L63.3968 -28.6265
L63.2555 -28.1471
L63.106 -27.6702
L62.9482 -27.1958
L62.7822 -26.7241
L62.6081 -26.2552
L62.4258 -25.7892
L62.2355 -25.3264
L62.0372 -24.8668
L61.831 -24.4107
L61.6169 -23.958
L61.395 -23.509
L61.1654 -23.0639
L60.9281 -22.6226
z
" id="C0_2_5bd1b5a2a8"/>
    </defs>
    <g clip-path="url(#p1bffca34e9)">
     <use style="fill:#ffffff;stroke:#000000;stroke-width:2.0;" x="0.0" xlink:href="#C0_0_a811fe30f3" y="72.0"/>
    </g>
    <g clip-path="url(#p1bffca34e9)">
     <use style="fill:#ff0000;stroke:#000000;stroke-width:2.0;" x="0.0" xlink:href="#C0_1_8ebf958209" y="72.0"/>
    </g>
    <g clip-path="url(#p1bffca34e9)">
     <use style="fill:#ff0000;stroke:#000000;stroke-width:2.0;" x="0.0" xlink:href="#C0_2_5bd1b5a2a8" y="72.0"/>
    </g>
   </g>
  </g>
 </g>
 <defs>
  <clipPath id="p1bffca34e9">
   <rect height="72.0" width="72.0" x="0.0" y="0.0"/>
  </clipPath>
 </defs>
</svg>
