<?xml version="1.0" encoding="utf-8" standalone="no"?>
<!DOCTYPE svg PUBLIC "-//W3C//DTD SVG 1.1//EN"
  "http://www.w3.org/Graphics/SVG/1.1/DTD/svg11.dtd">
<!-- Created with matplotlib (http://matplotlib.org/) -->
<svg height="72pt" version="1.1" viewBox="0 0 72 72" width="72pt" xmlns="http://www.w3.org/2000/svg" xmlns:xlink="http://www.w3.org/1999/xlink">
 <defs>
  <style type="text/css">
*{stroke-linecap:butt;stroke-linejoin:round;}
  </style>
 </defs>
 <g id="figure_1">
  <g id="patch_1">
   <path d="
M0 72
L72 72
L72 0
L0 0
z
" style="fill:none;"/>
  </g>
  <g id="axes_1">
   <g id="PatchCollection_1">
    <defs>
     <path d="
M36 -7.5
C43.5583 -7.5 50.808 -10.5029 56.1525 -15.8475
C61.4971 -21.192 64.5 -28.4417 64.5 -36
C64.5 -43.5583 61.4971 -50.808 56.1525 -56.1525
C50.808 -61.4971 43.5583 -64.5 36 -64.5
C28.4417 -64.5 21.192 -61.4971 15.8475 -56.1525
C10.5029 -50.808 7.5 -43.5583 7.5 -36
C7.5 -28.4417 10.5029 -21.192 15.8475 -15.8475
C21.192 -10.5029 28.4417 -7.5 36 -7.5
z
" id="C0_0_a811fe30f3"/>
     <path d="
M12.2539 -51.6809
L12.5178 -51.6654
L12.7737 -51.628
L13.0217 -51.5696
L13.262 -51.4909
L13.4947 -51.3928
L13.7202 -51.2765
L13.9389 -51.143
L14.1511 -50.9935
L14.3574 -50.829
L14.5582 -50.6507
L14.7541 -50.4597
L14.9454 -50.2571
L15.1327 -50.044
L15.3163 -49.8214
L15.4969 -49.5902
L15.6746 -49.3514
L15.85 -49.1058
L16.0232 -48.8542
L16.1947 -48.5973
L16.3647 -48.3359
L16.5334 -48.0706
L16.701 -47.802
L16.8677 -47.5306
L17.0337 -47.2568
L17.1991 -46.9813
L17.364 -46.7043
L17.5285 -46.4263
L17.6927 -46.1476
L17.8567 -45.8686
L18.0205 -45.5894
L18.1842 -45.3104
L18.3477 -45.0317
L18.5112 -44.7537
L18.6747 -44.4765
L18.838 -44.2002
L19.0014 -43.925
L19.1647 -43.651
L19.3279 -43.3784
L19.4912 -43.1072
L19.6544 -42.8376
L19.8176 -42.5695
L19.9807 -42.3032
L20.1438 -42.0385
L20.3068 -41.7757
L20.4697 -41.5146
L20.6326 -41.2554
L20.7954 -40.9981
L20.9581 -40.7426
L21.1208 -40.489
L21.2833 -40.2374
L21.4458 -39.9875
L21.6081 -39.7396
L21.7704 -39.4936
L21.9326 -39.2494
L22.0947 -39.007
L22.2567 -38.7664
L22.4186 -38.5277
L22.5805 -38.2907
L22.7423 -38.0555
L22.904 -37.8219
L23.0657 -37.5901
L23.2274 -37.3598
L23.389 -37.1312
L23.5506 -36.9042
L23.7122 -36.6787
L23.8738 -36.4547
L24.0355 -36.2321
L24.1972 -36.011
L24.3589 -35.7912
L24.5208 -35.5727
L24.6827 -35.3556
L24.8448 -35.1397
L25.007 -34.925
L25.1694 -34.7115
L25.332 -34.4991
L25.4948 -34.2878
L25.6578 -34.0775
L25.821 -33.8682
L25.9846 -33.6599
L26.1485 -33.4525
L26.3127 -33.2459
L26.4773 -33.0402
L26.6423 -32.8353
L26.8077 -32.6311
L26.9735 -32.4276
L27.1399 -32.2247
L27.3067 -32.0225
L27.4741 -31.8209
L27.8107 -31.6197
L27.98 -31.4191
L28.1499 -31.219
L28.3205 -31.0192
L28.4919 -30.8198
L28.664 -30.6208
L28.837 -30.422
L29.0108 -30.2236
L29.1855 -30.0253
L29.3611 -29.8272
L29.5377 -29.6293
L29.7153 -29.4315
L29.8939 -29.2338
L30.0736 -29.0361
L30.2544 -28.8384
L30.4363 -28.6407
L30.6195 -28.4429
L30.8038 -28.2451
L30.9894 -28.0471
L31.1764 -27.8489
L31.3646 -27.6505
L31.5543 -27.452
L31.7453 -27.2532
L31.9379 -27.0541
L32.1319 -26.8546
L32.3274 -26.6549
L32.5246 -26.4548
L32.7233 -26.2543
L32.9237 -26.0534
L33.1257 -25.852
L33.3295 -25.6502
L33.535 -25.4479
L33.7423 -25.2452
L33.9514 -25.0418
L34.1624 -24.838
L34.3752 -24.6336
L34.5899 -24.4286
L34.8065 -24.2231
L35.0251 -24.0169
L35.2455 -23.8102
L35.468 -23.6028
L35.6924 -23.3949
L35.9188 -23.1863
L36.1472 -22.977
L36.3775 -22.7672
L36.6098 -22.5567
L36.8441 -22.3456
L37.0802 -22.1338
L37.3183 -21.9215
L37.5581 -21.7085
L37.7998 -21.4949
L38.0433 -21.2808
L38.2884 -21.066
L38.535 -20.8507
L38.7832 -20.6348
L39.0328 -20.4184
L39.2836 -20.2015
L39.5356 -19.984
L39.7885 -19.7661
L40.0422 -19.5476
L40.2965 -19.3287
L40.5512 -19.1094
L40.8059 -18.8896
L41.0605 -18.6693
L41.3147 -18.4486
L41.568 -18.2275
L41.8202 -18.0058
L42.0708 -17.7837
L42.3193 -17.5611
L42.5653 -17.3379
L42.8082 -17.1141
L43.0475 -16.8897
L43.2825 -16.6644
L43.5126 -16.4384
L43.7369 -16.2114
L43.9548 -15.9833
L44.1653 -15.7539
L44.3675 -15.5232
L44.5606 -15.2908
L44.7434 -15.0567
L44.915 -14.8206
L45.0743 -14.5823
L45.2201 -14.3415
L45.3515 -14.0981
L45.4672 -13.8518
L45.5663 -13.6024
L45.6477 -13.3497
L45.7105 -13.0936
L45.7537 -12.8341
L45.7768 -12.571
L45.7789 -12.3044
L45.7596 -12.0344
L45.7186 -11.7612
L45.6556 -11.485
L45.5707 -11.2062
L45.4638 -10.9251
L45.3352 -10.6424
L45.1853 -10.3583
L45.0145 -10.0737
L44.8234 -9.78895
L44.6125 -9.50484
L44.3825 -9.222
L43.9571 -8.94107
L43.4783 -8.63334
L42.9972 -8.49864
L42.514 -8.37231
L42.0287 -8.2544
L41.5417 -8.14494
L41.0529 -8.04397
L40.5627 -7.95151
L40.071 -7.8676
L39.5781 -7.79225
L39.0841 -7.7255
L38.5891 -7.66736
L38.0934 -7.61785
L37.597 -7.57699
L37.1002 -7.54478
L36.603 -7.52124
L36.1056 -7.50638
L35.6082 -7.5002
L35.1109 -7.50269
L34.6139 -7.51387
L34.1173 -7.53373
L33.6213 -7.56225
L33.126 -7.59944
L32.6316 -7.64528
L32.1382 -7.69976
L31.646 -7.76286
L31.1551 -7.83456
L30.6656 -7.91483
L30.1779 -8.00367
L29.6918 -8.10103
L29.2077 -8.20689
L28.7257 -8.32121
L28.2459 -8.44397
L27.7685 -8.57512
L27.2935 -8.71463
L26.8212 -8.86244
L26.3517 -9.01852
L25.8852 -9.18282
L25.4217 -9.35529
L24.9615 -9.53588
L24.5046 -9.72453
L24.0512 -9.92118
L23.6014 -10.1258
L23.1555 -10.3383
L22.7134 -10.5585
L22.2754 -10.7866
L21.8416 -11.0223
L21.412 -11.2656
L20.987 -11.5165
L20.5665 -11.7748
L20.1507 -12.0405
L19.7397 -12.3135
L19.3337 -12.5938
L18.9327 -12.8811
L18.537 -13.1755
L18.1466 -13.4768
L17.7616 -13.785
L17.3821 -14.1
L17.0084 -14.4216
L16.6404 -14.7499
L16.2783 -15.0845
L15.9223 -15.4256
L15.5723 -15.7729
L15.2286 -16.1264
L14.8912 -16.4859
L14.5602 -16.8514
L14.2358 -17.2227
L13.918 -17.5998
L13.6069 -17.9824
L13.3026 -18.3705
L13.0052 -18.764
L12.7149 -19.1628
L12.4316 -19.5667
L12.1556 -19.9756
L11.8868 -20.3893
L11.6253 -20.8078
L11.3712 -21.231
L11.1247 -21.6586
L10.8857 -22.0907
L10.6544 -22.5269
L10.4308 -22.9673
L10.215 -23.4116
L10.0071 -23.8598
L9.80706 -24.3116
L9.615 -24.767
L9.43099 -25.2259
L9.25506 -25.688
L9.08729 -26.1533
L8.92771 -26.6215
L8.77638 -27.0926
L8.63334 -27.5665
L8.49864 -28.0429
L8.37231 -28.5217
L8.2544 -29.0028
L8.14494 -29.486
L8.04397 -29.9713
L7.95151 -30.4583
L7.8676 -30.9471
L7.79225 -31.4373
L7.7255 -31.929
L7.66736 -32.4219
L7.61785 -32.9159
L7.57699 -33.4109
L7.54478 -33.9066
L7.52124 -34.403
L7.50638 -34.8998
L7.5002 -35.397
L7.50269 -35.8944
L7.51387 -36.3918
L7.53373 -36.8891
L7.56225 -37.3861
L7.59944 -37.8827
L7.64528 -38.3787
L7.69976 -38.874
L7.76286 -39.3684
L7.83456 -39.8618
L7.91483 -40.354
L8.00367 -40.8449
L8.10103 -41.3344
L8.20689 -41.8221
L8.32121 -42.3082
L8.44397 -42.7923
L8.57512 -43.2743
L8.71463 -43.7541
L8.86244 -44.2315
L9.01852 -44.7065
L9.18282 -45.1788
L9.35529 -45.6483
L9.53588 -46.1148
L9.72453 -46.5783
L9.92118 -47.0385
L10.1258 -47.4954
L10.3383 -47.9488
L10.5585 -48.3986
L10.7866 -48.8445
L11.0223 -49.2866
L11.2656 -49.7246
L11.5165 -50.1584
L11.7748 -50.588
z
" id="C0_1_50d13b162e"/>
     <path d="
M27.8782 -63.2955
L28.2481 -63.2039
L28.6244 -63.112
L29.0061 -63.0192
L29.3923 -62.9252
L29.7821 -62.8293
L30.1748 -62.7315
L30.5695 -62.6312
L30.9656 -62.5283
L31.3624 -62.4226
L31.7594 -62.3138
L32.1559 -62.2019
L32.5515 -62.0868
L32.9458 -61.9684
L33.3384 -61.8466
L33.7288 -61.7215
L34.1167 -61.5931
L34.5019 -61.4613
L34.8841 -61.3262
L35.263 -61.1879
L35.6385 -61.0465
L36.0104 -60.9019
L36.3785 -60.7543
L36.7427 -60.6038
L37.1029 -60.4505
L37.459 -60.2944
L37.8109 -60.1356
L38.1585 -59.9743
L38.5019 -59.8106
L38.841 -59.6444
L39.1758 -59.476
L39.5062 -59.3053
L39.8323 -59.1326
L40.154 -58.9578
L40.4715 -58.7812
L40.7847 -58.6026
L41.0936 -58.4223
L41.3983 -58.2402
L41.6989 -58.0565
L41.9953 -57.8712
L42.2876 -57.6844
L42.576 -57.4962
L42.8604 -57.3065
L43.1408 -57.1155
L43.4175 -56.9231
L43.6903 -56.7295
L43.9595 -56.5346
L44.2249 -56.3386
L44.4868 -56.1413
L44.7452 -55.9429
L45.0002 -55.7434
L45.2517 -55.5428
L45.5 -55.3412
L45.745 -55.1384
L45.9868 -54.9346
L46.2254 -54.7298
L46.4611 -54.5239
L46.6937 -54.317
L46.9234 -54.109
L47.1503 -53.9
L47.3743 -53.69
L47.5956 -53.4789
L47.8142 -53.2668
L48.0302 -53.0536
L48.2437 -52.8393
L48.4546 -52.624
L48.663 -52.4075
L48.8691 -52.1899
L49.0728 -51.9711
L49.2741 -51.7512
L49.4733 -51.5301
L49.6702 -51.3078
L49.8649 -51.0842
L50.0576 -50.8593
L50.2481 -50.6332
L50.4366 -50.4057
L50.6231 -50.1768
L50.8076 -49.9465
L50.9902 -49.7148
L51.171 -49.4815
L51.3498 -49.2468
L51.5268 -49.0105
L51.702 -48.7725
L51.8755 -48.533
L52.0472 -48.2917
L52.2171 -48.0487
L52.3854 -47.8039
L52.5519 -47.5572
L52.7168 -47.3087
L52.8801 -47.0582
L53.0417 -46.8058
L53.2016 -46.5513
L53.36 -46.2947
L53.5167 -46.036
L53.6719 -45.775
L53.8254 -45.5118
L53.9773 -45.2463
L54.1277 -44.9784
L54.2764 -44.7081
L54.4235 -44.4353
L54.569 -44.1599
L54.7129 -43.882
L54.8552 -43.6014
L54.9957 -43.318
L55.1347 -43.0319
L55.2719 -42.7429
L55.4074 -42.4511
L55.5412 -42.1562
L55.6731 -41.8584
L55.8033 -41.5575
L55.9317 -41.2535
L56.0582 -40.9462
L56.1828 -40.6358
L56.3054 -40.3221
L56.4261 -40.005
L56.5447 -39.6846
L56.6612 -39.3607
L56.7756 -39.0334
L56.8878 -38.7026
L56.9977 -38.3682
L57.1053 -38.0303
L57.2105 -37.6889
L57.3133 -37.3438
L57.4136 -36.9951
L57.5113 -36.6428
L57.6064 -36.2869
L57.6988 -35.9274
L57.7884 -35.5643
L57.8752 -35.1977
L57.959 -34.8275
L58.0399 -34.4539
L58.1178 -34.0769
L58.1926 -33.6965
L58.2642 -33.3129
L58.3327 -32.9262
L58.3979 -32.5365
L58.4598 -32.1439
L58.5185 -31.7485
L58.5739 -31.3507
L58.626 -30.9505
L58.6748 -30.5482
L58.7204 -30.144
L58.7629 -29.7383
L58.8022 -29.3312
L58.8386 -28.9232
L58.8721 -28.5145
L58.903 -28.1057
L58.9314 -27.6971
L58.9576 -27.2891
L58.9819 -26.8823
L59.0046 -26.4772
L59.0261 -26.0744
L59.0469 -25.6744
L59.0674 -25.278
L59.0882 -24.8858
L59.1099 -24.4985
L59.1331 -24.1169
L59.1586 -23.7417
L59.1872 -23.3738
L59.2196 -23.014
L59.2566 -22.663
L59.2992 -22.3219
L59.3481 -21.9912
L59.4042 -21.672
L59.4683 -21.3648
L59.5412 -21.0705
L59.6235 -20.7898
L60.1355 -20.5231
L60.3963 -20.8432
L60.6498 -21.2668
L60.8957 -21.6948
L61.134 -22.1272
L61.3647 -22.5638
L61.5876 -23.0045
L61.8027 -23.4491
L62.01 -23.8976
L62.2094 -24.3497
L62.4008 -24.8055
L62.5841 -25.2646
L62.7594 -25.727
L62.9264 -26.1925
L63.0853 -26.661
L63.236 -27.1324
L63.3783 -27.6064
L63.5123 -28.083
L63.6379 -28.562
L63.7551 -29.0433
L63.8639 -29.5267
L63.9641 -30.0121
L64.0559 -30.4993
L64.1391 -30.9882
L64.2137 -31.4786
L64.2797 -31.9704
L64.3371 -32.4634
L64.3859 -32.9575
L64.4261 -33.4525
L64.4575 -33.9483
L64.4803 -34.4447
L64.4945 -34.9416
L64.4999 -35.4388
L64.4967 -35.9362
L64.4848 -36.4336
L64.4642 -36.9309
L64.435 -37.4279
L64.397 -37.9244
L64.3505 -38.4204
L64.2953 -38.9156
L64.2314 -39.4099
L64.159 -39.9032
L64.078 -40.3954
L63.9885 -40.8861
L63.8904 -41.3754
L63.7838 -41.8631
L63.6688 -42.3489
L63.5453 -42.8328
L63.4135 -43.3147
L63.2733 -43.7943
L63.1248 -44.2716
L62.968 -44.7463
L62.803 -45.2183
L62.6298 -45.6876
L62.4486 -46.1539
L62.2593 -46.6171
L62.0619 -47.0771
L61.8567 -47.5337
L61.6435 -47.9868
L61.4226 -48.4362
L61.1939 -48.8818
L60.9575 -49.3236
L60.7136 -49.7612
L60.4621 -50.1947
L60.2031 -50.6239
L59.9368 -51.0486
L59.6632 -51.4687
L59.3824 -51.8841
L59.0944 -52.2946
L58.7995 -52.7002
L58.4975 -53.1007
L58.1888 -53.496
L57.8732 -53.886
L57.551 -54.2705
L57.2223 -54.6495
L56.887 -55.0228
L56.5455 -55.3902
L56.1976 -55.7518
L55.8436 -56.1074
L55.4836 -56.4568
L55.1176 -56.8
L54.7458 -57.1369
L54.3683 -57.4673
L53.9852 -57.7912
L53.5966 -58.1085
L53.2026 -58.419
L52.8035 -58.7227
L52.3992 -59.0194
L51.9899 -59.3092
L51.5757 -59.5918
L51.1568 -59.8673
L50.7332 -60.1355
L50.3052 -60.3963
L49.8728 -60.6498
L49.4362 -60.8957
L48.9955 -61.134
L48.5509 -61.3647
L48.1024 -61.5876
L47.6503 -61.8027
L47.1945 -62.01
L46.7354 -62.2094
L46.273 -62.4008
L45.8075 -62.5841
L45.339 -62.7594
L44.8676 -62.9264
L44.3936 -63.0853
L43.917 -63.236
L43.438 -63.3783
L42.9567 -63.5123
L42.4733 -63.6379
L41.9879 -63.7551
L41.5007 -63.8639
L41.0118 -63.9641
L40.5214 -64.0559
L40.0296 -64.1391
L39.5366 -64.2137
L39.0425 -64.2797
L38.5475 -64.3371
L38.0517 -64.3859
L37.5553 -64.4261
L37.0584 -64.4575
L36.5612 -64.4803
L36.0638 -64.4945
L35.5664 -64.4999
L35.0691 -64.4967
L34.5721 -64.4848
L34.0756 -64.4642
L33.5796 -64.435
L33.0844 -64.397
L32.5901 -64.3505
L32.0968 -64.2953
L31.6046 -64.2314
L31.1139 -64.159
L30.6246 -64.078
L30.1369 -63.9885
L29.6511 -63.8904
L29.1672 -63.7838
L28.6853 -63.6688
z
" id="C0_2_c7cdfd9f60"/>
    </defs>
    <g clip-path="url(#p1bffca34e9)">
     <use style="fill:#ff0000;stroke:#000000;stroke-width:2.0;" x="0.0" xlink:href="#C0_0_a811fe30f3" y="72.0"/>
    </g>
    <g clip-path="url(#p1bffca34e9)">
     <use style="fill:#ffffff;stroke:#000000;stroke-width:2.0;" x="0.0" xlink:href="#C0_1_50d13b162e" y="72.0"/>
    </g>
    <g clip-path="url(#p1bffca34e9)">
     <use style="fill:#ffffff;stroke:#000000;stroke-width:2.0;" x="0.0" xlink:href="#C0_2_c7cdfd9f60" y="72.0"/>
    </g>
   </g>
  </g>
 </g>
 <defs>
  <clipPath id="p1bffca34e9">
   <rect height="72.0" width="72.0" x="0.0" y="0.0"/>
  </clipPath>
 </defs>
</svg>
