<?xml version="1.0" encoding="utf-8" standalone="no"?>
<!DOCTYPE svg PUBLIC "-//W3C//DTD SVG 1.1//EN"
  "http://www.w3.org/Graphics/SVG/1.1/DTD/svg11.dtd">
<!-- Created with matplotlib (http://matplotlib.org/) -->
<svg height="72pt" version="1.1" viewBox="0 0 72 72" width="72pt" xmlns="http://www.w3.org/2000/svg" xmlns:xlink="http://www.w3.org/1999/xlink">
 <defs>
  <style type="text/css">
*{stroke-linecap:butt;stroke-linejoin:round;}
  </style>
 </defs>
 <g id="figure_1">
  <g id="patch_1">
   <path d="
M0 72
L72 72
L72 0
L0 0
z
" style="fill:none;"/>
  </g>
  <g id="axes_1">
   <g id="PatchCollection_1">
    <defs>
     <path d="
M36 -7.5
C43.5583 -7.5 50.808 -10.5029 56.1525 -15.8475
C61.4971 -21.192 64.5 -28.4417 64.5 -36
C64.5 -43.5583 61.4971 -50.808 56.1525 -56.1525
C50.808 -61.4971 43.5583 -64.5 36 -64.5
C28.4417 -64.5 21.192 -61.4971 15.8475 -56.1525
C10.5029 -50.808 7.5 -43.5583 7.5 -36
C7.5 -28.4417 10.5029 -21.192 15.8475 -15.8475
C21.192 -10.5029 28.4417 -7.5 36 -7.5
z
" id="C0_0_a811fe30f3"/>
     <path d="
M18.1279 -13.8003
L18.2142 -13.9634
L18.3015 -14.1265
L18.3895 -14.2897
L18.4784 -14.4529
L18.5681 -14.6161
L18.6587 -14.7795
L18.7501 -14.9431
L18.8424 -15.107
L18.9356 -15.271
L19.0297 -15.4354
L19.1246 -15.6002
L19.2205 -15.7653
L19.415 -15.9308
L19.5137 -16.0969
L19.6135 -16.2635
L19.7142 -16.4306
L19.8159 -16.5984
L19.9187 -16.7668
L20.0226 -16.936
L20.1276 -17.1059
L20.2337 -17.2767
L20.341 -17.4482
L20.4495 -17.6207
L20.5592 -17.7942
L20.6702 -17.9687
L20.7825 -18.1442
L20.8961 -18.3209
L21.011 -18.4987
L21.1274 -18.6777
L21.2452 -18.8581
L21.3644 -19.0397
L21.4852 -19.2227
L21.6076 -19.4072
L21.7315 -19.5932
L21.8571 -19.7807
L21.9844 -19.9699
L22.1135 -20.1607
L22.2443 -20.3533
L22.377 -20.5477
L22.5116 -20.7439
L22.6481 -20.9421
L22.7866 -21.1422
L22.9272 -21.3444
L23.0698 -21.5487
L23.2147 -21.7552
L23.3617 -21.9639
L23.5111 -22.1749
L23.6628 -22.3882
L23.8169 -22.604
L23.9734 -22.8223
L24.1325 -23.0432
L24.2941 -23.2667
L24.4584 -23.4928
L24.6255 -23.7217
L24.7953 -23.9534
L24.968 -24.188
L25.1435 -24.4255
L25.3221 -24.666
L25.5037 -24.9095
L25.6884 -25.1561
L25.8762 -25.4058
L26.0673 -25.6587
L26.2617 -25.9147
L26.4595 -26.1741
L26.6606 -26.4367
L26.8653 -26.7026
L27.0734 -26.9719
L27.2852 -27.2444
L27.5005 -27.5203
L27.7195 -27.7996
L27.9423 -28.0821
L28.1688 -28.3679
L28.3991 -28.657
L28.6332 -28.9492
L28.8711 -29.2446
L29.1129 -29.543
L29.3586 -29.8443
L29.6081 -30.1484
L29.8616 -30.4552
L30.1189 -30.7644
L30.38 -31.0759
L30.645 -31.3894
L30.9139 -31.7047
L31.1865 -32.0213
L31.4629 -32.339
L31.743 -32.6572
L32.0267 -32.9755
L32.3141 -33.2933
L32.6051 -33.6099
L32.8996 -33.9243
L33.1977 -34.2358
L33.4992 -34.5431
L33.8042 -34.8448
L34.1127 -35.1393
L34.4247 -35.4247
L34.7403 -35.6987
L35.0596 -35.9584
L35.3827 -36.2007
L35.7098 -36.4218
L36.0411 -36.6176
L36.3768 -36.7838
L36.7168 -36.9162
L37.0611 -37.0111
L37.4095 -37.0661
L37.7614 -37.0802
L38.1164 -37.0542
L38.4737 -36.9905
L38.8325 -36.8927
L39.1921 -36.7647
L39.5519 -36.6109
L39.9111 -36.4353
L40.2692 -36.2415
L40.6257 -36.0328
L40.9802 -35.8118
L41.3322 -35.5809
L41.6814 -35.3418
L42.0275 -35.0963
L42.3702 -34.8457
L42.7094 -34.5911
L43.0447 -34.3334
L43.3761 -34.0735
L43.7034 -33.812
L44.0265 -33.5496
L44.3451 -33.2866
L44.6594 -33.0237
L44.969 -32.7611
L45.2741 -32.4991
L45.5746 -32.2382
L45.8703 -31.9784
L46.1614 -31.72
L46.4477 -31.4632
L46.7294 -31.2082
L47.0064 -30.9551
L47.2786 -30.7039
L47.5463 -30.4549
L47.8093 -30.2081
L48.0677 -29.9635
L48.3216 -29.7212
L48.571 -29.4813
L48.816 -29.2438
L49.0567 -29.0086
L49.293 -28.7759
L49.5251 -28.5456
L49.7531 -28.3178
L49.977 -28.0923
L50.1969 -27.8693
L50.4128 -27.6487
L50.6249 -27.4304
L50.8333 -27.2144
L51.0379 -27.0008
L51.2389 -26.7894
L51.4364 -26.5803
L51.6304 -26.3734
L51.821 -26.1686
L52.0084 -25.9659
L52.1925 -25.7653
L52.3735 -25.5668
L52.5514 -25.3702
L52.7263 -25.1755
L52.8982 -24.9827
L53.0674 -24.7918
L53.2337 -24.6026
L53.3974 -24.4152
L53.5584 -24.2294
L53.7168 -24.0452
L53.8727 -23.8626
L54.0262 -23.6816
L54.1772 -23.502
L54.326 -23.3238
L54.4725 -23.1469
L54.6168 -22.9714
L54.7589 -22.7971
L54.8989 -22.6241
L55.0369 -22.4522
L55.1729 -22.2814
L55.3069 -22.1116
L55.439 -21.9429
L55.5693 -21.7751
L55.6977 -21.6082
L55.8244 -21.4421
L55.9494 -21.2769
L56.0727 -21.1124
L56.1943 -20.9486
L56.3142 -20.7854
L56.4326 -20.6229
L56.5495 -20.4609
L56.6648 -20.2994
L56.7786 -20.1384
L56.891 -19.9778
L57.0019 -19.8176
L57.1114 -19.6576
L57.2195 -19.498
L57.3262 -19.3385
L57.4316 -19.1792
L57.5356 -19.0201
L57.6382 -18.861
L57.7396 -18.702
L57.8397 -18.5429
L57.9384 -18.3837
L58.0359 -18.2245
L57.7868 -18.065
L57.4628 -17.6264
L57.1323 -17.249
L56.7953 -16.8773
L56.452 -16.5114
L56.1025 -16.1514
L55.7468 -15.7975
L55.3852 -15.4498
L55.0176 -15.1083
L54.6443 -14.7731
L54.2652 -14.4445
L53.8806 -14.1224
L53.4906 -13.8069
L53.0952 -13.4982
L52.6946 -13.1964
L52.289 -12.9015
L51.8783 -12.6137
L51.4629 -12.333
L51.0427 -12.0595
L50.6179 -11.7932
L50.1887 -11.5344
L49.7552 -11.283
L49.3175 -11.0391
L48.8757 -10.8029
L48.43 -10.5743
L47.9805 -10.3535
L47.5274 -10.1404
L47.0707 -9.93528
L46.6107 -9.73807
L46.1475 -9.54886
L45.6811 -9.3677
L45.2118 -9.19466
L44.7397 -9.02979
L44.265 -8.87312
L43.7877 -8.72473
L43.308 -8.58464
L42.8262 -8.4529
L42.3422 -8.32955
L41.8563 -8.21463
L41.3686 -8.10818
L40.8793 -8.01022
L40.3885 -7.92079
L39.8964 -7.83991
L39.4031 -7.76761
L38.9087 -7.70391
L38.4135 -7.64882
L37.9175 -7.60238
L37.421 -7.56458
L36.924 -7.53545
L36.4267 -7.51498
L35.9293 -7.50319
L35.4319 -7.50009
L34.9347 -7.50566
L34.4378 -7.51992
L33.9414 -7.54285
L33.4456 -7.57444
L32.9506 -7.6147
L32.4566 -7.6636
L31.9636 -7.72114
L31.4718 -7.78729
L30.9814 -7.86203
L30.4926 -7.94534
L30.0054 -8.0372
L29.52 -8.13758
L29.0366 -8.24644
L28.5554 -8.36376
L28.0764 -8.4895
L27.5998 -8.62361
L27.1258 -8.76607
L26.6545 -8.91682
L26.186 -9.07582
L25.7205 -9.24302
L25.2582 -9.41838
L24.7991 -9.60183
L24.3435 -9.79332
L23.8913 -9.99279
L23.4429 -10.2002
L22.9983 -10.4154
L22.5577 -10.6385
L22.1211 -10.8693
L21.6888 -11.1077
L21.2609 -11.3537
L20.8374 -11.6072
L20.4185 -11.8682
L20.0044 -12.1365
L19.5952 -12.412
L19.191 -12.6948
L18.7919 -12.9846
z
" id="C0_1_2187cdb824"/>
     <path d="
M14.0036 -53.9838
L14.1802 -53.9202
L14.3578 -53.8552
L14.5365 -53.7887
L14.7162 -53.7208
L14.8971 -53.6513
L15.0791 -53.5803
L15.2624 -53.5078
L15.4471 -53.4337
L15.6331 -53.3579
L15.8205 -53.2806
L16.0095 -53.2016
L16.1999 -53.121
L16.3921 -53.0386
L16.5859 -52.9545
L16.7814 -52.8686
L16.9788 -52.7809
L17.178 -52.6913
L17.3792 -52.5998
L17.5824 -52.5064
L17.7878 -52.411
L17.9952 -52.3136
L18.2049 -52.2141
L18.4169 -52.1125
L18.6312 -52.0087
L18.848 -51.9028
L19.0674 -51.7946
L19.2893 -51.684
L19.5138 -51.5711
L19.7411 -51.4558
L19.9713 -51.3381
L20.2043 -51.2178
L20.4402 -51.0949
L20.6792 -50.9694
L20.9213 -50.8412
L21.1666 -50.7102
L21.4151 -50.5765
L21.667 -50.4399
L21.9222 -50.3004
L22.1809 -50.1579
L22.4431 -50.0125
L22.7089 -49.8639
L22.9783 -49.7123
L23.2515 -49.5575
L23.5283 -49.3995
L23.809 -49.2383
L24.0936 -49.0738
L24.382 -48.906
L24.6743 -48.7349
L24.9706 -48.5605
L25.2708 -48.3827
L25.5751 -48.2016
L25.8833 -48.0172
L26.1955 -47.8295
L26.5117 -47.6385
L26.8318 -47.4443
L27.1559 -47.2471
L27.4838 -47.0467
L27.8156 -46.8435
L28.1511 -46.6375
L28.4903 -46.4289
L28.833 -46.2179
L29.1793 -46.0048
L29.5288 -45.7898
L29.8816 -45.5735
L30.2373 -45.3561
L30.5959 -45.1382
L30.9571 -44.9204
L31.3208 -44.7035
L31.6865 -44.4883
L32.0541 -44.276
L32.4232 -44.0677
L32.7934 -43.8651
L33.1645 -43.67
L33.5358 -43.4846
L33.907 -43.3117
L34.2774 -43.1543
L34.6465 -43.0162
L35.0136 -42.9013
L35.3781 -42.8139
L35.7393 -42.7582
L36.0968 -42.7378
L36.45 -42.755
L36.7987 -42.8107
L37.1429 -42.9042
L37.4826 -43.033
L37.8181 -43.1934
L38.1496 -43.3815
L38.4774 -43.5929
L38.8018 -43.8236
L39.1228 -44.0698
L39.4408 -44.3285
L39.7558 -44.5969
L40.0677 -44.8727
L40.3768 -45.154
L40.6828 -45.4392
L40.9859 -45.7271
L41.2859 -46.0164
L41.5829 -46.3064
L41.8767 -46.5962
L42.1674 -46.8851
L42.4548 -47.1726
L42.739 -47.4583
L43.0198 -47.7417
L43.2972 -48.0226
L43.5712 -48.3006
L43.8417 -48.5755
L44.1088 -48.8471
L44.3724 -49.1152
L44.6325 -49.3798
L44.8891 -49.6407
L45.1422 -49.8979
L45.3918 -50.1512
L45.6379 -50.4006
L45.8806 -50.6461
L46.1197 -50.8877
L46.3555 -51.1253
L46.5879 -51.3591
L46.817 -51.5889
L47.0427 -51.8148
L47.2652 -52.0369
L47.4844 -52.2552
L47.7005 -52.4697
L47.9135 -52.6805
L48.1234 -52.8876
L48.3304 -53.0911
L48.5343 -53.291
L48.7354 -53.4875
L48.9337 -53.6805
L49.1292 -53.8702
L49.322 -54.0565
L49.5121 -54.2397
L49.6997 -54.4196
L49.8848 -54.5965
L50.0674 -54.7703
L50.2476 -54.9412
L50.4255 -55.1092
L50.6011 -55.2744
L50.7746 -55.4368
L50.9459 -55.5965
L51.1151 -55.7536
L51.2823 -55.9081
L51.4476 -56.0602
L51.6109 -56.2098
L51.7725 -56.357
L51.9322 -56.5019
L52.0903 -56.6446
L52.2466 -56.7851
L52.4014 -56.9234
L52.5546 -57.0596
L52.7063 -57.1938
L52.8566 -57.326
L53.0054 -57.4563
L53.153 -57.5847
L53.2992 -57.7112
L53.4442 -57.836
L53.5881 -57.959
L53.454 -58.0803
L53.0582 -58.5301
L52.6571 -58.8313
L52.251 -59.1255
L51.8399 -59.4127
L51.424 -59.6928
L51.0034 -59.9656
L50.5782 -60.2312
L50.1486 -60.4893
L49.7146 -60.74
L49.2765 -60.9832
L48.8344 -61.2187
L48.3883 -61.4466
L47.9385 -61.6667
L47.485 -61.879
L47.0281 -62.0834
L46.5677 -62.2799
L46.1042 -62.4683
L45.6376 -62.6487
L45.168 -62.821
L44.6957 -62.9851
L44.2207 -63.141
L43.7432 -63.2887
L43.2633 -63.428
L42.7812 -63.5589
L42.2971 -63.6815
L41.811 -63.7956
L41.3232 -63.9013
L40.8337 -63.9985
L40.3428 -64.0871
L39.8506 -64.1672
L39.3571 -64.2387
L38.8627 -64.3016
L38.3674 -64.3559
L37.8714 -64.4015
L37.3747 -64.4385
L36.8777 -64.4668
L36.3804 -64.4865
L35.883 -64.4975
L35.3857 -64.4998
L34.8885 -64.4934
L34.3916 -64.4783
L33.8953 -64.4546
L33.3996 -64.4222
L32.9046 -64.3811
L32.4106 -64.3314
L31.9178 -64.2731
L31.4261 -64.2061
L30.9359 -64.1306
L30.4472 -64.0465
L29.9601 -63.9538
L29.475 -63.8527
L28.9918 -63.743
L28.5107 -63.6249
L28.032 -63.4984
L27.5556 -63.3635
L27.0818 -63.2203
L26.6108 -63.0687
L26.1426 -62.909
L25.6774 -62.741
L25.2153 -62.5649
L24.7566 -62.3807
L24.3012 -62.1885
L23.8495 -61.9882
L23.4014 -61.7801
L22.9572 -61.5641
L22.5169 -61.3404
L22.0807 -61.1089
L21.6488 -60.8697
L21.2213 -60.623
L20.7982 -60.3688
L20.3798 -60.1072
L19.9662 -59.8382
L19.5574 -59.562
L19.1536 -59.2785
L18.755 -58.988
L18.3616 -58.6905
L17.9736 -58.3861
L17.5911 -58.0749
L17.2142 -57.7569
L16.843 -57.4323
L16.4777 -57.1012
L16.1183 -56.7636
L15.7649 -56.4198
L15.4177 -56.0697
L15.0768 -55.7135
L14.7423 -55.3512
L14.4142 -54.9831
z
" id="C0_2_a651f9fb6a"/>
    </defs>
    <g clip-path="url(#p1bffca34e9)">
     <use style="fill:#ffffff;stroke:#000000;stroke-width:2.0;" x="0.0" xlink:href="#C0_0_a811fe30f3" y="72.0"/>
    </g>
    <g clip-path="url(#p1bffca34e9)">
     <use style="fill:#ff0000;stroke:#000000;stroke-width:2.0;" x="0.0" xlink:href="#C0_1_2187cdb824" y="72.0"/>
    </g>
    <g clip-path="url(#p1bffca34e9)">
     <use style="fill:#ff0000;stroke:#000000;stroke-width:2.0;" x="0.0" xlink:href="#C0_2_a651f9fb6a" y="72.0"/>
    </g>
   </g>
  </g>
 </g>
 <defs>
  <clipPath id="p1bffca34e9">
   <rect height="72.0" width="72.0" x="0.0" y="0.0"/>
  </clipPath>
 </defs>
</svg>
