<?xml version="1.0" encoding="utf-8" standalone="no"?>
<!DOCTYPE svg PUBLIC "-//W3C//DTD SVG 1.1//EN"
  "http://www.w3.org/Graphics/SVG/1.1/DTD/svg11.dtd">
<!-- Created with matplotlib (http://matplotlib.org/) -->
<svg height="72pt" version="1.1" viewBox="0 0 72 72" width="72pt" xmlns="http://www.w3.org/2000/svg" xmlns:xlink="http://www.w3.org/1999/xlink">
 <defs>
  <style type="text/css">
*{stroke-linecap:butt;stroke-linejoin:round;}
  </style>
 </defs>
 <g id="figure_1">
  <g id="patch_1">
   <path d="
M0 72
L72 72
L72 0
L0 0
z
" style="fill:none;"/>
  </g>
  <g id="axes_1">
   <g id="PatchCollection_1">
    <defs>
     <path d="
M36 -7.5
C43.5583 -7.5 50.808 -10.5029 56.1525 -15.8475
C61.4971 -21.192 64.5 -28.4417 64.5 -36
C64.5 -43.5583 61.4971 -50.808 56.1525 -56.1525
C50.808 -61.4971 43.5583 -64.5 36 -64.5
C28.4417 -64.5 21.192 -61.4971 15.8475 -56.1525
C10.5029 -50.808 7.5 -43.5583 7.5 -36
C7.5 -28.4417 10.5029 -21.192 15.8475 -15.8475
C21.192 -10.5029 28.4417 -7.5 36 -7.5
z
" id="C0_0_a811fe30f3"/>
     <path d="
M26.391 -9.19436
L26.461 -9.36078
L26.5309 -9.528
L26.6008 -9.69606
L26.6706 -9.86498
L26.7404 -10.0348
L26.8102 -10.2056
L26.8801 -10.3773
L27.0199 -10.55
L27.09 -10.7237
L27.1601 -10.8986
L27.2304 -11.0745
L27.3009 -11.2517
L27.3715 -11.43
L27.4423 -11.6096
L27.5134 -11.7904
L27.5846 -11.9727
L27.6562 -12.1563
L27.728 -12.3413
L27.8001 -12.5278
L27.8725 -12.7159
L27.9453 -12.9055
L28.0184 -13.0969
L28.0919 -13.2899
L28.1658 -13.4846
L28.2402 -13.6812
L28.315 -13.8797
L28.3902 -14.0801
L28.4659 -14.2824
L28.5421 -14.4869
L28.6189 -14.6935
L28.6962 -14.9022
L28.774 -15.1132
L28.8525 -15.3266
L28.9315 -15.5423
L29.0112 -15.7604
L29.0915 -15.9812
L29.1725 -16.2045
L29.2542 -16.4304
L29.3366 -16.6592
L29.4197 -16.8907
L29.5035 -17.1252
L29.5881 -17.3626
L29.6734 -17.603
L29.7596 -17.8466
L29.8465 -18.0934
L29.9343 -18.3435
L30.0228 -18.5969
L30.1123 -18.8537
L30.2025 -19.1141
L30.2936 -19.378
L30.3856 -19.6456
L30.4784 -19.9169
L30.5721 -20.192
L30.6667 -20.4709
L30.7621 -20.7538
L30.8584 -21.0407
L30.9555 -21.3317
L31.0534 -21.6267
L31.1521 -21.926
L31.2516 -22.2294
L31.3518 -22.5371
L31.4527 -22.8491
L31.5543 -23.1654
L31.6564 -23.4861
L31.7591 -23.8111
L31.8622 -24.1405
L31.9657 -24.4743
L32.0695 -24.8124
L32.1735 -25.1548
L32.2774 -25.5015
L32.3813 -25.8524
L32.4848 -26.2075
L32.5879 -26.5666
L32.6903 -26.9297
L32.7918 -27.2965
L32.8921 -27.667
L32.9908 -28.041
L33.0876 -28.4183
L33.1822 -28.7986
L33.274 -29.1816
L33.3625 -29.5671
L33.4471 -29.9546
L33.5272 -30.3438
L33.602 -30.7343
L33.6706 -31.1256
L33.732 -31.517
L33.7852 -31.908
L33.8289 -32.2978
L33.8617 -32.6858
L33.8823 -33.071
L33.8889 -33.4527
L33.8799 -33.8297
L33.8537 -34.2011
L33.8085 -34.5659
L33.7428 -34.9231
L33.6553 -35.2716
L33.5449 -35.6106
L33.4111 -35.9393
L33.2537 -36.2571
L33.073 -36.5637
L32.8698 -36.8589
L32.6453 -37.1428
L32.4011 -37.4157
L32.1389 -37.678
L31.8604 -37.9302
L31.5677 -38.173
L31.2624 -38.4068
L30.9464 -38.6324
L30.6214 -38.8503
L30.2887 -39.061
L29.9499 -39.2651
L29.6061 -39.463
L29.2584 -39.6551
L28.9078 -39.8417
L28.5551 -40.0231
L28.2013 -40.1997
L27.8469 -40.3716
L27.4926 -40.5391
L27.1388 -40.7023
L26.7861 -40.8614
L26.4349 -41.0166
L26.0856 -41.168
L25.7384 -41.3158
L25.3936 -41.4599
L25.0515 -41.6006
L24.7123 -41.7379
L24.3762 -41.8719
L24.0433 -42.0028
L23.7137 -42.1305
L23.3876 -42.2552
L23.0651 -42.3769
L22.7461 -42.4957
L22.4308 -42.6117
L22.1191 -42.7249
L21.8112 -42.8355
L21.5071 -42.9434
L21.2066 -43.0488
L20.9099 -43.1516
L20.6169 -43.252
L20.3276 -43.35
L20.042 -43.4457
L19.7599 -43.5391
L19.4815 -43.6303
L19.2066 -43.7193
L18.9352 -43.8062
L18.6672 -43.8911
L18.4026 -43.9739
L18.1413 -44.0548
L17.8833 -44.1338
L17.6285 -44.2108
L17.3768 -44.2861
L17.1282 -44.3596
L16.8826 -44.4313
L16.6399 -44.5013
L16.4 -44.5697
L16.163 -44.6365
L15.9286 -44.7017
L15.697 -44.7653
L15.4679 -44.8274
L15.2413 -44.888
L15.0172 -44.9472
L14.7954 -45.005
L14.576 -45.0614
L14.3588 -45.1164
L14.1438 -45.1701
L13.9308 -45.2225
L13.72 -45.2737
L13.5111 -45.3235
L13.3041 -45.3722
L13.099 -45.4196
L12.8957 -45.4658
L12.6941 -45.5109
L12.4942 -45.5548
L12.2959 -45.5976
L12.0991 -45.6392
L11.9038 -45.6797
L11.71 -45.7192
L11.5176 -45.7575
L11.3265 -45.7948
L11.1366 -45.831
L10.948 -45.8661
L10.7606 -45.9002
L10.5743 -45.9332
L10.389 -45.9652
L10.2048 -45.9961
L10.0215 -46.026
L9.83918 -46.0549
L9.65772 -46.0827
L9.47709 -46.1094
L9.20403 -46.1351
L9.0387 -45.707
L8.88158 -45.2379
L8.73272 -44.7659
L8.59217 -44.2913
L8.45997 -43.8142
L8.33616 -43.3346
L8.22077 -42.8529
L8.11385 -42.369
L8.01542 -41.8833
L7.92552 -41.3957
L7.84416 -40.9065
L7.77138 -40.4157
L7.70721 -39.9237
L7.65165 -39.4304
L7.60472 -38.9361
L7.56645 -38.4409
L7.53683 -37.945
L7.51589 -37.4485
L7.50362 -36.9515
L7.50003 -36.4542
L7.50513 -35.9568
L7.5189 -35.4594
L7.54135 -34.9622
L7.57247 -34.4653
L7.61225 -33.9689
L7.66067 -33.4731
L7.71773 -32.978
L7.7834 -32.4839
L7.85767 -31.9908
L7.94051 -31.499
L8.03189 -31.0085
L8.1318 -30.5196
L8.2402 -30.0323
L8.35705 -29.5468
L8.48232 -29.0633
L8.61597 -28.582
L8.75797 -28.1028
L8.90826 -27.6261
L9.06681 -27.152
L9.23356 -26.6805
L9.40846 -26.2119
L9.59146 -25.7462
L9.78251 -25.2837
L9.98154 -24.8244
L10.1885 -24.3686
L10.4033 -23.9163
L10.6259 -23.4676
L10.8563 -23.0228
L11.0943 -22.582
L11.3399 -22.1452
L11.593 -21.7126
L11.8535 -21.2844
L12.1214 -20.8607
L12.3966 -20.4416
L12.679 -20.0272
L12.9684 -19.6177
L13.2649 -19.2132
L13.5683 -18.8138
L13.8785 -18.4197
L14.1955 -18.0308
L14.5191 -17.6475
L14.8493 -17.2698
L15.1859 -16.8977
L15.5288 -16.5315
L15.878 -16.1712
L16.2333 -15.817
L16.5946 -15.4689
L16.9619 -15.127
L17.3349 -14.7915
L17.7136 -14.4625
L18.0979 -14.14
L18.4877 -13.8242
L18.8828 -13.5151
L19.2831 -13.2129
L19.6885 -12.9177
L20.0988 -12.6294
L20.514 -12.3483
L20.9339 -12.0744
L21.3584 -11.8078
L21.7874 -11.5485
L22.2207 -11.2967
L22.6582 -11.0524
L23.0997 -10.8158
L23.5452 -10.5867
L23.9945 -10.3655
L24.4475 -10.152
L24.9039 -9.94643
L25.3637 -9.74877
L25.8268 -9.55912
z
" id="C0_1_b81971ce76"/>
     <path d="
M62.5713 -25.8902
L62.4197 -25.9918
L62.2668 -26.0935
L62.1125 -26.1954
L61.9569 -26.2976
L61.7999 -26.4001
L61.6414 -26.5029
L61.4814 -26.6061
L61.3199 -26.7097
L61.1568 -26.8137
L60.9921 -26.9181
L60.8257 -27.023
L60.6575 -27.1284
L60.4876 -27.2344
L60.3159 -27.3409
L60.1423 -27.448
L59.9668 -27.5558
L59.7892 -27.6642
L59.6097 -27.7733
L59.428 -27.8832
L59.2442 -27.9938
L59.0581 -28.1053
L58.8698 -28.2176
L58.6791 -28.3307
L58.486 -28.4448
L58.2904 -28.5598
L58.0923 -28.6757
L57.8916 -28.7927
L57.6882 -28.9108
L57.4821 -29.0299
L57.2732 -29.1501
L57.0614 -29.2716
L56.8467 -29.3942
L56.6289 -29.518
L56.4081 -29.6431
L56.1841 -29.7695
L55.9569 -29.8973
L55.7264 -30.0265
L55.4925 -30.1571
L55.2552 -30.2891
L55.0145 -30.4227
L54.7701 -30.5578
L54.5222 -30.6944
L54.2706 -30.8327
L54.0152 -30.9727
L53.7561 -31.1143
L53.4931 -31.2577
L53.2262 -31.4028
L52.9555 -31.5498
L52.6808 -31.6985
L52.4021 -31.8492
L52.1194 -32.0018
L51.8327 -32.1563
L51.5421 -32.3128
L51.2474 -32.4714
L50.9488 -32.632
L50.6462 -32.7947
L50.3398 -32.9595
L50.0296 -33.1265
L49.7156 -33.2958
L49.3981 -33.4673
L49.0771 -33.641
L48.7527 -33.8172
L48.4253 -33.9957
L48.0949 -34.1767
L47.762 -34.3602
L47.4266 -34.5463
L47.0893 -34.7351
L46.7504 -34.9266
L46.4103 -35.121
L46.0696 -35.3185
L45.7289 -35.519
L45.3887 -35.7229
L45.05 -35.9304
L44.7135 -36.1415
L44.3802 -36.3568
L44.0512 -36.5764
L43.7277 -36.8007
L43.4111 -37.0303
L43.1028 -37.2654
L42.8046 -37.5068
L42.5181 -37.755
L42.2451 -38.0105
L41.9876 -38.2741
L41.7474 -38.5463
L41.5262 -38.8277
L41.3256 -39.1189
L41.1467 -39.42
L40.9903 -39.7313
L40.8568 -40.0527
L40.7461 -40.3839
L40.6576 -40.7245
L40.5903 -41.0736
L40.5427 -41.4306
L40.5135 -41.7944
L40.501 -42.1642
L40.5034 -42.5389
L40.5192 -42.9175
L40.5467 -43.2992
L40.5844 -43.6831
L40.6311 -44.0683
L40.6856 -44.4542
L40.7467 -44.84
L40.8134 -45.2252
L40.885 -45.6093
L40.9607 -45.9917
L41.0398 -46.372
L41.1218 -46.7499
L41.2061 -47.125
L41.2922 -47.497
L41.3799 -47.8657
L41.4687 -48.2309
L41.5584 -48.5923
L41.6487 -48.9497
L41.7393 -49.3032
L41.8301 -49.6524
L41.9209 -49.9974
L42.0115 -50.338
L42.1018 -50.6742
L42.1917 -51.0059
L42.2811 -51.3332
L42.3699 -51.656
L42.458 -51.9742
L42.5453 -52.2879
L42.6319 -52.5972
L42.7176 -52.9019
L42.8024 -53.2023
L42.8863 -53.4982
L42.9693 -53.7898
L43.0514 -54.0771
L43.1325 -54.3601
L43.2125 -54.6389
L43.2917 -54.9136
L43.3698 -55.1843
L43.4469 -55.4509
L43.5231 -55.7136
L43.5983 -55.9725
L43.6725 -56.2276
L43.7457 -56.4791
L43.818 -56.7268
L43.8894 -56.9711
L43.9598 -57.2119
L44.0294 -57.4493
L44.098 -57.6834
L44.1658 -57.9143
L44.2326 -58.142
L44.2987 -58.3667
L44.3639 -58.5883
L44.4283 -58.8071
L44.4919 -59.023
L44.5548 -59.2361
L44.6168 -59.4466
L44.6782 -59.6544
L44.7388 -59.8597
L44.7987 -60.0625
L44.8579 -60.2629
L44.9165 -60.4609
L44.9744 -60.6567
L45.0317 -60.8502
L45.0884 -61.0417
L45.1445 -61.231
L45.2 -61.4183
L45.2549 -61.6037
L45.3093 -61.7871
L45.3632 -61.9687
L45.4166 -62.1485
L45.4695 -62.3266
L45.5219 -62.503
L46.0933 -62.6778
L46.5569 -62.6529
L47.0173 -62.4727
L47.4744 -62.2844
L47.9279 -62.0881
L48.3778 -61.8839
L48.824 -61.6718
L49.2662 -61.4518
L49.7044 -61.2241
L50.1384 -60.9888
L50.5682 -60.7458
L50.9935 -60.4953
L51.4142 -60.2373
L51.8302 -59.9719
L52.2414 -59.6993
L52.6476 -59.4194
L53.0488 -59.1324
L53.4448 -58.8383
L53.8355 -58.5373
L54.2207 -58.2294
L54.6004 -57.9147
L54.9744 -57.5934
L55.3427 -57.2655
L55.705 -56.9311
L56.0614 -56.5903
L56.4116 -56.2433
L56.7556 -55.8901
L57.0933 -55.5308
L57.4246 -55.1656
L57.7494 -54.7946
L58.0675 -54.4178
L58.3789 -54.0354
L58.6835 -53.6475
L58.9811 -53.2543
L59.2718 -52.8558
L59.5554 -52.4521
L59.8318 -52.0435
L60.101 -51.6299
L60.3628 -51.2116
L60.6172 -50.7887
L60.864 -50.3613
L61.1034 -49.9294
L61.335 -49.4934
L61.559 -49.0532
L61.7751 -48.6091
L61.9835 -48.1611
L62.1839 -47.7094
L62.3763 -47.2541
L62.5607 -46.7955
L62.737 -46.3335
L62.9051 -45.8684
L63.0651 -45.4002
L63.2168 -44.9292
L63.3602 -44.4555
L63.4953 -43.9792
L63.622 -43.5005
L63.7403 -43.0195
L63.8502 -42.5364
L63.9515 -42.0513
L64.0444 -41.5643
L64.1287 -41.0756
L64.2044 -40.5854
L64.2716 -40.0938
L64.3301 -39.6009
L64.38 -39.107
L64.4213 -38.6121
L64.4539 -38.1164
L64.4779 -37.62
L64.4931 -37.1232
L64.4997 -36.626
L64.4976 -36.1286
L64.4868 -35.6312
L64.4674 -35.1339
L64.4393 -34.6369
L64.4025 -34.1403
L64.357 -33.6442
L64.303 -33.1489
L64.2403 -32.6544
L64.169 -32.161
L64.0891 -31.6687
L64.0006 -31.1778
L63.9037 -30.6883
L63.7982 -30.2004
L63.6843 -29.7143
L63.5619 -29.2301
L63.4311 -28.748
L63.292 -28.2681
L63.1446 -27.7905
L62.9889 -27.3155
L62.825 -26.843
z
" id="C0_2_e60f793c97"/>
    </defs>
    <g clip-path="url(#p1bffca34e9)">
     <use style="fill:#ffffff;stroke:#000000;stroke-width:2.0;" x="0.0" xlink:href="#C0_0_a811fe30f3" y="72.0"/>
    </g>
    <g clip-path="url(#p1bffca34e9)">
     <use style="fill:#ff0000;stroke:#000000;stroke-width:2.0;" x="0.0" xlink:href="#C0_1_b81971ce76" y="72.0"/>
    </g>
    <g clip-path="url(#p1bffca34e9)">
     <use style="fill:#ff0000;stroke:#000000;stroke-width:2.0;" x="0.0" xlink:href="#C0_2_e60f793c97" y="72.0"/>
    </g>
   </g>
  </g>
 </g>
 <defs>
  <clipPath id="p1bffca34e9">
   <rect height="72.0" width="72.0" x="0.0" y="0.0"/>
  </clipPath>
 </defs>
</svg>
