<?xml version="1.0" encoding="utf-8" standalone="no"?>
<!DOCTYPE svg PUBLIC "-//W3C//DTD SVG 1.1//EN"
  "http://www.w3.org/Graphics/SVG/1.1/DTD/svg11.dtd">
<!-- Created with matplotlib (http://matplotlib.org/) -->
<svg height="72pt" version="1.1" viewBox="0 0 72 72" width="72pt" xmlns="http://www.w3.org/2000/svg" xmlns:xlink="http://www.w3.org/1999/xlink">
 <defs>
  <style type="text/css">
*{stroke-linecap:butt;stroke-linejoin:round;}
  </style>
 </defs>
 <g id="figure_1">
  <g id="patch_1">
   <path d="
M0 72
L72 72
L72 0
L0 0
z
" style="fill:none;"/>
  </g>
  <g id="axes_1">
   <g id="PatchCollection_1">
    <defs>
     <path d="
M36 -7.5
C43.5583 -7.5 50.808 -10.5029 56.1525 -15.8475
C61.4971 -21.192 64.5 -28.4417 64.5 -36
C64.5 -43.5583 61.4971 -50.808 56.1525 -56.1525
C50.808 -61.4971 43.5583 -64.5 36 -64.5
C28.4417 -64.5 21.192 -61.4971 15.8475 -56.1525
C10.5029 -50.808 7.5 -43.5583 7.5 -36
C7.5 -28.4417 10.5029 -21.192 15.8475 -15.8475
C21.192 -10.5029 28.4417 -7.5 36 -7.5
z
" id="C0_0_a811fe30f3"/>
     <path d="
M10.3111 -47.9394
L10.4537 -47.8204
L10.5971 -47.7018
L10.7415 -47.5834
L10.8867 -47.4653
L11.0329 -47.3475
L11.18 -47.2297
L11.3281 -47.1121
L11.4772 -46.9947
L11.6273 -46.8772
L11.9308 -46.7598
L12.0842 -46.6424
L12.2388 -46.525
L12.3947 -46.4074
L12.5517 -46.2898
L12.7101 -46.172
L12.8698 -46.054
L13.0309 -45.9358
L13.1934 -45.8173
L13.3573 -45.6986
L13.5228 -45.5795
L13.6898 -45.46
L13.8585 -45.3402
L14.0288 -45.2199
L14.2008 -45.0991
L14.3746 -44.9778
L14.5502 -44.856
L14.7277 -44.7336
L14.9071 -44.6105
L15.0886 -44.4869
L15.2721 -44.3625
L15.4577 -44.2373
L15.6456 -44.1114
L15.8357 -43.9847
L16.0281 -43.8572
L16.2229 -43.7287
L16.4202 -43.5993
L16.62 -43.469
L16.8224 -43.3377
L17.0275 -43.2053
L17.2354 -43.0718
L17.4461 -42.9372
L17.6597 -42.8014
L17.8763 -42.6645
L18.096 -42.5263
L18.3189 -42.3868
L18.5449 -42.2459
L18.7743 -42.1037
L19.0071 -41.9601
L19.2434 -41.8151
L19.4833 -41.6686
L19.7268 -41.5205
L19.974 -41.3709
L20.2251 -41.2197
L20.48 -41.0668
L20.7389 -40.9123
L21.0019 -40.756
L21.269 -40.598
L21.5403 -40.4383
L21.8159 -40.2767
L22.0958 -40.1132
L22.3802 -39.9479
L22.669 -39.7807
L22.9623 -39.6116
L23.2601 -39.4405
L23.5626 -39.2675
L23.8697 -39.0924
L24.1815 -38.9153
L24.4979 -38.7362
L24.819 -38.5551
L25.1448 -38.3719
L25.4752 -38.1867
L25.8102 -37.9994
L26.1497 -37.8101
L26.4937 -37.6186
L26.842 -37.4252
L27.1946 -37.2297
L27.5512 -37.0321
L27.9118 -36.8325
L28.276 -36.6308
L28.6437 -36.4272
L29.0144 -36.2215
L29.3879 -36.0137
L29.7637 -35.8039
L30.1413 -35.5921
L30.5201 -35.3781
L30.8994 -35.162
L31.2784 -34.9436
L31.6559 -34.7227
L32.0309 -34.4993
L32.4017 -34.273
L32.7665 -34.0435
L33.1231 -33.8103
L33.4686 -33.5729
L33.7997 -33.3303
L34.1122 -33.0816
L34.4012 -32.8254
L34.6615 -32.5603
L34.8875 -32.2843
L35.074 -31.9958
L35.2175 -31.6929
L35.3164 -31.3748
L35.3719 -31.041
L35.3871 -30.6922
L35.3668 -30.33
L35.3163 -29.9564
L35.2406 -29.5736
L35.1444 -29.184
L35.0315 -28.7893
L34.9052 -28.3914
L34.7682 -27.9918
L34.6225 -27.5915
L34.4699 -27.1917
L34.3118 -26.7931
L34.1493 -26.3964
L33.9832 -26.0023
L33.8145 -25.6113
L33.6438 -25.2236
L33.4715 -24.8398
L33.2981 -24.46
L33.1241 -24.0847
L32.9497 -23.7139
L32.7752 -23.3478
L32.6009 -22.9867
L32.4269 -22.6306
L32.2536 -22.2797
L32.0809 -21.9339
L31.9091 -21.5935
L31.7383 -21.2584
L31.5685 -20.9286
L31.3999 -20.6042
L31.2325 -20.2852
L31.0664 -19.9715
L30.9017 -19.6631
L30.7383 -19.3601
L30.5763 -19.0622
L30.4157 -18.7696
L30.2566 -18.4821
L30.099 -18.1997
L29.9428 -17.9223
L29.7881 -17.6499
L29.6349 -17.3823
L29.4831 -17.1194
L29.3328 -16.8613
L29.1839 -16.6078
L29.0364 -16.3587
L28.8903 -16.1141
L28.7456 -15.8739
L28.6022 -15.6379
L28.4602 -15.406
L28.3195 -15.1782
L28.18 -14.9544
L28.0418 -14.7344
L27.9048 -14.5183
L27.7689 -14.3058
L27.6342 -14.0969
L27.5007 -13.8916
L27.3681 -13.6896
L27.2367 -13.4911
L27.1062 -13.2957
L26.9767 -13.1036
L26.8481 -12.9146
L26.7204 -12.7285
L26.5935 -12.5454
L26.4675 -12.3652
L26.3423 -12.1878
L26.2178 -12.013
L26.094 -11.8409
L25.9709 -11.6714
L25.8484 -11.5044
L25.7265 -11.3399
L25.6051 -11.1777
L25.4843 -11.0179
L25.3639 -10.8603
L25.244 -10.7049
L25.1244 -10.5517
L25.0053 -10.4005
L24.8864 -10.2514
L24.7678 -10.1043
L24.2574 -9.95915
L23.8059 -10.0315
L23.3582 -10.2404
L22.9144 -10.4572
L22.4745 -10.6817
L22.0387 -10.9139
L21.6072 -11.1538
L21.1801 -11.4012
L20.7575 -11.6562
L20.3396 -11.9185
L19.9264 -12.1882
L19.5181 -12.4652
L19.1148 -12.7493
L18.7167 -13.0405
L18.3238 -13.3386
L17.9364 -13.6437
L17.5544 -13.9556
L17.178 -14.2742
L16.8074 -14.5995
L16.4426 -14.9312
L16.0838 -15.2694
L15.731 -15.6139
L15.3845 -15.9645
L15.0442 -16.3213
L14.7102 -16.6841
L14.3828 -17.0528
L14.062 -17.4272
L13.7478 -17.8073
L13.4404 -18.193
L13.1399 -18.5841
L12.8464 -18.9804
L12.5599 -19.382
L12.2805 -19.7886
L12.0084 -20.2002
L11.7435 -20.6165
L11.4861 -21.0376
L11.2361 -21.4632
L10.9937 -21.8932
L10.7589 -22.3276
L10.5318 -22.7661
L10.3124 -23.2086
L10.1009 -23.655
L9.89723 -24.1052
L9.70154 -24.559
L9.51385 -25.0163
L9.33423 -25.477
L9.16274 -25.9408
L8.99942 -26.4077
L8.84432 -26.8776
L8.6975 -27.3502
L8.55899 -27.8254
L8.42884 -28.3032
L8.30709 -28.7833
L8.19378 -29.2655
L8.08893 -29.7499
L7.99259 -30.2361
L7.90478 -30.7241
L7.82553 -31.2137
L7.75485 -31.7048
L7.69279 -32.1971
L7.63934 -32.6907
L7.59454 -33.1852
L7.55838 -33.6806
L7.53089 -34.1767
L7.51208 -34.6733
L7.50194 -35.1704
L7.50048 -35.6677
L7.5077 -36.1651
L7.5236 -36.6625
L7.54818 -37.1596
L7.58142 -37.6564
L7.62332 -38.1527
L7.67386 -38.6484
L7.73303 -39.1432
L7.80081 -39.6371
L7.87718 -40.1299
L7.96212 -40.6214
L8.0556 -41.1115
L8.15759 -41.6
L8.26806 -42.0869
L8.38698 -42.5719
L8.51431 -43.0549
L8.65001 -43.5357
L8.79405 -44.0142
L8.94637 -44.4904
L9.10693 -44.9639
L9.27568 -45.4347
L9.45258 -45.9026
L9.63756 -46.3675
L9.83057 -46.8292
z
" id="C0_1_1775354784"/>
     <path d="
M47.3199 -62.1136
L47.2961 -61.9294
L47.2714 -61.745
L47.2457 -61.5602
L47.2192 -61.375
L47.1918 -61.1894
L47.1635 -61.0032
L47.1343 -60.8165
L47.1043 -60.6292
L47.0734 -60.4413
L47.0417 -60.2527
L47.009 -60.0634
L46.9756 -59.8733
L46.9412 -59.6823
L46.906 -59.4905
L46.8699 -59.2977
L46.833 -59.104
L46.7951 -58.9091
L46.7564 -58.7132
L46.7168 -58.5162
L46.6763 -58.3179
L46.6348 -58.1183
L46.5924 -57.9174
L46.5491 -57.7151
L46.5048 -57.5113
L46.4596 -57.3061
L46.4133 -57.0992
L46.3661 -56.8907
L46.3178 -56.6805
L46.2685 -56.4685
L46.2182 -56.2547
L46.1667 -56.0389
L46.1142 -55.8211
L46.0605 -55.6013
L46.0057 -55.3794
L45.9497 -55.1552
L45.8926 -54.9288
L45.8342 -54.7
L45.7745 -54.4688
L45.7136 -54.235
L45.6514 -53.9987
L45.5878 -53.7597
L45.5229 -53.5179
L45.4566 -53.2733
L45.3888 -53.0258
L45.3196 -52.7753
L45.2489 -52.5217
L45.1766 -52.2649
L45.1028 -52.0049
L45.0274 -51.7416
L44.9503 -51.4748
L44.8716 -51.2045
L44.7912 -50.9306
L44.709 -50.653
L44.625 -50.3717
L44.5392 -50.0865
L44.4515 -49.7975
L44.362 -49.5044
L44.2705 -49.2072
L44.177 -48.9059
L44.0816 -48.6004
L43.9841 -48.2906
L43.8845 -47.9765
L43.7829 -47.6579
L43.6792 -47.3349
L43.5733 -47.0074
L43.4653 -46.6754
L43.3551 -46.3387
L43.2428 -45.9975
L43.1282 -45.6516
L43.0115 -45.3011
L42.8927 -44.946
L42.7716 -44.5863
L42.6485 -44.222
L42.5233 -43.8531
L42.3961 -43.4797
L42.267 -43.1019
L42.1359 -42.7198
L42.0032 -42.3334
L41.8688 -41.9429
L41.7329 -41.5485
L41.5958 -41.1503
L41.4577 -40.7485
L41.3187 -40.3434
L41.1794 -39.9351
L41.0401 -39.5241
L40.9012 -39.1107
L40.7634 -38.6953
L40.6273 -38.2783
L40.494 -37.8603
L40.3644 -37.4418
L40.24 -37.0238
L40.1224 -36.6069
L40.0138 -36.1924
L39.9167 -35.7813
L39.8344 -35.3753
L39.7708 -34.976
L39.7307 -34.5855
L39.7192 -34.2061
L39.7416 -33.8401
L39.8029 -33.4895
L39.9065 -33.156
L40.0537 -32.8404
L40.2433 -32.5424
L40.4719 -32.2611
L40.7344 -31.9947
L41.0257 -31.7416
L41.3402 -31.4999
L41.6734 -31.268
L42.0211 -31.0448
L42.3799 -30.829
L42.7472 -30.6199
L43.1206 -30.4168
L43.4982 -30.2191
L43.8787 -30.0266
L44.2608 -29.8388
L44.6433 -29.6555
L45.0256 -29.4765
L45.4069 -29.3017
L45.7865 -29.1309
L46.164 -28.9641
L46.5389 -28.8011
L46.9109 -28.6418
L47.2797 -28.4862
L47.645 -28.3342
L48.0065 -28.1858
L48.3642 -28.0409
L48.7177 -27.8994
L49.0671 -27.7613
L49.4122 -27.6265
L49.7529 -27.495
L50.0892 -27.3667
L50.4209 -27.2416
L50.7482 -27.1195
L51.0709 -27.0005
L51.3892 -26.8845
L51.7029 -26.7715
L52.0121 -26.6613
L52.3168 -26.5539
L52.6171 -26.4493
L52.913 -26.3473
L53.2046 -26.248
L53.492 -26.1513
L53.7751 -26.0571
L54.0541 -25.9654
L54.329 -25.8761
L54.5999 -25.7891
L54.8668 -25.7044
L55.1299 -25.622
L55.3893 -25.5418
L55.6449 -25.4637
L55.897 -25.3877
L56.1455 -25.3137
L56.3906 -25.2418
L56.6323 -25.1718
L56.8708 -25.1037
L57.106 -25.0374
L57.3382 -24.973
L57.5673 -24.9103
L57.7935 -24.8494
L58.0168 -24.7902
L58.2374 -24.7326
L58.4552 -24.6767
L58.6705 -24.6223
L58.8832 -24.5695
L59.0934 -24.5182
L59.3012 -24.4685
L59.5068 -24.4202
L59.7101 -24.3733
L59.9112 -24.3279
L60.1102 -24.2839
L60.3072 -24.2412
L60.5023 -24.1999
L60.6954 -24.1599
L60.8868 -24.1212
L61.0763 -24.0838
L61.2642 -24.0478
L61.4505 -24.0129
L61.6352 -23.9794
L62.031 -23.9471
L62.2296 -24.3967
L62.4201 -24.8528
L62.6026 -25.3123
L62.777 -25.775
L62.9433 -26.2408
L63.1013 -26.7096
L63.2511 -27.1813
L63.3926 -27.6556
L63.5257 -28.1325
L63.6504 -28.6117
L63.7668 -29.0932
L63.8746 -29.5769
L63.974 -30.0624
L64.0649 -30.5498
L64.1472 -31.0389
L64.2209 -31.5294
L64.2861 -32.0213
L64.3426 -32.5145
L64.3905 -33.0087
L64.4297 -33.5038
L64.4603 -33.9996
L64.4822 -34.4961
L64.4954 -34.993
L64.5 -35.4903
L64.4959 -35.9876
L64.4831 -36.485
L64.4616 -36.9823
L64.4314 -37.4792
L64.3926 -37.9757
L64.3452 -38.4716
L64.2891 -38.9668
L64.2244 -39.461
L64.151 -39.9542
L64.0692 -40.4462
L63.9787 -40.9368
L63.8798 -41.4259
L63.7723 -41.9134
L63.6564 -42.3991
L63.5321 -42.8828
L63.3994 -43.3644
L63.2583 -43.8438
L63.1089 -44.3208
L62.9513 -44.7952
L62.7855 -45.267
L62.6115 -45.736
L62.4294 -46.202
L62.2392 -46.6648
L62.0411 -47.1245
L61.835 -47.5807
L61.621 -48.0334
L61.3993 -48.4825
L61.1698 -48.9277
L60.9326 -49.369
L60.6879 -49.8063
L60.4356 -50.2393
L60.1759 -50.668
L59.9088 -51.0922
L59.6345 -51.5119
L59.3529 -51.9268
L59.0642 -52.3368
L58.7685 -52.7419
L58.4659 -53.1419
L58.1564 -53.5366
L57.8402 -53.926
L57.5173 -54.31
L57.1879 -54.6884
L56.852 -55.061
L56.5098 -55.4279
L56.1613 -55.7889
L55.8066 -56.1438
L55.446 -56.4926
L55.0794 -56.8352
L54.707 -57.1714
L54.3289 -57.5011
L53.9452 -57.8243
L53.5561 -58.1409
L53.1616 -58.4507
L52.7619 -58.7537
L52.357 -59.0497
L51.9472 -59.3387
L51.5326 -59.6207
L51.1132 -59.8954
L50.6892 -60.1628
L50.2607 -60.4229
L49.8279 -60.6755
L49.3908 -60.9207
L48.9497 -61.1582
L48.5047 -61.3881
L48.0558 -61.6102
z
" id="C0_2_b688ae718a"/>
    </defs>
    <g clip-path="url(#p1bffca34e9)">
     <use style="fill:#ffffff;stroke:#000000;stroke-width:2.0;" x="0.0" xlink:href="#C0_0_a811fe30f3" y="72.0"/>
    </g>
    <g clip-path="url(#p1bffca34e9)">
     <use style="fill:#ff0000;stroke:#000000;stroke-width:2.0;" x="0.0" xlink:href="#C0_1_1775354784" y="72.0"/>
    </g>
    <g clip-path="url(#p1bffca34e9)">
     <use style="fill:#ff0000;stroke:#000000;stroke-width:2.0;" x="0.0" xlink:href="#C0_2_b688ae718a" y="72.0"/>
    </g>
   </g>
  </g>
 </g>
 <defs>
  <clipPath id="p1bffca34e9">
   <rect height="72.0" width="72.0" x="0.0" y="0.0"/>
  </clipPath>
 </defs>
</svg>
