<?xml version="1.0" encoding="utf-8" standalone="no"?>
<!DOCTYPE svg PUBLIC "-//W3C//DTD SVG 1.1//EN"
  "http://www.w3.org/Graphics/SVG/1.1/DTD/svg11.dtd">
<!-- Created with matplotlib (http://matplotlib.org/) -->
<svg height="72pt" version="1.1" viewBox="0 0 72 72" width="72pt" xmlns="http://www.w3.org/2000/svg" xmlns:xlink="http://www.w3.org/1999/xlink">
 <defs>
  <style type="text/css">
*{stroke-linecap:butt;stroke-linejoin:round;}
  </style>
 </defs>
 <g id="figure_1">
  <g id="patch_1">
   <path d="
M0 72
L72 72
L72 0
L0 0
z
" style="fill:none;"/>
  </g>
  <g id="axes_1">
   <g id="PatchCollection_1">
    <defs>
     <path d="
M36 -7.5
C43.5583 -7.5 50.808 -10.5029 56.1525 -15.8475
C61.4971 -21.192 64.5 -28.4417 64.5 -36
C64.5 -43.5583 61.4971 -50.808 56.1525 -56.1525
C50.808 -61.4971 43.5583 -64.5 36 -64.5
C28.4417 -64.5 21.192 -61.4971 15.8475 -56.1525
C10.5029 -50.808 7.5 -43.5583 7.5 -36
C7.5 -28.4417 10.5029 -21.192 15.8475 -15.8475
C21.192 -10.5029 28.4417 -7.5 36 -7.5
z
" id="C0_0_a811fe30f3"/>
     <path d="
M45.8798 -24.4542
L46.0701 -24.6457
L46.259 -24.8386
L46.4466 -25.0329
L46.6331 -25.2288
L46.8183 -25.4262
L47.0024 -25.6252
L47.1854 -25.8259
L47.3674 -26.0282
L47.5483 -26.2324
L47.7282 -26.4384
L47.9071 -26.6462
L48.0851 -26.856
L48.2621 -27.0678
L48.4383 -27.2817
L48.6135 -27.4977
L48.7879 -27.7159
L48.9615 -27.9363
L49.1342 -28.1592
L49.3061 -28.3844
L49.4772 -28.6121
L49.6475 -28.8423
L49.817 -29.0752
L49.9858 -29.3108
L50.1537 -29.5492
L50.3208 -29.7905
L50.4872 -30.0348
L50.6527 -30.282
L50.8174 -30.5325
L50.9813 -30.7861
L51.1444 -31.043
L51.3065 -31.3033
L51.4678 -31.5672
L51.6281 -31.8346
L51.7875 -32.1056
L51.9459 -32.3805
L52.1032 -32.6592
L52.2594 -32.9418
L52.4145 -33.2285
L52.5683 -33.5194
L52.7209 -33.8145
L52.8721 -34.1139
L53.0219 -34.4178
L53.1701 -34.7261
L53.3168 -35.0392
L53.4617 -35.3569
L53.6048 -35.6794
L53.746 -36.0068
L53.8851 -36.3392
L54.022 -36.6766
L54.1565 -37.0192
L54.2886 -37.3669
L54.418 -37.7199
L54.5446 -38.0782
L54.6681 -38.4419
L54.7884 -38.8109
L54.9053 -39.1854
L55.0186 -39.5654
L55.128 -39.9509
L55.2332 -40.3418
L55.334 -40.7382
L55.4302 -41.14
L55.5214 -41.5472
L55.6074 -41.9597
L55.6877 -42.3775
L55.7622 -42.8004
L55.8304 -43.2283
L55.8919 -43.661
L55.9463 -44.0984
L55.9933 -44.5402
L56.0324 -44.9861
L56.0631 -45.436
L56.0849 -45.8894
L56.0972 -46.3458
L56.0996 -46.805
L56.0914 -47.2663
L56.0719 -47.7291
L56.0403 -48.1926
L55.996 -48.6562
L55.9378 -49.1188
L55.865 -49.5794
L55.7762 -50.0365
L55.6703 -50.4888
L55.5459 -50.9345
L55.4015 -51.3717
L55.2354 -51.7979
L55.046 -52.2109
L54.8318 -52.6079
L54.5913 -52.9863
L54.3239 -53.3437
L54.0292 -53.678
L53.708 -53.9879
L53.3616 -54.2725
L52.992 -54.532
L52.6018 -54.7668
L52.1939 -54.9781
L51.7709 -55.1671
L51.3355 -55.3354
L50.8901 -55.4842
L50.4369 -55.6149
L49.9778 -55.7287
L49.5144 -55.8269
L49.048 -55.9102
L48.5799 -55.9798
L48.1111 -56.0364
L47.6426 -56.0807
L47.175 -56.1135
L46.7091 -56.1353
L46.2454 -56.1468
L45.7845 -56.1484
L45.3268 -56.1408
L44.8727 -56.1244
L44.4224 -56.0996
L43.9764 -56.0669
L43.5349 -56.0267
L43.098 -55.9793
L42.666 -55.9252
L42.239 -55.8648
L41.8171 -55.7982
L41.4005 -55.726
L40.9891 -55.6483
L40.5832 -55.5655
L40.1827 -55.4778
L39.7876 -55.3856
L39.398 -55.2891
L39.0139 -55.1884
L38.6352 -55.084
L38.2619 -54.9759
L37.894 -54.8643
L37.5315 -54.7496
L37.1742 -54.6318
L36.8222 -54.5111
L36.4753 -54.3877
L36.1336 -54.2617
L35.7968 -54.1333
L35.465 -54.0027
L35.1381 -53.8699
L34.8159 -53.735
L34.4985 -53.5982
L34.1856 -53.4596
L33.8772 -53.3193
L33.5732 -53.1773
L33.2735 -53.0338
L32.9781 -52.8887
L32.6867 -52.7423
L32.3994 -52.5945
L32.116 -52.4454
L31.8365 -52.295
L31.5607 -52.1435
L31.2886 -51.9907
L31.02 -51.8369
L30.7548 -51.682
L30.4931 -51.526
L30.2346 -51.3689
L29.9793 -51.2109
L29.7272 -51.0518
L29.478 -50.8918
L29.2318 -50.7308
L28.9884 -50.5688
L28.7478 -50.4058
L28.5099 -50.2419
L28.2747 -50.077
L28.0419 -49.9112
L27.8117 -49.7444
L27.5838 -49.5766
L27.3582 -49.4078
L27.1349 -49.238
L26.9138 -49.0671
L26.6948 -48.8952
L26.4778 -48.7223
L26.2628 -48.5483
L26.0498 -48.3731
L25.8386 -48.1968
L25.6292 -48.0194
L25.4216 -47.8408
L25.2157 -47.6609
L25.0114 -47.4798
L24.8087 -47.2973
L24.6076 -47.1136
L24.4079 -46.9284
L24.2097 -46.7419
L24.0129 -46.5539
L23.8175 -46.3644
L23.6234 -46.1733
L23.4305 -45.9807
L23.2389 -45.7864
L23.0485 -45.5904
L22.8593 -45.3926
L22.6711 -45.1931
L22.4841 -44.9917
L22.2982 -44.7884
L22.1133 -44.5831
L21.9295 -44.3757
L21.7466 -44.1663
L21.5647 -43.9547
L21.3838 -43.7409
L21.2038 -43.5247
L21.0247 -43.3062
L20.8466 -43.0853
L20.6693 -42.8618
L20.493 -42.6357
L20.3175 -42.407
L20.1429 -42.1755
L19.9692 -41.9412
L19.7964 -41.7039
L19.6245 -41.4637
L19.4535 -41.2203
L19.2835 -40.9738
L19.1144 -40.7241
L18.9462 -40.4709
L18.779 -40.2143
L18.6128 -39.9542
L18.4477 -39.6904
L18.2837 -39.4229
L18.1208 -39.1515
L17.9591 -38.8762
L17.7986 -38.5969
L17.6394 -38.3134
L17.4816 -38.0257
L17.3252 -37.7336
L17.1703 -37.4371
L17.0171 -37.136
L16.8655 -36.8303
L16.7157 -36.5198
L16.5677 -36.2044
L16.4219 -35.8841
L16.2781 -35.5588
L16.1366 -35.2283
L15.9976 -34.8925
L15.8611 -34.5514
L15.7273 -34.2049
L15.5965 -33.8529
L15.4688 -33.4954
L15.3444 -33.1322
L15.2235 -32.7633
L15.1063 -32.3886
L14.9931 -32.0082
L14.8841 -31.6219
L14.7797 -31.2297
L14.6799 -30.8317
L14.5853 -30.4279
L14.496 -30.0182
L14.4125 -29.6027
L14.3349 -29.1814
L14.2638 -28.7545
L14.1994 -28.322
L14.1422 -27.8841
L14.0926 -27.4408
L14.0509 -26.9925
L14.0178 -26.5393
L13.9935 -26.0814
L13.9788 -25.6193
L13.9739 -25.1531
L13.9797 -24.6834
L13.9965 -24.2106
L14.0251 -23.7353
L14.0661 -23.2581
L14.1202 -22.7797
L14.1883 -22.3011
L14.2712 -21.823
L14.3699 -21.3469
L14.4853 -20.8739
L14.6185 -20.4056
L14.771 -19.944
L14.9438 -19.491
L15.1384 -19.049
L15.3561 -18.6207
L15.5981 -18.2087
L15.8654 -17.816
L16.1583 -17.445
L16.4768 -17.0981
L16.82 -16.7766
L17.1863 -16.4816
L17.5736 -16.2129
L17.9792 -15.9702
L18.4006 -15.7522
L18.835 -15.5578
L19.28 -15.3854
L19.7333 -15.2335
L20.1929 -15.1009
L20.657 -14.9861
L21.1242 -14.888
L21.5932 -14.8056
L22.0628 -14.7378
L22.5321 -14.6837
L23.0004 -14.6426
L23.4669 -14.6137
L23.9309 -14.5963
L24.3921 -14.5898
L24.8498 -14.5936
L25.3038 -14.607
L25.7537 -14.6297
L26.1992 -14.6611
L26.64 -14.7007
L27.0759 -14.7481
L27.5068 -14.8029
L27.9325 -14.8646
L28.3529 -14.9328
L28.7679 -15.0073
L29.1773 -15.0876
L29.5813 -15.1734
L29.9796 -15.2645
L30.3723 -15.3604
L30.7594 -15.4609
L31.1409 -15.5658
L31.5168 -15.6747
L31.8871 -15.7875
L32.252 -15.9039
L32.6113 -16.0237
L32.9652 -16.1467
L33.3138 -16.2727
L33.6571 -16.4015
L33.9952 -16.533
L34.3282 -16.667
L34.6561 -16.8032
L34.9791 -16.9417
L35.2973 -17.0823
L35.6106 -17.2248
L35.9193 -17.3692
L36.2234 -17.5152
L36.523 -17.663
L36.8183 -17.8122
L37.1092 -17.9629
L37.396 -18.115
L37.6787 -18.2685
L37.9574 -18.4231
L38.2322 -18.579
L38.5032 -18.736
L38.7705 -18.8942
L39.0342 -19.0533
L39.2944 -19.2135
L39.5512 -19.3747
L39.8047 -19.5369
L40.055 -19.7
L40.3021 -19.864
L40.5462 -20.0288
L40.7873 -20.1946
L41.0255 -20.3613
L41.2609 -20.5288
L41.4936 -20.6972
L41.7237 -20.8665
L41.9512 -21.0366
L42.1763 -21.2076
L42.3989 -21.3795
L42.6192 -21.5523
L42.8372 -21.7259
L43.0531 -21.9005
L43.2668 -22.0761
L43.4785 -22.2525
L43.6881 -22.43
L43.8959 -22.6085
L44.1017 -22.7879
L44.3058 -22.9685
L44.5081 -23.1501
L44.7087 -23.3328
L44.9077 -23.5166
L45.1051 -23.7017
L45.301 -23.8879
L45.4953 -24.0754
z
" id="C0_1_13c22e59db"/>
    </defs>
    <g clip-path="url(#p1bffca34e9)">
     <use style="fill:#ff0000;stroke:#000000;stroke-width:2.0;" x="0.0" xlink:href="#C0_0_a811fe30f3" y="72.0"/>
    </g>
    <g clip-path="url(#p1bffca34e9)">
     <use style="fill:#ffffff;stroke:#000000;stroke-width:2.0;" x="0.0" xlink:href="#C0_1_13c22e59db" y="72.0"/>
    </g>
   </g>
  </g>
 </g>
 <defs>
  <clipPath id="p1bffca34e9">
   <rect height="72.0" width="72.0" x="0.0" y="0.0"/>
  </clipPath>
 </defs>
</svg>
