<?xml version="1.0" encoding="utf-8" standalone="no"?>
<!DOCTYPE svg PUBLIC "-//W3C//DTD SVG 1.1//EN"
  "http://www.w3.org/Graphics/SVG/1.1/DTD/svg11.dtd">
<!-- Created with matplotlib (http://matplotlib.org/) -->
<svg height="72pt" version="1.1" viewBox="0 0 72 72" width="72pt" xmlns="http://www.w3.org/2000/svg" xmlns:xlink="http://www.w3.org/1999/xlink">
 <defs>
  <style type="text/css">
*{stroke-linecap:butt;stroke-linejoin:round;}
  </style>
 </defs>
 <g id="figure_1">
  <g id="patch_1">
   <path d="
M0 72
L72 72
L72 0
L0 0
z
" style="fill:none;"/>
  </g>
  <g id="axes_1">
   <g id="PatchCollection_1">
    <defs>
     <path d="
M36 -7.5
C43.5583 -7.5 50.808 -10.5029 56.1525 -15.8475
C61.4971 -21.192 64.5 -28.4417 64.5 -36
C64.5 -43.5583 61.4971 -50.808 56.1525 -56.1525
C50.808 -61.4971 43.5583 -64.5 36 -64.5
C28.4417 -64.5 21.192 -61.4971 15.8475 -56.1525
C10.5029 -50.808 7.5 -43.5583 7.5 -36
C7.5 -28.4417 10.5029 -21.192 15.8475 -15.8475
C21.192 -10.5029 28.4417 -7.5 36 -7.5
z
" id="C0_0_a811fe30f3"/>
     <path d="
M64.263 -33.1552
L64.0463 -33.4639
L63.8269 -33.7647
L63.6053 -34.0579
L63.3815 -34.3435
L63.1559 -34.6219
L62.9287 -34.8933
L62.7002 -35.1579
L62.4705 -35.4158
L62.2397 -35.6673
L62.0081 -35.9126
L61.7758 -36.1519
L61.543 -36.3854
L61.3098 -36.6132
L61.0762 -36.8355
L60.8425 -37.0526
L60.6086 -37.2645
L60.3747 -37.4714
L60.1408 -37.6736
L59.9071 -37.8711
L59.6735 -38.0641
L59.4402 -38.2528
L59.2071 -38.4372
L58.9743 -38.6176
L58.7418 -38.7941
L58.5096 -38.9668
L58.2779 -39.1358
L58.0465 -39.3012
L57.8155 -39.4632
L57.5848 -39.6218
L57.3546 -39.7773
L57.1248 -39.9296
L56.8953 -40.0789
L56.6662 -40.2253
L56.4375 -40.3688
L56.2091 -40.5097
L55.981 -40.6478
L55.7532 -40.7835
L55.5257 -40.9166
L55.2984 -41.0474
L55.0713 -41.1758
L54.8444 -41.302
L54.6177 -41.426
L54.3911 -41.5479
L54.1645 -41.6677
L53.938 -41.7856
L53.7116 -41.9015
L53.485 -42.0156
L53.2584 -42.1278
L53.0317 -42.2383
L52.8048 -42.3471
L52.5777 -42.4543
L52.3503 -42.5598
L52.1226 -42.6638
L51.8946 -42.7662
L51.6662 -42.8672
L51.4373 -42.9667
L51.2079 -43.0649
L50.9779 -43.1617
L50.7473 -43.2571
L50.2841 -43.3513
L50.0513 -43.4442
L49.8177 -43.5359
L49.5832 -43.6263
L49.3477 -43.7156
L49.1112 -43.8038
L48.8736 -43.8908
L48.6348 -43.9767
L48.3949 -44.0615
L48.1536 -44.1453
L47.911 -44.228
L47.667 -44.3097
L47.4215 -44.3904
L47.1745 -44.47
L46.9258 -44.5487
L46.6755 -44.6264
L46.4233 -44.7031
L46.1694 -44.7789
L45.9135 -44.8537
L45.6556 -44.9276
L45.3956 -45.0005
L45.1335 -45.0724
L44.8692 -45.1434
L44.6026 -45.2135
L44.3335 -45.2826
L44.062 -45.3507
L43.788 -45.4178
L43.5113 -45.484
L43.2318 -45.5492
L42.9496 -45.6133
L42.6645 -45.6765
L42.3763 -45.7386
L42.0851 -45.7996
L41.7908 -45.8595
L41.4931 -45.9183
L41.1922 -45.976
L40.8878 -46.0325
L40.5799 -46.0878
L40.2684 -46.1418
L39.9531 -46.1946
L39.6342 -46.246
L39.3113 -46.2961
L38.9845 -46.3447
L38.6537 -46.3919
L38.3187 -46.4375
L37.9796 -46.4815
L37.6361 -46.5239
L37.2884 -46.5646
L36.9362 -46.6035
L36.5796 -46.6405
L36.2184 -46.6756
L35.8526 -46.7087
L35.4822 -46.7397
L35.1071 -46.7684
L34.7273 -46.7949
L34.3428 -46.819
L33.9535 -46.8406
L33.5594 -46.8597
L33.1605 -46.876
L32.7568 -46.8895
L32.3484 -46.9001
L31.9353 -46.9076
L31.5175 -46.912
L31.0951 -46.913
L30.6682 -46.9107
L30.2368 -46.9048
L29.8011 -46.8952
L29.3611 -46.8817
L28.9171 -46.8644
L28.4691 -46.8429
L28.0173 -46.8172
L27.562 -46.7872
L27.1034 -46.7527
L26.6416 -46.7137
L26.1769 -46.6699
L25.7097 -46.6212
L25.2401 -46.5677
L24.7685 -46.5091
L24.2953 -46.4454
L23.8208 -46.3765
L23.3453 -46.3024
L22.8694 -46.2231
L22.3935 -46.1385
L21.9182 -46.0489
L21.444 -45.9544
L20.972 -45.8553
L20.5035 -45.7525
L20.041 -45.6473
L19.5904 -45.5428
L19.1703 -45.4475
L18.8443 -45.3884
L18.6874 -45.4603
L18.6292 -45.7742
L18.6074 -46.2232
L18.604 -46.7132
L18.6136 -47.2168
L18.6342 -47.7253
L18.6646 -48.2351
L18.7045 -48.7443
L18.7533 -49.2519
L18.811 -49.757
L18.8773 -50.2589
L18.9521 -50.7572
L19.0352 -51.2514
L19.1263 -51.741
L19.2255 -52.2258
L19.3324 -52.7055
L19.447 -53.1797
L19.569 -53.6481
L19.6983 -54.1106
L19.8347 -54.567
L19.9779 -55.0169
L20.1279 -55.4604
L20.2844 -55.8972
L20.4473 -56.3272
L20.6162 -56.7502
L20.7911 -57.1663
L20.9718 -57.5754
L21.158 -57.9773
L21.3497 -58.3721
L21.5465 -58.7597
L21.7484 -59.1401
L21.9551 -59.5133
L22.1665 -59.8794
L22.3825 -60.2383
L22.6028 -60.59
L22.8274 -60.9347
L23.2702 -61.2724
L23.7171 -61.499
L24.1678 -61.7173
L24.6221 -61.9278
L25.0799 -62.1303
L25.541 -62.3249
L26.0053 -62.5115
L26.4726 -62.69
L26.9428 -62.8604
L27.4158 -63.0225
L27.8914 -63.1765
L28.3695 -63.3222
L28.8499 -63.4595
L29.3325 -63.5885
L29.8171 -63.7091
L30.3036 -63.8212
L30.7918 -63.9249
L31.2816 -64.0201
L31.7728 -64.1067
L32.2654 -64.1848
L32.759 -64.2542
L33.2537 -64.3151
L33.7492 -64.3674
L34.2454 -64.411
L34.7421 -64.4459
L35.2392 -64.4722
L35.7365 -64.4898
L36.2339 -64.4988
L36.7313 -64.499
L37.2284 -64.4906
L37.7252 -64.4735
L38.2214 -64.4477
L38.7169 -64.4133
L39.2116 -64.3702
L39.7054 -64.3185
L40.198 -64.2581
L40.6893 -64.1891
L41.1792 -64.1116
L41.6675 -64.0255
L42.1541 -63.9308
L42.6388 -63.8276
L43.1215 -63.716
L43.6021 -63.5959
L44.0803 -63.4674
L44.556 -63.3306
L45.0292 -63.1854
L45.4996 -63.0319
L45.9671 -62.8702
L46.4316 -62.7003
L46.8928 -62.5223
L47.3508 -62.3362
L47.8053 -62.1421
L48.2562 -61.94
L48.7034 -61.73
L49.1467 -61.5122
L49.5861 -61.2866
L50.0212 -61.0533
L50.4521 -60.8124
L50.8786 -60.5639
L51.3006 -60.308
L51.7179 -60.0446
L52.1304 -59.7739
L52.538 -59.496
L52.9406 -59.2109
L53.338 -58.9187
L53.7301 -58.6196
L54.1168 -58.3135
L54.498 -58.0007
L54.8736 -57.6812
L55.2434 -57.355
L55.6074 -57.0224
L55.9654 -56.6833
L56.3173 -56.338
L56.663 -55.9864
L57.0024 -55.6288
L57.3355 -55.2652
L57.662 -54.8957
L57.9819 -54.5205
L58.2951 -54.1396
L58.6016 -53.7532
L58.9011 -53.3614
L59.1937 -52.9643
L59.4792 -52.562
L59.7576 -52.1547
L60.0287 -51.7425
L60.2925 -51.3255
L60.5489 -50.9038
L60.7979 -50.4776
L61.0392 -50.0469
L61.273 -49.612
L61.499 -49.1729
L61.7173 -48.7298
L61.9278 -48.2829
L62.1303 -47.8322
L62.3249 -47.3779
L62.5115 -46.9201
L62.69 -46.459
L62.8604 -45.9947
L63.0225 -45.5274
L63.1765 -45.0572
L63.3222 -44.5842
L63.4595 -44.1086
L63.5885 -43.6305
L63.7091 -43.1501
L63.8212 -42.6675
L63.9249 -42.1829
L64.0201 -41.6964
L64.1067 -41.2082
L64.1848 -40.7184
L64.2542 -40.2272
L64.3151 -39.7346
L64.3674 -39.241
L64.411 -38.7463
L64.4459 -38.2508
L64.4722 -37.7546
L64.4898 -37.2579
L64.4988 -36.7608
L64.499 -36.2635
L64.4906 -35.7661
L64.4735 -35.2687
L64.4477 -34.7716
L64.4133 -34.2748
z
" id="C0_1_c5fe3ed2e1"/>
     <path d="
M48.7728 -10.7355
L48.3787 -10.7514
L47.9911 -10.7738
L47.6097 -10.8023
L47.2344 -10.8366
L46.8652 -10.8764
L46.502 -10.9214
L46.1445 -10.9714
L45.7927 -11.026
L45.4464 -11.085
L45.1056 -11.1482
L44.77 -11.2155
L44.4397 -11.2865
L44.1143 -11.3611
L43.7939 -11.4391
L43.4782 -11.5204
L43.1672 -11.6048
L42.8607 -11.6921
L42.5587 -11.7823
L42.2609 -11.8752
L41.9672 -11.9706
L41.6776 -12.0686
L41.3919 -12.1689
L41.11 -12.2715
L40.8318 -12.3763
L40.5572 -12.4832
L40.286 -12.5922
L40.0182 -12.7031
L39.7536 -12.816
L39.4922 -12.9308
L39.2338 -13.0474
L38.9783 -13.1657
L38.7257 -13.2858
L38.4758 -13.4076
L38.2286 -13.5311
L37.984 -13.6562
L37.7418 -13.7829
L37.502 -13.9113
L37.2645 -14.0412
L37.0292 -14.1727
L36.796 -14.3058
L36.5649 -14.4405
L36.3358 -14.5767
L36.1085 -14.7145
L35.8831 -14.8538
L35.6594 -14.9947
L35.4374 -15.1372
L35.217 -15.2814
L34.9982 -15.4271
L34.7808 -15.5744
L34.5648 -15.7234
L34.3501 -15.8741
L34.1368 -16.0265
L33.9246 -16.1806
L33.7136 -16.3364
L33.5037 -16.494
L33.2949 -16.6535
L33.087 -16.8148
L32.8801 -16.978
L32.6741 -17.1431
L32.4689 -17.3102
L32.2645 -17.4793
L32.0608 -17.6505
L31.8578 -17.8238
L31.6555 -17.9992
L31.4538 -18.1769
L31.2526 -18.3569
L31.0519 -18.5392
L30.8517 -18.7238
L30.6519 -18.911
L30.4526 -19.1006
L30.2536 -19.2928
L30.0549 -19.4877
L29.8565 -19.6853
L29.6584 -19.8858
L29.4605 -20.089
L29.2629 -20.2953
L29.0654 -20.5045
L28.8681 -20.7169
L28.6709 -20.9325
L28.4739 -21.1514
L28.2769 -21.3736
L28.08 -21.5993
L27.8832 -21.8285
L27.6865 -22.0614
L27.4898 -22.2981
L27.2932 -22.5386
L27.0967 -22.7831
L26.9001 -23.0316
L26.7037 -23.2843
L26.5073 -23.5412
L26.311 -23.8025
L26.1148 -24.0683
L25.9187 -24.3387
L25.7228 -24.6138
L25.527 -24.8937
L25.3314 -25.1785
L25.1361 -25.4684
L24.9411 -25.7634
L24.7464 -26.0636
L24.5521 -26.3693
L24.3583 -26.6804
L24.165 -26.9972
L23.9724 -27.3196
L23.7804 -27.6478
L23.5892 -27.9819
L23.3989 -28.322
L23.2096 -28.6682
L23.0213 -29.0205
L22.8343 -29.3791
L22.6487 -29.7441
L22.4645 -30.1154
L22.282 -30.4931
L22.1013 -30.8773
L21.9225 -31.2681
L21.7459 -31.6654
L21.5716 -32.0692
L21.3998 -32.4796
L21.2307 -32.8966
L21.0645 -33.32
L20.9014 -33.75
L20.7417 -34.1863
L20.5855 -34.6289
L20.4332 -35.0778
L20.2849 -35.5327
L20.1408 -35.9936
L20.0013 -36.4603
L19.8666 -36.9325
L19.7369 -37.4102
L19.6124 -37.8929
L19.4934 -38.3806
L19.3801 -38.8728
L19.2727 -39.3692
L19.1714 -39.8695
L19.0763 -40.3731
L18.9877 -40.8797
L18.9055 -41.3886
L18.8296 -41.899
L18.7598 -42.4098
L18.6952 -42.919
L18.634 -43.4231
L18.5706 -43.9134
L18.4872 -44.3624
L18.3206 -44.6748
L17.9964 -44.7393
L17.5853 -44.6623
L17.1503 -44.5376
L16.7095 -44.3922
L16.2688 -44.2346
L15.8308 -44.0678
L15.3967 -43.8936
L14.9672 -43.7127
L14.5431 -43.5257
L14.1247 -43.3331
L13.7125 -43.135
L13.3066 -42.9318
L12.9075 -42.7236
L12.5153 -42.5107
L12.1303 -42.2933
L11.7525 -42.0715
L11.3823 -41.8455
L11.0196 -41.6154
L10.6647 -41.3816
L10.3175 -41.144
L9.97822 -40.9029
L9.64685 -40.6584
L9.32343 -40.4106
L9.00797 -40.1598
L8.70048 -39.906
L8.40096 -39.6493
L8.10938 -39.39
L7.62347 -39.128
L7.58154 -38.65
L7.54827 -38.1544
L7.52367 -37.6581
L7.50774 -37.1613
L7.50049 -36.6641
L7.50192 -36.1668
L7.51203 -35.6694
L7.53082 -35.1721
L7.55828 -34.675
L7.5944 -34.1783
L7.63918 -33.6822
L7.69259 -33.1869
L7.75463 -32.6923
L7.82527 -32.1988
L7.9045 -31.7064
L7.99228 -31.2154
L8.0886 -30.7257
L8.19341 -30.2377
L8.3067 -29.7515
L8.42842 -29.2672
L8.55854 -28.7849
L8.69702 -28.3048
L8.84382 -27.827
L8.99889 -27.3518
L9.16218 -26.8792
L9.33365 -26.4093
L9.51324 -25.9424
L9.7009 -25.4785
L9.89657 -25.0179
L10.1002 -24.5606
L10.3117 -24.1067
L10.531 -23.6565
L10.7581 -23.2101
L10.9929 -22.7675
L11.2353 -22.329
L11.4853 -21.8947
L11.7427 -21.4646
L12.0075 -21.039
L12.2796 -20.6179
L12.5589 -20.2015
L12.8454 -19.79
L13.1389 -19.3833
L13.4394 -18.9818
L13.7468 -18.5854
L14.0609 -18.1943
L14.3817 -17.8086
L14.7091 -17.4285
L15.043 -17.054
L15.3833 -16.6854
L15.7299 -16.3225
L16.0826 -15.9657
L16.4414 -15.615
L16.8062 -15.2705
L17.1768 -14.9323
L17.5531 -14.6006
L17.9351 -14.2753
L18.3225 -13.9567
L18.7154 -13.6448
L19.1135 -13.3396
L19.5167 -13.0414
L19.925 -12.7502
L20.3382 -12.4661
L20.7561 -12.1891
L21.1787 -11.9194
L21.6058 -11.657
L22.0373 -11.4021
L22.473 -11.1546
L22.9129 -10.9147
L23.3567 -10.6825
L23.8044 -10.4579
L24.2558 -10.2412
L24.7108 -10.0322
L25.1693 -9.83122
L25.631 -9.63819
L26.0959 -9.45318
L26.5638 -9.27626
L27.0346 -9.10748
L27.5081 -8.94689
L27.9842 -8.79454
L28.4627 -8.65048
L28.9435 -8.51475
L29.4265 -8.38739
L29.9115 -8.26844
L30.3983 -8.15795
L30.8869 -8.05593
L31.377 -7.96242
L31.8685 -7.87745
L32.3613 -7.80105
L32.8551 -7.73324
L33.35 -7.67404
L33.8456 -7.62347
L34.3419 -7.58154
L34.8387 -7.54827
L35.3359 -7.52367
L35.8332 -7.50774
L36.3306 -7.50049
L36.8279 -7.50192
L37.325 -7.51203
L37.8217 -7.53082
L38.3178 -7.55828
L38.8131 -7.5944
L39.3077 -7.63918
L39.8012 -7.69259
L40.2936 -7.75463
L40.7846 -7.82527
L41.2743 -7.9045
L41.7623 -7.99228
L42.2485 -8.0886
L42.7328 -8.19341
L43.2151 -8.3067
L43.6952 -8.42842
L44.173 -8.55854
L44.6482 -8.69702
L45.1208 -8.84382
L45.5907 -8.99889
L46.0576 -9.16218
L46.5215 -9.33365
L46.9821 -9.51324
L47.4394 -9.7009
L47.8933 -9.89657
L48.3435 -10.1002
z
" id="C0_2_21d7971ca7"/>
    </defs>
    <g clip-path="url(#p1bffca34e9)">
     <use style="fill:#ffffff;stroke:#000000;stroke-width:2.0;" x="0.0" xlink:href="#C0_0_a811fe30f3" y="72.0"/>
    </g>
    <g clip-path="url(#p1bffca34e9)">
     <use style="fill:#ff0000;stroke:#000000;stroke-width:2.0;" x="0.0" xlink:href="#C0_1_c5fe3ed2e1" y="72.0"/>
    </g>
    <g clip-path="url(#p1bffca34e9)">
     <use style="fill:#ff0000;stroke:#000000;stroke-width:2.0;" x="0.0" xlink:href="#C0_2_21d7971ca7" y="72.0"/>
    </g>
   </g>
  </g>
 </g>
 <defs>
  <clipPath id="p1bffca34e9">
   <rect height="72.0" width="72.0" x="0.0" y="0.0"/>
  </clipPath>
 </defs>
</svg>
