<?xml version="1.0" encoding="utf-8" standalone="no"?>
<!DOCTYPE svg PUBLIC "-//W3C//DTD SVG 1.1//EN"
  "http://www.w3.org/Graphics/SVG/1.1/DTD/svg11.dtd">
<!-- Created with matplotlib (http://matplotlib.org/) -->
<svg height="72pt" version="1.1" viewBox="0 0 72 72" width="72pt" xmlns="http://www.w3.org/2000/svg" xmlns:xlink="http://www.w3.org/1999/xlink">
 <defs>
  <style type="text/css">
*{stroke-linecap:butt;stroke-linejoin:round;}
  </style>
 </defs>
 <g id="figure_1">
  <g id="patch_1">
   <path d="
M0 72
L72 72
L72 0
L0 0
z
" style="fill:none;"/>
  </g>
  <g id="axes_1">
   <g id="PatchCollection_1">
    <defs>
     <path d="
M36 -7.5
C43.5583 -7.5 50.808 -10.5029 56.1525 -15.8475
C61.4971 -21.192 64.5 -28.4417 64.5 -36
C64.5 -43.5583 61.4971 -50.808 56.1525 -56.1525
C50.808 -61.4971 43.5583 -64.5 36 -64.5
C28.4417 -64.5 21.192 -61.4971 15.8475 -56.1525
C10.5029 -50.808 7.5 -43.5583 7.5 -36
C7.5 -28.4417 10.5029 -21.192 15.8475 -15.8475
C21.192 -10.5029 28.4417 -7.5 36 -7.5
z
" id="C0_0_a811fe30f3"/>
     <path d="
M16.746 -15.0984
L16.7044 -15.4423
L16.6672 -15.7846
L16.6344 -16.1251
L16.6059 -16.4636
L16.5815 -16.8001
L16.5613 -17.1344
L16.5451 -17.4665
L16.5329 -17.7962
L16.5244 -18.1235
L16.5197 -18.4484
L16.5186 -18.7708
L16.5211 -19.0906
L16.5269 -19.4079
L16.536 -19.7226
L16.5483 -20.0348
L16.5637 -20.3443
L16.582 -20.6514
L16.6033 -20.9558
L16.6274 -21.2577
L16.6541 -21.5572
L16.6835 -21.8541
L16.7154 -22.1486
L16.7498 -22.4407
L16.7865 -22.7304
L16.8255 -23.0177
L16.8668 -23.3028
L16.9102 -23.5856
L16.9557 -23.8663
L17.0033 -24.1447
L17.0528 -24.4211
L17.1043 -24.6954
L17.1576 -24.9678
L17.2127 -25.2382
L17.2697 -25.5067
L17.3284 -25.7734
L17.3888 -26.0384
L17.4508 -26.3016
L17.5145 -26.5632
L17.5798 -26.8232
L17.6467 -27.0817
L17.7151 -27.3386
L17.7851 -27.5942
L17.8566 -27.8484
L17.9296 -28.1013
L18.004 -28.353
L18.08 -28.6035
L18.1573 -28.8528
L18.2362 -29.1011
L18.3165 -29.3484
L18.3982 -29.5948
L18.4813 -29.8402
L18.5659 -30.0848
L18.6519 -30.3287
L18.7394 -30.5718
L18.8283 -30.8143
L18.9186 -31.0561
L19.0104 -31.2974
L19.1037 -31.5382
L19.2947 -31.7786
L19.3924 -32.0186
L19.4917 -32.2583
L19.5925 -32.4976
L19.6949 -32.7368
L19.7988 -32.9758
L19.9044 -33.2147
L20.0116 -33.4535
L20.1205 -33.6924
L20.231 -33.9312
L20.3433 -34.1702
L20.4573 -34.4093
L20.573 -34.6486
L20.6906 -34.8882
L20.81 -35.1281
L20.9313 -35.3683
L21.0545 -35.6089
L21.1797 -35.85
L21.3069 -36.0916
L21.4361 -36.3338
L21.5674 -36.5765
L21.7008 -36.8199
L21.8364 -37.0639
L21.9742 -37.3088
L22.1142 -37.5543
L22.2566 -37.8008
L22.4013 -38.048
L22.5485 -38.2962
L22.6981 -38.5454
L22.8503 -38.7955
L23.005 -39.0467
L23.1624 -39.2989
L23.3224 -39.5522
L23.4852 -39.8067
L23.6508 -40.0624
L23.8193 -40.3192
L23.9906 -40.5773
L24.165 -40.8367
L24.3423 -41.0973
L24.5228 -41.3592
L24.7063 -41.6225
L24.8931 -41.8871
L25.0831 -42.1531
L25.2764 -42.4204
L25.473 -42.6891
L25.673 -42.9592
L25.8764 -43.2307
L26.0833 -43.5036
L26.2937 -43.7778
L26.5076 -44.0534
L26.725 -44.3304
L26.946 -44.6087
L27.1706 -44.8883
L27.3987 -45.1692
L27.6303 -45.4513
L27.8655 -45.7346
L28.1041 -46.0191
L28.3462 -46.3047
L28.5917 -46.5914
L28.8404 -46.879
L29.0923 -47.1676
L29.3473 -47.457
L29.6051 -47.7472
L29.8657 -48.0382
L30.1288 -48.3297
L30.3942 -48.6218
L30.6615 -48.9143
L30.9305 -49.2071
L31.2008 -49.5002
L31.472 -49.7935
L31.7436 -50.0869
L32.015 -50.3802
L32.2856 -50.6735
L32.5548 -50.9665
L32.8217 -51.2594
L33.0855 -51.552
L33.3452 -51.8442
L33.5998 -52.1361
L33.848 -52.4276
L34.0886 -52.7188
L34.3201 -53.0097
L34.5411 -53.3003
L34.7498 -53.5908
L34.9448 -53.8813
L35.1241 -54.1718
L35.2861 -54.4625
L35.4292 -54.7535
L35.5518 -55.0449
L35.6524 -55.3368
L35.7299 -55.6294
L35.7835 -55.9225
L35.8126 -56.2161
L35.8169 -56.5101
L35.7967 -56.8042
L35.7522 -57.0981
L35.6843 -57.3916
L35.5938 -57.6841
L35.482 -57.9752
L35.35 -58.2644
L35.199 -58.5513
L35.0306 -58.8352
L34.8458 -59.1157
L34.6461 -59.3923
L34.4327 -59.6647
L34.2066 -59.9322
L33.9691 -60.1946
L33.721 -60.4516
L33.4633 -60.7027
L33.1969 -60.9477
L32.9225 -61.1863
L32.641 -61.4184
L32.3529 -61.6437
L32.0589 -61.8621
L31.7595 -62.0734
L31.4553 -62.2775
L31.1466 -62.4744
L30.834 -62.6638
L30.5179 -62.8459
L30.1985 -63.0206
L29.8763 -63.1877
L29.5514 -63.3474
L29.2243 -63.4996
L28.7334 -63.6444
L28.2535 -63.5581
L27.776 -63.427
L27.3011 -63.2877
L26.8287 -63.14
L26.3592 -62.984
L25.8926 -62.8199
L25.4291 -62.6475
L24.9688 -62.4671
L24.5118 -62.2785
L24.0584 -62.082
L23.6086 -61.8775
L23.1625 -61.6652
L22.7204 -61.445
L22.2823 -61.2171
L21.8484 -60.9815
L21.4188 -60.7383
L20.9937 -60.4875
L20.5731 -60.2293
L20.1572 -59.9638
L19.7462 -59.6909
L19.3401 -59.4108
L18.9391 -59.1235
L18.5432 -58.8293
L18.1527 -58.528
L17.7677 -58.2199
L17.3881 -57.9051
L17.0143 -57.5835
L16.6462 -57.2554
L16.2841 -56.9208
L15.9279 -56.5799
L15.5778 -56.2327
L15.234 -55.8793
L14.8965 -55.5198
L14.5654 -55.1544
L14.2409 -54.7832
L13.923 -54.4063
L13.6118 -54.0237
L13.3074 -53.6357
L13.0099 -53.2423
L12.7195 -52.8436
L12.4361 -52.4398
L12.1599 -52.031
L11.891 -51.6173
L11.6294 -51.1989
L11.3752 -50.7758
L11.1286 -50.3482
L10.8895 -49.9163
L10.6581 -49.4801
L10.4343 -49.0398
L10.2184 -48.5955
L10.0103 -48.1474
L9.81018 -47.6956
L9.618 -47.2403
L9.43385 -46.7815
L9.2578 -46.3194
L9.0899 -45.8542
L8.93019 -45.386
L8.77872 -44.9149
L8.63555 -44.4411
L8.50072 -43.9647
L8.37426 -43.4859
L8.25621 -43.0049
L8.14662 -42.5217
L8.04551 -42.0365
L7.95292 -41.5495
L7.86887 -41.0607
L7.79338 -40.5705
L7.72649 -40.0788
L7.66822 -39.5859
L7.61857 -39.0919
L7.57757 -38.597
L7.54523 -38.1013
L7.52155 -37.6049
L7.50655 -37.1081
L7.50023 -36.6109
L7.50259 -36.1135
L7.51363 -35.6161
L7.53334 -35.1188
L7.56173 -34.6218
L7.59878 -34.1252
L7.64448 -33.6292
L7.69882 -33.1339
L7.76178 -32.6394
L7.83335 -32.146
L7.91349 -31.6538
L8.00219 -31.1629
L8.09941 -30.6734
L8.20514 -30.1856
L8.31933 -29.6996
L8.44195 -29.2154
L8.57297 -28.7334
L8.71234 -28.2535
L8.86002 -27.776
L9.01597 -27.3011
L9.18014 -26.8287
L9.35248 -26.3592
L9.53294 -25.8926
L9.72146 -25.4291
L9.91799 -24.9688
L10.1225 -24.5118
L10.3348 -24.0584
L10.555 -23.6086
L10.7829 -23.1625
L11.0185 -22.7204
L11.2617 -22.2823
L11.5125 -21.8484
L11.7707 -21.4188
L12.0362 -20.9937
L12.3091 -20.5731
L12.5892 -20.1572
L12.8765 -19.7462
L13.1707 -19.3401
L13.472 -18.9391
L13.7801 -18.5432
L14.0949 -18.1527
L14.4165 -17.7677
L14.7446 -17.3881
L15.0792 -17.0143
L15.4201 -16.6462
L15.7673 -16.2841
L16.1207 -15.9279
z
" id="C0_1_4b352bcf5f"/>
     <path d="
M43.0175 -8.55998
L43.2362 -8.8377
L43.4497 -9.11608
L43.6579 -9.39495
L43.8609 -9.67418
L44.0588 -9.95362
L44.2515 -10.2332
L44.4392 -10.5127
L44.622 -10.792
L44.7998 -11.0712
L44.9729 -11.35
L45.1414 -11.6284
L45.3052 -11.9064
L45.4645 -12.1838
L45.6195 -12.4606
L45.7702 -12.7368
L45.9167 -13.0122
L46.0591 -13.287
L46.1976 -13.561
L46.3322 -13.8342
L46.463 -14.1066
L46.5901 -14.3783
L46.7137 -14.649
L46.8338 -14.919
L46.9505 -15.1881
L47.0639 -15.4565
L47.1741 -15.7239
L47.2811 -15.9906
L47.3851 -16.2565
L47.4862 -16.5216
L47.5844 -16.786
L47.6798 -17.0496
L47.7724 -17.3125
L47.8624 -17.5747
L47.9498 -17.8363
L48.0347 -18.0972
L48.1171 -18.3576
L48.197 -18.6174
L48.2747 -18.8766
L48.3501 -19.1354
L48.4232 -19.3937
L48.4941 -19.6516
L48.5629 -19.9092
L48.6296 -20.1664
L48.6943 -20.4234
L48.757 -20.6801
L48.8177 -20.9366
L48.8765 -21.193
L48.9334 -21.4493
L48.9885 -21.7055
L49.0417 -21.9617
L49.0931 -22.218
L49.1428 -22.4744
L49.1908 -22.731
L49.237 -22.9877
L49.2816 -23.2447
L49.3245 -23.5021
L49.3657 -23.7597
L49.4053 -24.0178
L49.4433 -24.2764
L49.4797 -24.5355
L49.5146 -24.7952
L49.5478 -25.0556
L49.5795 -25.3166
L49.6096 -25.5784
L49.6382 -25.841
L49.6652 -26.1045
L49.6907 -26.3689
L49.7147 -26.6343
L49.7371 -26.9007
L49.7579 -27.1683
L49.7772 -27.437
L49.795 -27.7069
L49.8111 -27.9782
L49.8257 -28.2508
L49.8388 -28.5248
L49.8502 -28.8003
L49.86 -29.0773
L49.8682 -29.356
L49.8748 -29.6363
L49.8797 -29.9183
L49.8829 -30.2021
L49.8845 -30.4877
L49.8843 -30.7753
L49.8823 -31.0649
L49.8786 -31.3564
L49.8731 -31.6501
L49.8658 -31.9459
L49.8565 -32.244
L49.8454 -32.5443
L49.8324 -32.8469
L49.8174 -33.1519
L49.8004 -33.4594
L49.7813 -33.7694
L49.7602 -34.0819
L49.737 -34.3969
L49.7116 -34.7147
L49.6839 -35.0351
L49.6541 -35.3582
L49.6219 -35.6842
L49.5875 -36.0129
L49.5506 -36.3444
L49.5113 -36.6788
L49.4696 -37.0161
L49.4253 -37.3562
L49.3785 -37.6993
L49.3291 -38.0453
L49.2771 -38.3942
L49.2225 -38.746
L49.1651 -39.1007
L49.1051 -39.4583
L49.0423 -39.8187
L48.9768 -40.1819
L48.9085 -40.5479
L48.8374 -40.9165
L48.7637 -41.2877
L48.6872 -41.6615
L48.608 -42.0376
L48.5262 -42.4161
L48.4418 -42.7967
L48.3549 -43.1794
L48.2657 -43.5639
L48.1743 -43.9502
L48.0807 -44.3379
L47.9854 -44.7269
L47.8883 -45.1169
L47.7899 -45.5077
L47.6905 -45.899
L47.5903 -46.2905
L47.49 -46.6818
L47.3899 -47.0726
L47.2907 -47.4625
L47.1929 -47.851
L47.0974 -48.2378
L47.0049 -48.6222
L46.9164 -49.0039
L46.833 -49.3822
L46.7559 -49.7566
L46.6861 -50.1264
L46.6253 -50.491
L46.5747 -50.8497
L46.5361 -51.2018
L46.5108 -51.5466
L46.5005 -51.8833
L46.5068 -52.2114
L46.5311 -52.5302
L46.5745 -52.839
L46.6382 -53.1373
L46.7229 -53.4246
L46.829 -53.7005
L46.9567 -53.9649
L47.1056 -54.2174
L47.2753 -54.458
L47.465 -54.6867
L47.6736 -54.9036
L47.8999 -55.1086
L48.1427 -55.3021
L48.4004 -55.4842
L48.6719 -55.6551
L48.9556 -55.815
L49.2504 -55.9641
L49.5549 -56.1026
L49.8679 -56.2308
L50.1884 -56.3488
L50.5153 -56.4569
L50.8477 -56.5552
L51.1847 -56.6439
L51.5256 -56.7232
L51.8696 -56.7933
L52.216 -56.8543
L52.5644 -56.9065
L52.9141 -56.9499
L53.2646 -56.9847
L53.6156 -57.0111
L53.9667 -57.0292
L54.3174 -57.0392
L54.6675 -57.0412
L55.4786 -57.0353
L55.8388 -56.8046
L56.1928 -56.4615
L56.5408 -56.1122
L56.8825 -55.7567
L57.2178 -55.3952
L57.5466 -55.0278
L57.8689 -54.6546
L58.1845 -54.2757
L58.4934 -53.8913
L58.7954 -53.5014
L59.0905 -53.1061
L59.3785 -52.7057
L59.6594 -52.3002
L59.9331 -51.8897
L60.1996 -51.4743
L60.4586 -51.0543
L60.7102 -50.6296
L60.9543 -50.2006
L61.1907 -49.7671
L61.4195 -49.3295
L61.6406 -48.8879
L61.8538 -48.4423
L62.0592 -47.9929
L62.2566 -47.5398
L62.4461 -47.0833
L62.6274 -46.6234
L62.8007 -46.1602
L62.9658 -45.6939
L63.1227 -45.2247
L63.2713 -44.7527
L63.4116 -44.278
L63.5436 -43.8008
L63.6672 -43.3212
L63.7823 -42.8394
L63.889 -42.3555
L63.9872 -41.8697
L64.0769 -41.382
L64.158 -40.8928
L64.2305 -40.402
L64.2945 -39.9099
L64.3498 -39.4166
L64.3965 -38.9223
L64.4345 -38.4271
L64.4639 -37.9311
L64.4846 -37.4346
L64.4966 -36.9376
L64.4999 -36.4403
L64.4946 -35.9429
L64.4806 -35.4456
L64.4579 -34.9483
L64.4265 -34.4515
L64.3865 -33.955
L64.3379 -33.4592
L64.2806 -32.9642
L64.2146 -32.4701
L64.1401 -31.9771
L64.0571 -31.4853
L63.9654 -30.9948
L63.8653 -30.5059
L63.7567 -30.0187
L63.6396 -29.5333
L63.5141 -29.0499
L63.3802 -28.5686
L63.2379 -28.0895
L63.0874 -27.6129
L62.9286 -27.1388
L62.7617 -26.6674
L62.5865 -26.1988
L62.4033 -25.7333
L62.212 -25.2708
L62.0128 -24.8117
L61.8056 -24.3559
L61.5906 -23.9037
L61.3677 -23.4552
L61.1372 -23.0105
L60.899 -22.5697
L60.6531 -22.1331
L60.3998 -21.7006
L60.1391 -21.2725
L59.871 -20.8489
L59.5956 -20.43
L59.3131 -20.0157
L59.0234 -19.6064
L58.7267 -19.202
L58.4231 -18.8027
L58.1127 -18.4087
L57.7955 -18.0201
L57.4717 -17.6369
L57.1414 -17.2593
L56.8046 -16.8874
L56.4615 -16.5214
L56.1122 -16.1612
L55.7567 -15.8072
L55.3952 -15.4592
L55.0278 -15.1175
L54.6546 -14.7822
L54.2757 -14.4534
L53.8913 -14.1311
L53.5014 -13.8155
L53.1061 -13.5066
L52.7057 -13.2046
L52.3002 -12.9095
L51.8897 -12.6215
L51.4743 -12.3406
L51.0543 -12.0669
L50.6296 -11.8004
L50.2006 -11.5414
L49.7671 -11.2898
L49.3295 -11.0457
L48.8879 -10.8093
L48.4423 -10.5805
L47.9929 -10.3594
L47.5398 -10.1462
L47.0833 -9.9408
L46.6234 -9.74337
L46.1602 -9.55394
L45.6939 -9.37256
L45.2247 -9.1993
L44.7527 -9.0342
L44.278 -8.87731
L43.8008 -8.72869
z
" id="C0_2_ba5ea66e7d"/>
    </defs>
    <g clip-path="url(#p1bffca34e9)">
     <use style="fill:#ffffff;stroke:#000000;stroke-width:2.0;" x="0.0" xlink:href="#C0_0_a811fe30f3" y="72.0"/>
    </g>
    <g clip-path="url(#p1bffca34e9)">
     <use style="fill:#ff0000;stroke:#000000;stroke-width:2.0;" x="0.0" xlink:href="#C0_1_4b352bcf5f" y="72.0"/>
    </g>
    <g clip-path="url(#p1bffca34e9)">
     <use style="fill:#ff0000;stroke:#000000;stroke-width:2.0;" x="0.0" xlink:href="#C0_2_ba5ea66e7d" y="72.0"/>
    </g>
   </g>
  </g>
 </g>
 <defs>
  <clipPath id="p1bffca34e9">
   <rect height="72.0" width="72.0" x="0.0" y="0.0"/>
  </clipPath>
 </defs>
</svg>
