<?xml version="1.0" encoding="utf-8" standalone="no"?>
<!DOCTYPE svg PUBLIC "-//W3C//DTD SVG 1.1//EN"
  "http://www.w3.org/Graphics/SVG/1.1/DTD/svg11.dtd">
<!-- Created with matplotlib (http://matplotlib.org/) -->
<svg height="72pt" version="1.1" viewBox="0 0 72 72" width="72pt" xmlns="http://www.w3.org/2000/svg" xmlns:xlink="http://www.w3.org/1999/xlink">
 <defs>
  <style type="text/css">
*{stroke-linecap:butt;stroke-linejoin:round;}
  </style>
 </defs>
 <g id="figure_1">
  <g id="patch_1">
   <path d="
M0 72
L72 72
L72 0
L0 0
z
" style="fill:none;"/>
  </g>
  <g id="axes_1">
   <g id="PatchCollection_1">
    <defs>
     <path d="
M36 -7.5
C43.5583 -7.5 50.808 -10.5029 56.1525 -15.8475
C61.4971 -21.192 64.5 -28.4417 64.5 -36
C64.5 -43.5583 61.4971 -50.808 56.1525 -56.1525
C50.808 -61.4971 43.5583 -64.5 36 -64.5
C28.4417 -64.5 21.192 -61.4971 15.8475 -56.1525
C10.5029 -50.808 7.5 -43.5583 7.5 -36
C7.5 -28.4417 10.5029 -21.192 15.8475 -15.8475
C21.192 -10.5029 28.4417 -7.5 36 -7.5
z
" id="C0_0_a811fe30f3"/>
     <path d="
M57.1354 -55.0748
L56.9898 -54.9201
L56.8448 -54.7646
L56.7003 -54.6084
L56.5563 -54.4516
L56.4127 -54.2942
L56.2696 -54.1362
L56.1268 -53.9777
L55.9844 -53.8187
L55.8423 -53.6592
L55.7005 -53.4994
L55.5589 -53.3392
L55.4177 -53.1785
L55.2766 -53.0176
L55.1357 -52.8562
L54.995 -52.6946
L54.8545 -52.5326
L54.714 -52.3703
L54.5737 -52.2077
L54.4334 -52.0447
L54.2932 -51.8814
L54.153 -51.7178
L54.0127 -51.5539
L53.8725 -51.3896
L53.7322 -51.225
L53.5918 -51.06
L53.4513 -50.8946
L53.3107 -50.7288
L53.17 -50.5626
L53.029 -50.396
L52.8879 -50.2289
L52.7465 -50.0614
L52.6048 -49.8934
L52.4629 -49.7249
L52.3206 -49.5559
L52.1781 -49.3863
L52.0351 -49.2161
L51.8918 -49.0453
L51.6038 -48.8739
L51.4592 -48.7018
L51.314 -48.5291
L51.1683 -48.3556
L51.022 -48.1814
L50.8752 -48.0063
L50.7277 -47.8305
L50.5796 -47.6539
L50.4308 -47.4763
L50.2814 -47.2979
L50.1312 -47.1185
L49.9802 -46.9382
L49.8285 -46.7568
L49.6759 -46.5744
L49.5225 -46.3908
L49.3683 -46.2062
L49.2131 -46.0204
L49.057 -45.8334
L48.9 -45.6452
L48.742 -45.4557
L48.5829 -45.2648
L48.4229 -45.0727
L48.2617 -44.8791
L48.0995 -44.6841
L47.9361 -44.4876
L47.7717 -44.2895
L47.606 -44.09
L47.4392 -43.8888
L47.2711 -43.6859
L47.1019 -43.4814
L46.9314 -43.2752
L46.7596 -43.0672
L46.5865 -42.8573
L46.4121 -42.6456
L46.2365 -42.4321
L46.0595 -42.2166
L45.8811 -41.9991
L45.7015 -41.7796
L45.5205 -41.558
L45.3381 -41.3343
L45.1545 -41.1085
L44.9695 -40.8806
L44.7832 -40.6504
L44.5956 -40.418
L44.4067 -40.1833
L44.2166 -39.9463
L44.0252 -39.707
L43.8327 -39.4653
L43.6391 -39.2212
L43.4444 -38.9748
L43.2487 -38.7258
L43.052 -38.4744
L42.8545 -38.2205
L42.6562 -37.9642
L42.4572 -37.7053
L42.2577 -37.4439
L42.0577 -37.18
L41.8574 -36.9136
L41.657 -36.6447
L41.4566 -36.3732
L41.2565 -36.0992
L41.0567 -35.8228
L40.8575 -35.5438
L40.6593 -35.2624
L40.4621 -34.9786
L40.2663 -34.6923
L40.0723 -34.4037
L39.8803 -34.1128
L39.6907 -33.8196
L39.5038 -33.5241
L39.3201 -33.2264
L39.14 -32.9267
L38.9639 -32.6248
L38.7923 -32.321
L38.6258 -32.0152
L38.4648 -31.7076
L38.3098 -31.3982
L38.1615 -31.0871
L38.0204 -30.7744
L37.8871 -30.4603
L37.7621 -30.1448
L37.6461 -29.828
L37.5396 -29.5101
L37.4432 -29.1911
L37.3574 -28.8713
L37.2827 -28.5507
L37.2195 -28.2296
L37.1683 -27.908
L37.1293 -27.5861
L37.1029 -27.2642
L37.0891 -26.9425
L37.0883 -26.621
L37.1003 -26.3
L37.1252 -25.9798
L37.1628 -25.6606
L37.213 -25.3426
L37.2755 -25.0259
L37.35 -24.7109
L37.4361 -24.3978
L37.5334 -24.0868
L37.6416 -23.7782
L37.76 -23.4721
L37.8883 -23.1688
L38.0259 -22.8684
L38.1722 -22.5712
L38.3269 -22.2774
L38.4893 -21.9872
L38.659 -21.7006
L38.8355 -21.418
L39.0183 -21.1393
L39.2069 -20.8647
L39.4009 -20.5945
L39.5999 -20.3285
L39.8035 -20.067
L40.0113 -19.8101
L40.2229 -19.5578
L40.438 -19.3101
L40.6563 -19.0671
L40.8774 -18.8289
L41.1012 -18.5955
L41.3272 -18.3669
L41.5554 -18.1432
L41.7854 -17.9242
L42.0171 -17.7101
L42.2502 -17.5008
L42.4846 -17.2963
L42.7201 -17.0966
L42.9565 -16.9016
L43.1938 -16.7114
L43.4317 -16.526
L43.6702 -16.3451
L43.9091 -16.1689
L44.1484 -15.9973
L44.3879 -15.8303
L44.6277 -15.6677
L44.8675 -15.5096
L45.1074 -15.3559
L45.3473 -15.2066
L45.5872 -15.0616
L45.8269 -14.9208
L46.0665 -14.7842
L46.306 -14.6518
L46.5453 -14.5235
L46.7843 -14.3993
L47.0232 -14.279
L47.2618 -14.1627
L47.5002 -14.0504
L47.7383 -13.9419
L47.9762 -13.8372
L48.2138 -13.7363
L48.4513 -13.6392
L48.6885 -13.5457
L48.9255 -13.456
L49.1623 -13.3698
L49.3989 -13.2873
L49.6354 -13.2083
L49.8717 -13.1329
L50.108 -13.061
L50.3442 -12.9926
L50.5803 -12.9277
L50.8164 -12.8662
L51.0525 -12.8082
L51.2887 -12.7536
L51.5249 -12.7025
L51.7613 -12.6547
L51.9979 -12.6104
L52.4789 -12.5695
L52.8822 -12.7471
L53.2803 -13.0383
L53.6733 -13.3364
L54.0608 -13.6414
L54.4428 -13.9533
L54.8192 -14.2718
L55.1899 -14.597
L55.5547 -14.9287
L55.9135 -15.2668
L56.2663 -15.6113
L56.613 -15.9619
L56.9533 -16.3187
L57.2873 -16.6814
L57.6148 -17.05
L57.9357 -17.4244
L58.2499 -17.8045
L58.5573 -18.1901
L58.8579 -18.5811
L59.1515 -18.9774
L59.438 -19.379
L59.7174 -19.7855
L59.9896 -20.1971
L60.2545 -20.6134
L60.512 -21.0344
L60.762 -21.46
L61.0045 -21.89
L61.2394 -22.3243
L61.4666 -22.7628
L61.686 -23.2053
L61.8976 -23.6517
L62.1013 -24.1018
L62.297 -24.5556
L62.4848 -25.0129
L62.6645 -25.4735
L62.836 -25.9374
L62.9994 -26.4042
L63.1545 -26.8741
L63.3014 -27.3467
L63.44 -27.8219
L63.5702 -28.2996
L63.692 -28.7797
L63.8054 -29.2619
L63.9103 -29.7463
L64.0067 -30.2325
L64.0946 -30.7205
L64.1739 -31.21
L64.2446 -31.7011
L64.3068 -32.1935
L64.3603 -32.687
L64.4052 -33.1815
L64.4414 -33.6769
L64.4689 -34.173
L64.4878 -34.6696
L64.498 -35.1667
L64.4995 -35.664
L64.4924 -36.1614
L64.4765 -36.6588
L64.452 -37.1559
L64.4189 -37.6527
L64.377 -38.149
L64.3265 -38.6447
L64.2674 -39.1395
L64.1997 -39.6334
L64.1234 -40.1262
L64.0385 -40.6177
L63.9451 -41.1078
L63.8432 -41.5964
L63.7328 -42.0833
L63.6139 -42.5683
L63.4867 -43.0513
L63.351 -43.5321
L63.2071 -44.0107
L63.0548 -44.4868
L62.8943 -44.9603
L62.7256 -45.4311
L62.5488 -45.8991
L62.3639 -46.364
L62.1709 -46.8258
L61.97 -47.2842
L61.7611 -47.7393
L61.5445 -48.1907
L61.32 -48.6384
L61.0878 -49.0823
L60.848 -49.5222
L60.6006 -49.958
L60.3458 -50.3895
L60.0835 -50.8167
L59.8138 -51.2393
L59.5369 -51.6573
L59.2529 -52.0705
L58.9617 -52.4789
L58.6636 -52.8822
L58.3586 -53.2803
L58.0467 -53.6733
L57.7282 -54.0608
z
" id="C0_1_6fbd575bad"/>
     <path d="
M19.8065 -59.4086
L19.7582 -59.1742
L19.7121 -58.9398
L19.6683 -58.7053
L19.6266 -58.4706
L19.5871 -58.2358
L19.5496 -58.0007
L19.5142 -57.7654
L19.4808 -57.5299
L19.4494 -57.294
L19.42 -57.0577
L19.3925 -56.821
L19.3668 -56.5839
L19.3431 -56.3464
L19.3212 -56.1082
L19.3011 -55.8696
L19.2829 -55.6303
L19.2664 -55.3903
L19.2517 -55.1497
L19.2388 -54.9083
L19.2276 -54.6661
L19.2182 -54.4231
L19.2104 -54.1792
L19.2044 -53.9343
L19.2002 -53.6885
L19.1976 -53.4417
L19.1967 -53.1937
L19.1975 -52.9447
L19.2001 -52.6945
L19.2043 -52.4431
L19.2102 -52.1904
L19.2178 -51.9363
L19.2271 -51.6809
L19.2381 -51.4241
L19.2509 -51.1659
L19.2653 -50.9061
L19.2815 -50.6447
L19.2994 -50.3818
L19.3191 -50.1171
L19.3405 -49.8508
L19.3636 -49.5827
L19.3886 -49.3128
L19.4153 -49.041
L19.4438 -48.7673
L19.4741 -48.4917
L19.5062 -48.214
L19.5402 -47.9344
L19.576 -47.6526
L19.6137 -47.3687
L19.6532 -47.0827
L19.6946 -46.7944
L19.7379 -46.5039
L19.783 -46.2111
L19.8301 -45.916
L19.8791 -45.6185
L19.93 -45.3187
L19.9828 -45.0164
L20.0376 -44.7118
L20.0942 -44.4046
L20.1528 -44.0951
L20.2132 -43.783
L20.2755 -43.4684
L20.3398 -43.1514
L20.4058 -42.8318
L20.4737 -42.5098
L20.5433 -42.1853
L20.6148 -41.8583
L20.6879 -41.5288
L20.7626 -41.197
L20.8389 -40.8627
L20.9167 -40.5261
L20.9959 -40.1872
L21.0765 -39.846
L21.1582 -39.5027
L21.241 -39.1572
L21.3248 -38.8097
L21.4093 -38.4603
L21.4944 -38.1089
L21.58 -37.7559
L21.6657 -37.4012
L21.7514 -37.045
L21.8368 -36.6874
L21.9217 -36.3285
L22.0057 -35.9686
L22.0885 -35.6078
L22.1698 -35.2462
L22.2491 -34.8841
L22.3261 -34.5215
L22.4004 -34.1588
L22.4715 -33.7962
L22.539 -33.4337
L22.6023 -33.0718
L22.661 -32.7105
L22.7145 -32.3501
L22.7623 -31.9909
L22.804 -31.633
L22.8389 -31.2768
L22.8667 -30.9224
L22.8868 -30.57
L22.8988 -30.22
L22.9023 -29.8724
L22.8969 -29.5276
L22.8824 -29.1856
L22.8585 -28.8468
L22.825 -28.5112
L22.7819 -28.179
L22.7291 -27.8504
L22.6667 -27.5255
L22.5947 -27.2044
L22.5135 -26.8873
L22.4232 -26.5742
L22.3241 -26.2652
L22.2166 -25.9604
L22.101 -25.6598
L21.9779 -25.3635
L21.8476 -25.0716
L21.7106 -24.784
L21.5674 -24.5008
L21.4185 -24.2221
L21.2642 -23.9478
L21.1052 -23.678
L20.9418 -23.4127
L20.7745 -23.1518
L20.6037 -22.8954
L20.4297 -22.6434
L20.2531 -22.396
L20.0742 -22.1529
L19.8932 -21.9143
L19.7106 -21.6801
L19.5265 -21.4502
L19.3414 -21.2248
L19.1553 -21.0036
L18.9687 -20.7868
L18.7817 -20.5742
L18.5944 -20.3659
L18.4072 -20.1617
L18.22 -19.9617
L18.0332 -19.7658
L17.8468 -19.5739
L17.6609 -19.3861
L17.4758 -19.2022
L17.2913 -19.0223
L17.1077 -18.8462
L16.925 -18.6739
L16.7433 -18.5054
L16.5627 -18.3406
L16.3831 -18.1795
L16.2047 -18.0219
L16.0274 -17.8679
L15.8513 -17.7175
L15.6764 -17.5704
L15.5027 -17.4268
L15.3303 -17.2865
L15.1591 -17.1496
L14.5232 -17.0158
L14.1995 -17.2651
L13.8824 -17.6428
L13.5721 -18.0261
L13.2686 -18.4148
L12.972 -18.8089
L12.6825 -19.2082
L12.4 -19.6127
L12.1248 -20.0221
L11.8568 -20.4364
L11.5962 -20.8555
L11.343 -21.2792
L11.0973 -21.7073
L10.8592 -22.1398
L10.6287 -22.5765
L10.406 -23.0173
L10.1911 -23.4621
L9.98405 -23.9107
L9.78492 -24.363
L9.59378 -24.8188
L9.41067 -25.278
L9.23567 -25.7405
L9.06882 -26.2061
L8.91017 -26.6747
L8.75978 -27.1461
L8.61768 -27.6203
L8.48392 -28.0969
L8.35855 -28.576
L8.24159 -29.0574
L8.13309 -29.5408
L8.03308 -30.0263
L7.94159 -30.5135
L7.85864 -31.0025
L7.78427 -31.4929
L7.71849 -31.9847
L7.66132 -32.4778
L7.61279 -32.9719
L7.57291 -33.4669
L7.54168 -33.9627
L7.51913 -34.4592
L7.50524 -34.9561
L7.50004 -35.4533
L7.50352 -35.9507
L7.51568 -36.4481
L7.53652 -36.9453
L7.56603 -37.4423
L7.60419 -37.9389
L7.65101 -38.4348
L7.70647 -38.93
L7.77054 -39.4243
L7.84321 -39.9176
L7.92446 -40.4097
L8.01426 -40.9004
L8.11258 -41.3896
L8.2194 -41.8772
L8.33468 -42.363
L8.45839 -42.8469
L8.59049 -43.3287
L8.73093 -43.8082
L8.87969 -44.2854
L9.0367 -44.7601
L9.20193 -45.232
L9.37532 -45.7012
L9.55682 -46.1674
L9.74638 -46.6305
L9.94393 -47.0904
L10.1494 -47.5469
L10.3628 -47.9999
L10.584 -48.4492
L10.8129 -48.8948
L11.0495 -49.3364
L11.2937 -49.7739
L11.5454 -50.2073
L11.8045 -50.6363
L12.0711 -51.0608
L12.3449 -51.4808
L12.6259 -51.8961
L12.9141 -52.3065
L13.2092 -52.712
L13.5114 -53.1123
L13.8203 -53.5075
L14.1361 -53.8973
L14.4585 -54.2816
L14.7874 -54.6604
L15.1228 -55.0335
L15.4646 -55.4009
L15.8126 -55.7623
L16.1668 -56.1176
L16.527 -56.4669
L16.8932 -56.8099
L17.2651 -57.1466
L17.6428 -57.4768
L18.0261 -57.8005
L18.4148 -58.1176
L18.8089 -58.4279
L19.2082 -58.7314
z
" id="C0_2_595c3fa975"/>
    </defs>
    <g clip-path="url(#p1bffca34e9)">
     <use style="fill:#ffffff;stroke:#000000;stroke-width:2.0;" x="0.0" xlink:href="#C0_0_a811fe30f3" y="72.0"/>
    </g>
    <g clip-path="url(#p1bffca34e9)">
     <use style="fill:#ff0000;stroke:#000000;stroke-width:2.0;" x="0.0" xlink:href="#C0_1_6fbd575bad" y="72.0"/>
    </g>
    <g clip-path="url(#p1bffca34e9)">
     <use style="fill:#ff0000;stroke:#000000;stroke-width:2.0;" x="0.0" xlink:href="#C0_2_595c3fa975" y="72.0"/>
    </g>
   </g>
  </g>
 </g>
 <defs>
  <clipPath id="p1bffca34e9">
   <rect height="72.0" width="72.0" x="0.0" y="0.0"/>
  </clipPath>
 </defs>
</svg>
