<?xml version="1.0" encoding="utf-8" standalone="no"?>
<!DOCTYPE svg PUBLIC "-//W3C//DTD SVG 1.1//EN"
  "http://www.w3.org/Graphics/SVG/1.1/DTD/svg11.dtd">
<!-- Created with matplotlib (http://matplotlib.org/) -->
<svg height="72pt" version="1.1" viewBox="0 0 72 72" width="72pt" xmlns="http://www.w3.org/2000/svg" xmlns:xlink="http://www.w3.org/1999/xlink">
 <defs>
  <style type="text/css">
*{stroke-linecap:butt;stroke-linejoin:round;}
  </style>
 </defs>
 <g id="figure_1">
  <g id="patch_1">
   <path d="
M0 72
L72 72
L72 0
L0 0
z
" style="fill:none;"/>
  </g>
  <g id="axes_1">
   <g id="PatchCollection_1">
    <defs>
     <path d="
M36 -7.5
C43.5583 -7.5 50.808 -10.5029 56.1525 -15.8475
C61.4971 -21.192 64.5 -28.4417 64.5 -36
C64.5 -43.5583 61.4971 -50.808 56.1525 -56.1525
C50.808 -61.4971 43.5583 -64.5 36 -64.5
C28.4417 -64.5 21.192 -61.4971 15.8475 -56.1525
C10.5029 -50.808 7.5 -43.5583 7.5 -36
C7.5 -28.4417 10.5029 -21.192 15.8475 -15.8475
C21.192 -10.5029 28.4417 -7.5 36 -7.5
z
" id="C0_0_a811fe30f3"/>
     <path d="
M38.2526 -64.3108
L38.3157 -64.1173
L38.3766 -63.9232
L38.4354 -63.7286
L38.4922 -63.5334
L38.5469 -63.3377
L38.5997 -63.1413
L38.6507 -62.9444
L38.6999 -62.7468
L38.7473 -62.5486
L38.7931 -62.3498
L38.8371 -62.1502
L38.8796 -61.95
L38.9205 -61.749
L38.9598 -61.5473
L38.9977 -61.3448
L39.0341 -61.1416
L39.0691 -60.9375
L39.1027 -60.7325
L39.1349 -60.5267
L39.1954 -60.3199
L39.2236 -60.1122
L39.2506 -59.9035
L39.2764 -59.6938
L39.3009 -59.4831
L39.3242 -59.2713
L39.3462 -59.0583
L39.3671 -58.8442
L39.3868 -58.6289
L39.4053 -58.4123
L39.4227 -58.1945
L39.4389 -57.9754
L39.4539 -57.7549
L39.4678 -57.533
L39.4805 -57.3097
L39.4921 -57.0848
L39.5025 -56.8585
L39.5118 -56.6306
L39.5199 -56.4011
L39.5268 -56.1699
L39.5326 -55.9371
L39.5372 -55.7025
L39.5406 -55.4661
L39.5428 -55.2279
L39.5438 -54.9878
L39.5435 -54.7458
L39.542 -54.5019
L39.5393 -54.2559
L39.5353 -54.0079
L39.5299 -53.7578
L39.5233 -53.5056
L39.5153 -53.2513
L39.5059 -52.9947
L39.4951 -52.7359
L39.4829 -52.4748
L39.4692 -52.2113
L39.454 -51.9456
L39.4373 -51.6775
L39.419 -51.4069
L39.3991 -51.1339
L39.3775 -50.8585
L39.3542 -50.5806
L39.3292 -50.3002
L39.3023 -50.0174
L39.2736 -49.732
L39.243 -49.4441
L39.2104 -49.1537
L39.1758 -48.8607
L39.1391 -48.5653
L39.1001 -48.2675
L39.059 -47.9671
L39.0155 -47.6644
L38.9696 -47.3593
L38.9212 -47.0519
L38.8703 -46.7423
L38.8166 -46.4304
L38.7602 -46.1165
L38.7009 -45.8005
L38.6386 -45.4827
L38.5732 -45.1631
L38.5045 -44.8418
L38.4325 -44.519
L38.357 -44.1949
L38.2778 -43.8696
L38.1948 -43.5434
L38.1079 -43.2164
L38.0169 -42.8889
L37.9215 -42.5611
L37.8217 -42.2333
L37.7173 -41.9059
L37.608 -41.5791
L37.4936 -41.2532
L37.3739 -40.9286
L37.2488 -40.6057
L37.1179 -40.285
L36.9811 -39.9667
L36.8381 -39.6513
L36.6888 -39.3393
L36.5328 -39.0312
L36.3699 -38.7274
L36.2 -38.4284
L36.0228 -38.1347
L35.8382 -37.8468
L35.646 -37.5652
L35.446 -37.2903
L35.2381 -37.0225
L35.0223 -36.7624
L34.7986 -36.5102
L34.5668 -36.2665
L34.3271 -36.0314
L34.0795 -35.8052
L33.8242 -35.5883
L33.5614 -35.3807
L33.2912 -35.1826
L33.014 -34.9941
L32.7301 -34.8151
L32.4397 -34.6457
L32.1433 -34.4858
L31.8413 -34.3351
L31.5341 -34.1937
L31.2221 -34.0613
L30.9057 -33.9376
L30.5854 -33.8225
L30.2617 -33.7156
L29.9349 -33.6167
L29.6056 -33.5255
L29.2741 -33.4418
L28.9408 -33.3651
L28.6062 -33.2953
L28.2706 -33.232
L27.9344 -33.175
L27.5978 -33.1239
L27.2613 -33.0786
L26.9252 -33.0388
L26.5896 -33.0041
L26.2549 -32.9744
L25.9213 -32.9494
L25.589 -32.929
L25.2583 -32.9129
L24.9292 -32.9009
L24.6021 -32.8928
L24.277 -32.8884
L23.9541 -32.8876
L23.6335 -32.8902
L23.3153 -32.8961
L22.9997 -32.9051
L22.6866 -32.9171
L22.3762 -32.9319
L22.0685 -32.9495
L21.7637 -32.9696
L21.4616 -32.9923
L21.1625 -33.0173
L20.8662 -33.0447
L20.5728 -33.0743
L20.2824 -33.106
L19.9949 -33.1397
L19.7104 -33.1755
L19.4288 -33.2131
L19.1501 -33.2526
L18.8744 -33.2938
L18.6015 -33.3368
L18.3316 -33.3814
L18.0644 -33.4276
L17.8001 -33.4755
L17.5386 -33.5248
L17.2799 -33.5756
L17.0239 -33.6279
L16.7706 -33.6816
L16.5199 -33.7367
L16.2719 -33.7932
L16.0264 -33.8509
L15.7835 -33.91
L15.5431 -33.9704
L15.3051 -34.0321
L15.0696 -34.095
L14.8364 -34.1592
L14.6055 -34.2246
L14.377 -34.2913
L14.1506 -34.3592
L13.9265 -34.4282
L13.7045 -34.4986
L13.4846 -34.5701
L13.2669 -34.6428
L13.0511 -34.7168
L12.8373 -34.792
L12.6255 -34.8684
L12.4156 -34.9461
L12.2075 -35.025
L12.0013 -35.1053
L11.7969 -35.1868
L11.5942 -35.2695
L11.3933 -35.3537
L11.1941 -35.4391
L10.9965 -35.526
L10.8006 -35.6142
L10.6062 -35.7038
L10.4135 -35.7949
L10.2222 -35.8874
L10.0325 -35.9814
L9.84429 -36.077
L9.65754 -36.1742
L9.47224 -36.273
L9.28837 -36.3734
L9.10591 -36.4755
L8.92484 -36.5794
L8.74516 -36.6851
L8.56684 -36.7926
L8.38988 -36.902
L8.21427 -37.0133
L8.04 -37.1267
L7.86707 -37.2421
L7.69548 -37.3596
L7.56915 -37.4794
L7.6081 -37.9841
L7.65571 -38.48
L7.71195 -38.9751
L7.7768 -39.4693
L7.85026 -39.9625
L7.93229 -40.4544
L8.02286 -40.945
L8.12196 -41.4341
L8.22955 -41.9216
L8.34561 -42.4072
L8.47008 -42.8909
L8.60294 -43.3725
L8.74415 -43.8518
L8.89365 -44.3288
L9.05142 -44.8032
L9.21739 -45.2749
L9.39153 -45.7438
L9.57376 -46.2098
L9.76405 -46.6726
L9.96233 -47.1322
L10.1685 -47.5883
L10.3826 -48.041
L10.6045 -48.49
L10.8341 -48.9352
L11.0714 -49.3764
L11.3163 -49.8136
L11.5687 -50.2465
L11.8285 -50.6752
L12.0957 -51.0993
L12.3702 -51.5189
L12.6519 -51.9337
L12.9407 -52.3437
L13.2365 -52.7486
L13.5392 -53.1485
L13.8488 -53.5432
L14.1652 -53.9325
L14.4882 -54.3164
L14.8177 -54.6947
L15.1537 -55.0673
L15.496 -55.434
L15.8446 -55.7949
L16.1994 -56.1497
L16.5601 -56.4984
L16.9268 -56.8409
L17.2993 -57.177
L17.6775 -57.5066
L18.0613 -57.8297
L18.4505 -58.1461
L18.8451 -58.4558
L19.2449 -58.7587
L19.6498 -59.0546
L20.0597 -59.3435
L20.4744 -59.6253
L20.8939 -59.8999
L21.318 -60.1673
L21.7465 -60.4272
L22.1794 -60.6797
L22.6165 -60.9247
L23.0577 -61.1621
L23.5028 -61.3919
L23.9518 -61.6139
L24.4044 -61.8281
L24.8605 -62.0344
L25.32 -62.2328
L25.7828 -62.4232
L26.2487 -62.6056
L26.7175 -62.7799
L27.1892 -62.946
L27.6636 -63.1039
L28.1405 -63.2535
L28.6198 -63.3949
L29.1013 -63.5279
L29.585 -63.6525
L30.0706 -63.7686
L30.558 -63.8764
L31.0471 -63.9756
L31.5377 -64.0663
L32.0296 -64.1485
L32.5228 -64.2221
L33.017 -64.2871
L33.5121 -64.3435
L34.008 -64.3912
L34.5044 -64.4303
L35.0014 -64.4607
L35.4986 -64.4825
L35.996 -64.4956
L36.4934 -64.5
L36.9906 -64.4957
L37.4876 -64.4828
z
" id="C0_1_ad5b26c165"/>
     <path d="
M64.4353 -34.4008
L64.2518 -34.2978
L64.0664 -34.1953
L63.8791 -34.0932
L63.6899 -33.9916
L63.4986 -33.8903
L63.3053 -33.7894
L63.1099 -33.6888
L62.9124 -33.5885
L62.7127 -33.4886
L62.5107 -33.3889
L62.3066 -33.2894
L62.1001 -33.1901
L61.8912 -33.0911
L61.68 -32.9922
L61.4663 -32.8934
L61.2502 -32.7948
L61.0315 -32.6962
L60.8102 -32.5978
L60.5864 -32.4994
L60.3598 -32.401
L60.1305 -32.3027
L59.8985 -32.2043
L59.6637 -32.1059
L59.4261 -32.0074
L59.1856 -31.9089
L58.9421 -31.8102
L58.6957 -31.7114
L58.4464 -31.6124
L58.194 -31.5133
L57.9386 -31.4139
L57.6801 -31.3144
L57.4185 -31.2145
L57.1539 -31.1143
L56.8861 -31.0138
L56.6151 -30.913
L56.3411 -30.8117
L56.0639 -30.71
L55.7836 -30.6077
L55.5002 -30.505
L55.2137 -30.4017
L54.9241 -30.2978
L54.6315 -30.1931
L54.336 -30.0878
L54.0375 -29.9816
L53.7362 -29.8745
L53.4322 -29.7666
L53.1255 -29.6575
L52.8162 -29.5474
L52.5045 -29.436
L52.1904 -29.3233
L51.8742 -29.2092
L51.556 -29.0936
L51.236 -28.9763
L50.9143 -28.8571
L50.5912 -28.736
L50.267 -28.6127
L49.9418 -28.4871
L49.616 -28.3591
L49.2898 -28.2283
L48.9635 -28.0946
L48.6376 -27.9578
L48.3122 -27.8176
L47.9877 -27.6738
L47.6646 -27.5262
L47.3432 -27.3744
L47.0239 -27.2183
L46.7071 -27.0574
L46.3932 -26.8917
L46.0826 -26.7208
L45.7757 -26.5445
L45.4728 -26.3625
L45.1744 -26.1747
L44.8807 -25.9807
L44.5922 -25.7806
L44.309 -25.5742
L44.0315 -25.3613
L43.7598 -25.142
L43.4942 -24.9162
L43.2347 -24.684
L42.9814 -24.4455
L42.7345 -24.2009
L42.4938 -23.9503
L42.2594 -23.694
L42.0312 -23.4323
L41.8091 -23.1655
L41.5929 -22.8938
L41.3825 -22.6178
L41.1777 -22.3378
L40.9783 -22.0541
L40.7841 -21.7672
L40.5949 -21.4776
L40.4105 -21.1855
L40.2307 -20.8914
L40.0552 -20.5957
L39.8838 -20.2988
L39.7164 -20.0011
L39.5527 -19.7028
L39.3926 -19.4044
L39.2358 -19.1061
L39.0822 -18.8083
L38.9316 -18.5112
L38.7839 -18.2151
L38.6389 -17.9203
L38.4965 -17.6268
L38.3566 -17.3351
L38.219 -17.0451
L38.0836 -16.7572
L37.9503 -16.4714
L37.8191 -16.188
L37.6898 -15.9069
L37.5623 -15.6284
L37.4366 -15.3525
L37.3125 -15.0793
L37.1901 -14.8088
L37.0692 -14.5413
L36.9498 -14.2765
L36.8317 -14.0147
L36.7151 -13.7559
L36.5997 -13.5001
L36.4856 -13.2472
L36.3727 -12.9973
L36.2609 -12.7505
L36.1503 -12.5067
L36.0407 -12.2658
L35.9321 -12.028
L35.8245 -11.7931
L35.7179 -11.5612
L35.6122 -11.3322
L35.5073 -11.1061
L35.4032 -10.8828
L35.3 -10.6624
L35.1975 -10.4449
L35.0958 -10.23
L34.9947 -10.018
L34.8944 -9.80857
L34.7946 -9.60183
L34.6955 -9.3977
L34.5969 -9.19614
L34.499 -8.99711
L34.4015 -8.80056
L34.3045 -8.60645
L34.208 -8.41475
L34.1119 -8.2254
L34.0163 -8.03836
L33.921 -7.85359
L34.3157 -7.67105
L34.8125 -7.54981
L35.3096 -7.52475
L35.807 -7.50836
L36.3044 -7.50065
L36.8017 -7.50163
L37.2988 -7.51128
L37.7954 -7.52961
L38.2916 -7.55661
L38.787 -7.59228
L39.2816 -7.6366
L39.7752 -7.68956
L40.2676 -7.75114
L40.7587 -7.82133
L41.2484 -7.9001
L41.7365 -7.98743
L42.2229 -8.0833
L42.7073 -8.18766
L43.1897 -8.3005
L43.6699 -8.42178
L44.1478 -8.55146
L44.6232 -8.6895
L45.096 -8.83586
L45.5659 -8.99049
L46.033 -9.15335
L46.4971 -9.32439
L46.9579 -9.50355
L47.4154 -9.69079
L47.8694 -9.88603
L48.3198 -10.0892
L48.7664 -10.3003
L49.2092 -10.5193
L49.6479 -10.7459
L50.0825 -10.9803
L50.5128 -11.2223
L50.9386 -11.4719
L51.36 -11.7289
L51.7766 -11.9933
L52.1884 -12.265
L52.5953 -12.544
L52.9972 -12.8301
L53.3938 -13.1232
L53.7852 -13.4234
L54.1711 -13.7304
L54.5516 -14.0441
L54.9263 -14.3646
L55.2953 -14.6917
L55.6584 -15.0252
L56.0156 -15.3652
L56.3666 -15.7114
L56.7114 -16.0638
L57.05 -16.4223
L57.3821 -16.7868
L57.7077 -17.1571
L58.0267 -17.5331
L58.3389 -17.9148
L58.6444 -18.3019
L58.943 -18.6945
L59.2346 -19.0923
L59.5191 -19.4953
L59.7964 -19.9033
L60.0665 -20.3162
L60.3293 -20.7339
L60.5846 -21.1563
L60.8325 -21.5831
L61.0728 -22.0144
L61.3055 -22.4499
L61.5304 -22.8896
L61.7476 -23.3332
L61.9569 -23.7807
L62.1584 -24.2319
L62.3518 -24.6867
L62.5373 -25.145
L62.7146 -25.6065
L62.8838 -26.0712
L63.0448 -26.539
L63.1976 -27.0096
L63.3421 -27.483
L63.4783 -27.9589
L63.6061 -28.4374
L63.7255 -28.9181
L63.8364 -29.4009
L63.9389 -29.8858
L64.0329 -30.3726
L64.1183 -30.861
L64.1951 -31.3511
L64.2634 -31.8425
L64.323 -32.3352
L64.3741 -32.829
L64.4165 -33.3238
z
" id="C0_2_02416e7ea9"/>
    </defs>
    <g clip-path="url(#p1bffca34e9)">
     <use style="fill:#ff0000;stroke:#000000;stroke-width:2.0;" x="0.0" xlink:href="#C0_0_a811fe30f3" y="72.0"/>
    </g>
    <g clip-path="url(#p1bffca34e9)">
     <use style="fill:#ffffff;stroke:#000000;stroke-width:2.0;" x="0.0" xlink:href="#C0_1_ad5b26c165" y="72.0"/>
    </g>
    <g clip-path="url(#p1bffca34e9)">
     <use style="fill:#ffffff;stroke:#000000;stroke-width:2.0;" x="0.0" xlink:href="#C0_2_02416e7ea9" y="72.0"/>
    </g>
   </g>
  </g>
 </g>
 <defs>
  <clipPath id="p1bffca34e9">
   <rect height="72.0" width="72.0" x="0.0" y="0.0"/>
  </clipPath>
 </defs>
</svg>
