<?xml version="1.0" encoding="utf-8" standalone="no"?>
<!DOCTYPE svg PUBLIC "-//W3C//DTD SVG 1.1//EN"
  "http://www.w3.org/Graphics/SVG/1.1/DTD/svg11.dtd">
<!-- Created with matplotlib (http://matplotlib.org/) -->
<svg height="72pt" version="1.1" viewBox="0 0 72 72" width="72pt" xmlns="http://www.w3.org/2000/svg" xmlns:xlink="http://www.w3.org/1999/xlink">
 <defs>
  <style type="text/css">
*{stroke-linecap:butt;stroke-linejoin:round;}
  </style>
 </defs>
 <g id="figure_1">
  <g id="patch_1">
   <path d="
M0 72
L72 72
L72 0
L0 0
z
" style="fill:none;"/>
  </g>
  <g id="axes_1">
   <g id="PatchCollection_1">
    <defs>
     <path d="
M36 -7.5
C43.5583 -7.5 50.808 -10.5029 56.1525 -15.8475
C61.4971 -21.192 64.5 -28.4417 64.5 -36
C64.5 -43.5583 61.4971 -50.808 56.1525 -56.1525
C50.808 -61.4971 43.5583 -64.5 36 -64.5
C28.4417 -64.5 21.192 -61.4971 15.8475 -56.1525
C10.5029 -50.808 7.5 -43.5583 7.5 -36
C7.5 -28.4417 10.5029 -21.192 15.8475 -15.8475
C21.192 -10.5029 28.4417 -7.5 36 -7.5
z
" id="C0_0_a811fe30f3"/>
     <path d="
M46.9233 -29.6665
L46.7891 -29.4415
L46.6535 -29.2171
L46.5167 -28.9934
L46.3784 -28.7703
L46.2386 -28.5478
L46.0974 -28.3257
L45.9547 -28.1041
L45.8104 -27.8828
L45.6645 -27.6619
L45.5169 -27.4413
L45.3676 -27.2209
L45.2165 -27.0008
L45.0637 -26.7807
L44.9089 -26.5608
L44.7523 -26.3409
L44.5936 -26.121
L44.4329 -25.9011
L44.2701 -25.6812
L44.1051 -25.4611
L43.9379 -25.2409
L43.7683 -25.0205
L43.5964 -24.7999
L43.4221 -24.5791
L43.2452 -24.3579
L43.0657 -24.1365
L42.8836 -23.9147
L42.6986 -23.6926
L42.5109 -23.4701
L42.3202 -23.2471
L42.1265 -23.0238
L41.9297 -22.8
L41.7297 -22.5757
L41.5264 -22.351
L41.3197 -22.1258
L41.1095 -21.9001
L40.8958 -21.6739
L40.6783 -21.4473
L40.4571 -21.2202
L40.232 -20.9926
L40.0028 -20.7646
L39.7696 -20.5362
L39.5321 -20.3073
L39.2903 -20.0781
L39.0441 -19.8486
L38.7932 -19.6188
L38.5377 -19.3888
L38.2774 -19.1586
L38.0122 -18.9283
L37.742 -18.698
L37.4666 -18.4677
L37.186 -18.2376
L36.9 -18.0078
L36.6085 -17.7783
L36.3114 -17.5492
L36.0086 -17.3208
L35.7 -17.0932
L35.3855 -16.8665
L35.065 -16.6408
L34.7383 -16.4165
L34.4056 -16.1936
L34.0665 -15.9723
L33.7212 -15.753
L33.3694 -15.5357
L33.0112 -15.3209
L32.6465 -15.1086
L32.2752 -14.8993
L31.8974 -14.6932
L31.5131 -14.4907
L31.1222 -14.2919
L30.7248 -14.0974
L30.3208 -13.9074
L29.9104 -13.7223
L29.4936 -13.5426
L29.0706 -13.3685
L28.6413 -13.2007
L28.2059 -13.0394
L27.7646 -12.8852
L27.3176 -12.7387
L26.8651 -12.6003
L26.4072 -12.4707
L25.9443 -12.3507
L25.4768 -12.2411
L25.005 -12.1431
L24.5294 -12.0581
L24.051 -11.9884
L23.5707 -11.9378
L23.0907 -11.9125
L22.6143 -11.9244
L22.1483 -11.9954
L21.7032 -12.1564
L21.2879 -12.4239
L20.9021 -12.7784
L20.5405 -13.1872
L20.1986 -13.6278
L19.8739 -14.0877
L19.565 -14.5603
L19.271 -15.0416
L18.9914 -15.5291
L18.7259 -16.0212
L18.474 -16.5166
L18.2356 -17.0141
L18.0104 -17.5131
L17.798 -18.0127
L17.5982 -18.5123
L17.4107 -19.0113
L17.2352 -19.5092
L17.0714 -20.0055
L16.919 -20.4998
L16.7778 -20.9917
L16.6473 -21.4807
L16.5272 -21.9667
L16.4173 -22.4492
L16.3171 -22.928
L16.2264 -23.4029
L16.1449 -23.8736
L16.0722 -24.3399
L16.0079 -24.8017
L15.9518 -25.2588
L15.9036 -25.7111
L15.8629 -26.1584
L15.8295 -26.6008
L15.8031 -27.0381
L15.7833 -27.4702
L15.7699 -27.8972
L15.7627 -28.3189
L15.7613 -28.7355
L15.7656 -29.1468
L15.7753 -29.5529
L15.7901 -29.9539
L15.8099 -30.3497
L15.8344 -30.7404
L15.8635 -31.1261
L15.8968 -31.5067
L15.9343 -31.8824
L15.9758 -32.2533
L16.0211 -32.6193
L16.0701 -32.9806
L16.1225 -33.3373
L16.1783 -33.6894
L16.2374 -34.037
L16.2995 -34.3803
L16.3646 -34.7192
L16.4325 -35.0539
L16.5032 -35.3845
L16.5766 -35.7111
L16.6525 -36.0338
L16.7309 -36.3526
L16.8117 -36.6677
L16.8948 -36.9792
L16.9802 -37.2871
L17.0678 -37.5916
L17.1574 -37.8927
L17.2492 -38.1905
L17.3429 -38.4852
L17.4387 -38.7768
L17.5363 -39.0654
L17.6359 -39.3511
L17.7373 -39.6339
L17.8406 -39.9141
L17.9456 -40.1916
L18.0525 -40.4666
L18.1611 -40.7391
L18.2714 -41.0092
L18.3835 -41.2769
L18.4973 -41.5425
L18.6128 -41.8059
L18.7301 -42.0673
L18.849 -42.3266
L18.9697 -42.584
L19.0921 -42.8396
L19.2162 -43.0934
L19.3421 -43.3454
L19.4697 -43.5958
L19.5991 -43.8447
L19.7303 -44.092
L19.8632 -44.3379
L19.9981 -44.5824
L20.1347 -44.8256
L20.2733 -45.0676
L20.4137 -45.3083
L20.5561 -45.5479
L20.7005 -45.7863
L20.8469 -46.0238
L20.9954 -46.2603
L21.1459 -46.4958
L21.2986 -46.7305
L21.4535 -46.9643
L21.6106 -47.1973
L21.77 -47.4296
L21.9318 -47.6613
L22.0959 -47.8922
L22.2625 -48.1226
L22.4316 -48.3524
L22.6033 -48.5816
L22.7777 -48.8103
L22.9548 -49.0386
L23.1346 -49.2665
L23.3174 -49.4939
L23.503 -49.721
L23.6917 -49.9478
L23.8835 -50.1742
L24.0785 -50.4003
L24.2767 -50.6261
L24.4783 -50.8516
L24.6834 -51.0769
L24.8921 -51.302
L25.1043 -51.5268
L25.3204 -51.7514
L25.5403 -51.9757
L25.7642 -52.1999
L25.9922 -52.4237
L26.2244 -52.6473
L26.4609 -52.8707
L26.7018 -53.0937
L26.9473 -53.3164
L27.1975 -53.5388
L27.4525 -53.7608
L27.7125 -53.9824
L27.9775 -54.2035
L28.2478 -54.424
L28.5234 -54.644
L28.8045 -54.8633
L29.0912 -55.0818
L29.3837 -55.2996
L29.6822 -55.5164
L29.9867 -55.7322
L30.2974 -55.9468
L30.6144 -56.1602
L30.938 -56.3722
L31.2682 -56.5827
L31.6051 -56.7914
L31.949 -56.9984
L32.3 -57.2032
L32.6581 -57.4059
L33.0236 -57.6061
L33.3965 -57.8037
L33.777 -57.9983
L34.1651 -58.1899
L34.561 -58.378
L34.9648 -58.5624
L35.3764 -58.7429
L35.7961 -58.9191
L36.2239 -59.0907
L36.6598 -59.2574
L37.1038 -59.4188
L37.5559 -59.5745
L38.0162 -59.7241
L38.4845 -59.8673
L38.9609 -60.0037
L39.4452 -60.1328
L39.9374 -60.2542
L40.4373 -60.3674
L40.9448 -60.472
L41.4596 -60.5674
L41.9815 -60.6533
L42.5103 -60.7291
L43.0456 -60.7943
L43.5871 -60.8483
L44.1343 -60.8907
L44.6867 -60.9207
L45.2438 -60.9378
L45.8046 -60.9411
L46.3684 -60.9299
L46.9337 -60.9028
L47.4987 -60.8584
L48.0603 -60.7939
L48.6133 -60.7049
L49.1481 -60.5834
L49.6471 -60.4145
L50.0843 -60.1782
L50.4425 -59.8649
L50.7321 -59.4904
L50.9749 -59.0786
L51.1867 -58.6457
L51.3762 -58.2006
L51.5481 -57.7479
L51.705 -57.2905
L51.8485 -56.83
L51.9798 -56.3678
L52.0995 -55.9046
L52.2083 -55.4412
L52.3068 -54.9783
L52.3953 -54.5162
L52.4742 -54.0556
L52.544 -53.5967
L52.605 -53.1399
L52.6575 -52.6857
L52.7018 -52.2342
L52.7384 -51.7857
L52.7674 -51.3405
L52.7892 -50.8989
L52.8042 -50.461
L52.8125 -50.0269
L52.8146 -49.5969
L52.8106 -49.1712
L52.8009 -48.7497
L52.7856 -48.3326
L52.7652 -47.9201
L52.7397 -47.5121
L52.7095 -47.1088
L52.6748 -46.7102
L52.6358 -46.3163
L52.5927 -45.9271
L52.5457 -45.5426
L52.4951 -45.1629
L52.4409 -44.7879
L52.3835 -44.4176
L52.3228 -44.052
L52.2592 -43.6909
L52.1928 -43.3345
L52.1237 -42.9826
L52.052 -42.6352
L51.978 -42.2922
L51.9016 -41.9536
L51.823 -41.6192
L51.7424 -41.2891
L51.6598 -40.9631
L51.5753 -40.6411
L51.4891 -40.3231
L51.4011 -40.009
L51.3115 -39.6987
L51.2204 -39.3921
L51.1278 -39.0891
L51.0337 -38.7897
L50.9383 -38.4938
L50.8416 -38.2012
L50.7436 -37.9119
L50.6444 -37.6258
L50.544 -37.3427
L50.4424 -37.0628
L50.3398 -36.7857
L50.236 -36.5115
L50.1312 -36.24
L50.0254 -35.9713
L49.9186 -35.7051
L49.8107 -35.4414
L49.7019 -35.1801
L49.5921 -34.9212
L49.4813 -34.6646
L49.3695 -34.4101
L49.2568 -34.1577
L49.1432 -33.9074
L49.0286 -33.659
L48.913 -33.4125
L48.7965 -33.1678
L48.679 -32.9248
L48.5605 -32.6835
L48.441 -32.4438
L48.3205 -32.2056
L48.199 -31.9688
L48.0764 -31.7334
L47.9528 -31.4993
L47.8281 -31.2665
L47.7024 -31.0349
L47.5755 -30.8044
L47.4474 -30.5749
L47.3182 -30.3465
L47.1878 -30.119
z
" id="C0_1_49b421f78c"/>
    </defs>
    <g clip-path="url(#p1bffca34e9)">
     <use style="fill:#ffffff;stroke:#000000;stroke-width:2.0;" x="0.0" xlink:href="#C0_0_a811fe30f3" y="72.0"/>
    </g>
    <g clip-path="url(#p1bffca34e9)">
     <use style="fill:#ff0000;stroke:#000000;stroke-width:2.0;" x="0.0" xlink:href="#C0_1_49b421f78c" y="72.0"/>
    </g>
   </g>
  </g>
 </g>
 <defs>
  <clipPath id="p1bffca34e9">
   <rect height="72.0" width="72.0" x="0.0" y="0.0"/>
  </clipPath>
 </defs>
</svg>
