<?xml version="1.0" encoding="utf-8" standalone="no"?>
<!DOCTYPE svg PUBLIC "-//W3C//DTD SVG 1.1//EN"
  "http://www.w3.org/Graphics/SVG/1.1/DTD/svg11.dtd">
<!-- Created with matplotlib (http://matplotlib.org/) -->
<svg height="72pt" version="1.1" viewBox="0 0 72 72" width="72pt" xmlns="http://www.w3.org/2000/svg" xmlns:xlink="http://www.w3.org/1999/xlink">
 <defs>
  <style type="text/css">
*{stroke-linecap:butt;stroke-linejoin:round;}
  </style>
 </defs>
 <g id="figure_1">
  <g id="patch_1">
   <path d="
M0 72
L72 72
L72 0
L0 0
z
" style="fill:none;"/>
  </g>
  <g id="axes_1">
   <g id="PatchCollection_1">
    <defs>
     <path d="
M36 -7.5
C43.5583 -7.5 50.808 -10.5029 56.1525 -15.8475
C61.4971 -21.192 64.5 -28.4417 64.5 -36
C64.5 -43.5583 61.4971 -50.808 56.1525 -56.1525
C50.808 -61.4971 43.5583 -64.5 36 -64.5
C28.4417 -64.5 21.192 -61.4971 15.8475 -56.1525
C10.5029 -50.808 7.5 -43.5583 7.5 -36
C7.5 -28.4417 10.5029 -21.192 15.8475 -15.8475
C21.192 -10.5029 28.4417 -7.5 36 -7.5
z
" id="C0_0_a811fe30f3"/>
     <path d="
M8.78645 -28.4208
L9.05956 -28.4512
L9.35287 -28.4446
L9.66303 -28.4089
L9.9871 -28.3512
L10.3226 -28.277
L10.6676 -28.1911
L11.0203 -28.097
L11.3794 -27.9974
L11.7437 -27.8947
L12.1122 -27.7905
L12.4842 -27.686
L12.8588 -27.5824
L13.2355 -27.4803
L13.6136 -27.3804
L13.9928 -27.2831
L14.3725 -27.1888
L14.7524 -27.0977
L15.132 -27.01
L15.5111 -26.9259
L15.8894 -26.8454
L16.2666 -26.7685
L16.6424 -26.6954
L17.0167 -26.6259
L17.3892 -26.56
L17.7597 -26.4978
L18.1282 -26.439
L18.4944 -26.3838
L18.8583 -26.3319
L19.2197 -26.2834
L19.5785 -26.2381
L19.9346 -26.1959
L20.2881 -26.1568
L20.6388 -26.1207
L20.9866 -26.0874
L21.3316 -26.0569
L21.6737 -26.0292
L22.0129 -26.004
L22.3492 -25.9813
L22.6826 -25.9611
L23.013 -25.9432
L23.3406 -25.9276
L23.6653 -25.9142
L23.9872 -25.903
L24.3062 -25.8937
L24.6225 -25.8865
L24.936 -25.8811
L25.2467 -25.8776
L25.5549 -25.8759
L25.8604 -25.8759
L26.1633 -25.8776
L26.4637 -25.8809
L26.7616 -25.8858
L27.0572 -25.8921
L27.3504 -25.9
L27.6413 -25.9093
L27.93 -25.9199
L28.2165 -25.9319
L28.5009 -25.9453
L28.7833 -25.9598
L29.0637 -25.9757
L29.3422 -25.9927
L29.6189 -26.011
L29.8938 -26.0304
L30.167 -26.0509
L30.4386 -26.0725
L30.7085 -26.0952
L30.977 -26.1191
L31.2441 -26.1439
L31.5097 -26.1698
L31.7741 -26.1967
L32.0372 -26.2247
L32.2992 -26.2536
L32.56 -26.2835
L32.8198 -26.3145
L33.0787 -26.3463
L33.3366 -26.3792
L33.5937 -26.4131
L33.85 -26.4479
L34.1056 -26.4836
L34.3606 -26.5204
L34.615 -26.5581
L34.8689 -26.5968
L35.1223 -26.6364
L35.3753 -26.677
L35.6281 -26.7186
L36.1328 -26.7613
L36.3849 -26.8049
L36.637 -26.8495
L36.8891 -26.8951
L37.1412 -26.9418
L37.3935 -26.9895
L37.646 -27.0383
L37.8987 -27.0882
L38.1517 -27.1392
L38.405 -27.1913
L38.6589 -27.2445
L38.9132 -27.2989
L39.1681 -27.3544
L39.4236 -27.4112
L39.6798 -27.4692
L39.9368 -27.5284
L40.1945 -27.589
L40.4531 -27.6508
L40.7127 -27.714
L40.9733 -27.7785
L41.2349 -27.8445
L41.4976 -27.9119
L41.7615 -27.9808
L42.0267 -28.0512
L42.2931 -28.1231
L42.5609 -28.1967
L42.8301 -28.2718
L43.1008 -28.3487
L43.3729 -28.4273
L43.6467 -28.5076
L43.9221 -28.5898
L44.1992 -28.6739
L44.478 -28.7598
L44.7587 -28.8478
L45.0411 -28.9378
L45.3255 -29.0299
L45.6117 -29.1241
L45.9 -29.2205
L46.1902 -29.3192
L46.4826 -29.4203
L46.7769 -29.5237
L47.0735 -29.6296
L47.3721 -29.7381
L47.673 -29.8491
L47.976 -29.9629
L48.2812 -30.0793
L48.5886 -30.1986
L48.8983 -30.3208
L49.2102 -30.4459
L49.5243 -30.5741
L49.8406 -30.7054
L50.1591 -30.8398
L50.4797 -30.9776
L50.8024 -31.1186
L51.1273 -31.263
L51.4541 -31.4109
L51.7829 -31.5624
L52.1136 -31.7174
L52.446 -31.8761
L52.7802 -32.0384
L53.116 -32.2045
L53.4533 -32.3744
L53.7919 -32.5481
L54.1317 -32.7256
L54.4725 -32.9069
L54.8142 -33.0921
L55.1566 -33.281
L55.4995 -33.4737
L55.8427 -33.67
L56.1859 -33.8699
L56.5289 -34.0732
L56.8715 -34.2798
L57.2133 -34.4893
L57.5541 -34.7015
L57.8936 -34.9161
L58.2314 -35.1325
L58.5672 -35.3502
L58.9008 -35.5684
L59.2316 -35.7863
L59.5594 -36.0027
L59.8837 -36.2161
L60.2041 -36.4248
L60.5202 -36.6265
L60.8315 -36.8181
L61.1374 -36.9961
L61.4375 -37.1557
L61.731 -37.2912
L62.0174 -37.3956
L62.2957 -37.4607
L62.5651 -37.4781
L62.8247 -37.4396
L63.0736 -37.3389
L63.3109 -37.1729
L63.5359 -36.9425
L63.7478 -36.6518
L63.9463 -36.3074
L64.1309 -35.9166
L64.3013 -35.4868
L64.4571 -35.0246
L64.4325 -34.5359
L64.3939 -34.0391
L64.3467 -33.5432
L64.2909 -33.048
L64.2264 -32.5537
L64.1534 -32.0605
L64.0717 -31.5685
L63.9816 -31.0778
L63.8829 -30.5887
L63.7757 -30.1011
L63.66 -29.6154
L63.5359 -29.1316
L63.4034 -28.6499
L63.2626 -28.1705
L63.1135 -27.6934
L62.9561 -27.2189
L62.7905 -26.747
L62.6168 -26.278
L62.4349 -25.8119
L62.245 -25.3489
L62.0471 -24.8892
L61.8413 -24.4329
L61.6275 -23.98
L61.406 -23.5309
L61.1768 -23.0855
L60.9398 -22.6441
L60.6953 -22.2067
L60.4433 -21.7736
L60.1838 -21.3447
L59.9169 -20.9204
L59.6428 -20.5006
L59.3614 -20.0856
L59.073 -19.6754
L58.7775 -19.2701
L58.475 -18.87
L58.1658 -18.4751
L57.8497 -18.0855
L57.5271 -17.7014
L57.1978 -17.3229
L56.8621 -16.95
L56.5201 -16.583
L56.1718 -16.2218
L55.8173 -15.8667
L55.4568 -15.5177
L55.0904 -15.175
L54.7182 -14.8386
L54.3403 -14.5086
L53.9568 -14.1852
L53.5678 -13.8685
L53.1735 -13.5585
L52.7739 -13.2553
L52.3692 -12.959
L51.9595 -12.6698
L51.545 -12.3877
L51.1258 -12.1127
L50.7019 -11.8451
L50.2736 -11.5848
L49.8409 -11.3319
L49.404 -11.0865
L48.963 -10.8488
L48.518 -10.6187
L48.0693 -10.3963
L47.6168 -10.1817
L47.1609 -9.97503
L46.7015 -9.77626
L46.2389 -9.58547
L45.7731 -9.40272
L45.3044 -9.22808
L44.8329 -9.06159
L44.3586 -8.90331
L43.8818 -8.75328
L43.4026 -8.61155
L42.9212 -8.47817
L42.4376 -8.35317
L41.9521 -8.23659
L41.4648 -8.12846
L40.9758 -8.02883
L40.4853 -7.93772
L39.9934 -7.85515
L39.5003 -7.78116
L39.0061 -7.71576
L38.511 -7.65898
L38.0152 -7.61084
L37.5187 -7.57134
L37.0218 -7.5405
L36.5246 -7.51832
L36.0272 -7.50483
L35.5298 -7.50001
L35.0326 -7.50388
L34.5356 -7.51642
L34.0391 -7.53765
L33.5432 -7.56754
L33.048 -7.60609
L32.5537 -7.65329
L32.0605 -7.70913
L31.5685 -7.77359
L31.0778 -7.84664
L30.5887 -7.92827
L30.1011 -8.01845
L29.6154 -8.11715
L29.1316 -8.22434
L28.6499 -8.34
L28.1705 -8.46408
L27.6934 -8.59655
L27.2189 -8.73737
L26.747 -8.88649
L26.278 -9.04387
L25.8119 -9.20947
L25.3489 -9.38322
L24.8892 -9.56508
L24.4329 -9.75499
L23.98 -9.9529
L23.5309 -10.1587
L23.0855 -10.3725
L22.6441 -10.594
L22.2067 -10.8232
L21.7736 -11.0602
L21.3447 -11.3047
L20.9204 -11.5567
L20.5006 -11.8162
L20.0856 -12.0831
L19.6754 -12.3572
L19.2701 -12.6386
L18.87 -12.927
L18.4751 -13.2225
L18.0855 -13.525
L17.7014 -13.8342
L17.3229 -14.1503
L16.95 -14.4729
L16.583 -14.8022
L16.2218 -15.1379
L15.8667 -15.4799
L15.5177 -15.8282
L15.175 -16.1827
L14.8386 -16.5432
L14.5086 -16.9096
L14.1852 -17.2818
L13.8685 -17.6597
L13.5585 -18.0432
L13.2553 -18.4322
L12.959 -18.8265
L12.6698 -19.2261
L12.3877 -19.6308
L12.1127 -20.0405
L11.8451 -20.455
L11.5848 -20.8742
L11.3319 -21.2981
L11.0865 -21.7264
L10.8488 -22.1591
L10.6187 -22.596
L10.3963 -23.037
L10.1817 -23.482
L9.97503 -23.9307
L9.77626 -24.3832
L9.58547 -24.8391
L9.40272 -25.2985
L9.22808 -25.7611
L9.06159 -26.2269
L8.90331 -26.6956
L8.75328 -27.1671
z
" id="C0_1_aa5f3f2ce3"/>
     <path d="
M7.73467 -37.9518
L7.94373 -38.4451
L8.16007 -38.9412
L8.38393 -39.4377
L8.61537 -39.9323
L8.85433 -40.4234
L9.10063 -40.9096
L9.35404 -41.3898
L9.61425 -41.8633
L9.88094 -42.3291
L10.1537 -42.7869
L10.4323 -43.236
L10.7161 -43.6763
L11.0049 -44.1073
L11.2983 -44.5289
L11.5959 -44.941
L11.8972 -45.3435
L12.202 -45.7363
L12.5098 -46.1194
L12.8204 -46.4929
L13.1334 -46.8568
L13.4485 -47.2112
L13.7654 -47.5561
L14.0839 -47.8918
L14.4036 -48.2183
L14.7243 -48.5357
L15.0458 -48.8443
L15.3679 -49.1442
L15.6904 -49.4356
L16.013 -49.7187
L16.3357 -49.9935
L16.6583 -50.2604
L16.9806 -50.5195
L17.3026 -50.771
L17.624 -51.0151
L17.9448 -51.2519
L18.2649 -51.4817
L18.5843 -51.7046
L18.9028 -51.9208
L19.2204 -52.1305
L19.537 -52.3339
L19.8526 -52.5311
L20.1671 -52.7223
L20.4806 -52.9077
L20.793 -53.0875
L21.1043 -53.2617
L21.4144 -53.4305
L21.7234 -53.5941
L22.0313 -53.7526
L22.3381 -53.9062
L22.6437 -54.055
L22.9482 -54.1991
L23.2517 -54.3387
L23.5541 -54.4738
L23.8555 -54.6046
L24.1558 -54.7312
L24.4552 -54.8537
L24.7536 -54.9721
L25.0512 -55.0867
L25.3478 -55.1974
L25.6437 -55.3045
L25.9387 -55.4078
L26.233 -55.5077
L26.5266 -55.604
L26.8195 -55.697
L27.1119 -55.7865
L27.4037 -55.8729
L27.695 -55.956
L27.9858 -56.0359
L28.2762 -56.1128
L28.5663 -56.1866
L28.8562 -56.2574
L29.1457 -56.3253
L29.4351 -56.3902
L29.7244 -56.4523
L30.0136 -56.5115
L30.3029 -56.568
L30.5922 -56.6216
L30.8816 -56.6725
L31.1711 -56.7206
L31.461 -56.7661
L31.7511 -56.8088
L32.0416 -56.8489
L32.3325 -56.8862
L32.6239 -56.9209
L32.9158 -56.953
L33.2084 -56.9823
L33.5016 -57.009
L33.7956 -57.033
L34.0904 -57.0544
L34.3861 -57.073
L34.6827 -57.0889
L34.9804 -57.1021
L35.2791 -57.1125
L35.5789 -57.1202
L35.8799 -57.125
L36.1822 -57.127
L36.4859 -57.1261
L36.7909 -57.1223
L37.0974 -57.1155
L37.4054 -57.1057
L37.715 -57.0929
L38.0263 -57.077
L38.3394 -57.0578
L38.6542 -57.0355
L38.9708 -57.0098
L39.2894 -56.9808
L39.6099 -56.9483
L39.9325 -56.9123
L40.2572 -56.8727
L40.5841 -56.8293
L40.9131 -56.7822
L41.2445 -56.7312
L41.5781 -56.6762
L41.9141 -56.6172
L42.2526 -56.5539
L42.5935 -56.4862
L42.9369 -56.4141
L43.2828 -56.3375
L43.6313 -56.2561
L43.9825 -56.1699
L44.3362 -56.0787
L44.6927 -55.9824
L45.0518 -55.8807
L45.4135 -55.7736
L45.778 -55.6609
L46.1451 -55.5425
L46.515 -55.4181
L46.8874 -55.2875
L47.2625 -55.1507
L47.6402 -55.0074
L48.0204 -54.8574
L48.4031 -54.7005
L48.7881 -54.5366
L49.1755 -54.3655
L49.5652 -54.187
L49.9569 -54.0008
L50.3507 -53.8068
L50.7463 -53.6049
L51.1436 -53.3947
L51.5424 -53.1763
L51.9426 -52.9493
L52.3439 -52.7136
L52.7461 -52.4692
L53.1489 -52.2158
L53.5522 -51.9534
L53.9555 -51.6818
L54.3587 -51.401
L54.7614 -51.111
L55.1632 -50.8118
L55.5637 -50.5035
L55.9627 -50.186
L56.3596 -49.8597
L56.7541 -49.5248
L57.1457 -49.1815
L57.534 -48.8303
L57.9185 -48.4718
L58.2987 -48.1068
L58.6741 -47.7361
L59.0443 -47.3609
L59.4087 -46.9828
L59.7669 -46.6036
L60.1183 -46.2258
L60.4625 -45.8523
L60.7991 -45.4872
L61.1277 -45.1352
L61.4479 -44.8022
L61.7595 -44.4956
L62.0622 -44.2237
L62.356 -43.9952
L62.641 -43.8187
L62.9172 -43.7007
L63.1848 -43.6446
L63.3156 -43.65
L63.1696 -44.1306
L63.0152 -44.6061
L62.8527 -45.079
L62.6819 -45.5491
L62.503 -46.0163
L62.3161 -46.4804
L62.1211 -46.9413
L61.9182 -47.399
L61.7074 -47.8531
L61.4888 -48.3036
L61.2624 -48.7504
L61.0283 -49.1933
L60.7865 -49.6322
L60.5373 -50.0669
L60.2805 -50.4974
L60.0164 -50.9234
L59.7449 -51.3449
L59.4662 -51.7617
L59.1804 -52.1737
L58.8874 -52.5807
L58.5876 -52.9828
L58.2808 -53.3796
L57.9673 -53.7712
L57.647 -54.1573
L57.3202 -54.538
L56.9869 -54.9129
L56.6472 -55.2821
L56.3012 -55.6455
L55.949 -56.0028
L55.5907 -56.3541
L55.2265 -56.6991
L54.8564 -57.0379
L54.4806 -57.3702
L54.0991 -57.6961
L53.7121 -58.0153
L53.3197 -58.3278
L52.9221 -58.6335
L52.5193 -58.9324
L52.1115 -59.2242
L51.6987 -59.509
L51.2812 -59.7866
L50.859 -60.0569
L50.4323 -60.3199
L50.0012 -60.5756
L49.5658 -60.8237
L49.1263 -61.0643
L48.6828 -61.2972
L48.2355 -61.5224
L47.7844 -61.7399
L47.3297 -61.9495
L46.8716 -62.1512
L46.4102 -62.345
L45.9455 -62.5307
L45.4779 -62.7084
L45.0074 -62.8779
L44.5341 -63.0392
L44.0582 -63.1923
L43.5799 -63.3371
L43.0993 -63.4735
L42.6165 -63.6016
L42.1317 -63.7213
L41.645 -63.8326
L41.1566 -63.9354
L40.6666 -64.0296
L40.1752 -64.1153
L39.6826 -64.1925
L39.1888 -64.2611
L38.694 -64.321
L38.1985 -64.3724
L37.7022 -64.4151
L37.2054 -64.4491
L36.7083 -64.4745
L36.211 -64.4912
L35.7136 -64.4992
L35.2162 -64.4986
L34.7191 -64.4892
L34.2224 -64.4712
L33.7263 -64.4445
L33.2308 -64.4092
L32.7362 -64.3651
L32.2426 -64.3125
L31.7501 -64.2512
L31.2589 -64.1813
L30.7692 -64.1029
L30.281 -64.0159
L29.7946 -63.9203
L29.3101 -63.8162
L28.8276 -63.7037
L28.3473 -63.5827
L27.8694 -63.4534
L27.3939 -63.3156
L26.921 -63.1696
L26.4509 -63.0152
L25.9837 -62.8527
L25.5196 -62.6819
L25.0587 -62.503
L24.601 -62.3161
L24.1469 -62.1211
L23.6964 -61.9182
L23.2496 -61.7074
L22.8067 -61.4888
L22.3678 -61.2624
L21.9331 -61.0283
L21.5026 -60.7865
L21.0766 -60.5373
L20.6551 -60.2805
L20.2383 -60.0164
L19.8263 -59.7449
L19.4193 -59.4662
L19.0172 -59.1804
L18.6204 -58.8874
L18.2288 -58.5876
L17.8427 -58.2808
L17.462 -57.9673
L17.0871 -57.647
L16.7179 -57.3202
L16.3545 -56.9869
L15.9972 -56.6472
L15.6459 -56.3012
L15.3009 -55.949
L14.9621 -55.5907
L14.6298 -55.2265
L14.3039 -54.8564
L13.9847 -54.4806
L13.6722 -54.0991
L13.3665 -53.7121
L13.0676 -53.3197
L12.7758 -52.9221
L12.491 -52.5193
L12.2134 -52.1115
L11.9431 -51.6987
L11.6801 -51.2812
L11.4244 -50.859
L11.1763 -50.4323
L10.9357 -50.0012
L10.7028 -49.5658
L10.4776 -49.1263
L10.2601 -48.6828
L10.0505 -48.2355
L9.84876 -47.7844
L9.65501 -47.3297
L9.46929 -46.8716
L9.29165 -46.4102
L9.12214 -45.9455
L8.96082 -45.4779
L8.80774 -45.0074
L8.66294 -44.5341
L8.52647 -44.0582
L8.39837 -43.5799
L8.27867 -43.0993
L8.16742 -42.6165
L8.06465 -42.1317
L7.97038 -41.645
L7.88466 -41.1566
L7.80749 -40.6666
L7.73892 -40.1752
L7.67895 -39.6826
L7.62762 -39.1888
z
" id="C0_2_4264e063fd"/>
    </defs>
    <g clip-path="url(#p1bffca34e9)">
     <use style="fill:#ff0000;stroke:#000000;stroke-width:2.0;" x="0.0" xlink:href="#C0_0_a811fe30f3" y="72.0"/>
    </g>
    <g clip-path="url(#p1bffca34e9)">
     <use style="fill:#ffffff;stroke:#000000;stroke-width:2.0;" x="0.0" xlink:href="#C0_1_aa5f3f2ce3" y="72.0"/>
    </g>
    <g clip-path="url(#p1bffca34e9)">
     <use style="fill:#ffffff;stroke:#000000;stroke-width:2.0;" x="0.0" xlink:href="#C0_2_4264e063fd" y="72.0"/>
    </g>
   </g>
  </g>
 </g>
 <defs>
  <clipPath id="p1bffca34e9">
   <rect height="72.0" width="72.0" x="0.0" y="0.0"/>
  </clipPath>
 </defs>
</svg>
