<?xml version="1.0" encoding="utf-8" standalone="no"?>
<!DOCTYPE svg PUBLIC "-//W3C//DTD SVG 1.1//EN"
  "http://www.w3.org/Graphics/SVG/1.1/DTD/svg11.dtd">
<!-- Created with matplotlib (http://matplotlib.org/) -->
<svg height="72pt" version="1.1" viewBox="0 0 72 72" width="72pt" xmlns="http://www.w3.org/2000/svg" xmlns:xlink="http://www.w3.org/1999/xlink">
 <defs>
  <style type="text/css">
*{stroke-linecap:butt;stroke-linejoin:round;}
  </style>
 </defs>
 <g id="figure_1">
  <g id="patch_1">
   <path d="
M0 72
L72 72
L72 0
L0 0
z
" style="fill:none;"/>
  </g>
  <g id="axes_1">
   <g id="PatchCollection_1">
    <defs>
     <path d="
M36 -7.5
C43.5583 -7.5 50.808 -10.5029 56.1525 -15.8475
C61.4971 -21.192 64.5 -28.4417 64.5 -36
C64.5 -43.5583 61.4971 -50.808 56.1525 -56.1525
C50.808 -61.4971 43.5583 -64.5 36 -64.5
C28.4417 -64.5 21.192 -61.4971 15.8475 -56.1525
C10.5029 -50.808 7.5 -43.5583 7.5 -36
C7.5 -28.4417 10.5029 -21.192 15.8475 -15.8475
C21.192 -10.5029 28.4417 -7.5 36 -7.5
z
" id="C0_0_a811fe30f3"/>
     <path d="
M9.04813 -27.0734
L9.23676 -27.2671
L9.4507 -27.4162
L9.68806 -27.5238
L9.94664 -27.5941
L10.2241 -27.632
L10.518 -27.6425
L10.8262 -27.6303
L11.1467 -27.5998
L11.4776 -27.5548
L11.8174 -27.4986
L12.1647 -27.4338
L12.5182 -27.3627
L12.877 -27.2872
L13.2401 -27.2089
L13.6068 -27.1289
L13.9762 -27.0482
L14.3479 -26.9678
L14.7211 -26.8882
L15.0955 -26.81
L15.4705 -26.7335
L15.8458 -26.6592
L16.2209 -26.5872
L16.5956 -26.5178
L16.9696 -26.4511
L17.3426 -26.3873
L17.7142 -26.3264
L18.0845 -26.2684
L18.453 -26.2134
L18.8196 -26.1613
L19.1843 -26.1122
L19.5468 -26.0661
L19.907 -26.0228
L20.2648 -25.9824
L20.6202 -25.9447
L20.973 -25.9099
L21.3231 -25.8776
L21.6706 -25.848
L22.0154 -25.821
L22.3573 -25.7964
L22.6965 -25.7742
L23.0329 -25.7544
L23.3665 -25.7368
L23.6973 -25.7214
L24.0253 -25.7082
L24.3505 -25.697
L24.6729 -25.6878
L24.9925 -25.6806
L25.3095 -25.6752
L25.6237 -25.6717
L25.9353 -25.6699
L26.2443 -25.6699
L26.5507 -25.6715
L26.8546 -25.6747
L27.156 -25.6795
L27.455 -25.6858
L27.7516 -25.6935
L28.0459 -25.7027
L28.338 -25.7133
L28.6278 -25.7252
L28.9155 -25.7384
L29.2012 -25.753
L29.4848 -25.7687
L29.7664 -25.7857
L30.0462 -25.8039
L30.3242 -25.8233
L30.6004 -25.8438
L30.8748 -25.8654
L31.1477 -25.8881
L31.419 -25.9119
L31.6888 -25.9367
L31.9571 -25.9626
L32.2241 -25.9896
L32.4897 -26.0175
L32.7542 -26.0465
L33.0174 -26.0765
L33.2796 -26.1074
L33.5407 -26.1393
L33.8008 -26.1723
L34.06 -26.2061
L34.3183 -26.241
L34.5759 -26.2768
L34.8327 -26.3136
L35.0889 -26.3514
L35.3445 -26.3901
L35.5995 -26.4298
L35.8541 -26.4705
L36.1083 -26.5122
L36.3621 -26.5548
L36.869 -26.5985
L37.1221 -26.6431
L37.3752 -26.6888
L37.6283 -26.7355
L37.8814 -26.7832
L38.1345 -26.832
L38.3879 -26.8819
L38.6414 -26.9329
L38.8952 -26.9849
L39.1494 -27.0381
L39.404 -27.0924
L39.659 -27.1479
L39.9145 -27.2046
L40.1706 -27.2624
L40.4274 -27.3215
L40.6848 -27.3819
L40.943 -27.4436
L41.2021 -27.5065
L41.462 -27.5708
L41.7228 -27.6365
L41.9847 -27.7036
L42.2475 -27.7722
L42.5115 -27.8422
L42.7767 -27.9137
L43.0431 -27.9868
L43.3108 -28.0615
L43.5798 -28.1378
L43.8502 -28.2157
L44.122 -28.2954
L44.3953 -28.3769
L44.6702 -28.4602
L44.9466 -28.5453
L45.2247 -28.6324
L45.5045 -28.7214
L45.786 -28.8124
L46.0692 -28.9055
L46.3543 -29.0007
L46.6413 -29.0981
L46.9301 -29.1978
L47.2209 -29.2997
L47.5136 -29.404
L47.8082 -29.5107
L48.1049 -29.6199
L48.4036 -29.7317
L48.7043 -29.8461
L49.0071 -29.9631
L49.3119 -30.0829
L49.6188 -30.2054
L49.9277 -30.3309
L50.2386 -30.4592
L50.5515 -30.5906
L50.8664 -30.725
L51.1833 -30.8625
L51.502 -31.0032
L51.8226 -31.1471
L52.145 -31.2943
L52.4691 -31.4448
L52.7949 -31.5986
L53.1223 -31.7558
L53.451 -31.9164
L53.7812 -32.0805
L54.1125 -32.2479
L54.445 -32.4187
L54.7783 -32.593
L55.1125 -32.7705
L55.4473 -32.9513
L55.7824 -33.1353
L56.1178 -33.3224
L56.4532 -33.5123
L56.7884 -33.7049
L57.1231 -33.9
L57.4571 -34.0973
L57.7901 -34.2963
L58.1218 -34.4967
L58.4519 -34.6979
L58.7802 -34.8993
L59.1062 -35.1
L59.4298 -35.299
L59.7504 -35.4954
L60.0679 -35.6876
L60.3817 -35.8739
L60.6916 -36.0523
L60.997 -36.2204
L61.2977 -36.3752
L61.5931 -36.5132
L61.8828 -36.6304
L62.1662 -36.7223
L62.4429 -36.7838
L62.7121 -36.8097
L62.9733 -36.7948
L63.2258 -36.7346
L63.4687 -36.6257
L63.7014 -36.4664
L63.9231 -36.2566
L64.1332 -35.9981
L64.3309 -35.6939
L64.4767 -35.3479
L64.4522 -34.847
L64.4191 -34.3502
L64.3773 -33.8539
L64.3269 -33.3583
L64.2678 -32.8634
L64.2002 -32.3695
L64.1239 -31.8767
L64.0391 -31.3852
L63.9457 -30.8951
L63.8438 -30.4065
L63.7335 -29.9196
L63.6147 -29.4346
L63.4875 -28.9516
L63.3519 -28.4707
L63.2079 -27.9922
L63.0557 -27.516
L62.8953 -27.0425
L62.7266 -26.5716
L62.5499 -26.1037
L62.365 -25.6388
L62.1721 -25.177
L61.9712 -24.7185
L61.7624 -24.2634
L61.5458 -23.812
L61.3214 -23.3642
L61.0892 -22.9203
L60.8495 -22.4804
L60.6021 -22.0446
L60.3473 -21.613
L60.085 -21.1858
L59.8155 -20.7632
L59.5386 -20.3452
L59.2546 -19.9319
L58.9635 -19.5235
L58.6654 -19.1202
L58.3604 -18.722
L58.0486 -18.3291
L57.7301 -17.9415
L57.4049 -17.5595
L57.0733 -17.183
L56.7352 -16.8123
L56.3908 -16.4475
L56.0402 -16.0886
L55.6835 -15.7357
L55.3208 -15.3891
L54.9522 -15.0487
L54.5778 -14.7147
L54.1978 -14.3872
L53.8122 -14.0662
L53.4212 -13.752
L53.0249 -13.4445
L52.6234 -13.1439
L52.2169 -12.8502
L51.8054 -12.5637
L51.3891 -12.2842
L50.9681 -12.012
L50.5426 -11.747
L50.1126 -11.4895
L49.6783 -11.2394
L49.2398 -10.9969
L48.7974 -10.762
L48.351 -10.5348
L47.9008 -10.3153
L47.4471 -10.1037
L46.9898 -9.89992
L46.5292 -9.70411
L46.0654 -9.51632
L45.5985 -9.33659
L45.1287 -9.16499
L44.6562 -9.00156
L44.181 -8.84635
L43.7032 -8.69941
L43.2232 -8.56079
L42.7409 -8.43053
L42.2566 -8.30867
L41.7704 -8.19524
L41.2824 -8.09028
L40.7929 -7.99383
L40.3018 -7.9059
L39.8095 -7.82653
L39.316 -7.75575
L38.8214 -7.69356
L38.3261 -7.64
L37.83 -7.59508
L37.3333 -7.55881
L36.8363 -7.53121
L36.339 -7.51227
L35.8416 -7.50202
L35.3442 -7.50044
L34.847 -7.50755
L34.3502 -7.52333
L33.8539 -7.54779
L33.3583 -7.58092
L32.8634 -7.6227
L32.3695 -7.67312
L31.8767 -7.73218
L31.3852 -7.79985
L30.8951 -7.8761
L30.4065 -7.96092
L29.9196 -8.05429
L29.4346 -8.15616
L28.9516 -8.26652
L28.4707 -8.38533
L27.9922 -8.51254
L27.516 -8.64814
L27.0425 -8.79206
L26.5716 -8.94427
L26.1037 -9.10472
L25.6388 -9.27336
L25.177 -9.45015
L24.7185 -9.63502
L24.2634 -9.82792
L23.812 -10.0288
L23.3642 -10.2376
L22.9203 -10.4542
L22.4804 -10.6786
L22.0446 -10.9108
L21.613 -11.1505
L21.1858 -11.3979
L20.7632 -11.6527
L20.3452 -11.915
L19.9319 -12.1845
L19.5235 -12.4614
L19.1202 -12.7454
L18.722 -13.0365
L18.3291 -13.3346
L17.9415 -13.6396
L17.5595 -13.9514
L17.183 -14.2699
L16.8123 -14.5951
L16.4475 -14.9267
L16.0886 -15.2648
L15.7357 -15.6092
L15.3891 -15.9598
L15.0487 -16.3165
L14.7147 -16.6792
L14.3872 -17.0478
L14.0662 -17.4222
L13.752 -17.8022
L13.4445 -18.1878
L13.1439 -18.5788
L12.8502 -18.9751
L12.5637 -19.3766
L12.2842 -19.7831
L12.012 -20.1946
L11.747 -20.6109
L11.4895 -21.0319
L11.2394 -21.4574
L10.9969 -21.8874
L10.762 -22.3217
L10.5348 -22.7602
L10.3153 -23.2026
L10.1037 -23.649
L9.89992 -24.0992
L9.70411 -24.5529
L9.51632 -25.0102
L9.33659 -25.4708
L9.16499 -25.9346
z
" id="C0_1_dc93dc4243"/>
     <path d="
M7.55339 -37.0328
L7.76194 -37.4288
L7.97376 -37.8424
L8.18979 -38.2694
L8.41076 -38.7061
L8.63718 -39.1494
L8.8694 -39.5964
L9.10759 -40.0451
L9.35182 -40.4936
L9.60206 -40.9401
L9.85819 -41.3836
L10.12 -41.8228
L10.3874 -42.2568
L10.66 -42.685
L10.9375 -43.1067
L11.2197 -43.5214
L11.5063 -43.9287
L11.7968 -44.3283
L12.0911 -44.72
L12.3888 -45.1034
L12.6895 -45.4786
L12.993 -45.8454
L13.299 -46.2037
L13.6072 -46.5536
L13.9173 -46.895
L14.2291 -47.2281
L14.5423 -47.5527
L14.8566 -47.8692
L15.1719 -48.1774
L15.4879 -48.4775
L15.8046 -48.7697
L16.1215 -49.0541
L16.4387 -49.3308
L16.756 -49.6
L17.0731 -49.8617
L17.3901 -50.1163
L17.7067 -50.3637
L18.0228 -50.6042
L18.3385 -50.838
L18.6535 -51.0651
L18.9678 -51.2858
L19.2813 -51.5002
L19.594 -51.7085
L19.9059 -51.9108
L20.2168 -52.1073
L20.5268 -52.2981
L20.8358 -52.4833
L21.1438 -52.6632
L21.4508 -52.8378
L21.7567 -53.0073
L22.0617 -53.1718
L22.3656 -53.3315
L22.6684 -53.4864
L22.9703 -53.6367
L23.2711 -53.7826
L23.571 -53.9241
L23.8699 -54.0613
L24.1678 -54.1943
L24.4649 -54.3233
L24.761 -54.4484
L25.0563 -54.5696
L25.3507 -54.687
L25.6444 -54.8007
L25.9374 -54.9109
L26.2296 -55.0175
L26.5211 -55.1207
L26.8121 -55.2205
L27.1024 -55.317
L27.3923 -55.4103
L27.6816 -55.5004
L27.9705 -55.5874
L28.2591 -55.6713
L28.5473 -55.7522
L28.8352 -55.8302
L29.1229 -55.9052
L29.4105 -55.9774
L29.6979 -56.0468
L29.9853 -56.1133
L30.2726 -56.1771
L30.56 -56.2382
L30.8476 -56.2966
L31.1353 -56.3522
L31.4232 -56.4053
L31.7114 -56.4557
L32 -56.5034
L32.289 -56.5486
L32.5785 -56.5911
L32.8685 -56.6311
L33.1591 -56.6685
L33.4503 -56.7032
L33.7423 -56.7354
L34.0351 -56.765
L34.3287 -56.792
L34.6232 -56.8163
L34.9187 -56.838
L35.2153 -56.8571
L35.5129 -56.8735
L35.8117 -56.8872
L36.1118 -56.8982
L36.4132 -56.9064
L36.7159 -56.9118
L37.0201 -56.9144
L37.3257 -56.9142
L37.633 -56.911
L37.9418 -56.9049
L38.2523 -56.8957
L38.5646 -56.8835
L38.8788 -56.8682
L39.1947 -56.8497
L39.5127 -56.8279
L39.8326 -56.8028
L40.1546 -56.7743
L40.4788 -56.7423
L40.8051 -56.7067
L41.1336 -56.6675
L41.4644 -56.6245
L41.7976 -56.5777
L42.1332 -56.527
L42.4712 -56.4722
L42.8117 -56.4132
L43.1547 -56.3499
L43.5002 -56.2823
L43.8484 -56.2101
L44.1992 -56.1333
L44.5527 -56.0517
L44.9088 -55.9651
L45.2677 -55.8735
L45.6292 -55.7767
L45.9934 -55.6745
L46.3603 -55.5667
L46.73 -55.4533
L47.1023 -55.3341
L47.4772 -55.2088
L47.8548 -55.0773
L48.2349 -54.9395
L48.6175 -54.7952
L49.0025 -54.6442
L49.3899 -54.4863
L49.7796 -54.3213
L50.1714 -54.1492
L50.5652 -53.9697
L50.9609 -53.7827
L51.3584 -53.588
L51.7574 -53.3855
L52.1579 -53.175
L52.5595 -52.9565
L52.962 -52.7298
L53.3653 -52.4949
L53.7691 -52.2517
L54.173 -52.0001
L54.5768 -51.7402
L54.9801 -51.472
L55.3827 -51.1957
L55.7841 -50.9113
L56.184 -50.6191
L56.5819 -50.3193
L56.9776 -50.0124
L57.3704 -49.6988
L57.76 -49.3791
L58.1458 -49.0542
L58.5275 -48.7249
L58.9045 -48.3925
L59.2763 -48.0583
L59.6424 -47.7241
L60.0022 -47.392
L60.3554 -47.0646
L60.7013 -46.7449
L61.0395 -46.4365
L61.3695 -46.1435
L61.6909 -45.8708
L62.0032 -45.6235
L62.3063 -45.4073
L62.5997 -45.2274
L62.8354 -45.0886
L62.6638 -45.5974
L62.4841 -46.0643
L62.2964 -46.5281
L62.1006 -46.9887
L61.8968 -47.446
L61.6852 -47.8997
L61.4658 -48.3499
L61.2386 -48.7963
L61.0037 -49.2388
L60.7612 -49.6772
L60.5111 -50.1115
L60.2536 -50.5415
L59.9887 -50.9671
L59.7165 -51.3881
L59.437 -51.8044
L59.1505 -52.2159
L58.8568 -52.6224
L58.5563 -53.0239
L58.2488 -53.4203
L57.9346 -53.8113
L57.6136 -54.1969
L57.2861 -54.5769
L56.9521 -54.9513
L56.6118 -55.3199
L56.2651 -55.6826
L55.9123 -56.0393
L55.5534 -56.39
L55.1886 -56.7344
L54.8179 -57.0725
L54.4415 -57.4041
L54.0594 -57.7293
L53.6719 -58.0478
L53.279 -58.3597
L52.8808 -58.6647
L52.4775 -58.9628
L52.0691 -59.2539
L51.6559 -59.5379
L51.2379 -59.8148
L50.8152 -60.0844
L50.388 -60.3467
L49.9565 -60.6015
L49.5207 -60.8489
L49.0808 -61.0887
L48.6369 -61.3208
L48.1891 -61.5452
L47.7377 -61.7619
L47.2826 -61.9707
L46.8242 -62.1716
L46.3624 -62.3645
L45.8975 -62.5494
L45.4295 -62.7262
L44.9587 -62.8949
L44.4851 -63.0553
L44.009 -63.2076
L43.5304 -63.3515
L43.0496 -63.4871
L42.5666 -63.6144
L42.0816 -63.7332
L41.5947 -63.8436
L41.1061 -63.9455
L40.616 -64.0389
L40.1245 -64.1237
L39.6317 -64.2
L39.1378 -64.2677
L38.643 -64.3267
L38.1473 -64.3772
L37.651 -64.419
L37.1542 -64.4521
L36.657 -64.4766
L36.1597 -64.4924
L35.6623 -64.4996
L35.1649 -64.498
L34.6679 -64.4878
L34.1712 -64.4689
L33.6752 -64.4413
L33.1798 -64.405
L32.6852 -64.3601
L32.1917 -64.3066
L31.6994 -64.2444
L31.2083 -64.1737
L30.7188 -64.0943
L30.2308 -64.0064
L29.7446 -63.91
L29.2603 -63.805
L28.778 -63.6916
L28.2979 -63.5698
L27.8202 -63.4395
L27.345 -63.3009
L26.8724 -63.154
L26.4026 -62.9988
L25.9357 -62.8354
L25.4719 -62.6638
L25.0113 -62.4841
L24.554 -62.2964
L24.1003 -62.1006
L23.6501 -61.8968
L23.2037 -61.6852
L22.7612 -61.4658
L22.3228 -61.2386
L21.8885 -61.0037
L21.4585 -60.7612
L21.0329 -60.5111
L20.6119 -60.2536
L20.1956 -59.9887
L19.7841 -59.7165
L19.3776 -59.437
L18.9761 -59.1505
L18.5797 -58.8568
L18.1887 -58.5563
L17.8031 -58.2488
L17.4231 -57.9346
L17.0487 -57.6136
L16.6801 -57.2861
L16.3174 -56.9521
L15.9607 -56.6118
L15.61 -56.2651
L15.2656 -55.9123
L14.9275 -55.5534
L14.5959 -55.1886
L14.2707 -54.8179
L13.9522 -54.4415
L13.6403 -54.0594
L13.3353 -53.6719
L13.0372 -53.279
L12.7461 -52.8808
L12.4621 -52.4775
L12.1852 -52.0691
L11.9156 -51.6559
L11.6533 -51.2379
L11.3985 -50.8152
L11.1511 -50.388
L10.9113 -49.9565
L10.6792 -49.5207
L10.4548 -49.0808
L10.2381 -48.6369
L10.0293 -48.1891
L9.82841 -47.7377
L9.63548 -47.2826
L9.45059 -46.8242
L9.27379 -46.3624
L9.10512 -45.8975
L8.94465 -45.4295
L8.79242 -44.9587
L8.64848 -44.4851
L8.51287 -44.009
L8.38563 -43.5304
L8.2668 -43.0496
L8.15643 -42.5666
L8.05453 -42.0816
L7.96114 -41.5947
L7.8763 -41.1061
L7.80002 -40.616
L7.73234 -40.1245
L7.67326 -39.6317
L7.62281 -39.1378
L7.58101 -38.643
L7.54786 -38.1473
z
" id="C0_2_f495346076"/>
    </defs>
    <g clip-path="url(#p1bffca34e9)">
     <use style="fill:#ff0000;stroke:#000000;stroke-width:2.0;" x="0.0" xlink:href="#C0_0_a811fe30f3" y="72.0"/>
    </g>
    <g clip-path="url(#p1bffca34e9)">
     <use style="fill:#ffffff;stroke:#000000;stroke-width:2.0;" x="0.0" xlink:href="#C0_1_dc93dc4243" y="72.0"/>
    </g>
    <g clip-path="url(#p1bffca34e9)">
     <use style="fill:#ffffff;stroke:#000000;stroke-width:2.0;" x="0.0" xlink:href="#C0_2_f495346076" y="72.0"/>
    </g>
   </g>
  </g>
 </g>
 <defs>
  <clipPath id="p1bffca34e9">
   <rect height="72.0" width="72.0" x="0.0" y="0.0"/>
  </clipPath>
 </defs>
</svg>
