<?xml version="1.0" encoding="utf-8" standalone="no"?>
<!DOCTYPE svg PUBLIC "-//W3C//DTD SVG 1.1//EN"
  "http://www.w3.org/Graphics/SVG/1.1/DTD/svg11.dtd">
<!-- Created with matplotlib (http://matplotlib.org/) -->
<svg height="72pt" version="1.1" viewBox="0 0 72 72" width="72pt" xmlns="http://www.w3.org/2000/svg" xmlns:xlink="http://www.w3.org/1999/xlink">
 <defs>
  <style type="text/css">
*{stroke-linecap:butt;stroke-linejoin:round;}
  </style>
 </defs>
 <g id="figure_1">
  <g id="patch_1">
   <path d="
M0 72
L72 72
L72 0
L0 0
z
" style="fill:none;"/>
  </g>
  <g id="axes_1">
   <g id="PatchCollection_1">
    <defs>
     <path d="
M36 -7.5
C43.5583 -7.5 50.808 -10.5029 56.1525 -15.8475
C61.4971 -21.192 64.5 -28.4417 64.5 -36
C64.5 -43.5583 61.4971 -50.808 56.1525 -56.1525
C50.808 -61.4971 43.5583 -64.5 36 -64.5
C28.4417 -64.5 21.192 -61.4971 15.8475 -56.1525
C10.5029 -50.808 7.5 -43.5583 7.5 -36
C7.5 -28.4417 10.5029 -21.192 15.8475 -15.8475
C21.192 -10.5029 28.4417 -7.5 36 -7.5
z
" id="C0_0_a811fe30f3"/>
     <path d="
M11.6325 -21.4587
L11.7752 -21.5768
L11.9186 -21.6947
L12.0626 -21.8123
L12.2073 -21.9297
L12.3528 -22.047
L12.499 -22.1641
L12.6459 -22.2812
L12.7937 -22.3981
L12.9422 -22.5151
L13.0916 -22.6321
L13.2419 -22.7491
L13.393 -22.8662
L13.5451 -22.9834
L13.8522 -23.1008
L14.0073 -23.2183
L14.1635 -23.3361
L14.3208 -23.4541
L14.4792 -23.5723
L14.6388 -23.6909
L14.7996 -23.8099
L14.9618 -23.9292
L15.1252 -24.0489
L15.29 -24.1691
L15.4562 -24.2898
L15.6239 -24.411
L15.7931 -24.5328
L15.9638 -24.6552
L16.1362 -24.7782
L16.3102 -24.9019
L16.486 -25.0262
L16.6635 -25.1514
L16.8429 -25.2773
L17.0241 -25.404
L17.2074 -25.5315
L17.3926 -25.66
L17.5799 -25.7894
L17.7694 -25.9198
L17.961 -26.0512
L18.155 -26.1836
L18.3513 -26.3171
L18.55 -26.4518
L18.7511 -26.5876
L18.9549 -26.7246
L19.1613 -26.8629
L19.3703 -27.0025
L19.5822 -27.1434
L19.7969 -27.2857
L20.0146 -27.4293
L20.2352 -27.5745
L20.459 -27.7211
L20.6859 -27.8692
L20.9161 -28.019
L21.1496 -28.1703
L21.3865 -28.3232
L21.6269 -28.4779
L21.8709 -28.6342
L22.1186 -28.7923
L22.3699 -28.9522
L22.6251 -29.1139
L22.8842 -29.2774
L23.1472 -29.4428
L23.4143 -29.6101
L23.6855 -29.7793
L23.9608 -29.9504
L24.2404 -30.1234
L24.5243 -30.2984
L24.8126 -30.4753
L25.1053 -30.6542
L25.4024 -30.835
L25.7041 -31.0178
L26.0102 -31.2024
L26.321 -31.3889
L26.6363 -31.5773
L26.9563 -31.7675
L27.2808 -31.9593
L27.6099 -32.1529
L27.9436 -32.348
L28.2818 -32.5445
L28.6245 -32.7424
L28.9716 -32.9415
L29.3231 -33.1417
L29.6788 -33.3427
L30.0386 -33.5443
L30.4024 -33.7463
L30.77 -33.9484
L31.1413 -34.1502
L31.5159 -34.3513
L31.8937 -34.5513
L32.2744 -34.7496
L32.6577 -34.9456
L33.0431 -35.1386
L33.4303 -35.3276
L33.8186 -35.5115
L34.2077 -35.6892
L34.5968 -35.859
L34.9851 -36.0192
L35.3717 -36.1675
L35.7556 -36.3013
L36.1357 -36.4176
L36.5107 -36.5127
L36.8793 -36.5828
L37.24 -36.6236
L37.5917 -36.6312
L37.9335 -36.602
L38.2648 -36.5337
L38.5854 -36.4254
L38.8956 -36.2782
L39.196 -36.0943
L39.4873 -35.8775
L39.7702 -35.6318
L40.0455 -35.3614
L40.3139 -35.0706
L40.5759 -34.7629
L40.832 -34.4415
L41.0825 -34.1092
L41.3278 -33.7682
L41.5681 -33.4205
L41.8036 -33.0677
L42.0344 -32.7111
L42.2606 -32.3519
L42.4824 -31.9911
L42.6997 -31.6295
L42.9127 -31.2678
L43.1215 -30.9066
L43.326 -30.5464
L43.5263 -30.1877
L43.7224 -29.8309
L43.9145 -29.4763
L44.1025 -29.1241
L44.2865 -28.7746
L44.4666 -28.4281
L44.6427 -28.0847
L44.815 -27.7446
L44.9835 -27.4079
L45.1482 -27.0747
L45.3092 -26.7451
L45.4667 -26.4191
L45.6205 -26.0968
L45.7708 -25.7783
L45.9177 -25.4636
L46.0612 -25.1526
L46.2014 -24.8455
L46.3384 -24.5421
L46.4721 -24.2424
L46.6027 -23.9465
L46.7303 -23.6543
L46.8549 -23.3658
L46.9766 -23.0809
L47.0954 -22.7996
L47.2115 -22.5218
L47.3248 -22.2475
L47.4354 -21.9766
L47.5435 -21.709
L47.649 -21.4447
L47.752 -21.1837
L47.8526 -20.9258
L47.9509 -20.671
L48.0468 -20.4192
L48.1405 -20.1703
L48.232 -19.9243
L48.3213 -19.6811
L48.4085 -19.4407
L48.4937 -19.2029
L48.5769 -18.9676
L48.6581 -18.7349
L48.7374 -18.5046
L48.8148 -18.2767
L48.8904 -18.051
L48.9642 -17.8276
L49.0363 -17.6063
L49.1066 -17.3871
L49.1753 -17.17
L49.2423 -16.9547
L49.3077 -16.7413
L49.3715 -16.5297
L49.4337 -16.3199
L49.4944 -16.1117
L49.5536 -15.9052
L49.6113 -15.7002
L49.6676 -15.4966
L49.7223 -15.2945
L49.7757 -15.0938
L49.8277 -14.8943
L49.8782 -14.6961
L49.9274 -14.499
L49.9752 -14.3031
L50.0217 -14.1082
L50.0668 -13.9143
L50.1106 -13.7214
L50.153 -13.5293
L50.1941 -13.3381
L50.2339 -13.1477
L50.2723 -12.958
L50.3094 -12.769
L50.3452 -12.5805
L50.3796 -12.3927
L50.4127 -12.2054
L50.4444 -12.0185
L50.4747 -11.8321
L50.1314 -11.646
L49.6973 -11.2502
L49.259 -11.0073
L48.8167 -10.7721
L48.3705 -10.5445
L47.9205 -10.3247
L47.4669 -10.1127
L47.0098 -9.90862
L46.5494 -9.71247
L46.0857 -9.52433
L45.6189 -9.34425
L45.1493 -9.17229
L44.6768 -9.0085
L44.2017 -8.85294
L43.7241 -8.70564
L43.2441 -8.56666
L42.762 -8.43603
L42.2778 -8.3138
L41.7916 -8.20001
L41.3037 -8.09468
L40.8142 -7.99785
L40.3232 -7.90955
L39.8309 -7.82981
L39.3375 -7.75865
L38.843 -7.69609
L38.3477 -7.64216
L37.8516 -7.59686
L37.355 -7.56021
L36.8579 -7.53223
L36.3606 -7.51292
L35.8632 -7.50228
L35.3659 -7.50033
L34.8687 -7.50706
L34.3719 -7.52246
L33.8755 -7.54654
L33.3798 -7.57929
L32.885 -7.6207
L32.391 -7.67075
L31.8982 -7.72943
L31.4066 -7.79672
L30.9164 -7.8726
L30.4277 -7.95705
L29.9408 -8.05004
L29.4557 -8.15155
L28.9726 -8.26154
L28.4916 -8.37998
L28.013 -8.50683
L27.5367 -8.64206
L27.063 -8.78562
L26.5921 -8.93747
L26.124 -9.09756
L25.6589 -9.26585
L25.197 -9.44228
L24.7384 -9.6268
L24.2832 -9.81935
L23.8316 -10.0199
L23.3836 -10.2283
L22.9396 -10.4446
L22.4995 -10.6687
L22.0635 -10.9005
L21.6317 -11.1399
L21.2043 -11.3869
L20.7815 -11.6415
L20.3633 -11.9034
L19.9498 -12.1727
L19.5412 -12.4492
L19.1377 -12.7329
L18.7392 -13.0237
L18.3461 -13.3215
L17.9583 -13.6262
L17.576 -13.9377
L17.1993 -14.2559
L16.8284 -14.5808
L16.4632 -14.9121
L16.1041 -15.2499
L15.751 -15.5941
L15.404 -15.9444
L15.0634 -16.3008
L14.7291 -16.6633
L14.4013 -17.0316
L14.0801 -17.4058
L13.7655 -17.7855
L13.4577 -18.1709
L13.1568 -18.5616
L12.8629 -18.9577
L12.576 -19.359
L12.2962 -19.7653
L12.0237 -20.1766
z
" id="C0_1_48cf4e376a"/>
     <path d="
M21.5018 -60.5305
L21.6509 -60.4153
L21.8003 -60.2985
L21.95 -60.1799
L22.1001 -60.0596
L22.2506 -59.9376
L22.4015 -59.8137
L22.553 -59.688
L22.705 -59.5605
L22.8577 -59.431
L23.011 -59.2995
L23.165 -59.1661
L23.3197 -59.0305
L23.4753 -58.8929
L23.6317 -58.7532
L23.789 -58.6112
L23.9473 -58.467
L24.1066 -58.3205
L24.2669 -58.1716
L24.4283 -58.0203
L24.5909 -57.8666
L24.7546 -57.7103
L24.9196 -57.5513
L25.086 -57.3897
L25.2536 -57.2254
L25.4227 -57.0583
L25.5932 -56.8883
L25.7653 -56.7153
L25.9389 -56.5394
L26.1141 -56.3603
L26.2909 -56.1781
L26.4695 -55.9926
L26.6498 -55.8039
L26.832 -55.6117
L27.016 -55.4161
L27.2019 -55.2169
L27.3898 -55.0141
L27.5796 -54.8076
L27.7716 -54.5973
L27.9656 -54.3831
L28.1617 -54.1651
L28.3601 -53.943
L28.5607 -53.7168
L28.7635 -53.4865
L28.9686 -53.252
L29.1761 -53.0133
L29.386 -52.7702
L29.5982 -52.5227
L29.8129 -52.2707
L30.03 -52.0143
L30.2496 -51.7534
L30.4717 -51.488
L30.6963 -51.218
L30.9235 -50.9435
L31.1531 -50.6645
L31.3853 -50.3809
L31.62 -50.0928
L31.8572 -49.8004
L32.0969 -49.5036
L32.3391 -49.2025
L32.5838 -48.8973
L32.831 -48.5882
L33.0806 -48.2754
L33.3326 -47.959
L33.5871 -47.6393
L33.8439 -47.3168
L34.103 -46.9917
L34.3645 -46.6645
L34.6283 -46.3359
L34.8945 -46.0063
L35.1631 -45.6767
L35.4341 -45.3479
L35.7077 -45.021
L35.9839 -44.6974
L36.263 -44.3786
L36.5452 -44.0665
L36.8309 -43.7633
L37.1205 -43.4719
L37.4147 -43.1952
L37.714 -42.9371
L38.0193 -42.7014
L38.3316 -42.4925
L38.6515 -42.3146
L38.9798 -42.1713
L39.3171 -42.0649
L39.6633 -41.9965
L40.0182 -41.9653
L40.3809 -41.969
L40.7504 -42.0041
L41.1257 -42.0666
L41.5053 -42.1524
L41.8882 -42.2576
L42.2733 -42.3786
L42.6597 -42.5125
L43.0464 -42.6565
L43.4327 -42.8087
L43.818 -42.9671
L44.2018 -43.1303
L44.5835 -43.2971
L44.9629 -43.4664
L45.3394 -43.6374
L45.7128 -43.8093
L46.0828 -43.9817
L46.4492 -44.1539
L46.8118 -44.3256
L47.1704 -44.4964
L47.5248 -44.666
L47.875 -44.8342
L48.2208 -45.0008
L48.5621 -45.1655
L48.8989 -45.3282
L49.2311 -45.4889
L49.5587 -45.6474
L49.8816 -45.8036
L50.1998 -45.9575
L50.5134 -46.109
L50.8223 -46.2581
L51.1266 -46.4047
L51.4263 -46.5489
L51.7214 -46.6906
L52.012 -46.8299
L52.2981 -46.9667
L52.5798 -47.101
L52.8571 -47.233
L53.1301 -47.3625
L53.3989 -47.4896
L53.6635 -47.6144
L53.924 -47.7369
L54.1805 -47.8571
L54.4331 -47.9751
L54.6818 -48.0908
L54.9267 -48.2044
L55.1679 -48.3159
L55.4056 -48.4253
L55.6396 -48.5326
L55.8703 -48.6379
L56.0976 -48.7413
L56.3216 -48.8427
L56.5424 -48.9423
L56.7601 -49.04
L56.9747 -49.136
L57.1865 -49.2302
L57.3953 -49.3226
L57.6014 -49.4134
L57.8047 -49.5026
L58.0054 -49.5902
L58.2036 -49.6762
L58.3992 -49.7606
L58.5925 -49.8436
L58.7834 -49.9252
L58.9721 -50.0053
L59.1585 -50.0841
L59.3429 -50.1614
L59.5252 -50.2375
L59.7054 -50.3123
L59.8838 -50.3858
L60.0603 -50.458
L60.235 -50.5291
L60.1997 -50.5989
L59.9333 -51.054
L59.6596 -51.474
L59.3787 -51.8894
L59.0907 -52.2999
L58.7956 -52.7054
L58.4936 -53.1058
L58.1847 -53.5011
L57.8691 -53.891
L57.5468 -54.2754
L57.218 -54.6543
L56.8827 -55.0275
L56.541 -55.3949
L56.1931 -55.7564
L55.839 -56.1119
L55.4789 -56.4613
L55.1128 -56.8044
L54.741 -57.1412
L54.3634 -57.4715
L53.9802 -57.7953
L53.5916 -58.1125
L53.1975 -58.4229
L52.7983 -58.7265
L52.3939 -59.0232
L51.9846 -59.3129
L51.5703 -59.5954
L51.1513 -59.8708
L50.7278 -60.1389
L50.2997 -60.3997
L49.8673 -60.653
L49.4306 -60.8988
L48.9898 -61.137
L48.5451 -61.3676
L48.0966 -61.5904
L47.6444 -61.8055
L47.1887 -62.0126
L46.7295 -62.2119
L46.2671 -62.4032
L45.8015 -62.5864
L45.3329 -62.7616
L44.8616 -62.9285
L44.3875 -63.0873
L43.9108 -63.2378
L43.4318 -63.3801
L42.9505 -63.514
L42.467 -63.6395
L41.9816 -63.7566
L41.4944 -63.8652
L41.0055 -63.9654
L40.5151 -64.057
L40.0233 -64.1401
L39.5302 -64.2146
L39.0361 -64.2805
L38.5411 -64.3378
L38.0453 -64.3865
L37.5489 -64.4265
L37.052 -64.4579
L36.5548 -64.4806
L36.0574 -64.4946
L35.56 -64.4999
L35.0627 -64.4966
L34.5658 -64.4846
L34.0692 -64.4639
L33.5733 -64.4345
L33.078 -64.3965
L32.5837 -64.3498
L32.0904 -64.2945
L31.5983 -64.2306
L31.1076 -64.158
L30.6183 -64.0769
L30.1307 -63.9873
L29.6448 -63.8891
L29.1609 -63.7824
L28.6791 -63.6673
L28.1995 -63.5437
L27.7223 -63.4117
L27.2476 -63.2714
L26.7756 -63.1228
L26.3064 -62.9659
L25.8401 -62.8008
L25.377 -62.6276
L24.917 -62.4462
L24.4605 -62.2568
L24.0074 -62.0593
L23.558 -61.854
L23.1124 -61.6407
L22.6708 -61.4197
L22.2332 -61.1909
z
" id="C0_2_5064cdb067"/>
    </defs>
    <g clip-path="url(#p1bffca34e9)">
     <use style="fill:#ff0000;stroke:#000000;stroke-width:2.0;" x="0.0" xlink:href="#C0_0_a811fe30f3" y="72.0"/>
    </g>
    <g clip-path="url(#p1bffca34e9)">
     <use style="fill:#ffffff;stroke:#000000;stroke-width:2.0;" x="0.0" xlink:href="#C0_1_48cf4e376a" y="72.0"/>
    </g>
    <g clip-path="url(#p1bffca34e9)">
     <use style="fill:#ffffff;stroke:#000000;stroke-width:2.0;" x="0.0" xlink:href="#C0_2_5064cdb067" y="72.0"/>
    </g>
   </g>
  </g>
 </g>
 <defs>
  <clipPath id="p1bffca34e9">
   <rect height="72.0" width="72.0" x="0.0" y="0.0"/>
  </clipPath>
 </defs>
</svg>
