<?xml version="1.0" encoding="utf-8" standalone="no"?>
<!DOCTYPE svg PUBLIC "-//W3C//DTD SVG 1.1//EN"
  "http://www.w3.org/Graphics/SVG/1.1/DTD/svg11.dtd">
<!-- Created with matplotlib (http://matplotlib.org/) -->
<svg height="72pt" version="1.1" viewBox="0 0 72 72" width="72pt" xmlns="http://www.w3.org/2000/svg" xmlns:xlink="http://www.w3.org/1999/xlink">
 <defs>
  <style type="text/css">
*{stroke-linecap:butt;stroke-linejoin:round;}
  </style>
 </defs>
 <g id="figure_1">
  <g id="patch_1">
   <path d="
M0 72
L72 72
L72 0
L0 0
z
" style="fill:none;"/>
  </g>
  <g id="axes_1">
   <g id="PatchCollection_1">
    <defs>
     <path d="
M36 -7.5
C43.5583 -7.5 50.808 -10.5029 56.1525 -15.8475
C61.4971 -21.192 64.5 -28.4417 64.5 -36
C64.5 -43.5583 61.4971 -50.808 56.1525 -56.1525
C50.808 -61.4971 43.5583 -64.5 36 -64.5
C28.4417 -64.5 21.192 -61.4971 15.8475 -56.1525
C10.5029 -50.808 7.5 -43.5583 7.5 -36
C7.5 -28.4417 10.5029 -21.192 15.8475 -15.8475
C21.192 -10.5029 28.4417 -7.5 36 -7.5
z
" id="C0_0_a811fe30f3"/>
     <path d="
M30.7182 -8.19276
L30.926 -8.40565
L31.1446 -8.61909
L31.3722 -8.83333
L31.6078 -9.04856
L31.8499 -9.26496
L32.0975 -9.48266
L32.3495 -9.70176
L32.605 -9.92232
L32.8631 -10.1444
L33.1232 -10.368
L33.3845 -10.5931
L33.6465 -10.8197
L33.9085 -11.0478
L34.1702 -11.2773
L34.4311 -11.5081
L34.6908 -11.7402
L34.949 -11.9734
L35.2055 -12.2078
L35.46 -12.4432
L35.7122 -12.6795
L35.962 -12.9166
L36.2093 -13.1545
L36.4538 -13.3931
L36.6956 -13.6322
L36.9345 -13.8718
L37.1704 -14.1119
L37.4033 -14.3522
L37.6331 -14.5929
L37.8599 -14.8337
L38.0835 -15.0747
L38.304 -15.3157
L38.5215 -15.5567
L38.7358 -15.7977
L38.947 -16.0386
L39.1552 -16.2794
L39.3603 -16.52
L39.5624 -16.7604
L39.7616 -17.0006
L39.9578 -17.2406
L40.1511 -17.4802
L40.3416 -17.7196
L40.5292 -17.9587
L40.7141 -18.1974
L40.8963 -18.4358
L41.0759 -18.6739
L41.2528 -18.9116
L41.4272 -19.1491
L41.5991 -19.3861
L41.7685 -19.6229
L41.9356 -19.8594
L42.1003 -20.0955
L42.2627 -20.3314
L42.4229 -20.567
L42.5809 -20.8024
L42.7367 -21.0375
L42.8905 -21.2724
L43.0422 -21.5071
L43.192 -21.7417
L43.3398 -21.9762
L43.4857 -22.2105
L43.6298 -22.4448
L43.772 -22.679
L43.9126 -22.9132
L44.0514 -23.1475
L44.1885 -23.3818
L44.324 -23.6162
L44.4579 -23.8507
L44.5903 -24.0854
L44.7211 -24.3203
L44.8505 -24.5555
L44.9784 -24.7909
L45.105 -25.0267
L45.2302 -25.2629
L45.354 -25.4995
L45.4765 -25.7365
L45.5978 -25.9741
L45.7178 -26.2122
L45.9542 -26.4509
L46.0707 -26.6903
L46.186 -26.9304
L46.3002 -27.1712
L46.4133 -27.4128
L46.5254 -27.6553
L46.6364 -27.8987
L46.7464 -28.143
L46.8554 -28.3883
L46.9633 -28.6347
L47.0704 -28.8822
L47.1764 -29.1308
L47.2815 -29.3807
L47.3857 -29.6318
L47.489 -29.8842
L47.5913 -30.1381
L47.6928 -30.3934
L47.7933 -30.6501
L47.893 -30.9084
L47.9918 -31.1684
L48.0897 -31.4299
L48.1868 -31.6933
L48.2829 -31.9583
L48.3782 -32.2253
L48.4727 -32.4941
L48.5662 -32.7649
L48.6589 -33.0376
L48.7507 -33.3125
L48.8416 -33.5894
L48.9316 -33.8686
L49.0208 -34.15
L49.1089 -34.4336
L49.1962 -34.7196
L49.2825 -35.008
L49.3679 -35.2989
L49.4522 -35.5922
L49.5356 -35.8881
L49.618 -36.1865
L49.6993 -36.4876
L49.7796 -36.7913
L49.8588 -37.0978
L49.9369 -37.407
L50.0138 -37.719
L50.0897 -38.0337
L50.1643 -38.3513
L50.2377 -38.6718
L50.3099 -38.995
L50.3809 -39.3212
L50.4505 -39.6502
L50.5189 -39.982
L50.5859 -40.3167
L50.6516 -40.6542
L50.7159 -40.9944
L50.7788 -41.3374
L50.8403 -41.6831
L50.9004 -42.0314
L50.9591 -42.3822
L51.0164 -42.7355
L51.0724 -43.0911
L51.127 -43.4489
L51.1802 -43.8088
L51.2322 -44.1706
L51.283 -44.5342
L51.3327 -44.8993
L51.3814 -45.2657
L51.4291 -45.6331
L51.4762 -46.0013
L51.5226 -46.37
L51.5688 -46.7389
L51.6148 -47.1074
L51.661 -47.4754
L51.7078 -47.8422
L51.7555 -48.2075
L51.8046 -48.5706
L51.8556 -48.9311
L51.909 -49.2882
L51.9654 -49.6413
L52.0256 -49.9897
L52.0903 -50.3326
L52.1604 -50.6692
L52.2367 -50.9985
L52.3202 -51.3197
L52.4118 -51.6318
L52.5126 -51.9338
L52.6235 -52.2246
L52.7457 -52.5032
L52.8799 -52.7687
L53.0271 -53.02
L53.1881 -53.2562
L53.3633 -53.4764
L53.5533 -53.6798
L53.7583 -53.8657
L53.9784 -54.0336
L54.2133 -54.1832
L54.4629 -54.314
L54.7265 -54.4259
L55.0035 -54.5189
L55.2931 -54.5932
L55.5945 -54.6488
L55.9065 -54.686
L56.2283 -54.7051
L56.5589 -54.7066
L56.897 -54.6908
L57.2418 -54.6582
L57.5923 -54.6092
L57.9414 -54.5443
L58.2555 -54.1885
L58.5629 -53.8028
L58.8633 -53.4117
L59.1568 -53.0153
L59.4432 -52.6137
L59.7225 -52.207
L59.9945 -51.7954
L60.2593 -51.379
L60.5166 -50.9579
L60.7665 -50.5322
L61.0089 -50.1021
L61.2436 -49.6677
L61.4706 -49.2292
L61.6899 -48.7866
L61.9014 -48.3401
L62.1049 -47.8899
L62.3005 -47.4361
L62.4881 -46.9787
L62.6677 -46.518
L62.8391 -46.0542
L63.0023 -45.5872
L63.1573 -45.1173
L63.304 -44.6447
L63.4425 -44.1694
L63.5725 -43.6917
L63.6942 -43.2116
L63.8074 -42.7292
L63.9121 -42.2449
L64.0084 -41.7586
L64.0961 -41.2706
L64.1753 -40.781
L64.2459 -40.2899
L64.3078 -39.7976
L64.3612 -39.304
L64.4059 -38.8095
L64.442 -38.3141
L64.4694 -37.818
L64.4881 -37.3213
L64.4981 -36.8243
L64.4995 -36.3269
L64.4922 -35.8295
L64.4762 -35.3322
L64.4515 -34.835
L64.4182 -34.3382
L64.3762 -33.8419
L64.3255 -33.3463
L64.2663 -32.8515
L64.1984 -32.3576
L64.1219 -31.8648
L64.0369 -31.3733
L63.9433 -30.8832
L63.8413 -30.3947
L63.7307 -29.9079
L63.6117 -29.4229
L63.4843 -28.9399
L63.3485 -28.4591
L63.2044 -27.9806
L63.0519 -27.5045
L62.8913 -27.0311
L62.7225 -26.5603
L62.5455 -26.0924
L62.3604 -25.6276
L62.1673 -25.1659
L61.9662 -24.7074
L61.7573 -24.2525
L61.5404 -23.8011
L61.3158 -23.3534
L61.0835 -22.9096
L60.8436 -22.4698
L60.5961 -22.0341
L60.341 -21.6026
L60.0786 -21.1756
L59.8088 -20.753
L59.5318 -20.3351
L59.2476 -19.922
L58.9564 -19.5137
L58.6581 -19.1105
L58.353 -18.7124
L58.041 -18.3196
L57.7223 -17.9322
L57.397 -17.5503
L57.0652 -17.174
L56.727 -16.8034
L56.3824 -16.4387
L56.0316 -16.08
L55.6748 -15.7273
L55.3119 -15.3808
L54.9432 -15.0405
L54.5687 -14.7067
L54.1885 -14.3793
L53.8028 -14.0586
L53.4117 -13.7445
L53.0153 -13.4371
L52.6137 -13.1367
L52.207 -12.8432
L51.7954 -12.5568
L51.379 -12.2775
L50.9579 -12.0055
L50.5322 -11.7407
L50.1021 -11.4834
L49.6677 -11.2335
L49.2292 -10.9911
L48.7866 -10.7564
L48.3401 -10.5294
L47.8899 -10.3101
L47.4361 -10.0986
L46.9787 -9.89509
L46.518 -9.69947
L46.0542 -9.51188
L45.5872 -9.33234
L45.1173 -9.16094
L44.6447 -8.9977
L44.1694 -8.8427
L43.6917 -8.69596
L43.2116 -8.55755
L42.7292 -8.42749
L42.2449 -8.30583
L41.7586 -8.1926
L41.2706 -8.08785
L40.781 -7.9916
L40.2899 -7.90388
L39.7976 -7.82472
L39.304 -7.75414
L38.8095 -7.69217
L38.3141 -7.63881
L37.818 -7.5941
L37.3213 -7.55804
L36.8243 -7.53065
L36.3269 -7.51192
L35.8295 -7.50188
L35.3322 -7.50051
L34.835 -7.50783
L34.3382 -7.52382
L33.8419 -7.54849
L33.3463 -7.58182
L32.8515 -7.62382
L32.3576 -7.67445
L31.8648 -7.73372
L31.3733 -7.80159
z
" id="C0_1_18d1286b47"/>
     <path d="
M14.3307 -17.77
L14.3093 -18.1384
L14.2877 -18.5114
L14.2666 -18.888
L14.2465 -19.2677
L14.228 -19.6497
L14.2116 -20.0335
L14.1976 -20.4185
L14.1862 -20.8042
L14.1779 -21.1901
L14.1728 -21.5758
L14.171 -21.9609
L14.1727 -22.345
L14.1779 -22.728
L14.1868 -23.1094
L14.1993 -23.489
L14.2155 -23.8666
L14.2354 -24.242
L14.2588 -24.615
L14.2859 -24.9855
L14.3165 -25.3533
L14.3506 -25.7183
L14.3881 -26.0804
L14.429 -26.4396
L14.4732 -26.7957
L14.5205 -27.1486
L14.571 -27.4985
L14.6245 -27.8451
L14.6809 -28.1886
L14.7402 -28.5288
L14.8023 -28.8658
L14.8671 -29.1995
L14.9344 -29.5301
L15.0044 -29.8574
L15.0768 -30.1816
L15.1516 -30.5026
L15.2287 -30.8205
L15.3081 -31.1353
L15.3896 -31.4471
L15.4733 -31.7558
L15.559 -32.0616
L15.6468 -32.3645
L15.7365 -32.6645
L15.8281 -32.9618
L15.9216 -33.2562
L16.0168 -33.548
L16.1139 -33.8372
L16.2127 -34.1237
L16.3131 -34.4078
L16.4153 -34.6894
L16.5191 -34.9686
L16.6244 -35.2454
L16.7314 -35.52
L16.8399 -35.7923
L16.95 -36.0626
L17.0616 -36.3307
L17.1747 -36.5968
L17.2892 -36.8609
L17.4053 -37.1231
L17.5229 -37.3834
L17.6419 -37.642
L17.7624 -37.8989
L17.8844 -38.154
L18.0078 -38.4076
L18.1327 -38.6596
L18.2591 -38.9101
L18.387 -39.1592
L18.5164 -39.4069
L18.6473 -39.6533
L18.7797 -39.8984
L18.9136 -40.1422
L19.0491 -40.385
L19.1862 -40.6266
L19.3248 -40.8671
L19.4651 -41.1066
L19.607 -41.3452
L19.7505 -41.5829
L19.8958 -41.8196
L20.0427 -42.0556
L20.1914 -42.2908
L20.3418 -42.5253
L20.4941 -42.7591
L20.6482 -42.9923
L20.8041 -43.2249
L20.962 -43.4569
L21.1218 -43.6884
L21.2836 -43.9195
L21.4475 -44.1501
L21.6134 -44.3803
L21.7814 -44.6102
L21.9517 -44.8397
L22.1241 -45.069
L22.2988 -45.298
L22.4758 -45.5267
L22.6551 -45.7553
L22.8369 -45.9837
L23.0211 -46.212
L23.2079 -46.4401
L23.3972 -46.6682
L23.5892 -46.8962
L23.7839 -47.1242
L23.9813 -47.3521
L24.1815 -47.58
L24.3846 -47.8079
L24.5907 -48.0359
L24.7997 -48.2638
L25.0118 -48.4918
L25.2271 -48.7198
L25.4455 -48.9479
L25.6671 -49.176
L25.892 -49.4042
L26.1204 -49.6324
L26.3521 -49.8607
L26.5873 -50.0889
L26.8261 -50.3172
L27.0684 -50.5454
L27.3144 -50.7737
L27.5641 -51.0018
L27.8176 -51.2299
L28.0748 -51.4579
L28.3358 -51.6858
L28.6007 -51.9134
L28.8696 -52.1408
L29.1423 -52.368
L29.4189 -52.5948
L29.6995 -52.8213
L29.984 -53.0474
L30.2724 -53.2729
L30.5647 -53.4979
L30.8609 -53.7224
L31.1609 -53.9461
L31.4646 -54.1691
L31.772 -54.3913
L32.083 -54.6126
L32.3974 -54.8329
L32.7151 -55.0522
L33.036 -55.2705
L33.3598 -55.4876
L33.6863 -55.7035
L34.0153 -55.9181
L34.3464 -56.1314
L34.6794 -56.3434
L35.0138 -56.5541
L35.3492 -56.7634
L35.6853 -56.9713
L36.0213 -57.1779
L36.3568 -57.3833
L36.6911 -57.5874
L37.0235 -57.7905
L37.3532 -57.9927
L37.6793 -58.1941
L38.0009 -58.3951
L38.317 -58.5957
L38.6265 -58.7964
L38.9282 -58.9975
L39.2209 -59.1994
L39.5033 -59.4024
L39.774 -59.6071
L40.0317 -59.814
L40.275 -60.0234
L40.5024 -60.2359
L40.7128 -60.452
L40.9048 -60.672
L41.0773 -60.8963
L41.2294 -61.1251
L41.3602 -61.3588
L41.4691 -61.5973
L41.5557 -61.8405
L41.6198 -62.0885
L41.6615 -62.3408
L41.6807 -62.5971
L41.678 -62.857
L41.6537 -63.12
L41.6086 -63.3854
L41.5432 -63.6527
L40.9789 -63.9212
L40.4884 -64.0617
L39.9965 -64.1443
L39.5034 -64.2184
L39.0093 -64.2838
L38.5142 -64.3407
L38.0184 -64.3889
L37.5219 -64.4284
L37.025 -64.4593
L36.5278 -64.4816
L36.0304 -64.4951
L35.533 -64.5
L35.0357 -64.4962
L34.5388 -64.4837
L34.0423 -64.4625
L33.5463 -64.4327
L33.0512 -64.3942
L32.5569 -64.347
L32.0637 -64.2913
L31.5716 -64.2269
L31.081 -64.1539
L30.5918 -64.0723
L30.1043 -63.9822
L29.6185 -63.8835
L29.1347 -63.7764
L28.653 -63.6608
L28.1736 -63.5367
L27.6965 -63.4043
L27.2219 -63.2636
L26.7501 -63.1145
L26.281 -62.9572
L25.8149 -62.7916
L25.3519 -62.6179
L24.8922 -62.4361
L24.4358 -62.2463
L23.9829 -62.0484
L23.5338 -61.8426
L23.0884 -61.6289
L22.6469 -61.4075
L22.2095 -61.1783
L21.7763 -60.9414
L21.3475 -60.6969
L20.9231 -60.4449
L20.5033 -60.1855
L20.0882 -59.9187
L19.678 -59.6446
L19.2727 -59.3633
L18.8726 -59.0748
L18.4776 -58.7794
L18.088 -58.477
L17.7039 -58.1678
L17.3253 -57.8518
L16.9524 -57.5292
L16.5853 -57.2
L16.2241 -56.8643
L15.869 -56.5223
L15.5199 -56.174
L15.1772 -55.8196
L14.8407 -55.4592
L14.5107 -55.0928
L14.1873 -54.7206
L13.8705 -54.3427
L13.5604 -53.9592
L13.2572 -53.5703
L12.9609 -53.176
L12.6716 -52.7765
L12.3894 -52.3718
L12.1145 -51.9622
L11.8468 -51.5477
L11.5864 -51.1285
L11.3335 -50.7046
L11.0881 -50.2763
L10.8503 -49.8437
L10.6201 -49.4068
L10.3977 -48.9658
L10.1831 -48.5209
L9.97633 -48.0722
L9.7775 -47.6198
L9.58666 -47.1638
L9.40387 -46.7045
L9.22917 -46.2419
L9.06263 -45.7761
L8.9043 -45.3074
L8.75422 -44.8359
L8.61244 -44.3617
L8.479 -43.8849
L8.35394 -43.4057
L8.23731 -42.9243
L8.12913 -42.4407
L8.02944 -41.9552
L7.93827 -41.4679
L7.85565 -40.9789
L7.78161 -40.4884
L7.71616 -39.9965
L7.65932 -39.5034
L7.61112 -39.0093
L7.57156 -38.5142
L7.54067 -38.0184
L7.51844 -37.5219
L7.50489 -37.025
L7.50002 -36.5278
L7.50383 -36.0304
L7.51632 -35.533
L7.53748 -35.0357
L7.56732 -34.5388
L7.60582 -34.0423
L7.65296 -33.5463
L7.70875 -33.0512
L7.77315 -32.5569
L7.84614 -32.0637
L7.92772 -31.5716
L8.01784 -31.081
L8.11649 -30.5918
L8.22363 -30.1043
L8.33923 -29.6185
L8.46326 -29.1347
L8.59568 -28.653
L8.73644 -28.1736
L8.88551 -27.6965
L9.04284 -27.2219
L9.20838 -26.7501
L9.38208 -26.281
L9.56389 -25.8149
L9.75375 -25.3519
L9.95161 -24.8922
L10.1574 -24.4358
L10.3711 -23.9829
L10.5925 -23.5338
L10.8217 -23.0884
L11.0586 -22.6469
L11.3031 -22.2095
L11.5551 -21.7763
L11.8145 -21.3475
L12.0813 -20.9231
L12.3554 -20.5033
L12.6367 -20.0882
L12.9252 -19.678
L13.2206 -19.2727
L13.523 -18.8726
L13.8322 -18.4776
z
" id="C0_2_6661123bb9"/>
    </defs>
    <g clip-path="url(#p1bffca34e9)">
     <use style="fill:#ffffff;stroke:#000000;stroke-width:2.0;" x="0.0" xlink:href="#C0_0_a811fe30f3" y="72.0"/>
    </g>
    <g clip-path="url(#p1bffca34e9)">
     <use style="fill:#ff0000;stroke:#000000;stroke-width:2.0;" x="0.0" xlink:href="#C0_1_18d1286b47" y="72.0"/>
    </g>
    <g clip-path="url(#p1bffca34e9)">
     <use style="fill:#ff0000;stroke:#000000;stroke-width:2.0;" x="0.0" xlink:href="#C0_2_6661123bb9" y="72.0"/>
    </g>
   </g>
  </g>
 </g>
 <defs>
  <clipPath id="p1bffca34e9">
   <rect height="72.0" width="72.0" x="0.0" y="0.0"/>
  </clipPath>
 </defs>
</svg>
