<?xml version="1.0" encoding="utf-8" standalone="no"?>
<!DOCTYPE svg PUBLIC "-//W3C//DTD SVG 1.1//EN"
  "http://www.w3.org/Graphics/SVG/1.1/DTD/svg11.dtd">
<!-- Created with matplotlib (http://matplotlib.org/) -->
<svg height="72pt" version="1.1" viewBox="0 0 72 72" width="72pt" xmlns="http://www.w3.org/2000/svg" xmlns:xlink="http://www.w3.org/1999/xlink">
 <defs>
  <style type="text/css">
*{stroke-linecap:butt;stroke-linejoin:round;}
  </style>
 </defs>
 <g id="figure_1">
  <g id="patch_1">
   <path d="
M0 72
L72 72
L72 0
L0 0
z
" style="fill:none;"/>
  </g>
  <g id="axes_1">
   <g id="PatchCollection_1">
    <defs>
     <path d="
M36 -7.5
C43.5583 -7.5 50.808 -10.5029 56.1525 -15.8475
C61.4971 -21.192 64.5 -28.4417 64.5 -36
C64.5 -43.5583 61.4971 -50.808 56.1525 -56.1525
C50.808 -61.4971 43.5583 -64.5 36 -64.5
C28.4417 -64.5 21.192 -61.4971 15.8475 -56.1525
C10.5029 -50.808 7.5 -43.5583 7.5 -36
C7.5 -28.4417 10.5029 -21.192 15.8475 -15.8475
C21.192 -10.5029 28.4417 -7.5 36 -7.5
z
" id="C0_0_a811fe30f3"/>
     <path d="
M35.7989 -7.64039
L35.5146 -7.84657
L35.2623 -8.06279
L35.0426 -8.2884
L34.8559 -8.52275
L34.7021 -8.76521
L34.5803 -9.01515
L34.4894 -9.27201
L34.4278 -9.53521
L34.3936 -9.80426
L34.3845 -10.0787
L34.3983 -10.358
L34.4326 -10.6419
L34.4853 -10.9299
L34.5541 -11.2217
L34.637 -11.5169
L34.7322 -11.8153
L34.8378 -12.1165
L34.9524 -12.4203
L35.0745 -12.7263
L35.203 -13.0343
L35.3367 -13.344
L35.4747 -13.6552
L35.6161 -13.9677
L35.7602 -14.2812
L35.9062 -14.5954
L36.0538 -14.9102
L36.2023 -15.2254
L36.3513 -15.5408
L36.5004 -15.8562
L36.6494 -16.1714
L36.7979 -16.4862
L36.9456 -16.8006
L37.0925 -17.1143
L37.2382 -17.4273
L37.3826 -17.7393
L37.5257 -18.0504
L37.6672 -18.3604
L37.8072 -18.6692
L37.9454 -18.9767
L38.0819 -19.2829
L38.2167 -19.5877
L38.3496 -19.891
L38.4807 -20.1927
L38.6099 -20.4929
L38.7372 -20.7915
L38.8626 -21.0885
L38.9861 -21.3837
L39.1078 -21.6773
L39.2276 -21.9693
L39.3455 -22.2595
L39.4616 -22.548
L39.5758 -22.8348
L39.6883 -23.1199
L39.799 -23.4034
L39.908 -23.6852
L40.0152 -23.9653
L40.1208 -24.2438
L40.2247 -24.5207
L40.327 -24.7961
L40.4277 -25.0698
L40.5269 -25.3421
L40.6245 -25.6129
L40.7206 -25.8822
L40.8153 -26.1502
L40.9085 -26.4168
L41.0004 -26.682
L41.0909 -26.946
L41.18 -27.2087
L41.2679 -27.4703
L41.3545 -27.7307
L41.4399 -27.99
L41.524 -28.2482
L41.607 -28.5055
L41.6888 -28.7618
L41.7696 -29.0172
L41.8492 -29.2717
L41.9277 -29.5255
L42.0053 -29.7785
L42.0818 -30.0308
L42.1573 -30.2824
L42.2319 -30.5335
L42.3055 -30.7841
L42.3783 -31.0341
L42.4501 -31.2838
L42.5211 -31.5331
L42.5912 -31.782
L42.6605 -32.0307
L42.729 -32.2792
L42.7967 -32.5276
L42.8636 -32.7758
L42.9298 -33.0241
L42.9952 -33.2723
L43.124 -33.5206
L43.1873 -33.7691
L43.25 -34.0177
L43.312 -34.2666
L43.3733 -34.5158
L43.4341 -34.7654
L43.4942 -35.0153
L43.5537 -35.2658
L43.6126 -35.5168
L43.6709 -35.7684
L43.7286 -36.0206
L43.7857 -36.2736
L43.8423 -36.5273
L43.8983 -36.7819
L43.9538 -37.0373
L44.0087 -37.2937
L44.0631 -37.5511
L44.1169 -37.8096
L44.1702 -38.0692
L44.2229 -38.3299
L44.2752 -38.592
L44.3268 -38.8553
L44.378 -39.1199
L44.4286 -39.386
L44.4787 -39.6536
L44.5282 -39.9227
L44.5772 -40.1934
L44.6257 -40.4658
L44.6735 -40.7398
L44.7209 -41.0157
L44.7676 -41.2933
L44.8138 -41.5728
L44.8594 -41.8542
L44.9044 -42.1376
L44.9488 -42.4231
L44.9926 -42.7106
L45.0357 -43.0002
L45.0782 -43.292
L45.1201 -43.586
L45.1613 -43.8822
L45.2018 -44.1808
L45.2416 -44.4816
L45.2806 -44.7848
L45.319 -45.0904
L45.3566 -45.3984
L45.3934 -45.7088
L45.4295 -46.0216
L45.4647 -46.3369
L45.4992 -46.6546
L45.5328 -46.9747
L45.5656 -47.2973
L45.5976 -47.6223
L45.6287 -47.9497
L45.6589 -48.2794
L45.6883 -48.6114
L45.7169 -48.9456
L45.7446 -49.282
L45.7715 -49.6206
L45.7976 -49.9611
L45.823 -50.3035
L45.8476 -50.6476
L45.8716 -50.9934
L45.8951 -51.3407
L45.918 -51.6892
L45.9407 -52.0389
L45.9631 -52.3894
L45.9854 -52.7405
L46.0079 -53.0919
L46.0308 -53.4433
L46.0544 -53.7945
L46.079 -54.1449
L46.105 -54.4943
L46.1329 -54.8421
L46.1631 -55.1878
L46.1964 -55.5308
L46.2334 -55.8706
L46.2749 -56.2065
L46.3219 -56.5376
L46.3754 -56.8633
L46.4366 -57.1825
L46.5069 -57.4943
L46.5877 -57.7975
L46.6806 -58.0911
L46.7872 -58.3737
L46.9094 -58.6439
L47.0489 -58.9005
L47.2075 -59.1419
L47.3868 -59.3666
L47.5881 -59.5732
L47.8127 -59.7604
L48.0613 -59.9269
L48.3341 -60.0716
L48.6311 -60.1937
L48.9516 -60.2926
L49.2947 -60.3679
L49.6591 -60.4194
L50.043 -60.4472
L50.4447 -60.4515
L50.93 -60.4329
L51.3514 -60.2764
L51.7682 -60.0122
L52.1801 -59.7406
L52.5871 -59.4618
L52.989 -59.1758
L53.3858 -58.8828
L53.7773 -58.5828
L54.1633 -58.276
L54.5439 -57.9623
L54.9187 -57.642
L55.2879 -57.315
L55.6511 -56.9816
L56.0084 -56.6418
L56.3595 -56.2957
L56.7045 -55.9434
L57.0431 -55.5851
L57.3754 -55.2207
L57.7011 -54.8505
L58.0202 -54.4746
L58.3326 -54.0931
L58.6383 -53.706
L58.937 -53.3136
L59.2287 -52.9158
L59.5134 -52.5129
L59.7908 -52.105
L60.0611 -51.6922
L60.324 -51.2746
L60.5795 -50.8524
L60.8275 -50.4256
L61.068 -49.9944
L61.3008 -49.559
L61.5259 -49.1194
L61.7433 -48.6759
L61.9527 -48.2285
L62.1543 -47.7773
L62.348 -47.3226
L62.5336 -46.8644
L62.7111 -46.4029
L62.8804 -45.9382
L63.0416 -45.4706
L63.1946 -45
L63.3393 -44.5267
L63.4756 -44.0508
L63.6036 -43.5724
L63.7231 -43.0917
L63.8343 -42.6089
L63.9369 -42.1241
L64.031 -41.6374
L64.1166 -41.1489
L64.1936 -40.6589
L64.2621 -40.1675
L64.3219 -39.6748
L64.3731 -39.181
L64.4157 -38.6863
L64.4496 -38.1907
L64.4748 -37.6944
L64.4914 -37.1977
L64.4993 -36.7005
L64.4985 -36.2032
L64.489 -35.7058
L64.4709 -35.2084
L64.444 -34.7114
L64.4085 -34.2147
L64.3644 -33.7185
L64.3116 -33.2231
L64.2502 -32.7285
L64.1802 -32.2349
L64.1016 -31.7424
L64.0144 -31.2512
L63.9187 -30.7615
L63.8145 -30.2734
L63.7019 -29.787
L63.5808 -29.3025
L63.4513 -28.8201
L63.3134 -28.3398
L63.1672 -27.8619
L63.0127 -27.3865
L62.85 -26.9136
L62.6792 -26.4436
L62.5002 -25.9765
L62.3131 -25.5124
L62.118 -25.0515
L61.915 -24.5939
L61.704 -24.1398
L61.4853 -23.6894
L61.2588 -23.2426
L61.0245 -22.7998
L60.7827 -22.361
L60.5333 -21.9263
L60.2764 -21.4959
L60.0122 -21.07
L59.7406 -20.6486
L59.4618 -20.2318
L59.1758 -19.8199
L58.8828 -19.4129
L58.5828 -19.011
L58.276 -18.6142
L57.9623 -18.2227
L57.642 -17.8367
L57.315 -17.4561
L56.9816 -17.0813
L56.6418 -16.7121
L56.2957 -16.3489
L55.9434 -15.9916
L55.5851 -15.6405
L55.2207 -15.2955
L54.8505 -14.9569
L54.4746 -14.6246
L54.0931 -14.2989
L53.706 -13.9798
L53.3136 -13.6674
L52.9158 -13.3617
L52.5129 -13.063
L52.105 -12.7713
L51.6922 -12.4866
L51.2746 -12.2092
L50.8524 -11.9389
L50.4256 -11.676
L49.9944 -11.4205
L49.559 -11.1725
L49.1194 -10.932
L48.6759 -10.6992
L48.2285 -10.4741
L47.7773 -10.2567
L47.3226 -10.0473
L46.8644 -9.84566
L46.4029 -9.65204
L45.9382 -9.46645
L45.4706 -9.28893
L45 -9.11955
L44.5267 -8.95836
L44.0508 -8.80541
L43.5724 -8.66074
L43.0917 -8.5244
L42.6089 -8.39643
L42.1241 -8.27686
L41.6374 -8.16574
L41.1489 -8.0631
L40.6589 -7.96897
L40.1675 -7.88338
L39.6748 -7.80635
L39.181 -7.73791
L38.6863 -7.67808
L38.1907 -7.62688
L37.6944 -7.58432
L37.1977 -7.55041
L36.7005 -7.52518
z
" id="C0_1_a5a2db5df0"/>
     <path d="
M21.2033 -11.7159
L20.959 -12.0731
L20.706 -12.438
L20.4467 -12.81
L20.1829 -13.1885
L19.9164 -13.5731
L19.6489 -13.9632
L19.3816 -14.3582
L19.1159 -14.7578
L18.8527 -15.1613
L18.593 -15.5682
L18.3376 -15.9782
L18.0872 -16.3907
L17.8422 -16.8053
L17.6032 -17.2216
L17.3705 -17.6391
L17.1444 -18.0576
L16.9251 -18.4766
L16.7129 -18.8959
L16.5078 -19.315
L16.31 -19.7337
L16.1195 -20.1518
L15.9363 -20.5689
L15.7603 -20.9848
L15.5916 -21.3994
L15.4301 -21.8124
L15.2757 -22.2236
L15.1283 -22.6329
L14.9878 -23.0401
L14.8541 -23.4451
L14.727 -23.8478
L14.6065 -24.248
L14.4924 -24.6457
L14.3846 -25.0408
L14.2828 -25.4332
L14.1871 -25.8229
L14.0972 -26.2099
L14.0129 -26.594
L13.9342 -26.9753
L13.8609 -27.3537
L13.7929 -27.7293
L13.73 -28.102
L13.6721 -28.4718
L13.6191 -28.8388
L13.5708 -29.203
L13.5271 -29.5643
L13.488 -29.9228
L13.4532 -30.2786
L13.4226 -30.6317
L13.3962 -30.982
L13.3739 -31.3298
L13.3555 -31.6749
L13.341 -32.0174
L13.3303 -32.3575
L13.3232 -32.6951
L13.3198 -33.0302
L13.3198 -33.3631
L13.3233 -33.6936
L13.3302 -34.0219
L13.3404 -34.348
L13.3538 -34.672
L13.3705 -34.9939
L13.3902 -35.3139
L13.4131 -35.6319
L13.4389 -35.948
L13.4678 -36.2623
L13.4996 -36.5748
L13.5343 -36.8857
L13.5719 -37.1949
L13.6124 -37.5025
L13.6557 -37.8087
L13.7017 -38.1134
L13.7506 -38.4167
L13.8022 -38.7187
L13.8565 -39.0194
L13.9136 -39.3189
L13.9734 -39.6173
L14.036 -39.9146
L14.1012 -40.2109
L14.1692 -40.5062
L14.2399 -40.8006
L14.3134 -41.0942
L14.3895 -41.387
L14.4685 -41.679
L14.5502 -41.9704
L14.6347 -42.2611
L14.722 -42.5512
L14.8121 -42.8408
L14.9051 -43.13
L15.001 -43.4187
L15.0998 -43.7071
L15.2015 -43.9951
L15.3063 -44.2829
L15.4141 -44.5704
L15.5249 -44.8578
L15.6389 -45.145
L15.7561 -45.4321
L15.8765 -45.7191
L16.0002 -46.0062
L16.1273 -46.2932
L16.2577 -46.5803
L16.3916 -46.8675
L16.5291 -47.1549
L16.6701 -47.4423
L16.8148 -47.73
L16.9633 -48.0179
L17.1157 -48.306
L17.2719 -48.5943
L17.4321 -48.883
L17.5965 -49.1719
L17.765 -49.4611
L17.9377 -49.7506
L18.1149 -50.0404
L18.2965 -50.3306
L18.4827 -50.6211
L18.6735 -50.9119
L18.8691 -51.2029
L19.0696 -51.4943
L19.2751 -51.786
L19.4857 -52.0779
L19.7015 -52.37
L19.9226 -52.6622
L20.1492 -52.9547
L20.3813 -53.2472
L20.6191 -53.5398
L20.8626 -53.8323
L21.1121 -54.1248
L21.3676 -54.4171
L21.6292 -54.7091
L21.897 -55.0008
L22.1711 -55.2921
L22.4517 -55.5829
L22.7388 -55.873
L23.0325 -56.1623
L23.3329 -56.4508
L23.64 -56.7381
L23.9539 -57.0243
L24.2747 -57.3092
L24.6023 -57.5925
L24.9369 -57.8741
L25.2783 -58.1539
L25.6267 -58.4316
L25.9818 -58.707
L26.3437 -58.98
L26.7122 -59.2503
L27.0872 -59.5177
L27.4685 -59.7821
L27.856 -60.0432
L28.2492 -60.3008
L28.648 -60.5547
L29.0519 -60.8048
L29.4606 -61.0508
L29.8734 -61.2927
L30.2897 -61.5302
L30.709 -61.7633
L31.1304 -61.9919
L31.553 -62.216
L31.9758 -62.4356
L32.3976 -62.6509
L32.8172 -62.8619
L33.233 -63.0689
L33.6436 -63.2723
L34.0471 -63.4724
L34.4416 -63.6697
L34.8251 -63.8648
L35.1953 -64.0584
L35.5499 -64.2513
L35.389 -64.4443
L34.8918 -64.4934
L34.395 -64.4784
L33.8986 -64.4548
L33.4029 -64.4224
L32.9079 -64.3814
L32.414 -64.3318
L31.9211 -64.2735
L31.4294 -64.2066
L30.9392 -64.1311
L30.4504 -64.0471
L29.9634 -63.9545
L29.4782 -63.8534
L28.995 -63.7438
L28.5139 -63.6257
L28.0352 -63.4993
L27.5588 -63.3644
L27.085 -63.2212
L26.6139 -63.0698
L26.1457 -62.9101
L25.6805 -62.7422
L25.2184 -62.5661
L24.7596 -62.382
L24.3043 -62.1898
L23.8525 -61.9896
L23.4044 -61.7815
L22.9601 -61.5656
L22.5198 -61.3419
L22.0836 -61.1105
L21.6517 -60.8714
L21.2241 -60.6247
L20.801 -60.3705
L20.3826 -60.109
L19.9689 -59.84
L19.5601 -59.5638
L19.1563 -59.2805
L18.7577 -58.99
L18.3642 -58.6925
L17.9762 -58.3882
L17.5936 -58.077
L17.2167 -57.759
L16.8455 -57.4345
L16.4801 -57.1034
L16.1206 -56.7659
L15.7673 -56.4221
L15.42 -56.072
L15.0791 -55.7159
L14.7445 -55.3537
L14.4164 -54.9856
L14.0949 -54.6118
L13.78 -54.2322
L13.4719 -53.8472
L13.1707 -53.4567
L12.8764 -53.0608
L12.5892 -52.6598
L12.3091 -52.2537
L12.0362 -51.8427
L11.7706 -51.4268
L11.5124 -51.0062
L11.2617 -50.5811
L11.0184 -50.1515
L10.7828 -49.7176
L10.5549 -49.2795
L10.3348 -48.8374
L10.1224 -48.3913
L9.91794 -47.9415
L9.72142 -47.4881
L9.5329 -47.0311
L9.35244 -46.5708
L9.18011 -46.1073
L9.01594 -45.6407
L8.85999 -45.1712
L8.71231 -44.6988
L8.57294 -44.2239
L8.44192 -43.7464
L8.3193 -43.2665
L8.20511 -42.7845
L8.09939 -42.3003
L8.00216 -41.8143
L7.91347 -41.3265
L7.83333 -40.837
L7.76177 -40.3461
L7.69881 -39.8539
L7.64447 -39.3605
L7.59877 -38.866
L7.56172 -38.3707
L7.53334 -37.8747
L7.51362 -37.3781
L7.50258 -36.8811
L7.50023 -36.3838
L7.50655 -35.8864
L7.52155 -35.389
L7.54523 -34.8918
L7.57758 -34.395
L7.61858 -33.8986
L7.66823 -33.4029
L7.72651 -32.9079
L7.7934 -32.414
L7.86888 -31.9211
L7.95294 -31.4294
L8.04553 -30.9392
L8.14664 -30.4504
L8.25624 -29.9634
L8.37428 -29.4782
L8.50075 -28.995
L8.63558 -28.5139
L8.77876 -28.0352
L8.93022 -27.5588
L9.08993 -27.085
L9.25784 -26.6139
L9.43389 -26.1457
L9.61804 -25.6805
L9.81022 -25.2184
L10.0104 -24.7596
L10.2185 -24.3043
L10.4344 -23.8525
L10.6581 -23.4044
L10.8895 -22.9601
L11.1286 -22.5198
L11.3753 -22.0836
L11.6295 -21.6517
L11.891 -21.2241
L12.16 -20.801
L12.4362 -20.3826
L12.7195 -19.9689
L13.01 -19.5601
L13.3075 -19.1563
L13.6118 -18.7577
L13.923 -18.3642
L14.241 -17.9762
L14.5655 -17.5936
L14.8966 -17.2167
L15.2341 -16.8455
L15.5779 -16.4801
L15.928 -16.1206
L16.2841 -15.7673
L16.6463 -15.42
L17.0144 -15.0791
L17.3882 -14.7445
L17.7678 -14.4164
L18.1528 -14.0949
L18.5433 -13.78
L18.9392 -13.4719
L19.3402 -13.1707
L19.7463 -12.8764
L20.1573 -12.5892
L20.5732 -12.3091
z
" id="C0_2_911e40c0f0"/>
    </defs>
    <g clip-path="url(#p1bffca34e9)">
     <use style="fill:#ff0000;stroke:#000000;stroke-width:2.0;" x="0.0" xlink:href="#C0_0_a811fe30f3" y="72.0"/>
    </g>
    <g clip-path="url(#p1bffca34e9)">
     <use style="fill:#ffffff;stroke:#000000;stroke-width:2.0;" x="0.0" xlink:href="#C0_1_a5a2db5df0" y="72.0"/>
    </g>
    <g clip-path="url(#p1bffca34e9)">
     <use style="fill:#ffffff;stroke:#000000;stroke-width:2.0;" x="0.0" xlink:href="#C0_2_911e40c0f0" y="72.0"/>
    </g>
   </g>
  </g>
 </g>
 <defs>
  <clipPath id="p1bffca34e9">
   <rect height="72.0" width="72.0" x="0.0" y="0.0"/>
  </clipPath>
 </defs>
</svg>
