<?xml version="1.0" encoding="utf-8" standalone="no"?>
<!DOCTYPE svg PUBLIC "-//W3C//DTD SVG 1.1//EN"
  "http://www.w3.org/Graphics/SVG/1.1/DTD/svg11.dtd">
<!-- Created with matplotlib (http://matplotlib.org/) -->
<svg height="72pt" version="1.1" viewBox="0 0 72 72" width="72pt" xmlns="http://www.w3.org/2000/svg" xmlns:xlink="http://www.w3.org/1999/xlink">
 <defs>
  <style type="text/css">
*{stroke-linecap:butt;stroke-linejoin:round;}
  </style>
 </defs>
 <g id="figure_1">
  <g id="patch_1">
   <path d="
M0 72
L72 72
L72 0
L0 0
z
" style="fill:none;"/>
  </g>
  <g id="axes_1">
   <g id="PatchCollection_1">
    <defs>
     <path d="
M36 -7.5
C43.5583 -7.5 50.808 -10.5029 56.1525 -15.8475
C61.4971 -21.192 64.5 -28.4417 64.5 -36
C64.5 -43.5583 61.4971 -50.808 56.1525 -56.1525
C50.808 -61.4971 43.5583 -64.5 36 -64.5
C28.4417 -64.5 21.192 -61.4971 15.8475 -56.1525
C10.5029 -50.808 7.5 -43.5583 7.5 -36
C7.5 -28.4417 10.5029 -21.192 15.8475 -15.8475
C21.192 -10.5029 28.4417 -7.5 36 -7.5
z
" id="C0_0_a811fe30f3"/>
     <path d="
M7.70219 -37.2178
L7.91607 -37.3416
L8.13276 -37.4562
L8.35211 -37.5618
L8.57396 -37.6585
L8.79815 -37.7465
L9.02453 -37.8262
L9.25297 -37.8977
L9.48333 -37.9613
L9.71549 -38.0171
L9.94932 -38.0655
L10.1847 -38.1067
L10.4215 -38.1408
L10.6597 -38.1682
L10.8992 -38.189
L11.1397 -38.2035
L11.3814 -38.212
L11.624 -38.2146
L11.8675 -38.2115
L12.1119 -38.2031
L12.357 -38.1895
L12.6027 -38.1708
L12.8491 -38.1474
L13.0961 -38.1194
L13.3435 -38.087
L13.5914 -38.0504
L13.8397 -38.0098
L14.0883 -37.9653
L14.3372 -37.9172
L14.5863 -37.8655
L14.8356 -37.8105
L15.0851 -37.7523
L15.3348 -37.6911
L15.5845 -37.6269
L15.8343 -37.5599
L16.0841 -37.4903
L16.3339 -37.4182
L16.5837 -37.3437
L16.8335 -37.2669
L17.0832 -37.1879
L17.3328 -37.1068
L17.5823 -37.0238
L17.8316 -36.9388
L18.0808 -36.8521
L18.3299 -36.7637
L18.5788 -36.6737
L18.8275 -36.5821
L19.076 -36.489
L19.3243 -36.3945
L19.5724 -36.2987
L19.8203 -36.2016
L20.068 -36.1033
L20.3155 -36.0038
L20.5627 -35.9032
L20.8097 -35.8015
L21.0565 -35.6989
L21.3031 -35.5952
L21.5494 -35.4906
L21.7956 -35.3851
L22.0415 -35.2788
L22.2872 -35.1716
L22.5327 -35.0636
L22.778 -34.9549
L23.0231 -34.8454
L23.268 -34.7352
L23.5128 -34.6243
L23.7573 -34.5127
L24.0017 -34.4005
L24.246 -34.2876
L24.4901 -34.1741
L24.7341 -34.06
L24.978 -33.9453
L25.2218 -33.83
L25.4654 -33.7141
L25.709 -33.5977
L25.9525 -33.4807
L26.196 -33.3631
L26.4394 -33.245
L26.6827 -33.1263
L26.9261 -33.0071
L27.1694 -32.8874
L27.4127 -32.7671
L27.656 -32.6463
L28.1428 -32.5249
L28.3862 -32.403
L28.6297 -32.2805
L28.8733 -32.1575
L29.1169 -32.0339
L29.3607 -31.9098
L29.6045 -31.785
L29.8484 -31.6598
L30.0925 -31.5339
L30.3367 -31.4075
L30.581 -31.2804
L30.8255 -31.1527
L31.0701 -31.0245
L31.3149 -30.8956
L31.5598 -30.766
L31.8049 -30.6358
L32.0502 -30.505
L32.2956 -30.3735
L32.5412 -30.2413
L32.787 -30.1084
L33.0329 -29.9747
L33.279 -29.8404
L33.5252 -29.7053
L33.7716 -29.5694
L34.0181 -29.4328
L34.2648 -29.2953
L34.5116 -29.1571
L34.7585 -29.018
L35.0055 -28.8781
L35.2525 -28.7373
L35.4997 -28.5957
L35.7468 -28.4531
L35.994 -28.3096
L36.2411 -28.1652
L36.4882 -28.0198
L36.7352 -27.8734
L36.9821 -27.726
L37.2289 -27.5775
L37.4754 -27.428
L37.7217 -27.2775
L37.9678 -27.1258
L38.2135 -26.973
L38.4588 -26.819
L38.7036 -26.6639
L38.948 -26.5075
L39.1918 -26.3499
L39.4349 -26.191
L39.6773 -26.0309
L39.9189 -25.8694
L40.1597 -25.7066
L40.3995 -25.5423
L40.6382 -25.3767
L40.8758 -25.2096
L41.1121 -25.041
L41.3471 -24.8709
L41.5806 -24.6992
L41.8125 -24.5259
L42.0427 -24.3511
L42.2711 -24.1745
L42.4976 -23.9963
L42.7219 -23.8163
L42.9441 -23.6346
L43.1638 -23.451
L43.3811 -23.2656
L43.5957 -23.0783
L43.8074 -22.8891
L44.0162 -22.698
L44.2218 -22.5048
L44.4242 -22.3096
L44.623 -22.1123
L44.8181 -21.913
L45.0094 -21.7115
L45.1967 -21.5078
L45.3798 -21.302
L45.5585 -21.0939
L45.7326 -20.8835
L45.9019 -20.6709
L46.0663 -20.4561
L46.2256 -20.2389
L46.3795 -20.0194
L46.5279 -19.7975
L46.6706 -19.5733
L46.8074 -19.3469
L46.9382 -19.118
L47.0627 -18.8869
L47.1809 -18.6535
L47.2924 -18.4178
L47.3972 -18.1799
L47.4952 -17.9398
L47.586 -17.6975
L47.6697 -17.4531
L47.7461 -17.2066
L47.8149 -16.9582
L47.8762 -16.7078
L47.9298 -16.4556
L47.9756 -16.2017
L48.0134 -15.946
L48.0432 -15.6888
L48.065 -15.4301
L48.0785 -15.1701
L48.0839 -14.9088
L48.0809 -14.6464
L48.0695 -14.383
L48.0498 -14.1187
L48.0216 -13.8538
L47.9849 -13.5882
L47.9397 -13.3222
L47.8861 -13.0559
L47.8239 -12.7895
L47.7532 -12.5231
L47.674 -12.2568
L47.5864 -11.9909
L47.4902 -11.7255
L47.3856 -11.4607
L47.2725 -11.1968
L47.1511 -10.9338
L47.0213 -10.6719
L46.8832 -10.4114
L46.7368 -10.1523
L46.5821 -9.8949
L46.1542 -9.63925
L45.6879 -9.37026
L45.2186 -9.1971
L44.7465 -9.03211
L44.2718 -8.87533
L43.7946 -8.72681
L43.315 -8.5866
L42.8331 -8.45474
L42.3492 -8.33127
L41.8633 -8.21623
L41.3757 -8.10965
L40.8864 -8.01157
L40.3956 -7.92202
L39.9035 -7.84101
L39.4102 -7.76859
L38.9159 -7.70476
L38.4206 -7.64956
L37.9247 -7.60299
L37.4281 -7.56506
L36.9311 -7.5358
L36.4339 -7.51522
L35.9365 -7.5033
L35.4391 -7.50007
L34.9419 -7.50552
L34.445 -7.51965
L33.9486 -7.54245
L33.4528 -7.57393
L32.9578 -7.61406
L32.4637 -7.66284
L31.9707 -7.72025
L31.4789 -7.78627
L30.9885 -7.86089
L30.4996 -7.94408
L30.0124 -8.03582
L29.527 -8.13607
L29.0436 -8.24481
L28.5623 -8.36201
L28.0833 -8.48762
L27.6067 -8.62162
L27.1326 -8.76396
L26.6613 -8.91459
L26.1928 -9.07347
L25.7272 -9.24055
L25.2648 -9.41579
L24.8057 -9.59912
L24.35 -9.7905
L23.8978 -9.98986
L23.4494 -10.1971
L23.0047 -10.4123
L22.564 -10.6352
L22.1274 -10.8659
L21.695 -11.1042
L21.267 -11.3501
L20.8435 -11.6035
L20.4245 -11.8644
L20.0104 -12.1325
L19.6011 -12.408
L19.1968 -12.6907
L18.7976 -12.9804
L18.4036 -13.2772
L18.015 -13.5809
L17.6319 -13.8914
L17.2544 -14.2086
L16.8826 -14.5325
L16.5166 -14.8629
L16.1566 -15.1998
L15.8026 -15.543
L15.4547 -15.8924
L15.1131 -16.248
L14.7779 -16.6096
L14.4492 -16.977
L14.127 -17.3503
L13.8114 -17.7293
L13.5026 -18.1138
L13.2007 -18.5038
L12.9057 -18.899
L12.6178 -19.2996
L12.337 -19.7051
L12.0633 -20.1157
L11.797 -20.5311
L11.5381 -20.9512
L11.2866 -21.3759
L11.0426 -21.805
L10.8062 -22.2385
L10.5775 -22.6762
L10.3566 -23.1179
L10.1434 -23.5635
L9.93818 -24.013
L9.74086 -24.4661
L9.55153 -24.9227
L9.37026 -25.3826
L9.1971 -25.8458
L9.03211 -26.3121
L8.87533 -26.7814
L8.72681 -27.2535
L8.5866 -27.7282
L8.45474 -28.2054
L8.33127 -28.685
L8.21623 -29.1669
L8.10965 -29.6508
L8.01157 -30.1367
L7.92202 -30.6243
L7.84101 -31.1136
L7.76859 -31.6044
L7.70476 -32.0965
L7.64956 -32.5898
L7.60299 -33.0841
L7.56506 -33.5794
L7.5358 -34.0753
L7.51522 -34.5719
L7.5033 -35.0689
L7.50007 -35.5661
L7.50552 -36.0635
z
" id="C0_1_57828b04d5"/>
     <path d="
M25.64 -62.4628
L25.9337 -62.3885
L26.2284 -62.3131
L26.5241 -62.2364
L26.8205 -62.1584
L27.1176 -62.0791
L27.4153 -61.9984
L27.7134 -61.9163
L28.0118 -61.8327
L28.3104 -61.7477
L28.6091 -61.6612
L28.9078 -61.5731
L29.2065 -61.4834
L29.505 -61.3922
L29.8033 -61.2995
L30.1013 -61.2051
L30.399 -61.1091
L30.6962 -61.0115
L30.9929 -60.9124
L31.2891 -60.8115
L31.5846 -60.7091
L31.8796 -60.605
L32.1738 -60.4993
L32.4673 -60.392
L32.7601 -60.2831
L33.052 -60.1725
L33.3431 -60.0604
L33.6334 -59.9466
L33.9228 -59.8312
L34.2113 -59.7142
L34.4989 -59.5956
L34.7855 -59.4754
L35.0712 -59.3537
L35.3559 -59.2303
L35.6396 -59.1054
L35.9224 -58.9789
L36.2042 -58.8508
L36.485 -58.7212
L36.7648 -58.59
L37.0436 -58.4573
L37.3214 -58.323
L37.5983 -58.1871
L37.8741 -58.0498
L38.149 -57.9108
L38.4229 -57.7704
L38.6958 -57.6284
L38.9678 -57.4849
L39.2388 -57.3398
L39.5088 -57.1932
L39.778 -57.0451
L40.0462 -56.8954
L40.3135 -56.7442
L40.5798 -56.5915
L40.8453 -56.4372
L41.1099 -56.2814
L41.3737 -56.1241
L41.6366 -55.9652
L41.8987 -55.8047
L42.1599 -55.6427
L42.4203 -55.4791
L42.6799 -55.314
L42.9388 -55.1473
L43.1968 -54.979
L43.4541 -54.8091
L43.7107 -54.6377
L43.9665 -54.4646
L44.2216 -54.29
L44.476 -54.1137
L44.7297 -53.9359
L44.9827 -53.7564
L45.235 -53.5753
L45.4867 -53.3925
L45.7378 -53.2081
L45.9882 -53.0221
L46.238 -52.8344
L46.4871 -52.6451
L46.7357 -52.4541
L46.9836 -52.2614
L47.231 -52.067
L47.4778 -51.871
L47.724 -51.6733
L47.9696 -51.4739
L48.2147 -51.2728
L48.4592 -51.07
L48.7032 -50.8655
L48.9466 -50.6593
L49.1895 -50.4515
L49.4318 -50.2419
L49.6736 -50.0307
L49.9149 -49.8178
L50.1556 -49.6032
L50.3958 -49.387
L50.6354 -49.1691
L50.8745 -48.9496
L51.1131 -48.7284
L51.3511 -48.5057
L51.5885 -48.2813
L51.8254 -48.0554
L52.0618 -47.828
L52.2976 -47.599
L52.5328 -47.3685
L52.7675 -47.1366
L53.0015 -46.9033
L53.235 -46.6686
L53.4679 -46.4325
L53.7002 -46.1951
L53.9319 -45.9565
L54.1629 -45.7167
L54.3933 -45.4758
L54.6231 -45.2338
L54.8523 -44.9908
L55.0808 -44.7468
L55.3086 -44.502
L55.5357 -44.2564
L55.7622 -44.0101
L55.988 -43.7631
L56.2131 -43.5157
L56.4375 -43.2678
L56.6611 -43.0196
L56.8841 -42.7712
L57.1063 -42.5227
L57.3279 -42.2743
L57.5487 -42.0259
L57.7687 -41.7779
L57.9881 -41.5302
L58.2067 -41.2831
L58.4245 -41.0366
L58.6417 -40.791
L58.8581 -40.5464
L59.0738 -40.3029
L59.2888 -40.0607
L59.503 -39.82
L59.7166 -39.5809
L59.9294 -39.3436
L60.1416 -39.1082
L60.3531 -38.8749
L60.5639 -38.644
L60.774 -38.4155
L60.9835 -38.1897
L61.1923 -37.9667
L61.4005 -37.7467
L61.6081 -37.5299
L61.815 -37.3164
L62.0213 -37.1064
L62.2271 -36.9002
L62.4322 -36.6977
L62.6367 -36.4993
L62.8406 -36.305
L63.0439 -36.115
L63.2466 -35.9295
L63.4488 -35.7486
L63.6503 -35.5724
L63.8512 -35.4011
L64.0515 -35.2348
L64.2511 -35.0737
L64.494 -34.9177
L64.4999 -35.4138
L64.4971 -35.9112
L64.4856 -36.4086
L64.4655 -36.9059
L64.4366 -37.4029
L64.3992 -37.8994
L64.353 -38.3954
L64.2983 -38.8907
L64.2349 -39.3851
L64.1629 -39.8785
L64.0823 -40.3706
L63.9932 -40.8615
L63.8955 -41.3508
L63.7894 -41.8386
L63.6748 -42.3245
L63.5517 -42.8086
L63.4203 -43.2905
L63.2805 -43.7702
L63.1324 -44.2476
L62.9761 -44.7225
L62.8115 -45.1947
L62.6387 -45.6641
L62.4579 -46.1305
L62.269 -46.5939
L62.072 -47.054
L61.8672 -47.5108
L61.6544 -47.9641
L61.4339 -48.4137
L61.2056 -48.8595
L60.9696 -49.3015
L60.726 -49.7393
L60.4749 -50.173
L60.2163 -50.6024
L59.9504 -51.0273
L59.6771 -51.4476
L59.3967 -51.8633
L59.1091 -52.2741
L58.8145 -52.6799
L58.5129 -53.0807
L58.2044 -53.4763
L57.8893 -53.8665
L57.5674 -54.2513
L57.239 -54.6306
L56.9041 -55.0041
L56.5628 -55.3719
L56.2153 -55.7338
L55.8616 -56.0896
L55.5018 -56.4394
L55.1361 -56.7829
L54.7646 -57.1201
L54.3874 -57.4508
L54.0046 -57.7751
L53.6163 -58.0927
L53.2226 -58.4035
L52.8237 -58.7075
L52.4196 -59.0047
L52.0106 -59.2948
L51.5966 -59.5778
L51.1779 -59.8536
L50.7546 -60.1222
L50.3269 -60.3834
L49.8947 -60.6372
L49.4583 -60.8835
L49.0178 -61.1222
L48.5733 -61.3532
L48.1251 -61.5766
L47.6731 -61.7921
L47.2175 -61.9998
L46.7586 -62.1996
L46.2964 -62.3913
L45.831 -62.5751
L45.3626 -62.7507
L44.8914 -62.9182
L44.4175 -63.0775
L43.941 -63.2286
L43.4621 -63.3713
L42.9809 -63.5058
L42.4976 -63.6318
L42.0123 -63.7494
L41.5252 -63.8586
L41.0364 -63.9593
L40.5461 -64.0515
L40.0544 -64.1351
L39.5614 -64.2101
L39.0674 -64.2766
L38.5724 -64.3345
L38.0767 -64.3837
L37.5803 -64.4242
L37.0834 -64.4562
L36.5862 -64.4794
L36.0888 -64.494
L35.5914 -64.4999
L35.0941 -64.4971
L34.5971 -64.4856
L34.1006 -64.4655
L33.6046 -64.4366
L33.1093 -64.3992
L32.6149 -64.353
L32.1215 -64.2983
L31.6294 -64.2349
L31.1385 -64.1629
L30.6492 -64.0823
L30.1614 -63.9932
L29.6755 -63.8955
L29.1914 -63.7894
L28.7095 -63.6748
L28.2298 -63.5517
L27.7524 -63.4203
L27.2775 -63.2805
L26.8053 -63.1324
L26.3359 -62.9761
z
" id="C0_2_64a8f06d7c"/>
    </defs>
    <g clip-path="url(#p1bffca34e9)">
     <use style="fill:#ff0000;stroke:#000000;stroke-width:2.0;" x="0.0" xlink:href="#C0_0_a811fe30f3" y="72.0"/>
    </g>
    <g clip-path="url(#p1bffca34e9)">
     <use style="fill:#ffffff;stroke:#000000;stroke-width:2.0;" x="0.0" xlink:href="#C0_1_57828b04d5" y="72.0"/>
    </g>
    <g clip-path="url(#p1bffca34e9)">
     <use style="fill:#ffffff;stroke:#000000;stroke-width:2.0;" x="0.0" xlink:href="#C0_2_64a8f06d7c" y="72.0"/>
    </g>
   </g>
  </g>
 </g>
 <defs>
  <clipPath id="p1bffca34e9">
   <rect height="72.0" width="72.0" x="0.0" y="0.0"/>
  </clipPath>
 </defs>
</svg>
