<?xml version="1.0" encoding="utf-8" standalone="no"?>
<!DOCTYPE svg PUBLIC "-//W3C//DTD SVG 1.1//EN"
  "http://www.w3.org/Graphics/SVG/1.1/DTD/svg11.dtd">
<!-- Created with matplotlib (http://matplotlib.org/) -->
<svg height="72pt" version="1.1" viewBox="0 0 72 72" width="72pt" xmlns="http://www.w3.org/2000/svg" xmlns:xlink="http://www.w3.org/1999/xlink">
 <defs>
  <style type="text/css">
*{stroke-linecap:butt;stroke-linejoin:round;}
  </style>
 </defs>
 <g id="figure_1">
  <g id="patch_1">
   <path d="
M0 72
L72 72
L72 0
L0 0
z
" style="fill:none;"/>
  </g>
  <g id="axes_1">
   <g id="PatchCollection_1">
    <defs>
     <path d="
M36 -7.5
C43.5583 -7.5 50.808 -10.5029 56.1525 -15.8475
C61.4971 -21.192 64.5 -28.4417 64.5 -36
C64.5 -43.5583 61.4971 -50.808 56.1525 -56.1525
C50.808 -61.4971 43.5583 -64.5 36 -64.5
C28.4417 -64.5 21.192 -61.4971 15.8475 -56.1525
C10.5029 -50.808 7.5 -43.5583 7.5 -36
C7.5 -28.4417 10.5029 -21.192 15.8475 -15.8475
C21.192 -10.5029 28.4417 -7.5 36 -7.5
z
" id="C0_0_a811fe30f3"/>
     <path d="
M10.6532 -23.42
L10.8527 -23.5818
L11.072 -23.7199
L11.3092 -23.8364
L11.5627 -23.9337
L11.8307 -24.0142
L12.1117 -24.08
L12.4041 -24.1333
L12.7066 -24.176
L13.0177 -24.2099
L13.3365 -24.2366
L13.6617 -24.2574
L13.9925 -24.2735
L14.3279 -24.286
L14.6673 -24.2957
L15.0098 -24.3034
L15.3549 -24.3098
L15.702 -24.3153
L16.0506 -24.3205
L16.4002 -24.3257
L16.7505 -24.3313
L17.1009 -24.3374
L17.4512 -24.3444
L17.8012 -24.3524
L18.1504 -24.3615
L18.4987 -24.3719
L18.8458 -24.3837
L19.1916 -24.3968
L19.5359 -24.4114
L19.8784 -24.4274
L20.2192 -24.445
L20.558 -24.464
L20.8948 -24.4845
L21.2294 -24.5066
L21.5618 -24.5301
L21.8919 -24.555
L22.2197 -24.5814
L22.5451 -24.6092
L22.8681 -24.6383
L23.1887 -24.6688
L23.5068 -24.7006
L23.8225 -24.7336
L24.1357 -24.7679
L24.4464 -24.8034
L24.7547 -24.84
L25.0605 -24.8778
L25.364 -24.9167
L25.665 -24.9566
L25.9637 -24.9976
L26.2601 -25.0396
L26.5541 -25.0826
L26.846 -25.1265
L27.1356 -25.1714
L27.423 -25.2172
L27.7083 -25.2638
L27.9916 -25.3113
L28.2728 -25.3597
L28.5521 -25.4089
L28.8294 -25.4589
L29.1049 -25.5097
L29.3785 -25.5613
L29.6504 -25.6136
L29.9206 -25.6667
L30.1892 -25.7205
L30.4562 -25.7751
L30.7217 -25.8304
L30.9856 -25.8864
L31.2482 -25.9431
L31.5095 -26.0005
L31.7694 -26.0587
L32.0281 -26.1175
L32.2857 -26.1771
L32.5421 -26.2374
L32.7975 -26.2983
L33.0519 -26.36
L33.3054 -26.4224
L33.558 -26.4855
L33.8097 -26.5494
L34.0608 -26.614
L34.3111 -26.6793
L34.5608 -26.7453
L34.8099 -26.8121
L35.0585 -26.8797
L35.3067 -26.9481
L35.5544 -27.0172
L35.8018 -27.0872
L36.2958 -27.1579
L36.5426 -27.2295
L36.7892 -27.302
L37.0358 -27.3753
L37.2823 -27.4495
L37.529 -27.5246
L37.7757 -27.6006
L38.0226 -27.6775
L38.2698 -27.7555
L38.5172 -27.8344
L38.765 -27.9143
L39.0132 -27.9952
L39.2618 -28.0772
L39.511 -28.1602
L39.7607 -28.2444
L40.0111 -28.3297
L40.2621 -28.4162
L40.5138 -28.5038
L40.7663 -28.5927
L41.0197 -28.6829
L41.274 -28.7743
L41.5292 -28.867
L41.7853 -28.9611
L42.0426 -29.0566
L42.3009 -29.1534
L42.5604 -29.2518
L42.8211 -29.3516
L43.083 -29.453
L43.3462 -29.5559
L43.6107 -29.6605
L43.8766 -29.7667
L44.144 -29.8746
L44.4128 -29.9842
L44.6831 -30.0955
L44.9549 -30.2087
L45.2284 -30.3238
L45.5034 -30.4407
L45.7801 -30.5596
L46.0585 -30.6805
L46.3386 -30.8034
L46.6204 -30.9283
L46.904 -31.0554
L47.1893 -31.1846
L47.4764 -31.316
L47.7653 -31.4496
L48.056 -31.5854
L48.3485 -31.7236
L48.6428 -31.8641
L48.9389 -32.0069
L49.2367 -32.1521
L49.5363 -32.2997
L49.8376 -32.4497
L50.1406 -32.6021
L50.4453 -32.757
L50.7515 -32.9143
L51.0593 -33.074
L51.3686 -33.2361
L51.6793 -33.4005
L51.9914 -33.5673
L52.3047 -33.7364
L52.6191 -33.9076
L52.9346 -34.081
L53.251 -34.2563
L53.5682 -34.4335
L53.8861 -34.6124
L54.2045 -34.7929
L54.5233 -34.9746
L54.8423 -35.1574
L55.1613 -35.3409
L55.4802 -35.5249
L55.7987 -35.7088
L56.1167 -35.8923
L56.434 -36.0747
L56.7503 -36.2555
L57.0654 -36.434
L57.3792 -36.6093
L57.6913 -36.7805
L58.0017 -36.9465
L58.3099 -37.1061
L58.6159 -37.2578
L58.9193 -37.4002
L59.2199 -37.5313
L59.5175 -37.6494
L59.8119 -37.7521
L60.1027 -37.8372
L60.3897 -37.9021
L60.6726 -37.9444
L60.951 -37.9614
L61.2246 -37.9506
L61.4929 -37.9099
L61.7555 -37.8374
L62.0118 -37.7317
L62.2613 -37.592
L62.5035 -37.418
L62.7376 -37.2101
L62.9632 -36.9693
L63.1795 -36.6971
L63.3862 -36.3952
L63.5825 -36.0656
L63.7681 -35.7106
L63.9426 -35.3322
L64.1054 -34.9328
L64.2564 -34.5144
L64.3952 -34.0791
L64.3554 -33.6287
L64.3011 -33.1329
L64.2381 -32.6384
L64.1665 -32.145
L64.0863 -31.6528
L63.9976 -31.1619
L63.9004 -30.6724
L63.7946 -30.1846
L63.6804 -29.6986
L63.5578 -29.2145
L63.4268 -28.7324
L63.2874 -28.2526
L63.1397 -27.7751
L62.9837 -27.3001
L62.8195 -26.8278
L62.6472 -26.3582
L62.4667 -25.8916
L62.2782 -25.4281
L62.0816 -24.9678
L61.8771 -24.5109
L61.6648 -24.0575
L61.4446 -23.6077
L61.2166 -23.1616
L60.981 -22.7195
L60.7378 -22.2814
L60.487 -21.8476
L60.2288 -21.418
L59.9632 -20.9928
L59.6903 -20.5723
L59.4102 -20.1564
L59.1229 -19.7454
L58.8287 -19.3393
L58.5274 -18.9383
L58.2193 -18.5425
L57.9044 -18.152
L57.5829 -17.7669
L57.2548 -17.3874
L56.9202 -17.0135
L56.5792 -16.6455
L56.232 -16.2833
L55.8786 -15.9272
L55.5191 -15.5771
L55.1537 -15.2333
L54.7825 -14.8958
L54.4055 -14.5648
L54.0229 -14.2402
L53.6349 -13.9223
L53.2415 -13.6111
L52.8428 -13.3068
L52.439 -13.0093
L52.0302 -12.7189
L51.6165 -12.4355
L51.198 -12.1594
L50.7749 -11.8904
L50.3473 -11.6289
L49.9154 -11.3747
L49.4792 -11.1281
L49.0389 -10.889
L48.5946 -10.6576
L48.1465 -10.4339
L47.6947 -10.218
L47.2393 -10.0099
L46.7805 -9.80978
L46.3185 -9.61762
L45.8532 -9.43349
L45.385 -9.25745
L44.9139 -9.08956
L44.4401 -8.92987
L43.9638 -8.77843
L43.485 -8.63527
L43.0039 -8.50045
L42.5207 -8.37401
L42.0355 -8.25598
L41.5485 -8.14641
L41.0597 -8.04531
L40.5695 -7.95274
L40.0778 -7.8687
L39.5849 -7.79324
L39.0909 -7.72637
L38.596 -7.66811
L38.1003 -7.61848
L37.6039 -7.5775
L37.1071 -7.54517
L36.6099 -7.52151
L36.1125 -7.50653
L35.6151 -7.50022
L35.1178 -7.5026
L34.6208 -7.51366
L34.1242 -7.53339
L33.6282 -7.5618
L33.1329 -7.59887
L32.6384 -7.64459
L32.145 -7.69894
L31.6528 -7.76192
L31.1619 -7.8335
L30.6724 -7.91366
L30.1846 -8.00237
L29.6986 -8.09962
L29.2145 -8.20536
L28.7324 -8.31957
L28.2526 -8.44221
L27.7751 -8.57324
L27.3001 -8.71263
L26.8278 -8.86033
L26.3582 -9.0163
L25.8916 -9.18048
L25.4281 -9.35284
L24.9678 -9.53331
L24.5109 -9.72185
L24.0575 -9.91839
L23.6077 -10.1229
L23.1616 -10.3352
L22.7195 -10.5554
L22.2814 -10.7834
L21.8476 -11.019
L21.418 -11.2622
L20.9928 -11.513
L20.5723 -11.7712
L20.1564 -12.0368
L19.7454 -12.3097
L19.3393 -12.5898
L18.9383 -12.8771
L18.5425 -13.1713
L18.152 -13.4726
L17.7669 -13.7807
L17.3874 -14.0956
L17.0135 -14.4171
L16.6455 -14.7452
L16.2833 -15.0798
L15.9272 -15.4208
L15.5771 -15.768
L15.2333 -16.1214
L14.8958 -16.4809
L14.5648 -16.8463
L14.2402 -17.2175
L13.9223 -17.5945
L13.6111 -17.9771
L13.3068 -18.3651
L13.0093 -18.7585
L12.7189 -19.1572
L12.4355 -19.561
L12.1594 -19.9698
L11.8904 -20.3835
L11.6289 -20.802
L11.3747 -21.2251
L11.1281 -21.6527
L10.889 -22.0846
z
" id="C0_1_c01ce3bacd"/>
     <path d="
M7.80202 -38.8029
L8.01623 -39.2351
L8.23567 -39.6676
L8.46035 -40.099
L8.69025 -40.5284
L8.92527 -40.9548
L9.16528 -41.3773
L9.41012 -41.7953
L9.65959 -42.2082
L9.91348 -42.6155
L10.1716 -43.0168
L10.4336 -43.4116
L10.6994 -43.7997
L10.9686 -44.1809
L11.241 -44.5551
L11.5163 -44.9219
L11.7944 -45.2814
L12.075 -45.6335
L12.3578 -45.9782
L12.6427 -46.3154
L12.9293 -46.6451
L13.2176 -46.9674
L13.5073 -47.2823
L13.7982 -47.5899
L14.0901 -47.8903
L14.383 -48.1836
L14.6766 -48.4698
L14.9708 -48.749
L15.2655 -49.0215
L15.5606 -49.2872
L15.8559 -49.5464
L16.1513 -49.7991
L16.4467 -50.0454
L16.7422 -50.2856
L17.0375 -50.5197
L17.3326 -50.7479
L17.6274 -50.9703
L17.922 -51.187
L18.2162 -51.3982
L18.5101 -51.604
L18.8035 -51.8045
L19.0965 -51.9998
L19.389 -52.1901
L19.681 -52.3755
L19.9725 -52.5561
L20.2635 -52.732
L20.554 -52.9033
L20.844 -53.0702
L21.1335 -53.2327
L21.4225 -53.391
L21.711 -53.5451
L21.9991 -53.6952
L22.2867 -53.8413
L22.5739 -53.9836
L22.8607 -54.122
L23.1471 -54.2568
L23.4331 -54.3879
L23.7189 -54.5156
L24.0043 -54.6397
L24.2895 -54.7604
L24.5746 -54.8779
L24.8594 -54.992
L25.1441 -55.103
L25.4287 -55.2108
L25.7133 -55.3155
L25.9978 -55.4172
L26.2824 -55.5159
L26.5671 -55.6117
L26.8519 -55.7046
L27.1369 -55.7946
L27.4222 -55.8818
L27.7077 -55.9662
L27.9936 -56.0479
L28.2798 -56.1269
L28.5665 -56.2032
L28.8537 -56.2768
L29.1415 -56.3477
L29.4299 -56.416
L29.7189 -56.4818
L30.0087 -56.5449
L30.2992 -56.6054
L30.5906 -56.6633
L30.8829 -56.7187
L31.1761 -56.7715
L31.4704 -56.8217
L31.7657 -56.8693
L32.0622 -56.9143
L32.3599 -56.9567
L32.6588 -56.9965
L32.9591 -57.0337
L33.2608 -57.0682
L33.5639 -57.1001
L33.8685 -57.1292
L34.1747 -57.1556
L34.4825 -57.1793
L34.7921 -57.2002
L35.1034 -57.2182
L35.4165 -57.2334
L35.7315 -57.2456
L36.0485 -57.2549
L36.3675 -57.2612
L36.6885 -57.2644
L37.0117 -57.2645
L37.3371 -57.2614
L37.6647 -57.255
L37.9946 -57.2453
L38.3269 -57.2322
L38.6616 -57.2156
L38.9987 -57.1955
L39.3384 -57.1717
L39.6806 -57.1442
L40.0254 -57.1128
L40.3729 -57.0775
L40.723 -57.0383
L41.0759 -56.9949
L41.4315 -56.9472
L41.7899 -56.8953
L42.1511 -56.8388
L42.5151 -56.7778
L42.882 -56.7122
L43.2516 -56.6417
L43.6241 -56.5663
L43.9994 -56.4858
L44.3776 -56.4001
L44.7585 -56.3091
L45.1421 -56.2127
L45.5285 -56.1107
L45.9175 -56.003
L46.3091 -55.8895
L46.7032 -55.7701
L47.0997 -55.6446
L47.4986 -55.5129
L47.8997 -55.375
L48.3029 -55.2307
L48.708 -55.0799
L49.1149 -54.9227
L49.5234 -54.7588
L49.9333 -54.5884
L50.3445 -54.4113
L50.7566 -54.2277
L51.1695 -54.0375
L51.5829 -53.8407
L51.9964 -53.6377
L52.4099 -53.4284
L52.8228 -53.2131
L53.235 -52.9922
L53.6461 -52.7659
L54.0556 -52.5346
L54.4632 -52.2989
L54.8683 -52.0595
L55.2707 -51.817
L55.6698 -51.5723
L56.065 -51.3264
L56.456 -51.0806
L56.8422 -50.8362
L57.2231 -50.5947
L57.5981 -50.358
L57.9666 -50.128
L58.3282 -49.907
L58.6822 -49.6973
L59.0282 -49.5015
L59.3656 -49.3222
L59.694 -49.1623
L60.0128 -49.0242
L60.3218 -48.9104
L60.6206 -48.8229
L60.9088 -48.7634
L61.1865 -48.7328
L61.2628 -48.7317
L61.0287 -49.1925
L60.787 -49.6314
L60.5377 -50.0661
L60.281 -50.4966
L60.0168 -50.9226
L59.7454 -51.3441
L59.4667 -51.7609
L59.1809 -52.1729
L58.888 -52.58
L58.5881 -52.9821
L58.2814 -53.3789
L57.9678 -53.7705
L57.6476 -54.1567
L57.3208 -54.5373
L56.9875 -54.9123
L56.6478 -55.2815
L56.3018 -55.6448
L55.9496 -56.0022
L55.5914 -56.3535
L55.2271 -56.6985
L54.857 -57.0373
L54.4812 -57.3696
L54.0998 -57.6955
L53.7128 -58.0147
L53.3204 -58.3273
L52.9228 -58.633
L52.52 -58.9318
L52.1122 -59.2237
L51.6995 -59.5085
L51.2819 -59.7861
L50.8598 -60.0564
L50.4331 -60.3195
L50.002 -60.5751
L49.5666 -60.8233
L49.1271 -61.0639
L48.6836 -61.2968
L48.2363 -61.5221
L47.7852 -61.7395
L47.3305 -61.9492
L46.8724 -62.1509
L46.411 -62.3447
L45.9464 -62.5304
L45.4787 -62.708
L45.0082 -62.8776
L44.535 -63.0389
L44.0591 -63.192
L43.5808 -63.3368
L43.1001 -63.4733
L42.6173 -63.6014
L42.1325 -63.7211
L41.6459 -63.8324
L41.1575 -63.9352
L40.6675 -64.0295
L40.1761 -64.1152
L39.6834 -64.1924
L39.1897 -64.261
L38.6949 -64.3209
L38.1993 -64.3723
L37.7031 -64.415
L37.2063 -64.4491
L36.7092 -64.4745
L36.2118 -64.4912
L35.7144 -64.4992
L35.2171 -64.4986
L34.72 -64.4892
L34.2233 -64.4712
L33.7272 -64.4446
L33.2317 -64.4092
L32.7371 -64.3652
L32.2435 -64.3126
L31.751 -64.2513
L31.2598 -64.1815
L30.77 -64.103
L30.2819 -64.016
L29.7955 -63.9205
L29.311 -63.8164
L28.8285 -63.7039
L28.3482 -63.583
L27.8702 -63.4536
L27.3947 -63.3159
L26.9219 -63.1698
L26.4518 -63.0155
L25.9846 -62.853
L25.5204 -62.6822
L25.0595 -62.5034
L24.6019 -62.3164
L24.1477 -62.1215
L23.6972 -61.9186
L23.2504 -61.7078
L22.8075 -61.4892
L22.3686 -61.2628
L21.9339 -61.0287
L21.5034 -60.787
L21.0774 -60.5377
L20.6559 -60.281
L20.2391 -60.0168
L19.8271 -59.7454
L19.42 -59.4667
L19.0179 -59.1809
L18.6211 -58.888
L18.2295 -58.5881
L17.8433 -58.2814
L17.4627 -57.9678
L17.0877 -57.6476
L16.7185 -57.3208
L16.3552 -56.9875
L15.9978 -56.6478
L15.6465 -56.3018
L15.3015 -55.9496
L14.9627 -55.5914
L14.6304 -55.2271
L14.3045 -54.857
L13.9853 -54.4812
L13.6727 -54.0998
L13.367 -53.7128
L13.0682 -53.3204
L12.7763 -52.9228
L12.4915 -52.52
L12.2139 -52.1122
L11.9436 -51.6995
L11.6805 -51.2819
L11.4249 -50.8598
L11.1767 -50.4331
L10.9361 -50.002
L10.7032 -49.5666
L10.4779 -49.1271
L10.2605 -48.6836
L10.0508 -48.2363
L9.84911 -47.7852
L9.65535 -47.3305
L9.46961 -46.8724
L9.29196 -46.411
L9.12244 -45.9464
L8.9611 -45.4787
L8.80801 -45.0082
L8.66319 -44.535
L8.5267 -44.0591
L8.39859 -43.5808
L8.27888 -43.1001
L8.16761 -42.6173
L8.06482 -42.1325
L7.97054 -41.6459
L7.8848 -41.1575
L7.80762 -40.6675
L7.73903 -40.1761
z
" id="C0_2_932baa50ab"/>
    </defs>
    <g clip-path="url(#p1bffca34e9)">
     <use style="fill:#ff0000;stroke:#000000;stroke-width:2.0;" x="0.0" xlink:href="#C0_0_a811fe30f3" y="72.0"/>
    </g>
    <g clip-path="url(#p1bffca34e9)">
     <use style="fill:#ffffff;stroke:#000000;stroke-width:2.0;" x="0.0" xlink:href="#C0_1_c01ce3bacd" y="72.0"/>
    </g>
    <g clip-path="url(#p1bffca34e9)">
     <use style="fill:#ffffff;stroke:#000000;stroke-width:2.0;" x="0.0" xlink:href="#C0_2_932baa50ab" y="72.0"/>
    </g>
   </g>
  </g>
 </g>
 <defs>
  <clipPath id="p1bffca34e9">
   <rect height="72.0" width="72.0" x="0.0" y="0.0"/>
  </clipPath>
 </defs>
</svg>
