<?xml version="1.0" encoding="utf-8" standalone="no"?>
<!DOCTYPE svg PUBLIC "-//W3C//DTD SVG 1.1//EN"
  "http://www.w3.org/Graphics/SVG/1.1/DTD/svg11.dtd">
<!-- Created with matplotlib (http://matplotlib.org/) -->
<svg height="72pt" version="1.1" viewBox="0 0 72 72" width="72pt" xmlns="http://www.w3.org/2000/svg" xmlns:xlink="http://www.w3.org/1999/xlink">
 <defs>
  <style type="text/css">
*{stroke-linecap:butt;stroke-linejoin:round;}
  </style>
 </defs>
 <g id="figure_1">
  <g id="patch_1">
   <path d="
M0 72
L72 72
L72 0
L0 0
z
" style="fill:none;"/>
  </g>
  <g id="axes_1">
   <g id="PatchCollection_1">
    <defs>
     <path d="
M36 -7.5
C43.5583 -7.5 50.808 -10.5029 56.1525 -15.8475
C61.4971 -21.192 64.5 -28.4417 64.5 -36
C64.5 -43.5583 61.4971 -50.808 56.1525 -56.1525
C50.808 -61.4971 43.5583 -64.5 36 -64.5
C28.4417 -64.5 21.192 -61.4971 15.8475 -56.1525
C10.5029 -50.808 7.5 -43.5583 7.5 -36
C7.5 -28.4417 10.5029 -21.192 15.8475 -15.8475
C21.192 -10.5029 28.4417 -7.5 36 -7.5
z
" id="C0_0_a811fe30f3"/>
     <path d="
M37.5288 -64.3714
L37.5265 -64.1767
L37.5236 -63.9819
L37.52 -63.7869
L37.5159 -63.5918
L37.5112 -63.3965
L37.5059 -63.201
L37.5001 -63.0052
L37.4939 -62.8092
L37.4871 -62.6128
L37.4799 -62.4162
L37.4722 -62.2192
L37.464 -62.0219
L37.4555 -61.8241
L37.4465 -61.6259
L37.4371 -61.4272
L37.4273 -61.228
L37.4171 -61.0283
L37.4065 -60.828
L37.3955 -60.627
L37.3842 -60.4254
L37.3725 -60.2232
L37.3604 -60.0201
L37.348 -59.8163
L37.322 -59.6117
L37.3085 -59.4062
L37.2947 -59.1998
L37.2804 -58.9924
L37.2659 -58.7841
L37.251 -58.5747
L37.2357 -58.3642
L37.2201 -58.1525
L37.2041 -57.9397
L37.1877 -57.7256
L37.171 -57.5103
L37.1539 -57.2935
L37.1364 -57.0754
L37.1185 -56.8558
L37.1003 -56.6348
L37.0817 -56.4121
L37.0626 -56.1879
L37.0432 -55.9619
L37.0234 -55.7343
L37.0031 -55.5048
L36.9824 -55.2735
L36.9612 -55.0403
L36.9396 -54.8051
L36.9176 -54.5679
L36.895 -54.3286
L36.872 -54.0872
L36.8485 -53.8435
L36.8245 -53.5976
L36.7999 -53.3493
L36.7748 -53.0987
L36.7491 -52.8455
L36.7229 -52.5899
L36.6961 -52.3317
L36.6687 -52.0708
L36.6406 -51.8072
L36.6119 -51.5409
L36.5825 -51.2717
L36.5525 -50.9996
L36.5217 -50.7246
L36.4901 -50.4466
L36.4578 -50.1656
L36.4247 -49.8815
L36.3908 -49.5942
L36.356 -49.3037
L36.3203 -49.01
L36.2837 -48.713
L36.2462 -48.4127
L36.2076 -48.1091
L36.168 -47.8021
L36.1272 -47.4918
L36.0854 -47.178
L36.0423 -46.8609
L35.998 -46.5403
L35.9523 -46.2164
L35.9053 -45.8891
L35.8569 -45.5585
L35.8069 -45.2246
L35.7553 -44.8874
L35.7021 -44.5471
L35.647 -44.2037
L35.5901 -43.8573
L35.5312 -43.5081
L35.4701 -43.1561
L35.4068 -42.8016
L35.3411 -42.4447
L35.2728 -42.0855
L35.2018 -41.7245
L35.1278 -41.3617
L35.0507 -40.9975
L34.9703 -40.6322
L34.8862 -40.2662
L34.7982 -39.8999
L34.7059 -39.5336
L34.6092 -39.1679
L34.5074 -38.8034
L34.4004 -38.4405
L34.2876 -38.0799
L34.1686 -37.7222
L34.0428 -37.3683
L33.9098 -37.0188
L33.7689 -36.6747
L33.6197 -36.3367
L33.4615 -36.0057
L33.2937 -35.6827
L33.1157 -35.3687
L32.9271 -35.0644
L32.7273 -34.771
L32.516 -34.4892
L32.2928 -34.2197
L32.0575 -33.9634
L31.8102 -33.7208
L31.5509 -33.4922
L31.2797 -33.2781
L30.9972 -33.0785
L30.7038 -32.8935
L30.4001 -32.7228
L30.0868 -32.5662
L29.7647 -32.4233
L29.4346 -32.2936
L29.0974 -32.1765
L28.7539 -32.0715
L28.405 -31.9779
L28.0515 -31.8951
L27.6942 -31.8225
L27.3338 -31.7594
L26.9712 -31.7052
L26.6069 -31.6594
L26.2416 -31.6214
L25.8758 -31.5908
L25.5101 -31.5671
L25.145 -31.5497
L24.7808 -31.5383
L24.418 -31.5326
L24.057 -31.5322
L23.698 -31.5366
L23.3414 -31.5458
L22.9873 -31.5592
L22.6362 -31.5768
L22.288 -31.5982
L21.943 -31.6233
L21.6014 -31.6518
L21.2633 -31.6835
L20.9288 -31.7183
L20.598 -31.756
L20.2709 -31.7964
L19.9477 -31.8393
L19.6283 -31.8848
L19.3128 -31.9326
L19.0013 -31.9826
L18.6937 -32.0347
L18.39 -32.0888
L18.0903 -32.1448
L17.7945 -32.2026
L17.5026 -32.2622
L17.2146 -32.3235
L16.9304 -32.3864
L16.6501 -32.4508
L16.3735 -32.5167
L16.1006 -32.584
L15.8314 -32.6527
L15.5658 -32.7227
L15.3038 -32.794
L15.0454 -32.8666
L14.7903 -32.9404
L14.5387 -33.0153
L14.2904 -33.0914
L14.0453 -33.1687
L13.8035 -33.247
L13.5649 -33.3265
L13.3293 -33.407
L13.0967 -33.4886
L12.8671 -33.5712
L12.6404 -33.6549
L12.4166 -33.7396
L12.1955 -33.8253
L11.9772 -33.9121
L11.7615 -33.9999
L11.5484 -34.0887
L11.3378 -34.1785
L11.1297 -34.2694
L10.9241 -34.3614
L10.7208 -34.4544
L10.5199 -34.5484
L10.3212 -34.6436
L10.1247 -34.7399
L9.93045 -34.8373
L9.73827 -34.9358
L9.54817 -35.0355
L9.3601 -35.1363
L9.17401 -35.2384
L8.98986 -35.3418
L8.80761 -35.4464
L8.62722 -35.5523
L8.44866 -35.6595
L8.27189 -35.7681
L8.09688 -35.8781
L7.92359 -35.9896
L7.752 -36.1025
L7.58207 -36.217
L7.51213 -36.3331
L7.53098 -36.8314
L7.5585 -37.3284
L7.59468 -37.8251
L7.63952 -38.3212
L7.69299 -38.8165
L7.75509 -39.3111
L7.82579 -39.8046
L7.90507 -40.297
L7.99291 -40.788
L8.08929 -41.2776
L8.19416 -41.7656
L8.30751 -42.2518
L8.42929 -42.7362
L8.55946 -43.2184
L8.698 -43.6985
L8.84485 -44.1762
L8.99998 -44.6515
L9.16333 -45.1241
L9.33485 -45.5939
L9.5145 -46.0608
L9.70221 -46.5246
L9.89794 -46.9853
L10.1016 -47.4426
L10.3132 -47.8964
L10.5326 -48.3465
L10.7597 -48.793
L10.9946 -49.2355
L11.237 -49.674
L11.487 -50.1083
L11.7445 -50.5383
L12.0093 -50.9639
L12.2815 -51.385
L12.5609 -51.8013
L12.8474 -52.2128
L13.141 -52.6194
L13.4415 -53.021
L13.7489 -53.4173
L14.0631 -53.8084
L14.384 -54.194
L14.7114 -54.5741
L15.0454 -54.9485
L15.3857 -55.3172
L15.7323 -55.6799
L16.0851 -56.0367
L16.4439 -56.3874
L16.8087 -56.7318
L17.1793 -57.07
L17.5557 -57.4017
L17.9377 -57.7269
L18.3252 -58.0455
L18.7181 -58.3574
L19.1162 -58.6624
L19.5195 -58.9606
L19.9278 -59.2518
L20.341 -59.5358
L20.759 -59.8127
L21.1816 -60.0824
L21.6088 -60.3447
L22.0403 -60.5996
L22.476 -60.8471
L22.9159 -61.0869
L23.3598 -61.3191
L23.8075 -61.5436
L24.259 -61.7603
L24.714 -61.9692
L25.1724 -62.1701
L25.6342 -62.3631
L26.0991 -62.5481
L26.567 -62.7249
L27.0378 -62.8937
L27.5113 -63.0542
L27.9874 -63.2065
L28.466 -63.3505
L28.9468 -63.4862
L29.4298 -63.6135
L29.9148 -63.7323
L30.4017 -63.8428
L30.8902 -63.9447
L31.3803 -64.0382
L31.8719 -64.1231
L32.3646 -64.1994
L32.8585 -64.2672
L33.3534 -64.3263
L33.849 -64.3768
L34.3453 -64.4187
L34.8421 -64.4519
L35.3393 -64.4765
L35.8366 -64.4923
L36.3341 -64.4995
L36.8314 -64.498
z
" id="C0_1_baabf4a038"/>
     <path d="
M64.4064 -35.552
L64.2335 -35.4401
L64.0593 -35.3292
L63.8836 -35.2193
L63.7065 -35.1103
L63.5279 -35.0023
L63.3477 -34.8951
L63.166 -34.7887
L62.9828 -34.6832
L62.7978 -34.5784
L62.6112 -34.4744
L62.4229 -34.3711
L62.2328 -34.2684
L62.0409 -34.1665
L61.8471 -34.0651
L61.6515 -33.9643
L61.4538 -33.8641
L61.2542 -33.7644
L61.0525 -33.6652
L60.8487 -33.5665
L60.6427 -33.4683
L60.4345 -33.3706
L60.224 -33.2732
L60.0111 -33.1763
L59.7959 -33.0797
L59.5782 -32.9835
L59.358 -32.8876
L59.1352 -32.7921
L58.9098 -32.6969
L58.6816 -32.6019
L58.4507 -32.5072
L58.217 -32.4128
L57.9803 -32.3186
L57.7407 -32.2247
L57.4981 -32.1309
L57.2524 -32.0374
L57.0035 -31.944
L56.7515 -31.8509
L56.4961 -31.7578
L56.2374 -31.6649
L55.9753 -31.5722
L55.7098 -31.4795
L55.4408 -31.387
L55.1681 -31.2946
L54.8919 -31.2023
L54.612 -31.11
L54.3284 -31.0178
L54.041 -30.9256
L53.7498 -30.8335
L53.4548 -30.7414
L53.156 -30.6493
L52.8533 -30.5571
L52.5467 -30.465
L52.2362 -30.3727
L51.9218 -30.2804
L51.6036 -30.188
L51.2815 -30.0954
L50.9556 -30.0027
L50.6259 -29.9097
L50.2925 -29.8164
L49.9555 -29.7229
L49.615 -29.6289
L49.271 -29.5345
L48.9237 -29.4396
L48.5733 -29.344
L48.22 -29.2477
L47.8638 -29.1506
L47.5052 -29.0524
L47.1442 -28.9532
L46.7813 -28.8526
L46.4166 -28.7505
L46.0507 -28.6467
L45.6839 -28.5409
L45.3165 -28.4328
L44.9492 -28.3221
L44.5825 -28.2085
L44.2168 -28.0916
L43.8529 -27.9709
L43.4913 -27.846
L43.1329 -27.7163
L42.7784 -27.5813
L42.4285 -27.4404
L42.0841 -27.2931
L41.7462 -27.1385
L41.4154 -26.9763
L41.0927 -26.8055
L40.7789 -26.6258
L40.4747 -26.4365
L40.181 -26.2371
L39.8982 -26.0273
L39.627 -25.8067
L39.3676 -25.5752
L39.1203 -25.3329
L38.8853 -25.0798
L38.6623 -24.8162
L38.4513 -24.5426
L38.252 -24.2595
L38.0639 -23.9676
L37.8865 -23.6676
L37.7195 -23.3601
L37.562 -23.0462
L37.4137 -22.7265
L37.2738 -22.4019
L37.1419 -22.0732
L37.0172 -21.7411
L36.8995 -21.4064
L36.788 -21.0697
L36.6824 -20.7318
L36.5821 -20.3932
L36.4869 -20.0544
L36.3963 -19.7159
L36.31 -19.3783
L36.2277 -19.0419
L36.1491 -18.7071
L36.074 -18.3742
L36.002 -18.0436
L35.9331 -17.7155
L35.8669 -17.3901
L35.8034 -17.0676
L35.7424 -16.7483
L35.6836 -16.4322
L35.6271 -16.1196
L35.5726 -15.8105
L35.52 -15.505
L35.4693 -15.2032
L35.4204 -14.9051
L35.373 -14.6109
L35.3273 -14.3205
L35.2831 -14.0339
L35.2403 -13.7512
L35.1988 -13.4724
L35.1587 -13.1974
L35.1198 -12.9263
L35.0821 -12.659
L35.0455 -12.3955
L35.0101 -12.1357
L34.9756 -11.8797
L34.9423 -11.6273
L34.9098 -11.3786
L34.8784 -11.1334
L34.8478 -10.8917
L34.8181 -10.6536
L34.7893 -10.4188
L34.7613 -10.1873
L34.7341 -9.9592
L34.7076 -9.73427
L34.6819 -9.5125
L34.6569 -9.29382
L34.6327 -9.07817
L34.6091 -8.86548
L34.5862 -8.65569
L34.5639 -8.44873
L34.5423 -8.24455
L34.5213 -8.04306
L34.5008 -7.84422
L34.9722 -7.64796
L35.4694 -7.51854
L35.9668 -7.50494
L36.4642 -7.50002
L36.9615 -7.50378
L37.4584 -7.51622
L37.955 -7.53734
L38.4509 -7.56713
L38.9461 -7.60558
L39.4403 -7.65268
L39.9336 -7.70841
L40.4256 -7.77276
L40.9163 -7.84571
L41.4055 -7.92724
L41.893 -8.01731
L42.3788 -8.11591
L42.8626 -8.22301
L43.3443 -8.33856
L43.8238 -8.46254
L44.3009 -8.59491
L44.7754 -8.73563
L45.2473 -8.88465
L45.7164 -9.04194
L46.1825 -9.20743
L46.6455 -9.38108
L47.1053 -9.56285
L47.5617 -9.75266
L48.0145 -9.95047
L48.4637 -10.1562
L48.9092 -10.3698
L49.3506 -10.5913
L49.788 -10.8204
L50.2213 -11.0573
L50.6501 -11.3017
L51.0745 -11.5537
L51.4944 -11.8131
L51.9095 -12.0798
L52.3197 -12.3539
L52.725 -12.6351
L53.1252 -12.9235
L53.5202 -13.2189
L53.9098 -13.5213
L54.294 -13.8305
L54.6726 -14.1464
L55.0455 -14.469
L55.4127 -14.7982
L55.7739 -15.1338
L56.1291 -15.4758
L56.4781 -15.824
L56.8209 -16.1784
L57.1574 -16.5388
L57.4874 -16.9051
L57.8109 -17.2773
L58.1278 -17.6551
L58.4379 -18.0386
L58.7411 -18.4275
L59.0375 -18.8218
L59.3268 -19.2213
L59.609 -19.6259
L59.884 -20.0355
L60.1518 -20.45
L60.4122 -20.8692
L60.6651 -21.293
L60.9106 -21.7213
L61.1484 -22.1539
L61.3786 -22.5908
L61.6011 -23.0317
L61.8157 -23.4766
L62.0225 -23.9253
L62.2214 -24.3777
L62.4123 -24.8336
L62.5951 -25.293
L62.7699 -25.7555
L62.9365 -26.2212
L63.0948 -26.6899
L63.245 -27.1615
L63.3868 -27.6357
L63.5203 -28.1124
L63.6454 -28.5916
L63.7621 -29.073
L63.8703 -29.5566
L63.97 -30.0421
L64.0612 -30.5294
L64.1439 -31.0184
L64.218 -31.5088
L64.2835 -32.0007
L64.3404 -32.4938
L64.3886 -32.9879
L64.4282 -33.483
L64.4592 -33.9788
L64.4815 -34.4753
z
" id="C0_2_aea71925fd"/>
    </defs>
    <g clip-path="url(#p1bffca34e9)">
     <use style="fill:#ffffff;stroke:#000000;stroke-width:2.0;" x="0.0" xlink:href="#C0_0_a811fe30f3" y="72.0"/>
    </g>
    <g clip-path="url(#p1bffca34e9)">
     <use style="fill:#ff0000;stroke:#000000;stroke-width:2.0;" x="0.0" xlink:href="#C0_1_baabf4a038" y="72.0"/>
    </g>
    <g clip-path="url(#p1bffca34e9)">
     <use style="fill:#ff0000;stroke:#000000;stroke-width:2.0;" x="0.0" xlink:href="#C0_2_aea71925fd" y="72.0"/>
    </g>
   </g>
  </g>
 </g>
 <defs>
  <clipPath id="p1bffca34e9">
   <rect height="72.0" width="72.0" x="0.0" y="0.0"/>
  </clipPath>
 </defs>
</svg>
