<?xml version="1.0" encoding="utf-8" standalone="no"?>
<!DOCTYPE svg PUBLIC "-//W3C//DTD SVG 1.1//EN"
  "http://www.w3.org/Graphics/SVG/1.1/DTD/svg11.dtd">
<!-- Created with matplotlib (http://matplotlib.org/) -->
<svg height="72pt" version="1.1" viewBox="0 0 72 72" width="72pt" xmlns="http://www.w3.org/2000/svg" xmlns:xlink="http://www.w3.org/1999/xlink">
 <defs>
  <style type="text/css">
*{stroke-linecap:butt;stroke-linejoin:round;}
  </style>
 </defs>
 <g id="figure_1">
  <g id="patch_1">
   <path d="
M0 72
L72 72
L72 0
L0 0
z
" style="fill:none;"/>
  </g>
  <g id="axes_1">
   <g id="PatchCollection_1">
    <defs>
     <path d="
M36 -7.5
C43.5583 -7.5 50.808 -10.5029 56.1525 -15.8475
C61.4971 -21.192 64.5 -28.4417 64.5 -36
C64.5 -43.5583 61.4971 -50.808 56.1525 -56.1525
C50.808 -61.4971 43.5583 -64.5 36 -64.5
C28.4417 -64.5 21.192 -61.4971 15.8475 -56.1525
C10.5029 -50.808 7.5 -43.5583 7.5 -36
C7.5 -28.4417 10.5029 -21.192 15.8475 -15.8475
C21.192 -10.5029 28.4417 -7.5 36 -7.5
z
" id="C0_0_a811fe30f3"/>
     <path d="
M51.9073 -59.3723
L51.7447 -59.1665
L51.6024 -58.9375
L51.4778 -58.688
L51.3681 -58.4207
L51.2707 -58.138
L51.1835 -57.8422
L51.1044 -57.5351
L51.0316 -57.2185
L50.9638 -56.894
L50.8997 -56.5628
L50.8383 -56.2263
L50.7786 -55.8854
L50.7201 -55.5409
L50.6621 -55.1938
L50.6041 -54.8447
L50.5458 -54.4943
L50.4869 -54.143
L50.4271 -53.7913
L50.3662 -53.4397
L50.3042 -53.0886
L50.2409 -52.7383
L50.1762 -52.389
L50.1101 -52.0411
L50.0426 -51.6948
L49.9737 -51.3503
L49.9033 -51.0078
L49.8315 -50.6673
L49.7584 -50.3292
L49.6839 -49.9933
L49.6081 -49.66
L49.531 -49.3293
L49.4527 -49.0011
L49.3732 -48.6757
L49.2926 -48.3529
L49.211 -48.033
L49.1282 -47.7158
L49.0446 -47.4014
L48.9599 -47.0899
L48.8744 -46.7811
L48.788 -46.4752
L48.7008 -46.172
L48.6129 -45.8717
L48.5242 -45.574
L48.4348 -45.2791
L48.3447 -44.9869
L48.254 -44.6973
L48.1627 -44.4103
L48.0709 -44.1258
L47.9784 -43.8439
L47.8855 -43.5644
L47.792 -43.2874
L47.698 -43.0127
L47.6035 -42.7403
L47.5086 -42.4702
L47.4132 -42.2023
L47.3174 -41.9365
L47.2211 -41.6728
L47.1244 -41.4111
L47.0272 -41.1513
L46.9297 -40.8935
L46.8317 -40.6375
L46.7333 -40.3832
L46.6345 -40.1307
L46.5352 -39.8798
L46.4356 -39.6306
L46.3355 -39.3828
L46.2349 -39.1365
L46.1339 -38.8916
L46.0325 -38.6481
L45.9306 -38.4058
L45.8282 -38.1648
L45.7253 -37.9249
L45.6219 -37.6861
L45.518 -37.4484
L45.4136 -37.2116
L45.3086 -36.9758
L45.2031 -36.7408
L45.097 -36.5066
L44.9903 -36.2732
L44.8829 -36.0405
L44.7749 -35.8084
L44.6663 -35.5768
L44.557 -35.3458
L44.4469 -35.1152
L44.2246 -34.8851
L44.1123 -34.6552
L43.9992 -34.4257
L43.8852 -34.1964
L43.7704 -33.9673
L43.6546 -33.7383
L43.538 -33.5094
L43.4203 -33.2804
L43.3017 -33.0515
L43.1821 -32.8224
L43.0614 -32.5933
L42.9396 -32.3639
L42.8167 -32.1342
L42.6926 -31.9043
L42.5674 -31.674
L42.4408 -31.4432
L42.313 -31.2121
L42.1839 -30.9804
L42.0534 -30.7482
L41.9216 -30.5153
L41.7882 -30.2818
L41.6534 -30.0476
L41.5171 -29.8126
L41.3792 -29.5768
L41.2396 -29.3402
L41.0984 -29.1026
L40.9554 -28.8642
L40.8107 -28.6247
L40.6642 -28.3842
L40.5158 -28.1426
L40.3655 -27.9
L40.2132 -27.6561
L40.0589 -27.4111
L39.9025 -27.1648
L39.744 -26.9173
L39.5834 -26.6684
L39.4205 -26.4183
L39.2553 -26.1667
L39.0878 -25.9138
L38.9179 -25.6595
L38.7455 -25.4037
L38.5707 -25.1464
L38.3934 -24.8877
L38.2134 -24.6275
L38.0309 -24.3657
L37.8456 -24.1025
L37.6577 -23.8378
L37.467 -23.5715
L37.2736 -23.3037
L37.0773 -23.0345
L36.8781 -22.7637
L36.6762 -22.4915
L36.4713 -22.2179
L36.2635 -21.9428
L36.0529 -21.6664
L35.8394 -21.3887
L35.623 -21.1097
L35.4038 -20.8295
L35.1818 -20.5482
L34.9571 -20.2657
L34.7298 -19.9823
L34.4998 -19.698
L34.2674 -19.4128
L34.0327 -19.1269
L33.7959 -18.8405
L33.557 -18.5535
L33.3165 -18.2661
L33.0745 -17.9784
L32.8313 -17.6906
L32.5874 -17.4028
L32.3431 -17.1152
L32.099 -16.8277
L31.8557 -16.5407
L31.6137 -16.2541
L31.374 -15.9682
L31.1374 -15.683
L30.9051 -15.3985
L30.6781 -15.115
L30.4581 -14.8323
L30.2467 -14.5506
L30.0457 -14.2697
L29.8576 -13.9897
L29.6846 -13.7103
L29.5298 -13.4315
L29.3962 -13.1531
L29.2872 -12.8747
L29.2062 -12.5962
L29.1568 -12.3173
L29.1421 -12.0377
L29.165 -11.7574
L29.2274 -11.4763
L29.3306 -11.1946
L29.4748 -10.9128
L29.6593 -10.6314
L29.8824 -10.3513
L30.142 -10.0735
L30.4355 -9.79888
L30.76 -9.5287
L31.1126 -9.26399
L31.4906 -9.00578
L31.8911 -8.75505
L32.3119 -8.51266
L32.7504 -8.27938
L33.2048 -8.05591
L33.673 -7.84281
L34.1654 -7.6406
L34.6621 -7.55911
L35.1591 -7.53142
L35.6564 -7.51241
L36.1538 -7.50207
L36.6512 -7.50042
L37.1483 -7.50744
L37.6452 -7.52314
L38.1415 -7.54752
L38.6371 -7.58057
L39.132 -7.62227
L39.6259 -7.67262
L40.1187 -7.73159
L40.6102 -7.79918
L41.1004 -7.87535
L41.589 -7.9601
L42.0759 -8.05338
L42.5609 -8.15518
L43.0439 -8.26546
L43.5248 -8.38419
L44.0034 -8.51133
L44.4796 -8.64684
L44.9531 -8.79068
L45.424 -8.94282
L45.892 -9.10319
L46.3569 -9.27176
L46.8187 -9.44847
L47.2773 -9.63327
L47.7323 -9.8261
L48.1839 -10.0269
L48.6316 -10.2356
L49.0756 -10.4522
L49.5156 -10.6765
L49.9514 -10.9086
L50.383 -11.1483
L50.8102 -11.3955
L51.2329 -11.6503
L51.651 -11.9125
L52.0643 -12.182
L52.4727 -12.4588
L52.8761 -12.7427
L53.2743 -13.0338
L53.6673 -13.3318
L54.0549 -13.6367
L54.437 -13.9485
L54.8135 -14.2669
L55.1843 -14.592
L55.5492 -14.9236
L55.9081 -15.2616
L56.261 -15.606
L56.6077 -15.9565
L56.9482 -16.3132
L57.2822 -16.6758
L57.6098 -17.0444
L57.9308 -17.4187
L58.2451 -17.7987
L58.5527 -18.1842
L58.8534 -18.5751
L59.1471 -18.9714
L59.4337 -19.3728
L59.7132 -19.7793
L59.9855 -20.1908
L60.2505 -20.607
L60.5081 -21.028
L60.7583 -21.4535
L61.0009 -21.8834
L61.2359 -22.3177
L61.4631 -22.7561
L61.6827 -23.1985
L61.8944 -23.6449
L62.0982 -24.095
L62.2941 -24.5487
L62.482 -25.0059
L62.6618 -25.4665
L62.8335 -25.9303
L62.997 -26.3971
L63.1522 -26.8669
L63.2993 -27.3394
L63.438 -27.8146
L63.5683 -28.2923
L63.6902 -28.7723
L63.8037 -29.2546
L63.9088 -29.7389
L64.0053 -30.2251
L64.0933 -30.713
L64.1728 -31.2026
L64.2436 -31.6936
L64.3059 -32.1859
L64.3595 -32.6794
L64.4045 -33.174
L64.4409 -33.6693
L64.4686 -34.1654
L64.4876 -34.6621
L64.4979 -35.1591
L64.4996 -35.6564
L64.4926 -36.1538
L64.4769 -36.6512
L64.4525 -37.1483
L64.4194 -37.6452
L64.3777 -38.1415
L64.3274 -38.6371
L64.2684 -39.132
L64.2008 -39.6259
L64.1246 -40.1187
L64.0399 -40.6102
L63.9466 -41.1004
L63.8448 -41.589
L63.7345 -42.0759
L63.6158 -42.5609
L63.4887 -43.0439
L63.3532 -43.5248
L63.2093 -44.0034
L63.0572 -44.4796
L62.8968 -44.9531
L62.7282 -45.424
L62.5515 -45.892
L62.3667 -46.3569
L62.1739 -46.8187
L61.9731 -47.2773
L61.7644 -47.7323
L61.5478 -48.1839
L61.3235 -48.6316
L61.0914 -49.0756
L60.8517 -49.5156
L60.6045 -49.9514
L60.3497 -50.383
L60.0875 -50.8102
L59.818 -51.2329
L59.5412 -51.651
L59.2573 -52.0643
L58.9662 -52.4727
L58.6682 -52.8761
L58.3633 -53.2743
L58.0515 -53.6673
L57.7331 -54.0549
L57.408 -54.437
L57.0764 -54.8135
L56.7384 -55.1843
L56.394 -55.5492
L56.0435 -55.9081
L55.6868 -56.261
L55.3242 -56.6077
L54.9556 -56.9482
L54.5813 -57.2822
L54.2013 -57.6098
L53.8158 -57.9308
L53.4249 -58.2451
L53.0286 -58.5527
L52.6272 -58.8534
z
" id="C0_1_6377a9061d"/>
     <path d="
M37.8323 -64.3304
L37.3306 -64.2047
L36.8306 -64.0722
L36.3332 -63.9329
L35.8395 -63.7868
L35.3501 -63.6339
L34.8658 -63.4743
L34.3871 -63.3082
L33.9144 -63.1358
L33.4483 -62.9573
L32.989 -62.773
L32.5368 -62.5831
L32.092 -62.3878
L31.6547 -62.1876
L31.225 -61.9825
L30.8032 -61.7729
L30.3891 -61.5591
L29.9829 -61.3413
L29.5846 -61.1197
L29.1942 -60.8947
L28.8115 -60.6665
L28.4367 -60.4353
L28.0696 -60.2013
L27.7101 -59.9647
L27.3582 -59.7258
L27.0138 -59.4847
L26.6767 -59.2416
L26.3468 -58.9967
L26.024 -58.7501
L25.7082 -58.502
L25.3993 -58.2525
L25.0971 -58.0018
L24.8015 -57.7499
L24.5123 -57.4971
L24.2294 -57.2433
L23.9527 -56.9886
L23.682 -56.7332
L23.4173 -56.4772
L23.1582 -56.2206
L22.9049 -55.9634
L22.657 -55.7057
L22.4144 -55.4476
L22.1771 -55.1891
L21.945 -54.9303
L21.7177 -54.6711
L21.4954 -54.4116
L21.2778 -54.1519
L21.0648 -53.8918
L20.8564 -53.6316
L20.6523 -53.3711
L20.4525 -53.1103
L20.257 -52.8493
L20.0655 -52.5881
L19.878 -52.3266
L19.6944 -52.0648
L19.5146 -51.8028
L19.3386 -51.5404
L19.1662 -51.2778
L18.9973 -51.0148
L18.832 -50.7514
L18.67 -50.4877
L18.5114 -50.2235
L18.356 -49.9589
L18.2038 -49.6939
L18.0548 -49.4283
L17.9088 -49.1621
L17.7659 -48.8954
L17.6259 -48.628
L17.4888 -48.3599
L17.3546 -48.0912
L17.2232 -47.8217
L17.0946 -47.5513
L16.9687 -47.2801
L16.8455 -47.008
L16.725 -46.735
L16.6071 -46.4609
L16.4918 -46.1857
L16.3791 -45.9095
L16.269 -45.6321
L16.1614 -45.3534
L16.0563 -45.0735
L15.9537 -44.7922
L15.8536 -44.5095
L15.756 -44.2253
L15.6609 -43.9396
L15.5683 -43.6524
L15.4781 -43.3634
L15.3904 -43.0727
L15.3053 -42.7803
L15.2226 -42.486
L15.1424 -42.1898
L15.0648 -41.8915
L14.9897 -41.5913
L14.9172 -41.2889
L14.8473 -40.9843
L14.7801 -40.6774
L14.7155 -40.3682
L14.6535 -40.0565
L14.5944 -39.7424
L14.538 -39.4258
L14.4845 -39.1065
L14.4338 -38.7845
L14.3861 -38.4598
L14.3414 -38.1322
L14.2998 -37.8017
L14.2614 -37.4682
L14.2261 -37.1317
L14.1941 -36.792
L14.1656 -36.4492
L14.1404 -36.1031
L14.1189 -35.7537
L14.101 -35.4009
L14.0868 -35.0447
L14.0765 -34.6851
L14.0702 -34.3218
L14.068 -33.955
L14.07 -33.5846
L14.0763 -33.2105
L14.0871 -32.8327
L14.1025 -32.4511
L14.1227 -32.0658
L14.1477 -31.6768
L14.1778 -31.2839
L14.213 -30.8872
L14.2536 -30.4868
L14.2996 -30.0826
L14.3513 -29.6746
L14.4088 -29.263
L14.4723 -28.8477
L14.5419 -28.4288
L14.6177 -28.0064
L14.7 -27.5806
L14.7888 -27.1515
L14.8844 -26.7192
L14.9868 -26.2839
L15.0961 -25.8456
L15.2126 -25.4047
L15.3362 -24.9612
L15.467 -24.5155
L15.6052 -24.0677
L15.7506 -23.6181
L15.9034 -23.1671
L16.0634 -22.715
L16.2305 -22.2621
L16.4047 -21.8087
L16.5856 -21.3554
L16.773 -20.9025
L16.9666 -20.4506
L17.1657 -20.0002
L17.3699 -19.5518
L17.5784 -19.1061
L17.7903 -18.6636
L18.0046 -18.2252
L18.2198 -17.7915
L18.4345 -17.3634
L18.6468 -16.9417
L18.8546 -16.5273
L19.0555 -16.1213
L19.2466 -15.7247
L19.425 -15.3385
L19.5871 -14.9638
L19.7296 -14.6018
L19.8489 -14.2534
L19.9417 -13.9197
L20.0052 -13.6013
L20.0372 -13.2989
L20.0363 -13.0128
L20.0022 -12.7431
L19.5128 -12.4897
L19.1096 -12.753
L18.7116 -13.0443
L18.3188 -13.3425
L17.9314 -13.6477
L17.5495 -13.9597
L17.1732 -14.2784
L16.8026 -14.6037
L16.4379 -14.9355
L16.0792 -15.2738
L15.7265 -15.6184
L15.38 -15.9691
L15.0398 -16.326
L14.706 -16.6889
L14.3786 -17.0576
L14.0579 -17.4321
L13.7438 -17.8123
L13.4365 -18.198
L13.1361 -18.5892
L12.8426 -18.9856
L12.5562 -19.3872
L12.2769 -19.7939
L12.0049 -20.2055
L11.7402 -20.6219
L11.4828 -21.0431
L11.2329 -21.4687
L10.9906 -21.8988
L10.7559 -22.3332
L10.5289 -22.7718
L10.3096 -23.2144
L10.0982 -23.6608
L9.89465 -24.1111
L9.69905 -24.5649
L9.51147 -25.0223
L9.33196 -25.483
L9.16057 -25.9469
L8.99736 -26.4138
L8.84237 -26.8837
L8.69565 -27.3563
L8.55725 -27.8316
L8.42721 -28.3094
L8.30557 -28.7895
L8.19236 -29.2718
L8.08763 -29.7562
L7.9914 -30.2424
L7.9037 -30.7304
L7.82456 -31.2201
L7.754 -31.7111
L7.69204 -32.2035
L7.63871 -32.6971
L7.59401 -33.1916
L7.55797 -33.687
L7.5306 -34.1831
L7.51189 -34.6798
L7.50186 -35.1768
L7.50052 -35.6741
L7.50785 -36.1716
L7.52386 -36.6689
L7.54855 -37.1661
L7.58191 -37.6629
L7.62392 -38.1592
L7.67457 -38.6548
L7.73385 -39.1496
L7.80175 -39.6435
L7.87823 -40.1362
L7.96328 -40.6277
L8.05687 -41.1178
L8.15897 -41.6064
L8.26955 -42.0932
L8.38858 -42.5781
L8.51601 -43.0611
L8.65183 -43.5419
L8.79597 -44.0204
L8.94839 -44.4965
L9.10906 -44.97
L9.27792 -45.4407
L9.45492 -45.9086
L9.64 -46.3735
L9.83312 -46.8352
L10.0342 -47.2936
L10.2432 -47.7485
L10.46 -48.1999
L10.6847 -48.6475
L10.917 -49.0914
L11.157 -49.5312
L11.4045 -49.9669
L11.6595 -50.3983
L11.922 -50.8254
L12.1918 -51.2479
L12.4688 -51.6658
L12.753 -52.0789
L13.0443 -52.4872
L13.3425 -52.8904
L13.6477 -53.2884
L13.9597 -53.6812
L14.2784 -54.0686
L14.6037 -54.4505
L14.9355 -54.8268
L15.2738 -55.1974
L15.6184 -55.5621
L15.9691 -55.9208
L16.326 -56.2735
L16.6889 -56.62
L17.0576 -56.9602
L17.4321 -57.294
L17.8123 -57.6214
L18.198 -57.9421
L18.5892 -58.2562
L18.9856 -58.5635
L19.3872 -58.8639
L19.7939 -59.1574
L20.2055 -59.4438
L20.6219 -59.7231
L21.0431 -59.9951
L21.4687 -60.2598
L21.8988 -60.5172
L22.3332 -60.7671
L22.7718 -61.0094
L23.2144 -61.2441
L23.6608 -61.4711
L24.1111 -61.6904
L24.5649 -61.9018
L25.0223 -62.1054
L25.483 -62.3009
L25.9469 -62.4885
L26.4138 -62.668
L26.8837 -62.8394
L27.3563 -63.0026
L27.8316 -63.1576
L28.3094 -63.3043
L28.7895 -63.4427
L29.2718 -63.5728
L29.7562 -63.6944
L30.2424 -63.8076
L30.7304 -63.9124
L31.2201 -64.0086
L31.7111 -64.0963
L32.2035 -64.1754
L32.6971 -64.246
L33.1916 -64.308
L33.687 -64.3613
L34.1831 -64.406
L34.6798 -64.442
L35.1768 -64.4694
L35.6741 -64.4881
L36.1716 -64.4981
L36.6689 -64.4995
L37.1661 -64.4921
z
" id="C0_2_70a3fab062"/>
    </defs>
    <g clip-path="url(#p1bffca34e9)">
     <use style="fill:#ff0000;stroke:#000000;stroke-width:2.0;" x="0.0" xlink:href="#C0_0_a811fe30f3" y="72.0"/>
    </g>
    <g clip-path="url(#p1bffca34e9)">
     <use style="fill:#ffffff;stroke:#000000;stroke-width:2.0;" x="0.0" xlink:href="#C0_1_6377a9061d" y="72.0"/>
    </g>
    <g clip-path="url(#p1bffca34e9)">
     <use style="fill:#ffffff;stroke:#000000;stroke-width:2.0;" x="0.0" xlink:href="#C0_2_70a3fab062" y="72.0"/>
    </g>
   </g>
  </g>
 </g>
 <defs>
  <clipPath id="p1bffca34e9">
   <rect height="72.0" width="72.0" x="0.0" y="0.0"/>
  </clipPath>
 </defs>
</svg>
