<?xml version="1.0" encoding="utf-8" standalone="no"?>
<!DOCTYPE svg PUBLIC "-//W3C//DTD SVG 1.1//EN"
  "http://www.w3.org/Graphics/SVG/1.1/DTD/svg11.dtd">
<!-- Created with matplotlib (http://matplotlib.org/) -->
<svg height="72pt" version="1.1" viewBox="0 0 72 72" width="72pt" xmlns="http://www.w3.org/2000/svg" xmlns:xlink="http://www.w3.org/1999/xlink">
 <defs>
  <style type="text/css">
*{stroke-linecap:butt;stroke-linejoin:round;}
  </style>
 </defs>
 <g id="figure_1">
  <g id="patch_1">
   <path d="
M0 72
L72 72
L72 0
L0 0
z
" style="fill:none;"/>
  </g>
  <g id="axes_1">
   <g id="PatchCollection_1">
    <defs>
     <path d="
M36 -7.5
C43.5583 -7.5 50.808 -10.5029 56.1525 -15.8475
C61.4971 -21.192 64.5 -28.4417 64.5 -36
C64.5 -43.5583 61.4971 -50.808 56.1525 -56.1525
C50.808 -61.4971 43.5583 -64.5 36 -64.5
C28.4417 -64.5 21.192 -61.4971 15.8475 -56.1525
C10.5029 -50.808 7.5 -43.5583 7.5 -36
C7.5 -28.4417 10.5029 -21.192 15.8475 -15.8475
C21.192 -10.5029 28.4417 -7.5 36 -7.5
z
" id="C0_0_a811fe30f3"/>
     <path d="
M37.1502 -7.59503
L37.2645 -7.83243
L37.3557 -8.07499
L37.4248 -8.32231
L37.4729 -8.57401
L37.5013 -8.82977
L37.5114 -9.08929
L37.5045 -9.35226
L37.482 -9.61844
L37.4452 -9.88758
L37.3955 -10.1595
L37.334 -10.4338
L37.262 -10.7105
L37.1807 -10.9893
L37.091 -11.2701
L36.994 -11.5525
L36.8905 -11.8365
L36.7815 -12.1219
L36.6675 -12.4085
L36.5494 -12.6962
L36.4277 -12.9847
L36.303 -13.2739
L36.1759 -13.5638
L36.0467 -13.854
L35.916 -14.1446
L35.784 -14.4353
L35.6512 -14.7261
L35.5177 -15.0167
L35.3839 -15.3072
L35.25 -15.5974
L35.1162 -15.8871
L34.9828 -16.1764
L34.8498 -16.4651
L34.7173 -16.7531
L34.5857 -17.0403
L34.4549 -17.3268
L34.325 -17.6124
L34.1961 -17.8971
L34.0683 -18.1808
L33.9417 -18.4635
L33.8163 -18.7451
L33.6921 -19.0256
L33.5692 -19.3051
L33.4475 -19.5833
L33.3273 -19.8605
L33.2083 -20.1364
L33.0907 -20.4112
L32.9745 -20.6848
L32.8596 -20.9572
L32.746 -21.2284
L32.6339 -21.4984
L32.523 -21.7673
L32.4135 -22.035
L32.3053 -22.3015
L32.1984 -22.567
L32.0928 -22.8313
L31.9885 -23.0945
L31.8854 -23.3567
L31.7836 -23.6178
L31.683 -23.8779
L31.5835 -24.137
L31.4853 -24.3952
L31.3882 -24.6524
L31.2922 -24.9088
L31.1973 -25.1643
L31.1035 -25.419
L31.0108 -25.6729
L30.9191 -25.9261
L30.8284 -26.1787
L30.7387 -26.4305
L30.65 -26.6817
L30.5622 -26.9324
L30.4753 -27.1825
L30.3894 -27.4322
L30.3043 -27.6814
L30.2201 -27.9302
L30.1367 -28.1787
L30.0541 -28.4269
L29.9723 -28.6748
L29.8913 -28.9225
L29.8111 -29.1701
L29.7315 -29.4175
L29.6527 -29.6649
L29.5746 -29.9123
L29.4972 -30.1597
L29.4204 -30.4072
L29.3443 -30.6548
L29.1939 -30.9026
L29.1196 -31.1507
L29.0459 -31.399
L28.9728 -31.6477
L28.9002 -31.8967
L28.8281 -32.1462
L28.7566 -32.3962
L28.6855 -32.6467
L28.615 -32.8978
L28.5449 -33.1496
L28.4753 -33.4021
L28.4062 -33.6553
L28.3375 -33.9093
L28.2693 -34.1642
L28.2015 -34.4199
L28.1341 -34.6767
L28.0671 -34.9344
L28.0006 -35.1932
L27.9344 -35.4532
L27.8686 -35.7143
L27.8032 -35.9766
L27.7382 -36.2402
L27.6735 -36.5051
L27.6092 -36.7714
L27.5453 -37.0391
L27.4817 -37.3083
L27.4184 -37.579
L27.3555 -37.8513
L27.293 -38.1252
L27.2308 -38.4007
L27.1689 -38.678
L27.1074 -38.957
L27.0462 -39.2378
L26.9853 -39.5204
L26.9247 -39.8049
L26.8645 -40.0914
L26.8046 -40.3797
L26.7451 -40.67
L26.6858 -40.9624
L26.6269 -41.2567
L26.5683 -41.5532
L26.51 -41.8517
L26.4521 -42.1522
L26.3944 -42.4549
L26.337 -42.7597
L26.28 -43.0666
L26.2232 -43.3755
L26.1667 -43.6866
L26.1105 -43.9997
L26.0545 -44.3149
L25.9987 -44.6321
L25.9432 -44.9513
L25.8878 -45.2724
L25.8326 -45.5953
L25.7775 -45.9201
L25.7224 -46.2465
L25.6674 -46.5746
L25.6123 -46.9042
L25.5571 -47.2352
L25.5017 -47.5674
L25.446 -47.9007
L25.3899 -48.235
L25.3333 -48.57
L25.276 -48.9055
L25.2179 -49.2414
L25.1588 -49.5773
L25.0985 -49.9129
L25.0367 -50.2481
L24.9732 -50.5823
L24.9076 -50.9154
L24.8397 -51.2468
L24.7691 -51.5762
L24.6954 -51.903
L24.618 -52.2269
L24.5365 -52.5472
L24.4504 -52.8633
L24.359 -53.1747
L24.2617 -53.4807
L24.1578 -53.7806
L24.0465 -54.0735
L23.9271 -54.3588
L23.7987 -54.6356
L23.6606 -54.9031
L23.5118 -55.1603
L23.3517 -55.4064
L23.1794 -55.6404
L22.9942 -55.8615
L22.7955 -56.0688
L22.5828 -56.2614
L22.3557 -56.4386
L22.1139 -56.5997
L21.8575 -56.744
L21.5864 -56.871
L21.3009 -56.9803
L21.0014 -57.0715
L20.6886 -57.1444
L20.363 -57.1989
L20.0255 -57.235
L19.6771 -57.2528
L19.3186 -57.2523
L18.951 -57.2339
L18.5755 -57.1978
L18.193 -57.1443
L17.8047 -57.0739
L17.4114 -56.9868
L17.0142 -56.8836
L16.614 -56.7647
L16.2119 -56.6304
L15.8426 -56.4813
L15.494 -56.1477
L15.1517 -55.7928
L14.8158 -55.4319
L14.4863 -55.0651
L14.1633 -54.6925
L13.847 -54.3142
L13.5375 -53.9303
L13.2348 -53.5409
L12.939 -53.1462
L12.6502 -52.7463
L12.3686 -52.3413
L12.0941 -51.9313
L11.827 -51.5164
L11.5672 -51.0969
L11.3148 -50.6727
L11.07 -50.244
L10.8328 -49.8111
L10.6032 -49.3739
L10.3814 -48.9326
L10.1673 -48.4874
L9.96116 -48.0384
L9.76293 -47.5857
L9.57269 -47.1295
L9.3905 -46.6699
L9.21641 -46.2071
L9.05048 -45.7411
L8.89277 -45.2722
L8.74331 -44.8004
L8.60215 -44.326
L8.46934 -43.8491
L8.34491 -43.3697
L8.22891 -42.8881
L8.12137 -42.4044
L8.02232 -41.9188
L7.93179 -41.4313
L7.84981 -40.9422
L7.7764 -40.4516
L7.7116 -39.9596
L7.65541 -39.4665
L7.60785 -38.9722
L7.56895 -38.4771
L7.5387 -37.9812
L7.51712 -37.4847
L7.50422 -36.9878
L7.5 -36.4905
L7.50446 -35.9931
L7.5176 -35.4957
L7.53942 -34.9985
L7.5699 -34.5016
L7.60905 -34.0051
L7.65685 -33.5092
L7.71327 -33.0141
L7.77832 -32.5199
L7.85196 -32.0268
L7.93417 -31.5348
L8.02494 -31.0443
L8.12422 -30.5552
L8.232 -30.0678
L8.34823 -29.5822
L8.47289 -29.0986
L8.60594 -28.617
L8.74732 -28.1377
L8.89701 -27.6608
L9.05496 -27.1865
L9.22111 -26.7148
L9.39542 -26.246
L9.57783 -25.7801
L9.7683 -25.3173
L9.96675 -24.8578
L10.1731 -24.4017
L10.3874 -23.9492
L10.6094 -23.5002
L10.8392 -23.0551
L11.0767 -22.614
L11.3217 -22.1769
L11.5743 -21.7441
L11.8343 -21.3155
L12.1016 -20.8915
L12.3763 -20.472
L12.6581 -20.0573
L12.9471 -19.6474
L13.243 -19.2426
L13.5459 -18.8428
L13.8557 -18.4482
L14.1722 -18.059
L14.4953 -17.6753
L14.825 -17.2971
L15.1611 -16.9247
L15.5036 -16.558
L15.8523 -16.1973
L16.2072 -15.8426
L16.5681 -15.494
L16.9349 -15.1517
L17.3075 -14.8158
L17.6858 -14.4863
L18.0697 -14.1633
L18.4591 -13.847
L18.8538 -13.5375
L19.2537 -13.2348
L19.6587 -12.939
L20.0687 -12.6502
L20.4836 -12.3686
L20.9031 -12.0941
L21.3273 -11.827
L21.756 -11.5672
L22.1889 -11.3148
L22.6261 -11.07
L23.0674 -10.8328
L23.5126 -10.6032
L23.9616 -10.3814
L24.4143 -10.1673
L24.8705 -9.96116
L25.3301 -9.76293
L25.7929 -9.57269
L26.2589 -9.3905
L26.7278 -9.21641
L27.1996 -9.05048
L27.674 -8.89277
L28.1509 -8.74331
L28.6303 -8.60215
L29.1119 -8.46934
L29.5956 -8.34491
L30.0812 -8.22891
L30.5687 -8.12137
L31.0578 -8.02232
L31.5484 -7.93179
L32.0404 -7.84981
L32.5335 -7.7764
L33.0278 -7.7116
L33.5229 -7.65541
L34.0188 -7.60785
L34.5153 -7.56895
L35.0122 -7.5387
L35.5095 -7.51712
L36.0069 -7.50422
L36.5043 -7.5
z
" id="C0_1_4d67d01325"/>
     <path d="
M55.9871 -15.8878
L56.1549 -16.2901
L56.3198 -16.6951
L56.4815 -17.1023
L56.6394 -17.5112
L56.7931 -17.9215
L56.9422 -18.3327
L57.0865 -18.7445
L57.2258 -19.1566
L57.3599 -19.5685
L57.4885 -19.9801
L57.6117 -20.391
L57.7293 -20.801
L57.8412 -21.2099
L57.9475 -21.6174
L58.0482 -22.0233
L58.1432 -22.4275
L58.2326 -22.8297
L58.3165 -23.2299
L58.3949 -23.6279
L58.4679 -24.0236
L58.5355 -24.4168
L58.5979 -24.8075
L58.6551 -25.1957
L58.7073 -25.5812
L58.7545 -25.9639
L58.7969 -26.3439
L58.8345 -26.7211
L58.8675 -27.0955
L58.896 -27.467
L58.92 -27.8357
L58.9397 -28.2015
L58.9552 -28.5644
L58.9666 -28.9244
L58.9739 -29.2816
L58.9774 -29.636
L58.977 -29.9876
L58.9728 -30.3364
L58.9651 -30.6824
L58.9538 -31.0257
L58.939 -31.3663
L58.9208 -31.7043
L58.8992 -32.0397
L58.8745 -32.3725
L58.8465 -32.7028
L58.8155 -33.0307
L58.7814 -33.3561
L58.7443 -33.6792
L58.7043 -34
L58.6614 -34.3185
L58.6157 -34.6348
L58.5672 -34.949
L58.516 -35.2611
L58.4621 -35.5712
L58.4055 -35.8793
L58.3463 -36.1855
L58.2845 -36.4899
L58.2201 -36.7924
L58.1532 -37.0932
L58.0838 -37.3924
L58.0119 -37.6899
L57.9375 -37.9858
L57.8607 -38.2802
L57.7814 -38.5732
L57.6996 -38.8648
L57.6154 -39.155
L57.5288 -39.4439
L57.4398 -39.7316
L57.3483 -40.0181
L57.2543 -40.3035
L57.158 -40.5879
L57.0592 -40.8712
L56.9579 -41.1535
L56.8541 -41.4349
L56.7479 -41.7154
L56.6392 -41.9951
L56.5279 -42.2741
L56.414 -42.5523
L56.2976 -42.8298
L56.1786 -43.1068
L56.057 -43.3831
L55.9327 -43.6588
L55.8057 -43.9341
L55.676 -44.2089
L55.5435 -44.4832
L55.4082 -44.7572
L55.27 -45.0308
L55.1289 -45.3041
L54.9849 -45.5772
L54.838 -45.8499
L54.6879 -46.1225
L54.5348 -46.3949
L54.3785 -46.6671
L54.2191 -46.9391
L54.0563 -47.2111
L53.8903 -47.4829
L53.7209 -47.7547
L53.548 -48.0265
L53.3716 -48.2981
L53.1916 -48.5698
L53.008 -48.8414
L52.8207 -49.1131
L52.6296 -49.3847
L52.4347 -49.6563
L52.2358 -49.9279
L52.0329 -50.1995
L51.826 -50.4711
L51.6149 -50.7426
L51.3996 -51.0141
L51.18 -51.2855
L50.9561 -51.5568
L50.7277 -51.828
L50.4948 -52.099
L50.2574 -52.3699
L50.0154 -52.6405
L49.7686 -52.9109
L49.5171 -53.1809
L49.2608 -53.4505
L48.9996 -53.7197
L48.7335 -53.9884
L48.4625 -54.2565
L48.1865 -54.524
L47.9055 -54.7907
L47.6195 -55.0566
L47.3285 -55.3216
L47.0325 -55.5855
L46.7315 -55.8484
L46.4255 -56.1101
L46.1147 -56.3705
L45.799 -56.6294
L45.4785 -56.8869
L45.1535 -57.1427
L44.8239 -57.3967
L44.49 -57.6489
L44.1519 -57.8991
L43.8099 -58.1472
L43.4642 -58.3931
L43.1151 -58.6368
L42.7629 -58.8781
L42.408 -59.117
L42.0509 -59.3533
L41.6919 -59.5871
L41.3316 -59.8183
L40.9707 -60.047
L40.6096 -60.273
L40.2492 -60.4965
L39.8901 -60.7176
L39.5333 -60.9363
L39.1796 -61.1528
L38.83 -61.3673
L38.4855 -61.58
L38.1472 -61.7911
L37.8162 -62.0009
L37.4938 -62.2098
L37.1812 -62.418
L36.8796 -62.6261
L36.5902 -62.8343
L36.3142 -63.0431
L36.0529 -63.2528
L35.8072 -63.4638
L35.5782 -63.6765
L35.3668 -63.8911
L35.1736 -64.1078
L35.4909 -64.3268
L35.9883 -64.4955
L36.4857 -64.5
L36.983 -64.4959
L37.4799 -64.483
L37.9764 -64.4616
L38.4723 -64.4314
L38.9674 -64.3926
L39.4617 -64.3451
L39.9549 -64.289
L40.4468 -64.2243
L40.9375 -64.1509
L41.4266 -64.069
L41.9141 -63.9786
L42.3997 -63.8796
L42.8834 -63.7722
L43.3651 -63.6563
L43.8444 -63.5319
L44.3214 -63.3992
L44.7959 -63.2581
L45.2677 -63.1087
L45.7366 -62.9511
L46.2026 -62.7852
L46.6655 -62.6112
L47.1251 -62.4291
L47.5813 -62.2389
L48.034 -62.0408
L48.4831 -61.8347
L48.9283 -61.6207
L49.3696 -61.399
L49.8069 -61.1695
L50.2399 -60.9323
L50.6686 -60.6876
L51.0928 -60.4353
L51.5124 -60.1756
L51.9273 -59.9085
L52.3374 -59.6341
L52.7424 -59.3525
L53.1424 -59.0638
L53.5371 -58.7681
L53.9266 -58.4655
L54.3105 -58.156
L54.6889 -57.8398
L55.0615 -57.5169
L55.4284 -57.1874
L55.7894 -56.8515
L56.1443 -56.5093
L56.4931 -56.1608
L56.8356 -55.8062
L57.1718 -55.4455
L57.5016 -55.0789
L57.8248 -54.7065
L58.1413 -54.3284
L58.4511 -53.9447
L58.7541 -53.5556
L59.0501 -53.1611
L59.3391 -52.7613
L59.621 -52.3565
L59.8957 -51.9467
L60.1632 -51.532
L60.4233 -51.1126
L60.6759 -50.6886
L60.921 -50.2601
L61.1585 -49.8273
L61.3884 -49.3902
L61.6105 -48.9491
L61.8248 -48.5041
L62.0313 -48.0552
L62.2298 -47.6027
L62.4204 -47.1466
L62.6029 -46.6871
L62.7772 -46.2244
L62.9435 -45.7585
L63.1015 -45.2897
L63.2513 -44.8181
L63.3927 -44.3438
L63.5259 -43.8669
L63.6506 -43.3876
L63.7669 -42.9061
L63.8748 -42.4225
L63.9741 -41.9369
L64.065 -41.4495
L64.1473 -40.9605
L64.221 -40.4699
L64.2861 -39.978
L64.3427 -39.4849
L64.3905 -38.9907
L64.4298 -38.4956
L64.4603 -37.9997
L64.4822 -37.5032
L64.4955 -37.0063
L64.5 -36.5091
L64.4959 -36.0117
L64.483 -35.5143
L64.4616 -35.017
L64.4314 -34.5201
L64.3926 -34.0236
L64.3451 -33.5277
L64.289 -33.0326
L64.2243 -32.5383
L64.1509 -32.0451
L64.069 -31.5532
L63.9786 -31.0625
L63.8796 -30.5734
L63.7722 -30.0859
L63.6563 -29.6003
L63.5319 -29.1166
L63.3992 -28.6349
L63.2581 -28.1556
L63.1087 -27.6786
L62.9511 -27.2041
L62.7852 -26.7323
L62.6112 -26.2634
L62.4291 -25.7974
L62.2389 -25.3345
L62.0408 -24.8749
L61.8347 -24.4187
L61.6207 -23.966
L61.399 -23.5169
L61.1695 -23.0717
L60.9323 -22.6304
L60.6876 -22.1931
L60.4353 -21.7601
L60.1756 -21.3314
L59.9085 -20.9072
L59.6341 -20.4876
L59.3525 -20.0727
L59.0638 -19.6626
L58.7681 -19.2576
L58.4655 -18.8576
L58.156 -18.4629
L57.8398 -18.0734
L57.5169 -17.6895
L57.1874 -17.3111
L56.8515 -16.9385
L56.5093 -16.5716
z
" id="C0_2_3fe75b2172"/>
    </defs>
    <g clip-path="url(#p1bffca34e9)">
     <use style="fill:#ff0000;stroke:#000000;stroke-width:2.0;" x="0.0" xlink:href="#C0_0_a811fe30f3" y="72.0"/>
    </g>
    <g clip-path="url(#p1bffca34e9)">
     <use style="fill:#ffffff;stroke:#000000;stroke-width:2.0;" x="0.0" xlink:href="#C0_1_4d67d01325" y="72.0"/>
    </g>
    <g clip-path="url(#p1bffca34e9)">
     <use style="fill:#ffffff;stroke:#000000;stroke-width:2.0;" x="0.0" xlink:href="#C0_2_3fe75b2172" y="72.0"/>
    </g>
   </g>
  </g>
 </g>
 <defs>
  <clipPath id="p1bffca34e9">
   <rect height="72.0" width="72.0" x="0.0" y="0.0"/>
  </clipPath>
 </defs>
</svg>
