<?xml version="1.0" encoding="utf-8" standalone="no"?>
<!DOCTYPE svg PUBLIC "-//W3C//DTD SVG 1.1//EN"
  "http://www.w3.org/Graphics/SVG/1.1/DTD/svg11.dtd">
<!-- Created with matplotlib (http://matplotlib.org/) -->
<svg height="72pt" version="1.1" viewBox="0 0 72 72" width="72pt" xmlns="http://www.w3.org/2000/svg" xmlns:xlink="http://www.w3.org/1999/xlink">
 <defs>
  <style type="text/css">
*{stroke-linecap:butt;stroke-linejoin:round;}
  </style>
 </defs>
 <g id="figure_1">
  <g id="patch_1">
   <path d="
M0 72
L72 72
L72 0
L0 0
z
" style="fill:none;"/>
  </g>
  <g id="axes_1">
   <g id="PatchCollection_1">
    <defs>
     <path d="
M36 -7.5
C43.5583 -7.5 50.808 -10.5029 56.1525 -15.8475
C61.4971 -21.192 64.5 -28.4417 64.5 -36
C64.5 -43.5583 61.4971 -50.808 56.1525 -56.1525
C50.808 -61.4971 43.5583 -64.5 36 -64.5
C28.4417 -64.5 21.192 -61.4971 15.8475 -56.1525
C10.5029 -50.808 7.5 -43.5583 7.5 -36
C7.5 -28.4417 10.5029 -21.192 15.8475 -15.8475
C21.192 -10.5029 28.4417 -7.5 36 -7.5
z
" id="C0_0_a811fe30f3"/>
     <path d="
M52.2485 -59.2963
L52.1585 -59.0172
L52.0964 -58.7056
L52.0536 -58.3695
L52.0231 -58.0154
L52.0003 -57.6479
L51.9814 -57.2704
L51.9641 -56.8856
L51.9466 -56.4955
L51.9276 -56.1017
L51.9063 -55.7053
L51.882 -55.3074
L51.8545 -54.9087
L51.8233 -54.5099
L51.7883 -54.1117
L51.7495 -53.7145
L51.7069 -53.3187
L51.6604 -52.9246
L51.6101 -52.5326
L51.5562 -52.1431
L51.4987 -51.7561
L51.4378 -51.3719
L51.3736 -50.9908
L51.3062 -50.6128
L51.2357 -50.2381
L51.1624 -49.8668
L51.0863 -49.4991
L51.0076 -49.1349
L50.9264 -48.7745
L50.843 -48.4177
L50.7573 -48.0647
L50.6695 -47.7155
L50.5798 -47.3701
L50.4883 -47.0286
L50.395 -46.6908
L50.3001 -46.3568
L50.2037 -46.0267
L50.1059 -45.7002
L50.0068 -45.3775
L49.9064 -45.0585
L49.8049 -44.7432
L49.7022 -44.4314
L49.5986 -44.1232
L49.494 -43.8185
L49.3885 -43.5173
L49.2822 -43.2194
L49.1751 -42.9248
L49.0673 -42.6335
L48.9587 -42.3453
L48.8495 -42.0603
L48.7397 -41.7782
L48.6293 -41.4992
L48.5184 -41.2231
L48.4069 -40.9497
L48.2949 -40.6792
L48.1824 -40.4112
L48.0694 -40.1459
L47.956 -39.8832
L47.8421 -39.6228
L47.7278 -39.3649
L47.6131 -39.1092
L47.4979 -38.8558
L47.3823 -38.6045
L47.2662 -38.3553
L47.1498 -38.1081
L47.0329 -37.8628
L46.9156 -37.6195
L46.7978 -37.3779
L46.6796 -37.138
L46.5609 -36.8998
L46.4418 -36.6631
L46.3222 -36.428
L46.202 -36.1944
L46.0814 -35.9621
L45.9602 -35.7312
L45.8385 -35.5015
L45.7162 -35.2729
L45.5934 -35.0456
L45.4699 -34.8192
L45.3458 -34.5939
L45.221 -34.3695
L45.0956 -34.146
L44.9694 -33.9233
L44.8426 -33.7014
L44.7149 -33.4802
L44.5865 -33.2596
L44.3272 -33.0396
L44.1962 -32.8201
L44.0643 -32.6011
L43.9314 -32.3825
L43.7976 -32.1642
L43.6627 -31.9463
L43.5268 -31.7286
L43.3898 -31.5111
L43.2516 -31.2937
L43.1122 -31.0764
L42.9717 -30.8592
L42.8298 -30.6419
L42.6866 -30.4246
L42.5421 -30.2071
L42.3962 -29.9895
L42.2488 -29.7717
L42.0999 -29.5536
L41.9495 -29.3352
L41.7974 -29.1164
L41.6437 -28.8972
L41.4883 -28.6775
L41.3311 -28.4574
L41.1721 -28.2367
L41.0111 -28.0154
L40.8483 -27.7935
L40.6834 -27.5709
L40.5164 -27.3476
L40.3473 -27.1235
L40.176 -26.8986
L40.0025 -26.6729
L39.8266 -26.4464
L39.6483 -26.2189
L39.4675 -25.9905
L39.2841 -25.7611
L39.0982 -25.5308
L38.9095 -25.2994
L38.7181 -25.067
L38.5238 -24.8335
L38.3266 -24.5989
L38.1264 -24.3632
L37.9232 -24.1264
L37.7167 -23.8884
L37.5071 -23.6494
L37.2941 -23.4091
L37.0777 -23.1678
L36.8578 -22.9253
L36.6344 -22.6817
L36.4074 -22.437
L36.1767 -22.1912
L35.9421 -21.9443
L35.7038 -21.6964
L35.4615 -21.4475
L35.2152 -21.1977
L34.9649 -20.9469
L34.7105 -20.6953
L34.4519 -20.443
L34.1891 -20.19
L33.922 -19.9363
L33.6506 -19.6821
L33.3749 -19.4275
L33.0949 -19.1726
L32.8105 -18.9175
L32.5217 -18.6623
L32.2286 -18.4072
L31.9312 -18.1523
L31.6295 -17.8978
L31.3236 -17.6438
L31.0136 -17.3906
L30.6996 -17.1382
L30.3817 -16.8869
L30.0601 -16.6369
L29.735 -16.3883
L29.4066 -16.1414
L29.0753 -15.8963
L28.7415 -15.6533
L28.4056 -15.4125
L28.0681 -15.1741
L27.7299 -14.9382
L27.3917 -14.705
L27.0547 -14.4744
L26.7204 -14.2465
L26.3906 -14.0211
L26.0678 -13.798
L25.7553 -13.5767
L25.4576 -13.3565
L25.1809 -13.1362
L24.9333 -12.9141
L24.7256 -12.6879
L24.5711 -12.4544
L24.484 -12.2096
L24.4764 -11.9494
L24.5542 -11.6704
L24.7152 -11.3719
L24.9503 -11.0556
L25.2476 -10.7259
L25.5952 -10.3877
L25.9831 -10.0459
L26.4036 -9.70445
L26.8506 -9.36663
L27.315 -9.03484
L27.79 -8.85556
L28.2676 -8.70812
L28.7475 -8.569
L29.2296 -8.43822
L29.7138 -8.31585
L30.1999 -8.20191
L30.6878 -8.09643
L31.1773 -7.99946
L31.6682 -7.91101
L32.1605 -7.83112
L32.654 -7.75981
L33.1484 -7.6971
L33.6437 -7.64302
L34.1398 -7.59757
L34.6364 -7.56077
L35.1334 -7.53264
L35.6307 -7.51318
L36.1281 -7.50239
L36.6255 -7.50029
L37.1227 -7.50687
L37.6195 -7.52212
L38.1159 -7.54605
L38.6116 -7.57865
L39.1065 -7.61991
L39.6004 -7.66981
L40.0933 -7.72834
L40.5849 -7.79548
L41.0751 -7.87121
L41.5638 -7.95552
L42.0508 -8.04836
L42.5359 -8.14972
L43.019 -8.25956
L43.5001 -8.37785
L43.9788 -8.50456
L44.4551 -8.63964
L44.9288 -8.78306
L45.3998 -8.93476
L45.8679 -9.09471
L46.333 -9.26286
L46.795 -9.43915
L47.2537 -9.62353
L47.7089 -9.81595
L48.1606 -10.0163
L48.6086 -10.2246
L49.0528 -10.4408
L49.493 -10.6647
L49.929 -10.8964
L50.3608 -11.1357
L50.7883 -11.3826
L51.2112 -11.637
L51.6295 -11.8988
L52.0431 -12.1679
L52.4517 -12.4443
L52.8554 -12.7279
L53.2539 -13.0186
L53.6472 -13.3162
L54.035 -13.6208
L54.4174 -13.9322
L54.7942 -14.2503
L55.1653 -14.5751
L55.5305 -14.9063
L55.8897 -15.244
L56.243 -15.588
L56.59 -15.9383
L56.9308 -16.2946
L57.2652 -16.657
L57.5931 -17.0252
L57.9144 -17.3992
L58.2291 -17.7789
L58.537 -18.1641
L58.838 -18.5548
L59.1321 -18.9508
L59.4191 -19.352
L59.699 -19.7582
L59.9717 -20.1694
L60.237 -20.5854
L60.495 -21.0061
L60.7455 -21.4314
L60.9885 -21.8611
L61.2239 -22.2951
L61.4516 -22.7333
L61.6715 -23.1756
L61.8837 -23.6217
L62.0879 -24.0716
L62.2842 -24.5252
L62.4725 -24.9822
L62.6527 -25.4426
L62.8248 -25.9063
L62.9887 -26.3729
L63.1444 -26.8426
L63.2919 -27.315
L63.431 -27.79
L63.5618 -28.2676
L63.6842 -28.7475
L63.7981 -29.2296
L63.9036 -29.7138
L64.0005 -30.1999
L64.089 -30.6878
L64.1689 -31.1773
L64.2402 -31.6682
L64.3029 -32.1605
L64.357 -32.654
L64.4024 -33.1484
L64.4392 -33.6437
L64.4674 -34.1398
L64.4868 -34.6364
L64.4976 -35.1334
L64.4997 -35.6307
L64.4931 -36.1281
L64.4779 -36.6255
L64.4539 -37.1227
L64.4213 -37.6195
L64.3801 -38.1159
L64.3302 -38.6116
L64.2717 -39.1065
L64.2045 -39.6004
L64.1288 -40.0933
L64.0445 -40.5849
L63.9516 -41.0751
L63.8503 -41.5638
L63.7404 -42.0508
L63.6221 -42.5359
L63.4954 -43.019
L63.3604 -43.5001
L63.2169 -43.9788
L63.0652 -44.4551
L62.9053 -44.9288
L62.7371 -45.3998
L62.5608 -45.8679
L62.3765 -46.333
L62.1841 -46.795
L61.9837 -47.2537
L61.7754 -47.7089
L61.5592 -48.1606
L61.3353 -48.6086
L61.1036 -49.0528
L60.8643 -49.493
L60.6174 -49.929
L60.363 -50.3608
L60.1012 -50.7883
L59.8321 -51.2112
L59.5557 -51.6295
L59.2721 -52.0431
L58.9814 -52.4517
L58.6838 -52.8554
L58.3792 -53.2539
L58.0678 -53.6472
L57.7497 -54.035
L57.4249 -54.4174
L57.0937 -54.7942
L56.756 -55.1653
L56.412 -55.5305
L56.0617 -55.8897
L55.7054 -56.243
L55.343 -56.59
L54.9748 -56.9308
L54.6008 -57.2652
L54.2211 -57.5931
L53.8359 -57.9144
L53.4452 -58.2291
L53.0492 -58.537
z
" id="C0_1_970c0e48e2"/>
     <path d="
M44.5976 -63.0284
L44.0251 -63.0371
L43.4504 -63.0371
L42.8756 -63.0276
L42.3021 -63.008
L41.7315 -62.978
L41.1646 -62.9376
L40.6025 -62.8868
L40.0458 -62.8258
L39.4952 -62.7547
L38.9512 -62.6739
L38.4143 -62.5837
L37.8848 -62.4843
L37.3631 -62.3762
L36.8493 -62.2596
L36.3438 -62.1351
L35.8466 -62.003
L35.3579 -61.8637
L34.8778 -61.7174
L34.4063 -61.5647
L33.9435 -61.4059
L33.4893 -61.2413
L33.0438 -61.0714
L32.607 -60.8963
L32.1786 -60.7164
L31.7588 -60.5321
L31.3474 -60.3437
L30.9443 -60.1513
L30.5494 -59.9553
L30.1626 -59.756
L29.7837 -59.5535
L29.4126 -59.3481
L29.0493 -59.1401
L28.6934 -58.9295
L28.345 -58.7166
L28.0038 -58.5016
L27.6697 -58.2846
L27.3426 -58.0657
L27.0222 -57.8452
L26.7084 -57.6232
L26.4012 -57.3997
L26.1002 -57.1748
L25.8055 -56.9488
L25.5167 -56.7216
L25.2338 -56.4933
L24.9567 -56.2641
L24.6851 -56.0339
L24.419 -55.8029
L24.1582 -55.5711
L23.9025 -55.3386
L23.6519 -55.1053
L23.4061 -54.8714
L23.1652 -54.6368
L22.9289 -54.4016
L22.6971 -54.1658
L22.4697 -53.9294
L22.2466 -53.6924
L22.0277 -53.4549
L21.8129 -53.2168
L21.6021 -52.9781
L21.3951 -52.7389
L21.1919 -52.499
L20.9924 -52.2586
L20.7965 -52.0176
L20.6041 -51.776
L20.4151 -51.5337
L20.2294 -51.2907
L20.047 -51.0471
L19.8678 -50.8027
L19.6917 -50.5576
L19.5186 -50.3117
L19.3485 -50.0649
L19.1813 -49.8174
L19.017 -49.5689
L18.8554 -49.3195
L18.6966 -49.0692
L18.5405 -48.8178
L18.3871 -48.5653
L18.2362 -48.3118
L18.0879 -48.0571
L17.942 -47.8012
L17.7987 -47.544
L17.6578 -47.2855
L17.5193 -47.0256
L17.3832 -46.7643
L17.2495 -46.5015
L17.118 -46.2371
L16.9889 -45.9712
L16.8621 -45.7036
L16.7376 -45.4342
L16.6153 -45.163
L16.4953 -44.89
L16.3776 -44.615
L16.2621 -44.338
L16.1488 -44.0589
L16.0379 -43.7777
L15.9292 -43.4942
L15.8227 -43.2084
L15.7186 -42.9203
L15.6168 -42.6297
L15.5173 -42.3365
L15.4202 -42.0407
L15.3255 -41.7422
L15.2332 -41.441
L15.1434 -41.1368
L15.056 -40.8297
L14.9712 -40.5196
L14.8891 -40.2063
L14.8095 -39.8899
L14.7327 -39.5701
L14.6587 -39.2469
L14.5875 -38.9203
L14.5193 -38.5901
L14.4541 -38.2562
L14.3919 -37.9187
L14.333 -37.5772
L14.2773 -37.2319
L14.2251 -36.8826
L14.1763 -36.5292
L14.1312 -36.1716
L14.0898 -35.8097
L14.0523 -35.4436
L14.0188 -35.0731
L13.9894 -34.698
L13.9644 -34.3185
L13.9439 -33.9343
L13.9279 -33.5455
L13.9168 -33.152
L13.9107 -32.7537
L13.9098 -32.3506
L13.9142 -31.9426
L13.9243 -31.5298
L13.9401 -31.1122
L13.9619 -30.6896
L13.99 -30.2622
L14.0245 -29.8299
L14.0658 -29.3928
L14.114 -28.9509
L14.1694 -28.5043
L14.2322 -28.0531
L14.3027 -27.5972
L14.3812 -27.137
L14.4679 -26.6724
L14.563 -26.2037
L14.6668 -25.731
L14.7795 -25.2546
L14.9015 -24.7746
L15.0328 -24.2912
L15.1737 -23.8049
L15.3243 -23.3159
L15.485 -22.8244
L15.6557 -22.331
L15.8366 -21.836
L16.0277 -21.3399
L16.229 -20.8431
L16.4404 -20.3462
L16.6617 -19.8498
L16.8928 -19.3544
L17.133 -18.8609
L17.3819 -18.37
L17.6384 -17.8826
L17.9015 -17.3996
L18.1694 -16.9223
L18.4399 -16.452
L18.7097 -15.9905
L18.9746 -15.5397
L19.2286 -15.1023
L19.4635 -14.6816
L19.6685 -14.2818
L19.8306 -13.9077
L19.9355 -13.5645
L19.971 -13.2561
L19.9312 -12.9845
L19.3141 -12.7486
L18.9134 -12.8952
L18.518 -13.1899
L18.1278 -13.4916
L17.7431 -13.8001
L17.3639 -14.1154
L16.9904 -14.4374
L16.6227 -14.7659
L16.261 -15.1009
L15.9052 -15.4423
L15.5555 -15.7899
L15.2121 -16.1437
L14.875 -16.5035
L14.5443 -16.8693
L14.2202 -17.2409
L13.9027 -17.6182
L13.592 -18.0011
L13.288 -18.3895
L12.991 -18.7832
L12.701 -19.1822
L12.4181 -19.5864
L12.1424 -19.9955
L11.8739 -20.4095
L11.6128 -20.8282
L11.3591 -21.2516
L11.113 -21.6795
L10.8744 -22.1117
L10.6434 -22.5481
L10.4202 -22.9887
L10.2048 -23.4332
L9.99722 -23.8816
L9.79757 -24.3336
L9.6059 -24.7892
L9.42228 -25.2482
L9.24675 -25.7105
L9.07937 -26.1759
L8.92019 -26.6443
L8.76926 -27.1155
L8.62662 -27.5895
L8.49232 -28.066
L8.3664 -28.545
L8.2489 -29.0262
L8.13986 -29.5095
L8.03929 -29.9948
L7.94725 -30.4819
L7.86375 -30.9708
L7.78882 -31.4611
L7.72248 -31.9529
L7.66476 -32.4458
L7.61567 -32.9399
L7.57523 -33.4349
L7.54344 -33.9306
L7.52032 -34.427
L7.50588 -34.9239
L7.50012 -35.4211
L7.50303 -35.9185
L7.51463 -36.4159
L7.53491 -36.9132
L7.56385 -37.4102
L7.60146 -37.9067
L7.64772 -38.4027
L7.70262 -38.898
L7.76613 -39.3924
L7.83825 -39.8857
L7.91894 -40.3779
L8.00819 -40.8687
L8.10596 -41.358
L8.21223 -41.8457
L8.32696 -42.3317
L8.45013 -42.8157
L8.58169 -43.2976
L8.72159 -43.7773
L8.86981 -44.2546
L9.02629 -44.7294
L9.19099 -45.2016
L9.36385 -45.6709
L9.54483 -46.1373
L9.73387 -46.6007
L9.93091 -47.0608
L10.1359 -47.5175
L10.3487 -47.9707
L10.5694 -48.4203
L10.7978 -48.866
L11.0339 -49.3079
L11.2776 -49.7457
L11.5288 -50.1793
L11.7875 -50.6087
L12.0536 -51.0335
L12.3269 -51.4538
L12.6075 -51.8694
L12.8952 -52.2801
L13.1899 -52.6859
L13.4916 -53.0866
L13.8001 -53.482
L14.1154 -53.8722
L14.4374 -54.2569
L14.7659 -54.6361
L15.1009 -55.0096
L15.4423 -55.3773
L15.7899 -55.739
L16.1437 -56.0948
L16.5035 -56.4445
L16.8693 -56.7879
L17.2409 -57.125
L17.6182 -57.4557
L18.0011 -57.7798
L18.3895 -58.0973
L18.7832 -58.408
L19.1822 -58.712
L19.5864 -59.009
L19.9955 -59.299
L20.4095 -59.5819
L20.8282 -59.8576
L21.2516 -60.1261
L21.6795 -60.3872
L22.1117 -60.6409
L22.5481 -60.887
L22.9887 -61.1256
L23.4332 -61.3566
L23.8816 -61.5798
L24.3336 -61.7952
L24.7892 -62.0028
L25.2482 -62.2024
L25.7105 -62.3941
L26.1759 -62.5777
L26.6443 -62.7533
L27.1155 -62.9206
L27.5895 -63.0798
L28.066 -63.2307
L28.545 -63.3734
L29.0262 -63.5077
L29.5095 -63.6336
L29.9948 -63.7511
L30.4819 -63.8601
L30.9708 -63.9607
L31.4611 -64.0528
L31.9529 -64.1363
L32.4458 -64.2112
L32.9399 -64.2775
L33.4349 -64.3352
L33.9306 -64.3843
L34.427 -64.4248
L34.9239 -64.4566
L35.4211 -64.4797
L35.9185 -64.4941
L36.4159 -64.4999
L36.9132 -64.497
L37.4102 -64.4854
L37.9067 -64.4651
L38.4027 -64.4361
L38.898 -64.3985
L39.3924 -64.3523
L39.8857 -64.2974
L40.3779 -64.2339
L40.8687 -64.1618
L41.358 -64.0811
L41.8457 -63.9918
L42.3317 -63.894
L42.8157 -63.7878
L43.2976 -63.673
L43.7773 -63.5499
z
" id="C0_2_dd115aa8b1"/>
    </defs>
    <g clip-path="url(#p1bffca34e9)">
     <use style="fill:#ff0000;stroke:#000000;stroke-width:2.0;" x="0.0" xlink:href="#C0_0_a811fe30f3" y="72.0"/>
    </g>
    <g clip-path="url(#p1bffca34e9)">
     <use style="fill:#ffffff;stroke:#000000;stroke-width:2.0;" x="0.0" xlink:href="#C0_1_970c0e48e2" y="72.0"/>
    </g>
    <g clip-path="url(#p1bffca34e9)">
     <use style="fill:#ffffff;stroke:#000000;stroke-width:2.0;" x="0.0" xlink:href="#C0_2_dd115aa8b1" y="72.0"/>
    </g>
   </g>
  </g>
 </g>
 <defs>
  <clipPath id="p1bffca34e9">
   <rect height="72.0" width="72.0" x="0.0" y="0.0"/>
  </clipPath>
 </defs>
</svg>
