<?xml version="1.0" encoding="utf-8" standalone="no"?>
<!DOCTYPE svg PUBLIC "-//W3C//DTD SVG 1.1//EN"
  "http://www.w3.org/Graphics/SVG/1.1/DTD/svg11.dtd">
<!-- Created with matplotlib (http://matplotlib.org/) -->
<svg height="72pt" version="1.1" viewBox="0 0 72 72" width="72pt" xmlns="http://www.w3.org/2000/svg" xmlns:xlink="http://www.w3.org/1999/xlink">
 <defs>
  <style type="text/css">
*{stroke-linecap:butt;stroke-linejoin:round;}
  </style>
 </defs>
 <g id="figure_1">
  <g id="patch_1">
   <path d="
M0 72
L72 72
L72 0
L0 0
z
" style="fill:none;"/>
  </g>
  <g id="axes_1">
   <g id="PatchCollection_1">
    <defs>
     <path d="
M36 -7.5
C43.5583 -7.5 50.808 -10.5029 56.1525 -15.8475
C61.4971 -21.192 64.5 -28.4417 64.5 -36
C64.5 -43.5583 61.4971 -50.808 56.1525 -56.1525
C50.808 -61.4971 43.5583 -64.5 36 -64.5
C28.4417 -64.5 21.192 -61.4971 15.8475 -56.1525
C10.5029 -50.808 7.5 -43.5583 7.5 -36
C7.5 -28.4417 10.5029 -21.192 15.8475 -15.8475
C21.192 -10.5029 28.4417 -7.5 36 -7.5
z
" id="C0_0_a811fe30f3"/>
     <path d="
M30.134 -22.5388
L30.4149 -22.5109
L30.6961 -22.486
L30.9777 -22.464
L31.2596 -22.445
L31.5418 -22.4288
L31.8244 -22.4155
L32.1074 -22.4051
L32.3907 -22.3977
L32.6745 -22.3932
L32.9586 -22.3916
L33.2431 -22.3929
L33.5281 -22.3972
L33.8134 -22.4045
L34.0992 -22.4148
L34.3853 -22.4281
L34.6719 -22.4444
L34.959 -22.4637
L35.2464 -22.4861
L35.5343 -22.5117
L35.8225 -22.5403
L36.1112 -22.5721
L36.4004 -22.6071
L36.6899 -22.6453
L36.9798 -22.6868
L37.27 -22.7316
L37.5607 -22.7797
L37.8517 -22.8312
L38.143 -22.8861
L38.4346 -22.9445
L38.7266 -23.0064
L39.0187 -23.0718
L39.3111 -23.1409
L39.6037 -23.2136
L39.8965 -23.29
L40.1893 -23.3702
L40.4822 -23.4542
L40.7752 -23.5421
L41.0681 -23.6339
L41.3609 -23.7298
L41.6535 -23.8296
L41.9459 -23.9336
L42.2381 -24.0418
L42.5298 -24.1543
L42.8211 -24.271
L43.1118 -24.3921
L43.4019 -24.5176
L43.6912 -24.6477
L43.9797 -24.7822
L44.2672 -24.9215
L44.5536 -25.0654
L44.8388 -25.214
L45.1226 -25.3675
L45.4049 -25.5258
L45.6856 -25.6891
L45.9645 -25.8573
L46.2414 -26.0306
L46.5162 -26.209
L46.7886 -26.3925
L47.0586 -26.5813
L47.3258 -26.7752
L47.5902 -26.9744
L47.8514 -27.1789
L48.1093 -27.3887
L48.3637 -27.6039
L48.6143 -27.8244
L48.8609 -28.0503
L49.1032 -28.2816
L49.3411 -28.5183
L49.5742 -28.7603
L49.8023 -29.0077
L50.0252 -29.2604
L50.2425 -29.5183
L50.4541 -29.7815
L50.6597 -30.0499
L50.859 -30.3234
L51.0518 -30.6019
L51.2377 -30.8853
L51.4166 -31.1736
L51.5882 -31.4666
L51.7523 -31.7641
L51.9087 -32.0662
L52.057 -32.3725
L52.1972 -32.683
L52.329 -32.9974
L52.4522 -33.3157
L52.5667 -33.6375
L52.6723 -33.9627
L52.7688 -34.2911
L52.8563 -34.6224
L52.9344 -34.9565
L53.0032 -35.293
L53.0626 -35.6317
L53.1126 -35.9724
L53.1531 -36.3148
L53.1841 -36.6587
L53.2057 -37.0038
L53.2178 -37.3497
L53.2205 -37.6963
L53.2139 -38.0433
L53.1981 -38.3905
L53.1731 -38.7375
L53.1391 -39.084
L53.0962 -39.43
L53.0446 -39.7751
L52.9843 -40.119
L52.9156 -40.4615
L52.8387 -40.8025
L52.7536 -41.1417
L52.6607 -41.4788
L52.5601 -41.8138
L52.452 -42.1463
L52.3366 -42.4762
L52.2141 -42.8034
L52.0847 -43.1277
L51.9487 -43.4489
L51.8062 -43.7669
L51.6575 -44.0815
L51.5027 -44.3927
L51.3422 -44.7003
L51.176 -45.0042
L51.0044 -45.3044
L50.8276 -45.6006
L50.6458 -45.893
L50.4591 -46.1813
L50.2679 -46.4656
L50.0721 -46.7457
L49.8722 -47.0217
L49.6681 -47.2935
L49.4601 -47.561
L49.2483 -47.8242
L49.0329 -48.0832
L48.8141 -48.3378
L48.592 -48.5881
L48.3667 -48.8341
L48.1384 -49.0757
L47.9072 -49.313
L47.6733 -49.546
L47.4367 -49.7746
L47.1975 -49.999
L46.956 -50.219
L46.7121 -50.4347
L46.466 -50.6462
L46.2178 -50.8534
L45.9675 -51.0564
L45.7153 -51.2552
L45.4612 -51.4498
L45.2054 -51.6403
L44.9478 -51.8266
L44.6885 -52.0089
L44.4277 -52.187
L44.1653 -52.3612
L43.9015 -52.5313
L43.6362 -52.6974
L43.3696 -52.8595
L43.1016 -53.0177
L42.8324 -53.1721
L42.5619 -53.3225
L42.2902 -53.469
L42.0173 -53.6118
L41.7433 -53.7507
L41.4681 -53.8859
L41.1918 -54.0173
L40.9145 -54.1449
L40.6361 -54.2689
L40.3567 -54.3891
L40.0763 -54.5057
L39.7948 -54.6185
L39.5124 -54.7278
L39.229 -54.8334
L38.9446 -54.9353
L38.6593 -55.0337
L38.373 -55.1284
L38.0857 -55.2196
L37.7976 -55.3071
L37.5084 -55.391
L37.2183 -55.4714
L36.9273 -55.5481
L36.6353 -55.6213
L36.3424 -55.6908
L36.0486 -55.7568
L35.7538 -55.8191
L35.4581 -55.8778
L35.1614 -55.9328
L34.8638 -55.9842
L34.5652 -56.0318
L34.2656 -56.0758
L33.9652 -56.1161
L33.6637 -56.1526
L33.3613 -56.1854
L33.0579 -56.2143
L32.7536 -56.2394
L32.4483 -56.2606
L32.1421 -56.278
L31.8349 -56.2914
L31.5268 -56.3007
L31.2177 -56.3061
L30.9076 -56.3074
L30.5967 -56.3045
L30.2848 -56.2975
L29.972 -56.2863
L29.6583 -56.2707
L29.3437 -56.2508
L29.0283 -56.2265
L28.712 -56.1977
L28.3949 -56.1644
L28.077 -56.1265
L27.7584 -56.0839
L27.439 -56.0365
L27.1189 -55.9843
L26.7982 -55.9272
L26.4769 -55.8651
L26.155 -55.798
L25.8326 -55.7257
L25.5097 -55.6481
L25.1865 -55.5653
L24.8629 -55.477
L24.5391 -55.3832
L24.2151 -55.2839
L23.8911 -55.1788
L23.567 -55.068
L23.2431 -54.9513
L22.9194 -54.8287
L22.596 -54.7
L22.2731 -54.5652
L21.9507 -54.4241
L21.629 -54.2767
L21.3082 -54.1229
L20.9884 -53.9626
L20.6697 -53.7958
L20.3524 -53.6223
L20.0365 -53.442
L19.7224 -53.255
L19.4101 -53.061
L19.1 -52.8602
L18.7921 -52.6523
L18.4868 -52.4374
L18.1842 -52.2154
L17.8846 -51.9863
L17.5883 -51.7501
L17.2955 -51.5067
L17.0065 -51.2562
L16.7215 -50.9985
L16.4408 -50.7337
L16.1648 -50.4617
L15.8937 -50.1827
L15.6278 -49.8968
L15.3674 -49.6039
L15.1129 -49.3041
L14.8645 -48.9976
L14.6226 -48.6846
L14.3875 -48.365
L14.1595 -48.0392
L13.939 -47.7072
L13.7261 -47.3693
L13.5213 -47.0257
L13.3249 -46.6765
L13.1371 -46.3222
L12.9582 -45.9628
L12.7884 -45.5988
L12.6282 -45.2303
L12.4776 -44.8578
L12.337 -44.4816
L12.2064 -44.1019
L12.0862 -43.7192
L11.9765 -43.3337
L11.8775 -42.946
L11.7891 -42.5564
L11.7117 -42.1652
L11.6452 -41.7728
L11.5896 -41.3797
L11.5451 -40.9863
L11.5116 -40.5928
L11.4891 -40.1998
L11.4775 -39.8075
L11.4767 -39.4164
L11.4868 -39.0269
L11.5074 -38.6392
L11.5386 -38.2537
L11.5801 -37.8707
L11.6318 -37.4907
L11.6934 -37.1137
L11.7648 -36.7402
L11.8458 -36.3704
L11.936 -36.0046
L12.0352 -35.6429
L12.1433 -35.2856
L12.2598 -34.9329
L12.3846 -34.585
L12.5174 -34.2419
L12.6578 -33.904
L12.8057 -33.5713
L12.9607 -33.2438
L13.1225 -32.9218
L13.2909 -32.6053
L13.4656 -32.2944
L13.6463 -31.989
L13.8328 -31.6894
L14.0248 -31.3954
L14.2219 -31.1072
L14.4241 -30.8247
L14.631 -30.548
L14.8424 -30.277
L15.058 -30.0117
L15.2777 -29.7521
L15.5012 -29.4982
L15.7283 -29.25
L15.9588 -29.0073
L16.1925 -28.7702
L16.4292 -28.5386
L16.6688 -28.3124
L16.9111 -28.0917
L17.1559 -27.8762
L17.403 -27.6661
L17.6524 -27.4611
L17.9038 -27.2613
L18.1572 -27.0666
L18.4123 -26.8768
L18.6692 -26.692
L18.9276 -26.5121
L19.1875 -26.3369
L19.4488 -26.1664
L19.7114 -26.0006
L19.9751 -25.8394
L20.2399 -25.6826
L20.5058 -25.5303
L20.7726 -25.3824
L21.0402 -25.2387
L21.3087 -25.0992
L21.578 -24.9639
L21.8479 -24.8327
L22.1185 -24.7055
L22.3897 -24.5823
L22.6615 -24.463
L22.9338 -24.3475
L23.2066 -24.2358
L23.4798 -24.1278
L23.7535 -24.0235
L24.0276 -23.9228
L24.302 -23.8257
L24.5768 -23.7321
L24.852 -23.6419
L25.1274 -23.5552
L25.4032 -23.4719
L25.6793 -23.3919
L25.9556 -23.3151
L26.2323 -23.2417
L26.5092 -23.1715
L26.7864 -23.1044
L27.0638 -23.0405
L27.3416 -22.9798
L27.6196 -22.9221
L27.8978 -22.8675
L28.1763 -22.816
L28.4552 -22.7674
L28.7342 -22.7219
L29.0136 -22.6794
L29.2933 -22.6398
L29.5732 -22.6032
z
" id="C0_1_4d45be345b"/>
    </defs>
    <g clip-path="url(#p1bffca34e9)">
     <use style="fill:#ff0000;stroke:#000000;stroke-width:2.0;" x="0.0" xlink:href="#C0_0_a811fe30f3" y="72.0"/>
    </g>
    <g clip-path="url(#p1bffca34e9)">
     <use style="fill:#ffffff;stroke:#000000;stroke-width:2.0;" x="0.0" xlink:href="#C0_1_4d45be345b" y="72.0"/>
    </g>
   </g>
  </g>
 </g>
 <defs>
  <clipPath id="p1bffca34e9">
   <rect height="72.0" width="72.0" x="0.0" y="0.0"/>
  </clipPath>
 </defs>
</svg>
