<?xml version="1.0" encoding="utf-8" standalone="no"?>
<!DOCTYPE svg PUBLIC "-//W3C//DTD SVG 1.1//EN"
  "http://www.w3.org/Graphics/SVG/1.1/DTD/svg11.dtd">
<!-- Created with matplotlib (http://matplotlib.org/) -->
<svg height="72pt" version="1.1" viewBox="0 0 72 72" width="72pt" xmlns="http://www.w3.org/2000/svg" xmlns:xlink="http://www.w3.org/1999/xlink">
 <defs>
  <style type="text/css">
*{stroke-linecap:butt;stroke-linejoin:round;}
  </style>
 </defs>
 <g id="figure_1">
  <g id="patch_1">
   <path d="
M0 72
L72 72
L72 0
L0 0
z
" style="fill:none;"/>
  </g>
  <g id="axes_1">
   <g id="PatchCollection_1">
    <defs>
     <path d="
M36 -7.5
C43.5583 -7.5 50.808 -10.5029 56.1525 -15.8475
C61.4971 -21.192 64.5 -28.4417 64.5 -36
C64.5 -43.5583 61.4971 -50.808 56.1525 -56.1525
C50.808 -61.4971 43.5583 -64.5 36 -64.5
C28.4417 -64.5 21.192 -61.4971 15.8475 -56.1525
C10.5029 -50.808 7.5 -43.5583 7.5 -36
C7.5 -28.4417 10.5029 -21.192 15.8475 -15.8475
C21.192 -10.5029 28.4417 -7.5 36 -7.5
z
" id="C0_0_a811fe30f3"/>
     <path d="
M7.64116 -38.0058
L7.89011 -38.0538
L8.14326 -38.0704
L8.40032 -38.0578
L8.66106 -38.0186
L8.92528 -37.9555
L9.19281 -37.8711
L9.46351 -37.768
L9.73724 -37.6485
L10.0139 -37.5151
L10.2932 -37.3696
L10.5752 -37.2142
L10.8597 -37.0503
L11.1464 -36.8795
L11.4352 -36.7032
L11.7259 -36.5225
L12.0184 -36.3384
L12.3125 -36.1519
L12.6079 -35.9637
L12.9046 -35.7744
L13.2022 -35.5847
L13.5007 -35.3951
L13.7998 -35.206
L14.0994 -35.0178
L14.3993 -34.8308
L14.6994 -34.6452
L14.9994 -34.4614
L15.2994 -34.2796
L15.599 -34.0998
L15.8982 -33.9222
L16.197 -33.7469
L16.495 -33.5741
L16.7924 -33.4038
L17.0889 -33.236
L17.3845 -33.0709
L17.6791 -32.9083
L17.9727 -32.7485
L18.2651 -32.5912
L18.5563 -32.4366
L18.8464 -32.2846
L19.1351 -32.1353
L19.4226 -31.9885
L19.7087 -31.8444
L19.9934 -31.7028
L20.2768 -31.5636
L20.5588 -31.427
L20.8394 -31.2928
L21.1186 -31.161
L21.3965 -31.0315
L21.6729 -30.9044
L21.9479 -30.7795
L22.2216 -30.6568
L22.4939 -30.5363
L22.7649 -30.4179
L23.0346 -30.3016
L23.303 -30.1874
L23.5702 -30.0751
L23.8361 -29.9647
L24.1009 -29.8563
L24.3644 -29.7497
L24.6269 -29.6449
L24.8882 -29.5419
L25.1485 -29.4405
L25.4078 -29.3409
L25.6661 -29.2429
L25.9236 -29.1465
L26.1801 -29.0516
L26.4358 -28.9583
L26.6907 -28.8664
L26.9448 -28.776
L27.1983 -28.687
L27.4511 -28.5994
L27.7033 -28.5131
L27.955 -28.4281
L28.2062 -28.3444
L28.4569 -28.262
L28.7072 -28.1807
L28.9572 -28.1007
L29.207 -28.0218
L29.4564 -27.944
L29.7057 -27.8674
L29.9549 -27.7918
L30.204 -27.7173
L30.453 -27.6438
L30.7021 -27.5714
L30.9513 -27.5
L31.2007 -27.4295
L31.7001 -27.36
L31.9502 -27.2914
L32.2007 -27.2238
L32.4516 -27.157
L32.703 -27.0912
L32.955 -27.0262
L33.2076 -26.9621
L33.4609 -26.8989
L33.7148 -26.8365
L33.9696 -26.7749
L34.2252 -26.7142
L34.4817 -26.6543
L34.7392 -26.5952
L34.9976 -26.5369
L35.2572 -26.4794
L35.518 -26.4227
L35.7799 -26.3668
L36.0431 -26.3117
L36.3076 -26.2574
L36.5735 -26.2039
L36.8409 -26.1511
L37.1098 -26.0992
L37.3803 -26.0481
L37.6524 -25.9977
L37.9262 -25.9482
L38.2018 -25.8995
L38.4792 -25.8516
L38.7584 -25.8046
L39.0396 -25.7584
L39.3228 -25.7131
L39.6081 -25.6686
L39.8955 -25.625
L40.185 -25.5824
L40.4768 -25.5406
L40.7708 -25.4998
L41.0672 -25.4599
L41.3659 -25.4211
L41.6671 -25.3832
L41.9708 -25.3464
L42.2769 -25.3106
L42.5856 -25.2759
L42.897 -25.2422
L43.2109 -25.2098
L43.5275 -25.1784
L43.8467 -25.1483
L44.1687 -25.1194
L44.4934 -25.0917
L44.8207 -25.0654
L45.1508 -25.0403
L45.4837 -25.0165
L45.8192 -24.9942
L46.1574 -24.9732
L46.4982 -24.9537
L46.8417 -24.9356
L47.1878 -24.919
L47.5363 -24.9039
L47.8872 -24.8902
L48.2405 -24.8781
L48.5961 -24.8675
L48.9537 -24.8584
L49.3134 -24.8508
L49.6749 -24.8446
L50.038 -24.8398
L50.4026 -24.8365
L50.7684 -24.8343
L51.1353 -24.8334
L51.5029 -24.8336
L51.8709 -24.8346
L52.239 -24.8364
L52.6069 -24.8387
L52.9741 -24.8412
L53.3401 -24.8437
L53.7046 -24.8456
L54.0668 -24.8467
L54.4263 -24.8463
L54.7824 -24.8438
L55.1343 -24.8386
L55.4811 -24.8297
L55.8222 -24.8163
L56.1563 -24.7973
L56.4826 -24.7714
L56.7998 -24.7372
L57.1066 -24.6932
L57.4019 -24.6377
L57.6842 -24.5689
L57.952 -24.485
L58.204 -24.384
L58.4387 -24.264
L58.6549 -24.1231
L58.8513 -23.9599
L59.0269 -23.773
L59.181 -23.5615
L59.3128 -23.325
L59.4221 -23.0634
L59.5088 -22.7773
L59.573 -22.4676
L59.615 -22.1355
L59.6351 -21.7828
L59.6339 -21.4112
L59.612 -21.0226
L59.5699 -20.6189
L59.3936 -20.2022
L59.106 -19.7215
L58.8113 -19.3158
L58.5096 -18.915
L58.2011 -18.5195
L57.8859 -18.1293
L57.5639 -17.7446
L57.2354 -17.3654
L56.9004 -16.9919
L56.5591 -16.6242
L56.2115 -16.2624
L55.8578 -15.9066
L55.4979 -15.5569
L55.1322 -15.2135
L54.7606 -14.8763
L54.3833 -14.5457
L54.0005 -14.2215
L53.6121 -13.904
L53.2183 -13.5932
L52.8194 -13.2892
L52.4153 -12.9922
L52.0062 -12.7022
L51.5922 -12.4192
L51.1735 -12.1435
L50.7501 -11.875
L50.3223 -11.6138
L49.8901 -11.3601
L49.4536 -11.1139
L49.0131 -10.8753
L48.5686 -10.6443
L48.1203 -10.4211
L47.6682 -10.2056
L47.2127 -9.99803
L46.7537 -9.79835
L46.2914 -9.60666
L45.826 -9.423
L45.3576 -9.24744
L44.8864 -9.08002
L44.4124 -8.92081
L43.9359 -8.76985
L43.457 -8.62718
L42.9758 -8.49285
L42.4924 -8.36689
L42.0071 -8.24936
L41.52 -8.14028
L41.0312 -8.03968
L40.5408 -7.9476
L40.0491 -7.86407
L39.5561 -7.7891
L39.0621 -7.72273
L38.5671 -7.66498
L38.0714 -7.61585
L37.575 -7.57537
L37.0781 -7.54355
L36.5809 -7.5204
L36.0835 -7.50592
L35.5861 -7.50012
L35.0888 -7.50301
L34.5918 -7.51457
L34.0953 -7.53481
L33.5993 -7.56372
L33.104 -7.60129
L32.6096 -7.64752
L32.1163 -7.70238
L31.6241 -7.76586
L31.1333 -7.83794
L30.6439 -7.9186
L30.1562 -8.00781
L29.6703 -8.10555
L29.1863 -8.21179
L28.7044 -8.32649
L28.2246 -8.44962
L27.7473 -8.58114
L27.2725 -8.72102
L26.8003 -8.8692
L26.3309 -9.02565
L25.8645 -9.19031
L25.4012 -9.36314
L24.9411 -9.54409
L24.4843 -9.73309
L24.0311 -9.9301
L23.5815 -10.135
L23.1357 -10.3479
L22.6939 -10.5685
L22.256 -10.7969
L21.8224 -11.033
L21.3931 -11.2766
L20.9682 -11.5278
L20.5479 -11.7865
L20.1323 -12.0525
L19.7215 -12.3258
L19.3158 -12.6064
L18.915 -12.894
L18.5195 -13.1887
L18.1293 -13.4904
L17.7446 -13.7989
L17.3654 -14.1141
L16.9919 -14.4361
L16.6242 -14.7646
L16.2624 -15.0996
L15.9066 -15.4409
L15.5569 -15.7885
L15.2135 -16.1422
L14.8763 -16.5021
L14.5457 -16.8678
L14.2215 -17.2394
L13.904 -17.6167
L13.5932 -17.9995
L13.2892 -18.3879
L12.9922 -18.7817
L12.7022 -19.1806
L12.4192 -19.5847
L12.1435 -19.9938
L11.875 -20.4078
L11.6138 -20.8265
L11.3601 -21.2499
L11.1139 -21.6777
L10.8753 -22.1099
L10.6443 -22.5464
L10.4211 -22.9869
L10.2056 -23.4314
L9.99803 -23.8797
L9.79835 -24.3318
L9.60666 -24.7873
L9.423 -25.2463
L9.24744 -25.7086
L9.08002 -26.174
L8.92081 -26.6424
L8.76985 -27.1136
L8.62718 -27.5876
L8.49285 -28.0641
L8.36689 -28.543
L8.24936 -29.0242
L8.14028 -29.5076
L8.03968 -29.9929
L7.9476 -30.48
L7.86407 -30.9688
L7.7891 -31.4592
L7.72273 -31.9509
L7.66498 -32.4439
L7.61585 -32.9379
L7.57537 -33.4329
L7.54355 -33.9286
L7.5204 -34.425
L7.50592 -34.9219
L7.50012 -35.4191
L7.50301 -35.9165
L7.51457 -36.4139
L7.53481 -36.9112
z
" id="C0_1_ccd0e46021"/>
     <path d="
M12.5976 -52.1527
L12.9803 -52.3728
L13.3695 -52.5957
L13.7644 -52.8199
L14.1644 -53.0438
L14.5688 -53.2664
L14.9771 -53.4864
L15.3885 -53.703
L15.8025 -53.9156
L16.2187 -54.1233
L16.6366 -54.3257
L17.0556 -54.5224
L17.4754 -54.713
L17.8955 -54.8972
L18.3156 -55.0749
L18.7353 -55.246
L19.1543 -55.4102
L19.5723 -55.5676
L19.9891 -55.7181
L20.4044 -55.8618
L20.8179 -55.9987
L21.2295 -56.1289
L21.639 -56.2523
L22.0462 -56.3692
L22.4509 -56.4797
L22.8531 -56.5838
L23.2526 -56.6816
L23.6493 -56.7734
L24.0432 -56.8593
L24.4341 -56.9393
L24.822 -57.0136
L25.2068 -57.0825
L25.5886 -57.1459
L25.9672 -57.2042
L26.3428 -57.2573
L26.7151 -57.3055
L27.0844 -57.3489
L27.4504 -57.3876
L27.8134 -57.4217
L28.1732 -57.4515
L28.53 -57.4769
L28.8837 -57.4982
L29.2343 -57.5154
L29.582 -57.5287
L29.9267 -57.5381
L30.2685 -57.5438
L30.6075 -57.5459
L30.9436 -57.5445
L31.277 -57.5396
L31.6077 -57.5314
L31.9358 -57.5199
L32.2613 -57.5052
L32.5842 -57.4874
L32.9047 -57.4665
L33.2228 -57.4427
L33.5385 -57.416
L33.852 -57.3864
L34.1633 -57.354
L34.4724 -57.3189
L34.7794 -57.281
L35.0845 -57.2405
L35.3875 -57.1974
L35.6887 -57.1517
L35.9881 -57.1035
L36.2857 -57.0528
L36.5817 -56.9996
L36.876 -56.9439
L37.1688 -56.8858
L37.46 -56.8252
L37.7498 -56.7623
L38.0383 -56.697
L38.3255 -56.6293
L38.6114 -56.5592
L38.8961 -56.4868
L39.1797 -56.412
L39.4623 -56.3348
L39.7438 -56.2553
L40.0244 -56.1734
L40.3041 -56.0891
L40.583 -56.0024
L40.8611 -55.9133
L41.1386 -55.8218
L41.4153 -55.7278
L41.6915 -55.6313
L41.9671 -55.5324
L42.2422 -55.4309
L42.5168 -55.3269
L42.7911 -55.2204
L43.065 -55.1112
L43.3386 -54.9993
L43.612 -54.8848
L43.8851 -54.7675
L44.1581 -54.6475
L44.431 -54.5246
L44.7038 -54.3989
L44.9766 -54.2702
L45.2494 -54.1386
L45.5223 -54.0039
L45.7952 -53.8661
L46.0683 -53.7252
L46.3415 -53.5811
L46.6149 -53.4336
L46.8885 -53.2828
L47.1623 -53.1286
L47.4364 -52.9709
L47.7109 -52.8096
L47.9856 -52.6446
L48.2606 -52.4758
L48.536 -52.3033
L48.8118 -52.1268
L49.0879 -51.9464
L49.3644 -51.7618
L49.6412 -51.573
L49.9185 -51.38
L50.1961 -51.1826
L50.474 -50.9807
L50.7523 -50.7742
L51.0309 -50.5631
L51.3099 -50.3472
L51.5891 -50.1264
L51.8685 -49.9006
L52.1481 -49.6698
L52.4279 -49.4338
L52.7078 -49.1925
L52.9877 -48.9458
L53.2676 -48.6936
L53.5475 -48.4359
L53.8271 -48.1726
L54.1065 -47.9035
L54.3856 -47.6285
L54.6642 -47.3477
L54.9422 -47.061
L55.2196 -46.7682
L55.4961 -46.4694
L55.7718 -46.1644
L56.0464 -45.8534
L56.3197 -45.5363
L56.5917 -45.213
L56.8622 -44.8837
L57.131 -44.5484
L57.3979 -44.2071
L57.6628 -43.86
L57.9255 -43.5073
L58.1858 -43.149
L58.4436 -42.7854
L58.6987 -42.4168
L58.9508 -42.0435
L59.1999 -41.6658
L59.4458 -41.2841
L59.6885 -40.8991
L59.9277 -40.5112
L60.1633 -40.1211
L60.3955 -39.7296
L60.6241 -39.3376
L60.8492 -38.946
L61.0709 -38.5561
L61.2893 -38.169
L61.5047 -37.7861
L61.7174 -37.4092
L61.9277 -37.0399
L62.1361 -36.6802
L62.3433 -36.3321
L62.5498 -35.998
L62.7564 -35.6801
L62.9639 -35.3808
L63.173 -35.1026
L63.3845 -34.8477
L63.5991 -34.6182
L63.8175 -34.4159
L64.0401 -34.2423
L64.4648 -34.0982
L64.4852 -34.5835
L64.4969 -35.0805
L64.4999 -35.5777
L64.4942 -36.0751
L64.4799 -36.5725
L64.4569 -37.0697
L64.4252 -37.5666
L64.3849 -38.063
L64.3359 -38.5588
L64.2783 -39.0538
L64.2121 -39.5478
L64.1373 -40.0408
L64.0539 -40.5326
L63.9619 -41.023
L63.8615 -41.5118
L63.7525 -41.999
L63.6352 -42.4843
L63.5093 -42.9677
L63.3752 -43.4489
L63.2326 -43.9279
L63.0818 -44.4044
L62.9227 -44.8784
L62.7554 -45.3497
L62.58 -45.8181
L62.3965 -46.2836
L62.2049 -46.7459
L62.0054 -47.205
L61.7979 -47.6606
L61.5826 -48.1127
L61.3595 -48.5611
L61.1286 -49.0056
L60.8901 -49.4462
L60.6441 -49.8827
L60.3905 -50.315
L60.1295 -50.7429
L59.8611 -51.1664
L59.5855 -51.5852
L59.3027 -51.9992
L59.0127 -52.4084
L58.7158 -52.8126
L58.412 -53.2117
L58.1013 -53.6055
L57.7839 -53.994
L57.4599 -54.3769
L57.1293 -54.7543
L56.7923 -55.126
L56.4489 -55.4918
L56.0993 -55.8517
L55.7436 -56.2056
L55.3819 -56.5533
L55.0143 -56.8948
L54.6409 -57.2298
L54.2618 -57.5584
L53.8772 -57.8805
L53.4871 -58.1959
L53.0917 -58.5045
L52.691 -58.8063
L52.2853 -59.1011
L51.8747 -59.3888
L51.4591 -59.6695
L51.0389 -59.943
L50.6141 -60.2091
L50.1849 -60.4679
L49.7513 -60.7192
L49.3136 -60.963
L48.8717 -61.1992
L48.426 -61.4277
L47.9765 -61.6485
L47.5233 -61.8614
L47.0666 -62.0665
L46.6066 -62.2637
L46.1433 -62.4528
L45.6769 -62.6339
L45.2076 -62.8068
L44.7355 -62.9716
L44.2607 -63.1282
L43.7834 -63.2766
L43.3037 -63.4166
L42.8218 -63.5482
L42.3379 -63.6715
L41.852 -63.7864
L41.3643 -63.8927
L40.875 -63.9906
L40.3842 -64.08
L39.892 -64.1608
L39.3987 -64.233
L38.9043 -64.2966
L38.4091 -64.3516
L37.9131 -64.398
L37.4165 -64.4357
L36.9195 -64.4648
L36.4223 -64.4852
L35.9249 -64.4969
L35.4275 -64.4999
L34.9303 -64.4942
L34.4334 -64.4799
L33.937 -64.4569
L33.4412 -64.4252
L32.9462 -64.3849
L32.4522 -64.3359
L31.9592 -64.2783
L31.4674 -64.2121
L30.977 -64.1373
L30.4882 -64.0539
L30.001 -63.9619
L29.5157 -63.8615
L29.0323 -63.7525
L28.5511 -63.6352
L28.0721 -63.5093
L27.5956 -63.3752
L27.1216 -63.2326
L26.6503 -63.0818
L26.1819 -62.9227
L25.7164 -62.7554
L25.2541 -62.58
L24.795 -62.3965
L24.3394 -62.2049
L23.8873 -62.0054
L23.4389 -61.7979
L22.9944 -61.5826
L22.5538 -61.3595
L22.1173 -61.1286
L21.685 -60.8901
L21.2571 -60.6441
L20.8336 -60.3905
L20.4148 -60.1295
L20.0008 -59.8611
L19.5916 -59.5855
L19.1874 -59.3027
L18.7883 -59.0127
L18.3945 -58.7158
L18.006 -58.412
L17.6231 -58.1013
L17.2457 -57.7839
L16.874 -57.4599
L16.5082 -57.1293
L16.1483 -56.7923
L15.7944 -56.4489
L15.4467 -56.0993
L15.1052 -55.7436
L14.7702 -55.3819
L14.4416 -55.0143
L14.1195 -54.6409
L13.8041 -54.2618
L13.4955 -53.8772
L13.1937 -53.4871
L12.8989 -53.0917
z
" id="C0_2_30674aa791"/>
    </defs>
    <g clip-path="url(#p1bffca34e9)">
     <use style="fill:#ff0000;stroke:#000000;stroke-width:2.0;" x="0.0" xlink:href="#C0_0_a811fe30f3" y="72.0"/>
    </g>
    <g clip-path="url(#p1bffca34e9)">
     <use style="fill:#ffffff;stroke:#000000;stroke-width:2.0;" x="0.0" xlink:href="#C0_1_ccd0e46021" y="72.0"/>
    </g>
    <g clip-path="url(#p1bffca34e9)">
     <use style="fill:#ffffff;stroke:#000000;stroke-width:2.0;" x="0.0" xlink:href="#C0_2_30674aa791" y="72.0"/>
    </g>
   </g>
  </g>
 </g>
 <defs>
  <clipPath id="p1bffca34e9">
   <rect height="72.0" width="72.0" x="0.0" y="0.0"/>
  </clipPath>
 </defs>
</svg>
