<?xml version="1.0" encoding="utf-8" standalone="no"?>
<!DOCTYPE svg PUBLIC "-//W3C//DTD SVG 1.1//EN"
  "http://www.w3.org/Graphics/SVG/1.1/DTD/svg11.dtd">
<!-- Created with matplotlib (http://matplotlib.org/) -->
<svg height="72pt" version="1.1" viewBox="0 0 72 72" width="72pt" xmlns="http://www.w3.org/2000/svg" xmlns:xlink="http://www.w3.org/1999/xlink">
 <defs>
  <style type="text/css">
*{stroke-linecap:butt;stroke-linejoin:round;}
  </style>
 </defs>
 <g id="figure_1">
  <g id="patch_1">
   <path d="
M0 72
L72 72
L72 0
L0 0
z
" style="fill:none;"/>
  </g>
  <g id="axes_1">
   <g id="PatchCollection_1">
    <defs>
     <path d="
M36 -7.5
C43.5583 -7.5 50.808 -10.5029 56.1525 -15.8475
C61.4971 -21.192 64.5 -28.4417 64.5 -36
C64.5 -43.5583 61.4971 -50.808 56.1525 -56.1525
C50.808 -61.4971 43.5583 -64.5 36 -64.5
C28.4417 -64.5 21.192 -61.4971 15.8475 -56.1525
C10.5029 -50.808 7.5 -43.5583 7.5 -36
C7.5 -28.4417 10.5029 -21.192 15.8475 -15.8475
C21.192 -10.5029 28.4417 -7.5 36 -7.5
z
" id="C0_0_a811fe30f3"/>
     <path d="
M58.9523 -19.2866
L58.8278 -19.5203
L58.6784 -19.7325
L58.5056 -19.9242
L58.3112 -20.097
L58.0968 -20.2523
L57.8643 -20.3919
L57.6155 -20.5176
L57.352 -20.6311
L57.0756 -20.734
L56.7877 -20.828
L56.4899 -20.9143
L56.1833 -20.9943
L55.8693 -21.0691
L55.5489 -21.1398
L55.2231 -21.2071
L54.8927 -21.2718
L54.5586 -21.3346
L54.2216 -21.3961
L53.8821 -21.4566
L53.5409 -21.5167
L53.1984 -21.5766
L52.8551 -21.6366
L52.5115 -21.6969
L52.1678 -21.7577
L51.8245 -21.8192
L51.4819 -21.8815
L51.1402 -21.9447
L50.7996 -22.0088
L50.4605 -22.0739
L50.1228 -22.14
L49.787 -22.2072
L49.453 -22.2755
L49.121 -22.3448
L48.7911 -22.4152
L48.4635 -22.4866
L48.1381 -22.5591
L47.8152 -22.6326
L47.4946 -22.7071
L47.1765 -22.7825
L46.8609 -22.8589
L46.5479 -22.9361
L46.2374 -23.0143
L45.9294 -23.0933
L45.624 -23.1731
L45.3211 -23.2537
L45.0208 -23.335
L44.723 -23.4171
L44.4277 -23.4999
L44.1349 -23.5834
L43.8445 -23.6676
L43.5566 -23.7524
L43.271 -23.8378
L42.9877 -23.9239
L42.7068 -24.0105
L42.4281 -24.0976
L42.1516 -24.1854
L41.8772 -24.2737
L41.605 -24.3625
L41.3348 -24.4518
L41.0666 -24.5417
L40.8004 -24.6321
L40.536 -24.7229
L40.2735 -24.8143
L40.0128 -24.9062
L39.7538 -24.9985
L39.4964 -25.0914
L39.2407 -25.1847
L38.9865 -25.2786
L38.7339 -25.373
L38.4826 -25.4678
L38.2328 -25.5632
L37.9842 -25.6591
L37.7369 -25.7556
L37.4909 -25.8525
L37.2459 -25.9501
L37.0021 -26.0481
L36.7593 -26.1468
L36.5175 -26.2461
L36.2766 -26.3459
L36.0365 -26.4464
L35.7973 -26.5475
L35.5588 -26.6492
L35.321 -26.7516
L35.0838 -26.8547
L34.8472 -26.9585
L34.6111 -27.063
L34.3755 -27.1683
L33.9056 -27.2743
L33.671 -27.3811
L33.4368 -27.4888
L33.2027 -27.5972
L32.9688 -27.7066
L32.735 -27.8168
L32.5012 -27.928
L32.2674 -28.04
L32.0336 -28.1531
L31.7996 -28.2672
L31.5655 -28.3823
L31.3312 -28.4984
L31.0966 -28.6157
L30.8616 -28.7341
L30.6263 -28.8537
L30.3906 -28.9744
L30.1545 -29.0964
L29.9178 -29.2197
L29.6806 -29.3442
L29.4427 -29.4701
L29.2042 -29.5974
L28.9651 -29.7261
L28.7251 -29.8563
L28.4844 -29.9879
L28.2429 -30.1211
L28.0005 -30.2559
L27.7572 -30.3923
L27.5129 -30.5304
L27.2676 -30.6702
L27.0213 -30.8118
L26.774 -30.9551
L26.5255 -31.1003
L26.2759 -31.2474
L26.0251 -31.3964
L25.7732 -31.5474
L25.52 -31.7005
L25.2655 -31.8556
L25.0098 -32.0128
L24.7528 -32.1721
L24.4945 -32.3337
L24.2349 -32.4975
L23.9739 -32.6636
L23.7115 -32.832
L23.4478 -33.0028
L23.1828 -33.1759
L22.9164 -33.3515
L22.6486 -33.5295
L22.3795 -33.71
L22.1091 -33.893
L21.8373 -34.0785
L21.5643 -34.2666
L21.29 -34.4572
L21.0145 -34.6503
L20.7378 -34.8459
L20.46 -35.0441
L20.1811 -35.2447
L19.9012 -35.4478
L19.6203 -35.6533
L19.3386 -35.8611
L19.056 -36.0711
L18.7727 -36.2833
L18.4887 -36.4975
L18.2042 -36.7137
L17.9192 -36.9315
L17.6339 -37.1509
L17.3483 -37.3716
L17.0626 -37.5934
L16.7769 -37.816
L16.4913 -38.039
L16.2059 -38.262
L15.9207 -38.4845
L15.636 -38.7062
L15.3518 -38.9263
L15.0683 -39.1442
L14.7854 -39.3592
L14.5032 -39.5704
L14.2219 -39.7768
L13.9415 -39.9774
L13.6619 -40.1708
L13.3832 -40.3557
L13.1053 -40.5306
L12.8283 -40.6937
L12.5519 -40.8432
L12.2763 -40.9771
L12.0012 -41.0932
L11.7266 -41.1892
L11.4525 -41.2629
L11.1789 -41.312
L10.906 -41.3343
L10.6337 -41.3278
L10.3625 -41.291
L10.0927 -41.2225
L9.82471 -41.1216
L9.55925 -40.9879
L9.29694 -40.8215
L9.03852 -40.6232
L8.78479 -40.3939
L8.53653 -40.1351
L8.29454 -39.8483
L8.05959 -39.5352
L7.83241 -39.1978
L7.61367 -38.8378
L7.56761 -38.4572
L7.5377 -37.9619
L7.51646 -37.4654
L7.5039 -36.9685
L7.50001 -36.4712
L7.50481 -35.9738
L7.51829 -35.4764
L7.54044 -34.9792
L7.57126 -34.4823
L7.61074 -33.9858
L7.65887 -33.49
L7.71564 -32.9949
L7.78102 -32.5007
L7.85499 -32.0076
L7.93754 -31.5158
L8.02863 -31.0252
L8.12825 -30.5362
L8.23635 -30.0489
L8.35292 -29.5634
L8.4779 -29.0798
L8.61127 -28.5984
L8.75298 -28.1192
L8.90299 -27.6424
L9.06126 -27.1681
L9.22773 -26.6966
L9.40235 -26.2278
L9.58508 -25.7621
L9.77585 -25.2994
L9.97461 -24.8401
L10.1813 -24.3841
L10.3959 -23.9317
L10.6182 -23.4829
L10.8483 -23.038
L11.086 -22.597
L11.3314 -22.16
L11.5842 -21.7273
L11.8445 -21.299
L12.1122 -20.8751
L12.3871 -20.4558
L12.6692 -20.0413
L12.9584 -19.6316
L13.2547 -19.2269
L13.5578 -18.8274
L13.8678 -18.433
L14.1846 -18.044
L14.508 -17.6605
L14.8379 -17.2826
L15.1743 -16.9103
L15.517 -16.5439
L15.866 -16.1834
L16.2211 -15.829
L16.5822 -15.4806
L16.9492 -15.1386
L17.3221 -14.8029
L17.7006 -14.4736
L18.0847 -14.1509
L18.4743 -13.8349
L18.8692 -13.5256
L19.2693 -13.2231
L19.6745 -12.9276
L20.0847 -12.6392
L20.4997 -12.3578
L20.9195 -12.0836
L21.3439 -11.8168
L21.7727 -11.5573
L22.2058 -11.3052
L22.6432 -11.0607
L23.0846 -10.8237
L23.53 -10.5944
L23.9791 -10.3729
L24.4319 -10.1592
L24.8883 -9.95332
L25.348 -9.75539
L25.811 -9.56546
L26.277 -9.38359
L26.7461 -9.20982
L27.2179 -9.04421
L27.6924 -8.88681
L28.1695 -8.73767
L28.6489 -8.59684
L29.1306 -8.46435
L29.6144 -8.34025
L30.1001 -8.22458
L30.5876 -8.11736
L31.0768 -8.01864
L31.5675 -7.92844
L32.0595 -7.8468
L32.5527 -7.77373
L33.047 -7.70926
L33.5421 -7.6534
L34.0381 -7.60618
L34.5346 -7.56761
L35.0315 -7.5377
L35.5288 -7.51646
L36.0262 -7.5039
L36.5236 -7.50001
L37.0208 -7.50481
L37.5177 -7.51829
L38.0142 -7.54044
L38.51 -7.57126
L39.0051 -7.61074
L39.4993 -7.65887
L39.9924 -7.71564
L40.4842 -7.78102
L40.9748 -7.85499
L41.4638 -7.93754
L41.9511 -8.02863
L42.4366 -8.12825
L42.9202 -8.23635
L43.4016 -8.35292
L43.8808 -8.4779
L44.3576 -8.61127
L44.8319 -8.75298
L45.3034 -8.90299
L45.7722 -9.06126
L46.2379 -9.22773
L46.7006 -9.40235
L47.1599 -9.58508
L47.6159 -9.77585
L48.0683 -9.97461
L48.5171 -10.1813
L48.962 -10.3959
L49.403 -10.6182
L49.84 -10.8483
L50.2727 -11.086
L50.701 -11.3314
L51.1249 -11.5842
L51.5442 -11.8445
L51.9587 -12.1122
L52.3684 -12.3871
L52.7731 -12.6692
L53.1726 -12.9584
L53.567 -13.2547
L53.956 -13.5578
L54.3395 -13.8678
L54.7174 -14.1846
L55.0897 -14.508
L55.4561 -14.8379
L55.8166 -15.1743
L56.171 -15.517
L56.5194 -15.866
L56.8614 -16.2211
L57.1971 -16.5822
L57.5264 -16.9492
L57.8491 -17.3221
L58.1651 -17.7006
L58.4744 -18.0847
z
" id="C0_1_7e51274c78"/>
     <path d="
M64.256 -33.9668
L64.1075 -34.3982
L63.9552 -34.8342
L63.7988 -35.2733
L63.638 -35.714
L63.4726 -36.1552
L63.3023 -36.5959
L63.1272 -37.0351
L62.9471 -37.4719
L62.7622 -37.9057
L62.5725 -38.3359
L62.378 -38.7618
L62.1791 -39.1831
L61.9757 -39.5992
L61.768 -40.01
L61.5563 -40.415
L61.3407 -40.8141
L61.1214 -41.2071
L60.8987 -41.5937
L60.6727 -41.9739
L60.4436 -42.3475
L60.2116 -42.7146
L59.9769 -43.0751
L59.7398 -43.4289
L59.5003 -43.7761
L59.2586 -44.1166
L59.015 -44.4505
L58.7696 -44.7779
L58.5224 -45.0988
L58.2738 -45.4133
L58.0238 -45.7215
L57.7725 -46.0234
L57.5201 -46.3191
L57.2666 -46.6088
L57.0122 -46.8925
L56.757 -47.1703
L56.501 -47.4424
L56.2444 -47.7088
L55.9872 -47.9697
L55.7295 -48.2251
L55.4713 -48.4753
L55.2127 -48.7202
L54.9537 -48.9601
L54.6945 -49.1949
L54.4349 -49.4249
L54.1751 -49.6501
L53.9151 -49.8707
L53.6549 -50.0868
L53.3945 -50.2983
L53.134 -50.5056
L52.8733 -50.7086
L52.6124 -50.9074
L52.3514 -51.1022
L52.0902 -51.2931
L51.8289 -51.4801
L51.5674 -51.6632
L51.3058 -51.8427
L51.0439 -52.0186
L50.7819 -52.191
L50.5196 -52.3599
L50.2571 -52.5254
L49.9943 -52.6876
L49.7312 -52.8466
L49.4677 -53.0024
L49.204 -53.1551
L48.9398 -53.3048
L48.6752 -53.4514
L48.4101 -53.5952
L48.1446 -53.736
L47.8785 -53.8741
L47.6118 -54.0093
L47.3445 -54.1419
L47.0766 -54.2717
L46.8079 -54.3989
L46.5385 -54.5235
L46.2683 -54.6455
L45.9973 -54.765
L45.7253 -54.882
L45.4524 -54.9964
L45.1786 -55.1085
L44.9036 -55.2181
L44.6275 -55.3253
L44.3503 -55.4301
L44.0719 -55.5325
L43.7922 -55.6325
L43.5111 -55.7302
L43.2287 -55.8256
L42.9448 -55.9186
L42.6594 -56.0092
L42.3724 -56.0976
L42.0838 -56.1835
L41.7935 -56.2672
L41.5014 -56.3484
L41.2075 -56.4273
L40.9117 -56.5038
L40.614 -56.5779
L40.3142 -56.6496
L40.0123 -56.7188
L39.7083 -56.7855
L39.4021 -56.8497
L39.0935 -56.9114
L38.7827 -56.9705
L38.4694 -57.027
L38.1536 -57.0808
L37.8352 -57.1319
L37.5143 -57.1802
L37.1906 -57.2257
L36.8642 -57.2683
L36.535 -57.308
L36.2029 -57.3447
L35.8679 -57.3784
L35.5298 -57.4088
L35.1888 -57.4361
L34.8446 -57.46
L34.4972 -57.4805
L34.1466 -57.4976
L33.7928 -57.5111
L33.4356 -57.5209
L33.0751 -57.5269
L32.7112 -57.5291
L32.3439 -57.5273
L31.9732 -57.5214
L31.599 -57.5112
L31.2213 -57.4968
L30.8401 -57.4779
L30.4555 -57.4544
L30.0673 -57.4263
L29.6757 -57.3933
L29.2807 -57.3554
L28.8822 -57.3124
L28.4804 -57.2642
L28.0753 -57.2108
L27.667 -57.1519
L27.2555 -57.0874
L26.841 -57.0173
L26.4235 -56.9415
L26.0033 -56.8598
L25.5804 -56.7722
L25.155 -56.6787
L24.7274 -56.5791
L24.2976 -56.4735
L23.8661 -56.3618
L23.4329 -56.244
L22.9984 -56.1203
L22.5628 -55.9908
L22.1266 -55.8554
L21.6901 -55.7146
L21.2536 -55.5684
L20.8176 -55.4172
L20.3825 -55.2615
L19.9489 -55.1016
L19.5172 -54.9381
L19.088 -54.7717
L18.6619 -54.6033
L18.2395 -54.4336
L17.8215 -54.2639
L17.4086 -54.0954
L17.0016 -53.9295
L16.6013 -53.7677
L16.2085 -53.6118
L15.8239 -53.4639
L15.4486 -53.3258
L15.0834 -53.2
L14.7291 -53.0886
L14.3866 -52.994
L14.0566 -52.9182
L13.7399 -52.8633
L13.437 -52.8311
L13.347 -52.8228
L13.6523 -53.2943
L13.9644 -53.687
L14.2832 -54.0743
L14.6086 -54.4561
L14.9405 -54.8323
L15.2789 -55.2028
L15.6235 -55.5674
L15.9744 -55.9261
L16.3313 -56.2787
L16.6943 -56.6251
L17.0631 -56.9652
L17.4377 -57.2989
L17.818 -57.6262
L18.2038 -57.9468
L18.595 -58.2608
L18.9915 -58.568
L19.3932 -58.8683
L19.8 -59.1617
L20.2116 -59.448
L20.6281 -59.7272
L21.0493 -59.9991
L21.4751 -60.2637
L21.9052 -60.5209
L22.3397 -60.7707
L22.7783 -61.0129
L23.2209 -61.2475
L23.6675 -61.4744
L24.1178 -61.6936
L24.5717 -61.9049
L25.0291 -62.1083
L25.4898 -62.3038
L25.9538 -62.4912
L26.4207 -62.6706
L26.8907 -62.8419
L27.3634 -63.005
L27.8387 -63.1599
L28.3165 -63.3065
L28.7966 -63.4447
L29.279 -63.5747
L29.7634 -63.6962
L30.2496 -63.8092
L30.7377 -63.9139
L31.2273 -64.01
L31.7184 -64.0975
L32.2108 -64.1766
L32.7044 -64.247
L33.1989 -64.3088
L33.6943 -64.362
L34.1905 -64.4066
L34.6871 -64.4425
L35.1842 -64.4697
L35.6815 -64.4883
L36.1789 -64.4982
L36.6763 -64.4994
L37.1734 -64.492
L37.6702 -64.4758
L38.1665 -64.451
L38.6621 -64.4175
L39.1569 -64.3754
L39.6508 -64.3246
L40.1435 -64.2652
L40.635 -64.1972
L41.1251 -64.1206
L41.6136 -64.0354
L42.1004 -63.9417
L42.5853 -63.8395
L43.0682 -63.7288
L43.549 -63.6096
L44.0275 -63.482
L44.5035 -63.3461
L44.977 -63.2018
L45.4477 -63.0493
L45.9155 -62.8885
L46.3803 -62.7195
L46.842 -62.5424
L47.3003 -62.3572
L47.7552 -62.164
L48.2065 -61.9628
L48.6541 -61.7536
L49.0979 -61.5367
L49.5377 -61.312
L49.9733 -61.0795
L50.4047 -60.8394
L50.8317 -60.5918
L51.2541 -60.3366
L51.672 -60.0741
L52.085 -59.8042
L52.4932 -59.5271
L52.8963 -59.2427
L53.2943 -58.9514
L53.687 -58.653
L54.0743 -58.3477
L54.4561 -58.0356
L54.8323 -57.7168
L55.2028 -57.3914
L55.5674 -57.0595
L55.9261 -56.7211
L56.2787 -56.3765
L56.6251 -56.0256
L56.9652 -55.6687
L57.2989 -55.3057
L57.6262 -54.9369
L57.9468 -54.5623
L58.2608 -54.182
L58.568 -53.7962
L58.8683 -53.405
L59.1617 -53.0085
L59.448 -52.6068
L59.7272 -52.2
L59.9991 -51.7884
L60.2637 -51.3719
L60.5209 -50.9507
L60.7707 -50.5249
L61.0129 -50.0948
L61.2475 -49.6603
L61.4744 -49.2217
L61.6936 -48.7791
L61.9049 -48.3325
L62.1083 -47.8822
L62.3038 -47.4283
L62.4912 -46.9709
L62.6706 -46.5102
L62.8419 -46.0462
L63.005 -45.5793
L63.1599 -45.1093
L63.3065 -44.6366
L63.4447 -44.1613
L63.5747 -43.6835
L63.6962 -43.2034
L63.8092 -42.721
L63.9139 -42.2366
L64.01 -41.7504
L64.0975 -41.2623
L64.1766 -40.7727
L64.247 -40.2816
L64.3088 -39.7892
L64.362 -39.2956
L64.4066 -38.8011
L64.4425 -38.3057
L64.4697 -37.8095
L64.4883 -37.3129
L64.4982 -36.8158
L64.4994 -36.3185
L64.492 -35.8211
L64.4758 -35.3237
z
" id="C0_2_90ac13cc24"/>
    </defs>
    <g clip-path="url(#p1bffca34e9)">
     <use style="fill:#ff0000;stroke:#000000;stroke-width:2.0;" x="0.0" xlink:href="#C0_0_a811fe30f3" y="72.0"/>
    </g>
    <g clip-path="url(#p1bffca34e9)">
     <use style="fill:#ffffff;stroke:#000000;stroke-width:2.0;" x="0.0" xlink:href="#C0_1_7e51274c78" y="72.0"/>
    </g>
    <g clip-path="url(#p1bffca34e9)">
     <use style="fill:#ffffff;stroke:#000000;stroke-width:2.0;" x="0.0" xlink:href="#C0_2_90ac13cc24" y="72.0"/>
    </g>
   </g>
  </g>
 </g>
 <defs>
  <clipPath id="p1bffca34e9">
   <rect height="72.0" width="72.0" x="0.0" y="0.0"/>
  </clipPath>
 </defs>
</svg>
