<?xml version="1.0" encoding="utf-8" standalone="no"?>
<!DOCTYPE svg PUBLIC "-//W3C//DTD SVG 1.1//EN"
  "http://www.w3.org/Graphics/SVG/1.1/DTD/svg11.dtd">
<!-- Created with matplotlib (http://matplotlib.org/) -->
<svg height="72pt" version="1.1" viewBox="0 0 72 72" width="72pt" xmlns="http://www.w3.org/2000/svg" xmlns:xlink="http://www.w3.org/1999/xlink">
 <defs>
  <style type="text/css">
*{stroke-linecap:butt;stroke-linejoin:round;}
  </style>
 </defs>
 <g id="figure_1">
  <g id="patch_1">
   <path d="
M0 72
L72 72
L72 0
L0 0
z
" style="fill:none;"/>
  </g>
  <g id="axes_1">
   <g id="PatchCollection_1">
    <defs>
     <path d="
M36 -7.5
C43.5583 -7.5 50.808 -10.5029 56.1525 -15.8475
C61.4971 -21.192 64.5 -28.4417 64.5 -36
C64.5 -43.5583 61.4971 -50.808 56.1525 -56.1525
C50.808 -61.4971 43.5583 -64.5 36 -64.5
C28.4417 -64.5 21.192 -61.4971 15.8475 -56.1525
C10.5029 -50.808 7.5 -43.5583 7.5 -36
C7.5 -28.4417 10.5029 -21.192 15.8475 -15.8475
C21.192 -10.5029 28.4417 -7.5 36 -7.5
z
" id="C0_0_a811fe30f3"/>
     <path d="
M37.1072 -7.56807
L37.4459 -7.75971
L37.7602 -7.96155
L38.0493 -8.17301
L38.3122 -8.3935
L38.5487 -8.6224
L38.7584 -8.85912
L38.9416 -9.10306
L39.0986 -9.35365
L39.23 -9.61034
L39.3369 -9.87261
L39.4204 -10.14
L39.4817 -10.412
L39.5223 -10.6882
L39.5437 -10.9683
L39.5474 -11.2518
L39.535 -11.5385
L39.5078 -11.8281
L39.4674 -12.1201
L39.415 -12.4145
L39.352 -12.7108
L39.2794 -13.009
L39.1985 -13.3086
L39.1102 -13.6096
L39.0153 -13.9117
L38.9148 -14.2146
L38.8093 -14.5183
L38.6995 -14.8225
L38.5861 -15.127
L38.4696 -15.4317
L38.3505 -15.7365
L38.2292 -16.041
L38.1061 -16.3453
L37.9816 -16.6492
L37.856 -16.9526
L37.7295 -17.2552
L37.6024 -17.5571
L37.475 -17.8581
L37.3474 -18.1582
L37.2199 -18.4572
L37.0924 -18.7551
L36.9653 -19.0517
L36.8387 -19.3471
L36.7125 -19.6412
L36.587 -19.9338
L36.4622 -20.2251
L36.3381 -20.5149
L36.2149 -20.8032
L36.0925 -21.09
L35.9711 -21.3752
L35.8507 -21.6589
L35.7312 -21.941
L35.6127 -22.2216
L35.4953 -22.5006
L35.3789 -22.778
L35.2636 -23.0538
L35.1493 -23.3281
L35.0361 -23.6009
L34.9239 -23.8721
L34.8128 -24.1418
L34.7027 -24.41
L34.5937 -24.6768
L34.4857 -24.9421
L34.3787 -25.2061
L34.2727 -25.4686
L34.1678 -25.7298
L34.0637 -25.9897
L33.9607 -26.2484
L33.8586 -26.5058
L33.7574 -26.762
L33.6571 -27.017
L33.5576 -27.271
L33.4591 -27.5239
L33.3614 -27.7757
L33.2644 -28.0266
L33.1683 -28.2765
L33.073 -28.5255
L32.9784 -28.7737
L32.8846 -29.0211
L32.7915 -29.2677
L32.699 -29.5137
L32.6073 -29.7589
L32.5162 -30.0036
L32.4257 -30.2477
L32.3358 -30.4913
L32.2465 -30.7345
L32.1578 -30.9772
L32.0696 -31.2196
L31.9819 -31.4617
L31.8947 -31.7035
L31.8081 -31.9451
L31.7218 -32.1866
L31.6361 -32.428
L31.5507 -32.6693
L31.4658 -32.9106
L31.297 -33.152
L31.2132 -33.3935
L31.1296 -33.6351
L31.0464 -33.877
L30.9635 -34.1191
L30.8809 -34.3615
L30.7985 -34.6043
L30.7164 -34.8475
L30.6345 -35.0912
L30.5528 -35.3355
L30.4713 -35.5803
L30.39 -35.8257
L30.3089 -36.0719
L30.2279 -36.3188
L30.147 -36.5664
L30.0662 -36.8149
L29.9856 -37.0644
L29.905 -37.3147
L29.8245 -37.5661
L29.7441 -37.8185
L29.6637 -38.0721
L29.5834 -38.3268
L29.5031 -38.5827
L29.4228 -38.8399
L29.3425 -39.0984
L29.2621 -39.3582
L29.1818 -39.6195
L29.1014 -39.8823
L29.021 -40.1465
L28.9405 -40.4123
L28.8599 -40.6797
L28.7793 -40.9487
L28.6986 -41.2195
L28.6178 -41.4919
L28.5368 -41.7662
L28.4558 -42.0422
L28.3746 -42.3201
L28.2933 -42.5999
L28.2118 -42.8815
L28.1302 -43.1651
L28.0484 -43.4506
L27.9664 -43.7382
L27.8843 -44.0277
L27.8019 -44.3192
L27.7193 -44.6127
L27.6365 -44.9082
L27.5535 -45.2058
L27.4702 -45.5053
L27.3867 -45.8069
L27.3028 -46.1103
L27.2187 -46.4158
L27.1342 -46.7231
L27.0493 -47.0322
L26.9641 -47.3432
L26.8784 -47.6558
L26.7923 -47.9701
L26.7056 -48.286
L26.6184 -48.6032
L26.5306 -48.9218
L26.442 -49.2416
L26.3527 -49.5623
L26.2625 -49.884
L26.1714 -50.2062
L26.0791 -50.529
L25.9856 -50.8519
L25.8907 -51.1747
L25.7942 -51.4972
L25.696 -51.8191
L25.5957 -52.1399
L25.4931 -52.4592
L25.3879 -52.7768
L25.2797 -53.092
L25.1682 -53.4044
L25.053 -53.7134
L24.9335 -54.0184
L24.8091 -54.3188
L24.6793 -54.6137
L24.5435 -54.9026
L24.4009 -55.1844
L24.2506 -55.4582
L24.092 -55.7232
L23.924 -55.9783
L23.7459 -56.2223
L23.5566 -56.4542
L23.3554 -56.6727
L23.1412 -56.8767
L22.9133 -57.065
L22.671 -57.2363
L22.4138 -57.3896
L22.1413 -57.5239
L21.8532 -57.6381
L21.5497 -57.7316
L21.231 -57.8035
L20.8976 -57.8535
L20.5502 -57.8813
L20.1897 -57.8867
L19.8171 -57.8697
L19.4336 -57.8305
L19.0404 -57.7694
L18.6389 -57.6869
L18.2303 -57.5835
L17.816 -57.4598
L17.3974 -57.3164
L16.9756 -57.154
L16.5519 -56.9734
L16.1628 -56.7751
L15.8087 -56.463
L15.4607 -56.1137
L15.119 -55.7582
L14.7837 -55.3968
L14.4548 -55.0294
L14.1325 -54.6562
L13.8168 -54.2774
L13.5079 -53.8929
L13.2059 -53.5031
L12.9108 -53.1079
L12.6227 -52.7074
L12.3418 -52.3019
L12.068 -51.8915
L11.8016 -51.4761
L11.5425 -51.0561
L11.2909 -50.6315
L11.0468 -50.2024
L10.8103 -49.769
L10.5814 -49.3314
L10.3604 -48.8898
L10.1471 -48.4442
L9.94168 -47.9948
L9.74421 -47.5418
L9.55475 -47.0853
L9.37334 -46.6254
L9.20004 -46.1622
L9.0349 -45.696
L8.87798 -45.2268
L8.72932 -44.7548
L8.58896 -44.2801
L8.45696 -43.8029
L8.33334 -43.3233
L8.21816 -42.8415
L8.11143 -42.3576
L8.0132 -41.8718
L7.9235 -41.3842
L7.84235 -40.8949
L7.76977 -40.4042
L7.7058 -39.9121
L7.65044 -39.4188
L7.60372 -38.9245
L7.56565 -38.4292
L7.53624 -37.9333
L7.5155 -37.4368
L7.50344 -36.9398
L7.50005 -36.4425
L7.50535 -35.9451
L7.51933 -35.4477
L7.54198 -34.9505
L7.57331 -34.4536
L7.61329 -33.9572
L7.66192 -33.4614
L7.71918 -32.9664
L7.78505 -32.4722
L7.85952 -31.9792
L7.94256 -31.4874
L8.03415 -30.997
L8.13426 -30.5081
L8.24285 -30.0208
L8.3599 -29.5354
L8.48537 -29.052
L8.61922 -28.5706
L8.76141 -28.0916
L8.9119 -27.6149
L9.07064 -27.1408
L9.23758 -26.6694
L9.41268 -26.2009
L9.59587 -25.7353
L9.78711 -25.2728
L9.98633 -24.8137
L10.1935 -24.3579
L10.4085 -23.9057
L10.6313 -23.4571
L10.8618 -23.0124
L11.1 -22.5716
L11.3458 -22.1349
L11.599 -21.7025
L11.8598 -21.2744
L12.1278 -20.8508
L12.4032 -20.4318
L12.6857 -20.0175
L12.9753 -19.6081
L13.272 -19.2037
L13.5755 -18.8045
L13.8859 -18.4104
L14.2031 -18.0217
L14.5268 -17.6385
L14.8571 -17.2609
L15.1939 -16.889
L15.537 -16.5229
L15.8863 -16.1628
L16.2418 -15.8087
L16.6032 -15.4607
L16.9706 -15.119
L17.3438 -14.7837
L17.7226 -14.4548
L18.1071 -14.1325
L18.4969 -13.8168
L18.8921 -13.5079
L19.2926 -13.2059
L19.6981 -12.9108
L20.1085 -12.6227
L20.5239 -12.3418
L20.9439 -12.068
L21.3685 -11.8016
L21.7976 -11.5425
L22.231 -11.2909
L22.6686 -11.0468
L23.1102 -10.8103
L23.5558 -10.5814
L24.0052 -10.3604
L24.4582 -10.1471
L24.9147 -9.94168
L25.3746 -9.74421
L25.8378 -9.55475
L26.304 -9.37334
L26.7732 -9.20004
L27.2452 -9.0349
L27.7199 -8.87798
L28.1971 -8.72932
L28.6767 -8.58896
L29.1585 -8.45696
L29.6424 -8.33334
L30.1282 -8.21816
L30.6158 -8.11143
L31.1051 -8.0132
L31.5958 -7.9235
L32.0879 -7.84235
L32.5812 -7.76977
L33.0755 -7.7058
L33.5708 -7.65044
L34.0667 -7.60372
L34.5632 -7.56565
L35.0602 -7.53624
L35.5575 -7.5155
L36.0549 -7.50344
L36.5523 -7.50005
z
" id="C0_1_56cd491789"/>
     <path d="
M55.7412 -15.5758
L55.9751 -15.9931
L56.2068 -16.4146
L56.4353 -16.8396
L56.66 -17.2677
L56.8803 -17.6985
L57.0955 -18.1314
L57.3052 -18.5661
L57.5091 -19.0022
L57.7067 -19.4392
L57.898 -19.8768
L58.0825 -20.3146
L58.2602 -20.7522
L58.431 -21.1895
L58.5947 -21.6261
L58.7514 -22.0617
L58.901 -22.496
L59.0435 -22.9289
L59.179 -23.3602
L59.3074 -23.7895
L59.429 -24.2168
L59.5437 -24.6419
L59.6517 -25.0647
L59.7531 -25.485
L59.848 -25.9027
L59.9364 -26.3177
L60.0186 -26.7299
L60.0946 -27.1392
L60.1647 -27.5456
L60.2288 -27.9491
L60.2872 -28.3495
L60.34 -28.7469
L60.3874 -29.1411
L60.4293 -29.5323
L60.4661 -29.9204
L60.4978 -30.3054
L60.5246 -30.6872
L60.5465 -31.066
L60.5637 -31.4417
L60.5763 -31.8143
L60.5844 -32.184
L60.5882 -32.5506
L60.5877 -32.9142
L60.583 -33.2749
L60.5742 -33.6327
L60.5615 -33.9877
L60.5449 -34.3399
L60.5245 -34.6894
L60.5003 -35.0361
L60.4725 -35.3802
L60.4412 -35.7217
L60.4063 -36.0607
L60.3681 -36.3971
L60.3264 -36.7312
L60.2814 -37.0629
L60.2332 -37.3923
L60.1817 -37.7194
L60.1271 -38.0444
L60.0693 -38.3672
L60.0085 -38.6879
L59.9446 -39.0067
L59.8776 -39.3235
L59.8077 -39.6384
L59.7348 -39.9514
L59.659 -40.2627
L59.5802 -40.5723
L59.4985 -40.8802
L59.4139 -41.1865
L59.3265 -41.4913
L59.2361 -41.7946
L59.1428 -42.0964
L59.0467 -42.3969
L58.9477 -42.6961
L58.8457 -42.994
L58.7409 -43.2907
L58.6331 -43.5862
L58.5224 -43.8806
L58.4088 -44.1739
L58.2922 -44.4662
L58.1726 -44.7576
L58.0499 -45.048
L57.9243 -45.3375
L57.7955 -45.6262
L57.6636 -45.9141
L57.5286 -46.2013
L57.3903 -46.4877
L57.2488 -46.7735
L57.1041 -47.0586
L56.956 -47.3431
L56.8045 -47.627
L56.6496 -47.9104
L56.4912 -48.1933
L56.3292 -48.4757
L56.1636 -48.7576
L55.9944 -49.039
L55.8214 -49.3201
L55.6446 -49.6007
L55.4639 -49.881
L55.2792 -50.1608
L55.0906 -50.4403
L54.8978 -50.7195
L54.7008 -50.9982
L54.4995 -51.2767
L54.2939 -51.5547
L54.0838 -51.8324
L53.8692 -52.1097
L53.65 -52.3866
L53.4261 -52.6631
L53.1973 -52.9392
L52.9637 -53.2148
L52.7251 -53.4899
L52.4813 -53.7644
L52.2324 -54.0384
L51.9782 -54.3118
L51.7186 -54.5845
L51.4536 -54.8565
L51.183 -55.1276
L50.9067 -55.3979
L50.6247 -55.6673
L50.3369 -55.9357
L50.0431 -56.2029
L49.7434 -56.4689
L49.4376 -56.7336
L49.1257 -56.9969
L48.8076 -57.2587
L48.4833 -57.5188
L48.1528 -57.7771
L47.8159 -58.0335
L47.4727 -58.2879
L47.1231 -58.54
L46.7673 -58.7898
L46.4052 -59.0371
L46.0368 -59.2818
L45.6623 -59.5236
L45.2817 -59.7624
L44.8951 -59.9981
L44.5026 -60.2304
L44.1046 -60.4593
L43.701 -60.6846
L43.2923 -60.906
L42.8787 -61.1236
L42.4604 -61.3371
L42.038 -61.5465
L41.6117 -61.7516
L41.1822 -61.9525
L40.7499 -62.1489
L40.3155 -62.341
L39.8796 -62.5288
L39.4429 -62.7123
L39.0064 -62.8916
L38.5709 -63.067
L38.1375 -63.2386
L37.7071 -63.4067
L37.2811 -63.5717
L36.8605 -63.7341
L36.4468 -63.8942
L36.0414 -64.0527
L35.6456 -64.2102
L35.7552 -64.3673
L36.2526 -64.4989
L36.75 -64.4989
L37.2471 -64.4901
L37.7438 -64.4727
L38.24 -64.4466
L38.7355 -64.4118
L39.2302 -64.3684
L39.7239 -64.3164
L40.2164 -64.2557
L40.7077 -64.1864
L41.1976 -64.1085
L41.6858 -64.022
L42.1724 -63.9271
L42.657 -63.8236
L43.1396 -63.7116
L43.6201 -63.5912
L44.0982 -63.4624
L44.5739 -63.3252
L45.0469 -63.1798
L45.5172 -63.026
L45.9846 -62.864
L46.4489 -62.6938
L46.9101 -62.5155
L47.3679 -62.3291
L47.8223 -62.1346
L48.2731 -61.9323
L48.7201 -61.722
L49.1633 -61.5039
L49.6025 -61.278
L50.0375 -61.0444
L50.4682 -60.8032
L50.8946 -60.5544
L51.3163 -60.2982
L51.7335 -60.0345
L52.1458 -59.7636
L52.5532 -59.4854
L52.9556 -59.2
L53.3528 -58.9076
L53.7447 -58.6082
L54.1313 -58.3019
L54.5123 -57.9888
L54.8876 -57.669
L55.2572 -57.3426
L55.621 -57.0098
L55.9787 -56.6705
L56.3304 -56.3249
L56.6759 -55.9731
L57.0151 -55.6153
L57.3478 -55.2514
L57.6741 -54.8817
L57.9938 -54.5063
L58.3068 -54.1252
L58.613 -53.7386
L58.9123 -53.3466
L59.2046 -52.9493
L59.4898 -52.5468
L59.7679 -52.1393
L60.0388 -51.7269
L60.3023 -51.3097
L60.5584 -50.8879
L60.8071 -50.4615
L61.0482 -50.0307
L61.2816 -49.5956
L61.5074 -49.1564
L61.7254 -48.7131
L61.9355 -48.266
L62.1378 -47.8152
L62.3321 -47.3608
L62.5183 -46.9029
L62.6965 -46.4416
L62.8666 -45.9772
L63.0285 -45.5098
L63.1821 -45.0395
L63.3275 -44.5664
L63.4645 -44.0907
L63.5932 -43.6125
L63.7135 -43.132
L63.8253 -42.6494
L63.9286 -42.1647
L64.0235 -41.6781
L64.1098 -41.1899
L64.1875 -40.7
L64.2567 -40.2087
L64.3172 -39.7161
L64.3692 -39.2224
L64.4125 -38.7277
L64.4471 -38.2322
L64.473 -37.736
L64.4903 -37.2392
L64.4989 -36.7421
L64.4989 -36.2448
L64.4901 -35.7474
L64.4727 -35.25
L64.4466 -34.7529
L64.4118 -34.2562
L64.3684 -33.76
L64.3164 -33.2645
L64.2557 -32.7698
L64.1864 -32.2761
L64.1085 -31.7836
L64.022 -31.2923
L63.9271 -30.8024
L63.8236 -30.3142
L63.7116 -29.8276
L63.5912 -29.343
L63.4624 -28.8604
L63.3252 -28.3799
L63.1798 -27.9018
L63.026 -27.4261
L62.864 -26.9531
L62.6938 -26.4828
L62.5155 -26.0154
L62.3291 -25.5511
L62.1346 -25.0899
L61.9323 -24.6321
L61.722 -24.1777
L61.5039 -23.7269
L61.278 -23.2799
L61.0444 -22.8367
L60.8032 -22.3975
L60.5544 -21.9625
L60.2982 -21.5318
L60.0345 -21.1054
L59.7636 -20.6837
L59.4854 -20.2665
L59.2 -19.8542
L58.9076 -19.4468
L58.6082 -19.0444
L58.3019 -18.6472
L57.9888 -18.2553
L57.669 -17.8687
L57.3426 -17.4877
L57.0098 -17.1124
L56.6705 -16.7428
L56.3249 -16.379
z
" id="C0_2_76fbf02958"/>
    </defs>
    <g clip-path="url(#p1bffca34e9)">
     <use style="fill:#ff0000;stroke:#000000;stroke-width:2.0;" x="0.0" xlink:href="#C0_0_a811fe30f3" y="72.0"/>
    </g>
    <g clip-path="url(#p1bffca34e9)">
     <use style="fill:#ffffff;stroke:#000000;stroke-width:2.0;" x="0.0" xlink:href="#C0_1_56cd491789" y="72.0"/>
    </g>
    <g clip-path="url(#p1bffca34e9)">
     <use style="fill:#ffffff;stroke:#000000;stroke-width:2.0;" x="0.0" xlink:href="#C0_2_76fbf02958" y="72.0"/>
    </g>
   </g>
  </g>
 </g>
 <defs>
  <clipPath id="p1bffca34e9">
   <rect height="72.0" width="72.0" x="0.0" y="0.0"/>
  </clipPath>
 </defs>
</svg>
