<?xml version="1.0" encoding="utf-8" standalone="no"?>
<!DOCTYPE svg PUBLIC "-//W3C//DTD SVG 1.1//EN"
  "http://www.w3.org/Graphics/SVG/1.1/DTD/svg11.dtd">
<!-- Created with matplotlib (http://matplotlib.org/) -->
<svg height="72pt" version="1.1" viewBox="0 0 72 72" width="72pt" xmlns="http://www.w3.org/2000/svg" xmlns:xlink="http://www.w3.org/1999/xlink">
 <defs>
  <style type="text/css">
*{stroke-linecap:butt;stroke-linejoin:round;}
  </style>
 </defs>
 <g id="figure_1">
  <g id="patch_1">
   <path d="
M0 72
L72 72
L72 0
L0 0
z
" style="fill:none;"/>
  </g>
  <g id="axes_1">
   <g id="PatchCollection_1">
    <defs>
     <path d="
M36 -7.5
C43.5583 -7.5 50.808 -10.5029 56.1525 -15.8475
C61.4971 -21.192 64.5 -28.4417 64.5 -36
C64.5 -43.5583 61.4971 -50.808 56.1525 -56.1525
C50.808 -61.4971 43.5583 -64.5 36 -64.5
C28.4417 -64.5 21.192 -61.4971 15.8475 -56.1525
C10.5029 -50.808 7.5 -43.5583 7.5 -36
C7.5 -28.4417 10.5029 -21.192 15.8475 -15.8475
C21.192 -10.5029 28.4417 -7.5 36 -7.5
z
" id="C0_0_a811fe30f3"/>
     <path d="
M45.4434 -9.20886
L45.4183 -9.42107
L45.3926 -9.63276
L45.3662 -9.84393
L45.3392 -10.0546
L45.3116 -10.2648
L45.2835 -10.4745
L45.2548 -10.6838
L45.2255 -10.8926
L45.1957 -11.1011
L45.1653 -11.3092
L45.1345 -11.5169
L45.1031 -11.7244
L45.0712 -11.9315
L45.0389 -12.1384
L45.006 -12.3451
L44.9727 -12.5516
L44.9389 -12.7579
L44.9046 -12.9642
L44.8699 -13.1704
L44.8347 -13.3765
L44.799 -13.5827
L44.7629 -13.7888
L44.7263 -13.9951
L44.6893 -14.2016
L44.6517 -14.4082
L44.6138 -14.615
L44.5753 -14.822
L44.5364 -15.0294
L44.497 -15.2372
L44.4572 -15.4453
L44.4169 -15.6539
L44.376 -15.863
L44.3347 -16.0727
L44.2505 -16.2829
L44.2077 -16.4938
L44.1643 -16.7055
L44.1204 -16.9178
L44.076 -17.131
L44.031 -17.345
L43.9854 -17.56
L43.9393 -17.7759
L43.8926 -17.9929
L43.8452 -18.2109
L43.7973 -18.4301
L43.7487 -18.6505
L43.6995 -18.8722
L43.6497 -19.0952
L43.5992 -19.3196
L43.548 -19.5454
L43.4961 -19.7727
L43.4434 -20.0017
L43.3901 -20.2322
L43.336 -20.4645
L43.2811 -20.6985
L43.2255 -20.9344
L43.169 -21.1722
L43.1117 -21.412
L43.0536 -21.6539
L42.9946 -21.8978
L42.9347 -22.144
L42.8739 -22.3924
L42.8122 -22.6431
L42.7495 -22.8963
L42.6859 -23.1519
L42.6213 -23.4101
L42.5557 -23.671
L42.489 -23.9345
L42.4213 -24.2009
L42.3525 -24.47
L42.2826 -24.7422
L42.2115 -25.0173
L42.1394 -25.2955
L42.066 -25.5768
L41.9915 -25.8614
L41.9158 -26.1493
L41.8388 -26.4406
L41.7606 -26.7352
L41.6812 -27.0334
L41.6004 -27.3352
L41.5184 -27.6405
L41.4351 -27.9496
L41.3505 -28.2624
L41.2646 -28.579
L41.1774 -28.8994
L41.0889 -29.2237
L40.999 -29.5519
L40.9079 -29.8841
L40.8155 -30.2203
L40.7218 -30.5604
L40.6269 -30.9045
L40.5308 -31.2527
L40.4336 -31.6048
L40.3352 -31.9609
L40.2359 -32.3209
L40.1356 -32.6848
L40.0344 -33.0525
L39.9326 -33.424
L39.8301 -33.7992
L39.7271 -34.1779
L39.6239 -34.5601
L39.5205 -34.9455
L39.4174 -35.3341
L39.3147 -35.7256
L39.2127 -36.1199
L39.1118 -36.5165
L39.0125 -36.9154
L38.9153 -37.3161
L38.8207 -37.7182
L38.7293 -38.1215
L38.6421 -38.5254
L38.5598 -38.9294
L38.4835 -39.333
L38.4144 -39.7355
L38.3539 -40.1361
L38.3036 -40.5341
L38.2654 -40.9286
L38.2411 -41.3185
L38.233 -41.7027
L38.2434 -42.0801
L38.2748 -42.4494
L38.3294 -42.8093
L38.4094 -43.1585
L38.5163 -43.4959
L38.6514 -43.8202
L38.8149 -44.1309
L39.0066 -44.4272
L39.2254 -44.7091
L39.4695 -44.9765
L39.7368 -45.2299
L40.0251 -45.4698
L40.3317 -45.6968
L40.6544 -45.9117
L40.9907 -46.1152
L41.3385 -46.3081
L41.6959 -46.491
L42.0612 -46.6644
L42.4328 -46.8291
L42.8094 -46.9854
L43.1897 -47.1337
L43.5727 -47.2745
L43.9575 -47.408
L44.3433 -47.5346
L44.7294 -47.6546
L45.1152 -47.7681
L45.5001 -47.8755
L45.8837 -47.9769
L46.2655 -48.0724
L46.6451 -48.1623
L47.0224 -48.2468
L47.3969 -48.326
L47.7685 -48.4
L48.1369 -48.4691
L48.502 -48.5332
L48.8636 -48.5927
L49.2216 -48.6475
L49.5759 -48.6979
L49.9264 -48.7439
L50.273 -48.7857
L50.6157 -48.8234
L50.9545 -48.857
L51.2893 -48.8868
L51.6201 -48.9128
L51.9469 -48.9351
L52.2698 -48.9538
L52.5887 -48.9691
L52.9036 -48.9809
L53.2147 -48.9894
L53.5219 -48.9947
L53.8253 -48.9968
L54.1249 -48.9959
L54.4209 -48.9919
L54.7131 -48.9851
L55.0017 -48.9754
L55.2868 -48.9629
L55.5685 -48.9477
L55.8467 -48.9298
L56.1216 -48.9093
L56.3932 -48.8863
L56.6616 -48.8607
L56.9268 -48.8326
L57.189 -48.8022
L57.4483 -48.7693
L57.7046 -48.7341
L57.958 -48.6966
L58.2087 -48.6568
L58.4567 -48.6147
L58.702 -48.5704
L58.9448 -48.5239
L59.1851 -48.4751
L59.423 -48.4242
L59.6585 -48.3711
L59.8918 -48.3158
L60.1228 -48.2584
L60.3516 -48.1988
L60.5784 -48.137
L60.8031 -48.0731
L61.0259 -48.007
L61.2468 -47.9388
L61.4658 -47.8683
L61.6831 -47.7957
L61.8986 -47.7208
L62.1938 -47.6437
L62.3858 -47.2311
L62.5698 -46.7722
L62.7457 -46.3101
L62.9134 -45.8448
L63.0729 -45.3765
L63.2242 -44.9054
L63.3672 -44.4315
L63.5019 -43.9551
L63.6282 -43.4763
L63.7461 -42.9952
L63.8555 -42.5119
L63.9564 -42.0267
L64.0489 -41.5397
L64.1327 -41.0509
L64.208 -40.5606
L64.2748 -40.0689
L64.3329 -39.576
L64.3823 -39.082
L64.4232 -38.5871
L64.4553 -38.0913
L64.4788 -37.595
L64.4937 -37.0981
L64.4998 -36.6009
L64.4973 -36.1035
L64.4861 -35.6061
L64.4662 -35.1088
L64.4376 -34.6118
L64.4004 -34.1152
L64.3545 -33.6192
L64.3 -33.1239
L64.2369 -32.6295
L64.1651 -32.1361
L64.0848 -31.6439
L63.9959 -31.153
L63.8985 -30.6636
L63.7927 -30.1758
L63.6783 -29.6898
L63.5555 -29.2057
L63.4243 -28.7237
L63.2848 -28.2439
L63.1369 -27.7665
L62.9808 -27.2915
L62.8165 -26.8193
L62.644 -26.3498
L62.4633 -25.8832
L62.2747 -25.4198
L62.078 -24.9595
L61.8734 -24.5027
L61.6608 -24.0493
L61.4405 -23.5996
L61.2124 -23.1536
L60.9767 -22.7116
L60.7333 -22.2736
L60.4824 -21.8398
L60.2241 -21.4103
L59.9583 -20.9852
L59.6853 -20.5647
L59.4051 -20.1489
L59.1177 -19.738
L58.8233 -19.332
L58.5219 -18.9311
L58.2137 -18.5353
L57.8987 -18.1449
L57.577 -17.76
L57.2488 -17.3806
L56.9141 -17.0068
L56.573 -16.6389
L56.2256 -16.2768
L55.8721 -15.9208
L55.5125 -15.5709
L55.147 -15.2272
L54.7757 -14.8898
L54.3986 -14.5588
L54.016 -14.2344
L53.6278 -13.9166
L53.2343 -13.6056
L52.8355 -13.3013
L52.4316 -13.004
L52.0227 -12.7137
L51.6089 -12.4305
L51.1904 -12.1544
L50.7672 -11.8857
L50.3396 -11.6242
L49.9075 -11.3702
L49.4713 -11.1237
L49.0309 -10.8848
L48.5866 -10.6535
L48.1384 -10.4299
L47.6865 -10.2142
L47.2311 -10.0062
L46.7722 -9.80624
L46.3101 -9.61422
z
" id="C0_1_50b9edd721"/>
     <path d="
M9.9948 -24.4832
L10.0802 -24.6939
L10.1676 -24.9033
L10.257 -25.1113
L10.3483 -25.318
L10.4416 -25.5234
L10.5367 -25.7278
L10.6338 -25.931
L10.7328 -26.1332
L10.8337 -26.3345
L10.9364 -26.5349
L11.0411 -26.7344
L11.1477 -26.9332
L11.2562 -27.1313
L11.3667 -27.3287
L11.4791 -27.5256
L11.5934 -27.7219
L11.7097 -27.9178
L11.828 -28.1132
L11.9483 -28.3083
L12.0707 -28.5031
L12.1951 -28.6976
L12.3216 -28.8919
L12.4503 -29.0861
L12.5811 -29.2802
L12.7141 -29.4743
L12.8493 -29.6684
L12.9868 -29.8625
L13.1266 -30.0568
L13.2688 -30.2512
L13.4134 -30.4458
L13.5605 -30.6407
L13.71 -30.8358
L13.8621 -31.0313
L14.0168 -31.2273
L14.1742 -31.4236
L14.3343 -31.6204
L14.4971 -31.8178
L14.6629 -32.0157
L14.8315 -32.2143
L15.0031 -32.4135
L15.1777 -32.6134
L15.3554 -32.814
L15.5363 -33.0154
L15.7205 -33.2176
L15.908 -33.4206
L16.0988 -33.6245
L16.2931 -33.8294
L16.491 -34.0351
L16.6925 -34.2419
L16.8977 -34.4497
L17.1066 -34.6585
L17.3194 -34.8683
L17.5361 -35.0793
L17.7568 -35.2913
L17.9816 -35.5045
L18.2106 -35.7188
L18.4438 -35.9343
L18.6812 -36.151
L18.9231 -36.3688
L19.1694 -36.5879
L19.4201 -36.8081
L19.6755 -37.0296
L19.9354 -37.2522
L20.2 -37.476
L20.4693 -37.7011
L20.7433 -37.9272
L21.0221 -38.1546
L21.3056 -38.3831
L21.5939 -38.6127
L21.887 -38.8435
L22.1848 -39.0753
L22.4874 -39.3081
L22.7946 -39.5419
L23.1063 -39.7768
L23.4225 -40.0126
L23.7431 -40.2493
L24.0678 -40.4868
L24.3966 -40.7252
L24.7291 -40.9645
L25.0652 -41.2045
L25.4045 -41.4453
L25.7466 -41.6868
L26.0912 -41.9291
L26.4377 -42.1722
L26.7856 -42.4161
L27.1342 -42.661
L27.4827 -42.9068
L27.8304 -43.1537
L28.1761 -43.402
L28.5186 -43.6518
L28.8568 -43.9035
L29.189 -44.1573
L29.5134 -44.4139
L29.8282 -44.6737
L30.1312 -44.9374
L30.4199 -45.2056
L30.6918 -45.4792
L30.9444 -45.7591
L31.1752 -46.0459
L31.3818 -46.3404
L31.5624 -46.6433
L31.7156 -46.9548
L31.8409 -47.2751
L31.9384 -47.6039
L32.0089 -47.9407
L32.054 -48.2847
L32.0755 -48.635
L32.0756 -48.9906
L32.0566 -49.3503
L32.0206 -49.7132
L31.9698 -50.0781
L31.9062 -50.4442
L31.8315 -50.8105
L31.7473 -51.1763
L31.6548 -51.5409
L31.5554 -51.9037
L31.4501 -52.2642
L31.3397 -52.6218
L31.2251 -52.9762
L31.1069 -53.327
L30.9858 -53.6739
L30.8622 -54.0166
L30.7365 -54.355
L30.6093 -54.6888
L30.4807 -55.0179
L30.3512 -55.3421
L30.2209 -55.6614
L30.0902 -55.9756
L29.9591 -56.2847
L29.8279 -56.5886
L29.6967 -56.8874
L29.5657 -57.1809
L29.4349 -57.4693
L29.3045 -57.7525
L29.1745 -58.0305
L29.045 -58.3035
L28.9161 -58.5713
L28.7879 -58.8341
L28.6603 -59.0919
L28.5335 -59.3448
L28.4074 -59.5929
L28.282 -59.8362
L28.1574 -60.0747
L28.0337 -60.3087
L27.9107 -60.5381
L27.7885 -60.763
L27.6671 -60.9836
L27.5465 -61.1998
L27.4267 -61.4119
L27.3077 -61.6198
L27.1894 -61.8236
L27.0719 -62.0236
L26.9551 -62.2196
L26.839 -62.4119
L26.7236 -62.6004
L26.1025 -62.7854
L25.6376 -62.7262
L25.1758 -62.5494
L24.7173 -62.3645
L24.2623 -62.1716
L23.8108 -61.9707
L23.3631 -61.7619
L22.9192 -61.5452
L22.4792 -61.3208
L22.0434 -61.0886
L21.6119 -60.8488
L21.1847 -60.6015
L20.7621 -60.3466
L20.3441 -60.0843
L19.9308 -59.8147
L19.5225 -59.5379
L19.1192 -59.2538
L18.721 -58.9627
L18.3281 -58.6646
L17.9405 -58.3596
L17.5585 -58.0478
L17.1821 -57.7293
L16.8114 -57.4041
L16.4465 -57.0724
L16.0876 -56.7343
L15.7348 -56.3899
L15.3882 -56.0393
L15.0478 -55.6826
L14.7138 -55.3198
L14.3863 -54.9512
L14.0654 -54.5768
L13.7512 -54.1968
L13.4437 -53.8112
L13.1431 -53.4202
L12.8495 -53.0239
L12.5629 -52.6224
L12.2835 -52.2158
L12.0113 -51.8043
L11.7464 -51.388
L11.4888 -50.967
L11.2388 -50.5414
L10.9963 -50.1114
L10.7614 -49.6772
L10.5342 -49.2387
L10.3148 -48.7962
L10.1031 -48.3498
L9.89939 -47.8997
L9.70361 -47.4459
L9.51584 -46.9886
L9.33613 -46.528
L9.16455 -46.0642
L9.00114 -45.5973
L8.84596 -45.1275
L8.69904 -44.6549
L8.56044 -44.1797
L8.4302 -43.702
L8.30836 -43.2219
L8.19496 -42.7397
L8.09002 -42.2554
L7.99359 -41.7691
L7.90568 -41.2812
L7.82634 -40.7916
L7.75557 -40.3005
L7.69341 -39.8082
L7.63987 -39.3147
L7.59498 -38.8202
L7.55873 -38.3248
L7.53115 -37.8287
L7.51223 -37.332
L7.502 -36.835
L7.50045 -36.3377
L7.50758 -35.8403
L7.52338 -35.3429
L7.54786 -34.8457
L7.58101 -34.3489
L7.62282 -33.8526
L7.67327 -33.357
L7.73235 -32.8621
L7.80003 -32.3682
L7.87631 -31.8755
L7.96116 -31.3839
L8.05454 -30.8938
L8.15644 -30.4052
L8.26682 -29.9184
L8.38565 -29.4334
L8.51289 -28.9503
L8.6485 -28.4695
L8.79244 -27.9909
L8.94467 -27.5148
L9.10515 -27.0412
L9.27381 -26.5704
L9.45062 -26.1025
L9.63551 -25.6376
z
" id="C0_2_2ef892e5a4"/>
    </defs>
    <g clip-path="url(#p1bffca34e9)">
     <use style="fill:#ffffff;stroke:#000000;stroke-width:2.0;" x="0.0" xlink:href="#C0_0_a811fe30f3" y="72.0"/>
    </g>
    <g clip-path="url(#p1bffca34e9)">
     <use style="fill:#ff0000;stroke:#000000;stroke-width:2.0;" x="0.0" xlink:href="#C0_1_50b9edd721" y="72.0"/>
    </g>
    <g clip-path="url(#p1bffca34e9)">
     <use style="fill:#ff0000;stroke:#000000;stroke-width:2.0;" x="0.0" xlink:href="#C0_2_2ef892e5a4" y="72.0"/>
    </g>
   </g>
  </g>
 </g>
 <defs>
  <clipPath id="p1bffca34e9">
   <rect height="72.0" width="72.0" x="0.0" y="0.0"/>
  </clipPath>
 </defs>
</svg>
