<?xml version="1.0" encoding="utf-8" standalone="no"?>
<!DOCTYPE svg PUBLIC "-//W3C//DTD SVG 1.1//EN"
  "http://www.w3.org/Graphics/SVG/1.1/DTD/svg11.dtd">
<!-- Created with matplotlib (http://matplotlib.org/) -->
<svg height="72pt" version="1.1" viewBox="0 0 72 72" width="72pt" xmlns="http://www.w3.org/2000/svg" xmlns:xlink="http://www.w3.org/1999/xlink">
 <defs>
  <style type="text/css">
*{stroke-linecap:butt;stroke-linejoin:round;}
  </style>
 </defs>
 <g id="figure_1">
  <g id="patch_1">
   <path d="
M0 72
L72 72
L72 0
L0 0
z
" style="fill:none;"/>
  </g>
  <g id="axes_1">
   <g id="PatchCollection_1">
    <defs>
     <path d="
M36 -7.5
C43.5583 -7.5 50.808 -10.5029 56.1525 -15.8475
C61.4971 -21.192 64.5 -28.4417 64.5 -36
C64.5 -43.5583 61.4971 -50.808 56.1525 -56.1525
C50.808 -61.4971 43.5583 -64.5 36 -64.5
C28.4417 -64.5 21.192 -61.4971 15.8475 -56.1525
C10.5029 -50.808 7.5 -43.5583 7.5 -36
C7.5 -28.4417 10.5029 -21.192 15.8475 -15.8475
C21.192 -10.5029 28.4417 -7.5 36 -7.5
z
" id="C0_0_a811fe30f3"/>
     <path d="
M39.8256 -64.0594
L40.0413 -63.7833
L40.2635 -63.5032
L40.4908 -63.2194
L40.7217 -62.932
L40.955 -62.6414
L41.1895 -62.3477
L41.4244 -62.0512
L41.6589 -61.7521
L41.8921 -61.4508
L42.1236 -61.1473
L42.3529 -60.8421
L42.5794 -60.5352
L42.8028 -60.227
L43.0228 -59.9177
L43.2392 -59.6074
L43.4518 -59.2964
L43.6604 -58.9848
L43.8649 -58.673
L44.0651 -58.3609
L44.261 -58.0489
L44.4527 -57.7369
L44.6399 -57.4253
L44.8228 -57.1141
L45.0013 -56.8034
L45.1755 -56.4933
L45.3454 -56.184
L45.511 -55.8755
L45.6725 -55.568
L45.8297 -55.2614
L45.9829 -54.9559
L46.132 -54.6515
L46.2772 -54.3482
L46.4186 -54.0462
L46.5561 -53.7454
L46.6899 -53.4459
L46.8201 -53.1476
L46.9467 -52.8507
L47.0698 -52.5551
L47.1895 -52.2608
L47.3059 -51.9678
L47.419 -51.6762
L47.529 -51.3859
L47.6358 -51.0969
L47.7397 -50.8092
L47.8406 -50.5228
L47.9386 -50.2376
L48.0339 -49.9536
L48.1264 -49.6709
L48.2162 -49.3893
L48.3034 -49.1089
L48.3881 -48.8296
L48.4703 -48.5514
L48.5501 -48.2742
L48.6275 -47.998
L48.7026 -47.7228
L48.7754 -47.4484
L48.846 -47.175
L48.9145 -46.9024
L48.9808 -46.6305
L49.0451 -46.3594
L49.1073 -46.089
L49.1676 -45.8193
L49.2259 -45.5501
L49.2823 -45.2814
L49.3368 -45.0133
L49.3895 -44.7456
L49.4403 -44.4782
L49.4894 -44.2112
L49.5367 -43.9445
L49.5822 -43.678
L49.6261 -43.4117
L49.6683 -43.1454
L49.7088 -42.8793
L49.7476 -42.6131
L49.7848 -42.3469
L49.8204 -42.0806
L49.8868 -41.8141
L49.9176 -41.5474
L49.9469 -41.2804
L49.9746 -41.0131
L50.0007 -40.7454
L50.0253 -40.4772
L50.0483 -40.2085
L50.0697 -39.9392
L50.0896 -39.6693
L50.108 -39.3987
L50.1247 -39.1273
L50.1399 -38.8552
L50.1535 -38.5821
L50.1656 -38.3082
L50.176 -38.0332
L50.1848 -37.7572
L50.192 -37.4801
L50.1975 -37.2017
L50.2014 -36.9222
L50.2036 -36.6414
L50.2041 -36.3592
L50.2028 -36.0755
L50.1998 -35.7905
L50.195 -35.5038
L50.1884 -35.2156
L50.18 -34.9257
L50.1697 -34.6341
L50.1574 -34.3408
L50.1432 -34.0456
L50.1271 -33.7485
L50.1089 -33.4495
L50.0886 -33.1484
L50.0662 -32.8454
L50.0417 -32.5402
L50.015 -32.2329
L49.986 -31.9234
L49.9546 -31.6116
L49.921 -31.2976
L49.8849 -30.9812
L49.8464 -30.6624
L49.8053 -30.3413
L49.7616 -30.0177
L49.7153 -29.6916
L49.6664 -29.3631
L49.6146 -29.032
L49.5601 -28.6984
L49.5027 -28.3623
L49.4423 -28.0236
L49.379 -27.6824
L49.3126 -27.3387
L49.2432 -26.9924
L49.1706 -26.6437
L49.0948 -26.2925
L49.0158 -25.9388
L48.9336 -25.5828
L48.8481 -25.2244
L48.7593 -24.8638
L48.6672 -24.501
L48.5718 -24.1362
L48.4731 -23.7693
L48.3712 -23.4006
L48.2661 -23.0302
L48.1579 -22.6582
L48.0467 -22.2848
L47.9326 -21.9102
L47.8157 -21.5345
L47.6964 -21.1581
L47.5747 -20.781
L47.451 -20.4036
L47.3257 -20.0262
L47.199 -19.6491
L47.0716 -19.2725
L46.9439 -18.8969
L46.8165 -18.5226
L46.6903 -18.15
L46.566 -17.7796
L46.4446 -17.4118
L46.3271 -17.0471
L46.2149 -16.686
L46.1093 -16.3292
L46.0117 -15.9772
L45.9239 -15.6306
L45.8476 -15.2902
L45.7848 -14.9565
L45.7374 -14.6303
L45.7074 -14.3124
L45.6969 -14.0035
L45.7077 -13.7042
L45.7414 -13.4154
L45.7996 -13.1377
L45.8832 -12.8716
L45.993 -12.6179
L46.1292 -12.3768
L46.2917 -12.1489
L46.4799 -11.9345
L46.6929 -11.7336
L46.9295 -11.5465
L47.1884 -11.3732
L47.4679 -11.2138
L47.7664 -11.0682
L48.0824 -10.9363
L48.4141 -10.818
L48.7602 -10.7133
L49.2451 -10.6221
L49.6835 -10.7648
L50.1178 -10.9998
L50.5477 -11.2424
L50.9732 -11.4926
L51.3941 -11.7502
L51.8104 -12.0152
L52.2218 -12.2875
L52.6283 -12.5671
L53.0297 -12.8537
L53.426 -13.1475
L53.8169 -13.4482
L54.2024 -13.7557
L54.5824 -14.07
L54.9566 -14.3911
L55.3252 -14.7187
L55.6878 -15.0527
L56.0444 -15.3932
L56.395 -15.7399
L56.7393 -16.0928
L57.0773 -16.4518
L57.4089 -16.8167
L57.734 -17.1875
L58.0524 -17.564
L58.3641 -17.9461
L58.669 -18.3338
L58.967 -18.7268
L59.2581 -19.125
L59.542 -19.5284
L59.8187 -19.9368
L60.0882 -20.3501
L60.3504 -20.7682
L60.6051 -21.1909
L60.8524 -21.6182
L61.0921 -22.0498
L61.3241 -22.4856
L61.5484 -22.9256
L61.765 -23.3696
L61.9737 -23.8174
L62.1744 -24.2689
L62.3672 -24.724
L62.552 -25.1825
L62.7287 -25.6443
L62.8973 -26.1093
L63.0576 -26.5773
L63.2097 -27.0481
L63.3535 -27.5217
L63.489 -27.9979
L63.6161 -28.4765
L63.7349 -28.9574
L63.8451 -29.4404
L63.9469 -29.9255
L64.0401 -30.4124
L64.1249 -30.901
L64.201 -31.3911
L64.2686 -31.8826
L64.3275 -32.3754
L64.3779 -32.8694
L64.4195 -33.3642
L64.4526 -33.8599
L64.4769 -34.3562
L64.4926 -34.853
L64.4996 -35.3502
L64.4979 -35.8475
L64.4876 -36.3449
L64.4685 -36.8423
L64.4408 -37.3393
L64.4044 -37.8359
L64.3594 -38.332
L64.3057 -38.8274
L64.2435 -39.3219
L64.1726 -39.8154
L64.0931 -40.3077
L64.0051 -40.7988
L63.9085 -41.2883
L63.8034 -41.7763
L63.6899 -42.2625
L63.568 -42.7467
L63.4376 -43.229
L63.2989 -43.709
L63.1518 -44.1867
L62.9965 -44.6619
L62.833 -45.1344
L62.6613 -45.6042
L62.4815 -46.071
L62.2936 -46.5348
L62.0977 -46.9953
L61.8938 -47.4525
L61.6821 -47.9063
L61.4625 -48.3564
L61.2352 -48.8027
L61.0002 -49.2451
L60.7576 -49.6835
L60.5074 -50.1178
L60.2498 -50.5477
L59.9848 -50.9732
L59.7125 -51.3941
L59.4329 -51.8104
L59.1463 -52.2218
L58.8525 -52.6283
L58.5518 -53.0297
L58.2443 -53.426
L57.93 -53.8169
L57.6089 -54.2024
L57.2813 -54.5824
L56.9473 -54.9566
L56.6068 -55.3252
L56.2601 -55.6878
L55.9072 -56.0444
L55.5482 -56.395
L55.1833 -56.7393
L54.8125 -57.0773
L54.436 -57.4089
L54.0539 -57.734
L53.6662 -58.0524
L53.2732 -58.3641
L52.875 -58.669
L52.4716 -58.967
L52.0632 -59.2581
L51.6499 -59.542
L51.2318 -59.8187
L50.8091 -60.0882
L50.3818 -60.3504
L49.9502 -60.6051
L49.5144 -60.8524
L49.0744 -61.0921
L48.6304 -61.3241
L48.1826 -61.5484
L47.7311 -61.765
L47.276 -61.9737
L46.8175 -62.1744
L46.3557 -62.3672
L45.8907 -62.552
L45.4227 -62.7287
L44.9519 -62.8973
L44.4783 -63.0576
L44.0021 -63.2097
L43.5235 -63.3535
L43.0426 -63.489
L42.5596 -63.6161
L42.0745 -63.7349
L41.5876 -63.8451
L41.099 -63.9469
L40.6089 -64.0401
z
" id="C0_1_23df122c88"/>
     <path d="
M23.0074 -61.2108
L22.8554 -60.8689
L22.7005 -60.522
L22.5439 -60.1705
L22.3868 -59.8151
L22.2301 -59.4564
L22.0745 -59.0949
L21.921 -58.7311
L21.7699 -58.3653
L21.6218 -57.9982
L21.4772 -57.6299
L21.3363 -57.261
L21.1995 -56.8917
L21.0668 -56.5224
L20.9386 -56.1532
L20.8149 -55.7846
L20.6958 -55.4167
L20.5814 -55.0498
L20.4716 -54.6841
L20.3665 -54.3196
L20.2661 -53.9567
L20.1704 -53.5954
L20.0792 -53.2359
L19.9925 -52.8783
L19.9103 -52.5227
L19.8325 -52.1692
L19.7589 -51.8179
L19.6896 -51.4688
L19.6244 -51.122
L19.5632 -50.7775
L19.506 -50.4354
L19.4526 -50.0956
L19.4029 -49.7583
L19.3569 -49.4235
L19.3144 -49.091
L19.2753 -48.761
L19.2396 -48.4334
L19.2072 -48.1082
L19.178 -47.7854
L19.1518 -47.465
L19.1287 -47.147
L19.1085 -46.8312
L19.0911 -46.5177
L19.0765 -46.2065
L19.0647 -45.8974
L19.0554 -45.5906
L19.0487 -45.2858
L19.0445 -44.9831
L19.0428 -44.6824
L19.0434 -44.3837
L19.0463 -44.087
L19.0516 -43.792
L19.059 -43.4989
L19.0686 -43.2076
L19.0803 -42.9179
L19.0942 -42.6299
L19.11 -42.3435
L19.1279 -42.0586
L19.1478 -41.7752
L19.1696 -41.4932
L19.1933 -41.2125
L19.2189 -40.9331
L19.2464 -40.655
L19.2757 -40.378
L19.3068 -40.1021
L19.3397 -39.8273
L19.3744 -39.5535
L19.4109 -39.2806
L19.4492 -39.0086
L19.4892 -38.7374
L19.531 -38.4669
L19.5744 -38.1972
L19.6197 -37.928
L19.6666 -37.6595
L19.7153 -37.3914
L19.7658 -37.1239
L19.818 -36.8567
L19.8719 -36.5898
L19.9276 -36.3233
L19.9851 -36.0569
L20.0443 -35.7908
L20.1053 -35.5247
L20.1681 -35.2587
L20.2328 -34.9927
L20.2993 -34.7266
L20.3677 -34.4605
L20.4379 -34.1941
L20.5101 -33.9275
L20.5842 -33.6607
L20.6603 -33.3935
L20.7383 -33.1259
L20.8184 -32.8579
L20.9006 -32.5894
L20.9848 -32.3203
L21.0712 -32.0507
L21.1598 -31.7804
L21.2506 -31.5094
L21.3436 -31.2376
L21.4389 -30.9651
L21.5366 -30.6917
L21.6367 -30.4175
L21.7392 -30.1423
L21.8443 -29.8661
L21.9518 -29.5889
L22.062 -29.3107
L22.1749 -29.0313
L22.2904 -28.7508
L22.4088 -28.4692
L22.53 -28.1863
L22.6541 -27.9022
L22.7812 -27.6168
L22.9113 -27.3301
L23.0445 -27.0421
L23.1809 -26.7528
L23.3205 -26.4621
L23.4635 -26.17
L23.6098 -25.8765
L23.7596 -25.5816
L23.9129 -25.2853
L24.0697 -24.9876
L24.2303 -24.6885
L24.3945 -24.388
L24.5626 -24.0861
L24.7345 -23.7829
L24.9103 -23.4783
L25.0901 -23.1724
L25.2739 -22.8652
L25.4618 -22.5568
L25.6538 -22.2473
L25.8499 -21.9366
L26.0503 -21.6248
L26.2548 -21.312
L26.4635 -20.9984
L26.6765 -20.6839
L26.8936 -20.3687
L27.1149 -20.0529
L27.3403 -19.7365
L27.5697 -19.4198
L27.8031 -19.1028
L28.0403 -18.7857
L28.2812 -18.4686
L28.5256 -18.1517
L28.7732 -17.8351
L29.0239 -17.519
L29.2774 -17.2036
L29.5331 -16.889
L29.7909 -16.5754
L30.0501 -16.263
L30.3102 -15.9519
L30.5706 -15.6424
L30.8305 -15.3346
L31.0891 -15.0287
L31.3454 -14.7247
L31.5985 -14.423
L31.847 -14.1235
L32.0897 -13.8264
L32.325 -13.5317
L32.5513 -13.2396
L32.7668 -12.9501
L32.9696 -12.6631
L33.1576 -12.3788
L33.3287 -12.097
L33.4808 -11.8177
L33.6117 -11.5409
L33.7194 -11.2667
L33.8021 -10.995
L33.8583 -10.7258
L33.8866 -10.4593
L33.8863 -10.1956
L33.857 -9.93504
L33.7987 -9.6778
L33.7118 -9.42428
L33.5972 -9.17487
L33.4559 -8.93003
L33.2891 -8.69021
L33.0984 -8.4559
L32.8851 -8.22756
L32.6509 -8.00567
L31.8966 -7.79067
L31.405 -7.79694
L30.9149 -7.87285
L30.4262 -7.95733
L29.9393 -8.05035
L29.4542 -8.15188
L28.9711 -8.2619
L28.4901 -8.38036
L28.0115 -8.50724
L27.5352 -8.64249
L27.0616 -8.78608
L26.5906 -8.93795
L26.1226 -9.09807
L25.6575 -9.26639
L25.1956 -9.44284
L24.737 -9.62739
L24.2818 -9.81997
L23.8302 -10.0205
L23.3822 -10.229
L22.9382 -10.4453
L22.4981 -10.6694
L22.0621 -10.9012
L21.6304 -11.1407
L21.203 -11.3877
L20.7802 -11.6423
L20.362 -11.9042
L19.9485 -12.1735
L19.54 -12.4501
L19.1364 -12.7338
L18.738 -13.0246
L18.3449 -13.3224
L17.9571 -13.6271
L17.5748 -13.9387
L17.1981 -14.2569
L16.8272 -14.5818
L16.4621 -14.9132
L16.103 -15.251
L15.7499 -15.5951
L15.403 -15.9455
L15.0623 -16.302
L14.7281 -16.6644
L14.4003 -17.0328
L14.0791 -17.4069
L13.7645 -17.7867
L13.4568 -18.1721
L13.1559 -18.5629
L12.862 -18.9589
L12.5751 -19.3602
L12.2954 -19.7666
L12.0228 -20.1779
L11.7576 -20.594
L11.4998 -21.0148
L11.2494 -21.4402
L11.0066 -21.87
L10.7713 -22.3041
L10.5438 -22.7424
L10.324 -23.1847
L10.1121 -23.6309
L9.908 -24.0809
L9.71187 -24.5345
L9.52375 -24.9916
L9.3437 -25.4521
L9.17177 -25.9158
L9.008 -26.3825
L8.85246 -26.8522
L8.70519 -27.3247
L8.56624 -27.7998
L8.43564 -28.2774
L8.31343 -28.7574
L8.19966 -29.2395
L8.09436 -29.7238
L7.99756 -30.2099
L7.90929 -30.6978
L7.82957 -31.1873
L7.75844 -31.6783
L7.69591 -32.1706
L7.642 -32.6641
L7.59673 -33.1585
L7.56011 -33.6539
L7.53215 -34.15
L7.51287 -34.6466
L7.50226 -35.1436
L7.50034 -35.6409
L7.50709 -36.1383
L7.52252 -36.6357
L7.54663 -37.1329
L7.57941 -37.6297
L7.62084 -38.126
L7.67092 -38.6217
L7.72963 -39.1166
L7.79694 -39.6105
L7.87285 -40.1034
L7.95733 -40.595
L8.05035 -41.0851
L8.15188 -41.5738
L8.2619 -42.0607
L8.38036 -42.5458
L8.50724 -43.0289
L8.64249 -43.5099
L8.78608 -43.9885
L8.93795 -44.4648
L9.09807 -44.9384
L9.26639 -45.4094
L9.44284 -45.8774
L9.62739 -46.3425
L9.81997 -46.8044
L10.0205 -47.263
L10.229 -47.7182
L10.4453 -48.1698
L10.6694 -48.6178
L10.9012 -49.0618
L11.1407 -49.5019
L11.3877 -49.9379
L11.6423 -50.3696
L11.9042 -50.797
L12.1735 -51.2198
L12.4501 -51.638
L12.7338 -52.0515
L13.0246 -52.46
L13.3224 -52.8636
L13.6271 -53.262
L13.9387 -53.6551
L14.2569 -54.0429
L14.5818 -54.4252
L14.9132 -54.8019
L15.251 -55.1728
L15.5951 -55.5379
L15.9455 -55.897
L16.302 -56.2501
L16.6644 -56.597
L17.0328 -56.9377
L17.4069 -57.2719
L17.7867 -57.5997
L18.1721 -57.9209
L18.5629 -58.2355
L18.9589 -58.5432
L19.3602 -58.8441
L19.7666 -59.138
L20.1779 -59.4249
L20.594 -59.7046
L21.0148 -59.9772
L21.4402 -60.2424
L21.87 -60.5002
L22.3041 -60.7506
z
" id="C0_2_a9063f9023"/>
    </defs>
    <g clip-path="url(#p1bffca34e9)">
     <use style="fill:#ff0000;stroke:#000000;stroke-width:2.0;" x="0.0" xlink:href="#C0_0_a811fe30f3" y="72.0"/>
    </g>
    <g clip-path="url(#p1bffca34e9)">
     <use style="fill:#ffffff;stroke:#000000;stroke-width:2.0;" x="0.0" xlink:href="#C0_1_23df122c88" y="72.0"/>
    </g>
    <g clip-path="url(#p1bffca34e9)">
     <use style="fill:#ffffff;stroke:#000000;stroke-width:2.0;" x="0.0" xlink:href="#C0_2_a9063f9023" y="72.0"/>
    </g>
   </g>
  </g>
 </g>
 <defs>
  <clipPath id="p1bffca34e9">
   <rect height="72.0" width="72.0" x="0.0" y="0.0"/>
  </clipPath>
 </defs>
</svg>
