<?xml version="1.0" encoding="utf-8" standalone="no"?>
<!DOCTYPE svg PUBLIC "-//W3C//DTD SVG 1.1//EN"
  "http://www.w3.org/Graphics/SVG/1.1/DTD/svg11.dtd">
<!-- Created with matplotlib (http://matplotlib.org/) -->
<svg height="72pt" version="1.1" viewBox="0 0 72 72" width="72pt" xmlns="http://www.w3.org/2000/svg" xmlns:xlink="http://www.w3.org/1999/xlink">
 <defs>
  <style type="text/css">
*{stroke-linecap:butt;stroke-linejoin:round;}
  </style>
 </defs>
 <g id="figure_1">
  <g id="patch_1">
   <path d="
M0 72
L72 72
L72 0
L0 0
z
" style="fill:none;"/>
  </g>
  <g id="axes_1">
   <g id="PatchCollection_1">
    <defs>
     <path d="
M36 -7.5
C43.5583 -7.5 50.808 -10.5029 56.1525 -15.8475
C61.4971 -21.192 64.5 -28.4417 64.5 -36
C64.5 -43.5583 61.4971 -50.808 56.1525 -56.1525
C50.808 -61.4971 43.5583 -64.5 36 -64.5
C28.4417 -64.5 21.192 -61.4971 15.8475 -56.1525
C10.5029 -50.808 7.5 -43.5583 7.5 -36
C7.5 -28.4417 10.5029 -21.192 15.8475 -15.8475
C21.192 -10.5029 28.4417 -7.5 36 -7.5
z
" id="C0_0_a811fe30f3"/>
     <path d="
M58.9127 -19.0656
L58.7928 -19.2296
L58.6723 -19.3929
L58.5512 -19.5555
L58.4295 -19.7174
L58.3072 -19.8787
L58.1842 -20.0395
L58.0607 -20.1997
L57.9365 -20.3594
L57.8118 -20.5186
L57.6864 -20.6773
L57.5603 -20.8357
L57.4337 -20.9937
L57.3064 -21.1513
L57.1784 -21.3087
L57.0497 -21.4658
L56.9203 -21.6228
L56.7903 -21.7795
L56.6595 -21.9361
L56.5279 -22.0926
L56.3956 -22.249
L56.2625 -22.4054
L56.1286 -22.5618
L55.9938 -22.7183
L55.8582 -22.8749
L55.7217 -23.0316
L55.4458 -23.1885
L55.3065 -23.3456
L55.1661 -23.5029
L55.0247 -23.6606
L54.8822 -23.8186
L54.7386 -23.9769
L54.5939 -24.1357
L54.448 -24.295
L54.3009 -24.4547
L54.1525 -24.615
L54.0029 -24.7759
L53.8519 -24.9374
L53.6995 -25.0996
L53.5458 -25.2625
L53.3905 -25.4261
L53.2338 -25.5906
L53.0755 -25.7559
L52.9156 -25.9222
L52.7541 -26.0893
L52.5909 -26.2575
L52.426 -26.4267
L52.2592 -26.597
L52.0907 -26.7684
L51.9202 -26.941
L51.7478 -27.1148
L51.5734 -27.2898
L51.3969 -27.4662
L51.2184 -27.644
L51.0376 -27.8232
L50.8547 -28.0039
L50.6695 -28.186
L50.4819 -28.3698
L50.292 -28.5551
L50.0996 -28.7422
L49.9047 -28.9309
L49.7072 -29.1214
L49.5071 -29.3137
L49.3044 -29.5079
L49.0989 -29.704
L48.8906 -29.9021
L48.6795 -30.1022
L48.4655 -30.3043
L48.2485 -30.5085
L48.0286 -30.7149
L47.8056 -30.9235
L47.5795 -31.1343
L47.3503 -31.3474
L47.1179 -31.5628
L46.8823 -31.7805
L46.6436 -32.0007
L46.4015 -32.2233
L46.1563 -32.4483
L45.9077 -32.6759
L45.6559 -32.9059
L45.4008 -33.1386
L45.1425 -33.3737
L44.8809 -33.6115
L44.6162 -33.8519
L44.3484 -34.0949
L44.0776 -34.3405
L43.8037 -34.5887
L43.5271 -34.8396
L43.2477 -35.0931
L42.9658 -35.3492
L42.6815 -35.6079
L42.395 -35.8692
L42.1066 -36.133
L41.8165 -36.3994
L41.5251 -36.6684
L41.2328 -36.9398
L40.9399 -37.2138
L40.647 -37.4901
L40.3547 -37.7689
L40.0634 -38.0501
L39.7741 -38.3337
L39.4874 -38.6196
L39.2043 -38.9079
L38.9259 -39.1986
L38.6533 -39.4917
L38.3879 -39.7872
L38.1312 -40.0852
L37.8848 -40.3857
L37.6505 -40.6889
L37.4303 -40.9949
L37.2263 -41.3039
L37.0406 -41.6159
L36.8753 -41.9312
L36.7324 -42.2499
L36.6137 -42.5721
L36.5207 -42.898
L36.4543 -43.2274
L36.4149 -43.5604
L36.4026 -43.8967
L36.4165 -44.236
L36.4557 -44.578
L36.5185 -44.922
L36.6033 -45.2677
L36.7082 -45.6142
L36.8312 -45.9612
L36.9705 -46.3079
L37.1241 -46.6538
L37.2905 -46.9983
L37.468 -47.341
L37.6553 -47.6812
L37.851 -48.0187
L38.0541 -48.3531
L38.2635 -48.6839
L38.4783 -49.011
L38.6977 -49.3339
L38.921 -49.6526
L39.1476 -49.9668
L39.3768 -50.2763
L39.6083 -50.581
L39.8415 -50.8807
L40.0761 -51.1754
L40.3117 -51.465
L40.548 -51.7494
L40.7846 -52.0286
L41.0215 -52.3025
L41.2583 -52.5711
L41.4948 -52.8345
L41.7309 -53.0926
L41.9665 -53.3454
L42.2013 -53.5931
L42.4353 -53.8355
L42.6684 -54.0728
L42.9004 -54.305
L43.1314 -54.5322
L43.3612 -54.7543
L43.5898 -54.9716
L43.8172 -55.184
L44.0432 -55.3917
L44.268 -55.5946
L44.4914 -55.793
L44.7135 -55.9867
L44.9342 -56.1761
L45.1536 -56.361
L45.3716 -56.5416
L45.5883 -56.718
L45.8037 -56.8903
L46.0177 -57.0585
L46.2304 -57.2227
L46.4419 -57.383
L46.6522 -57.5395
L46.8612 -57.6922
L47.069 -57.8413
L47.2757 -57.9867
L47.4812 -58.1287
L47.6857 -58.2671
L47.8892 -58.4022
L48.0916 -58.5339
L48.2931 -58.6624
L48.4936 -58.7876
L48.6933 -58.9097
L48.8922 -59.0287
L49.0903 -59.1447
L49.2876 -59.2577
L49.4843 -59.3678
L49.6803 -59.475
L49.8758 -59.5793
L50.0707 -59.6809
L50.2651 -59.7797
L50.4591 -59.8758
L50.6527 -59.9691
L50.846 -60.0599
L51.3478 -60.148
L51.7646 -60.0145
L52.1765 -59.743
L52.5836 -59.4642
L52.9856 -59.1783
L53.3824 -58.8854
L53.7739 -58.5854
L54.16 -58.2786
L54.5406 -57.965
L54.9155 -57.6448
L55.2847 -57.3179
L55.648 -56.9845
L56.0053 -56.6448
L56.3565 -56.2987
L56.7015 -55.9465
L57.0402 -55.5882
L57.3725 -55.2239
L57.6983 -54.8538
L58.0175 -54.4779
L58.33 -54.0964
L58.6356 -53.7094
L58.9344 -53.317
L59.2262 -52.9193
L59.5109 -52.5164
L59.7885 -52.1086
L60.0588 -51.6958
L60.3218 -51.2782
L60.5773 -50.856
L60.8254 -50.4293
L61.0659 -49.9982
L61.2988 -49.5628
L61.524 -49.1232
L61.7414 -48.6797
L61.951 -48.2323
L62.1526 -47.7812
L62.3463 -47.3265
L62.532 -46.8684
L62.7096 -46.4069
L62.879 -45.9423
L63.0403 -45.4746
L63.1933 -45.0041
L63.338 -44.5308
L63.4745 -44.0549
L63.6025 -43.5765
L63.7221 -43.0959
L63.8333 -42.6131
L63.936 -42.1283
L64.0303 -41.6416
L64.1159 -41.1532
L64.193 -40.6632
L64.2615 -40.1718
L64.3214 -39.6791
L64.3727 -39.1853
L64.4153 -38.6906
L64.4493 -38.195
L64.4746 -37.6987
L64.4913 -37.202
L64.4992 -36.7048
L64.4985 -36.2075
L64.4891 -35.7101
L64.471 -35.2127
L64.4443 -34.7157
L64.4089 -34.219
L64.3648 -33.7228
L64.3121 -33.2274
L64.2508 -32.7327
L64.1808 -32.2391
L64.1023 -31.7467
L64.0152 -31.2555
L63.9196 -30.7657
L63.8155 -30.2776
L63.7029 -29.7912
L63.5819 -29.3067
L63.4524 -28.8243
L63.3146 -28.344
L63.1685 -27.866
L63.0141 -27.3906
L62.8515 -26.9177
L62.6807 -26.4476
L62.5018 -25.9805
L62.3148 -25.5164
L62.1197 -25.0554
L61.9168 -24.5978
L61.7059 -24.1437
L61.4872 -23.6932
L61.2607 -23.2465
L61.0266 -22.8036
L60.7848 -22.3647
L60.5355 -21.9301
L60.2787 -21.4996
L60.0145 -21.0736
L59.743 -20.6522
L59.4642 -20.2354
z
" id="C0_1_90abf312cb"/>
     <path d="
M20.9829 -11.8018
L20.9739 -12.0121
L20.9669 -12.2221
L20.9616 -12.432
L20.9581 -12.6419
L20.9563 -12.8517
L20.9562 -13.0615
L20.9578 -13.2713
L20.961 -13.4813
L20.9659 -13.6914
L20.9723 -13.9017
L20.9803 -14.1122
L20.9899 -14.3231
L21.001 -14.5343
L21.0136 -14.7459
L21.0277 -14.9579
L21.0433 -15.1705
L21.0604 -15.3837
L21.0789 -15.5974
L21.0989 -15.8119
L21.1204 -16.027
L21.1433 -16.243
L21.1678 -16.4598
L21.1936 -16.6774
L21.221 -16.8961
L21.2498 -17.1157
L21.28 -17.3364
L21.3118 -17.5583
L21.3451 -17.7813
L21.3798 -18.0056
L21.4161 -18.2313
L21.4539 -18.4582
L21.4933 -18.6867
L21.5342 -18.9166
L21.5767 -19.1481
L21.6208 -19.3812
L21.6665 -19.616
L21.7138 -19.8526
L21.7629 -20.0909
L21.8136 -20.3312
L21.866 -20.5735
L21.9202 -20.8177
L21.9761 -21.0641
L22.0339 -21.3126
L22.0935 -21.5634
L22.1549 -21.8165
L22.2183 -22.0719
L22.2836 -22.3297
L22.3508 -22.5901
L22.4201 -22.8531
L22.4915 -23.1186
L22.5649 -23.3869
L22.6404 -23.658
L22.7181 -23.9319
L22.798 -24.2087
L22.8802 -24.4885
L22.9646 -24.7714
L23.0513 -25.0573
L23.1404 -25.3464
L23.2319 -25.6386
L23.3259 -25.9342
L23.4223 -26.233
L23.5212 -26.5353
L23.6227 -26.8409
L23.7267 -27.1499
L23.8333 -27.4625
L23.9425 -27.7786
L24.0544 -28.0982
L24.1689 -28.4213
L24.286 -28.748
L24.4058 -29.0783
L24.5283 -29.4122
L24.6534 -29.7496
L24.781 -30.0906
L24.9112 -30.435
L25.044 -30.783
L25.1791 -31.1343
L25.3166 -31.489
L25.4563 -31.847
L25.5982 -32.2082
L25.742 -32.5724
L25.8876 -32.9396
L26.0347 -33.3096
L26.1831 -33.6823
L26.3325 -34.0575
L26.4825 -34.4349
L26.6328 -34.8144
L26.7828 -35.1958
L26.9321 -35.5787
L27.08 -35.9628
L27.2257 -36.3479
L27.3684 -36.7336
L27.5072 -37.1194
L27.6411 -37.5051
L27.7686 -37.89
L27.8886 -38.2738
L27.9993 -38.6558
L28.0992 -39.0355
L28.1864 -39.4124
L28.2588 -39.7857
L28.3144 -40.1548
L28.3513 -40.5192
L28.3676 -40.8782
L28.3614 -41.2312
L28.3316 -41.5777
L28.2771 -41.9174
L28.1977 -42.25
L28.0935 -42.5753
L27.9652 -42.8933
L27.814 -43.204
L27.6415 -43.5075
L27.4496 -43.8041
L27.24 -44.0938
L27.0149 -44.3771
L26.7761 -44.6539
L26.5256 -44.9247
L26.2649 -45.1895
L25.9958 -45.4486
L25.7196 -45.7021
L25.4377 -45.9502
L25.1511 -46.1929
L24.861 -46.4304
L24.5681 -46.6627
L24.2733 -46.89
L23.9772 -47.1123
L23.6806 -47.3296
L23.3839 -47.5421
L23.0876 -47.7499
L22.7922 -47.9529
L22.4979 -48.1512
L22.2051 -48.3449
L21.9141 -48.5341
L21.6252 -48.7188
L21.3384 -48.8991
L21.0541 -49.075
L20.7722 -49.2466
L20.4931 -49.414
L20.2167 -49.5772
L19.9432 -49.7363
L19.6727 -49.8914
L19.4051 -50.0425
L19.1405 -50.1898
L18.879 -50.3332
L18.6205 -50.4729
L18.3652 -50.6089
L18.1129 -50.7413
L17.8636 -50.8702
L17.6174 -50.9956
L17.3742 -51.1177
L17.134 -51.2364
L16.8967 -51.3518
L16.6624 -51.4641
L16.4309 -51.5733
L16.2023 -51.6794
L15.9764 -51.7825
L15.7532 -51.8827
L15.5328 -51.9801
L15.3149 -52.0746
L15.0996 -52.1664
L14.8868 -52.2555
L14.6764 -52.3419
L14.4684 -52.4258
L14.2627 -52.5071
L14.0592 -52.586
L13.858 -52.6624
L13.6589 -52.7364
L13.4618 -52.8081
L12.8239 -52.8775
L12.538 -52.5867
L12.2592 -52.1797
L11.9876 -51.7678
L11.7233 -51.3511
L11.4665 -50.9296
L11.2171 -50.5037
L10.9753 -50.0733
L10.741 -49.6386
L10.5145 -49.1998
L10.2958 -48.757
L10.0848 -48.3103
L9.8818 -47.8598
L9.68672 -47.4057
L9.49966 -46.9481
L9.32067 -46.4872
L9.1498 -46.0231
L8.98712 -45.556
L8.83266 -45.0859
L8.68648 -44.6131
L8.54862 -44.1377
L8.41912 -43.6597
L8.29802 -43.1795
L8.18536 -42.697
L8.08117 -42.2125
L7.98549 -41.7262
L7.89834 -41.238
L7.81975 -40.7483
L7.74974 -40.2572
L7.68834 -39.7647
L7.63557 -39.2711
L7.59143 -38.7765
L7.55595 -38.281
L7.52913 -37.7849
L7.51098 -37.2882
L7.50151 -36.7911
L7.50073 -36.2938
L7.50862 -35.7964
L7.52519 -35.299
L7.55044 -34.8019
L7.58435 -34.3051
L7.62692 -33.8089
L7.67813 -33.3133
L7.73797 -32.8185
L7.80642 -32.3247
L7.88345 -31.832
L7.96905 -31.3406
L8.06319 -30.8506
L8.16584 -30.3622
L8.27696 -29.8755
L8.39654 -29.3907
L8.52452 -28.9078
L8.66086 -28.4272
L8.80554 -27.9488
L8.9585 -27.4729
L9.1197 -26.9996
L9.28908 -26.529
L9.4666 -26.0613
L9.65221 -25.5967
L9.84584 -25.1352
L10.0474 -24.677
L10.2569 -24.2223
L10.4743 -23.7712
L10.6994 -23.3237
L10.9322 -22.8802
L11.1727 -22.4406
L11.4207 -22.0052
L11.6762 -21.574
L11.9391 -21.1473
L12.2094 -20.725
L12.4869 -20.3074
L12.7715 -19.8946
L13.0633 -19.4867
L13.362 -19.0838
L13.6676 -18.6861
L13.98 -18.2936
L14.2992 -17.9066
L14.6249 -17.525
L14.9572 -17.1491
L15.2958 -16.779
L15.6408 -16.4146
L15.9919 -16.0563
L16.3492 -15.704
L16.7125 -15.3579
L17.0816 -15.0181
L17.4565 -14.6847
L17.837 -14.3577
L18.2231 -14.0374
L18.6145 -13.7238
L19.0113 -13.4169
L19.4133 -13.1169
L19.8203 -12.8239
L20.2322 -12.538
z
" id="C0_2_3c83d8b902"/>
    </defs>
    <g clip-path="url(#p1bffca34e9)">
     <use style="fill:#ff0000;stroke:#000000;stroke-width:2.0;" x="0.0" xlink:href="#C0_0_a811fe30f3" y="72.0"/>
    </g>
    <g clip-path="url(#p1bffca34e9)">
     <use style="fill:#ffffff;stroke:#000000;stroke-width:2.0;" x="0.0" xlink:href="#C0_1_90abf312cb" y="72.0"/>
    </g>
    <g clip-path="url(#p1bffca34e9)">
     <use style="fill:#ffffff;stroke:#000000;stroke-width:2.0;" x="0.0" xlink:href="#C0_2_3c83d8b902" y="72.0"/>
    </g>
   </g>
  </g>
 </g>
 <defs>
  <clipPath id="p1bffca34e9">
   <rect height="72.0" width="72.0" x="0.0" y="0.0"/>
  </clipPath>
 </defs>
</svg>
