<?xml version="1.0" encoding="utf-8" standalone="no"?>
<!DOCTYPE svg PUBLIC "-//W3C//DTD SVG 1.1//EN"
  "http://www.w3.org/Graphics/SVG/1.1/DTD/svg11.dtd">
<!-- Created with matplotlib (http://matplotlib.org/) -->
<svg height="72pt" version="1.1" viewBox="0 0 72 72" width="72pt" xmlns="http://www.w3.org/2000/svg" xmlns:xlink="http://www.w3.org/1999/xlink">
 <defs>
  <style type="text/css">
*{stroke-linecap:butt;stroke-linejoin:round;}
  </style>
 </defs>
 <g id="figure_1">
  <g id="patch_1">
   <path d="
M0 72
L72 72
L72 0
L0 0
z
" style="fill:none;"/>
  </g>
  <g id="axes_1">
   <g id="PatchCollection_1">
    <defs>
     <path d="
M36 -7.5
C43.5583 -7.5 50.808 -10.5029 56.1525 -15.8475
C61.4971 -21.192 64.5 -28.4417 64.5 -36
C64.5 -43.5583 61.4971 -50.808 56.1525 -56.1525
C50.808 -61.4971 43.5583 -64.5 36 -64.5
C28.4417 -64.5 21.192 -61.4971 15.8475 -56.1525
C10.5029 -50.808 7.5 -43.5583 7.5 -36
C7.5 -28.4417 10.5029 -21.192 15.8475 -15.8475
C21.192 -10.5029 28.4417 -7.5 36 -7.5
z
" id="C0_0_a811fe30f3"/>
     <path d="
M7.72022 -38.9721
L7.95112 -39.0921
L8.1848 -39.1973
L8.421 -39.2882
L8.65952 -39.3649
L8.90012 -39.428
L9.14263 -39.4778
L9.38685 -39.5148
L9.63263 -39.5394
L9.87981 -39.5521
L10.1283 -39.5534
L10.3779 -39.5439
L10.6285 -39.524
L10.88 -39.4943
L11.1324 -39.4553
L11.3855 -39.4076
L11.6392 -39.3516
L11.8935 -39.2879
L12.1484 -39.2169
L12.4036 -39.1392
L12.6593 -39.0551
L12.9152 -38.9652
L13.1714 -38.8698
L13.4278 -38.7694
L13.6843 -38.6643
L13.941 -38.555
L14.1976 -38.4418
L14.4543 -38.325
L14.7109 -38.205
L14.9674 -38.082
L15.2238 -37.9563
L15.48 -37.8282
L15.736 -37.6979
L15.9917 -37.5657
L16.2471 -37.4317
L16.5022 -37.2962
L16.7569 -37.1594
L17.0113 -37.0215
L17.2652 -36.8825
L17.5187 -36.7427
L17.7717 -36.6021
L18.0242 -36.461
L18.2762 -36.3194
L18.5277 -36.1774
L18.7786 -36.0352
L19.029 -35.8928
L19.2788 -35.7503
L19.528 -35.6078
L19.7766 -35.4653
L20.0246 -35.323
L20.2721 -35.1808
L20.5189 -35.0389
L20.7651 -34.8972
L21.0108 -34.7559
L21.2558 -34.6149
L21.5003 -34.4743
L21.7442 -34.3341
L21.9875 -34.1943
L22.2302 -34.0549
L22.4724 -33.9161
L22.714 -33.7777
L22.9551 -33.6398
L23.1957 -33.5025
L23.4358 -33.3656
L23.6754 -33.2293
L23.9146 -33.0935
L24.1533 -32.9582
L24.3916 -32.8234
L24.6295 -32.6892
L24.867 -32.5555
L25.1042 -32.4223
L25.341 -32.2896
L25.5775 -32.1574
L25.8138 -32.0257
L26.0498 -31.8945
L26.2856 -31.7637
L26.5211 -31.6334
L26.7565 -31.5036
L26.9918 -31.3742
L27.227 -31.2453
L27.462 -31.1167
L27.6971 -30.9886
L27.9321 -30.8608
L28.1671 -30.7334
L28.4021 -30.6064
L28.6372 -30.4797
L28.8724 -30.3533
L29.1078 -30.2272
L29.3433 -30.1014
L29.8149 -29.9759
L30.0511 -29.8507
L30.2875 -29.7257
L30.5243 -29.6009
L30.7615 -29.4764
L30.999 -29.352
L31.237 -29.2278
L31.4754 -29.1038
L31.7143 -28.9799
L31.9537 -28.8561
L32.1936 -28.7324
L32.4341 -28.6088
L32.6752 -28.4853
L32.917 -28.3618
L33.1594 -28.2384
L33.4025 -28.115
L33.6463 -27.9916
L33.8908 -27.8681
L34.1361 -27.7447
L34.3823 -27.6211
L34.6292 -27.4975
L34.877 -27.3739
L35.1256 -27.2501
L35.3751 -27.1262
L35.6255 -27.0021
L35.8769 -26.8779
L36.1292 -26.7535
L36.3824 -26.6289
L36.6366 -26.5041
L36.8918 -26.379
L37.1479 -26.2537
L37.4051 -26.1282
L37.6632 -26.0023
L37.9223 -25.8761
L38.1825 -25.7497
L38.4436 -25.6228
L38.7056 -25.4956
L38.9687 -25.368
L39.2326 -25.24
L39.4976 -25.1116
L39.7634 -24.9827
L40.03 -24.8533
L40.2975 -24.7234
L40.5658 -24.593
L40.8348 -24.462
L41.1046 -24.3304
L41.3749 -24.1982
L41.6459 -24.0654
L41.9173 -23.9319
L42.1891 -23.7976
L42.4613 -23.6626
L42.7337 -23.5268
L43.0062 -23.3902
L43.2787 -23.2527
L43.5511 -23.1142
L43.8232 -22.9747
L44.095 -22.8342
L44.3661 -22.6925
L44.6366 -22.5497
L44.9061 -22.4056
L45.1745 -22.2602
L45.4416 -22.1134
L45.7072 -21.965
L45.9709 -21.8151
L46.2327 -21.6635
L46.4921 -21.51
L46.749 -21.3547
L47.003 -21.1973
L47.2538 -21.0377
L47.5012 -20.8759
L47.7446 -20.7116
L47.9839 -20.5446
L48.2186 -20.375
L48.4484 -20.2024
L48.6728 -20.0267
L48.8914 -19.8478
L49.1039 -19.6655
L49.3098 -19.4796
L49.5087 -19.2899
L49.7001 -19.0962
L49.8837 -18.8985
L50.0589 -18.6965
L50.2253 -18.49
L50.3826 -18.279
L50.5302 -18.0633
L50.6679 -17.8428
L50.7951 -17.6173
L50.9115 -17.3869
L51.0168 -17.1515
L51.1105 -16.911
L51.1925 -16.6655
L51.2624 -16.415
L51.32 -16.1596
L51.3651 -15.8993
L51.3974 -15.6343
L51.4168 -15.3648
L51.4232 -15.0909
L51.4165 -14.8129
L51.3965 -14.531
L51.3634 -14.2455
L51.3171 -13.9567
L51.2576 -13.6649
L51.1849 -13.3704
L51.0992 -13.0736
L51.0005 -12.7748
L50.8889 -12.4745
L50.7647 -12.173
L50.6279 -11.8706
L50.2111 -11.5678
L49.7778 -11.2958
L49.3402 -11.0516
L48.8987 -10.8149
L48.4532 -10.5859
L48.0039 -10.3647
L47.5509 -10.1513
L47.0945 -9.94571
L46.6346 -9.74809
L46.1715 -9.55846
L45.7053 -9.37689
L45.2362 -9.20343
L44.7642 -9.03812
L44.2896 -8.88104
L43.8125 -8.73221
L43.3329 -8.59169
L42.8512 -8.45952
L42.3673 -8.33574
L41.8815 -8.22038
L41.3939 -8.11349
L40.9047 -8.01509
L40.414 -7.92521
L39.9219 -7.84389
L39.4287 -7.77114
L38.9344 -7.70699
L38.4392 -7.65146
L37.9432 -7.60457
L37.4467 -7.56633
L36.9497 -7.53674
L36.4525 -7.51583
L35.9551 -7.50359
L35.4577 -7.50004
L34.9605 -7.50516
L34.4636 -7.51897
L33.9671 -7.54145
L33.4713 -7.57259
L32.9763 -7.6124
L32.4821 -7.66086
L31.9891 -7.71795
L31.4972 -7.78365
L31.0068 -7.85795
L30.5178 -7.94082
L30.0306 -8.03223
L29.5451 -8.13217
L29.0616 -8.2406
L28.5803 -8.35748
L28.1012 -8.48278
L27.6244 -8.61646
L27.1503 -8.75849
L26.6788 -8.90881
L26.2102 -9.06738
L25.7446 -9.23416
L25.2821 -9.40909
L24.8228 -9.59213
L24.367 -9.7832
L23.9147 -9.98226
L23.4661 -10.1893
L23.0212 -10.4041
L22.5804 -10.6267
L22.1436 -10.8571
L21.7111 -11.0952
L21.2829 -11.3408
L20.8592 -11.5939
L20.4401 -11.8545
L20.0258 -12.1224
L19.6163 -12.3976
L19.2118 -12.68
L18.8124 -12.9695
L18.4183 -13.266
L18.0295 -13.5694
L17.6462 -13.8796
L17.2684 -14.1966
L16.8964 -14.5203
L16.5302 -14.8505
L16.1699 -15.1871
L15.8157 -15.5301
L15.4676 -15.8793
L15.1258 -16.2346
L14.7903 -16.5959
L14.4613 -16.9632
L14.1389 -17.3363
L13.8231 -17.715
L13.5141 -18.0993
L13.2119 -18.4891
L12.9166 -18.8842
L12.6284 -19.2845
L12.3473 -19.6899
L12.0734 -20.1003
L11.8068 -20.5155
L11.5476 -20.9354
L11.2958 -21.3599
L11.0516 -21.7889
L10.8149 -22.2222
L10.5859 -22.6598
L10.3647 -23.1013
L10.1513 -23.5468
L9.94571 -23.9961
L9.74809 -24.4491
L9.55846 -24.9055
L9.37689 -25.3654
L9.20343 -25.8285
L9.03812 -26.2947
L8.88104 -26.7638
L8.73221 -27.2358
L8.59169 -27.7104
L8.45952 -28.1875
L8.33574 -28.6671
L8.22038 -29.1488
L8.11349 -29.6327
L8.01509 -30.1185
L7.92521 -30.6061
L7.84389 -31.0953
L7.77114 -31.586
L7.70699 -32.0781
L7.65146 -32.5713
L7.60457 -33.0656
L7.56633 -33.5608
L7.53674 -34.0568
L7.51583 -34.5533
L7.50359 -35.0503
L7.50004 -35.5475
L7.50516 -36.0449
L7.51897 -36.5423
L7.54145 -37.0395
L7.57259 -37.5364
z
" id="C0_1_ffb38ba687"/>
     <path d="
M21.6843 -60.4563
L22.0241 -60.44
L22.3669 -60.4235
L22.7123 -60.4066
L23.0599 -60.389
L23.4095 -60.3704
L23.7607 -60.3506
L24.1132 -60.3295
L24.4668 -60.3069
L24.8211 -60.2826
L25.176 -60.2564
L25.5312 -60.2284
L25.8865 -60.1983
L26.2416 -60.1661
L26.5964 -60.1316
L26.9507 -60.0949
L27.3042 -60.0559
L27.657 -60.0145
L28.0087 -59.9707
L28.3593 -59.9244
L28.7086 -59.8757
L29.0565 -59.8246
L29.403 -59.7709
L29.7479 -59.7148
L30.0912 -59.6563
L30.4327 -59.5953
L30.7725 -59.5319
L31.1104 -59.4661
L31.4464 -59.3979
L31.7804 -59.3273
L32.1124 -59.2544
L32.4425 -59.1791
L32.7704 -59.1016
L33.0963 -59.0218
L33.4202 -58.9398
L33.7419 -58.8556
L34.0616 -58.7692
L34.3791 -58.6806
L34.6945 -58.5899
L35.0079 -58.4972
L35.3191 -58.4024
L35.6283 -58.3055
L35.9354 -58.2067
L36.2405 -58.1058
L36.5436 -58.003
L36.8446 -57.8983
L37.1437 -57.7916
L37.4408 -57.6831
L37.736 -57.5726
L38.0293 -57.4603
L38.3207 -57.3462
L38.6103 -57.2302
L38.8981 -57.1124
L39.1841 -56.9928
L39.4684 -56.8714
L39.7509 -56.7482
L40.0318 -56.6233
L40.3111 -56.4965
L40.5887 -56.368
L40.8648 -56.2377
L41.1393 -56.1057
L41.4124 -55.9718
L41.684 -55.8362
L41.9542 -55.6989
L42.2229 -55.5597
L42.4904 -55.4188
L42.7565 -55.276
L43.0213 -55.1315
L43.2849 -54.9852
L43.5473 -54.837
L43.8085 -54.687
L44.0685 -54.5352
L44.3275 -54.3815
L44.5853 -54.2259
L44.8421 -54.0685
L45.0979 -53.9091
L45.3527 -53.7478
L45.6066 -53.5845
L45.8595 -53.4193
L46.1115 -53.252
L46.3627 -53.0828
L46.613 -52.9115
L46.8625 -52.7381
L47.1112 -52.5627
L47.3591 -52.3851
L47.6063 -52.2054
L47.8527 -52.0235
L48.0985 -51.8394
L48.3435 -51.653
L48.5879 -51.4644
L48.8316 -51.2736
L49.0747 -51.0803
L49.3172 -50.8848
L49.559 -50.6868
L49.8003 -50.4865
L50.0409 -50.2837
L50.281 -50.0784
L50.5205 -49.8706
L50.7594 -49.6603
L50.9978 -49.4475
L51.2356 -49.232
L51.4728 -49.0139
L51.7095 -48.7932
L51.9456 -48.5698
L52.1811 -48.3438
L52.4161 -48.115
L52.6504 -47.8835
L52.8842 -47.6492
L53.1174 -47.4122
L53.3499 -47.1724
L53.5818 -46.9299
L53.813 -46.6845
L54.0435 -46.4364
L54.2734 -46.1855
L54.5025 -45.9318
L54.7309 -45.6753
L54.9585 -45.4161
L55.1854 -45.1541
L55.4114 -44.8895
L55.6365 -44.6222
L55.8608 -44.3522
L56.0842 -44.0797
L56.3066 -43.8047
L56.528 -43.5273
L56.7484 -43.2475
L56.9678 -42.9654
L57.1862 -42.6811
L57.4034 -42.3948
L57.6195 -42.1065
L57.8345 -41.8165
L58.0483 -41.5247
L58.2608 -41.2315
L58.4722 -40.9369
L58.6824 -40.6412
L58.8913 -40.3446
L59.099 -40.0473
L59.3054 -39.7496
L59.5106 -39.4517
L59.7146 -39.1538
L59.9174 -38.8563
L60.119 -38.5595
L60.3195 -38.2638
L60.5188 -37.9694
L60.7172 -37.6767
L60.9146 -37.3862
L61.111 -37.0982
L61.3066 -36.8131
L61.5015 -36.5314
L61.6957 -36.2534
L61.8894 -35.9797
L62.0826 -35.7107
L62.2755 -35.4469
L62.4682 -35.1887
L62.6608 -34.9366
L62.8534 -34.691
L63.0461 -34.4525
L63.2391 -34.2214
L63.4325 -33.9982
L63.6263 -33.7833
L63.8207 -33.5771
L64.0157 -33.38
L64.4048 -33.1924
L64.4411 -33.673
L64.4687 -34.1691
L64.4877 -34.6657
L64.498 -35.1628
L64.4996 -35.6601
L64.4925 -36.1575
L64.4767 -36.6548
L64.4523 -37.152
L64.4192 -37.6488
L64.3774 -38.1451
L64.327 -38.6408
L64.2679 -39.1356
L64.2003 -39.6295
L64.1241 -40.1223
L64.0392 -40.6138
L63.9459 -41.104
L63.844 -41.5925
L63.7337 -42.0794
L63.6149 -42.5644
L63.4877 -43.0475
L63.3521 -43.5283
L63.2082 -44.0069
L63.056 -44.4831
L62.8956 -44.9566
L62.727 -45.4274
L62.5502 -45.8954
L62.3653 -46.3603
L62.1725 -46.8221
L61.9716 -47.2806
L61.7628 -47.7357
L61.5462 -48.1872
L61.3218 -48.6349
L61.0897 -49.0788
L60.8499 -49.5188
L60.6026 -49.9546
L60.3478 -50.3862
L60.0856 -50.8133
L59.816 -51.236
L59.5392 -51.654
L59.2552 -52.0673
L58.9641 -52.4757
L58.666 -52.879
L58.361 -53.2772
L58.0492 -53.6702
L57.7307 -54.0577
L57.4056 -54.4398
L57.0739 -54.8162
L56.7359 -55.187
L56.3915 -55.5518
L56.0409 -55.9107
L55.6842 -56.2636
L55.3215 -56.6103
L54.9529 -56.9507
L54.5786 -57.2847
L54.1985 -57.6122
L53.813 -57.9332
L53.422 -58.2474
L53.0257 -58.5549
L52.6242 -58.8555
L52.2177 -59.1492
L51.8062 -59.4358
L51.3899 -59.7153
L50.9689 -59.9875
L50.5434 -60.2524
L50.1134 -60.51
L49.6791 -60.7601
L49.2407 -61.0026
L48.7982 -61.2375
L48.3519 -61.4648
L47.9017 -61.6843
L47.448 -61.8959
L46.9907 -62.0997
L46.5301 -62.2955
L46.0663 -62.4833
L45.5995 -62.6631
L45.1297 -62.8347
L44.6571 -62.9981
L44.1819 -63.1534
L43.7042 -63.3003
L43.2241 -63.4389
L42.7419 -63.5692
L42.2576 -63.6911
L41.7714 -63.8045
L41.2834 -63.9095
L40.7938 -64.006
L40.3028 -64.0939
L39.8104 -64.1733
L39.3169 -64.2441
L38.8224 -64.3063
L38.327 -64.3599
L37.8309 -64.4048
L37.3343 -64.4411
L36.8372 -64.4687
L36.3399 -64.4877
L35.8425 -64.498
L35.3452 -64.4996
L34.848 -64.4925
L34.3512 -64.4767
L33.8549 -64.4523
L33.3592 -64.4192
L32.8644 -64.3774
L32.3705 -64.327
L31.8777 -64.2679
L31.3862 -64.2003
L30.896 -64.1241
L30.4075 -64.0392
L29.9206 -63.9459
L29.4356 -63.844
L28.9525 -63.7337
L28.4717 -63.6149
L27.9931 -63.4877
L27.5169 -63.3521
L27.0434 -63.2082
L26.5726 -63.056
L26.1046 -62.8956
L25.6397 -62.727
L25.1779 -62.5502
L24.7194 -62.3653
L24.2643 -62.1725
L23.8128 -61.9716
L23.3651 -61.7628
L22.9212 -61.5462
L22.4812 -61.3218
L22.0454 -61.0897
z
" id="C0_2_f465089b4f"/>
    </defs>
    <g clip-path="url(#p1bffca34e9)">
     <use style="fill:#ff0000;stroke:#000000;stroke-width:2.0;" x="0.0" xlink:href="#C0_0_a811fe30f3" y="72.0"/>
    </g>
    <g clip-path="url(#p1bffca34e9)">
     <use style="fill:#ffffff;stroke:#000000;stroke-width:2.0;" x="0.0" xlink:href="#C0_1_ffb38ba687" y="72.0"/>
    </g>
    <g clip-path="url(#p1bffca34e9)">
     <use style="fill:#ffffff;stroke:#000000;stroke-width:2.0;" x="0.0" xlink:href="#C0_2_f465089b4f" y="72.0"/>
    </g>
   </g>
  </g>
 </g>
 <defs>
  <clipPath id="p1bffca34e9">
   <rect height="72.0" width="72.0" x="0.0" y="0.0"/>
  </clipPath>
 </defs>
</svg>
