<?xml version="1.0" encoding="utf-8" standalone="no"?>
<!DOCTYPE svg PUBLIC "-//W3C//DTD SVG 1.1//EN"
  "http://www.w3.org/Graphics/SVG/1.1/DTD/svg11.dtd">
<!-- Created with matplotlib (http://matplotlib.org/) -->
<svg height="72pt" version="1.1" viewBox="0 0 72 72" width="72pt" xmlns="http://www.w3.org/2000/svg" xmlns:xlink="http://www.w3.org/1999/xlink">
 <defs>
  <style type="text/css">
*{stroke-linecap:butt;stroke-linejoin:round;}
  </style>
 </defs>
 <g id="figure_1">
  <g id="patch_1">
   <path d="
M0 72
L72 72
L72 0
L0 0
z
" style="fill:none;"/>
  </g>
  <g id="axes_1">
   <g id="PatchCollection_1">
    <defs>
     <path d="
M36 -7.5
C43.5583 -7.5 50.808 -10.5029 56.1525 -15.8475
C61.4971 -21.192 64.5 -28.4417 64.5 -36
C64.5 -43.5583 61.4971 -50.808 56.1525 -56.1525
C50.808 -61.4971 43.5583 -64.5 36 -64.5
C28.4417 -64.5 21.192 -61.4971 15.8475 -56.1525
C10.5029 -50.808 7.5 -43.5583 7.5 -36
C7.5 -28.4417 10.5029 -21.192 15.8475 -15.8475
C21.192 -10.5029 28.4417 -7.5 36 -7.5
z
" id="C0_0_a811fe30f3"/>
     <path d="
M7.94466 -40.6065
L8.12205 -40.569
L8.30018 -40.5318
L8.47906 -40.4948
L8.65874 -40.4579
L8.83926 -40.4213
L9.02063 -40.3848
L9.20292 -40.3485
L9.38614 -40.3122
L9.75559 -40.2762
L9.94189 -40.2402
L10.1293 -40.2043
L10.3179 -40.1685
L10.5077 -40.1327
L10.6987 -40.097
L10.891 -40.0614
L11.0847 -40.0258
L11.2797 -39.9902
L11.4763 -39.9547
L11.6743 -39.9191
L11.8739 -39.8835
L12.0751 -39.8479
L12.2779 -39.8123
L12.4825 -39.7766
L12.6889 -39.7409
L12.8971 -39.7051
L13.1073 -39.6692
L13.3194 -39.6333
L13.5336 -39.5973
L13.7498 -39.5612
L13.9682 -39.5249
L14.1889 -39.4886
L14.4118 -39.4522
L14.6372 -39.4156
L14.8649 -39.3789
L15.0952 -39.342
L15.3281 -39.305
L15.5636 -39.2678
L15.8019 -39.2305
L16.043 -39.193
L16.2869 -39.1554
L16.5339 -39.1175
L16.7838 -39.0795
L17.0369 -39.0413
L17.2931 -39.0029
L17.5527 -38.9643
L17.8155 -38.9256
L18.0818 -38.8866
L18.3516 -38.8475
L18.625 -38.8082
L18.902 -38.7687
L19.1827 -38.729
L19.4672 -38.6892
L19.7556 -38.6492
L20.0479 -38.6091
L20.3442 -38.5688
L20.6445 -38.5284
L20.9489 -38.4879
L21.2575 -38.4473
L21.5703 -38.4067
L21.8873 -38.366
L22.2086 -38.3253
L22.5342 -38.2847
L22.8641 -38.2441
L23.1983 -38.2037
L23.5369 -38.1634
L23.8798 -38.1234
L24.227 -38.0836
L24.5785 -38.0443
L24.9342 -38.0054
L25.2941 -37.967
L25.658 -37.9293
L26.0258 -37.8924
L26.3976 -37.8564
L26.773 -37.8214
L27.1519 -37.7877
L27.5341 -37.7554
L27.9195 -37.7248
L28.3076 -37.696
L28.6983 -37.6694
L29.0911 -37.6453
L29.4857 -37.624
L29.8816 -37.6059
L30.2784 -37.5915
L30.6754 -37.5813
L31.072 -37.5759
L31.4676 -37.5759
L31.8614 -37.5822
L32.2524 -37.5954
L32.6398 -37.6166
L33.0225 -37.6469
L33.3993 -37.6873
L33.7691 -37.7391
L34.1307 -37.8037
L34.4827 -37.8824
L34.8239 -37.9767
L35.1532 -38.0879
L35.4694 -38.2172
L35.7717 -38.3659
L36.0594 -38.5346
L36.3322 -38.7238
L36.59 -38.9336
L36.8329 -39.1636
L37.0615 -39.4132
L37.2762 -39.6812
L37.4779 -39.9664
L37.6674 -40.2671
L37.8456 -40.5819
L38.0134 -40.9091
L38.1717 -41.2469
L38.3212 -41.5939
L38.4626 -41.9486
L38.5966 -42.3097
L38.7239 -42.6758
L38.8449 -43.0459
L38.9602 -43.4189
L39.0702 -43.794
L39.1752 -44.1704
L39.2755 -44.5472
L39.3716 -44.9239
L39.4636 -45.2999
L39.5517 -45.6748
L39.6363 -46.048
L39.7174 -46.4191
L39.7952 -46.7879
L39.87 -47.1541
L39.9418 -47.5173
L40.0108 -47.8773
L40.0771 -48.2341
L40.1408 -48.5873
L40.202 -48.9368
L40.2609 -49.2827
L40.3174 -49.6246
L40.3717 -49.9626
L40.4239 -50.2967
L40.474 -50.6267
L40.5221 -50.9526
L40.5683 -51.2745
L40.6126 -51.5923
L40.6551 -51.906
L40.6959 -52.2156
L40.735 -52.5213
L40.7724 -52.8229
L40.8083 -53.1205
L40.8426 -53.4142
L40.8754 -53.704
L40.9068 -53.99
L40.9367 -54.2722
L40.9653 -54.5507
L40.9925 -54.8256
L41.0184 -55.0968
L41.0431 -55.3646
L41.0665 -55.6289
L41.0888 -55.8898
L41.1098 -56.1474
L41.1297 -56.4018
L41.1485 -56.653
L41.1661 -56.9011
L41.1827 -57.1462
L41.1983 -57.3884
L41.2128 -57.6277
L41.2263 -57.8642
L41.2388 -58.098
L41.2503 -58.3291
L41.2609 -58.5577
L41.2705 -58.7837
L41.2792 -59.0073
L41.2869 -59.2285
L41.2938 -59.4475
L41.2997 -59.6642
L41.3047 -59.8787
L41.3089 -60.0912
L41.3121 -60.3016
L41.3145 -60.51
L41.3161 -60.7165
L41.3167 -60.9212
L41.3165 -61.1241
L41.3154 -61.3253
L41.3134 -61.5248
L41.3106 -61.7227
L41.3069 -61.919
L41.3023 -62.1139
L41.2969 -62.3073
L41.2905 -62.4993
L41.2833 -62.6899
L41.2751 -62.8793
L41.2661 -63.0674
L41.2561 -63.2544
L41.2451 -63.4401
L41.2332 -63.6248
L41.2203 -63.8085
L40.7354 -63.9911
L40.2442 -64.1038
L39.7517 -64.1822
L39.2581 -64.252
L38.7634 -64.3132
L38.268 -64.3657
L37.7718 -64.4096
L37.2751 -64.4449
L36.778 -64.4715
L36.2807 -64.4894
L35.7833 -64.4986
L35.2859 -64.4992
L34.7888 -64.4911
L34.292 -64.4743
L33.7958 -64.4488
L33.3002 -64.4146
L32.8055 -64.3718
L32.3117 -64.3204
L31.8191 -64.2603
L31.3277 -64.1917
L30.8377 -64.1144
L30.3494 -64.0286
L29.8627 -63.9342
L29.3779 -63.8313
L28.8951 -63.72
L28.4145 -63.6002
L27.9362 -63.472
L27.4604 -63.3354
L26.9872 -63.1905
L26.5167 -63.0374
L26.0491 -62.8759
L25.5845 -62.7063
L25.1231 -62.5286
L24.665 -62.3428
L24.2104 -62.1489
L23.7593 -61.9471
L23.312 -61.7374
L22.8685 -61.5199
L22.4291 -61.2946
L21.9938 -61.0615
L21.5627 -60.8209
L21.1361 -60.5726
L20.7139 -60.3169
L20.2965 -60.0538
L19.8838 -59.7834
L19.476 -59.5057
L19.0733 -59.2209
L18.6757 -58.9289
L18.2834 -58.63
L17.8965 -58.3242
L17.5151 -58.0116
L17.1393 -57.6923
L16.7693 -57.3664
L16.4051 -57.034
L16.0469 -56.6952
L15.6948 -56.35
L15.3489 -55.9987
L15.0092 -55.6413
L14.676 -55.2779
L14.3492 -54.9086
L14.0291 -54.5336
L13.7156 -54.1529
L13.4089 -53.7667
L13.1091 -53.3751
L12.8163 -52.9781
L12.5305 -52.5761
L12.2519 -52.1689
L11.9805 -51.7569
L11.7165 -51.34
L11.4598 -50.9185
L11.2106 -50.4924
L10.969 -50.0619
L10.735 -49.6271
L10.5087 -49.1882
L10.2901 -48.7453
L10.0794 -48.2984
L9.87656 -47.8479
L9.68169 -47.3937
L9.49484 -46.936
L9.31606 -46.475
L9.14541 -46.0109
L8.98294 -45.5436
L8.8287 -45.0735
L8.68274 -44.6006
L8.5451 -44.1251
L8.41582 -43.6471
L8.29494 -43.1668
L8.1825 -42.6843
L8.07854 -42.1998
L7.98308 -41.7133
z
" id="C0_1_fcc3524a97"/>
     <path d="
M30.8481 -8.12265
L30.9261 -8.28931
L31.004 -8.45729
L31.0818 -8.62664
L31.1597 -8.79741
L31.2375 -8.96963
L31.3153 -9.14334
L31.3932 -9.31861
L31.4711 -9.49546
L31.5491 -9.67396
L31.6272 -9.85416
L31.7055 -10.0361
L31.7839 -10.2198
L31.8626 -10.4054
L31.9414 -10.5929
L32.0204 -10.7824
L32.0997 -10.9738
L32.1793 -11.1674
L32.2591 -11.3631
L32.3393 -11.561
L32.4199 -11.7612
L32.5008 -11.9637
L32.5821 -12.1686
L32.6638 -12.376
L32.7459 -12.5859
L32.8286 -12.7984
L32.9117 -13.0135
L32.9953 -13.2314
L33.0794 -13.4522
L33.1642 -13.6758
L33.2494 -13.9024
L33.3354 -14.132
L33.4219 -14.3647
L33.5091 -14.6005
L33.597 -14.8397
L33.6856 -15.0821
L33.7749 -15.328
L33.8649 -15.5773
L33.9558 -15.8302
L34.0475 -16.0867
L34.14 -16.3469
L34.2333 -16.6109
L34.3276 -16.8786
L34.4228 -17.1503
L34.5189 -17.4259
L34.6159 -17.7055
L34.714 -17.9891
L34.8131 -18.2769
L34.9132 -18.5688
L35.0145 -18.8649
L35.1168 -19.1652
L35.2203 -19.4697
L35.325 -19.7785
L35.4309 -20.0915
L35.538 -20.4087
L35.6464 -20.7302
L35.7562 -21.0559
L35.8674 -21.3857
L35.9799 -21.7196
L36.094 -22.0574
L36.2096 -22.3992
L36.3268 -22.7446
L36.4457 -23.0937
L36.5664 -23.4463
L36.689 -23.802
L36.8135 -24.1607
L36.9401 -24.522
L37.069 -24.8857
L37.2003 -25.2514
L37.3342 -25.6186
L37.4709 -25.9868
L37.6106 -26.3556
L37.7537 -26.7242
L37.9005 -27.092
L38.0514 -27.4581
L38.2068 -27.8217
L38.3672 -28.1818
L38.5332 -28.5372
L38.7054 -28.8867
L38.8846 -29.229
L39.0716 -29.5626
L39.2671 -29.8859
L39.4722 -30.1973
L39.6876 -30.4952
L39.9143 -30.778
L40.1531 -31.0441
L40.4047 -31.2922
L40.6695 -31.5213
L40.9479 -31.7306
L41.2398 -31.9198
L41.5449 -32.0889
L41.8626 -32.2385
L42.1923 -32.3692
L42.5328 -32.4822
L42.8831 -32.5787
L43.242 -32.6601
L43.6082 -32.7278
L43.9807 -32.7831
L44.3581 -32.8275
L44.7395 -32.862
L45.1239 -32.8879
L45.5103 -32.9063
L45.8979 -32.918
L46.286 -32.9238
L46.6738 -32.9245
L47.0608 -32.9208
L47.4464 -32.9133
L47.8302 -32.9023
L48.2117 -32.8884
L48.5906 -32.872
L48.9666 -32.8534
L49.3393 -32.8329
L49.7085 -32.8108
L50.074 -32.7873
L50.4357 -32.7626
L50.7933 -32.7369
L51.1468 -32.7104
L51.496 -32.6831
L51.8408 -32.6553
L52.1813 -32.627
L52.5172 -32.5983
L52.8486 -32.5694
L53.1756 -32.5402
L53.498 -32.5109
L53.8158 -32.4815
L54.1291 -32.4521
L54.438 -32.4227
L54.7424 -32.3934
L55.0423 -32.3641
L55.3379 -32.3349
L55.6291 -32.3059
L55.9161 -32.2771
L56.1988 -32.2484
L56.4774 -32.22
L56.7519 -32.1917
L57.0224 -32.1637
L57.2889 -32.1359
L57.5516 -32.1083
L57.8105 -32.081
L58.0657 -32.054
L58.3172 -32.0272
L58.5651 -32.0006
L58.8096 -31.9743
L59.0507 -31.9483
L59.2885 -31.9225
L59.523 -31.897
L59.7543 -31.8718
L59.9826 -31.8468
L60.2078 -31.822
L60.4301 -31.7975
L60.6496 -31.7732
L60.8663 -31.7492
L61.0803 -31.7254
L61.2916 -31.7018
L61.5004 -31.6784
L61.7066 -31.6552
L61.9105 -31.6323
L62.112 -31.6096
L62.3112 -31.587
L62.5082 -31.5647
L62.703 -31.5425
L62.8958 -31.5205
L63.0865 -31.4987
L63.2752 -31.4771
L63.4621 -31.4556
L63.647 -31.4343
L63.8302 -31.4131
L64.037 -31.3921
L63.9435 -30.8838
L63.8414 -30.3953
L63.7308 -29.9085
L63.6118 -29.4235
L63.4844 -28.9405
L63.3487 -28.4597
L63.2045 -27.9812
L63.0521 -27.5051
L62.8915 -27.0316
L62.7227 -26.5609
L62.5457 -26.093
L62.3606 -25.6281
L62.1676 -25.1664
L61.9665 -24.708
L61.7575 -24.253
L61.5407 -23.8016
L61.3161 -23.354
L61.0838 -22.9102
L60.8439 -22.4703
L60.5964 -22.0346
L60.3413 -21.6031
L60.0789 -21.1761
L59.8092 -20.7535
L59.5322 -20.3356
L59.248 -19.9225
L58.9567 -19.5142
L58.6585 -19.111
L58.3533 -18.7129
L58.0414 -18.3201
L57.7227 -17.9327
L57.3974 -17.5508
L57.0656 -17.1745
L56.7274 -16.8039
L56.3828 -16.4392
L56.0321 -16.0804
L55.6752 -15.7277
L55.3124 -15.3812
L54.9437 -15.0409
L54.5692 -14.7071
L54.189 -14.3797
L53.8033 -14.0589
L53.4122 -13.7448
L53.0158 -13.4375
L52.6142 -13.1371
L52.2075 -12.8436
L51.7959 -12.5572
L51.3795 -12.2779
L50.9584 -12.0058
L50.5327 -11.741
L50.1026 -11.4837
L49.6683 -11.2338
L49.2297 -10.9914
L48.7872 -10.7567
L48.3407 -10.5296
L47.8905 -10.3104
L47.4366 -10.0989
L46.9793 -9.89533
L46.5186 -9.69971
L46.0547 -9.5121
L45.5878 -9.33256
L45.1179 -9.16114
L44.6453 -8.9979
L44.17 -8.84288
L43.6922 -8.69614
L43.2121 -8.55771
L42.7298 -8.42764
L42.2455 -8.30597
L41.7592 -8.19274
L41.2712 -8.08797
L40.7816 -7.99171
L40.2905 -7.90398
L39.7982 -7.82481
L39.3046 -7.75422
L38.8101 -7.69224
L38.3147 -7.63887
L37.8186 -7.59415
L37.3219 -7.55808
L36.8249 -7.53067
L36.3276 -7.51194
L35.8301 -7.50188
L35.3328 -7.50051
L34.8356 -7.50781
L34.3388 -7.5238
L33.8425 -7.54845
L33.3469 -7.58178
L32.8521 -7.62376
L32.3582 -7.67438
L31.8654 -7.73364
L31.3739 -7.8015
z
" id="C0_2_180fe87bf4"/>
    </defs>
    <g clip-path="url(#p1bffca34e9)">
     <use style="fill:#ffffff;stroke:#000000;stroke-width:2.0;" x="0.0" xlink:href="#C0_0_a811fe30f3" y="72.0"/>
    </g>
    <g clip-path="url(#p1bffca34e9)">
     <use style="fill:#ff0000;stroke:#000000;stroke-width:2.0;" x="0.0" xlink:href="#C0_1_fcc3524a97" y="72.0"/>
    </g>
    <g clip-path="url(#p1bffca34e9)">
     <use style="fill:#ff0000;stroke:#000000;stroke-width:2.0;" x="0.0" xlink:href="#C0_2_180fe87bf4" y="72.0"/>
    </g>
   </g>
  </g>
 </g>
 <defs>
  <clipPath id="p1bffca34e9">
   <rect height="72.0" width="72.0" x="0.0" y="0.0"/>
  </clipPath>
 </defs>
</svg>
