<?xml version="1.0" encoding="utf-8" standalone="no"?>
<!DOCTYPE svg PUBLIC "-//W3C//DTD SVG 1.1//EN"
  "http://www.w3.org/Graphics/SVG/1.1/DTD/svg11.dtd">
<!-- Created with matplotlib (http://matplotlib.org/) -->
<svg height="72pt" version="1.1" viewBox="0 0 72 72" width="72pt" xmlns="http://www.w3.org/2000/svg" xmlns:xlink="http://www.w3.org/1999/xlink">
 <defs>
  <style type="text/css">
*{stroke-linecap:butt;stroke-linejoin:round;}
  </style>
 </defs>
 <g id="figure_1">
  <g id="patch_1">
   <path d="
M0 72
L72 72
L72 0
L0 0
z
" style="fill:none;"/>
  </g>
  <g id="axes_1">
   <g id="PatchCollection_1">
    <defs>
     <path d="
M36 -7.5
C43.5583 -7.5 50.808 -10.5029 56.1525 -15.8475
C61.4971 -21.192 64.5 -28.4417 64.5 -36
C64.5 -43.5583 61.4971 -50.808 56.1525 -56.1525
C50.808 -61.4971 43.5583 -64.5 36 -64.5
C28.4417 -64.5 21.192 -61.4971 15.8475 -56.1525
C10.5029 -50.808 7.5 -43.5583 7.5 -36
C7.5 -28.4417 10.5029 -21.192 15.8475 -15.8475
C21.192 -10.5029 28.4417 -7.5 36 -7.5
z
" id="C0_0_a811fe30f3"/>
     <path d="
M55.285 -15.2078
L55.1333 -15.3337
L54.9817 -15.4598
L54.8301 -15.586
L54.6785 -15.7124
L54.527 -15.8389
L54.3755 -15.9657
L54.224 -16.0927
L54.0725 -16.2199
L53.9209 -16.3474
L53.7692 -16.4752
L53.6175 -16.6032
L53.4656 -16.7316
L53.3136 -16.8603
L53.1614 -16.9893
L53.009 -17.1188
L52.8564 -17.2486
L52.7035 -17.3789
L52.5504 -17.5096
L52.3969 -17.6408
L52.2431 -17.7725
L52.0889 -17.9047
L51.9343 -18.0375
L51.7792 -18.1709
L51.6237 -18.3049
L51.3111 -18.4395
L51.1539 -18.5748
L50.9961 -18.7108
L50.8377 -18.8476
L50.6785 -18.9851
L50.5186 -19.1234
L50.358 -19.2625
L50.1965 -19.4025
L50.0342 -19.5434
L49.8709 -19.6853
L49.7068 -19.8281
L49.5416 -19.9719
L49.3754 -20.1168
L49.2082 -20.2627
L49.0398 -20.4098
L48.8703 -20.5581
L48.6996 -20.7075
L48.5276 -20.8582
L48.3543 -21.0102
L48.1797 -21.1635
L48.0037 -21.3181
L47.8262 -21.4742
L47.6472 -21.6318
L47.4667 -21.7908
L47.2846 -21.9513
L47.1008 -22.1135
L46.9154 -22.2773
L46.7281 -22.4427
L46.5391 -22.6099
L46.3482 -22.7789
L46.1554 -22.9496
L45.9606 -23.1222
L45.7637 -23.2968
L45.5648 -23.4732
L45.3638 -23.6517
L45.1605 -23.8322
L44.955 -24.0147
L44.7472 -24.1994
L44.5371 -24.3863
L44.3245 -24.5754
L44.1095 -24.7667
L43.8919 -24.9602
L43.6718 -25.1561
L43.4491 -25.3544
L43.2236 -25.555
L42.9955 -25.758
L42.7646 -25.9635
L42.5308 -26.1713
L42.2942 -26.3817
L42.0547 -26.5945
L41.8123 -26.8098
L41.5669 -27.0276
L41.3184 -27.2478
L41.067 -27.4705
L40.8124 -27.6955
L40.5548 -27.923
L40.294 -28.1528
L40.0302 -28.3849
L39.7632 -28.6192
L39.493 -28.8555
L39.2198 -29.0939
L38.9434 -29.3342
L38.6639 -29.5763
L38.3812 -29.8199
L38.0955 -30.0649
L37.8068 -30.3111
L37.5151 -30.5583
L37.2204 -30.8061
L36.9227 -31.0542
L36.6223 -31.3023
L36.319 -31.55
L36.013 -31.7968
L35.7044 -32.0422
L35.3932 -32.2857
L35.0795 -32.5265
L34.7634 -32.764
L34.4451 -32.9974
L34.1245 -33.2258
L33.8019 -33.4481
L33.4772 -33.6634
L33.1507 -33.8703
L32.8224 -34.0677
L32.4924 -34.254
L32.1609 -34.4279
L31.828 -34.5878
L31.4937 -34.732
L31.1584 -34.8591
L30.8221 -34.9675
L30.4849 -35.0557
L30.1472 -35.1227
L29.8092 -35.1675
L29.4711 -35.1894
L29.1331 -35.1882
L28.7957 -35.1639
L28.4591 -35.117
L28.1236 -35.0483
L27.7897 -34.9587
L27.4575 -34.8495
L27.1276 -34.7221
L26.8001 -34.578
L26.4754 -34.4185
L26.1538 -34.2453
L25.8356 -34.0596
L25.5209 -33.8629
L25.21 -33.6564
L24.9031 -33.4413
L24.6003 -33.2187
L24.3019 -32.9895
L24.008 -32.7546
L23.7187 -32.5148
L23.434 -32.2709
L23.1542 -32.0236
L22.8792 -31.7733
L22.6091 -31.5207
L22.344 -31.2662
L22.0839 -31.0103
L21.8288 -30.7533
L21.5786 -30.4957
L21.3335 -30.2376
L21.0934 -29.9794
L20.8583 -29.7213
L20.6281 -29.4636
L20.4028 -29.2064
L20.1825 -28.9499
L19.9669 -28.6943
L19.7561 -28.4397
L19.55 -28.1862
L19.3486 -27.934
L19.1518 -27.683
L18.9595 -27.4335
L18.7716 -27.1854
L18.5882 -26.9388
L18.4091 -26.6937
L18.2342 -26.4502
L18.0634 -26.2083
L17.8968 -25.968
L17.7342 -25.7294
L17.5755 -25.4924
L17.4208 -25.2571
L17.2698 -25.0233
L17.1225 -24.7912
L16.9789 -24.5607
L16.8388 -24.3318
L16.7023 -24.1045
L16.5692 -23.8787
L16.4395 -23.6544
L16.3131 -23.4316
L16.1899 -23.2102
L16.07 -22.9902
L15.9531 -22.7716
L15.8393 -22.5544
L15.7286 -22.3384
L15.6207 -22.1237
L15.5158 -21.9102
L15.4138 -21.6979
L15.3146 -21.4867
L15.2181 -21.2765
L15.1243 -21.0674
L15.0333 -20.8593
L14.9448 -20.652
L14.859 -20.4457
L14.7758 -20.2402
L14.6951 -20.0354
L14.6169 -19.8314
L14.5412 -19.6281
L14.468 -19.4253
L14.3972 -19.2232
L14.3289 -19.0215
L14.263 -18.8203
L14.1995 -18.6196
L14.1383 -18.4191
L14.0796 -18.219
L14.2837 -18.0191
L14.6091 -17.5432
L14.9411 -17.1671
L15.2794 -16.7966
L15.6241 -16.432
L15.9749 -16.0733
L16.3319 -15.7208
L16.6949 -15.3744
L17.0637 -15.0343
L17.4383 -14.7005
L17.8186 -14.3733
L18.2044 -14.0526
L18.5956 -13.7387
L18.9921 -13.4315
L19.3939 -13.1312
L19.8006 -12.8378
L20.2123 -12.5515
L20.6288 -12.2724
L21.05 -12.0005
L21.4758 -11.7359
L21.9059 -11.4787
L22.3404 -11.2289
L22.779 -10.9867
L23.2217 -10.7521
L23.6682 -10.5252
L24.1185 -10.3061
L24.5724 -10.0948
L25.0298 -9.89137
L25.4906 -9.69591
L25.9545 -9.50846
L26.4215 -9.32908
L26.8914 -9.15782
L27.3641 -8.99475
L27.8394 -8.83989
L28.3173 -8.69331
L28.7974 -8.55505
L29.2797 -8.42515
L29.7641 -8.30364
L30.2504 -8.19058
L30.7385 -8.08598
L31.2281 -7.98989
L31.7192 -7.90233
L32.2116 -7.82333
L32.7052 -7.75291
L33.1997 -7.69109
L33.6951 -7.6379
L34.1913 -7.59335
L34.6879 -7.55745
L35.185 -7.53022
L35.6823 -7.51166
L36.1797 -7.50177
L36.6771 -7.50057
L37.1742 -7.50804
L37.671 -7.5242
L38.1673 -7.54903
L38.6629 -7.58253
L39.1577 -7.62468
L39.6516 -7.67548
L40.1443 -7.7349
L40.6358 -7.80293
L41.1259 -7.87956
L41.6144 -7.96475
L42.1012 -8.05847
L42.5861 -8.16071
L43.069 -8.27143
L43.5498 -8.3906
L44.0283 -8.51818
L44.5043 -8.65412
L44.9777 -8.7984
L45.4484 -8.95096
L45.9163 -9.11177
L46.3811 -9.28076
L46.8427 -9.45789
L47.301 -9.64311
L47.7559 -9.83636
L48.2073 -10.0376
L48.6549 -10.2467
L49.0986 -10.4637
L49.5384 -10.6884
L49.974 -10.9209
L50.4054 -11.161
L50.8323 -11.4086
L51.2548 -11.6638
L51.6726 -11.9263
L52.0857 -12.1962
L52.4938 -12.4734
L52.8969 -12.7577
L53.2949 -13.0491
L53.6876 -13.3475
L54.0749 -13.6528
L54.4568 -13.9649
L54.8329 -14.2837
z
" id="C0_1_752aa6eb06"/>
     <path d="
M57.9427 -54.1523
L57.7362 -54.1343
L57.5297 -54.1146
L57.3231 -54.0931
L57.1165 -54.0699
L56.9097 -54.045
L56.7028 -54.0184
L56.4955 -53.9901
L56.288 -53.9602
L56.0801 -53.9287
L55.8718 -53.8955
L55.6631 -53.8607
L55.4538 -53.8242
L55.244 -53.7862
L55.0335 -53.7465
L54.8224 -53.7052
L54.6105 -53.6623
L54.3978 -53.6177
L54.1843 -53.5715
L53.9699 -53.5236
L53.7546 -53.4741
L53.5382 -53.4229
L53.3207 -53.37
L53.1021 -53.3154
L52.8824 -53.2591
L52.6614 -53.201
L52.439 -53.1412
L52.2153 -53.0797
L51.9902 -53.0163
L51.7636 -52.9511
L51.5355 -52.884
L51.3057 -52.8151
L51.0743 -52.7442
L50.8411 -52.6715
L50.6061 -52.5967
L50.3693 -52.52
L50.1306 -52.4412
L49.8898 -52.3604
L49.6471 -52.2774
L49.4022 -52.1923
L49.1552 -52.105
L48.9059 -52.0156
L48.6543 -51.9238
L48.4004 -51.8298
L48.1441 -51.7334
L47.8853 -51.6347
L47.6239 -51.5336
L47.36 -51.43
L47.0934 -51.3239
L46.8242 -51.2153
L46.5521 -51.1041
L46.2773 -50.9903
L45.9996 -50.8738
L45.719 -50.7547
L45.4355 -50.6329
L45.1489 -50.5084
L44.8594 -50.381
L44.5667 -50.2509
L44.271 -50.118
L43.9722 -49.9823
L43.6702 -49.8438
L43.3651 -49.7024
L43.0569 -49.5583
L42.7454 -49.4113
L42.4308 -49.2616
L42.113 -49.1091
L41.7921 -48.9539
L41.4681 -48.7962
L41.141 -48.6358
L40.8108 -48.4731
L40.4777 -48.308
L40.1417 -48.1407
L39.8028 -47.9714
L39.4611 -47.8003
L39.1168 -47.6275
L38.7699 -47.4535
L38.4205 -47.2784
L38.0689 -47.1026
L37.7151 -46.9264
L37.3593 -46.7505
L37.0016 -46.5752
L36.6424 -46.4011
L36.2817 -46.229
L35.9198 -46.0595
L35.5569 -45.8934
L35.1933 -45.7318
L34.8292 -45.5756
L34.465 -45.4259
L34.1009 -45.2841
L33.7371 -45.1514
L33.3741 -45.0292
L33.0122 -44.9192
L32.6516 -44.8227
L32.2927 -44.7414
L31.9358 -44.6767
L31.5812 -44.6299
L31.2292 -44.6023
L30.8801 -44.5947
L30.534 -44.6077
L30.1912 -44.6417
L29.8518 -44.6964
L29.5161 -44.7715
L29.184 -44.8662
L28.8557 -44.9794
L28.5313 -45.1099
L28.2108 -45.2564
L27.8943 -45.4174
L27.5818 -45.5914
L27.2733 -45.777
L26.9689 -45.9727
L26.6686 -46.1774
L26.3725 -46.3897
L26.0806 -46.6084
L25.7928 -46.8327
L25.5094 -47.0614
L25.2301 -47.2938
L24.9552 -47.5292
L24.6846 -47.7667
L24.4184 -48.0059
L24.1565 -48.2461
L23.8989 -48.4869
L23.6457 -48.7279
L23.3968 -48.9686
L23.1523 -49.2088
L22.9121 -49.4481
L22.6762 -49.6863
L22.4447 -49.9231
L22.2173 -50.1584
L21.9942 -50.3919
L21.7752 -50.6237
L21.5605 -50.8534
L21.3498 -51.081
L21.1431 -51.3064
L20.9404 -51.5296
L20.7417 -51.7504
L20.5469 -51.9689
L20.3559 -52.185
L20.1687 -52.3987
L19.9851 -52.6099
L19.8052 -52.8186
L19.6289 -53.025
L19.4561 -53.2288
L19.2867 -53.4303
L19.1207 -53.6293
L18.958 -53.8259
L18.7986 -54.0202
L18.6423 -54.2121
L18.4892 -54.4017
L18.3391 -54.5891
L18.192 -54.7742
L18.0478 -54.9572
L17.9064 -55.138
L17.7679 -55.3167
L17.6321 -55.4933
L17.4989 -55.6679
L17.3684 -55.8406
L17.2404 -56.0114
L17.115 -56.1803
L16.992 -56.3474
L16.8714 -56.5127
L16.7532 -56.6763
L16.9675 -56.8383
L17.3406 -57.2135
L17.7194 -57.5425
L18.1038 -57.8648
L18.4936 -58.1805
L18.8888 -58.4895
L19.2892 -58.7916
L19.6946 -59.0868
L20.1051 -59.3749
L20.5203 -59.6559
L20.9403 -59.9297
L21.3649 -60.1962
L21.7939 -60.4553
L22.2273 -60.707
L22.6649 -60.9512
L23.1065 -61.1878
L23.552 -61.4167
L24.0014 -61.6378
L24.4544 -61.8512
L24.9109 -62.0566
L25.3708 -62.2542
L25.8339 -62.4437
L26.3001 -62.6252
L26.7693 -62.7985
L27.2413 -62.9637
L27.7159 -63.1207
L28.1931 -63.2695
L28.6727 -63.4099
L29.1544 -63.542
L29.6383 -63.6657
L30.1241 -63.7809
L30.6117 -63.8877
L31.101 -63.986
L31.5917 -64.0758
L32.0838 -64.157
L32.5771 -64.2297
L33.0714 -64.2937
L33.5666 -64.3491
L34.0625 -64.3959
L34.5591 -64.4341
L35.0561 -64.4636
L35.5533 -64.4844
L36.0507 -64.4965
L36.5481 -64.5
L37.0453 -64.4947
L37.5422 -64.4808
L38.0386 -64.4582
L38.5345 -64.427
L39.0295 -64.3871
L39.5236 -64.3385
L40.0166 -64.2813
L40.5085 -64.2155
L40.9989 -64.1411
L41.4878 -64.0582
L41.9751 -63.9667
L42.4605 -63.8666
L42.944 -63.7581
L43.4253 -63.6411
L43.9044 -63.5157
L44.3811 -63.3819
L44.8552 -63.2398
L45.3266 -63.0894
L45.7952 -62.9307
L46.2608 -62.7639
L46.7233 -62.5888
L47.1825 -62.4057
L47.6383 -62.2145
L48.0906 -62.0154
L48.5391 -61.8083
L48.9839 -61.5934
L49.4247 -61.3706
L49.8614 -61.1402
L50.2939 -60.902
L50.722 -60.6563
L51.1457 -60.4031
L51.5647 -60.1425
L51.979 -59.8745
L52.3884 -59.5992
L52.7929 -59.3167
L53.1922 -59.0271
L53.5863 -58.7306
L53.975 -58.427
L54.3583 -58.1167
L54.7359 -57.7996
L55.1079 -57.4759
L55.474 -57.1457
L55.8342 -56.809
L56.1884 -56.4659
L56.5364 -56.1166
L56.8781 -55.7613
L57.2135 -55.3998
L57.5425 -55.0325
z
" id="C0_2_7f9855cea7"/>
    </defs>
    <g clip-path="url(#p1bffca34e9)">
     <use style="fill:#ffffff;stroke:#000000;stroke-width:2.0;" x="0.0" xlink:href="#C0_0_a811fe30f3" y="72.0"/>
    </g>
    <g clip-path="url(#p1bffca34e9)">
     <use style="fill:#ff0000;stroke:#000000;stroke-width:2.0;" x="0.0" xlink:href="#C0_1_752aa6eb06" y="72.0"/>
    </g>
    <g clip-path="url(#p1bffca34e9)">
     <use style="fill:#ff0000;stroke:#000000;stroke-width:2.0;" x="0.0" xlink:href="#C0_2_7f9855cea7" y="72.0"/>
    </g>
   </g>
  </g>
 </g>
 <defs>
  <clipPath id="p1bffca34e9">
   <rect height="72.0" width="72.0" x="0.0" y="0.0"/>
  </clipPath>
 </defs>
</svg>
