<?xml version="1.0" encoding="utf-8" standalone="no"?>
<!DOCTYPE svg PUBLIC "-//W3C//DTD SVG 1.1//EN"
  "http://www.w3.org/Graphics/SVG/1.1/DTD/svg11.dtd">
<!-- Created with matplotlib (http://matplotlib.org/) -->
<svg height="72pt" version="1.1" viewBox="0 0 72 72" width="72pt" xmlns="http://www.w3.org/2000/svg" xmlns:xlink="http://www.w3.org/1999/xlink">
 <defs>
  <style type="text/css">
*{stroke-linecap:butt;stroke-linejoin:round;}
  </style>
 </defs>
 <g id="figure_1">
  <g id="patch_1">
   <path d="
M0 72
L72 72
L72 0
L0 0
z
" style="fill:none;"/>
  </g>
  <g id="axes_1">
   <g id="PatchCollection_1">
    <defs>
     <path d="
M36 -7.5
C43.5583 -7.5 50.808 -10.5029 56.1525 -15.8475
C61.4971 -21.192 64.5 -28.4417 64.5 -36
C64.5 -43.5583 61.4971 -50.808 56.1525 -56.1525
C50.808 -61.4971 43.5583 -64.5 36 -64.5
C28.4417 -64.5 21.192 -61.4971 15.8475 -56.1525
C10.5029 -50.808 7.5 -43.5583 7.5 -36
C7.5 -28.4417 10.5029 -21.192 15.8475 -15.8475
C21.192 -10.5029 28.4417 -7.5 36 -7.5
z
" id="C0_0_a811fe30f3"/>
     <path d="
M22.7173 -35.7454
L22.7983 -35.492
L22.881 -35.2391
L22.9655 -34.9865
L23.0519 -34.7343
L23.14 -34.4823
L23.23 -34.2306
L23.3218 -33.979
L23.4156 -33.7276
L23.5113 -33.4762
L23.6089 -33.2249
L23.7085 -32.9736
L23.8101 -32.7222
L23.9138 -32.4708
L24.0195 -32.2192
L24.1274 -31.9674
L24.2374 -31.7154
L24.3496 -31.4631
L24.4641 -31.2106
L24.5809 -30.9577
L24.7001 -30.7045
L24.8216 -30.4508
L24.9456 -30.1968
L25.0721 -29.9423
L25.2011 -29.6872
L25.3328 -29.4317
L25.4671 -29.1756
L25.6042 -28.919
L25.7441 -28.6618
L25.8869 -28.404
L26.0326 -28.1455
L26.1814 -27.8865
L26.3332 -27.6268
L26.4882 -27.3665
L26.6464 -27.1055
L26.8079 -26.8439
L26.9729 -26.5817
L27.1413 -26.3188
L27.3133 -26.0553
L27.4889 -25.7913
L27.6682 -25.5267
L27.8514 -25.2616
L28.0385 -24.9959
L28.2295 -24.7299
L28.4247 -24.4634
L28.624 -24.1966
L28.8277 -23.9296
L29.0356 -23.6624
L29.2481 -23.395
L29.465 -23.1277
L29.6867 -22.8605
L29.913 -22.5935
L30.1442 -22.3269
L30.3803 -22.0608
L30.6213 -21.7953
L30.8675 -21.5306
L31.1188 -21.267
L31.3753 -21.0046
L31.6372 -20.7436
L31.9044 -20.4843
L32.1771 -20.227
L32.4552 -19.9719
L32.7389 -19.7193
L33.0282 -19.4695
L33.323 -19.223
L33.6236 -18.9801
L33.9297 -18.7411
L34.2415 -18.5066
L34.559 -18.277
L34.882 -18.0529
L35.2106 -17.8347
L35.5448 -17.623
L35.8843 -17.4185
L36.2292 -17.2219
L36.5792 -17.0338
L36.9344 -16.855
L37.2944 -16.6863
L37.659 -16.5285
L38.0281 -16.3826
L38.4014 -16.2494
L38.7784 -16.1299
L39.159 -16.0251
L39.5427 -15.936
L39.929 -15.8634
L40.3175 -15.8085
L40.7077 -15.772
L41.0989 -15.7547
L41.4906 -15.7574
L41.8821 -15.7806
L42.2728 -15.8248
L42.6619 -15.8901
L43.0489 -15.9766
L43.4329 -16.0841
L43.8134 -16.2123
L44.1896 -16.3607
L44.5611 -16.5285
L44.9272 -16.715
L45.2874 -16.9192
L45.6412 -17.1402
L45.9883 -17.3768
L46.3283 -17.628
L46.6608 -17.8927
L46.9856 -18.17
L47.3024 -18.4586
L47.6112 -18.7576
L47.9117 -19.0661
L48.2039 -19.3832
L48.4877 -19.7079
L48.7631 -20.0394
L49.03 -20.377
L49.2885 -20.72
L49.5386 -21.0677
L49.7803 -21.4195
L50.0137 -21.7747
L50.239 -22.1329
L50.4561 -22.4936
L50.6653 -22.8562
L50.8666 -23.2204
L51.0602 -23.5858
L51.2462 -23.952
L51.4248 -24.3187
L51.596 -24.6855
L51.7601 -25.0523
L51.9172 -25.4187
L52.0675 -25.7845
L52.2111 -26.1494
L52.3481 -26.5134
L52.4788 -26.8763
L52.6033 -27.2378
L52.7217 -27.5978
L52.8343 -27.9563
L52.941 -28.3131
L53.0422 -28.6681
L53.138 -29.0213
L53.2285 -29.3725
L53.3138 -29.7217
L53.394 -30.0689
L53.4694 -30.414
L53.5401 -30.7569
L53.6061 -31.0978
L53.6676 -31.4364
L53.7247 -31.7729
L53.7776 -32.1073
L53.8263 -32.4394
L53.871 -32.7694
L53.9117 -33.0973
L53.9486 -33.423
L53.9817 -33.7466
L54.0112 -34.0681
L54.0371 -34.3875
L54.0595 -34.7049
L54.0785 -35.0203
L54.0942 -35.3337
L54.1066 -35.6452
L54.1158 -35.9549
L54.1219 -36.2626
L54.1249 -36.5686
L54.1249 -36.8728
L54.122 -37.1753
L54.1161 -37.4762
L54.1074 -37.7754
L54.0959 -38.073
L54.0816 -38.3692
L54.0646 -38.6639
L54.0448 -38.9571
L54.0224 -39.249
L53.9973 -39.5396
L53.9696 -39.8289
L53.9393 -40.117
L53.9064 -40.4039
L53.871 -40.6898
L53.833 -40.9745
L53.7925 -41.2583
L53.7494 -41.5411
L53.7038 -41.823
L53.6557 -42.1041
L53.605 -42.3844
L53.5518 -42.6639
L53.4961 -42.9427
L53.4378 -43.2208
L53.3769 -43.4984
L53.3135 -43.7754
L53.2475 -44.0518
L53.1788 -44.3279
L53.1076 -44.6035
L53.0337 -44.8787
L52.957 -45.1536
L52.8777 -45.4282
L52.7956 -45.7026
L52.7107 -45.9767
L52.623 -46.2508
L52.5324 -46.5246
L52.4389 -46.7984
L52.3425 -47.0722
L52.243 -47.3459
L52.1405 -47.6197
L52.0348 -47.8935
L51.9259 -48.1674
L51.8138 -48.4414
L51.6984 -48.7155
L51.5796 -48.9898
L51.4573 -49.2643
L51.3315 -49.539
L51.2021 -49.8139
L51.069 -50.089
L50.9321 -50.3644
L50.7914 -50.6401
L50.6467 -50.916
L50.4979 -51.1921
L50.345 -51.4685
L50.1878 -51.7452
L50.0263 -52.0221
L49.8602 -52.2992
L49.6896 -52.5766
L49.5143 -52.8541
L49.3342 -53.1318
L49.1491 -53.4096
L48.959 -53.6874
L48.7637 -53.9653
L48.563 -54.2431
L48.3569 -54.5209
L48.1452 -54.7984
L47.9277 -55.0757
L47.7044 -55.3527
L47.4751 -55.6292
L47.2396 -55.9051
L46.9978 -56.1804
L46.7495 -56.4549
L46.4946 -56.7284
L46.2331 -57.0007
L45.9646 -57.2718
L45.6891 -57.5415
L45.4064 -57.8094
L45.1165 -58.0754
L44.8191 -58.3394
L44.5141 -58.6009
L44.2015 -58.8598
L43.8811 -59.1158
L43.5529 -59.3685
L43.2167 -59.6177
L42.8724 -59.863
L42.52 -60.1039
L42.1595 -60.3402
L41.7908 -60.5714
L41.4139 -60.7971
L41.0289 -61.0167
L40.6357 -61.2299
L40.2346 -61.436
L39.8255 -61.6346
L39.4086 -61.825
L38.9842 -62.0067
L38.5525 -62.179
L38.1137 -62.3414
L37.6682 -62.493
L37.2164 -62.6332
L36.7587 -62.7614
L36.2958 -62.8766
L35.8281 -62.9783
L35.3565 -63.0656
L34.8816 -63.1377
L34.4044 -63.194
L33.9256 -63.2335
L33.4464 -63.2558
L32.9678 -63.26
L32.4909 -63.2457
L32.017 -63.2122
L31.5472 -63.1593
L31.0827 -63.0866
L30.6247 -62.9939
L30.1745 -62.8815
L29.7331 -62.7493
L29.3014 -62.5978
L28.8805 -62.4275
L28.471 -62.239
L28.0737 -62.0332
L27.6889 -61.8109
L27.3171 -61.5731
L26.9586 -61.3208
L26.6134 -61.0551
L26.2817 -60.7772
L25.9633 -60.4879
L25.6581 -60.1884
L25.366 -59.8797
L25.0868 -59.5628
L24.8201 -59.2385
L24.5657 -58.9077
L24.3233 -58.5713
L24.0925 -58.2299
L23.8731 -57.8843
L23.6646 -57.5351
L23.4668 -57.1829
L23.2793 -56.8283
L23.1017 -56.4718
L22.9338 -56.1138
L22.7752 -55.7548
L22.6255 -55.3951
L22.4845 -55.0353
L22.3519 -54.6754
L22.2273 -54.3159
L22.1105 -53.9571
L22.0011 -53.5991
L21.8989 -53.2422
L21.8037 -52.8866
L21.7152 -52.5325
L21.633 -52.18
L21.557 -51.8293
L21.487 -51.4805
L21.4227 -51.1337
L21.3639 -50.789
L21.3104 -50.4465
L21.262 -50.1062
L21.2184 -49.7683
L21.1796 -49.4327
L21.1453 -49.0995
L21.1154 -48.7688
L21.0897 -48.4405
L21.068 -48.1146
L21.0502 -47.7913
L21.0362 -47.4704
L21.0258 -47.152
L21.0188 -46.836
L21.0153 -46.5224
L21.015 -46.2113
L21.0178 -45.9026
L21.0237 -45.5962
L21.0325 -45.2921
L21.0441 -44.9904
L21.0585 -44.6909
L21.0755 -44.3936
L21.0951 -44.0985
L21.1172 -43.8055
L21.1418 -43.5146
L21.1687 -43.2257
L21.1979 -42.9388
L21.2294 -42.6538
L21.263 -42.3707
L21.2988 -42.0895
L21.3367 -41.81
L21.3766 -41.5322
L21.4185 -41.2562
L21.4624 -40.9817
L21.5082 -40.7088
L21.5559 -40.4373
L21.6054 -40.1674
L21.6568 -39.8988
L21.71 -39.6315
L21.765 -39.3656
L21.8218 -39.1008
L21.8804 -38.8372
L21.9406 -38.5747
L22.0027 -38.3133
L22.0664 -38.0529
L22.1319 -37.7935
L22.199 -37.5349
L22.2679 -37.2771
L22.3385 -37.0202
L22.4108 -36.764
L22.4848 -36.5084
L22.5606 -36.2535
z
" id="C0_1_0c694be51b"/>
    </defs>
    <g clip-path="url(#p1bffca34e9)">
     <use style="fill:#ffffff;stroke:#000000;stroke-width:2.0;" x="0.0" xlink:href="#C0_0_a811fe30f3" y="72.0"/>
    </g>
    <g clip-path="url(#p1bffca34e9)">
     <use style="fill:#ff0000;stroke:#000000;stroke-width:2.0;" x="0.0" xlink:href="#C0_1_0c694be51b" y="72.0"/>
    </g>
   </g>
  </g>
 </g>
 <defs>
  <clipPath id="p1bffca34e9">
   <rect height="72.0" width="72.0" x="0.0" y="0.0"/>
  </clipPath>
 </defs>
</svg>
