<?xml version="1.0" encoding="utf-8" standalone="no"?>
<!DOCTYPE svg PUBLIC "-//W3C//DTD SVG 1.1//EN"
  "http://www.w3.org/Graphics/SVG/1.1/DTD/svg11.dtd">
<!-- Created with matplotlib (http://matplotlib.org/) -->
<svg height="72pt" version="1.1" viewBox="0 0 72 72" width="72pt" xmlns="http://www.w3.org/2000/svg" xmlns:xlink="http://www.w3.org/1999/xlink">
 <defs>
  <style type="text/css">
*{stroke-linecap:butt;stroke-linejoin:round;}
  </style>
 </defs>
 <g id="figure_1">
  <g id="patch_1">
   <path d="
M0 72
L72 72
L72 0
L0 0
z
" style="fill:none;"/>
  </g>
  <g id="axes_1">
   <g id="PatchCollection_1">
    <defs>
     <path d="
M36 -7.5
C43.5583 -7.5 50.808 -10.5029 56.1525 -15.8475
C61.4971 -21.192 64.5 -28.4417 64.5 -36
C64.5 -43.5583 61.4971 -50.808 56.1525 -56.1525
C50.808 -61.4971 43.5583 -64.5 36 -64.5
C28.4417 -64.5 21.192 -61.4971 15.8475 -56.1525
C10.5029 -50.808 7.5 -43.5583 7.5 -36
C7.5 -28.4417 10.5029 -21.192 15.8475 -15.8475
C21.192 -10.5029 28.4417 -7.5 36 -7.5
z
" id="C0_0_a811fe30f3"/>
     <path d="
M38.4886 -34.0401
L38.5188 -34.2907
L38.5485 -34.5416
L38.5777 -34.7927
L38.6065 -35.0441
L38.6348 -35.2958
L38.6627 -35.548
L38.6901 -35.8006
L38.7171 -36.0537
L38.7437 -36.3075
L38.7698 -36.5619
L38.7955 -36.8169
L38.8207 -37.0728
L38.8455 -37.3295
L38.8699 -37.587
L38.8938 -37.8455
L38.9173 -38.105
L38.9403 -38.3656
L38.9629 -38.6273
L38.985 -38.8902
L39.0067 -39.1543
L39.0279 -39.4197
L39.0486 -39.6864
L39.0688 -39.9546
L39.0886 -40.2242
L39.1078 -40.4953
L39.1265 -40.7681
L39.1447 -41.0425
L39.1624 -41.3185
L39.1794 -41.5964
L39.196 -41.876
L39.2119 -42.1575
L39.2272 -42.4409
L39.2418 -42.7262
L39.2558 -43.0136
L39.2691 -43.303
L39.2817 -43.5945
L39.2936 -43.8881
L39.3046 -44.184
L39.3149 -44.482
L39.3243 -44.7823
L39.3328 -45.0849
L39.3404 -45.3898
L39.3471 -45.697
L39.3527 -46.0066
L39.3572 -46.3185
L39.3606 -46.6328
L39.3628 -46.9495
L39.3638 -47.2686
L39.3635 -47.5901
L39.3617 -47.9139
L39.3585 -48.24
L39.3537 -48.5685
L39.3473 -48.8992
L39.3391 -49.2322
L39.3291 -49.5672
L39.3171 -49.9044
L39.3031 -50.2436
L39.2868 -50.5846
L39.2681 -50.9275
L39.247 -51.272
L39.2231 -51.618
L39.1964 -51.9653
L39.1666 -52.3139
L39.1335 -52.6634
L39.0969 -53.0137
L39.0565 -53.3645
L39.0121 -53.7155
L38.9632 -54.0665
L38.9096 -54.417
L38.8509 -54.7668
L38.7865 -55.1154
L38.7162 -55.4624
L38.6393 -55.8073
L38.5552 -56.1495
L38.4633 -56.4885
L38.3629 -56.8236
L38.2532 -57.1541
L38.1333 -57.4792
L38.0022 -57.798
L37.8588 -58.1096
L37.7022 -58.413
L37.531 -58.7071
L37.344 -58.9907
L37.14 -59.2625
L36.9178 -59.5213
L36.6763 -59.7658
L36.4143 -59.9948
L36.1313 -60.207
L35.8267 -60.4014
L35.5003 -60.577
L35.1523 -60.7329
L34.7834 -60.8688
L34.3946 -60.9841
L33.987 -61.0788
L33.5622 -61.153
L33.1219 -61.2069
L32.668 -61.2409
L32.2023 -61.2555
L31.7268 -61.2512
L31.2431 -61.2287
L30.7532 -61.1888
L30.2585 -61.1319
L29.7606 -61.059
L29.261 -60.9706
L28.7608 -60.8674
L28.2613 -60.7502
L27.7634 -60.6196
L27.2682 -60.4762
L26.7764 -60.3206
L26.2888 -60.1536
L25.806 -59.9756
L25.3287 -59.7872
L24.8574 -59.5891
L24.3924 -59.3817
L23.9343 -59.1656
L23.4832 -58.9412
L23.0396 -58.7091
L22.6036 -58.4697
L22.1755 -58.2235
L21.7554 -57.9709
L21.3434 -57.7123
L20.9396 -57.4481
L20.5441 -57.1788
L20.157 -56.9045
L19.7782 -56.6258
L19.4078 -56.3429
L19.0457 -56.0561
L18.6918 -55.7658
L18.3463 -55.4721
L18.0089 -55.1755
L17.6796 -54.876
L17.3584 -54.574
L17.045 -54.2696
L16.7395 -53.9631
L16.4418 -53.6547
L16.1516 -53.3445
L15.8689 -53.0327
L15.5936 -52.7194
L15.3255 -52.4049
L15.0646 -52.0891
L14.8107 -51.7723
L14.5637 -51.4546
L14.3234 -51.136
L14.0897 -50.8167
L13.8626 -50.4966
L13.6418 -50.176
L13.4273 -49.8549
L13.219 -49.5333
L13.0166 -49.2113
L12.8202 -48.8889
L12.6296 -48.5662
L12.4447 -48.2431
L12.2653 -47.9199
L12.0915 -47.5963
L11.923 -47.2726
L11.7598 -46.9486
L11.6018 -46.6245
L11.4489 -46.3001
L11.301 -45.9755
L11.158 -45.6508
L11.0199 -45.3258
L10.8866 -45.0006
L10.7579 -44.6752
L10.6339 -44.3496
L10.5145 -44.0237
L10.3996 -43.6975
L10.2891 -43.371
L10.1831 -43.0442
L10.0814 -42.717
L9.98396 -42.3894
L9.89082 -42.0614
L9.8019 -41.733
L9.71717 -41.4041
L9.63661 -41.0747
L9.56017 -40.7447
L9.48785 -40.4141
L9.41962 -40.0829
L9.35547 -39.751
L9.29538 -39.4184
L9.23935 -39.085
L9.18738 -38.7509
L9.13946 -38.4158
L9.0956 -38.0799
L9.05582 -37.7431
L9.02011 -37.4053
L8.9885 -37.0665
L8.96101 -36.7266
L8.93767 -36.3855
L8.91849 -36.0434
L8.90353 -35.7
L8.89281 -35.3553
L8.88638 -35.0094
L8.88428 -34.6621
L8.88657 -34.3135
L8.8933 -33.9634
L8.90454 -33.6119
L8.92033 -33.2588
L8.94077 -32.9042
L8.96591 -32.548
L8.99585 -32.1902
L9.03066 -31.8308
L9.07044 -31.4696
L9.11528 -31.1068
L9.16527 -30.7422
L9.22053 -30.3758
L9.28116 -30.0076
L9.34729 -29.6377
L9.41902 -29.2659
L9.49649 -28.8923
L9.57982 -28.5168
L9.66915 -28.1395
L9.76463 -27.7604
L9.86641 -27.3794
L9.97462 -26.9967
L10.0894 -26.6122
L10.211 -26.2259
L10.3395 -25.8379
L10.4751 -25.4482
L10.618 -25.057
L10.7683 -24.6642
L10.9263 -24.2699
L11.0921 -23.8743
L11.2659 -23.4773
L11.4479 -23.0792
L11.6383 -22.6801
L11.8372 -22.28
L12.045 -21.8792
L12.2617 -21.4778
L12.4876 -21.076
L12.7229 -20.674
L12.9677 -20.2721
L13.2222 -19.8704
L13.4866 -19.4692
L13.7611 -19.0689
L14.0458 -18.6696
L14.3408 -18.2719
L14.6463 -17.8759
L14.9624 -17.4821
L15.2892 -17.0908
L15.6267 -16.7026
L15.9751 -16.3179
L16.3342 -15.9371
L16.7042 -15.5608
L17.0849 -15.1896
L17.4762 -14.8239
L17.8781 -14.4645
L18.2903 -14.1119
L18.7126 -13.7668
L19.1446 -13.43
L19.5861 -13.1022
L20.0365 -12.7842
L20.4953 -12.4768
L20.9619 -12.1808
L21.4357 -11.8971
L21.9157 -11.6267
L22.401 -11.3706
L22.8906 -11.1296
L23.3833 -10.905
L23.8777 -10.6977
L24.3724 -10.5088
L24.8659 -10.3394
L25.3563 -10.1906
L25.8419 -10.0635
L26.3208 -9.95897
L26.791 -9.87802
L27.2507 -9.82137
L27.698 -9.78964
L28.1312 -9.78317
L28.5488 -9.80208
L28.9498 -9.84619
L29.3332 -9.91501
L29.6985 -10.0078
L30.0457 -10.1235
L30.3749 -10.2609
L30.6866 -10.4186
L30.9814 -10.5952
L31.2603 -10.789
L31.5241 -10.9985
L31.7739 -11.2224
L32.0106 -11.459
L32.2353 -11.7071
L32.4489 -11.9655
L32.6523 -12.2329
L32.8461 -12.5083
L33.0313 -12.7908
L33.2084 -13.0795
L33.3782 -13.3736
L33.541 -13.6723
L33.6974 -13.975
L33.8479 -14.2811
L33.9928 -14.5901
L34.1325 -14.9014
L34.2674 -15.2147
L34.3977 -15.5295
L34.5236 -15.8454
L34.6455 -16.1621
L34.7636 -16.4794
L34.878 -16.7969
L34.9889 -17.1143
L35.0965 -17.4316
L35.2009 -17.7483
L35.3024 -18.0645
L35.401 -18.3798
L35.4969 -18.6942
L35.5901 -19.0075
L35.6808 -19.3196
L35.7691 -19.6304
L35.8551 -19.9399
L35.9389 -20.2478
L36.0205 -20.5542
L36.1001 -20.859
L36.1777 -21.1622
L36.2533 -21.4636
L36.3272 -21.7634
L36.3993 -22.0614
L36.4696 -22.3577
L36.5383 -22.6521
L36.6054 -22.9448
L36.671 -23.2358
L36.7351 -23.5249
L36.7978 -23.8123
L36.8591 -24.098
L36.919 -24.3819
L36.9777 -24.6641
L37.0351 -24.9447
L37.0913 -25.2235
L37.1463 -25.5008
L37.2002 -25.7765
L37.2529 -26.0507
L37.3047 -26.3233
L37.3554 -26.5945
L37.4051 -26.8642
L37.4538 -27.1326
L37.5016 -27.3996
L37.5485 -27.6653
L37.5945 -27.9298
L37.6396 -28.1931
L37.6839 -28.4552
L37.7275 -28.7163
L37.7702 -28.9763
L37.8122 -29.2353
L37.8534 -29.4934
L37.8939 -29.7506
L37.9337 -30.0069
L37.9728 -30.2625
L38.0113 -30.5173
L38.0491 -30.7715
L38.0863 -31.025
L38.1229 -31.278
L38.1589 -31.5305
L38.1943 -31.7826
L38.2291 -32.0342
L38.2634 -32.2855
L38.2971 -32.5366
L38.3303 -32.7874
L38.363 -33.038
L38.3951 -33.2885
L38.4268 -33.539
z
" id="C0_1_4bb192a386"/>
    </defs>
    <g clip-path="url(#p1bffca34e9)">
     <use style="fill:#ffffff;stroke:#000000;stroke-width:2.0;" x="0.0" xlink:href="#C0_0_a811fe30f3" y="72.0"/>
    </g>
    <g clip-path="url(#p1bffca34e9)">
     <use style="fill:#ff0000;stroke:#000000;stroke-width:2.0;" x="0.0" xlink:href="#C0_1_4bb192a386" y="72.0"/>
    </g>
   </g>
  </g>
 </g>
 <defs>
  <clipPath id="p1bffca34e9">
   <rect height="72.0" width="72.0" x="0.0" y="0.0"/>
  </clipPath>
 </defs>
</svg>
