<?xml version="1.0" encoding="utf-8" standalone="no"?>
<!DOCTYPE svg PUBLIC "-//W3C//DTD SVG 1.1//EN"
  "http://www.w3.org/Graphics/SVG/1.1/DTD/svg11.dtd">
<!-- Created with matplotlib (http://matplotlib.org/) -->
<svg height="72pt" version="1.1" viewBox="0 0 72 72" width="72pt" xmlns="http://www.w3.org/2000/svg" xmlns:xlink="http://www.w3.org/1999/xlink">
 <defs>
  <style type="text/css">
*{stroke-linecap:butt;stroke-linejoin:round;}
  </style>
 </defs>
 <g id="figure_1">
  <g id="patch_1">
   <path d="
M0 72
L72 72
L72 0
L0 0
z
" style="fill:none;"/>
  </g>
  <g id="axes_1">
   <g id="PatchCollection_1">
    <defs>
     <path d="
M36 -7.5
C43.5583 -7.5 50.808 -10.5029 56.1525 -15.8475
C61.4971 -21.192 64.5 -28.4417 64.5 -36
C64.5 -43.5583 61.4971 -50.808 56.1525 -56.1525
C50.808 -61.4971 43.5583 -64.5 36 -64.5
C28.4417 -64.5 21.192 -61.4971 15.8475 -56.1525
C10.5029 -50.808 7.5 -43.5583 7.5 -36
C7.5 -28.4417 10.5029 -21.192 15.8475 -15.8475
C21.192 -10.5029 28.4417 -7.5 36 -7.5
z
" id="C0_0_a811fe30f3"/>
     <path d="
M23.6579 -10.4503
L23.3563 -10.7991
L23.0676 -11.1522
L22.7913 -11.5091
L22.5273 -11.869
L22.2752 -12.2313
L22.0346 -12.5956
L21.8053 -12.9613
L21.587 -13.3279
L21.3792 -13.695
L21.1816 -14.0623
L20.994 -14.4295
L20.8159 -14.7961
L20.6472 -15.162
L20.4874 -15.5268
L20.3362 -15.8904
L20.1934 -16.2525
L20.0586 -16.613
L19.9315 -16.9717
L19.812 -17.3284
L19.6996 -17.6831
L19.5942 -18.0356
L19.4955 -18.3858
L19.4032 -18.7337
L19.3171 -19.0792
L19.2369 -19.4223
L19.1625 -19.7628
L19.0937 -20.1008
L19.0301 -20.4362
L18.9717 -20.769
L18.9182 -21.0993
L18.8695 -21.427
L18.8254 -21.7521
L18.7857 -22.0746
L18.7503 -22.3946
L18.719 -22.7121
L18.6916 -23.0271
L18.6681 -23.3396
L18.6483 -23.6497
L18.6321 -23.9574
L18.6193 -24.2627
L18.6099 -24.5657
L18.6038 -24.8665
L18.6008 -25.1651
L18.6008 -25.4615
L18.6038 -25.7558
L18.6097 -26.048
L18.6184 -26.3383
L18.6298 -26.6266
L18.6439 -26.913
L18.6605 -27.1976
L18.6797 -27.4804
L18.7013 -27.7615
L18.7253 -28.0409
L18.7517 -28.3188
L18.7805 -28.5951
L18.8115 -28.8699
L18.8447 -29.1433
L18.8801 -29.4154
L18.9177 -29.6862
L18.9574 -29.9557
L18.9992 -30.2241
L19.0431 -30.4913
L19.0891 -30.7575
L19.1371 -31.0227
L19.1871 -31.287
L19.2391 -31.5503
L19.2932 -31.8129
L19.3492 -32.0747
L19.4073 -32.3358
L19.4673 -32.5962
L19.5293 -32.856
L19.6593 -33.1154
L19.7273 -33.3742
L19.7973 -33.6326
L19.8693 -33.8907
L19.9434 -34.1484
L20.0195 -34.4059
L20.0977 -34.6632
L20.178 -34.9203
L20.2604 -35.1773
L20.3449 -35.4343
L20.4316 -35.6913
L20.5205 -35.9483
L20.6116 -36.2055
L20.705 -36.4628
L20.8007 -36.7203
L20.8987 -36.9781
L20.999 -37.2362
L21.1018 -37.4946
L21.2071 -37.7534
L21.3149 -38.0127
L21.4252 -38.2724
L21.5381 -38.5326
L21.6537 -38.7935
L21.772 -39.0549
L21.8931 -39.3169
L22.0171 -39.5797
L22.1439 -39.8431
L22.2737 -40.1073
L22.4066 -40.3723
L22.5425 -40.6381
L22.6817 -40.9047
L22.824 -41.1722
L22.9698 -41.4405
L23.1189 -41.7098
L23.2715 -41.9799
L23.4278 -42.251
L23.5876 -42.5231
L23.7513 -42.796
L23.9188 -43.0699
L24.0902 -43.3448
L24.2656 -43.6205
L24.4452 -43.8972
L24.6289 -44.1748
L24.817 -44.4532
L25.0096 -44.7325
L25.2066 -45.0126
L25.4082 -45.2935
L25.6146 -45.575
L25.8258 -45.8572
L26.0419 -46.14
L26.263 -46.4233
L26.4893 -46.7069
L26.7207 -46.9909
L26.9575 -47.2751
L27.1997 -47.5593
L27.4473 -47.8434
L27.7006 -48.1273
L27.9595 -48.4108
L28.2241 -48.6937
L28.4945 -48.9758
L28.7708 -49.2569
L29.053 -49.5367
L29.3412 -49.8151
L29.6354 -50.0916
L29.9356 -50.366
L30.2419 -50.6379
L30.5542 -50.9071
L30.8725 -51.173
L31.1968 -51.4352
L31.5271 -51.6934
L31.8632 -51.9469
L32.2051 -52.1953
L32.5527 -52.4378
L32.9057 -52.674
L33.2641 -52.9031
L33.6277 -53.1242
L33.996 -53.3367
L34.369 -53.5396
L34.7463 -53.7319
L35.1274 -53.9127
L35.512 -54.0807
L35.8996 -54.2348
L36.2897 -54.3737
L36.6816 -54.4962
L37.0748 -54.6008
L37.4685 -54.6863
L37.862 -54.7513
L38.2545 -54.7946
L38.6453 -54.815
L39.0336 -54.8117
L39.4185 -54.784
L39.7994 -54.7315
L40.1756 -54.6541
L40.5465 -54.5522
L40.9114 -54.4263
L41.27 -54.2773
L41.6219 -54.1063
L41.9667 -53.9147
L42.3042 -53.7038
L42.6342 -53.4751
L42.9566 -53.2301
L43.2712 -52.9703
L43.578 -52.697
L43.877 -52.4117
L44.1681 -52.1155
L44.4514 -51.8098
L44.7269 -51.4954
L44.9946 -51.1736
L45.2547 -50.8451
L45.5071 -50.511
L45.7519 -50.1718
L45.9894 -49.8284
L46.2194 -49.4814
L46.4423 -49.1314
L46.658 -48.779
L46.8667 -48.4246
L47.0685 -48.0687
L47.2635 -47.7118
L47.452 -47.3541
L47.6339 -46.9961
L47.8095 -46.6381
L47.9789 -46.2803
L48.1422 -45.923
L48.2996 -45.5664
L48.4512 -45.2108
L48.5971 -44.8564
L48.7375 -44.5032
L48.8725 -44.1515
L49.0023 -43.8014
L49.127 -43.453
L49.2467 -43.1064
L49.3616 -42.7617
L49.4718 -42.4189
L49.5774 -42.0782
L49.6785 -41.7397
L49.7753 -41.4032
L49.8679 -41.0689
L49.9564 -40.7368
L50.0408 -40.407
L50.1214 -40.0793
L50.1982 -39.7539
L50.2714 -39.4308
L50.3409 -39.1098
L50.4069 -38.7911
L50.4696 -38.4745
L50.5289 -38.1601
L50.5851 -37.8479
L50.638 -37.5378
L50.688 -37.2297
L50.7349 -36.9237
L50.7789 -36.6197
L50.82 -36.3177
L50.8584 -36.0176
L50.894 -35.7193
L50.927 -35.4229
L50.9573 -35.1283
L50.9851 -34.8354
L51.0104 -34.5442
L51.0332 -34.2546
L51.0536 -33.9666
L51.0716 -33.6801
L51.0873 -33.3951
L51.1007 -33.1115
L51.1118 -32.8292
L51.1206 -32.5483
L51.1273 -32.2686
L51.1318 -31.99
L51.1341 -31.7126
L51.1342 -31.4363
L51.1323 -31.161
L51.1282 -30.8867
L51.122 -30.6132
L51.1137 -30.3406
L51.1034 -30.0688
L51.091 -29.7977
L51.0765 -29.5273
L51.06 -29.2575
L51.0413 -28.9883
L51.0207 -28.7195
L50.9979 -28.4513
L50.973 -28.1834
L50.9461 -27.9158
L50.917 -27.6485
L50.8858 -27.3815
L50.8525 -27.1146
L50.817 -26.8479
L50.7793 -26.5812
L50.7394 -26.3146
L50.6972 -26.0479
L50.6528 -25.7811
L50.6061 -25.5141
L50.5571 -25.247
L50.5056 -24.9796
L50.4518 -24.712
L50.3954 -24.444
L50.3366 -24.1756
L50.2752 -23.9068
L50.2112 -23.6375
L50.1445 -23.3676
L50.0751 -23.0973
L50.0029 -22.8262
L49.9278 -22.5546
L49.8498 -22.2823
L49.7688 -22.0092
L49.6847 -21.7353
L49.5975 -21.4607
L49.507 -21.1852
L49.4132 -20.9089
L49.3159 -20.6317
L49.2152 -20.3535
L49.1108 -20.0744
L49.0026 -19.7944
L48.8907 -19.5134
L48.7747 -19.2313
L48.6548 -18.9483
L48.5306 -18.6643
L48.4021 -18.3793
L48.2691 -18.0932
L48.1316 -17.8062
L47.9893 -17.5182
L47.8421 -17.2292
L47.6899 -16.9393
L47.5325 -16.6485
L47.3697 -16.3568
L47.2014 -16.0643
L47.0274 -15.771
L46.8475 -15.477
L46.6616 -15.1824
L46.4694 -14.8873
L46.2708 -14.5917
L46.0655 -14.2958
L45.8534 -13.9997
L45.6343 -13.7035
L45.4079 -13.4074
L45.174 -13.1115
L44.9325 -12.816
L44.6831 -12.5212
L44.4255 -12.2272
L44.1597 -11.9342
L43.8852 -11.6425
L43.6021 -11.3525
L43.31 -11.0644
L43.0087 -10.7785
L42.698 -10.4952
L42.3778 -10.2148
L42.0478 -9.93785
L41.7079 -9.66472
L41.3579 -9.39589
L40.9977 -9.13188
L40.6272 -8.87325
L40.2462 -8.62057
L39.8548 -8.37448
L39.4528 -8.13566
L39.0403 -7.90484
L38.5474 -7.68278
L38.0516 -7.61408
L37.5552 -7.57394
L37.0583 -7.54246
L36.5611 -7.51966
L36.0637 -7.50552
L35.5663 -7.50007
L35.0691 -7.5033
L34.5721 -7.51521
L34.0755 -7.53579
L33.5796 -7.56505
L33.0843 -7.60297
L32.59 -7.64954
L32.0967 -7.70474
L31.6046 -7.76856
L31.1138 -7.84098
L30.6245 -7.92198
L30.1369 -8.01154
L29.651 -8.10961
L29.1671 -8.21619
L28.6852 -8.33122
L28.2056 -8.45469
L27.7284 -8.58654
L27.2536 -8.72675
L26.7816 -8.87526
L26.3123 -9.03204
L25.846 -9.19703
L25.3828 -9.37019
L24.9229 -9.55145
L24.4663 -9.74078
z
" id="C0_1_4c0b223d5b"/>
     <path d="
M33.4101 -64.2312
L33.864 -64.1008
L34.317 -63.9668
L34.7692 -63.8297
L35.2204 -63.6904
L35.6707 -63.5499
L36.1201 -63.4091
L36.5685 -63.2693
L37.0162 -63.1315
L37.4633 -62.9969
L37.9099 -62.867
L38.3562 -62.7428
L38.8026 -62.6256
L39.2493 -62.5165
L39.6966 -62.4163
L40.1449 -62.3259
L40.5943 -62.2455
L41.0452 -62.1753
L41.4977 -62.1152
L41.9521 -62.0646
L42.4083 -62.0228
L42.8664 -61.9889
L43.3264 -61.9618
L43.7881 -61.9402
L44.2514 -61.9228
L44.716 -61.9086
L45.1818 -61.8961
L45.6485 -61.8844
L46.1157 -61.8722
L46.5833 -61.8588
L47.0509 -61.843
L47.5182 -61.8243
L47.5534 -61.8019
L47.0969 -62.0532
L46.6371 -62.2509
L46.174 -62.4406
L45.7078 -62.6222
L45.2387 -62.7957
L44.7668 -62.961
L44.2921 -63.1181
L43.815 -63.267
L43.3355 -63.4076
L42.8537 -63.5398
L42.3699 -63.6636
L41.8841 -63.779
L41.3965 -63.886
L40.9073 -63.9844
L40.4166 -64.0743
L39.9246 -64.1557
L39.4313 -64.2285
L38.937 -64.2927
L38.4418 -64.3483
L37.9459 -64.3952
L37.4493 -64.4335
L36.9524 -64.4631
L36.4551 -64.4841
L35.9577 -64.4964
L35.4603 -64.5
L34.9631 -64.4949
L34.4662 -64.4811
L33.9698 -64.4587
z
" id="C0_2_08fd06029b"/>
    </defs>
    <g clip-path="url(#p1bffca34e9)">
     <use style="fill:#ffffff;stroke:#000000;stroke-width:2.0;" x="0.0" xlink:href="#C0_0_a811fe30f3" y="72.0"/>
    </g>
    <g clip-path="url(#p1bffca34e9)">
     <use style="fill:#ff0000;stroke:#000000;stroke-width:2.0;" x="0.0" xlink:href="#C0_1_4c0b223d5b" y="72.0"/>
    </g>
    <g clip-path="url(#p1bffca34e9)">
     <use style="fill:#ff0000;stroke:#000000;stroke-width:2.0;" x="0.0" xlink:href="#C0_2_08fd06029b" y="72.0"/>
    </g>
   </g>
  </g>
 </g>
 <defs>
  <clipPath id="p1bffca34e9">
   <rect height="72.0" width="72.0" x="0.0" y="0.0"/>
  </clipPath>
 </defs>
</svg>
