<?xml version="1.0" encoding="utf-8" standalone="no"?>
<!DOCTYPE svg PUBLIC "-//W3C//DTD SVG 1.1//EN"
  "http://www.w3.org/Graphics/SVG/1.1/DTD/svg11.dtd">
<!-- Created with matplotlib (http://matplotlib.org/) -->
<svg height="72pt" version="1.1" viewBox="0 0 72 72" width="72pt" xmlns="http://www.w3.org/2000/svg" xmlns:xlink="http://www.w3.org/1999/xlink">
 <defs>
  <style type="text/css">
*{stroke-linecap:butt;stroke-linejoin:round;}
  </style>
 </defs>
 <g id="figure_1">
  <g id="patch_1">
   <path d="
M0 72
L72 72
L72 0
L0 0
z
" style="fill:none;"/>
  </g>
  <g id="axes_1">
   <g id="PatchCollection_1">
    <defs>
     <path d="
M36 -7.5
C43.5583 -7.5 50.808 -10.5029 56.1525 -15.8475
C61.4971 -21.192 64.5 -28.4417 64.5 -36
C64.5 -43.5583 61.4971 -50.808 56.1525 -56.1525
C50.808 -61.4971 43.5583 -64.5 36 -64.5
C28.4417 -64.5 21.192 -61.4971 15.8475 -56.1525
C10.5029 -50.808 7.5 -43.5583 7.5 -36
C7.5 -28.4417 10.5029 -21.192 15.8475 -15.8475
C21.192 -10.5029 28.4417 -7.5 36 -7.5
z
" id="C0_0_a811fe30f3"/>
     <path d="
M59.4846 -52.0444
L59.232 -51.9595
L58.9807 -51.8736
L58.7307 -51.7867
L58.482 -51.699
L58.2346 -51.6105
L57.9886 -51.5213
L57.744 -51.4313
L57.5008 -51.3406
L57.2591 -51.2494
L57.0188 -51.1575
L56.78 -51.0651
L56.5427 -50.9722
L56.3068 -50.8788
L56.0723 -50.785
L55.8392 -50.6908
L55.6076 -50.5962
L55.3774 -50.5013
L55.1485 -50.406
L54.9209 -50.3103
L54.6947 -50.2144
L54.4698 -50.1182
L54.2461 -50.0217
L54.0236 -49.925
L53.8023 -49.828
L53.5822 -49.7307
L53.3632 -49.6332
L53.1453 -49.5355
L52.9284 -49.4375
L52.7124 -49.3393
L52.4975 -49.2409
L52.2834 -49.1422
L52.0702 -49.0433
L51.8579 -48.9441
L51.6463 -48.8447
L51.4354 -48.745
L51.2252 -48.645
L51.0157 -48.5448
L50.8067 -48.4443
L50.5983 -48.3434
L50.3904 -48.2423
L50.183 -48.1408
L49.9759 -48.039
L49.7692 -47.9369
L49.5628 -47.8344
L49.3567 -47.7314
L49.1507 -47.6281
L48.945 -47.5244
L48.7393 -47.4202
L48.5336 -47.3155
L48.328 -47.2104
L48.1223 -47.1047
L47.9166 -46.9985
L47.7106 -46.8918
L47.2981 -46.7845
L47.0914 -46.6766
L46.8844 -46.568
L46.6769 -46.4588
L46.469 -46.349
L46.2605 -46.2384
L46.0515 -46.1271
L45.8418 -46.015
L45.6314 -45.9022
L45.4203 -45.7885
L45.2084 -45.6739
L44.9957 -45.5585
L44.782 -45.4422
L44.5674 -45.3249
L44.3517 -45.2066
L44.1349 -45.0873
L43.917 -44.967
L43.6979 -44.8456
L43.4776 -44.723
L43.2559 -44.5993
L43.0328 -44.4743
L42.8082 -44.3482
L42.5822 -44.2207
L42.3546 -44.0919
L42.1254 -43.9618
L41.8944 -43.8303
L41.6617 -43.6973
L41.4272 -43.5628
L41.1909 -43.4268
L40.9525 -43.2892
L40.7122 -43.15
L40.4698 -43.0091
L40.2252 -42.8665
L39.9785 -42.7222
L39.7295 -42.576
L39.4782 -42.4281
L39.2245 -42.2782
L38.9683 -42.1263
L38.7097 -41.9725
L38.4485 -41.8167
L38.1847 -41.6588
L37.9182 -41.4987
L37.649 -41.3365
L37.377 -41.1721
L37.1022 -41.0054
L36.8245 -40.8365
L36.5439 -40.6652
L36.2603 -40.4915
L35.9738 -40.3155
L35.6842 -40.137
L35.3915 -39.9561
L35.0958 -39.7727
L34.7969 -39.5868
L34.495 -39.3984
L34.1899 -39.2075
L33.8817 -39.014
L33.5703 -38.818
L33.2559 -38.6196
L32.9383 -38.4186
L32.6177 -38.2152
L32.2941 -38.0094
L31.9674 -37.8012
L31.6379 -37.5908
L31.3055 -37.3781
L30.9703 -37.1634
L30.6324 -36.9466
L30.292 -36.7281
L29.949 -36.5079
L29.6038 -36.2862
L29.2563 -36.0633
L28.9068 -35.8395
L28.5554 -35.615
L28.2023 -35.3903
L27.8477 -35.1658
L27.4918 -34.9421
L27.1349 -34.7196
L26.7772 -34.4992
L26.419 -34.2816
L26.0605 -34.0679
L25.7022 -33.8593
L25.3443 -33.6571
L24.9871 -33.463
L24.6312 -33.279
L24.277 -33.1076
L23.9249 -32.9514
L23.5754 -32.8137
L23.2292 -32.6983
L22.8868 -32.609
L22.5488 -32.5502
L22.216 -32.5259
L21.8888 -32.5395
L21.568 -32.5935
L21.2538 -32.689
L20.9468 -32.8254
L20.6472 -33.0008
L20.3552 -33.2122
L20.0709 -33.4559
L19.7945 -33.7278
L19.5262 -34.0241
L19.2658 -34.3413
L19.0136 -34.676
L18.7694 -35.0255
L18.5335 -35.3873
L18.3057 -35.7593
L18.0861 -36.1397
L17.8747 -36.5271
L17.6715 -36.92
L17.4764 -37.3173
L17.2894 -37.7182
L17.1104 -38.1216
L16.9395 -38.5268
L16.7764 -38.9333
L16.6212 -39.3403
L16.4738 -39.7475
L16.3339 -40.1542
L16.2017 -40.5602
L16.0768 -40.9651
L15.9592 -41.3685
L15.8489 -41.7702
L15.7455 -42.1699
L15.6491 -42.5674
L15.5595 -42.9625
L15.4765 -43.355
L15.4 -43.7447
L15.3299 -44.1317
L15.2661 -44.5156
L15.2083 -44.8965
L15.1565 -45.2743
L15.1104 -45.6489
L15.0701 -46.0202
L15.0353 -46.3882
L15.006 -46.7529
L14.9819 -47.1142
L14.963 -47.4722
L14.9492 -47.8268
L14.9402 -48.1781
L14.9362 -48.5261
L14.9368 -48.8708
L14.942 -49.2121
L14.9518 -49.5502
L14.9659 -49.8851
L14.9844 -50.2168
L15.0071 -50.5454
L15.034 -50.8709
L15.0649 -51.1933
L15.0999 -51.5127
L15.1388 -51.8292
L15.1815 -52.1428
L15.2281 -52.4536
L15.2784 -52.7616
L15.3324 -53.0669
L15.3901 -53.3696
L15.4514 -53.6696
L15.5162 -53.9672
L15.5846 -54.2622
L15.6566 -54.5549
L15.732 -54.8452
L15.8109 -55.1333
L15.8932 -55.4191
L15.979 -55.7028
L16.0682 -55.9844
L16.3723 -56.2639
L16.7359 -56.6641
L17.1054 -57.0035
L17.4807 -57.3365
L17.8616 -57.663
L18.248 -57.9829
L18.6398 -58.2961
L19.0369 -58.6025
L19.4392 -58.902
L19.8465 -59.1946
L20.2588 -59.4801
L20.6758 -59.7584
L21.0975 -60.0295
L21.5237 -60.2933
L21.9544 -60.5497
L22.3893 -60.7986
L22.8284 -61.04
L23.2715 -61.2737
L23.7185 -61.4997
L24.1692 -61.718
L24.6235 -61.9284
L25.0813 -62.1309
L25.5424 -62.3255
L26.0067 -62.512
L26.474 -62.6905
L26.9443 -62.8609
L27.4173 -63.023
L27.8929 -63.1769
L28.3709 -63.3226
L28.8514 -63.4599
L29.3339 -63.5889
L29.8185 -63.7094
L30.305 -63.8216
L30.7933 -63.9252
L31.2831 -64.0203
L31.7743 -64.107
L32.2669 -64.185
L32.7606 -64.2544
L33.2552 -64.3153
L33.7507 -64.3675
L34.2469 -64.4111
L34.7436 -64.446
L35.2407 -64.4723
L35.7381 -64.4899
L36.2355 -64.4988
L36.7328 -64.499
L37.2299 -64.4906
L37.7267 -64.4734
L38.2229 -64.4476
L38.7184 -64.4132
L39.2131 -64.3701
L39.7069 -64.3183
L40.1995 -64.2579
L40.6908 -64.1889
L41.1807 -64.1113
L41.669 -64.0252
L42.1556 -63.9305
L42.6403 -63.8273
L43.123 -63.7156
L43.6035 -63.5955
L44.0817 -63.467
L44.5575 -63.3301
L45.0306 -63.1849
L45.501 -63.0314
L45.9685 -62.8697
L46.433 -62.6998
L46.8942 -62.5218
L47.3522 -62.3356
L47.8067 -62.1415
L48.2576 -61.9394
L48.7048 -61.7294
L49.1481 -61.5115
L49.5874 -61.2859
L50.0225 -61.0526
L50.4534 -60.8117
L50.8799 -60.5631
L51.3019 -60.3072
L51.7192 -60.0438
L52.1317 -59.7731
L52.5393 -59.4951
L52.9418 -59.21
L53.3392 -58.9178
L53.7313 -58.6186
L54.118 -58.3126
L54.4992 -57.9997
L54.8748 -57.6802
L55.2446 -57.354
L55.6085 -57.0213
L55.9665 -56.6823
L56.3184 -56.3369
L56.6641 -55.9854
L57.0035 -55.6277
L57.3365 -55.2641
L57.663 -54.8946
L57.9829 -54.5193
L58.2961 -54.1384
L58.6025 -53.752
L58.902 -53.3602
L59.1946 -52.9631
z
" id="C0_1_c8278c81e4"/>
     <path d="
M55.7588 -15.5417
L55.4801 -15.4602
L55.2024 -15.3828
L54.9258 -15.3093
L54.6501 -15.2397
L54.3754 -15.1738
L54.1015 -15.1116
L53.8285 -15.0529
L53.5562 -14.9977
L53.2847 -14.9459
L53.0137 -14.8975
L52.7434 -14.8523
L52.4736 -14.8103
L52.2043 -14.7715
L51.9353 -14.7357
L51.6667 -14.703
L51.3984 -14.6732
L51.1304 -14.6464
L50.8624 -14.6226
L50.5946 -14.6015
L50.3269 -14.5834
L50.0591 -14.568
L49.7912 -14.5554
L49.5232 -14.5456
L49.255 -14.5385
L48.9865 -14.5342
L48.7176 -14.5326
L48.4484 -14.5337
L48.1787 -14.5376
L47.9085 -14.5441
L47.6377 -14.5534
L47.3662 -14.5654
L47.0941 -14.5801
L46.8211 -14.5976
L46.5473 -14.6179
L46.2726 -14.6409
L45.997 -14.6667
L45.7203 -14.6953
L45.4425 -14.7268
L45.1636 -14.7611
L44.8835 -14.7984
L44.602 -14.8386
L44.3193 -14.8818
L44.0351 -14.928
L43.7495 -14.9773
L43.4623 -15.0297
L43.1736 -15.0854
L42.8832 -15.1442
L42.5911 -15.2063
L42.2972 -15.2718
L42.0015 -15.3406
L41.704 -15.413
L41.4045 -15.4889
L41.103 -15.5684
L40.7995 -15.6516
L40.494 -15.7386
L40.1863 -15.8294
L39.8764 -15.9242
L39.5643 -16.023
L39.25 -16.1259
L38.9333 -16.233
L38.6144 -16.3444
L38.2931 -16.4602
L37.9694 -16.5805
L37.6433 -16.7053
L37.3148 -16.8348
L36.9839 -16.9691
L36.6505 -17.1083
L36.3147 -17.2525
L35.9765 -17.4017
L35.6359 -17.5561
L35.2929 -17.7157
L34.9475 -17.8808
L34.5998 -18.0512
L34.2498 -18.2272
L33.8975 -18.4087
L33.5431 -18.596
L33.1866 -18.7889
L32.828 -18.9877
L32.4675 -19.1922
L32.1052 -19.4027
L31.7412 -19.6189
L31.3756 -19.8411
L31.0085 -20.069
L30.6402 -20.3028
L30.2707 -20.5422
L29.9002 -20.7872
L29.5289 -21.0376
L29.157 -21.2933
L28.7847 -21.554
L28.4122 -21.8194
L28.0398 -22.0891
L27.6677 -22.3627
L27.296 -22.6396
L26.9251 -22.9191
L26.5552 -23.2006
L26.1865 -23.4829
L25.8193 -23.765
L25.4538 -24.0455
L25.0902 -24.3226
L24.7287 -24.5944
L24.3695 -24.8586
L24.0128 -25.1122
L23.6586 -25.352
L23.307 -25.5742
L22.9581 -25.7748
L22.6118 -25.9496
L22.2681 -26.0942
L21.9268 -26.2053
L21.588 -26.2801
L21.2516 -26.3177
L20.9177 -26.3182
L20.5864 -26.2835
L20.2578 -26.2166
L19.9322 -26.1209
L19.6099 -26.0003
L19.2912 -25.8585
L18.9762 -25.6988
L18.6653 -25.5245
L18.3587 -25.338
L18.0567 -25.1416
L17.7594 -24.9374
L17.467 -24.7267
L17.1796 -24.5111
L16.8975 -24.2916
L16.6207 -24.0691
L16.3494 -23.8446
L16.0835 -23.6186
L15.8232 -23.3918
L15.5685 -23.1646
L15.3195 -22.9374
L15.0762 -22.7107
L14.8385 -22.4846
L14.6065 -22.2596
L14.3802 -22.0357
L14.1596 -21.8131
L13.9445 -21.5921
L13.735 -21.3728
L13.5311 -21.1552
L13.3326 -20.9394
L13.1395 -20.7256
L12.9517 -20.5137
L12.7692 -20.3038
L12.7094 -20.096
L12.9996 -19.5745
L13.2968 -19.1705
L13.601 -18.7716
L13.9119 -18.378
L14.2296 -17.9898
L14.5539 -17.6071
L14.8848 -17.2299
L15.2221 -16.8585
L15.5657 -16.4929
L15.9155 -16.1332
L16.2715 -15.7796
L16.6334 -15.4322
L17.0013 -15.091
L17.3749 -14.7562
L17.7543 -14.4279
L18.1391 -14.1061
L18.5295 -13.791
L18.9251 -13.4827
L19.3259 -13.1812
L19.7319 -12.8867
L20.1427 -12.5992
L20.5584 -12.3188
L20.9789 -12.0457
L21.4038 -11.7799
L21.8333 -11.5214
L22.267 -11.2704
L22.705 -11.0269
L23.1469 -10.791
L23.5928 -10.5628
L24.0425 -10.3424
L24.4958 -10.1298
L24.9527 -9.92503
L25.4128 -9.72822
L25.8763 -9.53942
L26.3428 -9.35868
L26.8122 -9.18605
L27.2844 -9.0216
L27.7593 -8.86536
L28.2367 -8.71738
L28.7165 -8.57772
L29.1985 -8.44641
L29.6825 -8.32349
L30.1685 -8.209
L30.6563 -8.10298
L31.1457 -8.00545
L31.6365 -7.91646
L32.1287 -7.83601
L32.6221 -7.76415
L33.1165 -7.70089
L33.6118 -7.64624
L34.1078 -7.60024
L34.6044 -7.56288
L35.1014 -7.53419
L35.5987 -7.51417
L36.0961 -7.50283
L36.5934 -7.50016
L37.0906 -7.50618
L37.5875 -7.52088
L38.0839 -7.54425
L38.5796 -7.57629
L39.0746 -7.61699
L39.5686 -7.66633
L40.0615 -7.7243
L40.5532 -7.79089
L41.0436 -7.86607
L41.5323 -7.94982
L42.0194 -8.04212
L42.5047 -8.14293
L42.988 -8.25222
L43.4691 -8.36997
L43.948 -8.49614
L44.4244 -8.63068
L44.8983 -8.77356
L45.3695 -8.92473
L45.8378 -9.08415
L46.3031 -9.25177
L46.7653 -9.42754
L47.2242 -9.6114
L47.6797 -9.8033
L48.1316 -10.0032
L48.5799 -10.211
L49.0243 -10.4266
L49.4647 -10.6501
L49.901 -10.8812
L50.3331 -11.1201
L50.7608 -11.3665
L51.1841 -11.6204
L51.6027 -11.8817
L52.0166 -12.1503
L52.4255 -12.4263
L52.8295 -12.7094
L53.2284 -12.9996
L53.622 -13.2968
L54.0102 -13.601
L54.3929 -13.9119
L54.7701 -14.2296
L55.1415 -14.5539
z
" id="C0_2_afedf0f2c8"/>
    </defs>
    <g clip-path="url(#p1bffca34e9)">
     <use style="fill:#ffffff;stroke:#000000;stroke-width:2.0;" x="0.0" xlink:href="#C0_0_a811fe30f3" y="72.0"/>
    </g>
    <g clip-path="url(#p1bffca34e9)">
     <use style="fill:#ff0000;stroke:#000000;stroke-width:2.0;" x="0.0" xlink:href="#C0_1_c8278c81e4" y="72.0"/>
    </g>
    <g clip-path="url(#p1bffca34e9)">
     <use style="fill:#ff0000;stroke:#000000;stroke-width:2.0;" x="0.0" xlink:href="#C0_2_afedf0f2c8" y="72.0"/>
    </g>
   </g>
  </g>
 </g>
 <defs>
  <clipPath id="p1bffca34e9">
   <rect height="72.0" width="72.0" x="0.0" y="0.0"/>
  </clipPath>
 </defs>
</svg>
