<?xml version="1.0" encoding="utf-8" standalone="no"?>
<!DOCTYPE svg PUBLIC "-//W3C//DTD SVG 1.1//EN"
  "http://www.w3.org/Graphics/SVG/1.1/DTD/svg11.dtd">
<!-- Created with matplotlib (http://matplotlib.org/) -->
<svg height="72pt" version="1.1" viewBox="0 0 72 72" width="72pt" xmlns="http://www.w3.org/2000/svg" xmlns:xlink="http://www.w3.org/1999/xlink">
 <defs>
  <style type="text/css">
*{stroke-linecap:butt;stroke-linejoin:round;}
  </style>
 </defs>
 <g id="figure_1">
  <g id="patch_1">
   <path d="
M0 72
L72 72
L72 0
L0 0
z
" style="fill:none;"/>
  </g>
  <g id="axes_1">
   <g id="PatchCollection_1">
    <defs>
     <path d="
M36 -7.5
C43.5583 -7.5 50.808 -10.5029 56.1525 -15.8475
C61.4971 -21.192 64.5 -28.4417 64.5 -36
C64.5 -43.5583 61.4971 -50.808 56.1525 -56.1525
C50.808 -61.4971 43.5583 -64.5 36 -64.5
C28.4417 -64.5 21.192 -61.4971 15.8475 -56.1525
C10.5029 -50.808 7.5 -43.5583 7.5 -36
C7.5 -28.4417 10.5029 -21.192 15.8475 -15.8475
C21.192 -10.5029 28.4417 -7.5 36 -7.5
z
" id="C0_0_a811fe30f3"/>
     <path d="
M17.5901 -57.6521
L17.5208 -57.3493
L17.4639 -57.0494
L17.4191 -56.7526
L17.3864 -56.4591
L17.3656 -56.1693
L17.3565 -55.8832
L17.3591 -55.601
L17.373 -55.3229
L17.3981 -55.0491
L17.434 -54.7796
L17.4807 -54.5145
L17.5377 -54.2538
L17.6048 -53.9978
L17.6818 -53.7463
L17.7682 -53.4993
L17.8639 -53.257
L17.9686 -53.0192
L18.0818 -52.7859
L18.2033 -52.5571
L18.3327 -52.3327
L18.4698 -52.1126
L18.6142 -51.8968
L18.7655 -51.6852
L18.9236 -51.4776
L19.088 -51.274
L19.2584 -51.0743
L19.4346 -50.8784
L19.6163 -50.6861
L19.8031 -50.4974
L19.9947 -50.3121
L20.191 -50.1301
L20.3916 -49.9513
L20.5963 -49.7756
L20.8048 -49.6029
L21.0169 -49.4331
L21.2324 -49.2661
L21.4509 -49.1017
L21.6724 -48.9399
L21.8967 -48.7806
L22.1234 -48.6237
L22.3525 -48.4691
L22.5837 -48.3167
L22.8169 -48.1664
L23.052 -48.0182
L23.2887 -47.8719
L23.527 -47.7276
L23.7667 -47.585
L24.0076 -47.4443
L24.2497 -47.3052
L24.4929 -47.1677
L24.737 -47.0318
L24.9819 -46.8974
L25.2276 -46.7645
L25.4739 -46.633
L25.7208 -46.5028
L25.9682 -46.3739
L26.2161 -46.2463
L26.4643 -46.1199
L26.7128 -45.9946
L26.9616 -45.8705
L27.2106 -45.7475
L27.4598 -45.6255
L27.7091 -45.5045
L27.9585 -45.3845
L28.2079 -45.2655
L28.4574 -45.1474
L28.7068 -45.0301
L28.9562 -44.9137
L29.2056 -44.7981
L29.4549 -44.6833
L29.7041 -44.5692
L29.9533 -44.4559
L30.2023 -44.3433
L30.4513 -44.2314
L30.7001 -44.1202
L30.9488 -44.0095
L31.1974 -43.8995
L31.4459 -43.7901
L31.6943 -43.6813
L31.9426 -43.573
L32.1908 -43.4652
L32.4389 -43.358
L32.687 -43.2513
L32.9349 -43.145
L33.1828 -43.0391
L33.4307 -42.9338
L33.6785 -42.8288
L33.9263 -42.7242
L34.1742 -42.6201
L34.422 -42.5163
L34.6699 -42.4129
L34.9178 -42.3098
L35.1658 -42.207
L35.4139 -42.1046
L35.6622 -42.0025
L35.9105 -41.9007
L36.4077 -41.7992
L36.6566 -41.6979
L36.9057 -41.5969
L37.1551 -41.4962
L37.4047 -41.3957
L37.6546 -41.2955
L37.9049 -41.1955
L38.1554 -41.0957
L38.4064 -40.9961
L38.6577 -40.8968
L38.9094 -40.7976
L39.1616 -40.6987
L39.4142 -40.6
L39.6672 -40.5015
L39.9208 -40.4032
L40.1749 -40.3051
L40.4296 -40.2072
L40.6848 -40.1095
L40.9406 -40.012
L41.1969 -39.9147
L41.454 -39.8177
L41.7116 -39.7209
L41.9699 -39.6243
L42.2289 -39.528
L42.4886 -39.4319
L42.749 -39.3361
L43.0102 -39.2406
L43.2721 -39.1454
L43.5347 -39.0506
L43.7981 -38.956
L44.0623 -38.8619
L44.3272 -38.7682
L44.593 -38.6749
L44.8595 -38.582
L45.1269 -38.4896
L45.3951 -38.3978
L45.6641 -38.3065
L45.9339 -38.2159
L46.2045 -38.1259
L46.4759 -38.0366
L46.7481 -37.9481
L47.0211 -37.8603
L47.2948 -37.7735
L47.5694 -37.6876
L47.8447 -37.6027
L48.1207 -37.5189
L48.3974 -37.4363
L48.6749 -37.3549
L48.9529 -37.2749
L49.2316 -37.1963
L49.5109 -37.1193
L49.7908 -37.0439
L50.0712 -36.9702
L50.3521 -36.8984
L50.6334 -36.8287
L50.915 -36.761
L51.197 -36.6957
L51.4793 -36.6328
L51.7618 -36.5724
L52.0444 -36.5148
L52.3271 -36.4601
L52.6097 -36.4085
L52.8923 -36.3602
L53.1748 -36.3154
L53.4569 -36.2742
L53.7387 -36.2369
L54.0201 -36.2037
L54.3009 -36.1748
L54.5811 -36.1505
L54.8604 -36.131
L55.1389 -36.1164
L55.4164 -36.1072
L55.6927 -36.1035
L55.9678 -36.1056
L56.2414 -36.1137
L56.5135 -36.1281
L56.7839 -36.1491
L57.0524 -36.177
L57.3188 -36.2119
L57.5831 -36.2542
L57.8451 -36.3041
L58.1044 -36.3618
L58.3611 -36.4276
L58.6149 -36.5018
L58.8655 -36.5845
L59.1129 -36.6759
L59.3567 -36.7763
L59.5969 -36.8858
L59.8332 -37.0045
L60.0654 -37.1327
L60.2932 -37.2704
L60.5165 -37.4177
L60.735 -37.5747
L60.9486 -37.7415
L61.157 -37.9181
L61.36 -38.1045
L61.5574 -38.3006
L61.749 -38.5065
L61.9345 -38.7221
L62.1138 -38.9472
L62.2867 -39.1818
L62.4529 -39.4257
L62.6123 -39.6788
L62.7646 -39.9409
L62.9098 -40.2118
L63.0476 -40.4914
L63.1779 -40.7793
L63.3004 -41.0753
L63.4151 -41.3792
L63.5218 -41.6908
L63.6204 -42.0096
L63.6631 -42.3356
L63.5393 -42.8557
L63.407 -43.3374
L63.2664 -43.8169
L63.1175 -44.2941
L62.9604 -44.7687
L62.795 -45.2406
L62.6214 -45.7097
L62.4398 -46.1759
L62.2501 -46.6389
L62.0524 -47.0988
L61.8468 -47.5552
L61.6333 -48.0081
L61.4119 -48.4574
L61.1829 -48.9028
L60.9462 -49.3444
L60.7018 -49.7818
L60.45 -50.2151
L60.1907 -50.6441
L59.924 -51.0685
L59.6501 -51.4884
L59.3689 -51.9036
L59.0806 -52.3139
L58.7853 -52.7193
L58.4831 -53.1196
L58.174 -53.5146
L57.8581 -53.9043
L57.5356 -54.2886
L57.2066 -54.6673
L56.871 -55.0403
L56.5291 -55.4075
L56.181 -55.7688
L55.8267 -56.124
L55.4664 -56.4732
L55.1001 -56.8161
L54.7281 -57.1527
L54.3503 -57.4828
L53.9669 -57.8064
L53.5781 -58.1233
L53.1839 -58.4335
L52.7844 -58.7369
L52.3799 -59.0333
L51.9704 -59.3227
L51.556 -59.605
L51.1368 -59.8802
L50.7131 -60.148
L50.2849 -60.4085
L49.8523 -60.6616
L49.4155 -60.9071
L48.9746 -61.1451
L48.5298 -61.3754
L48.0811 -61.598
L47.6288 -61.8127
L47.1729 -62.0196
L46.7136 -62.2186
L46.2511 -62.4096
L45.7854 -62.5926
L45.3168 -62.7674
L44.8453 -62.9341
L44.3711 -63.0926
L43.8944 -63.2429
L43.4152 -63.3848
L42.9338 -63.5184
L42.4503 -63.6437
L41.9649 -63.7605
L41.4776 -63.8688
L40.9886 -63.9687
L40.4982 -64.06
L40.0063 -64.1428
L39.5132 -64.217
L39.0191 -64.2826
L38.5241 -64.3396
L38.0282 -64.388
L37.5318 -64.4277
L37.0349 -64.4588
L36.5377 -64.4812
L36.0403 -64.4949
L35.5429 -64.5
L35.0456 -64.4963
L34.5486 -64.484
L34.0521 -64.463
L33.5562 -64.4334
L33.061 -64.395
L32.5667 -64.3481
L32.0734 -64.2924
L31.5814 -64.2282
L31.0907 -64.1554
L30.6015 -64.074
L30.1139 -63.984
L29.6281 -63.8856
L29.1443 -63.7786
L28.6626 -63.6631
L28.1831 -63.5393
L27.7059 -63.407
L27.2313 -63.2664
L26.7594 -63.1175
L26.2903 -62.9604
L25.8241 -62.795
L25.3611 -62.6214
L24.9012 -62.4398
L24.4448 -62.2501
L23.9919 -62.0524
L23.5426 -61.8468
L23.0972 -61.6333
L22.6556 -61.4119
L22.2182 -61.1829
L21.7849 -60.9462
L21.3559 -60.7018
L20.9315 -60.45
L20.5116 -60.1907
L20.0964 -59.924
L19.6861 -59.6501
L19.2807 -59.3689
L18.8804 -59.0806
L18.4854 -58.7853
L18.0957 -58.4831
z
" id="C0_1_b17a1ced09"/>
     <path d="
M8.29275 -29.3325
L8.52339 -29.0722
L8.75607 -28.8114
L8.99077 -28.5502
L9.22745 -28.2891
L9.46609 -28.0281
L9.70664 -27.7676
L9.94907 -27.5077
L10.1933 -27.2487
L10.4394 -26.9907
L10.6872 -26.7339
L10.9367 -26.4786
L11.1878 -26.2247
L11.4405 -25.9725
L11.6948 -25.7221
L11.9506 -25.4737
L12.2078 -25.2273
L12.4664 -24.983
L12.7264 -24.741
L12.9876 -24.5013
L13.2501 -24.264
L13.5138 -24.0292
L13.7786 -23.7969
L14.0445 -23.5672
L14.3115 -23.3401
L14.5795 -23.1156
L14.8484 -22.8939
L15.1183 -22.675
L15.3891 -22.4587
L15.6607 -22.2453
L15.9332 -22.0347
L16.2064 -21.8269
L16.4804 -21.6219
L16.7551 -21.4197
L17.0305 -21.2203
L17.3067 -21.0238
L17.5834 -20.83
L17.8608 -20.6391
L18.1389 -20.451
L18.4175 -20.2656
L18.6967 -20.0831
L18.9765 -19.9033
L19.2569 -19.7262
L19.5378 -19.5519
L19.8192 -19.3803
L20.1013 -19.2114
L20.3838 -19.0451
L20.6669 -18.8815
L20.9506 -18.7206
L21.2348 -18.5622
L21.5195 -18.4065
L21.8048 -18.2533
L22.0906 -18.1026
L22.377 -17.9545
L22.664 -17.8089
L22.9516 -17.6658
L23.2397 -17.5251
L23.5285 -17.3869
L23.8179 -17.2511
L24.1079 -17.1178
L24.3985 -16.9868
L24.6899 -16.8582
L24.9819 -16.7319
L25.2746 -16.608
L25.568 -16.4864
L25.8622 -16.3671
L26.1571 -16.2501
L26.4528 -16.1353
L26.7494 -16.0229
L27.0467 -15.9127
L27.3449 -15.8047
L27.6439 -15.699
L27.9438 -15.5955
L28.2447 -15.4942
L28.5465 -15.3951
L28.8492 -15.2983
L29.1529 -15.2036
L29.4577 -15.1112
L29.7634 -15.0209
L30.0703 -14.9328
L30.3782 -14.8469
L30.6872 -14.7632
L30.9973 -14.6817
L31.3086 -14.6024
L31.621 -14.5253
L31.9346 -14.4504
L32.2495 -14.3777
L32.5656 -14.3072
L32.8829 -14.239
L33.2015 -14.1729
L33.5214 -14.1091
L33.8426 -14.0476
L34.1651 -13.9882
L34.4889 -13.9312
L34.8141 -13.8764
L35.1407 -13.824
L35.4686 -13.7738
L35.7979 -13.7259
L36.1286 -13.6804
L36.4606 -13.6371
L36.7941 -13.5963
L37.1289 -13.5578
L37.4651 -13.5217
L37.8027 -13.4879
L38.1417 -13.4566
L38.482 -13.4277
L38.8237 -13.4012
L39.1667 -13.3771
L39.511 -13.3554
L39.8566 -13.3363
L40.2035 -13.3195
L40.5516 -13.3052
L40.9009 -13.2934
L41.2513 -13.284
L41.6028 -13.2771
L41.9554 -13.2727
L42.309 -13.2706
L42.6635 -13.271
L43.0189 -13.2738
L43.3751 -13.279
L43.7321 -13.2866
L44.0897 -13.2964
L44.448 -13.3086
L44.8067 -13.323
L45.1657 -13.3397
L45.5251 -13.3584
L45.8847 -13.3793
L46.2443 -13.4022
L46.6039 -13.427
L46.9633 -13.4537
L47.3224 -13.4821
L47.6811 -13.5122
L48.0392 -13.5439
L48.3966 -13.577
L48.7531 -13.6114
L49.1085 -13.647
L49.4628 -13.6836
L49.8157 -13.721
L50.167 -13.7591
L50.5167 -13.7978
L50.8645 -13.8368
L51.2102 -13.8759
L51.5536 -13.915
L51.8946 -13.9538
L52.233 -13.9921
L52.5686 -14.0296
L52.9011 -14.0663
L53.2305 -14.1018
L53.5565 -14.1358
L53.879 -14.1683
L53.8784 -14.1988
L53.4883 -13.8051
L53.0929 -13.4965
L52.6923 -13.1947
L52.2866 -12.8999
L51.876 -12.612
L51.4605 -12.3314
L51.0403 -12.0579
L50.6155 -11.7917
L50.1862 -11.5329
L49.7527 -11.2816
L49.3149 -11.0378
L48.8731 -10.8015
L48.4274 -10.573
L47.9779 -10.3522
L47.5248 -10.1392
L47.0681 -9.93412
L46.608 -9.73695
L46.1448 -9.54779
L45.6784 -9.36668
L45.2091 -9.19369
L44.737 -9.02886
L44.2622 -8.87225
L43.7849 -8.7239
L43.3053 -8.58386
L42.8234 -8.45217
L42.3394 -8.32887
L41.8535 -8.214
L41.3658 -8.10759
L40.8765 -8.00968
L40.3857 -7.9203
L39.8936 -7.83947
L39.4002 -7.76722
L38.9059 -7.70356
L38.4106 -7.64853
L37.9147 -7.60213
L37.4181 -7.56439
L36.9211 -7.5353
L36.4238 -7.51489
L35.9264 -7.50315
L35.4291 -7.50009
L34.9318 -7.50572
L34.435 -7.52002
L33.9386 -7.543
L33.4428 -7.57465
L32.9478 -7.61496
L32.4537 -7.66391
L31.9607 -7.72149
L31.469 -7.78769
L30.9786 -7.86248
L30.4897 -7.94585
L30.0026 -8.03776
L29.5172 -8.13818
L29.0339 -8.24709
L28.5526 -8.36446
L28.0736 -8.49025
L27.5971 -8.62441
L27.1231 -8.76691
L26.6518 -8.91771
L26.1833 -9.07676
L25.7179 -9.24401
L25.2555 -9.41941
L24.7965 -9.60291
L24.3408 -9.79444
L23.8887 -9.99396
L23.4403 -10.2014
L22.9958 -10.4167
L22.5552 -10.6398
L22.1186 -10.8706
L21.6863 -11.1091
L21.2584 -11.3551
L20.835 -11.6087
L20.4161 -11.8697
L20.0021 -12.138
L19.5929 -12.4136
L19.1887 -12.6964
L18.7896 -12.9863
L18.3957 -13.2832
L18.0073 -13.5871
L17.6243 -13.8977
L17.2469 -14.2151
L16.8752 -14.5391
L16.5093 -14.8697
L16.1494 -15.2067
L15.7955 -15.55
L15.4478 -15.8995
L15.1063 -16.2552
L14.7712 -16.6169
L14.4426 -16.9845
L14.1205 -17.3579
L13.8051 -17.737
L13.4965 -18.1216
L13.1947 -18.5117
L12.8999 -18.9071
L12.612 -19.3077
L12.3314 -19.7134
L12.0579 -20.124
L11.7917 -20.5395
L11.5329 -20.9597
L11.2816 -21.3845
L11.0378 -21.8138
L10.8015 -22.2473
L10.573 -22.6851
L10.3522 -23.1269
L10.1392 -23.5726
L9.93412 -24.0221
L9.73695 -24.4752
L9.54779 -24.9319
L9.36668 -25.392
L9.19369 -25.8552
L9.02886 -26.3216
L8.87225 -26.7909
L8.7239 -27.263
L8.58386 -27.7378
L8.45217 -28.2151
z
" id="C0_2_8126b96a60"/>
    </defs>
    <g clip-path="url(#p1bffca34e9)">
     <use style="fill:#ff0000;stroke:#000000;stroke-width:2.0;" x="0.0" xlink:href="#C0_0_a811fe30f3" y="72.0"/>
    </g>
    <g clip-path="url(#p1bffca34e9)">
     <use style="fill:#ffffff;stroke:#000000;stroke-width:2.0;" x="0.0" xlink:href="#C0_1_b17a1ced09" y="72.0"/>
    </g>
    <g clip-path="url(#p1bffca34e9)">
     <use style="fill:#ffffff;stroke:#000000;stroke-width:2.0;" x="0.0" xlink:href="#C0_2_8126b96a60" y="72.0"/>
    </g>
   </g>
  </g>
 </g>
 <defs>
  <clipPath id="p1bffca34e9">
   <rect height="72.0" width="72.0" x="0.0" y="0.0"/>
  </clipPath>
 </defs>
</svg>
