<?xml version="1.0" encoding="utf-8" standalone="no"?>
<!DOCTYPE svg PUBLIC "-//W3C//DTD SVG 1.1//EN"
  "http://www.w3.org/Graphics/SVG/1.1/DTD/svg11.dtd">
<!-- Created with matplotlib (http://matplotlib.org/) -->
<svg height="72pt" version="1.1" viewBox="0 0 72 72" width="72pt" xmlns="http://www.w3.org/2000/svg" xmlns:xlink="http://www.w3.org/1999/xlink">
 <defs>
  <style type="text/css">
*{stroke-linecap:butt;stroke-linejoin:round;}
  </style>
 </defs>
 <g id="figure_1">
  <g id="patch_1">
   <path d="
M0 72
L72 72
L72 0
L0 0
z
" style="fill:none;"/>
  </g>
  <g id="axes_1">
   <g id="PatchCollection_1">
    <defs>
     <path d="
M36 -7.5
C43.5583 -7.5 50.808 -10.5029 56.1525 -15.8475
C61.4971 -21.192 64.5 -28.4417 64.5 -36
C64.5 -43.5583 61.4971 -50.808 56.1525 -56.1525
C50.808 -61.4971 43.5583 -64.5 36 -64.5
C28.4417 -64.5 21.192 -61.4971 15.8475 -56.1525
C10.5029 -50.808 7.5 -43.5583 7.5 -36
C7.5 -28.4417 10.5029 -21.192 15.8475 -15.8475
C21.192 -10.5029 28.4417 -7.5 36 -7.5
z
" id="C0_0_a811fe30f3"/>
     <path d="
M7.74912 -38.9379
L7.9281 -38.9041
L8.108 -38.8708
L8.28886 -38.838
L8.4707 -38.8056
L8.65357 -38.7736
L9.02252 -38.7421
L9.20867 -38.711
L9.39599 -38.6803
L9.58452 -38.65
L9.77431 -38.62
L9.96539 -38.5904
L10.1578 -38.5611
L10.3516 -38.5322
L10.5468 -38.5035
L10.7435 -38.4752
L10.9418 -38.4472
L11.1416 -38.4194
L11.343 -38.3919
L11.5461 -38.3647
L11.7509 -38.3378
L11.9575 -38.3111
L12.1659 -38.2846
L12.3762 -38.2584
L12.5885 -38.2325
L12.8028 -38.2067
L13.0191 -38.1813
L13.2375 -38.156
L13.4581 -38.1309
L13.681 -38.1061
L13.9061 -38.0815
L14.1337 -38.0571
L14.3636 -38.033
L14.596 -38.0091
L14.831 -37.9854
L15.0685 -37.9619
L15.3088 -37.9386
L15.5518 -37.9156
L15.7976 -37.8929
L16.0463 -37.8704
L16.2979 -37.8481
L16.5525 -37.8261
L16.8101 -37.8044
L17.0709 -37.783
L17.3348 -37.7619
L17.602 -37.7411
L17.8725 -37.7207
L18.1463 -37.7006
L18.4236 -37.6809
L18.7043 -37.6616
L18.9885 -37.6427
L19.2762 -37.6243
L19.5675 -37.6064
L19.8625 -37.589
L20.1611 -37.5721
L20.4634 -37.5559
L20.7694 -37.5403
L21.0791 -37.5254
L21.3925 -37.5113
L21.7097 -37.498
L22.0305 -37.4855
L22.3551 -37.4741
L22.6832 -37.4636
L23.015 -37.4543
L23.3504 -37.4461
L23.6892 -37.4393
L24.0313 -37.4339
L24.3768 -37.4301
L24.7254 -37.428
L25.0771 -37.4277
L25.4316 -37.4294
L25.7887 -37.4332
L26.1483 -37.4395
L26.5101 -37.4484
L26.8739 -37.46
L27.2393 -37.4748
L27.606 -37.493
L27.9736 -37.5148
L28.3418 -37.5407
L28.7101 -37.571
L29.078 -37.6062
L29.445 -37.6466
L29.8106 -37.6927
L30.174 -37.7451
L30.5347 -37.8043
L30.892 -37.871
L31.2452 -37.9457
L31.5935 -38.029
L31.9361 -38.1218
L32.2724 -38.2246
L32.6014 -38.3381
L32.9225 -38.463
L33.235 -38.5999
L33.5382 -38.7493
L33.8316 -38.9118
L34.1147 -39.0876
L34.3871 -39.2771
L34.6486 -39.4803
L34.8991 -39.6971
L35.1385 -39.9274
L35.3669 -40.1707
L35.5847 -40.4267
L35.7919 -40.6946
L35.9891 -40.9737
L36.1766 -41.2633
L36.3549 -41.5625
L36.5244 -41.8703
L36.6857 -42.1859
L36.8391 -42.5084
L36.9851 -42.8369
L37.1243 -43.1705
L37.2569 -43.5085
L37.3835 -43.85
L37.5043 -44.1944
L37.6198 -44.541
L37.7302 -44.8891
L37.8358 -45.2382
L37.937 -45.5878
L38.0339 -45.9374
L38.1268 -46.2865
L38.216 -46.6347
L38.3015 -46.9818
L38.3837 -47.3273
L38.4626 -47.671
L38.5384 -48.0127
L38.6113 -48.3521
L38.6814 -48.6889
L38.7488 -49.0231
L38.8136 -49.3545
L38.876 -49.6829
L38.936 -50.0083
L38.9937 -50.3304
L39.0493 -50.6494
L39.1027 -50.965
L39.1542 -51.2772
L39.2037 -51.5861
L39.2513 -51.8915
L39.2971 -52.1935
L39.3412 -52.4921
L39.3836 -52.7871
L39.4243 -53.0788
L39.4635 -53.367
L39.5011 -53.6518
L39.5373 -53.9332
L39.572 -54.2113
L39.6053 -54.486
L39.6372 -54.7575
L39.6679 -55.0258
L39.6972 -55.2909
L39.7253 -55.5528
L39.7522 -55.8117
L39.7779 -56.0675
L39.8024 -56.3204
L39.8258 -56.5703
L39.8481 -56.8174
L39.8694 -57.0617
L39.8895 -57.3033
L39.9087 -57.5422
L39.9268 -57.7784
L39.9439 -58.0121
L39.9601 -58.2434
L39.9753 -58.4721
L39.9895 -58.6985
L40.0028 -58.9226
L40.0152 -59.1445
L40.0267 -59.3641
L40.0373 -59.5816
L40.047 -59.7971
L40.0558 -60.0105
L40.0637 -60.222
L40.0708 -60.4315
L40.077 -60.6392
L40.0824 -60.8451
L40.0869 -61.0493
L40.0905 -61.2518
L40.0933 -61.4527
L40.0953 -61.6519
L40.0963 -61.8497
L40.0965 -62.046
L40.0959 -62.2408
L40.0944 -62.4342
L40.092 -62.6263
L40.0887 -62.8172
L40.0845 -63.0067
L40.0794 -63.1951
L40.0734 -63.3823
L40.0665 -63.5684
L40.0586 -63.7534
L40.0497 -63.9374
L39.5696 -64.1204
L39.0755 -64.2756
L38.5806 -64.3336
L38.0848 -64.3829
L37.5885 -64.4236
L37.0916 -64.4557
L36.5944 -64.4791
L36.097 -64.4938
L35.5996 -64.4998
L35.1023 -64.4972
L34.6053 -64.4859
L34.1087 -64.4659
L33.6127 -64.4372
L33.1174 -64.3998
L32.623 -64.3539
L32.1297 -64.2992
L31.6375 -64.236
L31.1466 -64.1641
L30.6572 -64.0837
L30.1694 -63.9947
L29.6835 -63.8972
L29.1994 -63.7912
L28.7174 -63.6767
L28.2376 -63.5538
L27.7602 -63.4225
L27.2853 -63.2829
L26.8131 -63.1349
L26.3436 -62.9787
L25.8771 -62.8143
L25.4137 -62.6417
L24.9535 -62.4609
L24.4967 -62.2721
L24.0434 -62.0754
L23.5937 -61.8706
L23.1478 -61.658
L22.7058 -61.4376
L22.2679 -61.2094
L21.8341 -60.9736
L21.4047 -60.7301
L20.9797 -60.4791
L20.5592 -60.2206
L20.1435 -59.9548
L19.7326 -59.6817
L19.3267 -59.4013
L18.9259 -59.1139
L18.5302 -58.8194
L18.1399 -58.5179
L17.755 -58.2096
L17.3756 -57.8945
L17.002 -57.5727
L16.6341 -57.2444
L16.2721 -56.9096
L15.9162 -56.5685
L15.5663 -56.221
L15.2227 -55.8674
L14.8854 -55.5078
L14.5546 -55.1422
L14.2302 -54.7708
L13.9125 -54.3937
L13.6016 -54.0109
L13.2974 -53.6227
L13.0002 -53.2291
L12.7099 -52.8303
L12.4268 -52.4263
L12.1509 -52.0173
L11.8822 -51.6035
L11.6208 -51.1849
L11.3669 -50.7617
L11.1205 -50.3339
L10.8817 -49.9018
L10.6505 -49.4655
L10.427 -49.0251
L10.2114 -48.5807
L10.0036 -48.1325
L9.80367 -47.6806
L9.61176 -47.2251
L9.42788 -46.7662
L9.2521 -46.304
L9.08446 -45.8387
L8.92503 -45.3704
L8.77384 -44.8992
L8.63094 -44.4253
L8.49638 -43.9489
L8.3702 -43.47
L8.25244 -42.9889
L8.14313 -42.5056
L8.0423 -42.0203
L7.94999 -41.5333
L7.86622 -41.0445
L7.79103 -40.5542
L7.72442 -40.0625
z
" id="C0_1_2b1243e7a8"/>
     <path d="
M31.9854 -7.87468
L32.0461 -8.04788
L32.107 -8.2224
L32.1681 -8.39827
L32.2293 -8.57554
L32.2908 -8.75425
L32.3525 -8.93445
L32.4144 -9.11617
L32.4766 -9.29946
L32.539 -9.48438
L32.6017 -9.67097
L32.6648 -9.85927
L32.7281 -10.0493
L32.7918 -10.2412
L32.8559 -10.435
L32.9203 -10.6307
L32.9851 -10.8284
L33.0504 -11.0281
L33.116 -11.2299
L33.1822 -11.4338
L33.2488 -11.64
L33.3159 -11.8484
L33.3835 -12.0591
L33.4516 -12.2723
L33.5203 -12.4878
L33.5896 -12.7059
L33.6595 -12.9265
L33.73 -13.1498
L33.8012 -13.3757
L33.873 -13.6044
L33.9455 -13.8359
L34.0187 -14.0702
L34.0927 -14.3075
L34.1675 -14.5478
L34.2431 -14.7911
L34.3194 -15.0375
L34.3967 -15.287
L34.4748 -15.5398
L34.5538 -15.7959
L34.6338 -16.0552
L34.7148 -16.3179
L34.7968 -16.584
L34.8798 -16.8536
L34.9639 -17.1266
L35.0491 -17.4032
L35.1355 -17.6833
L35.2231 -17.9669
L35.3119 -18.2541
L35.402 -18.5449
L35.4934 -18.8392
L35.5862 -19.1372
L35.6805 -19.4386
L35.7762 -19.7436
L35.8735 -20.052
L35.9724 -20.3639
L36.073 -20.679
L36.1754 -20.9975
L36.2796 -21.319
L36.3857 -21.6436
L36.4939 -21.9711
L36.6042 -22.3013
L36.7168 -22.634
L36.8317 -22.969
L36.9492 -23.306
L37.0693 -23.6449
L37.1922 -23.9852
L37.3182 -24.3266
L37.4474 -24.6688
L37.58 -25.0112
L37.7163 -25.3536
L37.8566 -25.6952
L38.0011 -26.0356
L38.1503 -26.3742
L38.3044 -26.7103
L38.4638 -27.0432
L38.6289 -27.3722
L38.8001 -27.6963
L38.978 -28.0149
L39.163 -28.327
L39.3555 -28.6318
L39.556 -28.9283
L39.7651 -29.2157
L39.983 -29.4931
L40.2103 -29.7598
L40.4471 -30.015
L40.6939 -30.2581
L40.9506 -30.4886
L41.2173 -30.7062
L41.4939 -30.9106
L41.7803 -31.1019
L42.0761 -31.2802
L42.3809 -31.4455
L42.6942 -31.5985
L43.0153 -31.7394
L43.3436 -31.8689
L43.6785 -31.9875
L44.0191 -32.096
L44.3647 -32.195
L44.7146 -32.2852
L45.0681 -32.3673
L45.4245 -32.4418
L45.7832 -32.5095
L46.1434 -32.5708
L46.5047 -32.6264
L46.8665 -32.6767
L47.2282 -32.7223
L47.5895 -32.7635
L47.9498 -32.8008
L48.3089 -32.8344
L48.6663 -32.8648
L49.0218 -32.8923
L49.375 -32.9171
L49.7257 -32.9394
L50.0737 -32.9595
L50.4188 -32.9776
L50.7608 -32.9938
L51.0995 -33.0084
L51.4349 -33.0215
L51.7667 -33.0332
L52.095 -33.0437
L52.4197 -33.053
L52.7406 -33.0613
L53.0578 -33.0686
L53.3711 -33.0751
L53.6807 -33.0808
L53.9864 -33.0858
L54.2882 -33.0902
L54.5862 -33.0939
L54.8804 -33.0971
L55.1708 -33.0998
L55.4574 -33.1021
L55.7403 -33.1039
L56.0194 -33.1054
L56.2949 -33.1065
L56.5667 -33.1073
L56.835 -33.1078
L57.0997 -33.1081
L57.361 -33.1081
L57.6189 -33.1078
L57.8734 -33.1074
L58.1246 -33.1068
L58.3726 -33.106
L58.6174 -33.1051
L58.8592 -33.104
L59.0978 -33.1028
L59.3336 -33.1014
L59.5664 -33.0999
L59.7963 -33.0984
L60.0235 -33.0967
L60.2479 -33.0949
L60.4698 -33.0931
L60.689 -33.0911
L60.9057 -33.0891
L61.1199 -33.087
L61.3318 -33.0849
L61.5413 -33.0826
L61.7486 -33.0803
L61.9536 -33.078
L62.1565 -33.0756
L62.3572 -33.0731
L62.556 -33.0706
L62.7527 -33.068
L62.9476 -33.0654
L63.1405 -33.0627
L63.3317 -33.0599
L63.521 -33.0571
L63.7087 -33.0542
L63.8946 -33.0513
L64.079 -33.0483
L64.2895 -33.0452
L64.2248 -32.5422
L64.1516 -32.049
L64.0697 -31.557
L63.9793 -31.0664
L63.8804 -30.5773
L63.7731 -30.0898
L63.6572 -29.6041
L63.5329 -29.1204
L63.4003 -28.6387
L63.2592 -28.1593
L63.1099 -27.6823
L62.9524 -27.2079
L62.7866 -26.7361
L62.6126 -26.2671
L62.4306 -25.8011
L62.2405 -25.3382
L62.0424 -24.8785
L61.8364 -24.4223
L61.6225 -23.9695
L61.4008 -23.5205
L61.1713 -23.0752
L60.9342 -22.6338
L60.6895 -22.1966
L60.4373 -21.7635
L60.1776 -21.3348
L59.9106 -20.9105
L59.6363 -20.4909
L59.3548 -20.0759
L59.0662 -19.6659
L58.7705 -19.2608
L58.4679 -18.8607
L58.1585 -18.466
L57.8423 -18.0765
L57.5195 -17.6925
L57.1901 -17.3141
L56.8542 -16.9414
L56.512 -16.5745
L56.1636 -16.2135
L55.809 -15.8585
L55.4484 -15.5097
L55.0818 -15.1671
L54.7095 -14.8308
L54.3314 -14.501
L53.9478 -14.1778
L53.5587 -13.8612
L53.1642 -13.5513
L52.7645 -13.2483
L52.3597 -12.9522
L51.9499 -12.6631
L51.5353 -12.3812
L51.1159 -12.1064
L50.692 -11.8389
L50.2635 -11.5788
L49.8307 -11.3261
L49.3937 -11.0809
L48.9526 -10.8433
L48.5076 -10.6134
L48.0588 -10.3912
L47.6063 -10.1768
L47.1502 -9.97031
L46.6908 -9.77171
L46.2281 -9.58111
L45.7622 -9.39856
L45.2935 -9.2241
L44.8218 -9.05781
L44.3475 -8.89972
L43.8707 -8.74988
L43.3914 -8.60835
L42.9099 -8.47516
L42.4263 -8.35035
L41.9408 -8.23397
L41.4534 -8.12604
L40.9643 -8.02661
L40.4738 -7.93569
L39.9819 -7.85333
L39.4888 -7.77954
L38.9946 -7.71434
L38.4995 -7.65776
L38.0036 -7.60982
L37.5072 -7.57052
L37.0102 -7.53988
L36.513 -7.51791
L36.0156 -7.50462
L35.5182 -7.5
L35.021 -7.50407
L34.524 -7.51682
L34.0275 -7.53825
L33.5316 -7.56834
L33.0365 -7.60709
L32.5422 -7.6545
z
" id="C0_2_0138bbd487"/>
    </defs>
    <g clip-path="url(#p1bffca34e9)">
     <use style="fill:#ffffff;stroke:#000000;stroke-width:2.0;" x="0.0" xlink:href="#C0_0_a811fe30f3" y="72.0"/>
    </g>
    <g clip-path="url(#p1bffca34e9)">
     <use style="fill:#ff0000;stroke:#000000;stroke-width:2.0;" x="0.0" xlink:href="#C0_1_2b1243e7a8" y="72.0"/>
    </g>
    <g clip-path="url(#p1bffca34e9)">
     <use style="fill:#ff0000;stroke:#000000;stroke-width:2.0;" x="0.0" xlink:href="#C0_2_0138bbd487" y="72.0"/>
    </g>
   </g>
  </g>
 </g>
 <defs>
  <clipPath id="p1bffca34e9">
   <rect height="72.0" width="72.0" x="0.0" y="0.0"/>
  </clipPath>
 </defs>
</svg>
