<?xml version="1.0" encoding="utf-8" standalone="no"?>
<!DOCTYPE svg PUBLIC "-//W3C//DTD SVG 1.1//EN"
  "http://www.w3.org/Graphics/SVG/1.1/DTD/svg11.dtd">
<!-- Created with matplotlib (http://matplotlib.org/) -->
<svg height="72pt" version="1.1" viewBox="0 0 72 72" width="72pt" xmlns="http://www.w3.org/2000/svg" xmlns:xlink="http://www.w3.org/1999/xlink">
 <defs>
  <style type="text/css">
*{stroke-linecap:butt;stroke-linejoin:round;}
  </style>
 </defs>
 <g id="figure_1">
  <g id="patch_1">
   <path d="
M0 72
L72 72
L72 0
L0 0
z
" style="fill:none;"/>
  </g>
  <g id="axes_1">
   <g id="PatchCollection_1">
    <defs>
     <path d="
M36 -7.5
C43.5583 -7.5 50.808 -10.5029 56.1525 -15.8475
C61.4971 -21.192 64.5 -28.4417 64.5 -36
C64.5 -43.5583 61.4971 -50.808 56.1525 -56.1525
C50.808 -61.4971 43.5583 -64.5 36 -64.5
C28.4417 -64.5 21.192 -61.4971 15.8475 -56.1525
C10.5029 -50.808 7.5 -43.5583 7.5 -36
C7.5 -28.4417 10.5029 -21.192 15.8475 -15.8475
C21.192 -10.5029 28.4417 -7.5 36 -7.5
z
" id="C0_0_a811fe30f3"/>
     <path d="
M46.4318 -30.5052
L46.2967 -30.2795
L46.1603 -30.0545
L46.0225 -29.8302
L45.8833 -29.6066
L45.7425 -29.3835
L45.6003 -29.161
L45.4565 -28.939
L45.3111 -28.7174
L45.1641 -28.4962
L45.0154 -28.2754
L44.865 -28.055
L44.7128 -27.8348
L44.5588 -27.6148
L44.4029 -27.395
L44.2451 -27.1755
L44.0854 -26.956
L43.9236 -26.7367
L43.7597 -26.5174
L43.5937 -26.2982
L43.4255 -26.0789
L43.2551 -25.8597
L43.0823 -25.6404
L42.9071 -25.421
L42.7295 -25.2015
L42.5494 -24.982
L42.3666 -24.7623
L42.1813 -24.5424
L41.9931 -24.3224
L41.8022 -24.1022
L41.6083 -23.8819
L41.4116 -23.6614
L41.2117 -23.4406
L41.0087 -23.2198
L40.8026 -22.9987
L40.5931 -22.7775
L40.3802 -22.5561
L40.1639 -22.3346
L39.944 -22.113
L39.7205 -21.8913
L39.4932 -21.6696
L39.2621 -21.4478
L39.0271 -21.2261
L38.7881 -21.0045
L38.5449 -20.7831
L38.2976 -20.5618
L38.046 -20.3409
L37.79 -20.1203
L37.5296 -19.9002
L37.2645 -19.6807
L36.9949 -19.4619
L36.7205 -19.2438
L36.4412 -19.0267
L36.1571 -18.8107
L35.868 -18.5959
L35.5739 -18.3825
L35.2746 -18.1708
L34.9702 -17.9608
L34.6605 -17.7529
L34.3455 -17.5472
L34.0252 -17.344
L33.6995 -17.1436
L33.3684 -16.9463
L33.0319 -16.7524
L32.6899 -16.5622
L32.3426 -16.3762
L31.9898 -16.1947
L31.6317 -16.018
L31.2683 -15.8468
L30.8997 -15.6815
L30.5259 -15.5227
L30.1471 -15.3708
L29.7634 -15.2266
L29.375 -15.0908
L28.9821 -14.964
L28.5849 -14.8472
L28.1837 -14.7411
L27.7788 -14.6467
L27.3706 -14.5651
L26.9595 -14.4975
L26.5459 -14.4449
L26.1306 -14.4089
L25.714 -14.3907
L25.2969 -14.3917
L24.8801 -14.4136
L24.4645 -14.4577
L24.051 -14.5255
L23.6408 -14.6181
L23.2349 -14.7367
L22.8344 -14.8819
L22.4404 -15.0541
L22.0541 -15.2532
L21.6764 -15.4786
L21.3082 -15.7294
L20.9503 -16.0043
L20.6034 -16.3018
L20.268 -16.62
L19.9444 -16.9571
L19.6331 -17.3112
L19.3341 -17.6804
L19.0475 -18.063
L18.7735 -18.4573
L18.5119 -18.8617
L18.2627 -19.2747
L18.0257 -19.6951
L17.8009 -20.1216
L17.588 -20.5531
L17.3869 -20.9887
L17.1972 -21.4273
L17.0188 -21.8683
L16.8514 -22.3108
L16.6948 -22.7542
L16.5486 -23.1978
L16.4126 -23.6412
L16.2865 -24.0838
L16.1701 -24.5252
L16.063 -24.965
L15.965 -25.4028
L15.8757 -25.8383
L15.7949 -26.2713
L15.7223 -26.7014
L15.6576 -27.1284
L15.6006 -27.5522
L15.551 -27.9725
L15.5085 -28.3893
L15.4729 -28.8024
L15.4438 -29.2116
L15.4212 -29.617
L15.4047 -30.0184
L15.3941 -30.4158
L15.3892 -30.8091
L15.3897 -31.1983
L15.3956 -31.5833
L15.4065 -31.9643
L15.4223 -32.3411
L15.4428 -32.7138
L15.4678 -33.0824
L15.4972 -33.447
L15.5308 -33.8075
L15.5684 -34.164
L15.61 -34.5166
L15.6553 -34.8653
L15.7043 -35.2101
L15.7567 -35.5512
L15.8126 -35.8885
L15.8718 -36.2221
L15.9341 -36.5521
L15.9995 -36.8786
L16.0679 -37.2017
L16.1393 -37.5213
L16.2134 -37.8376
L16.2903 -38.1507
L16.3698 -38.4605
L16.452 -38.7673
L16.5367 -39.071
L16.6239 -39.3718
L16.7135 -39.6697
L16.8055 -39.9648
L16.8999 -40.2571
L16.9965 -40.5468
L17.0955 -40.8338
L17.1966 -41.1184
L17.3 -41.4005
L17.4056 -41.6802
L17.5133 -41.9576
L17.6232 -42.2328
L17.7352 -42.5057
L17.8493 -42.7766
L17.9655 -43.0455
L18.0838 -43.3123
L18.2043 -43.5773
L18.3268 -43.8403
L18.4515 -44.1016
L18.5782 -44.3612
L18.7071 -44.6191
L18.8382 -44.8754
L18.9714 -45.1301
L19.1067 -45.3833
L19.2442 -45.635
L19.384 -45.8854
L19.526 -46.1344
L19.6702 -46.3821
L19.8168 -46.6286
L19.9657 -46.8738
L20.1169 -47.1179
L20.2705 -47.3609
L20.4266 -47.6028
L20.5852 -47.8436
L20.7462 -48.0835
L20.9099 -48.3224
L21.0762 -48.5604
L21.2451 -48.7974
L21.4168 -49.0337
L21.5913 -49.269
L21.7687 -49.5036
L21.9489 -49.7374
L22.1321 -49.9704
L22.3184 -50.2027
L22.5078 -50.4343
L22.7004 -50.6651
L22.8962 -50.8953
L23.0954 -51.1248
L23.2979 -51.3536
L23.504 -51.5817
L23.7137 -51.8092
L23.9271 -52.0359
L24.1442 -52.262
L24.3652 -52.4874
L24.5901 -52.7121
L24.8191 -52.9361
L25.0523 -53.1593
L25.2897 -53.3817
L25.5314 -53.6033
L25.7776 -53.8241
L26.0284 -54.044
L26.2839 -54.2629
L26.5442 -54.4808
L26.8093 -54.6977
L27.0795 -54.9134
L27.3548 -55.128
L27.6354 -55.3412
L27.9213 -55.5531
L28.2127 -55.7634
L28.5097 -55.9722
L28.8124 -56.1793
L29.121 -56.3846
L29.4354 -56.5879
L29.7559 -56.789
L30.0826 -56.9879
L30.4155 -57.1843
L30.7548 -57.3781
L31.1005 -57.5691
L31.4528 -57.757
L31.8116 -57.9417
L32.1772 -58.1229
L32.5495 -58.3004
L32.9286 -58.4738
L33.3145 -58.6429
L33.7073 -58.8075
L34.1069 -58.9671
L34.5134 -59.1216
L34.9267 -59.2704
L35.3469 -59.4133
L35.7737 -59.5499
L36.2071 -59.6797
L36.647 -59.8024
L37.0932 -59.9175
L37.5455 -60.0245
L38.0037 -60.123
L38.4674 -60.2125
L38.9364 -60.2924
L39.4103 -60.3621
L39.8885 -60.4212
L40.3706 -60.469
L40.856 -60.5049
L41.3439 -60.5282
L41.8337 -60.5383
L42.3245 -60.5345
L42.8151 -60.516
L43.3046 -60.4821
L43.7917 -60.4321
L44.275 -60.3652
L44.753 -60.2805
L45.2241 -60.1775
L45.6865 -60.0552
L46.1383 -59.9133
L46.5778 -59.751
L47.003 -59.5682
L47.4123 -59.3646
L47.804 -59.1404
L48.1768 -58.896
L48.5297 -58.632
L48.862 -58.3494
L49.1735 -58.0494
L49.464 -57.7333
L49.7341 -57.4026
L49.9842 -57.0587
L50.215 -56.7033
L50.4274 -56.3379
L50.6222 -55.9637
L50.8004 -55.5823
L50.9629 -55.1946
L51.1106 -54.802
L51.2442 -54.4053
L51.3647 -54.0056
L51.4727 -53.6035
L51.5689 -53.1998
L51.654 -52.7953
L51.7286 -52.3904
L51.7933 -51.9857
L51.8485 -51.5817
L51.8949 -51.1787
L51.9328 -50.7772
L51.9627 -50.3776
L51.985 -49.98
L52.0001 -49.5847
L52.0084 -49.1921
L52.0103 -48.8022
L52.006 -48.4153
L51.9958 -48.0315
L51.9802 -47.651
L51.9593 -47.2739
L51.9334 -46.9003
L51.9028 -46.5302
L51.8678 -46.1637
L51.8285 -45.8009
L51.7851 -45.4419
L51.738 -45.0865
L51.6872 -44.735
L51.6329 -44.3872
L51.5754 -44.0431
L51.5147 -43.7028
L51.4512 -43.3663
L51.3848 -43.0334
L51.3157 -42.7043
L51.2441 -42.3787
L51.17 -42.0568
L51.0937 -41.7385
L51.0152 -41.4236
L50.9346 -41.1122
L50.8519 -40.8042
L50.7674 -40.4995
L50.681 -40.1981
L50.5929 -39.9
L50.5031 -39.6049
L50.4117 -39.313
L50.3187 -39.0241
L50.2242 -38.7381
L50.1283 -38.455
L50.031 -38.1747
L49.9323 -37.8972
L49.8323 -37.6223
L49.7311 -37.35
L49.6286 -37.0803
L49.5248 -36.813
L49.4199 -36.548
L49.3138 -36.2854
L49.2066 -36.0251
L49.0982 -35.7669
L48.9887 -35.5108
L48.8782 -35.2568
L48.7665 -35.0047
L48.6537 -34.7545
L48.5398 -34.5062
L48.4249 -34.2596
L48.3088 -34.0148
L48.1917 -33.7716
L48.0735 -33.53
L47.9542 -33.2898
L47.8337 -33.0512
L47.7122 -32.8139
L47.5895 -32.578
L47.4657 -32.3433
L47.3407 -32.1099
L47.2146 -31.8776
L47.0872 -31.6464
L46.9587 -31.4163
L46.8289 -31.1872
L46.6978 -30.959
z
" id="C0_1_32306806e6"/>
    </defs>
    <g clip-path="url(#p1bffca34e9)">
     <use style="fill:#ffffff;stroke:#000000;stroke-width:2.0;" x="0.0" xlink:href="#C0_0_a811fe30f3" y="72.0"/>
    </g>
    <g clip-path="url(#p1bffca34e9)">
     <use style="fill:#ff0000;stroke:#000000;stroke-width:2.0;" x="0.0" xlink:href="#C0_1_32306806e6" y="72.0"/>
    </g>
   </g>
  </g>
 </g>
 <defs>
  <clipPath id="p1bffca34e9">
   <rect height="72.0" width="72.0" x="0.0" y="0.0"/>
  </clipPath>
 </defs>
</svg>
