<?xml version="1.0" encoding="utf-8" standalone="no"?>
<!DOCTYPE svg PUBLIC "-//W3C//DTD SVG 1.1//EN"
  "http://www.w3.org/Graphics/SVG/1.1/DTD/svg11.dtd">
<!-- Created with matplotlib (http://matplotlib.org/) -->
<svg height="72pt" version="1.1" viewBox="0 0 72 72" width="72pt" xmlns="http://www.w3.org/2000/svg" xmlns:xlink="http://www.w3.org/1999/xlink">
 <defs>
  <style type="text/css">
*{stroke-linecap:butt;stroke-linejoin:round;}
  </style>
 </defs>
 <g id="figure_1">
  <g id="patch_1">
   <path d="
M0 72
L72 72
L72 0
L0 0
z
" style="fill:none;"/>
  </g>
  <g id="axes_1">
   <g id="PatchCollection_1">
    <defs>
     <path d="
M36 -7.5
C43.5583 -7.5 50.808 -10.5029 56.1525 -15.8475
C61.4971 -21.192 64.5 -28.4417 64.5 -36
C64.5 -43.5583 61.4971 -50.808 56.1525 -56.1525
C50.808 -61.4971 43.5583 -64.5 36 -64.5
C28.4417 -64.5 21.192 -61.4971 15.8475 -56.1525
C10.5029 -50.808 7.5 -43.5583 7.5 -36
C7.5 -28.4417 10.5029 -21.192 15.8475 -15.8475
C21.192 -10.5029 28.4417 -7.5 36 -7.5
z
" id="C0_0_a811fe30f3"/>
     <path d="
M51.6038 -59.7248
L51.3359 -59.631
L51.0864 -59.5162
L50.8548 -59.381
L50.6405 -59.2267
L50.4427 -59.0543
L50.2606 -58.8649
L50.0929 -58.6598
L49.9387 -58.4402
L49.7968 -58.2073
L49.6659 -57.9623
L49.545 -57.7064
L49.433 -57.4405
L49.3289 -57.1658
L49.2316 -56.8833
L49.1404 -56.5937
L49.0544 -56.2981
L48.9729 -55.9971
L48.8953 -55.6914
L48.8209 -55.3818
L48.7493 -55.0688
L48.68 -54.753
L48.6126 -54.4348
L48.5467 -54.1149
L48.4821 -53.7934
L48.4184 -53.471
L48.3555 -53.1479
L48.2932 -52.8244
L48.2312 -52.5008
L48.1695 -52.1774
L48.1078 -51.8544
L48.0462 -51.5321
L47.9845 -51.2106
L47.9226 -50.8901
L47.8605 -50.5707
L47.7981 -50.2526
L47.7354 -49.936
L47.6724 -49.6208
L47.609 -49.3073
L47.5452 -48.9955
L47.481 -48.6854
L47.4164 -48.3772
L47.3513 -48.0708
L47.2858 -47.7664
L47.2199 -47.4639
L47.1536 -47.1633
L47.0868 -46.8648
L47.0196 -46.5682
L46.952 -46.2736
L46.884 -45.9811
L46.8155 -45.6905
L46.7467 -45.4019
L46.6774 -45.1152
L46.6078 -44.8305
L46.5377 -44.5477
L46.4673 -44.2668
L46.3965 -43.9877
L46.3253 -43.7105
L46.2537 -43.4351
L46.1818 -43.1614
L46.1095 -42.8895
L46.0368 -42.6192
L45.9637 -42.3506
L45.8903 -42.0835
L45.8165 -41.818
L45.7423 -41.554
L45.6678 -41.2915
L45.5929 -41.0303
L45.5176 -40.7705
L45.4419 -40.512
L45.3658 -40.2548
L45.2893 -39.9988
L45.2124 -39.7439
L45.1352 -39.4901
L45.0575 -39.2374
L44.9793 -38.9857
L44.9008 -38.7349
L44.8218 -38.485
L44.7423 -38.2359
L44.6624 -37.9877
L44.582 -37.7401
L44.5011 -37.4933
L44.4198 -37.247
L44.3379 -37.0014
L44.2554 -36.7562
L44.1725 -36.5116
L44.089 -36.2673
L44.0049 -36.0234
L43.9202 -35.7798
L43.749 -35.5365
L43.6624 -35.2934
L43.5752 -35.0504
L43.4873 -34.8075
L43.3987 -34.5647
L43.3094 -34.3219
L43.2194 -34.079
L43.1286 -33.836
L43.037 -33.5928
L42.9446 -33.3494
L42.8514 -33.1058
L42.7573 -32.8618
L42.6623 -32.6175
L42.5665 -32.3728
L42.4697 -32.1275
L42.372 -31.8818
L42.2733 -31.6355
L42.1736 -31.3886
L42.0728 -31.141
L41.9711 -30.8927
L41.8682 -30.6437
L41.7642 -30.3938
L41.6591 -30.1431
L41.5528 -29.8915
L41.4454 -29.6389
L41.3367 -29.3853
L41.2267 -29.1307
L41.1155 -28.8751
L41.003 -28.6183
L40.8891 -28.3603
L40.7739 -28.1011
L40.6572 -27.8407
L40.5392 -27.579
L40.4197 -27.316
L40.2988 -27.0516
L40.1763 -26.7858
L40.0524 -26.5187
L39.9269 -26.25
L39.7998 -25.98
L39.6711 -25.7084
L39.5409 -25.4353
L39.409 -25.1606
L39.2755 -24.8845
L39.1404 -24.6067
L39.0037 -24.3274
L38.8653 -24.0465
L38.7252 -23.764
L38.5836 -23.4799
L38.4403 -23.1943
L38.2954 -22.9071
L38.149 -22.6184
L38.001 -22.3281
L37.8515 -22.0363
L37.7006 -21.7431
L37.5483 -21.4484
L37.3947 -21.1524
L37.2399 -20.855
L37.0839 -20.5563
L36.927 -20.2564
L36.7693 -19.9554
L36.6108 -19.6533
L36.4519 -19.3502
L36.2926 -19.0462
L36.1333 -18.7414
L35.9741 -18.436
L35.8155 -18.1299
L35.6577 -17.8234
L35.5011 -17.5166
L35.3461 -17.2096
L35.1932 -16.9026
L35.043 -16.5956
L34.896 -16.2889
L34.7529 -15.9826
L34.6144 -15.6768
L34.4814 -15.3719
L34.3547 -15.0678
L34.2352 -14.7648
L34.1241 -14.4631
L34.0226 -14.1629
L33.9317 -13.8644
L33.853 -13.5677
L33.7877 -13.2731
L33.7374 -12.9807
L33.7035 -12.6909
L33.6875 -12.4038
L33.6909 -12.1197
L33.7152 -11.8389
L33.7616 -11.5616
L33.8313 -11.2883
L33.9252 -11.0192
L34.0441 -10.7547
L34.1885 -10.4953
L34.3585 -10.2414
L34.5541 -9.99342
L34.7749 -9.75189
L35.0204 -9.51729
L35.2896 -9.29014
L35.5817 -9.07093
L35.8955 -8.86015
L36.2297 -8.65828
L36.5831 -8.46576
L36.9543 -8.28302
L37.342 -8.11044
L37.7448 -7.94838
L38.1615 -7.79715
L38.6628 -7.65703
L39.1576 -7.62467
L39.6514 -7.67546
L40.1442 -7.73488
L40.6357 -7.80291
L41.1257 -7.87953
L41.6142 -7.96472
L42.101 -8.05844
L42.5859 -8.16068
L43.0689 -8.2714
L43.5496 -8.39056
L44.0281 -8.51814
L44.5042 -8.65408
L44.9776 -8.79836
L45.4483 -8.95092
L45.9161 -9.11172
L46.3809 -9.28071
L46.8426 -9.45784
L47.3009 -9.64305
L47.7558 -9.8363
L48.2071 -10.0375
L48.6547 -10.2466
L49.0985 -10.4636
L49.5382 -10.6883
L49.9739 -10.9208
L50.4052 -11.1609
L50.8322 -11.4086
L51.2547 -11.6637
L51.6725 -11.9263
L52.0856 -12.1962
L52.4937 -12.4733
L52.8968 -12.7576
L53.2948 -13.049
L53.6875 -13.3474
L54.0748 -13.6527
L54.4566 -13.9648
L54.8328 -14.2836
L55.2033 -14.609
L55.5679 -14.9409
L55.9265 -15.2793
L56.2791 -15.624
L56.6255 -15.9748
L56.9656 -16.3318
L57.2994 -16.6948
L57.6266 -17.0636
L57.9473 -17.4382
L58.2612 -17.8185
L58.5684 -18.2043
L58.8687 -18.5955
L59.1621 -18.992
L59.4484 -19.3937
L59.7275 -19.8005
L59.9994 -20.2122
L60.264 -20.6287
L60.5213 -21.0499
L60.771 -21.4756
L61.0132 -21.9058
L61.2478 -22.3403
L61.4747 -22.7789
L61.6938 -23.2215
L61.9051 -23.6681
L62.1086 -24.1184
L62.304 -24.5723
L62.4915 -25.0297
L62.6709 -25.4904
L62.8421 -25.9544
L63.0052 -26.4214
L63.1601 -26.8913
L63.3066 -27.364
L63.4449 -27.8393
L63.5748 -28.3171
L63.6963 -28.7973
L63.8094 -29.2796
L63.914 -29.764
L64.0101 -30.2503
L64.0976 -30.7383
L64.1766 -31.228
L64.2471 -31.7191
L64.3089 -32.2115
L64.3621 -32.705
L64.4066 -33.1996
L64.4425 -33.695
L64.4698 -34.1911
L64.4883 -34.6878
L64.4982 -35.1848
L64.4994 -35.6822
L64.492 -36.1796
L64.4758 -36.6769
L64.451 -37.1741
L64.4175 -37.6709
L64.3753 -38.1672
L64.3245 -38.6628
L64.2651 -39.1576
L64.1971 -39.6514
L64.1205 -40.1442
L64.0353 -40.6357
L63.9416 -41.1257
L63.8393 -41.6142
L63.7286 -42.101
L63.6094 -42.5859
L63.4819 -43.0689
L63.3459 -43.5496
L63.2016 -44.0281
L63.0491 -44.5042
L62.8883 -44.9776
L62.7193 -45.4483
L62.5422 -45.9161
L62.3569 -46.3809
L62.1637 -46.8426
L61.9625 -47.3009
L61.7534 -47.7558
L61.5364 -48.2071
L61.3117 -48.6547
L61.0792 -49.0985
L60.8391 -49.5382
L60.5914 -49.9739
L60.3363 -50.4052
L60.0737 -50.8322
L59.8038 -51.2547
L59.5267 -51.6725
L59.2424 -52.0856
L58.951 -52.4937
L58.6526 -52.8968
L58.3473 -53.2948
L58.0352 -53.6875
L57.7164 -54.0748
L57.391 -54.4566
L57.0591 -54.8328
L56.7207 -55.2033
L56.376 -55.5679
L56.0252 -55.9265
L55.6682 -56.2791
L55.3052 -56.6255
L54.9364 -56.9656
L54.5618 -57.2994
L54.1815 -57.6266
L53.7957 -57.9473
L53.4045 -58.2612
L53.008 -58.5684
L52.6063 -58.8687
L52.1995 -59.1621
z
" id="C0_1_0d972e2940"/>
     <path d="
M33.4256 -64.2935
L33.0216 -64.0911
L32.6165 -63.8847
L32.2111 -63.674
L31.8063 -63.4591
L31.4031 -63.2399
L31.0021 -63.0165
L30.6039 -62.7891
L30.2091 -62.5576
L29.8183 -62.3222
L29.4318 -62.0831
L29.0501 -61.8404
L28.6734 -61.5942
L28.302 -61.3448
L27.9362 -61.0923
L27.5762 -60.8369
L27.2221 -60.5788
L26.874 -60.3181
L26.5321 -60.0551
L26.1964 -59.7899
L25.867 -59.5226
L25.5438 -59.2535
L25.227 -58.9827
L24.9164 -58.7104
L24.6121 -58.4366
L24.3141 -58.1616
L24.0222 -57.8855
L23.7364 -57.6084
L23.4567 -57.3304
L23.183 -57.0516
L22.9152 -56.7721
L22.6532 -56.492
L22.3969 -56.2114
L22.1463 -55.9305
L21.9012 -55.6491
L21.6616 -55.3675
L21.4273 -55.0857
L21.1983 -54.8037
L20.9744 -54.5216
L20.7555 -54.2394
L20.5416 -53.9572
L20.3326 -53.6749
L20.1282 -53.3927
L19.9286 -53.1106
L19.7334 -52.8285
L19.5427 -52.5464
L19.3564 -52.2645
L19.1743 -51.9826
L18.9964 -51.7008
L18.8226 -51.4191
L18.6528 -51.1375
L18.4869 -50.856
L18.3249 -50.5745
L18.1666 -50.2931
L18.012 -50.0117
L17.8609 -49.7303
L17.7134 -49.4489
L17.5694 -49.1675
L17.4288 -48.886
L17.2915 -48.6045
L17.1575 -48.3228
L17.0266 -48.0409
L16.899 -47.7589
L16.7744 -47.4766
L16.6529 -47.1941
L16.5345 -46.9113
L16.4189 -46.6282
L16.3063 -46.3447
L16.1966 -46.0608
L16.0897 -45.7764
L15.9855 -45.4915
L15.8842 -45.2061
L15.7856 -44.9201
L15.6897 -44.6334
L15.5965 -44.346
L15.506 -44.0579
L15.4181 -43.769
L15.3329 -43.4793
L15.2502 -43.1886
L15.1702 -42.8971
L15.0927 -42.6045
L15.0178 -42.3108
L14.9455 -42.0161
L14.8758 -41.7202
L14.8087 -41.423
L14.7441 -41.1246
L14.6821 -40.8248
L14.6227 -40.5237
L14.566 -40.2211
L14.5118 -39.917
L14.4603 -39.6113
L14.4115 -39.3041
L14.3653 -38.9951
L14.3219 -38.6844
L14.2811 -38.3719
L14.2432 -38.0575
L14.2081 -37.7413
L14.1758 -37.4231
L14.1464 -37.1028
L14.1199 -36.7805
L14.0964 -36.456
L14.0759 -36.1293
L14.0585 -35.8004
L14.0443 -35.4692
L14.0332 -35.1357
L14.0254 -34.7997
L14.0209 -34.4613
L14.0198 -34.1204
L14.0222 -33.777
L14.0282 -33.431
L14.0377 -33.0824
L14.051 -32.7312
L14.068 -32.3772
L14.0889 -32.0206
L14.1138 -31.6612
L14.1427 -31.2991
L14.1758 -30.9342
L14.2131 -30.5666
L14.2548 -30.1961
L14.3009 -29.8229
L14.3515 -29.4469
L14.4068 -29.0682
L14.4668 -28.6867
L14.5317 -28.3025
L14.6015 -27.9157
L14.6763 -27.5262
L14.7562 -27.1342
L14.8413 -26.7398
L14.9317 -26.3429
L15.0275 -25.9437
L15.1287 -25.5423
L15.2353 -25.1389
L15.3475 -24.7335
L15.4652 -24.3263
L15.5885 -23.9174
L15.7173 -23.5071
L15.8517 -23.0955
L15.9916 -22.6829
L16.1368 -22.2694
L16.2874 -21.8554
L16.4431 -21.4411
L16.6037 -21.0267
L16.7691 -20.6126
L16.939 -20.1991
L17.1129 -19.7865
L17.2906 -19.3752
L17.4716 -18.9656
L17.6552 -18.5581
L17.841 -18.153
L18.0282 -17.7509
L18.2159 -17.3522
L18.4033 -16.9573
L18.5894 -16.5667
L18.7731 -16.181
L18.9532 -15.8005
L19.1283 -15.4259
L19.297 -15.0575
L19.4579 -14.696
L19.6095 -14.3417
L19.7501 -13.9952
L19.8783 -13.657
L19.9924 -13.3273
L20.0911 -13.0067
L20.173 -12.6954
L19.7621 -12.3938
L19.3558 -12.5782
L18.9546 -12.8651
L18.5586 -13.1591
L18.1679 -13.4601
L17.7826 -13.7679
L17.4028 -14.0825
L17.0288 -14.4038
L16.6605 -14.7317
L16.2981 -15.066
L15.9417 -15.4067
L15.5914 -15.7537
L15.2473 -16.1068
L14.9095 -16.4661
L14.5782 -16.8312
L14.2534 -17.2022
L13.9352 -17.5789
L13.6238 -17.9613
L13.3191 -18.3491
L13.0214 -18.7423
L12.7307 -19.1408
L12.447 -19.5444
L12.1705 -19.953
L11.9013 -20.3665
L11.6395 -20.7848
L11.385 -21.2077
L11.138 -21.6351
L10.8987 -22.0668
L10.6669 -22.5029
L10.4429 -22.943
L10.2267 -23.3871
L10.0183 -23.8351
L9.81783 -24.2867
L9.62534 -24.7419
L9.44088 -25.2006
L9.26451 -25.6625
L9.09628 -26.1276
L8.93625 -26.5957
L8.78447 -27.0667
L8.64097 -27.5404
L8.50581 -28.0167
L8.37903 -28.4954
L8.26065 -28.9763
L8.15073 -29.4595
L8.04929 -29.9446
L7.95636 -30.4315
L7.87198 -30.9202
L7.79616 -31.4104
L7.72894 -31.902
L7.67033 -32.3948
L7.62034 -32.8888
L7.579 -33.3837
L7.54632 -33.8794
L7.52231 -34.3757
L7.50697 -34.8725
L7.50031 -35.3697
L7.50233 -35.8671
L7.51303 -36.3645
L7.53241 -36.8618
L7.56046 -37.3588
L7.59718 -37.8555
L7.64254 -38.3515
L7.69654 -38.8468
L7.75917 -39.3413
L7.8304 -39.8348
L7.91021 -40.3271
L7.99857 -40.818
L8.09546 -41.3075
L8.20086 -41.7954
L8.31472 -42.2815
L8.43701 -42.7657
L8.56771 -43.2479
L8.70675 -43.7278
L8.85411 -44.2054
L9.00974 -44.6805
L9.17359 -45.1529
L9.34562 -45.6226
L9.52576 -46.0893
L9.71397 -46.5529
L9.91018 -47.0134
L10.1143 -47.4705
L10.3264 -47.924
L10.5463 -48.374
L10.7739 -48.8202
L11.0092 -49.2624
L11.2521 -49.7007
L11.5025 -50.1347
L11.7605 -50.5645
L12.0258 -50.9898
L12.2984 -51.4106
L12.5782 -51.8266
L12.8651 -52.2379
L13.1591 -52.6442
L13.4601 -53.0454
L13.7679 -53.4414
L14.0825 -53.8321
L14.4038 -54.2174
L14.7317 -54.5972
L15.066 -54.9712
L15.4067 -55.3395
L15.7537 -55.7019
L16.1068 -56.0583
L16.4661 -56.4086
L16.8312 -56.7527
L17.2022 -57.0905
L17.5789 -57.4218
L17.9613 -57.7466
L18.3491 -58.0648
L18.7423 -58.3762
L19.1408 -58.6809
L19.5444 -58.9786
L19.953 -59.2693
L20.3665 -59.553
L20.7848 -59.8295
L21.2077 -60.0987
L21.6351 -60.3605
L22.0668 -60.615
L22.5029 -60.862
L22.943 -61.1013
L23.3871 -61.3331
L23.8351 -61.5571
L24.2867 -61.7733
L24.7419 -61.9817
L25.2006 -62.1822
L25.6625 -62.3747
L26.1276 -62.5591
L26.5957 -62.7355
L27.0667 -62.9037
L27.5404 -63.0637
L28.0167 -63.2155
L28.4954 -63.359
L28.9763 -63.4942
L29.4595 -63.621
L29.9446 -63.7393
L30.4315 -63.8493
L30.9202 -63.9507
L31.4104 -64.0436
L31.902 -64.128
L32.3948 -64.2038
L32.8888 -64.2711
z
" id="C0_2_52b975725d"/>
    </defs>
    <g clip-path="url(#p1bffca34e9)">
     <use style="fill:#ff0000;stroke:#000000;stroke-width:2.0;" x="0.0" xlink:href="#C0_0_a811fe30f3" y="72.0"/>
    </g>
    <g clip-path="url(#p1bffca34e9)">
     <use style="fill:#ffffff;stroke:#000000;stroke-width:2.0;" x="0.0" xlink:href="#C0_1_0d972e2940" y="72.0"/>
    </g>
    <g clip-path="url(#p1bffca34e9)">
     <use style="fill:#ffffff;stroke:#000000;stroke-width:2.0;" x="0.0" xlink:href="#C0_2_52b975725d" y="72.0"/>
    </g>
   </g>
  </g>
 </g>
 <defs>
  <clipPath id="p1bffca34e9">
   <rect height="72.0" width="72.0" x="0.0" y="0.0"/>
  </clipPath>
 </defs>
</svg>
