<?xml version="1.0" encoding="utf-8" standalone="no"?>
<!DOCTYPE svg PUBLIC "-//W3C//DTD SVG 1.1//EN"
  "http://www.w3.org/Graphics/SVG/1.1/DTD/svg11.dtd">
<!-- Created with matplotlib (http://matplotlib.org/) -->
<svg height="72pt" version="1.1" viewBox="0 0 72 72" width="72pt" xmlns="http://www.w3.org/2000/svg" xmlns:xlink="http://www.w3.org/1999/xlink">
 <defs>
  <style type="text/css">
*{stroke-linecap:butt;stroke-linejoin:round;}
  </style>
 </defs>
 <g id="figure_1">
  <g id="patch_1">
   <path d="
M0 72
L72 72
L72 0
L0 0
z
" style="fill:none;"/>
  </g>
  <g id="axes_1">
   <g id="PatchCollection_1">
    <defs>
     <path d="
M36 -7.5
C43.5583 -7.5 50.808 -10.5029 56.1525 -15.8475
C61.4971 -21.192 64.5 -28.4417 64.5 -36
C64.5 -43.5583 61.4971 -50.808 56.1525 -56.1525
C50.808 -61.4971 43.5583 -64.5 36 -64.5
C28.4417 -64.5 21.192 -61.4971 15.8475 -56.1525
C10.5029 -50.808 7.5 -43.5583 7.5 -36
C7.5 -28.4417 10.5029 -21.192 15.8475 -15.8475
C21.192 -10.5029 28.4417 -7.5 36 -7.5
z
" id="C0_0_a811fe30f3"/>
     <path d="
M54.5248 -14.5213
L54.3674 -14.6507
L54.2108 -14.7806
L54.055 -14.911
L53.8999 -15.0419
L53.7454 -15.1732
L53.5917 -15.305
L53.4385 -15.4372
L53.2859 -15.5699
L53.1339 -15.7031
L52.9824 -15.8367
L52.8313 -15.9707
L52.6806 -16.1052
L52.5303 -16.2402
L52.3804 -16.3757
L52.2308 -16.5117
L52.0814 -16.6482
L51.9323 -16.7852
L51.7834 -16.9228
L51.6346 -17.0609
L51.4859 -17.1996
L51.3373 -17.339
L51.1888 -17.4789
L51.0403 -17.6195
L50.8917 -17.7608
L50.7431 -17.9028
L50.5943 -18.0455
L50.4454 -18.1889
L50.2963 -18.3332
L49.9974 -18.4783
L49.8474 -18.6242
L49.6972 -18.771
L49.5465 -18.9187
L49.3955 -19.0674
L49.2439 -19.2171
L49.0918 -19.3678
L48.9392 -19.5195
L48.786 -19.6724
L48.6322 -19.8264
L48.4776 -19.9816
L48.3224 -20.138
L48.1664 -20.2957
L48.0095 -20.4548
L47.8518 -20.6151
L47.6933 -20.7769
L47.5338 -20.9402
L47.3732 -21.1049
L47.2117 -21.2713
L47.0491 -21.4392
L46.8854 -21.6088
L46.7205 -21.7801
L46.5543 -21.9532
L46.387 -22.1281
L46.2183 -22.3049
L46.0482 -22.4836
L45.8768 -22.6644
L45.7039 -22.8472
L45.5295 -23.0321
L45.3535 -23.2192
L45.176 -23.4086
L44.9968 -23.6002
L44.816 -23.7943
L44.6334 -23.9908
L44.449 -24.1897
L44.2628 -24.3913
L44.0747 -24.5955
L43.8848 -24.8025
L43.6928 -25.0122
L43.4989 -25.2247
L43.3029 -25.4402
L43.1049 -25.6587
L42.9047 -25.8802
L42.7024 -26.1048
L42.4979 -26.3327
L42.2912 -26.5638
L42.0823 -26.7982
L41.8711 -27.036
L41.6577 -27.2773
L41.4419 -27.522
L41.2239 -27.7704
L41.0036 -28.0224
L40.781 -28.278
L40.5561 -28.5374
L40.3289 -28.8006
L40.0996 -29.0676
L39.868 -29.3385
L39.6343 -29.6133
L39.3985 -29.892
L39.1606 -30.1746
L38.9209 -30.4613
L38.6793 -30.7518
L38.4361 -31.0464
L38.1913 -31.3449
L37.9451 -31.6474
L37.6977 -31.9537
L37.4493 -32.264
L37.2003 -32.5781
L36.9508 -32.8959
L36.7011 -33.2175
L36.4518 -33.5426
L36.2032 -33.8713
L35.9558 -34.2033
L35.7102 -34.5387
L35.467 -34.8771
L35.2271 -35.2185
L34.9912 -35.5626
L34.7605 -35.9093
L34.5361 -36.2583
L34.3194 -36.6094
L34.112 -36.9622
L33.9158 -37.3166
L33.7328 -37.6721
L33.5656 -38.0283
L33.4167 -38.385
L33.2892 -38.7415
L33.1861 -39.0976
L33.1105 -39.4525
L33.0651 -39.8058
L33.0524 -40.157
L33.0737 -40.5056
L33.1298 -40.851
L33.2202 -41.1928
L33.3433 -41.5306
L33.4971 -41.8642
L33.6786 -42.1934
L33.8851 -42.5179
L34.1133 -42.8377
L34.3603 -43.1527
L34.6235 -43.4627
L34.9005 -43.7678
L35.189 -44.0678
L35.4871 -44.3627
L35.7933 -44.6525
L36.1061 -44.9371
L36.4243 -45.2165
L36.7467 -45.4906
L37.0725 -45.7594
L37.4009 -46.0229
L37.731 -46.281
L38.0624 -46.5338
L38.3945 -46.7812
L38.7267 -47.0232
L39.0587 -47.2599
L39.3901 -47.4912
L39.7206 -47.7172
L40.0499 -47.9379
L40.3777 -48.1534
L40.7038 -48.3637
L41.028 -48.5688
L41.3502 -48.7688
L41.6702 -48.9638
L41.9879 -49.1539
L42.3031 -49.339
L42.6159 -49.5194
L42.926 -49.6949
L43.2336 -49.8659
L43.5384 -50.0322
L43.8405 -50.194
L44.1399 -50.3514
L44.4365 -50.5045
L44.7303 -50.6533
L45.0214 -50.798
L45.3097 -50.9386
L45.5952 -51.0752
L45.878 -51.2079
L46.1582 -51.3368
L46.4356 -51.462
L46.7104 -51.5834
L46.9826 -51.7014
L47.2523 -51.8158
L47.5195 -51.9268
L47.7841 -52.0345
L48.0464 -52.1389
L48.3063 -52.2401
L48.5639 -52.3382
L48.8193 -52.4332
L49.0724 -52.5253
L49.3235 -52.6144
L49.5724 -52.7007
L49.8193 -52.7841
L50.0643 -52.8648
L50.3074 -52.9428
L50.5486 -53.0182
L50.788 -53.091
L51.0258 -53.1612
L51.2619 -53.229
L51.4964 -53.2943
L51.7294 -53.3572
L51.9609 -53.4177
L52.191 -53.4758
L52.4198 -53.5317
L52.6472 -53.5853
L52.8735 -53.6366
L53.0987 -53.6857
L53.3227 -53.7326
L53.5457 -53.7774
L53.7677 -53.82
L53.9888 -53.8604
L54.2091 -53.8988
L54.4286 -53.935
L54.6473 -53.9691
L54.8654 -54.0011
L55.0828 -54.031
L55.2998 -54.0588
L55.5162 -54.0846
L55.7322 -54.1082
L55.9478 -54.1298
L56.1631 -54.1492
L56.3781 -54.1665
L56.5929 -54.1817
L56.8076 -54.1947
L57.0222 -54.2055
L57.2368 -54.2141
L57.4514 -54.2205
L57.6661 -54.2247
L57.8809 -54.2265
L58.2133 -54.226
L58.5215 -53.8556
L58.8229 -53.4652
L59.1173 -53.0694
L59.4047 -52.6685
L59.685 -52.2625
L59.958 -51.8516
L60.2237 -51.4358
L60.4821 -51.0153
L60.733 -50.5903
L60.9764 -50.1608
L61.2121 -49.727
L61.4402 -49.289
L61.6606 -48.847
L61.8731 -48.401
L62.0777 -47.9513
L62.2744 -47.4979
L62.4631 -47.0411
L62.6437 -46.5808
L62.8163 -46.1174
L62.9806 -45.6508
L63.1367 -45.1813
L63.2846 -44.7091
L63.4241 -44.2341
L63.5553 -43.7567
L63.6781 -43.2769
L63.7925 -42.7949
L63.8984 -42.3108
L63.9958 -41.8248
L64.0847 -41.337
L64.165 -40.8476
L64.2368 -40.3567
L64.2999 -39.8645
L64.3544 -39.3711
L64.4003 -38.8767
L64.4376 -38.3814
L64.4661 -37.8854
L64.486 -37.3888
L64.4973 -36.8918
L64.4998 -36.3945
L64.4937 -35.8971
L64.4789 -35.3997
L64.4554 -34.9025
L64.4232 -34.4057
L64.3824 -33.9093
L64.3329 -33.4136
L64.2748 -32.9186
L64.2081 -32.4246
L64.1328 -31.9317
L64.049 -31.44
L63.9566 -30.9497
L63.8556 -30.461
L63.7462 -29.9739
L63.6284 -29.4887
L63.5021 -29.0054
L63.3674 -28.5243
L63.2244 -28.0455
L63.0731 -27.5691
L62.9136 -27.0952
L62.7459 -26.6241
L62.57 -26.1558
L62.386 -25.6905
L62.194 -25.2284
L61.994 -24.7695
L61.7861 -24.3141
L61.5704 -23.8622
L61.3468 -23.414
L61.1155 -22.9697
L60.8766 -22.5293
L60.6301 -22.093
L60.3761 -21.661
L60.1147 -21.2333
L59.8459 -20.8101
L59.5699 -20.3916
L59.2867 -19.9778
L58.9964 -19.5689
L58.699 -19.165
L58.3948 -18.7662
L58.0838 -18.3727
L57.766 -17.9845
L57.4416 -17.6019
L57.1106 -17.2248
L56.7733 -16.8534
L56.4296 -16.4879
L56.0797 -16.1284
L55.7236 -15.7748
L55.3616 -15.4275
L54.9936 -15.0864
z
" id="C0_1_10ed498f90"/>
     <path d="
M14.1224 -17.9569
L14.1626 -18.169
L14.2051 -18.3815
L14.2498 -18.5945
L14.2967 -18.8079
L14.3459 -19.0219
L14.3973 -19.2365
L14.451 -19.4518
L14.507 -19.6678
L14.5653 -19.8846
L14.626 -20.1023
L14.6889 -20.3209
L14.7543 -20.5405
L14.822 -20.7612
L14.8922 -20.983
L14.9648 -21.2059
L15.0399 -21.4301
L15.1175 -21.6556
L15.1978 -21.8825
L15.2806 -22.1107
L15.3661 -22.3405
L15.4542 -22.5718
L15.5452 -22.8048
L15.6389 -23.0394
L15.7354 -23.2757
L15.8349 -23.5139
L15.9373 -23.7539
L16.0428 -23.9958
L16.1513 -24.2398
L16.2629 -24.4857
L16.3778 -24.7338
L16.4959 -24.984
L16.6173 -25.2365
L16.7422 -25.4912
L16.8704 -25.7483
L17.0023 -26.0077
L17.1377 -26.2696
L17.2767 -26.5339
L17.4195 -26.8008
L17.5662 -27.0703
L17.7166 -27.3424
L17.871 -27.6171
L18.0294 -27.8945
L18.1919 -28.1747
L18.3584 -28.4575
L18.5292 -28.7432
L18.7041 -29.0317
L18.8833 -29.323
L19.0668 -29.6171
L19.2547 -29.914
L19.4469 -30.2137
L19.6434 -30.5163
L19.8444 -30.8216
L20.0497 -31.1297
L20.2593 -31.4406
L20.4732 -31.7541
L20.6914 -32.0703
L20.9137 -32.3891
L21.14 -32.7105
L21.3702 -33.0343
L21.6042 -33.3606
L21.8417 -33.6891
L22.0825 -34.0198
L22.3262 -34.3527
L22.5726 -34.6875
L22.8212 -35.0243
L23.0714 -35.3627
L23.3228 -35.7028
L23.5745 -36.0444
L23.8258 -36.3874
L24.0758 -36.7316
L24.3232 -37.0769
L24.5667 -37.4233
L24.8047 -37.7704
L25.0356 -38.1184
L25.257 -38.4671
L25.4667 -38.8164
L25.6619 -39.1663
L25.8397 -39.5168
L25.997 -39.868
L26.1308 -40.2198
L26.2381 -40.5723
L26.3168 -40.9255
L26.3651 -41.2794
L26.3824 -41.6339
L26.3692 -41.9889
L26.3267 -42.3443
L26.2573 -42.6997
L26.1634 -43.0549
L26.0482 -43.4096
L25.9144 -43.7633
L25.7649 -44.1159
L25.6023 -44.4669
L25.429 -44.8161
L25.247 -45.1631
L25.058 -45.5077
L24.8637 -45.8497
L24.6652 -46.1888
L24.4638 -46.5249
L24.2603 -46.8576
L24.0556 -47.187
L23.8503 -47.5127
L23.6451 -47.8348
L23.4405 -48.153
L23.2369 -48.4674
L23.0346 -48.7777
L22.834 -49.0839
L22.6353 -49.386
L22.4388 -49.684
L22.2446 -49.9777
L22.0529 -50.2672
L21.8639 -50.5524
L21.6775 -50.8335
L21.494 -51.1102
L21.3133 -51.3828
L21.1356 -51.6511
L20.9608 -51.9153
L20.789 -52.1754
L20.6203 -52.4313
L20.4545 -52.6832
L20.2917 -52.9311
L20.1319 -53.1751
L19.9751 -53.4152
L19.8212 -53.6515
L19.6702 -53.884
L19.5221 -54.1128
L19.3768 -54.338
L19.2344 -54.5597
L19.0947 -54.7779
L18.9577 -54.9926
L18.8233 -55.2041
L18.6916 -55.4123
L18.5625 -55.6173
L18.4359 -55.8193
L18.3118 -56.0182
L18.19 -56.2141
L18.0707 -56.4072
L17.9537 -56.5975
L17.839 -56.7851
L17.7264 -56.97
L17.6161 -57.1523
L17.5079 -57.3321
L16.9859 -57.5095
L16.6183 -57.23
L16.2566 -56.8949
L15.9009 -56.5535
L15.5513 -56.2058
L15.2079 -55.8519
L14.8709 -55.492
L14.5403 -55.1262
L14.2163 -54.7545
L13.8989 -54.3772
L13.5882 -53.9942
L13.2844 -53.6057
L12.9874 -53.2119
L12.6975 -52.8128
L12.4147 -52.4086
L12.139 -51.9995
L11.8707 -51.5854
L11.6097 -51.1666
L11.3561 -50.7432
L11.11 -50.3153
L10.8715 -49.883
L10.6406 -49.4465
L10.4175 -49.0059
L10.2022 -48.5613
L9.99472 -48.1129
L9.79517 -47.6608
L9.6036 -47.2052
L9.42008 -46.7462
L9.24465 -46.2839
L9.07737 -45.8184
L8.91829 -45.35
L8.76746 -44.8787
L8.62492 -44.4047
L8.49073 -43.9281
L8.36491 -43.4492
L8.24751 -42.9679
L8.13857 -42.4846
L8.03811 -41.9992
L7.94617 -41.5121
L7.86278 -41.0232
L7.78795 -40.5328
L7.72172 -40.0411
L7.66411 -39.5481
L7.61512 -39.054
L7.57478 -38.5591
L7.5431 -38.0633
L7.52009 -37.5669
L7.50576 -37.07
L7.5001 -36.5728
L7.50312 -36.0754
L7.51483 -35.578
L7.53521 -35.0807
L7.56426 -34.5837
L7.60198 -34.0872
L7.64834 -33.5912
L7.70334 -33.0959
L7.76696 -32.6016
L7.83918 -32.1083
L7.91998 -31.6161
L8.00933 -31.1253
L8.10721 -30.636
L8.21359 -30.1483
L8.32843 -29.6624
L8.45169 -29.1784
L8.58335 -28.6965
L8.72336 -28.2169
L8.87168 -27.7396
L9.02826 -27.2648
L9.19306 -26.7926
L9.36603 -26.3233
L9.5471 -25.857
L9.73624 -25.3937
L9.93337 -24.9336
L10.1384 -24.4769
L10.3514 -24.0238
L10.5722 -23.5742
L10.8007 -23.1285
L11.0369 -22.6867
L11.2807 -22.2489
L11.532 -21.8154
L11.7908 -21.3861
L12.0569 -20.9613
L12.3303 -20.5411
L12.611 -20.1256
L12.8988 -19.7149
L13.1936 -19.3092
L13.4953 -18.9086
z
" id="C0_2_8efecf73e8"/>
    </defs>
    <g clip-path="url(#p1bffca34e9)">
     <use style="fill:#ffffff;stroke:#000000;stroke-width:2.0;" x="0.0" xlink:href="#C0_0_a811fe30f3" y="72.0"/>
    </g>
    <g clip-path="url(#p1bffca34e9)">
     <use style="fill:#ff0000;stroke:#000000;stroke-width:2.0;" x="0.0" xlink:href="#C0_1_10ed498f90" y="72.0"/>
    </g>
    <g clip-path="url(#p1bffca34e9)">
     <use style="fill:#ff0000;stroke:#000000;stroke-width:2.0;" x="0.0" xlink:href="#C0_2_8efecf73e8" y="72.0"/>
    </g>
   </g>
  </g>
 </g>
 <defs>
  <clipPath id="p1bffca34e9">
   <rect height="72.0" width="72.0" x="0.0" y="0.0"/>
  </clipPath>
 </defs>
</svg>
