<?xml version="1.0" encoding="utf-8" standalone="no"?>
<!DOCTYPE svg PUBLIC "-//W3C//DTD SVG 1.1//EN"
  "http://www.w3.org/Graphics/SVG/1.1/DTD/svg11.dtd">
<!-- Created with matplotlib (http://matplotlib.org/) -->
<svg height="72pt" version="1.1" viewBox="0 0 72 72" width="72pt" xmlns="http://www.w3.org/2000/svg" xmlns:xlink="http://www.w3.org/1999/xlink">
 <defs>
  <style type="text/css">
*{stroke-linecap:butt;stroke-linejoin:round;}
  </style>
 </defs>
 <g id="figure_1">
  <g id="patch_1">
   <path d="
M0 72
L72 72
L72 0
L0 0
z
" style="fill:none;"/>
  </g>
  <g id="axes_1">
   <g id="PatchCollection_1">
    <defs>
     <path d="
M36 -7.5
C43.5583 -7.5 50.808 -10.5029 56.1525 -15.8475
C61.4971 -21.192 64.5 -28.4417 64.5 -36
C64.5 -43.5583 61.4971 -50.808 56.1525 -56.1525
C50.808 -61.4971 43.5583 -64.5 36 -64.5
C28.4417 -64.5 21.192 -61.4971 15.8475 -56.1525
C10.5029 -50.808 7.5 -43.5583 7.5 -36
C7.5 -28.4417 10.5029 -21.192 15.8475 -15.8475
C21.192 -10.5029 28.4417 -7.5 36 -7.5
z
" id="C0_0_a811fe30f3"/>
     <path d="
M17.9274 -14.0118
L17.9582 -14.2673
L17.9883 -14.5247
L18.0178 -14.7838
L18.0468 -15.0443
L18.0756 -15.3062
L18.1042 -15.5693
L18.1328 -15.8334
L18.1615 -16.0983
L18.1904 -16.3639
L18.2196 -16.6302
L18.2491 -16.897
L18.279 -17.1642
L18.3094 -17.4316
L18.3404 -17.6993
L18.372 -17.9671
L18.4042 -18.2349
L18.4372 -18.5028
L18.4708 -18.7705
L18.5052 -19.0381
L18.5404 -19.3055
L18.5764 -19.5727
L18.6132 -19.8396
L18.6509 -20.1062
L18.6894 -20.3725
L18.7288 -20.6383
L18.7691 -20.9039
L18.8103 -21.1689
L18.8523 -21.4336
L18.8953 -21.6979
L18.9392 -21.9617
L18.984 -22.225
L19.0297 -22.4879
L19.0763 -22.7503
L19.1238 -23.0123
L19.1723 -23.2739
L19.2217 -23.535
L19.272 -23.7957
L19.3232 -24.056
L19.3754 -24.3158
L19.4285 -24.5753
L19.4825 -24.8344
L19.5375 -25.0931
L19.5933 -25.3516
L19.6501 -25.6096
L19.7079 -25.8674
L19.7665 -26.125
L19.8261 -26.3823
L19.8866 -26.6393
L19.9481 -26.8962
L20.0105 -27.1529
L20.0739 -27.4094
L20.1382 -27.6658
L20.2034 -27.9222
L20.2696 -28.1785
L20.3368 -28.4347
L20.4049 -28.691
L20.474 -28.9473
L20.5441 -29.2036
L20.6872 -29.4601
L20.7603 -29.7167
L20.8343 -29.9734
L20.9094 -30.2304
L20.9855 -30.4875
L21.0626 -30.745
L21.1407 -31.0027
L21.2199 -31.2607
L21.3001 -31.5191
L21.3814 -31.7779
L21.4638 -32.0372
L21.5473 -32.2968
L21.6318 -32.557
L21.7175 -32.8177
L21.8042 -33.079
L21.8921 -33.3408
L21.9811 -33.6033
L22.0713 -33.8664
L22.1626 -34.1302
L22.255 -34.3947
L22.3486 -34.66
L22.4435 -34.926
L22.5394 -35.1929
L22.6366 -35.4606
L22.735 -35.7291
L22.8346 -35.9986
L22.9354 -36.2689
L23.0374 -36.5402
L23.1407 -36.8125
L23.2451 -37.0858
L23.3508 -37.3601
L23.4578 -37.6354
L23.5659 -37.9117
L23.6753 -38.1892
L23.7858 -38.4677
L23.8976 -38.7473
L24.0106 -39.0281
L24.1248 -39.31
L24.2401 -39.593
L24.3566 -39.8772
L24.4743 -40.1625
L24.593 -40.449
L24.7129 -40.7366
L24.8337 -41.0255
L24.9556 -41.3154
L25.0785 -41.6066
L25.2023 -41.8988
L25.3269 -42.1923
L25.4524 -42.4868
L25.5786 -42.7824
L25.7055 -43.0792
L25.8331 -43.3769
L25.9611 -43.6757
L26.0895 -43.9756
L26.2183 -44.2764
L26.3473 -44.5781
L26.4764 -44.8807
L26.6055 -45.1842
L26.7344 -45.4884
L26.863 -45.7934
L26.9911 -46.0992
L27.1186 -46.4055
L27.2452 -46.7124
L27.3709 -47.0198
L27.4952 -47.3277
L27.6182 -47.6359
L27.7394 -47.9444
L27.8587 -48.2531
L27.9759 -48.562
L28.0906 -48.8708
L28.2025 -49.1796
L28.3115 -49.4883
L28.4171 -49.7966
L28.5191 -50.1046
L28.6171 -50.4122
L28.7109 -50.7192
L28.8001 -51.0255
L28.8843 -51.331
L28.9633 -51.6355
L29.0366 -51.9391
L29.104 -52.2415
L29.1652 -52.5426
L29.2197 -52.8423
L29.2674 -53.1405
L29.3079 -53.437
L29.3409 -53.7317
L29.3662 -54.0245
L29.3835 -54.3151
L29.3926 -54.6036
L29.3934 -54.8897
L29.3856 -55.1733
L29.3691 -55.4543
L29.3439 -55.7325
L29.3098 -56.0077
L29.2668 -56.2798
L29.2148 -56.5488
L29.154 -56.8143
L29.0842 -57.0763
L29.0057 -57.3346
L28.9184 -57.5891
L28.8225 -57.8396
L28.7182 -58.0861
L28.6055 -58.3283
L28.4847 -58.5661
L28.3559 -58.7994
L28.2194 -59.0282
L28.0753 -59.2521
L27.9238 -59.4713
L27.7653 -59.6854
L27.5998 -59.8945
L27.4277 -60.0984
L27.2492 -60.2971
L27.0644 -60.4904
L26.8737 -60.6783
L26.6773 -60.8607
L26.4753 -61.0374
L26.268 -61.2086
L26.0556 -61.374
L25.8383 -61.5337
L25.6164 -61.6875
L25.3899 -61.8355
L25.1591 -61.9776
L24.9242 -62.1138
L24.462 -62.244
L24.0089 -62.06
L23.5595 -61.8547
L23.1139 -61.6415
L22.6722 -61.4204
L22.2346 -61.1917
L21.8012 -60.9552
L21.3721 -60.7112
L20.9474 -60.4596
L20.5274 -60.2006
L20.112 -59.9342
L19.7015 -59.6605
L19.2959 -59.3797
L18.8955 -59.0917
L18.5002 -58.7966
L18.1103 -58.4946
L17.7258 -58.1858
L17.3469 -57.8702
L16.9737 -57.5479
L16.6063 -57.2191
L16.2448 -56.8838
L15.8893 -56.5422
L15.5399 -56.1943
L15.1967 -55.8402
L14.8599 -55.4801
L14.5296 -55.1141
L14.2057 -54.7422
L13.8886 -54.3647
L13.5781 -53.9815
L13.2745 -53.5929
L12.9778 -53.1989
L12.6881 -52.7996
L12.4055 -52.3953
L12.1301 -51.9859
L11.862 -51.5717
L11.6012 -51.1528
L11.3479 -50.7292
L11.102 -50.3011
L10.8638 -49.8687
L10.6332 -49.4321
L10.4103 -48.9913
L10.1952 -48.5466
L9.98803 -48.0981
L9.78875 -47.6459
L9.59744 -47.1902
L9.41418 -46.731
L9.23902 -46.2686
L9.07201 -45.8031
L8.9132 -45.3345
L8.76264 -44.8631
L8.62038 -44.3891
L8.48646 -43.9124
L8.36092 -43.4334
L8.2438 -42.9521
L8.13513 -42.4686
L8.03496 -41.9832
L7.9433 -41.496
L7.86018 -41.0071
L7.78564 -40.5167
L7.71969 -40.0249
L7.66236 -39.5319
L7.61366 -39.0378
L7.57361 -38.5428
L7.54221 -38.047
L7.51948 -37.5506
L7.50543 -37.0537
L7.50006 -36.5564
L7.50337 -36.0591
L7.51536 -35.5617
L7.53603 -35.0644
L7.56537 -34.5674
L7.60336 -34.0709
L7.65001 -33.5749
L7.7053 -33.0797
L7.7692 -32.5854
L7.8417 -32.0921
L7.92278 -31.6
L8.01241 -31.1092
L8.11057 -30.6199
L8.21723 -30.1323
L8.33234 -29.6465
L8.45589 -29.1626
L8.58782 -28.6807
L8.7281 -28.2011
L8.87669 -27.7239
L9.03355 -27.2492
L9.19862 -26.7772
L9.37185 -26.308
L9.55319 -25.8417
L9.74259 -25.3785
L9.93999 -24.9186
L10.1453 -24.462
L10.3585 -24.0089
L10.5796 -23.5595
L10.8083 -23.1139
L11.0448 -22.6722
L11.2888 -22.2346
L11.5404 -21.8012
L11.7994 -21.3721
L12.0658 -20.9474
L12.3395 -20.5274
L12.6203 -20.112
L12.9083 -19.7015
L13.2034 -19.2959
L13.5054 -18.8955
L13.8142 -18.5002
L14.1298 -18.1103
L14.4521 -17.7258
L14.7809 -17.3469
L15.1162 -16.9737
L15.4578 -16.6063
L15.8057 -16.2448
L16.1598 -15.8893
L16.5199 -15.5399
L16.8859 -15.1967
L17.2578 -14.8599
z
" id="C0_1_a56463d398"/>
     <path d="
M47.1617 -9.98815
L47.2367 -10.2484
L47.3118 -10.5099
L47.3868 -10.7723
L47.4617 -11.0357
L47.5363 -11.3
L47.6103 -11.565
L47.6838 -11.8306
L47.7567 -12.0969
L47.8288 -12.3636
L47.9 -12.6308
L47.9703 -12.8983
L48.0396 -13.1661
L48.1078 -13.4342
L48.175 -13.7025
L48.241 -13.9709
L48.3059 -14.2394
L48.3695 -14.508
L48.4319 -14.7765
L48.493 -15.0451
L48.5529 -15.3137
L48.6114 -15.5821
L48.6687 -15.8505
L48.7246 -16.1188
L48.7792 -16.387
L48.8325 -16.655
L48.8844 -16.9229
L48.935 -17.1907
L48.9843 -17.4583
L49.0322 -17.7257
L49.0788 -17.993
L49.1242 -18.2601
L49.1682 -18.5271
L49.2108 -18.794
L49.2522 -19.0607
L49.2924 -19.3273
L49.3312 -19.5938
L49.3687 -19.8602
L49.4051 -20.1265
L49.4401 -20.3928
L49.4739 -20.659
L49.5065 -20.9252
L49.5378 -21.1914
L49.568 -21.4576
L49.5969 -21.7239
L49.6247 -21.9902
L49.6512 -22.2567
L49.6766 -22.5232
L49.7009 -22.7899
L49.7239 -23.0568
L49.7458 -23.3238
L49.7666 -23.5911
L49.7862 -23.8587
L49.8048 -24.1266
L49.8221 -24.3947
L49.8384 -24.6633
L49.8536 -24.9322
L49.8676 -25.2015
L49.8806 -25.4713
L49.8925 -25.7416
L49.9032 -26.0124
L49.9129 -26.2838
L49.9215 -26.5557
L49.929 -26.8283
L49.9355 -27.1015
L49.9408 -27.3755
L49.9451 -27.6501
L49.9483 -27.9255
L49.9505 -28.2017
L49.9515 -28.4788
L49.9515 -28.7567
L49.9505 -29.0355
L49.9483 -29.3152
L49.9451 -29.5959
L49.9408 -29.8776
L49.9354 -30.1603
L49.929 -30.4441
L49.9215 -30.729
L49.9129 -31.015
L49.9032 -31.3022
L49.8925 -31.5905
L49.8806 -31.8801
L49.8678 -32.1709
L49.8538 -32.463
L49.8387 -32.7564
L49.8226 -33.051
L49.8054 -33.3471
L49.7871 -33.6444
L49.7678 -33.9432
L49.7474 -34.2434
L49.726 -34.5449
L49.7035 -34.8479
L49.6799 -35.1524
L49.6553 -35.4582
L49.6297 -35.7655
L49.6031 -36.0743
L49.5755 -36.3846
L49.547 -36.6962
L49.5174 -37.0094
L49.487 -37.324
L49.4556 -37.64
L49.4234 -37.9574
L49.3903 -38.2762
L49.3564 -38.5964
L49.3217 -38.9179
L49.2863 -39.2407
L49.2503 -39.5648
L49.2136 -39.8901
L49.1764 -40.2166
L49.1387 -40.5442
L49.1006 -40.8729
L49.0622 -41.2026
L49.0235 -41.5332
L48.9847 -41.8647
L48.9459 -42.1969
L48.9071 -42.5299
L48.8686 -42.8634
L48.8303 -43.1974
L48.7926 -43.5318
L48.7554 -43.8665
L48.7191 -44.2013
L48.6837 -44.5361
L48.6494 -44.8708
L48.6165 -45.2053
L48.5852 -45.5393
L48.5556 -45.8727
L48.528 -46.2054
L48.5026 -46.5372
L48.4797 -46.868
L48.4596 -47.1974
L48.4424 -47.5254
L48.4286 -47.8518
L48.4182 -48.1764
L48.4118 -48.4989
L48.4094 -48.8191
L48.4115 -49.137
L48.4183 -49.4522
L48.4301 -49.7645
L48.4471 -50.0738
L48.4697 -50.3798
L48.4981 -50.6823
L48.5326 -50.9811
L48.5733 -51.276
L48.6206 -51.5668
L48.6746 -51.8534
L48.7354 -52.1354
L48.8033 -52.4129
L48.8784 -52.6854
L48.9607 -52.953
L49.0503 -53.2153
L49.1473 -53.4723
L49.2516 -53.7239
L49.3634 -53.9698
L49.4824 -54.21
L49.6087 -54.4443
L49.7422 -54.6725
L49.8827 -54.8947
L50.0302 -55.1107
L50.1844 -55.3205
L50.3452 -55.5238
L50.5124 -55.7207
L50.6857 -55.9112
L50.8651 -56.095
L51.0503 -56.2723
L51.2409 -56.4429
L51.4369 -56.6068
L51.638 -56.7641
L51.8439 -56.9145
L52.0545 -57.0583
L52.2694 -57.1952
L52.4885 -57.3254
L52.7115 -57.4487
L52.9383 -57.5653
L53.1685 -57.6751
L53.402 -57.7781
L53.6387 -57.8743
L54.3747 -57.9638
L54.7521 -57.7858
L55.1238 -57.4618
L55.4897 -57.1313
L55.8496 -56.7943
L56.2035 -56.451
L56.5512 -56.1015
L56.8927 -55.7458
L57.2278 -55.3841
L57.5565 -55.0165
L57.8786 -54.6432
L58.194 -54.2641
L58.5027 -53.8795
L58.8045 -53.4894
L59.0993 -53.094
L59.3872 -52.6934
L59.6678 -52.2878
L59.9413 -51.8771
L60.2075 -51.4616
L60.4664 -51.0415
L60.7177 -50.6167
L60.9616 -50.1875
L61.1978 -49.7539
L61.4264 -49.3162
L61.6472 -48.8744
L61.8602 -48.4287
L62.0653 -47.9792
L62.2625 -47.526
L62.4517 -47.0694
L62.6328 -46.6093
L62.8058 -46.1461
L62.9707 -45.6797
L63.1273 -45.2104
L63.2757 -44.7383
L63.4158 -44.2636
L63.5475 -43.7863
L63.6708 -43.3066
L63.7857 -42.8247
L63.8921 -42.3408
L63.9901 -41.8549
L64.0795 -41.3672
L64.1603 -40.8779
L64.2326 -40.3871
L64.2963 -39.895
L64.3513 -39.4016
L64.3977 -38.9073
L64.4355 -38.412
L64.4646 -37.9161
L64.4851 -37.4195
L64.4968 -36.9225
L64.4999 -36.4252
L64.4943 -35.9278
L64.48 -35.4305
L64.4571 -34.9332
L64.4255 -34.4364
L64.3852 -33.94
L64.3362 -33.4442
L64.2787 -32.9492
L64.2125 -32.4551
L64.1377 -31.9621
L64.0544 -31.4704
L63.9625 -30.98
L63.8621 -30.4911
L63.7532 -30.0039
L63.6359 -29.5186
L63.5101 -29.0352
L63.376 -28.554
L63.2335 -28.075
L63.0827 -27.5984
L62.9237 -27.1244
L62.7565 -26.6531
L62.5811 -26.1846
L62.3976 -25.7192
L62.2061 -25.2568
L62.0066 -24.7978
L61.7992 -24.3421
L61.5839 -23.89
L61.3608 -23.4416
L61.13 -22.997
L60.8916 -22.5564
L60.6456 -22.1199
L60.392 -21.6875
L60.1311 -21.2596
L59.8627 -20.8362
L59.5871 -20.4173
L59.3044 -20.0032
L59.0145 -19.594
L58.7176 -19.1898
L58.4138 -18.7907
L58.1032 -18.3968
L57.7858 -18.0083
L57.4618 -17.6253
L57.1313 -17.2479
L56.7943 -16.8762
L56.451 -16.5103
L56.1015 -16.1504
L55.7458 -15.7965
L55.3841 -15.4488
L55.0165 -15.1073
L54.6432 -14.7722
L54.2641 -14.4435
L53.8795 -14.1214
L53.4894 -13.806
L53.094 -13.4973
L52.6934 -13.1955
L52.2878 -12.9007
L51.8771 -12.6128
L51.4616 -12.3322
L51.0415 -12.0587
L50.6167 -11.7925
L50.1875 -11.5336
L49.7539 -11.2823
L49.3162 -11.0384
L48.8744 -10.8022
L48.4287 -10.5736
L47.9792 -10.3528
z
" id="C0_2_c567a35046"/>
    </defs>
    <g clip-path="url(#p1bffca34e9)">
     <use style="fill:#ff0000;stroke:#000000;stroke-width:2.0;" x="0.0" xlink:href="#C0_0_a811fe30f3" y="72.0"/>
    </g>
    <g clip-path="url(#p1bffca34e9)">
     <use style="fill:#ffffff;stroke:#000000;stroke-width:2.0;" x="0.0" xlink:href="#C0_1_a56463d398" y="72.0"/>
    </g>
    <g clip-path="url(#p1bffca34e9)">
     <use style="fill:#ffffff;stroke:#000000;stroke-width:2.0;" x="0.0" xlink:href="#C0_2_c567a35046" y="72.0"/>
    </g>
   </g>
  </g>
 </g>
 <defs>
  <clipPath id="p1bffca34e9">
   <rect height="72.0" width="72.0" x="0.0" y="0.0"/>
  </clipPath>
 </defs>
</svg>
