<?xml version="1.0" encoding="utf-8" standalone="no"?>
<!DOCTYPE svg PUBLIC "-//W3C//DTD SVG 1.1//EN"
  "http://www.w3.org/Graphics/SVG/1.1/DTD/svg11.dtd">
<!-- Created with matplotlib (http://matplotlib.org/) -->
<svg height="72pt" version="1.1" viewBox="0 0 72 72" width="72pt" xmlns="http://www.w3.org/2000/svg" xmlns:xlink="http://www.w3.org/1999/xlink">
 <defs>
  <style type="text/css">
*{stroke-linecap:butt;stroke-linejoin:round;}
  </style>
 </defs>
 <g id="figure_1">
  <g id="patch_1">
   <path d="
M0 72
L72 72
L72 0
L0 0
z
" style="fill:none;"/>
  </g>
  <g id="axes_1">
   <g id="PatchCollection_1">
    <defs>
     <path d="
M36 -7.5
C43.5583 -7.5 50.808 -10.5029 56.1525 -15.8475
C61.4971 -21.192 64.5 -28.4417 64.5 -36
C64.5 -43.5583 61.4971 -50.808 56.1525 -56.1525
C50.808 -61.4971 43.5583 -64.5 36 -64.5
C28.4417 -64.5 21.192 -61.4971 15.8475 -56.1525
C10.5029 -50.808 7.5 -43.5583 7.5 -36
C7.5 -28.4417 10.5029 -21.192 15.8475 -15.8475
C21.192 -10.5029 28.4417 -7.5 36 -7.5
z
" id="C0_0_a811fe30f3"/>
     <path d="
M63.5089 -29.1401
L63.3085 -29.0911
L63.108 -29.044
L62.9074 -28.9989
L62.7067 -28.9557
L62.5058 -28.9142
L62.3047 -28.8745
L62.1035 -28.8365
L61.9019 -28.8001
L61.7001 -28.7653
L61.4979 -28.7321
L61.2954 -28.7005
L61.0924 -28.6702
L60.889 -28.6415
L60.6851 -28.6142
L60.4807 -28.5882
L60.2757 -28.5636
L60.0701 -28.5403
L59.8638 -28.5184
L59.449 -28.4977
L59.2404 -28.4783
L59.0309 -28.4601
L58.8206 -28.4431
L58.6092 -28.4274
L58.3969 -28.4128
L58.1835 -28.3995
L57.969 -28.3873
L57.7533 -28.3763
L57.5363 -28.3664
L57.3181 -28.3577
L57.0986 -28.3501
L56.8776 -28.3437
L56.6552 -28.3385
L56.4312 -28.3343
L56.2057 -28.3314
L55.9785 -28.3295
L55.7497 -28.3289
L55.519 -28.3294
L55.2866 -28.331
L55.0522 -28.3338
L54.8158 -28.3379
L54.5775 -28.3431
L54.337 -28.3495
L54.0944 -28.3572
L53.8495 -28.3661
L53.6024 -28.3762
L53.3529 -28.3876
L53.1009 -28.4004
L52.8464 -28.4144
L52.5894 -28.4298
L52.3297 -28.4466
L52.0673 -28.4647
L51.8021 -28.4843
L51.534 -28.5054
L51.263 -28.5279
L50.989 -28.5519
L50.712 -28.5776
L50.4318 -28.6048
L50.1484 -28.6336
L49.8618 -28.6641
L49.5719 -28.6964
L49.2786 -28.7304
L48.9818 -28.7662
L48.6816 -28.8038
L48.3778 -28.8434
L48.0705 -28.8849
L47.7596 -28.9285
L47.445 -28.9742
L47.1267 -29.0219
L46.8048 -29.0719
L46.4791 -29.1241
L46.1497 -29.1787
L45.8166 -29.2357
L45.4797 -29.2951
L45.1393 -29.3572
L44.7951 -29.4218
L44.4474 -29.4891
L44.0961 -29.5593
L43.7414 -29.6323
L43.3834 -29.7083
L43.0221 -29.7874
L42.6578 -29.8696
L42.2905 -29.9551
L41.9205 -30.0441
L41.548 -30.1365
L41.1733 -30.2327
L40.7966 -30.3326
L40.4183 -30.4364
L40.0388 -30.5443
L39.6584 -30.6565
L39.2777 -30.7732
L38.8973 -30.8945
L38.5176 -31.0207
L38.1395 -31.1521
L37.7636 -31.289
L37.3909 -31.4315
L37.0223 -31.5803
L36.6589 -31.7355
L36.302 -31.8977
L35.9527 -32.0674
L35.6128 -32.2451
L35.2836 -32.4315
L34.9668 -32.6271
L34.6644 -32.8327
L34.378 -33.0491
L34.1094 -33.2769
L33.8604 -33.5168
L33.6324 -33.7694
L33.4265 -34.0353
L33.2437 -34.3146
L33.0843 -34.6075
L32.9482 -34.9137
L32.8351 -35.233
L32.744 -35.5644
L32.6738 -35.9073
L32.6232 -36.2606
L32.5905 -36.623
L32.5744 -36.9935
L32.5733 -37.3708
L32.5857 -37.7538
L32.6103 -38.1413
L32.6458 -38.5324
L32.6911 -38.926
L32.745 -39.3214
L32.8067 -39.7177
L32.8754 -40.1141
L32.9502 -40.5102
L33.0305 -40.9053
L33.1158 -41.2989
L33.2055 -41.6905
L33.299 -42.0798
L33.3961 -42.4664
L33.4962 -42.85
L33.5991 -43.2303
L33.7045 -43.6071
L33.812 -43.9802
L33.9214 -44.3494
L34.0326 -44.7146
L34.1452 -45.0756
L34.2592 -45.4323
L34.3743 -45.7847
L34.4904 -46.1326
L34.6073 -46.4761
L34.725 -46.8151
L34.8433 -47.1495
L34.9621 -47.4794
L35.0814 -47.8048
L35.201 -48.1256
L35.3209 -48.4419
L35.441 -48.7537
L35.5612 -49.0611
L35.6816 -49.3641
L35.802 -49.6627
L35.9224 -49.957
L36.0428 -50.247
L36.1632 -50.5329
L36.2835 -50.8146
L36.4036 -51.0923
L36.5237 -51.366
L36.6436 -51.6357
L36.7634 -51.9016
L36.8831 -52.1638
L37.0026 -52.4222
L37.1219 -52.6771
L37.2411 -52.9284
L37.3601 -53.1762
L37.479 -53.4206
L37.5977 -53.6617
L37.7163 -53.8996
L37.8347 -54.1343
L37.953 -54.366
L38.0712 -54.5946
L38.1893 -54.8203
L38.3074 -55.0431
L38.4254 -55.2632
L38.5433 -55.4805
L38.6612 -55.6952
L38.7791 -55.9073
L38.897 -56.1168
L39.0149 -56.324
L39.1329 -56.5287
L39.251 -56.7312
L39.3692 -56.9314
L39.4875 -57.1293
L39.606 -57.3252
L39.7246 -57.519
L39.8435 -57.7107
L39.9626 -57.9005
L40.082 -58.0883
L40.2017 -58.2743
L40.3217 -58.4585
L40.4421 -58.641
L40.5629 -58.8217
L40.6841 -59.0007
L40.8058 -59.1781
L40.928 -59.354
L41.0507 -59.5282
L41.174 -59.701
L41.2979 -59.8724
L41.4225 -60.0422
L41.5478 -60.2107
L41.6738 -60.3779
L41.8006 -60.5437
L41.9282 -60.7082
L42.0567 -60.8714
L42.1861 -61.0334
L42.3165 -61.1941
L42.4479 -61.3537
L42.5804 -61.512
L42.714 -61.6692
L42.8487 -61.8253
L42.9847 -61.9802
L43.122 -62.134
L43.2607 -62.2867
L43.4007 -62.4382
L43.5422 -62.5887
L43.6853 -62.738
L43.8299 -62.8863
L43.9763 -63.0334
L44.5014 -63.1794
L44.9749 -63.2025
L45.4456 -63.05
L45.9134 -62.8892
L46.3783 -62.7203
L46.8399 -62.5432
L47.2983 -62.358
L47.7532 -62.1648
L48.2046 -61.9637
L48.6522 -61.7546
L49.0959 -61.5377
L49.5357 -61.313
L49.9714 -61.0806
L50.4028 -60.8405
L50.8298 -60.5929
L51.2523 -60.3378
L51.6701 -60.0753
L52.0832 -59.8054
L52.4914 -59.5283
L52.8945 -59.244
L53.2925 -58.9527
L53.6853 -58.6543
L54.0726 -58.3491
L54.4545 -58.037
L54.8307 -57.7183
L55.2012 -57.3929
L55.5658 -57.061
L55.9245 -56.7227
L56.2771 -56.378
L56.6236 -56.0272
L56.9637 -55.6703
L57.2975 -55.3073
L57.6247 -54.9385
L57.9454 -54.564
L58.2594 -54.1837
L58.5667 -53.7979
L58.867 -53.4068
L59.1604 -53.0103
L59.4467 -52.6086
L59.7259 -52.2019
L59.9979 -51.7902
L60.2626 -51.3737
L60.5198 -50.9525
L60.7696 -50.5268
L61.0119 -50.0967
L61.2465 -49.6622
L61.4734 -49.2236
L61.6926 -48.781
L61.904 -48.3345
L62.1074 -47.8842
L62.3029 -47.4303
L62.4904 -46.973
L62.6699 -46.5122
L62.8412 -46.0483
L63.0043 -45.5813
L63.1592 -45.1114
L63.3058 -44.6387
L63.4441 -44.1634
L63.5741 -43.6856
L63.6956 -43.2055
L63.8088 -42.7232
L63.9134 -42.2388
L64.0096 -41.7525
L64.0972 -41.2645
L64.1762 -40.7748
L64.2467 -40.2838
L64.3086 -39.7914
L64.3618 -39.2978
L64.4064 -38.8033
L64.4424 -38.3078
L64.4696 -37.8117
L64.4883 -37.3151
L64.4982 -36.818
L64.4995 -36.3207
L64.492 -35.8233
L64.4759 -35.3259
L64.4511 -34.8288
L64.4177 -34.332
L64.3756 -33.8357
L64.3249 -33.3401
L64.2655 -32.8452
L64.1975 -32.3514
L64.1209 -31.8586
L64.0358 -31.3672
L63.9421 -30.8771
L63.8399 -30.3886
z
" id="C0_1_34881e0658"/>
     <path d="
M27.8793 -8.68826
L27.8341 -8.89173
L27.7899 -9.09746
L27.747 -9.30552
L27.7052 -9.51599
L27.6645 -9.72892
L27.625 -9.94441
L27.5866 -10.1625
L27.5493 -10.3833
L27.5132 -10.6068
L27.4782 -10.8332
L27.4444 -11.0625
L27.4117 -11.2948
L27.3802 -11.5301
L27.3498 -11.7686
L27.3205 -12.0104
L27.2924 -12.2554
L27.2655 -12.5038
L27.2398 -12.7557
L27.2152 -13.0111
L27.1919 -13.2701
L27.1697 -13.5328
L27.1488 -13.7993
L27.1291 -14.0697
L27.1106 -14.344
L27.0934 -14.6223
L27.0775 -14.9046
L27.0628 -15.1911
L27.0493 -15.4818
L27.0372 -15.7767
L27.0263 -16.076
L27.0168 -16.3797
L27.0085 -16.6877
L27.0015 -17.0003
L26.9958 -17.3173
L26.9913 -17.6388
L26.9881 -17.9649
L26.9862 -18.2955
L26.9854 -18.6307
L26.9858 -18.9704
L26.9873 -19.3145
L26.9899 -19.6632
L26.9935 -20.0162
L26.9979 -20.3736
L27.0032 -20.7352
L27.0092 -21.1009
L27.0157 -21.4705
L27.0225 -21.844
L27.0296 -22.2211
L27.0366 -22.6017
L27.0432 -22.9853
L27.0492 -23.3718
L27.0542 -23.7609
L27.0578 -24.152
L27.0594 -24.5449
L27.0585 -24.9391
L27.0545 -25.3339
L27.0465 -25.7289
L27.0338 -26.1233
L27.0154 -26.5164
L26.9902 -26.9074
L26.9569 -27.2953
L26.9143 -27.6793
L26.8609 -28.0584
L26.7952 -28.4314
L26.7156 -28.7973
L26.6207 -29.1551
L26.5089 -29.5037
L26.3792 -29.8424
L26.2304 -30.1704
L26.0622 -30.4873
L25.8742 -30.7929
L25.6668 -31.0871
L25.4406 -31.3702
L25.1968 -31.6427
L24.9367 -31.9053
L24.6618 -32.1585
L24.3738 -32.4033
L24.0744 -32.6405
L23.7652 -32.8707
L23.448 -33.0948
L23.1241 -33.3134
L22.7949 -33.527
L22.4617 -33.7363
L22.1256 -33.9417
L21.7877 -34.1436
L21.4487 -34.3423
L21.1096 -34.5381
L20.771 -34.7314
L20.4335 -34.9222
L20.0976 -35.1108
L19.7639 -35.2974
L19.4328 -35.482
L19.1045 -35.6647
L18.7794 -35.8458
L18.4578 -36.0251
L18.1399 -36.2029
L17.8258 -36.3791
L17.5159 -36.5538
L17.21 -36.727
L16.9085 -36.8989
L16.6114 -37.0693
L16.3186 -37.2385
L16.0304 -37.4062
L15.7467 -37.5727
L15.4675 -37.738
L15.1928 -37.9019
L14.9227 -38.0647
L14.657 -38.2262
L14.3959 -38.3866
L14.1392 -38.5458
L13.8869 -38.7039
L13.639 -38.8609
L13.3954 -39.0168
L13.156 -39.1717
L12.9208 -39.3256
L12.6898 -39.4784
L12.4629 -39.6303
L12.2399 -39.7813
L12.0209 -39.9313
L11.8057 -40.0805
L11.5943 -40.2288
L11.3866 -40.3763
L11.1826 -40.5231
L10.9821 -40.6691
L10.7852 -40.8143
L10.5916 -40.9589
L10.4014 -41.1028
L10.2145 -41.2461
L10.0308 -41.3889
L9.85028 -41.5311
L9.6728 -41.6728
L9.49833 -41.814
L9.3268 -41.9548
L9.15815 -42.0952
L8.99232 -42.2353
L8.82924 -42.375
L8.66887 -42.5145
L8.51113 -42.6537
L8.20883 -42.7928
L8.10282 -42.3167
L8.00531 -41.8307
L7.91633 -41.343
L7.8359 -40.8536
L7.76405 -40.3627
L7.7008 -39.8705
L7.64617 -39.3772
L7.60018 -38.8827
L7.56283 -38.3875
L7.53415 -37.8915
L7.51415 -37.3949
L7.50282 -36.8979
L7.50016 -36.4006
L7.5062 -35.9032
L7.52091 -35.4058
L7.54429 -34.9086
L7.57634 -34.4117
L7.61705 -33.9154
L7.66641 -33.4196
L7.7244 -32.9247
L7.791 -32.4306
L7.86619 -31.9377
L7.94995 -31.446
L8.04226 -30.9557
L8.14309 -30.4669
L8.25239 -29.9798
L8.37016 -29.4946
L8.49633 -29.0113
L8.63089 -28.5302
L8.77378 -28.0513
L8.92497 -27.5749
L9.0844 -27.101
L9.25203 -26.6298
L9.42781 -26.1615
L9.61168 -25.6962
L9.8036 -25.234
L10.0035 -24.7751
L10.2113 -24.3196
L10.427 -23.8677
L10.6504 -23.4195
L10.8816 -22.9751
L11.1204 -22.5346
L11.3668 -22.0983
L11.6207 -21.6662
L11.8821 -21.2385
L12.1508 -20.8153
L12.4267 -20.3967
L12.7098 -19.9828
L13.0001 -19.5738
L13.2973 -19.1699
L13.6014 -18.771
L13.9124 -18.3774
L14.2301 -17.9892
L14.5544 -17.6065
L14.8853 -17.2293
L15.2226 -16.8579
L15.5662 -16.4923
L15.916 -16.1327
L16.272 -15.7791
L16.634 -15.4317
L17.0018 -15.0905
L17.3755 -14.7557
L17.7548 -14.4274
L18.1397 -14.1056
L18.5301 -13.7905
L18.9257 -13.4822
L19.3266 -13.1807
L19.7325 -12.8862
L20.1434 -12.5988
L20.5591 -12.3184
L20.9795 -12.0453
L21.4045 -11.7795
L21.8339 -11.521
L22.2677 -11.27
L22.7056 -11.0265
L23.1476 -10.7907
L23.5935 -10.5625
L24.0432 -10.3421
L24.4965 -10.1295
L24.9534 -9.92472
L25.4136 -9.72793
L25.877 -9.53914
L26.3435 -9.35841
L26.8129 -9.1858
L27.2852 -9.02135
z
" id="C0_2_a0fef318d3"/>
    </defs>
    <g clip-path="url(#p1bffca34e9)">
     <use style="fill:#ff0000;stroke:#000000;stroke-width:2.0;" x="0.0" xlink:href="#C0_0_a811fe30f3" y="72.0"/>
    </g>
    <g clip-path="url(#p1bffca34e9)">
     <use style="fill:#ffffff;stroke:#000000;stroke-width:2.0;" x="0.0" xlink:href="#C0_1_34881e0658" y="72.0"/>
    </g>
    <g clip-path="url(#p1bffca34e9)">
     <use style="fill:#ffffff;stroke:#000000;stroke-width:2.0;" x="0.0" xlink:href="#C0_2_a0fef318d3" y="72.0"/>
    </g>
   </g>
  </g>
 </g>
 <defs>
  <clipPath id="p1bffca34e9">
   <rect height="72.0" width="72.0" x="0.0" y="0.0"/>
  </clipPath>
 </defs>
</svg>
