<?xml version="1.0" encoding="utf-8" standalone="no"?>
<!DOCTYPE svg PUBLIC "-//W3C//DTD SVG 1.1//EN"
  "http://www.w3.org/Graphics/SVG/1.1/DTD/svg11.dtd">
<!-- Created with matplotlib (http://matplotlib.org/) -->
<svg height="72pt" version="1.1" viewBox="0 0 72 72" width="72pt" xmlns="http://www.w3.org/2000/svg" xmlns:xlink="http://www.w3.org/1999/xlink">
 <defs>
  <style type="text/css">
*{stroke-linecap:butt;stroke-linejoin:round;}
  </style>
 </defs>
 <g id="figure_1">
  <g id="patch_1">
   <path d="
M0 72
L72 72
L72 0
L0 0
z
" style="fill:none;"/>
  </g>
  <g id="axes_1">
   <g id="PatchCollection_1">
    <defs>
     <path d="
M36 -7.5
C43.5583 -7.5 50.808 -10.5029 56.1525 -15.8475
C61.4971 -21.192 64.5 -28.4417 64.5 -36
C64.5 -43.5583 61.4971 -50.808 56.1525 -56.1525
C50.808 -61.4971 43.5583 -64.5 36 -64.5
C28.4417 -64.5 21.192 -61.4971 15.8475 -56.1525
C10.5029 -50.808 7.5 -43.5583 7.5 -36
C7.5 -28.4417 10.5029 -21.192 15.8475 -15.8475
C21.192 -10.5029 28.4417 -7.5 36 -7.5
z
" id="C0_0_a811fe30f3"/>
     <path d="
M27.7332 -43.2304
L27.954 -43.3663
L28.1756 -43.5012
L28.3981 -43.635
L28.6216 -43.7678
L28.8462 -43.8996
L29.0717 -44.0304
L29.2984 -44.1602
L29.5263 -44.2892
L29.7554 -44.4172
L29.9858 -44.5443
L30.2175 -44.6706
L30.4506 -44.7961
L30.6852 -44.9207
L30.9214 -45.0445
L31.1591 -45.1675
L31.3985 -45.2898
L31.6396 -45.4112
L31.8824 -45.5319
L32.1272 -45.6518
L32.3738 -45.771
L32.6225 -45.8894
L32.8731 -46.0071
L33.1259 -46.1241
L33.3809 -46.2402
L33.6382 -46.3557
L33.8977 -46.4703
L34.1597 -46.5842
L34.4241 -46.6973
L34.6911 -46.8096
L34.9607 -46.9211
L35.233 -47.0317
L35.5081 -47.1415
L35.786 -47.2504
L36.0667 -47.3584
L36.3505 -47.4654
L36.6373 -47.5714
L36.9272 -47.6764
L37.2203 -47.7803
L37.5167 -47.8831
L37.8164 -47.9846
L38.1194 -48.085
L38.4259 -48.184
L38.7359 -48.2817
L39.0495 -48.3779
L39.3667 -48.4726
L39.6875 -48.5657
L40.0121 -48.657
L40.3404 -48.7466
L40.6725 -48.8342
L41.0085 -48.9198
L41.3483 -49.0032
L41.6919 -49.0844
L42.0394 -49.1631
L42.3909 -49.2392
L42.7461 -49.3126
L43.1053 -49.3831
L43.4682 -49.4505
L43.835 -49.5146
L44.2055 -49.5753
L44.5797 -49.6322
L44.9574 -49.6853
L45.3386 -49.7341
L45.7232 -49.7785
L46.1111 -49.8182
L46.502 -49.8529
L46.8958 -49.8823
L47.2923 -49.906
L47.6912 -49.9237
L48.0923 -49.935
L48.4952 -49.9394
L48.8997 -49.9365
L49.3054 -49.9258
L49.7117 -49.9068
L50.1183 -49.8789
L50.5246 -49.8414
L50.93 -49.7936
L51.3337 -49.7348
L51.7351 -49.6641
L52.1332 -49.5806
L52.5271 -49.4832
L52.9158 -49.3708
L53.298 -49.2423
L53.6724 -49.0964
L54.0377 -48.9317
L54.3923 -48.747
L54.7347 -48.541
L55.0633 -48.3127
L55.3766 -48.0612
L55.6732 -47.786
L55.9519 -47.487
L56.2119 -47.1646
L56.4524 -46.8195
L56.6731 -46.4532
L56.8741 -46.0671
L57.0555 -45.6632
L57.2179 -45.2436
L57.3616 -44.8102
L57.4876 -44.3651
L57.5964 -43.9103
L57.6888 -43.4476
L57.7655 -42.9786
L57.8274 -42.5049
L57.875 -42.0278
L57.909 -41.5486
L57.9302 -41.0684
L57.9391 -40.5881
L57.9363 -40.1085
L57.9223 -39.6306
L57.8977 -39.1548
L57.863 -38.6819
L57.8186 -38.2123
L57.7651 -37.7464
L57.703 -37.2848
L57.6325 -36.8278
L57.5541 -36.3755
L57.4683 -35.9284
L57.3755 -35.4866
L57.2758 -35.0504
L57.1699 -34.6198
L57.0578 -34.195
L56.9401 -33.7761
L56.817 -33.3632
L56.6887 -32.9563
L56.5556 -32.5556
L56.418 -32.1609
L56.276 -31.7723
L56.1299 -31.3898
L55.9801 -31.0133
L55.8265 -30.6429
L55.6696 -30.2785
L55.5095 -29.92
L55.3462 -29.5674
L55.1802 -29.2206
L55.0114 -28.8795
L54.84 -28.5441
L54.6663 -28.2143
L54.4902 -27.89
L54.312 -27.571
L54.1318 -27.2573
L53.9496 -26.9489
L53.7655 -26.6455
L53.5798 -26.3472
L53.3923 -26.0538
L53.2033 -25.7652
L53.0127 -25.4813
L52.8208 -25.202
L52.6274 -24.9272
L52.4327 -24.6568
L52.2366 -24.3908
L52.0394 -24.1289
L51.8409 -23.8712
L51.6413 -23.6176
L51.4405 -23.3679
L51.2385 -23.122
L51.0355 -22.8799
L50.8313 -22.6414
L50.6261 -22.4066
L50.4198 -22.1752
L50.2125 -21.9473
L50.004 -21.7227
L49.7945 -21.5014
L49.5839 -21.2833
L49.3722 -21.0683
L49.1594 -20.8563
L48.9455 -20.6474
L48.7305 -20.4413
L48.5144 -20.2381
L48.297 -20.0377
L48.0785 -19.84
L47.8587 -19.645
L47.6377 -19.4527
L47.4154 -19.2629
L47.1919 -19.0756
L46.9669 -18.8907
L46.7406 -18.7083
L46.5129 -18.5283
L46.2836 -18.3506
L46.0529 -18.1753
L45.8207 -18.0022
L45.5868 -17.8313
L45.3513 -17.6626
L45.1141 -17.4961
L44.8752 -17.3318
L44.6345 -17.1695
L44.3919 -17.0094
L44.1474 -16.8514
L43.9009 -16.6954
L43.6524 -16.5415
L43.4018 -16.3896
L43.1491 -16.2398
L42.8941 -16.0921
L42.6369 -15.9463
L42.3773 -15.8026
L42.1152 -15.661
L41.8507 -15.5214
L41.5836 -15.3838
L41.3138 -15.2484
L41.0414 -15.115
L40.7661 -14.9838
L40.488 -14.8548
L40.2069 -14.7279
L39.9227 -14.6032
L39.6355 -14.4808
L39.345 -14.3607
L39.0513 -14.243
L38.7541 -14.1276
L38.4535 -14.0147
L38.1494 -13.9044
L37.8416 -13.7966
L37.5301 -13.6916
L37.2148 -13.5892
L36.8955 -13.4898
L36.5723 -13.3932
L36.245 -13.2997
L35.9135 -13.2094
L35.5778 -13.1223
L35.2377 -13.0386
L34.8932 -12.9584
L34.5442 -12.8818
L34.1906 -12.809
L33.8323 -12.7402
L33.4693 -12.6755
L33.1015 -12.6151
L32.7288 -12.5592
L32.3512 -12.5079
L31.9687 -12.4615
L31.5811 -12.4201
L31.1884 -12.384
L30.7906 -12.3535
L30.3878 -12.3287
L29.9798 -12.3099
L29.5667 -12.2974
L29.1484 -12.2915
L28.7251 -12.2924
L28.2968 -12.3004
L27.8635 -12.3159
L27.4253 -12.3391
L26.9824 -12.3704
L26.5348 -12.41
L26.0827 -12.4584
L25.6263 -12.5159
L25.1657 -12.5829
L24.7013 -12.6596
L24.2333 -12.7465
L23.762 -12.844
L23.2878 -12.9523
L22.8111 -13.072
L22.3323 -13.2032
L21.8519 -13.3464
L21.3705 -13.502
L20.8888 -13.6702
L20.4074 -13.8515
L19.9271 -14.046
L19.4488 -14.2542
L18.9734 -14.4761
L18.5021 -14.7122
L18.0361 -14.9624
L17.5765 -15.227
L17.125 -15.506
L16.6831 -15.7994
L16.2525 -16.107
L15.8352 -16.4288
L15.4333 -16.7643
L15.0488 -17.1132
L14.684 -17.4748
L14.3411 -17.8483
L14.0223 -18.233
L13.7294 -18.6276
L13.4641 -19.0311
L13.2276 -19.442
L13.0205 -19.8591
L12.8429 -20.2809
L12.6944 -20.7061
L12.5742 -21.1335
L12.481 -21.5617
L12.4134 -21.9899
L12.3697 -22.417
L12.3481 -22.8423
L12.3471 -23.2651
L12.3649 -23.6848
L12.4001 -24.101
L12.4511 -24.5132
L12.5168 -24.9212
L12.5958 -25.3246
L12.6871 -25.7231
L12.7896 -26.1167
L12.9025 -26.5052
L13.0248 -26.8884
L13.1558 -27.2662
L13.2949 -27.6385
L13.4412 -28.0053
L13.5943 -28.3666
L13.7536 -28.7223
L13.9186 -29.0724
L14.0887 -29.4169
L14.2636 -29.7558
L14.4429 -30.0891
L14.6261 -30.417
L14.8129 -30.7393
L15.003 -31.0562
L15.196 -31.3677
L15.3918 -31.6739
L15.59 -31.9749
L15.7904 -32.2707
L15.9928 -32.5614
L16.1969 -32.847
L16.4026 -33.1277
L16.6096 -33.4036
L16.8179 -33.6747
L17.0272 -33.9412
L17.2375 -34.2031
L17.4486 -34.4605
L17.6604 -34.7135
L17.8727 -34.9622
L18.0856 -35.2067
L18.2988 -35.4471
L18.5123 -35.6836
L18.7261 -35.9161
L18.9401 -36.1448
L19.1543 -36.3698
L19.3685 -36.5911
L19.5827 -36.809
L19.7969 -37.0234
L20.0112 -37.2344
L20.2253 -37.4422
L20.4394 -37.6468
L20.6534 -37.8483
L20.8673 -38.0468
L21.0811 -38.2423
L21.2947 -38.4351
L21.5083 -38.625
L21.7217 -38.8123
L21.935 -38.997
L22.1483 -39.1791
L22.3614 -39.3588
L22.5744 -39.5361
L22.7874 -39.7111
L23.0004 -39.8838
L23.2133 -40.0543
L23.4262 -40.2227
L23.6392 -40.3891
L23.8521 -40.5534
L24.0652 -40.7158
L24.2784 -40.8764
L24.4917 -41.0351
L24.7052 -41.192
L24.9189 -41.3472
L25.1328 -41.5008
L25.347 -41.6527
L25.5616 -41.8031
L25.7764 -41.9519
L25.9917 -42.0993
L26.2074 -42.2452
L26.4236 -42.3898
L26.6403 -42.533
L26.8575 -42.6749
L27.0754 -42.8156
L27.2939 -42.955
z
" id="C0_1_1bcae5a3df"/>
    </defs>
    <g clip-path="url(#p1bffca34e9)">
     <use style="fill:#ff0000;stroke:#000000;stroke-width:2.0;" x="0.0" xlink:href="#C0_0_a811fe30f3" y="72.0"/>
    </g>
    <g clip-path="url(#p1bffca34e9)">
     <use style="fill:#ffffff;stroke:#000000;stroke-width:2.0;" x="0.0" xlink:href="#C0_1_1bcae5a3df" y="72.0"/>
    </g>
   </g>
  </g>
 </g>
 <defs>
  <clipPath id="p1bffca34e9">
   <rect height="72.0" width="72.0" x="0.0" y="0.0"/>
  </clipPath>
 </defs>
</svg>
