<?xml version="1.0" encoding="utf-8" standalone="no"?>
<!DOCTYPE svg PUBLIC "-//W3C//DTD SVG 1.1//EN"
  "http://www.w3.org/Graphics/SVG/1.1/DTD/svg11.dtd">
<!-- Created with matplotlib (http://matplotlib.org/) -->
<svg height="72pt" version="1.1" viewBox="0 0 72 72" width="72pt" xmlns="http://www.w3.org/2000/svg" xmlns:xlink="http://www.w3.org/1999/xlink">
 <defs>
  <style type="text/css">
*{stroke-linecap:butt;stroke-linejoin:round;}
  </style>
 </defs>
 <g id="figure_1">
  <g id="patch_1">
   <path d="
M0 72
L72 72
L72 0
L0 0
z
" style="fill:none;"/>
  </g>
  <g id="axes_1">
   <g id="PatchCollection_1">
    <defs>
     <path d="
M36 -7.5
C43.5583 -7.5 50.808 -10.5029 56.1525 -15.8475
C61.4971 -21.192 64.5 -28.4417 64.5 -36
C64.5 -43.5583 61.4971 -50.808 56.1525 -56.1525
C50.808 -61.4971 43.5583 -64.5 36 -64.5
C28.4417 -64.5 21.192 -61.4971 15.8475 -56.1525
C10.5029 -50.808 7.5 -43.5583 7.5 -36
C7.5 -28.4417 10.5029 -21.192 15.8475 -15.8475
C21.192 -10.5029 28.4417 -7.5 36 -7.5
z
" id="C0_0_a811fe30f3"/>
     <path d="
M23.3178 -10.5105
L23.4276 -10.7389
L23.5578 -10.9625
L23.7068 -11.182
L23.8724 -11.3978
L24.0529 -11.6107
L24.2466 -11.8211
L24.4519 -12.0294
L24.6672 -12.2362
L24.8913 -12.4418
L25.1229 -12.6466
L25.3609 -12.8508
L25.6042 -13.0547
L25.852 -13.2584
L26.1033 -13.4622
L26.3576 -13.6661
L26.6141 -13.8703
L26.8723 -14.0748
L27.1316 -14.2796
L27.3916 -14.4848
L27.6518 -14.6904
L27.9119 -14.8964
L28.1716 -15.1028
L28.4305 -15.3094
L28.6885 -15.5164
L28.9453 -15.7237
L29.2007 -15.9311
L29.4546 -16.1388
L29.7067 -16.3466
L29.9571 -16.5545
L30.2055 -16.7624
L30.4519 -16.9703
L30.6962 -17.1782
L30.9383 -17.386
L31.1782 -17.5937
L31.4159 -17.8012
L31.6513 -18.0085
L31.8845 -18.2156
L32.1153 -18.4224
L32.3438 -18.629
L32.57 -18.8352
L32.7939 -19.0411
L33.0156 -19.2467
L33.2349 -19.4519
L33.452 -19.6567
L33.6669 -19.8612
L33.8796 -20.0653
L34.0902 -20.269
L34.2985 -20.4722
L34.5049 -20.6751
L34.7091 -20.8776
L34.9113 -21.0798
L35.1116 -21.2815
L35.3099 -21.4829
L35.5063 -21.684
L35.7009 -21.8847
L35.8936 -22.085
L36.0846 -22.2851
L36.2739 -22.4849
L36.4615 -22.6844
L36.6475 -22.8837
L36.8319 -23.0828
L37.0147 -23.2816
L37.1961 -23.4803
L37.376 -23.6789
L37.5545 -23.8773
L37.7317 -24.0756
L37.9075 -24.2739
L38.0821 -24.4722
L38.2555 -24.6704
L38.4277 -24.8687
L38.5987 -25.0671
L38.7687 -25.2656
L38.9376 -25.4642
L39.1055 -25.663
L39.2724 -25.8621
L39.4384 -26.0613
L39.6035 -26.2609
L39.7677 -26.4608
L39.9312 -26.6611
L40.0939 -26.8617
L40.2558 -27.0629
L40.4171 -27.2645
L40.7377 -27.4667
L40.8971 -27.6694
L41.0559 -27.8728
L41.2142 -28.0769
L41.3721 -28.2816
L41.5295 -28.4871
L41.6865 -28.6934
L41.8431 -28.9006
L41.9994 -29.1087
L42.1553 -29.3177
L42.311 -29.5277
L42.4664 -29.7388
L42.6216 -29.9509
L42.7766 -30.1642
L42.9314 -30.3787
L43.0861 -30.5944
L43.2407 -30.8115
L43.3952 -31.0298
L43.5496 -31.2496
L43.704 -31.4708
L43.8584 -31.6936
L44.0128 -31.9178
L44.1672 -32.1437
L44.3217 -32.3713
L44.4762 -32.6006
L44.6309 -32.8316
L44.7857 -33.0645
L44.9406 -33.2993
L45.0957 -33.5359
L45.2509 -33.7746
L45.4063 -34.0153
L45.5619 -34.2581
L45.7177 -34.503
L45.8738 -34.7501
L46.03 -34.9995
L46.1866 -35.2511
L46.3433 -35.5051
L46.5003 -35.7615
L46.6576 -36.0202
L46.8151 -36.2815
L46.9729 -36.5452
L47.1309 -36.8115
L47.2892 -37.0803
L47.4478 -37.3517
L47.6066 -37.6258
L47.7656 -37.9025
L47.9249 -38.1818
L48.0844 -38.4638
L48.2441 -38.7485
L48.4041 -39.0359
L48.5642 -39.3259
L48.7245 -39.6185
L48.885 -39.9138
L49.0456 -40.2116
L49.2064 -40.512
L49.3673 -40.8148
L49.5283 -41.12
L49.6894 -41.4275
L49.8506 -41.7372
L50.0119 -42.049
L50.1734 -42.3627
L50.3349 -42.6782
L50.4965 -42.9953
L50.6583 -43.3138
L50.8203 -43.6334
L50.9825 -43.9539
L51.145 -44.275
L51.3078 -44.5964
L51.4712 -44.9176
L51.6351 -45.2383
L51.7997 -45.558
L51.9652 -45.8761
L52.1319 -46.1922
L52.3 -46.5055
L52.4698 -46.8155
L52.6416 -47.1212
L52.8158 -47.4218
L52.993 -47.7164
L53.1735 -48.0041
L53.358 -48.2836
L53.547 -48.5538
L53.7414 -48.8133
L53.9416 -49.0609
L54.1486 -49.295
L54.363 -49.5142
L54.5856 -49.717
L54.817 -49.9018
L55.0579 -50.0671
L55.3086 -50.2115
L55.5696 -50.3338
L55.8409 -50.4328
L56.1227 -50.5076
L56.4145 -50.5576
L56.7161 -50.5823
L57.0267 -50.5816
L57.3456 -50.5555
L57.6719 -50.5044
L58.0046 -50.4288
L58.3427 -50.3294
L58.6849 -50.2069
L59.0302 -50.0624
L59.3775 -49.8966
L59.7257 -49.7108
L60.0739 -49.5057
L60.421 -49.2825
L60.7661 -49.0421
L61.1084 -48.7855
L61.4472 -48.5135
L61.7817 -48.2271
L62.0711 -47.9271
L62.268 -47.513
L62.457 -47.0562
L62.6379 -46.5961
L62.8107 -46.1327
L62.9753 -45.6663
L63.1317 -45.1969
L63.2798 -44.7247
L63.4197 -44.2499
L63.5511 -43.7725
L63.6742 -43.2928
L63.7889 -42.8109
L63.8951 -42.3268
L63.9927 -41.8409
L64.0819 -41.3532
L64.1625 -40.8638
L64.2345 -40.373
L64.298 -39.8808
L64.3528 -39.3874
L64.399 -38.8931
L64.4365 -38.3978
L64.4653 -37.9018
L64.4855 -37.4052
L64.497 -36.9082
L64.4999 -36.4109
L64.494 -35.9135
L64.4795 -35.4162
L64.4563 -34.919
L64.4244 -34.4221
L64.3839 -33.9257
L64.3347 -33.4299
L64.2769 -32.935
L64.2105 -32.4409
L64.1355 -31.948
L64.0519 -31.4562
L63.9597 -30.9659
L63.8591 -30.4771
L63.75 -29.99
L63.6324 -29.5047
L63.5064 -29.0214
L63.372 -28.5402
L63.2293 -28.0613
L63.0783 -27.5848
L62.919 -27.1108
L62.7515 -26.6396
L62.5759 -26.1712
L62.3922 -25.7058
L62.2005 -25.2436
L62.0008 -24.7846
L61.7931 -24.3291
L61.5776 -23.8771
L61.3543 -23.4288
L61.1233 -22.9843
L60.8846 -22.5438
L60.6384 -22.1074
L60.3846 -21.6752
L60.1234 -21.2474
L59.8549 -20.8241
L59.5791 -20.4053
L59.2961 -19.9914
L59.0061 -19.5823
L58.709 -19.1783
L58.405 -18.7793
L58.0941 -18.3856
L57.7766 -17.9973
L57.4524 -17.6144
L57.1217 -17.2372
L56.7845 -16.8656
L56.441 -16.4999
L56.0913 -16.1401
L55.7355 -15.7864
L55.3736 -15.4389
L55.0059 -15.0976
L54.6323 -14.7626
L54.2531 -14.4342
L53.8684 -14.1123
L53.4781 -13.797
L53.0826 -13.4886
L52.6819 -13.187
L52.276 -12.8923
L51.8652 -12.6047
L51.4496 -12.3242
L51.0293 -12.0509
L50.6044 -11.7849
L50.1751 -11.5263
L49.7414 -11.2752
L49.3035 -11.0315
L48.8616 -10.7955
L48.4158 -10.5672
L47.9662 -10.3466
L47.513 -10.1338
L47.0562 -9.92891
L46.5961 -9.73195
L46.1327 -9.54299
L45.6663 -9.3621
L45.1969 -9.18931
L44.7247 -9.0247
L44.2499 -8.8683
L43.7725 -8.72016
L43.2928 -8.58034
L42.8109 -8.44886
L42.3268 -8.32578
L41.8409 -8.21113
L41.3532 -8.10495
L40.8638 -8.00726
L40.373 -7.91809
L39.8808 -7.83749
L39.3874 -7.76546
L38.8931 -7.70203
L38.3978 -7.64722
L37.9018 -7.60105
L37.4052 -7.56352
L36.9082 -7.53466
L36.4109 -7.51448
L35.9135 -7.50296
L35.4162 -7.50013
L34.919 -7.50598
L34.4221 -7.52051
L33.9257 -7.54371
L33.4299 -7.57559
L32.935 -7.61612
L32.4409 -7.66529
L31.948 -7.7231
L31.4562 -7.78952
L30.9659 -7.86454
L30.4771 -7.94812
L29.99 -8.04025
L29.5047 -8.1409
L29.0214 -8.25003
L28.5402 -8.36762
L28.0613 -8.49362
L27.5848 -8.628
L27.1108 -8.77072
L26.6396 -8.92173
L26.1712 -9.08099
L25.7058 -9.24845
L25.2436 -9.42406
L24.7846 -9.60777
L24.3291 -9.79951
L23.8771 -9.99924
z
" id="C0_1_79b98a7d54"/>
     <path d="
M10.0311 -24.449
L10.0174 -24.9038
L10.0087 -25.3586
L10.0054 -25.8128
L10.0076 -26.2658
L10.0154 -26.717
L10.0288 -27.1661
L10.048 -27.6126
L10.073 -28.0562
L10.1035 -28.4965
L10.1397 -28.9332
L10.1815 -29.3661
L10.2286 -29.7951
L10.2811 -30.2198
L10.3387 -30.6401
L10.4013 -31.056
L10.4689 -31.4672
L10.5412 -31.8738
L10.6181 -32.2756
L10.6995 -32.6725
L10.7851 -33.0646
L10.8749 -33.4518
L10.9686 -33.834
L11.0663 -34.2114
L11.1676 -34.5839
L11.2725 -34.9515
L11.3808 -35.3143
L11.4924 -35.6723
L11.6072 -36.0255
L11.725 -36.374
L11.8458 -36.7179
L11.9694 -37.0572
L12.0957 -37.392
L12.2246 -37.7223
L12.3561 -38.0482
L12.49 -38.3698
L12.6263 -38.6872
L12.7648 -39.0004
L12.9055 -39.3096
L13.0484 -39.6147
L13.1933 -39.916
L13.3403 -40.2134
L13.4892 -40.5071
L13.64 -40.7971
L13.7926 -41.0835
L13.9471 -41.3664
L14.1034 -41.6459
L14.2614 -41.9221
L14.4211 -42.195
L14.5825 -42.4647
L14.7456 -42.7313
L14.9103 -42.9949
L15.0767 -43.2555
L15.2446 -43.5132
L15.4142 -43.7682
L15.5854 -44.0204
L15.7581 -44.2699
L15.9325 -44.5168
L16.1085 -44.7613
L16.286 -45.0032
L16.4652 -45.2428
L16.646 -45.48
L16.8284 -45.715
L17.0125 -45.9477
L17.1982 -46.1783
L17.3856 -46.4068
L17.5747 -46.6332
L17.7655 -46.8577
L17.9581 -47.0802
L18.1524 -47.3009
L18.3486 -47.5197
L18.5465 -47.7367
L18.7464 -47.952
L18.9482 -48.1656
L19.1519 -48.3775
L19.3576 -48.5878
L19.5653 -48.7965
L19.775 -49.0036
L19.9869 -49.2093
L20.201 -49.4134
L20.4172 -49.6162
L20.6357 -49.8175
L20.8565 -50.0174
L21.0797 -50.2159
L21.3053 -50.4131
L21.5334 -50.609
L21.7639 -50.8036
L21.9971 -50.9969
L22.2329 -51.1889
L22.4715 -51.3797
L22.7128 -51.5692
L22.957 -51.7574
L23.204 -51.9444
L23.4541 -52.1302
L23.7071 -52.3148
L23.9633 -52.4981
L24.2227 -52.6801
L24.4854 -52.8609
L24.7514 -53.0405
L25.0207 -53.2187
L25.2936 -53.3957
L25.57 -53.5713
L25.8501 -53.7456
L26.1338 -53.9186
L26.4213 -54.0901
L26.7127 -54.2602
L27.008 -54.4288
L27.3073 -54.5959
L27.6107 -54.7615
L27.9182 -54.9254
L28.2299 -55.0877
L28.5459 -55.2482
L28.8662 -55.407
L29.1909 -55.5639
L29.5201 -55.7189
L29.8538 -55.8719
L30.192 -56.0228
L30.5348 -56.1716
L30.8823 -56.3182
L31.2344 -56.4624
L31.5912 -56.6042
L31.9527 -56.7436
L32.3189 -56.8803
L32.6897 -57.0143
L33.0653 -57.1455
L33.4454 -57.2739
L33.8302 -57.3992
L34.2195 -57.5215
L34.6132 -57.6405
L35.0113 -57.7563
L35.4136 -57.8687
L35.82 -57.9777
L36.2304 -58.0832
L36.6444 -58.1851
L37.062 -58.2833
L37.4829 -58.3779
L37.9067 -58.4688
L38.3332 -58.5561
L38.762 -58.6397
L39.1926 -58.7198
L39.6248 -58.7965
L40.0578 -58.8698
L40.4913 -58.94
L40.9245 -59.0074
L41.3568 -59.0722
L41.7875 -59.1349
L42.2158 -59.1958
L42.6407 -59.2555
L43.0613 -59.3146
L43.4766 -59.3739
L43.8855 -59.434
L44.2867 -59.4959
L44.6792 -59.5606
L45.0615 -59.6291
L45.4323 -59.7026
L45.7903 -59.7821
L46.1341 -59.869
L46.4626 -59.9643
L46.7743 -60.0691
L47.0684 -60.1844
L47.3437 -60.311
L47.5996 -60.4497
L47.8354 -60.6008
L48.0509 -60.7646
L48.2458 -60.941
L48.4203 -61.1299
L48.2248 -61.3307
L47.7736 -61.745
L47.3189 -61.9544
L46.8606 -62.1559
L46.3991 -62.3495
L45.9344 -62.535
L45.4667 -62.7125
L44.9961 -62.8818
L44.5228 -63.0429
L44.0469 -63.1958
L43.5685 -63.3404
L43.0878 -63.4767
L42.605 -63.6046
L42.1201 -63.7241
L41.6334 -63.8351
L41.1449 -63.9377
L40.6549 -64.0318
L40.1635 -64.1173
L39.6708 -64.1942
L39.177 -64.2626
L38.6822 -64.3224
L38.1866 -64.3735
L37.6904 -64.416
L37.1936 -64.4498
L36.6965 -64.475
L36.1991 -64.4915
L35.7017 -64.4993
L35.2044 -64.4984
L34.7073 -64.4889
L34.2106 -64.4707
L33.7145 -64.4438
L33.219 -64.4082
L32.7244 -64.364
L32.2308 -64.3111
L31.7384 -64.2497
L31.2472 -64.1796
L30.7575 -64.1009
L30.2694 -64.0137
L29.7831 -63.9179
L29.2986 -63.8137
L28.8162 -63.7009
L28.3359 -63.5797
L27.858 -63.4502
L27.3826 -63.3122
L26.9098 -63.166
L26.4398 -63.0114
L25.9727 -62.8487
L25.5086 -62.6777
L25.0477 -62.4987
L24.5902 -62.3115
L24.1361 -62.1164
L23.6857 -61.9133
L23.239 -61.7023
L22.7962 -61.4835
L22.3574 -61.2569
L21.9228 -61.0226
L21.4924 -60.7807
L21.0665 -60.5312
L20.6452 -60.2743
L20.2285 -60.01
L19.8166 -59.7383
L19.4096 -59.4595
L19.0077 -59.1735
L18.611 -58.8804
L18.2195 -58.5803
L17.8335 -58.2734
L17.453 -57.9597
L17.0782 -57.6393
L16.7091 -57.3123
L16.346 -56.9789
L15.9887 -56.639
L15.6376 -56.2928
L15.2927 -55.9405
L14.9541 -55.5821
L14.6219 -55.2177
L14.2963 -54.8475
L13.9772 -54.4715
L13.6648 -54.0899
L13.3593 -53.7028
L13.0606 -53.3103
L12.7689 -52.9126
L12.4843 -52.5096
L12.2069 -52.1017
L11.9367 -51.6888
L11.6739 -51.2712
L11.4184 -50.8489
L11.1705 -50.4221
L10.9301 -49.9909
L10.6973 -49.5554
L10.4723 -49.1158
L10.255 -48.6722
L10.0456 -48.2248
L9.84405 -47.7736
L9.65049 -47.3189
L9.46496 -46.8606
L9.28752 -46.3991
L9.1182 -45.9344
L8.95708 -45.4667
L8.8042 -44.9961
L8.65959 -44.5228
L8.52332 -44.0469
L8.39542 -43.5685
L8.27592 -43.0878
L8.16487 -42.605
L8.0623 -42.1201
L7.96824 -41.6334
L7.88272 -41.1449
L7.80576 -40.6549
L7.73739 -40.1635
L7.67763 -39.6708
L7.6265 -39.177
L7.58401 -38.6822
L7.55017 -38.1866
L7.52501 -37.6904
L7.50851 -37.1936
L7.5007 -36.6965
L7.50156 -36.1991
L7.51111 -35.7017
L7.52933 -35.2044
L7.55623 -34.7073
L7.59179 -34.2106
L7.636 -33.7145
L7.68886 -33.219
L7.75034 -32.7244
L7.82042 -32.2308
L7.89909 -31.7384
L7.98632 -31.2472
L8.08208 -30.7575
L8.18634 -30.2694
L8.29908 -29.7831
L8.42025 -29.2986
L8.54983 -28.8162
L8.68776 -28.3359
L8.83402 -27.858
L8.98855 -27.3826
L9.15131 -26.9098
L9.32225 -26.4398
L9.50132 -25.9727
L9.68845 -25.5086
z
" id="C0_2_b4d94f4098"/>
    </defs>
    <g clip-path="url(#p1bffca34e9)">
     <use style="fill:#ff0000;stroke:#000000;stroke-width:2.0;" x="0.0" xlink:href="#C0_0_a811fe30f3" y="72.0"/>
    </g>
    <g clip-path="url(#p1bffca34e9)">
     <use style="fill:#ffffff;stroke:#000000;stroke-width:2.0;" x="0.0" xlink:href="#C0_1_79b98a7d54" y="72.0"/>
    </g>
    <g clip-path="url(#p1bffca34e9)">
     <use style="fill:#ffffff;stroke:#000000;stroke-width:2.0;" x="0.0" xlink:href="#C0_2_b4d94f4098" y="72.0"/>
    </g>
   </g>
  </g>
 </g>
 <defs>
  <clipPath id="p1bffca34e9">
   <rect height="72.0" width="72.0" x="0.0" y="0.0"/>
  </clipPath>
 </defs>
</svg>
