<?xml version="1.0" encoding="utf-8" standalone="no"?>
<!DOCTYPE svg PUBLIC "-//W3C//DTD SVG 1.1//EN"
  "http://www.w3.org/Graphics/SVG/1.1/DTD/svg11.dtd">
<!-- Created with matplotlib (http://matplotlib.org/) -->
<svg height="72pt" version="1.1" viewBox="0 0 72 72" width="72pt" xmlns="http://www.w3.org/2000/svg" xmlns:xlink="http://www.w3.org/1999/xlink">
 <defs>
  <style type="text/css">
*{stroke-linecap:butt;stroke-linejoin:round;}
  </style>
 </defs>
 <g id="figure_1">
  <g id="patch_1">
   <path d="
M0 72
L72 72
L72 0
L0 0
z
" style="fill:none;"/>
  </g>
  <g id="axes_1">
   <g id="PatchCollection_1">
    <defs>
     <path d="
M36 -7.5
C43.5583 -7.5 50.808 -10.5029 56.1525 -15.8475
C61.4971 -21.192 64.5 -28.4417 64.5 -36
C64.5 -43.5583 61.4971 -50.808 56.1525 -56.1525
C50.808 -61.4971 43.5583 -64.5 36 -64.5
C28.4417 -64.5 21.192 -61.4971 15.8475 -56.1525
C10.5029 -50.808 7.5 -43.5583 7.5 -36
C7.5 -28.4417 10.5029 -21.192 15.8475 -15.8475
C21.192 -10.5029 28.4417 -7.5 36 -7.5
z
" id="C0_0_a811fe30f3"/>
     <path d="
M60.1806 -50.7437
L60.04 -50.6172
L59.8989 -50.4905
L59.7573 -50.3636
L59.6152 -50.2363
L59.4724 -50.1088
L59.3291 -49.9809
L59.1851 -49.8527
L59.0405 -49.7242
L58.8952 -49.5953
L58.7493 -49.466
L58.6026 -49.3362
L58.4551 -49.2061
L58.3069 -49.0754
L58.0079 -48.9443
L57.8571 -48.8127
L57.7055 -48.6805
L57.5529 -48.5477
L57.3993 -48.4144
L57.2447 -48.2804
L57.0891 -48.1458
L56.9324 -48.0105
L56.7746 -47.8745
L56.6157 -47.7377
L56.4556 -47.6002
L56.2943 -47.4618
L56.1317 -47.3227
L55.9678 -47.1826
L55.8026 -47.0417
L55.6361 -46.8998
L55.4681 -46.7569
L55.2987 -46.613
L55.1277 -46.4681
L54.9553 -46.3221
L54.7813 -46.1749
L54.6056 -46.0266
L54.4283 -45.8771
L54.2493 -45.7264
L54.0686 -45.5744
L53.8861 -45.4211
L53.7017 -45.2664
L53.5155 -45.1104
L53.3274 -44.9529
L53.1373 -44.7939
L52.9452 -44.6334
L52.7511 -44.4713
L52.5549 -44.3077
L52.3566 -44.1424
L52.1561 -43.9754
L51.9534 -43.8066
L51.7485 -43.6361
L51.5414 -43.4638
L51.332 -43.2895
L51.1202 -43.1134
L50.9061 -42.9354
L50.6896 -42.7553
L50.4707 -42.5732
L50.2494 -42.389
L50.0257 -42.2027
L49.7996 -42.0142
L49.571 -41.8235
L49.34 -41.6305
L49.1066 -41.4353
L48.8707 -41.2377
L48.6325 -41.0378
L48.392 -40.8354
L48.1491 -40.6306
L47.9039 -40.4233
L47.6566 -40.2135
L47.4072 -40.0012
L47.1557 -39.7862
L46.9023 -39.5686
L46.647 -39.3484
L46.3901 -39.1255
L46.1317 -38.8999
L45.8719 -38.6716
L45.6109 -38.4405
L45.349 -38.2066
L45.0864 -37.9699
L44.8234 -37.7303
L44.5602 -37.4879
L44.2972 -37.2426
L44.0348 -36.9944
L43.7734 -36.7433
L43.5134 -36.4892
L43.2552 -36.2321
L42.9995 -35.972
L42.7467 -35.7088
L42.4975 -35.4425
L42.2524 -35.1731
L42.0123 -34.9006
L41.7778 -34.6248
L41.5497 -34.3457
L41.3287 -34.0633
L41.1158 -33.7776
L40.9117 -33.4884
L40.7174 -33.1957
L40.5335 -32.8995
L40.361 -32.5998
L40.2007 -32.2965
L40.0531 -31.9896
L39.9191 -31.6792
L39.799 -31.3652
L39.6933 -31.0478
L39.6024 -30.727
L39.5264 -30.403
L39.4653 -30.0759
L39.419 -29.746
L39.3872 -29.4135
L39.3697 -29.0788
L39.3659 -28.742
L39.3754 -28.4035
L39.3974 -28.0637
L39.4314 -27.7229
L39.4766 -27.3816
L39.5324 -27.04
L39.5979 -26.6986
L39.6725 -26.3576
L39.7555 -26.0175
L39.8462 -25.6785
L39.9439 -25.3411
L40.0481 -25.0054
L40.1581 -24.6717
L40.2734 -24.3404
L40.3935 -24.0116
L40.5178 -23.6857
L40.6461 -23.3626
L40.7778 -23.0427
L40.9125 -22.7262
L41.05 -22.413
L41.1899 -22.1035
L41.3318 -21.7976
L41.4756 -21.4956
L41.621 -21.1973
L41.7677 -20.9031
L41.9155 -20.6128
L42.0644 -20.3265
L42.214 -20.0443
L42.3642 -19.7662
L42.5149 -19.4922
L42.666 -19.2222
L42.8174 -18.9564
L42.9689 -18.6947
L43.1204 -18.437
L43.272 -18.1834
L43.4234 -17.9338
L43.5747 -17.6882
L43.7257 -17.4466
L43.8765 -17.2088
L44.027 -16.9749
L44.1772 -16.7449
L44.327 -16.5186
L44.4764 -16.296
L44.6253 -16.0771
L44.7739 -15.8618
L44.922 -15.65
L45.0696 -15.4418
L45.2168 -15.2369
L45.3636 -15.0355
L45.5098 -14.8374
L45.6557 -14.6425
L45.8011 -14.4508
L45.9461 -14.2623
L46.0906 -14.0769
L46.2348 -13.8945
L46.3785 -13.715
L46.5219 -13.5385
L46.665 -13.3649
L46.8077 -13.194
L46.9501 -13.0259
L47.0922 -12.8606
L47.2341 -12.6978
L47.3758 -12.5377
L47.5173 -12.3802
L47.6585 -12.2251
L47.7997 -12.0726
L47.9407 -11.9224
L48.0817 -11.7747
L48.2226 -11.6293
L48.3636 -11.4862
L48.5045 -11.3453
L48.6455 -11.2068
L48.7866 -11.0704
L48.9279 -10.9362
L49.0693 -10.8041
L49.5097 -10.6742
L49.9456 -10.9054
L50.3773 -11.145
L50.8046 -11.3922
L51.2273 -11.6469
L51.6454 -11.9089
L52.0588 -12.1784
L52.4673 -12.455
L52.8707 -12.7389
L53.269 -13.0298
L53.6621 -13.3278
L54.0498 -13.6326
L54.432 -13.9443
L54.8085 -14.2626
L55.1793 -14.5876
L55.5443 -14.9191
L55.9034 -15.2571
L56.2564 -15.6013
L56.6032 -15.9518
L56.9437 -16.3084
L57.2778 -16.671
L57.6055 -17.0394
L57.9266 -17.4136
L58.241 -17.7935
L58.5486 -18.179
L58.8494 -18.5699
L59.1432 -18.966
L59.4299 -19.3674
L59.7096 -19.7739
L59.982 -20.1852
L60.247 -20.6014
L60.5047 -21.0223
L60.755 -21.4478
L60.9977 -21.8777
L61.2328 -22.3118
L61.4602 -22.7502
L61.6798 -23.1926
L61.8916 -23.6389
L62.0956 -24.0889
L62.2915 -24.5426
L62.4795 -24.9998
L62.6594 -25.4603
L62.8312 -25.9241
L62.9948 -26.3909
L63.1502 -26.8606
L63.2974 -27.3331
L63.4362 -27.8083
L63.5666 -28.2859
L63.6887 -28.7659
L63.8023 -29.2481
L63.9074 -29.7324
L64.0041 -30.2186
L64.0922 -30.7065
L64.1718 -31.196
L64.2427 -31.6871
L64.3051 -32.1794
L64.3589 -32.6729
L64.404 -33.1674
L64.4405 -33.6627
L64.4683 -34.1588
L64.4874 -34.6554
L64.4978 -35.1525
L64.4996 -35.6498
L64.4927 -36.1472
L64.4771 -36.6445
L64.4529 -37.1417
L64.4199 -37.6385
L64.3783 -38.1349
L64.3281 -38.6305
L64.2693 -39.1254
L64.2018 -39.6193
L64.1257 -40.1121
L64.0411 -40.6037
L63.9479 -41.0939
L63.8462 -41.5825
L63.7361 -42.0694
L63.6175 -42.5544
L63.4904 -43.0375
L63.355 -43.5184
L63.2113 -43.997
L63.0593 -44.4732
L62.899 -44.9468
L62.7305 -45.4177
L62.5539 -45.8858
L62.3693 -46.3508
L62.1765 -46.8126
L61.9758 -47.2712
L61.7672 -47.7263
L61.5508 -48.1779
L61.3265 -48.6257
L61.0946 -49.0697
L60.855 -49.5097
L60.6078 -49.9456
z
" id="C0_1_c581666965"/>
     <path d="
M22.9534 -61.137
L22.9776 -60.9462
L23.0027 -60.7549
L23.0286 -60.563
L23.0553 -60.3705
L23.0828 -60.1773
L23.1112 -59.9834
L23.1403 -59.7889
L23.1703 -59.5935
L23.201 -59.3973
L23.2326 -59.2003
L23.265 -59.0024
L23.2982 -58.8036
L23.3322 -58.6037
L23.367 -58.4029
L23.4027 -58.201
L23.4392 -57.998
L23.4765 -57.7938
L23.5147 -57.5884
L23.5537 -57.3818
L23.5936 -57.1738
L23.6343 -56.9645
L23.676 -56.7538
L23.7185 -56.5417
L23.7619 -56.328
L23.8062 -56.1128
L23.8514 -55.8959
L23.8975 -55.6774
L23.9446 -55.4572
L23.9927 -55.2352
L24.0417 -55.0113
L24.0916 -54.7856
L24.1426 -54.5579
L24.1945 -54.3283
L24.2475 -54.0965
L24.3015 -53.8627
L24.3565 -53.6266
L24.4126 -53.3884
L24.4698 -53.1478
L24.528 -52.9049
L24.5873 -52.6596
L24.6477 -52.4118
L24.7093 -52.1614
L24.7719 -51.9085
L24.8357 -51.653
L24.9007 -51.3947
L24.9668 -51.1338
L25.034 -50.87
L25.1024 -50.6033
L25.172 -50.3337
L25.2428 -50.0612
L25.3147 -49.7857
L25.3878 -49.5071
L25.462 -49.2254
L25.5374 -48.9406
L25.614 -48.6526
L25.6916 -48.3614
L25.7704 -48.067
L25.8502 -47.7693
L25.9311 -47.4683
L26.013 -47.164
L26.0958 -46.8565
L26.1796 -46.5456
L26.2641 -46.2315
L26.3495 -45.914
L26.4355 -45.5933
L26.5222 -45.2693
L26.6093 -44.9421
L26.6969 -44.6118
L26.7846 -44.2784
L26.8725 -43.9419
L26.9603 -43.6025
L27.0479 -43.2602
L27.1349 -42.9152
L27.2213 -42.5675
L27.3068 -42.2174
L27.391 -41.8649
L27.4737 -41.5102
L27.5545 -41.1536
L27.633 -40.7951
L27.7089 -40.4351
L27.7817 -40.0738
L27.8508 -39.7114
L27.9159 -39.3483
L27.9762 -38.9846
L28.0313 -38.6208
L28.0805 -38.2571
L28.1231 -37.894
L28.1584 -37.5317
L28.1856 -37.1707
L28.2041 -36.8114
L28.2132 -36.4541
L28.212 -36.0993
L28.1998 -35.7473
L28.1761 -35.3985
L28.1402 -35.0533
L28.0916 -34.712
L28.0299 -34.375
L27.9547 -34.0425
L27.8659 -33.7149
L27.7633 -33.3922
L27.6472 -33.0747
L27.5176 -32.7626
L27.375 -32.4559
L27.2197 -32.1546
L27.0524 -31.8589
L26.8736 -31.5686
L26.6841 -31.2839
L26.4846 -31.0046
L26.2759 -30.7306
L26.0588 -30.462
L25.834 -30.1985
L25.6024 -29.9402
L25.3646 -29.687
L25.1215 -29.4387
L24.8736 -29.1954
L24.6218 -28.9568
L24.3665 -28.7229
L24.1084 -28.4936
L23.848 -28.2689
L23.5858 -28.0487
L23.3223 -27.8329
L23.0578 -27.6214
L22.7928 -27.4142
L22.5277 -27.2111
L22.2627 -27.0122
L21.9981 -26.8174
L21.7342 -26.6265
L21.4712 -26.4396
L21.2093 -26.2565
L20.9488 -26.0772
L20.6898 -25.9017
L20.4323 -25.7298
L20.1767 -25.5616
L19.9229 -25.3969
L19.6711 -25.2356
L19.4214 -25.0778
L19.1738 -24.9234
L18.9283 -24.7722
L18.6851 -24.6243
L18.4442 -24.4796
L18.2056 -24.3379
L17.9692 -24.1994
L17.7352 -24.0638
L17.5036 -23.9311
L17.2743 -23.8014
L17.0473 -23.6744
L16.8226 -23.5502
L16.6002 -23.4288
L16.3801 -23.3099
L16.1623 -23.1937
L15.9467 -23.0801
L15.7333 -22.9689
L15.522 -22.8602
L15.3129 -22.7539
L15.1059 -22.6499
L14.901 -22.5483
L14.6981 -22.4489
L14.4971 -22.3517
L14.2981 -22.2568
L14.101 -22.1639
L13.9058 -22.0732
L13.7123 -21.9845
L13.5206 -21.8979
L13.3306 -21.8133
L13.1423 -21.7306
L12.9556 -21.6499
L12.7705 -21.571
L12.5869 -21.4941
L12.4047 -21.419
L12.224 -21.3457
L12.0447 -21.2742
L11.8668 -21.2045
L11.429 -21.1366
L11.1807 -21.56
L10.94 -21.991
L10.7069 -22.4263
L10.4815 -22.8657
L10.2639 -23.3091
L10.0542 -23.7564
L9.85232 -24.2075
L9.65843 -24.6621
L9.47256 -25.1201
L9.29477 -25.5815
L9.12512 -26.0461
L8.96365 -26.5137
L8.81042 -26.9841
L8.66547 -27.4574
L8.52885 -27.9332
L8.4006 -28.4115
L8.28075 -28.8921
L8.16935 -29.3748
L8.06642 -29.8596
L7.972 -30.3462
L7.88612 -30.8346
L7.80881 -31.3245
L7.74008 -31.8159
L7.67996 -32.3086
L7.62846 -32.8023
L7.58561 -33.2971
L7.55141 -33.7926
L7.52588 -34.2889
L7.50903 -34.7856
L7.50085 -35.2827
L7.50135 -35.7801
L7.51053 -36.2775
L7.5284 -36.7748
L7.55493 -37.2719
L7.59013 -37.7686
L7.63398 -38.2648
L7.68648 -38.7603
L7.74759 -39.2549
L7.81732 -39.7485
L7.89563 -40.241
L7.9825 -40.7323
L8.0779 -41.222
L8.18181 -41.7102
L8.29419 -42.1966
L8.41502 -42.6812
L8.54424 -43.1637
L8.68183 -43.644
L8.82774 -44.122
L8.98193 -44.5976
L9.14434 -45.0705
L9.31494 -45.5406
L9.49367 -46.0079
L9.68047 -46.4721
L9.87528 -46.9331
L10.0781 -47.3908
L10.2887 -47.845
L10.5072 -48.2956
L10.7335 -48.7424
L10.9675 -49.1854
L11.2091 -49.6243
L11.4582 -50.0591
L11.7148 -50.4896
L11.9788 -50.9158
L12.2502 -51.3373
L12.5287 -51.7542
L12.8144 -52.1663
L13.1072 -52.5735
L13.407 -52.9756
L13.7136 -53.3725
L14.027 -53.7642
L14.3471 -54.1504
L14.6739 -54.5312
L15.0071 -54.9062
L15.3467 -55.2755
L15.6926 -55.639
L16.0446 -55.9964
L16.4028 -56.3478
L16.7669 -56.693
L17.1369 -57.0318
L17.5126 -57.3643
L17.894 -57.6903
L18.2809 -58.0096
L18.6732 -58.3222
L19.0707 -58.6281
L19.4734 -58.927
L19.8812 -59.219
L20.2938 -59.5039
L20.7113 -59.7816
L21.1334 -60.0521
L21.56 -60.3153
L21.991 -60.571
L22.4263 -60.8193
z
" id="C0_2_633beae0e8"/>
    </defs>
    <g clip-path="url(#p1bffca34e9)">
     <use style="fill:#ffffff;stroke:#000000;stroke-width:2.0;" x="0.0" xlink:href="#C0_0_a811fe30f3" y="72.0"/>
    </g>
    <g clip-path="url(#p1bffca34e9)">
     <use style="fill:#ff0000;stroke:#000000;stroke-width:2.0;" x="0.0" xlink:href="#C0_1_c581666965" y="72.0"/>
    </g>
    <g clip-path="url(#p1bffca34e9)">
     <use style="fill:#ff0000;stroke:#000000;stroke-width:2.0;" x="0.0" xlink:href="#C0_2_633beae0e8" y="72.0"/>
    </g>
   </g>
  </g>
 </g>
 <defs>
  <clipPath id="p1bffca34e9">
   <rect height="72.0" width="72.0" x="0.0" y="0.0"/>
  </clipPath>
 </defs>
</svg>
