<?xml version="1.0" encoding="utf-8" standalone="no"?>
<!DOCTYPE svg PUBLIC "-//W3C//DTD SVG 1.1//EN"
  "http://www.w3.org/Graphics/SVG/1.1/DTD/svg11.dtd">
<!-- Created with matplotlib (http://matplotlib.org/) -->
<svg height="72pt" version="1.1" viewBox="0 0 72 72" width="72pt" xmlns="http://www.w3.org/2000/svg" xmlns:xlink="http://www.w3.org/1999/xlink">
 <defs>
  <style type="text/css">
*{stroke-linecap:butt;stroke-linejoin:round;}
  </style>
 </defs>
 <g id="figure_1">
  <g id="patch_1">
   <path d="
M0 72
L72 72
L72 0
L0 0
z
" style="fill:none;"/>
  </g>
  <g id="axes_1">
   <g id="PatchCollection_1">
    <defs>
     <path d="
M36 -7.5
C43.5583 -7.5 50.808 -10.5029 56.1525 -15.8475
C61.4971 -21.192 64.5 -28.4417 64.5 -36
C64.5 -43.5583 61.4971 -50.808 56.1525 -56.1525
C50.808 -61.4971 43.5583 -64.5 36 -64.5
C28.4417 -64.5 21.192 -61.4971 15.8475 -56.1525
C10.5029 -50.808 7.5 -43.5583 7.5 -36
C7.5 -28.4417 10.5029 -21.192 15.8475 -15.8475
C21.192 -10.5029 28.4417 -7.5 36 -7.5
z
" id="C0_0_a811fe30f3"/>
     <path d="
M61.0272 -49.38
L60.7662 -49.4479
L60.5061 -49.5057
L60.2469 -49.5535
L59.9889 -49.5915
L59.7321 -49.6197
L59.4767 -49.6383
L59.2229 -49.6475
L58.9706 -49.6473
L58.72 -49.6379
L58.4713 -49.6195
L58.2244 -49.5923
L57.9795 -49.5564
L57.7366 -49.5119
L57.4958 -49.4592
L57.257 -49.3984
L57.0205 -49.3297
L56.7861 -49.2533
L56.554 -49.1694
L56.3241 -49.0782
L56.0964 -48.9799
L55.871 -48.8748
L55.6478 -48.7631
L55.4268 -48.6449
L55.208 -48.5205
L54.9914 -48.3902
L54.777 -48.2541
L54.5648 -48.1125
L54.3547 -47.9655
L54.1466 -47.8135
L53.9407 -47.6565
L53.7367 -47.4948
L53.5347 -47.3287
L53.3346 -47.1582
L53.1365 -46.9837
L52.9402 -46.8052
L52.7457 -46.623
L52.553 -46.4373
L52.3621 -46.2483
L52.1728 -46.056
L51.9851 -45.8607
L51.7991 -45.6626
L51.6146 -45.4618
L51.4317 -45.2584
L51.2502 -45.0526
L51.0702 -44.8445
L50.8916 -44.6343
L50.7144 -44.4221
L50.5384 -44.208
L50.3638 -43.9922
L50.1904 -43.7747
L50.0183 -43.5557
L49.8473 -43.3352
L49.6775 -43.1134
L49.5088 -42.8904
L49.3412 -42.6662
L49.1746 -42.4409
L49.0091 -42.2146
L48.8446 -41.9874
L48.6811 -41.7594
L48.5185 -41.5306
L48.3569 -41.301
L48.1961 -41.0708
L48.0362 -40.84
L47.8771 -40.6087
L47.7189 -40.3768
L47.5615 -40.1445
L47.4048 -39.9118
L47.2489 -39.6787
L47.0938 -39.4452
L46.9393 -39.2115
L46.7856 -38.9774
L46.6325 -38.7432
L46.4801 -38.5086
L46.3283 -38.2739
L46.1771 -38.039
L46.0265 -37.804
L45.8765 -37.5687
L45.727 -37.3334
L45.5781 -37.0979
L45.4298 -36.8623
L45.2819 -36.6267
L45.1345 -36.3909
L44.9877 -36.155
L44.8413 -35.9191
L44.6953 -35.683
L44.5498 -35.4469
L44.4047 -35.2107
L44.26 -34.9745
L44.1157 -34.7381
L43.9718 -34.5017
L43.8283 -34.2651
L43.6851 -34.0285
L43.5423 -33.7918
L43.3999 -33.555
L43.2578 -33.318
L43.1159 -33.081
L42.9745 -32.8438
L42.8333 -32.6065
L42.5518 -32.369
L42.4115 -32.1314
L42.2714 -31.8936
L42.1317 -31.6556
L41.9922 -31.4174
L41.8529 -31.179
L41.714 -30.9405
L41.5753 -30.7017
L41.4368 -30.4626
L41.2986 -30.2233
L41.1607 -29.9838
L41.023 -29.7439
L40.8856 -29.5038
L40.7484 -29.2634
L40.6115 -29.0227
L40.4749 -28.7816
L40.3386 -28.5403
L40.2025 -28.2985
L40.0668 -28.0564
L39.9314 -27.814
L39.7963 -27.5712
L39.6615 -27.3279
L39.5271 -27.0843
L39.393 -26.8403
L39.2594 -26.5958
L39.1261 -26.351
L38.9933 -26.1056
L38.8609 -25.8599
L38.7291 -25.6137
L38.5977 -25.367
L38.4669 -25.1199
L38.3366 -24.8723
L38.207 -24.6242
L38.078 -24.3757
L37.9497 -24.1267
L37.8222 -23.8772
L37.6954 -23.6272
L37.5695 -23.3767
L37.4445 -23.1258
L37.3204 -22.8744
L37.1973 -22.6225
L37.0753 -22.3701
L36.9545 -22.1173
L36.8348 -21.864
L36.7165 -21.6103
L36.5995 -21.3562
L36.484 -21.1016
L36.37 -20.8466
L36.2576 -20.5913
L36.147 -20.3355
L36.0382 -20.0794
L35.9313 -19.8229
L35.8265 -19.5661
L35.7238 -19.309
L35.6235 -19.0516
L35.5255 -18.7939
L35.4301 -18.5361
L35.3374 -18.278
L35.2475 -18.0197
L35.1606 -17.7614
L35.0767 -17.5029
L34.9962 -17.2443
L34.9191 -16.9857
L34.8456 -16.7272
L34.7759 -16.4687
L34.7101 -16.2103
L34.6485 -15.952
L34.5912 -15.694
L34.5384 -15.4362
L34.4903 -15.1787
L34.4471 -14.9216
L34.4089 -14.6649
L34.3761 -14.4088
L34.3487 -14.1532
L34.327 -13.8982
L34.3112 -13.6439
L34.3015 -13.3905
L34.2981 -13.1379
L34.3012 -12.8863
L34.311 -12.6357
L34.3276 -12.3862
L34.3514 -12.138
L34.3824 -11.8912
L34.4208 -11.6458
L34.4669 -11.4019
L34.5208 -11.1598
L34.5827 -10.9194
L34.6527 -10.681
L34.7309 -10.4446
L34.8176 -10.2104
L34.9128 -9.97849
L35.0167 -9.74909
L35.1293 -9.52231
L35.2508 -9.29829
L35.3812 -9.07721
L35.5207 -8.85922
L35.6692 -8.64448
L35.8269 -8.43316
L35.9938 -8.22544
L36.1699 -8.02149
L36.3552 -7.8215
L36.854 -7.62563
L37.351 -7.5128
L37.8477 -7.53204
L38.3437 -7.55996
L38.8391 -7.59653
L39.3336 -7.64176
L39.827 -7.69563
L40.3193 -7.75812
L40.8103 -7.82921
L41.2999 -7.90889
L41.7878 -7.99712
L42.2739 -8.09388
L42.7582 -8.19914
L43.2403 -8.31287
L43.7203 -8.43503
L44.1979 -8.56559
L44.6731 -8.70451
L45.1455 -8.85174
L45.6152 -9.00724
L46.082 -9.17096
L46.5457 -9.34286
L47.0062 -9.52287
L47.4633 -9.71095
L47.9169 -9.90704
L48.367 -10.1111
L48.8132 -10.323
L49.2555 -10.5427
L49.6938 -10.7702
L50.128 -11.0054
L50.5578 -11.2482
L50.9832 -11.4986
L51.404 -11.7564
L51.8201 -12.0215
L52.2315 -12.294
L52.6378 -12.5737
L53.0391 -12.8606
L53.4353 -13.1545
L53.8261 -13.4553
L54.2114 -13.7631
L54.5913 -14.0776
L54.9654 -14.3987
L55.3338 -14.7265
L55.6963 -15.0607
L56.0528 -15.4013
L56.4032 -15.7482
L56.7474 -16.1013
L57.0852 -16.4604
L57.4166 -16.8254
L57.7416 -17.1963
L58.0598 -17.573
L58.3714 -17.9552
L58.6762 -18.343
L58.974 -18.7361
L59.2648 -19.1345
L59.5486 -19.538
L59.8252 -19.9465
L60.0945 -20.36
L60.3565 -20.7782
L60.6111 -21.201
L60.8581 -21.6283
L61.0976 -22.06
L61.3295 -22.496
L61.5536 -22.9361
L61.77 -23.3801
L61.9785 -23.828
L62.1791 -24.2796
L62.3717 -24.7348
L62.5563 -25.1934
L62.7328 -25.6553
L62.9011 -26.1203
L63.0613 -26.5884
L63.2132 -27.0593
L63.3568 -27.5329
L63.4921 -28.0092
L63.619 -28.4878
L63.7376 -28.9688
L63.8476 -29.4519
L63.9492 -29.937
L64.0422 -30.4239
L64.1268 -30.9125
L64.2027 -31.4027
L64.2701 -31.8943
L64.3288 -32.3871
L64.3789 -32.881
L64.4204 -33.3759
L64.4532 -33.8716
L64.4774 -34.3679
L64.4929 -34.8648
L64.4997 -35.3619
L64.4978 -35.8593
L64.4872 -36.3567
L64.468 -36.854
L64.44 -37.351
L64.4035 -37.8477
L64.3582 -38.3437
L64.3044 -38.8391
L64.2419 -39.3336
L64.1708 -39.827
L64.0911 -40.3193
L64.0029 -40.8103
L63.9061 -41.2999
L63.8009 -41.7878
L63.6871 -42.2739
L63.565 -42.7582
L63.4344 -43.2403
L63.2955 -43.7203
L63.1483 -44.1979
L62.9928 -44.6731
L62.829 -45.1455
L62.6571 -45.6152
L62.4771 -46.082
L62.289 -46.5457
L62.093 -47.0062
L61.8889 -47.4633
L61.677 -47.9169
L61.4573 -48.367
z
" id="C0_1_62bcbcee73"/>
     <path d="
M35.4531 -64.4234
L35.2605 -64.225
L35.0642 -64.0257
L34.8644 -63.8252
L34.6612 -63.6237
L34.455 -63.4211
L34.246 -63.2174
L34.0342 -63.0127
L33.8201 -62.8068
L33.6036 -62.5998
L33.3851 -62.3916
L33.1647 -62.1824
L32.9426 -61.972
L32.7191 -61.7606
L32.4941 -61.548
L32.2681 -61.3343
L32.041 -61.1194
L31.8131 -60.9035
L31.5845 -60.6865
L31.3554 -60.4684
L31.1259 -60.2492
L30.8961 -60.029
L30.6662 -59.8077
L30.4363 -59.5854
L30.2065 -59.362
L29.9769 -59.1376
L29.7477 -58.9123
L29.5189 -58.6859
L29.2906 -58.4586
L29.0629 -58.2303
L28.836 -58.0011
L28.6098 -57.771
L28.3845 -57.54
L28.1601 -57.3081
L27.9366 -57.0753
L27.7143 -56.8417
L27.493 -56.6072
L27.2729 -56.3719
L27.0539 -56.1359
L26.8363 -55.899
L26.6199 -55.6613
L26.4048 -55.4229
L26.1911 -55.1837
L25.9788 -54.9437
L25.7679 -54.7031
L25.5584 -54.4617
L25.3504 -54.2196
L25.1439 -53.9768
L24.9388 -53.7333
L24.7353 -53.4891
L24.5333 -53.2442
L24.3328 -52.9986
L24.1339 -52.7524
L23.9365 -52.5055
L23.7406 -52.2579
L23.5464 -52.0096
L23.3537 -51.7607
L23.1625 -51.5111
L22.9729 -51.2609
L22.7849 -51.01
L22.5984 -50.7584
L22.4135 -50.5061
L22.2301 -50.2532
L22.0483 -49.9995
L21.8681 -49.7452
L21.6893 -49.4902
L21.5121 -49.2345
L21.3365 -48.978
L21.1623 -48.7209
L20.9897 -48.463
L20.8185 -48.2044
L20.6489 -47.9451
L20.4808 -47.685
L20.3141 -47.4241
L20.1489 -47.1625
L19.9852 -46.9
L19.8229 -46.6368
L19.6621 -46.3728
L19.5027 -46.1079
L19.3448 -45.8422
L19.1883 -45.5757
L19.0332 -45.3083
L18.8796 -45.0401
L18.7273 -44.7709
L18.5764 -44.5009
L18.427 -44.23
L18.2789 -43.9581
L18.1322 -43.6853
L17.9869 -43.4116
L17.843 -43.1369
L17.7004 -42.8613
L17.5592 -42.5847
L17.4194 -42.3071
L17.2809 -42.0285
L17.1438 -41.7489
L17.008 -41.4683
L16.8736 -41.1866
L16.7405 -40.904
L16.6088 -40.6203
L16.4784 -40.3356
L16.3493 -40.0498
L16.2216 -39.763
L16.0952 -39.4751
L15.9702 -39.1862
L15.8465 -38.8963
L15.7242 -38.6053
L15.6031 -38.3132
L15.4834 -38.0202
L15.3651 -37.7261
L15.2481 -37.431
L15.1324 -37.1349
L15.018 -36.8378
L14.905 -36.5397
L14.7933 -36.2407
L14.683 -35.9407
L14.574 -35.6399
L14.4662 -35.3381
L14.3599 -35.0355
L14.2548 -34.7321
L14.151 -34.4279
L14.0486 -34.1229
L13.9474 -33.8172
L13.8475 -33.5109
L13.7489 -33.2039
L13.6516 -32.8964
L13.5555 -32.5884
L13.4607 -32.28
L13.367 -31.9711
L13.2746 -31.662
L13.1834 -31.3526
L13.0933 -31.043
L13.0043 -30.7334
L12.9165 -30.4237
L12.8297 -30.1142
L12.7439 -29.8048
L12.6591 -29.4958
L12.5753 -29.1871
L12.4924 -28.879
L12.4104 -28.5714
L12.3292 -28.2646
L12.2487 -27.9587
L12.1689 -27.6538
L12.0897 -27.3499
L12.0111 -27.0474
L11.933 -26.7462
L11.8553 -26.4466
L11.778 -26.1488
L11.7009 -25.8527
L11.6239 -25.5587
L11.5471 -25.2669
L11.4702 -24.9774
L11.3932 -24.6904
L11.316 -24.4061
L11.2385 -24.1247
L11.1605 -23.8464
L11.082 -23.5712
L11.0028 -23.2994
L10.9229 -23.0313
L10.5489 -22.7668
L10.3289 -23.1746
L10.1168 -23.6207
L9.91254 -24.0706
L9.71623 -24.5242
L9.52793 -24.9812
L9.34769 -25.4416
L9.17557 -25.9052
L9.01163 -26.3719
L8.8559 -26.8415
L8.70844 -27.3139
L8.5693 -27.789
L8.43851 -28.2665
L8.31611 -28.7464
L8.20215 -29.2286
L8.09666 -29.7127
L7.99966 -30.1988
L7.9112 -30.6867
L7.83129 -31.1762
L7.75996 -31.6671
L7.69723 -32.1594
L7.64313 -32.6529
L7.59766 -33.1473
L7.56084 -33.6426
L7.53269 -34.1387
L7.51321 -34.6353
L7.50241 -35.1323
L7.50028 -35.6296
L7.50684 -36.127
L7.52208 -36.6244
L7.54599 -37.1216
L7.57857 -37.6184
L7.61981 -38.1148
L7.66969 -38.6105
L7.7282 -39.1054
L7.79532 -39.5993
L7.87104 -40.0922
L7.95532 -40.5838
L8.04814 -41.074
L8.14948 -41.5627
L8.25931 -42.0497
L8.37758 -42.5348
L8.50427 -43.018
L8.63933 -43.499
L8.78273 -43.9777
L8.93442 -44.454
L9.09435 -44.9277
L9.26248 -45.3987
L9.43875 -45.8669
L9.62311 -46.332
L9.81551 -46.794
L10.0159 -47.2527
L10.2242 -47.7079
L10.4403 -48.1596
L10.6642 -48.6076
L10.8959 -49.0518
L11.1352 -49.492
L11.382 -49.9281
L11.6364 -50.3599
L11.8982 -50.7873
L12.1673 -51.2103
L12.4437 -51.6286
L12.7273 -52.0422
L13.0179 -52.4508
L13.3156 -52.8545
L13.6201 -53.253
L13.9315 -53.6463
L14.2496 -54.0342
L14.5743 -54.4166
L14.9056 -54.7934
L15.2433 -55.1644
L15.5873 -55.5297
L15.9375 -55.889
L16.2938 -56.2422
L16.6562 -56.5892
L17.0244 -56.93
L17.3984 -57.2644
L17.7781 -57.5924
L18.1633 -57.9137
L18.5539 -58.2284
L18.9499 -58.5363
L19.3511 -58.8373
L19.7573 -59.1314
L20.1685 -59.4185
L20.5845 -59.6984
L21.0052 -59.9711
L21.4305 -60.2365
L21.8602 -60.4945
L22.2942 -60.745
L22.7324 -60.988
L23.1746 -61.2234
L23.6207 -61.4511
L24.0706 -61.6711
L24.5242 -61.8832
L24.9812 -62.0875
L25.4416 -62.2838
L25.9052 -62.4721
L26.3719 -62.6523
L26.8415 -62.8244
L27.3139 -62.9884
L27.789 -63.1441
L28.2665 -63.2916
L28.7464 -63.4307
L29.2286 -63.5615
L29.7127 -63.6839
L30.1988 -63.7979
L30.6867 -63.9033
L31.1762 -64.0003
L31.6671 -64.0888
L32.1594 -64.1687
L32.6529 -64.24
L33.1473 -64.3028
L33.6426 -64.3569
L34.1387 -64.4023
L34.6353 -64.4392
z
" id="C0_2_702d58089c"/>
    </defs>
    <g clip-path="url(#p1bffca34e9)">
     <use style="fill:#ffffff;stroke:#000000;stroke-width:2.0;" x="0.0" xlink:href="#C0_0_a811fe30f3" y="72.0"/>
    </g>
    <g clip-path="url(#p1bffca34e9)">
     <use style="fill:#ff0000;stroke:#000000;stroke-width:2.0;" x="0.0" xlink:href="#C0_1_62bcbcee73" y="72.0"/>
    </g>
    <g clip-path="url(#p1bffca34e9)">
     <use style="fill:#ff0000;stroke:#000000;stroke-width:2.0;" x="0.0" xlink:href="#C0_2_702d58089c" y="72.0"/>
    </g>
   </g>
  </g>
 </g>
 <defs>
  <clipPath id="p1bffca34e9">
   <rect height="72.0" width="72.0" x="0.0" y="0.0"/>
  </clipPath>
 </defs>
</svg>
