<?xml version="1.0" encoding="utf-8" standalone="no"?>
<!DOCTYPE svg PUBLIC "-//W3C//DTD SVG 1.1//EN"
  "http://www.w3.org/Graphics/SVG/1.1/DTD/svg11.dtd">
<!-- Created with matplotlib (http://matplotlib.org/) -->
<svg height="72pt" version="1.1" viewBox="0 0 72 72" width="72pt" xmlns="http://www.w3.org/2000/svg" xmlns:xlink="http://www.w3.org/1999/xlink">
 <defs>
  <style type="text/css">
*{stroke-linecap:butt;stroke-linejoin:round;}
  </style>
 </defs>
 <g id="figure_1">
  <g id="patch_1">
   <path d="
M0 72
L72 72
L72 0
L0 0
z
" style="fill:none;"/>
  </g>
  <g id="axes_1">
   <g id="PatchCollection_1">
    <defs>
     <path d="
M36 -7.5
C43.5583 -7.5 50.808 -10.5029 56.1525 -15.8475
C61.4971 -21.192 64.5 -28.4417 64.5 -36
C64.5 -43.5583 61.4971 -50.808 56.1525 -56.1525
C50.808 -61.4971 43.5583 -64.5 36 -64.5
C28.4417 -64.5 21.192 -61.4971 15.8475 -56.1525
C10.5029 -50.808 7.5 -43.5583 7.5 -36
C7.5 -28.4417 10.5029 -21.192 15.8475 -15.8475
C21.192 -10.5029 28.4417 -7.5 36 -7.5
z
" id="C0_0_a811fe30f3"/>
     <path d="
M38.1543 -7.67374
L38.6048 -7.84769
L39.0434 -8.0467
L39.4699 -8.2677
L39.8841 -8.50788
L40.2863 -8.76476
L40.6764 -9.03614
L41.0547 -9.32014
L41.4212 -9.6151
L41.7763 -9.91961
L42.12 -10.2324
L42.4526 -10.5524
L42.7743 -10.8787
L43.0853 -11.2103
L43.3859 -11.5465
L43.6763 -11.8867
L43.9567 -12.2301
L44.2273 -12.5762
L44.4884 -12.9245
L44.7402 -13.2746
L44.9829 -13.6259
L45.2168 -13.9782
L45.4422 -14.331
L45.6592 -14.684
L45.8681 -15.0369
L46.0691 -15.3895
L46.2625 -15.7415
L46.4484 -16.0927
L46.6272 -16.4428
L46.799 -16.7917
L46.9641 -17.1393
L47.1226 -17.4854
L47.2748 -17.8298
L47.4209 -18.1725
L47.5611 -18.5133
L47.6955 -18.8522
L47.8244 -19.189
L47.948 -19.5239
L48.0664 -19.8565
L48.1797 -20.1871
L48.2883 -20.5154
L48.3922 -20.8415
L48.4915 -21.1654
L48.5865 -21.4871
L48.6773 -21.8065
L48.764 -22.1237
L48.8467 -22.4387
L48.9257 -22.7515
L49.0009 -23.062
L49.0726 -23.3705
L49.1408 -23.6768
L49.2057 -23.981
L49.2673 -24.2832
L49.3258 -24.5833
L49.3812 -24.8815
L49.4337 -25.1778
L49.4833 -25.4721
L49.5301 -25.7647
L49.5742 -26.0554
L49.6157 -26.3444
L49.6546 -26.6318
L49.6911 -26.9175
L49.7251 -27.2017
L49.7567 -27.4844
L49.7861 -27.7656
L49.8132 -28.0454
L49.8381 -28.3239
L49.8608 -28.6011
L49.8814 -28.8771
L49.9 -29.152
L49.9165 -29.4257
L49.931 -29.6985
L49.9436 -29.9703
L49.9543 -30.2411
L49.9631 -30.5112
L49.97 -30.7804
L49.975 -31.049
L49.9783 -31.3169
L49.9797 -31.5842
L49.9794 -31.8509
L49.9772 -32.1172
L49.9734 -32.3831
L49.9677 -32.6487
L49.9604 -32.914
L49.9513 -33.1791
L49.9279 -33.444
L49.9137 -33.7088
L49.8977 -33.9736
L49.8799 -34.2385
L49.8605 -34.5034
L49.8393 -34.7685
L49.8163 -35.0339
L49.7915 -35.2995
L49.765 -35.5655
L49.7367 -35.8319
L49.7066 -36.0987
L49.6746 -36.3661
L49.6407 -36.6341
L49.605 -36.9028
L49.5674 -37.1721
L49.5278 -37.4423
L49.4862 -37.7133
L49.4426 -37.9852
L49.397 -38.2581
L49.3492 -38.5321
L49.2994 -38.8071
L49.2474 -39.0832
L49.1931 -39.3606
L49.1366 -39.6393
L49.0778 -39.9192
L49.0165 -40.2006
L48.9529 -40.4834
L48.8867 -40.7677
L48.818 -41.0536
L48.7467 -41.341
L48.6726 -41.6302
L48.5958 -41.921
L48.5162 -42.2136
L48.4336 -42.508
L48.3481 -42.8043
L48.2594 -43.1025
L48.1676 -43.4026
L48.0725 -43.7047
L47.974 -44.0088
L47.8721 -44.315
L47.7666 -44.6232
L47.6574 -44.9336
L47.5445 -45.2461
L47.4276 -45.5607
L47.3068 -45.8774
L47.1818 -46.1964
L47.0525 -46.5175
L46.9189 -46.8407
L46.7808 -47.1661
L46.638 -47.4935
L46.4905 -47.8231
L46.338 -48.1547
L46.1805 -48.4884
L46.0178 -48.8239
L45.8498 -49.1614
L45.6763 -49.5006
L45.4971 -49.8415
L45.3122 -50.184
L45.1213 -50.5279
L44.9244 -50.8732
L44.7212 -51.2197
L44.5117 -51.5671
L44.2956 -51.9154
L44.0728 -52.2642
L43.8433 -52.6134
L43.6067 -52.9627
L43.3631 -53.3118
L43.1123 -53.6604
L42.8541 -54.0081
L42.5884 -54.3545
L42.3152 -54.6994
L42.0342 -55.0421
L41.7454 -55.3822
L41.4488 -55.7191
L41.1441 -56.0522
L40.8314 -56.3808
L40.5106 -56.7042
L40.1815 -57.0214
L39.8442 -57.3315
L39.4986 -57.6334
L39.1447 -57.9257
L38.7825 -58.207
L38.4119 -58.4756
L38.0329 -58.7293
L37.6457 -58.9658
L37.2505 -59.1826
L36.8473 -59.3764
L36.4366 -59.5439
L36.0189 -59.6816
L35.5951 -59.7862
L35.1661 -59.8547
L34.7334 -59.8851
L34.2983 -59.8765
L33.8624 -59.8296
L33.4273 -59.7462
L32.9943 -59.6288
L32.5648 -59.4807
L32.1398 -59.3054
L31.7203 -59.106
L31.3069 -58.8856
L30.9003 -58.6469
L30.501 -58.3921
L30.1093 -58.1234
L29.7256 -57.8424
L29.35 -57.5507
L28.9829 -57.2497
L28.6242 -56.9403
L28.2741 -56.6238
L27.9327 -56.301
L27.6 -55.9727
L27.2759 -55.6396
L26.9604 -55.3024
L26.6535 -54.9617
L26.3552 -54.6181
L26.0652 -54.272
L25.7836 -53.9239
L25.5102 -53.5742
L25.2449 -53.2234
L24.9876 -52.8717
L24.738 -52.5195
L24.4962 -52.1671
L24.2618 -51.8148
L24.0349 -51.4627
L23.8151 -51.1112
L23.6023 -50.7604
L23.3965 -50.4105
L23.1973 -50.0617
L23.0047 -49.7141
L22.8184 -49.3679
L22.6384 -49.0232
L22.4644 -48.68
L22.2963 -48.3385
L22.1339 -47.9988
L21.9771 -47.6609
L21.8257 -47.3249
L21.6796 -46.9908
L21.5386 -46.6587
L21.4026 -46.3285
L21.2714 -46.0004
L21.1449 -45.6743
L21.0229 -45.3502
L20.9054 -45.0281
L20.7922 -44.7081
L20.6832 -44.39
L20.5783 -44.074
L20.4774 -43.7599
L20.3802 -43.4478
L20.2869 -43.1376
L20.1972 -42.8293
L20.111 -42.5229
L20.0283 -42.2183
L19.9489 -41.9154
L19.8729 -41.6143
L19.8 -41.3148
L19.7303 -41.017
L19.6636 -40.7208
L19.5999 -40.4261
L19.539 -40.1329
L19.4811 -39.8412
L19.4259 -39.5508
L19.3734 -39.2617
L19.3236 -38.9739
L19.2765 -38.6873
L19.2319 -38.4019
L19.1898 -38.1175
L19.1502 -37.8342
L19.113 -37.5519
L19.0783 -37.2704
L19.0459 -36.9899
L19.0159 -36.7101
L18.9882 -36.431
L18.9628 -36.1526
L18.9396 -35.8748
L18.9187 -35.5976
L18.9001 -35.3209
L18.8836 -35.0445
L18.8693 -34.7686
L18.8573 -34.4929
L18.8474 -34.2175
L18.8397 -33.9422
L18.8342 -33.6671
L18.8308 -33.392
L18.8297 -33.1169
L18.8307 -32.8417
L18.834 -32.5664
L18.8394 -32.2908
L18.8471 -32.0151
L18.857 -31.739
L18.8691 -31.4625
L18.8836 -31.1855
L18.9003 -30.9081
L18.9194 -30.6301
L18.9409 -30.3514
L18.9647 -30.0721
L18.991 -29.792
L19.0198 -29.511
L19.051 -29.2293
L19.0849 -28.9465
L19.1213 -28.6628
L19.1604 -28.378
L19.2022 -28.0922
L19.2468 -27.8051
L19.2943 -27.5168
L19.3446 -27.2273
L19.398 -26.9364
L19.4543 -26.6441
L19.5139 -26.3503
L19.5766 -26.0551
L19.6426 -25.7583
L19.7121 -25.4599
L19.785 -25.1599
L19.8615 -24.8581
L19.9417 -24.5547
L20.0257 -24.2495
L20.1136 -23.9424
L20.2056 -23.6335
L20.3017 -23.3228
L20.4021 -23.0101
L20.507 -22.6955
L20.6164 -22.3789
L20.7305 -22.0604
L20.8495 -21.7399
L20.9736 -21.4175
L21.1028 -21.093
L21.2374 -20.7666
L21.3775 -20.4382
L21.5233 -20.1079
L21.675 -19.7757
L21.8329 -19.4416
L21.997 -19.1057
L22.1676 -18.768
L22.3448 -18.4286
L22.529 -18.0877
L22.7204 -17.7452
L22.919 -17.4014
L23.1252 -17.0562
L23.3392 -16.7099
L23.5613 -16.3627
L23.7915 -16.0146
L24.0303 -15.6659
L24.2777 -15.3168
L24.5341 -14.9676
L24.7997 -14.6184
L25.0746 -14.2696
L25.3592 -13.9215
L25.6536 -13.5745
L25.958 -13.2288
L26.2726 -12.8848
L26.5976 -12.5431
L26.9332 -12.2041
L27.2795 -11.8682
L27.6366 -11.5361
L28.0047 -11.2083
L28.3839 -10.8855
L28.7741 -10.5684
L29.1753 -10.2578
L29.5876 -9.95445
L30.0108 -9.65938
L30.4448 -9.3736
L30.8892 -9.0983
L31.3438 -8.83476
L31.808 -8.58447
L32.2813 -8.3491
L32.7628 -8.13056
L33.2516 -7.93102
L33.7464 -7.75291
L34.2418 -7.59894
L34.7385 -7.55429
L35.2356 -7.52793
L35.7329 -7.51025
L36.2303 -7.50125
L36.7277 -7.50093
L37.2248 -7.50929
z
" id="C0_1_ca67aa3151"/>
     <path d="
M37.7444 -64.3643
L37.2393 -64.3198
L36.7399 -64.29
L36.2459 -64.278
L35.7568 -64.2855
L35.2718 -64.3135
L34.79 -64.3615
L34.8058 -64.4276
L35.3029 -64.475
L35.8003 -64.4915
L36.2977 -64.4993
L36.795 -64.4984
z
" id="C0_2_a9c4bceae8"/>
    </defs>
    <g clip-path="url(#p1bffca34e9)">
     <use style="fill:#ff0000;stroke:#000000;stroke-width:2.0;" x="0.0" xlink:href="#C0_0_a811fe30f3" y="72.0"/>
    </g>
    <g clip-path="url(#p1bffca34e9)">
     <use style="fill:#ffffff;stroke:#000000;stroke-width:2.0;" x="0.0" xlink:href="#C0_1_ca67aa3151" y="72.0"/>
    </g>
    <g clip-path="url(#p1bffca34e9)">
     <use style="fill:#ffffff;stroke:#000000;stroke-width:2.0;" x="0.0" xlink:href="#C0_2_a9c4bceae8" y="72.0"/>
    </g>
   </g>
  </g>
 </g>
 <defs>
  <clipPath id="p1bffca34e9">
   <rect height="72.0" width="72.0" x="0.0" y="0.0"/>
  </clipPath>
 </defs>
</svg>
