<?xml version="1.0" encoding="utf-8" standalone="no"?>
<!DOCTYPE svg PUBLIC "-//W3C//DTD SVG 1.1//EN"
  "http://www.w3.org/Graphics/SVG/1.1/DTD/svg11.dtd">
<!-- Created with matplotlib (http://matplotlib.org/) -->
<svg height="72pt" version="1.1" viewBox="0 0 72 72" width="72pt" xmlns="http://www.w3.org/2000/svg" xmlns:xlink="http://www.w3.org/1999/xlink">
 <defs>
  <style type="text/css">
*{stroke-linecap:butt;stroke-linejoin:round;}
  </style>
 </defs>
 <g id="figure_1">
  <g id="patch_1">
   <path d="
M0 72
L72 72
L72 0
L0 0
z
" style="fill:none;"/>
  </g>
  <g id="axes_1">
   <g id="PatchCollection_1">
    <defs>
     <path d="
M36 -7.5
C43.5583 -7.5 50.808 -10.5029 56.1525 -15.8475
C61.4971 -21.192 64.5 -28.4417 64.5 -36
C64.5 -43.5583 61.4971 -50.808 56.1525 -56.1525
C50.808 -61.4971 43.5583 -64.5 36 -64.5
C28.4417 -64.5 21.192 -61.4971 15.8475 -56.1525
C10.5029 -50.808 7.5 -43.5583 7.5 -36
C7.5 -28.4417 10.5029 -21.192 15.8475 -15.8475
C21.192 -10.5029 28.4417 -7.5 36 -7.5
z
" id="C0_0_a811fe30f3"/>
     <path d="
M60.7198 -49.8389
L60.6307 -49.4833
L60.5408 -49.1221
L60.4495 -48.7567
L60.3562 -48.3883
L60.2604 -48.0179
L60.162 -47.6464
L60.0606 -47.2746
L59.9561 -46.9031
L59.8483 -46.5325
L59.7373 -46.1635
L59.623 -45.7964
L59.5054 -45.4316
L59.3846 -45.0695
L59.2606 -44.7103
L59.1336 -44.3543
L59.0035 -44.0017
L58.8706 -43.6527
L58.7349 -43.3074
L58.5965 -42.966
L58.4556 -42.6285
L58.3123 -42.2951
L58.1667 -41.9657
L58.019 -41.6404
L57.8692 -41.3193
L57.7174 -41.0024
L57.5639 -40.6896
L57.4086 -40.3809
L57.2517 -40.0763
L57.0933 -39.7759
L56.9335 -39.4795
L56.7723 -39.1871
L56.6099 -38.8986
L56.4464 -38.6141
L56.2817 -38.3334
L56.116 -38.0565
L55.9494 -37.7834
L55.7818 -37.5139
L55.6134 -37.248
L55.4442 -36.9856
L55.2742 -36.7266
L55.1035 -36.471
L54.9321 -36.2188
L54.7601 -35.9697
L54.5875 -35.7238
L54.4142 -35.481
L54.2404 -35.2411
L54.066 -35.0042
L53.8911 -34.7701
L53.7157 -34.5388
L53.5397 -34.3102
L53.3632 -34.0842
L53.1862 -33.8608
L53.0087 -33.6398
L52.8307 -33.4213
L52.6522 -33.2051
L52.4731 -32.9912
L52.2935 -32.7795
L52.1134 -32.5699
L51.9327 -32.3624
L51.7514 -32.1569
L51.5695 -31.9533
L51.387 -31.7516
L51.2039 -31.5518
L51.0201 -31.3537
L50.8357 -31.1573
L50.6505 -30.9626
L50.4647 -30.7695
L50.278 -30.5779
L50.0906 -30.3877
L49.9023 -30.199
L49.7132 -30.0117
L49.5232 -29.8258
L49.3323 -29.6411
L49.1404 -29.4576
L48.9476 -29.2753
L48.5587 -29.0942
L48.3626 -28.9142
L48.1653 -28.7352
L47.9668 -28.5572
L47.7671 -28.3802
L47.5661 -28.2041
L47.3637 -28.029
L47.1599 -27.8546
L46.9547 -27.6811
L46.748 -27.5084
L46.5397 -27.3364
L46.3298 -27.1652
L46.1183 -26.9946
L45.905 -26.8247
L45.69 -26.6554
L45.4731 -26.4867
L45.2543 -26.3186
L45.0336 -26.151
L44.8109 -25.984
L44.5861 -25.8174
L44.3591 -25.6513
L44.13 -25.4857
L43.8986 -25.3205
L43.6648 -25.1558
L43.4286 -24.9914
L43.19 -24.8275
L42.9488 -24.6639
L42.705 -24.5008
L42.4585 -24.3379
L42.2092 -24.1755
L41.9571 -24.0134
L41.7021 -23.8517
L41.4442 -23.6903
L41.1832 -23.5293
L40.919 -23.3686
L40.6517 -23.2083
L40.3812 -23.0484
L40.1073 -22.8889
L39.83 -22.7299
L39.5492 -22.5712
L39.2649 -22.413
L38.977 -22.2553
L38.6855 -22.0981
L38.3902 -21.9414
L38.0912 -21.7853
L37.7883 -21.6298
L37.4816 -21.4749
L37.1709 -21.3207
L36.8563 -21.1673
L36.5377 -21.0147
L36.2151 -20.8629
L35.8884 -20.712
L35.5577 -20.562
L35.223 -20.4131
L34.8843 -20.2653
L34.5415 -20.1186
L34.1948 -19.9732
L33.8442 -19.829
L33.4897 -19.6862
L33.1315 -19.5448
L32.7696 -19.4049
L32.4042 -19.2666
L32.0354 -19.1299
L31.6634 -18.9949
L31.2885 -18.8616
L30.9108 -18.7301
L30.5306 -18.6003
L30.1482 -18.4724
L29.7641 -18.3463
L29.3786 -18.2219
L28.9922 -18.0992
L28.6054 -17.9781
L28.2189 -17.8585
L27.8333 -17.7402
L27.4494 -17.623
L27.0681 -17.5065
L26.6903 -17.3904
L26.3173 -17.2742
L25.9501 -17.1573
L25.5903 -17.0392
L25.2394 -16.9188
L24.899 -16.7955
L24.5712 -16.6679
L24.2578 -16.5351
L23.9612 -16.3955
L23.6834 -16.2479
L23.4268 -16.0906
L23.1935 -15.9221
L22.9857 -15.741
L22.8049 -15.5459
L22.6526 -15.3358
L22.5297 -15.11
L22.4368 -14.8681
L22.3736 -14.6102
L22.3399 -14.3368
L22.3347 -14.0488
L22.357 -13.7473
L22.4054 -13.4338
L22.4785 -13.1098
L22.575 -12.7769
L22.6934 -12.4368
L22.8324 -12.091
L22.9906 -11.7411
L23.1668 -11.3882
L23.3601 -11.0339
L23.7179 -10.6792
L24.1686 -10.2823
L24.6229 -10.0719
L25.0807 -9.86933
L25.5418 -9.67475
L26.0061 -9.48819
L26.4734 -9.30971
L26.9436 -9.13936
L27.4166 -8.97719
L27.8922 -8.82325
L28.3703 -8.67759
L28.8507 -8.54025
L29.3333 -8.41127
L29.8179 -8.2907
L30.3044 -8.17857
L30.7926 -8.07492
L31.2824 -7.97977
L31.7737 -7.89316
L32.2662 -7.8151
L32.7599 -7.74564
L33.2546 -7.68478
L33.7501 -7.63254
L34.2463 -7.58895
L34.743 -7.55401
L35.2401 -7.52773
L35.7374 -7.51013
L36.2348 -7.50121
L36.7322 -7.50097
L37.2293 -7.50941
L37.726 -7.52652
L38.2222 -7.55231
L38.7178 -7.58677
L39.2125 -7.62988
L39.7062 -7.68163
L40.1988 -7.74201
L40.6902 -7.811
L41.1801 -7.88857
L41.6684 -7.97471
L42.155 -8.06938
L42.6397 -8.17256
L43.1224 -8.28422
L43.6029 -8.40432
L44.0811 -8.53282
L44.5569 -8.6697
L45.03 -8.81489
L45.5004 -8.96837
L45.9679 -9.13008
L46.4324 -9.29998
L46.8936 -9.47801
L47.3516 -9.66412
L47.8061 -9.85825
L48.257 -10.0603
L48.7042 -10.2703
L49.1475 -10.4882
L49.5868 -10.7138
L50.022 -10.9471
L50.4529 -11.188
L50.8794 -11.4365
L51.3013 -11.6925
L51.7186 -11.9559
L52.1311 -12.2266
L52.5387 -12.5045
L52.9413 -12.7896
L53.3387 -13.0818
L53.7308 -13.381
L54.1175 -13.687
L54.4987 -13.9999
L54.8743 -14.3194
L55.2441 -14.6456
L55.608 -14.9782
L55.966 -15.3173
L56.3179 -15.6626
L56.6636 -16.0142
L57.003 -16.3718
L57.336 -16.7354
L57.6625 -17.1049
L57.9825 -17.4802
L58.2957 -17.8611
L58.6021 -18.2475
L58.9017 -18.6393
L59.1942 -19.0364
L59.4797 -19.4387
L59.7581 -19.846
L60.0292 -20.2582
L60.293 -20.6753
L60.5494 -21.097
L60.7983 -21.5232
L61.0397 -21.9538
L61.2734 -22.3888
L61.4994 -22.8278
L61.7177 -23.2709
L61.9281 -23.7179
L62.1307 -24.1686
L62.3252 -24.6229
L62.5118 -25.0807
L62.6903 -25.5418
L62.8606 -26.0061
L63.0228 -26.4734
L63.1768 -26.9436
L63.3224 -27.4166
L63.4598 -27.8922
L63.5887 -28.3703
L63.7093 -28.8507
L63.8214 -29.3333
L63.9251 -29.8179
L64.0202 -30.3044
L64.1068 -30.7926
L64.1849 -31.2824
L64.2544 -31.7737
L64.3152 -32.2662
L64.3675 -32.7599
L64.4111 -33.2546
L64.446 -33.7501
L64.4723 -34.2463
L64.4899 -34.743
L64.4988 -35.2401
L64.499 -35.7374
L64.4906 -36.2348
L64.4735 -36.7322
L64.4477 -37.2293
L64.4132 -37.726
L64.3701 -38.2222
L64.3184 -38.7178
L64.258 -39.2125
L64.189 -39.7062
L64.1114 -40.1988
L64.0253 -40.6902
L63.9306 -41.1801
L63.8274 -41.6684
L63.7158 -42.155
L63.5957 -42.6397
L63.4672 -43.1224
L63.3303 -43.6029
L63.1851 -44.0811
L63.0316 -44.5569
L62.8699 -45.03
L62.7 -45.5004
L62.522 -45.9679
L62.3359 -46.4324
L62.1417 -46.8936
L61.9397 -47.3516
L61.7297 -47.8061
L61.5118 -48.257
L61.2862 -48.7042
z
" id="C0_1_f08fcbf262"/>
     <path d="
M48.4082 -61.6284
L47.9954 -61.5771
L47.5804 -61.5225
L47.1642 -61.464
L46.7478 -61.4014
L46.3318 -61.3344
L45.917 -61.2628
L45.5041 -61.1867
L45.0935 -61.1058
L44.6856 -61.0202
L44.281 -60.9301
L43.8799 -60.8354
L43.4826 -60.7362
L43.0894 -60.6327
L42.7005 -60.5249
L42.316 -60.4131
L41.9362 -60.2974
L41.561 -60.1779
L41.1906 -60.0548
L40.8251 -59.9283
L40.4645 -59.7984
L40.1089 -59.6655
L39.7582 -59.5295
L39.4125 -59.3907
L39.0717 -59.2492
L38.7358 -59.1052
L38.4048 -58.9588
L38.0787 -58.8101
L37.7573 -58.6592
L37.4407 -58.5063
L37.1287 -58.3514
L36.8214 -58.1947
L36.5186 -58.0363
L36.2202 -57.8762
L35.9262 -57.7146
L35.6365 -57.5516
L35.3511 -57.3871
L35.0697 -57.2213
L34.7924 -57.0543
L34.519 -56.8861
L34.2495 -56.7167
L33.9838 -56.5462
L33.7217 -56.3747
L33.4633 -56.2021
L33.2084 -56.0286
L32.9569 -55.8542
L32.7087 -55.6788
L32.4638 -55.5026
L32.2221 -55.3254
L31.9835 -55.1474
L31.7478 -54.9686
L31.5151 -54.789
L31.2852 -54.6085
L31.0581 -54.4272
L30.8337 -54.2451
L30.6119 -54.0622
L30.3926 -53.8785
L30.1758 -53.6939
L29.9614 -53.5085
L29.7494 -53.3222
L29.5396 -53.1351
L29.332 -52.9471
L29.1265 -52.7582
L28.923 -52.5684
L28.7216 -52.3777
L28.5221 -52.186
L28.3245 -51.9933
L28.1288 -51.7996
L27.9348 -51.6049
L27.7425 -51.409
L27.5519 -51.2121
L27.3629 -51.0141
L27.1755 -50.8148
L26.9896 -50.6144
L26.8051 -50.4127
L26.6221 -50.2097
L26.4404 -50.0054
L26.2601 -49.7997
L26.0811 -49.5926
L25.9034 -49.3841
L25.7269 -49.174
L25.5516 -48.9624
L25.3774 -48.7491
L25.2043 -48.5342
L25.0323 -48.3176
L24.8614 -48.0992
L24.6915 -47.879
L24.5226 -47.6569
L24.3547 -47.4328
L24.1878 -47.2068
L24.0217 -46.9786
L23.8566 -46.7484
L23.6924 -46.516
L23.5291 -46.2813
L23.3666 -46.0443
L23.2049 -45.8049
L23.0442 -45.5631
L22.8842 -45.3187
L22.7251 -45.0717
L22.5668 -44.8221
L22.4093 -44.5697
L22.2526 -44.3145
L22.0967 -44.0564
L21.9417 -43.7954
L21.7875 -43.5313
L21.6342 -43.2641
L21.4817 -42.9937
L21.33 -42.72
L21.1793 -42.443
L21.0295 -42.1626
L20.8806 -41.8786
L20.7327 -41.5911
L20.5858 -41.2999
L20.44 -41.005
L20.2952 -40.7063
L20.1515 -40.4037
L20.009 -40.0972
L19.8676 -39.7866
L19.7276 -39.472
L19.5889 -39.1533
L19.4515 -38.8303
L19.3156 -38.5031
L19.1812 -38.1717
L19.0484 -37.8358
L18.9172 -37.4957
L18.7878 -37.1511
L18.6602 -36.8021
L18.5344 -36.4487
L18.4107 -36.0908
L18.2891 -35.7285
L18.1696 -35.3618
L18.0523 -34.9908
L17.9374 -34.6154
L17.825 -34.2358
L17.715 -33.852
L17.6077 -33.4642
L17.503 -33.0724
L17.401 -32.6769
L17.3019 -32.2778
L17.2056 -31.8752
L17.1122 -31.4696
L17.0217 -31.061
L16.9341 -30.6499
L16.8493 -30.2366
L16.7673 -29.8216
L16.6879 -29.4052
L16.6111 -28.988
L16.5365 -28.5706
L16.464 -28.1537
L16.3931 -27.7381
L16.3235 -27.3245
L16.2545 -26.9139
L16.1855 -26.5075
L16.1158 -26.1063
L16.0444 -25.7118
L15.9703 -25.3253
L15.8921 -24.9486
L15.8086 -24.5834
L15.7181 -24.2315
L15.619 -23.8951
L15.5095 -23.5762
L15.3879 -23.2768
L15.2525 -22.9991
L15.1016 -22.7448
L14.9339 -22.5156
L14.7486 -22.3128
L14.545 -22.1372
L14.3232 -21.9892
L14.0834 -21.869
L13.8266 -21.7759
L13.5539 -21.7094
L13.2667 -21.6684
L12.9665 -21.6517
L12.655 -21.6583
L12.3339 -21.6867
L12.0048 -21.7357
L11.6692 -21.8043
L11.0166 -21.8912
L10.7811 -22.2858
L10.5532 -22.7239
L10.3331 -23.166
L10.1208 -23.6121
L9.91641 -24.0619
L9.71995 -24.5154
L9.53149 -24.9724
L9.3511 -25.4327
L9.17882 -25.8962
L9.01471 -26.3629
L8.85883 -26.8324
L8.71121 -27.3048
L8.5719 -27.7798
L8.44095 -28.2573
L8.3184 -28.7372
L8.20427 -29.2192
L8.09861 -29.7034
L8.00145 -30.1894
L7.91282 -30.6773
L7.83275 -31.1667
L7.76126 -31.6577
L7.69836 -32.1499
L7.64409 -32.6433
L7.59846 -33.1378
L7.56147 -33.6331
L7.53315 -34.1291
L7.5135 -34.6257
L7.50253 -35.1227
L7.50024 -35.62
L7.50663 -36.1174
L7.5217 -36.6148
L7.54545 -37.112
L7.57786 -37.6088
L7.61893 -38.1052
L7.66864 -38.6009
L7.72699 -39.0958
L7.79394 -39.5898
L7.86949 -40.0827
L7.95361 -40.5743
L8.04627 -41.0646
L8.14745 -41.5533
L8.25711 -42.0403
L8.37522 -42.5255
L8.50174 -43.0087
L8.63665 -43.4897
L8.77988 -43.9685
L8.93141 -44.4448
L9.09118 -44.9186
L9.25915 -45.3897
L9.43527 -45.8578
L9.61948 -46.323
L9.81172 -46.7851
L10.0119 -47.2438
L10.2201 -47.6992
L10.4361 -48.151
L10.6598 -48.599
L10.8913 -49.0433
L11.1305 -49.4835
L11.3772 -49.9197
L11.6314 -50.3516
L11.8931 -50.7791
L12.1621 -51.2022
L12.4383 -51.6206
L12.7217 -52.0342
L13.0122 -52.443
L13.3098 -52.8467
L13.6142 -53.2454
L13.9254 -53.6387
L14.2434 -54.0267
L14.568 -54.4093
L14.8991 -54.7862
L15.2367 -55.1573
L15.5806 -55.5227
L15.9307 -55.8821
L16.2869 -56.2354
L16.6491 -56.5826
L17.0172 -56.9235
L17.3911 -57.258
L17.7707 -57.5861
L18.1558 -57.9076
L18.5463 -58.2224
L18.9422 -58.5304
L19.3433 -58.8316
L19.7494 -59.1258
L20.1605 -59.413
L20.5764 -59.693
L20.997 -59.9659
L21.4222 -60.2314
L21.8518 -60.4895
L22.2858 -60.7402
L22.7239 -60.9834
L23.166 -61.2189
L23.6121 -61.4468
L24.0619 -61.6669
L24.5154 -61.8792
L24.9724 -62.0836
L25.4327 -62.2801
L25.8962 -62.4685
L26.3629 -62.6489
L26.8324 -62.8212
L27.3048 -62.9853
L27.7798 -63.1412
L28.2573 -63.2888
L28.7372 -63.4281
L29.2192 -63.559
L29.7034 -63.6816
L30.1894 -63.7957
L30.6773 -63.9014
L31.1667 -63.9985
L31.6577 -64.0872
L32.1499 -64.1673
L32.6433 -64.2387
L33.1378 -64.3016
L33.6331 -64.3559
L34.1291 -64.4015
L34.6257 -64.4385
L35.1227 -64.4668
L35.62 -64.4865
L36.1174 -64.4975
L36.6148 -64.4998
L37.112 -64.4934
L37.6088 -64.4783
L38.1052 -64.4546
L38.6009 -64.4221
L39.0958 -64.3811
L39.5898 -64.3314
L40.0827 -64.273
L40.5743 -64.2061
L41.0646 -64.1305
L41.5533 -64.0464
L42.0403 -63.9537
L42.5255 -63.8526
L43.0087 -63.7429
L43.4897 -63.6248
L43.9685 -63.4983
L44.4448 -63.3634
L44.9186 -63.2201
L45.3897 -63.0686
L45.8578 -62.9088
L46.323 -62.7408
L46.7851 -62.5647
L47.2438 -62.3805
L47.6992 -62.1883
z
" id="C0_2_1c910fde0e"/>
    </defs>
    <g clip-path="url(#p1bffca34e9)">
     <use style="fill:#ffffff;stroke:#000000;stroke-width:2.0;" x="0.0" xlink:href="#C0_0_a811fe30f3" y="72.0"/>
    </g>
    <g clip-path="url(#p1bffca34e9)">
     <use style="fill:#ff0000;stroke:#000000;stroke-width:2.0;" x="0.0" xlink:href="#C0_1_f08fcbf262" y="72.0"/>
    </g>
    <g clip-path="url(#p1bffca34e9)">
     <use style="fill:#ff0000;stroke:#000000;stroke-width:2.0;" x="0.0" xlink:href="#C0_2_1c910fde0e" y="72.0"/>
    </g>
   </g>
  </g>
 </g>
 <defs>
  <clipPath id="p1bffca34e9">
   <rect height="72.0" width="72.0" x="0.0" y="0.0"/>
  </clipPath>
 </defs>
</svg>
