<?xml version="1.0" encoding="utf-8" standalone="no"?>
<!DOCTYPE svg PUBLIC "-//W3C//DTD SVG 1.1//EN"
  "http://www.w3.org/Graphics/SVG/1.1/DTD/svg11.dtd">
<!-- Created with matplotlib (http://matplotlib.org/) -->
<svg height="72pt" version="1.1" viewBox="0 0 72 72" width="72pt" xmlns="http://www.w3.org/2000/svg" xmlns:xlink="http://www.w3.org/1999/xlink">
 <defs>
  <style type="text/css">
*{stroke-linecap:butt;stroke-linejoin:round;}
  </style>
 </defs>
 <g id="figure_1">
  <g id="patch_1">
   <path d="
M0 72
L72 72
L72 0
L0 0
z
" style="fill:none;"/>
  </g>
  <g id="axes_1">
   <g id="PatchCollection_1">
    <defs>
     <path d="
M36 -7.5
C43.5583 -7.5 50.808 -10.5029 56.1525 -15.8475
C61.4971 -21.192 64.5 -28.4417 64.5 -36
C64.5 -43.5583 61.4971 -50.808 56.1525 -56.1525
C50.808 -61.4971 43.5583 -64.5 36 -64.5
C28.4417 -64.5 21.192 -61.4971 15.8475 -56.1525
C10.5029 -50.808 7.5 -43.5583 7.5 -36
C7.5 -28.4417 10.5029 -21.192 15.8475 -15.8475
C21.192 -10.5029 28.4417 -7.5 36 -7.5
z
" id="C0_0_a811fe30f3"/>
     <path d="
M62.6733 -26.1945
L62.4157 -26.0602
L62.157 -25.9369
L61.8973 -25.8241
L61.6368 -25.7215
L61.3758 -25.6289
L61.1143 -25.5459
L60.8525 -25.4722
L60.5905 -25.4075
L60.3285 -25.3515
L60.0665 -25.3039
L59.8047 -25.2643
L59.5431 -25.2324
L59.2819 -25.208
L59.021 -25.1908
L58.7607 -25.1805
L58.5008 -25.1767
L58.2416 -25.1793
L57.9831 -25.188
L57.7252 -25.2024
L57.4681 -25.2225
L57.2118 -25.2479
L56.9563 -25.2784
L56.7016 -25.3137
L56.4478 -25.3538
L56.1949 -25.3983
L55.943 -25.4472
L55.6919 -25.5001
L55.4418 -25.5569
L55.1927 -25.6175
L54.9445 -25.6817
L54.6973 -25.7493
L54.4511 -25.8202
L54.2058 -25.8943
L53.9616 -25.9713
L53.7183 -26.0513
L53.476 -26.134
L53.2347 -26.2193
L52.9943 -26.3072
L52.7549 -26.3976
L52.5165 -26.4902
L52.279 -26.5851
L52.0425 -26.6822
L51.8069 -26.7814
L51.5721 -26.8825
L51.3383 -26.9856
L51.1054 -27.0905
L50.8733 -27.1972
L50.6421 -27.3057
L50.4118 -27.4158
L50.1822 -27.5275
L49.9535 -27.6408
L49.7255 -27.7557
L49.4983 -27.872
L49.2719 -27.9897
L49.0462 -28.1089
L48.8211 -28.2294
L48.5968 -28.3512
L48.3732 -28.4744
L48.1501 -28.5988
L47.9278 -28.7245
L47.706 -28.8515
L47.4848 -28.9796
L47.2641 -29.109
L47.044 -29.2395
L46.8245 -29.3712
L46.6054 -29.504
L46.3868 -29.638
L46.1686 -29.7731
L45.9509 -29.9094
L45.7336 -30.0468
L45.5167 -30.1853
L45.3001 -30.3249
L45.0839 -30.4657
L44.8681 -30.6075
L44.6525 -30.7505
L44.2222 -30.8946
L44.0075 -31.0398
L43.793 -31.1862
L43.5787 -31.3337
L43.3646 -31.4824
L43.1507 -31.6322
L42.9369 -31.7832
L42.7233 -31.9354
L42.5099 -32.0887
L42.2965 -32.2433
L42.0833 -32.399
L41.8701 -32.556
L41.6571 -32.7143
L41.4441 -32.8738
L41.2312 -33.0346
L41.0183 -33.1966
L40.8055 -33.36
L40.5928 -33.5247
L40.3801 -33.6908
L40.1674 -33.8582
L39.9547 -34.0271
L39.7421 -34.1973
L39.5296 -34.3689
L39.317 -34.5421
L39.1045 -34.7166
L38.8921 -34.8927
L38.6797 -35.0703
L38.4674 -35.2494
L38.2552 -35.4302
L38.0431 -35.6124
L37.8312 -35.7963
L37.6193 -35.9819
L37.4077 -36.1691
L37.1962 -36.3579
L36.9849 -36.5485
L36.7739 -36.7408
L36.5632 -36.9349
L36.3529 -37.1307
L36.1429 -37.3284
L35.9334 -37.5279
L35.7243 -37.7292
L35.5157 -37.9324
L35.3078 -38.1375
L35.1005 -38.3445
L34.8939 -38.5534
L34.6882 -38.7643
L34.4833 -38.9772
L34.2794 -39.1921
L34.0765 -39.409
L33.8748 -39.628
L33.6743 -39.849
L33.4752 -40.0721
L33.2776 -40.2973
L33.0816 -40.5245
L32.8873 -40.754
L32.6948 -40.9855
L32.5043 -41.2192
L32.3159 -41.455
L32.1299 -41.693
L31.9462 -41.9332
L31.7652 -42.1755
L31.5869 -42.4201
L31.4116 -42.6668
L31.2395 -42.9157
L31.0706 -43.1667
L30.9053 -43.4199
L30.7437 -43.6753
L30.5861 -43.9328
L30.4326 -44.1925
L30.2834 -44.4542
L30.1389 -44.7181
L29.9991 -44.984
L29.8644 -45.252
L29.7349 -45.5219
L29.6109 -45.7939
L29.4927 -46.0677
L29.3803 -46.3434
L29.2742 -46.6209
L29.1745 -46.9002
L29.0814 -47.1812
L28.9951 -47.4638
L28.9158 -47.748
L28.8439 -48.0336
L28.7793 -48.3206
L28.7224 -48.6088
L28.6733 -48.8982
L28.6321 -49.1887
L28.5991 -49.4801
L28.5743 -49.7723
L28.5578 -50.0652
L28.5499 -50.3587
L28.5505 -50.6525
L28.5597 -50.9466
L28.5777 -51.2407
L28.6044 -51.5348
L28.6398 -51.8286
L28.684 -52.122
L28.7369 -52.4148
L28.7986 -52.7069
L28.869 -52.9979
L28.948 -53.2879
L29.0356 -53.5765
L29.1317 -53.8636
L29.2361 -54.149
L29.3489 -54.4325
L29.4697 -54.714
L29.5987 -54.9932
L29.7355 -55.27
L29.88 -55.5442
L30.0321 -55.8157
L30.1916 -56.0842
L30.3584 -56.3496
L30.5323 -56.6118
L30.7131 -56.8706
L30.9007 -57.1258
L31.0948 -57.3774
L31.2952 -57.6251
L31.5019 -57.8689
L31.7145 -58.1086
L31.933 -58.3442
L32.1572 -58.5754
L32.3868 -58.8023
L32.6217 -59.0247
L32.8618 -59.2424
L33.1068 -59.4556
L33.3566 -59.664
L33.611 -59.8676
L33.8698 -60.0663
L34.133 -60.26
L34.4003 -60.4487
L34.6716 -60.6324
L34.9467 -60.811
L35.2255 -60.9845
L35.508 -61.1527
L35.7938 -61.3157
L36.083 -61.4735
L36.3753 -61.626
L36.6707 -61.7731
L36.9691 -61.9149
L37.2703 -62.0514
L37.5742 -62.1824
L37.8808 -62.3081
L38.1898 -62.4283
L38.5013 -62.5431
L38.8152 -62.6525
L39.1312 -62.7564
L39.4495 -62.8548
L39.7698 -62.9478
L40.0921 -63.0352
L40.4164 -63.1171
L40.7425 -63.1936
L41.0704 -63.2645
L41.4 -63.3298
L41.7313 -63.3897
L42.0642 -63.4439
L42.3986 -63.4926
L42.7344 -63.5357
L43.0717 -63.5732
L43.5534 -63.6051
L44.0318 -63.4808
L44.5078 -63.3448
L44.9813 -63.2005
L45.4519 -63.0479
L45.9197 -62.887
L46.3845 -62.7179
L46.8461 -62.5408
L47.3045 -62.3555
L47.7593 -62.1622
L48.2106 -61.9609
L48.6582 -61.7517
L49.1019 -61.5347
L49.5416 -61.3099
L49.9772 -61.0774
L50.4086 -60.8372
L50.8355 -60.5895
L51.258 -60.3343
L51.6757 -60.0717
L52.0887 -59.8017
L52.4969 -59.5245
L52.8999 -59.2401
L53.2979 -58.9487
L53.6905 -58.6502
L54.0778 -58.3449
L54.4596 -58.0328
L54.8357 -57.7139
L55.2061 -57.3884
L55.5707 -57.0564
L55.9293 -56.718
L56.2818 -56.3733
L56.6282 -56.0224
L56.9683 -55.6654
L57.3019 -55.3024
L57.6291 -54.9335
L57.9497 -54.5589
L58.2636 -54.1785
L58.5708 -53.7927
L58.871 -53.4014
L59.1643 -53.0049
L59.4506 -52.6031
L59.7297 -52.1963
L60.0015 -51.7846
L60.2661 -51.368
L60.5232 -50.9468
L60.7729 -50.521
L61.0151 -50.0908
L61.2496 -49.6563
L61.4764 -49.2177
L61.6955 -48.775
L61.9068 -48.3284
L62.1101 -47.8781
L62.3055 -47.4242
L62.4929 -46.9667
L62.6722 -46.506
L62.8434 -46.042
L63.0064 -45.575
L63.1612 -45.1051
L63.3078 -44.6323
L63.446 -44.157
L63.5758 -43.6792
L63.6972 -43.199
L63.8102 -42.7166
L63.9148 -42.2322
L64.0108 -41.7459
L64.0983 -41.2579
L64.1772 -40.7682
L64.2476 -40.2771
L64.3093 -39.7847
L64.3625 -39.2911
L64.4069 -38.7966
L64.4428 -38.3011
L64.47 -37.805
L64.4885 -37.3084
L64.4983 -36.8113
L64.4994 -36.314
L64.4919 -35.8166
L64.4756 -35.3192
L64.4508 -34.8221
L64.4172 -34.3253
L64.375 -33.829
L64.3241 -33.3334
L64.2646 -32.8386
L64.1965 -32.3447
L64.1198 -31.852
L64.0346 -31.3605
L63.9408 -30.8705
L63.8385 -30.382
L63.7277 -29.8952
L63.6085 -29.4103
L63.4808 -28.9274
L63.3448 -28.4466
L63.2005 -27.9682
L63.0479 -27.4922
z
" id="C0_1_b6954fc108"/>
     <path d="
M28.6455 -8.57724
L28.3674 -8.76862
L28.0923 -8.96224
L27.82 -9.15806
L27.5506 -9.35605
L27.2839 -9.55619
L27.0201 -9.75845
L26.7589 -9.96282
L26.5005 -10.1693
L26.2447 -10.3778
L25.9916 -10.5884
L25.7411 -10.801
L25.4931 -11.0156
L25.2477 -11.2323
L25.0047 -11.4509
L24.7643 -11.6716
L24.5262 -11.8943
L24.2906 -12.1189
L24.0574 -12.3456
L23.8264 -12.5742
L23.5978 -12.8049
L23.3715 -13.0375
L23.1474 -13.2721
L22.9256 -13.5088
L22.7059 -13.7474
L22.4885 -13.9881
L22.2731 -14.2308
L22.06 -14.4755
L21.8489 -14.7222
L21.6399 -14.971
L21.4329 -15.2219
L21.228 -15.4749
L21.0252 -15.7299
L20.8243 -15.9871
L20.6254 -16.2463
L20.4285 -16.5077
L20.2335 -16.7713
L20.0405 -17.037
L19.8495 -17.3049
L19.6603 -17.575
L19.4731 -17.8472
L19.2877 -18.1217
L19.1043 -18.3985
L18.9227 -18.6775
L18.743 -18.9587
L18.5652 -19.2422
L18.3893 -19.5281
L18.2152 -19.8162
L18.043 -20.1066
L17.8727 -20.3994
L17.7042 -20.6945
L17.5375 -20.992
L17.3728 -21.2918
L17.2099 -21.594
L17.0488 -21.8985
L16.8896 -22.2054
L16.7323 -22.5146
L16.5769 -22.8263
L16.4233 -23.1402
L16.2716 -23.4566
L16.1218 -23.7753
L15.9739 -24.0963
L15.8278 -24.4196
L15.6837 -24.7453
L15.5414 -25.0732
L15.4011 -25.4033
L15.2626 -25.7358
L15.1261 -26.0704
L14.9914 -26.4071
L14.8586 -26.746
L14.7278 -27.087
L14.5988 -27.43
L14.4717 -27.7749
L14.3465 -28.1218
L14.2231 -28.4706
L14.1016 -28.8211
L13.9819 -29.1733
L13.8641 -29.5272
L13.748 -29.8826
L13.6337 -30.2395
L13.5211 -30.5978
L13.4103 -30.9573
L13.3011 -31.3179
L13.1935 -31.6796
L13.0876 -32.0422
L12.9831 -32.4057
L12.8802 -32.7698
L12.7787 -33.1344
L12.6785 -33.4994
L12.5796 -33.8647
L12.482 -34.23
L12.3855 -34.5954
L12.2901 -34.9605
L12.1956 -35.3252
L12.1021 -35.6894
L12.0093 -36.0529
L11.9173 -36.4155
L11.8259 -36.7771
L11.7349 -37.1374
L11.6444 -37.4964
L11.5543 -37.8538
L11.4643 -38.2095
L11.3744 -38.5633
L11.2846 -38.915
L11.1946 -39.2645
L11.1045 -39.6116
L11.0141 -39.9562
L10.9234 -40.2981
L10.8322 -40.6371
L10.7405 -40.9732
L10.6483 -41.3062
L10.5554 -41.6359
L10.4618 -41.9623
L10.3675 -42.2852
L10.2724 -42.6046
L10.1765 -42.9203
L10.0798 -43.2322
L9.98226 -43.5404
L9.88392 -43.8447
L9.78475 -44.145
L9.68478 -44.4413
L9.58403 -44.7336
L9.48254 -45.0218
L9.38033 -45.3059
L9.00991 -45.5859
L8.85427 -45.1534
L8.7069 -44.681
L8.56785 -44.2059
L8.43715 -43.7283
L8.31484 -43.2484
L8.20097 -42.7662
L8.09557 -42.282
L7.99867 -41.7959
L7.91029 -41.308
L7.83048 -40.8185
L7.75924 -40.3276
L7.69661 -39.8353
L7.64259 -39.3418
L7.59722 -38.8474
L7.5605 -38.352
L7.53244 -37.856
L7.51305 -37.3593
L7.50234 -36.8623
L7.50031 -36.365
L7.50696 -35.8676
L7.52229 -35.3702
L7.54629 -34.8731
L7.57897 -34.3762
L7.6203 -33.8799
L7.67027 -33.3842
L7.72887 -32.8893
L7.79609 -32.3954
L7.8719 -31.9025
L7.95627 -31.4109
L8.04919 -30.9207
L8.15062 -30.432
L8.26053 -29.9451
L8.3789 -29.46
L8.50568 -28.9768
L8.64083 -28.4959
L8.78432 -28.0172
L8.93609 -27.5409
L9.09611 -27.0672
L9.26433 -26.5962
L9.44069 -26.1281
L9.62514 -25.663
L9.81762 -25.2011
L10.0181 -24.7424
L10.2265 -24.2872
L10.4427 -23.8355
L10.6667 -23.3876
L10.8984 -22.9434
L11.1378 -22.5033
L11.3847 -22.0673
L11.6392 -21.6355
L11.901 -21.2081
L12.1703 -20.7852
L12.4467 -20.3669
L12.7304 -19.9534
L13.0211 -19.5448
L13.3188 -19.1412
L13.6234 -18.7427
L13.9349 -18.3495
L14.2531 -17.9617
L14.5779 -17.5793
L14.9092 -17.2026
L15.2469 -16.8316
L15.591 -16.4664
L15.9413 -16.1072
L16.2977 -15.7541
L16.6601 -15.4071
L17.0284 -15.0664
L17.4024 -14.732
L17.7822 -14.4042
L18.1674 -14.0829
L18.5582 -13.7683
L18.9542 -13.4604
L19.3554 -13.1595
L19.7617 -12.8654
L20.1729 -12.5785
L20.589 -12.2987
L21.0097 -12.026
L21.4351 -11.7607
L21.8648 -11.5028
L22.2989 -11.2523
L22.7371 -11.0094
L23.1794 -10.7741
L23.6255 -10.5465
L24.0755 -10.3266
L24.5291 -10.1146
L24.9861 -9.91039
L25.4466 -9.71417
L25.9102 -9.52595
L26.3769 -9.3458
L26.8466 -9.17377
L27.319 -9.00991
L27.7941 -8.85427
z
" id="C0_2_8bba558a6d"/>
    </defs>
    <g clip-path="url(#p1bffca34e9)">
     <use style="fill:#ffffff;stroke:#000000;stroke-width:2.0;" x="0.0" xlink:href="#C0_0_a811fe30f3" y="72.0"/>
    </g>
    <g clip-path="url(#p1bffca34e9)">
     <use style="fill:#ff0000;stroke:#000000;stroke-width:2.0;" x="0.0" xlink:href="#C0_1_b6954fc108" y="72.0"/>
    </g>
    <g clip-path="url(#p1bffca34e9)">
     <use style="fill:#ff0000;stroke:#000000;stroke-width:2.0;" x="0.0" xlink:href="#C0_2_8bba558a6d" y="72.0"/>
    </g>
   </g>
  </g>
 </g>
 <defs>
  <clipPath id="p1bffca34e9">
   <rect height="72.0" width="72.0" x="0.0" y="0.0"/>
  </clipPath>
 </defs>
</svg>
