<?xml version="1.0" encoding="utf-8" standalone="no"?>
<!DOCTYPE svg PUBLIC "-//W3C//DTD SVG 1.1//EN"
  "http://www.w3.org/Graphics/SVG/1.1/DTD/svg11.dtd">
<!-- Created with matplotlib (http://matplotlib.org/) -->
<svg height="72pt" version="1.1" viewBox="0 0 72 72" width="72pt" xmlns="http://www.w3.org/2000/svg" xmlns:xlink="http://www.w3.org/1999/xlink">
 <defs>
  <style type="text/css">
*{stroke-linecap:butt;stroke-linejoin:round;}
  </style>
 </defs>
 <g id="figure_1">
  <g id="patch_1">
   <path d="
M0 72
L72 72
L72 0
L0 0
z
" style="fill:none;"/>
  </g>
  <g id="axes_1">
   <g id="PatchCollection_1">
    <defs>
     <path d="
M36 -7.5
C43.5583 -7.5 50.808 -10.5029 56.1525 -15.8475
C61.4971 -21.192 64.5 -28.4417 64.5 -36
C64.5 -43.5583 61.4971 -50.808 56.1525 -56.1525
C50.808 -61.4971 43.5583 -64.5 36 -64.5
C28.4417 -64.5 21.192 -61.4971 15.8475 -56.1525
C10.5029 -50.808 7.5 -43.5583 7.5 -36
C7.5 -28.4417 10.5029 -21.192 15.8475 -15.8475
C21.192 -10.5029 28.4417 -7.5 36 -7.5
z
" id="C0_0_a811fe30f3"/>
     <path d="
M18.9657 -13.4447
L19.1764 -13.6151
L19.3832 -13.7909
L19.5866 -13.9714
L19.7867 -14.1562
L19.9837 -14.3449
L20.1778 -14.537
L20.3691 -14.7322
L20.5579 -14.9301
L20.7441 -15.1304
L20.9281 -15.3328
L21.1098 -15.5371
L21.2893 -15.743
L21.4668 -15.9503
L21.6424 -16.1588
L21.816 -16.3684
L21.9879 -16.5787
L22.1579 -16.7898
L22.3263 -17.0014
L22.4931 -17.2135
L22.6582 -17.4259
L22.8219 -17.6385
L22.984 -17.8512
L23.1448 -18.0639
L23.3041 -18.2767
L23.4621 -18.4893
L23.6188 -18.7018
L23.7742 -18.914
L23.9284 -19.1261
L24.0814 -19.3378
L24.2332 -19.5492
L24.3839 -19.7603
L24.5336 -19.971
L24.6822 -20.1814
L24.8298 -20.3913
L24.9764 -20.6009
L25.122 -20.81
L25.2668 -21.0187
L25.4107 -21.227
L25.5537 -21.4349
L25.6959 -21.6424
L25.8373 -21.8495
L25.978 -22.0563
L26.118 -22.2627
L26.2573 -22.4687
L26.3959 -22.6744
L26.5339 -22.8798
L26.6713 -23.0849
L26.8082 -23.2898
L26.9445 -23.4944
L27.0803 -23.6989
L27.2157 -23.9031
L27.3506 -24.1072
L27.4851 -24.3111
L27.6192 -24.515
L27.753 -24.7188
L27.8865 -24.9226
L28.0197 -25.1264
L28.1526 -25.3302
L28.2853 -25.5341
L28.4177 -25.7382
L28.5501 -25.9423
L28.6822 -26.1467
L28.8143 -26.3513
L28.9463 -26.5562
L29.0782 -26.7613
L29.2101 -26.9668
L29.4739 -27.1728
L29.6059 -27.3791
L29.738 -27.5859
L29.8702 -27.7932
L30.0026 -28.0011
L30.1351 -28.2096
L30.2679 -28.4187
L30.4008 -28.6286
L30.5341 -28.8391
L30.6676 -29.0505
L30.8014 -29.2627
L30.9356 -29.4757
L31.0701 -29.6897
L31.2051 -29.9047
L31.3405 -30.1207
L31.4763 -30.3377
L31.6126 -30.5559
L31.7494 -30.7752
L31.8867 -30.9957
L32.0246 -31.2176
L32.163 -31.4407
L32.3021 -31.6652
L32.4418 -31.8911
L32.5821 -32.1185
L32.7231 -32.3474
L32.8648 -32.5779
L33.0073 -32.81
L33.1504 -33.0438
L33.2943 -33.2793
L33.439 -33.5165
L33.5844 -33.7556
L33.7307 -33.9966
L33.8778 -34.2395
L34.0257 -34.4844
L34.1744 -34.7313
L34.324 -34.9802
L34.4744 -35.2313
L34.6257 -35.4846
L34.7778 -35.74
L34.9308 -35.9977
L35.0846 -36.2578
L35.2392 -36.5201
L35.3947 -36.7848
L35.551 -37.052
L35.708 -37.3216
L35.8658 -37.5936
L36.0243 -37.8682
L36.1835 -38.1453
L36.3433 -38.425
L36.5037 -38.7072
L36.6646 -38.9921
L36.826 -39.2795
L36.9877 -39.5696
L37.1497 -39.8623
L37.3119 -40.1576
L37.4742 -40.4555
L37.6363 -40.7559
L37.7983 -41.059
L37.96 -41.3646
L38.1211 -41.6727
L38.2815 -41.9833
L38.441 -42.2963
L38.5993 -42.6116
L38.7562 -42.9293
L38.9114 -43.2491
L39.0646 -43.5711
L39.2155 -43.8951
L39.3637 -44.2211
L39.5087 -44.5489
L39.6502 -44.8784
L39.7877 -45.2094
L39.9206 -45.5418
L40.0483 -45.8755
L40.1703 -46.2102
L40.2858 -46.5457
L40.3942 -46.882
L40.4946 -47.2187
L40.5863 -47.5556
L40.6684 -47.8924
L40.7399 -48.229
L40.7998 -48.565
L40.8473 -48.9001
L40.8813 -49.234
L40.9008 -49.5664
L40.9048 -49.897
L40.8924 -50.2253
L40.8627 -50.551
L40.815 -50.8738
L40.7486 -51.1932
L40.6631 -51.5088
L40.558 -51.8202
L40.4332 -52.1271
L40.2888 -52.429
L40.125 -52.7256
L39.9421 -53.0164
L39.7407 -53.3012
L39.5214 -53.5795
L39.2851 -53.8511
L39.0327 -54.1157
L38.765 -54.3731
L38.4831 -54.6229
L38.1881 -54.865
L37.8808 -55.0992
L37.5624 -55.3254
L37.2339 -55.5434
L36.8961 -55.7531
L36.55 -55.9545
L36.1964 -56.1475
L35.8363 -56.3321
L35.4704 -56.5082
L35.0993 -56.6759
L34.7239 -56.8351
L34.3447 -56.9859
L33.9624 -57.1284
L33.5774 -57.2627
L33.1904 -57.3887
L32.8018 -57.5066
L32.412 -57.6165
L32.0215 -57.7184
L31.6305 -57.8126
L31.2396 -57.8991
L30.8489 -57.9779
L30.4588 -58.0494
L30.0695 -58.1135
L29.6813 -58.1704
L29.2944 -58.2203
L28.909 -58.2633
L28.5253 -58.2995
L28.1434 -58.3291
L27.7635 -58.3521
L27.3856 -58.3688
L27.01 -58.3793
L26.6368 -58.3836
L26.2659 -58.382
L25.8975 -58.3746
L25.5317 -58.3614
L25.1684 -58.3426
L24.8078 -58.3184
L24.4499 -58.2888
L24.0948 -58.254
L23.7423 -58.214
L23.3926 -58.169
L23.0457 -58.119
L22.7016 -58.0642
L22.3602 -58.0047
L22.0217 -57.9405
L21.6858 -57.8717
L21.3527 -57.7984
L21.0224 -57.7207
L20.6947 -57.6387
L20.3698 -57.5523
L20.0475 -57.4617
L19.7279 -57.367
L19.4109 -57.2681
L19.0964 -57.1652
L18.7846 -57.0582
L18.4752 -56.9472
L18.1683 -56.8323
L17.8639 -56.7135
L17.562 -56.5907
L17.2624 -56.4641
L16.9652 -56.3337
L16.6703 -56.1994
L16.3777 -56.0612
L16.0874 -55.9193
L15.7993 -55.7735
L15.5135 -55.6239
L15.2298 -55.4705
L14.9482 -55.3132
L14.5872 -55.1521
L14.2622 -54.808
L13.9439 -54.4315
L13.6322 -54.0493
L13.3274 -53.6616
L13.0295 -53.2686
L12.7385 -52.8702
L12.4547 -52.4668
L12.178 -52.0583
L11.9086 -51.6449
L11.6465 -51.2268
L11.3919 -50.804
L11.1447 -50.3767
L10.9051 -49.9451
L10.6732 -49.5092
L10.449 -49.0691
L10.2325 -48.6251
L10.0239 -48.1773
L9.82323 -47.7257
L9.63051 -47.2706
L9.44583 -46.812
L9.26924 -46.3502
L9.10079 -45.8852
L8.94054 -45.4171
L8.78853 -44.9463
L8.6448 -44.4726
L8.50941 -43.9964
L8.38239 -43.5178
L8.26379 -43.0369
L8.15363 -42.5538
L8.05196 -42.0688
L7.9588 -41.5819
L7.87418 -41.0932
L7.79813 -40.6031
L7.73067 -40.1115
L7.67182 -39.6187
L7.6216 -39.1248
L7.58002 -38.6299
L7.54711 -38.1342
L7.52285 -37.6379
L7.50728 -37.1411
L7.50038 -36.6439
L7.50216 -36.1466
L7.51262 -35.6492
L7.53176 -35.1519
L7.55958 -34.6548
L7.59605 -34.1582
L7.64118 -33.6621
L7.69495 -33.1667
L7.75734 -32.6722
L7.82833 -32.1788
L7.9079 -31.6864
L7.99603 -31.1954
L8.09269 -30.7059
L8.19785 -30.218
L8.31148 -29.7318
L8.43354 -29.2475
L8.56401 -28.7653
L8.70282 -28.2853
L8.84996 -27.8077
L9.00536 -27.3325
L9.16899 -26.86
L9.34079 -26.3903
L9.52071 -25.9235
L9.70869 -25.4597
L9.90469 -24.9992
L10.1086 -24.5421
L10.3205 -24.0884
L10.5401 -23.6383
L10.7675 -23.192
L11.0026 -22.7496
L11.2453 -22.3113
L11.4956 -21.8771
L11.7533 -21.4472
L12.0184 -21.0218
L12.2908 -20.6009
L12.5704 -20.1847
L12.8572 -19.7733
L13.151 -19.3669
L13.4518 -18.9656
L13.7594 -18.5694
L14.0738 -18.1785
L14.3949 -17.7931
L14.7226 -17.4132
L15.0567 -17.0389
L15.3973 -16.6705
L15.7441 -16.3079
L16.0971 -15.9514
L16.4561 -15.6009
L16.8211 -15.2567
L17.192 -14.9187
L17.5685 -14.5872
L17.9507 -14.2622
L18.3384 -13.9439
z
" id="C0_1_1f3838cf55"/>
     <path d="
M57.2452 -17.0895
L57.3756 -17.3847
L57.5018 -17.6801
L57.624 -17.9757
L57.7422 -18.2715
L57.8565 -18.5675
L57.9669 -18.8638
L58.0736 -19.1605
L58.1766 -19.4575
L58.2759 -19.7549
L58.3716 -20.0527
L58.4638 -20.351
L58.5524 -20.6499
L58.6376 -20.9493
L58.7193 -21.2493
L58.7975 -21.5499
L58.8725 -21.8513
L58.944 -22.1534
L59.0122 -22.4563
L59.0771 -22.7601
L59.1387 -23.0648
L59.197 -23.3704
L59.2521 -23.677
L59.3038 -23.9846
L59.3523 -24.2933
L59.3976 -24.6032
L59.4396 -24.9143
L59.4783 -25.2266
L59.5137 -25.5403
L59.5458 -25.8552
L59.5747 -26.1716
L59.6002 -26.4894
L59.6223 -26.8087
L59.6411 -27.1296
L59.6565 -27.4521
L59.6685 -27.7762
L59.677 -28.102
L59.6821 -28.4296
L59.6836 -28.7589
L59.6815 -29.0901
L59.6758 -29.4231
L59.6665 -29.7581
L59.6535 -30.095
L59.6367 -30.4339
L59.6161 -30.7749
L59.5916 -31.1179
L59.5633 -31.463
L59.5309 -31.8102
L59.4946 -32.1596
L59.4541 -32.5112
L59.4095 -32.865
L59.3606 -33.2209
L59.3075 -33.5792
L59.25 -33.9396
L59.1881 -34.3023
L59.1217 -34.6672
L59.0507 -35.0344
L58.9752 -35.4037
L58.895 -35.7753
L58.8101 -36.1491
L58.7203 -36.525
L58.6258 -36.903
L58.5264 -37.2831
L58.4221 -37.6652
L58.3128 -38.0493
L58.1986 -38.4353
L58.0794 -38.8231
L57.9552 -39.2126
L57.8261 -39.6037
L57.692 -39.9965
L57.553 -40.3906
L57.4091 -40.786
L57.2604 -41.1827
L57.1071 -41.5803
L56.9492 -41.9788
L56.7869 -42.3781
L56.6203 -42.7779
L56.4498 -43.1781
L56.2754 -43.5785
L56.0976 -43.9789
L55.9166 -44.3791
L55.7329 -44.7789
L55.5468 -45.178
L55.3588 -45.5763
L55.1695 -45.9735
L54.9795 -46.3694
L54.7894 -46.7637
L54.6 -47.1563
L54.412 -47.5469
L54.2262 -47.9354
L54.0437 -48.3213
L53.8653 -48.7047
L53.692 -49.0853
L53.5249 -49.4628
L53.3649 -49.8371
L53.2132 -50.2082
L53.0707 -50.5757
L52.9384 -50.9396
L52.8171 -51.2999
L52.7076 -51.6563
L52.6105 -52.0088
L52.5263 -52.3574
L52.4553 -52.702
L52.3977 -53.0425
L52.3534 -53.3789
L52.3222 -53.7111
L52.3039 -54.0391
L52.2978 -54.3629
L52.3036 -54.6823
L52.3204 -54.9975
L52.3476 -55.3082
L52.3845 -55.6145
L52.4302 -55.9164
L52.484 -56.2137
L52.5451 -56.5064
L52.6128 -56.7945
L52.6865 -57.078
L52.7653 -57.3567
L52.8488 -57.6307
L52.9363 -57.9
L53.0272 -58.1644
L53.1212 -58.4241
L53.6268 -58.6789
L54.015 -58.3952
L54.3977 -58.0841
L54.7748 -57.7664
L55.1461 -57.442
L55.5116 -57.111
L55.8712 -56.7737
L56.2247 -56.43
L56.5721 -56.0801
L56.9132 -55.7241
L57.2479 -55.362
L57.5762 -54.9941
L57.8979 -54.6204
L58.2129 -54.241
L58.5211 -53.856
L58.8225 -53.4656
L59.117 -53.0699
L59.4044 -52.669
L59.6846 -52.263
L59.9577 -51.8521
L60.2234 -51.4363
L60.4818 -51.0159
L60.7327 -50.5908
L60.9761 -50.1613
L61.2119 -49.7275
L61.44 -49.2895
L61.6603 -48.8475
L61.8728 -48.4016
L62.0775 -47.9518
L62.2742 -47.4985
L62.4629 -47.0416
L62.6435 -46.5814
L62.8161 -46.1179
L62.9804 -45.6514
L63.1365 -45.1819
L63.2844 -44.7096
L63.424 -44.2347
L63.5552 -43.7573
L63.678 -43.2775
L63.7924 -42.7955
L63.8983 -42.3114
L63.9957 -41.8254
L64.0846 -41.3376
L64.1649 -40.8482
L64.2367 -40.3573
L64.2998 -39.8651
L64.3544 -39.3717
L64.4003 -38.8773
L64.4375 -38.382
L64.4661 -37.886
L64.486 -37.3894
L64.4973 -36.8924
L64.4998 -36.3951
L64.4937 -35.8977
L64.4789 -35.4003
L64.4554 -34.9031
L64.4233 -34.4063
L64.3825 -33.9099
L64.333 -33.4142
L64.2749 -32.9192
L64.2082 -32.4252
L64.1329 -31.9323
L64.0491 -31.4406
L63.9567 -30.9503
L63.8558 -30.4616
L63.7464 -29.9745
L63.6285 -29.4893
L63.5022 -29.006
L63.3676 -28.5249
L63.2246 -28.0461
L63.0733 -27.5696
L62.9138 -27.0958
L62.7461 -26.6247
L62.5702 -26.1564
L62.3863 -25.6911
L62.1943 -25.2289
L61.9943 -24.7701
L61.7864 -24.3146
L61.5706 -23.8628
L61.3471 -23.4146
L61.1158 -22.9702
L60.8769 -22.5298
L60.6304 -22.0936
L60.3764 -21.6615
L60.115 -21.2338
L59.8462 -20.8107
L59.5702 -20.3921
L59.287 -19.9783
L58.9967 -19.5694
L58.6994 -19.1655
L58.3952 -18.7667
L58.0841 -18.3732
L57.7664 -17.985
z
" id="C0_2_813d50d869"/>
    </defs>
    <g clip-path="url(#p1bffca34e9)">
     <use style="fill:#ffffff;stroke:#000000;stroke-width:2.0;" x="0.0" xlink:href="#C0_0_a811fe30f3" y="72.0"/>
    </g>
    <g clip-path="url(#p1bffca34e9)">
     <use style="fill:#ff0000;stroke:#000000;stroke-width:2.0;" x="0.0" xlink:href="#C0_1_1f3838cf55" y="72.0"/>
    </g>
    <g clip-path="url(#p1bffca34e9)">
     <use style="fill:#ff0000;stroke:#000000;stroke-width:2.0;" x="0.0" xlink:href="#C0_2_813d50d869" y="72.0"/>
    </g>
   </g>
  </g>
 </g>
 <defs>
  <clipPath id="p1bffca34e9">
   <rect height="72.0" width="72.0" x="0.0" y="0.0"/>
  </clipPath>
 </defs>
</svg>
