<?xml version="1.0" encoding="utf-8" standalone="no"?>
<!DOCTYPE svg PUBLIC "-//W3C//DTD SVG 1.1//EN"
  "http://www.w3.org/Graphics/SVG/1.1/DTD/svg11.dtd">
<!-- Created with matplotlib (http://matplotlib.org/) -->
<svg height="72pt" version="1.1" viewBox="0 0 72 72" width="72pt" xmlns="http://www.w3.org/2000/svg" xmlns:xlink="http://www.w3.org/1999/xlink">
 <defs>
  <style type="text/css">
*{stroke-linecap:butt;stroke-linejoin:round;}
  </style>
 </defs>
 <g id="figure_1">
  <g id="patch_1">
   <path d="
M0 72
L72 72
L72 0
L0 0
z
" style="fill:none;"/>
  </g>
  <g id="axes_1">
   <g id="PatchCollection_1">
    <defs>
     <path d="
M36 -7.5
C43.5583 -7.5 50.808 -10.5029 56.1525 -15.8475
C61.4971 -21.192 64.5 -28.4417 64.5 -36
C64.5 -43.5583 61.4971 -50.808 56.1525 -56.1525
C50.808 -61.4971 43.5583 -64.5 36 -64.5
C28.4417 -64.5 21.192 -61.4971 15.8475 -56.1525
C10.5029 -50.808 7.5 -43.5583 7.5 -36
C7.5 -28.4417 10.5029 -21.192 15.8475 -15.8475
C21.192 -10.5029 28.4417 -7.5 36 -7.5
z
" id="C0_0_a811fe30f3"/>
     <path d="
M7.77519 -37.8992
L8.01862 -37.8652
L8.26409 -37.8139
L8.51152 -37.7467
L8.76083 -37.6647
L9.01197 -37.5694
L9.26486 -37.4619
L9.51947 -37.3435
L9.77572 -37.2152
L10.0336 -37.0783
L10.2929 -36.9336
L10.5538 -36.7823
L10.816 -36.6251
L11.0795 -36.4629
L11.3442 -36.2964
L11.6101 -36.1263
L11.877 -35.9534
L12.1448 -35.778
L12.4135 -35.6009
L12.6829 -35.4223
L12.953 -35.2428
L13.2236 -35.0628
L13.4947 -34.8825
L13.7661 -34.7024
L14.0378 -34.5226
L14.3097 -34.3434
L14.5816 -34.165
L14.8536 -33.9876
L15.1255 -33.8114
L15.3972 -33.6365
L15.6686 -33.463
L15.9398 -33.2911
L16.2106 -33.1209
L16.481 -32.9523
L16.7509 -32.7856
L17.0203 -32.6207
L17.2892 -32.4577
L17.5574 -32.2966
L17.825 -32.1375
L18.0919 -31.9803
L18.3581 -31.8252
L18.6235 -31.672
L18.8883 -31.5208
L19.1522 -31.3716
L19.4154 -31.2244
L19.6779 -31.0791
L19.9395 -30.9358
L20.2003 -30.7944
L20.4604 -30.655
L20.7197 -30.5174
L20.9782 -30.3817
L21.236 -30.2479
L21.493 -30.1158
L21.7493 -29.9856
L22.0048 -29.8571
L22.2597 -29.7303
L22.5139 -29.6053
L22.7674 -29.4819
L23.0203 -29.3601
L23.2726 -29.24
L23.5243 -29.1214
L23.7755 -29.0043
L24.0261 -28.8888
L24.2763 -28.7747
L24.526 -28.6621
L24.7753 -28.5509
L25.0242 -28.4411
L25.2728 -28.3326
L25.5211 -28.2255
L25.7691 -28.1196
L26.0169 -28.015
L26.2645 -27.9117
L26.5119 -27.8096
L26.7593 -27.7086
L27.0065 -27.6089
L27.2538 -27.5102
L27.5011 -27.4127
L27.7484 -27.3162
L27.9959 -27.2208
L28.2435 -27.1264
L28.4913 -27.0331
L28.7394 -26.9408
L28.9878 -26.8494
L29.4856 -26.759
L29.7351 -26.6695
L29.9851 -26.5809
L30.2357 -26.4932
L30.4869 -26.4064
L30.7387 -26.3205
L30.9911 -26.2354
L31.2443 -26.1511
L31.4983 -26.0677
L31.7531 -25.9851
L32.0089 -25.9033
L32.2655 -25.8222
L32.5231 -25.7419
L32.7818 -25.6624
L33.0416 -25.5837
L33.3025 -25.5056
L33.5646 -25.4283
L33.8279 -25.3518
L34.0925 -25.276
L34.3585 -25.2008
L34.6259 -25.1264
L34.8947 -25.0527
L35.165 -24.9797
L35.4369 -24.9075
L35.7103 -24.8359
L35.9854 -24.765
L36.2622 -24.6948
L36.5407 -24.6253
L36.8209 -24.5566
L37.103 -24.4885
L37.387 -24.4211
L37.6729 -24.3545
L37.9607 -24.2886
L38.2505 -24.2234
L38.5423 -24.1589
L38.8362 -24.0952
L39.1322 -24.0322
L39.4302 -23.97
L39.7304 -23.9085
L40.0328 -23.8478
L40.3373 -23.7879
L40.644 -23.7287
L40.9529 -23.6703
L41.2641 -23.6128
L41.5774 -23.556
L41.8929 -23.5
L42.2106 -23.4448
L42.5304 -23.3905
L42.8524 -23.3369
L43.1765 -23.2842
L43.5026 -23.2323
L43.8308 -23.1811
L44.1609 -23.1308
L44.4928 -23.0812
L44.8266 -23.0324
L45.162 -22.9842
L45.499 -22.9368
L45.8375 -22.89
L46.1772 -22.8437
L46.5182 -22.798
L46.8601 -22.7528
L47.2029 -22.7079
L47.5462 -22.6633
L47.8899 -22.6188
L48.2337 -22.5743
L48.5773 -22.5297
L48.9205 -22.4847
L49.2628 -22.4392
L49.6041 -22.393
L49.9438 -22.3457
L50.2815 -22.2971
L50.6169 -22.2468
L50.9494 -22.1946
L51.2785 -22.1399
L51.6037 -22.0823
L51.9245 -22.0214
L52.2401 -21.9565
L52.5499 -21.8872
L52.8533 -21.8128
L53.1495 -21.7327
L53.4379 -21.6461
L53.7176 -21.5523
L53.9878 -21.4506
L54.2479 -21.3401
L54.497 -21.2203
L54.7344 -21.0902
L54.9592 -20.9492
L55.1709 -20.7966
L55.3686 -20.6319
L55.5519 -20.4545
L55.7202 -20.264
L55.8729 -20.0602
L56.0096 -19.8429
L56.1302 -19.612
L56.2342 -19.3677
L56.3216 -19.1102
L56.3922 -18.84
L56.4461 -18.5574
L56.4833 -18.2631
L56.5038 -17.9577
L56.508 -17.642
L56.4958 -17.3167
L56.4676 -16.9828
L56.4237 -16.641
L56.1602 -16.2922
L55.8056 -15.8552
L55.4449 -15.5064
L55.0783 -15.1638
L54.7059 -14.8277
L54.3278 -14.4979
L53.9441 -14.1747
L53.5549 -13.8582
L53.1604 -13.5484
L52.7607 -13.2454
L52.3558 -12.9494
L51.946 -12.6604
L51.5313 -12.3785
L51.1119 -12.1038
L50.6879 -11.8364
L50.2594 -11.5763
L49.8266 -11.3237
L49.3895 -11.0786
L48.9484 -10.8411
L48.5034 -10.6113
L48.0545 -10.3891
L47.6019 -10.1748
L47.1459 -9.96838
L46.6864 -9.76987
L46.2236 -9.57934
L45.7578 -9.39686
L45.289 -9.22248
L44.8173 -9.05627
L44.343 -8.89825
L43.8661 -8.7485
L43.3869 -8.60704
L42.9053 -8.47393
L42.4217 -8.34921
L41.9361 -8.2329
L41.4487 -8.12506
L40.9597 -8.0257
L40.4691 -7.93487
L39.9772 -7.85259
L39.4841 -7.77888
L38.9899 -7.71376
L38.4948 -7.65727
L37.9989 -7.6094
L37.5024 -7.57019
L37.0055 -7.53963
L36.5083 -7.51774
L36.0109 -7.50453
L35.5135 -7.5
L35.0162 -7.50415
L34.5193 -7.51698
L34.0228 -7.53849
L33.5269 -7.56867
L33.0318 -7.6075
L32.5375 -7.65499
L32.0443 -7.71111
L31.5524 -7.77585
L31.0617 -7.84918
L30.5726 -7.93109
L30.0852 -8.02155
L29.5995 -8.12053
L29.1158 -8.22801
L28.6342 -8.34394
L28.1548 -8.4683
L27.6778 -8.60104
L27.2034 -8.74213
L26.7316 -8.89153
L26.2627 -9.04918
L25.7967 -9.21504
L25.3338 -9.38906
L24.8742 -9.57119
L24.4179 -9.76136
L23.9652 -9.95953
L23.5162 -10.1656
L23.071 -10.3796
L22.6297 -10.6014
L22.1924 -10.8309
L21.7594 -11.0681
L21.3307 -11.3128
L20.9065 -11.5651
L20.4869 -11.8249
L20.072 -12.092
L19.662 -12.3663
L19.2569 -12.6479
L18.857 -12.9366
L18.4622 -13.2323
L18.0728 -13.535
L17.6889 -13.8445
L17.3105 -14.1607
L16.9379 -14.4836
L16.571 -14.8131
L16.2101 -15.149
L15.8552 -15.4913
L15.5064 -15.8398
L15.1638 -16.1944
L14.8277 -16.5551
L14.4979 -16.9217
L14.1747 -17.2941
L13.8582 -17.6722
L13.5484 -18.0559
L13.2454 -18.4451
L12.9494 -18.8396
L12.6604 -19.2393
L12.3785 -19.6442
L12.1038 -20.054
L11.8364 -20.4687
L11.5763 -20.8881
L11.3237 -21.3121
L11.0786 -21.7406
L10.8411 -22.1734
L10.6113 -22.6105
L10.3891 -23.0516
L10.1748 -23.4966
L9.96838 -23.9455
L9.76987 -24.3981
L9.57934 -24.8541
L9.39686 -25.3136
L9.22248 -25.7764
L9.05627 -26.2422
L8.89825 -26.711
L8.7485 -27.1827
L8.60704 -27.657
L8.47393 -28.1339
L8.34921 -28.6131
L8.2329 -29.0947
L8.12506 -29.5783
L8.0257 -30.0639
L7.93487 -30.5513
L7.85259 -31.0403
L7.77888 -31.5309
L7.71376 -32.0228
L7.65727 -32.5159
L7.6094 -33.0101
L7.57019 -33.5052
L7.53963 -34.0011
L7.51774 -34.4976
L7.50453 -34.9945
L7.5 -35.4917
L7.50415 -35.9891
L7.51698 -36.4865
z
" id="C0_1_15454cf10b"/>
     <path d="
M15.76 -55.9405
L16.119 -56.0119
L16.4829 -56.085
L16.8512 -56.1591
L17.2233 -56.2335
L17.5986 -56.3075
L17.9766 -56.3806
L18.3569 -56.4523
L18.7389 -56.5222
L19.1222 -56.5897
L19.5065 -56.6548
L19.8914 -56.7169
L20.2765 -56.776
L20.6615 -56.8318
L21.0461 -56.8842
L21.4301 -56.933
L21.8131 -56.9781
L22.1951 -57.0194
L22.5756 -57.057
L22.9546 -57.0908
L23.332 -57.1207
L23.7074 -57.1468
L24.0809 -57.169
L24.4523 -57.1875
L24.8214 -57.2021
L25.1882 -57.2131
L25.5526 -57.2204
L25.9145 -57.2241
L26.2739 -57.2242
L26.6307 -57.2209
L26.9849 -57.2141
L27.3365 -57.204
L27.6854 -57.1905
L28.0315 -57.1739
L28.375 -57.1541
L28.7158 -57.1313
L29.0539 -57.1054
L29.3894 -57.0767
L29.7221 -57.045
L30.0522 -57.0106
L30.3797 -56.9734
L30.7046 -56.9335
L31.0269 -56.8911
L31.3467 -56.846
L31.664 -56.7985
L31.9789 -56.7485
L32.2913 -56.6962
L32.6014 -56.6415
L32.9091 -56.5845
L33.2146 -56.5252
L33.5179 -56.4637
L33.8189 -56.4
L34.1179 -56.3342
L34.4147 -56.2663
L34.7096 -56.1964
L35.0025 -56.1243
L35.2934 -56.0503
L35.5825 -55.9743
L35.8698 -55.8963
L36.1554 -55.8163
L36.4393 -55.7344
L36.7215 -55.6506
L37.0021 -55.5648
L37.2812 -55.4772
L37.5588 -55.3877
L37.835 -55.2963
L38.1098 -55.203
L38.3833 -55.1079
L38.6556 -55.0108
L38.9266 -54.9119
L39.1965 -54.8111
L39.4653 -54.7085
L39.733 -54.6039
L39.9997 -54.4974
L40.2655 -54.389
L40.5303 -54.2787
L40.7943 -54.1664
L41.0575 -54.0522
L41.32 -53.936
L41.5817 -53.8178
L41.8428 -53.6975
L42.1033 -53.5753
L42.3631 -53.4509
L42.6225 -53.3245
L42.8814 -53.1959
L43.1398 -53.0652
L43.3978 -52.9323
L43.6555 -52.7971
L43.9128 -52.6598
L44.1699 -52.5201
L44.4267 -52.378
L44.6833 -52.2336
L44.9397 -52.0868
L45.1959 -51.9376
L45.4521 -51.7858
L45.7082 -51.6315
L45.9642 -51.4746
L46.2202 -51.315
L46.4762 -51.1528
L46.7322 -50.9878
L46.9883 -50.82
L47.2444 -50.6494
L47.5006 -50.4758
L47.757 -50.2993
L48.0134 -50.1198
L48.27 -49.9373
L48.5268 -49.7516
L48.7837 -49.5627
L49.0407 -49.3707
L49.2979 -49.1753
L49.5553 -48.9765
L49.8128 -48.7744
L50.0705 -48.5688
L50.3284 -48.3597
L50.5863 -48.147
L50.8444 -47.9307
L51.1026 -47.7108
L51.3608 -47.4871
L51.6192 -47.2597
L51.8775 -47.0284
L52.1358 -46.7934
L52.3941 -46.5545
L52.6523 -46.3117
L52.9103 -46.065
L53.1682 -45.8143
L53.4258 -45.5598
L53.6832 -45.3013
L53.9402 -45.0388
L54.1967 -44.7725
L54.4528 -44.5024
L54.7084 -44.2284
L54.9633 -43.9506
L55.2175 -43.6692
L55.471 -43.3842
L55.7235 -43.0957
L55.9752 -42.8039
L56.2258 -42.5089
L56.4753 -42.2108
L56.7237 -41.91
L56.9708 -41.6066
L57.2166 -41.301
L57.461 -40.9933
L57.704 -40.684
L57.9455 -40.3734
L58.1854 -40.0619
L58.4238 -39.7501
L58.6607 -39.4384
L58.8959 -39.1273
L59.1297 -38.8176
L59.3619 -38.5099
L59.5927 -38.2048
L59.8222 -37.9033
L60.0504 -37.6061
L60.2775 -37.3141
L60.5037 -37.0283
L60.7291 -36.7497
L60.954 -36.4793
L61.1785 -36.2182
L61.403 -35.9675
L61.6276 -35.7283
L61.8526 -35.5016
L62.0783 -35.2886
L62.3049 -35.0903
L62.5326 -34.9076
L62.7616 -34.7414
L62.9921 -34.5924
L63.224 -34.4614
L63.4574 -34.3489
L63.6924 -34.2552
L63.9289 -34.1807
L64.1666 -34.1254
L64.4648 -34.0894
L64.4852 -34.5839
L64.4969 -35.0809
L64.4999 -35.5782
L64.4942 -36.0756
L64.4799 -36.573
L64.4569 -37.0702
L64.4252 -37.567
L64.3849 -38.0635
L64.3359 -38.5592
L64.2783 -39.0542
L64.212 -39.5483
L64.1372 -40.0413
L64.0538 -40.533
L63.9619 -41.0234
L63.8614 -41.5122
L63.7524 -41.9994
L63.635 -42.4847
L63.5092 -42.9681
L63.375 -43.4493
L63.2325 -43.9283
L63.0817 -44.4048
L62.9226 -44.8788
L62.7553 -45.3501
L62.5799 -45.8186
L62.3963 -46.284
L62.2048 -46.7463
L62.0052 -47.2054
L61.7977 -47.661
L61.5824 -48.1131
L61.3593 -48.5615
L61.1284 -49.006
L60.8899 -49.4466
L60.6438 -49.8831
L60.3903 -50.3154
L60.1292 -50.7433
L59.8609 -51.1667
L59.5852 -51.5855
L59.3024 -51.9996
L59.0125 -52.4088
L58.7155 -52.813
L58.4117 -53.212
L58.101 -53.6058
L57.7836 -53.9943
L57.4596 -54.3773
L57.129 -54.7547
L56.792 -55.1263
L56.4486 -55.4922
L56.099 -55.8521
L55.7433 -56.2059
L55.3816 -56.5536
L55.014 -56.8951
L54.6406 -57.2301
L54.2615 -57.5587
L53.8768 -57.8808
L53.4867 -58.1961
L53.0913 -58.5048
L52.6907 -58.8065
L52.285 -59.1013
L51.8743 -59.3891
L51.4588 -59.6698
L51.0385 -59.9432
L50.6137 -60.2093
L50.1845 -60.4681
L49.7509 -60.7194
L49.3132 -60.9632
L48.8713 -61.1994
L48.4256 -61.4279
L47.9761 -61.6487
L47.5229 -61.8616
L47.0662 -62.0667
L46.6062 -62.2638
L46.1429 -62.453
L45.6765 -62.634
L45.2072 -62.807
L44.7351 -62.9718
L44.2603 -63.1284
L43.783 -63.2767
L43.3033 -63.4167
L42.8214 -63.5484
L42.3374 -63.6716
L41.8515 -63.7865
L41.3638 -63.8928
L40.8745 -63.9907
L40.3837 -64.08
L39.8916 -64.1608
L39.3982 -64.2331
L38.9039 -64.2967
L38.4086 -64.3517
L37.9127 -64.398
L37.4161 -64.4357
L36.9191 -64.4648
L36.4218 -64.4852
L35.9244 -64.4969
L35.427 -64.4999
L34.9298 -64.4942
L34.433 -64.4799
L33.9365 -64.4569
L33.4408 -64.4252
L32.9458 -64.3849
L32.4517 -64.3359
L31.9587 -64.2783
L31.467 -64.212
L30.9766 -64.1372
L30.4878 -64.0538
L30.0006 -63.9619
L29.5153 -63.8614
L29.0319 -63.7524
L28.5507 -63.635
L28.0717 -63.5092
L27.5952 -63.375
L27.1212 -63.2325
L26.6499 -63.0817
L26.1814 -62.9226
L25.716 -62.7553
L25.2537 -62.5799
L24.7946 -62.3963
L24.339 -62.2048
L23.8869 -62.0052
L23.4385 -61.7977
L22.994 -61.5824
L22.5534 -61.3593
L22.1169 -61.1284
L21.6846 -60.8899
L21.2567 -60.6438
L20.8333 -60.3903
L20.4145 -60.1292
L20.0004 -59.8609
L19.5912 -59.5852
L19.187 -59.3024
L18.788 -59.0125
L18.3942 -58.7155
L18.0057 -58.4117
L17.6227 -58.101
L17.2453 -57.7836
L16.8737 -57.4596
L16.5078 -57.129
L16.1479 -56.792
z
" id="C0_2_1bba8f3dbb"/>
    </defs>
    <g clip-path="url(#p1bffca34e9)">
     <use style="fill:#ff0000;stroke:#000000;stroke-width:2.0;" x="0.0" xlink:href="#C0_0_a811fe30f3" y="72.0"/>
    </g>
    <g clip-path="url(#p1bffca34e9)">
     <use style="fill:#ffffff;stroke:#000000;stroke-width:2.0;" x="0.0" xlink:href="#C0_1_15454cf10b" y="72.0"/>
    </g>
    <g clip-path="url(#p1bffca34e9)">
     <use style="fill:#ffffff;stroke:#000000;stroke-width:2.0;" x="0.0" xlink:href="#C0_2_1bba8f3dbb" y="72.0"/>
    </g>
   </g>
  </g>
 </g>
 <defs>
  <clipPath id="p1bffca34e9">
   <rect height="72.0" width="72.0" x="0.0" y="0.0"/>
  </clipPath>
 </defs>
</svg>
