<?xml version="1.0" encoding="utf-8" standalone="no"?>
<!DOCTYPE svg PUBLIC "-//W3C//DTD SVG 1.1//EN"
  "http://www.w3.org/Graphics/SVG/1.1/DTD/svg11.dtd">
<!-- Created with matplotlib (http://matplotlib.org/) -->
<svg height="72pt" version="1.1" viewBox="0 0 72 72" width="72pt" xmlns="http://www.w3.org/2000/svg" xmlns:xlink="http://www.w3.org/1999/xlink">
 <defs>
  <style type="text/css">
*{stroke-linecap:butt;stroke-linejoin:round;}
  </style>
 </defs>
 <g id="figure_1">
  <g id="patch_1">
   <path d="
M0 72
L72 72
L72 0
L0 0
z
" style="fill:none;"/>
  </g>
  <g id="axes_1">
   <g id="PatchCollection_1">
    <defs>
     <path d="
M36 -7.5
C43.5583 -7.5 50.808 -10.5029 56.1525 -15.8475
C61.4971 -21.192 64.5 -28.4417 64.5 -36
C64.5 -43.5583 61.4971 -50.808 56.1525 -56.1525
C50.808 -61.4971 43.5583 -64.5 36 -64.5
C28.4417 -64.5 21.192 -61.4971 15.8475 -56.1525
C10.5029 -50.808 7.5 -43.5583 7.5 -36
C7.5 -28.4417 10.5029 -21.192 15.8475 -15.8475
C21.192 -10.5029 28.4417 -7.5 36 -7.5
z
" id="C0_0_a811fe30f3"/>
     <path d="
M7.90714 -31.3024
L8.01471 -30.8067
L8.13331 -30.3113
L8.26307 -29.8166
L8.4041 -29.3234
L8.55648 -28.8322
L8.72026 -28.3438
L8.89547 -27.8588
L9.08208 -27.3781
L9.28006 -26.9025
L9.48928 -26.4328
L9.70962 -25.97
L9.94087 -25.515
L10.1828 -25.0688
L10.4351 -24.6325
L10.6974 -24.2072
L10.9693 -23.794
L11.2502 -23.394
L11.5398 -23.0084
L11.8372 -22.6385
L12.142 -22.2852
L12.4534 -21.9499
L12.7705 -21.6335
L13.0928 -21.3372
L13.4192 -21.0617
L13.7491 -20.8081
L14.0816 -20.5768
L14.4158 -20.3685
L14.7511 -20.1835
L15.0868 -20.0219
L15.422 -19.8836
L15.7564 -19.7685
L16.0893 -19.6761
L16.4204 -19.6057
L16.7492 -19.5567
L17.0755 -19.5282
L17.399 -19.5191
L17.7197 -19.5285
L18.0374 -19.5553
L18.352 -19.5983
L18.6634 -19.6565
L18.9718 -19.7288
L19.2771 -19.8141
L19.5792 -19.9115
L19.8784 -20.0199
L20.1745 -20.1384
L20.4676 -20.2662
L20.7578 -20.4025
L21.0452 -20.5465
L21.3296 -20.6975
L21.6113 -20.8549
L21.8902 -21.018
L22.1663 -21.1864
L22.4397 -21.3594
L22.7104 -21.5366
L22.9785 -21.7176
L23.2439 -21.9019
L23.5067 -22.0893
L23.7669 -22.2793
L24.0245 -22.4716
L24.2796 -22.666
L24.5322 -22.8621
L24.7822 -23.0598
L25.0298 -23.2588
L25.2749 -23.4589
L25.5176 -23.66
L25.7578 -23.8618
L25.9957 -24.0642
L26.2313 -24.267
L26.4645 -24.4703
L26.6955 -24.6737
L26.9241 -24.8772
L27.1506 -25.0808
L27.3749 -25.2843
L27.597 -25.4877
L27.817 -25.6908
L28.0349 -25.8938
L28.2508 -26.0964
L28.4647 -26.2986
L28.6766 -26.5004
L28.8866 -26.7019
L29.0947 -26.9028
L29.301 -27.1033
L29.5054 -27.3033
L29.7081 -27.5028
L29.9091 -27.7017
L30.1085 -27.9002
L30.3061 -28.0981
L30.5022 -28.2954
L30.6968 -28.4923
L30.8899 -28.6886
L31.0815 -28.8844
L31.2717 -29.0798
L31.4605 -29.2746
L31.648 -29.469
L31.8342 -29.6629
L32.0191 -29.8564
L32.2029 -30.0494
L32.3855 -30.2421
L32.567 -30.4344
L32.7475 -30.6264
L32.9268 -30.818
L33.1053 -31.0094
L33.2827 -31.2005
L33.4593 -31.3913
L33.635 -31.582
L33.8098 -31.7725
L33.9839 -31.9628
L34.1573 -32.1531
L34.3299 -32.3432
L34.5019 -32.5334
L34.6732 -32.7235
L34.8439 -32.9136
L35.0141 -33.1038
L35.1838 -33.2941
L35.353 -33.4846
L35.5218 -33.6752
L35.6901 -33.866
L36.0257 -34.0571
L36.1931 -34.2485
L36.3602 -34.4402
L36.527 -34.6323
L36.6937 -34.8248
L36.8602 -35.0177
L37.0266 -35.2111
L37.1928 -35.4051
L37.359 -35.5996
L37.5252 -35.7947
L37.6914 -35.9905
L37.8576 -36.187
L38.0238 -36.3843
L38.1901 -36.5823
L38.3566 -36.7812
L38.5232 -36.9809
L38.6899 -37.1816
L38.8569 -37.3832
L39.024 -37.5859
L39.1914 -37.7895
L39.3591 -37.9943
L39.5271 -38.2003
L39.6953 -38.4074
L39.8639 -38.6158
L40.0329 -38.8254
L40.2022 -39.0364
L40.3719 -39.2488
L40.5419 -39.4625
L40.7124 -39.6778
L40.8833 -39.8946
L41.0546 -40.1129
L41.2264 -40.3328
L41.3986 -40.5544
L41.5712 -40.7777
L41.7442 -41.0027
L41.9177 -41.2295
L42.0916 -41.4581
L42.2659 -41.6886
L42.4406 -41.9211
L42.6157 -42.1554
L42.7911 -42.3918
L42.9669 -42.6302
L43.1429 -42.8707
L43.3192 -43.1133
L43.4957 -43.358
L43.6724 -43.605
L43.8492 -43.8541
L44.026 -44.1054
L44.2027 -44.3591
L44.3794 -44.615
L44.5558 -44.8732
L44.732 -45.1338
L44.9077 -45.3967
L45.0829 -45.6619
L45.2574 -45.9296
L45.431 -46.1996
L45.6037 -46.472
L45.7753 -46.7468
L45.9454 -47.024
L46.114 -47.3035
L46.2808 -47.5855
L46.4456 -47.8697
L46.608 -48.1563
L46.7677 -48.4452
L46.9245 -48.7364
L47.078 -49.0298
L47.2277 -49.3254
L47.3733 -49.6231
L47.5143 -49.923
L47.6502 -50.2249
L47.7804 -50.5288
L47.9045 -50.8347
L48.0217 -51.1424
L48.1313 -51.4519
L48.2327 -51.7631
L48.325 -52.076
L48.4075 -52.3904
L48.4792 -52.7062
L48.5393 -53.0233
L48.5866 -53.3416
L48.6203 -53.6609
L48.6393 -53.9812
L48.6425 -54.3021
L48.6288 -54.6236
L48.5974 -54.9453
L48.5471 -55.267
L48.4771 -55.5884
L48.3866 -55.9092
L48.275 -56.229
L48.1416 -56.5473
L47.9861 -56.8637
L47.8084 -57.1776
L47.6085 -57.4885
L47.3866 -57.7959
L47.1431 -58.0991
L46.8786 -58.3975
L46.5938 -58.6905
L46.2896 -58.9775
L45.9669 -59.2578
L45.6268 -59.5309
L45.2703 -59.7962
L44.8988 -60.0532
L44.5131 -60.3015
L44.1147 -60.5406
L43.7045 -60.7702
L43.2836 -60.9899
L42.8533 -61.1994
L42.4144 -61.3986
L41.9681 -61.5872
L41.5152 -61.7652
L41.0567 -61.9323
L40.5934 -62.0885
L40.126 -62.2339
L39.6555 -62.3684
L39.1825 -62.492
L38.7075 -62.6048
L38.2314 -62.707
L37.7546 -62.7986
L37.2776 -62.8797
L36.801 -62.9506
L36.3253 -63.0114
L35.8508 -63.0621
L35.3779 -63.1032
L34.907 -63.1347
L34.4384 -63.1568
L33.9725 -63.1698
L33.5094 -63.1738
L33.0494 -63.1692
L32.5928 -63.1561
L32.1397 -63.1347
L31.6904 -63.1053
L31.2449 -63.068
L30.8034 -63.0232
L30.3661 -62.971
L29.933 -62.9116
L29.5042 -62.8452
L29.0798 -62.7721
L28.6598 -62.6924
L28.2444 -62.6064
L27.8335 -62.5142
L27.4272 -62.4159
L27.0255 -62.3119
L26.6284 -62.2022
L26.2359 -62.087
L25.8481 -61.9665
L25.4648 -61.8408
L25.0861 -61.71
L24.712 -61.5744
L24.3424 -61.434
L23.9773 -61.289
L23.6168 -61.1394
L23.2606 -60.9855
L22.9089 -60.8272
L22.5615 -60.6648
L22.2185 -60.4982
L21.8797 -60.3277
L21.5452 -60.1532
L21.2149 -59.9748
L20.8887 -59.7927
L20.5666 -59.6069
L20.2485 -59.4174
L19.9345 -59.2243
L19.6244 -59.0277
L19.3182 -58.8276
L19.0159 -58.6241
L18.7174 -58.4172
L18.4227 -58.2069
L18.1318 -57.9932
L17.8445 -57.7762
L17.5608 -57.556
L17.2808 -57.3324
L17.0044 -57.1056
L16.7315 -56.8756
L16.4621 -56.6423
L16.1961 -56.4057
L15.9337 -56.1659
L15.6746 -55.9229
L15.419 -55.6766
L15.1667 -55.4271
L14.9178 -55.1743
L14.6722 -54.9182
L14.4299 -54.6588
L14.191 -54.396
L13.9553 -54.13
L13.723 -53.8605
L13.4939 -53.5876
L13.2682 -53.3113
L13.0457 -53.0316
L12.8266 -52.7483
L12.6108 -52.4615
L12.3983 -52.1711
L12.1892 -51.8771
L11.9835 -51.5794
L11.7811 -51.278
L11.5822 -50.9728
L11.3868 -50.6639
L11.1326 -50.3511
L10.8934 -49.9235
L10.6619 -49.4874
L10.438 -49.0472
L10.222 -48.603
L10.0138 -48.1549
L9.81346 -47.7032
L9.62115 -47.2479
L9.43687 -46.7892
L9.26068 -46.3272
L9.09264 -45.862
L8.93279 -45.3938
L8.78119 -44.9228
L8.63788 -44.449
L8.5029 -43.9727
L8.3763 -43.494
L8.25812 -43.0129
L8.14838 -42.5298
L8.04713 -42.0446
L7.9544 -41.5576
L7.8702 -41.0689
L7.79458 -40.5787
L7.72754 -40.0871
L7.66912 -39.5942
L7.61933 -39.1002
L7.57818 -38.6053
L7.5457 -38.1096
L7.52187 -37.6132
L7.50673 -37.1164
L7.50026 -36.6192
L7.50247 -36.1219
L7.51337 -35.6244
L7.53294 -35.1272
L7.56118 -34.6301
L7.59809 -34.1335
L7.64365 -33.6375
L7.69784 -33.1422
L7.76066 -32.6477
z
" id="C0_1_dd99f8fbb4"/>
     <path d="
M60.8049 -21.9657
L60.9784 -22.2945
L61.1484 -22.6267
L61.315 -22.9624
L61.4781 -23.3016
L61.6377 -23.6443
L61.7936 -23.9907
L61.9459 -24.3408
L62.0946 -24.6946
L62.2394 -25.0523
L62.3805 -25.4138
L62.5177 -25.7792
L62.6509 -26.1486
L62.7802 -26.522
L62.9053 -26.8995
L63.0262 -27.2811
L63.1429 -27.6668
L63.2552 -28.0568
L63.363 -28.4511
L63.4663 -28.8496
L63.5648 -29.2525
L63.6586 -29.6597
L63.7475 -30.0714
L63.8313 -30.4874
L63.91 -30.9079
L63.9834 -31.3329
L64.0514 -31.7622
L64.1138 -32.1961
L64.1705 -32.6343
L64.2214 -33.077
L64.2663 -33.5241
L64.3051 -33.9756
L64.3375 -34.4313
L64.3636 -34.8913
L64.3831 -35.3555
L64.3959 -35.8237
L64.4018 -36.296
L64.4007 -36.7722
L64.3925 -37.2521
L64.3771 -37.7357
L64.3543 -38.2227
L64.324 -38.713
L64.2862 -39.2065
L64.2407 -39.7028
L64.2576 -40.2018
L64.318 -39.7093
L64.3698 -39.2156
L64.413 -38.7209
L64.4475 -38.2254
L64.4733 -37.7292
L64.4905 -37.2324
L64.499 -36.7353
L64.4988 -36.238
L64.49 -35.7406
L64.4724 -35.2432
L64.4462 -34.7461
L64.4113 -34.2494
L64.3678 -33.7532
L64.3156 -33.2577
L64.2548 -32.763
L64.1854 -32.2694
L64.1074 -31.7768
L64.0208 -31.2856
L63.9257 -30.7957
L63.8221 -30.3075
L63.71 -29.821
L63.5895 -29.3364
L63.4606 -28.8538
L63.3233 -28.3734
L63.1777 -27.8953
L63.0238 -27.4196
L62.8617 -26.9466
L62.6914 -26.4764
L62.513 -26.009
L62.3265 -25.5447
L62.1319 -25.0836
L61.9294 -24.6258
L61.7191 -24.1715
L61.5008 -23.7207
L61.2748 -23.2738
z
" id="C0_2_b7966deb1a"/>
    </defs>
    <g clip-path="url(#p1bffca34e9)">
     <use style="fill:#ffffff;stroke:#000000;stroke-width:2.0;" x="0.0" xlink:href="#C0_0_a811fe30f3" y="72.0"/>
    </g>
    <g clip-path="url(#p1bffca34e9)">
     <use style="fill:#ff0000;stroke:#000000;stroke-width:2.0;" x="0.0" xlink:href="#C0_1_dd99f8fbb4" y="72.0"/>
    </g>
    <g clip-path="url(#p1bffca34e9)">
     <use style="fill:#ff0000;stroke:#000000;stroke-width:2.0;" x="0.0" xlink:href="#C0_2_b7966deb1a" y="72.0"/>
    </g>
   </g>
  </g>
 </g>
 <defs>
  <clipPath id="p1bffca34e9">
   <rect height="72.0" width="72.0" x="0.0" y="0.0"/>
  </clipPath>
 </defs>
</svg>
