<?xml version="1.0" encoding="utf-8" standalone="no"?>
<!DOCTYPE svg PUBLIC "-//W3C//DTD SVG 1.1//EN"
  "http://www.w3.org/Graphics/SVG/1.1/DTD/svg11.dtd">
<!-- Created with matplotlib (http://matplotlib.org/) -->
<svg height="72pt" version="1.1" viewBox="0 0 72 72" width="72pt" xmlns="http://www.w3.org/2000/svg" xmlns:xlink="http://www.w3.org/1999/xlink">
 <defs>
  <style type="text/css">
*{stroke-linecap:butt;stroke-linejoin:round;}
  </style>
 </defs>
 <g id="figure_1">
  <g id="patch_1">
   <path d="
M0 72
L72 72
L72 0
L0 0
z
" style="fill:none;"/>
  </g>
  <g id="axes_1">
   <g id="PatchCollection_1">
    <defs>
     <path d="
M36 -7.5
C43.5583 -7.5 50.808 -10.5029 56.1525 -15.8475
C61.4971 -21.192 64.5 -28.4417 64.5 -36
C64.5 -43.5583 61.4971 -50.808 56.1525 -56.1525
C50.808 -61.4971 43.5583 -64.5 36 -64.5
C28.4417 -64.5 21.192 -61.4971 15.8475 -56.1525
C10.5029 -50.808 7.5 -43.5583 7.5 -36
C7.5 -28.4417 10.5029 -21.192 15.8475 -15.8475
C21.192 -10.5029 28.4417 -7.5 36 -7.5
z
" id="C0_0_a811fe30f3"/>
     <path d="
M10.4667 -48.2211
L10.7395 -48.2784
L11.0086 -48.3151
L11.2738 -48.3314
L11.5349 -48.3278
L11.7917 -48.3051
L12.0443 -48.2637
L12.2926 -48.2046
L12.5368 -48.1284
L12.777 -48.0361
L13.0133 -47.9286
L13.2459 -47.8067
L13.4751 -47.6716
L13.7011 -47.524
L13.9241 -47.3649
L14.1443 -47.1952
L14.362 -47.0158
L14.5775 -46.8276
L14.7909 -46.6314
L15.0024 -46.4279
L15.2123 -46.2178
L15.4206 -46.002
L15.6277 -45.7809
L15.8335 -45.5553
L16.0383 -45.3257
L16.2421 -45.0926
L16.4451 -44.8565
L16.6472 -44.6179
L16.8487 -44.3772
L17.0496 -44.1347
L17.2498 -43.8908
L17.4495 -43.6458
L17.6487 -43.4001
L17.8474 -43.1539
L18.0457 -42.9074
L18.2435 -42.6609
L18.4408 -42.4146
L18.6378 -42.1686
L18.8343 -41.9231
L19.0304 -41.6783
L19.2261 -41.4342
L19.4214 -41.1911
L19.6162 -40.949
L19.8107 -40.708
L20.0047 -40.4682
L20.1983 -40.2296
L20.3915 -39.9924
L20.5843 -39.7565
L20.7767 -39.5221
L20.9686 -39.2891
L21.1601 -39.0575
L21.3512 -38.8275
L21.5419 -38.599
L21.7321 -38.372
L21.922 -38.1466
L22.1114 -37.9227
L22.3005 -37.7003
L22.4892 -37.4795
L22.6775 -37.2602
L22.8654 -37.0424
L23.053 -36.8261
L23.2403 -36.6112
L23.4272 -36.3979
L23.6138 -36.1859
L23.8002 -35.9754
L23.9862 -35.7663
L24.172 -35.5585
L24.3576 -35.3521
L24.5429 -35.147
L24.7281 -34.9431
L24.913 -34.7405
L25.0979 -34.5391
L25.2826 -34.3389
L25.4671 -34.1399
L25.6516 -33.9419
L25.8361 -33.745
L26.0205 -33.5492
L26.2049 -33.3544
L26.3894 -33.1605
L26.5739 -32.9676
L26.7585 -32.7756
L26.9432 -32.5844
L27.128 -32.3941
L27.313 -32.2046
L27.4983 -32.0158
L27.6837 -31.8278
L27.8694 -31.6404
L28.0554 -31.4537
L28.2418 -31.2677
L28.4285 -31.0822
L28.6156 -30.8972
L28.9911 -30.7128
L29.1796 -30.5288
L29.3687 -30.3453
L29.5583 -30.1622
L29.7485 -29.9795
L29.9394 -29.7971
L30.1309 -29.615
L30.3231 -29.4333
L30.5161 -29.2517
L30.7099 -29.0704
L30.9045 -28.8892
L31.0999 -28.7082
L31.2963 -28.5274
L31.4936 -28.3466
L31.6918 -28.1659
L31.8911 -27.9852
L32.0914 -27.8045
L32.2927 -27.6237
L32.4952 -27.443
L32.6989 -27.2621
L32.9037 -27.0812
L33.1098 -26.9001
L33.3171 -26.7188
L33.5257 -26.5373
L33.7356 -26.3557
L33.9469 -26.1738
L34.1595 -25.9917
L34.3736 -25.8092
L34.5892 -25.6265
L34.8062 -25.4435
L35.0247 -25.2601
L35.2448 -25.0763
L35.4664 -24.8922
L35.6896 -24.7077
L35.9144 -24.5228
L36.1408 -24.3374
L36.3688 -24.1516
L36.5985 -23.9654
L36.8298 -23.7787
L37.0628 -23.5915
L37.2974 -23.4038
L37.5337 -23.2157
L37.7716 -23.027
L38.0111 -22.8378
L38.2523 -22.6482
L38.495 -22.4579
L38.7392 -22.2672
L38.985 -22.0759
L39.2322 -21.8841
L39.4809 -21.6918
L39.7308 -21.4989
L39.982 -21.3055
L40.2344 -21.1116
L40.4878 -20.9171
L40.7422 -20.7221
L40.9975 -20.5265
L41.2534 -20.3303
L41.5098 -20.1336
L41.7666 -19.9364
L42.0236 -19.7385
L42.2805 -19.5401
L42.5371 -19.341
L42.7932 -19.1413
L43.0484 -18.9409
L43.3024 -18.7398
L43.555 -18.538
L43.8057 -18.3353
L44.0542 -18.1318
L44.3 -17.9274
L44.5426 -17.722
L44.7816 -17.5154
L45.0163 -17.3076
L45.2462 -17.0985
L45.4708 -16.8879
L45.6892 -16.6757
L45.9009 -16.4617
L46.1051 -16.2457
L46.301 -16.0276
L46.4878 -15.8071
L46.6647 -15.584
L46.8307 -15.358
L46.9852 -15.1291
L47.127 -14.8969
L47.2555 -14.6611
L47.3696 -14.4218
L47.4687 -14.1785
L47.5518 -13.9312
L47.6181 -13.6798
L47.6672 -13.4241
L47.6982 -13.1642
L47.7106 -12.9001
L47.7041 -12.6318
L47.6783 -12.3595
L47.6329 -12.0835
L47.5679 -11.804
L47.4831 -11.5213
L47.3787 -11.2359
L47.2548 -10.9482
L47.1117 -10.6587
L46.9496 -10.368
L46.769 -10.0766
L46.3678 -9.78507
L45.9029 -9.45269
L45.435 -9.2758
L44.9642 -9.10704
L44.4907 -8.94647
L44.0146 -8.79414
L43.536 -8.6501
L43.0552 -8.5144
L42.5722 -8.38706
L42.0872 -8.26814
L41.6004 -8.15766
L41.1118 -8.05566
L40.6217 -7.96218
L40.1302 -7.87724
L39.6374 -7.80086
L39.1435 -7.73307
L38.6487 -7.6739
L38.1531 -7.62335
L37.6568 -7.58144
L37.16 -7.5482
L36.6628 -7.52362
L36.1654 -7.50771
L35.668 -7.50048
L35.1707 -7.50193
L34.6737 -7.51207
L34.177 -7.53088
L33.6809 -7.55836
L33.1855 -7.59451
L32.691 -7.63931
L32.1975 -7.69275
L31.7051 -7.75481
L31.214 -7.82548
L30.7244 -7.90472
L30.2364 -7.99253
L29.7502 -8.08887
L29.2659 -8.19371
L28.7836 -8.30701
L28.3035 -8.42876
L27.8258 -8.5589
L27.3505 -8.6974
L26.8779 -8.84422
L26.4081 -8.99931
L25.9411 -9.16263
L25.4773 -9.33412
L25.0166 -9.51373
L24.5593 -9.70141
L24.1055 -9.8971
L23.6553 -10.1007
L23.2089 -10.3123
L22.7664 -10.5316
L22.3279 -10.7587
L21.8935 -10.9936
L21.4635 -11.236
L21.0379 -11.4859
L20.6168 -11.7434
L20.2004 -12.0082
L19.7889 -12.2803
L19.3822 -12.5597
L18.9807 -12.8462
L18.5843 -13.1397
L18.1932 -13.4402
L17.8076 -13.7476
L17.4275 -14.0618
L17.053 -14.3826
L16.6844 -14.71
L16.3216 -15.0439
L15.9648 -15.3842
L15.6141 -15.7308
L15.2696 -16.0836
L14.9314 -16.4424
L14.5997 -16.8072
L14.2744 -17.1778
L13.9558 -17.5541
L13.6439 -17.9361
L13.3388 -18.3236
L13.0406 -18.7164
L12.7495 -19.1146
L12.4653 -19.5178
L12.1884 -19.9261
L11.9187 -20.3393
L11.6564 -20.7573
L11.4014 -21.1799
L11.154 -21.607
L10.9141 -22.0385
L10.6819 -22.4742
L10.4573 -22.9141
L10.2406 -23.3579
L10.0317 -23.8056
L9.8307 -24.2571
L9.63768 -24.7121
L9.45269 -25.1705
L9.2758 -25.6322
L9.10704 -26.0971
L8.94647 -26.565
L8.79414 -27.0358
L8.6501 -27.5093
L8.5144 -27.9854
L8.38706 -28.464
L8.26814 -28.9448
L8.15766 -29.4278
L8.05566 -29.9128
L7.96218 -30.3996
L7.87724 -30.8882
L7.80086 -31.3783
L7.73307 -31.8698
L7.6739 -32.3626
L7.62335 -32.8565
L7.58144 -33.3513
L7.5482 -33.8469
L7.52362 -34.3432
L7.50771 -34.84
L7.50048 -35.3372
L7.50193 -35.8346
L7.51207 -36.332
L7.53088 -36.8293
L7.55836 -37.3263
L7.59451 -37.823
L7.63931 -38.3191
L7.69275 -38.8145
L7.75481 -39.309
L7.82548 -39.8025
L7.90472 -40.2949
L7.99253 -40.786
L8.08887 -41.2756
L8.19371 -41.7636
L8.30701 -42.2498
L8.42876 -42.7341
L8.5589 -43.2164
L8.6974 -43.6965
L8.84422 -44.1742
L8.99931 -44.6495
L9.16263 -45.1221
L9.33412 -45.5919
L9.51373 -46.0589
L9.70141 -46.5227
L9.8971 -46.9834
z
" id="C0_1_598240d069"/>
     <path d="
M25.4563 -62.4394
L25.81 -62.3714
L26.1707 -62.3046
L26.5374 -62.2383
L26.9095 -62.172
L27.2862 -62.1052
L27.6668 -62.0376
L28.0507 -61.9688
L28.4371 -61.8983
L28.8254 -61.826
L29.2152 -61.7515
L29.6059 -61.6747
L29.9971 -61.5954
L30.3881 -61.5133
L30.7788 -61.4284
L31.1686 -61.3406
L31.5571 -61.2498
L31.9442 -61.1559
L32.3295 -61.059
L32.7127 -60.959
L33.0936 -60.8559
L33.472 -60.7497
L33.8476 -60.6404
L34.2204 -60.5282
L34.5901 -60.413
L34.9567 -60.2948
L35.32 -60.1738
L35.6799 -60.05
L36.0364 -59.9235
L36.3893 -59.7943
L36.7386 -59.6624
L37.0843 -59.5281
L37.4264 -59.3913
L37.7647 -59.2521
L38.0994 -59.1106
L38.4303 -58.9669
L38.7575 -58.8209
L39.0811 -58.6729
L39.4009 -58.5228
L39.7171 -58.3706
L40.0296 -58.2166
L40.3386 -58.0607
L40.644 -57.9029
L40.9458 -57.7434
L41.2441 -57.5821
L41.539 -57.4192
L41.8305 -57.2546
L42.1186 -57.0884
L42.4034 -56.9207
L42.685 -56.7514
L42.9634 -56.5806
L43.2386 -56.4083
L43.5107 -56.2346
L43.7798 -56.0594
L44.0459 -55.8828
L44.3091 -55.7049
L44.5694 -55.5256
L44.8269 -55.3448
L45.0817 -55.1628
L45.3337 -54.9794
L45.5831 -54.7946
L45.83 -54.6085
L46.0743 -54.421
L46.3161 -54.2322
L46.5555 -54.0421
L46.7925 -53.8505
L47.0272 -53.6576
L47.2596 -53.4634
L47.4898 -53.2677
L47.7178 -53.0707
L47.9437 -52.8722
L48.1676 -52.6722
L48.3893 -52.4708
L48.6092 -52.268
L48.827 -52.0636
L49.043 -51.8577
L49.257 -51.6502
L49.4693 -51.4411
L49.6798 -51.2305
L49.8885 -51.0182
L50.0955 -50.8042
L50.3009 -50.5885
L50.5045 -50.371
L50.7066 -50.1518
L50.9071 -49.9307
L51.106 -49.7078
L51.3033 -49.483
L51.4992 -49.2562
L51.6936 -49.0274
L51.8865 -48.7966
L52.0779 -48.5638
L52.2679 -48.3288
L52.4566 -48.0916
L52.6438 -47.8523
L52.8296 -47.6106
L53.014 -47.3667
L53.1971 -47.1203
L53.3788 -46.8716
L53.5591 -46.6204
L53.7381 -46.3666
L53.9158 -46.1103
L54.092 -45.8514
L54.2669 -45.5897
L54.4405 -45.3254
L54.6126 -45.0582
L54.7834 -44.7882
L54.9528 -44.5152
L55.1207 -44.2394
L55.2873 -43.9605
L55.4523 -43.6785
L55.6159 -43.3935
L55.778 -43.1053
L55.9385 -42.8138
L56.0975 -42.5191
L56.2549 -42.2211
L56.4106 -41.9198
L56.5647 -41.6151
L56.717 -41.3069
L56.8676 -40.9953
L57.0164 -40.6802
L57.1633 -40.3615
L57.3083 -40.0394
L57.4514 -39.7136
L57.5925 -39.3843
L57.7315 -39.0515
L57.8683 -38.715
L58.003 -38.375
L58.1355 -38.0314
L58.2656 -37.6843
L58.3934 -37.3338
L58.5188 -36.9797
L58.6417 -36.6223
L58.7621 -36.2616
L58.8799 -35.8976
L58.9951 -35.5305
L59.1076 -35.1604
L59.2174 -34.7874
L59.3245 -34.4116
L59.4289 -34.0332
L59.5304 -33.6525
L59.6293 -33.2695
L59.7253 -32.8846
L59.8187 -32.4979
L59.9093 -32.1099
L59.9974 -31.7207
L60.0829 -31.3307
L60.166 -30.9403
L60.2468 -30.5498
L60.3255 -30.1598
L60.4023 -29.7706
L60.4774 -29.3827
L60.551 -28.9968
L60.6235 -28.6132
L60.6952 -28.2327
L60.7665 -27.8558
L60.8377 -27.4832
L60.9094 -27.1156
L60.9819 -26.7538
L61.0559 -26.3983
L61.1319 -26.0501
L61.2104 -25.7098
L61.292 -25.3782
L61.3773 -25.0561
L61.4669 -24.7442
L61.5615 -24.4433
L61.6614 -24.154
L61.9963 -23.8771
L62.1962 -24.3191
L62.3881 -24.7746
L62.572 -25.2335
L62.7478 -25.6957
L62.9154 -26.161
L63.0749 -26.6293
L63.2261 -27.1004
L63.369 -27.5743
L63.5035 -28.0508
L63.6297 -28.5296
L63.7475 -29.0108
L63.8568 -29.494
L63.9576 -29.9793
L64.0499 -30.4664
L64.1337 -30.9551
L64.2089 -31.4455
L64.2755 -31.9371
L64.3335 -32.4301
L64.3829 -32.9241
L64.4236 -33.4191
L64.4557 -33.9148
L64.4791 -34.4112
L64.4938 -34.908
L64.4998 -35.4052
L64.4972 -35.9026
L64.4859 -36.4
L64.4659 -36.8973
L64.4372 -37.3943
L64.3999 -37.8909
L64.3539 -38.3869
L64.2993 -38.8822
L64.236 -39.3766
L64.1642 -39.87
L64.0838 -40.3622
L63.9948 -40.853
L63.8973 -41.3424
L63.7913 -41.8302
L63.6768 -42.3162
L63.5539 -42.8002
L63.4226 -43.2822
L63.283 -43.762
L63.135 -44.2394
L62.9788 -44.7143
L62.8144 -45.1866
L62.6418 -45.656
L62.4611 -46.1225
L62.2723 -46.5859
L62.0755 -47.0461
L61.8708 -47.503
L61.6582 -47.9563
L61.4378 -48.406
L61.2096 -48.8519
L60.9737 -49.2939
L60.7303 -49.7318
L60.4793 -50.1656
L60.2208 -50.595
L59.955 -51.02
L59.6819 -51.4404
L59.4016 -51.8562
L59.1141 -52.2671
L58.8196 -52.673
L58.5181 -53.0738
L58.2098 -53.4695
L57.8947 -53.8598
L57.573 -54.2447
L57.2447 -54.6241
L56.9099 -54.9977
L56.5687 -55.3656
L56.2213 -55.7276
L55.8677 -56.0836
L55.5081 -56.4334
L55.1425 -56.777
L54.7711 -57.1143
L54.3939 -57.4452
L54.0112 -57.7695
L53.623 -58.0872
L53.2294 -58.3982
L52.8306 -58.7024
L52.4266 -58.9996
L52.0176 -59.2898
L51.6038 -59.573
L51.1852 -59.8489
L50.762 -60.1176
L50.3343 -60.379
L49.9022 -60.6329
L49.4659 -60.8793
L49.0254 -61.1181
L48.581 -61.3493
L48.1328 -61.5728
L47.6809 -61.7885
L47.2254 -61.9963
L46.7665 -62.1962
L46.3043 -62.3881
L45.839 -62.572
L45.3707 -62.7478
L44.8996 -62.9154
L44.4257 -63.0749
L43.9492 -63.2261
L43.4704 -63.369
L42.9892 -63.5035
L42.506 -63.6297
L42.0207 -63.7475
L41.5336 -63.8568
L41.0449 -63.9576
L40.5545 -64.0499
L40.0629 -64.1337
L39.5699 -64.2089
L39.0759 -64.2755
L38.5809 -64.3335
L38.0852 -64.3829
L37.5888 -64.4236
L37.092 -64.4557
L36.5948 -64.4791
L36.0974 -64.4938
L35.6 -64.4998
L35.1027 -64.4972
L34.6057 -64.4859
L34.1091 -64.4659
L33.6131 -64.4372
L33.1178 -64.3999
L32.6234 -64.3539
L32.13 -64.2993
L31.6378 -64.236
L31.147 -64.1642
L30.6576 -64.0838
L30.1698 -63.9948
L29.6838 -63.8973
L29.1998 -63.7913
L28.7178 -63.6768
L28.238 -63.5539
L27.7606 -63.4226
L27.2857 -63.283
L26.8134 -63.135
L26.344 -62.9788
z
" id="C0_2_bbd8f11359"/>
    </defs>
    <g clip-path="url(#p1bffca34e9)">
     <use style="fill:#ff0000;stroke:#000000;stroke-width:2.0;" x="0.0" xlink:href="#C0_0_a811fe30f3" y="72.0"/>
    </g>
    <g clip-path="url(#p1bffca34e9)">
     <use style="fill:#ffffff;stroke:#000000;stroke-width:2.0;" x="0.0" xlink:href="#C0_1_598240d069" y="72.0"/>
    </g>
    <g clip-path="url(#p1bffca34e9)">
     <use style="fill:#ffffff;stroke:#000000;stroke-width:2.0;" x="0.0" xlink:href="#C0_2_bbd8f11359" y="72.0"/>
    </g>
   </g>
  </g>
 </g>
 <defs>
  <clipPath id="p1bffca34e9">
   <rect height="72.0" width="72.0" x="0.0" y="0.0"/>
  </clipPath>
 </defs>
</svg>
