<?xml version="1.0" encoding="utf-8" standalone="no"?>
<!DOCTYPE svg PUBLIC "-//W3C//DTD SVG 1.1//EN"
  "http://www.w3.org/Graphics/SVG/1.1/DTD/svg11.dtd">
<!-- Created with matplotlib (http://matplotlib.org/) -->
<svg height="72pt" version="1.1" viewBox="0 0 72 72" width="72pt" xmlns="http://www.w3.org/2000/svg" xmlns:xlink="http://www.w3.org/1999/xlink">
 <defs>
  <style type="text/css">
*{stroke-linecap:butt;stroke-linejoin:round;}
  </style>
 </defs>
 <g id="figure_1">
  <g id="patch_1">
   <path d="
M0 72
L72 72
L72 0
L0 0
z
" style="fill:none;"/>
  </g>
  <g id="axes_1">
   <g id="PatchCollection_1">
    <defs>
     <path d="
M36 -7.5
C43.5583 -7.5 50.808 -10.5029 56.1525 -15.8475
C61.4971 -21.192 64.5 -28.4417 64.5 -36
C64.5 -43.5583 61.4971 -50.808 56.1525 -56.1525
C50.808 -61.4971 43.5583 -64.5 36 -64.5
C28.4417 -64.5 21.192 -61.4971 15.8475 -56.1525
C10.5029 -50.808 7.5 -43.5583 7.5 -36
C7.5 -28.4417 10.5029 -21.192 15.8475 -15.8475
C21.192 -10.5029 28.4417 -7.5 36 -7.5
z
" id="C0_0_a811fe30f3"/>
     <path d="
M24.7952 -62.0258
L24.802 -61.7226
L24.7946 -61.407
L24.7762 -61.081
L24.7496 -60.7463
L24.717 -60.4043
L24.6804 -60.0562
L24.6412 -59.7032
L24.6006 -59.3463
L24.5595 -58.9861
L24.5189 -58.6235
L24.4793 -58.259
L24.4411 -57.8933
L24.4049 -57.5269
L24.3708 -57.16
L24.3391 -56.7933
L24.31 -56.427
L24.2835 -56.0614
L24.2598 -55.6968
L24.2389 -55.3335
L24.2209 -54.9717
L24.2056 -54.6116
L24.1932 -54.2534
L24.1835 -53.8972
L24.1765 -53.5432
L24.1722 -53.1915
L24.1706 -52.8422
L24.1714 -52.4954
L24.1747 -52.1511
L24.1804 -51.8095
L24.1885 -51.4706
L24.1988 -51.1345
L24.2112 -50.801
L24.2258 -50.4704
L24.2424 -50.1426
L24.2609 -49.8175
L24.2814 -49.4953
L24.3036 -49.1759
L24.3276 -48.8592
L24.3533 -48.5453
L24.3806 -48.2342
L24.4095 -47.9257
L24.4399 -47.6199
L24.4718 -47.3168
L24.505 -47.0162
L24.5396 -46.7182
L24.5756 -46.4227
L24.6128 -46.1296
L24.6512 -45.8389
L24.6908 -45.5506
L24.7316 -45.2646
L24.7735 -44.9808
L24.8164 -44.6991
L24.8604 -44.4196
L24.9055 -44.1421
L24.9516 -43.8666
L24.9986 -43.5931
L25.0466 -43.3214
L25.0955 -43.0515
L25.1454 -42.7834
L25.1962 -42.5169
L25.2478 -42.2521
L25.3003 -41.9887
L25.3538 -41.7269
L25.408 -41.4665
L25.4631 -41.2075
L25.5191 -40.9497
L25.5759 -40.6931
L25.6335 -40.4378
L25.692 -40.1835
L25.7513 -39.9302
L25.8115 -39.678
L25.8725 -39.4266
L25.9343 -39.1761
L25.997 -38.9263
L26.0605 -38.6773
L26.1249 -38.4289
L26.1902 -38.1811
L26.2563 -37.9339
L26.3233 -37.6871
L26.3912 -37.4407
L26.4601 -37.1947
L26.6005 -36.9489
L26.6721 -36.7034
L26.7448 -36.4581
L26.8184 -36.2128
L26.893 -35.9676
L26.9686 -35.7223
L27.0453 -35.477
L27.1231 -35.2316
L27.202 -34.9859
L27.282 -34.74
L27.3631 -34.4938
L27.4454 -34.2472
L27.529 -34.0001
L27.6137 -33.7526
L27.6998 -33.5045
L27.7871 -33.2558
L27.8757 -33.0064
L27.9657 -32.7563
L28.0572 -32.5054
L28.15 -32.2537
L28.2443 -32.001
L28.3402 -31.7474
L28.4375 -31.4928
L28.5365 -31.2371
L28.6371 -30.9803
L28.7394 -30.7223
L28.8435 -30.463
L28.9492 -30.2025
L29.0569 -29.9406
L29.1664 -29.6774
L29.2778 -29.4127
L29.3911 -29.1465
L29.5065 -28.8787
L29.624 -28.6094
L29.7436 -28.3384
L29.8654 -28.0657
L29.9894 -27.7913
L30.1158 -27.5152
L30.2445 -27.2372
L30.3756 -26.9574
L30.5092 -26.6758
L30.6453 -26.3922
L30.784 -26.1067
L30.9254 -25.8192
L31.0695 -25.5298
L31.2163 -25.2384
L31.366 -24.945
L31.5186 -24.6495
L31.6741 -24.3521
L31.8326 -24.0527
L31.9941 -23.7512
L32.1588 -23.4478
L32.3265 -23.1424
L32.4975 -22.8351
L32.6716 -22.5259
L32.849 -22.2148
L33.0296 -21.9019
L33.2136 -21.5873
L33.4008 -21.271
L33.5912 -20.9531
L33.7849 -20.6338
L33.9819 -20.313
L34.182 -19.9909
L34.3852 -19.6676
L34.5914 -19.3433
L34.8005 -19.0181
L35.0124 -18.6922
L35.2268 -18.3657
L35.4436 -18.0387
L35.6624 -17.7115
L35.883 -17.3844
L36.105 -17.0573
L36.328 -16.7307
L36.5512 -16.4047
L36.7742 -16.0796
L36.9961 -15.7556
L37.216 -15.4328
L37.4326 -15.1117
L37.6448 -14.7924
L37.8507 -14.4752
L38.0485 -14.1603
L38.2358 -13.8479
L38.4098 -13.5383
L38.5672 -13.2317
L38.7042 -12.9283
L38.8164 -12.6283
L38.8992 -12.3319
L38.9475 -12.0393
L38.9566 -11.7507
L38.9223 -11.4664
L38.8415 -11.1868
L38.7125 -10.9123
L38.5354 -10.6436
L38.3119 -10.3812
L38.0449 -10.126
L37.7381 -9.87867
L37.3959 -9.64005
L37.0223 -9.41085
L36.6214 -9.19175
L36.1969 -8.98333
L35.7521 -8.78611
L35.2899 -8.60053
L34.8128 -8.42697
L34.3231 -8.2657
L33.8227 -8.11698
L33.3133 -7.98099
L32.7964 -7.85787
L32.2952 -7.74769
L31.8026 -7.74183
L31.3112 -7.81079
L30.8213 -7.88834
L30.333 -7.97445
L29.8464 -8.0691
L29.3617 -8.17226
L28.879 -8.28389
L28.3984 -8.40397
L27.9202 -8.53245
L27.4445 -8.6693
L26.9713 -8.81447
L26.5009 -8.96793
L26.0334 -9.12962
L25.5689 -9.29949
L25.1077 -9.4775
L24.6497 -9.66358
L24.1952 -9.85769
L23.7442 -10.0598
L23.2971 -10.2697
L22.8537 -10.4875
L22.4144 -10.7131
L21.9792 -10.9464
L21.5483 -11.1873
L21.1218 -11.4358
L20.6999 -11.6918
L20.2826 -11.9551
L19.87 -12.2258
L19.4624 -12.5037
L19.0598 -12.7888
L18.6624 -13.081
L18.2703 -13.3801
L17.8836 -13.6861
L17.5024 -13.999
L17.1268 -14.3185
L16.757 -14.6446
L16.393 -14.9773
L16.035 -15.3163
L15.6831 -15.6616
L15.3374 -16.0132
L14.9979 -16.3708
L14.6649 -16.7344
L14.3384 -17.1039
L14.0184 -17.4791
L13.7052 -17.86
L13.3987 -18.2464
L13.0992 -18.6382
L12.8066 -19.0353
L12.5211 -19.4375
L12.2427 -19.8448
L11.9716 -20.257
L11.7078 -20.6741
L11.4513 -21.0958
L11.2024 -21.522
L10.961 -21.9526
L10.7273 -22.3875
L10.5012 -22.8266
L10.2829 -23.2697
L10.0725 -23.7166
L9.86989 -24.1673
L9.67529 -24.6216
L9.48871 -25.0794
L9.3102 -25.5405
L9.13983 -26.0048
L8.97763 -26.4721
L8.82367 -26.9423
L8.67799 -27.4153
L8.54062 -27.8909
L8.41163 -28.369
L8.29103 -28.8494
L8.17888 -29.3319
L8.0752 -29.8165
L7.98003 -30.303
L7.89339 -30.7912
L7.81531 -31.2811
L7.74582 -31.7723
L7.68494 -32.2648
L7.63268 -32.7585
L7.58906 -33.2532
L7.5541 -33.7487
L7.5278 -34.2448
L7.51017 -34.7416
L7.50122 -35.2387
L7.50096 -35.736
L7.50937 -36.2334
L7.52646 -36.7308
L7.55223 -37.2279
L7.58666 -37.7246
L7.62975 -38.2208
L7.68147 -38.7164
L7.74183 -39.2111
L7.81079 -39.7048
L7.88834 -40.1974
L7.97445 -40.6888
L8.0691 -41.1787
L8.17226 -41.667
L8.28389 -42.1536
L8.40397 -42.6383
L8.53245 -43.121
L8.6693 -43.6016
L8.81447 -44.0798
L8.96793 -44.5555
L9.12962 -45.0287
L9.29949 -45.4991
L9.4775 -45.9666
L9.66358 -46.4311
L9.85769 -46.8923
L10.0598 -47.3503
L10.2697 -47.8048
L10.4875 -48.2558
L10.7131 -48.7029
L10.9464 -49.1463
L11.1873 -49.5856
L11.4358 -50.0208
L11.6918 -50.4517
L11.9551 -50.8782
L12.2258 -51.3001
L12.5037 -51.7174
L12.7888 -52.13
L13.081 -52.5376
L13.3801 -52.9402
L13.6861 -53.3376
L13.999 -53.7297
L14.3185 -54.1164
L14.6446 -54.4976
L14.9773 -54.8732
L15.3163 -55.243
L15.6616 -55.607
L16.0132 -55.965
L16.3708 -56.3169
L16.7344 -56.6626
L17.1039 -57.0021
L17.4791 -57.3351
L17.86 -57.6616
L18.2464 -57.9816
L18.6382 -58.2948
L19.0353 -58.6013
L19.4375 -58.9008
L19.8448 -59.1934
L20.257 -59.4789
L20.6741 -59.7573
L21.0958 -60.0284
L21.522 -60.2922
L21.9526 -60.5487
L22.3875 -60.7976
L22.8266 -61.039
L23.2697 -61.2727
L23.7166 -61.4988
L24.1673 -61.7171
z
" id="C0_1_d911f1a581"/>
     <path d="
M39.7022 -64.164
L40.1802 -63.9366
L40.6517 -63.7025
L41.116 -63.462
L41.5728 -63.2155
L42.0214 -62.9633
L42.4616 -62.7058
L42.8931 -62.4432
L43.3157 -62.176
L43.7293 -61.9044
L44.1338 -61.629
L44.529 -61.3499
L44.9151 -61.0675
L45.2919 -60.7821
L45.6596 -60.4941
L46.0183 -60.2037
L46.3679 -59.9111
L46.7087 -59.6167
L47.0407 -59.3207
L47.364 -59.0234
L47.6789 -58.7248
L47.9855 -58.4253
L48.2838 -58.125
L48.5742 -57.8242
L48.8568 -57.5228
L49.1316 -57.2212
L49.399 -56.9194
L49.6591 -56.6176
L49.912 -56.3159
L50.158 -56.0143
L50.3971 -55.713
L50.6297 -55.412
L50.8558 -55.1115
L51.0756 -54.8114
L51.2893 -54.5119
L51.497 -54.2129
L51.699 -53.9146
L51.8953 -53.6169
L52.0861 -53.3199
L52.2715 -53.0236
L52.4518 -52.728
L52.627 -52.4331
L52.7973 -52.1389
L52.9628 -51.8454
L53.1236 -51.5527
L53.2798 -51.2607
L53.4316 -50.9693
L53.5791 -50.6787
L53.7224 -50.3887
L53.8616 -50.0993
L53.9968 -49.8105
L54.1281 -49.5224
L54.2555 -49.2347
L54.3793 -48.9476
L54.4994 -48.6609
L54.6159 -48.3747
L54.729 -48.0889
L54.8387 -47.8035
L54.945 -47.5184
L55.0481 -47.2335
L55.148 -46.9489
L55.2447 -46.6645
L55.3384 -46.3801
L55.429 -46.0959
L55.5166 -45.8117
L55.6013 -45.5275
L55.6831 -45.2432
L55.7621 -44.9588
L55.8383 -44.6742
L55.9116 -44.3894
L55.9823 -44.1043
L56.0502 -43.8188
L56.1154 -43.5329
L56.178 -43.2466
L56.2379 -42.9597
L56.2951 -42.6723
L56.3497 -42.3842
L56.4018 -42.0954
L56.4512 -41.8058
L56.498 -41.5154
L56.5422 -41.2241
L56.5838 -40.9318
L56.6228 -40.6386
L56.6592 -40.3442
L56.693 -40.0487
L56.7241 -39.752
L56.7525 -39.454
L56.7783 -39.1547
L56.8014 -38.8539
L56.8217 -38.5517
L56.8393 -38.2479
L56.8541 -37.9426
L56.8661 -37.6355
L56.8752 -37.3267
L56.8813 -37.0161
L56.8845 -36.7036
L56.8847 -36.3892
L56.8818 -36.0728
L56.8758 -35.7543
L56.8666 -35.4337
L56.8541 -35.1109
L56.8383 -34.7858
L56.8191 -34.4584
L56.7964 -34.1286
L56.7702 -33.7964
L56.7402 -33.4617
L56.7066 -33.1244
L56.669 -32.7845
L56.6276 -32.442
L56.582 -32.0968
L56.5324 -31.7488
L56.4784 -31.398
L56.4201 -31.0445
L56.3572 -30.688
L56.2897 -30.3287
L56.2174 -29.9664
L56.1402 -29.6012
L56.0579 -29.2331
L55.9705 -28.862
L55.8777 -28.488
L55.7794 -28.111
L55.6755 -27.731
L55.5658 -27.3482
L55.4502 -26.9625
L55.3284 -26.574
L55.2004 -26.1827
L55.066 -25.7887
L54.925 -25.3921
L54.7773 -24.9929
L54.6227 -24.5913
L54.461 -24.1874
L54.2923 -23.7812
L54.1162 -23.3731
L53.9327 -22.9631
L53.7417 -22.5514
L53.5432 -22.1382
L53.3369 -21.7237
L53.123 -21.3083
L52.9013 -20.892
L52.6718 -20.4753
L52.4347 -20.0583
L52.19 -19.6415
L51.9379 -19.2252
L51.6785 -18.8097
L51.4122 -18.3954
L51.1392 -17.9828
L50.8601 -17.5722
L50.5755 -17.1641
L50.2859 -16.7589
L49.9925 -16.3573
L49.6962 -15.9596
L49.3983 -15.5664
L49.1006 -15.1782
L48.8049 -14.7957
L48.5137 -14.4195
L48.2297 -14.0501
L47.9565 -13.6881
L47.6977 -13.3343
L47.4579 -12.9892
L47.2419 -12.6534
L47.0549 -12.3276
L46.9017 -12.0122
L46.7867 -11.7077
L46.7133 -11.4143
L46.6834 -11.1323
L46.697 -10.8615
L46.7528 -10.6019
L46.8481 -10.3534
L46.9794 -10.1158
L47.6421 -9.88889
L48.0944 -9.98633
L48.5429 -10.1935
L48.9876 -10.4085
L49.4284 -10.6313
L49.8651 -10.8618
L50.2975 -11.1
L50.7256 -11.3458
L51.1492 -11.5991
L51.5682 -11.8598
L51.9825 -12.1278
L52.3919 -12.4032
L52.7963 -12.6857
L53.1955 -12.9753
L53.5896 -13.272
L53.9783 -13.5755
L54.3615 -13.8859
L54.7391 -14.2031
L55.111 -14.5268
L55.4771 -14.8572
L55.8372 -15.1939
L56.1913 -15.537
L56.5393 -15.8863
L56.881 -16.2418
L57.2163 -16.6032
L57.5452 -16.9706
L57.8675 -17.3438
L58.1832 -17.7226
L58.4921 -18.1071
L58.7941 -18.4969
L59.0892 -18.8922
L59.3773 -19.2926
L59.6582 -19.6981
L59.932 -20.1086
L60.1984 -20.5239
L60.4575 -20.9439
L60.7091 -21.3685
L60.9532 -21.7976
L61.1897 -22.231
L61.4186 -22.6686
L61.6397 -23.1102
L61.8529 -23.5558
L62.0583 -24.0052
L62.2558 -24.4582
L62.4453 -24.9147
L62.6267 -25.3746
L62.8 -25.8378
L62.9651 -26.304
L63.122 -26.7732
L63.2707 -27.2453
L63.411 -27.7199
L63.543 -28.1971
L63.6667 -28.6767
L63.7818 -29.1585
L63.8886 -29.6424
L63.9868 -30.1282
L64.0765 -30.6159
L64.1577 -31.1051
L64.2302 -31.5959
L64.2942 -32.0879
L64.3496 -32.5812
L64.3963 -33.0755
L64.4344 -33.5708
L64.4638 -34.0667
L64.4845 -34.5633
L64.4966 -35.0602
L64.4999 -35.5575
L64.4946 -36.0549
L64.4807 -36.5523
L64.458 -37.0495
L64.4267 -37.5464
L64.3867 -38.0428
L64.3381 -38.5386
L64.2808 -39.0337
L64.2149 -39.5278
L64.1405 -40.0208
L64.0574 -40.5126
L63.9658 -41.003
L63.8657 -41.4919
L63.7571 -41.9792
L63.6401 -42.4646
L63.5146 -42.948
L63.3808 -43.4294
L63.2386 -43.9084
L63.0881 -44.3851
L62.9294 -44.8592
L62.7624 -45.3306
L62.5873 -45.7992
L62.4041 -46.2647
L62.2129 -46.7272
L62.0137 -47.1864
L61.8065 -47.6421
L61.5915 -48.0944
L61.3687 -48.5429
L61.1382 -48.9876
L60.9 -49.4284
L60.6542 -49.8651
L60.4009 -50.2975
L60.1402 -50.7256
L59.8722 -51.1492
L59.5968 -51.5682
L59.3143 -51.9825
L59.0247 -52.3919
L58.728 -52.7963
L58.4245 -53.1955
L58.1141 -53.5896
L57.7969 -53.9783
L57.4732 -54.3615
L57.1428 -54.7391
L56.8061 -55.111
L56.463 -55.4771
L56.1137 -55.8372
L55.7582 -56.1913
L55.3968 -56.5393
L55.0294 -56.881
L54.6562 -57.2163
L54.2774 -57.5452
L53.8929 -57.8675
L53.5031 -58.1832
L53.1078 -58.4921
L52.7074 -58.7941
L52.3019 -59.0892
L51.8914 -59.3773
L51.4761 -59.6582
L51.0561 -59.932
L50.6315 -60.1984
L50.2024 -60.4575
L49.769 -60.7091
L49.3314 -60.9532
L48.8898 -61.1897
L48.4442 -61.4186
L47.9948 -61.6397
L47.5418 -61.8529
L47.0853 -62.0583
L46.6254 -62.2558
L46.1622 -62.4453
L45.696 -62.6267
L45.2268 -62.8
L44.7547 -62.9651
L44.2801 -63.122
L43.8029 -63.2707
L43.3233 -63.411
L42.8415 -63.543
L42.3576 -63.6667
L41.8718 -63.7818
L41.3841 -63.8886
L40.8949 -63.9868
L40.4041 -64.0765
z
" id="C0_2_4cc3c196da"/>
    </defs>
    <g clip-path="url(#p1bffca34e9)">
     <use style="fill:#ff0000;stroke:#000000;stroke-width:2.0;" x="0.0" xlink:href="#C0_0_a811fe30f3" y="72.0"/>
    </g>
    <g clip-path="url(#p1bffca34e9)">
     <use style="fill:#ffffff;stroke:#000000;stroke-width:2.0;" x="0.0" xlink:href="#C0_1_d911f1a581" y="72.0"/>
    </g>
    <g clip-path="url(#p1bffca34e9)">
     <use style="fill:#ffffff;stroke:#000000;stroke-width:2.0;" x="0.0" xlink:href="#C0_2_4cc3c196da" y="72.0"/>
    </g>
   </g>
  </g>
 </g>
 <defs>
  <clipPath id="p1bffca34e9">
   <rect height="72.0" width="72.0" x="0.0" y="0.0"/>
  </clipPath>
 </defs>
</svg>
