<?xml version="1.0" encoding="utf-8" standalone="no"?>
<!DOCTYPE svg PUBLIC "-//W3C//DTD SVG 1.1//EN"
  "http://www.w3.org/Graphics/SVG/1.1/DTD/svg11.dtd">
<!-- Created with matplotlib (http://matplotlib.org/) -->
<svg height="72pt" version="1.1" viewBox="0 0 72 72" width="72pt" xmlns="http://www.w3.org/2000/svg" xmlns:xlink="http://www.w3.org/1999/xlink">
 <defs>
  <style type="text/css">
*{stroke-linecap:butt;stroke-linejoin:round;}
  </style>
 </defs>
 <g id="figure_1">
  <g id="patch_1">
   <path d="
M0 72
L72 72
L72 0
L0 0
z
" style="fill:none;"/>
  </g>
  <g id="axes_1">
   <g id="PatchCollection_1">
    <defs>
     <path d="
M36 -7.5
C43.5583 -7.5 50.808 -10.5029 56.1525 -15.8475
C61.4971 -21.192 64.5 -28.4417 64.5 -36
C64.5 -43.5583 61.4971 -50.808 56.1525 -56.1525
C50.808 -61.4971 43.5583 -64.5 36 -64.5
C28.4417 -64.5 21.192 -61.4971 15.8475 -56.1525
C10.5029 -50.808 7.5 -43.5583 7.5 -36
C7.5 -28.4417 10.5029 -21.192 15.8475 -15.8475
C21.192 -10.5029 28.4417 -7.5 36 -7.5
z
" id="C0_0_a811fe30f3"/>
     <path d="
M10.2057 -47.8673
L10.5128 -48.1355
L10.8217 -48.3822
L11.1317 -48.6067
L11.4418 -48.8083
L11.7513 -48.9865
L12.0594 -49.141
L12.3656 -49.2713
L12.6691 -49.3776
L12.9694 -49.4599
L13.2662 -49.5185
L13.5591 -49.554
L13.8479 -49.5669
L14.1324 -49.5581
L14.4126 -49.5285
L14.6885 -49.4791
L14.9602 -49.4111
L15.2279 -49.3256
L15.4916 -49.2239
L15.7517 -49.107
L16.0083 -48.9763
L16.2617 -48.8328
L16.5121 -48.6778
L16.7597 -48.5121
L17.0048 -48.337
L17.2474 -48.1533
L17.4879 -47.9619
L17.7263 -47.7637
L17.9629 -47.5594
L18.1976 -47.3498
L18.4308 -47.1354
L18.6624 -46.917
L18.8925 -46.6951
L19.1212 -46.4701
L19.3486 -46.2426
L19.5747 -46.013
L19.7996 -45.7816
L20.0232 -45.5488
L20.2456 -45.315
L20.4669 -45.0804
L20.687 -44.8452
L20.9059 -44.6098
L21.1238 -44.3744
L21.3405 -44.139
L21.556 -43.904
L21.7705 -43.6694
L21.9838 -43.4354
L22.196 -43.2022
L22.4072 -42.9698
L22.6172 -42.7383
L22.8261 -42.5078
L23.0339 -42.2784
L23.2406 -42.0501
L23.4463 -41.8231
L23.6509 -41.5973
L23.8544 -41.3728
L24.0568 -41.1496
L24.2583 -40.9277
L24.4587 -40.7072
L24.6581 -40.4881
L24.8564 -40.2703
L25.0539 -40.0539
L25.2503 -39.8389
L25.4458 -39.6253
L25.6404 -39.413
L25.8341 -39.2021
L26.0269 -38.9925
L26.2189 -38.7843
L26.41 -38.5773
L26.6003 -38.3717
L26.7899 -38.1672
L26.9787 -37.9641
L27.1668 -37.7621
L27.3542 -37.5613
L27.5409 -37.3616
L27.727 -37.1631
L27.9125 -36.9656
L28.0974 -36.7692
L28.2817 -36.5738
L28.4656 -36.3794
L28.649 -36.186
L28.8319 -35.9935
L29.0144 -35.8018
L29.1965 -35.611
L29.3783 -35.421
L29.5598 -35.2317
L29.741 -35.0432
L29.9219 -34.8554
L30.1027 -34.6682
L30.2833 -34.4817
L30.4637 -34.2957
L30.644 -34.1103
L30.8243 -33.9254
L31.0045 -33.741
L31.1848 -33.5569
L31.3651 -33.3733
L31.5454 -33.1901
L31.7259 -33.0071
L32.0873 -32.8244
L32.2684 -32.642
L32.4497 -32.4598
L32.6313 -32.2777
L32.8133 -32.0958
L32.9956 -31.9139
L33.1783 -31.7322
L33.3615 -31.5504
L33.5452 -31.3686
L33.7294 -31.1868
L33.9142 -31.0048
L34.0995 -30.8228
L34.2856 -30.6405
L34.4722 -30.4581
L34.6596 -30.2754
L34.8478 -30.0925
L35.0367 -29.9093
L35.2265 -29.7257
L35.4172 -29.5417
L35.6087 -29.3573
L35.8011 -29.1725
L35.9946 -28.9872
L36.189 -28.8014
L36.3845 -28.6151
L36.5811 -28.4281
L36.7787 -28.2406
L36.9775 -28.0524
L37.1775 -27.8635
L37.3787 -27.674
L37.581 -27.4837
L37.7847 -27.2926
L37.9896 -27.1008
L38.1959 -26.9081
L38.4034 -26.7146
L38.6123 -26.5203
L38.8226 -26.325
L39.0343 -26.1288
L39.2473 -25.9316
L39.4617 -25.7335
L39.6776 -25.5344
L39.8949 -25.3343
L40.1135 -25.1332
L40.3336 -24.931
L40.5551 -24.7278
L40.7779 -24.5235
L41.0021 -24.3181
L41.2276 -24.1116
L41.4544 -23.904
L41.6824 -23.6952
L41.9116 -23.4853
L42.1419 -23.2743
L42.3733 -23.0622
L42.6057 -22.8488
L42.8389 -22.6344
L43.0729 -22.4187
L43.3075 -22.2019
L43.5427 -21.984
L43.7782 -21.7648
L44.0139 -21.5445
L44.2495 -21.3231
L44.485 -21.1004
L44.72 -20.8766
L44.9543 -20.6515
L45.1876 -20.4253
L45.4195 -20.1978
L45.6498 -19.9691
L45.8781 -19.7391
L46.1038 -19.5079
L46.3266 -19.2752
L46.546 -19.0412
L46.7614 -18.8058
L46.9722 -18.5688
L47.1777 -18.3301
L47.3773 -18.0898
L47.5701 -17.8477
L47.7554 -17.6035
L47.9322 -17.3573
L48.0997 -17.1088
L48.2567 -16.8579
L48.4023 -16.6044
L48.5353 -16.348
L48.6547 -16.0885
L48.7591 -15.8258
L48.8475 -15.5597
L48.9186 -15.29
L48.9713 -15.0164
L49.0045 -14.739
L49.0172 -14.4575
L49.0085 -14.1721
L48.9776 -13.8828
L48.9239 -13.5896
L48.8468 -13.2929
L48.7461 -12.993
L48.6217 -12.6903
L48.4737 -12.3852
L48.3022 -12.0784
L48.1078 -11.7705
L47.8909 -11.4623
L47.6523 -11.1544
L47.3926 -10.8477
L47.1127 -10.543
L46.8135 -10.241
L46.4961 -9.94255
L46.0823 -9.6484
L45.6156 -9.34298
L45.1459 -9.17108
L44.6734 -9.00735
L44.1983 -8.85184
L43.7206 -8.70461
L43.2407 -8.56568
L42.7585 -8.43512
L42.2743 -8.31295
L41.7881 -8.19922
L41.3002 -8.09395
L40.8107 -7.99718
L40.3197 -7.90895
L39.8274 -7.82927
L39.3339 -7.75817
L38.8394 -7.69567
L38.3441 -7.6418
L37.848 -7.59656
L37.3514 -7.55998
L36.8543 -7.53206
L36.357 -7.51281
L35.8596 -7.50224
L35.3623 -7.50035
L34.8651 -7.50714
L34.3683 -7.52261
L33.8719 -7.54675
L33.3763 -7.57956
L32.8814 -7.62103
L32.3875 -7.67114
L31.8946 -7.72988
L31.403 -7.79724
L30.9129 -7.87318
L30.4242 -7.95769
L29.9373 -8.05075
L29.4522 -8.15231
L28.9691 -8.26236
L28.4882 -8.38086
L28.0095 -8.50778
L27.5333 -8.64306
L27.0596 -8.78668
L26.5887 -8.93859
L26.1206 -9.09874
L25.6556 -9.26709
L25.1937 -9.44358
L24.7351 -9.62816
L24.2799 -9.82077
L23.8283 -10.0214
L23.3804 -10.2299
L22.9364 -10.4462
L22.4963 -10.6703
L22.0603 -10.9022
L21.6286 -11.1417
L21.2013 -11.3888
L20.7785 -11.6433
L20.3603 -11.9053
L19.9468 -12.1746
L19.5383 -12.4512
L19.1348 -12.735
L18.7364 -13.0258
L18.3433 -13.3236
L17.9555 -13.6284
L17.5733 -13.9399
L17.1966 -14.2582
L16.8257 -14.5831
L16.4606 -14.9145
L16.1015 -15.2524
L15.7485 -15.5966
L15.4016 -15.947
L15.0609 -16.3034
L14.7267 -16.6659
L14.399 -17.0343
L14.0778 -17.4085
L13.7633 -17.7883
L13.4556 -18.1737
L13.1547 -18.5645
L12.8608 -18.9606
L12.5739 -19.3619
L12.2942 -19.7682
L12.0217 -20.1796
L11.7565 -20.5957
L11.4987 -21.0165
L11.2484 -21.4419
L11.0056 -21.8717
L10.7704 -22.3059
L10.5429 -22.7442
L10.3231 -23.1865
L10.1112 -23.6327
L9.90718 -24.0827
L9.71109 -24.5364
L9.523 -24.9935
L9.34298 -25.454
L9.17108 -25.9177
L9.00735 -26.3844
L8.85184 -26.8541
L8.70461 -27.3266
L8.56568 -27.8017
L8.43512 -28.2794
L8.31295 -28.7593
L8.19922 -29.2415
L8.09395 -29.7257
L7.99718 -30.2119
L7.90895 -30.6998
L7.82927 -31.1893
L7.75817 -31.6803
L7.69567 -32.1726
L7.6418 -32.6661
L7.59656 -33.1606
L7.55998 -33.6559
L7.53206 -34.152
L7.51281 -34.6486
L7.50224 -35.1457
L7.50035 -35.643
L7.50714 -36.1404
L7.52261 -36.6377
L7.54675 -37.1349
L7.57956 -37.6317
L7.62103 -38.1281
L7.67114 -38.6237
L7.72988 -39.1186
L7.79724 -39.6125
L7.87318 -40.1054
L7.95769 -40.597
L8.05075 -41.0871
L8.15231 -41.5758
L8.26236 -42.0627
L8.38086 -42.5478
L8.50778 -43.0309
L8.64306 -43.5118
L8.78668 -43.9905
L8.93859 -44.4667
L9.09874 -44.9404
L9.26709 -45.4113
L9.44358 -45.8794
L9.62816 -46.3444
L9.82077 -46.8063
z
" id="C0_1_ea02801e39"/>
     <path d="
M25.8479 -62.6168
L26.2968 -62.6309
L26.7502 -62.6432
L27.2073 -62.6532
L27.6673 -62.6604
L28.1295 -62.6641
L28.5932 -62.6641
L29.0578 -62.6598
L29.5226 -62.6511
L29.9872 -62.6377
L30.451 -62.6194
L30.9135 -62.596
L31.3744 -62.5674
L31.8331 -62.5336
L32.2894 -62.4945
L32.7429 -62.4501
L33.1934 -62.4004
L33.6405 -62.3455
L34.0841 -62.2854
L34.5238 -62.2201
L34.9596 -62.1498
L35.3913 -62.0746
L35.8187 -61.9945
L36.2417 -61.9097
L36.6601 -61.8202
L37.074 -61.7262
L37.4833 -61.6279
L37.8878 -61.5253
L38.2876 -61.4186
L38.6826 -61.3079
L39.0728 -61.1933
L39.4582 -61.0749
L39.8388 -60.9528
L40.2146 -60.8273
L40.5857 -60.6983
L40.952 -60.566
L41.3136 -60.4305
L41.6705 -60.292
L42.0229 -60.1504
L42.3706 -60.0059
L42.7138 -59.8586
L43.0526 -59.7085
L43.387 -59.5558
L43.7171 -59.4005
L44.0428 -59.2428
L44.3644 -59.0825
L44.6818 -58.9199
L44.9952 -58.755
L45.3045 -58.5878
L45.61 -58.4184
L45.9115 -58.2469
L46.2093 -58.0732
L46.5034 -57.8974
L46.7938 -57.7196
L47.0807 -57.5397
L47.3641 -57.3579
L47.644 -57.1741
L47.9206 -56.9884
L48.1938 -56.8007
L48.4639 -56.6111
L48.7308 -56.4196
L48.9945 -56.2262
L49.2553 -56.0309
L49.5131 -55.8337
L49.7679 -55.6346
L50.02 -55.4336
L50.2692 -55.2308
L50.5157 -55.026
L50.7595 -54.8193
L51.0007 -54.6106
L51.2393 -54.4
L51.4753 -54.1874
L51.7089 -53.9729
L51.9401 -53.7563
L52.1688 -53.5376
L52.3953 -53.3169
L52.6194 -53.0941
L52.8412 -52.8692
L53.0608 -52.6421
L53.2782 -52.4127
L53.4935 -52.1812
L53.7066 -51.9474
L53.9175 -51.7112
L54.1264 -51.4727
L54.3333 -51.2317
L54.5381 -50.9883
L54.7409 -50.7424
L54.9417 -50.494
L55.1404 -50.2429
L55.3373 -49.9891
L55.5321 -49.7327
L55.725 -49.4734
L55.9159 -49.2113
L56.1048 -48.9464
L56.2918 -48.6784
L56.4769 -48.4075
L56.6599 -48.1334
L56.841 -47.8562
L57.0201 -47.5758
L57.1971 -47.2922
L57.3722 -47.0051
L57.5451 -46.7147
L57.716 -46.4208
L57.8848 -46.1233
L58.0514 -45.8222
L58.2158 -45.5174
L58.378 -45.2089
L58.5379 -44.8965
L58.6955 -44.5803
L58.8507 -44.2601
L59.0035 -43.9358
L59.1538 -43.6074
L59.3015 -43.2749
L59.4465 -42.9382
L59.5889 -42.5972
L59.7285 -42.2519
L59.8652 -41.9021
L59.9989 -41.548
L60.1296 -41.1893
L60.2572 -40.8261
L60.3815 -40.4584
L60.5025 -40.0861
L60.6201 -39.7091
L60.7341 -39.3275
L60.8444 -38.9413
L60.9509 -38.5504
L61.0536 -38.1549
L61.1522 -37.7548
L61.2467 -37.3501
L61.337 -36.9409
L61.4229 -36.5272
L61.5043 -36.1091
L61.5812 -35.6866
L61.6533 -35.2599
L61.7207 -34.8292
L61.7832 -34.3945
L61.8407 -33.956
L61.8931 -33.5139
L61.9405 -33.0684
L61.9827 -32.6197
L62.0198 -32.1681
L62.0517 -31.7139
L62.0785 -31.2575
L62.1002 -30.7991
L62.1169 -30.3391
L62.1287 -29.8781
L62.1358 -29.4163
L62.1384 -28.9544
L62.1368 -28.4929
L62.1312 -28.0323
L62.1221 -27.5732
L62.1098 -27.1164
L62.095 -26.6625
L62.0781 -26.2122
L62.0598 -25.7663
L62.0408 -25.3257
L62.0219 -24.8911
L62.2491 -24.4635
L62.4388 -24.8989
L62.6205 -25.3587
L62.7941 -25.8217
L62.9595 -26.2879
L63.1167 -26.757
L63.2657 -27.2289
L63.4063 -27.7035
L63.5386 -28.1806
L63.6625 -28.6601
L63.778 -29.1418
L63.885 -29.6256
L63.9835 -30.1114
L64.0735 -30.5989
L64.155 -31.0881
L64.2279 -31.5788
L64.2921 -32.0709
L64.3478 -32.5641
L64.3948 -33.0584
L64.4332 -33.5536
L64.4629 -34.0495
L64.4839 -34.5461
L64.4963 -35.043
L64.5 -35.5403
L64.495 -36.0377
L64.4813 -36.5351
L64.4589 -37.0323
L64.4279 -37.5292
L64.3882 -38.0257
L64.3399 -38.5215
L64.2829 -39.0165
L64.2174 -39.5107
L64.1432 -40.0038
L64.0605 -40.4956
L63.9692 -40.9861
L63.8693 -41.475
L63.761 -41.9623
L63.6443 -42.4478
L63.5191 -42.9313
L63.3855 -43.4127
L63.2436 -43.8919
L63.0934 -44.3686
L62.935 -44.8428
L62.7683 -45.3143
L62.5935 -45.783
L62.4106 -46.2487
L62.2196 -46.7112
L62.0207 -47.1705
L61.8138 -47.6264
L61.5991 -48.0788
L61.3766 -48.5274
L61.1463 -48.9723
L60.9084 -49.4132
L60.6629 -49.85
L60.4098 -50.2826
L60.1494 -50.7109
L59.8816 -51.1346
L59.6065 -51.5538
L59.3242 -51.9682
L59.0348 -52.3778
L58.7384 -52.7824
L58.4351 -53.1818
L58.1249 -53.576
L57.808 -53.9649
L57.4845 -54.3483
L57.1544 -54.7261
L56.8179 -55.0982
L56.475 -55.4645
L56.1259 -55.8249
L55.7706 -56.1792
L55.4094 -56.5273
L55.0422 -56.8693
L54.6692 -57.2048
L54.2906 -57.5339
L53.9063 -57.8565
L53.5166 -58.1724
L53.1216 -58.4815
L52.7214 -58.7838
L52.316 -59.0791
L51.9057 -59.3674
L51.4906 -59.6486
L51.0707 -59.9226
L50.6463 -60.1893
L50.2173 -60.4487
L49.7841 -60.7005
L49.3467 -60.9449
L48.9051 -61.1817
L48.4597 -61.4108
L48.0105 -61.6321
L47.5576 -61.8457
L47.1011 -62.0514
L46.6413 -62.2491
L46.1783 -62.4388
L45.7121 -62.6205
L45.243 -62.7941
L44.7711 -62.9595
L44.2965 -63.1167
L43.8194 -63.2657
L43.3399 -63.4063
L42.8582 -63.5386
L42.3744 -63.6625
L41.8886 -63.778
L41.4011 -63.885
L40.9119 -63.9835
L40.4212 -64.0735
L39.9291 -64.155
L39.4359 -64.2279
L38.9416 -64.2921
L38.4464 -64.3478
L37.9505 -64.3948
L37.4539 -64.4332
L36.957 -64.4629
L36.4597 -64.4839
L35.9623 -64.4963
L35.4649 -64.5
L34.9677 -64.495
L34.4708 -64.4813
L33.9743 -64.4589
L33.4785 -64.4279
L32.9835 -64.3882
L32.4893 -64.3399
L31.9962 -64.2829
L31.5044 -64.2174
L31.0139 -64.1432
L30.525 -64.0605
L30.0377 -63.9692
L29.5522 -63.8693
L29.0687 -63.761
L28.5873 -63.6443
L28.1081 -63.5191
L27.6314 -63.3855
L27.1572 -63.2436
L26.6857 -63.0934
z
" id="C0_2_e3801592e2"/>
    </defs>
    <g clip-path="url(#p1bffca34e9)">
     <use style="fill:#ff0000;stroke:#000000;stroke-width:2.0;" x="0.0" xlink:href="#C0_0_a811fe30f3" y="72.0"/>
    </g>
    <g clip-path="url(#p1bffca34e9)">
     <use style="fill:#ffffff;stroke:#000000;stroke-width:2.0;" x="0.0" xlink:href="#C0_1_ea02801e39" y="72.0"/>
    </g>
    <g clip-path="url(#p1bffca34e9)">
     <use style="fill:#ffffff;stroke:#000000;stroke-width:2.0;" x="0.0" xlink:href="#C0_2_e3801592e2" y="72.0"/>
    </g>
   </g>
  </g>
 </g>
 <defs>
  <clipPath id="p1bffca34e9">
   <rect height="72.0" width="72.0" x="0.0" y="0.0"/>
  </clipPath>
 </defs>
</svg>
