<?xml version="1.0" encoding="utf-8" standalone="no"?>
<!DOCTYPE svg PUBLIC "-//W3C//DTD SVG 1.1//EN"
  "http://www.w3.org/Graphics/SVG/1.1/DTD/svg11.dtd">
<!-- Created with matplotlib (http://matplotlib.org/) -->
<svg height="72pt" version="1.1" viewBox="0 0 72 72" width="72pt" xmlns="http://www.w3.org/2000/svg" xmlns:xlink="http://www.w3.org/1999/xlink">
 <defs>
  <style type="text/css">
*{stroke-linecap:butt;stroke-linejoin:round;}
  </style>
 </defs>
 <g id="figure_1">
  <g id="patch_1">
   <path d="
M0 72
L72 72
L72 0
L0 0
z
" style="fill:none;"/>
  </g>
  <g id="axes_1">
   <g id="PatchCollection_1">
    <defs>
     <path d="
M36 -7.5
C43.5583 -7.5 50.808 -10.5029 56.1525 -15.8475
C61.4971 -21.192 64.5 -28.4417 64.5 -36
C64.5 -43.5583 61.4971 -50.808 56.1525 -56.1525
C50.808 -61.4971 43.5583 -64.5 36 -64.5
C28.4417 -64.5 21.192 -61.4971 15.8475 -56.1525
C10.5029 -50.808 7.5 -43.5583 7.5 -36
C7.5 -28.4417 10.5029 -21.192 15.8475 -15.8475
C21.192 -10.5029 28.4417 -7.5 36 -7.5
z
" id="C0_0_a811fe30f3"/>
     <path d="
M51.3244 -12.1083
L51.2616 -12.3359
L51.1862 -12.5589
L51.0988 -12.7775
L50.9998 -12.9917
L50.8897 -13.2015
L50.7688 -13.4071
L50.6377 -13.6086
L50.4968 -13.8061
L50.3466 -13.9999
L50.1877 -14.19
L50.0204 -14.3767
L49.8453 -14.5601
L49.6628 -14.7405
L49.4734 -14.9179
L49.2775 -15.0926
L49.0755 -15.2647
L48.8679 -15.4344
L48.6552 -15.602
L48.4376 -15.7674
L48.2156 -15.931
L47.9895 -16.0928
L47.7596 -16.253
L47.5264 -16.4118
L47.2902 -16.5691
L47.0511 -16.7252
L46.8095 -16.8802
L46.5658 -17.0341
L46.32 -17.1871
L46.0726 -17.3393
L45.8236 -17.4906
L45.5733 -17.6413
L45.3219 -17.7913
L45.0696 -17.9407
L44.8166 -18.0896
L44.563 -18.2381
L44.309 -18.3861
L44.0546 -18.5337
L43.8001 -18.681
L43.5455 -18.828
L43.291 -18.9748
L43.0367 -19.1212
L42.7826 -19.2675
L42.5288 -19.4136
L42.2754 -19.5595
L42.0225 -19.7053
L41.7701 -19.8509
L41.5183 -19.9964
L41.2671 -20.1419
L41.0166 -20.2872
L40.7668 -20.4326
L40.5178 -20.5778
L40.2696 -20.7231
L40.0221 -20.8683
L39.7754 -21.0135
L39.5296 -21.1588
L39.2847 -21.3041
L39.0406 -21.4494
L38.7973 -21.5947
L38.5549 -21.7402
L38.3134 -21.8857
L38.0727 -22.0313
L37.8329 -22.177
L37.5939 -22.3228
L37.3558 -22.4687
L37.1185 -22.6148
L36.882 -22.7611
L36.6463 -22.9075
L36.4114 -23.0541
L36.1773 -23.2009
L35.9439 -23.3479
L35.7112 -23.4952
L35.4793 -23.6427
L35.248 -23.7905
L35.0174 -23.9385
L34.7874 -24.0869
L34.5581 -24.2355
L34.3293 -24.3845
L34.1011 -24.5339
L33.8735 -24.6836
L33.6463 -24.8337
L33.4197 -24.9841
L33.1935 -25.135
L32.9677 -25.2864
L32.7423 -25.4382
L32.5173 -25.5905
L32.2927 -25.7432
L31.8443 -25.8965
L31.6206 -26.0503
L31.397 -26.2047
L31.1737 -26.3596
L30.9506 -26.5151
L30.7275 -26.6713
L30.5047 -26.828
L30.2819 -26.9854
L30.0591 -27.1435
L29.8364 -27.3023
L29.6137 -27.4618
L29.391 -27.622
L29.1682 -27.7829
L28.9454 -27.9447
L28.7225 -28.1072
L28.4994 -28.2705
L28.2762 -28.4346
L28.0528 -28.5995
L27.8292 -28.7654
L27.6054 -28.932
L27.3813 -29.0996
L27.157 -29.2681
L26.9323 -29.4374
L26.7074 -29.6077
L26.4821 -29.7789
L26.2564 -29.9511
L26.0304 -30.1243
L25.804 -30.2983
L25.5771 -30.4734
L25.3499 -30.6494
L25.1221 -30.8265
L24.8939 -31.0044
L24.6653 -31.1834
L24.4361 -31.3633
L24.2064 -31.5442
L23.9763 -31.7261
L23.7456 -31.9089
L23.5143 -32.0926
L23.2825 -32.2772
L23.0502 -32.4628
L22.8173 -32.6491
L22.5838 -32.8363
L22.3498 -33.0243
L22.1152 -33.2131
L21.8801 -33.4026
L21.6444 -33.5927
L21.4081 -33.7834
L21.1713 -33.9746
L20.9339 -34.1664
L20.6959 -34.3585
L20.4574 -34.5509
L20.2184 -34.7435
L19.9788 -34.9362
L19.7387 -35.1289
L19.498 -35.3215
L19.2569 -35.5139
L19.0153 -35.7058
L18.7732 -35.8972
L18.5306 -36.0878
L18.2876 -36.2776
L18.0441 -36.4663
L17.8002 -36.6537
L17.5558 -36.8395
L17.311 -37.0237
L17.0658 -37.2058
L16.8202 -37.3857
L16.5742 -37.5631
L16.3279 -37.7376
L16.0812 -37.9091
L15.834 -38.077
L15.5866 -38.2412
L15.3388 -38.4013
L15.0906 -38.5568
L14.8421 -38.7074
L14.5932 -38.8527
L14.3441 -38.9924
L14.0946 -39.1259
L13.8448 -39.2528
L13.5947 -39.3728
L13.3443 -39.4854
L13.0937 -39.5901
L12.8429 -39.6865
L12.5919 -39.7741
L12.3407 -39.8525
L12.0895 -39.9214
L11.8382 -39.9802
L11.587 -40.0286
L11.336 -40.0662
L11.0852 -40.0926
L10.8348 -40.1076
L10.5848 -40.1107
L10.3355 -40.1018
L10.087 -40.0805
L9.83943 -40.0467
L9.59303 -40.0002
L9.34798 -39.9408
L9.10449 -39.8685
L8.86279 -39.7832
L8.62311 -39.6847
L8.3857 -39.5733
L8.15081 -39.4487
L7.9187 -39.3112
L7.68963 -39.1609
L7.61039 -38.9977
L7.57098 -38.506
L7.54022 -38.0101
L7.51814 -37.5137
L7.50474 -37.0167
L7.50001 -36.5195
L7.50396 -36.0221
L7.5166 -35.5247
L7.53791 -35.0275
L7.56789 -34.5305
L7.60653 -34.034
L7.65382 -33.5381
L7.70975 -33.0429
L7.77429 -32.5487
L7.84743 -32.0555
L7.92915 -31.5635
L8.01942 -31.0728
L8.11821 -30.5836
L8.22549 -30.0961
L8.34123 -29.6104
L8.4654 -29.1267
L8.59796 -28.645
L8.73886 -28.1656
L8.88807 -27.6886
L9.04553 -27.214
L9.21121 -26.7422
L9.38504 -26.2732
L9.56699 -25.8072
L9.75698 -25.3442
L9.95497 -24.8845
L10.1609 -24.4282
L10.3747 -23.9754
L10.5963 -23.5263
L10.8256 -23.081
L11.0626 -22.6396
L11.3072 -22.2023
L11.5594 -21.7692
L11.8189 -21.3404
L12.0859 -20.9161
L12.3601 -20.4963
L12.6415 -20.0813
L12.93 -19.6712
L13.2256 -19.266
L13.5281 -18.8659
L13.8374 -18.4711
L14.1535 -18.0816
L14.4763 -17.6975
L14.8056 -17.319
L15.1413 -16.9462
L15.4835 -16.5792
L15.8318 -16.2181
L16.1863 -15.8631
L16.5469 -15.5142
L16.9134 -15.1715
L17.2856 -14.8352
L17.6636 -14.5053
L18.0472 -14.182
L18.4362 -13.8653
L18.8306 -13.5553
L19.2302 -13.2522
L19.635 -12.956
L20.0447 -12.6669
L20.4593 -12.3848
L20.8786 -12.1099
L21.3025 -11.8424
L21.7309 -11.5821
L22.1636 -11.3293
L22.6005 -11.0841
L23.0416 -10.8464
L23.4866 -10.6164
L23.9353 -10.3941
L24.3878 -10.1796
L24.8438 -9.97295
L25.3032 -9.77426
L25.7659 -9.58355
L26.2317 -9.40089
L26.7004 -9.22633
L27.172 -9.05993
L27.6463 -8.90173
L28.1231 -8.75179
L28.6023 -8.61014
L29.0838 -8.47684
L29.5674 -8.35193
L30.0529 -8.23543
L30.5402 -8.1274
L31.0293 -8.02785
L31.5198 -7.93683
L32.0117 -7.85435
L32.5048 -7.78045
L32.999 -7.71514
L33.494 -7.65845
L33.9899 -7.61039
L34.4863 -7.57098
L34.9833 -7.54022
L35.4805 -7.51814
L35.9779 -7.50474
L36.4753 -7.50001
L36.9725 -7.50396
L37.4695 -7.5166
L37.966 -7.53791
L38.4619 -7.56789
L38.9571 -7.60653
L39.4513 -7.65382
L39.9445 -7.70975
L40.4365 -7.77429
L40.9272 -7.84743
L41.4164 -7.92915
L41.9039 -8.01942
L42.3896 -8.11821
L42.8733 -8.22549
L43.355 -8.34123
L43.8344 -8.4654
L44.3114 -8.59796
L44.786 -8.73886
L45.2578 -8.88807
L45.7268 -9.04553
L46.1928 -9.21121
L46.6558 -9.38504
L47.1155 -9.56699
L47.5718 -9.75698
L48.0246 -9.95497
L48.4737 -10.1609
L48.919 -10.3747
L49.3604 -10.5963
L49.7977 -10.8256
L50.2308 -11.0626
L50.6596 -11.3072
z
" id="C0_1_c3d141ece7"/>
     <path d="
M64.1861 -33.2126
L63.9991 -33.4357
L63.8115 -33.6644
L63.6233 -33.8983
L63.4344 -34.1369
L63.2447 -34.3796
L63.0541 -34.6261
L62.8626 -34.8759
L62.6701 -35.1286
L62.4765 -35.3838
L62.2819 -35.6411
L62.0861 -35.9002
L61.8892 -36.1607
L61.6911 -36.4223
L61.4919 -36.6847
L61.2914 -36.9475
L61.0898 -37.2107
L60.8869 -37.4738
L60.6829 -37.7367
L60.4778 -37.9992
L60.2714 -38.261
L60.064 -38.522
L59.8554 -38.7819
L59.6458 -39.0408
L59.435 -39.2983
L59.2233 -39.5545
L59.0106 -39.8091
L58.7968 -40.0621
L58.5822 -40.3133
L58.3666 -40.5628
L58.1501 -40.8103
L57.9328 -41.0559
L57.7147 -41.2995
L57.4958 -41.5411
L57.2761 -41.7806
L57.0556 -42.0179
L56.8345 -42.2531
L56.6126 -42.486
L56.3901 -42.7168
L56.1669 -42.9454
L55.9431 -43.1717
L55.7187 -43.3958
L55.4937 -43.6177
L55.2681 -43.8374
L55.0419 -44.0548
L54.8152 -44.27
L54.5879 -44.483
L54.3601 -44.6939
L54.1317 -44.9025
L53.9028 -45.109
L53.6734 -45.3134
L53.4434 -45.5156
L53.2129 -45.7157
L52.9819 -45.9138
L52.7504 -46.1098
L52.5183 -46.3038
L52.2857 -46.4958
L52.0525 -46.6858
L51.8187 -46.8738
L51.5844 -47.06
L51.3494 -47.2442
L51.1139 -47.4266
L50.8778 -47.6071
L50.641 -47.7858
L50.4036 -47.9627
L50.1655 -48.1379
L49.9268 -48.3113
L49.6873 -48.483
L49.4471 -48.653
L49.2062 -48.8214
L48.9645 -48.9881
L48.722 -49.1533
L48.4786 -49.3168
L48.2345 -49.4788
L47.9895 -49.6392
L47.7435 -49.7981
L47.4967 -49.9555
L47.2489 -50.1115
L47.0001 -50.266
L46.7503 -50.419
L46.4995 -50.5706
L46.2476 -50.7209
L45.9947 -50.8697
L45.7405 -51.0172
L45.4853 -51.1633
L45.2288 -51.3081
L44.9711 -51.4515
L44.7122 -51.5937
L44.452 -51.7345
L44.1904 -51.8741
L43.9275 -52.0124
L43.6633 -52.1494
L43.3976 -52.2851
L43.1304 -52.4196
L42.8618 -52.5529
L42.5917 -52.6849
L42.3201 -52.8156
L42.0469 -52.9451
L41.7721 -53.0734
L41.4957 -53.2005
L41.2176 -53.3263
L40.9378 -53.4509
L40.6564 -53.5742
L40.3732 -53.6963
L40.0883 -53.8172
L39.8016 -53.9369
L39.5131 -54.0552
L39.2228 -54.1724
L38.9307 -54.2883
L38.6368 -54.4029
L38.341 -54.5162
L38.0434 -54.6283
L37.7439 -54.7391
L37.4426 -54.8486
L37.1394 -54.9568
L36.8343 -55.0637
L36.5274 -55.1693
L36.2187 -55.2736
L35.9081 -55.3765
L35.5958 -55.4781
L35.2817 -55.5784
L34.9659 -55.6774
L34.6483 -55.775
L34.3292 -55.8712
L34.0084 -55.9662
L33.6861 -56.0598
L33.3623 -56.1521
L33.0371 -56.243
L32.7105 -56.3327
L32.3828 -56.4211
L32.0538 -56.5082
L31.7239 -56.5942
L31.393 -56.6789
L31.0613 -56.7625
L30.729 -56.8449
L30.3962 -56.9263
L30.063 -57.0067
L29.7296 -57.0862
L29.3962 -57.1649
L29.063 -57.2428
L28.7301 -57.32
L28.3979 -57.3967
L28.0666 -57.4729
L27.7363 -57.5488
L27.4073 -57.6246
L27.0799 -57.7004
L26.7544 -57.7764
L26.4311 -57.8527
L26.1103 -57.9295
L25.7922 -58.007
L25.4772 -58.0856
L25.1657 -58.1653
L24.858 -58.2464
L24.5544 -58.3292
L24.2553 -58.4139
L23.9611 -58.5007
L23.6721 -58.59
L23.3886 -58.6821
L23.1112 -58.777
L22.84 -58.8753
L22.5755 -58.977
L22.318 -59.0824
L22.0679 -59.1919
L21.8256 -59.3056
L21.5912 -59.4237
L21.3652 -59.5464
L21.1479 -59.6739
L20.9395 -59.8063
L21.1046 -59.9439
L21.531 -60.2977
L21.9617 -60.554
L22.3967 -60.8027
L22.8359 -61.044
L23.279 -61.2776
L23.726 -61.5035
L24.1768 -61.7216
L24.6312 -61.9319
L25.089 -62.1343
L25.5502 -62.3287
L26.0145 -62.5151
L26.4819 -62.6935
L26.9522 -62.8637
L27.4252 -63.0257
L27.9009 -63.1795
L28.379 -63.325
L28.8595 -63.4622
L29.3421 -63.591
L29.8267 -63.7114
L30.3132 -63.8234
L30.8015 -63.9269
L31.2913 -64.0219
L31.7826 -64.1083
L32.2752 -64.1862
L32.7689 -64.2555
L33.2636 -64.3162
L33.7591 -64.3683
L34.2553 -64.4118
L34.752 -64.4465
L35.2491 -64.4727
L35.7464 -64.4901
L36.2438 -64.4989
L36.7412 -64.499
L37.2383 -64.4904
L37.735 -64.4731
L38.2312 -64.4471
L38.7268 -64.4125
L39.2215 -64.3693
L39.7152 -64.3173
L40.2078 -64.2568
L40.6991 -64.1877
L41.1889 -64.1099
L41.6772 -64.0237
L42.1638 -63.9288
L42.6485 -63.8255
L43.1311 -63.7137
L43.6116 -63.5934
L44.0898 -63.4648
L44.5655 -63.3277
L45.0386 -63.1824
L45.5089 -63.0288
L45.9764 -62.8669
L46.4408 -62.6969
L46.902 -62.5187
L47.3599 -62.3324
L47.8143 -62.1382
L48.2652 -61.9359
L48.7123 -61.7258
L49.1555 -61.5078
L49.5948 -61.2821
L50.0298 -61.0486
L50.4607 -60.8075
L50.8871 -60.5589
L51.3089 -60.3028
L51.7261 -60.0393
L52.1386 -59.7684
L52.5461 -59.4904
L52.9485 -59.2051
L53.3458 -58.9128
L53.7379 -58.6135
L54.1245 -58.3074
L54.5056 -57.9944
L54.881 -57.6747
L55.2507 -57.3485
L55.6146 -57.0157
L55.9724 -56.6765
L56.3242 -56.331
L56.6698 -55.9794
L57.0091 -55.6216
L57.342 -55.2579
L57.6684 -54.8883
L57.9882 -54.513
L58.3013 -54.132
L58.6076 -53.7455
L58.907 -53.3536
L59.1995 -52.9564
L59.4848 -52.554
L59.7631 -52.1466
L60.034 -51.7343
L60.2977 -51.3171
L60.554 -50.8954
L60.8027 -50.469
L61.044 -50.0383
L61.2776 -49.6033
L61.5035 -49.1641
L61.7216 -48.721
L61.9319 -48.274
L62.1343 -47.8232
L62.3287 -47.3688
L62.5151 -46.911
L62.6935 -46.4498
L62.8637 -45.9855
L63.0257 -45.5181
L63.1795 -45.0478
L63.325 -44.5748
L63.4622 -44.0991
L63.591 -43.621
L63.7114 -43.1405
L63.8234 -42.6579
L63.9269 -42.1733
L64.0219 -41.6868
L64.1083 -41.1985
L64.1862 -40.7087
L64.2555 -40.2174
L64.3162 -39.7248
L64.3683 -39.2311
L64.4118 -38.7364
L64.4465 -38.2409
L64.4727 -37.7447
L64.4901 -37.248
L64.4989 -36.7509
L64.499 -36.2536
L64.4904 -35.7562
L64.4731 -35.2588
L64.4471 -34.7617
L64.4125 -34.265
z
" id="C0_2_5885431ea7"/>
    </defs>
    <g clip-path="url(#p1bffca34e9)">
     <use style="fill:#ff0000;stroke:#000000;stroke-width:2.0;" x="0.0" xlink:href="#C0_0_a811fe30f3" y="72.0"/>
    </g>
    <g clip-path="url(#p1bffca34e9)">
     <use style="fill:#ffffff;stroke:#000000;stroke-width:2.0;" x="0.0" xlink:href="#C0_1_c3d141ece7" y="72.0"/>
    </g>
    <g clip-path="url(#p1bffca34e9)">
     <use style="fill:#ffffff;stroke:#000000;stroke-width:2.0;" x="0.0" xlink:href="#C0_2_5885431ea7" y="72.0"/>
    </g>
   </g>
  </g>
 </g>
 <defs>
  <clipPath id="p1bffca34e9">
   <rect height="72.0" width="72.0" x="0.0" y="0.0"/>
  </clipPath>
 </defs>
</svg>
