<?xml version="1.0" encoding="utf-8" standalone="no"?>
<!DOCTYPE svg PUBLIC "-//W3C//DTD SVG 1.1//EN"
  "http://www.w3.org/Graphics/SVG/1.1/DTD/svg11.dtd">
<!-- Created with matplotlib (http://matplotlib.org/) -->
<svg height="72pt" version="1.1" viewBox="0 0 72 72" width="72pt" xmlns="http://www.w3.org/2000/svg" xmlns:xlink="http://www.w3.org/1999/xlink">
 <defs>
  <style type="text/css">
*{stroke-linecap:butt;stroke-linejoin:round;}
  </style>
 </defs>
 <g id="figure_1">
  <g id="patch_1">
   <path d="
M0 72
L72 72
L72 0
L0 0
z
" style="fill:none;"/>
  </g>
  <g id="axes_1">
   <g id="PatchCollection_1">
    <defs>
     <path d="
M36 -7.5
C43.5583 -7.5 50.808 -10.5029 56.1525 -15.8475
C61.4971 -21.192 64.5 -28.4417 64.5 -36
C64.5 -43.5583 61.4971 -50.808 56.1525 -56.1525
C50.808 -61.4971 43.5583 -64.5 36 -64.5
C28.4417 -64.5 21.192 -61.4971 15.8475 -56.1525
C10.5029 -50.808 7.5 -43.5583 7.5 -36
C7.5 -28.4417 10.5029 -21.192 15.8475 -15.8475
C21.192 -10.5029 28.4417 -7.5 36 -7.5
z
" id="C0_0_a811fe30f3"/>
     <path d="
M40.6019 -28.5254
L40.377 -28.4009
L40.1515 -28.2774
L39.9253 -28.1548
L39.6984 -28.0331
L39.4707 -27.9123
L39.2422 -27.7924
L39.0128 -27.6733
L38.7824 -27.555
L38.551 -27.4375
L38.3185 -27.3208
L38.0849 -27.2048
L37.8501 -27.0896
L37.6141 -26.9751
L37.3767 -26.8613
L37.138 -26.7482
L36.8978 -26.6358
L36.6561 -26.524
L36.4129 -26.413
L36.168 -26.3026
L35.9214 -26.1929
L35.6731 -26.0838
L35.4229 -25.9754
L35.1708 -25.8676
L34.9168 -25.7605
L34.6607 -25.654
L34.4025 -25.5483
L34.1422 -25.4432
L33.8796 -25.3388
L33.6147 -25.2351
L33.3474 -25.1321
L33.0776 -25.0299
L32.8054 -24.9284
L32.5305 -24.8277
L32.253 -24.7279
L31.9728 -24.6289
L31.6898 -24.5308
L31.404 -24.4336
L31.1152 -24.3374
L30.8234 -24.2422
L30.5286 -24.1481
L30.2306 -24.0551
L29.9295 -23.9633
L29.6252 -23.8727
L29.3176 -23.7835
L29.0067 -23.6956
L28.6924 -23.6093
L28.3747 -23.5245
L28.0535 -23.4415
L27.7288 -23.3601
L27.4006 -23.2807
L27.0689 -23.2033
L26.7336 -23.128
L26.3947 -23.055
L26.0522 -22.9844
L25.7062 -22.9164
L25.3567 -22.8511
L25.0036 -22.7888
L24.647 -22.7295
L24.287 -22.6736
L23.9236 -22.6211
L23.5569 -22.5724
L23.1869 -22.5277
L22.8139 -22.4872
L22.4379 -22.4513
L22.059 -22.4202
L21.6775 -22.3942
L21.2934 -22.3737
L20.9071 -22.3591
L20.5187 -22.3508
L20.1285 -22.3491
L19.7368 -22.3546
L19.344 -22.3678
L18.9504 -22.3893
L18.5565 -22.4196
L18.1627 -22.4594
L17.7696 -22.5096
L17.3778 -22.571
L16.9879 -22.6445
L16.6008 -22.7312
L16.2172 -22.8322
L15.8383 -22.9489
L15.4651 -23.0827
L15.0988 -23.2351
L14.7408 -23.4077
L14.3927 -23.6023
L14.0559 -23.8205
L13.7322 -24.0637
L13.4232 -24.3333
L13.1305 -24.6299
L12.8554 -24.9538
L12.599 -25.3048
L12.3623 -25.6817
L12.1456 -26.0829
L11.9492 -26.5064
L11.7729 -26.9499
L11.6165 -27.4107
L11.4794 -27.8863
L11.3611 -28.3742
L11.2609 -28.8721
L11.1781 -29.3777
L11.1121 -29.8893
L11.0621 -30.4049
L11.0275 -30.9231
L11.0076 -31.4425
L11.0018 -31.9619
L11.0094 -32.4801
L11.0299 -32.9964
L11.0626 -33.5098
L11.1071 -34.0196
L11.1627 -34.5253
L11.2289 -35.0262
L11.3053 -35.5219
L11.3913 -36.012
L11.4864 -36.4961
L11.5903 -36.974
L11.7023 -37.4453
L11.8222 -37.9099
L11.9494 -38.3676
L12.0836 -38.8183
L12.2244 -39.2618
L12.3714 -39.6981
L12.5243 -40.1271
L12.6827 -40.5488
L12.8463 -40.9632
L13.0148 -41.3703
L13.1878 -41.7701
L13.3652 -42.1627
L13.5467 -42.5481
L13.7319 -42.9264
L13.9207 -43.2976
L14.1129 -43.6618
L14.3081 -44.0192
L14.5063 -44.3697
L14.7073 -44.7137
L14.9108 -45.051
L15.1167 -45.3819
L15.3248 -45.7064
L15.5351 -46.0247
L15.7474 -46.337
L15.9615 -46.6432
L16.1773 -46.9436
L16.3948 -47.2382
L16.6138 -47.5272
L16.8343 -47.8107
L17.0562 -48.0888
L17.2794 -48.3617
L17.5038 -48.6294
L17.7294 -48.8921
L17.9561 -49.1499
L18.1839 -49.4029
L18.4128 -49.6513
L18.6426 -49.895
L18.8734 -50.1342
L19.1052 -50.3691
L19.3379 -50.5998
L19.5715 -50.8262
L19.8061 -51.0486
L20.0415 -51.267
L20.2778 -51.4815
L20.515 -51.6922
L20.7531 -51.8992
L20.992 -52.1026
L21.2319 -52.3024
L21.4727 -52.4988
L21.7145 -52.6917
L21.9571 -52.8813
L22.2008 -53.0677
L22.4454 -53.2508
L22.6911 -53.4308
L22.9378 -53.6078
L23.1856 -53.7817
L23.4345 -53.9526
L23.6846 -54.1207
L23.9358 -54.2859
L24.1883 -54.4482
L24.442 -54.6078
L24.697 -54.7647
L24.9534 -54.9189
L25.2111 -55.0704
L25.4703 -55.2192
L25.731 -55.3655
L25.9932 -55.5092
L26.257 -55.6504
L26.5224 -55.789
L26.7895 -55.9251
L27.0584 -56.0587
L27.3292 -56.1898
L27.6017 -56.3185
L27.8763 -56.4446
L28.1528 -56.5683
L28.4314 -56.6895
L28.7121 -56.8083
L28.995 -56.9245
L29.2801 -57.0383
L29.5676 -57.1495
L29.8575 -57.2582
L30.1499 -57.3644
L30.4448 -57.4679
L30.7423 -57.5689
L31.0425 -57.6672
L31.3455 -57.7628
L31.6513 -57.8557
L31.96 -57.9458
L32.2717 -58.0331
L32.5865 -58.1174
L32.9045 -58.1989
L33.2256 -58.2773
L33.5501 -58.3526
L33.878 -58.4248
L34.2093 -58.4937
L34.5441 -58.5593
L34.8826 -58.6214
L35.2247 -58.68
L35.5706 -58.735
L35.9203 -58.7862
L36.2739 -58.8336
L36.6314 -58.8769
L36.993 -58.9161
L37.3587 -58.951
L37.7285 -58.9815
L38.1025 -59.0074
L38.4807 -59.0285
L38.8633 -59.0447
L39.2501 -59.0559
L39.6413 -59.0617
L40.0368 -59.0621
L40.4368 -59.0567
L40.8411 -59.0455
L41.2498 -59.0281
L41.6628 -59.0044
L42.0802 -58.9741
L42.5019 -58.937
L42.9278 -58.8928
L43.3578 -58.8412
L43.792 -58.7821
L44.23 -58.7151
L44.6719 -58.6399
L45.1175 -58.5564
L45.5665 -58.4641
L46.0188 -58.3628
L46.4742 -58.2522
L46.9324 -58.1321
L47.3931 -58.0021
L47.8559 -57.8619
L48.3205 -57.7114
L48.7866 -57.5501
L49.2536 -57.3779
L49.721 -57.1945
L50.1883 -56.9996
L50.6549 -56.793
L51.12 -56.5746
L51.583 -56.3441
L52.0431 -56.1014
L52.4992 -55.8464
L52.9504 -55.579
L53.3956 -55.2992
L53.8334 -55.0071
L54.2627 -54.7027
L54.6817 -54.3861
L55.0889 -54.0577
L55.4824 -53.7179
L55.8601 -53.3669
L56.2198 -53.0056
L56.5592 -52.6344
L56.8759 -52.2544
L57.1674 -51.8665
L57.4313 -51.4718
L57.6656 -51.0716
L57.8686 -50.6672
L58.0391 -50.2599
L58.1768 -49.851
L58.2819 -49.4417
L58.3554 -49.0331
L58.3987 -48.626
L58.4136 -48.2214
L58.4024 -47.8197
L58.3672 -47.4216
L58.3102 -47.0272
L58.2336 -46.6371
L58.1393 -46.2513
L58.0291 -45.8701
L57.9046 -45.4936
L57.7673 -45.1219
L57.6185 -44.755
L57.4593 -44.3932
L57.2909 -44.0364
L57.114 -43.6846
L56.9297 -43.3379
L56.7385 -42.9963
L56.5413 -42.6599
L56.3385 -42.3286
L56.1309 -42.0025
L55.9189 -41.6814
L55.703 -41.3655
L55.4835 -41.0547
L55.261 -40.7489
L55.0358 -40.4481
L54.8081 -40.1523
L54.5783 -39.8615
L54.3467 -39.5755
L54.1136 -39.2943
L53.8791 -39.0179
L53.6436 -38.7462
L53.4071 -38.4792
L53.1699 -38.2166
L52.9321 -37.9586
L52.694 -37.705
L52.4556 -37.4557
L52.217 -37.2106
L51.9785 -36.9698
L51.74 -36.733
L51.5016 -36.5002
L51.2636 -36.2713
L51.0258 -36.0462
L50.7885 -35.8249
L50.5515 -35.6072
L50.3151 -35.3932
L50.0792 -35.1826
L49.8439 -34.9754
L49.6092 -34.7715
L49.3751 -34.5708
L49.1417 -34.3734
L48.9089 -34.1789
L48.6768 -33.9875
L48.4453 -33.799
L48.2145 -33.6133
L47.9844 -33.4304
L47.755 -33.2502
L47.5261 -33.0726
L47.298 -32.8975
L47.0704 -32.7249
L46.8434 -32.5547
L46.6171 -32.3868
L46.3912 -32.2212
L46.1659 -32.0577
L45.9411 -31.8965
L45.7168 -31.7372
L45.4929 -31.58
L45.2695 -31.4248
L45.0464 -31.2714
L44.8236 -31.1199
L44.6012 -30.9702
L44.379 -30.8222
L44.1571 -30.6758
L43.9354 -30.5311
L43.7138 -30.388
L43.4923 -30.2464
L43.2708 -30.1063
L43.0494 -29.9676
L42.828 -29.8303
L42.6065 -29.6944
L42.3848 -29.5598
L42.1631 -29.4264
L41.9411 -29.2943
L41.7188 -29.1634
L41.4962 -29.0336
L41.2733 -28.9049
L41.05 -28.7774
z
" id="C0_1_d2c25523b7"/>
    </defs>
    <g clip-path="url(#p1bffca34e9)">
     <use style="fill:#ffffff;stroke:#000000;stroke-width:2.0;" x="0.0" xlink:href="#C0_0_a811fe30f3" y="72.0"/>
    </g>
    <g clip-path="url(#p1bffca34e9)">
     <use style="fill:#ff0000;stroke:#000000;stroke-width:2.0;" x="0.0" xlink:href="#C0_1_d2c25523b7" y="72.0"/>
    </g>
   </g>
  </g>
 </g>
 <defs>
  <clipPath id="p1bffca34e9">
   <rect height="72.0" width="72.0" x="0.0" y="0.0"/>
  </clipPath>
 </defs>
</svg>
