<?xml version="1.0" encoding="utf-8" standalone="no"?>
<!DOCTYPE svg PUBLIC "-//W3C//DTD SVG 1.1//EN"
  "http://www.w3.org/Graphics/SVG/1.1/DTD/svg11.dtd">
<!-- Created with matplotlib (http://matplotlib.org/) -->
<svg height="72pt" version="1.1" viewBox="0 0 72 72" width="72pt" xmlns="http://www.w3.org/2000/svg" xmlns:xlink="http://www.w3.org/1999/xlink">
 <defs>
  <style type="text/css">
*{stroke-linecap:butt;stroke-linejoin:round;}
  </style>
 </defs>
 <g id="figure_1">
  <g id="patch_1">
   <path d="
M0 72
L72 72
L72 0
L0 0
z
" style="fill:none;"/>
  </g>
  <g id="axes_1">
   <g id="PatchCollection_1">
    <defs>
     <path d="
M36 -7.5
C43.5583 -7.5 50.808 -10.5029 56.1525 -15.8475
C61.4971 -21.192 64.5 -28.4417 64.5 -36
C64.5 -43.5583 61.4971 -50.808 56.1525 -56.1525
C50.808 -61.4971 43.5583 -64.5 36 -64.5
C28.4417 -64.5 21.192 -61.4971 15.8475 -56.1525
C10.5029 -50.808 7.5 -43.5583 7.5 -36
C7.5 -28.4417 10.5029 -21.192 15.8475 -15.8475
C21.192 -10.5029 28.4417 -7.5 36 -7.5
z
" id="C0_0_a811fe30f3"/>
     <path d="
M43.9595 -33.5803
L43.8528 -33.3474
L43.7451 -33.1149
L43.6363 -32.8827
L43.5265 -32.6507
L43.4156 -32.4189
L43.3035 -32.1873
L43.1903 -31.9557
L43.0758 -31.7242
L42.9602 -31.4927
L42.8432 -31.2611
L42.725 -31.0294
L42.6054 -30.7975
L42.4845 -30.5654
L42.3621 -30.333
L42.2383 -30.1003
L42.1129 -29.8673
L41.986 -29.6338
L41.8575 -29.3999
L41.7274 -29.1655
L41.5955 -28.9306
L41.462 -28.695
L41.3266 -28.4589
L41.1894 -28.222
L41.0502 -27.9845
L40.9092 -27.7462
L40.7661 -27.5071
L40.6209 -27.2672
L40.4736 -27.0264
L40.3241 -26.7847
L40.1723 -26.5422
L40.0183 -26.2987
L39.8618 -26.0542
L39.7028 -25.8087
L39.5414 -25.5622
L39.3773 -25.3146
L39.2106 -25.066
L39.0411 -24.8164
L38.8688 -24.5656
L38.6936 -24.3138
L38.5154 -24.0609
L38.3341 -23.807
L38.1498 -23.552
L37.9622 -23.2959
L37.7713 -23.0388
L37.577 -22.7807
L37.3793 -22.5217
L37.178 -22.2617
L36.973 -22.0009
L36.7644 -21.7392
L36.5519 -21.4768
L36.3356 -21.2137
L36.1153 -20.95
L35.8909 -20.6858
L35.6624 -20.4212
L35.4297 -20.1564
L35.1926 -19.8914
L34.9512 -19.6264
L34.7053 -19.3616
L34.4549 -19.0972
L34.1999 -18.8333
L33.9401 -18.5702
L33.6757 -18.3081
L33.4064 -18.0473
L33.1322 -17.788
L32.8531 -17.5306
L32.5689 -17.2755
L32.2798 -17.0229
L31.9855 -16.7734
L31.686 -16.5273
L31.3814 -16.2851
L31.0715 -16.0475
L30.7563 -15.815
L30.4358 -15.5883
L30.11 -15.3681
L29.7787 -15.1553
L29.442 -14.9508
L29.0998 -14.7557
L28.7521 -14.571
L28.3988 -14.3982
L28.0399 -14.2388
L27.6754 -14.0944
L27.3052 -13.9668
L26.9294 -13.8581
L26.5479 -13.7705
L26.161 -13.7064
L25.7687 -13.6681
L25.3715 -13.6579
L24.9697 -13.678
L24.5642 -13.7301
L24.1557 -13.8152
L23.7453 -13.9337
L23.3343 -14.0855
L22.924 -14.2695
L22.5158 -14.4842
L22.1111 -14.7274
L21.7112 -14.9969
L21.3172 -15.2903
L20.9302 -15.6051
L20.5512 -15.9391
L20.181 -16.2901
L19.8201 -16.656
L19.4691 -17.0351
L19.1285 -17.4257
L18.7985 -17.8262
L18.4795 -18.2354
L18.1715 -18.6519
L17.8748 -19.0746
L17.5892 -19.5027
L17.315 -19.9351
L17.052 -20.371
L16.8001 -20.8097
L16.5593 -21.2505
L16.3294 -21.6927
L16.1102 -22.1358
L15.9016 -22.5793
L15.7035 -23.0226
L15.5155 -23.4654
L15.3374 -23.9073
L15.1692 -24.3479
L15.0104 -24.7869
L14.8609 -25.2239
L14.7205 -25.6588
L14.5888 -26.0914
L14.4657 -26.5213
L14.3509 -26.9484
L14.2442 -27.3726
L14.1453 -27.7937
L14.054 -28.2116
L13.97 -28.6262
L13.8931 -29.0374
L13.8232 -29.4452
L13.7599 -29.8494
L13.7031 -30.25
L13.6525 -30.647
L13.6081 -31.0404
L13.5694 -31.4302
L13.5365 -31.8163
L13.509 -32.1988
L13.4869 -32.5776
L13.4699 -32.9529
L13.4579 -33.3245
L13.4507 -33.6926
L13.4483 -34.0573
L13.4503 -34.4184
L13.4568 -34.7761
L13.4676 -35.1305
L13.4825 -35.4815
L13.5015 -35.8292
L13.5244 -36.1738
L13.5511 -36.5152
L13.5816 -36.8535
L13.6156 -37.1888
L13.6533 -37.5212
L13.6944 -37.8506
L13.7388 -38.1772
L13.7866 -38.5011
L13.8377 -38.8223
L13.8919 -39.1409
L13.9493 -39.4569
L14.0097 -39.7704
L14.0731 -40.0816
L14.1395 -40.3903
L14.2089 -40.6968
L14.2811 -41.0011
L14.3563 -41.3033
L14.4342 -41.6034
L14.515 -41.9015
L14.5986 -42.1976
L14.6849 -42.4919
L14.774 -42.7843
L14.8659 -43.075
L14.9605 -43.364
L15.0579 -43.6514
L15.158 -43.9372
L15.2608 -44.2215
L15.3664 -44.5044
L15.4747 -44.7859
L15.5859 -45.066
L15.6998 -45.3449
L15.8165 -45.6225
L15.9361 -45.8989
L16.0585 -46.1743
L16.1838 -46.4485
L16.312 -46.7218
L16.4432 -46.994
L16.5774 -47.2653
L16.7146 -47.5357
L16.8549 -47.8053
L16.9983 -48.074
L17.1449 -48.342
L17.2947 -48.6093
L17.4478 -48.8758
L17.6043 -49.1417
L17.7641 -49.4069
L17.9275 -49.6716
L18.0943 -49.9356
L18.2648 -50.1991
L18.439 -50.462
L18.617 -50.7245
L18.7988 -50.9864
L18.9846 -51.2478
L19.1744 -51.5088
L19.3683 -51.7692
L19.5664 -52.0292
L19.7689 -52.2887
L19.9758 -52.5477
L20.1872 -52.8063
L20.4032 -53.0643
L20.624 -53.3218
L20.8497 -53.5787
L21.0803 -53.8351
L21.3161 -54.0909
L21.5571 -54.346
L21.8034 -54.6004
L22.0552 -54.8541
L22.3127 -55.107
L22.5759 -55.359
L22.8449 -55.61
L23.1201 -55.86
L23.4014 -56.1089
L23.6889 -56.3566
L23.983 -56.6029
L24.2837 -56.8478
L24.591 -57.0912
L24.9053 -57.3328
L25.2266 -57.5725
L25.555 -57.8102
L25.8908 -58.0457
L26.234 -58.2788
L26.5847 -58.5092
L26.9431 -58.7369
L27.3093 -58.9615
L27.6834 -59.1828
L28.0655 -59.4006
L28.4557 -59.6145
L28.8541 -59.8243
L29.2607 -60.0296
L29.6756 -60.2302
L30.0989 -60.4256
L30.5304 -60.6156
L30.9703 -60.7997
L31.4184 -60.9775
L31.8747 -61.1486
L32.3392 -61.3126
L32.8116 -61.469
L33.2918 -61.6173
L33.7797 -61.7571
L34.2749 -61.8877
L34.7771 -62.0088
L35.2859 -62.1197
L35.801 -62.2198
L36.3217 -62.3087
L36.8475 -62.3855
L37.3778 -62.4498
L37.9116 -62.5008
L38.448 -62.5379
L38.9861 -62.5604
L39.5245 -62.5675
L40.0619 -62.5585
L40.5967 -62.5327
L41.1271 -62.4892
L41.6511 -62.4272
L42.1664 -62.346
L42.6707 -62.2449
L43.1612 -62.123
L43.6353 -61.9799
L44.0903 -61.8151
L44.5234 -61.6285
L44.9326 -61.4202
L45.3161 -61.1908
L45.6726 -60.941
L46.0017 -60.672
L46.3037 -60.3854
L46.5791 -60.0827
L46.8293 -59.7657
L47.0557 -59.4361
L47.2601 -59.0957
L47.444 -58.746
L47.6091 -58.3885
L47.7571 -58.0244
L47.8892 -57.6549
L48.0069 -57.2811
L48.1112 -56.9038
L48.2033 -56.5239
L48.2841 -56.142
L48.3544 -55.7589
L48.415 -55.3749
L48.4665 -54.9908
L48.5096 -54.6068
L48.5448 -54.2234
L48.5727 -53.8409
L48.5936 -53.4597
L48.6081 -53.0801
L48.6166 -52.7022
L48.6193 -52.3263
L48.6166 -51.9527
L48.6089 -51.5814
L48.5964 -51.2127
L48.5795 -50.8467
L48.5583 -50.4835
L48.5331 -50.1232
L48.5042 -49.7659
L48.4717 -49.4116
L48.4359 -49.0605
L48.3969 -48.7126
L48.355 -48.3678
L48.3102 -48.0263
L48.2628 -47.6881
L48.2128 -47.3532
L48.1605 -47.0215
L48.106 -46.693
L48.0493 -46.3678
L47.9906 -46.0459
L47.93 -45.7271
L47.8676 -45.4115
L47.8036 -45.0991
L47.7378 -44.7897
L47.6706 -44.4834
L47.6019 -44.1801
L47.5318 -43.8798
L47.4603 -43.5824
L47.3876 -43.2878
L47.3137 -42.996
L47.2387 -42.707
L47.1625 -42.4206
L47.0853 -42.1368
L47.007 -41.8556
L46.9278 -41.5769
L46.8476 -41.3006
L46.7665 -41.0267
L46.6845 -40.755
L46.6016 -40.4856
L46.5179 -40.2183
L46.4333 -39.9531
L46.348 -39.69
L46.2618 -39.4288
L46.1749 -39.1695
L46.0872 -38.9121
L45.9987 -38.6564
L45.9095 -38.4024
L45.8195 -38.15
L45.7287 -37.8992
L45.6372 -37.6499
L45.545 -37.402
L45.452 -37.1555
L45.3582 -36.9103
L45.2636 -36.6663
L45.1683 -36.4235
L45.0722 -36.1819
L44.9753 -35.9413
L44.8776 -35.7017
L44.7791 -35.463
L44.6798 -35.2252
L44.5796 -34.9882
L44.4785 -34.752
L44.3765 -34.5165
L44.2737 -34.2816
L44.1699 -34.0473
z
" id="C0_1_d06b3a7e02"/>
    </defs>
    <g clip-path="url(#p1bffca34e9)">
     <use style="fill:#ffffff;stroke:#000000;stroke-width:2.0;" x="0.0" xlink:href="#C0_0_a811fe30f3" y="72.0"/>
    </g>
    <g clip-path="url(#p1bffca34e9)">
     <use style="fill:#ff0000;stroke:#000000;stroke-width:2.0;" x="0.0" xlink:href="#C0_1_d06b3a7e02" y="72.0"/>
    </g>
   </g>
  </g>
 </g>
 <defs>
  <clipPath id="p1bffca34e9">
   <rect height="72.0" width="72.0" x="0.0" y="0.0"/>
  </clipPath>
 </defs>
</svg>
