<?xml version="1.0" encoding="utf-8" standalone="no"?>
<!DOCTYPE svg PUBLIC "-//W3C//DTD SVG 1.1//EN"
  "http://www.w3.org/Graphics/SVG/1.1/DTD/svg11.dtd">
<!-- Created with matplotlib (http://matplotlib.org/) -->
<svg height="72pt" version="1.1" viewBox="0 0 72 72" width="72pt" xmlns="http://www.w3.org/2000/svg" xmlns:xlink="http://www.w3.org/1999/xlink">
 <defs>
  <style type="text/css">
*{stroke-linecap:butt;stroke-linejoin:round;}
  </style>
 </defs>
 <g id="figure_1">
  <g id="patch_1">
   <path d="
M0 72
L72 72
L72 0
L0 0
z
" style="fill:none;"/>
  </g>
  <g id="axes_1">
   <g id="PatchCollection_1">
    <defs>
     <path d="
M36 -7.5
C43.5583 -7.5 50.808 -10.5029 56.1525 -15.8475
C61.4971 -21.192 64.5 -28.4417 64.5 -36
C64.5 -43.5583 61.4971 -50.808 56.1525 -56.1525
C50.808 -61.4971 43.5583 -64.5 36 -64.5
C28.4417 -64.5 21.192 -61.4971 15.8475 -56.1525
C10.5029 -50.808 7.5 -43.5583 7.5 -36
C7.5 -28.4417 10.5029 -21.192 15.8475 -15.8475
C21.192 -10.5029 28.4417 -7.5 36 -7.5
z
" id="C0_0_a811fe30f3"/>
     <path d="
M17.9144 -57.8442
L18.0878 -57.6499
L18.2429 -57.431
L18.3823 -57.1904
L18.5083 -56.9309
L18.6233 -56.6551
L18.7294 -56.3653
L18.8283 -56.0636
L18.9216 -55.752
L19.0107 -55.4319
L19.0968 -55.1049
L19.1807 -54.7723
L19.2632 -54.4351
L19.345 -54.0943
L19.4267 -53.7508
L19.5086 -53.4053
L19.591 -53.0584
L19.6743 -52.7108
L19.7586 -52.3628
L19.8441 -52.0151
L19.9309 -51.668
L20.0191 -51.3217
L20.1087 -50.9767
L20.1997 -50.6332
L20.2922 -50.2914
L20.3861 -49.9516
L20.4814 -49.6139
L20.5781 -49.2784
L20.6762 -48.9454
L20.7755 -48.6149
L20.8761 -48.287
L20.9778 -47.9618
L21.0807 -47.6394
L21.1847 -47.3198
L21.2897 -47.0031
L21.3957 -46.6893
L21.5027 -46.3783
L21.6104 -46.0703
L21.7191 -45.7653
L21.8284 -45.4631
L21.9386 -45.1639
L22.0493 -44.8675
L22.1608 -44.5741
L22.2728 -44.2834
L22.3854 -43.9956
L22.4986 -43.7106
L22.6123 -43.4283
L22.7264 -43.1486
L22.841 -42.8716
L22.956 -42.5973
L23.0715 -42.3254
L23.1873 -42.056
L23.3035 -41.7891
L23.4201 -41.5246
L23.537 -41.2623
L23.6543 -41.0024
L23.7719 -40.7446
L23.8898 -40.489
L24.0081 -40.2354
L24.1266 -39.9839
L24.2456 -39.7344
L24.3648 -39.4867
L24.4844 -39.2409
L24.6043 -38.9968
L24.7246 -38.7545
L24.8452 -38.5138
L24.9661 -38.2747
L25.0874 -38.0372
L25.2092 -37.8011
L25.3313 -37.5664
L25.4538 -37.3331
L25.5767 -37.101
L25.7001 -36.8702
L25.8239 -36.6405
L25.9482 -36.412
L26.0731 -36.1845
L26.1984 -35.958
L26.3242 -35.7325
L26.4506 -35.5078
L26.5776 -35.2839
L26.7053 -35.0609
L26.8335 -34.8385
L26.9624 -34.6168
L27.092 -34.3956
L27.2223 -34.1751
L27.4851 -33.955
L27.6178 -33.7354
L27.7512 -33.5161
L27.8855 -33.2972
L28.0207 -33.0785
L28.1569 -32.8601
L28.294 -32.6419
L28.4321 -32.4237
L28.5713 -32.2057
L28.7116 -31.9877
L28.8529 -31.7696
L28.9955 -31.5515
L29.1392 -31.3333
L29.2842 -31.1149
L29.4304 -30.8962
L29.578 -30.6773
L29.727 -30.4581
L29.8773 -30.2385
L30.0292 -30.0185
L30.1825 -29.7981
L30.3374 -29.5772
L30.4939 -29.3557
L30.652 -29.1336
L30.8119 -28.9109
L30.9735 -28.6876
L31.1369 -28.4635
L31.3022 -28.2387
L31.4694 -28.013
L31.6385 -27.7866
L31.8097 -27.5593
L31.983 -27.3311
L32.1584 -27.1019
L32.3359 -26.8718
L32.5158 -26.6407
L32.6979 -26.4086
L32.8823 -26.1754
L33.0692 -25.9411
L33.2586 -25.7057
L33.4504 -25.4692
L33.6449 -25.2316
L33.842 -24.9927
L34.0418 -24.7528
L34.2443 -24.5116
L34.4496 -24.2692
L34.6577 -24.0256
L34.8687 -23.7808
L35.0826 -23.5348
L35.2995 -23.2877
L35.5194 -23.0393
L35.7423 -22.7898
L35.9682 -22.5392
L36.1972 -22.2874
L36.4293 -22.0345
L36.6645 -21.7806
L36.9028 -21.5257
L37.1442 -21.2698
L37.3886 -21.013
L37.636 -20.7554
L37.8864 -20.4969
L38.1397 -20.2378
L38.3958 -19.978
L38.6546 -19.7176
L38.916 -19.4567
L39.1799 -19.1954
L39.4461 -18.9339
L39.7143 -18.6721
L39.9844 -18.4103
L40.2559 -18.1484
L40.5287 -17.8866
L40.8023 -17.625
L41.0763 -17.3637
L41.3502 -17.1028
L41.6233 -16.8423
L41.8949 -16.5823
L42.1643 -16.3229
L42.4305 -16.064
L42.6925 -15.8057
L42.9489 -15.5479
L43.1984 -15.2906
L43.4392 -15.0336
L43.6696 -14.7766
L43.8871 -14.5196
L44.0895 -14.262
L44.2739 -14.0035
L44.4374 -13.7436
L44.5767 -13.4819
L44.6884 -13.2176
L44.7692 -12.9502
L44.8161 -12.6791
L44.8264 -12.404
L44.7981 -12.1246
L44.7301 -11.8408
L44.622 -11.5529
L44.4743 -11.2614
L44.2885 -10.9673
L44.0665 -10.6715
L43.8106 -10.3753
L43.5235 -10.0799
L43.2078 -9.78673
L42.8662 -9.49702
L42.501 -9.21198
L42.1148 -8.93273
L41.7095 -8.66029
L41.2873 -8.39555
L40.8243 -8.13931
L40.3333 -7.91128
L39.8411 -7.83136
L39.3476 -7.76002
L38.8532 -7.69729
L38.3578 -7.64318
L37.8618 -7.5977
L37.3652 -7.56088
L36.8681 -7.53271
L36.3708 -7.51323
L35.8734 -7.50241
L35.3761 -7.50028
L34.8789 -7.50683
L34.382 -7.52206
L33.8857 -7.54596
L33.39 -7.57853
L32.8951 -7.61976
L32.4011 -7.66964
L31.9083 -7.72814
L31.4166 -7.79525
L30.9264 -7.87096
L30.4378 -7.95523
L29.9508 -8.04805
L29.4656 -8.14938
L28.9825 -8.2592
L28.5015 -8.37746
L28.0227 -8.50414
L27.5464 -8.6392
L27.0727 -8.78259
L26.6017 -8.93427
L26.1336 -9.09419
L25.6685 -9.26231
L25.2065 -9.43858
L24.7478 -9.62293
L24.2925 -9.81533
L23.8408 -10.0157
L23.3928 -10.224
L22.9486 -10.4401
L22.5084 -10.664
L22.0724 -10.8957
L21.6405 -11.1349
L21.2131 -11.3818
L20.7901 -11.6362
L20.3718 -11.8979
L19.9582 -12.1671
L19.5496 -12.4434
L19.1459 -12.727
L18.7474 -13.0176
L18.3541 -13.3153
L17.9662 -13.6198
L17.5838 -13.9312
L17.207 -14.2493
L16.8359 -14.574
L16.4707 -14.9053
L16.1114 -15.2429
L15.7582 -15.5869
L15.4111 -15.9372
L15.0703 -16.2935
L14.7359 -16.6558
L14.408 -17.024
L14.0866 -17.398
L13.7719 -17.7777
L13.464 -18.1629
L13.1629 -18.5536
L12.8688 -18.9495
L12.5818 -19.3507
L12.3019 -19.7569
L12.0292 -20.1681
L11.7638 -20.5841
L11.5058 -21.0048
L11.2552 -21.4301
L11.0122 -21.8598
L10.7768 -22.2938
L10.5491 -22.7319
L10.3291 -23.1742
L10.117 -23.6203
L9.91273 -24.0702
L9.71642 -24.5237
L9.52811 -24.9808
L9.34786 -25.4412
L9.17573 -25.9048
L9.01178 -26.3715
L8.85604 -26.8411
L8.70858 -27.3135
L8.56942 -27.7885
L8.43863 -28.2661
L8.31622 -28.746
L8.20225 -29.2281
L8.09675 -29.7123
L7.99975 -30.1984
L7.91128 -30.6862
L7.83136 -31.1757
L7.76002 -31.6667
L7.69729 -32.1589
L7.64318 -32.6524
L7.5977 -33.1468
L7.56088 -33.6422
L7.53271 -34.1382
L7.51323 -34.6348
L7.50241 -35.1319
L7.50028 -35.6292
L7.50683 -36.1266
L7.52206 -36.6239
L7.54596 -37.1211
L7.57853 -37.618
L7.61976 -38.1143
L7.66964 -38.61
L7.72814 -39.1049
L7.79525 -39.5989
L7.87096 -40.0917
L7.95523 -40.5834
L8.04805 -41.0736
L8.14938 -41.5622
L8.2592 -42.0492
L8.37746 -42.5344
L8.50414 -43.0175
L8.6392 -43.4985
L8.78259 -43.9773
L8.93427 -44.4536
L9.09419 -44.9273
L9.26231 -45.3983
L9.43858 -45.8664
L9.62293 -46.3315
L9.81533 -46.7935
L10.0157 -47.2522
L10.224 -47.7075
L10.4401 -48.1592
L10.664 -48.6072
L10.8957 -49.0514
L11.1349 -49.4916
L11.3818 -49.9276
L11.6362 -50.3595
L11.8979 -50.7869
L12.1671 -51.2099
L12.4434 -51.6282
L12.727 -52.0418
L13.0176 -52.4504
L13.3153 -52.8541
L13.6198 -53.2526
L13.9312 -53.6459
L14.2493 -54.0338
L14.574 -54.4162
L14.9053 -54.793
L15.2429 -55.1641
L15.5869 -55.5293
L15.9372 -55.8886
L16.2935 -56.2418
L16.6558 -56.5889
L17.024 -56.9297
L17.398 -57.2641
z
" id="C0_1_e6b0c4d521"/>
     <path d="
M31.158 -64.0622
L31.6579 -63.9796
L32.1581 -63.8907
L32.6575 -63.7954
L33.155 -63.6933
L33.6497 -63.5845
L34.1409 -63.4688
L34.6277 -63.3464
L35.1098 -63.2174
L35.5864 -63.0819
L36.0574 -62.94
L36.5222 -62.7921
L36.9805 -62.6382
L37.4322 -62.4786
L37.877 -62.3137
L38.3148 -62.1435
L38.7454 -61.9684
L39.1687 -61.7887
L39.5848 -61.6045
L39.9934 -61.4162
L40.3948 -61.2239
L40.7887 -61.0279
L41.1753 -60.8285
L41.5547 -60.6258
L41.9268 -60.42
L42.2918 -60.2114
L42.6497 -60.0001
L43.0006 -59.7864
L43.3446 -59.5704
L43.6818 -59.3522
L44.0123 -59.132
L44.3363 -58.91
L44.6539 -58.6863
L44.9651 -58.461
L45.2702 -58.2342
L45.5692 -58.0061
L45.8622 -57.7767
L46.1494 -57.5461
L46.431 -57.3144
L46.7069 -57.0817
L46.9775 -56.8481
L47.2427 -56.6136
L47.5028 -56.3782
L47.7578 -56.1421
L48.0078 -55.9053
L48.2531 -55.6677
L48.4936 -55.4295
L48.7295 -55.1907
L48.961 -54.9513
L49.1881 -54.7112
L49.4109 -54.4706
L49.6295 -54.2295
L49.8441 -53.9877
L50.0548 -53.7455
L50.2616 -53.5026
L50.4646 -53.2592
L50.6639 -53.0153
L50.8596 -52.7707
L51.0518 -52.5256
L51.2406 -52.2799
L51.4261 -52.0335
L51.6082 -51.7865
L51.7872 -51.5388
L51.963 -51.2905
L52.1358 -51.0414
L52.3056 -50.7915
L52.4724 -50.5409
L52.6364 -50.2894
L52.7975 -50.0371
L52.9559 -49.7839
L53.1115 -49.5298
L53.2645 -49.2747
L53.4149 -49.0185
L53.5627 -48.7613
L53.708 -48.503
L53.8507 -48.2436
L53.991 -47.9829
L54.1289 -47.721
L54.2643 -47.4578
L54.3974 -47.1932
L54.5282 -46.9272
L54.6566 -46.6597
L54.7827 -46.3907
L54.9066 -46.1201
L55.0281 -45.8478
L55.1474 -45.5739
L55.2644 -45.2981
L55.3792 -45.0205
L55.4917 -44.7411
L55.602 -44.4596
L55.71 -44.1761
L55.8158 -43.8906
L55.9193 -43.6028
L56.0206 -43.3128
L56.1195 -43.0205
L56.2161 -42.7258
L56.3104 -42.4287
L56.4023 -42.129
L56.4919 -41.8267
L56.579 -41.5217
L56.6636 -41.214
L56.7458 -40.9035
L56.8254 -40.59
L56.9024 -40.2736
L56.9768 -39.9541
L57.0484 -39.6315
L57.1173 -39.3056
L57.1834 -38.9765
L57.2466 -38.6441
L57.3069 -38.3081
L57.364 -37.9687
L57.4181 -37.6258
L57.4689 -37.2791
L57.5165 -36.9288
L57.5606 -36.5747
L57.6012 -36.2167
L57.6382 -35.8549
L57.6715 -35.4891
L57.7009 -35.1193
L57.7264 -34.7454
L57.7477 -34.3675
L57.7649 -33.9854
L57.7777 -33.5992
L57.786 -33.2088
L57.7897 -32.8141
L57.7885 -32.4153
L57.7825 -32.0123
L57.7713 -31.6051
L57.7549 -31.1937
L57.7332 -30.7781
L57.7058 -30.3585
L57.6728 -29.9349
L57.6339 -29.5072
L57.589 -29.0758
L57.5379 -28.6405
L57.4806 -28.2016
L57.4168 -27.7593
L57.3465 -27.3136
L57.2696 -26.8648
L57.1859 -26.413
L57.0955 -25.9586
L56.9982 -25.5018
L56.8942 -25.0428
L56.7833 -24.5821
L56.6657 -24.1199
L56.5415 -23.6567
L56.4108 -23.1929
L56.2741 -22.7289
L56.1315 -22.2654
L55.9835 -21.8028
L55.8307 -21.3417
L55.6737 -20.8829
L55.5135 -20.4271
L55.3509 -19.975
L55.1873 -19.5276
L55.0241 -19.0859
L54.863 -18.6507
L54.706 -18.2234
L54.5555 -17.805
L54.4139 -17.3969
L54.2843 -17.0005
L54.1698 -16.6171
L54.0736 -16.2481
L53.999 -15.895
L53.949 -15.5589
L53.9263 -15.2409
L53.9329 -14.9419
L53.9701 -14.6622
L54.0382 -14.4021
L54.5883 -14.1614
L54.9625 -14.3962
L55.3309 -14.7239
L55.6935 -15.0581
L56.05 -15.3986
L56.4005 -15.7454
L56.7447 -16.0985
L57.0826 -16.4575
L57.4141 -16.8225
L57.739 -17.1934
L58.0574 -17.57
L58.369 -17.9522
L58.6738 -18.3399
L58.9717 -18.733
L59.2626 -19.1313
L59.5464 -19.5348
L59.823 -19.9433
L60.0924 -20.3567
L60.3545 -20.7748
L60.6091 -21.1976
L60.8562 -21.6249
L61.0958 -22.0566
L61.3277 -22.4925
L61.5519 -22.9326
L61.7683 -23.3766
L61.9769 -23.8245
L62.1775 -24.276
L62.3702 -24.7312
L62.5549 -25.1898
L62.7314 -25.6516
L62.8998 -26.1166
L63.0601 -26.5847
L63.212 -27.0556
L63.3557 -27.5292
L63.4911 -28.0054
L63.6181 -28.4841
L63.7367 -28.965
L63.8468 -29.4481
L63.9484 -29.9331
L64.0415 -30.42
L64.1261 -30.9087
L64.2021 -31.3988
L64.2696 -31.8904
L64.3284 -32.3832
L64.3786 -32.8771
L64.4201 -33.372
L64.453 -33.8677
L64.4772 -34.364
L64.4928 -34.8608
L64.4996 -35.358
L64.4978 -35.8554
L64.4873 -36.3528
L64.4681 -36.8501
L64.4403 -37.3471
L64.4038 -37.8438
L64.3586 -38.3398
L64.3048 -38.8352
L64.2424 -39.3297
L64.1714 -39.8232
L64.0918 -40.3155
L64.0036 -40.8065
L63.9069 -41.296
L63.8017 -41.7839
L63.6881 -42.2701
L63.566 -42.7544
L63.4355 -43.2365
L63.2966 -43.7165
L63.1495 -44.1942
L62.994 -44.6693
L62.8304 -45.1418
L62.6585 -45.6115
L62.4786 -46.0783
L62.2906 -46.5421
L62.0945 -47.0026
L61.8906 -47.4597
L61.6787 -47.9134
L61.459 -48.3634
L61.2316 -48.8097
L60.9965 -49.2521
L60.7537 -49.6904
L60.5034 -50.1246
L60.2457 -50.5544
L59.9806 -50.9799
L59.7081 -51.4007
L59.4285 -51.8169
L59.1417 -52.2282
L58.8479 -52.6347
L58.5471 -53.036
L58.2394 -53.4322
L57.925 -53.823
L57.6038 -54.2084
L57.2761 -54.5883
L56.9419 -54.9625
L56.6014 -55.3309
L56.2546 -55.6935
L55.9015 -56.05
L55.5425 -56.4005
L55.1775 -56.7447
L54.8066 -57.0826
L54.43 -57.4141
L54.0478 -57.739
L53.6601 -58.0574
L53.267 -58.369
L52.8687 -58.6738
L52.4652 -58.9717
L52.0567 -59.2626
L51.6433 -59.5464
L51.2252 -59.823
L50.8024 -60.0924
L50.3751 -60.3545
L49.9434 -60.6091
L49.5075 -60.8562
L49.0674 -61.0958
L48.6234 -61.3277
L48.1755 -61.5519
L47.724 -61.7683
L47.2688 -61.9769
L46.8102 -62.1775
L46.3484 -62.3702
L45.8834 -62.5549
L45.4153 -62.7314
L44.9444 -62.8998
L44.4708 -63.0601
L43.9946 -63.212
L43.5159 -63.3557
L43.035 -63.4911
L42.5519 -63.6181
L42.0669 -63.7367
L41.58 -63.8468
L41.0913 -63.9484
L40.6012 -64.0415
L40.1096 -64.1261
L39.6168 -64.2021
L39.1229 -64.2696
L38.628 -64.3284
L38.1323 -64.3786
L37.636 -64.4201
L37.1392 -64.453
L36.642 -64.4772
L36.1446 -64.4928
L35.6472 -64.4996
L35.1499 -64.4978
L34.6529 -64.4873
L34.1562 -64.4681
L33.6602 -64.4403
L33.1648 -64.4038
L32.6703 -64.3586
L32.1768 -64.3048
L31.6845 -64.2424
z
" id="C0_2_ccbe3443ef"/>
    </defs>
    <g clip-path="url(#p1bffca34e9)">
     <use style="fill:#ff0000;stroke:#000000;stroke-width:2.0;" x="0.0" xlink:href="#C0_0_a811fe30f3" y="72.0"/>
    </g>
    <g clip-path="url(#p1bffca34e9)">
     <use style="fill:#ffffff;stroke:#000000;stroke-width:2.0;" x="0.0" xlink:href="#C0_1_e6b0c4d521" y="72.0"/>
    </g>
    <g clip-path="url(#p1bffca34e9)">
     <use style="fill:#ffffff;stroke:#000000;stroke-width:2.0;" x="0.0" xlink:href="#C0_2_ccbe3443ef" y="72.0"/>
    </g>
   </g>
  </g>
 </g>
 <defs>
  <clipPath id="p1bffca34e9">
   <rect height="72.0" width="72.0" x="0.0" y="0.0"/>
  </clipPath>
 </defs>
</svg>
