<?xml version="1.0" encoding="utf-8" standalone="no"?>
<!DOCTYPE svg PUBLIC "-//W3C//DTD SVG 1.1//EN"
  "http://www.w3.org/Graphics/SVG/1.1/DTD/svg11.dtd">
<!-- Created with matplotlib (http://matplotlib.org/) -->
<svg height="72pt" version="1.1" viewBox="0 0 72 72" width="72pt" xmlns="http://www.w3.org/2000/svg" xmlns:xlink="http://www.w3.org/1999/xlink">
 <defs>
  <style type="text/css">
*{stroke-linecap:butt;stroke-linejoin:round;}
  </style>
 </defs>
 <g id="figure_1">
  <g id="patch_1">
   <path d="
M0 72
L72 72
L72 0
L0 0
z
" style="fill:none;"/>
  </g>
  <g id="axes_1">
   <g id="PatchCollection_1">
    <defs>
     <path d="
M36 -7.5
C43.5583 -7.5 50.808 -10.5029 56.1525 -15.8475
C61.4971 -21.192 64.5 -28.4417 64.5 -36
C64.5 -43.5583 61.4971 -50.808 56.1525 -56.1525
C50.808 -61.4971 43.5583 -64.5 36 -64.5
C28.4417 -64.5 21.192 -61.4971 15.8475 -56.1525
C10.5029 -50.808 7.5 -43.5583 7.5 -36
C7.5 -28.4417 10.5029 -21.192 15.8475 -15.8475
C21.192 -10.5029 28.4417 -7.5 36 -7.5
z
" id="C0_0_a811fe30f3"/>
     <path d="
M58.1512 -18.2972
L57.9943 -18.4969
L57.841 -18.7044
L57.6908 -18.9192
L57.5434 -19.1403
L57.3984 -19.3673
L57.2555 -19.5994
L57.1144 -19.8362
L56.9749 -20.077
L56.8366 -20.3214
L56.6995 -20.5689
L56.5633 -20.8191
L56.4279 -21.0716
L56.2931 -21.3261
L56.1587 -21.5821
L56.0247 -21.8394
L55.891 -22.0977
L55.7574 -22.3567
L55.624 -22.6163
L55.4906 -22.8762
L55.3572 -23.1361
L55.2237 -23.396
L55.0902 -23.6557
L54.9565 -23.915
L54.8227 -24.1738
L54.6888 -24.4319
L54.5547 -24.6893
L54.4203 -24.9459
L54.2858 -25.2016
L54.1511 -25.4563
L54.0161 -25.71
L53.881 -25.9626
L53.7456 -26.2141
L53.61 -26.4643
L53.4742 -26.7134
L53.3381 -26.9612
L53.2019 -27.2078
L53.0654 -27.4531
L52.9287 -27.6972
L52.7918 -27.9399
L52.6546 -28.1814
L52.5173 -28.4215
L52.3797 -28.6604
L52.2418 -28.8981
L52.1038 -29.1345
L51.9655 -29.3696
L51.8269 -29.6035
L51.6881 -29.8363
L51.5491 -30.0678
L51.4097 -30.2982
L51.2702 -30.5275
L51.1303 -30.7556
L50.9901 -30.9827
L50.8497 -31.2087
L50.7089 -31.4337
L50.5678 -31.6578
L50.4264 -31.8809
L50.2846 -32.103
L50.1425 -32.3243
L50 -32.5448
L49.857 -32.7644
L49.7137 -32.9832
L49.57 -33.2013
L49.4258 -33.4188
L49.2811 -33.6355
L49.1359 -33.8516
L48.9903 -34.0672
L48.8441 -34.2821
L48.6973 -34.4966
L48.55 -34.7106
L48.4021 -34.9241
L48.2536 -35.1373
L48.1045 -35.3501
L47.9546 -35.5626
L47.6529 -35.7748
L47.5009 -35.9868
L47.3482 -36.1985
L47.1947 -36.4101
L47.0403 -36.6216
L46.8851 -36.8329
L46.729 -37.0443
L46.572 -37.2556
L46.4141 -37.4669
L46.2552 -37.6784
L46.0953 -37.8899
L45.9344 -38.1015
L45.7725 -38.3134
L45.6094 -38.5254
L45.4453 -38.7377
L45.2799 -38.9503
L45.1135 -39.1632
L44.9457 -39.3765
L44.7768 -39.5901
L44.6066 -39.8042
L44.4351 -40.0188
L44.2622 -40.2338
L44.088 -40.4494
L43.9124 -40.6656
L43.7354 -40.8823
L43.5569 -41.0997
L43.3769 -41.3178
L43.1954 -41.5365
L43.0124 -41.756
L42.8278 -41.9762
L42.6417 -42.1971
L42.4539 -42.4189
L42.2645 -42.6416
L42.0734 -42.865
L41.8807 -43.0894
L41.6863 -43.3146
L41.4902 -43.5408
L41.2923 -43.7679
L41.0928 -43.996
L40.8915 -44.2251
L40.6885 -44.4552
L40.4838 -44.6862
L40.2773 -44.9183
L40.0692 -45.1515
L39.8594 -45.3856
L39.6479 -45.6209
L39.4348 -45.8572
L39.2201 -46.0945
L39.0038 -46.3329
L38.786 -46.5724
L38.5668 -46.813
L38.3462 -47.0546
L38.1243 -47.2973
L37.9013 -47.541
L37.6771 -47.7857
L37.452 -48.0315
L37.226 -48.2783
L36.9993 -48.5261
L36.7721 -48.7749
L36.5445 -49.0247
L36.3168 -49.2754
L36.0891 -49.5271
L35.8618 -49.7797
L35.635 -50.0332
L35.4091 -50.2876
L35.1843 -50.5428
L34.9611 -50.799
L34.7398 -51.056
L34.5208 -51.3138
L34.3044 -51.5725
L34.0913 -51.832
L33.8819 -52.0923
L33.6766 -52.3535
L33.4762 -52.6155
L33.2811 -52.8784
L33.092 -53.1422
L32.9096 -53.4069
L32.7346 -53.6725
L32.5676 -53.939
L32.4094 -54.2066
L32.2608 -54.4752
L32.1224 -54.7448
L31.9951 -55.0154
L31.8795 -55.2872
L31.7765 -55.5601
L31.6867 -55.834
L31.6107 -56.109
L31.5492 -56.385
L31.5026 -56.662
L31.4715 -56.9398
L31.4562 -57.2184
L31.4571 -57.4976
L31.4743 -57.7772
L31.508 -58.057
L31.5582 -58.3367
L31.6249 -58.6161
L31.7079 -58.8949
L31.8069 -59.1728
L31.9218 -59.4494
L32.0522 -59.7243
L32.1976 -59.9972
L32.3577 -60.2678
L32.5319 -60.5356
L32.7198 -60.8003
L32.9207 -61.0615
L33.1343 -61.3189
L33.3599 -61.5721
L33.5969 -61.8208
L33.8449 -62.0646
L34.1033 -62.3033
L34.3716 -62.5366
L34.6493 -62.7641
L34.9358 -62.9858
L35.2306 -63.2013
L35.5334 -63.4105
L35.8436 -63.6131
L36.1608 -63.8089
L36.4846 -63.998
L36.8146 -64.18
L37.3155 -64.3548
L37.8121 -64.4696
L38.3083 -64.4423
L38.8037 -64.4064
L39.2982 -64.3618
L39.7918 -64.3085
L40.2842 -64.2466
L40.7752 -64.1762
L41.2649 -64.0971
L41.7529 -64.0095
L42.2392 -63.9133
L42.7236 -63.8087
L43.2059 -63.6956
L43.686 -63.574
L44.1638 -63.444
L44.6391 -63.3057
L45.1118 -63.1591
L45.5817 -63.0042
L46.0487 -62.841
L46.5126 -62.6697
L46.9733 -62.4903
L47.4307 -62.3028
L47.8846 -62.1073
L48.3349 -61.9038
L48.7814 -61.6924
L49.224 -61.4732
L49.6626 -61.2463
L50.097 -61.0117
L50.5272 -60.7694
L50.9529 -60.5196
L51.3741 -60.2623
L51.7905 -59.9977
L52.2022 -59.7257
L52.6089 -59.4465
L53.0106 -59.1602
L53.4071 -58.8668
L53.7983 -58.5664
L54.184 -58.2592
L54.5643 -57.9452
L54.9388 -57.6245
L55.3076 -57.2972
L55.6706 -56.9634
L56.0275 -56.6233
L56.3783 -56.2768
L56.7229 -55.9242
L57.0612 -55.5655
L57.3931 -55.2009
L57.7185 -54.8304
L58.0373 -54.4542
L58.3493 -54.0723
L58.6546 -53.6849
L58.9529 -53.2922
L59.2443 -52.8942
L59.5285 -52.491
L59.8056 -52.0829
L60.0755 -51.6698
L60.338 -51.2519
L60.5931 -50.8294
L60.8407 -50.4024
L61.0808 -49.971
L61.3132 -49.5354
L61.5379 -49.0956
L61.7548 -48.6518
L61.9638 -48.2042
L62.165 -47.7528
L62.3582 -47.2979
L62.5434 -46.8396
L62.7204 -46.3779
L62.8894 -45.9131
L63.0501 -45.4452
L63.2026 -44.9745
L63.3468 -44.501
L63.4827 -44.025
L63.6102 -43.5465
L63.7294 -43.0657
L63.84 -42.5828
L63.9422 -42.0978
L64.0359 -41.611
L64.121 -41.1225
L64.1976 -40.6324
L64.2655 -40.1409
L64.3249 -39.6482
L64.3756 -39.1543
L64.4177 -38.6595
L64.4512 -38.1639
L64.4759 -37.6676
L64.492 -37.1708
L64.4995 -36.6737
L64.4982 -36.1763
L64.4882 -35.6789
L64.4696 -35.1816
L64.4423 -34.6845
L64.4064 -34.1879
L64.3618 -33.6917
L64.3085 -33.1963
L64.2466 -32.7018
L64.1762 -32.2082
L64.0971 -31.7158
L64.0095 -31.2248
L63.9133 -30.7351
L63.8087 -30.2471
L63.6956 -29.7608
L63.574 -29.2764
L63.444 -28.7941
L63.3057 -28.314
L63.1591 -27.8362
L63.0042 -27.3609
L62.841 -26.8882
L62.6697 -26.4183
L62.4903 -25.9513
L62.3028 -25.4874
L62.1073 -25.0267
L61.9038 -24.5693
L61.6924 -24.1154
L61.4732 -23.6651
L61.2463 -23.2186
L61.0117 -22.776
L60.7694 -22.3374
L60.5196 -21.903
L60.2623 -21.4728
L59.9977 -21.0471
L59.7257 -20.6259
L59.4465 -20.2095
L59.1602 -19.7978
L58.8668 -19.3911
z
" id="C0_1_d84886ad09"/>
     <path d="
M34.8533 -7.56887
L34.5315 -7.76147
L34.2126 -7.95668
L33.8969 -8.15443
L33.5844 -8.35462
L33.2754 -8.55715
L32.97 -8.76193
L32.6684 -8.96885
L32.3705 -9.17782
L32.0766 -9.38873
L31.7866 -9.6015
L31.5007 -9.81602
L31.2188 -10.0322
L30.9409 -10.25
L30.6672 -10.4692
L30.3975 -10.6898
L30.1319 -10.9118
L29.8704 -11.135
L29.6129 -11.3594
L29.3594 -11.5849
L29.1099 -11.8114
L28.8644 -12.0389
L28.6227 -12.2673
L28.3849 -12.4966
L28.1508 -12.7267
L27.9205 -12.9576
L27.6939 -13.1892
L27.471 -13.4215
L27.2516 -13.6545
L27.0357 -13.8882
L26.8233 -14.1224
L26.6143 -14.3573
L26.4086 -14.5927
L26.2061 -14.8287
L26.0069 -15.0652
L25.8108 -15.3022
L25.6179 -15.5398
L25.4279 -15.7779
L25.2409 -16.0166
L25.0568 -16.2557
L24.8756 -16.4954
L24.6972 -16.7356
L24.5215 -16.9764
L24.3485 -17.2177
L24.1781 -17.4596
L24.0103 -17.702
L23.845 -17.9451
L23.6822 -18.1887
L23.5218 -18.433
L23.3638 -18.678
L23.2082 -18.9236
L23.0548 -19.17
L22.9037 -19.417
L22.7548 -19.6648
L22.608 -19.9135
L22.4634 -20.1629
L22.3208 -20.4132
L22.1804 -20.6643
L22.0419 -20.9164
L21.9054 -21.1694
L21.7709 -21.4234
L21.6383 -21.6784
L21.5076 -21.9345
L21.3788 -22.1917
L21.2518 -22.45
L21.1266 -22.7096
L21.0033 -22.9703
L20.8817 -23.2323
L20.7619 -23.4956
L20.6438 -23.7603
L20.5275 -24.0264
L20.4128 -24.2939
L20.2999 -24.5629
L20.1887 -24.8335
L20.0791 -25.1056
L19.9713 -25.3793
L19.865 -25.6548
L19.7605 -25.932
L19.6576 -26.2109
L19.5564 -26.4917
L19.4568 -26.7743
L19.3589 -27.0589
L19.2627 -27.3454
L19.1681 -27.634
L19.0752 -27.9246
L18.984 -28.2173
L18.8945 -28.5122
L18.8066 -28.8093
L18.7206 -29.1087
L18.6362 -29.4103
L18.5536 -29.7143
L18.4727 -30.0207
L18.3937 -30.3295
L18.3165 -30.6407
L18.241 -30.9545
L18.1675 -31.2708
L18.0958 -31.5897
L18.026 -31.9111
L17.9581 -32.2352
L17.8922 -32.562
L17.8283 -32.8914
L17.7663 -33.2235
L17.7065 -33.5584
L17.6486 -33.8959
L17.5929 -34.2362
L17.5393 -34.5791
L17.4878 -34.9248
L17.4385 -35.2732
L17.3913 -35.6243
L17.3464 -35.978
L17.3037 -36.3344
L17.2633 -36.6933
L17.2251 -37.0547
L17.1891 -37.4187
L17.1554 -37.785
L17.124 -38.1536
L17.0948 -38.5244
L17.0678 -38.8974
L17.043 -39.2724
L17.0204 -39.6492
L16.9998 -40.0278
L16.9813 -40.4079
L16.9647 -40.7895
L16.95 -41.1722
L16.937 -41.556
L16.9256 -41.9405
L16.9157 -42.3256
L16.907 -42.7109
L16.8994 -43.0963
L16.8927 -43.4813
L16.8865 -43.8657
L16.8807 -44.2491
L16.8748 -44.6312
L16.8686 -45.0116
L16.8617 -45.39
L16.8536 -45.7657
L16.8439 -46.1386
L16.8322 -46.508
L16.818 -46.8736
L16.8006 -47.2348
L16.7796 -47.5912
L16.7544 -47.9422
L16.7245 -48.2875
L16.6891 -48.6264
L16.6478 -48.9585
L16.6 -49.2833
L16.5452 -49.6003
L16.4827 -49.9092
L16.4122 -50.2094
L16.3333 -50.5007
L16.2455 -50.7826
L16.1486 -51.0548
L16.0424 -51.3171
L15.9267 -51.5691
L15.8014 -51.8109
L15.6667 -52.0421
L15.5225 -52.2626
L15.3691 -52.4725
L15.2066 -52.6716
L15.0354 -52.86
L14.8558 -53.0376
L14.6682 -53.2046
L14.4729 -53.3609
L14.2704 -53.5067
L14.0612 -53.6421
L13.4589 -53.7672
L13.158 -53.4399
L12.864 -53.0438
L12.5771 -52.6426
L12.2973 -52.2362
L12.0247 -51.825
L11.7594 -51.4089
L11.5015 -50.9881
L11.2511 -50.5628
L11.0082 -50.133
L10.7729 -49.6989
L10.5454 -49.2607
L10.3255 -48.8184
L10.1135 -48.3722
L9.90938 -47.9222
L9.7132 -47.4686
L9.52502 -47.0115
L9.34491 -46.5511
L9.17292 -46.0874
L9.0091 -45.6207
L8.85351 -45.151
L8.70618 -44.6786
L8.56717 -44.2035
L8.43651 -43.7259
L8.31425 -43.246
L8.20042 -42.7638
L8.09506 -42.2796
L7.9982 -41.7935
L7.90987 -41.3056
L7.83009 -40.8161
L7.7589 -40.3251
L7.69631 -39.8328
L7.64234 -39.3393
L7.59701 -38.8449
L7.56033 -38.3495
L7.53232 -37.8535
L7.51297 -37.3568
L7.50231 -36.8598
L7.50032 -36.3625
L7.50701 -35.8651
L7.52239 -35.3677
L7.54644 -34.8706
L7.57915 -34.3737
L7.62053 -33.8774
L7.67054 -33.3817
L7.72919 -32.8868
L7.79645 -32.3929
L7.8723 -31.9
L7.95672 -31.4084
L8.04968 -30.9182
L8.15115 -30.4296
L8.26111 -29.9426
L8.37952 -29.4575
L8.50634 -28.9744
L8.64153 -28.4934
L8.78506 -28.0148
L8.93688 -27.5385
L9.09694 -27.0648
L9.2652 -26.5939
L9.4416 -26.1258
L9.62609 -25.6607
L9.81861 -25.1988
L10.0191 -24.7401
L10.2275 -24.2849
L10.4438 -23.8333
L10.6678 -23.3853
L10.8996 -22.9412
L11.139 -22.5011
L11.386 -22.0651
L11.6405 -21.6333
L11.9024 -21.2059
L12.1716 -20.7831
L12.4481 -20.3648
L12.7318 -19.9513
L13.0226 -19.5428
L13.3203 -19.1392
L13.625 -18.7407
L13.9365 -18.3475
L14.2547 -17.9597
L14.5795 -17.5774
L14.9109 -17.2007
L15.2487 -16.8297
L15.5928 -16.4646
L15.9431 -16.1054
L16.2995 -15.7523
L16.6619 -15.4053
L17.0302 -15.0647
L17.4043 -14.7303
L17.7841 -14.4025
L18.1694 -14.0813
L18.5601 -13.7667
L18.9562 -13.4589
L19.3574 -13.158
L19.7638 -12.864
L20.175 -12.5771
L20.5911 -12.2973
L21.0119 -12.0247
L21.4372 -11.7594
L21.867 -11.5015
L22.3011 -11.2511
L22.7393 -11.0082
L23.1816 -10.7729
L23.6278 -10.5454
L24.0778 -10.3255
L24.5314 -10.1135
L24.9885 -9.90938
L25.4489 -9.7132
L25.9126 -9.52502
L26.3793 -9.34491
L26.849 -9.17292
L27.3214 -9.0091
L27.7965 -8.85351
L28.2741 -8.70618
L28.754 -8.56717
L29.2362 -8.43651
L29.7204 -8.31425
L30.2065 -8.20042
L30.6944 -8.09506
L31.1839 -7.9982
L31.6749 -7.90987
L32.1672 -7.83009
L32.6607 -7.7589
L33.1551 -7.69631
L33.6505 -7.64234
L34.1465 -7.59701
z
" id="C0_2_f84d3cacba"/>
    </defs>
    <g clip-path="url(#p1bffca34e9)">
     <use style="fill:#ffffff;stroke:#000000;stroke-width:2.0;" x="0.0" xlink:href="#C0_0_a811fe30f3" y="72.0"/>
    </g>
    <g clip-path="url(#p1bffca34e9)">
     <use style="fill:#ff0000;stroke:#000000;stroke-width:2.0;" x="0.0" xlink:href="#C0_1_d84886ad09" y="72.0"/>
    </g>
    <g clip-path="url(#p1bffca34e9)">
     <use style="fill:#ff0000;stroke:#000000;stroke-width:2.0;" x="0.0" xlink:href="#C0_2_f84d3cacba" y="72.0"/>
    </g>
   </g>
  </g>
 </g>
 <defs>
  <clipPath id="p1bffca34e9">
   <rect height="72.0" width="72.0" x="0.0" y="0.0"/>
  </clipPath>
 </defs>
</svg>
