<?xml version="1.0" encoding="utf-8" standalone="no"?>
<!DOCTYPE svg PUBLIC "-//W3C//DTD SVG 1.1//EN"
  "http://www.w3.org/Graphics/SVG/1.1/DTD/svg11.dtd">
<!-- Created with matplotlib (http://matplotlib.org/) -->
<svg height="72pt" version="1.1" viewBox="0 0 72 72" width="72pt" xmlns="http://www.w3.org/2000/svg" xmlns:xlink="http://www.w3.org/1999/xlink">
 <defs>
  <style type="text/css">
*{stroke-linecap:butt;stroke-linejoin:round;}
  </style>
 </defs>
 <g id="figure_1">
  <g id="patch_1">
   <path d="
M0 72
L72 72
L72 0
L0 0
z
" style="fill:none;"/>
  </g>
  <g id="axes_1">
   <g id="PatchCollection_1">
    <defs>
     <path d="
M36 -7.5
C43.5583 -7.5 50.808 -10.5029 56.1525 -15.8475
C61.4971 -21.192 64.5 -28.4417 64.5 -36
C64.5 -43.5583 61.4971 -50.808 56.1525 -56.1525
C50.808 -61.4971 43.5583 -64.5 36 -64.5
C28.4417 -64.5 21.192 -61.4971 15.8475 -56.1525
C10.5029 -50.808 7.5 -43.5583 7.5 -36
C7.5 -28.4417 10.5029 -21.192 15.8475 -15.8475
C21.192 -10.5029 28.4417 -7.5 36 -7.5
z
" id="C0_0_a811fe30f3"/>
     <path d="
M13.1453 -19.2378
L13.2298 -19.5081
L13.3368 -19.7614
L13.4653 -19.9982
L13.6138 -20.2194
L13.7812 -20.4258
L13.9661 -20.6185
L14.1669 -20.7984
L14.3825 -20.9667
L14.6113 -21.1246
L14.8521 -21.2731
L15.1037 -21.4133
L15.365 -21.5461
L15.6348 -21.6724
L15.9121 -21.7931
L16.196 -21.9089
L16.4857 -22.0204
L16.7804 -22.1283
L17.0793 -22.2331
L17.3819 -22.3353
L17.6875 -22.4352
L17.9955 -22.5333
L18.3056 -22.6298
L18.6172 -22.725
L18.9299 -22.8192
L19.2434 -22.9125
L19.5574 -23.0051
L19.8715 -23.0972
L20.1854 -23.1889
L20.499 -23.2803
L20.812 -23.3714
L21.1242 -23.4624
L21.4354 -23.5533
L21.7455 -23.6441
L22.0543 -23.735
L22.3617 -23.8259
L22.6677 -23.9168
L22.972 -24.0078
L23.2747 -24.0989
L23.5756 -24.1901
L23.8747 -24.2814
L24.172 -24.3729
L24.4674 -24.4644
L24.7609 -24.5561
L25.0524 -24.6479
L25.342 -24.7398
L25.6296 -24.8319
L25.9152 -24.9241
L26.1989 -25.0163
L26.4806 -25.1088
L26.7603 -25.2013
L27.0381 -25.2939
L27.314 -25.3867
L27.588 -25.4796
L27.8602 -25.5726
L28.1305 -25.6657
L28.399 -25.7589
L28.6658 -25.8523
L28.9308 -25.9457
L29.1942 -26.0393
L29.4559 -26.1331
L29.7159 -26.2269
L29.9745 -26.321
L30.2315 -26.4151
L30.487 -26.5094
L30.7411 -26.6039
L30.9938 -26.6986
L31.2452 -26.7934
L31.4953 -26.8884
L31.7442 -26.9837
L31.9919 -27.0791
L32.2385 -27.1748
L32.484 -27.2706
L32.7285 -27.3668
L32.972 -27.4632
L33.2145 -27.5599
L33.4562 -27.6568
L33.6971 -27.7541
L33.9372 -27.8517
L34.1766 -27.9496
L34.4153 -28.0479
L34.6534 -28.1466
L34.891 -28.2456
L35.128 -28.3451
L35.3646 -28.445
L35.6008 -28.5453
L35.8366 -28.6461
L36.0722 -28.7474
L36.5426 -28.8492
L36.7775 -28.9515
L37.0124 -29.0544
L37.2472 -29.1578
L37.482 -29.2619
L37.7169 -29.3665
L37.9519 -29.4718
L38.1871 -29.5778
L38.4224 -29.6845
L38.6581 -29.7918
L38.894 -29.9
L39.1304 -30.0089
L39.3671 -30.1185
L39.6043 -30.2291
L39.842 -30.3404
L40.0803 -30.4527
L40.3192 -30.5658
L40.5588 -30.6799
L40.799 -30.7949
L41.04 -30.911
L41.2819 -31.028
L41.5245 -31.1461
L41.7681 -31.2653
L42.0126 -31.3856
L42.2581 -31.5071
L42.5047 -31.6297
L42.7523 -31.7535
L43.001 -31.8785
L43.2509 -32.0049
L43.502 -32.1325
L43.7543 -32.2614
L44.0079 -32.3917
L44.2628 -32.5233
L44.5191 -32.6564
L44.7768 -32.7909
L45.0358 -32.9268
L45.2963 -33.0643
L45.5583 -33.2032
L45.8218 -33.3437
L46.0868 -33.4857
L46.3534 -33.6293
L46.6215 -33.7746
L46.8912 -33.9214
L47.1625 -34.0698
L47.4354 -34.2198
L47.71 -34.3715
L47.9861 -34.5248
L48.2638 -34.6798
L48.5431 -34.8363
L48.824 -34.9945
L49.1065 -35.1542
L49.3906 -35.3155
L49.6761 -35.4783
L49.9632 -35.6426
L50.2517 -35.8083
L50.5417 -35.9754
L50.833 -36.1437
L51.1256 -36.3133
L51.4195 -36.4839
L51.7146 -36.6554
L52.0108 -36.8278
L52.308 -37.0008
L52.6062 -37.1743
L52.9053 -37.3481
L53.2051 -37.5219
L53.5056 -37.6955
L53.8066 -37.8685
L54.108 -38.0407
L54.4098 -38.2115
L54.7117 -38.3808
L55.0138 -38.5478
L55.3157 -38.7122
L55.6175 -38.8732
L55.9189 -39.0304
L56.2198 -39.1828
L56.5201 -39.3297
L56.8197 -39.4702
L57.1184 -39.6034
L57.416 -39.728
L57.7124 -39.843
L58.0076 -39.947
L58.3012 -40.0387
L58.5932 -40.1166
L58.8833 -40.1792
L59.1715 -40.225
L59.4574 -40.2524
L59.7408 -40.2597
L60.0215 -40.2455
L60.2991 -40.2085
L60.5733 -40.1473
L60.8436 -40.0609
L61.1097 -39.9487
L61.371 -39.81
L61.6271 -39.6448
L61.8773 -39.4531
L62.1212 -39.2353
L62.3582 -38.9922
L62.5876 -38.7245
L62.8091 -38.4335
L63.022 -38.1203
L63.2259 -37.7862
L63.4204 -37.4327
L63.6049 -37.0612
L63.7793 -36.673
L63.9431 -36.2696
L64.096 -35.8523
L64.2379 -35.4225
L64.3684 -34.9814
L64.4318 -34.5302
L64.393 -34.0288
L64.3456 -33.5329
L64.2896 -33.0378
L64.225 -32.5435
L64.1518 -32.0504
L64.07 -31.5584
L63.9796 -31.0677
L63.8807 -30.5786
L63.7734 -30.0911
L63.6575 -29.6054
L63.5333 -29.1217
L63.4006 -28.64
L63.2596 -28.1606
L63.1103 -27.6836
L62.9528 -27.2091
L62.787 -26.7373
L62.6131 -26.2684
L62.4311 -25.8023
L62.241 -25.3394
L62.0429 -24.8798
L61.8369 -24.4235
L61.6231 -23.9707
L61.4014 -23.5217
L61.172 -23.0764
L60.9349 -22.635
L60.6902 -22.1978
L60.438 -21.7647
L60.1783 -21.3359
L59.9113 -20.9117
L59.637 -20.492
L59.3556 -20.0771
L59.0669 -19.667
L58.7713 -19.2618
L58.4687 -18.8618
L58.1593 -18.467
L57.8432 -18.0775
L57.5203 -17.6935
L57.191 -17.3151
L56.8551 -16.9424
L56.513 -16.5754
L56.1645 -16.2144
L55.81 -15.8594
L55.4493 -15.5106
L55.0828 -15.168
L54.7105 -14.8317
L54.3324 -14.5019
L53.9488 -14.1786
L53.5597 -13.862
L53.1653 -13.5521
L52.7656 -13.2491
L52.3608 -12.953
L51.951 -12.6639
L51.5364 -12.3819
L51.1171 -12.1071
L50.6931 -11.8396
L50.2647 -11.5795
L49.8319 -11.3268
L49.3949 -11.0816
L48.9538 -10.844
L48.5088 -10.614
L48.06 -10.3918
L47.6075 -10.1774
L47.1514 -9.97085
L46.692 -9.77224
L46.2293 -9.58161
L45.7635 -9.39904
L45.2947 -9.22456
L44.8231 -9.05824
L44.3488 -8.90013
L43.872 -8.75027
L43.3927 -8.60872
L42.9112 -8.47551
L42.4276 -8.35068
L41.9421 -8.23427
L41.4547 -8.12632
L40.9657 -8.02686
L40.4751 -7.93593
L39.9832 -7.85354
L39.4901 -7.77972
L38.9959 -7.71451
L38.5008 -7.6579
L38.005 -7.60993
L37.5085 -7.57061
L37.0116 -7.53995
L36.5143 -7.51796
L36.0169 -7.50464
L35.5196 -7.50001
L35.0223 -7.50405
L34.5254 -7.51677
L34.0288 -7.53818
L33.5329 -7.56825
L33.0378 -7.60698
L32.5435 -7.65436
L32.0504 -7.71037
L31.5584 -7.77501
L31.0677 -7.84824
L30.5786 -7.93004
L30.0911 -8.0204
L29.6054 -8.11927
L29.1217 -8.22665
L28.64 -8.34248
L28.1606 -8.46673
L27.6836 -8.59937
L27.2091 -8.74036
L26.7373 -8.88966
L26.2684 -9.04721
L25.8023 -9.21297
L25.3394 -9.38689
L24.8798 -9.56892
L24.4235 -9.75899
L23.9707 -9.95707
L23.5217 -10.1631
L23.0764 -10.3769
L22.635 -10.5986
L22.1978 -10.828
L21.7647 -11.0651
L21.3359 -11.3098
L20.9117 -11.562
L20.492 -11.8217
L20.0771 -12.0887
L19.667 -12.363
L19.2618 -12.6444
L18.8618 -12.9331
L18.467 -13.2287
L18.0775 -13.5313
L17.6935 -13.8407
L17.3151 -14.1568
L16.9424 -14.4797
L16.5754 -14.809
L16.2144 -15.1449
L15.8594 -15.487
L15.5106 -15.8355
L15.168 -16.19
L14.8317 -16.5507
L14.5019 -16.9172
L14.1786 -17.2895
L13.862 -17.6676
L13.5521 -18.0512
z
" id="C0_1_6c0942c128"/>
     <path d="
M7.61807 -37.9228
L7.79596 -38.3653
L7.97881 -38.806
L8.16663 -39.2442
L8.35936 -39.6792
L8.55693 -40.1106
L8.75923 -40.5377
L8.96614 -40.9601
L9.1775 -41.3775
L9.39316 -41.7895
L9.61293 -42.1958
L9.83664 -42.5962
L10.0641 -42.9905
L10.2951 -43.3785
L10.5295 -43.7601
L10.767 -44.1352
L11.0075 -44.5037
L11.2508 -44.8656
L11.4968 -45.2208
L11.7451 -45.5694
L11.9958 -45.9113
L12.2485 -46.2466
L12.5032 -46.5753
L12.7596 -46.8974
L13.0177 -47.213
L13.2774 -47.5223
L13.5384 -47.8252
L13.8007 -48.1218
L14.0641 -48.4123
L14.3287 -48.6967
L14.5941 -48.9751
L14.8605 -49.2476
L15.1276 -49.5144
L15.3954 -49.7755
L15.6639 -50.0311
L15.9329 -50.2812
L16.2025 -50.5259
L16.4725 -50.7654
L16.743 -50.9998
L17.0139 -51.2291
L17.2851 -51.4536
L17.5566 -51.6732
L17.8284 -51.8881
L18.1006 -52.0984
L18.3729 -52.3041
L18.6456 -52.5055
L18.9184 -52.7025
L19.1915 -52.8953
L19.4649 -53.084
L19.7385 -53.2686
L20.0123 -53.4492
L20.2864 -53.626
L20.5608 -53.7989
L20.8354 -53.9681
L21.1104 -54.1337
L21.3856 -54.2957
L21.6612 -54.4541
L21.9372 -54.6092
L22.2136 -54.7608
L22.4904 -54.9092
L22.7677 -55.0542
L23.0454 -55.1961
L23.3237 -55.3348
L23.6025 -55.4705
L23.8819 -55.603
L24.1619 -55.7326
L24.4426 -55.8592
L24.724 -55.9829
L25.0062 -56.1037
L25.2892 -56.2217
L25.573 -56.3368
L25.8577 -56.4491
L26.1433 -56.5587
L26.43 -56.6656
L26.7176 -56.7697
L27.0064 -56.8711
L27.2963 -56.9699
L27.5874 -57.066
L27.8798 -57.1594
L28.1734 -57.2502
L28.4684 -57.3383
L28.7648 -57.4238
L29.0627 -57.5066
L29.3621 -57.5868
L29.6631 -57.6644
L29.9657 -57.7393
L30.2701 -57.8115
L30.5762 -57.881
L30.8841 -57.9478
L31.1939 -58.0119
L31.5056 -58.0732
L31.8193 -58.1318
L32.1351 -58.1875
L32.453 -58.2404
L32.7731 -58.2904
L33.0954 -58.3375
L33.4201 -58.3816
L33.747 -58.4228
L34.0764 -58.4608
L34.4083 -58.4957
L34.7427 -58.5275
L35.0796 -58.556
L35.4192 -58.5813
L35.7615 -58.6032
L36.1066 -58.6216
L36.4544 -58.6365
L36.805 -58.6479
L37.1585 -58.6555
L37.515 -58.6595
L37.8743 -58.6595
L38.2367 -58.6557
L38.6021 -58.6478
L38.9705 -58.6358
L39.3419 -58.6196
L39.7165 -58.5991
L40.0941 -58.5741
L40.4748 -58.5446
L40.8586 -58.5105
L41.2454 -58.4716
L41.6353 -58.4278
L42.0283 -58.3791
L42.4242 -58.3254
L42.8231 -58.2664
L43.2248 -58.2022
L43.6294 -58.1326
L44.0367 -58.0576
L44.4467 -57.9769
L44.8592 -57.8907
L45.2742 -57.7987
L45.6915 -57.7009
L46.1109 -57.5974
L46.5323 -57.4879
L46.9555 -57.3726
L47.3804 -57.2515
L47.8066 -57.1245
L48.234 -56.9917
L48.6623 -56.8532
L49.0912 -56.7091
L49.5205 -56.5596
L49.9498 -56.4049
L50.3788 -56.2452
L50.8071 -56.0809
L51.2343 -55.9122
L51.6601 -55.7397
L52.084 -55.5639
L52.5055 -55.3854
L52.9243 -55.2048
L53.3398 -55.0229
L53.7514 -54.8407
L54.1588 -54.6591
L54.5612 -54.4793
L54.9583 -54.3023
L55.3494 -54.1297
L55.734 -53.9628
L56.1114 -53.8032
L56.4813 -53.6523
L56.8429 -53.512
L57.1958 -53.3837
L57.5396 -53.2691
L57.8738 -53.1696
L58.198 -53.0867
L58.5119 -53.0215
L58.5651 -52.975
L58.2578 -53.4088
L57.9438 -53.8
L57.623 -54.1857
L57.2957 -54.566
L56.9619 -54.9405
L56.6217 -55.3093
L56.2753 -55.6722
L55.9226 -56.0291
L55.5639 -56.3799
L55.1992 -56.7245
L54.8287 -57.0627
L54.4525 -57.3946
L54.0706 -57.72
L53.6832 -58.0387
L53.2904 -58.3507
L52.8924 -58.6559
L52.4892 -58.9542
L52.081 -59.2455
L51.6679 -59.5298
L51.25 -59.8069
L50.8275 -60.0767
L50.4005 -60.3392
L49.9691 -60.5942
L49.5334 -60.8418
L49.0936 -61.0818
L48.6498 -61.3142
L48.2022 -61.5388
L47.7508 -61.7557
L47.2959 -61.9648
L46.8375 -62.1659
L46.3758 -62.359
L45.911 -62.5442
L45.4431 -62.7212
L44.9724 -62.8901
L44.4989 -63.0508
L44.0229 -63.2033
L43.5444 -63.3475
L43.0636 -63.4833
L42.5806 -63.6108
L42.0957 -63.7299
L41.6088 -63.8405
L41.1203 -63.9426
L40.6302 -64.0363
L40.1387 -64.1214
L39.646 -64.1979
L39.1521 -64.2658
L38.6573 -64.3251
L38.1617 -64.3758
L37.6654 -64.4179
L37.1686 -64.4513
L36.6714 -64.476
L36.1741 -64.4921
L35.6767 -64.4995
L35.1794 -64.4982
L34.6823 -64.4882
L34.1856 -64.4695
L33.6895 -64.4422
L33.1941 -64.4062
L32.6996 -64.3615
L32.206 -64.3083
L31.7136 -64.2463
L31.2226 -64.1758
L30.7329 -64.0967
L30.2449 -64.0091
L29.7586 -63.9129
L29.2743 -63.8082
L28.7919 -63.695
L28.3118 -63.5734
L27.834 -63.4434
L27.3587 -63.3051
L26.8861 -63.1584
L26.4162 -63.0035
L25.9492 -62.8403
L25.4853 -62.6689
L25.0246 -62.4895
L24.5673 -62.3019
L24.1134 -62.1064
L23.6631 -61.9029
L23.2166 -61.6915
L22.774 -61.4722
L22.3354 -61.2453
L21.901 -61.0106
L21.4709 -60.7683
L21.0452 -60.5185
L20.6241 -60.2612
L20.2076 -59.9965
L19.796 -59.7245
L19.3893 -59.4452
L18.9876 -59.1589
L18.5912 -58.8655
L18.2 -58.5651
L17.8143 -58.2578
L17.434 -57.9438
L17.0595 -57.623
L16.6907 -57.2957
L16.3278 -56.9619
L15.9709 -56.6217
L15.6201 -56.2753
L15.2755 -55.9226
L14.9373 -55.5639
L14.6054 -55.1992
L14.28 -54.8287
L13.9613 -54.4525
L13.6493 -54.0706
L13.3441 -53.6832
L13.0458 -53.2904
L12.7545 -52.8924
L12.4702 -52.4892
L12.1931 -52.081
L11.9233 -51.6679
L11.6608 -51.25
L11.4058 -50.8275
L11.1582 -50.4005
L10.9182 -49.9691
L10.6858 -49.5334
L10.4612 -49.0936
L10.2443 -48.6498
L10.0352 -48.2022
L9.83412 -47.7508
L9.64097 -47.2959
L9.45584 -46.8375
L9.2788 -46.3758
L9.1099 -45.911
L8.94919 -45.4431
L8.79672 -44.9724
L8.65254 -44.4989
L8.51668 -44.0229
L8.3892 -43.5444
L8.27013 -43.0636
L8.15951 -42.5806
L8.05736 -42.0957
L7.96373 -41.6088
L7.87864 -41.1203
L7.80211 -40.6302
L7.73418 -40.1387
L7.67485 -39.646
L7.62415 -39.1521
z
" id="C0_2_49a7d5583e"/>
    </defs>
    <g clip-path="url(#p1bffca34e9)">
     <use style="fill:#ff0000;stroke:#000000;stroke-width:2.0;" x="0.0" xlink:href="#C0_0_a811fe30f3" y="72.0"/>
    </g>
    <g clip-path="url(#p1bffca34e9)">
     <use style="fill:#ffffff;stroke:#000000;stroke-width:2.0;" x="0.0" xlink:href="#C0_1_6c0942c128" y="72.0"/>
    </g>
    <g clip-path="url(#p1bffca34e9)">
     <use style="fill:#ffffff;stroke:#000000;stroke-width:2.0;" x="0.0" xlink:href="#C0_2_49a7d5583e" y="72.0"/>
    </g>
   </g>
  </g>
 </g>
 <defs>
  <clipPath id="p1bffca34e9">
   <rect height="72.0" width="72.0" x="0.0" y="0.0"/>
  </clipPath>
 </defs>
</svg>
