<?xml version="1.0" encoding="utf-8" standalone="no"?>
<!DOCTYPE svg PUBLIC "-//W3C//DTD SVG 1.1//EN"
  "http://www.w3.org/Graphics/SVG/1.1/DTD/svg11.dtd">
<!-- Created with matplotlib (http://matplotlib.org/) -->
<svg height="72pt" version="1.1" viewBox="0 0 72 72" width="72pt" xmlns="http://www.w3.org/2000/svg" xmlns:xlink="http://www.w3.org/1999/xlink">
 <defs>
  <style type="text/css">
*{stroke-linecap:butt;stroke-linejoin:round;}
  </style>
 </defs>
 <g id="figure_1">
  <g id="patch_1">
   <path d="
M0 72
L72 72
L72 0
L0 0
z
" style="fill:none;"/>
  </g>
  <g id="axes_1">
   <g id="PatchCollection_1">
    <defs>
     <path d="
M36 -7.5
C43.5583 -7.5 50.808 -10.5029 56.1525 -15.8475
C61.4971 -21.192 64.5 -28.4417 64.5 -36
C64.5 -43.5583 61.4971 -50.808 56.1525 -56.1525
C50.808 -61.4971 43.5583 -64.5 36 -64.5
C28.4417 -64.5 21.192 -61.4971 15.8475 -56.1525
C10.5029 -50.808 7.5 -43.5583 7.5 -36
C7.5 -28.4417 10.5029 -21.192 15.8475 -15.8475
C21.192 -10.5029 28.4417 -7.5 36 -7.5
z
" id="C0_0_a811fe30f3"/>
     <path d="
M38.0938 -7.65427
L37.8852 -7.85222
L37.6924 -8.05652
L37.5158 -8.26683
L37.3551 -8.48284
L37.2105 -8.70423
L37.0817 -8.93069
L36.9685 -9.16192
L36.8708 -9.39765
L36.7881 -9.63759
L36.7201 -9.88147
L36.6663 -10.129
L36.6263 -10.3801
L36.5994 -10.6343
L36.5852 -10.8916
L36.5829 -11.1517
L36.5921 -11.4143
L36.612 -11.6794
L36.642 -11.9467
L36.6816 -12.2161
L36.7299 -12.4874
L36.7865 -12.7604
L36.8508 -13.0351
L36.922 -13.3112
L36.9997 -13.5886
L37.0834 -13.8671
L37.1724 -14.1468
L37.2664 -14.4273
L37.3648 -14.7087
L37.4672 -14.9907
L37.5731 -15.2733
L37.6823 -15.5564
L37.7942 -15.8398
L37.9087 -16.1235
L38.0253 -16.4073
L38.1438 -16.6913
L38.2639 -16.9752
L38.3854 -17.259
L38.5079 -17.5426
L38.6314 -17.826
L38.7556 -18.109
L38.8803 -18.3917
L39.0053 -18.6739
L39.1306 -18.9556
L39.256 -19.2367
L39.3813 -19.5173
L39.5064 -19.7972
L39.6313 -20.0764
L39.7558 -20.3549
L39.8799 -20.6326
L40.0035 -20.9096
L40.1265 -21.1857
L40.2488 -21.461
L40.3705 -21.7355
L40.4915 -22.0091
L40.6117 -22.2818
L40.731 -22.5537
L40.8496 -22.8246
L40.9673 -23.0947
L41.0841 -23.3639
L41.2 -23.6322
L41.315 -23.8997
L41.429 -24.1662
L41.5422 -24.4319
L41.6544 -24.6968
L41.7656 -24.9609
L41.876 -25.2241
L41.9853 -25.4865
L42.0938 -25.7482
L42.2013 -26.009
L42.3079 -26.2692
L42.4136 -26.5287
L42.5184 -26.7874
L42.6223 -27.0455
L42.7252 -27.303
L42.8274 -27.5599
L42.9286 -27.8162
L43.029 -28.072
L43.1285 -28.3272
L43.2273 -28.582
L43.3252 -28.8364
L43.4223 -29.0903
L43.5186 -29.3439
L43.6141 -29.5971
L43.7089 -29.85
L43.803 -30.1027
L43.8963 -30.3551
L43.9889 -30.6074
L44.0808 -30.8595
L44.1721 -31.1114
L44.2626 -31.3633
L44.3525 -31.6152
L44.4418 -31.867
L44.5305 -32.1189
L44.6185 -32.3709
L44.7928 -32.623
L44.8791 -32.8753
L44.9648 -33.1277
L45.05 -33.3804
L45.1347 -33.6334
L45.2189 -33.8867
L45.3025 -34.1404
L45.3857 -34.3944
L45.4684 -34.6489
L45.5506 -34.9039
L45.6324 -35.1594
L45.7137 -35.4154
L45.7946 -35.6721
L45.8751 -35.9293
L45.9552 -36.1873
L46.0349 -36.4459
L46.1141 -36.7054
L46.193 -36.9656
L46.2716 -37.2266
L46.3498 -37.4884
L46.4276 -37.7512
L46.5051 -38.0149
L46.5823 -38.2796
L46.6591 -38.5452
L46.7356 -38.8119
L46.8119 -39.0796
L46.8878 -39.3484
L46.9635 -39.6183
L47.0388 -39.8893
L47.1139 -40.1615
L47.1888 -40.4349
L47.2634 -40.7095
L47.3378 -40.9853
L47.4119 -41.2623
L47.4859 -41.5405
L47.5596 -41.8201
L47.6331 -42.1008
L47.7065 -42.3829
L47.7797 -42.6662
L47.8527 -42.9507
L47.9256 -43.2365
L47.9984 -43.5236
L48.0712 -43.8119
L48.1438 -44.1013
L48.2164 -44.392
L48.289 -44.6838
L48.3616 -44.9767
L48.4343 -45.2707
L48.507 -45.5656
L48.5798 -45.8615
L48.6529 -46.1583
L48.7261 -46.4559
L48.7996 -46.7543
L48.8735 -47.0532
L48.9478 -47.3527
L49.0225 -47.6526
L49.0978 -47.9527
L49.1738 -48.253
L49.2505 -48.5534
L49.3281 -48.8535
L49.4067 -49.1534
L49.4864 -49.4527
L49.5674 -49.7512
L49.6498 -50.0489
L49.7338 -50.3453
L49.8196 -50.6403
L49.9075 -50.9336
L49.9975 -51.2249
L50.09 -51.514
L50.1853 -51.8004
L50.2835 -52.0838
L50.3851 -52.3639
L50.4902 -52.6403
L50.5993 -52.9126
L50.7127 -53.1803
L50.8307 -53.4431
L50.9537 -53.7004
L51.0821 -53.9518
L51.2163 -54.1969
L51.3566 -54.435
L51.5036 -54.6658
L51.6575 -54.8885
L51.8188 -55.1029
L51.9878 -55.3082
L52.1649 -55.504
L52.3503 -55.6897
L52.5444 -55.8648
L52.7474 -56.0289
L52.9595 -56.1814
L53.1808 -56.3218
L53.4115 -56.4497
L53.6515 -56.5646
L53.9009 -56.6663
L54.1596 -56.7543
L54.4273 -56.8284
L54.7039 -56.8881
L54.9892 -56.9334
L55.2828 -56.964
L55.6493 -56.9797
L56.0066 -56.6435
L56.3578 -56.2974
L56.7028 -55.9452
L57.0415 -55.5869
L57.3737 -55.2226
L57.6995 -54.8524
L58.0187 -54.4765
L58.3311 -54.095
L58.6367 -53.708
L58.9355 -53.3155
L59.2273 -52.9178
L59.5119 -52.515
L59.7895 -52.1071
L60.0598 -51.6943
L60.3227 -51.2767
L60.5782 -50.8545
L60.8263 -50.4277
L61.0668 -49.9966
L61.2997 -49.5612
L61.5248 -49.1216
L61.7422 -48.6781
L61.9517 -48.2307
L62.1533 -47.7796
L62.347 -47.3249
L62.5326 -46.8667
L62.7102 -46.4052
L62.8796 -45.9406
L63.0408 -45.4729
L63.1938 -45.0024
L63.3386 -44.5291
L63.4749 -44.0532
L63.603 -43.5748
L63.7226 -43.0942
L63.8337 -42.6113
L63.9364 -42.1265
L64.0306 -41.6398
L64.1162 -41.1514
L64.1933 -40.6614
L64.2618 -40.17
L64.3216 -39.6773
L64.3729 -39.1835
L64.4155 -38.6888
L64.4494 -38.1932
L64.4747 -37.6969
L64.4913 -37.2002
L64.4993 -36.703
L64.4985 -36.2057
L64.4891 -35.7083
L64.471 -35.2109
L64.4442 -34.7139
L64.4087 -34.2172
L64.3646 -33.721
L64.3119 -33.2256
L64.2505 -32.731
L64.1806 -32.2373
L64.102 -31.7449
L64.0149 -31.2537
L63.9192 -30.764
L63.8151 -30.2758
L63.7025 -29.7895
L63.5814 -29.305
L63.4519 -28.8225
L63.3141 -28.3422
L63.168 -27.8643
L63.0135 -27.3888
L62.8509 -26.916
L62.6801 -26.4459
L62.5011 -25.9788
L62.3141 -25.5147
L62.119 -25.0538
L61.916 -24.5962
L61.7051 -24.1421
L61.4864 -23.6916
L61.2599 -23.2449
L61.0257 -22.802
L60.7839 -22.3632
L60.5346 -21.9285
L60.2777 -21.4981
L60.0135 -21.0721
L59.742 -20.6507
L59.4632 -20.2339
L59.1773 -19.822
L58.8843 -19.4149
L58.5843 -19.013
L58.2775 -18.6162
L57.9639 -18.2247
L57.6436 -17.8386
L57.3167 -17.458
L56.9833 -17.0831
L56.6435 -16.714
L56.2974 -16.3507
L55.9452 -15.9934
L55.5869 -15.6422
L55.2226 -15.2972
L54.8524 -14.9585
L54.4765 -14.6263
L54.095 -14.3005
L53.708 -13.9813
L53.3155 -13.6689
L52.9178 -13.3633
L52.515 -13.0645
L52.1071 -12.7727
L51.6943 -12.4881
L51.2767 -12.2105
L50.8545 -11.9402
L50.4277 -11.6773
L49.9966 -11.4218
L49.5612 -11.1737
L49.1216 -10.9332
L48.6781 -10.7003
L48.2307 -10.4752
L47.7796 -10.2578
L47.3249 -10.0483
L46.8667 -9.84666
L46.4052 -9.65299
L45.9406 -9.46736
L45.4729 -9.2898
L45.0024 -9.12038
L44.5291 -8.95915
L44.0532 -8.80616
L43.5748 -8.66145
L43.0942 -8.52506
L42.6113 -8.39705
L42.1265 -8.27744
L41.6398 -8.16628
L41.1514 -8.0636
L40.6614 -7.96942
L40.17 -7.88379
L39.6773 -7.80672
L39.1835 -7.73824
L38.6888 -7.67836
z
" id="C0_1_6afde72757"/>
     <path d="
M16.6905 -15.3138
L16.664 -15.6211
L16.632 -15.9348
L16.5948 -16.2543
L16.5533 -16.5793
L16.5078 -16.9095
L16.4591 -17.2445
L16.4075 -17.5838
L16.3538 -17.9272
L16.2983 -18.2743
L16.2415 -18.6246
L16.1839 -18.9779
L16.1259 -19.3339
L16.0678 -19.6922
L16.0101 -20.0524
L15.953 -20.4144
L15.8969 -20.7778
L15.842 -21.1424
L15.7885 -21.5078
L15.7367 -21.8739
L15.6868 -22.2403
L15.6389 -22.607
L15.5932 -22.9737
L15.5499 -23.3401
L15.5089 -23.7061
L15.4705 -24.0716
L15.4347 -24.4364
L15.4016 -24.8003
L15.3712 -25.1632
L15.3436 -25.5249
L15.3188 -25.8855
L15.2968 -26.2447
L15.2776 -26.6025
L15.2613 -26.9588
L15.2478 -27.3135
L15.2372 -27.6665
L15.2294 -28.0178
L15.2243 -28.3674
L15.2221 -28.7151
L15.2227 -29.061
L15.226 -29.4051
L15.232 -29.7472
L15.2406 -30.0874
L15.252 -30.4257
L15.2659 -30.762
L15.2824 -31.0964
L15.3015 -31.4289
L15.3231 -31.7594
L15.3472 -32.088
L15.3737 -32.4146
L15.4027 -32.7393
L15.434 -33.0622
L15.4677 -33.3831
L15.5037 -33.7023
L15.542 -34.0196
L15.5825 -34.335
L15.6253 -34.6488
L15.6703 -34.9607
L15.7175 -35.271
L15.7668 -35.5796
L15.8183 -35.8866
L15.8719 -36.1919
L15.9276 -36.4957
L15.9853 -36.7979
L16.0452 -37.0987
L16.107 -37.398
L16.1709 -37.6959
L16.2369 -37.9925
L16.3048 -38.2877
L16.3747 -38.5816
L16.4467 -38.8743
L16.5206 -39.1658
L16.5965 -39.4561
L16.6744 -39.7453
L16.7543 -40.0334
L16.8362 -40.3205
L16.9201 -40.6066
L17.0059 -40.8917
L17.0938 -41.1759
L17.1836 -41.4593
L17.2755 -41.7419
L17.3693 -42.0236
L17.4653 -42.3046
L17.5632 -42.5849
L17.6632 -42.8646
L17.7653 -43.1436
L17.8695 -43.422
L17.9758 -43.6999
L18.0843 -43.9772
L18.1949 -44.2541
L18.3076 -44.5306
L18.4226 -44.8066
L18.5398 -45.0823
L18.6592 -45.3576
L18.7809 -45.6326
L18.9049 -45.9073
L19.0313 -46.1818
L19.16 -46.456
L19.2911 -46.7301
L19.4247 -47.004
L19.5607 -47.2777
L19.6993 -47.5514
L19.8403 -47.8249
L19.984 -48.0984
L20.1303 -48.3718
L20.2792 -48.6452
L20.4308 -48.9185
L20.5851 -49.1919
L20.7422 -49.4652
L20.9021 -49.7386
L21.0649 -50.0119
L21.2305 -50.2854
L21.3991 -50.5588
L21.5706 -50.8323
L21.7451 -51.1057
L21.9227 -51.3793
L22.1033 -51.6528
L22.2871 -51.9264
L22.474 -52.1999
L22.664 -52.4735
L22.8573 -52.747
L23.0538 -53.0204
L23.2535 -53.2938
L23.4566 -53.5671
L23.6629 -53.8402
L23.8725 -54.1132
L24.0854 -54.386
L24.3016 -54.6585
L24.5211 -54.9308
L24.7439 -55.2027
L24.9699 -55.4742
L25.1992 -55.7453
L25.4317 -56.016
L25.6674 -56.286
L25.9062 -56.5555
L26.148 -56.8243
L26.3928 -57.0923
L26.6404 -57.3595
L26.8908 -57.6259
L27.1438 -57.8913
L27.3993 -58.1557
L27.6571 -58.419
L27.9171 -58.6811
L28.179 -58.9419
L28.4426 -59.2015
L28.7077 -59.4597
L28.9741 -59.7164
L29.2413 -59.9716
L29.5092 -60.2253
L29.7773 -60.4773
L30.0453 -60.7277
L30.3127 -60.9763
L30.5791 -61.2232
L30.8441 -61.4684
L31.1072 -61.7117
L31.3678 -61.9533
L31.6253 -62.193
L31.8792 -62.431
L32.1289 -62.6672
L32.3738 -62.9017
L32.6131 -63.1345
L32.8462 -63.3656
L33.0725 -63.5952
L33.2912 -63.8233
L33.5016 -64.05
L33.197 -64.2752
L32.7024 -64.3618
L32.2089 -64.3086
L31.7165 -64.2467
L31.2254 -64.1763
L30.7357 -64.0972
L30.2477 -64.0096
L29.7614 -63.9135
L29.277 -63.8088
L28.7947 -63.6957
L28.3146 -63.5741
L27.8368 -63.4442
L27.3615 -63.3059
L26.8888 -63.1593
L26.4189 -63.0044
L25.9519 -62.8412
L25.488 -62.6699
L25.0272 -62.4905
L24.5699 -62.303
L24.116 -62.1075
L23.6657 -61.904
L23.2192 -61.6927
L22.7765 -61.4735
L22.3379 -61.2466
L21.9035 -61.012
L21.4734 -60.7697
L21.0476 -60.5199
L20.6265 -60.2627
L20.21 -59.998
L19.7983 -59.7261
L19.3916 -59.4469
L18.9899 -59.1605
L18.5934 -58.8672
L18.2022 -58.5668
L17.8164 -58.2596
L17.4362 -57.9456
L17.0616 -57.6249
L16.6928 -57.2976
L16.3299 -56.9638
L15.973 -56.6237
L15.6221 -56.2773
L15.2775 -55.9247
L14.9392 -55.566
L14.6073 -55.2013
L14.2819 -54.8309
L13.9631 -54.4546
L13.6511 -54.0728
L13.3458 -53.6854
L13.0475 -53.2927
L12.7561 -52.8947
L12.4718 -52.4915
L12.1947 -52.0834
L11.9249 -51.6703
L11.6623 -51.2525
L11.4072 -50.83
L11.1596 -50.403
L10.9195 -49.9716
L10.6871 -49.5359
L10.4624 -49.0961
L10.2455 -48.6524
L10.0364 -48.2047
L9.83525 -47.7534
L9.64205 -47.2985
L9.45688 -46.8401
L9.27979 -46.3785
L9.11084 -45.9137
L8.95009 -45.4458
L8.79757 -44.9751
L8.65334 -44.5016
L8.51744 -44.0256
L8.38991 -43.5471
L8.27079 -43.0663
L8.16012 -42.5834
L8.05793 -42.0984
L7.96424 -41.6116
L7.8791 -41.1231
L7.80253 -40.6331
L7.73454 -40.1416
L7.67517 -39.6488
L7.62442 -39.155
L7.58231 -38.6602
L7.54887 -38.1645
L7.52409 -37.6682
L7.50798 -37.1714
L7.50055 -36.6743
L7.5018 -36.1769
L7.51174 -35.6795
L7.53035 -35.1822
L7.55763 -34.6851
L7.59358 -34.1885
L7.63818 -33.6924
L7.69142 -33.197
L7.75328 -32.7024
L7.82375 -32.2089
L7.9028 -31.7165
L7.9904 -31.2254
L8.08654 -30.7357
L8.19119 -30.2477
L8.3043 -29.7614
L8.42585 -29.277
L8.5558 -28.7947
L8.69411 -28.3146
L8.84074 -27.8368
L8.99564 -27.3615
L9.15876 -26.8888
L9.33006 -26.4189
L9.50949 -25.9519
L9.69698 -25.488
L9.89249 -25.0272
L10.096 -24.5699
L10.3073 -24.116
L10.5265 -23.6657
L10.7534 -23.2192
L10.988 -22.7765
L11.2303 -22.3379
L11.4801 -21.9035
L11.7373 -21.4734
L12.002 -21.0476
L12.2739 -20.6265
L12.5531 -20.21
L12.8395 -19.7983
L13.1328 -19.3916
L13.4332 -18.9899
L13.7404 -18.5934
L14.0544 -18.2022
L14.3751 -17.8164
L14.7024 -17.4362
L15.0362 -17.0616
L15.3763 -16.6928
L15.7227 -16.3299
L16.0753 -15.973
z
" id="C0_2_ab40fba82c"/>
    </defs>
    <g clip-path="url(#p1bffca34e9)">
     <use style="fill:#ff0000;stroke:#000000;stroke-width:2.0;" x="0.0" xlink:href="#C0_0_a811fe30f3" y="72.0"/>
    </g>
    <g clip-path="url(#p1bffca34e9)">
     <use style="fill:#ffffff;stroke:#000000;stroke-width:2.0;" x="0.0" xlink:href="#C0_1_6afde72757" y="72.0"/>
    </g>
    <g clip-path="url(#p1bffca34e9)">
     <use style="fill:#ffffff;stroke:#000000;stroke-width:2.0;" x="0.0" xlink:href="#C0_2_ab40fba82c" y="72.0"/>
    </g>
   </g>
  </g>
 </g>
 <defs>
  <clipPath id="p1bffca34e9">
   <rect height="72.0" width="72.0" x="0.0" y="0.0"/>
  </clipPath>
 </defs>
</svg>
