<?xml version="1.0" encoding="utf-8" standalone="no"?>
<!DOCTYPE svg PUBLIC "-//W3C//DTD SVG 1.1//EN"
  "http://www.w3.org/Graphics/SVG/1.1/DTD/svg11.dtd">
<!-- Created with matplotlib (http://matplotlib.org/) -->
<svg height="72pt" version="1.1" viewBox="0 0 72 72" width="72pt" xmlns="http://www.w3.org/2000/svg" xmlns:xlink="http://www.w3.org/1999/xlink">
 <defs>
  <style type="text/css">
*{stroke-linecap:butt;stroke-linejoin:round;}
  </style>
 </defs>
 <g id="figure_1">
  <g id="patch_1">
   <path d="
M0 72
L72 72
L72 0
L0 0
z
" style="fill:none;"/>
  </g>
  <g id="axes_1">
   <g id="PatchCollection_1">
    <defs>
     <path d="
M36 -7.5
C43.5583 -7.5 50.808 -10.5029 56.1525 -15.8475
C61.4971 -21.192 64.5 -28.4417 64.5 -36
C64.5 -43.5583 61.4971 -50.808 56.1525 -56.1525
C50.808 -61.4971 43.5583 -64.5 36 -64.5
C28.4417 -64.5 21.192 -61.4971 15.8475 -56.1525
C10.5029 -50.808 7.5 -43.5583 7.5 -36
C7.5 -28.4417 10.5029 -21.192 15.8475 -15.8475
C21.192 -10.5029 28.4417 -7.5 36 -7.5
z
" id="C0_0_a811fe30f3"/>
     <path d="
M54.9415 -57.2562
L54.6727 -57.1835
L54.4284 -57.0785
L54.2081 -56.9424
L54.0107 -56.7769
L53.8346 -56.5841
L53.6779 -56.3663
L53.5384 -56.1259
L53.4138 -55.8654
L53.3019 -55.5872
L53.2007 -55.2937
L53.1083 -54.9868
L53.0229 -54.6685
L52.943 -54.3406
L52.8673 -54.0046
L52.7947 -53.6618
L52.7243 -53.3135
L52.6552 -52.9607
L52.5868 -52.6044
L52.5185 -52.2455
L52.4499 -51.8847
L52.3807 -51.5226
L52.3105 -51.1599
L52.2392 -50.7969
L52.1665 -50.4343
L52.0923 -50.0724
L52.0166 -49.7116
L51.9392 -49.3521
L51.8602 -48.9942
L51.7795 -48.6383
L51.6971 -48.2845
L51.613 -47.933
L51.5274 -47.5839
L51.4401 -47.2374
L51.3512 -46.8937
L51.2608 -46.5528
L51.169 -46.2148
L51.0758 -45.8797
L50.9812 -45.5477
L50.8853 -45.2188
L50.7882 -44.893
L50.6898 -44.5703
L50.5904 -44.2507
L50.4898 -43.9343
L50.3883 -43.621
L50.2857 -43.3108
L50.1823 -43.0037
L50.0779 -42.6997
L49.9727 -42.3987
L49.8667 -42.1008
L49.7599 -41.8058
L49.6524 -41.5138
L49.5442 -41.2246
L49.4353 -40.9383
L49.3258 -40.6548
L49.2156 -40.374
L49.1049 -40.0958
L48.9936 -39.8203
L48.8817 -39.5474
L48.7693 -39.2769
L48.6564 -39.0089
L48.5429 -38.7432
L48.429 -38.4799
L48.3145 -38.2188
L48.1995 -37.9599
L48.0841 -37.7032
L47.9681 -37.4485
L47.8517 -37.1958
L47.7348 -36.945
L47.6174 -36.6961
L47.4995 -36.4489
L47.3811 -36.2036
L47.2621 -35.9599
L47.1427 -35.7178
L47.0227 -35.4773
L46.9022 -35.2382
L46.7811 -35.0006
L46.6594 -34.7644
L46.5372 -34.5295
L46.4144 -34.2958
L46.2909 -34.0633
L46.1668 -33.8319
L46.042 -33.6016
L45.9166 -33.3724
L45.7904 -33.144
L45.6636 -32.9166
L45.536 -32.69
L45.4076 -32.4642
L45.2784 -32.2392
L45.1483 -32.0148
L44.8857 -31.791
L44.753 -31.5678
L44.6193 -31.3451
L44.4847 -31.1229
L44.3491 -30.9011
L44.2124 -30.6797
L44.0746 -30.4585
L43.9357 -30.2377
L43.7957 -30.017
L43.6544 -29.7965
L43.512 -29.5761
L43.3682 -29.3558
L43.2231 -29.1355
L43.0767 -28.9152
L42.9288 -28.6948
L42.7796 -28.4743
L42.6288 -28.2536
L42.4764 -28.0328
L42.3225 -27.8116
L42.167 -27.5902
L42.0097 -27.3685
L41.8508 -27.1464
L41.69 -26.9238
L41.5274 -26.7008
L41.3629 -26.4774
L41.1964 -26.2534
L41.028 -26.0288
L40.8575 -25.8037
L40.6848 -25.5779
L40.51 -25.3515
L40.333 -25.1244
L40.1537 -24.8966
L39.972 -24.668
L39.7879 -24.4387
L39.6013 -24.2086
L39.4122 -23.9777
L39.2206 -23.7459
L39.0262 -23.5133
L38.8292 -23.2799
L38.6294 -23.0456
L38.4267 -22.8105
L38.2212 -22.5744
L38.0128 -22.3375
L37.8013 -22.0998
L37.5868 -21.8611
L37.3693 -21.6216
L37.1485 -21.3813
L36.9246 -21.1401
L36.6975 -20.8982
L36.4672 -20.6555
L36.2335 -20.412
L35.9965 -20.1679
L35.7563 -19.9231
L35.5127 -19.6776
L35.2657 -19.4317
L35.0155 -19.1852
L34.762 -18.9383
L34.5052 -18.691
L34.2452 -18.4435
L33.982 -18.1958
L33.7158 -17.9479
L33.4467 -17.7
L33.1747 -17.4522
L32.9001 -17.2045
L32.623 -16.9571
L32.3437 -16.71
L32.0624 -16.4634
L31.7794 -16.2174
L31.495 -15.972
L31.2098 -15.7274
L30.924 -15.4836
L30.6384 -15.2407
L30.3536 -14.9987
L30.0702 -14.7577
L29.7892 -14.5178
L29.5114 -14.2788
L29.2382 -14.0407
L28.9706 -13.8034
L28.7103 -13.5668
L28.4589 -13.3306
L28.2184 -13.0946
L27.9908 -12.8584
L27.7788 -12.6215
L27.5849 -12.3835
L27.4121 -12.1437
L27.2633 -11.9014
L27.1418 -11.656
L27.0506 -11.4068
L26.9925 -11.153
L26.9701 -10.8942
L26.9852 -10.63
L27.039 -10.3603
L27.1321 -10.0853
L27.264 -9.80534
L27.4339 -9.52129
L27.6403 -9.23413
L28.0628 -8.94502
L28.5417 -8.62757
L29.0229 -8.49321
L29.5062 -8.36723
L29.9915 -8.24968
L30.4786 -8.14057
L30.9674 -8.03995
L31.4578 -7.94785
L31.9495 -7.86429
L32.4425 -7.7893
L32.9365 -7.72291
L33.4315 -7.66513
L33.9273 -7.61598
L34.4236 -7.57547
L34.9205 -7.54363
L35.4177 -7.52045
L35.9151 -7.50595
L36.4125 -7.50013
L36.9098 -7.50299
L37.4068 -7.51452
L37.9034 -7.53474
L38.3993 -7.56363
L38.8946 -7.60118
L39.389 -7.64738
L39.8823 -7.70221
L40.3745 -7.76567
L40.8653 -7.83773
L41.3547 -7.91836
L41.8424 -8.00755
L42.3283 -8.10526
L42.8124 -8.21148
L43.2943 -8.32615
L43.774 -8.44926
L44.2514 -8.58076
L44.7262 -8.72061
L45.1984 -8.86877
L45.6677 -9.0252
L46.1342 -9.18984
L46.5975 -9.36265
L47.0576 -9.54357
L47.5144 -9.73255
L47.9676 -9.92954
L48.4172 -10.1345
L48.863 -10.3473
L49.3049 -10.5679
L49.7428 -10.7962
L50.1764 -11.0323
L50.6057 -11.2759
L51.0306 -11.5271
L51.4509 -11.7857
L51.8665 -12.0518
L52.2773 -12.3251
L52.6831 -12.6056
L53.0838 -12.8932
L53.4794 -13.1879
L53.8696 -13.4895
L54.2543 -13.798
L54.6335 -14.1133
L55.007 -14.4352
L55.3748 -14.7637
L55.7366 -15.0986
L56.0924 -15.4399
L56.4421 -15.7875
L56.7856 -16.1413
L57.1227 -16.501
L57.4534 -16.8668
L57.7776 -17.2383
L58.0951 -17.6156
L58.4059 -17.9985
L58.7099 -18.3868
L59.007 -18.7805
L59.297 -19.1795
L59.58 -19.5836
L59.8558 -19.9927
L60.1243 -20.4067
L60.3854 -20.8254
L60.6392 -21.2487
L60.8854 -21.6765
L61.124 -22.1087
L61.355 -22.5452
L61.5783 -22.9857
L61.7938 -23.4302
L62.0014 -23.8785
L62.2011 -24.3305
L62.3928 -24.7861
L62.5765 -25.245
L62.7521 -25.7073
L62.9195 -26.1727
L63.0788 -26.6411
L63.2297 -27.1123
L63.3724 -27.5863
L63.5068 -28.0628
L63.6328 -28.5417
L63.7503 -29.0229
L63.8594 -29.5062
L63.9601 -29.9915
L64.0522 -30.4786
L64.1357 -30.9674
L64.2107 -31.4578
L64.2771 -31.9495
L64.3349 -32.4425
L64.384 -32.9365
L64.4245 -33.4315
L64.4564 -33.9273
L64.4795 -34.4236
L64.4941 -34.9205
L64.4999 -35.4177
L64.497 -35.9151
L64.4855 -36.4125
L64.4653 -36.9098
L64.4364 -37.4068
L64.3988 -37.9034
L64.3526 -38.3993
L64.2978 -38.8946
L64.2343 -39.389
L64.1623 -39.8823
L64.0816 -40.3745
L63.9925 -40.8653
L63.8947 -41.3547
L63.7885 -41.8424
L63.6738 -42.3283
L63.5507 -42.8124
L63.4192 -43.2943
L63.2794 -43.774
L63.1312 -44.2514
L62.9748 -44.7262
L62.8102 -45.1984
L62.6374 -45.6677
L62.4564 -46.1342
L62.2674 -46.5975
L62.0705 -47.0576
L61.8655 -47.5144
L61.6527 -47.9676
L61.4321 -48.4172
L61.2038 -48.863
L60.9677 -49.3049
L60.7241 -49.7428
L60.4729 -50.1764
L60.2143 -50.6057
L59.9482 -51.0306
L59.6749 -51.4509
L59.3944 -51.8665
L59.1068 -52.2773
L58.8121 -52.6831
L58.5105 -53.0838
L58.202 -53.4794
L57.8867 -53.8696
L57.5648 -54.2543
L57.2363 -54.6335
L56.9014 -55.007
L56.5601 -55.3748
L56.2125 -55.7366
L55.8587 -56.0924
L55.499 -56.4421
z
" id="C0_1_66ed72ce03"/>
     <path d="
M44.105 -63.2976
L43.7219 -63.1973
L43.3212 -63.1006
L42.9057 -63.0059
L42.4778 -62.9118
L42.04 -62.8169
L41.5944 -62.7202
L41.143 -62.6207
L40.6873 -62.5178
L40.229 -62.4108
L39.7693 -62.2994
L39.3095 -62.1831
L38.8504 -62.0619
L38.3931 -61.9354
L37.9382 -61.8038
L37.4865 -61.6668
L37.0385 -61.5247
L36.5947 -61.3775
L36.1556 -61.2252
L35.7215 -61.0681
L35.2927 -60.9063
L34.8695 -60.7399
L34.4521 -60.5692
L34.0407 -60.3943
L33.6355 -60.2154
L33.2365 -60.0327
L32.8438 -59.8465
L32.4574 -59.6569
L32.0775 -59.4641
L31.704 -59.2683
L31.3369 -59.0696
L30.9763 -58.8684
L30.6219 -58.6646
L30.2739 -58.4585
L29.9322 -58.2503
L29.5966 -58.0401
L29.2672 -57.828
L28.9438 -57.6142
L28.6264 -57.3987
L28.3148 -57.1817
L28.0089 -56.9634
L27.7087 -56.7438
L27.4141 -56.5229
L27.1249 -56.301
L26.841 -56.0781
L26.5624 -55.8541
L26.2889 -55.6293
L26.0204 -55.4037
L25.7568 -55.1773
L25.498 -54.9502
L25.2439 -54.7224
L24.9944 -54.494
L24.7493 -54.2649
L24.5087 -54.0353
L24.2722 -53.8051
L24.04 -53.5744
L23.8118 -53.3432
L23.5876 -53.1114
L23.3672 -52.8792
L23.1507 -52.6464
L22.9378 -52.4132
L22.7285 -52.1795
L22.5227 -51.9452
L22.3204 -51.7105
L22.1214 -51.4752
L21.9257 -51.2394
L21.7332 -51.003
L21.5438 -50.7661
L21.3575 -50.5285
L21.1741 -50.2904
L20.9936 -50.0516
L20.816 -49.8121
L20.6412 -49.5719
L20.469 -49.331
L20.2996 -49.0893
L20.1327 -48.8469
L19.9684 -48.6035
L19.8066 -48.3593
L19.6473 -48.1142
L19.4904 -47.8681
L19.3358 -47.621
L19.1836 -47.3729
L19.0337 -47.1237
L18.886 -46.8733
L18.7405 -46.6217
L18.5972 -46.3689
L18.4561 -46.1147
L18.3171 -45.8593
L18.1802 -45.6024
L18.0453 -45.344
L17.9126 -45.0841
L17.7819 -44.8227
L17.6532 -44.5596
L17.5265 -44.2948
L17.4018 -44.0282
L17.2792 -43.7598
L17.1585 -43.4896
L17.0398 -43.2173
L16.9231 -42.9431
L16.8084 -42.6667
L16.6958 -42.3882
L16.5851 -42.1074
L16.4765 -41.8243
L16.3699 -41.5389
L16.2653 -41.251
L16.1629 -40.9606
L16.0625 -40.6676
L15.9643 -40.3719
L15.8683 -40.0734
L15.7745 -39.7722
L15.6829 -39.468
L15.5936 -39.1609
L15.5066 -38.8507
L15.422 -38.5373
L15.3399 -38.2208
L15.2602 -37.9009
L15.1831 -37.5777
L15.1087 -37.2511
L15.0369 -36.921
L14.9679 -36.5872
L14.9018 -36.2498
L14.8386 -35.9087
L14.7785 -35.5638
L14.7215 -35.215
L14.6677 -34.8623
L14.6173 -34.5056
L14.5703 -34.1449
L14.5269 -33.7801
L14.4872 -33.4111
L14.4512 -33.038
L14.4193 -32.6607
L14.3913 -32.2791
L14.3676 -31.8932
L14.3483 -31.5031
L14.3334 -31.1087
L14.3232 -30.71
L14.3177 -30.3071
L14.3172 -29.9
L14.3218 -29.4886
L14.3317 -29.0731
L14.3469 -28.6536
L14.3676 -28.2301
L14.3941 -27.8026
L14.4263 -27.3715
L14.4645 -26.9367
L14.5087 -26.4985
L14.5591 -26.057
L14.6157 -25.6125
L14.6786 -25.1652
L14.7479 -24.7153
L14.8234 -24.2633
L14.9053 -23.8093
L14.9934 -23.3538
L15.0876 -22.8972
L15.1877 -22.44
L15.2934 -21.9826
L15.4045 -21.5256
L15.5204 -21.0697
L15.6405 -20.6154
L15.7643 -20.1636
L15.8909 -19.715
L16.0192 -19.2706
L16.1481 -18.8313
L16.276 -18.3981
L16.4014 -17.9723
L16.5223 -17.555
L16.6365 -17.1477
L16.7414 -16.7518
L16.8345 -16.3688
L16.9128 -16.0003
L16.9734 -15.6477
L17.0132 -15.3128
L16.5308 -14.9967
L16.1705 -15.1865
L15.8163 -15.5295
L15.4682 -15.8787
L15.1264 -16.234
L14.7909 -16.5953
L14.4619 -16.9626
L14.1394 -17.3356
L13.8236 -17.7144
L13.5146 -18.0987
L13.2124 -18.4884
L12.9171 -18.8835
L12.6289 -19.2838
L12.3478 -19.6892
L12.0739 -20.0996
L11.8073 -20.5148
L11.548 -20.9347
L11.2962 -21.3593
L11.052 -21.7882
L10.8153 -22.2215
L10.5863 -22.659
L10.3651 -23.1006
L10.1516 -23.5461
L9.94604 -23.9954
L9.7484 -24.4483
L9.55876 -24.9048
L9.37718 -25.3646
L9.2037 -25.8277
L9.03839 -26.2939
L8.88129 -26.763
L8.73245 -27.235
L8.59191 -27.7096
L8.45973 -28.1868
L8.33593 -28.6663
L8.22056 -29.148
L8.11365 -29.6319
L8.01524 -30.1177
L7.92535 -30.6053
L7.84401 -31.0945
L7.77125 -31.5852
L7.70709 -32.0773
L7.65155 -32.5705
L7.60464 -33.0648
L7.56638 -33.56
L7.53678 -34.056
L7.51586 -34.5525
L7.5036 -35.0495
L7.50003 -35.5467
L7.50514 -36.0441
L7.51894 -36.5415
L7.5414 -37.0387
L7.57254 -37.5356
L7.61233 -38.0321
L7.66077 -38.5279
L7.71785 -39.0229
L7.78353 -39.5171
L7.85782 -40.0101
L7.94067 -40.502
L8.03208 -40.9924
L8.132 -41.4814
L8.24041 -41.9686
L8.35728 -42.4541
L8.48257 -42.9376
L8.61624 -43.419
L8.75825 -43.8981
L8.90856 -44.3748
L9.06712 -44.8489
L9.23388 -45.3204
L9.4088 -45.789
L9.59182 -46.2547
L9.78288 -46.7172
L9.98193 -47.1764
L10.1889 -47.6323
L10.4037 -48.0846
L10.6264 -48.5332
L10.8567 -48.978
L11.0948 -49.4189
L11.3404 -49.8556
L11.5935 -50.2882
L11.854 -50.7164
L12.1219 -51.1401
L12.3971 -51.5592
L12.6795 -51.9736
L12.969 -52.3831
L13.2655 -52.7876
L13.5689 -53.1869
L13.8791 -53.5811
L14.1961 -53.9699
L14.5197 -54.3532
L14.8499 -54.731
L15.1865 -55.103
L15.5295 -55.4692
L15.8787 -55.8295
L16.234 -56.1837
L16.5953 -56.5318
L16.9626 -56.8736
L17.3356 -57.2091
L17.7144 -57.5381
L18.0987 -57.8606
L18.4884 -58.1764
L18.8835 -58.4854
L19.2838 -58.7876
L19.6892 -59.0829
L20.0996 -59.3711
L20.5148 -59.6522
L20.9347 -59.9261
L21.3593 -60.1927
L21.7882 -60.452
L22.2215 -60.7038
L22.659 -60.948
L23.1006 -61.1847
L23.5461 -61.4137
L23.9954 -61.6349
L24.4483 -61.8484
L24.9048 -62.054
L25.3646 -62.2516
L25.8277 -62.4412
L26.2939 -62.6228
L26.763 -62.7963
L27.235 -62.9616
L27.7096 -63.1187
L28.1868 -63.2676
L28.6663 -63.4081
L29.148 -63.5403
L29.6319 -63.6641
L30.1177 -63.7794
L30.6053 -63.8863
L31.0945 -63.9848
L31.5852 -64.0746
L32.0773 -64.156
L32.5705 -64.2287
L33.0648 -64.2929
L33.56 -64.3485
L34.056 -64.3954
L34.5525 -64.4336
L35.0495 -64.4632
L35.5467 -64.4841
L36.0441 -64.4964
L36.5415 -64.5
L37.0387 -64.4949
L37.5356 -64.4811
L38.0321 -64.4586
L38.5279 -64.4275
L39.0229 -64.3877
L39.5171 -64.3392
L40.0101 -64.2822
L40.502 -64.2165
L40.9924 -64.1422
L41.4814 -64.0593
L41.9686 -63.9679
L42.4541 -63.868
L42.9376 -63.7596
L43.419 -63.6427
z
" id="C0_2_03e8260b35"/>
    </defs>
    <g clip-path="url(#p1bffca34e9)">
     <use style="fill:#ff0000;stroke:#000000;stroke-width:2.0;" x="0.0" xlink:href="#C0_0_a811fe30f3" y="72.0"/>
    </g>
    <g clip-path="url(#p1bffca34e9)">
     <use style="fill:#ffffff;stroke:#000000;stroke-width:2.0;" x="0.0" xlink:href="#C0_1_66ed72ce03" y="72.0"/>
    </g>
    <g clip-path="url(#p1bffca34e9)">
     <use style="fill:#ffffff;stroke:#000000;stroke-width:2.0;" x="0.0" xlink:href="#C0_2_03e8260b35" y="72.0"/>
    </g>
   </g>
  </g>
 </g>
 <defs>
  <clipPath id="p1bffca34e9">
   <rect height="72.0" width="72.0" x="0.0" y="0.0"/>
  </clipPath>
 </defs>
</svg>
