<?xml version="1.0" encoding="utf-8" standalone="no"?>
<!DOCTYPE svg PUBLIC "-//W3C//DTD SVG 1.1//EN"
  "http://www.w3.org/Graphics/SVG/1.1/DTD/svg11.dtd">
<!-- Created with matplotlib (http://matplotlib.org/) -->
<svg height="72pt" version="1.1" viewBox="0 0 72 72" width="72pt" xmlns="http://www.w3.org/2000/svg" xmlns:xlink="http://www.w3.org/1999/xlink">
 <defs>
  <style type="text/css">
*{stroke-linecap:butt;stroke-linejoin:round;}
  </style>
 </defs>
 <g id="figure_1">
  <g id="patch_1">
   <path d="
M0 72
L72 72
L72 0
L0 0
z
" style="fill:none;"/>
  </g>
  <g id="axes_1">
   <g id="PatchCollection_1">
    <defs>
     <path d="
M36 -7.5
C43.5583 -7.5 50.808 -10.5029 56.1525 -15.8475
C61.4971 -21.192 64.5 -28.4417 64.5 -36
C64.5 -43.5583 61.4971 -50.808 56.1525 -56.1525
C50.808 -61.4971 43.5583 -64.5 36 -64.5
C28.4417 -64.5 21.192 -61.4971 15.8475 -56.1525
C10.5029 -50.808 7.5 -43.5583 7.5 -36
C7.5 -28.4417 10.5029 -21.192 15.8475 -15.8475
C21.192 -10.5029 28.4417 -7.5 36 -7.5
z
" id="C0_0_a811fe30f3"/>
     <path d="
M63.4051 -28.2395
L63.3732 -28.6806
L63.3292 -29.1162
L63.2737 -29.5458
L63.2073 -29.9693
L63.1305 -30.3865
L63.044 -30.7971
L62.9482 -31.2011
L62.8437 -31.5983
L62.7309 -31.9887
L62.6104 -32.3722
L62.4826 -32.7488
L62.3479 -33.1185
L62.2068 -33.4812
L62.0596 -33.8371
L61.9068 -34.1861
L61.7487 -34.5283
L61.5857 -34.8639
L61.418 -35.1927
L61.246 -35.5151
L61.0699 -35.8309
L60.8901 -36.1404
L60.7068 -36.4437
L60.5202 -36.7407
L60.3306 -37.0318
L60.1382 -37.3169
L59.9431 -37.5962
L59.7455 -37.8698
L59.5457 -38.1379
L59.3438 -38.4005
L59.14 -38.6577
L58.9343 -38.9098
L58.7269 -39.1568
L58.5179 -39.3987
L58.3075 -39.6359
L58.0957 -39.8683
L57.8827 -40.096
L57.6685 -40.3193
L57.4531 -40.5381
L57.2368 -40.7526
L57.0194 -40.963
L56.8012 -41.1692
L56.5821 -41.3715
L56.3622 -41.5699
L56.1415 -41.7645
L55.92 -41.9554
L55.6979 -42.1428
L55.4751 -42.3266
L55.2516 -42.507
L55.0275 -42.684
L54.8028 -42.8578
L54.5774 -43.0284
L54.3514 -43.1959
L54.1249 -43.3604
L53.8977 -43.522
L53.6699 -43.6806
L53.4416 -43.8365
L53.2126 -43.9896
L52.983 -44.14
L52.7527 -44.2878
L52.5218 -44.4331
L52.2902 -44.5758
L52.0579 -44.716
L51.8249 -44.8539
L51.5912 -44.9894
L51.3567 -45.1226
L51.1215 -45.2536
L50.8854 -45.3823
L50.6485 -45.5089
L50.4107 -45.6333
L50.1721 -45.7556
L49.9325 -45.8758
L49.4503 -45.994
L49.2076 -46.1102
L48.9639 -46.2244
L48.7191 -46.3367
L48.4731 -46.447
L48.2259 -46.5555
L47.9775 -46.662
L47.7277 -46.7667
L47.4767 -46.8695
L47.2243 -46.9705
L46.9704 -47.0696
L46.7151 -47.167
L46.4582 -47.2625
L46.1998 -47.3562
L45.9398 -47.4481
L45.6781 -47.5383
L45.4147 -47.6266
L45.1496 -47.7131
L44.8827 -47.7978
L44.6138 -47.8806
L44.3431 -47.9616
L44.0704 -48.0408
L43.7958 -48.1181
L43.519 -48.1936
L43.2401 -48.2671
L42.9591 -48.3387
L42.6759 -48.4083
L42.3904 -48.476
L42.1026 -48.5416
L41.8125 -48.6051
L41.5199 -48.6666
L41.225 -48.7259
L40.9275 -48.7831
L40.6275 -48.838
L40.3249 -48.8906
L40.0198 -48.9409
L39.712 -48.9887
L39.4015 -49.0341
L39.0884 -49.077
L38.7725 -49.1172
L38.4538 -49.1548
L38.1324 -49.1895
L37.8083 -49.2215
L37.4813 -49.2505
L37.1516 -49.2764
L36.819 -49.2992
L36.4837 -49.3188
L36.1457 -49.335
L35.8049 -49.3477
L35.4614 -49.3569
L35.1153 -49.3624
L34.7666 -49.364
L34.4153 -49.3616
L34.0616 -49.3551
L33.7055 -49.3444
L33.3472 -49.3292
L32.9867 -49.3095
L32.6241 -49.285
L32.2597 -49.2556
L31.8936 -49.2211
L31.5259 -49.1813
L31.1569 -49.1361
L30.7869 -49.0852
L30.4159 -49.0285
L30.0444 -48.9657
L29.6726 -48.8966
L29.3009 -48.821
L28.9295 -48.7386
L28.559 -48.6493
L28.1896 -48.5528
L27.8219 -48.4489
L27.4562 -48.3373
L27.0932 -48.2177
L26.7334 -48.09
L26.3774 -47.9538
L26.0257 -47.8089
L25.6791 -47.6551
L25.3382 -47.492
L25.0037 -47.3196
L24.6764 -47.1374
L24.357 -46.9453
L24.0462 -46.7431
L23.745 -46.5307
L23.4539 -46.3078
L23.1739 -46.0744
L22.9055 -45.8304
L22.6496 -45.5758
L22.4067 -45.3105
L22.1773 -45.0348
L21.9621 -44.7487
L21.7613 -44.4525
L21.5753 -44.1466
L21.4043 -43.8311
L21.2484 -43.5066
L21.1076 -43.1736
L20.9818 -42.8326
L20.8709 -42.4842
L20.7746 -42.129
L20.6927 -41.7677
L20.6246 -41.4009
L20.5702 -41.0293
L20.5287 -40.6535
L20.4999 -40.2743
L20.4833 -39.8921
L20.4782 -39.5078
L20.4842 -39.1218
L20.5008 -38.7347
L20.5276 -38.347
L20.564 -37.9593
L20.6095 -37.572
L20.6637 -37.1856
L20.7261 -36.8003
L20.7963 -36.4167
L20.874 -36.0351
L20.9586 -35.6556
L21.0499 -35.2788
L21.1474 -34.9047
L21.2508 -34.5336
L21.3598 -34.1657
L21.4741 -33.8012
L21.5934 -33.4403
L21.7173 -33.083
L21.8457 -32.7296
L21.9782 -32.3801
L22.1147 -32.0345
L22.2548 -31.6931
L22.3985 -31.3558
L22.5454 -31.0226
L22.6954 -30.6937
L22.8483 -30.369
L23.004 -30.0485
L23.1622 -29.7323
L23.3228 -29.4203
L23.4858 -29.1126
L23.6509 -28.809
L23.818 -28.5097
L23.9871 -28.2145
L24.158 -27.9234
L24.3305 -27.6365
L24.5047 -27.3535
L24.6805 -27.0746
L24.8577 -26.7996
L25.0363 -26.5285
L25.2162 -26.2612
L25.3974 -25.9977
L25.5797 -25.7379
L25.7633 -25.4818
L25.9479 -25.2293
L26.1336 -24.9804
L26.3204 -24.7349
L26.5081 -24.4929
L26.6968 -24.2542
L26.8865 -24.0188
L27.0771 -23.7866
L27.2686 -23.5577
L27.461 -23.3318
L27.6544 -23.109
L27.8486 -22.8892
L28.0436 -22.6724
L28.2396 -22.4584
L28.4364 -22.2473
L28.6342 -22.0389
L28.8328 -21.8333
L29.0323 -21.6303
L29.2327 -21.4299
L29.4341 -21.2321
L29.6364 -21.0369
L29.8397 -20.8441
L30.044 -20.6537
L30.2492 -20.4657
L30.4555 -20.28
L30.6628 -20.0967
L30.8712 -19.9156
L31.0808 -19.7367
L31.2914 -19.5601
L31.5033 -19.3855
L31.7163 -19.2131
L31.9306 -19.0428
L32.1462 -18.8746
L32.363 -18.7084
L32.5813 -18.5442
L32.8009 -18.382
L33.022 -18.2218
L33.2445 -18.0635
L33.4686 -17.9072
L33.6942 -17.7528
L33.9215 -17.6003
L34.1505 -17.4497
L34.3811 -17.301
L34.6136 -17.1542
L34.8478 -17.0093
L35.084 -16.8663
L35.3221 -16.7252
L35.5622 -16.5859
L35.8043 -16.4486
L36.0486 -16.3132
L36.295 -16.1798
L36.5436 -16.0483
L36.7946 -15.9187
L37.0479 -15.7912
L37.3036 -15.6657
L37.5618 -15.5423
L37.8225 -15.4209
L38.0859 -15.3017
L38.352 -15.1847
L38.6208 -15.0699
L38.8924 -14.9574
L39.1669 -14.8472
L39.4444 -14.7394
L39.7249 -14.6341
L40.0085 -14.5313
L40.2952 -14.4312
L40.5852 -14.3337
L40.8785 -14.239
L41.1751 -14.1472
L41.4752 -14.0584
L41.7788 -13.9727
L42.0859 -13.8902
L42.3966 -13.811
L42.711 -13.7353
L43.0292 -13.6632
L43.3511 -13.5948
L43.6769 -13.5303
L44.0066 -13.4699
L44.3402 -13.4137
L44.6778 -13.3619
L45.0193 -13.3147
L45.3649 -13.2723
L45.7145 -13.2349
L46.0682 -13.2027
L46.4259 -13.176
L46.7877 -13.155
L47.1535 -13.1399
L47.5233 -13.1311
L47.897 -13.1287
L48.2747 -13.133
L48.6562 -13.1444
L49.0414 -13.1632
L49.4303 -13.1897
L49.8227 -13.2241
L50.2185 -13.2669
L50.6175 -13.3183
L51.0195 -13.3788
L51.4243 -13.4487
L51.8317 -13.5283
L52.2413 -13.6181
L52.6529 -13.7184
L53.0661 -13.8296
L53.4806 -13.9521
L53.8959 -14.0862
L54.3115 -14.2323
L54.7269 -14.3909
L55.1215 -14.5622
L55.4874 -14.8666
L55.8474 -15.2036
L56.2013 -15.5468
L56.5491 -15.8963
L56.8906 -16.252
L57.2258 -16.6136
L57.5545 -16.9812
L57.8766 -17.3545
L58.1921 -17.7335
L58.5008 -18.1181
L58.8026 -18.5081
L59.0975 -18.9035
L59.3854 -19.304
L59.6661 -19.7097
L59.9397 -20.1203
L60.2059 -20.5357
L60.4648 -20.9559
L60.7162 -21.3806
L60.9601 -21.8098
L61.1964 -22.2434
L61.425 -22.6811
L61.6458 -23.1228
L61.8589 -23.5685
L62.0641 -24.018
L62.2613 -24.4711
L62.4505 -24.9278
L62.6317 -25.3878
L62.8048 -25.851
L62.9697 -26.3173
L63.1264 -26.7866
L63.2748 -27.2587
z
" id="C0_1_2f58919b70"/>
     <path d="
M16.9959 -57.1006
L16.7669 -56.7087
L16.5403 -56.3147
L16.3158 -55.9189
L16.093 -55.5215
L15.8718 -55.1231
L15.6515 -54.724
L15.432 -54.3246
L15.2127 -53.9253
L14.9932 -53.5264
L14.773 -53.1283
L14.5518 -52.7315
L14.3291 -52.3361
L14.1045 -51.9425
L13.8775 -51.551
L13.648 -51.1618
L13.4154 -50.7751
L13.1797 -50.3909
L12.9407 -50.0093
L12.6983 -49.6302
L12.4526 -49.2538
L12.2035 -48.8797
L11.9513 -48.5079
L11.6962 -48.1382
L11.4386 -47.7703
L11.1787 -47.4039
L10.9171 -47.0389
L10.6541 -46.675
L10.3903 -46.3118
L10.1261 -45.9491
L9.86213 -45.5866
L9.59878 -45.2241
L9.33658 -44.8614
L9.07601 -44.4982
L8.84311 -44.1345
L8.99814 -44.646
L9.1614 -45.1186
L9.33283 -45.5885
L9.51238 -46.0554
L9.7 -46.5193
L9.89563 -46.98
L10.0992 -47.4373
L10.3107 -47.8912
L10.53 -48.3414
L10.757 -48.7878
L10.9918 -49.2304
L11.2342 -49.6689
L11.4841 -50.1033
L11.7414 -50.5334
L12.0062 -50.959
L12.2783 -51.3801
L12.5576 -51.7965
L12.844 -52.2081
L13.1375 -52.6148
L13.438 -53.0164
L13.7453 -53.4128
L14.0594 -53.8039
L14.3802 -54.1896
L14.7076 -54.5697
L15.0415 -54.9442
L15.3817 -55.3129
L15.7282 -55.6758
L16.0809 -56.0326
L16.4397 -56.3834
z
" id="C0_2_ae0cd32efb"/>
    </defs>
    <g clip-path="url(#p1bffca34e9)">
     <use style="fill:#ff0000;stroke:#000000;stroke-width:2.0;" x="0.0" xlink:href="#C0_0_a811fe30f3" y="72.0"/>
    </g>
    <g clip-path="url(#p1bffca34e9)">
     <use style="fill:#ffffff;stroke:#000000;stroke-width:2.0;" x="0.0" xlink:href="#C0_1_2f58919b70" y="72.0"/>
    </g>
    <g clip-path="url(#p1bffca34e9)">
     <use style="fill:#ffffff;stroke:#000000;stroke-width:2.0;" x="0.0" xlink:href="#C0_2_ae0cd32efb" y="72.0"/>
    </g>
   </g>
  </g>
 </g>
 <defs>
  <clipPath id="p1bffca34e9">
   <rect height="72.0" width="72.0" x="0.0" y="0.0"/>
  </clipPath>
 </defs>
</svg>
