<?xml version="1.0" encoding="utf-8" standalone="no"?>
<!DOCTYPE svg PUBLIC "-//W3C//DTD SVG 1.1//EN"
  "http://www.w3.org/Graphics/SVG/1.1/DTD/svg11.dtd">
<!-- Created with matplotlib (http://matplotlib.org/) -->
<svg height="72pt" version="1.1" viewBox="0 0 72 72" width="72pt" xmlns="http://www.w3.org/2000/svg" xmlns:xlink="http://www.w3.org/1999/xlink">
 <defs>
  <style type="text/css">
*{stroke-linecap:butt;stroke-linejoin:round;}
  </style>
 </defs>
 <g id="figure_1">
  <g id="patch_1">
   <path d="
M0 72
L72 72
L72 0
L0 0
z
" style="fill:none;"/>
  </g>
  <g id="axes_1">
   <g id="PatchCollection_1">
    <defs>
     <path d="
M36 -7.5
C43.5583 -7.5 50.808 -10.5029 56.1525 -15.8475
C61.4971 -21.192 64.5 -28.4417 64.5 -36
C64.5 -43.5583 61.4971 -50.808 56.1525 -56.1525
C50.808 -61.4971 43.5583 -64.5 36 -64.5
C28.4417 -64.5 21.192 -61.4971 15.8475 -56.1525
C10.5029 -50.808 7.5 -43.5583 7.5 -36
C7.5 -28.4417 10.5029 -21.192 15.8475 -15.8475
C21.192 -10.5029 28.4417 -7.5 36 -7.5
z
" id="C0_0_a811fe30f3"/>
     <path d="
M23.814 -25.7788
L23.7088 -26.0341
L23.6058 -26.2903
L23.505 -26.5476
L23.4064 -26.806
L23.31 -27.0655
L23.2157 -27.3261
L23.1236 -27.5879
L23.0337 -27.851
L22.946 -28.1152
L22.8604 -28.3808
L22.777 -28.6478
L22.6957 -28.9161
L22.6166 -29.1858
L22.5397 -29.457
L22.4649 -29.7296
L22.3924 -30.0038
L22.3221 -30.2796
L22.254 -30.557
L22.1882 -30.836
L22.1246 -31.1167
L22.0634 -31.3992
L22.0045 -31.6834
L21.948 -31.9694
L21.8938 -32.2573
L21.8421 -32.547
L21.7929 -32.8387
L21.7462 -33.1323
L21.7021 -33.4279
L21.6606 -33.7254
L21.6218 -34.025
L21.5858 -34.3267
L21.5525 -34.6305
L21.5221 -34.9363
L21.4946 -35.2443
L21.4701 -35.5544
L21.4487 -35.8667
L21.4304 -36.1812
L21.4154 -36.4978
L21.4037 -36.8166
L21.3955 -37.1375
L21.3907 -37.4606
L21.3896 -37.7859
L21.3921 -38.1133
L21.3985 -38.4428
L21.4089 -38.7743
L21.4233 -39.1079
L21.4418 -39.4434
L21.4647 -39.7809
L21.492 -40.1202
L21.5239 -40.4613
L21.5605 -40.8041
L21.6019 -41.1485
L21.6483 -41.4944
L21.6999 -41.8417
L21.7567 -42.1902
L21.819 -42.5398
L21.887 -42.8904
L21.9607 -43.2417
L22.0403 -43.5935
L22.1261 -43.9457
L22.2182 -44.2981
L22.3168 -44.6503
L22.422 -45.0021
L22.534 -45.3533
L22.6531 -45.7035
L22.7793 -46.0524
L22.9129 -46.3996
L23.054 -46.7448
L23.2028 -47.0876
L23.3595 -47.4275
L23.5242 -47.7641
L23.6972 -48.097
L23.8784 -48.4257
L24.0682 -48.7496
L24.2665 -49.0683
L24.4735 -49.3812
L24.6893 -49.6877
L24.914 -49.9873
L25.1476 -50.2794
L25.3902 -50.5634
L25.6417 -50.8387
L25.9021 -51.1048
L26.1714 -51.3612
L26.4494 -51.6072
L26.736 -51.8423
L27.0311 -52.0662
L27.3343 -52.2782
L27.6456 -52.4781
L27.9645 -52.6655
L28.2907 -52.84
L28.6239 -53.0015
L28.9637 -53.1497
L29.3095 -53.2845
L29.6611 -53.406
L30.0178 -53.514
L30.3792 -53.6086
L30.7447 -53.6901
L31.1139 -53.7584
L31.4863 -53.8138
L31.8612 -53.8566
L32.2383 -53.8871
L32.6169 -53.9055
L32.9967 -53.9123
L33.3772 -53.9077
L33.7578 -53.8921
L34.1383 -53.8659
L34.5181 -53.8296
L34.8969 -53.7834
L35.2743 -53.7279
L35.6501 -53.6633
L36.0238 -53.59
L36.3952 -53.5085
L36.7641 -53.4192
L37.1302 -53.3223
L37.4932 -53.2183
L37.853 -53.1074
L38.2094 -52.9901
L38.5623 -52.8666
L38.9114 -52.7372
L39.2567 -52.6024
L39.5981 -52.4623
L39.9354 -52.3171
L40.2687 -52.1673
L40.5977 -52.0131
L40.9225 -51.8546
L41.243 -51.6921
L41.5593 -51.5258
L41.8711 -51.356
L42.1787 -51.1828
L42.4819 -51.0064
L42.7807 -50.8271
L43.0752 -50.6449
L43.3654 -50.46
L43.6513 -50.2726
L43.9329 -50.0828
L44.2102 -49.8907
L44.4834 -49.6965
L44.7524 -49.5003
L45.0172 -49.3022
L45.278 -49.1023
L45.5348 -48.9006
L45.7875 -48.6974
L46.0364 -48.4925
L46.2813 -48.2862
L46.5224 -48.0785
L46.7598 -47.8695
L46.9934 -47.6591
L47.2234 -47.4475
L47.4498 -47.2348
L47.6726 -47.0209
L47.892 -46.8058
L48.1079 -46.5897
L48.3204 -46.3726
L48.5296 -46.1544
L48.7356 -45.9353
L48.9383 -45.7152
L49.1379 -45.4941
L49.3343 -45.272
L49.5277 -45.049
L49.7181 -44.8251
L49.9055 -44.6003
L50.0901 -44.3745
L50.2717 -44.1477
L50.4505 -43.9201
L50.6265 -43.6915
L50.7998 -43.4619
L50.9704 -43.2314
L51.1383 -42.9999
L51.3036 -42.7673
L51.4663 -42.5338
L51.6265 -42.2993
L51.7841 -42.0636
L51.9392 -41.827
L52.0918 -41.5892
L52.242 -41.3502
L52.3897 -41.1102
L52.5351 -40.8689
L52.6781 -40.6264
L52.8186 -40.3827
L52.9569 -40.1377
L53.0928 -39.8914
L53.2263 -39.6437
L53.3576 -39.3947
L53.4865 -39.1442
L53.6131 -38.8923
L53.7374 -38.6388
L53.8594 -38.3839
L53.9791 -38.1273
L54.0965 -37.8691
L54.2115 -37.6093
L54.3242 -37.3477
L54.4345 -37.0844
L54.5424 -36.8193
L54.648 -36.5524
L54.7511 -36.2835
L54.8518 -36.0128
L54.95 -35.74
L55.0457 -35.4652
L55.1389 -35.1884
L55.2295 -34.9094
L55.3174 -34.6283
L55.4027 -34.3449
L55.4853 -34.0593
L55.565 -33.7714
L55.642 -33.4811
L55.716 -33.1885
L55.7871 -32.8934
L55.8551 -32.5958
L55.92 -32.2957
L55.9817 -31.9931
L56.0401 -31.6878
L56.0952 -31.3799
L56.1468 -31.0694
L56.1948 -30.7561
L56.2391 -30.4402
L56.2796 -30.1214
L56.3162 -29.7999
L56.3488 -29.4757
L56.3772 -29.1486
L56.4014 -28.8187
L56.421 -28.4859
L56.4361 -28.1504
L56.4465 -27.8121
L56.4519 -27.4709
L56.4523 -27.127
L56.4474 -26.7803
L56.4371 -26.431
L56.4212 -26.0789
L56.3995 -25.7243
L56.3717 -25.3671
L56.3378 -25.0074
L56.2975 -24.6454
L56.2505 -24.281
L56.1967 -23.9146
L56.1358 -23.5461
L56.0676 -23.1757
L55.9918 -22.8036
L55.9083 -22.4299
L55.8167 -22.0549
L55.7169 -21.6788
L55.6086 -21.3018
L55.4915 -20.9242
L55.3654 -20.5462
L55.2301 -20.1683
L55.0854 -19.7906
L54.9309 -19.4136
L54.7665 -19.0377
L54.5921 -18.6632
L54.4072 -18.2906
L54.2119 -17.9204
L54.0059 -17.5531
L53.7891 -17.1892
L53.5613 -16.8293
L53.3225 -16.4738
L53.0725 -16.1236
L52.8114 -15.779
L52.5391 -15.441
L52.2558 -15.1099
L51.9613 -14.7867
L51.656 -14.4719
L51.3399 -14.1662
L51.0133 -13.8703
L50.6765 -13.5849
L50.3298 -13.3107
L49.9736 -13.0482
L49.6082 -12.7981
L49.2343 -12.5609
L48.8524 -12.3372
L48.4629 -12.1273
L48.0666 -11.9317
L47.6641 -11.7507
L47.2561 -11.5845
L46.8432 -11.4334
L46.4262 -11.2974
L46.0058 -11.1766
L45.5827 -11.0709
L45.1576 -10.9803
L44.7312 -10.9046
L44.3042 -10.8436
L43.8771 -10.797
L43.4506 -10.7645
L43.0254 -10.7457
L42.6018 -10.7404
L42.1805 -10.748
L41.7618 -10.7681
L41.3463 -10.8004
L40.9343 -10.8443
L40.5261 -10.8994
L40.1222 -10.9652
L39.7227 -11.0412
L39.328 -11.127
L38.9382 -11.2222
L38.5536 -11.3262
L38.1743 -11.4387
L37.8005 -11.5592
L37.4322 -11.6872
L37.0696 -11.8225
L36.7127 -11.9646
L36.3617 -12.1131
L36.0165 -12.2676
L35.6771 -12.4279
L35.3436 -12.5935
L35.016 -12.7642
L34.6942 -12.9397
L34.3783 -13.1196
L34.0681 -13.3037
L33.7637 -13.4918
L33.465 -13.6835
L33.1718 -13.8787
L32.8843 -14.0771
L32.6022 -14.2785
L32.3256 -14.4828
L32.0543 -14.6897
L31.7882 -14.899
L31.5274 -15.1107
L31.2716 -15.3245
L31.0208 -15.5403
L30.7749 -15.758
L30.5339 -15.9774
L30.2976 -16.1984
L30.0659 -16.4209
L29.8388 -16.6449
L29.6161 -16.8702
L29.3978 -17.0968
L29.1838 -17.3245
L28.974 -17.5533
L28.7683 -17.7831
L28.5666 -18.0139
L28.3688 -18.2456
L28.1749 -18.4782
L27.9848 -18.7116
L27.7983 -18.9458
L27.6155 -19.1807
L27.4362 -19.4164
L27.2604 -19.6527
L27.0879 -19.8898
L26.9188 -20.1275
L26.7529 -20.3658
L26.5903 -20.6048
L26.4307 -20.8444
L26.2742 -21.0846
L26.1207 -21.3255
L25.9701 -21.5669
L25.8225 -21.809
L25.6776 -22.0517
L25.5355 -22.2951
L25.3962 -22.5391
L25.2595 -22.7838
L25.1255 -23.0292
L24.9941 -23.2752
L24.8652 -23.522
L24.7388 -23.7695
L24.6149 -24.0178
L24.4934 -24.2668
L24.3743 -24.5166
L24.2576 -24.7673
L24.1433 -25.0188
L24.0312 -25.2712
z
" id="C0_1_a17c3212f9"/>
    </defs>
    <g clip-path="url(#p1bffca34e9)">
     <use style="fill:#ff0000;stroke:#000000;stroke-width:2.0;" x="0.0" xlink:href="#C0_0_a811fe30f3" y="72.0"/>
    </g>
    <g clip-path="url(#p1bffca34e9)">
     <use style="fill:#ffffff;stroke:#000000;stroke-width:2.0;" x="0.0" xlink:href="#C0_1_a17c3212f9" y="72.0"/>
    </g>
   </g>
  </g>
 </g>
 <defs>
  <clipPath id="p1bffca34e9">
   <rect height="72.0" width="72.0" x="0.0" y="0.0"/>
  </clipPath>
 </defs>
</svg>
