<?xml version="1.0" encoding="utf-8" standalone="no"?>
<!DOCTYPE svg PUBLIC "-//W3C//DTD SVG 1.1//EN"
  "http://www.w3.org/Graphics/SVG/1.1/DTD/svg11.dtd">
<!-- Created with matplotlib (http://matplotlib.org/) -->
<svg height="72pt" version="1.1" viewBox="0 0 72 72" width="72pt" xmlns="http://www.w3.org/2000/svg" xmlns:xlink="http://www.w3.org/1999/xlink">
 <defs>
  <style type="text/css">
*{stroke-linecap:butt;stroke-linejoin:round;}
  </style>
 </defs>
 <g id="figure_1">
  <g id="patch_1">
   <path d="
M0 72
L72 72
L72 0
L0 0
z
" style="fill:none;"/>
  </g>
  <g id="axes_1">
   <g id="PatchCollection_1">
    <defs>
     <path d="
M36 -7.5
C43.5583 -7.5 50.808 -10.5029 56.1525 -15.8475
C61.4971 -21.192 64.5 -28.4417 64.5 -36
C64.5 -43.5583 61.4971 -50.808 56.1525 -56.1525
C50.808 -61.4971 43.5583 -64.5 36 -64.5
C28.4417 -64.5 21.192 -61.4971 15.8475 -56.1525
C10.5029 -50.808 7.5 -43.5583 7.5 -36
C7.5 -28.4417 10.5029 -21.192 15.8475 -15.8475
C21.192 -10.5029 28.4417 -7.5 36 -7.5
z
" id="C0_0_a811fe30f3"/>
     <path d="
M27.4516 -8.8703
L27.4918 -9.05082
L27.5321 -9.2318
L27.5725 -9.41327
L27.6131 -9.59527
L27.6539 -9.77782
L27.6948 -9.96096
L27.7359 -10.1447
L27.7772 -10.3291
L27.8186 -10.5142
L27.8603 -10.7001
L27.9022 -10.8866
L27.9443 -11.074
L27.9866 -11.2623
L28.072 -11.4514
L28.1151 -11.6415
L28.1584 -11.8325
L28.2021 -12.0245
L28.246 -12.2176
L28.2903 -12.4118
L28.3349 -12.6072
L28.3798 -12.8037
L28.425 -13.0015
L28.4706 -13.2006
L28.5166 -13.4011
L28.5629 -13.603
L28.6097 -13.8063
L28.6568 -14.0111
L28.7044 -14.2176
L28.7523 -14.4256
L28.8008 -14.6353
L28.8496 -14.8468
L28.899 -15.0601
L28.9488 -15.2752
L28.9991 -15.4923
L29.0499 -15.7113
L29.1013 -15.9324
L29.1532 -16.1556
L29.2056 -16.381
L29.2586 -16.6087
L29.3121 -16.8387
L29.3663 -17.071
L29.421 -17.3058
L29.4764 -17.5431
L29.5324 -17.7831
L29.589 -18.0257
L29.6463 -18.271
L29.7042 -18.5191
L29.7628 -18.7701
L29.8221 -19.0241
L29.8821 -19.281
L29.9427 -19.5411
L30.0041 -19.8043
L30.0662 -20.0708
L30.129 -20.3406
L30.1926 -20.6137
L30.2568 -20.8903
L30.3218 -21.1704
L30.3875 -21.4541
L30.4539 -21.7413
L30.521 -22.0323
L30.5888 -22.327
L30.6573 -22.6255
L30.7265 -22.9279
L30.7963 -23.2342
L30.8667 -23.5443
L30.9377 -23.8585
L31.0092 -24.1766
L31.0813 -24.4987
L31.1537 -24.8249
L31.2266 -25.1551
L31.2998 -25.4893
L31.3732 -25.8275
L31.4468 -26.1697
L31.5203 -26.5159
L31.5939 -26.8659
L31.6671 -27.2198
L31.7401 -27.5774
L31.8124 -27.9387
L31.884 -28.3034
L31.9547 -28.6716
L32.0241 -29.043
L32.092 -29.4174
L32.1581 -29.7947
L32.2221 -30.1745
L32.2834 -30.5566
L32.3417 -30.9408
L32.3964 -31.3266
L32.447 -31.7138
L32.4928 -32.1017
L32.5331 -32.4901
L32.5671 -32.8784
L32.594 -33.2659
L32.6127 -33.6522
L32.6222 -34.0364
L32.6213 -34.4179
L32.6089 -34.7959
L32.5836 -35.1696
L32.5442 -35.5381
L32.4895 -35.9005
L32.4181 -36.2559
L32.329 -36.6035
L32.2213 -36.9424
L32.0943 -37.2719
L31.9476 -37.5914
L31.781 -37.9005
L31.5948 -38.1987
L31.3896 -38.4859
L31.1662 -38.7621
L30.9257 -39.0275
L30.6693 -39.2823
L30.3983 -39.5268
L30.1143 -39.7615
L29.8186 -39.9869
L29.5126 -40.2034
L29.1978 -40.4115
L28.8753 -40.6117
L28.5465 -40.8045
L28.2124 -40.9903
L27.874 -41.1694
L27.5323 -41.3422
L27.1881 -41.509
L26.8421 -41.6702
L26.495 -41.826
L26.1475 -41.9766
L25.8001 -42.1223
L25.4532 -42.2633
L25.1073 -42.3997
L24.7628 -42.5317
L24.42 -42.6595
L24.0792 -42.7832
L23.7406 -42.9029
L23.4046 -43.0189
L23.0713 -43.1311
L22.7408 -43.2397
L22.4134 -43.3448
L22.0891 -43.4465
L21.768 -43.5449
L21.4503 -43.6402
L21.136 -43.7322
L20.8251 -43.8213
L20.5177 -43.9074
L20.2138 -43.9906
L19.9134 -44.071
L19.6166 -44.1487
L19.3233 -44.2238
L19.0335 -44.2962
L18.7473 -44.3661
L18.4645 -44.4336
L18.1851 -44.4987
L17.9092 -44.5614
L17.6366 -44.6218
L17.3674 -44.68
L17.1014 -44.7361
L16.8387 -44.79
L16.5791 -44.8419
L16.3226 -44.8917
L16.0692 -44.9396
L15.8188 -44.9855
L15.5713 -45.0296
L15.3266 -45.0718
L15.0848 -45.1122
L14.8457 -45.1508
L14.6093 -45.1877
L14.3755 -45.2229
L14.1442 -45.2564
L13.9154 -45.2883
L13.689 -45.3186
L13.465 -45.3472
L13.2432 -45.3744
L13.0237 -45.3999
L12.8063 -45.424
L12.591 -45.4466
L12.3777 -45.4677
L12.1664 -45.4873
L11.957 -45.5055
L11.7494 -45.5223
L11.5437 -45.5376
L11.3396 -45.5515
L11.1372 -45.5641
L10.9364 -45.5752
L10.7372 -45.5849
L10.5395 -45.5933
L10.3432 -45.6003
L10.1483 -45.6058
L9.95468 -45.61
L9.76238 -45.6128
L9.57132 -45.6142
L9.38143 -45.6142
L9.19267 -45.6128
L9.00801 -45.61
L8.85247 -45.1478
L8.7052 -44.6753
L8.56624 -44.2002
L8.43564 -43.7226
L8.31344 -43.2427
L8.19967 -42.7605
L8.09436 -42.2763
L7.99756 -41.7901
L7.90929 -41.3022
L7.82958 -40.8127
L7.75844 -40.3217
L7.69591 -39.8294
L7.642 -39.336
L7.59673 -38.8415
L7.56011 -38.3461
L7.53215 -37.8501
L7.51287 -37.3534
L7.50226 -36.8564
L7.50034 -36.3591
L7.50709 -35.8617
L7.52252 -35.3643
L7.54663 -34.8671
L7.57941 -34.3703
L7.62084 -33.874
L7.67092 -33.3783
L7.72962 -32.8834
L7.79694 -32.3895
L7.87285 -31.8966
L7.95733 -31.4051
L8.05035 -30.9149
L8.15188 -30.4262
L8.26189 -29.9393
L8.38036 -29.4542
L8.50724 -28.9711
L8.64249 -28.4901
L8.78607 -28.0115
L8.93795 -27.5352
L9.09807 -27.0616
L9.26638 -26.5906
L9.44284 -26.1226
L9.62738 -25.6575
L9.81996 -25.1956
L10.0205 -24.737
L10.229 -24.2818
L10.4453 -23.8302
L10.6694 -23.3823
L10.9012 -22.9382
L11.1407 -22.4981
L11.3877 -22.0621
L11.6423 -21.6304
L11.9042 -21.203
L12.1735 -20.7802
L12.4501 -20.362
L12.7338 -19.9485
L13.0246 -19.54
L13.3224 -19.1364
L13.6271 -18.738
L13.9386 -18.3449
L14.2569 -17.9571
L14.5818 -17.5748
L14.9132 -17.1982
L15.251 -16.8272
L15.5951 -16.4621
L15.9455 -16.103
L16.302 -15.7499
L16.6644 -15.403
L17.0328 -15.0623
L17.4069 -14.7281
L17.7867 -14.4003
L18.1721 -14.0791
L18.5628 -13.7646
L18.9589 -13.4568
L19.3602 -13.1559
L19.7666 -12.862
L20.1779 -12.5751
L20.594 -12.2954
L21.0148 -12.0228
L21.4401 -11.7576
L21.8699 -11.4998
L22.3041 -11.2494
L22.7423 -11.0066
L23.1847 -10.7714
L23.6309 -10.5438
L24.0809 -10.324
L24.5345 -10.1121
L24.9916 -9.908
L25.4521 -9.71188
L25.9158 -9.52376
L26.3825 -9.3437
L26.8522 -9.17177
z
" id="C0_1_63c1dea2f1"/>
     <path d="
M62.7057 -26.4972
L62.5612 -26.6191
L62.4155 -26.7409
L62.2685 -26.8624
L62.1203 -26.9838
L61.9708 -27.1051
L61.8201 -27.2263
L61.6679 -27.3474
L61.5144 -27.4686
L61.3595 -27.5898
L61.2032 -27.7111
L61.0454 -27.8325
L60.886 -27.954
L60.7251 -28.0756
L60.5627 -28.1975
L60.3985 -28.3197
L60.2327 -28.4421
L60.0652 -28.5648
L59.8958 -28.6878
L59.7247 -28.8112
L59.5517 -28.9351
L59.3767 -29.0594
L59.1998 -29.1842
L59.0209 -29.3094
L58.8399 -29.4353
L58.6567 -29.5617
L58.4714 -29.6888
L58.2838 -29.8165
L58.0939 -29.9449
L57.9016 -30.074
L57.7069 -30.2039
L57.5098 -30.3345
L57.31 -30.466
L57.1077 -30.5984
L56.9027 -30.7317
L56.695 -30.8659
L56.4844 -31.001
L56.271 -31.1372
L56.0547 -31.2745
L55.8353 -31.4128
L55.6129 -31.5522
L55.3874 -31.6927
L55.1587 -31.8345
L54.9268 -31.9774
L54.6915 -32.1216
L54.4529 -32.2671
L54.2108 -32.4139
L53.9653 -32.5621
L53.7162 -32.7116
L53.4635 -32.8626
L53.2072 -33.015
L52.9472 -33.1689
L52.6835 -33.3243
L52.4161 -33.4812
L52.1449 -33.6398
L51.8698 -33.7999
L51.591 -33.9617
L51.3084 -34.1251
L51.0219 -34.2903
L50.7317 -34.4572
L50.4377 -34.6258
L50.14 -34.7962
L49.8386 -34.9685
L49.5337 -35.1426
L49.2252 -35.3186
L48.9133 -35.4965
L48.5982 -35.6764
L48.28 -35.8583
L47.9588 -36.0423
L47.635 -36.2284
L47.3087 -36.4166
L46.9802 -36.6071
L46.6498 -36.7999
L46.318 -36.9951
L45.9851 -37.1928
L45.6516 -37.393
L45.318 -37.5961
L44.9849 -37.802
L44.6531 -38.0111
L44.3232 -38.2234
L43.996 -38.4393
L43.6726 -38.6589
L43.3538 -38.8827
L43.0409 -39.111
L42.735 -39.3441
L42.4374 -39.5826
L42.1495 -39.8268
L41.8728 -40.0772
L41.6087 -40.3344
L41.3586 -40.5988
L41.124 -40.8708
L40.9061 -41.151
L40.7062 -41.4396
L40.525 -41.7369
L40.3632 -42.0429
L40.2211 -42.3574
L40.0987 -42.6804
L39.9955 -43.0114
L39.9111 -43.3499
L39.8444 -43.6952
L39.7946 -44.0466
L39.7603 -44.4033
L39.7404 -44.7646
L39.7336 -45.1296
L39.7386 -45.4974
L39.7544 -45.8674
L39.7796 -46.2389
L39.8134 -46.611
L39.8547 -46.9833
L39.9026 -47.3551
L39.9564 -47.726
L40.0154 -48.0953
L40.0788 -48.4628
L40.1462 -48.828
L40.2169 -49.1907
L40.2906 -49.5504
L40.3668 -49.9069
L40.4452 -50.2601
L40.5254 -50.6096
L40.6071 -50.9553
L40.6901 -51.2971
L40.7742 -51.6349
L40.8591 -51.9684
L40.9447 -52.2977
L41.0307 -52.6227
L41.1172 -52.9433
L41.2038 -53.2595
L41.2906 -53.5713
L41.3773 -53.8785
L41.464 -54.1814
L41.5506 -54.4798
L41.6369 -54.7737
L41.723 -55.0633
L41.8087 -55.3485
L41.8941 -55.6293
L41.979 -55.9059
L42.0635 -56.1783
L42.1476 -56.4464
L42.2312 -56.7105
L42.3142 -56.9704
L42.3967 -57.2264
L42.4788 -57.4785
L42.5602 -57.7267
L42.6412 -57.9711
L42.7215 -58.2118
L42.8014 -58.4489
L42.8807 -58.6824
L42.9595 -58.9124
L43.0377 -59.139
L43.1155 -59.3623
L43.1927 -59.5822
L43.2694 -59.799
L43.3456 -60.0127
L43.4214 -60.2233
L43.4966 -60.431
L43.5715 -60.6358
L43.6459 -60.8377
L43.7199 -61.0369
L43.7935 -61.2333
L43.8667 -61.4272
L43.9395 -61.6185
L44.012 -61.8073
L44.0842 -61.9936
L44.156 -62.1776
L44.2276 -62.3593
L44.2989 -62.5388
L44.3699 -62.716
L44.4407 -62.8912
L45.0232 -63.0642
L45.4936 -63.0339
L45.9611 -62.8723
L46.4256 -62.7025
L46.887 -62.5246
L47.345 -62.3386
L47.7995 -62.1446
L48.2505 -61.9426
L48.6977 -61.7328
L49.1411 -61.515
L49.5805 -61.2895
L50.0157 -61.0564
L50.4467 -60.8155
L50.8732 -60.5671
L51.2952 -60.3113
L51.7126 -60.048
L52.1252 -59.7774
L52.5328 -59.4995
L52.9355 -59.2145
L53.333 -58.9225
L53.7251 -58.6234
L54.1119 -58.3175
L54.4932 -58.0047
L54.8689 -57.6853
L55.2388 -57.3592
L55.6028 -57.0267
L55.9609 -56.6877
L56.3128 -56.3424
L56.6586 -55.991
L56.9981 -55.6334
L57.3312 -55.2699
L57.6579 -54.9005
L57.9779 -54.5253
L58.2912 -54.1445
L58.5977 -53.7582
L58.8974 -53.3664
L59.19 -52.9694
L59.4756 -52.5672
L59.7541 -52.16
L60.0253 -51.7478
L60.2892 -51.3308
L60.5457 -50.9092
L60.7947 -50.483
L61.0362 -50.0524
L61.2701 -49.6176
L61.4962 -49.1786
L61.7146 -48.7355
L61.9251 -48.2886
L62.1278 -47.838
L62.3225 -47.3837
L62.5092 -46.926
L62.6878 -46.4649
L62.8582 -46.0007
L63.0205 -45.5334
L63.1746 -45.0632
L63.3204 -44.5902
L63.4578 -44.1147
L63.5869 -43.6366
L63.7076 -43.1563
L63.8199 -42.6737
L63.9236 -42.1891
L64.0189 -41.7027
L64.1056 -41.2145
L64.1838 -40.7247
L64.2534 -40.2334
L64.3144 -39.7409
L64.3668 -39.2473
L64.4105 -38.7526
L64.4455 -38.2571
L64.4719 -37.7609
L64.4897 -37.2642
L64.4987 -36.7671
L64.4991 -36.2698
L64.4908 -35.7724
L64.4738 -35.2751
L64.4481 -34.7779
L64.4138 -34.2812
L64.3708 -33.785
L64.3192 -33.2894
L64.2589 -32.7947
L64.1901 -32.3009
L64.1126 -31.8083
L64.0266 -31.317
L63.9321 -30.827
L63.829 -30.3387
L63.7175 -29.8521
L63.5975 -29.3673
L63.4691 -28.8846
L63.3323 -28.404
L63.1873 -27.9258
L63.0339 -27.45
z
" id="C0_2_c5fc10f9b6"/>
    </defs>
    <g clip-path="url(#p1bffca34e9)">
     <use style="fill:#ffffff;stroke:#000000;stroke-width:2.0;" x="0.0" xlink:href="#C0_0_a811fe30f3" y="72.0"/>
    </g>
    <g clip-path="url(#p1bffca34e9)">
     <use style="fill:#ff0000;stroke:#000000;stroke-width:2.0;" x="0.0" xlink:href="#C0_1_63c1dea2f1" y="72.0"/>
    </g>
    <g clip-path="url(#p1bffca34e9)">
     <use style="fill:#ff0000;stroke:#000000;stroke-width:2.0;" x="0.0" xlink:href="#C0_2_c5fc10f9b6" y="72.0"/>
    </g>
   </g>
  </g>
 </g>
 <defs>
  <clipPath id="p1bffca34e9">
   <rect height="72.0" width="72.0" x="0.0" y="0.0"/>
  </clipPath>
 </defs>
</svg>
