<?xml version="1.0" encoding="utf-8" standalone="no"?>
<!DOCTYPE svg PUBLIC "-//W3C//DTD SVG 1.1//EN"
  "http://www.w3.org/Graphics/SVG/1.1/DTD/svg11.dtd">
<!-- Created with matplotlib (http://matplotlib.org/) -->
<svg height="72pt" version="1.1" viewBox="0 0 72 72" width="72pt" xmlns="http://www.w3.org/2000/svg" xmlns:xlink="http://www.w3.org/1999/xlink">
 <defs>
  <style type="text/css">
*{stroke-linecap:butt;stroke-linejoin:round;}
  </style>
 </defs>
 <g id="figure_1">
  <g id="patch_1">
   <path d="
M0 72
L72 72
L72 0
L0 0
z
" style="fill:none;"/>
  </g>
  <g id="axes_1">
   <g id="PatchCollection_1">
    <defs>
     <path d="
M36 -7.5
C43.5583 -7.5 50.808 -10.5029 56.1525 -15.8475
C61.4971 -21.192 64.5 -28.4417 64.5 -36
C64.5 -43.5583 61.4971 -50.808 56.1525 -56.1525
C50.808 -61.4971 43.5583 -64.5 36 -64.5
C28.4417 -64.5 21.192 -61.4971 15.8475 -56.1525
C10.5029 -50.808 7.5 -43.5583 7.5 -36
C7.5 -28.4417 10.5029 -21.192 15.8475 -15.8475
C21.192 -10.5029 28.4417 -7.5 36 -7.5
z
" id="C0_0_a811fe30f3"/>
     <path d="
M53.2878 -58.4978
L53.035 -58.4089
L52.7949 -58.3037
L52.5674 -58.1829
L52.3523 -58.0469
L52.1493 -57.8965
L51.9581 -57.7321
L51.7782 -57.5546
L51.6092 -57.3646
L51.4504 -57.1628
L51.3012 -56.95
L51.1612 -56.727
L51.0295 -56.4943
L50.9057 -56.2528
L50.789 -56.0031
L50.6789 -55.7459
L50.5748 -55.4818
L50.4761 -55.2115
L50.3823 -54.9356
L50.2929 -54.6546
L50.2074 -54.369
L50.1254 -54.0794
L50.0465 -53.7862
L49.9703 -53.4899
L49.8965 -53.1908
L49.8247 -52.8895
L49.7547 -52.5862
L49.6863 -52.2812
L49.6191 -51.975
L49.553 -51.6677
L49.4879 -51.3597
L49.4234 -51.0512
L49.3596 -50.7424
L49.2963 -50.4336
L49.2332 -50.1249
L49.1705 -49.8164
L49.1078 -49.5085
L49.0453 -49.2011
L48.9827 -48.8945
L48.9201 -48.5888
L48.8574 -48.284
L48.7945 -47.9802
L48.7315 -47.6776
L48.6682 -47.3762
L48.6046 -47.0761
L48.5407 -46.7773
L48.4766 -46.4799
L48.4121 -46.1839
L48.3473 -45.8894
L48.2821 -45.5964
L48.2165 -45.3048
L48.1506 -45.0148
L48.0842 -44.7263
L48.0175 -44.4394
L47.9504 -44.1539
L47.8829 -43.87
L47.815 -43.5877
L47.7466 -43.3068
L47.6779 -43.0274
L47.6087 -42.7495
L47.5391 -42.4731
L47.4691 -42.1981
L47.3987 -41.9245
L47.3278 -41.6522
L47.2565 -41.3814
L47.1848 -41.1118
L47.1126 -40.8435
L47.04 -40.5765
L46.9669 -40.3107
L46.8934 -40.0461
L46.8194 -39.7826
L46.745 -39.5203
L46.67 -39.259
L46.5947 -38.9987
L46.5188 -38.7394
L46.4424 -38.481
L46.3656 -38.2235
L46.2882 -37.9669
L46.2104 -37.7111
L46.132 -37.456
L46.0531 -37.2017
L45.9736 -36.948
L45.8936 -36.695
L45.813 -36.4426
L45.7318 -36.1907
L45.6501 -35.9393
L45.5677 -35.6883
L45.4848 -35.4377
L45.4012 -35.1875
L45.317 -34.9376
L45.1466 -34.688
L45.0603 -34.4386
L44.9734 -34.1894
L44.8858 -33.9403
L44.7974 -33.6912
L44.7083 -33.4423
L44.6184 -33.1933
L44.5277 -32.9442
L44.4362 -32.6951
L44.3439 -32.4458
L44.2508 -32.1963
L44.1568 -31.9466
L44.0619 -31.6966
L43.9662 -31.4463
L43.8695 -31.1957
L43.7718 -30.9446
L43.6733 -30.6931
L43.5737 -30.4411
L43.4732 -30.1886
L43.3716 -29.9355
L43.269 -29.6818
L43.1653 -29.4275
L43.0606 -29.1725
L42.9547 -28.9168
L42.8477 -28.6603
L42.7396 -28.403
L42.6304 -28.1448
L42.5199 -27.8859
L42.4083 -27.626
L42.2955 -27.3652
L42.1814 -27.1034
L42.0661 -26.8407
L41.9495 -26.5769
L41.8317 -26.3121
L41.7126 -26.0463
L41.5922 -25.7793
L41.4705 -25.5113
L41.3475 -25.2421
L41.2233 -24.9718
L41.0977 -24.7004
L40.9708 -24.4278
L40.8426 -24.154
L40.7131 -23.8791
L40.5824 -23.603
L40.4504 -23.3257
L40.3173 -23.0472
L40.1829 -22.7676
L40.0474 -22.4869
L39.9107 -22.205
L39.773 -21.922
L39.6343 -21.6379
L39.4947 -21.3528
L39.3543 -21.0666
L39.213 -20.7794
L39.0712 -20.4913
L38.9288 -20.2023
L38.7859 -19.9125
L38.6429 -19.6219
L38.4997 -19.3305
L38.3566 -19.0385
L38.2137 -18.7459
L38.0714 -18.4527
L37.9298 -18.1592
L37.7893 -17.8653
L37.65 -17.5712
L37.5124 -17.2769
L37.3767 -16.9826
L37.2434 -16.6884
L37.113 -16.3944
L36.9857 -16.1006
L36.8622 -15.8073
L36.743 -15.5145
L36.6287 -15.2225
L36.5198 -14.9312
L36.417 -14.6409
L36.321 -14.3517
L36.2326 -14.0638
L36.1525 -13.7773
L36.0814 -13.4923
L36.0203 -13.2091
L35.97 -12.9277
L35.9314 -12.6484
L35.9052 -12.3714
L35.8923 -12.0968
L35.8937 -11.8249
L35.91 -11.5558
L35.9421 -11.2898
L35.9906 -11.0272
L36.0561 -10.7681
L36.1392 -10.5129
L36.2403 -10.2619
L36.3597 -10.0153
L36.4976 -9.7734
L36.6541 -9.53664
L36.8292 -9.30532
L37.0228 -9.07978
L37.2346 -8.8604
L37.4644 -8.64752
L37.7115 -8.44152
L37.9757 -8.24276
L38.2562 -8.05159
L38.5525 -7.86836
L39.0546 -7.69341
L39.5487 -7.66417
L40.0416 -7.72179
L40.5334 -7.78803
L41.0238 -7.86286
L41.5126 -7.94627
L41.9998 -8.03822
L42.4851 -8.13868
L42.9685 -8.24764
L43.4497 -8.36505
L43.9287 -8.49087
L44.4052 -8.62508
L44.8792 -8.76762
L45.3505 -8.91846
L45.8189 -9.07755
L46.2844 -9.24483
L46.7467 -9.42027
L47.2057 -9.60381
L47.6613 -9.79538
L48.1134 -9.99494
L48.5618 -10.2024
L49.0064 -10.4178
L49.447 -10.6409
L49.8835 -10.8717
L50.3157 -11.1103
L50.7436 -11.3563
L51.1671 -11.6099
L51.5859 -11.871
L51.9999 -12.1393
L52.4091 -12.415
L52.8133 -12.6978
L53.2123 -12.9877
L53.6061 -13.2847
L53.9946 -13.5885
L54.3776 -13.8992
L54.7549 -14.2166
L55.1266 -14.5407
L55.4924 -14.8713
L55.8523 -15.2083
L56.2062 -15.5517
L56.5539 -15.9012
L56.8953 -16.2569
L57.2304 -16.6187
L57.559 -16.9863
L57.881 -17.3597
L58.1964 -17.7388
L58.505 -18.1235
L58.8067 -18.5136
L59.1015 -18.909
L59.3893 -19.3096
L59.67 -19.7153
L59.9434 -20.126
L60.2095 -20.5415
L60.4683 -20.9618
L60.7196 -21.3866
L60.9634 -21.8158
L61.1996 -22.2494
L61.4281 -22.6872
L61.6488 -23.129
L61.8618 -23.5747
L62.0668 -24.0243
L62.264 -24.4774
L62.4531 -24.9341
L62.6342 -25.3942
L62.8071 -25.8575
L62.9719 -26.3238
L63.1285 -26.7932
L63.2768 -27.2653
L63.4168 -27.7401
L63.5484 -28.2174
L63.6717 -28.6971
L63.7865 -29.179
L63.8929 -29.6629
L63.9908 -30.1488
L64.0801 -30.6365
L64.1609 -31.1258
L64.2331 -31.6167
L64.2967 -32.1088
L64.3517 -32.6021
L64.3981 -33.0965
L64.4358 -33.5917
L64.4648 -34.0877
L64.4852 -34.5843
L64.4969 -35.0813
L64.4999 -35.5786
L64.4942 -36.076
L64.4799 -36.5733
L64.4569 -37.0705
L64.4252 -37.5674
L64.3848 -38.0638
L64.3358 -38.5596
L64.2782 -39.0546
L64.212 -39.5487
L64.1371 -40.0416
L64.0537 -40.5334
L63.9618 -41.0238
L63.8613 -41.5126
L63.7524 -41.9998
L63.635 -42.4851
L63.5091 -42.9685
L63.3749 -43.4497
L63.2324 -43.9287
L63.0815 -44.4052
L62.9225 -44.8792
L62.7552 -45.3505
L62.5797 -45.8189
L62.3962 -46.2844
L62.2046 -46.7467
L62.0051 -47.2057
L61.7976 -47.6613
L61.5822 -48.1134
L61.3591 -48.5618
L61.1283 -49.0064
L60.8897 -49.447
L60.6437 -49.8835
L60.3901 -50.3157
L60.129 -50.7436
L59.8607 -51.1671
L59.585 -51.5859
L59.3022 -51.9999
L59.0123 -52.4091
L58.7153 -52.8133
L58.4115 -53.2123
L58.1008 -53.6061
L57.7834 -53.9946
L57.4593 -54.3776
L57.1287 -54.7549
L56.7917 -55.1266
L56.4483 -55.4924
L56.0988 -55.8523
L55.7431 -56.2062
L55.3813 -56.5539
L55.0137 -56.8953
L54.6403 -57.2304
L54.2612 -57.559
L53.8765 -57.881
z
" id="C0_1_d50b3f718d"/>
     <path d="
M33.1594 -64.2404
L32.8787 -64.0158
L32.5922 -63.7889
L32.3007 -63.5596
L32.0051 -63.3278
L31.7062 -63.0936
L31.4049 -62.8569
L31.1018 -62.6176
L30.7976 -62.3758
L30.4929 -62.1316
L30.1883 -61.8849
L29.8843 -61.6358
L29.5813 -61.3844
L29.2798 -61.1308
L28.9802 -60.8751
L28.6828 -60.6173
L28.388 -60.3575
L28.096 -60.0959
L27.8071 -59.8325
L27.5214 -59.5675
L27.2392 -59.301
L26.9606 -59.033
L26.6858 -58.7638
L26.4149 -58.4933
L26.1479 -58.2217
L25.885 -57.9492
L25.6263 -57.6757
L25.3717 -57.4014
L25.1213 -57.1263
L24.8751 -56.8507
L24.6332 -56.5744
L24.3955 -56.2977
L24.162 -56.0206
L23.9327 -55.7431
L23.7077 -55.4654
L23.4868 -55.1874
L23.27 -54.9092
L23.0573 -54.6309
L22.8487 -54.3525
L22.6441 -54.0741
L22.4434 -53.7957
L22.2466 -53.5173
L22.0537 -53.2389
L21.8646 -52.9606
L21.6792 -52.6824
L21.4974 -52.4043
L21.3193 -52.1263
L21.1448 -51.8485
L20.9737 -51.5707
L20.8061 -51.2931
L20.6419 -51.0157
L20.481 -50.7383
L20.3234 -50.4611
L20.169 -50.184
L20.0177 -49.907
L19.8695 -49.6301
L19.7244 -49.3533
L19.5823 -49.0765
L19.4431 -48.7997
L19.3068 -48.523
L19.1733 -48.2463
L19.0426 -47.9695
L18.9147 -47.6927
L18.7895 -47.4157
L18.6669 -47.1387
L18.547 -46.8615
L18.4297 -46.5841
L18.3148 -46.3065
L18.2025 -46.0286
L18.0927 -45.7505
L17.9853 -45.472
L17.8803 -45.1932
L17.7777 -44.914
L17.6775 -44.6343
L17.5796 -44.3542
L17.4839 -44.0735
L17.3906 -43.7922
L17.2995 -43.5104
L17.2107 -43.2279
L17.1241 -42.9447
L17.0397 -42.6607
L16.9575 -42.3759
L16.8775 -42.0904
L16.7996 -41.8039
L16.724 -41.5165
L16.6505 -41.2281
L16.5792 -40.9387
L16.51 -40.6483
L16.443 -40.3567
L16.3781 -40.0639
L16.3154 -39.7699
L16.2549 -39.4747
L16.1966 -39.1781
L16.1405 -38.8801
L16.0866 -38.5808
L16.0349 -38.28
L15.9854 -37.9776
L15.9382 -37.6738
L15.8932 -37.3683
L15.8506 -37.0611
L15.8102 -36.7523
L15.7722 -36.4417
L15.7366 -36.1293
L15.7034 -35.8151
L15.6726 -35.499
L15.6443 -35.1809
L15.6185 -34.861
L15.5953 -34.539
L15.5746 -34.215
L15.5565 -33.8889
L15.5412 -33.5607
L15.5285 -33.2304
L15.5186 -32.8979
L15.5114 -32.5633
L15.5072 -32.2264
L15.5058 -31.8873
L15.5073 -31.546
L15.5119 -31.2024
L15.5195 -30.8566
L15.5303 -30.5085
L15.5441 -30.1581
L15.5612 -29.8055
L15.5815 -29.4507
L15.6051 -29.0936
L15.6321 -28.7344
L15.6624 -28.373
L15.6961 -28.0095
L15.7333 -27.6439
L15.774 -27.2763
L15.8182 -26.9068
L15.866 -26.5354
L15.9172 -26.1622
L15.9721 -25.7873
L16.0304 -25.4109
L16.0923 -25.033
L16.1576 -24.6537
L16.2264 -24.2733
L16.2986 -23.8918
L16.3741 -23.5094
L16.4527 -23.1264
L16.5345 -22.7429
L16.6192 -22.359
L16.7066 -21.9752
L16.7967 -21.5915
L16.889 -21.2082
L16.9835 -20.8256
L17.0797 -20.4441
L17.1774 -20.0638
L17.2762 -19.6852
L17.3756 -19.3085
L17.4752 -18.9341
L17.5745 -18.5623
L17.6729 -18.1936
L17.7699 -17.8283
L17.8647 -17.4668
L17.9568 -17.1095
L18.0453 -16.7569
L18.1295 -16.4093
L18.2087 -16.0672
L18.2819 -15.7309
L18.3484 -15.401
L18.4073 -15.0778
L18.4578 -14.7617
L18.4992 -14.4531
L18.5305 -14.1524
L18.5511 -13.8599
L18.1135 -13.576
L17.729 -13.8117
L17.35 -14.1272
L16.9767 -14.4494
L16.6093 -14.7782
L16.2477 -15.1134
L15.8922 -15.455
L15.5427 -15.8029
L15.1995 -16.1569
L14.8627 -16.5169
L14.5323 -16.8829
L14.2084 -17.2547
L13.8911 -17.6322
L13.5806 -18.0153
L13.2769 -18.4039
L12.9802 -18.7979
L12.6904 -19.1971
L12.4078 -19.6014
L12.1323 -20.0107
L11.8641 -20.4249
L11.6033 -20.8438
L11.3499 -21.2673
L11.104 -21.6954
L10.8657 -22.1277
L10.635 -22.5643
L10.4121 -23.005
L10.197 -23.4497
L9.9897 -23.8982
L9.79035 -24.3504
L9.59898 -24.8061
L9.41565 -25.2652
L9.24042 -25.7276
L9.07334 -26.1931
L8.91447 -26.6616
L8.76384 -27.133
L8.62151 -27.607
L8.48752 -28.0837
L8.36191 -28.5627
L8.24472 -29.044
L8.13599 -29.5274
L8.03574 -30.0128
L7.94401 -30.5
L7.86083 -30.9889
L7.78622 -31.4793
L7.7202 -31.9711
L7.6628 -32.4641
L7.61402 -32.9582
L7.5739 -33.4532
L7.54243 -33.949
L7.51963 -34.4454
L7.50551 -34.9423
L7.50007 -35.4395
L7.50331 -35.9369
L7.51523 -36.4343
L7.53582 -36.9315
L7.56509 -37.4285
L7.60302 -37.9251
L7.6496 -38.421
L7.70481 -38.9163
L7.76864 -39.4106
L7.84107 -39.9039
L7.92208 -40.396
L8.01165 -40.8868
L8.10973 -41.3761
L8.21632 -41.8637
L8.33136 -42.3496
L8.45484 -42.8335
L8.58671 -43.3153
L8.72692 -43.795
L8.87544 -44.2722
L9.03223 -44.7469
L9.19723 -45.219
L9.3704 -45.6882
L9.55167 -46.1545
L9.74101 -46.6177
L9.93834 -47.0777
L10.1436 -47.5343
L10.3568 -47.9874
L10.5777 -48.4368
L10.8064 -48.8824
L11.0428 -49.3242
L11.2868 -49.7618
L11.5383 -50.1953
L11.7972 -50.6244
L12.0636 -51.0491
L12.3372 -51.4692
L12.618 -51.8846
L12.906 -52.2952
L13.2009 -52.7008
L13.5029 -53.1013
L13.8117 -53.4966
L14.1272 -53.8865
L14.4494 -54.271
L14.7782 -54.65
L15.1134 -55.0233
L15.455 -55.3907
L15.8029 -55.7523
L16.1569 -56.1078
L16.5169 -56.4573
L16.8829 -56.8005
L17.2547 -57.1373
L17.6322 -57.4677
L18.0153 -57.7916
L18.4039 -58.1089
L18.7979 -58.4194
L19.1971 -58.7231
L19.6014 -59.0198
L20.0107 -59.3096
L20.4249 -59.5922
L20.8438 -59.8677
L21.2673 -60.1359
L21.6954 -60.3967
L22.1277 -60.6501
L22.5643 -60.896
L23.005 -61.1343
L23.4497 -61.365
L23.8982 -61.5879
L24.3504 -61.803
L24.8061 -62.0103
L25.2652 -62.2097
L25.7276 -62.401
L26.1931 -62.5843
L26.6616 -62.7596
L27.133 -62.9267
L27.607 -63.0855
L28.0837 -63.2362
L28.5627 -63.3785
L29.044 -63.5125
L29.5274 -63.6381
L30.0128 -63.7553
L30.5 -63.864
L30.9889 -63.9643
L31.4793 -64.056
L31.9711 -64.1392
L32.4641 -64.2138
z
" id="C0_2_3d4100f5a3"/>
    </defs>
    <g clip-path="url(#p1bffca34e9)">
     <use style="fill:#ff0000;stroke:#000000;stroke-width:2.0;" x="0.0" xlink:href="#C0_0_a811fe30f3" y="72.0"/>
    </g>
    <g clip-path="url(#p1bffca34e9)">
     <use style="fill:#ffffff;stroke:#000000;stroke-width:2.0;" x="0.0" xlink:href="#C0_1_d50b3f718d" y="72.0"/>
    </g>
    <g clip-path="url(#p1bffca34e9)">
     <use style="fill:#ffffff;stroke:#000000;stroke-width:2.0;" x="0.0" xlink:href="#C0_2_3d4100f5a3" y="72.0"/>
    </g>
   </g>
  </g>
 </g>
 <defs>
  <clipPath id="p1bffca34e9">
   <rect height="72.0" width="72.0" x="0.0" y="0.0"/>
  </clipPath>
 </defs>
</svg>
