<?xml version="1.0" encoding="utf-8" standalone="no"?>
<!DOCTYPE svg PUBLIC "-//W3C//DTD SVG 1.1//EN"
  "http://www.w3.org/Graphics/SVG/1.1/DTD/svg11.dtd">
<!-- Created with matplotlib (http://matplotlib.org/) -->
<svg height="72pt" version="1.1" viewBox="0 0 72 72" width="72pt" xmlns="http://www.w3.org/2000/svg" xmlns:xlink="http://www.w3.org/1999/xlink">
 <defs>
  <style type="text/css">
*{stroke-linecap:butt;stroke-linejoin:round;}
  </style>
 </defs>
 <g id="figure_1">
  <g id="patch_1">
   <path d="
M0 72
L72 72
L72 0
L0 0
z
" style="fill:none;"/>
  </g>
  <g id="axes_1">
   <g id="PatchCollection_1">
    <defs>
     <path d="
M36 -7.5
C43.5583 -7.5 50.808 -10.5029 56.1525 -15.8475
C61.4971 -21.192 64.5 -28.4417 64.5 -36
C64.5 -43.5583 61.4971 -50.808 56.1525 -56.1525
C50.808 -61.4971 43.5583 -64.5 36 -64.5
C28.4417 -64.5 21.192 -61.4971 15.8475 -56.1525
C10.5029 -50.808 7.5 -43.5583 7.5 -36
C7.5 -28.4417 10.5029 -21.192 15.8475 -15.8475
C21.192 -10.5029 28.4417 -7.5 36 -7.5
z
" id="C0_0_a811fe30f3"/>
     <path d="
M53.7035 -58.2605
L53.5904 -58.0292
L53.4993 -57.775
L53.4276 -57.5001
L53.3724 -57.2068
L53.3313 -56.8972
L53.3016 -56.5735
L53.2811 -56.2375
L53.2678 -55.891
L53.26 -55.5355
L53.2559 -55.1727
L53.2544 -54.8036
L53.2542 -54.4295
L53.2546 -54.0513
L53.2546 -53.67
L53.2536 -53.2864
L53.2511 -52.9012
L53.2468 -52.515
L53.2401 -52.1284
L53.231 -51.7419
L53.2192 -51.3559
L53.2044 -50.9709
L53.1868 -50.5872
L53.1661 -50.2051
L53.1423 -49.8249
L53.1155 -49.4468
L53.0856 -49.0711
L53.0527 -48.6979
L53.0168 -48.3274
L52.9779 -47.9598
L52.9363 -47.5951
L52.8918 -47.2335
L52.8446 -46.875
L52.7947 -46.5198
L52.7423 -46.1678
L52.6874 -45.8192
L52.6302 -45.4739
L52.5706 -45.132
L52.5088 -44.7935
L52.4449 -44.4584
L52.3789 -44.1266
L52.3109 -43.7982
L52.241 -43.4732
L52.1693 -43.1515
L52.0958 -42.833
L52.0206 -42.5178
L51.9437 -42.2058
L51.8653 -41.897
L51.7854 -41.5912
L51.7039 -41.2885
L51.6211 -40.9889
L51.5369 -40.6921
L51.4513 -40.3983
L51.3645 -40.1072
L51.2764 -39.819
L51.1871 -39.5334
L51.0967 -39.2505
L51.005 -38.9701
L50.9123 -38.6923
L50.8184 -38.4168
L50.7235 -38.1438
L50.6275 -37.873
L50.5305 -37.6045
L50.4324 -37.3381
L50.3334 -37.0738
L50.2333 -36.8116
L50.1323 -36.5513
L50.0302 -36.2929
L49.9272 -36.0364
L49.8232 -35.7816
L49.7182 -35.5285
L49.6122 -35.277
L49.5052 -35.0271
L49.3973 -34.7787
L49.2883 -34.5317
L49.1784 -34.2862
L49.0674 -34.0419
L48.9554 -33.7989
L48.8424 -33.5571
L48.7283 -33.3164
L48.6132 -33.0767
L48.497 -32.8381
L48.3796 -32.6005
L48.2611 -32.3637
L48.1415 -32.1278
L48.0208 -31.8926
L47.7756 -31.6582
L47.6511 -31.4244
L47.5254 -31.1913
L47.3984 -30.9587
L47.27 -30.7267
L47.1403 -30.4951
L47.0092 -30.2638
L46.8766 -30.033
L46.7425 -29.8024
L46.607 -29.5721
L46.4699 -29.342
L46.3311 -29.1121
L46.1908 -28.8823
L46.0488 -28.6525
L45.905 -28.4227
L45.7595 -28.1929
L45.6121 -27.9631
L45.4629 -27.7331
L45.3117 -27.5029
L45.1586 -27.2726
L45.0035 -27.042
L44.8463 -26.8112
L44.6869 -26.58
L44.5253 -26.3484
L44.3615 -26.1165
L44.1954 -25.8841
L44.0269 -25.6513
L43.8559 -25.418
L43.6825 -25.1842
L43.5065 -24.9498
L43.3278 -24.7148
L43.1465 -24.4793
L42.9624 -24.2431
L42.7754 -24.0063
L42.5855 -23.7688
L42.3927 -23.5307
L42.1967 -23.2919
L41.9977 -23.0523
L41.7955 -22.8121
L41.59 -22.5712
L41.3812 -22.3295
L41.1689 -22.0872
L40.9532 -21.8441
L40.734 -21.6004
L40.5111 -21.356
L40.2846 -21.111
L40.0543 -20.8653
L39.8202 -20.619
L39.5823 -20.3722
L39.3405 -20.1248
L39.0947 -19.877
L38.8449 -19.6287
L38.5911 -19.3801
L38.3333 -19.1312
L38.0714 -18.882
L37.8055 -18.6326
L37.5354 -18.3832
L37.2614 -18.1338
L36.9833 -17.8844
L36.7013 -17.6353
L36.4153 -17.3864
L36.1256 -17.1379
L35.8321 -16.89
L35.5352 -16.6427
L35.2348 -16.3961
L34.9313 -16.1504
L34.6249 -15.9056
L34.3158 -15.662
L34.0045 -15.4196
L33.6913 -15.1785
L33.3766 -14.9388
L33.0612 -14.7007
L32.7455 -14.4641
L32.4303 -14.2291
L32.1165 -13.9958
L31.805 -13.7641
L31.4971 -13.534
L31.1939 -13.3053
L30.8969 -13.0779
L30.608 -12.8517
L30.3289 -12.6262
L30.062 -12.401
L29.8096 -12.1758
L29.5744 -11.9499
L29.3593 -11.7227
L29.1673 -11.4933
L29.0017 -11.2611
L28.8653 -11.0253
L28.7611 -10.7849
L28.6916 -10.5394
L28.6586 -10.2883
L28.6634 -10.0313
L28.7065 -9.76833
L28.7877 -9.4998
L28.9061 -9.22629
L29.0603 -8.94866
L29.2484 -8.66797
L29.7155 -8.38541
L30.2016 -8.20154
L30.6894 -8.09609
L31.1789 -7.99914
L31.6699 -7.91073
L32.1622 -7.83087
L32.6556 -7.75959
L33.1501 -7.69691
L33.6454 -7.64285
L34.1415 -7.59743
L34.6381 -7.56066
L35.1351 -7.53256
L35.6324 -7.51313
L36.1298 -7.50237
L36.6272 -7.5003
L37.1244 -7.5069
L37.6212 -7.52219
L38.1175 -7.54615
L38.6132 -7.57878
L39.1081 -7.62006
L39.6021 -7.66999
L40.0949 -7.72855
L40.5866 -7.79572
L41.0768 -7.87148
L41.5654 -7.95581
L42.0524 -8.04869
L42.5375 -8.15007
L43.0207 -8.25994
L43.5017 -8.37827
L43.9804 -8.505
L44.4567 -8.64011
L44.9304 -8.78355
L45.4013 -8.93529
L45.8695 -9.09527
L46.3346 -9.26344
L46.7965 -9.43976
L47.2552 -9.62417
L47.7105 -9.81661
L48.1622 -10.017
L48.6101 -10.2254
L49.0543 -10.4415
L49.4944 -10.6655
L49.9305 -10.8972
L50.3623 -11.1365
L50.7897 -11.3834
L51.2126 -11.6378
L51.6309 -11.8997
L52.0445 -12.1688
L52.4531 -12.4453
L52.8567 -12.7289
L53.2552 -13.0196
L53.6485 -13.3173
L54.0363 -13.6219
L54.4187 -13.9333
L54.7955 -14.2514
L55.1665 -14.5762
L55.5317 -14.9075
L55.8909 -15.2452
L56.2441 -15.5892
L56.5912 -15.9395
L56.9319 -16.2958
L57.2663 -16.6582
L57.5942 -17.0265
L57.9155 -17.4005
L58.2301 -17.7802
L58.538 -18.1654
L58.839 -18.5561
L59.1331 -18.9521
L59.4201 -19.3533
L59.6999 -19.7596
L59.9726 -20.1708
L60.2379 -20.5868
L60.4959 -21.0076
L60.7464 -21.4328
L60.9893 -21.8626
L61.2247 -22.2966
L61.4524 -22.7348
L61.6723 -23.1771
L61.8844 -23.6232
L62.0886 -24.0732
L62.2848 -24.5267
L62.4731 -24.9838
L62.6533 -25.4442
L62.8254 -25.9078
L62.9893 -26.3745
L63.1449 -26.8442
L63.2924 -27.3166
L63.4315 -27.7916
L63.5622 -28.2692
L63.6845 -28.7491
L63.7985 -29.2313
L63.9039 -29.7155
L64.0009 -30.2016
L64.0893 -30.6894
L64.1691 -31.1789
L64.2404 -31.6699
L64.3031 -32.1622
L64.3571 -32.6556
L64.4026 -33.1501
L64.4393 -33.6454
L64.4674 -34.1415
L64.4869 -34.6381
L64.4976 -35.1351
L64.4997 -35.6324
L64.4931 -36.1298
L64.4778 -36.6272
L64.4539 -37.1244
L64.4212 -37.6212
L64.3799 -38.1175
L64.33 -38.6132
L64.2715 -39.1081
L64.2043 -39.6021
L64.1285 -40.0949
L64.0442 -40.5866
L63.9513 -41.0768
L63.8499 -41.5654
L63.7401 -42.0524
L63.6217 -42.5375
L63.495 -43.0207
L63.3599 -43.5017
L63.2164 -43.9804
L63.0647 -44.4567
L62.9047 -44.9304
L62.7366 -45.4013
L62.5602 -45.8695
L62.3758 -46.3346
L62.1834 -46.7965
L61.983 -47.2552
L61.7746 -47.7105
L61.5585 -48.1622
L61.3345 -48.6101
L61.1028 -49.0543
L60.8635 -49.4944
L60.6166 -49.9305
L60.3622 -50.3623
L60.1003 -50.7897
L59.8312 -51.2126
L59.5547 -51.6309
L59.2711 -52.0445
L58.9804 -52.4531
L58.6827 -52.8567
L58.3781 -53.2552
L58.0667 -53.6485
L57.7486 -54.0363
L57.4238 -54.4187
L57.0925 -54.7955
L56.7548 -55.1665
L56.4108 -55.5317
L56.0605 -55.8909
L55.7042 -56.2441
L55.3418 -56.5912
L54.9735 -56.9319
L54.5995 -57.2663
L54.2198 -57.5942
z
" id="C0_1_5adf1dfe33"/>
     <path d="
M42.4621 -63.6006
L42.1191 -63.4494
L41.7598 -63.2993
L41.3871 -63.1493
L41.0036 -62.9982
L40.6116 -62.8454
L40.213 -62.6901
L39.8098 -62.5317
L39.4035 -62.3699
L38.9955 -62.2044
L38.587 -62.0349
L38.1791 -61.8613
L37.7725 -61.6837
L37.3682 -61.5018
L36.9668 -61.3159
L36.5688 -61.126
L36.1748 -60.9322
L35.7851 -60.7347
L35.4002 -60.5335
L35.0202 -60.3289
L34.6455 -60.121
L34.2762 -59.91
L33.9125 -59.6962
L33.5545 -59.4796
L33.2023 -59.2604
L32.856 -59.0389
L32.5156 -58.8152
L32.1811 -58.5895
L31.8526 -58.362
L31.53 -58.1328
L31.2133 -57.902
L30.9024 -57.6698
L30.5973 -57.4364
L30.2979 -57.2018
L30.0042 -56.9663
L29.7161 -56.7298
L29.4334 -56.4925
L29.1562 -56.2546
L28.8843 -56.016
L28.6176 -55.7769
L28.356 -55.5374
L28.0994 -55.2975
L27.8477 -55.0573
L27.6009 -54.8168
L27.3587 -54.5761
L27.1212 -54.3352
L26.8882 -54.0943
L26.6595 -53.8532
L26.4352 -53.612
L26.215 -53.3709
L25.9989 -53.1296
L25.7869 -52.8884
L25.5787 -52.6472
L25.3743 -52.406
L25.1736 -52.1648
L24.9766 -51.9236
L24.7831 -51.6825
L24.593 -51.4413
L24.4062 -51.2001
L24.2228 -50.9589
L24.0425 -50.7177
L23.8653 -50.4764
L23.6912 -50.235
L23.52 -49.9936
L23.3517 -49.752
L23.1863 -49.5103
L23.0236 -49.2684
L22.8635 -49.0263
L22.7061 -48.7839
L22.5513 -48.5413
L22.3989 -48.2983
L22.249 -48.055
L22.1015 -47.8114
L21.9563 -47.5673
L21.8134 -47.3227
L21.6728 -47.0777
L21.5343 -46.832
L21.398 -46.5858
L21.2638 -46.339
L21.1317 -46.0914
L21.0016 -45.8431
L20.8735 -45.594
L20.7473 -45.3441
L20.6231 -45.0932
L20.5008 -44.8415
L20.3804 -44.5887
L20.2618 -44.3348
L20.1451 -44.0799
L20.0301 -43.8238
L19.917 -43.5664
L19.8056 -43.3077
L19.696 -43.0478
L19.5881 -42.7863
L19.482 -42.5235
L19.3776 -42.259
L19.2749 -41.993
L19.174 -41.7253
L19.0747 -41.4559
L18.9772 -41.1847
L18.8814 -40.9116
L18.7874 -40.6366
L18.695 -40.3596
L18.6045 -40.0805
L18.5157 -39.7992
L18.4287 -39.5158
L18.3435 -39.23
L18.2601 -38.9419
L18.1786 -38.6514
L18.0989 -38.3584
L18.0212 -38.0628
L17.9454 -37.7645
L17.8716 -37.4635
L17.7999 -37.1597
L17.7302 -36.8531
L17.6626 -36.5435
L17.5972 -36.2309
L17.534 -35.9152
L17.4731 -35.5964
L17.4146 -35.2744
L17.3585 -34.949
L17.3048 -34.6203
L17.2537 -34.2882
L17.2053 -33.9526
L17.1595 -33.6135
L17.1166 -33.2708
L17.0766 -32.9245
L17.0395 -32.5744
L17.0056 -32.2206
L16.9748 -31.8631
L16.9473 -31.5017
L16.9232 -31.1366
L16.9027 -30.7675
L16.8857 -30.3946
L16.8725 -30.0179
L16.8631 -29.6373
L16.8577 -29.2528
L16.8565 -28.8645
L16.8594 -28.4724
L16.8666 -28.0766
L16.8783 -27.6772
L16.8946 -27.2741
L16.9155 -26.8676
L16.9411 -26.4577
L16.9716 -26.0445
L17.0071 -25.6282
L17.0475 -25.209
L17.093 -24.7871
L17.1436 -24.3627
L17.1992 -23.9361
L17.2599 -23.5075
L17.3255 -23.0773
L17.396 -22.6457
L17.4712 -22.2133
L17.551 -21.7804
L17.6349 -21.3475
L17.7227 -20.9151
L17.8138 -20.4839
L17.9078 -20.0544
L18.0039 -19.6273
L18.1013 -19.2036
L18.1989 -18.7839
L18.2956 -18.3694
L18.3899 -17.9609
L18.4803 -17.5598
L18.5647 -17.1671
L18.6411 -16.7844
L18.707 -16.413
L18.7598 -16.0544
L18.7968 -15.7104
L18.8149 -15.3825
L18.8115 -15.0723
L18.7839 -14.7812
L18.7298 -14.5106
L18.6475 -14.2614
L18.5359 -14.0345
L17.8896 -13.8302
L17.5083 -13.994
L17.1327 -14.3134
L16.7627 -14.6394
L16.3987 -14.972
L16.0406 -15.3109
L15.6886 -15.6562
L15.3428 -16.0076
L15.0032 -16.3651
L14.6701 -16.7286
L14.3435 -17.098
L14.0234 -17.4731
L13.7101 -17.8539
L13.4035 -18.2402
L13.1038 -18.632
L12.8111 -19.029
L12.5255 -19.4311
L12.247 -19.8384
L11.9758 -20.2505
L11.7119 -20.6675
L11.4553 -21.0891
L11.2063 -21.5152
L10.9648 -21.9458
L10.7309 -22.3807
L10.5047 -22.8197
L10.2863 -23.2627
L10.0757 -23.7096
L9.87302 -24.1602
L9.67829 -24.6144
L9.49159 -25.0722
L9.31295 -25.5332
L9.14245 -25.9974
L8.98012 -26.4647
L8.82603 -26.9349
L8.68022 -27.4078
L8.54272 -27.8834
L8.41359 -28.3614
L8.29287 -28.8418
L8.18058 -29.3243
L8.07677 -29.8089
L7.98146 -30.2953
L7.89469 -30.7835
L7.81648 -31.2733
L7.74685 -31.7646
L7.68583 -32.2571
L7.63343 -32.7507
L7.58968 -33.2454
L7.55458 -33.7409
L7.52814 -34.237
L7.51038 -34.7337
L7.5013 -35.2308
L7.50089 -35.7282
L7.50917 -36.2256
L7.52613 -36.7229
L7.55176 -37.22
L7.58605 -37.7168
L7.629 -38.213
L7.68059 -38.7086
L7.74081 -39.2033
L7.80964 -39.6971
L7.88705 -40.1897
L7.97303 -40.681
L8.06754 -41.171
L8.17057 -41.6593
L8.28207 -42.1459
L8.40201 -42.6307
L8.53036 -43.1134
L8.66708 -43.594
L8.81212 -44.0723
L8.96544 -44.5481
L9.127 -45.0212
L9.29675 -45.4917
L9.47463 -45.9592
L9.66059 -46.4238
L9.85457 -46.8851
L10.0565 -47.3431
L10.2664 -47.7977
L10.4841 -48.2487
L10.7095 -48.6959
L10.9427 -49.1393
L11.1835 -49.5787
L11.4318 -50.0139
L11.6877 -50.4449
L11.9509 -50.8715
L12.2215 -51.2935
L12.4993 -51.7109
L12.7843 -52.1235
L13.0763 -52.5312
L13.3754 -52.9338
L13.6813 -53.3313
L13.994 -53.7236
L14.3134 -54.1104
L14.6394 -54.4917
L14.972 -54.8673
L15.3109 -55.2373
L15.6562 -55.6013
L16.0076 -55.9594
L16.3651 -56.3114
L16.7286 -56.6572
L17.098 -56.9968
L17.4731 -57.3299
L17.8539 -57.6565
L18.2402 -57.9766
L18.632 -58.2899
L19.029 -58.5965
L19.4311 -58.8962
L19.8384 -59.1889
L20.2505 -59.4745
L20.6675 -59.753
L21.0891 -60.0242
L21.5152 -60.2881
L21.9458 -60.5447
L22.3807 -60.7937
L22.8197 -61.0352
L23.2627 -61.2691
L23.7096 -61.4953
L24.1602 -61.7137
L24.6144 -61.9243
L25.0722 -62.127
L25.5332 -62.3217
L25.9974 -62.5084
L26.4647 -62.687
L26.9349 -62.8576
L27.4078 -63.0199
L27.8834 -63.174
L28.3614 -63.3198
L28.8418 -63.4573
L29.3243 -63.5864
L29.8089 -63.7071
L30.2953 -63.8194
L30.7835 -63.9232
L31.2733 -64.0185
L31.7646 -64.1053
L32.2571 -64.1835
L32.7507 -64.2531
L33.2454 -64.3142
L33.7409 -64.3666
L34.237 -64.4103
L34.7337 -64.4454
L35.2308 -64.4719
L35.7282 -64.4896
L36.2256 -64.4987
L36.7229 -64.4991
L37.22 -64.4908
L37.7168 -64.4739
L38.213 -64.4482
L38.7086 -64.4139
L39.2033 -64.371
L39.6971 -64.3194
L40.1897 -64.2592
L40.681 -64.1904
L41.171 -64.1129
L41.6593 -64.027
z
" id="C0_2_b0b3766f65"/>
    </defs>
    <g clip-path="url(#p1bffca34e9)">
     <use style="fill:#ffffff;stroke:#000000;stroke-width:2.0;" x="0.0" xlink:href="#C0_0_a811fe30f3" y="72.0"/>
    </g>
    <g clip-path="url(#p1bffca34e9)">
     <use style="fill:#ff0000;stroke:#000000;stroke-width:2.0;" x="0.0" xlink:href="#C0_1_5adf1dfe33" y="72.0"/>
    </g>
    <g clip-path="url(#p1bffca34e9)">
     <use style="fill:#ff0000;stroke:#000000;stroke-width:2.0;" x="0.0" xlink:href="#C0_2_b0b3766f65" y="72.0"/>
    </g>
   </g>
  </g>
 </g>
 <defs>
  <clipPath id="p1bffca34e9">
   <rect height="72.0" width="72.0" x="0.0" y="0.0"/>
  </clipPath>
 </defs>
</svg>
