<?xml version="1.0" encoding="utf-8" standalone="no"?>
<!DOCTYPE svg PUBLIC "-//W3C//DTD SVG 1.1//EN"
  "http://www.w3.org/Graphics/SVG/1.1/DTD/svg11.dtd">
<!-- Created with matplotlib (http://matplotlib.org/) -->
<svg height="72pt" version="1.1" viewBox="0 0 72 72" width="72pt" xmlns="http://www.w3.org/2000/svg" xmlns:xlink="http://www.w3.org/1999/xlink">
 <defs>
  <style type="text/css">
*{stroke-linecap:butt;stroke-linejoin:round;}
  </style>
 </defs>
 <g id="figure_1">
  <g id="patch_1">
   <path d="
M0 72
L72 72
L72 0
L0 0
z
" style="fill:none;"/>
  </g>
  <g id="axes_1">
   <g id="PatchCollection_1">
    <defs>
     <path d="
M36 -7.5
C43.5583 -7.5 50.808 -10.5029 56.1525 -15.8475
C61.4971 -21.192 64.5 -28.4417 64.5 -36
C64.5 -43.5583 61.4971 -50.808 56.1525 -56.1525
C50.808 -61.4971 43.5583 -64.5 36 -64.5
C28.4417 -64.5 21.192 -61.4971 15.8475 -56.1525
C10.5029 -50.808 7.5 -43.5583 7.5 -36
C7.5 -28.4417 10.5029 -21.192 15.8475 -15.8475
C21.192 -10.5029 28.4417 -7.5 36 -7.5
z
" id="C0_0_a811fe30f3"/>
     <path d="
M41.7646 -31.6823
L41.804 -31.9349
L41.8424 -32.1879
L41.8799 -32.4412
L41.9164 -32.695
L41.952 -32.9492
L41.9867 -33.204
L42.0204 -33.4594
L42.0532 -33.7154
L42.0851 -33.9721
L42.116 -34.2296
L42.1461 -34.488
L42.1752 -34.7472
L42.2033 -35.0073
L42.2305 -35.2685
L42.2568 -35.5306
L42.2821 -35.7939
L42.3064 -36.0583
L42.3298 -36.324
L42.3522 -36.5909
L42.3736 -36.8591
L42.394 -37.1288
L42.4133 -37.3998
L42.4316 -37.6724
L42.4488 -37.9465
L42.4649 -38.2222
L42.4799 -38.4996
L42.4937 -38.7786
L42.5064 -39.0594
L42.5179 -39.3421
L42.5281 -39.6266
L42.5371 -39.913
L42.5448 -40.2013
L42.5511 -40.4917
L42.5561 -40.7841
L42.5596 -41.0786
L42.5616 -41.3752
L42.5621 -41.674
L42.5611 -41.975
L42.5584 -42.2782
L42.554 -42.5836
L42.5478 -42.8913
L42.5399 -43.2014
L42.53 -43.5137
L42.5182 -43.8284
L42.5043 -44.1454
L42.4883 -44.4647
L42.4701 -44.7864
L42.4496 -45.1103
L42.4266 -45.4366
L42.4012 -45.7651
L42.3732 -46.0958
L42.3424 -46.4288
L42.3088 -46.7638
L42.2722 -47.1009
L42.2325 -47.4399
L42.1895 -47.7808
L42.1432 -48.1235
L42.0933 -48.4679
L42.0396 -48.8137
L41.982 -49.1609
L41.9204 -49.5094
L41.8544 -49.8588
L41.7839 -50.2089
L41.7087 -50.5597
L41.6284 -50.9107
L41.5429 -51.2617
L41.4519 -51.6124
L41.3551 -51.9624
L41.2521 -52.3113
L41.1426 -52.6588
L41.0262 -53.0044
L40.9026 -53.3476
L40.7714 -53.6878
L40.632 -54.0245
L40.484 -54.3569
L40.3268 -54.6845
L40.1601 -55.0065
L39.9831 -55.3221
L39.7953 -55.6304
L39.596 -55.9306
L39.3847 -56.2215
L39.1608 -56.5024
L38.9236 -56.7721
L38.6726 -57.0296
L38.4073 -57.2738
L38.1273 -57.5038
L37.8323 -57.7184
L37.5222 -57.917
L37.197 -58.0985
L36.8569 -58.2624
L36.5023 -58.408
L36.1337 -58.5351
L35.752 -58.6434
L35.3579 -58.7328
L34.9526 -58.8035
L34.5371 -58.8555
L34.1127 -58.8893
L33.6805 -58.9054
L33.2419 -58.9041
L32.7981 -58.8861
L32.3501 -58.852
L31.8993 -58.8025
L31.4465 -58.7381
L30.9929 -58.6596
L30.5394 -58.5676
L30.0869 -58.4627
L29.636 -58.3456
L29.1877 -58.2169
L28.7424 -58.0773
L28.3008 -57.9272
L27.8633 -57.7673
L27.4306 -57.5981
L27.0029 -57.4201
L26.5807 -57.2339
L26.1642 -57.0398
L25.7538 -56.8385
L25.3496 -56.6303
L24.9518 -56.4157
L24.5607 -56.195
L24.1764 -55.9687
L23.7988 -55.7371
L23.4283 -55.5006
L23.0647 -55.2595
L22.7081 -55.0141
L22.3587 -54.7648
L22.0162 -54.5118
L21.6808 -54.2553
L21.3524 -53.9957
L21.031 -53.7332
L20.7165 -53.468
L20.4088 -53.2003
L20.108 -52.9304
L19.8139 -52.6583
L19.5263 -52.3843
L19.2454 -52.1085
L18.9709 -51.8311
L18.7028 -51.5523
L18.4409 -51.2721
L18.1852 -50.9906
L17.9355 -50.7081
L17.6919 -50.4245
L17.454 -50.14
L17.222 -49.8546
L16.9955 -49.5685
L16.7747 -49.2816
L16.5592 -48.9942
L16.3491 -48.7061
L16.1443 -48.4175
L15.9446 -48.1284
L15.7499 -47.8388
L15.5603 -47.5488
L15.3754 -47.2584
L15.1954 -46.9676
L15.02 -46.6765
L14.8492 -46.385
L14.6829 -46.0931
L14.5211 -45.8009
L14.3637 -45.5083
L14.2105 -45.2154
L14.0615 -44.9221
L13.9167 -44.6285
L13.776 -44.3345
L13.6393 -44.0401
L13.5066 -43.7453
L13.3777 -43.45
L13.2527 -43.1543
L13.1316 -42.8581
L13.0141 -42.5615
L12.9004 -42.2642
L12.7904 -41.9664
L12.684 -41.6681
L12.5812 -41.369
L12.482 -41.0694
L12.3863 -40.769
L12.2941 -40.4678
L12.2054 -40.1659
L12.1203 -39.8632
L12.0385 -39.5596
L11.9603 -39.2551
L11.8854 -38.9496
L11.8141 -38.6432
L11.7461 -38.3356
L11.6816 -38.027
L11.6206 -37.7173
L11.563 -37.4064
L11.5089 -37.0942
L11.4583 -36.7808
L11.4112 -36.466
L11.3676 -36.1499
L11.3276 -35.8323
L11.2912 -35.5132
L11.2585 -35.1926
L11.2294 -34.8705
L11.204 -34.5467
L11.1824 -34.2212
L11.1646 -33.894
L11.1507 -33.565
L11.1408 -33.2341
L11.1348 -32.9014
L11.1329 -32.5668
L11.1352 -32.2302
L11.1417 -31.8916
L11.1525 -31.551
L11.1678 -31.2083
L11.1875 -30.8634
L11.2119 -30.5164
L11.2409 -30.1672
L11.2748 -29.8157
L11.3136 -29.462
L11.3575 -29.106
L11.4066 -28.7478
L11.461 -28.3872
L11.5209 -28.0242
L11.5863 -27.659
L11.6576 -27.2914
L11.7347 -26.9214
L11.8179 -26.5492
L11.9074 -26.1746
L12.0032 -25.7978
L12.1057 -25.4187
L12.2149 -25.0375
L12.3311 -24.6541
L12.4545 -24.2686
L12.5852 -23.8811
L12.7234 -23.4916
L12.8694 -23.1004
L13.0234 -22.7074
L13.1855 -22.3128
L13.356 -21.9168
L13.5351 -21.5196
L13.723 -21.1212
L13.9199 -20.7219
L14.126 -20.3219
L14.3416 -19.9215
L14.5667 -19.5209
L14.8017 -19.1203
L15.0466 -18.7202
L15.3017 -18.3207
L15.5672 -17.9224
L15.8431 -17.5255
L16.1296 -17.1306
L16.4268 -16.738
L16.7348 -16.3482
L17.0536 -15.9618
L17.3832 -15.5793
L17.7238 -15.2012
L18.0751 -14.8283
L18.4371 -14.4612
L18.8097 -14.1005
L19.1927 -13.747
L19.5858 -13.4016
L19.9886 -13.0649
L20.4009 -12.7379
L20.8221 -12.4215
L21.2517 -12.1166
L21.689 -11.8242
L22.1334 -11.5452
L22.584 -11.2808
L23.0398 -11.0318
L23.4998 -10.7995
L23.9631 -10.5847
L24.4282 -10.3886
L24.894 -10.2121
L25.3592 -10.056
L25.8223 -9.92132
L26.2821 -9.8086
L26.737 -9.71843
L27.186 -9.65116
L27.6276 -9.607
L28.0609 -9.5859
L28.4848 -9.58764
L28.8986 -9.61177
L29.3018 -9.65766
L29.6937 -9.72452
L30.0742 -9.8114
L30.4432 -9.91727
L30.8006 -10.041
L31.1466 -10.1814
L31.4814 -10.3374
L31.8053 -10.5077
L32.1186 -10.6913
L32.4216 -10.887
L32.7147 -11.0937
L32.9983 -11.3106
L33.2728 -11.5366
L33.5385 -11.7709
L33.7958 -12.0126
L34.0451 -12.2611
L34.2867 -12.5156
L34.5208 -12.7755
L34.7478 -13.0402
L34.968 -13.3092
L35.1816 -13.5818
L35.3889 -13.8578
L35.5901 -14.1365
L35.7855 -14.4177
L35.9752 -14.701
L36.1595 -14.986
L36.3386 -15.2725
L36.5126 -15.56
L36.6817 -15.8485
L36.8461 -16.1377
L37.006 -16.4272
L37.1614 -16.7171
L37.3126 -17.0069
L37.4598 -17.2967
L37.6029 -17.5862
L37.7422 -17.8754
L37.8778 -18.164
L38.0098 -18.4521
L38.1384 -18.7394
L38.2635 -19.026
L38.3855 -19.3117
L38.5042 -19.5965
L38.62 -19.8803
L38.7327 -20.163
L38.8426 -20.4447
L38.9498 -20.7253
L39.0543 -21.0048
L39.1561 -21.2831
L39.2555 -21.5603
L39.3524 -21.8363
L39.4469 -22.1111
L39.5392 -22.3848
L39.6292 -22.6573
L39.7171 -22.9286
L39.8029 -23.1988
L39.8866 -23.4678
L39.9684 -23.7358
L40.0483 -24.0026
L40.1263 -24.2684
L40.2025 -24.5332
L40.277 -24.7969
L40.3497 -25.0597
L40.4208 -25.3215
L40.4903 -25.5824
L40.5583 -25.8425
L40.6247 -26.1017
L40.6896 -26.3601
L40.753 -26.6177
L40.8151 -26.8747
L40.8758 -27.1309
L40.9351 -27.3866
L40.9932 -27.6416
L41.05 -27.8961
L41.1055 -28.1501
L41.1598 -28.4037
L41.2129 -28.6569
L41.2648 -28.9097
L41.3156 -29.1623
L41.3652 -29.4146
L41.4138 -29.6666
L41.4612 -29.9186
L41.5077 -30.1704
L41.553 -30.4222
L41.5973 -30.674
L41.6407 -30.9259
L41.683 -31.1778
z
" id="C0_1_2a976f05a3"/>
    </defs>
    <g clip-path="url(#p1bffca34e9)">
     <use style="fill:#ff0000;stroke:#000000;stroke-width:2.0;" x="0.0" xlink:href="#C0_0_a811fe30f3" y="72.0"/>
    </g>
    <g clip-path="url(#p1bffca34e9)">
     <use style="fill:#ffffff;stroke:#000000;stroke-width:2.0;" x="0.0" xlink:href="#C0_1_2a976f05a3" y="72.0"/>
    </g>
   </g>
  </g>
 </g>
 <defs>
  <clipPath id="p1bffca34e9">
   <rect height="72.0" width="72.0" x="0.0" y="0.0"/>
  </clipPath>
 </defs>
</svg>
