<?xml version="1.0" encoding="utf-8" standalone="no"?>
<!DOCTYPE svg PUBLIC "-//W3C//DTD SVG 1.1//EN"
  "http://www.w3.org/Graphics/SVG/1.1/DTD/svg11.dtd">
<!-- Created with matplotlib (http://matplotlib.org/) -->
<svg height="72pt" version="1.1" viewBox="0 0 72 72" width="72pt" xmlns="http://www.w3.org/2000/svg" xmlns:xlink="http://www.w3.org/1999/xlink">
 <defs>
  <style type="text/css">
*{stroke-linecap:butt;stroke-linejoin:round;}
  </style>
 </defs>
 <g id="figure_1">
  <g id="patch_1">
   <path d="
M0 72
L72 72
L72 0
L0 0
z
" style="fill:none;"/>
  </g>
  <g id="axes_1">
   <g id="PatchCollection_1">
    <defs>
     <path d="
M36 -7.5
C43.5583 -7.5 50.808 -10.5029 56.1525 -15.8475
C61.4971 -21.192 64.5 -28.4417 64.5 -36
C64.5 -43.5583 61.4971 -50.808 56.1525 -56.1525
C50.808 -61.4971 43.5583 -64.5 36 -64.5
C28.4417 -64.5 21.192 -61.4971 15.8475 -56.1525
C10.5029 -50.808 7.5 -43.5583 7.5 -36
C7.5 -28.4417 10.5029 -21.192 15.8475 -15.8475
C21.192 -10.5029 28.4417 -7.5 36 -7.5
z
" id="C0_0_a811fe30f3"/>
     <path d="
M34.2018 -7.58617
L34.0238 -7.82268
L33.8819 -8.06735
L33.7746 -8.31946
L33.6997 -8.57839
L33.6549 -8.84353
L33.6376 -9.11435
L33.645 -9.39035
L33.6743 -9.67108
L33.7229 -9.95613
L33.7882 -10.2451
L33.8681 -10.5377
L33.9603 -10.8335
L34.063 -11.1323
L34.1746 -11.4337
L34.2936 -11.7374
L34.4188 -12.0432
L34.5489 -12.3508
L34.683 -12.6599
L34.8203 -12.9703
L34.9601 -13.2817
L35.1016 -13.594
L35.2444 -13.9069
L35.3879 -14.2201
L35.5318 -14.5335
L35.6757 -14.847
L35.8193 -15.1603
L35.9623 -15.4732
L36.1045 -15.7857
L36.2457 -16.0975
L36.3857 -16.4086
L36.5244 -16.7188
L36.6617 -17.0279
L36.7975 -17.336
L36.9317 -17.6429
L37.0643 -17.9485
L37.1951 -18.2528
L37.3242 -18.5556
L37.4515 -18.857
L37.577 -19.1568
L37.7006 -19.455
L37.8225 -19.7516
L37.9425 -20.0466
L38.0608 -20.3399
L38.1772 -20.6316
L38.2918 -20.9215
L38.4047 -21.2097
L38.5158 -21.4963
L38.6251 -21.7811
L38.7328 -22.0643
L38.8388 -22.3457
L38.9431 -22.6255
L39.0458 -22.9037
L39.1469 -23.1802
L39.2465 -23.4551
L39.3445 -23.7285
L39.4411 -24.0003
L39.5361 -24.2706
L39.6298 -24.5394
L39.722 -24.8068
L39.8129 -25.0728
L39.9024 -25.3375
L39.9906 -25.6008
L40.0776 -25.8629
L40.1633 -26.1237
L40.2478 -26.3833
L40.3311 -26.6419
L40.4133 -26.8993
L40.4944 -27.1557
L40.5744 -27.4111
L40.6533 -27.6656
L40.7312 -27.9191
L40.8081 -28.1719
L40.884 -28.4239
L40.9589 -28.6751
L41.0329 -28.9257
L41.1061 -29.1756
L41.1783 -29.425
L41.2497 -29.6738
L41.3202 -29.9222
L41.39 -30.1702
L41.4589 -30.4179
L41.5271 -30.6652
L41.5946 -30.9124
L41.6613 -31.1593
L41.7273 -31.4061
L41.7926 -31.6529
L41.8573 -31.8996
L41.9213 -32.1464
L42.0474 -32.3933
L42.1095 -32.6403
L42.1711 -32.8876
L42.232 -33.1352
L42.2924 -33.3831
L42.3523 -33.6314
L42.4116 -33.8801
L42.4704 -34.1294
L42.5286 -34.3792
L42.5864 -34.6297
L42.6437 -34.8808
L42.7004 -35.1327
L42.7567 -35.3855
L42.8126 -35.6391
L42.8679 -35.8936
L42.9228 -36.1491
L42.9773 -36.4057
L43.0313 -36.6634
L43.0848 -36.9222
L43.138 -37.1824
L43.1907 -37.4438
L43.2429 -37.7065
L43.2947 -37.9707
L43.3461 -38.2364
L43.3971 -38.5036
L43.4476 -38.7724
L43.4977 -39.0429
L43.5474 -39.3151
L43.5966 -39.5891
L43.6454 -39.865
L43.6937 -40.1427
L43.7416 -40.4224
L43.789 -40.7041
L43.836 -40.9879
L43.8825 -41.2738
L43.9285 -41.5619
L43.974 -41.8522
L44.019 -42.1448
L44.0635 -42.4397
L44.1074 -42.737
L44.1508 -43.0367
L44.1937 -43.3389
L44.236 -43.6435
L44.2778 -43.9507
L44.3189 -44.2604
L44.3594 -44.5727
L44.3994 -44.8876
L44.4387 -45.2052
L44.4773 -45.5253
L44.5153 -45.848
L44.5526 -46.1734
L44.5892 -46.5014
L44.6252 -46.832
L44.6604 -47.1651
L44.695 -47.5008
L44.7288 -47.839
L44.762 -48.1795
L44.7946 -48.5224
L44.8264 -48.8676
L44.8577 -49.215
L44.8883 -49.5644
L44.9184 -49.9157
L44.9481 -50.2688
L44.9774 -50.6235
L45.0063 -50.9796
L45.0351 -51.3369
L45.0638 -51.6952
L45.0927 -52.0542
L45.122 -52.4136
L45.1519 -52.773
L45.1826 -53.1321
L45.2146 -53.4906
L45.2483 -53.8479
L45.2842 -54.2035
L45.3227 -54.5569
L45.3647 -54.9075
L45.4109 -55.2545
L45.4621 -55.5973
L45.5195 -55.9349
L45.5842 -56.2663
L45.6575 -56.5907
L45.7409 -56.9067
L45.8362 -57.2132
L45.9451 -57.5087
L46.0695 -57.7917
L46.2114 -58.0607
L46.3727 -58.3139
L46.5553 -58.5498
L46.7608 -58.7666
L46.9905 -58.9629
L47.2452 -59.1371
L47.5251 -59.2881
L47.8302 -59.4149
L48.1596 -59.5171
L48.5121 -59.5943
L48.886 -59.6465
L49.2795 -59.674
L49.6903 -59.6773
L50.1163 -59.6571
L50.5553 -59.6142
L51.0051 -59.5493
L51.4638 -59.4634
L51.9294 -59.3574
L52.4001 -59.2321
L52.8743 -59.0883
L53.2917 -58.9268
L53.6845 -58.6549
L54.0719 -58.3497
L54.4537 -58.0377
L54.8299 -57.7189
L55.2004 -57.3935
L55.5651 -57.0616
L55.9238 -56.7233
L56.2764 -56.3787
L56.6229 -56.0279
L56.963 -55.671
L57.2968 -55.3081
L57.6241 -54.9393
L57.9448 -54.5647
L58.2588 -54.1845
L58.5661 -53.7987
L58.8664 -53.4075
L59.1598 -53.0111
L59.4462 -52.6094
L59.7254 -52.2027
L59.9974 -51.791
L60.262 -51.3745
L60.5193 -50.9534
L60.7691 -50.5277
L61.0114 -50.0975
L61.246 -49.6631
L61.473 -49.2245
L61.6922 -48.7819
L61.9035 -48.3354
L62.107 -47.8851
L62.3026 -47.4312
L62.4901 -46.9739
L62.6695 -46.5132
L62.8408 -46.0492
L63.004 -45.5823
L63.1589 -45.1124
L63.3055 -44.6397
L63.4439 -44.1644
L63.5738 -43.6866
L63.6954 -43.2065
L63.8085 -42.7241
L63.9132 -42.2398
L64.0094 -41.7535
L64.097 -41.2655
L64.1761 -40.7758
L64.2466 -40.2847
L64.3084 -39.7923
L64.3617 -39.2988
L64.4063 -38.8042
L64.4423 -38.3088
L64.4696 -37.8127
L64.4882 -37.3161
L64.4982 -36.819
L64.4995 -36.3217
L64.4921 -35.8243
L64.476 -35.3269
L64.4512 -34.8298
L64.4178 -34.333
L64.3757 -33.8367
L64.325 -33.3411
L64.2656 -32.8462
L64.1976 -32.3524
L64.1211 -31.8596
L64.036 -31.3681
L63.9423 -30.8781
L63.8401 -30.3896
L63.7295 -29.9027
L63.6104 -29.4178
L63.4829 -28.9349
L63.347 -28.4541
L63.2028 -27.9756
L63.0503 -27.4995
L62.8896 -27.0261
L62.7206 -26.5553
L62.5436 -26.0875
L62.3584 -25.6227
L62.1652 -25.161
L61.9641 -24.7026
L61.755 -24.2477
L61.5381 -23.7963
L61.3134 -23.3487
L61.081 -22.9049
L60.841 -22.4652
L60.5934 -22.0295
L60.3383 -21.5981
L60.0758 -21.1711
L59.806 -20.7486
L59.5289 -20.3307
L59.2446 -19.9176
L58.9533 -19.5094
L58.6549 -19.1063
L58.3497 -18.7083
L58.0377 -18.3155
L57.7189 -17.9281
L57.3935 -17.5463
L57.0616 -17.1701
L56.7233 -16.7996
L56.3787 -16.4349
L56.0279 -16.0762
L55.671 -15.7236
L55.3081 -15.3771
L54.9393 -15.037
L54.5647 -14.7032
L54.1845 -14.3759
L53.7987 -14.0552
L53.4075 -13.7412
L53.0111 -13.4339
L52.6094 -13.1336
L52.2027 -12.8402
L51.791 -12.5538
L51.3745 -12.2746
L50.9534 -12.0026
L50.5277 -11.738
L50.0975 -11.4807
L49.6631 -11.2309
L49.2245 -10.9886
L48.7819 -10.754
L48.3354 -10.527
L47.8851 -10.3078
L47.4312 -10.0965
L46.9739 -9.89298
L46.5132 -9.69745
L46.0492 -9.50994
L45.5823 -9.33049
L45.1124 -9.15917
L44.6397 -8.99602
L44.1644 -8.8411
L43.6866 -8.69446
L43.2065 -8.55613
L42.7241 -8.42616
L42.2398 -8.30459
L41.7535 -8.19145
L41.2655 -8.08679
L40.7758 -7.99063
L40.2847 -7.903
L39.7923 -7.82393
L39.2988 -7.75344
L38.8042 -7.69156
L38.3088 -7.6383
L37.8127 -7.59368
L37.3161 -7.55771
L36.819 -7.5304
L36.3217 -7.51177
L35.8243 -7.50182
L35.3269 -7.50054
L34.8298 -7.50795
z
" id="C0_1_44f22fa149"/>
     <path d="
M18.7833 -13.4268
L18.4828 -13.8382
L18.1865 -14.254
L17.8954 -14.6736
L17.6101 -15.0965
L17.3315 -15.5222
L17.0599 -15.9502
L16.7957 -16.38
L16.5395 -16.8113
L16.2913 -17.2435
L16.0513 -17.6764
L15.8198 -18.1094
L15.5968 -18.5423
L15.3823 -18.9748
L15.1763 -19.4065
L14.9788 -19.8371
L14.7897 -20.2665
L14.6089 -20.6943
L14.4363 -21.1203
L14.2718 -21.5444
L14.1153 -21.9664
L13.9666 -22.3861
L13.8256 -22.8033
L13.692 -23.218
L13.5657 -23.63
L13.4466 -24.0392
L13.3344 -24.4455
L13.2291 -24.8489
L13.1303 -25.2494
L13.038 -25.6468
L12.952 -26.0411
L12.872 -26.4323
L12.798 -26.8204
L12.7297 -27.2054
L12.667 -27.5872
L12.6098 -27.9659
L12.5578 -28.3415
L12.511 -28.714
L12.4692 -29.0834
L12.4322 -29.4498
L12.4 -29.8132
L12.3724 -30.1736
L12.3492 -30.531
L12.3304 -30.8856
L12.3158 -31.2373
L12.3053 -31.5863
L12.2989 -31.9325
L12.2964 -32.276
L12.2977 -32.6169
L12.3028 -32.9552
L12.3115 -33.2911
L12.3238 -33.6244
L12.3396 -33.9554
L12.3589 -34.2841
L12.3815 -34.6105
L12.4074 -34.9347
L12.4365 -35.2568
L12.4689 -35.5768
L12.5044 -35.8948
L12.5429 -36.2109
L12.5846 -36.5251
L12.6292 -36.8375
L12.6769 -37.1482
L12.7275 -37.4572
L12.781 -37.7645
L12.8374 -38.0704
L12.8967 -38.3747
L12.9588 -38.6776
L13.0238 -38.9792
L13.0917 -39.2795
L13.1623 -39.5785
L13.2358 -39.8763
L13.3122 -40.1731
L13.3913 -40.4688
L13.4733 -40.7634
L13.5582 -41.0572
L13.6459 -41.35
L13.7364 -41.6421
L13.8299 -41.9333
L13.9263 -42.2238
L14.0256 -42.5137
L14.1278 -42.8029
L14.2331 -43.0916
L14.3414 -43.3798
L14.4527 -43.6675
L14.5671 -43.9548
L14.6847 -44.2417
L14.8055 -44.5283
L14.9295 -44.8146
L15.0568 -45.1006
L15.1874 -45.3865
L15.3214 -45.6721
L15.4588 -45.9577
L15.5998 -46.2431
L15.7444 -46.5285
L15.8926 -46.8139
L16.0445 -47.0993
L16.2002 -47.3846
L16.3598 -47.6701
L16.5234 -47.9556
L16.691 -48.2412
L16.8627 -48.5269
L17.0386 -48.8127
L17.2188 -49.0987
L17.4034 -49.3847
L17.5926 -49.671
L17.7863 -49.9573
L17.9847 -50.2438
L18.1879 -50.5304
L18.3961 -50.8172
L18.6092 -51.104
L18.8275 -51.3909
L19.0511 -51.6779
L19.28 -51.9648
L19.5143 -52.2517
L19.7543 -52.5386
L20 -52.8253
L20.2515 -53.1119
L20.5089 -53.3982
L20.7724 -53.6842
L21.0421 -53.9697
L21.3181 -54.2548
L21.6004 -54.5394
L21.8893 -54.8232
L22.1847 -55.1063
L22.4869 -55.3884
L22.7958 -55.6695
L23.1116 -55.9494
L23.4343 -56.228
L23.764 -56.5051
L24.1008 -56.7806
L24.4446 -57.0543
L24.7955 -57.326
L25.1536 -57.5955
L25.5187 -57.8626
L25.8909 -58.1272
L26.27 -58.389
L26.656 -58.6478
L27.0488 -58.9034
L27.4481 -59.1557
L27.8539 -59.4043
L28.2657 -59.6491
L28.6834 -59.89
L29.1066 -60.1266
L29.5348 -60.3589
L29.9676 -60.5867
L30.4044 -60.8099
L30.8445 -61.0284
L31.2872 -61.2421
L31.7316 -61.4511
L32.1767 -61.6554
L32.6214 -61.8551
L33.0644 -62.0505
L33.5043 -62.2418
L33.9395 -62.4295
L34.3682 -62.6139
L34.7884 -62.7959
L35.1979 -62.9761
L35.5944 -63.1554
L35.9755 -63.3348
L36.3386 -63.5152
L36.6812 -63.698
L37.0009 -63.8841
L37.2955 -64.0746
L37.0764 -64.2704
L36.5792 -64.4797
L36.0818 -64.4941
L35.5844 -64.4999
L35.0871 -64.497
L34.5901 -64.4854
L34.0935 -64.4651
L33.5976 -64.4362
L33.1023 -64.3986
L32.6079 -64.3523
L32.1146 -64.2974
L31.6224 -64.2339
L31.1316 -64.1618
L30.6423 -64.0811
L30.1545 -63.9919
L29.6686 -63.8941
L29.1846 -63.7878
L28.7027 -63.6731
L28.223 -63.5499
L27.7457 -63.4184
L27.2708 -63.2785
L26.7987 -63.1303
L26.3293 -62.9738
L25.8629 -62.8091
L25.3996 -62.6362
L24.9395 -62.4553
L24.4828 -62.2662
L24.0296 -62.0692
L23.58 -61.8642
L23.1342 -61.6514
L22.6923 -61.4307
L22.2545 -61.2023
L21.8209 -60.9662
L21.3916 -60.7225
L20.9667 -60.4713
L20.5464 -60.2126
L20.1309 -59.9466
L19.7201 -59.6732
L19.3144 -59.3927
L18.9137 -59.105
L18.5182 -58.8102
L18.128 -58.5086
L17.7433 -58.2
L17.3641 -57.8848
L16.9906 -57.5628
L16.6229 -57.2343
L16.2612 -56.8993
L15.9054 -56.5579
L15.5557 -56.2103
L15.2123 -55.8565
L14.8752 -55.4967
L14.5445 -55.1309
L14.2204 -54.7593
L13.9029 -54.382
L13.5921 -53.9991
L13.2882 -53.6107
L12.9912 -53.217
L12.7012 -52.818
L12.4183 -52.4139
L12.1425 -52.0047
L11.8741 -51.5907
L11.613 -51.172
L11.3593 -50.7486
L11.1131 -50.3208
L10.8745 -49.8886
L10.6436 -49.4521
L10.4203 -49.0116
L10.2049 -48.567
L9.99733 -48.1187
L9.79768 -47.6667
L9.60601 -47.2111
L9.42238 -46.7521
L9.24684 -46.2898
L9.07946 -45.8244
L8.92028 -45.356
L8.76934 -44.8847
L8.6267 -44.4108
L8.4924 -43.9343
L8.36647 -43.4553
L8.24897 -42.9741
L8.13991 -42.4908
L8.03935 -42.0055
L7.9473 -41.5183
L7.86379 -41.0295
L7.78886 -40.5391
L7.72252 -40.0474
L7.66479 -39.5544
L7.6157 -39.0604
L7.57525 -38.5654
L7.54346 -38.0696
L7.52033 -37.5732
L7.50589 -37.0764
L7.50012 -36.5792
L7.50303 -36.0818
L7.51462 -35.5844
L7.53489 -35.0871
L7.56384 -34.5901
L7.60144 -34.0935
L7.64769 -33.5976
L7.70258 -33.1023
L7.76609 -32.6079
L7.8382 -32.1146
L7.91889 -31.6224
L8.00813 -31.1316
L8.1059 -30.6423
L8.21217 -30.1545
L8.3269 -29.6686
L8.45006 -29.1846
L8.58161 -28.7027
L8.72151 -28.223
L8.86973 -27.7457
L9.0262 -27.2708
L9.1909 -26.7987
L9.36376 -26.3293
L9.54473 -25.8629
L9.73376 -25.3996
L9.93079 -24.9395
L10.1358 -24.4828
L10.3486 -24.0296
L10.5693 -23.58
L10.7977 -23.1342
L11.0338 -22.6923
L11.2775 -22.2545
L11.5287 -21.8209
L11.7874 -21.3916
L12.0534 -20.9667
L12.3268 -20.5464
L12.6073 -20.1309
L12.895 -19.7201
L13.1898 -19.3144
L13.4914 -18.9137
L13.8 -18.5182
L14.1152 -18.128
L14.4372 -17.7433
L14.7657 -17.3641
L15.1007 -16.9906
L15.4421 -16.6229
L15.7897 -16.2612
L16.1435 -15.9054
L16.5033 -15.5557
L16.8691 -15.2123
L17.2407 -14.8752
L17.618 -14.5445
L18.0009 -14.2204
z
" id="C0_2_dc4bb04b2c"/>
    </defs>
    <g clip-path="url(#p1bffca34e9)">
     <use style="fill:#ff0000;stroke:#000000;stroke-width:2.0;" x="0.0" xlink:href="#C0_0_a811fe30f3" y="72.0"/>
    </g>
    <g clip-path="url(#p1bffca34e9)">
     <use style="fill:#ffffff;stroke:#000000;stroke-width:2.0;" x="0.0" xlink:href="#C0_1_44f22fa149" y="72.0"/>
    </g>
    <g clip-path="url(#p1bffca34e9)">
     <use style="fill:#ffffff;stroke:#000000;stroke-width:2.0;" x="0.0" xlink:href="#C0_2_dc4bb04b2c" y="72.0"/>
    </g>
   </g>
  </g>
 </g>
 <defs>
  <clipPath id="p1bffca34e9">
   <rect height="72.0" width="72.0" x="0.0" y="0.0"/>
  </clipPath>
 </defs>
</svg>
