<?xml version="1.0" encoding="utf-8" standalone="no"?>
<!DOCTYPE svg PUBLIC "-//W3C//DTD SVG 1.1//EN"
  "http://www.w3.org/Graphics/SVG/1.1/DTD/svg11.dtd">
<!-- Created with matplotlib (http://matplotlib.org/) -->
<svg height="72pt" version="1.1" viewBox="0 0 72 72" width="72pt" xmlns="http://www.w3.org/2000/svg" xmlns:xlink="http://www.w3.org/1999/xlink">
 <defs>
  <style type="text/css">
*{stroke-linecap:butt;stroke-linejoin:round;}
  </style>
 </defs>
 <g id="figure_1">
  <g id="patch_1">
   <path d="
M0 72
L72 72
L72 0
L0 0
z
" style="fill:none;"/>
  </g>
  <g id="axes_1">
   <g id="PatchCollection_1">
    <defs>
     <path d="
M36 -7.5
C43.5583 -7.5 50.808 -10.5029 56.1525 -15.8475
C61.4971 -21.192 64.5 -28.4417 64.5 -36
C64.5 -43.5583 61.4971 -50.808 56.1525 -56.1525
C50.808 -61.4971 43.5583 -64.5 36 -64.5
C28.4417 -64.5 21.192 -61.4971 15.8475 -56.1525
C10.5029 -50.808 7.5 -43.5583 7.5 -36
C7.5 -28.4417 10.5029 -21.192 15.8475 -15.8475
C21.192 -10.5029 28.4417 -7.5 36 -7.5
z
" id="C0_0_a811fe30f3"/>
     <path d="
M25.7832 -9.41158
L25.5657 -9.6752
L25.356 -9.93992
L25.1541 -10.2056
L24.9595 -10.472
L24.7722 -10.739
L24.5919 -11.0066
L24.4184 -11.2745
L24.2515 -11.5427
L24.091 -11.8111
L23.9367 -12.0796
L23.7884 -12.3481
L23.646 -12.6165
L23.5092 -12.8848
L23.378 -13.1529
L23.2521 -13.4208
L23.1314 -13.6884
L23.0158 -13.9557
L22.905 -14.2227
L22.799 -14.4893
L22.6976 -14.7555
L22.6007 -15.0212
L22.5081 -15.2866
L22.4198 -15.5515
L22.3357 -15.816
L22.2555 -16.08
L22.1793 -16.3436
L22.1069 -16.6067
L22.0382 -16.8694
L21.9732 -17.1317
L21.9117 -17.3936
L21.8536 -17.655
L21.799 -17.9161
L21.7476 -18.1768
L21.6995 -18.4372
L21.6545 -18.6972
L21.6127 -18.9569
L21.5739 -19.2163
L21.5381 -19.4755
L21.5052 -19.7345
L21.4752 -19.9932
L21.4481 -20.2517
L21.4237 -20.5101
L21.4021 -20.7684
L21.3832 -21.0266
L21.367 -21.2847
L21.3534 -21.5428
L21.3425 -21.801
L21.3341 -22.0591
L21.3251 -22.3173
L21.3244 -22.5756
L21.3262 -22.8341
L21.3305 -23.0927
L21.3373 -23.3515
L21.3465 -23.6105
L21.3582 -23.8699
L21.3724 -24.1295
L21.3891 -24.3894
L21.4082 -24.6498
L21.4298 -24.9105
L21.4538 -25.1717
L21.4803 -25.4333
L21.5093 -25.6955
L21.5408 -25.9582
L21.5748 -26.2214
L21.6114 -26.4853
L21.6504 -26.7497
L21.6921 -27.0148
L21.7363 -27.2807
L21.7831 -27.5472
L21.8326 -27.8144
L21.8847 -28.0824
L21.9395 -28.3512
L21.9971 -28.6208
L22.0574 -28.8913
L22.1205 -29.1625
L22.1864 -29.4347
L22.2552 -29.7077
L22.3269 -29.9816
L22.4015 -30.2564
L22.4792 -30.5321
L22.5599 -30.8087
L22.6437 -31.0863
L22.7306 -31.3647
L22.8208 -31.6441
L22.9142 -31.9244
L23.0109 -32.2055
L23.111 -32.4876
L23.2145 -32.7704
L23.3215 -33.0542
L23.4321 -33.3387
L23.5463 -33.6239
L23.6641 -33.9099
L23.7857 -34.1966
L23.9111 -34.4839
L24.0404 -34.7717
L24.1736 -35.0601
L24.3108 -35.3488
L24.4521 -35.6379
L24.5976 -35.9272
L24.7473 -36.2166
L24.9012 -36.5061
L25.0595 -36.7954
L25.2222 -37.0845
L25.3894 -37.3733
L25.5612 -37.6615
L25.7375 -37.949
L25.9186 -38.2356
L26.1043 -38.5211
L26.2948 -38.8053
L26.4902 -39.088
L26.6905 -39.369
L26.8957 -39.6479
L27.1059 -39.9246
L27.3211 -40.1987
L27.5413 -40.4699
L27.7666 -40.7379
L27.997 -41.0025
L28.2325 -41.2631
L28.4731 -41.5195
L28.7188 -41.7713
L28.9697 -42.018
L29.2256 -42.2594
L29.4866 -42.4948
L29.7525 -42.724
L30.0235 -42.9464
L30.2993 -43.1616
L30.58 -43.3692
L30.8654 -43.5687
L31.1554 -43.7597
L31.45 -43.9416
L31.7489 -44.1141
L32.052 -44.2768
L32.3592 -44.4292
L32.6702 -44.571
L32.985 -44.7019
L33.3032 -44.8214
L33.6246 -44.9295
L33.949 -45.0257
L34.2761 -45.11
L34.6057 -45.1822
L34.9375 -45.2423
L35.2712 -45.2902
L35.6065 -45.3259
L35.943 -45.3495
L36.2806 -45.3611
L36.6188 -45.3609
L36.9575 -45.3491
L37.2962 -45.3259
L37.6347 -45.2916
L37.9727 -45.2465
L38.3099 -45.191
L38.6461 -45.1253
L38.981 -45.0499
L39.3143 -44.9652
L39.6459 -44.8715
L39.9754 -44.7692
L40.3027 -44.6588
L40.6275 -44.5406
L40.9498 -44.4149
L41.2693 -44.2823
L41.5858 -44.143
L41.8992 -43.9975
L42.2095 -43.846
L42.5164 -43.689
L42.8199 -43.5268
L43.1198 -43.3596
L43.4161 -43.1878
L43.7088 -43.0117
L43.9977 -42.8315
L44.2827 -42.6476
L44.564 -42.4602
L44.8413 -42.2695
L45.1148 -42.0757
L45.3843 -41.8791
L45.6498 -41.6799
L45.9114 -41.4783
L46.1691 -41.2744
L46.4228 -41.0684
L46.6726 -40.8605
L46.9184 -40.6508
L47.1604 -40.4395
L47.3984 -40.2267
L47.6327 -40.0125
L47.8631 -39.797
L48.0897 -39.5803
L48.3125 -39.3626
L48.5317 -39.144
L48.7471 -38.9244
L48.9589 -38.704
L49.1672 -38.4828
L49.3718 -38.261
L49.573 -38.0385
L49.7707 -37.8155
L49.965 -37.5919
L50.1559 -37.3678
L50.3435 -37.1433
L50.5277 -36.9184
L50.7088 -36.693
L50.8867 -36.4673
L51.0614 -36.2413
L51.233 -36.0149
L51.4016 -35.7882
L51.5671 -35.5612
L51.7296 -35.3338
L51.8893 -35.1062
L52.046 -34.8783
L52.1999 -34.6501
L52.3509 -34.4216
L52.4992 -34.1928
L52.6447 -33.9636
L52.7875 -33.7341
L52.9276 -33.5043
L53.065 -33.2741
L53.1999 -33.0436
L53.3321 -32.8127
L53.4618 -32.5813
L53.5889 -32.3495
L53.7134 -32.1173
L53.8355 -31.8846
L53.9551 -31.6514
L54.0722 -31.4176
L54.1869 -31.1833
L54.2991 -30.9484
L54.4088 -30.7128
L54.5162 -30.4767
L54.6211 -30.2398
L54.7236 -30.0022
L54.8237 -29.7638
L54.9213 -29.5247
L55.0166 -29.2847
L55.1094 -29.0439
L55.1998 -28.8022
L55.2878 -28.5595
L55.3733 -28.3158
L55.4563 -28.0712
L55.5369 -27.8254
L55.6149 -27.5786
L55.6904 -27.3306
L55.7633 -27.0814
L55.8337 -26.831
L55.9014 -26.5793
L55.9664 -26.3263
L56.0288 -26.0719
L56.0884 -25.8162
L56.1452 -25.5589
L56.1991 -25.3002
L56.2502 -25.0399
L56.2983 -24.7781
L56.3433 -24.5146
L56.3853 -24.2494
L56.4241 -23.9826
L56.4597 -23.7139
L56.4919 -23.4435
L56.5207 -23.1711
L56.546 -22.8969
L56.5677 -22.6208
L56.5857 -22.3427
L56.5999 -22.0626
L56.6101 -21.7804
L56.6163 -21.4961
L56.6183 -21.2098
L56.616 -20.9212
L56.6092 -20.6305
L56.5978 -20.3376
L56.5817 -20.0424
L56.5606 -19.7449
L56.5344 -19.4452
L56.503 -19.1432
L56.466 -18.8389
L56.4235 -18.5322
L56.375 -18.2233
L56.3205 -17.912
L56.2597 -17.5984
L56.1924 -17.2826
L56.1183 -16.9645
L56.0372 -16.6442
L55.9488 -16.3217
L55.8529 -15.997
L55.5531 -15.6703
L55.1883 -15.2654
L54.8176 -14.9273
L54.4412 -14.5956
L54.0591 -14.2704
L53.6716 -13.9519
L53.2786 -13.6401
L52.8805 -13.3351
L52.4771 -13.037
L52.0688 -12.7459
L51.6555 -12.4619
L51.2375 -12.185
L50.8149 -11.9154
L50.3877 -11.6531
L49.9561 -11.3983
L49.5203 -11.1509
L49.0804 -10.9112
L48.6365 -10.679
L48.1888 -10.4546
L47.7373 -10.2379
L47.2823 -10.0291
L46.8238 -9.82825
L46.362 -9.63533
L45.8971 -9.45044
L45.4291 -9.27365
L44.9583 -9.10499
L44.4848 -8.94452
L44.0086 -8.7923
L43.5301 -8.64837
L43.0492 -8.51276
L42.5662 -8.38553
L42.0812 -8.26671
L41.5943 -8.15634
L41.1057 -8.05445
L40.6156 -7.96107
L40.1241 -7.87623
L39.6313 -7.79996
L39.1374 -7.73228
L38.6425 -7.67321
L38.1469 -7.62277
L37.6506 -7.58098
L37.1538 -7.54784
L36.6566 -7.52336
L36.1593 -7.50756
L35.6618 -7.50044
L35.1645 -7.50201
L34.6675 -7.51225
L34.1708 -7.53117
L33.6747 -7.55876
L33.1794 -7.59501
L32.6848 -7.63992
L32.1913 -7.69347
L31.699 -7.75564
L31.2079 -7.82641
L30.7184 -7.90576
L30.2304 -7.99368
L29.7442 -8.09012
L29.2599 -8.19506
L28.7776 -8.30848
L28.2975 -8.43033
L27.8198 -8.56057
L27.3446 -8.69918
L26.872 -8.8461
L26.4022 -9.00129
z
" id="C0_1_e6131212f9"/>
     <path d="
M16.3611 -56.543
L16.6962 -56.6325
L17.0343 -56.719
L17.3754 -56.8026
L17.7194 -56.8833
L18.0664 -56.9613
L18.4163 -57.0365
L18.769 -57.109
L19.1246 -57.1789
L19.4829 -57.2462
L19.844 -57.311
L20.2078 -57.3735
L20.5741 -57.4337
L20.943 -57.4917
L21.3143 -57.5477
L21.688 -57.6018
L22.0639 -57.6542
L22.4421 -57.7049
L22.8223 -57.7543
L23.2044 -57.8024
L23.5884 -57.8495
L23.9741 -57.8957
L24.3613 -57.9414
L24.75 -57.9868
L25.1401 -58.032
L25.5312 -58.0774
L25.9235 -58.1233
L26.3165 -58.1698
L26.7104 -58.2174
L27.1048 -58.2662
L27.4997 -58.3165
L27.8948 -58.3687
L28.2902 -58.423
L28.6856 -58.4796
L29.0809 -58.5388
L29.476 -58.6007
L29.8708 -58.6656
L30.2652 -58.7337
L30.6591 -58.8049
L31.0524 -58.8795
L31.4451 -58.9574
L31.837 -59.0388
L32.2281 -59.1234
L32.6184 -59.2114
L33.0078 -59.3025
L33.3963 -59.3966
L33.7839 -59.4935
L34.1704 -59.5931
L34.556 -59.6951
L34.9405 -59.7992
L35.324 -59.9052
L35.7064 -60.0127
L36.0877 -60.1215
L36.4679 -60.2312
L36.847 -60.3416
L37.225 -60.4522
L37.6017 -60.5629
L37.9773 -60.6733
L38.3517 -60.7831
L38.7248 -60.8921
L39.0966 -60.9999
L39.4671 -61.1063
L39.8364 -61.211
L40.2042 -61.3139
L40.5707 -61.4147
L40.9357 -61.5132
L41.2994 -61.6092
L41.6615 -61.7025
L42.0222 -61.7931
L42.3814 -61.8807
L42.739 -61.9651
L43.0951 -62.0464
L43.4497 -62.1244
L43.8026 -62.1989
L44.154 -62.2699
L44.5037 -62.3374
L44.8519 -62.4011
L45.1984 -62.4612
L45.5434 -62.5175
L45.4714 -62.57
L45.0008 -62.8802
L44.5275 -63.0414
L44.0516 -63.1943
L43.5733 -63.339
L43.0926 -63.4754
L42.6098 -63.6034
L42.1249 -63.7229
L41.6382 -63.8341
L41.1498 -63.9367
L40.6598 -64.0309
L40.1684 -64.1165
L39.6757 -64.1935
L39.1819 -64.262
L38.6872 -64.3218
L38.1916 -64.373
L37.6953 -64.4156
L37.1986 -64.4495
L36.7014 -64.4748
L36.2041 -64.4914
L35.7067 -64.4993
L35.2093 -64.4985
L34.7122 -64.489
L34.2156 -64.4709
L33.7194 -64.4441
L33.224 -64.4086
L32.7294 -64.3645
L32.2357 -64.3117
L31.7433 -64.2503
L31.2521 -64.1803
L30.7624 -64.1017
L30.2743 -64.0146
L29.7879 -63.9189
L29.3034 -63.8147
L28.821 -63.7021
L28.3407 -63.581
L27.8628 -63.4515
L27.3873 -63.3136
L26.9145 -63.1675
L26.4444 -63.013
L25.9773 -62.8503
L25.5132 -62.6795
L25.0523 -62.5005
L24.5947 -62.3135
L24.1406 -62.1184
L23.6902 -61.9154
L23.2434 -61.7044
L22.8006 -61.4857
L22.3618 -61.2592
L21.9271 -61.025
L21.4967 -60.7831
L21.0707 -60.5337
L20.6493 -60.2769
L20.2326 -60.0126
L19.8207 -59.7411
L19.4136 -59.4623
L19.0117 -59.1763
L18.6149 -58.8833
L18.2234 -58.5834
L17.8373 -58.2765
L17.4568 -57.9629
L17.0819 -57.6426
L16.7128 -57.3156
z
" id="C0_2_43ac33eb84"/>
    </defs>
    <g clip-path="url(#p1bffca34e9)">
     <use style="fill:#ff0000;stroke:#000000;stroke-width:2.0;" x="0.0" xlink:href="#C0_0_a811fe30f3" y="72.0"/>
    </g>
    <g clip-path="url(#p1bffca34e9)">
     <use style="fill:#ffffff;stroke:#000000;stroke-width:2.0;" x="0.0" xlink:href="#C0_1_e6131212f9" y="72.0"/>
    </g>
    <g clip-path="url(#p1bffca34e9)">
     <use style="fill:#ffffff;stroke:#000000;stroke-width:2.0;" x="0.0" xlink:href="#C0_2_43ac33eb84" y="72.0"/>
    </g>
   </g>
  </g>
 </g>
 <defs>
  <clipPath id="p1bffca34e9">
   <rect height="72.0" width="72.0" x="0.0" y="0.0"/>
  </clipPath>
 </defs>
</svg>
