<?xml version="1.0" encoding="utf-8" standalone="no"?>
<!DOCTYPE svg PUBLIC "-//W3C//DTD SVG 1.1//EN"
  "http://www.w3.org/Graphics/SVG/1.1/DTD/svg11.dtd">
<!-- Created with matplotlib (http://matplotlib.org/) -->
<svg height="72pt" version="1.1" viewBox="0 0 72 72" width="72pt" xmlns="http://www.w3.org/2000/svg" xmlns:xlink="http://www.w3.org/1999/xlink">
 <defs>
  <style type="text/css">
*{stroke-linecap:butt;stroke-linejoin:round;}
  </style>
 </defs>
 <g id="figure_1">
  <g id="patch_1">
   <path d="
M0 72
L72 72
L72 0
L0 0
z
" style="fill:none;"/>
  </g>
  <g id="axes_1">
   <g id="PatchCollection_1">
    <defs>
     <path d="
M36 -7.5
C43.5583 -7.5 50.808 -10.5029 56.1525 -15.8475
C61.4971 -21.192 64.5 -28.4417 64.5 -36
C64.5 -43.5583 61.4971 -50.808 56.1525 -56.1525
C50.808 -61.4971 43.5583 -64.5 36 -64.5
C28.4417 -64.5 21.192 -61.4971 15.8475 -56.1525
C10.5029 -50.808 7.5 -43.5583 7.5 -36
C7.5 -28.4417 10.5029 -21.192 15.8475 -15.8475
C21.192 -10.5029 28.4417 -7.5 36 -7.5
z
" id="C0_0_a811fe30f3"/>
     <path d="
M24.3392 -62.0017
L24.1885 -61.675
L24.0436 -61.3487
L23.9043 -61.023
L23.7705 -60.6981
L23.6422 -60.3743
L23.5193 -60.0515
L23.4017 -59.73
L23.2891 -59.4098
L23.1816 -59.0911
L23.079 -58.7739
L22.9811 -58.4584
L22.8878 -58.1445
L22.799 -57.8324
L22.7145 -57.5221
L22.6343 -57.2136
L22.5581 -56.907
L22.4859 -56.6022
L22.4175 -56.2994
L22.3529 -55.9984
L22.2918 -55.6994
L22.2342 -55.4023
L22.1799 -55.107
L22.1289 -54.8137
L22.0811 -54.5222
L22.0363 -54.2326
L21.9944 -53.9448
L21.9555 -53.6588
L21.9193 -53.3745
L21.8857 -53.092
L21.8548 -52.8112
L21.8264 -52.532
L21.8005 -52.2544
L21.7769 -51.9784
L21.7557 -51.704
L21.7367 -51.431
L21.7198 -51.1594
L21.7051 -50.8892
L21.6925 -50.6203
L21.6819 -50.3527
L21.6733 -50.0863
L21.6666 -49.8211
L21.6617 -49.5571
L21.6587 -49.294
L21.6575 -49.032
L21.6581 -48.7709
L21.6604 -48.5108
L21.6644 -48.2514
L21.6701 -47.9929
L21.6774 -47.7351
L21.6863 -47.4779
L21.6968 -47.2213
L21.7089 -46.9653
L21.7226 -46.7098
L21.7378 -46.4547
L21.7545 -46.2
L21.7728 -45.9456
L21.7925 -45.6915
L21.8137 -45.4375
L21.8365 -45.1837
L21.8607 -44.93
L21.9136 -44.6763
L21.9422 -44.4225
L21.9724 -44.1687
L22.004 -43.9146
L22.0371 -43.6604
L22.0717 -43.4059
L22.1078 -43.151
L22.1455 -42.8957
L22.1846 -42.64
L22.2253 -42.3837
L22.2676 -42.1268
L22.3114 -41.8693
L22.3568 -41.6111
L22.4039 -41.3521
L22.4525 -41.0923
L22.5029 -40.8316
L22.5549 -40.5699
L22.6086 -40.3072
L22.664 -40.0434
L22.7212 -39.7785
L22.7802 -39.5124
L22.841 -39.245
L22.9037 -38.9763
L22.9683 -38.7062
L23.0348 -38.4346
L23.1033 -38.1616
L23.1738 -37.887
L23.2464 -37.6107
L23.321 -37.3328
L23.3979 -37.0531
L23.4769 -36.7716
L23.5581 -36.4882
L23.6417 -36.2029
L23.7276 -35.9157
L23.8159 -35.6264
L23.9067 -35.335
L24 -35.0415
L24.0958 -34.7458
L24.1943 -34.4479
L24.2955 -34.1478
L24.3994 -33.8453
L24.5061 -33.5404
L24.6156 -33.2332
L24.7281 -32.9235
L24.8436 -32.6113
L24.9622 -32.2967
L25.0838 -31.9796
L25.2086 -31.66
L25.3366 -31.3378
L25.4679 -31.013
L25.6025 -30.6858
L25.7404 -30.3559
L25.8818 -30.0236
L26.0267 -29.6887
L26.175 -29.3514
L26.3268 -29.0116
L26.4821 -28.6694
L26.641 -28.3248
L26.8034 -27.9779
L26.9693 -27.6288
L27.1387 -27.2776
L27.3116 -26.9243
L27.4878 -26.569
L27.6673 -26.2119
L27.8499 -25.8532
L28.0356 -25.4928
L28.2242 -25.1311
L28.4154 -24.7681
L28.6089 -24.4041
L28.8046 -24.0393
L29.002 -23.6738
L29.2006 -23.308
L29.4001 -22.942
L29.5997 -22.5761
L29.7988 -22.2106
L29.9965 -21.8458
L30.192 -21.482
L30.3841 -21.1195
L30.5714 -20.7588
L30.7526 -20.4001
L30.926 -20.0439
L31.0895 -19.6906
L31.241 -19.3406
L31.378 -18.9944
L31.498 -18.6524
L31.5982 -18.3151
L31.6756 -17.983
L31.7275 -17.6567
L31.7514 -17.3366
L31.7452 -17.0232
L31.7072 -16.717
L31.6367 -16.4184
L31.5336 -16.1278
L31.3986 -15.8455
L31.2332 -15.5718
L31.0391 -15.3069
L30.8186 -15.0509
L30.5742 -14.804
L30.3082 -14.5662
L30.0231 -14.3376
L29.7211 -14.1183
L29.4043 -13.9083
L29.0747 -13.7076
L28.7339 -13.5163
L28.3835 -13.3343
L28.0248 -13.1617
L27.6591 -12.9984
L27.2876 -12.8444
L26.9111 -12.6996
L26.5305 -12.5641
L26.1466 -12.4378
L25.7601 -12.3206
L25.3716 -12.2125
L24.9816 -12.1134
L24.5907 -12.0232
L24.1992 -11.9417
L23.8076 -11.869
L23.4163 -11.8049
L23.0255 -11.7493
L22.6355 -11.7021
L22.2466 -11.6632
L21.859 -11.6324
L21.4729 -11.6097
L20.9973 -11.5949
L20.5767 -11.7684
L20.1608 -12.0339
L19.7497 -12.3067
L19.3436 -12.5868
L18.9425 -12.874
L18.5466 -13.1682
L18.1561 -13.4694
L17.771 -13.7774
L17.3914 -14.0922
L17.0175 -14.4137
L16.6494 -14.7417
L16.2872 -15.0762
L15.9309 -15.4171
L15.5808 -15.7643
L15.2369 -16.1177
L14.8994 -16.477
L14.5683 -16.8424
L14.2437 -17.2136
L13.9257 -17.5905
L13.6144 -17.973
L13.31 -18.361
L13.0125 -18.7543
L12.7219 -19.1529
L12.4385 -19.5567
L12.1623 -19.9655
L11.8933 -20.3791
L11.6316 -20.7975
L11.3774 -21.2206
L11.1307 -21.6481
L10.8915 -22.08
L10.66 -22.5161
L10.4362 -22.9564
L10.2202 -23.4006
L10.0121 -23.8487
L9.81187 -24.3005
L9.61962 -24.7558
L9.43541 -25.2146
L9.25928 -25.6766
L9.09131 -26.1418
L8.93153 -26.61
L8.77999 -27.081
L8.63675 -27.5548
L8.50184 -28.0312
L8.37531 -28.5099
L8.25719 -28.991
L8.14753 -29.4742
L8.04634 -29.9593
L7.95368 -30.4463
L7.86955 -30.935
L7.794 -31.4253
L7.72703 -31.9169
L7.66868 -32.4098
L7.61896 -32.9038
L7.57789 -33.3987
L7.54547 -33.8944
L7.52172 -34.3908
L7.50664 -34.8876
L7.50024 -35.3848
L7.50253 -35.8822
L7.51349 -36.3796
L7.53314 -36.8769
L7.56145 -37.3739
L7.59843 -37.8705
L7.64405 -38.3665
L7.69832 -38.8619
L7.7612 -39.3563
L7.83269 -39.8497
L7.91276 -40.342
L8.00138 -40.8329
L8.09854 -41.3224
L8.20419 -41.8102
L8.31831 -42.2963
L8.44086 -42.7804
L8.5718 -43.2625
L8.7111 -43.7423
L8.85871 -44.2199
L9.01459 -44.6949
L9.17869 -45.1672
L9.35096 -45.6368
L9.53135 -46.1034
L9.7198 -46.567
L9.91626 -47.0273
L10.1207 -47.4843
L10.3329 -47.9377
L10.553 -48.3876
L10.7809 -48.8336
L11.0164 -49.2758
L11.2596 -49.7139
L11.5103 -50.1478
L11.7684 -50.5775
L12.0339 -51.0027
L12.3067 -51.4233
L12.5868 -51.8392
L12.874 -52.2503
L13.1682 -52.6564
L13.4694 -53.0575
L13.7774 -53.4534
L14.0922 -53.8439
L14.4137 -54.229
L14.7417 -54.6086
L15.0762 -54.9825
L15.4171 -55.3506
L15.7643 -55.7128
L16.1177 -56.0691
L16.477 -56.4192
L16.8424 -56.7631
L17.2136 -57.1006
L17.5905 -57.4317
L17.973 -57.7563
L18.361 -58.0743
L18.7543 -58.3856
L19.1529 -58.69
L19.5567 -58.9875
L19.9655 -59.2781
L20.3791 -59.5615
L20.7975 -59.8377
L21.2206 -60.1067
L21.6481 -60.3684
L22.08 -60.6226
L22.5161 -60.8693
L22.9564 -61.1085
L23.4006 -61.34
L23.8487 -61.5638
z
" id="C0_1_79569acd3e"/>
     <path d="
M50.8008 -60.2309
L50.9666 -59.8888
L51.1253 -59.5482
L51.2771 -59.209
L51.4221 -58.8715
L51.5607 -58.5356
L51.6929 -58.2016
L51.8189 -57.8695
L51.9389 -57.5393
L52.0532 -57.2112
L52.1619 -56.8851
L52.2651 -56.5611
L52.3631 -56.2392
L52.456 -55.9195
L52.544 -55.6019
L52.6273 -55.2865
L52.7059 -54.9733
L52.7801 -54.6622
L52.8501 -54.3533
L52.9158 -54.0465
L52.9776 -53.7418
L53.0354 -53.4392
L53.0895 -53.1386
L53.14 -52.8401
L53.1869 -52.5435
L53.2305 -52.2489
L53.2707 -51.9561
L53.3077 -51.6653
L53.3415 -51.3762
L53.3724 -51.0889
L53.4003 -50.8033
L53.4254 -50.5194
L53.4477 -50.2371
L53.4673 -49.9563
L53.4842 -49.677
L53.4986 -49.3992
L53.5105 -49.1228
L53.52 -48.8477
L53.527 -48.5739
L53.5318 -48.3012
L53.5342 -48.0298
L53.5344 -47.7594
L53.5324 -47.4901
L53.5282 -47.2218
L53.5219 -46.9544
L53.5136 -46.6878
L53.5031 -46.422
L53.4907 -46.157
L53.4762 -45.8927
L53.4598 -45.6289
L53.4413 -45.3658
L53.421 -45.1031
L53.3987 -44.8408
L53.3745 -44.579
L53.3484 -44.3174
L53.3204 -44.0561
L53.2905 -43.795
L53.2587 -43.534
L53.225 -43.2731
L53.1894 -43.0121
L53.152 -42.7512
L53.1126 -42.4901
L53.0714 -42.2289
L53.0282 -41.9674
L52.9831 -41.7056
L52.9361 -41.4435
L52.8871 -41.1809
L52.8362 -40.9179
L52.7833 -40.6543
L52.7283 -40.3902
L52.6714 -40.1254
L52.6124 -39.8598
L52.5512 -39.5935
L52.488 -39.3264
L52.4226 -39.0584
L52.3551 -38.7894
L52.2853 -38.5194
L52.2133 -38.2483
L52.139 -37.9761
L52.0623 -37.7027
L51.9833 -37.4281
L51.9018 -37.1522
L51.8179 -36.8749
L51.7314 -36.5963
L51.6423 -36.3161
L51.5507 -36.0345
L51.4563 -35.7512
L51.3592 -35.4664
L51.2592 -35.1799
L51.1564 -34.8916
L51.0507 -34.6016
L50.942 -34.3098
L50.8302 -34.0162
L50.7152 -33.7206
L50.5971 -33.4232
L50.4756 -33.1237
L50.3508 -32.8223
L50.2226 -32.5188
L50.0909 -32.2132
L49.9556 -31.9056
L49.8166 -31.5959
L49.674 -31.2841
L49.5275 -30.9701
L49.3771 -30.6541
L49.2228 -30.3358
L49.0644 -30.0155
L48.902 -29.693
L48.7354 -29.3685
L48.5646 -29.0419
L48.3894 -28.7132
L48.21 -28.3825
L48.0262 -28.0499
L47.8379 -27.7154
L47.6452 -27.379
L47.448 -27.0408
L47.2463 -26.701
L47.0402 -26.3596
L46.8296 -26.0167
L46.6146 -25.6724
L46.3952 -25.3269
L46.1715 -24.9803
L45.9437 -24.6326
L45.7118 -24.2842
L45.4761 -23.9351
L45.2367 -23.5855
L44.9939 -23.2357
L44.7481 -22.8857
L44.4996 -22.5359
L44.2488 -22.1864
L43.9963 -21.8375
L43.7426 -21.4893
L43.4886 -21.1421
L43.235 -20.7962
L42.9828 -20.4518
L42.7332 -20.109
L42.4874 -19.7683
L42.2471 -19.4297
L42.0139 -19.0935
L41.7898 -18.7599
L41.5771 -18.429
L41.3782 -18.1012
L41.1958 -17.7765
L41.0328 -17.455
L40.892 -17.1369
L40.7764 -16.8224
L40.6885 -16.5116
L40.6304 -16.2045
L40.6039 -15.9015
L40.6098 -15.6026
L40.6483 -15.3081
L40.7186 -15.0183
L40.8194 -14.7334
L40.949 -14.4538
L41.1053 -14.1797
L41.2857 -13.9116
L41.4881 -13.6496
L41.71 -13.3942
L41.9493 -13.1455
L42.2039 -12.9038
L42.472 -12.6693
L42.752 -12.4423
L43.0422 -12.2228
L43.3415 -12.0111
L43.6487 -11.8073
L43.9627 -11.6114
L44.2825 -11.4235
L44.6074 -11.2437
L44.9367 -11.0721
L45.2697 -10.9086
L45.6059 -10.7534
L45.9446 -10.6062
L46.2856 -10.4673
L46.6283 -10.3365
L46.9724 -10.2137
L47.8654 -10.099
L48.3158 -10.0874
L48.7625 -10.2984
L49.2053 -10.5173
L49.6441 -10.7439
L50.0787 -10.9782
L50.509 -11.2202
L50.9349 -11.4696
L51.3563 -11.7266
L51.773 -11.9909
L52.1848 -12.2626
L52.5918 -12.5415
L52.9937 -12.8275
L53.3904 -13.1206
L53.7818 -13.4207
L54.1678 -13.7276
L54.5482 -14.0414
L54.9231 -14.3618
L55.2921 -14.6888
L55.6553 -15.0223
L56.0125 -15.3622
L56.3636 -15.7083
L56.7084 -16.0607
L57.047 -16.4191
L57.3792 -16.7835
L57.7048 -17.1538
L58.0239 -17.5298
L58.3362 -17.9114
L58.6418 -18.2985
L58.9404 -18.691
L59.232 -19.0888
L59.5166 -19.4918
L59.794 -19.8997
L60.0642 -20.3126
L60.327 -20.7302
L60.5824 -21.1526
L60.8304 -21.5794
L61.0707 -22.0106
L61.3035 -22.4461
L61.5285 -22.8857
L61.7457 -23.3293
L61.9551 -23.7768
L62.1566 -24.2279
L62.3502 -24.6827
L62.5357 -25.1409
L62.7131 -25.6025
L62.8824 -26.0672
L63.0435 -26.5349
L63.1963 -27.0055
L63.3409 -27.4788
L63.4771 -27.9548
L63.605 -28.4331
L63.7245 -28.9138
L63.8355 -29.3967
L63.938 -29.8816
L64.0321 -30.3683
L64.1176 -30.8567
L64.1945 -31.3467
L64.2628 -31.8382
L64.3226 -32.3309
L64.3737 -32.8247
L64.4161 -33.3195
L64.4499 -33.8151
L64.4751 -34.3113
L64.4915 -34.8081
L64.4993 -35.3052
L64.4984 -35.8026
L64.4888 -36.3
L64.4706 -36.7973
L64.4437 -37.2944
L64.4081 -37.7911
L64.3638 -38.2872
L64.3109 -38.7827
L64.2494 -39.2773
L64.1793 -39.7708
L64.1006 -40.2633
L64.0134 -40.7544
L63.9176 -41.2441
L63.8133 -41.7322
L63.7005 -42.2186
L63.5793 -42.7031
L63.4497 -43.1855
L63.3117 -43.6657
L63.1655 -44.1436
L63.0109 -44.619
L62.8481 -45.0918
L62.6771 -45.5618
L62.4981 -46.0289
L62.3109 -46.493
L62.1157 -46.9539
L61.9126 -47.4114
L61.7016 -47.8654
L61.4827 -48.3158
L61.2561 -48.7625
L61.0218 -49.2053
L60.7798 -49.6441
L60.5304 -50.0787
L60.2734 -50.509
L60.0091 -50.9349
L59.7374 -51.3563
L59.4585 -51.773
L59.1725 -52.1848
L58.8794 -52.5918
L58.5793 -52.9937
L58.2724 -53.3904
L57.9586 -53.7818
L57.6382 -54.1678
L57.3112 -54.5482
L56.9777 -54.9231
L56.6378 -55.2921
L56.2917 -55.6553
L55.9393 -56.0125
L55.5809 -56.3636
L55.2165 -56.7084
L54.8462 -57.047
L54.4702 -57.3792
L54.0886 -57.7048
L53.7015 -58.0239
L53.309 -58.3362
L52.9112 -58.6418
L52.5082 -58.9404
L52.1003 -59.232
L51.6874 -59.5166
z
" id="C0_2_073c682310"/>
    </defs>
    <g clip-path="url(#p1bffca34e9)">
     <use style="fill:#ffffff;stroke:#000000;stroke-width:2.0;" x="0.0" xlink:href="#C0_0_a811fe30f3" y="72.0"/>
    </g>
    <g clip-path="url(#p1bffca34e9)">
     <use style="fill:#ff0000;stroke:#000000;stroke-width:2.0;" x="0.0" xlink:href="#C0_1_79569acd3e" y="72.0"/>
    </g>
    <g clip-path="url(#p1bffca34e9)">
     <use style="fill:#ff0000;stroke:#000000;stroke-width:2.0;" x="0.0" xlink:href="#C0_2_073c682310" y="72.0"/>
    </g>
   </g>
  </g>
 </g>
 <defs>
  <clipPath id="p1bffca34e9">
   <rect height="72.0" width="72.0" x="0.0" y="0.0"/>
  </clipPath>
 </defs>
</svg>
