<?xml version="1.0" encoding="utf-8" standalone="no"?>
<!DOCTYPE svg PUBLIC "-//W3C//DTD SVG 1.1//EN"
  "http://www.w3.org/Graphics/SVG/1.1/DTD/svg11.dtd">
<!-- Created with matplotlib (http://matplotlib.org/) -->
<svg height="72pt" version="1.1" viewBox="0 0 72 72" width="72pt" xmlns="http://www.w3.org/2000/svg" xmlns:xlink="http://www.w3.org/1999/xlink">
 <defs>
  <style type="text/css">
*{stroke-linecap:butt;stroke-linejoin:round;}
  </style>
 </defs>
 <g id="figure_1">
  <g id="patch_1">
   <path d="
M0 72
L72 72
L72 0
L0 0
z
" style="fill:none;"/>
  </g>
  <g id="axes_1">
   <g id="PatchCollection_1">
    <defs>
     <path d="
M36 -7.5
C43.5583 -7.5 50.808 -10.5029 56.1525 -15.8475
C61.4971 -21.192 64.5 -28.4417 64.5 -36
C64.5 -43.5583 61.4971 -50.808 56.1525 -56.1525
C50.808 -61.4971 43.5583 -64.5 36 -64.5
C28.4417 -64.5 21.192 -61.4971 15.8475 -56.1525
C10.5029 -50.808 7.5 -43.5583 7.5 -36
C7.5 -28.4417 10.5029 -21.192 15.8475 -15.8475
C21.192 -10.5029 28.4417 -7.5 36 -7.5
z
" id="C0_0_a811fe30f3"/>
     <path d="
M63.1404 -27.5683
L63.0725 -27.9691
L62.9779 -28.3348
L62.8563 -28.6626
L62.708 -28.951
L62.5339 -29.1995
L62.3352 -29.4089
L62.1138 -29.5815
L61.8715 -29.7202
L61.6107 -29.8288
L61.3334 -29.9111
L61.0419 -29.9708
L60.7379 -30.0116
L60.4233 -30.0367
L60.0996 -30.0488
L59.7681 -30.0504
L59.4301 -30.0436
L59.0866 -30.0301
L58.7386 -30.0113
L58.3868 -29.9885
L58.0319 -29.9627
L57.6746 -29.9346
L57.3155 -29.905
L56.9551 -29.8744
L56.5937 -29.8433
L56.2319 -29.8121
L55.8699 -29.7811
L55.5081 -29.7506
L55.1469 -29.7207
L54.7864 -29.6917
L54.427 -29.6636
L54.0688 -29.6367
L53.7121 -29.6109
L53.3569 -29.5864
L53.0035 -29.5631
L52.6521 -29.5411
L52.3027 -29.5205
L51.9554 -29.5012
L51.6104 -29.4833
L51.2676 -29.4667
L50.9273 -29.4515
L50.5894 -29.4375
L50.254 -29.4249
L49.9212 -29.4135
L49.5909 -29.4034
L49.2632 -29.3946
L48.938 -29.3869
L48.6155 -29.3804
L48.2955 -29.3751
L47.9782 -29.3708
L47.6634 -29.3677
L47.3511 -29.3656
L47.0414 -29.3646
L46.7341 -29.3645
L46.4293 -29.3655
L46.127 -29.3674
L45.827 -29.3702
L45.5294 -29.3739
L45.234 -29.3785
L44.941 -29.384
L44.6501 -29.3903
L44.3613 -29.3974
L44.0747 -29.4053
L43.7901 -29.4139
L43.5075 -29.4233
L43.2268 -29.4335
L42.948 -29.4443
L42.671 -29.4559
L42.3957 -29.4682
L42.1222 -29.4811
L41.8502 -29.4947
L41.5798 -29.5089
L41.311 -29.5238
L41.0435 -29.5394
L40.7775 -29.5555
L40.5127 -29.5722
L40.2492 -29.5896
L39.9869 -29.6076
L39.7258 -29.6261
L39.4656 -29.6452
L39.2065 -29.665
L38.9483 -29.6853
L38.691 -29.7061
L38.4345 -29.7276
L38.1788 -29.7496
L37.9237 -29.7722
L37.6692 -29.7954
L37.4153 -29.8192
L37.1619 -29.8435
L36.9089 -29.8685
L36.6563 -29.894
L36.404 -29.92
L36.152 -29.9467
L35.6483 -29.974
L35.3966 -30.0019
L35.1449 -30.0304
L34.8931 -30.0595
L34.6412 -30.0892
L34.3891 -30.1196
L34.1368 -30.1506
L33.8841 -30.1823
L33.6311 -30.2146
L33.3776 -30.2476
L33.1236 -30.2813
L32.869 -30.3157
L32.6139 -30.3508
L32.358 -30.3867
L32.1014 -30.4232
L31.844 -30.4606
L31.5857 -30.4987
L31.3265 -30.5376
L31.0663 -30.5773
L30.805 -30.6178
L30.5426 -30.6592
L30.2791 -30.7015
L30.0143 -30.7446
L29.7482 -30.7887
L29.4808 -30.8336
L29.2119 -30.8796
L28.9416 -30.9265
L28.6697 -30.9744
L28.3963 -31.0234
L28.1212 -31.0734
L27.8444 -31.1245
L27.5659 -31.1767
L27.2855 -31.2301
L27.0033 -31.2846
L26.7192 -31.3404
L26.4332 -31.3973
L26.1451 -31.4555
L25.855 -31.5151
L25.5628 -31.5759
L25.2684 -31.6381
L24.9719 -31.7017
L24.6732 -31.7668
L24.3722 -31.8333
L24.069 -31.9013
L23.7635 -31.9708
L23.4557 -32.0418
L23.1456 -32.1145
L22.8332 -32.1888
L22.5184 -32.2648
L22.2013 -32.3424
L21.8819 -32.4217
L21.5602 -32.5028
L21.2362 -32.5857
L20.9099 -32.6703
L20.5815 -32.7567
L20.2508 -32.8449
L19.9181 -32.935
L19.5833 -33.0269
L19.2466 -33.1205
L18.9079 -33.216
L18.5676 -33.3132
L18.2255 -33.4122
L17.882 -33.5129
L17.537 -33.6152
L17.1908 -33.719
L16.8436 -33.8243
L16.4955 -33.9309
L16.1468 -34.0387
L15.7976 -34.1474
L15.4482 -34.2569
L15.0989 -34.3669
L14.7499 -34.4771
L14.4017 -34.587
L14.0544 -34.6963
L13.7086 -34.8043
L13.3645 -34.9104
L13.0227 -35.0138
L12.6836 -35.1137
L12.3477 -35.2088
L12.0157 -35.2978
L11.6881 -35.3791
L11.3657 -35.4509
L11.0494 -35.5109
L10.74 -35.5564
L10.4385 -35.5845
L10.146 -35.5916
L9.86379 -35.574
L9.59314 -35.5275
L9.33536 -35.4479
L9.09175 -35.3313
L8.86354 -35.1744
L8.65176 -34.9746
L8.45726 -34.7309
L8.28066 -34.4436
L8.12234 -34.114
L7.9825 -33.7451
L7.86116 -33.3401
L7.75827 -32.9029
L7.79062 -32.4376
L7.86576 -31.9404
L7.94948 -31.4487
L8.04174 -30.9583
L8.14252 -30.4696
L8.25178 -29.9825
L8.3695 -29.4972
L8.49563 -29.0139
L8.63014 -28.5328
L8.77299 -28.0539
L8.92413 -27.5774
L9.08352 -27.1035
L9.25111 -26.6323
L9.42684 -26.164
L9.61067 -25.6987
L9.80254 -25.2365
L10.0024 -24.7776
L10.2102 -24.3221
L10.4258 -23.8701
L10.6492 -23.4219
L10.8803 -22.9775
L11.1191 -22.537
L11.3655 -22.1007
L11.6194 -21.6685
L11.8806 -21.2408
L12.1493 -20.8175
L12.4252 -20.3989
L12.7083 -19.985
L12.9985 -19.576
L13.2957 -19.172
L13.5998 -18.7732
L13.9107 -18.3796
L14.2284 -17.9913
L14.5527 -17.6085
L14.8835 -17.2314
L15.2207 -16.8599
L15.5643 -16.4943
L15.9141 -16.1346
L16.2701 -15.781
L16.632 -15.4335
L16.9998 -15.0923
L17.3735 -14.7575
L17.7528 -14.4291
L18.1376 -14.1073
L18.5279 -13.7922
L18.9236 -13.4839
L19.3244 -13.1824
L19.7303 -12.8878
L20.1411 -12.6003
L20.5568 -12.3199
L20.9772 -12.0467
L21.4022 -11.7809
L21.8316 -11.5224
L22.2653 -11.2713
L22.7033 -11.0278
L23.1452 -10.7919
L23.5911 -10.5637
L24.0408 -10.3432
L24.4941 -10.1306
L24.9509 -9.92581
L25.4111 -9.72897
L25.8745 -9.54014
L26.3409 -9.35937
L26.8104 -9.18671
L27.2826 -9.02222
L27.7575 -8.86595
L28.2349 -8.71794
L28.7146 -8.57824
L29.1966 -8.4469
L29.6807 -8.32395
L30.1666 -8.20943
L30.6544 -8.10337
L31.1438 -8.00581
L31.6346 -7.91678
L32.1268 -7.83631
L32.6202 -7.76441
L33.1146 -7.70112
L33.6099 -7.64644
L34.1059 -7.6004
L34.6024 -7.56301
L35.0995 -7.53429
L35.5967 -7.51423
L36.0941 -7.50285
L36.5915 -7.50016
L37.0887 -7.50614
L37.5856 -7.5208
L38.082 -7.54414
L38.5777 -7.57615
L39.0727 -7.61681
L39.5667 -7.66612
L40.0596 -7.72406
L40.5513 -7.79062
L41.0417 -7.86576
L41.5304 -7.94948
L42.0175 -8.04174
L42.5028 -8.14252
L42.9861 -8.25178
L43.4672 -8.3695
L43.9461 -8.49563
L44.4226 -8.63014
L44.8965 -8.77299
L45.3677 -8.92413
L45.836 -9.08352
L46.3013 -9.25111
L46.7635 -9.42684
L47.2224 -9.61067
L47.6779 -9.80254
L48.1299 -10.0024
L48.5781 -10.2102
L49.0225 -10.4258
L49.463 -10.6492
L49.8993 -10.8803
L50.3315 -11.1191
L50.7592 -11.3655
L51.1825 -11.6194
L51.6011 -11.8806
L52.015 -12.1493
L52.424 -12.4252
L52.828 -12.7083
L53.2268 -12.9985
L53.6204 -13.2957
L54.0087 -13.5998
L54.3915 -13.9107
L54.7686 -14.2284
L55.1401 -14.5527
L55.5057 -14.8835
L55.8654 -15.2207
L56.219 -15.5643
L56.5665 -15.9141
L56.9077 -16.2701
L57.2425 -16.632
L57.5709 -16.9998
L57.8927 -17.3735
L58.2078 -17.7528
L58.5161 -18.1376
L58.8176 -18.5279
L59.1122 -18.9236
L59.3997 -19.3244
L59.6801 -19.7303
L59.9533 -20.1411
L60.2191 -20.5568
L60.4776 -20.9772
L60.7287 -21.4022
L60.9722 -21.8316
L61.2081 -22.2653
L61.4363 -22.7033
L61.6568 -23.1452
L61.8694 -23.5911
L62.0742 -24.0408
L62.271 -24.4941
L62.4599 -24.9509
L62.6406 -25.4111
L62.8133 -25.8745
L62.9778 -26.3409
z
" id="C0_1_a25fa53047"/>
     <path d="
M64.0988 -40.0195
L63.8829 -40.4803
L63.6616 -40.9503
L63.4344 -41.4264
L63.2008 -41.9061
L62.9606 -42.3873
L62.7137 -42.8681
L62.4602 -43.3469
L62.1999 -43.8225
L61.9332 -44.2936
L61.6602 -44.7594
L61.3812 -45.219
L61.0965 -45.6718
L60.8063 -46.1171
L60.511 -46.5547
L60.2109 -46.984
L59.9063 -47.4048
L59.5976 -47.8169
L59.2852 -48.22
L58.9692 -48.6141
L58.6502 -48.999
L58.3283 -49.3748
L58.0039 -49.7414
L57.6773 -50.0988
L57.3487 -50.447
L57.0185 -50.7862
L56.6868 -51.1164
L56.3539 -51.4377
L56.02 -51.7502
L55.6854 -52.0541
L55.3502 -52.3495
L55.0145 -52.6365
L54.6787 -52.9153
L54.3428 -53.1861
L54.0069 -53.4489
L53.6713 -53.704
L53.3359 -53.9516
L53.001 -54.1917
L52.6666 -54.4247
L52.3328 -54.6505
L51.9997 -54.8695
L51.6673 -55.0818
L51.3357 -55.2874
L51.005 -55.4867
L50.6752 -55.6797
L50.3463 -55.8666
L50.0183 -56.0476
L49.6914 -56.2228
L49.3654 -56.3923
L49.0404 -56.5563
L48.7165 -56.7149
L48.3935 -56.8683
L48.0716 -57.0166
L47.7506 -57.1599
L47.4306 -57.2983
L47.1116 -57.4319
L46.7936 -57.5609
L46.4764 -57.6854
L46.1602 -57.8054
L45.8448 -57.9211
L45.5302 -58.0325
L45.2165 -58.1398
L44.9034 -58.243
L44.5912 -58.3422
L44.2795 -58.4375
L43.9686 -58.529
L43.6582 -58.6167
L43.3484 -58.7007
L43.039 -58.781
L42.7301 -58.8578
L42.4217 -58.9311
L42.1135 -59.0008
L41.8057 -59.0672
L41.4981 -59.1302
L41.1907 -59.1898
L40.8835 -59.2461
L40.5763 -59.2991
L40.2691 -59.3489
L39.962 -59.3955
L39.6547 -59.4389
L39.3473 -59.4791
L39.0397 -59.5161
L38.7318 -59.55
L38.4236 -59.5807
L38.1151 -59.6083
L37.8061 -59.6328
L37.4966 -59.6541
L37.1865 -59.6723
L36.8758 -59.6873
L36.5645 -59.6992
L36.2524 -59.7079
L35.9395 -59.7134
L35.6258 -59.7157
L35.3111 -59.7147
L34.9954 -59.7104
L34.6787 -59.7028
L34.3609 -59.6919
L34.042 -59.6776
L33.7218 -59.6598
L33.4003 -59.6386
L33.0775 -59.6138
L32.7533 -59.5854
L32.4277 -59.5534
L32.1005 -59.5176
L31.7718 -59.478
L31.4415 -59.4346
L31.1095 -59.3872
L30.7757 -59.3358
L30.4402 -59.2803
L30.1029 -59.2205
L29.7637 -59.1565
L29.4227 -59.088
L29.0796 -59.015
L28.7346 -58.9374
L28.3876 -58.8551
L28.0385 -58.7678
L27.6873 -58.6756
L27.3341 -58.5783
L26.9787 -58.4757
L26.6211 -58.3677
L26.2614 -58.2542
L25.8996 -58.135
L25.5356 -58.0099
L25.1694 -57.8789
L24.8012 -57.7416
L24.4308 -57.5981
L24.0583 -57.448
L23.6838 -57.2912
L23.3072 -57.1277
L22.9288 -56.957
L22.5485 -56.7792
L22.1663 -56.594
L21.7825 -56.4012
L21.397 -56.2006
L21.0101 -55.9921
L20.6218 -55.7755
L20.2323 -55.5507
L19.8417 -55.3173
L19.4502 -55.0754
L19.0581 -54.8247
L18.6654 -54.5651
L18.2724 -54.2965
L17.8794 -54.0187
L17.4866 -53.7317
L17.0943 -53.4354
L16.7028 -53.1298
L16.3123 -52.8148
L15.9233 -52.4905
L15.536 -52.1568
L15.1507 -51.814
L14.768 -51.4622
L14.388 -51.1016
L14.0113 -50.7325
L13.6383 -50.3553
L13.2692 -49.9704
L12.9046 -49.5785
L12.5448 -49.1803
L12.1902 -48.7766
L11.8412 -48.3685
L11.4981 -47.9573
L11.1612 -47.5444
L10.8308 -47.1318
L10.5072 -46.7215
L10.1903 -46.316
L9.88041 -45.9183
L9.57734 -45.5317
L9.28095 -45.1601
L9.06267 -44.8077
L9.22921 -45.3075
L9.40391 -45.7762
L9.58671 -46.242
L9.77755 -46.7046
L9.97638 -47.1639
L10.1831 -47.6199
L10.3978 -48.0723
L10.6202 -48.521
L10.8503 -48.9659
L11.0881 -49.4069
L11.3335 -49.8438
L11.5865 -50.2764
L11.8468 -50.7047
L12.1145 -51.1286
L12.3895 -51.5478
L12.6717 -51.9623
L12.961 -52.3719
L13.2573 -52.7766
L13.5605 -53.1761
L13.8706 -53.5704
L14.1874 -53.9593
L14.5108 -54.3428
L14.8408 -54.7207
L15.1772 -55.0929
L15.52 -55.4593
L15.869 -55.8197
L16.2242 -56.1741
L16.5854 -56.5224
L16.9525 -56.8644
L17.3254 -57.2
L17.7039 -57.5292
L18.0881 -57.8519
L18.4777 -58.1679
L18.8727 -58.4771
L19.2728 -58.7795
L19.6781 -59.0749
L20.0883 -59.3633
L20.5034 -59.6446
L20.9232 -59.9187
L21.3476 -60.1855
L21.7764 -60.445
L22.2096 -60.697
L22.647 -60.9414
L23.0885 -61.1783
L23.5339 -61.4075
L23.983 -61.629
L24.4359 -61.8427
L24.8923 -62.0484
L25.352 -62.2463
L25.815 -62.4362
L26.2811 -62.618
L26.7502 -62.7917
L27.222 -62.9572
L27.6966 -63.1145
L28.1737 -63.2636
L28.6531 -63.4044
L29.1348 -63.5368
L29.6186 -63.6608
L30.1044 -63.7764
L30.5919 -63.8835
L31.0811 -63.9822
L31.5718 -64.0723
L32.0638 -64.1539
L32.557 -64.2269
L33.0513 -64.2913
L33.5465 -64.347
L34.0424 -64.3942
L34.5389 -64.4327
L35.0359 -64.4625
L35.5331 -64.4837
L36.0305 -64.4962
L36.5279 -64.5
L37.0251 -64.4951
L37.522 -64.4816
L38.0185 -64.4593
L38.5143 -64.4284
L39.0094 -64.3889
L39.5036 -64.3407
L39.9966 -64.2838
L40.4885 -64.2184
L40.979 -64.1443
L41.468 -64.0617
L41.9553 -63.9705
L42.4408 -63.8708
L42.9244 -63.7627
L43.4058 -63.646
L43.885 -63.521
L44.3618 -63.3875
L44.836 -63.2457
L45.3075 -63.0957
L45.7762 -62.9373
L46.242 -62.7708
L46.7046 -62.5961
L47.1639 -62.4133
L47.6199 -62.2225
L48.0723 -62.0236
L48.521 -61.8169
L48.9659 -61.6022
L49.4069 -61.3798
L49.8438 -61.1497
L50.2764 -60.9119
L50.7047 -60.6665
L51.1286 -60.4135
L51.5478 -60.1532
L51.9623 -59.8855
L52.3719 -59.6105
L52.7766 -59.3283
L53.1761 -59.039
L53.5704 -58.7427
L53.9593 -58.4395
L54.3428 -58.1294
L54.7207 -57.8126
L55.0929 -57.4892
L55.4593 -57.1592
L55.8197 -56.8228
L56.1741 -56.48
L56.5224 -56.131
L56.8644 -55.7758
L57.2 -55.4146
L57.5292 -55.0475
L57.8519 -54.6746
L58.1679 -54.2961
L58.4771 -53.9119
L58.7795 -53.5223
L59.0749 -53.1273
L59.3633 -52.7272
L59.6446 -52.3219
L59.9187 -51.9117
L60.1855 -51.4966
L60.445 -51.0768
L60.697 -50.6524
L60.9414 -50.2236
L61.1783 -49.7904
L61.4075 -49.353
L61.629 -48.9115
L61.8427 -48.4661
L62.0484 -48.017
L62.2463 -47.5641
L62.4362 -47.1077
L62.618 -46.648
L62.7917 -46.185
L62.9572 -45.7189
L63.1145 -45.2498
L63.2636 -44.778
L63.4044 -44.3034
L63.5368 -43.8263
L63.6608 -43.3469
L63.7764 -42.8652
L63.8835 -42.3814
L63.9822 -41.8956
L64.0723 -41.4081
z
" id="C0_2_88e420cd76"/>
    </defs>
    <g clip-path="url(#p1bffca34e9)">
     <use style="fill:#ff0000;stroke:#000000;stroke-width:2.0;" x="0.0" xlink:href="#C0_0_a811fe30f3" y="72.0"/>
    </g>
    <g clip-path="url(#p1bffca34e9)">
     <use style="fill:#ffffff;stroke:#000000;stroke-width:2.0;" x="0.0" xlink:href="#C0_1_a25fa53047" y="72.0"/>
    </g>
    <g clip-path="url(#p1bffca34e9)">
     <use style="fill:#ffffff;stroke:#000000;stroke-width:2.0;" x="0.0" xlink:href="#C0_2_88e420cd76" y="72.0"/>
    </g>
   </g>
  </g>
 </g>
 <defs>
  <clipPath id="p1bffca34e9">
   <rect height="72.0" width="72.0" x="0.0" y="0.0"/>
  </clipPath>
 </defs>
</svg>
