<?xml version="1.0" encoding="utf-8" standalone="no"?>
<!DOCTYPE svg PUBLIC "-//W3C//DTD SVG 1.1//EN"
  "http://www.w3.org/Graphics/SVG/1.1/DTD/svg11.dtd">
<!-- Created with matplotlib (http://matplotlib.org/) -->
<svg height="72pt" version="1.1" viewBox="0 0 72 72" width="72pt" xmlns="http://www.w3.org/2000/svg" xmlns:xlink="http://www.w3.org/1999/xlink">
 <defs>
  <style type="text/css">
*{stroke-linecap:butt;stroke-linejoin:round;}
  </style>
 </defs>
 <g id="figure_1">
  <g id="patch_1">
   <path d="
M0 72
L72 72
L72 0
L0 0
z
" style="fill:none;"/>
  </g>
  <g id="axes_1">
   <g id="PatchCollection_1">
    <defs>
     <path d="
M36 -7.5
C43.5583 -7.5 50.808 -10.5029 56.1525 -15.8475
C61.4971 -21.192 64.5 -28.4417 64.5 -36
C64.5 -43.5583 61.4971 -50.808 56.1525 -56.1525
C50.808 -61.4971 43.5583 -64.5 36 -64.5
C28.4417 -64.5 21.192 -61.4971 15.8475 -56.1525
C10.5029 -50.808 7.5 -43.5583 7.5 -36
C7.5 -28.4417 10.5029 -21.192 15.8475 -15.8475
C21.192 -10.5029 28.4417 -7.5 36 -7.5
z
" id="C0_0_a811fe30f3"/>
     <path d="
M10.4001 -23.7619
L10.5539 -23.8676
L10.7088 -23.9727
L10.8647 -24.0773
L11.0217 -24.1814
L11.1799 -24.2851
L11.3391 -24.3884
L11.4995 -24.4913
L11.6611 -24.5938
L11.8238 -24.6961
L11.9877 -24.7981
L12.3192 -24.8998
L12.4869 -25.0013
L12.6559 -25.1027
L12.8262 -25.2039
L12.9978 -25.3049
L13.1709 -25.4059
L13.3454 -25.5068
L13.5213 -25.6077
L13.6987 -25.7086
L13.8777 -25.8094
L14.0583 -25.9103
L14.2404 -26.0113
L14.4242 -26.1124
L14.6097 -26.2135
L14.797 -26.3148
L14.986 -26.4163
L15.1769 -26.518
L15.3696 -26.6198
L15.5643 -26.7219
L15.7609 -26.8242
L15.9596 -26.9268
L16.1603 -27.0297
L16.3631 -27.1329
L16.5681 -27.2364
L16.7754 -27.3402
L16.9849 -27.4444
L17.1967 -27.549
L17.411 -27.654
L17.6276 -27.7594
L17.8468 -27.8652
L18.0685 -27.9714
L18.2929 -28.0781
L18.5199 -28.1852
L18.7496 -28.2928
L18.9821 -28.4008
L19.2174 -28.5093
L19.4557 -28.6183
L19.6968 -28.7277
L19.941 -28.8376
L20.1882 -28.948
L20.4385 -29.0588
L20.692 -29.1701
L20.9486 -29.2818
L21.2085 -29.394
L21.4717 -29.5065
L21.7383 -29.6194
L22.0082 -29.7326
L22.2815 -29.8462
L22.5582 -29.96
L22.8384 -30.074
L23.1221 -30.1882
L23.4094 -30.3026
L23.7001 -30.417
L23.9943 -30.5313
L24.2921 -30.6456
L24.5934 -30.7597
L24.8982 -30.8735
L25.2065 -30.9869
L25.5182 -31.0997
L25.8334 -31.2119
L26.1518 -31.3233
L26.4736 -31.4337
L26.7986 -31.543
L27.1267 -31.6509
L27.4578 -31.7572
L27.7919 -31.8617
L28.1286 -31.9641
L28.4681 -32.0642
L28.8099 -32.1617
L29.154 -32.2561
L29.5002 -32.3472
L29.8483 -32.4346
L30.1979 -32.5179
L30.5489 -32.5965
L30.901 -32.67
L31.2538 -32.738
L31.607 -32.7998
L31.9604 -32.855
L32.3135 -32.9028
L32.666 -32.9427
L33.0175 -32.974
L33.3675 -32.9961
L33.7158 -33.0084
L34.0618 -33.0101
L34.4053 -33.0007
L34.7457 -32.9796
L35.0827 -32.9461
L35.416 -32.8999
L35.7452 -32.8404
L36.0701 -32.7675
L36.3902 -32.6807
L36.7055 -32.5801
L37.0157 -32.4656
L37.3206 -32.3373
L37.6202 -32.1956
L37.9143 -32.0406
L38.2029 -31.8729
L38.486 -31.693
L38.7637 -31.5014
L39.0358 -31.2989
L39.3025 -31.0862
L39.5639 -30.864
L39.82 -30.633
L40.0709 -30.394
L40.3167 -30.1477
L40.5574 -29.8949
L40.7932 -29.6362
L41.0242 -29.3724
L41.2504 -29.1041
L41.4719 -28.8318
L41.6888 -28.5563
L41.9013 -28.2779
L42.1093 -27.9973
L42.313 -27.7149
L42.5125 -27.431
L42.7077 -27.1462
L42.8989 -26.8608
L43.086 -26.575
L43.2692 -26.2893
L43.4485 -26.0039
L43.6239 -25.719
L43.7956 -25.435
L43.9636 -25.1518
L44.128 -24.8699
L44.2889 -24.5893
L44.4463 -24.3102
L44.6003 -24.0326
L44.7509 -23.7568
L44.8982 -23.4829
L45.0423 -23.2108
L45.1833 -22.9407
L45.3211 -22.6727
L45.4559 -22.4067
L45.5878 -22.1429
L45.7167 -21.8813
L45.8428 -21.6219
L45.966 -21.3646
L46.0866 -21.1096
L46.2044 -20.8569
L46.3196 -20.6063
L46.4323 -20.358
L46.5424 -20.1119
L46.65 -19.868
L46.7553 -19.6262
L46.8581 -19.3866
L46.9586 -19.1492
L47.0569 -18.9138
L47.1529 -18.6805
L47.2467 -18.4492
L47.3384 -18.2199
L47.428 -17.9926
L47.5155 -17.7672
L47.6009 -17.5437
L47.6844 -17.322
L47.7659 -17.1022
L47.8455 -16.884
L47.9232 -16.6676
L47.9991 -16.4529
L48.0731 -16.2397
L48.1453 -16.0282
L48.2157 -15.8182
L48.2844 -15.6096
L48.3513 -15.4025
L48.4165 -15.1968
L48.4801 -14.9924
L48.5419 -14.7893
L48.6022 -14.5875
L48.6607 -14.3868
L48.7177 -14.1874
L48.773 -13.989
L48.8267 -13.7917
L48.8788 -13.5954
L48.9294 -13.4001
L48.9783 -13.2057
L49.0257 -13.0122
L49.0715 -12.8195
L49.1156 -12.6277
L49.1582 -12.4365
L49.1993 -12.2461
L49.2387 -12.0563
L49.2765 -11.8672
L49.3126 -11.6786
L49.3472 -11.4906
L49.3801 -11.303
L49.4113 -11.1159
L49.0025 -10.9292
L48.5579 -10.6389
L48.1095 -10.4158
L47.6574 -10.2006
L47.2017 -9.99316
L46.7426 -9.79367
L46.2803 -9.60217
L45.8148 -9.4187
L45.3464 -9.24334
L44.8751 -9.07612
L44.401 -8.9171
L43.9245 -8.76634
L43.4455 -8.62387
L42.9642 -8.48973
L42.4809 -8.36398
L41.9955 -8.24665
L41.5083 -8.13777
L41.0195 -8.03738
L40.5291 -7.9455
L40.0373 -7.86217
L39.5443 -7.78741
L39.0503 -7.72125
L38.5553 -7.6637
L38.0595 -7.61478
L37.5631 -7.57451
L37.0662 -7.5429
L36.569 -7.51995
L36.0716 -7.50568
L35.5742 -7.50009
L35.0769 -7.50318
L34.5799 -7.51495
L34.0834 -7.5354
L33.5874 -7.56452
L33.0922 -7.6023
L32.5978 -7.64873
L32.1045 -7.7038
L31.6124 -7.76748
L31.1216 -7.83977
L30.6323 -7.92063
L30.1446 -8.01005
L29.6587 -8.10799
L29.1747 -8.21443
L28.6928 -8.32934
L28.2132 -8.45267
L27.7359 -8.58439
L27.2611 -8.72446
L26.789 -8.87285
L26.3197 -9.02949
L25.8534 -9.19435
L25.3901 -9.36738
L24.9301 -9.54852
L24.4735 -9.73772
L24.0203 -9.93491
L23.5708 -10.14
L23.1251 -10.3531
L22.6833 -10.5739
L22.2456 -10.8025
L21.8121 -11.0387
L21.3828 -11.2826
L20.9581 -11.5339
L20.5379 -11.7928
L20.1224 -12.059
L19.7118 -12.3325
L19.3061 -12.6132
L18.9055 -12.901
L18.5101 -13.1959
L18.1201 -13.4977
L17.7355 -13.8063
L17.3564 -14.1218
L16.9831 -14.4439
L16.6155 -14.7725
L16.2538 -15.1076
L15.8982 -15.4491
L15.5486 -15.7969
L15.2053 -16.1508
L14.8684 -16.5107
L14.5378 -16.8766
L14.2138 -17.2483
L13.8965 -17.6258
L13.5859 -18.0088
L13.2821 -18.3973
L12.9852 -18.7911
L12.6953 -19.1902
L12.4125 -19.5945
L12.137 -20.0037
L11.8687 -20.4178
L11.6077 -20.8366
L11.3542 -21.2601
L11.1081 -21.688
L10.8697 -22.1203
L10.6389 -22.5569
z
" id="C0_1_aff36eb7f4"/>
     <path d="
M22.6635 -61.0611
L22.8024 -60.9312
L22.9418 -60.7999
L23.0818 -60.6672
L23.2224 -60.5332
L23.3636 -60.3976
L23.5055 -60.2606
L23.6481 -60.122
L23.7914 -59.9819
L23.9355 -59.8402
L24.0804 -59.6969
L24.2262 -59.552
L24.3729 -59.4054
L24.5205 -59.257
L24.669 -59.1069
L24.8186 -58.955
L24.9692 -58.8013
L25.1209 -58.6456
L25.2737 -58.4881
L25.4277 -58.3286
L25.5829 -58.1671
L25.7393 -58.0036
L25.8971 -57.838
L26.0561 -57.6703
L26.2165 -57.5004
L26.3784 -57.3284
L26.5416 -57.1541
L26.7064 -56.9775
L26.8728 -56.7986
L27.0407 -56.6173
L27.2102 -56.4336
L27.3814 -56.2476
L27.5543 -56.059
L27.729 -55.8679
L27.9055 -55.6743
L28.0839 -55.4782
L28.2641 -55.2794
L28.4462 -55.078
L28.6303 -54.874
L28.8165 -54.6674
L29.0047 -54.458
L29.195 -54.246
L29.3874 -54.0314
L29.5821 -53.814
L29.7789 -53.594
L29.978 -53.3713
L30.1794 -53.146
L30.3832 -52.9181
L30.5893 -52.6876
L30.7979 -52.4546
L31.0089 -52.2192
L31.2224 -51.9815
L31.4384 -51.7414
L31.6569 -51.4992
L31.8781 -51.2549
L32.1019 -51.0088
L32.3284 -50.7608
L32.5575 -50.5113
L32.7894 -50.2604
L33.0241 -50.0084
L33.2616 -49.7554
L33.5019 -49.5018
L33.7451 -49.2479
L33.9912 -48.9939
L34.2403 -48.7404
L34.4924 -48.4876
L34.7475 -48.236
L35.0058 -47.986
L35.2673 -47.7383
L35.532 -47.4933
L35.8001 -47.2516
L36.0715 -47.0138
L36.3464 -46.7806
L36.6248 -46.5527
L36.9068 -46.3307
L37.1926 -46.1154
L37.4821 -45.9075
L37.7754 -45.7078
L38.0727 -45.5169
L38.374 -45.3356
L38.6793 -45.1645
L38.9887 -45.0043
L39.302 -44.8553
L39.6194 -44.7181
L39.9407 -44.5931
L40.2658 -44.4803
L40.5946 -44.3801
L40.927 -44.2923
L41.2626 -44.217
L41.6014 -44.1537
L41.9429 -44.1024
L42.2869 -44.0624
L42.633 -44.0335
L42.981 -44.015
L43.3305 -44.0063
L43.6811 -44.0069
L44.0325 -44.0162
L44.3842 -44.0334
L44.7361 -44.0581
L45.0877 -44.0895
L45.4387 -44.127
L45.7889 -44.1702
L46.1378 -44.2184
L46.4853 -44.2712
L46.8311 -44.328
L47.175 -44.3884
L47.5167 -44.4521
L47.856 -44.5185
L48.1928 -44.5874
L48.5269 -44.6585
L48.8581 -44.7313
L49.1863 -44.8057
L49.5115 -44.8814
L49.8334 -44.9581
L50.152 -45.0357
L50.4672 -45.114
L50.779 -45.1927
L51.0873 -45.2718
L51.392 -45.3511
L51.6932 -45.4305
L51.9908 -45.5098
L52.2848 -45.5889
L52.5751 -45.6679
L52.8619 -45.7465
L53.145 -45.8247
L53.4246 -45.9025
L53.7006 -45.9798
L53.973 -46.0565
L54.242 -46.1326
L54.5074 -46.2081
L54.7694 -46.283
L55.028 -46.3571
L55.2832 -46.4306
L55.5352 -46.5033
L55.7838 -46.5753
L56.0293 -46.6465
L56.2716 -46.717
L56.5108 -46.7867
L56.7469 -46.8556
L56.98 -46.9238
L57.2102 -46.9912
L57.4375 -47.0578
L57.662 -47.1237
L57.8838 -47.1888
L58.1028 -47.2531
L58.3192 -47.3167
L58.533 -47.3796
L58.7442 -47.4417
L58.953 -47.5031
L59.1594 -47.5638
L59.3634 -47.6238
L59.5651 -47.6831
L59.7645 -47.7418
L59.9618 -47.7998
L60.1569 -47.8571
L60.35 -47.9138
L60.541 -47.9699
L60.73 -48.0253
L60.9171 -48.0802
L61.1024 -48.1344
L61.2858 -48.1881
L61.4674 -48.2413
L61.4811 -48.2939
L61.2544 -48.7658
L61.02 -49.2085
L60.778 -49.6473
L60.5285 -50.0819
L60.2715 -50.5122
L60.0071 -50.938
L59.7354 -51.3593
L59.4564 -51.776
L59.1703 -52.1878
L58.8772 -52.5947
L58.5771 -52.9966
L58.2701 -53.3933
L57.9563 -53.7846
L57.6358 -54.1706
L57.3088 -54.551
L56.9752 -54.9258
L56.6353 -55.2948
L56.2891 -55.6579
L55.9367 -56.0151
L55.5782 -56.3661
L55.2138 -56.7109
L54.8435 -57.0495
L54.4675 -57.3816
L54.0858 -57.7072
L53.6986 -58.0262
L53.3061 -58.3385
L52.9083 -58.644
L52.5053 -58.9426
L52.0973 -59.2342
L51.6844 -59.5187
L51.2667 -59.796
L50.8443 -60.0661
L50.4175 -60.3289
L49.9862 -60.5843
L49.5507 -60.8321
L49.1111 -61.0725
L48.6674 -61.3051
L48.22 -61.5301
L47.7687 -61.7473
L47.3139 -61.9566
L46.8557 -62.1581
L46.3941 -62.3515
L45.9294 -62.537
L45.4617 -62.7143
L44.9911 -62.8836
L44.5177 -63.0446
L44.0417 -63.1974
L43.5633 -63.3419
L43.0826 -63.4781
L42.5998 -63.6059
L42.1149 -63.7253
L41.6281 -63.8363
L41.1397 -63.9388
L40.6497 -64.0327
L40.1582 -64.1182
L39.6655 -64.195
L39.1717 -64.2633
L38.6769 -64.323
L38.1813 -64.374
L37.685 -64.4164
L37.1883 -64.4501
L36.6911 -64.4752
L36.1938 -64.4916
L35.6964 -64.4993
L35.199 -64.4984
L34.702 -64.4887
L34.2053 -64.4704
L33.7091 -64.4434
L33.2137 -64.4078
L32.7191 -64.3635
L32.2255 -64.3105
L31.7331 -64.249
L31.242 -64.1788
L30.7523 -64.1
L30.2642 -64.0127
L29.7778 -63.9168
L29.2934 -63.8125
L28.811 -63.6997
L28.3308 -63.5784
L27.8529 -63.4487
L27.3775 -63.3107
L26.9047 -63.1644
L26.4347 -63.0097
L25.9676 -62.8469
L25.5036 -62.6759
L25.0428 -62.4967
L24.5853 -62.3095
L24.1313 -62.1143
L23.6809 -61.9111
L23.2342 -61.7
z
" id="C0_2_7e40ee3e9b"/>
    </defs>
    <g clip-path="url(#p1bffca34e9)">
     <use style="fill:#ffffff;stroke:#000000;stroke-width:2.0;" x="0.0" xlink:href="#C0_0_a811fe30f3" y="72.0"/>
    </g>
    <g clip-path="url(#p1bffca34e9)">
     <use style="fill:#ff0000;stroke:#000000;stroke-width:2.0;" x="0.0" xlink:href="#C0_1_aff36eb7f4" y="72.0"/>
    </g>
    <g clip-path="url(#p1bffca34e9)">
     <use style="fill:#ff0000;stroke:#000000;stroke-width:2.0;" x="0.0" xlink:href="#C0_2_7e40ee3e9b" y="72.0"/>
    </g>
   </g>
  </g>
 </g>
 <defs>
  <clipPath id="p1bffca34e9">
   <rect height="72.0" width="72.0" x="0.0" y="0.0"/>
  </clipPath>
 </defs>
</svg>
