<?xml version="1.0" encoding="utf-8" standalone="no"?>
<!DOCTYPE svg PUBLIC "-//W3C//DTD SVG 1.1//EN"
  "http://www.w3.org/Graphics/SVG/1.1/DTD/svg11.dtd">
<!-- Created with matplotlib (http://matplotlib.org/) -->
<svg height="72pt" version="1.1" viewBox="0 0 72 72" width="72pt" xmlns="http://www.w3.org/2000/svg" xmlns:xlink="http://www.w3.org/1999/xlink">
 <defs>
  <style type="text/css">
*{stroke-linecap:butt;stroke-linejoin:round;}
  </style>
 </defs>
 <g id="figure_1">
  <g id="patch_1">
   <path d="
M0 72
L72 72
L72 0
L0 0
z
" style="fill:none;"/>
  </g>
  <g id="axes_1">
   <g id="PatchCollection_1">
    <defs>
     <path d="
M36 -7.5
C43.5583 -7.5 50.808 -10.5029 56.1525 -15.8475
C61.4971 -21.192 64.5 -28.4417 64.5 -36
C64.5 -43.5583 61.4971 -50.808 56.1525 -56.1525
C50.808 -61.4971 43.5583 -64.5 36 -64.5
C28.4417 -64.5 21.192 -61.4971 15.8475 -56.1525
C10.5029 -50.808 7.5 -43.5583 7.5 -36
C7.5 -28.4417 10.5029 -21.192 15.8475 -15.8475
C21.192 -10.5029 28.4417 -7.5 36 -7.5
z
" id="C0_0_a811fe30f3"/>
     <path d="
M21.3366 -41.4883
L21.5243 -41.6924
L21.7141 -41.8947
L21.9059 -42.0953
L22.0997 -42.2942
L22.2956 -42.4914
L22.4935 -42.6869
L22.6935 -42.8808
L22.8956 -43.0731
L23.0998 -43.2637
L23.3062 -43.4526
L23.5148 -43.64
L23.7255 -43.8258
L23.9385 -44.0099
L24.1537 -44.1925
L24.3712 -44.3734
L24.591 -44.5528
L24.8131 -44.7305
L25.0376 -44.9066
L25.2644 -45.081
L25.4937 -45.2539
L25.7255 -45.425
L25.9598 -45.5945
L26.1965 -45.7623
L26.4358 -45.9284
L26.6777 -46.0927
L26.9222 -46.2553
L27.1694 -46.416
L27.4192 -46.5749
L27.6718 -46.732
L27.9271 -46.8871
L28.1851 -47.0402
L28.4459 -47.1913
L28.7096 -47.3403
L28.9761 -47.4872
L29.2455 -47.6319
L29.5177 -47.7743
L29.7929 -47.9144
L30.071 -48.0521
L30.3521 -48.1873
L30.6361 -48.3199
L30.923 -48.4498
L31.213 -48.577
L31.5059 -48.7013
L31.8018 -48.8227
L32.1006 -48.9409
L32.4024 -49.056
L32.7072 -49.1677
L33.0148 -49.276
L33.3254 -49.3807
L33.6388 -49.4817
L33.955 -49.5788
L34.274 -49.6719
L34.5957 -49.7608
L34.9201 -49.8453
L35.247 -49.9253
L35.5764 -50.0006
L35.9083 -50.071
L36.2424 -50.1364
L36.5788 -50.1964
L36.9172 -50.251
L37.2576 -50.2999
L37.5998 -50.3429
L37.9436 -50.3797
L38.2889 -50.4103
L38.6355 -50.4342
L38.9832 -50.4514
L39.3318 -50.4615
L39.6811 -50.4644
L40.0308 -50.4597
L40.3807 -50.4474
L40.7306 -50.4271
L41.0801 -50.3986
L41.4289 -50.3617
L41.7769 -50.3161
L42.1236 -50.2617
L42.4687 -50.1983
L42.812 -50.1257
L43.153 -50.0436
L43.4914 -49.9519
L43.8269 -49.8506
L44.1592 -49.7394
L44.4878 -49.6182
L44.8124 -49.4871
L45.1327 -49.3458
L45.4482 -49.1945
L45.7588 -49.0331
L46.0639 -48.8616
L46.3634 -48.6801
L46.6568 -48.4888
L46.944 -48.2876
L47.2246 -48.0768
L47.4984 -47.8567
L47.7651 -47.6273
L48.0245 -47.3889
L48.2765 -47.1419
L48.5208 -46.8864
L48.7573 -46.6229
L48.9859 -46.3517
L49.2065 -46.073
L49.419 -45.7874
L49.6234 -45.4951
L49.8195 -45.1965
L50.0075 -44.8921
L50.1872 -44.5822
L50.3588 -44.2672
L50.5222 -43.9475
L50.6775 -43.6235
L50.8248 -43.2956
L50.9641 -42.9642
L51.0956 -42.6295
L51.2193 -42.2921
L51.3353 -41.9521
L51.4438 -41.61
L51.5449 -41.2661
L51.6386 -40.9207
L51.7252 -40.574
L51.8048 -40.2263
L51.8775 -39.878
L51.9435 -39.5292
L52.0029 -39.1802
L52.0558 -38.8312
L52.1024 -38.4825
L52.1429 -38.1342
L52.1773 -37.7865
L52.2059 -37.4396
L52.2287 -37.0936
L52.246 -36.7487
L52.2578 -36.405
L52.2643 -36.0627
L52.2656 -35.7219
L52.2619 -35.3826
L52.2533 -35.045
L52.2398 -34.7091
L52.2217 -34.3751
L52.1991 -34.0429
L52.172 -33.7128
L52.1406 -33.3846
L52.105 -33.0586
L52.0653 -32.7346
L52.0216 -32.4128
L51.9739 -32.0932
L51.9225 -31.7757
L51.8673 -31.4605
L51.8085 -31.1476
L51.7461 -30.8369
L51.6802 -30.5284
L51.6109 -30.2223
L51.5383 -29.9184
L51.4624 -29.6167
L51.3834 -29.3174
L51.3011 -29.0203
L51.2158 -28.7254
L51.1275 -28.4328
L51.0362 -28.1423
L50.942 -27.8541
L50.8448 -27.5681
L50.7449 -27.2843
L50.6421 -27.0026
L50.5365 -26.7231
L50.4282 -26.4456
L50.3172 -26.1703
L50.2035 -25.897
L50.0872 -25.6258
L49.9682 -25.3566
L49.8466 -25.0894
L49.7224 -24.8241
L49.5955 -24.5609
L49.4661 -24.2995
L49.3342 -24.0401
L49.1996 -23.7826
L49.0625 -23.527
L48.9228 -23.2731
L48.7806 -23.0212
L48.6358 -22.771
L48.4884 -22.5226
L48.3384 -22.276
L48.1858 -22.0312
L48.0306 -21.7881
L47.8727 -21.5467
L47.7123 -21.307
L47.5491 -21.0691
L47.3833 -20.8328
L47.2148 -20.5982
L47.0435 -20.3653
L46.8695 -20.134
L46.6927 -19.9045
L46.5131 -19.6766
L46.3306 -19.4503
L46.1453 -19.2258
L45.957 -19.0029
L45.7658 -18.7817
L45.5716 -18.5621
L45.3743 -18.3443
L45.174 -18.1282
L44.9705 -17.9138
L44.7639 -17.7012
L44.554 -17.4903
L44.3409 -17.2813
L44.1245 -17.074
L43.9048 -16.8687
L43.6816 -16.6652
L43.4549 -16.4637
L43.2248 -16.2641
L42.991 -16.0666
L42.7537 -15.8712
L42.5126 -15.6778
L42.2678 -15.4867
L42.0193 -15.2979
L41.7669 -15.1113
L41.5105 -14.9272
L41.2503 -14.7455
L40.986 -14.5664
L40.7176 -14.39
L40.4451 -14.2163
L40.1685 -14.0454
L39.8876 -13.8776
L39.6025 -13.7127
L39.313 -13.5511
L39.0192 -13.3928
L38.7209 -13.2379
L38.4182 -13.0867
L38.1111 -12.9391
L37.7994 -12.7955
L37.4832 -12.6559
L37.1625 -12.5205
L36.8371 -12.3896
L36.5072 -12.2632
L36.1727 -12.1416
L35.8336 -12.0249
L35.49 -11.9134
L35.1418 -11.8074
L34.7891 -11.7069
L34.432 -11.6123
L34.0704 -11.5237
L33.7045 -11.4415
L33.3343 -11.3658
L32.96 -11.2969
L32.5815 -11.2352
L32.1992 -11.1807
L31.813 -11.1339
L31.4232 -11.0949
L31.0299 -11.0642
L30.6333 -11.0418
L30.2337 -11.0282
L29.8313 -11.0235
L29.4263 -11.0281
L29.019 -11.0422
L28.6098 -11.0661
L28.1989 -11.1
L27.7867 -11.1442
L27.3736 -11.1989
L26.96 -11.2644
L26.5463 -11.3408
L26.1329 -11.4284
L25.7204 -11.5273
L25.3091 -11.6375
L24.8997 -11.7594
L24.4925 -11.8929
L24.0883 -12.0381
L23.6874 -12.1951
L23.2905 -12.3637
L22.8982 -12.5441
L22.5109 -12.7361
L22.1293 -12.9396
L21.7539 -13.1544
L21.3852 -13.3803
L21.0239 -13.6172
L20.6703 -13.8647
L20.325 -14.1225
L19.9884 -14.3903
L19.661 -14.6678
L19.3432 -14.9544
L19.0353 -15.2499
L18.7377 -15.5537
L18.4506 -15.8653
L18.1743 -16.1844
L17.9091 -16.5103
L17.655 -16.8427
L17.4122 -17.1809
L17.1807 -17.5244
L16.9607 -17.8729
L16.7522 -18.2257
L16.555 -18.5823
L16.3692 -18.9424
L16.1947 -19.3053
L16.0314 -19.6708
L15.8791 -20.0382
L15.7377 -20.4073
L15.6069 -20.7775
L15.4867 -21.1486
L15.3768 -21.5201
L15.277 -21.8918
L15.187 -22.2633
L15.1066 -22.6343
L15.0356 -23.0044
L14.9737 -23.3736
L14.9206 -23.7415
L14.8762 -24.1078
L14.8401 -24.4725
L14.8121 -24.8352
L14.7919 -25.1959
L14.7793 -25.5543
L14.7741 -25.9104
L14.776 -26.2639
L14.7847 -26.6149
L14.8 -26.9631
L14.8218 -27.3085
L14.8497 -27.6511
L14.8835 -27.9906
L14.9231 -28.3272
L14.9682 -28.6607
L15.0187 -28.9911
L15.0743 -29.3184
L15.1349 -29.6426
L15.2003 -29.9635
L15.2702 -30.2813
L15.3447 -30.5959
L15.4234 -30.9073
L15.5062 -31.2155
L15.5931 -31.5206
L15.6838 -31.8225
L15.7782 -32.1212
L15.8763 -32.4169
L15.9778 -32.7094
L16.0827 -32.9989
L16.1908 -33.2853
L16.3021 -33.5687
L16.4165 -33.8492
L16.5338 -34.1267
L16.654 -34.4013
L16.777 -34.673
L16.9027 -34.9419
L17.031 -35.2081
L17.162 -35.4714
L17.2954 -35.7321
L17.4313 -35.9901
L17.5696 -36.2455
L17.7103 -36.4983
L17.8533 -36.7486
L17.9985 -36.9964
L18.1459 -37.2417
L18.2955 -37.4846
L18.4473 -37.7252
L18.6011 -37.9634
L18.7571 -38.1993
L18.9151 -38.433
L19.0752 -38.6644
L19.2373 -38.8937
L19.4014 -39.1209
L19.5674 -39.3459
L19.7355 -39.5689
L19.9055 -39.7899
L20.0775 -40.0088
L20.2515 -40.2258
L20.4274 -40.4409
L20.6053 -40.6541
L20.7852 -40.8654
L20.967 -41.0748
z
" id="C0_1_58fda3e970"/>
    </defs>
    <g clip-path="url(#p1bffca34e9)">
     <use style="fill:#ff0000;stroke:#000000;stroke-width:2.0;" x="0.0" xlink:href="#C0_0_a811fe30f3" y="72.0"/>
    </g>
    <g clip-path="url(#p1bffca34e9)">
     <use style="fill:#ffffff;stroke:#000000;stroke-width:2.0;" x="0.0" xlink:href="#C0_1_58fda3e970" y="72.0"/>
    </g>
   </g>
  </g>
 </g>
 <defs>
  <clipPath id="p1bffca34e9">
   <rect height="72.0" width="72.0" x="0.0" y="0.0"/>
  </clipPath>
 </defs>
</svg>
