<?xml version="1.0" encoding="utf-8" standalone="no"?>
<!DOCTYPE svg PUBLIC "-//W3C//DTD SVG 1.1//EN"
  "http://www.w3.org/Graphics/SVG/1.1/DTD/svg11.dtd">
<!-- Created with matplotlib (http://matplotlib.org/) -->
<svg height="72pt" version="1.1" viewBox="0 0 72 72" width="72pt" xmlns="http://www.w3.org/2000/svg" xmlns:xlink="http://www.w3.org/1999/xlink">
 <defs>
  <style type="text/css">
*{stroke-linecap:butt;stroke-linejoin:round;}
  </style>
 </defs>
 <g id="figure_1">
  <g id="patch_1">
   <path d="
M0 72
L72 72
L72 0
L0 0
z
" style="fill:none;"/>
  </g>
  <g id="axes_1">
   <g id="PatchCollection_1">
    <defs>
     <path d="
M36 -7.5
C43.5583 -7.5 50.808 -10.5029 56.1525 -15.8475
C61.4971 -21.192 64.5 -28.4417 64.5 -36
C64.5 -43.5583 61.4971 -50.808 56.1525 -56.1525
C50.808 -61.4971 43.5583 -64.5 36 -64.5
C28.4417 -64.5 21.192 -61.4971 15.8475 -56.1525
C10.5029 -50.808 7.5 -43.5583 7.5 -36
C7.5 -28.4417 10.5029 -21.192 15.8475 -15.8475
C21.192 -10.5029 28.4417 -7.5 36 -7.5
z
" id="C0_0_a811fe30f3"/>
     <path d="
M50.1362 -60.7398
L49.8563 -60.636
L49.6229 -60.491
L49.4341 -60.3069
L49.2861 -60.0871
L49.1736 -59.8359
L49.0908 -59.5577
L49.0319 -59.2569
L48.9917 -58.9374
L48.9658 -58.6026
L48.9505 -58.2552
L48.9428 -57.8978
L48.9403 -57.5322
L48.9412 -57.1602
L48.9438 -56.7831
L48.9471 -56.4021
L48.9502 -56.0182
L48.9523 -55.6321
L48.953 -55.2447
L48.9517 -54.8565
L48.9483 -54.4681
L48.9425 -54.08
L48.9341 -53.6926
L48.9231 -53.3062
L48.9093 -52.9213
L48.8927 -52.538
L48.8734 -52.1567
L48.8514 -51.7775
L48.8267 -51.4007
L48.7994 -51.0265
L48.7694 -50.655
L48.737 -50.2863
L48.7022 -49.9206
L48.665 -49.5579
L48.6255 -49.1983
L48.5838 -48.8419
L48.5401 -48.4888
L48.4943 -48.1389
L48.4467 -47.7924
L48.3971 -47.4492
L48.3458 -47.1094
L48.2929 -46.7729
L48.2383 -46.4397
L48.1821 -46.1099
L48.1245 -45.7834
L48.0655 -45.4602
L48.0051 -45.1402
L47.9434 -44.8235
L47.8805 -44.5099
L47.8165 -44.1994
L47.7513 -43.892
L47.685 -43.5877
L47.6177 -43.2863
L47.5494 -42.9878
L47.4802 -42.6922
L47.41 -42.3993
L47.339 -42.1092
L47.2671 -41.8218
L47.1943 -41.537
L47.1208 -41.2547
L47.0465 -40.9748
L46.9714 -40.6974
L46.8956 -40.4223
L46.819 -40.1494
L46.7418 -39.8787
L46.6639 -39.6102
L46.5852 -39.3437
L46.5059 -39.0791
L46.426 -38.8165
L46.3453 -38.5558
L46.264 -38.2968
L46.1821 -38.0395
L46.0994 -37.7838
L46.0162 -37.5297
L45.9322 -37.2771
L45.8476 -37.0259
L45.7623 -36.7761
L45.6764 -36.5276
L45.5897 -36.2803
L45.5024 -36.0342
L45.4144 -35.7892
L45.3256 -35.5452
L45.2361 -35.3022
L45.1459 -35.0601
L45.0549 -34.8189
L44.9632 -34.5784
L44.8706 -34.3386
L44.7773 -34.0996
L44.6831 -33.8611
L44.5881 -33.6231
L44.3954 -33.3856
L44.2977 -33.1486
L44.199 -32.9118
L44.0994 -32.6754
L43.9988 -32.4393
L43.8972 -32.2033
L43.7945 -31.9674
L43.6908 -31.7316
L43.5859 -31.4958
L43.4799 -31.2599
L43.3727 -31.024
L43.2643 -30.7879
L43.1546 -30.5515
L43.0437 -30.3149
L42.9315 -30.078
L42.8178 -29.8407
L42.7028 -29.6029
L42.5863 -29.3647
L42.4684 -29.1259
L42.3489 -28.8866
L42.2278 -28.6466
L42.1051 -28.4059
L41.9807 -28.1644
L41.8546 -27.9222
L41.7268 -27.6791
L41.5971 -27.4351
L41.4655 -27.1902
L41.332 -26.9443
L41.1965 -26.6973
L41.0589 -26.4493
L40.9193 -26.2002
L40.7774 -25.9499
L40.6334 -25.6984
L40.487 -25.4457
L40.3383 -25.1918
L40.1872 -24.9365
L40.0336 -24.6799
L39.8774 -24.4219
L39.7187 -24.1625
L39.5572 -23.9017
L39.393 -23.6395
L39.2259 -23.3758
L39.056 -23.1106
L38.8831 -22.844
L38.7072 -22.5759
L38.5281 -22.3062
L38.3459 -22.0351
L38.1605 -21.7625
L37.9718 -21.4885
L37.7797 -21.213
L37.5841 -20.936
L37.3851 -20.6577
L37.1825 -20.378
L36.9764 -20.097
L36.7666 -19.8147
L36.5531 -19.5312
L36.3358 -19.2466
L36.1149 -18.9609
L35.8901 -18.6742
L35.6616 -18.3866
L35.4293 -18.0983
L35.1933 -17.8092
L34.9534 -17.5197
L34.7099 -17.2297
L34.4628 -16.9394
L34.2121 -16.6489
L33.958 -16.3585
L33.7007 -16.0683
L33.4402 -15.7785
L33.1768 -15.4892
L32.9109 -15.2006
L32.6427 -14.913
L32.3726 -14.6264
L32.1012 -14.3412
L31.829 -14.0574
L31.5567 -13.7753
L31.2852 -13.4951
L31.0157 -13.2168
L30.7494 -12.9406
L30.4879 -12.6666
L30.2332 -12.3948
L29.9878 -12.1252
L29.7547 -11.8577
L29.5376 -11.5919
L29.3411 -11.3277
L29.1705 -11.0645
L29.0322 -10.8017
L28.9331 -10.5386
L28.8803 -10.2742
L28.8803 -10.0079
L28.9381 -9.73894
L29.0563 -9.46722
L29.2348 -9.19304
L29.4709 -8.91733
L29.7597 -8.64153
L30.2081 -8.36739
L30.696 -8.09474
L31.1855 -7.9979
L31.6765 -7.9096
L32.1688 -7.82985
L32.6622 -7.75869
L33.1567 -7.69613
L33.6521 -7.64218
L34.1481 -7.59688
L34.6447 -7.56023
L35.1418 -7.53224
L35.6391 -7.51292
L36.1365 -7.50229
L36.6339 -7.50033
L37.131 -7.50705
L37.6279 -7.52245
L38.1242 -7.54653
L38.6199 -7.57927
L39.1148 -7.62067
L39.6087 -7.67072
L40.1015 -7.72939
L40.5931 -7.79668
L41.0833 -7.87256
L41.572 -7.957
L42.0589 -8.04999
L42.544 -8.15149
L43.0271 -8.26147
L43.5081 -8.37991
L43.9868 -8.50676
L44.463 -8.64198
L44.9367 -8.78553
L45.4076 -8.93738
L45.8757 -9.09747
L46.3408 -9.26575
L46.8027 -9.44218
L47.2613 -9.62669
L47.7165 -9.81924
L48.1682 -10.0198
L48.6161 -10.2282
L49.0602 -10.4445
L49.5003 -10.6686
L49.9363 -10.9004
L50.368 -11.1398
L50.7954 -11.3868
L51.2183 -11.6413
L51.6365 -11.9032
L52.05 -12.1725
L52.4585 -12.449
L52.8621 -12.7327
L53.2605 -13.0235
L53.6537 -13.3213
L54.0415 -13.626
L54.4238 -13.9375
L54.8005 -14.2557
L55.1714 -14.5806
L55.5366 -14.9119
L55.8957 -15.2497
L56.2488 -15.5939
L56.5958 -15.9442
L56.9364 -16.3006
L57.2707 -16.6631
L57.5985 -17.0314
L57.9197 -17.4055
L58.2343 -17.7853
L58.5421 -18.1706
L58.843 -18.5614
L59.1369 -18.9575
L59.4239 -19.3587
L59.7036 -19.7651
L59.9762 -20.1763
L60.2414 -20.5924
L60.4993 -21.0132
L60.7497 -21.4386
L60.9925 -21.8684
L61.2278 -22.3025
L61.4554 -22.7407
L61.6752 -23.183
L61.8872 -23.6292
L62.0913 -24.0792
L62.2874 -24.5328
L62.4756 -24.9899
L62.6556 -25.4504
L62.8276 -25.9141
L62.9914 -26.3808
L63.147 -26.8505
L63.2943 -27.3229
L63.4333 -27.798
L63.5639 -28.2756
L63.6861 -28.7556
L63.7999 -29.2377
L63.9053 -29.722
L64.0021 -30.2081
L64.0904 -30.696
L64.1701 -31.1855
L64.2413 -31.6765
L64.3039 -32.1688
L64.3578 -32.6622
L64.4031 -33.1567
L64.4398 -33.6521
L64.4678 -34.1481
L64.4871 -34.6447
L64.4977 -35.1418
L64.4997 -35.6391
L64.493 -36.1365
L64.4775 -36.6339
L64.4535 -37.131
L64.4207 -37.6279
L64.3793 -38.1242
L64.3293 -38.6199
L64.2706 -39.1148
L64.2033 -39.6087
L64.1274 -40.1015
L64.043 -40.5931
L63.95 -41.0833
L63.8485 -41.572
L63.7385 -42.0589
L63.6201 -42.544
L63.4932 -43.0271
L63.358 -43.5081
L63.2145 -43.9868
L63.0626 -44.463
L62.9025 -44.9367
L62.7343 -45.4076
L62.5578 -45.8757
L62.3733 -46.3408
L62.1808 -46.8027
L61.9802 -47.2613
L61.7718 -47.7165
L61.5555 -48.1682
L61.3314 -48.6161
L61.0996 -49.0602
L60.8602 -49.5003
L60.6132 -49.9363
L60.3587 -50.368
L60.0968 -50.7954
L59.8275 -51.2183
L59.551 -51.6365
L59.2673 -52.05
L58.9765 -52.4585
L58.6787 -52.8621
L58.374 -53.2605
L58.0625 -53.6537
L57.7443 -54.0415
L57.4194 -54.4238
L57.0881 -54.8005
L56.7503 -55.1714
L56.4061 -55.5366
L56.0558 -55.8957
L55.6994 -56.2488
L55.3369 -56.5958
L54.9686 -56.9364
L54.5945 -57.2707
L54.2147 -57.5985
L53.8294 -57.9197
L53.4386 -58.2343
L53.0425 -58.5421
L52.6413 -58.843
L52.2349 -59.1369
L51.8237 -59.4239
L51.4076 -59.7036
L50.9868 -59.9762
z
" id="C0_1_13fbad1b3e"/>
     <path d="
M41.8955 -63.862
L41.4475 -63.7636
L40.9775 -63.6676
L40.4906 -63.5714
L39.9913 -63.4729
L39.4832 -63.3704
L38.9694 -63.2627
L38.4524 -63.1489
L37.9341 -63.0284
L37.4164 -62.9008
L36.9007 -62.7658
L36.3881 -62.6233
L35.8796 -62.4734
L35.3762 -62.3161
L34.8783 -62.1517
L34.3867 -61.9802
L33.9019 -61.802
L33.4241 -61.6173
L32.9538 -61.4264
L32.4913 -61.2296
L32.0366 -61.0273
L31.59 -60.8196
L31.1516 -60.6071
L30.7215 -60.3898
L30.2997 -60.1682
L29.8863 -59.9426
L29.4813 -59.7132
L29.0845 -59.4803
L28.6961 -59.2442
L28.3158 -59.0051
L27.9437 -58.7633
L27.5796 -58.5191
L27.2235 -58.2725
L26.8751 -58.0239
L26.5345 -57.7734
L26.2014 -57.5212
L25.8758 -57.2675
L25.5575 -57.0125
L25.2463 -56.7562
L24.9422 -56.4989
L24.6449 -56.2407
L24.3543 -55.9816
L24.0703 -55.7218
L23.7926 -55.4613
L23.5213 -55.2004
L23.2561 -54.9389
L22.9968 -54.6771
L22.7434 -54.415
L22.4957 -54.1526
L22.2535 -53.89
L22.0167 -53.6272
L21.7852 -53.3643
L21.5588 -53.1013
L21.3375 -52.8382
L21.121 -52.5751
L20.9093 -52.3119
L20.7022 -52.0487
L20.4996 -51.7855
L20.3015 -51.5222
L20.1076 -51.259
L19.9179 -50.9957
L19.7324 -50.7323
L19.5508 -50.4689
L19.3731 -50.2055
L19.1992 -49.9419
L19.029 -49.6783
L18.8624 -49.4145
L18.6994 -49.1506
L18.5398 -48.8865
L18.3836 -48.6221
L18.2308 -48.3575
L18.0811 -48.0927
L17.9347 -47.8275
L17.7913 -47.5619
L17.651 -47.296
L17.5137 -47.0296
L17.3793 -46.7627
L17.2478 -46.4953
L17.1191 -46.2273
L16.9932 -45.9587
L16.8701 -45.6894
L16.7497 -45.4194
L16.6319 -45.1486
L16.5168 -44.8769
L16.4042 -44.6044
L16.2943 -44.3309
L16.1869 -44.0565
L16.082 -43.7809
L15.9797 -43.5043
L15.8798 -43.2264
L15.7824 -42.9474
L15.6875 -42.667
L15.595 -42.3852
L15.505 -42.102
L15.4174 -41.8173
L15.3323 -41.531
L15.2497 -41.2431
L15.1695 -40.9535
L15.0918 -40.6621
L15.0166 -40.3689
L14.9439 -40.0738
L14.8738 -39.7766
L14.8062 -39.4774
L14.7412 -39.1761
L14.6788 -38.8725
L14.619 -38.5667
L14.562 -38.2585
L14.5077 -37.9479
L14.4562 -37.6347
L14.4075 -37.319
L14.3617 -37.0006
L14.3189 -36.6795
L14.2791 -36.3555
L14.2424 -36.0286
L14.2089 -35.6988
L14.1786 -35.3659
L14.1516 -35.0299
L14.1281 -34.6907
L14.1081 -34.3482
L14.0917 -34.0024
L14.0791 -33.6532
L14.0703 -33.3004
L14.0654 -32.9442
L14.0646 -32.5843
L14.0681 -32.2208
L14.0759 -31.8535
L14.0881 -31.4825
L14.1051 -31.1077
L14.1268 -30.7289
L14.1535 -30.3463
L14.1853 -29.9597
L14.2224 -29.5692
L14.265 -29.1747
L14.3132 -28.7762
L14.3673 -28.3737
L14.4274 -27.9673
L14.4938 -27.5569
L14.5666 -27.1425
L14.6461 -26.7243
L14.7324 -26.3022
L14.8258 -25.8764
L14.9265 -25.4469
L15.0347 -25.0138
L15.1507 -24.5772
L15.2745 -24.1373
L15.4065 -23.6943
L15.5468 -23.2482
L15.6955 -22.7994
L15.853 -22.348
L16.0193 -21.8943
L16.1946 -21.4385
L16.3789 -20.981
L16.5724 -20.522
L16.7751 -20.062
L16.9871 -19.6012
L17.2082 -19.1402
L17.4383 -18.6794
L17.6773 -18.2192
L17.9249 -17.7603
L18.1807 -17.3031
L18.4441 -16.8483
L18.7144 -16.3965
L18.9908 -15.9486
L19.272 -15.5051
L19.5566 -15.0671
L19.8427 -14.6354
L20.1278 -14.2112
L20.4092 -13.7954
L20.683 -13.3896
L20.9447 -12.9949
L21.189 -12.6132
L21.4094 -12.246
L21.599 -11.8952
L21.2166 -11.5624
L20.7936 -11.634
L20.3753 -11.8957
L19.9617 -12.1648
L19.5529 -12.4411
L19.1492 -12.7246
L18.7507 -13.0152
L18.3573 -13.3128
L17.9694 -13.6173
L17.5869 -13.9286
L17.2101 -14.2466
L16.839 -14.5713
L16.4737 -14.9025
L16.1144 -15.2401
L15.7611 -15.584
L15.414 -15.9342
L15.0731 -16.2905
L14.7387 -16.6528
L14.4107 -17.0209
L14.0892 -17.3949
L13.7745 -17.7745
L13.4665 -18.1597
L13.1654 -18.5503
L12.8713 -18.9462
L12.5842 -19.3473
L12.3042 -19.7535
L12.0314 -20.1646
L11.766 -20.5806
L11.5079 -21.0013
L11.2573 -21.4265
L11.0142 -21.8562
L10.7788 -22.2901
L10.551 -22.7283
L10.3309 -23.1705
L10.1187 -23.6166
L9.9144 -24.0664
L9.71802 -24.5199
L9.52964 -24.977
L9.34933 -25.4373
L9.17714 -25.9009
L9.01311 -26.3676
L8.85731 -26.8371
L8.70977 -27.3095
L8.57055 -27.7846
L8.43968 -28.2621
L8.31721 -28.742
L8.20317 -29.2241
L8.0976 -29.7082
L8.00052 -30.1943
L7.91198 -30.6822
L7.83199 -31.1716
L7.76058 -31.6626
L7.69778 -32.1548
L7.64359 -32.6483
L7.59804 -33.1427
L7.56115 -33.638
L7.53291 -34.1341
L7.51335 -34.6307
L7.50247 -35.1277
L7.50026 -35.625
L7.50674 -36.1224
L7.5219 -36.6198
L7.54573 -37.117
L7.57823 -37.6138
L7.61938 -38.1102
L7.66918 -38.6059
L7.72761 -39.1008
L7.79466 -39.5948
L7.87029 -40.0876
L7.9545 -40.5793
L8.04724 -41.0695
L8.1485 -41.5582
L8.25825 -42.0452
L8.37644 -42.5303
L8.50305 -43.0135
L8.63804 -43.4945
L8.78136 -43.9733
L8.93297 -44.4496
L9.09283 -44.9233
L9.26088 -45.3944
L9.43707 -45.8625
L9.62136 -46.3277
L9.81369 -46.7897
L10.014 -47.2484
L10.2222 -47.7037
L10.4383 -48.1555
L10.6621 -48.6035
L10.8937 -49.0477
L11.1329 -49.4879
L11.3797 -49.924
L11.634 -50.3559
L11.8957 -50.7834
L12.1648 -51.2064
L12.4411 -51.6247
L12.7246 -52.0383
L13.0152 -52.4471
L13.3128 -52.8508
L13.6173 -53.2493
L13.9286 -53.6427
L14.2466 -54.0306
L14.5713 -54.4131
L14.9025 -54.7899
L15.2401 -55.161
L15.584 -55.5263
L15.9342 -55.8856
L16.2905 -56.2389
L16.6528 -56.586
L17.0209 -56.9269
L17.3949 -57.2613
L17.7745 -57.5893
L18.1597 -57.9108
L18.5503 -58.2255
L18.9462 -58.5335
L19.3473 -58.8346
L19.7535 -59.1287
L20.1646 -59.4158
L20.5806 -59.6958
L21.0013 -59.9686
L21.4265 -60.234
L21.8562 -60.4921
L22.2901 -60.7427
L22.7283 -60.9858
L23.1705 -61.2212
L23.6166 -61.449
L24.0664 -61.6691
L24.5199 -61.8813
L24.977 -62.0856
L25.4373 -62.282
L25.9009 -62.4704
L26.3676 -62.6507
L26.8371 -62.8229
L27.3095 -62.9869
L27.7846 -63.1427
L28.2621 -63.2902
L28.742 -63.4294
L29.2241 -63.5603
L29.7082 -63.6828
L30.1943 -63.7968
L30.6822 -63.9024
L31.1716 -63.9995
L31.6626 -64.088
L32.1548 -64.168
L32.6483 -64.2394
L33.1427 -64.3022
L33.638 -64.3564
L34.1341 -64.402
L34.6307 -64.4389
L35.1277 -64.4671
L35.625 -64.4866
L36.1224 -64.4975
L36.6198 -64.4997
L37.117 -64.4933
L37.6138 -64.4781
L38.1102 -64.4543
L38.6059 -64.4218
L39.1008 -64.3806
L39.5948 -64.3308
L40.0876 -64.2724
L40.5793 -64.2053
L41.0695 -64.1297
z
" id="C0_2_9da8ee4615"/>
    </defs>
    <g clip-path="url(#p1bffca34e9)">
     <use style="fill:#ff0000;stroke:#000000;stroke-width:2.0;" x="0.0" xlink:href="#C0_0_a811fe30f3" y="72.0"/>
    </g>
    <g clip-path="url(#p1bffca34e9)">
     <use style="fill:#ffffff;stroke:#000000;stroke-width:2.0;" x="0.0" xlink:href="#C0_1_13fbad1b3e" y="72.0"/>
    </g>
    <g clip-path="url(#p1bffca34e9)">
     <use style="fill:#ffffff;stroke:#000000;stroke-width:2.0;" x="0.0" xlink:href="#C0_2_9da8ee4615" y="72.0"/>
    </g>
   </g>
  </g>
 </g>
 <defs>
  <clipPath id="p1bffca34e9">
   <rect height="72.0" width="72.0" x="0.0" y="0.0"/>
  </clipPath>
 </defs>
</svg>
