<?xml version="1.0" encoding="utf-8" standalone="no"?>
<!DOCTYPE svg PUBLIC "-//W3C//DTD SVG 1.1//EN"
  "http://www.w3.org/Graphics/SVG/1.1/DTD/svg11.dtd">
<!-- Created with matplotlib (http://matplotlib.org/) -->
<svg height="72pt" version="1.1" viewBox="0 0 72 72" width="72pt" xmlns="http://www.w3.org/2000/svg" xmlns:xlink="http://www.w3.org/1999/xlink">
 <defs>
  <style type="text/css">
*{stroke-linecap:butt;stroke-linejoin:round;}
  </style>
 </defs>
 <g id="figure_1">
  <g id="patch_1">
   <path d="
M0 72
L72 72
L72 0
L0 0
z
" style="fill:none;"/>
  </g>
  <g id="axes_1">
   <g id="PatchCollection_1">
    <defs>
     <path d="
M36 -7.5
C43.5583 -7.5 50.808 -10.5029 56.1525 -15.8475
C61.4971 -21.192 64.5 -28.4417 64.5 -36
C64.5 -43.5583 61.4971 -50.808 56.1525 -56.1525
C50.808 -61.4971 43.5583 -64.5 36 -64.5
C28.4417 -64.5 21.192 -61.4971 15.8475 -56.1525
C10.5029 -50.808 7.5 -43.5583 7.5 -36
C7.5 -28.4417 10.5029 -21.192 15.8475 -15.8475
C21.192 -10.5029 28.4417 -7.5 36 -7.5
z
" id="C0_0_a811fe30f3"/>
     <path d="
M49.9881 -11.288
L49.9587 -11.532
L49.9145 -11.7718
L49.8562 -12.0077
L49.7843 -12.2396
L49.6994 -12.4677
L49.6022 -12.6919
L49.4932 -12.9126
L49.373 -13.1297
L49.2424 -13.3436
L49.102 -13.5543
L48.9523 -13.762
L48.794 -13.9669
L48.6277 -14.1692
L48.4539 -14.369
L48.2732 -14.5665
L48.0861 -14.7619
L47.8932 -14.9554
L47.6949 -15.147
L47.4917 -15.337
L47.2841 -15.5254
L47.0724 -15.7124
L46.8571 -15.8981
L46.6385 -16.0826
L46.417 -16.2659
L46.193 -16.4483
L45.9666 -16.6297
L45.7383 -16.8103
L45.5083 -16.99
L45.2768 -17.169
L45.0441 -17.3473
L44.8103 -17.525
L44.5758 -17.702
L44.3406 -17.8785
L44.1049 -18.0545
L43.869 -18.2299
L43.6329 -18.4049
L43.3967 -18.5795
L43.1607 -18.7536
L42.9248 -18.9273
L42.6893 -19.1006
L42.4541 -19.2736
L42.2194 -19.4462
L41.9853 -19.6185
L41.7517 -19.7904
L41.5188 -19.962
L41.2867 -20.1333
L41.0552 -20.3044
L40.8246 -20.4751
L40.5948 -20.6456
L40.3659 -20.8159
L40.1379 -20.9859
L39.9107 -21.1557
L39.6844 -21.3252
L39.4591 -21.4946
L39.2347 -21.6637
L39.0113 -21.8327
L38.7887 -22.0016
L38.5671 -22.1702
L38.3465 -22.3388
L38.1267 -22.5072
L37.9079 -22.6755
L37.6899 -22.8438
L37.4728 -23.0119
L37.2566 -23.1801
L37.0413 -23.3481
L36.8268 -23.5162
L36.6131 -23.6843
L36.4002 -23.8523
L36.188 -24.0205
L35.9766 -24.1886
L35.766 -24.3569
L35.556 -24.5253
L35.3467 -24.6938
L35.138 -24.8624
L34.93 -25.0312
L34.7226 -25.2002
L34.5157 -25.3694
L34.3093 -25.5388
L34.1035 -25.7085
L33.8981 -25.8785
L33.6932 -26.0487
L33.4887 -26.2193
L33.2846 -26.3903
L33.0809 -26.5616
L32.8775 -26.7334
L32.4715 -26.9055
L32.2689 -27.0782
L32.0664 -27.2513
L31.8642 -27.4249
L31.6621 -27.599
L31.4601 -27.7737
L31.2582 -27.949
L31.0564 -28.1249
L30.8546 -28.3015
L30.6527 -28.4787
L30.4509 -28.6565
L30.249 -28.8351
L30.0469 -29.0145
L29.8448 -29.1946
L29.6425 -29.3755
L29.44 -29.5572
L29.2374 -29.7398
L29.0344 -29.9232
L28.8313 -30.1075
L28.6278 -30.2927
L28.424 -30.4789
L28.2199 -30.666
L28.0154 -30.8541
L27.8105 -31.0432
L27.6051 -31.2334
L27.3994 -31.4245
L27.1932 -31.6167
L26.9864 -31.81
L26.7792 -32.0044
L26.5715 -32.1999
L26.3632 -32.3965
L26.1543 -32.5942
L25.9448 -32.793
L25.7347 -32.993
L25.524 -33.194
L25.3127 -33.3963
L25.1006 -33.5996
L24.888 -33.8041
L24.6746 -34.0097
L24.4605 -34.2164
L24.2457 -34.4242
L24.0302 -34.633
L23.8139 -34.8429
L23.5969 -35.0538
L23.3792 -35.2656
L23.1607 -35.4784
L22.9414 -35.6921
L22.7214 -35.9065
L22.5005 -36.1217
L22.2789 -36.3376
L22.0566 -36.5541
L21.8334 -36.7712
L21.6094 -36.9886
L21.3846 -37.2064
L21.1591 -37.4243
L20.9327 -37.6423
L20.7056 -37.8602
L20.4776 -38.0779
L20.2488 -38.2952
L20.0192 -38.5119
L19.7888 -38.7278
L19.5575 -38.9427
L19.3254 -39.1564
L19.0925 -39.3686
L18.8587 -39.5791
L18.624 -39.7876
L18.3885 -39.9937
L18.152 -40.1971
L17.9145 -40.3976
L17.6761 -40.5947
L17.4367 -40.788
L17.1963 -40.9772
L16.9548 -41.1618
L16.7122 -41.3414
L16.4685 -41.5154
L16.2235 -41.6835
L15.9774 -41.8451
L15.73 -41.9997
L15.4813 -42.1467
L15.2313 -42.2857
L14.9799 -42.4161
L14.7272 -42.5373
L14.473 -42.6487
L14.2175 -42.75
L13.9606 -42.8404
L13.7024 -42.9195
L13.4429 -42.9869
L13.1821 -43.0419
L12.9202 -43.0843
L12.6573 -43.1135
L12.3935 -43.1293
L12.129 -43.1312
L11.8639 -43.1191
L11.5984 -43.0927
L11.3328 -43.0518
L11.0674 -42.9963
L10.8024 -42.9261
L10.5381 -42.8412
L10.2747 -42.7417
L10.0127 -42.6275
L9.75234 -42.4989
L9.49396 -42.356
L9.23791 -42.199
L8.98453 -42.0281
L8.73416 -41.8435
L8.48716 -41.6457
L8.24386 -41.4348
L8.0046 -41.2113
L7.85694 -40.9754
L7.78275 -40.4965
L7.71716 -40.0046
L7.66018 -39.5116
L7.61184 -39.0174
L7.57214 -38.5224
L7.5411 -38.0265
L7.51873 -37.5301
L7.50504 -37.0332
L7.50003 -36.536
L7.50369 -36.0386
L7.51604 -35.5412
L7.53707 -35.0439
L7.56676 -34.5469
L7.60512 -34.0504
L7.65212 -33.5545
L7.70776 -33.0593
L7.77202 -32.565
L7.84487 -32.0718
L7.92631 -31.5797
L8.01629 -31.089
L8.1148 -30.5998
L8.2218 -30.1123
L8.33726 -29.6265
L8.46116 -29.1427
L8.59343 -28.6609
L8.73406 -28.1814
L8.88299 -27.7043
L9.04019 -27.2297
L9.20559 -26.7578
L9.37916 -26.2887
L9.56083 -25.8225
L9.75056 -25.3595
L9.94829 -24.8997
L10.1539 -24.4433
L10.3675 -23.9904
L10.5888 -23.5411
L10.8179 -23.0957
L11.0547 -22.6541
L11.299 -22.2167
L11.5509 -21.7834
L11.8102 -21.3545
L12.0769 -20.93
L12.3509 -20.5102
L12.6321 -20.095
L12.9204 -19.6847
L13.2157 -19.2793
L13.518 -18.8791
L13.8271 -18.4841
L14.143 -18.0944
L14.4655 -17.7101
L14.7946 -17.3314
L15.1301 -16.9585
L15.472 -16.5913
L15.8202 -16.23
L16.1745 -15.8748
L16.5349 -15.5256
L16.9011 -15.1827
L17.2732 -14.8462
L17.651 -14.5161
L18.0344 -14.1925
L18.4233 -13.8756
L18.8175 -13.5655
L19.2169 -13.2621
L19.6215 -12.9657
L20.031 -12.6763
L20.4454 -12.394
L20.8646 -12.1189
L21.2884 -11.8511
L21.7166 -11.5906
L22.1492 -11.3376
L22.586 -11.0921
L23.0269 -10.8541
L23.4718 -10.6239
L23.9204 -10.4013
L24.3728 -10.1866
L24.8287 -9.97967
L25.288 -9.78071
L25.7505 -9.58974
L26.2162 -9.40681
L26.6848 -9.23198
L27.1563 -9.0653
L27.6305 -8.90683
L28.1073 -8.75662
L28.5864 -8.6147
L29.0678 -8.48112
L29.5513 -8.35593
L30.0368 -8.23916
L30.5241 -8.13084
L31.013 -8.03101
L31.5035 -7.9397
L31.9954 -7.85694
L32.4884 -7.78275
L32.9826 -7.71716
L33.4776 -7.66018
L33.9735 -7.61184
L34.4699 -7.57214
L34.9668 -7.5411
L35.464 -7.51873
L35.9614 -7.50504
L36.4588 -7.50003
L36.9561 -7.50369
L37.4531 -7.51604
L37.9496 -7.53707
L38.4455 -7.56676
L38.9407 -7.60512
L39.435 -7.65212
L39.9282 -7.70776
L40.4203 -7.77202
L40.911 -7.84487
L41.4002 -7.92631
L41.8877 -8.01629
L42.3735 -8.1148
L42.8573 -8.2218
L43.3391 -8.33726
L43.8186 -8.46116
L44.2957 -8.59343
L44.7703 -8.73406
L45.2422 -8.88299
L45.7113 -9.04019
L46.1775 -9.20559
L46.6405 -9.37916
L47.1003 -9.56083
L47.5567 -9.75056
L48.0096 -9.94829
L48.4589 -10.1539
L48.9043 -10.3675
L49.3459 -10.5888
z
" id="C0_1_4f454f0606"/>
     <path d="
M63.9863 -31.3133
L63.8464 -31.6283
L63.7051 -31.946
L63.5623 -32.2661
L63.4179 -32.5879
L63.2717 -32.9111
L63.1238 -33.2352
L62.9739 -33.5599
L62.8222 -33.8849
L62.6684 -34.2097
L62.5126 -34.5341
L62.3548 -34.8577
L62.195 -35.1804
L62.0331 -35.5019
L61.8692 -35.8219
L61.7033 -36.1403
L61.5354 -36.4569
L61.3656 -36.7714
L61.1938 -37.0839
L61.0201 -37.394
L60.8446 -37.7018
L60.6673 -38.0071
L60.4882 -38.3097
L60.3074 -38.6097
L60.1249 -38.907
L59.9408 -39.2015
L59.7551 -39.4931
L59.5678 -39.7819
L59.3791 -40.0677
L59.189 -40.3506
L58.9974 -40.6306
L58.8045 -40.9075
L58.6103 -41.1816
L58.4148 -41.4526
L58.218 -41.7207
L58.02 -41.9858
L57.8209 -42.248
L57.6206 -42.5073
L57.4192 -42.7636
L57.2167 -43.0171
L57.0131 -43.2678
L56.8085 -43.5156
L56.6029 -43.7607
L56.3962 -44.003
L56.1886 -44.2425
L55.9799 -44.4794
L55.7703 -44.7137
L55.5598 -44.9453
L55.3483 -45.1743
L55.1358 -45.4009
L54.9224 -45.6249
L54.7081 -45.8465
L54.4928 -46.0656
L54.2766 -46.2824
L54.0594 -46.4969
L53.8412 -46.7091
L53.6221 -46.919
L53.402 -47.1267
L53.1809 -47.3322
L52.9589 -47.5356
L52.7358 -47.7369
L52.5117 -47.9361
L52.2865 -48.1333
L52.0603 -48.3285
L51.833 -48.5218
L51.6045 -48.7131
L51.375 -48.9026
L51.1443 -49.0902
L50.9124 -49.2759
L50.6794 -49.4599
L50.4451 -49.6421
L50.2095 -49.8226
L49.9727 -50.0014
L49.7345 -50.1785
L49.4951 -50.354
L49.2542 -50.5278
L49.0119 -50.7
L48.7682 -50.8706
L48.523 -51.0397
L48.2763 -51.2072
L48.0281 -51.3733
L47.7782 -51.5378
L47.5268 -51.7008
L47.2737 -51.8623
L47.0189 -52.0224
L46.7624 -52.181
L46.5041 -52.3382
L46.244 -52.4939
L45.9821 -52.6483
L45.7183 -52.8012
L45.4526 -52.9527
L45.1849 -53.1028
L44.9152 -53.2515
L44.6435 -53.3988
L44.3697 -53.5447
L44.0938 -53.6892
L43.8157 -53.8322
L43.5355 -53.9739
L43.253 -54.1142
L42.9683 -54.253
L42.6814 -54.3904
L42.3921 -54.5263
L42.1004 -54.6608
L41.8064 -54.7938
L41.51 -54.9254
L41.2112 -55.0554
L40.9099 -55.1839
L40.6061 -55.3109
L40.2999 -55.4364
L39.9912 -55.5602
L39.68 -55.6825
L39.3663 -55.8032
L39.05 -55.9222
L38.7313 -56.0396
L38.41 -56.1553
L38.0863 -56.2693
L37.7601 -56.3816
L37.4314 -56.4922
L37.1004 -56.601
L36.7669 -56.708
L36.4311 -56.8133
L36.0931 -56.9167
L35.7528 -57.0184
L35.4104 -57.1182
L35.0659 -57.2161
L34.7194 -57.3123
L34.371 -57.4066
L34.0209 -57.4991
L33.6692 -57.5899
L33.3159 -57.6788
L32.9612 -57.766
L32.6054 -57.8515
L32.2485 -57.9353
L31.8908 -58.0175
L31.5325 -58.0982
L31.1738 -58.1775
L30.8149 -58.2554
L30.456 -58.3321
L30.0976 -58.4076
L29.7398 -58.4822
L29.3829 -58.556
L29.0273 -58.6291
L28.6733 -58.7018
L28.3213 -58.7742
L27.9716 -58.8466
L27.6246 -58.9193
L27.2807 -58.9925
L26.9404 -59.0664
L26.604 -59.1414
L26.2721 -59.2178
L25.9449 -59.2959
L25.623 -59.376
L25.3069 -59.4586
L24.9969 -59.5438
L24.6936 -59.6321
L24.3973 -59.7239
L24.1085 -59.8193
L23.8276 -59.9188
L23.5551 -60.0227
L23.2913 -60.1313
L23.0365 -60.2447
L22.7912 -60.3633
L22.5556 -60.4871
L22.33 -60.6165
L22.492 -60.7515
L22.9321 -61.0955
L23.3761 -61.3274
L23.8239 -61.5517
L24.2755 -61.7681
L24.7307 -61.9767
L25.1892 -62.1773
L25.6511 -62.37
L26.1161 -62.5547
L26.5841 -62.7312
L27.055 -62.8997
L27.5287 -63.0599
L28.0049 -63.2119
L28.4835 -63.3556
L28.9644 -63.491
L29.4475 -63.6179
L29.9326 -63.7365
L30.4195 -63.8467
L30.9081 -63.9483
L31.3983 -64.0414
L31.8898 -64.126
L32.3827 -64.2021
L32.8766 -64.2695
L33.3715 -64.3283
L33.8671 -64.3785
L34.3635 -64.4201
L34.8603 -64.453
L35.3574 -64.4772
L35.8548 -64.4928
L36.3522 -64.4996
L36.8495 -64.4978
L37.3466 -64.4873
L37.8432 -64.4682
L38.3393 -64.4403
L38.8346 -64.4038
L39.3291 -64.3587
L39.8226 -64.3049
L40.3149 -64.2425
L40.8059 -64.1715
L41.2955 -64.0919
L41.7834 -64.0037
L42.2696 -63.907
L42.7538 -63.8018
L43.236 -63.6882
L43.716 -63.5661
L44.1936 -63.4356
L44.6688 -63.2968
L45.1413 -63.1496
L45.611 -62.9942
L46.0778 -62.8305
L46.5415 -62.6587
L47.002 -62.4788
L47.4592 -62.2908
L47.9129 -62.0948
L48.3629 -61.8908
L48.8092 -61.6789
L49.2516 -61.4593
L49.6899 -61.2318
L50.1241 -60.9967
L50.5539 -60.754
L50.9794 -60.5037
L51.4002 -60.246
L51.8164 -59.9809
L52.2278 -59.7085
L52.6342 -59.4288
L53.0356 -59.142
L53.4317 -58.8482
L53.8226 -58.5474
L54.208 -58.2397
L54.5879 -57.9253
L54.9621 -57.6042
L55.3305 -57.2765
L55.6931 -56.9423
L56.0496 -56.6018
L56.4001 -56.2549
L56.7443 -55.9019
L57.0822 -55.5429
L57.4137 -55.1779
L57.7387 -54.807
L58.057 -54.4304
L58.3686 -54.0482
L58.6734 -53.6605
L58.9713 -53.2675
L59.2623 -52.8691
L59.5461 -52.4656
L59.8227 -52.0572
L60.0921 -51.6438
L60.3542 -51.2256
L60.6088 -50.8028
L60.8559 -50.3756
L61.0955 -49.9439
L61.3274 -49.508
L61.5517 -49.0679
L61.7681 -48.6239
L61.9767 -48.1761
L62.1773 -47.7245
L62.37 -47.2693
L62.5547 -46.8108
L62.7312 -46.3489
L62.8997 -45.8839
L63.0599 -45.4159
L63.2119 -44.945
L63.3556 -44.4713
L63.491 -43.9951
L63.6179 -43.5165
L63.7365 -43.0356
L63.8467 -42.5525
L63.9483 -42.0674
L64.0414 -41.5805
L64.126 -41.0919
L64.2021 -40.6017
L64.2695 -40.1102
L64.3283 -39.6173
L64.3785 -39.1234
L64.4201 -38.6285
L64.453 -38.1329
L64.4772 -37.6365
L64.4928 -37.1397
L64.4996 -36.6426
L64.4978 -36.1452
L64.4873 -35.6478
L64.4682 -35.1505
L64.4403 -34.6534
L64.4038 -34.1568
L64.3587 -33.6607
L64.3049 -33.1654
L64.2425 -32.6709
z
" id="C0_2_d70094da09"/>
    </defs>
    <g clip-path="url(#p1bffca34e9)">
     <use style="fill:#ff0000;stroke:#000000;stroke-width:2.0;" x="0.0" xlink:href="#C0_0_a811fe30f3" y="72.0"/>
    </g>
    <g clip-path="url(#p1bffca34e9)">
     <use style="fill:#ffffff;stroke:#000000;stroke-width:2.0;" x="0.0" xlink:href="#C0_1_4f454f0606" y="72.0"/>
    </g>
    <g clip-path="url(#p1bffca34e9)">
     <use style="fill:#ffffff;stroke:#000000;stroke-width:2.0;" x="0.0" xlink:href="#C0_2_d70094da09" y="72.0"/>
    </g>
   </g>
  </g>
 </g>
 <defs>
  <clipPath id="p1bffca34e9">
   <rect height="72.0" width="72.0" x="0.0" y="0.0"/>
  </clipPath>
 </defs>
</svg>
