<?xml version="1.0" encoding="utf-8" standalone="no"?>
<!DOCTYPE svg PUBLIC "-//W3C//DTD SVG 1.1//EN"
  "http://www.w3.org/Graphics/SVG/1.1/DTD/svg11.dtd">
<!-- Created with matplotlib (http://matplotlib.org/) -->
<svg height="72pt" version="1.1" viewBox="0 0 72 72" width="72pt" xmlns="http://www.w3.org/2000/svg" xmlns:xlink="http://www.w3.org/1999/xlink">
 <defs>
  <style type="text/css">
*{stroke-linecap:butt;stroke-linejoin:round;}
  </style>
 </defs>
 <g id="figure_1">
  <g id="patch_1">
   <path d="
M0 72
L72 72
L72 0
L0 0
z
" style="fill:none;"/>
  </g>
  <g id="axes_1">
   <g id="PatchCollection_1">
    <defs>
     <path d="
M36 -7.5
C43.5583 -7.5 50.808 -10.5029 56.1525 -15.8475
C61.4971 -21.192 64.5 -28.4417 64.5 -36
C64.5 -43.5583 61.4971 -50.808 56.1525 -56.1525
C50.808 -61.4971 43.5583 -64.5 36 -64.5
C28.4417 -64.5 21.192 -61.4971 15.8475 -56.1525
C10.5029 -50.808 7.5 -43.5583 7.5 -36
C7.5 -28.4417 10.5029 -21.192 15.8475 -15.8475
C21.192 -10.5029 28.4417 -7.5 36 -7.5
z
" id="C0_0_a811fe30f3"/>
     <path d="
M10.1391 -24.2613
L10.4248 -24.0942
L10.7119 -23.9384
L11.0002 -23.7935
L11.2894 -23.6592
L11.5792 -23.5351
L11.8695 -23.4209
L12.16 -23.3161
L12.4506 -23.2204
L12.7411 -23.1334
L13.0314 -23.0548
L13.3212 -22.9843
L13.6106 -22.9215
L13.8993 -22.8661
L14.1872 -22.8178
L14.4743 -22.7763
L14.7605 -22.7413
L15.0456 -22.7125
L15.3297 -22.6897
L15.6126 -22.6726
L15.8944 -22.661
L16.1749 -22.6546
L16.4541 -22.6533
L16.732 -22.6567
L17.0085 -22.6648
L17.2837 -22.6772
L17.5574 -22.6939
L17.8298 -22.7146
L18.1007 -22.7392
L18.3701 -22.7675
L18.6382 -22.7994
L18.9048 -22.8347
L19.1699 -22.8733
L19.4336 -22.9151
L19.6959 -22.9598
L19.9568 -23.0076
L20.2162 -23.0581
L20.4743 -23.1113
L20.731 -23.1671
L20.9863 -23.2255
L21.2403 -23.2863
L21.493 -23.3494
L21.7443 -23.4148
L21.9944 -23.4824
L22.2433 -23.5521
L22.4909 -23.6239
L22.7374 -23.6977
L22.9826 -23.7735
L23.2268 -23.8512
L23.4698 -23.9307
L23.7118 -24.012
L23.9527 -24.0951
L24.1926 -24.1799
L24.4315 -24.2664
L24.6694 -24.3545
L24.9065 -24.4443
L25.1426 -24.5357
L25.3779 -24.6287
L25.6124 -24.7232
L25.8461 -24.8193
L26.0791 -24.9169
L26.3113 -25.016
L26.5428 -25.1166
L26.7737 -25.2186
L27.004 -25.3222
L27.2336 -25.4272
L27.4627 -25.5337
L27.6913 -25.6416
L27.9194 -25.751
L28.1471 -25.8619
L28.3743 -25.9742
L28.8276 -26.088
L29.0537 -26.2032
L29.2795 -26.32
L29.505 -26.4382
L29.7303 -26.5579
L29.9554 -26.6792
L30.1803 -26.8019
L30.4051 -26.9262
L30.6297 -27.052
L30.8541 -27.1794
L31.0786 -27.3084
L31.3029 -27.439
L31.5272 -27.5712
L31.7515 -27.7051
L31.9759 -27.8406
L32.2002 -27.9778
L32.4246 -28.1167
L32.6491 -28.2574
L32.8736 -28.3998
L33.0982 -28.5441
L33.323 -28.6901
L33.5479 -28.8381
L33.7729 -28.9878
L33.998 -29.1396
L34.2233 -29.2932
L34.4488 -29.4489
L34.6744 -29.6065
L34.9002 -29.7662
L35.1261 -29.928
L35.3522 -30.0919
L35.5784 -30.258
L35.8048 -30.4263
L36.0312 -30.5968
L36.2578 -30.7696
L36.4845 -30.9446
L36.7112 -31.1221
L36.9379 -31.3019
L37.1647 -31.4841
L37.3914 -31.6688
L37.618 -31.856
L37.8445 -32.0458
L38.0709 -32.2381
L38.297 -32.4331
L38.5228 -32.6307
L38.7482 -32.831
L38.9733 -33.0341
L39.1978 -33.2399
L39.4217 -33.4486
L39.6449 -33.6601
L39.8673 -33.8745
L40.0888 -34.0918
L40.3093 -34.3121
L40.5286 -34.5353
L40.7466 -34.7616
L40.9632 -34.9908
L41.1782 -35.2232
L41.3914 -35.4586
L41.6027 -35.6972
L41.8118 -35.9389
L42.0187 -36.1837
L42.223 -36.4317
L42.4246 -36.6829
L42.6231 -36.9372
L42.8185 -37.1947
L43.0103 -37.4554
L43.1984 -37.7192
L43.3825 -37.9863
L43.5622 -38.2564
L43.7373 -38.5297
L43.9074 -38.8061
L44.0723 -39.0856
L44.2316 -39.3681
L44.3849 -39.6536
L44.5319 -39.9421
L44.6723 -40.2334
L44.8057 -40.5275
L44.9318 -40.8244
L45.0501 -41.1239
L45.1603 -41.426
L45.2621 -41.7306
L45.3551 -42.0375
L45.4391 -42.3466
L45.5136 -42.6578
L45.5783 -42.971
L45.6331 -43.2859
L45.6776 -43.6025
L45.7115 -43.9205
L45.7348 -44.2397
L45.7471 -44.56
L45.7484 -44.8811
L45.7385 -45.2028
L45.7175 -45.5248
L45.6851 -45.847
L45.6415 -46.1691
L45.5867 -46.4908
L45.5207 -46.8119
L45.4436 -47.1321
L45.3557 -47.4511
L45.2569 -47.7687
L45.1477 -48.0846
L45.028 -48.3986
L44.8984 -48.7103
L44.7588 -49.0196
L44.6098 -49.3262
L44.4515 -49.6299
L44.2843 -49.9304
L44.1085 -50.2276
L43.9245 -50.5211
L43.7325 -50.8109
L43.5329 -51.0967
L43.326 -51.3784
L43.1122 -51.6557
L42.8918 -51.9286
L42.6652 -52.1969
L42.4326 -52.4605
L42.1943 -52.7192
L41.9508 -52.9731
L41.7022 -53.2219
L41.4489 -53.4656
L41.1912 -53.7041
L40.9292 -53.9374
L40.6634 -54.1654
L40.3939 -54.3881
L40.1211 -54.6054
L39.845 -54.8174
L39.566 -55.0239
L39.2842 -55.2251
L38.9999 -55.4208
L38.7132 -55.6112
L38.4244 -55.7962
L38.1336 -55.9758
L37.8409 -56.15
L37.5466 -56.319
L37.2507 -56.4826
L36.9534 -56.6409
L36.6549 -56.794
L36.3552 -56.9419
L36.0545 -57.0847
L35.7528 -57.2223
L35.4503 -57.3548
L35.1471 -57.4823
L34.8432 -57.6049
L34.5388 -57.7224
L34.2338 -57.8351
L33.9284 -57.9429
L33.6227 -58.0458
L33.3166 -58.1441
L33.0102 -58.2375
L32.7036 -58.3263
L32.3969 -58.4105
L32.0899 -58.4901
L31.7829 -58.5651
L31.4758 -58.6356
L31.1687 -58.7015
L30.8615 -58.7631
L30.5543 -58.8202
L30.2471 -58.873
L29.9399 -58.9214
L29.6328 -58.9655
L29.3257 -59.0053
L29.0186 -59.0408
L28.7117 -59.072
L28.4047 -59.0991
L28.0978 -59.1219
L27.791 -59.1405
L27.4842 -59.1549
L27.1775 -59.1651
L26.8708 -59.1712
L26.5642 -59.1731
L26.2576 -59.1708
L25.951 -59.1643
L25.6445 -59.1537
L25.3379 -59.1389
L25.0314 -59.1199
L24.7248 -59.0967
L24.4182 -59.0693
L24.1116 -59.0377
L23.805 -59.0017
L23.4983 -58.9615
L23.1916 -58.917
L22.8848 -58.8682
L22.5779 -58.8149
L22.2709 -58.7573
L21.9639 -58.6952
L21.6568 -58.6285
L21.3496 -58.5574
L21.0422 -58.4816
L20.7348 -58.4012
L20.4273 -58.3161
L20.1197 -58.2262
L19.812 -58.1315
L19.5042 -58.0318
L19.1964 -57.9272
L18.8884 -57.8176
L18.5805 -57.7028
L18.2724 -57.5828
L17.9644 -57.4575
L17.6564 -57.3268
L17.3484 -57.1907
L17.0405 -57.049
L16.7327 -56.9016
L16.425 -56.7485
L16.0052 -56.5894
L15.6538 -56.3091
L15.3086 -55.957
L14.9697 -55.5989
L14.6372 -55.2348
L14.3113 -54.8648
L13.9919 -54.4891
L13.6792 -54.1078
L13.3733 -53.721
L13.0744 -53.3287
L12.7824 -52.9312
L12.4974 -52.5285
L12.2197 -52.1208
L11.9491 -51.7081
L11.6859 -51.2907
L11.4302 -50.8686
L11.1818 -50.442
L10.9411 -50.011
L10.708 -49.5758
L10.4826 -49.1364
L10.2649 -48.693
L10.0551 -48.2457
L9.85325 -47.7947
L9.65932 -47.3401
L9.47341 -46.882
L9.29559 -46.4207
L9.1259 -45.9561
L8.96439 -45.4886
L8.81112 -45.0181
L8.66613 -44.5449
L8.52947 -44.0691
L8.40118 -43.5908
L8.28129 -43.1102
L8.16985 -42.6275
L8.06688 -42.1427
L7.97243 -41.6561
L7.88651 -41.1677
L7.80915 -40.6778
L7.74038 -40.1864
L7.68022 -39.6938
L7.62868 -39.2
L7.58579 -38.7053
L7.55156 -38.2097
L7.52598 -37.7135
L7.50909 -37.2167
L7.50087 -36.7196
L7.50133 -36.2222
L7.51047 -35.7248
L7.52829 -35.2275
L7.55479 -34.7304
L7.58994 -34.2337
L7.63376 -33.7375
L7.68621 -33.2421
L7.74729 -32.7474
L7.81697 -32.2538
L7.89524 -31.7613
L7.98207 -31.27
L8.07743 -30.7803
L8.1813 -30.2921
L8.29365 -29.8056
L8.41443 -29.3211
L8.54361 -28.8386
L8.68116 -28.3582
L8.82703 -27.8802
L8.98118 -27.4047
L9.14356 -26.9317
L9.31412 -26.4616
L9.49281 -25.9943
L9.67957 -25.5301
z
" id="C0_1_54c86cae7e"/>
     <path d="
M55.8771 -15.5811
L56.0517 -15.8852
L56.2232 -16.1919
L56.3916 -16.5014
L56.5569 -16.8135
L56.7191 -17.1285
L56.8782 -17.4462
L57.0342 -17.7667
L57.1871 -18.09
L57.3369 -18.4162
L57.4836 -18.7452
L57.6272 -19.0771
L57.7676 -19.4118
L57.9048 -19.7495
L58.0389 -20.09
L58.1699 -20.4335
L58.2976 -20.7799
L58.4221 -21.1292
L58.5434 -21.4814
L58.6615 -21.8366
L58.7763 -22.1947
L58.8879 -22.5556
L58.9962 -22.9195
L59.1012 -23.2862
L59.2029 -23.6558
L59.3013 -24.0282
L59.3964 -24.4035
L59.4881 -24.7814
L59.5766 -25.1621
L59.6617 -25.5455
L59.7434 -25.9315
L59.8219 -26.32
L59.8971 -26.711
L59.969 -27.1045
L60.0376 -27.5003
L60.1031 -27.8983
L60.1653 -28.2985
L60.2244 -28.7008
L60.2804 -29.105
L60.3334 -29.5111
L60.3835 -29.9189
L60.4306 -30.3283
L60.475 -30.7391
L60.5167 -31.1513
L60.5559 -31.5646
L60.5926 -31.9789
L60.627 -32.394
L60.6593 -32.8098
L60.6895 -33.2261
L60.7179 -33.6428
L60.7447 -34.0595
L60.77 -34.4762
L60.794 -34.8927
L60.817 -35.3087
L60.8392 -35.724
L60.8607 -36.1386
L60.8819 -36.5521
L60.9029 -36.9645
L60.9239 -37.3754
L60.9453 -37.7848
L60.9671 -38.1924
L60.9897 -38.5981
L61.0132 -39.0017
L61.0378 -39.4031
L61.0638 -39.8021
L61.0911 -40.1986
L61.1201 -40.5924
L61.1507 -40.9835
L61.1832 -41.3718
L61.2175 -41.7571
L61.2537 -42.1394
L61.2918 -42.5187
L61.3319 -42.8948
L61.3739 -43.2677
L61.4177 -43.6374
L61.4632 -44.0039
L61.5104 -44.3671
L61.5592 -44.727
L61.6094 -45.0837
L61.6608 -45.4371
L61.7134 -45.7873
L61.7669 -46.1342
L61.8211 -46.4779
L61.8759 -46.8184
L61.9312 -47.1557
L62.263 -47.4898
L62.4522 -47.0682
L62.6333 -46.6082
L62.8063 -46.1449
L62.9711 -45.6786
L63.1277 -45.2092
L63.2761 -44.7371
L63.4161 -44.2624
L63.5478 -43.7851
L63.6711 -43.3054
L63.786 -42.8235
L63.8924 -42.3395
L63.9903 -41.8537
L64.0797 -41.366
L64.1605 -40.8767
L64.2328 -40.3859
L64.2964 -39.8937
L64.3515 -39.4004
L64.3979 -38.906
L64.4356 -38.4108
L64.4647 -37.9148
L64.4851 -37.4183
L64.4968 -36.9213
L64.4999 -36.424
L64.4943 -35.9266
L64.48 -35.4292
L64.457 -34.932
L64.4254 -34.4351
L64.3851 -33.9387
L64.3361 -33.4429
L64.2785 -32.9479
L64.2123 -32.4539
L64.1375 -31.9609
L64.0542 -31.4691
L63.9623 -30.9787
L63.8618 -30.4899
L63.7529 -30.0027
L63.6356 -29.5174
L63.5098 -29.034
L63.3756 -28.5528
L63.2331 -28.0738
L63.0823 -27.5972
L62.9233 -27.1232
L62.756 -26.6519
L62.5806 -26.1835
L62.3971 -25.718
L62.2056 -25.2557
L62.0061 -24.7966
L61.7987 -24.341
L61.5834 -23.8889
L61.3603 -23.4405
L61.1295 -22.9959
L60.891 -22.5553
L60.6449 -22.1188
L60.3914 -21.6865
L60.1304 -21.2585
L59.862 -20.8351
L59.5864 -20.4163
L59.3036 -20.0022
L59.0138 -19.593
L58.7169 -19.1888
L58.413 -18.7897
L58.1024 -18.3959
L57.785 -18.0074
L57.461 -17.6244
L57.1304 -17.247
L56.7934 -16.8753
L56.4501 -16.5094
z
" id="C0_2_89422b313a"/>
    </defs>
    <g clip-path="url(#p1bffca34e9)">
     <use style="fill:#ffffff;stroke:#000000;stroke-width:2.0;" x="0.0" xlink:href="#C0_0_a811fe30f3" y="72.0"/>
    </g>
    <g clip-path="url(#p1bffca34e9)">
     <use style="fill:#ff0000;stroke:#000000;stroke-width:2.0;" x="0.0" xlink:href="#C0_1_54c86cae7e" y="72.0"/>
    </g>
    <g clip-path="url(#p1bffca34e9)">
     <use style="fill:#ff0000;stroke:#000000;stroke-width:2.0;" x="0.0" xlink:href="#C0_2_89422b313a" y="72.0"/>
    </g>
   </g>
  </g>
 </g>
 <defs>
  <clipPath id="p1bffca34e9">
   <rect height="72.0" width="72.0" x="0.0" y="0.0"/>
  </clipPath>
 </defs>
</svg>
