<?xml version="1.0" encoding="utf-8" standalone="no"?>
<!DOCTYPE svg PUBLIC "-//W3C//DTD SVG 1.1//EN"
  "http://www.w3.org/Graphics/SVG/1.1/DTD/svg11.dtd">
<!-- Created with matplotlib (http://matplotlib.org/) -->
<svg height="72pt" version="1.1" viewBox="0 0 72 72" width="72pt" xmlns="http://www.w3.org/2000/svg" xmlns:xlink="http://www.w3.org/1999/xlink">
 <defs>
  <style type="text/css">
*{stroke-linecap:butt;stroke-linejoin:round;}
  </style>
 </defs>
 <g id="figure_1">
  <g id="patch_1">
   <path d="
M0 72
L72 72
L72 0
L0 0
z
" style="fill:none;"/>
  </g>
  <g id="axes_1">
   <g id="PatchCollection_1">
    <defs>
     <path d="
M36 -7.5
C43.5583 -7.5 50.808 -10.5029 56.1525 -15.8475
C61.4971 -21.192 64.5 -28.4417 64.5 -36
C64.5 -43.5583 61.4971 -50.808 56.1525 -56.1525
C50.808 -61.4971 43.5583 -64.5 36 -64.5
C28.4417 -64.5 21.192 -61.4971 15.8475 -56.1525
C10.5029 -50.808 7.5 -43.5583 7.5 -36
C7.5 -28.4417 10.5029 -21.192 15.8475 -15.8475
C21.192 -10.5029 28.4417 -7.5 36 -7.5
z
" id="C0_0_a811fe30f3"/>
     <path d="
M9.52018 -46.1141
L9.79427 -46.1989
L10.0647 -46.2552
L10.331 -46.2833
L10.593 -46.2842
L10.8508 -46.2587
L11.1042 -46.2081
L11.3535 -46.1338
L11.5989 -46.0374
L11.8408 -45.9205
L12.0794 -45.7847
L12.3152 -45.6318
L12.5486 -45.4635
L12.7798 -45.2812
L13.0093 -45.0867
L13.2375 -44.8812
L13.4645 -44.6662
L13.6907 -44.4429
L13.9162 -44.2124
L14.1414 -43.9758
L14.3662 -43.7341
L14.591 -43.4881
L14.8157 -43.2385
L15.0404 -42.9862
L15.2652 -42.7317
L15.4901 -42.4756
L15.7152 -42.2184
L15.9404 -41.9606
L16.1658 -41.7025
L16.3913 -41.4446
L16.6168 -41.1872
L16.8424 -40.9305
L17.068 -40.6748
L17.2936 -40.4203
L17.5191 -40.1673
L17.7445 -39.9158
L17.9698 -39.666
L18.1948 -39.4182
L18.4196 -39.1722
L18.6442 -38.9284
L18.8684 -38.6866
L19.0922 -38.4471
L19.3156 -38.2098
L19.5386 -37.9748
L19.7611 -37.7422
L19.9832 -37.5119
L20.2047 -37.2839
L20.4257 -37.0583
L20.6462 -36.8351
L20.8661 -36.6142
L21.0854 -36.3956
L21.3042 -36.1794
L21.5223 -35.9655
L21.7398 -35.7539
L21.9568 -35.5446
L22.1731 -35.3375
L22.3889 -35.1325
L22.6041 -34.9298
L22.8187 -34.7291
L23.0327 -34.5306
L23.2462 -34.3341
L23.4592 -34.1396
L23.6716 -33.947
L23.8835 -33.7564
L24.095 -33.5677
L24.3059 -33.3808
L24.5165 -33.1957
L24.7266 -33.0124
L24.9363 -32.8307
L25.1457 -32.6507
L25.3547 -32.4724
L25.5635 -32.2956
L25.7719 -32.1203
L25.9801 -31.9465
L26.1881 -31.7741
L26.396 -31.6031
L26.6036 -31.4335
L26.8112 -31.2652
L27.0187 -31.0982
L27.2261 -30.9324
L27.4336 -30.7678
L27.6411 -30.6043
L27.8487 -30.4419
L28.0563 -30.2806
L28.2642 -30.1203
L28.4722 -29.961
L28.6805 -29.8026
L28.889 -29.6452
L29.0979 -29.4886
L29.3071 -29.3329
L29.5168 -29.178
L29.9375 -29.0238
L30.1486 -28.8704
L30.3603 -28.7177
L30.5727 -28.5657
L30.7857 -28.4143
L30.9995 -28.2635
L31.214 -28.1132
L31.4294 -27.9635
L31.6456 -27.8144
L31.8627 -27.6657
L32.0808 -27.5175
L32.3 -27.3697
L32.5202 -27.2223
L32.7415 -27.0753
L32.964 -26.9286
L33.1877 -26.7823
L33.4126 -26.6363
L33.6389 -26.4906
L33.8666 -26.3451
L34.0957 -26.1999
L34.3262 -26.0548
L34.5583 -25.91
L34.792 -25.7654
L35.0273 -25.621
L35.2643 -25.4766
L35.5031 -25.3325
L35.7436 -25.1884
L35.986 -25.0445
L36.2302 -24.9006
L36.4764 -24.7568
L36.7246 -24.6131
L36.9748 -24.4695
L37.2271 -24.3259
L37.4816 -24.1824
L37.7382 -24.0389
L37.997 -23.8955
L38.2581 -23.7521
L38.5215 -23.6088
L38.7872 -23.4655
L39.0553 -23.3222
L39.3257 -23.179
L39.5986 -23.0359
L39.874 -22.8928
L40.1518 -22.7498
L40.4321 -22.6069
L40.7149 -22.464
L41.0001 -22.3213
L41.2879 -22.1787
L41.5781 -22.0362
L41.8708 -21.8939
L42.1659 -21.7517
L42.4634 -21.6097
L42.7632 -21.4679
L43.0653 -21.3263
L43.3697 -21.1849
L43.6762 -21.0438
L43.9847 -20.9029
L44.2951 -20.7623
L44.6074 -20.6219
L44.9212 -20.4818
L45.2366 -20.342
L45.5532 -20.2024
L45.8708 -20.0631
L46.1893 -19.9239
L46.5083 -19.7849
L46.8275 -19.646
L47.1466 -19.5072
L47.4651 -19.3683
L47.7827 -19.2292
L48.0989 -19.0899
L48.4132 -18.95
L48.7249 -18.8095
L49.0335 -18.6681
L49.3382 -18.5255
L49.6383 -18.3814
L49.9329 -18.2355
L50.2211 -18.0873
L50.5019 -17.9363
L50.7743 -17.782
L51.037 -17.6238
L51.2888 -17.4611
L51.5284 -17.2931
L51.7545 -17.119
L51.9655 -16.9381
L52.1602 -16.7495
L52.3369 -16.5525
L52.4944 -16.3461
L52.6312 -16.1297
L52.7461 -15.9026
L52.8381 -15.6642
L52.9062 -15.4142
L52.9497 -15.1523
L52.9681 -14.8785
L52.9611 -14.593
L52.9286 -14.2962
L52.8708 -13.9887
L52.7879 -13.6712
L52.6805 -13.3446
L52.3318 -13.01
L51.9217 -12.6436
L51.5068 -12.3621
L51.0871 -12.0879
L50.6628 -11.8209
L50.2341 -11.5613
L49.801 -11.3091
L49.3637 -11.0644
L48.9223 -10.8274
L48.477 -10.598
L48.0279 -10.3763
L47.5752 -10.1625
L47.1189 -9.95647
L46.6592 -9.75842
L46.1963 -9.56837
L45.7303 -9.38636
L45.2613 -9.21247
L44.7895 -9.04673
L44.315 -8.88921
L43.838 -8.73994
L43.3586 -8.59897
L42.8769 -8.46635
L42.3932 -8.34212
L41.9075 -8.22632
L41.42 -8.11897
L40.9308 -8.02012
L40.4402 -7.92979
L39.9482 -7.84801
L39.455 -7.7748
L38.9607 -7.7102
L38.4656 -7.65421
L37.9697 -7.60685
L37.4732 -7.56815
L36.9762 -7.5381
L36.479 -7.51672
L35.9816 -7.50403
L35.4842 -7.50001
L34.987 -7.50467
L34.49 -7.51801
L33.9936 -7.54003
L33.4977 -7.57071
L33.0026 -7.61006
L32.5084 -7.65806
L32.0153 -7.71468
L31.5234 -7.77993
L31.0329 -7.85377
L30.5439 -7.93618
L30.0565 -8.02714
L29.571 -8.12663
L29.0874 -8.2346
L28.6059 -8.35103
L28.1266 -8.47589
L27.6498 -8.60912
L27.1755 -8.7507
L26.7039 -8.90058
L26.2351 -9.05872
L25.7693 -9.22506
L25.3066 -9.39956
L24.8472 -9.58216
L24.3912 -9.77281
L23.9387 -9.97145
L23.4899 -10.178
L23.0449 -10.3924
L22.6038 -10.6147
L22.1668 -10.8446
L21.7341 -11.0823
L21.3056 -11.3275
L20.8817 -11.5802
L20.4623 -11.8404
L20.0477 -12.1079
L19.638 -12.3827
L19.2332 -12.6647
L18.8336 -12.9538
L18.4391 -13.25
L18.0501 -13.553
L17.6665 -13.8629
L17.2884 -14.1796
L16.9161 -14.5029
L16.5496 -14.8327
L16.189 -15.169
L15.8344 -15.5116
L15.486 -15.8605
L15.1439 -16.2155
L14.8081 -16.5765
L14.4787 -16.9435
L14.1559 -17.3162
L13.8398 -17.6947
L13.5304 -18.0787
L13.2278 -18.4682
L12.9322 -18.863
L12.6436 -19.263
L12.3621 -19.6682
L12.0879 -20.0783
L11.8209 -20.4932
L11.5613 -20.9129
L11.3091 -21.3372
L11.0644 -21.7659
L10.8274 -22.199
L10.598 -22.6363
L10.3763 -23.0777
L10.1625 -23.523
L9.95647 -23.9721
L9.75842 -24.4248
L9.56837 -24.8811
L9.38636 -25.3408
L9.21247 -25.8037
L9.04673 -26.2697
L8.88921 -26.7387
L8.73994 -27.2105
L8.59897 -27.685
L8.46635 -28.162
L8.34212 -28.6414
L8.22632 -29.1231
L8.11897 -29.6068
L8.02012 -30.0925
L7.92979 -30.58
L7.84801 -31.0692
L7.7748 -31.5598
L7.7102 -32.0518
L7.65421 -32.545
L7.60685 -33.0393
L7.56815 -33.5344
L7.5381 -34.0303
L7.51672 -34.5268
L7.50403 -35.0238
L7.50001 -35.521
L7.50467 -36.0184
L7.51801 -36.5158
L7.54003 -37.013
L7.57071 -37.51
L7.61006 -38.0064
L7.65806 -38.5023
L7.71468 -38.9974
L7.77993 -39.4916
L7.85377 -39.9847
L7.93618 -40.4766
L8.02714 -40.9671
L8.12663 -41.4561
L8.2346 -41.9435
L8.35103 -42.429
L8.47589 -42.9126
L8.60912 -43.3941
L8.7507 -43.8734
L8.90058 -44.3502
L9.05872 -44.8245
z
" id="C0_1_b32534cb30"/>
     <path d="
M19.5724 -59.1601
L19.9494 -59.1819
L20.3368 -59.2091
L20.7334 -59.2406
L21.1381 -59.275
L21.5498 -59.3112
L21.9675 -59.3481
L22.3904 -59.3849
L22.8174 -59.4207
L23.2479 -59.4548
L23.6809 -59.4866
L24.1159 -59.5155
L24.5521 -59.5411
L24.9889 -59.563
L25.4258 -59.5809
L25.8623 -59.5946
L26.2979 -59.6038
L26.7322 -59.6085
L27.1648 -59.6085
L27.5954 -59.6037
L28.0237 -59.5942
L28.4493 -59.5799
L28.8721 -59.5609
L29.2918 -59.5371
L29.7082 -59.5087
L30.1211 -59.4757
L30.5305 -59.4381
L30.9361 -59.3961
L31.3379 -59.3498
L31.7358 -59.2993
L32.1297 -59.2446
L32.5196 -59.186
L32.9053 -59.1234
L33.287 -59.057
L33.6644 -58.987
L34.0378 -58.9134
L34.4069 -58.8364
L34.7719 -58.756
L35.1328 -58.6723
L35.4896 -58.5855
L35.8422 -58.4957
L36.1909 -58.4029
L36.5355 -58.3073
L36.8762 -58.2089
L37.2129 -58.1078
L37.5459 -58.0041
L37.875 -57.898
L38.2003 -57.7893
L38.522 -57.6783
L38.8401 -57.5649
L39.1546 -57.4493
L39.4657 -57.3316
L39.7733 -57.2116
L40.0776 -57.0896
L40.3786 -56.9655
L40.6764 -56.8394
L40.9711 -56.7114
L41.2627 -56.5814
L41.5513 -56.4495
L41.837 -56.3158
L42.1199 -56.1802
L42.3999 -56.0428
L42.6773 -55.9035
L42.952 -55.7625
L43.2241 -55.6197
L43.4937 -55.4752
L43.7608 -55.3289
L44.0256 -55.1808
L44.2881 -55.031
L44.5483 -54.8795
L44.8063 -54.7262
L45.0622 -54.5711
L45.316 -54.4143
L45.5678 -54.2557
L45.8177 -54.0953
L46.0657 -53.9331
L46.3118 -53.7691
L46.5561 -53.6033
L46.7987 -53.4356
L47.0396 -53.266
L47.2788 -53.0946
L47.5165 -52.9211
L47.7527 -52.7458
L47.9873 -52.5684
L48.2205 -52.389
L48.4523 -52.2075
L48.6827 -52.024
L48.9118 -51.8383
L49.1396 -51.6504
L49.3661 -51.4603
L49.5914 -51.2679
L49.8155 -51.0732
L50.0385 -50.8762
L50.2603 -50.6767
L50.4811 -50.4748
L50.7007 -50.2704
L50.9193 -50.0634
L51.1369 -49.8537
L51.3535 -49.6414
L51.569 -49.4263
L51.7836 -49.2084
L51.9973 -48.9876
L52.21 -48.7639
L52.4217 -48.5371
L52.6325 -48.3073
L52.8423 -48.0744
L53.0513 -47.8382
L53.2592 -47.5987
L53.4663 -47.3559
L53.6724 -47.1096
L53.8775 -46.8598
L54.0816 -46.6065
L54.2848 -46.3494
L54.4869 -46.0886
L54.688 -45.824
L54.888 -45.5555
L55.087 -45.283
L55.2848 -45.0065
L55.4814 -44.7258
L55.6768 -44.4409
L55.8709 -44.1517
L56.0637 -43.8582
L56.2551 -43.5602
L56.4451 -43.2578
L56.6335 -42.9507
L56.8204 -42.6391
L57.0056 -42.3228
L57.1891 -42.0017
L57.3708 -41.6759
L57.5506 -41.3452
L57.7284 -41.0097
L57.9041 -40.6693
L58.0776 -40.3239
L58.2488 -39.9737
L58.4175 -39.6185
L58.5838 -39.2585
L58.7474 -38.8935
L58.9083 -38.5238
L59.0664 -38.1492
L59.2214 -37.77
L59.3734 -37.3862
L59.5222 -36.9978
L59.6677 -36.6052
L59.8099 -36.2084
L59.9485 -35.8076
L60.0836 -35.403
L60.2151 -34.995
L60.3429 -34.5838
L60.4671 -34.1698
L60.5876 -33.7533
L60.7044 -33.3348
L60.8176 -32.9147
L60.9273 -32.4937
L61.0337 -32.0723
L61.1368 -31.6511
L61.2371 -31.231
L61.3347 -30.8127
L61.43 -30.397
L61.5235 -29.9851
L61.6158 -29.5778
L61.7073 -29.1764
L61.7988 -28.7821
L61.8911 -28.3961
L61.985 -28.0197
L62.0813 -27.6545
L62.1812 -27.3017
L62.2855 -26.963
L62.3953 -26.6397
L62.5116 -26.3333
L62.8664 -26.045
L63.0283 -26.4896
L63.1819 -26.96
L63.3273 -27.433
L63.4644 -27.9087
L63.593 -28.3869
L63.7133 -28.8674
L63.8252 -29.35
L63.9285 -29.8347
L64.0234 -30.3213
L64.1097 -30.8096
L64.1874 -31.2994
L64.2566 -31.7907
L64.3172 -32.2833
L64.3691 -32.777
L64.4124 -33.2717
L64.447 -33.7672
L64.473 -34.2634
L64.4903 -34.7602
L64.4989 -35.2573
L64.4989 -35.7546
L64.4901 -36.252
L64.4727 -36.7494
L64.4466 -37.2465
L64.4119 -37.7432
L64.3685 -38.2394
L64.3164 -38.7349
L64.2557 -39.2296
L64.1865 -39.7233
L64.1086 -40.2159
L64.0222 -40.7071
L63.9272 -41.197
L63.8237 -41.6852
L63.7118 -42.1718
L63.5914 -42.6564
L63.4626 -43.139
L63.3254 -43.6195
L63.1799 -44.0976
L63.0262 -44.5733
L62.8642 -45.0463
L62.694 -45.5166
L62.5157 -45.984
L62.3293 -46.4484
L62.1349 -46.9095
L61.9325 -47.3674
L61.7223 -47.8218
L61.5041 -48.2726
L61.2783 -48.7196
L61.0447 -49.1628
L60.8035 -49.6019
L60.5547 -50.037
L60.2985 -50.4677
L60.0349 -50.894
L59.7639 -51.3158
L59.4857 -51.733
L59.2004 -52.1453
L58.9079 -52.5527
L58.6085 -52.9551
L58.3023 -53.3523
L57.9892 -53.7443
L57.6694 -54.1308
L57.343 -54.5118
L57.0102 -54.8872
L56.6709 -55.2568
L56.3253 -55.6205
L55.9735 -55.9783
L55.6157 -56.33
L55.2519 -56.6755
L54.8822 -57.0146
L54.5067 -57.3474
L54.1257 -57.6737
L53.7391 -57.9934
L53.3471 -58.3064
L52.9498 -58.6126
L52.5473 -58.9119
L52.1398 -59.2042
L51.7274 -59.4895
L51.3102 -59.7676
L50.8884 -60.0384
L50.462 -60.302
L50.0312 -60.5581
L49.5961 -60.8068
L49.1569 -61.0479
L48.7137 -61.2813
L48.2666 -61.5071
L47.8157 -61.7251
L47.3613 -61.9353
L46.9034 -62.1375
L46.4422 -62.3318
L45.9778 -62.5181
L45.5104 -62.6963
L45.04 -62.8664
L44.567 -63.0283
L44.0913 -63.1819
L43.6131 -63.3273
L43.1326 -63.4644
L42.65 -63.593
L42.1653 -63.7133
L41.6787 -63.8252
L41.1904 -63.9285
L40.7006 -64.0234
L40.2093 -64.1097
L39.7167 -64.1874
L39.223 -64.2566
L38.7283 -64.3172
L38.2328 -64.3691
L37.7366 -64.4124
L37.2398 -64.447
L36.7427 -64.473
L36.2454 -64.4903
L35.748 -64.4989
L35.2506 -64.4989
L34.7535 -64.4901
L34.2568 -64.4727
L33.7606 -64.4466
L33.2651 -64.4119
L32.7704 -64.3685
L32.2767 -64.3164
L31.7841 -64.2557
L31.2929 -64.1865
L30.803 -64.1086
L30.3148 -64.0222
L29.8282 -63.9272
L29.3436 -63.8237
L28.861 -63.7118
L28.3805 -63.5914
L27.9024 -63.4626
L27.4267 -63.3254
L26.9537 -63.1799
L26.4834 -63.0262
L26.016 -62.8642
L25.5516 -62.694
L25.0905 -62.5157
L24.6326 -62.3293
L24.1782 -62.1349
L23.7274 -61.9325
L23.2804 -61.7223
L22.8372 -61.5041
L22.3981 -61.2783
L21.963 -61.0447
L21.5323 -60.8035
L21.106 -60.5547
L20.6842 -60.2985
L20.267 -60.0349
z
" id="C0_2_95a0044eea"/>
    </defs>
    <g clip-path="url(#p1bffca34e9)">
     <use style="fill:#ff0000;stroke:#000000;stroke-width:2.0;" x="0.0" xlink:href="#C0_0_a811fe30f3" y="72.0"/>
    </g>
    <g clip-path="url(#p1bffca34e9)">
     <use style="fill:#ffffff;stroke:#000000;stroke-width:2.0;" x="0.0" xlink:href="#C0_1_b32534cb30" y="72.0"/>
    </g>
    <g clip-path="url(#p1bffca34e9)">
     <use style="fill:#ffffff;stroke:#000000;stroke-width:2.0;" x="0.0" xlink:href="#C0_2_95a0044eea" y="72.0"/>
    </g>
   </g>
  </g>
 </g>
 <defs>
  <clipPath id="p1bffca34e9">
   <rect height="72.0" width="72.0" x="0.0" y="0.0"/>
  </clipPath>
 </defs>
</svg>
