<?xml version="1.0" encoding="utf-8" standalone="no"?>
<!DOCTYPE svg PUBLIC "-//W3C//DTD SVG 1.1//EN"
  "http://www.w3.org/Graphics/SVG/1.1/DTD/svg11.dtd">
<!-- Created with matplotlib (http://matplotlib.org/) -->
<svg height="72pt" version="1.1" viewBox="0 0 72 72" width="72pt" xmlns="http://www.w3.org/2000/svg" xmlns:xlink="http://www.w3.org/1999/xlink">
 <defs>
  <style type="text/css">
*{stroke-linecap:butt;stroke-linejoin:round;}
  </style>
 </defs>
 <g id="figure_1">
  <g id="patch_1">
   <path d="
M0 72
L72 72
L72 0
L0 0
z
" style="fill:none;"/>
  </g>
  <g id="axes_1">
   <g id="PatchCollection_1">
    <defs>
     <path d="
M36 -7.5
C43.5583 -7.5 50.808 -10.5029 56.1525 -15.8475
C61.4971 -21.192 64.5 -28.4417 64.5 -36
C64.5 -43.5583 61.4971 -50.808 56.1525 -56.1525
C50.808 -61.4971 43.5583 -64.5 36 -64.5
C28.4417 -64.5 21.192 -61.4971 15.8475 -56.1525
C10.5029 -50.808 7.5 -43.5583 7.5 -36
C7.5 -28.4417 10.5029 -21.192 15.8475 -15.8475
C21.192 -10.5029 28.4417 -7.5 36 -7.5
z
" id="C0_0_a811fe30f3"/>
     <path d="
M64.0427 -32.5462
L63.7869 -32.5283
L63.5308 -32.5144
L63.2745 -32.5041
L63.0182 -32.4973
L62.762 -32.4937
L62.5059 -32.493
L62.25 -32.495
L61.9945 -32.4995
L61.7393 -32.5063
L61.4845 -32.5153
L61.2302 -32.5263
L60.9765 -32.5392
L60.7233 -32.5538
L60.4708 -32.57
L60.2189 -32.5878
L59.9677 -32.6069
L59.7172 -32.6273
L59.4674 -32.649
L59.2184 -32.6718
L58.9701 -32.6956
L58.7226 -32.7205
L58.4758 -32.7463
L58.2298 -32.7729
L57.9845 -32.8004
L57.74 -32.8287
L57.4963 -32.8577
L57.2532 -32.8874
L57.0109 -32.9177
L56.7693 -32.9487
L56.5283 -32.9802
L56.2881 -33.0123
L56.0484 -33.0449
L55.8094 -33.078
L55.571 -33.1116
L55.3331 -33.1457
L55.0958 -33.1802
L54.8589 -33.2151
L54.6226 -33.2504
L54.3866 -33.2862
L54.1511 -33.3223
L53.916 -33.3588
L53.6812 -33.3957
L53.4467 -33.4329
L53.2124 -33.4705
L52.9784 -33.5084
L52.7445 -33.5466
L52.5108 -33.5852
L52.2772 -33.6242
L52.0436 -33.6635
L51.8101 -33.7031
L51.5765 -33.743
L51.3429 -33.7833
L51.1091 -33.8239
L50.8752 -33.8648
L50.6411 -33.9061
L50.4067 -33.9478
L50.172 -33.9897
L49.937 -34.0321
L49.4658 -34.0748
L49.2295 -34.1178
L48.9926 -34.1612
L48.7551 -34.205
L48.5171 -34.2492
L48.2783 -34.2938
L48.0388 -34.3388
L47.7985 -34.3842
L47.5574 -34.43
L47.3154 -34.4762
L47.0724 -34.5229
L46.8285 -34.5701
L46.5835 -34.6177
L46.3374 -34.6658
L46.0902 -34.7144
L45.8418 -34.7634
L45.5921 -34.813
L45.3411 -34.8632
L45.0888 -34.9138
L44.8351 -34.9651
L44.5799 -35.0169
L44.3231 -35.0693
L44.0648 -35.1224
L43.8049 -35.176
L43.5434 -35.2304
L43.2801 -35.2854
L43.015 -35.341
L42.7481 -35.3974
L42.4793 -35.4546
L42.2087 -35.5124
L41.936 -35.5711
L41.6613 -35.6306
L41.3846 -35.6909
L41.1058 -35.752
L40.8248 -35.814
L40.5417 -35.8769
L40.2564 -35.9408
L39.9688 -36.0056
L39.6789 -36.0715
L39.3867 -36.1383
L39.0921 -36.2062
L38.7953 -36.2752
L38.496 -36.3453
L38.1943 -36.4167
L37.8903 -36.4892
L37.5839 -36.5629
L37.275 -36.638
L36.9638 -36.7144
L36.6503 -36.7921
L36.3344 -36.8713
L36.0162 -36.952
L35.6957 -37.0342
L35.373 -37.118
L35.0482 -37.2035
L34.7213 -37.2907
L34.3924 -37.3797
L34.0617 -37.4706
L33.7292 -37.5634
L33.395 -37.6582
L33.0594 -37.7552
L32.7224 -37.8543
L32.3843 -37.9558
L32.0453 -38.0597
L31.7056 -38.1662
L31.3655 -38.2753
L31.0251 -38.3873
L30.685 -38.5023
L30.3453 -38.6204
L30.0064 -38.7418
L29.6688 -38.8667
L29.3328 -38.9954
L28.999 -39.128
L28.6678 -39.2648
L28.3398 -39.4061
L28.0156 -39.5522
L27.6958 -39.7034
L27.381 -39.86
L27.0721 -40.0223
L26.7696 -40.1908
L26.4745 -40.3658
L26.1874 -40.5477
L25.9093 -40.737
L25.6409 -40.934
L25.3831 -41.1391
L25.1367 -41.3528
L24.9026 -41.5755
L24.6815 -41.8073
L24.4741 -42.0487
L24.2811 -42.2998
L24.1029 -42.5608
L23.9401 -42.8317
L23.7929 -43.1124
L23.6617 -43.4028
L23.5464 -43.7026
L23.4472 -44.0116
L23.3638 -44.3292
L23.2961 -44.6549
L23.2438 -44.9882
L23.2066 -45.3283
L23.1839 -45.6746
L23.1753 -46.0264
L23.1803 -46.3829
L23.1984 -46.7434
L23.2291 -47.1072
L23.2717 -47.4735
L23.3258 -47.8416
L23.3908 -48.211
L23.4662 -48.581
L23.5515 -48.951
L23.6462 -49.3204
L23.7498 -49.6888
L23.8619 -50.0556
L23.982 -50.4205
L24.1097 -50.783
L24.2447 -51.1428
L24.3864 -51.4995
L24.5347 -51.8528
L24.6891 -52.2026
L24.8493 -52.5485
L25.0151 -52.8903
L25.186 -53.2279
L25.3619 -53.5611
L25.5424 -53.8896
L25.7274 -54.2136
L25.9166 -54.5327
L26.1097 -54.847
L26.3066 -55.1563
L26.507 -55.4606
L26.7109 -55.76
L26.9179 -56.0542
L27.128 -56.3434
L27.341 -56.6274
L27.5567 -56.9064
L27.775 -57.1803
L27.9958 -57.4491
L28.2189 -57.7128
L28.4443 -57.9716
L28.6719 -58.2253
L28.9015 -58.4741
L29.1331 -58.7179
L29.3666 -58.9569
L29.602 -59.1911
L29.8391 -59.4205
L30.0778 -59.6451
L30.3183 -59.8651
L30.5603 -60.0804
L30.8039 -60.2912
L31.049 -60.4974
L31.2956 -60.6992
L31.5437 -60.8965
L31.7931 -61.0895
L32.0441 -61.2781
L32.2964 -61.4625
L32.5501 -61.6427
L32.8051 -61.8187
L33.0616 -61.9906
L33.3195 -62.1584
L33.5787 -62.3222
L33.8393 -62.4819
L34.1014 -62.6377
L34.3648 -62.7896
L34.6297 -62.9376
L34.8961 -63.0818
L35.1639 -63.2221
L35.4332 -63.3586
L35.7041 -63.4914
L35.9765 -63.6204
L36.2505 -63.7457
L36.5261 -63.8672
L36.8034 -63.985
L37.0824 -64.0992
L37.3632 -64.2096
L37.6457 -64.3164
L38.1439 -64.4194
L38.6396 -64.4192
L39.1344 -64.3775
L39.6283 -64.3271
L40.1211 -64.2681
L40.6127 -64.2005
L41.1028 -64.1242
L41.5914 -64.0395
L42.0783 -63.9461
L42.5633 -63.8443
L43.0463 -63.734
L43.5272 -63.6152
L44.0058 -63.488
L44.4819 -63.3525
L44.9555 -63.2086
L45.4263 -63.0564
L45.8943 -62.896
L46.3592 -62.7274
L46.821 -62.5506
L47.2795 -62.3658
L47.7346 -62.1729
L48.1861 -61.9721
L48.6339 -61.7633
L49.0778 -61.5467
L49.5177 -61.3224
L49.9536 -61.0903
L50.3851 -60.8505
L50.8123 -60.6032
L51.235 -60.3484
L51.653 -60.0862
L52.0663 -59.8166
L52.4747 -59.5398
L52.8781 -59.2558
L53.2763 -58.9648
L53.6692 -58.6667
L54.0568 -58.3618
L54.4389 -58.05
L54.8153 -57.7315
L55.1861 -57.4064
L55.551 -57.0747
L55.9099 -56.7367
L56.2627 -56.3923
L56.6094 -56.0417
L56.9498 -55.685
L57.2839 -55.3224
L57.6114 -54.9538
L57.9324 -54.5795
L58.2467 -54.1995
L58.5542 -53.8139
L58.8548 -53.4229
L59.1485 -53.0267
L59.4351 -52.6252
L59.7146 -52.2187
L59.9869 -51.8072
L60.2518 -51.3909
L60.5094 -50.9699
L60.7595 -50.5444
L61.0021 -50.1144
L61.237 -49.6802
L61.4643 -49.2418
L61.6838 -48.7993
L61.8954 -48.3529
L62.0992 -47.9028
L62.2951 -47.4491
L62.4829 -46.9918
L62.6626 -46.5312
L62.8343 -46.0674
L62.9978 -45.6006
L63.153 -45.1308
L63.3 -44.6582
L63.4386 -44.183
L63.5689 -43.7053
L63.6908 -43.2253
L63.8043 -42.743
L63.9093 -42.2587
L64.0058 -41.7725
L64.0937 -41.2846
L64.1731 -40.795
L64.244 -40.304
L64.3062 -39.8116
L64.3598 -39.3181
L64.4047 -38.8236
L64.441 -38.3282
L64.4687 -37.8321
L64.4877 -37.3355
L64.498 -36.8384
L64.4996 -36.3411
L64.4925 -35.8437
L64.4768 -35.3464
L64.4523 -34.8492
L64.4192 -34.3524
L64.3775 -33.8561
z
" id="C0_1_956db1edac"/>
     <path d="
M34.0813 -7.64911
L33.8147 -7.78605
L33.5507 -7.92557
L33.2891 -8.06767
L33.0298 -8.21233
L32.773 -8.35955
L32.5183 -8.50933
L32.2658 -8.66165
L32.0155 -8.81652
L31.7672 -8.97395
L31.5209 -9.13394
L31.2766 -9.29651
L31.0341 -9.46166
L30.7935 -9.62942
L30.5546 -9.79979
L30.3175 -9.97281
L30.0821 -10.1485
L29.8482 -10.3269
L29.616 -10.5079
L29.3853 -10.6918
L29.1562 -10.8784
L28.9284 -11.0678
L28.7022 -11.2601
L28.4773 -11.4552
L28.2537 -11.6533
L28.0315 -11.8543
L27.8106 -12.0584
L27.591 -12.2655
L27.3726 -12.4757
L27.1555 -12.6891
L26.9395 -12.9057
L26.7247 -13.1255
L26.5111 -13.3486
L26.2987 -13.5751
L26.0874 -13.805
L25.8772 -14.0384
L25.6682 -14.2753
L25.4602 -14.5158
L25.2534 -14.7599
L25.0477 -15.0077
L24.8431 -15.2592
L24.6396 -15.5146
L24.4373 -15.7738
L24.2361 -16.037
L24.036 -16.3041
L23.8371 -16.5753
L23.6394 -16.8505
L23.4429 -17.1298
L23.2475 -17.4134
L23.0535 -17.7011
L22.8606 -17.9932
L22.6691 -18.2895
L22.4789 -18.5902
L22.29 -18.8952
L22.1026 -19.2046
L21.9165 -19.5184
L21.7319 -19.8367
L21.5488 -20.1593
L21.3672 -20.4864
L21.1871 -20.8179
L21.0087 -21.1537
L20.8319 -21.494
L20.6567 -21.8385
L20.4832 -22.1872
L20.3115 -22.5401
L20.1415 -22.8972
L19.9732 -23.2581
L19.8067 -23.623
L19.642 -23.9915
L19.4791 -24.3636
L19.3179 -24.7391
L19.1584 -25.1177
L19.0006 -25.4993
L18.8444 -25.8835
L18.6898 -26.2701
L18.5366 -26.6588
L18.3848 -27.0491
L18.2341 -27.4408
L18.0844 -27.8334
L17.9356 -28.2264
L17.7873 -28.6194
L17.6393 -29.0118
L17.4914 -29.4031
L17.3431 -29.7926
L17.1941 -30.1797
L17.044 -30.5638
L16.8923 -30.9441
L16.7385 -31.32
L16.5823 -31.6906
L16.4229 -32.0553
L16.2601 -32.4133
L16.0931 -32.7639
L15.9215 -33.1064
L15.7448 -33.4402
L15.5627 -33.7647
L15.3747 -34.0793
L15.1805 -34.3836
L14.98 -34.6774
L14.773 -34.9603
L14.5596 -35.2323
L14.3397 -35.4933
L14.1136 -35.7434
L13.8816 -35.9827
L13.644 -36.2114
L13.4011 -36.43
L13.1535 -36.6386
L12.9017 -36.8378
L12.6462 -37.0279
L12.3875 -37.2094
L12.1261 -37.3826
L11.8627 -37.5481
L11.5978 -37.7063
L11.3317 -37.8575
L11.0651 -38.0022
L10.7984 -38.1407
L10.532 -38.2734
L10.2663 -38.4006
L10.0017 -38.5227
L9.73839 -38.6399
L9.47681 -38.7524
L9.2172 -38.8607
L8.95979 -38.9648
L8.70481 -39.0649
L8.45245 -39.1614
L8.20287 -39.2543
L7.95623 -39.3439
L7.65169 -39.4302
L7.60476 -38.9366
L7.56648 -38.4414
L7.53686 -37.9455
L7.5159 -37.4489
L7.50363 -36.952
L7.50003 -36.4547
L7.50512 -35.9573
L7.51888 -35.4599
L7.54132 -34.9627
L7.57243 -34.4658
L7.6122 -33.9693
L7.66062 -33.4735
L7.71767 -32.9785
L7.78333 -32.4843
L7.85759 -31.9913
L7.94042 -31.4995
L8.0318 -31.009
L8.1317 -30.52
L8.24009 -30.0328
L8.35693 -29.5473
L8.4822 -29.0638
L8.61584 -28.5824
L8.75783 -28.1033
L8.90811 -27.6266
L9.06665 -27.1524
L9.23339 -26.6809
L9.40829 -26.2123
L9.59128 -25.7467
L9.78232 -25.2841
L9.98135 -24.8249
L10.1883 -24.369
L10.4031 -23.9167
L10.6257 -23.4681
L10.8561 -23.0232
L11.0941 -22.5824
L11.3397 -22.1456
L11.5928 -21.713
L11.8533 -21.2848
L12.1212 -20.8611
L12.3963 -20.442
L12.6787 -20.0276
L12.9681 -19.6181
L13.2646 -19.2136
L13.568 -18.8142
L13.8782 -18.42
L14.1952 -18.0312
L14.5188 -17.6479
L14.849 -17.2701
L15.1856 -16.8981
L15.5285 -16.5318
L15.8777 -16.1715
L16.233 -15.8173
L16.5943 -15.4692
L16.9615 -15.1273
L17.3346 -14.7918
L17.7133 -14.4628
L18.0976 -14.1403
L18.4873 -13.8245
L18.8824 -13.5154
L19.2827 -13.2132
L19.6881 -12.9179
L20.0984 -12.6297
L20.5136 -12.3486
L20.9335 -12.0747
L21.358 -11.808
L21.787 -11.5488
L22.2203 -11.297
L22.6578 -11.0527
L23.0993 -10.816
L23.5448 -10.587
L23.9941 -10.3657
L24.447 -10.1522
L24.9035 -9.94662
L25.3633 -9.74896
L25.8264 -9.55929
L26.2926 -9.37769
L26.7617 -9.20419
L27.2336 -9.03885
L27.7082 -8.88173
L28.1854 -8.73286
L28.6649 -8.5923
L29.1467 -8.46009
L29.6305 -8.33627
L30.1163 -8.22088
L30.6039 -8.11395
L31.0931 -8.01551
L31.5838 -7.9256
L32.0759 -7.84423
L32.5691 -7.77145
L33.0634 -7.70726
L33.5586 -7.65169
z
" id="C0_2_45829f5fe1"/>
    </defs>
    <g clip-path="url(#p1bffca34e9)">
     <use style="fill:#ffffff;stroke:#000000;stroke-width:2.0;" x="0.0" xlink:href="#C0_0_a811fe30f3" y="72.0"/>
    </g>
    <g clip-path="url(#p1bffca34e9)">
     <use style="fill:#ff0000;stroke:#000000;stroke-width:2.0;" x="0.0" xlink:href="#C0_1_956db1edac" y="72.0"/>
    </g>
    <g clip-path="url(#p1bffca34e9)">
     <use style="fill:#ff0000;stroke:#000000;stroke-width:2.0;" x="0.0" xlink:href="#C0_2_45829f5fe1" y="72.0"/>
    </g>
   </g>
  </g>
 </g>
 <defs>
  <clipPath id="p1bffca34e9">
   <rect height="72.0" width="72.0" x="0.0" y="0.0"/>
  </clipPath>
 </defs>
</svg>
