<?xml version="1.0" encoding="utf-8" standalone="no"?>
<!DOCTYPE svg PUBLIC "-//W3C//DTD SVG 1.1//EN"
  "http://www.w3.org/Graphics/SVG/1.1/DTD/svg11.dtd">
<!-- Created with matplotlib (http://matplotlib.org/) -->
<svg height="72pt" version="1.1" viewBox="0 0 72 72" width="72pt" xmlns="http://www.w3.org/2000/svg" xmlns:xlink="http://www.w3.org/1999/xlink">
 <defs>
  <style type="text/css">
*{stroke-linecap:butt;stroke-linejoin:round;}
  </style>
 </defs>
 <g id="figure_1">
  <g id="patch_1">
   <path d="
M0 72
L72 72
L72 0
L0 0
z
" style="fill:none;"/>
  </g>
  <g id="axes_1">
   <g id="PatchCollection_1">
    <defs>
     <path d="
M36 -7.5
C43.5583 -7.5 50.808 -10.5029 56.1525 -15.8475
C61.4971 -21.192 64.5 -28.4417 64.5 -36
C64.5 -43.5583 61.4971 -50.808 56.1525 -56.1525
C50.808 -61.4971 43.5583 -64.5 36 -64.5
C28.4417 -64.5 21.192 -61.4971 15.8475 -56.1525
C10.5029 -50.808 7.5 -43.5583 7.5 -36
C7.5 -28.4417 10.5029 -21.192 15.8475 -15.8475
C21.192 -10.5029 28.4417 -7.5 36 -7.5
z
" id="C0_0_a811fe30f3"/>
     <path d="
M44.2087 -63.2887
L44.5251 -63.0148
L44.733 -62.6875
L44.8811 -62.3313
L44.9967 -61.96
L45.0925 -61.5797
L45.1747 -61.1936
L45.2464 -60.8035
L45.3094 -60.4104
L45.3647 -60.015
L45.4133 -59.6181
L45.4556 -59.22
L45.4921 -58.8212
L45.5231 -58.4222
L45.549 -58.0232
L45.57 -57.6245
L45.5863 -57.2265
L45.5982 -56.8295
L45.6059 -56.4337
L45.6096 -56.0393
L45.6095 -55.6465
L45.6057 -55.2557
L45.5985 -54.8669
L45.5879 -54.4804
L45.5742 -54.0963
L45.5576 -53.7148
L45.538 -53.336
L45.5159 -52.96
L45.4911 -52.5869
L45.464 -52.2168
L45.4345 -51.8499
L45.4029 -51.4861
L45.3692 -51.1256
L45.3336 -50.7683
L45.2962 -50.4144
L45.257 -50.0638
L45.2162 -49.7165
L45.1739 -49.3727
L45.1301 -49.0322
L45.0849 -48.6951
L45.0384 -48.3613
L44.9907 -48.0309
L44.9419 -47.7038
L44.8919 -47.3799
L44.8409 -47.0593
L44.789 -46.7419
L44.7361 -46.4277
L44.6824 -46.1166
L44.6278 -45.8086
L44.5724 -45.5035
L44.5163 -45.2015
L44.4595 -44.9023
L44.402 -44.6059
L44.3439 -44.3123
L44.2851 -44.0215
L44.2258 -43.7332
L44.1659 -43.4476
L44.1055 -43.1644
L44.0445 -42.8837
L43.983 -42.6053
L43.921 -42.3292
L43.8586 -42.0554
L43.7957 -41.7837
L43.7323 -41.5141
L43.6685 -41.2465
L43.6042 -40.9808
L43.5395 -40.717
L43.4744 -40.455
L43.4088 -40.1948
L43.3428 -39.9362
L43.2764 -39.6791
L43.2095 -39.4236
L43.1422 -39.1696
L43.0745 -38.9169
L43.0063 -38.6655
L42.9377 -38.4154
L42.8686 -38.1664
L42.799 -37.9185
L42.729 -37.6717
L42.6585 -37.4258
L42.5875 -37.1809
L42.5161 -36.9368
L42.4441 -36.6934
L42.3715 -36.4507
L42.2985 -36.2087
L42.2248 -35.9673
L42.1506 -35.7264
L42.0758 -35.4859
L42.0005 -35.2458
L41.8478 -35.006
L41.7705 -34.7664
L41.6925 -34.5271
L41.6138 -34.2878
L41.5343 -34.0487
L41.4541 -33.8095
L41.3732 -33.5703
L41.2914 -33.331
L41.2089 -33.0914
L41.1254 -32.8517
L41.0411 -32.6116
L40.9559 -32.3711
L40.8698 -32.1303
L40.7827 -31.8889
L40.6946 -31.647
L40.6054 -31.4044
L40.5152 -31.1612
L40.4239 -30.9173
L40.3315 -30.6725
L40.2379 -30.4269
L40.1431 -30.1804
L40.0471 -29.9329
L39.9497 -29.6844
L39.8511 -29.4348
L39.751 -29.184
L39.6496 -28.932
L39.5467 -28.6788
L39.4423 -28.4242
L39.3364 -28.1683
L39.2289 -27.9109
L39.1197 -27.652
L39.0088 -27.3916
L38.8962 -27.1295
L38.7818 -26.8659
L38.6656 -26.6005
L38.5474 -26.3334
L38.4272 -26.0644
L38.3051 -25.7937
L38.1808 -25.521
L38.0544 -25.2464
L37.9258 -24.9699
L37.795 -24.6913
L37.6618 -24.4107
L37.5262 -24.1281
L37.3882 -23.8434
L37.2476 -23.5565
L37.1044 -23.2675
L36.9586 -22.9764
L36.81 -22.6831
L36.6587 -22.3876
L36.5044 -22.09
L36.3473 -21.7903
L36.1871 -21.4884
L36.0239 -21.1844
L35.8575 -20.8783
L35.6879 -20.5702
L35.5151 -20.2601
L35.3389 -19.948
L35.1593 -19.6341
L34.9762 -19.3184
L34.7897 -19.0009
L34.5995 -18.6819
L34.4057 -18.3614
L34.2082 -18.0394
L34.007 -17.7163
L33.802 -17.392
L33.5932 -17.0668
L33.3805 -16.7409
L33.1639 -16.4144
L32.9434 -16.0875
L32.719 -15.7605
L32.4906 -15.4335
L32.2581 -15.107
L32.0217 -14.781
L31.7813 -14.456
L31.5369 -14.1322
L31.2884 -13.8099
L31.0359 -13.4896
L30.7793 -13.1715
L30.5187 -12.8561
L30.2539 -12.5439
L29.9849 -12.2354
L29.7115 -11.9311
L29.4335 -11.6318
L29.1505 -11.3384
L28.8616 -11.0523
L28.5655 -10.7753
L28.2591 -10.5108
L27.9363 -10.2649
L27.5831 -10.0502
L27.1758 -9.89418
L26.701 -9.8456
L26.1799 -9.93845
L25.6401 -10.1428
L25.0971 -10.4115
L24.5581 -10.7176
L24.0267 -11.0484
L23.5048 -11.3975
L22.9937 -11.7615
L22.4943 -12.1381
L22.007 -12.5257
L21.5323 -12.9232
L21.0705 -13.3293
L20.6219 -13.7434
L20.1866 -14.1644
L19.7647 -14.5917
L19.3563 -15.0246
L18.9614 -15.4623
L18.5799 -15.9042
L18.2119 -16.3498
L17.8571 -16.7983
L17.5155 -17.2493
L17.1869 -17.7022
L16.8712 -18.1565
L16.5682 -18.6118
L16.2775 -19.0676
L15.9991 -19.5234
L15.7326 -19.979
L15.4778 -20.4338
L15.2345 -20.8877
L15.0024 -21.3402
L14.7811 -21.7912
L14.5705 -22.2402
L14.3702 -22.6871
L14.1799 -23.1317
L13.9994 -23.5738
L13.8284 -24.0132
L13.6667 -24.4497
L13.5138 -24.8832
L13.3696 -25.3135
L13.2338 -25.7407
L13.1062 -26.1646
L12.9864 -26.585
L12.8742 -27.0021
L12.7695 -27.4156
L12.6719 -27.8257
L12.5812 -28.2321
L12.4972 -28.6351
L12.4197 -29.0344
L12.3485 -29.4302
L12.2833 -29.8225
L12.2241 -30.2112
L12.1705 -30.5964
L12.1225 -30.9782
L12.0798 -31.3565
L12.0424 -31.7314
L12.01 -32.103
L11.9824 -32.4713
L11.9597 -32.8364
L11.9415 -33.1982
L11.9279 -33.557
L11.9186 -33.9127
L11.9135 -34.2653
L11.9127 -34.6151
L11.9158 -34.962
L11.923 -35.3061
L11.934 -35.6475
L11.9487 -35.9862
L11.9672 -36.3224
L11.9892 -36.656
L12.0149 -36.9872
L12.044 -37.3161
L12.0765 -37.6426
L12.1124 -37.967
L12.1517 -38.2892
L12.1942 -38.6093
L12.24 -38.9274
L12.2889 -39.2436
L12.3411 -39.558
L12.3964 -39.8705
L12.4548 -40.1814
L12.5162 -40.4906
L12.5808 -40.7982
L12.6485 -41.1043
L12.7192 -41.409
L12.793 -41.7123
L12.8698 -42.0144
L12.9497 -42.3151
L13.0327 -42.6147
L13.1187 -42.9132
L13.2079 -43.2106
L13.3001 -43.5071
L13.3955 -43.8026
L13.494 -44.0973
L13.5958 -44.3911
L13.7007 -44.6842
L13.8089 -44.9766
L13.9204 -45.2683
L14.0352 -45.5594
L14.1535 -45.8501
L14.2751 -46.1402
L14.4002 -46.4298
L14.5289 -46.7191
L14.6612 -47.0081
L14.7972 -47.2967
L14.9369 -47.585
L15.0804 -47.8732
L15.2279 -48.1611
L15.3792 -48.449
L15.5347 -48.7366
L15.6943 -49.0243
L15.8582 -49.3118
L16.0264 -49.5993
L16.199 -49.8869
L16.3762 -50.1744
L16.558 -50.4619
L16.7446 -50.7496
L16.9362 -51.0372
L17.1327 -51.3249
L17.3344 -51.6127
L17.5413 -51.9006
L17.7537 -52.1885
L17.9717 -52.4764
L18.1953 -52.7644
L18.4248 -53.0524
L18.6604 -53.3403
L18.9021 -53.6282
L19.1501 -53.916
L19.4046 -54.2036
L19.6658 -54.491
L19.9339 -54.7782
L20.209 -55.0649
L20.4913 -55.3513
L20.781 -55.6371
L21.0783 -55.9223
L21.3833 -56.2068
L21.6963 -56.4904
L22.0175 -56.773
L22.347 -57.0545
L22.6851 -57.3346
L23.0318 -57.6133
L23.3875 -57.8903
L23.7523 -58.1654
L24.1264 -58.4384
L24.5099 -58.7091
L24.9031 -58.9771
L25.306 -59.2424
L25.719 -59.5044
L26.142 -59.7631
L26.5752 -60.0179
L27.0189 -60.2686
L27.4729 -60.5149
L27.9376 -60.7563
L28.4128 -60.9924
L28.8987 -61.2229
L29.3953 -61.4473
L29.9026 -61.6651
L30.4206 -61.8759
L30.9492 -62.0792
L31.4883 -62.2745
L32.0379 -62.4613
L32.5977 -62.6391
L33.1675 -62.8073
L33.7471 -62.9654
L34.3362 -63.1128
L34.9346 -63.249
L35.5417 -63.3734
L36.1571 -63.4855
L36.7804 -63.5847
L37.4109 -63.6705
L38.048 -63.7422
L38.6908 -63.7993
L39.3383 -63.8412
L39.9894 -63.8672
L40.6423 -63.8768
L41.2948 -63.869
L41.943 -63.8428
L42.5804 -63.7965
L43.0639 -63.7272
L43.5447 -63.6107
z
" id="C0_1_5726419f47"/>
     <path d="
M28.832 -8.46792
z
" id="C0_2_253295840f"/>
    </defs>
    <g clip-path="url(#p1bffca34e9)">
     <use style="fill:#ffffff;stroke:#000000;stroke-width:2.0;" x="0.0" xlink:href="#C0_0_a811fe30f3" y="72.0"/>
    </g>
    <g clip-path="url(#p1bffca34e9)">
     <use style="fill:#ff0000;stroke:#000000;stroke-width:2.0;" x="0.0" xlink:href="#C0_1_5726419f47" y="72.0"/>
    </g>
    <g clip-path="url(#p1bffca34e9)">
     <use style="fill:#ff0000;stroke:#000000;stroke-width:2.0;" x="0.0" xlink:href="#C0_2_253295840f" y="72.0"/>
    </g>
   </g>
  </g>
 </g>
 <defs>
  <clipPath id="p1bffca34e9">
   <rect height="72.0" width="72.0" x="0.0" y="0.0"/>
  </clipPath>
 </defs>
</svg>
