<?xml version="1.0" encoding="utf-8" standalone="no"?>
<!DOCTYPE svg PUBLIC "-//W3C//DTD SVG 1.1//EN"
  "http://www.w3.org/Graphics/SVG/1.1/DTD/svg11.dtd">
<!-- Created with matplotlib (http://matplotlib.org/) -->
<svg height="72pt" version="1.1" viewBox="0 0 72 72" width="72pt" xmlns="http://www.w3.org/2000/svg" xmlns:xlink="http://www.w3.org/1999/xlink">
 <defs>
  <style type="text/css">
*{stroke-linecap:butt;stroke-linejoin:round;}
  </style>
 </defs>
 <g id="figure_1">
  <g id="patch_1">
   <path d="
M0 72
L72 72
L72 0
L0 0
z
" style="fill:none;"/>
  </g>
  <g id="axes_1">
   <g id="PatchCollection_1">
    <defs>
     <path d="
M36 -7.5
C43.5583 -7.5 50.808 -10.5029 56.1525 -15.8475
C61.4971 -21.192 64.5 -28.4417 64.5 -36
C64.5 -43.5583 61.4971 -50.808 56.1525 -56.1525
C50.808 -61.4971 43.5583 -64.5 36 -64.5
C28.4417 -64.5 21.192 -61.4971 15.8475 -56.1525
C10.5029 -50.808 7.5 -43.5583 7.5 -36
C7.5 -28.4417 10.5029 -21.192 15.8475 -15.8475
C21.192 -10.5029 28.4417 -7.5 36 -7.5
z
" id="C0_0_a811fe30f3"/>
     <path d="
M19.0594 -58.6828
L19.0349 -58.4001
L19.0134 -58.1187
L18.9947 -57.8387
L18.9788 -57.56
L18.9655 -57.2828
L18.955 -57.0071
L18.947 -56.7328
L18.9415 -56.4599
L18.9384 -56.1885
L18.9378 -55.9186
L18.9394 -55.6501
L18.9433 -55.383
L18.9494 -55.1174
L18.9576 -54.8532
L18.9678 -54.5903
L18.9801 -54.3288
L18.9944 -54.0686
L19.0106 -53.8097
L19.0286 -53.5521
L19.0485 -53.2957
L19.0701 -53.0405
L19.0935 -52.7865
L19.1186 -52.5336
L19.1453 -52.2818
L19.1737 -52.031
L19.2036 -51.7812
L19.2351 -51.5324
L19.2682 -51.2845
L19.3027 -51.0375
L19.3388 -50.7913
L19.3763 -50.5458
L19.4152 -50.3012
L19.4556 -50.0572
L19.4973 -49.8138
L19.5405 -49.571
L19.585 -49.3288
L19.6309 -49.0871
L19.6782 -48.8458
L19.7267 -48.6049
L19.7767 -48.3643
L19.8279 -48.1241
L19.8805 -47.8841
L19.9344 -47.6443
L19.9896 -47.4046
L20.0462 -47.165
L20.1041 -46.9255
L20.2238 -46.686
L20.2857 -46.4464
L20.3489 -46.2067
L20.4135 -45.9668
L20.4794 -45.7267
L20.5468 -45.4863
L20.6155 -45.2456
L20.6856 -45.0046
L20.7571 -44.7631
L20.8301 -44.5212
L20.9045 -44.2787
L20.9804 -44.0356
L21.0577 -43.7919
L21.1366 -43.5475
L21.217 -43.3024
L21.2989 -43.0564
L21.3825 -42.8097
L21.4676 -42.562
L21.5544 -42.3134
L21.6428 -42.0637
L21.7329 -41.8131
L21.8247 -41.5613
L21.9182 -41.3083
L22.0135 -41.0541
L22.1106 -40.7987
L22.2096 -40.542
L22.3104 -40.2839
L22.4131 -40.0243
L22.5178 -39.7634
L22.6244 -39.5009
L22.733 -39.2368
L22.8436 -38.9711
L22.9564 -38.7038
L23.0712 -38.4348
L23.1882 -38.164
L23.3073 -37.8914
L23.4287 -37.617
L23.5523 -37.3408
L23.6781 -37.0626
L23.8063 -36.7825
L23.9368 -36.5004
L24.0697 -36.2164
L24.205 -35.9302
L24.3427 -35.6421
L24.4828 -35.3518
L24.6253 -35.0594
L24.7704 -34.7649
L24.9178 -34.4683
L25.0678 -34.1695
L25.2203 -33.8685
L25.3752 -33.5655
L25.5325 -33.2602
L25.6923 -32.9528
L25.8545 -32.6433
L26.0191 -32.3317
L26.1859 -32.0181
L26.355 -31.7023
L26.5262 -31.3846
L26.6995 -31.0649
L26.8748 -30.7433
L27.0519 -30.4198
L27.2306 -30.0946
L27.4109 -29.7676
L27.5924 -29.439
L27.775 -29.1089
L27.9585 -28.7774
L28.1425 -28.4445
L28.3267 -28.1104
L28.5107 -27.7752
L28.6942 -27.439
L28.8766 -27.1021
L29.0576 -26.7644
L29.2364 -26.4263
L29.4126 -26.0877
L29.5854 -25.749
L29.7542 -25.4103
L29.918 -25.0717
L30.0761 -24.7335
L30.2276 -24.3958
L30.3714 -24.0588
L30.5065 -23.7228
L30.6319 -23.388
L30.7464 -23.0544
L30.8489 -22.7225
L30.9384 -22.3922
L31.0138 -22.064
L31.074 -21.7379
L31.1181 -21.4143
L31.1454 -21.0933
L31.1552 -20.7751
L31.1471 -20.4601
L31.1206 -20.1483
L31.0758 -19.84
L31.0127 -19.5356
L30.9316 -19.2351
L30.8329 -18.9388
L30.7173 -18.647
L30.5854 -18.3598
L30.4381 -18.0775
L30.2762 -17.8003
L30.1006 -17.5283
L29.9123 -17.2619
L29.7122 -17.001
L29.5013 -16.7459
L29.2804 -16.4967
L29.0504 -16.2536
L28.8121 -16.0167
L28.5663 -15.786
L28.3138 -15.5617
L28.0552 -15.3438
L27.7912 -15.1325
L27.5224 -14.9276
L27.2492 -14.7293
L26.9724 -14.5376
L26.6922 -14.3526
L26.4091 -14.1741
L26.1236 -14.0022
L25.836 -13.8369
L25.5466 -13.6782
L25.2557 -13.526
L24.9636 -13.3803
L24.6706 -13.241
L24.3769 -13.1081
L24.0827 -12.9815
L23.7881 -12.8613
L23.4934 -12.7472
L23.1987 -12.6393
L22.9041 -12.5374
L22.6098 -12.4416
L22.3158 -12.3517
L22.0223 -12.2677
L21.7294 -12.1894
L21.437 -12.117
L21.1454 -12.0501
L20.8544 -11.9889
L20.4017 -11.9331
L19.9877 -12.1475
L19.5787 -12.4234
L19.1747 -12.7064
L18.7758 -12.9965
L18.3821 -13.2937
L17.9938 -13.5978
L17.611 -13.9086
L17.2338 -14.2263
L16.8623 -14.5505
L16.4967 -14.8813
L16.137 -15.2185
L15.7833 -15.562
L15.4358 -15.9118
L15.0946 -16.2677
L14.7597 -16.6296
L14.4313 -16.9974
L14.1094 -17.371
L13.7943 -17.7503
L13.4859 -18.1351
L13.1843 -18.5253
L12.8897 -18.9209
L12.6022 -19.3217
L12.3217 -19.7276
L12.0485 -20.1384
L11.7826 -20.5541
L11.5241 -20.9744
L11.273 -21.3994
L11.0294 -21.8288
L10.7935 -22.2625
L10.5652 -22.7004
L10.3447 -23.1423
L10.132 -23.5882
L9.92713 -24.0378
L9.73024 -24.4911
L9.54135 -24.9479
L9.36053 -25.408
L9.18782 -25.8714
L9.02327 -26.3379
L8.86695 -26.8073
L8.71889 -27.2795
L8.57913 -27.7543
L8.44774 -28.2317
L8.32473 -28.7115
L8.21015 -29.1934
L8.10404 -29.6775
L8.00643 -30.1634
L7.91734 -30.6512
L7.83681 -31.1405
L7.76486 -31.6314
L7.7015 -32.1236
L7.64677 -32.6169
L7.60068 -33.1113
L7.56323 -33.6066
L7.53445 -34.1026
L7.51433 -34.5992
L7.5029 -35.0962
L7.50014 -35.5935
L7.50607 -36.0909
L7.52068 -36.5882
L7.54396 -37.0854
L7.57591 -37.5823
L7.61652 -38.0787
L7.66577 -38.5744
L7.72365 -39.0694
L7.79015 -39.5634
L7.86524 -40.0564
L7.9489 -40.5481
L8.04111 -41.0384
L8.14183 -41.5272
L8.25104 -42.0143
L8.3687 -42.4996
L8.49477 -42.9829
L8.62923 -43.4641
L8.77202 -43.943
L8.92311 -44.4194
L9.08244 -44.8934
L9.24998 -45.3646
L9.42566 -45.8329
L9.60943 -46.2983
L9.80125 -46.7605
L10.001 -47.2194
L10.2088 -47.6749
L10.4243 -48.1269
L10.6477 -48.5752
L10.8788 -49.0196
L11.1175 -49.4601
L11.3638 -49.8965
L11.6177 -50.3286
L11.8789 -50.7564
L12.1475 -51.1797
L12.4234 -51.5983
L12.7064 -52.0123
L12.9965 -52.4213
L13.2937 -52.8253
L13.5978 -53.2242
L13.9086 -53.6179
L14.2263 -54.0062
L14.5505 -54.389
L14.8813 -54.7662
L15.2185 -55.1377
L15.562 -55.5033
L15.9118 -55.863
L16.2677 -56.2167
L16.6296 -56.5642
L16.9974 -56.9054
L17.371 -57.2403
L17.7503 -57.5687
L18.1351 -57.8906
L18.5253 -58.2057
z
" id="C0_1_bc5a2c99e8"/>
     <path d="
M51.2911 -59.8911
L51.3646 -59.6082
L51.4345 -59.3265
L51.5008 -59.0459
L51.5637 -58.7666
L51.6232 -58.4886
L51.6793 -58.2118
L51.7323 -57.9363
L51.7821 -57.6621
L51.8289 -57.3891
L51.8728 -57.1173
L51.9138 -56.8468
L51.952 -56.5775
L51.9875 -56.3094
L52.0203 -56.0426
L52.0506 -55.7768
L52.0783 -55.5122
L52.1036 -55.2487
L52.1266 -54.9863
L52.1472 -54.7249
L52.1656 -54.4645
L52.1817 -54.2051
L52.1957 -53.9466
L52.2076 -53.6891
L52.2175 -53.4323
L52.2253 -53.1764
L52.2312 -52.9213
L52.2351 -52.6669
L52.2371 -52.4132
L52.2373 -52.1601
L52.2357 -51.9076
L52.2322 -51.6556
L52.227 -51.4042
L52.2201 -51.1532
L52.2114 -50.9026
L52.2011 -50.6524
L52.1891 -50.4024
L52.1754 -50.1528
L52.1601 -49.9033
L52.1432 -49.654
L52.1247 -49.4048
L52.1046 -49.1557
L52.0829 -48.9065
L52.0596 -48.6573
L52.0348 -48.408
L52.0084 -48.1586
L51.9805 -47.9089
L51.951 -47.659
L51.9199 -47.4088
L51.8873 -47.1582
L51.8531 -46.9072
L51.8173 -46.6557
L51.78 -46.4037
L51.7411 -46.1511
L51.7006 -45.8979
L51.6586 -45.6439
L51.6149 -45.3893
L51.5696 -45.1338
L51.5226 -44.8775
L51.4741 -44.6203
L51.4238 -44.3621
L51.3719 -44.1029
L51.3182 -43.8426
L51.2629 -43.5812
L51.2058 -43.3186
L51.1469 -43.0548
L51.0862 -42.7897
L51.0238 -42.5232
L50.9594 -42.2554
L50.8932 -41.9861
L50.8251 -41.7152
L50.7551 -41.4429
L50.6831 -41.1689
L50.6092 -40.8932
L50.5332 -40.6159
L50.4551 -40.3367
L50.375 -40.0558
L50.2927 -39.773
L50.2083 -39.4883
L50.1217 -39.2016
L50.0329 -38.913
L49.9418 -38.6223
L49.8484 -38.3296
L49.7527 -38.0347
L49.6547 -37.7377
L49.5542 -37.4385
L49.4513 -37.1371
L49.346 -36.8335
L49.2382 -36.5276
L49.128 -36.2194
L49.0151 -35.9089
L48.8998 -35.5961
L48.7819 -35.281
L48.6614 -34.9636
L48.5384 -34.6439
L48.4128 -34.3218
L48.2846 -33.9975
L48.1539 -33.6708
L48.0206 -33.3419
L47.8849 -33.0108
L47.7466 -32.6775
L47.606 -32.3421
L47.4631 -32.0046
L47.3179 -31.6651
L47.1705 -31.3236
L47.0211 -30.9802
L46.8698 -30.6351
L46.7167 -30.2883
L46.5621 -29.94
L46.406 -29.5902
L46.2489 -29.239
L46.0909 -28.8867
L45.9323 -28.5334
L45.7736 -28.1793
L45.615 -27.8244
L45.457 -27.4691
L45.3001 -27.1134
L45.1448 -26.7577
L44.9918 -26.4021
L44.8416 -26.0468
L44.695 -25.6922
L44.5527 -25.3384
L44.4156 -24.9856
L44.2846 -24.6343
L44.1607 -24.2845
L44.0448 -23.9367
L43.938 -23.5911
L43.8415 -23.2479
L43.7562 -22.9076
L43.6833 -22.5702
L43.6238 -22.2362
L43.5788 -21.9059
L43.5491 -21.5794
L43.5355 -21.2571
L43.5386 -20.9392
L43.559 -20.6259
L43.5969 -20.3176
L43.6523 -20.0143
L43.7253 -19.7164
L43.8155 -19.4239
L43.9224 -19.1371
L44.0456 -18.8561
L44.1842 -18.5811
L44.3375 -18.3121
L44.5046 -18.0494
L44.6846 -17.7929
L44.8766 -17.5428
L45.0796 -17.2992
L45.2927 -17.0621
L45.515 -16.8315
L45.7457 -16.6076
L45.984 -16.3903
L46.2291 -16.1797
L46.4803 -15.9759
L46.7369 -15.7787
L46.9982 -15.5882
L47.2638 -15.4044
L47.533 -15.2273
L47.8054 -15.0568
L48.0805 -14.893
L48.3579 -14.7358
L48.6373 -14.5851
L48.9182 -14.4409
L49.2005 -14.3031
L49.4837 -14.1718
L49.7676 -14.0467
L50.052 -13.9279
L50.3368 -13.8154
L50.6216 -13.7089
L50.9063 -13.6085
L51.1908 -13.5141
L51.475 -13.4256
L51.7586 -13.343
L52.0417 -13.2661
L52.3241 -13.1949
L52.6057 -13.1293
L53.2978 -13.0693
L53.6904 -13.3497
L54.0777 -13.655
L54.4595 -13.9672
L54.8357 -14.286
L55.2061 -14.6115
L55.5706 -14.9435
L55.9292 -15.2819
L56.2818 -15.6266
L56.6281 -15.9775
L56.9682 -16.3345
L57.3019 -16.6975
L57.629 -17.0664
L57.9497 -17.4411
L58.2636 -17.8214
L58.5707 -18.2072
L58.871 -18.5985
L59.1643 -18.995
L59.4505 -19.3968
L59.7296 -19.8036
L60.0015 -20.2153
L60.266 -20.6319
L60.5232 -21.0531
L60.7729 -21.4789
L61.015 -21.9091
L61.2496 -22.3435
L61.4764 -22.7822
L61.6955 -23.2249
L61.9067 -23.6715
L62.1101 -24.1218
L62.3055 -24.5757
L62.4929 -25.0331
L62.6722 -25.4939
L62.8434 -25.9579
L63.0064 -26.4249
L63.1612 -26.8948
L63.3077 -27.3675
L63.4459 -27.8429
L63.5758 -28.3207
L63.6972 -28.8009
L63.8102 -29.2832
L63.9147 -29.7677
L64.0108 -30.254
L64.0983 -30.742
L64.1772 -31.2317
L64.2476 -31.7228
L64.3093 -32.2152
L64.3625 -32.7088
L64.4069 -33.2033
L64.4428 -33.6987
L64.4699 -34.1949
L64.4884 -34.6915
L64.4983 -35.1886
L64.4994 -35.6859
L64.4919 -36.1833
L64.4757 -36.6807
L64.4508 -37.1778
L64.4172 -37.6746
L64.375 -38.1709
L64.3241 -38.6665
L64.2646 -39.1613
L64.1965 -39.6552
L64.1199 -40.1479
L64.0346 -40.6394
L63.9408 -41.1294
L63.8385 -41.6179
L63.7277 -42.1047
L63.6085 -42.5896
L63.4809 -43.0725
L63.3449 -43.5533
L63.2005 -44.0317
L63.0479 -44.5077
L62.887 -44.9812
L62.718 -45.4518
L62.5408 -45.9196
L62.3555 -46.3844
L62.1622 -46.846
L61.9609 -47.3044
L61.7518 -47.7592
L61.5347 -48.2105
L61.3099 -48.6581
L61.0774 -49.1018
L60.8373 -49.5415
L60.5896 -49.9771
L60.3343 -50.4085
L60.0717 -50.8354
L59.8018 -51.2579
L59.5246 -51.6756
L59.2402 -52.0887
L58.9488 -52.4968
L58.6503 -52.8998
L58.345 -53.2978
L58.0328 -53.6904
L57.714 -54.0777
L57.3885 -54.4595
L57.0565 -54.8357
L56.7181 -55.2061
L56.3734 -55.5706
L56.0225 -55.9292
L55.6655 -56.2818
L55.3025 -56.6281
L54.9336 -56.9682
L54.5589 -57.3019
L54.1786 -57.629
L53.7928 -57.9497
L53.4015 -58.2636
L53.005 -58.5707
L52.6032 -58.871
L52.1964 -59.1643
L51.7847 -59.4505
z
" id="C0_2_54f7196d3d"/>
    </defs>
    <g clip-path="url(#p1bffca34e9)">
     <use style="fill:#ffffff;stroke:#000000;stroke-width:2.0;" x="0.0" xlink:href="#C0_0_a811fe30f3" y="72.0"/>
    </g>
    <g clip-path="url(#p1bffca34e9)">
     <use style="fill:#ff0000;stroke:#000000;stroke-width:2.0;" x="0.0" xlink:href="#C0_1_bc5a2c99e8" y="72.0"/>
    </g>
    <g clip-path="url(#p1bffca34e9)">
     <use style="fill:#ff0000;stroke:#000000;stroke-width:2.0;" x="0.0" xlink:href="#C0_2_54f7196d3d" y="72.0"/>
    </g>
   </g>
  </g>
 </g>
 <defs>
  <clipPath id="p1bffca34e9">
   <rect height="72.0" width="72.0" x="0.0" y="0.0"/>
  </clipPath>
 </defs>
</svg>
