<?xml version="1.0" encoding="utf-8" standalone="no"?>
<!DOCTYPE svg PUBLIC "-//W3C//DTD SVG 1.1//EN"
  "http://www.w3.org/Graphics/SVG/1.1/DTD/svg11.dtd">
<!-- Created with matplotlib (http://matplotlib.org/) -->
<svg height="72pt" version="1.1" viewBox="0 0 72 72" width="72pt" xmlns="http://www.w3.org/2000/svg" xmlns:xlink="http://www.w3.org/1999/xlink">
 <defs>
  <style type="text/css">
*{stroke-linecap:butt;stroke-linejoin:round;}
  </style>
 </defs>
 <g id="figure_1">
  <g id="patch_1">
   <path d="
M0 72
L72 72
L72 0
L0 0
z
" style="fill:none;"/>
  </g>
  <g id="axes_1">
   <g id="PatchCollection_1">
    <defs>
     <path d="
M36 -7.5
C43.5583 -7.5 50.808 -10.5029 56.1525 -15.8475
C61.4971 -21.192 64.5 -28.4417 64.5 -36
C64.5 -43.5583 61.4971 -50.808 56.1525 -56.1525
C50.808 -61.4971 43.5583 -64.5 36 -64.5
C28.4417 -64.5 21.192 -61.4971 15.8475 -56.1525
C10.5029 -50.808 7.5 -43.5583 7.5 -36
C7.5 -28.4417 10.5029 -21.192 15.8475 -15.8475
C21.192 -10.5029 28.4417 -7.5 36 -7.5
z
" id="C0_0_a811fe30f3"/>
     <path d="
M7.62658 -37.4274
L7.83086 -37.477
L8.03513 -37.526
L8.23942 -37.5744
L8.44372 -37.6221
L8.64804 -37.6692
L8.8524 -37.7158
L9.05681 -37.7617
L9.26128 -37.8071
L9.46584 -37.852
L9.67049 -37.8962
L9.87526 -37.94
L10.0802 -37.9832
L10.2853 -38.0259
L10.4905 -38.0681
L10.696 -38.1098
L10.9017 -38.1511
L11.1077 -38.1919
L11.3141 -38.2322
L11.5207 -38.2721
L11.7277 -38.3116
L11.9351 -38.3506
L12.143 -38.3893
L12.3513 -38.4275
L12.5601 -38.4654
L12.7695 -38.5029
L12.9794 -38.54
L13.19 -38.5768
L13.4012 -38.6133
L13.6132 -38.6494
L13.8259 -38.6853
L14.2537 -38.7208
L14.4689 -38.756
L14.6851 -38.7909
L14.9022 -38.8256
L15.1203 -38.86
L15.3395 -38.8941
L15.5598 -38.928
L15.7813 -38.9616
L16.0041 -38.995
L16.2281 -39.0282
L16.4534 -39.0611
L16.6801 -39.0939
L16.9082 -39.1264
L17.1379 -39.1588
L17.369 -39.191
L17.6018 -39.223
L17.8362 -39.2548
L18.0724 -39.2865
L18.3103 -39.318
L18.5501 -39.3494
L18.7917 -39.3806
L19.0353 -39.4117
L19.2809 -39.4427
L19.5286 -39.4736
L19.7784 -39.5043
L20.0304 -39.535
L20.2847 -39.5655
L20.5413 -39.596
L20.8003 -39.6264
L21.0617 -39.6567
L21.3256 -39.6869
L21.5921 -39.7171
L21.8612 -39.7473
L22.133 -39.7774
L22.4075 -39.8074
L22.6849 -39.8375
L22.9651 -39.8675
L23.2482 -39.8975
L23.5342 -39.9276
L23.8233 -39.9576
L24.1155 -39.9877
L24.4108 -40.0178
L24.7092 -40.048
L25.0109 -40.0783
L25.3158 -40.1086
L25.6239 -40.1391
L25.9354 -40.1697
L26.2501 -40.2005
L26.5682 -40.2314
L26.8897 -40.2626
L27.2145 -40.294
L27.5426 -40.3256
L27.8741 -40.3576
L28.2089 -40.3899
L28.5469 -40.4226
L28.8882 -40.4558
L29.2327 -40.4894
L29.5803 -40.5237
L29.931 -40.5585
L30.2846 -40.5941
L30.641 -40.6305
L31.0001 -40.6678
L31.3617 -40.706
L31.7257 -40.7454
L32.0919 -40.7861
L32.46 -40.8282
L32.8299 -40.8719
L33.2012 -40.9173
L33.5736 -40.9647
L33.9468 -41.0143
L34.3205 -41.0663
L34.6942 -41.1212
L35.0675 -41.179
L35.4399 -41.2403
L35.8109 -41.3054
L36.18 -41.3747
L36.5464 -41.4486
L36.9096 -41.5277
L37.2688 -41.6126
L37.6234 -41.7037
L37.9725 -41.8017
L38.3155 -41.9073
L38.6513 -42.0211
L38.9793 -42.1438
L39.2986 -42.2761
L39.6083 -42.4186
L39.9078 -42.572
L40.1964 -42.7369
L40.4733 -42.9137
L40.7382 -43.1028
L40.9904 -43.3046
L41.2298 -43.5191
L41.4562 -43.7464
L41.6694 -43.9862
L41.8695 -44.2384
L42.0568 -44.5023
L42.2314 -44.7776
L42.3937 -45.0634
L42.5441 -45.359
L42.683 -45.6637
L42.8108 -45.9765
L42.9281 -46.2966
L43.0354 -46.6232
L43.133 -46.9553
L43.2216 -47.2922
L43.3015 -47.6331
L43.3732 -47.9772
L43.437 -48.3237
L43.4935 -48.6721
L43.5429 -49.0217
L43.5856 -49.372
L43.622 -49.7224
L43.6523 -50.0725
L43.6768 -50.4219
L43.6958 -50.77
L43.7095 -51.1167
L43.7183 -51.4615
L43.7222 -51.8042
L43.7216 -52.1446
L43.7165 -52.4823
L43.7073 -52.8173
L43.694 -53.1492
L43.6768 -53.4781
L43.6559 -53.8037
L43.6315 -54.126
L43.6036 -54.4447
L43.5724 -54.76
L43.538 -55.0717
L43.5005 -55.3797
L43.46 -55.684
L43.4167 -55.9846
L43.3706 -56.2815
L43.3218 -56.5746
L43.2705 -56.864
L43.2165 -57.1497
L43.1602 -57.4317
L43.1014 -57.7099
L43.0404 -57.9846
L42.977 -58.2555
L42.9115 -58.5229
L42.8438 -58.7868
L42.774 -59.0471
L42.7021 -59.304
L42.6282 -59.5574
L42.5523 -59.8075
L42.4744 -60.0543
L42.3946 -60.2978
L42.3129 -60.538
L42.2293 -60.7752
L42.1439 -61.0092
L42.0566 -61.2402
L41.9674 -61.4682
L41.8764 -61.6933
L41.7836 -61.9155
L41.6889 -62.1349
L41.5924 -62.3515
L41.4941 -62.5654
L41.394 -62.7766
L41.292 -62.9853
L41.1881 -63.1913
L41.0824 -63.3949
L40.9748 -63.596
L40.8653 -63.7948
L40.3898 -63.9911
L39.8976 -64.1599
L39.4043 -64.2322
L38.91 -64.2959
L38.4147 -64.351
L37.9188 -64.3975
L37.4222 -64.4353
L36.9252 -64.4645
L36.428 -64.485
L35.9306 -64.4968
L35.4332 -64.4999
L34.936 -64.4944
L34.4391 -64.4801
L33.9427 -64.4572
L33.4469 -64.4256
L32.9519 -64.3854
L32.4578 -64.3365
L31.9648 -64.279
L31.473 -64.2129
L30.9826 -64.1382
L30.4938 -64.0549
L30.0066 -63.963
L29.5212 -63.8627
L29.0379 -63.7538
L28.5566 -63.6365
L28.0776 -63.5108
L27.601 -63.3767
L27.127 -63.2343
L26.6557 -63.0836
L26.1872 -62.9246
L25.7217 -62.7574
L25.2594 -62.5821
L24.8003 -62.3986
L24.3446 -62.2072
L23.8925 -62.0077
L23.444 -61.8003
L22.9994 -61.5851
L22.5588 -61.3621
L22.1222 -61.1313
L21.6899 -60.8929
L21.2619 -60.6469
L20.8384 -60.3934
L20.4196 -60.1325
L20.0055 -59.8642
L19.5962 -59.5887
L19.192 -59.3059
L18.7929 -59.0161
L18.399 -58.7192
L18.0104 -58.4155
L17.6274 -58.1049
L17.25 -57.7876
L16.8782 -57.4636
L16.5123 -57.1331
L16.1523 -56.7962
L15.7984 -56.4529
L15.4506 -56.1034
L15.1091 -55.7477
L14.774 -55.3861
L14.4453 -55.0186
L14.1232 -54.6452
L13.8077 -54.2662
L13.499 -53.8816
L13.1972 -53.4916
L12.9023 -53.0962
L12.6144 -52.6956
L12.3337 -52.29
L12.0601 -51.8794
L11.7939 -51.4639
L11.535 -51.0438
L11.2836 -50.619
L11.0397 -50.1898
L10.8035 -49.7563
L10.5749 -49.3186
L10.354 -48.8768
L10.141 -48.4311
L9.93578 -47.9816
L9.73855 -47.5285
L9.54932 -47.0719
L9.36815 -46.6119
L9.19509 -46.1486
L9.03019 -45.6823
L8.87351 -45.213
L8.72509 -44.7409
L8.58498 -44.2662
L8.45322 -43.7889
L8.32985 -43.3092
L8.21491 -42.8274
L8.10844 -42.3434
L8.01046 -41.8575
L7.921 -41.3699
L7.8401 -40.8806
L7.76778 -40.3898
L7.70405 -39.8976
L7.64895 -39.4043
L7.60248 -38.91
z
" id="C0_1_97aafa4a4d"/>
     <path d="
M31.2739 -7.97929
L31.4419 -8.1264
L31.6082 -8.27474
L31.773 -8.42431
L31.9362 -8.57511
L32.0979 -8.72714
L32.2583 -8.8804
L32.4173 -9.0349
L32.575 -9.19065
L32.7315 -9.34767
L32.8867 -9.50595
L33.0409 -9.66553
L33.1939 -9.82641
L33.3459 -9.98861
L33.4969 -10.1522
L33.647 -10.3171
L33.7961 -10.4834
L33.9444 -10.6511
L34.0919 -10.8203
L34.2386 -10.9909
L34.3846 -11.163
L34.5299 -11.3367
L34.6745 -11.5119
L34.8186 -11.6887
L34.962 -11.8672
L35.1049 -12.0474
L35.2474 -12.2292
L35.3893 -12.4128
L35.5309 -12.5982
L35.672 -12.7855
L35.8128 -12.9746
L35.9532 -13.1657
L36.0934 -13.3587
L36.2333 -13.5538
L36.373 -13.7509
L36.5124 -13.9501
L36.6517 -14.1516
L36.7909 -14.3552
L36.9299 -14.5611
L37.0689 -14.7694
L37.2078 -14.98
L37.3467 -15.1931
L37.4855 -15.4087
L37.6244 -15.6269
L37.7633 -15.8477
L37.9023 -16.0711
L38.0414 -16.2973
L38.1806 -16.5263
L38.3199 -16.7581
L38.4594 -16.9928
L38.599 -17.2305
L38.7389 -17.4713
L38.8789 -17.7151
L39.0192 -17.9621
L39.1597 -18.2123
L39.3005 -18.4657
L39.4416 -18.7224
L39.583 -18.9825
L39.7247 -19.246
L39.8667 -19.513
L40.0091 -19.7834
L40.1518 -20.0574
L40.2948 -20.335
L40.4383 -20.6162
L40.5821 -20.901
L40.7264 -21.1895
L40.871 -21.4817
L41.0161 -21.7775
L41.1616 -22.077
L41.3076 -22.3802
L41.4541 -22.687
L41.601 -22.9975
L41.7485 -23.3115
L41.8965 -23.6291
L42.045 -23.9501
L42.1941 -24.2745
L42.3439 -24.6022
L42.4942 -24.9331
L42.6453 -25.267
L42.7971 -25.6038
L42.9497 -25.9433
L43.1032 -26.2852
L43.2577 -26.6294
L43.4131 -26.9756
L43.5697 -27.3235
L43.7276 -27.6728
L43.8869 -28.023
L44.0477 -28.3739
L44.2103 -28.7248
L44.3748 -29.0755
L44.5415 -29.4252
L44.7107 -29.7734
L44.8825 -30.1195
L45.0574 -30.4628
L45.2358 -30.8026
L45.4179 -31.138
L45.6042 -31.4682
L45.7952 -31.7923
L45.9913 -32.1094
L46.193 -32.4186
L46.4008 -32.719
L46.6151 -33.0096
L46.8365 -33.2895
L47.0652 -33.5578
L47.3017 -33.8139
L47.5463 -34.0569
L47.7992 -34.2865
L48.0604 -34.502
L48.3299 -34.7034
L48.6076 -34.8904
L48.8932 -35.0631
L49.1864 -35.2217
L49.4868 -35.3665
L49.7937 -35.4978
L50.1067 -35.6163
L50.4251 -35.7224
L50.7481 -35.8169
L51.0752 -35.9003
L51.4056 -35.9733
L51.7388 -36.0365
L52.0739 -36.0907
L52.4105 -36.1364
L52.7479 -36.1743
L53.0856 -36.2048
L53.4231 -36.2285
L53.7599 -36.2459
L54.0956 -36.2575
L54.4297 -36.2636
L54.762 -36.2647
L55.0921 -36.2611
L55.4197 -36.2532
L55.7445 -36.2412
L56.0664 -36.2255
L56.3851 -36.2063
L56.7004 -36.1838
L57.0122 -36.1582
L57.3204 -36.1298
L57.6248 -36.0988
L57.9254 -36.0652
L58.2221 -36.0293
L58.5147 -35.9911
L58.8034 -35.9509
L59.088 -35.9088
L59.3685 -35.8647
L59.6449 -35.819
L59.9172 -35.7715
L60.1854 -35.7226
L60.4496 -35.6721
L60.7097 -35.6202
L60.9658 -35.5669
L61.2179 -35.5123
L61.466 -35.4565
L61.7102 -35.3994
L61.9506 -35.3413
L62.1872 -35.282
L62.42 -35.2216
L62.6491 -35.1602
L62.8745 -35.0977
L63.0964 -35.0342
L63.3148 -34.9698
L63.5297 -34.9044
L63.7412 -34.8381
L63.9493 -34.7708
L64.1542 -34.7026
L64.4387 -34.6335
L64.4017 -34.1315
L64.3562 -33.6355
L64.3019 -33.1402
L64.2391 -32.6457
L64.1676 -32.1523
L64.0876 -31.66
L63.999 -31.1691
L63.9019 -30.6796
L63.7963 -30.1918
L63.6822 -29.7057
L63.5597 -29.2216
L63.4288 -28.7395
L63.2895 -28.2596
L63.1419 -27.7821
L62.9861 -27.3071
L62.822 -26.8347
L62.6498 -26.3651
L62.4694 -25.8985
L62.281 -25.4349
L62.0846 -24.9746
L61.8802 -24.5176
L61.6679 -24.0641
L61.4479 -23.6143
L61.2201 -23.1682
L60.9845 -22.726
L60.7414 -22.2879
L60.4908 -21.8539
L60.2327 -21.4243
L59.9672 -20.9991
L59.6944 -20.5784
L59.4144 -20.1625
L59.1272 -19.7514
L58.833 -19.3452
L58.5319 -18.9441
L58.2239 -18.5483
L57.9091 -18.1577
L57.5877 -17.7725
L57.2596 -17.3929
L56.9251 -17.019
L56.5843 -16.6509
L56.2371 -16.2886
L55.8838 -15.9324
L55.5244 -15.5823
L55.1591 -15.2383
L54.788 -14.9008
L54.4111 -14.5696
L54.0286 -14.245
L53.6406 -13.927
L53.2473 -13.6157
L52.8487 -13.3112
L52.445 -13.0137
L52.0362 -12.7231
L51.6226 -12.4397
L51.2042 -12.1634
L50.7812 -11.8944
L50.3537 -11.6327
L49.9218 -11.3784
L49.4857 -11.1317
L49.0454 -10.8925
L48.6012 -10.661
L48.1531 -10.4371
L47.7014 -10.2211
L47.2461 -10.0129
L46.7873 -9.81268
L46.3253 -9.62039
L45.8601 -9.43615
L45.3919 -9.25999
L44.9209 -9.09198
L44.4471 -8.93217
L43.9708 -8.7806
L43.4921 -8.63732
L43.011 -8.50238
L42.5278 -8.37581
L42.0427 -8.25766
L41.5557 -8.14796
L41.067 -8.04674
L40.5767 -7.95404
L40.0851 -7.86988
L39.5922 -7.79429
L39.0982 -7.72729
L38.6033 -7.66891
L38.1076 -7.61915
L37.6113 -7.57804
L37.1144 -7.54558
L36.6172 -7.5218
L36.1199 -7.50668
L35.6225 -7.50025
L35.1252 -7.5025
L34.6281 -7.51343
L34.1315 -7.53304
L33.6355 -7.56132
L33.1402 -7.59826
L32.6457 -7.64385
L32.1523 -7.69808
z
" id="C0_2_63abe11820"/>
    </defs>
    <g clip-path="url(#p1bffca34e9)">
     <use style="fill:#ffffff;stroke:#000000;stroke-width:2.0;" x="0.0" xlink:href="#C0_0_a811fe30f3" y="72.0"/>
    </g>
    <g clip-path="url(#p1bffca34e9)">
     <use style="fill:#ff0000;stroke:#000000;stroke-width:2.0;" x="0.0" xlink:href="#C0_1_97aafa4a4d" y="72.0"/>
    </g>
    <g clip-path="url(#p1bffca34e9)">
     <use style="fill:#ff0000;stroke:#000000;stroke-width:2.0;" x="0.0" xlink:href="#C0_2_63abe11820" y="72.0"/>
    </g>
   </g>
  </g>
 </g>
 <defs>
  <clipPath id="p1bffca34e9">
   <rect height="72.0" width="72.0" x="0.0" y="0.0"/>
  </clipPath>
 </defs>
</svg>
