<?xml version="1.0" encoding="utf-8" standalone="no"?>
<!DOCTYPE svg PUBLIC "-//W3C//DTD SVG 1.1//EN"
  "http://www.w3.org/Graphics/SVG/1.1/DTD/svg11.dtd">
<!-- Created with matplotlib (http://matplotlib.org/) -->
<svg height="72pt" version="1.1" viewBox="0 0 72 72" width="72pt" xmlns="http://www.w3.org/2000/svg" xmlns:xlink="http://www.w3.org/1999/xlink">
 <defs>
  <style type="text/css">
*{stroke-linecap:butt;stroke-linejoin:round;}
  </style>
 </defs>
 <g id="figure_1">
  <g id="patch_1">
   <path d="
M0 72
L72 72
L72 0
L0 0
z
" style="fill:none;"/>
  </g>
  <g id="axes_1">
   <g id="PatchCollection_1">
    <defs>
     <path d="
M36 -7.5
C43.5583 -7.5 50.808 -10.5029 56.1525 -15.8475
C61.4971 -21.192 64.5 -28.4417 64.5 -36
C64.5 -43.5583 61.4971 -50.808 56.1525 -56.1525
C50.808 -61.4971 43.5583 -64.5 36 -64.5
C28.4417 -64.5 21.192 -61.4971 15.8475 -56.1525
C10.5029 -50.808 7.5 -43.5583 7.5 -36
C7.5 -28.4417 10.5029 -21.192 15.8475 -15.8475
C21.192 -10.5029 28.4417 -7.5 36 -7.5
z
" id="C0_0_a811fe30f3"/>
     <path d="
M50.3971 -60.4017
L50.2543 -60.2526
L50.1096 -60.1037
L49.963 -59.955
L49.8145 -59.8065
L49.6643 -59.6581
L49.5124 -59.5097
L49.3588 -59.3615
L49.2037 -59.2133
L49.047 -59.0651
L48.8889 -58.9169
L48.7293 -58.7687
L48.5683 -58.6204
L48.4059 -58.4721
L48.2423 -58.3236
L48.0773 -58.175
L47.9111 -58.0262
L47.7436 -57.8773
L47.575 -57.7282
L47.4051 -57.5789
L47.2341 -57.4293
L47.062 -57.2796
L46.8887 -57.1295
L46.7143 -56.9792
L46.5388 -56.8285
L46.3623 -56.6776
L46.1846 -56.5263
L46.0059 -56.3747
L45.8261 -56.2227
L45.6452 -56.0703
L45.4633 -55.9176
L45.0963 -55.7644
L44.9112 -55.6108
L44.7251 -55.4568
L44.5379 -55.3023
L44.3497 -55.1474
L44.1604 -54.992
L43.97 -54.8361
L43.7785 -54.6798
L43.586 -54.5229
L43.3924 -54.3655
L43.1977 -54.2076
L43.0019 -54.0492
L42.805 -53.8902
L42.6069 -53.7306
L42.4078 -53.5705
L42.2074 -53.4099
L42.006 -53.2486
L41.8033 -53.0868
L41.5995 -52.9244
L41.3945 -52.7615
L41.1883 -52.5979
L40.9809 -52.4338
L40.7723 -52.269
L40.5625 -52.1037
L40.3513 -51.9378
L40.139 -51.7713
L39.9253 -51.6043
L39.7104 -51.4366
L39.4942 -51.2684
L39.2766 -51.0996
L39.0577 -50.9303
L38.8375 -50.7605
L38.616 -50.5901
L38.3931 -50.4192
L38.1688 -50.2478
L37.9431 -50.0759
L37.716 -49.9036
L37.4876 -49.7308
L37.2577 -49.5577
L37.0264 -49.3841
L36.7937 -49.2102
L36.5595 -49.036
L36.3239 -48.8615
L36.0868 -48.6867
L35.8483 -48.5118
L35.6083 -48.3366
L35.3668 -48.1614
L35.1239 -47.9861
L34.8795 -47.8107
L34.6336 -47.6354
L34.3863 -47.4602
L34.1375 -47.2852
L33.8872 -47.1103
L33.6354 -46.9358
L33.3822 -46.7616
L33.1275 -46.5878
L32.8714 -46.4146
L32.6138 -46.2419
L32.3548 -46.07
L32.0943 -45.8988
L31.8325 -45.7284
L31.5692 -45.559
L31.3046 -45.3907
L31.0386 -45.2236
L30.7713 -45.0577
L30.5026 -44.8931
L30.2326 -44.7301
L29.9614 -44.5686
L29.6889 -44.4089
L29.4151 -44.2509
L29.1402 -44.095
L28.8641 -43.9411
L28.5869 -43.7893
L28.3086 -43.6399
L28.0292 -43.4929
L27.7489 -43.3485
L27.4675 -43.2068
L27.1852 -43.0678
L26.9021 -42.9318
L26.6181 -42.7988
L26.3334 -42.669
L26.0479 -42.5425
L25.7618 -42.4193
L25.475 -42.2996
L25.1877 -42.1835
L24.9 -42.0711
L24.6118 -41.9625
L24.3233 -41.8578
L24.0346 -41.7571
L23.7456 -41.6603
L23.4565 -41.5677
L23.1674 -41.4793
L22.8783 -41.3951
L22.5893 -41.3152
L22.3006 -41.2396
L22.0121 -41.1684
L21.724 -41.1017
L21.4363 -41.0393
L21.1492 -40.9815
L20.8627 -40.9281
L20.577 -40.8791
L20.292 -40.8347
L20.0079 -40.7947
L19.7249 -40.7592
L19.4428 -40.7281
L19.162 -40.7015
L18.8824 -40.6792
L18.6041 -40.6613
L18.3272 -40.6477
L18.0518 -40.6385
L17.7779 -40.6334
L17.5057 -40.6326
L17.2352 -40.6359
L16.9666 -40.6433
L16.6997 -40.6548
L16.4349 -40.6703
L16.172 -40.6897
L15.9112 -40.7129
L15.6525 -40.7401
L15.396 -40.7709
L15.1417 -40.8055
L14.8897 -40.8437
L14.6401 -40.8856
L14.3929 -40.9309
L14.1482 -40.9798
L13.9059 -41.032
L13.6662 -41.0877
L13.429 -41.1466
L13.1945 -41.2088
L12.9626 -41.2743
L12.7334 -41.3429
L12.5069 -41.4146
L12.2831 -41.4894
L12.0621 -41.5673
L11.8439 -41.6481
L11.6286 -41.7319
L11.416 -41.8187
L11.2064 -41.9083
L10.9996 -42.0008
L10.7957 -42.0961
L10.5948 -42.1942
L10.3968 -42.2951
L10.2018 -42.3988
L10.0097 -42.5052
L9.82066 -42.6144
L9.6346 -42.7262
L9.45158 -42.8408
L9.27159 -42.9581
L9.09466 -43.078
L8.92081 -43.2007
L8.75005 -43.326
L8.58239 -43.4541
L8.66849 -43.5848
L8.81362 -44.077
L8.96703 -44.5528
L9.12867 -45.026
L9.2985 -45.4964
L9.47646 -45.9639
L9.6625 -46.4284
L9.85656 -46.8897
L10.0586 -47.3477
L10.2685 -47.8022
L10.4863 -48.2532
L10.7118 -48.7004
L10.9451 -49.1437
L11.1859 -49.5831
L11.4344 -50.0183
L11.6903 -50.4492
L11.9536 -50.8757
L12.2242 -51.2977
L12.5021 -51.7151
L12.7872 -52.1276
L13.0793 -52.5353
L13.3784 -52.9379
L13.6844 -53.3353
L13.9972 -53.7275
L14.3167 -54.1142
L14.6427 -54.4955
L14.9753 -54.8711
L15.3143 -55.2409
L15.6597 -55.6049
L16.0112 -55.963
L16.3687 -56.3149
L16.7323 -56.6607
L17.1017 -57.0001
L17.4769 -57.3332
L17.8578 -57.6598
L18.2441 -57.9798
L18.6359 -58.293
L19.033 -58.5995
L19.4352 -58.8991
L19.8425 -59.1918
L20.2547 -59.4773
L20.6717 -59.7557
L21.0933 -60.0269
L21.5195 -60.2908
L21.9501 -60.5472
L22.385 -60.7962
L22.8241 -61.0376
L23.2671 -61.2714
L23.7141 -61.4975
L24.1647 -61.7159
L24.619 -61.9264
L25.0768 -62.129
L25.5378 -62.3236
L26.0021 -62.5102
L26.4694 -62.6888
L26.9396 -62.8592
L27.4126 -63.0215
L27.8882 -63.1755
L28.3662 -63.3212
L28.8466 -63.4586
L29.3292 -63.5877
L29.8138 -63.7083
L30.3002 -63.8205
L30.7885 -63.9242
L31.2783 -64.0195
L31.7695 -64.1061
L32.262 -64.1843
L32.7557 -64.2538
L33.2503 -64.3147
L33.7458 -64.367
L34.242 -64.4107
L34.7387 -64.4457
L35.2358 -64.4721
L35.7332 -64.4898
L36.2306 -64.4988
L36.7279 -64.4991
L37.225 -64.4907
L37.7218 -64.4737
L38.218 -64.4479
L38.7135 -64.4136
L39.2083 -64.3705
L39.702 -64.3188
L40.1946 -64.2585
L40.686 -64.1896
L41.1759 -64.1121
L41.6642 -64.0261
L42.1508 -63.9315
L42.6356 -63.8284
L43.1183 -63.7168
L43.5988 -63.5967
L44.077 -63.4683
L44.5528 -63.3315
L45.026 -63.1864
L45.4964 -63.033
L45.9639 -62.8713
L46.4284 -62.7015
L46.8897 -62.5235
L47.3477 -62.3375
L47.8022 -62.1434
L48.2532 -61.9414
L48.7004 -61.7315
L49.1437 -61.5137
L49.5831 -61.2882
L50.0183 -61.0549
z
" id="C0_1_64ddafca7d"/>
     <path d="
M63.3086 -28.3583
L63.0972 -28.3286
L62.8846 -28.2981
L62.671 -28.2669
L62.4563 -28.235
L62.2405 -28.2025
L62.0237 -28.1694
L61.8058 -28.1357
L61.587 -28.1016
L61.3671 -28.0669
L61.1462 -28.0319
L60.9243 -27.9964
L60.7014 -27.9606
L60.4775 -27.9244
L60.2526 -27.8879
L60.0267 -27.8511
L59.7998 -27.8141
L59.5719 -27.7768
L59.343 -27.7392
L59.1131 -27.7014
L58.8823 -27.6635
L58.6504 -27.6253
L58.4174 -27.587
L58.1835 -27.5485
L57.9485 -27.5098
L57.7125 -27.471
L57.4754 -27.4321
L57.2373 -27.3931
L56.9981 -27.3539
L56.7578 -27.3146
L56.5164 -27.2752
L56.274 -27.2357
L56.0304 -27.1961
L55.7857 -27.1564
L55.5399 -27.1166
L55.2929 -27.0767
L55.0447 -27.0368
L54.7954 -26.9967
L54.5449 -26.9565
L54.2932 -26.9162
L54.0402 -26.8759
L53.7861 -26.8354
L53.5307 -26.7948
L53.274 -26.7541
L53.0161 -26.7133
L52.7569 -26.6723
L52.4965 -26.6313
L52.2347 -26.59
L51.9716 -26.5487
L51.7072 -26.5072
L51.4415 -26.4655
L51.1744 -26.4237
L50.906 -26.3816
L50.6363 -26.3394
L50.3651 -26.297
L50.0926 -26.2544
L49.8188 -26.2115
L49.5436 -26.1683
L49.267 -26.125
L48.989 -26.0813
L48.7096 -26.0373
L48.4289 -25.993
L48.1468 -25.9484
L47.8633 -25.9034
L47.5785 -25.8581
L47.2923 -25.8123
L47.0048 -25.7661
L46.716 -25.7195
L46.4258 -25.6724
L46.1344 -25.6247
L45.8417 -25.5766
L45.5477 -25.5279
L45.2525 -25.4786
L44.9561 -25.4286
L44.6585 -25.378
L44.3598 -25.3267
L44.06 -25.2747
L43.7591 -25.2218
L43.4572 -25.1682
L43.1543 -25.1137
L42.8505 -25.0583
L42.5457 -25.0019
L42.2402 -24.9445
L41.9339 -24.8861
L41.6268 -24.8266
L41.3191 -24.7659
L41.0108 -24.7041
L40.702 -24.6409
L40.3927 -24.5765
L40.0831 -24.5106
L39.7732 -24.4434
L39.4631 -24.3746
L39.1528 -24.3043
L38.8426 -24.2323
L38.5324 -24.1587
L38.2223 -24.0833
L37.9125 -24.0061
L37.6031 -23.927
L37.2941 -23.846
L36.9856 -23.763
L36.6778 -23.6779
L36.3708 -23.5907
L36.0647 -23.5013
L35.7596 -23.4096
L35.4556 -23.3157
L35.1528 -23.2194
L34.8513 -23.1206
L34.5513 -23.0194
L34.2529 -22.9157
L33.9561 -22.8094
L33.6611 -22.7006
L33.368 -22.5891
L33.0769 -22.475
L32.7879 -22.3581
L32.5012 -22.2386
L32.2168 -22.1164
L31.9348 -21.9914
L31.6553 -21.8637
L31.3785 -21.7333
L31.1043 -21.6001
L30.833 -21.4642
L30.5646 -21.3257
L30.2992 -21.1844
L30.0369 -21.0405
L29.7777 -20.8941
L29.5217 -20.745
L29.2689 -20.5934
L29.0196 -20.4394
L28.7736 -20.2829
L28.5311 -20.1241
L28.2921 -19.963
L28.0567 -19.7996
L27.8249 -19.6341
L27.5968 -19.4665
L27.3723 -19.2969
L27.1516 -19.1254
L26.9346 -18.952
L26.7215 -18.7768
L26.5121 -18.6
L26.3066 -18.4215
L26.1049 -18.2414
L25.9071 -18.06
L25.7132 -17.8771
L25.5232 -17.693
L25.337 -17.5076
L25.1548 -17.3212
L24.9765 -17.1336
L24.8022 -16.9451
L24.6317 -16.7557
L24.4652 -16.5655
L24.3025 -16.3745
L24.1438 -16.1828
L23.989 -15.9905
L23.8382 -15.7976
L23.6912 -15.6042
L23.5481 -15.4104
L23.4089 -15.2161
L23.2736 -15.0216
L23.1421 -14.8267
L23.0146 -14.6316
L22.8909 -14.4363
L22.771 -14.2408
L22.655 -14.0452
L22.5428 -13.8496
L22.4345 -13.6539
L22.33 -13.4581
L22.2293 -13.2624
L22.1325 -13.0667
L22.0394 -12.8711
L21.9502 -12.6755
L21.8649 -12.4801
L21.7833 -12.2848
L21.7056 -12.0896
L21.6316 -11.8945
L21.5616 -11.6996
L21.909 -11.5049
L22.3435 -11.2272
L22.7821 -10.985
L23.2248 -10.7505
L23.6714 -10.5237
L24.1217 -10.3046
L24.5756 -10.0933
L25.0331 -9.88997
L25.4938 -9.69456
L25.9578 -9.50717
L26.4248 -9.32784
L26.8947 -9.15665
L27.3675 -8.99362
L27.8428 -8.83883
L28.3206 -8.69231
L28.8008 -8.5541
L29.2832 -8.42426
L29.7676 -8.30282
L30.2539 -8.18981
L30.7419 -8.08527
L31.2316 -7.98924
L31.7227 -7.90174
L32.2151 -7.8228
L32.7087 -7.75244
L33.2032 -7.69069
L33.6986 -7.63756
L34.1948 -7.59307
L34.6914 -7.55723
L35.1885 -7.53006
L35.6858 -7.51156
L36.1832 -7.50173
L36.6806 -7.50059
L37.1777 -7.50813
L37.6745 -7.52434
L38.1708 -7.54924
L38.6664 -7.58279
L39.1612 -7.62501
L39.6551 -7.67586
L40.1478 -7.73535
L40.6393 -7.80344
L41.1293 -7.88013
L41.6178 -7.96538
L42.1046 -8.05917
L42.5895 -8.16147
L43.0724 -8.27224
L43.5532 -8.39147
L44.0316 -8.51911
L44.5076 -8.65511
L44.9811 -8.79945
L45.4517 -8.95207
L45.9196 -9.11293
L46.3843 -9.28198
L46.846 -9.45917
L47.3043 -9.64445
L47.7591 -9.83775
L48.2104 -10.039
L48.658 -10.2482
L49.1017 -10.4652
L49.5414 -10.69
L49.977 -10.9225
L50.4084 -11.1627
L50.8353 -11.4104
L51.2578 -11.6656
L51.6756 -11.9282
L52.0886 -12.1982
L52.4967 -12.4754
L52.8998 -12.7597
L53.2977 -13.0512
L53.6904 -13.3496
L54.0777 -13.655
L54.4594 -13.9671
L54.8356 -14.286
L55.206 -14.6114
L55.5706 -14.9434
L55.9292 -15.2818
L56.2817 -15.6265
L56.628 -15.9774
L56.9681 -16.3344
L57.3018 -16.6975
L57.629 -17.0663
L57.9496 -17.441
L58.2635 -17.8213
L58.5706 -18.2071
L58.8709 -18.5984
L59.1642 -18.995
L59.4504 -19.3967
L59.7295 -19.8035
L60.0014 -20.2152
L60.266 -20.6318
L60.5231 -21.053
L60.7728 -21.4788
L61.015 -21.909
L61.2495 -22.3435
L61.4763 -22.7821
L61.6954 -23.2248
L61.9067 -23.6714
L62.11 -24.1217
L62.3054 -24.5756
L62.4928 -25.0331
L62.6722 -25.4938
L62.8434 -25.9578
L63.0064 -26.4248
L63.1612 -26.8947
z
" id="C0_2_7189afc1db"/>
    </defs>
    <g clip-path="url(#p1bffca34e9)">
     <use style="fill:#ffffff;stroke:#000000;stroke-width:2.0;" x="0.0" xlink:href="#C0_0_a811fe30f3" y="72.0"/>
    </g>
    <g clip-path="url(#p1bffca34e9)">
     <use style="fill:#ff0000;stroke:#000000;stroke-width:2.0;" x="0.0" xlink:href="#C0_1_64ddafca7d" y="72.0"/>
    </g>
    <g clip-path="url(#p1bffca34e9)">
     <use style="fill:#ff0000;stroke:#000000;stroke-width:2.0;" x="0.0" xlink:href="#C0_2_7189afc1db" y="72.0"/>
    </g>
   </g>
  </g>
 </g>
 <defs>
  <clipPath id="p1bffca34e9">
   <rect height="72.0" width="72.0" x="0.0" y="0.0"/>
  </clipPath>
 </defs>
</svg>
