<?xml version="1.0" encoding="utf-8" standalone="no"?>
<!DOCTYPE svg PUBLIC "-//W3C//DTD SVG 1.1//EN"
  "http://www.w3.org/Graphics/SVG/1.1/DTD/svg11.dtd">
<!-- Created with matplotlib (http://matplotlib.org/) -->
<svg height="72pt" version="1.1" viewBox="0 0 72 72" width="72pt" xmlns="http://www.w3.org/2000/svg" xmlns:xlink="http://www.w3.org/1999/xlink">
 <defs>
  <style type="text/css">
*{stroke-linecap:butt;stroke-linejoin:round;}
  </style>
 </defs>
 <g id="figure_1">
  <g id="patch_1">
   <path d="
M0 72
L72 72
L72 0
L0 0
z
" style="fill:none;"/>
  </g>
  <g id="axes_1">
   <g id="PatchCollection_1">
    <defs>
     <path d="
M36 -7.5
C43.5583 -7.5 50.808 -10.5029 56.1525 -15.8475
C61.4971 -21.192 64.5 -28.4417 64.5 -36
C64.5 -43.5583 61.4971 -50.808 56.1525 -56.1525
C50.808 -61.4971 43.5583 -64.5 36 -64.5
C28.4417 -64.5 21.192 -61.4971 15.8475 -56.1525
C10.5029 -50.808 7.5 -43.5583 7.5 -36
C7.5 -28.4417 10.5029 -21.192 15.8475 -15.8475
C21.192 -10.5029 28.4417 -7.5 36 -7.5
z
" id="C0_0_a811fe30f3"/>
     <path d="
M7.6253 -38.4426
L7.84636 -38.6377
L8.07183 -38.8173
L8.30138 -38.9815
L8.53468 -39.1303
L8.77145 -39.264
L9.01139 -39.3828
L9.25423 -39.487
L9.49972 -39.5768
L9.74761 -39.6526
L9.99769 -39.7149
L10.2497 -39.764
L10.5036 -39.8005
L10.759 -39.8249
L11.0159 -39.8376
L11.2741 -39.8391
L11.5334 -39.83
L11.7938 -39.8109
L12.055 -39.7823
L12.3171 -39.7446
L12.5798 -39.6985
L12.8431 -39.6445
L13.1069 -39.583
L13.3711 -39.5145
L13.6356 -39.4396
L13.9004 -39.3586
L14.1654 -39.272
L14.4305 -39.1803
L14.6956 -39.0838
L14.9607 -38.9829
L15.2257 -38.8779
L15.4905 -38.7692
L15.7552 -38.6572
L16.0196 -38.5421
L16.2837 -38.4242
L16.5475 -38.3037
L16.8108 -38.181
L17.0738 -38.0562
L17.3362 -37.9296
L17.5981 -37.8013
L17.8595 -37.6716
L18.1203 -37.5407
L18.3805 -37.4086
L18.64 -37.2755
L18.8989 -37.1417
L19.1571 -37.0072
L19.4146 -36.872
L19.6713 -36.7365
L19.9273 -36.6005
L20.1826 -36.4643
L20.4371 -36.3279
L20.6908 -36.1913
L20.9437 -36.0548
L21.1959 -35.9182
L21.4473 -35.7817
L21.6978 -35.6453
L21.9476 -35.5091
L22.1967 -35.3732
L22.4449 -35.2374
L22.6924 -35.1019
L22.9392 -34.9668
L23.1852 -34.832
L23.4304 -34.6975
L23.675 -34.5634
L23.9188 -34.4297
L24.162 -34.2964
L24.4045 -34.1635
L24.6463 -34.031
L24.8876 -33.8989
L25.1282 -33.7673
L25.3682 -33.6361
L25.6077 -33.5053
L25.8467 -33.3749
L26.0851 -33.245
L26.3231 -33.1155
L26.5606 -32.9864
L26.7976 -32.8577
L27.0343 -32.7294
L27.2706 -32.6015
L27.5065 -32.4739
L27.7422 -32.3468
L27.9775 -32.22
L28.2126 -32.0935
L28.4475 -31.9674
L28.6822 -31.8416
L28.9168 -31.7161
L29.1512 -31.5909
L29.3855 -31.466
L29.6197 -31.3413
L29.854 -31.2169
L30.0882 -31.0927
L30.3225 -30.9687
L30.5568 -30.8449
L31.0258 -30.7213
L31.2606 -30.5979
L31.4956 -30.4746
L31.7308 -30.3514
L31.9662 -30.2283
L32.202 -30.1054
L32.4381 -29.9825
L32.6746 -29.8597
L32.9115 -29.7369
L33.1488 -29.6141
L33.3865 -29.4913
L33.6248 -29.3685
L33.8636 -29.2457
L34.103 -29.1228
L34.3429 -28.9998
L34.5835 -28.8768
L34.8247 -28.7536
L35.0665 -28.6303
L35.3091 -28.5069
L35.5524 -28.3833
L35.7965 -28.2595
L36.0413 -28.1355
L36.2869 -28.0113
L36.5333 -27.8868
L36.7806 -27.7621
L37.0287 -27.6371
L37.2777 -27.5117
L37.5276 -27.3861
L37.7784 -27.2601
L38.03 -27.1337
L38.2826 -27.007
L38.5362 -26.8798
L38.7906 -26.7522
L39.046 -26.6242
L39.3023 -26.4957
L39.5595 -26.3667
L39.8176 -26.2372
L40.0767 -26.1071
L40.3366 -25.9765
L40.5973 -25.8453
L40.8589 -25.7135
L41.1213 -25.581
L41.3845 -25.4479
L41.6484 -25.3141
L41.9129 -25.1795
L42.1781 -25.0442
L42.4439 -24.9081
L42.7101 -24.7712
L42.9768 -24.6334
L43.2438 -24.4947
L43.511 -24.3551
L43.7784 -24.2145
L44.0458 -24.0729
L44.3132 -23.9302
L44.5803 -23.7863
L44.847 -23.6413
L45.1133 -23.495
L45.3789 -23.3475
L45.6436 -23.1985
L45.9073 -23.0481
L46.1698 -22.8962
L46.4308 -22.7426
L46.6901 -22.5874
L46.9474 -22.4303
L47.2026 -22.2713
L47.4552 -22.1104
L47.7051 -21.9473
L47.9519 -21.7819
L48.1953 -21.6141
L48.4349 -21.4439
L48.6703 -21.2709
L48.9013 -21.0951
L49.1273 -20.9164
L49.3481 -20.7345
L49.5631 -20.5492
L49.7719 -20.3605
L49.9741 -20.1681
L50.1693 -19.9719
L50.3569 -19.7716
L50.5365 -19.5671
L50.7076 -19.3582
L50.8697 -19.1448
L51.0224 -18.9267
L51.1652 -18.7038
L51.2976 -18.4759
L51.4192 -18.2429
L51.5296 -18.0048
L51.6284 -17.7614
L51.7151 -17.5128
L51.7895 -17.259
L51.8511 -16.9999
L51.8998 -16.7357
L51.9352 -16.4664
L51.9572 -16.1922
L51.9655 -15.9132
L51.9599 -15.6297
L51.9405 -15.3418
L51.9071 -15.05
L51.8596 -14.7543
L51.7982 -14.4553
L51.7227 -14.1532
L51.6334 -13.8484
L51.5302 -13.5413
L51.4133 -13.2324
L51.2829 -12.9219
L51.1391 -12.6105
L50.9822 -12.2984
L50.8123 -11.9861
L50.3952 -11.6741
L49.9638 -11.4027
L49.528 -11.1552
L49.0882 -10.9153
L48.6443 -10.683
L48.1967 -10.4585
L47.7452 -10.2417
L47.2903 -10.0327
L46.8318 -9.8317
L46.3701 -9.63864
L45.9053 -9.45362
L45.4374 -9.27668
L44.9666 -9.10788
L44.4931 -8.94727
L44.017 -8.7949
L43.5385 -8.65082
L43.0576 -8.51507
L42.5747 -8.38769
L42.0897 -8.26872
L41.6029 -8.1582
L41.1143 -8.05616
L40.6242 -7.96264
L40.1327 -7.87765
L39.6399 -7.80123
L39.1461 -7.7334
L38.6512 -7.67418
L38.1556 -7.62358
L37.6593 -7.58164
L37.1625 -7.54834
L36.6653 -7.52372
L36.168 -7.50777
L35.6706 -7.5005
L35.1733 -7.5019
L34.6762 -7.51199
L34.1795 -7.53076
L33.6834 -7.5582
L33.188 -7.5943
L32.6935 -7.63906
L32.2 -7.69245
L31.7076 -7.75447
L31.2165 -7.82509
L30.7269 -7.9043
L30.2389 -7.99206
L29.7527 -8.08835
L29.2683 -8.19315
L28.786 -8.30641
L28.3059 -8.42812
L27.8282 -8.55822
L27.3529 -8.69668
L26.8803 -8.84345
L26.4104 -8.9985
L25.9435 -9.16177
L25.4796 -9.33322
L25.019 -9.51279
L24.5617 -9.70043
L24.1078 -9.89608
L23.6576 -10.0997
L23.2112 -10.3112
L22.7686 -10.5305
L22.3301 -10.7576
L21.8957 -10.9923
L21.4657 -11.2347
L21.04 -11.4846
L20.6189 -11.742
L20.2025 -12.0068
L19.791 -12.2789
L19.3843 -12.5582
L18.9827 -12.8447
L18.5863 -13.1382
L18.1952 -13.4387
L17.8095 -13.746
L17.4294 -14.0601
L17.0549 -14.3809
L16.6862 -14.7083
L16.3234 -15.0422
L15.9666 -15.3825
L15.6159 -15.729
L15.2713 -16.0817
L14.9331 -16.4405
L14.6014 -16.8053
L14.2761 -17.1759
L13.9574 -17.5522
L13.6455 -17.9341
L13.3404 -18.3216
L13.0422 -18.7144
L12.7509 -19.1125
L12.4668 -19.5158
L12.1898 -19.924
L11.9201 -20.3372
L11.6577 -20.7551
L11.4027 -21.1777
L11.1552 -21.6048
L10.9153 -22.0362
L10.683 -22.472
L10.4585 -22.9118
L10.2417 -23.3557
L10.0327 -23.8033
L9.8317 -24.2548
L9.63864 -24.7097
L9.45362 -25.1682
L9.27668 -25.6299
L9.10788 -26.0947
L8.94727 -26.5626
L8.7949 -27.0334
L8.65082 -27.5069
L8.51507 -27.983
L8.38769 -28.4615
L8.26872 -28.9424
L8.1582 -29.4253
L8.05616 -29.9103
L7.96264 -30.3971
L7.87765 -30.8857
L7.80123 -31.3758
L7.7334 -31.8673
L7.67418 -32.3601
L7.62358 -32.8539
L7.58164 -33.3488
L7.54834 -33.8444
L7.52372 -34.3407
L7.50777 -34.8375
L7.5005 -35.3347
L7.5019 -35.832
L7.51199 -36.3294
L7.53076 -36.8267
L7.5582 -37.3238
z
" id="C0_1_fb819c89e7"/>
     <path d="
M21.5274 -60.3726
L21.8901 -60.3861
L22.2555 -60.3988
L22.6232 -60.4106
L22.9928 -60.4211
L23.3641 -60.4301
L23.7367 -60.4373
L24.1104 -60.4427
L24.4848 -60.4459
L24.8598 -60.4469
L25.235 -60.4454
L25.6102 -60.4415
L25.9851 -60.4349
L26.3597 -60.4256
L26.7336 -60.4135
L27.1068 -60.3985
L27.479 -60.3807
L27.85 -60.3599
L28.2198 -60.3361
L28.5882 -60.3094
L28.955 -60.2796
L29.3203 -60.2469
L29.6837 -60.2112
L30.0454 -60.1725
L30.4051 -60.1308
L30.7629 -60.0862
L31.1186 -60.0387
L31.4722 -59.9883
L31.8236 -59.935
L32.1729 -59.8789
L32.5199 -59.8201
L32.8647 -59.7585
L33.2071 -59.6941
L33.5473 -59.6271
L33.8852 -59.5575
L34.2208 -59.4852
L34.554 -59.4104
L34.8849 -59.3331
L35.2135 -59.2533
L35.5398 -59.171
L35.8638 -59.0863
L36.1856 -58.9992
L36.505 -58.9098
L36.8223 -58.8181
L37.1373 -58.7241
L37.4501 -58.6278
L37.7608 -58.5293
L38.0693 -58.4287
L38.3757 -58.3258
L38.6801 -58.2208
L38.9824 -58.1136
L39.2827 -58.0044
L39.581 -57.893
L39.8774 -57.7796
L40.1719 -57.6641
L40.4646 -57.5465
L40.7554 -57.4269
L41.0444 -57.3053
L41.3317 -57.1816
L41.6172 -57.056
L41.9011 -56.9283
L42.1834 -56.7986
L42.464 -56.6669
L42.7431 -56.5332
L43.0207 -56.3974
L43.2968 -56.2597
L43.5714 -56.1199
L43.8446 -55.9781
L44.1165 -55.8343
L44.387 -55.6884
L44.6563 -55.5404
L44.9242 -55.3904
L45.1909 -55.2383
L45.4565 -55.084
L45.7208 -54.9277
L45.9841 -54.7692
L46.2462 -54.6086
L46.5072 -54.4457
L46.7673 -54.2807
L47.0262 -54.1134
L47.2843 -53.9439
L47.5413 -53.7721
L47.7974 -53.598
L48.0526 -53.4215
L48.3069 -53.2427
L48.5604 -53.0615
L48.813 -52.8779
L49.0647 -52.6918
L49.3157 -52.5033
L49.5659 -52.3122
L49.8153 -52.1186
L50.0639 -51.9223
L50.3118 -51.7235
L50.5589 -51.522
L50.8053 -51.3177
L51.051 -51.1108
L51.296 -50.9011
L51.5402 -50.6886
L51.7838 -50.4733
L52.0266 -50.2551
L52.2687 -50.034
L52.5101 -49.8099
L52.7507 -49.5829
L52.9906 -49.3529
L53.2298 -49.1199
L53.4682 -48.8838
L53.7059 -48.6446
L53.9427 -48.4024
L54.1788 -48.157
L54.414 -47.9084
L54.6484 -47.6567
L54.8819 -47.4018
L55.1145 -47.1437
L55.3462 -46.8824
L55.5769 -46.6179
L55.8066 -46.3502
L56.0353 -46.0794
L56.263 -45.8054
L56.4895 -45.5282
L56.7149 -45.2479
L56.9391 -44.9645
L57.1621 -44.6781
L57.3838 -44.3887
L57.6042 -44.0964
L57.8233 -43.8013
L58.041 -43.5034
L58.2572 -43.2027
L58.472 -42.8996
L58.6853 -42.594
L58.897 -42.286
L59.1072 -41.9759
L59.3157 -41.6638
L59.5226 -41.3498
L59.7279 -41.0343
L59.9314 -40.7173
L60.1333 -40.3991
L60.3335 -40.0799
L60.532 -39.7601
L60.7288 -39.4399
L60.924 -39.1195
L61.1175 -38.7995
L61.3094 -38.48
L61.4998 -38.1615
L61.6887 -37.8443
L61.8762 -37.5288
L62.0623 -37.2155
L62.2472 -36.9048
L62.4309 -36.5972
L62.6137 -36.2931
L62.7955 -35.993
L62.9766 -35.6974
L63.157 -35.4068
L63.337 -35.1216
L63.5166 -34.8425
L63.6961 -34.5699
L63.8755 -34.3042
L64.0551 -34.046
L64.4479 -33.7958
L64.4737 -34.2781
L64.4907 -34.7748
L64.4991 -35.2719
L64.4988 -35.7693
L64.4898 -36.2667
L64.4721 -36.764
L64.4457 -37.2611
L64.4107 -37.7578
L64.3671 -38.254
L64.3148 -38.7495
L64.2538 -39.2442
L64.1843 -39.7378
L64.1062 -40.2304
L64.0195 -40.7216
L63.9243 -41.2114
L63.8205 -41.6996
L63.7083 -42.1861
L63.5877 -42.6707
L63.4587 -43.1532
L63.3212 -43.6336
L63.1755 -44.1117
L63.0215 -44.5873
L62.8593 -45.0602
L62.6889 -45.5304
L62.5103 -45.9978
L62.3237 -46.462
L62.129 -46.9231
L61.9264 -47.3808
L61.7159 -47.8351
L61.4976 -48.2858
L61.2715 -48.7327
L61.0377 -49.1758
L60.7963 -49.6148
L60.5473 -50.0497
L60.2908 -50.4803
L60.027 -50.9065
L59.7558 -51.3282
L59.4774 -51.7452
L59.1918 -52.1574
L58.8992 -52.5647
L58.5996 -52.9669
L58.2931 -53.364
L57.9799 -53.7557
L57.6599 -54.1421
L57.3333 -54.5229
L57.0002 -54.8981
L56.6608 -55.2676
L56.315 -55.6311
L55.9631 -55.9887
L55.6051 -56.3402
L55.2411 -56.6855
L54.8712 -57.0246
L54.4956 -57.3572
L54.1143 -57.6832
L53.7276 -58.0027
L53.3354 -58.3155
L52.938 -58.6215
L52.5354 -58.9206
L52.1278 -59.2127
L51.7152 -59.4978
L51.2979 -59.7757
L50.8759 -60.0463
L50.4493 -60.3096
L50.0184 -60.5656
L49.5832 -60.814
L49.1439 -61.0549
L48.7005 -61.2881
L48.2533 -61.5136
L47.8024 -61.7314
L47.3479 -61.9413
L46.8899 -62.1434
L46.4285 -62.3374
L45.9641 -62.5235
L45.4965 -62.7015
L45.0261 -62.8713
L44.553 -63.0329
L44.0772 -63.1863
L43.599 -63.3315
L43.1184 -63.4683
L42.6357 -63.5967
L42.151 -63.7167
L41.6644 -63.8283
L41.176 -63.9314
L40.6861 -64.026
L40.1948 -64.1121
L39.7022 -64.1896
L39.2084 -64.2585
L38.7137 -64.3188
L38.2182 -64.3705
L37.7219 -64.4135
L37.2252 -64.4479
L36.7281 -64.4737
L36.2307 -64.4907
L35.7333 -64.4991
L35.236 -64.4988
L34.7389 -64.4898
L34.2422 -64.4721
L33.746 -64.4457
L33.2505 -64.4107
L32.7558 -64.3671
L32.2622 -64.3148
L31.7696 -64.2538
L31.2784 -64.1843
L30.7886 -64.1062
L30.3004 -64.0195
L29.8139 -63.9243
L29.3293 -63.8205
L28.8468 -63.7083
L28.3664 -63.5877
L27.8883 -63.4587
L27.4127 -63.3212
L26.9398 -63.1755
L26.4696 -63.0215
L26.0022 -62.8593
L25.538 -62.6889
L25.0769 -62.5103
L24.6192 -62.3237
L24.1649 -62.129
L23.7142 -61.9264
L23.2673 -61.7159
L22.8242 -61.4976
L22.3852 -61.2715
L21.9503 -61.0377
z
" id="C0_2_698b021401"/>
    </defs>
    <g clip-path="url(#p1bffca34e9)">
     <use style="fill:#ff0000;stroke:#000000;stroke-width:2.0;" x="0.0" xlink:href="#C0_0_a811fe30f3" y="72.0"/>
    </g>
    <g clip-path="url(#p1bffca34e9)">
     <use style="fill:#ffffff;stroke:#000000;stroke-width:2.0;" x="0.0" xlink:href="#C0_1_fb819c89e7" y="72.0"/>
    </g>
    <g clip-path="url(#p1bffca34e9)">
     <use style="fill:#ffffff;stroke:#000000;stroke-width:2.0;" x="0.0" xlink:href="#C0_2_698b021401" y="72.0"/>
    </g>
   </g>
  </g>
 </g>
 <defs>
  <clipPath id="p1bffca34e9">
   <rect height="72.0" width="72.0" x="0.0" y="0.0"/>
  </clipPath>
 </defs>
</svg>
