<?xml version="1.0" encoding="utf-8" standalone="no"?>
<!DOCTYPE svg PUBLIC "-//W3C//DTD SVG 1.1//EN"
  "http://www.w3.org/Graphics/SVG/1.1/DTD/svg11.dtd">
<!-- Created with matplotlib (http://matplotlib.org/) -->
<svg height="72pt" version="1.1" viewBox="0 0 72 72" width="72pt" xmlns="http://www.w3.org/2000/svg" xmlns:xlink="http://www.w3.org/1999/xlink">
 <defs>
  <style type="text/css">
*{stroke-linecap:butt;stroke-linejoin:round;}
  </style>
 </defs>
 <g id="figure_1">
  <g id="patch_1">
   <path d="
M0 72
L72 72
L72 0
L0 0
z
" style="fill:none;"/>
  </g>
  <g id="axes_1">
   <g id="PatchCollection_1">
    <defs>
     <path d="
M36 -7.5
C43.5583 -7.5 50.808 -10.5029 56.1525 -15.8475
C61.4971 -21.192 64.5 -28.4417 64.5 -36
C64.5 -43.5583 61.4971 -50.808 56.1525 -56.1525
C50.808 -61.4971 43.5583 -64.5 36 -64.5
C28.4417 -64.5 21.192 -61.4971 15.8475 -56.1525
C10.5029 -50.808 7.5 -43.5583 7.5 -36
C7.5 -28.4417 10.5029 -21.192 15.8475 -15.8475
C21.192 -10.5029 28.4417 -7.5 36 -7.5
z
" id="C0_0_a811fe30f3"/>
     <path d="
M57.7254 -17.6905
L57.8728 -18.0849
L57.9968 -18.4732
L58.0972 -18.8544
L58.1739 -19.2277
L58.2271 -19.5923
L58.2572 -19.9477
L58.2647 -20.2933
L58.2501 -20.629
L58.2144 -20.9545
L58.1585 -21.2699
L58.0833 -21.5752
L57.9899 -21.8708
L57.8796 -22.1569
L57.7533 -22.434
L57.6123 -22.7023
L57.4577 -22.9624
L57.2906 -23.2148
L57.112 -23.4598
L56.9229 -23.6979
L56.7243 -23.9296
L56.5171 -24.1553
L56.302 -24.3754
L56.08 -24.5902
L55.8516 -24.8
L55.6175 -25.0052
L55.3785 -25.2061
L55.1349 -25.4028
L54.8875 -25.5957
L54.6366 -25.785
L54.3826 -25.9709
L54.1261 -26.1535
L53.8674 -26.333
L53.6068 -26.5096
L53.3446 -26.6833
L53.0812 -26.8544
L52.8167 -27.0229
L52.5515 -27.1889
L52.2858 -27.3526
L52.0196 -27.5139
L51.7534 -27.6731
L51.4871 -27.8302
L51.2209 -27.9852
L50.9551 -28.1382
L50.6896 -28.2893
L50.4246 -28.4385
L50.1603 -28.586
L49.8966 -28.7317
L49.6337 -28.8757
L49.3716 -29.018
L49.1104 -29.1588
L48.8501 -29.298
L48.5908 -29.4357
L48.3325 -29.5719
L48.0752 -29.7067
L47.819 -29.8401
L47.5639 -29.9722
L47.3098 -30.103
L47.0568 -30.2325
L46.8049 -30.3608
L46.5541 -30.4879
L46.3044 -30.6138
L46.0557 -30.7386
L45.8081 -30.8624
L45.5616 -30.9851
L45.316 -31.1067
L45.0715 -31.2274
L44.8279 -31.3472
L44.5853 -31.466
L44.3436 -31.5839
L44.1028 -31.701
L43.8629 -31.8172
L43.6238 -31.9327
L43.3855 -32.0474
L43.148 -32.1613
L42.9112 -32.2746
L42.6751 -32.3872
L42.4396 -32.4991
L42.2048 -32.6104
L41.9705 -32.7211
L41.7368 -32.8313
L41.5035 -32.9409
L41.2707 -33.05
L41.0383 -33.1586
L40.8062 -33.2667
L40.5745 -33.3745
L40.343 -33.4818
L40.1118 -33.5887
L39.8807 -33.6953
L39.6498 -33.8015
L39.419 -33.9075
L39.1882 -34.0131
L38.9574 -34.1185
L38.7266 -34.2237
L38.2645 -34.3286
L38.0333 -34.4334
L37.8017 -34.5379
L37.5699 -34.6424
L37.3377 -34.7467
L37.1052 -34.8509
L36.8722 -34.955
L36.6387 -35.059
L36.4047 -35.1631
L36.1701 -35.267
L35.9348 -35.371
L35.6989 -35.475
L35.4622 -35.5791
L35.2247 -35.6832
L34.9864 -35.7873
L34.7472 -35.8916
L34.5071 -35.996
L34.2659 -36.1004
L34.0238 -36.2051
L33.7805 -36.3098
L33.5361 -36.4148
L33.2905 -36.5199
L33.0436 -36.6252
L32.7955 -36.7307
L32.546 -36.8365
L32.2951 -36.9424
L32.0428 -37.0486
L31.789 -37.1551
L31.5337 -37.2618
L31.2768 -37.3687
L31.0182 -37.476
L30.758 -37.5834
L30.4961 -37.6912
L30.2324 -37.7992
L29.9669 -37.9074
L29.6995 -38.016
L29.4303 -38.1247
L29.1592 -38.2337
L28.8861 -38.343
L28.611 -38.4524
L28.3339 -38.562
L28.0548 -38.6718
L27.7736 -38.7818
L27.4903 -38.8918
L27.2049 -39.002
L26.9173 -39.1121
L26.6277 -39.2223
L26.3359 -39.3324
L26.0419 -39.4424
L25.7458 -39.5522
L25.4475 -39.6618
L25.1471 -39.771
L24.8446 -39.8799
L24.54 -39.9882
L24.2333 -40.0959
L23.9247 -40.2029
L23.614 -40.3091
L23.3014 -40.4142
L22.9869 -40.5182
L22.6707 -40.6208
L22.3527 -40.722
L22.0331 -40.8214
L21.7119 -40.9189
L21.3893 -41.0142
L21.0654 -41.107
L20.7403 -41.1971
L20.4142 -41.284
L20.0872 -41.3676
L19.7595 -41.4473
L19.4313 -41.5228
L19.1027 -41.5935
L18.7741 -41.6591
L18.4455 -41.7189
L18.1173 -41.7723
L17.7897 -41.8188
L17.463 -41.8575
L17.1376 -41.8878
L16.8136 -41.9089
L16.4916 -41.9199
L16.1718 -41.9199
L15.8547 -41.9079
L15.5407 -41.883
L15.2301 -41.8441
L14.9236 -41.7902
L14.6215 -41.7204
L14.3244 -41.6334
L14.0328 -41.5286
L13.7472 -41.4048
L13.4682 -41.2615
L13.1964 -41.0979
L12.9323 -40.9135
L12.6764 -40.7082
L12.4292 -40.4817
L12.1913 -40.2342
L11.9632 -39.966
L11.7451 -39.6776
L11.5376 -39.3696
L11.341 -39.043
L11.1556 -38.6986
L10.9816 -38.3375
L10.8192 -37.9609
L10.6687 -37.57
L10.5301 -37.1659
L10.4035 -36.7499
L10.289 -36.3231
L10.1865 -35.8868
L10.0961 -35.4421
L10.0176 -34.9901
L9.95107 -34.5319
L9.89627 -34.0684
L9.85309 -33.6005
L9.82139 -33.1293
L9.80098 -32.6554
L9.79167 -32.1798
L9.79325 -31.703
L9.80549 -31.2258
L9.82816 -30.7488
L9.86102 -30.2726
L9.90382 -29.7977
L9.95632 -29.3245
L10.0182 -28.8537
L10.0893 -28.3854
L10.1693 -27.9202
L10.2579 -27.4584
L10.355 -27.0002
L10.4601 -26.546
L10.5731 -26.096
L10.6937 -25.6504
L10.8216 -25.2094
L10.9567 -24.7732
L11.0987 -24.3419
L11.2472 -23.9157
L11.4022 -23.4947
L11.5634 -23.0789
L11.7305 -22.6686
L11.9034 -22.2636
L12.0819 -21.8642
L12.2657 -21.4702
L12.4548 -21.0819
L12.6488 -20.6991
L12.8477 -20.3218
L13.0512 -19.9502
L13.2592 -19.5842
L13.4717 -19.2237
L13.6883 -18.8687
L13.909 -18.5193
L14.1337 -18.1754
L14.3622 -17.8369
L14.6627 -17.5038
L14.9957 -17.1063
L15.3351 -16.7368
L15.6808 -16.3732
L16.0327 -16.0155
L16.3906 -15.6639
L16.7545 -15.3186
L17.1243 -14.9795
L17.4999 -14.6468
L17.881 -14.3206
L18.2677 -14.0011
L18.6598 -13.6882
L19.0572 -13.3821
L19.4597 -13.0829
L19.8673 -12.7907
L20.2798 -12.5056
L20.6971 -12.2276
L21.119 -11.9569
L21.5455 -11.6935
L21.9764 -11.4375
L22.4115 -11.189
L22.8508 -10.948
L23.2941 -10.7146
L23.7413 -10.489
L24.1922 -10.2712
L24.6467 -10.0611
L25.1046 -9.859
L25.5659 -9.66484
L26.0303 -9.4787
L26.4978 -9.30064
L26.9682 -9.13071
L27.4413 -8.96897
L27.9171 -8.81546
L28.3953 -8.67023
L28.8758 -8.53333
L29.3585 -8.40479
L29.8432 -8.28466
L30.3298 -8.17297
L30.8181 -8.06975
L31.308 -7.97505
L31.7993 -7.88888
L32.2919 -7.81128
L32.7856 -7.74226
L33.2803 -7.68185
L33.7759 -7.63006
L34.2721 -7.58692
L34.7688 -7.55243
L35.266 -7.5266
L35.7633 -7.50945
L36.2607 -7.50098
L36.758 -7.50119
L37.2551 -7.51008
L37.7519 -7.52765
L38.2481 -7.55389
L38.7436 -7.5888
L39.2382 -7.63236
L39.7319 -7.68456
L40.2244 -7.74539
L40.7157 -7.81482
L41.2055 -7.89284
L41.6938 -7.97943
L42.1802 -8.07454
L42.6649 -8.17816
L43.1475 -8.29026
L43.6279 -8.4108
L44.1059 -8.53974
L44.5816 -8.67705
L45.0546 -8.82268
L45.5248 -8.97659
L45.9922 -9.13873
L46.4565 -9.30905
L46.9176 -9.4875
L47.3754 -9.67403
L47.8297 -9.86858
L48.2804 -10.0711
L48.7274 -10.2815
L49.1705 -10.4997
L49.6096 -10.7257
L50.0445 -10.9594
L50.4752 -11.2008
L50.9014 -11.4497
L51.3232 -11.706
L51.7402 -11.9698
L52.1525 -12.2409
L52.5598 -12.5192
L52.9621 -12.8047
L53.3592 -13.0972
L53.7511 -13.3967
L54.1375 -13.7031
L54.5184 -14.0163
L54.8937 -14.3362
L55.2632 -14.6627
L55.6268 -14.9957
L55.9845 -15.3351
L56.3361 -15.6808
L56.6814 -16.0327
L57.0205 -16.3906
L57.3532 -16.7545
z
" id="C0_1_9e3cc6f859"/>
     <path d="
M57.3981 -54.8173
L57.1051 -55.0878
L56.811 -55.3523
L56.5157 -55.6109
L56.2193 -55.8637
L55.9219 -56.1107
L55.6235 -56.3521
L55.3242 -56.5881
L55.0239 -56.8186
L54.7227 -57.0438
L54.4206 -57.2638
L54.1177 -57.4787
L53.8139 -57.6886
L53.5093 -57.8935
L53.2039 -58.0936
L52.8976 -58.2889
L52.5905 -58.4796
L52.2826 -58.6656
L51.9739 -58.8471
L51.6642 -59.0242
L51.3538 -59.1968
L51.0424 -59.3651
L50.7302 -59.5292
L50.417 -59.689
L50.1029 -59.8447
L49.7879 -59.9963
L49.4718 -60.1438
L49.1548 -60.2874
L48.8367 -60.4269
L48.5175 -60.5625
L48.1972 -60.6943
L47.8758 -60.8221
L47.5531 -60.9462
L47.2293 -61.0664
L46.9042 -61.1829
L46.5778 -61.2956
L46.25 -61.4045
L45.9209 -61.5097
L45.5904 -61.6112
L45.2583 -61.7089
L44.9248 -61.8029
L44.5897 -61.8932
L44.2529 -61.9798
L43.9146 -62.0626
L43.5745 -62.1417
L43.2326 -62.217
L42.889 -62.2886
L42.5435 -62.3563
L42.1962 -62.4202
L41.8468 -62.4802
L41.4955 -62.5363
L41.1422 -62.5885
L40.7867 -62.6367
L40.4292 -62.6809
L40.0694 -62.721
L39.7075 -62.757
L39.3433 -62.7888
L38.9767 -62.8164
L38.6078 -62.8397
L38.2366 -62.8585
L37.8629 -62.873
L37.4867 -62.8829
L37.1081 -62.8882
L36.727 -62.8888
L36.3433 -62.8847
L35.957 -62.8757
L35.5681 -62.8617
L35.1766 -62.8427
L34.7826 -62.8185
L34.3858 -62.7891
L33.9865 -62.7543
L33.5845 -62.7141
L33.1799 -62.6682
L32.7727 -62.6167
L32.3629 -62.5594
L31.9505 -62.4961
L31.5356 -62.4268
L31.1182 -62.3514
L30.6984 -62.2697
L30.2762 -62.1816
L29.8517 -62.087
L29.425 -61.9858
L28.9961 -61.8779
L28.5652 -61.7632
L28.1323 -61.6417
L27.6976 -61.5131
L27.2612 -61.3774
L26.8233 -61.2347
L26.384 -61.0847
L25.9434 -60.9275
L25.5019 -60.7631
L25.0595 -60.5914
L24.6164 -60.4124
L24.173 -60.2263
L23.7293 -60.0329
L23.2858 -59.8326
L22.8426 -59.6253
L22.3999 -59.4112
L21.9582 -59.1905
L21.5176 -58.9635
L21.0786 -58.7305
L20.6413 -58.4918
L20.2061 -58.2477
L19.7733 -57.9988
L19.3433 -57.7455
L18.9164 -57.4885
L18.4929 -57.2284
L18.0731 -56.966
L17.6573 -56.702
L17.2458 -56.4373
L16.839 -56.1729
L16.437 -55.9099
L16.0402 -55.6492
L15.6487 -55.3921
L15.2628 -55.1397
L14.8826 -54.8932
L14.8059 -54.6539
L15.1417 -55.0542
L15.4838 -55.4212
L15.8322 -55.7822
L16.1867 -56.1373
L16.5473 -56.4862
L16.9138 -56.8289
L17.286 -57.1652
L17.664 -57.4951
L18.0476 -57.8184
L18.4367 -58.1351
L18.831 -58.445
L19.2307 -58.7481
L19.6354 -59.0443
L20.0451 -59.3335
L20.4597 -59.6155
L20.879 -59.8904
L21.3029 -60.1579
L21.7313 -60.4182
L22.1641 -60.6709
L22.601 -60.9162
L23.0421 -61.1539
L23.487 -61.3839
L23.9358 -61.6062
L24.3883 -61.8206
L24.8443 -62.0273
L25.3037 -62.226
L25.7664 -62.4167
L26.2322 -62.5993
L26.7009 -62.7739
L27.1725 -62.9402
L27.6468 -63.0984
L28.1236 -63.2484
L28.6028 -63.39
L29.0843 -63.5233
L29.5679 -63.6482
L30.0534 -63.7647
L30.5408 -63.8727
L31.0298 -63.9723
L31.5203 -64.0633
L32.0122 -64.1457
L32.5053 -64.2196
L32.9995 -64.2849
L33.4946 -64.3416
L33.9904 -64.3897
L34.4869 -64.4291
L34.9838 -64.4598
L35.481 -64.4819
L35.9784 -64.4953
L36.4758 -64.5
L36.9731 -64.496
L37.47 -64.4834
L37.9665 -64.4621
L38.4624 -64.4321
L38.9576 -64.3934
L39.4519 -64.3461
L39.9451 -64.2902
L40.4371 -64.2256
L40.9277 -64.1525
L41.4169 -64.0708
L41.9044 -63.9805
L42.3901 -63.8817
L42.8738 -63.7744
L43.3555 -63.6586
L43.8349 -63.5345
L44.312 -63.4019
L44.7865 -63.261
L45.2583 -63.1118
L45.7273 -62.9543
L46.1933 -62.7886
L46.6563 -62.6148
L47.116 -62.4328
L47.5723 -62.2428
L48.0251 -62.0448
L48.4742 -61.8389
L48.9195 -61.6251
L49.3609 -61.4035
L49.7982 -61.1741
L50.2313 -60.9371
L50.6601 -60.6925
L51.0844 -60.4404
L51.5041 -60.1808
L51.9191 -59.9139
L52.3293 -59.6396
L52.7344 -59.3582
L53.1345 -59.0697
L53.5293 -58.7741
L53.9189 -58.4716
L54.3029 -58.1622
L54.6814 -57.8461
L55.0542 -57.5234
L55.4212 -57.1941
L55.7822 -56.8583
L56.1373 -56.5162
L56.4862 -56.1678
L56.8289 -55.8133
z
" id="C0_2_524bf0a89b"/>
    </defs>
    <g clip-path="url(#p1bffca34e9)">
     <use style="fill:#ffffff;stroke:#000000;stroke-width:2.0;" x="0.0" xlink:href="#C0_0_a811fe30f3" y="72.0"/>
    </g>
    <g clip-path="url(#p1bffca34e9)">
     <use style="fill:#ff0000;stroke:#000000;stroke-width:2.0;" x="0.0" xlink:href="#C0_1_9e3cc6f859" y="72.0"/>
    </g>
    <g clip-path="url(#p1bffca34e9)">
     <use style="fill:#ff0000;stroke:#000000;stroke-width:2.0;" x="0.0" xlink:href="#C0_2_524bf0a89b" y="72.0"/>
    </g>
   </g>
  </g>
 </g>
 <defs>
  <clipPath id="p1bffca34e9">
   <rect height="72.0" width="72.0" x="0.0" y="0.0"/>
  </clipPath>
 </defs>
</svg>
