<?xml version="1.0" encoding="utf-8" standalone="no"?>
<!DOCTYPE svg PUBLIC "-//W3C//DTD SVG 1.1//EN"
  "http://www.w3.org/Graphics/SVG/1.1/DTD/svg11.dtd">
<!-- Created with matplotlib (http://matplotlib.org/) -->
<svg height="72pt" version="1.1" viewBox="0 0 72 72" width="72pt" xmlns="http://www.w3.org/2000/svg" xmlns:xlink="http://www.w3.org/1999/xlink">
 <defs>
  <style type="text/css">
*{stroke-linecap:butt;stroke-linejoin:round;}
  </style>
 </defs>
 <g id="figure_1">
  <g id="patch_1">
   <path d="
M0 72
L72 72
L72 0
L0 0
z
" style="fill:none;"/>
  </g>
  <g id="axes_1">
   <g id="PatchCollection_1">
    <defs>
     <path d="
M36 -7.5
C43.5583 -7.5 50.808 -10.5029 56.1525 -15.8475
C61.4971 -21.192 64.5 -28.4417 64.5 -36
C64.5 -43.5583 61.4971 -50.808 56.1525 -56.1525
C50.808 -61.4971 43.5583 -64.5 36 -64.5
C28.4417 -64.5 21.192 -61.4971 15.8475 -56.1525
C10.5029 -50.808 7.5 -43.5583 7.5 -36
C7.5 -28.4417 10.5029 -21.192 15.8475 -15.8475
C21.192 -10.5029 28.4417 -7.5 36 -7.5
z
" id="C0_0_a811fe30f3"/>
     <path d="
M33.4999 -26.7974
L33.7531 -26.8986
L34.0056 -27.0021
L34.2573 -27.1079
L34.5083 -27.216
L34.7586 -27.3263
L35.0081 -27.4389
L35.257 -27.5538
L35.5051 -27.671
L35.7525 -27.7905
L35.9992 -27.9122
L36.2452 -28.0363
L36.4905 -28.1627
L36.7351 -28.2914
L36.9789 -28.4224
L37.2219 -28.5558
L37.4643 -28.6915
L37.7058 -28.8297
L37.9466 -28.9702
L38.1867 -29.1131
L38.4259 -29.2584
L38.6643 -29.4062
L38.9019 -29.5564
L39.1386 -29.7091
L39.3745 -29.8644
L39.6094 -30.0221
L39.8435 -30.1824
L40.0765 -30.3452
L40.3086 -30.5106
L40.5396 -30.6786
L40.7696 -30.8493
L40.9985 -31.0226
L41.2263 -31.1985
L41.4528 -31.3772
L41.6781 -31.5586
L41.9021 -31.7427
L42.1248 -31.9296
L42.346 -32.1193
L42.5658 -32.3118
L42.784 -32.5072
L43.0006 -32.7054
L43.2156 -32.9064
L43.4288 -33.1104
L43.6401 -33.3173
L43.8495 -33.5272
L44.0569 -33.7399
L44.2622 -33.9557
L44.4653 -34.1745
L44.6661 -34.3962
L44.8645 -34.621
L45.0603 -34.8488
L45.2535 -35.0796
L45.4439 -35.3135
L45.6315 -35.5504
L45.816 -35.7904
L45.9974 -36.0334
L46.1755 -36.2794
L46.3502 -36.5285
L46.5213 -36.7807
L46.6887 -37.0358
L46.8522 -37.294
L47.0117 -37.5551
L47.1671 -37.8192
L47.318 -38.0862
L47.4645 -38.3561
L47.6063 -38.6289
L47.7432 -38.9045
L47.8751 -39.1828
L48.0018 -39.4639
L48.1232 -39.7477
L48.239 -40.034
L48.349 -40.3229
L48.4532 -40.6143
L48.5514 -40.908
L48.6432 -41.2041
L48.7287 -41.5023
L48.8077 -41.8027
L48.8798 -42.1051
L48.9451 -42.4093
L49.0034 -42.7153
L49.0545 -43.023
L49.0983 -43.3322
L49.1346 -43.6428
L49.1633 -43.9546
L49.1844 -44.2676
L49.1976 -44.5814
L49.203 -44.8961
L49.2004 -45.2114
L49.1898 -45.5271
L49.171 -45.8431
L49.1441 -46.1593
L49.1089 -46.4753
L49.0655 -46.7911
L49.0139 -47.1064
L48.9541 -47.4211
L48.886 -47.735
L48.8096 -48.0479
L48.7251 -48.3596
L48.6325 -48.6698
L48.5318 -48.9785
L48.4231 -49.2855
L48.3064 -49.5904
L48.1819 -49.8932
L48.0496 -50.1937
L47.9098 -50.4917
L47.7624 -50.787
L47.6076 -51.0795
L47.4456 -51.3689
L47.2764 -51.6552
L47.1003 -51.9381
L46.9174 -52.2175
L46.7278 -52.4934
L46.5317 -52.7654
L46.3294 -53.0336
L46.1208 -53.2977
L45.9062 -53.5577
L45.6859 -53.8134
L45.4599 -54.0647
L45.2284 -54.3116
L44.9917 -54.5539
L44.7498 -54.7916
L44.503 -55.0245
L44.2514 -55.2526
L43.9952 -55.4758
L43.7346 -55.6941
L43.4698 -55.9074
L43.2008 -56.1156
L42.928 -56.3187
L42.6513 -56.5167
L42.3711 -56.7094
L42.0874 -56.897
L41.8004 -57.0792
L41.5103 -57.2562
L41.2171 -57.4279
L40.9211 -57.5943
L40.6223 -57.7554
L40.321 -57.9111
L40.0171 -58.0614
L39.711 -58.2064
L39.4026 -58.3461
L39.0921 -58.4804
L38.7796 -58.6093
L38.4652 -58.7328
L38.149 -58.8511
L37.8312 -58.9639
L37.5118 -59.0715
L37.1909 -59.1737
L36.8686 -59.2706
L36.545 -59.3622
L36.2202 -59.4485
L35.8943 -59.5295
L35.5673 -59.6053
L35.2394 -59.6758
L34.9105 -59.7411
L34.5808 -59.8011
L34.2504 -59.856
L33.9192 -59.9056
L33.5875 -59.95
L33.2551 -59.9893
L32.9222 -60.0234
L32.5889 -60.0523
L32.2552 -60.0761
L31.9211 -60.0947
L31.5867 -60.1082
L31.2521 -60.1166
L30.9172 -60.1198
L30.5823 -60.1179
L30.2472 -60.111
L29.912 -60.0989
L29.5769 -60.0816
L29.2418 -60.0593
L28.9067 -60.0319
L28.5718 -59.9993
L28.237 -59.9616
L27.9024 -59.9188
L27.5681 -59.8708
L27.234 -59.8177
L26.9003 -59.7595
L26.567 -59.6961
L26.2341 -59.6274
L25.9016 -59.5536
L25.5697 -59.4746
L25.2383 -59.3904
L24.9074 -59.3009
L24.5773 -59.2061
L24.2478 -59.106
L23.9191 -59.0007
L23.5912 -58.89
L23.2641 -58.7739
L22.938 -58.6525
L22.6128 -58.5256
L22.2886 -58.3934
L21.9655 -58.2556
L21.6436 -58.1124
L21.3229 -57.9636
L21.0035 -57.8093
L20.6854 -57.6495
L20.3688 -57.484
L20.0537 -57.3129
L19.7401 -57.1361
L19.4283 -56.9536
L19.1182 -56.7654
L18.81 -56.5715
L18.5037 -56.3718
L18.1995 -56.1663
L17.8974 -55.9549
L17.5976 -55.7377
L17.3002 -55.5147
L17.0052 -55.2858
L16.7129 -55.0509
L16.4233 -54.8102
L16.1365 -54.5635
L15.8527 -54.3109
L15.572 -54.0524
L15.2946 -53.7879
L15.0206 -53.5175
L14.7502 -53.2412
L14.4834 -52.9589
L14.2206 -52.6708
L13.9617 -52.3768
L13.7071 -52.077
L13.4568 -51.7714
L13.2111 -51.4601
L12.9701 -51.143
L12.7339 -50.8204
L12.5029 -50.4922
L12.2771 -50.1584
L12.0568 -49.8193
L11.8422 -49.4749
L11.6334 -49.1253
L11.4306 -48.7706
L11.2341 -48.411
L11.044 -48.0465
L10.8606 -47.6774
L10.684 -47.3038
L10.5145 -46.9259
L10.3521 -46.5438
L10.1972 -46.1577
L10.05 -45.768
L9.91048 -45.3747
L9.77898 -44.9781
L9.65565 -44.5785
L9.54065 -44.1761
L9.43416 -43.7712
L9.33632 -43.364
L9.24728 -42.955
L9.1672 -42.5442
L9.0962 -42.1322
L9.03439 -41.7192
L8.9819 -41.3055
L8.9388 -40.8915
L8.9052 -40.4774
L8.88116 -40.0638
L8.86673 -39.6509
L8.86196 -39.2391
L8.86687 -38.8287
L8.88148 -38.4201
L8.90579 -38.0138
L8.93976 -37.6099
L8.98337 -37.209
L9.03656 -36.8114
L9.09926 -36.4173
L9.1714 -36.0272
L9.25286 -35.6415
L9.34353 -35.2603
L9.44329 -34.8841
L9.55198 -34.5131
L9.66946 -34.1477
L9.79554 -33.7881
L9.93004 -33.4346
L10.0728 -33.0874
L10.2235 -32.7467
L10.3821 -32.4128
L10.5482 -32.0859
L10.7217 -31.7661
L10.9023 -31.4537
L11.0898 -31.1486
L11.2838 -30.8512
L11.4843 -30.5613
L11.6908 -30.2793
L11.9032 -30.0051
L12.1213 -29.7387
L12.3446 -29.4803
L12.573 -29.2298
L12.8063 -28.9872
L13.0442 -28.7525
L13.2864 -28.5258
L13.5326 -28.3069
L13.7828 -28.0959
L14.0365 -27.8926
L14.2937 -27.6971
L14.554 -27.5091
L14.8173 -27.3287
L15.0833 -27.1557
L15.3518 -26.9901
L15.6227 -26.8317
L15.8958 -26.6805
L16.1708 -26.5362
L16.4476 -26.3989
L16.726 -26.2683
L17.0059 -26.1444
L17.287 -26.0269
L17.5694 -25.9159
L17.8527 -25.8111
L18.137 -25.7125
L18.422 -25.6199
L18.7076 -25.5331
L18.9937 -25.452
L19.2803 -25.3766
L19.5672 -25.3067
L19.8542 -25.2421
L20.1414 -25.1827
L20.4287 -25.1285
L20.7158 -25.0792
L21.0029 -25.0348
L21.2898 -24.9952
L21.5764 -24.9602
L21.8627 -24.9298
L22.1486 -24.9038
L22.4341 -24.8821
L22.7191 -24.8646
L23.0035 -24.8512
L23.2875 -24.8419
L23.5708 -24.8365
L23.8535 -24.8349
L24.1355 -24.8371
L24.4168 -24.8429
L24.6974 -24.8524
L24.9773 -24.8653
L25.2564 -24.8817
L25.5348 -24.9014
L25.8123 -24.9244
L26.089 -24.9506
L26.3649 -24.98
L26.64 -25.0125
L26.9142 -25.048
L27.1876 -25.0865
L27.4602 -25.1279
L27.7319 -25.1722
L28.0028 -25.2193
L28.2728 -25.2691
L28.5419 -25.3217
L28.8102 -25.377
L29.0777 -25.435
L29.3443 -25.4955
L29.6101 -25.5587
L29.875 -25.6243
L30.1391 -25.6925
L30.4024 -25.7632
L30.6648 -25.8363
L30.9265 -25.9119
L31.1873 -25.9899
L31.4474 -26.0703
L31.7066 -26.153
L31.9651 -26.2381
L32.2228 -26.3255
L32.4798 -26.4153
L32.7359 -26.5074
L32.9913 -26.6017
z
" id="C0_1_9bb0c5bf4d"/>
    </defs>
    <g clip-path="url(#p1bffca34e9)">
     <use style="fill:#ff0000;stroke:#000000;stroke-width:2.0;" x="0.0" xlink:href="#C0_0_a811fe30f3" y="72.0"/>
    </g>
    <g clip-path="url(#p1bffca34e9)">
     <use style="fill:#ffffff;stroke:#000000;stroke-width:2.0;" x="0.0" xlink:href="#C0_1_9bb0c5bf4d" y="72.0"/>
    </g>
   </g>
  </g>
 </g>
 <defs>
  <clipPath id="p1bffca34e9">
   <rect height="72.0" width="72.0" x="0.0" y="0.0"/>
  </clipPath>
 </defs>
</svg>
