<?xml version="1.0" encoding="utf-8" standalone="no"?>
<!DOCTYPE svg PUBLIC "-//W3C//DTD SVG 1.1//EN"
  "http://www.w3.org/Graphics/SVG/1.1/DTD/svg11.dtd">
<!-- Created with matplotlib (http://matplotlib.org/) -->
<svg height="72pt" version="1.1" viewBox="0 0 72 72" width="72pt" xmlns="http://www.w3.org/2000/svg" xmlns:xlink="http://www.w3.org/1999/xlink">
 <defs>
  <style type="text/css">
*{stroke-linecap:butt;stroke-linejoin:round;}
  </style>
 </defs>
 <g id="figure_1">
  <g id="patch_1">
   <path d="
M0 72
L72 72
L72 0
L0 0
z
" style="fill:none;"/>
  </g>
  <g id="axes_1">
   <g id="PatchCollection_1">
    <defs>
     <path d="
M36 -7.5
C43.5583 -7.5 50.808 -10.5029 56.1525 -15.8475
C61.4971 -21.192 64.5 -28.4417 64.5 -36
C64.5 -43.5583 61.4971 -50.808 56.1525 -56.1525
C50.808 -61.4971 43.5583 -64.5 36 -64.5
C28.4417 -64.5 21.192 -61.4971 15.8475 -56.1525
C10.5029 -50.808 7.5 -43.5583 7.5 -36
C7.5 -28.4417 10.5029 -21.192 15.8475 -15.8475
C21.192 -10.5029 28.4417 -7.5 36 -7.5
z
" id="C0_0_a811fe30f3"/>
     <path d="
M37.4852 -64.3573
L37.5402 -64.0849
L37.6217 -63.8046
L37.725 -63.5172
L37.8461 -63.2233
L37.9814 -62.9236
L38.1279 -62.6187
L38.283 -62.3091
L38.4444 -61.9954
L38.6105 -61.6779
L38.7797 -61.3571
L38.9507 -61.0335
L39.1226 -60.7074
L39.2944 -60.3793
L39.4656 -60.0493
L39.6354 -59.718
L39.8035 -59.3855
L39.9694 -59.0522
L40.1328 -58.7183
L40.2936 -58.3841
L40.4514 -58.0499
L40.6062 -57.7159
L40.7577 -57.3822
L40.9061 -57.049
L41.0511 -56.7166
L41.1927 -56.3851
L41.3309 -56.0547
L41.4658 -55.7254
L41.5973 -55.3975
L41.7254 -55.0709
L41.8502 -54.7459
L41.9717 -54.4225
L42.09 -54.1007
L42.2051 -53.7807
L42.3171 -53.4625
L42.426 -53.1462
L42.5319 -52.8317
L42.6349 -52.5192
L42.735 -52.2086
L42.8323 -51.9
L42.9268 -51.5934
L43.0187 -51.2887
L43.108 -50.986
L43.1947 -50.6854
L43.279 -50.3866
L43.3608 -50.0898
L43.4403 -49.795
L43.5175 -49.502
L43.5925 -49.211
L43.6653 -48.9217
L43.736 -48.6343
L43.8047 -48.3487
L43.8713 -48.0648
L43.9361 -47.7826
L43.9989 -47.5021
L44.0599 -47.2232
L44.1192 -46.9458
L44.1767 -46.67
L44.2324 -46.3956
L44.2866 -46.1227
L44.3391 -45.8511
L44.3901 -45.5808
L44.4395 -45.3118
L44.4874 -45.044
L44.5339 -44.7773
L44.579 -44.5118
L44.6227 -44.2472
L44.665 -43.9837
L44.706 -43.721
L44.7457 -43.4593
L44.7841 -43.1983
L44.8212 -42.9381
L44.8572 -42.6785
L44.8919 -42.4196
L44.9255 -42.1613
L44.9578 -41.9034
L44.9891 -41.646
L45.0192 -41.389
L45.0483 -41.1323
L45.0762 -40.8759
L45.103 -40.6197
L45.1288 -40.3636
L45.1535 -40.1076
L45.1772 -39.8516
L45.2215 -39.5956
L45.2421 -39.3395
L45.2617 -39.0832
L45.2802 -38.8266
L45.2978 -38.5698
L45.3143 -38.3126
L45.3299 -38.055
L45.3444 -37.7969
L45.358 -37.5383
L45.3705 -37.279
L45.382 -37.0191
L45.3925 -36.7585
L45.4019 -36.497
L45.4104 -36.2347
L45.4177 -35.9714
L45.4241 -35.7072
L45.4293 -35.4419
L45.4335 -35.1754
L45.4366 -34.9078
L45.4386 -34.6389
L45.4395 -34.3687
L45.4392 -34.0971
L45.4378 -33.8241
L45.4352 -33.5495
L45.4313 -33.2733
L45.4263 -32.9955
L45.42 -32.716
L45.4124 -32.4347
L45.4035 -32.1516
L45.3933 -31.8665
L45.3817 -31.5795
L45.3687 -31.2904
L45.3543 -30.9993
L45.3383 -30.706
L45.3209 -30.4104
L45.3019 -30.1126
L45.2814 -29.8125
L45.2591 -29.51
L45.2353 -29.2051
L45.2096 -28.8976
L45.1822 -28.5876
L45.153 -28.2751
L45.1219 -27.9599
L45.0889 -27.642
L45.0539 -27.3214
L45.0169 -26.9981
L44.9778 -26.6721
L44.9365 -26.3432
L44.8931 -26.0115
L44.8473 -25.6771
L44.7993 -25.3398
L44.7489 -24.9996
L44.6961 -24.6567
L44.6409 -24.311
L44.5831 -23.9625
L44.5227 -23.6112
L44.4598 -23.2573
L44.3942 -22.9007
L44.3259 -22.5416
L44.255 -22.18
L44.1813 -21.8159
L44.1049 -21.4496
L44.0258 -21.0811
L43.944 -20.7106
L43.8596 -20.3381
L43.7726 -19.964
L43.6831 -19.5883
L43.5913 -19.2114
L43.4973 -18.8334
L43.4013 -18.4545
L43.3035 -18.0751
L43.2043 -17.6956
L43.1041 -17.3161
L43.0033 -16.9372
L42.9025 -16.5592
L42.8025 -16.1826
L42.7041 -15.8079
L42.6082 -15.4357
L42.5163 -15.0666
L42.4298 -14.7013
L42.3504 -14.3406
L42.2804 -13.9854
L42.2223 -13.6367
L42.1791 -13.2956
L42.1541 -12.9634
L42.1511 -12.6415
L42.1742 -12.3314
L42.2275 -12.0348
L42.315 -11.7535
L42.44 -11.4891
L42.605 -11.2432
L42.8112 -11.0172
L43.0586 -10.812
L43.3456 -10.6284
L43.6697 -10.4664
L44.0277 -10.3262
L44.4158 -10.2071
L44.8303 -10.1088
L45.2675 -10.0306
L45.724 -9.97182
L46.1966 -9.93179
L46.6825 -9.90992
L47.1793 -9.90561
L47.6834 -9.91834
L48.1353 -10.0048
L48.5835 -10.2127
L49.0279 -10.4284
L49.4683 -10.6519
L49.9046 -10.8831
L50.3366 -11.122
L50.7643 -11.3685
L51.1875 -11.6224
L51.6061 -11.8838
L52.0199 -12.1526
L52.4288 -12.4286
L52.8328 -12.7117
L53.2316 -13.002
L53.6251 -13.2993
L54.0133 -13.6035
L54.396 -13.9145
L54.7731 -14.2322
L55.1445 -14.5566
L55.5101 -14.8875
L55.8697 -15.2248
L56.2232 -15.5685
L56.5706 -15.9184
L56.9117 -16.2744
L57.2465 -16.6364
L57.5748 -17.0043
L57.8965 -17.378
L58.2115 -17.7574
L58.5198 -18.1423
L58.8212 -18.5326
L59.1157 -18.9283
L59.4031 -19.3292
L59.6834 -19.7352
L59.9565 -20.1461
L60.2223 -20.5618
L60.4807 -20.9823
L60.7316 -21.4073
L60.975 -21.8368
L61.2109 -22.2706
L61.439 -22.7085
L61.6594 -23.1506
L61.8719 -23.5965
L62.0766 -24.0462
L62.2733 -24.4995
L62.4621 -24.9564
L62.6428 -25.4166
L62.8153 -25.88
L62.9797 -26.3466
L63.1359 -26.816
L63.2838 -27.2883
L63.4234 -27.7632
L63.5546 -28.2406
L63.6775 -28.7204
L63.7919 -29.2024
L63.8978 -29.6865
L63.9953 -30.1725
L64.0842 -30.6603
L64.1646 -31.1497
L64.2364 -31.6405
L64.2996 -32.1327
L64.3542 -32.6261
L64.4001 -33.1205
L64.4374 -33.6158
L64.466 -34.1118
L64.486 -34.6084
L64.4972 -35.1054
L64.4998 -35.6027
L64.4937 -36.1001
L64.479 -36.5975
L64.4555 -37.0947
L64.4234 -37.5915
L64.3826 -38.0879
L64.3332 -38.5837
L64.2752 -39.0786
L64.2085 -39.5726
L64.1333 -40.0655
L64.0495 -40.5572
L63.9571 -41.0475
L63.8562 -41.5363
L63.7469 -42.0234
L63.629 -42.5086
L63.5028 -42.9919
L63.3682 -43.473
L63.2252 -43.9519
L63.074 -44.4283
L62.9145 -44.9021
L62.7468 -45.3733
L62.571 -45.8416
L62.3871 -46.3069
L62.1951 -46.769
L61.9952 -47.2279
L61.7873 -47.6834
L61.5716 -48.1353
L61.3481 -48.5835
L61.1169 -49.0279
L60.878 -49.4683
L60.6315 -49.9046
L60.3776 -50.3366
L60.1162 -50.7643
L59.8474 -51.1875
L59.5714 -51.6061
L59.2883 -52.0199
L58.998 -52.4288
L58.7007 -52.8328
L58.3965 -53.2316
L58.0855 -53.6251
L57.7678 -54.0133
L57.4434 -54.396
L57.1125 -54.7731
L56.7752 -55.1445
L56.4315 -55.5101
L56.0816 -55.8697
L55.7256 -56.2232
L55.3636 -56.5706
L54.9957 -56.9117
L54.622 -57.2465
L54.2426 -57.5748
L53.8577 -57.8965
L53.4674 -58.2115
L53.0717 -58.5198
L52.6708 -58.8212
L52.2648 -59.1157
L51.8539 -59.4031
L51.4382 -59.6834
L51.0177 -59.9565
L50.5927 -60.2223
L50.1632 -60.4807
L49.7294 -60.7316
L49.2915 -60.975
L48.8494 -61.2109
L48.4035 -61.439
L47.9538 -61.6594
L47.5005 -61.8719
L47.0436 -62.0766
L46.5834 -62.2733
L46.12 -62.4621
L45.6534 -62.6428
L45.184 -62.8153
L44.7117 -62.9797
L44.2368 -63.1359
L43.7594 -63.2838
L43.2796 -63.4234
L42.7976 -63.5546
L42.3135 -63.6775
L41.8275 -63.7919
L41.3397 -63.8978
L40.8503 -63.9953
L40.3595 -64.0842
L39.8673 -64.1646
L39.3739 -64.2364
L38.8795 -64.2996
L38.3842 -64.3542
z
" id="C0_1_e1ff6e4bd8"/>
     <path d="
M24.3585 -61.956
L23.9951 -61.5979
L23.6349 -61.2342
L23.2793 -60.8653
L22.9294 -60.4919
L22.586 -60.1143
L22.2498 -59.7331
L21.9213 -59.3488
L21.6011 -58.9618
L21.2894 -58.5726
L20.9864 -58.1815
L20.6924 -57.789
L20.4074 -57.3954
L20.1314 -57.0011
L19.8646 -56.6064
L19.6068 -56.2117
L19.3579 -55.8172
L19.118 -55.4232
L18.8868 -55.0299
L18.6643 -54.6377
L18.4503 -54.2466
L18.2446 -53.8569
L18.047 -53.4687
L17.8574 -53.0823
L17.6756 -52.6978
L17.5014 -52.3152
L17.3347 -51.9347
L17.1751 -51.5564
L17.0226 -51.1804
L16.8769 -50.8068
L16.7378 -50.4355
L16.6053 -50.0667
L16.4789 -49.7004
L16.3587 -49.3367
L16.2444 -48.9755
L16.1358 -48.6168
L16.0328 -48.2607
L15.9352 -47.9072
L15.8428 -47.5563
L15.7555 -47.2078
L15.6732 -46.8619
L15.5957 -46.5185
L15.5228 -46.1776
L15.4545 -45.8391
L15.3905 -45.5031
L15.3308 -45.1693
L15.2753 -44.8379
L15.2238 -44.5088
L15.1763 -44.1819
L15.1326 -43.8572
L15.0926 -43.5345
L15.0562 -43.214
L15.0234 -42.8954
L14.9941 -42.5789
L14.9681 -42.2642
L14.9455 -41.9513
L14.9261 -41.6402
L14.9098 -41.3308
L14.8967 -41.0231
L14.8866 -40.7169
L14.8795 -40.4123
L14.8754 -40.1092
L14.8741 -39.8074
L14.8757 -39.507
L14.8801 -39.2078
L14.8872 -38.9098
L14.8971 -38.613
L14.9097 -38.3173
L14.925 -38.0225
L14.9429 -37.7287
L14.9635 -37.4358
L14.9867 -37.1437
L15.0125 -36.8524
L15.0409 -36.5618
L15.0718 -36.2717
L15.1054 -35.9823
L15.1415 -35.6934
L15.1802 -35.4049
L15.2215 -35.1167
L15.2654 -34.8289
L15.3118 -34.5414
L15.3609 -34.254
L15.4126 -33.9668
L15.4669 -33.6797
L15.5239 -33.3926
L15.5836 -33.1054
L15.646 -32.8182
L15.7111 -32.5308
L15.7791 -32.2431
L15.8498 -31.9552
L15.9234 -31.667
L15.9998 -31.3784
L16.0793 -31.0894
L16.1616 -30.7999
L16.2471 -30.5098
L16.3356 -30.2192
L16.4272 -29.9279
L16.5221 -29.636
L16.6202 -29.3433
L16.7217 -29.0498
L16.8266 -28.7555
L16.935 -28.4604
L17.0469 -28.1643
L17.1624 -27.8673
L17.2817 -27.5693
L17.4048 -27.2703
L17.5317 -26.9702
L17.6627 -26.6691
L17.7977 -26.3668
L17.937 -26.0634
L18.0805 -25.7589
L18.2284 -25.4532
L18.3808 -25.1463
L18.5379 -24.8382
L18.6996 -24.5289
L18.8663 -24.2184
L19.0379 -23.9067
L19.2146 -23.5938
L19.3965 -23.2798
L19.5838 -22.9646
L19.7766 -22.6482
L19.975 -22.3308
L20.1792 -22.0123
L20.3892 -21.6928
L20.6053 -21.3724
L20.8275 -21.0511
L21.056 -20.7289
L21.2909 -20.4061
L21.5324 -20.0826
L21.7805 -19.7585
L22.0354 -19.4341
L22.2972 -19.1093
L22.5661 -18.7844
L22.8421 -18.4595
L23.1252 -18.1347
L23.4157 -17.8102
L23.7134 -17.4862
L24.0186 -17.1629
L24.3312 -16.8404
L24.6512 -16.5191
L24.9787 -16.1991
L25.3134 -15.8807
L25.6555 -15.5641
L26.0047 -15.2496
L26.3609 -14.9374
L26.7239 -14.6278
L27.0934 -14.321
L27.469 -14.0174
L27.8504 -13.7172
L28.2371 -13.4206
L28.6283 -13.1279
L29.0235 -12.8393
L29.4216 -12.555
L29.8218 -12.2752
L30.2226 -11.9999
L30.6226 -11.7293
L31.02 -11.4633
L31.4128 -11.2017
L31.7986 -10.9444
L32.1744 -10.691
L32.5369 -10.441
L32.8825 -10.1938
L33.207 -9.94856
L33.5059 -9.70445
L33.7748 -9.46044
L34.0092 -9.21554
L34.2053 -8.96887
L34.3602 -8.71973
L34.4723 -8.46775
L34.5412 -8.21289
L34.568 -7.95547
L34.05 -7.69614
L33.5541 -7.56679
L33.0589 -7.60515
L32.5646 -7.65216
L32.0713 -7.70781
L31.5793 -7.77208
L31.0886 -7.84494
L30.5994 -7.92638
L30.1118 -8.01637
L29.6261 -8.11489
L29.1422 -8.2219
L28.6605 -8.33737
L28.181 -8.46127
L27.7039 -8.59355
L27.2293 -8.73419
L26.7574 -8.88313
L26.2883 -9.04033
L25.8221 -9.20574
L25.3591 -9.37931
L24.8993 -9.561
L24.4429 -9.75073
L23.99 -9.94846
L23.5407 -10.1541
L23.0953 -10.3677
L22.6537 -10.589
L22.2163 -10.8181
L21.783 -11.0549
L21.3541 -11.2992
L20.9297 -11.5511
L20.5098 -11.8104
L20.0946 -12.0771
L19.6843 -12.3511
L19.279 -12.6323
L18.8787 -12.9206
L18.4837 -13.216
L18.094 -13.5182
L17.7098 -13.8274
L17.3311 -14.1432
L16.9581 -14.4658
L16.591 -14.7949
L16.2297 -15.1304
L15.8744 -15.4723
L15.5253 -15.8205
L15.1825 -16.1748
L14.8459 -16.5352
L14.5158 -16.9015
L14.1923 -17.2735
L13.8754 -17.6514
L13.5652 -18.0347
L13.2619 -18.4236
L12.9655 -18.8178
L12.6761 -19.2173
L12.3938 -19.6218
L12.1187 -20.0314
L11.8509 -20.4458
L11.5904 -20.865
L11.3374 -21.2887
L11.0919 -21.717
L10.8539 -22.1496
L10.6237 -22.5864
L10.4011 -23.0273
L10.1864 -23.4722
L9.97949 -23.9208
L9.78054 -24.3732
L9.58957 -24.8291
L9.40665 -25.2884
L9.23183 -25.7509
L9.06516 -26.2166
L8.9067 -26.6853
L8.75649 -27.1567
L8.61458 -27.6309
L8.48101 -28.1077
L8.35582 -28.5868
L8.23906 -29.0682
L8.13075 -29.5517
L8.03093 -30.0372
L7.93963 -30.5245
L7.85687 -31.0135
L7.78269 -31.504
L7.71711 -31.9958
L7.66014 -32.4889
L7.6118 -32.983
L7.57211 -33.4781
L7.54108 -33.9739
L7.51872 -34.4703
L7.50503 -34.9672
L7.50003 -35.4645
L7.5037 -35.9619
L7.51606 -36.4593
L7.53709 -36.9565
L7.56679 -37.4535
L7.60515 -37.95
L7.65216 -38.4459
L7.70781 -38.9411
L7.77208 -39.4354
L7.84494 -39.9287
L7.92638 -40.4207
L8.01637 -40.9114
L8.11489 -41.4006
L8.2219 -41.8882
L8.33737 -42.3739
L8.46127 -42.8578
L8.59355 -43.3395
L8.73419 -43.819
L8.88313 -44.2961
L9.04033 -44.7707
L9.20574 -45.2426
L9.37931 -45.7117
L9.561 -46.1779
L9.75073 -46.6409
L9.94846 -47.1007
L10.1541 -47.5571
L10.3677 -48.01
L10.589 -48.4593
L10.8181 -48.9047
L11.0549 -49.3463
L11.2992 -49.7837
L11.5511 -50.217
L11.8104 -50.6459
L12.0771 -51.0703
L12.3511 -51.4902
L12.6323 -51.9054
L12.9206 -52.3157
L13.216 -52.721
L13.5182 -53.1213
L13.8274 -53.5163
L14.1432 -53.906
L14.4658 -54.2902
L14.7949 -54.6689
L15.1304 -55.0419
L15.4723 -55.409
L15.8205 -55.7703
L16.1748 -56.1256
L16.5352 -56.4747
L16.9015 -56.8175
L17.2735 -57.1541
L17.6514 -57.4842
L18.0347 -57.8077
L18.4236 -58.1246
L18.8178 -58.4348
L19.2173 -58.7381
L19.6218 -59.0345
L20.0314 -59.3239
L20.4458 -59.6062
L20.865 -59.8813
L21.2887 -60.1491
L21.717 -60.4096
L22.1496 -60.6626
L22.5864 -60.9081
L23.0273 -61.1461
L23.4722 -61.3763
z
" id="C0_2_3e77f53a07"/>
    </defs>
    <g clip-path="url(#p1bffca34e9)">
     <use style="fill:#ff0000;stroke:#000000;stroke-width:2.0;" x="0.0" xlink:href="#C0_0_a811fe30f3" y="72.0"/>
    </g>
    <g clip-path="url(#p1bffca34e9)">
     <use style="fill:#ffffff;stroke:#000000;stroke-width:2.0;" x="0.0" xlink:href="#C0_1_e1ff6e4bd8" y="72.0"/>
    </g>
    <g clip-path="url(#p1bffca34e9)">
     <use style="fill:#ffffff;stroke:#000000;stroke-width:2.0;" x="0.0" xlink:href="#C0_2_3e77f53a07" y="72.0"/>
    </g>
   </g>
  </g>
 </g>
 <defs>
  <clipPath id="p1bffca34e9">
   <rect height="72.0" width="72.0" x="0.0" y="0.0"/>
  </clipPath>
 </defs>
</svg>
