<?xml version="1.0" encoding="utf-8" standalone="no"?>
<!DOCTYPE svg PUBLIC "-//W3C//DTD SVG 1.1//EN"
  "http://www.w3.org/Graphics/SVG/1.1/DTD/svg11.dtd">
<!-- Created with matplotlib (http://matplotlib.org/) -->
<svg height="72pt" version="1.1" viewBox="0 0 72 72" width="72pt" xmlns="http://www.w3.org/2000/svg" xmlns:xlink="http://www.w3.org/1999/xlink">
 <defs>
  <style type="text/css">
*{stroke-linecap:butt;stroke-linejoin:round;}
  </style>
 </defs>
 <g id="figure_1">
  <g id="patch_1">
   <path d="
M0 72
L72 72
L72 0
L0 0
z
" style="fill:none;"/>
  </g>
  <g id="axes_1">
   <g id="PatchCollection_1">
    <defs>
     <path d="
M36 -7.5
C43.5583 -7.5 50.808 -10.5029 56.1525 -15.8475
C61.4971 -21.192 64.5 -28.4417 64.5 -36
C64.5 -43.5583 61.4971 -50.808 56.1525 -56.1525
C50.808 -61.4971 43.5583 -64.5 36 -64.5
C28.4417 -64.5 21.192 -61.4971 15.8475 -56.1525
C10.5029 -50.808 7.5 -43.5583 7.5 -36
C7.5 -28.4417 10.5029 -21.192 15.8475 -15.8475
C21.192 -10.5029 28.4417 -7.5 36 -7.5
z
" id="C0_0_a811fe30f3"/>
     <path d="
M62.9333 -26.8817
L62.8936 -27.307
L62.8381 -27.7257
L62.7677 -28.1376
L62.6835 -28.5425
L62.5862 -28.9403
L62.4769 -29.3308
L62.3563 -29.714
L62.2253 -30.0898
L62.0846 -30.4582
L61.935 -30.8192
L61.777 -31.1729
L61.6114 -31.5194
L61.4387 -31.8586
L61.2595 -32.1907
L61.0742 -32.5157
L60.8835 -32.8339
L60.6877 -33.1451
L60.4873 -33.4496
L60.2826 -33.7476
L60.0741 -34.039
L59.8621 -34.3241
L59.6469 -34.6029
L59.4288 -34.8757
L59.2081 -35.1424
L58.985 -35.4034
L58.7598 -35.6586
L58.5328 -35.9082
L58.304 -36.1524
L58.0738 -36.3913
L57.8422 -36.625
L57.6095 -36.8537
L57.3758 -37.0774
L57.1413 -37.2963
L56.906 -37.5106
L56.67 -37.7203
L56.4336 -37.9256
L56.1967 -38.1265
L55.9594 -38.3233
L55.7219 -38.516
L55.4842 -38.7047
L55.2464 -38.8895
L55.0084 -39.0706
L54.7704 -39.2481
L54.5324 -39.422
L54.2945 -39.5924
L54.0566 -39.7595
L53.8188 -39.9233
L53.5811 -40.0839
L53.3435 -40.2415
L53.1061 -40.396
L52.8688 -40.5476
L52.6316 -40.6964
L52.3946 -40.8425
L52.1577 -40.9858
L51.921 -41.1266
L51.6843 -41.2648
L51.4478 -41.4006
L51.2113 -41.5339
L50.9749 -41.6649
L50.7386 -41.7936
L50.5023 -41.9202
L50.266 -42.0445
L50.0297 -42.1668
L49.7933 -42.287
L49.5569 -42.4052
L49.3204 -42.5215
L49.0837 -42.6358
L48.8468 -42.7484
L48.6097 -42.8591
L48.3724 -42.968
L48.1348 -43.0752
L47.8969 -43.1808
L47.6586 -43.2846
L47.4199 -43.3869
L47.1807 -43.4876
L46.9411 -43.5867
L46.7009 -43.6843
L46.4602 -43.7805
L45.9767 -43.8751
L45.734 -43.9684
L45.4904 -44.0602
L45.2461 -44.1506
L45.0008 -44.2396
L44.7547 -44.3273
L44.5076 -44.4137
L44.2594 -44.4987
L44.0102 -44.5824
L43.7599 -44.6648
L43.5084 -44.746
L43.2556 -44.8258
L43.0015 -44.9044
L42.7461 -44.9818
L42.4893 -45.0579
L42.231 -45.1327
L41.9712 -45.2062
L41.7099 -45.2785
L41.4468 -45.3496
L41.1821 -45.4193
L40.9157 -45.4878
L40.6474 -45.555
L40.3772 -45.621
L40.1052 -45.6856
L39.8311 -45.7488
L39.555 -45.8108
L39.2767 -45.8713
L38.9963 -45.9305
L38.7137 -45.9883
L38.4288 -46.0446
L38.1416 -46.0994
L37.8519 -46.1528
L37.5599 -46.2046
L37.2653 -46.2548
L36.9681 -46.3034
L36.6684 -46.3503
L36.366 -46.3955
L36.0608 -46.4389
L35.753 -46.4805
L35.4423 -46.5201
L35.1289 -46.5579
L34.8125 -46.5936
L34.4933 -46.6272
L34.1712 -46.6587
L33.8461 -46.6878
L33.518 -46.7147
L33.187 -46.7391
L32.853 -46.761
L32.516 -46.7802
L32.1761 -46.7967
L31.8332 -46.8104
L31.4874 -46.8211
L31.1387 -46.8287
L30.7871 -46.833
L30.4327 -46.834
L30.0757 -46.8314
L29.716 -46.8252
L29.3537 -46.8152
L28.989 -46.8012
L28.622 -46.7829
L28.2529 -46.7603
L27.8817 -46.7332
L27.5088 -46.7012
L27.1342 -46.6643
L26.7583 -46.6222
L26.3813 -46.5745
L26.0035 -46.5212
L25.6252 -46.4619
L25.2467 -46.3963
L24.8685 -46.3242
L24.4909 -46.2452
L24.1145 -46.159
L23.7397 -46.0652
L23.3671 -45.9635
L22.9973 -45.8536
L22.6309 -45.7349
L22.2687 -45.6071
L21.9114 -45.4697
L21.5598 -45.3222
L21.2148 -45.1643
L20.8774 -44.9954
L20.5483 -44.8149
L20.2288 -44.6225
L19.9198 -44.4176
L19.6223 -44.1998
L19.3373 -43.9687
L19.0659 -43.7239
L18.809 -43.4652
L18.5675 -43.1924
L18.342 -42.9055
L18.1333 -42.6045
L17.9417 -42.2898
L17.7677 -41.9616
L17.6113 -41.6206
L17.4726 -41.2674
L17.3515 -40.9027
L17.2476 -40.5276
L17.1606 -40.1429
L17.0901 -39.7497
L17.0354 -39.349
L16.9961 -38.9419
L16.9715 -38.5294
L16.9609 -38.1125
L16.9638 -37.6921
L16.9795 -37.2692
L17.0074 -36.8445
L17.0468 -36.419
L17.0972 -35.9933
L17.158 -35.5681
L17.2287 -35.144
L17.3088 -34.7216
L17.3976 -34.3013
L17.4949 -33.8837
L17.6 -33.4691
L17.7126 -33.058
L17.8322 -32.6505
L17.9584 -32.2471
L18.0909 -31.8479
L18.2293 -31.4532
L18.3733 -31.0632
L18.5225 -30.6781
L18.6766 -30.2979
L18.8354 -29.9228
L18.9985 -29.5529
L19.1656 -29.1882
L19.3367 -28.8289
L19.5113 -28.4749
L19.6893 -28.1262
L19.8705 -27.783
L20.0546 -27.4451
L20.2416 -27.1126
L20.4311 -26.7854
L20.6232 -26.4636
L20.8175 -26.147
L21.0139 -25.8357
L21.2124 -25.5295
L21.4128 -25.2285
L21.615 -24.9325
L21.8188 -24.6416
L22.0243 -24.3555
L22.2312 -24.0743
L22.4395 -23.7979
L22.6491 -23.5262
L22.86 -23.2591
L23.0721 -22.9966
L23.2854 -22.7385
L23.4997 -22.4849
L23.715 -22.2355
L23.9313 -21.9904
L24.1486 -21.7494
L24.3669 -21.5125
L24.586 -21.2796
L24.806 -21.0505
L25.0269 -20.8254
L25.2486 -20.6039
L25.4711 -20.3862
L25.6945 -20.1721
L25.9187 -19.9615
L26.1437 -19.7544
L26.3695 -19.5507
L26.5962 -19.3503
L26.8237 -19.1532
L27.052 -18.9593
L27.2812 -18.7685
L27.5113 -18.5809
L27.7423 -18.3963
L27.9742 -18.2146
L28.2071 -18.0359
L28.4409 -17.8601
L28.6757 -17.687
L28.9115 -17.5168
L29.1484 -17.3493
L29.3864 -17.1845
L29.6255 -17.0224
L29.8657 -16.8628
L30.1072 -16.7059
L30.3499 -16.5515
L30.5938 -16.3996
L30.8391 -16.2503
L31.0857 -16.1034
L31.3338 -15.9589
L31.5833 -15.8169
L31.8343 -15.6773
L32.0869 -15.5401
L32.3411 -15.4052
L32.5969 -15.2728
L32.8545 -15.1427
L33.1139 -15.015
L33.375 -14.8896
L33.6381 -14.7666
L33.9031 -14.646
L34.1701 -14.5278
L34.4392 -14.4119
L34.7104 -14.2985
L34.9839 -14.1875
L35.2595 -14.0789
L35.5376 -13.9728
L35.818 -13.8692
L36.1009 -13.7682
L36.3863 -13.6697
L36.6743 -13.5738
L36.965 -13.4806
L37.2584 -13.3901
L37.5546 -13.3024
L37.8538 -13.2175
L38.1559 -13.1354
L38.461 -13.0564
L38.7692 -12.9803
L39.0806 -12.9074
L39.3952 -12.8376
L39.7132 -12.7712
L40.0345 -12.7081
L40.3593 -12.6485
L40.6876 -12.5925
L41.0195 -12.5403
L41.355 -12.4918
L41.6942 -12.4474
L42.0372 -12.407
L42.384 -12.3709
L42.7347 -12.3392
L43.0893 -12.3121
L43.4479 -12.2897
L43.8105 -12.2722
L44.177 -12.2598
L44.5477 -12.2528
L44.9224 -12.2512
L45.3012 -12.2553
L45.6841 -12.2654
L46.071 -12.2817
L46.462 -12.3043
L46.857 -12.3337
L47.2559 -12.37
L47.6588 -12.4134
L48.0655 -12.4644
L48.4759 -12.5231
L48.89 -12.5898
L49.3075 -12.6649
L49.7284 -12.7487
L50.1524 -12.8415
L50.5794 -12.9435
L51.009 -13.0552
L51.4412 -13.1769
L51.8755 -13.3088
L52.3116 -13.4514
L52.7491 -13.6049
L53.1878 -13.7697
L53.627 -13.946
L54.0663 -14.1343
L54.5052 -14.3348
L54.9431 -14.5478
L55.3445 -14.7735
L55.7069 -15.0706
L56.0632 -15.4114
L56.4134 -15.7585
L56.7574 -16.1117
L57.095 -16.471
L57.4263 -16.8363
L57.751 -17.2073
L58.0691 -17.5841
L58.3805 -17.9666
L58.685 -18.3545
L58.9826 -18.7477
L59.2733 -19.1463
L59.5568 -19.5499
L59.8332 -19.9586
L60.1023 -20.3722
L60.3641 -20.7905
L60.6184 -21.2135
L60.8653 -21.6409
L61.1046 -22.0728
L61.3362 -22.5089
L61.5601 -22.9491
L61.7762 -23.3932
L61.9845 -23.8412
L62.1849 -24.2929
L62.3772 -24.7482
L62.5616 -25.2069
L62.7379 -25.6689
z
" id="C0_1_31b9653091"/>
     <path d="
M16.7111 -56.89
L16.4364 -56.4749
L16.1662 -56.0563
L15.9004 -55.6345
L15.6388 -55.2101
L15.3812 -54.7837
L15.1273 -54.3559
L14.8767 -53.9272
L14.6292 -53.4984
L14.3841 -53.0702
L14.1411 -52.6433
L13.8996 -52.2184
L13.659 -51.7964
L13.4186 -51.3779
L13.1778 -50.9637
L12.9359 -50.5545
L12.6924 -50.1509
L12.4465 -49.7533
L12.1977 -49.3623
L11.9456 -48.9782
L11.6899 -48.601
L11.4303 -48.2308
L11.1667 -47.8675
L10.8992 -47.5109
L10.6279 -47.1605
L10.3531 -46.8159
L10.0753 -46.4767
L9.79483 -46.142
L9.51233 -45.8115
L9.30616 -45.4843
L9.48448 -45.9844
L9.67088 -46.4488
L9.86529 -46.91
L10.0677 -47.3678
L10.2779 -47.8222
L10.4961 -48.273
L10.7219 -48.72
L10.9555 -49.1632
L11.1967 -49.6023
L11.4455 -50.0374
L11.7017 -50.4681
L11.9654 -50.8944
L12.2363 -51.3162
L12.5145 -51.7333
L12.7999 -52.1457
L13.0923 -52.5531
L13.3917 -52.9555
L13.698 -53.3527
L14.0111 -53.7446
L14.3309 -54.1311
L14.6573 -54.5121
L14.9901 -54.8875
L15.3294 -55.2571
L15.675 -55.6208
L16.0268 -55.9786
z
" id="C0_2_a94d5c76fd"/>
    </defs>
    <g clip-path="url(#p1bffca34e9)">
     <use style="fill:#ff0000;stroke:#000000;stroke-width:2.0;" x="0.0" xlink:href="#C0_0_a811fe30f3" y="72.0"/>
    </g>
    <g clip-path="url(#p1bffca34e9)">
     <use style="fill:#ffffff;stroke:#000000;stroke-width:2.0;" x="0.0" xlink:href="#C0_1_31b9653091" y="72.0"/>
    </g>
    <g clip-path="url(#p1bffca34e9)">
     <use style="fill:#ffffff;stroke:#000000;stroke-width:2.0;" x="0.0" xlink:href="#C0_2_a94d5c76fd" y="72.0"/>
    </g>
   </g>
  </g>
 </g>
 <defs>
  <clipPath id="p1bffca34e9">
   <rect height="72.0" width="72.0" x="0.0" y="0.0"/>
  </clipPath>
 </defs>
</svg>
