<?xml version="1.0" encoding="utf-8" standalone="no"?>
<!DOCTYPE svg PUBLIC "-//W3C//DTD SVG 1.1//EN"
  "http://www.w3.org/Graphics/SVG/1.1/DTD/svg11.dtd">
<!-- Created with matplotlib (http://matplotlib.org/) -->
<svg height="72pt" version="1.1" viewBox="0 0 72 72" width="72pt" xmlns="http://www.w3.org/2000/svg" xmlns:xlink="http://www.w3.org/1999/xlink">
 <defs>
  <style type="text/css">
*{stroke-linecap:butt;stroke-linejoin:round;}
  </style>
 </defs>
 <g id="figure_1">
  <g id="patch_1">
   <path d="
M0 72
L72 72
L72 0
L0 0
z
" style="fill:none;"/>
  </g>
  <g id="axes_1">
   <g id="PatchCollection_1">
    <defs>
     <path d="
M36 -7.5
C43.5583 -7.5 50.808 -10.5029 56.1525 -15.8475
C61.4971 -21.192 64.5 -28.4417 64.5 -36
C64.5 -43.5583 61.4971 -50.808 56.1525 -56.1525
C50.808 -61.4971 43.5583 -64.5 36 -64.5
C28.4417 -64.5 21.192 -61.4971 15.8475 -56.1525
C10.5029 -50.808 7.5 -43.5583 7.5 -36
C7.5 -28.4417 10.5029 -21.192 15.8475 -15.8475
C21.192 -10.5029 28.4417 -7.5 36 -7.5
z
" id="C0_0_a811fe30f3"/>
     <path d="
M42.7295 -37.2834
L42.6319 -37.517
L42.5335 -37.7504
L42.4343 -37.9836
L42.3341 -38.2168
L42.2331 -38.4499
L42.1312 -38.683
L42.0283 -38.9162
L41.9245 -39.1495
L41.8196 -39.383
L41.7137 -39.6167
L41.6067 -39.8508
L41.4986 -40.0852
L41.3894 -40.32
L41.2789 -40.5552
L41.1673 -40.791
L41.0543 -41.0274
L40.9401 -41.2644
L40.8245 -41.5021
L40.7076 -41.7405
L40.5892 -41.9796
L40.4693 -42.2197
L40.3479 -42.4606
L40.225 -42.7024
L40.1004 -42.9453
L39.9741 -43.1891
L39.8461 -43.4341
L39.7164 -43.6802
L39.5848 -43.9274
L39.4514 -44.1759
L39.316 -44.4256
L39.1786 -44.6767
L39.0391 -44.9291
L38.8976 -45.1828
L38.7538 -45.438
L38.6078 -45.6947
L38.4595 -45.9528
L38.3088 -46.2124
L38.1557 -46.4736
L38.0001 -46.7363
L37.8419 -47.0006
L37.681 -47.2665
L37.5174 -47.5341
L37.3511 -47.8032
L37.1818 -48.0739
L37.0097 -48.3463
L36.8345 -48.6203
L36.6562 -48.8958
L36.4747 -49.173
L36.2901 -49.4517
L36.1021 -49.7318
L35.9107 -50.0135
L35.7158 -50.2966
L35.5174 -50.581
L35.3154 -50.8667
L35.1096 -51.1536
L34.9001 -51.4417
L34.6868 -51.7307
L34.4696 -52.0206
L34.2484 -52.3113
L34.0231 -52.6025
L33.7937 -52.8942
L33.5601 -53.1862
L33.3223 -53.4782
L33.0802 -53.7701
L32.8337 -54.0615
L32.5828 -54.3523
L32.3275 -54.642
L32.0675 -54.9305
L31.803 -55.2173
L31.5339 -55.5021
L31.26 -55.7843
L30.9813 -56.0636
L30.6978 -56.3393
L30.4093 -56.6109
L30.1158 -56.8776
L29.8171 -57.1387
L29.5131 -57.3931
L29.2036 -57.64
L28.8884 -57.8779
L28.5671 -58.1054
L28.2396 -58.3207
L27.9051 -58.5217
L27.5634 -58.7057
L27.2135 -58.8697
L26.8549 -59.0099
L26.4866 -59.1223
L26.1079 -59.202
L25.7181 -59.2444
L25.3169 -59.2453
L24.9047 -59.2015
L24.4826 -59.1116
L24.0524 -58.9764
L23.6164 -58.7981
L23.1774 -58.5806
L22.7379 -58.3282
L22.3004 -58.0454
L21.8669 -57.7363
L21.4392 -57.4045
L21.0188 -57.0533
L20.6068 -56.6853
L20.204 -56.303
L19.8114 -55.9084
L19.4293 -55.5031
L19.0583 -55.0886
L18.6987 -54.6663
L18.3506 -54.2373
L18.0144 -53.8026
L17.6899 -53.3632
L17.3773 -52.9199
L17.0766 -52.4734
L16.7876 -52.0245
L16.5104 -51.5738
L16.2447 -51.1219
L15.9905 -50.6692
L15.7475 -50.2164
L15.5156 -49.7637
L15.2946 -49.3118
L15.0842 -48.8608
L14.8843 -48.4112
L14.6945 -47.9632
L14.5146 -47.5172
L14.3444 -47.0733
L14.1837 -46.6319
L14.0321 -46.1931
L13.8895 -45.7571
L13.7555 -45.324
L13.63 -44.894
L13.5126 -44.4673
L13.4032 -44.0438
L13.3014 -43.6238
L13.2071 -43.2072
L13.12 -42.7942
L13.0399 -42.3848
L12.9665 -41.9789
L12.8997 -41.5767
L12.8392 -41.1782
L12.7849 -40.7833
L12.7366 -40.392
L12.694 -40.0044
L12.657 -39.6203
L12.6254 -39.2399
L12.599 -38.863
L12.5778 -38.4896
L12.5615 -38.1197
L12.5499 -37.7532
L12.543 -37.3901
L12.5406 -37.0303
L12.5426 -36.6738
L12.5489 -36.3204
L12.5593 -35.9703
L12.5738 -35.6231
L12.5922 -35.279
L12.6145 -34.9379
L12.6405 -34.5996
L12.6702 -34.2641
L12.7035 -33.9314
L12.7403 -33.6013
L12.7806 -33.2739
L12.8242 -32.9489
L12.8712 -32.6265
L12.9214 -32.3064
L12.9749 -31.9886
L13.0315 -31.673
L13.0912 -31.3597
L13.1541 -31.0484
L13.22 -30.7392
L13.289 -30.4319
L13.3609 -30.1266
L13.4359 -29.823
L13.5138 -29.5213
L13.5946 -29.2212
L13.6785 -28.9228
L13.7652 -28.6259
L13.8549 -28.3305
L13.9475 -28.0366
L14.0431 -27.7441
L14.1417 -27.4528
L14.2432 -27.1629
L14.3476 -26.8741
L14.4551 -26.5865
L14.5656 -26.3
L14.6791 -26.0145
L14.7958 -25.7301
L14.9155 -25.4465
L15.0383 -25.1638
L15.1644 -24.882
L15.2937 -24.601
L15.4262 -24.3207
L15.562 -24.0411
L15.7013 -23.7621
L15.8439 -23.4838
L15.9901 -23.2061
L16.1398 -22.9289
L16.2931 -22.6522
L16.4501 -22.376
L16.6109 -22.1003
L16.7755 -21.8249
L16.944 -21.55
L17.1165 -21.2754
L17.2931 -21.0012
L17.474 -20.7273
L17.6591 -20.4538
L17.8485 -20.1806
L18.0425 -19.9076
L18.2411 -19.635
L18.4444 -19.3627
L18.6525 -19.0907
L18.8655 -18.8191
L19.0836 -18.5478
L19.3069 -18.2768
L19.5356 -18.0062
L19.7697 -17.736
L20.0094 -17.4663
L20.2548 -17.1971
L20.5061 -16.9285
L20.7635 -16.6604
L21.0271 -16.393
L21.297 -16.1263
L21.5734 -15.8605
L21.8564 -15.5956
L22.1463 -15.3317
L22.4432 -15.0689
L22.7473 -14.8074
L23.0586 -14.5472
L23.3775 -14.2886
L23.704 -14.0316
L24.0383 -13.7765
L24.3807 -13.5234
L24.7311 -13.2725
L25.0899 -13.0241
L25.4572 -12.7782
L25.833 -12.5353
L26.2176 -12.2955
L26.6111 -12.0592
L27.0137 -11.8265
L27.4253 -11.5979
L27.8462 -11.3736
L28.2764 -11.154
L28.716 -10.9394
L29.1651 -10.7302
L29.6236 -10.5269
L30.0916 -10.3298
L30.5691 -10.1394
L31.0561 -9.95617
L31.5523 -9.78051
L32.0578 -9.61296
L32.5724 -9.45402
L33.0958 -9.30423
L33.6279 -9.16414
L34.1683 -9.0343
L34.7166 -8.9153
L35.2723 -8.80774
L35.8351 -8.71224
L36.4041 -8.62942
L36.9787 -8.55996
L37.5581 -8.50453
L38.1412 -8.46383
L38.7267 -8.43861
L39.3134 -8.42964
L39.8994 -8.43775
L40.4828 -8.46382
L41.0611 -8.5088
L41.6315 -8.57373
L42.1905 -8.65972
L42.734 -8.76796
L43.2575 -8.89964
L43.7558 -9.05587
L44.2238 -9.23755
L44.6565 -9.44507
L45.0505 -9.67818
L45.4037 -9.93576
L45.7162 -10.2159
L45.9898 -10.5162
L46.2278 -10.8339
L46.4339 -11.1661
L46.6121 -11.5104
L46.7661 -11.8645
L46.899 -12.2265
L47.0135 -12.5948
L47.1121 -12.9681
L47.1965 -13.3453
L47.2684 -13.7255
L47.329 -14.1078
L47.3796 -14.4916
L47.4209 -14.8763
L47.4538 -15.2614
L47.4791 -15.6465
L47.4972 -16.0311
L47.5088 -16.4149
L47.5143 -16.7975
L47.514 -17.1788
L47.5085 -17.5584
L47.4981 -17.9361
L47.483 -18.3118
L47.4636 -18.6851
L47.4401 -19.056
L47.4128 -19.4244
L47.382 -19.79
L47.3478 -20.1528
L47.3105 -20.5126
L47.2702 -20.8695
L47.2271 -21.2233
L47.1815 -21.574
L47.1334 -21.9215
L47.083 -22.2657
L47.0304 -22.6068
L46.9759 -22.9446
L46.9194 -23.2791
L46.8611 -23.6103
L46.8012 -23.9383
L46.7397 -24.2631
L46.6767 -24.5846
L46.6123 -24.903
L46.5466 -25.2182
L46.4796 -25.5302
L46.4115 -25.8392
L46.3423 -26.1451
L46.2721 -26.448
L46.2008 -26.7479
L46.1287 -27.045
L46.0557 -27.3392
L45.9818 -27.6306
L45.9071 -27.9193
L45.8317 -28.2053
L45.7556 -28.4887
L45.6787 -28.7696
L45.6012 -29.048
L45.5231 -29.324
L45.4444 -29.5977
L45.365 -29.869
L45.2851 -30.1382
L45.2046 -30.4052
L45.1236 -30.6702
L45.042 -30.9331
L44.9599 -31.1941
L44.8773 -31.4532
L44.7941 -31.7106
L44.7105 -31.9662
L44.6263 -32.2201
L44.5416 -32.4724
L44.4564 -32.7232
L44.3707 -32.9725
L44.2845 -33.2205
L44.1978 -33.4671
L44.1105 -33.7124
L44.0227 -33.9565
L43.9343 -34.1995
L43.8454 -34.4414
L43.7559 -34.6823
L43.6658 -34.9223
L43.5751 -35.1613
L43.4838 -35.3996
L43.3919 -35.6371
L43.2994 -35.8739
L43.2062 -36.11
L43.1123 -36.3456
L43.0177 -36.5807
L42.9224 -36.8153
z
" id="C0_1_98c8ea991a"/>
    </defs>
    <g clip-path="url(#p1bffca34e9)">
     <use style="fill:#ffffff;stroke:#000000;stroke-width:2.0;" x="0.0" xlink:href="#C0_0_a811fe30f3" y="72.0"/>
    </g>
    <g clip-path="url(#p1bffca34e9)">
     <use style="fill:#ff0000;stroke:#000000;stroke-width:2.0;" x="0.0" xlink:href="#C0_1_98c8ea991a" y="72.0"/>
    </g>
   </g>
  </g>
 </g>
 <defs>
  <clipPath id="p1bffca34e9">
   <rect height="72.0" width="72.0" x="0.0" y="0.0"/>
  </clipPath>
 </defs>
</svg>
