<?xml version="1.0" encoding="utf-8" standalone="no"?>
<!DOCTYPE svg PUBLIC "-//W3C//DTD SVG 1.1//EN"
  "http://www.w3.org/Graphics/SVG/1.1/DTD/svg11.dtd">
<!-- Created with matplotlib (http://matplotlib.org/) -->
<svg height="72pt" version="1.1" viewBox="0 0 72 72" width="72pt" xmlns="http://www.w3.org/2000/svg" xmlns:xlink="http://www.w3.org/1999/xlink">
 <defs>
  <style type="text/css">
*{stroke-linecap:butt;stroke-linejoin:round;}
  </style>
 </defs>
 <g id="figure_1">
  <g id="patch_1">
   <path d="
M0 72
L72 72
L72 0
L0 0
z
" style="fill:none;"/>
  </g>
  <g id="axes_1">
   <g id="PatchCollection_1">
    <defs>
     <path d="
M36 -7.5
C43.5583 -7.5 50.808 -10.5029 56.1525 -15.8475
C61.4971 -21.192 64.5 -28.4417 64.5 -36
C64.5 -43.5583 61.4971 -50.808 56.1525 -56.1525
C50.808 -61.4971 43.5583 -64.5 36 -64.5
C28.4417 -64.5 21.192 -61.4971 15.8475 -56.1525
C10.5029 -50.808 7.5 -43.5583 7.5 -36
C7.5 -28.4417 10.5029 -21.192 15.8475 -15.8475
C21.192 -10.5029 28.4417 -7.5 36 -7.5
z
" id="C0_0_a811fe30f3"/>
     <path d="
M25.8977 -62.4288
L25.999 -62.178
L26.0736 -61.9071
L26.1261 -61.619
L26.1608 -61.3165
L26.1814 -61.0017
L26.191 -60.6768
L26.1923 -60.3433
L26.1873 -60.0028
L26.1778 -59.6565
L26.1652 -59.3055
L26.1505 -58.9506
L26.1348 -58.5927
L26.1186 -58.2325
L26.1027 -57.8706
L26.0875 -57.5075
L26.0733 -57.1437
L26.0604 -56.7796
L26.0491 -56.4156
L26.0395 -56.0521
L26.0316 -55.6894
L26.0257 -55.3276
L26.0217 -54.9671
L26.0198 -54.6082
L26.0198 -54.2509
L26.0219 -53.8954
L26.0259 -53.542
L26.0319 -53.1907
L26.0398 -52.8417
L26.0496 -52.495
L26.0613 -52.1508
L26.0748 -51.8091
L26.09 -51.47
L26.1069 -51.1336
L26.1254 -50.7998
L26.1455 -50.4687
L26.1672 -50.1404
L26.1903 -49.8148
L26.2149 -49.4919
L26.2409 -49.1718
L26.2681 -48.8544
L26.2967 -48.5398
L26.3264 -48.2279
L26.3574 -47.9186
L26.3895 -47.612
L26.4227 -47.308
L26.457 -47.0066
L26.4923 -46.7077
L26.5285 -46.4113
L26.5658 -46.1173
L26.6039 -45.8258
L26.643 -45.5366
L26.6829 -45.2497
L26.7236 -44.965
L26.7652 -44.6825
L26.8076 -44.4021
L26.8507 -44.1238
L26.8946 -43.8475
L26.9392 -43.5731
L26.9845 -43.3006
L27.0306 -43.0299
L27.0773 -42.761
L27.1247 -42.4938
L27.1728 -42.2282
L27.2216 -41.9642
L27.271 -41.7016
L27.321 -41.4405
L27.3717 -41.1808
L27.4231 -40.9224
L27.4751 -40.6652
L27.5277 -40.4093
L27.5809 -40.1544
L27.6348 -39.9006
L27.6894 -39.6477
L27.7445 -39.3958
L27.8003 -39.1448
L27.8568 -38.8946
L27.9139 -38.6451
L27.9717 -38.3962
L28.0302 -38.148
L28.0893 -37.9004
L28.1491 -37.6532
L28.2097 -37.4064
L28.2709 -37.16
L28.3329 -36.9139
L28.459 -36.668
L28.5232 -36.4224
L28.5882 -36.1768
L28.654 -35.9313
L28.7206 -35.6857
L28.788 -35.4401
L28.8563 -35.1944
L28.9255 -34.9485
L28.9956 -34.7023
L29.0665 -34.4559
L29.1385 -34.209
L29.2113 -33.9617
L29.2852 -33.714
L29.3601 -33.4656
L29.436 -33.2167
L29.513 -32.9671
L29.5911 -32.7167
L29.6703 -32.4656
L29.7507 -32.2136
L29.8323 -31.9607
L29.915 -31.7068
L29.9991 -31.4519
L30.0844 -31.1959
L30.1711 -30.9388
L30.2591 -30.6804
L30.3485 -30.4208
L30.4394 -30.1599
L30.5317 -29.8976
L30.6256 -29.6339
L30.721 -29.3686
L30.818 -29.1019
L30.9167 -28.8335
L31.017 -28.5636
L31.1191 -28.2919
L31.223 -28.0185
L31.3287 -27.7432
L31.4363 -27.4662
L31.5458 -27.1873
L31.6573 -26.9064
L31.7708 -26.6236
L31.8864 -26.3387
L32.0041 -26.0519
L32.1239 -25.763
L32.246 -25.4719
L32.3704 -25.1788
L32.4971 -24.8835
L32.6262 -24.5861
L32.7576 -24.2865
L32.8916 -23.9847
L33.028 -23.6807
L33.167 -23.3745
L33.3085 -23.0662
L33.4527 -22.7557
L33.5996 -22.4431
L33.7491 -22.1284
L33.9013 -21.8117
L34.0562 -21.4929
L34.2138 -21.1722
L34.3742 -20.8495
L34.5373 -20.5251
L34.703 -20.1989
L34.8714 -19.8711
L35.0424 -19.5417
L35.216 -19.2109
L35.392 -18.8789
L35.5703 -18.5456
L35.7508 -18.2114
L35.9334 -17.8764
L36.1178 -17.5407
L36.3037 -17.2046
L36.491 -16.8682
L36.6791 -16.5317
L36.8677 -16.1955
L37.0563 -15.8597
L37.2442 -15.5246
L37.4306 -15.1905
L37.6147 -14.8576
L37.7954 -14.5263
L37.9713 -14.1968
L38.1408 -13.8696
L38.3021 -13.5448
L38.4527 -13.2229
L38.5899 -12.9043
L38.7103 -12.5893
L38.81 -12.2784
L38.8845 -11.9719
L38.9289 -11.6705
L38.9378 -11.3746
L38.9062 -11.0849
L38.8296 -10.802
L38.7045 -10.5266
L38.5293 -10.2595
L38.3043 -10.0015
L38.0314 -9.7534
L37.7142 -9.51598
L37.3568 -9.28992
L36.964 -9.07584
L36.5403 -8.87428
L36.0901 -8.68567
L35.6174 -8.5104
L35.1256 -8.34873
L34.6178 -8.20092
L34.0966 -8.06713
L33.5644 -7.94748
L33.0232 -7.84204
L32.5191 -7.75084
L32.026 -7.71337
L31.534 -7.77843
L31.0435 -7.85209
L30.5544 -7.93431
L30.067 -8.02509
L29.5814 -8.12439
L29.0978 -8.23218
L28.6162 -8.34843
L28.137 -8.4731
L27.6601 -8.60616
L27.1857 -8.74756
L26.714 -8.89726
L26.2452 -9.05522
L25.7793 -9.22139
L25.3166 -9.39571
L24.8571 -9.57814
L24.401 -9.76861
L23.9484 -9.96708
L23.4995 -10.1735
L23.0544 -10.3877
L22.6133 -10.6098
L22.1762 -10.8396
L21.7433 -11.0771
L21.3148 -11.3221
L20.8908 -11.5747
L20.4713 -11.8347
L20.0566 -12.1021
L19.6468 -12.3767
L19.2419 -12.6586
L18.8421 -12.9475
L18.4476 -13.2435
L18.0584 -13.5464
L17.6747 -13.8562
L17.2965 -14.1727
L16.9241 -14.4958
L16.5574 -14.8255
L16.1967 -15.1617
L15.842 -15.5042
L15.4935 -15.8529
L15.1512 -16.2078
L14.8152 -16.5687
L14.4857 -16.9355
L14.1628 -17.3081
L13.8465 -17.6864
L13.537 -18.0703
L13.2343 -18.4597
L12.9385 -18.8544
L12.6498 -19.2543
L12.3681 -19.6594
L12.0937 -20.0694
L11.8266 -20.4842
L11.5668 -20.9038
L11.3144 -21.328
L11.0696 -21.7567
L10.8324 -22.1896
L10.6028 -22.6268
L10.381 -23.0681
L10.167 -23.5133
L9.96083 -23.9623
L9.76261 -24.415
L9.57238 -24.8712
L9.39021 -25.3308
L9.21613 -25.7937
L9.05022 -26.2596
L8.89252 -26.7286
L8.74307 -27.2003
L8.60192 -27.6748
L8.46913 -28.1517
L8.34471 -28.6311
L8.22873 -29.1127
L8.1212 -29.5964
L8.02216 -30.082
L7.93165 -30.5695
L7.84968 -31.0586
L7.77629 -31.5492
L7.7115 -32.0412
L7.65532 -32.5343
L7.60778 -33.0286
L7.56889 -33.5237
L7.53866 -34.0196
L7.51709 -34.5161
L7.50421 -35.013
L7.5 -35.5103
L7.50448 -36.0077
L7.51763 -36.5051
L7.53946 -37.0023
L7.56996 -37.4992
L7.60912 -37.9957
L7.65693 -38.4916
L7.71337 -38.9867
L7.77843 -39.4809
L7.85209 -39.974
L7.93431 -40.466
L8.02509 -40.9565
L8.12439 -41.4456
L8.23218 -41.933
L8.34843 -42.4186
L8.4731 -42.9022
L8.60616 -43.3838
L8.74756 -43.863
L8.89726 -44.3399
L9.05522 -44.8143
L9.22139 -45.286
L9.39571 -45.7548
L9.57814 -46.2207
L9.76861 -46.6834
L9.96708 -47.1429
L10.1735 -47.599
L10.3877 -48.0516
L10.6098 -48.5005
L10.8396 -48.9456
L11.0771 -49.3867
L11.3221 -49.8238
L11.5747 -50.2567
L11.8347 -50.6852
L12.1021 -51.1092
L12.3767 -51.5287
L12.6586 -51.9434
L12.9475 -52.3532
L13.2435 -52.7581
L13.5464 -53.1579
L13.8562 -53.5524
L14.1727 -53.9416
L14.4958 -54.3253
L14.8255 -54.7035
L15.1617 -55.0759
L15.5042 -55.4426
L15.8529 -55.8033
L16.2078 -56.158
L16.5687 -56.5065
L16.9355 -56.8488
L17.3081 -57.1848
L17.6864 -57.5143
L18.0703 -57.8372
L18.4597 -58.1535
L18.8544 -58.463
L19.2543 -58.7657
L19.6594 -59.0615
L20.0694 -59.3502
L20.4842 -59.6319
L20.9038 -59.9063
L21.328 -60.1734
L21.7567 -60.4332
L22.1896 -60.6856
L22.6268 -60.9304
L23.0681 -61.1676
L23.5133 -61.3972
L23.9623 -61.619
L24.415 -61.833
L24.8712 -62.0392
L25.3308 -62.2374
z
" id="C0_1_b137a751bd"/>
     <path d="
M39.5143 -64.2374
L40.028 -64.0304
L40.5367 -63.8157
L41.0394 -63.5934
L41.5352 -63.364
L42.0237 -63.1276
L42.5041 -62.8846
L42.9762 -62.6354
L43.4395 -62.3802
L43.8938 -62.1195
L44.3388 -61.8535
L44.7745 -61.5828
L45.2006 -61.3076
L45.6172 -61.0283
L46.0242 -60.7453
L46.4217 -60.4588
L46.8096 -60.1692
L47.188 -59.8767
L47.557 -59.5818
L47.9168 -59.2846
L48.2673 -58.9855
L48.6089 -58.6846
L48.9415 -58.3822
L49.2653 -58.0786
L49.5805 -57.7738
L49.8874 -57.4682
L50.1859 -57.1619
L50.4764 -56.855
L50.7589 -56.5477
L51.0337 -56.2401
L51.301 -55.9324
L51.5609 -55.6247
L51.8135 -55.317
L52.0592 -55.0095
L52.298 -54.7023
L52.5301 -54.3953
L52.7557 -54.0888
L52.975 -53.7827
L53.1881 -53.477
L53.3952 -53.1719
L53.5964 -52.8674
L53.7919 -52.5634
L53.9818 -52.2601
L54.1664 -51.9573
L54.3456 -51.6552
L54.5197 -51.3538
L54.6888 -51.053
L54.8531 -50.7528
L55.0125 -50.4532
L55.1673 -50.1542
L55.3176 -49.8559
L55.4635 -49.5581
L55.6051 -49.2608
L55.7424 -48.9641
L55.8757 -48.6679
L56.0049 -48.3722
L56.1302 -48.0768
L56.2516 -47.7819
L56.3693 -47.4874
L56.4833 -47.1932
L56.5937 -46.8992
L56.7006 -46.6055
L56.8039 -46.312
L56.9039 -46.0186
L57.0005 -45.7254
L57.0938 -45.4322
L57.1839 -45.139
L57.2707 -44.8458
L57.3544 -44.5524
L57.435 -44.2589
L57.5125 -43.9652
L57.5869 -43.6713
L57.6584 -43.377
L57.7268 -43.0824
L57.7924 -42.7873
L57.8549 -42.4917
L57.9146 -42.1956
L57.9713 -41.8989
L58.0251 -41.6015
L58.0761 -41.3034
L58.1242 -41.0045
L58.1694 -40.7048
L58.2117 -40.4041
L58.2511 -40.1025
L58.2876 -39.7999
L58.3212 -39.4961
L58.3519 -39.1911
L58.3797 -38.885
L58.4045 -38.5775
L58.4263 -38.2687
L58.445 -37.9585
L58.4608 -37.6467
L58.4734 -37.3334
L58.4829 -37.0185
L58.4893 -36.7019
L58.4924 -36.3836
L58.4922 -36.0634
L58.4887 -35.7414
L58.4819 -35.4174
L58.4715 -35.0915
L58.4577 -34.7634
L58.4402 -34.4333
L58.4191 -34.1009
L58.3942 -33.7663
L58.3655 -33.4294
L58.3329 -33.0901
L58.2962 -32.7484
L58.2554 -32.4043
L58.2104 -32.0576
L58.161 -31.7084
L58.1072 -31.3566
L58.0488 -31.0021
L57.9857 -30.6449
L57.9177 -30.285
L57.8448 -29.9224
L57.7668 -29.557
L57.6835 -29.1888
L57.5949 -28.8178
L57.5007 -28.4439
L57.4008 -28.0673
L57.295 -27.6878
L57.1832 -27.3056
L57.0651 -26.9205
L56.9408 -26.5328
L56.8098 -26.1423
L56.6722 -25.7492
L56.5276 -25.3535
L56.376 -24.9552
L56.2171 -24.5546
L56.0508 -24.1516
L55.8769 -23.7464
L55.6952 -23.3391
L55.5056 -22.9298
L55.3079 -22.5188
L55.102 -22.1061
L54.8877 -21.692
L54.6649 -21.2768
L54.4335 -20.8605
L54.1935 -20.4435
L53.9446 -20.026
L53.687 -19.6084
L53.4207 -19.1909
L53.1456 -18.7738
L52.8618 -18.3576
L52.5695 -17.9425
L52.2689 -17.529
L51.9602 -17.1174
L51.6438 -16.7082
L51.3202 -16.3018
L50.9899 -15.8987
L50.6537 -15.4993
L50.3124 -15.1041
L49.9672 -14.7136
L49.6195 -14.3283
L49.2708 -13.9486
L48.9232 -13.5751
L48.5791 -13.2082
L48.2415 -12.8484
L47.9138 -12.4962
L47.6002 -12.1518
L47.3053 -11.8158
L47.0344 -11.4883
L46.7929 -11.1696
L46.5863 -10.8598
L46.4194 -10.559
L46.2959 -10.2671
L46.2178 -9.98416
L46.1853 -9.70994
L46.6788 -9.44435
L47.1384 -9.57629
L47.5945 -9.76669
L48.0471 -9.96507
L48.496 -10.1714
L48.9412 -10.3856
L49.3824 -10.6076
L49.8195 -10.8373
L50.2524 -11.0747
L50.6809 -11.3196
L51.105 -11.5721
L51.5245 -11.8321
L51.9393 -12.0994
L52.3492 -12.374
L52.7541 -12.6557
L53.1539 -12.9446
L53.5485 -13.2405
L53.9378 -13.5434
L54.3216 -13.8531
L54.6998 -14.1695
L55.0723 -14.4926
L55.439 -14.8222
L55.7997 -15.1583
L56.1545 -15.5007
L56.5031 -15.8494
L56.8455 -16.2042
L57.1815 -16.5651
L57.511 -16.9318
L57.834 -17.3044
L58.1504 -17.6827
L58.46 -18.0665
L58.7628 -18.4558
L59.0586 -18.8505
L59.3474 -19.2503
L59.6291 -19.6553
L59.9036 -20.0653
L60.1708 -20.4801
L60.4307 -20.8996
L60.6831 -21.3238
L60.928 -21.7524
L61.1653 -22.1853
L61.3949 -22.6225
L61.6168 -23.0637
L61.8309 -23.5089
L62.0372 -23.9579
L62.2355 -24.4105
L62.4258 -24.8667
L62.608 -25.3263
L62.7822 -25.7891
L62.9482 -26.255
L63.106 -26.7239
L63.2555 -27.1956
L63.3967 -27.67
L63.5296 -28.147
L63.6541 -28.6263
L63.7702 -29.1079
L63.8778 -29.5916
L63.9769 -30.0772
L64.0675 -30.5646
L64.1495 -31.0537
L64.223 -31.5443
L64.2879 -32.0363
L64.3442 -32.5295
L64.3918 -33.0237
L64.4308 -33.5188
L64.4611 -34.0147
L64.4827 -34.5112
L64.4957 -35.0081
L64.5 -35.5054
L64.4956 -36.0027
L64.4825 -36.5001
L64.4608 -36.9974
L64.4304 -37.4943
L64.3913 -37.9908
L64.3436 -38.4867
L64.2872 -38.9818
L64.2223 -39.476
L64.1487 -39.9692
L64.0665 -40.4611
L63.9759 -40.9517
L63.8766 -41.4408
L63.7689 -41.9282
L63.6528 -42.4138
L63.5282 -42.8974
L63.3952 -43.379
L63.2539 -43.8583
L63.1043 -44.3352
L62.9464 -44.8096
L62.7803 -45.2813
L62.6061 -45.7502
L62.4237 -46.2161
L62.2333 -46.6788
L62.0349 -47.1384
L61.8286 -47.5945
L61.6144 -48.0471
L61.3924 -48.496
L61.1627 -48.9412
L60.9253 -49.3824
L60.6804 -49.8195
L60.4279 -50.2524
L60.1679 -50.6809
L59.9006 -51.105
L59.626 -51.5245
L59.3443 -51.9393
L59.0554 -52.3492
L58.7595 -52.7541
L58.4566 -53.1539
L58.1469 -53.5485
L57.8305 -53.9378
L57.5074 -54.3216
L57.1778 -54.6998
L56.8417 -55.0723
L56.4993 -55.439
L56.1506 -55.7997
L55.7958 -56.1545
L55.4349 -56.5031
L55.0682 -56.8455
L54.6956 -57.1815
L54.3173 -57.511
L53.9335 -57.834
L53.5442 -58.1504
L53.1495 -58.46
L52.7497 -58.7628
L52.3447 -59.0586
L51.9347 -59.3474
L51.5199 -59.6291
L51.1004 -59.9036
L50.6762 -60.1708
L50.2476 -60.4307
L49.8147 -60.6831
L49.3775 -60.928
L48.9363 -61.1653
L48.4911 -61.3949
L48.0421 -61.6168
L47.5895 -61.8309
L47.1333 -62.0372
L46.6737 -62.2355
L46.2109 -62.4258
L45.745 -62.608
L45.2761 -62.7822
L44.8044 -62.9482
L44.33 -63.106
L43.853 -63.2555
L43.3737 -63.3967
L42.8921 -63.5296
L42.4084 -63.6541
L41.9228 -63.7702
L41.4354 -63.8778
L40.9463 -63.9769
L40.4557 -64.0675
z
" id="C0_2_d355121f7b"/>
    </defs>
    <g clip-path="url(#p1bffca34e9)">
     <use style="fill:#ff0000;stroke:#000000;stroke-width:2.0;" x="0.0" xlink:href="#C0_0_a811fe30f3" y="72.0"/>
    </g>
    <g clip-path="url(#p1bffca34e9)">
     <use style="fill:#ffffff;stroke:#000000;stroke-width:2.0;" x="0.0" xlink:href="#C0_1_b137a751bd" y="72.0"/>
    </g>
    <g clip-path="url(#p1bffca34e9)">
     <use style="fill:#ffffff;stroke:#000000;stroke-width:2.0;" x="0.0" xlink:href="#C0_2_d355121f7b" y="72.0"/>
    </g>
   </g>
  </g>
 </g>
 <defs>
  <clipPath id="p1bffca34e9">
   <rect height="72.0" width="72.0" x="0.0" y="0.0"/>
  </clipPath>
 </defs>
</svg>
