<?xml version="1.0" encoding="utf-8" standalone="no"?>
<!DOCTYPE svg PUBLIC "-//W3C//DTD SVG 1.1//EN"
  "http://www.w3.org/Graphics/SVG/1.1/DTD/svg11.dtd">
<!-- Created with matplotlib (http://matplotlib.org/) -->
<svg height="72pt" version="1.1" viewBox="0 0 72 72" width="72pt" xmlns="http://www.w3.org/2000/svg" xmlns:xlink="http://www.w3.org/1999/xlink">
 <defs>
  <style type="text/css">
*{stroke-linecap:butt;stroke-linejoin:round;}
  </style>
 </defs>
 <g id="figure_1">
  <g id="patch_1">
   <path d="
M0 72
L72 72
L72 0
L0 0
z
" style="fill:none;"/>
  </g>
  <g id="axes_1">
   <g id="PatchCollection_1">
    <defs>
     <path d="
M36 -7.5
C43.5583 -7.5 50.808 -10.5029 56.1525 -15.8475
C61.4971 -21.192 64.5 -28.4417 64.5 -36
C64.5 -43.5583 61.4971 -50.808 56.1525 -56.1525
C50.808 -61.4971 43.5583 -64.5 36 -64.5
C28.4417 -64.5 21.192 -61.4971 15.8475 -56.1525
C10.5029 -50.808 7.5 -43.5583 7.5 -36
C7.5 -28.4417 10.5029 -21.192 15.8475 -15.8475
C21.192 -10.5029 28.4417 -7.5 36 -7.5
z
" id="C0_0_a811fe30f3"/>
     <path d="
M38.5088 -7.62236
L38.5089 -7.81144
L38.5077 -8.00121
L38.5051 -8.19169
L38.5012 -8.3829
L38.496 -8.57485
L38.4897 -8.76758
L38.4821 -8.9611
L38.4733 -9.15542
L38.4634 -9.35059
L38.4524 -9.54661
L38.4402 -9.74352
L38.427 -9.94135
L38.3973 -10.1401
L38.381 -10.3398
L38.3635 -10.5406
L38.3451 -10.7423
L38.3257 -10.9451
L38.3052 -11.149
L38.2838 -11.354
L38.2613 -11.5601
L38.2379 -11.7675
L38.2135 -11.976
L38.1881 -12.1858
L38.1618 -12.3968
L38.1344 -12.6092
L38.1061 -12.8229
L38.0768 -13.038
L38.0465 -13.2545
L38.0151 -13.4724
L37.9828 -13.6918
L37.9495 -13.9128
L37.9151 -14.1353
L37.8797 -14.3594
L37.8433 -14.5851
L37.8057 -14.8124
L37.7671 -15.0415
L37.7275 -15.2722
L37.6867 -15.5048
L37.6447 -15.7391
L37.6017 -15.9752
L37.5574 -16.2132
L37.512 -16.4531
L37.4654 -16.6948
L37.4175 -16.9386
L37.3684 -17.1843
L37.318 -17.432
L37.2662 -17.6817
L37.2131 -17.9334
L37.1587 -18.1872
L37.1028 -18.4431
L37.0455 -18.701
L36.9867 -18.9611
L36.9263 -19.2233
L36.8644 -19.4876
L36.8009 -19.754
L36.7357 -20.0225
L36.6689 -20.2932
L36.6003 -20.5659
L36.5299 -20.8408
L36.4576 -21.1177
L36.3835 -21.3967
L36.3073 -21.6777
L36.2292 -21.9606
L36.1489 -22.2455
L36.0665 -22.5323
L35.9819 -22.8209
L35.8949 -23.1113
L35.8056 -23.4033
L35.7138 -23.697
L35.6195 -23.9922
L35.5226 -24.2887
L35.4229 -24.5866
L35.3204 -24.8856
L35.215 -25.1857
L35.1065 -25.4867
L34.995 -25.7884
L34.8802 -26.0907
L34.762 -26.3933
L34.6403 -26.6962
L34.5151 -26.999
L34.3861 -27.3016
L34.2533 -27.6037
L34.1164 -27.9051
L33.9755 -28.2056
L33.8302 -28.5048
L33.6806 -28.8025
L33.5264 -29.0984
L33.3675 -29.3921
L33.2038 -29.6835
L33.0351 -29.9722
L32.8614 -30.2578
L32.6824 -30.54
L32.4981 -30.8186
L32.3085 -31.0932
L32.1133 -31.3635
L31.9125 -31.6291
L31.7061 -31.8899
L31.494 -32.1455
L31.2762 -32.3956
L31.0528 -32.64
L30.8236 -32.8785
L30.5889 -33.1108
L30.3486 -33.3368
L30.1028 -33.5562
L29.8518 -33.7691
L29.5955 -33.9752
L29.3343 -34.1746
L29.0682 -34.367
L28.7975 -34.5526
L28.5225 -34.7313
L28.2434 -34.9032
L27.9603 -35.0683
L27.6738 -35.2266
L27.3839 -35.3783
L27.0909 -35.5235
L26.7953 -35.6623
L26.4972 -35.7948
L26.197 -35.9212
L25.8949 -36.0416
L25.5912 -36.1562
L25.2863 -36.2651
L24.9804 -36.3686
L24.6737 -36.4667
L24.3665 -36.5597
L24.059 -36.6477
L23.7515 -36.7309
L23.4443 -36.8094
L23.1374 -36.8834
L22.8311 -36.9531
L22.5257 -37.0187
L22.2212 -37.0802
L21.9178 -37.1377
L21.6158 -37.1916
L21.3151 -37.2418
L21.016 -37.2885
L20.7186 -37.3319
L20.423 -37.372
L20.1292 -37.409
L19.8374 -37.4429
L19.5476 -37.474
L19.2599 -37.5022
L18.9744 -37.5276
L18.6912 -37.5504
L18.4102 -37.5707
L18.1315 -37.5885
L17.8552 -37.6039
L17.5812 -37.6169
L17.3097 -37.6277
L17.0405 -37.6363
L16.7738 -37.6428
L16.5095 -37.6472
L16.2477 -37.6496
L15.9882 -37.6501
L15.7312 -37.6486
L15.4766 -37.6452
L15.2245 -37.6401
L14.9747 -37.6331
L14.7273 -37.6244
L14.4822 -37.614
L14.2395 -37.602
L13.9991 -37.5882
L13.7609 -37.5729
L13.5251 -37.556
L13.2914 -37.5375
L13.06 -37.5174
L12.8307 -37.4959
L12.6036 -37.4728
L12.3786 -37.4482
L12.1557 -37.4221
L11.9349 -37.3946
L11.716 -37.3655
L11.4992 -37.3351
L11.2843 -37.3031
L11.0713 -37.2697
L10.8602 -37.2349
L10.651 -37.1986
L10.4436 -37.1609
L10.2379 -37.1217
L10.0341 -37.081
L9.83197 -37.0388
L9.63156 -36.9952
L9.43282 -36.95
L9.23573 -36.9034
L9.04026 -36.8552
L8.84638 -36.8054
L8.65406 -36.7541
L8.46328 -36.7012
L8.27402 -36.6467
L8.08625 -36.5905
L7.89995 -36.5326
L7.7151 -36.473
L7.53168 -36.4117
L7.50039 -36.3486
L7.50732 -35.8515
L7.52293 -35.3542
L7.54721 -34.857
L7.58017 -34.3602
L7.62178 -33.8639
L7.67203 -33.3682
L7.73091 -32.8733
L7.79841 -32.3794
L7.87449 -31.8866
L7.95914 -31.395
L8.05233 -30.9049
L8.15404 -30.4163
L8.26423 -29.9294
L8.38287 -29.4443
L8.50991 -28.9613
L8.64534 -28.4803
L8.78909 -28.0017
L8.94114 -27.5255
L9.10142 -27.0519
L9.2699 -26.5811
L9.44653 -26.113
L9.63124 -25.648
L9.82398 -25.1862
L10.0247 -24.7276
L10.2333 -24.2725
L10.4498 -23.821
L10.6741 -23.3731
L10.906 -22.9292
L11.1457 -22.4892
L11.3928 -22.0533
L11.6475 -21.6216
L11.9096 -21.1944
L12.1791 -20.7716
L12.4558 -20.3535
L12.7396 -19.9401
L13.0306 -19.5317
L13.3285 -19.1282
L13.6334 -18.7299
L13.9451 -18.3369
L14.2635 -17.9492
L14.5885 -17.5671
L14.92 -17.1905
L15.258 -16.8197
L15.6022 -16.4547
L15.9527 -16.0957
L16.3093 -15.7427
L16.6719 -15.396
L17.0404 -15.0554
L17.4146 -14.7213
L17.7945 -14.3937
L18.18 -14.0726
L18.5709 -13.7582
L18.9671 -13.4506
L19.3685 -13.1498
L19.7749 -12.8561
L20.1863 -12.5693
L20.6025 -12.2897
L21.0234 -12.0174
L21.4489 -11.7523
L21.8788 -11.4946
L22.313 -11.2444
L22.7513 -11.0017
L23.1937 -10.7666
L23.64 -10.5393
L24.0901 -10.3196
L24.5438 -10.1078
L25.001 -9.90392
L25.4615 -9.70796
L25.9253 -9.52
L26.3921 -9.34011
L26.8618 -9.16834
L27.3343 -9.00475
L27.8095 -8.84938
L28.2872 -8.70228
L28.7672 -8.56349
L29.2494 -8.43306
L29.7336 -8.31103
L30.2198 -8.19743
L30.7078 -8.0923
L31.1973 -7.99568
L31.6883 -7.90758
L32.1806 -7.82804
L32.6741 -7.75708
L33.1686 -7.69472
L33.664 -7.64099
L34.1601 -7.5959
L34.6567 -7.55945
L35.1538 -7.53167
L35.6511 -7.51257
L36.1485 -7.50214
L36.6458 -7.50039
L37.143 -7.50732
L37.6398 -7.52293
z
" id="C0_1_c610c3a0d7"/>
     <path d="
M64.3461 -35.7194
L64.1635 -35.7882
L63.9798 -35.8571
L63.7947 -35.9263
L63.6084 -35.9955
L63.4207 -36.065
L63.2317 -36.1346
L63.0413 -36.2044
L62.8495 -36.2745
L62.6562 -36.3447
L62.4614 -36.4152
L62.2652 -36.4859
L62.0673 -36.5569
L61.8679 -36.6281
L61.6669 -36.6996
L61.4642 -36.7714
L61.2599 -36.8435
L61.0538 -36.916
L60.846 -36.9887
L60.6363 -37.0619
L60.4249 -37.1354
L60.2116 -37.2093
L59.9963 -37.2835
L59.7792 -37.3583
L59.5601 -37.4334
L59.339 -37.509
L59.1158 -37.5851
L58.8906 -37.6617
L58.6632 -37.7388
L58.4337 -37.8165
L58.2021 -37.8947
L57.9682 -37.9735
L57.7321 -38.053
L57.4938 -38.133
L57.2532 -38.2137
L57.0102 -38.2951
L56.7649 -38.3773
L56.5173 -38.4601
L56.2673 -38.5438
L56.0149 -38.6282
L55.7601 -38.7135
L55.5028 -38.7996
L55.2432 -38.8867
L54.9811 -38.9746
L54.7166 -39.0636
L54.4496 -39.1536
L54.1803 -39.2447
L53.9085 -39.3368
L53.6344 -39.4301
L53.3579 -39.5246
L53.0791 -39.6204
L52.798 -39.7174
L52.5147 -39.8159
L52.2291 -39.9157
L51.9414 -40.0171
L51.6517 -40.12
L51.36 -40.2245
L51.0664 -40.3307
L50.7709 -40.4387
L50.4738 -40.5486
L50.1751 -40.6604
L49.8749 -40.7742
L49.5734 -40.8902
L49.2707 -41.0084
L48.967 -41.129
L48.6625 -41.2521
L48.3573 -41.3777
L48.0516 -41.506
L47.7457 -41.6372
L47.4397 -41.7713
L47.1339 -41.9085
L46.8286 -42.049
L46.5239 -42.1928
L46.2202 -42.3402
L45.9177 -42.4913
L45.6167 -42.6462
L45.3175 -42.8051
L45.0203 -42.9682
L44.7255 -43.1355
L44.4333 -43.3073
L44.144 -43.4836
L43.858 -43.6646
L43.5754 -43.8504
L43.2967 -44.041
L43.0219 -44.2367
L42.7514 -44.4374
L42.4854 -44.6432
L42.2241 -44.8542
L41.9677 -45.0702
L41.7164 -45.2914
L41.4703 -45.5176
L41.2295 -45.7489
L40.9942 -45.985
L40.7643 -46.2258
L40.54 -46.4714
L40.3213 -46.7213
L40.1082 -46.9756
L39.9007 -47.2339
L39.6986 -47.496
L39.5021 -47.7617
L39.3109 -48.0308
L39.125 -48.3029
L38.9443 -48.5779
L38.7688 -48.8554
L38.5982 -49.1351
L38.4324 -49.4168
L38.2714 -49.7001
L38.1149 -49.9849
L37.9629 -50.2709
L37.8152 -50.5577
L37.6717 -50.8452
L37.5322 -51.133
L37.3966 -51.421
L37.2648 -51.7089
L37.1366 -51.9966
L37.0119 -52.2837
L36.8907 -52.5702
L36.7727 -52.8558
L36.6579 -53.1404
L36.5461 -53.4238
L36.4373 -53.7059
L36.3313 -53.9865
L36.2281 -54.2656
L36.1275 -54.5429
L36.0295 -54.8185
L35.934 -55.0921
L35.8409 -55.3638
L35.7502 -55.6335
L35.6616 -55.901
L35.5753 -56.1664
L35.4911 -56.4296
L35.4089 -56.6905
L35.3287 -56.9491
L35.2504 -57.2054
L35.1741 -57.4594
L35.0995 -57.711
L35.0267 -57.9602
L34.9556 -58.2071
L34.8862 -58.4515
L34.8184 -58.6936
L34.7522 -58.9333
L34.6875 -59.1706
L34.6244 -59.4056
L34.5627 -59.6382
L34.5025 -59.8685
L34.4436 -60.0965
L34.3861 -60.3222
L34.33 -60.5456
L34.2752 -60.7668
L34.2216 -60.9858
L34.1694 -61.2026
L34.1183 -61.4173
L34.0685 -61.6298
L34.0199 -61.8402
L33.9724 -62.0486
L33.9261 -62.255
L33.881 -62.4593
L33.8369 -62.6617
L33.794 -62.8622
L33.7521 -63.0608
L33.7114 -63.2575
L33.6717 -63.4524
L33.6331 -63.6456
L33.5955 -63.8369
L33.559 -64.0266
L34.0039 -64.2146
L34.5004 -64.43
L34.9974 -64.4605
L35.4946 -64.4824
L35.992 -64.4955
L36.4894 -64.5
L36.9866 -64.4958
L37.4836 -64.4829
L37.9801 -64.4614
L38.476 -64.4311
L38.9711 -64.3922
L39.4653 -64.3447
L39.9585 -64.2885
L40.4505 -64.2238
L40.9411 -64.1504
L41.4302 -64.0684
L41.9176 -63.9779
L42.4033 -63.8789
L42.887 -63.7713
L43.3686 -63.6554
L43.848 -63.531
L44.3249 -63.3982
L44.7994 -63.257
L45.2711 -63.1076
L45.74 -62.9499
L46.206 -62.784
L46.6689 -62.6099
L47.1285 -62.4277
L47.5847 -62.2375
L48.0374 -62.0393
L48.4864 -61.8332
L48.9316 -61.6191
L49.3729 -61.3973
L49.8101 -61.1678
L50.2431 -60.9305
L50.6717 -60.6857
L51.0959 -60.4334
L51.5155 -60.1736
L51.9304 -59.9065
L52.3404 -59.6321
L52.7454 -59.3504
L53.1453 -59.0617
L53.54 -58.7659
L53.9294 -58.4632
L54.3133 -58.1537
L54.6916 -57.8374
L55.0643 -57.5145
L55.4311 -57.185
L55.792 -56.849
L56.1469 -56.5068
L56.4956 -56.1582
L56.8381 -55.8035
L57.1743 -55.4428
L57.504 -55.0762
L57.8271 -54.7037
L58.1436 -54.3256
L58.4534 -53.9419
L58.7563 -53.5527
L59.0523 -53.1581
L59.3412 -52.7584
L59.6231 -52.3535
L59.8977 -51.9436
L60.1651 -51.5289
L60.4251 -51.1095
L60.6777 -50.6855
L60.9228 -50.2569
L61.1602 -49.8241
L61.39 -49.387
L61.6121 -48.9459
L61.8264 -48.5008
L62.0328 -48.0519
L62.2313 -47.5993
L62.4217 -47.1432
L62.6042 -46.6837
L62.7785 -46.221
L62.9447 -45.7551
L63.1026 -45.2863
L63.2523 -44.8146
L63.3937 -44.3403
L63.5268 -43.8634
L63.6515 -43.3841
L63.7677 -42.9026
L63.8755 -42.4189
L63.9748 -41.9333
L64.0656 -41.4459
L64.1479 -40.9569
L64.2215 -40.4663
L64.2866 -39.9744
L64.343 -39.4812
L64.3908 -38.987
L64.43 -38.4919
L64.4605 -37.9961
L64.4824 -37.4996
L64.4955 -37.0026
z
" id="C0_2_2b9e26ce46"/>
    </defs>
    <g clip-path="url(#p1bffca34e9)">
     <use style="fill:#ffffff;stroke:#000000;stroke-width:2.0;" x="0.0" xlink:href="#C0_0_a811fe30f3" y="72.0"/>
    </g>
    <g clip-path="url(#p1bffca34e9)">
     <use style="fill:#ff0000;stroke:#000000;stroke-width:2.0;" x="0.0" xlink:href="#C0_1_c610c3a0d7" y="72.0"/>
    </g>
    <g clip-path="url(#p1bffca34e9)">
     <use style="fill:#ff0000;stroke:#000000;stroke-width:2.0;" x="0.0" xlink:href="#C0_2_2b9e26ce46" y="72.0"/>
    </g>
   </g>
  </g>
 </g>
 <defs>
  <clipPath id="p1bffca34e9">
   <rect height="72.0" width="72.0" x="0.0" y="0.0"/>
  </clipPath>
 </defs>
</svg>
