<?xml version="1.0" encoding="utf-8" standalone="no"?>
<!DOCTYPE svg PUBLIC "-//W3C//DTD SVG 1.1//EN"
  "http://www.w3.org/Graphics/SVG/1.1/DTD/svg11.dtd">
<!-- Created with matplotlib (http://matplotlib.org/) -->
<svg height="72pt" version="1.1" viewBox="0 0 72 72" width="72pt" xmlns="http://www.w3.org/2000/svg" xmlns:xlink="http://www.w3.org/1999/xlink">
 <defs>
  <style type="text/css">
*{stroke-linecap:butt;stroke-linejoin:round;}
  </style>
 </defs>
 <g id="figure_1">
  <g id="patch_1">
   <path d="
M0 72
L72 72
L72 0
L0 0
z
" style="fill:none;"/>
  </g>
  <g id="axes_1">
   <g id="PatchCollection_1">
    <defs>
     <path d="
M36 -7.5
C43.5583 -7.5 50.808 -10.5029 56.1525 -15.8475
C61.4971 -21.192 64.5 -28.4417 64.5 -36
C64.5 -43.5583 61.4971 -50.808 56.1525 -56.1525
C50.808 -61.4971 43.5583 -64.5 36 -64.5
C28.4417 -64.5 21.192 -61.4971 15.8475 -56.1525
C10.5029 -50.808 7.5 -43.5583 7.5 -36
C7.5 -28.4417 10.5029 -21.192 15.8475 -15.8475
C21.192 -10.5029 28.4417 -7.5 36 -7.5
z
" id="C0_0_a811fe30f3"/>
     <path d="
M32.437 -23.8309
L32.2008 -23.9474
L31.9652 -24.0654
L31.7301 -24.1849
L31.4956 -24.3059
L31.2615 -24.4285
L31.0278 -24.5527
L30.7944 -24.6786
L30.5613 -24.8061
L30.3285 -24.9354
L30.0958 -25.0664
L29.8633 -25.1992
L29.6309 -25.3339
L29.3986 -25.4705
L29.1663 -25.609
L28.9339 -25.7495
L28.7015 -25.892
L28.4689 -26.0367
L28.2362 -26.1835
L28.0033 -26.3325
L27.7702 -26.4837
L27.5368 -26.6373
L27.3031 -26.7932
L27.0691 -26.9517
L26.8347 -27.1126
L26.5999 -27.2761
L26.3647 -27.4423
L26.129 -27.6112
L25.8929 -27.7829
L25.6563 -27.9575
L25.4191 -28.135
L25.1815 -28.3156
L24.9433 -28.4993
L24.7045 -28.6863
L24.4652 -28.8765
L24.2254 -29.0701
L23.985 -29.2671
L23.744 -29.4678
L23.5025 -29.6721
L23.2605 -29.8801
L23.0179 -30.092
L22.7749 -30.3078
L22.5315 -30.5277
L22.2876 -30.7517
L22.0433 -30.98
L21.7988 -31.2126
L21.5539 -31.4496
L21.3089 -31.6912
L21.0638 -31.9375
L20.8186 -32.1885
L20.5735 -32.4444
L20.3285 -32.7052
L20.0838 -32.971
L19.8395 -33.242
L19.5957 -33.5183
L19.3526 -33.7998
L19.1104 -34.0868
L18.8692 -34.3792
L18.6292 -34.6773
L18.3907 -34.9809
L18.1539 -35.2903
L17.9189 -35.6054
L17.6862 -35.9263
L17.456 -36.2531
L17.2286 -36.5858
L17.0043 -36.9243
L16.7836 -37.2687
L16.5667 -37.619
L16.3543 -37.9752
L16.1467 -38.3372
L15.9444 -38.7049
L15.748 -39.0783
L15.5582 -39.4573
L15.3755 -39.8417
L15.2007 -40.2313
L15.0347 -40.6261
L14.8783 -41.0256
L14.7326 -41.4297
L14.5986 -41.838
L14.4775 -42.2502
L14.3708 -42.6658
L14.2799 -43.0842
L14.2066 -43.5049
L14.1527 -43.9271
L14.1201 -44.35
L14.1109 -44.7727
L14.1272 -45.1942
L14.1709 -45.6133
L14.2437 -46.0288
L14.347 -46.4394
L14.4814 -46.8438
L14.647 -47.241
L14.8432 -47.6298
L15.0688 -48.0092
L15.3219 -48.3785
L15.6004 -48.7371
L15.9019 -49.0845
L16.2239 -49.4205
L16.5641 -49.7448
L16.9203 -50.0574
L17.2903 -50.3582
L17.6723 -50.6473
L18.0644 -50.9248
L18.4653 -51.1906
L18.8735 -51.4451
L19.2878 -51.6883
L19.707 -51.9204
L20.1303 -52.1416
L20.5567 -52.3521
L20.9855 -52.5522
L21.4159 -52.742
L21.8473 -52.9217
L22.2791 -53.0918
L22.7109 -53.2522
L23.1421 -53.4034
L23.5723 -53.5456
L24.0011 -53.6789
L24.4283 -53.8038
L24.8535 -53.9203
L25.2764 -54.0288
L25.6969 -54.1296
L26.1146 -54.2228
L26.5294 -54.3087
L26.9411 -54.3876
L27.3497 -54.4596
L27.7549 -54.5251
L28.1566 -54.5842
L28.5549 -54.6372
L28.9496 -54.6842
L29.3406 -54.7255
L29.7279 -54.7613
L30.1115 -54.7917
L30.4914 -54.8171
L30.8675 -54.8374
L31.2399 -54.853
L31.6085 -54.864
L31.9734 -54.8705
L32.3346 -54.8727
L32.6921 -54.8707
L33.046 -54.8648
L33.3963 -54.8549
L33.743 -54.8414
L34.0862 -54.8242
L34.426 -54.8034
L34.7624 -54.7793
L35.0954 -54.752
L35.4252 -54.7214
L35.7517 -54.6877
L36.0752 -54.651
L36.3955 -54.6115
L36.7128 -54.569
L37.0272 -54.5238
L37.3387 -54.4759
L37.6474 -54.4254
L37.9534 -54.3723
L38.2567 -54.3167
L38.5575 -54.2586
L38.8557 -54.1981
L39.1515 -54.1352
L39.4449 -54.0701
L39.736 -54.0026
L40.0249 -53.9328
L40.3116 -53.8609
L40.5963 -53.7867
L40.8789 -53.7103
L41.1596 -53.6318
L41.4384 -53.5511
L41.7154 -53.4683
L41.9906 -53.3834
L42.2642 -53.2964
L42.5361 -53.2073
L42.8065 -53.116
L43.0755 -53.0227
L43.3429 -52.9272
L43.6091 -52.8296
L43.8739 -52.7299
L44.1374 -52.6281
L44.3998 -52.5241
L44.6611 -52.418
L44.9213 -52.3096
L45.1804 -52.199
L45.4386 -52.0863
L45.6959 -51.9712
L45.9524 -51.8538
L46.208 -51.7342
L46.4629 -51.6121
L46.717 -51.4877
L46.9705 -51.3608
L47.2234 -51.2315
L47.4757 -51.0996
L47.7275 -50.9652
L47.9788 -50.8281
L48.2296 -50.6884
L48.48 -50.5459
L48.7301 -50.4007
L48.9798 -50.2525
L49.2292 -50.1015
L49.4783 -49.9475
L49.7272 -49.7904
L49.9758 -49.6302
L50.2243 -49.4668
L50.4726 -49.3002
L50.7207 -49.1301
L50.9687 -48.9566
L51.2165 -48.7796
L51.4643 -48.599
L51.7119 -48.4146
L51.9595 -48.2264
L52.2069 -48.0343
L52.4542 -47.8382
L52.7015 -47.6379
L52.9486 -47.4334
L53.1956 -47.2246
L53.4424 -47.0113
L53.689 -46.7934
L53.9355 -46.5708
L54.1817 -46.3434
L54.4276 -46.111
L54.6731 -45.8735
L54.9183 -45.6309
L55.163 -45.3828
L55.4071 -45.1293
L55.6507 -44.8701
L55.8936 -44.6052
L56.1356 -44.3343
L56.3768 -44.0574
L56.6169 -43.7743
L56.8559 -43.4848
L57.0936 -43.1889
L57.3298 -42.8863
L57.5645 -42.577
L57.7973 -42.2607
L58.0282 -41.9374
L58.2569 -41.6069
L58.4832 -41.2692
L58.7068 -40.924
L58.9276 -40.5712
L59.1451 -40.2108
L59.3592 -39.8427
L59.5696 -39.4667
L59.7758 -39.0829
L59.9776 -38.691
L60.1745 -38.2912
L60.3662 -37.8834
L60.5523 -37.4675
L60.7323 -37.0436
L60.9058 -36.6118
L61.0722 -36.1721
L61.2311 -35.7247
L61.3819 -35.2697
L61.524 -34.8072
L61.6568 -34.3376
L61.7797 -33.8612
L61.892 -33.3782
L61.993 -32.8893
L62.0818 -32.3948
L62.1578 -31.8954
L62.22 -31.3918
L62.2675 -30.8848
L62.2993 -30.3755
L62.3144 -29.865
L62.3117 -29.3545
L62.29 -28.8457
L62.2481 -28.3401
L62.1848 -27.8397
L62.0989 -27.3466
L61.9894 -26.8631
L61.8552 -26.3913
L61.6957 -25.9337
L61.5107 -25.4923
L61.3003 -25.0691
L61.0651 -24.6655
L60.8063 -24.2825
L60.5254 -23.9206
L60.2243 -23.5799
L59.9049 -23.2601
L59.5694 -22.9605
L59.2199 -22.6803
L58.8582 -22.4187
L58.4862 -22.1748
L58.1056 -21.9475
L57.7177 -21.736
L57.3239 -21.5395
L56.9254 -21.3571
L56.5231 -21.1881
L56.118 -21.0318
L55.7109 -20.8875
L55.3025 -20.7548
L54.8934 -20.633
L54.4842 -20.5215
L54.0753 -20.42
L53.6673 -20.3279
L53.2605 -20.2448
L52.8553 -20.1703
L52.4519 -20.104
L52.0508 -20.0455
L51.652 -19.9945
L51.2559 -19.9506
L50.8627 -19.9135
L50.4724 -19.8829
L50.0852 -19.8584
L49.7013 -19.8399
L49.3208 -19.827
L48.9438 -19.8194
L48.5703 -19.817
L48.2004 -19.8194
L47.8341 -19.8265
L47.4715 -19.838
L47.1126 -19.8538
L46.7574 -19.8736
L46.4059 -19.8973
L46.0581 -19.9246
L45.714 -19.9555
L45.3736 -19.9897
L45.0368 -20.0271
L44.7035 -20.0676
L44.3739 -20.1109
L44.0478 -20.1571
L43.7251 -20.2059
L43.4059 -20.2573
L43.09 -20.3112
L42.7775 -20.3674
L42.4682 -20.4258
L42.162 -20.4865
L41.859 -20.5492
L41.5591 -20.6139
L41.2621 -20.6805
L40.968 -20.7491
L40.6768 -20.8194
L40.3883 -20.8914
L40.1026 -20.9652
L39.8194 -21.0406
L39.5389 -21.1175
L39.2608 -21.1961
L38.9851 -21.2761
L38.7118 -21.3576
L38.4407 -21.4406
L38.1718 -21.525
L37.9051 -21.6108
L37.6404 -21.6979
L37.3777 -21.7864
L37.1169 -21.8762
L36.8579 -21.9674
L36.6008 -22.0598
L36.3453 -22.1535
L36.0914 -22.2486
L35.8392 -22.3449
L35.5884 -22.4425
L35.3391 -22.5414
L35.0912 -22.6416
L34.8446 -22.743
L34.5992 -22.8458
L34.355 -22.9499
L34.1119 -23.0552
L33.8699 -23.1619
L33.6289 -23.27
L33.3889 -23.3794
L33.1497 -23.4902
L32.9114 -23.6023
z
" id="C0_1_b776e9c2aa"/>
    </defs>
    <g clip-path="url(#p1bffca34e9)">
     <use style="fill:#ffffff;stroke:#000000;stroke-width:2.0;" x="0.0" xlink:href="#C0_0_a811fe30f3" y="72.0"/>
    </g>
    <g clip-path="url(#p1bffca34e9)">
     <use style="fill:#ff0000;stroke:#000000;stroke-width:2.0;" x="0.0" xlink:href="#C0_1_b776e9c2aa" y="72.0"/>
    </g>
   </g>
  </g>
 </g>
 <defs>
  <clipPath id="p1bffca34e9">
   <rect height="72.0" width="72.0" x="0.0" y="0.0"/>
  </clipPath>
 </defs>
</svg>
