<?xml version="1.0" encoding="utf-8" standalone="no"?>
<!DOCTYPE svg PUBLIC "-//W3C//DTD SVG 1.1//EN"
  "http://www.w3.org/Graphics/SVG/1.1/DTD/svg11.dtd">
<!-- Created with matplotlib (http://matplotlib.org/) -->
<svg height="72pt" version="1.1" viewBox="0 0 72 72" width="72pt" xmlns="http://www.w3.org/2000/svg" xmlns:xlink="http://www.w3.org/1999/xlink">
 <defs>
  <style type="text/css">
*{stroke-linecap:butt;stroke-linejoin:round;}
  </style>
 </defs>
 <g id="figure_1">
  <g id="patch_1">
   <path d="
M0 72
L72 72
L72 0
L0 0
z
" style="fill:none;"/>
  </g>
  <g id="axes_1">
   <g id="PatchCollection_1">
    <defs>
     <path d="
M36 -7.5
C43.5583 -7.5 50.808 -10.5029 56.1525 -15.8475
C61.4971 -21.192 64.5 -28.4417 64.5 -36
C64.5 -43.5583 61.4971 -50.808 56.1525 -56.1525
C50.808 -61.4971 43.5583 -64.5 36 -64.5
C28.4417 -64.5 21.192 -61.4971 15.8475 -56.1525
C10.5029 -50.808 7.5 -43.5583 7.5 -36
C7.5 -28.4417 10.5029 -21.192 15.8475 -15.8475
C21.192 -10.5029 28.4417 -7.5 36 -7.5
z
" id="C0_0_a811fe30f3"/>
     <path d="
M22.8075 -34.0688
L22.9408 -33.8353
L23.0759 -33.6027
L23.2129 -33.371
L23.3517 -33.1401
L23.4925 -32.91
L23.6353 -32.6806
L23.78 -32.452
L23.9267 -32.2241
L24.0754 -31.9969
L24.2262 -31.7703
L24.379 -31.5443
L24.534 -31.319
L24.6911 -31.0942
L24.8504 -30.87
L25.0119 -30.6463
L25.1757 -30.4231
L25.3417 -30.2004
L25.5102 -29.9782
L25.681 -29.7565
L25.8542 -29.5352
L26.0299 -29.3144
L26.2082 -29.094
L26.389 -28.8741
L26.5725 -28.6546
L26.7586 -28.4355
L26.9474 -28.2169
L27.1391 -27.9988
L27.3335 -27.7811
L27.5309 -27.5639
L27.7312 -27.3472
L27.9344 -27.131
L28.1408 -26.9153
L28.3502 -26.7002
L28.5628 -26.4857
L28.7787 -26.2719
L28.9978 -26.0587
L29.2203 -25.8462
L29.4461 -25.6345
L29.6754 -25.4237
L29.9083 -25.2137
L30.1447 -25.0048
L30.3847 -24.7968
L30.6283 -24.59
L30.8758 -24.3844
L31.1269 -24.1801
L31.3819 -23.9772
L31.6408 -23.7759
L31.9036 -23.5762
L32.1703 -23.3783
L32.441 -23.1824
L32.7157 -22.9885
L32.9945 -22.7968
L33.2773 -22.6076
L33.5642 -22.421
L33.8552 -22.2371
L34.1503 -22.0563
L34.4495 -21.8786
L34.7528 -21.7044
L35.0601 -21.534
L35.3714 -21.3675
L35.6868 -21.2052
L36.0061 -21.0475
L36.3292 -20.8946
L36.6562 -20.7468
L36.9869 -20.6046
L37.3212 -20.4682
L37.659 -20.338
L38.0002 -20.2145
L38.3446 -20.098
L38.6921 -19.9889
L39.0425 -19.8876
L39.3956 -19.7947
L39.7511 -19.7105
L40.1088 -19.6355
L40.4685 -19.5702
L40.8299 -19.5151
L41.1926 -19.4706
L41.5564 -19.4372
L41.9209 -19.4154
L42.2857 -19.4057
L42.6505 -19.4084
L43.0148 -19.424
L43.3782 -19.4528
L43.7403 -19.4952
L44.1007 -19.5516
L44.4589 -19.622
L44.8144 -19.7068
L45.1668 -19.806
L45.5156 -19.9197
L45.8605 -20.0479
L46.2008 -20.1905
L46.5364 -20.3474
L46.8666 -20.5184
L47.1912 -20.703
L47.5098 -20.9011
L47.8221 -21.1122
L48.1278 -21.3358
L48.4265 -21.5715
L48.7181 -21.8186
L49.0023 -22.0767
L49.279 -22.3451
L49.548 -22.6233
L49.8092 -22.9106
L50.0624 -23.2065
L50.3076 -23.5102
L50.5448 -23.8213
L50.7739 -24.139
L50.9949 -24.4629
L51.2079 -24.7924
L51.4128 -25.1269
L51.6097 -25.466
L51.7987 -25.8091
L51.9798 -26.1557
L52.1531 -26.5054
L52.3187 -26.8578
L52.4768 -27.2124
L52.6274 -27.5689
L52.7706 -27.927
L52.9066 -28.2863
L53.0355 -28.6464
L53.1574 -29.0071
L53.2725 -29.3681
L53.381 -29.7292
L53.4828 -30.0901
L53.5783 -30.4506
L53.6674 -30.8105
L53.7505 -31.1696
L53.8276 -31.5278
L53.8988 -31.8849
L53.9643 -32.2408
L54.0242 -32.5953
L54.0787 -32.9484
L54.1279 -33.2998
L54.1719 -33.6496
L54.2109 -33.9977
L54.245 -34.3439
L54.2742 -34.6883
L54.2988 -35.0307
L54.3188 -35.3712
L54.3343 -35.7096
L54.3455 -36.0461
L54.3525 -36.3804
L54.3553 -36.7127
L54.354 -37.0428
L54.3488 -37.3709
L54.3397 -37.6968
L54.3268 -38.0207
L54.3102 -38.3424
L54.29 -38.6621
L54.2663 -38.9797
L54.2391 -39.2952
L54.2084 -39.6086
L54.1744 -39.9201
L54.1371 -40.2295
L54.0966 -40.537
L54.0529 -40.8425
L54.006 -41.1461
L53.9561 -41.4477
L53.9031 -41.7476
L53.8472 -42.0456
L53.7882 -42.3418
L53.7263 -42.6362
L53.6615 -42.9289
L53.5939 -43.22
L53.5234 -43.5093
L53.45 -43.7971
L53.3738 -44.0832
L53.2948 -44.3678
L53.2131 -44.6509
L53.1285 -44.9325
L53.0412 -45.2127
L52.9511 -45.4914
L52.8583 -45.7688
L52.7627 -46.0449
L52.6643 -46.3196
L52.5631 -46.5931
L52.4591 -46.8653
L52.3524 -47.1363
L52.2428 -47.4061
L52.1304 -47.6748
L52.0151 -47.9424
L51.897 -48.2089
L51.7759 -48.4743
L51.652 -48.7387
L51.525 -49.002
L51.3951 -49.2644
L51.2622 -49.5257
L51.1262 -49.7862
L50.9871 -50.0457
L50.8448 -50.3042
L50.6994 -50.5619
L50.5507 -50.8186
L50.3988 -51.0745
L50.2435 -51.3295
L50.0848 -51.5836
L49.9227 -51.8369
L49.7571 -52.0892
L49.5879 -52.3407
L49.4151 -52.5913
L49.2386 -52.8411
L49.0583 -53.0899
L48.8742 -53.3378
L48.6861 -53.5848
L48.4941 -53.8308
L48.2981 -54.0758
L48.0979 -54.3198
L47.8934 -54.5627
L47.6847 -54.8046
L47.4716 -55.0453
L47.254 -55.2848
L47.0319 -55.5231
L46.8051 -55.76
L46.5736 -55.9956
L46.3373 -56.2298
L46.096 -56.4624
L45.8497 -56.6935
L45.5984 -56.9228
L45.3418 -57.1503
L45.0799 -57.3759
L44.8127 -57.5995
L44.54 -57.8209
L44.2617 -58.04
L43.9779 -58.2567
L43.6882 -58.4708
L43.3928 -58.6822
L43.0915 -58.8906
L42.7842 -59.096
L42.471 -59.2981
L42.1516 -59.4966
L41.8261 -59.6915
L41.4944 -59.8824
L41.1565 -60.0691
L40.8123 -60.2514
L40.4618 -60.429
L40.1051 -60.6016
L39.7421 -60.769
L39.3728 -60.9308
L38.9974 -61.0867
L38.6158 -61.2364
L38.228 -61.3796
L37.8343 -61.5158
L37.4348 -61.6449
L37.0295 -61.7663
L36.6186 -61.8797
L36.2024 -61.9847
L35.781 -62.0809
L35.3548 -62.168
L34.9239 -62.2454
L34.4888 -62.3129
L34.0498 -62.3699
L33.6072 -62.4161
L33.1616 -62.451
L32.7135 -62.4744
L32.2632 -62.4857
L31.8114 -62.4846
L31.3588 -62.4709
L30.9059 -62.444
L30.4533 -62.4038
L30.0019 -62.35
L29.5524 -62.2824
L29.1055 -62.2007
L28.662 -62.1049
L28.2227 -61.9948
L27.7884 -61.8704
L27.3599 -61.7318
L26.9381 -61.579
L26.5236 -61.4122
L26.1173 -61.2317
L25.7197 -61.0376
L25.3317 -60.8304
L24.9538 -60.6104
L24.5866 -60.3782
L24.2305 -60.1342
L23.8859 -59.8789
L23.5533 -59.613
L23.2329 -59.3371
L22.9248 -59.0517
L22.6293 -58.7576
L22.3465 -58.4553
L22.0763 -58.1456
L21.8187 -57.8291
L21.5736 -57.5063
L21.341 -57.1781
L21.1206 -56.8448
L20.9123 -56.5072
L20.7158 -56.1657
L20.5309 -55.8209
L20.3573 -55.4733
L20.1948 -55.1234
L20.043 -54.7716
L19.9016 -54.4184
L19.7704 -54.0641
L19.649 -53.709
L19.5371 -53.3537
L19.4345 -52.9982
L19.3407 -52.6431
L19.2555 -52.2884
L19.1785 -51.9345
L19.1096 -51.5816
L19.0483 -51.2299
L18.9945 -50.8795
L18.9477 -50.5307
L18.9079 -50.1836
L18.8746 -49.8383
L18.8477 -49.495
L18.8269 -49.1538
L18.812 -48.8147
L18.8027 -48.4779
L18.7989 -48.1434
L18.8002 -47.8113
L18.8066 -47.4816
L18.8177 -47.1544
L18.8335 -46.8297
L18.8538 -46.5075
L18.8783 -46.1879
L18.907 -45.8708
L18.9396 -45.5564
L18.976 -45.2445
L19.0161 -44.9352
L19.0598 -44.6284
L19.1068 -44.3242
L19.1572 -44.0225
L19.2107 -43.7233
L19.2673 -43.4267
L19.3268 -43.1324
L19.3892 -42.8407
L19.4544 -42.5513
L19.5223 -42.2642
L19.5927 -41.9795
L19.6657 -41.6971
L19.7412 -41.4169
L19.819 -41.139
L19.8992 -40.8632
L19.9816 -40.5895
L20.0662 -40.3179
L20.153 -40.0483
L20.2419 -39.7807
L20.3329 -39.5151
L20.4258 -39.2513
L20.5208 -38.9894
L20.6178 -38.7293
L20.7166 -38.471
L20.8174 -38.2143
L20.92 -37.9593
L21.0245 -37.706
L21.1308 -37.4542
L21.239 -37.2039
L21.3489 -36.9551
L21.4607 -36.7077
L21.5742 -36.4618
L21.6895 -36.2171
L21.8066 -35.9738
L21.9254 -35.7317
L22.0461 -35.4908
L22.1685 -35.2512
L22.2927 -35.0126
L22.4187 -34.7751
L22.5465 -34.5387
z
" id="C0_1_1486cce74e"/>
    </defs>
    <g clip-path="url(#p1bffca34e9)">
     <use style="fill:#ffffff;stroke:#000000;stroke-width:2.0;" x="0.0" xlink:href="#C0_0_a811fe30f3" y="72.0"/>
    </g>
    <g clip-path="url(#p1bffca34e9)">
     <use style="fill:#ff0000;stroke:#000000;stroke-width:2.0;" x="0.0" xlink:href="#C0_1_1486cce74e" y="72.0"/>
    </g>
   </g>
  </g>
 </g>
 <defs>
  <clipPath id="p1bffca34e9">
   <rect height="72.0" width="72.0" x="0.0" y="0.0"/>
  </clipPath>
 </defs>
</svg>
