<?xml version="1.0" encoding="utf-8" standalone="no"?>
<!DOCTYPE svg PUBLIC "-//W3C//DTD SVG 1.1//EN"
  "http://www.w3.org/Graphics/SVG/1.1/DTD/svg11.dtd">
<!-- Created with matplotlib (http://matplotlib.org/) -->
<svg height="72pt" version="1.1" viewBox="0 0 72 72" width="72pt" xmlns="http://www.w3.org/2000/svg" xmlns:xlink="http://www.w3.org/1999/xlink">
 <defs>
  <style type="text/css">
*{stroke-linecap:butt;stroke-linejoin:round;}
  </style>
 </defs>
 <g id="figure_1">
  <g id="patch_1">
   <path d="
M0 72
L72 72
L72 0
L0 0
z
" style="fill:none;"/>
  </g>
  <g id="axes_1">
   <g id="PatchCollection_1">
    <defs>
     <path d="
M36 -7.5
C43.5583 -7.5 50.808 -10.5029 56.1525 -15.8475
C61.4971 -21.192 64.5 -28.4417 64.5 -36
C64.5 -43.5583 61.4971 -50.808 56.1525 -56.1525
C50.808 -61.4971 43.5583 -64.5 36 -64.5
C28.4417 -64.5 21.192 -61.4971 15.8475 -56.1525
C10.5029 -50.808 7.5 -43.5583 7.5 -36
C7.5 -28.4417 10.5029 -21.192 15.8475 -15.8475
C21.192 -10.5029 28.4417 -7.5 36 -7.5
z
" id="C0_0_a811fe30f3"/>
     <path d="
M25.4322 -62.2932
L25.5582 -62.0644
L25.6597 -61.8174
L25.74 -61.5544
L25.8018 -61.277
L25.8481 -60.9872
L25.8814 -60.6865
L25.9039 -60.3764
L25.9177 -60.0581
L25.9245 -59.733
L25.9258 -59.402
L25.9228 -59.066
L25.9166 -58.726
L25.9081 -58.3825
L25.8981 -58.0363
L25.8872 -57.688
L25.8759 -57.3381
L25.8646 -56.987
L25.8537 -56.6353
L25.8436 -56.2832
L25.8343 -55.9311
L25.8262 -55.5794
L25.8193 -55.2283
L25.8138 -54.8781
L25.8098 -54.529
L25.8073 -54.1812
L25.8064 -53.8349
L25.8071 -53.4902
L25.8094 -53.1472
L25.8133 -52.8063
L25.8189 -52.4673
L25.8261 -52.1304
L25.8349 -51.7958
L25.8452 -51.4634
L25.8571 -51.1333
L25.8705 -50.8056
L25.8853 -50.4803
L25.9016 -50.1574
L25.9193 -49.8371
L25.9384 -49.5191
L25.9587 -49.2037
L25.9804 -48.8907
L26.0033 -48.5802
L26.0274 -48.2721
L26.0526 -47.9665
L26.079 -47.6632
L26.1066 -47.3624
L26.1352 -47.0639
L26.1648 -46.7677
L26.1954 -46.4738
L26.227 -46.1821
L26.2596 -45.8926
L26.2931 -45.6053
L26.3275 -45.3201
L26.3628 -45.0369
L26.3989 -44.7557
L26.4359 -44.4764
L26.4737 -44.1991
L26.5123 -43.9235
L26.5517 -43.6498
L26.5918 -43.3778
L26.6327 -43.1074
L26.6744 -42.8386
L26.7168 -42.5714
L26.7599 -42.3057
L26.8037 -42.0414
L26.8483 -41.7785
L26.8935 -41.5168
L26.9395 -41.2565
L26.9861 -40.9973
L27.0334 -40.7392
L27.0814 -40.4822
L27.1302 -40.2262
L27.1795 -39.9711
L27.2296 -39.7169
L27.2804 -39.4635
L27.3319 -39.2109
L27.3841 -38.959
L27.4369 -38.7077
L27.4905 -38.457
L27.5448 -38.2068
L27.5999 -37.9571
L27.6557 -37.7077
L27.7122 -37.4587
L27.7694 -37.21
L27.8863 -36.9615
L27.9459 -36.7131
L28.0063 -36.4649
L28.0676 -36.2166
L28.1297 -35.9684
L28.1926 -35.72
L28.2564 -35.4716
L28.3211 -35.2229
L28.3867 -34.9739
L28.4532 -34.7247
L28.5207 -34.475
L28.5891 -34.2249
L28.6586 -33.9744
L28.729 -33.7232
L28.8006 -33.4715
L28.8731 -33.2191
L28.9468 -32.9659
L29.0216 -32.712
L29.0975 -32.4572
L29.1746 -32.2015
L29.253 -31.9448
L29.3325 -31.6872
L29.4133 -31.4284
L29.4955 -31.1686
L29.579 -30.9075
L29.6638 -30.6452
L29.75 -30.3816
L29.8377 -30.1167
L29.9269 -29.8503
L30.0176 -29.5825
L30.1098 -29.3132
L30.2037 -29.0424
L30.2991 -28.7699
L30.3963 -28.4958
L30.4951 -28.2199
L30.5957 -27.9424
L30.6982 -27.663
L30.8024 -27.3818
L30.9085 -27.0988
L31.0166 -26.8138
L31.1266 -26.5269
L31.2386 -26.2381
L31.3526 -25.9472
L31.4688 -25.6543
L31.5871 -25.3594
L31.7075 -25.0624
L31.8301 -24.7633
L31.955 -24.4622
L32.0821 -24.159
L32.2115 -23.8537
L32.3432 -23.5463
L32.4772 -23.2369
L32.6136 -22.9254
L32.7523 -22.6119
L32.8934 -22.2964
L33.0369 -21.979
L33.1827 -21.6597
L33.3308 -21.3386
L33.4811 -21.0157
L33.6338 -20.6911
L33.7885 -20.365
L33.9454 -20.0373
L34.1043 -19.7083
L34.265 -19.378
L34.4275 -19.0465
L34.5915 -18.7141
L34.7568 -18.3808
L34.9232 -18.0469
L35.0904 -17.7125
L35.258 -17.3777
L35.4256 -17.0429
L35.5928 -16.7083
L35.759 -16.374
L35.9235 -16.0403
L36.0856 -15.7075
L36.2444 -15.3758
L36.3988 -15.0456
L36.5477 -14.7171
L36.6896 -14.3907
L36.8229 -14.0667
L36.9458 -13.7455
L37.0562 -13.4274
L37.1516 -13.1128
L37.2294 -12.8021
L37.2867 -12.4958
L37.3203 -12.1943
L37.3273 -11.8982
L37.3043 -11.608
L37.2486 -11.3242
L37.1578 -11.0474
L37.0301 -10.7783
L36.8645 -10.5175
L36.6611 -10.2656
L36.4205 -10.0234
L36.1443 -9.7913
L35.8346 -9.56999
L35.494 -9.35997
L35.1252 -9.16169
L34.7309 -8.97557
L34.3141 -8.80196
L33.8773 -8.64116
L33.4229 -8.49341
L32.9534 -8.3589
L32.4708 -8.23778
L31.977 -8.13014
L31.4736 -8.03607
L30.9685 -7.95557
L30.4797 -7.94765
L29.9926 -8.03974
L29.5073 -8.14034
L29.0239 -8.24943
L28.5427 -8.36697
L28.0638 -8.49292
L27.5873 -8.62726
L27.1133 -8.76994
L26.6421 -8.92091
L26.1737 -9.08012
L25.7083 -9.24754
L25.2461 -9.42311
L24.7871 -9.60677
L24.3315 -9.79847
L23.8795 -9.99816
L23.4311 -10.2058
L22.9867 -10.4212
L22.5461 -10.6445
L22.1097 -10.8754
L21.6775 -11.1141
L21.2496 -11.3603
L20.8263 -11.614
L20.4076 -11.8751
L19.9936 -12.1436
L19.5845 -12.4194
L19.1804 -12.7023
L18.7814 -12.9924
L18.3877 -13.2894
L17.9993 -13.5934
L17.6164 -13.9042
L17.2391 -14.2217
L16.8676 -14.5459
L16.5018 -14.8765
L16.142 -15.2137
L15.7883 -15.5571
L15.4407 -15.9068
L15.0994 -16.2626
L14.7644 -16.6244
L14.4359 -16.9921
L14.114 -17.3657
L13.7987 -17.7448
L13.4902 -18.1296
L13.1885 -18.5198
L12.8939 -18.9153
L12.6062 -19.316
L12.3257 -19.7218
L12.0523 -20.1326
L11.7863 -20.5481
L11.5277 -20.9684
L11.2765 -21.3933
L11.0328 -21.8226
L10.7968 -22.2563
L10.5684 -22.6941
L10.3477 -23.136
L10.1349 -23.5818
L9.92998 -24.0314
L9.73298 -24.4846
L9.54398 -24.9414
L9.36304 -25.4015
L9.19021 -25.8648
L9.02555 -26.3312
L8.86911 -26.8006
L8.72093 -27.2728
L8.58106 -27.7476
L8.44954 -28.2249
L8.32642 -28.7046
L8.21172 -29.1866
L8.10549 -29.6706
L8.00775 -30.1565
L7.91855 -30.6442
L7.83789 -31.1336
L7.76582 -31.6244
L7.70234 -32.1166
L7.64749 -32.6099
L7.60127 -33.1043
L7.5637 -33.5996
L7.5348 -34.0956
L7.51456 -34.5921
L7.503 -35.0891
L7.50012 -35.5864
L7.50593 -36.0838
L7.52041 -36.5812
L7.54357 -37.0784
L7.57539 -37.5753
L7.61588 -38.0717
L7.66501 -38.5674
L7.72277 -39.0624
L7.78915 -39.5564
L7.86411 -40.0494
L7.94765 -40.5411
L8.03974 -41.0315
L8.14034 -41.5203
L8.24943 -42.0074
L8.36697 -42.4927
L8.49292 -42.9761
L8.62726 -43.4573
L8.76994 -43.9362
L8.92091 -44.4127
L9.08012 -44.8867
L9.24754 -45.3579
L9.42311 -45.8263
L9.60677 -46.2917
L9.79847 -46.7539
L9.99816 -47.2129
L10.2058 -47.6685
L10.4212 -48.1205
L10.6445 -48.5689
L10.8754 -49.0133
L11.1141 -49.4539
L11.3603 -49.8903
L11.614 -50.3225
L11.8751 -50.7504
L12.1436 -51.1737
L12.4194 -51.5924
L12.7023 -52.0064
L12.9924 -52.4155
L13.2894 -52.8196
L13.5934 -53.2186
L13.9042 -53.6123
L14.2217 -54.0007
L14.5459 -54.3836
L14.8765 -54.7609
L15.2137 -55.1324
L15.5571 -55.4982
L15.9068 -55.858
L16.2626 -56.2117
L16.6244 -56.5593
L16.9921 -56.9006
L17.3657 -57.2356
L17.7448 -57.5641
L18.1296 -57.886
L18.5198 -58.2013
L18.9153 -58.5098
L19.316 -58.8115
L19.7218 -59.1061
L20.1326 -59.3938
L20.5481 -59.6743
L20.9684 -59.9477
L21.3933 -60.2137
L21.8226 -60.4723
L22.2563 -60.7235
L22.6941 -60.9672
L23.136 -61.2032
L23.5818 -61.4316
L24.0314 -61.6523
L24.4846 -61.8651
z
" id="C0_1_48aefd49ca"/>
     <path d="
M41.0168 -63.9948
L41.4749 -63.7563
L41.9291 -63.5117
L42.3786 -63.2613
L42.8226 -63.0052
L43.2603 -62.7437
L43.6914 -62.477
L44.1153 -62.2055
L44.5316 -61.9295
L44.9402 -61.6491
L45.3406 -61.3649
L45.7328 -61.077
L46.1166 -60.7858
L46.492 -60.4915
L46.8589 -60.1945
L47.2172 -59.895
L47.567 -59.5932
L47.9084 -59.2895
L48.2413 -58.9841
L48.5658 -58.6772
L48.8822 -58.3691
L49.1904 -58.0598
L49.4905 -57.7497
L49.7828 -57.4389
L50.0672 -57.1276
L50.3441 -56.8158
L50.6135 -56.5039
L50.8755 -56.1918
L51.1304 -55.8797
L51.3783 -55.5678
L51.6193 -55.256
L51.8536 -54.9446
L52.0813 -54.6336
L52.3027 -54.323
L52.5178 -54.0129
L52.7268 -53.7034
L52.9299 -53.3945
L53.1272 -53.0862
L53.3189 -52.7787
L53.505 -52.4718
L53.6858 -52.1657
L53.8614 -51.8603
L54.0318 -51.5557
L54.1973 -51.2518
L54.3579 -50.9487
L54.5138 -50.6463
L54.6651 -50.3447
L54.8119 -50.0439
L54.9543 -49.7437
L55.0925 -49.4442
L55.2264 -49.1454
L55.3563 -48.8473
L55.4822 -48.5498
L55.6041 -48.2528
L55.7223 -47.9565
L55.8367 -47.6606
L55.9475 -47.3653
L56.0547 -47.0704
L56.1583 -46.7758
L56.2586 -46.4817
L56.3554 -46.1879
L56.449 -45.8944
L56.5393 -45.6011
L56.6263 -45.3079
L56.7103 -45.0149
L56.7911 -44.722
L56.8688 -44.4292
L56.9436 -44.1363
L57.0153 -43.8434
L57.0841 -43.5503
L57.15 -43.257
L57.213 -42.9636
L57.2732 -42.6698
L57.3305 -42.3757
L57.3849 -42.0812
L57.4366 -41.7862
L57.4855 -41.4907
L57.5315 -41.1946
L57.5749 -40.8979
L57.6154 -40.6005
L57.6532 -40.3024
L57.6882 -40.0034
L57.7204 -39.7036
L57.7498 -39.4028
L57.7764 -39.101
L57.8002 -38.7982
L57.8212 -38.4942
L57.8393 -38.1891
L57.8546 -37.8827
L57.8669 -37.575
L57.8763 -37.266
L57.8828 -36.9555
L57.8862 -36.6435
L57.8866 -36.3299
L57.8839 -36.0148
L57.878 -35.6979
L57.869 -35.3793
L57.8567 -35.059
L57.8411 -34.7367
L57.8221 -34.4126
L57.7997 -34.0865
L57.7737 -33.7583
L57.7442 -33.4281
L57.7111 -33.0957
L57.6741 -32.7612
L57.6334 -32.4244
L57.5887 -32.0853
L57.54 -31.7439
L57.4872 -31.4001
L57.4302 -31.0539
L57.3689 -30.7053
L57.3031 -30.3542
L57.2328 -30.0005
L57.1578 -29.6444
L57.078 -29.2857
L56.9933 -28.9244
L56.9035 -28.5605
L56.8086 -28.1941
L56.7084 -27.825
L56.6027 -27.4534
L56.4914 -27.0793
L56.3744 -26.7026
L56.2516 -26.3234
L56.1227 -25.9418
L55.9876 -25.5578
L55.8463 -25.1714
L55.6985 -24.7827
L55.5442 -24.3919
L55.3831 -23.999
L55.2153 -23.6041
L55.0404 -23.2074
L54.8585 -22.809
L54.6695 -22.4089
L54.4731 -22.0075
L54.2695 -21.6049
L54.0585 -21.2013
L53.84 -20.7969
L53.6142 -20.3919
L53.3809 -19.9866
L53.1403 -19.5813
L52.8924 -19.1762
L52.6374 -18.7717
L52.3755 -18.368
L52.1069 -17.9655
L51.832 -17.5646
L51.5511 -17.1656
L51.2648 -16.7689
L50.9736 -16.3749
L50.6783 -15.984
L50.3798 -15.5966
L50.079 -15.2132
L49.7772 -14.8342
L49.4759 -14.4599
L49.1766 -14.0909
L48.8813 -13.7276
L48.5923 -13.3703
L48.3121 -13.0194
L48.0433 -12.6754
L47.7892 -12.3385
L47.5529 -12.009
L47.3379 -11.6872
L47.1474 -11.3734
L46.9847 -11.0676
L46.8523 -10.7699
L46.7522 -10.4805
L46.6859 -10.1994
L46.6536 -9.92663
L47.1476 -9.66214
L47.6037 -9.77061
L48.0562 -9.96916
L48.5051 -10.1756
L48.9501 -10.39
L49.3912 -10.6121
L49.8283 -10.842
L50.2611 -11.0795
L50.6895 -11.3247
L51.1135 -11.5773
L51.5329 -11.8374
L51.9476 -12.1049
L52.3574 -12.3796
L52.7622 -12.6615
L53.1619 -12.9505
L53.5564 -13.2466
L53.9456 -13.5496
L54.3292 -13.8594
L54.7073 -14.176
L55.0797 -14.4992
L55.4463 -14.8289
L55.807 -15.1651
L56.1616 -15.5077
L56.5101 -15.8565
L56.8523 -16.2114
L57.1882 -16.5724
L57.5176 -16.9393
L57.8405 -17.312
L58.1567 -17.6904
L58.4662 -18.0743
L58.7688 -18.4637
L59.0645 -18.8585
L59.3532 -19.2585
L59.6347 -19.6635
L59.9091 -20.0736
L60.1761 -20.4885
L60.4359 -20.9081
L60.6881 -21.3324
L60.9329 -21.7611
L61.17 -22.1941
L61.3995 -22.6314
L61.6212 -23.0727
L61.8352 -23.5179
L62.0412 -23.967
L62.2394 -24.4197
L62.4295 -24.8759
L62.6116 -25.3356
L62.7856 -25.7985
L62.9514 -26.2644
L63.1091 -26.7334
L63.2584 -27.2052
L63.3995 -27.6796
L63.5322 -28.1566
L63.6565 -28.636
L63.7724 -29.1176
L63.8799 -29.6014
L63.9788 -30.087
L64.0692 -30.5745
L64.1511 -31.0636
L64.2244 -31.5542
L64.2891 -32.0462
L64.3452 -32.5394
L64.3927 -33.0337
L64.4315 -33.5288
L64.4616 -34.0247
L64.4831 -34.5212
L64.4959 -35.0181
L64.5 -35.5154
L64.4954 -36.0128
L64.4822 -36.5102
L64.4603 -37.0074
L64.4297 -37.5043
L64.3904 -38.0008
L64.3425 -38.4967
L64.286 -38.9918
L64.2209 -39.486
L64.1471 -39.9791
L64.0648 -40.471
L63.9739 -40.9616
L63.8745 -41.4506
L63.7667 -41.938
L63.6503 -42.4236
L63.5256 -42.9072
L63.3924 -43.3887
L63.2509 -43.868
L63.1012 -44.3448
L62.9431 -44.8191
L62.7769 -45.2908
L62.6025 -45.7596
L62.4199 -46.2254
L62.2294 -46.6881
L62.0308 -47.1476
L61.8244 -47.6037
L61.61 -48.0562
L61.3879 -48.5051
L61.158 -48.9501
L60.9205 -49.3912
L60.6753 -49.8283
L60.4227 -50.2611
L60.1626 -50.6895
L59.8951 -51.1135
L59.6204 -51.5329
L59.3385 -51.9476
L59.0495 -52.3574
L58.7534 -52.7622
L58.4504 -53.1619
L58.1406 -53.5564
L57.824 -53.9456
L57.5008 -54.3292
L57.1711 -54.7073
L56.8349 -55.0797
L56.4923 -55.4463
L56.1435 -55.807
L55.7886 -56.1616
L55.4276 -56.5101
L55.0607 -56.8523
L54.688 -57.1882
L54.3096 -57.5176
L53.9257 -57.8405
L53.5363 -58.1567
L53.1415 -58.4662
L52.7415 -58.7688
L52.3365 -59.0645
L51.9264 -59.3532
L51.5115 -59.6347
L51.0919 -59.9091
L50.6676 -60.1761
L50.2389 -60.4359
L49.8059 -60.6881
L49.3686 -60.9329
L48.9273 -61.17
L48.4821 -61.3995
L48.033 -61.6212
L47.5803 -61.8352
L47.1241 -62.0412
L46.6644 -62.2394
L46.2015 -62.4295
L45.7356 -62.6116
L45.2666 -62.7856
L44.7948 -62.9514
L44.3204 -63.1091
L43.8434 -63.2584
L43.364 -63.3995
L42.8824 -63.5322
L42.3986 -63.6565
L41.913 -63.7724
z
" id="C0_2_1d45cf35df"/>
    </defs>
    <g clip-path="url(#p1bffca34e9)">
     <use style="fill:#ff0000;stroke:#000000;stroke-width:2.0;" x="0.0" xlink:href="#C0_0_a811fe30f3" y="72.0"/>
    </g>
    <g clip-path="url(#p1bffca34e9)">
     <use style="fill:#ffffff;stroke:#000000;stroke-width:2.0;" x="0.0" xlink:href="#C0_1_48aefd49ca" y="72.0"/>
    </g>
    <g clip-path="url(#p1bffca34e9)">
     <use style="fill:#ffffff;stroke:#000000;stroke-width:2.0;" x="0.0" xlink:href="#C0_2_1d45cf35df" y="72.0"/>
    </g>
   </g>
  </g>
 </g>
 <defs>
  <clipPath id="p1bffca34e9">
   <rect height="72.0" width="72.0" x="0.0" y="0.0"/>
  </clipPath>
 </defs>
</svg>
