<?xml version="1.0" encoding="utf-8" standalone="no"?>
<!DOCTYPE svg PUBLIC "-//W3C//DTD SVG 1.1//EN"
  "http://www.w3.org/Graphics/SVG/1.1/DTD/svg11.dtd">
<!-- Created with matplotlib (http://matplotlib.org/) -->
<svg height="72pt" version="1.1" viewBox="0 0 72 72" width="72pt" xmlns="http://www.w3.org/2000/svg" xmlns:xlink="http://www.w3.org/1999/xlink">
 <defs>
  <style type="text/css">
*{stroke-linecap:butt;stroke-linejoin:round;}
  </style>
 </defs>
 <g id="figure_1">
  <g id="patch_1">
   <path d="
M0 72
L72 72
L72 0
L0 0
z
" style="fill:none;"/>
  </g>
  <g id="axes_1">
   <g id="PatchCollection_1">
    <defs>
     <path d="
M36 -7.5
C43.5583 -7.5 50.808 -10.5029 56.1525 -15.8475
C61.4971 -21.192 64.5 -28.4417 64.5 -36
C64.5 -43.5583 61.4971 -50.808 56.1525 -56.1525
C50.808 -61.4971 43.5583 -64.5 36 -64.5
C28.4417 -64.5 21.192 -61.4971 15.8475 -56.1525
C10.5029 -50.808 7.5 -43.5583 7.5 -36
C7.5 -28.4417 10.5029 -21.192 15.8475 -15.8475
C21.192 -10.5029 28.4417 -7.5 36 -7.5
z
" id="C0_0_a811fe30f3"/>
     <path d="
M11.1374 -49.577
L11.3634 -49.4387
L11.6084 -49.3197
L11.87 -49.2174
L12.146 -49.1291
L12.4347 -49.0525
L12.7342 -48.9857
L13.0429 -48.9266
L13.3594 -48.8739
L13.6826 -48.826
L14.0114 -48.7819
L14.3447 -48.7407
L14.6818 -48.7014
L15.0219 -48.6635
L15.3643 -48.6264
L15.7084 -48.5897
L16.0538 -48.5529
L16.3998 -48.5157
L16.7463 -48.478
L17.0926 -48.4395
L17.4386 -48.4001
L17.7839 -48.3597
L18.1283 -48.3181
L18.4714 -48.2753
L18.8132 -48.2313
L19.1534 -48.1861
L19.4919 -48.1395
L19.8284 -48.0917
L20.163 -48.0427
L20.4954 -47.9923
L20.8256 -47.9408
L21.1535 -47.8881
L21.479 -47.8342
L21.8021 -47.7791
L22.1228 -47.723
L22.441 -47.6658
L22.7566 -47.6075
L23.0697 -47.5483
L23.3802 -47.4881
L23.6882 -47.427
L23.9937 -47.365
L24.2966 -47.3022
L24.597 -47.2385
L24.8949 -47.1741
L25.1903 -47.1089
L25.4833 -47.0429
L25.7739 -46.9763
L26.0621 -46.909
L26.348 -46.841
L26.6316 -46.7724
L26.913 -46.7032
L27.1921 -46.6333
L27.4692 -46.5629
L27.7441 -46.492
L28.017 -46.4205
L28.2879 -46.3484
L28.5569 -46.2759
L28.824 -46.2028
L29.0893 -46.1292
L29.3529 -46.0551
L29.6147 -45.9805
L29.8749 -45.9054
L30.1335 -45.8298
L30.3906 -45.7537
L30.6462 -45.6771
L30.9004 -45.6001
L31.1532 -45.5225
L31.4048 -45.4445
L31.6552 -45.3659
L31.9044 -45.2868
L32.1525 -45.2073
L32.3995 -45.1272
L32.6455 -45.0465
L32.8907 -44.9653
L33.1349 -44.8836
L33.3784 -44.8013
L33.6211 -44.7185
L33.8631 -44.6351
L34.1045 -44.551
L34.3454 -44.4664
L34.5857 -44.3811
L34.8256 -44.2952
L35.065 -44.2086
L35.3042 -44.1213
L35.7817 -44.0333
L36.0202 -43.9446
L36.2585 -43.8552
L36.4969 -43.765
L36.7352 -43.674
L36.9736 -43.5823
L37.2122 -43.4897
L37.4509 -43.3962
L37.6898 -43.3019
L37.929 -43.2066
L38.1686 -43.1105
L38.4086 -43.0133
L38.6491 -42.9152
L38.8901 -42.8161
L39.1316 -42.7159
L39.3738 -42.6146
L39.6166 -42.5123
L39.8602 -42.4088
L40.1046 -42.3041
L40.3498 -42.1982
L40.5959 -42.0911
L40.843 -41.9826
L41.091 -41.8729
L41.3402 -41.7618
L41.5904 -41.6494
L41.8418 -41.5355
L42.0944 -41.4201
L42.3482 -41.3032
L42.6034 -41.1848
L42.8599 -41.0647
L43.1178 -40.9431
L43.3772 -40.8197
L43.638 -40.6947
L43.9004 -40.5678
L44.1644 -40.4392
L44.4299 -40.3087
L44.6971 -40.1763
L44.966 -40.042
L45.2366 -39.9057
L45.509 -39.7674
L45.7831 -39.6269
L46.0591 -39.4844
L46.3368 -39.3397
L46.6164 -39.1929
L46.8978 -39.0437
L47.1812 -38.8923
L47.4663 -38.7386
L47.7534 -38.5826
L48.0423 -38.4242
L48.3331 -38.2633
L48.6257 -38.1001
L48.9202 -37.9343
L49.2164 -37.7662
L49.5145 -37.5955
L49.8142 -37.4224
L50.1156 -37.2468
L50.4187 -37.0688
L50.7233 -36.8883
L51.0295 -36.7055
L51.337 -36.5203
L51.6459 -36.3328
L51.956 -36.1431
L52.2672 -35.9512
L52.5794 -35.7574
L52.8926 -35.5617
L53.2065 -35.3643
L53.521 -35.1655
L53.836 -34.9653
L54.1513 -34.7642
L54.4667 -34.5623
L54.7822 -34.3602
L55.0974 -34.1582
L55.4122 -33.9568
L55.7265 -33.7566
L56.04 -33.5583
L56.3526 -33.3627
L56.6641 -33.1706
L56.9742 -32.9831
L57.2829 -32.8015
L57.5898 -32.6272
L57.895 -32.4618
L58.1981 -32.3071
L58.4991 -32.1653
L58.7977 -32.0388
L59.0939 -31.9302
L59.3875 -31.8425
L59.6782 -31.7787
L59.9658 -31.7421
L60.2501 -31.7356
L60.5306 -31.7621
L60.807 -31.8242
L61.0787 -31.9234
L61.3449 -32.0609
L61.6052 -32.2368
L61.8587 -32.4503
L62.1047 -32.6999
L62.3425 -32.9836
L62.5713 -33.2989
L62.7906 -33.6433
L62.9997 -34.0138
L63.1982 -34.4079
L63.3856 -34.8229
L63.5615 -35.2563
L63.7255 -35.7061
L63.8775 -36.1701
L64.0173 -36.6465
L64.1446 -37.1335
L64.2594 -37.6297
L64.3616 -38.1336
L64.3265 -38.644
L64.2673 -39.1403
L64.1996 -39.6341
L64.1233 -40.1269
L64.0384 -40.6184
L63.945 -41.1086
L63.843 -41.5971
L63.7326 -42.084
L63.6138 -42.569
L63.4865 -43.052
L63.3508 -43.5328
L63.2068 -44.0114
L63.0546 -44.4875
L62.8941 -44.961
L62.7254 -45.4318
L62.5485 -45.8998
L62.3636 -46.3647
L62.1706 -46.8264
L61.9697 -47.2849
L61.7608 -47.7399
L61.5441 -48.1914
L61.3197 -48.6391
L61.0875 -49.083
L60.8477 -49.5229
L60.6003 -49.9587
L60.3454 -50.3902
L60.0831 -50.8173
L59.8134 -51.2399
L59.5365 -51.6579
L59.2525 -52.0712
L58.9613 -52.4795
L58.6632 -52.8828
L58.3581 -53.2809
L58.0463 -53.6738
L57.7277 -54.0613
L57.4025 -54.4433
L57.0708 -54.8197
L56.7327 -55.1904
L56.3882 -55.5552
L56.0376 -55.9141
L55.6808 -56.2669
L55.3181 -56.6135
L54.9494 -56.9538
L54.575 -57.2878
L54.195 -57.6152
L53.8093 -57.9361
L53.4183 -58.2503
L53.022 -58.5578
L52.6204 -58.8583
L52.2139 -59.1519
L51.8023 -59.4384
L51.386 -59.7178
L50.965 -59.99
L50.5394 -60.2549
L50.1094 -60.5124
L49.675 -60.7624
L49.2366 -61.0049
L48.7941 -61.2397
L48.3477 -61.4669
L47.8975 -61.6863
L47.4437 -61.8979
L46.9864 -62.1016
L46.5258 -62.2973
L46.062 -62.485
L45.5951 -62.6647
L45.1252 -62.8363
L44.6526 -62.9996
L44.1774 -63.1548
L43.6997 -63.3016
L43.2196 -63.4402
L42.7373 -63.5704
L42.253 -63.6922
L41.7668 -63.8056
L41.2788 -63.9105
L40.7892 -64.0069
L40.2982 -64.0947
L39.8058 -64.174
L39.3123 -64.2447
L38.8178 -64.3069
L38.3224 -64.3604
L37.8263 -64.4052
L37.3296 -64.4414
L36.8326 -64.469
L36.3353 -64.4878
L35.8379 -64.498
L35.3405 -64.4995
L34.8434 -64.4924
L34.3465 -64.4765
L33.8502 -64.452
L33.3546 -64.4188
L32.8597 -64.377
L32.3659 -64.3265
L31.8731 -64.2673
L31.3816 -64.1996
L30.8914 -64.1233
L30.4029 -64.0384
L29.916 -63.945
L29.431 -63.843
L28.948 -63.7326
L28.4672 -63.6138
L27.9886 -63.4865
L27.5125 -63.3508
L27.039 -63.2068
L26.5682 -63.0546
L26.1002 -62.8941
L25.6353 -62.7254
L25.1736 -62.5485
L24.7151 -62.3636
L24.2601 -62.1706
L23.8086 -61.9697
L23.3609 -61.7608
L22.917 -61.5441
L22.4771 -61.3197
L22.0413 -61.0875
L21.6098 -60.8477
L21.1827 -60.6003
L20.7601 -60.3454
L20.3421 -60.0831
L19.9288 -59.8134
L19.5205 -59.5365
L19.1172 -59.2525
L18.7191 -58.9613
L18.3262 -58.6632
L17.9387 -58.3581
L17.5567 -58.0463
L17.1803 -57.7277
L16.8096 -57.4025
L16.4448 -57.0708
L16.0859 -56.7327
L15.7331 -56.3882
L15.3865 -56.0376
L15.0462 -55.6808
L14.7122 -55.3181
L14.3848 -54.9494
L14.0639 -54.575
L13.7497 -54.195
L13.4422 -53.8093
L13.1417 -53.4183
L12.8481 -53.022
L12.5616 -52.6204
L12.2822 -52.2139
L12.01 -51.8023
L11.7451 -51.386
L11.4876 -50.965
L11.2376 -50.5394
z
" id="C0_1_97da56c6f1"/>
     <path d="
M7.79998 -32.8682
L7.9989 -32.3882
L8.20421 -31.914
L8.41571 -31.446
L8.63315 -30.9848
L8.85627 -30.5308
L9.08477 -30.0843
L9.31839 -29.6456
L9.55682 -29.2148
L9.79976 -28.7923
L10.0469 -28.378
L10.298 -27.972
L10.5528 -27.5745
L10.8109 -27.1854
L11.0722 -26.8047
L11.3363 -26.4324
L11.603 -26.0684
L11.872 -25.7126
L12.1432 -25.3651
L12.4164 -25.0256
L12.6913 -24.694
L12.9677 -24.3704
L13.2455 -24.0544
L13.5245 -23.746
L13.8046 -23.4451
L14.0855 -23.1515
L14.3673 -22.865
L14.6497 -22.5855
L14.9327 -22.3129
L15.2161 -22.047
L15.4998 -21.7876
L15.7838 -21.5347
L16.068 -21.288
L16.3524 -21.0474
L16.6368 -20.8128
L16.9212 -20.584
L17.2056 -20.3609
L17.4899 -20.1433
L17.7741 -19.9311
L18.0582 -19.7242
L18.3422 -19.5224
L18.6259 -19.3257
L18.9095 -19.1338
L19.193 -18.9467
L19.4762 -18.7642
L19.7592 -18.5863
L20.0421 -18.4129
L20.3248 -18.2437
L20.6073 -18.0788
L20.8897 -17.918
L21.1719 -17.7612
L21.4541 -17.6083
L21.7362 -17.4593
L22.0182 -17.3141
L22.3002 -17.1726
L22.5822 -17.0346
L22.8642 -16.9002
L23.1463 -16.7693
L23.4286 -16.6417
L23.7109 -16.5175
L23.9935 -16.3966
L24.2763 -16.2789
L24.5594 -16.1643
L24.8428 -16.0528
L25.1265 -15.9444
L25.4107 -15.839
L25.6953 -15.7366
L25.9804 -15.6372
L26.2661 -15.5406
L26.5524 -15.4469
L26.8394 -15.356
L27.1271 -15.268
L27.4156 -15.1827
L27.7049 -15.1002
L27.9951 -15.0205
L28.2863 -14.9435
L28.5784 -14.8692
L28.8717 -14.7976
L29.166 -14.7288
L29.4615 -14.6626
L29.7583 -14.5992
L30.0564 -14.5385
L30.3558 -14.4805
L30.6567 -14.4253
L30.9591 -14.3728
L31.2631 -14.323
L31.5687 -14.2761
L31.8759 -14.232
L32.185 -14.1907
L32.4958 -14.1522
L32.8086 -14.1167
L33.1233 -14.0841
L33.44 -14.0544
L33.7588 -14.0278
L34.0797 -14.0043
L34.4029 -13.9839
L34.7283 -13.9667
L35.0561 -13.9527
L35.3863 -13.942
L35.7189 -13.9347
L36.0541 -13.9308
L36.3919 -13.9305
L36.7323 -13.9337
L37.0755 -13.9406
L37.4213 -13.9513
L37.77 -13.9659
L38.1216 -13.9845
L38.4761 -14.0071
L38.8335 -14.0338
L39.1939 -14.0649
L39.5574 -14.1003
L39.9239 -14.1403
L40.2935 -14.1849
L40.6662 -14.2343
L41.0421 -14.2886
L41.4211 -14.3479
L41.8033 -14.4123
L42.1886 -14.4821
L42.577 -14.5573
L42.9686 -14.6381
L43.3633 -14.7247
L43.761 -14.8171
L44.1617 -14.9156
L44.5654 -15.0202
L44.972 -15.1312
L45.3814 -15.2486
L45.7935 -15.3726
L46.2082 -15.5034
L46.6253 -15.641
L47.0448 -15.7855
L47.4665 -15.9372
L47.8901 -16.096
L48.3156 -16.2621
L48.7427 -16.4354
L49.1711 -16.6161
L49.6007 -16.8041
L50.0311 -16.9994
L50.4621 -17.2019
L50.8933 -17.4116
L51.3244 -17.6283
L51.7551 -17.8517
L52.1849 -18.0816
L52.6135 -18.3176
L53.0404 -18.5594
L53.4652 -18.8062
L53.8874 -19.0575
L54.3065 -19.3124
L54.722 -19.57
L55.1333 -19.829
L55.5398 -20.0883
L55.941 -20.3461
L56.3362 -20.6006
L56.7249 -20.8496
L57.1063 -21.0908
L57.4799 -21.3214
L57.8449 -21.5385
L58.2007 -21.7389
L58.5469 -21.9193
L58.8827 -22.0764
L59.2077 -22.2072
L59.5216 -22.3092
L59.8241 -22.3803
L60.1151 -22.4193
L60.3944 -22.4259
L60.6621 -22.4005
L60.7501 -22.3442
L60.4998 -21.8692
L60.2419 -21.4394
L59.9767 -21.014
L59.7041 -20.5932
L59.4244 -20.1771
L59.1375 -19.7658
L58.8435 -19.3595
L58.5426 -18.9582
L58.2349 -18.5621
L57.9203 -18.1714
L57.5991 -17.786
L57.2713 -17.4062
L56.937 -17.0321
L56.5964 -16.6638
L56.2495 -16.3013
L55.8964 -15.9449
L55.5372 -15.5945
L55.1721 -15.2504
L54.8012 -14.9126
L54.4245 -14.5812
L54.0422 -14.2563
L53.6544 -13.9381
L53.2613 -13.6265
L52.8628 -13.3218
L52.4593 -13.024
L52.0507 -12.7333
L51.6373 -12.4495
L51.2191 -12.173
L50.7962 -11.9037
L50.3688 -11.6418
L49.9371 -11.3873
L49.5011 -11.1402
L49.061 -10.9008
L48.6169 -10.669
L48.169 -10.4449
L47.7174 -10.2286
L47.2622 -10.0201
L46.8036 -9.81961
L46.3416 -9.62704
L45.8766 -9.44251
L45.4085 -9.26607
L44.9376 -9.09777
L44.4639 -8.93766
L43.9877 -8.7858
L43.509 -8.64223
L43.028 -8.507
L42.5449 -8.38013
L42.0598 -8.26169
L41.5729 -8.15169
L41.0842 -8.05017
L40.594 -7.95717
L40.1025 -7.8727
L39.6096 -7.79681
L39.1157 -7.72951
L38.6208 -7.67082
L38.1251 -7.62076
L37.6288 -7.57934
L37.1319 -7.54658
L36.6348 -7.52249
L36.1374 -7.50707
L35.64 -7.50033
L35.1427 -7.50227
L34.6457 -7.5129
L34.149 -7.5322
L33.653 -7.56017
L33.1576 -7.59681
L32.6631 -7.64209
L32.1697 -7.69602
L31.6774 -7.75856
L31.1864 -7.82971
L30.6969 -7.90945
L30.209 -7.99773
L29.7229 -8.09455
L29.2386 -8.19987
L28.7565 -8.31365
L28.2765 -8.43587
L27.7989 -8.56649
L27.3238 -8.70546
L26.8513 -8.85274
L26.3817 -9.0083
L25.9149 -9.17208
L25.4512 -9.34403
L24.9908 -9.52409
L24.5337 -9.71223
L24.0801 -9.90837
L23.6301 -10.1125
L23.1839 -10.3244
L22.7415 -10.5442
L22.3033 -10.7718
L21.8692 -11.007
L21.4394 -11.2499
L21.014 -11.5002
L20.5932 -11.7581
L20.1771 -12.0233
L19.7658 -12.2959
L19.3595 -12.5756
L18.9582 -12.8625
L18.5621 -13.1565
L18.1714 -13.4574
L17.786 -13.7651
L17.4062 -14.0797
L17.0321 -14.4009
L16.6638 -14.7287
L16.3013 -15.063
L15.9449 -15.4036
L15.5945 -15.7505
L15.2504 -16.1036
L14.9126 -16.4628
L14.5812 -16.8279
L14.2563 -17.1988
L13.9381 -17.5755
L13.6265 -17.9578
L13.3218 -18.3456
L13.024 -18.7387
L12.7333 -19.1372
L12.4495 -19.5407
L12.173 -19.9493
L11.9037 -20.3627
L11.6418 -20.7809
L11.3873 -21.2038
L11.1402 -21.6312
L10.9008 -22.0629
L10.669 -22.4989
L10.4449 -22.939
L10.2286 -23.3831
L10.0201 -23.831
L9.81961 -24.2826
L9.62704 -24.7378
L9.44251 -25.1964
L9.26607 -25.6584
L9.09777 -26.1234
L8.93766 -26.5915
L8.7858 -27.0624
L8.64223 -27.5361
L8.507 -28.0123
L8.38013 -28.491
L8.26169 -28.972
L8.15169 -29.4551
L8.05017 -29.9402
L7.95717 -30.4271
L7.8727 -30.9158
L7.79681 -31.406
z
" id="C0_2_2988f9fb14"/>
    </defs>
    <g clip-path="url(#p1bffca34e9)">
     <use style="fill:#ff0000;stroke:#000000;stroke-width:2.0;" x="0.0" xlink:href="#C0_0_a811fe30f3" y="72.0"/>
    </g>
    <g clip-path="url(#p1bffca34e9)">
     <use style="fill:#ffffff;stroke:#000000;stroke-width:2.0;" x="0.0" xlink:href="#C0_1_97da56c6f1" y="72.0"/>
    </g>
    <g clip-path="url(#p1bffca34e9)">
     <use style="fill:#ffffff;stroke:#000000;stroke-width:2.0;" x="0.0" xlink:href="#C0_2_2988f9fb14" y="72.0"/>
    </g>
   </g>
  </g>
 </g>
 <defs>
  <clipPath id="p1bffca34e9">
   <rect height="72.0" width="72.0" x="0.0" y="0.0"/>
  </clipPath>
 </defs>
</svg>
