<?xml version="1.0" encoding="utf-8" standalone="no"?>
<!DOCTYPE svg PUBLIC "-//W3C//DTD SVG 1.1//EN"
  "http://www.w3.org/Graphics/SVG/1.1/DTD/svg11.dtd">
<!-- Created with matplotlib (http://matplotlib.org/) -->
<svg height="72pt" version="1.1" viewBox="0 0 72 72" width="72pt" xmlns="http://www.w3.org/2000/svg" xmlns:xlink="http://www.w3.org/1999/xlink">
 <defs>
  <style type="text/css">
*{stroke-linecap:butt;stroke-linejoin:round;}
  </style>
 </defs>
 <g id="figure_1">
  <g id="patch_1">
   <path d="
M0 72
L72 72
L72 0
L0 0
z
" style="fill:none;"/>
  </g>
  <g id="axes_1">
   <g id="PatchCollection_1">
    <defs>
     <path d="
M36 -7.5
C43.5583 -7.5 50.808 -10.5029 56.1525 -15.8475
C61.4971 -21.192 64.5 -28.4417 64.5 -36
C64.5 -43.5583 61.4971 -50.808 56.1525 -56.1525
C50.808 -61.4971 43.5583 -64.5 36 -64.5
C28.4417 -64.5 21.192 -61.4971 15.8475 -56.1525
C10.5029 -50.808 7.5 -43.5583 7.5 -36
C7.5 -28.4417 10.5029 -21.192 15.8475 -15.8475
C21.192 -10.5029 28.4417 -7.5 36 -7.5
z
" id="C0_0_a811fe30f3"/>
     <path d="
M30.2206 -8.19384
L30.1719 -8.44281
L30.1468 -8.69116
L30.1447 -8.93869
L30.1648 -9.18527
L30.2063 -9.43083
L30.2681 -9.67537
L30.349 -9.91894
L30.4478 -10.1616
L30.5632 -10.4035
L30.6941 -10.6448
L30.839 -10.8855
L30.9967 -11.1259
L31.166 -11.3661
L31.3457 -11.6062
L31.5347 -11.8463
L31.7318 -12.0867
L31.936 -12.3273
L32.1465 -12.5682
L32.3624 -12.8095
L32.5827 -13.0513
L32.8069 -13.2935
L33.0342 -13.5362
L33.264 -13.7794
L33.4957 -14.0231
L33.7289 -14.2673
L33.9629 -14.5119
L34.1976 -14.7568
L34.4324 -15.0021
L34.667 -15.2477
L34.9012 -15.4936
L35.1346 -15.7396
L35.367 -15.9858
L35.5982 -16.2321
L35.8281 -16.4784
L36.0564 -16.7246
L36.283 -16.9708
L36.5078 -17.2169
L36.7307 -17.4627
L36.9516 -17.7084
L37.1704 -17.9537
L37.387 -18.1988
L37.6015 -18.4435
L37.8137 -18.6878
L38.0236 -18.9316
L38.2312 -19.175
L38.4366 -19.418
L38.6396 -19.6604
L38.8402 -19.9023
L39.0386 -20.1437
L39.2346 -20.3845
L39.4284 -20.6247
L39.6198 -20.8644
L39.809 -21.1035
L39.996 -21.342
L40.1807 -21.58
L40.3633 -21.8173
L40.5437 -22.0541
L40.722 -22.2904
L40.8982 -22.5261
L41.0723 -22.7612
L41.2444 -22.9959
L41.4146 -23.23
L41.5828 -23.4637
L41.7491 -23.6968
L41.9135 -23.9296
L42.0761 -24.1619
L42.237 -24.3938
L42.396 -24.6253
L42.5534 -24.8565
L42.7091 -25.0874
L42.8632 -25.318
L43.0156 -25.5484
L43.1666 -25.7785
L43.316 -26.0084
L43.4639 -26.2382
L43.6104 -26.4679
L43.7555 -26.6975
L43.8992 -26.927
L44.0416 -27.1566
L44.1826 -27.3861
L44.3224 -27.6158
L44.461 -27.8455
L44.5984 -28.0754
L44.7346 -28.3055
L44.8697 -28.5358
L45.0037 -28.7664
L45.1366 -28.9973
L45.2684 -29.2286
L45.3992 -29.4603
L45.658 -29.6924
L45.7859 -29.925
L45.9129 -30.1582
L46.0391 -30.392
L46.1643 -30.6264
L46.2888 -30.8615
L46.4124 -31.0973
L46.5352 -31.3339
L46.6572 -31.5713
L46.7785 -31.8096
L46.899 -32.0488
L47.0188 -32.289
L47.1379 -32.5302
L47.2563 -32.7725
L47.3741 -33.0159
L47.4911 -33.2605
L47.6076 -33.5063
L47.7233 -33.7534
L47.8385 -34.0018
L47.953 -34.2515
L48.067 -34.5027
L48.1803 -34.7554
L48.293 -35.0096
L48.4052 -35.2654
L48.5167 -35.5227
L48.6277 -35.7818
L48.7381 -36.0426
L48.848 -36.3051
L48.9572 -36.5695
L49.0659 -36.8357
L49.174 -37.1039
L49.2815 -37.374
L49.3885 -37.646
L49.4948 -37.9202
L49.6006 -38.1964
L49.7057 -38.4747
L49.8103 -38.7551
L49.9142 -39.0377
L50.0174 -39.3226
L50.1201 -39.6096
L50.2221 -39.899
L50.3234 -40.1906
L50.424 -40.4845
L50.5239 -40.7807
L50.6232 -41.0793
L50.7217 -41.3801
L50.8194 -41.6833
L50.9165 -41.9888
L51.0127 -42.2965
L51.1082 -42.6065
L51.2029 -42.9188
L51.2969 -43.2332
L51.39 -43.5498
L51.4824 -43.8684
L51.574 -44.189
L51.6648 -44.5115
L51.7548 -44.8358
L51.8441 -45.1618
L51.9327 -45.4894
L52.0207 -45.8184
L52.108 -46.1486
L52.1948 -46.4799
L52.2812 -46.8121
L52.3671 -47.1449
L52.4529 -47.4781
L52.5385 -47.8113
L52.6241 -48.1444
L52.71 -48.4769
L52.7963 -48.8086
L52.8833 -49.1389
L52.9713 -49.4675
L53.0605 -49.7938
L53.1514 -50.1174
L53.2444 -50.4377
L53.3398 -50.7541
L53.4383 -51.066
L53.5403 -51.3726
L53.6464 -51.6733
L53.7573 -51.9671
L53.8737 -52.2534
L53.9962 -52.5312
L54.1256 -52.7996
L54.2627 -53.0577
L54.4083 -53.3044
L54.563 -53.5389
L54.7277 -53.7601
L54.903 -53.9671
L55.0894 -54.1588
L55.2876 -54.3345
L55.498 -54.4932
L55.7207 -54.6342
L55.956 -54.7568
L56.2038 -54.8604
L56.464 -54.9445
L56.7363 -55.0088
L57.0203 -55.0531
L57.4355 -55.0771
L57.76 -54.7822
L58.0779 -54.4052
L58.3891 -54.0226
L58.6934 -53.6346
L58.9909 -53.2412
L59.2813 -52.8425
L59.5647 -52.4387
L59.8408 -52.0298
L60.1098 -51.6161
L60.3713 -51.1977
L60.6255 -50.7746
L60.8721 -50.347
L61.1112 -49.9151
L61.3426 -49.4789
L61.5663 -49.0386
L61.7822 -48.5943
L61.9902 -48.1462
L62.1904 -47.6944
L62.3825 -47.239
L62.5666 -46.7802
L62.7427 -46.3181
L62.9106 -45.8529
L63.0702 -45.3847
L63.2217 -44.9136
L63.3648 -44.4398
L63.4996 -43.9634
L63.6261 -43.4846
L63.7441 -43.0035
L63.8537 -42.5203
L63.9548 -42.0351
L64.0473 -41.5481
L64.1314 -41.0594
L64.2068 -40.5691
L64.2737 -40.0775
L64.3319 -39.5846
L64.3816 -39.0906
L64.4225 -38.5956
L64.4549 -38.0999
L64.4785 -37.6036
L64.4935 -37.1067
L64.4998 -36.6095
L64.4974 -36.1121
L64.4863 -35.6147
L64.4666 -35.1175
L64.4382 -34.6204
L64.4011 -34.1238
L64.3554 -33.6278
L64.301 -33.1325
L64.238 -32.6381
L64.1664 -32.1447
L64.0863 -31.6524
L63.9976 -31.1615
L63.9003 -30.6721
L63.7946 -30.1843
L63.6803 -29.6982
L63.5577 -29.2141
L63.4267 -28.732
L63.2873 -28.2522
L63.1396 -27.7747
L62.9836 -27.2997
L62.8194 -26.8274
L62.647 -26.3579
L62.4665 -25.8913
L62.278 -25.4278
L62.0815 -24.9675
L61.877 -24.5105
L61.6646 -24.0571
L61.4444 -23.6073
L61.2165 -23.1613
L60.9808 -22.7192
L60.7376 -22.2811
L60.4868 -21.8472
L60.2286 -21.4177
L59.963 -20.9925
L59.6901 -20.572
L59.41 -20.1561
L59.1227 -19.7451
L58.8284 -19.339
L58.5272 -18.938
L58.2191 -18.5422
L57.9042 -18.1517
L57.5826 -17.7666
L57.2545 -17.3871
L56.9199 -17.0133
L56.5789 -16.6452
L56.2317 -16.2831
L55.8783 -15.9269
L55.5188 -15.5769
L55.1534 -15.2331
L54.7822 -14.8956
L54.4052 -14.5645
L54.0226 -14.24
L53.6346 -13.9221
L53.2412 -13.6109
L52.8425 -13.3066
L52.4387 -13.0091
L52.0298 -12.7187
L51.6161 -12.4353
L51.1977 -12.1592
L50.7746 -11.8902
L50.347 -11.6287
L49.9151 -11.3745
L49.4789 -11.1279
L49.0386 -10.8888
L48.5943 -10.6574
L48.1462 -10.4337
L47.6944 -10.2178
L47.239 -10.0098
L46.7802 -9.80963
L46.3181 -9.61748
L45.8529 -9.43335
L45.3847 -9.25732
L44.9136 -9.08944
L44.4398 -8.92975
L43.9634 -8.77831
L43.4846 -8.63517
L43.0035 -8.50035
L42.5203 -8.37392
L42.0351 -8.2559
L41.5481 -8.14633
L41.0594 -8.04524
L40.5691 -7.95267
L40.0775 -7.86864
L39.5846 -7.79319
L39.0906 -7.72632
L38.5956 -7.66807
L38.0999 -7.61845
L37.6036 -7.57747
L37.1067 -7.54515
L36.6095 -7.5215
L36.1121 -7.50652
L35.6147 -7.50022
L35.1175 -7.5026
L34.6204 -7.51367
L34.1238 -7.53341
L33.6278 -7.56182
L33.1325 -7.5989
L32.6381 -7.64462
L32.1447 -7.69899
L31.6524 -7.76197
L31.1615 -7.83356
z
" id="C0_1_82a665d86a"/>
     <path d="
M14.846 -17.0636
L14.8703 -17.3687
L14.8857 -17.6851
L14.8933 -18.0117
L14.8942 -18.3478
L14.8894 -18.6926
L14.8799 -19.0452
L14.8666 -19.4048
L14.8504 -19.7706
L14.8321 -20.142
L14.8126 -20.5181
L14.7924 -20.8983
L14.7721 -21.2819
L14.7524 -21.6684
L14.7337 -22.0572
L14.7165 -22.4477
L14.701 -22.8396
L14.6877 -23.2322
L14.6767 -23.6253
L14.6684 -24.0183
L14.6628 -24.411
L14.6603 -24.8031
L14.6608 -25.1941
L14.6645 -25.5839
L14.6714 -25.9722
L14.6816 -26.3588
L14.6952 -26.7435
L14.7121 -27.1261
L14.7323 -27.5063
L14.7558 -27.8842
L14.7826 -28.2596
L14.8127 -28.6322
L14.846 -29.0022
L14.8825 -29.3693
L14.922 -29.7335
L14.9647 -30.0948
L15.0103 -30.453
L15.0588 -30.8083
L15.1103 -31.1604
L15.1645 -31.5095
L15.2214 -31.8555
L15.2811 -32.1984
L15.3433 -32.5382
L15.4081 -32.8749
L15.4754 -33.2085
L15.5451 -33.5391
L15.6171 -33.8667
L15.6915 -34.1913
L15.7681 -34.513
L15.8469 -34.8317
L15.9279 -35.1475
L16.011 -35.4605
L16.0961 -35.7708
L16.1832 -36.0782
L16.2723 -36.383
L16.3633 -36.6851
L16.4563 -36.9847
L16.551 -37.2817
L16.6477 -37.5762
L16.7461 -37.8683
L16.8463 -38.158
L16.9482 -38.4454
L17.0519 -38.7306
L17.1573 -39.0135
L17.2644 -39.2943
L17.3732 -39.573
L17.4837 -39.8497
L17.5958 -40.1244
L17.7096 -40.3972
L17.825 -40.6682
L17.942 -40.9373
L18.0607 -41.2047
L18.1811 -41.4704
L18.3031 -41.7344
L18.4267 -41.9969
L18.5521 -42.2578
L18.679 -42.5173
L18.8077 -42.7753
L18.938 -43.032
L19.0701 -43.2874
L19.2038 -43.5415
L19.3393 -43.7943
L19.4766 -44.046
L19.6157 -44.2966
L19.7565 -44.5461
L19.8992 -44.7945
L20.0437 -45.042
L20.1901 -45.2886
L20.3384 -45.5342
L20.4886 -45.779
L20.6408 -46.023
L20.795 -46.2662
L20.9513 -46.5086
L21.1096 -46.7504
L21.2701 -46.9915
L21.4327 -47.232
L21.5975 -47.4719
L21.7646 -47.7112
L21.9339 -47.95
L22.1056 -48.1883
L22.2797 -48.4262
L22.4562 -48.6636
L22.6352 -48.9006
L22.8167 -49.1372
L23.0008 -49.3734
L23.1876 -49.6093
L23.377 -49.8448
L23.5692 -50.0801
L23.7642 -50.315
L23.9621 -50.5497
L24.1629 -50.784
L24.3667 -51.0181
L24.5735 -51.252
L24.7834 -51.4856
L24.9966 -51.7189
L25.2129 -51.952
L25.4326 -52.1848
L25.6556 -52.4173
L25.882 -52.6496
L26.1119 -52.8816
L26.3453 -53.1132
L26.5823 -53.3445
L26.823 -53.5755
L27.0674 -53.8061
L27.3155 -54.0363
L27.5674 -54.266
L27.8232 -54.4953
L28.0829 -54.724
L28.3466 -54.9521
L28.6142 -55.1797
L28.8858 -55.4066
L29.1614 -55.6327
L29.4411 -55.8581
L29.7248 -56.0826
L30.0126 -56.3062
L30.3044 -56.5288
L30.6002 -56.7504
L30.9 -56.9708
L31.2037 -57.19
L31.5113 -57.4079
L31.8227 -57.6245
L32.1378 -57.8396
L32.4565 -58.0532
L32.7786 -58.2651
L33.104 -58.4754
L33.4325 -58.6839
L33.7638 -58.8906
L34.0978 -59.0954
L34.4342 -59.2983
L34.7726 -59.4992
L35.1126 -59.698
L35.454 -59.8948
L35.7962 -60.0896
L36.1388 -60.2824
L36.4812 -60.4732
L36.8228 -60.6621
L37.163 -60.8491
L37.501 -61.0345
L37.8361 -61.2184
L38.1675 -61.4009
L38.4942 -61.5823
L38.8153 -61.7628
L39.1297 -61.9428
L39.4364 -62.1226
L39.7343 -62.3026
L40.0221 -62.4831
L40.2986 -62.6647
L40.5627 -62.8477
L40.8131 -63.0327
L41.0486 -63.22
L41.2681 -63.4101
L41.4705 -63.6033
L41.1924 -63.8002
L40.7026 -64.023
L40.2113 -64.1094
L39.7187 -64.1871
L39.225 -64.2563
L38.7303 -64.3169
L38.2348 -64.3689
L37.7386 -64.4122
L37.2419 -64.4469
L36.7447 -64.4729
L36.2474 -64.4903
L35.75 -64.4989
L35.2527 -64.4989
L34.7556 -64.4902
L34.2588 -64.4728
L33.7626 -64.4468
L33.2671 -64.412
L32.7724 -64.3687
L32.2787 -64.3167
L31.7861 -64.256
L31.2949 -64.1868
L30.805 -64.1089
L30.3167 -64.0225
L29.8302 -63.9276
L29.3455 -63.8242
L28.8629 -63.7122
L28.3825 -63.5919
L27.9043 -63.4631
L27.4286 -63.326
L26.9556 -63.1805
L26.4853 -63.0268
L26.0179 -62.8648
L25.5535 -62.6947
L25.0923 -62.5164
L24.6345 -62.3301
L24.1801 -62.1357
L23.7293 -61.9334
L23.2822 -61.7231
L22.839 -61.5051
L22.3998 -61.2792
L21.9648 -61.0457
L21.534 -60.8045
L21.1077 -60.5558
L20.6859 -60.2996
L20.2687 -60.036
L19.8564 -59.765
L19.4489 -59.4869
L19.0465 -59.2015
L18.6493 -58.9091
L18.2573 -58.6098
L17.8708 -58.3035
L17.4897 -57.9905
L17.1144 -57.6707
L16.7447 -57.3444
L16.381 -57.0115
L16.0232 -56.6723
L15.6715 -56.3267
L15.3259 -55.975
L14.9867 -55.6172
L14.6539 -55.2534
L14.3276 -54.8837
L14.0079 -54.5083
L13.6949 -54.1272
L13.3886 -53.7407
L13.0893 -53.3487
L12.797 -52.9514
L12.5117 -52.549
L12.2335 -52.1415
L11.9626 -51.7291
L11.6991 -51.3119
L11.4429 -50.8901
L11.1942 -50.4637
L10.9531 -50.0329
L10.7196 -49.5979
L10.4938 -49.1587
L10.2758 -48.7155
L10.0656 -48.2684
L9.86327 -47.8176
L9.66894 -47.3632
L9.48262 -46.9053
L9.30439 -46.4441
L9.13428 -45.9797
L8.97236 -45.5123
L8.81868 -45.042
L8.67327 -44.5689
L8.53619 -44.0932
L8.40747 -43.615
L8.28715 -43.1346
L8.17528 -42.6519
L8.07189 -42.1673
L7.977 -41.6807
L7.89065 -41.1924
L7.81286 -40.7026
L7.74365 -40.2113
L7.68306 -39.7187
L7.63108 -39.225
L7.58775 -38.7303
L7.55308 -38.2348
L7.52707 -37.7386
L7.50973 -37.2419
L7.50107 -36.7447
L7.5011 -36.2474
L7.5098 -35.75
L7.52718 -35.2527
L7.55324 -34.7556
L7.58796 -34.2588
L7.63133 -33.7626
L7.68335 -33.2671
L7.74399 -32.7724
L7.81324 -32.2787
L7.89107 -31.7861
L7.97747 -31.2949
L8.0724 -30.805
L8.17584 -30.3167
L8.28776 -29.8302
L8.40812 -29.3455
L8.53688 -28.8629
L8.67401 -28.3825
L8.81946 -27.9043
L8.97319 -27.4286
L9.13515 -26.9556
L9.3053 -26.4853
L9.48357 -26.0179
L9.66993 -25.5535
L9.86431 -25.0923
L10.0666 -24.6345
L10.2769 -24.1801
L10.4949 -23.7293
L10.7208 -23.2822
L10.9543 -22.839
L11.1955 -22.3998
L11.4442 -21.9648
L11.7004 -21.534
L11.964 -21.1077
L12.235 -20.6859
L12.5131 -20.2687
L12.7985 -19.8564
L13.0909 -19.4489
L13.3902 -19.0465
L13.6965 -18.6493
L14.0095 -18.2573
L14.3293 -17.8708
z
" id="C0_2_575913e610"/>
    </defs>
    <g clip-path="url(#p1bffca34e9)">
     <use style="fill:#ff0000;stroke:#000000;stroke-width:2.0;" x="0.0" xlink:href="#C0_0_a811fe30f3" y="72.0"/>
    </g>
    <g clip-path="url(#p1bffca34e9)">
     <use style="fill:#ffffff;stroke:#000000;stroke-width:2.0;" x="0.0" xlink:href="#C0_1_82a665d86a" y="72.0"/>
    </g>
    <g clip-path="url(#p1bffca34e9)">
     <use style="fill:#ffffff;stroke:#000000;stroke-width:2.0;" x="0.0" xlink:href="#C0_2_575913e610" y="72.0"/>
    </g>
   </g>
  </g>
 </g>
 <defs>
  <clipPath id="p1bffca34e9">
   <rect height="72.0" width="72.0" x="0.0" y="0.0"/>
  </clipPath>
 </defs>
</svg>
