<?xml version="1.0" encoding="utf-8" standalone="no"?>
<!DOCTYPE svg PUBLIC "-//W3C//DTD SVG 1.1//EN"
  "http://www.w3.org/Graphics/SVG/1.1/DTD/svg11.dtd">
<!-- Created with matplotlib (http://matplotlib.org/) -->
<svg height="72pt" version="1.1" viewBox="0 0 72 72" width="72pt" xmlns="http://www.w3.org/2000/svg" xmlns:xlink="http://www.w3.org/1999/xlink">
 <defs>
  <style type="text/css">
*{stroke-linecap:butt;stroke-linejoin:round;}
  </style>
 </defs>
 <g id="figure_1">
  <g id="patch_1">
   <path d="
M0 72
L72 72
L72 0
L0 0
z
" style="fill:none;"/>
  </g>
  <g id="axes_1">
   <g id="PatchCollection_1">
    <defs>
     <path d="
M36 -7.5
C43.5583 -7.5 50.808 -10.5029 56.1525 -15.8475
C61.4971 -21.192 64.5 -28.4417 64.5 -36
C64.5 -43.5583 61.4971 -50.808 56.1525 -56.1525
C50.808 -61.4971 43.5583 -64.5 36 -64.5
C28.4417 -64.5 21.192 -61.4971 15.8475 -56.1525
C10.5029 -50.808 7.5 -43.5583 7.5 -36
C7.5 -28.4417 10.5029 -21.192 15.8475 -15.8475
C21.192 -10.5029 28.4417 -7.5 36 -7.5
z
" id="C0_0_a811fe30f3"/>
     <path d="
M14.0122 -18.0209
L14.1779 -18.128
L14.3428 -18.2378
L14.5069 -18.3505
L14.6704 -18.4659
L14.8333 -18.5839
L14.9955 -18.7046
L15.1571 -18.8278
L15.3182 -18.9536
L15.4788 -19.0818
L15.6388 -19.2125
L15.7984 -19.3456
L16.1162 -19.4811
L16.2745 -19.619
L16.4325 -19.7592
L16.59 -19.9017
L16.7472 -20.0464
L16.9041 -20.1935
L17.0607 -20.3427
L17.2171 -20.4942
L17.3731 -20.6479
L17.5289 -20.8038
L17.6844 -20.9618
L17.8398 -21.122
L17.9949 -21.2844
L18.1498 -21.4489
L18.3045 -21.6156
L18.459 -21.7843
L18.6133 -21.9552
L18.7675 -22.1282
L18.9214 -22.3034
L19.0753 -22.4806
L19.2289 -22.66
L19.3824 -22.8414
L19.5358 -23.025
L19.689 -23.2107
L19.842 -23.3985
L19.9948 -23.5884
L20.1475 -23.7804
L20.3 -23.9745
L20.4523 -24.1707
L20.6044 -24.3691
L20.7564 -24.5696
L20.9081 -24.7722
L21.0595 -24.9769
L21.2107 -25.1837
L21.3617 -25.3927
L21.5123 -25.6038
L21.6627 -25.8171
L21.8127 -26.0325
L21.9624 -26.25
L22.1117 -26.4697
L22.2606 -26.6915
L22.409 -26.9154
L22.557 -27.1415
L22.7045 -27.3698
L22.8514 -27.6001
L22.9977 -27.8327
L23.1435 -28.0673
L23.2885 -28.3041
L23.4329 -28.543
L23.5765 -28.784
L23.7192 -29.0272
L23.8612 -29.2724
L24.0022 -29.5198
L24.1422 -29.7692
L24.2813 -30.0207
L24.4192 -30.2743
L24.556 -30.5299
L24.6916 -30.7875
L24.8259 -31.0472
L24.9589 -31.3088
L25.0905 -31.5724
L25.2206 -31.838
L25.3491 -32.1054
L25.476 -32.3748
L25.6012 -32.6461
L25.7247 -32.9191
L25.8463 -33.194
L25.966 -33.4707
L26.0836 -33.749
L26.1992 -34.0291
L26.3126 -34.3109
L26.4239 -34.5942
L26.5327 -34.8791
L26.6392 -35.1656
L26.7433 -35.4535
L26.8448 -35.7428
L26.9437 -36.0335
L27.0399 -36.3255
L27.1334 -36.6188
L27.2241 -36.9132
L27.3118 -37.2089
L27.3967 -37.5055
L27.4785 -37.8032
L27.5573 -38.1019
L27.633 -38.4014
L27.7056 -38.7017
L27.7749 -39.0028
L27.841 -39.3045
L27.9038 -39.6068
L27.9633 -39.9097
L28.0195 -40.2129
L28.0723 -40.5166
L28.1218 -40.8205
L28.1678 -41.1246
L28.2105 -41.4289
L28.2497 -41.7332
L28.2855 -42.0375
L28.3179 -42.3416
L28.347 -42.6456
L28.3726 -42.9493
L28.3948 -43.2526
L28.4137 -43.5555
L28.4292 -43.8579
L28.4415 -44.1597
L28.4504 -44.4608
L28.4561 -44.7612
L28.4586 -45.0607
L28.458 -45.3594
L28.4541 -45.657
L28.4472 -45.9537
L28.4373 -46.2492
L28.4243 -46.5436
L28.4084 -46.8367
L28.3895 -47.1284
L28.3679 -47.4188
L28.3434 -47.7078
L28.3161 -47.9953
L28.2862 -48.2812
L28.2536 -48.5655
L28.2183 -48.8481
L28.1806 -49.129
L28.1403 -49.4082
L28.0976 -49.6855
L28.0525 -49.961
L28.0051 -50.2346
L27.9553 -50.5062
L27.9034 -50.7759
L27.8492 -51.0436
L27.7928 -51.3091
L27.7343 -51.5727
L27.6738 -51.834
L27.6112 -52.0933
L27.5467 -52.3504
L27.4802 -52.6053
L27.4118 -52.8579
L27.3415 -53.1083
L27.2693 -53.3565
L27.1954 -53.6024
L27.1197 -53.8459
L27.0422 -54.0872
L26.963 -54.3261
L26.8821 -54.5627
L26.7996 -54.7969
L26.7154 -55.0288
L26.6295 -55.2583
L26.5421 -55.4853
L26.453 -55.71
L26.3624 -55.9323
L26.2702 -56.1521
L26.1764 -56.3696
L26.0811 -56.5845
L25.9843 -56.7971
L25.8859 -57.0072
L25.786 -57.2148
L25.6846 -57.42
L25.5816 -57.6227
L25.4771 -57.8229
L25.3711 -58.0207
L25.2635 -58.216
L25.1544 -58.4087
L25.0437 -58.599
L24.9315 -58.7867
L24.8177 -58.9719
L24.7023 -59.1546
L24.5853 -59.3347
L24.4667 -59.5122
L24.3465 -59.6872
L24.2246 -59.8596
L24.1009 -60.0294
L23.9756 -60.1965
L23.8486 -60.361
L23.7197 -60.5229
L23.5891 -60.682
L23.4566 -60.8385
L23.3223 -60.9922
L23.186 -61.1431
L22.6775 -61.2913
L22.2398 -61.1945
L21.8063 -60.9581
L21.3772 -60.7142
L20.9525 -60.4627
L20.5323 -60.2038
L20.1169 -59.9375
L19.7064 -59.6639
L19.3008 -59.3831
L18.9002 -59.0951
L18.5049 -58.8002
L18.1149 -58.4983
L17.7304 -58.1895
L17.3514 -57.874
L16.9781 -57.5518
L16.6106 -57.2231
L16.249 -56.8879
L15.8935 -56.5463
L15.544 -56.1985
L15.2008 -55.8445
L14.8639 -55.4844
L14.5335 -55.1185
L14.2096 -54.7467
L13.8923 -54.3692
L13.5818 -53.9861
L13.2781 -53.5975
L12.9813 -53.2036
L12.6915 -52.8044
L12.4088 -52.4001
L12.1334 -51.9908
L11.8651 -51.5767
L11.6043 -51.1578
L11.3508 -50.7343
L11.1049 -50.3063
L10.8666 -49.8739
L10.6359 -49.4373
L10.4129 -48.9966
L10.1978 -48.552
L9.99046 -48.1035
L9.79108 -47.6513
L9.59968 -47.1956
L9.41632 -46.7365
L9.24106 -46.2741
L9.07395 -45.8086
L8.91505 -45.3401
L8.76439 -44.8688
L8.62203 -44.3947
L8.48801 -43.9181
L8.36237 -43.4391
L8.24515 -42.9578
L8.13638 -42.4744
L8.0361 -41.989
L7.94434 -41.5018
L7.86112 -41.013
L7.78648 -40.5226
L7.72043 -40.0308
L7.66299 -39.5378
L7.61419 -39.0437
L7.57403 -38.5487
L7.54253 -38.0529
L7.5197 -37.5565
L7.50555 -37.0596
L7.50007 -36.5624
L7.50328 -36.065
L7.51517 -35.5676
L7.53573 -35.0703
L7.56496 -34.5733
L7.60286 -34.0768
L7.64941 -33.5808
L7.70459 -33.0856
L7.76839 -32.5912
L7.84079 -32.0979
L7.92176 -31.6058
L8.0113 -31.1151
L8.10935 -30.6258
L8.2159 -30.1381
L8.33092 -29.6522
L8.45436 -29.1683
L8.5862 -28.6865
L8.72638 -28.2068
L8.87487 -27.7296
L9.03163 -27.2549
L9.1966 -26.7828
L9.36973 -26.3135
L9.55098 -25.8472
L9.74028 -25.384
L9.93758 -24.924
L10.1428 -24.4674
L10.3559 -24.0143
L10.5769 -23.5649
L10.8055 -23.1192
L11.0419 -22.6775
L11.2858 -22.2398
L11.5373 -21.8063
L11.7962 -21.3772
L12.0625 -20.9525
L12.3361 -20.5323
L12.6169 -20.1169
L12.9049 -19.7064
L13.1998 -19.3008
L13.5017 -18.9002
z
" id="C0_1_193b6e1fb9"/>
     <path d="
M48.9119 -10.6425
L48.8774 -10.841
L48.8436 -11.0412
L48.8105 -11.2431
L48.7782 -11.4468
L48.7465 -11.6521
L48.7155 -11.859
L48.6851 -12.0677
L48.6554 -12.2781
L48.6262 -12.4901
L48.5976 -12.7038
L48.5695 -12.9191
L48.5419 -13.1362
L48.5149 -13.3549
L48.4884 -13.5753
L48.4624 -13.7974
L48.4369 -14.0212
L48.4118 -14.2466
L48.3872 -14.4738
L48.3631 -14.7026
L48.3394 -14.9332
L48.3161 -15.1654
L48.2933 -15.3994
L48.271 -15.6351
L48.2491 -15.8725
L48.2276 -16.1116
L48.2065 -16.3525
L48.1859 -16.5951
L48.1658 -16.8394
L48.146 -17.0855
L48.1268 -17.3333
L48.1079 -17.5829
L48.0896 -17.8342
L48.0717 -18.0873
L48.0543 -18.3421
L48.0374 -18.5987
L48.021 -18.8571
L48.0051 -19.1172
L47.9898 -19.3791
L47.975 -19.6427
L47.9608 -19.9081
L47.9471 -20.1753
L47.9341 -20.4441
L47.9216 -20.7148
L47.9098 -20.9871
L47.8987 -21.2612
L47.8883 -21.537
L47.8786 -21.8145
L47.8696 -22.0936
L47.8615 -22.3745
L47.8541 -22.6569
L47.8475 -22.9411
L47.8419 -23.2268
L47.8371 -23.5141
L47.8333 -23.803
L47.8304 -24.0935
L47.8285 -24.3854
L47.8277 -24.6789
L47.828 -24.9738
L47.8295 -25.2701
L47.8321 -25.5678
L47.8359 -25.8669
L47.841 -26.1672
L47.8474 -26.4688
L47.8552 -26.7717
L47.8643 -27.0757
L47.8749 -27.3808
L47.887 -27.687
L47.9007 -27.9943
L47.916 -28.3025
L47.9329 -28.6116
L47.9515 -28.9215
L47.9718 -29.2322
L47.994 -29.5437
L48.0179 -29.8558
L48.0438 -30.1686
L48.0716 -30.4818
L48.1014 -30.7955
L48.1332 -31.1096
L48.1671 -31.424
L48.203 -31.7387
L48.2411 -32.0535
L48.2814 -32.3684
L48.3239 -32.6834
L48.3687 -32.9982
L48.4157 -33.313
L48.465 -33.6275
L48.5166 -33.9418
L48.5706 -34.2557
L48.6269 -34.5691
L48.6856 -34.882
L48.7467 -35.1943
L48.8101 -35.506
L48.8759 -35.8169
L48.9441 -36.1269
L49.0146 -36.4361
L49.0875 -36.7443
L49.1627 -37.0514
L49.2403 -37.3575
L49.3202 -37.6623
L49.4023 -37.9659
L49.4867 -38.2682
L49.5732 -38.5691
L49.662 -38.8686
L49.7529 -39.1666
L49.8458 -39.463
L49.9408 -39.7577
L50.0379 -40.0508
L50.1368 -40.3422
L50.2377 -40.6317
L50.3404 -40.9195
L50.4448 -41.2053
L50.551 -41.4893
L50.6589 -41.7712
L50.7684 -42.0512
L50.8794 -42.3291
L50.9919 -42.6049
L51.1059 -42.8786
L51.2212 -43.1501
L51.3378 -43.4195
L51.4557 -43.6866
L51.5747 -43.9515
L51.6949 -44.2141
L51.8162 -44.4745
L51.9384 -44.7325
L52.0616 -44.9881
L52.1857 -45.2415
L52.3107 -45.4924
L52.4365 -45.741
L52.5629 -45.9871
L52.6901 -46.2309
L52.818 -46.4722
L52.9464 -46.7111
L53.0754 -46.9475
L53.2049 -47.1815
L53.3349 -47.413
L53.4653 -47.6421
L53.5961 -47.8687
L53.7272 -48.0928
L53.8587 -48.3145
L53.9905 -48.5337
L54.1226 -48.7504
L54.2549 -48.9646
L54.3874 -49.1764
L54.5201 -49.3857
L54.653 -49.5925
L54.7861 -49.7968
L54.9192 -49.9986
L55.0525 -50.198
L55.1859 -50.3949
L55.3194 -50.5894
L55.453 -50.7813
L55.5866 -50.9709
L55.7203 -51.1579
L55.8541 -51.3425
L55.9879 -51.5246
L56.1218 -51.7043
L56.2557 -51.8815
L56.3896 -52.0562
L56.5237 -52.2285
L56.6577 -52.3983
L56.7919 -52.5657
L56.926 -52.7305
L57.0603 -52.8929
L57.1946 -53.0529
L57.3291 -53.2103
L57.4636 -53.3652
L57.5982 -53.5177
L57.733 -53.6676
L57.8679 -53.815
L58.3899 -53.9599
L58.6942 -53.6336
L58.9916 -53.2401
L59.2821 -52.8415
L59.5654 -52.4376
L59.8415 -52.0288
L60.1104 -51.6151
L60.372 -51.1966
L60.6261 -50.7735
L60.8727 -50.3459
L61.1118 -49.9139
L61.3432 -49.4777
L61.5668 -49.0374
L61.7827 -48.5931
L61.9908 -48.145
L62.1909 -47.6932
L62.383 -47.2378
L62.5671 -46.779
L62.7431 -46.3169
L62.911 -45.8517
L63.0706 -45.3835
L63.2221 -44.9124
L63.3652 -44.4386
L63.5 -43.9622
L63.6264 -43.4834
L63.7444 -43.0023
L63.8539 -42.5191
L63.955 -42.0339
L64.0476 -41.5469
L64.1316 -41.0581
L64.207 -40.5679
L64.2738 -40.0762
L64.3321 -39.5833
L64.3817 -39.0893
L64.4226 -38.5944
L64.4549 -38.0986
L64.4786 -37.6023
L64.4935 -37.1054
L64.4998 -36.6082
L64.4974 -36.1109
L64.4863 -35.6135
L64.4665 -35.1162
L64.4381 -34.6192
L64.401 -34.1226
L64.3552 -33.6265
L64.3009 -33.1312
L64.2379 -32.6368
L64.1662 -32.1434
L64.0861 -31.6512
L63.9973 -31.1603
L63.9 -30.6708
L63.7943 -30.183
L63.68 -29.697
L63.5574 -29.2129
L63.4263 -28.7308
L63.2869 -28.251
L63.1392 -27.7735
L62.9832 -27.2985
L62.819 -26.8262
L62.6466 -26.3567
L62.4661 -25.8901
L62.2775 -25.4266
L62.0809 -24.9663
L61.8764 -24.5094
L61.664 -24.056
L61.4438 -23.6062
L61.2159 -23.1602
L60.9802 -22.7181
L60.737 -22.28
L60.4862 -21.8461
L60.2279 -21.4166
L59.9623 -20.9914
L59.6894 -20.5709
L59.4093 -20.155
L59.122 -19.744
L58.8277 -19.3379
L58.5264 -18.9369
L58.2183 -18.5411
L57.9034 -18.1507
L57.5818 -17.7656
L57.2537 -17.3861
L56.919 -17.0123
L56.578 -16.6443
L56.2308 -16.2821
L55.8774 -15.926
L55.5179 -15.576
L55.1525 -15.2322
L54.7812 -14.8947
L54.4042 -14.5637
L54.0217 -14.2392
L53.6336 -13.9213
L53.2401 -13.6101
L52.8415 -13.3058
L52.4376 -13.0084
L52.0288 -12.7179
L51.6151 -12.4346
L51.1966 -12.1585
L50.7735 -11.8896
L50.3459 -11.628
L49.9139 -11.3739
L49.4777 -11.1273
z
" id="C0_2_95965b7a97"/>
    </defs>
    <g clip-path="url(#p1bffca34e9)">
     <use style="fill:#ffffff;stroke:#000000;stroke-width:2.0;" x="0.0" xlink:href="#C0_0_a811fe30f3" y="72.0"/>
    </g>
    <g clip-path="url(#p1bffca34e9)">
     <use style="fill:#ff0000;stroke:#000000;stroke-width:2.0;" x="0.0" xlink:href="#C0_1_193b6e1fb9" y="72.0"/>
    </g>
    <g clip-path="url(#p1bffca34e9)">
     <use style="fill:#ff0000;stroke:#000000;stroke-width:2.0;" x="0.0" xlink:href="#C0_2_95965b7a97" y="72.0"/>
    </g>
   </g>
  </g>
 </g>
 <defs>
  <clipPath id="p1bffca34e9">
   <rect height="72.0" width="72.0" x="0.0" y="0.0"/>
  </clipPath>
 </defs>
</svg>
