<?xml version="1.0" encoding="utf-8" standalone="no"?>
<!DOCTYPE svg PUBLIC "-//W3C//DTD SVG 1.1//EN"
  "http://www.w3.org/Graphics/SVG/1.1/DTD/svg11.dtd">
<!-- Created with matplotlib (http://matplotlib.org/) -->
<svg height="72pt" version="1.1" viewBox="0 0 72 72" width="72pt" xmlns="http://www.w3.org/2000/svg" xmlns:xlink="http://www.w3.org/1999/xlink">
 <defs>
  <style type="text/css">
*{stroke-linecap:butt;stroke-linejoin:round;}
  </style>
 </defs>
 <g id="figure_1">
  <g id="patch_1">
   <path d="
M0 72
L72 72
L72 0
L0 0
z
" style="fill:none;"/>
  </g>
  <g id="axes_1">
   <g id="PatchCollection_1">
    <defs>
     <path d="
M36 -7.5
C43.5583 -7.5 50.808 -10.5029 56.1525 -15.8475
C61.4971 -21.192 64.5 -28.4417 64.5 -36
C64.5 -43.5583 61.4971 -50.808 56.1525 -56.1525
C50.808 -61.4971 43.5583 -64.5 36 -64.5
C28.4417 -64.5 21.192 -61.4971 15.8475 -56.1525
C10.5029 -50.808 7.5 -43.5583 7.5 -36
C7.5 -28.4417 10.5029 -21.192 15.8475 -15.8475
C21.192 -10.5029 28.4417 -7.5 36 -7.5
z
" id="C0_0_a811fe30f3"/>
     <path d="
M50.9126 -11.8027
L51.0335 -12.1203
L51.1272 -12.4311
L51.1936 -12.7343
L51.2325 -13.0293
L51.2443 -13.3156
L51.2294 -13.5929
L51.1886 -13.861
L51.1228 -14.12
L51.0331 -14.3702
L50.921 -14.612
L50.7879 -14.8457
L50.6353 -15.0721
L50.4648 -15.2916
L50.2779 -15.5051
L50.0762 -15.713
L49.8612 -15.9161
L49.6344 -16.1149
L49.397 -16.31
L49.1503 -16.502
L48.8955 -16.6913
L48.6336 -16.8784
L48.3657 -17.0636
L48.0926 -17.2471
L47.8152 -17.4295
L47.5341 -17.6107
L47.2501 -17.7911
L46.9638 -17.9709
L46.6758 -18.1501
L46.3864 -18.3288
L46.0962 -18.5073
L45.8055 -18.6855
L45.5148 -18.8634
L45.2243 -19.0412
L44.9344 -19.2189
L44.6452 -19.3964
L44.3571 -19.5738
L44.0701 -19.7511
L43.7846 -19.9283
L43.5005 -20.1054
L43.2182 -20.2823
L42.9377 -20.4591
L42.659 -20.6357
L42.3824 -20.8121
L42.1077 -20.9883
L41.8353 -21.1643
L41.5649 -21.3401
L41.2968 -21.5156
L41.0309 -21.6908
L40.7673 -21.8658
L40.5059 -22.0405
L40.2469 -22.2149
L39.9901 -22.389
L39.7355 -22.5627
L39.4832 -22.7362
L39.2332 -22.9093
L38.9854 -23.0821
L38.7398 -23.2546
L38.4964 -23.4267
L38.2551 -23.5985
L38.0159 -23.77
L37.7789 -23.9412
L37.5438 -24.112
L37.3108 -24.2826
L37.0797 -24.4529
L36.8505 -24.6229
L36.6232 -24.7927
L36.3978 -24.9622
L36.1741 -25.1315
L35.9522 -25.3005
L35.732 -25.4694
L35.5134 -25.6381
L35.2964 -25.8066
L35.081 -25.975
L34.8671 -26.1433
L34.6547 -26.3115
L34.4436 -26.4797
L34.234 -26.6478
L34.0256 -26.8159
L33.8185 -26.984
L33.6126 -27.1521
L33.4079 -27.3204
L33.2043 -27.4887
L33.0018 -27.6571
L32.8004 -27.8257
L32.5999 -27.9945
L32.4003 -28.1635
L32.2017 -28.3328
L32.0039 -28.5023
L31.8069 -28.6722
L31.6106 -28.8424
L31.4151 -29.013
L31.2202 -29.1841
L31.026 -29.3556
L30.6392 -29.5275
L30.4466 -29.7001
L30.2544 -29.8731
L30.0627 -30.0468
L29.8713 -30.2212
L29.6803 -30.3962
L29.4895 -30.5719
L29.299 -30.7484
L29.1088 -30.9257
L28.9187 -31.1039
L28.7287 -31.2829
L28.5389 -31.4628
L28.3491 -31.6438
L28.1594 -31.8257
L27.9696 -32.0087
L27.7798 -32.1927
L27.59 -32.3779
L27.4 -32.5643
L27.2099 -32.752
L27.0196 -32.9409
L26.8291 -33.1311
L26.6384 -33.3226
L26.4474 -33.5156
L26.2562 -33.7101
L26.0646 -33.906
L25.8726 -34.1035
L25.6803 -34.3025
L25.4876 -34.5032
L25.2945 -34.7056
L25.1009 -34.9097
L24.9069 -35.1155
L24.7124 -35.3232
L24.5173 -35.5327
L24.3218 -35.7441
L24.1257 -35.9574
L23.9291 -36.1727
L23.7319 -36.39
L23.5342 -36.6094
L23.3358 -36.8308
L23.1369 -37.0544
L22.9374 -37.2801
L22.7372 -37.508
L22.5365 -37.738
L22.3352 -37.9703
L22.1333 -38.2048
L21.9308 -38.4415
L21.7278 -38.6805
L21.5241 -38.9217
L21.32 -39.1652
L21.1152 -39.4109
L20.91 -39.6588
L20.7042 -39.9089
L20.498 -40.1611
L20.2913 -40.4154
L20.0842 -40.6718
L19.8767 -40.9302
L19.6687 -41.1904
L19.4605 -41.4525
L19.2519 -41.7162
L19.0429 -41.9814
L18.8337 -42.248
L18.6243 -42.5159
L18.4145 -42.7848
L18.2046 -43.0544
L17.9944 -43.3246
L17.784 -43.5951
L17.5733 -43.8654
L17.3623 -44.1354
L17.1511 -44.4045
L16.9394 -44.6723
L16.7274 -44.9383
L16.5147 -45.202
L16.3015 -45.4627
L16.0873 -45.7198
L15.8722 -45.9725
L15.6559 -46.2199
L15.4381 -46.4611
L15.2185 -46.6951
L14.9969 -46.9209
L14.7727 -47.1371
L14.5457 -47.3426
L14.3154 -47.5359
L14.0812 -47.7156
L13.8429 -47.88
L13.5998 -48.0277
L13.3517 -48.157
L13.0979 -48.2663
L12.8384 -48.3541
L12.5728 -48.4187
L12.301 -48.459
L12.0232 -48.4736
L11.7394 -48.4618
L11.4501 -48.4227
L11.1557 -48.3559
L10.8569 -48.2613
L10.5544 -48.1389
L10.2491 -47.9892
L9.89207 -47.8126
L9.69658 -47.4292
L9.5091 -46.9718
L9.32969 -46.511
L9.15841 -46.0471
L8.9953 -45.5801
L8.84042 -45.1102
L8.69381 -44.6375
L8.55552 -44.1622
L8.42558 -43.6844
L8.30405 -43.2043
L8.19096 -42.7219
L8.08633 -42.2376
L7.99021 -41.7513
L7.90262 -41.2632
L7.82359 -40.7736
L7.75314 -40.2825
L7.69129 -39.7901
L7.63807 -39.2965
L7.59349 -38.802
L7.55756 -38.3066
L7.5303 -37.8105
L7.51171 -37.3138
L7.50179 -36.8167
L7.50056 -36.3194
L7.508 -35.822
L7.52413 -35.3247
L7.54893 -34.8275
L7.5824 -34.3307
L7.62452 -33.8344
L7.67528 -33.3388
L7.73468 -32.844
L7.80268 -32.3501
L7.87928 -31.8574
L7.96443 -31.3659
L8.05813 -30.8758
L8.16034 -30.3873
L8.27103 -29.9005
L8.39017 -29.4156
L8.51772 -28.9327
L8.65364 -28.4519
L8.79789 -27.9734
L8.95042 -27.4974
L9.11119 -27.0239
L9.28016 -26.5532
L9.45726 -26.0854
L9.64245 -25.6205
L9.83567 -25.1589
L10.0369 -24.7005
L10.246 -24.2456
L10.4629 -23.7943
L10.6876 -23.3467
L10.92 -22.9029
L11.1601 -22.4632
L11.4078 -22.0275
L11.6629 -21.5961
L11.9254 -21.1691
L12.1953 -20.7467
L12.4724 -20.3288
L12.7567 -19.9158
L13.0481 -19.5076
L13.3464 -19.1044
L13.6517 -18.7065
L13.9638 -18.3137
L14.2826 -17.9264
L14.608 -17.5446
L14.9399 -17.1684
L15.2782 -16.7979
L15.6229 -16.4333
L15.9737 -16.0746
L16.3307 -15.722
L16.6936 -15.3756
L17.0624 -15.0354
L17.437 -14.7017
L17.8173 -14.3744
L18.203 -14.0537
L18.5942 -13.7398
L18.9908 -13.4325
L19.3924 -13.1322
L19.7992 -12.8388
L20.2109 -12.5525
L20.6274 -12.2734
L21.0485 -12.0014
L21.4743 -11.7368
L21.9044 -11.4795
L22.3389 -11.2298
L22.7775 -10.9875
L23.2201 -10.7529
L23.6666 -10.526
L24.1169 -10.3068
L24.5708 -10.0955
L25.0282 -9.89207
L25.489 -9.69658
L25.9529 -9.5091
L26.4199 -9.32969
L26.8898 -9.15841
L27.3625 -8.9953
L27.8378 -8.84042
L28.3156 -8.69381
L28.7957 -8.55552
L29.2781 -8.42558
L29.7624 -8.30405
L30.2487 -8.19096
L30.7368 -8.08633
L31.2264 -7.99021
L31.7175 -7.90262
L32.2099 -7.82359
L32.7035 -7.75314
L33.198 -7.69129
L33.6934 -7.63807
L34.1895 -7.59349
L34.6862 -7.55756
L35.1833 -7.5303
L35.6806 -7.51171
L36.178 -7.50179
L36.6753 -7.50056
L37.1725 -7.508
L37.6693 -7.52413
L38.1656 -7.54893
L38.6612 -7.5824
L39.156 -7.62452
L39.6499 -7.67528
L40.1426 -7.73468
L40.6341 -7.80268
L41.1242 -7.87928
L41.6127 -7.96443
L42.0995 -8.05813
L42.5844 -8.16034
L43.0673 -8.27103
L43.5481 -8.39017
L44.0266 -8.51772
L44.5026 -8.65364
L44.9761 -8.79789
L45.4468 -8.95042
L45.9146 -9.11119
L46.3795 -9.28016
L46.8411 -9.45726
L47.2995 -9.64245
L47.7544 -9.83567
L48.2057 -10.0369
L48.6533 -10.246
L49.0971 -10.4629
L49.5368 -10.6876
L49.9725 -10.92
L50.4039 -11.1601
z
" id="C0_1_df0c538f3e"/>
     <path d="
M62.008 -24.4123
L61.9643 -24.7913
L61.925 -25.1823
L61.8889 -25.5841
L61.8547 -25.9953
L61.8216 -26.4147
L61.7886 -26.841
L61.7548 -27.273
L61.7196 -27.7097
L61.6822 -28.1501
L61.6421 -28.5932
L61.5988 -29.0382
L61.552 -29.4842
L61.5014 -29.9307
L61.4466 -30.3768
L61.3876 -30.822
L61.3241 -31.2658
L61.2561 -31.7077
L61.1834 -32.1472
L61.1062 -32.584
L61.0244 -33.0177
L60.9379 -33.4479
L60.847 -33.8745
L60.7516 -34.2972
L60.6519 -34.7157
L60.5479 -35.1299
L60.4397 -35.5397
L60.3275 -35.9448
L60.2114 -36.3453
L60.0915 -36.741
L59.9679 -37.1318
L59.8408 -37.5177
L59.7102 -37.8987
L59.5764 -38.2747
L59.4394 -38.6457
L59.2993 -39.0118
L59.1563 -39.3729
L59.0105 -39.7291
L58.862 -40.0803
L58.7109 -40.4267
L58.5573 -40.7682
L58.4013 -41.105
L58.243 -41.4371
L58.0824 -41.7645
L57.9198 -42.0873
L57.7551 -42.4056
L57.5884 -42.7194
L57.4197 -43.0288
L57.2493 -43.3339
L57.077 -43.6348
L56.9031 -43.9315
L56.7274 -44.2241
L56.5502 -44.5127
L56.3713 -44.7974
L56.1909 -45.0783
L56.009 -45.3554
L55.8256 -45.6287
L55.6407 -45.8985
L55.4544 -46.1648
L55.2667 -46.4276
L55.0776 -46.687
L54.8872 -46.9431
L54.6953 -47.196
L54.5021 -47.4457
L54.3076 -47.6923
L54.1117 -47.936
L53.9145 -48.1766
L53.7159 -48.4144
L53.5159 -48.6494
L53.3145 -48.8817
L53.1118 -49.1112
L52.9077 -49.3381
L52.7022 -49.5625
L52.4952 -49.7843
L52.2868 -50.0037
L52.0769 -50.2207
L51.8655 -50.4354
L51.6526 -50.6477
L51.4381 -50.8578
L51.2221 -51.0658
L51.0044 -51.2715
L50.7851 -51.4752
L50.5641 -51.6767
L50.3413 -51.8763
L50.1168 -52.0739
L49.8905 -52.2695
L49.6624 -52.4631
L49.4323 -52.6549
L49.2003 -52.8449
L48.9663 -53.0329
L48.7303 -53.2192
L48.4921 -53.4037
L48.2519 -53.5865
L48.0094 -53.7675
L47.7647 -53.9467
L47.5176 -54.1243
L47.2682 -54.3001
L47.0164 -54.4742
L46.762 -54.6467
L46.5051 -54.8175
L46.2456 -54.9866
L45.9834 -55.154
L45.7184 -55.3197
L45.4506 -55.4838
L45.1799 -55.6461
L44.9062 -55.8067
L44.6296 -55.9656
L44.3498 -56.1228
L44.0668 -56.2781
L43.7806 -56.4317
L43.491 -56.5835
L43.1981 -56.7334
L42.9017 -56.8814
L42.6017 -57.0275
L42.2981 -57.1716
L41.9908 -57.3137
L41.6798 -57.4537
L41.3649 -57.5916
L41.0461 -57.7273
L40.7233 -57.8608
L40.3965 -57.9919
L40.0656 -58.1207
L39.7305 -58.247
L39.3911 -58.3707
L39.0475 -58.4919
L38.6996 -58.6103
L38.3472 -58.7259
L37.9904 -58.8386
L37.6291 -58.9483
L37.2633 -59.0548
L36.893 -59.1582
L36.5182 -59.2582
L36.1388 -59.3548
L35.7549 -59.4478
L35.3664 -59.5372
L34.9734 -59.6227
L34.5759 -59.7044
L34.174 -59.782
L33.7677 -59.8555
L33.3572 -59.9247
L32.9425 -59.9895
L32.5237 -60.0499
L32.101 -60.1057
L31.6746 -60.1568
L31.2445 -60.2033
L30.8112 -60.2449
L30.3747 -60.2817
L29.9354 -60.3137
L29.4936 -60.3409
L29.0496 -60.3632
L28.6039 -60.3808
L28.1567 -60.3938
L27.7087 -60.4024
L27.2603 -60.4066
L26.812 -60.4069
L26.3646 -60.4035
L25.9186 -60.3969
L25.4748 -60.3874
L25.0341 -60.3757
L24.5971 -60.3623
L24.165 -60.3482
L23.7386 -60.334
L23.3189 -60.3209
L22.9071 -60.3097
L22.5044 -60.3018
L22.1118 -60.2982
L21.7306 -60.3004
L21.7267 -60.3097
L22.1594 -60.6683
L22.5963 -60.9136
L23.0373 -61.1514
L23.4823 -61.3815
L23.931 -61.6038
L24.3835 -61.8184
L24.8394 -62.0251
L25.2988 -62.2239
L25.7614 -62.4147
L26.2272 -62.5974
L26.6959 -62.772
L27.1675 -62.9385
L27.6417 -63.0968
L28.1185 -63.2468
L28.5977 -63.3885
L29.0791 -63.5219
L29.5627 -63.6469
L30.0482 -63.7635
L30.5356 -63.8716
L31.0246 -63.9712
L31.5151 -64.0623
L32.0069 -64.1449
L32.5 -64.2189
L32.9942 -64.2843
L33.4893 -64.3411
L33.9851 -64.3892
L34.4816 -64.4287
L34.9785 -64.4595
L35.4757 -64.4817
L35.9731 -64.4952
L36.4705 -64.5
L36.9678 -64.4961
L37.4647 -64.4836
L37.9612 -64.4623
L38.4572 -64.4324
L38.9523 -64.3939
L39.4466 -64.3467
L39.9398 -64.2908
L40.4318 -64.2264
L40.9225 -64.1533
L41.4117 -64.0717
L41.8992 -63.9815
L42.3849 -63.8828
L42.8687 -63.7756
L43.3504 -63.6599
L43.8298 -63.5358
L44.3069 -63.4034
L44.7814 -63.2625
L45.2533 -63.1134
L45.7223 -62.956
L46.1884 -62.7904
L46.6514 -62.6167
L47.1111 -62.4348
L47.5674 -62.2449
L48.0203 -62.047
L48.4694 -61.8411
L48.9148 -61.6274
L49.3562 -61.4059
L49.7936 -61.1766
L50.2267 -60.9397
L50.6555 -60.6952
L51.0799 -60.4431
L51.4997 -60.1836
L51.9147 -59.9167
L52.3249 -59.6426
L52.7301 -59.3612
L53.1303 -59.0728
L53.5252 -58.7773
L53.9147 -58.4748
L54.2988 -58.1656
L54.6774 -57.8495
L55.0502 -57.5269
L55.4173 -57.1976
L55.7784 -56.8619
L56.1335 -56.5199
L56.4825 -56.1715
L56.8252 -55.8171
L57.1616 -55.4566
L57.4916 -55.0902
L57.815 -54.718
L58.1317 -54.34
L58.4417 -53.9565
L58.7449 -53.5675
L59.0412 -53.1732
L59.3304 -52.7736
L59.6125 -52.3689
L59.8875 -51.9593
L60.1551 -51.5448
L60.4154 -51.1255
L60.6683 -50.7016
L60.9136 -50.2733
L61.1514 -49.8406
L61.3815 -49.4037
L61.6038 -48.9627
L61.8184 -48.5177
L62.0251 -48.069
L62.2239 -47.6165
L62.4147 -47.1606
L62.5974 -46.7012
L62.772 -46.2386
L62.9385 -45.7728
L63.0968 -45.3041
L63.2468 -44.8325
L63.3885 -44.3583
L63.5219 -43.8815
L63.6469 -43.4023
L63.7635 -42.9209
L63.8716 -42.4373
L63.9712 -41.9518
L64.0623 -41.4644
L64.1449 -40.9754
L64.2189 -40.4849
L64.2843 -39.9931
L64.3411 -39.5
L64.3892 -39.0058
L64.4287 -38.5107
L64.4595 -38.0149
L64.4817 -37.5184
L64.4952 -37.0215
L64.5 -36.5243
L64.4961 -36.0269
L64.4836 -35.5295
L64.4623 -35.0322
L64.4324 -34.5353
L64.3939 -34.0388
L64.3467 -33.5428
L64.2908 -33.0477
L64.2264 -32.5534
L64.1533 -32.0602
L64.0717 -31.5682
L63.9815 -31.0775
L63.8828 -30.5883
L63.7756 -30.1008
L63.6599 -29.6151
L63.5358 -29.1313
L63.4034 -28.6496
L63.2625 -28.1702
L63.1134 -27.6931
L62.956 -27.2186
L62.7904 -26.7467
L62.6167 -26.2777
L62.4348 -25.8116
L62.2449 -25.3486
z
" id="C0_2_bc5aa99cc3"/>
    </defs>
    <g clip-path="url(#p1bffca34e9)">
     <use style="fill:#ff0000;stroke:#000000;stroke-width:2.0;" x="0.0" xlink:href="#C0_0_a811fe30f3" y="72.0"/>
    </g>
    <g clip-path="url(#p1bffca34e9)">
     <use style="fill:#ffffff;stroke:#000000;stroke-width:2.0;" x="0.0" xlink:href="#C0_1_df0c538f3e" y="72.0"/>
    </g>
    <g clip-path="url(#p1bffca34e9)">
     <use style="fill:#ffffff;stroke:#000000;stroke-width:2.0;" x="0.0" xlink:href="#C0_2_bc5aa99cc3" y="72.0"/>
    </g>
   </g>
  </g>
 </g>
 <defs>
  <clipPath id="p1bffca34e9">
   <rect height="72.0" width="72.0" x="0.0" y="0.0"/>
  </clipPath>
 </defs>
</svg>
