<?xml version="1.0" encoding="utf-8" standalone="no"?>
<!DOCTYPE svg PUBLIC "-//W3C//DTD SVG 1.1//EN"
  "http://www.w3.org/Graphics/SVG/1.1/DTD/svg11.dtd">
<!-- Created with matplotlib (http://matplotlib.org/) -->
<svg height="72pt" version="1.1" viewBox="0 0 72 72" width="72pt" xmlns="http://www.w3.org/2000/svg" xmlns:xlink="http://www.w3.org/1999/xlink">
 <defs>
  <style type="text/css">
*{stroke-linecap:butt;stroke-linejoin:round;}
  </style>
 </defs>
 <g id="figure_1">
  <g id="patch_1">
   <path d="
M0 72
L72 72
L72 0
L0 0
z
" style="fill:none;"/>
  </g>
  <g id="axes_1">
   <g id="PatchCollection_1">
    <defs>
     <path d="
M36 -7.5
C43.5583 -7.5 50.808 -10.5029 56.1525 -15.8475
C61.4971 -21.192 64.5 -28.4417 64.5 -36
C64.5 -43.5583 61.4971 -50.808 56.1525 -56.1525
C50.808 -61.4971 43.5583 -64.5 36 -64.5
C28.4417 -64.5 21.192 -61.4971 15.8475 -56.1525
C10.5029 -50.808 7.5 -43.5583 7.5 -36
C7.5 -28.4417 10.5029 -21.192 15.8475 -15.8475
C21.192 -10.5029 28.4417 -7.5 36 -7.5
z
" id="C0_0_a811fe30f3"/>
     <path d="
M23.1227 -10.5833
L23.1954 -10.8281
L23.3898 -11.0315
L23.6692 -11.2081
L24.0017 -11.3705
L24.3659 -11.5273
L24.7489 -11.6834
L25.1427 -11.8416
L25.5424 -12.0037
L25.9449 -12.1704
L26.3479 -12.3422
L26.7499 -12.5193
L27.1499 -12.7018
L27.547 -12.8895
L27.9406 -13.0822
L28.3303 -13.2798
L28.7156 -13.4819
L29.0962 -13.6884
L29.4719 -13.8989
L29.8425 -14.1132
L30.2078 -14.331
L30.5678 -14.552
L30.9223 -14.7759
L31.2713 -15.0025
L31.6147 -15.2314
L31.9525 -15.4626
L32.2847 -15.6956
L32.6113 -15.9303
L32.9323 -16.1664
L33.2477 -16.4038
L33.5577 -16.6423
L33.8621 -16.8816
L34.1612 -17.1217
L34.4548 -17.3623
L34.7433 -17.6032
L35.0265 -17.8445
L35.3046 -18.0858
L35.5777 -18.3272
L35.8458 -18.5685
L36.1091 -18.8096
L36.3677 -19.0504
L36.6216 -19.2908
L36.8709 -19.5308
L37.1158 -19.7703
L37.3563 -20.0093
L37.5926 -20.2476
L37.8247 -20.4854
L38.0528 -20.7224
L38.2769 -20.9587
L38.4972 -21.1944
L38.7137 -21.4292
L38.9266 -21.6634
L39.1359 -21.8967
L39.3417 -22.1293
L39.5442 -22.3611
L39.7434 -22.5921
L39.9394 -22.8224
L40.1323 -23.0519
L40.3222 -23.2807
L40.5092 -23.5088
L40.6933 -23.7362
L40.8747 -23.9629
L41.0534 -24.189
L41.2295 -24.4144
L41.4031 -24.6392
L41.5742 -24.8635
L41.7429 -25.0872
L41.9094 -25.3105
L42.0736 -25.5332
L42.2357 -25.7556
L42.3956 -25.9775
L42.5535 -26.1991
L42.7095 -26.4204
L42.8635 -26.6414
L43.0157 -26.8622
L43.1661 -27.0828
L43.3147 -27.3032
L43.4617 -27.5236
L43.607 -27.7439
L43.7507 -27.9642
L43.8929 -28.1846
L44.0337 -28.4051
L44.1729 -28.6257
L44.3108 -28.8465
L44.4473 -29.0676
L44.5826 -29.289
L44.7165 -29.5107
L44.8492 -29.7328
L44.9807 -29.9554
L45.2404 -30.1786
L45.3685 -30.4023
L45.4956 -30.6266
L45.6217 -30.8516
L45.7468 -31.0774
L45.8709 -31.304
L45.9941 -31.5315
L46.1163 -31.7598
L46.2377 -31.9892
L46.3582 -32.2197
L46.4779 -32.4512
L46.5967 -32.6839
L46.7148 -32.9179
L46.832 -33.1532
L46.9485 -33.3899
L47.0642 -33.628
L47.1792 -33.8676
L47.2934 -34.1088
L47.4069 -34.3517
L47.5197 -34.5963
L47.6318 -34.8427
L47.7432 -35.091
L47.8538 -35.3412
L47.9638 -35.5935
L48.073 -35.8478
L48.1816 -36.1043
L48.2894 -36.3631
L48.3965 -36.6243
L48.5029 -36.8878
L48.6085 -37.1538
L48.7134 -37.4224
L48.8174 -37.6937
L48.9207 -37.9677
L49.0231 -38.2445
L49.1247 -38.5242
L49.2254 -38.8069
L49.3252 -39.0927
L49.424 -39.3816
L49.5218 -39.6738
L49.6186 -39.9693
L49.7142 -40.2682
L49.8087 -40.5705
L49.902 -40.8764
L49.994 -41.186
L50.0847 -41.4992
L50.174 -41.8163
L50.2617 -42.1372
L50.3479 -42.462
L50.4324 -42.7909
L50.5152 -43.1238
L50.596 -43.4608
L50.6749 -43.802
L50.7517 -44.1474
L50.8263 -44.4971
L50.8986 -44.8511
L50.9683 -45.2094
L51.0355 -45.5721
L51.0999 -45.9392
L51.1614 -46.3106
L51.2198 -46.6864
L51.2749 -47.0666
L51.3266 -47.4512
L51.3748 -47.84
L51.4191 -48.2331
L51.4595 -48.6304
L51.4957 -49.0319
L51.5275 -49.4373
L51.5548 -49.8467
L51.5773 -50.2598
L51.5949 -50.6766
L51.6073 -51.0968
L51.6144 -51.5203
L51.616 -51.9469
L51.6119 -52.3762
L51.602 -52.8081
L51.5861 -53.2423
L51.5643 -53.6783
L51.5365 -54.1157
L51.5026 -54.5542
L51.4631 -54.9932
L51.418 -55.4321
L51.3681 -55.8701
L51.3141 -56.3063
L51.2576 -56.7395
L51.201 -57.168
L51.1479 -57.5895
L51.1048 -58.0007
L51.0823 -58.396
L51.0982 -58.7669
L51.1791 -59.0992
L51.3553 -59.3719
L51.6425 -59.5609
L52.1338 -59.6525
L52.5413 -59.4936
L52.9439 -59.2085
L53.3412 -58.9163
L53.7333 -58.6171
L54.12 -58.311
L54.5011 -57.9981
L54.8767 -57.6785
L55.2464 -57.3523
L55.6104 -57.0196
L55.9683 -56.6805
L56.3201 -56.3351
L56.6658 -55.9835
L57.0052 -55.6259
L57.3382 -55.2622
L57.6646 -54.8927
L57.9845 -54.5174
L58.2977 -54.1365
L58.6041 -53.75
L58.9036 -53.3582
L59.1961 -52.961
L59.4815 -52.5587
L59.7598 -52.1514
L60.0309 -51.7391
L60.2947 -51.3221
L60.551 -50.9003
L60.7999 -50.474
L61.0412 -50.0434
L61.2749 -49.6084
L61.5009 -49.1693
L61.7191 -48.7262
L61.9295 -48.2792
L62.1319 -47.8285
L62.3265 -47.3741
L62.513 -46.9163
L62.6914 -46.4552
L62.8617 -45.9909
L63.0238 -45.5236
L63.1777 -45.0533
L63.3233 -44.5803
L63.4606 -44.1047
L63.5895 -43.6266
L63.71 -43.1462
L63.8221 -42.6636
L63.9257 -42.179
L64.0208 -41.6925
L64.1074 -41.2042
L64.1854 -40.7144
L64.2548 -40.2231
L64.3156 -39.7306
L64.3678 -39.2369
L64.4113 -38.7422
L64.4462 -38.2467
L64.4724 -37.7505
L64.49 -37.2538
L64.4988 -36.7567
L64.499 -36.2594
L64.4905 -35.762
L64.4733 -35.2646
L64.4475 -34.7675
L64.413 -34.2708
L64.3698 -33.7746
L64.318 -33.279
L64.2576 -32.7843
L64.1885 -32.2906
L64.1109 -31.798
L64.0247 -31.3067
L63.93 -30.8168
L63.8267 -30.3285
L63.715 -29.8419
L63.5949 -29.3572
L63.4663 -28.8745
L63.3294 -28.394
L63.1841 -27.9158
L63.0306 -27.4401
L62.8688 -26.967
L62.6989 -26.4966
L62.5208 -26.0291
L62.3347 -25.5647
L62.1405 -25.1034
L61.9383 -24.6455
L61.7283 -24.191
L61.5104 -23.7401
L61.2847 -23.2929
L61.0514 -22.8496
L60.8104 -22.4104
L60.5619 -21.9752
L60.3058 -21.5444
L60.0424 -21.1179
L59.7716 -20.696
L59.4936 -20.2787
L59.2085 -19.8662
L58.9163 -19.4587
L58.6171 -19.0561
L58.311 -18.6588
L57.9981 -18.2667
L57.6785 -17.88
L57.3523 -17.4989
L57.0196 -17.1233
L56.6805 -16.7536
L56.3351 -16.3896
L55.9835 -16.0317
L55.6259 -15.6799
L55.2622 -15.3342
L54.8927 -14.9948
L54.5174 -14.6618
L54.1365 -14.3354
L53.75 -14.0155
L53.3582 -13.7023
L52.961 -13.3959
L52.5587 -13.0964
L52.1514 -12.8039
L51.7391 -12.5185
L51.3221 -12.2402
L50.9003 -11.9691
L50.474 -11.7053
L50.0434 -11.449
L49.6084 -11.2001
L49.1693 -10.9588
L48.7262 -10.7251
L48.2792 -10.4991
L47.8285 -10.2809
L47.3741 -10.0705
L46.9163 -9.86805
L46.4552 -9.67352
L45.9909 -9.48702
L45.5236 -9.30859
L45.0533 -9.13829
L44.5803 -8.97617
L44.1047 -8.82228
L43.6266 -8.67667
L43.1462 -8.53939
L42.6636 -8.41047
L42.179 -8.28995
L41.6925 -8.17788
L41.2042 -8.07428
L40.7144 -7.97918
L40.2231 -7.89263
L39.7306 -7.81463
L39.2369 -7.74522
L38.7422 -7.68441
L38.2467 -7.63223
L37.7505 -7.5887
L37.2538 -7.55381
L36.7567 -7.52759
L36.2594 -7.51005
L35.762 -7.50118
L35.2646 -7.50099
L34.7675 -7.50949
L34.2708 -7.52666
L33.7746 -7.55251
L33.279 -7.58702
L32.7843 -7.63019
L32.2906 -7.68199
L31.798 -7.74243
L31.3067 -7.81147
L30.8168 -7.8891
L30.3285 -7.97529
L29.8419 -8.07002
L29.3572 -8.17325
L28.8745 -8.28496
L28.394 -8.40512
L27.9158 -8.53368
L27.4401 -8.6706
L26.967 -8.81586
L26.4966 -8.96939
L26.0291 -9.13115
L25.5647 -9.3011
L25.1034 -9.47918
L24.6455 -9.66535
L24.191 -9.85953
L23.7401 -10.0617
z
" id="C0_1_7c8e8e2628"/>
     <path d="
M20.0542 -12.4674
L19.8338 -12.8688
L19.571 -13.3002
L19.2868 -13.7522
L18.9942 -14.2187
L18.7008 -14.6959
L18.4113 -15.1811
L18.1286 -15.6725
L17.8547 -16.1685
L17.5908 -16.6681
L17.3376 -17.1702
L17.0956 -17.674
L16.8651 -18.1788
L16.6463 -18.684
L16.4392 -19.1888
L16.2438 -19.6927
L16.0599 -20.1954
L15.8874 -20.6962
L15.726 -21.1947
L15.5757 -21.6907
L15.436 -22.1836
L15.3068 -22.6732
L15.1877 -23.1593
L15.0785 -23.6415
L14.9789 -24.1196
L14.8885 -24.5934
L14.8071 -25.0627
L14.7344 -25.5274
L14.67 -25.9873
L14.6136 -26.4423
L14.565 -26.8923
L14.5239 -27.3373
L14.4899 -27.7771
L14.4629 -28.2118
L14.4425 -28.6412
L14.4284 -29.0654
L14.4204 -29.4844
L14.4184 -29.8982
L14.4219 -30.3068
L14.4308 -30.7102
L14.4449 -31.1085
L14.464 -31.5017
L14.4879 -31.8899
L14.5163 -32.2732
L14.5491 -32.6515
L14.5861 -33.025
L14.6272 -33.3937
L14.6722 -33.7577
L14.7209 -34.1172
L14.7732 -34.4721
L14.8289 -34.8226
L14.888 -35.1688
L14.9503 -35.5107
L15.0157 -35.8485
L15.0841 -36.1822
L15.1554 -36.512
L15.2295 -36.8379
L15.3063 -37.16
L15.3857 -37.4784
L15.4677 -37.7933
L15.5522 -38.1046
L15.639 -38.4126
L15.7283 -38.7172
L15.8198 -39.0187
L15.9136 -39.317
L16.0096 -39.6123
L16.1078 -39.9046
L16.2081 -40.1941
L16.3105 -40.4808
L16.415 -40.7649
L16.5215 -41.0463
L16.63 -41.3253
L16.7405 -41.6018
L16.853 -41.8759
L16.9675 -42.1478
L17.0839 -42.4175
L17.2023 -42.6851
L17.3227 -42.9506
L17.445 -43.2142
L17.5693 -43.4759
L17.6955 -43.7357
L17.8238 -43.9938
L17.954 -44.2502
L18.0862 -44.505
L18.2205 -44.7582
L18.3568 -45.0099
L18.4952 -45.2602
L18.6357 -45.5091
L18.7783 -45.7567
L18.923 -46.0031
L19.07 -46.2482
L19.2191 -46.4922
L19.3706 -46.7351
L19.5243 -46.977
L19.6804 -47.2179
L19.8389 -47.4578
L19.9999 -47.6969
L20.1633 -47.935
L20.3294 -48.1724
L20.498 -48.409
L20.6693 -48.6449
L20.8433 -48.8801
L21.0201 -49.1146
L21.1998 -49.3485
L21.3824 -49.5818
L21.5681 -49.8146
L21.7568 -50.0468
L21.9487 -50.2785
L22.1439 -50.5097
L22.3424 -50.7405
L22.5443 -50.9708
L22.7497 -51.2007
L22.9588 -51.4302
L23.1715 -51.6593
L23.3881 -51.8879
L23.6086 -52.1162
L23.8331 -52.344
L24.0617 -52.5714
L24.2946 -52.7985
L24.5318 -53.025
L24.7735 -53.2512
L25.0198 -53.4768
L25.2708 -53.702
L25.5266 -53.9266
L25.7875 -54.1507
L26.0534 -54.3741
L26.3246 -54.5969
L26.6011 -54.8189
L26.8832 -55.0402
L27.171 -55.2606
L27.4645 -55.48
L27.764 -55.6984
L28.0696 -55.9157
L28.3814 -56.1318
L28.6996 -56.3465
L29.0243 -56.5597
L29.3557 -56.7714
L29.6939 -56.9813
L30.0391 -57.1893
L30.3914 -57.3952
L30.7509 -57.5988
L31.1177 -57.8
L31.4921 -57.9986
L31.874 -58.1943
L32.2637 -58.3869
L32.6612 -58.5761
L33.0667 -58.7618
L33.4801 -58.9435
L33.9016 -59.1211
L34.3313 -59.2943
L34.7691 -59.4627
L35.2152 -59.626
L35.6695 -59.7839
L36.132 -59.936
L36.6027 -60.082
L37.0815 -60.2215
L37.5684 -60.3541
L38.0631 -60.4795
L38.5657 -60.5972
L39.0758 -60.7069
L39.5934 -60.8083
L40.118 -60.9008
L40.6494 -60.9843
L41.1871 -61.0583
L41.7309 -61.1226
L42.28 -61.1768
L42.8339 -61.2209
L43.3918 -61.2546
L43.9527 -61.278
L44.5154 -61.2913
L45.0783 -61.295
L45.6392 -61.29
L46.1951 -61.2779
L46.7414 -61.2614
L47.271 -61.2452
L47.7725 -61.2374
L48.2274 -61.2513
L48.2617 -61.3076
L47.8108 -61.7274
L47.3564 -61.9375
L46.8984 -62.1397
L46.4372 -62.3339
L45.9728 -62.5201
L45.5053 -62.6982
L45.0349 -62.8682
L44.5618 -63.03
L44.0861 -63.1835
L43.6079 -63.3288
L43.1274 -63.4658
L42.6447 -63.5944
L42.16 -63.7146
L41.6735 -63.8263
L41.1852 -63.9296
L40.6953 -64.0243
L40.204 -64.1106
L39.7114 -64.1882
L39.2177 -64.2573
L38.7229 -64.3178
L38.2274 -64.3696
L37.7312 -64.4128
L37.2345 -64.4474
L36.7374 -64.4733
L36.24 -64.4905
L35.7426 -64.499
L35.2453 -64.4988
L34.7482 -64.49
L34.2514 -64.4725
L33.7552 -64.4463
L33.2597 -64.4115
L32.7651 -64.368
L32.2714 -64.3158
L31.7788 -64.255
L31.2876 -64.1857
L30.7977 -64.1077
L30.3095 -64.0212
L29.823 -63.9261
L29.3384 -63.8226
L28.8558 -63.7105
L28.3753 -63.59
L27.8972 -63.4611
L27.4216 -63.3239
L26.9486 -63.1783
L26.4783 -63.0245
L26.0109 -62.8624
L25.5466 -62.6921
L25.0855 -62.5137
L24.6277 -62.3272
L24.1733 -62.1327
L23.7226 -61.9303
L23.2756 -61.7199
L22.8325 -61.5017
L22.3933 -61.2758
L21.9584 -61.0421
L21.5277 -60.8009
L21.1014 -60.552
L20.6796 -60.2957
L20.2625 -60.032
L19.8503 -59.7609
L19.4429 -59.4827
L19.0406 -59.1972
L18.6434 -58.9047
L18.2515 -58.6053
L17.8651 -58.2989
L17.4841 -57.9858
L17.1088 -57.6659
L16.7393 -57.3395
L16.3756 -57.0065
L16.0179 -56.6672
L15.6663 -56.3215
L15.3208 -55.9697
L14.9817 -55.6118
L14.649 -55.2479
L14.3228 -54.8782
L14.0032 -54.5027
L13.6903 -54.1215
L13.3841 -53.7349
L13.0849 -53.3428
L12.7927 -52.9455
L12.5075 -52.543
L12.2295 -52.1354
L11.9587 -51.723
L11.6952 -51.3057
L11.4392 -50.8838
L11.1906 -50.4573
L10.9496 -50.0265
L10.7162 -49.5914
L10.4905 -49.1521
L10.2726 -48.7089
L10.0625 -48.2617
L9.86032 -47.8108
L9.66611 -47.3564
L9.47991 -46.8984
L9.3018 -46.4372
L9.13182 -45.9728
L8.97002 -45.5053
L8.81645 -45.0349
L8.67117 -44.5618
L8.53421 -44.0861
L8.40562 -43.6079
L8.28543 -43.1274
L8.17368 -42.6447
L8.07041 -42.16
L7.97565 -41.6735
L7.88943 -41.1852
L7.81176 -40.6953
L7.74269 -40.204
L7.68222 -39.7114
L7.63038 -39.2177
L7.58718 -38.7229
L7.55263 -38.2274
L7.52675 -37.7312
L7.50954 -37.2345
L7.50101 -36.7374
L7.50116 -36.24
L7.51 -35.7426
L7.52751 -35.2453
L7.55369 -34.7482
L7.58854 -34.2514
L7.63204 -33.7552
L7.68419 -33.2597
L7.74496 -32.7651
L7.81433 -32.2714
L7.8923 -31.7788
L7.97882 -31.2876
L8.07388 -30.7977
L8.17745 -30.3095
L8.28949 -29.823
L8.40997 -29.3384
L8.53886 -28.8558
L8.67611 -28.3753
L8.82168 -27.8972
L8.97554 -27.4216
L9.13762 -26.9486
L9.30789 -26.4783
L9.48629 -26.0109
L9.67276 -25.5466
L9.86726 -25.0855
L10.0697 -24.6277
L10.2801 -24.1733
L10.4983 -23.7226
L10.7242 -23.2756
L10.9579 -22.8325
L11.1991 -22.3933
L11.448 -21.9584
L11.7043 -21.5277
L11.968 -21.1014
L12.2391 -20.6796
L12.5173 -20.2625
L12.8028 -19.8503
L13.0953 -19.4429
L13.3947 -19.0406
L13.7011 -18.6434
L14.0142 -18.2515
L14.3341 -17.8651
L14.6605 -17.4841
L14.9935 -17.1088
L15.3328 -16.7393
L15.6785 -16.3756
L16.0303 -16.0179
L16.3882 -15.6663
L16.7521 -15.3208
L17.1218 -14.9817
L17.4973 -14.649
L17.8785 -14.3228
L18.2651 -14.0032
L18.6572 -13.6903
L19.0545 -13.3841
L19.457 -13.0849
z
" id="C0_2_a1d12edefb"/>
    </defs>
    <g clip-path="url(#p1bffca34e9)">
     <use style="fill:#ffffff;stroke:#000000;stroke-width:2.0;" x="0.0" xlink:href="#C0_0_a811fe30f3" y="72.0"/>
    </g>
    <g clip-path="url(#p1bffca34e9)">
     <use style="fill:#ff0000;stroke:#000000;stroke-width:2.0;" x="0.0" xlink:href="#C0_1_7c8e8e2628" y="72.0"/>
    </g>
    <g clip-path="url(#p1bffca34e9)">
     <use style="fill:#ff0000;stroke:#000000;stroke-width:2.0;" x="0.0" xlink:href="#C0_2_a1d12edefb" y="72.0"/>
    </g>
   </g>
  </g>
 </g>
 <defs>
  <clipPath id="p1bffca34e9">
   <rect height="72.0" width="72.0" x="0.0" y="0.0"/>
  </clipPath>
 </defs>
</svg>
