<?xml version="1.0" encoding="utf-8" standalone="no"?>
<!DOCTYPE svg PUBLIC "-//W3C//DTD SVG 1.1//EN"
  "http://www.w3.org/Graphics/SVG/1.1/DTD/svg11.dtd">
<!-- Created with matplotlib (http://matplotlib.org/) -->
<svg height="72pt" version="1.1" viewBox="0 0 72 72" width="72pt" xmlns="http://www.w3.org/2000/svg" xmlns:xlink="http://www.w3.org/1999/xlink">
 <defs>
  <style type="text/css">
*{stroke-linecap:butt;stroke-linejoin:round;}
  </style>
 </defs>
 <g id="figure_1">
  <g id="patch_1">
   <path d="
M0 72
L72 72
L72 0
L0 0
z
" style="fill:none;"/>
  </g>
  <g id="axes_1">
   <g id="PatchCollection_1">
    <defs>
     <path d="
M36 -7.5
C43.5583 -7.5 50.808 -10.5029 56.1525 -15.8475
C61.4971 -21.192 64.5 -28.4417 64.5 -36
C64.5 -43.5583 61.4971 -50.808 56.1525 -56.1525
C50.808 -61.4971 43.5583 -64.5 36 -64.5
C28.4417 -64.5 21.192 -61.4971 15.8475 -56.1525
C10.5029 -50.808 7.5 -43.5583 7.5 -36
C7.5 -28.4417 10.5029 -21.192 15.8475 -15.8475
C21.192 -10.5029 28.4417 -7.5 36 -7.5
z
" id="C0_0_a811fe30f3"/>
     <path d="
M11.8096 -50.9328
L11.998 -50.8511
L12.1869 -50.7698
L12.3764 -50.6888
L12.5664 -50.6083
L12.757 -50.5281
L12.948 -50.4481
L13.1395 -50.3685
L13.3314 -50.289
L13.5238 -50.2098
L13.7166 -50.1307
L13.9099 -50.0518
L14.1036 -49.973
L14.2978 -49.8943
L14.4924 -49.8157
L14.6874 -49.7372
L14.8829 -49.6586
L15.0789 -49.5801
L15.2754 -49.5016
L15.4723 -49.423
L15.6698 -49.3445
L15.8678 -49.2658
L16.0663 -49.187
L16.2654 -49.1082
L16.4651 -49.0292
L16.6654 -48.9501
L16.8664 -48.8708
L17.068 -48.7914
L17.2702 -48.7118
L17.4732 -48.6319
L17.677 -48.5519
L17.8814 -48.4716
L18.2929 -48.391
L18.4998 -48.3102
L18.7077 -48.2291
L18.9165 -48.1477
L19.1263 -48.0659
L19.337 -47.9838
L19.5488 -47.9014
L19.7616 -47.8186
L19.9756 -47.7354
L20.1907 -47.6519
L20.407 -47.5679
L20.6245 -47.4835
L20.8432 -47.3986
L21.0633 -47.3133
L21.2847 -47.2275
L21.5074 -47.1413
L21.7316 -47.0545
L21.9573 -46.9672
L22.1845 -46.8795
L22.4132 -46.7911
L22.6435 -46.7022
L22.8754 -46.6128
L23.109 -46.5228
L23.3444 -46.4322
L23.5814 -46.341
L23.8203 -46.2493
L24.0611 -46.1569
L24.3037 -46.0639
L24.5483 -45.9703
L24.7948 -45.876
L25.0434 -45.7811
L25.294 -45.6856
L25.5467 -45.5895
L25.8015 -45.4927
L26.0585 -45.3953
L26.3178 -45.2972
L26.5792 -45.1986
L26.843 -45.0993
L27.109 -44.9994
L27.3774 -44.8989
L27.6482 -44.7978
L27.9214 -44.6962
L28.197 -44.5941
L28.475 -44.4914
L28.7555 -44.3883
L29.0385 -44.2847
L29.324 -44.1808
L29.612 -44.0764
L29.9026 -43.9718
L30.1956 -43.8669
L30.4911 -43.7618
L30.7892 -43.6565
L31.0897 -43.5513
L31.3927 -43.446
L31.6982 -43.3409
L32.0061 -43.236
L32.3164 -43.1314
L32.629 -43.0273
L32.9439 -42.9237
L33.2611 -42.8209
L33.5804 -42.719
L33.9019 -42.6181
L34.2253 -42.5184
L34.5508 -42.4201
L34.878 -42.3235
L35.207 -42.2287
L35.5376 -42.1359
L35.8697 -42.0455
L36.2032 -41.9577
L36.5379 -41.8729
L36.8736 -41.7912
L37.2103 -41.713
L37.5476 -41.6387
L37.8856 -41.5686
L38.2238 -41.5031
L38.5623 -41.4425
L38.9006 -41.3873
L39.2387 -41.3379
L39.5763 -41.2947
L39.9132 -41.258
L40.2492 -41.2284
L40.5839 -41.2061
L40.9172 -41.1917
L41.2488 -41.1855
L41.5785 -41.1879
L41.9061 -41.1992
L42.2312 -41.2197
L42.5538 -41.2498
L42.8735 -41.2896
L43.1901 -41.3395
L43.5034 -41.3994
L43.8133 -41.4695
L44.1194 -41.5499
L44.4218 -41.6405
L44.7201 -41.7412
L45.0142 -41.8521
L45.3041 -41.9727
L45.5895 -42.1031
L45.8704 -42.2428
L46.1466 -42.3916
L46.418 -42.5492
L46.6847 -42.7152
L46.9464 -42.8891
L47.2032 -43.0707
L47.455 -43.2594
L47.7018 -43.4549
L47.9435 -43.6567
L48.1801 -43.8644
L48.4116 -44.0775
L48.6379 -44.2958
L48.8592 -44.5187
L49.0753 -44.7458
L49.2864 -44.9768
L49.4923 -45.2113
L49.6932 -45.449
L49.889 -45.6895
L50.0798 -45.9326
L50.2657 -46.1778
L50.4466 -46.4249
L50.6226 -46.6738
L50.7937 -46.924
L50.9601 -47.1754
L51.1216 -47.4278
L51.2784 -47.6809
L51.4306 -47.9346
L51.5782 -48.1887
L51.7212 -48.443
L51.8597 -48.6974
L51.9937 -48.9518
L52.1233 -49.206
L52.2487 -49.4599
L52.3697 -49.7135
L52.4865 -49.9666
L52.5991 -50.2191
L52.7077 -50.471
L52.8121 -50.7222
L52.9126 -50.9726
L53.0091 -51.2223
L53.1018 -51.4711
L53.1906 -51.719
L53.2755 -51.966
L53.3568 -52.2121
L53.4344 -52.4573
L53.5083 -52.7014
L53.5785 -52.9446
L53.6453 -53.1868
L53.7085 -53.428
L53.7682 -53.6682
L53.8244 -53.9074
L53.8773 -54.1456
L53.9267 -54.3829
L53.9728 -54.6192
L54.0156 -54.8546
L54.055 -55.089
L54.0912 -55.3226
L54.1241 -55.5552
L54.1537 -55.787
L54.1801 -56.018
L54.2033 -56.2482
L54.2233 -56.4776
L54.24 -56.7062
L54.2535 -56.9341
L54.2639 -57.1613
L54.271 -57.3879
L54.2749 -57.6139
L53.9056 -57.8392
L53.5159 -58.173
L53.1208 -58.4821
L52.7206 -58.7843
L52.3153 -59.0797
L51.9049 -59.368
L51.4898 -59.6492
L51.0699 -59.9231
L50.6454 -60.1898
L50.2165 -60.4491
L49.7833 -60.701
L49.3458 -60.9454
L48.9043 -61.1821
L48.4588 -61.4112
L48.0096 -61.6325
L47.5567 -61.8461
L47.1003 -62.0517
L46.6404 -62.2495
L46.1774 -62.4392
L45.7113 -62.6209
L45.2421 -62.7944
L44.7702 -62.9598
L44.2956 -63.117
L43.8185 -63.266
L43.339 -63.4066
L42.8573 -63.5389
L42.3734 -63.6628
L41.8877 -63.7782
L41.4001 -63.8852
L40.9109 -63.9837
L40.4202 -64.0737
L39.9282 -64.1551
L39.4349 -64.228
L38.9406 -64.2922
L38.4454 -64.3479
L37.9495 -64.3949
L37.453 -64.4332
L36.956 -64.4629
L36.4588 -64.484
L35.9614 -64.4963
L35.464 -64.5
L34.9667 -64.495
L34.4698 -64.4813
L33.9734 -64.4589
L33.4776 -64.4279
L32.9825 -64.3882
L32.4884 -64.3398
L31.9953 -64.2828
L31.5035 -64.2172
L31.013 -64.143
L30.524 -64.0603
L30.0367 -63.969
L29.5512 -63.8691
L29.0677 -63.7608
L28.5863 -63.6441
L28.1072 -63.5189
L27.6305 -63.3853
L27.1563 -63.2434
L26.6848 -63.0931
L26.2161 -62.9347
L25.7504 -62.768
L25.2879 -62.5932
L24.8286 -62.4102
L24.3727 -62.2193
L23.9204 -62.0203
L23.4717 -61.8134
L23.0269 -61.5987
L22.586 -61.3761
L22.1491 -61.1458
L21.7165 -60.9079
L21.2883 -60.6624
L20.8645 -60.4093
L20.4454 -60.1489
L20.031 -59.881
L19.6214 -59.6059
L19.2169 -59.3236
L18.8174 -59.0342
L18.4232 -58.7378
L18.0344 -58.4345
L17.651 -58.1243
L17.2732 -57.8074
L16.9011 -57.4839
L16.5348 -57.1537
L16.1745 -56.8172
L15.8201 -56.4743
L15.472 -56.1252
L15.1301 -55.7699
L14.7945 -55.4087
L14.4654 -55.0415
L14.1429 -54.6685
L13.827 -54.2898
L13.5179 -53.9056
L13.2157 -53.5159
L12.9203 -53.1208
L12.632 -52.7206
L12.3508 -52.3153
L12.0769 -51.9049
z
" id="C0_1_1b48535958"/>
     <path d="
M17.9162 -14.1675
L18.1368 -14.2115
L18.3572 -14.2572
L18.5772 -14.3045
L18.7971 -14.3535
L19.0167 -14.404
L19.2362 -14.4561
L19.4555 -14.5098
L19.6748 -14.5651
L19.894 -14.6219
L20.1133 -14.6802
L20.3325 -14.7401
L20.5518 -14.8015
L20.7713 -14.8644
L20.9909 -14.9289
L21.2106 -14.9949
L21.4306 -15.0624
L21.6509 -15.1314
L21.8715 -15.202
L22.0924 -15.2741
L22.3137 -15.3478
L22.5355 -15.423
L22.7577 -15.4997
L22.9805 -15.5781
L23.2038 -15.6579
L23.4277 -15.7394
L23.6523 -15.8225
L23.8775 -15.9071
L24.1035 -15.9934
L24.3303 -16.0813
L24.5578 -16.1709
L24.7862 -16.2621
L25.0156 -16.355
L25.2458 -16.4496
L25.4771 -16.5459
L25.7094 -16.644
L25.9427 -16.7437
L26.1772 -16.8453
L26.4128 -16.9486
L26.6496 -17.0537
L26.8876 -17.1607
L27.1269 -17.2695
L27.3676 -17.3801
L27.6095 -17.4926
L27.8529 -17.607
L28.0978 -17.7234
L28.3441 -17.8416
L28.5919 -17.9618
L28.8412 -18.084
L29.0921 -18.2081
L29.3447 -18.3343
L29.5989 -18.4624
L29.8548 -18.5926
L30.1124 -18.7247
L30.3718 -18.8589
L30.6329 -18.9951
L30.8958 -19.1334
L31.1606 -19.2736
L31.4272 -19.4159
L31.6956 -19.5602
L31.966 -19.7065
L32.2383 -19.8547
L32.5125 -20.0049
L32.7886 -20.1571
L33.0667 -20.3111
L33.3467 -20.4669
L33.6287 -20.6245
L33.9127 -20.7839
L34.1986 -20.9449
L34.4865 -21.1075
L34.7763 -21.2716
L35.068 -21.4371
L35.3617 -21.6039
L35.6573 -21.7718
L35.9547 -21.9408
L36.254 -22.1107
L36.5552 -22.2813
L36.8581 -22.4525
L37.1629 -22.624
L37.4693 -22.7957
L37.7774 -22.9673
L38.0872 -23.1385
L38.3986 -23.3091
L38.7115 -23.4789
L39.0258 -23.6475
L39.3417 -23.8145
L39.6589 -23.9797
L39.9773 -24.1427
L40.2971 -24.3031
L40.618 -24.4604
L40.94 -24.6144
L41.263 -24.7645
L41.587 -24.9104
L41.9119 -25.0515
L42.2376 -25.1875
L42.564 -25.3179
L42.891 -25.4423
L43.2186 -25.5601
L43.5466 -25.6711
L43.875 -25.7748
L44.2036 -25.8708
L44.5323 -25.9589
L44.8611 -26.0387
L45.1899 -26.1099
L45.5184 -26.1724
L45.8466 -26.226
L46.1743 -26.2705
L46.5014 -26.306
L46.8278 -26.3325
L47.1533 -26.3499
L47.4778 -26.3584
L47.8011 -26.3581
L48.123 -26.3492
L48.4434 -26.332
L48.7621 -26.3067
L49.079 -26.2736
L49.3939 -26.233
L49.7067 -26.1853
L50.0171 -26.1307
L50.3252 -26.0697
L50.6306 -26.0026
L50.9334 -25.9298
L51.2333 -25.8516
L51.5303 -25.7683
L51.8242 -25.6804
L52.1149 -25.5881
L52.4024 -25.4918
L52.6865 -25.3917
L52.9671 -25.2882
L53.2442 -25.1816
L53.5178 -25.072
L53.7877 -24.9599
L54.054 -24.8454
L54.3165 -24.7286
L54.5752 -24.61
L54.8302 -24.4895
L55.0814 -24.3675
L55.3287 -24.2441
L55.5722 -24.1194
L55.8119 -23.9936
L56.0477 -23.8668
L56.2797 -23.7392
L56.5079 -23.6108
L56.7322 -23.4818
L56.9528 -23.3523
L57.1697 -23.2223
L57.3828 -23.0919
L57.5922 -22.9612
L57.7979 -22.8302
L57.9999 -22.6991
L58.1984 -22.5678
L58.3933 -22.4364
L58.5846 -22.3049
L58.7725 -22.1735
L58.9568 -22.042
L59.1378 -21.9105
L59.3154 -21.7791
L59.4897 -21.6477
L59.6606 -21.5164
L59.8283 -21.3851
L59.9928 -21.254
L60.0019 -21.1229
L59.73 -20.6325
L59.4509 -20.216
L59.1647 -19.8042
L58.8714 -19.3974
L58.5712 -18.9957
L58.2641 -18.5991
L57.9502 -18.2078
L57.6296 -17.822
L57.3024 -17.4417
L56.9687 -17.067
L56.6287 -16.6981
L56.2823 -16.3351
L55.9298 -15.9781
L55.5712 -15.6271
L55.2066 -15.2824
L54.8362 -14.944
L54.4601 -14.612
L54.0783 -14.2865
L53.6911 -13.9677
L53.2984 -13.6555
L52.9005 -13.3502
L52.4974 -13.0517
L52.0893 -12.7603
L51.6763 -12.4759
L51.2585 -12.1987
L50.8361 -11.9287
L50.4091 -11.6661
L49.9778 -11.4108
L49.5422 -11.1631
L49.1025 -10.923
L48.6588 -10.6904
L48.2112 -10.4656
L47.7599 -10.2486
L47.3051 -10.0394
L46.8468 -9.8381
L46.3852 -9.64478
L45.9204 -9.45949
L45.4526 -9.28229
L44.9819 -9.11322
L44.5085 -8.95235
L44.0325 -8.79971
L43.554 -8.65536
L43.0733 -8.51934
L42.5904 -8.39169
L42.1054 -8.27245
L41.6187 -8.16165
L41.1302 -8.05934
L40.6401 -7.96554
L40.1487 -7.88027
L39.6559 -7.80357
L39.1621 -7.73546
L38.6673 -7.67596
L38.1717 -7.62509
L37.6754 -7.58286
L37.1786 -7.54929
L36.6815 -7.52438
L36.1841 -7.50815
L35.6867 -7.50059
L35.1894 -7.50172
L34.6923 -7.51153
L34.1956 -7.53002
L33.6995 -7.55717
L33.2041 -7.593
L32.7095 -7.63747
L32.216 -7.69059
L31.7236 -7.75233
L31.2324 -7.82267
L30.7428 -7.90159
L30.2547 -7.98908
L29.7684 -8.0851
L29.284 -8.18962
L28.8016 -8.30261
L28.3215 -8.42404
L27.8436 -8.55387
L27.3683 -8.69205
L26.8956 -8.83856
L26.4256 -8.99334
L25.9586 -9.15635
L25.4946 -9.32753
L25.0339 -9.50684
L24.5764 -9.69422
L24.1225 -9.88961
L23.6722 -10.093
L23.2256 -10.3042
L22.7829 -10.5233
L22.3442 -10.7501
L21.9097 -10.9846
L21.4795 -11.2267
L21.0538 -11.4764
L20.6325 -11.7336
L20.216 -11.9981
L19.8042 -12.27
L19.3974 -12.5491
L18.9957 -12.8353
L18.5991 -13.1286
L18.2078 -13.4288
z
" id="C0_2_dfee7ca94f"/>
    </defs>
    <g clip-path="url(#p1bffca34e9)">
     <use style="fill:#ffffff;stroke:#000000;stroke-width:2.0;" x="0.0" xlink:href="#C0_0_a811fe30f3" y="72.0"/>
    </g>
    <g clip-path="url(#p1bffca34e9)">
     <use style="fill:#ff0000;stroke:#000000;stroke-width:2.0;" x="0.0" xlink:href="#C0_1_1b48535958" y="72.0"/>
    </g>
    <g clip-path="url(#p1bffca34e9)">
     <use style="fill:#ff0000;stroke:#000000;stroke-width:2.0;" x="0.0" xlink:href="#C0_2_dfee7ca94f" y="72.0"/>
    </g>
   </g>
  </g>
 </g>
 <defs>
  <clipPath id="p1bffca34e9">
   <rect height="72.0" width="72.0" x="0.0" y="0.0"/>
  </clipPath>
 </defs>
</svg>
