<?xml version="1.0" encoding="utf-8" standalone="no"?>
<!DOCTYPE svg PUBLIC "-//W3C//DTD SVG 1.1//EN"
  "http://www.w3.org/Graphics/SVG/1.1/DTD/svg11.dtd">
<!-- Created with matplotlib (http://matplotlib.org/) -->
<svg height="72pt" version="1.1" viewBox="0 0 72 72" width="72pt" xmlns="http://www.w3.org/2000/svg" xmlns:xlink="http://www.w3.org/1999/xlink">
 <defs>
  <style type="text/css">
*{stroke-linecap:butt;stroke-linejoin:round;}
  </style>
 </defs>
 <g id="figure_1">
  <g id="patch_1">
   <path d="
M0 72
L72 72
L72 0
L0 0
z
" style="fill:none;"/>
  </g>
  <g id="axes_1">
   <g id="PatchCollection_1">
    <defs>
     <path d="
M36 -7.5
C43.5583 -7.5 50.808 -10.5029 56.1525 -15.8475
C61.4971 -21.192 64.5 -28.4417 64.5 -36
C64.5 -43.5583 61.4971 -50.808 56.1525 -56.1525
C50.808 -61.4971 43.5583 -64.5 36 -64.5
C28.4417 -64.5 21.192 -61.4971 15.8475 -56.1525
C10.5029 -50.808 7.5 -43.5583 7.5 -36
C7.5 -28.4417 10.5029 -21.192 15.8475 -15.8475
C21.192 -10.5029 28.4417 -7.5 36 -7.5
z
" id="C0_0_a811fe30f3"/>
     <path d="
M29.3319 -52.7055
L29.6163 -52.6616
L29.8999 -52.6139
L30.1827 -52.5624
L30.4647 -52.507
L30.7459 -52.4479
L31.0262 -52.385
L31.3057 -52.3184
L31.5843 -52.248
L31.862 -52.1739
L32.1387 -52.0961
L32.4145 -52.0146
L32.6894 -51.9294
L32.9632 -51.8405
L33.236 -51.748
L33.5078 -51.6518
L33.7785 -51.552
L34.0481 -51.4486
L34.3165 -51.3415
L34.5838 -51.2307
L34.8499 -51.1163
L35.1148 -50.9983
L35.3784 -50.8767
L35.6407 -50.7515
L35.9017 -50.6226
L36.1613 -50.4901
L36.4195 -50.354
L36.6762 -50.2142
L36.9314 -50.0709
L37.1851 -49.9239
L37.4372 -49.7733
L37.6876 -49.6191
L37.9364 -49.4612
L38.1834 -49.2998
L38.4286 -49.1347
L38.6719 -48.966
L38.9133 -48.7937
L39.1527 -48.6177
L39.3901 -48.4382
L39.6253 -48.255
L39.8584 -48.0683
L40.0892 -47.8779
L40.3177 -47.6839
L40.5437 -47.4864
L40.7673 -47.2853
L40.9883 -47.0806
L41.2067 -46.8724
L41.4223 -46.6606
L41.6351 -46.4453
L41.8451 -46.2265
L42.052 -46.0043
L42.2558 -45.7785
L42.4564 -45.5493
L42.6538 -45.3167
L42.8477 -45.0808
L43.0382 -44.8414
L43.2251 -44.5988
L43.4084 -44.3528
L43.5878 -44.1037
L43.7633 -43.8513
L43.9348 -43.5958
L44.1023 -43.3372
L44.2655 -43.0755
L44.4243 -42.8109
L44.5788 -42.5433
L44.7287 -42.2728
L44.874 -41.9995
L45.0145 -41.7235
L45.1501 -41.4449
L45.2808 -41.1636
L45.4064 -40.8799
L45.5269 -40.5937
L45.6421 -40.3052
L45.7519 -40.0144
L45.8563 -39.7216
L45.9551 -39.4266
L46.0483 -39.1297
L46.1357 -38.831
L46.2174 -38.5306
L46.2932 -38.2285
L46.363 -37.9249
L46.4268 -37.6199
L46.4846 -37.3136
L46.5362 -37.0062
L46.5816 -36.6978
L46.6207 -36.3884
L46.6536 -36.0783
L46.6802 -35.7676
L46.7005 -35.4563
L46.7143 -35.1446
L46.7218 -34.8327
L46.723 -34.5206
L46.7177 -34.2086
L46.706 -33.8967
L46.688 -33.5851
L46.6635 -33.2739
L46.6328 -32.9633
L46.5957 -32.6533
L46.5523 -32.3441
L46.5027 -32.0359
L46.4469 -31.7287
L46.385 -31.4227
L46.3169 -31.1181
L46.2428 -30.8148
L46.1628 -30.5131
L46.0768 -30.2131
L45.985 -29.9149
L45.8875 -29.6185
L45.7843 -29.3242
L45.6756 -29.0319
L45.5613 -28.7419
L45.4417 -28.4542
L45.3167 -28.1688
L45.1865 -27.886
L45.0513 -27.6058
L44.911 -27.3282
L44.7658 -27.0533
L44.6158 -26.7813
L44.461 -26.5122
L44.3017 -26.246
L44.1379 -25.9829
L43.9697 -25.7229
L43.7972 -25.466
L43.6205 -25.2124
L43.4397 -24.962
L43.255 -24.7149
L43.0663 -24.4713
L42.8739 -24.231
L42.6778 -23.9942
L42.4781 -23.7609
L42.2749 -23.5311
L42.0684 -23.3049
L41.8585 -23.0823
L41.6455 -22.8634
L41.4293 -22.648
L41.2101 -22.4364
L40.988 -22.2285
L40.763 -22.0243
L40.5352 -21.8238
L40.3047 -21.6271
L40.0716 -21.4342
L39.836 -21.245
L39.5979 -21.0597
L39.3575 -20.8782
L39.1147 -20.7005
L38.8696 -20.5266
L38.6224 -20.3566
L38.373 -20.1905
L38.1215 -20.0282
L37.8681 -19.8697
L37.6127 -19.7152
L37.3554 -19.5645
L37.0963 -19.4178
L36.8353 -19.2749
L36.5727 -19.1359
L36.3083 -19.0008
L36.0423 -18.8696
L35.7748 -18.7424
L35.5056 -18.6191
L35.2349 -18.4997
L34.9628 -18.3842
L34.6892 -18.2727
L34.4143 -18.1651
L34.1379 -18.0615
L33.8603 -17.9619
L33.5813 -17.8662
L33.3011 -17.7745
L33.0197 -17.6869
L32.737 -17.6032
L32.4532 -17.5236
L32.1683 -17.448
L31.8822 -17.3765
L31.5951 -17.309
L31.3069 -17.2457
L31.0177 -17.1864
L30.7275 -17.1313
L30.4363 -17.0804
L30.1442 -17.0336
L29.8511 -16.991
L29.5571 -16.9527
L29.2623 -16.9186
L28.9666 -16.8888
L28.6702 -16.8633
L28.3729 -16.8421
L28.0749 -16.8253
L27.7761 -16.813
L27.4766 -16.805
L27.1765 -16.8016
L26.8757 -16.8027
L26.5743 -16.8083
L26.2723 -16.8186
L25.9698 -16.8335
L25.6667 -16.8531
L25.3632 -16.8775
L25.0592 -16.9066
L24.7549 -16.9406
L24.4502 -16.9794
L24.1451 -17.0232
L23.8398 -17.072
L23.5343 -17.1259
L23.2287 -17.1848
L22.9229 -17.249
L22.617 -17.3183
L22.3111 -17.3929
L22.0053 -17.4729
L21.6996 -17.5582
L21.3941 -17.6491
L21.0889 -17.7454
L20.784 -17.8474
L20.4794 -17.955
L20.1754 -18.0683
L19.872 -18.1874
L19.5692 -18.3123
L19.2671 -18.4432
L18.9659 -18.58
L18.6657 -18.7228
L18.3665 -18.8717
L18.0685 -19.0268
L17.7717 -19.1881
L17.4764 -19.3557
L17.1825 -19.5296
L16.8903 -19.7098
L16.5999 -19.8965
L16.3115 -20.0896
L16.0251 -20.2893
L15.7409 -20.4955
L15.459 -20.7083
L15.1798 -20.9277
L14.9032 -21.1537
L14.6294 -21.3864
L14.3587 -21.6258
L14.0912 -21.8719
L13.8272 -22.1247
L13.5667 -22.3842
L13.3099 -22.6504
L13.0572 -22.9233
L12.8086 -23.2027
L12.5645 -23.4888
L12.3249 -23.7815
L12.0901 -24.0806
L11.8603 -24.3862
L11.6357 -24.6982
L11.4166 -25.0164
L11.2031 -25.3409
L10.9955 -25.6714
L10.794 -26.0079
L10.5988 -26.3502
L10.4101 -26.6982
L10.2282 -27.0517
L10.0532 -27.4107
L9.88536 -27.7748
L9.72487 -28.1439
L9.57194 -28.5178
L9.42674 -28.8963
L9.28948 -29.2791
L9.16032 -29.6661
L9.03944 -30.057
L8.927 -30.4514
L8.82315 -30.8492
L8.72803 -31.2501
L8.64177 -31.6537
L8.56449 -32.0598
L8.49629 -32.4681
L8.43728 -32.8782
L8.38752 -33.2899
L8.34709 -33.7028
L8.31605 -34.1166
L8.29442 -34.5309
L8.28224 -34.9455
L8.2795 -35.36
L8.28622 -35.7741
L8.30237 -36.1874
L8.32791 -36.5996
L8.36279 -37.0104
L8.40696 -37.4195
L8.46034 -37.8265
L8.52284 -38.2311
L8.59435 -38.6331
L8.67476 -39.0322
L8.76394 -39.428
L8.86176 -39.8203
L8.96807 -40.2088
L9.0827 -40.5933
L9.2055 -40.9735
L9.33628 -41.3491
L9.47487 -41.7201
L9.62107 -42.0861
L9.77468 -42.4469
L9.93551 -42.8024
L10.1034 -43.1525
L10.278 -43.4969
L10.4592 -43.8354
L10.6468 -44.1681
L10.8406 -44.4946
L11.0403 -44.8151
L11.2457 -45.1292
L11.4567 -45.437
L11.6729 -45.7384
L11.8942 -46.0332
L12.1204 -46.3216
L12.3512 -46.6033
L12.5865 -46.8784
L12.826 -47.1469
L13.0696 -47.4087
L13.317 -47.6638
L13.568 -47.9122
L13.8226 -48.154
L14.0804 -48.3891
L14.3413 -48.6175
L14.6052 -48.8394
L14.8718 -49.0547
L15.141 -49.2634
L15.4127 -49.4656
L15.6866 -49.6613
L15.9627 -49.8507
L16.2408 -50.0337
L16.5207 -50.2103
L16.8024 -50.3807
L17.0856 -50.545
L17.3703 -50.7031
L17.6564 -50.8551
L17.9437 -51.0011
L18.2322 -51.1412
L18.5216 -51.2755
L18.812 -51.4039
L19.1033 -51.5266
L19.3952 -51.6437
L19.6879 -51.7551
L19.9811 -51.8611
L20.2747 -51.9616
L20.5689 -52.0567
L20.8633 -52.1465
L21.1581 -52.2311
L21.453 -52.3104
L21.7481 -52.3847
L22.0433 -52.4539
L22.3386 -52.5181
L22.6338 -52.5774
L22.9289 -52.6319
L23.224 -52.6815
L23.5189 -52.7264
L23.8136 -52.7667
L24.1081 -52.8023
L24.4023 -52.8333
L24.6962 -52.8598
L24.9897 -52.8818
L25.2828 -52.8994
L25.5756 -52.9126
L25.8679 -52.9215
L26.1597 -52.9261
L26.4511 -52.9265
L26.7419 -52.9227
L27.0322 -52.9147
L27.3219 -52.9026
L27.611 -52.8865
L27.8995 -52.8662
L28.1873 -52.842
L28.4745 -52.8138
L28.761 -52.7816
z
" id="C0_1_7d54bcbf2b"/>
    </defs>
    <g clip-path="url(#p1bffca34e9)">
     <use style="fill:#ff0000;stroke:#000000;stroke-width:2.0;" x="0.0" xlink:href="#C0_0_a811fe30f3" y="72.0"/>
    </g>
    <g clip-path="url(#p1bffca34e9)">
     <use style="fill:#ffffff;stroke:#000000;stroke-width:2.0;" x="0.0" xlink:href="#C0_1_7d54bcbf2b" y="72.0"/>
    </g>
   </g>
  </g>
 </g>
 <defs>
  <clipPath id="p1bffca34e9">
   <rect height="72.0" width="72.0" x="0.0" y="0.0"/>
  </clipPath>
 </defs>
</svg>
