<?xml version="1.0" encoding="utf-8" standalone="no"?>
<!DOCTYPE svg PUBLIC "-//W3C//DTD SVG 1.1//EN"
  "http://www.w3.org/Graphics/SVG/1.1/DTD/svg11.dtd">
<!-- Created with matplotlib (http://matplotlib.org/) -->
<svg height="72pt" version="1.1" viewBox="0 0 72 72" width="72pt" xmlns="http://www.w3.org/2000/svg" xmlns:xlink="http://www.w3.org/1999/xlink">
 <defs>
  <style type="text/css">
*{stroke-linecap:butt;stroke-linejoin:round;}
  </style>
 </defs>
 <g id="figure_1">
  <g id="patch_1">
   <path d="
M0 72
L72 72
L72 0
L0 0
z
" style="fill:none;"/>
  </g>
  <g id="axes_1">
   <g id="PatchCollection_1">
    <defs>
     <path d="
M36 -7.5
C43.5583 -7.5 50.808 -10.5029 56.1525 -15.8475
C61.4971 -21.192 64.5 -28.4417 64.5 -36
C64.5 -43.5583 61.4971 -50.808 56.1525 -56.1525
C50.808 -61.4971 43.5583 -64.5 36 -64.5
C28.4417 -64.5 21.192 -61.4971 15.8475 -56.1525
C10.5029 -50.808 7.5 -43.5583 7.5 -36
C7.5 -28.4417 10.5029 -21.192 15.8475 -15.8475
C21.192 -10.5029 28.4417 -7.5 36 -7.5
z
" id="C0_0_a811fe30f3"/>
     <path d="
M52.4258 -59.2139
L52.2074 -59.0835
L52.0049 -58.9371
L51.8182 -58.7751
L51.6471 -58.5981
L51.4911 -58.4066
L51.3497 -58.2012
L51.2222 -57.9828
L51.1079 -57.7519
L51.006 -57.5094
L50.9156 -57.256
L50.8358 -56.9924
L50.7656 -56.7195
L50.7043 -56.4379
L50.6509 -56.1484
L50.6045 -55.8517
L50.5643 -55.5485
L50.5295 -55.2395
L50.4995 -54.9252
L50.4735 -54.6062
L50.4509 -54.2832
L50.4312 -53.9567
L50.4138 -53.627
L50.3982 -53.2948
L50.3841 -52.9604
L50.371 -52.6243
L50.3586 -52.2868
L50.3466 -51.9482
L50.3348 -51.6089
L50.3229 -51.2692
L50.3107 -50.9293
L50.2981 -50.5895
L50.2848 -50.2501
L50.2708 -49.9112
L50.2559 -49.573
L50.24 -49.2358
L50.2231 -48.8996
L50.2051 -48.5646
L50.186 -48.2309
L50.1656 -47.8987
L50.144 -47.568
L50.1212 -47.2389
L50.0971 -46.9116
L50.0717 -46.5861
L50.045 -46.2623
L50.0169 -45.9405
L49.9876 -45.6206
L49.9571 -45.3026
L49.9252 -44.9866
L49.892 -44.6727
L49.8576 -44.3607
L49.822 -44.0507
L49.7851 -43.7428
L49.747 -43.4368
L49.7077 -43.1329
L49.6672 -42.831
L49.6256 -42.531
L49.5828 -42.233
L49.5388 -41.9369
L49.4938 -41.6427
L49.4477 -41.3504
L49.4004 -41.0599
L49.3521 -40.7712
L49.3027 -40.4843
L49.2523 -40.1991
L49.2009 -39.9156
L49.1484 -39.6338
L49.0949 -39.3535
L49.0405 -39.0748
L48.985 -38.7977
L48.9285 -38.522
L48.8711 -38.2477
L48.8127 -37.9748
L48.7533 -37.7032
L48.6929 -37.4329
L48.6316 -37.1638
L48.5693 -36.896
L48.5061 -36.6292
L48.4419 -36.3635
L48.3767 -36.0989
L48.3106 -35.8352
L48.2435 -35.5725
L48.1754 -35.3106
L48.1064 -35.0496
L48.0364 -34.7893
L47.9653 -34.5298
L47.8933 -34.2709
L47.8203 -34.0127
L47.7462 -33.755
L47.6712 -33.4979
L47.595 -33.2412
L47.4396 -32.985
L47.3603 -32.7291
L47.2799 -32.4736
L47.1983 -32.2183
L47.1157 -31.9633
L47.0318 -31.7084
L46.9468 -31.4537
L46.8607 -31.1991
L46.7733 -30.9445
L46.6846 -30.6898
L46.5948 -30.4352
L46.5036 -30.1804
L46.4112 -29.9254
L46.3174 -29.6703
L46.2222 -29.4149
L46.1257 -29.1593
L46.0278 -28.9033
L45.9285 -28.647
L45.8277 -28.3902
L45.7254 -28.133
L45.6215 -27.8753
L45.5162 -27.617
L45.4092 -27.3582
L45.3007 -27.0988
L45.1904 -26.8387
L45.0786 -26.578
L44.965 -26.3165
L44.8496 -26.0543
L44.7325 -25.7913
L44.6136 -25.5275
L44.4929 -25.2629
L44.3702 -24.9974
L44.2457 -24.731
L44.1193 -24.4637
L43.9909 -24.1954
L43.8604 -23.9262
L43.728 -23.656
L43.5935 -23.3849
L43.457 -23.1127
L43.3183 -22.8396
L43.1776 -22.5654
L43.0347 -22.2902
L42.8896 -22.0141
L42.7424 -21.7369
L42.593 -21.4587
L42.4415 -21.1795
L42.2877 -20.8993
L42.1319 -20.6182
L41.9738 -20.3362
L41.8136 -20.0533
L41.6514 -19.7695
L41.487 -19.4848
L41.3207 -19.1994
L41.1524 -18.9133
L40.9822 -18.6264
L40.8102 -18.3389
L40.6364 -18.0509
L40.4611 -17.7623
L40.2844 -17.4734
L40.1063 -17.1841
L39.9272 -16.8945
L39.7471 -16.6048
L39.5663 -16.315
L39.385 -16.0252
L39.2036 -15.7355
L39.0223 -15.4461
L38.8416 -15.157
L38.6617 -14.8684
L38.4832 -14.5804
L38.3066 -14.293
L38.1323 -14.0065
L37.961 -13.7209
L37.7933 -13.4363
L37.6299 -13.1529
L37.4715 -12.8709
L37.319 -12.5902
L37.1733 -12.311
L37.0353 -12.0335
L36.9061 -11.7577
L36.7865 -11.4838
L36.6778 -11.2118
L36.5812 -10.9419
L36.4976 -10.6742
L36.4283 -10.4087
L36.3745 -10.1457
L36.3373 -9.88515
L36.3177 -9.62729
L36.3168 -9.37226
L36.3355 -9.12023
L36.3745 -8.8714
L36.4345 -8.626
L36.516 -8.38428
L36.6194 -8.14653
L36.7449 -7.91305
L37.2466 -7.6842
L37.7434 -7.52728
L38.2396 -7.55337
L38.7351 -7.58813
L39.2298 -7.63154
L39.7235 -7.6836
L40.216 -7.74428
L40.7073 -7.81356
L41.1971 -7.89144
L41.6854 -7.97787
L42.1719 -8.07284
L42.6566 -8.17632
L43.1392 -8.28827
L43.6197 -8.40866
L44.0978 -8.53746
L44.5734 -8.67463
L45.0465 -8.82011
L45.5168 -8.97388
L45.9842 -9.13588
L46.4485 -9.30606
L46.9097 -9.48438
L47.3675 -9.67077
L47.8219 -9.86518
L48.2727 -10.0675
L48.7198 -10.2778
L49.1629 -10.4959
L49.6021 -10.7218
L50.0371 -10.9554
L50.4678 -11.1966
L50.8942 -11.4453
L51.316 -11.7016
L51.7331 -11.9652
L52.1454 -12.2362
L52.5529 -12.5144
L52.9553 -12.7997
L53.3525 -13.0922
L53.7444 -13.3916
L54.1309 -13.6978
L54.5119 -14.0109
L54.8873 -14.3307
L55.2569 -14.6571
L55.6206 -14.9899
L55.9784 -15.3292
L56.3301 -15.6748
L56.6756 -16.0266
L57.0148 -16.3844
L57.3475 -16.7482
L57.6738 -17.1179
L57.9935 -17.4934
L58.3065 -17.8745
L58.6127 -18.2611
L58.912 -18.6531
L59.2043 -19.0504
L59.4896 -19.4528
L59.7677 -19.8603
L60.0385 -20.2727
L60.3021 -20.6899
L60.5582 -21.1118
L60.8069 -21.5382
L61.048 -21.969
L61.2814 -22.404
L61.5072 -22.8433
L61.7252 -23.2865
L61.9353 -23.7336
L62.1376 -24.1844
L62.3319 -24.6388
L62.5182 -25.0967
L62.6964 -25.558
L62.8664 -26.0224
L63.0283 -26.4898
L63.182 -26.9601
L63.3274 -27.4332
L63.4644 -27.9089
L63.5931 -28.3871
L63.7134 -28.8675
L63.8252 -29.3502
L63.9285 -29.8349
L64.0234 -30.3214
L64.1097 -30.8097
L64.1875 -31.2996
L64.2566 -31.7909
L64.3172 -32.2835
L64.3691 -32.7772
L64.4124 -33.2719
L64.4471 -33.7674
L64.473 -34.2636
L64.4903 -34.7603
L64.4989 -35.2574
L64.4989 -35.7548
L64.4901 -36.2522
L64.4727 -36.7495
L64.4466 -37.2466
L64.4119 -37.7434
L64.3685 -38.2396
L64.3164 -38.7351
L64.2557 -39.2298
L64.1864 -39.7235
L64.1086 -40.216
L64.0221 -40.7073
L63.9272 -41.1971
L63.8237 -41.6854
L63.7117 -42.1719
L63.5913 -42.6566
L63.4625 -43.1392
L63.3254 -43.6197
L63.1799 -44.0978
L63.0261 -44.5734
L62.8641 -45.0465
L62.6939 -45.5168
L62.5156 -45.9842
L62.3292 -46.4485
L62.1348 -46.9097
L61.9325 -47.3675
L61.7222 -47.8219
L61.5041 -48.2727
L61.2782 -48.7198
L61.0446 -49.1629
L60.8034 -49.6021
L60.5547 -50.0371
L60.2984 -50.4678
L60.0348 -50.8942
L59.7638 -51.316
L59.4856 -51.7331
L59.2003 -52.1454
L58.9078 -52.5529
L58.6084 -52.9553
L58.3022 -53.3525
L57.9891 -53.7444
L57.6693 -54.1309
L57.3429 -54.5119
L57.0101 -54.8873
L56.6708 -55.2569
L56.3252 -55.6206
L55.9734 -55.9784
L55.6156 -56.3301
L55.2518 -56.6756
L54.8821 -57.0148
L54.5066 -57.3475
L54.1255 -57.6738
L53.7389 -57.9935
L53.3469 -58.3065
L52.9496 -58.6127
z
" id="C0_1_b10e9db48d"/>
     <path d="
M35.1108 -64.4324
L34.9585 -64.2003
L34.79 -63.967
L34.6066 -63.7325
L34.4093 -63.4966
L34.1996 -63.2591
L33.9785 -63.02
L33.7472 -62.7791
L33.5071 -62.5364
L33.2592 -62.2917
L33.0046 -62.045
L32.7443 -61.7962
L32.4793 -61.5453
L32.2106 -61.2923
L31.9389 -61.0372
L31.6651 -60.78
L31.3898 -60.5208
L31.1138 -60.2596
L30.8376 -59.9965
L30.5617 -59.7315
L30.2867 -59.4649
L30.0129 -59.1966
L29.7408 -58.9267
L29.4707 -58.6554
L29.2029 -58.3828
L28.9377 -58.109
L28.6753 -57.8341
L28.4159 -57.5581
L28.1598 -57.2813
L27.907 -57.0037
L27.6576 -56.7255
L27.4119 -56.4466
L27.1698 -56.1673
L26.9315 -55.8876
L26.6969 -55.6076
L26.4662 -55.3274
L26.2393 -55.0471
L26.0163 -54.7667
L25.7972 -54.4863
L25.5819 -54.206
L25.3705 -53.9258
L25.163 -53.6458
L24.9592 -53.366
L24.7592 -53.0865
L24.563 -52.8073
L24.3704 -52.5285
L24.1815 -52.25
L23.9962 -51.972
L23.8145 -51.6944
L23.6363 -51.4172
L23.4615 -51.1404
L23.2901 -50.8642
L23.1221 -50.5884
L22.9573 -50.3131
L22.7958 -50.0383
L22.6374 -49.7639
L22.4821 -49.49
L22.33 -49.2166
L22.1808 -48.9436
L22.0345 -48.671
L21.8911 -48.3989
L21.7506 -48.1271
L21.6129 -47.8558
L21.4779 -47.5848
L21.3455 -47.3141
L21.2158 -47.0437
L21.0887 -46.7736
L20.9641 -46.5037
L20.842 -46.2341
L20.7223 -45.9646
L20.605 -45.6953
L20.4901 -45.4261
L20.3775 -45.157
L20.2672 -44.8879
L20.1592 -44.6188
L20.0533 -44.3497
L19.9496 -44.0804
L19.848 -43.8111
L19.7486 -43.5416
L19.6512 -43.2719
L19.5559 -43.0019
L19.4626 -42.7317
L19.3714 -42.4611
L19.282 -42.1901
L19.1947 -41.9187
L19.1093 -41.6467
L19.0258 -41.3743
L18.9442 -41.1013
L18.8646 -40.8276
L18.7868 -40.5533
L18.7108 -40.2782
L18.6367 -40.0024
L18.5645 -39.7257
L18.4942 -39.4481
L18.4256 -39.1696
L18.3589 -38.8902
L18.2941 -38.6096
L18.2311 -38.328
L18.1699 -38.0453
L18.1106 -37.7613
L18.0532 -37.4761
L17.9976 -37.1896
L17.9439 -36.9018
L17.892 -36.6125
L17.8421 -36.3218
L17.7941 -36.0296
L17.7481 -35.7358
L17.704 -35.4404
L17.6619 -35.1433
L17.6218 -34.8445
L17.5837 -34.5439
L17.5477 -34.2416
L17.5138 -33.9373
L17.482 -33.6312
L17.4523 -33.3231
L17.4249 -33.013
L17.3997 -32.7008
L17.3767 -32.3866
L17.3561 -32.0702
L17.3378 -31.7517
L17.3219 -31.431
L17.3085 -31.1081
L17.2975 -30.7829
L17.2891 -30.4554
L17.2833 -30.1257
L17.2801 -29.7936
L17.2796 -29.4591
L17.2819 -29.1223
L17.2869 -28.7832
L17.2948 -28.4417
L17.3056 -28.0979
L17.3194 -27.7517
L17.3362 -27.4032
L17.356 -27.0524
L17.3789 -26.6994
L17.4049 -26.3441
L17.4341 -25.9867
L17.4665 -25.6271
L17.5021 -25.2655
L17.541 -24.9019
L17.5832 -24.5365
L17.6286 -24.1692
L17.6773 -23.8004
L17.7292 -23.4299
L17.7844 -23.0581
L17.8427 -22.6851
L17.9041 -22.3109
L17.9685 -21.9359
L18.0358 -21.5602
L18.1058 -21.1841
L18.1785 -20.8077
L18.2535 -20.4314
L18.3308 -20.0554
L18.4099 -19.68
L18.4907 -19.3055
L18.5727 -18.9323
L18.6555 -18.5608
L18.7388 -18.1912
L18.8219 -17.8241
L18.9043 -17.4599
L18.9855 -17.0989
L19.0647 -16.7418
L19.1411 -16.3888
L19.214 -16.0407
L19.2824 -15.6979
L19.3455 -15.3609
L19.4022 -15.0304
L19.4515 -14.7068
L19.4924 -14.3907
L19.5238 -14.0828
L19.5447 -13.7836
L19.5539 -13.4935
L19.5505 -13.2133
L19.0342 -12.9434
L18.6371 -13.1
L18.2453 -13.3996
L17.8589 -13.706
L17.4781 -14.0193
L17.1028 -14.3393
L16.7334 -14.6658
L16.3698 -14.9989
L16.0122 -15.3383
L15.6607 -15.6841
L15.3154 -16.036
L14.9763 -16.394
L14.6437 -16.758
L14.3176 -17.1278
L13.9981 -17.5034
L13.6853 -17.8846
L13.3793 -18.2714
L13.0802 -18.6635
L12.788 -19.061
L12.503 -19.4635
L12.2251 -19.8712
L11.9544 -20.2837
L11.691 -20.701
L11.4351 -21.123
L11.1867 -21.5495
L10.9458 -21.9804
L10.7125 -22.4156
L10.4869 -22.855
L10.2691 -23.2983
L10.0592 -23.7455
L9.85715 -24.1964
L9.66306 -24.6509
L9.47699 -25.1089
L9.29901 -25.5702
L9.12916 -26.0347
L8.96749 -26.5022
L8.81406 -26.9726
L8.66891 -27.4458
L8.53208 -27.9215
L8.40362 -28.3998
L8.28357 -28.8803
L8.17196 -29.363
L8.06883 -29.8477
L7.9742 -30.3344
L7.88811 -30.8227
L7.81059 -31.3126
L7.74165 -31.8039
L7.68132 -32.2965
L7.62962 -32.7903
L7.58655 -33.285
L7.55215 -33.7805
L7.5264 -34.2768
L7.50933 -34.7735
L7.50094 -35.2706
L7.50124 -35.768
L7.51021 -36.2654
L7.52786 -36.7627
L7.55418 -37.2598
L7.58917 -37.7565
L7.63281 -38.2527
L7.68509 -38.7482
L7.746 -39.2429
L7.81552 -39.7365
L7.89362 -40.2291
L7.98028 -40.7203
L8.07547 -41.2101
L8.17918 -41.6983
L8.29135 -42.1848
L8.41197 -42.6694
L8.54099 -43.152
L8.67838 -43.6324
L8.82408 -44.1104
L8.97807 -44.586
L9.14029 -45.059
L9.31069 -45.5292
L9.48921 -45.9965
L9.67582 -46.4608
L9.87044 -46.9219
L10.073 -47.3796
L10.2835 -47.8339
L10.5018 -48.2846
L10.7279 -48.7316
L10.9617 -49.1746
L11.2031 -49.6137
L11.452 -50.0486
L11.7085 -50.4792
L11.9723 -50.9054
L12.2435 -51.3271
L12.5218 -51.7441
L12.8074 -52.1563
L13.1 -52.5636
L13.3996 -52.9658
L13.706 -53.3629
L14.0193 -53.7547
L14.3393 -54.1411
L14.6658 -54.5219
L14.9989 -54.8972
L15.3383 -55.2666
L15.6841 -55.6302
L16.036 -55.9878
L16.394 -56.3393
L16.758 -56.6846
L17.1278 -57.0237
L17.5034 -57.3563
L17.8846 -57.6824
L18.2714 -58.0019
L18.6635 -58.3147
L19.061 -58.6207
L19.4635 -58.9198
L19.8712 -59.212
L20.2837 -59.497
L20.701 -59.7749
L21.123 -60.0456
L21.5495 -60.309
L21.9804 -60.5649
L22.4156 -60.8133
L22.855 -61.0542
L23.2983 -61.2875
L23.7455 -61.5131
L24.1964 -61.7309
L24.6509 -61.9408
L25.1089 -62.1429
L25.5702 -62.3369
L26.0347 -62.523
L26.5022 -62.701
L26.9726 -62.8708
L27.4458 -63.0325
L27.9215 -63.1859
L28.3998 -63.3311
L28.8803 -63.4679
L29.363 -63.5964
L29.8477 -63.7164
L30.3344 -63.828
L30.8227 -63.9312
L31.3126 -64.0258
L31.8039 -64.1119
L32.2965 -64.1894
L32.7903 -64.2583
L33.285 -64.3187
L33.7805 -64.3704
L34.2768 -64.4134
z
" id="C0_2_d166dedb2a"/>
    </defs>
    <g clip-path="url(#p1bffca34e9)">
     <use style="fill:#ff0000;stroke:#000000;stroke-width:2.0;" x="0.0" xlink:href="#C0_0_a811fe30f3" y="72.0"/>
    </g>
    <g clip-path="url(#p1bffca34e9)">
     <use style="fill:#ffffff;stroke:#000000;stroke-width:2.0;" x="0.0" xlink:href="#C0_1_b10e9db48d" y="72.0"/>
    </g>
    <g clip-path="url(#p1bffca34e9)">
     <use style="fill:#ffffff;stroke:#000000;stroke-width:2.0;" x="0.0" xlink:href="#C0_2_d166dedb2a" y="72.0"/>
    </g>
   </g>
  </g>
 </g>
 <defs>
  <clipPath id="p1bffca34e9">
   <rect height="72.0" width="72.0" x="0.0" y="0.0"/>
  </clipPath>
 </defs>
</svg>
