<?xml version="1.0" encoding="utf-8" standalone="no"?>
<!DOCTYPE svg PUBLIC "-//W3C//DTD SVG 1.1//EN"
  "http://www.w3.org/Graphics/SVG/1.1/DTD/svg11.dtd">
<!-- Created with matplotlib (http://matplotlib.org/) -->
<svg height="72pt" version="1.1" viewBox="0 0 72 72" width="72pt" xmlns="http://www.w3.org/2000/svg" xmlns:xlink="http://www.w3.org/1999/xlink">
 <defs>
  <style type="text/css">
*{stroke-linecap:butt;stroke-linejoin:round;}
  </style>
 </defs>
 <g id="figure_1">
  <g id="patch_1">
   <path d="
M0 72
L72 72
L72 0
L0 0
z
" style="fill:none;"/>
  </g>
  <g id="axes_1">
   <g id="PatchCollection_1">
    <defs>
     <path d="
M36 -7.5
C43.5583 -7.5 50.808 -10.5029 56.1525 -15.8475
C61.4971 -21.192 64.5 -28.4417 64.5 -36
C64.5 -43.5583 61.4971 -50.808 56.1525 -56.1525
C50.808 -61.4971 43.5583 -64.5 36 -64.5
C28.4417 -64.5 21.192 -61.4971 15.8475 -56.1525
C10.5029 -50.808 7.5 -43.5583 7.5 -36
C7.5 -28.4417 10.5029 -21.192 15.8475 -15.8475
C21.192 -10.5029 28.4417 -7.5 36 -7.5
z
" id="C0_0_a811fe30f3"/>
     <path d="
M35.3864 -7.50705
L35.1576 -7.72842
L34.9665 -7.95923
L34.8128 -8.1988
L34.6955 -8.44642
L34.6132 -8.70145
L34.5635 -8.96329
L34.544 -9.23138
L34.5518 -9.50521
L34.584 -9.78431
L34.6377 -10.0683
L34.7101 -10.3566
L34.7987 -10.6491
L34.9012 -10.9452
L35.0152 -11.2448
L35.1391 -11.5474
L35.271 -11.8527
L35.4095 -12.1605
L35.5534 -12.4704
L35.7015 -12.7823
L35.8528 -13.0957
L36.0066 -13.4105
L36.1621 -13.7264
L36.3186 -14.0432
L36.4757 -14.3606
L36.6329 -14.6784
L36.7897 -14.9965
L36.946 -15.3146
L37.1012 -15.6325
L37.2553 -15.9502
L37.408 -16.2673
L37.5592 -16.5838
L37.7086 -16.8995
L37.8562 -17.2144
L38.0019 -17.5282
L38.1456 -17.8409
L38.2872 -18.1523
L38.4267 -18.4625
L38.564 -18.7713
L38.6992 -19.0786
L38.8321 -19.3844
L38.9629 -19.6886
L39.0914 -19.9912
L39.2178 -20.2921
L39.342 -20.5914
L39.464 -20.889
L39.5839 -21.1848
L39.7017 -21.4789
L39.8174 -21.7712
L39.931 -22.0618
L40.0426 -22.3507
L40.1522 -22.6378
L40.2599 -22.9231
L40.3657 -23.2068
L40.4696 -23.4888
L40.5716 -23.7691
L40.6718 -24.0478
L40.7703 -24.3248
L40.8671 -24.6003
L40.9622 -24.8742
L41.0556 -25.1466
L41.1474 -25.4175
L41.2377 -25.687
L41.3264 -25.9551
L41.4137 -26.2218
L41.4995 -26.4872
L41.5838 -26.7514
L41.6668 -27.0144
L41.7484 -27.2761
L41.8287 -27.5368
L41.9078 -27.7964
L41.9856 -28.0549
L42.0621 -28.3125
L42.1375 -28.5692
L42.2117 -28.825
L42.2848 -29.08
L42.3567 -29.3343
L42.4276 -29.5878
L42.4975 -29.8407
L42.5663 -30.093
L42.6341 -30.3448
L42.701 -30.5961
L42.7669 -30.847
L42.8318 -31.0975
L42.8959 -31.3476
L42.9591 -31.5976
L43.0214 -31.8473
L43.0828 -32.0969
L43.1434 -32.3464
L43.2032 -32.5958
L43.2622 -32.8453
L43.3779 -33.0949
L43.4346 -33.3447
L43.4905 -33.5946
L43.5458 -33.8448
L43.6003 -34.0954
L43.6541 -34.3463
L43.7072 -34.5977
L43.7596 -34.8495
L43.8114 -35.102
L43.8624 -35.355
L43.9129 -35.6088
L43.9626 -35.8633
L44.0117 -36.1185
L44.0602 -36.3747
L44.108 -36.6318
L44.1551 -36.8899
L44.2017 -37.149
L44.2476 -37.4092
L44.2928 -37.6706
L44.3374 -37.9333
L44.3814 -38.1972
L44.4247 -38.4625
L44.4674 -38.7293
L44.5094 -38.9975
L44.5508 -39.2672
L44.5915 -39.5386
L44.6315 -39.8116
L44.6708 -40.0863
L44.7095 -40.3629
L44.7474 -40.6412
L44.7847 -40.9215
L44.8212 -41.2038
L44.8569 -41.488
L44.8919 -41.7744
L44.9261 -42.0628
L44.9596 -42.3535
L44.9922 -42.6464
L45.024 -42.9415
L45.0549 -43.239
L45.085 -43.5389
L45.1142 -43.8412
L45.1424 -44.146
L45.1698 -44.4532
L45.1961 -44.763
L45.2215 -45.0753
L45.2458 -45.3903
L45.2691 -45.7078
L45.2914 -46.028
L45.3125 -46.3508
L45.3325 -46.6762
L45.3514 -47.0042
L45.3691 -47.3349
L45.3857 -47.6682
L45.401 -48.004
L45.4151 -48.3424
L45.428 -48.6833
L45.4397 -49.0266
L45.4502 -49.3723
L45.4594 -49.7203
L45.4674 -50.0704
L45.4743 -50.4227
L45.48 -50.7768
L45.4846 -51.1328
L45.4883 -51.4904
L45.491 -51.8495
L45.4929 -52.2098
L45.4941 -52.5711
L45.4949 -52.9332
L45.4954 -53.2958
L45.4959 -53.6585
L45.4966 -54.021
L45.4981 -54.3829
L45.5006 -54.7438
L45.5048 -55.1031
L45.5112 -55.4604
L45.5205 -55.815
L45.5336 -56.1664
L45.5515 -56.5137
L45.5753 -56.8561
L45.6063 -57.1928
L45.646 -57.5227
L45.6961 -57.8448
L45.7584 -58.1577
L45.8349 -58.4602
L45.928 -58.7508
L46.0398 -59.028
L46.1725 -59.2901
L46.3285 -59.5355
L46.5096 -59.7625
L46.7173 -59.9697
L46.9529 -60.1554
L47.2166 -60.3186
L47.5085 -60.4583
L47.8277 -60.5738
L48.173 -60.6649
L48.5425 -60.7313
L48.9343 -60.7735
L49.3459 -60.7917
L49.7751 -60.7866
L50.2889 -60.7589
L50.7171 -60.6592
L51.1408 -60.4061
L51.5598 -60.1455
L51.9742 -59.8776
L52.3837 -59.6024
L52.7882 -59.3201
L53.1876 -59.0306
L53.5817 -58.7341
L53.9705 -58.4306
L54.3538 -58.1204
L54.7315 -57.8034
L55.1036 -57.4797
L55.4698 -57.1496
L55.83 -56.8129
L56.1843 -56.47
L56.5323 -56.1208
L56.8742 -55.7654
L57.2096 -55.4041
L57.5387 -55.0368
L57.8611 -54.6638
L58.1769 -54.285
L58.4859 -53.9007
L58.7881 -53.511
L59.0833 -53.1159
L59.3716 -52.7155
L59.6526 -52.3101
L59.9265 -51.8998
L60.1931 -51.4845
L60.4524 -51.0646
L60.7041 -50.6401
L60.9484 -50.2111
L61.1851 -49.7778
L61.414 -49.3403
L61.6353 -48.8987
L61.8487 -48.4532
L62.0543 -48.0039
L62.2519 -47.551
L62.4415 -47.0945
L62.6231 -46.6346
L62.7966 -46.1716
L62.9619 -45.7054
L63.119 -45.2362
L63.2678 -44.7643
L63.4083 -44.2896
L63.5405 -43.8125
L63.6643 -43.333
L63.7796 -42.8512
L63.8865 -42.3674
L63.9849 -41.8816
L64.0748 -41.394
L64.1561 -40.9048
L64.2289 -40.414
L64.293 -39.922
L64.3485 -39.4287
L64.3954 -38.9344
L64.4337 -38.4392
L64.4633 -37.9433
L64.4842 -37.4467
L64.4964 -36.9498
L64.5 -36.4525
L64.4948 -35.9551
L64.481 -35.4577
L64.4586 -34.9605
L64.4274 -34.4636
L64.3876 -33.9672
L64.3391 -33.4713
L64.2821 -32.9763
L64.2164 -32.4822
L64.1421 -31.9891
L64.0592 -31.4973
L63.9678 -31.0068
L63.8678 -30.5179
L63.7594 -30.0306
L63.6425 -29.5452
L63.5172 -29.0617
L63.3835 -28.5803
L63.2415 -28.1012
L63.0912 -27.6245
L62.9326 -27.1503
L62.7659 -26.6789
L62.5909 -26.2102
L62.4079 -25.7446
L62.2168 -25.2821
L62.0178 -24.8228
L61.8108 -24.367
L61.5959 -23.9147
L61.3733 -23.4661
L61.1429 -23.0213
L60.9049 -22.5804
L60.6592 -22.1437
L60.4061 -21.7111
L60.1455 -21.2829
L59.8776 -20.8592
L59.6024 -20.4402
L59.3201 -20.0258
L59.0306 -19.6163
L58.7341 -19.2118
L58.4306 -18.8124
L58.1204 -18.4183
L57.8034 -18.0295
L57.4797 -17.6462
L57.1496 -17.2685
L56.8129 -16.8964
L56.47 -16.5302
L56.1208 -16.17
L55.7654 -15.8157
L55.4041 -15.4677
L55.0368 -15.1258
L54.6638 -14.7904
L54.285 -14.4613
L53.9007 -14.1389
L53.511 -13.8231
L53.1159 -13.5141
L52.7155 -13.2119
L52.3101 -12.9167
L51.8998 -12.6284
L51.4845 -12.3474
L51.0646 -12.0735
L50.6401 -11.8069
L50.2111 -11.5476
L49.7778 -11.2959
L49.3403 -11.0516
L48.8987 -10.8149
L48.4532 -10.586
L48.0039 -10.3647
L47.551 -10.1513
L47.0945 -9.94573
L46.6346 -9.7481
L46.1716 -9.55847
L45.7054 -9.3769
L45.2362 -9.20344
L44.7643 -9.03814
L44.2896 -8.88105
L43.8125 -8.73222
L43.333 -8.5917
L42.8512 -8.45953
L42.3674 -8.33574
L41.8816 -8.22039
L41.394 -8.11349
L40.9048 -8.01509
L40.414 -7.92522
L39.922 -7.84389
L39.4287 -7.77115
L38.9344 -7.707
L38.4392 -7.65147
L37.9433 -7.60457
L37.4467 -7.56633
L36.9498 -7.53674
L36.4525 -7.51583
L35.9551 -7.50359
z
" id="C0_1_6abae13abd"/>
     <path d="
M21.7891 -11.3056
L21.5066 -11.6691
L21.218 -12.0399
L20.9254 -12.4177
L20.6309 -12.8017
L20.3361 -13.1914
L20.0426 -13.5862
L19.7516 -13.9857
L19.4642 -14.3893
L19.1813 -14.7964
L18.9037 -15.2067
L18.6321 -15.6196
L18.3669 -16.0346
L18.1087 -16.4513
L17.8576 -16.8694
L17.614 -17.2883
L17.3781 -17.7078
L17.15 -18.1276
L16.9298 -18.5472
L16.7175 -18.9663
L16.5132 -19.3848
L16.3168 -19.8023
L16.1282 -20.2185
L15.9475 -20.6333
L15.7745 -21.0465
L15.609 -21.4579
L15.451 -21.8673
L15.3004 -22.2745
L15.1569 -22.6794
L15.0205 -23.082
L14.891 -23.4821
L14.7682 -23.8795
L14.652 -24.2743
L14.5422 -24.6664
L14.4386 -25.0557
L14.3411 -25.4421
L14.2496 -25.8257
L14.1638 -26.2064
L14.0836 -26.5842
L14.0089 -26.959
L13.9394 -27.331
L13.8752 -27.7
L13.8159 -28.0662
L13.7616 -28.4294
L13.712 -28.7898
L13.667 -29.1474
L13.6265 -29.5022
L13.5904 -29.8542
L13.5585 -30.2035
L13.5308 -30.5501
L13.5071 -30.8941
L13.4874 -31.2355
L13.4714 -31.5743
L13.4593 -31.9107
L13.4508 -32.2447
L13.4459 -32.5763
L13.4445 -32.9056
L13.4465 -33.2326
L13.4518 -33.5575
L13.4605 -33.8802
L13.4723 -34.2009
L13.4873 -34.5195
L13.5055 -34.8363
L13.5266 -35.1511
L13.5508 -35.4641
L13.578 -35.7754
L13.6081 -36.085
L13.6411 -36.393
L13.6769 -36.6994
L13.7156 -37.0044
L13.757 -37.3078
L13.8013 -37.61
L13.8483 -37.9108
L13.898 -38.2104
L13.9505 -38.5088
L14.0057 -38.8061
L14.0636 -39.1023
L14.1243 -39.3976
L14.1876 -39.6919
L14.2537 -39.9853
L14.3224 -40.2779
L14.3939 -40.5698
L14.4682 -40.8609
L14.5452 -41.1514
L14.6249 -41.4413
L14.7075 -41.7307
L14.7928 -42.0196
L14.881 -42.3081
L14.9721 -42.5962
L15.0661 -42.884
L15.163 -43.1715
L15.2629 -43.4588
L15.3657 -43.746
L15.4717 -44.033
L15.5807 -44.3199
L15.6929 -44.6068
L15.8083 -44.8937
L15.927 -45.1807
L16.049 -45.4677
L16.1743 -45.7549
L16.3031 -46.0423
L16.4354 -46.3298
L16.5713 -46.6176
L16.7109 -46.9057
L16.8541 -47.194
L17.0012 -47.4827
L17.1522 -47.7718
L17.3072 -48.0612
L17.4662 -48.351
L17.6294 -48.6412
L17.7968 -48.9319
L17.9686 -49.223
L18.1449 -49.5145
L18.3257 -49.8064
L18.5111 -50.0988
L18.7014 -50.3917
L18.8965 -50.685
L19.0966 -50.9786
L19.3018 -51.2727
L19.5123 -51.5671
L19.7281 -51.8619
L19.9494 -52.157
L20.1762 -52.4523
L20.4088 -52.7478
L20.6472 -53.0435
L20.8915 -53.3393
L21.142 -53.6351
L21.3986 -53.9309
L21.6615 -54.2265
L21.9309 -54.5218
L22.2068 -54.8168
L22.4893 -55.1114
L22.7786 -55.4054
L23.0747 -55.6986
L23.3777 -55.9911
L23.6878 -56.2825
L24.0049 -56.5728
L24.3291 -56.8617
L24.6604 -57.1491
L24.9989 -57.4349
L25.3446 -57.7188
L25.6974 -58.0005
L26.0574 -58.28
L26.4243 -58.557
L26.7982 -58.8312
L27.1789 -59.1025
L27.5661 -59.3706
L27.9597 -59.6353
L28.3594 -59.8964
L28.7648 -60.1536
L29.1756 -60.4068
L29.5912 -60.6558
L30.0111 -60.9005
L30.4347 -61.1406
L30.8611 -61.376
L31.2895 -61.6068
L31.719 -61.833
L32.1482 -62.0544
L32.576 -62.2714
L33.0008 -62.4841
L33.4209 -62.6927
L33.8344 -62.8978
L34.2392 -63.0998
L34.6329 -63.2993
L35.0131 -63.4971
L35.3769 -63.6942
L35.7217 -63.8913
L36.0445 -64.0897
L35.8477 -64.2902
L35.3504 -64.4996
L34.8532 -64.4926
L34.3564 -64.4769
L33.8601 -64.4526
L33.3644 -64.4195
L32.8696 -64.3779
L32.3757 -64.3276
L31.8828 -64.2686
L31.3913 -64.201
L30.9012 -64.1249
L30.4126 -64.0402
L29.9257 -63.9469
L29.4406 -63.8452
L28.9576 -63.7349
L28.4767 -63.6162
L27.9981 -63.4891
L27.5219 -63.3536
L27.0483 -63.2098
L26.5775 -63.0577
L26.1095 -62.8973
L25.6445 -62.7288
L25.1827 -62.5521
L24.7242 -62.3673
L24.2691 -62.1745
L23.8176 -61.9737
L23.3698 -61.7651
L22.9258 -61.5485
L22.4858 -61.3242
L22.05 -61.0922
L21.6183 -60.8525
L21.1911 -60.6052
L20.7684 -60.3505
L20.3503 -60.0883
L19.937 -59.8188
L19.5286 -59.5421
L19.1252 -59.2582
L18.7269 -58.9672
L18.3339 -58.6692
L17.9463 -58.3642
L17.5642 -58.0525
L17.1877 -57.7341
L16.8169 -57.409
L16.452 -57.0774
L16.093 -56.7394
L15.7401 -56.3951
L15.3933 -56.0446
L15.0529 -55.688
L14.7188 -55.3253
L14.3912 -54.9568
L14.0702 -54.5825
L13.7558 -54.2025
L13.4483 -53.817
L13.1476 -53.4261
L12.8538 -53.0299
L12.5672 -52.6285
L12.2876 -52.222
L12.0153 -51.8105
L11.7503 -51.3943
L11.4927 -50.9734
L11.2425 -50.5479
L10.9999 -50.1179
L10.7649 -49.6837
L10.5376 -49.2453
L10.318 -48.8029
L10.1062 -48.3566
L9.9024 -47.9065
L9.70649 -47.4527
L9.5186 -46.9955
L9.33877 -46.535
L9.16707 -46.0712
L9.00353 -45.6044
L8.84823 -45.1346
L8.70119 -44.6621
L8.56246 -44.1869
L8.4321 -43.7092
L8.31013 -43.2292
L8.1966 -42.7469
L8.09154 -42.2627
L7.99497 -41.7765
L7.90694 -41.2885
L7.82747 -40.799
L7.75657 -40.3079
L7.69428 -39.8156
L7.64062 -39.3221
L7.59559 -38.8276
L7.55921 -38.3322
L7.5315 -37.8361
L7.51245 -37.3395
L7.50209 -36.8425
L7.50041 -36.3452
L7.5074 -35.8477
L7.52308 -35.3504
L7.54743 -34.8532
L7.58045 -34.3564
L7.62213 -33.8601
L7.67245 -33.3644
L7.73139 -32.8696
L7.79895 -32.3757
L7.8751 -31.8828
L7.95982 -31.3913
L8.05308 -30.9012
L8.15485 -30.4126
L8.2651 -29.9257
L8.3838 -29.4406
L8.51091 -28.9576
L8.6464 -28.4767
L8.79022 -27.9981
L8.94233 -27.5219
L9.10268 -27.0483
L9.27122 -26.5775
L9.4479 -26.1095
L9.63267 -25.6445
L9.82548 -25.1827
L10.0263 -24.7242
L10.2349 -24.2691
L10.4515 -23.8176
L10.6758 -23.3698
L10.9078 -22.9258
L11.1475 -22.4858
L11.3948 -22.05
L11.6495 -21.6183
L11.9117 -21.1911
L12.1812 -20.7684
L12.4579 -20.3503
L12.7418 -19.937
L13.0328 -19.5286
L13.3308 -19.1252
L13.6358 -18.7269
L13.9475 -18.3339
L14.2659 -17.9463
L14.591 -17.5642
L14.9226 -17.1877
L15.2606 -16.8169
L15.6049 -16.452
L15.9554 -16.093
L16.312 -15.7401
L16.6747 -15.3933
L17.0432 -15.0529
L17.4175 -14.7188
L17.7975 -14.3912
L18.183 -14.0702
L18.5739 -13.7558
L18.9701 -13.4483
L19.3715 -13.1476
L19.778 -12.8538
L20.1895 -12.5672
L20.6057 -12.2876
L21.0266 -12.0153
z
" id="C0_2_1c751f0b5f"/>
    </defs>
    <g clip-path="url(#p1bffca34e9)">
     <use style="fill:#ff0000;stroke:#000000;stroke-width:2.0;" x="0.0" xlink:href="#C0_0_a811fe30f3" y="72.0"/>
    </g>
    <g clip-path="url(#p1bffca34e9)">
     <use style="fill:#ffffff;stroke:#000000;stroke-width:2.0;" x="0.0" xlink:href="#C0_1_6abae13abd" y="72.0"/>
    </g>
    <g clip-path="url(#p1bffca34e9)">
     <use style="fill:#ffffff;stroke:#000000;stroke-width:2.0;" x="0.0" xlink:href="#C0_2_1c751f0b5f" y="72.0"/>
    </g>
   </g>
  </g>
 </g>
 <defs>
  <clipPath id="p1bffca34e9">
   <rect height="72.0" width="72.0" x="0.0" y="0.0"/>
  </clipPath>
 </defs>
</svg>
