<?xml version="1.0" encoding="utf-8" standalone="no"?>
<!DOCTYPE svg PUBLIC "-//W3C//DTD SVG 1.1//EN"
  "http://www.w3.org/Graphics/SVG/1.1/DTD/svg11.dtd">
<!-- Created with matplotlib (http://matplotlib.org/) -->
<svg height="72pt" version="1.1" viewBox="0 0 72 72" width="72pt" xmlns="http://www.w3.org/2000/svg" xmlns:xlink="http://www.w3.org/1999/xlink">
 <defs>
  <style type="text/css">
*{stroke-linecap:butt;stroke-linejoin:round;}
  </style>
 </defs>
 <g id="figure_1">
  <g id="patch_1">
   <path d="
M0 72
L72 72
L72 0
L0 0
z
" style="fill:none;"/>
  </g>
  <g id="axes_1">
   <g id="PatchCollection_1">
    <defs>
     <path d="
M36 -7.5
C43.5583 -7.5 50.808 -10.5029 56.1525 -15.8475
C61.4971 -21.192 64.5 -28.4417 64.5 -36
C64.5 -43.5583 61.4971 -50.808 56.1525 -56.1525
C50.808 -61.4971 43.5583 -64.5 36 -64.5
C28.4417 -64.5 21.192 -61.4971 15.8475 -56.1525
C10.5029 -50.808 7.5 -43.5583 7.5 -36
C7.5 -28.4417 10.5029 -21.192 15.8475 -15.8475
C21.192 -10.5029 28.4417 -7.5 36 -7.5
z
" id="C0_0_a811fe30f3"/>
     <path d="
M32.1437 -7.98465
L32.1067 -8.22946
L32.0908 -8.47564
L32.0951 -8.72302
L32.1186 -8.97149
L32.1601 -9.22096
L32.2185 -9.47137
L32.2926 -9.72268
L32.3811 -9.97486
L32.4829 -10.2279
L32.5968 -10.4818
L32.7217 -10.7366
L32.8564 -10.9922
L32.9999 -11.2486
L33.1513 -11.5059
L33.3097 -11.7639
L33.4741 -12.0228
L33.6438 -12.2823
L33.818 -12.5426
L33.9961 -12.8035
L34.1775 -13.065
L34.3615 -13.327
L34.5478 -13.5895
L34.7357 -13.8524
L34.9249 -14.1156
L35.115 -14.3791
L35.3057 -14.6427
L35.4966 -14.9065
L35.6874 -15.1703
L35.878 -15.4341
L36.0681 -15.6978
L36.2574 -15.9613
L36.4459 -16.2246
L36.6333 -16.4876
L36.8195 -16.7503
L37.0045 -17.0126
L37.188 -17.2744
L37.3701 -17.5358
L37.5506 -17.7966
L37.7295 -18.0568
L37.9066 -18.3164
L38.0821 -18.5754
L38.2558 -18.8336
L38.4277 -19.0912
L38.5978 -19.3481
L38.766 -19.6043
L38.9325 -19.8596
L39.0971 -20.1143
L39.2598 -20.3681
L39.4207 -20.6212
L39.5798 -20.8735
L39.7371 -21.1251
L39.8926 -21.3758
L40.0464 -21.6258
L40.1983 -21.8751
L40.3486 -22.1236
L40.4971 -22.3714
L40.6439 -22.6185
L40.7891 -22.8648
L40.9326 -23.1105
L41.0746 -23.3556
L41.2149 -23.6
L41.3537 -23.8438
L41.491 -24.0871
L41.6269 -24.3297
L41.7612 -24.5719
L41.8942 -24.8136
L42.0257 -25.0548
L42.1559 -25.2955
L42.2847 -25.5359
L42.4123 -25.7759
L42.5386 -26.0156
L42.6636 -26.2551
L42.7874 -26.4942
L42.9101 -26.7332
L43.0316 -26.972
L43.152 -27.2106
L43.2713 -27.4492
L43.3895 -27.6877
L43.5067 -27.9262
L43.6228 -28.1647
L43.738 -28.4033
L43.8522 -28.642
L43.9655 -28.8809
L44.0779 -29.12
L44.1894 -29.3593
L44.3 -29.599
L44.5188 -29.8389
L44.627 -30.0793
L44.7344 -30.3201
L44.8411 -30.5614
L44.947 -30.8032
L45.0523 -31.0456
L45.1568 -31.2886
L45.2606 -31.5323
L45.3638 -31.7767
L45.4664 -32.0218
L45.5683 -32.2678
L45.6696 -32.5146
L45.7704 -32.7624
L45.8705 -33.0111
L45.9701 -33.2608
L46.0691 -33.5116
L46.1675 -33.7635
L46.2655 -34.0166
L46.3629 -34.2709
L46.4598 -34.5264
L46.5562 -34.7832
L46.6521 -35.0414
L46.7475 -35.301
L46.8424 -35.562
L46.9369 -35.8245
L47.0309 -36.0886
L47.1244 -36.3543
L47.2174 -36.6216
L47.31 -36.8905
L47.4022 -37.1612
L47.4938 -37.4337
L47.5851 -37.7079
L47.6758 -37.984
L47.7661 -38.262
L47.856 -38.5418
L47.9454 -38.8237
L48.0344 -39.1075
L48.1228 -39.3933
L48.2109 -39.6811
L48.2984 -39.971
L48.3855 -40.263
L48.4721 -40.557
L48.5582 -40.8532
L48.6439 -41.1514
L48.7291 -41.4517
L48.8138 -41.7542
L48.898 -42.0587
L48.9818 -42.3653
L49.065 -42.6739
L49.1478 -42.9846
L49.2302 -43.2972
L49.3121 -43.6118
L49.3936 -43.9282
L49.4747 -44.2465
L49.5554 -44.5664
L49.6357 -44.888
L49.7157 -45.2111
L49.7955 -45.5357
L49.875 -45.8615
L49.9544 -46.1884
L50.0338 -46.5163
L50.1131 -46.845
L50.1926 -47.1743
L50.2723 -47.5039
L50.3524 -47.8336
L50.4331 -48.1632
L50.5145 -48.4923
L50.5968 -48.8206
L50.6803 -49.1478
L50.7653 -49.4735
L50.8519 -49.7972
L50.9406 -50.1186
L51.0318 -50.4372
L51.1258 -50.7524
L51.223 -51.0636
L51.324 -51.3704
L51.4293 -51.6719
L51.5394 -51.9677
L51.6549 -52.257
L51.7765 -52.539
L51.9047 -52.8129
L52.0404 -53.078
L52.1841 -53.3335
L52.3365 -53.5784
L52.4982 -53.812
L52.67 -54.0333
L52.8524 -54.2416
L53.0458 -54.436
L53.2507 -54.6157
L53.4675 -54.7801
L53.6963 -54.9284
L53.9372 -55.0601
L54.1901 -55.1747
L54.455 -55.2717
L54.7316 -55.3508
L55.0194 -55.4118
L55.3179 -55.4545
L55.6265 -55.4788
L55.9446 -55.4849
L56.2714 -55.4727
L56.606 -55.4424
L57.0913 -55.3942
L57.4226 -55.1679
L57.7474 -54.7969
L58.0656 -54.4201
L58.377 -54.0378
L58.6816 -53.6499
L58.9793 -53.2567
L59.2701 -52.8582
L59.5537 -52.4546
L59.8301 -52.046
L60.0993 -51.6325
L60.3612 -51.2142
L60.6156 -50.7913
L60.8626 -50.3639
L61.1019 -49.9321
L61.3336 -49.4961
L61.5576 -49.0559
L61.7738 -48.6118
L61.9822 -48.1638
L62.1827 -47.7122
L62.3751 -47.2569
L62.5596 -46.7983
L62.7359 -46.3363
L62.9041 -45.8712
L63.0641 -45.4031
L63.2159 -44.9321
L63.3594 -44.4584
L63.4945 -43.9822
L63.6213 -43.5035
L63.7396 -43.0225
L63.8495 -42.5393
L63.951 -42.0542
L64.0439 -41.5673
L64.1282 -41.0786
L64.204 -40.5884
L64.2712 -40.0968
L64.3298 -39.6039
L64.3798 -39.11
L64.4211 -38.6151
L64.4537 -38.1194
L64.4777 -37.6231
L64.4931 -37.1262
L64.4997 -36.629
L64.4977 -36.1317
L64.4869 -35.6343
L64.4675 -35.137
L64.4395 -34.6399
L64.4027 -34.1433
L64.3573 -33.6473
L64.3033 -33.1519
L64.2407 -32.6575
L64.1694 -32.164
L64.0896 -31.6717
L64.0012 -31.1808
L63.9043 -30.6913
L63.7989 -30.2034
L63.685 -29.7173
L63.5627 -29.2331
L63.432 -28.7509
L63.2929 -28.271
L63.1455 -27.7934
L62.9899 -27.3183
L62.826 -26.8459
L62.6539 -26.3763
L62.4738 -25.9096
L62.2856 -25.4459
L62.0893 -24.9855
L61.8851 -24.5284
L61.6731 -24.0749
L61.4532 -23.6249
L61.2256 -23.1787
L60.9902 -22.7365
L60.7473 -22.2982
L60.4968 -21.8642
L60.2389 -21.4344
L59.9736 -21.0091
L59.701 -20.5884
L59.4211 -20.1723
L59.1341 -19.7611
L58.8401 -19.3548
L58.5391 -18.9536
L58.2313 -18.5576
L57.9167 -18.1669
L57.5954 -17.7816
L57.2675 -17.4019
L56.9332 -17.0278
L56.5924 -16.6596
L56.2454 -16.2972
L55.8923 -15.9408
L55.5331 -15.5905
L55.1679 -15.2464
L54.7969 -14.9087
L54.4201 -14.5774
L54.0378 -14.2526
L53.6499 -13.9344
L53.2567 -13.623
L52.8582 -13.3184
L52.4546 -13.0207
L52.046 -12.7299
L51.6325 -12.4463
L51.2142 -12.1699
L50.7913 -11.9007
L50.3639 -11.6388
L49.9321 -11.3844
L49.4961 -11.1374
L49.0559 -10.8981
L48.6118 -10.6664
L48.1638 -10.4424
L47.7122 -10.2262
L47.2569 -10.0178
L46.7983 -9.81734
L46.3363 -9.62487
L45.8712 -9.44043
L45.4031 -9.26408
L44.9321 -9.09588
L44.4584 -8.93587
L43.9822 -8.7841
L43.5035 -8.64063
L43.0225 -8.50549
L42.5393 -8.37872
L42.0542 -8.26037
L41.5673 -8.15047
L41.0786 -8.04905
L40.5884 -7.95614
L40.0968 -7.87178
L39.6039 -7.79599
L39.11 -7.72878
L38.6151 -7.67019
L38.1194 -7.62023
L37.6231 -7.57891
L37.1262 -7.54625
L36.629 -7.52226
L36.1317 -7.50694
L35.6343 -7.5003
L35.137 -7.50235
L34.6399 -7.51307
L34.1433 -7.53247
L33.6473 -7.56054
L33.1519 -7.59728
L32.6575 -7.64266
z
" id="C0_1_f971ba4293"/>
     <path d="
M15.0561 -16.6751
L15.0074 -17.0285
L14.955 -17.3887
L14.8997 -17.755
L14.8423 -18.1266
L14.7838 -18.5031
L14.7246 -18.8837
L14.6656 -19.2679
L14.6073 -19.655
L14.5503 -20.0447
L14.4949 -20.4364
L14.4415 -20.8296
L14.3906 -21.224
L14.3425 -21.619
L14.2973 -22.0143
L14.2553 -22.4097
L14.2167 -22.8046
L14.1816 -23.199
L14.1501 -23.5924
L14.1223 -23.9846
L14.0983 -24.3754
L14.0782 -24.7646
L14.0619 -25.152
L14.0494 -25.5375
L14.0407 -25.9208
L14.0359 -26.3019
L14.0349 -26.6805
L14.0376 -27.0567
L14.044 -27.4304
L14.054 -27.8013
L14.0677 -28.1696
L14.0848 -28.535
L14.1054 -28.8977
L14.1294 -29.2575
L14.1567 -29.6143
L14.1873 -29.9683
L14.221 -30.3194
L14.2578 -30.6675
L14.2977 -31.0127
L14.3405 -31.355
L14.3862 -31.6943
L14.4347 -32.0308
L14.486 -32.3645
L14.54 -32.6953
L14.5967 -33.0233
L14.6559 -33.3485
L14.7176 -33.671
L14.7818 -33.9907
L14.8484 -34.3079
L14.9174 -34.6224
L14.9887 -34.9344
L15.0622 -35.2438
L15.138 -35.5508
L15.216 -35.8554
L15.2961 -36.1576
L15.3784 -36.4575
L15.4627 -36.7551
L15.5491 -37.0506
L15.6376 -37.3439
L15.728 -37.6351
L15.8204 -37.9243
L15.9148 -38.2114
L16.0112 -38.4967
L16.1094 -38.7801
L16.2096 -39.0617
L16.3118 -39.3415
L16.4158 -39.6196
L16.5217 -39.896
L16.6295 -40.1709
L16.7392 -40.4442
L16.8508 -40.7161
L16.9644 -40.9865
L17.0798 -41.2555
L17.1971 -41.5232
L17.3163 -41.7896
L17.4375 -42.0547
L17.5606 -42.3187
L17.6857 -42.5816
L17.8127 -42.8434
L17.9417 -43.1041
L18.0728 -43.3639
L18.2059 -43.6227
L18.341 -43.8806
L18.4782 -44.1377
L18.6175 -44.3939
L18.759 -44.6494
L18.9026 -44.9042
L19.0484 -45.1582
L19.1965 -45.4116
L19.3468 -45.6645
L19.4995 -45.9167
L19.6545 -46.1684
L19.8118 -46.4196
L19.9717 -46.6703
L20.1339 -46.9206
L20.2987 -47.1704
L20.4661 -47.4199
L20.6361 -47.669
L20.8087 -47.9178
L20.984 -48.1663
L21.1621 -48.4146
L21.343 -48.6625
L21.5268 -48.9102
L21.7136 -49.1577
L21.9032 -49.4049
L22.096 -49.652
L22.2918 -49.8989
L22.4908 -50.1455
L22.693 -50.3921
L22.8985 -50.6384
L23.1073 -50.8845
L23.3195 -51.1305
L23.5351 -51.3763
L23.7543 -51.6219
L23.977 -51.8673
L24.2033 -52.1125
L24.4334 -52.3574
L24.6671 -52.6021
L24.9047 -52.8465
L25.1461 -53.0906
L25.3914 -53.3344
L25.6406 -53.5778
L25.8938 -53.8207
L26.151 -54.0632
L26.4123 -54.3053
L26.6776 -54.5467
L26.947 -54.7876
L27.2205 -55.0278
L27.4981 -55.2672
L27.7799 -55.5059
L28.0657 -55.7437
L28.3556 -55.9806
L28.6495 -56.2165
L28.9474 -56.4513
L29.2492 -56.685
L29.5548 -56.9174
L29.8642 -57.1486
L30.1773 -57.3783
L30.4938 -57.6065
L30.8136 -57.8332
L31.1366 -58.0583
L31.4625 -58.2817
L31.791 -58.5034
L32.122 -58.7232
L32.4551 -58.9412
L32.7899 -59.1572
L33.1262 -59.3713
L33.4633 -59.5835
L33.8009 -59.7938
L34.1385 -60.0021
L34.4754 -60.2086
L34.8112 -60.4132
L35.145 -60.6162
L35.4761 -60.8175
L35.8039 -61.0174
L36.1273 -61.216
L36.4456 -61.4135
L36.7578 -61.6103
L37.063 -61.8064
L37.36 -62.0023
L37.6478 -62.1983
L37.9254 -62.3946
L38.1917 -62.5917
L38.4455 -62.7899
L38.6859 -62.9895
L38.9118 -63.1909
L39.1222 -63.3944
L39.3164 -63.6002
L39.4935 -63.8086
L39.6528 -64.0197
L39.302 -64.2337
L38.8075 -64.3081
L38.312 -64.3614
L37.8159 -64.4061
L37.3193 -64.4421
L36.8222 -64.4694
L36.3249 -64.4881
L35.8275 -64.4981
L35.3301 -64.4995
L34.833 -64.4921
L34.3362 -64.4761
L33.8399 -64.4514
L33.3443 -64.418
L32.8494 -64.376
L32.3556 -64.3253
L31.8628 -64.266
L31.3713 -64.1981
L30.8812 -64.1216
L30.3927 -64.0366
L29.9059 -63.9429
L29.4209 -63.8408
L28.938 -63.7302
L28.4572 -63.6112
L27.9787 -63.4837
L27.5026 -63.3479
L27.0291 -63.2038
L26.5584 -63.0513
L26.0905 -62.8906
L25.6257 -62.7218
L25.164 -62.5447
L24.7056 -62.3596
L24.2506 -62.1665
L23.7993 -61.9654
L23.3516 -61.7564
L22.9078 -61.5395
L22.468 -61.3149
L22.0323 -61.0826
L21.6009 -60.8426
L21.1738 -60.595
L20.7513 -60.34
L20.3334 -60.0775
L19.9203 -59.8077
L19.5121 -59.5307
L19.1089 -59.2465
L18.7108 -58.9552
L18.318 -58.6569
L17.9306 -58.3517
L17.5487 -58.0397
L17.1725 -57.721
L16.8019 -57.3957
L16.4372 -57.0638
L16.0785 -56.7256
L15.7258 -56.381
L15.3794 -56.0302
L15.0392 -55.6733
L14.7053 -55.3104
L14.378 -54.9417
L14.0573 -54.5672
L13.7432 -54.187
L13.4359 -53.8012
L13.1355 -53.4101
L12.842 -53.0136
L12.5557 -52.612
L12.2764 -52.2053
L12.0044 -51.7937
L11.7397 -51.3773
L11.4823 -50.9561
L11.2325 -50.5305
L10.9902 -50.1003
L10.7555 -49.6659
L10.5285 -49.2274
L10.3092 -48.7848
L10.0978 -48.3383
L9.89427 -47.8881
L9.69869 -47.4342
L9.51112 -46.9768
L9.33163 -46.5162
L9.16025 -46.0523
L8.99705 -45.5853
L8.84208 -45.1154
L8.69538 -44.6428
L8.557 -44.1675
L8.42697 -43.6897
L8.30535 -43.2096
L8.19216 -42.7273
L8.08744 -42.2429
L7.99122 -41.7566
L7.90354 -41.2686
L7.82441 -40.779
L7.75387 -40.2879
L7.69193 -39.7955
L7.63861 -39.302
L7.59394 -38.8075
L7.55791 -38.312
L7.53055 -37.8159
L7.51186 -37.3193
L7.50185 -36.8222
L7.50052 -36.3249
L7.50787 -35.8275
L7.5239 -35.3301
L7.54861 -34.833
L7.58198 -34.3362
L7.62401 -33.8399
L7.67468 -33.3443
L7.73398 -32.8494
L7.80188 -32.3556
L7.87838 -31.8628
L7.96345 -31.3713
L8.05705 -30.8812
L8.15917 -30.3927
L8.26977 -29.9059
L8.38881 -29.4209
L8.51626 -28.938
L8.65209 -28.4572
L8.79625 -27.9787
L8.94869 -27.5026
L9.10937 -27.0291
L9.27825 -26.5584
L9.45526 -26.0905
L9.64036 -25.6257
L9.83349 -25.164
L10.0346 -24.7056
L10.2436 -24.2506
L10.4605 -23.7993
L10.6851 -23.3516
L10.9174 -22.9078
L11.1574 -22.468
L11.405 -22.0323
L11.66 -21.6009
L11.9225 -21.1738
L12.1923 -20.7513
L12.4693 -20.3334
L12.7535 -19.9203
L13.0448 -19.5121
L13.3431 -19.1089
L13.6483 -18.7108
L13.9603 -18.318
L14.279 -17.9306
L14.6043 -17.5487
z
" id="C0_2_9be716fb6a"/>
    </defs>
    <g clip-path="url(#p1bffca34e9)">
     <use style="fill:#ff0000;stroke:#000000;stroke-width:2.0;" x="0.0" xlink:href="#C0_0_a811fe30f3" y="72.0"/>
    </g>
    <g clip-path="url(#p1bffca34e9)">
     <use style="fill:#ffffff;stroke:#000000;stroke-width:2.0;" x="0.0" xlink:href="#C0_1_f971ba4293" y="72.0"/>
    </g>
    <g clip-path="url(#p1bffca34e9)">
     <use style="fill:#ffffff;stroke:#000000;stroke-width:2.0;" x="0.0" xlink:href="#C0_2_9be716fb6a" y="72.0"/>
    </g>
   </g>
  </g>
 </g>
 <defs>
  <clipPath id="p1bffca34e9">
   <rect height="72.0" width="72.0" x="0.0" y="0.0"/>
  </clipPath>
 </defs>
</svg>
