<?xml version="1.0" encoding="utf-8" standalone="no"?>
<!DOCTYPE svg PUBLIC "-//W3C//DTD SVG 1.1//EN"
  "http://www.w3.org/Graphics/SVG/1.1/DTD/svg11.dtd">
<!-- Created with matplotlib (http://matplotlib.org/) -->
<svg height="72pt" version="1.1" viewBox="0 0 72 72" width="72pt" xmlns="http://www.w3.org/2000/svg" xmlns:xlink="http://www.w3.org/1999/xlink">
 <defs>
  <style type="text/css">
*{stroke-linecap:butt;stroke-linejoin:round;}
  </style>
 </defs>
 <g id="figure_1">
  <g id="patch_1">
   <path d="
M0 72
L72 72
L72 0
L0 0
z
" style="fill:none;"/>
  </g>
  <g id="axes_1">
   <g id="PatchCollection_1">
    <defs>
     <path d="
M36 -7.5
C43.5583 -7.5 50.808 -10.5029 56.1525 -15.8475
C61.4971 -21.192 64.5 -28.4417 64.5 -36
C64.5 -43.5583 61.4971 -50.808 56.1525 -56.1525
C50.808 -61.4971 43.5583 -64.5 36 -64.5
C28.4417 -64.5 21.192 -61.4971 15.8475 -56.1525
C10.5029 -50.808 7.5 -43.5583 7.5 -36
C7.5 -28.4417 10.5029 -21.192 15.8475 -15.8475
C21.192 -10.5029 28.4417 -7.5 36 -7.5
z
" id="C0_0_a811fe30f3"/>
     <path d="
M60.0268 -20.7597
L59.8785 -20.9015
L59.73 -21.0429
L59.5813 -21.184
L59.4324 -21.3247
L59.2834 -21.4651
L59.1341 -21.6051
L58.9847 -21.7449
L58.835 -21.8844
L58.6851 -22.0236
L58.535 -22.1625
L58.3845 -22.3013
L58.2338 -22.4398
L58.0828 -22.5782
L57.9315 -22.7163
L57.7799 -22.8544
L57.6278 -22.9923
L57.4754 -23.1302
L57.3226 -23.2679
L57.1694 -23.4057
L57.0157 -23.5434
L56.8615 -23.6812
L56.7068 -23.819
L56.5516 -23.9568
L56.3958 -24.0948
L56.2395 -24.2329
L56.0825 -24.3712
L55.9248 -24.5096
L55.7665 -24.6483
L55.6074 -24.7872
L55.287 -24.9264
L55.1256 -25.066
L54.9633 -25.2059
L54.8001 -25.3461
L54.636 -25.4868
L54.4709 -25.6279
L54.3048 -25.7695
L54.1376 -25.9117
L53.9694 -26.0543
L53.8 -26.1976
L53.6294 -26.3415
L53.4576 -26.4861
L53.2846 -26.6313
L53.1102 -26.7773
L52.9345 -26.924
L52.7574 -27.0716
L52.5789 -27.22
L52.3988 -27.3693
L52.2172 -27.5196
L52.0341 -27.6708
L51.8493 -27.823
L51.6627 -27.9762
L51.4745 -28.1305
L51.2845 -28.286
L51.0926 -28.4426
L50.8988 -28.6005
L50.7031 -28.7596
L50.5054 -28.92
L50.3056 -29.0817
L50.1037 -29.2449
L49.8997 -29.4094
L49.6935 -29.5755
L49.485 -29.743
L49.2742 -29.9121
L49.0611 -30.0829
L48.8455 -30.2552
L48.6275 -30.4293
L48.4069 -30.6051
L48.1838 -30.7827
L47.9582 -30.9621
L47.7298 -31.1434
L47.4988 -31.3266
L47.2651 -31.5117
L47.0286 -31.6989
L46.7894 -31.8881
L46.5473 -32.0794
L46.3024 -32.2728
L46.0546 -32.4683
L45.804 -32.6661
L45.5505 -32.8661
L45.2942 -33.0684
L45.0349 -33.2729
L44.7729 -33.4799
L44.508 -33.6891
L44.2404 -33.9008
L43.97 -34.115
L43.697 -34.3315
L43.4213 -34.5506
L43.1432 -34.7721
L42.8627 -34.9962
L42.5799 -35.2228
L42.2951 -35.452
L42.0083 -35.6837
L41.7197 -35.9181
L41.4297 -36.155
L41.1384 -36.3945
L40.8461 -36.6367
L40.5532 -36.8815
L40.2601 -37.1289
L39.9671 -37.379
L39.6747 -37.6318
L39.3835 -37.8872
L39.094 -38.1454
L38.8069 -38.4064
L38.5228 -38.6701
L38.2427 -38.9367
L37.9673 -39.2061
L37.6977 -39.4785
L37.4348 -39.754
L37.1798 -40.0327
L36.934 -40.3146
L36.6987 -40.5998
L36.4751 -40.8886
L36.2648 -41.1811
L36.0692 -41.4774
L35.8897 -41.7777
L35.7276 -42.082
L35.5841 -42.3906
L35.4605 -42.7034
L35.3574 -43.0206
L35.2755 -43.3419
L35.2152 -43.6674
L35.1764 -43.9968
L35.1588 -44.3299
L35.1619 -44.6662
L35.185 -45.0054
L35.227 -45.347
L35.2868 -45.6904
L35.3633 -46.0351
L35.4552 -46.3805
L35.5613 -46.7262
L35.6803 -47.0714
L35.8111 -47.4159
L35.9526 -47.7589
L36.1037 -48.1002
L36.2634 -48.4391
L36.4309 -48.7755
L36.6053 -49.1089
L36.7859 -49.4389
L36.972 -49.7654
L37.1629 -50.088
L37.358 -50.4065
L37.557 -50.7208
L37.7592 -51.0306
L37.9642 -51.3358
L38.1717 -51.6363
L38.3814 -51.932
L38.5928 -52.2228
L38.8057 -52.5086
L39.0199 -52.7894
L39.2351 -53.0651
L39.451 -53.3358
L39.6676 -53.6013
L39.8846 -53.8618
L40.1018 -54.1172
L40.3192 -54.3676
L40.5366 -54.6129
L40.7539 -54.8532
L40.971 -55.0886
L41.1879 -55.3191
L41.4043 -55.5448
L41.6203 -55.7656
L41.8359 -55.9817
L42.0509 -56.1932
L42.2653 -56.4
L42.4792 -56.6024
L42.6924 -56.8002
L42.9049 -56.9937
L43.1168 -57.1829
L43.328 -57.3678
L43.5385 -57.5485
L43.7484 -57.7251
L43.9575 -57.8978
L44.166 -58.0664
L44.3738 -58.2312
L44.581 -58.3922
L44.7875 -58.5494
L44.9934 -58.7029
L45.1987 -58.8529
L45.4035 -58.9993
L45.6077 -59.1422
L45.8114 -59.2817
L46.0147 -59.4178
L46.2175 -59.5506
L46.4199 -59.6802
L46.6219 -59.8066
L46.8235 -59.9298
L47.0249 -60.0499
L47.226 -60.167
L47.427 -60.2811
L47.6277 -60.3922
L47.8283 -60.5004
L48.0288 -60.6057
L48.2293 -60.7082
L48.4299 -60.8078
L48.6304 -60.9046
L48.8311 -60.9987
L49.032 -61.09
L49.5401 -61.1785
L49.9757 -61.0782
L50.4071 -60.838
L50.8341 -60.5904
L51.2565 -60.3352
L51.6743 -60.0726
L52.0873 -59.8026
L52.4955 -59.5255
L52.8986 -59.2411
L53.2965 -58.9497
L53.6892 -58.6513
L54.0765 -58.346
L54.4583 -58.0338
L54.8345 -57.715
L55.2049 -57.3896
L55.5695 -57.0576
L55.9281 -56.7192
L56.2806 -56.3745
L56.627 -56.0236
L56.9671 -55.6666
L57.3008 -55.3036
L57.628 -54.9348
L57.9486 -54.5601
L58.2626 -54.1799
L58.5697 -53.794
L58.87 -53.4028
L59.1633 -53.0062
L59.4496 -52.6045
L59.7287 -52.1977
L60.0006 -51.786
L60.2652 -51.3695
L60.5224 -50.9483
L60.7721 -50.5225
L61.0143 -50.0923
L61.2488 -49.6578
L61.4757 -49.2192
L61.6948 -48.7765
L61.9061 -48.33
L62.1094 -47.8797
L62.3049 -47.4257
L62.4923 -46.9683
L62.6716 -46.5076
L62.8429 -46.0436
L63.0059 -45.5766
L63.1607 -45.1067
L63.3073 -44.634
L63.4455 -44.1586
L63.5754 -43.6808
L63.6968 -43.2007
L63.8099 -42.7183
L63.9144 -42.2339
L64.0105 -41.7476
L64.098 -41.2596
L64.177 -40.7699
L64.2474 -40.2788
L64.3091 -39.7864
L64.3623 -39.2928
L64.4068 -38.7983
L64.4427 -38.3028
L64.4699 -37.8067
L64.4884 -37.3101
L64.4983 -36.813
L64.4994 -36.3157
L64.4919 -35.8183
L64.4757 -35.3209
L64.4509 -34.8238
L64.4173 -34.327
L64.3751 -33.8307
L64.3243 -33.3351
L64.2648 -32.8403
L64.1968 -32.3464
L64.1201 -31.8537
L64.0349 -31.3622
L63.9411 -30.8722
L63.8389 -30.3837
L63.7281 -29.8969
L63.6089 -29.412
L63.4813 -28.929
L63.3453 -28.4483
L63.201 -27.9698
L63.0484 -27.4938
L62.8876 -27.0204
L62.7185 -26.5497
L62.5414 -26.0819
L62.3561 -25.6171
L62.1628 -25.1554
L61.9616 -24.6971
L61.7524 -24.2422
L61.5354 -23.7909
L61.3107 -23.3433
L61.0782 -22.8996
L60.838 -22.4599
L60.5904 -22.0243
L60.3352 -21.5929
z
" id="C0_1_0c295039e1"/>
     <path d="
M22.7857 -10.7715
L22.7419 -10.9852
L22.7002 -11.1991
L22.6604 -11.4131
L22.6226 -11.6275
L22.5867 -11.8421
L22.5526 -12.0571
L22.5204 -12.2724
L22.4899 -12.4882
L22.4612 -12.7045
L22.4343 -12.9212
L22.409 -13.1386
L22.3854 -13.3565
L22.3635 -13.5751
L22.3432 -13.7945
L22.3245 -14.0146
L22.3074 -14.2355
L22.2919 -14.4573
L22.2779 -14.6801
L22.2655 -14.9038
L22.2547 -15.1285
L22.2454 -15.3543
L22.2376 -15.5813
L22.2313 -15.8095
L22.2265 -16.0389
L22.2233 -16.2697
L22.2216 -16.5018
L22.2214 -16.7354
L22.2227 -16.9704
L22.2255 -17.2071
L22.2299 -17.4453
L22.2358 -17.6852
L22.2433 -17.9269
L22.2523 -18.1704
L22.2629 -18.4157
L22.2751 -18.663
L22.2889 -18.9123
L22.3043 -19.1636
L22.3213 -19.4171
L22.3399 -19.6728
L22.3603 -19.9307
L22.3823 -20.191
L22.406 -20.4536
L22.4315 -20.7187
L22.4587 -20.9864
L22.4876 -21.2566
L22.5184 -21.5295
L22.551 -21.8052
L22.5855 -22.0836
L22.6219 -22.3648
L22.6601 -22.649
L22.7003 -22.9361
L22.7425 -23.2263
L22.7866 -23.5196
L22.8328 -23.816
L22.881 -24.1156
L22.9312 -24.4185
L22.9836 -24.7246
L23.038 -25.0341
L23.0946 -25.347
L23.1534 -25.6632
L23.2143 -25.983
L23.2773 -26.3061
L23.3426 -26.6328
L23.41 -26.963
L23.4796 -27.2967
L23.5514 -27.6339
L23.6253 -27.9746
L23.7014 -28.3188
L23.7795 -28.6665
L23.8596 -29.0175
L23.9418 -29.372
L24.0258 -29.7297
L24.1117 -30.0907
L24.1992 -30.4549
L24.2884 -30.8221
L24.3789 -31.1923
L24.4707 -31.5653
L24.5636 -31.9409
L24.6572 -32.319
L24.7514 -32.6994
L24.8458 -33.082
L24.9401 -33.4663
L25.0338 -33.8523
L25.1264 -34.2396
L25.2176 -34.6279
L25.3065 -35.0169
L25.3927 -35.4061
L25.4753 -35.7953
L25.5535 -36.184
L25.6264 -36.5717
L25.6929 -36.9579
L25.7521 -37.3422
L25.8027 -37.724
L25.8434 -38.1026
L25.8731 -38.4776
L25.8904 -38.8484
L25.894 -39.2144
L25.8828 -39.575
L25.8555 -39.9298
L25.8112 -40.2782
L25.7492 -40.6198
L25.6691 -40.9544
L25.5706 -41.2816
L25.4537 -41.6014
L25.3189 -41.9136
L25.1668 -42.2183
L24.9983 -42.5155
L24.8144 -42.8054
L24.6162 -43.0881
L24.4051 -43.3638
L24.1823 -43.6328
L23.9491 -43.8953
L23.7067 -44.1514
L23.4564 -44.4014
L23.1992 -44.6454
L22.9362 -44.8838
L22.6684 -45.1165
L22.3967 -45.3439
L22.122 -45.5659
L21.8448 -45.7828
L21.566 -45.9947
L21.286 -46.2017
L21.0055 -46.4039
L20.7249 -46.6014
L20.4447 -46.7942
L20.1652 -46.9825
L19.8867 -47.1664
L19.6096 -47.346
L19.3341 -47.5212
L19.0605 -47.6922
L18.7889 -47.8591
L18.5195 -48.022
L18.2525 -48.1809
L17.988 -48.3358
L17.726 -48.487
L17.4668 -48.6343
L17.2103 -48.778
L16.9566 -48.9181
L16.7058 -49.0546
L16.4578 -49.1876
L16.2127 -49.3172
L15.9706 -49.4435
L15.7314 -49.5665
L15.4951 -49.6863
L15.2617 -49.803
L15.0311 -49.9166
L14.8035 -50.0271
L14.5786 -50.1347
L14.3565 -50.2395
L14.1372 -50.3413
L13.9207 -50.4405
L13.7067 -50.5369
L13.4954 -50.6306
L13.2867 -50.7218
L13.0805 -50.8103
L12.8768 -50.8964
L12.6755 -50.9801
L12.4765 -51.0613
L12.2799 -51.1401
L11.6915 -51.2167
L11.4356 -50.8778
L11.1871 -50.4513
L10.9462 -50.0204
L10.7129 -49.5852
L10.4874 -49.1459
L10.2696 -48.7026
L10.0596 -48.2554
L9.85752 -47.8044
L9.66342 -47.3499
L9.47734 -46.892
L9.29934 -46.4307
L9.12947 -45.9662
L8.96779 -45.4987
L8.81434 -45.0283
L8.66918 -44.5551
L8.53233 -44.0794
L8.40386 -43.6011
L8.28379 -43.1206
L8.17217 -42.6379
L8.06902 -42.1532
L7.97437 -41.6666
L7.88827 -41.1783
L7.81073 -40.6883
L7.74177 -40.197
L7.68143 -39.7044
L7.62971 -39.2107
L7.58663 -38.716
L7.5522 -38.2204
L7.52644 -37.7242
L7.50936 -37.2274
L7.50095 -36.7303
L7.50123 -36.233
L7.51018 -35.7356
L7.52782 -35.2382
L7.55412 -34.7411
L7.58909 -34.2444
L7.63272 -33.7482
L7.68499 -33.2527
L7.74588 -32.7581
L7.81538 -32.2644
L7.89346 -31.7719
L7.9801 -31.2806
L8.07528 -30.7908
L8.17897 -30.3026
L8.29113 -29.8161
L8.41173 -29.3315
L8.54074 -28.8489
L8.67811 -28.3686
L8.8238 -27.8905
L8.97777 -27.4149
L9.13997 -26.9419
L9.31035 -26.4717
L9.48887 -26.0044
L9.67545 -25.5401
L9.87006 -25.079
L10.0726 -24.6212
L10.2831 -24.1669
L10.5014 -23.7162
L10.7275 -23.2693
L10.9612 -22.8262
L11.2026 -22.3872
L11.4516 -21.9522
L11.708 -21.5216
L11.9718 -21.0954
L12.2429 -20.6737
L12.5213 -20.2567
L12.8068 -19.8445
L13.0994 -19.4372
L13.399 -19.0349
L13.7055 -18.6378
L14.0187 -18.246
L14.3386 -17.8596
L14.6652 -17.4788
L14.9982 -17.1036
L15.3377 -16.7341
L15.6834 -16.3705
L16.0353 -16.0129
L16.3933 -15.6613
L16.7573 -15.316
L17.1271 -14.977
L17.5027 -14.6443
L17.8839 -14.3182
L18.2706 -13.9987
L18.6628 -13.6859
L19.0602 -13.3799
L19.4628 -13.0807
L19.8704 -12.7886
L20.2829 -12.5035
L20.7002 -12.2256
L21.1222 -11.9549
L21.5487 -11.6915
L21.9796 -11.4356
z
" id="C0_2_ca34a2686f"/>
    </defs>
    <g clip-path="url(#p1bffca34e9)">
     <use style="fill:#ffffff;stroke:#000000;stroke-width:2.0;" x="0.0" xlink:href="#C0_0_a811fe30f3" y="72.0"/>
    </g>
    <g clip-path="url(#p1bffca34e9)">
     <use style="fill:#ff0000;stroke:#000000;stroke-width:2.0;" x="0.0" xlink:href="#C0_1_0c295039e1" y="72.0"/>
    </g>
    <g clip-path="url(#p1bffca34e9)">
     <use style="fill:#ff0000;stroke:#000000;stroke-width:2.0;" x="0.0" xlink:href="#C0_2_ca34a2686f" y="72.0"/>
    </g>
   </g>
  </g>
 </g>
 <defs>
  <clipPath id="p1bffca34e9">
   <rect height="72.0" width="72.0" x="0.0" y="0.0"/>
  </clipPath>
 </defs>
</svg>
