<?xml version="1.0" encoding="utf-8" standalone="no"?>
<!DOCTYPE svg PUBLIC "-//W3C//DTD SVG 1.1//EN"
  "http://www.w3.org/Graphics/SVG/1.1/DTD/svg11.dtd">
<!-- Created with matplotlib (http://matplotlib.org/) -->
<svg height="72pt" version="1.1" viewBox="0 0 72 72" width="72pt" xmlns="http://www.w3.org/2000/svg" xmlns:xlink="http://www.w3.org/1999/xlink">
 <defs>
  <style type="text/css">
*{stroke-linecap:butt;stroke-linejoin:round;}
  </style>
 </defs>
 <g id="figure_1">
  <g id="patch_1">
   <path d="
M0 72
L72 72
L72 0
L0 0
z
" style="fill:none;"/>
  </g>
  <g id="axes_1">
   <g id="PatchCollection_1">
    <defs>
     <path d="
M36 -7.5
C43.5583 -7.5 50.808 -10.5029 56.1525 -15.8475
C61.4971 -21.192 64.5 -28.4417 64.5 -36
C64.5 -43.5583 61.4971 -50.808 56.1525 -56.1525
C50.808 -61.4971 43.5583 -64.5 36 -64.5
C28.4417 -64.5 21.192 -61.4971 15.8475 -56.1525
C10.5029 -50.808 7.5 -43.5583 7.5 -36
C7.5 -28.4417 10.5029 -21.192 15.8475 -15.8475
C21.192 -10.5029 28.4417 -7.5 36 -7.5
z
" id="C0_0_a811fe30f3"/>
     <path d="
M39.6617 -64.1377
L39.8745 -63.8794
L40.0543 -63.6079
L40.2047 -63.3249
L40.3291 -63.0319
L40.4309 -62.7303
L40.5131 -62.4214
L40.5784 -62.1062
L40.629 -61.7857
L40.6671 -61.4607
L40.6942 -61.1319
L40.7119 -60.8
L40.7213 -60.4656
L40.7236 -60.129
L40.7196 -59.7909
L40.7101 -59.4516
L40.6958 -59.1115
L40.6772 -58.7709
L40.6548 -58.4301
L40.6291 -58.0894
L40.6003 -57.7491
L40.569 -57.4093
L40.5353 -57.0703
L40.4995 -56.7324
L40.4618 -56.3956
L40.4225 -56.0601
L40.3816 -55.7261
L40.3395 -55.3937
L40.2961 -55.063
L40.2518 -54.7341
L40.2064 -54.4071
L40.1603 -54.0821
L40.1134 -53.7592
L40.0659 -53.4384
L40.0178 -53.1198
L39.9693 -52.8034
L39.9202 -52.4892
L39.8708 -52.1773
L39.8211 -51.8676
L39.7711 -51.5603
L39.7209 -51.2552
L39.6705 -50.9525
L39.6199 -50.652
L39.5691 -50.3538
L39.5183 -50.0579
L39.4674 -49.7642
L39.4164 -49.4727
L39.3653 -49.1833
L39.3143 -48.8962
L39.2632 -48.6111
L39.2121 -48.3281
L39.161 -48.0472
L39.11 -47.7682
L39.0589 -47.4912
L39.0079 -47.216
L38.9569 -46.9428
L38.906 -46.6713
L38.8551 -46.4015
L38.8043 -46.1335
L38.7535 -45.8671
L38.7027 -45.6023
L38.6519 -45.339
L38.6012 -45.0772
L38.5506 -44.8168
L38.4999 -44.5578
L38.4493 -44.3
L38.3987 -44.0435
L38.3482 -43.7882
L38.2976 -43.5341
L38.247 -43.2809
L38.1965 -43.0288
L38.1459 -42.7777
L38.0953 -42.5274
L38.0447 -42.2779
L37.994 -42.0293
L37.9433 -41.7813
L37.8925 -41.534
L37.8417 -41.2872
L37.7908 -41.041
L37.7398 -40.7952
L37.6887 -40.5499
L37.6375 -40.3049
L37.5862 -40.0602
L37.5347 -39.8157
L37.4832 -39.5714
L37.4314 -39.3271
L37.3275 -39.0829
L37.2752 -38.8387
L37.2227 -38.5945
L37.1701 -38.35
L37.1172 -38.1054
L37.064 -37.8605
L37.0106 -37.6153
L36.9569 -37.3697
L36.903 -37.1236
L36.8487 -36.8771
L36.7941 -36.63
L36.7392 -36.3822
L36.684 -36.1338
L36.6284 -35.8846
L36.5724 -35.6345
L36.516 -35.3836
L36.4592 -35.1318
L36.402 -34.8789
L36.3443 -34.625
L36.2861 -34.37
L36.2275 -34.1138
L36.1684 -33.8563
L36.1087 -33.5975
L36.0485 -33.3373
L35.9878 -33.0757
L35.9264 -32.8126
L35.8645 -32.5479
L35.802 -32.2816
L35.7388 -32.0136
L35.6749 -31.7438
L35.6103 -31.4723
L35.5451 -31.1989
L35.4791 -30.9235
L35.4123 -30.6462
L35.3448 -30.3669
L35.2764 -30.0854
L35.2073 -29.8018
L35.1372 -29.5161
L35.0663 -29.2281
L34.9945 -28.9377
L34.9217 -28.6451
L34.848 -28.3501
L34.7733 -28.0526
L34.6976 -27.7527
L34.6208 -27.4503
L34.543 -27.1454
L34.464 -26.8379
L34.3839 -26.5279
L34.3026 -26.2154
L34.2202 -25.9002
L34.1364 -25.5824
L34.0515 -25.2621
L33.9652 -24.9392
L33.8775 -24.6137
L33.7885 -24.2858
L33.698 -23.9553
L33.6061 -23.6225
L33.5126 -23.2872
L33.4176 -22.9497
L33.3209 -22.61
L33.2225 -22.2681
L33.1225 -21.9243
L33.0206 -21.5786
L32.9168 -21.2312
L32.811 -20.8823
L32.7031 -20.532
L32.5931 -20.1807
L32.4808 -19.8284
L32.366 -19.4756
L32.2486 -19.1225
L32.1284 -18.7694
L32.0052 -18.4168
L31.8787 -18.0651
L31.7486 -17.7147
L31.6145 -17.3662
L31.4761 -17.0203
L31.3327 -16.6776
L31.1839 -16.3389
L31.0288 -16.0052
L30.8666 -15.6775
L30.6963 -15.357
L30.5166 -15.0451
L30.3262 -14.7434
L30.1233 -14.4538
L29.9062 -14.1784
L29.6728 -13.9196
L29.4209 -13.68
L29.1485 -13.4625
L28.8537 -13.27
L28.5351 -13.1054
L28.1919 -12.9711
L27.8243 -12.8692
L27.4332 -12.8008
L27.0205 -12.7663
L26.5887 -12.7653
L26.1405 -12.7966
L25.6789 -12.8585
L25.2071 -12.9491
L24.7276 -13.0661
L24.2431 -13.2076
L23.7558 -13.3715
L23.2678 -13.5561
L22.7808 -13.7595
L22.2963 -13.9802
L21.8156 -14.217
L21.3397 -14.4684
L20.8698 -14.7334
L20.4064 -15.0108
L19.9505 -15.2998
L19.5025 -15.5994
L19.063 -15.9087
L18.6323 -16.2271
L18.2108 -16.5538
L17.7987 -16.8881
L17.3964 -17.2294
L17.004 -17.577
L16.6215 -17.9304
L16.2491 -18.2891
L15.8868 -18.6524
L15.5347 -19.0201
L15.1928 -19.3915
L14.8609 -19.7663
L14.5391 -20.1441
L14.2272 -20.5245
L13.9253 -20.9071
L13.6331 -21.2917
L13.3505 -21.6778
L13.0775 -22.0652
L12.8138 -22.4537
L12.5594 -22.8429
L12.314 -23.2327
L12.0775 -23.6228
L11.8498 -24.013
L11.6306 -24.4032
L11.4199 -24.7932
L11.2174 -25.1829
L11.0229 -25.572
L10.8364 -25.9604
L10.6576 -26.3482
L10.4863 -26.7351
L10.3224 -27.121
L10.1658 -27.506
L10.0162 -27.8898
L9.87355 -28.2725
L9.73766 -28.654
L9.60838 -29.0343
L9.48556 -29.4133
L9.36908 -29.791
L9.25879 -30.1674
L9.15456 -30.5424
L9.05627 -30.9161
L8.96379 -31.2884
L8.877 -31.6593
L8.7958 -32.0289
L8.72007 -32.3972
L8.64972 -32.7641
L8.58464 -33.1297
L8.52475 -33.4941
L8.46994 -33.8571
L8.42015 -34.219
L8.37529 -34.5796
L8.33529 -34.939
L8.30007 -35.2973
L8.26958 -35.6545
L8.24376 -36.0106
L8.22254 -36.3656
L8.20588 -36.7197
L8.19374 -37.0728
L8.18607 -37.425
L8.18284 -37.7763
L8.18401 -38.1269
L8.18955 -38.4766
L8.19945 -38.8256
L8.21367 -39.1739
L8.23222 -39.5216
L8.25508 -39.8687
L8.28224 -40.2152
L8.3137 -40.5613
L8.34946 -40.9069
L8.38954 -41.2521
L8.43393 -41.5969
L8.48267 -41.9415
L8.53577 -42.2857
L8.59325 -42.6298
L8.65514 -42.9736
L8.72148 -43.3174
L8.79231 -43.661
L8.86766 -44.0046
L8.94759 -44.3482
L9.03214 -44.6918
L9.12138 -45.0356
L9.21536 -45.3794
L9.38438 -45.7233
L9.5663 -46.1911
L9.75626 -46.6541
L9.95422 -47.1138
L10.1601 -47.5701
L10.3739 -48.0229
L10.5954 -48.472
L10.8248 -48.9174
L11.0617 -49.3588
L11.3063 -49.7961
L11.5584 -50.2293
L11.8179 -50.658
L12.0849 -51.0824
L12.359 -51.5021
L12.6404 -51.9171
L12.9289 -52.3273
L13.2245 -52.7325
L13.527 -53.1326
L13.8363 -53.5275
L14.1523 -53.917
L14.4751 -54.3011
L14.8044 -54.6796
L15.1401 -55.0524
L15.4822 -55.4194
L15.8305 -55.7805
L16.185 -56.1356
L16.5455 -56.4845
L16.912 -56.8272
L17.2842 -57.1636
L17.6622 -57.4935
L18.0458 -57.8169
L18.4348 -58.1336
L18.8291 -58.4436
L19.2287 -58.7467
L19.6335 -59.0429
L20.0432 -59.3321
L20.4577 -59.6142
L20.877 -59.8891
L21.3009 -60.1567
L21.7293 -60.4169
L22.162 -60.6697
L22.5989 -60.915
L23.0399 -61.1528
L23.4849 -61.3828
L23.9337 -61.6051
L24.3861 -61.8196
L24.8421 -62.0263
L25.3015 -62.225
L25.7642 -62.4158
L26.2299 -62.5984
L26.6987 -62.773
L27.1702 -62.9395
L27.6445 -63.0977
L28.1213 -63.2477
L28.6005 -63.3893
L29.082 -63.5227
L29.5656 -63.6476
L30.0511 -63.7641
L30.5384 -63.8722
L31.0274 -63.9718
L31.518 -64.0629
L32.0099 -64.1454
L32.503 -64.2193
L32.9971 -64.2846
L33.4922 -64.3414
L33.988 -64.3895
L34.4845 -64.4289
L34.9814 -64.4597
L35.4787 -64.4818
L35.976 -64.4952
L36.4734 -64.5
L36.9707 -64.4961
L37.4677 -64.4835
L37.9642 -64.4622
L38.4601 -64.4322
L38.9552 -64.3936
z
" id="C0_1_5a61b9992c"/>
     <path d="
M62.6452 -25.9479
L62.4917 -25.6236
L62.3338 -25.3004
L62.1713 -24.9782
L62.0042 -24.6569
L61.8324 -24.3367
L61.6559 -24.0174
L61.4746 -23.699
L61.2884 -23.3816
L61.0972 -23.0651
L60.901 -22.7495
L60.6996 -22.4348
L60.4931 -22.121
L60.2812 -21.8082
L60.0639 -21.4962
L59.8411 -21.1853
L59.6127 -20.8753
L59.3786 -20.5664
L59.1387 -20.2584
L58.8928 -19.9516
L58.6409 -19.6458
L58.3828 -19.3413
L58.1185 -19.0379
L57.8478 -18.7359
L57.5705 -18.4351
L57.2867 -18.1359
L56.996 -17.8381
L56.6985 -17.5419
L56.394 -17.2475
L56.0824 -16.9549
L55.7635 -16.6642
L55.4372 -16.3755
L55.1035 -16.0891
L54.7622 -15.8049
L54.4131 -15.5233
L54.0562 -15.2443
L53.6915 -14.9682
L53.3187 -14.695
L52.9378 -14.4251
L52.5487 -14.1585
L52.1513 -13.8956
L51.7457 -13.6365
L51.3317 -13.3815
L50.9093 -13.1308
L50.4785 -12.8847
L50.0393 -12.6434
L49.5917 -12.4071
L49.1357 -12.1762
L48.6715 -11.951
L48.199 -11.7316
L47.7185 -11.5184
L47.23 -11.3116
L46.7338 -11.1116
L46.2301 -10.9186
L45.719 -10.7328
L45.201 -10.5545
L44.6763 -10.3839
L44.1454 -10.2212
L43.6087 -10.0665
L43.0668 -9.92008
L42.5202 -9.78192
L41.9696 -9.65206
L41.4157 -9.53045
L40.8595 -9.41696
L40.3019 -9.31135
L39.7439 -9.21326
L39.1869 -9.12219
L38.6323 -9.03746
L38.0817 -8.95819
L37.5369 -8.88325
L36.9999 -8.81125
L36.4731 -8.74053
L35.9589 -8.66908
L35.4601 -8.59465
L34.9796 -8.51473
L34.52 -8.4267
L34.0841 -8.32798
L33.6739 -8.21627
L33.2908 -8.08978
L32.9355 -7.94744
L33.0918 -7.78895
L33.587 -7.64877
L34.083 -7.60233
L34.5795 -7.56455
L35.0765 -7.53542
L35.5738 -7.51497
L36.0712 -7.50319
L36.5686 -7.50009
L37.0658 -7.50567
L37.5627 -7.51994
L38.0591 -7.54287
L38.5549 -7.57448
L39.0499 -7.61475
L39.5439 -7.66366
L40.0369 -7.7212
L40.5287 -7.78736
L41.0191 -7.86211
L41.5079 -7.94543
L41.9951 -8.0373
L42.4805 -8.13769
L42.9638 -8.24656
L43.4451 -8.36389
L43.9241 -8.48963
L44.4007 -8.62376
L44.8747 -8.76622
L45.346 -8.91698
L45.8145 -9.07599
L46.2799 -9.2432
L46.7423 -9.41856
L47.2014 -9.60202
L47.657 -9.79352
L48.1091 -9.993
L48.5575 -10.2004
L49.0021 -10.4157
L49.4428 -10.6387
L49.8793 -10.8695
L50.3116 -11.1079
L50.7396 -11.354
L51.163 -11.6075
L51.5819 -11.8684
L51.996 -12.1367
L52.4052 -12.4123
L52.8094 -12.6951
L53.2085 -12.9849
L53.6024 -13.2818
L53.9909 -13.5856
L54.3739 -13.8962
L54.7514 -14.2136
L55.1231 -14.5376
L55.489 -14.8681
L55.8489 -15.2051
L56.2028 -15.5483
L56.5506 -15.8979
L56.8921 -16.2535
L57.2272 -16.6152
L57.5559 -16.9828
L57.878 -17.3561
L58.1934 -17.7352
L58.5021 -18.1198
L58.8039 -18.5098
L59.0988 -18.9052
L59.3866 -19.3058
L59.6673 -19.7115
L59.9408 -20.1221
L60.207 -20.5376
L60.4659 -20.9577
L60.7173 -21.3825
L60.9611 -21.8117
L61.1974 -22.2453
L61.4259 -22.683
L61.6468 -23.1248
L61.8598 -23.5705
L62.0649 -24.02
L62.2621 -24.4731
L62.4513 -24.9297
z
" id="C0_2_ab590a80cf"/>
    </defs>
    <g clip-path="url(#p1bffca34e9)">
     <use style="fill:#ff0000;stroke:#000000;stroke-width:2.0;" x="0.0" xlink:href="#C0_0_a811fe30f3" y="72.0"/>
    </g>
    <g clip-path="url(#p1bffca34e9)">
     <use style="fill:#ffffff;stroke:#000000;stroke-width:2.0;" x="0.0" xlink:href="#C0_1_5a61b9992c" y="72.0"/>
    </g>
    <g clip-path="url(#p1bffca34e9)">
     <use style="fill:#ffffff;stroke:#000000;stroke-width:2.0;" x="0.0" xlink:href="#C0_2_ab590a80cf" y="72.0"/>
    </g>
   </g>
  </g>
 </g>
 <defs>
  <clipPath id="p1bffca34e9">
   <rect height="72.0" width="72.0" x="0.0" y="0.0"/>
  </clipPath>
 </defs>
</svg>
