<?xml version="1.0" encoding="utf-8" standalone="no"?>
<!DOCTYPE svg PUBLIC "-//W3C//DTD SVG 1.1//EN"
  "http://www.w3.org/Graphics/SVG/1.1/DTD/svg11.dtd">
<!-- Created with matplotlib (http://matplotlib.org/) -->
<svg height="72pt" version="1.1" viewBox="0 0 72 72" width="72pt" xmlns="http://www.w3.org/2000/svg" xmlns:xlink="http://www.w3.org/1999/xlink">
 <defs>
  <style type="text/css">
*{stroke-linecap:butt;stroke-linejoin:round;}
  </style>
 </defs>
 <g id="figure_1">
  <g id="patch_1">
   <path d="
M0 72
L72 72
L72 0
L0 0
z
" style="fill:none;"/>
  </g>
  <g id="axes_1">
   <g id="PatchCollection_1">
    <defs>
     <path d="
M36 -7.5
C43.5583 -7.5 50.808 -10.5029 56.1525 -15.8475
C61.4971 -21.192 64.5 -28.4417 64.5 -36
C64.5 -43.5583 61.4971 -50.808 56.1525 -56.1525
C50.808 -61.4971 43.5583 -64.5 36 -64.5
C28.4417 -64.5 21.192 -61.4971 15.8475 -56.1525
C10.5029 -50.808 7.5 -43.5583 7.5 -36
C7.5 -28.4417 10.5029 -21.192 15.8475 -15.8475
C21.192 -10.5029 28.4417 -7.5 36 -7.5
z
" id="C0_0_a811fe30f3"/>
     <path d="
M7.58905 -36.2536
L7.80596 -36.3704
L8.0261 -36.4756
L8.24928 -36.5693
L8.4753 -36.6518
L8.70399 -36.7231
L8.93517 -36.7837
L9.16867 -36.8338
L9.40435 -36.8736
L9.64206 -36.9035
L9.88165 -36.9237
L10.123 -36.9345
L10.366 -36.9364
L10.6105 -36.9296
L10.8564 -36.9145
L11.1036 -36.8914
L11.3519 -36.8607
L11.6014 -36.8227
L11.852 -36.7778
L12.1034 -36.7263
L12.3557 -36.6686
L12.6088 -36.6049
L12.8626 -36.5357
L13.117 -36.4612
L13.372 -36.3818
L13.6275 -36.2977
L13.8835 -36.2092
L14.1398 -36.1167
L14.3965 -36.0204
L14.6535 -35.9206
L14.9107 -35.8174
L15.1681 -35.7113
L15.4256 -35.6023
L15.6832 -35.4907
L15.9409 -35.3767
L16.1985 -35.2605
L16.4562 -35.1423
L16.7137 -35.0223
L16.9712 -34.9006
L17.2285 -34.7775
L17.4857 -34.6529
L17.7427 -34.5272
L17.9994 -34.4003
L18.2559 -34.2725
L18.5122 -34.1439
L18.7681 -34.0145
L19.0238 -33.8845
L19.2791 -33.7539
L19.534 -33.6229
L19.7887 -33.4915
L20.0429 -33.3598
L20.2968 -33.2278
L20.5502 -33.0957
L20.8033 -32.9635
L21.056 -32.8312
L21.3083 -32.6989
L21.5602 -32.5667
L21.8117 -32.4345
L22.0627 -32.3025
L22.3134 -32.1706
L22.5637 -32.0389
L22.8135 -31.9074
L23.063 -31.7761
L23.3121 -31.6452
L23.5608 -31.5144
L23.8092 -31.384
L24.0572 -31.2539
L24.3049 -31.1242
L24.5523 -30.9947
L24.7993 -30.8656
L25.0461 -30.7369
L25.2925 -30.6085
L25.5387 -30.4805
L25.7847 -30.3528
L26.0304 -30.2255
L26.2759 -30.0986
L26.5212 -29.9721
L26.7664 -29.8459
L27.0114 -29.72
L27.2562 -29.5946
L27.501 -29.4694
L27.7457 -29.3447
L27.9903 -29.2202
L28.2348 -29.0961
L28.4794 -28.9723
L28.7239 -28.8489
L28.9685 -28.7257
L29.2131 -28.6029
L29.4578 -28.4803
L29.7026 -28.358
L29.9475 -28.236
L30.4378 -28.1142
L30.6832 -27.9927
L30.9288 -27.8714
L31.1747 -27.7504
L31.4208 -27.6295
L31.6673 -27.5089
L31.914 -27.3884
L32.1611 -27.2681
L32.4085 -27.148
L32.6563 -27.028
L32.9045 -26.9082
L33.1531 -26.7885
L33.4022 -26.6689
L33.6517 -26.5493
L33.9017 -26.4299
L34.1522 -26.3105
L34.4032 -26.1912
L34.6548 -26.0719
L34.9069 -25.9526
L35.1595 -25.8334
L35.4127 -25.7141
L35.6665 -25.5948
L35.9209 -25.4755
L36.1759 -25.3561
L36.4315 -25.2366
L36.6877 -25.1171
L36.9446 -24.9974
L37.202 -24.8777
L37.4601 -24.7578
L37.7188 -24.6377
L37.9781 -24.5175
L38.238 -24.3971
L38.4986 -24.2765
L38.7596 -24.1557
L39.0213 -24.0346
L39.2835 -23.9132
L39.5462 -23.7916
L39.8095 -23.6696
L40.0732 -23.5473
L40.3373 -23.4246
L40.6018 -23.3016
L40.8667 -23.1782
L41.1319 -23.0543
L41.3974 -22.9299
L41.663 -22.8051
L41.9288 -22.6797
L42.1947 -22.5537
L42.4605 -22.4272
L42.7263 -22.3
L42.9919 -22.1722
L43.2573 -22.0436
L43.5223 -21.9142
L43.7868 -21.7841
L44.0507 -21.6531
L44.314 -21.5211
L44.5764 -21.3882
L44.8379 -21.2543
L45.0982 -21.1193
L45.3573 -20.9831
L45.6149 -20.8456
L45.871 -20.7069
L46.1252 -20.5668
L46.3775 -20.4252
L46.6277 -20.282
L46.8754 -20.1372
L47.1206 -19.9907
L47.3629 -19.8423
L47.6021 -19.6919
L47.8381 -19.5396
L48.0705 -19.385
L48.299 -19.2282
L48.5235 -19.0689
L48.7436 -18.9072
L48.9591 -18.7428
L49.1696 -18.5756
L49.3748 -18.4055
L49.5745 -18.2324
L49.7684 -18.0562
L49.9561 -17.8768
L50.1373 -17.6939
L50.3117 -17.5075
L50.479 -17.3176
L50.6389 -17.1239
L50.7911 -16.9265
L50.9353 -16.7251
L51.0712 -16.5198
L51.1985 -16.3105
L51.3168 -16.0971
L51.426 -15.8796
L51.5258 -15.6579
L51.6159 -15.4322
L51.6961 -15.2023
L51.7662 -14.9683
L51.8259 -14.7303
L51.8751 -14.4883
L51.9135 -14.2424
L51.9411 -13.9927
L51.9576 -13.7394
L51.963 -13.4825
L51.9571 -13.2222
L51.9398 -12.9588
L51.911 -12.6924
L51.5279 -12.4231
L51.1085 -12.1016
L50.6844 -11.8343
L50.2559 -11.5743
L49.823 -11.3217
L49.386 -11.0767
L48.9448 -10.8392
L48.4997 -10.6094
L48.0508 -10.3874
L47.5982 -10.1731
L47.1421 -9.96673
L46.6826 -9.76828
L46.2199 -9.57782
L45.754 -9.39541
L45.2852 -9.2211
L44.8135 -9.05495
L44.3391 -8.897
L43.8622 -8.74731
L43.3829 -8.60593
L42.9014 -8.47288
L42.4178 -8.34823
L41.9322 -8.23199
L41.4448 -8.12421
L40.9557 -8.02493
L40.4651 -7.93417
L39.9732 -7.85195
L39.4801 -7.77831
L38.9859 -7.71327
L38.4907 -7.65684
L37.9949 -7.60905
L37.4984 -7.5699
L37.0015 -7.53942
L36.5042 -7.5176
L36.0068 -7.50446
L35.5094 -7.5
L35.0122 -7.50422
L34.5152 -7.51712
L34.0188 -7.5387
L33.5229 -7.56895
L33.0277 -7.60786
L32.5335 -7.65541
L32.0403 -7.7116
L31.5484 -7.77641
L31.0578 -7.84981
L30.5687 -7.93179
L30.0812 -8.02232
L29.5956 -8.12137
L29.1119 -8.22892
L28.6303 -8.34492
L28.1509 -8.46935
L27.6739 -8.60216
L27.1995 -8.74332
L26.7278 -8.89278
L26.2588 -9.0505
L25.7929 -9.21642
L25.33 -9.39051
L24.8705 -9.5727
L24.4142 -9.76294
L23.9616 -9.96118
L23.5126 -10.1673
L23.0674 -10.3814
L22.6261 -10.6032
L22.1889 -10.8328
L21.7559 -11.07
L21.3273 -11.3149
L20.9031 -11.5672
L20.4835 -11.827
L20.0687 -12.0942
L19.6587 -12.3686
L19.2536 -12.6502
L18.8537 -12.939
L18.459 -13.2348
L18.0697 -13.5375
L17.6858 -13.847
L17.3075 -14.1633
L16.9349 -14.4863
L16.568 -14.8158
L16.2072 -15.1518
L15.8523 -15.4941
L15.5036 -15.8426
L15.1611 -16.1973
L14.8249 -16.5581
L14.4953 -16.9247
L14.1721 -17.2972
L13.8556 -17.6753
L13.5459 -18.0591
L13.243 -18.4483
L12.947 -18.8428
L12.6581 -19.2426
L12.3763 -19.6475
L12.1016 -20.0573
L11.8343 -20.4721
L11.5743 -20.8915
L11.3217 -21.3156
L11.0767 -21.7441
L10.8392 -22.177
L10.6094 -22.614
L10.3874 -23.0552
L10.1731 -23.5003
L9.96673 -23.9492
L9.76828 -24.4018
L9.57782 -24.8579
L9.39541 -25.3174
L9.2211 -25.7801
L9.05495 -26.246
L8.897 -26.7148
L8.74731 -27.1865
L8.60593 -27.6609
L8.47288 -28.1378
L8.34823 -28.6171
L8.23199 -29.0986
L8.12421 -29.5822
L8.02493 -30.0678
L7.93417 -30.5552
L7.85195 -31.0443
L7.77831 -31.5349
L7.71327 -32.0268
L7.65684 -32.5199
L7.60905 -33.0141
L7.5699 -33.5093
L7.53942 -34.0051
L7.5176 -34.5016
L7.50446 -34.9985
z
" id="C0_1_643510ae85"/>
     <path d="
M20.2924 -59.6035
L20.5641 -59.5389
L20.8406 -59.4762
L21.1216 -59.4154
L21.4068 -59.3562
L21.696 -59.2983
L21.9888 -59.2417
L22.2849 -59.1859
L22.5843 -59.131
L22.8864 -59.0766
L23.1912 -59.0226
L23.4983 -58.9689
L23.8076 -58.9152
L24.1188 -58.8614
L24.4317 -58.8074
L24.746 -58.7531
L25.0616 -58.6982
L25.3783 -58.6428
L25.6959 -58.5867
L26.0142 -58.5298
L26.3331 -58.472
L26.6524 -58.4133
L26.9719 -58.3536
L27.2915 -58.2927
L27.6112 -58.2307
L27.9306 -58.1675
L28.2498 -58.103
L28.5687 -58.0373
L28.887 -57.9702
L29.2048 -57.9018
L29.522 -57.832
L29.8384 -57.7608
L30.154 -57.6882
L30.4687 -57.6141
L30.7825 -57.5386
L31.0953 -57.4616
L31.4071 -57.3832
L31.7177 -57.3033
L32.0273 -57.2219
L32.3356 -57.1391
L32.6428 -57.0547
L32.9487 -56.9689
L33.2534 -56.8816
L33.5569 -56.7929
L33.859 -56.7027
L34.1599 -56.611
L34.4594 -56.5179
L34.7576 -56.4233
L35.0545 -56.3273
L35.3501 -56.2298
L35.6444 -56.131
L35.9374 -56.0306
L36.2291 -55.9289
L36.5194 -55.8257
L36.8085 -55.7211
L37.0963 -55.6151
L37.3828 -55.5077
L37.6681 -55.3989
L37.9522 -55.2886
L38.235 -55.177
L38.5166 -55.064
L38.7971 -54.9495
L39.0764 -54.8337
L39.3546 -54.7164
L39.6316 -54.5978
L39.9075 -54.4777
L40.1824 -54.3563
L40.4562 -54.2334
L40.729 -54.1091
L41.0008 -53.9833
L41.2717 -53.8562
L41.5415 -53.7276
L41.8105 -53.5976
L42.0785 -53.4661
L42.3457 -53.3331
L42.612 -53.1987
L42.8775 -53.0628
L43.1422 -52.9254
L43.4061 -52.7865
L43.6692 -52.6461
L43.9317 -52.5042
L44.1934 -52.3607
L44.4544 -52.2157
L44.7148 -52.0691
L44.9746 -51.9209
L45.2337 -51.7712
L45.4922 -51.6198
L45.7502 -51.4668
L46.0076 -51.3122
L46.2645 -51.1559
L46.5209 -50.9979
L46.7768 -50.8383
L47.0322 -50.6769
L47.2872 -50.5138
L47.5417 -50.349
L47.7958 -50.1825
L48.0495 -50.0141
L48.3028 -49.844
L48.5557 -49.6721
L48.8083 -49.4983
L49.0605 -49.3228
L49.3123 -49.1454
L49.5638 -48.9661
L49.8149 -48.785
L50.0658 -48.602
L50.3163 -48.4171
L50.5664 -48.2303
L50.8163 -48.0416
L51.0659 -47.851
L51.3151 -47.6585
L51.564 -47.4641
L51.8126 -47.2677
L52.0609 -47.0695
L52.3088 -46.8693
L52.5564 -46.6672
L52.8037 -46.4633
L53.0506 -46.2575
L53.2971 -46.0498
L53.5433 -45.8403
L53.7891 -45.6289
L54.0345 -45.4158
L54.2794 -45.201
L54.5239 -44.9844
L54.768 -44.7662
L55.0116 -44.5463
L55.2547 -44.3249
L55.4972 -44.102
L55.7393 -43.8777
L55.9807 -43.652
L56.2216 -43.425
L56.4619 -43.1969
L56.7015 -42.9677
L56.9405 -42.7374
L57.1788 -42.5064
L57.4164 -42.2746
L57.6533 -42.0422
L57.8895 -41.8093
L58.1248 -41.5762
L58.3594 -41.3429
L58.5932 -41.1096
L58.8262 -40.8766
L59.0583 -40.6439
L59.2895 -40.412
L59.5199 -40.1808
L59.7494 -39.9507
L59.978 -39.722
L60.2058 -39.4948
L60.4326 -39.2695
L60.6586 -39.0463
L60.8837 -38.8255
L61.1079 -38.6073
L61.3312 -38.3922
L61.5537 -38.1804
L61.7753 -37.9722
L61.996 -37.7679
L62.216 -37.5679
L62.4352 -37.3725
L62.6535 -37.1821
L62.8712 -36.9969
L63.088 -36.8173
L63.3042 -36.6437
L63.5196 -36.4764
L63.7344 -36.3156
L63.9484 -36.1618
L64.1618 -36.0152
L64.4976 -35.8761
L64.4867 -36.3729
L64.4672 -36.8702
L64.439 -37.3673
L64.4021 -37.8639
L64.3566 -38.3599
L64.3025 -38.8553
L64.2397 -39.3497
L64.1683 -39.8431
L64.0884 -40.3354
L63.9999 -40.8264
L63.9028 -41.3158
L63.7973 -41.8037
L63.6833 -42.2898
L63.5608 -42.7739
L63.43 -43.256
L63.2908 -43.7359
L63.1433 -44.2135
L62.9875 -44.6885
L62.8236 -45.1609
L62.6514 -45.6305
L62.4711 -46.0972
L62.2828 -46.5608
L62.0864 -47.0212
L61.8821 -47.4782
L61.6699 -47.9317
L61.4499 -48.3816
L61.2222 -48.8277
L60.9868 -49.2699
L60.7437 -49.7081
L60.4931 -50.1421
L60.2351 -50.5718
L59.9697 -50.997
L59.6969 -51.4177
L59.417 -51.8337
L59.1299 -52.2448
L58.8358 -52.651
L58.5347 -53.0522
L58.2268 -53.4481
L57.9121 -53.8387
L57.5907 -54.2239
L57.2627 -54.6036
L56.9283 -54.9775
L56.5874 -55.3457
L56.2404 -55.708
L55.8871 -56.0643
L55.5278 -56.4145
L55.1625 -56.7585
L54.7914 -57.0961
L54.4146 -57.4274
L54.0322 -57.7521
L53.6443 -58.0701
L53.251 -58.3815
L52.8524 -58.686
L52.4487 -58.9836
L52.04 -59.2742
L51.6264 -59.5577
L51.2081 -59.8341
L50.7851 -60.1032
L50.3577 -60.3649
L49.9258 -60.6193
L49.4897 -60.8661
L49.0495 -61.1053
L48.6053 -61.3369
L48.1573 -61.5608
L47.7056 -61.7769
L47.2503 -61.9852
L46.7916 -62.1855
L46.3296 -62.3779
L45.8644 -62.5622
L45.3963 -62.7384
L44.9253 -62.9065
L44.4515 -63.0664
L43.9752 -63.218
L43.4965 -63.3614
L43.0155 -63.4964
L42.5323 -63.6231
L42.0472 -63.7413
L41.5602 -63.8511
L41.0715 -63.9524
L40.5813 -64.0451
L40.0896 -64.1294
L39.5968 -64.205
L39.1028 -64.2721
L38.6079 -64.3306
L38.1122 -64.3804
L37.6159 -64.4216
L37.119 -64.4542
L36.6218 -64.478
L36.1245 -64.4932
L35.6271 -64.4997
L35.1298 -64.4976
L34.6327 -64.4867
L34.1361 -64.4672
L33.6401 -64.439
L33.1447 -64.4021
L32.6503 -64.3566
L32.1569 -64.3025
L31.6646 -64.2397
L31.1736 -64.1683
L30.6842 -64.0884
L30.1963 -63.9999
L29.7102 -63.9028
L29.2261 -63.7973
L28.744 -63.6833
L28.2641 -63.5608
L27.7865 -63.43
L27.3115 -63.2908
L26.8391 -63.1433
L26.3695 -62.9875
L25.9028 -62.8236
L25.4392 -62.6514
L24.9788 -62.4711
L24.5218 -62.2828
L24.0683 -62.0864
L23.6184 -61.8821
L23.1723 -61.6699
L22.7301 -61.4499
L22.2919 -61.2222
L21.8579 -60.9868
L21.4282 -60.7437
L21.003 -60.4931
z
" id="C0_2_9306a78c9c"/>
    </defs>
    <g clip-path="url(#p1bffca34e9)">
     <use style="fill:#ff0000;stroke:#000000;stroke-width:2.0;" x="0.0" xlink:href="#C0_0_a811fe30f3" y="72.0"/>
    </g>
    <g clip-path="url(#p1bffca34e9)">
     <use style="fill:#ffffff;stroke:#000000;stroke-width:2.0;" x="0.0" xlink:href="#C0_1_643510ae85" y="72.0"/>
    </g>
    <g clip-path="url(#p1bffca34e9)">
     <use style="fill:#ffffff;stroke:#000000;stroke-width:2.0;" x="0.0" xlink:href="#C0_2_9306a78c9c" y="72.0"/>
    </g>
   </g>
  </g>
 </g>
 <defs>
  <clipPath id="p1bffca34e9">
   <rect height="72.0" width="72.0" x="0.0" y="0.0"/>
  </clipPath>
 </defs>
</svg>
