<?xml version="1.0" encoding="utf-8" standalone="no"?>
<!DOCTYPE svg PUBLIC "-//W3C//DTD SVG 1.1//EN"
  "http://www.w3.org/Graphics/SVG/1.1/DTD/svg11.dtd">
<!-- Created with matplotlib (http://matplotlib.org/) -->
<svg height="72pt" version="1.1" viewBox="0 0 72 72" width="72pt" xmlns="http://www.w3.org/2000/svg" xmlns:xlink="http://www.w3.org/1999/xlink">
 <defs>
  <style type="text/css">
*{stroke-linecap:butt;stroke-linejoin:round;}
  </style>
 </defs>
 <g id="figure_1">
  <g id="patch_1">
   <path d="
M0 72
L72 72
L72 0
L0 0
z
" style="fill:none;"/>
  </g>
  <g id="axes_1">
   <g id="PatchCollection_1">
    <defs>
     <path d="
M36 -7.5
C43.5583 -7.5 50.808 -10.5029 56.1525 -15.8475
C61.4971 -21.192 64.5 -28.4417 64.5 -36
C64.5 -43.5583 61.4971 -50.808 56.1525 -56.1525
C50.808 -61.4971 43.5583 -64.5 36 -64.5
C28.4417 -64.5 21.192 -61.4971 15.8475 -56.1525
C10.5029 -50.808 7.5 -43.5583 7.5 -36
C7.5 -28.4417 10.5029 -21.192 15.8475 -15.8475
C21.192 -10.5029 28.4417 -7.5 36 -7.5
z
" id="C0_0_a811fe30f3"/>
     <path d="
M9.78233 -47.1477
L10.0371 -47.1448
L10.2878 -47.1184
L10.5343 -47.0697
L10.777 -46.9999
L11.016 -46.9103
L11.2517 -46.8025
L11.4842 -46.6777
L11.714 -46.5376
L11.9413 -46.3833
L12.1664 -46.2163
L12.3897 -46.0379
L12.6115 -45.8493
L12.832 -45.6515
L13.0515 -45.4458
L13.2701 -45.233
L13.488 -45.0142
L13.7054 -44.79
L13.9225 -44.5614
L14.1392 -44.329
L14.3558 -44.0935
L14.5723 -43.8554
L14.7886 -43.6152
L15.005 -43.3735
L15.2213 -43.1307
L15.4376 -42.8872
L15.6539 -42.6432
L15.8702 -42.3992
L16.0864 -42.1554
L16.3026 -41.912
L16.5187 -41.6694
L16.7348 -41.4276
L16.9507 -41.1868
L17.1664 -40.9473
L17.3819 -40.7091
L17.5973 -40.4724
L17.8123 -40.2372
L18.0271 -40.0037
L18.2416 -39.7719
L18.4558 -39.5419
L18.6696 -39.3137
L18.8831 -39.0874
L19.0961 -38.863
L19.3088 -38.6405
L19.521 -38.42
L19.7328 -38.2015
L19.9441 -37.9849
L20.155 -37.7703
L20.3654 -37.5577
L20.5753 -37.347
L20.7848 -37.1383
L20.9938 -36.9315
L21.2024 -36.7266
L21.4104 -36.5235
L21.6181 -36.3224
L21.8253 -36.123
L22.032 -35.9255
L22.2383 -35.7297
L22.4442 -35.5356
L22.6498 -35.3433
L22.8549 -35.1526
L23.0597 -34.9636
L23.2641 -34.7761
L23.4683 -34.5902
L23.6721 -34.4058
L23.8757 -34.2229
L24.079 -34.0414
L24.2821 -33.8613
L24.4851 -33.6826
L24.6878 -33.5052
L24.8904 -33.3291
L25.093 -33.1542
L25.2954 -32.9805
L25.4978 -32.808
L25.7002 -32.6366
L25.9026 -32.4663
L26.1051 -32.297
L26.3077 -32.1288
L26.5104 -31.9615
L26.7133 -31.7952
L26.9163 -31.6297
L27.1196 -31.4651
L27.3232 -31.3014
L27.5272 -31.1384
L27.7314 -30.9762
L27.9361 -30.8146
L28.1412 -30.6538
L28.5528 -30.4936
L28.7595 -30.334
L28.9668 -30.175
L29.1747 -30.0166
L29.3833 -29.8587
L29.5926 -29.7012
L29.8027 -29.5442
L30.0136 -29.3876
L30.2254 -29.2314
L30.4381 -29.0756
L30.6517 -28.9201
L30.8664 -28.7648
L31.0821 -28.6099
L31.2989 -28.4552
L31.5169 -28.3007
L31.736 -28.1465
L31.9564 -27.9923
L32.178 -27.8384
L32.401 -27.6845
L32.6254 -27.5307
L32.8512 -27.377
L33.0785 -27.2234
L33.3073 -27.0697
L33.5376 -26.9161
L33.7696 -26.7625
L34.0033 -26.6088
L34.2386 -26.455
L34.4757 -26.3012
L34.7146 -26.1473
L34.9554 -25.9933
L35.198 -25.8392
L35.4426 -25.6849
L35.6891 -25.5305
L35.9377 -25.376
L36.1883 -25.2212
L36.4409 -25.0663
L36.6957 -24.9112
L36.9526 -24.7559
L37.2117 -24.6004
L37.473 -24.4447
L37.7365 -24.2887
L38.0022 -24.1326
L38.2702 -23.9762
L38.5405 -23.8196
L38.813 -23.6628
L39.0877 -23.5058
L39.3647 -23.3486
L39.644 -23.1911
L39.9255 -23.0334
L40.2091 -22.8756
L40.4949 -22.7175
L40.7828 -22.5592
L41.0727 -22.4007
L41.3646 -22.242
L41.6584 -22.0832
L41.9539 -21.9241
L42.2511 -21.7649
L42.5499 -21.6054
L42.85 -21.4458
L43.1514 -21.2859
L43.4538 -21.1258
L43.757 -20.9654
L44.0608 -20.8048
L44.365 -20.6438
L44.6692 -20.4824
L44.9732 -20.3206
L45.2765 -20.1583
L45.5788 -19.9954
L45.8796 -19.8318
L46.1785 -19.6674
L46.475 -19.5019
L46.7684 -19.3353
L47.0583 -19.1674
L47.3438 -18.9979
L47.6243 -18.8265
L47.899 -18.653
L48.167 -18.4771
L48.4275 -18.2983
L48.6794 -18.1162
L48.9218 -17.9305
L49.1536 -17.7406
L49.3736 -17.5461
L49.5808 -17.3465
L49.7739 -17.1411
L49.9517 -16.9295
L50.1133 -16.7112
L50.2573 -16.4856
L50.3828 -16.2524
L50.4889 -16.0111
L50.5746 -15.7615
L50.6393 -15.5034
L50.6824 -15.2367
L50.7035 -14.9615
L50.7024 -14.678
L50.6789 -14.3865
L50.6332 -14.0875
L50.5654 -13.7815
L50.476 -13.4691
L50.3652 -13.1512
L50.2337 -12.8285
L50.0821 -12.5018
L49.9111 -12.1721
L49.7213 -11.8403
L49.5134 -11.5072
L49.2882 -11.1736
L48.8683 -10.8405
L48.4225 -10.5705
L47.973 -10.3498
L47.5198 -10.1369
L47.063 -9.93191
L46.603 -9.73483
L46.1397 -9.54576
L45.6733 -9.36474
L45.2039 -9.19183
L44.7318 -9.0271
L44.257 -8.87057
L43.7797 -8.72231
L43.3 -8.58236
L42.8181 -8.45077
L42.3341 -8.32756
L41.8482 -8.21278
L41.3605 -8.10647
L40.8711 -8.00865
L40.3803 -7.91936
L39.8882 -7.83863
L39.3948 -7.76647
L38.9005 -7.70291
L38.4052 -7.64797
L37.9092 -7.60167
L37.4127 -7.56402
L36.9157 -7.53503
L36.4184 -7.51471
L35.921 -7.50307
L35.4236 -7.50011
L34.9264 -7.50583
L34.4295 -7.52023
L33.9331 -7.5433
L33.4373 -7.57505
L32.9424 -7.61545
L32.4483 -7.6645
L31.9553 -7.72217
L31.4636 -7.78847
L30.9732 -7.86335
L30.4844 -7.94681
L29.9972 -8.03881
L29.5119 -8.13933
L29.0286 -8.24834
L28.5474 -8.3658
L28.0684 -8.49167
L27.5919 -8.62593
L27.1179 -8.76852
L26.6466 -8.91941
L26.1782 -9.07855
L25.7128 -9.24589
L25.2505 -9.42138
L24.7915 -9.60497
L24.3359 -9.79659
L23.8838 -9.9962
L23.4354 -10.2037
L22.9909 -10.4191
L22.5503 -10.6423
L22.1139 -10.8732
L21.6816 -11.1117
L21.2537 -11.3579
L20.8303 -11.6115
L20.4116 -11.8726
L19.9975 -12.141
L19.5884 -12.4167
L19.1843 -12.6996
L18.7852 -12.9896
L18.3914 -13.2865
L18.003 -13.5904
L17.6201 -13.9012
L17.2427 -14.2186
L16.8711 -14.5427
L16.5053 -14.8733
L16.1455 -15.2104
L15.7917 -15.5538
L15.444 -15.9034
L15.1026 -16.2592
L14.7676 -16.6209
L14.439 -16.9886
L14.117 -17.362
L13.8017 -17.7412
L13.4931 -18.1259
L13.1914 -18.516
L12.8967 -18.9115
L12.6089 -19.3121
L12.3283 -19.7179
L12.0549 -20.1286
L11.7888 -20.5441
L11.5301 -20.9644
L11.2789 -21.3892
L11.0351 -21.8185
L10.799 -22.2521
L10.5705 -22.6899
L10.3498 -23.1317
L10.1369 -23.5775
L9.93191 -24.027
L9.73483 -24.4802
L9.54576 -24.937
L9.36474 -25.397
L9.19183 -25.8603
L9.0271 -26.3267
L8.87057 -26.7961
L8.72231 -27.2682
L8.58236 -27.743
L8.45077 -28.2203
L8.32756 -28.7
L8.21278 -29.1819
L8.10647 -29.6659
L8.00865 -30.1518
L7.91936 -30.6395
L7.83863 -31.1289
L7.76647 -31.6197
L7.70291 -32.1118
L7.64797 -32.6052
L7.60167 -33.0995
L7.56402 -33.5948
L7.53503 -34.0908
L7.51471 -34.5873
L7.50307 -35.0843
L7.50011 -35.5816
L7.50583 -36.079
L7.52023 -36.5764
L7.5433 -37.0736
L7.57505 -37.5705
L7.61545 -38.0669
L7.6645 -38.5627
L7.72217 -39.0576
L7.78847 -39.5517
L7.86335 -40.0447
L7.94681 -40.5364
L8.03881 -41.0268
L8.13933 -41.5156
L8.24834 -42.0028
L8.3658 -42.4881
L8.49167 -42.9714
L8.62593 -43.4526
L8.76852 -43.9316
L8.91941 -44.4081
L9.07855 -44.8821
L9.24589 -45.3534
L9.42138 -45.8218
z
" id="C0_1_b35a8cae5a"/>
     <path d="
M23.0778 -61.2487
L23.4921 -61.2539
L23.9102 -61.2575
L24.3313 -61.259
L24.7546 -61.2578
L25.1794 -61.2535
L25.6052 -61.2459
L26.0314 -61.2345
L26.4573 -61.2192
L26.8827 -61.1999
L27.3069 -61.1762
L27.7296 -61.1482
L28.1505 -61.1159
L28.5692 -61.079
L28.9854 -61.0377
L29.3989 -60.992
L29.8094 -60.9419
L30.2167 -60.8874
L30.6207 -60.8286
L31.0211 -60.7656
L31.4179 -60.6984
L31.8109 -60.6272
L32.2 -60.552
L32.5852 -60.473
L32.9664 -60.3902
L33.3435 -60.3038
L33.7165 -60.2139
L34.0853 -60.1205
L34.45 -60.0238
L34.8106 -59.9239
L35.167 -59.8209
L35.5192 -59.7148
L35.8674 -59.6058
L36.2114 -59.494
L36.5514 -59.3795
L36.8873 -59.2623
L37.2193 -59.1426
L37.5473 -59.0204
L37.8715 -58.8958
L38.1918 -58.7688
L38.5084 -58.6396
L38.8212 -58.5082
L39.1304 -58.3746
L39.436 -58.239
L39.7381 -58.1014
L40.0367 -57.9617
L40.3319 -57.8202
L40.6239 -57.6768
L40.9125 -57.5315
L41.198 -57.3844
L41.4803 -57.2356
L41.7596 -57.085
L42.0359 -56.9326
L42.3093 -56.7786
L42.5798 -56.6229
L42.8476 -56.4656
L43.1127 -56.3066
L43.3751 -56.1459
L43.6349 -55.9837
L43.8922 -55.8198
L44.147 -55.6543
L44.3995 -55.4872
L44.6496 -55.3184
L44.8974 -55.148
L45.143 -54.976
L45.3865 -54.8024
L45.6278 -54.6271
L45.8672 -54.4501
L46.1045 -54.2715
L46.3399 -54.0912
L46.5734 -53.9091
L46.805 -53.7253
L47.0349 -53.5398
L47.263 -53.3524
L47.4894 -53.1632
L47.7142 -52.9722
L47.9373 -52.7793
L48.1589 -52.5845
L48.3789 -52.3878
L48.5975 -52.1891
L48.8146 -51.9883
L49.0303 -51.7855
L49.2446 -51.5806
L49.4575 -51.3736
L49.6691 -51.1643
L49.8794 -50.9528
L50.0885 -50.7391
L50.2962 -50.523
L50.5028 -50.3045
L50.7082 -50.0836
L50.9124 -49.8602
L51.1154 -49.6342
L51.3173 -49.4057
L51.518 -49.1745
L51.7176 -48.9406
L51.9161 -48.7039
L52.1135 -48.4643
L52.3097 -48.2219
L52.5049 -47.9765
L52.6989 -47.728
L52.8919 -47.4765
L53.0837 -47.2218
L53.2744 -46.9639
L53.464 -46.7026
L53.6524 -46.4381
L53.8396 -46.1701
L54.0257 -45.8986
L54.2105 -45.6236
L54.3941 -45.3449
L54.5765 -45.0625
L54.7575 -44.7764
L54.9372 -44.4865
L55.1155 -44.1927
L55.2924 -43.895
L55.4679 -43.5932
L55.6418 -43.2874
L55.8142 -42.9776
L55.9849 -42.6635
L56.1539 -42.3453
L56.3212 -42.0229
L56.4867 -41.6962
L56.6503 -41.3652
L56.8119 -41.0299
L56.9715 -40.6903
L57.129 -40.3463
L57.2843 -39.9981
L57.4373 -39.6455
L57.588 -39.2887
L57.7362 -38.9275
L57.882 -38.5623
L58.0251 -38.1928
L58.1655 -37.8194
L58.3032 -37.442
L58.4381 -37.0607
L58.5701 -36.6758
L58.6991 -36.2873
L58.8252 -35.8955
L58.9482 -35.5006
L59.0682 -35.1028
L59.1851 -34.7024
L59.2989 -34.2997
L59.4097 -33.895
L59.5175 -33.4887
L59.6225 -33.0812
L59.7247 -32.673
L59.8242 -32.2647
L59.9213 -31.8566
L60.0163 -31.4495
L60.1092 -31.0441
L60.2006 -30.6409
L60.2908 -30.2409
L60.3802 -29.8447
L60.4694 -29.4534
L60.5588 -29.0678
L60.6491 -28.6889
L60.741 -28.3177
L60.8352 -27.9553
L60.9325 -27.6028
L61.0336 -27.2612
L61.1394 -26.9317
L61.2506 -26.6153
L61.368 -26.3131
L61.4923 -26.026
L61.6243 -25.7549
L61.7644 -25.5005
L61.9131 -25.2636
L62.4631 -25.0446
L62.6437 -25.4192
L62.8163 -25.8827
L62.9806 -26.3492
L63.1367 -26.8187
L63.2846 -27.2909
L63.4241 -27.7659
L63.5553 -28.2433
L63.6781 -28.7231
L63.7925 -29.2051
L63.8984 -29.6892
L63.9958 -30.1752
L64.0847 -30.663
L64.165 -31.1524
L64.2368 -31.6433
L64.2999 -32.1355
L64.3544 -32.6289
L64.4003 -33.1233
L64.4376 -33.6186
L64.4661 -34.1146
L64.486 -34.6112
L64.4973 -35.1082
L64.4998 -35.6055
L64.4937 -36.1029
L64.4789 -36.6003
L64.4554 -37.0975
L64.4232 -37.5943
L64.3824 -38.0907
L64.3329 -38.5864
L64.2748 -39.0814
L64.2081 -39.5754
L64.1328 -40.0683
L64.049 -40.56
L63.9566 -41.0503
L63.8556 -41.539
L63.7462 -42.0261
L63.6284 -42.5113
L63.5021 -42.9946
L63.3674 -43.4757
L63.2244 -43.9545
L63.0731 -44.4309
L62.9136 -44.9048
L62.7459 -45.3759
L62.57 -45.8442
L62.386 -46.3095
L62.194 -46.7716
L61.994 -47.2305
L61.7861 -47.6859
L61.5704 -48.1378
L61.3468 -48.586
L61.1155 -49.0303
L60.8766 -49.4707
L60.6301 -49.907
L60.3761 -50.339
L60.1147 -50.7667
L59.8459 -51.1899
L59.5699 -51.6084
L59.2867 -52.0222
L58.9963 -52.4311
L58.699 -52.835
L58.3948 -53.2338
L58.0838 -53.6273
L57.766 -54.0155
L57.4416 -54.3982
L57.1106 -54.7752
L56.7733 -55.1466
L56.4296 -55.5121
L56.0796 -55.8717
L55.7236 -56.2252
L55.3616 -56.5725
L54.9936 -56.9136
L54.6199 -57.2483
L54.2405 -57.5766
L53.8555 -57.8983
L53.4651 -58.2133
L53.0694 -58.5215
L52.6685 -58.8229
L52.2625 -59.1173
L51.8516 -59.4047
L51.4358 -59.685
L51.0153 -59.958
L50.5903 -60.2237
L50.1608 -60.4821
L49.727 -60.733
L49.289 -60.9764
L48.847 -61.2122
L48.401 -61.4402
L47.9513 -61.6606
L47.4979 -61.8731
L47.041 -62.0777
L46.5808 -62.2744
L46.1173 -62.4631
L45.6508 -62.6437
L45.1813 -62.8163
L44.7091 -62.9806
L44.2341 -63.1367
L43.7567 -63.2846
L43.2769 -63.4241
L42.7949 -63.5553
L42.3108 -63.6781
L41.8248 -63.7925
L41.337 -63.8984
L40.8476 -63.9958
L40.3567 -64.0847
L39.8645 -64.165
L39.3711 -64.2368
L38.8767 -64.2999
L38.3814 -64.3544
L37.8854 -64.4003
L37.3888 -64.4376
L36.8918 -64.4661
L36.3945 -64.486
L35.8971 -64.4973
L35.3997 -64.4998
L34.9025 -64.4937
L34.4057 -64.4789
L33.9093 -64.4554
L33.4136 -64.4232
L32.9186 -64.3824
L32.4246 -64.3329
L31.9317 -64.2748
L31.44 -64.2081
L30.9497 -64.1328
L30.461 -64.049
L29.9739 -63.9566
L29.4887 -63.8556
L29.0054 -63.7462
L28.5243 -63.6284
L28.0455 -63.5021
L27.5691 -63.3674
L27.0952 -63.2244
L26.6241 -63.0731
L26.1558 -62.9136
L25.6905 -62.7459
L25.2284 -62.57
L24.7695 -62.386
L24.3141 -62.194
L23.8622 -61.994
z
" id="C0_2_f31767d67f"/>
    </defs>
    <g clip-path="url(#p1bffca34e9)">
     <use style="fill:#ff0000;stroke:#000000;stroke-width:2.0;" x="0.0" xlink:href="#C0_0_a811fe30f3" y="72.0"/>
    </g>
    <g clip-path="url(#p1bffca34e9)">
     <use style="fill:#ffffff;stroke:#000000;stroke-width:2.0;" x="0.0" xlink:href="#C0_1_b35a8cae5a" y="72.0"/>
    </g>
    <g clip-path="url(#p1bffca34e9)">
     <use style="fill:#ffffff;stroke:#000000;stroke-width:2.0;" x="0.0" xlink:href="#C0_2_f31767d67f" y="72.0"/>
    </g>
   </g>
  </g>
 </g>
 <defs>
  <clipPath id="p1bffca34e9">
   <rect height="72.0" width="72.0" x="0.0" y="0.0"/>
  </clipPath>
 </defs>
</svg>
