<?xml version="1.0" encoding="utf-8" standalone="no"?>
<!DOCTYPE svg PUBLIC "-//W3C//DTD SVG 1.1//EN"
  "http://www.w3.org/Graphics/SVG/1.1/DTD/svg11.dtd">
<!-- Created with matplotlib (http://matplotlib.org/) -->
<svg height="72pt" version="1.1" viewBox="0 0 72 72" width="72pt" xmlns="http://www.w3.org/2000/svg" xmlns:xlink="http://www.w3.org/1999/xlink">
 <defs>
  <style type="text/css">
*{stroke-linecap:butt;stroke-linejoin:round;}
  </style>
 </defs>
 <g id="figure_1">
  <g id="patch_1">
   <path d="
M0 72
L72 72
L72 0
L0 0
z
" style="fill:none;"/>
  </g>
  <g id="axes_1">
   <g id="PatchCollection_1">
    <defs>
     <path d="
M36 -7.5
C43.5583 -7.5 50.808 -10.5029 56.1525 -15.8475
C61.4971 -21.192 64.5 -28.4417 64.5 -36
C64.5 -43.5583 61.4971 -50.808 56.1525 -56.1525
C50.808 -61.4971 43.5583 -64.5 36 -64.5
C28.4417 -64.5 21.192 -61.4971 15.8475 -56.1525
C10.5029 -50.808 7.5 -43.5583 7.5 -36
C7.5 -28.4417 10.5029 -21.192 15.8475 -15.8475
C21.192 -10.5029 28.4417 -7.5 36 -7.5
z
" id="C0_0_a811fe30f3"/>
     <path d="
M11.0779 -22.1913
L11.368 -22.2115
L11.6562 -22.2355
L11.9424 -22.2629
L12.2267 -22.2936
L12.5089 -22.3274
L12.7891 -22.3641
L13.0673 -22.4034
L13.3434 -22.4453
L13.6174 -22.4895
L13.8894 -22.5359
L14.1594 -22.5844
L14.4273 -22.6349
L14.6932 -22.6872
L14.957 -22.7412
L15.2189 -22.7969
L15.4789 -22.8541
L15.7369 -22.9127
L15.993 -22.9727
L16.2472 -23.034
L16.4995 -23.0965
L16.7501 -23.1601
L16.9989 -23.2249
L17.246 -23.2907
L17.4914 -23.3574
L17.7351 -23.4252
L17.9773 -23.4938
L18.2179 -23.5633
L18.457 -23.6336
L18.6946 -23.7046
L18.9308 -23.7765
L19.1657 -23.8491
L19.3993 -23.9224
L19.6316 -23.9964
L19.8627 -24.0711
L20.0926 -24.1464
L20.3215 -24.2224
L20.5493 -24.299
L20.7761 -24.3763
L21.0019 -24.4542
L21.2269 -24.5326
L21.451 -24.6117
L21.6743 -24.6914
L21.897 -24.7717
L22.1189 -24.8526
L22.3402 -24.9342
L22.5609 -25.0163
L22.7812 -25.099
L23.0009 -25.1824
L23.2203 -25.2664
L23.4393 -25.351
L23.658 -25.4363
L23.8765 -25.5223
L24.0948 -25.6089
L24.313 -25.6962
L24.5311 -25.7842
L24.7491 -25.873
L24.9672 -25.9624
L25.4038 -26.0527
L25.6223 -26.1437
L25.8411 -26.2354
L26.0603 -26.328
L26.2798 -26.4214
L26.4997 -26.5157
L26.7201 -26.6109
L26.9411 -26.7069
L27.1627 -26.8039
L27.3849 -26.9018
L27.6079 -27.0007
L27.8316 -27.1007
L28.0562 -27.2016
L28.2816 -27.3037
L28.508 -27.4068
L28.7355 -27.5111
L28.964 -27.6165
L29.1936 -27.7232
L29.4244 -27.831
L29.6565 -27.9402
L29.8899 -28.0507
L30.1247 -28.1625
L30.3609 -28.2757
L30.5986 -28.3903
L30.8379 -28.5064
L31.0788 -28.6241
L31.3214 -28.7433
L31.5657 -28.864
L31.8118 -28.9865
L32.0598 -29.1106
L32.3097 -29.2365
L32.5616 -29.3642
L32.8156 -29.4937
L33.0716 -29.6252
L33.3298 -29.7586
L33.5902 -29.8939
L33.8529 -30.0314
L34.1179 -30.1709
L34.3853 -30.3127
L34.6551 -30.4566
L34.9274 -30.6028
L35.2022 -30.7514
L35.4796 -30.9024
L35.7596 -31.0558
L36.0422 -31.2118
L36.3275 -31.3703
L36.6155 -31.5315
L36.9062 -31.6953
L37.1996 -31.862
L37.4958 -32.0314
L37.7948 -32.2037
L38.0966 -32.3789
L38.401 -32.5572
L38.7083 -32.7385
L39.0182 -32.9229
L39.3309 -33.1104
L39.6461 -33.3012
L39.9639 -33.4952
L40.2843 -33.6925
L40.607 -33.8932
L40.9321 -34.0973
L41.2594 -34.3048
L41.5887 -34.5158
L41.92 -34.7303
L42.253 -34.9484
L42.5875 -35.1701
L42.9233 -35.3953
L43.2602 -35.6242
L43.5978 -35.8568
L43.9358 -36.093
L44.2739 -36.3329
L44.6116 -36.5766
L44.9484 -36.8239
L45.2837 -37.0751
L45.617 -37.3301
L45.9474 -37.5889
L46.2742 -37.8515
L46.5964 -38.1182
L46.9128 -38.3889
L47.222 -38.6638
L47.5224 -38.9431
L47.8121 -39.2269
L48.089 -39.5155
L48.3502 -39.8093
L48.5926 -40.1087
L48.8128 -40.4142
L49.0068 -40.7265
L49.1702 -41.0461
L49.2992 -41.3737
L49.39 -41.7098
L49.4402 -42.0549
L49.4486 -42.4088
L49.4157 -42.7712
L49.3435 -43.1411
L49.235 -43.5173
L49.094 -43.8984
L48.9242 -44.2827
L48.7294 -44.6687
L48.513 -45.055
L48.278 -45.4402
L48.027 -45.8234
L47.7622 -46.2035
L47.4855 -46.5797
L47.1985 -46.9514
L46.9027 -47.3181
L46.5992 -47.6791
L46.289 -48.0342
L45.9732 -48.383
L45.6523 -48.7253
L45.3273 -49.0608
L44.9986 -49.3894
L44.6669 -49.7108
L44.3327 -50.0251
L43.9964 -50.3322
L43.6585 -50.6319
L43.3193 -50.9244
L42.9792 -51.2095
L42.6384 -51.4872
L42.2973 -51.7577
L41.9562 -52.021
L41.6152 -52.2771
L41.2746 -52.526
L40.9345 -52.768
L40.5952 -53.003
L40.2568 -53.2312
L39.9195 -53.4526
L39.5833 -53.6674
L39.2484 -53.8757
L38.9148 -54.0776
L38.5828 -54.2732
L38.2522 -54.4626
L37.9233 -54.646
L37.5961 -54.8235
L37.2705 -54.9953
L36.9467 -55.1613
L36.6246 -55.3218
L36.3043 -55.4769
L35.9858 -55.6267
L35.6692 -55.7714
L35.3543 -55.911
L35.0412 -56.0456
L34.7299 -56.1754
L34.4204 -56.3005
L34.1127 -56.421
L33.8066 -56.5369
L33.5023 -56.6485
L33.1997 -56.7557
L32.8987 -56.8588
L32.5993 -56.9577
L32.3015 -57.0526
L32.0052 -57.1435
L31.7104 -57.2306
L31.417 -57.3139
L31.125 -57.3934
L30.8344 -57.4694
L30.5451 -57.5417
L30.257 -57.6105
L29.9701 -57.6759
L29.6843 -57.7379
L29.3996 -57.7966
L29.116 -57.852
L28.8333 -57.9041
L28.5515 -57.953
L28.2706 -57.9988
L27.9905 -58.0415
L27.7111 -58.0811
L27.4325 -58.1176
L27.1544 -58.1511
L26.8769 -58.1816
L26.5999 -58.2091
L26.3233 -58.2336
L26.0472 -58.2552
L25.7713 -58.2739
L25.4957 -58.2896
L25.2203 -58.3024
L24.9451 -58.3122
L24.6699 -58.3191
L24.3947 -58.3231
L24.1195 -58.3241
L23.8442 -58.3222
L23.5687 -58.3172
L23.293 -58.3093
L23.017 -58.2983
L22.7406 -58.2843
L22.4638 -58.2672
L22.1865 -58.247
L21.9087 -58.2235
L21.6303 -58.1969
L21.3512 -58.167
L21.0714 -58.1338
L20.7909 -58.0972
L20.5094 -58.0572
L20.2271 -58.0136
L19.9438 -57.9665
L19.6595 -57.9157
L19.3741 -57.8612
L19.0876 -57.8029
L18.7998 -57.7406
L18.5109 -57.6743
L18.2206 -57.6038
L17.9289 -57.5291
L17.6359 -57.45
L17.3414 -57.3665
L17.0454 -57.2783
L16.6289 -57.1853
L16.267 -56.9048
L15.9111 -56.5636
L15.5614 -56.216
L15.2179 -55.8624
L14.8807 -55.5026
L14.5499 -55.137
L14.2256 -54.7655
L13.908 -54.3882
L13.5972 -54.0054
L13.2931 -53.6171
L12.996 -53.2235
L12.7059 -52.8245
L12.4228 -52.4205
L12.147 -52.0115
L11.8784 -51.5976
L11.6172 -51.1789
L11.3634 -50.7556
L11.1171 -50.3278
L10.8783 -49.8957
L10.6473 -49.4593
L10.4239 -49.0188
L10.2084 -48.5743
L10.0007 -48.1261
L9.80088 -47.6741
L9.60908 -47.2186
L9.42532 -46.7596
L9.24965 -46.2974
L9.08213 -45.832
L8.92281 -45.3637
L8.77174 -44.8925
L8.62897 -44.4186
L8.49453 -43.9421
L8.36847 -43.4632
L8.25082 -42.982
L8.14163 -42.4987
L8.04092 -42.0134
L7.94873 -41.5263
L7.86509 -41.0375
L7.79002 -40.5472
L7.72353 -40.0555
L7.66567 -39.5625
L7.61643 -39.0685
L7.57584 -38.5735
L7.54391 -38.0778
L7.52064 -37.5814
L7.50605 -37.0845
L7.50014 -36.5873
L7.50291 -36.0899
L7.51436 -35.5925
L7.53449 -35.0952
L7.56329 -34.5982
L7.60075 -34.1017
L7.64687 -33.6057
L7.70162 -33.1104
L7.76498 -32.616
L7.83695 -32.1226
L7.9175 -31.6305
L8.00661 -31.1396
L8.10424 -30.6502
L8.21036 -30.1625
L8.32495 -29.6766
L8.44798 -29.1925
L8.57939 -28.7106
L8.71916 -28.2308
L8.86723 -27.7534
L9.02358 -27.2786
L9.18814 -26.8064
L9.36086 -26.337
L9.5417 -25.8705
L9.7306 -25.4071
L9.92751 -24.947
L10.1324 -24.4902
L10.3451 -24.0369
L10.5656 -23.5873
L10.7939 -23.1415
z
" id="C0_1_0920503ce1"/>
     <path d="
M55.1794 -14.9923
L55.3037 -15.2814
L55.4247 -15.5733
L55.5425 -15.8681
L55.6569 -16.1659
L55.7679 -16.4667
L55.8756 -16.7707
L55.9799 -17.0779
L56.0807 -17.3884
L56.178 -17.7021
L56.2718 -18.0193
L56.362 -18.34
L56.4486 -18.6642
L56.5315 -18.992
L56.6106 -19.3234
L56.6859 -19.6587
L56.7573 -19.9977
L56.8247 -20.3406
L56.8881 -20.6874
L56.9473 -21.0382
L57.0022 -21.393
L57.0529 -21.7519
L57.0991 -22.1149
L57.1408 -22.4821
L57.1779 -22.8536
L57.2102 -23.2292
L57.2377 -23.6092
L57.2602 -23.9934
L57.2777 -24.3819
L57.29 -24.7748
L57.297 -25.1719
L57.2986 -25.5734
L57.2946 -25.9791
L57.2851 -26.389
L57.2698 -26.8031
L57.2486 -27.2214
L57.2216 -27.6437
L57.1884 -28.07
L57.1492 -28.5001
L57.1038 -28.934
L57.0522 -29.3716
L56.9943 -29.8126
L56.9302 -30.2569
L56.8597 -30.7043
L56.783 -31.1546
L56.7002 -31.6076
L56.6113 -32.063
L56.5165 -32.5205
L56.416 -32.9798
L56.3101 -33.4406
L56.1992 -33.9024
L56.0837 -34.3649
L55.9643 -34.8277
L55.8416 -35.2901
L55.7166 -35.7517
L55.5903 -36.2119
L55.4642 -36.6699
L55.3399 -37.1251
L55.2195 -37.5764
L55.1055 -38.0231
L55.0008 -38.4641
L54.9089 -38.8982
L54.8335 -39.3242
L54.7787 -39.741
L54.7485 -40.1475
L54.7464 -40.5426
L54.7748 -40.9261
L54.835 -41.2976
L54.9263 -41.6576
L55.0468 -42.0067
L55.1935 -42.3461
L55.3627 -42.6767
L55.5507 -42.9996
L55.7539 -43.3158
L55.9689 -43.6262
L56.1929 -43.9315
L56.4234 -44.2321
L56.6584 -44.5287
L56.8962 -44.8214
L57.1354 -45.1107
L57.3746 -45.3966
L57.6131 -45.6793
L57.8499 -45.959
L58.0844 -46.2357
L58.3161 -46.5095
L58.5444 -46.7804
L58.769 -47.0485
L58.9896 -47.3138
L59.2058 -47.5763
L59.4176 -47.8361
L59.6248 -48.093
L59.8271 -48.3473
L60.0245 -48.5988
L60.2169 -48.8476
L60.4044 -49.0938
L60.5867 -49.3373
L61.2253 -49.5782
L61.453 -49.2639
L61.6729 -48.8217
L61.885 -48.3755
L62.0891 -47.9256
L62.2854 -47.472
L62.4736 -47.0149
L62.6538 -46.5545
L62.8258 -46.0909
L62.9897 -45.6242
L63.1454 -45.1545
L63.2928 -44.6821
L63.4318 -44.207
L63.5626 -43.7294
L63.6849 -43.2495
L63.7988 -42.7674
L63.9042 -42.2832
L64.0011 -41.7971
L64.0895 -41.3092
L64.1693 -40.8197
L64.2406 -40.3287
L64.3033 -39.8365
L64.3573 -39.343
L64.4027 -38.8485
L64.4394 -38.3532
L64.4675 -37.8571
L64.4869 -37.3605
L64.4976 -36.8635
L64.4997 -36.3662
L64.4931 -35.8688
L64.4778 -35.3714
L64.4538 -34.8742
L64.4211 -34.3774
L64.3798 -33.8811
L64.3299 -33.3854
L64.2713 -32.8905
L64.2041 -32.3965
L64.1283 -31.9037
L64.0439 -31.4121
L63.951 -30.9219
L63.8496 -30.4332
L63.7397 -29.9462
L63.6214 -29.4611
L63.4946 -28.978
L63.3595 -28.497
L63.216 -28.0183
L63.0643 -27.542
L62.9043 -27.0683
L62.7361 -26.5973
L62.5597 -26.1292
L62.3753 -25.6641
L62.1828 -25.2022
L61.9824 -24.7435
L61.774 -24.2883
L61.5578 -23.8366
L61.3338 -23.3886
L61.1021 -22.9445
L60.8628 -22.5043
L60.6159 -22.0683
L60.3614 -21.6365
L60.0996 -21.2091
L59.8304 -20.7862
L59.5539 -20.3679
L59.2703 -19.9544
L58.9796 -19.5458
L58.6819 -19.1421
L58.3773 -18.7437
L58.0658 -18.3504
L57.7477 -17.9626
L57.4229 -17.5802
L57.0916 -17.2035
L56.7539 -16.8325
L56.4098 -16.4673
L56.0595 -16.1081
L55.7032 -15.7549
z
" id="C0_2_b1948c3c39"/>
    </defs>
    <g clip-path="url(#p1bffca34e9)">
     <use style="fill:#ffffff;stroke:#000000;stroke-width:2.0;" x="0.0" xlink:href="#C0_0_a811fe30f3" y="72.0"/>
    </g>
    <g clip-path="url(#p1bffca34e9)">
     <use style="fill:#ff0000;stroke:#000000;stroke-width:2.0;" x="0.0" xlink:href="#C0_1_0920503ce1" y="72.0"/>
    </g>
    <g clip-path="url(#p1bffca34e9)">
     <use style="fill:#ff0000;stroke:#000000;stroke-width:2.0;" x="0.0" xlink:href="#C0_2_b1948c3c39" y="72.0"/>
    </g>
   </g>
  </g>
 </g>
 <defs>
  <clipPath id="p1bffca34e9">
   <rect height="72.0" width="72.0" x="0.0" y="0.0"/>
  </clipPath>
 </defs>
</svg>
