<?xml version="1.0" encoding="utf-8" standalone="no"?>
<!DOCTYPE svg PUBLIC "-//W3C//DTD SVG 1.1//EN"
  "http://www.w3.org/Graphics/SVG/1.1/DTD/svg11.dtd">
<!-- Created with matplotlib (http://matplotlib.org/) -->
<svg height="72pt" version="1.1" viewBox="0 0 72 72" width="72pt" xmlns="http://www.w3.org/2000/svg" xmlns:xlink="http://www.w3.org/1999/xlink">
 <defs>
  <style type="text/css">
*{stroke-linecap:butt;stroke-linejoin:round;}
  </style>
 </defs>
 <g id="figure_1">
  <g id="patch_1">
   <path d="
M0 72
L72 72
L72 0
L0 0
z
" style="fill:none;"/>
  </g>
  <g id="axes_1">
   <g id="PatchCollection_1">
    <defs>
     <path d="
M36 -7.5
C43.5583 -7.5 50.808 -10.5029 56.1525 -15.8475
C61.4971 -21.192 64.5 -28.4417 64.5 -36
C64.5 -43.5583 61.4971 -50.808 56.1525 -56.1525
C50.808 -61.4971 43.5583 -64.5 36 -64.5
C28.4417 -64.5 21.192 -61.4971 15.8475 -56.1525
C10.5029 -50.808 7.5 -43.5583 7.5 -36
C7.5 -28.4417 10.5029 -21.192 15.8475 -15.8475
C21.192 -10.5029 28.4417 -7.5 36 -7.5
z
" id="C0_0_a811fe30f3"/>
     <path d="
M58.1911 -53.8051
L57.9281 -53.8013
L57.6674 -53.7908
L57.4089 -53.7739
L57.1526 -53.7509
L56.8984 -53.7221
L56.6464 -53.6877
L56.3965 -53.648
L56.1487 -53.6031
L55.903 -53.5535
L55.6593 -53.4992
L55.4176 -53.4405
L55.1779 -53.3775
L54.9401 -53.3105
L54.7042 -53.2396
L54.4701 -53.1651
L54.2379 -53.087
L54.0075 -53.0055
L53.7789 -52.9208
L53.5519 -52.8329
L53.3266 -52.7421
L53.103 -52.6484
L52.881 -52.552
L52.6606 -52.4529
L52.4416 -52.3513
L52.2242 -52.2472
L52.0082 -52.1407
L51.7937 -52.032
L51.5805 -51.9211
L51.3687 -51.8081
L51.1581 -51.693
L50.9489 -51.5759
L50.7408 -51.4569
L50.534 -51.336
L50.3283 -51.2133
L50.1238 -51.0888
L49.9203 -50.9625
L49.7179 -50.8346
L49.5166 -50.705
L49.3162 -50.5738
L49.1168 -50.441
L48.9183 -50.3066
L48.7206 -50.1707
L48.5239 -50.0333
L48.3279 -49.8943
L48.1328 -49.7539
L47.9384 -49.612
L47.7447 -49.4687
L47.5518 -49.3239
L47.3595 -49.1777
L47.1678 -49.0301
L46.9768 -48.8811
L46.7864 -48.7306
L46.5965 -48.5787
L46.4071 -48.4254
L46.2183 -48.2707
L45.8419 -48.1145
L45.6544 -47.9569
L45.4673 -47.7979
L45.2806 -47.6375
L45.0943 -47.4756
L44.9082 -47.3122
L44.7225 -47.1474
L44.5371 -46.981
L44.3519 -46.8132
L44.167 -46.6438
L43.9824 -46.473
L43.7979 -46.3005
L43.6137 -46.1265
L43.4297 -45.9509
L43.2458 -45.7737
L43.0621 -45.5949
L42.8785 -45.4144
L42.6951 -45.2323
L42.5119 -45.0485
L42.3287 -44.8629
L42.1457 -44.6756
L41.9628 -44.4865
L41.78 -44.2957
L41.5973 -44.103
L41.4147 -43.9085
L41.2323 -43.7121
L41.0499 -43.5139
L40.8677 -43.3137
L40.6857 -43.1115
L40.5038 -42.9074
L40.322 -42.7013
L40.1405 -42.4931
L39.9591 -42.2829
L39.7779 -42.0706
L39.597 -41.8562
L39.4164 -41.6397
L39.2361 -41.421
L39.0561 -41.2001
L38.8765 -40.9771
L38.6974 -40.7518
L38.5187 -40.5242
L38.3405 -40.2944
L38.163 -40.0622
L37.986 -39.8278
L37.8098 -39.591
L37.6344 -39.3519
L37.4598 -39.1105
L37.2861 -38.8666
L37.1135 -38.6204
L36.942 -38.3718
L36.7717 -38.1207
L36.6027 -37.8673
L36.4352 -37.6115
L36.2692 -37.3532
L36.1049 -37.0926
L35.9424 -36.8295
L35.7819 -36.5641
L35.6235 -36.2963
L35.4673 -36.0262
L35.3136 -35.7537
L35.1625 -35.4789
L35.0141 -35.2018
L34.8687 -34.9224
L34.7265 -34.6409
L34.5877 -34.3571
L34.4524 -34.0713
L34.3209 -33.7833
L34.1934 -33.4933
L34.0702 -33.2014
L33.9514 -32.9075
L33.8374 -32.6118
L33.7283 -32.3144
L33.6244 -32.0152
L33.526 -31.7145
L33.4333 -31.4123
L33.3465 -31.1087
L33.266 -30.8038
L33.1919 -30.4978
L33.1245 -30.1906
L33.0641 -29.8826
L33.0108 -29.5737
L32.9649 -29.2641
L32.9266 -28.954
L32.8961 -28.6435
L32.8735 -28.3328
L32.8591 -28.0219
L32.8529 -27.7112
L32.8552 -27.4006
L32.866 -27.0905
L32.8853 -26.781
L32.9134 -26.4722
L32.9502 -26.1643
L32.9957 -25.8576
L33.0499 -25.5521
L33.1128 -25.2481
L33.1844 -24.9458
L33.2645 -24.6452
L33.3532 -24.3467
L33.4502 -24.0504
L33.5555 -23.7564
L33.6689 -23.4649
L33.7902 -23.1762
L33.9192 -22.8902
L34.0558 -22.6073
L34.1998 -22.3276
L34.3509 -22.0512
L34.509 -21.7782
L34.6737 -21.5087
L34.845 -21.243
L35.0224 -20.9811
L35.2058 -20.7232
L35.395 -20.4692
L35.5897 -20.2194
L35.7897 -19.9739
L35.9948 -19.7326
L36.2046 -19.4957
L36.419 -19.2633
L36.6378 -19.0353
L36.8608 -18.812
L37.0876 -18.5932
L37.3182 -18.3791
L37.5523 -18.1697
L37.7898 -17.965
L38.0303 -17.765
L38.2739 -17.5698
L38.5202 -17.3794
L38.7691 -17.1938
L39.0206 -17.0129
L39.2743 -16.8369
L39.5302 -16.6656
L39.7881 -16.4992
L40.0479 -16.3375
L40.3095 -16.1805
L40.5727 -16.0284
L40.8375 -15.8809
L41.1038 -15.7382
L41.3713 -15.6002
L41.6402 -15.4668
L41.9101 -15.3381
L42.1812 -15.2141
L42.4532 -15.0946
L42.7262 -14.9798
L43.0001 -14.8694
L43.2748 -14.7637
L43.5502 -14.6624
L43.8263 -14.5656
L44.103 -14.4733
L44.3804 -14.3854
L44.6583 -14.3019
L44.9367 -14.2229
L45.2157 -14.1481
L45.4951 -14.0778
L45.7749 -14.0118
L46.0552 -13.95
L46.3358 -13.8926
L46.6168 -13.8395
L46.8982 -13.7907
L47.1799 -13.7461
L47.4619 -13.7057
L47.7443 -13.6697
L48.027 -13.6378
L48.31 -13.6102
L48.5933 -13.5869
L48.8768 -13.5678
L49.1607 -13.5529
L49.4449 -13.5423
L49.7294 -13.536
L50.0143 -13.5339
L50.2994 -13.5362
L50.5848 -13.5427
L50.8705 -13.5536
L51.1566 -13.5689
L51.443 -13.5886
L51.7297 -13.6126
L52.0168 -13.6412
L52.3042 -13.6742
L52.5919 -13.7117
L52.88 -13.7538
L53.1685 -13.8006
L53.4573 -13.852
L53.7465 -13.9081
L54.0361 -13.9691
L54.4677 -14.0348
L54.8437 -14.293
L55.214 -14.6186
L55.5784 -14.9507
L55.9369 -15.2893
L56.2893 -15.6341
L56.6355 -15.9852
L56.9755 -16.3423
L57.309 -16.7054
L57.6361 -17.0745
L57.9565 -17.4492
L58.2703 -17.8297
L58.5773 -18.2156
L58.8774 -18.607
L59.1705 -19.0037
L59.4566 -19.4055
L59.7356 -19.8124
L60.0073 -20.2243
L60.2717 -20.6409
L60.5287 -21.0622
L60.7782 -21.4881
L61.0202 -21.9184
L61.2545 -22.353
L61.4812 -22.7917
L61.7001 -23.2345
L61.9112 -23.6812
L62.1144 -24.1316
L62.3096 -24.5856
L62.4968 -25.0431
L62.676 -25.5039
L62.847 -25.9679
L63.0098 -26.435
L63.1645 -26.905
L63.3108 -27.3778
L63.4488 -27.8532
L63.5785 -28.3311
L63.6997 -28.8113
L63.8126 -29.2937
L63.9169 -29.7782
L64.0128 -30.2645
L64.1001 -30.7526
L64.1788 -31.2423
L64.249 -31.7334
L64.3106 -32.2259
L64.3635 -32.7194
L64.4078 -33.214
L64.4435 -33.7095
L64.4704 -34.2056
L64.4888 -34.7023
L64.4984 -35.1994
L64.4993 -35.6967
L64.4916 -36.1941
L64.4752 -36.6914
L64.4501 -37.1886
L64.4164 -37.6854
L64.374 -38.1816
L64.3229 -38.6772
L64.2633 -39.172
L64.195 -39.6658
L64.1181 -40.1585
L64.0327 -40.65
L63.9387 -41.14
L63.8362 -41.6284
L63.7252 -42.1152
L63.6058 -42.6001
L63.478 -43.0829
L63.3418 -43.5636
L63.1973 -44.042
L63.0445 -44.518
L62.8835 -44.9914
L62.7142 -45.462
L62.5369 -45.9297
L62.3514 -46.3944
L62.1579 -46.856
L61.9565 -47.3142
L61.7471 -47.769
L61.53 -48.2202
L61.305 -48.6677
L61.0723 -49.1114
L60.832 -49.551
L60.5841 -49.9865
L60.3287 -50.4178
L60.066 -50.8446
L59.7959 -51.2669
L59.5185 -51.6846
L59.234 -52.0975
L58.9424 -52.5055
L58.6438 -52.9085
z
" id="C0_1_956604b59d"/>
     <path d="
M17.7407 -57.8148
L17.6201 -57.5418
L17.5022 -57.2676
L17.3871 -56.9922
L17.2748 -56.7157
L17.1651 -56.4379
L17.0581 -56.1589
L16.9538 -55.8786
L16.852 -55.597
L16.7529 -55.3141
L16.6563 -55.0298
L16.5622 -54.7442
L16.4706 -54.4571
L16.3816 -54.1686
L16.295 -53.8787
L16.2109 -53.5873
L16.1292 -53.2943
L16.0499 -52.9999
L15.9731 -52.7038
L15.8987 -52.4062
L15.8267 -52.1069
L15.7571 -51.806
L15.6898 -51.5034
L15.625 -51.1991
L15.5624 -50.8931
L15.5023 -50.5853
L15.4445 -50.2758
L15.389 -49.9644
L15.3359 -49.6513
L15.2852 -49.3363
L15.2367 -49.0195
L15.1906 -48.7008
L15.1468 -48.3802
L15.1054 -48.0577
L15.0662 -47.7333
L15.0294 -47.407
L14.9949 -47.0787
L14.9626 -46.7486
L14.9327 -46.4164
L14.9051 -46.0824
L14.8797 -45.7464
L14.8565 -45.4084
L14.8357 -45.0686
L14.817 -44.7268
L14.8006 -44.3832
L14.7863 -44.0376
L14.7742 -43.6902
L14.7642 -43.3409
L14.7564 -42.9899
L14.7506 -42.637
L14.7469 -42.2824
L14.7451 -41.9262
L14.7453 -41.5682
L14.7473 -41.2087
L14.7512 -40.8476
L14.7569 -40.485
L14.7643 -40.121
L14.7732 -39.7556
L14.7837 -39.3889
L14.7957 -39.021
L14.809 -38.652
L14.8236 -38.282
L14.8392 -37.911
L14.8559 -37.5391
L14.8735 -37.1665
L14.8919 -36.7932
L14.9109 -36.4193
L14.9303 -36.045
L14.9501 -35.6704
L14.9701 -35.2956
L14.99 -34.9208
L15.0098 -34.5459
L15.0293 -34.1712
L15.0482 -33.7968
L15.0664 -33.4228
L15.0838 -33.0494
L15.1002 -32.6766
L15.1153 -32.3047
L15.129 -31.9336
L15.1411 -31.5636
L15.1516 -31.1949
L15.1601 -30.8274
L15.1666 -30.4613
L15.171 -30.0968
L15.173 -29.7339
L15.1727 -29.3728
L15.1698 -29.0136
L15.1644 -28.6564
L15.1563 -28.3012
L15.1455 -27.9483
L15.1319 -27.5975
L15.1156 -27.2492
L15.0965 -26.9032
L15.0747 -26.5598
L15.0502 -26.2189
L15.023 -25.8807
L14.9932 -25.5452
L14.9608 -25.2124
L14.926 -24.8825
L14.8889 -24.5554
L14.8495 -24.2312
L14.8079 -23.9099
L14.7644 -23.5917
L14.719 -23.2764
L14.6718 -22.9642
L14.623 -22.6551
L14.5728 -22.349
L14.5212 -22.046
L14.4684 -21.7462
L14.4146 -21.4495
L14.3598 -21.1559
L14.3043 -20.8655
L14.2481 -20.5782
L14.1914 -20.2941
L14.1343 -20.0131
L14.0769 -19.7353
L14.0193 -19.4606
L13.9617 -19.189
L13.9041 -18.9206
L13.8467 -18.6552
L13.3607 -18.393
L13.0621 -18.6877
L12.7703 -19.0855
L12.4857 -19.4884
L12.2083 -19.8963
L11.938 -20.3092
L11.6751 -20.7268
L11.4197 -21.149
L11.1717 -21.5758
L10.9312 -22.007
L10.6984 -22.4424
L10.4734 -22.882
L10.256 -23.3256
L10.0466 -23.773
L9.84502 -24.2242
L9.65142 -24.6789
L9.46585 -25.1371
L9.28836 -25.5986
L9.11901 -26.0633
L8.95785 -26.531
L8.80492 -27.0016
L8.66028 -27.4749
L8.52396 -27.9508
L8.39602 -28.4292
L8.27648 -28.9098
L8.16539 -29.3927
L8.06278 -29.8775
L7.96868 -30.3642
L7.88311 -30.8527
L7.80611 -31.3427
L7.7377 -31.8341
L7.6779 -32.3268
L7.62673 -32.8206
L7.58419 -33.3154
L7.55032 -33.8109
L7.52511 -34.3072
L7.50857 -34.804
L7.50071 -35.3011
L7.50154 -35.7985
L7.51104 -36.2959
L7.52922 -36.7932
L7.55608 -37.2903
L7.5916 -37.787
L7.63577 -38.2831
L7.68858 -38.7786
L7.75002 -39.2732
L7.82006 -39.7668
L7.89868 -40.2592
L7.98587 -40.7504
L8.08159 -41.2401
L8.18581 -41.7282
L8.29851 -42.2146
L8.41964 -42.699
L8.54917 -43.1815
L8.68707 -43.6617
L8.83329 -44.1397
L8.98778 -44.6151
L9.1505 -45.0879
L9.3214 -45.5579
L9.50042 -46.0251
L9.68752 -46.4892
L9.88263 -46.95
L10.0857 -47.4076
L10.2967 -47.8617
L10.5155 -48.3121
L10.742 -48.7588
L10.9763 -49.2017
L11.2181 -49.6405
L11.4675 -50.0751
L11.7244 -50.5055
L11.9887 -50.9314
L12.2603 -51.3528
L12.5392 -51.7695
L12.8251 -52.1814
L13.1182 -52.5884
L13.4182 -52.9903
L13.7251 -53.3871
L14.0387 -53.7786
L14.3591 -54.1646
L14.686 -54.5451
L15.0195 -54.92
L15.3593 -55.2891
L15.7055 -55.6523
L16.0578 -56.0095
L16.4161 -56.3607
L16.7805 -56.7056
L17.1507 -57.0442
z
" id="C0_2_8db1c12a2c"/>
    </defs>
    <g clip-path="url(#p1bffca34e9)">
     <use style="fill:#ff0000;stroke:#000000;stroke-width:2.0;" x="0.0" xlink:href="#C0_0_a811fe30f3" y="72.0"/>
    </g>
    <g clip-path="url(#p1bffca34e9)">
     <use style="fill:#ffffff;stroke:#000000;stroke-width:2.0;" x="0.0" xlink:href="#C0_1_956604b59d" y="72.0"/>
    </g>
    <g clip-path="url(#p1bffca34e9)">
     <use style="fill:#ffffff;stroke:#000000;stroke-width:2.0;" x="0.0" xlink:href="#C0_2_8db1c12a2c" y="72.0"/>
    </g>
   </g>
  </g>
 </g>
 <defs>
  <clipPath id="p1bffca34e9">
   <rect height="72.0" width="72.0" x="0.0" y="0.0"/>
  </clipPath>
 </defs>
</svg>
