<?xml version="1.0" encoding="utf-8" standalone="no"?>
<!DOCTYPE svg PUBLIC "-//W3C//DTD SVG 1.1//EN"
  "http://www.w3.org/Graphics/SVG/1.1/DTD/svg11.dtd">
<!-- Created with matplotlib (http://matplotlib.org/) -->
<svg height="72pt" version="1.1" viewBox="0 0 72 72" width="72pt" xmlns="http://www.w3.org/2000/svg" xmlns:xlink="http://www.w3.org/1999/xlink">
 <defs>
  <style type="text/css">
*{stroke-linecap:butt;stroke-linejoin:round;}
  </style>
 </defs>
 <g id="figure_1">
  <g id="patch_1">
   <path d="
M0 72
L72 72
L72 0
L0 0
z
" style="fill:none;"/>
  </g>
  <g id="axes_1">
   <g id="PatchCollection_1">
    <defs>
     <path d="
M36 -7.5
C43.5583 -7.5 50.808 -10.5029 56.1525 -15.8475
C61.4971 -21.192 64.5 -28.4417 64.5 -36
C64.5 -43.5583 61.4971 -50.808 56.1525 -56.1525
C50.808 -61.4971 43.5583 -64.5 36 -64.5
C28.4417 -64.5 21.192 -61.4971 15.8475 -56.1525
C10.5029 -50.808 7.5 -43.5583 7.5 -36
C7.5 -28.4417 10.5029 -21.192 15.8475 -15.8475
C21.192 -10.5029 28.4417 -7.5 36 -7.5
z
" id="C0_0_a811fe30f3"/>
     <path d="
M8.30498 -42.3559
L8.5212 -42.2321
L8.73603 -42.0932
L8.94968 -41.9401
L9.16236 -41.7739
L9.37427 -41.5958
L9.58563 -41.4068
L9.79664 -41.208
L10.0075 -41.0002
L10.2184 -40.7846
L10.4294 -40.562
L10.6408 -40.3332
L10.8526 -40.0991
L11.0649 -39.8604
L11.2779 -39.6178
L11.4915 -39.372
L11.7059 -39.1236
L11.9211 -38.8731
L12.1371 -38.621
L12.354 -38.3678
L12.5716 -38.114
L12.79 -37.8598
L13.0093 -37.6057
L13.2292 -37.352
L13.45 -37.0989
L13.6714 -36.8467
L13.8934 -36.5956
L14.1161 -36.3459
L14.3394 -36.0977
L14.5631 -35.8512
L14.7873 -35.6065
L15.012 -35.3637
L15.237 -35.1229
L15.4624 -34.8843
L15.688 -34.6479
L15.9139 -34.4138
L16.14 -34.182
L16.3663 -33.9525
L16.5927 -33.7255
L16.8192 -33.5009
L17.0458 -33.2787
L17.2724 -33.0589
L17.499 -32.8416
L17.7257 -32.6268
L17.9523 -32.4144
L18.1788 -32.2045
L18.4053 -31.9969
L18.6317 -31.7918
L18.858 -31.589
L19.0842 -31.3886
L19.3103 -31.1905
L19.5364 -30.9947
L19.7623 -30.8012
L19.9881 -30.6098
L20.2138 -30.4207
L20.4395 -30.2337
L20.665 -30.0489
L20.8905 -29.8661
L21.116 -29.6854
L21.3413 -29.5066
L21.5667 -29.3298
L21.792 -29.155
L22.0174 -28.982
L22.2428 -28.8109
L22.4682 -28.6416
L22.6937 -28.474
L22.9192 -28.3082
L23.1449 -28.1441
L23.3708 -27.9816
L23.5968 -27.8207
L23.823 -27.6614
L24.0494 -27.5037
L24.2761 -27.3474
L24.5031 -27.1926
L24.7305 -27.0392
L24.9582 -26.8872
L25.1862 -26.7366
L25.4148 -26.5873
L25.6438 -26.4394
L25.8732 -26.2926
L26.1033 -26.1471
L26.3339 -26.0028
L26.5651 -25.8597
L27.0296 -25.7178
L27.263 -25.5769
L27.4971 -25.4372
L27.732 -25.2985
L27.9679 -25.1608
L28.2046 -25.0242
L28.4423 -24.8885
L28.681 -24.7539
L28.9207 -24.6201
L29.1616 -24.4874
L29.4036 -24.3555
L29.6467 -24.2245
L29.8911 -24.0944
L30.1368 -23.9651
L30.3838 -23.8367
L30.6322 -23.7091
L30.8819 -23.5823
L31.1332 -23.4564
L31.386 -23.3312
L31.6403 -23.2068
L31.8963 -23.0831
L32.1539 -22.9602
L32.4132 -22.8381
L32.6742 -22.7167
L32.9371 -22.5961
L33.2018 -22.4762
L33.4683 -22.3571
L33.7368 -22.2386
L34.0073 -22.121
L34.2798 -22.004
L34.5544 -21.8878
L34.831 -21.7723
L35.1098 -21.6576
L35.3907 -21.5436
L35.6738 -21.4304
L35.9592 -21.3179
L36.2468 -21.2062
L36.5367 -21.0953
L36.8289 -20.9852
L37.1235 -20.8759
L37.4203 -20.7674
L37.7196 -20.6597
L38.0211 -20.5529
L38.3251 -20.4469
L38.6314 -20.3417
L38.94 -20.2375
L39.251 -20.1341
L39.5643 -20.0317
L39.8798 -19.9301
L40.1976 -19.8295
L40.5175 -19.7298
L40.8396 -19.631
L41.1637 -19.5332
L41.4898 -19.4363
L41.8178 -19.3404
L42.1476 -19.2453
L42.479 -19.1512
L42.8119 -19.058
L43.1462 -18.9656
L43.4817 -18.8741
L43.8182 -18.7833
L44.1555 -18.6933
L44.4934 -18.6039
L44.8316 -18.5151
L45.1699 -18.4268
L45.5079 -18.3388
L45.8454 -18.2511
L46.182 -18.1634
L46.5173 -18.0756
L46.8508 -17.9876
L47.1823 -17.899
L47.5111 -17.8096
L47.8368 -17.7191
L48.1588 -17.6273
L48.4766 -17.5337
L48.7896 -17.438
L49.0971 -17.3397
L49.3985 -17.2385
L49.693 -17.1338
L49.98 -17.0252
L50.2586 -16.9121
L50.5283 -16.7939
L50.7881 -16.67
L51.0373 -16.54
L51.2752 -16.4032
L51.501 -16.2591
L51.714 -16.1072
L51.9136 -15.9469
L52.099 -15.7779
L52.2696 -15.5997
L52.4251 -15.412
L52.5648 -15.2147
L52.6884 -15.0075
L52.7957 -14.7904
L52.8863 -14.5636
L52.96 -14.3271
L53.0169 -14.0811
L53.0568 -13.826
L53.0798 -13.5623
L52.7303 -13.2902
L52.3251 -12.9274
L51.9149 -12.6389
L51.4999 -12.3575
L51.0801 -12.0834
L50.6557 -11.8165
L50.2269 -11.557
L49.7938 -11.305
L49.3564 -11.0604
L48.915 -10.8235
L48.4696 -10.5942
L48.0205 -10.3727
L47.5677 -10.159
L47.1113 -9.95313
L46.6516 -9.75522
L46.1886 -9.56529
L45.7225 -9.38342
L45.2535 -9.20966
L44.7817 -9.04406
L44.3071 -8.88667
L43.8301 -8.73754
L43.3506 -8.59671
L42.8689 -8.46423
L42.3852 -8.34014
L41.8994 -8.22447
L41.4119 -8.11727
L40.9227 -8.01856
L40.4321 -7.92837
L39.9401 -7.84673
L39.4468 -7.77367
L38.9526 -7.7092
L38.4574 -7.65335
L37.9615 -7.60614
L37.465 -7.56758
L36.968 -7.53768
L36.4708 -7.51644
L35.9734 -7.50389
L35.476 -7.50001
L34.9787 -7.50482
L34.4818 -7.5183
L33.9854 -7.54046
L33.4895 -7.57129
L32.9945 -7.61078
L32.5003 -7.65892
L32.0072 -7.71569
L31.5153 -7.78108
L31.0248 -7.85506
L30.5358 -7.93762
L30.0485 -8.02872
L29.5629 -8.12834
L29.0794 -8.23646
L28.5979 -8.35303
L28.1187 -8.47802
L27.6419 -8.61139
L27.1677 -8.75311
L26.6961 -8.90313
L26.2274 -9.0614
L25.7617 -9.22788
L25.299 -9.40251
L24.8397 -9.58525
L24.3837 -9.77603
L23.9312 -9.9748
L23.4825 -10.1815
L23.0375 -10.3961
L22.5966 -10.6184
L22.1596 -10.8485
L21.7269 -11.0863
L21.2986 -11.3316
L20.8747 -11.5845
L20.4555 -11.8448
L20.0409 -12.1124
L19.6313 -12.3873
L19.2266 -12.6695
L18.827 -12.9587
L18.4327 -13.2549
L18.0437 -13.5581
L17.6602 -13.8681
L17.2822 -14.1849
L16.91 -14.5083
L16.5436 -14.8382
L16.1831 -15.1746
L15.8286 -15.5173
L15.4803 -15.8663
L15.1383 -16.2214
L14.8026 -16.5825
L14.4733 -16.9496
L14.1506 -17.3224
L13.8346 -17.701
L13.5253 -18.0851
L13.2229 -18.4746
L12.9274 -18.8695
L12.6389 -19.2697
L12.3575 -19.6749
L12.0834 -20.0851
L11.8165 -20.5001
L11.557 -20.9199
L11.305 -21.3443
L11.0604 -21.7731
L10.8235 -22.2062
L10.5942 -22.6436
L10.3727 -23.085
L10.159 -23.5304
L9.95313 -23.9795
L9.75522 -24.4323
L9.56529 -24.8887
L9.38342 -25.3484
L9.20966 -25.8114
L9.04406 -26.2775
L8.88667 -26.7465
L8.73754 -27.2183
L8.59671 -27.6929
L8.46423 -28.1699
L8.34014 -28.6494
L8.22447 -29.1311
L8.11727 -29.6148
L8.01856 -30.1006
L7.92837 -30.5881
L7.84673 -31.0773
L7.77367 -31.5679
L7.7092 -32.0599
L7.65335 -32.5532
L7.60614 -33.0474
L7.56758 -33.5426
L7.53768 -34.0385
L7.51644 -34.535
L7.50389 -35.032
L7.50001 -35.5292
L7.50482 -36.0266
L7.5183 -36.524
L7.54046 -37.0213
L7.57129 -37.5182
L7.61078 -38.0146
L7.65892 -38.5105
L7.71569 -39.0055
L7.78108 -39.4997
L7.85506 -39.9928
L7.93762 -40.4847
L8.02872 -40.9752
z
" id="C0_1_5639aa4066"/>
     <path d="
M19.0856 -58.7587
L19.3628 -58.6791
L19.6497 -58.6049
L19.9454 -58.5354
L20.2492 -58.4697
L20.5603 -58.4074
L20.8779 -58.3477
L21.2013 -58.2901
L21.5297 -58.2341
L21.8626 -58.1791
L22.1993 -58.1248
L22.5392 -58.0707
L22.8818 -58.0164
L23.2266 -57.9617
L23.573 -57.9062
L23.9208 -57.8497
L24.2693 -57.7921
L24.6183 -57.7331
L24.9675 -57.6726
L25.3165 -57.6104
L25.665 -57.5464
L26.0127 -57.4807
L26.3595 -57.413
L26.705 -57.3433
L27.0492 -57.2717
L27.3917 -57.1981
L27.7326 -57.1224
L28.0715 -57.0447
L28.4085 -56.965
L28.7433 -56.8833
L29.076 -56.7997
L29.4063 -56.714
L29.7343 -56.6265
L30.0599 -56.537
L30.383 -56.4457
L30.7035 -56.3525
L31.0216 -56.2575
L31.3371 -56.1608
L31.65 -56.0624
L31.9603 -55.9623
L32.268 -55.8606
L32.5732 -55.7572
L32.8757 -55.6523
L33.1757 -55.5459
L33.4732 -55.4379
L33.7681 -55.3285
L34.0605 -55.2177
L34.3505 -55.1054
L34.638 -54.9918
L34.9232 -54.8768
L35.2059 -54.7605
L35.4863 -54.6429
L35.7645 -54.5241
L36.0404 -54.4039
L36.3141 -54.2826
L36.5856 -54.1599
L36.855 -54.0361
L37.1224 -53.9111
L37.3877 -53.7849
L37.6511 -53.6575
L37.9125 -53.5289
L38.1721 -53.3991
L38.4298 -53.2682
L38.6858 -53.1361
L38.94 -53.0029
L39.1926 -52.8684
L39.4435 -52.7328
L39.6929 -52.5961
L39.9407 -52.4581
L40.1871 -52.3189
L40.432 -52.1786
L40.6755 -52.037
L40.9177 -51.8942
L41.1587 -51.7501
L41.3983 -51.6048
L41.6368 -51.4583
L41.8741 -51.3104
L42.1103 -51.1612
L42.3455 -51.0107
L42.5796 -50.8588
L42.8128 -50.7056
L43.0451 -50.551
L43.2764 -50.3949
L43.5069 -50.2374
L43.7366 -50.0784
L43.9656 -49.9179
L44.1938 -49.7559
L44.4213 -49.5923
L44.6482 -49.4271
L44.8744 -49.2602
L45.1001 -49.0917
L45.3252 -48.9215
L45.5498 -48.7495
L45.774 -48.5757
L45.9977 -48.4002
L46.2209 -48.2228
L46.4438 -48.0434
L46.6664 -47.8622
L46.8886 -47.6789
L47.1105 -47.4937
L47.3321 -47.3063
L47.5534 -47.1169
L47.7746 -46.9253
L47.9955 -46.7315
L48.2162 -46.5355
L48.4368 -46.3372
L48.6572 -46.1365
L48.8774 -45.9335
L49.0975 -45.728
L49.3175 -45.5201
L49.5374 -45.3096
L49.7572 -45.0966
L49.9769 -44.881
L50.1964 -44.6628
L50.4159 -44.4418
L50.6354 -44.2182
L50.8547 -43.9917
L51.0739 -43.7625
L51.293 -43.5304
L51.512 -43.2954
L51.7308 -43.0575
L51.9495 -42.8167
L52.1681 -42.573
L52.3865 -42.3262
L52.6046 -42.0765
L52.8226 -41.8237
L53.0403 -41.568
L53.2577 -41.3092
L53.4748 -41.0475
L53.6916 -40.7828
L53.908 -40.5151
L54.124 -40.2444
L54.3395 -39.9709
L54.5546 -39.6946
L54.7691 -39.4155
L54.983 -39.1337
L55.1963 -38.8493
L55.409 -38.5625
L55.621 -38.2732
L55.8322 -37.9818
L56.0427 -37.6883
L56.2524 -37.393
L56.4612 -37.096
L56.6692 -36.7976
L56.8764 -36.498
L57.0826 -36.1975
L57.288 -35.8965
L57.4925 -35.5953
L57.6961 -35.2942
L57.899 -34.9938
L58.1011 -34.6944
L58.3024 -34.3966
L58.5032 -34.1009
L58.7034 -33.8079
L58.9033 -33.5182
L59.1028 -33.2325
L59.3023 -32.9515
L59.5019 -32.676
L59.7018 -32.4067
L59.9022 -32.1446
L60.1034 -31.8904
L60.3056 -31.645
L60.5091 -31.4095
L60.7141 -31.1846
L60.921 -30.9714
L61.13 -30.7707
L61.3414 -30.5835
L61.5554 -30.4106
L61.7722 -30.2527
L61.992 -30.1107
L62.2148 -29.9853
L62.4409 -29.8769
L62.6701 -29.7861
L62.9025 -29.7133
L63.1379 -29.6587
L63.3762 -29.6227
L63.8733 -29.6051
L63.9728 -30.0564
L64.0638 -30.5437
L64.1462 -31.0327
L64.2201 -31.5233
L64.2853 -32.0152
L64.3419 -32.5083
L64.3899 -33.0025
L64.4293 -33.4976
L64.46 -33.9934
L64.482 -34.4899
L64.4953 -34.9868
L64.5 -35.484
L64.496 -35.9814
L64.4833 -36.4788
L64.4619 -36.9761
L64.4319 -37.473
L64.3932 -37.9695
L64.3458 -38.4654
L64.2898 -38.9606
L64.2252 -39.4548
L64.152 -39.948
L64.0702 -40.44
L63.9799 -40.9307
L63.8811 -41.4198
L63.7737 -41.9073
L63.6579 -42.393
L63.5337 -42.8768
L63.4011 -43.3584
L63.2601 -43.8378
L63.1108 -44.3148
L62.9533 -44.7893
L62.7876 -45.2611
L62.6137 -45.7301
L62.4317 -46.1962
L62.2416 -46.6591
L62.0436 -47.1187
L61.8376 -47.575
L61.6238 -48.0278
L61.4021 -48.4769
L61.1727 -48.9222
L60.9357 -49.3635
L60.691 -49.8008
L60.4388 -50.2339
L60.1792 -50.6627
L59.9122 -51.087
L59.6379 -51.5066
L59.3565 -51.9216
L59.0679 -52.3317
L58.7723 -52.7369
L58.4697 -53.1369
L58.1603 -53.5317
L57.8442 -53.9212
L57.5214 -54.3052
L57.192 -54.6837
L56.8562 -55.0564
L56.5141 -55.4234
L56.1657 -55.7844
L55.8111 -56.1394
L55.4505 -56.4883
L55.084 -56.8309
L54.7117 -57.1672
L54.3337 -57.497
L53.9501 -57.8203
L53.561 -58.137
L53.1666 -58.4469
L52.7669 -58.7499
L52.3621 -59.0461
L51.9524 -59.3352
L51.5378 -59.6172
L51.1184 -59.892
L50.6945 -60.1595
L50.2661 -60.4197
L49.8333 -60.6724
L49.3963 -60.9177
L48.9553 -61.1553
L48.5103 -61.3853
L48.0614 -61.6075
L47.609 -61.8219
L47.1529 -62.0285
L46.6935 -62.2271
L46.2308 -62.4178
L45.765 -62.6004
L45.2962 -62.7749
L44.8246 -62.9412
L44.3503 -63.0994
L43.8735 -63.2493
L43.3943 -63.3908
L42.9128 -63.5241
L42.4292 -63.6489
L41.9436 -63.7654
L41.4563 -63.8733
L40.9673 -63.9728
L40.4767 -64.0638
L39.9848 -64.1462
L39.4917 -64.2201
L38.9975 -64.2853
L38.5024 -64.3419
L38.0066 -64.3899
L37.5101 -64.4293
L37.0132 -64.46
L36.516 -64.482
L36.0186 -64.4953
L35.5212 -64.5
L35.0239 -64.496
L34.527 -64.4833
L34.0305 -64.4619
L33.5346 -64.4319
L33.0394 -64.3932
L32.5452 -64.3458
L32.052 -64.2898
L31.56 -64.2252
L31.0693 -64.152
L30.5802 -64.0702
L30.0927 -63.9799
L29.607 -63.8811
L29.1232 -63.7737
L28.6416 -63.6579
L28.1622 -63.5337
L27.6852 -63.4011
L27.2107 -63.2601
L26.7389 -63.1108
L26.2699 -62.9533
L25.8038 -62.7876
L25.3409 -62.6137
L24.8813 -62.4317
L24.425 -62.2416
L23.9722 -62.0436
L23.5231 -61.8376
L23.0778 -61.6238
L22.6365 -61.4021
L22.1992 -61.1727
L21.7661 -60.9357
L21.3373 -60.691
L20.913 -60.4388
L20.4934 -60.1792
L20.0784 -59.9122
L19.6683 -59.6379
z
" id="C0_2_1754c2a000"/>
    </defs>
    <g clip-path="url(#p1bffca34e9)">
     <use style="fill:#ff0000;stroke:#000000;stroke-width:2.0;" x="0.0" xlink:href="#C0_0_a811fe30f3" y="72.0"/>
    </g>
    <g clip-path="url(#p1bffca34e9)">
     <use style="fill:#ffffff;stroke:#000000;stroke-width:2.0;" x="0.0" xlink:href="#C0_1_5639aa4066" y="72.0"/>
    </g>
    <g clip-path="url(#p1bffca34e9)">
     <use style="fill:#ffffff;stroke:#000000;stroke-width:2.0;" x="0.0" xlink:href="#C0_2_1754c2a000" y="72.0"/>
    </g>
   </g>
  </g>
 </g>
 <defs>
  <clipPath id="p1bffca34e9">
   <rect height="72.0" width="72.0" x="0.0" y="0.0"/>
  </clipPath>
 </defs>
</svg>
