<?xml version="1.0" encoding="utf-8" standalone="no"?>
<!DOCTYPE svg PUBLIC "-//W3C//DTD SVG 1.1//EN"
  "http://www.w3.org/Graphics/SVG/1.1/DTD/svg11.dtd">
<!-- Created with matplotlib (http://matplotlib.org/) -->
<svg height="72pt" version="1.1" viewBox="0 0 72 72" width="72pt" xmlns="http://www.w3.org/2000/svg" xmlns:xlink="http://www.w3.org/1999/xlink">
 <defs>
  <style type="text/css">
*{stroke-linecap:butt;stroke-linejoin:round;}
  </style>
 </defs>
 <g id="figure_1">
  <g id="patch_1">
   <path d="
M0 72
L72 72
L72 0
L0 0
z
" style="fill:none;"/>
  </g>
  <g id="axes_1">
   <g id="PatchCollection_1">
    <defs>
     <path d="
M36 -7.5
C43.5583 -7.5 50.808 -10.5029 56.1525 -15.8475
C61.4971 -21.192 64.5 -28.4417 64.5 -36
C64.5 -43.5583 61.4971 -50.808 56.1525 -56.1525
C50.808 -61.4971 43.5583 -64.5 36 -64.5
C28.4417 -64.5 21.192 -61.4971 15.8475 -56.1525
C10.5029 -50.808 7.5 -43.5583 7.5 -36
C7.5 -28.4417 10.5029 -21.192 15.8475 -15.8475
C21.192 -10.5029 28.4417 -7.5 36 -7.5
z
" id="C0_0_a811fe30f3"/>
     <path d="
M7.76306 -38.7641
L7.95679 -38.8642
L8.1513 -38.9614
L8.34657 -39.0558
L8.54261 -39.1474
L8.73941 -39.2364
L8.93697 -39.3228
L9.13531 -39.4067
L9.33441 -39.4882
L9.53431 -39.5672
L9.73499 -39.644
L9.93648 -39.7186
L10.1388 -39.791
L10.3419 -39.8613
L10.5459 -39.9294
L10.7508 -39.9956
L10.9566 -40.0598
L11.1632 -40.122
L11.3709 -40.1824
L11.5794 -40.2409
L11.9996 -40.2976
L12.2112 -40.3525
L12.4238 -40.4056
L12.6376 -40.4571
L12.8525 -40.5068
L13.0686 -40.5548
L13.2859 -40.6012
L13.5044 -40.646
L13.7241 -40.6892
L13.9452 -40.7308
L14.1676 -40.7708
L14.3913 -40.8092
L14.6165 -40.8461
L14.8431 -40.8814
L15.0711 -40.9152
L15.3007 -40.9475
L15.5318 -40.9782
L15.7646 -41.0074
L15.9989 -41.0351
L16.235 -41.0612
L16.4727 -41.0859
L16.7122 -41.1089
L16.9535 -41.1305
L17.1965 -41.1505
L17.4415 -41.1689
L17.6883 -41.1858
L17.9371 -41.201
L18.1879 -41.2147
L18.4406 -41.2267
L18.6954 -41.2371
L18.9523 -41.2458
L19.2113 -41.2528
L19.4724 -41.2581
L19.7357 -41.2617
L20.0011 -41.2634
L20.2688 -41.2634
L20.5388 -41.2615
L20.8109 -41.2577
L21.0854 -41.252
L21.3621 -41.2443
L21.6412 -41.2346
L21.9226 -41.2229
L22.2062 -41.209
L22.4922 -41.1929
L22.7805 -41.1747
L23.0711 -41.1541
L23.3639 -41.1312
L23.659 -41.1059
L23.9563 -41.0781
L24.2558 -41.0477
L24.5574 -41.0147
L24.8612 -40.979
L25.1669 -40.9405
L25.4746 -40.8991
L25.7842 -40.8548
L26.0955 -40.8073
L26.4085 -40.7567
L26.7231 -40.7029
L27.0392 -40.6456
L27.3565 -40.5849
L27.675 -40.5205
L27.9944 -40.4524
L28.3146 -40.3805
L28.6355 -40.3045
L28.9567 -40.2244
L29.278 -40.14
L29.5993 -40.0512
L29.9201 -39.9578
L30.2404 -39.8597
L30.5596 -39.7566
L30.8776 -39.6485
L31.194 -39.5351
L31.5084 -39.4163
L31.8205 -39.2918
L32.1298 -39.1616
L32.436 -39.0254
L32.7387 -38.883
L33.0374 -38.7343
L33.3318 -38.5791
L33.6213 -38.4172
L33.9056 -38.2484
L34.1842 -38.0726
L34.4567 -37.8897
L34.7228 -37.6995
L34.9819 -37.5019
L35.2338 -37.2969
L35.4781 -37.0844
L35.7145 -36.8644
L35.9426 -36.6368
L36.1624 -36.4018
L36.3735 -36.1593
L36.5758 -35.9096
L36.7693 -35.6527
L36.9537 -35.3889
L37.1291 -35.1183
L37.2956 -34.8411
L37.4531 -34.5578
L37.6018 -34.2686
L37.7417 -33.9737
L37.873 -33.6737
L37.996 -33.3687
L38.1108 -33.0593
L38.2175 -32.7458
L38.3166 -32.4285
L38.4081 -32.1079
L38.4924 -31.7844
L38.5697 -31.4584
L38.6402 -31.1302
L38.7043 -30.8001
L38.7621 -30.4687
L38.814 -30.1361
L38.8601 -29.8027
L38.9008 -29.4689
L38.9362 -29.1349
L38.9665 -28.8009
L38.9921 -28.4674
L39.013 -28.1345
L39.0296 -27.8024
L39.042 -27.4714
L39.0503 -27.1416
L39.0548 -26.8133
L39.0556 -26.4866
L39.053 -26.1616
L39.0469 -25.8385
L39.0377 -25.5175
L39.0253 -25.1986
L39.01 -24.8819
L38.9919 -24.5675
L38.9711 -24.2556
L38.9477 -23.9462
L38.9218 -23.6392
L38.8935 -23.3349
L38.8629 -23.0332
L38.8301 -22.7342
L38.7952 -22.4378
L38.7582 -22.1442
L38.7192 -21.8533
L38.6784 -21.5651
L38.6356 -21.2797
L38.5911 -20.997
L38.5449 -20.7171
L38.497 -20.4399
L38.4475 -20.1654
L38.3964 -19.8936
L38.3438 -19.6245
L38.2897 -19.358
L38.2341 -19.0941
L38.1771 -18.8329
L38.1186 -18.5742
L38.0589 -18.318
L37.9977 -18.0644
L37.9353 -17.8132
L37.8715 -17.5645
L37.8065 -17.3182
L37.7401 -17.0742
L37.6726 -16.8326
L37.6038 -16.5932
L37.5337 -16.3561
L37.4624 -16.1212
L37.3899 -15.8884
L37.3161 -15.6578
L37.2412 -15.4293
L37.165 -15.2028
L37.0875 -14.9784
L37.0089 -14.7559
L36.929 -14.5354
L36.8478 -14.3167
L36.7654 -14.0999
L36.6817 -13.885
L36.5967 -13.6718
L36.5105 -13.4604
L36.4228 -13.2507
L36.3339 -13.0427
L36.2436 -12.8364
L36.1519 -12.6317
L36.0588 -12.4286
L35.9643 -12.227
L35.8682 -12.027
L35.7707 -11.8285
L35.6717 -11.6315
L35.5711 -11.436
L35.4689 -11.2419
L35.3651 -11.0493
L35.2595 -10.858
L35.1523 -10.6681
L35.0433 -10.4796
L34.9324 -10.2925
L34.8197 -10.1067
L34.7051 -9.92219
L34.5885 -9.73904
L34.4699 -9.55722
L34.3492 -9.37671
L34.2263 -9.19751
L34.1012 -9.01963
L33.9739 -8.84306
L33.8441 -8.66782
L33.7119 -8.49391
L33.5772 -8.32135
L33.4399 -8.15014
L33.3 -7.98031
L33.1572 -7.81188
L32.6624 -7.64488
L32.169 -7.6961
L31.6767 -7.75866
L31.1857 -7.82982
L30.6962 -7.90956
L30.2083 -7.99786
L29.7222 -8.09469
L29.2379 -8.20002
L28.7558 -8.31382
L28.2758 -8.43605
L27.7982 -8.56668
L27.3231 -8.70566
L26.8507 -8.85296
L26.381 -9.00852
L25.9143 -9.17231
L25.4506 -9.34427
L24.9901 -9.52435
L24.533 -9.7125
L24.0794 -9.90865
L23.6294 -10.1128
L23.1832 -10.3247
L22.7409 -10.5445
L22.3026 -10.7721
L21.8686 -11.0074
L21.4388 -11.2502
L21.0134 -11.5006
L20.5926 -11.7585
L20.1765 -12.0237
L19.7652 -12.2963
L19.3589 -12.576
L18.9576 -12.8629
L18.5616 -13.1569
L18.1708 -13.4578
L17.7855 -13.7656
L17.4057 -14.0801
L17.0316 -14.4013
L16.6632 -14.7291
L16.3008 -15.0634
L15.9444 -15.4041
L15.594 -15.751
L15.2499 -16.1041
L14.9121 -16.4633
L14.5807 -16.8284
L14.2559 -17.1994
L13.9376 -17.576
L13.6261 -17.9583
L13.3214 -18.3461
L13.0236 -18.7393
L12.7328 -19.1377
L12.4491 -19.5413
L12.1726 -19.9499
L11.9033 -20.3633
L11.6414 -20.7815
L11.3869 -21.2044
L11.1399 -21.6318
L10.9005 -22.0635
L10.6687 -22.4995
L10.4446 -22.9396
L10.2283 -23.3837
L10.0199 -23.8316
L9.81933 -24.2833
L9.62677 -24.7385
L9.44225 -25.1971
L9.26582 -25.659
L9.09754 -26.1241
L8.93744 -26.5922
L8.7856 -27.0631
L8.64204 -27.5368
L8.50681 -28.013
L8.37996 -28.4917
L8.26152 -28.9727
L8.15154 -29.4558
L8.05003 -29.9409
L7.95704 -30.4278
L7.87259 -30.9165
L7.79671 -31.4066
L7.72942 -31.8982
L7.67074 -32.3911
L7.62069 -32.885
L7.57929 -33.3799
L7.54654 -33.8756
L7.52246 -34.3719
L7.50705 -34.8688
L7.50033 -35.3659
L7.50228 -35.8633
L7.51292 -36.3607
L7.53223 -36.858
L7.56022 -37.355
z
" id="C0_1_02d42a50a2"/>
     <path d="
M38.9515 -64.1679
L39.0592 -63.973
L39.1665 -63.7758
L39.2735 -63.5762
L39.3802 -63.3743
L39.4866 -63.17
L39.5928 -62.9632
L39.6987 -62.754
L39.8043 -62.5422
L39.9098 -62.3278
L40.0152 -62.1109
L40.1203 -61.8912
L40.2254 -61.6689
L40.3304 -61.4438
L40.4353 -61.216
L40.5402 -60.9854
L40.6451 -60.7519
L40.75 -60.5155
L40.8549 -60.2762
L40.9599 -60.034
L41.065 -59.7888
L41.1702 -59.5406
L41.2756 -59.2894
L41.3812 -59.0352
L41.487 -58.7779
L41.5931 -58.5176
L41.6994 -58.2542
L41.8061 -57.9877
L41.9132 -57.7181
L42.0207 -57.4455
L42.1287 -57.1699
L42.2372 -56.8912
L42.3462 -56.6096
L42.4559 -56.325
L42.5663 -56.0375
L42.6774 -55.7471
L42.7894 -55.454
L42.9022 -55.1581
L43.0161 -54.8596
L43.131 -54.5586
L43.2471 -54.2552
L43.3645 -53.9494
L43.4832 -53.6415
L43.6034 -53.3315
L43.7253 -53.0197
L43.8489 -52.7062
L43.9744 -52.3911
L44.102 -52.0748
L44.2318 -51.7574
L44.364 -51.4392
L44.4987 -51.1203
L44.6363 -50.8011
L44.7768 -50.4818
L44.9204 -50.1628
L45.0675 -49.8443
L45.2182 -49.5266
L45.3727 -49.21
L45.5312 -48.8949
L45.6941 -48.5816
L45.8614 -48.2704
L46.0335 -47.9616
L46.2104 -47.6555
L46.3925 -47.3525
L46.5798 -47.0528
L46.7725 -46.7567
L46.9707 -46.4645
L47.1746 -46.1764
L47.3841 -45.8925
L47.5993 -45.6131
L47.8202 -45.3384
L48.0467 -45.0683
L48.2788 -44.803
L48.5162 -44.5426
L48.7588 -44.287
L49.0065 -44.0362
L49.2589 -43.7903
L49.5159 -43.5491
L49.777 -43.3125
L50.0421 -43.0804
L50.3108 -42.8528
L50.5826 -42.6295
L50.8574 -42.4103
L51.1347 -42.195
L51.4142 -41.9836
L51.6955 -41.7759
L51.9782 -41.5716
L52.2621 -41.3707
L52.5468 -41.173
L52.8319 -40.9783
L53.1173 -40.7866
L53.4025 -40.5975
L53.6874 -40.4111
L53.9716 -40.2272
L54.2549 -40.0457
L54.537 -39.8664
L54.8179 -39.6893
L55.0972 -39.5143
L55.3748 -39.3411
L55.6506 -39.1699
L55.9243 -39.0004
L56.1959 -38.8327
L56.4652 -38.6665
L56.7321 -38.5019
L56.9965 -38.3388
L57.2583 -38.1772
L57.5175 -38.0169
L57.774 -37.8579
L58.0277 -37.7001
L58.2786 -37.5436
L58.5267 -37.3882
L58.7719 -37.234
L59.0141 -37.0808
L59.2535 -36.9286
L59.4899 -36.7774
L59.7233 -36.6271
L59.9539 -36.4778
L60.1815 -36.3293
L60.4061 -36.1816
L60.6279 -36.0348
L60.8468 -35.8886
L61.0627 -35.7433
L61.2759 -35.5985
L61.4862 -35.4545
L61.6936 -35.311
L61.8984 -35.1682
L62.1003 -35.0259
L62.2996 -34.8841
L62.4961 -34.7428
L62.6901 -34.6019
L62.8814 -34.4615
L63.0701 -34.3214
L63.2563 -34.1817
L63.44 -34.0424
L63.6212 -33.9033
L63.7999 -33.7644
L63.9763 -33.6258
L64.1503 -33.4874
L64.418 -33.3491
L64.4514 -33.8397
L64.4761 -34.336
L64.4921 -34.8328
L64.4995 -35.33
L64.4981 -35.8273
L64.4881 -36.3247
L64.4695 -36.822
L64.4421 -37.3191
L64.4061 -37.8158
L64.3614 -38.3119
L64.3081 -38.8073
L64.2462 -39.3018
L64.1756 -39.7954
L64.0965 -40.2877
L64.0088 -40.7788
L63.9126 -41.2685
L63.8079 -41.7565
L63.6947 -42.2427
L63.5731 -42.7271
L63.4431 -43.2094
L63.3047 -43.6895
L63.158 -44.1673
L63.003 -44.6426
L62.8398 -45.1153
L62.6684 -45.5851
L62.4889 -46.0521
L62.3014 -46.516
L62.1058 -46.9767
L61.9023 -47.434
L61.6909 -47.8879
L61.4716 -48.3381
L61.2446 -48.7846
L61.0099 -49.2272
L60.7676 -49.6658
L60.5178 -50.1002
L60.2604 -50.5303
L59.9957 -50.956
L59.7237 -51.3771
L59.4444 -51.7935
L59.1581 -52.2052
L58.8646 -52.6119
L58.5642 -53.0135
L58.2569 -53.41
L57.9429 -53.8011
L57.6221 -54.1868
L57.2948 -54.567
L56.961 -54.9415
L56.6208 -55.3103
L56.2743 -55.6732
L55.9216 -56.0301
L55.5629 -56.3809
L55.1982 -56.7254
L54.8277 -57.0637
L54.4514 -57.3955
L54.0695 -57.7209
L53.6821 -58.0396
L53.2893 -58.3516
L52.8913 -58.6568
L52.4881 -58.9551
L52.0799 -59.2464
L51.6667 -59.5306
L51.2489 -59.8076
L50.8263 -60.0774
L50.3993 -60.3399
L49.9678 -60.5949
L49.5322 -60.8425
L49.0923 -61.0825
L48.6485 -61.3148
L48.2009 -61.5395
L47.7495 -61.7563
L47.2946 -61.9653
L46.8362 -62.1664
L46.3745 -62.3596
L45.9097 -62.5447
L45.4418 -62.7217
L44.971 -62.8906
L44.4976 -63.0513
L44.0215 -63.2037
L43.543 -63.3479
L43.0622 -63.4837
L42.5792 -63.6111
L42.0943 -63.7302
L41.6075 -63.8408
L41.1189 -63.9429
L40.6289 -64.0365
L40.1374 -64.1216
L39.6446 -64.1981
z
" id="C0_2_884e5bcadd"/>
    </defs>
    <g clip-path="url(#p1bffca34e9)">
     <use style="fill:#ff0000;stroke:#000000;stroke-width:2.0;" x="0.0" xlink:href="#C0_0_a811fe30f3" y="72.0"/>
    </g>
    <g clip-path="url(#p1bffca34e9)">
     <use style="fill:#ffffff;stroke:#000000;stroke-width:2.0;" x="0.0" xlink:href="#C0_1_02d42a50a2" y="72.0"/>
    </g>
    <g clip-path="url(#p1bffca34e9)">
     <use style="fill:#ffffff;stroke:#000000;stroke-width:2.0;" x="0.0" xlink:href="#C0_2_884e5bcadd" y="72.0"/>
    </g>
   </g>
  </g>
 </g>
 <defs>
  <clipPath id="p1bffca34e9">
   <rect height="72.0" width="72.0" x="0.0" y="0.0"/>
  </clipPath>
 </defs>
</svg>
