<?xml version="1.0" encoding="utf-8" standalone="no"?>
<!DOCTYPE svg PUBLIC "-//W3C//DTD SVG 1.1//EN"
  "http://www.w3.org/Graphics/SVG/1.1/DTD/svg11.dtd">
<!-- Created with matplotlib (http://matplotlib.org/) -->
<svg height="72pt" version="1.1" viewBox="0 0 72 72" width="72pt" xmlns="http://www.w3.org/2000/svg" xmlns:xlink="http://www.w3.org/1999/xlink">
 <defs>
  <style type="text/css">
*{stroke-linecap:butt;stroke-linejoin:round;}
  </style>
 </defs>
 <g id="figure_1">
  <g id="patch_1">
   <path d="
M0 72
L72 72
L72 0
L0 0
z
" style="fill:none;"/>
  </g>
  <g id="axes_1">
   <g id="PatchCollection_1">
    <defs>
     <path d="
M36 -7.5
C43.5583 -7.5 50.808 -10.5029 56.1525 -15.8475
C61.4971 -21.192 64.5 -28.4417 64.5 -36
C64.5 -43.5583 61.4971 -50.808 56.1525 -56.1525
C50.808 -61.4971 43.5583 -64.5 36 -64.5
C28.4417 -64.5 21.192 -61.4971 15.8475 -56.1525
C10.5029 -50.808 7.5 -43.5583 7.5 -36
C7.5 -28.4417 10.5029 -21.192 15.8475 -15.8475
C21.192 -10.5029 28.4417 -7.5 36 -7.5
z
" id="C0_0_a811fe30f3"/>
     <path d="
M22.1559 -60.7728
L22.1307 -60.5412
L22.1093 -60.3104
L22.0917 -60.0804
L22.0777 -59.8511
L22.0672 -59.6225
L22.0601 -59.3946
L22.0562 -59.1673
L22.0555 -58.9407
L22.058 -58.7148
L22.0634 -58.4894
L22.0717 -58.2646
L22.0828 -58.0403
L22.0967 -57.8165
L22.1132 -57.5933
L22.1324 -57.3704
L22.1541 -57.148
L22.1783 -56.926
L22.205 -56.7044
L22.234 -56.4831
L22.2654 -56.262
L22.2991 -56.0413
L22.335 -55.8208
L22.3732 -55.6004
L22.4136 -55.3803
L22.4561 -55.1602
L22.5007 -54.9403
L22.5475 -54.7205
L22.5963 -54.5006
L22.6472 -54.2808
L22.7551 -54.061
L22.812 -53.8411
L22.871 -53.6211
L22.932 -53.4009
L22.9949 -53.1806
L23.0599 -52.9601
L23.1268 -52.7394
L23.1957 -52.5184
L23.2665 -52.2971
L23.3394 -52.0755
L23.4142 -51.8536
L23.4911 -51.6312
L23.5699 -51.4085
L23.6507 -51.1853
L23.7336 -50.9616
L23.8185 -50.7375
L23.9054 -50.5128
L23.9944 -50.2875
L24.0855 -50.0617
L24.1787 -49.8352
L24.2741 -49.6081
L24.3715 -49.3804
L24.4712 -49.152
L24.573 -48.9229
L24.677 -48.6931
L24.7833 -48.4625
L24.8919 -48.2312
L25.0028 -47.9991
L25.116 -47.7662
L25.2316 -47.5325
L25.3496 -47.2981
L25.47 -47.0628
L25.593 -46.8267
L25.7184 -46.5898
L25.8463 -46.352
L25.9769 -46.1135
L26.1101 -45.8741
L26.2459 -45.634
L26.3844 -45.393
L26.5257 -45.1513
L26.6698 -44.9089
L26.8167 -44.6657
L26.9665 -44.4218
L27.1192 -44.1773
L27.2749 -43.9322
L27.4336 -43.6864
L27.5953 -43.4402
L27.7602 -43.1935
L27.9281 -42.9464
L28.0993 -42.699
L28.2736 -42.4514
L28.4513 -42.2035
L28.6322 -41.9556
L28.8165 -41.7078
L29.0042 -41.4601
L29.1954 -41.2126
L29.39 -40.9656
L29.5881 -40.7191
L29.7897 -40.4732
L29.995 -40.2283
L30.2038 -39.9843
L30.4163 -39.7416
L30.6325 -39.5002
L30.8524 -39.2605
L31.0759 -39.0225
L31.3033 -38.7867
L31.5343 -38.5531
L31.7692 -38.3221
L32.0078 -38.094
L32.2502 -37.8689
L32.4965 -37.6473
L32.7465 -37.4293
L33.0002 -37.2153
L33.2578 -37.0057
L33.5191 -36.8008
L33.7841 -36.6008
L34.0528 -36.4062
L34.3251 -36.2172
L34.601 -36.0343
L34.8805 -35.8577
L35.1635 -35.6879
L35.4498 -35.525
L35.7395 -35.3695
L36.0323 -35.2217
L36.3283 -35.0818
L36.6273 -34.9501
L36.9292 -34.8269
L37.2338 -34.7125
L37.541 -34.6069
L37.8506 -34.5104
L38.1624 -34.4231
L38.4764 -34.3452
L38.7922 -34.2766
L39.1097 -34.2175
L39.4287 -34.1679
L39.7489 -34.1277
L40.0702 -34.0968
L40.3923 -34.0752
L40.7151 -34.0628
L41.0382 -34.0593
L41.3615 -34.0647
L41.6848 -34.0787
L42.0077 -34.1012
L42.3302 -34.1318
L42.652 -34.1703
L42.9728 -34.2166
L43.2926 -34.2702
L43.611 -34.331
L43.928 -34.3986
L44.2433 -34.4728
L44.5567 -34.5534
L44.8682 -34.6399
L45.1775 -34.7322
L45.4845 -34.8299
L45.7892 -34.9328
L46.0912 -35.0407
L46.3907 -35.1533
L46.6873 -35.2703
L46.9812 -35.3915
L47.272 -35.5168
L47.5599 -35.6457
L47.8447 -35.7783
L48.1263 -35.9141
L48.4048 -36.0532
L48.68 -36.1952
L48.9519 -36.34
L49.2205 -36.4875
L49.4857 -36.6374
L49.7476 -36.7897
L50.006 -36.9441
L50.2611 -37.1006
L50.5128 -37.2591
L50.7611 -37.4194
L51.0059 -37.5814
L51.2474 -37.745
L51.4854 -37.9101
L51.7201 -38.0767
L51.9514 -38.2445
L52.1794 -38.4137
L52.4041 -38.5841
L52.6254 -38.7556
L52.8435 -38.9281
L53.0583 -39.1017
L53.2698 -39.2763
L53.4782 -39.4518
L53.6834 -39.6281
L53.8855 -39.8054
L54.0844 -39.9834
L54.2802 -40.1622
L54.4731 -40.3418
L54.6628 -40.5221
L54.8496 -40.7031
L55.0335 -40.8848
L55.2144 -41.0673
L55.3924 -41.2504
L55.5675 -41.4342
L55.7398 -41.6186
L55.9093 -41.8038
L56.0759 -41.9896
L56.2399 -42.176
L56.4011 -42.3632
L56.5595 -42.5511
L56.7153 -42.7396
L56.8685 -42.9289
L57.019 -43.1189
L57.1668 -43.3097
L57.3121 -43.5012
L57.4547 -43.6935
L57.5948 -43.8866
L57.7323 -44.0805
L57.8672 -44.2753
L57.9996 -44.4709
L58.1295 -44.6675
L58.2568 -44.865
L58.3816 -45.0634
L58.5039 -45.2629
L58.6236 -45.4634
L58.7408 -45.665
L58.8554 -45.8676
L58.9675 -46.0714
L59.077 -46.2764
L59.1839 -46.4826
L59.2882 -46.6901
L59.3899 -46.8989
L59.489 -47.109
L59.5854 -47.3205
L59.6791 -47.5335
L59.77 -47.748
L59.8582 -47.964
L59.9436 -48.1816
L60.0261 -48.4009
L60.1057 -48.6219
L60.1823 -48.8446
L60.2559 -49.0691
L60.3265 -49.2956
L60.3939 -49.5239
L60.4581 -49.7543
L60.5189 -49.9867
L60.4 -50.2212
L60.1393 -50.7272
L59.8712 -51.1508
L59.5958 -51.5698
L59.3132 -51.984
L59.0236 -52.3934
L58.7269 -52.7977
L58.4233 -53.197
L58.1129 -53.591
L57.7958 -53.9797
L57.472 -54.3629
L57.1416 -54.7405
L56.8048 -55.1123
L56.4617 -55.4784
L56.1124 -55.8385
L55.7569 -56.1926
L55.3954 -56.5406
L55.028 -56.8822
L54.6548 -57.2176
L54.2759 -57.5464
L53.8915 -57.8687
L53.5016 -58.1843
L53.1064 -58.4932
L52.7059 -58.7952
L52.3004 -59.0903
L51.8899 -59.3783
L51.4746 -59.6593
L51.0546 -59.933
L50.6299 -60.1994
L50.2008 -60.4584
L49.7674 -60.71
L49.3298 -60.9541
L48.8881 -61.1906
L48.4426 -61.4194
L47.9932 -61.6405
L47.5401 -61.8537
L47.0836 -62.0591
L46.6237 -62.2565
L46.1605 -62.4459
L45.6942 -62.6273
L45.225 -62.8006
L44.753 -62.9657
L44.2783 -63.1226
L43.8011 -63.2712
L43.3215 -63.4115
L42.8397 -63.5435
L42.3558 -63.6671
L41.87 -63.7823
L41.3823 -63.8889
L40.8931 -63.9871
L40.4023 -64.0768
L39.9102 -64.1579
L39.417 -64.2305
L38.9226 -64.2944
L38.4274 -64.3497
L37.9315 -64.3964
L37.4349 -64.4345
L36.9379 -64.4639
L36.4407 -64.4846
L35.9433 -64.4966
L35.4459 -64.4999
L34.9487 -64.4946
L34.4518 -64.4806
L33.9553 -64.4579
L33.4595 -64.4266
L32.9645 -64.3865
L32.4704 -64.3379
L31.9774 -64.2806
L31.4856 -64.2147
L30.9952 -64.1402
L30.5063 -64.0571
L30.019 -63.9655
L29.5336 -63.8654
L29.0502 -63.7567
L28.5689 -63.6396
L28.0898 -63.5141
L27.6132 -63.3803
L27.1391 -63.238
L26.6677 -63.0875
L26.1991 -62.9288
L25.7336 -62.7618
L25.2711 -62.5867
L24.812 -62.4034
L24.3562 -62.2122
L23.904 -62.0129
L23.4555 -61.8057
L23.0107 -61.5907
L22.57 -61.3679
z
" id="C0_1_df259cc05d"/>
     <path d="
M11.4472 -21.556
L11.6831 -21.4903
L11.9208 -21.4261
L12.1604 -21.3636
L12.4019 -21.3025
L12.6452 -21.243
L12.8906 -21.1851
L13.1379 -21.1286
L13.3873 -21.0736
L13.6388 -21.0201
L13.8924 -20.968
L14.1482 -20.9174
L14.4061 -20.8683
L14.6663 -20.8205
L14.9288 -20.7742
L15.1936 -20.7292
L15.4607 -20.6857
L15.7302 -20.6435
L16.0021 -20.6026
L16.2764 -20.5631
L16.5532 -20.5249
L16.8325 -20.488
L17.1143 -20.4524
L17.3987 -20.4181
L17.6856 -20.385
L17.9751 -20.3532
L18.2672 -20.3225
L18.5619 -20.293
L18.8593 -20.2647
L19.1592 -20.2375
L19.4618 -20.2113
L19.7671 -20.1862
L20.0749 -20.1621
L20.3854 -20.1389
L20.6984 -20.1167
L21.0141 -20.0952
L21.3323 -20.0746
L21.653 -20.0547
L21.9762 -20.0354
L22.3019 -20.0167
L22.63 -19.9984
L22.9604 -19.9805
L23.2931 -19.9629
L23.628 -19.9455
L23.9651 -19.9282
L24.3042 -19.9107
L24.6453 -19.8931
L24.9883 -19.8751
L25.3331 -19.8566
L25.6796 -19.8375
L26.0276 -19.8175
L26.377 -19.7965
L26.7277 -19.7743
L27.0796 -19.7507
L27.4326 -19.7255
L27.7864 -19.6985
L28.1409 -19.6695
L28.496 -19.6382
L28.8515 -19.6045
L29.2072 -19.568
L29.5631 -19.5287
L29.9188 -19.4862
L30.2743 -19.4404
L30.6294 -19.391
L30.9839 -19.3378
L31.3376 -19.2808
L31.6904 -19.2196
L32.0422 -19.1541
L32.3928 -19.0843
L32.742 -19.01
L33.0898 -18.9311
L33.4359 -18.8476
L33.7803 -18.7594
L34.1229 -18.6666
L34.4636 -18.5691
L34.8022 -18.4671
L35.1387 -18.3605
L35.4731 -18.2496
L35.8052 -18.1344
L36.135 -18.0152
L36.4624 -17.892
L36.7875 -17.7651
L37.1101 -17.6347
L37.4302 -17.501
L37.7479 -17.3643
L38.063 -17.2248
L38.3756 -17.0828
L38.6857 -16.9384
L38.9932 -16.7921
L39.2981 -16.644
L39.6005 -16.4943
L39.9003 -16.3434
L40.1976 -16.1915
L40.4923 -16.0387
L40.7844 -15.8854
L41.074 -15.7317
L41.361 -15.5779
L41.6455 -15.4241
L41.9275 -15.2705
L42.207 -15.1174
L42.4839 -14.9648
L42.7584 -14.8129
L43.0304 -14.662
L43.3 -14.512
L43.5671 -14.3632
L43.8318 -14.2156
L44.0941 -14.0693
L44.3541 -13.9245
L44.6117 -13.7812
L44.867 -13.6396
L45.12 -13.4996
L45.3707 -13.3614
L45.6193 -13.225
L45.8656 -13.0904
L46.1097 -12.9578
L46.3517 -12.8271
L46.5916 -12.6983
L46.8294 -12.5716
L47.0651 -12.4469
L47.2989 -12.3242
L47.5307 -12.2036
L47.7606 -12.0852
L47.9886 -11.9687
L48.2147 -11.8544
L48.4391 -11.7422
L48.6616 -11.6322
L48.8825 -11.5242
L49.1016 -11.4183
L49.3191 -11.3146
L49.535 -11.2129
L49.3447 -11.1134
L48.9031 -10.8173
L48.4577 -10.5882
L48.0084 -10.3669
L47.5555 -10.1534
L47.0991 -9.94774
L46.6393 -9.75004
L46.1762 -9.56033
L45.7101 -9.37868
L45.2409 -9.20513
L44.769 -9.03975
L44.2944 -8.88258
L43.8173 -8.73367
L43.3378 -8.59307
L42.856 -8.46081
L42.3722 -8.33694
L41.8864 -8.2215
L41.3989 -8.11452
L40.9097 -8.01604
L40.4189 -7.92607
L39.9269 -7.84467
L39.4337 -7.77183
L38.9394 -7.7076
L38.4442 -7.65198
L37.9482 -7.605
L37.4517 -7.56667
L36.9547 -7.537
L36.4575 -7.516
L35.9601 -7.50367
L35.4627 -7.50003
L34.9655 -7.50507
L34.4686 -7.51878
L33.9721 -7.54118
L33.4763 -7.57224
L32.9812 -7.61196
L32.4871 -7.66033
L31.994 -7.71733
L31.5022 -7.78294
L31.0117 -7.85715
L30.5228 -7.93994
L30.0355 -8.03127
L29.55 -8.13112
L29.0665 -8.23946
L28.5851 -8.35626
L28.106 -8.48147
L27.6292 -8.61507
L27.1551 -8.75701
L26.6836 -8.90725
L26.2149 -9.06574
L25.7493 -9.23244
L25.2867 -9.40729
L24.8274 -9.59024
L24.3715 -9.78124
L23.9192 -9.98022
L23.4706 -10.1871
L23.0257 -10.4019
L22.5848 -10.6245
L22.148 -10.8548
L21.7154 -11.0927
L21.2872 -11.3383
L20.8635 -11.5913
L20.4443 -11.8518
L20.0299 -12.1197
L19.6204 -12.3948
L19.2158 -12.6771
L18.8164 -12.9665
L18.4222 -13.2629
L18.0334 -13.5663
L17.65 -13.8765
L17.2722 -14.1934
L16.9001 -14.517
L16.5339 -14.8471
L16.1735 -15.1837
L15.8192 -15.5266
L15.4711 -15.8757
L15.1292 -16.231
L14.7937 -16.5923
L14.4646 -16.9595
L14.1421 -17.3325
L13.8262 -17.7112
L13.5171 -18.0954
L13.2149 -18.4851
L12.9196 -18.8802
L12.6313 -19.2804
L12.3501 -19.6858
L12.0762 -20.0961
L11.8095 -20.5113
z
" id="C0_2_12df9e6893"/>
    </defs>
    <g clip-path="url(#p1bffca34e9)">
     <use style="fill:#ff0000;stroke:#000000;stroke-width:2.0;" x="0.0" xlink:href="#C0_0_a811fe30f3" y="72.0"/>
    </g>
    <g clip-path="url(#p1bffca34e9)">
     <use style="fill:#ffffff;stroke:#000000;stroke-width:2.0;" x="0.0" xlink:href="#C0_1_df259cc05d" y="72.0"/>
    </g>
    <g clip-path="url(#p1bffca34e9)">
     <use style="fill:#ffffff;stroke:#000000;stroke-width:2.0;" x="0.0" xlink:href="#C0_2_12df9e6893" y="72.0"/>
    </g>
   </g>
  </g>
 </g>
 <defs>
  <clipPath id="p1bffca34e9">
   <rect height="72.0" width="72.0" x="0.0" y="0.0"/>
  </clipPath>
 </defs>
</svg>
