<?xml version="1.0" encoding="utf-8" standalone="no"?>
<!DOCTYPE svg PUBLIC "-//W3C//DTD SVG 1.1//EN"
  "http://www.w3.org/Graphics/SVG/1.1/DTD/svg11.dtd">
<!-- Created with matplotlib (http://matplotlib.org/) -->
<svg height="72pt" version="1.1" viewBox="0 0 72 72" width="72pt" xmlns="http://www.w3.org/2000/svg" xmlns:xlink="http://www.w3.org/1999/xlink">
 <defs>
  <style type="text/css">
*{stroke-linecap:butt;stroke-linejoin:round;}
  </style>
 </defs>
 <g id="figure_1">
  <g id="patch_1">
   <path d="
M0 72
L72 72
L72 0
L0 0
z
" style="fill:none;"/>
  </g>
  <g id="axes_1">
   <g id="PatchCollection_1">
    <defs>
     <path d="
M36 -7.5
C43.5583 -7.5 50.808 -10.5029 56.1525 -15.8475
C61.4971 -21.192 64.5 -28.4417 64.5 -36
C64.5 -43.5583 61.4971 -50.808 56.1525 -56.1525
C50.808 -61.4971 43.5583 -64.5 36 -64.5
C28.4417 -64.5 21.192 -61.4971 15.8475 -56.1525
C10.5029 -50.808 7.5 -43.5583 7.5 -36
C7.5 -28.4417 10.5029 -21.192 15.8475 -15.8475
C21.192 -10.5029 28.4417 -7.5 36 -7.5
z
" id="C0_0_a811fe30f3"/>
     <path d="
M60.084 -50.8632
L59.9036 -50.7541
L59.7237 -50.6439
L59.5443 -50.5329
L59.3654 -50.421
L59.1869 -50.3083
L59.0089 -50.1949
L58.8313 -50.0807
L58.6541 -49.9659
L58.4773 -49.8504
L58.3008 -49.7343
L58.1245 -49.6177
L57.9486 -49.5004
L57.7729 -49.3827
L57.5975 -49.2644
L57.4222 -49.1456
L57.2471 -49.0263
L57.0722 -48.9065
L56.8974 -48.7862
L56.7226 -48.6654
L56.5479 -48.5442
L56.3732 -48.4225
L56.1986 -48.3003
L56.0239 -48.1776
L55.8491 -48.0544
L55.6742 -47.9307
L55.4992 -47.8066
L55.3241 -47.6819
L55.1487 -47.5567
L54.9731 -47.4309
L54.7973 -47.3046
L54.6211 -47.1778
L54.4447 -47.0504
L54.2679 -46.9223
L54.0907 -46.7937
L53.913 -46.6644
L53.5563 -46.5345
L53.3772 -46.4039
L53.1975 -46.2727
L53.0172 -46.1407
L52.8363 -46.008
L52.6546 -45.8745
L52.4723 -45.7402
L52.2892 -45.6052
L52.1053 -45.4693
L51.9206 -45.3325
L51.735 -45.1948
L51.5486 -45.0563
L51.3611 -44.9167
L51.1727 -44.7763
L50.9833 -44.6348
L50.7929 -44.4922
L50.6013 -44.3486
L50.4086 -44.2039
L50.2147 -44.058
L50.0197 -43.911
L49.8234 -43.7628
L49.6258 -43.6134
L49.4269 -43.4626
L49.2266 -43.3106
L49.0249 -43.1572
L48.8218 -43.0024
L48.6173 -42.8463
L48.4112 -42.6886
L48.2036 -42.5295
L47.9945 -42.3688
L47.7837 -42.2065
L47.5713 -42.0427
L47.3573 -41.8772
L47.1416 -41.7099
L46.9242 -41.541
L46.7051 -41.3703
L46.4842 -41.1977
L46.2616 -41.0233
L46.0371 -40.847
L45.8109 -40.6687
L45.5829 -40.4885
L45.3531 -40.3063
L45.1215 -40.122
L44.8881 -39.9355
L44.6529 -39.747
L44.4159 -39.5562
L44.1772 -39.3633
L43.9368 -39.168
L43.6946 -38.9705
L43.4509 -38.7706
L43.2055 -38.5684
L42.9586 -38.3637
L42.7103 -38.1566
L42.4606 -37.947
L42.2096 -37.7349
L41.9574 -37.5203
L41.7041 -37.303
L41.4499 -37.0832
L41.195 -36.8607
L40.9394 -36.6356
L40.6834 -36.4077
L40.4271 -36.1772
L40.1709 -35.9439
L39.9149 -35.7078
L39.6593 -35.4689
L39.4046 -35.2273
L39.151 -34.9827
L38.8988 -34.7354
L38.6485 -34.4851
L38.4004 -34.232
L38.1549 -33.9759
L37.9126 -33.7169
L37.6738 -33.4549
L37.4392 -33.1899
L37.2093 -32.9219
L36.9846 -32.6509
L36.7659 -32.3769
L36.5536 -32.0997
L36.3485 -31.8195
L36.1512 -31.5362
L35.9625 -31.2498
L35.783 -30.9602
L35.6134 -30.6676
L35.4543 -30.3718
L35.3065 -30.073
L35.1704 -29.7711
L35.0467 -29.4663
L34.9358 -29.1585
L34.8382 -28.8479
L34.7543 -28.5347
L34.6841 -28.2189
L34.6281 -27.9007
L34.5861 -27.5804
L34.5582 -27.2581
L34.5443 -26.9342
L34.5441 -26.6088
L34.5574 -26.2823
L34.5838 -25.955
L34.6229 -25.6272
L34.6743 -25.2993
L34.7374 -24.9715
L34.8117 -24.6443
L34.8967 -24.3178
L34.9917 -23.9925
L35.0963 -23.6688
L35.2099 -23.3467
L35.3319 -23.0268
L35.4618 -22.7092
L35.5991 -22.3942
L35.7432 -22.082
L35.8936 -21.7729
L36.05 -21.4671
L36.2119 -21.1647
L36.3788 -20.866
L36.5504 -20.5711
L36.7263 -20.2801
L36.9062 -19.9931
L37.0897 -19.7103
L37.2765 -19.4318
L37.4664 -19.1575
L37.659 -18.8877
L37.8542 -18.6223
L38.0516 -18.3615
L38.2512 -18.1051
L38.4527 -17.8533
L38.6558 -17.6061
L38.8605 -17.3635
L39.0666 -17.1254
L39.274 -16.8918
L39.4824 -16.6629
L39.6919 -16.4384
L39.9022 -16.2185
L40.1133 -16.003
L40.3251 -15.792
L40.5376 -15.5853
L40.7505 -15.3831
L40.964 -15.1851
L41.1778 -14.9914
L41.3921 -14.802
L41.6066 -14.6167
L41.8214 -14.4356
L42.0365 -14.2585
L42.2518 -14.0855
L42.4672 -13.9164
L42.6829 -13.7512
L42.8987 -13.59
L43.1147 -13.4325
L43.3308 -13.2789
L43.547 -13.1289
L43.7634 -12.9826
L43.9799 -12.84
L44.1966 -12.7009
L44.4135 -12.5654
L44.6305 -12.4334
L44.8477 -12.3048
L45.0652 -12.1797
L45.2828 -12.0579
L45.5008 -11.9395
L45.719 -11.8243
L45.9375 -11.7125
L46.1564 -11.6039
L46.3756 -11.4985
L46.5952 -11.3963
L46.8153 -11.2973
L47.0358 -11.2015
L47.2568 -11.1087
L47.4784 -11.0192
L47.7006 -10.9327
L47.9235 -10.8493
L48.147 -10.769
L48.3712 -10.6918
L48.5962 -10.6177
L49.0847 -10.5468
L49.5245 -10.6812
L49.9603 -10.9134
L50.3918 -11.1533
L50.8189 -11.4007
L51.2416 -11.6556
L51.6595 -11.918
L52.0727 -12.1876
L52.481 -12.4645
L52.8843 -12.7486
L53.2824 -13.0398
L53.6753 -13.338
L54.0628 -13.6431
L54.4448 -13.9549
L54.8212 -14.2735
L55.1918 -14.5987
L55.5566 -14.9305
L55.9154 -15.2686
L56.2682 -15.6131
L56.6148 -15.9638
L56.9551 -16.3206
L57.289 -16.6833
L57.6165 -17.052
L57.9373 -17.4264
L58.2515 -17.8065
L58.5589 -18.1921
L58.8595 -18.5832
L59.153 -18.9796
L59.4395 -19.3811
L59.7189 -19.7877
L59.9911 -20.1993
L60.2559 -20.6156
L60.5133 -21.0367
L60.7633 -21.4623
L61.0058 -21.8923
L61.2406 -22.3266
L61.4677 -22.7651
L61.6871 -23.2076
L61.8987 -23.6541
L62.1023 -24.1042
L62.298 -24.558
L62.4857 -25.0153
L62.6654 -25.476
L62.8369 -25.9398
L63.0002 -26.4067
L63.1553 -26.8766
L63.3022 -27.3492
L63.4407 -27.8244
L63.5709 -28.3021
L63.6927 -28.7822
L63.806 -29.2645
L63.9108 -29.7488
L64.0072 -30.2351
L64.095 -30.723
L64.1743 -31.2126
L64.245 -31.7037
L64.3071 -32.1961
L64.3606 -32.6896
L64.4054 -33.1841
L64.4415 -33.6795
L64.4691 -34.1756
L64.4879 -34.6723
L64.4981 -35.1693
L64.4995 -35.6666
L64.4923 -36.164
L64.4764 -36.6614
L64.4519 -37.1585
L64.4187 -37.6554
L64.3768 -38.1517
L64.3263 -38.6473
L64.2671 -39.1421
L64.1993 -39.636
L64.123 -40.1288
L64.0381 -40.6203
L63.9446 -41.1104
L63.8426 -41.599
L63.7322 -42.0858
L63.6133 -42.5708
L63.486 -43.0538
L63.3503 -43.5347
L63.2063 -44.0132
L63.054 -44.4893
L62.8934 -44.9628
L62.7247 -45.4336
L62.5478 -45.9016
L62.3629 -46.3665
L62.1699 -46.8282
L61.9689 -47.2866
L61.76 -47.7417
L61.5433 -48.1931
L61.3188 -48.6408
L61.0866 -49.0847
L60.8467 -49.5245
L60.5993 -49.9603
z
" id="C0_1_db8050ca2b"/>
     <path d="
M23.2328 -61.4119
L23.153 -61.1902
L23.0754 -60.9679
L22.9999 -60.7449
L22.9264 -60.5213
L22.855 -60.297
L22.7856 -60.0719
L22.7181 -59.846
L22.6525 -59.6193
L22.5888 -59.3917
L22.527 -59.1632
L22.467 -58.9338
L22.4087 -58.7033
L22.3523 -58.4719
L22.2975 -58.2394
L22.2445 -58.0057
L22.1932 -57.7709
L22.1436 -57.5348
L22.0956 -57.2975
L22.0493 -57.0589
L22.0046 -56.8189
L21.9615 -56.5775
L21.9201 -56.3347
L21.8802 -56.0903
L21.8419 -55.8444
L21.8052 -55.5969
L21.7701 -55.3477
L21.7365 -55.0968
L21.7045 -54.8441
L21.6741 -54.5896
L21.6452 -54.3332
L21.6179 -54.0749
L21.5922 -53.8146
L21.568 -53.5523
L21.5454 -53.2879
L21.5244 -53.0214
L21.505 -52.7526
L21.4871 -52.4817
L21.4708 -52.2084
L21.4562 -51.9327
L21.4431 -51.6547
L21.4316 -51.3742
L21.4218 -51.0913
L21.4136 -50.8057
L21.407 -50.5176
L21.4021 -50.2269
L21.3988 -49.9334
L21.3971 -49.6373
L21.3972 -49.3384
L21.3989 -49.0367
L21.4022 -48.7321
L21.4073 -48.4247
L21.414 -48.1144
L21.4224 -47.8012
L21.4324 -47.4851
L21.4441 -47.166
L21.4575 -46.844
L21.4725 -46.519
L21.4891 -46.1911
L21.5073 -45.8602
L21.527 -45.5263
L21.5483 -45.1896
L21.5711 -44.85
L21.5953 -44.5075
L21.6208 -44.1621
L21.6477 -43.8141
L21.6757 -43.4633
L21.7049 -43.1099
L21.7351 -42.754
L21.7662 -42.3956
L21.798 -42.0349
L21.8305 -41.672
L21.8634 -41.307
L21.8965 -40.9401
L21.9297 -40.5713
L21.9626 -40.201
L21.9951 -39.8293
L22.0268 -39.4563
L22.0575 -39.0823
L22.0868 -38.7076
L22.1143 -38.3324
L22.1397 -37.9569
L22.1624 -37.5815
L22.1821 -37.2063
L22.1983 -36.8318
L22.2105 -36.4582
L22.2182 -36.0859
L22.2207 -35.7152
L22.2176 -35.3465
L22.2083 -34.98
L22.1923 -34.6161
L22.169 -34.2552
L22.1378 -33.8975
L22.0984 -33.5435
L22.0503 -33.1933
L21.993 -32.8474
L21.9264 -32.5059
L21.85 -32.169
L21.7638 -31.837
L21.6677 -31.5101
L21.5617 -31.1884
L21.4459 -30.8719
L21.3205 -30.5609
L21.1858 -30.2553
L21.042 -29.9552
L20.8895 -29.6606
L20.7289 -29.3714
L20.5606 -29.0877
L20.3852 -28.8094
L20.2031 -28.5364
L20.0149 -28.2687
L19.8212 -28.0062
L19.6226 -27.7488
L19.4196 -27.4965
L19.2126 -27.2492
L19.0023 -27.0067
L18.7891 -26.7691
L18.5735 -26.5362
L18.3558 -26.3079
L18.1366 -26.0842
L17.9162 -25.865
L17.6949 -25.6502
L17.4731 -25.4398
L17.2511 -25.2336
L17.0292 -25.0317
L16.8076 -24.8338
L16.5865 -24.6401
L16.3661 -24.4503
L16.1468 -24.2645
L15.9285 -24.0825
L15.7115 -23.9043
L15.4959 -23.7299
L15.2818 -23.5591
L15.0693 -23.3919
L14.8585 -23.2282
L14.6496 -23.068
L14.4425 -22.9112
L14.2373 -22.7578
L14.0341 -22.6077
L13.8328 -22.4608
L13.6337 -22.317
L13.4365 -22.1764
L13.2415 -22.0388
L13.0485 -21.9042
L12.8576 -21.7725
L12.6687 -21.6438
L12.482 -21.5178
L12.2973 -21.3946
L12.1146 -21.2742
L11.934 -21.1564
L11.4877 -21.0412
L11.2377 -21.4605
L10.9952 -21.8905
L10.7603 -22.3248
L10.5332 -22.7633
L10.3138 -23.2058
L10.1022 -23.6522
L9.89848 -24.1024
L9.70273 -24.5562
L9.515 -25.0135
L9.33533 -25.4741
L9.16378 -25.9379
L9.00041 -26.4048
L8.84526 -26.8746
L8.69839 -27.3472
L8.55983 -27.8225
L8.42963 -28.3002
L8.30782 -28.7803
L8.19446 -29.2625
L8.08956 -29.7469
L7.99316 -30.2331
L7.9053 -30.7211
L7.82599 -31.2107
L7.75527 -31.7017
L7.69315 -32.1941
L7.63965 -32.6876
L7.59479 -33.1821
L7.55858 -33.6775
L7.53104 -34.1736
L7.51217 -34.6702
L7.50197 -35.1673
L7.50046 -35.6646
L7.50763 -36.162
L7.52348 -36.6594
L7.548 -37.1565
L7.58119 -37.6533
L7.62303 -38.1496
L7.67352 -38.6453
L7.73264 -39.1401
L7.80036 -39.634
L7.87668 -40.1268
L7.96157 -40.6183
L8.05499 -41.1084
L8.15693 -41.597
L8.26735 -42.0839
L8.38621 -42.5689
L8.51349 -43.0519
L8.64914 -43.5327
L8.79312 -44.0113
L8.94539 -44.4874
L9.1059 -44.9609
L9.2746 -45.4317
L9.45145 -45.8997
L9.63638 -46.3646
L9.82934 -46.8263
L10.0303 -47.2848
L10.2391 -47.7398
L10.4558 -48.1913
L10.6803 -48.639
L10.9125 -49.0829
L11.1523 -49.5228
L11.3997 -49.9586
L11.6546 -50.3901
L11.9169 -50.8172
L12.1865 -51.2398
L12.4634 -51.6578
L12.7475 -52.0711
L13.0386 -52.4794
L13.3368 -52.8827
L13.6418 -53.2808
L13.9537 -53.6737
L14.2722 -54.0612
L14.5974 -54.4433
L14.9291 -54.8197
L15.2672 -55.1903
L15.6117 -55.5551
L15.9623 -55.914
L16.3191 -56.2668
L16.6818 -56.6134
L17.0505 -56.9537
L17.4249 -57.2877
L17.805 -57.6152
L18.1906 -57.9361
L18.5816 -58.2503
L18.9779 -58.5577
L19.3795 -58.8582
L19.786 -59.1518
L20.1976 -59.4384
L20.6139 -59.7178
L21.0349 -59.99
L21.4605 -60.2548
L21.8905 -60.5123
L22.3248 -60.7623
z
" id="C0_2_418d835626"/>
    </defs>
    <g clip-path="url(#p1bffca34e9)">
     <use style="fill:#ffffff;stroke:#000000;stroke-width:2.0;" x="0.0" xlink:href="#C0_0_a811fe30f3" y="72.0"/>
    </g>
    <g clip-path="url(#p1bffca34e9)">
     <use style="fill:#ff0000;stroke:#000000;stroke-width:2.0;" x="0.0" xlink:href="#C0_1_db8050ca2b" y="72.0"/>
    </g>
    <g clip-path="url(#p1bffca34e9)">
     <use style="fill:#ff0000;stroke:#000000;stroke-width:2.0;" x="0.0" xlink:href="#C0_2_418d835626" y="72.0"/>
    </g>
   </g>
  </g>
 </g>
 <defs>
  <clipPath id="p1bffca34e9">
   <rect height="72.0" width="72.0" x="0.0" y="0.0"/>
  </clipPath>
 </defs>
</svg>
