<?xml version="1.0" encoding="utf-8" standalone="no"?>
<!DOCTYPE svg PUBLIC "-//W3C//DTD SVG 1.1//EN"
  "http://www.w3.org/Graphics/SVG/1.1/DTD/svg11.dtd">
<!-- Created with matplotlib (http://matplotlib.org/) -->
<svg height="72pt" version="1.1" viewBox="0 0 72 72" width="72pt" xmlns="http://www.w3.org/2000/svg" xmlns:xlink="http://www.w3.org/1999/xlink">
 <defs>
  <style type="text/css">
*{stroke-linecap:butt;stroke-linejoin:round;}
  </style>
 </defs>
 <g id="figure_1">
  <g id="patch_1">
   <path d="
M0 72
L72 72
L72 0
L0 0
z
" style="fill:none;"/>
  </g>
  <g id="axes_1">
   <g id="PatchCollection_1">
    <defs>
     <path d="
M36 -7.5
C43.5583 -7.5 50.808 -10.5029 56.1525 -15.8475
C61.4971 -21.192 64.5 -28.4417 64.5 -36
C64.5 -43.5583 61.4971 -50.808 56.1525 -56.1525
C50.808 -61.4971 43.5583 -64.5 36 -64.5
C28.4417 -64.5 21.192 -61.4971 15.8475 -56.1525
C10.5029 -50.808 7.5 -43.5583 7.5 -36
C7.5 -28.4417 10.5029 -21.192 15.8475 -15.8475
C21.192 -10.5029 28.4417 -7.5 36 -7.5
z
" id="C0_0_a811fe30f3"/>
     <path d="
M49.3309 -11.0028
L49.2297 -11.2373
L49.0885 -11.4592
L48.9119 -11.6704
L48.7048 -11.8729
L48.4717 -12.0685
L48.217 -12.2589
L47.9443 -12.4459
L47.6572 -12.6305
L47.3583 -12.814
L47.0502 -12.9972
L46.7349 -13.1807
L46.4142 -13.3652
L46.0896 -13.5509
L45.7622 -13.7381
L45.4332 -13.9272
L45.1035 -14.1181
L44.7738 -14.3109
L44.4448 -14.5056
L44.1169 -14.7023
L43.7908 -14.9009
L43.4668 -15.1012
L43.1451 -15.3032
L42.8262 -15.5069
L42.5103 -15.7119
L42.1974 -15.9184
L41.888 -16.1261
L41.5819 -16.3349
L41.2795 -16.5447
L40.9806 -16.7554
L40.6856 -16.9668
L40.3943 -17.1789
L40.1068 -17.3916
L39.8231 -17.6047
L39.5433 -17.8181
L39.2673 -18.0318
L38.9951 -18.2456
L38.7268 -18.4596
L38.4622 -18.6735
L38.2013 -18.8874
L37.9442 -19.1012
L37.6906 -19.3149
L37.4407 -19.5283
L37.1943 -19.7415
L36.9514 -19.9543
L36.7119 -20.1668
L36.4758 -20.379
L36.243 -20.5908
L36.0133 -20.8022
L35.7869 -21.0131
L35.5635 -21.2236
L35.3431 -21.4337
L35.1257 -21.6433
L34.9112 -21.8525
L34.6994 -22.0612
L34.4904 -22.2694
L34.2841 -22.4773
L34.0803 -22.6846
L33.8791 -22.8916
L33.6803 -23.0982
L33.484 -23.3044
L33.2899 -23.5102
L33.0981 -23.7156
L32.9085 -23.9207
L32.721 -24.1256
L32.5356 -24.3301
L32.3522 -24.5344
L32.1707 -24.7385
L31.9911 -24.9424
L31.8133 -25.1461
L31.6373 -25.3498
L31.463 -25.5533
L31.2903 -25.7567
L31.1193 -25.9602
L30.9497 -26.1636
L30.7817 -26.3672
L30.6151 -26.5708
L30.4499 -26.7745
L30.286 -26.9784
L30.1234 -27.1826
L29.9621 -27.387
L29.8019 -27.5917
L29.6429 -27.7968
L29.485 -28.0022
L29.3282 -28.2081
L29.1724 -28.4145
L29.0175 -28.6214
L28.7106 -28.8289
L28.5585 -29.037
L28.4072 -29.2459
L28.2567 -29.4554
L28.1069 -29.6657
L27.9579 -29.8769
L27.8095 -30.089
L27.6618 -30.302
L27.5148 -30.516
L27.3683 -30.7311
L27.2224 -30.9473
L27.077 -31.1646
L26.9322 -31.3832
L26.7878 -31.6031
L26.6439 -31.8243
L26.5004 -32.0469
L26.3573 -32.271
L26.2146 -32.4966
L26.0723 -32.7238
L25.9304 -32.9527
L25.7888 -33.1833
L25.6475 -33.4156
L25.5065 -33.6499
L25.3658 -33.886
L25.2253 -34.1241
L25.0852 -34.3643
L24.9453 -34.6066
L24.8056 -34.8511
L24.6662 -35.0979
L24.5271 -35.347
L24.3882 -35.5985
L24.2495 -35.8525
L24.1111 -36.109
L23.9729 -36.3681
L23.835 -36.6299
L23.6973 -36.8945
L23.5599 -37.1619
L23.4228 -37.4322
L23.2861 -37.7055
L23.1496 -37.9818
L23.0135 -38.2612
L22.8778 -38.5438
L22.7425 -38.8296
L22.6076 -39.1187
L22.4732 -39.4111
L22.3394 -39.707
L22.2061 -40.0063
L22.0733 -40.3091
L21.9413 -40.6155
L21.8099 -40.9255
L21.6794 -41.2391
L21.5496 -41.5564
L21.4208 -41.8773
L21.2928 -42.202
L21.166 -42.5304
L21.0402 -42.8624
L20.9156 -43.1982
L20.7923 -43.5377
L20.6703 -43.8807
L20.5497 -44.2274
L20.4306 -44.5776
L20.3131 -44.9313
L20.1973 -45.2882
L20.0831 -45.6485
L19.9708 -46.0118
L19.8602 -46.378
L19.7516 -46.7469
L19.6449 -47.1183
L19.5401 -47.492
L19.4371 -47.8676
L19.3361 -48.2448
L19.2368 -48.6232
L19.1391 -49.0023
L19.0429 -49.3816
L18.9479 -49.7605
L18.8536 -50.1383
L18.7598 -50.5142
L18.6657 -50.8873
L18.5706 -51.2565
L18.4736 -51.6205
L18.3736 -51.9778
L18.2691 -52.3268
L18.1584 -52.6655
L18.0394 -52.9914
L17.9098 -53.302
L17.767 -53.5941
L17.6081 -53.8645
L17.43 -54.1094
L17.2301 -54.3251
L17.0059 -54.5078
L16.7558 -54.6543
L16.4791 -54.7619
L16.1764 -54.8292
L15.8489 -54.8554
L15.499 -54.8413
L15.1294 -54.788
L14.7434 -54.6978
L14.344 -54.5731
L13.9702 -54.4164
L13.6579 -54.0814
L13.3525 -53.6941
L13.054 -53.3015
L12.7625 -52.9036
L12.4781 -52.5006
L12.2008 -52.0925
L11.9308 -51.6796
L11.6681 -51.2618
L11.4128 -50.8394
L11.165 -50.4125
L10.9248 -49.9812
L10.6922 -49.5457
L10.4674 -49.106
L10.2503 -48.6623
L10.041 -48.2148
L9.83965 -47.7635
L9.64627 -47.3087
L9.46092 -46.8504
L9.28365 -46.3888
L9.11452 -45.9241
L8.95358 -45.4563
L8.80088 -44.9856
L8.65647 -44.5122
L8.52038 -44.0362
L8.39266 -43.5578
L8.27336 -43.0771
L8.16249 -42.5942
L8.06011 -42.1093
L7.96624 -41.6225
L7.88091 -41.134
L7.80414 -40.644
L7.73597 -40.1526
L7.6764 -39.6598
L7.62546 -39.166
L7.58316 -38.6712
L7.54952 -38.1756
L7.52454 -37.6793
L7.50824 -37.1825
L7.50062 -36.6854
L7.50168 -36.188
L7.51142 -35.6906
L7.52984 -35.1933
L7.55693 -34.6962
L7.59268 -34.1996
L7.63709 -33.7034
L7.69013 -33.208
L7.75181 -32.7134
L7.82208 -32.2199
L7.90094 -31.7274
L7.98836 -31.2363
L8.08431 -30.7466
L8.18876 -30.2586
L8.30168 -29.7722
L8.42305 -29.2878
L8.55281 -28.8054
L8.69093 -28.3253
L8.83737 -27.8474
L8.99209 -27.372
L9.15503 -26.8993
L9.32615 -26.4293
L9.5054 -25.9623
L9.69271 -25.4983
L9.88804 -25.0375
L10.0913 -24.58
L10.3025 -24.1261
L10.5215 -23.6757
L10.7483 -23.2291
L10.9827 -22.7864
L11.2248 -22.3477
L11.4744 -21.9132
L11.7315 -21.4829
L11.996 -21.0571
L12.2678 -20.6358
L12.5468 -20.2192
L12.833 -19.8075
L13.1262 -19.4006
L13.4264 -18.9988
L13.7335 -18.6022
L14.0473 -18.2109
L14.3679 -17.825
L14.695 -17.4446
L15.0286 -17.0699
L15.3686 -16.701
L15.7149 -16.3379
L16.0674 -15.9809
L16.426 -15.6299
L16.7905 -15.2851
L17.1608 -14.9467
L17.5369 -14.6146
L17.9186 -14.2891
L18.3059 -13.9702
L18.6985 -13.6579
L19.0964 -13.3525
L19.4994 -13.054
L19.9075 -12.7625
L20.3204 -12.4781
L20.7382 -12.2008
L21.1606 -11.9308
L21.5875 -11.6681
L22.0188 -11.4128
L22.4543 -11.165
L22.894 -10.9248
L23.3377 -10.6922
L23.7852 -10.4674
L24.2365 -10.2503
L24.6913 -10.041
L25.1496 -9.83965
L25.6112 -9.64627
L26.0759 -9.46092
L26.5437 -9.28365
L27.0144 -9.11452
L27.4878 -8.95358
L27.9638 -8.80088
L28.4422 -8.65647
L28.9229 -8.52038
L29.4058 -8.39266
L29.8907 -8.27336
L30.3775 -8.16249
L30.866 -8.06011
L31.356 -7.96624
L31.8474 -7.88091
L32.3402 -7.80414
L32.834 -7.73597
L33.3288 -7.6764
L33.8244 -7.62546
L34.3207 -7.58316
L34.8175 -7.54952
L35.3146 -7.52454
L35.812 -7.50824
L36.3094 -7.50062
L36.8067 -7.50168
L37.3038 -7.51142
L37.8004 -7.52984
L38.2966 -7.55693
L38.792 -7.59268
L39.2866 -7.63709
L39.7801 -7.69013
L40.2726 -7.75181
L40.7637 -7.82208
L41.2534 -7.90094
L41.7414 -7.98836
L42.2278 -8.08431
L42.7122 -8.18876
L43.1946 -8.30168
L43.6747 -8.42305
L44.1526 -8.55281
L44.628 -8.69093
L45.1007 -8.83737
L45.5707 -8.99209
L46.0377 -9.15503
L46.5017 -9.32615
L46.9625 -9.5054
L47.42 -9.69271
L47.8739 -9.88804
L48.3243 -10.0913
L48.7709 -10.3025
z
" id="C0_1_62c14082f8"/>
     <path d="
M57.8767 -17.926
L57.9943 -18.3748
L58.1155 -18.8345
L58.2378 -19.303
L58.3591 -19.7786
L58.4778 -20.2598
L58.5925 -20.7452
L58.7021 -21.2336
L58.8058 -21.724
L58.903 -22.2153
L58.9931 -22.7068
L59.0759 -23.1977
L59.151 -23.6874
L59.2184 -24.1752
L59.2779 -24.6608
L59.3297 -25.1435
L59.3736 -25.623
L59.4099 -26.099
L59.4385 -26.5711
L59.4598 -27.0391
L59.4738 -27.5027
L59.4807 -27.9616
L59.4807 -28.4158
L59.4741 -28.8651
L59.461 -29.3093
L59.4416 -29.7483
L59.4163 -30.1821
L59.3851 -30.6106
L59.3483 -31.0338
L59.3062 -31.4515
L59.2588 -31.864
L59.2065 -32.271
L59.1494 -32.6726
L59.0878 -33.0689
L59.0217 -33.4599
L58.9515 -33.8457
L58.8772 -34.2262
L58.799 -34.6015
L58.7171 -34.9718
L58.6316 -35.337
L58.5427 -35.6972
L58.4505 -36.0526
L58.3552 -36.4032
L58.2568 -36.7491
L58.1555 -37.0904
L58.0514 -37.4271
L57.9446 -37.7594
L57.8352 -38.0873
L57.7232 -38.4109
L57.6088 -38.7304
L57.4921 -39.0459
L57.3731 -39.3573
L57.2519 -39.6649
L57.1285 -39.9686
L57.003 -40.2687
L56.8755 -40.5652
L56.746 -40.8582
L56.6146 -41.1477
L56.4812 -41.4339
L56.346 -41.7169
L56.2089 -41.9967
L56.07 -42.2734
L55.9293 -42.5472
L55.7868 -42.8181
L55.6426 -43.0861
L55.4966 -43.3514
L55.3489 -43.6141
L55.1995 -43.8741
L55.0483 -44.1317
L54.8954 -44.3868
L54.7408 -44.6396
L54.5844 -44.8901
L54.4263 -45.1383
L54.2665 -45.3845
L54.1049 -45.6285
L53.9415 -45.8705
L53.7762 -46.1106
L53.6092 -46.3488
L53.4403 -46.5851
L53.2696 -46.8196
L53.0969 -47.0525
L52.9223 -47.2836
L52.7458 -47.5132
L52.5672 -47.7412
L52.3866 -47.9676
L52.2039 -48.1926
L52.0191 -48.4162
L51.8322 -48.6384
L51.643 -48.8593
L51.4515 -49.0789
L51.2578 -49.2972
L51.0616 -49.5142
L50.8631 -49.7301
L50.662 -49.9449
L50.4585 -50.1585
L50.2523 -50.371
L50.0434 -50.5825
L49.8319 -50.7929
L49.6175 -51.0023
L49.4002 -51.2106
L49.18 -51.418
L48.9568 -51.6244
L48.7305 -51.8298
L48.501 -52.0343
L48.2682 -52.2378
L48.0321 -52.4404
L47.7925 -52.6421
L47.5495 -52.8427
L47.3028 -53.0425
L47.0524 -53.2412
L46.7982 -53.439
L46.5401 -53.6358
L46.2781 -53.8315
L46.0119 -54.0262
L45.7416 -54.2199
L45.4669 -54.4124
L45.1879 -54.6038
L44.9043 -54.7939
L44.6162 -54.9829
L44.3233 -55.1705
L44.0256 -55.3568
L43.723 -55.5416
L43.4154 -55.7249
L43.1026 -55.9067
L42.7846 -56.0868
L42.4612 -56.2652
L42.1324 -56.4417
L41.7981 -56.6162
L41.4581 -56.7887
L41.1123 -56.959
L40.7608 -57.1269
L40.4033 -57.2924
L40.0399 -57.4554
L39.6704 -57.6155
L39.2947 -57.7728
L38.913 -57.927
L38.525 -58.078
L38.1307 -58.2255
L37.7302 -58.3694
L37.3235 -58.5096
L36.9105 -58.6457
L36.4912 -58.7777
L36.0658 -58.9053
L35.6343 -59.0282
L35.1968 -59.1464
L34.7534 -59.2596
L34.3043 -59.3676
L33.8496 -59.4701
L33.3897 -59.5672
L32.9247 -59.6585
L32.455 -59.7439
L31.9809 -59.8233
L31.5029 -59.8967
L31.0215 -59.964
L30.5372 -60.0253
L30.0508 -60.0805
L29.5629 -60.1299
L29.0745 -60.1737
L28.5865 -60.2123
L28.1001 -60.2462
L27.6168 -60.2761
L27.1379 -60.303
L26.6655 -60.328
L26.2015 -60.3525
L25.7483 -60.3783
L25.3087 -60.4075
L24.8859 -60.4428
L24.4831 -60.4869
L24.1041 -60.543
L23.7525 -60.6145
L23.4318 -60.7045
L23.1453 -60.8161
L22.8953 -60.9513
L23.089 -61.1115
L23.5344 -61.4078
L23.9836 -61.6293
L24.4365 -61.8429
L24.8929 -62.0487
L25.3526 -62.2465
L25.8156 -62.4364
L26.2817 -62.6182
L26.7508 -62.7919
L27.2227 -62.9574
L27.6972 -63.1147
L28.1743 -63.2638
L28.6538 -63.4045
L29.1355 -63.5369
L29.6193 -63.661
L30.105 -63.7765
L30.5925 -63.8837
L31.0817 -63.9823
L31.5724 -64.0724
L32.0644 -64.154
L32.5577 -64.227
L33.0519 -64.2913
L33.5471 -64.3471
L34.043 -64.3942
L34.5395 -64.4327
L35.0365 -64.4626
L35.5338 -64.4837
L36.0312 -64.4962
L36.5286 -64.5
L37.0258 -64.4951
L37.5227 -64.4815
L38.0191 -64.4593
L38.515 -64.4284
L39.0101 -64.3888
L39.5042 -64.3406
L39.9973 -64.2838
L40.4892 -64.2183
L40.9797 -64.1442
L41.4686 -64.0616
L41.956 -63.9704
L42.4415 -63.8707
L42.925 -63.7625
L43.4064 -63.6459
L43.8856 -63.5208
L44.3624 -63.3874
L44.8366 -63.2456
L45.3082 -63.0955
L45.7769 -62.9371
L46.2426 -62.7706
L46.7052 -62.5959
L47.1645 -62.4131
L47.6205 -62.2222
L48.0729 -62.0234
L48.5216 -61.8166
L48.9665 -61.602
L49.4074 -61.3795
L49.8443 -61.1494
L50.277 -60.9115
L50.7053 -60.6661
L51.1291 -60.4132
L51.5483 -60.1528
L51.9628 -59.8851
L52.3724 -59.6101
L52.7771 -59.3279
L53.1766 -59.0387
L53.5709 -58.7423
L53.9598 -58.4391
L54.3433 -58.129
L54.7212 -57.8122
L55.0934 -57.4888
L55.4597 -57.1588
L55.8202 -56.8223
L56.1746 -56.4795
L56.5228 -56.1305
L56.8648 -55.7753
L57.2005 -55.4142
L57.5297 -55.0471
L57.8523 -54.6742
L58.1683 -54.2956
L58.4775 -53.9114
L58.7799 -53.5218
L59.0753 -53.1268
L59.3637 -52.7267
L59.645 -52.3214
L59.9191 -51.9112
L60.1859 -51.4961
L60.4453 -51.0763
L60.6973 -50.6519
L60.9418 -50.223
L61.1786 -49.7898
L61.4078 -49.3524
L61.6293 -48.911
L61.8429 -48.4656
L62.0487 -48.0164
L62.2465 -47.5635
L62.4364 -47.1071
L62.6182 -46.6474
L62.7919 -46.1844
L62.9574 -45.7183
L63.1147 -45.2492
L63.2638 -44.7773
L63.4045 -44.3028
L63.5369 -43.8257
L63.661 -43.3462
L63.7765 -42.8645
L63.8837 -42.3807
L63.9823 -41.895
L64.0724 -41.4075
L64.154 -40.9183
L64.227 -40.4276
L64.2913 -39.9356
L64.3471 -39.4423
L64.3942 -38.9481
L64.4327 -38.4529
L64.4626 -37.957
L64.4837 -37.4605
L64.4962 -36.9635
L64.5 -36.4662
L64.4951 -35.9688
L64.4815 -35.4714
L64.4593 -34.9742
L64.4284 -34.4773
L64.3888 -33.9809
L64.3406 -33.485
L64.2838 -32.9899
L64.2183 -32.4958
L64.1442 -32.0027
L64.0616 -31.5108
L63.9704 -31.0203
L63.8707 -30.5314
L63.7625 -30.044
L63.6459 -29.5585
L63.5208 -29.075
L63.3874 -28.5936
L63.2456 -28.1144
L63.0955 -27.6376
L62.9371 -27.1634
L62.7706 -26.6918
L62.5959 -26.2231
L62.4131 -25.7574
L62.2222 -25.2948
L62.0234 -24.8355
L61.8166 -24.3795
L61.602 -23.9271
L61.3795 -23.4784
L61.1494 -23.0335
L60.9115 -22.5926
L60.6661 -22.1557
L60.4132 -21.723
L60.1528 -21.2947
L59.8851 -20.8709
L59.6101 -20.4517
L59.3279 -20.0372
L59.0387 -19.6276
L58.7423 -19.2229
L58.4391 -18.8234
z
" id="C0_2_e167f9f37c"/>
    </defs>
    <g clip-path="url(#p1bffca34e9)">
     <use style="fill:#ff0000;stroke:#000000;stroke-width:2.0;" x="0.0" xlink:href="#C0_0_a811fe30f3" y="72.0"/>
    </g>
    <g clip-path="url(#p1bffca34e9)">
     <use style="fill:#ffffff;stroke:#000000;stroke-width:2.0;" x="0.0" xlink:href="#C0_1_62c14082f8" y="72.0"/>
    </g>
    <g clip-path="url(#p1bffca34e9)">
     <use style="fill:#ffffff;stroke:#000000;stroke-width:2.0;" x="0.0" xlink:href="#C0_2_e167f9f37c" y="72.0"/>
    </g>
   </g>
  </g>
 </g>
 <defs>
  <clipPath id="p1bffca34e9">
   <rect height="72.0" width="72.0" x="0.0" y="0.0"/>
  </clipPath>
 </defs>
</svg>
