<?xml version="1.0" encoding="utf-8" standalone="no"?>
<!DOCTYPE svg PUBLIC "-//W3C//DTD SVG 1.1//EN"
  "http://www.w3.org/Graphics/SVG/1.1/DTD/svg11.dtd">
<!-- Created with matplotlib (http://matplotlib.org/) -->
<svg height="72pt" version="1.1" viewBox="0 0 72 72" width="72pt" xmlns="http://www.w3.org/2000/svg" xmlns:xlink="http://www.w3.org/1999/xlink">
 <defs>
  <style type="text/css">
*{stroke-linecap:butt;stroke-linejoin:round;}
  </style>
 </defs>
 <g id="figure_1">
  <g id="patch_1">
   <path d="
M0 72
L72 72
L72 0
L0 0
z
" style="fill:none;"/>
  </g>
  <g id="axes_1">
   <g id="PatchCollection_1">
    <defs>
     <path d="
M36 -7.5
C43.5583 -7.5 50.808 -10.5029 56.1525 -15.8475
C61.4971 -21.192 64.5 -28.4417 64.5 -36
C64.5 -43.5583 61.4971 -50.808 56.1525 -56.1525
C50.808 -61.4971 43.5583 -64.5 36 -64.5
C28.4417 -64.5 21.192 -61.4971 15.8475 -56.1525
C10.5029 -50.808 7.5 -43.5583 7.5 -36
C7.5 -28.4417 10.5029 -21.192 15.8475 -15.8475
C21.192 -10.5029 28.4417 -7.5 36 -7.5
z
" id="C0_0_a811fe30f3"/>
     <path d="
M63.8253 -30.292
L63.655 -30.359
L63.484 -30.4255
L63.3124 -30.4916
L63.1401 -30.5574
L62.967 -30.6229
L62.7931 -30.6881
L62.6184 -30.753
L62.4428 -30.8176
L62.2663 -30.882
L62.0889 -30.9461
L61.7311 -31.0101
L61.5506 -31.074
L61.3689 -31.1376
L61.1861 -31.2012
L61.0022 -31.2646
L60.8169 -31.328
L60.6303 -31.3913
L60.4424 -31.4546
L60.253 -31.5179
L60.0622 -31.5811
L59.8698 -31.6444
L59.6758 -31.7077
L59.4802 -31.7711
L59.2829 -31.8346
L59.0838 -31.8982
L58.8829 -31.9618
L58.6801 -32.0257
L58.4753 -32.0896
L58.2684 -32.1538
L58.0595 -32.2181
L57.8484 -32.2827
L57.635 -32.3475
L57.4194 -32.4125
L57.2013 -32.4778
L56.9807 -32.5434
L56.7576 -32.6093
L56.5319 -32.6756
L56.3034 -32.7421
L56.0721 -32.809
L55.838 -32.8763
L55.6009 -32.944
L55.3607 -33.0121
L55.1174 -33.0806
L54.8708 -33.1495
L54.621 -33.2189
L54.3677 -33.2888
L54.1109 -33.3592
L53.8505 -33.4301
L53.5863 -33.5015
L53.3185 -33.5734
L53.0467 -33.6458
L52.7709 -33.7189
L52.4911 -33.7925
L52.2071 -33.8666
L51.9188 -33.9414
L51.6262 -34.0168
L51.3291 -34.0927
L51.0275 -34.1693
L50.7213 -34.2465
L50.4103 -34.3243
L50.0946 -34.4027
L49.774 -34.4818
L49.4485 -34.5614
L49.1179 -34.6417
L48.7823 -34.7226
L48.4416 -34.8041
L48.0956 -34.8862
L47.7445 -34.9688
L47.3881 -35.0519
L47.0264 -35.1356
L46.6594 -35.2198
L46.2871 -35.3044
L45.9096 -35.3894
L45.5267 -35.4747
L45.1387 -35.5604
L44.7455 -35.6463
L44.3472 -35.7324
L43.9439 -35.8185
L43.5357 -35.9046
L43.1227 -35.9906
L42.7053 -36.0763
L42.2834 -36.1616
L41.8574 -36.2463
L41.4275 -36.3302
L40.9941 -36.4131
L40.5575 -36.4946
L40.1182 -36.5745
L39.6766 -36.6523
L39.2334 -36.7274
L38.7893 -36.7994
L38.3451 -36.8673
L37.9021 -36.9303
L37.4615 -36.9868
L37.0251 -37.0354
L36.5951 -37.0738
L36.1744 -37.0989
L35.7666 -37.107
L35.3763 -37.093
L35.0086 -37.0506
L34.6689 -36.9725
L34.3611 -36.8515
L34.0871 -36.6819
L33.8459 -36.4618
L33.6339 -36.1934
L33.4465 -35.8829
L33.279 -35.5378
L33.1274 -35.1657
L32.9886 -34.7731
L32.8599 -34.3655
L32.7396 -33.9469
L32.6264 -33.5206
L32.5191 -33.089
L32.417 -32.6541
L32.3195 -32.2173
L32.2262 -31.7798
L32.1366 -31.3427
L32.0505 -30.9068
L31.9677 -30.4726
L31.888 -30.0408
L31.8111 -29.6119
L31.7371 -29.1862
L31.6657 -28.7641
L31.5969 -28.3459
L31.5306 -27.9318
L31.4666 -27.522
L31.405 -27.1167
L31.3456 -26.7162
L31.2885 -26.3204
L31.2334 -25.9295
L31.1804 -25.5436
L31.1294 -25.1627
L31.0804 -24.7869
L31.0333 -24.4162
L30.988 -24.0506
L30.9445 -23.6901
L30.9027 -23.3347
L30.8627 -22.9844
L30.8243 -22.6391
L30.7876 -22.2989
L30.7524 -21.9635
L30.7187 -21.6331
L30.6865 -21.3075
L30.6558 -20.9867
L30.6265 -20.6706
L30.5985 -20.3591
L30.5719 -20.0521
L30.5465 -19.7496
L30.5225 -19.4515
L30.4996 -19.1576
L30.478 -18.868
L30.4575 -18.5824
L30.4381 -18.3008
L30.4199 -18.0232
L30.4027 -17.7494
L30.3867 -17.4793
L30.3716 -17.2129
L30.3575 -16.95
L30.3445 -16.6906
L30.3323 -16.4345
L30.3212 -16.1817
L30.3109 -15.9321
L30.3016 -15.6856
L30.2932 -15.4421
L30.2856 -15.2015
L30.2789 -14.9637
L30.273 -14.7287
L30.268 -14.4963
L30.2638 -14.2666
L30.2604 -14.0393
L30.2578 -13.8144
L30.256 -13.5919
L30.255 -13.3717
L30.2548 -13.1536
L30.2553 -12.9377
L30.2566 -12.7238
L30.2587 -12.5119
L30.2615 -12.3019
L30.2651 -12.0937
L30.2695 -11.8873
L30.2746 -11.6825
L30.2805 -11.4795
L30.2871 -11.278
L30.2945 -11.078
L30.3027 -10.8795
L30.3117 -10.6823
L30.3214 -10.4865
L30.332 -10.292
L30.3433 -10.0987
L30.3555 -9.90658
L30.3685 -9.71557
L30.3823 -9.52562
L30.397 -9.33669
L30.4125 -9.14872
L30.4289 -8.96167
L30.4462 -8.77548
L30.4644 -8.59012
L30.4836 -8.40553
L30.5037 -8.22167
L30.992 -8.03851
L31.4824 -7.94346
L31.9742 -7.86033
L32.4672 -7.78577
L32.9613 -7.71981
L33.4563 -7.66246
L33.9521 -7.61374
L34.4485 -7.57367
L34.9454 -7.54226
L35.4426 -7.51952
L35.94 -7.50545
L36.4374 -7.50006
L36.9347 -7.50336
L37.4317 -7.51533
L37.9282 -7.53598
L38.4242 -7.5653
L38.9194 -7.60329
L39.4137 -7.64992
L39.907 -7.70519
L40.3991 -7.76907
L40.8899 -7.84156
L41.3792 -7.92262
L41.8668 -8.01224
L42.3526 -8.11038
L42.8365 -8.21702
L43.3184 -8.33212
L43.798 -8.45565
L44.2752 -8.58757
L44.7499 -8.72783
L45.2219 -8.87641
L45.6912 -9.03325
L46.1575 -9.1983
L46.6206 -9.37152
L47.0806 -9.55285
L47.5372 -9.74223
L47.9902 -9.93961
L48.4396 -10.1449
L48.8852 -10.3581
L49.3269 -10.5791
L49.7646 -10.8079
L50.198 -11.0443
L50.6271 -11.2883
L51.0518 -11.5399
L51.4719 -11.7989
L51.8872 -12.0653
L52.2977 -12.3389
L52.7033 -12.6198
L53.1038 -12.9078
L53.499 -13.2028
L53.889 -13.5048
L54.2734 -13.8136
L54.6524 -14.1292
L55.0256 -14.4515
L55.393 -14.7803
L55.7546 -15.1156
L56.1101 -15.4572
L56.4595 -15.8051
L56.8026 -16.1591
L57.1394 -16.5192
L57.4698 -16.8852
L57.7937 -17.2571
L58.1109 -17.6346
L58.4213 -18.0178
L58.725 -18.4064
L59.0217 -18.8004
L59.3114 -19.1996
L59.594 -19.604
L59.8694 -20.0133
L60.1375 -20.4275
L60.3983 -20.8465
L60.6517 -21.27
L60.8975 -21.6981
L61.1358 -22.1305
L61.3664 -22.5671
L61.5893 -23.0078
L61.8044 -23.4525
L62.0116 -23.901
L62.2109 -24.3532
L62.4022 -24.809
L62.5855 -25.2681
L62.7607 -25.7305
L62.9277 -26.1961
L63.0865 -26.6646
L63.2371 -27.136
L63.3794 -27.6101
L63.5133 -28.0867
L63.6389 -28.5657
L63.756 -29.047
z
" id="C0_1_c6800319f3"/>
     <path d="
M41.4094 -63.806
L41.3214 -63.6422
L41.2336 -63.4766
L41.1458 -63.3092
L41.0582 -63.14
L40.9706 -62.969
L40.8831 -62.796
L40.7955 -62.6211
L40.708 -62.444
L40.6204 -62.2649
L40.5327 -62.0837
L40.4449 -61.9002
L40.357 -61.7144
L40.2689 -61.5262
L40.1806 -61.3356
L40.0922 -61.1425
L40.0035 -60.9468
L39.9145 -60.7485
L39.8252 -60.5474
L39.7356 -60.3435
L39.6457 -60.1368
L39.5555 -59.9271
L39.4648 -59.7143
L39.3737 -59.4983
L39.2822 -59.2792
L39.1903 -59.0567
L39.0978 -58.8308
L39.0049 -58.6014
L38.9114 -58.3685
L38.8174 -58.1318
L38.7228 -57.8914
L38.6277 -57.6471
L38.5319 -57.3988
L38.4355 -57.1465
L38.3385 -56.8899
L38.2407 -56.6292
L38.1424 -56.364
L38.0433 -56.0944
L37.9435 -55.8202
L37.843 -55.5414
L37.7417 -55.2579
L37.6397 -54.9695
L37.5369 -54.6762
L37.4334 -54.3779
L37.329 -54.0745
L37.2239 -53.766
L37.118 -53.4522
L37.0112 -53.1331
L36.9037 -52.8086
L36.7953 -52.4788
L36.6861 -52.1434
L36.5761 -51.8026
L36.4653 -51.4563
L36.3537 -51.1045
L36.2413 -50.7471
L36.128 -50.3843
L36.014 -50.0159
L35.8991 -49.6422
L35.7834 -49.2631
L35.6669 -48.8788
L35.5495 -48.4893
L35.4313 -48.0949
L35.3123 -47.6957
L35.1923 -47.2919
L35.0714 -46.8838
L34.9495 -46.4717
L34.8264 -46.056
L34.7022 -45.6371
L34.5765 -45.2156
L34.4493 -44.7921
L34.3201 -44.3673
L34.1886 -43.9423
L34.0542 -43.5182
L33.9162 -43.0964
L33.7737 -42.679
L33.6251 -42.2682
L33.4689 -41.8674
L33.3023 -41.4806
L33.1224 -41.1131
L32.9248 -40.7715
L32.705 -40.4633
L32.4581 -40.1961
L32.1803 -39.9757
L31.8704 -39.8044
L31.5298 -39.6802
L31.1625 -39.5975
L30.7735 -39.5487
L30.3679 -39.5268
L29.9501 -39.5253
L29.5238 -39.5392
L29.0916 -39.5647
L28.6559 -39.5988
L28.2184 -39.6394
L27.7803 -39.6847
L27.3428 -39.7335
L26.9066 -39.7849
L26.4727 -39.8381
L26.0414 -39.8924
L25.6134 -39.9475
L25.1889 -40.003
L24.7685 -40.0584
L24.3523 -40.1137
L23.9406 -40.1686
L23.5337 -40.223
L23.1317 -40.2767
L22.7347 -40.3296
L22.343 -40.3816
L21.9565 -40.4327
L21.5754 -40.4827
L21.1997 -40.5318
L20.8295 -40.5798
L20.4648 -40.6266
L20.1056 -40.6724
L19.7519 -40.717
L19.4036 -40.7605
L19.0608 -40.8028
L18.7234 -40.844
L18.3913 -40.8841
L18.0646 -40.9231
L17.7431 -40.9609
L17.4268 -40.9976
L17.1156 -41.0333
L16.8094 -41.0678
L16.5082 -41.1013
L16.2118 -41.1338
L15.9202 -41.1652
L15.6333 -41.1956
L15.3509 -41.2251
L15.0731 -41.2535
L14.7996 -41.281
L14.5305 -41.3076
L14.2655 -41.3332
L14.0046 -41.358
L13.7477 -41.3819
L13.4947 -41.4049
L13.2455 -41.4271
L13.0001 -41.4484
L12.7582 -41.4689
L12.5198 -41.4887
L12.2849 -41.5076
L12.0533 -41.5258
L11.8249 -41.5432
L11.5997 -41.5599
L11.3775 -41.5759
L11.1582 -41.5912
L10.9419 -41.6057
L10.7283 -41.6196
L10.5175 -41.6328
L10.3093 -41.6453
L10.1036 -41.6572
L9.90043 -41.6684
L9.69963 -41.679
L9.50115 -41.6889
L9.30491 -41.6982
L9.11086 -41.7069
L8.9189 -41.715
L8.72898 -41.7225
L8.54103 -41.7293
L8.35498 -41.7356
L8.19253 -41.7412
L8.30575 -42.2446
L8.4274 -42.7289
L8.55746 -43.2112
L8.69587 -43.6913
L8.8426 -44.1691
L8.9976 -44.6444
L9.16083 -45.117
L9.33223 -45.5869
L9.51175 -46.0539
L9.69935 -46.5177
L9.89495 -46.9784
L10.0985 -47.4358
L10.31 -47.8896
L10.5292 -48.3398
L10.7563 -48.7863
L10.991 -49.2289
L11.2333 -49.6674
L11.4832 -50.1018
L11.7406 -50.5319
L12.0053 -50.9576
L12.2773 -51.3787
L12.5566 -51.7951
L12.843 -52.2067
L13.1365 -52.6134
L13.4369 -53.015
L13.7443 -53.4114
L14.0583 -53.8026
L14.3791 -54.1883
L14.7065 -54.5684
L15.0403 -54.943
L15.3805 -55.3117
L15.727 -55.6745
L16.0797 -56.0314
L16.4385 -56.3822
L16.8032 -56.7267
L17.1738 -57.065
L17.55 -57.3968
L17.932 -57.7221
L18.3194 -58.0408
L18.7122 -58.3528
L19.1102 -58.6579
L19.5135 -58.9562
L19.9217 -59.2475
L20.3348 -59.5316
L20.7527 -59.8087
L21.1753 -60.0784
L21.6023 -60.3409
L22.0338 -60.5959
L22.4695 -60.8434
L22.9093 -61.0834
L23.3531 -61.3157
L23.8008 -61.5403
L24.2522 -61.7571
L24.7071 -61.9661
L25.1655 -62.1672
L25.6272 -62.3603
L26.0921 -62.5454
L26.56 -62.7223
L27.0307 -62.8912
L27.5042 -63.0518
L27.9803 -63.2043
L28.4588 -63.3484
L28.9396 -63.4842
L29.4226 -63.6116
L29.9076 -63.7306
L30.3944 -63.8412
L30.8829 -63.9433
L31.373 -64.0369
L31.8645 -64.1219
L32.3573 -64.1984
L32.8511 -64.2662
L33.346 -64.3255
L33.8416 -64.3762
L34.3379 -64.4182
L34.8347 -64.4515
L35.3318 -64.4762
L35.8292 -64.4922
L36.3266 -64.4995
L36.8239 -64.4981
L37.321 -64.4881
L37.8176 -64.4694
L38.3137 -64.442
L38.8091 -64.4059
L39.3037 -64.3612
L39.7972 -64.3079
L40.2896 -64.2459
L40.7807 -64.1753
z
" id="C0_2_2418fe4bb5"/>
    </defs>
    <g clip-path="url(#p1bffca34e9)">
     <use style="fill:#ff0000;stroke:#000000;stroke-width:2.0;" x="0.0" xlink:href="#C0_0_a811fe30f3" y="72.0"/>
    </g>
    <g clip-path="url(#p1bffca34e9)">
     <use style="fill:#ffffff;stroke:#000000;stroke-width:2.0;" x="0.0" xlink:href="#C0_1_c6800319f3" y="72.0"/>
    </g>
    <g clip-path="url(#p1bffca34e9)">
     <use style="fill:#ffffff;stroke:#000000;stroke-width:2.0;" x="0.0" xlink:href="#C0_2_2418fe4bb5" y="72.0"/>
    </g>
   </g>
  </g>
 </g>
 <defs>
  <clipPath id="p1bffca34e9">
   <rect height="72.0" width="72.0" x="0.0" y="0.0"/>
  </clipPath>
 </defs>
</svg>
