<?xml version="1.0" encoding="utf-8" standalone="no"?>
<!DOCTYPE svg PUBLIC "-//W3C//DTD SVG 1.1//EN"
  "http://www.w3.org/Graphics/SVG/1.1/DTD/svg11.dtd">
<!-- Created with matplotlib (http://matplotlib.org/) -->
<svg height="72pt" version="1.1" viewBox="0 0 72 72" width="72pt" xmlns="http://www.w3.org/2000/svg" xmlns:xlink="http://www.w3.org/1999/xlink">
 <defs>
  <style type="text/css">
*{stroke-linecap:butt;stroke-linejoin:round;}
  </style>
 </defs>
 <g id="figure_1">
  <g id="patch_1">
   <path d="
M0 72
L72 72
L72 0
L0 0
z
" style="fill:none;"/>
  </g>
  <g id="axes_1">
   <g id="PatchCollection_1">
    <defs>
     <path d="
M36 -7.5
C43.5583 -7.5 50.808 -10.5029 56.1525 -15.8475
C61.4971 -21.192 64.5 -28.4417 64.5 -36
C64.5 -43.5583 61.4971 -50.808 56.1525 -56.1525
C50.808 -61.4971 43.5583 -64.5 36 -64.5
C28.4417 -64.5 21.192 -61.4971 15.8475 -56.1525
C10.5029 -50.808 7.5 -43.5583 7.5 -36
C7.5 -28.4417 10.5029 -21.192 15.8475 -15.8475
C21.192 -10.5029 28.4417 -7.5 36 -7.5
z
" id="C0_0_a811fe30f3"/>
     <path d="
M45.7184 -62.6439
L45.6193 -62.4874
L45.5204 -62.33
L45.4215 -62.1719
L45.3228 -62.013
L45.224 -61.8533
L45.1253 -61.6927
L45.0266 -61.5312
L44.9279 -61.3688
L44.8291 -61.2054
L44.6312 -61.041
L44.5321 -60.8756
L44.4328 -60.7092
L44.3333 -60.5416
L44.2336 -60.3729
L44.1337 -60.203
L44.0335 -60.0319
L43.933 -59.8595
L43.8321 -59.6858
L43.7309 -59.5107
L43.6293 -59.3342
L43.5274 -59.1563
L43.4249 -58.9769
L43.322 -58.7959
L43.2186 -58.6133
L43.1147 -58.4291
L43.0102 -58.2432
L42.9052 -58.0555
L42.7995 -57.866
L42.6932 -57.6746
L42.5862 -57.4813
L42.4784 -57.286
L42.37 -57.0887
L42.2607 -56.8893
L42.1507 -56.6877
L42.0398 -56.4838
L41.9281 -56.2777
L41.8154 -56.0692
L41.7019 -55.8583
L41.5873 -55.6449
L41.4718 -55.429
L41.3552 -55.2104
L41.2375 -54.9892
L41.1187 -54.7652
L40.9988 -54.5383
L40.8777 -54.3086
L40.7554 -54.0759
L40.6319 -53.8402
L40.5071 -53.6014
L40.3809 -53.3594
L40.2535 -53.1142
L40.1246 -52.8658
L39.9943 -52.6139
L39.8625 -52.3586
L39.7293 -52.0999
L39.5945 -51.8376
L39.4582 -51.5718
L39.3202 -51.3023
L39.1806 -51.0291
L39.0394 -50.7522
L38.8964 -50.4716
L38.7518 -50.1871
L38.6053 -49.8989
L38.457 -49.6068
L38.3069 -49.3108
L38.1549 -49.0111
L38.0011 -48.7075
L37.8452 -48.4001
L37.6874 -48.0889
L37.5275 -47.774
L37.3656 -47.4555
L37.2017 -47.1334
L37.0355 -46.8078
L36.8672 -46.4789
L36.6966 -46.1468
L36.5238 -45.8117
L36.3486 -45.4738
L36.1709 -45.1334
L35.9908 -44.7906
L35.8081 -44.4459
L35.6227 -44.0996
L35.4345 -43.7521
L35.2433 -43.4039
L35.049 -43.0555
L34.8514 -42.7075
L34.6503 -42.3606
L34.4455 -42.0155
L34.2365 -41.6733
L34.0232 -41.3347
L33.805 -41.0009
L33.5817 -40.6731
L33.3525 -40.3527
L33.1171 -40.0411
L32.8749 -39.7398
L32.6252 -39.4507
L32.3673 -39.1753
L32.1008 -38.9156
L31.8251 -38.6732
L31.5396 -38.4498
L31.2442 -38.2469
L30.9387 -38.0656
L30.6232 -37.9066
L30.298 -37.7704
L29.9636 -37.6569
L29.6206 -37.5656
L29.27 -37.4957
L28.9125 -37.4461
L28.5491 -37.4152
L28.1809 -37.4017
L27.8088 -37.4041
L27.4337 -37.4207
L27.0565 -37.4502
L26.678 -37.491
L26.2989 -37.542
L25.9201 -37.602
L25.5419 -37.6698
L25.165 -37.7446
L24.79 -37.8255
L24.4171 -37.9116
L24.0469 -38.0025
L23.6796 -38.0973
L23.3155 -38.1957
L22.955 -38.2971
L22.5982 -38.4011
L22.2454 -38.5073
L21.8966 -38.6155
L21.5521 -38.7252
L21.2119 -38.8364
L20.8762 -38.9486
L20.5451 -39.0617
L20.2185 -39.1755
L19.8966 -39.2899
L19.5794 -39.4047
L19.2668 -39.5198
L18.9589 -39.635
L18.6557 -39.7503
L18.3572 -39.8655
L18.0633 -39.9807
L17.774 -40.0956
L17.4893 -40.2104
L17.2091 -40.3248
L16.9333 -40.4389
L16.662 -40.5526
L16.395 -40.6659
L16.1323 -40.7787
L15.8738 -40.8911
L15.6194 -41.0031
L15.3692 -41.1145
L15.1229 -41.2254
L14.8805 -41.3358
L14.642 -41.4458
L14.4072 -41.5552
L14.1761 -41.664
L13.9487 -41.7724
L13.7248 -41.8803
L13.5043 -41.9877
L13.2872 -42.0946
L13.0734 -42.2011
L12.8628 -42.3071
L12.6554 -42.4126
L12.4511 -42.5178
L12.2497 -42.6225
L12.0513 -42.7269
L11.8557 -42.8308
L11.663 -42.9345
L11.4729 -43.0378
L11.2855 -43.1408
L11.1007 -43.2436
L10.9185 -43.346
L10.7386 -43.4483
L10.5612 -43.5504
L10.3861 -43.6522
L10.2134 -43.754
L10.0428 -43.8556
L9.87442 -43.9571
L9.70816 -44.0585
L9.54398 -44.1599
L9.38181 -44.2613
L9.22162 -44.3628
L9.06337 -44.4642
L8.907 -44.5658
L9.01094 -44.6675
L9.17485 -45.1565
L9.34694 -45.6261
L9.52714 -46.0928
L9.71541 -46.5564
L9.91168 -47.0168
L10.1159 -47.4739
L10.328 -47.9274
L10.5479 -48.3773
L10.7756 -48.8235
L11.011 -49.2657
L11.2539 -49.704
L11.5045 -50.138
L11.7624 -50.5677
L12.0278 -50.993
L12.3004 -51.4137
L12.5803 -51.8297
L12.8673 -52.2409
L13.1614 -52.6472
L13.4624 -53.0484
L13.7703 -53.4444
L14.0849 -53.8351
L14.4063 -54.2203
L14.7342 -54.6
L15.0685 -54.974
L15.4093 -55.3423
L15.7563 -55.7046
L16.1095 -56.061
L16.4688 -56.4112
L16.834 -56.7553
L17.205 -57.093
L17.5818 -57.4243
L17.9642 -57.749
L18.352 -58.0671
L18.7453 -58.3785
L19.1438 -58.6831
L19.5474 -58.9808
L19.9561 -59.2715
L20.3696 -59.5551
L20.7879 -59.8315
L21.2108 -60.1007
L21.6383 -60.3625
L22.0701 -60.6169
L22.5061 -60.8638
L22.9463 -61.1031
L23.3904 -61.3348
L23.8384 -61.5587
L24.2901 -61.7749
L24.7454 -61.9832
L25.2041 -62.1836
L25.666 -62.3761
L26.1311 -62.5605
L26.5993 -62.7368
L27.0703 -62.9049
L27.544 -63.0649
L28.0202 -63.2166
L28.499 -63.3601
L28.98 -63.4952
L29.4631 -63.6219
L29.9482 -63.7402
L30.4352 -63.8501
L30.9239 -63.9514
L31.4141 -64.0443
L31.9057 -64.1286
L32.3985 -64.2044
L32.8925 -64.2715
L33.3874 -64.3301
L33.8831 -64.38
L34.3794 -64.4213
L34.8763 -64.4539
L35.3735 -64.4778
L35.8708 -64.4931
L36.3682 -64.4997
L36.8655 -64.4976
L37.3626 -64.4869
L37.8592 -64.4674
L38.3552 -64.4393
L38.8506 -64.4025
L39.345 -64.3571
L39.8385 -64.303
L40.3308 -64.2403
L40.8217 -64.169
L41.3112 -64.0892
L41.7991 -64.0007
L42.2852 -63.9038
L42.7694 -63.7983
L43.2515 -63.6844
L43.7314 -63.562
L44.209 -63.4313
L44.684 -63.2922
L45.1565 -63.1447
z
" id="C0_1_2036744a49"/>
     <path d="
M63.0111 -27.3068
L62.8252 -27.3148
L62.6388 -27.3236
L62.4517 -27.3331
L62.264 -27.3432
L62.0756 -27.354
L61.8864 -27.3656
L61.6965 -27.3778
L61.5057 -27.3906
L61.314 -27.4042
L61.1214 -27.4184
L60.9279 -27.4332
L60.7333 -27.4487
L60.5376 -27.4649
L60.3409 -27.4817
L60.143 -27.4993
L59.9438 -27.5174
L59.7434 -27.5363
L59.5417 -27.5558
L59.3386 -27.5759
L59.134 -27.5968
L58.928 -27.6184
L58.7204 -27.6406
L58.5112 -27.6635
L58.3003 -27.6871
L58.0877 -27.7115
L57.8733 -27.7366
L57.6571 -27.7623
L57.4389 -27.7889
L57.2188 -27.8161
L56.9966 -27.8442
L56.7722 -27.873
L56.5457 -27.9026
L56.317 -27.9329
L56.0859 -27.9641
L55.8524 -27.9961
L55.6165 -28.0289
L55.378 -28.0626
L55.1369 -28.0971
L54.8931 -28.1325
L54.6465 -28.1687
L54.3971 -28.2059
L54.1448 -28.244
L53.8895 -28.283
L53.6312 -28.3229
L53.3697 -28.3638
L53.105 -28.4057
L52.837 -28.4486
L52.5657 -28.4924
L52.2909 -28.5373
L52.0127 -28.5832
L51.7308 -28.6301
L51.4453 -28.6781
L51.1561 -28.7271
L50.8631 -28.7771
L50.5663 -28.8283
L50.2656 -28.8805
L49.9609 -28.9337
L49.6523 -28.988
L49.3396 -29.0434
L49.0228 -29.0998
L48.7019 -29.1573
L48.3768 -29.2158
L48.0476 -29.2752
L47.7142 -29.3357
L47.3766 -29.397
L47.0348 -29.4592
L46.6889 -29.5223
L46.3388 -29.5861
L45.9847 -29.6506
L45.6265 -29.7156
L45.2644 -29.7812
L44.8984 -29.8471
L44.5287 -29.9132
L44.1553 -29.9793
L43.7785 -30.0454
L43.3983 -30.111
L43.0151 -30.1761
L42.629 -30.2402
L42.2402 -30.3032
L41.8492 -30.3645
L41.4563 -30.4238
L41.0617 -30.4806
L40.666 -30.5343
L40.2695 -30.5842
L39.8729 -30.6297
L39.4768 -30.67
L39.0817 -30.704
L38.6884 -30.7307
L38.2977 -30.749
L37.9104 -30.7576
L37.5274 -30.7551
L37.1497 -30.7401
L36.7784 -30.7108
L36.4143 -30.6658
L36.0587 -30.6035
L35.7123 -30.5225
L35.376 -30.4216
L35.0507 -30.2997
L34.7368 -30.1564
L34.4346 -29.9913
L34.1443 -29.8049
L33.8658 -29.5978
L33.5989 -29.371
L33.343 -29.1259
L33.0978 -28.864
L32.8625 -28.587
L32.6366 -28.2966
L32.4195 -27.9946
L32.2105 -27.6824
L32.009 -27.3618
L31.8147 -27.034
L31.6269 -26.7004
L31.4453 -26.3623
L31.2695 -26.0206
L31.0992 -25.6763
L30.934 -25.3302
L30.7737 -24.9832
L30.6181 -24.6358
L30.4669 -24.2887
L30.3199 -23.9424
L30.1771 -23.5973
L30.0382 -23.254
L29.9031 -22.9126
L29.7716 -22.5735
L29.6438 -22.2371
L29.5193 -21.9035
L29.3982 -21.5729
L29.2804 -21.2455
L29.1658 -20.9214
L29.0542 -20.6008
L28.9456 -20.2838
L28.8399 -19.9704
L28.7371 -19.6607
L28.637 -19.3548
L28.5396 -19.0526
L28.4449 -18.7543
L28.3527 -18.4598
L28.263 -18.169
L28.1758 -17.8821
L28.091 -17.599
L28.0084 -17.3196
L27.9282 -17.0439
L27.8501 -16.7719
L27.7742 -16.5035
L27.7004 -16.2388
L27.6286 -15.9775
L27.5589 -15.7198
L27.4911 -15.4654
L27.4252 -15.2145
L27.3611 -14.9668
L27.2989 -14.7223
L27.2385 -14.4811
L27.1798 -14.2429
L27.1227 -14.0077
L27.0674 -13.7755
L27.0137 -13.5462
L26.9615 -13.3197
L26.9109 -13.096
L26.8619 -12.8749
L26.8143 -12.6565
L26.7682 -12.4406
L26.7235 -12.2271
L26.6802 -12.0161
L26.6383 -11.8074
L26.5978 -11.601
L26.5586 -11.3968
L26.5207 -11.1947
L26.4842 -10.9948
L26.4489 -10.7968
L26.4148 -10.6007
L26.3821 -10.4066
L26.3505 -10.2143
L26.3202 -10.0238
L26.2911 -9.83492
L26.2632 -9.64774
L26.2365 -9.46215
L26.6652 -9.2781
L27.1366 -9.07211
L27.6106 -8.9133
L28.0873 -8.76273
L28.5663 -8.62047
L29.0476 -8.48654
L29.5311 -8.361
L30.0165 -8.24387
L30.5037 -8.1352
L30.9926 -8.03502
L31.483 -7.94335
L31.9748 -7.86023
L32.4678 -7.78568
L32.9619 -7.71973
L33.4569 -7.66239
L33.9527 -7.61369
L34.4491 -7.57363
L34.946 -7.54223
L35.4432 -7.5195
L35.9406 -7.50544
L36.438 -7.50006
L36.9353 -7.50337
L37.4323 -7.51535
L37.9288 -7.53601
L38.4248 -7.56534
L38.92 -7.60334
L39.4143 -7.64998
L39.9076 -7.70526
L40.3997 -7.76916
L40.8905 -7.84166
L41.3798 -7.92273
L41.8674 -8.01236
L42.3532 -8.11051
L42.8371 -8.21716
L43.319 -8.33227
L43.7986 -8.45581
L44.2758 -8.58774
L44.7505 -8.72801
L45.2225 -8.8766
L45.6918 -9.03345
L46.158 -9.19851
L46.6212 -9.37174
L47.0812 -9.55308
L47.5377 -9.74247
L47.9908 -9.93986
L48.4402 -10.1452
L48.8858 -10.3584
L49.3275 -10.5794
L49.7651 -10.8082
L50.1985 -11.0446
L50.6277 -11.2886
L51.0523 -11.5402
L51.4724 -11.7992
L51.8877 -12.0656
L52.2983 -12.3393
L52.7038 -12.6202
L53.1043 -12.9082
L53.4995 -13.2032
L53.8894 -13.5052
L54.2739 -13.814
L54.6528 -14.1296
L55.0261 -14.4519
L55.3935 -14.7807
L55.755 -15.116
L56.1105 -15.4576
L56.4599 -15.8055
L56.803 -16.1596
L57.1399 -16.5197
L57.4702 -16.8857
L57.7941 -17.2575
L58.1112 -17.6351
L58.4217 -18.0183
L58.7253 -18.4069
L59.022 -18.8009
L59.3117 -19.2001
L59.5943 -19.6045
L59.8697 -20.0138
L60.1379 -20.428
L60.3986 -20.847
L60.652 -21.2706
L60.8978 -21.6986
L61.1361 -22.131
L61.3667 -22.5677
L61.5895 -23.0084
L61.8046 -23.4531
L62.0118 -23.9016
L62.2111 -24.3538
L62.4024 -24.8095
L62.5857 -25.2687
L62.7609 -25.7311
L62.9279 -26.1967
z
" id="C0_2_ce50c38592"/>
    </defs>
    <g clip-path="url(#p1bffca34e9)">
     <use style="fill:#ffffff;stroke:#000000;stroke-width:2.0;" x="0.0" xlink:href="#C0_0_a811fe30f3" y="72.0"/>
    </g>
    <g clip-path="url(#p1bffca34e9)">
     <use style="fill:#ff0000;stroke:#000000;stroke-width:2.0;" x="0.0" xlink:href="#C0_1_2036744a49" y="72.0"/>
    </g>
    <g clip-path="url(#p1bffca34e9)">
     <use style="fill:#ff0000;stroke:#000000;stroke-width:2.0;" x="0.0" xlink:href="#C0_2_ce50c38592" y="72.0"/>
    </g>
   </g>
  </g>
 </g>
 <defs>
  <clipPath id="p1bffca34e9">
   <rect height="72.0" width="72.0" x="0.0" y="0.0"/>
  </clipPath>
 </defs>
</svg>
