<?xml version="1.0" encoding="utf-8" standalone="no"?>
<!DOCTYPE svg PUBLIC "-//W3C//DTD SVG 1.1//EN"
  "http://www.w3.org/Graphics/SVG/1.1/DTD/svg11.dtd">
<!-- Created with matplotlib (http://matplotlib.org/) -->
<svg height="72pt" version="1.1" viewBox="0 0 72 72" width="72pt" xmlns="http://www.w3.org/2000/svg" xmlns:xlink="http://www.w3.org/1999/xlink">
 <defs>
  <style type="text/css">
*{stroke-linecap:butt;stroke-linejoin:round;}
  </style>
 </defs>
 <g id="figure_1">
  <g id="patch_1">
   <path d="
M0 72
L72 72
L72 0
L0 0
z
" style="fill:none;"/>
  </g>
  <g id="axes_1">
   <g id="PatchCollection_1">
    <defs>
     <path d="
M36 -7.5
C43.5583 -7.5 50.808 -10.5029 56.1525 -15.8475
C61.4971 -21.192 64.5 -28.4417 64.5 -36
C64.5 -43.5583 61.4971 -50.808 56.1525 -56.1525
C50.808 -61.4971 43.5583 -64.5 36 -64.5
C28.4417 -64.5 21.192 -61.4971 15.8475 -56.1525
C10.5029 -50.808 7.5 -43.5583 7.5 -36
C7.5 -28.4417 10.5029 -21.192 15.8475 -15.8475
C21.192 -10.5029 28.4417 -7.5 36 -7.5
z
" id="C0_0_a811fe30f3"/>
     <path d="
M53.7761 -13.9701
L53.6973 -14.2099
L53.598 -14.4391
L53.4788 -14.6579
L53.3409 -14.8669
L53.1853 -15.0664
L53.0132 -15.2571
L52.8256 -15.4396
L52.6237 -15.6146
L52.4087 -15.7827
L52.1816 -15.9447
L51.9437 -16.1011
L51.6959 -16.2527
L51.4392 -16.4
L51.1746 -16.5436
L50.903 -16.6839
L50.6252 -16.8216
L50.3421 -16.957
L50.0542 -17.0905
L49.7624 -17.2225
L49.4672 -17.3532
L49.1692 -17.4829
L48.8689 -17.6119
L48.5668 -17.7404
L48.2634 -17.8686
L47.959 -17.9965
L47.654 -18.1244
L47.3487 -18.2522
L47.0435 -18.3803
L46.7386 -18.5085
L46.4342 -18.6369
L46.1306 -18.7657
L45.8279 -18.8948
L45.5264 -19.0242
L45.2262 -19.154
L44.9274 -19.2843
L44.6302 -19.4149
L44.3347 -19.5459
L44.0409 -19.6773
L43.7489 -19.8091
L43.4589 -19.9412
L43.1708 -20.0738
L42.8847 -20.2067
L42.6006 -20.34
L42.3186 -20.4736
L42.0388 -20.6076
L41.761 -20.7419
L41.4853 -20.8764
L41.2118 -21.0113
L40.9404 -21.1465
L40.6711 -21.282
L40.4039 -21.4177
L40.1388 -21.5537
L39.8757 -21.69
L39.6146 -21.8265
L39.3556 -21.9632
L39.0986 -22.1002
L38.8435 -22.2375
L38.5903 -22.375
L38.339 -22.5128
L38.0895 -22.6508
L37.8418 -22.789
L37.5959 -22.9276
L37.3517 -23.0663
L37.1092 -23.2054
L36.8683 -23.3447
L36.629 -23.4844
L36.3912 -23.6243
L36.1549 -23.7645
L35.9201 -23.9051
L35.6867 -24.046
L35.4546 -24.1872
L35.2239 -24.3288
L34.9944 -24.4708
L34.7662 -24.6132
L34.5391 -24.7561
L34.3131 -24.8993
L34.0882 -25.043
L33.8643 -25.1872
L33.6414 -25.3319
L33.4194 -25.4771
L33.1984 -25.6229
L32.9782 -25.7692
L32.7587 -25.9161
L32.54 -26.0636
L32.3221 -26.2118
L32.1048 -26.3607
L31.8881 -26.5102
L31.4563 -26.6605
L31.2412 -26.8115
L31.0265 -26.9634
L30.8123 -27.116
L30.5983 -27.2695
L30.3847 -27.4239
L30.1714 -27.5791
L29.9583 -27.7354
L29.7454 -27.8926
L29.5326 -28.0508
L29.32 -28.2101
L29.1074 -28.3704
L28.8949 -28.5319
L28.6823 -28.6945
L28.4697 -28.8583
L28.2571 -29.0233
L28.0443 -29.1896
L27.8314 -29.3572
L27.6183 -29.5261
L27.4049 -29.6965
L27.1914 -29.8682
L26.9775 -30.0414
L26.7634 -30.2161
L26.5489 -30.3923
L26.334 -30.5701
L26.1187 -30.7495
L25.903 -30.9306
L25.6868 -31.1134
L25.4702 -31.2979
L25.2531 -31.4842
L25.0354 -31.6722
L24.8172 -31.8622
L24.5985 -32.054
L24.3791 -32.2477
L24.1592 -32.4434
L23.9386 -32.6411
L23.7175 -32.8408
L23.4957 -33.0425
L23.2732 -33.2464
L23.0501 -33.4523
L22.8264 -33.6603
L22.602 -33.8705
L22.3769 -34.0828
L22.1512 -34.2973
L21.9249 -34.514
L21.6979 -34.7329
L21.4703 -34.954
L21.2421 -35.1772
L21.0132 -35.4026
L20.7838 -35.6301
L20.5538 -35.8597
L20.3233 -36.0914
L20.0922 -36.3251
L19.8607 -36.5607
L19.6287 -36.7983
L19.3962 -37.0377
L19.1634 -37.2787
L18.9301 -37.5214
L18.6966 -37.7655
L18.4627 -38.011
L18.2285 -38.2576
L17.9941 -38.5052
L17.7595 -38.7535
L17.5247 -39.0023
L17.2897 -39.2514
L17.0545 -39.5004
L16.8193 -39.7491
L16.5838 -39.9969
L16.3483 -40.2436
L16.1125 -40.4887
L15.8766 -40.7316
L15.6405 -40.9719
L15.404 -41.2089
L15.1672 -41.442
L14.93 -41.6704
L14.6922 -41.8935
L14.4537 -42.1103
L14.2144 -42.3199
L13.9741 -42.5215
L13.7326 -42.714
L13.4898 -42.8963
L13.2455 -43.0672
L12.9994 -43.2257
L12.7514 -43.3706
L12.5012 -43.5005
L12.2488 -43.6144
L11.9939 -43.711
L11.7366 -43.7892
L11.4768 -43.848
L11.2146 -43.8864
L10.9499 -43.9035
L10.6831 -43.8988
L10.4144 -43.8716
L10.1441 -43.8215
L9.87268 -43.7485
L9.60054 -43.6523
L9.32824 -43.5333
L9.05635 -43.3916
L8.78549 -43.2276
L8.5163 -43.042
L8.22668 -42.8353
L8.11931 -42.3947
L8.02043 -41.9091
L7.93007 -41.4216
L7.84826 -40.9324
L7.77503 -40.4418
L7.71039 -39.9498
L7.65438 -39.4566
L7.60699 -38.9624
L7.56826 -38.4672
L7.53818 -37.9713
L7.51678 -37.4748
L7.50405 -36.9779
L7.5 -36.4806
L7.50464 -35.9832
L7.51795 -35.4858
L7.53994 -34.9886
L7.5706 -34.4917
L7.60992 -33.9952
L7.65789 -33.4993
L7.71449 -33.0042
L7.7797 -32.5101
L7.85351 -32.0169
L7.9359 -31.525
L8.02683 -31.0345
L8.12629 -30.5455
L8.23423 -30.0581
L8.35064 -29.5725
L8.47546 -29.0889
L8.60867 -28.6074
L8.75023 -28.1282
L8.90008 -27.6514
L9.05819 -27.177
L9.22451 -26.7054
L9.39898 -26.2367
L9.58155 -25.7708
L9.77218 -25.3081
L9.97079 -24.8487
L10.1773 -24.3927
L10.3917 -23.9402
L10.6139 -23.4913
L10.8439 -23.0463
L11.0815 -22.6052
L11.3267 -22.1682
L11.5794 -21.7355
L11.8395 -21.307
L12.107 -20.8831
L12.3818 -20.4637
L12.6638 -20.0491
L12.9529 -19.6393
L13.249 -19.2345
L13.552 -18.8349
L13.8619 -18.4404
L14.1785 -18.0513
L14.5018 -17.6677
L14.8316 -17.2896
L15.1679 -16.9173
L15.5105 -16.5508
L15.8593 -16.1902
L16.2143 -15.8356
L16.5753 -15.4872
L16.9423 -15.145
L17.315 -14.8091
L17.6934 -14.4798
L18.0774 -14.1569
L18.4669 -13.8408
L18.8617 -13.5314
L19.2617 -13.2288
L19.6668 -12.9332
L20.0769 -12.6445
L20.4919 -12.363
L20.9115 -12.0887
L21.3358 -11.8217
L21.7645 -11.5621
L22.1976 -11.3099
L22.6349 -11.0652
L23.0762 -10.8281
L23.5215 -10.5987
L23.9706 -10.377
L24.4233 -10.1631
L24.8796 -9.95713
L25.3393 -9.75906
L25.8022 -9.56898
L26.2682 -9.38695
L26.7372 -9.21302
L27.209 -9.04726
L27.6835 -8.88971
L28.1605 -8.74041
L28.6399 -8.59942
L29.1215 -8.46677
L29.6053 -8.34251
L30.0909 -8.22668
L30.5784 -8.11931
L31.0676 -8.02043
L31.5582 -7.93007
L32.0502 -7.84826
L32.5434 -7.77503
L33.0376 -7.71039
L33.5328 -7.65438
L34.0287 -7.60699
L34.5252 -7.56826
L35.0221 -7.53818
L35.5194 -7.51678
L36.0168 -7.50405
L36.5142 -7.5
L37.0114 -7.50464
L37.5083 -7.51795
L38.0048 -7.53994
L38.5007 -7.5706
L38.9958 -7.60992
L39.4899 -7.65789
L39.9831 -7.71449
L40.475 -7.7797
L40.9655 -7.85351
L41.4545 -7.9359
L41.9419 -8.02683
L42.4275 -8.12629
L42.9111 -8.23423
L43.3926 -8.35064
L43.8718 -8.47546
L44.3486 -8.60867
L44.823 -8.75023
L45.2946 -8.90008
L45.7633 -9.05819
L46.2292 -9.22451
L46.6919 -9.39898
L47.1513 -9.58155
L47.6073 -9.77218
L48.0598 -9.97079
L48.5087 -10.1773
L48.9537 -10.3917
L49.3948 -10.6139
L49.8318 -10.8439
L50.2645 -11.0815
L50.693 -11.3267
L51.1169 -11.5794
L51.5363 -11.8395
L51.9509 -12.107
L52.3607 -12.3818
L52.7655 -12.6638
L53.1651 -12.9529
z
" id="C0_1_6a47aa48a3"/>
     <path d="
M63.6989 -29.4041
L63.5686 -29.7398
L63.4386 -30.0843
L63.3084 -30.4365
L63.1775 -30.7953
L63.0454 -31.1596
L62.9119 -31.5284
L62.7765 -31.9009
L62.6389 -32.276
L62.499 -32.6531
L62.3565 -33.0313
L62.2113 -33.4101
L62.0633 -33.7888
L61.9124 -34.1668
L61.7586 -34.5437
L61.6017 -34.9189
L61.4419 -35.2922
L61.2792 -35.663
L61.1135 -36.0311
L60.9449 -36.3962
L60.7736 -36.7581
L60.5995 -37.1165
L60.4228 -37.4713
L60.2435 -37.8222
L60.0618 -38.1691
L59.8777 -38.512
L59.6913 -38.8506
L59.5027 -39.1851
L59.312 -39.5151
L59.1194 -39.8409
L58.9248 -40.1622
L58.7285 -40.4791
L58.5304 -40.7916
L58.3308 -41.0997
L58.1295 -41.4033
L57.9269 -41.7026
L57.7228 -41.9975
L57.5174 -42.2881
L57.3108 -42.5744
L57.103 -42.8564
L56.8941 -43.1343
L56.6841 -43.408
L56.4731 -43.6777
L56.2611 -43.9433
L56.0482 -44.2049
L55.8344 -44.4627
L55.6198 -44.7166
L55.4044 -44.9668
L55.1881 -45.2132
L54.9712 -45.4561
L54.7534 -45.6954
L54.535 -45.9311
L54.3159 -46.1635
L54.096 -46.3925
L53.8755 -46.6182
L53.6543 -46.8407
L53.4324 -47.06
L53.2099 -47.2763
L52.9866 -47.4895
L52.7627 -47.6998
L52.5381 -47.9071
L52.3128 -48.1116
L52.0868 -48.3134
L51.8601 -48.5124
L51.6326 -48.7088
L51.4044 -48.9026
L51.1754 -49.0938
L50.9456 -49.2826
L50.715 -49.4689
L50.4835 -49.6528
L50.2512 -49.8344
L50.018 -50.0136
L49.7838 -50.1907
L49.5487 -50.3655
L49.3126 -50.5382
L49.0754 -50.7087
L48.8372 -50.8772
L48.5979 -51.0436
L48.3575 -51.208
L48.1159 -51.3704
L47.873 -51.5309
L47.6289 -51.6895
L47.3835 -51.8462
L47.1367 -52.0011
L46.8886 -52.1541
L46.639 -52.3054
L46.3879 -52.4548
L46.1352 -52.6025
L45.881 -52.7484
L45.6252 -52.8926
L45.3676 -53.0352
L45.1083 -53.176
L44.8473 -53.3151
L44.5843 -53.4525
L44.3195 -53.5882
L44.0527 -53.7223
L43.7839 -53.8548
L43.513 -53.9855
L43.24 -54.1146
L42.9647 -54.242
L42.6873 -54.3677
L42.4075 -54.4917
L42.1254 -54.6141
L41.8408 -54.7347
L41.5538 -54.8536
L41.2642 -54.9707
L40.9721 -55.0861
L40.6772 -55.1997
L40.3797 -55.3115
L40.0793 -55.4214
L39.7762 -55.5295
L39.4701 -55.6356
L39.1612 -55.7398
L38.8492 -55.842
L38.5342 -55.9422
L38.216 -56.0403
L37.8948 -56.1363
L37.5704 -56.2301
L37.2427 -56.3217
L36.9118 -56.4111
L36.5775 -56.4981
L36.24 -56.5827
L35.899 -56.6649
L35.5548 -56.7446
L35.2071 -56.8217
L34.856 -56.8961
L34.5015 -56.9679
L34.1436 -57.0369
L33.7823 -57.103
L33.4176 -57.1663
L33.0496 -57.2266
L32.6783 -57.2839
L32.3038 -57.338
L31.9261 -57.389
L31.5452 -57.4369
L31.1614 -57.4814
L30.7746 -57.5227
L30.385 -57.5606
L29.9928 -57.5952
L29.5981 -57.6265
L29.2011 -57.6544
L28.8019 -57.6789
L28.4008 -57.7001
L27.998 -57.718
L27.5939 -57.7328
L27.1887 -57.7445
L26.7826 -57.7532
L26.3762 -57.7592
L25.9697 -57.7625
L25.5635 -57.7635
L25.1582 -57.7625
L24.7543 -57.7597
L24.3521 -57.7556
L23.9523 -57.7505
L23.5556 -57.7451
L23.1624 -57.7398
L22.7736 -57.7353
L22.3898 -57.7322
L22.0117 -57.7313
L21.6401 -57.7335
L21.2759 -57.7396
L20.9198 -57.7504
L20.5727 -57.767
L20.2354 -57.7904
L19.9088 -57.8214
L19.5936 -57.8612
L19.2906 -57.9105
L19.0006 -57.9704
L18.7243 -58.0415
L18.4622 -58.1246
L18.5817 -58.2202
L18.9781 -58.5578
L19.3796 -58.8583
L19.7862 -59.1519
L20.1977 -59.4385
L20.614 -59.7179
L21.0351 -59.99
L21.4607 -60.2549
L21.8907 -60.5124
L22.325 -60.7624
L22.7635 -61.0049
L23.206 -61.2397
L23.6524 -61.4669
L24.1025 -61.6863
L24.5563 -61.8979
L25.0136 -62.1016
L25.4742 -62.2973
L25.9381 -62.4851
L26.405 -62.6647
L26.8748 -62.8363
L27.3474 -62.9996
L27.8226 -63.1548
L28.3003 -63.3017
L28.7804 -63.4402
L29.2627 -63.5704
L29.747 -63.6922
L30.2332 -63.8056
L30.7212 -63.9105
L31.2108 -64.0069
L31.7019 -64.0947
L32.1942 -64.174
L32.6877 -64.2448
L33.1823 -64.3069
L33.6776 -64.3604
L34.1737 -64.4052
L34.6704 -64.4414
L35.1674 -64.469
L35.6647 -64.4878
L36.1622 -64.498
L36.6595 -64.4995
L37.1567 -64.4924
L37.6535 -64.4765
L38.1498 -64.452
L38.6454 -64.4188
L39.1403 -64.377
L39.6342 -64.3265
L40.127 -64.2673
L40.6185 -64.1996
L41.1086 -64.1233
L41.5971 -64.0384
L42.084 -63.945
L42.569 -63.843
L43.052 -63.7326
L43.5329 -63.6138
L44.0114 -63.4865
L44.4875 -63.3508
L44.9611 -63.2068
L45.4319 -63.0546
L45.8998 -62.894
L46.3647 -62.7253
L46.8265 -62.5485
L47.2849 -62.3636
L47.7399 -62.1706
L48.1914 -61.9697
L48.6391 -61.7608
L49.083 -61.5441
L49.5229 -61.3197
L49.9587 -61.0875
L50.3902 -60.8476
L50.8173 -60.6002
L51.24 -60.3454
L51.658 -60.083
L52.0712 -59.8134
L52.4795 -59.5365
L52.8828 -59.2524
L53.281 -58.9613
L53.6739 -58.6632
L54.0614 -58.3581
L54.4434 -58.0463
L54.8198 -57.7277
L55.1904 -57.4025
L55.5552 -57.0708
L55.9141 -56.7327
L56.2669 -56.3882
L56.6135 -56.0376
L56.9538 -55.6808
L57.2878 -55.318
L57.6153 -54.9494
L57.9361 -54.575
L58.2504 -54.1949
L58.5578 -53.8093
L58.8583 -53.4183
L59.1519 -53.0219
L59.4385 -52.6204
L59.7179 -52.2138
L59.99 -51.8023
L60.2549 -51.386
L60.5124 -50.9649
L60.7624 -50.5393
L61.0049 -50.1093
L61.2397 -49.675
L61.4669 -49.2365
L61.6863 -48.794
L61.8979 -48.3476
L62.1016 -47.8975
L62.2973 -47.4437
L62.4851 -46.9864
L62.6647 -46.5258
L62.8363 -46.0619
L62.9996 -45.595
L63.1548 -45.1252
L63.3017 -44.6526
L63.4402 -44.1774
L63.5704 -43.6997
L63.6922 -43.2196
L63.8056 -42.7373
L63.9105 -42.253
L64.0069 -41.7668
L64.0947 -41.2788
L64.174 -40.7892
L64.2448 -40.2981
L64.3069 -39.8058
L64.3604 -39.3123
L64.4052 -38.8177
L64.4414 -38.3224
L64.469 -37.8263
L64.4878 -37.3296
L64.498 -36.8326
L64.4995 -36.3353
L64.4924 -35.8378
L64.4765 -35.3405
L64.452 -34.8433
L64.4188 -34.3465
L64.377 -33.8502
L64.3265 -33.3546
L64.2673 -32.8597
L64.1996 -32.3658
L64.1233 -31.873
L64.0384 -31.3815
L63.945 -30.8914
L63.843 -30.4029
z
" id="C0_2_d6a66d9041"/>
    </defs>
    <g clip-path="url(#p1bffca34e9)">
     <use style="fill:#ff0000;stroke:#000000;stroke-width:2.0;" x="0.0" xlink:href="#C0_0_a811fe30f3" y="72.0"/>
    </g>
    <g clip-path="url(#p1bffca34e9)">
     <use style="fill:#ffffff;stroke:#000000;stroke-width:2.0;" x="0.0" xlink:href="#C0_1_6a47aa48a3" y="72.0"/>
    </g>
    <g clip-path="url(#p1bffca34e9)">
     <use style="fill:#ffffff;stroke:#000000;stroke-width:2.0;" x="0.0" xlink:href="#C0_2_d6a66d9041" y="72.0"/>
    </g>
   </g>
  </g>
 </g>
 <defs>
  <clipPath id="p1bffca34e9">
   <rect height="72.0" width="72.0" x="0.0" y="0.0"/>
  </clipPath>
 </defs>
</svg>
