<?xml version="1.0" encoding="utf-8" standalone="no"?>
<!DOCTYPE svg PUBLIC "-//W3C//DTD SVG 1.1//EN"
  "http://www.w3.org/Graphics/SVG/1.1/DTD/svg11.dtd">
<!-- Created with matplotlib (http://matplotlib.org/) -->
<svg height="72pt" version="1.1" viewBox="0 0 72 72" width="72pt" xmlns="http://www.w3.org/2000/svg" xmlns:xlink="http://www.w3.org/1999/xlink">
 <defs>
  <style type="text/css">
*{stroke-linecap:butt;stroke-linejoin:round;}
  </style>
 </defs>
 <g id="figure_1">
  <g id="patch_1">
   <path d="
M0 72
L72 72
L72 0
L0 0
z
" style="fill:none;"/>
  </g>
  <g id="axes_1">
   <g id="PatchCollection_1">
    <defs>
     <path d="
M36 -7.5
C43.5583 -7.5 50.808 -10.5029 56.1525 -15.8475
C61.4971 -21.192 64.5 -28.4417 64.5 -36
C64.5 -43.5583 61.4971 -50.808 56.1525 -56.1525
C50.808 -61.4971 43.5583 -64.5 36 -64.5
C28.4417 -64.5 21.192 -61.4971 15.8475 -56.1525
C10.5029 -50.808 7.5 -43.5583 7.5 -36
C7.5 -28.4417 10.5029 -21.192 15.8475 -15.8475
C21.192 -10.5029 28.4417 -7.5 36 -7.5
z
" id="C0_0_a811fe30f3"/>
     <path d="
M60.6846 -49.8936
L60.5558 -49.7392
L60.4253 -49.5863
L60.2931 -49.4346
L60.1593 -49.2843
L60.0239 -49.1352
L59.8868 -48.9872
L59.7482 -48.8404
L59.6081 -48.6946
L59.4663 -48.5499
L59.3231 -48.4061
L59.1783 -48.2633
L59.032 -48.1213
L58.8842 -47.9802
L58.7348 -47.8398
L58.5839 -47.7002
L58.4315 -47.5613
L58.2775 -47.4231
L57.9649 -47.2855
L57.8062 -47.1485
L57.646 -47.0121
L57.4841 -46.8761
L57.3207 -46.7407
L57.1556 -46.6057
L56.9888 -46.4712
L56.8203 -46.337
L56.6502 -46.2032
L56.4783 -46.0697
L56.3046 -45.9366
L56.1292 -45.8037
L55.9519 -45.6711
L55.7728 -45.5387
L55.5918 -45.4065
L55.4089 -45.2745
L55.2241 -45.1426
L55.0373 -45.0109
L54.8484 -44.8793
L54.6575 -44.7478
L54.4646 -44.6164
L54.2695 -44.485
L54.0722 -44.3537
L53.8728 -44.2224
L53.671 -44.0912
L53.4671 -43.9599
L53.2607 -43.8287
L53.0521 -43.6975
L52.841 -43.5662
L52.6274 -43.4349
L52.4114 -43.3037
L52.1928 -43.1724
L51.9717 -43.041
L51.7479 -42.9097
L51.5215 -42.7784
L51.2923 -42.647
L51.0605 -42.5157
L50.8258 -42.3844
L50.5884 -42.2532
L50.3481 -42.122
L50.1048 -41.9909
L49.8587 -41.86
L49.6096 -41.7292
L49.3576 -41.5986
L49.1025 -41.4682
L48.8444 -41.3381
L48.5832 -41.2083
L48.319 -41.0789
L48.0516 -40.9499
L47.7812 -40.8215
L47.5076 -40.6937
L47.231 -40.5665
L46.9512 -40.4401
L46.6683 -40.3146
L46.3823 -40.19
L46.0933 -40.0665
L45.8012 -39.9442
L45.506 -39.8233
L45.2079 -39.7038
L44.9069 -39.586
L44.603 -39.4699
L44.2963 -39.3559
L43.9869 -39.2441
L43.6748 -39.1346
L43.3601 -39.0277
L43.043 -38.9236
L42.7235 -38.8227
L42.4018 -38.725
L42.078 -38.631
L41.7523 -38.5409
L41.4248 -38.4549
L41.0957 -38.3735
L40.7651 -38.297
L40.4333 -38.2256
L40.1004 -38.1598
L39.7667 -38.0999
L39.4324 -38.0463
L39.0978 -37.9994
L38.7629 -37.9596
L38.4282 -37.9272
L38.0939 -37.9026
L37.7601 -37.8862
L37.4272 -37.8784
L37.0955 -37.8795
L36.7652 -37.8898
L36.4365 -37.9097
L36.1097 -37.9393
L35.785 -37.979
L35.4628 -38.0289
L35.1431 -38.0891
L34.8263 -38.1598
L34.5125 -38.2409
L34.2019 -38.3325
L33.8947 -38.4344
L33.591 -38.5466
L33.291 -38.669
L32.9949 -38.8012
L32.7027 -38.943
L32.4145 -39.0941
L32.1304 -39.2542
L31.8505 -39.4228
L31.5748 -39.5997
L31.3034 -39.7843
L31.0364 -39.9763
L30.7737 -40.1752
L30.5154 -40.3805
L30.2615 -40.5919
L30.0119 -40.8088
L29.7668 -41.0309
L29.526 -41.2576
L29.2896 -41.4887
L29.0575 -41.7236
L28.8297 -41.9621
L28.6063 -42.2037
L28.3871 -42.448
L28.1722 -42.6948
L27.9615 -42.9438
L27.7549 -43.1945
L27.5525 -43.4468
L27.3541 -43.7004
L27.1598 -43.955
L26.9695 -44.2104
L26.7832 -44.4664
L26.6007 -44.7227
L26.4221 -44.9793
L26.2473 -45.2359
L26.0762 -45.4923
L25.9088 -45.7485
L25.7451 -46.0043
L25.5849 -46.2596
L25.4283 -46.5142
L25.2752 -46.7681
L25.1255 -47.0212
L24.9792 -47.2734
L24.8362 -47.5247
L24.6965 -47.7749
L24.56 -48.024
L24.4266 -48.272
L24.2964 -48.5189
L24.1692 -48.7646
L24.045 -49.009
L23.9238 -49.2522
L23.8055 -49.4942
L23.6901 -49.7348
L23.5775 -49.9742
L23.4676 -50.2123
L23.3605 -50.4491
L23.2561 -50.6846
L23.1543 -50.9189
L23.0551 -51.1519
L22.9585 -51.3836
L22.8645 -51.6141
L22.7729 -51.8434
L22.6837 -52.0715
L22.597 -52.2984
L22.5127 -52.5242
L22.4308 -52.7488
L22.3512 -52.9723
L22.2739 -53.1947
L22.1989 -53.4161
L22.1262 -53.6365
L22.0557 -53.8559
L21.9874 -54.0743
L21.9213 -54.2918
L21.8574 -54.5084
L21.7957 -54.7241
L21.7362 -54.9391
L21.6788 -55.1532
L21.6235 -55.3666
L21.5704 -55.5793
L21.5194 -55.7913
L21.4706 -56.0027
L21.4239 -56.2135
L21.3793 -56.4237
L21.3369 -56.6334
L21.2966 -56.8426
L21.2584 -57.0513
L21.2225 -57.2597
L21.1887 -57.4676
L21.1571 -57.6753
L21.1278 -57.8826
L21.1007 -58.0897
L21.0758 -58.2965
L21.0533 -58.5032
L21.0331 -58.7098
L21.0152 -58.9162
L20.9998 -59.1226
L20.9868 -59.329
L20.9762 -59.5353
L20.9683 -59.7418
L20.9629 -59.9483
L21.3626 -60.1549
L21.7916 -60.454
L22.225 -60.7057
L22.6625 -60.9499
L23.1041 -61.1865
L23.5496 -61.4155
L23.9989 -61.6366
L24.4519 -61.85
L24.9084 -62.0555
L25.3683 -62.2531
L25.8314 -62.4427
L26.2976 -62.6242
L26.7667 -62.7976
L27.2387 -62.9629
L27.7133 -63.1199
L28.1905 -63.2687
L28.6701 -63.4092
L29.1518 -63.5413
L29.6357 -63.665
L30.1215 -63.7803
L30.6091 -63.8872
L31.0983 -63.9855
L31.5891 -64.0753
L32.0811 -64.1566
L32.5744 -64.2293
L33.0687 -64.2934
L33.5639 -64.3489
L34.0599 -64.3957
L34.5564 -64.4339
L35.0534 -64.4634
L35.5506 -64.4843
L36.048 -64.4965
L36.5454 -64.5
L37.0426 -64.4948
L37.5395 -64.4809
L38.036 -64.4584
L38.5318 -64.4272
L39.0268 -64.3873
L39.5209 -64.3388
L40.014 -64.2817
L40.5058 -64.2159
L40.9963 -64.1416
L41.4852 -64.0586
L41.9725 -63.9672
L42.4579 -63.8672
L42.9414 -63.7587
L43.4227 -63.6418
L43.9018 -63.5164
L44.3785 -63.3827
L44.8527 -63.2406
L45.3241 -63.0902
L45.7927 -62.9316
L46.2583 -62.7648
L46.7208 -62.5898
L47.18 -62.4067
L47.6359 -62.2156
L48.0881 -62.0165
L48.5367 -61.8094
L48.9815 -61.5945
L49.4223 -61.3718
L49.8591 -61.1414
L50.2916 -60.9033
L50.7197 -60.6577
L51.1434 -60.4045
L51.5625 -60.1439
L51.9768 -59.8759
L52.3862 -59.6007
L52.7907 -59.3183
L53.1901 -59.0287
L53.5842 -58.7322
L53.9729 -58.4287
L54.3562 -58.1184
L54.7339 -57.8014
L55.1059 -57.4777
L55.4721 -57.1475
L55.8323 -56.8108
L56.1865 -56.4678
L56.5345 -56.1186
L56.8763 -55.7632
L57.2117 -55.4018
L57.5407 -55.0345
L57.8631 -54.6614
L58.1789 -54.2826
L58.4878 -53.8983
L58.79 -53.5085
L59.0852 -53.1133
L59.3733 -52.713
L59.6544 -52.3076
L59.9282 -51.8972
L60.1948 -51.4819
L60.454 -51.0619
z
" id="C0_1_b7f2fb3d77"/>
     <path d="
M50.9027 -11.8605
L50.718 -11.9572
L50.5325 -12.0555
L50.3462 -12.1556
L50.1591 -12.2573
L49.9712 -12.3607
L49.7823 -12.4659
L49.5925 -12.5728
L49.4017 -12.6815
L49.2099 -12.792
L49.017 -12.9043
L48.8229 -13.0184
L48.6277 -13.1344
L48.4313 -13.2522
L48.2337 -13.372
L48.0348 -13.4936
L47.8345 -13.6172
L47.6329 -13.7427
L47.4299 -13.8703
L47.2254 -13.9998
L47.0194 -14.1313
L46.8119 -14.2649
L46.6028 -14.4005
L46.3921 -14.5382
L46.1797 -14.678
L45.9657 -14.8199
L45.7499 -14.964
L45.5323 -15.1101
L45.3128 -15.2584
L45.0916 -15.4088
L44.8684 -15.5614
L44.6433 -15.7162
L44.4162 -15.873
L44.1872 -16.0321
L43.9561 -16.1932
L43.7229 -16.3565
L43.4876 -16.5218
L43.2502 -16.6893
L43.0106 -16.8587
L42.7688 -17.0302
L42.5248 -17.2036
L42.2785 -17.379
L42.03 -17.5561
L41.7792 -17.7351
L41.5261 -17.9157
L41.2706 -18.0979
L41.0128 -18.2816
L40.7527 -18.4668
L40.4901 -18.6531
L40.2252 -18.8406
L39.9578 -19.0291
L39.688 -19.2184
L39.4159 -19.4083
L39.1412 -19.5986
L38.8642 -19.7892
L38.5847 -19.9797
L38.3028 -20.17
L38.0184 -20.3597
L37.7316 -20.5486
L37.4424 -20.7364
L37.1507 -20.9227
L36.8566 -21.1073
L36.5601 -21.2897
L36.2611 -21.4696
L35.9598 -21.6467
L35.656 -21.8205
L35.3499 -21.9906
L35.0414 -22.1566
L34.7306 -22.3182
L34.4174 -22.4748
L34.1019 -22.6262
L33.7841 -22.7719
L33.4641 -22.9116
L33.142 -23.0449
L32.8177 -23.1715
L32.4913 -23.2911
L32.1629 -23.4034
L31.8326 -23.5083
L31.5006 -23.6055
L31.1668 -23.6951
L30.8314 -23.7768
L30.4945 -23.8507
L30.1564 -23.9167
L29.8171 -23.9751
L29.4768 -24.0259
L29.1357 -24.0692
L28.7939 -24.1053
L28.4517 -24.1345
L28.1092 -24.1569
L27.7666 -24.1729
L27.4242 -24.1827
L27.0822 -24.1868
L26.7406 -24.1854
L26.3998 -24.1789
L26.0599 -24.1677
L25.721 -24.152
L25.3835 -24.1322
L25.0474 -24.1086
L24.7129 -24.0816
L24.3802 -24.0515
L24.0494 -24.0185
L23.7206 -23.9829
L23.3941 -23.9451
L23.0698 -23.9052
L22.7479 -23.8634
L22.4286 -23.8201
L22.1119 -23.7754
L21.7978 -23.7296
L21.4866 -23.6827
L21.1781 -23.635
L20.8726 -23.5867
L20.5699 -23.5378
L20.2703 -23.4885
L19.9737 -23.439
L19.6801 -23.3893
L19.3896 -23.3395
L19.1021 -23.2898
L18.8177 -23.2403
L18.5365 -23.1909
L18.2583 -23.1418
L17.9832 -23.093
L17.7111 -23.0446
L17.4422 -22.9967
L17.1762 -22.9493
L16.9133 -22.9024
L16.6533 -22.8561
L16.3963 -22.8104
L16.1423 -22.7654
L15.8911 -22.721
L15.6428 -22.6773
L15.3974 -22.6343
L15.1547 -22.592
L14.9147 -22.5505
L14.6775 -22.5097
L14.4429 -22.4697
L14.2109 -22.4304
L13.9815 -22.3919
L13.7546 -22.3542
L13.5302 -22.3173
L13.3082 -22.2812
L13.0886 -22.2459
L12.8713 -22.2114
L12.6563 -22.1776
L12.4435 -22.1447
L12.233 -22.1125
L12.0246 -22.0812
L11.8183 -22.0506
L11.614 -22.0208
L11.4118 -21.9919
L11.4487 -21.9637
L11.7051 -21.5264
L11.9688 -21.1001
L12.2399 -20.6784
L12.5182 -20.2613
L12.8036 -19.8491
L13.0961 -19.4417
L13.3956 -19.0394
L13.702 -18.6422
L14.0152 -18.2504
L14.335 -17.8639
L14.6615 -17.483
L14.9945 -17.1077
L15.3338 -16.7382
L15.6795 -16.3745
L16.0313 -16.0168
L16.3893 -15.6653
L16.7532 -15.3198
L17.1229 -14.9807
L17.4984 -14.648
L17.8796 -14.3218
L18.2663 -14.0022
L18.6584 -13.6894
L19.0557 -13.3833
L19.4582 -13.084
L19.8658 -12.7918
L20.2783 -12.5067
L20.6955 -12.2287
L21.1174 -11.9579
L21.5439 -11.6945
L21.9748 -11.4384
L22.4099 -11.1899
L22.8492 -10.9489
L23.2924 -10.7155
L23.7396 -10.4898
L24.1905 -10.272
L24.645 -10.0619
L25.1029 -9.85974
L25.5642 -9.66555
L26.0286 -9.47938
L26.4961 -9.30129
L26.9664 -9.13133
L27.4396 -8.96956
L27.9153 -8.81602
L28.3935 -8.67076
L28.874 -8.53382
L29.3567 -8.40525
L29.8414 -8.28509
L30.328 -8.17337
L30.8163 -8.07012
L31.3062 -7.97539
L31.7975 -7.88919
L32.2901 -7.81155
L32.7838 -7.7425
L33.2785 -7.68206
L33.774 -7.63024
L34.2702 -7.58706
L34.767 -7.55254
L35.2641 -7.52668
L35.7614 -7.5095
L36.2589 -7.501
L36.7562 -7.50118
L37.2533 -7.51003
L37.75 -7.52757
L38.2462 -7.55378
L38.7417 -7.58865
L39.2364 -7.63218
L39.7301 -7.68435
L40.2226 -7.74515
L40.7139 -7.81455
L41.2037 -7.89254
L41.6919 -7.97909
L42.1784 -8.07417
L42.6631 -8.17776
L43.1457 -8.28983
L43.6261 -8.41033
L44.1042 -8.53925
L44.5798 -8.67652
L45.0528 -8.82212
L45.5231 -8.976
L45.9904 -9.13811
L46.4547 -9.3084
L46.9159 -9.48682
L47.3737 -9.67332
L47.828 -9.86784
L48.2787 -10.0703
L48.7257 -10.2807
L49.1688 -10.4989
L49.6079 -10.7249
L50.0429 -10.9586
L50.4736 -11.1999
z
" id="C0_2_62a26140af"/>
    </defs>
    <g clip-path="url(#p1bffca34e9)">
     <use style="fill:#ffffff;stroke:#000000;stroke-width:2.0;" x="0.0" xlink:href="#C0_0_a811fe30f3" y="72.0"/>
    </g>
    <g clip-path="url(#p1bffca34e9)">
     <use style="fill:#ff0000;stroke:#000000;stroke-width:2.0;" x="0.0" xlink:href="#C0_1_b7f2fb3d77" y="72.0"/>
    </g>
    <g clip-path="url(#p1bffca34e9)">
     <use style="fill:#ff0000;stroke:#000000;stroke-width:2.0;" x="0.0" xlink:href="#C0_2_62a26140af" y="72.0"/>
    </g>
   </g>
  </g>
 </g>
 <defs>
  <clipPath id="p1bffca34e9">
   <rect height="72.0" width="72.0" x="0.0" y="0.0"/>
  </clipPath>
 </defs>
</svg>
