<?xml version="1.0" encoding="utf-8" standalone="no"?>
<!DOCTYPE svg PUBLIC "-//W3C//DTD SVG 1.1//EN"
  "http://www.w3.org/Graphics/SVG/1.1/DTD/svg11.dtd">
<!-- Created with matplotlib (http://matplotlib.org/) -->
<svg height="72pt" version="1.1" viewBox="0 0 72 72" width="72pt" xmlns="http://www.w3.org/2000/svg" xmlns:xlink="http://www.w3.org/1999/xlink">
 <defs>
  <style type="text/css">
*{stroke-linecap:butt;stroke-linejoin:round;}
  </style>
 </defs>
 <g id="figure_1">
  <g id="patch_1">
   <path d="
M0 72
L72 72
L72 0
L0 0
z
" style="fill:none;"/>
  </g>
  <g id="axes_1">
   <g id="PatchCollection_1">
    <defs>
     <path d="
M36 -7.5
C43.5583 -7.5 50.808 -10.5029 56.1525 -15.8475
C61.4971 -21.192 64.5 -28.4417 64.5 -36
C64.5 -43.5583 61.4971 -50.808 56.1525 -56.1525
C50.808 -61.4971 43.5583 -64.5 36 -64.5
C28.4417 -64.5 21.192 -61.4971 15.8475 -56.1525
C10.5029 -50.808 7.5 -43.5583 7.5 -36
C7.5 -28.4417 10.5029 -21.192 15.8475 -15.8475
C21.192 -10.5029 28.4417 -7.5 36 -7.5
z
" id="C0_0_a811fe30f3"/>
     <path d="
M58.4042 -53.4083
L58.2726 -53.2119
L58.1408 -53.0159
L58.0086 -52.8205
L57.8762 -52.6257
L57.7435 -52.4315
L57.6105 -52.238
L57.4772 -52.0451
L57.3437 -51.8529
L57.2099 -51.6613
L57.0759 -51.4705
L56.9416 -51.2805
L56.807 -51.0911
L56.6722 -50.9024
L56.5372 -50.7144
L56.4019 -50.5272
L56.2664 -50.3406
L56.1306 -50.1547
L55.9945 -49.9695
L55.8582 -49.7849
L55.7216 -49.6009
L55.5848 -49.4176
L55.4477 -49.2348
L55.3102 -49.0526
L55.1725 -48.8709
L55.0345 -48.6898
L54.8961 -48.5091
L54.7574 -48.3289
L54.6184 -48.1491
L54.479 -47.9697
L54.3392 -47.7907
L54.199 -47.612
L54.0584 -47.4337
L53.9173 -47.2556
L53.7758 -47.0777
L53.6339 -46.9001
L53.4914 -46.7226
L53.3484 -46.5453
L53.2048 -46.368
L53.0607 -46.1909
L52.916 -46.0138
L52.7707 -45.8366
L52.6248 -45.6595
L52.4782 -45.4823
L52.3308 -45.3049
L52.034 -45.1274
L51.8844 -44.9497
L51.734 -44.7718
L51.5828 -44.5936
L51.4307 -44.4152
L51.2777 -44.2364
L51.1238 -44.0572
L50.9688 -43.8775
L50.8129 -43.6975
L50.656 -43.5169
L50.4979 -43.3358
L50.3388 -43.1541
L50.1785 -42.9718
L50.017 -42.7888
L49.8543 -42.6051
L49.6903 -42.4207
L49.5251 -42.2354
L49.3585 -42.0494
L49.1905 -41.8625
L49.0211 -41.6747
L48.8503 -41.4859
L48.678 -41.2961
L48.5041 -41.1053
L48.3287 -40.9134
L48.1517 -40.7203
L47.973 -40.5261
L47.7926 -40.3307
L47.6105 -40.1341
L47.4266 -39.9361
L47.2409 -39.7368
L47.0534 -39.5361
L46.864 -39.334
L46.6726 -39.1304
L46.4793 -38.9253
L46.284 -38.7187
L46.0867 -38.5105
L45.8873 -38.3006
L45.6858 -38.0891
L45.4822 -37.8759
L45.2765 -37.6609
L45.0686 -37.4442
L44.8585 -37.2256
L44.6463 -37.0052
L44.4318 -36.7829
L44.2151 -36.5586
L43.9962 -36.3325
L43.775 -36.1043
L43.5517 -35.8741
L43.3261 -35.6419
L43.0984 -35.4077
L42.8685 -35.1713
L42.6365 -34.9329
L42.4025 -34.6923
L42.1664 -34.4496
L41.9284 -34.2048
L41.6886 -33.9578
L41.447 -33.7086
L41.2037 -33.4573
L40.959 -33.2038
L40.7128 -32.9482
L40.4655 -32.6904
L40.2171 -32.4304
L39.9679 -32.1682
L39.7181 -31.904
L39.468 -31.6376
L39.2179 -31.369
L38.968 -31.0984
L38.7188 -30.8257
L38.4706 -30.551
L38.2239 -30.2742
L37.9791 -29.9954
L37.7368 -29.7145
L37.4975 -29.4317
L37.2618 -29.147
L37.0305 -28.8602
L36.8042 -28.5715
L36.5836 -28.2809
L36.3698 -27.9883
L36.1634 -27.6938
L35.9654 -27.3974
L35.7768 -27.099
L35.5985 -26.7986
L35.4317 -26.4963
L35.2772 -26.1921
L35.136 -25.8859
L35.0092 -25.5778
L34.8975 -25.2678
L34.8019 -24.956
L34.7229 -24.6424
L34.6612 -24.3271
L34.6172 -24.0104
L34.5911 -23.6923
L34.5829 -23.3732
L34.5927 -23.0531
L34.6203 -22.7325
L34.6651 -22.4117
L34.7267 -22.0909
L34.8045 -21.7706
L34.8978 -21.4511
L35.0059 -21.1328
L35.1278 -20.8161
L35.2628 -20.5014
L35.4101 -20.1891
L35.5688 -19.8794
L35.7381 -19.5728
L35.9172 -19.2696
L36.1054 -18.97
L36.3018 -18.6743
L36.5059 -18.3829
L36.7171 -18.0958
L36.9345 -17.8134
L37.1578 -17.5358
L37.3864 -17.2632
L37.6198 -16.9957
L37.8575 -16.7334
L38.0991 -16.4765
L38.3442 -16.225
L38.5924 -15.979
L38.8434 -15.7385
L39.0969 -15.5036
L39.3526 -15.2744
L39.6103 -15.0508
L39.8696 -14.8328
L40.1304 -14.6205
L40.3925 -14.4138
L40.6557 -14.2127
L40.9197 -14.0172
L41.1846 -13.8272
L41.45 -13.6426
L41.7159 -13.4636
L41.9822 -13.2899
L42.2488 -13.1216
L42.5155 -12.9585
L42.7824 -12.8007
L43.0492 -12.6481
L43.316 -12.5005
L43.5828 -12.358
L43.8493 -12.2205
L44.1157 -12.0879
L44.3819 -11.9601
L44.6478 -11.8371
L44.9135 -11.7188
L45.1789 -11.6052
L45.4439 -11.4961
L45.7087 -11.3916
L45.9732 -11.2916
L46.2374 -11.196
L46.5012 -11.1048
L46.7648 -11.0178
L47.0281 -10.9352
L47.2912 -10.8567
L47.554 -10.7825
L47.8167 -10.7123
L48.0791 -10.6463
L48.3414 -10.5843
L48.6035 -10.5264
L49.0611 -10.4725
L49.5012 -10.6691
L49.9372 -10.9009
L50.369 -11.1403
L50.7963 -11.3873
L51.2192 -11.6419
L51.6374 -11.9038
L52.0508 -12.1731
L52.4594 -12.4496
L52.863 -12.7333
L53.2614 -13.0241
L53.6545 -13.3219
L54.0423 -13.6266
L54.4246 -13.9382
L54.8013 -14.2564
L55.1722 -14.5813
L55.5373 -14.9127
L55.8965 -15.2505
L56.2496 -15.5946
L56.5965 -15.9449
L56.9371 -16.3014
L57.2714 -16.6639
L57.5992 -17.0322
L57.9204 -17.4063
L58.235 -17.7861
L58.5427 -18.1715
L58.8436 -18.5622
L59.1376 -18.9583
L59.4245 -19.3596
L59.7042 -19.7659
L59.9767 -20.1772
L60.242 -20.5933
L60.4998 -21.0141
L60.7502 -21.4395
L60.9931 -21.8693
L61.2283 -22.3034
L61.4558 -22.7417
L61.6756 -23.184
L61.8876 -23.6302
L62.0917 -24.0802
L62.2878 -24.5338
L62.476 -24.9909
L62.656 -25.4514
L62.828 -25.915
L62.9917 -26.3818
L63.1473 -26.8515
L63.2946 -27.3239
L63.4336 -27.799
L63.5642 -28.2766
L63.6864 -28.7566
L63.8002 -29.2388
L63.9055 -29.723
L64.0023 -30.2091
L64.0906 -30.697
L64.1703 -31.1865
L64.2415 -31.6775
L64.304 -32.1698
L64.3579 -32.6633
L64.4032 -33.1578
L64.4398 -33.6531
L64.4678 -34.1492
L64.4871 -34.6458
L64.4977 -35.1428
L64.4997 -35.6401
L64.4929 -36.1375
L64.4775 -36.6349
L64.4534 -37.1321
L64.4206 -37.6289
L64.3792 -38.1252
L64.3292 -38.6209
L64.2705 -39.1158
L64.2032 -39.6098
L64.1273 -40.1026
L64.0428 -40.5942
L63.9498 -41.0844
L63.8483 -41.573
L63.7383 -42.06
L63.6198 -42.545
L63.493 -43.0282
L63.3577 -43.5091
L63.2142 -43.9878
L63.0623 -44.464
L62.9022 -44.9377
L62.7339 -45.4086
L62.5574 -45.8767
L62.3729 -46.3418
L62.1803 -46.8037
L61.9798 -47.2623
L61.7713 -47.7175
L61.555 -48.1691
L61.3309 -48.6171
L61.0991 -49.0611
L60.8597 -49.5012
L60.6127 -49.9372
L60.3581 -50.369
L60.0962 -50.7963
L59.8269 -51.2192
L59.5504 -51.6374
L59.2667 -52.0508
L58.9759 -52.4594
z
" id="C0_1_1c41f51f6a"/>
     <path d="
M23.2524 -61.343
L23.1389 -61.1037
L23.0286 -60.8644
L22.9214 -60.6253
L22.8174 -60.3862
L22.7164 -60.1473
L22.6184 -59.9083
L22.5232 -59.6693
L22.4308 -59.4304
L22.3411 -59.1914
L22.254 -58.9523
L22.1695 -58.7131
L22.0876 -58.4738
L22.0081 -58.2343
L21.9311 -57.9946
L21.8564 -57.7546
L21.784 -57.5144
L21.7139 -57.2738
L21.646 -57.0329
L21.5803 -56.7916
L21.5167 -56.5498
L21.4552 -56.3075
L21.3958 -56.0647
L21.3384 -55.8213
L21.283 -55.5773
L21.2296 -55.3326
L21.1782 -55.0872
L21.1286 -54.841
L21.081 -54.594
L21.0352 -54.3461
L20.9913 -54.0974
L20.9493 -53.8476
L20.909 -53.5968
L20.8706 -53.345
L20.834 -53.092
L20.7992 -52.8378
L20.7662 -52.5824
L20.7349 -52.3257
L20.7055 -52.0677
L20.6778 -51.8082
L20.6519 -51.5473
L20.6278 -51.2849
L20.6054 -51.0209
L20.5849 -50.7553
L20.5661 -50.488
L20.5492 -50.2189
L20.534 -49.9481
L20.5207 -49.6753
L20.5091 -49.4007
L20.4995 -49.1241
L20.4917 -48.8454
L20.4857 -48.5647
L20.4817 -48.2818
L20.4796 -47.9967
L20.4794 -47.7093
L20.4811 -47.4197
L20.4848 -47.1276
L20.4905 -46.8331
L20.4983 -46.5361
L20.5081 -46.2366
L20.5199 -45.9346
L20.5339 -45.6299
L20.5499 -45.3225
L20.5681 -45.0124
L20.5885 -44.6995
L20.6111 -44.3838
L20.6359 -44.0653
L20.6629 -43.744
L20.6923 -43.4197
L20.7239 -43.0925
L20.7578 -42.7624
L20.794 -42.4293
L20.8326 -42.0932
L20.8735 -41.7542
L20.9167 -41.4122
L20.9623 -41.0672
L21.0103 -40.7193
L21.0606 -40.3684
L21.1132 -40.0147
L21.1682 -39.6581
L21.2253 -39.2987
L21.2847 -38.9365
L21.3463 -38.5717
L21.4099 -38.2042
L21.4755 -37.8343
L21.543 -37.4619
L21.6123 -37.0873
L21.6832 -36.7105
L21.7555 -36.3317
L21.8292 -35.9511
L21.9038 -35.5687
L21.9793 -35.185
L22.0553 -34.7999
L22.1315 -34.4138
L22.2075 -34.027
L22.283 -33.6396
L22.3575 -33.252
L22.4304 -32.8645
L22.5013 -32.4774
L22.5696 -32.091
L22.6346 -31.7057
L22.6956 -31.3219
L22.7518 -30.94
L22.8025 -30.5604
L22.8469 -30.1835
L22.884 -29.8098
L22.9129 -29.4396
L22.9329 -29.0734
L22.9429 -28.7117
L22.9422 -28.3548
L22.93 -28.0032
L22.9055 -27.6572
L22.8682 -27.3171
L22.8175 -26.9834
L22.7532 -26.6561
L22.675 -26.3356
L22.5829 -26.022
L22.4771 -25.7154
L22.3578 -25.4159
L22.2254 -25.1236
L22.0804 -24.8384
L21.9236 -24.5604
L21.7556 -24.2894
L21.5772 -24.0254
L21.3892 -23.7684
L21.1924 -23.5182
L20.9875 -23.2747
L20.7756 -23.0378
L20.5572 -22.8075
L20.3331 -22.5835
L20.1042 -22.3658
L19.871 -22.1542
L19.6341 -21.9488
L19.3942 -21.7492
L19.1518 -21.5556
L18.9074 -21.3677
L18.6615 -21.1855
L18.4144 -21.0089
L18.1666 -20.8377
L17.9184 -20.672
L17.6701 -20.5115
L17.422 -20.3563
L17.1743 -20.2062
L16.9273 -20.0611
L16.6811 -19.921
L16.4361 -19.7858
L16.1922 -19.6554
L15.9497 -19.5296
L15.7086 -19.4085
L15.4691 -19.292
L15.2313 -19.1799
L14.9952 -19.0723
L14.7608 -18.9689
L14.5284 -18.8698
L14.2978 -18.7749
L14.0691 -18.6841
L13.8424 -18.5973
L13.2382 -18.5145
L12.9423 -18.8492
L12.6535 -19.2491
L12.3718 -19.654
L12.0973 -20.064
L11.83 -20.4788
L11.5701 -20.8983
L11.3177 -21.3224
L11.0728 -21.751
L10.8354 -22.184
L10.6058 -22.6211
L10.3839 -23.0623
L10.1697 -23.5075
L9.96348 -23.9564
L9.76515 -24.4091
L9.57482 -24.8652
L9.39254 -25.3248
L9.21836 -25.7876
L9.05234 -26.2535
L8.89453 -26.7224
L8.74497 -27.1941
L8.60372 -27.6685
L8.47081 -28.1455
L8.34629 -28.6248
L8.23019 -29.1064
L8.12255 -29.59
L8.0234 -30.0757
L7.93278 -30.5631
L7.8507 -31.0522
L7.7772 -31.5428
L7.71229 -32.0347
L7.656 -32.5279
L7.60835 -33.0221
L7.56934 -33.5172
L7.539 -34.0131
L7.51732 -34.5096
L7.50432 -35.0065
L7.5 -35.5038
L7.50436 -36.0012
L7.5174 -36.4986
L7.53912 -36.9958
L7.56951 -37.4927
L7.60855 -37.9892
L7.65625 -38.4851
L7.71258 -38.9802
L7.77752 -39.4744
L7.85107 -39.9676
L7.93318 -40.4595
L8.02385 -40.9501
L8.12304 -41.4392
L8.23072 -41.9266
L8.34686 -42.4122
L8.47142 -42.8959
L8.60436 -43.3775
L8.74566 -43.8568
L8.89525 -44.3337
L9.0531 -44.8081
L9.21916 -45.2798
L9.39338 -45.7487
L9.5757 -46.2146
L9.76607 -46.6774
L9.96443 -47.1369
L10.1707 -47.5931
L10.3849 -48.0457
L10.6068 -48.4946
L10.8365 -48.9398
L11.0739 -49.381
L11.3189 -49.8181
L11.5713 -50.251
L11.8313 -50.6796
L12.0985 -51.1037
L12.3731 -51.5232
L12.6548 -51.938
L12.9437 -52.3479
L13.2396 -52.7528
L13.5424 -53.1527
L13.8521 -53.5473
L14.1685 -53.9365
L14.4915 -54.3203
L14.8212 -54.6986
L15.1572 -55.0711
L15.4996 -55.4378
L15.8483 -55.7986
L16.2031 -56.1534
L16.5639 -56.502
L16.9306 -56.8444
L17.3032 -57.1804
L17.6815 -57.51
L18.0653 -57.833
L18.4546 -58.1494
L18.8492 -58.459
L19.2491 -58.7618
L19.654 -59.0577
L20.064 -59.3465
L20.4788 -59.6282
L20.8983 -59.9027
L21.3224 -60.17
L21.751 -60.4299
L22.184 -60.6823
L22.6211 -60.9272
z
" id="C0_2_757b34400d"/>
    </defs>
    <g clip-path="url(#p1bffca34e9)">
     <use style="fill:#ff0000;stroke:#000000;stroke-width:2.0;" x="0.0" xlink:href="#C0_0_a811fe30f3" y="72.0"/>
    </g>
    <g clip-path="url(#p1bffca34e9)">
     <use style="fill:#ffffff;stroke:#000000;stroke-width:2.0;" x="0.0" xlink:href="#C0_1_1c41f51f6a" y="72.0"/>
    </g>
    <g clip-path="url(#p1bffca34e9)">
     <use style="fill:#ffffff;stroke:#000000;stroke-width:2.0;" x="0.0" xlink:href="#C0_2_757b34400d" y="72.0"/>
    </g>
   </g>
  </g>
 </g>
 <defs>
  <clipPath id="p1bffca34e9">
   <rect height="72.0" width="72.0" x="0.0" y="0.0"/>
  </clipPath>
 </defs>
</svg>
