<?xml version="1.0" encoding="utf-8" standalone="no"?>
<!DOCTYPE svg PUBLIC "-//W3C//DTD SVG 1.1//EN"
  "http://www.w3.org/Graphics/SVG/1.1/DTD/svg11.dtd">
<!-- Created with matplotlib (http://matplotlib.org/) -->
<svg height="72pt" version="1.1" viewBox="0 0 72 72" width="72pt" xmlns="http://www.w3.org/2000/svg" xmlns:xlink="http://www.w3.org/1999/xlink">
 <defs>
  <style type="text/css">
*{stroke-linecap:butt;stroke-linejoin:round;}
  </style>
 </defs>
 <g id="figure_1">
  <g id="patch_1">
   <path d="
M0 72
L72 72
L72 0
L0 0
z
" style="fill:none;"/>
  </g>
  <g id="axes_1">
   <g id="PatchCollection_1">
    <defs>
     <path d="
M36 -7.5
C43.5583 -7.5 50.808 -10.5029 56.1525 -15.8475
C61.4971 -21.192 64.5 -28.4417 64.5 -36
C64.5 -43.5583 61.4971 -50.808 56.1525 -56.1525
C50.808 -61.4971 43.5583 -64.5 36 -64.5
C28.4417 -64.5 21.192 -61.4971 15.8475 -56.1525
C10.5029 -50.808 7.5 -43.5583 7.5 -36
C7.5 -28.4417 10.5029 -21.192 15.8475 -15.8475
C21.192 -10.5029 28.4417 -7.5 36 -7.5
z
" id="C0_0_a811fe30f3"/>
     <path d="
M13.82 -18.3357
L13.9025 -18.5749
L13.9948 -18.8079
L14.0964 -19.0347
L14.2069 -19.2555
L14.3261 -19.4703
L14.4535 -19.6794
L14.5889 -19.8827
L14.7318 -20.0806
L14.8819 -20.2731
L15.0389 -20.4604
L15.2025 -20.6426
L15.3723 -20.82
L15.5479 -20.9928
L15.7292 -21.161
L15.9158 -21.3249
L16.1074 -21.4847
L16.3037 -21.6404
L16.5044 -21.7924
L16.7093 -21.9407
L16.9182 -22.0855
L17.1308 -22.2269
L17.3468 -22.3652
L17.566 -22.5005
L17.7882 -22.6328
L18.0133 -22.7624
L18.241 -22.8894
L18.4711 -23.0138
L18.7034 -23.1359
L18.9379 -23.2557
L19.1743 -23.3734
L19.4124 -23.489
L19.6522 -23.6027
L19.8935 -23.7145
L20.1361 -23.8245
L20.3801 -23.9328
L20.6251 -24.0396
L20.8712 -24.1448
L21.1182 -24.2486
L21.3661 -24.351
L21.6147 -24.4521
L21.864 -24.552
L22.114 -24.6506
L22.3644 -24.7482
L22.6153 -24.8446
L22.8667 -24.9401
L23.1184 -25.0345
L23.3704 -25.128
L23.6226 -25.2207
L23.8751 -25.3125
L24.1278 -25.4035
L24.3807 -25.4937
L24.6336 -25.5832
L24.8867 -25.672
L25.1398 -25.7601
L25.393 -25.8476
L25.6462 -25.9345
L25.8995 -26.0209
L26.1527 -26.1067
L26.406 -26.192
L26.6592 -26.2767
L26.9125 -26.3611
L27.1657 -26.4449
L27.4189 -26.5284
L27.6721 -26.6115
L27.9254 -26.6941
L28.1786 -26.7764
L28.4318 -26.8584
L28.685 -26.9401
L28.9382 -27.0214
L29.1915 -27.1025
L29.4448 -27.1833
L29.6982 -27.2638
L29.9516 -27.3441
L30.2052 -27.4242
L30.4588 -27.504
L30.7126 -27.5837
L30.9665 -27.6632
L31.2205 -27.7425
L31.4748 -27.8216
L31.7292 -27.9006
L31.9839 -27.9794
L32.2388 -28.0581
L32.7493 -28.1367
L33.0051 -28.2152
L33.2612 -28.2936
L33.5176 -28.3719
L33.7744 -28.4501
L34.0316 -28.5283
L34.2892 -28.6063
L34.5473 -28.6843
L34.8058 -28.7622
L35.0648 -28.8401
L35.3244 -28.9179
L35.5845 -28.9957
L35.8451 -29.0734
L36.1064 -29.1511
L36.3683 -29.2288
L36.6308 -29.3063
L36.8939 -29.3839
L37.1577 -29.4614
L37.4223 -29.5388
L37.6875 -29.6162
L37.9535 -29.6936
L38.2203 -29.7708
L38.4879 -29.848
L38.7562 -29.9252
L39.0254 -30.0022
L39.2954 -30.0791
L39.5662 -30.1559
L39.8379 -30.2326
L40.1105 -30.3092
L40.384 -30.3855
L40.6584 -30.4617
L40.9337 -30.5377
L41.2099 -30.6135
L41.487 -30.689
L41.765 -30.7642
L42.044 -30.8391
L42.3239 -30.9137
L42.6047 -30.9879
L42.8865 -31.0616
L43.1692 -31.1349
L43.4528 -31.2077
L43.7373 -31.2799
L44.0226 -31.3515
L44.3089 -31.4224
L44.596 -31.4926
L44.8839 -31.562
L45.1726 -31.6306
L45.4621 -31.6982
L45.7524 -31.7647
L46.0434 -31.8302
L46.335 -31.8945
L46.6273 -31.9575
L46.9201 -32.0192
L47.2135 -32.0793
L47.5074 -32.1378
L47.8017 -32.1947
L48.0964 -32.2496
L48.3913 -32.3027
L48.6865 -32.3536
L48.9818 -32.4022
L49.2772 -32.4485
L49.5726 -32.4921
L49.8679 -32.5331
L50.163 -32.5712
L50.4578 -32.6061
L50.7522 -32.6379
L51.046 -32.6661
L51.3393 -32.6907
L51.6318 -32.7115
L51.9234 -32.7281
L52.214 -32.7405
L52.5035 -32.7484
L52.7918 -32.7515
L53.0786 -32.7497
L53.3639 -32.7426
L53.6474 -32.7302
L53.9291 -32.7121
L54.2087 -32.688
L54.4862 -32.6579
L54.7612 -32.6214
L55.0338 -32.5783
L55.3036 -32.5284
L55.5705 -32.4715
L55.8343 -32.4074
L56.0949 -32.3359
L56.352 -32.2567
L56.6055 -32.1699
L56.8552 -32.0751
L57.1009 -31.9722
L57.3423 -31.8612
L57.5794 -31.742
L57.8119 -31.6143
L58.0396 -31.4783
L58.2623 -31.3337
L58.48 -31.1807
L58.6923 -31.0192
L58.8991 -30.8493
L59.1002 -30.6709
L59.2955 -30.4841
L59.4848 -30.289
L59.6679 -30.0858
L59.8448 -29.8744
L60.0151 -29.6552
L60.1789 -29.4281
L60.3359 -29.1934
L60.486 -28.9513
L60.6292 -28.7019
L60.7652 -28.4454
L60.8941 -28.1821
L61.0156 -27.9122
L61.1297 -27.6359
L61.2362 -27.3534
L61.3352 -27.065
L61.4266 -26.7709
L61.5102 -26.4714
L61.586 -26.1668
L61.654 -25.8571
L61.7141 -25.5428
L61.7662 -25.2241
L61.8104 -24.9012
L61.8466 -24.5743
L61.7326 -24.2438
L61.5149 -23.7492
L61.2894 -23.302
L61.0562 -22.8586
L60.8154 -22.4192
L60.567 -21.984
L60.3111 -21.5531
L60.0478 -21.1265
L59.7772 -20.7045
L59.4994 -20.2871
L59.2144 -19.8746
L58.9223 -19.4669
L58.6232 -19.0643
L58.3173 -18.6668
L58.0045 -18.2746
L57.6851 -17.8878
L57.359 -17.5065
L57.0264 -17.1309
L56.6875 -16.761
L56.3422 -16.397
L55.9907 -16.0389
L55.6332 -15.6869
L55.2696 -15.3411
L54.9002 -15.0016
L54.5251 -14.6685
L54.1443 -14.3419
L53.7579 -14.0219
L53.3662 -13.7086
L52.9691 -13.4021
L52.5669 -13.1024
L52.1597 -12.8098
L51.7475 -12.5242
L51.3306 -12.2457
L50.9089 -11.9745
L50.4827 -11.7106
L50.0522 -11.4541
L49.6173 -11.2051
L49.1783 -10.9636
L48.7352 -10.7298
L48.2883 -10.5036
L47.8377 -10.2853
L47.3834 -10.0747
L46.9257 -9.87208
L46.4646 -9.67739
L46.0004 -9.49072
L45.5331 -9.31213
L45.0629 -9.14166
L44.5899 -8.97938
L44.1144 -8.82532
L43.6363 -8.67955
L43.1559 -8.54209
L42.6734 -8.413
L42.1888 -8.29232
L41.7023 -8.18007
L41.2141 -8.0763
L40.7244 -7.98103
L40.2331 -7.8943
L39.7406 -7.81613
L39.2469 -7.74654
L38.7523 -7.68556
L38.2568 -7.63321
L37.7606 -7.58949
L37.2639 -7.55443
L36.7668 -7.52804
L36.2695 -7.51032
L35.7721 -7.50127
L35.2747 -7.50091
L34.7776 -7.50923
L34.2809 -7.52623
L33.7846 -7.5519
L33.2891 -7.58623
L32.7944 -7.62922
L32.3006 -7.68086
L31.808 -7.74112
L31.3166 -7.80998
L30.8267 -7.88744
L30.3384 -7.97346
L29.8518 -8.06801
L29.367 -8.17107
L28.8843 -8.28261
L28.4037 -8.4026
L27.9255 -8.53099
L27.4497 -8.66774
L26.9765 -8.81283
L26.5061 -8.96619
L26.0386 -9.12779
L25.5741 -9.29757
L25.1127 -9.47549
L24.6547 -9.66149
L24.2002 -9.85551
L23.7492 -10.0575
L23.302 -10.2674
L22.8586 -10.4851
L22.4192 -10.7106
L21.984 -10.9438
L21.5531 -11.1846
L21.1265 -11.433
L20.7045 -11.6889
L20.2871 -11.9522
L19.8746 -12.2228
L19.4669 -12.5006
L19.0643 -12.7856
L18.6668 -13.0777
L18.2746 -13.3768
L17.8878 -13.6827
L17.5065 -13.9955
L17.1309 -14.3149
L16.761 -14.641
L16.397 -14.9736
L16.0389 -15.3125
L15.6869 -15.6578
L15.3411 -16.0093
L15.0016 -16.3668
L14.6685 -16.7304
L14.3419 -17.0998
L14.0219 -17.4749
z
" id="C0_1_07f8369610"/>
     <path d="
M10.2341 -48.0394
L10.508 -48.2342
L10.7834 -48.4276
L11.0602 -48.6194
L11.3384 -48.8096
L11.6179 -48.9979
L11.8986 -49.1843
L12.1805 -49.3687
L12.4634 -49.551
L12.7474 -49.7311
L13.0323 -49.9089
L13.3181 -50.0844
L13.6047 -50.2574
L13.892 -50.428
L14.1801 -50.5962
L14.4688 -50.7618
L14.7581 -50.9248
L15.048 -51.0852
L15.3384 -51.243
L15.6292 -51.3982
L15.9205 -51.5508
L16.2122 -51.7007
L16.5042 -51.8479
L16.7966 -51.9925
L17.0893 -52.1345
L17.3822 -52.2738
L17.6754 -52.4104
L17.9688 -52.5444
L18.2625 -52.6758
L18.5563 -52.8046
L18.8503 -52.9308
L19.1445 -53.0545
L19.4389 -53.1755
L19.7334 -53.294
L20.0281 -53.41
L20.3229 -53.5235
L20.6179 -53.6345
L20.913 -53.743
L21.2083 -53.8491
L21.5037 -53.9528
L21.7993 -54.054
L22.095 -54.1529
L22.391 -54.2494
L22.6871 -54.3435
L22.9834 -54.4354
L23.2799 -54.5249
L23.5767 -54.6122
L23.8737 -54.6971
L24.1709 -54.7799
L24.4685 -54.8604
L24.7663 -54.9387
L25.0644 -55.0147
L25.3628 -55.0886
L25.6616 -55.1604
L25.9608 -55.23
L26.2603 -55.2974
L26.5603 -55.3628
L26.8607 -55.426
L27.1616 -55.4871
L27.4629 -55.5461
L27.7648 -55.6031
L28.0671 -55.6579
L28.3701 -55.7107
L28.6736 -55.7615
L28.9777 -55.8102
L29.2825 -55.8568
L29.5879 -55.9014
L29.8939 -55.944
L30.2007 -55.9845
L30.5082 -56.023
L30.8165 -56.0595
L31.1256 -56.094
L31.4354 -56.1264
L31.7461 -56.1568
L32.0576 -56.1851
L32.37 -56.2115
L32.6833 -56.2357
L32.9975 -56.258
L33.3126 -56.2782
L33.6287 -56.2964
L33.9458 -56.3125
L34.2638 -56.3265
L34.5829 -56.3385
L34.9029 -56.3484
L35.224 -56.3563
L35.5462 -56.362
L35.8694 -56.3657
L36.1937 -56.3673
L36.5191 -56.3668
L36.8455 -56.3642
L37.173 -56.3595
L37.5016 -56.3527
L37.8314 -56.3437
L38.1622 -56.3327
L38.494 -56.3195
L38.827 -56.3042
L39.161 -56.2868
L39.4961 -56.2672
L39.8322 -56.2456
L40.1693 -56.2218
L40.5075 -56.1959
L40.8466 -56.168
L41.1866 -56.1379
L41.5276 -56.1058
L41.8694 -56.0717
L42.2121 -56.0355
L42.5556 -55.9974
L42.8998 -55.9572
L43.2447 -55.9152
L43.5903 -55.8712
L43.9364 -55.8254
L44.2831 -55.7778
L44.6302 -55.7284
L44.9777 -55.6774
L45.3255 -55.6247
L45.6736 -55.5704
L46.0217 -55.5148
L46.37 -55.4577
L46.7181 -55.3993
L47.0661 -55.3398
L47.4139 -55.2791
L47.7613 -55.2176
L48.1082 -55.1552
L48.4546 -55.0921
L48.8002 -55.0284
L49.145 -54.9644
L49.4888 -54.9001
L49.8315 -54.8358
L50.173 -54.7715
L50.5131 -54.7076
L50.8517 -54.6442
L51.1887 -54.5815
L51.5238 -54.5197
L51.857 -54.459
L52.1882 -54.3996
L52.5171 -54.3418
L52.8436 -54.2858
L53.1675 -54.2318
L53.4888 -54.18
L53.8073 -54.1308
L54.1228 -54.0842
L54.4352 -54.0406
L54.7443 -54.0001
L55.05 -53.9629
L55.3522 -53.9294
L55.6507 -53.8996
L55.9454 -53.8738
L56.2362 -53.8521
L56.5229 -53.8347
L56.8055 -53.8218
L57.0838 -53.8135
L57.3576 -53.8099
L57.627 -53.8112
L57.8917 -53.8174
L57.887 -53.8287
L57.5651 -54.2541
L57.2366 -54.6333
L56.9016 -55.0068
L56.5603 -55.3745
L56.2127 -55.7364
L55.859 -56.0922
L55.4992 -56.4419
L55.1335 -56.7853
L54.7619 -57.1225
L54.3847 -57.4532
L54.0018 -57.7774
L53.6135 -58.0949
L53.2197 -58.4057
L52.8208 -58.7097
L52.4167 -59.0068
L52.0076 -59.2968
L51.5936 -59.5798
L51.1749 -59.8556
L50.7516 -60.1241
L50.3238 -60.3853
L49.8916 -60.639
L49.4552 -60.8852
L49.0146 -61.1239
L48.5701 -61.3549
L48.1218 -61.5781
L47.6698 -61.7936
L47.2143 -62.0013
L46.7553 -62.201
L46.293 -62.3927
L45.8276 -62.5764
L45.3593 -62.752
L44.888 -62.9194
L44.4141 -63.0786
L43.9376 -63.2296
L43.4587 -63.3723
L42.9775 -63.5067
L42.4941 -63.6327
L42.0088 -63.7502
L41.5217 -63.8594
L41.0329 -63.96
L40.5426 -64.0521
L40.0508 -64.1357
L39.5579 -64.2106
L39.0638 -64.277
L38.5689 -64.3348
L38.0731 -64.384
L37.5767 -64.4245
L37.0798 -64.4564
L36.5826 -64.4795
L36.0853 -64.494
L35.5878 -64.4999
L35.0906 -64.497
L34.5936 -64.4855
L34.097 -64.4653
L33.601 -64.4364
L33.1057 -64.3989
L32.6114 -64.3527
L32.118 -64.2978
L31.6258 -64.2344
L31.135 -64.1623
L30.6457 -64.0817
L30.1579 -63.9925
L29.672 -63.8948
L29.188 -63.7886
L28.706 -63.6739
L28.2263 -63.5508
L27.749 -63.4193
L27.2741 -63.2795
L26.802 -63.1313
L26.3326 -62.9749
L25.8661 -62.8103
L25.4028 -62.6375
L24.9427 -62.4566
L24.4859 -62.2676
L24.0327 -62.0706
L23.5831 -61.8657
L23.1373 -61.6529
L22.6954 -61.4323
L22.2575 -61.2039
L21.8239 -60.9679
L21.3946 -60.7242
L20.9697 -60.4731
L20.5494 -60.2144
L20.1337 -59.9484
L19.723 -59.6751
L19.3172 -59.3946
L18.9164 -59.107
L18.5209 -58.8123
L18.1307 -58.5107
L17.7459 -58.2022
L17.3667 -57.887
L16.9932 -57.5651
L16.6255 -57.2366
L16.2636 -56.9016
L15.9078 -56.5603
L15.5581 -56.2127
L15.2147 -55.859
L14.8775 -55.4992
L14.5468 -55.1335
L14.2226 -54.7619
L13.9051 -54.3847
L13.5943 -54.0018
L13.2903 -53.6135
L12.9932 -53.2197
L12.7032 -52.8208
L12.4202 -52.4167
L12.1444 -52.0076
L11.8759 -51.5936
L11.6147 -51.1749
L11.361 -50.7516
L11.1148 -50.3238
L10.8761 -49.8916
L10.6451 -49.4552
L10.4219 -49.0146
z
" id="C0_2_369dea0ab7"/>
    </defs>
    <g clip-path="url(#p1bffca34e9)">
     <use style="fill:#ff0000;stroke:#000000;stroke-width:2.0;" x="0.0" xlink:href="#C0_0_a811fe30f3" y="72.0"/>
    </g>
    <g clip-path="url(#p1bffca34e9)">
     <use style="fill:#ffffff;stroke:#000000;stroke-width:2.0;" x="0.0" xlink:href="#C0_1_07f8369610" y="72.0"/>
    </g>
    <g clip-path="url(#p1bffca34e9)">
     <use style="fill:#ffffff;stroke:#000000;stroke-width:2.0;" x="0.0" xlink:href="#C0_2_369dea0ab7" y="72.0"/>
    </g>
   </g>
  </g>
 </g>
 <defs>
  <clipPath id="p1bffca34e9">
   <rect height="72.0" width="72.0" x="0.0" y="0.0"/>
  </clipPath>
 </defs>
</svg>
