<?xml version="1.0" encoding="utf-8" standalone="no"?>
<!DOCTYPE svg PUBLIC "-//W3C//DTD SVG 1.1//EN"
  "http://www.w3.org/Graphics/SVG/1.1/DTD/svg11.dtd">
<!-- Created with matplotlib (http://matplotlib.org/) -->
<svg height="72pt" version="1.1" viewBox="0 0 72 72" width="72pt" xmlns="http://www.w3.org/2000/svg" xmlns:xlink="http://www.w3.org/1999/xlink">
 <defs>
  <style type="text/css">
*{stroke-linecap:butt;stroke-linejoin:round;}
  </style>
 </defs>
 <g id="figure_1">
  <g id="patch_1">
   <path d="
M0 72
L72 72
L72 0
L0 0
z
" style="fill:none;"/>
  </g>
  <g id="axes_1">
   <g id="PatchCollection_1">
    <defs>
     <path d="
M36 -7.5
C43.5583 -7.5 50.808 -10.5029 56.1525 -15.8475
C61.4971 -21.192 64.5 -28.4417 64.5 -36
C64.5 -43.5583 61.4971 -50.808 56.1525 -56.1525
C50.808 -61.4971 43.5583 -64.5 36 -64.5
C28.4417 -64.5 21.192 -61.4971 15.8475 -56.1525
C10.5029 -50.808 7.5 -43.5583 7.5 -36
C7.5 -28.4417 10.5029 -21.192 15.8475 -15.8475
C21.192 -10.5029 28.4417 -7.5 36 -7.5
z
" id="C0_0_a811fe30f3"/>
     <path d="
M22.8858 -10.8734
L23.1233 -11.0705
L23.3741 -11.2662
L23.6354 -11.4613
L23.9051 -11.6565
L24.1815 -11.8523
L24.4629 -12.049
L24.748 -12.2469
L25.0357 -12.4463
L25.3251 -12.6472
L25.6154 -12.8497
L25.9059 -13.0538
L26.196 -13.2596
L26.4852 -13.4669
L26.7732 -13.6757
L27.0595 -13.8859
L27.3439 -14.0974
L27.6261 -14.3102
L27.9059 -14.524
L28.1831 -14.7388
L28.4575 -14.9544
L28.7291 -15.1708
L28.9977 -15.3879
L29.2633 -15.6054
L29.5258 -15.8234
L29.7852 -16.0417
L30.0413 -16.2603
L30.2943 -16.479
L30.544 -16.6977
L30.7906 -16.9165
L31.034 -17.1351
L31.2741 -17.3536
L31.5112 -17.5718
L31.7451 -17.7898
L31.9759 -18.0074
L32.2037 -18.2247
L32.4284 -18.4415
L32.6502 -18.6579
L32.8691 -18.8739
L33.0852 -19.0893
L33.2984 -19.3042
L33.5089 -19.5186
L33.7167 -19.7325
L33.9219 -19.9457
L34.1244 -20.1584
L34.3245 -20.3706
L34.5221 -20.5822
L34.7174 -20.7932
L34.9103 -21.0037
L35.1009 -21.2136
L35.2893 -21.423
L35.4755 -21.6319
L35.6597 -21.8403
L35.8418 -22.0482
L36.022 -22.2557
L36.2002 -22.4627
L36.3766 -22.6694
L36.5512 -22.8756
L36.724 -23.0815
L36.8952 -23.287
L37.0647 -23.4923
L37.2326 -23.6973
L37.399 -23.9021
L37.5639 -24.1067
L37.7274 -24.3111
L37.8895 -24.5154
L38.0503 -24.7196
L38.2098 -24.9238
L38.3681 -25.128
L38.5252 -25.3322
L38.6812 -25.5364
L38.8361 -25.7408
L38.9899 -25.9454
L39.1428 -26.1501
L39.2946 -26.3551
L39.4456 -26.5604
L39.5957 -26.766
L39.745 -26.972
L39.8934 -27.1784
L40.0412 -27.3853
L40.3345 -27.5927
L40.4802 -27.8007
L40.6253 -28.0094
L40.7698 -28.2187
L40.9138 -28.4287
L41.0573 -28.6395
L41.2003 -28.8512
L41.3429 -29.0637
L41.4851 -29.2772
L41.6269 -29.4917
L41.7684 -29.7072
L41.9096 -29.9238
L42.0505 -30.1416
L42.1912 -30.3606
L42.3316 -30.5809
L42.4718 -30.8025
L42.6119 -31.0256
L42.7518 -31.2501
L42.8916 -31.4761
L43.0313 -31.7037
L43.171 -31.933
L43.3106 -32.1639
L43.4501 -32.3967
L43.5897 -32.6313
L43.7292 -32.8678
L43.8688 -33.1062
L44.0084 -33.3467
L44.1481 -33.5894
L44.2878 -33.8341
L44.4277 -34.0812
L44.5676 -34.3305
L44.7076 -34.5822
L44.8478 -34.8364
L44.988 -35.0931
L45.1284 -35.3523
L45.2689 -35.6143
L45.4096 -35.8789
L45.5504 -36.1463
L45.6913 -36.4166
L45.8323 -36.6897
L45.9734 -36.9659
L46.1147 -37.2451
L46.256 -37.5273
L46.3975 -37.8128
L46.539 -38.1014
L46.6805 -38.3933
L46.8221 -38.6885
L46.9636 -38.9871
L47.1052 -39.289
L47.2467 -39.5944
L47.388 -39.9033
L47.5293 -40.2156
L47.6704 -40.5314
L47.8113 -40.8508
L47.9519 -41.1736
L48.0923 -41.5
L48.2323 -41.8299
L48.3719 -42.1632
L48.5111 -42.4999
L48.6498 -42.84
L48.7879 -43.1834
L48.9255 -43.5299
L49.0624 -43.8796
L49.1987 -44.2323
L49.3342 -44.5878
L49.4691 -44.9459
L49.6031 -45.3065
L49.7364 -45.6693
L49.869 -46.0341
L50.0009 -46.4005
L50.1321 -46.7682
L50.2627 -47.1368
L50.393 -47.5059
L50.523 -47.8748
L50.653 -48.2431
L50.7833 -48.6099
L50.9144 -48.9746
L51.0467 -49.3361
L51.1809 -49.6935
L51.3178 -50.0454
L51.4584 -50.3905
L51.6038 -50.727
L51.7556 -51.0531
L51.9152 -51.3664
L52.0848 -51.6644
L52.2663 -51.9444
L52.4621 -52.2029
L52.6745 -52.4368
L52.9057 -52.6424
L53.1572 -52.8165
L53.4304 -52.9561
L53.7254 -53.0589
L54.0419 -53.1236
L54.3785 -53.1498
L54.7333 -53.1381
L55.1037 -53.09
L55.4873 -53.0074
L55.8813 -52.8927
L56.2831 -52.7484
L56.6904 -52.577
L57.1011 -52.3808
L57.5132 -52.162
L57.925 -51.9226
L58.335 -51.6642
L58.742 -51.3885
L59.1449 -51.0968
L59.5426 -50.7903
L59.9344 -50.4703
L60.3195 -50.1378
L60.6974 -49.7936
L61.0673 -49.4386
L61.429 -49.0736
L61.7156 -48.6994
L61.9261 -48.2865
L62.1287 -47.8358
L62.3234 -47.3816
L62.51 -46.9238
L62.6886 -46.4628
L62.859 -45.9985
L63.0213 -45.5312
L63.1753 -45.061
L63.321 -44.588
L63.4584 -44.1124
L63.5875 -43.6344
L63.7082 -43.154
L63.8204 -42.6714
L63.9241 -42.1869
L64.0193 -41.7004
L64.106 -41.2122
L64.1842 -40.7224
L64.2537 -40.2311
L64.3147 -39.7386
L64.367 -39.2449
L64.4107 -38.7503
L64.4457 -38.2548
L64.472 -37.7586
L64.4897 -37.2619
L64.4987 -36.7648
L64.4991 -36.2675
L64.4907 -35.7701
L64.4737 -35.2727
L64.448 -34.7756
L64.4136 -34.2789
L64.3706 -33.7826
L64.3189 -33.2871
L64.2586 -32.7924
L64.1897 -32.2986
L64.1122 -31.806
L64.0262 -31.3147
L63.9316 -30.8247
L63.8285 -30.3364
L63.7169 -29.8498
L63.5969 -29.3651
L63.4685 -28.8823
L63.3317 -28.4018
L63.1866 -27.9236
L63.0332 -27.4478
L62.8715 -26.9746
L62.7017 -26.5042
L62.5238 -26.0367
L62.3377 -25.5722
L62.1437 -25.1109
L61.9417 -24.6529
L61.7318 -24.1983
L61.514 -23.7474
L61.2885 -23.3002
L61.0552 -22.8568
L60.8144 -22.4175
L60.566 -21.9823
L60.31 -21.5513
L60.0467 -21.1248
L59.7761 -20.7028
L59.4982 -20.2855
L59.2132 -19.8729
L58.9211 -19.4653
L58.622 -19.0626
L58.316 -18.6652
L58.0032 -18.273
L57.6838 -17.8863
L57.3577 -17.505
L57.0251 -17.1294
L56.6861 -16.7595
L56.3408 -16.3955
L55.9893 -16.0375
L55.6317 -15.6855
L55.2682 -15.3398
L54.8987 -15.0003
L54.5235 -14.6672
L54.1427 -14.3406
L53.7564 -14.0206
L53.3646 -13.7074
L52.9675 -13.4009
L52.5653 -13.1013
L52.158 -12.8086
L51.7459 -12.523
L51.3289 -12.2446
L50.9072 -11.9734
L50.481 -11.7096
L50.0504 -11.4531
L49.6155 -11.2041
L49.1765 -10.9627
L48.7334 -10.7289
L48.2865 -10.5028
L47.8358 -10.2844
L47.3816 -10.0739
L46.9238 -9.87128
L46.4628 -9.67662
L45.9985 -9.48999
L45.5312 -9.31142
L45.061 -9.14099
L44.588 -8.97874
L44.1124 -8.82472
L43.6344 -8.67898
L43.154 -8.54156
L42.6714 -8.4125
L42.1869 -8.29185
L41.7004 -8.17963
L41.2122 -8.07589
L40.7224 -7.98066
L40.2311 -7.89397
L39.7386 -7.81583
L39.2449 -7.74628
L38.7503 -7.68533
L38.2548 -7.63301
L37.7586 -7.58934
L37.2619 -7.55431
L36.7648 -7.52795
L36.2675 -7.51026
L35.7701 -7.50126
L35.2727 -7.50093
L34.7756 -7.50928
L34.2789 -7.52631
L33.7826 -7.55202
L33.2871 -7.58639
L32.7924 -7.62942
L32.2986 -7.68108
L31.806 -7.74138
L31.3147 -7.81028
L30.8247 -7.88777
L30.3364 -7.97382
L29.8498 -8.06841
L29.3651 -8.17151
L28.8823 -8.28308
L28.4018 -8.4031
L27.9236 -8.53152
L27.4478 -8.66831
L26.9746 -8.81343
L26.5042 -8.96682
L26.0367 -9.12846
L25.5722 -9.29827
L25.1109 -9.47622
L24.6529 -9.66225
L24.1983 -9.85631
L23.7474 -10.0583
L23.3002 -10.2682
z
" id="C0_1_971061c98c"/>
     <path d="
M10.3497 -23.7464
L10.2743 -24.2569
L10.2086 -24.7638
L10.1522 -25.2667
L10.1052 -25.7651
L10.0672 -26.2588
L10.0381 -26.7475
L10.0175 -27.2309
L10.0053 -27.7089
L10.0011 -28.1813
L10.0047 -28.648
L10.0158 -29.1089
L10.0341 -29.5638
L10.0594 -30.0127
L10.0914 -30.4556
L10.1298 -30.8924
L10.1743 -31.3231
L10.2248 -31.7478
L10.2809 -32.1664
L10.3424 -32.579
L10.4091 -32.9857
L10.4807 -33.3864
L10.5571 -33.7813
L10.638 -34.1703
L10.7233 -34.5537
L10.8127 -34.9315
L10.9062 -35.3036
L11.0034 -35.6704
L11.1042 -36.0318
L11.2086 -36.3879
L11.3163 -36.7388
L11.4273 -37.0847
L11.5413 -37.4257
L11.6584 -37.7617
L11.7783 -38.0931
L11.9009 -38.4198
L12.0262 -38.7419
L12.1541 -39.0596
L12.2844 -39.373
L12.4172 -39.6822
L12.5523 -39.9872
L12.6897 -40.2883
L12.8293 -40.5854
L12.971 -40.8787
L13.1148 -41.1683
L13.2607 -41.4542
L13.4086 -41.7367
L13.5585 -42.0157
L13.7103 -42.2914
L13.8641 -42.5638
L14.0197 -42.8331
L14.1773 -43.0993
L14.3366 -43.3625
L14.4979 -43.6228
L14.661 -43.8803
L14.8259 -44.135
L14.9926 -44.3871
L15.1612 -44.6366
L15.3316 -44.8836
L15.5038 -45.1281
L15.678 -45.3703
L15.8539 -45.6101
L16.0318 -45.8477
L16.2116 -46.0831
L16.3932 -46.3165
L16.5769 -46.5477
L16.7625 -46.777
L16.9501 -47.0043
L17.1398 -47.2297
L17.3315 -47.4533
L17.5253 -47.6751
L17.7212 -47.8951
L17.9194 -48.1135
L18.1197 -48.3302
L18.3224 -48.5453
L18.5273 -48.7588
L18.7347 -48.9708
L18.9444 -49.1813
L19.1566 -49.3904
L19.3714 -49.598
L19.5887 -49.8042
L19.8087 -50.009
L20.0314 -50.2125
L20.2569 -50.4146
L20.4852 -50.6154
L20.7164 -50.815
L20.9507 -51.0132
L21.1879 -51.2102
L21.4284 -51.4059
L21.672 -51.6003
L21.9189 -51.7935
L22.1692 -51.9855
L22.423 -52.1761
L22.6803 -52.3655
L22.9412 -52.5537
L23.2058 -52.7405
L23.4743 -52.9261
L23.7466 -53.1103
L24.023 -53.2931
L24.3034 -53.4746
L24.588 -53.6547
L24.8769 -53.8333
L25.1702 -54.0104
L25.4679 -54.186
L25.7703 -54.3599
L26.0772 -54.5322
L26.389 -54.7028
L26.7056 -54.8716
L27.0272 -55.0386
L27.3539 -55.2036
L27.6857 -55.3666
L28.0227 -55.5274
L28.3651 -55.6861
L28.7129 -55.8424
L29.0662 -55.9963
L29.4251 -56.1477
L29.7897 -56.2963
L30.16 -56.4422
L30.536 -56.5852
L30.9179 -56.7251
L31.3057 -56.8617
L31.6994 -56.995
L32.0991 -57.1247
L32.5047 -57.2507
L32.9162 -57.3728
L33.3337 -57.4909
L33.7571 -57.6048
L34.1864 -57.7143
L34.6214 -57.8192
L35.0622 -57.9194
L35.5085 -58.0146
L35.9602 -58.1047
L36.4172 -58.1896
L36.8793 -58.2691
L37.3462 -58.3431
L37.8176 -58.4114
L38.2932 -58.474
L38.7727 -58.5308
L39.2556 -58.5818
L39.7414 -58.627
L40.2296 -58.6665
L40.7195 -58.7004
L41.2105 -58.729
L41.7017 -58.7526
L42.1921 -58.7716
L42.6808 -58.7867
L43.1665 -58.7986
L43.6477 -58.8082
L44.1229 -58.8169
L44.5903 -58.826
L45.0478 -58.8373
L45.493 -58.853
L45.9234 -58.8755
L46.3362 -58.9077
L46.7283 -58.9524
L47.0968 -59.0129
L47.4389 -59.0921
L47.752 -59.1927
L48.0345 -59.3167
L48.2853 -59.4652
L48.5042 -59.6384
L48.6919 -59.8354
L48.8497 -60.0547
L48.9795 -60.2941
L49.0833 -60.5513
L49.1631 -60.8236
L48.8364 -61.1087
L48.3903 -61.4456
L47.9405 -61.6657
L47.487 -61.8781
L47.0301 -62.0825
L46.5698 -62.279
L46.1062 -62.4675
L45.6396 -62.648
L45.1701 -62.8203
L44.6978 -62.9844
L44.2228 -63.1404
L43.7453 -63.288
L43.2654 -63.4274
L42.7833 -63.5584
L42.2992 -63.681
L41.8132 -63.7951
L41.3253 -63.9008
L40.8359 -63.998
L40.345 -64.0867
L39.8527 -64.1668
L39.3593 -64.2384
L38.8649 -64.3013
L38.3696 -64.3556
L37.8735 -64.4013
L37.3769 -64.4384
L36.8799 -64.4667
L36.3826 -64.4864
L35.8852 -64.4974
L35.3878 -64.4998
L34.8907 -64.4934
L34.3938 -64.4784
L33.8975 -64.4547
L33.4017 -64.4223
L32.9068 -64.3813
L32.4128 -64.3316
L31.9199 -64.2733
L31.4283 -64.2064
L30.938 -64.1309
L30.4493 -64.0469
L29.9623 -63.9542
L29.4771 -63.8531
L28.9939 -63.7435
L28.5128 -63.6254
L28.0341 -63.499
L27.5577 -63.3641
L27.0839 -63.2209
L26.6129 -63.0694
L26.1446 -62.9097
L25.6794 -62.7418
L25.2174 -62.5657
L24.7586 -62.3815
L24.3032 -62.1893
L23.8515 -61.9891
L23.4034 -61.7811
L22.9591 -61.5651
L22.5188 -61.3414
L22.0827 -61.1099
L21.6507 -60.8708
L21.2231 -60.6241
L20.8001 -60.37
L20.3817 -60.1084
L19.968 -59.8394
L19.5592 -59.5632
L19.1554 -59.2798
L18.7567 -58.9893
L18.3633 -58.6919
L17.9753 -58.3875
L17.5928 -58.0762
L17.2158 -57.7583
L16.8446 -57.4337
L16.4793 -57.1027
L16.1198 -56.7651
L15.7665 -56.4213
L15.4192 -56.0712
L15.0783 -55.715
L14.7437 -55.3529
L14.4156 -54.9848
L14.0941 -54.6109
L13.7793 -54.2314
L13.4712 -53.8463
L13.17 -53.4558
L12.8757 -53.0599
L12.5885 -52.6589
L12.3084 -52.2528
L12.0356 -51.8417
L11.77 -51.4258
L11.5118 -51.0052
L11.2611 -50.5801
L11.0179 -50.1505
L10.7823 -49.7166
L10.5544 -49.2785
L10.3343 -48.8364
L10.1219 -48.3903
L9.91748 -47.9405
L9.72098 -47.487
L9.53248 -47.0301
L9.35204 -46.5698
L9.17972 -46.1062
L9.01557 -45.6396
L8.85964 -45.1701
L8.71198 -44.6978
L8.57263 -44.2228
L8.44163 -43.7453
L8.31903 -43.2654
L8.20486 -42.7833
L8.09916 -42.2992
L8.00195 -41.8132
L7.91328 -41.3253
L7.83316 -40.8359
L7.76161 -40.345
L7.69868 -39.8527
L7.64436 -39.3593
L7.59868 -38.8649
L7.56165 -38.3696
L7.53328 -37.8735
L7.51359 -37.3769
L7.50257 -36.8799
L7.50023 -36.3826
L7.50657 -35.8852
L7.5216 -35.3878
L7.5453 -34.8907
L7.57766 -34.3938
L7.61868 -33.8975
L7.66835 -33.4017
L7.72665 -32.9068
L7.79356 -32.4128
L7.86907 -31.9199
L7.95314 -31.4283
L8.04575 -30.938
L8.14688 -30.4493
L8.2565 -29.9623
L8.37456 -29.4771
L8.50104 -28.9939
L8.6359 -28.5128
L8.77909 -28.0341
L8.93058 -27.5577
L9.09031 -27.0839
L9.25823 -26.6129
L9.43431 -26.1446
L9.61847 -25.6794
L9.81067 -25.2174
L10.0109 -24.7586
z
" id="C0_2_224900fa50"/>
    </defs>
    <g clip-path="url(#p1bffca34e9)">
     <use style="fill:#ff0000;stroke:#000000;stroke-width:2.0;" x="0.0" xlink:href="#C0_0_a811fe30f3" y="72.0"/>
    </g>
    <g clip-path="url(#p1bffca34e9)">
     <use style="fill:#ffffff;stroke:#000000;stroke-width:2.0;" x="0.0" xlink:href="#C0_1_971061c98c" y="72.0"/>
    </g>
    <g clip-path="url(#p1bffca34e9)">
     <use style="fill:#ffffff;stroke:#000000;stroke-width:2.0;" x="0.0" xlink:href="#C0_2_224900fa50" y="72.0"/>
    </g>
   </g>
  </g>
 </g>
 <defs>
  <clipPath id="p1bffca34e9">
   <rect height="72.0" width="72.0" x="0.0" y="0.0"/>
  </clipPath>
 </defs>
</svg>
