<?xml version="1.0" encoding="utf-8" standalone="no"?>
<!DOCTYPE svg PUBLIC "-//W3C//DTD SVG 1.1//EN"
  "http://www.w3.org/Graphics/SVG/1.1/DTD/svg11.dtd">
<!-- Created with matplotlib (http://matplotlib.org/) -->
<svg height="72pt" version="1.1" viewBox="0 0 72 72" width="72pt" xmlns="http://www.w3.org/2000/svg" xmlns:xlink="http://www.w3.org/1999/xlink">
 <defs>
  <style type="text/css">
*{stroke-linecap:butt;stroke-linejoin:round;}
  </style>
 </defs>
 <g id="figure_1">
  <g id="patch_1">
   <path d="
M0 72
L72 72
L72 0
L0 0
z
" style="fill:none;"/>
  </g>
  <g id="axes_1">
   <g id="PatchCollection_1">
    <defs>
     <path d="
M36 -7.5
C43.5583 -7.5 50.808 -10.5029 56.1525 -15.8475
C61.4971 -21.192 64.5 -28.4417 64.5 -36
C64.5 -43.5583 61.4971 -50.808 56.1525 -56.1525
C50.808 -61.4971 43.5583 -64.5 36 -64.5
C28.4417 -64.5 21.192 -61.4971 15.8475 -56.1525
C10.5029 -50.808 7.5 -43.5583 7.5 -36
C7.5 -28.4417 10.5029 -21.192 15.8475 -15.8475
C21.192 -10.5029 28.4417 -7.5 36 -7.5
z
" id="C0_0_a811fe30f3"/>
     <path d="
M41.9598 -63.6676
L41.8978 -63.4537
L41.8374 -63.2394
L41.7786 -63.0248
L41.7212 -62.81
L41.6652 -62.5949
L41.6105 -62.3796
L41.557 -62.1641
L41.5047 -61.9486
L41.4535 -61.7329
L41.4033 -61.5172
L41.3541 -61.3014
L41.3058 -61.0856
L41.2583 -60.8697
L41.2118 -60.6538
L41.166 -60.4379
L41.1209 -60.2219
L41.0766 -60.0059
L41.033 -59.7899
L40.99 -59.5738
L40.9476 -59.3577
L40.9058 -59.1415
L40.8645 -58.9253
L40.8238 -58.709
L40.7835 -58.4925
L40.7438 -58.2759
L40.7045 -58.0592
L40.6656 -57.8423
L40.6272 -57.6252
L40.5891 -57.4078
L40.5514 -57.1903
L40.5141 -56.9724
L40.4771 -56.7542
L40.4404 -56.5357
L40.404 -56.3168
L40.3679 -56.0975
L40.3321 -55.8778
L40.2965 -55.6576
L40.2612 -55.4369
L40.2261 -55.2156
L40.1913 -54.9938
L40.1566 -54.7713
L40.1222 -54.5482
L40.0538 -54.3243
L40.0199 -54.0997
L39.9861 -53.8743
L39.9525 -53.6481
L39.919 -53.421
L39.8856 -53.193
L39.8524 -52.964
L39.8192 -52.734
L39.7862 -52.503
L39.7533 -52.2708
L39.7205 -52.0375
L39.6877 -51.803
L39.6551 -51.5672
L39.6225 -51.3302
L39.59 -51.0918
L39.5576 -50.8519
L39.5252 -50.6107
L39.4929 -50.3679
L39.4607 -50.1236
L39.4285 -49.8776
L39.3964 -49.63
L39.3643 -49.3807
L39.3323 -49.1297
L39.3003 -48.8768
L39.2684 -48.622
L39.2366 -48.3653
L39.2048 -48.1067
L39.1731 -47.846
L39.1415 -47.5832
L39.1099 -47.3183
L39.0785 -47.0512
L39.0471 -46.7819
L39.0158 -46.5103
L38.9846 -46.2364
L38.9536 -45.9601
L38.9227 -45.6813
L38.892 -45.4001
L38.8614 -45.1164
L38.8311 -44.8301
L38.8009 -44.5412
L38.771 -44.2496
L38.7413 -43.9554
L38.712 -43.6585
L38.683 -43.3589
L38.6543 -43.0565
L38.6261 -42.7514
L38.5983 -42.4435
L38.571 -42.1327
L38.5443 -41.8192
L38.5182 -41.5028
L38.4927 -41.1836
L38.468 -40.8617
L38.4441 -40.537
L38.4211 -40.2095
L38.399 -39.8794
L38.3781 -39.5466
L38.3584 -39.2111
L38.3399 -38.8732
L38.3229 -38.5328
L38.3075 -38.19
L38.2937 -37.8449
L38.2819 -37.4977
L38.2721 -37.1485
L38.2645 -36.7974
L38.2594 -36.4447
L38.257 -36.0903
L38.2575 -35.7347
L38.2612 -35.378
L38.2683 -35.0204
L38.2792 -34.6622
L38.2942 -34.3037
L38.3136 -33.9452
L38.3379 -33.587
L38.3674 -33.2295
L38.4025 -32.873
L38.4437 -32.5181
L38.4914 -32.165
L38.5462 -31.8142
L38.6086 -31.4663
L38.679 -31.1217
L38.7579 -30.781
L38.846 -30.4445
L38.9436 -30.113
L39.0514 -29.7869
L39.1697 -29.4668
L39.299 -29.1532
L39.4396 -28.8466
L39.5919 -28.5475
L39.756 -28.2565
L39.9322 -27.9738
L40.1205 -27.6999
L40.3209 -27.4352
L40.5332 -27.1799
L40.7572 -26.9343
L40.9926 -26.6985
L41.239 -26.4727
L41.496 -26.2568
L41.763 -26.0509
L42.0395 -25.8551
L42.3247 -25.669
L42.6181 -25.4928
L42.9191 -25.3262
L43.2268 -25.169
L43.5407 -25.0211
L43.8601 -24.8822
L44.1844 -24.7521
L44.5129 -24.6307
L44.845 -24.5175
L45.1801 -24.4126
L45.5178 -24.3155
L45.8574 -24.226
L46.1986 -24.144
L46.5408 -24.0693
L46.8836 -24.0015
L47.2267 -23.9405
L47.5697 -23.8861
L47.9122 -23.8381
L48.254 -23.7962
L48.5948 -23.7603
L48.9342 -23.7303
L49.2722 -23.7059
L49.6084 -23.6869
L49.9427 -23.6733
L50.275 -23.6648
L50.605 -23.6612
L50.9326 -23.6626
L51.2578 -23.6686
L51.5804 -23.6791
L51.9003 -23.6942
L52.2174 -23.7135
L52.5317 -23.737
L52.8431 -23.7645
L53.1517 -23.7961
L53.4572 -23.8314
L53.7598 -23.8706
L54.0594 -23.9134
L54.356 -23.9597
L54.6495 -24.0095
L54.9401 -24.0627
L55.2276 -24.1193
L55.5121 -24.1791
L55.7936 -24.242
L56.0722 -24.3081
L56.3478 -24.3772
L56.6204 -24.4493
L56.8902 -24.5243
L57.1571 -24.6023
L57.4212 -24.6831
L57.6825 -24.7666
L57.941 -24.853
L58.1967 -24.9421
L58.4498 -25.0338
L58.7003 -25.1283
L58.9481 -25.2254
L59.1933 -25.3252
L59.436 -25.4275
L59.6762 -25.5325
L59.914 -25.64
L60.1493 -25.7502
L60.3822 -25.8629
L60.6128 -25.9783
L60.8412 -26.0962
L61.0672 -26.2167
L61.291 -26.3398
L61.5126 -26.4655
L61.7321 -26.5939
L61.9494 -26.725
L62.1646 -26.8587
L62.3778 -26.9952
L62.5889 -27.1343
L62.798 -27.2763
L63.0052 -27.421
L63.2103 -27.5687
L63.406 -27.7192
L63.5383 -28.1795
L63.6623 -28.659
L63.7778 -29.1407
L63.8848 -29.6246
L63.9833 -30.1103
L64.0734 -30.5979
L64.1548 -31.0871
L64.2277 -31.5778
L64.292 -32.0698
L64.3477 -32.5631
L64.3947 -33.0573
L64.4331 -33.5525
L64.4628 -34.0485
L64.4839 -34.545
L64.4963 -35.0419
L64.5 -35.5392
L64.495 -36.0366
L64.4813 -36.534
L64.459 -37.0312
L64.428 -37.5281
L64.3883 -38.0246
L64.34 -38.5204
L64.2831 -39.0155
L64.2175 -39.5096
L64.1434 -40.0027
L64.0606 -40.4945
L63.9694 -40.985
L63.8696 -41.474
L63.7613 -41.9613
L63.6446 -42.4468
L63.5194 -42.9303
L63.3858 -43.4117
L63.244 -43.8908
L63.0938 -44.3676
L62.9353 -44.8418
L62.7687 -45.3133
L62.5939 -45.782
L62.411 -46.2476
L62.2201 -46.7102
L62.0211 -47.1695
L61.8143 -47.6254
L61.5996 -48.0778
L61.377 -48.5265
L61.1468 -48.9713
L60.9089 -49.4122
L60.6634 -49.8491
L60.4104 -50.2817
L60.15 -50.7099
L59.8822 -51.1337
L59.6071 -51.5529
L59.3248 -51.9673
L59.0355 -52.3769
L58.7391 -52.7815
L58.4358 -53.1809
L58.1256 -53.5752
L57.8087 -53.9641
L57.4852 -54.3475
L57.1551 -54.7253
L56.8186 -55.0974
L56.4757 -55.4637
L56.1266 -55.8241
L55.7714 -56.1784
L55.4102 -56.5266
L55.043 -56.8685
L54.67 -57.2041
L54.2914 -57.5332
L53.9072 -57.8558
L53.5175 -58.1717
L53.1225 -58.4808
L52.7223 -58.7831
L52.3169 -59.0785
L51.9066 -59.3668
L51.4915 -59.648
L51.0716 -59.922
L50.6472 -60.1887
L50.2183 -60.4481
L49.7851 -60.7
L49.3476 -60.9444
L48.9061 -61.1812
L48.4607 -61.4103
L48.0114 -61.6317
L47.5586 -61.8452
L47.1021 -62.0509
L46.6423 -62.2487
L46.1793 -62.4384
L45.7132 -62.6201
L45.2441 -62.7937
L44.7722 -62.9592
L44.2976 -63.1164
L43.8205 -63.2654
L43.341 -63.406
L42.8593 -63.5383
z
" id="C0_1_e23f49b434"/>
     <path d="
M8.765 -44.0745
L8.85264 -43.836
L8.94261 -43.5989
L9.03489 -43.3631
L9.12948 -43.1285
L9.22635 -42.895
L9.32551 -42.6627
L9.42694 -42.4314
L9.53064 -42.201
L9.63662 -41.9716
L9.74487 -41.7431
L9.85539 -41.5153
L9.9682 -41.2884
L10.0833 -41.0621
L10.2007 -40.8365
L10.3204 -40.6115
L10.4425 -40.387
L10.5669 -40.1631
L10.6936 -39.9396
L10.8228 -39.7165
L10.9544 -39.4937
L11.0884 -39.2713
L11.2248 -39.0492
L11.3638 -38.8272
L11.5052 -38.6055
L11.6493 -38.3839
L11.7959 -38.1624
L11.9451 -37.9409
L12.097 -37.7195
L12.2515 -37.498
L12.4088 -37.2765
L12.5689 -37.0549
L12.7317 -36.8331
L12.8974 -36.6112
L13.066 -36.3891
L13.2376 -36.1667
L13.4121 -35.9441
L13.5896 -35.7212
L13.7702 -35.4979
L13.9539 -35.2743
L14.1408 -35.0503
L14.3308 -34.8259
L14.5241 -34.6011
L14.7207 -34.3759
L14.9206 -34.1501
L15.1238 -33.9239
L15.3305 -33.6971
L15.5406 -33.4698
L15.7541 -33.242
L15.9712 -33.0136
L16.1918 -32.7846
L16.416 -32.5551
L16.6438 -32.325
L16.8751 -32.0942
L17.1101 -31.8629
L17.3487 -31.631
L17.5909 -31.3984
L17.8367 -31.1652
L18.0862 -30.9314
L18.3392 -30.697
L18.5957 -30.462
L18.8558 -30.2263
L19.1193 -29.9901
L19.3862 -29.7532
L19.6564 -29.5157
L19.9298 -29.2776
L20.2062 -29.0389
L20.4857 -28.7996
L20.768 -28.5596
L21.0529 -28.3191
L21.3403 -28.0779
L21.6299 -27.836
L21.9216 -27.5935
L22.215 -27.3503
L22.5099 -27.1063
L22.8059 -26.8616
L23.1027 -26.616
L23.4 -26.3696
L23.6972 -26.1222
L23.994 -25.8738
L24.2898 -25.6242
L24.5842 -25.3734
L24.8766 -25.1212
L25.1664 -24.8676
L25.453 -24.6122
L25.7357 -24.3551
L26.014 -24.096
L26.2871 -23.8348
L26.5544 -23.5712
L26.8151 -23.3051
L27.0686 -23.0362
L27.3143 -22.7645
L27.5515 -22.4898
L27.7796 -22.2119
L27.9982 -21.9307
L28.2068 -21.6461
L28.4049 -21.3582
L28.5924 -21.0668
L28.7691 -20.772
L28.9347 -20.4739
L29.0894 -20.1727
L29.2332 -19.8686
L29.3662 -19.5617
L29.4887 -19.2523
L29.601 -18.9407
L29.7035 -18.6272
L29.7965 -18.3122
L29.8805 -17.996
L29.9559 -17.6789
L30.0233 -17.3614
L30.083 -17.0437
L30.1355 -16.7263
L30.1814 -16.4094
L30.221 -16.0935
L30.2548 -15.7787
L30.2832 -15.4655
L30.3066 -15.154
L30.3254 -14.8446
L30.3399 -14.5374
L30.3505 -14.2327
L30.3573 -13.9307
L30.3609 -13.6316
L30.3613 -13.3354
L30.3589 -13.0425
L30.3538 -12.7528
L30.3463 -12.4665
L30.3366 -12.1837
L30.3249 -11.9045
L30.3112 -11.629
L30.2958 -11.3571
L30.2789 -11.089
L30.2604 -10.8246
L30.2406 -10.564
L30.2195 -10.3073
L30.1973 -10.0543
L30.174 -9.80521
L30.1497 -9.55988
L30.1245 -9.31833
L30.0984 -9.08055
L30.0715 -8.8465
L30.0439 -8.61616
L30.0157 -8.38949
L29.4963 -8.16645
L29.0131 -8.25198
L28.5319 -8.36971
L28.053 -8.49586
L27.5766 -8.63039
L27.1027 -8.77325
L26.6315 -8.9244
L26.1632 -9.08381
L25.6979 -9.25141
L25.2357 -9.42716
L24.7768 -9.611
L24.3213 -9.80289
L23.8693 -10.0028
L23.4211 -10.2105
L22.9767 -10.4262
L22.5362 -10.6496
L22.0999 -10.8807
L21.6678 -11.1195
L21.24 -11.3659
L20.8168 -11.6198
L20.3982 -11.8811
L19.9843 -12.1498
L19.5753 -12.4257
L19.1713 -12.7088
L18.7725 -12.999
L18.3789 -13.2962
L17.9906 -13.6003
L17.6079 -13.9113
L17.2307 -14.2289
L16.8593 -14.5532
L16.4937 -14.8841
L16.134 -15.2213
L15.7804 -15.5649
L15.4329 -15.9148
L15.0917 -16.2707
L14.7569 -16.6327
L14.4286 -17.0005
L14.1068 -17.3741
L13.7917 -17.7535
L13.4833 -18.1383
L13.1818 -18.5286
L12.8873 -18.9243
L12.5998 -19.3251
L12.3194 -19.731
L12.0463 -20.1419
L11.7804 -20.5576
L11.5219 -20.978
L11.2709 -21.403
L11.0274 -21.8324
L10.7915 -22.2661
L10.5633 -22.704
L10.3429 -23.146
L10.1302 -23.5919
L9.92545 -24.0416
L9.72863 -24.4949
L9.53981 -24.9517
L9.35905 -25.4119
L9.18641 -25.8753
L9.02193 -26.3418
L8.86567 -26.8112
L8.71768 -27.2834
L8.578 -27.7583
L8.44667 -28.2357
L8.32374 -28.7155
L8.20923 -29.1975
L8.10319 -29.6815
L8.00565 -30.1675
L7.91663 -30.6553
L7.83617 -31.1446
L7.76429 -31.6355
L7.70101 -32.1277
L7.64635 -32.6211
L7.60033 -33.1155
L7.56295 -33.6107
L7.53424 -34.1067
L7.5142 -34.6033
L7.50284 -35.1003
L7.50016 -35.5976
L7.50616 -36.095
L7.52084 -36.5924
L7.54419 -37.0896
L7.57621 -37.5865
L7.61689 -38.0828
L7.66622 -38.5786
L7.72417 -39.0736
L7.79074 -39.5676
L7.8659 -40.0605
L7.94964 -40.5522
L8.04191 -41.0425
L8.14271 -41.5313
L8.25198 -42.0184
L8.36971 -42.5037
L8.49586 -42.9869
z
" id="C0_2_2bdcf569d8"/>
    </defs>
    <g clip-path="url(#p1bffca34e9)">
     <use style="fill:#ff0000;stroke:#000000;stroke-width:2.0;" x="0.0" xlink:href="#C0_0_a811fe30f3" y="72.0"/>
    </g>
    <g clip-path="url(#p1bffca34e9)">
     <use style="fill:#ffffff;stroke:#000000;stroke-width:2.0;" x="0.0" xlink:href="#C0_1_e23f49b434" y="72.0"/>
    </g>
    <g clip-path="url(#p1bffca34e9)">
     <use style="fill:#ffffff;stroke:#000000;stroke-width:2.0;" x="0.0" xlink:href="#C0_2_2bdcf569d8" y="72.0"/>
    </g>
   </g>
  </g>
 </g>
 <defs>
  <clipPath id="p1bffca34e9">
   <rect height="72.0" width="72.0" x="0.0" y="0.0"/>
  </clipPath>
 </defs>
</svg>
