<?xml version="1.0" encoding="utf-8" standalone="no"?>
<!DOCTYPE svg PUBLIC "-//W3C//DTD SVG 1.1//EN"
  "http://www.w3.org/Graphics/SVG/1.1/DTD/svg11.dtd">
<!-- Created with matplotlib (http://matplotlib.org/) -->
<svg height="72pt" version="1.1" viewBox="0 0 72 72" width="72pt" xmlns="http://www.w3.org/2000/svg" xmlns:xlink="http://www.w3.org/1999/xlink">
 <defs>
  <style type="text/css">
*{stroke-linecap:butt;stroke-linejoin:round;}
  </style>
 </defs>
 <g id="figure_1">
  <g id="patch_1">
   <path d="
M0 72
L72 72
L72 0
L0 0
z
" style="fill:none;"/>
  </g>
  <g id="axes_1">
   <g id="PatchCollection_1">
    <defs>
     <path d="
M36 -7.5
C43.5583 -7.5 50.808 -10.5029 56.1525 -15.8475
C61.4971 -21.192 64.5 -28.4417 64.5 -36
C64.5 -43.5583 61.4971 -50.808 56.1525 -56.1525
C50.808 -61.4971 43.5583 -64.5 36 -64.5
C28.4417 -64.5 21.192 -61.4971 15.8475 -56.1525
C10.5029 -50.808 7.5 -43.5583 7.5 -36
C7.5 -28.4417 10.5029 -21.192 15.8475 -15.8475
C21.192 -10.5029 28.4417 -7.5 36 -7.5
z
" id="C0_0_a811fe30f3"/>
     <path d="
M40.1568 -39.6033
L39.9535 -39.795
L39.7485 -39.9848
L39.5417 -40.1728
L39.333 -40.3587
L39.1226 -40.5428
L38.9104 -40.7248
L38.6965 -40.9049
L38.4808 -41.0831
L38.2633 -41.2592
L38.044 -41.4333
L37.8231 -41.6053
L37.6003 -41.7753
L37.3759 -41.9432
L37.1497 -42.109
L36.9218 -42.2726
L36.6922 -42.4341
L36.4609 -42.5934
L36.2279 -42.7504
L35.9931 -42.9053
L35.7567 -43.0578
L35.5186 -43.208
L35.2788 -43.3559
L35.0373 -43.5013
L34.7942 -43.6444
L34.5493 -43.785
L34.3029 -43.923
L34.0547 -44.0585
L33.8049 -44.1914
L33.5535 -44.3217
L33.3005 -44.4492
L33.0458 -44.574
L32.7896 -44.696
L32.5317 -44.8151
L32.2723 -44.9313
L32.0113 -45.0445
L31.7487 -45.1547
L31.4846 -45.2618
L31.2191 -45.3657
L30.952 -45.4664
L30.6834 -45.5638
L30.4134 -45.6578
L30.142 -45.7484
L29.8691 -45.8354
L29.5949 -45.9189
L29.3194 -45.9987
L29.0426 -46.0747
L28.7644 -46.1469
L28.4851 -46.2151
L28.2045 -46.2794
L27.9228 -46.3396
L27.6399 -46.3956
L27.356 -46.4473
L27.0711 -46.4946
L26.7852 -46.5376
L26.4984 -46.5759
L26.2107 -46.6097
L25.9223 -46.6387
L25.6331 -46.6629
L25.3432 -46.6822
L25.0527 -46.6964
L24.7617 -46.7056
L24.4703 -46.7095
L24.1784 -46.7082
L23.8863 -46.7014
L23.594 -46.6892
L23.3015 -46.6714
L23.0091 -46.6479
L22.7167 -46.6187
L22.4245 -46.5836
L22.1325 -46.5426
L21.8409 -46.4955
L21.5499 -46.4424
L21.2594 -46.3831
L20.9696 -46.3175
L20.6807 -46.2456
L20.3928 -46.1673
L20.1059 -46.0826
L19.8203 -45.9914
L19.536 -45.8936
L19.2531 -45.7891
L18.9719 -45.678
L18.6925 -45.5602
L18.415 -45.4357
L18.1395 -45.3044
L17.8662 -45.1663
L17.5952 -45.0214
L17.3267 -44.8697
L17.0609 -44.7112
L16.7978 -44.5458
L16.5377 -44.3737
L16.2807 -44.1948
L16.027 -44.0091
L15.7766 -43.8167
L15.5298 -43.6176
L15.2867 -43.4119
L15.0474 -43.1996
L14.8122 -42.9808
L14.5811 -42.7555
L14.3543 -42.5238
L14.132 -42.2858
L13.9143 -42.0417
L13.7013 -41.7914
L13.4931 -41.5351
L13.29 -41.2729
L13.092 -41.0049
L12.8993 -40.7312
L12.7119 -40.452
L12.5301 -40.1674
L12.354 -39.8775
L12.1835 -39.5824
L12.0189 -39.2824
L11.8603 -38.9775
L11.7077 -38.668
L11.5613 -38.3539
L11.4212 -38.0354
L11.2874 -37.7127
L11.1599 -37.386
L11.039 -37.0554
L10.9247 -36.7211
L10.817 -36.3832
L10.7159 -36.042
L10.6216 -35.6976
L10.5341 -35.3501
L10.4535 -34.9999
L10.3798 -34.6469
L10.3129 -34.2915
L10.2531 -33.9338
L10.2002 -33.5739
L10.1544 -33.2121
L10.1155 -32.8484
L10.0838 -32.4832
L10.0591 -32.1165
L10.0414 -31.7485
L10.0308 -31.3795
L10.0273 -31.0095
L10.0308 -30.6387
L10.0414 -30.2674
L10.0591 -29.8956
L10.0837 -29.5235
L10.1154 -29.1513
L10.1541 -28.7791
L10.1997 -28.4071
L10.2522 -28.0355
L10.3117 -27.6643
L10.378 -27.2938
L10.4512 -26.9241
L10.5311 -26.5553
L10.6178 -26.1875
L10.7113 -25.821
L10.8114 -25.4558
L10.9181 -25.0921
L11.0314 -24.73
L11.1512 -24.3696
L11.2775 -24.0111
L11.4102 -23.6545
L11.5493 -23.3001
L11.6948 -22.9479
L11.8464 -22.598
L12.0043 -22.2506
L12.1683 -21.9058
L12.3384 -21.5637
L12.5145 -21.2243
L12.6965 -20.8879
L12.8845 -20.5545
L13.0782 -20.2241
L13.2778 -19.897
L13.483 -19.5732
L13.6938 -19.2529
L13.9102 -18.936
L14.1321 -18.6228
L14.3595 -18.3133
L14.5921 -18.0075
L14.8301 -17.7057
L15.0732 -17.4078
L15.3215 -17.1141
L15.5748 -16.8245
L15.8331 -16.5391
L16.0963 -16.2581
L16.3644 -15.9815
L16.6371 -15.7095
L16.9146 -15.442
L17.1966 -15.1792
L17.4832 -14.9212
L17.7742 -14.668
L18.0695 -14.4197
L18.3691 -14.1765
L18.6728 -13.9384
L18.9806 -13.7054
L19.2924 -13.4776
L19.6081 -13.2552
L19.9276 -13.0382
L20.2509 -12.8266
L20.5777 -12.6206
L20.9081 -12.4203
L21.2419 -12.2256
L21.579 -12.0367
L21.9193 -11.8536
L22.2627 -11.6765
L22.6091 -11.5053
L22.9585 -11.3402
L23.3106 -11.1812
L23.6653 -11.0284
L24.0227 -10.8818
L24.3824 -10.7416
L24.7445 -10.6077
L25.1087 -10.4803
L25.475 -10.3594
L25.8433 -10.2451
L26.2133 -10.1373
L26.585 -10.0362
L26.9583 -9.9419
L27.3329 -9.85433
L27.7088 -9.77358
L28.0858 -9.6997
L28.4637 -9.63274
L28.8425 -9.57273
L29.2219 -9.51971
L29.6018 -9.47373
L29.982 -9.43481
L30.3625 -9.40298
L30.7429 -9.37828
L31.1232 -9.36071
L31.5032 -9.35031
L31.8827 -9.34709
L32.2615 -9.35106
L32.6395 -9.36223
L33.0165 -9.38061
L33.3923 -9.40619
L33.7667 -9.43898
L34.1396 -9.47895
L34.5107 -9.5261
L34.8799 -9.58042
L35.2471 -9.64187
L35.6119 -9.71043
L35.9742 -9.78607
L36.3339 -9.86875
L36.6908 -9.95843
L37.0446 -10.0551
L37.3952 -10.1586
L37.7424 -10.2689
L38.086 -10.3861
L38.4258 -10.5099
L38.7617 -10.6403
L39.0935 -10.7773
L39.4209 -10.9208
L39.7439 -11.0706
L40.0622 -11.2268
L40.3757 -11.389
L40.6843 -11.5574
L40.9877 -11.7317
L41.2857 -11.9118
L41.5784 -12.0977
L41.8654 -12.2892
L42.1468 -12.4861
L42.4222 -12.6883
L42.6917 -12.8958
L42.955 -13.1083
L43.2121 -13.3257
L43.4629 -13.5479
L43.7072 -13.7747
L43.9449 -14.006
L44.1761 -14.2416
L44.4005 -14.4813
L44.6181 -14.725
L44.8288 -14.9726
L45.0327 -15.2239
L45.2295 -15.4786
L45.4194 -15.7367
L45.6022 -15.9981
L45.7779 -16.2624
L45.9465 -16.5296
L46.1081 -16.7995
L46.2624 -17.072
L46.4097 -17.3469
L46.5499 -17.624
L46.6829 -17.9032
L46.8089 -18.1843
L46.9279 -18.4672
L47.0398 -18.7517
L47.1448 -19.0377
L47.2429 -19.325
L47.334 -19.6136
L47.4184 -19.9032
L47.496 -20.1938
L47.5669 -20.4851
L47.6313 -20.7771
L47.689 -21.0697
L47.7404 -21.3627
L47.7853 -21.656
L47.824 -21.9496
L47.8565 -22.2432
L47.8828 -22.5368
L47.9032 -22.8303
L47.9176 -23.1236
L47.9262 -23.4166
L47.9291 -23.7092
L47.9263 -24.0014
L47.918 -24.2929
L47.9044 -24.5839
L47.8853 -24.8741
L47.8611 -25.1635
L47.8318 -25.4521
L47.7974 -25.7398
L47.7581 -26.0264
L47.714 -26.3121
L47.6652 -26.5966
L47.6118 -26.88
L47.5539 -27.1622
L47.4915 -27.4432
L47.4248 -27.7228
L47.3539 -28.0011
L47.2788 -28.2781
L47.1997 -28.5537
L47.1167 -28.8278
L47.0298 -29.1004
L46.939 -29.3716
L46.8446 -29.6412
L46.7466 -29.9092
L46.645 -30.1757
L46.54 -30.4406
L46.4316 -30.7038
L46.3199 -30.9654
L46.2049 -31.2254
L46.0868 -31.4837
L45.9655 -31.7403
L45.8413 -31.9952
L45.7141 -32.2484
L45.5839 -32.4998
L45.4509 -32.7495
L45.3152 -32.9975
L45.1766 -33.2438
L45.0355 -33.4882
L44.8916 -33.7309
L44.7452 -33.9719
L44.5963 -34.2111
L44.4449 -34.4484
L44.2911 -34.684
L44.1348 -34.9179
L43.9762 -35.1499
L43.8153 -35.3801
L43.6521 -35.6086
L43.4867 -35.8352
L43.319 -36.06
L43.1492 -36.2831
L42.9772 -36.5043
L42.8031 -36.7237
L42.6269 -36.9413
L42.4487 -37.1571
L42.2684 -37.3711
L42.0861 -37.5832
L41.9018 -37.7935
L41.7155 -38.002
L41.5273 -38.2087
L41.3372 -38.4135
L41.1452 -38.6164
L40.9512 -38.8175
L40.7554 -39.0168
L40.5577 -39.2142
z
" id="C0_1_c438a18808"/>
    </defs>
    <g clip-path="url(#p1bffca34e9)">
     <use style="fill:#ff0000;stroke:#000000;stroke-width:2.0;" x="0.0" xlink:href="#C0_0_a811fe30f3" y="72.0"/>
    </g>
    <g clip-path="url(#p1bffca34e9)">
     <use style="fill:#ffffff;stroke:#000000;stroke-width:2.0;" x="0.0" xlink:href="#C0_1_c438a18808" y="72.0"/>
    </g>
   </g>
  </g>
 </g>
 <defs>
  <clipPath id="p1bffca34e9">
   <rect height="72.0" width="72.0" x="0.0" y="0.0"/>
  </clipPath>
 </defs>
</svg>
