<?xml version="1.0" encoding="utf-8" standalone="no"?>
<!DOCTYPE svg PUBLIC "-//W3C//DTD SVG 1.1//EN"
  "http://www.w3.org/Graphics/SVG/1.1/DTD/svg11.dtd">
<!-- Created with matplotlib (http://matplotlib.org/) -->
<svg height="72pt" version="1.1" viewBox="0 0 72 72" width="72pt" xmlns="http://www.w3.org/2000/svg" xmlns:xlink="http://www.w3.org/1999/xlink">
 <defs>
  <style type="text/css">
*{stroke-linecap:butt;stroke-linejoin:round;}
  </style>
 </defs>
 <g id="figure_1">
  <g id="patch_1">
   <path d="
M0 72
L72 72
L72 0
L0 0
z
" style="fill:none;"/>
  </g>
  <g id="axes_1">
   <g id="PatchCollection_1">
    <defs>
     <path d="
M36 -7.5
C43.5583 -7.5 50.808 -10.5029 56.1525 -15.8475
C61.4971 -21.192 64.5 -28.4417 64.5 -36
C64.5 -43.5583 61.4971 -50.808 56.1525 -56.1525
C50.808 -61.4971 43.5583 -64.5 36 -64.5
C28.4417 -64.5 21.192 -61.4971 15.8475 -56.1525
C10.5029 -50.808 7.5 -43.5583 7.5 -36
C7.5 -28.4417 10.5029 -21.192 15.8475 -15.8475
C21.192 -10.5029 28.4417 -7.5 36 -7.5
z
" id="C0_0_a811fe30f3"/>
     <path d="
M50.9833 -37.4919
L50.8456 -37.7276
L50.7057 -37.9622
L50.5637 -38.1957
L50.4195 -38.4281
L50.2732 -38.6594
L50.1246 -38.8898
L49.9738 -39.1191
L49.8208 -39.3475
L49.6655 -39.5749
L49.5079 -39.8014
L49.348 -40.027
L49.1858 -40.2517
L49.0211 -40.4755
L48.8541 -40.6985
L48.6847 -40.9205
L48.5128 -41.1418
L48.3384 -41.3622
L48.1614 -41.5818
L47.9819 -41.8005
L47.7998 -42.0184
L47.615 -42.2355
L47.4276 -42.4517
L47.2374 -42.6671
L47.0445 -42.8817
L46.8488 -43.0954
L46.6502 -43.3082
L46.4487 -43.5201
L46.2443 -43.7311
L46.0369 -43.9412
L45.8265 -44.1503
L45.613 -44.3584
L45.3964 -44.5655
L45.1766 -44.7715
L44.9537 -44.9764
L44.7275 -45.1801
L44.498 -45.3826
L44.2651 -45.5838
L44.0289 -45.7836
L43.7893 -45.9821
L43.5462 -46.1791
L43.2996 -46.3745
L43.0495 -46.5683
L42.7958 -46.7603
L42.5386 -46.9505
L42.2777 -47.1387
L42.0131 -47.3249
L41.7449 -47.5089
L41.473 -47.6906
L41.1973 -47.8698
L40.918 -48.0465
L40.6349 -48.2204
L40.3481 -48.3915
L40.0576 -48.5594
L39.7634 -48.7242
L39.4655 -48.8854
L39.164 -49.0431
L38.8588 -49.1969
L38.55 -49.3466
L38.2377 -49.4921
L37.9219 -49.633
L37.6027 -49.7692
L37.2802 -49.9003
L36.9544 -50.0261
L36.6255 -50.1463
L36.2937 -50.2607
L35.9589 -50.3689
L35.6214 -50.4706
L35.2813 -50.5655
L34.9388 -50.6533
L34.5941 -50.7336
L34.2474 -50.8062
L33.8988 -50.8707
L33.5487 -50.9267
L33.1973 -50.974
L32.8448 -51.0121
L32.4915 -51.0407
L32.1377 -51.0595
L31.7837 -51.0683
L31.4299 -51.0666
L31.0765 -51.0542
L30.7239 -51.0309
L30.3725 -50.9964
L30.0226 -50.9504
L29.6745 -50.8927
L29.3287 -50.8233
L28.9855 -50.742
L28.6453 -50.6487
L28.3084 -50.5434
L27.9752 -50.4261
L27.646 -50.2967
L27.3212 -50.1555
L27.0011 -50.0025
L26.686 -49.8379
L26.3762 -49.6619
L26.0719 -49.4749
L25.7735 -49.277
L25.4811 -49.0686
L25.195 -48.85
L24.9154 -48.6217
L24.6423 -48.384
L24.3761 -48.1374
L24.1167 -47.8823
L23.8643 -47.6191
L23.619 -47.3483
L23.3808 -47.0703
L23.1499 -46.7856
L22.9261 -46.4947
L22.7096 -46.1979
L22.5003 -45.8958
L22.2982 -45.5887
L22.1033 -45.2771
L21.9156 -44.9613
L21.7349 -44.6419
L21.5613 -44.319
L21.3946 -43.9932
L21.2349 -43.6647
L21.0819 -43.3339
L20.9356 -43.001
L20.796 -42.6664
L20.6628 -42.3304
L20.5361 -41.9933
L20.4157 -41.6552
L20.3015 -41.3164
L20.1934 -40.9772
L20.0912 -40.6376
L19.9949 -40.2981
L19.9043 -39.9586
L19.8194 -39.6194
L19.7399 -39.2807
L19.6659 -38.9425
L19.5971 -38.605
L19.5336 -38.2683
L19.475 -37.9326
L19.4215 -37.5979
L19.3728 -37.2643
L19.3288 -36.9319
L19.2895 -36.6008
L19.2547 -36.271
L19.2243 -35.9427
L19.1983 -35.6158
L19.1766 -35.2903
L19.159 -34.9665
L19.1455 -34.6441
L19.136 -34.3234
L19.1304 -34.0043
L19.1286 -33.6868
L19.1306 -33.371
L19.1363 -33.0569
L19.1456 -32.7443
L19.1585 -32.4335
L19.1749 -32.1243
L19.1947 -31.8168
L19.2178 -31.511
L19.2444 -31.2068
L19.2741 -30.9042
L19.3071 -30.6032
L19.3433 -30.3039
L19.3827 -30.0061
L19.4251 -29.7099
L19.4706 -29.4153
L19.5191 -29.1222
L19.5706 -28.8306
L19.6251 -28.5404
L19.6826 -28.2518
L19.743 -27.9646
L19.8063 -27.6787
L19.8725 -27.3943
L19.9415 -27.1112
L20.0135 -26.8295
L20.0883 -26.5491
L20.1659 -26.2699
L20.2464 -25.992
L20.3297 -25.7154
L20.4159 -25.4399
L20.5049 -25.1657
L20.5968 -24.8925
L20.6916 -24.6206
L20.7892 -24.3497
L20.8898 -24.0799
L20.9932 -23.8112
L21.0996 -23.5435
L21.2089 -23.2769
L21.3212 -23.0112
L21.4365 -22.7466
L21.5548 -22.4829
L21.6761 -22.2202
L21.8006 -21.9584
L21.9281 -21.6976
L22.0589 -21.4377
L22.1928 -21.1787
L22.33 -20.9206
L22.4704 -20.6635
L22.6142 -20.4072
L22.7613 -20.1518
L22.9119 -19.8974
L23.066 -19.6438
L23.2236 -19.3912
L23.3848 -19.1395
L23.5497 -18.8887
L23.7182 -18.6389
L23.8906 -18.39
L24.0668 -18.1422
L24.2469 -17.8954
L24.431 -17.6496
L24.6192 -17.4049
L24.8115 -17.1614
L25.008 -16.919
L25.2088 -16.6778
L25.4139 -16.4379
L25.6235 -16.1993
L25.8376 -15.9621
L26.0563 -15.7264
L26.2797 -15.4922
L26.5079 -15.2595
L26.7409 -15.0286
L26.9789 -14.7994
L27.2219 -14.5722
L27.47 -14.3469
L27.7233 -14.1237
L27.9818 -13.9027
L28.2458 -13.6841
L28.5151 -13.4679
L28.79 -13.2544
L29.0705 -13.0436
L29.3566 -12.8358
L29.6484 -12.6312
L29.9461 -12.4298
L30.2496 -12.2319
L30.559 -12.0377
L30.8744 -11.8475
L31.1958 -11.6613
L31.5232 -11.4795
L31.8567 -11.3024
L32.1962 -11.1301
L32.5418 -10.9629
L32.8935 -10.8012
L33.2512 -10.6451
L33.6149 -10.4951
L33.9845 -10.3513
L34.36 -10.2142
L34.7413 -10.084
L35.1283 -9.96114
L35.5208 -9.84587
L35.9187 -9.73857
L36.3219 -9.63961
L36.73 -9.54932
L37.143 -9.46809
L37.5605 -9.39627
L37.9822 -9.33423
L38.4079 -9.28231
L38.8371 -9.24089
L39.2696 -9.21029
L39.7048 -9.19087
L40.1424 -9.18294
L40.5819 -9.18681
L41.0228 -9.20277
L41.4645 -9.23107
L41.9065 -9.27196
L42.3482 -9.32564
L42.789 -9.39229
L43.2282 -9.47204
L43.6652 -9.56499
L44.0994 -9.67119
L44.53 -9.79065
L44.9564 -9.92333
L45.3779 -10.0691
L45.794 -10.228
L46.2038 -10.3996
L46.6069 -10.5838
L47.0025 -10.7803
L47.3902 -10.9888
L47.7694 -11.2089
L48.1397 -11.4401
L48.5005 -11.6822
L48.8514 -11.9345
L49.1922 -12.1966
L49.5226 -12.468
L49.8421 -12.7481
L50.1507 -13.0364
L50.4482 -13.3324
L50.7345 -13.6355
L51.0094 -13.945
L51.273 -14.2606
L51.5253 -14.5817
L51.7663 -14.9077
L51.9961 -15.2381
L52.2148 -15.5724
L52.4226 -15.9102
L52.6195 -16.2511
L52.8057 -16.5945
L52.9815 -16.94
L53.1471 -17.2873
L53.3026 -17.636
L53.4483 -17.9858
L53.5844 -18.3363
L53.7113 -18.6872
L53.829 -19.0382
L53.9379 -19.3891
L54.0382 -19.7396
L54.1302 -20.0895
L54.2141 -20.4386
L54.2901 -20.7867
L54.3586 -21.1335
L54.4197 -21.4791
L54.4737 -21.8231
L54.5207 -22.1655
L54.5612 -22.5061
L54.5952 -22.8449
L54.6229 -23.1818
L54.6447 -23.5166
L54.6606 -23.8493
L54.671 -24.1798
L54.6759 -24.5081
L54.6756 -24.8341
L54.6702 -25.1578
L54.6599 -25.4791
L54.6449 -25.7981
L54.6253 -26.1146
L54.6013 -26.4288
L54.5731 -26.7406
L54.5407 -27.0499
L54.5043 -27.3569
L54.4641 -27.6614
L54.4201 -27.9635
L54.3725 -28.2633
L54.3213 -28.5607
L54.2668 -28.8557
L54.2089 -29.1484
L54.1479 -29.4389
L54.0836 -29.727
L54.0164 -30.0129
L53.9462 -30.2966
L53.8731 -30.5781
L53.7972 -30.8575
L53.7185 -31.1348
L53.6372 -31.41
L53.5532 -31.6831
L53.4667 -31.9543
L53.3777 -32.2235
L53.2862 -32.4908
L53.1922 -32.7561
L53.0959 -33.0197
L52.9972 -33.2814
L52.8963 -33.5414
L52.793 -33.7996
L52.6875 -34.0562
L52.5798 -34.3111
L52.4698 -34.5644
L52.3577 -34.8161
L52.2434 -35.0663
L52.127 -35.315
L52.0084 -35.5622
L51.8877 -35.8081
L51.7648 -36.0525
L51.6399 -36.2956
L51.5128 -36.5373
L51.3836 -36.7778
L51.2523 -37.0171
z
" id="C0_1_1f76c73377"/>
    </defs>
    <g clip-path="url(#p1bffca34e9)">
     <use style="fill:#ffffff;stroke:#000000;stroke-width:2.0;" x="0.0" xlink:href="#C0_0_a811fe30f3" y="72.0"/>
    </g>
    <g clip-path="url(#p1bffca34e9)">
     <use style="fill:#ff0000;stroke:#000000;stroke-width:2.0;" x="0.0" xlink:href="#C0_1_1f76c73377" y="72.0"/>
    </g>
   </g>
  </g>
 </g>
 <defs>
  <clipPath id="p1bffca34e9">
   <rect height="72.0" width="72.0" x="0.0" y="0.0"/>
  </clipPath>
 </defs>
</svg>
