<?xml version="1.0" encoding="utf-8" standalone="no"?>
<!DOCTYPE svg PUBLIC "-//W3C//DTD SVG 1.1//EN"
  "http://www.w3.org/Graphics/SVG/1.1/DTD/svg11.dtd">
<!-- Created with matplotlib (http://matplotlib.org/) -->
<svg height="72pt" version="1.1" viewBox="0 0 72 72" width="72pt" xmlns="http://www.w3.org/2000/svg" xmlns:xlink="http://www.w3.org/1999/xlink">
 <defs>
  <style type="text/css">
*{stroke-linecap:butt;stroke-linejoin:round;}
  </style>
 </defs>
 <g id="figure_1">
  <g id="patch_1">
   <path d="
M0 72
L72 72
L72 0
L0 0
z
" style="fill:none;"/>
  </g>
  <g id="axes_1">
   <g id="PatchCollection_1">
    <defs>
     <path d="
M36 -7.5
C43.5583 -7.5 50.808 -10.5029 56.1525 -15.8475
C61.4971 -21.192 64.5 -28.4417 64.5 -36
C64.5 -43.5583 61.4971 -50.808 56.1525 -56.1525
C50.808 -61.4971 43.5583 -64.5 36 -64.5
C28.4417 -64.5 21.192 -61.4971 15.8475 -56.1525
C10.5029 -50.808 7.5 -43.5583 7.5 -36
C7.5 -28.4417 10.5029 -21.192 15.8475 -15.8475
C21.192 -10.5029 28.4417 -7.5 36 -7.5
z
" id="C0_0_a811fe30f3"/>
     <path d="
M45.8443 -9.45092
L45.5214 -9.62081
L45.1902 -9.79221
L44.8529 -9.96577
L44.5113 -10.1419
L44.1672 -10.321
L43.8216 -10.5033
L43.4759 -10.6888
L43.1308 -10.8776
L42.7872 -11.0697
L42.4456 -11.2649
L42.1067 -11.4633
L41.7708 -11.6647
L41.4383 -11.869
L41.1096 -12.0759
L40.7848 -12.2853
L40.4642 -12.4971
L40.1479 -12.711
L39.8361 -12.927
L39.5288 -13.1447
L39.2262 -13.3641
L38.9282 -13.585
L38.635 -13.8072
L38.3464 -14.0305
L38.0625 -14.2549
L37.7833 -14.4802
L37.5088 -14.7062
L37.2388 -14.9329
L36.9735 -15.1601
L36.7126 -15.3877
L36.4562 -15.6156
L36.2041 -15.8437
L35.9564 -16.072
L35.7129 -16.3003
L35.4735 -16.5287
L35.2382 -16.7569
L35.0069 -16.9851
L34.7795 -17.213
L34.556 -17.4408
L34.3361 -17.6683
L34.1199 -17.8955
L33.9073 -18.1224
L33.6981 -18.349
L33.4923 -18.5752
L33.2898 -18.801
L33.0905 -19.0265
L32.8944 -19.2516
L32.7013 -19.4763
L32.5111 -19.7006
L32.3239 -19.9245
L32.1395 -20.1481
L31.9578 -20.3713
L31.7787 -20.5942
L31.6022 -20.8167
L31.4283 -21.0389
L31.2568 -21.2609
L31.0876 -21.4825
L30.9207 -21.704
L30.7561 -21.9252
L30.5936 -22.1462
L30.4333 -22.367
L30.2749 -22.5878
L30.1186 -22.8084
L29.9641 -23.029
L29.8116 -23.2496
L29.6608 -23.4701
L29.5118 -23.6908
L29.3645 -23.9115
L29.2188 -24.1323
L29.0748 -24.3534
L28.9323 -24.5746
L28.7913 -24.7961
L28.6517 -25.0179
L28.5136 -25.2401
L28.3769 -25.4627
L28.2414 -25.6857
L28.1073 -25.9093
L27.9744 -26.1333
L27.8427 -26.358
L27.5829 -26.5833
L27.4547 -26.8093
L27.3275 -27.0361
L27.2014 -27.2637
L27.0763 -27.4922
L26.9522 -27.7215
L26.8291 -27.9519
L26.7069 -28.1833
L26.5856 -28.4158
L26.4652 -28.6494
L26.3457 -28.8843
L26.227 -29.1204
L26.1091 -29.3579
L25.9921 -29.5967
L25.8758 -29.8371
L25.7604 -30.079
L25.6457 -30.3224
L25.5317 -30.5675
L25.4185 -30.8144
L25.306 -31.0631
L25.1943 -31.3136
L25.0832 -31.566
L24.9729 -31.8205
L24.8633 -32.0771
L24.7544 -32.3358
L24.6463 -32.5967
L24.5388 -32.8599
L24.4321 -33.1255
L24.3261 -33.3936
L24.2208 -33.6641
L24.1163 -33.9373
L24.0125 -34.2131
L23.9095 -34.4917
L23.8073 -34.7731
L23.706 -35.0575
L23.6054 -35.3448
L23.5058 -35.6351
L23.407 -35.9286
L23.3092 -36.2252
L23.2123 -36.5252
L23.1164 -36.8285
L23.0216 -37.1352
L22.9279 -37.4453
L22.8353 -37.7591
L22.7438 -38.0764
L22.6536 -38.3974
L22.5647 -38.7221
L22.4772 -39.0506
L22.391 -39.3829
L22.3064 -39.7191
L22.2233 -40.0592
L22.1418 -40.4032
L22.0621 -40.7512
L21.9841 -41.1031
L21.908 -41.4591
L21.8338 -41.819
L21.7617 -42.1829
L21.6916 -42.5507
L21.6238 -42.9225
L21.5582 -43.2981
L21.495 -43.6776
L21.4343 -44.0607
L21.376 -44.4475
L21.3203 -44.8377
L21.2673 -45.2314
L21.2169 -45.6282
L21.1693 -46.028
L21.1243 -46.4307
L21.0821 -46.8358
L21.0425 -47.2433
L21.0055 -47.6526
L20.9709 -48.0635
L20.9387 -48.4755
L20.9085 -48.8882
L20.88 -49.3009
L20.8528 -49.7131
L20.8263 -50.1241
L20.7999 -50.5329
L20.7727 -50.9387
L20.7436 -51.3403
L20.7113 -51.7365
L20.6741 -52.1257
L20.63 -52.5062
L20.5767 -52.8759
L20.5114 -53.2326
L20.4308 -53.5734
L20.3315 -53.8955
L20.2098 -54.1956
L20.0623 -54.4703
L19.8859 -54.7162
L19.6785 -54.9304
L19.439 -55.1106
L19.1677 -55.2553
L18.8661 -55.3641
L18.5369 -55.4376
L18.183 -55.477
L17.8081 -55.4844
L17.4155 -55.4619
L17.0086 -55.4116
L16.5904 -55.3359
L16.1636 -55.2366
L15.7305 -55.1156
L15.2932 -54.9745
L14.8535 -54.8146
L14.413 -54.6372
L14.0117 -54.4433
L13.6986 -54.1319
L13.3923 -53.7454
L13.0929 -53.3535
L12.8005 -52.9563
L12.5151 -52.5539
L12.2369 -52.1465
L11.9659 -51.7342
L11.7022 -51.3171
L11.446 -50.8953
L11.1972 -50.4689
L10.956 -50.0382
L10.7224 -49.6032
L10.4965 -49.1641
L10.2784 -48.7209
L10.0681 -48.2739
L9.86569 -47.8231
L9.67126 -47.3687
L9.48485 -46.9109
L9.30651 -46.4497
L9.13631 -45.9854
L8.97429 -45.518
L8.8205 -45.0477
L8.67499 -44.5747
L8.53781 -44.099
L8.40899 -43.6209
L8.28857 -43.1404
L8.1766 -42.6578
L8.0731 -42.1732
L7.9781 -41.6867
L7.89165 -41.1984
L7.81375 -40.7086
L7.74444 -40.2173
L7.68374 -39.7247
L7.63167 -39.231
L7.58823 -38.7363
L7.55345 -38.2408
L7.52733 -37.7446
L7.50989 -37.2479
L7.50113 -36.7508
L7.50104 -36.2535
L7.50964 -35.7561
L7.52692 -35.2587
L7.55287 -34.7616
L7.58748 -34.2649
L7.63075 -33.7687
L7.68266 -33.2731
L7.7432 -32.7784
L7.81234 -32.2847
L7.89007 -31.7921
L7.97637 -31.3008
L8.0712 -30.811
L8.17453 -30.3227
L8.28635 -29.8361
L8.4066 -29.3514
L8.53526 -28.8688
L8.67228 -28.3883
L8.81763 -27.9101
L8.97126 -27.4344
L9.13313 -26.9613
L9.30317 -26.491
L9.48135 -26.0236
L9.66761 -25.5591
L9.86189 -25.0979
L10.0641 -24.64
L10.2743 -24.1856
L10.4922 -23.7347
L10.718 -23.2876
L10.9514 -22.8444
L11.1925 -22.4052
L11.4412 -21.9701
L11.6973 -21.5393
L11.9608 -21.1129
L12.2316 -20.691
L12.5097 -20.2738
L12.7949 -19.8613
L13.0872 -19.4538
L13.3865 -19.0514
L13.6927 -18.6541
L14.0057 -18.2621
L14.3253 -17.8754
L14.6516 -17.4944
L14.9844 -17.1189
L15.3236 -16.7492
L15.669 -16.3854
L16.0207 -16.0275
L16.3784 -15.6757
L16.7422 -15.3301
L17.1118 -14.9908
L17.4871 -14.6579
L17.8681 -14.3315
L18.2546 -14.0117
L18.6465 -13.6986
L19.0437 -13.3923
L19.4461 -13.0929
L19.8535 -12.8005
L20.2658 -12.5151
L20.6829 -12.2369
L21.1047 -11.9659
L21.5311 -11.7022
L21.9618 -11.446
L22.3968 -11.1972
L22.8359 -10.956
L23.2791 -10.7224
L23.7261 -10.4965
L24.1769 -10.2784
L24.6313 -10.0681
L25.0891 -9.86569
L25.5503 -9.67126
L26.0146 -9.48485
L26.482 -9.30651
L26.9523 -9.13631
L27.4253 -8.97429
L27.901 -8.8205
L28.3791 -8.67499
L28.8596 -8.53781
L29.3422 -8.40899
L29.8268 -8.28857
L30.3133 -8.1766
L30.8016 -8.0731
L31.2914 -7.9781
L31.7827 -7.89165
L32.2753 -7.81375
L32.769 -7.74444
L33.2637 -7.68374
L33.7592 -7.63167
L34.2554 -7.58823
L34.7521 -7.55345
L35.2492 -7.52733
L35.7465 -7.50989
L36.2439 -7.50113
L36.7413 -7.50104
L37.2384 -7.50964
L37.7351 -7.52692
L38.2313 -7.55287
L38.7269 -7.58748
L39.2216 -7.63075
L39.7153 -7.68266
L40.2079 -7.7432
L40.6992 -7.81234
L41.189 -7.89007
L41.6773 -7.97637
L42.1639 -8.0712
L42.6486 -8.17453
L43.1312 -8.28635
L43.6117 -8.4066
L44.0899 -8.53526
L44.5656 -8.67228
L45.0387 -8.81763
z
" id="C0_1_1c94191cb8"/>
     <path d="
M57.8807 -17.8873
L58.0055 -18.3588
L58.1234 -18.8316
L58.2339 -19.3046
L58.3368 -19.7772
L58.4317 -20.2487
L58.5185 -20.7186
L58.5972 -21.1863
L58.6679 -21.6514
L58.7304 -22.1136
L58.7851 -22.5723
L58.8319 -23.0275
L58.8712 -23.4787
L58.903 -23.9257
L58.9275 -24.3685
L58.9451 -24.8067
L58.9558 -25.2402
L58.96 -25.669
L58.9578 -26.0929
L58.9495 -26.5119
L58.9353 -26.9259
L58.9155 -27.3348
L58.8902 -27.7387
L58.8597 -28.1375
L58.8242 -28.5313
L58.7839 -28.92
L58.739 -29.3037
L58.6897 -29.6824
L58.6361 -30.0562
L58.5785 -30.425
L58.5171 -30.7891
L58.4519 -31.1483
L58.3831 -31.5029
L58.3109 -31.8528
L58.2354 -32.1982
L58.1568 -32.5391
L58.0752 -32.8756
L57.9907 -33.2078
L57.9033 -33.5358
L57.8133 -33.8597
L57.7207 -34.1795
L57.6257 -34.4953
L57.5282 -34.8074
L57.4284 -35.1156
L57.3263 -35.4201
L57.2221 -35.7211
L57.1157 -36.0186
L57.0073 -36.3127
L56.8969 -36.6035
L56.7846 -36.891
L56.6703 -37.1754
L56.5542 -37.4568
L56.4363 -37.7352
L56.3165 -38.0108
L56.195 -38.2835
L56.0718 -38.5536
L55.9469 -38.821
L55.8202 -39.0859
L55.6919 -39.3483
L55.5619 -39.6084
L55.4303 -39.8661
L55.297 -40.1217
L55.1621 -40.375
L55.0255 -40.6263
L54.8873 -40.8756
L54.7474 -41.123
L54.6059 -41.3684
L54.4626 -41.6121
L54.3178 -41.854
L54.1712 -42.0943
L54.0228 -42.3329
L53.8728 -42.57
L53.721 -42.8057
L53.5674 -43.0398
L53.412 -43.2727
L53.2548 -43.5042
L53.0956 -43.7344
L52.9346 -43.9634
L52.7717 -44.1913
L52.6068 -44.4181
L52.4398 -44.6438
L52.2708 -44.8685
L52.0997 -45.0923
L51.9265 -45.3151
L51.7511 -45.5371
L51.5734 -45.7582
L51.3934 -45.9785
L51.2111 -46.1981
L51.0263 -46.417
L50.8391 -46.6352
L50.6494 -46.8527
L50.4571 -47.0696
L50.2621 -47.286
L50.0644 -47.5017
L49.8639 -47.717
L49.6605 -47.9317
L49.4542 -48.1459
L49.2449 -48.3597
L49.0325 -48.573
L48.817 -48.7859
L48.5982 -48.9983
L48.376 -49.2104
L48.1504 -49.422
L47.9213 -49.6333
L47.6886 -49.8441
L47.4523 -50.0545
L47.2121 -50.2645
L46.9681 -50.4742
L46.7201 -50.6833
L46.468 -50.8921
L46.2117 -51.1003
L45.9512 -51.3081
L45.6863 -51.5153
L45.4169 -51.722
L45.1429 -51.9282
L44.8643 -52.1336
L44.5809 -52.3384
L44.2926 -52.5425
L43.9993 -52.7457
L43.701 -52.9482
L43.3974 -53.1496
L43.0886 -53.3501
L42.7744 -53.5494
L42.4548 -53.7476
L42.1296 -53.9445
L41.7988 -54.14
L41.4623 -54.334
L41.12 -54.5264
L40.7719 -54.7171
L40.4179 -54.9059
L40.058 -55.0926
L39.6921 -55.2772
L39.3203 -55.4595
L38.9425 -55.6393
L38.5587 -55.8165
L38.1691 -55.9909
L37.7735 -56.1624
L37.3721 -56.3307
L36.965 -56.4956
L36.5523 -56.6571
L36.1342 -56.815
L35.7108 -56.969
L35.2824 -57.1191
L34.8493 -57.2651
L34.4118 -57.4069
L33.9703 -57.5443
L33.5252 -57.6774
L33.0771 -57.8061
L32.6265 -57.9304
L32.1743 -58.0504
L31.7212 -58.1663
L31.2682 -58.2782
L30.8164 -58.3867
L30.3672 -58.4922
L29.9222 -58.5954
L29.4833 -58.6971
L29.0525 -58.7986
L28.6324 -58.9012
L28.2259 -59.0066
L27.8365 -59.117
L27.4677 -59.2348
L27.1237 -59.3625
L26.8087 -59.5031
L26.5267 -59.6593
L26.2814 -59.8335
L26.0754 -60.0276
L25.9104 -60.2424
L25.7866 -60.4781
L25.7029 -60.7336
L25.6574 -61.0071
L25.6473 -61.2965
L25.6699 -61.5991
L25.7219 -61.9125
L25.8006 -62.2342
L26.34 -62.5621
L26.8095 -62.813
L27.2817 -62.9775
L27.7566 -63.1338
L28.2339 -63.2818
L28.7137 -63.4215
L29.1957 -63.5529
L29.6797 -63.6758
L30.1657 -63.7904
L30.6534 -63.8964
L31.1428 -63.994
L31.6337 -64.0831
L32.1259 -64.1635
L32.6192 -64.2355
L33.1136 -64.2988
L33.6089 -64.3535
L34.1049 -64.3995
L34.6015 -64.4369
L35.0985 -64.4657
L35.5958 -64.4857
L36.0932 -64.4971
L36.5906 -64.4998
L37.0877 -64.4939
L37.5846 -64.4792
L38.081 -64.4559
L38.5767 -64.4239
L39.0717 -64.3833
L39.5657 -64.334
L40.0587 -64.2761
L40.5504 -64.2095
L41.0407 -64.1344
L41.5295 -64.0507
L42.0166 -63.9584
L42.5019 -63.8577
L42.9851 -63.7484
L43.4663 -63.6307
L43.9452 -63.5046
L44.4217 -63.3701
L44.8956 -63.2273
L45.3667 -63.0762
L45.8351 -62.9168
L46.3004 -62.7492
L46.7626 -62.5735
L47.2215 -62.3897
L47.6771 -62.1978
L48.129 -61.998
L48.5773 -61.7903
L49.0217 -61.5746
L49.4621 -61.3512
L49.8985 -61.1201
L50.3306 -60.8814
L50.7584 -60.635
L51.1816 -60.3811
L51.6003 -60.1199
L52.0142 -59.8512
L52.4232 -59.5753
L52.8272 -59.2923
L53.226 -59.0021
L53.6197 -58.7049
L54.0079 -58.4008
L54.3907 -58.0899
L54.7679 -57.7723
L55.1394 -57.448
L55.505 -57.1172
L55.8647 -56.7799
L56.2183 -56.4363
L56.5658 -56.0866
L56.907 -55.7306
L57.2419 -55.3687
L57.5702 -55.0009
L57.892 -54.6273
L58.2072 -54.248
L58.5156 -53.8631
L58.8171 -53.4728
L59.1116 -53.0772
L59.3992 -52.6764
L59.6795 -52.2705
L59.9527 -51.8597
L60.2186 -51.444
L60.4771 -51.0236
L60.7282 -50.5986
L60.9717 -50.1692
L61.2076 -49.7355
L61.4359 -49.2976
L61.6563 -48.8556
L61.869 -48.4098
L62.0738 -47.9601
L62.2707 -47.5068
L62.4595 -47.05
L62.6403 -46.5898
L62.813 -46.1264
L62.9775 -45.66
L63.1338 -45.1905
L63.2818 -44.7183
L63.4215 -44.2434
L63.5529 -43.7661
L63.6758 -43.2863
L63.7904 -42.8043
L63.8964 -42.3203
L63.994 -41.8343
L64.0831 -41.3466
L64.1635 -40.8572
L64.2355 -40.3663
L64.2988 -39.8741
L64.3535 -39.3808
L64.3995 -38.8864
L64.4369 -38.3911
L64.4657 -37.8951
L64.4857 -37.3985
L64.4971 -36.9015
L64.4998 -36.4042
L64.4939 -35.9068
L64.4792 -35.4094
L64.4559 -34.9123
L64.4239 -34.4154
L64.3833 -33.919
L64.334 -33.4233
L64.2761 -32.9283
L64.2095 -32.4343
L64.1344 -31.9413
L64.0507 -31.4496
L63.9584 -30.9593
L63.8577 -30.4705
L63.7484 -29.9834
L63.6307 -29.4981
L63.5046 -29.0149
L63.3701 -28.5337
L63.2273 -28.0548
L63.0762 -27.5783
L62.9168 -27.1044
L62.7492 -26.6333
L62.5735 -26.1649
L62.3897 -25.6996
L62.1978 -25.2374
L61.998 -24.7785
L61.7903 -24.3229
L61.5746 -23.871
L61.3512 -23.4227
L61.1201 -22.9783
L60.8814 -22.5379
L60.635 -22.1015
L60.3811 -21.6694
L60.1199 -21.2416
L59.8512 -20.8184
L59.5753 -20.3997
L59.2923 -19.9858
L59.0021 -19.5768
L58.7049 -19.1728
L58.4008 -18.774
z
" id="C0_2_3c4bf6cba3"/>
    </defs>
    <g clip-path="url(#p1bffca34e9)">
     <use style="fill:#ff0000;stroke:#000000;stroke-width:2.0;" x="0.0" xlink:href="#C0_0_a811fe30f3" y="72.0"/>
    </g>
    <g clip-path="url(#p1bffca34e9)">
     <use style="fill:#ffffff;stroke:#000000;stroke-width:2.0;" x="0.0" xlink:href="#C0_1_1c94191cb8" y="72.0"/>
    </g>
    <g clip-path="url(#p1bffca34e9)">
     <use style="fill:#ffffff;stroke:#000000;stroke-width:2.0;" x="0.0" xlink:href="#C0_2_3c4bf6cba3" y="72.0"/>
    </g>
   </g>
  </g>
 </g>
 <defs>
  <clipPath id="p1bffca34e9">
   <rect height="72.0" width="72.0" x="0.0" y="0.0"/>
  </clipPath>
 </defs>
</svg>
