<?xml version="1.0" encoding="utf-8" standalone="no"?>
<!DOCTYPE svg PUBLIC "-//W3C//DTD SVG 1.1//EN"
  "http://www.w3.org/Graphics/SVG/1.1/DTD/svg11.dtd">
<!-- Created with matplotlib (http://matplotlib.org/) -->
<svg height="72pt" version="1.1" viewBox="0 0 72 72" width="72pt" xmlns="http://www.w3.org/2000/svg" xmlns:xlink="http://www.w3.org/1999/xlink">
 <defs>
  <style type="text/css">
*{stroke-linecap:butt;stroke-linejoin:round;}
  </style>
 </defs>
 <g id="figure_1">
  <g id="patch_1">
   <path d="
M0 72
L72 72
L72 0
L0 0
z
" style="fill:none;"/>
  </g>
  <g id="axes_1">
   <g id="PatchCollection_1">
    <defs>
     <path d="
M36 -7.5
C43.5583 -7.5 50.808 -10.5029 56.1525 -15.8475
C61.4971 -21.192 64.5 -28.4417 64.5 -36
C64.5 -43.5583 61.4971 -50.808 56.1525 -56.1525
C50.808 -61.4971 43.5583 -64.5 36 -64.5
C28.4417 -64.5 21.192 -61.4971 15.8475 -56.1525
C10.5029 -50.808 7.5 -43.5583 7.5 -36
C7.5 -28.4417 10.5029 -21.192 15.8475 -15.8475
C21.192 -10.5029 28.4417 -7.5 36 -7.5
z
" id="C0_0_a811fe30f3"/>
     <path d="
M32.7754 -7.89974
L33.0969 -8.11479
L33.4059 -8.3426
L33.7033 -8.5816
L33.9899 -8.83042
L34.2664 -9.08783
L34.5333 -9.35278
L34.7911 -9.62431
L35.0405 -9.90159
L35.2817 -10.1839
L35.5152 -10.4705
L35.7414 -10.7608
L35.9604 -11.0544
L36.1727 -11.3507
L36.3785 -11.6492
L36.578 -11.9495
L36.7715 -12.2514
L36.9593 -12.5544
L37.1414 -12.8583
L37.3181 -13.1627
L37.4896 -13.4675
L37.6561 -13.7723
L37.8177 -14.077
L37.9746 -14.3814
L38.127 -14.6853
L38.275 -14.9886
L38.4187 -15.2911
L38.5584 -15.5927
L38.694 -15.8932
L38.8259 -16.1927
L38.954 -16.4909
L39.0786 -16.7879
L39.1997 -17.0836
L39.3174 -17.3778
L39.4319 -17.6706
L39.5432 -17.9619
L39.6515 -18.2517
L39.7569 -18.54
L39.8595 -18.8267
L39.9593 -19.1118
L40.0564 -19.3954
L40.151 -19.6775
L40.243 -19.9579
L40.3327 -20.2369
L40.42 -20.5143
L40.5051 -20.7901
L40.588 -21.0645
L40.6688 -21.3374
L40.7475 -21.6089
L40.8242 -21.879
L40.899 -22.1477
L40.972 -22.415
L41.0431 -22.6811
L41.1125 -22.9459
L41.1801 -23.2095
L41.2462 -23.4719
L41.3106 -23.7331
L41.3734 -23.9933
L41.4348 -24.2524
L41.4947 -24.5106
L41.5531 -24.7678
L41.6101 -25.0241
L41.6658 -25.2796
L41.7202 -25.5343
L41.7733 -25.7882
L41.8251 -26.0415
L41.8758 -26.2942
L41.9252 -26.5462
L41.9734 -26.7978
L42.0206 -27.0489
L42.0666 -27.2996
L42.1115 -27.5499
L42.1553 -27.8
L42.1982 -28.0498
L42.2399 -28.2994
L42.2807 -28.5489
L42.3205 -28.7984
L42.3593 -29.0478
L42.3972 -29.2974
L42.4341 -29.547
L42.5052 -29.7968
L42.5393 -30.0468
L42.5726 -30.2971
L42.605 -30.5478
L42.6364 -30.7989
L42.6671 -31.0505
L42.6968 -31.3027
L42.7257 -31.5554
L42.7537 -31.8088
L42.7808 -32.0629
L42.8071 -32.3179
L42.8325 -32.5736
L42.8571 -32.8304
L42.8808 -33.088
L42.9036 -33.3468
L42.9256 -33.6066
L42.9466 -33.8677
L42.9668 -34.13
L42.986 -34.3936
L43.0044 -34.6585
L43.0218 -34.925
L43.0383 -35.1929
L43.0538 -35.4624
L43.0684 -35.7336
L43.082 -36.0065
L43.0946 -36.2811
L43.1061 -36.5576
L43.1166 -36.836
L43.126 -37.1164
L43.1344 -37.3989
L43.1416 -37.6835
L43.1476 -37.9702
L43.1524 -38.2592
L43.156 -38.5505
L43.1584 -38.8442
L43.1595 -39.1403
L43.1592 -39.4389
L43.1575 -39.7401
L43.1544 -40.0439
L43.1498 -40.3503
L43.1437 -40.6595
L43.136 -40.9714
L43.1266 -41.2862
L43.1156 -41.6039
L43.1028 -41.9244
L43.0881 -42.2479
L43.0716 -42.5744
L43.0531 -42.9039
L43.0325 -43.2364
L43.0098 -43.572
L42.9849 -43.9107
L42.9577 -44.2524
L42.928 -44.5972
L42.8959 -44.9451
L42.8612 -45.2959
L42.8238 -45.6498
L42.7835 -46.0067
L42.7403 -46.3665
L42.6941 -46.7291
L42.6446 -47.0945
L42.5918 -47.4626
L42.5356 -47.8332
L42.4757 -48.2063
L42.412 -48.5817
L42.3444 -48.9593
L42.2726 -49.3388
L42.1965 -49.72
L42.1158 -50.1028
L42.0303 -50.4867
L41.9398 -50.8717
L41.844 -51.2572
L41.7426 -51.643
L41.6353 -52.0286
L41.5217 -52.4135
L41.4013 -52.7973
L41.2739 -53.1793
L41.1387 -53.559
L40.9953 -53.9354
L40.8429 -54.3078
L40.6808 -54.6753
L40.508 -55.0366
L40.3235 -55.3906
L40.1262 -55.7357
L39.9146 -56.0704
L39.6874 -56.3927
L39.443 -56.7006
L39.1797 -56.9918
L38.8962 -57.2638
L38.5911 -57.5141
L38.2635 -57.7405
L37.9133 -57.9407
L37.5407 -58.1131
L37.1468 -58.2567
L36.7334 -58.3711
L36.3025 -58.4567
L35.8568 -58.5145
L35.3987 -58.5458
L34.9308 -58.5522
L34.4554 -58.5355
L33.9746 -58.4973
L33.4905 -58.4394
L33.0046 -58.3634
L32.5186 -58.2705
L32.0336 -58.1622
L31.5507 -58.0396
L31.0711 -57.9038
L30.5953 -57.7557
L30.1242 -57.5962
L29.6584 -57.4261
L29.1984 -57.2463
L28.7445 -57.0573
L28.2973 -56.8598
L27.857 -56.6544
L27.4238 -56.4417
L26.998 -56.2222
L26.5797 -55.9964
L26.1691 -55.7648
L25.7663 -55.5278
L25.3714 -55.2858
L24.9843 -55.0392
L24.6051 -54.7884
L24.2338 -54.5338
L23.8704 -54.2756
L23.5149 -54.0142
L23.1671 -53.7499
L22.827 -53.483
L22.4946 -53.2136
L22.1698 -52.9421
L21.8524 -52.6686
L21.5423 -52.3935
L21.2395 -52.1167
L20.9438 -51.8387
L20.6551 -51.5594
L20.3732 -51.2791
L20.0981 -50.998
L19.8297 -50.716
L19.5677 -50.4335
L19.312 -50.1503
L19.0626 -49.8668
L18.8193 -49.5829
L18.582 -49.2988
L18.3504 -49.0144
L18.1246 -48.7299
L17.9044 -48.4454
L17.6896 -48.1608
L17.4801 -47.8763
L17.2759 -47.5917
L17.0767 -47.3073
L16.8825 -47.023
L16.6932 -46.7388
L16.5087 -46.4547
L16.3288 -46.1708
L16.1534 -45.887
L15.9825 -45.6034
L15.8159 -45.3199
L15.6536 -45.0366
L15.4955 -44.7534
L15.3414 -44.4703
L15.1914 -44.1872
L15.0453 -43.9043
L14.903 -43.6214
L14.7645 -43.3385
L14.6297 -43.0556
L14.4985 -42.7727
L14.3709 -42.4897
L14.2468 -42.2066
L14.1262 -41.9234
L14.0089 -41.6399
L13.8951 -41.3563
L13.7845 -41.0724
L13.6772 -40.7882
L13.5731 -40.5036
L13.4722 -40.2186
L13.3744 -39.9332
L13.2798 -39.6473
L13.1882 -39.3608
L13.0998 -39.0738
L13.0144 -38.7861
L12.932 -38.4976
L12.8526 -38.2085
L12.7763 -37.9185
L12.7029 -37.6276
L12.6325 -37.3358
L12.5652 -37.043
L12.5008 -36.7492
L12.4395 -36.4542
L12.3812 -36.1581
L12.3259 -35.8607
L12.2737 -35.562
L12.2245 -35.262
L12.1784 -34.9606
L12.1355 -34.6576
L12.0957 -34.3531
L12.0592 -34.047
L12.0259 -33.7392
L11.9958 -33.4296
L11.9691 -33.1182
L11.9458 -32.8049
L11.926 -32.4897
L11.9097 -32.1725
L11.8969 -31.8531
L11.8879 -31.5316
L11.8826 -31.2079
L11.8811 -30.8819
L11.8835 -30.5535
L11.89 -30.2227
L11.9006 -29.8894
L11.9154 -29.5535
L11.9346 -29.2151
L11.9583 -28.874
L11.9865 -28.5301
L12.0195 -28.1835
L12.0574 -27.834
L12.1003 -27.4816
L12.1484 -27.1262
L12.2018 -26.7679
L12.2607 -26.4066
L12.3254 -26.0422
L12.396 -25.6747
L12.4726 -25.304
L12.5555 -24.9302
L12.645 -24.5533
L12.7411 -24.1731
L12.8442 -23.7898
L12.9546 -23.4034
L13.0723 -23.0138
L13.1977 -22.621
L13.3311 -22.2252
L13.4727 -21.8264
L13.6229 -21.4246
L13.7818 -21.0199
L13.9497 -20.6124
L14.1271 -20.2023
L14.3141 -19.7895
L14.511 -19.3744
L14.7183 -18.957
L14.9361 -18.5376
L15.1648 -18.1164
L15.4048 -17.6935
L15.6562 -17.2693
L15.9195 -16.844
L16.1948 -16.4181
L16.4826 -15.9917
L16.783 -15.5654
L17.0963 -15.1395
L17.4497 -14.7146
L17.8302 -14.3635
L18.2161 -14.0431
L18.6075 -13.7293
L19.0042 -13.4223
L19.4061 -13.1222
L19.813 -12.8291
L20.2248 -12.543
L20.6415 -12.2641
L21.0628 -11.9924
L21.4887 -11.728
L21.919 -11.471
L22.3536 -11.2215
L22.7923 -10.9795
L23.2351 -10.7452
L23.6817 -10.5185
L24.1322 -10.2996
L24.5862 -10.0885
L25.0437 -9.88535
L25.5045 -9.69013
L25.9686 -9.50292
L26.4357 -9.32379
L26.9057 -9.15278
L27.3784 -8.98995
L27.8538 -8.83534
L28.3317 -8.68901
L28.8119 -8.551
L29.2943 -8.42135
L29.7788 -8.3001
L30.2651 -8.18729
L30.7532 -8.08295
L31.2429 -7.98712
L31.7341 -7.89982
L32.2265 -7.82107
z
" id="C0_1_bbcfef58b7"/>
     <path d="
M54.4827 -57.5985
L54.0117 -57.8566
L53.5336 -58.1076
L53.0487 -58.3513
L52.5574 -58.5875
L52.0601 -58.8161
L51.5571 -59.0371
L51.0491 -59.2503
L50.5366 -59.4558
L50.0203 -59.6536
L49.5008 -59.8439
L48.979 -60.0268
L48.4559 -60.2028
L47.9323 -60.3723
L47.4096 -60.536
L46.889 -60.6944
L46.3719 -60.8488
L45.86 -61.0002
L45.355 -61.15
L44.859 -61.3
L44.374 -61.4521
L43.902 -61.6083
L43.4452 -61.7708
L43.0052 -61.9417
L42.5836 -62.1227
L42.1811 -62.3154
L41.7979 -62.5206
L41.4335 -62.7384
L41.0867 -62.9683
L40.756 -63.2093
L40.4393 -63.46
L40.1346 -63.7188
L39.84 -63.9839
L40.0495 -64.2537
L40.5412 -64.2108
L41.0315 -64.1359
L41.5204 -64.0523
L42.0075 -63.9603
L42.4928 -63.8597
L42.9761 -63.7506
L43.4573 -63.633
L43.9362 -63.5071
L44.4128 -63.3727
L44.8867 -63.23
L45.3579 -63.0791
L45.8263 -62.9199
L46.2917 -62.7524
L46.754 -62.5769
L47.213 -62.3932
L47.6686 -62.2015
L48.1206 -62.0018
L48.5689 -61.7942
L49.0134 -61.5788
L49.4539 -61.3555
L49.8904 -61.1245
L50.3226 -60.8859
L50.7504 -60.6397
L51.1738 -60.386
L51.5925 -60.1248
L52.0065 -59.8563
L52.4156 -59.5806
L52.8197 -59.2976
L53.2186 -59.0076
L53.6124 -58.7105
L54.0007 -58.4066
z
" id="C0_2_40b1e0bb4a"/>
    </defs>
    <g clip-path="url(#p1bffca34e9)">
     <use style="fill:#ffffff;stroke:#000000;stroke-width:2.0;" x="0.0" xlink:href="#C0_0_a811fe30f3" y="72.0"/>
    </g>
    <g clip-path="url(#p1bffca34e9)">
     <use style="fill:#ff0000;stroke:#000000;stroke-width:2.0;" x="0.0" xlink:href="#C0_1_bbcfef58b7" y="72.0"/>
    </g>
    <g clip-path="url(#p1bffca34e9)">
     <use style="fill:#ff0000;stroke:#000000;stroke-width:2.0;" x="0.0" xlink:href="#C0_2_40b1e0bb4a" y="72.0"/>
    </g>
   </g>
  </g>
 </g>
 <defs>
  <clipPath id="p1bffca34e9">
   <rect height="72.0" width="72.0" x="0.0" y="0.0"/>
  </clipPath>
 </defs>
</svg>
