<?xml version="1.0" encoding="utf-8" standalone="no"?>
<!DOCTYPE svg PUBLIC "-//W3C//DTD SVG 1.1//EN"
  "http://www.w3.org/Graphics/SVG/1.1/DTD/svg11.dtd">
<!-- Created with matplotlib (http://matplotlib.org/) -->
<svg height="72pt" version="1.1" viewBox="0 0 72 72" width="72pt" xmlns="http://www.w3.org/2000/svg" xmlns:xlink="http://www.w3.org/1999/xlink">
 <defs>
  <style type="text/css">
*{stroke-linecap:butt;stroke-linejoin:round;}
  </style>
 </defs>
 <g id="figure_1">
  <g id="patch_1">
   <path d="
M0 72
L72 72
L72 0
L0 0
z
" style="fill:none;"/>
  </g>
  <g id="axes_1">
   <g id="PatchCollection_1">
    <defs>
     <path d="
M36 -7.5
C43.5583 -7.5 50.808 -10.5029 56.1525 -15.8475
C61.4971 -21.192 64.5 -28.4417 64.5 -36
C64.5 -43.5583 61.4971 -50.808 56.1525 -56.1525
C50.808 -61.4971 43.5583 -64.5 36 -64.5
C28.4417 -64.5 21.192 -61.4971 15.8475 -56.1525
C10.5029 -50.808 7.5 -43.5583 7.5 -36
C7.5 -28.4417 10.5029 -21.192 15.8475 -15.8475
C21.192 -10.5029 28.4417 -7.5 36 -7.5
z
" id="C0_0_a811fe30f3"/>
     <path d="
M10.7718 -48.8818
L11.0126 -48.8379
L11.2489 -48.7766
L11.4807 -48.6986
L11.7083 -48.6048
L11.9317 -48.496
L12.1513 -48.3731
L12.3672 -48.2371
L12.5797 -48.0888
L12.7892 -47.9292
L12.9957 -47.759
L13.1997 -47.5791
L13.4013 -47.3905
L13.6008 -47.1937
L13.7984 -46.9897
L13.9944 -46.7791
L14.1889 -46.5625
L14.3821 -46.3407
L14.5741 -46.1142
L14.7652 -45.8835
L14.9555 -45.6493
L15.145 -45.4119
L15.3339 -45.1719
L15.5223 -44.9296
L15.7102 -44.6855
L15.8977 -44.4398
L16.0849 -44.193
L16.2717 -43.9452
L16.4583 -43.6969
L16.6447 -43.4481
L16.8309 -43.1993
L17.0169 -42.9505
L17.2027 -42.7019
L17.3883 -42.4538
L17.5738 -42.2062
L17.7591 -41.9594
L17.9443 -41.7133
L18.1293 -41.4683
L18.3141 -41.2242
L18.4988 -40.9813
L18.6834 -40.7396
L18.8678 -40.4991
L19.052 -40.26
L19.236 -40.0223
L19.4199 -39.7859
L19.6036 -39.551
L19.7872 -39.3176
L19.9705 -39.0856
L20.1537 -38.8552
L20.3367 -38.6262
L20.5195 -38.3988
L20.7022 -38.1729
L20.8847 -37.9485
L21.0671 -37.7256
L21.2493 -37.5043
L21.4314 -37.2844
L21.6133 -37.066
L21.7951 -36.849
L21.9768 -36.6335
L22.1584 -36.4194
L22.3399 -36.2066
L22.5214 -35.9953
L22.7027 -35.7853
L22.8841 -35.5766
L23.0654 -35.3691
L23.2467 -35.163
L23.4281 -34.958
L23.6094 -34.7542
L23.7908 -34.5516
L23.9723 -34.3502
L24.1539 -34.1498
L24.3356 -33.9504
L24.5175 -33.7521
L24.6995 -33.5548
L24.8817 -33.3585
L25.0642 -33.163
L25.2468 -32.9684
L25.4298 -32.7747
L25.6131 -32.5818
L25.7966 -32.3897
L25.9806 -32.1983
L26.1649 -32.0077
L26.3497 -31.8177
L26.5349 -31.6283
L26.7206 -31.4396
L26.9068 -31.2514
L27.2808 -31.0638
L27.4688 -30.8767
L27.6573 -30.69
L27.8466 -30.5038
L28.0365 -30.3179
L28.2272 -30.1325
L28.4187 -29.9474
L28.611 -29.7626
L28.8041 -29.578
L28.9981 -29.3937
L29.1931 -29.2097
L29.3889 -29.0258
L29.5858 -28.842
L29.7837 -28.6584
L29.9827 -28.4748
L30.1827 -28.2914
L30.3839 -28.1079
L30.5863 -27.9245
L30.7899 -27.741
L30.9947 -27.5575
L31.2008 -27.374
L31.4082 -27.1903
L31.6169 -27.0065
L31.827 -26.8226
L32.0386 -26.6385
L32.2515 -26.4541
L32.466 -26.2696
L32.6819 -26.0849
L32.8994 -25.8998
L33.1185 -25.7145
L33.3391 -25.529
L33.5613 -25.343
L33.7852 -25.1568
L34.0108 -24.9702
L34.238 -24.7833
L34.4669 -24.5959
L34.6975 -24.4082
L34.9299 -24.2201
L35.164 -24.0316
L35.3998 -23.8426
L35.6373 -23.6532
L35.8765 -23.4634
L36.1175 -23.2731
L36.3601 -23.0824
L36.6045 -22.8912
L36.8505 -22.6995
L37.0981 -22.5074
L37.3473 -22.3148
L37.598 -22.1217
L37.8502 -21.9281
L38.1037 -21.7341
L38.3587 -21.5396
L38.6148 -21.3446
L38.8721 -21.1491
L39.1304 -20.9531
L39.3896 -20.7566
L39.6496 -20.5597
L39.9102 -20.3622
L40.1712 -20.1642
L40.4325 -19.9657
L40.6937 -19.7667
L40.9548 -19.5671
L41.2154 -19.3669
L41.4753 -19.1661
L41.7342 -18.9646
L41.9916 -18.7625
L42.2474 -18.5596
L42.501 -18.3559
L42.7522 -18.1514
L43.0003 -17.9459
L43.2451 -17.7394
L43.4858 -17.5318
L43.7221 -17.3229
L43.9532 -17.1127
L44.1787 -16.9009
L44.3978 -16.6875
L44.6098 -16.4724
L44.8142 -16.2552
L45.01 -16.0358
L45.1966 -15.8141
L45.3732 -15.5899
L45.5391 -15.3629
L45.6933 -15.133
L45.8352 -14.8999
L45.964 -14.6636
L46.0789 -14.4238
L46.1792 -14.1803
L46.2642 -13.9332
L46.3334 -13.6824
L46.3862 -13.4277
L46.4221 -13.1692
L46.4408 -12.9071
L46.4418 -12.6414
L46.4251 -12.3722
L46.3903 -12.0999
L46.3376 -11.8247
L46.2668 -11.5469
L46.1782 -11.2669
L46.0718 -10.9851
L45.948 -10.702
L45.807 -10.418
L45.6491 -10.1336
L45.4748 -9.84945
L45.2845 -9.56592
L45.0786 -9.28357
L44.6112 -9.00294
L44.1358 -8.83207
L43.6579 -8.68592
L43.1776 -8.54809
L42.6951 -8.41862
L42.2106 -8.29756
L41.7243 -8.18493
L41.2361 -8.08078
L40.7464 -7.98513
L40.2552 -7.89801
L39.7628 -7.81946
L39.2691 -7.74948
L38.7745 -7.68812
L38.2791 -7.63538
L37.7829 -7.59127
L37.2862 -7.55582
L36.7892 -7.52904
L36.2918 -7.51093
L35.7944 -7.50149
L35.2971 -7.50074
L34.7999 -7.50867
L34.3032 -7.52528
L33.8069 -7.55056
L33.3113 -7.5845
L32.8166 -7.62711
L32.3228 -7.67835
L31.8301 -7.73822
L31.3387 -7.8067
L30.8487 -7.88377
L30.3603 -7.96941
L29.8736 -8.06358
L29.3888 -8.16626
L28.9059 -8.27742
L28.4253 -8.39702
L27.9469 -8.52504
L27.471 -8.66142
L26.9977 -8.80613
L26.5272 -8.95912
L26.0595 -9.12035
L25.5949 -9.28977
L25.1334 -9.46732
L24.6752 -9.65295
L24.2205 -9.84662
L23.7694 -10.0482
L23.322 -10.2578
L22.8784 -10.4752
L22.4389 -10.7003
L22.0035 -10.9332
L21.5723 -11.1736
L21.1456 -11.4217
L20.7234 -11.6772
L20.3058 -11.9402
L19.893 -12.2105
L19.4851 -12.488
L19.0822 -12.7727
L18.6845 -13.0644
L18.2921 -13.3632
L17.9051 -13.6688
L17.5236 -13.9813
L17.1477 -14.3004
L16.7775 -14.6262
L16.4132 -14.9585
L16.0549 -15.2972
L15.7026 -15.6421
L15.3565 -15.9933
L15.0168 -16.3506
L14.6834 -16.7139
L14.3565 -17.083
L14.0362 -17.4579
L13.7225 -17.8385
L13.4157 -18.2246
L13.1158 -18.6161
L12.8228 -19.0129
L12.5369 -19.4149
L12.2581 -19.8219
L11.9865 -20.2338
L11.7223 -20.6506
L11.4655 -21.072
L11.2161 -21.498
L10.9743 -21.9284
L10.7401 -22.3631
L10.5136 -22.8019
L10.2949 -23.2448
L10.084 -23.6915
L9.88102 -24.142
L9.68597 -24.5961
L9.49894 -25.0537
L9.31998 -25.5146
L9.14915 -25.9787
L8.98649 -26.4459
L8.83207 -26.9159
L8.68592 -27.3888
L8.54809 -27.8642
L8.41862 -28.3421
L8.29756 -28.8224
L8.18493 -29.3049
L8.08078 -29.7894
L7.98513 -30.2757
L7.89801 -30.7639
L7.81946 -31.2536
L7.74948 -31.7448
L7.68812 -32.2372
L7.63538 -32.7309
L7.59127 -33.2255
L7.55582 -33.7209
L7.52904 -34.2171
L7.51093 -34.7138
L7.50149 -35.2108
L7.50074 -35.7082
L7.50867 -36.2056
L7.52528 -36.7029
L7.55056 -37.2001
L7.5845 -37.6968
L7.62711 -38.1931
L7.67835 -38.6887
L7.73822 -39.1834
L7.8067 -39.6772
L7.88377 -40.1699
L7.96941 -40.6613
L8.06358 -41.1513
L8.16626 -41.6397
L8.27742 -42.1264
L8.39702 -42.6112
L8.52504 -43.0941
L8.66142 -43.5747
L8.80613 -44.0531
L8.95912 -44.529
L9.12035 -45.0023
L9.28977 -45.4728
L9.46732 -45.9405
L9.65295 -46.4051
L9.84662 -46.8666
L10.0482 -47.3248
L10.2578 -47.7795
z
" id="C0_1_376323b8ca"/>
     <path d="
M27.2525 -62.9365
L27.5997 -62.8427
L27.9513 -62.7483
L28.3066 -62.6529
L28.6649 -62.5561
L29.0256 -62.4578
L29.3882 -62.3577
L29.752 -62.2557
L30.1167 -62.1514
L30.4818 -62.0449
L30.8468 -61.936
L31.2114 -61.8246
L31.5751 -61.7107
L31.9377 -61.5941
L32.2988 -61.475
L32.6583 -61.3532
L33.0157 -61.2288
L33.371 -61.1017
L33.7239 -60.9721
L34.0743 -60.8399
L34.4219 -60.7051
L34.7667 -60.5679
L35.1085 -60.4283
L35.4472 -60.2863
L35.7828 -60.1419
L36.1152 -59.9954
L36.4442 -59.8466
L36.7699 -59.6957
L37.0922 -59.5427
L37.4111 -59.3877
L37.7266 -59.2308
L38.0386 -59.072
L38.3472 -58.9113
L38.6523 -58.7489
L38.954 -58.5848
L39.2523 -58.419
L39.5472 -58.2516
L39.8387 -58.0826
L40.1269 -57.9122
L40.4117 -57.7402
L40.6933 -57.5668
L40.9716 -57.3921
L41.2467 -57.216
L41.5187 -57.0385
L41.7876 -56.8598
L42.0534 -56.6798
L42.3162 -56.4985
L42.5761 -56.3161
L42.833 -56.1324
L43.0871 -55.9476
L43.3384 -55.7615
L43.5869 -55.5744
L43.8328 -55.386
L44.0759 -55.1966
L44.3165 -55.006
L44.5545 -54.8142
L44.7901 -54.6214
L45.0232 -54.4274
L45.2539 -54.2323
L45.4823 -54.036
L45.7084 -53.8386
L45.9322 -53.64
L46.1539 -53.4403
L46.3734 -53.2393
L46.5908 -53.0372
L46.8062 -52.8339
L47.0195 -52.6293
L47.2309 -52.4235
L47.4404 -52.2164
L47.648 -52.008
L47.8538 -51.7983
L48.0578 -51.5873
L48.26 -51.3748
L48.4605 -51.161
L48.6594 -50.9458
L48.8565 -50.7291
L49.0521 -50.5108
L49.2461 -50.2911
L49.4385 -50.0698
L49.6294 -49.8469
L49.8188 -49.6224
L50.0068 -49.3962
L50.1933 -49.1683
L50.3784 -48.9386
L50.5621 -48.7072
L50.7444 -48.4739
L50.9254 -48.2387
L51.105 -48.0017
L51.2834 -47.7626
L51.4604 -47.5215
L51.6361 -47.2784
L51.8106 -47.0332
L51.9838 -46.7858
L52.1558 -46.5362
L52.3265 -46.2844
L52.4959 -46.0303
L52.6641 -45.7738
L52.8311 -45.5149
L52.9968 -45.2536
L53.1613 -44.9898
L53.3245 -44.7235
L53.4865 -44.4545
L53.6473 -44.183
L53.8067 -43.9087
L53.9649 -43.6317
L54.1217 -43.352
L54.2773 -43.0694
L54.4315 -42.7839
L54.5844 -42.4955
L54.7359 -42.2042
L54.886 -41.9099
L55.0346 -41.6126
L55.1819 -41.3123
L55.3276 -41.0088
L55.4718 -40.7022
L55.6144 -40.3925
L55.7555 -40.0797
L55.895 -39.7637
L56.0328 -39.4445
L56.1688 -39.1221
L56.3032 -38.7966
L56.4358 -38.4679
L56.5665 -38.1361
L56.6954 -37.8011
L56.8224 -37.463
L56.9475 -37.1219
L57.0706 -36.7778
L57.1916 -36.4308
L57.3107 -36.0809
L57.4276 -35.7282
L57.5425 -35.3729
L57.6552 -35.0151
L57.7659 -34.6548
L57.8744 -34.2922
L57.9807 -33.9275
L58.0849 -33.5609
L58.1871 -33.1926
L58.2872 -32.8228
L58.3853 -32.4518
L58.4814 -32.0797
L58.5757 -31.707
L58.6682 -31.3339
L58.759 -30.9608
L58.8484 -30.5881
L58.9365 -30.2161
L59.0235 -29.8453
L59.1095 -29.4761
L59.1949 -29.109
L59.28 -28.7446
L59.365 -28.3834
L59.4503 -28.026
L59.5362 -27.6729
L59.6233 -27.3248
L59.7118 -26.9823
L59.8023 -26.6461
L59.8953 -26.3169
L59.9911 -25.9953
L60.0904 -25.682
L60.1936 -25.3777
L60.3013 -25.0831
L60.4138 -24.7988
L60.5317 -24.5254
L60.6553 -24.2635
L60.7851 -24.0137
L60.9214 -23.7765
L61.0645 -23.5522
L61.2145 -23.3414
L61.6436 -23.1442
L61.8568 -23.564
L62.062 -24.0134
L62.2593 -24.4665
L62.4487 -24.9231
L62.6299 -25.3831
L62.8031 -25.8463
L62.9681 -26.3126
L63.1248 -26.7819
L63.2733 -27.2539
L63.4135 -27.7287
L63.5454 -28.2059
L63.6688 -28.6855
L63.7839 -29.1674
L63.8904 -29.6513
L63.9885 -30.1372
L64.0781 -30.6248
L64.1591 -31.1141
L64.2315 -31.6049
L64.2953 -32.097
L64.3505 -32.5903
L64.3971 -33.0846
L64.435 -33.5798
L64.4642 -34.0758
L64.4848 -34.5724
L64.4967 -35.0694
L64.4999 -35.5666
L64.4945 -36.064
L64.4803 -36.5614
L64.4575 -37.0586
L64.426 -37.5555
L64.3859 -38.0519
L64.3371 -38.5477
L64.2797 -39.0427
L64.2137 -39.5368
L64.139 -40.0298
L64.0558 -40.5216
L63.9641 -41.012
L63.8638 -41.5009
L63.7551 -41.9881
L63.6379 -42.4735
L63.5122 -42.9569
L63.3782 -43.4382
L63.2359 -43.9172
L63.0853 -44.3938
L62.9264 -44.8679
L62.7593 -45.3392
L62.584 -45.8077
L62.4007 -46.2732
L62.2093 -46.7356
L62.0099 -47.1947
L61.8026 -47.6505
L61.5875 -48.1026
L61.3646 -48.5511
L61.1339 -48.9957
L60.8956 -49.4364
L60.6496 -49.873
L60.3962 -50.3054
L60.1354 -50.7334
L59.8672 -51.157
L59.5917 -51.5759
L59.3091 -51.99
L59.0193 -52.3993
L58.7225 -52.8036
L58.4188 -53.2028
L58.1083 -53.5968
L57.7911 -53.9853
L57.4672 -54.3684
L57.1367 -54.746
L56.7999 -55.1178
L56.4567 -55.4837
L56.1072 -55.8438
L55.7517 -56.1978
L55.3901 -56.5456
L55.0226 -56.8872
L54.6493 -57.2224
L54.2704 -57.5512
L53.8858 -57.8734
L53.4959 -58.1889
L53.1006 -58.4977
L52.7 -58.7996
L52.2944 -59.0946
L51.8839 -59.3825
L51.4685 -59.6633
L51.0484 -59.9369
L50.6237 -60.2032
L50.1945 -60.4622
L49.761 -60.7137
L49.3234 -60.9576
L48.8816 -61.194
L48.436 -61.4227
L47.9866 -61.6436
L47.5335 -61.8568
L47.0769 -62.062
L46.6169 -62.2593
L46.1537 -62.4487
L45.6874 -62.6299
L45.2181 -62.8031
L44.7461 -62.9681
L44.2713 -63.1248
L43.7941 -63.2733
L43.3145 -63.4135
L42.8326 -63.5454
L42.3487 -63.6688
L41.8628 -63.7839
L41.3752 -63.8904
L40.8859 -63.9885
L40.3951 -64.0781
L39.903 -64.1591
L39.4097 -64.2315
L38.9154 -64.2953
L38.4202 -64.3505
L37.9242 -64.3971
L37.4276 -64.435
L36.9306 -64.4642
L36.4334 -64.4848
L35.936 -64.4967
L35.4386 -64.4999
L34.9414 -64.4945
L34.4445 -64.4803
L33.9481 -64.4575
L33.4523 -64.426
L32.9573 -64.3859
L32.4632 -64.3371
L31.9702 -64.2797
L31.4784 -64.2137
L30.988 -64.139
L30.4991 -64.0558
L30.0119 -63.9641
L29.5265 -63.8638
L29.0431 -63.7551
L28.5618 -63.6379
L28.0828 -63.5122
z
" id="C0_2_ba4f685742"/>
    </defs>
    <g clip-path="url(#p1bffca34e9)">
     <use style="fill:#ff0000;stroke:#000000;stroke-width:2.0;" x="0.0" xlink:href="#C0_0_a811fe30f3" y="72.0"/>
    </g>
    <g clip-path="url(#p1bffca34e9)">
     <use style="fill:#ffffff;stroke:#000000;stroke-width:2.0;" x="0.0" xlink:href="#C0_1_376323b8ca" y="72.0"/>
    </g>
    <g clip-path="url(#p1bffca34e9)">
     <use style="fill:#ffffff;stroke:#000000;stroke-width:2.0;" x="0.0" xlink:href="#C0_2_ba4f685742" y="72.0"/>
    </g>
   </g>
  </g>
 </g>
 <defs>
  <clipPath id="p1bffca34e9">
   <rect height="72.0" width="72.0" x="0.0" y="0.0"/>
  </clipPath>
 </defs>
</svg>
