<?xml version="1.0" encoding="utf-8" standalone="no"?>
<!DOCTYPE svg PUBLIC "-//W3C//DTD SVG 1.1//EN"
  "http://www.w3.org/Graphics/SVG/1.1/DTD/svg11.dtd">
<!-- Created with matplotlib (http://matplotlib.org/) -->
<svg height="72pt" version="1.1" viewBox="0 0 72 72" width="72pt" xmlns="http://www.w3.org/2000/svg" xmlns:xlink="http://www.w3.org/1999/xlink">
 <defs>
  <style type="text/css">
*{stroke-linecap:butt;stroke-linejoin:round;}
  </style>
 </defs>
 <g id="figure_1">
  <g id="patch_1">
   <path d="
M0 72
L72 72
L72 0
L0 0
z
" style="fill:none;"/>
  </g>
  <g id="axes_1">
   <g id="PatchCollection_1">
    <defs>
     <path d="
M36 -7.5
C43.5583 -7.5 50.808 -10.5029 56.1525 -15.8475
C61.4971 -21.192 64.5 -28.4417 64.5 -36
C64.5 -43.5583 61.4971 -50.808 56.1525 -56.1525
C50.808 -61.4971 43.5583 -64.5 36 -64.5
C28.4417 -64.5 21.192 -61.4971 15.8475 -56.1525
C10.5029 -50.808 7.5 -43.5583 7.5 -36
C7.5 -28.4417 10.5029 -21.192 15.8475 -15.8475
C21.192 -10.5029 28.4417 -7.5 36 -7.5
z
" id="C0_0_a811fe30f3"/>
     <path d="
M23.1189 -32.747
L23.2277 -32.4988
L23.3385 -32.2514
L23.4512 -32.0046
L23.5658 -31.7586
L23.6824 -31.5131
L23.801 -31.2683
L23.9217 -31.024
L24.0444 -30.7803
L24.1692 -30.537
L24.2962 -30.2943
L24.4252 -30.0519
L24.5565 -29.8099
L24.69 -29.5683
L24.8258 -29.3271
L24.9638 -29.0862
L25.1043 -28.8455
L25.2471 -28.6052
L25.3923 -28.3651
L25.54 -28.1252
L25.6903 -27.8855
L25.8431 -27.6461
L25.9986 -27.4068
L26.1567 -27.1677
L26.3176 -26.9288
L26.4813 -26.6901
L26.6479 -26.4516
L26.8173 -26.2132
L26.9898 -25.9749
L27.1653 -25.7369
L27.3439 -25.4991
L27.5256 -25.2614
L27.7106 -25.024
L27.899 -24.7868
L28.0906 -24.55
L28.2858 -24.3134
L28.4844 -24.0771
L28.6867 -23.8413
L28.8926 -23.6058
L29.1023 -23.3709
L29.3157 -23.1365
L29.5331 -22.9027
L29.7544 -22.6696
L29.9797 -22.4373
L30.2091 -22.2058
L30.4427 -21.9752
L30.6806 -21.7458
L30.9227 -21.5174
L31.1693 -21.2904
L31.4203 -21.0648
L31.6758 -20.8407
L31.9359 -20.6184
L32.2006 -20.3979
L32.47 -20.1795
L32.7441 -19.9634
L33.023 -19.7497
L33.3068 -19.5387
L33.5953 -19.3306
L33.8888 -19.1256
L34.1871 -18.9241
L34.4903 -18.7262
L34.7985 -18.5324
L35.1115 -18.3429
L35.4294 -18.158
L35.7521 -17.9781
L36.0797 -17.8036
L36.4119 -17.6349
L36.7488 -17.4723
L37.0903 -17.3163
L37.4362 -17.1674
L37.7864 -17.026
L38.1408 -16.8926
L38.4992 -16.7677
L38.8615 -16.6519
L39.2273 -16.5457
L39.5964 -16.4496
L39.9686 -16.3643
L40.3436 -16.2902
L40.721 -16.228
L41.1005 -16.1782
L41.4817 -16.1414
L41.8642 -16.1181
L42.2475 -16.1089
L42.6312 -16.1142
L43.0147 -16.1345
L43.3976 -16.1702
L43.7794 -16.2216
L44.1594 -16.289
L44.5371 -16.3725
L44.912 -16.4723
L45.2835 -16.5883
L45.6511 -16.7206
L46.0141 -16.8688
L46.3722 -17.0328
L46.7248 -17.2122
L47.0714 -17.4066
L47.4117 -17.6155
L47.7452 -17.8383
L48.0715 -18.0744
L48.3904 -18.3232
L48.7016 -18.584
L49.0047 -18.8561
L49.2997 -19.1387
L49.5864 -19.4312
L49.8645 -19.7329
L50.1341 -20.0429
L50.395 -20.3607
L50.6472 -20.6856
L50.8907 -21.0169
L51.1254 -21.3539
L51.3515 -21.6962
L51.569 -22.043
L51.7779 -22.3939
L51.9783 -22.7484
L52.1704 -23.1059
L52.3541 -23.466
L52.5298 -23.8283
L52.6974 -24.1923
L52.8571 -24.5577
L53.009 -24.9241
L53.1534 -25.2913
L53.2904 -25.6588
L53.4201 -26.0264
L53.5426 -26.3939
L53.6582 -26.761
L53.767 -27.1275
L53.8692 -27.4932
L53.9649 -27.8579
L54.0543 -28.2215
L54.1375 -28.5837
L54.2148 -28.9445
L54.2862 -29.3038
L54.352 -29.6614
L54.4122 -30.0172
L54.467 -30.3711
L54.5166 -30.7231
L54.5611 -31.0731
L54.6006 -31.4211
L54.6353 -31.767
L54.6653 -32.1108
L54.6907 -32.4523
L54.7117 -32.7918
L54.7283 -33.129
L54.7406 -33.4639
L54.7489 -33.7967
L54.7531 -34.1273
L54.7535 -34.4556
L54.75 -34.7817
L54.7427 -35.1057
L54.7318 -35.4274
L54.7174 -35.747
L54.6995 -36.0645
L54.6781 -36.3799
L54.6534 -36.6931
L54.6255 -37.0044
L54.5943 -37.3136
L54.56 -37.6208
L54.5226 -37.9261
L54.4821 -38.2294
L54.4387 -38.5309
L54.3923 -38.8305
L54.343 -39.1284
L54.2908 -39.4245
L54.2358 -39.7188
L54.178 -40.0115
L54.1174 -40.3026
L54.0541 -40.592
L53.988 -40.8799
L53.9193 -41.1664
L53.8478 -41.4513
L53.7737 -41.7348
L53.6969 -42.0169
L53.6175 -42.2977
L53.5354 -42.5772
L53.4507 -42.8555
L53.3633 -43.1325
L53.2733 -43.4083
L53.1806 -43.683
L53.0853 -43.9566
L52.9873 -44.2292
L52.8866 -44.5007
L52.7832 -44.7712
L52.6771 -45.0408
L52.5683 -45.3094
L52.4566 -45.5772
L52.3422 -45.8441
L52.225 -46.1101
L52.105 -46.3754
L51.982 -46.6399
L51.8562 -46.9036
L51.7274 -47.1667
L51.5955 -47.429
L51.4607 -47.6907
L51.3228 -47.9517
L51.1817 -48.212
L51.0375 -48.4718
L50.89 -48.7309
L50.7393 -48.9894
L50.5852 -49.2473
L50.4277 -49.5047
L50.2667 -49.7614
L50.1022 -50.0176
L49.9341 -50.2732
L49.7624 -50.5282
L49.5869 -50.7826
L49.4076 -51.0364
L49.2244 -51.2895
L49.0373 -51.542
L48.8461 -51.7938
L48.6507 -52.045
L48.4512 -52.2954
L48.2474 -52.545
L48.0392 -52.7938
L47.8266 -53.0417
L47.6094 -53.2887
L47.3875 -53.5347
L47.1609 -53.7797
L46.9295 -54.0235
L46.6931 -54.2662
L46.4518 -54.5075
L46.2053 -54.7475
L45.9537 -54.986
L45.6967 -55.2229
L45.4344 -55.458
L45.1666 -55.6914
L44.8932 -55.9227
L44.6142 -56.1519
L44.3295 -56.3788
L44.039 -56.6033
L43.7426 -56.825
L43.4403 -57.044
L43.1319 -57.2599
L42.8175 -57.4726
L42.497 -57.6818
L42.1704 -57.8872
L41.8376 -58.0886
L41.4986 -58.2858
L41.1535 -58.4785
L40.8021 -58.6663
L40.4446 -58.8489
L40.0809 -59.0261
L39.7112 -59.1974
L39.3356 -59.3625
L38.954 -59.5211
L38.5667 -59.6727
L38.1737 -59.817
L37.7753 -59.9535
L37.3717 -60.0819
L36.9631 -60.2016
L36.5497 -60.3122
L36.1319 -60.4133
L35.71 -60.5044
L35.2844 -60.585
L34.8554 -60.6547
L34.4237 -60.7129
L33.9895 -60.7593
L33.5536 -60.7933
L33.1164 -60.8145
L32.6786 -60.8224
L32.2409 -60.8167
L31.8039 -60.7969
L31.3684 -60.7628
L30.9352 -60.7139
L30.5049 -60.6501
L30.0785 -60.5712
L29.6566 -60.4769
L29.2402 -60.3673
L28.8299 -60.2423
L28.4265 -60.1021
L28.0308 -59.9467
L27.6434 -59.7765
L27.265 -59.5917
L26.896 -59.3928
L26.5371 -59.1801
L26.1887 -58.9543
L25.8511 -58.7159
L25.5246 -58.4655
L25.2094 -58.2038
L24.9058 -57.9314
L24.6137 -57.6492
L24.3333 -57.3577
L24.0645 -57.0577
L23.8072 -56.7499
L23.5615 -56.4349
L23.327 -56.1135
L23.1037 -55.7864
L22.8913 -55.454
L22.6897 -55.1171
L22.4986 -54.7762
L22.3177 -54.4319
L22.1468 -54.0846
L21.9857 -53.7348
L21.834 -53.3831
L21.6915 -53.0297
L21.558 -52.6751
L21.433 -52.3197
L21.3164 -51.9638
L21.2079 -51.6077
L21.1073 -51.2518
L21.0142 -50.8961
L20.9284 -50.5411
L20.8497 -50.187
L20.7778 -49.8338
L20.7125 -49.4819
L20.6535 -49.1314
L20.6006 -48.7824
L20.5536 -48.4351
L20.5123 -48.0896
L20.4765 -47.746
L20.4459 -47.4044
L20.4204 -47.0648
L20.3999 -46.7274
L20.3841 -46.3922
L20.3728 -46.0592
L20.3659 -45.7286
L20.3633 -45.4002
L20.3648 -45.0742
L20.3702 -44.7506
L20.3794 -44.4294
L20.3922 -44.1106
L20.4087 -43.7941
L20.4285 -43.4801
L20.4517 -43.1684
L20.4781 -42.8591
L20.5076 -42.5521
L20.5401 -42.2474
L20.5755 -41.9451
L20.6137 -41.645
L20.6547 -41.3471
L20.6984 -41.0515
L20.7446 -40.758
L20.7934 -40.4666
L20.8446 -40.1774
L20.8982 -39.8902
L20.9542 -39.605
L21.0124 -39.3218
L21.0729 -39.0405
L21.1356 -38.7611
L21.2004 -38.4836
L21.2673 -38.2078
L21.3363 -37.9338
L21.4073 -37.6614
L21.4803 -37.3908
L21.5553 -37.1217
L21.6323 -36.8542
L21.7111 -36.5881
L21.7919 -36.3236
L21.8746 -36.0604
L21.9592 -35.7987
L22.0456 -35.5382
L22.1339 -35.279
L22.2241 -35.021
L22.3161 -34.7642
L22.41 -34.5086
L22.5057 -34.254
L22.6032 -34.0005
L22.7026 -33.748
L22.8039 -33.4964
L22.907 -33.2457
z
" id="C0_1_da23a10160"/>
    </defs>
    <g clip-path="url(#p1bffca34e9)">
     <use style="fill:#ffffff;stroke:#000000;stroke-width:2.0;" x="0.0" xlink:href="#C0_0_a811fe30f3" y="72.0"/>
    </g>
    <g clip-path="url(#p1bffca34e9)">
     <use style="fill:#ff0000;stroke:#000000;stroke-width:2.0;" x="0.0" xlink:href="#C0_1_da23a10160" y="72.0"/>
    </g>
   </g>
  </g>
 </g>
 <defs>
  <clipPath id="p1bffca34e9">
   <rect height="72.0" width="72.0" x="0.0" y="0.0"/>
  </clipPath>
 </defs>
</svg>
