<?xml version="1.0" encoding="utf-8" standalone="no"?>
<!DOCTYPE svg PUBLIC "-//W3C//DTD SVG 1.1//EN"
  "http://www.w3.org/Graphics/SVG/1.1/DTD/svg11.dtd">
<!-- Created with matplotlib (http://matplotlib.org/) -->
<svg height="72pt" version="1.1" viewBox="0 0 72 72" width="72pt" xmlns="http://www.w3.org/2000/svg" xmlns:xlink="http://www.w3.org/1999/xlink">
 <defs>
  <style type="text/css">
*{stroke-linecap:butt;stroke-linejoin:round;}
  </style>
 </defs>
 <g id="figure_1">
  <g id="patch_1">
   <path d="
M0 72
L72 72
L72 0
L0 0
z
" style="fill:none;"/>
  </g>
  <g id="axes_1">
   <g id="PatchCollection_1">
    <defs>
     <path d="
M36 -7.5
C43.5583 -7.5 50.808 -10.5029 56.1525 -15.8475
C61.4971 -21.192 64.5 -28.4417 64.5 -36
C64.5 -43.5583 61.4971 -50.808 56.1525 -56.1525
C50.808 -61.4971 43.5583 -64.5 36 -64.5
C28.4417 -64.5 21.192 -61.4971 15.8475 -56.1525
C10.5029 -50.808 7.5 -43.5583 7.5 -36
C7.5 -28.4417 10.5029 -21.192 15.8475 -15.8475
C21.192 -10.5029 28.4417 -7.5 36 -7.5
z
" id="C0_0_a811fe30f3"/>
     <path d="
M12.3469 -51.7706
L12.622 -51.772
L12.8876 -51.7477
L13.1436 -51.6984
L13.39 -51.6251
L13.6271 -51.5288
L13.8554 -51.4108
L14.0753 -51.2726
L14.2875 -51.1154
L14.4925 -50.9408
L14.6912 -50.7503
L14.884 -50.5452
L15.0718 -50.327
L15.2551 -50.0971
L15.4346 -49.8566
L15.6108 -49.6069
L15.7842 -49.349
L15.9552 -49.0841
L16.1244 -48.8129
L16.292 -48.5365
L16.4584 -48.2556
L16.6238 -47.971
L16.7885 -47.6834
L16.9527 -47.3933
L17.1165 -47.1013
L17.2801 -46.8079
L17.4435 -46.5136
L17.6069 -46.2187
L17.7704 -45.9237
L17.934 -45.6288
L18.0977 -45.3344
L18.2616 -45.0407
L18.4256 -44.748
L18.5899 -44.4564
L18.7543 -44.1661
L18.9189 -43.8774
L19.0837 -43.5903
L19.2487 -43.305
L19.4138 -43.0215
L19.579 -42.74
L19.7444 -42.4606
L19.9098 -42.1832
L20.0753 -41.9081
L20.2409 -41.6351
L20.4065 -41.3644
L20.5721 -41.0959
L20.7377 -40.8298
L20.9033 -40.5659
L21.0689 -40.3043
L21.2344 -40.045
L21.3999 -39.788
L21.5653 -39.5332
L21.7307 -39.2807
L21.8959 -39.0304
L22.0611 -38.7824
L22.2262 -38.5365
L22.3913 -38.2927
L22.5562 -38.0511
L22.7211 -37.8115
L22.8858 -37.574
L23.0505 -37.3385
L23.2152 -37.1049
L23.3798 -36.8733
L23.5443 -36.6435
L23.7088 -36.4155
L23.8733 -36.1893
L24.0377 -35.9649
L24.2022 -35.7421
L24.3667 -35.521
L24.5312 -35.3015
L24.6958 -35.0835
L24.8604 -34.867
L25.0252 -34.652
L25.1901 -34.4383
L25.3551 -34.226
L25.5202 -34.0151
L25.6856 -33.8053
L25.8512 -33.5968
L26.017 -33.3895
L26.1831 -33.1833
L26.3494 -32.9781
L26.5161 -32.774
L26.6832 -32.5708
L26.8506 -32.3686
L27.0184 -32.1672
L27.1867 -31.9667
L27.3554 -31.767
L27.5247 -31.5681
L27.6945 -31.3698
L27.8649 -31.1722
L28.2074 -30.9753
L28.3797 -30.7789
L28.5528 -30.5831
L28.7265 -30.3877
L28.9011 -30.1928
L29.0765 -29.9983
L29.2527 -29.8042
L29.4299 -29.6105
L29.608 -29.417
L29.7871 -29.2238
L29.9672 -29.0308
L30.1484 -28.838
L30.3307 -28.6453
L30.5141 -28.4528
L30.6988 -28.2603
L30.8847 -28.0678
L31.0719 -27.8754
L31.2604 -27.6829
L31.4503 -27.4904
L31.6416 -27.2978
L31.8343 -27.1051
L32.0286 -26.9122
L32.2244 -26.7191
L32.4218 -26.5258
L32.6209 -26.3323
L32.8217 -26.1385
L33.0242 -25.9444
L33.2284 -25.75
L33.4345 -25.5552
L33.6425 -25.3601
L33.8524 -25.1646
L34.0642 -24.9688
L34.2781 -24.7724
L34.494 -24.5757
L34.7119 -24.3785
L34.932 -24.1808
L35.1542 -23.9826
L35.3786 -23.784
L35.6053 -23.5848
L35.8342 -23.3851
L36.0653 -23.185
L36.2988 -22.9843
L36.5346 -22.7831
L36.7727 -22.5813
L37.0132 -22.3791
L37.256 -22.1763
L37.5012 -21.9731
L37.7488 -21.7694
L37.9986 -21.5651
L38.2508 -21.3605
L38.5053 -21.1553
L38.7621 -20.9498
L39.021 -20.7438
L39.2821 -20.5374
L39.5452 -20.3307
L39.8104 -20.1237
L40.0774 -19.9163
L40.3462 -19.7086
L40.6167 -19.5007
L40.8886 -19.2925
L41.1618 -19.0841
L41.4361 -18.8755
L41.7113 -18.6668
L41.987 -18.4579
L42.2632 -18.2488
L42.5393 -18.0396
L42.815 -17.8302
L43.09 -17.6207
L43.3638 -17.4109
L43.6358 -17.201
L43.9056 -16.9907
L44.1725 -16.7801
L44.4358 -16.5689
L44.6949 -16.3572
L44.9489 -16.1448
L45.1968 -15.9314
L45.4378 -15.7169
L45.6708 -15.501
L45.8946 -15.2835
L46.1081 -15.064
L46.3099 -14.8422
L46.4988 -14.6178
L46.6732 -14.3902
L46.8318 -14.1592
L46.9731 -13.9243
L47.0957 -13.685
L47.1981 -13.4411
L47.279 -13.1921
L47.3374 -12.9378
L47.372 -12.678
L47.3821 -12.4126
L47.367 -12.1416
L47.3263 -11.8651
L47.2598 -11.5835
L47.1675 -11.2972
L47.0497 -11.0067
L46.9068 -10.7125
L46.7394 -10.4156
L46.5482 -10.1165
L46.3341 -9.81632
L45.8949 -9.51577
L45.427 -9.27286
L44.9561 -9.10424
L44.4826 -8.94381
L44.0064 -8.79163
L43.5279 -8.64773
L43.047 -8.51216
L42.564 -8.38497
L42.0789 -8.26619
L41.5921 -8.15585
L41.1035 -8.054
L40.6134 -7.96066
L40.1218 -7.87587
L39.629 -7.79964
L39.1351 -7.732
L38.6403 -7.67297
L38.1446 -7.62256
L37.6483 -7.58081
L37.1515 -7.54771
L36.6543 -7.52327
L36.157 -7.50751
L35.6596 -7.50043
L35.1623 -7.50203
L34.6652 -7.51231
L34.1686 -7.53127
L33.6725 -7.55891
L33.1771 -7.5952
L32.6826 -7.64015
L32.1891 -7.69373
L31.6967 -7.75594
L31.2057 -7.82675
L30.7161 -7.90615
L30.2282 -7.9941
L29.742 -8.09058
L29.2576 -8.19556
L28.7754 -8.30901
L28.2954 -8.4309
L27.8177 -8.56119
L27.3424 -8.69983
L26.8699 -8.84679
L26.4001 -9.00202
L25.9332 -9.16548
L25.4694 -9.3371
L25.0088 -9.51685
L24.5516 -9.70467
L24.0978 -9.9005
L23.6477 -10.1043
L23.2013 -10.3159
L22.7589 -10.5354
L22.3204 -10.7627
L21.8862 -10.9976
L21.4562 -11.2402
L21.0307 -11.4903
L20.6097 -11.7478
L20.1934 -12.0128
L19.7819 -12.285
L19.3754 -12.5645
L18.9739 -12.8511
L18.5776 -13.1448
L18.1866 -13.4454
L17.8011 -13.7529
L17.4211 -14.0672
L17.0467 -14.3881
L16.6782 -14.7157
L16.3155 -15.0497
L15.9588 -15.3901
L15.6082 -15.7368
L15.2638 -16.0896
L14.9257 -16.4485
L14.5941 -16.8134
L14.269 -17.1841
L13.9505 -17.5606
L13.6387 -17.9426
L13.3337 -18.3302
L13.0356 -18.7232
L12.7446 -19.1214
L12.4606 -19.5247
L12.1838 -19.9331
L11.9142 -20.3464
L11.652 -20.7644
L11.3971 -21.1871
L11.1498 -21.6143
L10.9101 -22.0458
L10.678 -22.4817
L10.4536 -22.9216
L10.237 -23.3655
L10.0282 -23.8133
L9.82735 -24.2648
L9.63447 -24.7198
L9.44962 -25.1783
L9.27286 -25.6401
L9.10424 -26.1051
L8.94381 -26.573
L8.79163 -27.0439
L8.64773 -27.5174
L8.51216 -27.9936
L8.38497 -28.4721
L8.26619 -28.953
L8.15585 -29.436
L8.054 -29.9211
L7.96066 -30.4079
L7.87587 -30.8965
L7.79964 -31.3866
L7.732 -31.8782
L7.67297 -32.371
L7.62256 -32.8649
L7.58081 -33.3597
L7.54771 -33.8554
L7.52327 -34.3517
L7.50751 -34.8485
L7.50043 -35.3457
L7.50203 -35.843
L7.51231 -36.3404
L7.53127 -36.8377
L7.55891 -37.3348
L7.5952 -37.8314
L7.64015 -38.3275
L7.69373 -38.8229
L7.75594 -39.3174
L7.82675 -39.8109
L7.90615 -40.3033
L7.9941 -40.7943
L8.09058 -41.2839
L8.19556 -41.7718
L8.30901 -42.258
L8.4309 -42.7424
L8.56119 -43.2246
L8.69983 -43.7046
L8.84679 -44.1823
L9.00202 -44.6576
L9.16548 -45.1301
L9.3371 -45.5999
L9.51685 -46.0668
L9.70467 -46.5306
L9.9005 -46.9912
L10.1043 -47.4484
L10.3159 -47.9022
L10.5354 -48.3523
L10.7627 -48.7987
L10.9976 -49.2411
L11.2402 -49.6796
L11.4903 -50.1138
L11.7478 -50.5438
L12.0128 -50.9693
z
" id="C0_1_cfe1ca7a07"/>
     <path d="
M25.9901 -62.5507
L26.3758 -62.487
L26.7701 -62.4243
L27.1717 -62.3617
L27.5796 -62.2986
L27.9925 -62.2344
L28.4095 -62.1683
L28.8296 -62.0999
L29.252 -62.0288
L29.6758 -61.9547
L30.1002 -61.8771
L30.5247 -61.7961
L30.9486 -61.7112
L31.3713 -61.6225
L31.7923 -61.5297
L32.2113 -61.433
L32.6278 -61.3322
L33.0414 -61.2274
L33.4518 -61.1185
L33.8588 -61.0057
L34.2621 -60.889
L34.6615 -60.7685
L35.0567 -60.6443
L35.4478 -60.5164
L35.8344 -60.3851
L36.2166 -60.2503
L36.5942 -60.1122
L36.9671 -59.9709
L37.3354 -59.8266
L37.6988 -59.6793
L38.0576 -59.5292
L38.4115 -59.3764
L38.7607 -59.221
L39.1051 -59.0631
L39.4448 -58.9027
L39.7797 -58.7401
L40.11 -58.5753
L40.4356 -58.4084
L40.7566 -58.2394
L41.0731 -58.0686
L41.3851 -57.8958
L41.6927 -57.7213
L41.9959 -57.5451
L42.2949 -57.3672
L42.5896 -57.1877
L42.8802 -57.0068
L43.1667 -56.8243
L43.4492 -56.6404
L43.7277 -56.4552
L44.0025 -56.2685
L44.2734 -56.0806
L44.5407 -55.8915
L44.8043 -55.701
L45.0644 -55.5094
L45.321 -55.3165
L45.5743 -55.1225
L45.8242 -54.9273
L46.0708 -54.731
L46.3143 -54.5335
L46.5547 -54.3349
L46.7921 -54.1352
L47.0265 -53.9343
L47.258 -53.7323
L47.4866 -53.5291
L47.7125 -53.3248
L47.9357 -53.1194
L48.1563 -52.9128
L48.3743 -52.705
L48.5898 -52.496
L48.8028 -52.2858
L49.0134 -52.0743
L49.2216 -51.8616
L49.4276 -51.6477
L49.6313 -51.4324
L49.8328 -51.2157
L50.0322 -50.9977
L50.2294 -50.7783
L50.4246 -50.5575
L50.6178 -50.3352
L50.809 -50.1114
L50.9982 -49.886
L51.1856 -49.6591
L51.371 -49.4305
L51.5547 -49.2003
L51.7365 -48.9684
L51.9166 -48.7347
L52.0949 -48.4992
L52.2715 -48.2618
L52.4464 -48.0226
L52.6196 -47.7813
L52.7912 -47.5381
L52.9611 -47.2928
L53.1294 -47.0454
L53.296 -46.7958
L53.4611 -46.544
L53.6246 -46.2899
L53.7865 -46.0334
L53.9468 -45.7746
L54.1055 -45.5132
L54.2627 -45.2493
L54.4182 -44.9828
L54.5722 -44.7136
L54.7245 -44.4417
L54.8753 -44.167
L55.0244 -43.8895
L55.1719 -43.6089
L55.3177 -43.3254
L55.4618 -43.0388
L55.6042 -42.7491
L55.7449 -42.4562
L55.8838 -42.16
L56.0208 -41.8604
L56.1561 -41.5575
L56.2894 -41.251
L56.4208 -40.941
L56.5502 -40.6275
L56.6776 -40.3102
L56.8028 -39.9892
L56.926 -39.6645
L57.0468 -39.3359
L57.1655 -39.0034
L57.2817 -38.667
L57.3955 -38.3266
L57.5068 -37.9822
L57.6155 -37.6337
L57.7216 -37.2811
L57.8249 -36.9244
L57.9253 -36.5636
L58.0228 -36.1987
L58.1173 -35.8296
L58.2086 -35.4564
L58.2968 -35.0791
L58.3816 -34.6977
L58.463 -34.3124
L58.541 -33.923
L58.6153 -33.5297
L58.686 -33.1327
L58.753 -32.7319
L58.8161 -32.3275
L58.8754 -31.9197
L58.9307 -31.5087
L58.9821 -31.0945
L59.0294 -30.6775
L59.0728 -30.2579
L59.1122 -29.8359
L59.1476 -29.4118
L59.1792 -28.9861
L59.2069 -28.559
L59.2311 -28.1309
L59.2517 -27.7024
L59.2692 -27.274
L59.2836 -26.846
L59.2955 -26.4193
L59.3051 -25.9943
L59.3129 -25.5718
L59.3196 -25.1525
L59.3257 -24.7373
L59.3319 -24.327
L59.339 -23.9224
L59.3479 -23.5247
L59.3596 -23.1347
L59.3751 -22.7535
L59.3955 -22.3823
L59.4219 -22.022
L59.4556 -21.6739
L59.4976 -21.3389
L59.5493 -21.0181
L59.6115 -20.7124
L60.0816 -20.4229
L60.3439 -20.7577
L60.5989 -21.1803
L60.8463 -21.6074
L61.0862 -22.0389
L61.3184 -22.4747
L61.5429 -22.9145
L61.7596 -23.3584
L61.9685 -23.8061
L62.1695 -24.2575
L62.3625 -24.7125
L62.5475 -25.171
L62.7244 -25.6327
L62.8931 -26.0976
L63.0537 -26.5655
L63.206 -27.0363
L63.35 -27.5098
L63.4857 -27.9859
L63.6131 -28.4645
L63.732 -28.9453
L63.8425 -29.4283
L63.9444 -29.9133
L64.0379 -30.4002
L64.1228 -30.8887
L64.1992 -31.3788
L64.267 -31.8703
L64.3262 -32.3631
L64.3767 -32.857
L64.4186 -33.3518
L64.4518 -33.8475
L64.4764 -34.3438
L64.4923 -34.8406
L64.4995 -35.3377
L64.4981 -35.8351
L64.4879 -36.3325
L64.4691 -36.8298
L64.4416 -37.3269
L64.4054 -37.8235
L64.3606 -38.3196
L64.3072 -38.815
L64.2451 -39.3095
L64.1744 -39.8031
L64.0952 -40.2954
L64.0074 -40.7865
L63.911 -41.2761
L63.8062 -41.7641
L63.6929 -42.2503
L63.5711 -42.7346
L63.441 -43.2169
L63.3024 -43.697
L63.1556 -44.1747
L63.0005 -44.65
L62.8372 -45.1226
L62.6657 -45.5924
L62.4861 -46.0594
L62.2984 -46.5232
L62.1027 -46.9838
L61.899 -47.4411
L61.6875 -47.895
L61.4681 -48.3451
L61.241 -48.7916
L61.0062 -49.2341
L60.7638 -49.6726
L60.5138 -50.1069
L60.2564 -50.537
L59.9915 -50.9626
L59.7194 -51.3836
L59.44 -51.8
L59.1535 -52.2116
L58.86 -52.6182
L58.5595 -53.0197
L58.2521 -53.4161
L57.9379 -53.8072
L57.6171 -54.1928
L57.2896 -54.5729
L56.9557 -54.9473
L56.6154 -55.316
L56.2688 -55.6788
L55.9161 -56.0356
L55.5572 -56.3863
L55.1925 -56.7308
L54.8218 -57.0689
L54.4455 -57.4007
L54.0635 -57.7259
L53.676 -58.0445
L53.2831 -58.3564
L52.885 -58.6615
L52.4817 -58.9597
L52.0734 -59.2509
L51.6603 -59.535
L51.2423 -59.8119
L50.8197 -60.0816
L50.3926 -60.3439
L49.9611 -60.5989
L49.5253 -60.8463
L49.0855 -61.0862
L48.6416 -61.3184
L48.1939 -61.5429
L47.7425 -61.7596
L47.2875 -61.9685
L46.829 -62.1695
L46.3673 -62.3625
L45.9024 -62.5475
L45.4345 -62.7244
L44.9637 -62.8931
L44.4902 -63.0537
L44.0141 -63.206
L43.5355 -63.35
L43.0547 -63.4857
L42.5717 -63.6131
L42.0867 -63.732
L41.5998 -63.8425
L41.1113 -63.9444
L40.6212 -64.0379
L40.1297 -64.1228
L39.6369 -64.1992
L39.143 -64.267
L38.6482 -64.3262
L38.1525 -64.3767
L37.6562 -64.4186
L37.1594 -64.4518
L36.6623 -64.4764
L36.1649 -64.4923
L35.6675 -64.4995
L35.1702 -64.4981
L34.6731 -64.4879
L34.1765 -64.4691
L33.6804 -64.4416
L33.185 -64.4054
L32.6905 -64.3606
L32.1969 -64.3072
L31.7046 -64.2451
L31.2135 -64.1744
L30.7239 -64.0952
L30.2359 -64.0074
L29.7497 -63.911
L29.2654 -63.8062
L28.7831 -63.6929
L28.303 -63.5711
L27.8253 -63.441
L27.35 -63.3024
L26.8774 -63.1556
z
" id="C0_2_f4b92fc507"/>
    </defs>
    <g clip-path="url(#p1bffca34e9)">
     <use style="fill:#ff0000;stroke:#000000;stroke-width:2.0;" x="0.0" xlink:href="#C0_0_a811fe30f3" y="72.0"/>
    </g>
    <g clip-path="url(#p1bffca34e9)">
     <use style="fill:#ffffff;stroke:#000000;stroke-width:2.0;" x="0.0" xlink:href="#C0_1_cfe1ca7a07" y="72.0"/>
    </g>
    <g clip-path="url(#p1bffca34e9)">
     <use style="fill:#ffffff;stroke:#000000;stroke-width:2.0;" x="0.0" xlink:href="#C0_2_f4b92fc507" y="72.0"/>
    </g>
   </g>
  </g>
 </g>
 <defs>
  <clipPath id="p1bffca34e9">
   <rect height="72.0" width="72.0" x="0.0" y="0.0"/>
  </clipPath>
 </defs>
</svg>
