<?xml version="1.0" encoding="utf-8" standalone="no"?>
<!DOCTYPE svg PUBLIC "-//W3C//DTD SVG 1.1//EN"
  "http://www.w3.org/Graphics/SVG/1.1/DTD/svg11.dtd">
<!-- Created with matplotlib (http://matplotlib.org/) -->
<svg height="72pt" version="1.1" viewBox="0 0 72 72" width="72pt" xmlns="http://www.w3.org/2000/svg" xmlns:xlink="http://www.w3.org/1999/xlink">
 <defs>
  <style type="text/css">
*{stroke-linecap:butt;stroke-linejoin:round;}
  </style>
 </defs>
 <g id="figure_1">
  <g id="patch_1">
   <path d="
M0 72
L72 72
L72 0
L0 0
z
" style="fill:none;"/>
  </g>
  <g id="axes_1">
   <g id="PatchCollection_1">
    <defs>
     <path d="
M36 -7.5
C43.5583 -7.5 50.808 -10.5029 56.1525 -15.8475
C61.4971 -21.192 64.5 -28.4417 64.5 -36
C64.5 -43.5583 61.4971 -50.808 56.1525 -56.1525
C50.808 -61.4971 43.5583 -64.5 36 -64.5
C28.4417 -64.5 21.192 -61.4971 15.8475 -56.1525
C10.5029 -50.808 7.5 -43.5583 7.5 -36
C7.5 -28.4417 10.5029 -21.192 15.8475 -15.8475
C21.192 -10.5029 28.4417 -7.5 36 -7.5
z
" id="C0_0_a811fe30f3"/>
     <path d="
M11.3142 -50.1179
L11.4585 -49.8099
L11.6038 -49.4967
L11.7504 -49.1796
L11.8989 -48.8598
L12.0493 -48.5384
L12.202 -48.2161
L12.3569 -47.8937
L12.5143 -47.5717
L12.674 -47.2508
L12.836 -46.9313
L13.0004 -46.6137
L13.167 -46.2983
L13.3357 -45.9853
L13.5065 -45.675
L13.6792 -45.3675
L13.8537 -45.0631
L14.03 -44.7619
L14.2078 -44.464
L14.387 -44.1694
L14.5677 -43.8782
L14.7495 -43.5906
L14.9325 -43.3065
L15.1165 -43.0259
L15.3015 -42.7489
L15.4872 -42.4754
L15.6737 -42.2055
L15.8608 -41.9391
L16.0485 -41.6761
L16.2367 -41.4167
L16.4253 -41.1606
L16.6142 -40.908
L16.8035 -40.6587
L16.993 -40.4126
L17.1826 -40.1698
L17.3725 -39.9302
L17.5624 -39.6936
L17.7524 -39.4601
L17.9425 -39.2296
L18.1325 -39.002
L18.3226 -38.7773
L18.5127 -38.5554
L18.7027 -38.3361
L18.8926 -38.1196
L19.0825 -37.9056
L19.2724 -37.6941
L19.4621 -37.4851
L19.6519 -37.2785
L19.8415 -37.0742
L20.0311 -36.8722
L20.2207 -36.6724
L20.4102 -36.4747
L20.5997 -36.279
L20.7892 -36.0854
L20.9787 -35.8937
L21.1682 -35.7039
L21.3578 -35.5159
L21.5474 -35.3296
L21.7372 -35.1451
L21.927 -34.9622
L22.117 -34.7808
L22.3072 -34.601
L22.4976 -34.4227
L22.6882 -34.2458
L22.8791 -34.0703
L23.0702 -33.8961
L23.2617 -33.7231
L23.4536 -33.5514
L23.6459 -33.3808
L23.8386 -33.2114
L24.0318 -33.043
L24.2255 -32.8756
L24.4197 -32.7092
L24.6146 -32.5437
L24.8101 -32.3791
L25.0063 -32.2154
L25.4009 -32.0524
L25.5994 -31.8903
L25.7987 -31.7288
L25.999 -31.568
L26.2003 -31.4078
L26.4025 -31.2483
L26.6058 -31.0893
L26.8103 -30.9308
L27.0159 -30.7728
L27.2227 -30.6152
L27.4308 -30.4581
L27.6402 -30.3014
L27.851 -30.145
L28.0633 -29.9889
L28.277 -29.8331
L28.4924 -29.6776
L28.7093 -29.5223
L28.9279 -29.3672
L29.1483 -29.2122
L29.3704 -29.0574
L29.5945 -28.9028
L29.8204 -28.7482
L30.0484 -28.5937
L30.2784 -28.4392
L30.5106 -28.2847
L30.7449 -28.1303
L30.9816 -27.9758
L31.2205 -27.8214
L31.4619 -27.6668
L31.7057 -27.5122
L31.9521 -27.3575
L32.2011 -27.2027
L32.4528 -27.0479
L32.7072 -26.8929
L32.9645 -26.7377
L33.2246 -26.5825
L33.4877 -26.4271
L33.7538 -26.2716
L34.0231 -26.116
L34.2955 -25.9603
L34.5711 -25.8044
L34.85 -25.6484
L35.1323 -25.4923
L35.418 -25.3362
L35.7072 -25.1799
L35.9998 -25.0236
L36.2961 -24.8673
L36.596 -24.7109
L36.8995 -24.5546
L37.2067 -24.3983
L37.5177 -24.2421
L37.8323 -24.086
L38.1508 -23.9301
L38.473 -23.7743
L38.799 -23.6188
L39.1287 -23.4636
L39.4621 -23.3088
L39.7992 -23.1543
L40.14 -23.0003
L40.4843 -22.8468
L40.832 -22.6938
L41.1832 -22.5415
L41.5376 -22.3898
L41.8951 -22.2389
L42.2555 -22.0887
L42.6186 -21.9393
L42.9842 -21.7908
L43.352 -21.6432
L43.7217 -21.4964
L44.0928 -21.3505
L44.4651 -21.2055
L44.838 -21.0613
L45.2109 -20.9178
L45.5833 -20.7748
L45.9543 -20.6324
L46.3233 -20.4901
L46.6891 -20.3477
L47.0508 -20.2048
L47.407 -20.061
L47.7563 -19.9157
L48.0969 -19.768
L48.4271 -19.6172
L48.7445 -19.4621
L49.0467 -19.3016
L49.331 -19.134
L49.5944 -18.9579
L49.8338 -18.7713
L50.046 -18.5725
L50.2282 -18.3594
L50.3777 -18.1305
L50.4926 -17.8843
L50.5716 -17.6199
L50.6145 -17.337
L50.6217 -17.036
L50.5944 -16.7179
L50.5343 -16.3842
L50.4436 -16.0369
L50.3245 -15.6781
L50.1791 -15.31
L50.0098 -14.9346
L49.8184 -14.5542
L49.6069 -14.1705
L49.377 -13.7852
L49.1301 -13.3999
L48.8677 -13.0159
L48.5909 -12.6343
L48.3008 -12.2563
L47.9985 -11.8826
L47.6847 -11.5141
L47.3604 -11.1515
L47.0263 -10.7953
L46.6831 -10.446
L46.3314 -10.1042
L45.9719 -9.77016
L45.5517 -9.44422
L45.0816 -9.14828
L44.6088 -8.98567
L44.1333 -8.83128
L43.6553 -8.68518
L43.1751 -8.54739
L42.6926 -8.41797
L42.2081 -8.29695
L41.7217 -8.18437
L41.2336 -8.08026
L40.7438 -7.98465
L40.2527 -7.89758
L39.7602 -7.81907
L39.2666 -7.74914
L38.772 -7.68782
L38.2765 -7.63512
L37.7803 -7.59107
L37.2837 -7.55566
L36.7866 -7.52892
L36.2892 -7.51086
L35.7918 -7.50147
L35.2945 -7.50076
L34.7973 -7.50873
L34.3006 -7.52539
L33.8043 -7.55071
L33.3088 -7.5847
L32.814 -7.62735
L32.3202 -7.67864
L31.8275 -7.73856
L31.3361 -7.80708
L30.8462 -7.8842
L30.3577 -7.96988
L29.8711 -8.06409
L29.3862 -8.16682
L28.9034 -8.27802
L28.4228 -8.39767
L27.9444 -8.52573
L27.4686 -8.66215
L26.9953 -8.8069
L26.5247 -8.95994
L26.0571 -9.12121
L25.5924 -9.29067
L25.131 -9.46827
L24.6728 -9.65395
L24.2181 -9.84765
L23.767 -10.0493
L23.3197 -10.2589
L22.8761 -10.4763
L22.4366 -10.7015
L22.0012 -10.9344
L21.5701 -11.1749
L21.1434 -11.423
L20.7212 -11.6786
L20.3036 -11.9416
L19.8908 -12.2119
L19.483 -12.4895
L19.0802 -12.7742
L18.6825 -13.066
L18.2901 -13.3648
L17.9031 -13.6705
L17.5216 -13.9829
L17.1457 -14.3021
L16.7756 -14.6279
L16.4113 -14.9602
L16.053 -15.2989
L15.7008 -15.644
L15.3548 -15.9952
L15.015 -16.3525
L14.6816 -16.7158
L14.3548 -17.085
L14.0345 -17.4599
L13.7209 -17.8405
L13.4141 -18.2266
L13.1142 -18.6182
L12.8213 -19.015
L12.5354 -19.417
L12.2567 -19.824
L11.9851 -20.236
L11.721 -20.6528
L11.4642 -21.0742
L11.2148 -21.5002
L10.9731 -21.9307
L10.7389 -22.3654
L10.5125 -22.8042
L10.2938 -23.2471
L10.0829 -23.6939
L9.87998 -24.1444
L9.68497 -24.5985
L9.49798 -25.0561
L9.31907 -25.517
L9.14828 -25.9811
L8.98567 -26.4483
L8.83128 -26.9184
L8.68518 -27.3912
L8.54739 -27.8667
L8.41797 -28.3447
L8.29695 -28.8249
L8.18437 -29.3074
L8.08026 -29.7919
L7.98465 -30.2783
L7.89758 -30.7664
L7.81907 -31.2562
L7.74914 -31.7473
L7.68782 -32.2398
L7.63512 -32.7334
L7.59107 -33.228
L7.55566 -33.7235
L7.52892 -34.2197
L7.51086 -34.7163
L7.50147 -35.2134
L7.50076 -35.7108
L7.50873 -36.2082
L7.52539 -36.7055
L7.55071 -37.2027
L7.5847 -37.6994
L7.62735 -38.1957
L7.67864 -38.6912
L7.73856 -39.186
L7.80708 -39.6798
L7.8842 -40.1725
L7.96988 -40.6639
L8.06409 -41.1538
L8.16682 -41.6423
L8.27802 -42.1289
L8.39767 -42.6138
L8.52573 -43.0966
L8.66215 -43.5772
L8.8069 -44.0556
L8.95994 -44.5314
L9.12121 -45.0047
L9.29067 -45.4753
L9.46827 -45.9429
L9.65395 -46.4076
L9.84765 -46.869
L10.0493 -47.3272
L10.2589 -47.7819
L10.4763 -48.233
L10.7015 -48.6803
L10.9344 -49.1239
z
" id="C0_1_f5a80390fc"/>
     <path d="
M26.4208 -62.8012
L26.9023 -62.7888
L27.3787 -62.7683
L27.8496 -62.7401
L28.3147 -62.7044
L28.774 -62.6614
L29.2272 -62.6113
L29.6742 -62.5545
L30.1149 -62.4912
L30.5493 -62.4217
L30.9773 -62.3463
L31.3989 -62.2652
L31.814 -62.1786
L32.2227 -62.0869
L32.6251 -61.9903
L33.0211 -61.8889
L33.4108 -61.7831
L33.7943 -61.673
L34.1717 -61.5589
L34.5429 -61.4409
L34.9082 -61.3193
L35.2675 -61.1942
L35.621 -61.0658
L35.9689 -60.9343
L36.3111 -60.7998
L36.6479 -60.6625
L36.9792 -60.5224
L37.3053 -60.3798
L37.6262 -60.2348
L37.9421 -60.0874
L38.253 -59.9377
L38.5592 -59.7859
L38.8606 -59.6321
L39.1574 -59.4763
L39.4497 -59.3186
L39.7377 -59.1591
L40.0214 -58.9978
L40.3009 -58.8348
L40.5764 -58.6702
L40.848 -58.504
L41.1157 -58.3362
L41.3797 -58.167
L41.64 -57.9962
L41.8969 -57.824
L42.1502 -57.6504
L42.4002 -57.4754
L42.647 -57.2989
L42.8906 -57.1211
L43.1311 -56.942
L43.3687 -56.7615
L43.6033 -56.5796
L43.8351 -56.3964
L44.0641 -56.2118
L44.2905 -56.0259
L44.5142 -55.8386
L44.7355 -55.6499
L44.9543 -55.4598
L45.1707 -55.2683
L45.3848 -55.0754
L45.5966 -54.881
L45.8063 -54.6852
L46.0138 -54.4879
L46.2192 -54.289
L46.4226 -54.0885
L46.6241 -53.8865
L46.8236 -53.6828
L47.0213 -53.4775
L47.2172 -53.2705
L47.4113 -53.0617
L47.6037 -52.8512
L47.7944 -52.6388
L47.9835 -52.4246
L48.171 -52.2084
L48.3569 -51.9902
L48.5413 -51.7701
L48.7242 -51.5478
L48.9056 -51.3234
L49.0856 -51.0968
L49.2642 -50.868
L49.4414 -50.6368
L49.6172 -50.4033
L49.7917 -50.1673
L49.9648 -49.9288
L50.1367 -49.6878
L50.3072 -49.4441
L50.4764 -49.1977
L50.6444 -48.9485
L50.811 -48.6964
L50.9764 -48.4414
L51.1405 -48.1834
L51.3033 -47.9223
L51.4649 -47.658
L51.6251 -47.3904
L51.784 -47.1195
L51.9416 -46.8452
L52.0978 -46.5673
L52.2527 -46.2859
L52.4062 -46.0008
L52.5582 -45.7119
L52.7088 -45.4192
L52.8578 -45.1225
L53.0054 -44.8218
L53.1513 -44.5169
L53.2956 -44.2078
L53.4382 -43.8945
L53.5791 -43.5767
L53.7181 -43.2545
L53.8553 -42.9277
L53.9904 -42.5963
L54.1236 -42.2602
L54.2546 -41.9192
L54.3834 -41.5734
L54.5099 -41.2227
L54.634 -40.867
L54.7556 -40.5062
L54.8746 -40.1403
L54.9908 -39.7693
L55.1042 -39.3931
L55.2146 -39.0116
L55.3219 -38.6249
L55.426 -38.233
L55.5267 -37.8358
L55.6239 -37.4334
L55.7175 -37.0258
L55.8074 -36.613
L55.8933 -36.1951
L55.9752 -35.7723
L56.0529 -35.3445
L56.1263 -34.912
L56.1953 -34.4748
L56.2598 -34.0332
L56.3197 -33.5874
L56.3749 -33.1375
L56.4254 -32.684
L56.4712 -32.2272
L56.5122 -31.7673
L56.5485 -31.3048
L56.5802 -30.8402
L56.6074 -30.3741
L56.6305 -29.9071
L56.6497 -29.4397
L56.6653 -28.973
L56.678 -28.5076
L56.6884 -28.0448
L56.6974 -27.5855
L56.706 -27.1311
L56.7154 -26.6832
L56.7271 -26.2433
L56.743 -25.8134
L56.765 -25.3955
L56.7955 -24.992
L56.8371 -24.6052
L56.8925 -24.2378
L56.9645 -23.8922
L57.0557 -23.5707
L57.1683 -23.2755
L57.3041 -23.0081
L57.4639 -22.7692
L57.6479 -22.5593
L57.8554 -22.3778
L58.0849 -22.2238
L58.3346 -22.0959
L58.6023 -21.9925
L58.8856 -21.9118
L59.1822 -21.8523
L59.4899 -21.8123
L59.8067 -21.7904
L60.1307 -21.7851
L60.8917 -21.7954
L61.1301 -22.12
L61.3609 -22.5566
L61.584 -22.9972
L61.7993 -23.4418
L62.0067 -23.8902
L62.2062 -24.3423
L62.3977 -24.7979
L62.5812 -25.257
L62.7565 -25.7194
L62.9238 -26.1848
L63.0828 -26.6533
L63.2336 -27.1246
L63.376 -27.5986
L63.5102 -28.0752
L63.6359 -28.5542
L63.7533 -29.0354
L63.8622 -29.5188
L63.9626 -30.0041
L64.0544 -30.4913
L64.1378 -30.9802
L64.2125 -31.4705
L64.2787 -31.9623
L64.3363 -32.4553
L64.3852 -32.9494
L64.4255 -33.4444
L64.4571 -33.9401
L64.48 -34.4366
L64.4943 -34.9334
L64.4999 -35.4306
L64.4968 -35.928
L64.4851 -36.4254
L64.4646 -36.9227
L64.4355 -37.4197
L64.3977 -37.9163
L64.3513 -38.4122
L64.2962 -38.9075
L64.2326 -39.4018
L64.1603 -39.8951
L64.0794 -40.3873
L63.99 -40.8781
L63.8921 -41.3674
L63.7856 -41.8551
L63.6708 -42.341
L63.5474 -42.8249
L63.4157 -43.3068
L63.2756 -43.7865
L63.1273 -44.2637
L62.9706 -44.7385
L62.8058 -45.2106
L62.6328 -45.6799
L62.4516 -46.1463
L62.2624 -46.6095
L62.0652 -47.0695
L61.8601 -47.5262
L61.6471 -47.9793
L61.4263 -48.4288
L61.1977 -48.8746
L60.9615 -49.3163
L60.7176 -49.7541
L60.4663 -50.1876
L60.2074 -50.6168
L59.9412 -51.0416
L59.6677 -51.4618
L59.387 -51.8773
L59.0992 -52.2879
L58.8044 -52.6936
L58.5025 -53.0942
L58.1939 -53.4896
L57.8785 -53.8796
L57.5564 -54.2643
L57.2277 -54.6433
L56.8926 -55.0167
L56.5511 -55.3843
L56.2034 -55.7459
L55.8495 -56.1016
L55.4895 -56.4511
L55.1237 -56.7944
L54.7519 -57.1314
L54.3745 -57.4619
L53.9915 -57.7859
L53.603 -58.1033
L53.2092 -58.4139
L52.8101 -58.7177
L52.4058 -59.0146
L51.9966 -59.3045
L51.5825 -59.5872
L51.1637 -59.8628
L50.7402 -60.1312
L50.3123 -60.3921
L49.88 -60.6457
L49.4434 -60.8917
L49.0028 -61.1301
L48.5582 -61.3609
L48.1098 -61.584
L47.6577 -61.7993
L47.2021 -62.0067
L46.743 -62.2062
L46.2806 -62.3977
L45.8152 -62.5812
L45.3467 -62.7565
L44.8754 -62.9238
L44.4014 -63.0828
L43.9248 -63.2336
L43.4458 -63.376
L42.9646 -63.5102
L42.4812 -63.6359
L41.9959 -63.7533
L41.5087 -63.8622
L41.0198 -63.9626
L40.5295 -64.0544
L40.0377 -64.1378
L39.5447 -64.2125
L39.0506 -64.2787
L38.5556 -64.3363
L38.0599 -64.3852
L37.5634 -64.4255
L37.0666 -64.4571
L36.5694 -64.48
L36.072 -64.4943
L35.5746 -64.4999
L35.0773 -64.4968
L34.5803 -64.4851
L34.0837 -64.4646
L33.5878 -64.4355
L33.0925 -64.3977
L32.5982 -64.3513
L32.1049 -64.2962
L31.6127 -64.2326
L31.1219 -64.1603
L30.6326 -64.0794
L30.1449 -63.99
L29.659 -63.8921
L29.1751 -63.7856
L28.6932 -63.6708
L28.2135 -63.5474
L27.7363 -63.4157
L27.2615 -63.2756
z
" id="C0_2_5e7634b92d"/>
    </defs>
    <g clip-path="url(#p1bffca34e9)">
     <use style="fill:#ff0000;stroke:#000000;stroke-width:2.0;" x="0.0" xlink:href="#C0_0_a811fe30f3" y="72.0"/>
    </g>
    <g clip-path="url(#p1bffca34e9)">
     <use style="fill:#ffffff;stroke:#000000;stroke-width:2.0;" x="0.0" xlink:href="#C0_1_f5a80390fc" y="72.0"/>
    </g>
    <g clip-path="url(#p1bffca34e9)">
     <use style="fill:#ffffff;stroke:#000000;stroke-width:2.0;" x="0.0" xlink:href="#C0_2_5e7634b92d" y="72.0"/>
    </g>
   </g>
  </g>
 </g>
 <defs>
  <clipPath id="p1bffca34e9">
   <rect height="72.0" width="72.0" x="0.0" y="0.0"/>
  </clipPath>
 </defs>
</svg>
