<?xml version="1.0" encoding="utf-8" standalone="no"?>
<!DOCTYPE svg PUBLIC "-//W3C//DTD SVG 1.1//EN"
  "http://www.w3.org/Graphics/SVG/1.1/DTD/svg11.dtd">
<!-- Created with matplotlib (http://matplotlib.org/) -->
<svg height="72pt" version="1.1" viewBox="0 0 72 72" width="72pt" xmlns="http://www.w3.org/2000/svg" xmlns:xlink="http://www.w3.org/1999/xlink">
 <defs>
  <style type="text/css">
*{stroke-linecap:butt;stroke-linejoin:round;}
  </style>
 </defs>
 <g id="figure_1">
  <g id="patch_1">
   <path d="
M0 72
L72 72
L72 0
L0 0
z
" style="fill:none;"/>
  </g>
  <g id="axes_1">
   <g id="PatchCollection_1">
    <defs>
     <path d="
M36 -7.5
C43.5583 -7.5 50.808 -10.5029 56.1525 -15.8475
C61.4971 -21.192 64.5 -28.4417 64.5 -36
C64.5 -43.5583 61.4971 -50.808 56.1525 -56.1525
C50.808 -61.4971 43.5583 -64.5 36 -64.5
C28.4417 -64.5 21.192 -61.4971 15.8475 -56.1525
C10.5029 -50.808 7.5 -43.5583 7.5 -36
C7.5 -28.4417 10.5029 -21.192 15.8475 -15.8475
C21.192 -10.5029 28.4417 -7.5 36 -7.5
z
" id="C0_0_a811fe30f3"/>
     <path d="
M38.3282 -7.66423
L38.469 -7.85918
L38.6055 -8.05544
L38.7379 -8.25298
L38.8663 -8.45173
L38.9909 -8.65167
L39.1117 -8.85276
L39.2289 -9.05496
L39.3425 -9.25825
L39.4526 -9.46259
L39.5594 -9.66798
L39.6629 -9.87438
L39.7632 -10.0818
L39.8604 -10.2902
L39.9546 -10.4995
L40.0458 -10.7099
L40.1341 -10.9212
L40.2196 -11.1334
L40.3023 -11.3466
L40.3823 -11.5608
L40.4597 -11.7759
L40.5344 -11.9919
L40.6066 -12.209
L40.6764 -12.427
L40.7436 -12.646
L40.8085 -12.8659
L40.871 -13.0869
L40.989 -13.3088
L41.0446 -13.5318
L41.0979 -13.7558
L41.1491 -13.9809
L41.198 -14.207
L41.2448 -14.4342
L41.2895 -14.6625
L41.3321 -14.8919
L41.3725 -15.1225
L41.4109 -15.3542
L41.4472 -15.587
L41.4814 -15.8211
L41.5136 -16.0563
L41.5438 -16.2928
L41.5719 -16.5305
L41.5979 -16.7695
L41.6219 -17.0098
L41.6439 -17.2513
L41.6639 -17.4942
L41.6818 -17.7385
L41.6976 -17.9841
L41.7114 -18.2311
L41.7231 -18.4795
L41.7327 -18.7293
L41.7403 -18.9806
L41.7457 -19.2333
L41.749 -19.4874
L41.7501 -19.7431
L41.7491 -20.0002
L41.7458 -20.2588
L41.7404 -20.519
L41.7327 -20.7806
L41.7227 -21.0438
L41.7104 -21.3085
L41.6957 -21.5748
L41.6787 -21.8426
L41.6592 -22.1119
L41.6373 -22.3827
L41.6128 -22.6551
L41.5859 -22.9289
L41.5563 -23.2042
L41.5241 -23.4811
L41.4892 -23.7593
L41.4515 -24.039
L41.4111 -24.3201
L41.3678 -24.6025
L41.3215 -24.8863
L41.2723 -25.1713
L41.2201 -25.4576
L41.1647 -25.745
L41.1062 -26.0335
L41.0444 -26.3231
L40.9793 -26.6137
L40.9108 -26.9052
L40.8389 -27.1974
L40.7634 -27.4904
L40.6843 -27.784
L40.6015 -28.0782
L40.5149 -28.3727
L40.4244 -28.6675
L40.33 -28.9624
L40.2315 -29.2573
L40.1289 -29.5521
L40.0221 -29.8466
L39.911 -30.1406
L39.7954 -30.434
L39.6754 -30.7266
L39.5509 -31.0182
L39.4216 -31.3086
L39.2877 -31.5976
L39.1488 -31.885
L39.0051 -32.1705
L38.8564 -32.454
L38.7027 -32.7353
L38.5438 -33.014
L38.3797 -33.29
L38.2104 -33.563
L38.0358 -33.8328
L37.8558 -34.0991
L37.6705 -34.3617
L37.4797 -34.6204
L37.2836 -34.8749
L37.082 -35.125
L36.875 -35.3705
L36.6626 -35.6111
L36.4448 -35.8467
L36.2217 -36.077
L35.9933 -36.3018
L35.7598 -36.5211
L35.5211 -36.7346
L35.2775 -36.9421
L35.029 -37.1436
L34.7757 -37.3389
L34.5178 -37.528
L34.2555 -37.7107
L33.9889 -37.8869
L33.7181 -38.0568
L33.4435 -38.2201
L33.1651 -38.3769
L32.8832 -38.5272
L32.5981 -38.671
L32.3098 -38.8084
L32.0186 -38.9393
L31.7249 -39.0638
L31.4286 -39.1821
L31.1302 -39.2941
L30.8299 -39.4
L30.5277 -39.4998
L30.2241 -39.5937
L29.9191 -39.6817
L29.6131 -39.764
L29.3061 -39.8407
L28.9985 -39.9119
L28.6904 -39.9777
L28.3819 -40.0382
L28.0734 -40.0936
L27.7648 -40.144
L27.4565 -40.1895
L27.1486 -40.2303
L26.8412 -40.2664
L26.5345 -40.298
L26.2285 -40.3252
L25.9235 -40.3482
L25.6195 -40.3669
L25.3167 -40.3816
L25.0152 -40.3924
L24.715 -40.3993
L24.4162 -40.4025
L24.119 -40.4021
L23.8234 -40.3981
L23.5295 -40.3907
L23.2373 -40.38
L22.9469 -40.366
L22.6583 -40.3488
L22.3716 -40.3285
L22.0869 -40.3052
L21.8041 -40.279
L21.5233 -40.2499
L21.2446 -40.218
L20.9679 -40.1834
L20.6933 -40.1461
L20.4207 -40.1062
L20.1503 -40.0637
L19.882 -40.0187
L19.6157 -39.9713
L19.3516 -39.9214
L19.0896 -39.8692
L18.8297 -39.8147
L18.572 -39.7578
L18.3163 -39.6988
L18.0627 -39.6375
L17.8113 -39.574
L17.5619 -39.5084
L17.3145 -39.4407
L17.0693 -39.3708
L16.826 -39.2989
L16.5848 -39.2248
L16.3456 -39.1488
L16.1084 -39.0707
L15.8732 -38.9905
L15.64 -38.9084
L15.4087 -38.8242
L15.1793 -38.738
L14.9519 -38.6498
L14.7264 -38.5596
L14.5027 -38.4674
L14.2809 -38.3732
L14.061 -38.2769
L13.8429 -38.1786
L13.6266 -38.0783
L13.4121 -37.9759
L13.1995 -37.8715
L12.9886 -37.7649
L12.7795 -37.6563
L12.5722 -37.5455
L12.3666 -37.4326
L12.1627 -37.3175
L11.9607 -37.2001
L11.7603 -37.0806
L11.5617 -36.9587
L11.3648 -36.8346
L11.1696 -36.7081
L10.9762 -36.5792
L10.7845 -36.4479
L10.5946 -36.3141
L10.4064 -36.1778
L10.22 -36.0389
L10.0353 -35.8974
L9.85244 -35.7533
L9.67137 -35.6064
L9.49213 -35.4566
L9.31473 -35.3041
L9.1392 -35.1486
L8.96558 -34.9901
L8.79388 -34.8285
L8.62416 -34.6639
L8.45644 -34.496
L8.29078 -34.3248
L8.12721 -34.1502
L7.9658 -33.9721
L7.80659 -33.7905
L7.64965 -33.6052
L7.66709 -33.4162
L7.72519 -32.9184
L7.7919 -32.4244
L7.8672 -31.9314
L7.95108 -31.4398
L8.04349 -30.9495
L8.14442 -30.4607
L8.25384 -29.9737
L8.37171 -29.4884
L8.49799 -29.0052
L8.63266 -28.5241
L8.77565 -28.0452
L8.92694 -27.5688
L9.08648 -27.095
L9.25422 -26.6238
L9.4301 -26.1556
L9.61408 -25.6903
L9.80609 -25.2281
L10.0061 -24.7693
L10.214 -24.3138
L10.4298 -23.862
L10.6533 -23.4138
L10.8846 -22.9694
L11.1235 -22.5291
L11.37 -22.0928
L11.624 -21.6608
L11.8855 -21.2331
L12.1542 -20.8099
L12.4303 -20.3914
L12.7135 -19.9776
L13.0038 -19.5687
L13.3011 -19.1648
L13.6054 -18.766
L13.9164 -18.3725
L14.2342 -17.9843
L14.5586 -17.6016
L14.8895 -17.2246
L15.2269 -16.8532
L15.5706 -16.4877
L15.9205 -16.1282
L16.2766 -15.7746
L16.6386 -15.4273
L17.0066 -15.0862
L17.3803 -14.7515
L17.7597 -14.4232
L18.1447 -14.1016
L18.5351 -13.7866
L18.9308 -13.4783
L19.3317 -13.177
L19.7377 -12.8825
L20.1486 -12.5952
L20.5644 -12.3149
L20.9849 -12.0419
L21.4099 -11.7761
L21.8394 -11.5178
L22.2732 -11.2669
L22.7112 -11.0235
L23.1533 -10.7877
L23.5992 -10.5596
L24.049 -10.3393
L24.5023 -10.1268
L24.9592 -9.92217
L25.4194 -9.72548
L25.8829 -9.53679
L26.3494 -9.35616
L26.8189 -9.18365
L27.2912 -9.01931
L27.7661 -8.86319
L28.2435 -8.71533
L28.7233 -8.57579
L29.2054 -8.44459
L29.6895 -8.3218
L30.1755 -8.20743
L30.6632 -8.10153
L31.1527 -8.00412
L31.6435 -7.91525
L32.1357 -7.83493
L32.6291 -7.76319
L33.1236 -7.70005
L33.6188 -7.64553
L34.1149 -7.59965
L34.6115 -7.56241
L35.1085 -7.53385
L35.6058 -7.51395
L36.1032 -7.50273
L36.6005 -7.50019
L37.0977 -7.50633
L37.5946 -7.52115
z
" id="C0_1_5782065a81"/>
     <path d="
M64.2258 -38.7494
L64.0351 -38.9089
L63.842 -39.068
L63.6465 -39.2268
L63.4488 -39.3852
L63.2487 -39.5435
L63.0462 -39.7014
L62.8413 -39.8592
L62.634 -40.0168
L62.4242 -40.1742
L62.212 -40.3315
L61.9973 -40.4887
L61.7801 -40.6459
L61.5605 -40.803
L61.3383 -40.9601
L61.1135 -41.1173
L60.8863 -41.2745
L60.6564 -41.4317
L60.4241 -41.5891
L60.1892 -41.7466
L59.9517 -41.9043
L59.7117 -42.0621
L59.4691 -42.2202
L59.224 -42.3786
L58.9763 -42.5373
L58.7262 -42.6963
L58.4735 -42.8556
L58.2184 -43.0154
L57.9608 -43.1756
L57.7008 -43.3363
L57.4385 -43.4975
L57.1738 -43.6592
L56.9068 -43.8216
L56.6376 -43.9846
L56.3662 -44.1483
L56.0927 -44.3127
L55.8172 -44.478
L55.5397 -44.6441
L55.2603 -44.8111
L54.9792 -44.979
L54.6963 -45.148
L54.4119 -45.3181
L54.1259 -45.4894
L53.8387 -45.6619
L53.5501 -45.8356
L53.2605 -46.0108
L52.9699 -46.1873
L52.6785 -46.3654
L52.3864 -46.5451
L52.0937 -46.7265
L51.8007 -46.9096
L51.5074 -47.0946
L51.2141 -47.2814
L50.9209 -47.4703
L50.628 -47.6612
L50.3355 -47.8543
L50.0437 -48.0496
L49.7526 -48.2471
L49.4625 -48.447
L49.1735 -48.6493
L48.8857 -48.854
L48.5994 -49.0612
L48.3146 -49.2709
L48.0315 -49.4831
L47.7503 -49.6979
L47.4711 -49.9152
L47.1939 -50.135
L46.9188 -50.3574
L46.6461 -50.5822
L46.3757 -50.8094
L46.1077 -51.039
L45.8422 -51.2709
L45.5792 -51.505
L45.3188 -51.7411
L45.0609 -51.9793
L44.8057 -52.2193
L44.5531 -52.4611
L44.3031 -52.7044
L44.0557 -52.9492
L43.8108 -53.1953
L43.5686 -53.4426
L43.3288 -53.6908
L43.0915 -53.9399
L42.8567 -54.1895
L42.6243 -54.4397
L42.3942 -54.6902
L42.1664 -54.9408
L41.9409 -55.1914
L41.7176 -55.4418
L41.4963 -55.6919
L41.2772 -55.9415
L41.0601 -56.1905
L40.845 -56.4387
L40.6318 -56.6859
L40.4204 -56.9321
L40.2108 -57.1771
L40.003 -57.4208
L39.7969 -57.6631
L39.5924 -57.9039
L39.3895 -58.1431
L39.1881 -58.3805
L38.9883 -58.6162
L38.7899 -58.85
L38.5929 -59.0818
L38.3972 -59.3116
L38.2029 -59.5393
L38.0099 -59.7649
L37.8181 -59.9883
L37.6274 -60.2095
L37.4379 -60.4285
L37.2496 -60.6451
L37.0623 -60.8593
L36.876 -61.0713
L36.6908 -61.2808
L36.5065 -61.488
L36.3231 -61.6927
L36.1407 -61.895
L35.959 -62.0949
L35.7782 -62.2923
L35.5982 -62.4873
L35.419 -62.6798
L35.2405 -62.87
L35.0626 -63.0576
L34.8854 -63.2429
L34.7088 -63.4257
L34.5329 -63.6062
L34.3574 -63.7842
L34.1825 -63.9599
L34.0081 -64.1331
L34.3217 -64.3041
L34.8185 -64.4505
L35.3156 -64.4755
L35.813 -64.4918
L36.3104 -64.4994
L36.8077 -64.4983
L37.3048 -64.4886
L37.8015 -64.4701
L38.2976 -64.443
L38.793 -64.4072
L39.2876 -64.3628
L39.7812 -64.3097
L40.2736 -64.2481
L40.7647 -64.1778
L41.2544 -64.0989
L41.7424 -64.0115
L42.2288 -63.9155
L42.7132 -63.811
L43.1956 -63.6981
L43.6757 -63.5767
L44.1536 -63.4469
L44.6289 -63.3088
L45.1017 -63.1623
L45.5716 -63.0076
L46.0387 -62.8446
L46.5027 -62.6735
L46.9635 -62.4942
L47.4209 -62.3069
L47.8749 -62.1115
L48.3252 -61.9082
L48.7718 -61.6971
L49.2145 -61.478
L49.6532 -61.2513
L50.0877 -61.0168
L50.518 -60.7747
L50.9438 -60.5251
L51.365 -60.2679
L51.7816 -60.0034
L52.1934 -59.7316
L52.6002 -59.4526
L53.002 -59.1664
L53.3986 -58.8732
L53.7899 -58.573
L54.1758 -58.2659
L54.5562 -57.952
L54.9308 -57.6314
L55.2998 -57.3043
L55.6628 -56.9707
L56.0199 -56.6306
L56.3708 -56.2843
L56.7156 -55.9319
L57.054 -55.5733
L57.3861 -55.2088
L57.7116 -54.8384
L58.0305 -54.4623
L58.3427 -54.0806
L58.6481 -53.6933
L58.9466 -53.3007
L59.2381 -52.9028
L59.5225 -52.4998
L59.7998 -52.0917
L60.0698 -51.6787
L60.3324 -51.261
L60.5877 -50.8386
L60.8355 -50.4116
L61.0757 -49.9803
L61.3082 -49.5448
L61.5331 -49.1051
L61.7502 -48.6614
L61.9594 -48.2138
L62.1608 -47.7626
L62.3541 -47.3077
L62.5395 -46.8494
L62.7167 -46.3878
L62.8858 -45.9231
L63.0467 -45.4553
L63.1994 -44.9846
L63.3438 -44.5112
L63.4799 -44.0352
L63.6076 -43.5568
L63.7269 -43.0761
L63.8377 -42.5932
L63.9401 -42.1083
L64.0339 -41.6215
L64.1193 -41.133
L64.196 -40.643
L64.2642 -40.1515
z
" id="C0_2_808c050f6a"/>
    </defs>
    <g clip-path="url(#p1bffca34e9)">
     <use style="fill:#ff0000;stroke:#000000;stroke-width:2.0;" x="0.0" xlink:href="#C0_0_a811fe30f3" y="72.0"/>
    </g>
    <g clip-path="url(#p1bffca34e9)">
     <use style="fill:#ffffff;stroke:#000000;stroke-width:2.0;" x="0.0" xlink:href="#C0_1_5782065a81" y="72.0"/>
    </g>
    <g clip-path="url(#p1bffca34e9)">
     <use style="fill:#ffffff;stroke:#000000;stroke-width:2.0;" x="0.0" xlink:href="#C0_2_808c050f6a" y="72.0"/>
    </g>
   </g>
  </g>
 </g>
 <defs>
  <clipPath id="p1bffca34e9">
   <rect height="72.0" width="72.0" x="0.0" y="0.0"/>
  </clipPath>
 </defs>
</svg>
