<?xml version="1.0" encoding="utf-8" standalone="no"?>
<!DOCTYPE svg PUBLIC "-//W3C//DTD SVG 1.1//EN"
  "http://www.w3.org/Graphics/SVG/1.1/DTD/svg11.dtd">
<!-- Created with matplotlib (http://matplotlib.org/) -->
<svg height="72pt" version="1.1" viewBox="0 0 72 72" width="72pt" xmlns="http://www.w3.org/2000/svg" xmlns:xlink="http://www.w3.org/1999/xlink">
 <defs>
  <style type="text/css">
*{stroke-linecap:butt;stroke-linejoin:round;}
  </style>
 </defs>
 <g id="figure_1">
  <g id="patch_1">
   <path d="
M0 72
L72 72
L72 0
L0 0
z
" style="fill:none;"/>
  </g>
  <g id="axes_1">
   <g id="PatchCollection_1">
    <defs>
     <path d="
M36 -7.5
C43.5583 -7.5 50.808 -10.5029 56.1525 -15.8475
C61.4971 -21.192 64.5 -28.4417 64.5 -36
C64.5 -43.5583 61.4971 -50.808 56.1525 -56.1525
C50.808 -61.4971 43.5583 -64.5 36 -64.5
C28.4417 -64.5 21.192 -61.4971 15.8475 -56.1525
C10.5029 -50.808 7.5 -43.5583 7.5 -36
C7.5 -28.4417 10.5029 -21.192 15.8475 -15.8475
C21.192 -10.5029 28.4417 -7.5 36 -7.5
z
" id="C0_0_a811fe30f3"/>
     <path d="
M39.3595 -7.79521
L39.6112 -8.03318
L39.8337 -8.27663
L40.0264 -8.52489
L40.1888 -8.77732
L40.3209 -9.03334
L40.4229 -9.29246
L40.4957 -9.55422
L40.5401 -9.81829
L40.5576 -10.0844
L40.5498 -10.3523
L40.5184 -10.6218
L40.4653 -10.8929
L40.3924 -11.1654
L40.3017 -11.4393
L40.195 -11.7146
L40.0742 -11.9912
L39.9408 -12.2691
L39.7966 -12.5482
L39.6429 -12.8285
L39.4811 -13.1098
L39.3124 -13.3922
L39.1378 -13.6756
L38.9584 -13.9598
L38.775 -14.2447
L38.5883 -14.5303
L38.3992 -14.8164
L38.2081 -15.1029
L38.0157 -15.3898
L37.8224 -15.6768
L37.6287 -15.9638
L37.4349 -16.2509
L37.2413 -16.5377
L37.0483 -16.8243
L36.8561 -17.1105
L36.6649 -17.3963
L36.4749 -17.6815
L36.2863 -17.9661
L36.0993 -18.2499
L35.9138 -18.5329
L35.7301 -18.815
L35.5482 -19.0962
L35.3683 -19.3764
L35.1903 -19.6555
L35.0142 -19.9335
L34.8403 -20.2104
L34.6684 -20.4861
L34.4986 -20.7605
L34.3309 -21.0337
L34.1652 -21.3057
L34.0017 -21.5764
L33.8403 -21.8458
L33.681 -22.1139
L33.5237 -22.3806
L33.3684 -22.6461
L33.2152 -22.9103
L33.064 -23.1732
L32.9147 -23.4348
L32.7674 -23.6951
L32.622 -23.9542
L32.4785 -24.2121
L32.3368 -24.4687
L32.1969 -24.7242
L32.0588 -24.9785
L31.9225 -25.2316
L31.7878 -25.4837
L31.6548 -25.7347
L31.5234 -25.9846
L31.3936 -26.2336
L31.2653 -26.4815
L31.1386 -26.7286
L31.0134 -26.9747
L30.8895 -27.2201
L30.7671 -27.4646
L30.6461 -27.7083
L30.5264 -27.9513
L30.408 -28.1936
L30.2908 -28.4353
L30.1749 -28.6764
L30.0602 -28.917
L29.9466 -29.1571
L29.8342 -29.3967
L29.7228 -29.6359
L29.6126 -29.8747
L29.5033 -30.1133
L29.3951 -30.3516
L29.2879 -30.5896
L29.1816 -30.8275
L29.0762 -31.0653
L28.9717 -31.3031
L28.8681 -31.5408
L28.7654 -31.7786
L28.6634 -32.0165
L28.5623 -32.2545
L28.3622 -32.4927
L28.2633 -32.7312
L28.1651 -32.97
L28.0676 -33.2091
L27.9707 -33.4486
L27.8744 -33.6886
L27.7788 -33.9292
L27.6838 -34.1703
L27.5894 -34.412
L27.4956 -34.6544
L27.4023 -34.8976
L27.3095 -35.1415
L27.2173 -35.3863
L27.1255 -35.632
L27.0343 -35.8786
L26.9436 -36.1263
L26.8533 -36.375
L26.7635 -36.6249
L26.6741 -36.8759
L26.5852 -37.1282
L26.4967 -37.3818
L26.4087 -37.6367
L26.321 -37.893
L26.2338 -38.1508
L26.147 -38.4101
L26.0606 -38.671
L25.9746 -38.9335
L25.8891 -39.1977
L25.8039 -39.4636
L25.7191 -39.7313
L25.6347 -40.0009
L25.5508 -40.2724
L25.4672 -40.5457
L25.3841 -40.8211
L25.3014 -41.0985
L25.2191 -41.3781
L25.1372 -41.6597
L25.0558 -41.9435
L24.9748 -42.2295
L24.8943 -42.5177
L24.8143 -42.8083
L24.7347 -43.1011
L24.6557 -43.3963
L24.5771 -43.6938
L24.4991 -43.9938
L24.4216 -44.2961
L24.3447 -44.6008
L24.2683 -44.9079
L24.1925 -45.2174
L24.1173 -45.5293
L24.0427 -45.8436
L23.9686 -46.1603
L23.8953 -46.4792
L23.8225 -46.8004
L23.7503 -47.1239
L23.6788 -47.4495
L23.6078 -47.7771
L23.5375 -48.1067
L23.4677 -48.4383
L23.3985 -48.7715
L23.3298 -49.1064
L23.2615 -49.4427
L23.1936 -49.7803
L23.126 -50.1189
L23.0585 -50.4584
L22.9912 -50.7985
L22.9237 -51.1389
L22.856 -51.4793
L22.7877 -51.8193
L22.7187 -52.1587
L22.6487 -52.4968
L22.5772 -52.8334
L22.504 -53.1677
L22.4284 -53.4994
L22.35 -53.8278
L22.2682 -54.1521
L22.1823 -54.4716
L22.0914 -54.7856
L21.9947 -55.093
L21.8912 -55.3929
L21.7799 -55.6842
L21.6595 -55.9658
L21.5289 -56.2365
L21.3868 -56.4949
L21.2318 -56.7398
L21.0627 -56.9696
L20.8782 -57.183
L20.6773 -57.3785
L20.4588 -57.5549
L20.2222 -57.7107
L19.9668 -57.845
L19.6926 -57.9567
L19.3997 -58.0449
L19.0885 -58.1092
L18.7597 -58.1492
L18.4144 -58.1647
L18.0538 -58.1558
L17.6617 -58.1226
L17.2838 -57.8164
L16.9115 -57.4931
L16.5451 -57.1632
L16.1845 -56.8268
L15.8301 -56.4841
L15.4817 -56.1351
L15.1397 -55.7801
L14.8039 -55.419
L14.4746 -55.0519
L14.1519 -54.6791
L13.8359 -54.3006
L13.5266 -53.9165
L13.2241 -53.527
L12.9286 -53.1321
L12.6401 -52.732
L12.3587 -52.3268
L12.0845 -51.9166
L11.8176 -51.5016
L11.5581 -51.0818
L11.306 -50.6575
L11.0614 -50.2287
L10.8245 -49.7956
L10.5952 -49.3582
L10.3736 -48.9168
L10.1598 -48.4715
L9.95396 -48.0223
L9.75601 -47.5695
L9.56605 -47.1132
L9.38415 -46.6535
L9.21036 -46.1905
L9.04472 -45.7245
L8.8873 -45.2554
L8.73813 -44.7836
L8.59727 -44.3091
L8.46476 -43.832
L8.34063 -43.3526
L8.22493 -42.8709
L8.11769 -42.3871
L8.01894 -41.9014
L7.92872 -41.4139
L7.84704 -40.9247
L7.77395 -40.4341
L7.70945 -39.9421
L7.65357 -39.4489
L7.60632 -38.9546
L7.56772 -38.4594
L7.53778 -37.9635
L7.51651 -37.467
L7.50392 -36.9701
L7.50001 -36.4728
L7.50478 -35.9754
L7.51823 -35.478
L7.54036 -34.9808
L7.57115 -34.4839
L7.61061 -33.9874
L7.65871 -33.4916
L7.71544 -32.9965
L7.78079 -32.5023
L7.85474 -32.0092
L7.93726 -31.5173
L8.02833 -31.0268
L8.12792 -30.5378
L8.236 -30.0505
L8.35253 -29.5649
L8.47749 -29.0814
L8.61083 -28.5999
L8.75252 -28.1207
L8.9025 -27.6439
L9.06074 -27.1696
L9.22718 -26.6981
L9.40178 -26.2293
L9.58449 -25.7636
L9.77523 -25.3009
L9.97397 -24.8415
L10.1806 -24.3855
L10.3952 -23.9331
L10.6175 -23.4843
L10.8476 -23.0394
L11.0853 -22.5983
L11.3306 -22.1614
L11.5834 -21.7287
L11.8437 -21.3003
L12.1113 -20.8764
L12.3862 -20.4572
L12.6683 -20.0426
L12.9575 -19.6329
L13.2537 -19.2282
L13.5568 -18.8286
L13.8668 -18.4343
L14.1836 -18.0453
L14.5069 -17.6617
L14.8368 -17.2838
L15.1732 -16.9115
L15.5159 -16.5451
L15.8649 -16.1845
L16.2199 -15.8301
L16.581 -15.4817
L16.9481 -15.1397
L17.3209 -14.8039
L17.6994 -14.4746
L18.0835 -14.1519
L18.473 -13.8359
L18.8679 -13.5266
L19.268 -13.2241
L19.6732 -12.9286
L20.0834 -12.6401
L20.4984 -12.3587
L20.9182 -12.0845
L21.3425 -11.8176
L21.7713 -11.5581
L22.2044 -11.306
L22.6418 -11.0614
L23.0832 -10.8245
L23.5285 -10.5952
L23.9777 -10.3736
L24.4305 -10.1598
L24.8868 -9.95396
L25.3465 -9.75601
L25.8095 -9.56605
L26.2755 -9.38415
L26.7446 -9.21036
L27.2164 -9.04472
L27.6909 -8.8873
L28.168 -8.73813
L28.6474 -8.59727
L29.1291 -8.46476
L29.6129 -8.34063
L30.0986 -8.22493
L30.5861 -8.11769
L31.0753 -8.01894
L31.5659 -7.92872
L32.0579 -7.84704
L32.5511 -7.77395
L33.0454 -7.70945
L33.5406 -7.65357
L34.0365 -7.60632
L34.533 -7.56772
L35.0299 -7.53778
L35.5272 -7.51651
L36.0246 -7.50392
L36.522 -7.50001
L37.0192 -7.50478
L37.5161 -7.51823
L38.0126 -7.54036
L38.5084 -7.57115
z
" id="C0_1_5a6b797881"/>
     <path d="
M54.09 -14.2122
L54.2282 -14.5782
L54.3759 -14.9535
L54.5312 -15.3372
L54.6925 -15.7287
L54.858 -16.1271
L55.0264 -16.5318
L55.1962 -16.942
L55.3663 -17.357
L55.5356 -17.7762
L55.7031 -18.1989
L55.8681 -18.6246
L56.0298 -19.0526
L56.1877 -19.4826
L56.3412 -19.9139
L56.49 -20.3461
L56.6336 -20.7788
L56.7718 -21.2116
L56.9044 -21.644
L57.0312 -22.0759
L57.1521 -22.5067
L57.2669 -22.9363
L57.3758 -23.3644
L57.4786 -23.7907
L57.5753 -24.215
L57.666 -24.6371
L57.7507 -25.0568
L57.8295 -25.4739
L57.9024 -25.8884
L57.9697 -26.3001
L58.0312 -26.7088
L58.0873 -27.1145
L58.1379 -27.517
L58.1832 -27.9164
L58.2233 -28.3125
L58.2583 -28.7054
L58.2884 -29.0949
L58.3137 -29.4811
L58.3343 -29.8639
L58.3503 -30.2433
L58.3618 -30.6193
L58.3691 -30.992
L58.372 -31.3613
L58.3709 -31.7273
L58.3658 -32.09
L58.3567 -32.4493
L58.3439 -32.8055
L58.3274 -33.1584
L58.3072 -33.5081
L58.2836 -33.8548
L58.2566 -34.1983
L58.2262 -34.5389
L58.1925 -34.8764
L58.1557 -35.2111
L58.1158 -35.5429
L58.0728 -35.8719
L58.0269 -36.1981
L57.9781 -36.5217
L57.9264 -36.8427
L57.8719 -37.1611
L57.8146 -37.477
L57.7547 -37.7905
L57.6921 -38.1017
L57.6269 -38.4105
L57.5591 -38.7172
L57.4887 -39.0216
L57.4158 -39.324
L57.3405 -39.6243
L57.2626 -39.9227
L57.1824 -40.2191
L57.0997 -40.5137
L57.0145 -40.8065
L56.927 -41.0976
L56.8371 -41.387
L56.7448 -41.6749
L56.6501 -41.9612
L56.553 -42.246
L56.4536 -42.5294
L56.3517 -42.8114
L56.2475 -43.0921
L56.1408 -43.3716
L56.0317 -43.6499
L55.9202 -43.927
L55.8062 -44.2031
L55.6898 -44.4781
L55.5708 -44.7521
L55.4493 -45.0252
L55.3253 -45.2974
L55.1987 -45.5688
L55.0695 -45.8393
L54.9376 -46.1092
L54.8031 -46.3783
L54.6658 -46.6468
L54.5258 -46.9146
L54.3829 -47.1819
L54.2372 -47.4487
L54.0886 -47.7149
L53.937 -47.9807
L53.7824 -48.246
L53.6247 -48.5109
L53.4639 -48.7755
L53.2999 -49.0397
L53.1326 -49.3036
L52.962 -49.5672
L52.788 -49.8306
L52.6106 -50.0937
L52.4296 -50.3565
L52.245 -50.6192
L52.0567 -50.8816
L51.8646 -51.1438
L51.6687 -51.4059
L51.4688 -51.6677
L51.2649 -51.9294
L51.0569 -52.1908
L50.8447 -52.4521
L50.6282 -52.7132
L50.4073 -52.974
L50.1819 -53.2346
L49.9519 -53.4949
L49.7173 -53.7549
L49.4779 -54.0146
L49.2336 -54.2739
L48.9843 -54.5328
L48.73 -54.7912
L48.4706 -55.0492
L48.2059 -55.3065
L47.9358 -55.5632
L47.6603 -55.8192
L47.3793 -56.0744
L47.0927 -56.3288
L46.8004 -56.5822
L46.5024 -56.8345
L46.1985 -57.0856
L45.8888 -57.3355
L45.5731 -57.5839
L45.2515 -57.8309
L44.9238 -58.0762
L44.5901 -58.3196
L44.2504 -58.5612
L43.9047 -58.8007
L43.553 -59.0379
L43.1953 -59.2728
L42.8318 -59.5051
L42.4625 -59.7346
L42.0875 -59.9613
L41.7071 -60.185
L41.3213 -60.4055
L40.9305 -60.6226
L40.5348 -60.8362
L40.1346 -61.0462
L39.7303 -61.2525
L39.3223 -61.4548
L38.911 -61.6533
L38.4971 -61.8477
L38.0811 -62.0382
L37.6637 -62.2246
L37.2458 -62.4071
L36.8281 -62.5857
L36.4118 -62.7606
L35.9979 -62.9321
L35.5876 -63.1004
L35.1822 -63.266
L34.7833 -63.4292
L34.3923 -63.5906
L34.0109 -63.7508
L33.6409 -63.9105
L33.2841 -64.0706
L33.4263 -64.2317
L33.9221 -64.3836
L34.4185 -64.4242
L34.9154 -64.4561
L35.4126 -64.4794
L35.9099 -64.4939
L36.4073 -64.4999
L36.9046 -64.4971
L37.4016 -64.4856
L37.8982 -64.4655
L38.3942 -64.4367
L38.8895 -64.3993
L39.3839 -64.3531
L39.8772 -64.2984
L40.3694 -64.235
L40.8602 -64.1631
L41.3496 -64.0825
L41.8374 -63.9934
L42.3233 -63.8958
L42.8073 -63.7897
L43.2893 -63.6751
L43.769 -63.5521
L44.2464 -63.4206
L44.7213 -63.2809
L45.1935 -63.1328
L45.6629 -62.9765
L46.1293 -62.8119
L46.5927 -62.6392
L47.0529 -62.4583
L47.5097 -62.2695
L47.9629 -62.0725
L48.4126 -61.8677
L48.8584 -61.655
L49.3003 -61.4344
L49.7382 -61.2062
L50.1719 -60.9702
L50.6013 -60.7266
L51.0262 -60.4755
L51.4466 -60.217
L51.8622 -59.951
L52.2731 -59.6778
L52.6789 -59.3974
L53.0797 -59.1098
L53.4753 -58.8152
L53.8655 -58.5136
L54.2504 -58.2052
L54.6296 -57.8901
L55.0032 -57.5682
L55.371 -57.2398
L55.7329 -56.9049
L56.0888 -56.5636
L56.4385 -56.2161
L56.782 -55.8625
L57.1193 -55.5027
L57.45 -55.1371
L57.7743 -54.7656
L58.0919 -54.3884
L58.4027 -54.0055
L58.7068 -53.6172
L59.0039 -53.2236
L59.2941 -52.8247
L59.5771 -52.4206
L59.8529 -52.0116
L60.1215 -51.5977
L60.3828 -51.179
L60.6366 -50.7557
L60.8829 -50.3279
L61.1216 -49.8958
L61.3527 -49.4594
L61.576 -49.0189
L61.7916 -48.5745
L61.9993 -48.1262
L62.1991 -47.6742
L62.3909 -47.2187
L62.5746 -46.7597
L62.7503 -46.2975
L62.9178 -45.8322
L63.0771 -45.3638
L63.2282 -44.8926
L63.371 -44.4187
L63.5054 -43.9422
L63.6315 -43.4633
L63.7491 -42.9821
L63.8583 -42.4988
L63.959 -42.0136
L64.0512 -41.5264
L64.1349 -41.0376
L64.21 -40.5473
L64.2764 -40.0556
L64.3343 -39.5627
L64.3836 -39.0686
L64.4242 -38.5737
L64.4561 -38.0779
L64.4794 -37.5815
L64.4939 -37.0846
L64.4999 -36.5874
L64.4971 -36.0901
L64.4856 -35.5927
L64.4655 -35.0954
L64.4367 -34.5984
L64.3993 -34.1018
L64.3531 -33.6058
L64.2984 -33.1105
L64.235 -32.6161
L64.1631 -32.1228
L64.0825 -31.6306
L63.9934 -31.1398
L63.8958 -30.6504
L63.7897 -30.1626
L63.6751 -29.6767
L63.5521 -29.1927
L63.4206 -28.7107
L63.2809 -28.231
L63.1328 -27.7536
L62.9765 -27.2787
L62.8119 -26.8065
L62.6392 -26.3371
L62.4583 -25.8707
L62.2695 -25.4073
L62.0725 -24.9471
L61.8677 -24.4903
L61.655 -24.0371
L61.4344 -23.5874
L61.2062 -23.1416
L60.9702 -22.6997
L60.7266 -22.2618
L60.4755 -21.8281
L60.217 -21.3987
L59.951 -20.9738
L59.6778 -20.5534
L59.3974 -20.1378
L59.1098 -19.7269
L58.8152 -19.3211
L58.5136 -18.9203
L58.2052 -18.5247
L57.8901 -18.1345
L57.5682 -17.7496
L57.2398 -17.3704
L56.9049 -16.9968
L56.5636 -16.629
L56.2161 -16.2671
L55.8625 -15.9112
L55.5027 -15.5615
L55.1371 -15.218
L54.7656 -14.8807
z
" id="C0_2_6b2f376379"/>
    </defs>
    <g clip-path="url(#p1bffca34e9)">
     <use style="fill:#ff0000;stroke:#000000;stroke-width:2.0;" x="0.0" xlink:href="#C0_0_a811fe30f3" y="72.0"/>
    </g>
    <g clip-path="url(#p1bffca34e9)">
     <use style="fill:#ffffff;stroke:#000000;stroke-width:2.0;" x="0.0" xlink:href="#C0_1_5a6b797881" y="72.0"/>
    </g>
    <g clip-path="url(#p1bffca34e9)">
     <use style="fill:#ffffff;stroke:#000000;stroke-width:2.0;" x="0.0" xlink:href="#C0_2_6b2f376379" y="72.0"/>
    </g>
   </g>
  </g>
 </g>
 <defs>
  <clipPath id="p1bffca34e9">
   <rect height="72.0" width="72.0" x="0.0" y="0.0"/>
  </clipPath>
 </defs>
</svg>
