<?xml version="1.0" encoding="utf-8" standalone="no"?>
<!DOCTYPE svg PUBLIC "-//W3C//DTD SVG 1.1//EN"
  "http://www.w3.org/Graphics/SVG/1.1/DTD/svg11.dtd">
<!-- Created with matplotlib (http://matplotlib.org/) -->
<svg height="72pt" version="1.1" viewBox="0 0 72 72" width="72pt" xmlns="http://www.w3.org/2000/svg" xmlns:xlink="http://www.w3.org/1999/xlink">
 <defs>
  <style type="text/css">
*{stroke-linecap:butt;stroke-linejoin:round;}
  </style>
 </defs>
 <g id="figure_1">
  <g id="patch_1">
   <path d="
M0 72
L72 72
L72 0
L0 0
z
" style="fill:none;"/>
  </g>
  <g id="axes_1">
   <g id="PatchCollection_1">
    <defs>
     <path d="
M36 -7.5
C43.5583 -7.5 50.808 -10.5029 56.1525 -15.8475
C61.4971 -21.192 64.5 -28.4417 64.5 -36
C64.5 -43.5583 61.4971 -50.808 56.1525 -56.1525
C50.808 -61.4971 43.5583 -64.5 36 -64.5
C28.4417 -64.5 21.192 -61.4971 15.8475 -56.1525
C10.5029 -50.808 7.5 -43.5583 7.5 -36
C7.5 -28.4417 10.5029 -21.192 15.8475 -15.8475
C21.192 -10.5029 28.4417 -7.5 36 -7.5
z
" id="C0_0_a811fe30f3"/>
     <path d="
M51.7216 -59.6345
L51.5072 -59.4884
L51.3159 -59.3186
L51.1465 -59.1268
L50.9975 -58.9144
L50.8669 -58.6831
L50.753 -58.4347
L50.6539 -58.1709
L50.5675 -57.8933
L50.4922 -57.6034
L50.4263 -57.3028
L50.3681 -56.9927
L50.3165 -56.6745
L50.2701 -56.3492
L50.2278 -56.018
L50.1889 -55.6817
L50.1523 -55.3411
L50.1175 -54.9971
L50.0838 -54.6504
L50.0508 -54.3015
L50.018 -53.951
L49.9851 -53.5994
L49.9518 -53.2472
L49.9178 -52.8947
L49.8829 -52.5424
L49.847 -52.1906
L49.8099 -51.8395
L49.7716 -51.4895
L49.732 -51.1407
L49.691 -50.7933
L49.6486 -50.4476
L49.6047 -50.1038
L49.5594 -49.7619
L49.5126 -49.4221
L49.4644 -49.0845
L49.4148 -48.7492
L49.3638 -48.4162
L49.3114 -48.0857
L49.2577 -47.7577
L49.2026 -47.4322
L49.1463 -47.1093
L49.0887 -46.7889
L49.03 -46.4712
L48.97 -46.1561
L48.9089 -45.8436
L48.8467 -45.5337
L48.7834 -45.2264
L48.7191 -44.9217
L48.6537 -44.6196
L48.5874 -44.32
L48.5202 -44.0229
L48.452 -43.7282
L48.383 -43.436
L48.3131 -43.1462
L48.2423 -42.8587
L48.1707 -42.5735
L48.0983 -42.2906
L48.0252 -42.0098
L47.9512 -41.7312
L47.8766 -41.4548
L47.8011 -41.1803
L47.725 -40.9079
L47.6482 -40.6374
L47.5706 -40.3687
L47.4924 -40.1019
L47.4135 -39.8368
L47.3339 -39.5735
L47.2536 -39.3118
L47.1726 -39.0517
L47.091 -38.7931
L47.0087 -38.5359
L46.9257 -38.2802
L46.842 -38.0259
L46.7577 -37.7728
L46.6726 -37.5209
L46.5869 -37.2703
L46.5005 -37.0207
L46.4133 -36.7722
L46.3255 -36.5247
L46.2369 -36.2781
L46.1476 -36.0324
L46.0575 -35.7875
L45.9667 -35.5434
L45.875 -35.3
L45.7826 -35.0572
L45.6894 -34.815
L45.5953 -34.5734
L45.5004 -34.3322
L45.308 -34.0915
L45.2104 -33.8511
L45.1119 -33.6111
L45.0124 -33.3713
L44.912 -33.1317
L44.8105 -32.8923
L44.708 -32.6529
L44.6045 -32.4136
L44.4999 -32.1743
L44.3941 -31.9349
L44.2873 -31.6954
L44.1792 -31.4557
L44.0699 -31.2159
L43.9594 -30.9757
L43.8477 -30.7352
L43.7346 -30.4943
L43.6202 -30.2531
L43.5044 -30.0113
L43.3872 -29.769
L43.2685 -29.5262
L43.1483 -29.2827
L43.0266 -29.0386
L42.9034 -28.7938
L42.7785 -28.5482
L42.652 -28.3018
L42.5237 -28.0545
L42.3938 -27.8064
L42.262 -27.5573
L42.1284 -27.3073
L41.9929 -27.0562
L41.8555 -26.8041
L41.7162 -26.551
L41.5748 -26.2967
L41.4313 -26.0412
L41.2858 -25.7846
L41.1381 -25.5267
L40.9881 -25.2676
L40.836 -25.0072
L40.6815 -24.7456
L40.5247 -24.4826
L40.3655 -24.2183
L40.2038 -23.9526
L40.0397 -23.6856
L39.8731 -23.4172
L39.7039 -23.1474
L39.5322 -22.8763
L39.3578 -22.6038
L39.1808 -22.33
L39.0011 -22.0548
L38.8187 -21.7782
L38.6337 -21.5004
L38.4459 -21.2213
L38.2554 -20.9409
L38.0623 -20.6593
L37.8664 -20.3766
L37.668 -20.0927
L37.4669 -19.8078
L37.2632 -19.5219
L37.0571 -19.2351
L36.8486 -18.9474
L36.6378 -18.659
L36.4248 -18.3699
L36.2099 -18.0802
L35.9931 -17.7901
L35.7747 -17.4995
L35.5549 -17.2088
L35.3341 -16.9179
L35.1125 -16.627
L34.8906 -16.3362
L34.6687 -16.0457
L34.4475 -15.7555
L34.2274 -15.4659
L34.0092 -15.1768
L33.7935 -14.8886
L33.5814 -14.6012
L33.3736 -14.3147
L33.1714 -14.0294
L32.976 -13.7452
L32.7888 -13.4622
L32.6114 -13.1805
L32.4454 -12.9
L32.2929 -12.6209
L32.1559 -12.3431
L32.0366 -12.0665
L31.9373 -11.7912
L31.8604 -11.517
L31.8082 -11.244
L31.783 -10.9722
L31.7868 -10.7015
L31.8214 -10.4321
L31.888 -10.1642
L31.9875 -9.89798
L32.1203 -9.63389
L32.2862 -9.37239
L32.4846 -9.11405
L32.7142 -8.85952
L32.9739 -8.60952
L33.2619 -8.3648
L33.5765 -8.12612
L33.9157 -7.89425
L34.4052 -7.66991
L34.902 -7.54466
L35.3992 -7.52116
L35.8966 -7.50633
L36.394 -7.50019
L36.8913 -7.50272
L37.3883 -7.51394
L37.8849 -7.53383
L38.3809 -7.5624
L38.8762 -7.59963
L39.3706 -7.6455
L39.864 -7.70002
L40.3562 -7.76316
L40.8471 -7.83489
L41.3365 -7.91521
L41.8243 -8.00408
L42.3103 -8.10148
L42.7944 -8.20738
L43.2764 -8.32174
L43.7562 -8.44453
L44.2337 -8.57572
L44.7086 -8.71526
L45.1809 -8.86311
L45.6503 -9.01923
L46.1169 -9.18357
L46.5803 -9.35608
L47.0406 -9.5367
L47.4975 -9.72538
L47.9508 -9.92207
L48.4006 -10.1267
L48.8465 -10.3392
L49.2886 -10.5595
L49.7265 -10.7876
L50.1604 -11.0234
L50.5899 -11.2667
L51.0149 -11.5176
L51.4354 -11.776
L51.8512 -12.0417
L52.2621 -12.3148
L52.6681 -12.595
L53.069 -12.8824
L53.4648 -13.1768
L53.8552 -13.4782
L54.2401 -13.7864
L54.6195 -14.1014
L54.9933 -14.4231
L55.3612 -14.7513
L55.7233 -15.086
L56.0793 -15.4271
L56.4292 -15.7745
L56.7729 -16.128
L57.1103 -16.4876
L57.4412 -16.8531
L57.7657 -17.2244
L58.0834 -17.6015
L58.3945 -17.9841
L58.6987 -18.3723
L58.9961 -18.7658
L59.2864 -19.1646
L59.5696 -19.5685
L59.8456 -19.9774
L60.1144 -20.3912
L60.3759 -20.8097
L60.6299 -21.2329
L60.8764 -21.6605
L61.1153 -22.0926
L61.3466 -22.5288
L61.5701 -22.9692
L61.7859 -23.4136
L61.9938 -23.8617
L62.1938 -24.3136
L62.3858 -24.7691
L62.5698 -25.2279
L62.7457 -25.69
L62.9134 -26.1553
L63.073 -26.6236
L63.2243 -27.0947
L63.3673 -27.5686
L63.5019 -28.045
L63.6282 -28.5238
L63.7461 -29.0049
L63.8555 -29.4882
L63.9565 -29.9734
L64.0489 -30.4605
L64.1328 -30.9492
L64.2081 -31.4395
L64.2748 -31.9312
L64.3329 -32.4241
L64.3823 -32.9181
L64.4232 -33.4131
L64.4553 -33.9088
L64.4788 -34.4052
L64.4937 -34.902
L64.4998 -35.3992
L64.4973 -35.8966
L64.4861 -36.394
L64.4662 -36.8913
L64.4376 -37.3883
L64.4004 -37.8849
L64.3545 -38.3809
L64.3 -38.8762
L64.2368 -39.3706
L64.1651 -39.864
L64.0848 -40.3562
L63.9959 -40.8471
L63.8985 -41.3365
L63.7926 -41.8243
L63.6783 -42.3103
L63.5555 -42.7944
L63.4243 -43.2764
L63.2847 -43.7562
L63.1369 -44.2337
L62.9808 -44.7086
L62.8164 -45.1809
L62.6439 -45.6503
L62.4633 -46.1169
L62.2746 -46.5803
L62.0779 -47.0406
L61.8733 -47.4975
L61.6608 -47.9508
L61.4405 -48.4006
L61.2124 -48.8465
L60.9766 -49.2886
L60.7333 -49.7265
L60.4824 -50.1604
L60.224 -50.5899
L59.9583 -51.0149
L59.6852 -51.4354
L59.405 -51.8512
L59.1176 -52.2621
L58.8232 -52.6681
L58.5218 -53.069
L58.2136 -53.4648
L57.8986 -53.8552
L57.5769 -54.2401
L57.2487 -54.6195
L56.914 -54.9933
L56.5729 -55.3612
L56.2255 -55.7233
L55.872 -56.0793
L55.5124 -56.4292
L55.1469 -56.7729
L54.7756 -57.1103
L54.3985 -57.4412
L54.0159 -57.7657
L53.6277 -58.0834
L53.2342 -58.3945
L52.8354 -58.6987
L52.4315 -58.9961
z
" id="C0_1_307a0c0c71"/>
     <path d="
M37.7106 -64.35
L37.313 -64.182
L36.9073 -64.0112
L36.4954 -63.8372
L36.079 -63.6595
L35.6595 -63.4778
L35.2385 -63.2919
L34.8169 -63.1015
L34.396 -62.9067
L33.9767 -62.7074
L33.5597 -62.5035
L33.1458 -62.2952
L32.7357 -62.0826
L32.3297 -61.8657
L31.9284 -61.6448
L31.5323 -61.42
L31.1415 -61.1915
L30.7564 -60.9594
L30.3773 -60.724
L30.0042 -60.4854
L29.6374 -60.2439
L29.2769 -59.9997
L28.9229 -59.7529
L28.5754 -59.5037
L28.2344 -59.2524
L27.8999 -58.999
L27.572 -58.7439
L27.2505 -58.4871
L26.9355 -58.2288
L26.6269 -57.9691
L26.3247 -57.7083
L26.0287 -57.4463
L25.7389 -57.1834
L25.4553 -56.9197
L25.1776 -56.6552
L24.9058 -56.3902
L24.6398 -56.1245
L24.3796 -55.8585
L24.1249 -55.5921
L23.8757 -55.3253
L23.6319 -55.0584
L23.3934 -54.7912
L23.16 -54.5239
L22.9316 -54.2566
L22.7082 -53.9892
L22.4896 -53.7217
L22.2757 -53.4543
L22.0664 -53.187
L21.8616 -52.9197
L21.6612 -52.6524
L21.4651 -52.3853
L21.2732 -52.1182
L21.0854 -51.8513
L20.9016 -51.5844
L20.7217 -51.3176
L20.5456 -51.0508
L20.3733 -50.7842
L20.2046 -50.5175
L20.0395 -50.2509
L19.8779 -49.9844
L19.7196 -49.7178
L19.5647 -49.4511
L19.4131 -49.1845
L19.2647 -48.9177
L19.1194 -48.6508
L18.9771 -48.3837
L18.8379 -48.1165
L18.7016 -47.849
L18.5682 -47.5813
L18.4376 -47.3133
L18.3098 -47.0449
L18.1848 -46.7761
L18.0624 -46.5069
L17.9427 -46.2373
L17.8255 -45.9671
L17.711 -45.6964
L17.599 -45.425
L17.4894 -45.153
L17.3824 -44.8803
L17.2778 -44.6068
L17.1755 -44.3325
L17.0757 -44.0573
L16.9783 -43.7812
L16.8832 -43.5041
L16.7904 -43.226
L16.7 -42.9468
L16.6119 -42.6664
L16.5261 -42.3848
L16.4425 -42.102
L16.3613 -41.8178
L16.2824 -41.5322
L16.2058 -41.2452
L16.1314 -40.9567
L16.0594 -40.6665
L15.9897 -40.3748
L15.9224 -40.0813
L15.8574 -39.7861
L15.7948 -39.489
L15.7346 -39.1901
L15.6767 -38.8891
L15.6214 -38.5862
L15.5685 -38.2811
L15.5181 -37.9739
L15.4703 -37.6644
L15.4251 -37.3527
L15.3825 -37.0386
L15.3426 -36.7221
L15.3055 -36.4031
L15.2711 -36.0815
L15.2396 -35.7573
L15.211 -35.4305
L15.1854 -35.1009
L15.1629 -34.7685
L15.1434 -34.4332
L15.1272 -34.0951
L15.1142 -33.7539
L15.1046 -33.4098
L15.0985 -33.0626
L15.0959 -32.7122
L15.0969 -32.3588
L15.1017 -32.0021
L15.1103 -31.6422
L15.1229 -31.279
L15.1395 -30.9126
L15.1604 -30.5428
L15.1854 -30.1698
L15.2149 -29.7934
L15.2489 -29.4137
L15.2876 -29.0307
L15.331 -28.6444
L15.3792 -28.2549
L15.4325 -27.8621
L15.4909 -27.4662
L15.5546 -27.0671
L15.6236 -26.6649
L15.698 -26.2599
L15.778 -25.8519
L15.8636 -25.4412
L15.955 -25.0279
L16.0522 -24.6121
L16.1553 -24.194
L16.2643 -23.7738
L16.3792 -23.3517
L16.5 -22.9279
L16.6267 -22.5027
L16.7592 -22.0763
L16.8975 -21.6491
L17.0413 -21.2213
L17.1905 -20.7933
L17.3448 -20.3655
L17.504 -19.9383
L17.6675 -19.5121
L17.8349 -19.0875
L18.0056 -18.6649
L18.179 -18.2448
L18.3542 -17.8279
L18.5302 -17.4147
L18.706 -17.006
L18.8802 -16.6023
L19.0515 -16.2045
L19.2182 -15.8133
L19.3784 -15.4294
L19.5302 -15.0538
L19.6714 -14.6873
L19.7997 -14.3306
L19.9129 -13.9847
L20.0085 -13.6504
L20.0842 -13.3284
L20.1381 -13.0194
L20.1682 -12.724
L19.696 -12.4427
L19.2905 -12.6242
L18.8901 -12.9123
L18.4949 -13.2074
L18.1051 -13.5095
L17.7207 -13.8184
L17.3419 -14.1341
L16.9687 -14.4565
L16.6014 -14.7854
L16.2399 -15.1207
L15.8845 -15.4625
L15.5352 -15.8105
L15.1922 -16.1646
L14.8554 -16.5248
L14.5252 -16.8909
L14.2014 -17.2628
L13.8843 -17.6405
L13.574 -18.0237
L13.2704 -18.4124
L12.9738 -18.8065
L12.6842 -19.2058
L12.4017 -19.6102
L12.1264 -20.0196
L11.8584 -20.4339
L11.5977 -20.8529
L11.3445 -21.2766
L11.0988 -21.7047
L10.8606 -22.1372
L10.6301 -22.5739
L10.4074 -23.0146
L10.1924 -23.4594
L9.98529 -23.9079
L9.78611 -24.3602
L9.59492 -24.816
L9.41177 -25.2752
L9.23671 -25.7376
L9.06981 -26.2032
L8.91111 -26.6718
L8.76067 -27.1432
L8.61852 -27.6173
L8.48471 -28.094
L8.35929 -28.5731
L8.24228 -29.0544
L8.13373 -29.5379
L8.03366 -30.0233
L7.94212 -30.5106
L7.85912 -30.9995
L7.78469 -31.4899
L7.71886 -31.9817
L7.66165 -32.4748
L7.61306 -32.9689
L7.57312 -33.4639
L7.54185 -33.9597
L7.51924 -34.4561
L7.5053 -34.953
L7.50005 -35.4503
L7.50347 -35.9476
L7.51558 -36.445
L7.53637 -36.9423
L7.56582 -37.4393
L7.60394 -37.9358
L7.6507 -38.4318
L7.7061 -38.927
L7.77012 -39.4213
L7.84274 -39.9146
L7.92393 -40.4067
L8.01368 -40.8974
L8.11195 -41.3867
L8.21872 -41.8743
L8.33395 -42.3601
L8.45761 -42.844
L8.58966 -43.3258
L8.73005 -43.8053
L8.87876 -44.2825
L9.03572 -44.7572
L9.2009 -45.2292
L9.37424 -45.6984
L9.55569 -46.1646
L9.7452 -46.6277
L9.9427 -47.0876
L10.1481 -47.5441
L10.3615 -47.9971
L10.5826 -48.4465
L10.8115 -48.8921
L11.048 -49.3337
L11.2921 -49.7713
L11.5438 -50.2046
L11.8029 -50.6337
L12.0694 -51.0583
L12.3432 -51.4783
L12.6242 -51.8936
L12.9123 -52.304
L13.2074 -52.7095
L13.5095 -53.1099
L13.8184 -53.5051
L14.1341 -53.8949
L14.4565 -54.2793
L14.7854 -54.6581
L15.1207 -55.0313
L15.4625 -55.3986
L15.8105 -55.7601
L16.1646 -56.1155
L16.5248 -56.4648
L16.8909 -56.8078
L17.2628 -57.1446
L17.6405 -57.4748
L18.0237 -57.7986
L18.4124 -58.1157
L18.8065 -58.426
L19.2058 -58.7296
L19.6102 -59.0262
L20.0196 -59.3158
L20.4339 -59.5983
L20.8529 -59.8736
L21.2766 -60.1416
L21.7047 -60.4023
L22.1372 -60.6555
L22.5739 -60.9012
L23.0146 -61.1394
L23.4594 -61.3699
L23.9079 -61.5926
L24.3602 -61.8076
L24.816 -62.0147
L25.2752 -62.2139
L25.7376 -62.4051
L26.2032 -62.5882
L26.6718 -62.7633
L27.1432 -62.9302
L27.6173 -63.0889
L28.094 -63.2393
L28.5731 -63.3815
L29.0544 -63.5153
L29.5379 -63.6407
L30.0233 -63.7577
L30.5106 -63.8663
L30.9995 -63.9663
L31.4899 -64.0579
L31.9817 -64.1409
L32.4748 -64.2153
L32.9689 -64.2811
L33.4639 -64.3384
L33.9597 -64.3869
L34.4561 -64.4269
L34.953 -64.4582
L35.4503 -64.4808
L35.9476 -64.4947
L36.445 -64.5
L36.9423 -64.4965
z
" id="C0_2_1b0e127736"/>
    </defs>
    <g clip-path="url(#p1bffca34e9)">
     <use style="fill:#ff0000;stroke:#000000;stroke-width:2.0;" x="0.0" xlink:href="#C0_0_a811fe30f3" y="72.0"/>
    </g>
    <g clip-path="url(#p1bffca34e9)">
     <use style="fill:#ffffff;stroke:#000000;stroke-width:2.0;" x="0.0" xlink:href="#C0_1_307a0c0c71" y="72.0"/>
    </g>
    <g clip-path="url(#p1bffca34e9)">
     <use style="fill:#ffffff;stroke:#000000;stroke-width:2.0;" x="0.0" xlink:href="#C0_2_1b0e127736" y="72.0"/>
    </g>
   </g>
  </g>
 </g>
 <defs>
  <clipPath id="p1bffca34e9">
   <rect height="72.0" width="72.0" x="0.0" y="0.0"/>
  </clipPath>
 </defs>
</svg>
