<?xml version="1.0" encoding="utf-8" standalone="no"?>
<!DOCTYPE svg PUBLIC "-//W3C//DTD SVG 1.1//EN"
  "http://www.w3.org/Graphics/SVG/1.1/DTD/svg11.dtd">
<!-- Created with matplotlib (http://matplotlib.org/) -->
<svg height="72pt" version="1.1" viewBox="0 0 72 72" width="72pt" xmlns="http://www.w3.org/2000/svg" xmlns:xlink="http://www.w3.org/1999/xlink">
 <defs>
  <style type="text/css">
*{stroke-linecap:butt;stroke-linejoin:round;}
  </style>
 </defs>
 <g id="figure_1">
  <g id="patch_1">
   <path d="
M0 72
L72 72
L72 0
L0 0
z
" style="fill:none;"/>
  </g>
  <g id="axes_1">
   <g id="PatchCollection_1">
    <defs>
     <path d="
M36 -7.5
C43.5583 -7.5 50.808 -10.5029 56.1525 -15.8475
C61.4971 -21.192 64.5 -28.4417 64.5 -36
C64.5 -43.5583 61.4971 -50.808 56.1525 -56.1525
C50.808 -61.4971 43.5583 -64.5 36 -64.5
C28.4417 -64.5 21.192 -61.4971 15.8475 -56.1525
C10.5029 -50.808 7.5 -43.5583 7.5 -36
C7.5 -28.4417 10.5029 -21.192 15.8475 -15.8475
C21.192 -10.5029 28.4417 -7.5 36 -7.5
z
" id="C0_0_a811fe30f3"/>
     <path d="
M29.0797 -45.5327
L28.9135 -45.3306
L28.7483 -45.1274
L28.5842 -44.9232
L28.421 -44.7177
L28.2589 -44.511
L28.0977 -44.3031
L27.9375 -44.0939
L27.7781 -43.8832
L27.6196 -43.6712
L27.4619 -43.4577
L27.305 -43.2427
L27.1489 -43.0261
L26.9936 -42.8079
L26.839 -42.5879
L26.6852 -42.3663
L26.532 -42.1428
L26.3795 -41.9174
L26.2277 -41.69
L26.0766 -41.4607
L25.9261 -41.2293
L25.7762 -40.9958
L25.627 -40.7601
L25.4784 -40.5221
L25.3305 -40.2817
L25.1831 -40.039
L25.0364 -39.7938
L24.8904 -39.546
L24.745 -39.2956
L24.6002 -39.0426
L24.4562 -38.7867
L24.3128 -38.528
L24.1701 -38.2665
L24.0282 -38.0019
L23.887 -37.7342
L23.7466 -37.4635
L23.607 -37.1895
L23.4684 -36.9122
L23.3306 -36.6316
L23.1938 -36.3476
L23.058 -36.06
L22.9232 -35.7689
L22.7897 -35.4742
L22.6573 -35.1758
L22.5262 -34.8736
L22.3965 -34.5675
L22.2683 -34.2576
L22.1416 -33.9438
L22.0166 -33.6259
L21.8933 -33.304
L21.772 -32.9781
L21.6527 -32.648
L21.5356 -32.3138
L21.4208 -31.9754
L21.3085 -31.6329
L21.1989 -31.2861
L21.0921 -30.9352
L20.9884 -30.5801
L20.8879 -30.2208
L20.7909 -29.8575
L20.6976 -29.49
L20.6083 -29.1186
L20.5232 -28.7433
L20.4427 -28.3641
L20.367 -27.9813
L20.2964 -27.5949
L20.2314 -27.2051
L20.1723 -26.812
L20.1195 -26.416
L20.0734 -26.0172
L20.0346 -25.6159
L20.0034 -25.2124
L19.9805 -24.8071
L19.9664 -24.4004
L19.9617 -23.9926
L19.9672 -23.5844
L19.9835 -23.1762
L20.0116 -22.7687
L20.0521 -22.3626
L20.1061 -21.9586
L20.1745 -21.5575
L20.2585 -21.1604
L20.359 -20.7682
L20.4773 -20.382
L20.6145 -20.0031
L20.7716 -19.6326
L20.9497 -19.2719
L21.1497 -18.9222
L21.3721 -18.5847
L21.6173 -18.2607
L21.8854 -17.9511
L22.1761 -17.6569
L22.4886 -17.3786
L22.8219 -17.1168
L23.1747 -16.8717
L23.5455 -16.6434
L23.9326 -16.4317
L24.3342 -16.2364
L24.7486 -16.0572
L25.174 -15.8937
L25.6088 -15.7454
L26.0515 -15.6117
L26.5005 -15.4923
L26.9547 -15.3865
L27.4127 -15.294
L27.8736 -15.214
L28.3362 -15.1463
L28.7998 -15.0903
L29.2635 -15.0455
L29.7265 -15.0116
L30.1884 -14.9879
L30.6484 -14.9742
L31.1061 -14.97
L31.561 -14.9749
L32.0128 -14.9885
L32.461 -15.0104
L32.9054 -15.0403
L33.3457 -15.0778
L33.7817 -15.1226
L34.2131 -15.1744
L34.6397 -15.2328
L35.0615 -15.2975
L35.4783 -15.3682
L35.8901 -15.4446
L36.2966 -15.5266
L36.698 -15.6137
L37.094 -15.7058
L37.4848 -15.8027
L37.8703 -15.904
L38.2504 -16.0096
L38.6253 -16.1193
L38.9949 -16.2328
L39.3592 -16.3501
L39.7183 -16.4708
L40.0723 -16.5949
L40.4212 -16.7222
L40.7651 -16.8525
L41.1039 -16.9857
L41.4379 -17.1216
L41.767 -17.2602
L42.0914 -17.4013
L42.411 -17.5448
L42.7261 -17.6907
L43.0367 -17.8387
L43.3428 -17.9889
L43.6446 -18.1411
L43.9421 -18.2953
L44.2355 -18.4514
L44.5247 -18.6093
L44.81 -18.769
L45.0913 -18.9305
L45.3688 -19.0936
L45.6426 -19.2583
L45.9127 -19.4246
L46.1792 -19.5925
L46.4423 -19.762
L46.7019 -19.9329
L46.9582 -20.1053
L47.2113 -20.2792
L47.4611 -20.4546
L47.7079 -20.6314
L47.9517 -20.8096
L48.1925 -20.9892
L48.4304 -21.1703
L48.6655 -21.3528
L48.8978 -21.5368
L49.1275 -21.7222
L49.3546 -21.909
L49.5791 -22.0973
L49.8011 -22.2871
L50.0207 -22.4784
L50.2379 -22.6713
L50.4528 -22.8656
L50.6654 -23.0615
L50.8758 -23.2591
L51.0841 -23.4582
L51.2902 -23.659
L51.4942 -23.8615
L51.6962 -24.0658
L51.8962 -24.2718
L52.0942 -24.4796
L52.2903 -24.6892
L52.4846 -24.9008
L52.6769 -25.1143
L52.8675 -25.3297
L53.0562 -25.5472
L53.2432 -25.7668
L53.4285 -25.9886
L53.612 -26.2125
L53.7937 -26.4387
L53.9738 -26.6673
L54.1523 -26.8982
L54.329 -27.1315
L54.5041 -27.3674
L54.6775 -27.6058
L54.8492 -27.8469
L55.0193 -28.0907
L55.1877 -28.3372
L55.3545 -28.5867
L55.5195 -28.8391
L55.6829 -29.0945
L55.8445 -29.353
L56.0044 -29.6147
L56.1625 -29.8796
L56.3189 -30.1479
L56.4733 -30.4197
L56.626 -30.6949
L56.7766 -30.9738
L56.9254 -31.2564
L57.0721 -31.5427
L57.2167 -31.833
L57.3591 -32.1272
L57.4994 -32.4255
L57.6373 -32.728
L57.7729 -33.0347
L57.906 -33.3458
L58.0365 -33.6614
L58.1644 -33.9815
L58.2895 -34.3062
L58.4116 -34.6357
L58.5308 -34.97
L58.6467 -35.3092
L58.7594 -35.6534
L58.8686 -36.0027
L58.9742 -36.3571
L59.0759 -36.7168
L59.1737 -37.0818
L59.2673 -37.4522
L59.3565 -37.828
L59.4411 -38.2093
L59.5209 -38.5962
L59.5956 -38.9886
L59.6651 -39.3866
L59.7289 -39.7902
L59.7869 -40.1994
L59.8388 -40.6142
L59.8842 -41.0346
L59.9229 -41.4605
L59.9546 -41.8919
L59.9789 -42.3286
L59.9954 -42.7706
L60.0039 -43.2177
L60.0039 -43.6698
L59.9951 -44.1266
L59.977 -44.588
L59.9494 -45.0537
L59.9118 -45.5234
L59.8638 -45.9967
L59.8049 -46.4733
L59.7348 -46.9526
L59.653 -47.4343
L59.5592 -47.9177
L59.4529 -48.4022
L59.3336 -48.8871
L59.2011 -49.3716
L59.0549 -49.8548
L58.8946 -50.3357
L58.7198 -50.8133
L58.5304 -51.2863
L58.3259 -51.7535
L58.1061 -52.2133
L57.8709 -52.6643
L57.6201 -53.1047
L57.3537 -53.5327
L57.0718 -53.9464
L56.7746 -54.344
L56.4624 -54.7236
L56.1356 -55.0832
L55.795 -55.4213
L55.4414 -55.7363
L55.0757 -56.0272
L54.699 -56.2932
L54.3125 -56.5338
L53.9175 -56.7491
L53.5153 -56.9394
L53.1071 -57.1054
L52.6942 -57.2479
L52.2778 -57.3681
L51.8588 -57.4671
L51.4384 -57.5461
L51.0173 -57.6064
L50.5964 -57.6492
L50.1764 -57.6756
L49.7578 -57.6867
L49.3412 -57.6836
L48.9271 -57.6674
L48.5159 -57.6388
L48.108 -57.5987
L47.7036 -57.5479
L47.303 -57.4872
L46.9066 -57.4172
L46.5143 -57.3386
L46.1265 -57.252
L45.7433 -57.1579
L45.3647 -57.0567
L44.991 -56.9492
L44.6221 -56.8355
L44.2581 -56.7163
L43.899 -56.5918
L43.5449 -56.4625
L43.1958 -56.3287
L42.8517 -56.1906
L42.5126 -56.0488
L42.1785 -55.9033
L41.8492 -55.7544
L41.5249 -55.6025
L41.2054 -55.4478
L40.8907 -55.2904
L40.5808 -55.1306
L40.2755 -54.9686
L39.9748 -54.8044
L39.6787 -54.6384
L39.3871 -54.4706
L39.0998 -54.3012
L38.8169 -54.1304
L38.5382 -53.9581
L38.2636 -53.7847
L37.9931 -53.61
L37.7266 -53.4343
L37.464 -53.2576
L37.2053 -53.0801
L36.9502 -52.9017
L36.6988 -52.7225
L36.4509 -52.5426
L36.2065 -52.3621
L35.9655 -52.181
L35.7278 -51.9993
L35.4932 -51.8171
L35.2619 -51.6343
L35.0335 -51.4511
L34.8082 -51.2675
L34.5857 -51.0834
L34.3661 -50.8988
L34.1491 -50.7139
L33.9349 -50.5286
L33.7232 -50.3429
L33.514 -50.1567
L33.3072 -49.9702
L33.1029 -49.7833
L32.9008 -49.5959
L32.7009 -49.4082
L32.5032 -49.22
L32.3076 -49.0313
L32.1141 -48.8422
L31.9225 -48.6526
L31.7328 -48.4625
L31.545 -48.2719
L31.3589 -48.0808
L31.1746 -47.8891
L30.992 -47.6967
L30.811 -47.5038
L30.6316 -47.3102
L30.4537 -47.1159
L30.2773 -46.9209
L30.1023 -46.7252
L29.9287 -46.5286
L29.7564 -46.3312
L29.5854 -46.133
L29.4156 -45.9339
z
" id="C0_1_ebd1562b90"/>
    </defs>
    <g clip-path="url(#p1bffca34e9)">
     <use style="fill:#ffffff;stroke:#000000;stroke-width:2.0;" x="0.0" xlink:href="#C0_0_a811fe30f3" y="72.0"/>
    </g>
    <g clip-path="url(#p1bffca34e9)">
     <use style="fill:#ff0000;stroke:#000000;stroke-width:2.0;" x="0.0" xlink:href="#C0_1_ebd1562b90" y="72.0"/>
    </g>
   </g>
  </g>
 </g>
 <defs>
  <clipPath id="p1bffca34e9">
   <rect height="72.0" width="72.0" x="0.0" y="0.0"/>
  </clipPath>
 </defs>
</svg>
