<?xml version="1.0" encoding="utf-8" standalone="no"?>
<!DOCTYPE svg PUBLIC "-//W3C//DTD SVG 1.1//EN"
  "http://www.w3.org/Graphics/SVG/1.1/DTD/svg11.dtd">
<!-- Created with matplotlib (http://matplotlib.org/) -->
<svg height="72pt" version="1.1" viewBox="0 0 72 72" width="72pt" xmlns="http://www.w3.org/2000/svg" xmlns:xlink="http://www.w3.org/1999/xlink">
 <defs>
  <style type="text/css">
*{stroke-linecap:butt;stroke-linejoin:round;}
  </style>
 </defs>
 <g id="figure_1">
  <g id="patch_1">
   <path d="
M0 72
L72 72
L72 0
L0 0
z
" style="fill:none;"/>
  </g>
  <g id="axes_1">
   <g id="PatchCollection_1">
    <defs>
     <path d="
M36 -7.5
C43.5583 -7.5 50.808 -10.5029 56.1525 -15.8475
C61.4971 -21.192 64.5 -28.4417 64.5 -36
C64.5 -43.5583 61.4971 -50.808 56.1525 -56.1525
C50.808 -61.4971 43.5583 -64.5 36 -64.5
C28.4417 -64.5 21.192 -61.4971 15.8475 -56.1525
C10.5029 -50.808 7.5 -43.5583 7.5 -36
C7.5 -28.4417 10.5029 -21.192 15.8475 -15.8475
C21.192 -10.5029 28.4417 -7.5 36 -7.5
z
" id="C0_0_a811fe30f3"/>
     <path d="
M37.7634 -26.986
L38.0142 -27.0479
L38.2648 -27.1111
L38.5152 -27.1756
L38.7655 -27.2413
L39.0158 -27.3082
L39.266 -27.3765
L39.5164 -27.446
L39.7668 -27.5169
L40.0174 -27.5892
L40.2682 -27.6628
L40.5193 -27.7378
L40.7707 -27.8143
L41.0225 -27.8923
L41.2748 -27.9717
L41.5275 -28.0527
L41.7808 -28.1353
L42.0346 -28.2195
L42.2891 -28.3053
L42.5443 -28.3929
L42.8002 -28.4821
L43.0568 -28.5732
L43.3143 -28.666
L43.5727 -28.7607
L43.832 -28.8574
L44.0923 -28.956
L44.3535 -29.0566
L44.6158 -29.1593
L44.8791 -29.2642
L45.1436 -29.3712
L45.4093 -29.4805
L45.6761 -29.5921
L45.9441 -29.7061
L46.2133 -29.8226
L46.4838 -29.9415
L46.7556 -30.0631
L47.0287 -30.1873
L47.3032 -30.3143
L47.5789 -30.4441
L47.856 -30.5768
L48.1344 -30.7125
L48.4142 -30.8512
L48.6953 -30.9931
L48.9777 -31.1382
L49.2615 -31.2867
L49.5465 -31.4386
L49.8327 -31.5941
L50.1201 -31.7531
L50.4087 -31.9159
L50.6984 -32.0825
L50.9891 -32.2531
L51.2808 -32.4277
L51.5734 -32.6064
L51.8667 -32.7893
L52.1606 -32.9767
L52.4551 -33.1685
L52.75 -33.3649
L53.0452 -33.566
L53.3404 -33.7719
L53.6354 -33.9827
L53.9302 -34.1986
L54.2243 -34.4196
L54.5177 -34.646
L54.8099 -34.8777
L55.1008 -35.115
L55.3899 -35.358
L55.6769 -35.6067
L55.9614 -35.8613
L56.243 -36.1219
L56.5212 -36.3887
L56.7954 -36.6618
L57.0652 -36.9413
L57.3298 -37.2273
L57.5886 -37.5201
L57.8408 -37.8197
L58.0857 -38.1262
L58.3222 -38.44
L58.5493 -38.761
L58.766 -39.0894
L58.9711 -39.4255
L59.1631 -39.7694
L59.3407 -40.1212
L59.5022 -40.481
L59.6462 -40.849
L59.7707 -41.2251
L59.8741 -41.6095
L59.9546 -42.0018
L60.0106 -42.4019
L60.0408 -42.8093
L60.0438 -43.2234
L60.019 -43.6435
L59.9659 -44.0687
L59.8845 -44.4977
L59.7754 -44.9294
L59.6394 -45.3625
L59.4776 -45.7956
L59.2916 -46.2274
L59.0828 -46.6566
L58.8529 -47.0821
L58.6035 -47.5027
L58.3365 -47.9175
L58.0532 -48.3257
L57.7552 -48.7264
L57.4439 -49.1191
L57.1207 -49.5033
L56.7868 -49.8784
L56.4433 -50.2441
L56.0912 -50.6001
L55.7316 -50.9463
L55.3653 -51.2824
L54.9933 -51.6083
L54.6161 -51.924
L54.2346 -52.2295
L53.8494 -52.5248
L53.4611 -52.8099
L53.0703 -53.0849
L52.6775 -53.3499
L52.2831 -53.605
L51.8876 -53.8504
L51.4914 -54.0862
L51.0949 -54.3125
L50.6984 -54.5297
L50.3022 -54.7377
L49.9066 -54.9369
L49.5118 -55.1275
L49.1181 -55.3095
L48.7257 -55.4833
L48.3348 -55.6491
L47.9455 -55.807
L47.558 -55.9573
L47.1725 -56.1001
L46.789 -56.2357
L46.4077 -56.3642
L46.0285 -56.4859
L45.6517 -56.601
L45.2773 -56.7095
L44.9053 -56.8119
L44.5358 -56.9081
L44.1688 -56.9984
L43.8043 -57.0829
L43.4423 -57.1619
L43.0829 -57.2355
L42.7261 -57.3037
L42.3717 -57.3669
L42.0199 -57.425
L41.6707 -57.4784
L41.3239 -57.527
L40.9795 -57.571
L40.6377 -57.6106
L40.2982 -57.6458
L39.961 -57.6768
L39.6262 -57.7037
L39.2937 -57.7266
L38.9634 -57.7455
L38.6353 -57.7606
L38.3093 -57.7719
L37.9854 -57.7796
L37.6636 -57.7837
L37.3437 -57.7842
L37.0258 -57.7813
L36.7097 -57.775
L36.3955 -57.7654
L36.083 -57.7525
L35.7722 -57.7364
L35.463 -57.7171
L35.1555 -57.6947
L34.8494 -57.6692
L34.5448 -57.6406
L34.2417 -57.609
L33.9398 -57.5744
L33.6393 -57.5369
L33.34 -57.4964
L33.0419 -57.4529
L32.7449 -57.4065
L32.449 -57.3573
L32.1541 -57.3051
L31.8601 -57.2501
L31.567 -57.1921
L31.2747 -57.1313
L30.9833 -57.0675
L30.6925 -57.0009
L30.4025 -56.9313
L30.113 -56.8588
L29.8241 -56.7833
L29.5358 -56.7049
L29.2479 -56.6234
L28.9604 -56.539
L28.6733 -56.4515
L28.3866 -56.3608
L28.1001 -56.2671
L27.8138 -56.1702
L27.5277 -56.0701
L27.2418 -55.9667
L26.956 -55.8601
L26.6703 -55.75
L26.3846 -55.6366
L26.0988 -55.5196
L25.8131 -55.3992
L25.5272 -55.2751
L25.2413 -55.1474
L24.9553 -55.0159
L24.669 -54.8805
L24.3826 -54.7413
L24.096 -54.5981
L23.8092 -54.4508
L23.5222 -54.2993
L23.2349 -54.1435
L22.9473 -53.9834
L22.6595 -53.8189
L22.3715 -53.6497
L22.0832 -53.4759
L21.7946 -53.2973
L21.5058 -53.1138
L21.2168 -52.9252
L20.9276 -52.7315
L20.6382 -52.5325
L20.3487 -52.3281
L20.0592 -52.1182
L19.7696 -51.9026
L19.4799 -51.6812
L19.1904 -51.4538
L18.9011 -51.2203
L18.6119 -50.9806
L18.3231 -50.7345
L18.0347 -50.4818
L17.7469 -50.2225
L17.4597 -49.9564
L17.1732 -49.6832
L16.8878 -49.403
L16.6034 -49.1154
L16.3202 -48.8205
L16.0386 -48.518
L15.7585 -48.2078
L15.4804 -47.8898
L15.2043 -47.5639
L14.9306 -47.2299
L14.6595 -46.8877
L14.3913 -46.5373
L14.1263 -46.1785
L13.8648 -45.8113
L13.6073 -45.4357
L13.3539 -45.0516
L13.1053 -44.6589
L12.8616 -44.2578
L12.6235 -43.8482
L12.3913 -43.4302
L12.1656 -43.0039
L11.9469 -42.5694
L11.7356 -42.127
L11.5324 -41.6768
L11.3379 -41.2192
L11.1527 -40.7545
L10.9775 -40.283
L10.813 -39.8053
L10.6599 -39.3219
L10.5189 -38.8334
L10.391 -38.3407
L10.277 -37.8445
L10.1777 -37.3458
L10.0941 -36.8457
L10.0271 -36.3455
L9.97778 -35.8466
L9.9471 -35.3503
L9.93607 -34.8585
L9.94565 -34.3728
L9.97674 -33.8952
L10.0301 -33.4274
L10.1064 -32.9715
L10.206 -32.5291
L10.3291 -32.1019
L10.4754 -31.6913
L10.6445 -31.2982
L10.8356 -30.9235
L11.0475 -30.5674
L11.279 -30.23
L11.5286 -29.9111
L11.7947 -29.61
L12.0758 -29.3263
L12.3702 -29.059
L12.6765 -28.8074
L12.9933 -28.5707
L13.3192 -28.3479
L13.6531 -28.1383
L13.9938 -27.9411
L14.3404 -27.7557
L14.6919 -27.5813
L15.0475 -27.4173
L15.4065 -27.2632
L15.7682 -27.1184
L16.132 -26.9825
L16.4974 -26.855
L16.8639 -26.7354
L17.231 -26.6234
L17.5983 -26.5187
L17.9655 -26.4208
L18.3323 -26.3295
L18.6983 -26.2444
L19.0633 -26.1653
L19.4271 -26.0919
L19.7894 -26.024
L20.15 -25.9613
L20.5089 -25.9035
L20.8657 -25.8505
L21.2205 -25.802
L21.573 -25.7579
L21.9232 -25.7179
L22.271 -25.682
L22.6163 -25.6498
L22.9591 -25.6213
L23.2993 -25.5963
L23.6369 -25.5747
L23.9718 -25.5563
L24.304 -25.5409
L24.6336 -25.5285
L24.9604 -25.519
L25.2846 -25.5121
L25.6061 -25.5079
L25.9249 -25.5062
L26.2411 -25.5069
L26.5546 -25.5099
L26.8656 -25.5152
L27.174 -25.5226
L27.4799 -25.5321
L27.7833 -25.5435
L28.0842 -25.5569
L28.3828 -25.5722
L28.679 -25.5892
L28.9729 -25.608
L29.2646 -25.6285
L29.554 -25.6506
L29.8414 -25.6743
L30.1266 -25.6996
L30.4098 -25.7263
L30.6911 -25.7545
L30.9705 -25.7841
L31.248 -25.8151
L31.5237 -25.8475
L31.7977 -25.8812
L32.07 -25.9162
L32.3407 -25.9524
L32.6099 -25.9899
L32.8776 -26.0287
L33.1438 -26.0686
L33.4087 -26.1098
L33.6724 -26.1521
L33.9347 -26.1956
L34.1959 -26.2403
L34.456 -26.2861
L34.7151 -26.3331
L34.9731 -26.3812
L35.2302 -26.4305
L35.4865 -26.4808
L35.7419 -26.5324
L35.9966 -26.585
L36.2506 -26.6388
L36.504 -26.6938
L36.7567 -26.7499
L37.009 -26.8071
L37.2609 -26.8656
z
" id="C0_1_1acd09ea85"/>
    </defs>
    <g clip-path="url(#p1bffca34e9)">
     <use style="fill:#ffffff;stroke:#000000;stroke-width:2.0;" x="0.0" xlink:href="#C0_0_a811fe30f3" y="72.0"/>
    </g>
    <g clip-path="url(#p1bffca34e9)">
     <use style="fill:#ff0000;stroke:#000000;stroke-width:2.0;" x="0.0" xlink:href="#C0_1_1acd09ea85" y="72.0"/>
    </g>
   </g>
  </g>
 </g>
 <defs>
  <clipPath id="p1bffca34e9">
   <rect height="72.0" width="72.0" x="0.0" y="0.0"/>
  </clipPath>
 </defs>
</svg>
