<?xml version="1.0" encoding="utf-8" standalone="no"?>
<!DOCTYPE svg PUBLIC "-//W3C//DTD SVG 1.1//EN"
  "http://www.w3.org/Graphics/SVG/1.1/DTD/svg11.dtd">
<!-- Created with matplotlib (http://matplotlib.org/) -->
<svg height="72pt" version="1.1" viewBox="0 0 72 72" width="72pt" xmlns="http://www.w3.org/2000/svg" xmlns:xlink="http://www.w3.org/1999/xlink">
 <defs>
  <style type="text/css">
*{stroke-linecap:butt;stroke-linejoin:round;}
  </style>
 </defs>
 <g id="figure_1">
  <g id="patch_1">
   <path d="
M0 72
L72 72
L72 0
L0 0
z
" style="fill:none;"/>
  </g>
  <g id="axes_1">
   <g id="PatchCollection_1">
    <defs>
     <path d="
M36 -7.5
C43.5583 -7.5 50.808 -10.5029 56.1525 -15.8475
C61.4971 -21.192 64.5 -28.4417 64.5 -36
C64.5 -43.5583 61.4971 -50.808 56.1525 -56.1525
C50.808 -61.4971 43.5583 -64.5 36 -64.5
C28.4417 -64.5 21.192 -61.4971 15.8475 -56.1525
C10.5029 -50.808 7.5 -43.5583 7.5 -36
C7.5 -28.4417 10.5029 -21.192 15.8475 -15.8475
C21.192 -10.5029 28.4417 -7.5 36 -7.5
z
" id="C0_0_a811fe30f3"/>
     <path d="
M64.4276 -36.4585
L64.2568 -36.8161
L64.0719 -37.1474
L63.8735 -37.4519
L63.6624 -37.7293
L63.4394 -37.9798
L63.2052 -38.2039
L62.9608 -38.4024
L62.707 -38.5765
L62.4445 -38.7274
L62.1741 -38.8567
L61.8967 -38.9659
L61.6129 -39.0565
L61.3234 -39.1302
L61.0288 -39.1884
L60.7298 -39.2325
L60.4267 -39.2641
L60.1203 -39.2842
L59.8108 -39.2941
L59.4988 -39.2949
L59.1846 -39.2874
L58.8686 -39.2727
L58.5512 -39.2514
L58.2326 -39.2243
L57.9131 -39.192
L57.5931 -39.155
L57.2728 -39.114
L56.9523 -39.0694
L56.632 -39.0215
L56.3119 -38.9708
L55.9924 -38.9176
L55.6735 -38.8622
L55.3555 -38.8048
L55.0384 -38.7458
L54.7223 -38.6852
L54.4075 -38.6234
L54.0939 -38.5605
L53.7818 -38.4966
L53.4711 -38.4319
L53.1619 -38.3665
L52.8544 -38.3005
L52.5485 -38.2341
L52.2444 -38.1673
L51.9419 -38.1002
L51.6413 -38.0329
L51.3425 -37.9654
L51.0455 -37.8978
L50.7503 -37.8302
L50.457 -37.7625
L50.1655 -37.695
L49.8759 -37.6275
L49.5881 -37.5601
L49.3022 -37.4928
L49.018 -37.4257
L48.7357 -37.3588
L48.4551 -37.292
L48.1763 -37.2255
L47.8992 -37.1592
L47.6238 -37.0931
L47.35 -37.0273
L47.0779 -36.9617
L46.8074 -36.8964
L46.5384 -36.8313
L46.2709 -36.7665
L46.0049 -36.702
L45.7403 -36.6376
L45.4771 -36.5736
L45.2152 -36.5097
L44.9546 -36.4462
L44.6953 -36.3828
L44.4371 -36.3197
L44.1801 -36.2568
L43.9242 -36.1941
L43.6693 -36.1317
L43.4154 -36.0694
L43.1624 -36.0073
L42.9103 -35.9454
L42.6591 -35.8837
L42.4086 -35.8222
L42.1589 -35.7607
L41.9098 -35.6995
L41.6614 -35.6383
L41.4135 -35.5773
L41.1661 -35.5164
L40.9192 -35.4556
L40.6727 -35.3948
L40.4266 -35.3342
L40.1807 -35.2735
L39.9351 -35.213
L39.6897 -35.1524
L39.4444 -35.0919
L39.1992 -35.0314
L38.7088 -34.9709
L38.4635 -34.9104
L38.218 -34.8498
L37.9724 -34.7892
L37.7265 -34.7285
L37.4802 -34.6678
L37.2336 -34.607
L36.9866 -34.546
L36.7392 -34.485
L36.4911 -34.4238
L36.2425 -34.3624
L35.9933 -34.301
L35.7434 -34.2393
L35.4927 -34.1774
L35.2412 -34.1154
L34.9888 -34.0531
L34.7355 -33.9906
L34.4813 -33.9278
L34.226 -33.8648
L33.9696 -33.8014
L33.7121 -33.7378
L33.4534 -33.6739
L33.1935 -33.6096
L32.9322 -33.545
L32.6696 -33.48
L32.4057 -33.4146
L32.1402 -33.3488
L31.8733 -33.2826
L31.6048 -33.216
L31.3347 -33.1489
L31.063 -33.0813
L30.7896 -33.0132
L30.5144 -32.9447
L30.2375 -32.8755
L29.9588 -32.8059
L29.6782 -32.7356
L29.3957 -32.6648
L29.1113 -32.5933
L28.8249 -32.5212
L28.5366 -32.4485
L28.2463 -32.375
L27.9539 -32.3008
L27.6595 -32.2259
L27.3631 -32.1503
L27.0646 -32.0738
L26.764 -31.9965
L26.4614 -31.9184
L26.1567 -31.8394
L25.85 -31.7595
L25.5414 -31.6786
L25.2307 -31.5967
L24.9182 -31.5138
L24.6038 -31.4298
L24.2876 -31.3448
L23.9696 -31.2585
L23.65 -31.171
L23.3289 -31.0823
L23.0063 -30.9922
L22.6825 -30.9007
L22.3575 -30.8077
L22.0315 -30.7131
L21.7047 -30.6169
L21.3773 -30.5188
L21.0496 -30.4189
L20.7217 -30.317
L20.394 -30.2129
L20.0668 -30.1065
L19.7404 -29.9976
L19.4152 -29.886
L19.0916 -29.7714
L18.7701 -29.6536
L18.4512 -29.5323
L18.1354 -29.4072
L17.8234 -29.2779
L17.5157 -29.144
L17.2132 -29.0051
L16.9167 -28.8605
L16.6269 -28.7098
L16.3449 -28.5524
L16.0717 -28.3874
L15.8083 -28.2142
L15.5559 -28.0319
L15.3158 -27.8398
L15.0893 -27.6367
L14.8777 -27.422
L14.6823 -27.1946
L14.5043 -26.9536
L14.3452 -26.6983
L14.206 -26.428
L14.0878 -26.1422
L13.9913 -25.8405
L13.9173 -25.5229
L13.8663 -25.1895
L13.8383 -24.8408
L13.8334 -24.4775
L13.8513 -24.1005
L13.8918 -23.7109
L13.9541 -23.31
L14.0378 -22.8992
L14.142 -22.48
L14.2659 -22.0537
L14.4086 -21.6219
L14.5694 -21.186
L14.7473 -20.7473
L14.9415 -20.3071
L15.1511 -19.8667
L15.3753 -19.4271
L15.6132 -18.9894
L15.8642 -18.5544
L16.1275 -18.1232
L16.4022 -17.6964
L16.6878 -17.2747
L16.9836 -16.8588
L17.2889 -16.4491
L17.603 -16.0462
L17.9255 -15.6506
L18.2557 -15.2625
L18.5931 -14.8822
L18.9372 -14.5102
L19.2874 -14.1465
L19.6433 -13.7914
L20.0044 -13.4451
L20.3704 -13.1075
L20.7407 -12.779
L21.1151 -12.4594
L21.4931 -12.1489
L21.8743 -11.8474
L22.2585 -11.5549
L22.6454 -11.2715
L23.0346 -10.9971
L23.4258 -10.7316
L23.8537 -10.475
L24.3055 -10.2179
L24.7608 -10.0098
L25.2196 -9.80971
L25.6817 -9.61754
L26.1469 -9.43342
L26.6152 -9.25739
L27.0863 -9.0895
L27.5601 -8.92981
L28.0364 -8.77837
L28.5152 -8.63522
L28.9963 -8.5004
L29.4795 -8.37396
L29.9647 -8.25594
L30.4517 -8.14636
L30.9404 -8.04528
L31.4307 -7.9527
L31.9224 -7.86867
L32.4153 -7.79321
L32.9092 -7.72634
L33.4042 -7.66809
L33.8999 -7.61846
L34.3963 -7.57748
L34.8931 -7.54516
L35.3903 -7.5215
L35.8877 -7.50652
L36.3851 -7.50022
L36.8824 -7.5026
L37.3794 -7.51366
L37.876 -7.5334
L38.372 -7.56181
L38.8673 -7.59888
L39.3618 -7.6446
L39.8552 -7.69896
L40.3474 -7.76195
L40.8383 -7.83353
L41.3277 -7.91369
L41.8156 -8.00241
L42.3016 -8.09966
L42.7857 -8.2054
L43.2678 -8.31961
L43.7476 -8.44225
L44.2251 -8.57329
L44.7001 -8.71268
L45.1724 -8.86039
L45.6419 -9.01636
L46.1085 -9.18055
L46.5721 -9.35291
L47.0324 -9.53339
L47.4893 -9.72192
L47.9427 -9.91847
L48.3925 -10.123
L48.8385 -10.3353
L49.2807 -10.5555
L49.7187 -10.7835
L50.1526 -11.0191
L50.5822 -11.2623
L51.0073 -11.5131
L51.4279 -11.7713
L51.8437 -12.0369
L52.2548 -12.3098
L52.6609 -12.5899
L53.0619 -12.8772
L53.4577 -13.1715
L53.8482 -13.4727
L54.2333 -13.7808
L54.6128 -14.0957
L54.9866 -14.4172
L55.3546 -14.7454
L55.7168 -15.08
L56.073 -15.4209
L56.423 -15.7682
L56.7668 -16.1216
L57.1043 -16.481
L57.4354 -16.8464
L57.7599 -17.2177
L58.0778 -17.5946
L58.389 -17.9772
L58.6933 -18.3653
L58.9908 -18.7587
L59.2812 -19.1574
L59.5646 -19.5612
L59.8407 -19.97
L60.1097 -20.3837
L60.3712 -20.8022
L60.6254 -21.2252
L60.872 -21.6528
L61.1111 -22.0848
L61.3425 -22.521
L61.5662 -22.9613
L61.7821 -23.4056
L61.9902 -23.8537
L62.1903 -24.3055
L62.3825 -24.7608
L62.5666 -25.2196
L62.7426 -25.6817
L62.9105 -26.1469
L63.0702 -26.6152
L63.2216 -27.0863
L63.3648 -27.5601
L63.4996 -28.0364
L63.626 -28.5152
L63.7441 -28.9963
L63.8536 -29.4795
L63.9547 -29.9647
L64.0473 -30.4517
L64.1313 -30.9404
L64.2068 -31.4307
L64.2737 -31.9224
L64.3319 -32.4153
L64.3815 -32.9092
L64.4225 -33.4042
L64.4548 -33.8999
L64.4785 -34.3963
L64.4935 -34.8931
L64.4998 -35.3903
z
" id="C0_1_706883d7b7"/>
     <path d="
M48.1756 -61.7612
L47.7388 -61.9067
L47.3044 -62.0442
L46.8726 -62.1737
L46.4435 -62.2955
L46.017 -62.4097
L45.5933 -62.5165
L45.1725 -62.6161
L44.7545 -62.7087
L44.3395 -62.7944
L43.9273 -62.8735
L43.5182 -62.946
L43.112 -63.0123
L42.7087 -63.0723
L42.3084 -63.1263
L41.9111 -63.1745
L41.5167 -63.2169
L41.1253 -63.2537
L40.7367 -63.2851
L40.351 -63.3112
L39.9681 -63.3321
L39.5881 -63.3479
L39.2108 -63.3588
L38.8362 -63.3648
L38.4643 -63.3661
L38.095 -63.3627
L37.7283 -63.3549
L37.3641 -63.3425
L37.0024 -63.3258
L36.6431 -63.3048
L36.2862 -63.2796
L35.9316 -63.2503
L35.5793 -63.2169
L35.2292 -63.1794
L34.8812 -63.1381
L34.5353 -63.0928
L34.1914 -63.0436
L33.8495 -62.9907
L33.5096 -62.934
L33.1715 -62.8735
L32.8352 -62.8094
L32.5006 -62.7415
L32.1677 -62.67
L31.8365 -62.5949
L31.5069 -62.5162
L31.1787 -62.4338
L30.8521 -62.3479
L30.5268 -62.2583
L30.203 -62.1652
L29.8804 -62.0685
L29.5591 -61.9682
L29.2391 -61.8642
L28.9202 -61.7567
L28.6024 -61.6455
L28.2857 -61.5306
L27.97 -61.4121
L27.6554 -61.2898
L27.3416 -61.1638
L27.0288 -61.034
L26.7169 -60.9004
L26.4058 -60.763
L26.0955 -60.6217
L25.7859 -60.4764
L25.4771 -60.3271
L25.169 -60.1738
L24.8616 -60.0164
L24.5549 -59.8549
L24.2488 -59.6891
L23.9433 -59.519
L23.6385 -59.3446
L23.3342 -59.1657
L23.0305 -58.9824
L22.7274 -58.7945
L22.4248 -58.6019
L22.1229 -58.4045
L21.8214 -58.2024
L21.5206 -57.9954
L21.2204 -57.7833
L20.9208 -57.5661
L20.6218 -57.3438
L20.3234 -57.1162
L20.0257 -56.8832
L19.7288 -56.6447
L19.4325 -56.4007
L19.1371 -56.1509
L18.8425 -55.8954
L18.5489 -55.634
L18.2561 -55.3665
L17.9644 -55.093
L17.6738 -54.8133
L17.3844 -54.5273
L17.0963 -54.2349
L16.8095 -53.936
L16.5241 -53.6306
L16.2404 -53.3184
L15.9583 -52.9995
L15.678 -52.6737
L15.3997 -52.341
L15.1235 -52.0013
L14.8495 -51.6546
L14.5778 -51.3008
L14.3087 -50.9398
L14.0423 -50.5717
L13.7788 -50.1965
L13.5183 -49.814
L13.2611 -49.4244
L13.0073 -49.0277
L12.7571 -48.6239
L12.5107 -48.2132
L12.2683 -47.7956
L12.03 -47.3713
L11.7962 -46.9404
L11.5669 -46.5031
L11.3424 -46.0597
L11.1227 -45.6104
L10.9081 -45.1556
L10.6987 -44.6956
L10.4945 -44.2308
L10.2958 -43.7617
L10.1025 -43.2888
L9.91465 -42.8128
L9.73225 -42.3342
L9.55521 -41.8538
L9.3834 -41.3724
L9.21665 -40.8909
L9.0547 -40.4103
L8.8972 -39.9316
L8.74375 -39.456
L8.59384 -38.9847
L8.44689 -38.5191
L8.30221 -38.0605
L8.15905 -37.6104
L8.01657 -37.1703
L7.87387 -36.7417
L7.73004 -36.326
L7.50312 -35.9248
L7.51483 -36.422
L7.53521 -36.9193
L7.56426 -37.4163
L7.60198 -37.9128
L7.64834 -38.4088
L7.70334 -38.904
L7.76696 -39.3984
L7.83918 -39.8917
L7.91998 -40.3839
L8.00933 -40.8747
L8.10721 -41.364
L8.21358 -41.8517
L8.32842 -42.3376
L8.45169 -42.8216
L8.58335 -43.3035
L8.72336 -43.7831
L8.87168 -44.2604
L9.02826 -44.7352
L9.19306 -45.2073
L9.36602 -45.6767
L9.5471 -46.143
L9.73623 -46.6063
L9.93337 -47.0664
L10.1384 -47.5231
L10.3514 -47.9762
L10.5722 -48.4257
L10.8007 -48.8715
L11.0369 -49.3133
L11.2807 -49.7511
L11.532 -50.1846
L11.7907 -50.6139
L12.0569 -51.0387
L12.3303 -51.4589
L12.611 -51.8744
L12.8988 -52.2851
L13.1936 -52.6908
L13.4953 -53.0914
L13.804 -53.4869
L14.1193 -53.877
L14.4414 -54.2616
L14.77 -54.6407
L15.1051 -55.0141
L15.4465 -55.3817
L15.7942 -55.7434
L16.1481 -56.0991
L16.508 -56.4487
L16.8738 -56.7921
L17.2455 -57.1291
L17.6228 -57.4597
L18.0058 -57.7837
L18.3943 -58.1011
L18.7881 -58.4118
L19.1872 -58.7156
L19.5913 -59.0126
L20.0005 -59.3025
L20.4146 -59.5853
L20.8334 -59.861
L21.2568 -60.1293
L21.6847 -60.3903
L22.117 -60.6439
L22.5535 -60.89
L22.9941 -61.1285
L23.4387 -61.3594
L23.8871 -61.5825
L24.3391 -61.7978
L24.7948 -62.0053
L25.2538 -62.2048
L25.7161 -62.3964
L26.1816 -62.5799
L26.65 -62.7554
L27.1213 -62.9226
L27.5953 -63.0817
L28.0719 -63.2325
L28.5508 -63.3751
L29.0321 -63.5093
L29.5154 -63.6351
L30.0008 -63.7525
L30.4879 -63.8614
L30.9768 -63.9619
L31.4671 -64.0538
L31.9589 -64.1372
L32.4519 -64.212
L32.9459 -64.2783
L33.4409 -64.3359
L33.9367 -64.3849
L34.4331 -64.4252
L34.93 -64.4569
L35.4272 -64.4799
L35.9246 -64.4942
L36.422 -64.4999
L36.9193 -64.4969
L37.4163 -64.4852
L37.9128 -64.4648
L38.4088 -64.4357
L38.904 -64.398
L39.3984 -64.3517
L39.8917 -64.2967
L40.3839 -64.233
L40.8747 -64.1608
L41.364 -64.08
L41.8517 -63.9907
L42.3376 -63.8928
L42.8216 -63.7864
L43.3035 -63.6716
L43.7831 -63.5483
L44.2604 -63.4167
L44.7352 -63.2766
L45.2073 -63.1283
L45.6767 -62.9717
L46.143 -62.8069
L46.6063 -62.634
L47.0664 -62.4529
L47.5231 -62.2638
z
" id="C0_2_034c02ee1d"/>
    </defs>
    <g clip-path="url(#p1bffca34e9)">
     <use style="fill:#ff0000;stroke:#000000;stroke-width:2.0;" x="0.0" xlink:href="#C0_0_a811fe30f3" y="72.0"/>
    </g>
    <g clip-path="url(#p1bffca34e9)">
     <use style="fill:#ffffff;stroke:#000000;stroke-width:2.0;" x="0.0" xlink:href="#C0_1_706883d7b7" y="72.0"/>
    </g>
    <g clip-path="url(#p1bffca34e9)">
     <use style="fill:#ffffff;stroke:#000000;stroke-width:2.0;" x="0.0" xlink:href="#C0_2_034c02ee1d" y="72.0"/>
    </g>
   </g>
  </g>
 </g>
 <defs>
  <clipPath id="p1bffca34e9">
   <rect height="72.0" width="72.0" x="0.0" y="0.0"/>
  </clipPath>
 </defs>
</svg>
