<?xml version="1.0" encoding="utf-8" standalone="no"?>
<!DOCTYPE svg PUBLIC "-//W3C//DTD SVG 1.1//EN"
  "http://www.w3.org/Graphics/SVG/1.1/DTD/svg11.dtd">
<!-- Created with matplotlib (http://matplotlib.org/) -->
<svg height="72pt" version="1.1" viewBox="0 0 72 72" width="72pt" xmlns="http://www.w3.org/2000/svg" xmlns:xlink="http://www.w3.org/1999/xlink">
 <defs>
  <style type="text/css">
*{stroke-linecap:butt;stroke-linejoin:round;}
  </style>
 </defs>
 <g id="figure_1">
  <g id="patch_1">
   <path d="
M0 72
L72 72
L72 0
L0 0
z
" style="fill:none;"/>
  </g>
  <g id="axes_1">
   <g id="PatchCollection_1">
    <defs>
     <path d="
M36 -7.5
C43.5583 -7.5 50.808 -10.5029 56.1525 -15.8475
C61.4971 -21.192 64.5 -28.4417 64.5 -36
C64.5 -43.5583 61.4971 -50.808 56.1525 -56.1525
C50.808 -61.4971 43.5583 -64.5 36 -64.5
C28.4417 -64.5 21.192 -61.4971 15.8475 -56.1525
C10.5029 -50.808 7.5 -43.5583 7.5 -36
C7.5 -28.4417 10.5029 -21.192 15.8475 -15.8475
C21.192 -10.5029 28.4417 -7.5 36 -7.5
z
" id="C0_0_a811fe30f3"/>
     <path d="
M56.5443 -55.7063
L56.3529 -55.5843
L56.164 -55.4576
L55.9776 -55.3265
L55.7937 -55.1912
L55.612 -55.052
L55.4324 -54.9091
L55.255 -54.7627
L55.0795 -54.6132
L54.906 -54.4605
L54.7342 -54.305
L54.5642 -54.1468
L54.3958 -53.9861
L54.229 -53.8231
L54.0638 -53.6578
L53.8999 -53.4904
L53.7375 -53.3211
L53.5763 -53.1499
L53.4164 -52.9771
L53.2578 -52.8026
L53.1003 -52.6265
L52.9439 -52.4491
L52.7885 -52.2703
L52.6342 -52.0902
L52.4808 -51.9089
L52.3284 -51.7265
L52.1768 -51.543
L52.0261 -51.3585
L51.8762 -51.1731
L51.727 -50.9867
L51.5786 -50.7994
L51.4309 -50.6114
L51.2838 -50.4225
L51.1374 -50.2328
L50.9916 -50.0424
L50.8464 -49.8513
L50.7017 -49.6595
L50.5575 -49.467
L50.4138 -49.2738
L50.2705 -49.0801
L50.1277 -48.8856
L49.9853 -48.6906
L49.8432 -48.4949
L49.7015 -48.2986
L49.5602 -48.1017
L49.4191 -47.9042
L49.2783 -47.7061
L49.1378 -47.5074
L48.9974 -47.308
L48.8573 -47.1081
L48.7174 -46.9075
L48.5777 -46.7062
L48.438 -46.5043
L48.2986 -46.3017
L48.1592 -46.0985
L48.0198 -45.8946
L47.8806 -45.6899
L47.7414 -45.4846
L47.463 -45.2785
L47.3237 -45.0716
L47.1845 -44.864
L47.0452 -44.6556
L46.9058 -44.4463
L46.7663 -44.2363
L46.6268 -44.0253
L46.4871 -43.8136
L46.3472 -43.6009
L46.2073 -43.3872
L46.0671 -43.1727
L45.9268 -42.9571
L45.7863 -42.7406
L45.6456 -42.523
L45.5047 -42.3044
L45.3636 -42.0847
L45.2223 -41.864
L45.0807 -41.6421
L44.9388 -41.419
L44.7967 -41.1948
L44.6544 -40.9694
L44.5118 -40.7427
L44.3689 -40.5148
L44.2258 -40.2857
L44.0824 -40.0552
L43.9387 -39.8233
L43.7948 -39.5902
L43.6506 -39.3556
L43.5061 -39.1196
L43.3615 -38.8822
L43.2166 -38.6434
L43.0715 -38.403
L42.9261 -38.1612
L42.7807 -37.9178
L42.635 -37.6729
L42.4892 -37.4264
L42.3433 -37.1784
L42.1973 -36.9287
L42.0512 -36.6774
L41.9052 -36.4245
L41.7592 -36.17
L41.6132 -35.9137
L41.4674 -35.6558
L41.3217 -35.3962
L41.1762 -35.135
L41.0311 -34.872
L40.8863 -34.6073
L40.7419 -34.341
L40.5981 -34.0729
L40.4548 -33.8031
L40.3122 -33.5316
L40.1704 -33.2585
L40.0295 -32.9836
L39.8896 -32.7071
L39.7507 -32.4289
L39.6131 -32.1492
L39.4769 -31.8678
L39.3421 -31.5848
L39.209 -31.3002
L39.0777 -31.0142
L38.9484 -30.7266
L38.8212 -30.4376
L38.6963 -30.1472
L38.574 -29.8554
L38.4543 -29.5623
L38.3375 -29.268
L38.2238 -28.9724
L38.1135 -28.6758
L38.0068 -28.378
L37.9038 -28.0793
L37.8049 -27.7796
L37.7102 -27.4791
L37.6201 -27.1778
L37.5348 -26.8759
L37.4545 -26.5734
L37.3795 -26.2704
L37.31 -25.967
L37.2464 -25.6634
L37.1888 -25.3596
L37.1376 -25.0558
L37.0929 -24.752
L37.055 -24.4485
L37.0241 -24.1453
L37.0005 -23.8425
L36.9843 -23.5404
L36.9757 -23.239
L36.9749 -22.9385
L36.982 -22.6391
L36.9973 -22.3408
L37.0207 -22.0439
L37.0524 -21.7485
L37.0925 -21.4547
L37.1409 -21.1628
L37.1978 -20.8729
L37.2632 -20.5851
L37.3369 -20.2996
L37.419 -20.0167
L37.5093 -19.7363
L37.6079 -19.4587
L37.7146 -19.1841
L37.8293 -18.9126
L37.9518 -18.6443
L38.082 -18.3795
L38.2197 -18.1182
L38.3648 -17.8606
L38.517 -17.6068
L38.6762 -17.3569
L38.8421 -17.1112
L39.0145 -16.8696
L39.1932 -16.6323
L39.3781 -16.3994
L39.5688 -16.1711
L39.7651 -15.9473
L39.9669 -15.7282
L40.1739 -15.5139
L40.3859 -15.3045
L40.6026 -15.0999
L40.8239 -14.9003
L41.0496 -14.7057
L41.2794 -14.5162
L41.5131 -14.3319
L41.7507 -14.1526
L41.9918 -13.9786
L42.2363 -13.8097
L42.484 -13.6462
L42.7348 -13.4878
L42.9885 -13.3348
L43.2449 -13.187
L43.5039 -13.0445
L43.7654 -12.9074
L44.0292 -12.7755
L44.2953 -12.6489
L44.5634 -12.5277
L44.8334 -12.4117
L45.1054 -12.3011
L45.379 -12.1957
L45.6544 -12.0956
L45.9313 -12.0007
L46.2096 -11.9112
L46.4894 -11.8268
L46.7705 -11.7478
L47.0529 -11.6739
L47.3364 -11.6053
L47.6211 -11.5418
L47.9068 -11.4836
L48.1935 -11.4305
L48.4812 -11.3827
L48.7698 -11.34
L49.0593 -11.3025
L49.3496 -11.2701
L49.6407 -11.2429
L49.9326 -11.2209
L50.3925 -11.2041
L50.8196 -11.4011
L51.2422 -11.656
L51.6601 -11.9184
L52.0733 -12.188
L52.4816 -12.465
L52.8849 -12.7491
L53.283 -13.0403
L53.6759 -13.3384
L54.0634 -13.6435
L54.4454 -13.9554
L54.8217 -14.274
L55.1924 -14.5992
L55.5571 -14.931
L55.916 -15.2691
L56.2687 -15.6136
L56.6153 -15.9643
L56.9556 -16.3211
L57.2895 -16.6839
L57.617 -17.0526
L57.9378 -17.427
L58.252 -17.8071
L58.5594 -18.1927
L58.8599 -18.5838
L59.1535 -18.9802
L59.44 -19.3817
L59.7193 -19.7883
L59.9915 -20.1999
L60.2563 -20.6162
L60.5137 -21.0373
L60.7637 -21.4629
L61.0061 -21.8929
L61.2409 -22.3273
L61.4681 -22.7658
L61.6874 -23.2083
L61.899 -23.6547
L62.1026 -24.1049
L62.2983 -24.5587
L62.486 -25.016
L62.6656 -25.4767
L62.8372 -25.9405
L63.0005 -26.4074
L63.1556 -26.8773
L63.3024 -27.3499
L63.4409 -27.8251
L63.5711 -28.3029
L63.6928 -28.7829
L63.8062 -29.2652
L63.911 -29.7496
L64.0073 -30.2358
L64.0952 -30.7238
L64.1744 -31.2134
L64.2451 -31.7044
L64.3072 -32.1968
L64.3606 -32.6903
L64.4054 -33.1849
L64.4416 -33.6803
L64.4691 -34.1764
L64.4879 -34.673
L64.4981 -35.1701
L64.4995 -35.6674
L64.4923 -36.1648
L64.4764 -36.6621
L64.4518 -37.1593
L64.4186 -37.6561
L64.3767 -38.1524
L64.3262 -38.6481
L64.267 -39.1429
L64.1992 -39.6368
L64.1229 -40.1295
L64.0379 -40.6211
L63.9445 -41.1112
L63.8425 -41.5997
L63.732 -42.0866
L63.6131 -42.5716
L63.4858 -43.0545
L63.3501 -43.5354
L63.2061 -44.0139
L63.0537 -44.49
L62.8932 -44.9636
L62.7244 -45.4343
L62.5475 -45.9023
L62.3626 -46.3672
L62.1696 -46.8289
L61.9686 -47.2873
L61.7597 -47.7423
L61.543 -48.1938
L61.3185 -48.6415
L61.0862 -49.0853
L60.8464 -49.5252
L60.5989 -49.961
L60.344 -50.3925
L60.0816 -50.8196
L59.812 -51.2422
L59.535 -51.6601
L59.2509 -52.0733
L58.9597 -52.4816
L58.6616 -52.8849
L58.3565 -53.283
L58.0446 -53.6759
L57.726 -54.0634
L57.4008 -54.4454
L57.069 -54.8217
z
" id="C0_1_cc511e0059"/>
     <path d="
M21.8712 -60.6395
L21.7344 -60.3817
L21.6004 -60.1235
L21.4692 -59.8647
L21.3407 -59.6055
L21.2149 -59.3458
L21.0917 -59.0856
L20.9712 -58.825
L20.8532 -58.5638
L20.7377 -58.3022
L20.6248 -58.0402
L20.5143 -57.7776
L20.4062 -57.5146
L20.3005 -57.2511
L20.1972 -56.9871
L20.0962 -56.7225
L19.9975 -56.4574
L19.901 -56.1918
L19.8068 -55.9256
L19.7148 -55.6589
L19.625 -55.3916
L19.5373 -55.1236
L19.4517 -54.855
L19.3682 -54.5858
L19.2868 -54.3159
L19.2074 -54.0453
L19.1301 -53.774
L19.0548 -53.5019
L18.9814 -53.2291
L18.91 -52.9554
L18.8405 -52.681
L18.773 -52.4057
L18.7073 -52.1295
L18.6436 -51.8524
L18.5817 -51.5744
L18.5217 -51.2954
L18.4635 -51.0154
L18.4072 -50.7344
L18.3527 -50.4524
L18.3 -50.1693
L18.2491 -49.885
L18.2 -49.5997
L18.1527 -49.3131
L18.1071 -49.0254
L18.0634 -48.7364
L18.0213 -48.4462
L17.9811 -48.1547
L17.9426 -47.8619
L17.9059 -47.5677
L17.8709 -47.2722
L17.8377 -46.9753
L17.8062 -46.6769
L17.7764 -46.3771
L17.7484 -46.0758
L17.7221 -45.7731
L17.6976 -45.4688
L17.6748 -45.1629
L17.6537 -44.8555
L17.6343 -44.5466
L17.6167 -44.236
L17.6008 -43.9238
L17.5866 -43.6099
L17.5741 -43.2945
L17.5634 -42.9773
L17.5543 -42.6585
L17.547 -42.3381
L17.5413 -42.0159
L17.5373 -41.6921
L17.535 -41.3667
L17.5344 -41.0395
L17.5354 -40.7107
L17.5381 -40.3802
L17.5423 -40.0481
L17.5481 -39.7144
L17.5555 -39.3791
L17.5645 -39.0422
L17.5749 -38.7038
L17.5868 -38.3638
L17.6002 -38.0224
L17.6149 -37.6795
L17.6309 -37.3352
L17.6483 -36.9896
L17.6668 -36.6428
L17.6865 -36.2946
L17.7074 -35.9454
L17.7292 -35.595
L17.7519 -35.2436
L17.7755 -34.8913
L17.7998 -34.5381
L17.8248 -34.1842
L17.8503 -33.8296
L17.8761 -33.4745
L17.9023 -33.1189
L17.9286 -32.7629
L17.9549 -32.4067
L17.981 -32.0505
L18.0068 -31.6942
L18.0322 -31.3381
L18.0568 -30.9823
L18.0807 -30.6269
L18.1035 -30.2721
L18.1251 -29.918
L18.1453 -29.5647
L18.1639 -29.2125
L18.1807 -28.8614
L18.1955 -28.5116
L18.208 -28.1633
L18.2182 -27.8167
L18.2257 -27.4718
L18.2304 -27.1288
L18.2321 -26.7879
L18.2306 -26.4493
L18.2258 -26.1131
L18.2174 -25.7793
L18.2054 -25.4482
L18.1895 -25.12
L18.1698 -24.7947
L18.146 -24.4724
L18.118 -24.1533
L18.0859 -23.8375
L18.0495 -23.5252
L18.0089 -23.2164
L17.9639 -22.9111
L17.9146 -22.6096
L17.861 -22.3119
L17.8032 -22.0181
L17.7412 -21.7283
L17.675 -21.4424
L17.6048 -21.1607
L17.5305 -20.8831
L17.4525 -20.6097
L17.3706 -20.3406
L17.2851 -20.0758
L17.1961 -19.8152
L17.1038 -19.5591
L17.0082 -19.3073
L16.9095 -19.0599
L16.8078 -18.817
L16.7034 -18.5785
L16.5963 -18.3444
L16.4867 -18.1149
L16.3747 -17.8897
L16.2604 -17.6691
L16.1441 -17.4529
L16.0258 -17.2411
L15.9056 -17.0338
L15.7837 -16.831
L15.6603 -16.6326
L15.0574 -16.4386
L14.7232 -16.6698
L14.3955 -17.0382
L14.0744 -17.4125
L13.76 -17.7923
L13.4523 -18.1778
L13.1516 -18.5686
L12.8577 -18.9648
L12.571 -19.3661
L12.2913 -19.7726
L12.0189 -20.1839
L11.7538 -20.6001
L11.4961 -21.021
L11.2458 -21.4464
L11.0031 -21.8763
L10.768 -22.3105
L10.5405 -22.7488
L10.3209 -23.1912
L10.109 -23.6375
L9.90507 -24.0875
L9.70906 -24.5412
L9.52106 -24.9983
L9.34112 -25.4589
L9.16931 -25.9226
L9.00567 -26.3894
L8.85025 -26.8591
L8.7031 -27.3316
L8.56426 -27.8068
L8.43379 -28.2844
L8.31171 -28.7644
L8.19806 -29.2466
L8.09288 -29.7309
L7.99621 -30.217
L7.90806 -30.705
L7.82847 -31.1945
L7.75746 -31.6855
L7.69506 -32.1778
L7.64128 -32.6713
L7.59613 -33.1658
L7.55964 -33.6612
L7.53181 -34.1572
L7.51265 -34.6539
L7.50217 -35.1509
L7.50037 -35.6482
L7.50725 -36.1456
L7.52282 -36.643
L7.54705 -37.1401
L7.57995 -37.637
L7.62151 -38.1333
L7.67172 -38.629
L7.73055 -39.1238
L7.79799 -39.6178
L7.87403 -40.1106
L7.95863 -40.6021
L8.05177 -41.0923
L8.15343 -41.5809
L8.26357 -42.0678
L8.38216 -42.5529
L8.50916 -43.036
L8.64454 -43.5169
L8.78824 -43.9955
L8.94024 -44.4717
L9.10048 -44.9454
L9.26891 -45.4163
L9.44549 -45.8843
L9.63015 -46.3493
L9.82285 -46.8112
L10.0235 -47.2697
L10.2321 -47.7249
L10.4485 -48.1764
L10.6728 -48.6243
L10.9047 -49.0683
L11.1443 -49.5083
L11.3914 -49.9442
L11.646 -50.3759
L11.9081 -50.8032
L12.1775 -51.226
L12.4542 -51.6441
L12.738 -52.0575
L13.0289 -52.466
L13.3268 -52.8695
L13.6316 -53.2678
L13.9433 -53.6609
L14.2616 -54.0486
L14.5866 -54.4308
L14.9181 -54.8073
L15.256 -55.1782
L15.6002 -55.5432
L15.9507 -55.9023
L16.3072 -56.2552
L16.6698 -56.6021
L17.0382 -56.9426
L17.4125 -57.2768
L17.7923 -57.6045
L18.1778 -57.9256
L18.5686 -58.24
L18.9648 -58.5477
L19.3661 -58.8484
L19.7726 -59.1423
L20.1839 -59.429
L20.6001 -59.7087
L21.021 -59.9811
z
" id="C0_2_28c1e903c7"/>
    </defs>
    <g clip-path="url(#p1bffca34e9)">
     <use style="fill:#ffffff;stroke:#000000;stroke-width:2.0;" x="0.0" xlink:href="#C0_0_a811fe30f3" y="72.0"/>
    </g>
    <g clip-path="url(#p1bffca34e9)">
     <use style="fill:#ff0000;stroke:#000000;stroke-width:2.0;" x="0.0" xlink:href="#C0_1_cc511e0059" y="72.0"/>
    </g>
    <g clip-path="url(#p1bffca34e9)">
     <use style="fill:#ff0000;stroke:#000000;stroke-width:2.0;" x="0.0" xlink:href="#C0_2_28c1e903c7" y="72.0"/>
    </g>
   </g>
  </g>
 </g>
 <defs>
  <clipPath id="p1bffca34e9">
   <rect height="72.0" width="72.0" x="0.0" y="0.0"/>
  </clipPath>
 </defs>
</svg>
