<?xml version="1.0" encoding="utf-8" standalone="no"?>
<!DOCTYPE svg PUBLIC "-//W3C//DTD SVG 1.1//EN"
  "http://www.w3.org/Graphics/SVG/1.1/DTD/svg11.dtd">
<!-- Created with matplotlib (http://matplotlib.org/) -->
<svg height="72pt" version="1.1" viewBox="0 0 72 72" width="72pt" xmlns="http://www.w3.org/2000/svg" xmlns:xlink="http://www.w3.org/1999/xlink">
 <defs>
  <style type="text/css">
*{stroke-linecap:butt;stroke-linejoin:round;}
  </style>
 </defs>
 <g id="figure_1">
  <g id="patch_1">
   <path d="
M0 72
L72 72
L72 0
L0 0
z
" style="fill:none;"/>
  </g>
  <g id="axes_1">
   <g id="PatchCollection_1">
    <defs>
     <path d="
M36 -7.5
C43.5583 -7.5 50.808 -10.5029 56.1525 -15.8475
C61.4971 -21.192 64.5 -28.4417 64.5 -36
C64.5 -43.5583 61.4971 -50.808 56.1525 -56.1525
C50.808 -61.4971 43.5583 -64.5 36 -64.5
C28.4417 -64.5 21.192 -61.4971 15.8475 -56.1525
C10.5029 -50.808 7.5 -43.5583 7.5 -36
C7.5 -28.4417 10.5029 -21.192 15.8475 -15.8475
C21.192 -10.5029 28.4417 -7.5 36 -7.5
z
" id="C0_0_a811fe30f3"/>
     <path d="
M21.5707 -60.3122
L21.6425 -59.9845
L21.715 -59.6544
L21.7887 -59.3225
L21.8638 -58.9894
L21.9405 -58.6555
L22.0189 -58.3215
L22.099 -57.9875
L22.1809 -57.654
L22.2645 -57.3212
L22.3498 -56.9894
L22.4368 -56.6589
L22.5254 -56.3297
L22.6154 -56.0021
L22.707 -55.6764
L22.7998 -55.3525
L22.8939 -55.0306
L22.9893 -54.7109
L23.0857 -54.3934
L23.1831 -54.0782
L23.2815 -53.7654
L23.3807 -53.4551
L23.4808 -53.1472
L23.5815 -52.8418
L23.6829 -52.5391
L23.7849 -52.2388
L23.8874 -51.9412
L23.9904 -51.6462
L24.0938 -51.3537
L24.1976 -51.0639
L24.3017 -50.7766
L24.406 -50.4919
L24.5107 -50.2096
L24.6155 -49.9299
L24.7205 -49.6527
L24.8257 -49.3779
L24.931 -49.1055
L25.0364 -48.8355
L25.1418 -48.5678
L25.2474 -48.3023
L25.353 -48.0391
L25.4586 -47.7781
L25.5643 -47.5191
L25.67 -47.2623
L25.7757 -47.0074
L25.8814 -46.7546
L25.9872 -46.5036
L26.0929 -46.2544
L26.1987 -46.0071
L26.3045 -45.7615
L26.4103 -45.5176
L26.5161 -45.2752
L26.622 -45.0345
L26.7279 -44.7952
L26.8338 -44.5574
L26.9398 -44.3209
L27.0459 -44.0858
L27.1521 -43.8519
L27.2584 -43.6192
L27.3647 -43.3877
L27.4713 -43.1572
L27.5779 -42.9277
L27.6847 -42.6992
L27.7917 -42.4716
L27.8989 -42.2449
L28.0063 -42.0189
L28.114 -41.7936
L28.2219 -41.569
L28.3301 -41.345
L28.4386 -41.1216
L28.5474 -40.8986
L28.6566 -40.6761
L28.7661 -40.4539
L28.8761 -40.232
L28.9864 -40.0104
L29.0973 -39.789
L29.3203 -39.5677
L29.4327 -39.3465
L29.5456 -39.1253
L29.659 -38.9041
L29.7731 -38.6828
L29.8879 -38.4613
L30.0033 -38.2396
L30.1195 -38.0176
L30.2363 -37.7954
L30.354 -37.5727
L30.4725 -37.3496
L30.5918 -37.126
L30.712 -36.9018
L30.8331 -36.6771
L30.9552 -36.4516
L31.0783 -36.2254
L31.2024 -35.9984
L31.3276 -35.7706
L31.4539 -35.5419
L31.5813 -35.3122
L31.7099 -35.0814
L31.8398 -34.8496
L31.9709 -34.6167
L32.1034 -34.3825
L32.2372 -34.1471
L32.3724 -33.9104
L32.5091 -33.6723
L32.6473 -33.4328
L32.787 -33.1918
L32.9284 -32.9492
L33.0713 -32.705
L33.216 -32.4592
L33.3624 -32.2117
L33.5106 -31.9624
L33.6606 -31.7112
L33.8126 -31.4582
L33.9664 -31.2033
L34.1223 -30.9464
L34.2802 -30.6875
L34.4402 -30.4265
L34.6024 -30.1633
L34.7667 -29.898
L34.9333 -29.6306
L35.1022 -29.3608
L35.2735 -29.0888
L35.4471 -28.8145
L35.6232 -28.5378
L35.8017 -28.2588
L35.9828 -27.9773
L36.1665 -27.6935
L36.3527 -27.4072
L36.5417 -27.1186
L36.7332 -26.8274
L36.9275 -26.5339
L37.1246 -26.2379
L37.3243 -25.9395
L37.5269 -25.6388
L37.7322 -25.3357
L37.9403 -25.0303
L38.1511 -24.7226
L38.3647 -24.4127
L38.5811 -24.1006
L38.8001 -23.7865
L39.0218 -23.4704
L39.2461 -23.1525
L39.4729 -22.8327
L39.7021 -22.5113
L39.9337 -22.1883
L40.1674 -21.8639
L40.4031 -21.5383
L40.6406 -21.2115
L40.8798 -20.8839
L41.1202 -20.5555
L41.3617 -20.2265
L41.6037 -19.8972
L41.8459 -19.5678
L42.0877 -19.2384
L42.3283 -18.9093
L42.5669 -18.5807
L42.8024 -18.2528
L43.0333 -17.9259
L43.258 -17.6001
L43.474 -17.2756
L43.6783 -16.9526
L43.8666 -16.6313
L44.0335 -16.3116
L44.1717 -15.9937
L44.272 -15.6775
L44.3236 -15.363
L44.3152 -15.05
L44.2376 -14.7385
L44.0868 -14.429
L43.8651 -14.1222
L43.5802 -13.8193
L43.2423 -13.5218
L42.8617 -13.2311
L42.4472 -12.9484
L42.0061 -12.6749
L41.5439 -12.4114
L41.0652 -12.1585
L40.5731 -11.9166
L40.0705 -11.6862
L39.5593 -11.4675
L39.0415 -11.2607
L38.5183 -11.0659
L37.9912 -10.8833
L37.461 -10.7128
L36.9288 -10.5546
L36.3954 -10.4084
L35.8614 -10.2744
L35.3277 -10.1523
L34.7946 -10.042
L34.2629 -9.9435
L33.733 -9.85652
L33.2053 -9.78091
L32.6802 -9.71648
L32.1581 -9.66301
L31.6394 -9.62029
L31.1243 -9.58808
L30.6131 -9.56616
L30.1061 -9.55426
L29.6035 -9.55215
L29.1055 -9.55958
L28.6122 -9.57628
L28.1239 -9.60202
L27.6406 -9.63653
L27.1624 -9.67957
L26.6895 -9.73088
L26.2219 -9.79022
L25.7598 -9.85736
L25.303 -9.93205
L24.8518 -10.0141
L24.4061 -10.1032
L23.9659 -10.1992
L23.5312 -10.3018
L23.0708 -10.411
L22.6295 -10.6015
L22.1922 -10.831
L21.7592 -11.0682
L21.3305 -11.313
L20.9063 -11.5653
L20.4867 -11.825
L20.0718 -12.0921
L19.6618 -12.3665
L19.2567 -12.6481
L18.8568 -12.9368
L18.462 -13.2325
L18.0726 -13.5351
L17.6887 -13.8446
L17.3103 -14.1609
L16.9377 -14.4838
L16.5708 -14.8133
L16.2099 -15.1492
L15.855 -15.4914
L15.5062 -15.8399
L15.1637 -16.1946
L14.8275 -16.5553
L14.4978 -16.9219
L14.1746 -17.2943
L13.858 -17.6724
L13.5482 -18.0561
L13.2453 -18.4453
L12.9493 -18.8398
L12.6603 -19.2395
L12.3784 -19.6444
L12.1037 -20.0542
L11.8363 -20.4689
L11.5762 -20.8883
L11.3236 -21.3123
L11.0785 -21.7408
L10.841 -22.1736
L10.6111 -22.6107
L10.389 -23.0518
L10.1747 -23.4969
L9.96828 -23.9457
L9.76977 -24.3983
L9.57925 -24.8544
L9.39677 -25.3138
L9.2224 -25.7766
L9.05619 -26.2424
L8.89818 -26.7112
L8.74843 -27.1829
L8.60698 -27.6572
L8.47387 -28.1341
L8.34915 -28.6134
L8.23285 -29.0949
L8.12501 -29.5785
L8.02566 -30.0641
L7.93483 -30.5515
L7.85255 -31.0406
L7.77884 -31.5311
L7.71373 -32.023
L7.65724 -32.5162
L7.60938 -33.0104
L7.57017 -33.5055
L7.53962 -34.0013
L7.51773 -34.4978
L7.50453 -34.9947
L7.5 -35.492
L7.50416 -35.9894
L7.51699 -36.4868
L7.5385 -36.984
L7.56868 -37.481
L7.60753 -37.9774
L7.65502 -38.4733
L7.71114 -38.9685
L7.77588 -39.4627
L7.84922 -39.9559
L7.93113 -40.4479
L8.0216 -40.9385
L8.12058 -41.4276
L8.22806 -41.9151
L8.344 -42.4007
L8.46836 -42.8845
L8.60111 -43.3661
L8.74221 -43.8454
L8.8916 -44.3224
L9.04926 -44.7969
L9.21512 -45.2686
L9.38915 -45.7376
L9.57128 -46.2036
L9.76146 -46.6664
L9.95963 -47.126
L10.1657 -47.5823
L10.3797 -48.035
L10.6015 -48.484
L10.831 -48.9292
L11.0682 -49.3705
L11.313 -49.8078
L11.5653 -50.2408
L11.825 -50.6695
L12.0921 -51.0937
L12.3665 -51.5133
L12.6481 -51.9282
L12.9368 -52.3382
L13.2325 -52.7433
L13.5351 -53.1432
L13.8446 -53.538
L14.1609 -53.9274
L14.4838 -54.3113
L14.8133 -54.6897
L15.1492 -55.0623
L15.4914 -55.4292
L15.8399 -55.7901
L16.1946 -56.145
L16.5553 -56.4938
L16.9219 -56.8363
L17.2943 -57.1725
L17.6724 -57.5022
L18.0561 -57.8254
L18.4453 -58.142
L18.8398 -58.4518
L19.2395 -58.7547
L19.6444 -59.0507
L20.0542 -59.3397
L20.4689 -59.6216
L20.8883 -59.8963
z
" id="C0_1_3dc9d886ce"/>
     <path d="
M48.8502 -61.3793
L49.1919 -61.1054
L49.5245 -60.8298
L49.8484 -60.5528
L50.1637 -60.2745
L50.4706 -59.9952
L50.7694 -59.7149
L51.0603 -59.4337
L51.3435 -59.1518
L51.6192 -58.8692
L51.8876 -58.5862
L52.149 -58.3026
L52.4034 -58.0187
L52.6511 -57.7345
L52.8923 -57.4499
L53.1272 -57.1652
L53.3559 -56.8803
L53.5786 -56.5952
L53.7954 -56.31
L54.0066 -56.0247
L54.2122 -55.7394
L54.4124 -55.4539
L54.6074 -55.1684
L54.7972 -54.8828
L54.9821 -54.5972
L55.1621 -54.3115
L55.3374 -54.0257
L55.5081 -53.7397
L55.6742 -53.4537
L55.8359 -53.1676
L55.9933 -52.8812
L56.1465 -52.5947
L56.2956 -52.308
L56.4406 -52.021
L56.5817 -51.7337
L56.719 -51.4461
L56.8524 -51.1581
L56.9821 -50.8697
L57.1081 -50.5809
L57.2305 -50.2916
L57.3494 -50.0018
L57.4647 -49.7114
L57.5767 -49.4204
L57.6852 -49.1287
L57.7904 -48.8363
L57.8923 -48.543
L57.9909 -48.249
L58.0862 -47.9541
L58.1783 -47.6582
L58.2673 -47.3613
L58.353 -47.0633
L58.4356 -46.7643
L58.515 -46.464
L58.5913 -46.1625
L58.6644 -45.8597
L58.7345 -45.5556
L58.8013 -45.25
L58.8651 -44.9429
L58.9256 -44.6342
L58.983 -44.324
L59.0373 -44.012
L59.0883 -43.6983
L59.1361 -43.3827
L59.1806 -43.0653
L59.2218 -42.7458
L59.2597 -42.4244
L59.2942 -42.1009
L59.3253 -41.7751
L59.3529 -41.4472
L59.377 -41.1169
L59.3975 -40.7843
L59.4144 -40.4493
L59.4275 -40.1117
L59.4368 -39.7715
L59.4423 -39.4287
L59.4438 -39.0833
L59.4412 -38.735
L59.4345 -38.3839
L59.4236 -38.03
L59.4083 -37.673
L59.3886 -37.3131
L59.3643 -36.9502
L59.3353 -36.5841
L59.3015 -36.2149
L59.2628 -35.8425
L59.2189 -35.4669
L59.1699 -35.088
L59.1155 -34.7058
L59.0555 -34.3203
L58.9899 -33.9314
L58.9184 -33.5392
L58.8409 -33.1437
L58.7572 -32.7448
L58.6672 -32.3426
L58.5706 -31.9371
L58.4673 -31.5282
L58.3571 -31.1162
L58.2398 -30.7009
L58.1152 -30.2825
L57.9831 -29.8611
L57.8433 -29.4367
L57.6956 -29.0094
L57.5399 -28.5794
L57.376 -28.1468
L57.2036 -27.7118
L57.0226 -27.2744
L56.8328 -26.8349
L56.634 -26.3936
L56.4262 -25.9505
L56.2091 -25.506
L55.9827 -25.0603
L55.7469 -24.6138
L55.5015 -24.1666
L55.2466 -23.7191
L54.9821 -23.2717
L54.708 -22.8248
L54.4244 -22.3787
L54.1315 -21.9337
L53.8294 -21.4905
L53.5184 -21.0493
L53.1988 -20.6106
L52.8712 -20.175
L52.5362 -19.743
L52.1945 -19.315
L51.8473 -18.8916
L51.4959 -18.4733
L51.1422 -18.0608
L50.7885 -17.6547
L50.4381 -17.2556
L50.095 -16.8643
L49.7651 -16.4814
L49.4556 -16.1078
L49.1759 -15.7443
L48.9371 -15.3918
L48.7507 -15.0509
L48.6259 -14.722
L48.5672 -14.4048
L48.5726 -14.099
L48.6346 -13.8036
L48.7434 -13.5176
L48.889 -13.2404
L49.0629 -12.9714
L49.2582 -12.7101
L49.4698 -12.4563
L49.6936 -12.2099
L49.9267 -11.9707
L50.1667 -11.7388
L50.883 -11.5141
L51.3049 -11.6947
L51.7221 -11.9582
L52.1346 -12.2289
L52.5422 -12.5069
L52.9447 -12.7921
L53.342 -13.0843
L53.7341 -13.3835
L54.1208 -13.6897
L54.5019 -14.0026
L54.8774 -14.3222
L55.2472 -14.6484
L55.6111 -14.9811
L55.969 -15.3202
L56.3209 -15.6656
L56.6665 -16.0172
L57.0059 -16.3749
L57.3388 -16.7386
L57.6653 -17.1081
L57.9852 -17.4834
L58.2983 -17.8643
L58.6047 -18.2508
L58.9042 -18.6426
L59.1967 -19.0398
L59.4821 -19.4421
L59.7604 -19.8495
L60.0315 -20.2617
L60.2952 -20.6788
L60.5515 -21.1006
L60.8004 -21.5268
L61.0417 -21.9575
L61.2753 -22.3925
L61.5013 -22.8316
L61.7195 -23.2747
L61.9299 -23.7217
L62.1324 -24.1724
L62.3269 -24.6268
L62.5134 -25.0846
L62.6918 -25.5457
L62.8621 -26.01
L63.0242 -26.4774
L63.178 -26.9477
L63.3236 -27.4207
L63.4609 -27.8963
L63.5898 -28.3744
L63.7103 -28.8548
L63.8223 -29.3374
L63.9259 -29.822
L64.021 -30.3085
L64.1075 -30.7968
L64.1855 -31.2866
L64.2549 -31.7779
L64.3157 -32.2704
L64.3679 -32.7641
L64.4114 -33.2588
L64.4463 -33.7543
L64.4725 -34.2505
L64.49 -34.7472
L64.4988 -35.2443
L64.499 -35.7416
L64.4905 -36.239
L64.4733 -36.7364
L64.4474 -37.2335
L64.4129 -37.7302
L64.3697 -38.2264
L64.3179 -38.722
L64.2574 -39.2167
L64.1884 -39.7104
L64.1107 -40.203
L64.0245 -40.6943
L63.9298 -41.1842
L63.8265 -41.6725
L63.7148 -42.1591
L63.5946 -42.6438
L63.466 -43.1265
L63.3291 -43.607
L63.1838 -44.0852
L63.0303 -44.5609
L62.8685 -45.034
L62.6985 -45.5044
L62.5204 -45.9719
L62.3343 -46.4363
L62.1401 -46.8975
L61.9379 -47.3555
L61.7278 -47.81
L61.5099 -48.2608
L61.2843 -48.708
L61.0509 -49.1513
L60.8099 -49.5905
L60.5613 -50.0257
L60.3053 -50.4565
L60.0418 -50.883
L59.7711 -51.3049
L59.4931 -51.7221
L59.2079 -52.1346
L58.9157 -52.5422
L58.6165 -52.9447
L58.3103 -53.342
L57.9974 -53.7341
L57.6778 -54.1208
L57.3516 -54.5019
L57.0189 -54.8774
L56.6798 -55.2472
L56.3344 -55.6111
L55.9828 -55.969
L55.6251 -56.3209
L55.2614 -56.6665
L54.8919 -57.0059
L54.5166 -57.3388
L54.1357 -57.6653
L53.7492 -57.9852
L53.3574 -58.2983
L52.9602 -58.6047
L52.5579 -58.9042
L52.1505 -59.1967
L51.7383 -59.4821
L51.3212 -59.7604
L50.8994 -60.0315
L50.4732 -60.2952
L50.0425 -60.5515
L49.6075 -60.8004
z
" id="C0_2_8e4ee9b14d"/>
    </defs>
    <g clip-path="url(#p1bffca34e9)">
     <use style="fill:#ffffff;stroke:#000000;stroke-width:2.0;" x="0.0" xlink:href="#C0_0_a811fe30f3" y="72.0"/>
    </g>
    <g clip-path="url(#p1bffca34e9)">
     <use style="fill:#ff0000;stroke:#000000;stroke-width:2.0;" x="0.0" xlink:href="#C0_1_3dc9d886ce" y="72.0"/>
    </g>
    <g clip-path="url(#p1bffca34e9)">
     <use style="fill:#ff0000;stroke:#000000;stroke-width:2.0;" x="0.0" xlink:href="#C0_2_8e4ee9b14d" y="72.0"/>
    </g>
   </g>
  </g>
 </g>
 <defs>
  <clipPath id="p1bffca34e9">
   <rect height="72.0" width="72.0" x="0.0" y="0.0"/>
  </clipPath>
 </defs>
</svg>
