<?xml version="1.0" encoding="utf-8" standalone="no"?>
<!DOCTYPE svg PUBLIC "-//W3C//DTD SVG 1.1//EN"
  "http://www.w3.org/Graphics/SVG/1.1/DTD/svg11.dtd">
<!-- Created with matplotlib (http://matplotlib.org/) -->
<svg height="72pt" version="1.1" viewBox="0 0 72 72" width="72pt" xmlns="http://www.w3.org/2000/svg" xmlns:xlink="http://www.w3.org/1999/xlink">
 <defs>
  <style type="text/css">
*{stroke-linecap:butt;stroke-linejoin:round;}
  </style>
 </defs>
 <g id="figure_1">
  <g id="patch_1">
   <path d="
M0 72
L72 72
L72 0
L0 0
z
" style="fill:none;"/>
  </g>
  <g id="axes_1">
   <g id="PatchCollection_1">
    <defs>
     <path d="
M36 -7.5
C43.5583 -7.5 50.808 -10.5029 56.1525 -15.8475
C61.4971 -21.192 64.5 -28.4417 64.5 -36
C64.5 -43.5583 61.4971 -50.808 56.1525 -56.1525
C50.808 -61.4971 43.5583 -64.5 36 -64.5
C28.4417 -64.5 21.192 -61.4971 15.8475 -56.1525
C10.5029 -50.808 7.5 -43.5583 7.5 -36
C7.5 -28.4417 10.5029 -21.192 15.8475 -15.8475
C21.192 -10.5029 28.4417 -7.5 36 -7.5
z
" id="C0_0_a811fe30f3"/>
     <path d="
M59.5358 -20.0188
L59.3153 -20.0878
L59.0961 -20.1578
L58.8783 -20.2289
L58.6618 -20.3009
L58.4466 -20.3739
L58.2326 -20.4477
L58.0199 -20.5223
L57.8083 -20.5977
L57.5979 -20.6738
L57.3886 -20.7506
L57.1804 -20.8282
L56.9732 -20.9064
L56.7669 -20.9852
L56.5617 -21.0647
L56.3573 -21.1447
L56.1538 -21.2254
L55.9511 -21.3066
L55.7492 -21.3884
L55.548 -21.4708
L55.3474 -21.5537
L55.1476 -21.6372
L54.9483 -21.7212
L54.7495 -21.8057
L54.5512 -21.8909
L54.3534 -21.9765
L54.156 -22.0627
L53.9589 -22.1495
L53.7622 -22.2368
L53.5657 -22.3247
L53.3693 -22.4132
L53.1732 -22.5023
L52.9771 -22.592
L52.7812 -22.6823
L52.5852 -22.7732
L52.3891 -22.8648
L52.193 -22.957
L51.9967 -23.0499
L51.8003 -23.1435
L51.6035 -23.2378
L51.2091 -23.3328
L51.0113 -23.4286
L50.8131 -23.5251
L50.6143 -23.6225
L50.415 -23.7206
L50.215 -23.8196
L50.0144 -23.9195
L49.813 -24.0203
L49.6108 -24.122
L49.4077 -24.2247
L49.2038 -24.3283
L48.9989 -24.4329
L48.7929 -24.5386
L48.5859 -24.6454
L48.3777 -24.7533
L48.1683 -24.8623
L47.9576 -24.9725
L47.7456 -25.0839
L47.5322 -25.1966
L47.3173 -25.3105
L47.1009 -25.4258
L46.8829 -25.5424
L46.6633 -25.6605
L46.4419 -25.78
L46.2188 -25.9011
L45.9937 -26.0236
L45.7668 -26.1478
L45.5379 -26.2736
L45.3068 -26.4011
L45.0737 -26.5303
L44.8383 -26.6613
L44.6007 -26.7941
L44.3607 -26.9288
L44.1183 -27.0654
L43.8735 -27.2041
L43.626 -27.3448
L43.3759 -27.4876
L43.1231 -27.6325
L42.8676 -27.7797
L42.6092 -27.9291
L42.3478 -28.0808
L42.0835 -28.235
L41.8162 -28.3916
L41.5457 -28.5506
L41.272 -28.7123
L40.9952 -28.8765
L40.715 -29.0435
L40.4314 -29.2131
L40.1444 -29.3856
L39.854 -29.5609
L39.56 -29.7391
L39.2625 -29.9202
L38.9615 -30.1043
L38.6567 -30.2915
L38.3483 -30.4817
L38.0363 -30.6751
L37.7205 -30.8716
L37.4011 -31.0713
L37.0779 -31.2743
L36.7511 -31.4805
L36.4205 -31.6899
L36.0864 -31.9027
L35.7486 -32.1187
L35.4072 -32.3379
L35.0623 -32.5604
L34.714 -32.7862
L34.3623 -33.0151
L34.0073 -33.2471
L33.6492 -33.4822
L33.288 -33.7203
L32.924 -33.9613
L32.5572 -34.205
L32.1878 -34.4513
L31.816 -34.7
L31.4421 -34.9509
L31.0662 -35.2038
L30.6885 -35.4583
L30.3094 -35.714
L29.9291 -35.9705
L29.5479 -36.2273
L29.1662 -36.4835
L28.7844 -36.7383
L28.4028 -36.9903
L28.0221 -37.238
L27.6429 -37.4791
L27.2659 -37.7103
L26.8923 -37.9269
L26.5235 -38.122
L26.1613 -38.2857
L25.8081 -38.404
L25.4662 -38.4599
L25.1369 -38.4377
L24.8201 -38.3304
L24.5147 -38.144
L24.2191 -37.8938
L23.9322 -37.5963
L23.6532 -37.2652
L23.3815 -36.9105
L23.1168 -36.5392
L22.859 -36.1559
L22.6078 -35.7642
L22.3634 -35.3663
L22.1256 -34.9641
L21.8944 -34.559
L21.6698 -34.1519
L21.452 -33.7438
L21.2407 -33.3354
L21.036 -32.9273
L20.838 -32.52
L20.6465 -32.1139
L20.4616 -31.7093
L20.2831 -31.3067
L20.1111 -30.9064
L19.9454 -30.5085
L19.7861 -30.1133
L19.6329 -29.721
L19.4859 -29.3317
L19.3449 -28.9457
L19.2099 -28.5631
L19.0807 -28.1839
L18.9573 -27.8083
L18.8395 -27.4363
L18.7272 -27.0681
L18.6204 -26.7035
L18.5188 -26.3428
L18.4224 -25.9859
L18.3312 -25.6329
L18.2448 -25.2837
L18.1634 -24.9383
L18.0867 -24.5967
L18.0146 -24.259
L17.947 -23.925
L17.8839 -23.5948
L17.825 -23.2683
L17.7704 -22.9454
L17.7199 -22.6262
L17.6734 -22.3105
L17.6309 -21.9983
L17.5922 -21.6896
L17.5572 -21.3843
L17.5259 -21.0823
L17.4982 -20.7835
L17.4741 -20.4879
L17.4533 -20.1955
L17.4359 -19.906
L17.4219 -19.6196
L17.411 -19.336
L17.4034 -19.0552
L17.3989 -18.7772
L17.3975 -18.5018
L17.3991 -18.2291
L17.4037 -17.9588
L17.4112 -17.691
L17.4217 -17.4256
L17.435 -17.1624
L17.4512 -16.9014
L17.4702 -16.6426
L17.4919 -16.3859
L17.5165 -16.1311
L17.5438 -15.8783
L17.5739 -15.6273
L17.6067 -15.378
L17.6423 -15.1305
L17.6805 -14.8846
L17.7215 -14.6403
L17.7653 -14.3974
L18.1208 -14.156
L18.5109 -13.8058
L18.9063 -13.4971
L19.3069 -13.1953
L19.7125 -12.9005
L20.1232 -12.6126
L20.5387 -12.3319
L20.9589 -12.0585
L21.3836 -11.7923
L21.8129 -11.5335
L22.2464 -11.2821
L22.6841 -11.0383
L23.1259 -10.802
L23.5717 -10.5735
L24.0212 -10.3527
L24.4743 -10.1397
L24.931 -9.93454
L25.391 -9.73735
L25.8543 -9.54817
L26.3206 -9.36705
L26.7899 -9.19404
L27.262 -9.02919
L27.7368 -8.87256
L28.2141 -8.7242
L28.6937 -8.58414
L29.1756 -8.45243
L29.6596 -8.32911
L30.1455 -8.21423
L30.6332 -8.1078
L31.1225 -8.00988
L31.6133 -7.92047
L32.1054 -7.83963
L32.5987 -7.76736
L33.0931 -7.70369
L33.5883 -7.64864
L34.0843 -7.60222
L34.5809 -7.56446
L35.0779 -7.53535
L35.5751 -7.51492
L36.0725 -7.50317
L36.5699 -7.50009
L37.0671 -7.5057
L37.564 -7.51999
L38.0604 -7.54295
L38.5562 -7.57458
L39.0512 -7.61487
L39.5453 -7.6638
L40.0383 -7.72137
L40.53 -7.78755
L41.0204 -7.86232
L41.5092 -7.94567
L41.9964 -8.03756
L42.4818 -8.13796
L42.9651 -8.24686
L43.4464 -8.36421
L43.9254 -8.48998
L44.4019 -8.62412
L44.8759 -8.76661
L45.3472 -8.91739
L45.8157 -9.07642
L46.2812 -9.24366
L46.7435 -9.41904
L47.2026 -9.60252
L47.6582 -9.79404
L48.1103 -9.99354
L48.5587 -10.201
L49.0033 -10.4163
L49.4439 -10.6393
L49.8805 -10.8701
L50.3128 -11.1086
L50.7407 -11.3546
L51.1642 -11.6082
L51.583 -11.8691
L51.9971 -12.1375
L52.4063 -12.4131
L52.8105 -12.6958
L53.2096 -12.9857
L53.6035 -13.2826
L53.9919 -13.5864
L54.375 -13.8971
L54.7524 -14.2144
L55.1241 -14.5384
L55.4899 -14.869
L55.8499 -15.206
L56.2038 -15.5493
L56.5515 -15.8988
L56.893 -16.2545
L57.2281 -16.6162
L57.5567 -16.9837
L57.8788 -17.3571
L58.1942 -17.7362
L58.5029 -18.1208
L58.8047 -18.5109
L59.0995 -18.9063
z
" id="C0_1_345c0856dc"/>
     <path d="
M54.0485 -57.9143
L53.8053 -57.9121
L53.5633 -57.9071
L53.3225 -57.8994
L53.0826 -57.889
L52.8438 -57.876
L52.6058 -57.8604
L52.3686 -57.8423
L52.1322 -57.8217
L51.8965 -57.7987
L51.6614 -57.7732
L51.4268 -57.7453
L51.1927 -57.7151
L50.9591 -57.6825
L50.7257 -57.6477
L50.4927 -57.6105
L50.2599 -57.571
L50.0272 -57.5292
L49.7946 -57.4851
L49.562 -57.4388
L49.3294 -57.3902
L49.0967 -57.3392
L48.8638 -57.2861
L48.6307 -57.2306
L48.3972 -57.1728
L48.1634 -57.1126
L47.9292 -57.0502
L47.6945 -56.9853
L47.4592 -56.9181
L47.2233 -56.8485
L46.9867 -56.7764
L46.7494 -56.7019
L46.5112 -56.6248
L46.2722 -56.5452
L46.0323 -56.4631
L45.7914 -56.3783
L45.5494 -56.2908
L45.3063 -56.2007
L45.062 -56.1077
L44.8165 -56.012
L44.5696 -55.9134
L44.3214 -55.8118
L44.0718 -55.7073
L43.8207 -55.5997
L43.5681 -55.489
L43.3138 -55.3751
L43.0579 -55.2579
L42.8003 -55.1374
L42.5409 -55.0135
L42.2796 -54.8861
L42.0165 -54.7551
L41.7515 -54.6205
L41.4844 -54.4821
L41.2154 -54.3399
L40.9442 -54.1938
L40.671 -54.0436
L40.3955 -53.8893
L40.1179 -53.7309
L39.838 -53.5681
L39.5559 -53.4009
L39.2714 -53.2292
L38.9846 -53.0528
L38.6955 -52.8718
L38.404 -52.6859
L38.1101 -52.4952
L37.8138 -52.2994
L37.5152 -52.0984
L37.2141 -51.8923
L36.9107 -51.6808
L36.6049 -51.4639
L36.2968 -51.2415
L35.9864 -51.0135
L35.6738 -50.7798
L35.359 -50.5404
L35.042 -50.2951
L34.7229 -50.044
L34.4019 -49.7869
L34.0789 -49.5239
L33.7541 -49.2548
L33.4277 -48.9797
L33.0996 -48.6986
L32.7701 -48.4115
L32.4394 -48.1184
L32.1074 -47.8193
L31.7745 -47.5145
L31.4407 -47.2039
L31.1064 -46.8878
L30.7715 -46.5663
L30.4365 -46.2397
L30.1013 -45.9082
L29.7664 -45.5722
L29.4318 -45.2323
L29.0978 -44.8889
L28.7645 -44.5428
L28.4322 -44.195
L28.101 -43.8468
L27.771 -43.4998
L27.4422 -43.1563
L27.1146 -42.8198
L26.7879 -42.4948
L26.4616 -42.1884
L26.135 -41.9107
L25.8066 -41.6757
L25.4747 -41.5003
L25.1375 -41.4006
L24.7944 -41.3835
L24.4459 -41.4431
L24.0936 -41.5645
L23.7396 -41.731
L23.3855 -41.9292
L23.0325 -42.1491
L22.6817 -42.384
L22.3337 -42.6292
L21.989 -42.8815
L21.6482 -43.1387
L21.3114 -43.3991
L20.9791 -43.6614
L20.6515 -43.9247
L20.3287 -44.1883
L20.011 -44.4516
L19.6985 -44.7141
L19.3913 -44.9755
L19.0895 -45.2354
L18.7932 -45.4936
L18.5024 -45.7498
L18.2173 -46.0039
L17.9378 -46.2558
L17.664 -46.5052
L17.3958 -46.7521
L17.1333 -46.9963
L16.8764 -47.2379
L16.6251 -47.4767
L16.3794 -47.7128
L16.1392 -47.946
L15.9045 -48.1764
L15.6752 -48.404
L15.4512 -48.6287
L15.2325 -48.8505
L15.019 -49.0695
L14.8106 -49.2857
L14.6073 -49.4991
L14.4089 -49.7098
L14.2153 -49.9177
L14.0265 -50.123
L13.8423 -50.3256
L13.6627 -50.5256
L13.4876 -50.7231
L13.3169 -50.9181
L13.1505 -51.1106
L12.9883 -51.3008
L12.8302 -51.4886
L12.6761 -51.6742
L12.6657 -51.8575
L12.9548 -52.3633
L13.251 -52.7681
L13.554 -53.1677
L13.864 -53.5621
L14.1806 -53.9512
L14.5039 -54.3348
L14.8338 -54.7128
L15.1701 -55.0851
L15.5127 -55.4516
L15.8616 -55.8122
L16.2167 -56.1667
L16.5777 -56.5151
L16.9447 -56.8572
L17.3174 -57.193
L17.6959 -57.5224
L18.0799 -57.8451
L18.4694 -58.1613
L18.8643 -58.4706
L19.2643 -58.7732
L19.6695 -59.0688
L20.0796 -59.3573
L20.4946 -59.6388
L20.9143 -59.913
L21.3386 -60.18
L21.7674 -60.4396
L22.2005 -60.6917
L22.6378 -60.9364
L23.0791 -61.1734
L23.5244 -61.4028
L23.9735 -61.6244
L24.4263 -61.8382
L24.8826 -62.0442
L25.3423 -62.2422
L25.8052 -62.4322
L26.2713 -62.6142
L26.7403 -62.7881
L27.2121 -62.9538
L27.6866 -63.1113
L28.1636 -63.2605
L28.643 -63.4015
L29.1247 -63.5341
L29.6084 -63.6583
L30.0941 -63.774
L30.5816 -63.8814
L31.0708 -63.9802
L31.5614 -64.0705
L32.0534 -64.1522
L32.5466 -64.2254
L33.0409 -64.29
L33.536 -64.346
L34.0319 -64.3933
L34.5284 -64.432
L35.0254 -64.462
L35.5226 -64.4833
L36.02 -64.496
L36.5174 -64.5
L37.0147 -64.4953
L37.5116 -64.4819
L38.008 -64.4599
L38.5039 -64.4292
L38.999 -64.3898
L39.4932 -64.3418
L39.9863 -64.2851
L40.4782 -64.2198
L40.9687 -64.146
L41.4577 -64.0635
L41.9451 -63.9725
L42.4306 -63.873
L42.9142 -63.765
L43.3957 -63.6486
L43.8749 -63.5237
L44.3518 -63.3904
L44.826 -63.2488
L45.2976 -63.0989
L45.7664 -62.9407
L46.2322 -62.7744
L46.6949 -62.5999
L47.1543 -62.4172
L47.6103 -62.2266
L48.0628 -62.0279
L48.5116 -61.8213
L48.9566 -61.6068
L49.3976 -61.3846
L49.8346 -61.1546
L50.2673 -60.9169
L50.6958 -60.6717
L51.1197 -60.4189
L51.539 -60.1587
L51.9536 -59.8912
L52.3633 -59.6164
L52.7681 -59.3343
L53.1677 -59.0452
L53.5621 -58.749
z
" id="C0_2_3350bdeefd"/>
    </defs>
    <g clip-path="url(#p1bffca34e9)">
     <use style="fill:#ffffff;stroke:#000000;stroke-width:2.0;" x="0.0" xlink:href="#C0_0_a811fe30f3" y="72.0"/>
    </g>
    <g clip-path="url(#p1bffca34e9)">
     <use style="fill:#ff0000;stroke:#000000;stroke-width:2.0;" x="0.0" xlink:href="#C0_1_345c0856dc" y="72.0"/>
    </g>
    <g clip-path="url(#p1bffca34e9)">
     <use style="fill:#ff0000;stroke:#000000;stroke-width:2.0;" x="0.0" xlink:href="#C0_2_3350bdeefd" y="72.0"/>
    </g>
   </g>
  </g>
 </g>
 <defs>
  <clipPath id="p1bffca34e9">
   <rect height="72.0" width="72.0" x="0.0" y="0.0"/>
  </clipPath>
 </defs>
</svg>
