<?xml version="1.0" encoding="utf-8" standalone="no"?>
<!DOCTYPE svg PUBLIC "-//W3C//DTD SVG 1.1//EN"
  "http://www.w3.org/Graphics/SVG/1.1/DTD/svg11.dtd">
<!-- Created with matplotlib (http://matplotlib.org/) -->
<svg height="72pt" version="1.1" viewBox="0 0 72 72" width="72pt" xmlns="http://www.w3.org/2000/svg" xmlns:xlink="http://www.w3.org/1999/xlink">
 <defs>
  <style type="text/css">
*{stroke-linecap:butt;stroke-linejoin:round;}
  </style>
 </defs>
 <g id="figure_1">
  <g id="patch_1">
   <path d="
M0 72
L72 72
L72 0
L0 0
z
" style="fill:none;"/>
  </g>
  <g id="axes_1">
   <g id="PatchCollection_1">
    <defs>
     <path d="
M36 -7.5
C43.5583 -7.5 50.808 -10.5029 56.1525 -15.8475
C61.4971 -21.192 64.5 -28.4417 64.5 -36
C64.5 -43.5583 61.4971 -50.808 56.1525 -56.1525
C50.808 -61.4971 43.5583 -64.5 36 -64.5
C28.4417 -64.5 21.192 -61.4971 15.8475 -56.1525
C10.5029 -50.808 7.5 -43.5583 7.5 -36
C7.5 -28.4417 10.5029 -21.192 15.8475 -15.8475
C21.192 -10.5029 28.4417 -7.5 36 -7.5
z
" id="C0_0_a811fe30f3"/>
     <path d="
M58.8162 -52.7472
L58.6247 -52.5942
L58.4427 -52.4227
L58.2695 -52.2337
L58.1042 -52.0287
L57.9462 -51.809
L57.7945 -51.5757
L57.6485 -51.3303
L57.5074 -51.0738
L57.3705 -50.8076
L57.2371 -50.5326
L57.1066 -50.2499
L56.9785 -49.9605
L56.8522 -49.6652
L56.7273 -49.365
L56.6034 -49.0606
L56.4802 -48.7527
L56.3573 -48.4419
L56.2345 -48.1288
L56.1117 -47.814
L55.9885 -47.498
L55.8649 -47.1812
L55.7407 -46.864
L55.6159 -46.5469
L55.4902 -46.23
L55.3638 -45.9137
L55.2365 -45.5983
L55.1083 -45.284
L54.9792 -44.971
L54.8492 -44.6596
L54.7182 -44.3498
L54.5864 -44.0418
L54.4536 -43.7358
L54.3199 -43.4319
L54.1854 -43.1301
L54.0501 -42.8305
L53.9139 -42.5332
L53.7769 -42.2383
L53.6392 -41.9458
L53.5008 -41.6557
L53.3616 -41.3681
L53.2218 -41.083
L53.0813 -40.8004
L52.9403 -40.5202
L52.7986 -40.2425
L52.6563 -39.9674
L52.5135 -39.6946
L52.3702 -39.4244
L52.2263 -39.1565
L52.082 -38.8911
L51.9372 -38.628
L51.7919 -38.3672
L51.6462 -38.1088
L51.5 -37.8526
L51.3534 -37.5986
L51.2063 -37.3469
L51.0589 -37.0972
L50.911 -36.8497
L50.7628 -36.6042
L50.6141 -36.3607
L50.4649 -36.1191
L50.3154 -35.8795
L50.1654 -35.6417
L50.0151 -35.4057
L49.8642 -35.1715
L49.7129 -34.9389
L49.5612 -34.7081
L49.409 -34.4788
L49.2563 -34.2511
L49.1031 -34.0249
L48.9494 -33.8002
L48.7952 -33.5768
L48.6404 -33.3548
L48.4851 -33.1342
L48.3292 -32.9147
L48.1726 -32.6965
L48.0155 -32.4795
L47.8577 -32.2635
L47.6992 -32.0487
L47.54 -31.8348
L47.3801 -31.6219
L47.2194 -31.41
L47.0579 -31.1989
L46.8956 -30.9887
L46.7325 -30.7792
L46.4036 -30.5705
L46.2378 -30.3625
L46.071 -30.1551
L45.9032 -29.9484
L45.7344 -29.7422
L45.5644 -29.5366
L45.3934 -29.3315
L45.2212 -29.1268
L45.0478 -28.9225
L44.8732 -28.7186
L44.6974 -28.5151
L44.5202 -28.3118
L44.3417 -28.1088
L44.1617 -27.9061
L43.9804 -27.7035
L43.7976 -27.5011
L43.6132 -27.2988
L43.4273 -27.0966
L43.2398 -26.8945
L43.0506 -26.6924
L42.8598 -26.4903
L42.6671 -26.2882
L42.4727 -26.086
L42.2765 -25.8838
L42.0783 -25.6814
L41.8783 -25.4789
L41.6762 -25.2762
L41.4721 -25.0734
L41.266 -24.8704
L41.0577 -24.6671
L40.8473 -24.4637
L40.6346 -24.2599
L40.4197 -24.0559
L40.2025 -23.8517
L39.983 -23.6471
L39.761 -23.4423
L39.5367 -23.2371
L39.3098 -23.0316
L39.0805 -22.8258
L38.8487 -22.6197
L38.6142 -22.4133
L38.3772 -22.2066
L38.1376 -21.9995
L37.8954 -21.7922
L37.6505 -21.5845
L37.4029 -21.3766
L37.1527 -21.1684
L36.8998 -20.96
L36.6443 -20.7513
L36.3862 -20.5425
L36.1254 -20.3334
L35.8621 -20.1242
L35.5962 -19.9149
L35.3279 -19.7055
L35.0571 -19.496
L34.7841 -19.2865
L34.5088 -19.0769
L34.2315 -18.8674
L33.9521 -18.658
L33.671 -18.4486
L33.3882 -18.2394
L33.104 -18.0303
L32.8186 -17.8214
L32.5322 -17.6127
L32.2452 -17.4042
L31.9579 -17.196
L31.6705 -16.988
L31.3836 -16.7801
L31.0976 -16.5725
L30.8129 -16.365
L30.5301 -16.1577
L30.2499 -15.9503
L29.9728 -15.7429
L29.6995 -15.5354
L29.4309 -15.3275
L29.1679 -15.1191
L28.9112 -14.9101
L28.662 -14.7002
L28.4212 -14.4891
L28.19 -14.2765
L27.9696 -14.0622
L27.7612 -13.8458
L27.5661 -13.6269
L27.3855 -13.4052
L27.2208 -13.1802
L27.0732 -12.9517
L26.944 -12.7192
L26.8342 -12.4824
L26.7451 -12.2412
L26.6774 -11.9952
L26.6319 -11.7443
L26.6093 -11.4886
L26.61 -11.2281
L26.6342 -10.963
L26.682 -10.6936
L26.7533 -10.4202
L26.8477 -10.1434
L26.9649 -9.86364
L27.1043 -9.58164
L27.2653 -9.29804
L27.6982 -9.01356
L28.1753 -8.73592
L28.6548 -8.59518
L29.1365 -8.4628
L29.6203 -8.3388
L30.106 -8.22323
L30.5936 -8.11612
L31.0827 -8.0175
L31.5734 -7.9274
L32.0655 -7.84586
L32.5587 -7.7729
L33.053 -7.70853
L33.5481 -7.65278
L34.0441 -7.60566
L34.5406 -7.5672
L35.0376 -7.53739
L35.5348 -7.51626
L36.0322 -7.5038
L36.5296 -7.50002
L37.0268 -7.50492
L37.5237 -7.5185
L38.0202 -7.54076
L38.516 -7.57169
L39.0111 -7.61128
L39.5052 -7.65951
L39.9983 -7.71638
L40.4902 -7.78186
L40.9807 -7.85594
L41.4697 -7.93859
L41.957 -8.02979
L42.4425 -8.12951
L42.926 -8.23772
L43.4074 -8.35438
L43.8866 -8.47947
L44.3634 -8.61294
L44.8376 -8.75475
L45.3091 -8.90486
L45.7778 -9.06322
L46.2435 -9.22979
L46.7061 -9.40452
L47.1655 -9.58734
L47.6214 -9.77821
L48.0738 -9.97707
L48.5225 -10.1839
L48.9674 -10.3985
L49.4084 -10.621
L49.8452 -10.8511
L50.2779 -11.089
L50.7062 -11.3344
L51.13 -11.5873
L51.5492 -11.8477
L51.9637 -12.1154
L52.3733 -12.3905
L52.7779 -12.6727
L53.1774 -12.962
L53.5717 -13.2583
L53.9606 -13.5615
L54.3441 -13.8716
L54.722 -14.1884
L55.0941 -14.5119
L55.4605 -14.8419
L55.8209 -15.1784
L56.1753 -15.5212
L56.5235 -15.8702
L56.8655 -16.2254
L57.2012 -16.5866
L57.5303 -16.9537
L57.853 -17.3266
L58.1689 -17.7052
L58.4781 -18.0894
L58.7805 -18.479
L59.0759 -18.874
L59.3643 -19.2742
L59.6456 -19.6795
L59.9196 -20.0897
L60.1864 -20.5048
L60.4458 -20.9246
L60.6978 -21.349
L60.9423 -21.7779
L61.1791 -22.2111
L61.4083 -22.6485
L61.6297 -23.09
L61.8434 -23.5354
L62.0491 -23.9846
L62.247 -24.4374
L62.4368 -24.8938
L62.6186 -25.3536
L62.7922 -25.8166
L62.9577 -26.2827
L63.115 -26.7518
L63.2641 -27.2237
L63.4048 -27.6982
L63.5372 -28.1753
L63.6612 -28.6548
L63.7768 -29.1365
L63.8839 -29.6203
L63.9825 -30.106
L64.0726 -30.5936
L64.1541 -31.0827
L64.2271 -31.5734
L64.2915 -32.0655
L64.3472 -32.5587
L64.3943 -33.053
L64.4328 -33.5481
L64.4626 -34.0441
L64.4837 -34.5406
L64.4962 -35.0376
L64.5 -35.5348
L64.4951 -36.0322
L64.4815 -36.5296
L64.4592 -37.0268
L64.4283 -37.5237
L64.3887 -38.0202
L64.3405 -38.516
L64.2836 -39.0111
L64.2181 -39.5052
L64.1441 -39.9983
L64.0614 -40.4902
L63.9702 -40.9807
L63.8705 -41.4697
L63.7623 -41.957
L63.6456 -42.4425
L63.5205 -42.926
L63.3871 -43.4074
L63.2453 -43.8866
L63.0951 -44.3634
L62.9368 -44.8376
L62.7702 -45.3091
L62.5955 -45.7778
L62.4127 -46.2435
L62.2218 -46.7061
L62.0229 -47.1655
L61.8161 -47.6214
L61.6015 -48.0738
L61.379 -48.5225
L61.1489 -48.9674
L60.911 -49.4084
L60.6656 -49.8452
L60.4127 -50.2779
L60.1523 -50.7062
L59.8846 -51.13
L59.6095 -51.5492
L59.3273 -51.9637
z
" id="C0_1_be6d76fcbf"/>
     <path d="
M44.5044 -63.1167
L44.1801 -62.992
L43.8462 -62.8683
L43.504 -62.745
L43.1548 -62.6216
L42.7995 -62.4974
L42.4394 -62.3722
L42.0753 -62.2455
L41.7081 -62.117
L41.3388 -61.9865
L40.968 -61.8536
L40.5964 -61.7182
L40.2248 -61.5803
L39.8535 -61.4396
L39.4833 -61.2962
L39.1144 -61.1499
L38.7474 -61.0009
L38.3825 -60.849
L38.0202 -60.6943
L37.6606 -60.5369
L37.3041 -60.3769
L36.9509 -60.2142
L36.6011 -60.049
L36.255 -59.8813
L35.9126 -59.7112
L35.5741 -59.5389
L35.2395 -59.3644
L34.909 -59.1878
L34.5825 -59.0091
L34.2603 -58.8286
L33.9422 -58.6462
L33.6282 -58.4622
L33.3185 -58.2764
L33.013 -58.0891
L32.7116 -57.9003
L32.4145 -57.7101
L32.1214 -57.5186
L31.8325 -57.3258
L31.5476 -57.1318
L31.2667 -56.9367
L30.9898 -56.7404
L30.7168 -56.5432
L30.4477 -56.3449
L30.1823 -56.1458
L29.9207 -55.9457
L29.6628 -55.7448
L29.4085 -55.543
L29.1577 -55.3405
L28.9104 -55.1372
L28.6666 -54.9332
L28.4261 -54.7284
L28.1888 -54.5229
L27.9548 -54.3168
L27.7239 -54.11
L27.4961 -53.9024
L27.2712 -53.6943
L27.0494 -53.4854
L26.8304 -53.2759
L26.6142 -53.0658
L26.4008 -52.855
L26.1901 -52.6434
L25.9819 -52.4313
L25.7764 -52.2184
L25.5733 -52.0048
L25.3727 -51.7904
L25.1745 -51.5753
L24.9787 -51.3595
L24.7851 -51.1429
L24.5937 -50.9254
L24.4045 -50.7072
L24.2174 -50.488
L24.0325 -50.268
L23.8495 -50.0471
L23.6685 -49.8252
L23.4895 -49.6023
L23.3123 -49.3784
L23.1371 -49.1535
L22.9636 -48.9275
L22.7919 -48.7003
L22.6219 -48.472
L22.4537 -48.2425
L22.2871 -48.0117
L22.1222 -47.7797
L21.9588 -47.5463
L21.7971 -47.3115
L21.6368 -47.0753
L21.4782 -46.8377
L21.321 -46.5985
L21.1653 -46.3578
L21.011 -46.1154
L20.8582 -45.8714
L20.7068 -45.6256
L20.5568 -45.3781
L20.4082 -45.1287
L20.261 -44.8775
L20.1152 -44.6243
L19.9707 -44.3691
L19.8276 -44.1118
L19.6858 -43.8525
L19.5454 -43.5909
L19.4063 -43.3272
L19.2685 -43.0611
L19.1321 -42.7927
L18.9971 -42.5219
L18.8635 -42.2486
L18.7312 -41.9728
L18.6003 -41.6944
L18.4708 -41.4133
L18.3427 -41.1295
L18.2161 -40.843
L18.091 -40.5536
L17.9673 -40.2613
L17.8451 -39.9661
L17.7245 -39.6678
L17.6055 -39.3665
L17.4881 -39.0621
L17.3724 -38.7545
L17.2583 -38.4437
L17.146 -38.1297
L17.0354 -37.8123
L16.9267 -37.4916
L16.8199 -37.1675
L16.715 -36.84
L16.612 -36.5091
L16.5112 -36.1747
L16.4124 -35.8368
L16.3157 -35.4954
L16.2213 -35.1505
L16.1292 -34.8021
L16.0394 -34.4502
L15.952 -34.0949
L15.8671 -33.7361
L15.7846 -33.3739
L15.7048 -33.0084
L15.6276 -32.6397
L15.5531 -32.2677
L15.4813 -31.8927
L15.4122 -31.5146
L15.346 -31.1337
L15.2825 -30.7501
L15.2219 -30.364
L15.1641 -29.9755
L15.1091 -29.5849
L15.0569 -29.1924
L15.0073 -28.7983
L14.9604 -28.4029
L14.916 -28.0064
L14.874 -27.6094
L14.8342 -27.2121
L14.7964 -26.815
L14.7603 -26.4185
L14.7257 -26.0233
L14.6921 -25.6298
L14.6593 -25.2386
L14.6266 -24.8505
L14.5937 -24.466
L14.5599 -24.086
L14.5245 -23.7113
L14.4868 -23.3427
L14.4461 -22.981
L14.4014 -22.6272
L14.3519 -22.2823
L14.2967 -21.9473
L14.2347 -21.623
L14.165 -21.3106
L14.0866 -21.011
L13.9985 -20.725
L13.9 -20.4537
L13.7901 -20.1979
L13.6683 -19.9581
L13.534 -19.7352
L13.3869 -19.5296
L13.2266 -19.3417
L12.7271 -19.1719
L12.4435 -19.5495
L12.1671 -19.9581
L11.898 -20.3717
L11.6362 -20.79
L11.3819 -21.213
L11.135 -21.6404
L10.8957 -22.0723
L10.6641 -22.5083
L10.4402 -22.9485
L10.224 -23.3927
L10.0157 -23.8407
L9.81536 -24.2924
L9.62297 -24.7477
L9.43862 -25.2064
L9.26235 -25.6684
L9.09423 -26.1335
L8.9343 -26.6016
L8.78262 -27.0726
L8.63923 -27.5464
L8.50417 -28.0226
L8.37749 -28.5014
L8.25922 -28.9824
L8.1494 -29.4655
L8.04807 -29.9507
L7.95525 -30.4377
L7.87098 -30.9263
L7.79527 -31.4166
L7.72815 -31.9082
L7.66965 -32.401
L7.61977 -32.895
L7.57854 -33.3899
L7.54597 -33.8856
L7.52206 -34.3819
L7.50683 -34.8788
L7.50028 -35.376
L7.50241 -35.8733
L7.51322 -36.3707
L7.53271 -36.868
L7.56087 -37.3651
L7.59769 -37.8617
L7.64317 -38.3577
L7.69728 -38.8531
L7.76001 -39.3475
L7.83134 -39.841
L7.91126 -40.3332
L7.99973 -40.8242
L8.09673 -41.3137
L8.20223 -41.8015
L8.3162 -42.2876
L8.4386 -42.7718
L8.5694 -43.2539
L8.70855 -43.7338
L8.85601 -44.2114
L9.01175 -44.6864
L9.1757 -45.1588
L9.34783 -45.6284
L9.52807 -46.0951
L9.71638 -46.5587
L9.91269 -47.0191
L10.1169 -47.4762
L10.3291 -47.9297
L10.5491 -48.3796
L10.7768 -48.8257
L11.0122 -49.268
L11.2552 -49.7061
L11.5057 -50.1402
L11.7637 -50.5699
L12.0291 -50.9951
L12.3018 -51.4158
L12.5817 -51.8318
L12.8688 -52.243
L13.1629 -52.6492
L13.4639 -53.0504
L13.7718 -53.4464
L14.0865 -53.837
L14.4079 -54.2222
L14.7358 -54.6019
L15.0702 -54.9759
L15.411 -55.3441
L15.7581 -55.7064
L16.1113 -56.0628
L16.4706 -56.413
L16.8358 -56.757
L17.2069 -57.0947
L17.5837 -57.4259
L17.9661 -57.7506
L18.354 -58.0687
L18.7473 -58.3801
L19.1458 -58.6847
L19.5495 -58.9823
L19.9581 -59.2729
L20.3717 -59.5565
L20.79 -59.8329
L21.213 -60.102
L21.6404 -60.3638
L22.0723 -60.6181
L22.5083 -60.865
L22.9485 -61.1043
L23.3927 -61.3359
L23.8407 -61.5598
L24.2924 -61.776
L24.7477 -61.9843
L25.2064 -62.1846
L25.6684 -62.377
L26.1335 -62.5614
L26.6016 -62.7377
L27.0726 -62.9058
L27.5464 -63.0657
L28.0226 -63.2174
L28.5014 -63.3608
L28.9824 -63.4958
L29.4655 -63.6225
L29.9507 -63.7408
L30.4377 -63.8506
L30.9263 -63.9519
L31.4166 -64.0447
L31.9082 -64.129
L32.401 -64.2047
L32.895 -64.2718
L33.3899 -64.3304
L33.8856 -64.3802
L34.3819 -64.4215
L34.8788 -64.454
L35.376 -64.4779
L35.8733 -64.4932
L36.3707 -64.4997
L36.868 -64.4976
L37.3651 -64.4868
L37.8617 -64.4673
L38.3577 -64.4391
L38.8531 -64.4023
L39.3475 -64.3568
L39.841 -64.3027
L40.3332 -64.24
L40.8242 -64.1687
L41.3137 -64.0887
L41.8015 -64.0003
L42.2876 -63.9033
L42.7718 -63.7978
L43.2539 -63.6838
L43.7338 -63.5614
z
" id="C0_2_e5972bd323"/>
    </defs>
    <g clip-path="url(#p1bffca34e9)">
     <use style="fill:#ff0000;stroke:#000000;stroke-width:2.0;" x="0.0" xlink:href="#C0_0_a811fe30f3" y="72.0"/>
    </g>
    <g clip-path="url(#p1bffca34e9)">
     <use style="fill:#ffffff;stroke:#000000;stroke-width:2.0;" x="0.0" xlink:href="#C0_1_be6d76fcbf" y="72.0"/>
    </g>
    <g clip-path="url(#p1bffca34e9)">
     <use style="fill:#ffffff;stroke:#000000;stroke-width:2.0;" x="0.0" xlink:href="#C0_2_e5972bd323" y="72.0"/>
    </g>
   </g>
  </g>
 </g>
 <defs>
  <clipPath id="p1bffca34e9">
   <rect height="72.0" width="72.0" x="0.0" y="0.0"/>
  </clipPath>
 </defs>
</svg>
