<?xml version="1.0" encoding="utf-8" standalone="no"?>
<!DOCTYPE svg PUBLIC "-//W3C//DTD SVG 1.1//EN"
  "http://www.w3.org/Graphics/SVG/1.1/DTD/svg11.dtd">
<!-- Created with matplotlib (http://matplotlib.org/) -->
<svg height="72pt" version="1.1" viewBox="0 0 72 72" width="72pt" xmlns="http://www.w3.org/2000/svg" xmlns:xlink="http://www.w3.org/1999/xlink">
 <defs>
  <style type="text/css">
*{stroke-linecap:butt;stroke-linejoin:round;}
  </style>
 </defs>
 <g id="figure_1">
  <g id="patch_1">
   <path d="
M0 72
L72 72
L72 0
L0 0
z
" style="fill:none;"/>
  </g>
  <g id="axes_1">
   <g id="PatchCollection_1">
    <defs>
     <path d="
M36 -7.5
C43.5583 -7.5 50.808 -10.5029 56.1525 -15.8475
C61.4971 -21.192 64.5 -28.4417 64.5 -36
C64.5 -43.5583 61.4971 -50.808 56.1525 -56.1525
C50.808 -61.4971 43.5583 -64.5 36 -64.5
C28.4417 -64.5 21.192 -61.4971 15.8475 -56.1525
C10.5029 -50.808 7.5 -43.5583 7.5 -36
C7.5 -28.4417 10.5029 -21.192 15.8475 -15.8475
C21.192 -10.5029 28.4417 -7.5 36 -7.5
z
" id="C0_0_a811fe30f3"/>
     <path d="
M48.4903 -10.4588
L48.5081 -10.6988
L48.5168 -10.9376
L48.5164 -11.1752
L48.5073 -11.4114
L48.4894 -11.6462
L48.4632 -11.8796
L48.4286 -12.1115
L48.3861 -12.3419
L48.3357 -12.5707
L48.2777 -12.7979
L48.2122 -13.0235
L48.1396 -13.2475
L48.0599 -13.4698
L47.9735 -13.6905
L47.8805 -13.9096
L47.7812 -14.127
L47.6757 -14.3428
L47.5643 -14.557
L47.4471 -14.7695
L47.3245 -14.9805
L47.1965 -15.19
L47.0635 -15.3978
L46.9255 -15.6042
L46.7828 -15.8091
L46.6356 -16.0126
L46.4841 -16.2146
L46.3285 -16.4152
L46.1688 -16.6144
L46.0054 -16.8123
L45.8384 -17.0089
L45.6679 -17.2042
L45.4942 -17.3983
L45.3173 -17.5911
L45.1374 -17.7828
L44.9548 -17.9733
L44.7694 -18.1628
L44.5815 -18.3511
L44.3912 -18.5383
L44.1985 -18.7246
L44.0038 -18.9098
L43.807 -19.0941
L43.6082 -19.2774
L43.4076 -19.4598
L43.2053 -19.6413
L43.0014 -19.8219
L42.796 -20.0017
L42.5891 -20.1807
L42.3809 -20.3589
L42.1714 -20.5363
L41.9608 -20.7129
L41.749 -20.8889
L41.5362 -21.0641
L41.3224 -21.2387
L41.1076 -21.4125
L40.8921 -21.5858
L40.6757 -21.7584
L40.4586 -21.9304
L40.2408 -22.1018
L40.0223 -22.2727
L39.8033 -22.443
L39.5836 -22.6127
L39.3635 -22.782
L39.1428 -22.9507
L38.9217 -23.119
L38.7001 -23.2868
L38.4782 -23.4541
L38.2558 -23.621
L38.0331 -23.7875
L37.8101 -23.9536
L37.5868 -24.1193
L37.3632 -24.2846
L37.1392 -24.4495
L36.9151 -24.6141
L36.6906 -24.7784
L36.4659 -24.9423
L36.241 -25.1059
L36.0159 -25.2692
L35.7905 -25.4322
L35.5649 -25.595
L35.3391 -25.7574
L35.1131 -25.9196
L34.8869 -26.0816
L34.6605 -26.2434
L34.4339 -26.4049
L34.2071 -26.5662
L33.98 -26.7273
L33.7528 -26.8882
L33.5253 -27.0489
L33.2976 -27.2094
L33.0697 -27.3698
L32.6132 -27.53
L32.3846 -27.6901
L32.1557 -27.8499
L31.9266 -28.0097
L31.6972 -28.1693
L31.4676 -28.3288
L31.2376 -28.4881
L31.0074 -28.6473
L30.7768 -28.8063
L30.546 -28.9653
L30.3148 -29.1241
L30.0834 -29.2828
L29.8515 -29.4413
L29.6194 -29.5997
L29.3869 -29.758
L29.154 -29.9162
L28.9207 -30.0742
L28.6871 -30.232
L28.453 -30.3897
L28.2186 -30.5472
L27.9838 -30.7046
L27.7485 -30.8617
L27.5128 -31.0187
L27.2767 -31.1754
L27.0402 -31.3319
L26.8032 -31.4882
L26.5657 -31.6442
L26.3278 -31.7999
L26.0894 -31.9553
L25.8505 -32.1103
L25.6112 -32.265
L25.3714 -32.4193
L25.1311 -32.5731
L24.8903 -32.7265
L24.649 -32.8794
L24.4072 -33.0318
L24.1649 -33.1836
L23.9222 -33.3347
L23.6789 -33.4853
L23.4352 -33.635
L23.1909 -33.7841
L22.9462 -33.9323
L22.7009 -34.0796
L22.4552 -34.226
L22.2091 -34.3713
L21.9624 -34.5156
L21.7153 -34.6588
L21.4677 -34.8007
L21.2197 -34.9413
L20.9712 -35.0805
L20.7224 -35.2183
L20.4731 -35.3545
L20.2234 -35.489
L19.9733 -35.6217
L19.7229 -35.7526
L19.4721 -35.8815
L19.221 -36.0083
L18.9696 -36.1329
L18.7178 -36.2552
L18.4659 -36.3751
L18.2136 -36.4924
L17.9612 -36.6069
L17.7085 -36.7186
L17.4557 -36.8273
L17.2027 -36.9329
L16.9497 -37.0352
L16.6966 -37.1341
L16.4434 -37.2294
L16.1903 -37.3209
L15.9372 -37.4085
L15.6841 -37.492
L15.4312 -37.5713
L15.1785 -37.6462
L14.926 -37.7164
L14.6737 -37.782
L14.4218 -37.8426
L14.1703 -37.898
L13.9192 -37.9482
L13.6686 -37.993
L13.4186 -38.0321
L13.1692 -38.0654
L12.9205 -38.0928
L12.6726 -38.114
L12.4256 -38.1288
L12.1795 -38.1373
L11.9344 -38.1391
L11.6905 -38.1341
L11.4477 -38.1221
L11.2063 -38.1031
L10.9662 -38.0769
L10.7277 -38.0433
L10.4908 -38.0022
L10.2556 -37.9535
L10.0222 -37.8971
L9.79081 -37.8329
L9.56151 -37.7607
L9.33441 -37.6806
L9.10965 -37.5923
L8.88736 -37.4958
L8.66768 -37.3912
L8.45074 -37.2782
L8.23669 -37.1568
L8.02568 -37.0271
L7.81784 -36.8889
L7.61333 -36.7423
L7.50015 -36.5873
L7.50288 -36.0921
L7.5143 -35.5947
L7.53439 -35.0974
L7.56315 -34.6004
L7.60057 -34.1038
L7.64665 -33.6078
L7.70136 -33.1126
L7.76469 -32.6182
L7.83662 -32.1248
L7.91713 -31.6326
L8.0062 -31.1418
L8.10379 -30.6524
L8.20988 -30.1646
L8.32443 -29.6787
L8.44742 -29.1946
L8.5788 -28.7127
L8.71853 -28.2329
L8.86657 -27.7555
L9.02288 -27.2807
L9.1874 -26.8084
L9.36009 -26.339
L9.5409 -25.8726
L9.72976 -25.4092
L9.92663 -24.949
L10.1314 -24.4922
L10.3441 -24.0389
L10.5646 -23.5893
L10.7929 -23.1434
L11.0288 -22.7015
L11.2724 -22.2636
L11.5234 -21.8298
L11.7819 -21.4004
L12.0479 -20.9755
L12.321 -20.5551
L12.6015 -20.1394
L12.889 -19.7286
L13.1836 -19.3227
L13.4851 -18.9219
L13.7935 -18.5263
L14.1086 -18.136
L14.4305 -17.7512
L14.7589 -17.3719
L15.0937 -16.9983
L15.4349 -16.6305
L15.7824 -16.2686
L16.1361 -15.9127
L16.4958 -15.5629
L16.8614 -15.2193
L17.2329 -14.8821
L17.6101 -14.5513
L17.9929 -14.2271
L18.3812 -13.9094
L18.7748 -13.5985
L19.1737 -13.2944
L19.5777 -12.9973
L19.9867 -12.7071
L20.4006 -12.4241
L20.8193 -12.1482
L21.2425 -11.8796
L21.6703 -11.6183
L22.1024 -11.3645
L22.5388 -11.1181
L22.9793 -10.8794
L23.4237 -10.6483
L23.872 -10.4249
L24.3239 -10.2093
L24.7794 -10.0016
L25.2384 -9.80174
L25.7006 -9.6099
L26.1659 -9.4261
L26.6343 -9.2504
L27.1055 -9.08285
L27.5794 -8.92349
L28.0558 -8.77239
L28.5347 -8.62957
L29.0159 -8.4951
L29.4992 -8.369
L29.9845 -8.25132
L30.4716 -8.14209
L30.9603 -8.04135
L31.4507 -7.94912
L31.9424 -7.86544
L32.4353 -7.79033
L32.9294 -7.72381
L33.4243 -7.6659
L33.9201 -7.61663
L34.4165 -7.576
L34.9133 -7.54403
L35.4105 -7.52072
L35.9079 -7.5061
L36.4053 -7.50015
L36.9026 -7.50288
L37.3996 -7.5143
L37.8962 -7.53439
L38.3922 -7.56315
L38.8874 -7.60057
L39.3818 -7.64665
L39.8752 -7.70136
L40.3674 -7.76469
L40.8582 -7.83662
L41.3476 -7.91713
L41.8354 -8.0062
L42.3213 -8.10379
L42.8054 -8.20988
L43.2873 -8.32443
L43.7671 -8.44742
L44.2445 -8.5788
L44.7193 -8.71853
L45.1916 -8.86657
L45.661 -9.02288
L46.1274 -9.1874
L46.5908 -9.36009
L47.051 -9.5409
L47.5078 -9.72976
L47.9611 -9.92663
z
" id="C0_1_b94e190c5a"/>
     <path d="
M64.4057 -35.579
L64.2098 -35.7534
L64.0129 -35.9312
L63.8151 -36.1124
L63.6163 -36.2966
L63.4165 -36.4837
L63.2158 -36.6735
L63.014 -36.8658
L62.8113 -37.0605
L62.6076 -37.2573
L62.4029 -37.4561
L62.1973 -37.6567
L61.9906 -37.859
L61.783 -38.0627
L61.5744 -38.2678
L61.3648 -38.4741
L61.1543 -38.6815
L60.9428 -38.8898
L60.7303 -39.0989
L60.5169 -39.3086
L60.3026 -39.5189
L60.0873 -39.7296
L59.8712 -39.9407
L59.6541 -40.152
L59.4361 -40.3633
L59.2173 -40.5748
L58.9975 -40.7861
L58.777 -40.9974
L58.5555 -41.2083
L58.3333 -41.419
L58.1102 -41.6294
L57.8863 -41.8393
L57.6616 -42.0487
L57.4361 -42.2575
L57.2098 -42.4657
L56.9828 -42.6733
L56.755 -42.8801
L56.5264 -43.0862
L56.2971 -43.2915
L56.0671 -43.496
L55.8364 -43.6996
L55.6049 -43.9023
L55.3728 -44.1041
L55.1399 -44.3049
L54.9064 -44.5047
L54.6721 -44.7036
L54.4372 -44.9014
L54.2016 -45.0982
L53.9654 -45.2939
L53.7284 -45.4886
L53.4908 -45.6821
L53.2526 -45.8746
L53.0136 -46.066
L52.774 -46.2562
L52.5338 -46.4454
L52.2928 -46.6334
L52.0512 -46.8203
L51.809 -47.0061
L51.566 -47.1908
L51.3224 -47.3743
L51.0781 -47.5567
L50.8331 -47.7379
L50.5875 -47.9181
L50.3411 -48.0971
L50.094 -48.2749
L49.8463 -48.4517
L49.5978 -48.6273
L49.3486 -48.8019
L49.0987 -48.9753
L48.848 -49.1476
L48.5966 -49.3188
L48.3445 -49.489
L48.0916 -49.658
L47.8379 -49.826
L47.5835 -49.9929
L47.3283 -50.1587
L47.0723 -50.3234
L46.8155 -50.4871
L46.5578 -50.6498
L46.2994 -50.8114
L46.0401 -50.972
L45.78 -51.1315
L45.5191 -51.29
L45.2573 -51.4475
L44.9946 -51.604
L44.7311 -51.7595
L44.4667 -51.9139
L44.2014 -52.0674
L43.9353 -52.2199
L43.6682 -52.3714
L43.4003 -52.522
L43.1314 -52.6715
L42.8617 -52.8201
L42.591 -52.9677
L42.3194 -53.1144
L42.047 -53.2601
L41.7736 -53.4048
L41.4993 -53.5487
L41.2241 -53.6915
L40.948 -53.8335
L40.671 -53.9745
L40.3931 -54.1146
L40.1143 -54.2537
L39.8347 -54.392
L39.5542 -54.5293
L39.2729 -54.6657
L38.9907 -54.8013
L38.7077 -54.9359
L38.4239 -55.0696
L38.1394 -55.2025
L37.854 -55.3344
L37.568 -55.4655
L37.2813 -55.5957
L36.9939 -55.7251
L36.7059 -55.8536
L36.4172 -55.9813
L36.1281 -56.1082
L35.8384 -56.2342
L35.5482 -56.3594
L35.2576 -56.4838
L34.9667 -56.6075
L34.6754 -56.7303
L34.3839 -56.8525
L34.0922 -56.9739
L33.8004 -57.0945
L33.5086 -57.2145
L33.2167 -57.3338
L32.9249 -57.4525
L32.6334 -57.5705
L32.3421 -57.6879
L32.0511 -57.8048
L31.7606 -57.9212
L31.4706 -58.037
L31.1813 -58.1524
L30.8927 -58.2673
L30.605 -58.3819
L30.3182 -58.4961
L30.0326 -58.61
L29.7482 -58.7237
L29.4651 -58.8372
L29.1834 -58.9505
L28.9034 -59.0638
L28.6251 -59.177
L28.3487 -59.2902
L28.0743 -59.4035
L27.8021 -59.517
L27.5321 -59.6306
L27.2647 -59.7446
L26.9998 -59.8589
L26.7378 -59.9736
L26.4786 -60.0888
L26.2226 -60.2046
L25.9698 -60.321
L25.7204 -60.4381
L25.4746 -60.556
L25.2325 -60.6747
L24.9943 -60.7944
L24.7602 -60.915
L24.5303 -61.0367
L24.3048 -61.1596
L24.0838 -61.2837
L23.8676 -61.409
L24.0461 -61.5357
L24.4995 -61.8719
L24.9563 -62.0766
L25.4165 -62.2733
L25.88 -62.462
L26.3465 -62.6427
L26.8159 -62.8153
L27.2882 -62.9797
L27.7631 -63.1359
L28.2405 -63.2838
L28.7203 -63.4234
L29.2023 -63.5546
L29.6864 -63.6775
L30.1724 -63.7919
L30.6602 -63.8978
L31.1496 -63.9953
L31.6404 -64.0842
L32.1326 -64.1646
L32.626 -64.2364
L33.1204 -64.2996
L33.6157 -64.3542
L34.1117 -64.4001
L34.6083 -64.4374
L35.1053 -64.466
L35.6026 -64.486
L36.1 -64.4972
L36.5974 -64.4998
L37.0946 -64.4937
L37.5915 -64.479
L38.0878 -64.4555
L38.5836 -64.4234
L39.0785 -64.3827
L39.5725 -64.3332
L40.0655 -64.2752
L40.5571 -64.2085
L41.0474 -64.1333
L41.5362 -64.0495
L42.0233 -63.9571
L42.5085 -63.8562
L42.9918 -63.7469
L43.4729 -63.6291
L43.9518 -63.5028
L44.4282 -63.3682
L44.9021 -63.2253
L45.3732 -63.074
L45.8415 -62.9145
L46.3068 -62.7469
L46.769 -62.571
L47.2278 -62.3871
L47.6833 -62.1951
L48.1352 -61.9952
L48.5834 -61.7873
L49.0278 -61.5716
L49.4682 -61.3481
L49.9045 -61.1169
L50.3365 -60.878
L50.7642 -60.6316
L51.1874 -60.3776
L51.606 -60.1162
L52.0198 -59.8475
L52.4288 -59.5715
L52.8327 -59.2883
L53.2315 -58.998
L53.6251 -58.7008
L54.0133 -58.3966
L54.396 -58.0856
L54.7731 -57.7678
L55.1444 -57.4435
L55.51 -57.1126
L55.8696 -56.7752
L56.2231 -56.4316
L56.5705 -56.0817
L56.9117 -55.7257
L57.2464 -55.3637
L57.5747 -54.9958
L57.8964 -54.6221
L58.2115 -54.2427
L58.5197 -53.8578
L58.8212 -53.4674
L59.1156 -53.0717
L59.4031 -52.6709
L59.6834 -52.2649
L59.9564 -51.854
L60.2222 -51.4382
L60.4806 -51.0178
L60.7316 -50.5928
L60.975 -50.1633
L61.2108 -49.7295
L61.4389 -49.2915
L61.6593 -48.8495
L61.8719 -48.4036
L62.0766 -47.9539
L62.2733 -47.5005
L62.462 -47.0437
L62.6427 -46.5835
L62.8153 -46.12
L62.9797 -45.6535
L63.1359 -45.1841
L63.2838 -44.7118
L63.4234 -44.2369
L63.5546 -43.7595
L63.6775 -43.2797
L63.7919 -42.7977
L63.8978 -42.3136
L63.9953 -41.8276
L64.0842 -41.3398
L64.1646 -40.8504
L64.2364 -40.3596
L64.2996 -39.8674
L64.3542 -39.374
L64.4001 -38.8796
L64.4374 -38.3843
L64.466 -37.8883
L64.486 -37.3917
L64.4972 -36.8947
z
" id="C0_2_793e1995dc"/>
    </defs>
    <g clip-path="url(#p1bffca34e9)">
     <use style="fill:#ff0000;stroke:#000000;stroke-width:2.0;" x="0.0" xlink:href="#C0_0_a811fe30f3" y="72.0"/>
    </g>
    <g clip-path="url(#p1bffca34e9)">
     <use style="fill:#ffffff;stroke:#000000;stroke-width:2.0;" x="0.0" xlink:href="#C0_1_b94e190c5a" y="72.0"/>
    </g>
    <g clip-path="url(#p1bffca34e9)">
     <use style="fill:#ffffff;stroke:#000000;stroke-width:2.0;" x="0.0" xlink:href="#C0_2_793e1995dc" y="72.0"/>
    </g>
   </g>
  </g>
 </g>
 <defs>
  <clipPath id="p1bffca34e9">
   <rect height="72.0" width="72.0" x="0.0" y="0.0"/>
  </clipPath>
 </defs>
</svg>
