<?xml version="1.0" encoding="utf-8" standalone="no"?>
<!DOCTYPE svg PUBLIC "-//W3C//DTD SVG 1.1//EN"
  "http://www.w3.org/Graphics/SVG/1.1/DTD/svg11.dtd">
<!-- Created with matplotlib (http://matplotlib.org/) -->
<svg height="72pt" version="1.1" viewBox="0 0 72 72" width="72pt" xmlns="http://www.w3.org/2000/svg" xmlns:xlink="http://www.w3.org/1999/xlink">
 <defs>
  <style type="text/css">
*{stroke-linecap:butt;stroke-linejoin:round;}
  </style>
 </defs>
 <g id="figure_1">
  <g id="patch_1">
   <path d="
M0 72
L72 72
L72 0
L0 0
z
" style="fill:none;"/>
  </g>
  <g id="axes_1">
   <g id="PatchCollection_1">
    <defs>
     <path d="
M36 -7.5
C43.5583 -7.5 50.808 -10.5029 56.1525 -15.8475
C61.4971 -21.192 64.5 -28.4417 64.5 -36
C64.5 -43.5583 61.4971 -50.808 56.1525 -56.1525
C50.808 -61.4971 43.5583 -64.5 36 -64.5
C28.4417 -64.5 21.192 -61.4971 15.8475 -56.1525
C10.5029 -50.808 7.5 -43.5583 7.5 -36
C7.5 -28.4417 10.5029 -21.192 15.8475 -15.8475
C21.192 -10.5029 28.4417 -7.5 36 -7.5
z
" id="C0_0_a811fe30f3"/>
     <path d="
M39.4478 -27.4404
L39.2063 -27.3507
L38.9644 -27.2621
L38.722 -27.1745
L38.4789 -27.088
L38.2352 -27.0025
L37.9907 -26.9181
L37.7455 -26.8346
L37.4995 -26.7522
L37.2525 -26.6707
L37.0046 -26.5902
L36.7557 -26.5107
L36.5057 -26.4321
L36.2545 -26.3545
L36.0021 -26.2778
L35.7485 -26.2021
L35.4935 -26.1273
L35.2371 -26.0534
L34.9792 -25.9805
L34.7198 -25.9086
L34.4588 -25.8376
L34.1961 -25.7676
L33.9317 -25.6986
L33.6655 -25.6306
L33.3974 -25.5635
L33.1274 -25.4975
L32.8553 -25.4325
L32.5812 -25.3686
L32.305 -25.3058
L32.0265 -25.2441
L31.7458 -25.1835
L31.4627 -25.1241
L31.1772 -25.0659
L30.8893 -25.0089
L30.5988 -24.9532
L30.3057 -24.8989
L30.0099 -24.8459
L29.7114 -24.7944
L29.4102 -24.7443
L29.106 -24.6958
L28.799 -24.6489
L28.4891 -24.6037
L28.1761 -24.5602
L27.8601 -24.5185
L27.541 -24.4787
L27.2188 -24.4409
L26.8934 -24.4053
L26.5648 -24.3717
L26.233 -24.3405
L25.898 -24.3117
L25.5597 -24.2854
L25.2181 -24.2618
L24.8733 -24.2409
L24.5252 -24.2229
L24.1739 -24.208
L23.8194 -24.1963
L23.4617 -24.188
L23.1009 -24.1832
L22.7371 -24.1822
L22.3703 -24.1851
L22.0006 -24.1921
L21.6281 -24.2035
L21.2529 -24.2195
L20.8753 -24.2402
L20.4953 -24.2661
L20.1132 -24.2973
L19.7291 -24.3342
L19.3433 -24.377
L18.956 -24.4261
L18.5676 -24.4818
L18.1783 -24.5445
L17.7886 -24.6147
L17.3988 -24.6927
L17.0095 -24.7791
L16.6211 -24.8744
L16.2342 -24.9793
L15.8495 -25.0942
L15.4677 -25.2201
L15.0896 -25.3576
L14.7162 -25.5078
L14.3486 -25.6716
L13.988 -25.8501
L13.6356 -26.0446
L13.2932 -26.2565
L12.9623 -26.4871
L12.6448 -26.7379
L12.3426 -27.0103
L12.0577 -27.3057
L11.7922 -27.625
L11.5477 -27.9688
L11.3258 -28.3371
L11.1275 -28.7294
L10.9536 -29.1444
L10.8042 -29.5803
L10.6791 -30.0349
L10.5777 -30.5058
L10.4991 -30.9904
L10.4424 -31.4861
L10.4064 -31.9905
L10.39 -32.5013
L10.3922 -33.0166
L10.4118 -33.5344
L10.4479 -34.0533
L10.4996 -34.5717
L10.5658 -35.0885
L10.6459 -35.6026
L10.7389 -36.1131
L10.8441 -36.6192
L10.9609 -37.1202
L11.0885 -37.6156
L11.2262 -38.1048
L11.3736 -38.5873
L11.5299 -39.063
L11.6947 -39.5313
L11.8674 -39.9922
L12.0475 -40.4453
L12.2345 -40.8906
L12.428 -41.3279
L12.6275 -41.7572
L12.8327 -42.1783
L13.043 -42.5912
L13.2582 -42.996
L13.4778 -43.3926
L13.7016 -43.7811
L13.9292 -44.1616
L14.1604 -44.5341
L14.3948 -44.8986
L14.6322 -45.2553
L14.8723 -45.6043
L15.1149 -45.9457
L15.3598 -46.2796
L15.6067 -46.6061
L15.8555 -46.9254
L16.1061 -47.2376
L16.3582 -47.5428
L16.6117 -47.8411
L16.8664 -48.1328
L17.1223 -48.4179
L17.3791 -48.6965
L17.6369 -48.9689
L17.8955 -49.2351
L18.1548 -49.4954
L18.4147 -49.7498
L18.6752 -49.9984
L18.9362 -50.2415
L19.1976 -50.4791
L19.4594 -50.7113
L19.7216 -50.9384
L19.984 -51.1604
L20.2468 -51.3774
L20.5098 -51.5896
L20.773 -51.7971
L21.0365 -52
L21.3002 -52.1983
L21.564 -52.3923
L21.8281 -52.582
L22.0924 -52.7675
L22.3568 -52.9489
L22.6215 -53.1263
L22.8864 -53.2999
L23.1516 -53.4695
L23.417 -53.6355
L23.6826 -53.7978
L23.9486 -53.9565
L24.2149 -54.1117
L24.4816 -54.2635
L24.7486 -54.4119
L25.0161 -54.5571
L25.284 -54.6989
L25.5524 -54.8376
L25.8213 -54.9732
L26.0907 -55.1057
L26.3608 -55.2351
L26.6315 -55.3616
L26.9029 -55.4852
L27.1751 -55.6058
L27.448 -55.7236
L27.7218 -55.8386
L27.9964 -55.9508
L28.272 -56.0602
L28.5486 -56.1668
L28.8262 -56.2708
L29.1049 -56.372
L29.3847 -56.4706
L29.6658 -56.5664
L29.9481 -56.6597
L30.2318 -56.7502
L30.5168 -56.8381
L30.8033 -56.9233
L31.0912 -57.0059
L31.3808 -57.0858
L31.672 -57.1631
L31.9648 -57.2376
L32.2595 -57.3095
L32.5559 -57.3786
L32.8543 -57.445
L33.1546 -57.5085
L33.457 -57.5693
L33.7615 -57.6273
L34.0681 -57.6823
L34.3769 -57.7344
L34.6881 -57.7836
L35.0016 -57.8297
L35.3176 -57.8727
L35.6361 -57.9126
L35.9572 -57.9492
L36.2809 -57.9826
L36.6073 -58.0126
L36.9365 -58.0392
L37.2686 -58.0623
L37.6036 -58.0817
L37.9415 -58.0975
L38.2825 -58.1094
L38.6266 -58.1174
L38.9739 -58.1214
L39.3244 -58.1212
L39.6781 -58.1167
L40.0351 -58.1078
L40.3956 -58.0943
L40.7594 -58.0762
L41.1266 -58.0532
L41.4974 -58.0251
L41.8716 -57.9919
L42.2493 -57.9534
L42.6306 -57.9093
L43.0154 -57.8595
L43.4038 -57.8038
L43.7957 -57.742
L44.191 -57.6738
L44.5899 -57.5992
L44.9921 -57.5177
L45.3978 -57.4293
L45.8067 -57.3337
L46.2188 -57.2306
L46.634 -57.1199
L47.0522 -57.0012
L47.4733 -56.8743
L47.897 -56.739
L48.3233 -56.595
L48.7518 -56.442
L49.1824 -56.2798
L49.6148 -56.1082
L50.0487 -55.9268
L50.4838 -55.7355
L50.9198 -55.5341
L51.3562 -55.3221
L51.7927 -55.0996
L52.2287 -54.8661
L52.6638 -54.6217
L53.0973 -54.366
L53.5287 -54.099
L53.9573 -53.8205
L54.3823 -53.5304
L54.8029 -53.2287
L55.2183 -52.9153
L55.6274 -52.5904
L56.029 -52.254
L56.4222 -51.9063
L56.8053 -51.5475
L57.1771 -51.178
L57.5358 -50.7982
L57.8797 -50.4086
L58.2066 -50.0099
L58.5146 -49.603
L58.8012 -49.1889
L59.064 -48.7687
L59.3007 -48.3436
L59.5088 -47.9152
L59.6862 -47.485
L59.8315 -47.0544
L59.9435 -46.625
L60.0219 -46.1982
L60.0671 -45.7752
L60.0804 -45.357
L60.0634 -44.9443
L60.0182 -44.5376
L59.9471 -44.1374
L59.8527 -43.7438
L59.7371 -43.3569
L59.6027 -42.9768
L59.4514 -42.6034
L59.2851 -42.2367
L59.1054 -41.8766
L58.9138 -41.5231
L58.7116 -41.1761
L58.4999 -40.8354
L58.2799 -40.5011
L58.0524 -40.1731
L57.8182 -39.8513
L57.5782 -39.5356
L57.3329 -39.2259
L57.083 -38.9222
L56.829 -38.6245
L56.5715 -38.3325
L56.3108 -38.0463
L56.0475 -37.7658
L55.7818 -37.4908
L55.5142 -37.2214
L55.245 -36.9574
L54.9744 -36.6987
L54.7027 -36.4452
L54.4302 -36.1969
L54.1571 -35.9536
L53.8836 -35.7153
L53.6099 -35.4818
L53.3361 -35.2531
L53.0625 -35.029
L52.7891 -34.8094
L52.516 -34.5944
L52.2435 -34.3836
L51.9716 -34.1771
L51.7003 -33.9748
L51.4298 -33.7765
L51.1601 -33.5822
L50.8913 -33.3917
L50.6234 -33.205
L50.3565 -33.0219
L50.0907 -32.8424
L49.8258 -32.6664
L49.5621 -32.4938
L49.2994 -32.3244
L49.0378 -32.1583
L48.7773 -31.9952
L48.5179 -31.8352
L48.2596 -31.6782
L48.0024 -31.524
L47.7463 -31.3726
L47.4912 -31.224
L47.2372 -31.0779
L46.9842 -30.9345
L46.7322 -30.7935
L46.4811 -30.6549
L46.2311 -30.5187
L45.9819 -30.3848
L45.7336 -30.2531
L45.4862 -30.1236
L45.2395 -29.9962
L44.9937 -29.8708
L44.7485 -29.7474
L44.5041 -29.6259
L44.2603 -29.5063
L44.0171 -29.3885
L43.7745 -29.2725
L43.5324 -29.1583
L43.2908 -29.0457
L43.0496 -28.9347
L42.8087 -28.8254
L42.5682 -28.7175
L42.328 -28.6112
L42.088 -28.5064
L41.8481 -28.403
L41.6084 -28.301
L41.3688 -28.2003
L41.1292 -28.101
L40.8895 -28.003
L40.6498 -27.9062
L40.4099 -27.8107
L40.1698 -27.7164
L39.9295 -27.6233
z
" id="C0_1_4dc0636006"/>
    </defs>
    <g clip-path="url(#p1bffca34e9)">
     <use style="fill:#ffffff;stroke:#000000;stroke-width:2.0;" x="0.0" xlink:href="#C0_0_a811fe30f3" y="72.0"/>
    </g>
    <g clip-path="url(#p1bffca34e9)">
     <use style="fill:#ff0000;stroke:#000000;stroke-width:2.0;" x="0.0" xlink:href="#C0_1_4dc0636006" y="72.0"/>
    </g>
   </g>
  </g>
 </g>
 <defs>
  <clipPath id="p1bffca34e9">
   <rect height="72.0" width="72.0" x="0.0" y="0.0"/>
  </clipPath>
 </defs>
</svg>
