<?xml version="1.0" encoding="utf-8" standalone="no"?>
<!DOCTYPE svg PUBLIC "-//W3C//DTD SVG 1.1//EN"
  "http://www.w3.org/Graphics/SVG/1.1/DTD/svg11.dtd">
<!-- Created with matplotlib (http://matplotlib.org/) -->
<svg height="72pt" version="1.1" viewBox="0 0 72 72" width="72pt" xmlns="http://www.w3.org/2000/svg" xmlns:xlink="http://www.w3.org/1999/xlink">
 <defs>
  <style type="text/css">
*{stroke-linecap:butt;stroke-linejoin:round;}
  </style>
 </defs>
 <g id="figure_1">
  <g id="patch_1">
   <path d="
M0 72
L72 72
L72 0
L0 0
z
" style="fill:none;"/>
  </g>
  <g id="axes_1">
   <g id="PatchCollection_1">
    <defs>
     <path d="
M36 -7.5
C43.5583 -7.5 50.808 -10.5029 56.1525 -15.8475
C61.4971 -21.192 64.5 -28.4417 64.5 -36
C64.5 -43.5583 61.4971 -50.808 56.1525 -56.1525
C50.808 -61.4971 43.5583 -64.5 36 -64.5
C28.4417 -64.5 21.192 -61.4971 15.8475 -56.1525
C10.5029 -50.808 7.5 -43.5583 7.5 -36
C7.5 -28.4417 10.5029 -21.192 15.8475 -15.8475
C21.192 -10.5029 28.4417 -7.5 36 -7.5
z
" id="C0_0_a811fe30f3"/>
     <path d="
M30.7238 -8.09549
L30.5273 -8.35096
L30.3602 -8.60898
L30.223 -8.86893
L30.1156 -9.13025
L30.0375 -9.3925
L29.9882 -9.65531
L29.9665 -9.91842
L29.9711 -10.1817
L30.0006 -10.4449
L30.0532 -10.7082
L30.1272 -10.9715
L30.2207 -11.2349
L30.3318 -11.4985
L30.4587 -11.7623
L30.5998 -12.0265
L30.7534 -12.2911
L30.9179 -12.5562
L31.0919 -12.8218
L31.2741 -13.088
L31.4633 -13.3548
L31.6585 -13.6222
L31.8586 -13.8902
L32.0628 -14.1587
L32.2703 -14.4277
L32.4804 -14.6972
L32.6925 -14.967
L32.9059 -15.2371
L33.1203 -15.5074
L33.3351 -15.7778
L33.55 -16.0483
L33.7647 -16.3188
L33.9788 -16.5891
L34.1921 -16.8593
L34.4043 -17.1291
L34.6152 -17.3985
L34.8248 -17.6676
L35.0327 -17.936
L35.2389 -18.2039
L35.4433 -18.4712
L35.6457 -18.7377
L35.8462 -19.0035
L36.0445 -19.2684
L36.2408 -19.5325
L36.4349 -19.7956
L36.6268 -20.0578
L36.8166 -20.319
L37.004 -20.5793
L37.1893 -20.8384
L37.3723 -21.0966
L37.5532 -21.3536
L37.7318 -21.6096
L37.9082 -21.8646
L38.0824 -22.1184
L38.2545 -22.3711
L38.4244 -22.6228
L38.5923 -22.8734
L38.7581 -23.1229
L38.9218 -23.3714
L39.0836 -23.6188
L39.2433 -23.8652
L39.4012 -24.1106
L39.5571 -24.3551
L39.7112 -24.5985
L39.8635 -24.8411
L40.014 -25.0827
L40.1628 -25.3235
L40.3098 -25.5634
L40.4552 -25.8025
L40.599 -26.0408
L40.7412 -26.2784
L40.8819 -26.5153
L41.0211 -26.7515
L41.1588 -26.9871
L41.295 -27.2221
L41.4299 -27.4566
L41.5635 -27.6905
L41.6957 -27.924
L41.8267 -28.157
L41.9564 -28.3897
L42.085 -28.622
L42.2124 -28.854
L42.3386 -29.0858
L42.4637 -29.3173
L42.5878 -29.5488
L42.7108 -29.7801
L42.8329 -30.0113
L42.9539 -30.2425
L43.0741 -30.4737
L43.1933 -30.7051
L43.3116 -30.9365
L43.4291 -31.1682
L43.5458 -31.4
L43.7767 -31.6322
L43.8911 -31.8646
L44.0047 -32.0975
L44.1176 -32.3307
L44.2299 -32.5645
L44.3415 -32.7988
L44.4525 -33.0336
L44.5628 -33.2692
L44.6726 -33.5054
L44.7818 -33.7423
L44.8905 -33.98
L44.9986 -34.2186
L45.1063 -34.4581
L45.2134 -34.6986
L45.32 -34.9401
L45.4262 -35.1826
L45.532 -35.4263
L45.6373 -35.6711
L45.7421 -35.9172
L45.8466 -36.1645
L45.9506 -36.4132
L46.0543 -36.6633
L46.1576 -36.9149
L46.2605 -37.168
L46.363 -37.4226
L46.4652 -37.6788
L46.567 -37.9368
L46.6685 -38.1964
L46.7696 -38.4578
L46.8704 -38.7211
L46.9708 -38.9862
L47.0709 -39.2533
L47.1706 -39.5224
L47.27 -39.7934
L47.369 -40.0666
L47.4677 -40.3419
L47.5659 -40.6194
L47.6639 -40.899
L47.7614 -41.1809
L47.8585 -41.4651
L47.9553 -41.7517
L48.0516 -42.0405
L48.1475 -42.3318
L48.243 -42.6254
L48.338 -42.9215
L48.4325 -43.22
L48.5266 -43.5209
L48.6202 -43.8243
L48.7133 -44.1301
L48.8058 -44.4384
L48.8978 -44.749
L48.9893 -45.0621
L49.0802 -45.3775
L49.1706 -45.6952
L49.2603 -46.0151
L49.3496 -46.3372
L49.4382 -46.6614
L49.5263 -46.9877
L49.6139 -47.3158
L49.7009 -47.6457
L49.7875 -47.9772
L49.8736 -48.3102
L49.9593 -48.6444
L50.0448 -48.9797
L50.13 -49.3159
L50.2152 -49.6526
L50.3004 -49.9896
L50.3858 -50.3265
L50.4716 -50.6631
L50.5581 -50.9989
L50.6455 -51.3334
L50.7341 -51.6662
L50.8244 -51.9967
L50.9167 -52.3244
L51.0116 -52.6486
L51.1096 -52.9685
L51.2114 -53.2835
L51.3177 -53.5927
L51.4293 -53.895
L51.547 -54.1896
L51.672 -54.4752
L51.8051 -54.7509
L51.9476 -55.0152
L52.1005 -55.2669
L52.265 -55.5046
L52.4423 -55.727
L52.6335 -55.9325
L52.8394 -56.1199
L53.0611 -56.2878
L53.299 -56.4348
L53.5537 -56.56
L53.8252 -56.6623
L54.1135 -56.741
L54.418 -56.7956
L54.7382 -56.8256
L55.0732 -56.8309
L55.4218 -56.8117
L55.8268 -56.7681
L56.1811 -56.4731
L56.5293 -56.1239
L56.8711 -55.7686
L57.2067 -55.4074
L57.5357 -55.0401
L57.8582 -54.6671
L58.1741 -54.2884
L58.4832 -53.9042
L58.7854 -53.5145
L59.0807 -53.1194
L59.369 -52.7191
L59.6502 -52.3138
L59.9241 -51.9034
L60.1908 -51.4883
L60.4501 -51.0684
L60.7019 -50.6439
L60.9462 -50.215
L61.183 -49.7817
L61.412 -49.3442
L61.6333 -48.9027
L61.8468 -48.4572
L62.0525 -48.0079
L62.2502 -47.555
L62.4399 -47.0986
L62.6215 -46.6388
L62.795 -46.1757
L62.9604 -45.7096
L63.1176 -45.2404
L63.2665 -44.7685
L63.4071 -44.2939
L63.5393 -43.8168
L63.6632 -43.3373
L63.7786 -42.8555
L63.8856 -42.3717
L63.9841 -41.8859
L64.074 -41.3983
L64.1554 -40.9091
L64.2282 -40.4184
L64.2925 -39.9264
L64.3481 -39.4331
L64.395 -38.9388
L64.4334 -38.4436
L64.463 -37.9477
L64.484 -37.4512
L64.4963 -36.9542
L64.5 -36.4569
L64.4949 -35.9596
L64.4812 -35.4622
L64.4588 -34.9649
L64.4277 -34.468
L64.388 -33.9716
L64.3396 -33.4758
L64.2826 -32.9807
L64.217 -32.4866
L64.1428 -31.9935
L64.06 -31.5017
L63.9686 -31.0112
L63.8688 -30.5222
L63.7604 -30.035
L63.6436 -29.5495
L63.5184 -29.066
L63.3848 -28.5846
L63.2428 -28.1055
L63.0926 -27.6287
L62.9341 -27.1546
L62.7674 -26.6831
L62.5925 -26.2144
L62.4096 -25.7488
L62.2186 -25.2862
L62.0196 -24.8269
L61.8127 -24.3711
L61.5979 -23.9187
L61.3753 -23.4701
L61.145 -23.0252
L60.907 -22.5844
L60.6615 -22.1476
L60.4084 -21.715
L60.1479 -21.2868
L59.8801 -20.863
L59.6049 -20.4439
L59.3226 -20.0295
L59.0332 -19.62
L58.7367 -19.2154
L58.4334 -18.816
L58.1232 -18.4218
L57.8062 -18.033
L57.4827 -17.6496
L57.1525 -17.2718
L56.816 -16.8997
L56.4731 -16.5335
L56.1239 -16.1732
L55.7686 -15.8189
L55.4074 -15.4707
L55.0401 -15.1289
L54.6671 -14.7933
L54.2884 -14.4643
L53.9042 -14.1418
L53.5145 -13.8259
L53.1194 -13.5168
L52.7191 -13.2146
L52.3138 -12.9193
L51.9034 -12.631
L51.4883 -12.3498
L51.0684 -12.0759
L50.6439 -11.8092
L50.215 -11.5499
L49.7817 -11.2981
L49.3442 -11.0538
L48.9027 -10.817
L48.4572 -10.588
L48.0079 -10.3667
L47.555 -10.1532
L47.0986 -9.94753
L46.6388 -9.74983
L46.1757 -9.56013
L45.7096 -9.37849
L45.2404 -9.20495
L44.7685 -9.03958
L44.2939 -8.88242
L43.8168 -8.73352
L43.3373 -8.59292
L42.8555 -8.46067
L42.3717 -8.33681
L41.8859 -8.22138
L41.3983 -8.11441
L40.9091 -8.01594
L40.4184 -7.92598
L39.9264 -7.84458
L39.4331 -7.77176
L38.9388 -7.70753
L38.4436 -7.65193
L37.9477 -7.60495
L37.4512 -7.56663
L36.9542 -7.53697
L36.4569 -7.51598
L35.9596 -7.50366
L35.4622 -7.50003
L34.9649 -7.50508
L34.468 -7.5188
L33.9716 -7.5412
L33.4758 -7.57227
L32.9807 -7.61201
L32.4866 -7.66038
L31.9935 -7.71739
L31.5017 -7.78302
z
" id="C0_1_c1ed4e25d1"/>
     <path d="
M16.402 -15.4928
L16.3045 -15.8601
L16.1981 -16.2375
L16.0846 -16.6239
L15.9654 -17.0184
L15.8422 -17.4203
L15.7163 -17.8287
L15.589 -18.2427
L15.4614 -18.6617
L15.3345 -19.0848
L15.2092 -19.5114
L15.0861 -19.9408
L14.9661 -20.3725
L14.8496 -20.8058
L14.7372 -21.2403
L14.6291 -21.6755
L14.5258 -22.1108
L14.4275 -22.5459
L14.3344 -22.9804
L14.2466 -23.4139
L14.1644 -23.8461
L14.0876 -24.2767
L14.0164 -24.7055
L13.9508 -25.1321
L13.8908 -25.5565
L13.8364 -25.9782
L13.7874 -26.3973
L13.7438 -26.8135
L13.7056 -27.2268
L13.6727 -27.6368
L13.6449 -28.0437
L13.6222 -28.4472
L13.6045 -28.8473
L13.5915 -29.244
L13.5833 -29.6371
L13.5797 -30.0267
L13.5806 -30.4128
L13.5859 -30.7952
L13.5954 -31.174
L13.6091 -31.5492
L13.6268 -31.9209
L13.6484 -32.2889
L13.6738 -32.6534
L13.703 -33.0143
L13.7357 -33.3718
L13.772 -33.7257
L13.8116 -34.0763
L13.8546 -34.4234
L13.9008 -34.7673
L13.9501 -35.1078
L14.0026 -35.4451
L14.058 -35.7792
L14.1163 -36.1102
L14.1775 -36.4382
L14.2415 -36.7631
L14.3081 -37.0851
L14.3775 -37.4042
L14.4495 -37.7206
L14.524 -38.0341
L14.601 -38.345
L14.6805 -38.6533
L14.7625 -38.9591
L14.8468 -39.2623
L14.9335 -39.5632
L15.0225 -39.8617
L15.1139 -40.1579
L15.2075 -40.4519
L15.3034 -40.7437
L15.4015 -41.0335
L15.5018 -41.3212
L15.6044 -41.607
L15.7091 -41.8908
L15.8161 -42.1729
L15.9252 -42.4531
L16.0366 -42.7317
L16.1501 -43.0086
L16.2659 -43.2838
L16.3838 -43.5576
L16.504 -43.8299
L16.6263 -44.1007
L16.751 -44.3702
L16.8778 -44.6384
L17.007 -44.9052
L17.1384 -45.1709
L17.2722 -45.4355
L17.4083 -45.6989
L17.5468 -45.9612
L17.6877 -46.2225
L17.831 -46.4829
L17.9768 -46.7423
L18.1251 -47.0009
L18.276 -47.2586
L18.4294 -47.5155
L18.5855 -47.7716
L18.7442 -48.027
L18.9057 -48.2817
L19.07 -48.5358
L19.2371 -48.7892
L19.407 -49.0421
L19.58 -49.2943
L19.7559 -49.5461
L19.9349 -49.7973
L20.117 -50.0481
L20.3023 -50.2983
L20.4909 -50.5481
L20.6828 -50.7975
L20.8781 -51.0465
L21.0769 -51.2951
L21.2792 -51.5432
L21.4852 -51.791
L21.6949 -52.0383
L21.9083 -52.2853
L22.1257 -52.5319
L22.347 -52.7781
L22.5723 -53.0238
L22.8018 -53.2691
L23.0355 -53.514
L23.2735 -53.7584
L23.5159 -54.0024
L23.7628 -54.2458
L24.0142 -54.4886
L24.2703 -54.7308
L24.5312 -54.9724
L24.7969 -55.2133
L25.0676 -55.4534
L25.3432 -55.6928
L25.6239 -55.9312
L25.9099 -56.1687
L26.201 -56.4052
L26.4975 -56.6406
L26.7993 -56.8747
L27.1067 -57.1076
L27.4195 -57.3391
L27.7378 -57.569
L28.0618 -57.7974
L28.3913 -58.024
L28.7265 -58.2488
L29.0673 -58.4716
L29.4137 -58.6922
L29.7658 -58.9106
L30.1233 -59.1267
L30.4864 -59.3401
L30.8548 -59.5509
L31.2285 -59.7589
L31.6074 -59.9639
L31.9912 -60.1658
L32.3798 -60.3645
L32.773 -60.5598
L33.1704 -60.7517
L33.5717 -60.9399
L33.9765 -61.1245
L34.3845 -61.3054
L34.7951 -61.4824
L35.2077 -61.6558
L35.6219 -61.8253
L36.0367 -61.9911
L36.4516 -62.1534
L36.8656 -62.3122
L37.2777 -62.4678
L37.6869 -62.6205
L38.092 -62.7707
L38.4918 -62.9186
L38.8848 -63.065
L39.2697 -63.2104
L39.6447 -63.3553
L40.0083 -63.5007
L40.3587 -63.6473
L40.6943 -63.7959
L40.5416 -63.9474
L40.0499 -64.1358
L39.5569 -64.2108
L39.0629 -64.2772
L38.5679 -64.3349
L38.0721 -64.3841
L37.5757 -64.4246
L37.0789 -64.4564
L36.5817 -64.4796
L36.0843 -64.4941
L35.5869 -64.4999
L35.0896 -64.497
L34.5926 -64.4855
L34.096 -64.4652
L33.6 -64.4363
L33.1048 -64.3988
L32.6104 -64.3526
L32.117 -64.2977
L31.6249 -64.2342
L31.1341 -64.1622
L30.6447 -64.0815
L30.157 -63.9923
L29.671 -63.8946
L29.187 -63.7884
L28.7051 -63.6737
L28.2254 -63.5506
L27.748 -63.4191
L27.2732 -63.2792
L26.801 -63.131
L26.3317 -62.9746
L25.8652 -62.8099
L25.4019 -62.6371
L24.9418 -62.4562
L24.4851 -62.2672
L24.0318 -62.0702
L23.5822 -61.8653
L23.1364 -61.6525
L22.6945 -61.4318
L22.2567 -61.2035
L21.8231 -60.9674
L21.3937 -60.7238
L20.9688 -60.4726
L20.5485 -60.2139
L20.1329 -59.9479
L19.7222 -59.6746
L19.3164 -59.3941
L18.9157 -59.1064
L18.5201 -58.8117
L18.1299 -58.5101
L17.7452 -58.2016
L17.366 -57.8863
L16.9925 -57.5644
L16.6248 -57.2359
L16.263 -56.901
L15.9071 -56.5596
L15.5575 -56.2121
L15.214 -55.8583
L14.8769 -55.4985
L14.5462 -55.1328
L14.222 -54.7612
L13.9045 -54.3839
L13.5937 -54.0011
L13.2897 -53.6127
L12.9927 -53.219
L12.7026 -52.82
L12.4197 -52.4159
L12.1439 -52.0068
L11.8754 -51.5928
L11.6142 -51.1741
L11.3605 -50.7508
L11.1143 -50.3229
L10.8757 -49.8907
L10.6447 -49.4543
L10.4214 -49.0138
L10.206 -48.5693
L9.99835 -48.121
L9.79866 -47.6689
L9.60695 -47.2134
L9.42328 -46.7544
L9.2477 -46.2921
L9.08028 -45.8267
L8.92105 -45.3583
L8.77008 -44.8871
L8.62739 -44.4132
L8.49305 -43.9366
L8.36708 -43.4577
L8.24953 -42.9765
L8.14044 -42.4932
L8.03983 -42.0079
L7.94774 -41.5208
L7.86419 -41.032
L7.78921 -40.5416
L7.72283 -40.0499
L7.66506 -39.5569
L7.61592 -39.0629
L7.57543 -38.5679
L7.54359 -38.0721
L7.52043 -37.5757
L7.50594 -37.0789
L7.50012 -36.5817
L7.50299 -36.0843
L7.51454 -35.5869
L7.53477 -35.0896
L7.56367 -34.5926
L7.60123 -34.096
L7.64744 -33.6
L7.70229 -33.1048
L7.76575 -32.6104
L7.83782 -32.117
L7.91847 -31.6249
L8.00767 -31.1341
L8.10539 -30.6447
L8.21161 -30.157
L8.3263 -29.671
L8.44942 -29.187
L8.58093 -28.7051
L8.72079 -28.2254
L8.86896 -27.748
L9.0254 -27.2732
L9.19005 -26.801
L9.36287 -26.3317
L9.5438 -25.8652
L9.73279 -25.4019
L9.92979 -24.9418
L10.1347 -24.4851
L10.3475 -24.0318
L10.5682 -23.5822
L10.7965 -23.1364
L11.0326 -22.6945
L11.2762 -22.2567
L11.5274 -21.8231
L11.7861 -21.3937
L12.0521 -20.9688
L12.3254 -20.5485
L12.6059 -20.1329
L12.8936 -19.7222
L13.1883 -19.3164
L13.4899 -18.9157
L13.7984 -18.5201
L14.1137 -18.1299
L14.4356 -17.7452
L14.7641 -17.366
L15.099 -16.9925
L15.4404 -16.6248
L15.7879 -16.263
z
" id="C0_2_4adb78883d"/>
    </defs>
    <g clip-path="url(#p1bffca34e9)">
     <use style="fill:#ff0000;stroke:#000000;stroke-width:2.0;" x="0.0" xlink:href="#C0_0_a811fe30f3" y="72.0"/>
    </g>
    <g clip-path="url(#p1bffca34e9)">
     <use style="fill:#ffffff;stroke:#000000;stroke-width:2.0;" x="0.0" xlink:href="#C0_1_c1ed4e25d1" y="72.0"/>
    </g>
    <g clip-path="url(#p1bffca34e9)">
     <use style="fill:#ffffff;stroke:#000000;stroke-width:2.0;" x="0.0" xlink:href="#C0_2_4adb78883d" y="72.0"/>
    </g>
   </g>
  </g>
 </g>
 <defs>
  <clipPath id="p1bffca34e9">
   <rect height="72.0" width="72.0" x="0.0" y="0.0"/>
  </clipPath>
 </defs>
</svg>
