<?xml version="1.0" encoding="utf-8" standalone="no"?>
<!DOCTYPE svg PUBLIC "-//W3C//DTD SVG 1.1//EN"
  "http://www.w3.org/Graphics/SVG/1.1/DTD/svg11.dtd">
<!-- Created with matplotlib (http://matplotlib.org/) -->
<svg height="72pt" version="1.1" viewBox="0 0 72 72" width="72pt" xmlns="http://www.w3.org/2000/svg" xmlns:xlink="http://www.w3.org/1999/xlink">
 <defs>
  <style type="text/css">
*{stroke-linecap:butt;stroke-linejoin:round;}
  </style>
 </defs>
 <g id="figure_1">
  <g id="patch_1">
   <path d="
M0 72
L72 72
L72 0
L0 0
z
" style="fill:none;"/>
  </g>
  <g id="axes_1">
   <g id="PatchCollection_1">
    <defs>
     <path d="
M36 -7.5
C43.5583 -7.5 50.808 -10.5029 56.1525 -15.8475
C61.4971 -21.192 64.5 -28.4417 64.5 -36
C64.5 -43.5583 61.4971 -50.808 56.1525 -56.1525
C50.808 -61.4971 43.5583 -64.5 36 -64.5
C28.4417 -64.5 21.192 -61.4971 15.8475 -56.1525
C10.5029 -50.808 7.5 -43.5583 7.5 -36
C7.5 -28.4417 10.5029 -21.192 15.8475 -15.8475
C21.192 -10.5029 28.4417 -7.5 36 -7.5
z
" id="C0_0_a811fe30f3"/>
     <path d="
M52.8006 -13.2361
L52.4793 -13.3425
L52.1387 -13.4419
L51.7832 -13.5372
L51.4164 -13.6306
L51.0412 -13.7237
L50.6598 -13.8179
L50.274 -13.9141
L49.8856 -14.0129
L49.4956 -14.1149
L49.1052 -14.2203
L48.7152 -14.3294
L48.3263 -14.4424
L47.9392 -14.5591
L47.5543 -14.6797
L47.1721 -14.804
L46.7929 -14.932
L46.417 -15.0635
L46.0447 -15.1984
L45.6762 -15.3365
L45.3118 -15.4778
L44.9514 -15.622
L44.5953 -15.7689
L44.2435 -15.9184
L43.8962 -16.0704
L43.5533 -16.2246
L43.2149 -16.3809
L42.881 -16.5392
L42.5517 -16.6993
L42.2269 -16.8611
L41.9065 -17.0244
L41.5907 -17.1891
L41.2793 -17.3551
L40.9723 -17.5223
L40.6697 -17.6905
L40.3714 -17.8597
L40.0773 -18.0298
L39.7873 -18.2007
L39.5015 -18.3723
L39.2198 -18.5445
L38.9419 -18.7173
L38.668 -18.8905
L38.3979 -19.0643
L38.1315 -19.2384
L37.8687 -19.4129
L37.6095 -19.5877
L37.3538 -19.7628
L37.1015 -19.9381
L36.8525 -20.1137
L36.6068 -20.2894
L36.3641 -20.4653
L36.1246 -20.6414
L35.888 -20.8176
L35.6544 -20.994
L35.4235 -21.1705
L35.1954 -21.3471
L34.97 -21.5239
L34.7472 -21.7008
L34.5268 -21.8779
L34.3089 -22.0551
L34.0934 -22.2324
L33.8801 -22.4099
L33.6691 -22.5877
L33.4602 -22.7656
L33.2534 -22.9437
L33.0485 -23.1221
L32.8456 -23.3007
L32.6446 -23.4796
L32.4454 -23.6588
L32.248 -23.8384
L32.0522 -24.0183
L31.858 -24.1986
L31.6654 -24.3794
L31.4743 -24.5605
L31.2846 -24.7422
L31.0963 -24.9244
L30.9094 -25.1072
L30.7237 -25.2905
L30.5393 -25.4745
L30.356 -25.6591
L30.1738 -25.8445
L29.9928 -26.0306
L29.8127 -26.2174
L29.4555 -26.4052
L29.2782 -26.5938
L29.1018 -26.7833
L28.9261 -26.9738
L28.7513 -27.1653
L28.5771 -27.3579
L28.4036 -27.5516
L28.2308 -27.7465
L28.0585 -27.9426
L27.8868 -28.14
L27.7156 -28.3387
L27.5449 -28.5388
L27.3747 -28.7403
L27.2049 -28.9434
L27.0355 -29.148
L26.8664 -29.3542
L26.6977 -29.5621
L26.5292 -29.7717
L26.3611 -29.9831
L26.1932 -30.1965
L26.0255 -30.4117
L25.858 -30.629
L25.6908 -30.8483
L25.5236 -31.0698
L25.3567 -31.2935
L25.1898 -31.5195
L25.0231 -31.7478
L24.8565 -31.9786
L24.69 -32.2119
L24.5235 -32.4478
L24.3572 -32.6864
L24.1909 -32.9276
L24.0247 -33.1718
L23.8585 -33.4188
L23.6925 -33.6688
L23.5265 -33.9218
L23.3606 -34.178
L23.1948 -34.4375
L23.0291 -34.7002
L22.8636 -34.9664
L22.6983 -35.236
L22.5331 -35.5091
L22.3681 -35.7859
L22.2034 -36.0664
L22.039 -36.3507
L21.875 -36.6388
L21.7113 -36.9309
L21.548 -37.227
L21.3853 -37.5272
L21.2231 -37.8316
L21.0615 -38.1401
L20.9006 -38.4529
L20.7406 -38.77
L20.5813 -39.0915
L20.4231 -39.4173
L20.2658 -39.7477
L20.1098 -40.0824
L19.955 -40.4217
L19.8016 -40.7654
L19.6496 -41.1135
L19.4993 -41.4662
L19.3507 -41.8232
L19.2039 -42.1846
L19.0592 -42.5503
L18.9166 -42.9203
L18.7762 -43.2943
L18.6381 -43.6723
L18.5026 -44.0541
L18.3696 -44.4395
L18.2394 -44.8283
L18.1119 -45.2203
L17.9872 -45.6151
L17.8653 -46.0123
L17.7463 -46.4115
L17.6301 -46.8123
L17.5164 -47.214
L17.4052 -47.6159
L17.296 -48.0173
L17.1884 -48.4171
L17.0817 -48.8143
L16.9751 -49.2073
L16.8674 -49.5944
L16.757 -49.9736
L16.642 -50.3423
L16.5198 -50.6974
L16.3873 -51.0349
L16.2407 -51.3502
L16.0758 -51.6378
L15.8881 -51.8917
L15.6737 -52.1054
L15.4297 -52.273
L15.1547 -52.3896
L14.8496 -52.4528
L14.517 -52.4624
L14.1607 -52.4208
L13.7853 -52.3317
L13.3951 -52.1999
L12.9943 -52.0303
L12.5864 -51.8273
L12.1744 -51.5949
L11.77 -51.3364
L11.5118 -51.0052
L11.2611 -50.58
L11.0179 -50.1504
L10.7823 -49.7165
L10.5544 -49.2784
L10.3342 -48.8363
L10.1219 -48.3903
L9.91746 -47.9405
L9.72096 -47.487
L9.53246 -47.03
L9.35202 -46.5697
L9.1797 -46.1062
L9.01555 -45.6396
L8.85962 -45.17
L8.71196 -44.6977
L8.57261 -44.2227
L8.44162 -43.7452
L8.31902 -43.2654
L8.20485 -42.7833
L8.09914 -42.2992
L8.00194 -41.8131
L7.91327 -41.3253
L7.83315 -40.8358
L7.76161 -40.3449
L7.69867 -39.8527
L7.64435 -39.3593
L7.59867 -38.8648
L7.56165 -38.3695
L7.53328 -37.8735
L7.51359 -37.3769
L7.50257 -36.8799
L7.50023 -36.3826
L7.50658 -35.8852
L7.5216 -35.3878
L7.5453 -34.8906
L7.57767 -34.3938
L7.61869 -33.8974
L7.66836 -33.4017
L7.72666 -32.9068
L7.79357 -32.4128
L7.86907 -31.9199
L7.95315 -31.4282
L8.04576 -30.938
L8.14689 -30.4493
L8.25651 -29.9622
L8.37458 -29.4771
L8.50106 -28.9939
L8.63592 -28.5128
L8.77911 -28.034
L8.93059 -27.5577
L9.09032 -27.0839
L9.25825 -26.6128
L9.43433 -26.1446
L9.61849 -25.6794
L9.81069 -25.2173
L10.0109 -24.7586
L10.219 -24.3032
L10.4349 -23.8514
L10.6587 -23.4033
L10.8901 -22.9591
L11.1292 -22.5188
L11.3759 -22.0826
L11.6301 -21.6507
L11.8917 -21.2231
L12.1606 -20.8
L12.4368 -20.3816
L12.7202 -19.9679
L13.0107 -19.5591
L13.3082 -19.1554
L13.6126 -18.7567
L13.9238 -18.3633
L14.2417 -17.9753
L14.5663 -17.5927
L14.8974 -17.2158
L15.2349 -16.8446
L15.5788 -16.4792
L15.9288 -16.1198
L16.285 -15.7664
L16.6472 -15.4192
L17.0153 -15.0783
L17.3891 -14.7437
L17.7687 -14.4156
L18.1538 -14.0941
L18.5443 -13.7793
L18.9401 -13.4712
L19.3412 -13.17
L19.7473 -12.8757
L20.1583 -12.5885
L20.5742 -12.3084
L20.9948 -12.0355
L21.42 -11.77
L21.8496 -11.5118
L22.2835 -11.2611
L22.7216 -11.0179
L23.1637 -10.7823
L23.6097 -10.5544
L24.0595 -10.3342
L24.513 -10.1219
L24.97 -9.91746
L25.4303 -9.72096
L25.8938 -9.53246
L26.3604 -9.35202
L26.83 -9.1797
L27.3023 -9.01555
L27.7773 -8.85962
L28.2548 -8.71196
L28.7346 -8.57261
L29.2167 -8.44162
L29.7008 -8.31902
L30.1869 -8.20485
L30.6747 -8.09914
L31.1642 -8.00194
L31.6551 -7.91327
L32.1473 -7.83315
L32.6407 -7.76161
L33.1352 -7.69867
L33.6305 -7.64435
L34.1265 -7.59867
L34.6231 -7.56165
L35.1201 -7.53328
L35.6174 -7.51359
L36.1148 -7.50257
L36.6122 -7.50023
L37.1094 -7.50658
L37.6062 -7.5216
L38.1026 -7.5453
L38.5983 -7.57767
L39.0932 -7.61869
L39.5872 -7.66836
L40.0801 -7.72666
L40.5718 -7.79357
L41.062 -7.86907
L41.5507 -7.95315
L42.0378 -8.04576
L42.5229 -8.14689
L43.0061 -8.25651
L43.4872 -8.37458
L43.966 -8.50106
L44.4423 -8.63592
L44.9161 -8.77911
L45.3872 -8.93059
L45.8554 -9.09032
L46.3206 -9.25825
L46.7827 -9.43433
L47.2414 -9.61849
L47.6968 -9.81069
L48.1486 -10.0109
L48.5967 -10.219
L49.0409 -10.4349
L49.4812 -10.6587
L49.9174 -10.8901
L50.3493 -11.1292
L50.7769 -11.3759
L51.2 -11.6301
L51.6184 -11.8917
L52.0321 -12.1606
L52.4409 -12.4368
z
" id="C0_1_e5c3c01a0a"/>
     <path d="
M60.1817 -20.9809
L60.2578 -21.4837
L60.3292 -21.9914
L60.3945 -22.5024
L60.4528 -23.0151
L60.5035 -23.5282
L60.5459 -24.0407
L60.58 -24.5517
L60.6055 -25.0603
L60.6223 -25.5659
L60.6305 -26.0679
L60.6302 -26.5658
L60.6215 -27.0591
L60.6047 -27.5475
L60.5799 -28.0307
L60.5474 -28.5084
L60.5074 -28.9804
L60.4602 -29.4464
L60.406 -29.9064
L60.3453 -30.3601
L60.2781 -30.8076
L60.2049 -31.2487
L60.1258 -31.6833
L60.0412 -32.1115
L59.9513 -32.5332
L59.8564 -32.9485
L59.7567 -33.3573
L59.6524 -33.7597
L59.5438 -34.1558
L59.4312 -34.5455
L59.3146 -34.9291
L59.1944 -35.3065
L59.0706 -35.6778
L58.9436 -36.0431
L58.8134 -36.4025
L58.6803 -36.7562
L58.5443 -37.1041
L58.4057 -37.4465
L58.2645 -37.7834
L58.1209 -38.1149
L57.975 -38.4412
L57.8269 -38.7623
L57.6768 -39.0784
L57.5247 -39.3896
L57.3706 -39.696
L57.2148 -39.9977
L57.0573 -40.2948
L56.8981 -40.5875
L56.7373 -40.8758
L56.5749 -41.1599
L56.4111 -41.4399
L56.2458 -41.7158
L56.0791 -41.9879
L55.9111 -42.2561
L55.7417 -42.5206
L55.571 -42.7815
L55.3991 -43.0388
L55.2259 -43.2928
L55.0515 -43.5434
L54.8758 -43.7909
L54.6989 -44.0351
L54.5208 -44.2763
L54.3415 -44.5146
L54.161 -44.75
L53.9793 -44.9826
L53.7964 -45.2124
L53.6122 -45.4396
L53.4268 -45.6643
L53.2401 -45.8864
L53.0522 -46.1062
L52.8629 -46.3236
L52.6724 -46.5387
L52.4805 -46.7515
L52.2872 -46.9623
L52.0926 -47.1709
L51.8965 -47.3775
L51.699 -47.5821
L51.4999 -47.7848
L51.2994 -47.9856
L51.0973 -48.1846
L50.8935 -48.3818
L50.6881 -48.5773
L50.4811 -48.7711
L50.2722 -48.9633
L50.0616 -49.1539
L49.8491 -49.3429
L49.6348 -49.5304
L49.4184 -49.7164
L49.2001 -49.901
L48.9797 -50.0842
L48.7572 -50.2659
L48.5325 -50.4463
L48.3055 -50.6254
L48.0762 -50.8031
L47.8445 -50.9796
L47.6104 -51.1547
L47.3737 -51.3286
L47.1345 -51.5012
L46.8925 -51.6726
L46.6478 -51.8428
L46.4003 -52.0117
L46.1498 -52.1794
L45.8964 -52.3459
L45.6398 -52.5111
L45.3801 -52.675
L45.1172 -52.8378
L44.8509 -52.9992
L44.5811 -53.1594
L44.3079 -53.3182
L44.031 -53.4758
L43.7504 -53.6319
L43.4659 -53.7867
L43.1776 -53.94
L42.8852 -54.0919
L42.5887 -54.2422
L42.2881 -54.391
L41.983 -54.5381
L41.6736 -54.6836
L41.3597 -54.8272
L41.0411 -54.9691
L40.7178 -55.109
L40.3897 -55.247
L40.0567 -55.3828
L39.7187 -55.5165
L39.3756 -55.6479
L39.0272 -55.7768
L38.6736 -55.9033
L38.3146 -56.0271
L37.9501 -56.1482
L37.5801 -56.2663
L37.2045 -56.3813
L36.8232 -56.4932
L36.4363 -56.6016
L36.0435 -56.7065
L35.6449 -56.8077
L35.2405 -56.905
L34.8303 -56.9982
L34.4142 -57.0871
L33.9923 -57.1715
L33.5645 -57.2512
L33.131 -57.3261
L32.6917 -57.3958
L32.2469 -57.4602
L31.7965 -57.519
L31.3408 -57.5722
L30.8799 -57.6194
L30.4139 -57.6604
L29.9431 -57.6952
L29.4678 -57.7235
L28.9883 -57.7453
L28.5049 -57.7603
L28.0181 -57.7685
L27.5283 -57.77
L27.036 -57.7647
L26.5419 -57.7527
L26.0467 -57.7343
L25.5512 -57.7097
L25.0563 -57.6796
L24.5633 -57.6444
L24.0734 -57.6052
L23.5881 -57.5631
L23.1095 -57.5198
L22.6398 -57.4773
L22.1816 -57.4383
L21.7384 -57.4061
L21.3139 -57.3851
L20.9128 -57.3801
L20.5399 -57.3969
L20.2006 -57.4415
L19.8995 -57.5195
L19.6404 -57.6352
L19.4252 -57.7909
L19.2538 -57.9865
L19.1244 -58.2193
L19.0338 -58.4853
L19.3413 -58.7794
L19.7474 -59.1244
L20.1585 -59.4116
L20.5744 -59.6917
L20.9949 -59.9645
L21.4201 -60.2301
L21.8497 -60.4883
L22.2836 -60.739
L22.7217 -60.9822
L23.1638 -61.2178
L23.6099 -61.4457
L24.0597 -61.6658
L24.5131 -61.8782
L24.9701 -62.0826
L25.4304 -62.2791
L25.8939 -62.4676
L26.3606 -62.648
L26.8301 -62.8204
L27.3024 -62.9845
L27.7774 -63.1404
L28.2549 -63.2881
L28.7348 -63.4274
L29.2169 -63.5584
L29.701 -63.681
L30.187 -63.7952
L30.6749 -63.9009
L31.1643 -63.9981
L31.6552 -64.0868
L32.1475 -64.1669
L32.6409 -64.2384
L33.1353 -64.3013
L33.6306 -64.3557
L34.1267 -64.4013
L34.6233 -64.4384
L35.1203 -64.4667
L35.6176 -64.4864
L36.115 -64.4974
L36.6124 -64.4998
L37.1095 -64.4934
L37.6064 -64.4784
L38.1028 -64.4547
L38.5985 -64.4223
L39.0934 -64.3813
L39.5874 -64.3316
L40.0803 -64.2733
L40.5719 -64.2064
L41.0622 -64.1309
L41.5509 -64.0468
L42.0379 -63.9542
L42.5231 -63.8531
L43.0063 -63.7435
L43.4874 -63.6254
L43.9661 -63.4989
L44.4425 -63.364
L44.9163 -63.2208
L45.3873 -63.0694
L45.8555 -62.9096
L46.3208 -62.7417
L46.7828 -62.5656
L47.2416 -62.3814
L47.6969 -62.1892
L48.1487 -61.9891
L48.5968 -61.781
L49.0411 -61.565
L49.4814 -61.3413
L49.9175 -61.1098
L50.3495 -60.8707
L50.777 -60.624
L51.2001 -60.3698
L51.6185 -60.1082
L52.0322 -59.8393
L52.441 -59.5631
L52.8448 -59.2797
L53.2434 -58.9892
L53.6368 -58.6917
L54.0248 -58.3873
L54.4074 -58.0761
L54.7843 -57.7582
L55.1555 -57.4336
L55.5209 -57.1025
L55.8803 -56.765
L56.2337 -56.4211
L56.5809 -56.0711
L56.9218 -55.7149
L57.2564 -55.3527
L57.5845 -54.9846
L57.906 -54.6107
L58.2208 -54.2312
L58.5289 -53.8461
L58.8301 -53.4556
L59.1244 -53.0598
L59.4116 -52.6587
L59.6917 -52.2526
L59.9645 -51.8415
L60.2301 -51.4256
L60.4883 -51.0051
L60.739 -50.5799
L60.9822 -50.1503
L61.2178 -49.7164
L61.4457 -49.2783
L61.6658 -48.8362
L61.8782 -48.3901
L62.0826 -47.9403
L62.2791 -47.4869
L62.4676 -47.0299
L62.648 -46.5696
L62.8204 -46.1061
L62.9845 -45.6394
L63.1404 -45.1699
L63.2881 -44.6976
L63.4274 -44.2226
L63.5584 -43.7451
L63.681 -43.2652
L63.7952 -42.7831
L63.9009 -42.299
L63.9981 -41.813
L64.0868 -41.3251
L64.1669 -40.8357
L64.2384 -40.3448
L64.3013 -39.8525
L64.3557 -39.3591
L64.4013 -38.8647
L64.4384 -38.3694
L64.4667 -37.8733
L64.4864 -37.3767
L64.4974 -36.8797
L64.4998 -36.3824
L64.4934 -35.885
L64.4784 -35.3876
L64.4547 -34.8905
L64.4223 -34.3936
L64.3813 -33.8972
L64.3316 -33.4015
L64.2733 -32.9066
L64.2064 -32.4126
L64.1309 -31.9197
L64.0468 -31.4281
L63.9542 -30.9378
L63.8531 -30.4491
L63.7435 -29.9621
L63.6254 -29.4769
L63.4989 -28.9937
L63.364 -28.5126
L63.2208 -28.0339
L63.0694 -27.5575
L62.9096 -27.0837
L62.7417 -26.6127
L62.5656 -26.1445
L62.3814 -25.6792
L62.1892 -25.2172
L61.9891 -24.7584
L61.781 -24.3031
L61.565 -23.8513
L61.3413 -23.4032
L61.1098 -22.9589
L60.8707 -22.5186
L60.624 -22.0825
z
" id="C0_2_b9fcb910b8"/>
    </defs>
    <g clip-path="url(#p1bffca34e9)">
     <use style="fill:#ff0000;stroke:#000000;stroke-width:2.0;" x="0.0" xlink:href="#C0_0_a811fe30f3" y="72.0"/>
    </g>
    <g clip-path="url(#p1bffca34e9)">
     <use style="fill:#ffffff;stroke:#000000;stroke-width:2.0;" x="0.0" xlink:href="#C0_1_e5c3c01a0a" y="72.0"/>
    </g>
    <g clip-path="url(#p1bffca34e9)">
     <use style="fill:#ffffff;stroke:#000000;stroke-width:2.0;" x="0.0" xlink:href="#C0_2_b9fcb910b8" y="72.0"/>
    </g>
   </g>
  </g>
 </g>
 <defs>
  <clipPath id="p1bffca34e9">
   <rect height="72.0" width="72.0" x="0.0" y="0.0"/>
  </clipPath>
 </defs>
</svg>
