<?xml version="1.0" encoding="utf-8" standalone="no"?>
<!DOCTYPE svg PUBLIC "-//W3C//DTD SVG 1.1//EN"
  "http://www.w3.org/Graphics/SVG/1.1/DTD/svg11.dtd">
<!-- Created with matplotlib (http://matplotlib.org/) -->
<svg height="72pt" version="1.1" viewBox="0 0 72 72" width="72pt" xmlns="http://www.w3.org/2000/svg" xmlns:xlink="http://www.w3.org/1999/xlink">
 <defs>
  <style type="text/css">
*{stroke-linecap:butt;stroke-linejoin:round;}
  </style>
 </defs>
 <g id="figure_1">
  <g id="patch_1">
   <path d="
M0 72
L72 72
L72 0
L0 0
z
" style="fill:none;"/>
  </g>
  <g id="axes_1">
   <g id="PatchCollection_1">
    <defs>
     <path d="
M36 -7.5
C43.5583 -7.5 50.808 -10.5029 56.1525 -15.8475
C61.4971 -21.192 64.5 -28.4417 64.5 -36
C64.5 -43.5583 61.4971 -50.808 56.1525 -56.1525
C50.808 -61.4971 43.5583 -64.5 36 -64.5
C28.4417 -64.5 21.192 -61.4971 15.8475 -56.1525
C10.5029 -50.808 7.5 -43.5583 7.5 -36
C7.5 -28.4417 10.5029 -21.192 15.8475 -15.8475
C21.192 -10.5029 28.4417 -7.5 36 -7.5
z
" id="C0_0_a811fe30f3"/>
     <path d="
M29.8704 -42.5051
L29.7534 -42.2762
L29.6374 -42.0467
L29.5223 -41.8164
L29.4082 -41.5854
L29.2949 -41.3535
L29.1826 -41.1208
L29.071 -40.8871
L28.9603 -40.6525
L28.8505 -40.4167
L28.7414 -40.1799
L28.6331 -39.9419
L28.5256 -39.7027
L28.4188 -39.4622
L28.3128 -39.2204
L28.2075 -38.9772
L28.103 -38.7325
L27.9991 -38.4863
L27.896 -38.2385
L27.7936 -37.9891
L27.6919 -37.738
L27.5908 -37.4851
L27.4905 -37.2304
L27.3909 -36.9738
L27.292 -36.7152
L27.1939 -36.4546
L27.0964 -36.1919
L26.9997 -35.927
L26.9038 -35.66
L26.8086 -35.3906
L26.7142 -35.119
L26.6206 -34.8449
L26.5278 -34.5683
L26.4359 -34.2892
L26.3449 -34.0075
L26.2548 -33.7231
L26.1657 -33.436
L26.0776 -33.1461
L25.9905 -32.8534
L25.9045 -32.5578
L25.8196 -32.2593
L25.7359 -31.9577
L25.6535 -31.6531
L25.5725 -31.3454
L25.4928 -31.0346
L25.4146 -30.7205
L25.338 -30.4033
L25.263 -30.0828
L25.1898 -29.7591
L25.1184 -29.4321
L25.049 -29.1017
L24.9816 -28.7681
L24.9165 -28.4311
L24.8536 -28.0908
L24.7933 -27.7473
L24.7356 -27.4004
L24.6807 -27.0504
L24.6288 -26.6972
L24.58 -26.3408
L24.5346 -25.9814
L24.4928 -25.619
L24.4548 -25.2538
L24.4208 -24.8858
L24.3911 -24.5152
L24.366 -24.1422
L24.3458 -23.7669
L24.3308 -23.3895
L24.3214 -23.0103
L24.3179 -22.6295
L24.3207 -22.2473
L24.3303 -21.8642
L24.3471 -21.4804
L24.3716 -21.0964
L24.4044 -20.7125
L24.4461 -20.3293
L24.4974 -19.9472
L24.5589 -19.5669
L24.6314 -19.189
L24.7158 -18.8142
L24.8129 -18.4434
L24.9238 -18.0772
L25.0493 -17.7168
L25.1906 -17.363
L25.3487 -17.017
L25.5247 -16.6799
L25.7196 -16.3529
L25.9344 -16.0371
L26.1698 -15.7338
L26.4264 -15.4441
L26.7045 -15.169
L27.0042 -14.9095
L27.325 -14.6664
L27.6665 -14.4402
L28.0276 -14.2314
L28.407 -14.0401
L28.8034 -13.8664
L29.2151 -13.7102
L29.6405 -13.5712
L30.0779 -13.449
L30.5256 -13.3433
L30.9819 -13.2536
L31.4453 -13.1793
L31.9144 -13.12
L32.3878 -13.0749
L32.8643 -13.0437
L33.3427 -13.0258
L33.8221 -13.0206
L34.3015 -13.0276
L34.78 -13.0463
L35.257 -13.0762
L35.7318 -13.1168
L36.2038 -13.1677
L36.6724 -13.2283
L37.1372 -13.2982
L37.5978 -13.377
L38.0538 -13.4643
L38.5049 -13.5597
L38.9509 -13.6627
L39.3914 -13.773
L39.8263 -13.8903
L40.2554 -14.0142
L40.6786 -14.1443
L41.0958 -14.2803
L41.5069 -14.4219
L41.9118 -14.5688
L42.3105 -14.7208
L42.7029 -14.8775
L43.0891 -15.0387
L43.469 -15.2042
L43.8427 -15.3737
L44.2102 -15.547
L44.5714 -15.7238
L44.9266 -15.9041
L45.2757 -16.0875
L45.6188 -16.274
L45.956 -16.4633
L46.2872 -16.6554
L46.6128 -16.8499
L46.9326 -17.0469
L47.2468 -17.2462
L47.5555 -17.4477
L47.8588 -17.6512
L48.1568 -17.8566
L48.4495 -18.064
L48.7371 -18.273
L49.0197 -18.4838
L49.2973 -18.6962
L49.5701 -18.9102
L49.8381 -19.1256
L50.1014 -19.3425
L50.3603 -19.5608
L50.6146 -19.7804
L50.8646 -20.0013
L51.1103 -20.2235
L51.3518 -20.4469
L51.5892 -20.6716
L51.8226 -20.8974
L52.0521 -21.1244
L52.2777 -21.3526
L52.4995 -21.582
L52.7176 -21.8125
L52.9321 -22.0442
L53.1431 -22.277
L53.3506 -22.511
L53.5546 -22.7462
L53.7554 -22.9826
L53.9528 -23.2201
L54.147 -23.4589
L54.3381 -23.6989
L54.526 -23.9402
L54.7109 -24.1828
L54.8928 -24.4266
L55.0718 -24.6718
L55.2478 -24.9184
L55.421 -25.1664
L55.5913 -25.4158
L55.7589 -25.6667
L55.9237 -25.9191
L56.0857 -26.1731
L56.2451 -26.4287
L56.4018 -26.6859
L56.5559 -26.9448
L56.7073 -27.2055
L56.8562 -27.4679
L57.0024 -27.7322
L57.1461 -27.9984
L57.2872 -28.2665
L57.4258 -28.5367
L57.5618 -28.8089
L57.6952 -29.0832
L57.826 -29.3598
L57.9543 -29.6385
L58.08 -29.9196
L58.2031 -30.2031
L58.3236 -30.489
L58.4415 -30.7775
L58.5567 -31.0685
L58.6692 -31.3622
L58.7789 -31.6586
L58.886 -31.9578
L58.9902 -32.2598
L59.0915 -32.5648
L59.1899 -32.8728
L59.2854 -33.1839
L59.3779 -33.4982
L59.4672 -33.8157
L59.5535 -34.1365
L59.6364 -34.4607
L59.7161 -34.7884
L59.7923 -35.1196
L59.865 -35.4544
L59.9341 -35.7929
L59.9995 -36.1352
L60.0611 -36.4813
L60.1188 -36.8313
L60.1723 -37.1852
L60.2216 -37.5432
L60.2666 -37.9052
L60.3071 -38.2714
L60.3429 -38.6418
L60.3739 -39.0165
L60.3999 -39.3954
L60.4207 -39.7787
L60.4361 -40.1663
L60.446 -40.5583
L60.45 -40.9547
L60.4481 -41.3555
L60.4399 -41.7607
L60.4253 -42.1703
L60.404 -42.5842
L60.3758 -43.0025
L60.3403 -43.4251
L60.2974 -43.8519
L60.2467 -44.2828
L60.188 -44.7177
L60.1211 -45.1566
L60.0455 -45.5992
L59.961 -46.0454
L59.8674 -46.495
L59.7643 -46.9478
L59.6513 -47.4035
L59.5283 -47.8619
L59.395 -48.3226
L59.2509 -48.7853
L59.0959 -49.2496
L58.9296 -49.7152
L58.7518 -50.1814
L58.5623 -50.6478
L58.3607 -51.1138
L58.1469 -51.5787
L57.9208 -52.042
L57.6821 -52.5028
L57.4307 -52.9603
L57.1666 -53.4136
L56.8898 -53.8617
L56.6002 -54.3036
L56.2979 -54.7382
L55.9832 -55.1641
L55.6563 -55.5801
L55.3174 -55.9847
L54.9671 -56.3764
L54.6059 -56.7536
L54.2344 -57.1147
L53.8535 -57.458
L53.4639 -57.7816
L53.0667 -58.0839
L52.6631 -58.3633
L52.2541 -58.6184
L51.841 -58.8479
L51.4251 -59.0507
L51.0076 -59.2264
L50.5897 -59.3745
L50.1725 -59.4953
L49.757 -59.5892
L49.3441 -59.657
L48.9346 -59.6997
L48.529 -59.7187
L48.1278 -59.7153
L47.7314 -59.691
L47.3402 -59.6473
L46.9543 -59.5856
L46.5739 -59.5075
L46.199 -59.4141
L45.8299 -59.3069
L45.4664 -59.1869
L45.1086 -59.0553
L44.7566 -58.9131
L44.4103 -58.7613
L44.0697 -58.6006
L43.7347 -58.4318
L43.4054 -58.2558
L43.0816 -58.0731
L42.7633 -57.8843
L42.4505 -57.6901
L42.1431 -57.4909
L41.8411 -57.2872
L41.5443 -57.0795
L41.2527 -56.8682
L40.9663 -56.6536
L40.685 -56.436
L40.4086 -56.2159
L40.1371 -55.9935
L39.8705 -55.7691
L39.6086 -55.5429
L39.3513 -55.3152
L39.0987 -55.0861
L38.8505 -54.8559
L38.6067 -54.6247
L38.3672 -54.3928
L38.1319 -54.1602
L37.9007 -53.927
L37.6736 -53.6936
L37.4504 -53.4598
L37.2311 -53.2259
L37.0156 -52.9919
L36.8037 -52.7579
L36.5954 -52.524
L36.3907 -52.2902
L36.1893 -52.0567
L35.9913 -51.8234
L35.7965 -51.5904
L35.6049 -51.3577
L35.4163 -51.1254
L35.2308 -50.8935
L35.0482 -50.6619
L34.8684 -50.4309
L34.6914 -50.2002
L34.5171 -49.97
L34.3454 -49.7402
L34.1763 -49.5109
L34.0096 -49.282
L33.8453 -49.0536
L33.6834 -48.8256
L33.5237 -48.598
L33.3662 -48.3707
L33.2109 -48.1439
L33.0577 -47.9174
L32.9065 -47.6912
L32.7572 -47.4654
L32.6099 -47.2398
L32.4644 -47.0145
L32.3207 -46.7894
L32.1788 -46.5644
L32.0385 -46.3397
L31.8999 -46.1151
L31.7629 -45.8905
L31.6275 -45.666
L31.4935 -45.4415
L31.361 -45.217
L31.2299 -44.9924
L31.1002 -44.7677
L30.9718 -44.5429
L30.8447 -44.3178
L30.7189 -44.0926
L30.5943 -43.867
L30.4709 -43.6411
L30.3486 -43.4149
L30.2275 -43.1882
L30.1074 -42.961
z
" id="C0_1_2668688381"/>
    </defs>
    <g clip-path="url(#p1bffca34e9)">
     <use style="fill:#ff0000;stroke:#000000;stroke-width:2.0;" x="0.0" xlink:href="#C0_0_a811fe30f3" y="72.0"/>
    </g>
    <g clip-path="url(#p1bffca34e9)">
     <use style="fill:#ffffff;stroke:#000000;stroke-width:2.0;" x="0.0" xlink:href="#C0_1_2668688381" y="72.0"/>
    </g>
   </g>
  </g>
 </g>
 <defs>
  <clipPath id="p1bffca34e9">
   <rect height="72.0" width="72.0" x="0.0" y="0.0"/>
  </clipPath>
 </defs>
</svg>
