<?xml version="1.0" encoding="utf-8" standalone="no"?>
<!DOCTYPE svg PUBLIC "-//W3C//DTD SVG 1.1//EN"
  "http://www.w3.org/Graphics/SVG/1.1/DTD/svg11.dtd">
<!-- Created with matplotlib (http://matplotlib.org/) -->
<svg height="72pt" version="1.1" viewBox="0 0 72 72" width="72pt" xmlns="http://www.w3.org/2000/svg" xmlns:xlink="http://www.w3.org/1999/xlink">
 <defs>
  <style type="text/css">
*{stroke-linecap:butt;stroke-linejoin:round;}
  </style>
 </defs>
 <g id="figure_1">
  <g id="patch_1">
   <path d="
M0 72
L72 72
L72 0
L0 0
z
" style="fill:none;"/>
  </g>
  <g id="axes_1">
   <g id="PatchCollection_1">
    <defs>
     <path d="
M36 -7.5
C43.5583 -7.5 50.808 -10.5029 56.1525 -15.8475
C61.4971 -21.192 64.5 -28.4417 64.5 -36
C64.5 -43.5583 61.4971 -50.808 56.1525 -56.1525
C50.808 -61.4971 43.5583 -64.5 36 -64.5
C28.4417 -64.5 21.192 -61.4971 15.8475 -56.1525
C10.5029 -50.808 7.5 -43.5583 7.5 -36
C7.5 -28.4417 10.5029 -21.192 15.8475 -15.8475
C21.192 -10.5029 28.4417 -7.5 36 -7.5
z
" id="C0_0_a811fe30f3"/>
     <path d="
M55.9057 -15.7498
L55.7187 -15.8925
L55.5226 -16.0291
L55.318 -16.1598
L55.1054 -16.2852
L54.8852 -16.4055
L54.6581 -16.5211
L54.4244 -16.6325
L54.1847 -16.7399
L53.9394 -16.8438
L53.689 -16.9444
L53.4339 -17.0421
L53.1745 -17.1372
L52.9112 -17.23
L52.6443 -17.3207
L52.3743 -17.4096
L52.1015 -17.4969
L51.8261 -17.5828
L51.5485 -17.6676
L51.2689 -17.7514
L50.9877 -17.8343
L50.705 -17.9167
L50.4211 -17.9984
L50.1363 -18.0798
L49.8506 -18.1609
L49.5644 -18.2419
L49.2777 -18.3227
L48.9908 -18.4035
L48.7037 -18.4844
L48.4167 -18.5655
L48.1299 -18.6467
L47.8433 -18.7282
L47.5571 -18.81
L47.2713 -18.8922
L46.9861 -18.9747
L46.7016 -19.0576
L46.4177 -19.141
L46.1347 -19.2248
L45.8524 -19.3091
L45.5711 -19.394
L45.2906 -19.4793
L45.0111 -19.5651
L44.7326 -19.6516
L44.4552 -19.7385
L44.1787 -19.826
L43.9033 -19.9141
L43.629 -20.0028
L43.3558 -20.092
L43.0836 -20.1819
L42.8125 -20.2723
L42.5425 -20.3633
L42.2736 -20.4549
L42.0058 -20.5472
L41.739 -20.64
L41.4732 -20.7335
L41.2085 -20.8275
L40.9448 -20.9222
L40.6821 -21.0175
L40.4204 -21.1135
L40.1597 -21.2101
L39.8999 -21.3073
L39.6409 -21.4052
L39.3829 -21.5037
L39.1257 -21.6029
L38.8694 -21.7027
L38.6138 -21.8033
L38.3591 -21.9045
L38.105 -22.0064
L37.8517 -22.1089
L37.599 -22.2122
L37.347 -22.3163
L37.0956 -22.421
L36.8447 -22.5265
L36.5944 -22.6327
L36.3447 -22.7397
L36.0953 -22.8475
L35.8464 -22.956
L35.598 -23.0654
L35.3498 -23.1755
L35.1021 -23.2865
L34.6073 -23.3983
L34.3603 -23.511
L34.1135 -23.6246
L33.8668 -23.739
L33.6203 -23.8543
L33.3738 -23.9706
L33.1274 -24.0878
L32.881 -24.2059
L32.6346 -24.325
L32.3881 -24.4451
L32.1415 -24.5662
L31.8948 -24.6883
L31.648 -24.8115
L31.4009 -24.9357
L31.1536 -25.061
L30.9061 -25.1874
L30.6583 -25.3149
L30.4102 -25.4435
L30.1617 -25.5733
L29.9128 -25.7042
L29.6636 -25.8364
L29.4139 -25.9697
L29.1637 -26.1042
L28.9131 -26.24
L28.6619 -26.3771
L28.4102 -26.5154
L28.158 -26.655
L27.9051 -26.7958
L27.6517 -26.938
L27.3976 -27.0815
L27.1429 -27.2264
L26.8875 -27.3725
L26.6314 -27.52
L26.3747 -27.6689
L26.1172 -27.8191
L25.8591 -27.9707
L25.6002 -28.1236
L25.3405 -28.2779
L25.0801 -28.4335
L24.819 -28.5905
L24.5572 -28.7487
L24.2945 -28.9083
L24.0312 -29.0691
L23.7671 -29.2312
L23.5022 -29.3946
L23.2367 -29.5591
L22.9704 -29.7247
L22.7034 -29.8915
L22.4357 -30.0593
L22.1674 -30.2281
L21.8984 -30.3977
L21.6288 -30.5683
L21.3586 -30.7395
L21.0878 -30.9115
L20.8165 -31.0839
L20.5447 -31.2568
L20.2724 -31.43
L19.9997 -31.6034
L19.7266 -31.7768
L19.4531 -31.95
L19.1794 -32.1229
L18.9054 -32.2952
L18.6312 -32.4668
L18.3568 -32.6374
L18.0823 -32.8068
L17.8077 -32.9747
L17.5332 -33.1409
L17.2587 -33.3049
L16.9843 -33.4666
L16.7101 -33.6255
L16.4361 -33.7814
L16.1623 -33.9338
L15.8889 -34.0823
L15.6159 -34.2265
L15.3434 -34.366
L15.0713 -34.5003
L14.7999 -34.6289
L14.529 -34.7515
L14.2589 -34.8674
L13.9896 -34.9762
L13.7211 -35.0774
L13.4535 -35.1705
L13.1869 -35.2549
L12.9215 -35.3301
L12.6572 -35.3958
L12.3942 -35.4513
L12.1327 -35.4963
L11.8726 -35.5303
L11.6143 -35.553
L11.3577 -35.5638
L11.1031 -35.5626
L10.8506 -35.549
L10.6004 -35.5228
L10.3527 -35.4837
L10.1077 -35.4316
L9.86556 -35.3665
L9.62654 -35.2882
L9.39084 -35.1967
L9.15869 -35.092
L8.93033 -34.9743
L8.706 -34.8436
L8.48594 -34.7
L8.27038 -34.5438
L8.05956 -34.3752
L7.85373 -34.1944
L7.65311 -34.0016
L7.62853 -33.7971
L7.68004 -33.2963
L7.74017 -32.8016
L7.80891 -32.3078
L7.88624 -31.8152
L7.97213 -31.3238
L8.06656 -30.8339
L8.1695 -30.3455
L8.28092 -29.8589
L8.40078 -29.3741
L8.52904 -28.8914
L8.66568 -28.4108
L8.81064 -27.9325
L8.96388 -27.4567
L9.12536 -26.9834
L9.29502 -26.513
L9.47282 -26.0454
L9.6587 -25.5808
L9.85261 -25.1195
L10.0545 -24.6614
L10.2642 -24.2068
L10.4819 -23.7558
L10.7072 -23.3085
L10.9403 -22.8651
L11.1811 -22.4257
L11.4293 -21.9904
L11.6851 -21.5594
L11.9483 -21.1327
L12.2188 -20.7106
L12.4965 -20.2932
L12.7814 -19.8806
L13.0734 -19.4728
L13.3724 -19.0701
L13.6782 -18.6726
L13.9909 -18.2803
L14.3102 -17.8934
L14.6362 -17.5121
L14.9686 -17.1364
L15.3075 -16.7664
L15.6527 -16.4023
L16.0041 -16.0441
L16.3615 -15.692
L16.725 -15.3462
L17.0943 -15.0066
L17.4694 -14.6734
L17.8501 -14.3467
L18.2364 -14.0266
L18.628 -13.7132
L19.025 -13.4065
L19.4271 -13.1068
L19.8343 -12.814
L20.2464 -12.5283
L20.6633 -12.2498
L21.0849 -11.9784
L21.511 -11.7144
L21.9415 -11.4578
L22.3763 -11.2087
L22.8153 -10.9671
L23.2582 -10.7332
L23.7051 -10.5069
L24.1557 -10.2884
L24.6099 -10.0778
L25.0676 -9.87499
L25.5286 -9.68019
L25.9928 -9.4934
L26.46 -9.31469
L26.9302 -9.1441
L27.4031 -8.9817
L27.8786 -8.82752
L28.3567 -8.68162
L28.837 -8.54405
L29.3195 -8.41483
L29.8041 -8.29402
L30.2905 -8.18165
L30.7787 -8.07776
L31.2685 -7.98236
L31.7597 -7.89551
L32.2522 -7.81721
L32.7458 -7.7475
L33.2405 -7.68639
L33.7359 -7.63391
L34.2321 -7.59007
L34.7288 -7.55489
L35.2259 -7.52836
L35.7232 -7.51051
L36.2206 -7.50134
L36.718 -7.50085
L37.2151 -7.50905
L37.7119 -7.52591
L38.2081 -7.55146
L38.7037 -7.58567
L39.1984 -7.62853
L39.6922 -7.68004
L40.1848 -7.74017
L40.6762 -7.80891
L41.1661 -7.88624
L41.6545 -7.97213
L42.1411 -8.06656
L42.6259 -8.1695
L43.1086 -8.28092
L43.5892 -8.40078
L44.0675 -8.52904
L44.5433 -8.66568
L45.0166 -8.81064
L45.487 -8.96388
L45.9546 -9.12536
L46.4192 -9.29502
L46.8805 -9.47282
L47.3386 -9.6587
L47.7932 -9.85261
L48.2442 -10.0545
L48.6915 -10.2642
L49.1349 -10.4819
L49.5743 -10.7072
L50.0096 -10.9403
L50.4406 -11.1811
L50.8673 -11.4293
L51.2894 -11.6851
L51.7068 -11.9483
L52.1194 -12.2188
L52.5272 -12.4965
L52.9299 -12.7814
L53.3274 -13.0734
L53.7197 -13.3724
L54.1066 -13.6782
L54.4879 -13.9909
L54.8636 -14.3102
L55.2336 -14.6362
L55.5977 -14.9686
z
" id="C0_1_0c6c5bd3db"/>
     <path d="
M64.2537 -38.3942
L64.0239 -38.5804
L63.7925 -38.7712
L63.5593 -38.9661
L63.3245 -39.1645
L63.088 -39.3661
L62.8499 -39.5702
L62.6102 -39.7765
L62.369 -39.9845
L62.1263 -40.1938
L61.8822 -40.4041
L61.6367 -40.615
L61.39 -40.8262
L61.1419 -41.0374
L60.8927 -41.2484
L60.6424 -41.4589
L60.3911 -41.6686
L60.1387 -41.8775
L59.8854 -42.0852
L59.6313 -42.2917
L59.3764 -42.4967
L59.1207 -42.7002
L58.8644 -42.9019
L58.6075 -43.1019
L58.35 -43.3001
L58.092 -43.4962
L57.8335 -43.6903
L57.5746 -43.8823
L57.3154 -44.0722
L57.0559 -44.2599
L56.7961 -44.4453
L56.536 -44.6285
L56.2758 -44.8094
L56.0154 -44.9879
L55.7548 -45.1642
L55.4942 -45.3382
L55.2334 -45.5098
L54.9726 -45.6791
L54.7117 -45.8461
L54.4508 -46.0108
L54.1898 -46.1732
L53.9289 -46.3333
L53.6679 -46.4912
L53.407 -46.6468
L53.146 -46.8002
L52.8851 -46.9513
L52.6241 -47.1004
L52.3632 -47.2472
L52.1022 -47.3919
L51.8413 -47.5345
L51.5803 -47.6751
L51.3193 -47.8136
L51.0582 -47.95
L50.7971 -48.0845
L50.5359 -48.217
L50.2746 -48.3475
L50.0133 -48.4762
L49.7517 -48.6029
L49.4901 -48.7278
L49.2282 -48.8509
L48.9662 -48.9721
L48.7039 -49.0916
L48.4414 -49.2093
L48.1787 -49.3252
L47.9156 -49.4395
L47.6522 -49.5521
L47.3884 -49.663
L47.1242 -49.7723
L46.8597 -49.88
L46.5946 -49.986
L46.3291 -50.0905
L46.0631 -50.1935
L45.7965 -50.2949
L45.5293 -50.3947
L45.2615 -50.4931
L44.993 -50.59
L44.7238 -50.6854
L44.4539 -50.7793
L44.1833 -50.8718
L43.9118 -50.9629
L43.6395 -51.0525
L43.3663 -51.1408
L43.0922 -51.2276
L42.8171 -51.313
L42.541 -51.3971
L42.2639 -51.4797
L41.9858 -51.561
L41.7065 -51.6409
L41.4261 -51.7195
L41.1445 -51.7967
L40.8617 -51.8725
L40.5776 -51.947
L40.2922 -52.0201
L40.0055 -52.0919
L39.7175 -52.1623
L39.428 -52.2313
L39.1371 -52.299
L38.8448 -52.3653
L38.551 -52.4303
L38.2556 -52.4938
L37.9587 -52.556
L37.6601 -52.6168
L37.36 -52.6763
L37.0583 -52.7343
L36.7549 -52.7909
L36.4498 -52.8461
L36.143 -52.8998
L35.8345 -52.9522
L35.5242 -53.0031
L35.2123 -53.0525
L34.8986 -53.1005
L34.5831 -53.1471
L34.2659 -53.1922
L33.9469 -53.2358
L33.6262 -53.2779
L33.3037 -53.3186
L32.9795 -53.3578
L32.6536 -53.3955
L32.3261 -53.4317
L31.9969 -53.4665
L31.6661 -53.4998
L31.3337 -53.5316
L30.9998 -53.5621
L30.6644 -53.5911
L30.3276 -53.6187
L29.9895 -53.645
L29.6501 -53.6699
L29.3096 -53.6935
L28.968 -53.7159
L28.6254 -53.7371
L28.282 -53.7572
L27.9378 -53.7763
L27.593 -53.7944
L27.2478 -53.8116
L26.9022 -53.828
L26.5566 -53.8438
L26.2109 -53.8591
L25.8655 -53.874
L25.5206 -53.8887
L25.1762 -53.9033
L24.8328 -53.918
L24.4904 -53.9331
L24.1494 -53.9488
L23.8101 -53.9653
L23.4726 -53.9828
L23.1373 -54.0017
L22.8045 -54.0222
L22.4745 -54.0446
L22.1476 -54.0692
L21.8241 -54.0965
L21.5043 -54.1267
L21.1887 -54.1602
L20.8775 -54.1974
L20.5711 -54.2386
L20.2699 -54.2842
L19.9741 -54.3347
L19.6843 -54.3904
L19.4006 -54.4516
L19.1234 -54.5187
L18.8532 -54.5921
L18.5901 -54.672
L18.3345 -54.7589
L18.0868 -54.8528
L17.8472 -54.9542
L17.616 -55.0631
L17.3934 -55.1798
L17.1797 -55.3043
L16.9751 -55.4368
L16.7797 -55.5774
L16.5939 -55.7259
L16.4176 -55.8824
L16.2512 -56.0468
L16.3631 -56.219
L16.7266 -56.6553
L17.0959 -56.9949
L17.471 -57.3281
L17.8518 -57.6547
L18.2381 -57.9748
L18.6298 -58.2882
L19.0267 -58.5948
L19.4289 -58.8945
L19.8361 -59.1872
L20.2482 -59.4729
L20.6651 -59.7514
L21.0867 -60.0227
L21.5129 -60.2867
L21.9434 -60.5433
L22.3782 -60.7924
L22.8172 -61.0339
L23.2602 -61.2678
L23.7071 -61.4941
L24.1577 -61.7125
L24.6119 -61.9231
L25.0696 -62.1259
L25.5306 -62.3206
L25.9948 -62.5074
L26.4621 -62.6861
L26.9323 -62.8566
L27.4052 -63.019
L27.8807 -63.1731
L28.3588 -63.319
L28.8391 -63.4565
L29.3216 -63.5857
L29.8062 -63.7065
L30.2926 -63.8188
L30.7808 -63.9227
L31.2706 -64.018
L31.7618 -64.1049
L32.2543 -64.1831
L32.748 -64.2528
L33.2426 -64.3139
L33.7381 -64.3663
L34.2343 -64.4101
L34.731 -64.4452
L35.2281 -64.4717
L35.7254 -64.4895
L36.2228 -64.4987
L36.7202 -64.4991
L37.2173 -64.4909
L37.714 -64.474
L38.2103 -64.4484
L38.7058 -64.4142
L39.2006 -64.3713
L39.6943 -64.3197
L40.187 -64.2595
L40.6783 -64.1908
L41.1683 -64.1134
L41.6566 -64.0275
L42.1432 -63.933
L42.628 -63.83
L43.1108 -63.7186
L43.5913 -63.5987
L44.0696 -63.4704
L44.5454 -63.3337
L45.0186 -63.1887
L45.4891 -63.0354
L45.9567 -62.8739
L46.4212 -62.7042
L46.8826 -62.5264
L47.3406 -62.3405
L47.7952 -62.1465
L48.2462 -61.9446
L48.6935 -61.7348
L49.1369 -61.5172
L49.5763 -61.2918
L50.0115 -61.0586
L50.4425 -60.8179
L50.8691 -60.5696
L51.2912 -60.3138
L51.7086 -60.0506
L52.1212 -59.78
L52.5289 -59.5023
L52.9316 -59.2173
L53.3292 -58.9253
L53.7214 -58.6263
L54.1082 -58.3204
L54.4896 -58.0078
L54.8653 -57.6884
L55.2352 -57.3624
L55.5993 -57.0299
L55.9574 -56.691
L56.3095 -56.3458
L56.6553 -55.9944
L56.9949 -55.6369
L57.3281 -55.2734
L57.6547 -54.9041
L57.9748 -54.529
L58.2882 -54.1482
L58.5948 -53.7619
L58.8945 -53.3702
L59.1872 -52.9733
L59.4729 -52.5711
L59.7514 -52.1639
L60.0227 -51.7518
L60.2867 -51.3349
L60.5433 -50.9133
L60.7924 -50.4871
L61.0339 -50.0566
L61.2678 -49.6218
L61.4941 -49.1828
L61.7125 -48.7398
L61.9231 -48.2929
L62.1259 -47.8423
L62.3206 -47.3881
L62.5074 -46.9304
L62.6861 -46.4694
L62.8566 -46.0052
L63.019 -45.5379
L63.1731 -45.0677
L63.319 -44.5948
L63.4565 -44.1193
L63.5857 -43.6412
L63.7065 -43.1609
L63.8188 -42.6784
L63.9227 -42.1938
L64.018 -41.7074
L64.1049 -41.2192
L64.1831 -40.7294
L64.2528 -40.2382
L64.3139 -39.7457
z
" id="C0_2_75f552c6e6"/>
    </defs>
    <g clip-path="url(#p1bffca34e9)">
     <use style="fill:#ff0000;stroke:#000000;stroke-width:2.0;" x="0.0" xlink:href="#C0_0_a811fe30f3" y="72.0"/>
    </g>
    <g clip-path="url(#p1bffca34e9)">
     <use style="fill:#ffffff;stroke:#000000;stroke-width:2.0;" x="0.0" xlink:href="#C0_1_0c6c5bd3db" y="72.0"/>
    </g>
    <g clip-path="url(#p1bffca34e9)">
     <use style="fill:#ffffff;stroke:#000000;stroke-width:2.0;" x="0.0" xlink:href="#C0_2_75f552c6e6" y="72.0"/>
    </g>
   </g>
  </g>
 </g>
 <defs>
  <clipPath id="p1bffca34e9">
   <rect height="72.0" width="72.0" x="0.0" y="0.0"/>
  </clipPath>
 </defs>
</svg>
