<?xml version="1.0" encoding="utf-8" standalone="no"?>
<!DOCTYPE svg PUBLIC "-//W3C//DTD SVG 1.1//EN"
  "http://www.w3.org/Graphics/SVG/1.1/DTD/svg11.dtd">
<!-- Created with matplotlib (http://matplotlib.org/) -->
<svg height="72pt" version="1.1" viewBox="0 0 72 72" width="72pt" xmlns="http://www.w3.org/2000/svg" xmlns:xlink="http://www.w3.org/1999/xlink">
 <defs>
  <style type="text/css">
*{stroke-linecap:butt;stroke-linejoin:round;}
  </style>
 </defs>
 <g id="figure_1">
  <g id="patch_1">
   <path d="
M0 72
L72 72
L72 0
L0 0
z
" style="fill:none;"/>
  </g>
  <g id="axes_1">
   <g id="PatchCollection_1">
    <defs>
     <path d="
M36 -7.5
C43.5583 -7.5 50.808 -10.5029 56.1525 -15.8475
C61.4971 -21.192 64.5 -28.4417 64.5 -36
C64.5 -43.5583 61.4971 -50.808 56.1525 -56.1525
C50.808 -61.4971 43.5583 -64.5 36 -64.5
C28.4417 -64.5 21.192 -61.4971 15.8475 -56.1525
C10.5029 -50.808 7.5 -43.5583 7.5 -36
C7.5 -28.4417 10.5029 -21.192 15.8475 -15.8475
C21.192 -10.5029 28.4417 -7.5 36 -7.5
z
" id="C0_0_a811fe30f3"/>
     <path d="
M9.16093 -45.1703
L9.44186 -45.4546
L9.72611 -45.714
L10.0128 -45.9477
L10.3012 -46.1549
L10.5904 -46.3351
L10.8799 -46.4881
L11.169 -46.6139
L11.4571 -46.7127
L11.7439 -46.7852
L12.029 -46.832
L12.3122 -46.8541
L12.5934 -46.8529
L12.8726 -46.8295
L13.1497 -46.7854
L13.4248 -46.7221
L13.698 -46.6412
L13.9694 -46.544
L14.2391 -46.4321
L14.5073 -46.3069
L14.7741 -46.1697
L15.0397 -46.0217
L15.3041 -45.8642
L15.5674 -45.6982
L15.8297 -45.5247
L16.0911 -45.3446
L16.3516 -45.1589
L16.6113 -44.9681
L16.8701 -44.7731
L17.1281 -44.5745
L17.3853 -44.3728
L17.6417 -44.1685
L17.8972 -43.9621
L18.1519 -43.7541
L18.4058 -43.5447
L18.6587 -43.3345
L18.9107 -43.1235
L19.1617 -42.9122
L19.4118 -42.7008
L19.6608 -42.4894
L19.9088 -42.2784
L20.1558 -42.0677
L20.4016 -41.8577
L20.6463 -41.6485
L20.8898 -41.4401
L21.1322 -41.2327
L21.3734 -41.0263
L21.6135 -40.8211
L21.8523 -40.6171
L22.0899 -40.4143
L22.3263 -40.2129
L22.5614 -40.0128
L22.7953 -39.8142
L23.028 -39.6169
L23.2595 -39.421
L23.4898 -39.2267
L23.7189 -39.0337
L23.9468 -38.8422
L24.1735 -38.6522
L24.399 -38.4636
L24.6234 -38.2765
L24.8467 -38.0908
L25.0689 -37.9065
L25.29 -37.7236
L25.51 -37.5421
L25.729 -37.3619
L25.947 -37.1831
L26.1641 -37.0056
L26.3801 -36.8294
L26.5953 -36.6544
L26.8096 -36.4806
L27.0231 -36.3081
L27.2357 -36.1367
L27.4476 -35.9665
L27.6587 -35.7973
L27.8691 -35.6292
L28.0788 -35.4622
L28.2879 -35.2962
L28.4964 -35.1311
L28.7044 -34.967
L28.9118 -34.8037
L29.1187 -34.6414
L29.3253 -34.4798
L29.5314 -34.3191
L29.7371 -34.1591
L29.9426 -33.9999
L30.1477 -33.8413
L30.3526 -33.6834
L30.5574 -33.5262
L30.7619 -33.3695
L30.9664 -33.2133
L31.1708 -33.0577
L31.3752 -32.9026
L31.5796 -32.7479
L31.7841 -32.5937
L31.9887 -32.4398
L32.3983 -32.2863
L32.6035 -32.1331
L32.8089 -31.9801
L33.0147 -31.8275
L33.2209 -31.675
L33.4274 -31.5227
L33.6345 -31.3706
L33.842 -31.2186
L34.0501 -31.0667
L34.2588 -30.9149
L34.4681 -30.763
L34.6781 -30.6112
L34.8889 -30.4593
L35.1004 -30.3074
L35.3128 -30.1554
L35.526 -30.0032
L35.7402 -29.8509
L35.9553 -29.6984
L36.1714 -29.5457
L36.3886 -29.3927
L36.6069 -29.2395
L36.8263 -29.0859
L37.0469 -28.932
L37.2687 -28.7778
L37.4918 -28.6232
L37.7162 -28.4682
L37.942 -28.3127
L38.1692 -28.1568
L38.3978 -28.0004
L38.6278 -27.8434
L38.8594 -27.686
L39.0926 -27.528
L39.3273 -27.3693
L39.5636 -27.2101
L39.8016 -27.0503
L40.0413 -26.8898
L40.2827 -26.7287
L40.5258 -26.5669
L40.7706 -26.4043
L41.0173 -26.2411
L41.2657 -26.0771
L41.5159 -25.9123
L41.7679 -25.7468
L42.0217 -25.5805
L42.2773 -25.4134
L42.5347 -25.2455
L42.7939 -25.0768
L43.0548 -24.9073
L43.3175 -24.7369
L43.5818 -24.5657
L43.8478 -24.3936
L44.1154 -24.2206
L44.3845 -24.0468
L44.655 -23.872
L44.9269 -23.6964
L45.2 -23.5199
L45.4743 -23.3425
L45.7495 -23.1641
L46.0256 -22.9848
L46.3024 -22.8045
L46.5796 -22.6232
L46.8571 -22.441
L47.1346 -22.2576
L47.4119 -22.0732
L47.6886 -21.8877
L47.9645 -21.701
L48.2391 -21.513
L48.5121 -21.3237
L48.783 -21.133
L49.0514 -20.9407
L49.3166 -20.7468
L49.5781 -20.551
L49.8352 -20.3533
L50.0873 -20.1533
L50.3335 -19.9509
L50.5731 -19.7458
L50.8049 -19.5376
L51.0282 -19.3261
L51.2418 -19.1109
L51.4444 -18.8916
L51.6351 -18.6676
L51.8123 -18.4386
L51.9748 -18.204
L52.1212 -17.9634
L52.2502 -17.7162
L52.3603 -17.4619
L52.4502 -17.2002
L52.5186 -16.9305
L52.5645 -16.6526
L52.5868 -16.3663
L52.5847 -16.0715
L52.5576 -15.7683
L52.5052 -15.457
L52.4272 -15.1379
L52.3238 -14.8117
L52.1952 -14.4789
L52.0418 -14.1405
L51.8644 -13.7974
L51.6636 -13.4505
L51.4403 -13.1009
L51.1955 -12.7498
L50.9302 -12.3981
L50.6454 -12.047
L50.2821 -11.6976
L49.8495 -11.3368
L49.4126 -11.0913
L48.9717 -10.8534
L48.5269 -10.6231
L48.0782 -10.4006
L47.6258 -10.1859
L47.1699 -9.97904
L46.7106 -9.7801
L46.2481 -9.58916
L45.7824 -9.40625
L45.3137 -9.23145
L44.8422 -9.0648
L44.368 -8.90636
L43.8913 -8.75617
L43.4121 -8.61427
L42.9307 -8.48072
L42.4472 -8.35555
L41.9617 -8.23881
L41.4744 -8.13052
L40.9854 -8.03072
L40.495 -7.93943
L40.0031 -7.8567
L39.51 -7.78254
L39.0159 -7.71697
L38.5208 -7.66002
L38.025 -7.6117
L37.5286 -7.57203
L37.0316 -7.54102
L36.5344 -7.51868
L36.037 -7.50501
L35.5396 -7.50002
L35.0424 -7.50372
L34.5454 -7.51609
L34.0489 -7.53714
L33.553 -7.56687
L33.0578 -7.60525
L32.5635 -7.65228
L32.0702 -7.70795
L31.5782 -7.77223
L31.0875 -7.84511
L30.5983 -7.92657
L30.1107 -8.01658
L29.625 -8.11512
L29.1412 -8.22215
L28.6594 -8.33764
L28.1799 -8.46155
L27.7028 -8.59386
L27.2282 -8.73451
L26.7563 -8.88347
L26.2872 -9.04069
L25.8211 -9.20612
L25.3581 -9.37971
L24.8983 -9.56141
L24.4418 -9.75116
L23.989 -9.94891
L23.5397 -10.1546
L23.0943 -10.3682
L22.6528 -10.5895
L22.2153 -10.8186
L21.7821 -11.0554
L21.3532 -11.2998
L20.9287 -11.5517
L20.5089 -11.811
L20.0937 -12.0777
L19.6834 -12.3517
L19.2781 -12.6329
L18.8779 -12.9213
L18.4828 -13.2166
L18.0932 -13.5189
L17.7089 -13.8281
L17.3303 -14.1439
L16.9573 -14.4665
L16.5901 -14.7956
L16.2289 -15.1312
L15.8737 -15.4731
L15.5246 -15.8213
L15.1817 -16.1756
L14.8452 -16.536
L14.5151 -16.9023
L14.1916 -17.2744
L13.8747 -17.6522
L13.5645 -18.0356
L13.2612 -18.4245
L12.9648 -18.8187
L12.6754 -19.2182
L12.3932 -19.6227
L12.1181 -20.0323
L11.8503 -20.4467
L11.5898 -20.8659
L11.3368 -21.2897
L11.0913 -21.7179
L10.8534 -22.1505
L10.6231 -22.5874
L10.4006 -23.0283
L10.1859 -23.4731
L9.97904 -23.9218
L9.7801 -24.3742
L9.58916 -24.8301
L9.40625 -25.2894
L9.23145 -25.7519
L9.0648 -26.2176
L8.90636 -26.6863
L8.75617 -27.1578
L8.61427 -27.632
L8.48072 -28.1087
L8.35555 -28.5879
L8.23881 -29.0693
L8.13052 -29.5528
L8.03072 -30.0383
L7.93943 -30.5256
L7.8567 -31.0146
L7.78254 -31.505
L7.71697 -31.9969
L7.66002 -32.49
L7.6117 -32.9841
L7.57203 -33.4792
L7.54102 -33.975
L7.51868 -34.4714
L7.50501 -34.9684
L7.50002 -35.4656
L7.50372 -35.963
L7.51609 -36.4604
L7.53714 -36.9576
L7.56687 -37.4546
L7.60525 -37.9511
L7.65228 -38.447
L7.70795 -38.9422
L7.77223 -39.4365
L7.84511 -39.9298
L7.92657 -40.4218
L8.01658 -40.9125
L8.11512 -41.4017
L8.22215 -41.8893
L8.33764 -42.375
L8.46155 -42.8588
L8.59386 -43.3406
L8.73451 -43.8201
z
" id="C0_1_594521f591"/>
     <path d="
M21.6762 -60.6179
L22.1329 -60.7177
L22.5943 -60.816
L23.0597 -60.9117
L23.5283 -61.0043
L23.9994 -61.0931
L24.4723 -61.1775
L24.9464 -61.257
L25.4212 -61.3313
L25.8961 -61.4
L26.3705 -61.463
L26.8441 -61.5199
L27.3164 -61.5706
L27.787 -61.6151
L28.2555 -61.6533
L28.7216 -61.6851
L29.1851 -61.7106
L29.6456 -61.7297
L30.1029 -61.7426
L30.5568 -61.7493
L31.0071 -61.7499
L31.4536 -61.7445
L31.8962 -61.7332
L32.3348 -61.7162
L32.7692 -61.6935
L33.1993 -61.6653
L33.6251 -61.6317
L34.0465 -61.5928
L34.4635 -61.5489
L34.8759 -61.5001
L35.2839 -61.4464
L35.6874 -61.388
L36.0863 -61.3251
L36.4807 -61.2579
L36.8707 -61.1863
L37.2561 -61.1106
L37.6371 -61.0309
L38.0137 -60.9473
L38.3859 -60.8599
L38.7537 -60.7688
L39.1173 -60.6741
L39.4767 -60.576
L39.8319 -60.4746
L40.1829 -60.3698
L40.53 -60.2619
L40.873 -60.1509
L41.2121 -60.0369
L41.5473 -59.9199
L41.8788 -59.8
L42.2066 -59.6774
L42.5307 -59.5519
L42.8512 -59.4238
L43.1683 -59.2931
L43.4819 -59.1597
L43.7921 -59.0239
L44.0991 -58.8855
L44.4028 -58.7446
L44.7034 -58.6013
L45.001 -58.4556
L45.2955 -58.3075
L45.5871 -58.157
L45.8758 -58.0042
L46.1617 -57.8491
L46.4449 -57.6917
L46.7254 -57.5319
L47.0033 -57.3699
L47.2786 -57.2055
L47.5515 -57.0389
L47.8219 -56.8699
L48.0899 -56.6987
L48.3557 -56.5251
L48.6192 -56.3492
L48.8804 -56.1709
L49.1395 -55.9903
L49.3965 -55.8073
L49.6515 -55.6219
L49.9044 -55.4341
L50.1554 -55.2438
L50.4044 -55.0511
L50.6516 -54.8558
L50.8969 -54.658
L51.1404 -54.4576
L51.3822 -54.2545
L51.6222 -54.0488
L51.8605 -53.8404
L52.0971 -53.6292
L52.3321 -53.4152
L52.5654 -53.1984
L52.7971 -52.9787
L53.0273 -52.7559
L53.2559 -52.5302
L53.4829 -52.3014
L53.7084 -52.0695
L53.9324 -51.8344
L54.1549 -51.596
L54.3758 -51.3542
L54.5952 -51.1091
L54.8132 -50.8605
L55.0295 -50.6084
L55.2444 -50.3527
L55.4578 -50.0932
L55.6695 -49.8301
L55.8797 -49.563
L56.0884 -49.2921
L56.2954 -49.0172
L56.5007 -48.7382
L56.7044 -48.455
L56.9064 -48.1677
L57.1066 -47.8759
L57.305 -47.5798
L57.5016 -47.2793
L57.6962 -46.9741
L57.8889 -46.6643
L58.0796 -46.3498
L58.2682 -46.0305
L58.4545 -45.7063
L58.6387 -45.3771
L58.8205 -45.043
L58.9999 -44.7037
L59.1767 -44.3593
L59.3509 -44.0096
L59.5224 -43.6547
L59.6911 -43.2944
L59.8568 -42.9288
L60.0195 -42.5578
L60.1789 -42.1813
L60.335 -41.7994
L60.4877 -41.412
L60.6368 -41.0191
L60.7821 -40.6207
L60.9236 -40.2169
L61.0611 -39.8078
L61.1944 -39.3933
L61.3234 -38.9735
L61.448 -38.5485
L61.568 -38.1185
L61.6833 -37.6836
L61.7938 -37.2439
L61.8994 -36.7996
L61.9999 -36.351
L62.0953 -35.8982
L62.1856 -35.4416
L62.2705 -34.9815
L62.3503 -34.5183
L62.4247 -34.0523
L62.494 -33.5839
L62.5581 -33.1137
L62.6172 -32.6422
L62.6714 -32.17
L62.721 -31.6977
L62.7663 -31.226
L62.8076 -30.7557
L62.8454 -30.2877
L62.8801 -29.8227
L62.9124 -29.3618
L62.9429 -28.9059
L62.9724 -28.4561
L63.0018 -28.0136
L63.032 -27.5794
L63.2403 -27.1548
L63.3824 -27.6205
L63.5161 -28.0972
L63.6415 -28.5762
L63.7585 -29.0576
L63.867 -29.5411
L63.967 -30.0265
L64.0585 -30.5138
L64.1414 -31.0027
L64.2158 -31.4931
L64.2815 -31.985
L64.3387 -32.478
L64.3872 -32.9721
L64.4271 -33.4672
L64.4583 -33.963
L64.4809 -34.4594
L64.4948 -34.9563
L64.5 -35.4535
L64.4965 -35.9509
L64.4843 -36.4483
L64.4635 -36.9456
L64.434 -37.4425
L64.3958 -37.9391
L64.349 -38.435
L64.2935 -38.9302
L64.2294 -39.4245
L64.1568 -39.9178
L64.0755 -40.4099
L63.9857 -40.9006
L63.8874 -41.3899
L63.7805 -41.8775
L63.6653 -42.3633
L63.5416 -42.8471
L63.4095 -43.3289
L63.269 -43.8085
L63.1202 -44.2856
L62.9632 -44.7603
L62.798 -45.2323
L62.6246 -45.7014
L62.4431 -46.1676
L62.2535 -46.6308
L62.056 -47.0906
L61.8505 -47.5471
L61.6371 -48.0001
L61.4159 -48.4494
L61.187 -48.895
L60.9504 -49.3366
L60.7062 -49.7741
L60.4545 -50.2075
L60.1954 -50.6365
L59.9288 -51.061
L59.655 -51.481
L59.374 -51.8963
L59.0858 -52.3067
L58.7906 -52.7121
L58.4885 -53.1125
L58.1795 -53.5076
L57.8638 -53.8974
L57.5414 -54.2818
L57.2124 -54.6606
L56.877 -55.0337
L56.5353 -55.401
L56.1872 -55.7624
L55.8331 -56.1178
L55.4728 -56.467
L55.1067 -56.8101
L54.7347 -57.1467
L54.357 -57.477
L53.9738 -57.8007
L53.585 -58.1177
L53.1909 -58.428
L52.7916 -58.7315
L52.3871 -59.0281
L51.9777 -59.3176
L51.5634 -59.6001
L51.1443 -59.8753
L50.7206 -60.1433
L50.2925 -60.4039
L49.86 -60.6571
L49.4233 -60.9028
L48.9825 -61.1409
L48.5377 -61.3714
L48.0891 -61.5941
L47.6368 -61.809
L47.181 -62.016
L46.7218 -62.2152
L46.2593 -62.4063
L45.7937 -62.5894
L45.3251 -62.7644
L44.8537 -62.9313
L44.3795 -63.0899
L43.9028 -63.2403
L43.4238 -63.3824
L42.9424 -63.5161
L42.4589 -63.6415
L41.9735 -63.7585
L41.4862 -63.867
L40.9973 -63.967
L40.5069 -64.0585
L40.015 -64.1414
L39.522 -64.2158
L39.0279 -64.2815
L38.5328 -64.3387
L38.037 -64.3872
L37.5406 -64.4271
L37.0437 -64.4583
L36.5465 -64.4809
L36.0491 -64.4948
L35.5517 -64.5
L35.0544 -64.4965
L34.5575 -64.4843
L34.0609 -64.4635
L33.565 -64.434
L33.0698 -64.3958
L32.5755 -64.349
L32.0822 -64.2935
L31.5901 -64.2294
L31.0994 -64.1568
L30.6101 -64.0755
L30.1225 -63.9857
L29.6367 -63.8874
L29.1529 -63.7805
L28.6711 -63.6653
L28.1915 -63.5416
L27.7144 -63.4095
L27.2397 -63.269
L26.7677 -63.1202
L26.2986 -62.9632
L25.8324 -62.798
L25.3692 -62.6246
L24.9094 -62.4431
L24.4529 -62.2535
L23.9999 -62.056
L23.5506 -61.8505
L23.105 -61.6371
L22.6634 -61.4159
L22.2259 -61.187
z
" id="C0_2_33d17b9dfd"/>
    </defs>
    <g clip-path="url(#p1bffca34e9)">
     <use style="fill:#ff0000;stroke:#000000;stroke-width:2.0;" x="0.0" xlink:href="#C0_0_a811fe30f3" y="72.0"/>
    </g>
    <g clip-path="url(#p1bffca34e9)">
     <use style="fill:#ffffff;stroke:#000000;stroke-width:2.0;" x="0.0" xlink:href="#C0_1_594521f591" y="72.0"/>
    </g>
    <g clip-path="url(#p1bffca34e9)">
     <use style="fill:#ffffff;stroke:#000000;stroke-width:2.0;" x="0.0" xlink:href="#C0_2_33d17b9dfd" y="72.0"/>
    </g>
   </g>
  </g>
 </g>
 <defs>
  <clipPath id="p1bffca34e9">
   <rect height="72.0" width="72.0" x="0.0" y="0.0"/>
  </clipPath>
 </defs>
</svg>
