<?xml version="1.0" encoding="utf-8" standalone="no"?>
<!DOCTYPE svg PUBLIC "-//W3C//DTD SVG 1.1//EN"
  "http://www.w3.org/Graphics/SVG/1.1/DTD/svg11.dtd">
<!-- Created with matplotlib (http://matplotlib.org/) -->
<svg height="72pt" version="1.1" viewBox="0 0 72 72" width="72pt" xmlns="http://www.w3.org/2000/svg" xmlns:xlink="http://www.w3.org/1999/xlink">
 <defs>
  <style type="text/css">
*{stroke-linecap:butt;stroke-linejoin:round;}
  </style>
 </defs>
 <g id="figure_1">
  <g id="patch_1">
   <path d="
M0 72
L72 72
L72 0
L0 0
z
" style="fill:none;"/>
  </g>
  <g id="axes_1">
   <g id="PatchCollection_1">
    <defs>
     <path d="
M36 -7.5
C43.5583 -7.5 50.808 -10.5029 56.1525 -15.8475
C61.4971 -21.192 64.5 -28.4417 64.5 -36
C64.5 -43.5583 61.4971 -50.808 56.1525 -56.1525
C50.808 -61.4971 43.5583 -64.5 36 -64.5
C28.4417 -64.5 21.192 -61.4971 15.8475 -56.1525
C10.5029 -50.808 7.5 -43.5583 7.5 -36
C7.5 -28.4417 10.5029 -21.192 15.8475 -15.8475
C21.192 -10.5029 28.4417 -7.5 36 -7.5
z
" id="C0_0_a811fe30f3"/>
     <path d="
M52.8309 -58.8758
L52.5594 -58.7931
L52.3081 -58.6864
L52.0765 -58.5566
L51.8643 -58.4048
L51.6705 -58.232
L51.494 -58.0397
L51.3337 -57.8293
L51.1881 -57.6021
L51.0559 -57.3597
L50.9356 -57.1035
L50.8259 -56.8349
L50.7254 -56.5553
L50.633 -56.2657
L50.5473 -55.9676
L50.4675 -55.6618
L50.3925 -55.3494
L50.3216 -55.0314
L50.2539 -54.7085
L50.1889 -54.3815
L50.126 -54.0511
L50.0646 -53.718
L50.0044 -53.3827
L49.945 -53.0458
L49.8861 -52.7077
L49.8274 -52.3688
L49.7686 -52.0295
L49.7097 -51.6902
L49.6504 -51.3511
L49.5907 -51.0126
L49.5303 -50.675
L49.4693 -50.3384
L49.4076 -50.003
L49.3451 -49.669
L49.2818 -49.3367
L49.2177 -49.006
L49.1527 -48.6772
L49.0869 -48.3504
L49.0202 -48.0256
L48.9526 -47.7029
L48.8842 -47.3825
L48.8149 -47.0643
L48.7448 -46.7483
L48.6739 -46.4347
L48.6022 -46.1235
L48.5297 -45.8146
L48.4565 -45.5081
L48.3825 -45.204
L48.3078 -44.9023
L48.2324 -44.6029
L48.1563 -44.3059
L48.0796 -44.0113
L48.0022 -43.719
L47.9242 -43.4289
L47.8456 -43.1412
L47.7663 -42.8556
L47.6865 -42.5723
L47.6062 -42.291
L47.5252 -42.012
L47.4437 -41.7349
L47.3617 -41.4599
L47.2792 -41.1869
L47.1961 -40.9158
L47.1125 -40.6466
L47.0284 -40.3792
L46.9437 -40.1136
L46.8586 -39.8497
L46.773 -39.5874
L46.6868 -39.3268
L46.6001 -39.0678
L46.513 -38.8102
L46.4253 -38.5541
L46.3371 -38.2994
L46.2483 -38.046
L46.1591 -37.7939
L46.0692 -37.543
L45.9789 -37.2933
L45.888 -37.0448
L45.7965 -36.7972
L45.7044 -36.5507
L45.6118 -36.3051
L45.5185 -36.0604
L45.4247 -35.8166
L45.3302 -35.5735
L45.235 -35.3311
L45.1392 -35.0894
L45.0428 -34.8484
L44.9456 -34.6079
L44.8477 -34.3678
L44.7491 -34.1283
L44.5496 -33.8891
L44.4486 -33.6503
L44.3468 -33.4118
L44.2442 -33.1735
L44.1408 -32.9354
L44.0364 -32.6974
L43.9311 -32.4596
L43.8249 -32.2217
L43.7177 -31.9838
L43.6095 -31.7459
L43.5003 -31.5078
L43.39 -31.2695
L43.2786 -31.0311
L43.1662 -30.7923
L43.0525 -30.5532
L42.9377 -30.3138
L42.8217 -30.0739
L42.7045 -29.8336
L42.5859 -29.5927
L42.4661 -29.3513
L42.3449 -29.1093
L42.2223 -28.8666
L42.0983 -28.6232
L41.9728 -28.3791
L41.8458 -28.1342
L41.7173 -27.8885
L41.5872 -27.6419
L41.4555 -27.3943
L41.3222 -27.1459
L41.1871 -26.8964
L41.0504 -26.6459
L40.9118 -26.3944
L40.7715 -26.1417
L40.6293 -25.888
L40.4852 -25.6331
L40.3392 -25.3769
L40.1912 -25.1196
L40.0412 -24.8611
L39.8892 -24.6012
L39.7351 -24.3401
L39.5789 -24.0777
L39.4206 -23.814
L39.2601 -23.549
L39.0974 -23.2826
L38.9326 -23.0149
L38.7654 -22.7458
L38.5961 -22.4755
L38.4245 -22.2038
L38.2506 -21.9307
L38.0744 -21.6564
L37.896 -21.3808
L37.7154 -21.1039
L37.5325 -20.8258
L37.3475 -20.5466
L37.1603 -20.2661
L36.971 -19.9846
L36.7797 -19.702
L36.5865 -19.4184
L36.3914 -19.1339
L36.1945 -18.8486
L35.9961 -18.5624
L35.7963 -18.2756
L35.5952 -17.9882
L35.393 -17.7002
L35.1901 -17.4118
L34.9867 -17.1231
L34.7831 -16.8342
L34.5798 -16.5451
L34.377 -16.2561
L34.1753 -15.9672
L33.9752 -15.6786
L33.7774 -15.3903
L33.5824 -15.1025
L33.3912 -14.8152
L33.2045 -14.5286
L33.0232 -14.2428
L32.8486 -13.9579
L32.6817 -13.674
L32.5238 -13.391
L32.3765 -13.1092
L32.2412 -12.8284
L32.1196 -12.5489
L32.0135 -12.2705
L31.9247 -11.9934
L31.8552 -11.7175
L31.8069 -11.4429
L31.7816 -11.1697
L31.781 -10.8979
L31.8068 -10.6276
L31.8602 -10.3591
L31.9423 -10.0926
L32.0538 -9.82833
L32.195 -9.56679
L32.3658 -9.30839
L32.5659 -9.05367
L32.7944 -8.80323
L33.0504 -8.55769
L33.3327 -8.31773
L33.6399 -8.084
L33.9704 -7.8572
L34.4622 -7.63798
L34.9591 -7.54152
L35.4563 -7.51902
L35.9537 -7.50519
L36.4511 -7.50004
L36.9484 -7.50357
L37.4453 -7.51578
L37.9419 -7.53667
L38.4378 -7.56623
L38.933 -7.60445
L39.4273 -7.65132
L39.9206 -7.70683
L40.4126 -7.77095
L40.9034 -7.84368
L41.3926 -7.92497
L41.8802 -8.01483
L42.366 -8.1132
L42.8498 -8.22007
L43.3316 -8.33541
L43.8111 -8.45916
L44.2883 -8.59131
L44.7629 -8.73181
L45.2349 -8.88061
L45.704 -9.03768
L46.1702 -9.20296
L46.6333 -9.3764
L47.0932 -9.55795
L47.5497 -9.74755
L48.0026 -9.94515
L48.4519 -10.1507
L48.8975 -10.3641
L49.339 -10.5853
L49.7766 -10.8143
L50.2099 -11.0509
L50.6389 -11.2952
L51.0634 -11.5469
L51.4834 -11.8061
L51.8986 -12.0727
L52.309 -12.3466
L52.7144 -12.6276
L53.1147 -12.9158
L53.5098 -13.211
L53.8996 -13.5132
L54.2839 -13.8222
L54.6627 -14.138
L55.0358 -14.4604
L55.4031 -14.7894
L55.7644 -15.1249
L56.1198 -15.4667
L56.469 -15.8147
L56.812 -16.169
L57.1486 -16.5292
L57.4788 -16.8954
L57.8025 -17.2674
L58.1195 -17.6451
L58.4298 -18.0284
L58.7332 -18.4172
L59.0297 -18.8113
L59.3192 -19.2107
L59.6016 -19.6152
L59.8769 -20.0246
L60.1448 -20.439
L60.4054 -20.858
L60.6585 -21.2817
L60.9042 -21.7099
L61.1422 -22.1424
L61.3726 -22.5792
L61.5953 -23.02
L61.8102 -23.4648
L62.0172 -23.9134
L62.2163 -24.3657
L62.4074 -24.8216
L62.5904 -25.2808
L62.7654 -25.7433
L62.9322 -26.2089
L63.0908 -26.6775
L63.2411 -27.149
L63.3832 -27.6231
L63.5169 -28.0998
L63.6422 -28.5789
L63.7591 -29.0603
L63.8675 -29.5438
L63.9675 -30.0292
L64.0589 -30.5165
L64.1418 -31.0054
L64.2162 -31.4959
L64.2819 -31.9877
L64.339 -32.4808
L64.3875 -32.9749
L64.4273 -33.4699
L64.4585 -33.9657
L64.481 -34.4622
L64.4948 -34.9591
L64.5 -35.4563
L64.4964 -35.9537
L64.4842 -36.4511
L64.4633 -36.9484
L64.4338 -37.4453
L64.3955 -37.9419
L64.3487 -38.4378
L64.2932 -38.933
L64.229 -39.4273
L64.1563 -39.9206
L64.075 -40.4126
L63.9852 -40.9034
L63.8868 -41.3926
L63.7799 -41.8802
L63.6646 -42.366
L63.5408 -42.8498
L63.4087 -43.3316
L63.2682 -43.8111
L63.1194 -44.2883
L62.9623 -44.7629
L62.797 -45.2349
L62.6236 -45.704
L62.4421 -46.1702
L62.2524 -46.6333
L62.0548 -47.0932
L61.8493 -47.5497
L61.6359 -48.0026
L61.4147 -48.4519
L61.1857 -48.8975
L60.9491 -49.339
L60.7048 -49.7766
L60.4531 -50.2099
L60.1939 -50.6389
L59.9273 -51.0634
L59.6534 -51.4834
L59.3724 -51.8986
L59.0842 -52.309
L58.789 -52.7144
L58.4868 -53.1147
L58.1778 -53.5098
L57.862 -53.8996
L57.5396 -54.2839
L57.2106 -54.6627
L56.8751 -55.0358
L56.5333 -55.4031
L56.1853 -55.7644
L55.831 -56.1198
L55.4708 -56.469
L55.1046 -56.812
L54.7326 -57.1486
L54.3549 -57.4788
L53.9716 -57.8025
L53.5828 -58.1195
z
" id="C0_1_29cfc0f67d"/>
     <path d="
M37.6628 -64.3285
L37.2768 -64.163
L36.8825 -63.9953
L36.4816 -63.8249
L36.0757 -63.6514
L35.6662 -63.4745
L35.2542 -63.2938
L34.841 -63.1093
L34.4276 -62.9206
L34.0149 -62.7279
L33.6036 -62.531
L33.1946 -62.33
L32.7884 -62.1248
L32.3856 -61.9157
L31.9868 -61.7026
L31.5922 -61.4857
L31.2024 -61.2652
L30.8175 -61.0412
L30.4379 -60.8139
L30.0638 -60.5834
L29.6954 -60.3499
L29.3327 -60.1136
L28.976 -59.8747
L28.6253 -59.6332
L28.2806 -59.3895
L27.9421 -59.1436
L27.6097 -58.8958
L27.2835 -58.6461
L26.9634 -58.3947
L26.6493 -58.1418
L26.3414 -57.8875
L26.0394 -57.632
L25.7434 -57.3752
L25.4533 -57.1175
L25.169 -56.8588
L24.8904 -56.5993
L24.6174 -56.339
L24.35 -56.0781
L24.0881 -55.8166
L23.8315 -55.5546
L23.5802 -55.2921
L23.334 -55.0293
L23.0929 -54.7662
L22.8568 -54.5027
L22.6256 -54.2391
L22.3991 -53.9752
L22.1773 -53.7112
L21.96 -53.447
L21.7473 -53.1827
L21.5389 -52.9183
L21.3347 -52.6538
L21.1348 -52.3892
L20.939 -52.1246
L20.7471 -51.8599
L20.5592 -51.5951
L20.3751 -51.3302
L20.1947 -51.0653
L20.018 -50.8002
L19.8449 -50.5351
L19.6753 -50.2698
L19.5091 -50.0044
L19.3463 -49.7388
L19.1867 -49.473
L19.0304 -49.207
L18.8773 -48.9408
L18.7272 -48.6743
L18.5802 -48.4075
L18.4361 -48.1403
L18.295 -47.8728
L18.1568 -47.6049
L18.0213 -47.3366
L17.8887 -47.0677
L17.7587 -46.7984
L17.6315 -46.5285
L17.5068 -46.2579
L17.3848 -45.9867
L17.2654 -45.7149
L17.1485 -45.4422
L17.0341 -45.1688
L16.9222 -44.8945
L16.8127 -44.6194
L16.7057 -44.3433
L16.6011 -44.0662
L16.4989 -43.788
L16.399 -43.5087
L16.3015 -43.2283
L16.2064 -42.9467
L16.1135 -42.6638
L16.0231 -42.3795
L15.9349 -42.0939
L15.8491 -41.8068
L15.7657 -41.5182
L15.6845 -41.2281
L15.6058 -40.9363
L15.5293 -40.6428
L15.4553 -40.3476
L15.3836 -40.0505
L15.3144 -39.7516
L15.2475 -39.4508
L15.1831 -39.1479
L15.1212 -38.843
L15.0618 -38.5359
L15.005 -38.2267
L14.9507 -37.9152
L14.8991 -37.6014
L14.8501 -37.2851
L14.8038 -36.9665
L14.7603 -36.6453
L14.7196 -36.3216
L14.6817 -35.9952
L14.6468 -35.6662
L14.6149 -35.3344
L14.5861 -34.9998
L14.5604 -34.6623
L14.5379 -34.3219
L14.5187 -33.9786
L14.5028 -33.6323
L14.4904 -33.2829
L14.4816 -32.9304
L14.4764 -32.5748
L14.4749 -32.216
L14.4772 -31.8541
L14.4835 -31.4889
L14.4938 -31.1205
L14.5082 -30.7488
L14.5269 -30.3739
L14.5499 -29.9957
L14.5774 -29.6142
L14.6095 -29.2295
L14.6463 -28.8416
L14.6878 -28.4505
L14.7343 -28.0563
L14.7858 -27.659
L14.8424 -27.2587
L14.9042 -26.8555
L14.9713 -26.4494
L15.0439 -26.0406
L15.1219 -25.6292
L15.2054 -25.2153
L15.2945 -24.7991
L15.3893 -24.3807
L15.4897 -23.9604
L15.5957 -23.5383
L15.7073 -23.1148
L15.8245 -22.69
L15.9471 -22.2643
L16.0751 -21.8378
L16.2081 -21.4111
L16.3461 -20.9844
L16.4887 -20.5581
L16.6356 -20.1326
L16.7864 -19.7084
L16.9405 -19.2859
L17.0973 -18.8656
L17.2562 -18.4481
L17.4164 -18.034
L17.5769 -17.6238
L17.7366 -17.2182
L17.8945 -16.8178
L18.0492 -16.4233
L18.1992 -16.0355
L18.3429 -15.655
L18.4787 -15.2826
L18.6047 -14.9191
L18.719 -14.5652
L18.8197 -14.2216
L18.905 -13.8891
L18.9731 -13.5683
L18.5539 -13.2597
L18.1632 -13.4637
L17.778 -13.7717
L17.3983 -14.0863
L17.0243 -14.4077
L16.6561 -14.7356
L16.2938 -15.07
L15.9374 -15.4108
L15.5872 -15.7579
L15.2432 -16.1111
L14.9055 -16.4704
L14.5743 -16.8356
L14.2496 -17.2067
L13.9315 -17.5835
L13.6201 -17.9659
L13.3155 -18.3538
L13.0179 -18.747
L12.7272 -19.1456
L12.4437 -19.5492
L12.1673 -19.9579
L11.8982 -20.3714
L11.6364 -20.7898
L11.382 -21.2127
L11.1351 -21.6402
L10.8959 -22.072
L10.6642 -22.5081
L10.4403 -22.9483
L10.2241 -23.3924
L10.0159 -23.8404
L9.81549 -24.2921
L9.62309 -24.7474
L9.43873 -25.2061
L9.26246 -25.6681
L9.09433 -26.1332
L8.9344 -26.6013
L8.78271 -27.0723
L8.63931 -27.5461
L8.50425 -28.0224
L8.37757 -28.5011
L8.25929 -28.9821
L8.14947 -29.4652
L8.04813 -29.9504
L7.95531 -30.4374
L7.87103 -30.926
L7.79531 -31.4162
L7.72819 -31.9079
L7.66968 -32.4007
L7.6198 -32.8947
L7.57856 -33.3896
L7.54599 -33.8853
L7.52208 -34.3816
L7.50684 -34.8785
L7.50028 -35.3757
L7.50241 -35.873
L7.51321 -36.3704
L7.5327 -36.8677
L7.56085 -37.3648
L7.59767 -37.8614
L7.64313 -38.3574
L7.69724 -38.8527
L7.75997 -39.3472
L7.8313 -39.8407
L7.91121 -40.3329
L7.99967 -40.8239
L8.09667 -41.3134
L8.20216 -41.8012
L8.31613 -42.2873
L8.43852 -42.7715
L8.56931 -43.2536
L8.70846 -43.7335
L8.85592 -44.2111
L9.01165 -44.6861
L9.1756 -45.1585
L9.34772 -45.6282
L9.52796 -46.0948
L9.71626 -46.5584
L9.91257 -47.0188
L10.1168 -47.4759
L10.329 -47.9294
L10.5489 -48.3793
L10.7766 -48.8255
L11.012 -49.2677
L11.255 -49.7059
L11.5056 -50.1399
L11.7636 -50.5696
L12.029 -50.9949
L12.3017 -51.4156
L12.5816 -51.8316
L12.8686 -52.2428
L13.1627 -52.649
L13.4637 -53.0501
L13.7717 -53.4461
L14.0863 -53.8368
L14.4077 -54.222
L14.7356 -54.6017
L15.07 -54.9757
L15.4108 -55.3439
L15.7579 -55.7062
L16.1111 -56.0626
L16.4704 -56.4128
L16.8356 -56.7568
L17.2067 -57.0945
L17.5835 -57.4257
L17.9659 -57.7504
L18.3538 -58.0685
L18.747 -58.3799
L19.1456 -58.6845
L19.5492 -58.9821
L19.9579 -59.2728
L20.3714 -59.5563
L20.7898 -59.8327
L21.2127 -60.1018
L21.6402 -60.3636
L22.072 -60.618
L22.5081 -60.8649
L22.9483 -61.1041
L23.3924 -61.3358
L23.8404 -61.5597
L24.2921 -61.7759
L24.7474 -61.9841
L25.2061 -62.1845
L25.6681 -62.3769
L26.1332 -62.5613
L26.6013 -62.7375
L27.0723 -62.9057
L27.5461 -63.0656
L28.0224 -63.2173
L28.5011 -63.3607
L28.9821 -63.4957
L29.4652 -63.6224
L29.9504 -63.7407
L30.4374 -63.8505
L30.926 -63.9519
L31.4162 -64.0447
L31.9079 -64.129
L32.4007 -64.2047
L32.8947 -64.2718
L33.3896 -64.3303
L33.8853 -64.3802
L34.3816 -64.4214
L34.8785 -64.454
L35.3757 -64.4779
L35.873 -64.4932
L36.3704 -64.4997
L36.8677 -64.4976
z
" id="C0_2_5686970604"/>
    </defs>
    <g clip-path="url(#p1bffca34e9)">
     <use style="fill:#ff0000;stroke:#000000;stroke-width:2.0;" x="0.0" xlink:href="#C0_0_a811fe30f3" y="72.0"/>
    </g>
    <g clip-path="url(#p1bffca34e9)">
     <use style="fill:#ffffff;stroke:#000000;stroke-width:2.0;" x="0.0" xlink:href="#C0_1_29cfc0f67d" y="72.0"/>
    </g>
    <g clip-path="url(#p1bffca34e9)">
     <use style="fill:#ffffff;stroke:#000000;stroke-width:2.0;" x="0.0" xlink:href="#C0_2_5686970604" y="72.0"/>
    </g>
   </g>
  </g>
 </g>
 <defs>
  <clipPath id="p1bffca34e9">
   <rect height="72.0" width="72.0" x="0.0" y="0.0"/>
  </clipPath>
 </defs>
</svg>
