<?xml version="1.0" encoding="utf-8" standalone="no"?>
<!DOCTYPE svg PUBLIC "-//W3C//DTD SVG 1.1//EN"
  "http://www.w3.org/Graphics/SVG/1.1/DTD/svg11.dtd">
<!-- Created with matplotlib (http://matplotlib.org/) -->
<svg height="72pt" version="1.1" viewBox="0 0 72 72" width="72pt" xmlns="http://www.w3.org/2000/svg" xmlns:xlink="http://www.w3.org/1999/xlink">
 <defs>
  <style type="text/css">
*{stroke-linecap:butt;stroke-linejoin:round;}
  </style>
 </defs>
 <g id="figure_1">
  <g id="patch_1">
   <path d="
M0 72
L72 72
L72 0
L0 0
z
" style="fill:none;"/>
  </g>
  <g id="axes_1">
   <g id="PatchCollection_1">
    <defs>
     <path d="
M36 -7.5
C43.5583 -7.5 50.808 -10.5029 56.1525 -15.8475
C61.4971 -21.192 64.5 -28.4417 64.5 -36
C64.5 -43.5583 61.4971 -50.808 56.1525 -56.1525
C50.808 -61.4971 43.5583 -64.5 36 -64.5
C28.4417 -64.5 21.192 -61.4971 15.8475 -56.1525
C10.5029 -50.808 7.5 -43.5583 7.5 -36
C7.5 -28.4417 10.5029 -21.192 15.8475 -15.8475
C21.192 -10.5029 28.4417 -7.5 36 -7.5
z
" id="C0_0_a811fe30f3"/>
     <path d="
M32.2567 -7.83551
L32.0509 -8.08382
L31.8927 -8.3374
L31.7819 -8.59548
L31.717 -8.85744
L31.6951 -9.12283
L31.7127 -9.39137
L31.7654 -9.66287
L31.8487 -9.93726
L31.9584 -10.2145
L32.0903 -10.4945
L32.2406 -10.7773
L32.406 -11.0628
L32.5838 -11.3509
L32.7714 -11.6415
L32.9668 -11.9345
L33.1681 -12.2298
L33.374 -12.527
L33.5831 -12.8262
L33.7945 -13.127
L34.0071 -13.4293
L34.2202 -13.7328
L34.4333 -14.0375
L34.6457 -14.3429
L34.857 -14.6491
L35.0669 -14.9557
L35.2751 -15.2626
L35.4812 -15.5696
L35.685 -15.8765
L35.8864 -16.1832
L36.0853 -16.4895
L36.2814 -16.7953
L36.4747 -17.1004
L36.6652 -17.4047
L36.8528 -17.7081
L37.0374 -18.0105
L37.2191 -18.3118
L37.3978 -18.6119
L37.5734 -18.9107
L37.7461 -19.2081
L37.9159 -19.5041
L38.0827 -19.7987
L38.2465 -20.0917
L38.4075 -20.3832
L38.5657 -20.6731
L38.7211 -20.9614
L38.8737 -21.2481
L39.0237 -21.5331
L39.1709 -21.8165
L39.3156 -22.0982
L39.4577 -22.3783
L39.5973 -22.6567
L39.7345 -22.9335
L39.8693 -23.2086
L40.0018 -23.4822
L40.132 -23.7542
L40.2599 -24.0246
L40.3857 -24.2934
L40.5094 -24.5608
L40.631 -24.8267
L40.7506 -25.0912
L40.8682 -25.3543
L40.984 -25.616
L41.0978 -25.8765
L41.2099 -26.1356
L41.3202 -26.3935
L41.4288 -26.6502
L41.5357 -26.9058
L41.641 -27.1603
L41.7447 -27.4137
L41.8469 -27.6661
L41.9476 -27.9176
L42.0469 -28.1682
L42.1447 -28.418
L42.2411 -28.667
L42.3362 -28.9152
L42.43 -29.1627
L42.5226 -29.4096
L42.6139 -29.656
L42.704 -29.9018
L42.793 -30.1471
L42.8808 -30.392
L42.9675 -30.6366
L43.0531 -30.8809
L43.1377 -31.1249
L43.2213 -31.3688
L43.3038 -31.6125
L43.3854 -31.8561
L43.4661 -32.0997
L43.5458 -32.3434
L43.6246 -32.5872
L43.7797 -32.8311
L43.8559 -33.0753
L43.9314 -33.3197
L44.006 -33.5645
L44.0798 -33.8097
L44.1529 -34.0553
L44.2252 -34.3015
L44.2968 -34.5482
L44.3676 -34.7956
L44.4377 -35.0437
L44.5071 -35.2925
L44.5758 -35.5422
L44.6439 -35.7928
L44.7112 -36.0443
L44.7779 -36.2969
L44.8438 -36.5505
L44.9092 -36.8053
L44.9738 -37.0613
L45.0378 -37.3186
L45.1012 -37.5772
L45.1639 -37.8372
L45.2259 -38.0987
L45.2872 -38.3617
L45.3479 -38.6263
L45.408 -38.8926
L45.4673 -39.1606
L45.526 -39.4304
L45.5839 -39.7021
L45.6412 -39.9757
L45.6977 -40.2513
L45.7535 -40.529
L45.8086 -40.8087
L45.8629 -41.0907
L45.9164 -41.3749
L45.9692 -41.6615
L46.0211 -41.9504
L46.0721 -42.2417
L46.1223 -42.5355
L46.1716 -42.8319
L46.2199 -43.1309
L46.2673 -43.4325
L46.3137 -43.7368
L46.3591 -44.0439
L46.4034 -44.3538
L46.4466 -44.6665
L46.4887 -44.9821
L46.5295 -45.3006
L46.5692 -45.622
L46.6076 -45.9464
L46.6446 -46.2738
L46.6803 -46.6042
L46.7146 -46.9375
L46.7475 -47.2739
L46.7788 -47.6132
L46.8085 -47.9554
L46.8367 -48.3007
L46.8632 -48.6488
L46.8881 -48.9997
L46.9112 -49.3534
L46.9325 -49.7098
L46.9521 -50.0688
L46.9698 -50.4303
L46.9858 -50.7942
L46.9999 -51.1604
L47.0122 -51.5286
L47.0228 -51.8987
L47.0316 -52.2704
L47.0388 -52.6436
L47.0445 -53.018
L47.0488 -53.3932
L47.052 -53.769
L47.0542 -54.145
L47.0559 -54.5207
L47.0573 -54.8957
L47.059 -55.2695
L47.0616 -55.6414
L47.0659 -56.0108
L47.0727 -56.3769
L47.0831 -56.7389
L47.0984 -57.0957
L47.1203 -57.4462
L47.1507 -57.7892
L47.1918 -58.1231
L47.2461 -58.4462
L47.3166 -58.7566
L47.4067 -59.0522
L47.5196 -59.3306
L47.659 -59.5893
L47.8281 -59.8257
L48.0297 -60.0372
L48.2657 -60.2215
L48.5371 -60.3767
L48.8434 -60.5015
L49.1832 -60.5952
L49.5543 -60.6578
L49.9535 -60.6896
L50.4524 -60.6918
L50.8789 -60.5637
L51.3009 -60.3078
L51.7182 -60.0444
L52.1307 -59.7737
L52.5383 -59.4958
L52.9409 -59.2107
L53.3383 -58.9185
L53.7304 -58.6193
L54.1171 -58.3133
L54.4983 -58.0005
L54.8739 -57.6809
L55.2437 -57.3548
L55.6076 -57.0221
L55.9656 -56.6831
L56.3175 -56.3377
L56.6632 -55.9862
L57.0027 -55.6286
L57.3357 -55.2649
L57.6622 -54.8955
L57.9821 -54.5202
L58.2954 -54.1393
L58.6018 -53.7529
L58.9013 -53.3611
L59.1939 -52.964
L59.4794 -52.5618
L59.7578 -52.1545
L60.0289 -51.7422
L60.2927 -51.3252
L60.5491 -50.9035
L60.798 -50.4773
L61.0394 -50.0466
L61.2732 -49.6117
L61.4992 -49.1726
L61.7175 -48.7295
L61.9279 -48.2826
L62.1305 -47.8319
L62.325 -47.3776
L62.5116 -46.9198
L62.6901 -46.4587
L62.8605 -45.9944
L63.0226 -45.5271
L63.1766 -45.0568
L63.3223 -44.5839
L63.4596 -44.1083
L63.5886 -43.6302
L63.7092 -43.1498
L63.8213 -42.6672
L63.925 -42.1826
L64.0201 -41.6961
L64.1068 -41.2079
L64.1848 -40.7181
L64.2543 -40.2268
L64.3152 -39.7343
L64.3674 -39.2406
L64.411 -38.7459
L64.446 -38.2505
L64.4722 -37.7543
L64.4899 -37.2575
L64.4988 -36.7604
L64.499 -36.2631
L64.4906 -35.7657
L64.4735 -35.2684
L64.4477 -34.7712
L64.4133 -34.2745
L64.3702 -33.7783
L64.3184 -33.2827
L64.2581 -32.788
L64.1891 -32.2943
L64.1115 -31.8017
L64.0254 -31.3104
L63.9307 -30.8205
L63.8276 -30.3321
L63.7159 -29.8455
L63.5958 -29.3608
L63.4673 -28.8781
L63.3305 -28.3976
L63.1853 -27.9194
L63.0318 -27.4436
L62.8701 -26.9705
L62.7002 -26.5001
L62.5222 -26.0326
L62.3361 -25.5681
L62.142 -25.1068
L61.9399 -24.6489
L61.7299 -24.1944
L61.5121 -23.7434
L61.2865 -23.2963
L61.0532 -22.8529
L60.8122 -22.4136
L60.5637 -21.9785
L60.3078 -21.5476
L60.0444 -21.1211
L59.7737 -20.6991
L59.4958 -20.2818
L59.2107 -19.8693
L58.9185 -19.4617
L58.6193 -19.0591
L58.3133 -18.6617
L58.0005 -18.2696
L57.6809 -17.8829
L57.3548 -17.5017
L57.0221 -17.1261
L56.6831 -16.7563
L56.3377 -16.3924
L55.9862 -16.0344
L55.6286 -15.6825
L55.2649 -15.3368
L54.8955 -14.9973
L54.5202 -14.6643
L54.1393 -14.3378
L53.7529 -14.0179
L53.3611 -13.7046
L52.964 -13.3982
L52.5618 -13.0987
L52.1545 -12.8061
L51.7422 -12.5206
L51.3252 -12.2422
L50.9035 -11.9711
L50.4773 -11.7073
L50.0466 -11.4509
L49.6117 -11.202
L49.1726 -10.9606
L48.7295 -10.7268
L48.2826 -10.5008
L47.8319 -10.2825
L47.3776 -10.0721
L46.9198 -9.86954
L46.4587 -9.67495
L45.9944 -9.48838
L45.5271 -9.30989
L45.0568 -9.13953
L44.5839 -8.97735
L44.1083 -8.8234
L43.6302 -8.67773
L43.1498 -8.54039
L42.6672 -8.4114
L42.1826 -8.29082
L41.6961 -8.17869
L41.2079 -8.07502
L40.7181 -7.97986
L40.2268 -7.89324
L39.7343 -7.81518
L39.2406 -7.74571
L38.7459 -7.68484
L38.2505 -7.63259
L37.7543 -7.58899
L37.2575 -7.55404
L36.7604 -7.52776
L36.2631 -7.51015
L35.7657 -7.50121
L35.2684 -7.50096
L34.7712 -7.50939
L34.2745 -7.5265
L33.7783 -7.55228
L33.2827 -7.58673
L32.788 -7.62983
z
" id="C0_1_4952d0032e"/>
     <path d="
M21.6729 -11.4207
L21.4166 -11.785
L21.1461 -12.1597
L20.8653 -12.5439
L20.5774 -12.9368
L20.2855 -13.3376
L19.992 -13.7453
L19.6988 -14.1593
L19.4078 -14.5787
L19.1204 -15.0029
L18.8378 -15.4312
L18.5609 -15.863
L18.2905 -16.2977
L18.0272 -16.7347
L17.7715 -17.1734
L17.5238 -17.6135
L17.2843 -18.0544
L17.0533 -18.4957
L16.8309 -18.9371
L16.6171 -19.378
L16.412 -19.8181
L16.2156 -20.2573
L16.0278 -20.695
L15.8485 -21.1311
L15.6777 -21.5654
L15.5151 -21.9975
L15.3607 -22.4273
L15.2143 -22.8546
L15.0757 -23.2793
L14.9448 -23.7011
L14.8214 -24.12
L14.7052 -24.5358
L14.5962 -24.9485
L14.494 -25.3579
L14.3986 -25.764
L14.3097 -26.1668
L14.2271 -26.5662
L14.1507 -26.9621
L14.0803 -27.3546
L14.0157 -27.7436
L13.9567 -28.1291
L13.9032 -28.5111
L13.8549 -28.8897
L13.8118 -29.2649
L13.7736 -29.6366
L13.7403 -30.0049
L13.7117 -30.3699
L13.6876 -30.7316
L13.6679 -31.09
L13.6524 -31.4452
L13.6412 -31.7973
L13.634 -32.1462
L13.6307 -32.4921
L13.6312 -32.835
L13.6355 -33.1749
L13.6433 -33.512
L13.6547 -33.8463
L13.6696 -34.1778
L13.6878 -34.5067
L13.7093 -34.833
L13.7341 -35.1567
L13.7619 -35.478
L13.7929 -35.7968
L13.8269 -36.1134
L13.8639 -36.4277
L13.9037 -36.7398
L13.9465 -37.0499
L13.9921 -37.3578
L14.0405 -37.6638
L14.0916 -37.9679
L14.1455 -38.2702
L14.2021 -38.5707
L14.2613 -38.8695
L14.3232 -39.1667
L14.3877 -39.4623
L14.4549 -39.7565
L14.5247 -40.0492
L14.597 -40.3405
L14.672 -40.6306
L14.7496 -40.9194
L14.8297 -41.207
L14.9125 -41.4935
L14.9979 -41.779
L15.0859 -42.0635
L15.1765 -42.3471
L15.2698 -42.6298
L15.3658 -42.9116
L15.4644 -43.1928
L15.5658 -43.4732
L15.67 -43.753
L15.7769 -44.0322
L15.8866 -44.3108
L15.9992 -44.589
L16.1146 -44.8667
L16.233 -45.1441
L16.3544 -45.4211
L16.4788 -45.6978
L16.6063 -45.9742
L16.7369 -46.2504
L16.8708 -46.5265
L17.0079 -46.8025
L17.1483 -47.0783
L17.2921 -47.3541
L17.4393 -47.6299
L17.5901 -47.9058
L17.7445 -48.1816
L17.9026 -48.4575
L18.0644 -48.7336
L18.2302 -49.0097
L18.3998 -49.286
L18.5736 -49.5625
L18.7514 -49.8391
L18.9335 -50.1159
L19.1199 -50.393
L19.3108 -50.6702
L19.5063 -50.9476
L19.7064 -51.2252
L19.9113 -51.5031
L20.1211 -51.781
L20.3359 -52.0592
L20.5559 -52.3375
L20.7811 -52.6159
L21.0117 -52.8944
L21.2479 -53.1729
L21.4897 -53.4514
L21.7374 -53.7299
L21.9909 -54.0082
L22.2505 -54.2864
L22.5164 -54.5643
L22.7885 -54.8418
L23.0671 -55.119
L23.3524 -55.3955
L23.6443 -55.6715
L23.9432 -55.9467
L24.249 -56.221
L24.5619 -56.4942
L24.882 -56.7663
L25.2095 -57.0371
L25.5444 -57.3063
L25.8869 -57.5739
L26.2369 -57.8395
L26.5946 -58.1031
L26.96 -58.3644
L27.3331 -58.6232
L27.714 -58.8793
L28.1027 -59.1323
L28.499 -59.3822
L28.9031 -59.6285
L29.3146 -59.8711
L29.7336 -60.1097
L30.1598 -60.344
L30.5931 -60.5739
L31.033 -60.7989
L31.4794 -61.019
L31.9317 -61.2338
L32.3895 -61.4433
L32.8523 -61.6471
L33.3192 -61.8452
L33.7895 -62.0374
L34.2623 -62.2239
L34.7363 -62.4046
L35.2104 -62.5797
L35.6829 -62.7494
L36.1521 -62.9142
L36.6159 -63.0746
L37.0718 -63.2314
L37.5171 -63.3856
L37.9486 -63.5383
L38.3628 -63.6911
L38.7558 -63.8456
L39.1234 -64.0037
L38.9822 -64.1673
L38.4871 -64.3435
L37.9912 -64.3913
L37.4947 -64.4304
L36.9978 -64.4608
L36.5005 -64.4825
L36.0031 -64.4956
L35.5057 -64.5
L35.0085 -64.4957
L34.5115 -64.4827
L34.0151 -64.4611
L33.5192 -64.4308
L33.024 -64.3918
L32.5298 -64.3442
L32.0367 -64.2879
L31.5447 -64.2231
L31.0541 -64.1496
L30.565 -64.0676
L30.0776 -63.977
L29.5919 -63.8779
L29.1083 -63.7703
L28.6267 -63.6542
L28.1473 -63.5297
L27.6704 -63.3968
L27.196 -63.2556
L26.7243 -63.1061
L26.2554 -62.9483
L25.7894 -62.7823
L25.3266 -62.6082
L24.867 -62.4259
L24.4109 -62.2356
L23.9582 -62.0373
L23.5092 -61.8311
L23.0641 -61.617
L22.6228 -61.3951
L22.1857 -61.1655
L21.7527 -60.9282
L21.3241 -60.6833
L20.9 -60.4309
L20.4804 -60.171
L20.0656 -59.9038
L19.6556 -59.6293
L19.2507 -59.3476
L18.8508 -59.0588
L18.4561 -58.763
L18.0668 -58.4602
L17.6829 -58.1506
L17.3047 -57.8343
L16.9321 -57.5113
L16.5653 -57.1817
L16.2045 -56.8457
L15.8497 -56.5034
L15.501 -56.1548
L15.1586 -55.8
L14.8225 -55.4392
L14.4928 -55.0725
L14.1697 -54.7
L13.8533 -54.3218
L13.5436 -53.9381
L13.2408 -53.5488
L12.9449 -53.1542
L12.656 -52.7544
L12.3742 -52.3495
L12.0996 -51.9396
L11.8323 -51.5248
L11.5723 -51.1054
L11.3198 -50.6813
L11.0749 -50.2527
L10.8375 -49.8198
L10.6077 -49.3827
L10.3857 -48.9415
L10.1716 -48.4964
L9.96523 -48.0475
L9.76683 -47.5949
L9.57643 -47.1387
L9.39408 -46.6792
L9.21983 -46.2164
L9.05374 -45.7505
L8.89586 -45.2816
L8.74623 -44.81
L8.6049 -44.3356
L8.47192 -43.8587
L8.34733 -43.3794
L8.23116 -42.8978
L8.12344 -42.4142
L8.02422 -41.9285
L7.93352 -41.4411
L7.85137 -40.9521
L7.7778 -40.4615
L7.71282 -39.9695
L7.65645 -39.4764
L7.60872 -38.9822
L7.56964 -38.4871
L7.53922 -37.9912
L7.51747 -37.4947
L7.5044 -36.9978
L7.5 -36.5005
L7.50429 -36.0031
L7.51725 -35.5057
L7.53889 -35.0085
L7.56921 -34.5115
L7.60818 -34.0151
L7.6558 -33.5192
L7.71205 -33.024
L7.77692 -32.5298
L7.85039 -32.0367
L7.93244 -31.5447
L8.02303 -31.0541
L8.12214 -30.565
L8.22975 -30.0776
L8.34582 -29.5919
L8.4703 -29.1083
L8.60318 -28.6267
L8.7444 -28.1473
L8.89392 -27.6704
L9.0517 -27.196
L9.21769 -26.7243
L9.39184 -26.2554
L9.57409 -25.7894
L9.76439 -25.3266
L9.96268 -24.867
L10.1689 -24.4109
L10.383 -23.9582
L10.6049 -23.5092
L10.8345 -23.0641
L11.0718 -22.6228
L11.3167 -22.1857
L11.5691 -21.7527
L11.829 -21.3241
L12.0962 -20.9
L12.3707 -20.4804
L12.6524 -20.0656
L12.9412 -19.6556
L13.237 -19.2507
L13.5398 -18.8508
L13.8494 -18.4561
L14.1657 -18.0668
L14.4887 -17.6829
L14.8183 -17.3047
L15.1543 -16.9321
L15.4966 -16.5653
L15.8452 -16.2045
L16.2 -15.8497
L16.5608 -15.501
L16.9275 -15.1586
L17.3 -14.8225
L17.6782 -14.4928
L18.0619 -14.1697
L18.4512 -13.8533
L18.8458 -13.5436
L19.2456 -13.2408
L19.6505 -12.9449
L20.0604 -12.656
L20.4752 -12.3742
L20.8946 -12.0996
z
" id="C0_2_8ed8aa9cdb"/>
    </defs>
    <g clip-path="url(#p1bffca34e9)">
     <use style="fill:#ff0000;stroke:#000000;stroke-width:2.0;" x="0.0" xlink:href="#C0_0_a811fe30f3" y="72.0"/>
    </g>
    <g clip-path="url(#p1bffca34e9)">
     <use style="fill:#ffffff;stroke:#000000;stroke-width:2.0;" x="0.0" xlink:href="#C0_1_4952d0032e" y="72.0"/>
    </g>
    <g clip-path="url(#p1bffca34e9)">
     <use style="fill:#ffffff;stroke:#000000;stroke-width:2.0;" x="0.0" xlink:href="#C0_2_8ed8aa9cdb" y="72.0"/>
    </g>
   </g>
  </g>
 </g>
 <defs>
  <clipPath id="p1bffca34e9">
   <rect height="72.0" width="72.0" x="0.0" y="0.0"/>
  </clipPath>
 </defs>
</svg>
