<?xml version="1.0" encoding="utf-8" standalone="no"?>
<!DOCTYPE svg PUBLIC "-//W3C//DTD SVG 1.1//EN"
  "http://www.w3.org/Graphics/SVG/1.1/DTD/svg11.dtd">
<!-- Created with matplotlib (http://matplotlib.org/) -->
<svg height="72pt" version="1.1" viewBox="0 0 72 72" width="72pt" xmlns="http://www.w3.org/2000/svg" xmlns:xlink="http://www.w3.org/1999/xlink">
 <defs>
  <style type="text/css">
*{stroke-linecap:butt;stroke-linejoin:round;}
  </style>
 </defs>
 <g id="figure_1">
  <g id="patch_1">
   <path d="
M0 72
L72 72
L72 0
L0 0
z
" style="fill:none;"/>
  </g>
  <g id="axes_1">
   <g id="PatchCollection_1">
    <defs>
     <path d="
M36 -7.5
C43.5583 -7.5 50.808 -10.5029 56.1525 -15.8475
C61.4971 -21.192 64.5 -28.4417 64.5 -36
C64.5 -43.5583 61.4971 -50.808 56.1525 -56.1525
C50.808 -61.4971 43.5583 -64.5 36 -64.5
C28.4417 -64.5 21.192 -61.4971 15.8475 -56.1525
C10.5029 -50.808 7.5 -43.5583 7.5 -36
C7.5 -28.4417 10.5029 -21.192 15.8475 -15.8475
C21.192 -10.5029 28.4417 -7.5 36 -7.5
z
" id="C0_0_a811fe30f3"/>
     <path d="
M36.4076 -26.7579
L36.6552 -26.8237
L36.9026 -26.8906
L37.1499 -26.9587
L37.3972 -27.0279
L37.6445 -27.0983
L37.8918 -27.1699
L38.1393 -27.2427
L38.387 -27.3168
L38.635 -27.3921
L38.8832 -27.4687
L39.1319 -27.5466
L39.3809 -27.6259
L39.6305 -27.7065
L39.8806 -27.7886
L40.1313 -27.8721
L40.3827 -27.9572
L40.6348 -28.0437
L40.8877 -28.1318
L41.1414 -28.2215
L41.396 -28.3128
L41.6515 -28.4059
L41.908 -28.5007
L42.1656 -28.5972
L42.4243 -28.6956
L42.6841 -28.7959
L42.9452 -28.8981
L43.2075 -29.0023
L43.471 -29.1085
L43.736 -29.2168
L44.0023 -29.3273
L44.2701 -29.4401
L44.5393 -29.5551
L44.8101 -29.6725
L45.0825 -29.7923
L45.3564 -29.9146
L45.632 -30.0395
L45.9092 -30.167
L46.1881 -30.2972
L46.4687 -30.4302
L46.7511 -30.5661
L47.0352 -30.705
L47.321 -30.8469
L47.6087 -30.9919
L47.8981 -31.1402
L48.1893 -31.2917
L48.4822 -31.4467
L48.7769 -31.6052
L49.0733 -31.7672
L49.3714 -31.9329
L49.6712 -32.1024
L49.9726 -32.2758
L50.2755 -32.4532
L50.58 -32.6346
L50.8858 -32.8203
L51.193 -33.0102
L51.5014 -33.2045
L51.8109 -33.4033
L52.1214 -33.6067
L52.4327 -33.8147
L52.7447 -34.0276
L53.0572 -34.2454
L53.3701 -34.4681
L53.683 -34.696
L53.9957 -34.929
L54.3081 -35.1674
L54.6198 -35.4111
L54.9304 -35.6603
L55.2397 -35.9151
L55.5472 -36.1756
L55.8526 -36.4419
L56.1553 -36.714
L56.4549 -36.992
L56.7507 -37.2762
L57.0422 -37.5665
L57.3285 -37.8632
L57.6089 -38.1663
L57.8824 -38.476
L58.1478 -38.7925
L58.4041 -39.116
L58.6496 -39.4467
L58.8826 -39.7849
L59.101 -40.1311
L59.3024 -40.4855
L59.484 -40.8488
L59.6425 -41.2213
L59.7742 -41.6035
L59.8752 -41.9959
L59.9417 -42.3987
L59.9703 -42.8116
L59.9585 -43.2342
L59.9053 -43.6652
L59.8111 -44.103
L59.6779 -44.5456
L59.5085 -44.9906
L59.3066 -45.436
L59.0758 -45.8798
L58.8196 -46.32
L58.5413 -46.7552
L58.2438 -47.1841
L57.9295 -47.6057
L57.6006 -48.0191
L57.259 -48.4236
L56.9063 -48.8188
L56.5439 -49.2042
L56.1731 -49.5794
L55.795 -49.9443
L55.4106 -50.2986
L55.0208 -50.6424
L54.6263 -50.9754
L54.2279 -51.2978
L53.8263 -51.6094
L53.4221 -51.9105
L53.0159 -52.2011
L52.608 -52.4812
L52.1991 -52.7511
L51.7896 -53.0109
L51.3798 -53.2606
L50.9701 -53.5007
L50.5609 -53.7311
L50.1524 -53.9521
L49.7449 -54.164
L49.3387 -54.3669
L48.934 -54.561
L48.531 -54.7465
L48.1298 -54.9238
L47.7308 -55.093
L47.3339 -55.2542
L46.9393 -55.4078
L46.5471 -55.554
L46.1575 -55.6929
L45.7705 -55.8248
L45.3862 -55.9499
L45.0045 -56.0683
L44.6257 -56.1803
L44.2497 -56.2861
L43.8765 -56.3858
L43.5061 -56.4797
L43.1386 -56.5679
L42.774 -56.6505
L42.4122 -56.7278
L42.0532 -56.7999
L41.697 -56.8669
L41.3437 -56.9291
L40.9931 -56.9865
L40.6452 -57.0393
L40.3 -57.0875
L39.9574 -57.1314
L39.6175 -57.1711
L39.28 -57.2066
L38.9451 -57.2381
L38.6127 -57.2657
L38.2826 -57.2895
L37.9549 -57.3095
L37.6294 -57.3259
L37.3061 -57.3387
L36.985 -57.3481
L36.666 -57.354
L36.3491 -57.3566
L36.0341 -57.3559
L35.721 -57.352
L35.4097 -57.3449
L35.1002 -57.3348
L34.7924 -57.3215
L34.4863 -57.3053
L34.1817 -57.2861
L33.8787 -57.264
L33.577 -57.2389
L33.2768 -57.211
L32.9779 -57.1802
L32.6803 -57.1467
L32.3838 -57.1103
L32.0885 -57.0711
L31.7942 -57.0291
L31.5009 -56.9843
L31.2086 -56.9368
L30.9171 -56.8865
L30.6265 -56.8335
L30.3366 -56.7777
L30.0473 -56.7191
L29.7588 -56.6577
L29.4708 -56.5935
L29.1833 -56.5265
L28.8962 -56.4567
L28.6096 -56.3839
L28.3233 -56.3083
L28.0373 -56.2298
L27.7515 -56.1483
L27.4659 -56.0638
L27.1805 -55.9762
L26.8951 -55.8856
L26.6097 -55.7919
L26.3244 -55.695
L26.0389 -55.5948
L25.7534 -55.4914
L25.4677 -55.3846
L25.1817 -55.2744
L24.8956 -55.1607
L24.6091 -55.0435
L24.3223 -54.9226
L24.0352 -54.798
L23.7477 -54.6696
L23.4597 -54.5373
L23.1713 -54.4011
L22.8824 -54.2608
L22.593 -54.1163
L22.303 -53.9675
L22.0125 -53.8144
L21.7215 -53.6567
L21.4298 -53.4944
L21.1376 -53.3274
L20.8448 -53.1555
L20.5514 -52.9787
L20.2574 -52.7967
L19.9629 -52.6094
L19.6678 -52.4167
L19.3722 -52.2184
L19.0761 -52.0145
L18.7795 -51.8046
L18.4825 -51.5887
L18.1851 -51.3666
L17.8874 -51.1382
L17.5895 -50.9032
L17.2913 -50.6614
L16.9932 -50.4128
L16.695 -50.1571
L16.3969 -49.8941
L16.0991 -49.6236
L15.8017 -49.3455
L15.5048 -49.0596
L15.2086 -48.7656
L14.9132 -48.4635
L14.6189 -48.1529
L14.3258 -47.8337
L14.0342 -47.5058
L13.7444 -47.1689
L13.4565 -46.8229
L13.1709 -46.4676
L12.8878 -46.1028
L12.6076 -45.7285
L12.3307 -45.3444
L12.0573 -44.9505
L11.7879 -44.5466
L11.5229 -44.1327
L11.2627 -43.7086
L11.0078 -43.2745
L10.7587 -42.8302
L10.5159 -42.3757
L10.28 -41.9112
L10.0514 -41.4368
L9.83089 -40.9525
L9.61902 -40.4586
L9.41649 -39.9553
L9.22401 -39.4431
L9.04232 -38.9222
L8.87225 -38.3932
L8.71463 -37.8568
L8.5704 -37.3137
L8.44054 -36.7647
L8.32613 -36.211
L8.22835 -35.6539
L8.14851 -35.095
L8.08805 -34.5362
L8.04857 -33.9797
L8.03181 -33.4282
L8.03968 -32.8849
L8.07415 -32.3534
L8.13713 -31.8374
L8.23028 -31.3411
L8.35476 -30.8681
L8.5109 -30.4217
L8.69806 -30.0037
L8.91462 -29.6151
L9.15811 -29.2554
L9.42556 -28.9232
L9.71384 -28.6167
L10.0199 -28.3334
L10.341 -28.0713
L10.6746 -27.8282
L11.0186 -27.6024
L11.3712 -27.3921
L11.731 -27.1961
L12.0965 -27.013
L12.4667 -26.8421
L12.8407 -26.6822
L13.2176 -26.5328
L13.5968 -26.3931
L13.9775 -26.2625
L14.3593 -26.1406
L14.7417 -26.0269
L15.1241 -25.9208
L15.5063 -25.8222
L15.8879 -25.7305
L16.2685 -25.6455
L16.6479 -25.5668
L17.0258 -25.4941
L17.402 -25.4272
L17.7763 -25.3658
L18.1485 -25.3097
L18.5185 -25.2585
L18.8861 -25.2122
L19.2511 -25.1704
L19.6136 -25.1331
L19.9733 -25.0998
L20.3302 -25.0706
L20.6842 -25.0452
L21.0353 -25.0235
L21.3835 -25.0052
L21.7287 -24.9903
L22.0708 -24.9785
L22.41 -24.9699
L22.7461 -24.9641
L23.0791 -24.9611
L23.4091 -24.9608
L23.7362 -24.963
L24.0602 -24.9677
L24.3813 -24.9748
L24.6994 -24.9841
L25.0146 -24.9955
L25.327 -25.0091
L25.6366 -25.0246
L25.9434 -25.042
L26.2475 -25.0613
L26.549 -25.0823
L26.8478 -25.1051
L27.1441 -25.1295
L27.4379 -25.1554
L27.7293 -25.183
L28.0183 -25.2119
L28.305 -25.2424
L28.5894 -25.2742
L28.8717 -25.3074
L29.1519 -25.3419
L29.43 -25.3776
L29.7061 -25.4146
L29.9803 -25.4528
L30.2527 -25.4922
L30.5233 -25.5328
L30.7921 -25.5745
L31.0593 -25.6173
L31.325 -25.6613
L31.5891 -25.7063
L31.8518 -25.7523
L32.1131 -25.7995
L32.3731 -25.8476
L32.6318 -25.8968
L32.8894 -25.9471
L33.1459 -25.9983
L33.4013 -26.0506
L33.6557 -26.1039
L33.9092 -26.1582
L34.1618 -26.2135
L34.4137 -26.2699
L34.6648 -26.3272
L34.9153 -26.3856
L35.1651 -26.445
L35.4144 -26.5055
L35.6633 -26.567
L35.9117 -26.6295
z
" id="C0_1_b04a4f777f"/>
    </defs>
    <g clip-path="url(#p1bffca34e9)">
     <use style="fill:#ffffff;stroke:#000000;stroke-width:2.0;" x="0.0" xlink:href="#C0_0_a811fe30f3" y="72.0"/>
    </g>
    <g clip-path="url(#p1bffca34e9)">
     <use style="fill:#ff0000;stroke:#000000;stroke-width:2.0;" x="0.0" xlink:href="#C0_1_b04a4f777f" y="72.0"/>
    </g>
   </g>
  </g>
 </g>
 <defs>
  <clipPath id="p1bffca34e9">
   <rect height="72.0" width="72.0" x="0.0" y="0.0"/>
  </clipPath>
 </defs>
</svg>
