<?xml version="1.0" encoding="utf-8" standalone="no"?>
<!DOCTYPE svg PUBLIC "-//W3C//DTD SVG 1.1//EN"
  "http://www.w3.org/Graphics/SVG/1.1/DTD/svg11.dtd">
<!-- Created with matplotlib (http://matplotlib.org/) -->
<svg height="72pt" version="1.1" viewBox="0 0 72 72" width="72pt" xmlns="http://www.w3.org/2000/svg" xmlns:xlink="http://www.w3.org/1999/xlink">
 <defs>
  <style type="text/css">
*{stroke-linecap:butt;stroke-linejoin:round;}
  </style>
 </defs>
 <g id="figure_1">
  <g id="patch_1">
   <path d="
M0 72
L72 72
L72 0
L0 0
z
" style="fill:none;"/>
  </g>
  <g id="axes_1">
   <g id="PatchCollection_1">
    <defs>
     <path d="
M36 -7.5
C43.5583 -7.5 50.808 -10.5029 56.1525 -15.8475
C61.4971 -21.192 64.5 -28.4417 64.5 -36
C64.5 -43.5583 61.4971 -50.808 56.1525 -56.1525
C50.808 -61.4971 43.5583 -64.5 36 -64.5
C28.4417 -64.5 21.192 -61.4971 15.8475 -56.1525
C10.5029 -50.808 7.5 -43.5583 7.5 -36
C7.5 -28.4417 10.5029 -21.192 15.8475 -15.8475
C21.192 -10.5029 28.4417 -7.5 36 -7.5
z
" id="C0_0_a811fe30f3"/>
     <path d="
M19.3711 -13.1241
L19.4544 -13.3567
L19.5573 -13.5799
L19.6792 -13.7939
L19.819 -13.9991
L19.9758 -14.196
L20.1487 -14.3851
L20.3364 -14.5669
L20.538 -14.7419
L20.7523 -14.9109
L20.9784 -15.0743
L21.2152 -15.2327
L21.4617 -15.3868
L21.7169 -15.5371
L21.9799 -15.684
L22.2498 -15.8281
L22.526 -15.9698
L22.8075 -16.1094
L23.0936 -16.2474
L23.3838 -16.384
L23.6774 -16.5196
L23.9738 -16.6543
L24.2726 -16.7885
L24.5731 -16.9223
L24.8751 -17.0558
L25.1781 -17.1892
L25.4817 -17.3227
L25.7857 -17.4563
L26.0896 -17.5901
L26.3932 -17.7242
L26.6963 -17.8586
L26.9987 -17.9934
L27.3001 -18.1286
L27.6004 -18.2642
L27.8995 -18.4003
L28.197 -18.5369
L28.4931 -18.6739
L28.7875 -18.8113
L29.0801 -18.9492
L29.3708 -19.0876
L29.6597 -19.2264
L29.9466 -19.3657
L30.2315 -19.5054
L30.5143 -19.6455
L30.795 -19.7859
L31.0736 -19.9268
L31.35 -20.068
L31.6244 -20.2096
L31.8965 -20.3516
L32.1666 -20.4939
L32.4344 -20.6365
L32.7002 -20.7794
L32.9639 -20.9226
L33.2254 -21.0662
L33.4849 -21.21
L33.7423 -21.3541
L33.9977 -21.4986
L34.2512 -21.6433
L34.5026 -21.7882
L34.7522 -21.9335
L34.9999 -22.0791
L35.2457 -22.2249
L35.4897 -22.3711
L35.732 -22.5175
L35.9725 -22.6643
L36.2113 -22.8113
L36.4486 -22.9587
L36.6842 -23.1064
L36.9182 -23.2545
L37.1508 -23.4029
L37.3819 -23.5517
L37.6116 -23.7009
L37.8399 -23.8505
L38.0669 -24.0005
L38.2926 -24.1509
L38.5171 -24.3018
L38.7404 -24.4532
L38.9626 -24.605
L39.1837 -24.7574
L39.4037 -24.9103
L39.6227 -25.0638
L39.8407 -25.2178
L40.0579 -25.3725
L40.2742 -25.5278
L40.4896 -25.6837
L40.7043 -25.8404
L40.9182 -25.9977
L41.1314 -26.1558
L41.556 -26.3147
L41.7674 -26.4743
L41.9782 -26.6348
L42.1886 -26.7962
L42.3986 -26.9584
L42.6081 -27.1216
L42.8172 -27.2857
L43.026 -27.4509
L43.2346 -27.617
L43.4429 -27.7842
L43.6509 -27.9525
L43.8588 -28.122
L44.0665 -28.2926
L44.2741 -28.4644
L44.4817 -28.6375
L44.6892 -28.8118
L44.8967 -28.9875
L45.1042 -29.1645
L45.3117 -29.343
L45.5194 -29.5229
L45.7271 -29.7042
L45.935 -29.8871
L46.1431 -30.0715
L46.3514 -30.2575
L46.5598 -30.4452
L46.7686 -30.6345
L46.9776 -30.8256
L47.1868 -31.0184
L47.3964 -31.213
L47.6064 -31.4095
L47.8167 -31.6078
L48.0273 -31.8081
L48.2383 -32.0103
L48.4497 -32.2144
L48.6616 -32.4206
L48.8738 -32.6289
L49.0865 -32.8392
L49.2996 -33.0516
L49.5131 -33.2662
L49.7271 -33.4829
L49.9415 -33.7018
L50.1564 -33.9229
L50.3716 -34.1463
L50.5874 -34.3718
L50.8035 -34.5996
L51.02 -34.8296
L51.237 -35.0618
L51.4543 -35.2963
L51.6721 -35.5329
L51.8901 -35.7717
L52.1085 -36.0127
L52.3272 -36.2557
L52.5462 -36.5008
L52.7655 -36.7479
L52.985 -36.9969
L53.2047 -37.2476
L53.4246 -37.5002
L53.6446 -37.7543
L53.8648 -38.0098
L54.0851 -38.2667
L54.3055 -38.5247
L54.526 -38.7837
L54.7465 -39.0433
L54.9671 -39.3035
L55.1877 -39.5639
L55.4083 -39.8241
L55.629 -40.0839
L55.8497 -40.3429
L56.0705 -40.6007
L56.2915 -40.8569
L56.5127 -41.1108
L56.7341 -41.3621
L56.9559 -41.6101
L57.1781 -41.8542
L57.4009 -42.0937
L57.6245 -42.3278
L57.8489 -42.5557
L58.0744 -42.7767
L58.3012 -42.9897
L58.5295 -43.1939
L58.7595 -43.3881
L58.9914 -43.5714
L59.2256 -43.7427
L59.4622 -43.9009
L59.7014 -44.0449
L59.9434 -44.1735
L60.1885 -44.2857
L60.4367 -44.3804
L60.6881 -44.4567
L60.9427 -44.5137
L61.2004 -44.5507
L61.4611 -44.5668
L61.7247 -44.5617
L61.9907 -44.535
L62.2589 -44.4863
L62.5289 -44.4156
L62.8001 -44.3229
L63.072 -44.2084
L63.344 -44.0724
L63.5103 -43.9152
L63.636 -43.4455
L63.7533 -42.9643
L63.8622 -42.4809
L63.9626 -41.9956
L64.0545 -41.5084
L64.1378 -41.0195
L64.2126 -40.5291
L64.2787 -40.0374
L64.3363 -39.5444
L64.3852 -39.0503
L64.4255 -38.5553
L64.4571 -38.0595
L64.48 -37.5631
L64.4943 -37.0662
L64.4999 -36.569
L64.4968 -36.0717
L64.485 -35.5742
L64.4646 -35.077
L64.4355 -34.58
L64.3977 -34.0834
L64.3513 -33.5874
L64.2962 -33.0922
L64.2325 -32.5979
L64.1602 -32.1045
L64.0794 -31.6124
L63.99 -31.1216
L63.892 -30.6323
L63.7856 -30.1446
L63.6707 -29.6587
L63.5473 -29.1748
L63.4156 -28.6929
L63.2755 -28.2132
L63.1272 -27.736
L62.9705 -27.2612
L62.8057 -26.7891
L62.6326 -26.3198
L62.4515 -25.8534
L62.2623 -25.3902
L62.0651 -24.9302
L61.86 -24.4735
L61.647 -24.0204
L61.4261 -23.5709
L61.1976 -23.1252
L60.9613 -22.6834
L60.7175 -22.2456
L60.4661 -21.8121
L60.2073 -21.3829
L59.9411 -20.9581
L59.6676 -20.5379
L59.3869 -20.1225
L59.099 -19.7118
L58.8042 -19.3061
L58.5023 -18.9056
L58.1937 -18.5102
L57.8783 -18.1201
L57.5562 -17.7355
L57.2275 -17.3565
L56.8924 -16.9831
L56.5509 -16.6155
L56.2031 -16.2538
L55.8492 -15.8982
L55.4893 -15.5487
L55.1234 -15.2054
L54.7517 -14.8684
L54.3743 -14.5379
L53.9913 -14.2139
L53.6028 -13.8965
L53.2089 -13.5859
L52.8098 -13.2821
L52.4056 -12.9852
L51.9964 -12.6953
L51.5823 -12.4126
L51.1634 -12.137
L50.74 -11.8687
L50.312 -11.6077
L49.8797 -11.3542
L49.4432 -11.1082
L49.0025 -10.8697
L48.5579 -10.6389
L48.1095 -10.4159
L47.6574 -10.2006
L47.2018 -9.99318
L46.7427 -9.79369
L46.2803 -9.60219
L45.8149 -9.41872
L45.3464 -9.24335
L44.8751 -9.07613
L44.4011 -8.91712
L43.9245 -8.76635
L43.4455 -8.62388
L42.9643 -8.48975
L42.4809 -8.36399
L41.9956 -8.24666
L41.5084 -8.13778
L41.0195 -8.03739
L40.5291 -7.94551
L40.0374 -7.86218
L39.5444 -7.78742
L39.0503 -7.72126
L38.5553 -7.66371
L38.0595 -7.61479
L37.5631 -7.57451
L37.0662 -7.5429
L36.569 -7.51995
L36.0717 -7.50568
L35.5742 -7.50009
L35.077 -7.50318
L34.58 -7.51495
L34.0834 -7.5354
L33.5874 -7.56452
L33.0922 -7.6023
L32.5979 -7.64873
L32.1045 -7.70379
L31.6124 -7.76748
L31.1216 -7.83976
L30.6323 -7.92063
L30.1446 -8.01004
L29.6587 -8.10798
L29.1748 -8.21442
L28.6929 -8.32932
L28.2132 -8.45266
L27.736 -8.58438
L27.2612 -8.72445
L26.7891 -8.87283
L26.3198 -9.02948
L25.8534 -9.19434
L25.3902 -9.36736
L24.9302 -9.5485
L24.4735 -9.7377
L24.0204 -9.93489
L23.5709 -10.14
L23.1252 -10.353
L22.6834 -10.5739
L22.2456 -10.8024
L21.8121 -11.0387
L21.3829 -11.2825
L20.9581 -11.5339
L20.5379 -11.7927
L20.1225 -12.0589
L19.7118 -12.3324
z
" id="C0_1_8868f94291"/>
     <path d="
M8.73039 -28.3595
L8.86696 -28.6641
L9.00211 -28.9787
L9.13638 -29.3023
L9.27028 -29.6338
L9.40425 -29.9722
L9.53873 -30.3164
L9.67409 -30.6656
L9.81066 -31.0188
L9.94872 -31.3753
L10.0885 -31.7342
L10.2303 -32.0949
L10.3742 -32.4567
L10.5203 -32.819
L10.6688 -33.1813
L10.8197 -33.543
L10.9731 -33.9038
L11.1289 -34.2633
L11.2873 -34.6209
L11.4482 -34.9765
L11.6116 -35.3297
L11.7773 -35.6803
L11.9455 -36.0281
L12.116 -36.3728
L12.2888 -36.7142
L12.4637 -37.0523
L12.6408 -37.3868
L12.8199 -37.7178
L13.001 -38.045
L13.184 -38.3684
L13.3688 -38.6879
L13.5553 -39.0036
L13.7434 -39.3154
L13.9332 -39.6231
L14.1245 -39.927
L14.3171 -40.2268
L14.5112 -40.5227
L14.7066 -40.8147
L14.9032 -41.1027
L15.1009 -41.3869
L15.2998 -41.6672
L15.4998 -41.9437
L15.7008 -42.2163
L15.9028 -42.4853
L16.1057 -42.7506
L16.3095 -43.0122
L16.5142 -43.2703
L16.7197 -43.5248
L16.926 -43.7759
L17.1331 -44.0235
L17.341 -44.2678
L17.5496 -44.5089
L17.7589 -44.7467
L17.9689 -44.9813
L18.1796 -45.2128
L18.391 -45.4413
L18.6031 -45.6668
L18.8159 -45.8894
L19.0294 -46.1091
L19.2436 -46.326
L19.4584 -46.5401
L19.674 -46.7516
L19.8903 -46.9605
L20.1072 -47.1668
L20.325 -47.3706
L20.5434 -47.5719
L20.7627 -47.7708
L20.9827 -47.9673
L21.2035 -48.1616
L21.4252 -48.3536
L21.6477 -48.5434
L21.8711 -48.731
L22.0954 -48.9165
L22.3207 -49.1
L22.5469 -49.2814
L22.7741 -49.4608
L23.0023 -49.6383
L23.2316 -49.8139
L23.462 -49.9877
L23.6935 -50.1596
L23.9262 -50.3297
L24.1601 -50.498
L24.3953 -50.6647
L24.6317 -50.8296
L24.8695 -50.9928
L25.1087 -51.1544
L25.3493 -51.3144
L25.5914 -51.4728
L25.835 -51.6296
L26.0802 -51.7849
L26.3269 -51.9386
L26.5754 -52.0908
L26.8255 -52.2415
L27.0775 -52.3907
L27.3312 -52.5384
L27.5868 -52.6847
L27.8443 -52.8295
L28.1038 -52.9728
L28.3654 -53.1147
L28.629 -53.2552
L28.8948 -53.3942
L29.1628 -53.5318
L29.433 -53.6679
L29.7055 -53.8025
L29.9804 -53.9357
L30.2577 -54.0674
L30.5376 -54.1976
L30.8199 -54.3263
L31.1048 -54.4535
L31.3924 -54.5791
L31.6827 -54.7032
L31.9758 -54.8257
L32.2716 -54.9466
L32.5703 -55.0658
L32.872 -55.1834
L33.1765 -55.2993
L33.4841 -55.4134
L33.7948 -55.5257
L34.1085 -55.6363
L34.4254 -55.7449
L34.7454 -55.8517
L35.0687 -55.9565
L35.3951 -56.0593
L35.7249 -56.16
L36.0578 -56.2587
L36.3941 -56.3552
L36.7337 -56.4494
L37.0765 -56.5414
L37.4226 -56.6311
L37.772 -56.7184
L38.1247 -56.8033
L38.4805 -56.8856
L38.8396 -56.9654
L39.2017 -57.0427
L39.5669 -57.1173
L39.9351 -57.1892
L40.3062 -57.2583
L40.68 -57.3247
L41.0565 -57.3884
L41.4354 -57.4492
L41.8168 -57.5073
L42.2003 -57.5625
L42.5858 -57.615
L42.973 -57.6647
L43.3617 -57.7117
L43.7516 -57.7561
L44.1425 -57.7981
L44.534 -57.8376
L44.9257 -57.8749
L45.3172 -57.9102
L45.7082 -57.9436
L46.0981 -57.9755
L46.4865 -58.0061
L46.8728 -58.0359
L47.2565 -58.0651
L47.637 -58.0943
L48.0135 -58.124
L48.3855 -58.1546
L48.7522 -58.1869
L49.1129 -58.2214
L49.4667 -58.2589
L49.8129 -58.3002
L50.1507 -58.346
L50.4791 -58.3972
L50.7974 -58.4545
L51.1047 -58.5189
L51.4003 -58.5911
L51.6832 -58.672
L51.9528 -58.7622
L52.2084 -58.8624
L52.4494 -58.9733
L52.2776 -59.0952
L51.8668 -59.3942
L51.4512 -59.6748
L51.0309 -59.9481
L50.606 -60.2141
L50.1767 -60.4727
L49.743 -60.7239
L49.3052 -60.9676
L48.8633 -61.2036
L48.4175 -61.432
L47.9679 -61.6526
L47.5147 -61.8654
L47.0579 -62.0703
L46.5978 -62.2673
L46.1345 -62.4563
L45.6681 -62.6372
L45.1987 -62.81
L44.7265 -62.9747
L44.2517 -63.1311
L43.7743 -63.2793
L43.2946 -63.4191
L42.8127 -63.5507
L42.3287 -63.6738
L41.8427 -63.7884
L41.355 -63.8947
L40.8657 -63.9924
L40.3748 -64.0816
L39.8827 -64.1622
L39.3893 -64.2343
L38.8949 -64.2977
L38.3997 -64.3526
L37.9037 -64.3988
L37.4071 -64.4363
L36.9101 -64.4652
L36.4128 -64.4855
L35.9154 -64.497
L35.418 -64.4999
L34.9208 -64.4941
L34.424 -64.4796
L33.9276 -64.4564
L33.4318 -64.4246
L32.9368 -64.3841
L32.4428 -64.3349
L31.9498 -64.2771
L31.4581 -64.2107
L30.9678 -64.1358
L30.4789 -64.0522
L29.9918 -63.9601
L29.5065 -63.8595
L29.0232 -63.7504
L28.542 -63.6328
L28.0631 -63.5069
L27.5866 -63.3725
L27.1126 -63.2298
L26.6414 -63.0789
L26.173 -62.9196
L25.7076 -62.7522
L25.2453 -62.5766
L24.7864 -62.3929
L24.3308 -62.2012
L23.8788 -62.0015
L23.4305 -61.7939
L22.986 -61.5784
L22.5454 -61.3552
L22.109 -61.1242
L21.6768 -60.8855
L21.249 -60.6393
L20.8256 -60.3856
L20.4069 -60.1244
L19.993 -59.8559
L19.5839 -59.5802
L19.1798 -59.2972
L18.7808 -59.0072
L18.3871 -58.7101
L17.9987 -58.4061
L17.6158 -58.0953
L17.2386 -57.7778
L16.867 -57.4536
L16.5013 -57.1229
L16.1415 -56.7858
L15.7877 -56.4423
L15.4402 -56.0927
L15.0988 -55.7368
L14.7639 -55.375
L14.4354 -55.0073
L14.1135 -54.6338
L13.7982 -54.2546
L13.4897 -53.8698
L13.1881 -53.4796
L12.8934 -53.0841
L12.6058 -52.6834
L12.3252 -52.2776
L12.0519 -51.8668
L11.7859 -51.4512
L11.5273 -51.0309
L11.2761 -50.606
L11.0324 -50.1767
L10.7964 -49.743
L10.568 -49.3052
L10.3474 -48.8633
L10.1346 -48.4175
L9.92967 -47.9679
L9.73268 -47.5147
L9.54369 -47.0579
L9.36277 -46.5978
L9.18995 -46.1345
L9.0253 -45.6681
L8.86887 -45.1987
L8.72071 -44.7265
L8.58085 -44.2517
L8.44935 -43.7743
L8.32623 -43.2946
L8.21155 -42.8127
L8.10533 -42.3287
L8.00761 -41.8427
L7.91842 -41.355
L7.83778 -40.8657
L7.76571 -40.3748
L7.70225 -39.8827
L7.64741 -39.3893
L7.6012 -38.8949
L7.56365 -38.3997
L7.53476 -37.9037
L7.51454 -37.4071
L7.50299 -36.9101
L7.50013 -36.4128
L7.50594 -35.9154
L7.52044 -35.418
L7.54361 -34.9208
L7.57545 -34.424
L7.61595 -33.9276
L7.66509 -33.4318
L7.72287 -32.9368
L7.78925 -32.4428
L7.86424 -31.9498
L7.94779 -31.4581
L8.03989 -30.9678
L8.1405 -30.4789
L8.2496 -29.9918
L8.36715 -29.5065
z
" id="C0_2_cfb438b71f"/>
    </defs>
    <g clip-path="url(#p1bffca34e9)">
     <use style="fill:#ff0000;stroke:#000000;stroke-width:2.0;" x="0.0" xlink:href="#C0_0_a811fe30f3" y="72.0"/>
    </g>
    <g clip-path="url(#p1bffca34e9)">
     <use style="fill:#ffffff;stroke:#000000;stroke-width:2.0;" x="0.0" xlink:href="#C0_1_8868f94291" y="72.0"/>
    </g>
    <g clip-path="url(#p1bffca34e9)">
     <use style="fill:#ffffff;stroke:#000000;stroke-width:2.0;" x="0.0" xlink:href="#C0_2_cfb438b71f" y="72.0"/>
    </g>
   </g>
  </g>
 </g>
 <defs>
  <clipPath id="p1bffca34e9">
   <rect height="72.0" width="72.0" x="0.0" y="0.0"/>
  </clipPath>
 </defs>
</svg>
