<?xml version="1.0" encoding="utf-8" standalone="no"?>
<!DOCTYPE svg PUBLIC "-//W3C//DTD SVG 1.1//EN"
  "http://www.w3.org/Graphics/SVG/1.1/DTD/svg11.dtd">
<!-- Created with matplotlib (http://matplotlib.org/) -->
<svg height="72pt" version="1.1" viewBox="0 0 72 72" width="72pt" xmlns="http://www.w3.org/2000/svg" xmlns:xlink="http://www.w3.org/1999/xlink">
 <defs>
  <style type="text/css">
*{stroke-linecap:butt;stroke-linejoin:round;}
  </style>
 </defs>
 <g id="figure_1">
  <g id="patch_1">
   <path d="
M0 72
L72 72
L72 0
L0 0
z
" style="fill:none;"/>
  </g>
  <g id="axes_1">
   <g id="PatchCollection_1">
    <defs>
     <path d="
M36 -7.5
C43.5583 -7.5 50.808 -10.5029 56.1525 -15.8475
C61.4971 -21.192 64.5 -28.4417 64.5 -36
C64.5 -43.5583 61.4971 -50.808 56.1525 -56.1525
C50.808 -61.4971 43.5583 -64.5 36 -64.5
C28.4417 -64.5 21.192 -61.4971 15.8475 -56.1525
C10.5029 -50.808 7.5 -43.5583 7.5 -36
C7.5 -28.4417 10.5029 -21.192 15.8475 -15.8475
C21.192 -10.5029 28.4417 -7.5 36 -7.5
z
" id="C0_0_a811fe30f3"/>
     <path d="
M53.6438 -58.2024
L53.4061 -58.0684
L53.2865 -57.9334
L53.1665 -57.7975
L53.0458 -57.6604
L52.9246 -57.5223
L52.8028 -57.3831
L52.6804 -57.2427
L52.5572 -57.1012
L52.4334 -56.9584
L52.3088 -56.8144
L52.1834 -56.6691
L52.0572 -56.5225
L51.9301 -56.3745
L51.8021 -56.2251
L51.6732 -56.0742
L51.5433 -55.9218
L51.4123 -55.7678
L51.2803 -55.6123
L51.1473 -55.4551
L51.013 -55.2962
L50.8776 -55.1355
L50.741 -54.973
L50.6031 -54.8087
L50.4639 -54.6424
L50.3233 -54.4742
L50.1813 -54.3039
L50.0379 -54.1316
L49.893 -53.9571
L49.7466 -53.7803
L49.5986 -53.6013
L49.4489 -53.42
L49.2976 -53.2362
L49.1446 -53.05
L48.9898 -52.8612
L48.8332 -52.6698
L48.6747 -52.4757
L48.5144 -52.2789
L48.3521 -52.0793
L48.1878 -51.8767
L48.0214 -51.6712
L47.853 -51.4627
L47.6825 -51.2511
L47.5098 -51.0363
L47.335 -50.8182
L47.1579 -50.5968
L46.9785 -50.372
L46.7968 -50.1438
L46.6128 -49.912
L46.4265 -49.6766
L46.2378 -49.4376
L46.0467 -49.1948
L45.8532 -48.9482
L45.6574 -48.6977
L45.4591 -48.4433
L45.2584 -48.185
L45.0554 -47.9227
L44.85 -47.6562
L44.6423 -47.3857
L44.4324 -47.1111
L44.2203 -46.8322
L44.006 -46.5492
L43.7897 -46.262
L43.5715 -45.9706
L43.3515 -45.675
L43.1299 -45.3751
L42.9068 -45.0711
L42.6825 -44.763
L42.4571 -44.4508
L42.231 -44.1345
L42.0045 -43.8143
L41.778 -43.4902
L41.5519 -43.1623
L41.3266 -42.8307
L41.1028 -42.4957
L40.8811 -42.1572
L40.6622 -41.8156
L40.447 -41.471
L40.2366 -41.1236
L40.0321 -40.7737
L39.8348 -40.4216
L39.6463 -40.0676
L39.4684 -39.712
L39.3029 -39.3551
L39.1523 -38.9975
L39.0188 -38.6395
L38.9052 -38.2816
L38.8141 -37.9244
L38.7481 -37.5683
L38.7095 -37.2139
L38.7003 -36.8617
L38.7215 -36.5121
L38.7738 -36.1655
L38.8565 -35.8222
L38.9685 -35.4824
L39.1077 -35.1464
L39.2719 -34.814
L39.4583 -34.4853
L39.6642 -34.1603
L39.887 -33.839
L40.1242 -33.5211
L40.3735 -33.2068
L40.6329 -32.896
L40.9005 -32.5886
L41.1748 -32.2847
L41.4545 -31.9843
L41.7383 -31.6873
L42.0251 -31.3939
L42.3142 -31.104
L42.6046 -30.8177
L42.8958 -30.535
L43.1871 -30.2559
L43.478 -29.9805
L43.7681 -29.7088
L44.057 -29.4409
L44.3444 -29.1767
L44.6299 -28.9162
L44.9134 -28.6596
L45.1946 -28.4067
L45.4734 -28.1576
L45.7495 -27.9123
L46.0229 -27.6707
L46.2935 -27.4329
L46.561 -27.1988
L46.8256 -26.9684
L47.0871 -26.7417
L47.3455 -26.5186
L47.6007 -26.299
L47.8528 -26.083
L48.1017 -25.8706
L48.3475 -25.6615
L48.5901 -25.4559
L48.8295 -25.2536
L49.0658 -25.0546
L49.2991 -24.8589
L49.5293 -24.6663
L49.7564 -24.4768
L49.9806 -24.2904
L50.2019 -24.107
L50.4202 -23.9265
L50.6357 -23.7488
L50.8485 -23.574
L51.0585 -23.4019
L51.2658 -23.2325
L51.4705 -23.0657
L51.6727 -22.9014
L51.8723 -22.7397
L52.0695 -22.5804
L52.2644 -22.4234
L52.4569 -22.2688
L52.6471 -22.1164
L52.8351 -21.9662
L53.021 -21.8182
L53.2048 -21.6722
L53.3866 -21.5283
L53.5664 -21.3863
L53.7442 -21.2463
L53.9203 -21.1081
L54.0945 -20.9717
L54.267 -20.8371
L54.4377 -20.7043
L54.6069 -20.5731
L54.7745 -20.4435
L54.9405 -20.3155
L55.1051 -20.189
L55.2683 -20.0641
L55.43 -19.9406
L55.5905 -19.8185
L55.7497 -19.6978
L55.9076 -19.5784
L56.0644 -19.4603
L56.2201 -19.3435
L56.3747 -19.2279
L56.5282 -19.1135
L56.6807 -19.0002
L56.8323 -18.8881
L56.983 -18.7771
L57.1328 -18.6672
L57.2818 -18.5583
L57.43 -18.4504
L57.5775 -18.3436
L57.7243 -18.2376
L57.8704 -18.1327
L58.0159 -18.0286
L58.3399 -17.9255
L58.6453 -18.3031
L58.9439 -18.6957
L59.2354 -19.0935
L59.5199 -19.4965
L59.7972 -19.9045
L60.0673 -20.3175
L60.3301 -20.7352
L60.5854 -21.1575
L60.8332 -21.5844
L61.0735 -22.0157
L61.3061 -22.4512
L61.5311 -22.8909
L61.7482 -23.3345
L61.9575 -23.782
L62.1589 -24.2333
L62.3524 -24.6881
L62.5378 -25.1463
L62.7151 -25.6079
L62.8843 -26.0726
L63.0453 -26.5404
L63.1981 -27.011
L63.3425 -27.4844
L63.4787 -27.9604
L63.6065 -28.4388
L63.7258 -28.9195
L63.8367 -29.4024
L63.9392 -29.8873
L64.0331 -30.374
L64.1185 -30.8625
L64.1953 -31.3525
L64.2636 -31.844
L64.3232 -32.3367
L64.3742 -32.8305
L64.4166 -33.3253
L64.4503 -33.8209
L64.4753 -34.3172
L64.4917 -34.8139
L64.4994 -35.3111
L64.4984 -35.8084
L64.4887 -36.3058
L64.4703 -36.8032
L64.4433 -37.3002
L64.4076 -37.7969
L64.3633 -38.293
L64.3103 -38.7885
L64.2487 -39.2831
L64.1784 -39.7766
L64.0997 -40.2691
L64.0123 -40.7602
L63.9164 -41.2499
L63.812 -41.738
L63.6991 -42.2243
L63.5778 -42.7087
L63.4481 -43.1911
L63.3101 -43.6713
L63.1637 -44.1492
L63.009 -44.6246
L62.8462 -45.0974
L62.6751 -45.5673
L62.4959 -46.0344
L62.3086 -46.4984
L62.1134 -46.9592
L61.9101 -47.4167
L61.699 -47.8707
L61.4801 -48.3211
L61.2534 -48.7678
L61.019 -49.2105
L60.7769 -49.6492
L60.5274 -50.0838
L60.2703 -50.514
L60.0059 -50.9399
L59.7342 -51.3612
L59.4552 -51.7778
L59.1691 -52.1896
L58.8759 -52.5965
L58.5757 -52.9983
L58.2687 -53.395
L57.9549 -53.7864
L57.6344 -54.1723
L57.3073 -54.5527
L56.9738 -54.9274
L56.6338 -55.2964
L56.2875 -55.6595
L55.9351 -56.0166
L55.5766 -56.3676
L55.2122 -56.7125
L54.8418 -57.051
L54.4658 -57.3831
z
" id="C0_1_33615953ce"/>
     <path d="
M14.0901 -53.971
L14.2204 -53.8475
L14.3517 -53.7232
L14.484 -53.598
L14.6174 -53.4719
L14.752 -53.3449
L14.8877 -53.2169
L15.0245 -53.088
L15.1626 -52.9579
L15.302 -52.8268
L15.4427 -52.6946
L15.5848 -52.5612
L15.7282 -52.4267
L15.8731 -52.2908
L16.0195 -52.1537
L16.1674 -52.0153
L16.3169 -51.8755
L16.4681 -51.7342
L16.6209 -51.5915
L16.7755 -51.4473
L16.9318 -51.3015
L17.09 -51.1541
L17.2501 -51.005
L17.4121 -50.8542
L17.5762 -50.7016
L17.7423 -50.5472
L17.9105 -50.3909
L18.0809 -50.2327
L18.2535 -50.0725
L18.4284 -49.9102
L18.6057 -49.7459
L18.7854 -49.5793
L18.9676 -49.4106
L19.1522 -49.2395
L19.3395 -49.0662
L19.5294 -48.8904
L19.7221 -48.7121
L19.9175 -48.5313
L20.1157 -48.348
L20.3168 -48.162
L20.5208 -47.9732
L20.7278 -47.7818
L20.9379 -47.5874
L21.151 -47.3902
L21.3673 -47.19
L21.5868 -46.9869
L21.8095 -46.7806
L22.0354 -46.5713
L22.2646 -46.3588
L22.4971 -46.143
L22.7329 -45.924
L22.9721 -45.7017
L23.2145 -45.476
L23.4603 -45.2468
L23.7094 -45.0143
L23.9617 -44.7783
L24.2173 -44.5388
L24.476 -44.2957
L24.7378 -44.0491
L25.0025 -43.799
L25.2701 -43.5453
L25.5405 -43.288
L25.8134 -43.0271
L26.0886 -42.7627
L26.3659 -42.4947
L26.6451 -42.2231
L26.9258 -41.9481
L27.2076 -41.6696
L27.4901 -41.3876
L27.7728 -41.1022
L28.0552 -40.8134
L28.3366 -40.5213
L28.6162 -40.2259
L28.8931 -39.9273
L29.1663 -39.6254
L29.4346 -39.3204
L29.6966 -39.0122
L29.9508 -38.7008
L30.1954 -38.3863
L30.4284 -38.0687
L30.6474 -37.7478
L30.8501 -37.4236
L31.0337 -37.0961
L31.1956 -36.7652
L31.333 -36.4308
L31.4437 -36.093
L31.5256 -35.7517
L31.5776 -35.407
L31.5991 -35.0591
L31.5905 -34.7082
L31.5531 -34.3548
L31.4888 -33.9993
L31.3998 -33.6421
L31.2889 -33.2837
L31.1586 -32.9246
L31.0115 -32.5654
L30.8502 -32.2064
L30.6767 -31.8482
L30.4932 -31.4911
L30.3013 -31.1354
L30.1026 -30.7816
L29.8984 -30.43
L29.6898 -30.0808
L29.478 -29.7342
L29.2636 -29.3905
L29.0476 -29.0499
L28.8304 -28.7126
L28.6127 -28.3787
L28.395 -28.0484
L28.1776 -27.7218
L27.9609 -27.399
L27.7452 -27.08
L27.5308 -26.765
L27.318 -26.4541
L27.1068 -26.1471
L26.8976 -25.8443
L26.6903 -25.5456
L26.4852 -25.2511
L26.2823 -24.9607
L26.0818 -24.6744
L25.8836 -24.3922
L25.6879 -24.1142
L25.4947 -23.8402
L25.304 -23.5703
L25.1158 -23.3043
L24.9301 -23.0424
L24.747 -22.7843
L24.5664 -22.5301
L24.3883 -22.2797
L24.2128 -22.0331
L24.0397 -21.7901
L23.8691 -21.5508
L23.7009 -21.315
L23.5351 -21.0828
L23.3717 -20.8539
L23.2106 -20.6284
L23.0518 -20.4061
L22.8952 -20.1871
L22.7409 -19.9712
L22.5887 -19.7584
L22.4386 -19.5485
L22.2906 -19.3416
L22.1447 -19.1375
L22.0007 -18.9362
L21.8586 -18.7376
L21.7185 -18.5416
L21.5802 -18.3482
L21.4437 -18.1573
L21.3089 -17.9688
L21.1758 -17.7827
L21.0444 -17.5989
L20.9147 -17.4173
L20.7865 -17.2378
L20.6598 -17.0605
L20.5346 -16.8852
L20.4109 -16.7119
L20.2886 -16.5405
L20.1676 -16.3709
L20.048 -16.2032
L19.9296 -16.0372
L19.8125 -15.8729
L19.6966 -15.7103
L19.5819 -15.5492
L19.4683 -15.3897
L19.3558 -15.2316
L19.2444 -15.075
L19.134 -14.9198
L19.0246 -14.7659
L18.9162 -14.6134
L18.8087 -14.462
L18.7021 -14.3119
L18.5964 -14.1629
L18.4915 -14.0151
L18.3874 -13.8683
L17.8744 -13.7226
L17.4933 -14.0065
L17.1179 -14.3262
L16.7482 -14.6525
L16.3844 -14.9853
L16.0265 -15.3245
L15.6748 -15.67
L15.3292 -16.0217
L14.9899 -16.3794
L14.657 -16.7432
L14.3306 -17.1128
L14.0109 -17.4881
L13.6978 -17.8691
L13.3915 -18.2557
L13.0921 -18.6476
L12.7997 -19.0448
L12.5143 -19.4472
L12.2361 -19.8546
L11.9652 -20.267
L11.7015 -20.6841
L11.4453 -21.1059
L11.1965 -21.5322
L10.9553 -21.963
L10.7218 -22.398
L10.4959 -22.8371
L10.2778 -23.2803
L10.0675 -23.7274
L9.86515 -24.1781
L9.67074 -24.6325
L9.48435 -25.0904
L9.30604 -25.5515
L9.13586 -26.0159
L8.97386 -26.4833
L8.82009 -26.9536
L8.67461 -27.4266
L8.53744 -27.9023
L8.40865 -28.3804
L8.28825 -28.8609
L8.1763 -29.3435
L8.07283 -29.8281
L7.97786 -30.3147
L7.89142 -30.8029
L7.81355 -31.2928
L7.74427 -31.7841
L7.68359 -32.2766
L7.63154 -32.7703
L7.58812 -33.265
L7.55337 -33.7605
L7.52727 -34.2567
L7.50986 -34.7534
L7.50112 -35.2505
L7.50106 -35.7479
L7.50968 -36.2453
L7.52698 -36.7426
L7.55295 -37.2397
L7.58759 -37.7365
L7.63088 -38.2327
L7.68282 -38.7282
L7.74338 -39.2229
L7.81254 -39.7166
L7.8903 -40.2092
L7.97661 -40.7005
L8.07147 -41.1904
L8.17483 -41.6786
L8.28666 -42.1652
L8.40694 -42.6499
L8.53562 -43.1325
L8.67267 -43.613
L8.81804 -44.0912
L8.97169 -44.5669
L9.13358 -45.0399
L9.30365 -45.5103
L9.48185 -45.9777
L9.66813 -46.4421
L9.86243 -46.9033
L10.0647 -47.3612
L10.2749 -47.8157
L10.4928 -48.2665
L10.7186 -48.7136
L10.9521 -49.1568
L11.1932 -49.596
L11.4418 -50.0311
L11.698 -50.4619
L11.9615 -50.8883
L12.2324 -51.3102
L12.5105 -51.7274
L12.7957 -52.1398
L13.0881 -52.5473
L13.3874 -52.9497
z
" id="C0_2_6ca84cee7c"/>
    </defs>
    <g clip-path="url(#p1bffca34e9)">
     <use style="fill:#ffffff;stroke:#000000;stroke-width:2.0;" x="0.0" xlink:href="#C0_0_a811fe30f3" y="72.0"/>
    </g>
    <g clip-path="url(#p1bffca34e9)">
     <use style="fill:#ff0000;stroke:#000000;stroke-width:2.0;" x="0.0" xlink:href="#C0_1_33615953ce" y="72.0"/>
    </g>
    <g clip-path="url(#p1bffca34e9)">
     <use style="fill:#ff0000;stroke:#000000;stroke-width:2.0;" x="0.0" xlink:href="#C0_2_6ca84cee7c" y="72.0"/>
    </g>
   </g>
  </g>
 </g>
 <defs>
  <clipPath id="p1bffca34e9">
   <rect height="72.0" width="72.0" x="0.0" y="0.0"/>
  </clipPath>
 </defs>
</svg>
