<?xml version="1.0" encoding="utf-8" standalone="no"?>
<!DOCTYPE svg PUBLIC "-//W3C//DTD SVG 1.1//EN"
  "http://www.w3.org/Graphics/SVG/1.1/DTD/svg11.dtd">
<!-- Created with matplotlib (http://matplotlib.org/) -->
<svg height="72pt" version="1.1" viewBox="0 0 72 72" width="72pt" xmlns="http://www.w3.org/2000/svg" xmlns:xlink="http://www.w3.org/1999/xlink">
 <defs>
  <style type="text/css">
*{stroke-linecap:butt;stroke-linejoin:round;}
  </style>
 </defs>
 <g id="figure_1">
  <g id="patch_1">
   <path d="
M0 72
L72 72
L72 0
L0 0
z
" style="fill:none;"/>
  </g>
  <g id="axes_1">
   <g id="PatchCollection_1">
    <defs>
     <path d="
M36 -7.5
C43.5583 -7.5 50.808 -10.5029 56.1525 -15.8475
C61.4971 -21.192 64.5 -28.4417 64.5 -36
C64.5 -43.5583 61.4971 -50.808 56.1525 -56.1525
C50.808 -61.4971 43.5583 -64.5 36 -64.5
C28.4417 -64.5 21.192 -61.4971 15.8475 -56.1525
C10.5029 -50.808 7.5 -43.5583 7.5 -36
C7.5 -28.4417 10.5029 -21.192 15.8475 -15.8475
C21.192 -10.5029 28.4417 -7.5 36 -7.5
z
" id="C0_0_a811fe30f3"/>
     <path d="
M26.8974 -47.1099
L26.7142 -46.9159
L26.5321 -46.7205
L26.3512 -46.5238
L26.1715 -46.3256
L25.9929 -46.1261
L25.8153 -45.925
L25.6388 -45.7224
L25.4632 -45.5182
L25.2887 -45.3123
L25.115 -45.1048
L24.9423 -44.8954
L24.7704 -44.6842
L24.5994 -44.4711
L24.4293 -44.2561
L24.2599 -44.039
L24.0913 -43.8198
L23.9234 -43.5985
L23.7564 -43.375
L23.59 -43.1491
L23.4244 -42.9209
L23.2595 -42.6902
L23.0952 -42.457
L22.9317 -42.2212
L22.7689 -41.9827
L22.6068 -41.7414
L22.4453 -41.4973
L22.2846 -41.2503
L22.1246 -41.0003
L21.9653 -40.7471
L21.8067 -40.4908
L21.6489 -40.2312
L21.4918 -39.9683
L21.3356 -39.7019
L21.1802 -39.4319
L21.0256 -39.1583
L20.872 -38.881
L20.7193 -38.5999
L20.5676 -38.3148
L20.417 -38.0257
L20.2674 -37.7326
L20.1191 -37.4352
L19.972 -37.1335
L19.8262 -36.8275
L19.6818 -36.517
L19.5389 -36.2019
L19.3976 -35.8821
L19.258 -35.5577
L19.1203 -35.2284
L18.9844 -34.8943
L18.8507 -34.5551
L18.7191 -34.211
L18.5899 -33.8617
L18.4633 -33.5073
L18.3393 -33.1477
L18.2182 -32.7829
L18.1002 -32.4128
L17.9855 -32.0373
L17.8742 -31.6566
L17.7667 -31.2705
L17.6631 -30.8791
L17.5638 -30.4825
L17.469 -30.0806
L17.3789 -29.6735
L17.2939 -29.2612
L17.2143 -28.844
L17.1404 -28.4219
L17.0727 -27.995
L17.0114 -27.5636
L16.9569 -27.1277
L16.9097 -26.6877
L16.8703 -26.2439
L16.8391 -25.7965
L16.8166 -25.3459
L16.8034 -24.8926
L16.8001 -24.4369
L16.8074 -23.9796
L16.8259 -23.5211
L16.8567 -23.0624
L16.9004 -22.6042
L16.9584 -22.1477
L17.0316 -21.6939
L17.1217 -21.2445
L17.23 -20.801
L17.3585 -20.3655
L17.5092 -19.9402
L17.6842 -19.5278
L17.8856 -19.1311
L18.1154 -18.7529
L18.3749 -18.3961
L18.6648 -18.0629
L18.9846 -17.7549
L19.3328 -17.4728
L19.7069 -17.2166
L20.1038 -16.9853
L20.5203 -16.7777
L20.9531 -16.5923
L21.399 -16.4276
L21.8554 -16.2819
L22.3199 -16.154
L22.7904 -16.0426
L23.2652 -15.9466
L23.7429 -15.865
L24.2222 -15.797
L24.7019 -15.7417
L25.1813 -15.6985
L25.6595 -15.6666
L26.1357 -15.6456
L26.6096 -15.6348
L27.0804 -15.6338
L27.5479 -15.642
L28.0115 -15.659
L28.471 -15.6844
L28.926 -15.7177
L29.3763 -15.7585
L29.8218 -15.8065
L30.2621 -15.8613
L30.6973 -15.9225
L31.127 -15.9898
L31.5513 -16.063
L31.9701 -16.1416
L32.3832 -16.2254
L32.7908 -16.3141
L33.1926 -16.4074
L33.5888 -16.5052
L33.9793 -16.6071
L34.3641 -16.7129
L34.7433 -16.8224
L35.117 -16.9354
L35.4851 -17.0517
L35.8477 -17.1711
L36.2049 -17.2935
L36.5567 -17.4187
L36.9033 -17.5464
L37.2447 -17.6767
L37.5809 -17.8093
L37.9121 -17.9441
L38.2384 -18.0809
L38.5598 -18.2198
L38.8765 -18.3606
L39.1886 -18.5031
L39.496 -18.6473
L39.799 -18.7932
L40.0977 -18.9406
L40.3921 -19.0894
L40.6823 -19.2397
L40.9685 -19.3913
L41.2506 -19.5442
L41.529 -19.6983
L41.8035 -19.8536
L42.0744 -20.0102
L42.3417 -20.1678
L42.6055 -20.3265
L42.8659 -20.4864
L43.123 -20.6472
L43.3768 -20.8092
L43.6276 -20.9721
L43.8753 -21.1361
L44.12 -21.301
L44.3619 -21.467
L44.601 -21.634
L44.8373 -21.802
L45.071 -21.9709
L45.3022 -22.1409
L45.5309 -22.312
L45.7571 -22.484
L45.9811 -22.6571
L46.2027 -22.8313
L46.4221 -23.0066
L46.6394 -23.183
L46.8546 -23.3605
L47.0679 -23.5391
L47.2791 -23.719
L47.4884 -23.9
L47.696 -24.0823
L47.9017 -24.2659
L48.1057 -24.4508
L48.308 -24.637
L48.5087 -24.8246
L48.7078 -25.0136
L48.9053 -25.2042
L49.1014 -25.3962
L49.296 -25.5897
L49.4892 -25.7849
L49.6811 -25.9818
L49.8716 -26.1803
L50.0608 -26.3806
L50.2487 -26.5827
L50.4355 -26.7867
L50.621 -26.9926
L50.8053 -27.2005
L50.9885 -27.4104
L51.1706 -27.6225
L51.3515 -27.8367
L51.5314 -28.0532
L51.7102 -28.272
L51.888 -28.4931
L52.0647 -28.7168
L52.2404 -28.9429
L52.4151 -29.1717
L52.5887 -29.4032
L52.7613 -29.6374
L52.9329 -29.8745
L53.1035 -30.1145
L53.273 -30.3576
L53.4415 -30.6037
L53.609 -30.8531
L53.7753 -31.1057
L53.9406 -31.3618
L54.1047 -31.6213
L54.2677 -31.8844
L54.4295 -32.1511
L54.59 -32.4217
L54.7493 -32.6961
L54.9072 -32.9745
L55.0638 -33.257
L55.2189 -33.5437
L55.3725 -33.8347
L55.5245 -34.13
L55.6748 -34.4299
L55.8234 -34.7344
L55.9702 -35.0437
L56.1149 -35.3577
L56.2577 -35.6767
L56.3982 -36.0008
L56.5364 -36.33
L56.6722 -36.6644
L56.8054 -37.0042
L56.9358 -37.3494
L57.0633 -37.7002
L57.1877 -38.0565
L57.3088 -38.4186
L57.4265 -38.7865
L57.5404 -39.1602
L57.6504 -39.5399
L57.7562 -39.9255
L57.8577 -40.3172
L57.9544 -40.7149
L58.0462 -41.1186
L58.1327 -41.5285
L58.2137 -41.9445
L58.2888 -42.3665
L58.3576 -42.7945
L58.4199 -43.2285
L58.4752 -43.6684
L58.5233 -44.1141
L58.5635 -44.5654
L58.5957 -45.0222
L58.6192 -45.4843
L58.6337 -45.9515
L58.6387 -46.4234
L58.6336 -46.8998
L58.6181 -47.3803
L58.5915 -47.8645
L58.5532 -48.3518
L58.5027 -48.8418
L58.4394 -49.3337
L58.3625 -49.8267
L58.2713 -50.32
L58.1651 -50.8125
L58.043 -51.3029
L57.904 -51.7899
L57.7472 -52.2716
L57.5714 -52.7461
L57.3755 -53.211
L57.158 -53.6635
L56.9179 -54.1006
L56.654 -54.519
L56.3653 -54.9152
L56.0515 -55.2862
L55.713 -55.6292
L55.3507 -55.9425
L54.9666 -56.2255
L54.5631 -56.4783
L54.1429 -56.7022
L53.7091 -56.8988
L53.2642 -57.0701
L52.8109 -57.218
L52.3513 -57.3444
L51.8873 -57.4512
L51.4205 -57.5397
L50.9523 -57.6115
L50.4836 -57.6678
L50.0157 -57.7096
L49.5491 -57.7379
L49.0847 -57.7536
L48.6231 -57.7574
L48.1646 -57.7502
L47.7099 -57.7325
L47.2591 -57.705
L46.8127 -57.6682
L46.371 -57.6227
L45.9341 -57.5691
L45.5023 -57.5077
L45.0757 -57.439
L44.6545 -57.3635
L44.2387 -57.2815
L43.8285 -57.1935
L43.424 -57.0998
L43.0251 -57.0007
L42.6319 -56.8966
L42.2444 -56.7878
L41.8626 -56.6746
L41.4865 -56.5572
L41.1161 -56.436
L40.7513 -56.3111
L40.3921 -56.1828
L40.0384 -56.0513
L39.6903 -55.9169
L39.3475 -55.7797
L39.01 -55.6399
L38.6778 -55.4977
L38.3507 -55.3532
L38.0287 -55.2066
L37.7117 -55.0581
L37.3996 -54.9077
L37.0923 -54.7556
L36.7897 -54.6018
L36.4917 -54.4466
L36.1981 -54.2899
L35.909 -54.132
L35.6242 -53.9728
L35.3435 -53.8124
L35.067 -53.6509
L34.7944 -53.4884
L34.5258 -53.3249
L34.2609 -53.1605
L33.9998 -52.9952
L33.7422 -52.829
L33.4881 -52.662
L33.2375 -52.4943
L32.9902 -52.3257
L32.746 -52.1565
L32.5051 -51.9865
L32.2671 -51.8158
L32.0321 -51.6444
L31.8 -51.4723
L31.5707 -51.2996
L31.3441 -51.1261
L31.1201 -50.952
L30.8986 -50.7772
L30.6797 -50.6017
L30.4631 -50.4254
L30.2488 -50.2485
L30.0368 -50.0709
L29.8269 -49.8925
L29.6192 -49.7133
L29.4135 -49.5333
L29.2098 -49.3526
L29.0079 -49.171
L28.808 -48.9885
L28.6098 -48.8052
L28.4133 -48.6209
L28.2186 -48.4357
L28.0254 -48.2496
L27.8338 -48.0624
L27.6437 -47.8741
L27.4551 -47.6848
L27.2678 -47.4944
z
" id="C0_1_ed35d4ba5d"/>
    </defs>
    <g clip-path="url(#p1bffca34e9)">
     <use style="fill:#ff0000;stroke:#000000;stroke-width:2.0;" x="0.0" xlink:href="#C0_0_a811fe30f3" y="72.0"/>
    </g>
    <g clip-path="url(#p1bffca34e9)">
     <use style="fill:#ffffff;stroke:#000000;stroke-width:2.0;" x="0.0" xlink:href="#C0_1_ed35d4ba5d" y="72.0"/>
    </g>
   </g>
  </g>
 </g>
 <defs>
  <clipPath id="p1bffca34e9">
   <rect height="72.0" width="72.0" x="0.0" y="0.0"/>
  </clipPath>
 </defs>
</svg>
