<?xml version="1.0" encoding="utf-8" standalone="no"?>
<!DOCTYPE svg PUBLIC "-//W3C//DTD SVG 1.1//EN"
  "http://www.w3.org/Graphics/SVG/1.1/DTD/svg11.dtd">
<!-- Created with matplotlib (http://matplotlib.org/) -->
<svg height="72pt" version="1.1" viewBox="0 0 72 72" width="72pt" xmlns="http://www.w3.org/2000/svg" xmlns:xlink="http://www.w3.org/1999/xlink">
 <defs>
  <style type="text/css">
*{stroke-linecap:butt;stroke-linejoin:round;}
  </style>
 </defs>
 <g id="figure_1">
  <g id="patch_1">
   <path d="
M0 72
L72 72
L72 0
L0 0
z
" style="fill:none;"/>
  </g>
  <g id="axes_1">
   <g id="PatchCollection_1">
    <defs>
     <path d="
M36 -7.5
C43.5583 -7.5 50.808 -10.5029 56.1525 -15.8475
C61.4971 -21.192 64.5 -28.4417 64.5 -36
C64.5 -43.5583 61.4971 -50.808 56.1525 -56.1525
C50.808 -61.4971 43.5583 -64.5 36 -64.5
C28.4417 -64.5 21.192 -61.4971 15.8475 -56.1525
C10.5029 -50.808 7.5 -43.5583 7.5 -36
C7.5 -28.4417 10.5029 -21.192 15.8475 -15.8475
C21.192 -10.5029 28.4417 -7.5 36 -7.5
z
" id="C0_0_a811fe30f3"/>
     <path d="
M44.7394 -33.4061
L44.6512 -33.1647
L44.5618 -32.9236
L44.4713 -32.6829
L44.3797 -32.4423
L44.2868 -32.2018
L44.1928 -31.9615
L44.0975 -31.7212
L44.0009 -31.4809
L43.9031 -31.2405
L43.8039 -30.9999
L43.7033 -30.7592
L43.6014 -30.5182
L43.498 -30.277
L43.3931 -30.0354
L43.2867 -29.7934
L43.1787 -29.551
L43.0692 -29.308
L42.958 -29.0645
L42.8451 -28.8205
L42.7304 -28.5758
L42.614 -28.3303
L42.4958 -28.0842
L42.3756 -27.8373
L42.2535 -27.5895
L42.1294 -27.3409
L42.0032 -27.0913
L41.875 -26.8409
L41.7445 -26.5894
L41.6118 -26.3369
L41.4768 -26.0833
L41.3394 -25.8286
L41.1996 -25.5728
L41.0572 -25.3159
L40.9123 -25.0578
L40.7647 -24.7984
L40.6144 -24.5379
L40.4613 -24.2761
L40.3052 -24.013
L40.1462 -23.7487
L39.9841 -23.4831
L39.8189 -23.2162
L39.6505 -22.9481
L39.4787 -22.6787
L39.3035 -22.408
L39.1248 -22.1362
L38.9426 -21.8631
L38.7566 -21.5889
L38.5668 -21.3135
L38.3732 -21.0371
L38.1756 -20.7597
L37.9739 -20.4813
L37.7681 -20.202
L37.558 -19.922
L37.3435 -19.6413
L37.1245 -19.36
L36.901 -19.0783
L36.6728 -18.7963
L36.4399 -18.5142
L36.2021 -18.2321
L35.9593 -17.9502
L35.7115 -17.6687
L35.4586 -17.3879
L35.2004 -17.108
L34.937 -16.8292
L34.6681 -16.5519
L34.3938 -16.2765
L34.1139 -16.0032
L33.8284 -15.7324
L33.5372 -15.4647
L33.2402 -15.2004
L32.9374 -14.9401
L32.6286 -14.6843
L32.3138 -14.4338
L31.993 -14.1891
L31.666 -13.9512
L31.3328 -13.7209
L30.9932 -13.4992
L30.6473 -13.2873
L30.2948 -13.0865
L29.9357 -12.8982
L29.5699 -12.7243
L29.1972 -12.5667
L28.8176 -12.4277
L28.4308 -12.3096
L28.0369 -12.2153
L27.6359 -12.1476
L27.228 -12.1095
L26.8136 -12.1036
L26.3933 -12.1323
L25.9681 -12.197
L25.5391 -12.2985
L25.1079 -12.4362
L24.6761 -12.609
L24.2454 -12.8145
L23.8176 -13.0504
L23.3941 -13.3136
L22.9764 -13.6013
L22.5657 -13.9108
L22.1631 -14.2393
L21.7694 -14.5846
L21.3852 -14.9446
L21.0112 -15.3173
L20.6478 -15.701
L20.2953 -16.0944
L19.9539 -16.496
L19.6238 -16.9047
L19.3052 -17.3193
L18.998 -17.739
L18.7023 -18.1629
L18.4179 -18.5902
L18.1449 -19.0201
L17.883 -19.452
L17.6322 -19.8853
L17.3923 -20.3194
L17.1631 -20.754
L16.9444 -21.1884
L16.736 -21.6224
L16.5377 -22.0555
L16.3492 -22.4874
L16.1703 -22.9178
L16.0007 -23.3464
L15.8403 -23.7729
L15.6887 -24.1972
L15.5458 -24.619
L15.4112 -25.0382
L15.2847 -25.4546
L15.1661 -25.8681
L15.0551 -26.2786
L14.9516 -26.6859
L14.8552 -27.09
L14.7657 -27.4907
L14.683 -27.8882
L14.6068 -28.2822
L14.5368 -28.6729
L14.473 -29.06
L14.415 -29.4438
L14.3628 -29.824
L14.3161 -30.2009
L14.2747 -30.5742
L14.2385 -30.9442
L14.2073 -31.3108
L14.181 -31.674
L14.1594 -32.0339
L14.1423 -32.3905
L14.1297 -32.7439
L14.1213 -33.0941
L14.1171 -33.4411
L14.117 -33.7851
L14.1208 -34.1261
L14.1284 -34.4641
L14.1398 -34.7992
L14.1548 -35.1315
L14.1733 -35.461
L14.1953 -35.7878
L14.2207 -36.112
L14.2493 -36.4336
L14.2812 -36.7527
L14.3163 -37.0693
L14.3544 -37.3837
L14.3957 -37.6957
L14.4399 -38.0055
L14.487 -38.3131
L14.5371 -38.6186
L14.59 -38.9222
L14.6458 -39.2238
L14.7043 -39.5235
L14.7657 -39.8213
L14.8297 -40.1175
L14.8965 -40.4119
L14.966 -40.7048
L15.0382 -40.9961
L15.1131 -41.2859
L15.1907 -41.5743
L15.2709 -41.8613
L15.3538 -42.147
L15.4394 -42.4315
L15.5277 -42.7149
L15.6187 -42.9971
L15.7123 -43.2782
L15.8087 -43.5583
L15.9079 -43.8375
L16.0097 -44.1158
L16.1144 -44.3933
L16.2219 -44.67
L16.3323 -44.9459
L16.4455 -45.2212
L16.5616 -45.4958
L16.6807 -45.7699
L16.8028 -46.0434
L16.928 -46.3164
L17.0562 -46.589
L17.1876 -46.8611
L17.3222 -47.1329
L17.4601 -47.4043
L17.6013 -47.6755
L17.7459 -47.9464
L17.8939 -48.217
L18.0455 -48.4875
L18.2007 -48.7578
L18.3596 -49.0279
L18.5223 -49.298
L18.6888 -49.5679
L18.8593 -49.8377
L19.0339 -50.1075
L19.2125 -50.3772
L19.3955 -50.6469
L19.5827 -50.9165
L19.7745 -51.1861
L19.9708 -51.4556
L20.1717 -51.7251
L20.3775 -51.9945
L20.5882 -52.2639
L20.8039 -52.5331
L21.0248 -52.8022
L21.2511 -53.0711
L21.4827 -53.3398
L21.72 -53.6083
L21.9629 -53.8765
L22.2118 -54.1442
L22.4666 -54.4116
L22.7276 -54.6785
L22.9949 -54.9447
L23.2687 -55.2103
L23.549 -55.475
L23.8362 -55.7389
L24.1303 -56.0017
L24.4314 -56.2633
L24.7398 -56.5236
L25.0555 -56.7824
L25.3788 -57.0395
L25.7098 -57.2948
L26.0485 -57.548
L26.3953 -57.799
L26.7501 -58.0474
L27.1131 -58.2931
L27.4844 -58.5357
L27.8642 -58.775
L28.2524 -59.0107
L28.6493 -59.2424
L29.0548 -59.4699
L29.4691 -59.6927
L29.892 -59.9104
L30.3237 -60.1227
L30.7641 -60.3292
L31.2131 -60.5294
L31.6706 -60.7227
L32.1367 -60.9088
L32.6109 -61.0871
L33.0933 -61.2571
L33.5834 -61.4182
L34.0811 -61.5697
L34.5858 -61.7112
L35.0971 -61.8418
L35.6145 -61.961
L36.1374 -62.068
L36.6649 -62.162
L37.1962 -62.2422
L37.7302 -62.3076
L38.2658 -62.3575
L38.8014 -62.3907
L39.3355 -62.4062
L39.866 -62.4028
L40.3909 -62.3792
L40.9076 -62.3342
L41.4133 -62.2665
L41.905 -62.1748
L42.3796 -62.0579
L42.8341 -61.9151
L43.2657 -61.7458
L43.6723 -61.5503
L44.0522 -61.3291
L44.405 -61.0837
L44.7309 -60.8157
L45.0306 -60.5274
L45.3058 -60.2211
L45.558 -59.8991
L45.7891 -59.5637
L46.0008 -59.2168
L46.1949 -58.8603
L46.3729 -58.4957
L46.536 -58.1246
L46.6857 -57.7481
L46.8228 -57.3673
L46.9484 -56.9832
L47.0633 -56.5964
L47.1682 -56.2078
L47.2637 -55.8179
L47.3505 -55.4274
L47.4291 -55.0367
L47.4999 -54.6463
L47.5634 -54.2565
L47.62 -53.8677
L47.67 -53.4802
L47.7139 -53.0942
L47.7518 -52.7102
L47.7842 -52.3281
L47.8114 -51.9484
L47.8335 -51.571
L47.8508 -51.1963
L47.8636 -50.8243
L47.8721 -50.4551
L47.8765 -50.0888
L47.8771 -49.7256
L47.8739 -49.3655
L47.8672 -49.0085
L47.8571 -48.6547
L47.8439 -48.3041
L47.8276 -47.9568
L47.8084 -47.6127
L47.7865 -47.272
L47.762 -46.9345
L47.7349 -46.6002
L47.7055 -46.2693
L47.6739 -45.9415
L47.64 -45.6169
L47.6041 -45.2955
L47.5662 -44.9773
L47.5264 -44.6621
L47.4848 -44.35
L47.4415 -44.0408
L47.3966 -43.7346
L47.35 -43.4313
L47.3019 -43.1308
L47.2524 -42.8331
L47.2014 -42.538
L47.1491 -42.2457
L47.0954 -41.9559
L47.0405 -41.6686
L46.9844 -41.3838
L46.9271 -41.1014
L46.8686 -40.8213
L46.8089 -40.5435
L46.7482 -40.2678
L46.6865 -39.9943
L46.6236 -39.7228
L46.5598 -39.4533
L46.4949 -39.1857
L46.4291 -38.9199
L46.3622 -38.656
L46.2944 -38.3937
L46.2257 -38.1331
L46.156 -37.874
L46.0854 -37.6165
L46.0138 -37.3604
L45.9413 -37.1057
L45.8679 -36.8522
L45.7936 -36.6001
L45.7183 -36.3491
L45.6421 -36.0992
L45.5649 -35.8504
L45.4868 -35.6025
L45.4077 -35.3556
L45.3277 -35.1095
L45.2467 -34.8643
L45.1647 -34.6197
L45.0817 -34.3759
L44.9977 -34.1327
L44.9127 -33.89
z
" id="C0_1_9e7dda7fda"/>
    </defs>
    <g clip-path="url(#p1bffca34e9)">
     <use style="fill:#ffffff;stroke:#000000;stroke-width:2.0;" x="0.0" xlink:href="#C0_0_a811fe30f3" y="72.0"/>
    </g>
    <g clip-path="url(#p1bffca34e9)">
     <use style="fill:#ff0000;stroke:#000000;stroke-width:2.0;" x="0.0" xlink:href="#C0_1_9e7dda7fda" y="72.0"/>
    </g>
   </g>
  </g>
 </g>
 <defs>
  <clipPath id="p1bffca34e9">
   <rect height="72.0" width="72.0" x="0.0" y="0.0"/>
  </clipPath>
 </defs>
</svg>
