<?xml version="1.0" encoding="utf-8" standalone="no"?>
<!DOCTYPE svg PUBLIC "-//W3C//DTD SVG 1.1//EN"
  "http://www.w3.org/Graphics/SVG/1.1/DTD/svg11.dtd">
<!-- Created with matplotlib (http://matplotlib.org/) -->
<svg height="72pt" version="1.1" viewBox="0 0 72 72" width="72pt" xmlns="http://www.w3.org/2000/svg" xmlns:xlink="http://www.w3.org/1999/xlink">
 <defs>
  <style type="text/css">
*{stroke-linecap:butt;stroke-linejoin:round;}
  </style>
 </defs>
 <g id="figure_1">
  <g id="patch_1">
   <path d="
M0 72
L72 72
L72 0
L0 0
z
" style="fill:none;"/>
  </g>
  <g id="axes_1">
   <g id="PatchCollection_1">
    <defs>
     <path d="
M36 -7.5
C43.5583 -7.5 50.808 -10.5029 56.1525 -15.8475
C61.4971 -21.192 64.5 -28.4417 64.5 -36
C64.5 -43.5583 61.4971 -50.808 56.1525 -56.1525
C50.808 -61.4971 43.5583 -64.5 36 -64.5
C28.4417 -64.5 21.192 -61.4971 15.8475 -56.1525
C10.5029 -50.808 7.5 -43.5583 7.5 -36
C7.5 -28.4417 10.5029 -21.192 15.8475 -15.8475
C21.192 -10.5029 28.4417 -7.5 36 -7.5
z
" id="C0_0_a811fe30f3"/>
     <path d="
M46.9913 -39.0596
L46.9665 -38.7975
L46.9401 -38.5353
L46.912 -38.2731
L46.8822 -38.0108
L46.8507 -37.7483
L46.8176 -37.4856
L46.7827 -37.2227
L46.7462 -36.9596
L46.7078 -36.6961
L46.6678 -36.4322
L46.626 -36.1679
L46.5824 -35.9031
L46.537 -35.6378
L46.4897 -35.3719
L46.4406 -35.1055
L46.3896 -34.8383
L46.3367 -34.5705
L46.2818 -34.302
L46.225 -34.0327
L46.1661 -33.7626
L46.1052 -33.4916
L46.0422 -33.2198
L45.977 -32.947
L45.9097 -32.6733
L45.8402 -32.3986
L45.7683 -32.1228
L45.6942 -31.846
L45.6177 -31.5681
L45.5387 -31.2891
L45.4573 -31.009
L45.3733 -30.7277
L45.2867 -30.4453
L45.1974 -30.1616
L45.1054 -29.8768
L45.0106 -29.5908
L44.9129 -29.3035
L44.8123 -29.0151
L44.7086 -28.7254
L44.6019 -28.4346
L44.492 -28.1425
L44.3788 -27.8493
L44.2622 -27.5549
L44.1423 -27.2595
L44.0188 -26.9629
L43.8917 -26.6654
L43.7608 -26.3668
L43.6262 -26.0674
L43.4877 -25.7671
L43.3451 -25.466
L43.1985 -25.1643
L43.0476 -24.862
L42.8925 -24.5592
L42.7329 -24.2561
L42.5687 -23.9528
L42.4 -23.6495
L42.2264 -23.3463
L42.048 -23.0434
L41.8647 -22.741
L41.6762 -22.4394
L41.4825 -22.1387
L41.2834 -21.8393
L41.0789 -21.5413
L40.8689 -21.2452
L40.6532 -20.9512
L40.4317 -20.6597
L40.2042 -20.3711
L39.9708 -20.0857
L39.7312 -19.8041
L39.4854 -19.5266
L39.2333 -19.2539
L38.9747 -18.9863
L38.7097 -18.7246
L38.438 -18.4692
L38.1596 -18.2208
L37.8745 -17.9801
L37.5827 -17.7478
L37.2839 -17.5246
L36.9784 -17.3113
L36.666 -17.1086
L36.3467 -16.9174
L36.0207 -16.7383
L35.6881 -16.5724
L35.3488 -16.4202
L35.0033 -16.2826
L34.6515 -16.1603
L34.2939 -16.0539
L33.9306 -15.9641
L33.5622 -15.8914
L33.189 -15.8361
L32.8115 -15.7987
L32.4302 -15.7792
L32.0456 -15.7778
L31.6585 -15.7945
L31.2693 -15.829
L30.8788 -15.8811
L30.4875 -15.9504
L30.0962 -16.0365
L29.7055 -16.1389
L29.316 -16.2569
L28.9283 -16.39
L28.5431 -16.5374
L28.1607 -16.6985
L27.7819 -16.8725
L27.4069 -17.0587
L27.0363 -17.2565
L26.6705 -17.4651
L26.3098 -17.6838
L25.9545 -17.9119
L25.6049 -18.1489
L25.2613 -18.3941
L24.9239 -18.6468
L24.5928 -18.9066
L24.2683 -19.1728
L23.9504 -19.445
L23.6392 -19.7226
L23.3349 -20.0052
L23.0374 -20.2924
L22.7468 -20.5836
L22.4632 -20.8786
L22.1865 -21.177
L21.9166 -21.4783
L21.6537 -21.7823
L21.3976 -22.0887
L21.1483 -22.3972
L20.9057 -22.7075
L20.6698 -23.0193
L20.4404 -23.3325
L20.2175 -23.6467
L20.001 -23.9619
L19.7909 -24.2779
L19.5869 -24.5944
L19.3891 -24.9112
L19.1973 -25.2284
L19.0113 -25.5457
L18.8312 -25.8629
L18.6567 -26.1801
L18.4879 -26.4971
L18.3245 -26.8138
L18.1664 -27.1301
L18.0137 -27.446
L17.8661 -27.7614
L17.7235 -28.0762
L17.5859 -28.3905
L17.4531 -28.704
L17.3251 -29.0169
L17.2018 -29.3291
L17.083 -29.6406
L16.9687 -29.9513
L16.8587 -30.2612
L16.7531 -30.5704
L16.6517 -30.8788
L16.5544 -31.1864
L16.4612 -31.4932
L16.3719 -31.7993
L16.2866 -32.1046
L16.2051 -32.4092
L16.1274 -32.7131
L16.0534 -33.0162
L15.9831 -33.3187
L15.9163 -33.6204
L15.8531 -33.9216
L15.7934 -34.2221
L15.7371 -34.5221
L15.6843 -34.8215
L15.6348 -35.1203
L15.5886 -35.4187
L15.5457 -35.7166
L15.506 -36.0141
L15.4696 -36.3113
L15.4364 -36.608
L15.4063 -36.9045
L15.3794 -37.2007
L15.3556 -37.4966
L15.335 -37.7924
L15.3174 -38.088
L15.3029 -38.3835
L15.2916 -38.679
L15.2833 -38.9744
L15.2781 -39.2698
L15.276 -39.5653
L15.2769 -39.8608
L15.281 -40.1566
L15.2882 -40.4525
L15.2986 -40.7486
L15.312 -41.045
L15.3287 -41.3416
L15.3485 -41.6387
L15.3716 -41.9361
L15.3979 -42.2339
L15.4274 -42.5323
L15.4603 -42.8311
L15.4966 -43.1304
L15.5363 -43.4304
L15.5794 -43.7309
L15.626 -44.0321
L15.6762 -44.334
L15.73 -44.6366
L15.7874 -44.9399
L15.8486 -45.244
L15.9136 -45.5489
L15.9824 -45.8547
L16.0553 -46.1612
L16.1321 -46.4687
L16.2131 -46.777
L16.2982 -47.0862
L16.3877 -47.3964
L16.4815 -47.7075
L16.5798 -48.0195
L16.6828 -48.3324
L16.7904 -48.6463
L16.9028 -48.9611
L17.0201 -49.2768
L17.1425 -49.5934
L17.27 -49.9109
L17.4029 -50.2292
L17.5411 -50.5484
L17.6849 -50.8683
L17.8344 -51.189
L17.9897 -51.5103
L18.151 -51.8323
L18.3184 -52.1548
L18.4921 -52.4777
L18.6722 -52.8011
L18.8588 -53.1247
L19.0523 -53.4485
L19.2526 -53.7724
L19.4599 -54.0961
L19.6744 -54.4197
L19.8964 -54.7428
L20.1258 -55.0654
L20.3629 -55.3872
L20.6078 -55.7081
L20.8607 -56.0277
L21.1217 -56.346
L21.3909 -56.6626
L21.6685 -56.9772
L21.9546 -57.2895
L22.2493 -57.5993
L22.5527 -57.9062
L22.8649 -58.2098
L23.186 -58.5097
L23.5159 -58.8056
L23.8547 -59.0969
L24.2025 -59.3834
L24.5591 -59.6644
L24.9246 -59.9394
L25.2989 -60.208
L25.6817 -60.4696
L26.0731 -60.7236
L26.4728 -60.9694
L26.8804 -61.2063
L27.2958 -61.4338
L27.7186 -61.6512
L28.1484 -61.8578
L28.5847 -62.0528
L29.027 -62.2357
L29.4748 -62.4057
L29.9273 -62.562
L30.3838 -62.7041
L30.8437 -62.8313
L31.306 -62.9428
L31.77 -63.0381
L32.2346 -63.1168
L32.6988 -63.1781
L33.1618 -63.2219
L33.6225 -63.2476
L34.08 -63.2552
L34.5331 -63.2444
L34.981 -63.2153
L35.4228 -63.168
L35.8577 -63.1026
L36.2848 -63.0196
L36.7034 -62.9192
L37.1131 -62.8021
L37.5133 -62.6689
L37.9035 -62.5202
L38.2834 -62.3568
L38.6529 -62.1795
L39.0117 -61.9889
L39.3598 -61.7861
L39.6971 -61.5717
L40.0237 -61.3466
L40.3396 -61.1116
L40.6449 -60.8675
L40.9399 -60.615
L41.2246 -60.3548
L41.4994 -60.0876
L41.7643 -59.814
L42.0196 -59.5348
L42.2656 -59.2504
L42.5024 -58.9614
L42.7304 -58.6683
L42.9498 -58.3716
L43.1608 -58.0717
L43.3636 -57.7691
L43.5586 -57.4642
L43.7459 -57.1572
L43.9258 -56.8486
L44.0986 -56.5387
L44.2643 -56.2277
L44.4234 -55.9159
L44.5759 -55.6036
L44.7221 -55.2909
L44.8622 -54.9781
L44.9964 -54.6654
L45.1249 -54.3529
L45.2479 -54.0407
L45.3655 -53.7291
L45.478 -53.4182
L45.5855 -53.108
L45.6882 -52.7987
L45.7862 -52.4904
L45.8797 -52.1831
L45.9689 -51.8769
L46.0538 -51.5719
L46.1346 -51.2681
L46.2115 -50.9656
L46.2846 -50.6644
L46.3539 -50.3645
L46.4197 -50.066
L46.4821 -49.7688
L46.541 -49.4731
L46.5968 -49.1787
L46.6493 -48.8858
L46.6988 -48.5942
L46.7454 -48.304
L46.789 -48.0152
L46.8299 -47.7278
L46.868 -47.4417
L46.9035 -47.157
L46.9365 -46.8735
L46.9669 -46.5913
L46.9949 -46.3104
L47.0205 -46.0307
L47.0438 -45.7522
L47.0649 -45.4749
L47.0837 -45.1987
L47.1004 -44.9235
L47.115 -44.6494
L47.1275 -44.3764
L47.138 -44.1043
L47.1466 -43.8331
L47.1531 -43.5628
L47.1578 -43.2933
L47.1606 -43.0247
L47.1615 -42.7568
L47.1606 -42.4896
L47.1579 -42.2231
L47.1534 -41.9572
L47.1472 -41.6919
L47.1392 -41.4271
L47.1295 -41.1627
L47.1181 -40.8988
L47.105 -40.6353
L47.0902 -40.3722
L47.0738 -40.1093
L47.0556 -39.8466
L47.0359 -39.5842
z
" id="C0_1_5a0f3949d7"/>
    </defs>
    <g clip-path="url(#p1bffca34e9)">
     <use style="fill:#ffffff;stroke:#000000;stroke-width:2.0;" x="0.0" xlink:href="#C0_0_a811fe30f3" y="72.0"/>
    </g>
    <g clip-path="url(#p1bffca34e9)">
     <use style="fill:#ff0000;stroke:#000000;stroke-width:2.0;" x="0.0" xlink:href="#C0_1_5a0f3949d7" y="72.0"/>
    </g>
   </g>
  </g>
 </g>
 <defs>
  <clipPath id="p1bffca34e9">
   <rect height="72.0" width="72.0" x="0.0" y="0.0"/>
  </clipPath>
 </defs>
</svg>
