<?xml version="1.0" encoding="utf-8" standalone="no"?>
<!DOCTYPE svg PUBLIC "-//W3C//DTD SVG 1.1//EN"
  "http://www.w3.org/Graphics/SVG/1.1/DTD/svg11.dtd">
<!-- Created with matplotlib (http://matplotlib.org/) -->
<svg height="72pt" version="1.1" viewBox="0 0 72 72" width="72pt" xmlns="http://www.w3.org/2000/svg" xmlns:xlink="http://www.w3.org/1999/xlink">
 <defs>
  <style type="text/css">
*{stroke-linecap:butt;stroke-linejoin:round;}
  </style>
 </defs>
 <g id="figure_1">
  <g id="patch_1">
   <path d="
M0 72
L72 72
L72 0
L0 0
z
" style="fill:none;"/>
  </g>
  <g id="axes_1">
   <g id="PatchCollection_1">
    <defs>
     <path d="
M36 -7.5
C43.5583 -7.5 50.808 -10.5029 56.1525 -15.8475
C61.4971 -21.192 64.5 -28.4417 64.5 -36
C64.5 -43.5583 61.4971 -50.808 56.1525 -56.1525
C50.808 -61.4971 43.5583 -64.5 36 -64.5
C28.4417 -64.5 21.192 -61.4971 15.8475 -56.1525
C10.5029 -50.808 7.5 -43.5583 7.5 -36
C7.5 -28.4417 10.5029 -21.192 15.8475 -15.8475
C21.192 -10.5029 28.4417 -7.5 36 -7.5
z
" id="C0_0_a811fe30f3"/>
     <path d="
M7.73082 -32.9172
L7.92208 -32.9283
L8.11395 -32.9388
L8.30646 -32.9486
L8.4996 -32.9577
L8.69339 -32.9662
L8.88786 -32.9741
L9.083 -32.9814
L9.27885 -32.9882
L9.47543 -32.9945
L9.67274 -33.0002
L9.87082 -33.0055
L10.0697 -33.0103
L10.2694 -33.0147
L10.4699 -33.0186
L10.6713 -33.0221
L10.8736 -33.0252
L11.0768 -33.0278
L11.2809 -33.0301
L11.6922 -33.032
L11.8994 -33.0335
L12.1076 -33.0347
L12.317 -33.0355
L12.5275 -33.036
L12.7392 -33.0361
L12.9522 -33.0359
L13.1663 -33.0353
L13.3818 -33.0344
L13.5986 -33.0332
L13.8168 -33.0316
L14.0364 -33.0297
L14.2575 -33.0275
L14.48 -33.0249
L14.7041 -33.0221
L14.9297 -33.0188
L15.157 -33.0153
L15.3859 -33.0114
L15.6166 -33.0072
L15.8489 -33.0027
L16.0831 -32.9977
L16.3191 -32.9925
L16.557 -32.9869
L16.7968 -32.9809
L17.0385 -32.9745
L17.2823 -32.9677
L17.5281 -32.9606
L17.776 -32.953
L18.026 -32.945
L18.2782 -32.9366
L18.5326 -32.9278
L18.7892 -32.9184
L19.0482 -32.9086
L19.3094 -32.8983
L19.573 -32.8875
L19.839 -32.8761
L20.1075 -32.8642
L20.3784 -32.8517
L20.6517 -32.8386
L20.9276 -32.8248
L21.206 -32.8104
L21.4869 -32.7953
L21.7704 -32.7794
L22.0565 -32.7628
L22.3451 -32.7454
L22.6364 -32.7271
L22.9302 -32.7079
L23.2266 -32.6878
L23.5255 -32.6666
L23.827 -32.6445
L24.131 -32.6212
L24.4375 -32.5967
L24.7465 -32.571
L25.0578 -32.5439
L25.3715 -32.5155
L25.6874 -32.4856
L26.0056 -32.4541
L26.3258 -32.421
L26.6481 -32.3861
L26.9723 -32.3493
L27.2983 -32.3105
L27.626 -32.2696
L27.9551 -32.2264
L28.2856 -32.1809
L28.6173 -32.1328
L28.95 -32.0821
L29.2835 -32.0284
L29.6176 -31.9717
L29.952 -31.9118
L30.2864 -31.8484
L30.6207 -31.7814
L30.9546 -31.7105
L31.2877 -31.6355
L31.6197 -31.5562
L31.9504 -31.4723
L32.2793 -31.3836
L32.6062 -31.2898
L32.9306 -31.1906
L33.2523 -31.0858
L33.5708 -30.9751
L33.8857 -30.8583
L34.1968 -30.7351
L34.5036 -30.6052
L34.8058 -30.4684
L35.1031 -30.3245
L35.395 -30.1734
L35.6813 -30.0148
L35.9617 -29.8487
L36.236 -29.6748
L36.5038 -29.4933
L36.765 -29.3039
L37.0195 -29.1068
L37.267 -28.9021
L37.5074 -28.6898
L37.7407 -28.47
L37.9668 -28.243
L38.1858 -28.009
L38.3975 -27.7683
L38.6021 -27.5211
L38.7996 -27.2678
L38.9902 -27.0088
L39.1738 -26.7443
L39.3507 -26.4749
L39.5209 -26.2007
L39.6847 -25.9224
L39.842 -25.6402
L39.9932 -25.3546
L40.1384 -25.066
L40.2777 -24.7747
L40.4112 -24.4811
L40.5392 -24.1856
L40.6618 -23.8885
L40.7792 -23.5902
L40.8915 -23.2909
L40.9989 -22.9911
L41.1015 -22.6909
L41.1995 -22.3906
L41.293 -22.0906
L41.3821 -21.7909
L41.4669 -21.4919
L41.5477 -21.1937
L41.6245 -20.8965
L41.6974 -20.6005
L41.7666 -20.3059
L41.8321 -20.0128
L41.8941 -19.7212
L41.9526 -19.4314
L42.0078 -19.1435
L42.0597 -18.8575
L42.1084 -18.5734
L42.1541 -18.2915
L42.1968 -18.0117
L42.2365 -17.7341
L42.2734 -17.4588
L42.3074 -17.1857
L42.3388 -16.915
L42.3675 -16.6465
L42.3936 -16.3805
L42.4172 -16.1168
L42.4383 -15.8554
L42.457 -15.5965
L42.4733 -15.3399
L42.4872 -15.0856
L42.4989 -14.8338
L42.5083 -14.5842
L42.5155 -14.337
L42.5205 -14.0921
L42.5234 -13.8494
L42.5241 -13.609
L42.5228 -13.3709
L42.5195 -13.1349
L42.5141 -12.9012
L42.5067 -12.6695
L42.4972 -12.44
L42.4859 -12.2125
L42.4725 -11.9871
L42.4572 -11.7637
L42.44 -11.5422
L42.4209 -11.3227
L42.3998 -11.1051
L42.3768 -10.8893
L42.3519 -10.6754
L42.3251 -10.4632
L42.2963 -10.2528
L42.2656 -10.0441
L42.233 -9.83712
L42.1984 -9.63175
L42.1619 -9.42799
L42.1234 -9.2258
L42.0829 -9.02515
L42.0403 -8.826
L41.9958 -8.62832
L41.9492 -8.43208
L41.4843 -8.23724
L40.9954 -8.03266
L40.5049 -7.9412
L40.0131 -7.8583
L39.5201 -7.78396
L39.0259 -7.71822
L38.5309 -7.66109
L38.0351 -7.6126
L37.5387 -7.57275
L37.0418 -7.54156
L36.5445 -7.51905
L36.0471 -7.5052
L35.5497 -7.50004
L35.0525 -7.50356
L34.5555 -7.51576
L34.059 -7.53663
L33.563 -7.56617
L33.0678 -7.60438
L32.5735 -7.65124
L32.0803 -7.70673
L31.5882 -7.77084
L31.0975 -7.84355
L30.6082 -7.92483
L30.1206 -8.01467
L29.6348 -8.11303
L29.151 -8.21989
L28.6692 -8.3352
L28.1897 -8.45895
L27.7125 -8.59108
L27.2379 -8.73157
L26.7659 -8.88036
L26.2967 -9.03741
L25.8305 -9.20267
L25.3674 -9.3761
L24.9076 -9.55764
L24.4511 -9.74723
L23.9981 -9.94481
L23.5488 -10.1503
L23.1033 -10.3637
L22.6617 -10.5849
L22.2242 -10.8139
L21.7908 -11.0505
L21.3618 -11.2947
L20.9373 -11.5465
L20.5173 -11.8057
L20.1021 -12.0722
L19.6917 -12.3461
L19.2863 -12.6272
L18.8859 -12.9153
L18.4908 -13.2105
L18.101 -13.5127
L17.7167 -13.8217
L17.3379 -14.1375
L16.9648 -14.4599
L16.5976 -14.7889
L16.2362 -15.1243
L15.8808 -15.4661
L15.5316 -15.8141
L15.1886 -16.1683
L14.8519 -16.5286
L14.5217 -16.8948
L14.1981 -17.2668
L13.881 -17.6445
L13.5708 -18.0278
L13.2673 -18.4165
L12.9708 -18.8106
L12.6812 -19.21
L12.3988 -19.6145
L12.1236 -20.0239
L11.8556 -20.4383
L11.595 -20.8573
L11.3419 -21.281
L11.0962 -21.7092
L10.8582 -22.1417
L10.6278 -22.5785
L10.4051 -23.0193
L10.1902 -23.4641
L9.98317 -23.9127
L9.78407 -24.365
L9.59296 -24.8208
L9.40989 -25.28
L9.23492 -25.7425
L9.06811 -26.2081
L8.9095 -26.6767
L8.75914 -27.1482
L8.61707 -27.6223
L8.48335 -28.099
L8.35802 -28.5781
L8.2411 -29.0595
L8.13263 -29.543
L8.03266 -30.0284
L7.9412 -30.5157
L7.8583 -31.0046
L7.78396 -31.4951
z
" id="C0_1_cfe911e592"/>
     <path d="
M30.1294 -63.8149
L30.2524 -63.6572
L30.3753 -63.4983
L30.4981 -63.3382
L30.6207 -63.1771
L30.7432 -63.0147
L30.8657 -62.8511
L30.988 -62.6864
L31.1104 -62.5203
L31.2327 -62.353
L31.355 -62.1844
L31.4774 -62.0144
L31.5998 -61.8431
L31.7224 -61.6704
L31.845 -61.4963
L31.9678 -61.3208
L32.0907 -61.1438
L32.2138 -60.9652
L32.3371 -60.7852
L32.4607 -60.6035
L32.5846 -60.4203
L32.7087 -60.2354
L32.8331 -60.0488
L32.9579 -59.8605
L33.083 -59.6705
L33.2086 -59.4787
L33.3346 -59.2851
L33.461 -59.0896
L33.5879 -58.8922
L33.7152 -58.6929
L33.8432 -58.4917
L33.9716 -58.2884
L34.1007 -58.0831
L34.2304 -57.8757
L34.3607 -57.6662
L34.4916 -57.4546
L34.6233 -57.2407
L34.7557 -57.0247
L34.8888 -56.8064
L35.0227 -56.5858
L35.1575 -56.3629
L35.293 -56.1377
L35.4295 -55.9101
L35.5668 -55.6801
L35.7051 -55.4476
L35.8443 -55.2128
L35.9845 -54.9754
L36.1257 -54.7356
L36.268 -54.4933
L36.4114 -54.2485
L36.5559 -54.0012
L36.7015 -53.7514
L36.8483 -53.4991
L36.9964 -53.2443
L37.1457 -52.987
L37.2963 -52.7273
L37.4482 -52.4651
L37.6015 -52.2005
L37.7562 -51.9336
L37.9124 -51.6644
L38.0701 -51.3929
L38.2293 -51.1192
L38.3901 -50.8435
L38.5526 -50.5657
L38.7168 -50.286
L38.8827 -50.0045
L39.0504 -49.7213
L39.2201 -49.4366
L39.3916 -49.1505
L39.5652 -48.8632
L39.7409 -48.5749
L39.9187 -48.2857
L40.0988 -47.9959
L40.2812 -47.7057
L40.4661 -47.4154
L40.6534 -47.1252
L40.8435 -46.8355
L41.0362 -46.5464
L41.2319 -46.2585
L41.4305 -45.9718
L41.6322 -45.687
L41.8371 -45.4042
L42.0454 -45.1239
L42.2572 -44.8465
L42.4727 -44.5724
L42.6919 -44.302
L42.915 -44.0356
L43.1421 -43.7738
L43.3733 -43.517
L43.6089 -43.2654
L43.8487 -43.0196
L44.093 -42.7799
L44.3418 -42.5466
L44.5951 -42.3201
L44.853 -42.1006
L45.1154 -41.8885
L45.3824 -41.6838
L45.6538 -41.4869
L45.9296 -41.2978
L46.2096 -41.1166
L46.4937 -40.9435
L46.7818 -40.7783
L47.0736 -40.621
L47.3689 -40.4716
L47.6675 -40.33
L47.9691 -40.196
L48.2733 -40.0695
L48.58 -39.9502
L48.8888 -39.838
L49.1994 -39.7326
L49.5115 -39.6338
L49.8248 -39.5412
L50.1391 -39.4548
L50.4539 -39.3742
L50.769 -39.2991
L51.0841 -39.2293
L51.399 -39.1645
L51.7134 -39.1046
L52.027 -39.0492
L52.3396 -38.9982
L52.6511 -38.9512
L52.9611 -38.9082
L53.2695 -38.8689
L53.5762 -38.833
L53.8809 -38.8005
L54.1835 -38.7711
L54.4839 -38.7448
L54.782 -38.7212
L55.0776 -38.7003
L55.3707 -38.682
L55.6611 -38.666
L55.9488 -38.6524
L56.2337 -38.6409
L56.5157 -38.6315
L56.7949 -38.624
L57.0711 -38.6185
L57.3444 -38.6147
L57.6146 -38.6126
L57.8819 -38.6121
L58.1462 -38.6131
L58.4074 -38.6157
L58.6656 -38.6197
L58.9208 -38.625
L59.1729 -38.6316
L59.4221 -38.6395
L59.6683 -38.6486
L59.9115 -38.6589
L60.1518 -38.6703
L60.3892 -38.6828
L60.6237 -38.6963
L60.8554 -38.7109
L61.0842 -38.7264
L61.3103 -38.743
L61.5336 -38.7604
L61.7543 -38.7788
L61.9722 -38.7982
L62.1876 -38.8184
L62.4003 -38.8394
L62.6105 -38.8614
L62.8182 -38.8842
L63.0235 -38.9078
L63.2263 -38.9323
L63.4267 -38.9576
L63.6248 -38.9837
L63.8207 -39.0107
L64.0142 -39.0385
L64.2749 -39.0671
L64.2082 -39.5749
L64.1329 -40.0679
L64.0491 -40.5595
L63.9566 -41.0498
L63.8557 -41.5386
L63.7463 -42.0256
L63.6285 -42.5109
L63.5022 -42.9941
L63.3675 -43.4752
L63.2246 -43.9541
L63.0733 -44.4305
L62.9138 -44.9044
L62.746 -45.3755
L62.5702 -45.8438
L62.3862 -46.3091
L62.1942 -46.7712
L61.9942 -47.2301
L61.7863 -47.6855
L61.5706 -48.1374
L61.347 -48.5856
L61.1157 -49.0299
L60.8768 -49.4703
L60.6303 -49.9066
L60.3763 -50.3386
L60.1149 -50.7663
L59.8462 -51.1895
L59.5701 -51.608
L59.2869 -52.0218
L58.9966 -52.4307
L58.6993 -52.8346
L58.3951 -53.2334
L58.084 -53.627
L57.7663 -54.0151
L57.4419 -54.3978
L57.1109 -54.7749
L56.7736 -55.1462
L56.4299 -55.5117
L56.08 -55.8713
L55.7239 -56.2249
L55.3619 -56.5722
L54.994 -56.9133
L54.6202 -57.248
L54.2409 -57.5763
L53.8559 -57.898
L53.4655 -58.213
L53.0698 -58.5212
L52.6689 -58.8226
L52.2629 -59.117
L51.852 -59.4044
L51.4362 -59.6847
L51.0157 -59.9578
L50.5907 -60.2235
L50.1612 -60.4819
L49.7274 -60.7328
L49.2894 -60.9762
L48.8474 -61.2119
L48.4014 -61.44
L47.9517 -61.6604
L47.4983 -61.8729
L47.0415 -62.0775
L46.5812 -62.2742
L46.1178 -62.4629
L45.6512 -62.6436
L45.1818 -62.8161
L44.7095 -62.9805
L44.2346 -63.1366
L43.7571 -63.2845
L43.2773 -63.424
L42.7953 -63.5552
L42.3112 -63.678
L41.8252 -63.7924
L41.3375 -63.8983
L40.8481 -63.9957
L40.3572 -64.0846
L39.865 -64.165
L39.3716 -64.2367
L38.8772 -64.2999
L38.3819 -64.3544
L37.8859 -64.4003
L37.3893 -64.4375
L36.8922 -64.4661
L36.395 -64.486
L35.8976 -64.4973
L35.4002 -64.4998
L34.903 -64.4937
L34.4061 -64.4789
L33.9098 -64.4554
L33.414 -64.4232
L32.9191 -64.3824
L32.4251 -64.333
L31.9321 -64.2749
L31.4405 -64.2082
L30.9502 -64.1329
z
" id="C0_2_eca6df3eee"/>
    </defs>
    <g clip-path="url(#p1bffca34e9)">
     <use style="fill:#ffffff;stroke:#000000;stroke-width:2.0;" x="0.0" xlink:href="#C0_0_a811fe30f3" y="72.0"/>
    </g>
    <g clip-path="url(#p1bffca34e9)">
     <use style="fill:#ff0000;stroke:#000000;stroke-width:2.0;" x="0.0" xlink:href="#C0_1_cfe911e592" y="72.0"/>
    </g>
    <g clip-path="url(#p1bffca34e9)">
     <use style="fill:#ff0000;stroke:#000000;stroke-width:2.0;" x="0.0" xlink:href="#C0_2_eca6df3eee" y="72.0"/>
    </g>
   </g>
  </g>
 </g>
 <defs>
  <clipPath id="p1bffca34e9">
   <rect height="72.0" width="72.0" x="0.0" y="0.0"/>
  </clipPath>
 </defs>
</svg>
