<?xml version="1.0" encoding="utf-8" standalone="no"?>
<!DOCTYPE svg PUBLIC "-//W3C//DTD SVG 1.1//EN"
  "http://www.w3.org/Graphics/SVG/1.1/DTD/svg11.dtd">
<!-- Created with matplotlib (http://matplotlib.org/) -->
<svg height="72pt" version="1.1" viewBox="0 0 72 72" width="72pt" xmlns="http://www.w3.org/2000/svg" xmlns:xlink="http://www.w3.org/1999/xlink">
 <defs>
  <style type="text/css">
*{stroke-linecap:butt;stroke-linejoin:round;}
  </style>
 </defs>
 <g id="figure_1">
  <g id="patch_1">
   <path d="
M0 72
L72 72
L72 0
L0 0
z
" style="fill:none;"/>
  </g>
  <g id="axes_1">
   <g id="PatchCollection_1">
    <defs>
     <path d="
M36 -7.5
C43.5583 -7.5 50.808 -10.5029 56.1525 -15.8475
C61.4971 -21.192 64.5 -28.4417 64.5 -36
C64.5 -43.5583 61.4971 -50.808 56.1525 -56.1525
C50.808 -61.4971 43.5583 -64.5 36 -64.5
C28.4417 -64.5 21.192 -61.4971 15.8475 -56.1525
C10.5029 -50.808 7.5 -43.5583 7.5 -36
C7.5 -28.4417 10.5029 -21.192 15.8475 -15.8475
C21.192 -10.5029 28.4417 -7.5 36 -7.5
z
" id="C0_0_a811fe30f3"/>
     <path d="
M56.8125 -16.5665
L56.3753 -16.4832
L55.9326 -16.4028
L55.4862 -16.3268
L55.0376 -16.2563
L54.5878 -16.192
L54.1378 -16.1345
L53.6884 -16.0841
L53.2403 -16.0408
L52.7939 -16.0049
L52.3499 -15.9762
L51.9086 -15.9548
L51.4704 -15.9404
L51.0355 -15.9329
L50.6044 -15.9321
L50.1771 -15.9379
L49.7539 -15.95
L49.3351 -15.9681
L48.9206 -15.9921
L48.5107 -16.0216
L48.1054 -16.0566
L47.7048 -16.0967
L47.3091 -16.1417
L46.9181 -16.1913
L46.532 -16.2455
L46.1508 -16.3038
L45.7744 -16.3662
L45.4028 -16.4325
L45.0362 -16.5024
L44.6743 -16.5757
L44.3172 -16.6524
L43.9648 -16.7322
L43.6171 -16.8149
L43.274 -16.9004
L42.9354 -16.9886
L42.6014 -17.0794
L42.2717 -17.1725
L41.9464 -17.2679
L41.6253 -17.3655
L41.3084 -17.4651
L40.9956 -17.5667
L40.6868 -17.6702
L40.3819 -17.7754
L40.0809 -17.8824
L39.7836 -17.9909
L39.4899 -18.1011
L39.1999 -18.2127
L38.9132 -18.3257
L38.63 -18.4401
L38.3501 -18.5558
L38.0733 -18.6728
L37.7997 -18.791
L37.5291 -18.9105
L37.2614 -19.0311
L36.9966 -19.1528
L36.7346 -19.2757
L36.4752 -19.3996
L36.2184 -19.5247
L35.9642 -19.6507
L35.7124 -19.7778
L35.4629 -19.906
L35.2157 -20.0352
L34.9707 -20.1653
L34.7279 -20.2966
L34.487 -20.4288
L34.2482 -20.562
L34.0112 -20.6963
L33.776 -20.8316
L33.5426 -20.968
L33.3109 -21.1054
L33.0808 -21.2438
L32.8523 -21.3834
L32.6252 -21.524
L32.3995 -21.6658
L32.1752 -21.8088
L31.9522 -21.9528
L31.7304 -22.0981
L31.5098 -22.2446
L31.2903 -22.3923
L31.0718 -22.5413
L30.6378 -22.6917
L30.4222 -22.8433
L30.2074 -22.9963
L29.9933 -23.1508
L29.78 -23.3067
L29.5674 -23.4641
L29.3553 -23.623
L29.1439 -23.7834
L28.9329 -23.9455
L28.7225 -24.1093
L28.5125 -24.2748
L28.3029 -24.442
L28.0936 -24.6111
L27.8846 -24.782
L27.6759 -24.9549
L27.4674 -25.1297
L27.2591 -25.3066
L27.051 -25.4856
L26.843 -25.6667
L26.635 -25.8501
L26.4271 -26.0358
L26.2192 -26.2238
L26.0113 -26.4143
L25.8034 -26.6072
L25.5953 -26.8028
L25.3872 -27.001
L25.179 -27.2019
L24.9706 -27.4056
L24.7621 -27.6123
L24.5534 -27.8219
L24.3445 -28.0345
L24.1354 -28.2503
L23.9261 -28.4694
L23.7166 -28.6917
L23.5068 -28.9175
L23.2969 -29.1468
L23.0867 -29.3797
L22.8764 -29.6163
L22.6658 -29.8567
L22.4551 -30.101
L22.2442 -30.3492
L22.0332 -30.6016
L21.822 -30.8582
L21.6108 -31.1191
L21.3996 -31.3843
L21.1884 -31.6541
L20.9773 -31.9285
L20.7662 -32.2076
L20.5554 -32.4915
L20.3448 -32.7802
L20.1346 -33.074
L19.9248 -33.3729
L19.7156 -33.6769
L19.5069 -33.9862
L19.299 -34.3009
L19.0919 -34.6209
L18.8858 -34.9465
L18.6808 -35.2776
L18.4771 -35.6143
L18.2747 -35.9566
L18.074 -36.3046
L17.8749 -36.6584
L17.6778 -37.0179
L17.4828 -37.383
L17.29 -37.7539
L17.0998 -38.1305
L16.9122 -38.5126
L16.7275 -38.9002
L16.5459 -39.2933
L16.3676 -39.6916
L16.1928 -40.095
L16.0217 -40.5033
L15.8544 -40.9162
L15.6912 -41.3334
L15.5321 -41.7546
L15.3772 -42.1792
L15.2266 -42.6068
L15.0803 -43.0367
L14.9381 -43.4682
L14.7997 -43.9001
L14.6648 -44.3314
L14.5326 -44.7604
L14.4022 -45.1853
L14.2721 -45.6035
L14.1403 -46.0118
L14.0038 -46.4059
L13.8589 -46.78
L13.7005 -47.1267
L13.5226 -47.4369
L13.3192 -47.6995
L13.0852 -47.9033
L12.8185 -48.0389
L12.5205 -48.1017
L12.1956 -48.0929
L11.8496 -48.019
L11.4885 -47.8891
L11.1176 -47.7125
L10.7412 -47.4972
L10.3627 -47.25
L9.98461 -46.9759
L9.60912 -46.679
L9.29393 -46.3623
L9.12432 -45.9517
L8.96289 -45.4841
L8.8097 -45.0136
L8.66479 -44.5404
L8.52821 -44.0645
L8.4 -43.5862
L8.28019 -43.1056
L8.16883 -42.6229
L8.06594 -42.1381
L7.97157 -41.6514
L7.88573 -41.163
L7.80845 -40.6731
L7.73977 -40.1817
L7.67969 -39.6891
L7.62824 -39.1953
L7.58543 -38.7005
L7.55127 -38.205
L7.52578 -37.7087
L7.50897 -37.212
L7.50083 -36.7149
L7.50137 -36.2175
L7.5106 -35.7201
L7.5285 -35.2228
L7.55508 -34.7257
L7.59032 -34.229
L7.63422 -33.7328
L7.68675 -33.2373
L7.74791 -32.7427
L7.81768 -32.2491
L7.89603 -31.7566
L7.98294 -31.2654
L8.07838 -30.7756
L8.18233 -30.2874
L8.29476 -29.801
L8.41562 -29.3165
L8.54489 -28.834
L8.68251 -28.3536
L8.82846 -27.8757
L8.98269 -27.4001
L9.14515 -26.9272
L9.31578 -26.4571
L9.49455 -25.9899
L9.68139 -25.5257
L9.87624 -25.0647
L10.0791 -24.607
L10.2898 -24.1529
L10.5083 -23.7023
L10.7346 -23.2555
L10.9686 -22.8125
L11.2102 -22.3736
L11.4594 -21.9388
L11.7161 -21.5083
L11.9801 -21.0822
L12.2515 -20.6607
L12.5301 -20.2438
L12.8158 -19.8317
L13.1087 -19.4246
L13.4084 -19.0225
L13.7151 -18.6256
L14.0286 -18.2339
L14.3487 -17.8477
L14.6754 -17.467
L15.0087 -17.092
L15.3483 -16.7227
L15.6942 -16.3593
L16.0463 -16.0018
L16.4045 -15.6505
L16.7687 -15.3054
L17.1387 -14.9665
L17.5145 -14.6341
L17.8959 -14.3082
L18.2828 -13.9889
L18.6751 -13.6763
L19.0726 -13.3705
L19.4754 -13.0715
L19.8831 -12.7796
L20.2958 -12.4947
L20.7133 -12.217
L21.1354 -11.9466
L21.562 -11.6835
L21.9931 -11.4277
L22.4284 -11.1795
L22.8678 -10.9388
L23.3113 -10.7058
L23.7586 -10.4805
L24.2096 -10.2629
L24.6643 -10.0532
L25.1224 -9.85136
L25.5837 -9.65751
L26.0483 -9.47168
L26.5159 -9.29393
L26.9864 -9.12432
L27.4596 -8.96289
L27.9355 -8.8097
L28.4138 -8.66479
L28.8944 -8.52821
L29.3771 -8.4
L29.8619 -8.28019
L30.3486 -8.16883
L30.837 -8.06594
L31.3269 -7.97157
L31.8183 -7.88573
L32.3109 -7.80845
L32.8047 -7.73977
L33.2995 -7.67969
L33.795 -7.62824
L34.2913 -7.58543
L34.788 -7.55127
L35.2851 -7.52578
L35.7825 -7.50897
L36.2799 -7.50083
L36.7772 -7.50137
L37.2743 -7.5106
L37.771 -7.5285
L38.2672 -7.55508
L38.7627 -7.59032
L39.2573 -7.63422
L39.7509 -7.68675
L40.2434 -7.74791
L40.7346 -7.81768
L41.2244 -7.89603
L41.7126 -7.98294
L42.199 -8.07838
L42.6835 -8.18233
L43.166 -8.29476
L43.6464 -8.41562
L44.1243 -8.54489
L44.5999 -8.68251
L45.0728 -8.82846
L45.5429 -8.98269
L46.0101 -9.14515
L46.4743 -9.31578
L46.9353 -9.49455
L47.393 -9.68139
L47.8471 -9.87624
L48.2977 -10.0791
L48.7445 -10.2898
L49.1875 -10.5083
L49.6264 -10.7346
L50.0612 -10.9686
L50.4917 -11.2102
L50.9178 -11.4594
L51.3393 -11.7161
L51.7562 -11.9801
L52.1683 -12.2515
L52.5754 -12.5301
L52.9775 -12.8158
L53.3744 -13.1087
L53.7661 -13.4084
L54.1523 -13.7151
L54.533 -14.0286
L54.908 -14.3487
L55.2773 -14.6754
L55.6407 -15.0087
L55.9982 -15.3483
L56.3495 -15.6942
z
" id="C0_1_89a92a2757"/>
     <path d="
M62.6134 -26.0276
L62.5546 -26.5262
L62.4881 -27.0239
L62.4135 -27.5196
L62.3309 -28.012
L62.2402 -28.5003
L62.1416 -28.9838
L62.0351 -29.4618
L61.9212 -29.9339
L61.7999 -30.3997
L61.6717 -30.859
L61.5368 -31.3113
L61.3956 -31.7566
L61.2485 -32.1947
L61.0956 -32.6255
L60.9374 -33.0489
L60.7742 -33.4648
L60.6062 -33.8733
L60.4339 -34.2743
L60.2575 -34.6679
L60.0772 -35.0541
L59.8934 -35.4329
L59.7063 -35.8044
L59.5162 -36.1688
L59.3233 -36.5261
L59.1278 -36.8764
L58.9299 -37.2198
L58.7299 -37.5564
L58.5278 -37.8864
L58.324 -38.2098
L58.1185 -38.5269
L57.9115 -38.8377
L57.7032 -39.1424
L57.4936 -39.4411
L57.2829 -39.7339
L57.0713 -40.021
L56.8587 -40.3026
L56.6453 -40.5787
L56.4312 -40.8495
L56.2165 -41.1151
L56.0012 -41.3757
L55.7854 -41.6314
L55.5691 -41.8823
L55.3524 -42.1286
L55.1353 -42.3703
L54.9179 -42.6076
L54.7002 -42.8407
L54.4822 -43.0695
L54.264 -43.2944
L54.0455 -43.5153
L53.8268 -43.7323
L53.6079 -43.9457
L53.3887 -44.1554
L53.1694 -44.3616
L52.9498 -44.5644
L52.73 -44.7639
L52.5099 -44.9601
L52.2897 -45.1533
L52.0691 -45.3433
L51.8483 -45.5305
L51.6272 -45.7147
L51.4058 -45.8961
L51.184 -46.0748
L50.9618 -46.2509
L50.7393 -46.4244
L50.5163 -46.5954
L50.2929 -46.764
L50.0689 -46.9302
L49.8444 -47.0941
L49.6194 -47.2557
L49.3938 -47.4152
L49.1675 -47.5725
L48.9405 -47.7278
L48.7127 -47.881
L48.4842 -48.0322
L48.2549 -48.1816
L48.0247 -48.329
L47.7935 -48.4746
L47.5614 -48.6184
L47.3283 -48.7605
L47.094 -48.9008
L46.8587 -49.0395
L46.6221 -49.1765
L46.3843 -49.3118
L46.1452 -49.4456
L45.9047 -49.5778
L45.6628 -49.7085
L45.4194 -49.8376
L45.1744 -49.9653
L44.9278 -50.0915
L44.6795 -50.2162
L44.4295 -50.3394
L44.1777 -50.4613
L43.9239 -50.5816
L43.6682 -50.7006
L43.4104 -50.8182
L43.1505 -50.9343
L42.8885 -51.0491
L42.6241 -51.1624
L42.3575 -51.2743
L42.0884 -51.3848
L41.8167 -51.4938
L41.5426 -51.6014
L41.2657 -51.7075
L40.9861 -51.8121
L40.7036 -51.9152
L40.4182 -52.0168
L40.1299 -52.1168
L39.8384 -52.2153
L39.5437 -52.312
L39.2458 -52.4072
L38.9445 -52.5006
L38.6397 -52.5922
L38.3314 -52.682
L38.0195 -52.7699
L37.7038 -52.856
L37.3844 -52.94
L37.061 -53.0219
L36.7337 -53.1017
L36.4023 -53.1793
L36.0667 -53.2545
L35.7269 -53.3274
L35.3828 -53.3977
L35.0343 -53.4655
L34.6813 -53.5305
L34.3238 -53.5927
L33.9617 -53.652
L33.5949 -53.7082
L33.2234 -53.7612
L32.8471 -53.8109
L32.466 -53.8571
L32.08 -53.8996
L31.6891 -53.9384
L31.2933 -53.9732
L30.8927 -54.0038
L30.4871 -54.0302
L30.0766 -54.0521
L29.6612 -54.0694
L29.241 -54.0818
L28.816 -54.0892
L28.3863 -54.0914
L27.952 -54.0882
L27.5131 -54.0794
L27.0699 -54.0648
L26.6225 -54.0442
L26.171 -54.0176
L25.7157 -53.9846
L25.2568 -53.9452
L24.7945 -53.8992
L24.3291 -53.8466
L23.8611 -53.7871
L23.3907 -53.7209
L22.9184 -53.6479
L22.4446 -53.5682
L21.97 -53.4819
L21.4951 -53.3893
L21.0207 -53.2908
L20.5475 -53.1869
L20.0766 -53.0785
L19.6092 -52.9666
L19.1466 -52.8527
L18.6907 -52.739
L18.2436 -52.6283
L17.8082 -52.5245
L17.3881 -52.4328
L16.9881 -52.3603
L16.6138 -52.3158
L16.2719 -52.3098
L15.9694 -52.3533
L15.7119 -52.4553
L15.5024 -52.6201
L15.3401 -52.846
L15.2213 -53.1264
L15.1408 -53.4519
L15.0931 -53.8129
L15.0737 -54.2011
L15.0786 -54.6096
L15.2689 -55.0332
L15.6133 -55.5568
L15.964 -55.9157
L16.3208 -56.2684
L16.6836 -56.615
L17.0522 -56.9553
L17.4267 -57.2892
L17.8068 -57.6167
L18.1924 -57.9375
L18.5835 -58.2517
L18.9798 -58.5591
L19.3814 -58.8596
L19.788 -59.1532
L20.1995 -59.4397
L20.6159 -59.7191
L21.0369 -59.9912
L21.4625 -60.2561
L21.8926 -60.5135
L22.3269 -60.7635
L22.7654 -61.0059
L23.2079 -61.2407
L23.6543 -61.4679
L24.1045 -61.6873
L24.5583 -61.8988
L25.0156 -62.1025
L25.4763 -62.2982
L25.9401 -62.4859
L26.407 -62.6655
L26.8769 -62.837
L27.3495 -63.0003
L27.8247 -63.1554
L28.3025 -63.3023
L28.7825 -63.4408
L29.2648 -63.571
L29.7491 -63.6927
L30.2354 -63.8061
L30.7234 -63.9109
L31.213 -64.0073
L31.704 -64.0951
L32.1964 -64.1744
L32.6899 -64.245
L33.1844 -64.3071
L33.6798 -64.3606
L34.1759 -64.4054
L34.6726 -64.4416
L35.1696 -64.4691
L35.6669 -64.4879
L36.1644 -64.4981
L36.6617 -64.4995
L37.1589 -64.4923
L37.6557 -64.4764
L38.152 -64.4519
L38.6476 -64.4186
L39.1425 -64.3768
L39.6363 -64.3262
L40.1291 -64.2671
L40.6206 -64.1993
L41.1107 -64.1229
L41.5993 -64.038
L42.0861 -63.9445
L42.5711 -63.8426
L43.0541 -63.7321
L43.535 -63.6132
L44.0135 -63.4859
L44.4896 -63.3502
L44.9631 -63.2062
L45.4339 -63.0539
L45.9019 -62.8933
L46.3668 -62.7246
L46.8285 -62.5477
L47.2869 -62.3627
L47.7419 -62.1697
L48.1934 -61.9688
L48.6411 -61.7599
L49.085 -61.5432
L49.5248 -61.3186
L49.9606 -61.0864
L50.3921 -60.8466
L50.8192 -60.5991
L51.2418 -60.3442
L51.6598 -60.0819
L52.073 -59.8122
L52.4813 -59.5353
L52.8846 -59.2512
L53.2827 -58.96
L53.6756 -58.6618
L54.0631 -58.3567
L54.445 -58.0449
L54.8214 -57.7263
L55.192 -57.401
L55.5568 -57.0693
L55.9157 -56.7311
L56.2684 -56.3867
L56.615 -56.036
L56.9553 -55.6792
L57.2892 -55.3164
L57.6167 -54.9478
L57.9375 -54.5733
L58.2517 -54.1932
L58.5591 -53.8076
L58.8596 -53.4165
L59.1532 -53.0202
L59.4397 -52.6186
L59.7191 -52.212
L59.9912 -51.8005
L60.2561 -51.3841
L60.5135 -50.9631
L60.7635 -50.5375
L61.0059 -50.1074
L61.2407 -49.6731
L61.4679 -49.2346
L61.6873 -48.7921
L61.8988 -48.3457
L62.1025 -47.8955
L62.2982 -47.4417
L62.4859 -46.9844
L62.6655 -46.5237
L62.837 -46.0599
L63.0003 -45.593
L63.1554 -45.1231
L63.3023 -44.6505
L63.4408 -44.1753
L63.571 -43.6975
L63.6927 -43.2175
L63.8061 -42.7352
L63.9109 -42.2509
L64.0073 -41.7646
L64.0951 -41.2766
L64.1744 -40.787
L64.245 -40.296
L64.3071 -39.8036
L64.3606 -39.3101
L64.4054 -38.8156
L64.4416 -38.3202
L64.4691 -37.8241
L64.4879 -37.3274
L64.4981 -36.8304
L64.4995 -36.3331
L64.4923 -35.8356
L64.4764 -35.3383
L64.4519 -34.8411
L64.4186 -34.3443
L64.3768 -33.848
L64.3262 -33.3524
L64.2671 -32.8575
L64.1993 -32.3637
L64.1229 -31.8709
L64.038 -31.3794
L63.9445 -30.8893
L63.8426 -30.4007
L63.7321 -29.9139
L63.6132 -29.4289
L63.4859 -28.9459
L63.3502 -28.465
L63.2062 -27.9865
L63.0539 -27.5104
L62.8933 -27.0369
z
" id="C0_2_ee43396da7"/>
    </defs>
    <g clip-path="url(#p1bffca34e9)">
     <use style="fill:#ffffff;stroke:#000000;stroke-width:2.0;" x="0.0" xlink:href="#C0_0_a811fe30f3" y="72.0"/>
    </g>
    <g clip-path="url(#p1bffca34e9)">
     <use style="fill:#ff0000;stroke:#000000;stroke-width:2.0;" x="0.0" xlink:href="#C0_1_89a92a2757" y="72.0"/>
    </g>
    <g clip-path="url(#p1bffca34e9)">
     <use style="fill:#ff0000;stroke:#000000;stroke-width:2.0;" x="0.0" xlink:href="#C0_2_ee43396da7" y="72.0"/>
    </g>
   </g>
  </g>
 </g>
 <defs>
  <clipPath id="p1bffca34e9">
   <rect height="72.0" width="72.0" x="0.0" y="0.0"/>
  </clipPath>
 </defs>
</svg>
