<?xml version="1.0" encoding="utf-8" standalone="no"?>
<!DOCTYPE svg PUBLIC "-//W3C//DTD SVG 1.1//EN"
  "http://www.w3.org/Graphics/SVG/1.1/DTD/svg11.dtd">
<!-- Created with matplotlib (http://matplotlib.org/) -->
<svg height="72pt" version="1.1" viewBox="0 0 72 72" width="72pt" xmlns="http://www.w3.org/2000/svg" xmlns:xlink="http://www.w3.org/1999/xlink">
 <defs>
  <style type="text/css">
*{stroke-linecap:butt;stroke-linejoin:round;}
  </style>
 </defs>
 <g id="figure_1">
  <g id="patch_1">
   <path d="
M0 72
L72 72
L72 0
L0 0
z
" style="fill:none;"/>
  </g>
  <g id="axes_1">
   <g id="PatchCollection_1">
    <defs>
     <path d="
M36 -7.5
C43.5583 -7.5 50.808 -10.5029 56.1525 -15.8475
C61.4971 -21.192 64.5 -28.4417 64.5 -36
C64.5 -43.5583 61.4971 -50.808 56.1525 -56.1525
C50.808 -61.4971 43.5583 -64.5 36 -64.5
C28.4417 -64.5 21.192 -61.4971 15.8475 -56.1525
C10.5029 -50.808 7.5 -43.5583 7.5 -36
C7.5 -28.4417 10.5029 -21.192 15.8475 -15.8475
C21.192 -10.5029 28.4417 -7.5 36 -7.5
z
" id="C0_0_a811fe30f3"/>
     <path d="
M7.60573 -38.2935
L7.79349 -38.3594
L7.98187 -38.4235
L8.17089 -38.4857
L8.36056 -38.5462
L8.55091 -38.6051
L8.74195 -38.6623
L8.93373 -38.7179
L9.12625 -38.772
L9.31954 -38.8245
L9.51365 -38.8757
L9.70858 -38.9254
L9.90439 -38.9737
L10.1011 -39.0207
L10.2987 -39.0663
L10.6969 -39.1107
L10.8976 -39.1539
L11.0993 -39.1957
L11.3021 -39.2364
L11.5061 -39.2759
L11.7113 -39.3143
L11.9178 -39.3515
L12.1255 -39.3875
L12.3346 -39.4225
L12.545 -39.4564
L12.7568 -39.4891
L12.9702 -39.5209
L13.185 -39.5515
L13.4014 -39.5811
L13.6194 -39.6097
L13.8391 -39.6372
L14.0605 -39.6636
L14.2837 -39.6891
L14.5086 -39.7135
L14.7355 -39.7369
L14.9643 -39.7592
L15.195 -39.7805
L15.4278 -39.8008
L15.6627 -39.82
L15.8997 -39.8382
L16.139 -39.8553
L16.3805 -39.8713
L16.6242 -39.8863
L16.8704 -39.9002
L17.119 -39.9129
L17.3701 -39.9245
L17.6236 -39.935
L17.8798 -39.9443
L18.1386 -39.9524
L18.4001 -39.9593
L18.6644 -39.965
L18.9314 -39.9694
L19.2013 -39.9725
L19.4741 -39.9743
L19.7498 -39.9747
L20.0284 -39.9737
L20.3101 -39.9712
L20.5948 -39.9673
L20.8826 -39.9619
L21.1735 -39.9549
L21.4675 -39.9463
L21.7647 -39.9359
L22.065 -39.9239
L22.3685 -39.9101
L22.6751 -39.8944
L22.9849 -39.8768
L23.2979 -39.8572
L23.6139 -39.8355
L23.933 -39.8117
L24.2552 -39.7857
L24.5803 -39.7573
L24.9084 -39.7265
L25.2393 -39.6932
L25.5729 -39.6573
L25.9091 -39.6186
L26.2478 -39.5771
L26.5888 -39.5326
L26.932 -39.4849
L27.2771 -39.4339
L27.624 -39.3796
L27.9724 -39.3216
L28.3221 -39.2598
L28.6727 -39.1941
L29.024 -39.1241
L29.3755 -39.0498
L29.727 -38.9709
L30.0779 -38.887
L30.4278 -38.798
L30.7762 -38.7036
L31.1226 -38.6034
L31.4664 -38.4971
L31.807 -38.3845
L32.1438 -38.2651
L32.4761 -38.1386
L32.8032 -38.0046
L33.1243 -37.8626
L33.4388 -37.7124
L33.7458 -37.5535
L34.0447 -37.3855
L34.3347 -37.208
L34.615 -37.0207
L34.8852 -36.8234
L35.1445 -36.6157
L35.3925 -36.3975
L35.6287 -36.1686
L35.8529 -35.929
L36.0647 -35.6788
L36.2641 -35.4181
L36.4511 -35.1472
L36.6258 -34.8663
L36.7883 -34.576
L36.939 -34.2766
L37.0782 -33.9687
L37.2063 -33.653
L37.3237 -33.3301
L37.4309 -33.0005
L37.5285 -32.6651
L37.6169 -32.3245
L37.6966 -31.9793
L37.7682 -31.6302
L37.832 -31.2779
L37.8887 -30.9229
L37.9386 -30.5658
L37.9821 -30.2072
L38.0197 -29.8476
L38.0516 -29.4875
L38.0784 -29.1272
L38.1003 -28.7672
L38.1176 -28.4079
L38.1306 -28.0496
L38.1396 -27.6927
L38.1448 -27.3374
L38.1464 -26.9839
L38.1448 -26.6326
L38.14 -26.2835
L38.1322 -25.937
L38.1217 -25.5932
L38.1086 -25.2521
L38.093 -24.914
L38.0751 -24.5789
L38.055 -24.247
L38.0328 -23.9183
L38.0087 -23.5929
L37.9827 -23.2708
L37.955 -22.952
L37.9256 -22.6367
L37.8946 -22.3248
L37.8621 -22.0164
L37.8282 -21.7114
L37.7929 -21.4098
L37.7563 -21.1117
L37.7185 -20.8169
L37.6794 -20.5256
L37.6393 -20.2376
L37.598 -19.953
L37.5557 -19.6716
L37.5123 -19.3935
L37.468 -19.1186
L37.4227 -18.8469
L37.3765 -18.5783
L37.3294 -18.3128
L37.2815 -18.0504
L37.2327 -17.7908
L37.183 -17.5343
L37.1326 -17.2805
L37.0814 -17.0296
L37.0294 -16.7814
L36.9766 -16.536
L36.923 -16.2931
L36.8687 -16.0529
L36.8137 -15.8151
L36.7579 -15.5799
L36.7014 -15.347
L36.6441 -15.1165
L36.5861 -14.8883
L36.5274 -14.6623
L36.4679 -14.4385
L36.4077 -14.2169
L36.3467 -13.9973
L36.2849 -13.7798
L36.2224 -13.5642
L36.1591 -13.3505
L36.095 -13.1387
L36.0301 -12.9288
L35.9644 -12.7206
L35.8979 -12.5141
L35.8305 -12.3093
L35.7622 -12.1062
L35.693 -11.9046
L35.623 -11.7046
L35.552 -11.506
L35.48 -11.309
L35.4071 -11.1133
L35.3331 -10.9191
L35.2581 -10.7262
L35.1821 -10.5346
L35.1049 -10.3442
L35.0266 -10.1552
L34.9472 -9.96728
L34.8665 -9.78058
L34.7847 -9.59504
L34.7015 -9.41062
L34.617 -9.2273
L34.5311 -9.04505
L34.4439 -8.86385
L34.3551 -8.68368
L34.2649 -8.50452
L34.1731 -8.32636
L34.0796 -8.14918
L33.9845 -7.97296
L33.8877 -7.7977
L33.3886 -7.62338
L32.8937 -7.61989
L32.3998 -7.66978
L31.9069 -7.72831
L31.4153 -7.79545
L30.9251 -7.87118
L30.4364 -7.95548
L29.9494 -8.04832
L29.4643 -8.14967
L28.9812 -8.25951
L28.5002 -8.3778
L28.0214 -8.5045
L27.5451 -8.63958
L27.0714 -8.78299
L26.6004 -8.9347
L26.1323 -9.09464
L25.6672 -9.26279
L25.2052 -9.43907
L24.7465 -9.62345
L24.2912 -9.81586
L23.8396 -10.0163
L23.3916 -10.2246
L22.9474 -10.4407
L22.5072 -10.6647
L22.0712 -10.8963
L21.6393 -11.1356
L21.2119 -11.3825
L20.789 -11.6369
L20.3706 -11.8987
L19.9571 -12.1678
L19.5484 -12.4442
L19.1448 -12.7278
L18.7463 -13.0184
L18.353 -13.3161
L17.9651 -13.6207
L17.5827 -13.9321
L17.206 -14.2502
L16.8349 -14.5749
L16.4697 -14.9062
L16.1104 -15.2439
L15.7572 -15.5879
L15.4102 -15.9381
L15.0694 -16.2945
L14.735 -16.6568
L14.4071 -17.025
L14.0857 -17.3991
L13.7711 -17.7787
L13.4632 -18.164
L13.1621 -18.5546
L12.868 -18.9506
L12.581 -19.3518
L12.3011 -19.758
L12.0285 -20.1692
L11.7631 -20.5852
L11.5051 -21.0059
L11.2546 -21.4312
L11.0116 -21.8609
L10.7762 -22.295
L10.5485 -22.7332
L10.3285 -23.1754
L10.1164 -23.6215
L9.91218 -24.0714
L9.71589 -24.525
L9.5276 -24.982
L9.34738 -25.4424
L9.17527 -25.9061
L9.01134 -26.3727
L8.85563 -26.8424
L8.70818 -27.3148
L8.56905 -27.7898
L8.43828 -28.2674
L8.3159 -28.7473
L8.20195 -29.2294
L8.09647 -29.7136
L7.9995 -30.1997
L7.91105 -30.6876
L7.83115 -31.1771
L7.75984 -31.668
L7.69713 -32.1603
L7.64304 -32.6537
L7.59759 -33.1482
L7.56079 -33.6435
L7.53265 -34.1396
L7.51318 -34.6362
L7.5024 -35.1332
L7.50029 -35.6305
L7.50686 -36.1279
L7.52211 -36.6253
L7.54604 -37.1225
z
" id="C0_1_05d74809e1"/>
     <path d="
M38.19 -64.2792
L38.2607 -64.0903
L38.331 -63.8994
L38.4009 -63.7064
L38.4705 -63.5113
L38.5398 -63.3139
L38.6087 -63.1143
L38.6774 -62.9123
L38.7459 -62.708
L38.8141 -62.5012
L38.8821 -62.2919
L38.9499 -62.0801
L39.0175 -61.8657
L39.0849 -61.6487
L39.1522 -61.4289
L39.2194 -61.2063
L39.2864 -60.9809
L39.3533 -60.7526
L39.4202 -60.5214
L39.4869 -60.2871
L39.5537 -60.0497
L39.6204 -59.8092
L39.6871 -59.5656
L39.7538 -59.3187
L39.8205 -59.0684
L39.8873 -58.8149
L39.9541 -58.5579
L40.0211 -58.2975
L40.0881 -58.0336
L40.1553 -57.7662
L40.2227 -57.4952
L40.2903 -57.2207
L40.3581 -56.9424
L40.4261 -56.6606
L40.4945 -56.3751
L40.5632 -56.0859
L40.6322 -55.793
L40.7017 -55.4965
L40.7717 -55.1962
L40.8422 -54.8924
L40.9133 -54.585
L40.985 -54.274
L41.0575 -53.9595
L41.1309 -53.6415
L41.2051 -53.3203
L41.2803 -52.9958
L41.3567 -52.6682
L41.4343 -52.3376
L41.5133 -52.0042
L41.5938 -51.6682
L41.676 -51.3297
L41.7602 -50.989
L41.8464 -50.6464
L41.9349 -50.3021
L42.026 -49.9565
L42.1199 -49.6098
L42.2169 -49.2625
L42.3174 -48.915
L42.4217 -48.5676
L42.5301 -48.2209
L42.6431 -47.8753
L42.7611 -47.5314
L42.8845 -47.1898
L43.0139 -46.8509
L43.1497 -46.5155
L43.2923 -46.1841
L43.4423 -45.8573
L43.6003 -45.5357
L43.7665 -45.2199
L43.9415 -44.9106
L44.1257 -44.6081
L44.3193 -44.313
L44.5226 -44.0257
L44.7358 -43.7465
L44.9589 -43.4756
L45.1919 -43.2132
L45.4346 -42.9595
L45.6868 -42.7142
L45.9482 -42.4774
L46.2182 -42.2489
L46.4965 -42.0285
L46.7823 -41.8158
L47.0752 -41.6105
L47.3744 -41.4122
L47.6793 -41.2206
L47.9892 -41.0352
L48.3034 -40.8557
L48.6213 -40.6817
L48.9422 -40.5128
L49.2656 -40.3487
L49.5907 -40.1889
L49.9172 -40.0332
L50.2443 -39.8813
L50.5718 -39.7329
L50.8991 -39.5878
L51.2258 -39.4456
L51.5516 -39.3063
L51.876 -39.1695
L52.1989 -39.0352
L52.5198 -38.9032
L52.8386 -38.7732
L53.1551 -38.6452
L53.469 -38.5191
L53.7801 -38.3947
L54.0883 -38.272
L54.3935 -38.1507
L54.6955 -38.031
L54.9943 -37.9126
L55.2897 -37.7955
L55.5817 -37.6797
L55.8703 -37.5651
L56.1553 -37.4515
L56.4368 -37.3391
L56.7148 -37.2276
L56.9891 -37.1172
L57.2599 -37.0076
L57.5272 -36.899
L57.7908 -36.7912
L58.0509 -36.6842
L58.3075 -36.578
L58.5607 -36.4726
L58.8103 -36.3678
L59.0565 -36.2637
L59.2994 -36.1603
L59.5389 -36.0575
L59.7751 -35.9553
L60.0081 -35.8536
L60.2378 -35.7525
L60.4645 -35.6519
L60.688 -35.5517
L60.9085 -35.4521
L61.126 -35.3528
L61.3406 -35.2539
L61.5523 -35.1554
L61.7612 -35.0572
L61.9673 -34.9594
L62.1708 -34.8618
L62.3716 -34.7645
L62.5697 -34.6675
L62.7654 -34.5706
L62.9586 -34.474
L63.1493 -34.3775
L63.3376 -34.2811
L63.5237 -34.1849
L63.7074 -34.0887
L63.889 -33.9926
L64.0683 -33.8965
L64.4483 -33.8005
L64.4739 -34.2836
L64.4908 -34.7803
L64.4991 -35.2774
L64.4987 -35.7748
L64.4896 -36.2722
L64.4718 -36.7695
L64.4454 -37.2666
L64.4103 -37.7633
L64.3665 -38.2595
L64.3141 -38.755
L64.2531 -39.2496
L64.1835 -39.7433
L64.1053 -40.2358
L64.0185 -40.727
L63.9232 -41.2168
L63.8193 -41.705
L63.707 -42.1915
L63.5863 -42.676
L63.4572 -43.1586
L63.3197 -43.6389
L63.1739 -44.117
L63.0198 -44.5925
L62.8574 -45.0655
L62.6869 -45.5356
L62.5083 -46.0029
L62.3216 -46.4671
L62.1268 -46.9282
L61.9241 -47.3859
L61.7136 -47.8401
L61.4951 -48.2908
L61.269 -48.7377
L61.0351 -49.1807
L60.7936 -49.6197
L60.5445 -50.0545
L60.288 -50.4851
L60.024 -50.9112
L59.7528 -51.3328
L59.4743 -51.7498
L59.1886 -52.1619
L58.8959 -52.5692
L58.5963 -52.9713
L58.2897 -53.3683
L57.9764 -53.76
L57.6563 -54.1463
L57.3297 -54.5271
L56.9965 -54.9023
L56.657 -55.2716
L56.3112 -55.6351
L55.9592 -55.9927
L55.6011 -56.3441
L55.237 -56.6893
L54.8671 -57.0283
L54.4914 -57.3608
L54.1101 -57.6868
L53.7233 -58.0062
L53.3311 -58.3189
L52.9336 -58.6249
L52.5309 -58.9239
L52.1232 -59.2159
L51.7106 -59.5009
L51.2932 -59.7787
L50.8712 -60.0493
L50.4446 -60.3125
L50.0136 -60.5683
L49.5784 -60.8167
L49.139 -61.0575
L48.6956 -61.2906
L48.2484 -61.5161
L47.7974 -61.7338
L47.3428 -61.9436
L46.8848 -62.1456
L46.4234 -62.3395
L45.9589 -62.5255
L45.4913 -62.7034
L45.0209 -62.8731
L44.5477 -63.0347
L44.0719 -63.188
L43.5937 -63.333
L43.1131 -63.4697
L42.6303 -63.5981
L42.1456 -63.718
L41.659 -63.8295
L41.1706 -63.9325
L40.6807 -64.027
L40.1893 -64.113
L39.6967 -64.1904
L39.2029 -64.2592
L38.7082 -64.3194
z
" id="C0_2_1d5e4b5076"/>
    </defs>
    <g clip-path="url(#p1bffca34e9)">
     <use style="fill:#ff0000;stroke:#000000;stroke-width:2.0;" x="0.0" xlink:href="#C0_0_a811fe30f3" y="72.0"/>
    </g>
    <g clip-path="url(#p1bffca34e9)">
     <use style="fill:#ffffff;stroke:#000000;stroke-width:2.0;" x="0.0" xlink:href="#C0_1_05d74809e1" y="72.0"/>
    </g>
    <g clip-path="url(#p1bffca34e9)">
     <use style="fill:#ffffff;stroke:#000000;stroke-width:2.0;" x="0.0" xlink:href="#C0_2_1d5e4b5076" y="72.0"/>
    </g>
   </g>
  </g>
 </g>
 <defs>
  <clipPath id="p1bffca34e9">
   <rect height="72.0" width="72.0" x="0.0" y="0.0"/>
  </clipPath>
 </defs>
</svg>
