<?xml version="1.0" encoding="utf-8" standalone="no"?>
<!DOCTYPE svg PUBLIC "-//W3C//DTD SVG 1.1//EN"
  "http://www.w3.org/Graphics/SVG/1.1/DTD/svg11.dtd">
<!-- Created with matplotlib (http://matplotlib.org/) -->
<svg height="72pt" version="1.1" viewBox="0 0 72 72" width="72pt" xmlns="http://www.w3.org/2000/svg" xmlns:xlink="http://www.w3.org/1999/xlink">
 <defs>
  <style type="text/css">
*{stroke-linecap:butt;stroke-linejoin:round;}
  </style>
 </defs>
 <g id="figure_1">
  <g id="patch_1">
   <path d="
M0 72
L72 72
L72 0
L0 0
z
" style="fill:none;"/>
  </g>
  <g id="axes_1">
   <g id="PatchCollection_1">
    <defs>
     <path d="
M36 -7.5
C43.5583 -7.5 50.808 -10.5029 56.1525 -15.8475
C61.4971 -21.192 64.5 -28.4417 64.5 -36
C64.5 -43.5583 61.4971 -50.808 56.1525 -56.1525
C50.808 -61.4971 43.5583 -64.5 36 -64.5
C28.4417 -64.5 21.192 -61.4971 15.8475 -56.1525
C10.5029 -50.808 7.5 -43.5583 7.5 -36
C7.5 -28.4417 10.5029 -21.192 15.8475 -15.8475
C21.192 -10.5029 28.4417 -7.5 36 -7.5
z
" id="C0_0_a811fe30f3"/>
     <path d="
M60.8335 -49.9467
L60.5057 -50.0216
L60.1781 -50.0845
L59.851 -50.1364
L59.5245 -50.1779
L59.199 -50.2097
L58.8745 -50.2327
L58.5513 -50.2472
L58.2295 -50.2541
L57.9093 -50.2536
L57.5907 -50.2464
L57.2739 -50.2329
L56.9589 -50.2135
L56.6459 -50.1887
L56.3349 -50.1587
L56.026 -50.1239
L55.7193 -50.0846
L55.4148 -50.0412
L55.1125 -49.9938
L54.8124 -49.9428
L54.5147 -49.8883
L54.2193 -49.8307
L53.9262 -49.77
L53.6355 -49.7066
L53.3471 -49.6405
L53.0611 -49.5719
L52.7773 -49.501
L52.4959 -49.428
L52.2168 -49.3529
L51.94 -49.2759
L51.6655 -49.1971
L51.3932 -49.1166
L51.1231 -49.0345
L50.8552 -48.9509
L50.5894 -48.8659
L50.3257 -48.7796
L50.0641 -48.692
L49.8046 -48.6032
L49.547 -48.5132
L49.2914 -48.4222
L49.0376 -48.3301
L48.7858 -48.2371
L48.5357 -48.1432
L48.2874 -48.0483
L48.0408 -47.9526
L47.7959 -47.856
L47.5525 -47.7586
L47.3108 -47.6605
L47.0706 -47.5616
L46.8318 -47.462
L46.5944 -47.3616
L46.3584 -47.2606
L46.1237 -47.1588
L45.8902 -47.0564
L45.658 -46.9533
L45.4269 -46.8495
L45.1969 -46.7451
L44.9679 -46.6399
L44.7399 -46.5342
L44.5129 -46.4277
L44.2868 -46.3206
L44.0614 -46.2128
L43.8369 -46.1043
L43.6131 -45.9952
L43.39 -45.8853
L43.1675 -45.7747
L42.9456 -45.6634
L42.7243 -45.5514
L42.5034 -45.4386
L42.2829 -45.325
L42.0628 -45.2106
L41.843 -45.0955
L41.6235 -44.9795
L41.1851 -44.8626
L40.9662 -44.7449
L40.7473 -44.6263
L40.5284 -44.5068
L40.3095 -44.3864
L40.0905 -44.2649
L39.8714 -44.1425
L39.6522 -44.0191
L39.4327 -43.8946
L39.213 -43.769
L38.9929 -43.6424
L38.7725 -43.5145
L38.5517 -43.3855
L38.3305 -43.2553
L38.1087 -43.1238
L37.8864 -42.9911
L37.6635 -42.857
L37.44 -42.7216
L37.2158 -42.5847
L36.9909 -42.4464
L36.7652 -42.3067
L36.5388 -42.1654
L36.3115 -42.0225
L36.0833 -41.8781
L35.8541 -41.7319
L35.624 -41.5841
L35.3929 -41.4345
L35.1608 -41.2831
L34.9276 -41.1299
L34.6933 -40.9748
L34.4579 -40.8177
L34.2213 -40.6586
L33.9834 -40.4974
L33.7444 -40.3342
L33.5042 -40.1688
L33.2626 -40.0011
L33.0198 -39.8312
L32.7757 -39.6589
L32.5303 -39.4843
L32.2836 -39.3072
L32.0355 -39.1276
L31.7861 -38.9454
L31.5355 -38.7606
L31.2835 -38.5731
L31.0302 -38.3829
L30.7756 -38.1899
L30.5199 -37.994
L30.2629 -37.7952
L30.0047 -37.5934
L29.7455 -37.3886
L29.4852 -37.1807
L29.2239 -36.9696
L28.9618 -36.7553
L28.6988 -36.5378
L28.4351 -36.317
L28.1709 -36.0928
L27.9062 -35.8651
L27.6412 -35.6341
L27.376 -35.3995
L27.1109 -35.1613
L26.8461 -34.9196
L26.5817 -34.6742
L26.318 -34.4252
L26.0554 -34.1725
L25.794 -33.916
L25.5342 -33.6558
L25.2764 -33.3918
L25.021 -33.124
L24.7685 -32.8524
L24.5192 -32.5769
L24.2737 -32.2976
L24.0326 -32.0144
L23.7966 -31.7273
L23.5662 -31.4363
L23.3423 -31.1414
L23.1257 -30.8426
L22.9172 -30.5399
L22.7178 -30.2333
L22.5285 -29.9228
L22.3505 -29.6084
L22.1849 -29.2901
L22.033 -28.9679
L21.896 -28.6419
L21.7752 -28.3121
L21.672 -27.9785
L21.5876 -27.6414
L21.5233 -27.3008
L21.4801 -26.957
L21.4591 -26.6101
L21.461 -26.2605
L21.4863 -25.9085
L21.5352 -25.5546
L21.6078 -25.1993
L21.7038 -24.8431
L21.8227 -24.4867
L21.9638 -24.1306
L22.126 -23.7756
L22.3085 -23.4223
L22.5099 -23.0714
L22.7292 -22.7235
L22.965 -22.3793
L23.2161 -22.0392
L23.4814 -21.7039
L23.7595 -21.3739
L24.0494 -21.0495
L24.3501 -20.7311
L24.6605 -20.4192
L24.9796 -20.114
L25.3066 -19.8157
L25.6406 -19.5246
L25.9809 -19.2409
L26.3267 -18.9646
L26.6775 -18.696
L27.0324 -18.4351
L27.3911 -18.182
L27.7529 -17.9366
L28.1174 -17.699
L28.4841 -17.4692
L28.8527 -17.2471
L29.2226 -17.0328
L29.5935 -16.8261
L29.9653 -16.627
L30.3374 -16.4354
L30.7097 -16.2512
L31.0819 -16.0743
L31.4537 -15.9046
L31.825 -15.742
L32.1956 -15.5863
L32.5653 -15.4375
L32.934 -15.2954
L33.3014 -15.1599
L33.6676 -15.0309
L34.0323 -14.9082
L34.3955 -14.7917
L34.7571 -14.6813
L35.117 -14.5768
L35.4751 -14.4781
L35.8315 -14.3851
L36.186 -14.2977
L36.5386 -14.2157
L36.8893 -14.139
L37.2381 -14.0676
L37.585 -14.0012
L37.9298 -13.9398
L38.2728 -13.8833
L38.6137 -13.8316
L38.9527 -13.7845
L39.2898 -13.7421
L39.625 -13.704
L39.9583 -13.6704
L40.2896 -13.6411
L40.6192 -13.616
L40.9469 -13.5951
L41.2728 -13.5782
L41.5969 -13.5654
L41.9193 -13.5565
L42.2401 -13.5514
L42.5591 -13.5502
L42.8766 -13.5527
L43.1925 -13.559
L43.5069 -13.5689
L43.8198 -13.5824
L44.1313 -13.5995
L44.4414 -13.6202
L44.7501 -13.6444
L45.0576 -13.672
L45.3638 -13.7031
L45.6688 -13.7377
L45.9726 -13.7757
L46.2753 -13.8171
L46.577 -13.8618
L46.8776 -13.91
L47.1773 -13.9616
L47.4761 -14.0165
L47.774 -14.0748
L48.071 -14.1366
L48.3673 -14.2017
L48.6628 -14.2702
L48.9577 -14.3422
L49.2519 -14.4177
L49.5455 -14.4966
L49.8385 -14.5791
L50.131 -14.665
L50.423 -14.7546
L50.7146 -14.8478
L51.0057 -14.9447
L51.2965 -15.0452
L51.5869 -15.1496
L51.877 -15.2577
L52.1669 -15.3697
L52.4565 -15.4857
L52.7459 -15.6056
L53.0351 -15.7297
L53.3241 -15.8579
L53.613 -15.9903
L53.9018 -16.127
L54.1904 -16.2681
L54.4789 -16.4137
L54.7674 -16.5639
L55.0558 -16.7188
L55.3441 -16.8785
L55.6323 -17.0431
L55.9204 -17.2127
L56.2084 -17.3875
L56.4964 -17.5675
L56.7842 -17.7529
L57.0719 -17.9439
L57.3594 -18.1405
L57.6467 -18.3429
L57.9337 -18.5513
L58.2205 -18.7658
L58.5069 -18.9866
L58.7929 -19.2138
L59.0784 -19.4476
L59.3634 -19.6882
L59.6477 -19.9357
L59.9657 -20.1904
L60.2312 -20.5761
L60.4894 -20.9967
L60.74 -21.4219
L60.9832 -21.8515
L61.2188 -22.2854
L61.4466 -22.7235
L61.6667 -23.1657
L61.879 -23.6117
L62.0834 -24.0616
L62.2799 -24.515
L62.4684 -24.972
L62.6488 -25.4323
L62.8211 -25.8959
L62.9852 -26.3625
L63.1411 -26.8321
L63.2887 -27.3044
L63.428 -27.7794
L63.559 -28.2569
L63.6815 -28.7368
L63.7956 -29.2189
L63.9013 -29.703
L63.9985 -30.1891
L64.0871 -30.6769
L64.1672 -31.1663
L64.2387 -31.6573
L64.3016 -32.1495
L64.3559 -32.6429
L64.4015 -33.1374
L64.4385 -33.6327
L64.4668 -34.1287
L64.4865 -34.6253
L64.4975 -35.1224
L64.4998 -35.6197
L64.4934 -36.1171
L64.4783 -36.6144
L64.4546 -37.1116
L64.4222 -37.6085
L64.3811 -38.1048
L64.3314 -38.6005
L64.2731 -39.0955
L64.2061 -39.5894
L64.1306 -40.0823
L64.0465 -40.574
L63.9538 -41.0642
L63.8526 -41.5529
L63.743 -42.0399
L63.6249 -42.5251
L63.4984 -43.0083
L63.3635 -43.4894
L63.2202 -43.9681
L63.0687 -44.4445
L62.9089 -44.9182
L62.741 -45.3893
L62.5649 -45.8575
L62.3807 -46.3227
L62.1884 -46.7847
L61.9882 -47.2435
L61.7801 -47.6988
L61.5641 -48.1506
L61.3403 -48.5987
L61.1088 -49.0429
z
" id="C0_1_41f5f7c867"/>
     <path d="
M12.133 -51.5059
L12.0083 -51.1379
L11.8879 -50.766
L11.772 -50.3901
L11.6607 -50.0103
L11.554 -49.6263
L11.452 -49.2384
L11.3549 -48.8463
L11.2626 -48.4502
L11.1754 -48.05
L11.0932 -47.6456
L11.0162 -47.2372
L10.9445 -46.8247
L10.8782 -46.4081
L10.8174 -45.9875
L10.7622 -45.5629
L10.7126 -45.1344
L10.6689 -44.7019
L10.631 -44.2656
L10.599 -43.8255
L10.5731 -43.3818
L10.5533 -42.9345
L10.5396 -42.4837
L10.5322 -42.0296
L10.531 -41.5724
L10.5361 -41.112
L10.5475 -40.6489
L10.5652 -40.1831
L10.5891 -39.7148
L10.6192 -39.2443
L10.6553 -38.7719
L10.6974 -38.2977
L10.7453 -37.8221
L10.7988 -37.3454
L10.8576 -36.8678
L10.9215 -36.3898
L10.99 -35.9117
L11.0627 -35.4339
L11.1391 -34.9567
L11.2187 -34.4807
L11.3008 -34.0062
L11.3846 -33.5336
L11.4694 -33.0635
L11.5541 -32.5964
L11.6379 -32.1326
L11.7197 -31.6727
L11.7982 -31.2171
L11.8723 -30.7663
L11.9408 -30.3207
L12.0025 -29.8808
L12.0563 -29.4467
L12.1009 -29.019
L12.1356 -28.5977
L12.1595 -28.183
L12.172 -27.775
L12.1729 -27.3738
L12.1621 -26.9792
L12.1397 -26.5911
L12.1061 -26.2094
L12.0619 -25.8339
L12.0079 -25.4641
L11.945 -25.1001
L11.874 -24.7413
L11.796 -24.3877
L11.7121 -24.0388
L11.6231 -23.6946
L11.53 -23.3547
L11.4339 -23.0191
L11.3354 -22.6874
L10.8002 -22.3596
L10.5717 -22.6877
L10.3509 -23.1295
L10.138 -23.5753
L9.93292 -24.0248
L9.7358 -24.478
L9.54668 -24.9347
L9.36563 -25.3947
L9.19268 -25.858
L9.0279 -26.3244
L8.87134 -26.7937
L8.72304 -27.2658
L8.58304 -27.7406
L8.4514 -28.2179
L8.32816 -28.6976
L8.21334 -29.1795
L8.10698 -29.6635
L8.00912 -30.1494
L7.91979 -30.6371
L7.83901 -31.1264
L7.76681 -31.6172
L7.70321 -32.1094
L7.64823 -32.6027
L7.60188 -33.0971
L7.56419 -33.5923
L7.53516 -34.0883
L7.51479 -34.5849
L7.50311 -35.0819
L7.5001 -35.5791
L7.50578 -36.0765
L7.52014 -36.5739
L7.54317 -37.0711
L7.57487 -37.568
L7.61522 -38.0644
L7.66423 -38.5602
L7.72186 -39.0552
L7.78811 -39.5492
L7.86296 -40.0422
L7.94637 -40.534
L8.03833 -41.0243
L8.13881 -41.5132
L8.24777 -42.0003
L8.36519 -42.4857
L8.49102 -42.969
L8.62524 -43.4502
L8.76779 -43.9292
L8.91864 -44.4058
L9.07774 -44.8797
L9.24503 -45.351
L9.42048 -45.8195
L9.60403 -46.2849
L9.79561 -46.7472
L9.99518 -47.2062
L10.2027 -47.6619
L10.418 -48.1139
L10.6412 -48.5623
L10.872 -49.0069
L11.1105 -49.4475
L11.3566 -49.884
L11.6102 -50.3162
z
" id="C0_2_34a0093461"/>
    </defs>
    <g clip-path="url(#p1bffca34e9)">
     <use style="fill:#ffffff;stroke:#000000;stroke-width:2.0;" x="0.0" xlink:href="#C0_0_a811fe30f3" y="72.0"/>
    </g>
    <g clip-path="url(#p1bffca34e9)">
     <use style="fill:#ff0000;stroke:#000000;stroke-width:2.0;" x="0.0" xlink:href="#C0_1_41f5f7c867" y="72.0"/>
    </g>
    <g clip-path="url(#p1bffca34e9)">
     <use style="fill:#ff0000;stroke:#000000;stroke-width:2.0;" x="0.0" xlink:href="#C0_2_34a0093461" y="72.0"/>
    </g>
   </g>
  </g>
 </g>
 <defs>
  <clipPath id="p1bffca34e9">
   <rect height="72.0" width="72.0" x="0.0" y="0.0"/>
  </clipPath>
 </defs>
</svg>
