<?xml version="1.0" encoding="utf-8" standalone="no"?>
<!DOCTYPE svg PUBLIC "-//W3C//DTD SVG 1.1//EN"
  "http://www.w3.org/Graphics/SVG/1.1/DTD/svg11.dtd">
<!-- Created with matplotlib (http://matplotlib.org/) -->
<svg height="72pt" version="1.1" viewBox="0 0 72 72" width="72pt" xmlns="http://www.w3.org/2000/svg" xmlns:xlink="http://www.w3.org/1999/xlink">
 <defs>
  <style type="text/css">
*{stroke-linecap:butt;stroke-linejoin:round;}
  </style>
 </defs>
 <g id="figure_1">
  <g id="patch_1">
   <path d="
M0 72
L72 72
L72 0
L0 0
z
" style="fill:none;"/>
  </g>
  <g id="axes_1">
   <g id="PatchCollection_1">
    <defs>
     <path d="
M36 -7.5
C43.5583 -7.5 50.808 -10.5029 56.1525 -15.8475
C61.4971 -21.192 64.5 -28.4417 64.5 -36
C64.5 -43.5583 61.4971 -50.808 56.1525 -56.1525
C50.808 -61.4971 43.5583 -64.5 36 -64.5
C28.4417 -64.5 21.192 -61.4971 15.8475 -56.1525
C10.5029 -50.808 7.5 -43.5583 7.5 -36
C7.5 -28.4417 10.5029 -21.192 15.8475 -15.8475
C21.192 -10.5029 28.4417 -7.5 36 -7.5
z
" id="C0_0_a811fe30f3"/>
     <path d="
M57.1007 -17.2098
L56.7767 -17.2542
L56.4265 -17.2792
L56.056 -17.2911
L55.67 -17.2946
L55.2722 -17.2936
L54.8655 -17.2906
L54.4525 -17.2879
L54.0348 -17.2869
L53.614 -17.2887
L53.1913 -17.2941
L52.7678 -17.3036
L52.3441 -17.3177
L51.9212 -17.3366
L51.4995 -17.3604
L51.0795 -17.3891
L50.6618 -17.4228
L50.2466 -17.4615
L49.8343 -17.5049
L49.4253 -17.5531
L49.0196 -17.6059
L48.6176 -17.663
L48.2194 -17.7245
L47.8252 -17.7901
L47.4351 -17.8595
L47.0491 -17.9328
L46.6674 -18.0096
L46.2901 -18.0898
L45.9172 -18.1733
L45.5487 -18.2599
L45.1847 -18.3494
L44.8251 -18.4416
L44.4699 -18.5365
L44.1192 -18.6338
L43.773 -18.7335
L43.4311 -18.8354
L43.0936 -18.9393
L42.7604 -19.0452
L42.4314 -19.153
L42.1067 -19.2625
L41.7861 -19.3737
L41.4696 -19.4863
L41.1571 -19.6005
L40.8485 -19.716
L40.5438 -19.8329
L40.2429 -19.9509
L39.9458 -20.0702
L39.6522 -20.1905
L39.3622 -20.3119
L39.0757 -20.4343
L38.7926 -20.5577
L38.5128 -20.6819
L38.2362 -20.807
L37.9628 -20.933
L37.6924 -21.0598
L37.425 -21.1873
L37.1605 -21.3156
L36.8989 -21.4447
L36.6399 -21.5745
L36.3836 -21.7049
L36.1299 -21.8361
L35.8786 -21.9679
L35.6298 -22.1005
L35.3833 -22.2337
L35.1391 -22.3675
L34.897 -22.5021
L34.6571 -22.6373
L34.4192 -22.7732
L34.1832 -22.9098
L33.9492 -23.0471
L33.7169 -23.1851
L33.4864 -23.3239
L33.2576 -23.4633
L33.0304 -23.6035
L32.8048 -23.7445
L32.5806 -23.8863
L32.3578 -24.0289
L32.1364 -24.1723
L31.9163 -24.3166
L31.6974 -24.4618
L31.4797 -24.6078
L31.2631 -24.7549
L31.0475 -24.9028
L30.833 -25.0518
L30.6193 -25.2018
L30.1947 -25.3529
L29.9835 -25.5051
L29.7731 -25.6584
L29.5633 -25.8129
L29.3542 -25.9687
L29.1457 -26.1256
L28.9376 -26.2839
L28.73 -26.4435
L28.5229 -26.6045
L28.3161 -26.767
L28.1097 -26.9309
L27.9036 -27.0964
L27.6977 -27.2634
L27.492 -27.4321
L27.2864 -27.6024
L27.081 -27.7746
L26.8757 -27.9485
L26.6704 -28.1242
L26.4652 -28.3019
L26.2599 -28.4816
L26.0545 -28.6633
L25.8491 -28.8471
L25.6435 -29.0331
L25.4378 -29.2213
L25.2319 -29.4119
L25.0258 -29.6048
L24.8194 -29.8002
L24.6128 -29.9981
L24.4059 -30.1986
L24.1987 -30.4018
L23.9912 -30.6077
L23.7834 -30.8165
L23.5752 -31.0282
L23.3666 -31.2429
L23.1577 -31.4608
L22.9485 -31.6817
L22.7389 -31.906
L22.5289 -32.1336
L22.3185 -32.3646
L22.1079 -32.5992
L21.8968 -32.8374
L21.6855 -33.0793
L21.4739 -33.325
L21.262 -33.5746
L21.0499 -33.8281
L20.8376 -34.0858
L20.6252 -34.3476
L20.4127 -34.6137
L20.2001 -34.8841
L19.9876 -35.159
L19.7751 -35.4384
L19.5628 -35.7224
L19.3508 -36.011
L19.1391 -36.3044
L18.9278 -36.6026
L18.7171 -36.9057
L18.5071 -37.2138
L18.2978 -37.5268
L18.0895 -37.8448
L17.8822 -38.168
L17.6761 -38.4962
L17.4714 -38.8295
L17.2682 -39.1679
L17.0667 -39.5114
L16.867 -39.8599
L16.6694 -40.2135
L16.474 -40.5719
L16.2811 -40.9352
L16.0907 -41.3032
L15.9031 -41.6757
L15.7184 -42.0525
L15.5369 -42.4334
L15.3587 -42.8182
L15.1838 -43.2064
L15.0125 -43.5977
L14.8447 -43.9916
L14.6804 -44.3874
L14.5196 -44.7844
L14.3622 -45.1818
L14.2076 -45.5784
L14.0556 -45.9729
L13.9053 -46.3636
L13.7557 -46.7483
L13.6053 -47.1244
L13.452 -47.4882
L13.2932 -47.8353
L13.1254 -48.1601
L12.9443 -48.4552
L12.745 -48.7121
L12.523 -48.9212
L12.2746 -49.0729
L11.9985 -49.1595
L11.6957 -49.1769
L11.3697 -49.1259
L11.0252 -49.0111
L10.6672 -48.8396
L10.2719 -48.6192
L10.0619 -48.2604
L9.85973 -47.8095
L9.66554 -47.355
L9.47937 -46.8971
L9.30128 -46.4358
L9.13132 -45.9714
L8.96955 -45.5039
L8.81601 -45.0335
L8.67075 -44.5604
L8.53382 -44.0847
L8.40525 -43.6065
L8.28509 -43.126
L8.17336 -42.6433
L8.07012 -42.1586
L7.97538 -41.672
L7.88918 -41.1837
L7.81155 -40.6938
L7.7425 -40.2025
L7.68205 -39.7099
L7.63024 -39.2162
L7.58706 -38.7215
L7.55254 -38.2259
L7.52668 -37.7297
L7.5095 -37.233
L7.501 -36.7359
L7.50118 -36.2385
L7.51003 -35.7411
L7.52757 -35.2438
L7.55378 -34.7467
L7.58866 -34.25
L7.63218 -33.7538
L7.68436 -33.2583
L7.74515 -32.7636
L7.81455 -32.2699
L7.89254 -31.7774
L7.97909 -31.2861
L8.07418 -30.7963
L8.17777 -30.308
L8.28983 -29.8215
L8.41034 -29.3369
L8.53925 -28.8543
L8.67653 -28.3739
L8.82213 -27.8958
L8.976 -27.4202
L9.13811 -26.9472
L9.30841 -26.4769
L9.48683 -26.0096
L9.67333 -25.5453
L9.86784 -25.0841
L10.0703 -24.6263
L10.2807 -24.172
L10.4989 -23.7213
L10.7249 -23.2743
L10.9586 -22.8311
L11.1999 -22.392
L11.4487 -21.9571
L11.7051 -21.5264
L11.9688 -21.1001
L12.2399 -20.6784
L12.5182 -20.2613
L12.8036 -19.849
L13.0961 -19.4417
L13.3956 -19.0394
L13.702 -18.6422
L14.0152 -18.2504
L14.335 -17.8639
L14.6615 -17.483
L14.9945 -17.1077
L15.3338 -16.7382
L15.6795 -16.3745
L16.0313 -16.0168
L16.3893 -15.6652
L16.7532 -15.3198
L17.1229 -14.9807
L17.4985 -14.648
L17.8796 -14.3218
L18.2663 -14.0022
L18.6584 -13.6893
L19.0557 -13.3832
L19.4582 -13.084
L19.8658 -12.7918
L20.2783 -12.5066
L20.6955 -12.2286
L21.1175 -11.9579
L21.5439 -11.6944
L21.9748 -11.4384
L22.4099 -11.1899
L22.8492 -10.9489
L23.2925 -10.7155
L23.7396 -10.4898
L24.1905 -10.2719
L24.645 -10.0619
L25.1029 -9.85973
L25.5642 -9.66554
L26.0286 -9.47937
L26.4961 -9.30128
L26.9665 -9.13132
L27.4396 -8.96955
L27.9153 -8.81601
L28.3935 -8.67075
L28.874 -8.53382
L29.3567 -8.40525
L29.8414 -8.28509
L30.328 -8.17336
L30.8163 -8.07012
L31.3062 -7.97538
L31.7975 -7.88918
L32.2901 -7.81155
L32.7838 -7.7425
L33.2785 -7.68205
L33.7741 -7.63024
L34.2703 -7.58706
L34.767 -7.55254
L35.2641 -7.52668
L35.7615 -7.5095
L36.2589 -7.501
L36.7562 -7.50118
L37.2533 -7.51003
L37.75 -7.52757
L38.2462 -7.55378
L38.7417 -7.58866
L39.2364 -7.63218
L39.7301 -7.68436
L40.2226 -7.74515
L40.7139 -7.81455
L41.2037 -7.89254
L41.692 -7.97909
L42.1785 -8.07418
L42.6631 -8.17777
L43.1457 -8.28983
L43.6261 -8.41034
L44.1042 -8.53925
L44.5798 -8.67653
L45.0528 -8.82213
L45.5231 -8.976
L45.9904 -9.13811
L46.4547 -9.30841
L46.9159 -9.48683
L47.3737 -9.67333
L47.828 -9.86784
L48.2787 -10.0703
L48.7257 -10.2807
L49.1689 -10.4989
L49.608 -10.7249
L50.0429 -10.9586
L50.4736 -11.1999
L50.8999 -11.4487
L51.3216 -11.7051
L51.7387 -11.9688
L52.151 -12.2399
L52.5583 -12.5182
L52.9606 -12.8036
L53.3578 -13.0961
L53.7496 -13.3956
L54.1361 -13.702
L54.517 -14.0152
L54.8923 -14.335
L55.2618 -14.6615
L55.6255 -14.9945
L55.9832 -15.3338
L56.3348 -15.6795
L56.6802 -16.0313
z
" id="C0_1_aa9cc5fe2b"/>
     <path d="
M61.6705 -23.6567
L61.6604 -24.1299
L61.6519 -24.6186
L61.6419 -25.1184
L61.6283 -25.6256
L61.6095 -26.1376
L61.5842 -26.652
L61.5518 -27.1671
L61.5117 -27.6815
L61.4637 -28.1939
L61.4076 -28.7034
L61.3434 -29.2091
L61.2712 -29.7104
L61.1911 -30.2067
L61.1033 -30.6975
L61.008 -31.1825
L60.9056 -31.6612
L60.7962 -32.1334
L60.6802 -32.599
L60.5578 -33.0576
L60.4294 -33.5092
L60.2953 -33.9536
L60.1557 -34.3909
L60.011 -34.8208
L59.8614 -35.2435
L59.7072 -35.6588
L59.5488 -36.0669
L59.3864 -36.4677
L59.2201 -36.8613
L59.0503 -37.2478
L58.8773 -37.6271
L58.7011 -37.9995
L58.5221 -38.365
L58.3404 -38.7237
L58.1562 -39.0757
L57.9697 -39.4211
L57.781 -39.7601
L57.5904 -40.0927
L57.3979 -40.4191
L57.2037 -40.7394
L57.0079 -41.0538
L56.8107 -41.3623
L56.612 -41.6651
L56.4122 -41.9623
L56.2111 -42.2541
L56.009 -42.5405
L55.8058 -42.8218
L55.6017 -43.098
L55.3967 -43.3693
L55.1909 -43.6358
L54.9843 -43.8975
L54.7769 -44.1548
L54.5689 -44.4075
L54.3602 -44.656
L54.1509 -44.9002
L53.9409 -45.1403
L53.7304 -45.3765
L53.5192 -45.6087
L53.3075 -45.8372
L53.0952 -46.062
L52.8824 -46.2832
L52.669 -46.5009
L52.4551 -46.7152
L52.2405 -46.9263
L52.0254 -47.1341
L51.8097 -47.3388
L51.5934 -47.5405
L51.3765 -47.7392
L51.1589 -47.935
L50.9406 -48.128
L50.7216 -48.3183
L50.502 -48.5059
L50.2815 -48.691
L50.0603 -48.8735
L49.8383 -49.0535
L49.6154 -49.2312
L49.3916 -49.4065
L49.1669 -49.5795
L48.9413 -49.7504
L48.7146 -49.919
L48.4869 -50.0855
L48.258 -50.2499
L48.0281 -50.4123
L47.7969 -50.5727
L47.5645 -50.7311
L47.3308 -50.8877
L47.0957 -51.0423
L46.8593 -51.1951
L46.6214 -51.3461
L46.3819 -51.4954
L46.1409 -51.6428
L45.8983 -51.7886
L45.6539 -51.9326
L45.4078 -52.075
L45.1599 -52.2157
L44.91 -52.3547
L44.6582 -52.4921
L44.4044 -52.6279
L44.1485 -52.762
L43.8903 -52.8945
L43.63 -53.0255
L43.3672 -53.1548
L43.1021 -53.2824
L42.8345 -53.4085
L42.5644 -53.5329
L42.2916 -53.6557
L42.016 -53.7768
L41.7377 -53.8963
L41.4564 -54.014
L41.1722 -54.13
L40.8849 -54.2443
L40.5944 -54.3568
L40.3007 -54.4674
L40.0036 -54.5762
L39.7031 -54.6831
L39.3991 -54.788
L39.0914 -54.8909
L38.7801 -54.9917
L38.4649 -55.0904
L38.1459 -55.1868
L37.8228 -55.281
L37.4957 -55.3728
L37.1644 -55.4622
L36.8288 -55.549
L36.4889 -55.6332
L36.1445 -55.7147
L35.7956 -55.7933
L35.4421 -55.8689
L35.0839 -55.9415
L34.7209 -56.0108
L34.3531 -56.0768
L33.9804 -56.1393
L33.6027 -56.1981
L33.2199 -56.2531
L32.8321 -56.3042
L32.4391 -56.3511
L32.0409 -56.3937
L31.6376 -56.4317
L31.2291 -56.4651
L30.8153 -56.4936
L30.3963 -56.517
L29.9722 -56.535
L29.5428 -56.5476
L29.1084 -56.5543
L28.6689 -56.5552
L28.2245 -56.5498
L27.7752 -56.5381
L27.3212 -56.5197
L26.8626 -56.4945
L26.3996 -56.4622
L25.9324 -56.4227
L25.4613 -56.3758
L24.9865 -56.3213
L24.5082 -56.259
L24.0269 -56.1889
L23.543 -56.1108
L23.0567 -56.0248
L22.5688 -55.9309
L22.0796 -55.8291
L21.5899 -55.7197
L21.1002 -55.603
L20.6116 -55.4795
L20.1247 -55.3499
L19.6409 -55.2151
L19.1614 -55.0764
L18.6877 -54.9356
L18.2217 -54.7949
L17.7658 -54.6576
L17.3229 -54.5277
L16.8965 -54.4105
L16.491 -54.313
L16.1116 -54.2434
L15.7638 -54.211
L15.4533 -54.2251
L15.1845 -54.2932
L14.9595 -54.4189
L14.7781 -54.6015
L14.9554 -54.8361
L15.294 -55.2191
L15.6389 -55.5834
L15.99 -55.9418
L16.3473 -56.2941
L16.7105 -56.6403
L17.0796 -56.9801
L17.4544 -57.3136
L17.8349 -57.6405
L18.221 -57.9609
L18.6124 -58.2746
L19.0092 -58.5815
L19.4111 -58.8815
L19.8181 -59.1745
L20.23 -59.4605
L20.6467 -59.7394
L21.0681 -60.011
L21.494 -60.2753
L21.9244 -60.5322
L22.359 -60.7816
L22.7978 -61.0235
L23.2406 -61.2577
L23.6873 -61.4843
L24.1378 -61.7031
L24.5919 -61.9141
L25.0494 -62.1171
L25.5103 -62.3123
L25.9744 -62.4994
L26.4415 -62.6784
L26.9115 -62.8493
L27.3843 -63.012
L27.8598 -63.1665
L28.3377 -63.3128
L28.8179 -63.4507
L29.3004 -63.5802
L29.7849 -63.7014
L30.2712 -63.8141
L30.7593 -63.9183
L31.249 -64.014
L31.7402 -64.1012
L32.2327 -64.1799
L32.7263 -64.2499
L33.2209 -64.3114
L33.7163 -64.3642
L34.2124 -64.4084
L34.7091 -64.4439
L35.2062 -64.4708
L35.7035 -64.4889
L36.2009 -64.4985
L36.6983 -64.4993
L37.1954 -64.4914
L37.6922 -64.4749
L38.1885 -64.4497
L38.6841 -64.4159
L39.1788 -64.3733
L39.6726 -64.3222
L40.1653 -64.2624
L40.6567 -64.194
L41.1467 -64.117
L41.6352 -64.0314
L42.1219 -63.9373
L42.6067 -63.8347
L43.0896 -63.7237
L43.5703 -63.6041
L44.0486 -63.4762
L44.5246 -63.3399
L44.9979 -63.1953
L45.4685 -63.0423
L45.9362 -62.8812
L46.4008 -62.7118
L46.8623 -62.5344
L47.3205 -62.3488
L47.7753 -62.1552
L48.2264 -61.9537
L48.6739 -61.7442
L49.1175 -61.5269
L49.557 -61.3018
L49.9925 -61.069
L50.4237 -60.8286
L50.8505 -60.5806
L51.2727 -60.3252
L51.6904 -60.0623
L52.1032 -59.7921
L52.5111 -59.5146
L52.914 -59.23
L53.3118 -58.9383
L53.7043 -58.6396
L54.0914 -58.334
L54.4729 -58.0216
L54.8489 -57.7026
L55.2191 -57.3769
L55.5834 -57.0446
L55.9418 -56.706
L56.2941 -56.3611
L56.6403 -56.01
L56.9801 -55.6527
L57.3136 -55.2895
L57.6405 -54.9204
L57.9609 -54.5456
L58.2746 -54.1651
L58.5815 -53.779
L58.8815 -53.3876
L59.1745 -52.9908
L59.4605 -52.5889
L59.7394 -52.1819
L60.011 -51.77
L60.2753 -51.3533
L60.5322 -50.9319
L60.7816 -50.506
L61.0235 -50.0756
L61.2577 -49.641
L61.4843 -49.2022
L61.7031 -48.7594
L61.9141 -48.3127
L62.1171 -47.8622
L62.3123 -47.4081
L62.4994 -46.9506
L62.6784 -46.4897
L62.8493 -46.0256
L63.012 -45.5585
L63.1665 -45.0885
L63.3128 -44.6157
L63.4507 -44.1402
L63.5802 -43.6623
L63.7014 -43.1821
L63.8141 -42.6996
L63.9183 -42.2151
L64.014 -41.7288
L64.1012 -41.2407
L64.1799 -40.751
L64.2499 -40.2598
L64.3114 -39.7673
L64.3642 -39.2737
L64.4084 -38.7791
L64.4439 -38.2837
L64.4708 -37.7876
L64.4889 -37.2909
L64.4985 -36.7938
L64.4993 -36.2965
L64.4914 -35.7991
L64.4749 -35.3017
L64.4497 -34.8046
L64.4159 -34.3078
L64.3733 -33.8115
L64.3222 -33.3159
L64.2624 -32.8212
L64.194 -32.3274
L64.117 -31.8347
L64.0314 -31.3433
L63.9373 -30.8533
L63.8347 -30.3648
L63.7237 -29.8781
L63.6041 -29.3933
L63.4762 -28.9104
L63.3399 -28.4297
L63.1953 -27.9514
L63.0423 -27.4754
L62.8812 -27.0021
L62.7118 -26.5315
L62.5344 -26.0638
L62.3488 -25.5992
L62.1552 -25.1377
L61.9537 -24.6795
z
" id="C0_2_3763c9e561"/>
    </defs>
    <g clip-path="url(#p1bffca34e9)">
     <use style="fill:#ff0000;stroke:#000000;stroke-width:2.0;" x="0.0" xlink:href="#C0_0_a811fe30f3" y="72.0"/>
    </g>
    <g clip-path="url(#p1bffca34e9)">
     <use style="fill:#ffffff;stroke:#000000;stroke-width:2.0;" x="0.0" xlink:href="#C0_1_aa9cc5fe2b" y="72.0"/>
    </g>
    <g clip-path="url(#p1bffca34e9)">
     <use style="fill:#ffffff;stroke:#000000;stroke-width:2.0;" x="0.0" xlink:href="#C0_2_3763c9e561" y="72.0"/>
    </g>
   </g>
  </g>
 </g>
 <defs>
  <clipPath id="p1bffca34e9">
   <rect height="72.0" width="72.0" x="0.0" y="0.0"/>
  </clipPath>
 </defs>
</svg>
