<?xml version="1.0" encoding="utf-8" standalone="no"?>
<!DOCTYPE svg PUBLIC "-//W3C//DTD SVG 1.1//EN"
  "http://www.w3.org/Graphics/SVG/1.1/DTD/svg11.dtd">
<!-- Created with matplotlib (http://matplotlib.org/) -->
<svg height="72pt" version="1.1" viewBox="0 0 72 72" width="72pt" xmlns="http://www.w3.org/2000/svg" xmlns:xlink="http://www.w3.org/1999/xlink">
 <defs>
  <style type="text/css">
*{stroke-linecap:butt;stroke-linejoin:round;}
  </style>
 </defs>
 <g id="figure_1">
  <g id="patch_1">
   <path d="
M0 72
L72 72
L72 0
L0 0
z
" style="fill:none;"/>
  </g>
  <g id="axes_1">
   <g id="PatchCollection_1">
    <defs>
     <path d="
M36 -7.5
C43.5583 -7.5 50.808 -10.5029 56.1525 -15.8475
C61.4971 -21.192 64.5 -28.4417 64.5 -36
C64.5 -43.5583 61.4971 -50.808 56.1525 -56.1525
C50.808 -61.4971 43.5583 -64.5 36 -64.5
C28.4417 -64.5 21.192 -61.4971 15.8475 -56.1525
C10.5029 -50.808 7.5 -43.5583 7.5 -36
C7.5 -28.4417 10.5029 -21.192 15.8475 -15.8475
C21.192 -10.5029 28.4417 -7.5 36 -7.5
z
" id="C0_0_a811fe30f3"/>
     <path d="
M45.7191 -32.6962
L45.7444 -32.9601
L45.768 -33.2243
L45.7899 -33.4888
L45.8102 -33.7537
L45.8288 -34.0189
L45.8457 -34.2846
L45.8609 -34.5508
L45.8745 -34.8175
L45.8863 -35.0848
L45.8965 -35.3527
L45.9049 -35.6213
L45.9116 -35.8905
L45.9166 -36.1605
L45.9198 -36.4313
L45.9213 -36.7029
L45.9209 -36.9754
L45.9187 -37.2488
L45.9147 -37.5231
L45.9088 -37.7984
L45.901 -38.0747
L45.8913 -38.3521
L45.8796 -38.6306
L45.866 -38.9103
L45.8503 -39.191
L45.8325 -39.473
L45.8125 -39.7563
L45.7905 -40.0407
L45.7662 -40.3265
L45.7396 -40.6136
L45.7107 -40.902
L45.6795 -41.1918
L45.6458 -41.483
L45.6097 -41.7755
L45.5709 -42.0694
L45.5296 -42.3648
L45.4856 -42.6616
L45.4388 -42.9598
L45.3891 -43.2594
L45.3366 -43.5605
L45.281 -43.8629
L45.2223 -44.1667
L45.1605 -44.4719
L45.0954 -44.7785
L45.0269 -45.0863
L44.9549 -45.3954
L44.8794 -45.7057
L44.8002 -46.0172
L44.7171 -46.3297
L44.6302 -46.6433
L44.5392 -46.9578
L44.4441 -47.2732
L44.3447 -47.5893
L44.2409 -47.906
L44.1325 -48.2233
L44.0194 -48.5409
L43.9015 -48.8587
L43.7786 -49.1765
L43.6506 -49.4942
L43.5173 -49.8115
L43.3785 -50.1283
L43.2342 -50.4443
L43.084 -50.7592
L42.9279 -51.0728
L42.7657 -51.3848
L42.5972 -51.6949
L42.4222 -52.0027
L42.2405 -52.3078
L42.0521 -52.61
L41.8566 -52.9087
L41.6539 -53.2037
L41.4439 -53.4943
L41.2263 -53.7801
L41.001 -54.0606
L40.7679 -54.3353
L40.5267 -54.6037
L40.2773 -54.8651
L40.0197 -55.119
L39.7537 -55.3647
L39.4791 -55.6017
L39.196 -55.8293
L38.9044 -56.0469
L38.6041 -56.2539
L38.2953 -56.4496
L37.9779 -56.6335
L37.6523 -56.805
L37.3184 -56.9635
L36.9766 -57.1086
L36.6271 -57.2398
L36.2703 -57.3567
L35.9065 -57.4589
L35.5361 -57.5464
L35.1597 -57.6187
L34.7777 -57.676
L34.3908 -57.718
L33.9995 -57.7448
L33.6044 -57.7565
L33.2062 -57.7533
L32.8055 -57.7355
L32.4029 -57.7032
L31.9991 -57.6569
L31.5947 -57.5968
L31.1903 -57.5234
L30.7865 -57.4371
L30.3839 -57.3383
L29.9829 -57.2276
L29.5842 -57.1054
L29.1882 -56.9722
L28.7953 -56.8284
L28.4059 -56.6746
L28.0204 -56.5113
L27.6392 -56.3388
L27.2625 -56.1577
L26.8906 -55.9685
L26.5239 -55.7716
L26.1624 -55.5674
L25.8065 -55.3563
L25.4562 -55.1388
L25.1117 -54.9153
L24.7732 -54.686
L24.4407 -54.4515
L24.1143 -54.2119
L23.7941 -53.9678
L23.4801 -53.7193
L23.1724 -53.4667
L22.8709 -53.2105
L22.5757 -52.9507
L22.2867 -52.6878
L22.004 -52.4219
L21.7276 -52.1533
L21.4572 -51.8821
L21.193 -51.6086
L20.9349 -51.333
L20.6828 -51.0555
L20.4367 -50.7762
L20.1964 -50.4953
L19.9619 -50.2129
L19.7332 -49.9291
L19.5101 -49.6442
L19.2926 -49.3582
L19.0806 -49.0712
L18.874 -48.7833
L18.6727 -48.4946
L18.4767 -48.2052
L18.2858 -47.9152
L18.1 -47.6246
L17.9192 -47.3336
L17.7433 -47.0421
L17.5722 -46.7502
L17.4058 -46.4579
L17.2442 -46.1654
L17.0871 -45.8726
L16.9345 -45.5796
L16.7863 -45.2863
L16.6425 -44.9929
L16.503 -44.6992
L16.3677 -44.4055
L16.2366 -44.1115
L16.1096 -43.8174
L15.9866 -43.5232
L15.8676 -43.2288
L15.7525 -42.9343
L15.6412 -42.6396
L15.5338 -42.3448
L15.4301 -42.0498
L15.3301 -41.7546
L15.2339 -41.4592
L15.1412 -41.1636
L15.0521 -40.8677
L14.9666 -40.5716
L14.8846 -40.2752
L14.8062 -39.9785
L14.7311 -39.6815
L14.6596 -39.3842
L14.5914 -39.0864
L14.5266 -38.7882
L14.4653 -38.4896
L14.4073 -38.1906
L14.3527 -37.891
L14.3014 -37.5909
L14.2534 -37.2902
L14.2089 -36.989
L14.1676 -36.6871
L14.1298 -36.3845
L14.0953 -36.0813
L14.0641 -35.7773
L14.0364 -35.4725
L14.012 -35.167
L13.9911 -34.8606
L13.9736 -34.5533
L13.9596 -34.2452
L13.9491 -33.9361
L13.9421 -33.626
L13.9387 -33.315
L13.9388 -33.0029
L13.9427 -32.6897
L13.9502 -32.3755
L13.9615 -32.0601
L13.9766 -31.7436
L13.9955 -31.4259
L14.0183 -31.107
L14.0452 -30.7869
L14.076 -30.4655
L14.111 -30.1429
L14.1501 -29.8191
L14.1936 -29.4939
L14.2414 -29.1674
L14.2936 -28.8396
L14.3503 -28.5105
L14.4117 -28.1801
L14.4777 -27.8484
L14.5486 -27.5154
L14.6244 -27.1811
L14.7053 -26.8455
L14.7912 -26.5087
L14.8825 -26.1706
L14.979 -25.8313
L15.0811 -25.4909
L15.1889 -25.1494
L15.3023 -24.8068
L15.4216 -24.4632
L15.547 -24.1187
L15.6785 -23.7733
L15.8163 -23.4272
L15.9605 -23.0804
L16.1112 -22.7331
L16.2687 -22.3853
L16.433 -22.0372
L16.6043 -21.689
L16.7828 -21.3407
L16.9684 -20.9926
L17.1615 -20.6449
L17.3622 -20.2977
L17.5705 -19.9513
L17.7865 -19.6059
L18.0105 -19.2617
L18.2425 -18.919
L18.4826 -18.5781
L18.731 -18.2393
L18.9876 -17.903
L19.2526 -17.5694
L19.5259 -17.239
L19.8078 -16.9121
L20.0981 -16.5891
L20.3968 -16.2705
L20.704 -15.9567
L21.0196 -15.6482
L21.3435 -15.3455
L21.6756 -15.0491
L22.0158 -14.7595
L22.3639 -14.4774
L22.7197 -14.2032
L23.083 -13.9375
L23.4535 -13.6811
L23.8308 -13.4344
L24.2146 -13.1981
L24.6045 -12.9728
L25.0001 -12.7592
L25.4009 -12.5578
L25.8063 -12.3693
L26.2157 -12.1942
L26.6286 -12.0331
L27.0443 -11.8866
L27.4621 -11.7551
L27.8814 -11.639
L28.3014 -11.5388
L28.7214 -11.4547
L29.1408 -11.3869
L29.5587 -11.3358
L29.9745 -11.3012
L30.3875 -11.2833
L30.797 -11.2819
L31.2025 -11.2969
L31.6034 -11.328
L31.9992 -11.375
L32.3894 -11.4373
L32.7735 -11.5147
L33.1513 -11.6066
L33.5224 -11.7124
L33.8866 -11.8315
L34.2436 -11.9635
L34.5933 -12.1075
L34.9356 -12.2631
L35.2703 -12.4295
L35.5975 -12.6062
L35.917 -12.7925
L36.229 -12.9878
L36.5334 -13.1915
L36.8303 -13.403
L37.1198 -13.6217
L37.4019 -13.8472
L37.6767 -14.0788
L37.9444 -14.3162
L38.205 -14.5588
L38.4587 -14.8062
L38.7057 -15.0579
L38.9459 -15.3137
L39.1796 -15.573
L39.407 -15.8356
L39.6281 -16.1011
L39.843 -16.3691
L40.052 -16.6395
L40.2552 -16.912
L40.4527 -17.1862
L40.6446 -17.4619
L40.8311 -17.739
L41.0124 -18.0172
L41.1885 -18.2964
L41.3595 -18.5763
L41.5257 -18.8568
L41.6872 -19.1377
L41.844 -19.419
L41.9963 -19.7005
L42.1442 -19.982
L42.2879 -20.2635
L42.4274 -20.5449
L42.5628 -20.8261
L42.6944 -21.107
L42.8221 -21.3876
L42.946 -21.6678
L43.0664 -21.9475
L43.1832 -22.2267
L43.2966 -22.5054
L43.4066 -22.7834
L43.5134 -23.0609
L43.617 -23.3378
L43.7175 -23.614
L43.815 -23.8895
L43.9096 -24.1644
L44.0013 -24.4386
L44.0902 -24.7122
L44.1765 -24.985
L44.26 -25.2572
L44.341 -25.5287
L44.4194 -25.7996
L44.4954 -26.0699
L44.569 -26.3395
L44.6402 -26.6085
L44.7091 -26.877
L44.7758 -27.1448
L44.8402 -27.4122
L44.9025 -27.679
L44.9626 -27.9454
L45.0207 -28.2113
L45.0767 -28.4768
L45.1308 -28.7419
L45.1828 -29.0067
L45.2329 -29.2711
L45.2811 -29.5352
L45.3274 -29.7991
L45.3719 -30.0628
L45.4145 -30.3263
L45.4554 -30.5896
L45.4944 -30.8529
L45.5317 -31.1161
L45.5672 -31.3792
L45.601 -31.6424
L45.6331 -31.9057
L45.6634 -32.169
z
" id="C0_1_0e3fb7308d"/>
    </defs>
    <g clip-path="url(#p1bffca34e9)">
     <use style="fill:#ffffff;stroke:#000000;stroke-width:2.0;" x="0.0" xlink:href="#C0_0_a811fe30f3" y="72.0"/>
    </g>
    <g clip-path="url(#p1bffca34e9)">
     <use style="fill:#ff0000;stroke:#000000;stroke-width:2.0;" x="0.0" xlink:href="#C0_1_0e3fb7308d" y="72.0"/>
    </g>
   </g>
  </g>
 </g>
 <defs>
  <clipPath id="p1bffca34e9">
   <rect height="72.0" width="72.0" x="0.0" y="0.0"/>
  </clipPath>
 </defs>
</svg>
