<?xml version="1.0" encoding="utf-8" standalone="no"?>
<!DOCTYPE svg PUBLIC "-//W3C//DTD SVG 1.1//EN"
  "http://www.w3.org/Graphics/SVG/1.1/DTD/svg11.dtd">
<!-- Created with matplotlib (http://matplotlib.org/) -->
<svg height="72pt" version="1.1" viewBox="0 0 72 72" width="72pt" xmlns="http://www.w3.org/2000/svg" xmlns:xlink="http://www.w3.org/1999/xlink">
 <defs>
  <style type="text/css">
*{stroke-linecap:butt;stroke-linejoin:round;}
  </style>
 </defs>
 <g id="figure_1">
  <g id="patch_1">
   <path d="
M0 72
L72 72
L72 0
L0 0
z
" style="fill:none;"/>
  </g>
  <g id="axes_1">
   <g id="PatchCollection_1">
    <defs>
     <path d="
M36 -7.5
C43.5583 -7.5 50.808 -10.5029 56.1525 -15.8475
C61.4971 -21.192 64.5 -28.4417 64.5 -36
C64.5 -43.5583 61.4971 -50.808 56.1525 -56.1525
C50.808 -61.4971 43.5583 -64.5 36 -64.5
C28.4417 -64.5 21.192 -61.4971 15.8475 -56.1525
C10.5029 -50.808 7.5 -43.5583 7.5 -36
C7.5 -28.4417 10.5029 -21.192 15.8475 -15.8475
C21.192 -10.5029 28.4417 -7.5 36 -7.5
z
" id="C0_0_a811fe30f3"/>
     <path d="
M29.4062 -8.48342
L29.3114 -8.74918
L29.2491 -9.01736
L29.2171 -9.28764
L29.2129 -9.55979
L29.2339 -9.83365
L29.2775 -10.1091
L29.3411 -10.3861
L29.4224 -10.6645
L29.519 -10.9443
L29.629 -11.2255
L29.7505 -11.5079
L29.8818 -11.7915
L30.0216 -12.0761
L30.1684 -12.3618
L30.3211 -12.6484
L30.4788 -12.9358
L30.6406 -13.2238
L30.8056 -13.5123
L30.9732 -13.8012
L31.1428 -14.0905
L31.3139 -14.3798
L31.486 -14.6692
L31.6587 -14.9584
L31.8317 -15.2474
L32.0047 -15.536
L32.1774 -15.8242
L32.3495 -16.1118
L32.521 -16.3987
L32.6915 -16.6849
L32.861 -16.9701
L33.0294 -17.2545
L33.1964 -17.5378
L33.3621 -17.82
L33.5263 -18.101
L33.6891 -18.3809
L33.8502 -18.6595
L34.0098 -18.9367
L34.1677 -19.2127
L34.324 -19.4872
L34.4785 -19.7604
L34.6314 -20.0322
L34.7826 -20.3025
L34.9321 -20.5713
L35.0799 -20.8387
L35.2261 -21.1047
L35.3705 -21.3691
L35.5133 -21.6322
L35.6545 -21.8938
L35.7941 -22.1539
L35.9321 -22.4127
L36.0685 -22.6701
L36.2034 -22.926
L36.3368 -23.1807
L36.4687 -23.434
L36.5991 -23.686
L36.7281 -23.9368
L36.8558 -24.1863
L36.9821 -24.4346
L37.107 -24.6818
L37.2307 -24.9278
L37.3531 -25.1728
L37.4743 -25.4167
L37.5944 -25.6596
L37.7132 -25.9016
L37.8309 -26.1426
L37.9475 -26.3828
L38.0631 -26.6221
L38.1777 -26.8606
L38.2912 -27.0984
L38.4038 -27.3356
L38.5154 -27.572
L38.6261 -27.8079
L38.736 -28.0432
L38.845 -28.2781
L38.9533 -28.5125
L39.0607 -28.7465
L39.1674 -28.9801
L39.2733 -29.2135
L39.3786 -29.4466
L39.4831 -29.6795
L39.5871 -29.9123
L39.6904 -30.1449
L39.7932 -30.3776
L39.8953 -30.6103
L39.997 -30.843
L40.0981 -31.0759
L40.2989 -31.3089
L40.3987 -31.5422
L40.498 -31.7757
L40.5969 -32.0096
L40.6955 -32.2439
L40.7937 -32.4787
L40.8916 -32.7139
L40.9892 -32.9498
L41.0865 -33.1862
L41.1835 -33.4233
L41.2804 -33.6612
L41.3769 -33.8998
L41.4733 -34.1393
L41.5695 -34.3797
L41.6655 -34.621
L41.7614 -34.8634
L41.8572 -35.1068
L41.9528 -35.3514
L42.0483 -35.5972
L42.1438 -35.8442
L42.2392 -36.0925
L42.3345 -36.3422
L42.4298 -36.5933
L42.5251 -36.846
L42.6203 -37.1001
L42.7156 -37.3559
L42.8109 -37.6133
L42.9062 -37.8725
L43.0015 -38.1334
L43.0969 -38.3961
L43.1923 -38.6608
L43.2878 -38.9274
L43.3834 -39.196
L43.4791 -39.4666
L43.5748 -39.7394
L43.6706 -40.0143
L43.7665 -40.2914
L43.8626 -40.5708
L43.9587 -40.8525
L44.0549 -41.1365
L44.1513 -41.423
L44.2477 -41.7118
L44.3443 -42.0031
L44.4409 -42.2969
L44.5377 -42.5932
L44.6346 -42.8921
L44.7315 -43.1935
L44.8286 -43.4975
L44.9258 -43.8041
L45.0231 -44.1133
L45.1204 -44.425
L45.2179 -44.7393
L45.3154 -45.0562
L45.4131 -45.3755
L45.5108 -45.6974
L45.6086 -46.0217
L45.7066 -46.3483
L45.8047 -46.6772
L45.9029 -47.0083
L46.0012 -47.3415
L46.0997 -47.6767
L46.1985 -48.0136
L46.2975 -48.3523
L46.3969 -48.6924
L46.4966 -49.0338
L46.5968 -49.3763
L46.6977 -49.7195
L46.7992 -50.0632
L46.9017 -50.4071
L47.0052 -50.7507
L47.11 -51.0938
L47.2164 -51.4357
L47.3247 -51.7761
L47.4353 -52.1143
L47.5486 -52.4497
L47.6651 -52.7816
L47.7855 -53.1092
L47.9105 -53.4316
L48.0407 -53.7478
L48.1773 -54.0568
L48.3212 -54.3573
L48.4735 -54.6479
L48.6355 -54.9272
L48.8086 -55.1937
L48.9942 -55.4456
L49.1937 -55.681
L49.4086 -55.8983
L49.6401 -56.0953
L49.8893 -56.2705
L50.157 -56.422
L50.4438 -56.5484
L50.7496 -56.6484
L51.0742 -56.7213
L51.4167 -56.7664
L51.7759 -56.7837
L52.1505 -56.7734
L52.5387 -56.736
L52.9388 -56.6722
L53.3489 -56.5831
L53.7671 -56.4698
L54.1915 -56.3333
L54.6205 -56.1749
L55.0525 -55.9958
L55.4859 -55.7971
L55.9193 -55.5799
L56.3516 -55.3452
L56.7815 -55.0942
L57.208 -54.8278
L57.6303 -54.5469
L58.0474 -54.2523
L58.4144 -53.9449
L58.7182 -53.6023
L59.0151 -53.2085
L59.305 -52.8094
L59.5877 -52.4051
L59.8633 -51.9959
L60.1316 -51.5818
L60.3926 -51.163
L60.6461 -50.7395
L60.8921 -50.3116
L61.1305 -49.8792
L61.3613 -49.4427
L61.5844 -49.0021
L61.7996 -48.5575
L62.007 -48.109
L62.2065 -47.6569
L62.398 -47.2013
L62.5815 -46.7422
L62.7568 -46.2799
L62.924 -45.8144
L63.083 -45.3459
L63.2338 -44.8746
L63.3763 -44.4006
L63.5104 -43.924
L63.6361 -43.445
L63.7535 -42.9638
L63.8623 -42.4804
L63.9627 -41.995
L64.0546 -41.5079
L64.1379 -41.019
L64.2127 -40.5286
L64.2788 -40.0369
L64.3364 -39.5439
L64.3853 -39.0498
L64.4255 -38.5548
L64.4571 -38.059
L64.4801 -37.5626
L64.4943 -37.0657
L64.4999 -36.5685
L64.4968 -36.0711
L64.485 -35.5737
L64.4646 -35.0765
L64.4354 -34.5795
L64.3977 -34.0829
L64.3512 -33.5869
L64.2961 -33.0917
L64.2325 -32.5973
L64.1602 -32.104
L64.0793 -31.6119
L63.9899 -31.1211
L63.8919 -30.6318
L63.7855 -30.1441
L63.6705 -29.6582
L63.5472 -29.1743
L63.4155 -28.6924
L63.2754 -28.2127
L63.127 -27.7355
L62.9704 -27.2607
L62.8055 -26.7886
L62.6324 -26.3193
L62.4513 -25.853
L62.2621 -25.3897
L62.0649 -24.9297
L61.8598 -24.473
L61.6467 -24.0199
L61.4259 -23.5704
L61.1973 -23.1247
L60.9611 -22.6829
L60.7172 -22.2452
L60.4658 -21.8116
L60.207 -21.3824
L59.9408 -20.9577
L59.6673 -20.5375
L59.3866 -20.122
L59.0987 -19.7114
L58.8038 -19.3057
L58.502 -18.9051
L58.1934 -18.5098
L57.8779 -18.1197
L57.5558 -17.7351
L57.2272 -17.3561
L56.892 -16.9827
L56.5505 -16.6151
L56.2028 -16.2535
L55.8489 -15.8978
L55.4889 -15.5483
L55.123 -15.205
L54.7513 -14.868
L54.3739 -14.5375
L53.9909 -14.2135
L53.6023 -13.8962
L53.2085 -13.5856
L52.8094 -13.2818
L52.4051 -12.9849
L51.9959 -12.695
L51.5818 -12.4123
L51.163 -12.1367
L50.7395 -11.8684
L50.3116 -11.6074
L49.8792 -11.3539
L49.4427 -11.1079
L49.0021 -10.8695
L48.5575 -10.6387
L48.109 -10.4156
L47.6569 -10.2004
L47.2013 -9.99297
L46.7422 -9.79349
L46.2799 -9.60199
L45.8144 -9.41853
L45.3459 -9.24317
L44.8746 -9.07596
L44.4006 -8.91695
L43.924 -8.7662
L43.445 -8.62373
L42.9638 -8.48961
L42.4804 -8.36387
L41.995 -8.24654
L41.5079 -8.13767
L41.019 -8.03728
L40.5286 -7.94542
L40.0369 -7.8621
L39.5439 -7.78735
L39.0498 -7.72119
L38.5548 -7.66365
L38.059 -7.61474
L37.5626 -7.57447
L37.0657 -7.54287
L36.5685 -7.51993
L36.0711 -7.50567
L35.5737 -7.50009
L35.0765 -7.50319
L34.5795 -7.51497
L34.0829 -7.53542
L33.5869 -7.56455
L33.0917 -7.60234
L32.5973 -7.64878
L32.104 -7.70385
L31.6119 -7.76755
L31.1211 -7.83984
L30.6318 -7.92071
L30.1441 -8.01014
z
" id="C0_1_987924fdf6"/>
     <path d="
M13.6187 -18.4352
L13.4052 -18.9085
L13.1999 -19.3826
L13.003 -19.8571
L12.8147 -20.3314
L12.6352 -20.8052
L12.4644 -21.278
L12.3025 -21.7494
L12.1493 -22.2192
L12.005 -22.6869
L11.8693 -23.1523
L11.7422 -23.6152
L11.6235 -24.0752
L11.5131 -24.5322
L11.4109 -24.9861
L11.3166 -25.4365
L11.2301 -25.8834
L11.1511 -26.3267
L11.0796 -26.7662
L11.0153 -27.2019
L10.958 -27.6336
L10.9075 -28.0614
L10.8636 -28.4851
L10.8261 -28.9047
L10.7949 -29.3202
L10.7697 -29.7315
L10.7504 -30.1388
L10.7367 -30.5419
L10.7286 -30.9409
L10.7257 -31.3358
L10.7281 -31.7267
L10.7354 -32.1135
L10.7476 -32.4963
L10.7646 -32.8752
L10.7861 -33.2502
L10.812 -33.6213
L10.8422 -33.9886
L10.8766 -34.3522
L10.9151 -34.7122
L10.9575 -35.0685
L11.0038 -35.4213
L11.0538 -35.7706
L11.1074 -36.1165
L11.1646 -36.4591
L11.2253 -36.7984
L11.2894 -37.1346
L11.3568 -37.4676
L11.4274 -37.7976
L11.5013 -38.1246
L11.5782 -38.4487
L11.6582 -38.77
L11.7413 -39.0886
L11.8273 -39.4045
L11.9162 -39.7178
L12.008 -40.0285
L12.1027 -40.3368
L12.2002 -40.6428
L12.3005 -40.9464
L12.4035 -41.2477
L12.5093 -41.5469
L12.6179 -41.8439
L12.7292 -42.139
L12.8432 -42.432
L12.9599 -42.7231
L13.0793 -43.0124
L13.2014 -43.2998
L13.3263 -43.5856
L13.4538 -43.8696
L13.5841 -44.1521
L13.7172 -44.433
L13.853 -44.7123
L13.9916 -44.9903
L14.133 -45.2668
L14.2772 -45.542
L14.4243 -45.8159
L14.5742 -46.0885
L14.7271 -46.3599
L14.883 -46.6302
L15.0418 -46.8993
L15.2037 -47.1674
L15.3687 -47.4344
L15.5368 -47.7004
L15.7081 -47.9655
L15.8826 -48.2296
L16.0605 -48.4928
L16.2416 -48.7551
L16.4262 -49.0166
L16.6143 -49.2773
L16.8059 -49.5372
L17.0012 -49.7963
L17.2001 -50.0546
L17.4027 -50.3122
L17.6093 -50.569
L17.8197 -50.8251
L18.0341 -51.0805
L18.2526 -51.3352
L18.4753 -51.5892
L18.7023 -51.8424
L18.9336 -52.0949
L19.1693 -52.3466
L19.4096 -52.5976
L19.6545 -52.8478
L19.9041 -53.0972
L20.1586 -53.3458
L20.418 -53.5935
L20.6825 -53.8402
L20.9521 -54.0861
L21.2269 -54.3309
L21.5071 -54.5747
L21.7927 -54.8173
L22.0839 -55.0588
L22.3808 -55.299
L22.6834 -55.5379
L22.9919 -55.7753
L23.3063 -56.0112
L23.6268 -56.2455
L23.9534 -56.4781
L24.2862 -56.7089
L24.6254 -56.9377
L24.9709 -57.1644
L25.3229 -57.3889
L25.6813 -57.611
L26.0464 -57.8306
L26.418 -58.0475
L26.7962 -58.2617
L27.1811 -58.4728
L27.5725 -58.6807
L27.9706 -58.8854
L28.3752 -59.0865
L28.7864 -59.2838
L29.2039 -59.4774
L29.6277 -59.6668
L30.0577 -59.852
L30.4937 -60.0327
L30.9355 -60.2089
L31.3828 -60.3803
L31.8353 -60.5469
L32.2928 -60.7084
L32.7547 -60.8648
L33.2208 -61.016
L33.6904 -61.162
L34.1629 -61.3027
L34.6378 -61.4383
L35.1142 -61.5688
L35.5914 -61.6943
L36.0684 -61.8152
L36.5441 -61.9318
L37.0173 -62.0446
L37.4868 -62.1539
L37.9512 -62.2607
L38.4087 -62.3656
L38.8578 -62.4695
L39.2965 -62.5737
L39.7229 -62.6793
L40.1349 -62.7876
L40.5305 -62.9001
L40.9075 -63.0181
L41.2641 -63.1432
L41.5984 -63.2766
L41.909 -63.4195
L42.1947 -63.5728
L41.9742 -63.7371
L41.4869 -63.8668
L40.998 -63.9668
L40.5076 -64.0583
L40.0157 -64.1413
L39.5227 -64.2157
L39.0286 -64.2815
L38.5335 -64.3386
L38.0377 -64.3872
L37.5413 -64.4271
L37.0444 -64.4583
L36.5472 -64.4809
L36.0498 -64.4947
L35.5524 -64.5
L35.0551 -64.4965
L34.5581 -64.4843
L34.0616 -64.4635
L33.5657 -64.434
L33.0705 -64.3958
L32.5761 -64.349
L32.0829 -64.2936
L31.5908 -64.2295
L31.1001 -64.1569
L30.6108 -64.0756
L30.1232 -63.9858
L29.6374 -63.8875
L29.1535 -63.7807
L28.6718 -63.6654
L28.1922 -63.5417
L27.715 -63.4096
L27.2404 -63.2692
L26.7684 -63.1205
L26.2992 -62.9634
L25.833 -62.7982
L25.3699 -62.6248
L24.91 -62.4434
L24.4535 -62.2538
L24.0005 -62.0563
L23.5512 -61.8508
L23.1057 -61.6374
L22.664 -61.4163
L22.2265 -61.1873
L21.7931 -60.9508
L21.3641 -60.7066
L20.9395 -60.4549
L20.5196 -60.1957
L20.1043 -59.9292
L19.6939 -59.6554
L19.2884 -59.3744
L18.8881 -59.0862
L18.4929 -58.791
L18.1031 -58.4889
L17.7187 -58.18
L17.3399 -57.8642
L16.9668 -57.5419
L16.5995 -57.2129
L16.2381 -56.8775
L15.8827 -56.5357
L15.5334 -56.1877
L15.1904 -55.8335
L14.8537 -55.4733
L14.5235 -55.1072
L14.1998 -54.7352
L13.8827 -54.3576
L13.5724 -53.9743
L13.2689 -53.5856
L12.9723 -53.1915
L12.6828 -52.7921
L12.4003 -52.3877
L12.125 -51.9782
L11.857 -51.5639
L11.5964 -51.1449
L11.3432 -50.7212
L11.0975 -50.2931
L10.8594 -49.8606
L10.629 -49.4239
L10.4062 -48.9831
L10.1913 -48.5383
L9.98424 -48.0897
L9.78511 -47.6375
L9.59395 -47.1817
L9.41084 -46.7224
L9.23583 -46.26
L9.06897 -45.7943
L8.91032 -45.3258
L8.75991 -44.8543
L8.61781 -44.3802
L8.48404 -43.9035
L8.35866 -43.4244
L8.2417 -42.9431
L8.13319 -42.4596
L8.03317 -41.9742
L7.94167 -41.4869
L7.85871 -40.998
L7.78433 -40.5076
L7.71855 -40.0157
L7.66137 -39.5227
L7.61283 -39.0286
L7.57294 -38.5335
L7.54171 -38.0377
L7.51914 -37.5413
L7.50525 -37.0444
L7.50004 -36.5472
L7.50352 -36.0498
L7.51567 -35.5524
L7.5365 -35.0551
L7.56599 -34.5581
L7.60416 -34.0616
L7.65096 -33.5657
L7.70641 -33.0705
L7.77047 -32.5761
L7.84314 -32.0829
L7.92438 -31.5908
L8.01417 -31.1001
L8.11248 -30.6108
L8.2193 -30.1232
L8.33457 -29.6374
L8.45827 -29.1535
L8.59036 -28.6718
L8.7308 -28.1922
L8.87955 -27.715
L9.03655 -27.2404
L9.20177 -26.7684
L9.37516 -26.2992
L9.55665 -25.833
L9.7462 -25.3699
L9.94374 -24.91
L10.1492 -24.4535
L10.3626 -24.0005
L10.5837 -23.5512
L10.8127 -23.1057
L11.0492 -22.664
L11.2934 -22.2265
L11.5451 -21.7931
L11.8043 -21.3641
L12.0708 -20.9395
L12.3446 -20.5196
L12.6256 -20.1043
L12.9138 -19.6939
L13.209 -19.2884
z
" id="C0_2_f58a5700e5"/>
    </defs>
    <g clip-path="url(#p1bffca34e9)">
     <use style="fill:#ff0000;stroke:#000000;stroke-width:2.0;" x="0.0" xlink:href="#C0_0_a811fe30f3" y="72.0"/>
    </g>
    <g clip-path="url(#p1bffca34e9)">
     <use style="fill:#ffffff;stroke:#000000;stroke-width:2.0;" x="0.0" xlink:href="#C0_1_987924fdf6" y="72.0"/>
    </g>
    <g clip-path="url(#p1bffca34e9)">
     <use style="fill:#ffffff;stroke:#000000;stroke-width:2.0;" x="0.0" xlink:href="#C0_2_f58a5700e5" y="72.0"/>
    </g>
   </g>
  </g>
 </g>
 <defs>
  <clipPath id="p1bffca34e9">
   <rect height="72.0" width="72.0" x="0.0" y="0.0"/>
  </clipPath>
 </defs>
</svg>
