<?xml version="1.0" encoding="utf-8" standalone="no"?>
<!DOCTYPE svg PUBLIC "-//W3C//DTD SVG 1.1//EN"
  "http://www.w3.org/Graphics/SVG/1.1/DTD/svg11.dtd">
<!-- Created with matplotlib (http://matplotlib.org/) -->
<svg height="72pt" version="1.1" viewBox="0 0 72 72" width="72pt" xmlns="http://www.w3.org/2000/svg" xmlns:xlink="http://www.w3.org/1999/xlink">
 <defs>
  <style type="text/css">
*{stroke-linecap:butt;stroke-linejoin:round;}
  </style>
 </defs>
 <g id="figure_1">
  <g id="patch_1">
   <path d="
M0 72
L72 72
L72 0
L0 0
z
" style="fill:none;"/>
  </g>
  <g id="axes_1">
   <g id="PatchCollection_1">
    <defs>
     <path d="
M36 -7.5
C43.5583 -7.5 50.808 -10.5029 56.1525 -15.8475
C61.4971 -21.192 64.5 -28.4417 64.5 -36
C64.5 -43.5583 61.4971 -50.808 56.1525 -56.1525
C50.808 -61.4971 43.5583 -64.5 36 -64.5
C28.4417 -64.5 21.192 -61.4971 15.8475 -56.1525
C10.5029 -50.808 7.5 -43.5583 7.5 -36
C7.5 -28.4417 10.5029 -21.192 15.8475 -15.8475
C21.192 -10.5029 28.4417 -7.5 36 -7.5
z
" id="C0_0_a811fe30f3"/>
     <path d="
M58.4029 -18.5448
L58.3573 -18.7987
L58.3082 -19.0498
L58.2557 -19.2982
L58.2 -19.544
L58.1412 -19.7873
L58.0793 -20.0281
L58.0146 -20.2665
L57.9471 -20.5027
L57.877 -20.7366
L57.8043 -20.9683
L57.7291 -21.1979
L57.6515 -21.4255
L57.5715 -21.6511
L57.4894 -21.8749
L57.405 -22.0968
L57.3185 -22.3169
L57.2299 -22.5354
L57.1392 -22.7522
L57.0466 -22.9674
L56.9521 -23.1812
L56.8556 -23.3935
L56.7573 -23.6044
L56.6571 -23.8139
L56.5552 -24.0222
L56.4514 -24.2293
L56.3458 -24.4352
L56.2385 -24.64
L56.1295 -24.8437
L56.0187 -25.0465
L55.9062 -25.2483
L55.792 -25.4492
L55.6761 -25.6492
L55.5585 -25.8484
L55.4392 -26.0469
L55.3181 -26.2447
L55.0709 -26.4418
L54.9446 -26.6384
L54.8167 -26.8343
L54.6869 -27.0298
L54.5554 -27.2247
L54.422 -27.4193
L54.2869 -27.6134
L54.1499 -27.8072
L54.0111 -28.0007
L53.8703 -28.1939
L53.7277 -28.3869
L53.5831 -28.5797
L53.4365 -28.7723
L53.2879 -28.9648
L53.1373 -29.1573
L52.9846 -29.3497
L52.8298 -29.542
L52.6729 -29.7344
L52.5138 -29.9269
L52.3524 -30.1194
L52.1888 -30.3121
L52.0228 -30.5049
L51.8545 -30.6978
L51.6838 -30.891
L51.5107 -31.0843
L51.335 -31.2779
L51.1568 -31.4718
L50.9761 -31.666
L50.7926 -31.8604
L50.6065 -32.0551
L50.4176 -32.2502
L50.2258 -32.4456
L50.0313 -32.6414
L49.8338 -32.8375
L49.6333 -33.034
L49.4298 -33.2308
L49.2232 -33.428
L49.0135 -33.6256
L48.8006 -33.8235
L48.5844 -34.0217
L48.3649 -34.2202
L48.1421 -34.419
L47.9158 -34.6181
L47.6861 -34.8174
L47.4528 -35.0169
L47.216 -35.2166
L46.9756 -35.4163
L46.7315 -35.6162
L46.4837 -35.816
L46.2321 -36.0157
L45.9768 -36.2153
L45.7177 -36.4146
L45.4547 -36.6136
L45.1879 -36.8121
L44.9172 -37.0101
L44.6426 -37.2074
L44.3641 -37.4038
L44.0817 -37.5993
L43.7955 -37.7936
L43.5053 -37.9865
L43.2113 -38.178
L42.9135 -38.3677
L42.612 -38.5554
L42.3067 -38.7409
L41.9978 -38.9239
L41.6853 -39.1041
L41.3694 -39.2812
L41.05 -39.4549
L40.7275 -39.6247
L40.4018 -39.7903
L40.0732 -39.9514
L39.7417 -40.1073
L39.4077 -40.2578
L39.0713 -40.4022
L38.7327 -40.54
L38.3921 -40.6707
L38.0499 -40.7937
L37.7063 -40.9083
L37.3615 -41.014
L37.016 -41.11
L36.67 -41.1958
L36.3238 -41.2706
L35.9779 -41.3337
L35.6326 -41.3845
L35.2883 -41.4224
L34.9453 -41.4468
L34.604 -41.457
L34.2648 -41.4527
L33.928 -41.4333
L33.5941 -41.3986
L33.2633 -41.3484
L32.9359 -41.2825
L32.6123 -41.2009
L32.2926 -41.1038
L31.9772 -40.9913
L31.6663 -40.8638
L31.36 -40.7217
L31.0585 -40.5655
L30.7619 -40.3958
L30.4705 -40.2133
L30.1841 -40.0186
L29.903 -39.8125
L29.6272 -39.5957
L29.3567 -39.3689
L29.0916 -39.133
L28.8319 -38.8886
L28.5775 -38.6364
L28.3286 -38.3772
L28.085 -38.1116
L27.8468 -37.8403
L27.6139 -37.5639
L27.3863 -37.2829
L27.164 -36.9979
L26.9468 -36.7094
L26.7349 -36.4179
L26.5281 -36.1237
L26.3263 -35.8274
L26.1296 -35.5293
L25.9378 -35.2297
L25.7509 -34.929
L25.5688 -34.6275
L25.3915 -34.3255
L25.2188 -34.0231
L25.0508 -33.7207
L24.8872 -33.4185
L24.7282 -33.1165
L24.5735 -32.8151
L24.4231 -32.5144
L24.277 -32.2145
L24.135 -31.9155
L23.9971 -31.6176
L23.8632 -31.3208
L23.7332 -31.0253
L23.6071 -30.7311
L23.4847 -30.4383
L23.3661 -30.1469
L23.251 -29.857
L23.1396 -29.5687
L23.0316 -29.2819
L22.927 -28.9967
L22.8257 -28.7131
L22.7278 -28.4312
L22.6331 -28.1509
L22.5415 -27.8722
L22.453 -27.5952
L22.3675 -27.3198
L22.285 -27.046
L22.2055 -26.7739
L22.1288 -26.5033
L22.0549 -26.2343
L21.9838 -25.9668
L21.9154 -25.7009
L21.8497 -25.4364
L21.7866 -25.1734
L21.726 -24.9119
L21.6681 -24.6517
L21.6126 -24.3929
L21.5596 -24.1354
L21.5091 -23.8792
L21.4609 -23.6243
L21.4152 -23.3706
L21.3718 -23.118
L21.3307 -22.8666
L21.2919 -22.6162
L21.2554 -22.3669
L21.2212 -22.1186
L21.1892 -21.8712
L21.1595 -21.6248
L21.132 -21.3792
L21.1067 -21.1344
L21.0837 -20.8904
L21.0628 -20.6472
L21.0441 -20.4046
L21.0277 -20.1626
L21.0134 -19.9213
L21.0014 -19.6805
L20.9916 -19.4402
L20.984 -19.2003
L20.9786 -18.9609
L20.9755 -18.7218
L20.9746 -18.483
L20.9761 -18.2445
L20.9799 -18.0063
L20.986 -17.7682
L20.9944 -17.5302
L21.0053 -17.2924
L21.0186 -17.0546
L21.0344 -16.8168
L21.0526 -16.579
L21.0735 -16.3411
L21.0969 -16.1031
L21.123 -15.865
L21.1518 -15.6266
L21.1833 -15.388
L21.2177 -15.1491
L21.255 -14.9099
L21.2952 -14.6704
L21.3385 -14.4304
L21.3849 -14.1901
L21.4345 -13.9493
L21.4873 -13.7079
L21.5436 -13.4661
L21.6034 -13.2237
L21.6667 -12.9807
L21.7338 -12.7371
L21.8047 -12.4929
L21.8795 -12.248
L21.9584 -12.0024
L22.0415 -11.7562
L22.129 -11.5092
L22.4974 -11.2615
L22.9375 -10.9016
L23.3816 -10.6697
L23.8295 -10.4456
L24.2811 -10.2293
L24.7363 -10.0208
L25.1949 -9.82026
L25.6568 -9.62767
L26.1219 -9.44311
L26.5899 -9.26664
L27.0609 -9.09831
L27.5345 -8.93818
L28.0108 -8.78629
L28.4894 -8.6427
L28.9704 -8.50743
L29.4535 -8.38054
L29.9386 -8.26206
L30.4255 -8.15204
L30.9141 -8.05049
L31.4043 -7.95746
L31.8959 -7.87297
L32.3887 -7.79705
L32.8827 -7.72972
L33.3776 -7.671
L33.8732 -7.62091
L34.3696 -7.57946
L34.8664 -7.54667
L35.3636 -7.52255
L35.8609 -7.50711
L36.3584 -7.50034
L36.8557 -7.50225
L37.3527 -7.51285
L37.8493 -7.53212
L38.3454 -7.56006
L38.8407 -7.59667
L39.3352 -7.64193
L39.8287 -7.69582
L40.321 -7.75834
L40.812 -7.82946
L41.3015 -7.90917
L41.7894 -7.99743
L42.2755 -8.09421
L42.7598 -8.1995
L43.2419 -8.31326
L43.7219 -8.43545
L44.1995 -8.56604
L44.6746 -8.70498
L45.1471 -8.85224
L45.6168 -9.00777
L46.0835 -9.17152
L46.5472 -9.34344
L47.0077 -9.52348
L47.4648 -9.71159
L47.9184 -9.90771
L48.3684 -10.1118
L48.8147 -10.3237
L49.257 -10.5435
L49.6953 -10.771
L50.1294 -11.0062
L50.5592 -11.249
L50.9846 -11.4994
L51.4054 -11.7572
L51.8215 -12.0224
L52.2328 -12.295
L52.6392 -12.5747
L53.0405 -12.8616
L53.4366 -13.1555
L53.8274 -13.4563
L54.2127 -13.7641
L54.5925 -14.0786
L54.9667 -14.3998
L55.335 -14.7276
L55.6975 -15.0618
L56.054 -15.4025
L56.4043 -15.7494
L56.7485 -16.1024
L57.0863 -16.4616
L57.4177 -16.8267
L57.7426 -17.1976
L58.0609 -17.5742
z
" id="C0_1_76aaed37b0"/>
     <path d="
M49.7458 -60.9267
L49.4846 -60.8715
L49.2222 -60.8131
L48.9585 -60.7514
L48.6933 -60.6865
L48.4268 -60.6184
L48.1587 -60.5469
L47.8892 -60.4722
L47.6181 -60.3941
L47.3454 -60.3127
L47.071 -60.2278
L46.7949 -60.1396
L46.5171 -60.0479
L46.2376 -59.9527
L45.9562 -59.8541
L45.673 -59.7519
L45.388 -59.6463
L45.101 -59.5371
L44.8122 -59.4244
L44.5214 -59.3082
L44.2286 -59.1884
L43.9338 -59.0651
L43.6371 -58.9383
L43.3383 -58.808
L43.0375 -58.6742
L42.7347 -58.537
L42.4299 -58.3964
L42.1231 -58.2525
L41.8142 -58.1053
L41.5033 -57.955
L41.1904 -57.8016
L40.8755 -57.6453
L40.5586 -57.4862
L40.2398 -57.3245
L39.919 -57.1603
L39.5964 -56.9938
L39.2718 -56.8253
L38.9454 -56.655
L38.6171 -56.4832
L38.2871 -56.3102
L37.9553 -56.1364
L37.6217 -55.9621
L37.2864 -55.7877
L36.9494 -55.6137
L36.6108 -55.4406
L36.2704 -55.2689
L35.9285 -55.0991
L35.585 -54.9317
L35.2398 -54.7675
L34.893 -54.607
L34.5447 -54.4508
L34.1947 -54.2997
L33.8432 -54.1542
L33.49 -54.0149
L33.1352 -53.8826
L32.7789 -53.7578
L32.4209 -53.6409
L32.0614 -53.5324
L31.7003 -53.4328
L31.3377 -53.3423
L30.9737 -53.261
L30.6083 -53.1891
L30.2416 -53.1265
L29.8737 -53.0732
L29.5049 -53.0289
L29.1351 -52.9933
L28.7646 -52.966
L28.3937 -52.9466
L28.0223 -52.9345
L27.6509 -52.9293
L27.2796 -52.9303
L26.9085 -52.937
L26.538 -52.9488
L26.1682 -52.9651
L25.7994 -52.9854
L25.4318 -53.009
L25.0655 -53.0355
L24.7008 -53.0644
L24.3379 -53.0952
L23.9769 -53.1275
L23.6179 -53.1608
L23.2613 -53.1949
L22.907 -53.2293
L22.5553 -53.2637
L22.2062 -53.2979
L21.8598 -53.3317
L21.5163 -53.3647
L21.1758 -53.3967
L20.8383 -53.4277
L20.5038 -53.4574
L20.1725 -53.4856
L19.8444 -53.5123
L19.5195 -53.5373
L19.1979 -53.5605
L18.8795 -53.5819
L18.5645 -53.6013
L18.2527 -53.6187
L17.9443 -53.6341
L17.6391 -53.6473
L17.3373 -53.6584
L17.0387 -53.6674
L16.7433 -53.6741
L16.4512 -53.6786
L16.1623 -53.6808
L15.8766 -53.6808
L15.5939 -53.6785
L15.3144 -53.6739
L15.0379 -53.667
L14.7644 -53.6578
L14.4938 -53.6464
L14.2261 -53.6326
L13.9613 -53.6166
L13.9387 -53.5982
L14.2569 -54.0429
L14.5818 -54.4252
L14.9132 -54.8019
L15.251 -55.1728
L15.5952 -55.5379
L15.9455 -55.8971
L16.302 -56.2501
L16.6645 -56.5971
L17.0328 -56.9377
L17.407 -57.272
L17.7868 -57.5997
L18.1721 -57.9209
L18.5629 -58.2355
L18.959 -58.5432
L19.3602 -58.8441
L19.7666 -59.138
L20.1779 -59.4249
L20.594 -59.7047
L21.0148 -59.9772
L21.4402 -60.2424
L21.87 -60.5002
L22.3041 -60.7506
L22.7424 -60.9934
L23.1847 -61.2287
L23.6309 -61.4562
L24.0809 -61.676
L24.5345 -61.8879
L24.9916 -62.092
L25.4521 -62.2881
L25.9158 -62.4763
L26.3826 -62.6563
L26.8522 -62.8282
L27.3247 -62.992
L27.7998 -63.1475
L28.2774 -63.2948
L28.7574 -63.4338
L29.2396 -63.5644
L29.7238 -63.6866
L30.2099 -63.8003
L30.6978 -63.9056
L31.1873 -64.0024
L31.6783 -64.0907
L32.1706 -64.1704
L32.6641 -64.2416
L33.1586 -64.3041
L33.6539 -64.358
L34.15 -64.4033
L34.6466 -64.4399
L35.1436 -64.4678
L35.6409 -64.4871
L36.1384 -64.4977
L36.6357 -64.4997
L37.1329 -64.4929
L37.6297 -64.4775
L38.1261 -64.4534
L38.6217 -64.4206
L39.1166 -64.3792
L39.6106 -64.3291
L40.1034 -64.2704
L40.595 -64.2031
L41.0852 -64.1271
L41.5738 -64.0427
L42.0607 -63.9496
L42.5458 -63.8481
L43.0289 -63.7381
L43.5099 -63.6196
L43.9886 -63.4928
L44.4648 -63.3575
L44.9385 -63.2139
L45.4094 -63.062
L45.8775 -62.9019
L46.3425 -62.7336
L46.8044 -62.5571
L47.2631 -62.3726
L47.7183 -62.18
L48.1699 -61.9795
L48.6178 -61.771
L49.0619 -61.5547
z
" id="C0_2_bfc59296fb"/>
    </defs>
    <g clip-path="url(#p1bffca34e9)">
     <use style="fill:#ff0000;stroke:#000000;stroke-width:2.0;" x="0.0" xlink:href="#C0_0_a811fe30f3" y="72.0"/>
    </g>
    <g clip-path="url(#p1bffca34e9)">
     <use style="fill:#ffffff;stroke:#000000;stroke-width:2.0;" x="0.0" xlink:href="#C0_1_76aaed37b0" y="72.0"/>
    </g>
    <g clip-path="url(#p1bffca34e9)">
     <use style="fill:#ffffff;stroke:#000000;stroke-width:2.0;" x="0.0" xlink:href="#C0_2_bfc59296fb" y="72.0"/>
    </g>
   </g>
  </g>
 </g>
 <defs>
  <clipPath id="p1bffca34e9">
   <rect height="72.0" width="72.0" x="0.0" y="0.0"/>
  </clipPath>
 </defs>
</svg>
