<?xml version="1.0" encoding="utf-8" standalone="no"?>
<!DOCTYPE svg PUBLIC "-//W3C//DTD SVG 1.1//EN"
  "http://www.w3.org/Graphics/SVG/1.1/DTD/svg11.dtd">
<!-- Created with matplotlib (http://matplotlib.org/) -->
<svg height="72pt" version="1.1" viewBox="0 0 72 72" width="72pt" xmlns="http://www.w3.org/2000/svg" xmlns:xlink="http://www.w3.org/1999/xlink">
 <defs>
  <style type="text/css">
*{stroke-linecap:butt;stroke-linejoin:round;}
  </style>
 </defs>
 <g id="figure_1">
  <g id="patch_1">
   <path d="
M0 72
L72 72
L72 0
L0 0
z
" style="fill:none;"/>
  </g>
  <g id="axes_1">
   <g id="PatchCollection_1">
    <defs>
     <path d="
M36 -7.5
C43.5583 -7.5 50.808 -10.5029 56.1525 -15.8475
C61.4971 -21.192 64.5 -28.4417 64.5 -36
C64.5 -43.5583 61.4971 -50.808 56.1525 -56.1525
C50.808 -61.4971 43.5583 -64.5 36 -64.5
C28.4417 -64.5 21.192 -61.4971 15.8475 -56.1525
C10.5029 -50.808 7.5 -43.5583 7.5 -36
C7.5 -28.4417 10.5029 -21.192 15.8475 -15.8475
C21.192 -10.5029 28.4417 -7.5 36 -7.5
z
" id="C0_0_a811fe30f3"/>
     <path d="
M45.3234 -31.1874
L45.4265 -31.4271
L45.5282 -31.6674
L45.6287 -31.9085
L45.728 -32.1502
L45.8261 -32.3928
L45.923 -32.6363
L46.0186 -32.8806
L46.1132 -33.1259
L46.2065 -33.3723
L46.2987 -33.6197
L46.3898 -33.8683
L46.4798 -34.118
L46.5686 -34.3691
L46.6563 -34.6214
L46.7428 -34.8752
L46.8283 -35.1304
L46.9126 -35.387
L46.9958 -35.6453
L47.0778 -35.9052
L47.1587 -36.1668
L47.2385 -36.4301
L47.3171 -36.6953
L47.3945 -36.9624
L47.4707 -37.2314
L47.5456 -37.5024
L47.6194 -37.7755
L47.6918 -38.0508
L47.763 -38.3283
L47.8328 -38.608
L47.9013 -38.8901
L47.9684 -39.1745
L48.034 -39.4615
L48.0981 -39.7509
L48.1607 -40.043
L48.2217 -40.3376
L48.2811 -40.635
L48.3387 -40.9352
L48.3946 -41.2381
L48.4487 -41.5439
L48.5009 -41.8527
L48.551 -42.1643
L48.5991 -42.479
L48.6451 -42.7968
L48.6887 -43.1176
L48.7301 -43.4415
L48.7689 -43.7686
L48.8052 -44.0988
L48.8388 -44.4322
L48.8696 -44.7688
L48.8974 -45.1086
L48.9221 -45.4516
L48.9435 -45.7978
L48.9616 -46.1471
L48.9761 -46.4996
L48.9868 -46.8551
L48.9936 -47.2137
L48.9963 -47.5752
L48.9947 -47.9396
L48.9885 -48.3068
L48.9775 -48.6766
L48.9615 -49.049
L48.9402 -49.4238
L48.9133 -49.8008
L48.8806 -50.1799
L48.8418 -50.5608
L48.7966 -50.9433
L48.7445 -51.327
L48.6854 -51.7118
L48.6187 -52.0973
L48.544 -52.483
L48.4611 -52.8687
L48.3693 -53.2537
L48.2682 -53.6377
L48.1573 -54.02
L48.036 -54.4001
L47.9038 -54.7772
L47.7599 -55.1506
L47.6037 -55.5194
L47.4345 -55.8828
L47.2516 -56.2397
L47.0541 -56.5891
L46.8413 -56.9297
L46.6124 -57.2603
L46.3666 -57.5796
L46.1032 -57.8863
L45.8217 -58.179
L45.5216 -58.4562
L45.2026 -58.7169
L44.8649 -58.9597
L44.5087 -59.1838
L44.1345 -59.3884
L43.7434 -59.5729
L43.3363 -59.7369
L42.9146 -59.8806
L42.48 -60.004
L42.0338 -60.1074
L41.5779 -60.1914
L41.1139 -60.2565
L40.6432 -60.3034
L40.1675 -60.3329
L39.6882 -60.3457
L39.2066 -60.3425
L38.7239 -60.3242
L38.2411 -60.2915
L37.7593 -60.245
L37.2793 -60.1856
L36.8019 -60.1139
L36.3278 -60.0306
L35.8576 -59.9362
L35.3918 -59.8314
L34.9309 -59.7168
L34.4754 -59.5929
L34.0255 -59.4603
L33.5816 -59.3194
L33.1439 -59.1708
L32.7126 -59.0149
L32.288 -58.8521
L31.8701 -58.683
L31.459 -58.5079
L31.0549 -58.3271
L30.6578 -58.1411
L30.2677 -57.9501
L29.8846 -57.7546
L29.5086 -57.5548
L29.1397 -57.3511
L28.7777 -57.1436
L28.4226 -56.9327
L28.0744 -56.7187
L27.733 -56.5016
L27.3984 -56.2819
L27.0704 -56.0596
L26.7489 -55.835
L26.4339 -55.6083
L26.1252 -55.3795
L25.8228 -55.1489
L25.5266 -54.9167
L25.2363 -54.6828
L24.952 -54.4476
L24.6734 -54.211
L24.4005 -53.9732
L24.1332 -53.7343
L23.8714 -53.4943
L23.6148 -53.2534
L23.3635 -53.0116
L23.1173 -52.769
L22.8761 -52.5256
L22.6397 -52.2816
L22.4081 -52.0368
L22.1812 -51.7915
L21.9589 -51.5455
L21.741 -51.299
L21.5274 -51.0519
L21.3181 -50.8043
L21.113 -50.5562
L20.9119 -50.3076
L20.7148 -50.0585
L20.5216 -49.8089
L20.3322 -49.5589
L20.1465 -49.3083
L19.9645 -49.0572
L19.786 -48.8057
L19.611 -48.5536
L19.4394 -48.3009
L19.2711 -48.0477
L19.1061 -47.7939
L18.9444 -47.5396
L18.7858 -47.2845
L18.6302 -47.0289
L18.4778 -46.7725
L18.3283 -46.5154
L18.1817 -46.2576
L18.038 -45.999
L17.8972 -45.7395
L17.7592 -45.4792
L17.6239 -45.218
L17.4913 -44.9558
L17.3615 -44.6926
L17.2343 -44.4284
L17.1097 -44.1631
L16.9878 -43.8967
L16.8684 -43.6291
L16.7516 -43.3603
L16.6373 -43.0902
L16.5256 -42.8187
L16.4164 -42.5459
L16.3097 -42.2716
L16.2055 -41.9958
L16.1038 -41.7185
L16.0047 -41.4396
L15.908 -41.1589
L15.8139 -40.8766
L15.7223 -40.5924
L15.6332 -40.3064
L15.5467 -40.0185
L15.4627 -39.7286
L15.3814 -39.4366
L15.3027 -39.1425
L15.2266 -38.8463
L15.1533 -38.5478
L15.0826 -38.247
L15.0148 -37.9439
L14.9497 -37.6383
L14.8876 -37.3302
L14.8284 -37.0195
L14.7721 -36.7062
L14.7189 -36.3901
L14.6689 -36.0713
L14.622 -35.7497
L14.5784 -35.4252
L14.5382 -35.0977
L14.5014 -34.7672
L14.4682 -34.4336
L14.4386 -34.0969
L14.4127 -33.757
L14.3907 -33.4138
L14.3727 -33.0673
L14.3588 -32.7175
L14.3492 -32.3643
L14.3439 -32.0076
L14.3431 -31.6475
L14.347 -31.2839
L14.3557 -30.9168
L14.3694 -30.5461
L14.3883 -30.1719
L14.4125 -29.7941
L14.4422 -29.4128
L14.4776 -29.0279
L14.519 -28.6395
L14.5664 -28.2477
L14.6202 -27.8524
L14.6805 -27.4537
L14.7476 -27.0517
L14.8217 -26.6465
L14.903 -26.2381
L14.9918 -25.8268
L15.0882 -25.4126
L15.1927 -24.9958
L15.3054 -24.5764
L15.4265 -24.1547
L15.5563 -23.731
L15.6952 -23.3054
L15.8432 -22.8784
L16.0007 -22.4501
L16.1679 -22.021
L16.3451 -21.5914
L16.5325 -21.1619
L16.7303 -20.7328
L16.9387 -20.3047
L17.1578 -19.8782
L17.388 -19.4539
L17.6293 -19.0324
L17.8818 -18.6146
L18.1457 -18.2012
L18.421 -17.7932
L18.7076 -17.3914
L19.0057 -16.997
L19.3151 -16.6111
L19.6357 -16.2349
L19.9673 -15.8697
L20.3095 -15.5169
L20.6621 -15.1781
L21.0245 -14.8547
L21.3963 -14.5485
L21.7768 -14.261
L22.1653 -13.994
L22.5608 -13.7488
L22.9626 -13.527
L23.3695 -13.3299
L23.7806 -13.1582
L24.1947 -13.0128
L24.6107 -12.8938
L25.0278 -12.8013
L25.4447 -12.7347
L25.8608 -12.6934
L26.275 -12.6763
L26.6867 -12.6823
L27.0953 -12.7099
L27.5003 -12.7578
L27.9011 -12.8245
L28.2975 -12.9087
L28.6891 -13.0089
L29.0756 -13.1239
L29.4568 -13.2523
L29.8326 -13.3932
L30.2029 -13.5454
L30.5675 -13.7079
L30.9263 -13.8798
L31.2794 -14.0603
L31.6266 -14.2486
L31.9679 -14.444
L32.3034 -14.6459
L32.633 -14.8536
L32.9568 -15.0666
L33.2747 -15.2844
L33.5868 -15.5065
L33.8932 -15.7324
L34.1939 -15.9619
L34.489 -16.1944
L34.7785 -16.4297
L35.0625 -16.6673
L35.3411 -16.9072
L35.6143 -17.1489
L35.8823 -17.3922
L36.1451 -17.6368
L36.4028 -17.8827
L36.6556 -18.1295
L36.9034 -18.3771
L37.1464 -18.6254
L37.3847 -18.8741
L37.6185 -19.1232
L37.8477 -19.3725
L38.0725 -19.6219
L38.293 -19.8713
L38.5092 -20.1207
L38.7214 -20.3698
L38.9295 -20.6188
L39.1338 -20.8675
L39.3342 -21.1158
L39.5308 -21.3637
L39.7238 -21.6111
L39.9133 -21.8581
L40.0993 -22.1046
L40.282 -22.3506
L40.4614 -22.596
L40.6376 -22.8409
L40.8106 -23.0852
L40.9807 -23.3289
L41.1478 -23.5721
L41.312 -23.8147
L41.4734 -24.0567
L41.6322 -24.2982
L41.7882 -24.5391
L41.9417 -24.7796
L42.0927 -25.0195
L42.2413 -25.259
L42.3875 -25.498
L42.5314 -25.7366
L42.673 -25.9747
L42.8124 -26.2125
L42.9498 -26.45
L43.085 -26.6872
L43.2182 -26.924
L43.3495 -27.1607
L43.4789 -27.3971
L43.6063 -27.6334
L43.732 -27.8696
L43.8559 -28.1056
L43.9781 -28.3417
L44.0986 -28.5777
L44.2174 -28.8138
L44.3347 -29.05
L44.4503 -29.2863
L44.5645 -29.5228
L44.6771 -29.7595
L44.7883 -29.9965
L44.8981 -30.2338
L45.0065 -30.4715
L45.1135 -30.7096
z
" id="C0_1_dbecfd5166"/>
    </defs>
    <g clip-path="url(#p1bffca34e9)">
     <use style="fill:#ffffff;stroke:#000000;stroke-width:2.0;" x="0.0" xlink:href="#C0_0_a811fe30f3" y="72.0"/>
    </g>
    <g clip-path="url(#p1bffca34e9)">
     <use style="fill:#ff0000;stroke:#000000;stroke-width:2.0;" x="0.0" xlink:href="#C0_1_dbecfd5166" y="72.0"/>
    </g>
   </g>
  </g>
 </g>
 <defs>
  <clipPath id="p1bffca34e9">
   <rect height="72.0" width="72.0" x="0.0" y="0.0"/>
  </clipPath>
 </defs>
</svg>
