<?xml version="1.0" encoding="utf-8" standalone="no"?>
<!DOCTYPE svg PUBLIC "-//W3C//DTD SVG 1.1//EN"
  "http://www.w3.org/Graphics/SVG/1.1/DTD/svg11.dtd">
<!-- Created with matplotlib (http://matplotlib.org/) -->
<svg height="72pt" version="1.1" viewBox="0 0 72 72" width="72pt" xmlns="http://www.w3.org/2000/svg" xmlns:xlink="http://www.w3.org/1999/xlink">
 <defs>
  <style type="text/css">
*{stroke-linecap:butt;stroke-linejoin:round;}
  </style>
 </defs>
 <g id="figure_1">
  <g id="patch_1">
   <path d="
M0 72
L72 72
L72 0
L0 0
z
" style="fill:none;"/>
  </g>
  <g id="axes_1">
   <g id="PatchCollection_1">
    <defs>
     <path d="
M36 -7.5
C43.5583 -7.5 50.808 -10.5029 56.1525 -15.8475
C61.4971 -21.192 64.5 -28.4417 64.5 -36
C64.5 -43.5583 61.4971 -50.808 56.1525 -56.1525
C50.808 -61.4971 43.5583 -64.5 36 -64.5
C28.4417 -64.5 21.192 -61.4971 15.8475 -56.1525
C10.5029 -50.808 7.5 -43.5583 7.5 -36
C7.5 -28.4417 10.5029 -21.192 15.8475 -15.8475
C21.192 -10.5029 28.4417 -7.5 36 -7.5
z
" id="C0_0_a811fe30f3"/>
     <path d="
M44.0965 -8.83884
L43.9189 -9.04049
L43.7184 -9.23763
L43.4971 -9.43099
L43.2572 -9.62133
L43.0008 -9.8094
L42.73 -9.9959
L42.4466 -10.1815
L42.1525 -10.3667
L41.8494 -10.5522
L41.5389 -10.7383
L41.2223 -10.9253
L40.9009 -11.1137
L40.5759 -11.3037
L40.2482 -11.4954
L39.9189 -11.689
L39.5886 -11.8845
L39.2582 -12.0821
L38.9282 -12.2817
L38.5992 -12.4834
L38.2717 -12.6871
L37.9461 -12.8928
L37.6229 -13.1004
L37.3022 -13.3098
L36.9845 -13.5209
L36.6699 -13.7337
L36.3586 -13.948
L36.0508 -14.1638
L35.7467 -14.3809
L35.4464 -14.5993
L35.15 -14.8188
L34.8574 -15.0394
L34.5689 -15.2609
L34.2844 -15.4832
L34.004 -15.7063
L33.7276 -15.9301
L33.4553 -16.1545
L33.187 -16.3794
L32.9228 -16.6047
L32.6626 -16.8304
L32.4063 -17.0565
L32.154 -17.2827
L31.9056 -17.5092
L31.661 -17.7358
L31.4201 -17.9625
L31.183 -18.1893
L30.9496 -18.4161
L30.7197 -18.643
L30.4934 -18.8698
L30.2706 -19.0965
L30.0511 -19.3232
L29.835 -19.5498
L29.6221 -19.7763
L29.4125 -20.0028
L29.2059 -20.2291
L29.0024 -20.4553
L28.8019 -20.6814
L28.6043 -20.9074
L28.4096 -21.1333
L28.2176 -21.3591
L28.0283 -21.5849
L27.8417 -21.8106
L27.6577 -22.0362
L27.4762 -22.2618
L27.2972 -22.4874
L27.1205 -22.7131
L26.9462 -22.9388
L26.7742 -23.1645
L26.6044 -23.3904
L26.4368 -23.6163
L26.2712 -23.8425
L26.1078 -24.0688
L25.9463 -24.2953
L25.7868 -24.5221
L25.6292 -24.7492
L25.4735 -24.9766
L25.3196 -25.2043
L25.1674 -25.4325
L25.017 -25.6611
L24.8682 -25.8902
L24.7211 -26.1198
L24.5756 -26.35
L24.4317 -26.5808
L24.2893 -26.8123
L24.1484 -27.0445
L23.8709 -27.2774
L23.7343 -27.5112
L23.5991 -27.7458
L23.4651 -27.9813
L23.3325 -28.2177
L23.2012 -28.4552
L23.0712 -28.6937
L22.9424 -28.9333
L22.8148 -29.1741
L22.6885 -29.4161
L22.5633 -29.6594
L22.4393 -29.904
L22.3164 -30.15
L22.1947 -30.3975
L22.0742 -30.6464
L21.9547 -30.897
L21.8364 -31.1491
L21.7192 -31.4029
L21.6031 -31.6585
L21.4881 -31.9159
L21.3742 -32.1752
L21.2614 -32.4364
L21.1497 -32.6996
L21.0391 -32.9649
L20.9297 -33.2323
L20.8213 -33.5019
L20.7142 -33.7737
L20.6081 -34.0479
L20.5033 -34.3244
L20.3996 -34.6034
L20.2971 -34.8849
L20.1959 -35.169
L20.0959 -35.4557
L19.9972 -35.7451
L19.8998 -36.0373
L19.8038 -36.3323
L19.7091 -36.6302
L19.6159 -36.9311
L19.5241 -37.2349
L19.4338 -37.5418
L19.3451 -37.8517
L19.2579 -38.1649
L19.1724 -38.4812
L19.0886 -38.8007
L19.0066 -39.1235
L18.9263 -39.4496
L18.8479 -39.7791
L18.7715 -40.1119
L18.697 -40.448
L18.6246 -40.7876
L18.5543 -41.1305
L18.4861 -41.4767
L18.4202 -41.8264
L18.3566 -42.1793
L18.2954 -42.5356
L18.2366 -42.8951
L18.1802 -43.2577
L18.1264 -43.6235
L18.0751 -43.9923
L18.0264 -44.364
L17.9803 -44.7384
L17.9369 -45.1155
L17.896 -45.495
L17.8578 -45.8768
L17.8221 -46.2606
L17.7889 -46.6463
L17.7581 -47.0334
L17.7296 -47.4218
L17.7032 -47.811
L17.6787 -48.2007
L17.6559 -48.5904
L17.6343 -48.9797
L17.6138 -49.3681
L17.5937 -49.7549
L17.5736 -50.1395
L17.5528 -50.5212
L17.5307 -50.8993
L17.5064 -51.2729
L17.4789 -51.641
L17.4473 -52.0028
L17.4102 -52.3569
L17.3666 -52.7024
L17.3148 -53.038
L17.2535 -53.3623
L17.1812 -53.6739
L17.0962 -53.9715
L16.997 -54.2536
L16.8823 -54.5189
L16.7507 -54.7659
L16.6012 -54.9934
L16.433 -55.2003
L16.2454 -55.3856
L16.0385 -55.5486
L15.8123 -55.6888
L15.3107 -55.8059
L14.9718 -55.6011
L14.6393 -55.2371
L14.3132 -54.8671
L13.9938 -54.4915
L13.6811 -54.1102
L13.3752 -53.7234
L13.0762 -53.3311
L12.7841 -52.9336
L12.4992 -52.531
L12.2213 -52.1233
L11.9508 -51.7107
L11.6875 -51.2933
L11.4317 -50.8713
L11.1833 -50.4447
L10.9426 -50.0137
L10.7094 -49.5785
L10.4839 -49.1391
L10.2663 -48.6957
L10.0564 -48.2484
L9.85447 -47.7975
L9.66049 -47.3429
L9.47453 -46.8849
L9.29666 -46.4235
L9.12692 -45.959
L8.96536 -45.4914
L8.81204 -45.021
L8.667 -44.5478
L8.53029 -44.072
L8.40194 -43.5937
L8.282 -43.1132
L8.17051 -42.6304
L8.06749 -42.1457
L7.97298 -41.6591
L7.88701 -41.1707
L7.8096 -40.6808
L7.74078 -40.1894
L7.68056 -39.6968
L7.62898 -39.203
L7.58603 -38.7083
L7.55174 -38.2128
L7.52611 -37.7165
L7.50916 -37.2198
L7.50089 -36.7227
L7.5013 -36.2253
L7.51039 -35.7279
L7.52816 -35.2306
L7.5546 -34.7335
L7.5897 -34.2368
L7.63346 -33.7406
L7.68586 -33.2451
L7.74688 -32.7505
L7.81652 -32.2568
L7.89473 -31.7643
L7.98151 -31.2731
L8.07682 -30.7833
L8.18064 -30.2951
L8.29293 -29.8086
L8.41366 -29.3241
L8.54279 -28.8415
L8.68029 -28.3612
L8.82611 -27.8831
L8.98021 -27.4076
L9.14254 -26.9346
L9.31305 -26.4645
L9.49168 -25.9972
L9.6784 -25.5329
L9.87313 -25.0719
L10.0758 -24.6142
L10.2864 -24.16
L10.5048 -23.7093
L10.731 -23.2624
L10.9649 -22.8194
L11.2064 -22.3804
L11.4555 -21.9456
L11.712 -21.515
L11.9759 -21.0888
L12.2472 -20.6672
L12.5257 -20.2503
L12.8113 -19.8381
L13.104 -19.4309
L13.4037 -19.0287
L13.7102 -18.6317
L14.0236 -18.24
L14.3436 -17.8537
L14.6703 -17.4729
L15.0034 -17.0978
L15.3429 -16.7284
L15.6888 -16.3649
L16.0408 -16.0074
L16.3989 -15.656
L16.7629 -15.3107
L17.1329 -14.9718
L17.5085 -14.6393
L17.8898 -14.3132
L18.2766 -13.9938
L18.6689 -13.6811
L19.0664 -13.3752
L19.469 -13.0762
L19.8767 -12.7841
L20.2893 -12.4992
L20.7067 -12.2213
L21.1287 -11.9508
L21.5553 -11.6875
L21.9863 -11.4317
L22.4215 -11.1833
L22.8609 -10.9426
L23.3043 -10.7094
L23.7516 -10.4839
L24.2025 -10.2663
L24.6571 -10.0564
L25.1151 -9.85447
L25.5765 -9.66049
L26.041 -9.47453
L26.5086 -9.29666
L26.979 -9.12692
L27.4522 -8.96536
L27.928 -8.81204
L28.4063 -8.667
L28.8868 -8.53029
L29.3696 -8.40194
L29.8543 -8.282
L30.3409 -8.17051
L30.8293 -8.06749
L31.3192 -7.97298
L31.8106 -7.88701
L32.3032 -7.8096
L32.797 -7.74078
L33.2917 -7.68056
L33.7872 -7.62898
L34.2835 -7.58603
L34.7802 -7.55174
L35.2773 -7.52611
L35.7747 -7.50916
L36.2721 -7.50089
L36.7694 -7.5013
L37.2665 -7.51039
L37.7632 -7.52816
L38.2594 -7.5546
L38.7549 -7.5897
L39.2495 -7.63346
L39.7432 -7.68586
L40.2357 -7.74688
L40.7269 -7.81652
L41.2167 -7.89473
L41.7049 -7.98151
L42.1914 -8.07682
L42.6759 -8.18064
L43.1585 -8.29293
L43.6388 -8.41366
z
" id="C0_1_ef42ad3bf8"/>
     <path d="
M56.4015 -16.1307
L56.3202 -16.3922
L56.2536 -16.6714
L56.2 -16.9669
L56.1576 -17.2773
L56.1249 -17.6009
L56.1002 -17.9363
L56.0819 -18.2822
L56.0688 -18.6373
L56.0594 -19.0002
L56.0527 -19.3698
L56.0477 -19.7452
L56.0434 -20.1253
L56.0392 -20.5092
L56.0344 -20.8961
L56.0284 -21.2853
L56.0207 -21.6761
L56.011 -22.0679
L55.999 -22.4602
L55.9843 -22.8525
L55.9668 -23.2442
L55.9464 -23.6351
L55.9229 -24.0247
L55.8962 -24.4128
L55.8664 -24.799
L55.8333 -25.1831
L55.7969 -25.5649
L55.7573 -25.9441
L55.7146 -26.3207
L55.6687 -26.6943
L55.6197 -27.065
L55.5676 -27.4326
L55.5126 -27.797
L55.4547 -28.1581
L55.394 -28.5159
L55.3306 -28.8702
L55.2644 -29.2212
L55.1957 -29.5687
L55.1245 -29.9128
L55.0509 -30.2534
L54.9749 -30.5905
L54.8967 -30.9242
L54.8163 -31.2544
L54.7337 -31.5812
L54.6491 -31.9046
L54.5626 -32.2247
L54.4741 -32.5414
L54.3837 -32.8549
L54.2916 -33.1651
L54.1977 -33.4722
L54.1021 -33.7762
L54.0049 -34.0771
L53.9061 -34.3749
L53.8058 -34.6698
L53.7039 -34.9619
L53.6006 -35.2511
L53.4958 -35.5375
L53.3897 -35.8212
L53.2821 -36.1023
L53.1733 -36.3808
L53.0631 -36.6568
L52.9516 -36.9304
L52.8388 -37.2016
L52.7247 -37.4704
L52.6094 -37.7371
L52.4929 -38.0015
L52.3751 -38.2638
L52.2561 -38.5241
L52.1358 -38.7824
L52.0144 -39.0388
L51.8917 -39.2933
L51.7678 -39.546
L51.6427 -39.797
L51.5164 -40.0463
L51.3888 -40.2939
L51.26 -40.5401
L51.1299 -40.7847
L50.9985 -41.0279
L50.8659 -41.2697
L50.7319 -41.5102
L50.5967 -41.7495
L50.4601 -41.9875
L50.3221 -42.2244
L50.1828 -42.4602
L50.042 -42.6949
L49.8999 -42.9286
L49.7562 -43.1614
L49.6111 -43.3933
L49.4645 -43.6244
L49.3163 -43.8546
L49.1665 -44.0841
L49.0151 -44.3129
L48.862 -44.541
L48.7073 -44.7685
L48.5508 -44.9955
L48.3925 -45.2219
L48.2325 -45.4478
L48.0705 -45.6733
L47.9067 -45.8983
L47.7408 -46.123
L47.573 -46.3474
L47.4032 -46.5715
L47.2312 -46.7953
L47.0571 -47.0188
L46.8807 -47.2422
L46.7021 -47.4654
L46.5212 -47.6884
L46.3379 -47.9114
L46.1521 -48.1342
L45.9639 -48.357
L45.7731 -48.5797
L45.5796 -48.8024
L45.3835 -49.0251
L45.1846 -49.2479
L44.9828 -49.4706
L44.7782 -49.6934
L44.5707 -49.9162
L44.3601 -50.139
L44.1464 -50.362
L43.9295 -50.585
L43.7094 -50.808
L43.486 -51.0311
L43.2592 -51.2542
L43.029 -51.4774
L42.7952 -51.7006
L42.5579 -51.9238
L42.3169 -52.1469
L42.0722 -52.3701
L41.8238 -52.5931
L41.5715 -52.8161
L41.3153 -53.0389
L41.0552 -53.2615
L40.791 -53.4838
L40.5229 -53.7059
L40.2506 -53.9277
L39.9743 -54.1491
L39.6937 -54.37
L39.4091 -54.5903
L39.1203 -54.8101
L38.8273 -55.0292
L38.5301 -55.2475
L38.2288 -55.465
L37.9235 -55.6816
L37.6141 -55.8971
L37.3008 -56.1115
L36.9836 -56.3247
L36.6626 -56.5366
L36.3381 -56.7471
L36.0101 -56.9561
L35.6789 -57.1636
L35.3448 -57.3694
L35.0079 -57.5735
L34.6686 -57.7757
L34.3273 -57.9762
L33.9844 -58.1748
L33.6403 -58.3714
L33.2957 -58.5662
L32.951 -58.7592
L32.6071 -58.9504
L32.2647 -59.1399
L31.9246 -59.3279
L31.5878 -59.5146
L31.2554 -59.7003
L30.9286 -59.8852
L30.6088 -60.0698
L30.2974 -60.2545
L29.9959 -60.4399
L29.7061 -60.6265
L29.4297 -60.815
L29.1687 -61.0062
L28.925 -61.2006
L28.7006 -61.3993
L28.4975 -61.6027
L28.3175 -61.8118
L28.1622 -62.027
L28.0332 -62.2489
L27.9317 -62.4777
L27.8587 -62.7137
L27.8145 -62.9567
L28.2527 -63.2065
L28.7325 -63.4268
L29.2146 -63.5578
L29.6987 -63.6805
L30.1847 -63.7947
L30.6725 -63.9004
L31.162 -63.9976
L31.6529 -64.0864
L32.1451 -64.1665
L32.6385 -64.2381
L33.133 -64.3011
L33.6283 -64.3554
L34.1243 -64.4011
L34.6209 -64.4382
L35.1179 -64.4666
L35.6152 -64.4863
L36.1126 -64.4974
L36.61 -64.4998
L37.1072 -64.4935
L37.604 -64.4785
L38.1004 -64.4548
L38.5961 -64.4225
L39.091 -64.3815
L39.585 -64.3319
L40.0779 -64.2736
L40.5696 -64.2067
L41.0598 -64.1313
L41.5486 -64.0472
L42.0356 -63.9547
L42.5208 -63.8536
L43.004 -63.744
L43.4851 -63.626
L43.9639 -63.4995
L44.4402 -63.3647
L44.914 -63.2215
L45.3851 -63.0701
L45.8533 -62.9104
L46.3185 -62.7425
L46.7806 -62.5665
L47.2394 -62.3823
L47.6948 -62.1902
L48.1466 -61.99
L48.5947 -61.782
L49.039 -61.5661
L49.4793 -61.3424
L49.9155 -61.1109
L50.3474 -60.8719
L50.775 -60.6252
L51.1981 -60.3711
L51.6165 -60.1095
L52.0302 -59.8406
L52.4391 -59.5644
L52.8429 -59.2811
L53.2415 -58.9906
L53.635 -58.6932
L54.023 -58.3888
L54.4056 -58.0776
L54.7825 -57.7597
L55.1538 -57.4352
L55.5192 -57.1041
L55.8786 -56.7666
L56.232 -56.4228
L56.5793 -56.0728
L56.9202 -55.7166
L57.2548 -55.3544
L57.5829 -54.9864
L57.9045 -54.6125
L58.2194 -54.233
L58.5275 -53.848
L58.8287 -53.4575
L59.123 -53.0617
L59.4102 -52.6606
L59.6904 -52.2546
L59.9633 -51.8435
L60.2289 -51.4276
L60.4871 -51.0071
L60.7378 -50.5819
L60.9811 -50.1524
L61.2167 -49.7185
L61.4446 -49.2804
L61.6648 -48.8383
L61.8772 -48.3923
L62.0816 -47.9425
L62.2782 -47.489
L62.4667 -47.0321
L62.6472 -46.5718
L62.8195 -46.1083
L62.9837 -45.6417
L63.1397 -45.1721
L63.2874 -44.6998
L63.4268 -44.2248
L63.5578 -43.7473
L63.6805 -43.2675
L63.7947 -42.7854
L63.9004 -42.3013
L63.9976 -41.8153
L64.0864 -41.3275
L64.1665 -40.838
L64.2381 -40.3471
L64.3011 -39.8549
L64.3554 -39.3615
L64.4011 -38.867
L64.4382 -38.3717
L64.4666 -37.8757
L64.4863 -37.3791
L64.4974 -36.8821
L64.4998 -36.3848
L64.4935 -35.8874
L64.4785 -35.39
L64.4548 -34.8928
L64.4225 -34.396
L64.3815 -33.8996
L64.3319 -33.4039
L64.2736 -32.909
L64.2067 -32.415
L64.1313 -31.9221
L64.0472 -31.4304
L63.9547 -30.9402
L63.8536 -30.4514
L63.744 -29.9644
L63.626 -29.4792
L63.4995 -28.996
L63.3647 -28.5149
L63.2215 -28.0361
L63.0701 -27.5598
L62.9104 -27.086
L62.7425 -26.6149
L62.5665 -26.1467
L62.3823 -25.6815
L62.1902 -25.2194
L61.99 -24.7606
L61.782 -24.3052
L61.5661 -23.8534
L61.3424 -23.4053
L61.1109 -22.961
L60.8719 -22.5207
L60.6252 -22.0845
L60.3711 -21.6526
L60.1095 -21.225
L59.8406 -20.8019
L59.5644 -20.3835
L59.2811 -19.9698
L58.9906 -19.5609
L58.6932 -19.1571
L58.3888 -18.7585
L58.0776 -18.365
L57.7597 -17.977
L57.4352 -17.5944
L57.1041 -17.2175
L56.7666 -16.8462
z
" id="C0_2_63f1085016"/>
    </defs>
    <g clip-path="url(#p1bffca34e9)">
     <use style="fill:#ff0000;stroke:#000000;stroke-width:2.0;" x="0.0" xlink:href="#C0_0_a811fe30f3" y="72.0"/>
    </g>
    <g clip-path="url(#p1bffca34e9)">
     <use style="fill:#ffffff;stroke:#000000;stroke-width:2.0;" x="0.0" xlink:href="#C0_1_ef42ad3bf8" y="72.0"/>
    </g>
    <g clip-path="url(#p1bffca34e9)">
     <use style="fill:#ffffff;stroke:#000000;stroke-width:2.0;" x="0.0" xlink:href="#C0_2_63f1085016" y="72.0"/>
    </g>
   </g>
  </g>
 </g>
 <defs>
  <clipPath id="p1bffca34e9">
   <rect height="72.0" width="72.0" x="0.0" y="0.0"/>
  </clipPath>
 </defs>
</svg>
