<?xml version="1.0" encoding="utf-8" standalone="no"?>
<!DOCTYPE svg PUBLIC "-//W3C//DTD SVG 1.1//EN"
  "http://www.w3.org/Graphics/SVG/1.1/DTD/svg11.dtd">
<!-- Created with matplotlib (http://matplotlib.org/) -->
<svg height="72pt" version="1.1" viewBox="0 0 72 72" width="72pt" xmlns="http://www.w3.org/2000/svg" xmlns:xlink="http://www.w3.org/1999/xlink">
 <defs>
  <style type="text/css">
*{stroke-linecap:butt;stroke-linejoin:round;}
  </style>
 </defs>
 <g id="figure_1">
  <g id="patch_1">
   <path d="
M0 72
L72 72
L72 0
L0 0
z
" style="fill:none;"/>
  </g>
  <g id="axes_1">
   <g id="PatchCollection_1">
    <defs>
     <path d="
M36 -7.5
C43.5583 -7.5 50.808 -10.5029 56.1525 -15.8475
C61.4971 -21.192 64.5 -28.4417 64.5 -36
C64.5 -43.5583 61.4971 -50.808 56.1525 -56.1525
C50.808 -61.4971 43.5583 -64.5 36 -64.5
C28.4417 -64.5 21.192 -61.4971 15.8475 -56.1525
C10.5029 -50.808 7.5 -43.5583 7.5 -36
C7.5 -28.4417 10.5029 -21.192 15.8475 -15.8475
C21.192 -10.5029 28.4417 -7.5 36 -7.5
z
" id="C0_0_a811fe30f3"/>
     <path d="
M12.5732 -20.1538
L12.6908 -20.4329
L12.765 -20.7854
L12.8125 -21.1882
L12.846 -21.6238
L12.8738 -22.0804
L12.9012 -22.5502
L12.9314 -23.028
L12.9664 -23.5104
L13.0075 -23.9948
L13.0554 -24.4795
L13.1106 -24.9631
L13.1732 -25.4446
L13.2433 -25.9231
L13.3207 -26.398
L13.4055 -26.8687
L13.4973 -27.3347
L13.5959 -27.7958
L13.7011 -28.2516
L13.8126 -28.7019
L13.9301 -29.1463
L14.0533 -29.5848
L14.1819 -30.0172
L14.3156 -30.4434
L14.4542 -30.8633
L14.5973 -31.2769
L14.7447 -31.684
L14.8961 -32.0847
L15.0512 -32.479
L15.2098 -32.8668
L15.3717 -33.2483
L15.5365 -33.6234
L15.7042 -33.9921
L15.8744 -34.3546
L16.0471 -34.711
L16.2219 -35.0612
L16.3987 -35.4054
L16.5774 -35.7436
L16.7579 -36.076
L16.9398 -36.4026
L17.1232 -36.7236
L17.3079 -37.0391
L17.4937 -37.3491
L17.6807 -37.6538
L17.8686 -37.9533
L18.0574 -38.2477
L18.2469 -38.5371
L18.4372 -38.8216
L18.6282 -39.1014
L18.8197 -39.3765
L19.0118 -39.6472
L19.2043 -39.9134
L19.3973 -40.1753
L19.5907 -40.433
L19.7844 -40.6866
L19.9785 -40.9363
L20.1729 -41.1821
L20.3676 -41.4242
L20.5625 -41.6625
L20.7577 -41.8974
L20.9532 -42.1287
L21.1489 -42.3568
L21.3449 -42.5815
L21.5412 -42.8031
L21.7377 -43.0216
L21.9344 -43.2371
L22.1315 -43.4497
L22.3288 -43.6595
L22.5264 -43.8666
L22.7244 -44.071
L22.9227 -44.2728
L23.1213 -44.4721
L23.3204 -44.669
L23.5199 -44.8636
L23.7198 -45.0558
L23.9201 -45.2459
L24.121 -45.4338
L24.3224 -45.6196
L24.5244 -45.8034
L24.727 -45.9853
L24.9302 -46.1652
L25.1342 -46.3433
L25.3388 -46.5197
L25.5442 -46.6943
L25.7504 -46.8672
L25.9575 -47.0385
L26.1654 -47.2082
L26.3743 -47.3763
L26.7952 -47.543
L27.0072 -47.7082
L27.2204 -47.872
L27.4348 -48.0345
L27.6505 -48.1956
L27.8674 -48.3554
L28.0858 -48.514
L28.3055 -48.6714
L28.5268 -48.8275
L28.7496 -48.9825
L28.974 -49.1364
L29.2002 -49.2891
L29.428 -49.4408
L29.6577 -49.5914
L29.8893 -49.7409
L30.1228 -49.8894
L30.3584 -50.0369
L30.5961 -50.1834
L30.8359 -50.3289
L31.078 -50.4735
L31.3224 -50.6171
L31.5693 -50.7597
L31.8186 -50.9013
L32.0705 -51.042
L32.3251 -51.1817
L32.5825 -51.3205
L32.8426 -51.4583
L33.1057 -51.5951
L33.3718 -51.7309
L33.641 -51.8656
L33.9134 -51.9994
L34.1891 -52.1321
L34.4681 -52.2636
L34.7507 -52.3941
L35.0368 -52.5234
L35.3266 -52.6515
L35.6201 -52.7783
L35.9176 -52.9039
L36.2189 -53.0281
L36.5244 -53.1509
L36.834 -53.2722
L37.1478 -53.392
L37.466 -53.5102
L37.7887 -53.6267
L38.1159 -53.7414
L38.4477 -53.8542
L38.7842 -53.9651
L39.1256 -54.0738
L39.4719 -54.1803
L39.8231 -54.2846
L40.1794 -54.3863
L40.5408 -54.4855
L40.9074 -54.5819
L41.2792 -54.6754
L41.6564 -54.7658
L42.0389 -54.853
L42.4267 -54.9368
L42.82 -55.017
L43.2187 -55.0934
L43.6229 -55.1657
L44.0324 -55.2338
L44.4474 -55.2975
L44.8677 -55.3565
L45.2934 -55.4106
L45.7243 -55.4595
L46.1603 -55.503
L46.6014 -55.5408
L47.0474 -55.5727
L47.4981 -55.5985
L47.9534 -55.6177
L48.4131 -55.6303
L48.8769 -55.6359
L49.3446 -55.6344
L49.8157 -55.6254
L50.29 -55.6089
L50.7671 -55.5845
L51.2464 -55.5522
L51.7274 -55.512
L52.2094 -55.4637
L52.6917 -55.4076
L53.1732 -55.3437
L53.6529 -55.2727
L54.129 -55.1952
L54.5996 -55.1123
L55.0617 -55.0259
L55.5111 -54.9389
L55.9417 -54.8555
L56.3439 -54.7828
L56.7041 -54.7317
L57.004 -54.7185
L57.2249 -54.7652
L56.9534 -54.8943
L56.613 -55.3185
L56.2664 -55.6813
L55.9136 -56.038
L55.5548 -56.3887
L55.1899 -56.7331
L54.8193 -57.0712
L54.4429 -57.4029
L54.0609 -57.7281
L53.6733 -58.0467
L53.2804 -58.3585
L52.8823 -58.6636
L52.479 -58.9617
L52.0706 -59.2528
L51.6574 -59.5369
L51.2394 -59.8138
L50.8168 -60.0834
L50.3896 -60.3457
L49.9581 -60.6006
L49.5223 -60.848
L49.0824 -61.0878
L48.6385 -61.32
L48.1908 -61.5444
L47.7394 -61.7611
L47.2843 -61.9699
L46.8259 -62.1709
L46.3641 -62.3638
L45.8992 -62.5487
L45.4312 -62.7256
L44.9604 -62.8943
L44.4869 -63.0548
L44.0108 -63.207
L43.5322 -63.351
L43.0514 -63.4866
L42.5684 -63.6139
L42.0834 -63.7328
L41.5965 -63.8432
L41.1079 -63.9451
L40.6178 -64.0385
L40.1263 -64.1234
L39.6335 -64.1997
L39.1396 -64.2674
L38.6448 -64.3265
L38.1491 -64.377
L37.6528 -64.4189
L37.156 -64.452
L36.6589 -64.4765
L36.1615 -64.4924
L35.6641 -64.4995
L35.1668 -64.498
L34.6697 -64.4878
L34.1731 -64.4689
L33.677 -64.4414
L33.1816 -64.4052
L32.6871 -64.3603
L32.1936 -64.3068
L31.7012 -64.2447
L31.2102 -64.1739
L30.7206 -64.0946
L30.2326 -64.0067
L29.7464 -63.9103
L29.262 -63.8054
L28.7798 -63.6921
L28.2997 -63.5702
L27.822 -63.44
L27.3468 -63.3015
L26.8742 -63.1546
L26.4043 -62.9994
L25.9375 -62.836
L25.4736 -62.6645
L25.013 -62.4848
L24.5557 -62.2971
L24.1019 -62.1013
L23.6518 -61.8976
L23.2054 -61.686
L22.7629 -61.4666
L22.3244 -61.2394
L21.8901 -61.0046
L21.4601 -60.7621
L21.0345 -60.5121
L20.6135 -60.2546
L20.1972 -59.9897
L19.7856 -59.7175
L19.379 -59.4381
L18.9775 -59.1515
L18.5812 -58.8579
L18.1902 -58.5574
L17.8046 -58.2499
L17.4245 -57.9357
L17.0501 -57.6148
L16.6815 -57.2874
L16.3187 -56.9534
L15.962 -56.613
L15.6113 -56.2664
L15.2669 -55.9136
L14.9288 -55.5548
L14.5971 -55.1899
L14.2719 -54.8193
L13.9533 -54.4429
L13.6415 -54.0609
L13.3364 -53.6733
L13.0383 -53.2804
L12.7472 -52.8823
L12.4631 -52.479
L12.1862 -52.0706
L11.9166 -51.6574
L11.6543 -51.2394
L11.3994 -50.8168
L11.152 -50.3896
L10.9122 -49.9581
L10.68 -49.5223
L10.4556 -49.0824
L10.2389 -48.6385
L10.0301 -48.1908
L9.82914 -47.7394
L9.63619 -47.2843
L9.45126 -46.8259
L9.27443 -46.3641
L9.10573 -45.8992
L8.94523 -45.4312
L8.79297 -44.9604
L8.649 -44.4869
L8.51336 -44.0108
L8.38609 -43.5322
L8.26723 -43.0514
L8.15682 -42.5684
L8.05489 -42.0834
L7.96147 -41.5965
L7.8766 -41.1079
L7.80029 -40.6178
L7.73257 -40.1263
L7.67346 -39.6335
L7.62298 -39.1396
L7.58115 -38.6448
L7.54797 -38.1491
L7.52346 -37.6528
L7.50762 -37.156
L7.50046 -36.6589
L7.50198 -36.1615
L7.51218 -35.6641
L7.53106 -35.1668
L7.55862 -34.6697
L7.59483 -34.1731
L7.6397 -33.677
L7.69321 -33.1816
L7.75534 -32.6871
L7.82607 -32.1936
L7.90538 -31.7012
L7.99326 -31.2102
L8.08966 -30.7206
L8.19457 -30.2326
L8.30794 -29.7464
L8.42976 -29.262
L8.55996 -28.7798
L8.69853 -28.2997
L8.84542 -27.822
L9.00057 -27.3468
L9.16395 -26.8742
L9.33551 -26.4043
L9.51518 -25.9375
L9.70293 -25.4736
L9.89868 -25.013
L10.1024 -24.5557
L10.314 -24.1019
L10.5334 -23.6518
L10.7606 -23.2054
L10.9954 -22.7629
L11.2379 -22.3244
L11.4879 -21.8901
L11.7454 -21.4601
L12.0103 -21.0345
z
" id="C0_1_0eb0480092"/>
     <path d="
M14.8868 -17.1014
L15.2002 -17.1239
L15.5725 -17.085
L15.986 -17.0075
L16.4274 -16.9081
L16.8874 -16.7982
L17.36 -16.6849
L17.8411 -16.5727
L18.3278 -16.4645
L18.8181 -16.3623
L19.3103 -16.2671
L19.8034 -16.1799
L20.2963 -16.1009
L20.7882 -16.0306
L21.2784 -15.969
L21.7664 -15.916
L22.2517 -15.8717
L22.7337 -15.8358
L23.2123 -15.8083
L23.6869 -15.7888
L24.1574 -15.7772
L24.6234 -15.7732
L25.0848 -15.7765
L25.5413 -15.7869
L25.9928 -15.8041
L26.4391 -15.8279
L26.8802 -15.8579
L27.3159 -15.8938
L27.7461 -15.9355
L28.1708 -15.9827
L28.59 -16.0351
L29.0035 -16.0924
L29.4115 -16.1545
L29.8139 -16.221
L30.2107 -16.2919
L30.602 -16.3667
L30.9878 -16.4454
L31.3681 -16.5278
L31.7429 -16.6137
L32.1125 -16.7028
L32.4767 -16.7951
L32.8357 -16.8903
L33.1896 -16.9883
L33.5384 -17.089
L33.8822 -17.1922
L34.2212 -17.2978
L34.5554 -17.4057
L34.8849 -17.5158
L35.2097 -17.6279
L35.5301 -17.742
L35.8461 -17.858
L36.1577 -17.9757
L36.4652 -18.0952
L36.7686 -18.2163
L37.0679 -18.339
L37.3634 -18.4632
L37.655 -18.5889
L37.943 -18.716
L38.2273 -18.8444
L38.5081 -18.9741
L38.7856 -19.1051
L39.0597 -19.2374
L39.3305 -19.3708
L39.5983 -19.5055
L39.863 -19.6413
L40.1248 -19.7783
L40.3837 -19.9164
L40.6398 -20.0556
L40.8933 -20.1959
L41.1442 -20.3373
L41.3925 -20.4799
L41.6384 -20.6235
L41.882 -20.7682
L42.1232 -20.9141
L42.3623 -21.061
L42.5993 -21.2091
L42.8342 -21.3583
L43.0671 -21.5087
L43.2981 -21.6602
L43.5272 -21.8129
L43.7546 -21.9668
L43.9803 -22.122
L44.2043 -22.2784
L44.4268 -22.436
L44.6477 -22.595
L44.8672 -22.7553
L45.0853 -22.917
L45.302 -23.0801
L45.5175 -23.2446
L45.7317 -23.4106
L45.9447 -23.5781
L46.1566 -23.7472
L46.3674 -23.9179
L46.5772 -24.0902
L46.786 -24.2642
L46.9939 -24.44
L47.2008 -24.6175
L47.4069 -24.7969
L47.6122 -24.9782
L47.8168 -25.1614
L48.0206 -25.3467
L48.2236 -25.534
L48.4261 -25.7234
L48.6279 -25.9151
L48.8291 -26.109
L49.0297 -26.3053
L49.2298 -26.504
L49.4293 -26.7051
L49.6284 -26.9088
L49.827 -27.1152
L50.0252 -27.3242
L50.2229 -27.536
L50.4202 -27.7507
L50.617 -27.9684
L50.8135 -28.1891
L51.0096 -28.4129
L51.2053 -28.64
L51.4006 -28.8704
L51.5956 -29.1042
L51.7901 -29.3415
L51.9842 -29.5824
L52.178 -29.8271
L52.3712 -30.0756
L52.5641 -30.328
L52.7564 -30.5845
L52.9483 -30.8451
L53.1396 -31.1099
L53.3303 -31.3792
L53.5203 -31.6529
L53.7097 -31.9312
L53.8984 -32.2143
L54.0863 -32.5022
L54.2733 -32.7951
L54.4593 -33.093
L54.6443 -33.3961
L54.8281 -33.7046
L55.0108 -34.0185
L55.1921 -34.3379
L55.3719 -34.663
L55.5502 -34.9938
L55.7267 -35.3306
L55.9014 -35.6733
L56.074 -36.0221
L56.2444 -36.3771
L56.4125 -36.7383
L56.578 -37.106
L56.7408 -37.48
L56.9006 -37.8605
L57.0572 -38.2476
L57.2103 -38.6413
L57.3598 -39.0417
L57.5054 -39.4487
L57.6468 -39.8624
L57.7837 -40.2827
L57.9159 -40.7096
L58.043 -41.1431
L58.1648 -41.5832
L58.281 -42.0296
L58.3912 -42.4823
L58.4952 -42.9412
L58.5927 -43.406
L58.6833 -43.8765
L58.7667 -44.3524
L58.8428 -44.8335
L58.9113 -45.3193
L58.9719 -45.8093
L59.0246 -46.3031
L59.0693 -46.7998
L59.106 -47.2988
L59.1349 -47.7989
L59.1565 -48.2987
L59.1716 -48.7966
L59.1814 -49.2899
L59.1882 -49.7754
L59.1952 -50.2478
L59.208 -50.6995
L59.2351 -51.1191
L59.2896 -51.4895
L59.389 -51.788
L59.854 -51.9917
L60.1225 -51.5961
L60.3838 -51.1774
L60.6375 -50.7541
L60.8838 -50.3263
L61.1225 -49.8941
L61.3535 -49.4577
L61.5769 -49.0172
L61.7924 -48.5727
L62.0001 -48.1244
L62.1998 -47.6725
L62.3916 -47.2169
L62.5753 -46.758
L62.751 -46.2957
L62.9185 -45.8304
L63.0777 -45.362
L63.2288 -44.8908
L63.3715 -44.4168
L63.5059 -43.9404
L63.632 -43.4614
L63.7496 -42.9803
L63.8587 -42.497
L63.9594 -42.0117
L64.0516 -41.5246
L64.1352 -41.0358
L64.2102 -40.5454
L64.2767 -40.0537
L64.3345 -39.5607
L64.3837 -39.0667
L64.4243 -38.5717
L64.4562 -38.076
L64.4794 -37.5796
L64.494 -37.0827
L64.4999 -36.5855
L64.4971 -36.0881
L64.4856 -35.5907
L64.4654 -35.0935
L64.4366 -34.5965
L64.3991 -34.0999
L64.353 -33.6039
L64.2982 -33.1086
L64.2348 -32.6142
L64.1628 -32.1209
L64.0822 -31.6287
L63.9931 -31.1379
L63.8954 -30.6485
L63.7892 -30.1608
L63.6746 -29.6748
L63.5516 -29.1908
L63.4201 -28.7088
L63.2803 -28.2291
L63.1322 -27.7517
L62.9758 -27.2769
L62.8113 -26.8047
L62.6385 -26.3353
L62.4576 -25.8689
L62.2687 -25.4055
L62.0718 -24.9454
L61.8669 -24.4886
L61.6541 -24.0353
L61.4336 -23.5857
L61.2053 -23.1399
L60.9693 -22.698
L60.7257 -22.2601
L60.4745 -21.8264
L60.216 -21.397
L59.95 -20.9721
L59.6767 -20.5518
L59.3963 -20.1362
L59.1087 -19.7254
L58.814 -19.3195
L58.5125 -18.9187
L58.204 -18.5232
L57.8888 -18.133
L57.5669 -17.7482
L57.2385 -17.3689
L56.9036 -16.9954
L56.5623 -16.6276
L56.2148 -16.2657
L55.8611 -15.9099
L55.5013 -15.5601
L55.1356 -15.2166
L54.7641 -14.8795
L54.3869 -14.5487
L54.004 -14.2245
L53.6157 -13.9069
L53.222 -13.5961
L52.8231 -13.292
L52.4191 -12.9949
L52.01 -12.7048
L51.5961 -12.4218
L51.1774 -12.146
L50.7541 -11.8775
L50.3263 -11.6162
L49.8941 -11.3625
L49.4577 -11.1162
L49.0172 -10.8775
L48.5727 -10.6465
L48.1244 -10.4231
L47.6725 -10.2076
L47.2169 -9.99993
L46.758 -9.80018
L46.2957 -9.60841
L45.8304 -9.42467
L45.362 -9.24904
L44.8908 -9.08155
L44.4168 -8.92226
L43.9404 -8.77122
L43.4614 -8.62847
L42.9803 -8.49406
L42.497 -8.36803
L42.0117 -8.25041
L41.5246 -8.14125
L41.0358 -8.04058
L40.5454 -7.94842
L40.0537 -7.86481
L39.5607 -7.78976
L39.0667 -7.72331
L38.5717 -7.66548
L38.076 -7.61627
L37.5796 -7.57571
L37.0827 -7.54381
L36.5855 -7.52057
L36.0881 -7.50602
L35.5907 -7.50014
L35.0935 -7.50294
L34.5965 -7.51442
L34.0999 -7.53458
L33.6039 -7.56341
L33.1086 -7.6009
L32.6142 -7.64705
L32.1209 -7.70183
L31.6287 -7.76523
L31.1379 -7.83723
L30.6485 -7.91781
L30.1608 -8.00694
L29.6748 -8.1046
L29.1908 -8.21076
L28.7088 -8.32538
L28.2291 -8.44843
L27.7517 -8.57988
L27.2769 -8.71967
L26.8047 -8.86778
L26.3353 -9.02415
L25.8689 -9.18874
L25.4055 -9.3615
L24.9454 -9.54237
L24.4886 -9.7313
L24.0353 -9.92823
L23.5857 -10.1331
L23.1399 -10.3459
L22.698 -10.5664
L22.2601 -10.7947
L21.8264 -11.0307
L21.397 -11.2743
L20.9721 -11.5255
L20.5518 -11.784
L20.1362 -12.05
L19.7254 -12.3233
L19.3195 -12.6037
L18.9187 -12.8913
L18.5232 -13.186
L18.133 -13.4875
L17.7482 -13.796
L17.3689 -14.1112
L16.9954 -14.4331
L16.6276 -14.7615
L16.2657 -15.0964
L15.9099 -15.4377
L15.5601 -15.7852
L15.2166 -16.1389
z
" id="C0_2_9f43a2bfda"/>
    </defs>
    <g clip-path="url(#p1bffca34e9)">
     <use style="fill:#ff0000;stroke:#000000;stroke-width:2.0;" x="0.0" xlink:href="#C0_0_a811fe30f3" y="72.0"/>
    </g>
    <g clip-path="url(#p1bffca34e9)">
     <use style="fill:#ffffff;stroke:#000000;stroke-width:2.0;" x="0.0" xlink:href="#C0_1_0eb0480092" y="72.0"/>
    </g>
    <g clip-path="url(#p1bffca34e9)">
     <use style="fill:#ffffff;stroke:#000000;stroke-width:2.0;" x="0.0" xlink:href="#C0_2_9f43a2bfda" y="72.0"/>
    </g>
   </g>
  </g>
 </g>
 <defs>
  <clipPath id="p1bffca34e9">
   <rect height="72.0" width="72.0" x="0.0" y="0.0"/>
  </clipPath>
 </defs>
</svg>
