<?xml version="1.0" encoding="utf-8" standalone="no"?>
<!DOCTYPE svg PUBLIC "-//W3C//DTD SVG 1.1//EN"
  "http://www.w3.org/Graphics/SVG/1.1/DTD/svg11.dtd">
<!-- Created with matplotlib (http://matplotlib.org/) -->
<svg height="72pt" version="1.1" viewBox="0 0 72 72" width="72pt" xmlns="http://www.w3.org/2000/svg" xmlns:xlink="http://www.w3.org/1999/xlink">
 <defs>
  <style type="text/css">
*{stroke-linecap:butt;stroke-linejoin:round;}
  </style>
 </defs>
 <g id="figure_1">
  <g id="patch_1">
   <path d="
M0 72
L72 72
L72 0
L0 0
z
" style="fill:none;"/>
  </g>
  <g id="axes_1">
   <g id="PatchCollection_1">
    <defs>
     <path d="
M36 -7.5
C43.5583 -7.5 50.808 -10.5029 56.1525 -15.8475
C61.4971 -21.192 64.5 -28.4417 64.5 -36
C64.5 -43.5583 61.4971 -50.808 56.1525 -56.1525
C50.808 -61.4971 43.5583 -64.5 36 -64.5
C28.4417 -64.5 21.192 -61.4971 15.8475 -56.1525
C10.5029 -50.808 7.5 -43.5583 7.5 -36
C7.5 -28.4417 10.5029 -21.192 15.8475 -15.8475
C21.192 -10.5029 28.4417 -7.5 36 -7.5
z
" id="C0_0_a811fe30f3"/>
     <path d="
M11.4431 -21.9283
L11.6967 -22.0376
L11.9743 -22.1228
L12.2719 -22.1892
L12.5859 -22.2408
L12.9133 -22.2816
L13.2516 -22.3142
L13.5987 -22.3413
L13.9528 -22.3646
L14.3126 -22.3856
L14.6767 -22.4056
L15.0442 -22.4253
L15.4142 -22.4457
L15.7859 -22.467
L16.1586 -22.4899
L16.5319 -22.5146
L16.9051 -22.5413
L17.2779 -22.5702
L17.65 -22.6013
L18.0209 -22.6349
L18.3903 -22.6708
L18.758 -22.7091
L19.1238 -22.7497
L19.4875 -22.7927
L19.8489 -22.838
L20.2077 -22.8855
L20.564 -22.9351
L20.9176 -22.9869
L21.2683 -23.0406
L21.6161 -23.0963
L21.961 -23.1539
L22.3028 -23.2132
L22.6415 -23.2742
L22.9772 -23.3368
L23.3097 -23.401
L23.639 -23.4666
L23.9652 -23.5336
L24.2883 -23.602
L24.6082 -23.6716
L24.925 -23.7425
L25.2387 -23.8144
L25.5494 -23.8875
L25.857 -23.9616
L26.1616 -24.0366
L26.4632 -24.1126
L26.762 -24.1895
L27.0579 -24.2672
L27.351 -24.3458
L27.6413 -24.4251
L27.9289 -24.5051
L28.2139 -24.5859
L28.4963 -24.6673
L28.7762 -24.7494
L29.0537 -24.8321
L29.3287 -24.9155
L29.6014 -24.9994
L29.8719 -25.0839
L30.1401 -25.169
L30.4062 -25.2546
L30.6703 -25.3408
L30.9323 -25.4275
L31.1925 -25.5148
L31.4507 -25.6025
L31.7072 -25.6908
L31.9619 -25.7796
L32.215 -25.869
L32.4664 -25.9588
L32.7164 -26.0492
L32.9648 -26.1401
L33.2119 -26.2315
L33.4576 -26.3235
L33.7021 -26.416
L33.9453 -26.5091
L34.1874 -26.6027
L34.4285 -26.6969
L34.6685 -26.7918
L34.9076 -26.8872
L35.1457 -26.9832
L35.3831 -27.0799
L35.6197 -27.1773
L35.8555 -27.2753
L36.0908 -27.374
L36.3254 -27.4734
L36.5596 -27.5735
L36.7932 -27.6744
L37.2594 -27.7761
L37.4921 -27.8786
L37.7245 -27.9819
L37.9567 -28.086
L38.1889 -28.1911
L38.4209 -28.297
L38.653 -28.4039
L38.8852 -28.5117
L39.1174 -28.6205
L39.3499 -28.7304
L39.5825 -28.8413
L39.8155 -28.9533
L40.0488 -29.0664
L40.2825 -29.1807
L40.5166 -29.2962
L40.7513 -29.4129
L40.9865 -29.5309
L41.2223 -29.6503
L41.4588 -29.7709
L41.696 -29.893
L41.934 -30.0165
L42.1728 -30.1415
L42.4124 -30.2681
L42.653 -30.3962
L42.8946 -30.5259
L43.1372 -30.6574
L43.3808 -30.7905
L43.6256 -30.9254
L43.8716 -31.0622
L44.1187 -31.2008
L44.3671 -31.3414
L44.6168 -31.4839
L44.8678 -31.6285
L45.1203 -31.7752
L45.3741 -31.9241
L45.6294 -32.0752
L45.8861 -32.2286
L46.1444 -32.3843
L46.4042 -32.5425
L46.6656 -32.703
L46.9286 -32.8662
L47.1932 -33.0319
L47.4595 -33.2002
L47.7273 -33.3713
L47.9969 -33.5451
L48.2681 -33.7218
L48.541 -33.9014
L48.8155 -34.0839
L49.0916 -34.2695
L49.3694 -34.4581
L49.6489 -34.6499
L49.9299 -34.8448
L50.2124 -35.0429
L50.4965 -35.2443
L50.782 -35.449
L51.0689 -35.6571
L51.3572 -35.8685
L51.6468 -36.0834
L51.9375 -36.3016
L52.2293 -36.5232
L52.5222 -36.7483
L52.816 -36.9767
L53.1105 -37.2085
L53.4057 -37.4437
L53.7014 -37.682
L53.9975 -37.9236
L54.2939 -38.1682
L54.5903 -38.4157
L54.8866 -38.6661
L55.1826 -38.919
L55.4783 -39.1742
L55.7732 -39.4314
L56.0675 -39.6904
L56.3607 -39.9506
L56.6528 -40.2116
L56.9435 -40.4728
L57.2329 -40.7334
L57.5206 -40.9925
L57.8067 -41.2492
L58.0911 -41.502
L58.3738 -41.7494
L58.6548 -41.9895
L58.9343 -42.2199
L59.2126 -42.4377
L59.49 -42.6393
L59.7669 -42.8205
L60.044 -42.9761
L60.3217 -43.1004
L60.6008 -43.187
L60.8814 -43.2295
L61.1636 -43.2219
L61.447 -43.1599
L61.7308 -43.0411
L62.0136 -42.8659
L62.2939 -42.6368
L62.5701 -42.3581
L62.8405 -42.035
L63.1039 -41.6731
L63.3589 -41.2777
L63.6044 -40.8535
L63.8395 -40.4047
L64.0634 -39.935
L64.2757 -39.4475
L64.3939 -38.9447
L64.4325 -38.4569
L64.4623 -37.961
L64.4836 -37.4645
L64.4961 -36.9675
L64.5 -36.4703
L64.4952 -35.9729
L64.4817 -35.4755
L64.4595 -34.9782
L64.4287 -34.4813
L64.3892 -33.9849
L64.341 -33.489
L64.2842 -32.9939
L64.2188 -32.4998
L64.1449 -32.0067
L64.0623 -31.5148
L63.9712 -31.0243
L63.8716 -30.5353
L63.7634 -30.048
L63.6468 -29.5624
L63.5218 -29.0789
L63.3885 -28.5974
L63.2467 -28.1182
L63.0967 -27.6415
L62.9384 -27.1672
L62.7719 -26.6956
L62.5973 -26.2269
L62.4146 -25.7612
L62.2238 -25.2985
L62.025 -24.8392
L61.8183 -24.3832
L61.6037 -23.9308
L61.3814 -23.482
L61.1513 -23.0371
L60.9135 -22.5961
L60.6681 -22.1592
L60.4153 -21.7265
L60.155 -21.2982
L59.8873 -20.8743
L59.6124 -20.455
L59.3303 -20.0405
L59.041 -19.6308
L58.7448 -19.2262
L58.4416 -18.8266
L58.1316 -18.4323
L57.8148 -18.0433
L57.4914 -17.6598
L57.1615 -17.2818
L56.8251 -16.9096
L56.4823 -16.5432
L56.1333 -16.1827
L55.7782 -15.8283
L55.4171 -15.48
L55.05 -15.1379
L54.6772 -14.8022
L54.2986 -14.473
L53.9145 -14.1503
L53.525 -13.8343
L53.13 -13.525
L52.7299 -13.2226
L52.3247 -12.9271
L51.9145 -12.6386
L51.4994 -12.3573
L51.0797 -12.0831
L50.6553 -11.8163
L50.2265 -11.5568
L49.7933 -11.3047
L49.356 -11.0602
L48.9145 -10.8233
L48.4692 -10.594
L48.02 -10.3725
L47.5672 -10.1588
L47.1108 -9.95293
L46.6511 -9.75502
L46.1881 -9.5651
L45.7221 -9.38324
L45.253 -9.20949
L44.7812 -9.0439
L44.3066 -8.88651
L43.8296 -8.73739
L43.3501 -8.59657
L42.8684 -8.4641
L42.3847 -8.34002
L41.8989 -8.22436
L41.4114 -8.11716
L40.9222 -8.01846
L40.4316 -7.92828
L39.9395 -7.84665
L39.4463 -7.77359
L38.9521 -7.70914
L38.4569 -7.6533
L37.961 -7.6061
L37.4645 -7.56754
L36.9675 -7.53765
L36.4703 -7.51643
L35.9729 -7.50388
L35.4755 -7.50001
L34.9782 -7.50483
L34.4813 -7.51832
L33.9849 -7.54049
L33.489 -7.57133
L32.9939 -7.61083
L32.4998 -7.65898
L32.0067 -7.71576
L31.5148 -7.78115
L31.0243 -7.85514
L30.5353 -7.93771
L30.048 -8.02882
L29.5624 -8.12845
L29.0789 -8.23657
L28.5974 -8.35315
L28.1182 -8.47815
L27.6415 -8.61154
L27.1672 -8.75326
L26.6956 -8.90329
L26.2269 -9.06157
L25.7612 -9.22806
L25.2985 -9.4027
L24.8392 -9.58544
L24.3832 -9.77623
L23.9308 -9.97501
L23.482 -10.1817
L23.0371 -10.3963
L22.5961 -10.6186
L22.1592 -10.8487
L21.7265 -11.0865
L21.2982 -11.3319
L20.8743 -11.5847
L20.455 -11.845
L20.0405 -12.1127
L19.6308 -12.3876
L19.2262 -12.6697
L18.8266 -12.959
L18.4323 -13.2552
L18.0433 -13.5584
L17.6598 -13.8684
L17.2818 -14.1852
L16.9096 -14.5086
L16.5432 -14.8385
L16.1827 -15.1749
L15.8283 -15.5177
L15.48 -15.8667
L15.1379 -16.2218
L14.8022 -16.5829
L14.473 -16.95
L14.1503 -17.3228
L13.8343 -17.7014
L13.525 -18.0855
L13.2226 -18.475
L12.9271 -18.87
L12.6386 -19.2701
L12.3573 -19.6753
L12.0831 -20.0855
L11.8163 -20.5006
L11.5568 -20.9203
z
" id="C0_1_d7bcca0d5d"/>
     <path d="
M7.68211 -33.5845
L7.7899 -34.1279
L7.90608 -34.6691
L8.03075 -35.207
L8.16391 -35.7404
L8.30546 -36.2685
L8.45522 -36.7905
L8.61297 -37.3059
L8.77844 -37.8141
L8.95134 -38.3147
L9.13134 -38.8073
L9.31811 -39.2916
L9.5113 -39.7675
L9.71058 -40.2347
L9.91559 -40.6932
L10.126 -41.1428
L10.3414 -41.5834
L10.5616 -42.0152
L10.7862 -42.4379
L11.0148 -42.8518
L11.2473 -43.2569
L11.4832 -43.6531
L11.7224 -44.0407
L11.9646 -44.4197
L12.2094 -44.7902
L12.4568 -45.1523
L12.7064 -45.5062
L12.9581 -45.8521
L13.2116 -46.19
L13.4669 -46.5201
L13.7236 -46.8426
L13.9817 -47.1576
L14.241 -47.4653
L14.5014 -47.7659
L14.7627 -48.0594
L15.0249 -48.3462
L15.2879 -48.6262
L15.5514 -48.8998
L15.8156 -49.167
L16.0802 -49.428
L16.3452 -49.683
L16.6106 -49.9321
L16.8763 -50.1754
L17.1422 -50.4132
L17.4084 -50.6454
L17.6747 -50.8724
L17.9412 -51.0942
L18.2078 -51.311
L18.4745 -51.5228
L18.7414 -51.7298
L19.0083 -51.9322
L19.2753 -52.13
L19.5424 -52.3234
L19.8095 -52.5125
L20.0768 -52.6973
L20.3442 -52.878
L20.6117 -53.0547
L20.8794 -53.2274
L21.1472 -53.3964
L21.4152 -53.5616
L21.6835 -53.7231
L21.9519 -53.8811
L22.2207 -54.0355
L22.4897 -54.1866
L22.7591 -54.3343
L23.0288 -54.4787
L23.299 -54.6199
L23.5696 -54.7579
L23.8407 -54.8928
L24.1123 -55.0247
L24.3846 -55.1536
L24.6574 -55.2796
L24.931 -55.4026
L25.2053 -55.5228
L25.4803 -55.6402
L25.7562 -55.7548
L26.033 -55.8666
L26.3107 -55.9758
L26.5894 -56.0822
L26.8691 -56.186
L27.15 -56.2871
L27.432 -56.3857
L27.7153 -56.4816
L27.9999 -56.5749
L28.2858 -56.6656
L28.5732 -56.7537
L28.862 -56.8392
L29.1524 -56.9222
L29.4444 -57.0026
L29.7381 -57.0803
L30.0336 -57.1555
L30.3308 -57.2281
L30.63 -57.298
L30.9311 -57.3652
L31.2343 -57.4298
L31.5396 -57.4917
L31.847 -57.5508
L32.1567 -57.6071
L32.4688 -57.6607
L32.7832 -57.7113
L33.1001 -57.7591
L33.4196 -57.8039
L33.7417 -57.8457
L34.0665 -57.8844
L34.3941 -57.9199
L34.7245 -57.9523
L35.0578 -57.9813
L35.3942 -58.007
L35.7336 -58.0293
L36.0761 -58.048
L36.4218 -58.0631
L36.7709 -58.0744
L37.1232 -58.0819
L37.479 -58.0855
L37.8382 -58.085
L38.201 -58.0803
L38.5673 -58.0712
L38.9373 -58.0578
L39.3109 -58.0398
L39.6883 -58.017
L40.0694 -57.9893
L40.4544 -57.9567
L40.8431 -57.9188
L41.2357 -57.8755
L41.6321 -57.8268
L42.0324 -57.7723
L42.4366 -57.7119
L42.8446 -57.6454
L43.2564 -57.5727
L43.672 -57.4935
L44.0913 -57.4077
L44.5143 -57.315
L44.9409 -57.2153
L45.371 -57.1083
L45.8044 -56.9939
L46.2412 -56.8718
L46.6811 -56.7419
L47.124 -56.604
L47.5697 -56.458
L48.018 -56.3036
L48.4687 -56.1407
L48.9215 -55.9692
L49.3762 -55.7889
L49.8324 -55.5998
L50.2899 -55.4019
L50.7483 -55.1951
L51.2073 -54.9794
L51.6663 -54.7549
L52.1251 -54.5218
L52.583 -54.2803
L53.0397 -54.0307
L53.4945 -53.7734
L53.947 -53.5091
L54.3964 -53.2383
L54.842 -52.9621
L55.2833 -52.6815
L55.7193 -52.3982
L56.1492 -52.1139
L56.5721 -51.831
L56.987 -51.5523
L57.3926 -51.2814
L57.7879 -51.0225
L58.1714 -50.7808
L58.5416 -50.5622
L58.8972 -50.373
L59.2367 -50.2198
L59.5589 -50.1088
L59.863 -50.0443
L60.1486 -50.0291
L60.4158 -50.0629
L60.4725 -50.1436
L60.2138 -50.6064
L59.9478 -51.0313
L59.6745 -51.4516
L59.394 -51.8672
L59.1063 -52.2779
L58.8116 -52.6837
L58.51 -53.0845
L58.2015 -53.48
L57.8863 -53.8702
L57.5643 -54.2549
L57.2358 -54.6341
L56.9009 -55.0076
L56.5595 -55.3753
L56.2119 -55.7372
L55.8582 -56.093
L55.4984 -56.4427
L55.1327 -56.7861
L54.7611 -57.1232
L54.3838 -57.4539
L54.0009 -57.7781
L53.6126 -58.0956
L53.2188 -58.4064
L52.8199 -58.7104
L52.4158 -59.0074
L52.0067 -59.2975
L51.5927 -59.5804
L51.174 -59.8562
L50.7506 -60.1247
L50.3228 -60.3858
L49.8906 -60.6396
L49.4542 -60.8858
L49.0136 -61.1244
L48.5691 -61.3554
L48.1208 -61.5786
L47.6688 -61.7941
L47.2132 -62.0017
L46.7542 -62.2014
L46.292 -62.3931
L45.8266 -62.5768
L45.3582 -62.7523
L44.887 -62.9198
L44.413 -63.079
L43.9365 -63.23
L43.4576 -63.3726
L42.9764 -63.507
L42.4931 -63.633
L42.0078 -63.7505
L41.5206 -63.8596
L41.0318 -63.9602
L40.5415 -64.0523
L40.0497 -64.1358
L39.5568 -64.2108
L39.0627 -64.2772
L38.5677 -64.335
L38.072 -64.3841
L37.5756 -64.4246
L37.0787 -64.4564
L36.5815 -64.4796
L36.0841 -64.4941
L35.5867 -64.4999
L35.0895 -64.497
L34.5924 -64.4855
L34.0959 -64.4652
L33.5999 -64.4363
L33.1046 -64.3988
L32.6102 -64.3525
L32.1169 -64.2977
L31.6247 -64.2342
L31.1339 -64.1622
L30.6446 -64.0815
L30.1568 -63.9923
L29.6709 -63.8946
L29.1869 -63.7884
L28.705 -63.6737
L28.2252 -63.5505
L27.7479 -63.419
L27.2731 -63.2792
L26.8009 -63.131
L26.3315 -62.9746
L25.8651 -62.8099
L25.4018 -62.6371
L24.9417 -62.4561
L24.4849 -62.2671
L24.0317 -62.0702
L23.5821 -61.8652
L23.1363 -61.6524
L22.6944 -61.4318
L22.2566 -61.2034
L21.8229 -60.9673
L21.3936 -60.7237
L20.9687 -60.4725
L20.5484 -60.2138
L20.1328 -59.9478
L19.7221 -59.6745
L19.3163 -59.394
L18.9155 -59.1063
L18.52 -58.8116
L18.1298 -58.51
L17.7451 -58.2015
L17.3659 -57.8863
L16.9924 -57.5643
L16.6247 -57.2358
L16.2628 -56.9009
L15.907 -56.5595
L15.5573 -56.2119
L15.2139 -55.8582
L14.8768 -55.4984
L14.5461 -55.1327
L14.2219 -54.7611
L13.9044 -54.3838
L13.5936 -54.0009
L13.2896 -53.6126
L12.9926 -53.2188
L12.7025 -52.8199
L12.4196 -52.4158
L12.1438 -52.0067
L11.8753 -51.5927
L11.6142 -51.174
L11.3604 -50.7506
L11.1142 -50.3228
L10.8756 -49.8906
L10.6446 -49.4542
L10.4214 -49.0136
L10.2059 -48.5691
L9.99829 -48.1208
L9.7986 -47.6688
L9.60689 -47.2132
L9.42322 -46.7542
L9.24765 -46.292
L9.08023 -45.8266
L8.92101 -45.3582
L8.77003 -44.887
L8.62735 -44.413
L8.49301 -43.9365
L8.36705 -43.4576
L8.2495 -42.9764
L8.14041 -42.4931
L8.0398 -42.0078
L7.94771 -41.5206
L7.86417 -41.0318
L7.78919 -40.5415
L7.72281 -40.0497
L7.66504 -39.5568
L7.61591 -39.0627
L7.57542 -38.5677
L7.54359 -38.072
L7.52042 -37.5756
L7.50593 -37.0787
L7.50012 -36.5815
L7.503 -36.0841
L7.51455 -35.5867
L7.53478 -35.0895
L7.56368 -34.5924
z
" id="C0_2_cc83146e20"/>
    </defs>
    <g clip-path="url(#p1bffca34e9)">
     <use style="fill:#ff0000;stroke:#000000;stroke-width:2.0;" x="0.0" xlink:href="#C0_0_a811fe30f3" y="72.0"/>
    </g>
    <g clip-path="url(#p1bffca34e9)">
     <use style="fill:#ffffff;stroke:#000000;stroke-width:2.0;" x="0.0" xlink:href="#C0_1_d7bcca0d5d" y="72.0"/>
    </g>
    <g clip-path="url(#p1bffca34e9)">
     <use style="fill:#ffffff;stroke:#000000;stroke-width:2.0;" x="0.0" xlink:href="#C0_2_cc83146e20" y="72.0"/>
    </g>
   </g>
  </g>
 </g>
 <defs>
  <clipPath id="p1bffca34e9">
   <rect height="72.0" width="72.0" x="0.0" y="0.0"/>
  </clipPath>
 </defs>
</svg>
