<?xml version="1.0" encoding="utf-8" standalone="no"?>
<!DOCTYPE svg PUBLIC "-//W3C//DTD SVG 1.1//EN"
  "http://www.w3.org/Graphics/SVG/1.1/DTD/svg11.dtd">
<!-- Created with matplotlib (http://matplotlib.org/) -->
<svg height="72pt" version="1.1" viewBox="0 0 72 72" width="72pt" xmlns="http://www.w3.org/2000/svg" xmlns:xlink="http://www.w3.org/1999/xlink">
 <defs>
  <style type="text/css">
*{stroke-linecap:butt;stroke-linejoin:round;}
  </style>
 </defs>
 <g id="figure_1">
  <g id="patch_1">
   <path d="
M0 72
L72 72
L72 0
L0 0
z
" style="fill:none;"/>
  </g>
  <g id="axes_1">
   <g id="PatchCollection_1">
    <defs>
     <path d="
M36 -7.5
C43.5583 -7.5 50.808 -10.5029 56.1525 -15.8475
C61.4971 -21.192 64.5 -28.4417 64.5 -36
C64.5 -43.5583 61.4971 -50.808 56.1525 -56.1525
C50.808 -61.4971 43.5583 -64.5 36 -64.5
C28.4417 -64.5 21.192 -61.4971 15.8475 -56.1525
C10.5029 -50.808 7.5 -43.5583 7.5 -36
C7.5 -28.4417 10.5029 -21.192 15.8475 -15.8475
C21.192 -10.5029 28.4417 -7.5 36 -7.5
z
" id="C0_0_a811fe30f3"/>
     <path d="
M64.3601 -33.9418
L64.1213 -33.8949
L63.8817 -33.8461
L63.6414 -33.7956
L63.4005 -33.7436
L63.1591 -33.6902
L62.9172 -33.6358
L62.675 -33.5804
L62.4325 -33.5242
L62.1898 -33.4673
L61.9469 -33.4099
L61.7039 -33.352
L61.4609 -33.2939
L61.2178 -33.2355
L60.9748 -33.1769
L60.7318 -33.1183
L60.4889 -33.0596
L60.2462 -33.001
L60.0036 -32.9425
L59.7612 -32.8841
L59.519 -32.8259
L59.277 -32.768
L59.0352 -32.7102
L58.7936 -32.6528
L58.5523 -32.5957
L58.3112 -32.5389
L58.0704 -32.4825
L57.8298 -32.4264
L57.5894 -32.3707
L57.3493 -32.3154
L57.1094 -32.2604
L56.8697 -32.2059
L56.6302 -32.1518
L56.3909 -32.0981
L56.1517 -32.0448
L55.9127 -31.9919
L55.6739 -31.9395
L55.4351 -31.8874
L55.1964 -31.8358
L54.9578 -31.7846
L54.7193 -31.7338
L54.4807 -31.6834
L54.2421 -31.6334
L54.0035 -31.5838
L53.7648 -31.5346
L53.526 -31.4857
L53.2871 -31.4373
L53.048 -31.3892
L52.8087 -31.3415
L52.5692 -31.2941
L52.3294 -31.2471
L52.0893 -31.2004
L51.8488 -31.1541
L51.608 -31.1081
L51.3667 -31.0624
L51.125 -31.017
L50.8828 -30.9719
L50.3968 -30.9272
L50.1528 -30.8827
L49.9082 -30.8385
L49.663 -30.7946
L49.4169 -30.7509
L49.1701 -30.7075
L48.9225 -30.6644
L48.674 -30.6215
L48.4246 -30.5788
L48.1742 -30.5364
L47.9229 -30.4941
L47.6704 -30.4521
L47.4169 -30.4103
L47.1623 -30.3687
L46.9065 -30.3272
L46.6495 -30.286
L46.3912 -30.2449
L46.1316 -30.204
L45.8706 -30.1632
L45.6083 -30.1226
L45.3445 -30.0821
L45.0792 -30.0417
L44.8124 -30.0015
L44.544 -29.9613
L44.274 -29.9213
L44.0024 -29.8813
L43.729 -29.8414
L43.454 -29.8016
L43.1771 -29.7619
L42.8985 -29.7222
L42.618 -29.6825
L42.3356 -29.6429
L42.0514 -29.6032
L41.7652 -29.5636
L41.477 -29.5239
L41.1868 -29.4843
L40.8946 -29.4445
L40.6004 -29.4047
L40.3041 -29.3648
L40.0057 -29.3248
L39.7053 -29.2847
L39.4028 -29.2444
L39.0981 -29.204
L38.7914 -29.1634
L38.4826 -29.1225
L38.1717 -29.0813
L37.8588 -29.0399
L37.5438 -28.9981
L37.2268 -28.956
L36.9079 -28.9134
L36.587 -28.8704
L36.2643 -28.8269
L35.9397 -28.7828
L35.6134 -28.738
L35.2854 -28.6926
L34.9559 -28.6464
L34.6249 -28.5993
L34.2925 -28.5513
L33.9588 -28.5023
L33.6241 -28.4521
L33.2884 -28.4007
L32.9519 -28.3479
L32.6147 -28.2936
L32.2772 -28.2377
L31.9394 -28.18
L31.6017 -28.1203
L31.2642 -28.0585
L30.9272 -27.9944
L30.5909 -27.9277
L30.2558 -27.8583
L29.922 -27.7859
L29.59 -27.7103
L29.26 -27.6311
L28.9325 -27.5482
L28.6078 -27.4612
L28.2863 -27.3698
L27.9684 -27.2737
L27.6545 -27.1726
L27.3452 -27.0661
L27.0408 -26.9539
L26.7417 -26.8356
L26.4485 -26.711
L26.1616 -26.5795
L25.8814 -26.4411
L25.6084 -26.2952
L25.343 -26.1417
L25.0855 -25.9803
L24.8365 -25.8107
L24.5961 -25.6328
L24.3649 -25.4464
L24.143 -25.2515
L23.9307 -25.0479
L23.7282 -24.8358
L23.5358 -24.6151
L23.3535 -24.386
L23.1815 -24.1487
L23.0198 -23.9034
L22.8684 -23.6504
L22.7274 -23.3899
L22.5968 -23.1224
L22.4764 -22.8483
L22.3661 -22.5678
L22.266 -22.2816
L22.1757 -21.9899
L22.0953 -21.6934
L22.0244 -21.3924
L21.9631 -21.0874
L21.911 -20.7789
L21.8679 -20.4673
L21.8338 -20.153
L21.8084 -19.8366
L21.7915 -19.5183
L21.7829 -19.1987
L21.7824 -18.878
L21.7899 -18.5567
L21.8051 -18.2351
L21.8278 -17.9134
L21.8579 -17.5921
L21.8951 -17.2714
L21.9393 -16.9515
L21.9904 -16.6327
L22.0481 -16.3153
L22.1123 -15.9994
L22.1828 -15.6853
L22.2595 -15.3731
L22.3421 -15.063
L22.4307 -14.7551
L22.525 -14.4497
L22.6249 -14.1467
L22.7303 -13.8463
L22.841 -13.5487
L22.9569 -13.2539
L23.078 -12.962
L23.2041 -12.673
L23.3351 -12.3871
L23.4709 -12.1043
L23.6114 -11.8247
L23.7565 -11.5482
L23.9062 -11.2749
L24.0604 -11.0049
L24.219 -10.7382
L24.3819 -10.4748
L24.5492 -10.2147
L24.9855 -9.95794
L25.4459 -9.71445
L25.9095 -9.52623
L26.3762 -9.34606
L26.8459 -9.17402
L27.3183 -9.01015
L27.7934 -8.8545
L28.271 -8.70712
L28.7509 -8.56805
L29.233 -8.43734
L29.7172 -8.31502
L30.2033 -8.20114
L30.6912 -8.09572
L31.1807 -7.9988
L31.6717 -7.91042
L32.164 -7.83059
L32.6574 -7.75934
L33.1519 -7.69669
L33.6472 -7.64267
L34.1433 -7.59728
L34.6399 -7.56054
L35.1369 -7.53247
L35.6342 -7.51307
L36.1316 -7.50235
L36.629 -7.5003
L37.1262 -7.50694
L37.623 -7.52226
L38.1194 -7.54625
L38.6151 -7.57891
L39.11 -7.62023
L39.6039 -7.67019
L40.0968 -7.72878
L40.5884 -7.79598
L41.0786 -7.87178
L41.5672 -7.95614
L42.0542 -8.04904
L42.5393 -8.15046
L43.0224 -8.26036
L43.5034 -8.37871
L43.9821 -8.50548
L44.4584 -8.64062
L44.9321 -8.78409
L45.4031 -8.93586
L45.8712 -9.09587
L46.3363 -9.26407
L46.7982 -9.44042
L47.2569 -9.62486
L47.7121 -9.81733
L48.1638 -10.0178
L48.6118 -10.2261
L49.0559 -10.4424
L49.496 -10.6664
L49.9321 -10.8981
L50.3639 -11.1374
L50.7913 -11.3844
L51.2142 -11.6388
L51.6325 -11.9006
L52.046 -12.1698
L52.4546 -12.4463
L52.8582 -12.7299
L53.2567 -13.0206
L53.6499 -13.3184
L54.0377 -13.623
L54.4201 -13.9344
L54.7968 -14.2526
L55.1678 -14.5774
L55.533 -14.9087
L55.8922 -15.2464
L56.2454 -15.5905
L56.5924 -15.9408
L56.9331 -16.2971
L57.2675 -16.6595
L57.5954 -17.0278
L57.9167 -17.4019
L58.2313 -17.7816
L58.5391 -18.1669
L58.8401 -18.5576
L59.1341 -18.9536
L59.4211 -19.3548
L59.7009 -19.7611
L59.9736 -20.1723
L60.2389 -20.5884
L60.4968 -21.0091
L60.7473 -21.4344
L60.9902 -21.8642
L61.2255 -22.2982
L61.4532 -22.7364
L61.6731 -23.1787
L61.8851 -23.6249
L62.0893 -24.0748
L62.2855 -24.5284
L62.4738 -24.9855
L62.6539 -25.4459
L62.826 -25.9095
L62.9899 -26.3762
L63.1455 -26.8459
L63.2929 -27.3183
L63.432 -27.7934
L63.5627 -28.271
L63.685 -28.7509
L63.7989 -29.233
L63.9043 -29.7172
L64.0012 -30.2033
L64.0896 -30.6912
L64.1694 -31.1807
L64.2407 -31.6717
L64.3033 -32.164
L64.3573 -32.6574
z
" id="C0_1_1702f93cb7"/>
     <path d="
M47.1905 -62.0883
L46.8911 -62.0371
L46.5941 -61.9829
L46.2994 -61.926
L46.0071 -61.8663
L45.7171 -61.8038
L45.4294 -61.7388
L45.1439 -61.6711
L44.8607 -61.601
L44.5796 -61.5284
L44.3007 -61.4534
L44.0238 -61.376
L43.749 -61.2963
L43.4762 -61.2144
L43.2054 -61.1302
L42.9364 -61.0439
L42.6693 -60.9554
L42.404 -60.8648
L42.1405 -60.7722
L41.8787 -60.6775
L41.6186 -60.5807
L41.3601 -60.482
L41.1031 -60.3813
L40.8477 -60.2787
L40.5937 -60.1741
L40.3411 -60.0676
L40.09 -59.9592
L39.8401 -59.8489
L39.5915 -59.7367
L39.3441 -59.6226
L39.098 -59.5067
L38.8529 -59.3889
L38.6089 -59.2692
L38.366 -59.1476
L38.124 -59.0242
L37.883 -58.8988
L37.6428 -58.7716
L37.4035 -58.6425
L37.1651 -58.5115
L36.9273 -58.3785
L36.6903 -58.2436
L36.454 -58.1068
L36.2183 -57.968
L35.9832 -57.8273
L35.7486 -57.6845
L35.5146 -57.5397
L35.281 -57.3929
L35.0479 -57.244
L34.8151 -57.0931
L34.5827 -56.94
L34.3506 -56.7848
L34.1188 -56.6274
L33.8872 -56.4678
L33.6559 -56.306
L33.4247 -56.1419
L33.1936 -55.9756
L32.9627 -55.8069
L32.7319 -55.6359
L32.5011 -55.4625
L32.2703 -55.2866
L32.0395 -55.1084
L31.8087 -54.9276
L31.5778 -54.7443
L31.3469 -54.5584
L31.1158 -54.37
L30.8846 -54.1789
L30.6533 -53.9851
L30.4218 -53.7887
L30.1901 -53.5895
L29.9581 -53.3876
L29.726 -53.1828
L29.4936 -52.9752
L29.261 -52.7648
L29.0281 -52.5514
L28.7949 -52.3352
L28.5615 -52.116
L28.3278 -51.8938
L28.0937 -51.6687
L27.8594 -51.4405
L27.6248 -51.2094
L27.3899 -50.9753
L27.1546 -50.7381
L26.9191 -50.4979
L26.6833 -50.2547
L26.4472 -50.0085
L26.2108 -49.7593
L25.9742 -49.5072
L25.7373 -49.2522
L25.5001 -48.9943
L25.2627 -48.7336
L25.025 -48.4701
L24.7871 -48.204
L24.549 -47.9352
L24.3108 -47.664
L24.0723 -47.3904
L23.8336 -47.1145
L23.5948 -46.8365
L23.3558 -46.5565
L23.1167 -46.2747
L22.8773 -45.9914
L22.6379 -45.7066
L22.3982 -45.4207
L22.1584 -45.1339
L21.9184 -44.8465
L21.6781 -44.5587
L21.4377 -44.2709
L21.1969 -43.9835
L20.9558 -43.6967
L20.7144 -43.411
L20.4725 -43.1269
L20.2302 -42.8447
L19.9872 -42.5649
L19.7436 -42.2879
L19.4993 -42.0144
L19.2541 -41.7448
L19.008 -41.4795
L18.7609 -41.2193
L18.5126 -40.9645
L18.263 -40.7158
L18.012 -40.4737
L17.7596 -40.2387
L17.5056 -40.0113
L17.2499 -39.792
L16.9925 -39.5813
L16.7333 -39.3796
L16.4723 -39.1872
L16.2094 -39.0045
L15.9448 -38.8317
L15.6783 -38.6691
L15.4102 -38.5169
L15.1404 -38.3751
L14.8691 -38.2439
L14.5964 -38.1232
L14.3226 -38.0129
L14.0477 -37.913
L13.772 -37.8234
L13.4958 -37.7438
L13.2192 -37.674
L12.9425 -37.6138
L12.666 -37.563
L12.3898 -37.5212
L12.1143 -37.4882
L11.8397 -37.4637
L11.5663 -37.4473
L11.2943 -37.4388
L11.0238 -37.4379
L10.7552 -37.4442
L10.4887 -37.4575
L10.2244 -37.4775
L9.96252 -37.5039
L9.70326 -37.5364
L9.44677 -37.5748
L9.19319 -37.6189
L8.94267 -37.6684
L8.69532 -37.7231
L8.45126 -37.7828
L8.21058 -37.8472
L7.97339 -37.9163
L7.60965 -37.9899
L7.65757 -38.4977
L7.71412 -38.9928
L7.77928 -39.4869
L7.85304 -39.9801
L7.93537 -40.472
L8.02626 -40.9625
L8.12566 -41.4516
L8.23355 -41.939
L8.34991 -42.4245
L8.47468 -42.9081
L8.60784 -43.3896
L8.74934 -43.8689
L8.89915 -44.3458
L9.05721 -44.8201
L9.22347 -45.2917
L9.3979 -45.7605
L9.58042 -46.2263
L9.771 -46.6891
L9.96956 -47.1485
L10.1761 -47.6046
L10.3904 -48.0571
L10.6126 -48.506
L10.8425 -48.951
L11.08 -49.3921
L11.3252 -49.8291
L11.5778 -50.2619
L11.8379 -50.6904
L12.1054 -51.1144
L12.3801 -51.5338
L12.6621 -51.9484
L12.9511 -52.3582
L13.2472 -52.763
L13.5502 -53.1627
L13.86 -53.5572
L14.1766 -53.9463
L14.4998 -54.33
L14.8296 -54.7081
L15.1658 -55.0805
L15.5084 -55.447
L15.8572 -55.8077
L16.2121 -56.1623
L16.5731 -56.5107
L16.94 -56.853
L17.3127 -57.1888
L17.6911 -57.5183
L18.0751 -57.8411
L18.4645 -58.1573
L18.8593 -58.4668
L19.2593 -58.7694
L19.6644 -59.0651
L20.0744 -59.3537
L20.4893 -59.6353
L20.909 -59.9096
L21.3332 -60.1767
L21.7619 -60.4364
L22.195 -60.6886
L22.6322 -60.9333
L23.0735 -61.1705
L23.5188 -61.3999
L23.9679 -61.6217
L24.4206 -61.8356
L24.8768 -62.0416
L25.3365 -62.2398
L25.7994 -62.4299
L26.2654 -62.612
L26.7343 -62.7859
L27.2061 -62.9518
L27.6806 -63.1094
L28.1576 -63.2587
L28.637 -63.3998
L29.1186 -63.5324
L29.6023 -63.6568
L30.088 -63.7726
L30.5755 -63.8801
L31.0646 -63.979
L31.5552 -64.0694
L32.0472 -64.1513
L32.5404 -64.2246
L33.0346 -64.2892
L33.5298 -64.3453
L34.0257 -64.3927
L34.5222 -64.4315
L35.0191 -64.4617
L35.5164 -64.4831
L36.0138 -64.4959
L36.5112 -64.5
L37.0084 -64.4954
L37.5053 -64.4822
L38.0018 -64.4602
L38.4977 -64.4296
L38.9928 -64.3903
L39.4869 -64.3424
L39.9801 -64.2859
L40.472 -64.2207
L40.9625 -64.147
L41.4516 -64.0646
L41.939 -63.9737
L42.4245 -63.8743
L42.9081 -63.7664
L43.3896 -63.6501
L43.8689 -63.5253
L44.3458 -63.3922
L44.8201 -63.2507
L45.2917 -63.1009
L45.7605 -62.9428
L46.2263 -62.7765
L46.6891 -62.6021
z
" id="C0_2_0063e023b2"/>
    </defs>
    <g clip-path="url(#p1bffca34e9)">
     <use style="fill:#ffffff;stroke:#000000;stroke-width:2.0;" x="0.0" xlink:href="#C0_0_a811fe30f3" y="72.0"/>
    </g>
    <g clip-path="url(#p1bffca34e9)">
     <use style="fill:#ff0000;stroke:#000000;stroke-width:2.0;" x="0.0" xlink:href="#C0_1_1702f93cb7" y="72.0"/>
    </g>
    <g clip-path="url(#p1bffca34e9)">
     <use style="fill:#ff0000;stroke:#000000;stroke-width:2.0;" x="0.0" xlink:href="#C0_2_0063e023b2" y="72.0"/>
    </g>
   </g>
  </g>
 </g>
 <defs>
  <clipPath id="p1bffca34e9">
   <rect height="72.0" width="72.0" x="0.0" y="0.0"/>
  </clipPath>
 </defs>
</svg>
