<?xml version="1.0" encoding="utf-8" standalone="no"?>
<!DOCTYPE svg PUBLIC "-//W3C//DTD SVG 1.1//EN"
  "http://www.w3.org/Graphics/SVG/1.1/DTD/svg11.dtd">
<!-- Created with matplotlib (http://matplotlib.org/) -->
<svg height="72pt" version="1.1" viewBox="0 0 72 72" width="72pt" xmlns="http://www.w3.org/2000/svg" xmlns:xlink="http://www.w3.org/1999/xlink">
 <defs>
  <style type="text/css">
*{stroke-linecap:butt;stroke-linejoin:round;}
  </style>
 </defs>
 <g id="figure_1">
  <g id="patch_1">
   <path d="
M0 72
L72 72
L72 0
L0 0
z
" style="fill:none;"/>
  </g>
  <g id="axes_1">
   <g id="PatchCollection_1">
    <defs>
     <path d="
M36 -7.5
C43.5583 -7.5 50.808 -10.5029 56.1525 -15.8475
C61.4971 -21.192 64.5 -28.4417 64.5 -36
C64.5 -43.5583 61.4971 -50.808 56.1525 -56.1525
C50.808 -61.4971 43.5583 -64.5 36 -64.5
C28.4417 -64.5 21.192 -61.4971 15.8475 -56.1525
C10.5029 -50.808 7.5 -43.5583 7.5 -36
C7.5 -28.4417 10.5029 -21.192 15.8475 -15.8475
C21.192 -10.5029 28.4417 -7.5 36 -7.5
z
" id="C0_0_a811fe30f3"/>
     <path d="
M45.7294 -35.758
L45.6094 -35.5299
L45.4883 -35.3022
L45.3659 -35.0749
L45.2423 -34.8479
L45.1174 -34.6212
L44.9911 -34.3947
L44.8635 -34.1684
L44.7345 -33.9422
L44.6041 -33.7161
L44.4722 -33.4901
L44.3388 -33.2641
L44.2039 -33.0381
L44.0674 -32.812
L43.9294 -32.5857
L43.7896 -32.3593
L43.6482 -32.1328
L43.505 -31.9059
L43.3601 -31.6788
L43.2133 -31.4514
L43.0646 -31.2237
L42.914 -30.9956
L42.7615 -30.767
L42.6069 -30.5381
L42.4502 -30.3086
L42.2913 -30.0787
L42.1303 -29.8483
L41.967 -29.6173
L41.8014 -29.3857
L41.6334 -29.1536
L41.463 -28.9208
L41.2901 -28.6874
L41.1146 -28.4534
L40.9365 -28.2188
L40.7557 -27.9835
L40.5721 -27.7476
L40.3857 -27.511
L40.1964 -27.2738
L40.0041 -27.0359
L39.8088 -26.7974
L39.6103 -26.5584
L39.4087 -26.3187
L39.2038 -26.0785
L38.9956 -25.8378
L38.7839 -25.5966
L38.5688 -25.355
L38.3502 -25.1131
L38.1279 -24.8708
L37.9019 -24.6283
L37.6722 -24.3857
L37.4386 -24.143
L37.2011 -23.9004
L36.9597 -23.6579
L36.7142 -23.4157
L36.4646 -23.1739
L36.2109 -22.9328
L35.9529 -22.6923
L35.6907 -22.4528
L35.4241 -22.2144
L35.1532 -21.9774
L34.8779 -21.742
L34.5981 -21.5084
L34.3138 -21.2769
L34.0251 -21.0478
L33.7318 -20.8215
L33.434 -20.5984
L33.1316 -20.3787
L32.8247 -20.163
L32.5133 -19.9517
L32.1974 -19.7452
L31.877 -19.5442
L31.5522 -19.3492
L31.223 -19.1609
L30.8895 -18.9798
L30.5517 -18.8069
L30.2098 -18.6427
L29.8639 -18.4883
L29.5142 -18.3445
L29.1607 -18.2123
L28.8036 -18.0926
L28.4432 -17.9867
L28.0797 -17.8956
L27.7134 -17.8204
L27.3446 -17.7623
L26.9737 -17.7226
L26.601 -17.7022
L26.2271 -17.7023
L25.8524 -17.7236
L25.4775 -17.7671
L25.103 -17.8332
L24.7295 -17.9223
L24.3578 -18.0346
L23.9885 -18.1698
L23.6223 -18.3277
L23.2598 -18.5076
L22.9019 -18.7087
L22.5491 -18.93
L22.2021 -19.1705
L21.8613 -19.429
L21.5273 -19.7043
L21.2006 -19.995
L20.8816 -20.3
L20.5706 -20.6181
L20.2678 -20.9479
L19.9737 -21.2885
L19.6882 -21.6386
L19.4117 -21.9973
L19.1442 -22.3637
L18.8858 -22.7368
L18.6366 -23.1157
L18.3964 -23.4997
L18.1655 -23.8881
L17.9436 -24.2802
L17.7307 -24.6753
L17.5268 -25.0729
L17.3318 -25.4724
L17.1455 -25.8734
L16.9678 -26.2753
L16.7986 -26.6779
L16.6378 -27.0806
L16.4851 -27.4832
L16.3404 -27.8853
L16.2036 -28.2866
L16.0745 -28.6869
L15.9528 -29.086
L15.8385 -29.4835
L15.7314 -29.8794
L15.6312 -30.2734
L15.5378 -30.6654
L15.4511 -31.0552
L15.3708 -31.4428
L15.2968 -31.8279
L15.2289 -32.2107
L15.167 -32.5908
L15.1108 -32.9684
L15.0602 -33.3433
L15.0152 -33.7154
L14.9754 -34.0848
L14.9409 -34.4515
L14.9113 -34.8153
L14.8867 -35.1764
L14.8668 -35.5346
L14.8516 -35.89
L14.8409 -36.2427
L14.8346 -36.5925
L14.8326 -36.9396
L14.8347 -37.284
L14.841 -37.6256
L14.8512 -37.9646
L14.8653 -38.301
L14.8832 -38.6347
L14.9048 -38.9659
L14.93 -39.2945
L14.9588 -39.6207
L14.9911 -39.9444
L15.0268 -40.2658
L15.0659 -40.5848
L15.1082 -40.9015
L15.1538 -41.2161
L15.2026 -41.5284
L15.2546 -41.8386
L15.3096 -42.1467
L15.3678 -42.4528
L15.4289 -42.757
L15.4931 -43.0592
L15.5602 -43.3596
L15.6303 -43.6581
L15.7033 -43.9549
L15.7792 -44.25
L15.858 -44.5435
L15.9398 -44.8353
L16.0243 -45.1257
L16.1118 -45.4145
L16.2022 -45.7019
L16.2954 -45.9879
L16.3915 -46.2725
L16.4905 -46.5559
L16.5924 -46.838
L16.6973 -47.1189
L16.8051 -47.3987
L16.9158 -47.6773
L17.0295 -47.9549
L17.1463 -48.2314
L17.266 -48.507
L17.3889 -48.7816
L17.5149 -49.0553
L17.644 -49.3281
L17.7763 -49.6001
L17.9119 -49.8713
L18.0507 -50.1417
L18.1929 -50.4113
L18.3385 -50.6802
L18.4875 -50.9485
L18.6401 -51.216
L18.7962 -51.483
L18.956 -51.7492
L19.1195 -52.0149
L19.2868 -52.28
L19.458 -52.5444
L19.6331 -52.8083
L19.8122 -53.0716
L19.9955 -53.3344
L20.183 -53.5965
L20.3748 -53.8581
L20.5709 -54.119
L20.7716 -54.3794
L20.9769 -54.6391
L21.1869 -54.8982
L21.4017 -55.1566
L21.6214 -55.4142
L21.8462 -55.6712
L22.0761 -55.9273
L22.3114 -56.1826
L22.552 -56.437
L22.7982 -56.6904
L23.05 -56.9428
L23.3076 -57.194
L23.5711 -57.4441
L23.8407 -57.6929
L24.1165 -57.9402
L24.3986 -58.1861
L24.6872 -58.4303
L24.9823 -58.6728
L25.2842 -58.9133
L25.593 -59.1518
L25.9087 -59.3881
L26.2316 -59.6219
L26.5617 -59.8531
L26.8992 -60.0816
L27.2442 -60.307
L27.5968 -60.5291
L27.957 -60.7478
L28.3251 -60.9626
L28.7011 -61.1734
L29.085 -61.3799
L29.477 -61.5817
L29.877 -61.7786
L30.2851 -61.97
L30.7012 -62.1558
L31.1255 -62.3355
L31.5578 -62.5088
L31.9981 -62.6751
L32.4463 -62.8341
L32.9022 -62.9854
L33.3657 -63.1283
L33.8366 -63.2626
L34.3147 -63.3876
L34.7996 -63.5029
L35.291 -63.6079
L35.7885 -63.7021
L36.2915 -63.785
L36.7997 -63.8559
L37.3123 -63.9144
L37.8288 -63.9599
L38.3482 -63.9918
L38.8697 -64.0096
L39.3924 -64.0127
L39.9152 -64.0006
L40.437 -63.9728
L40.9565 -63.9289
L41.4724 -63.8685
L41.9832 -63.7911
L42.4874 -63.6965
L42.9834 -63.5844
L43.4696 -63.4548
L43.9444 -63.3076
L44.4062 -63.1429
L44.8535 -62.9609
L45.2848 -62.7621
L45.6989 -62.5468
L46.0948 -62.3158
L46.4716 -62.0697
L46.8287 -61.8094
L47.1658 -61.5359
L47.4826 -61.2502
L47.7795 -60.9532
L48.0565 -60.6461
L48.3142 -60.3298
L48.5532 -60.0054
L48.7742 -59.6739
L48.9778 -59.3362
L49.1649 -58.9931
L49.3363 -58.6455
L49.4927 -58.2941
L49.6349 -57.9396
L49.7638 -57.5826
L49.8799 -57.2237
L49.9841 -56.8634
L50.077 -56.5023
L50.1592 -56.1407
L50.2313 -55.779
L50.2939 -55.4177
L50.3475 -55.0569
L50.3926 -54.6971
L50.4297 -54.3384
L50.4592 -53.9812
L50.4815 -53.6256
L50.4971 -53.2718
L50.5062 -52.92
L50.5094 -52.5704
L50.5068 -52.223
L50.4987 -51.878
L50.4856 -51.5355
L50.4676 -51.1955
L50.4451 -50.8583
L50.4182 -50.5237
L50.3872 -50.1919
L50.3523 -49.8629
L50.3137 -49.5368
L50.2717 -49.2135
L50.2263 -48.893
L50.1778 -48.5755
L50.1264 -48.2608
L50.0721 -47.949
L50.0151 -47.6401
L49.9556 -47.334
L49.8937 -47.0307
L49.8295 -46.7303
L49.763 -46.4326
L49.6945 -46.1376
L49.6241 -45.8453
L49.5517 -45.5556
L49.4775 -45.2686
L49.4016 -44.9841
L49.324 -44.7022
L49.2448 -44.4227
L49.1641 -44.1456
L49.0819 -43.8709
L48.9983 -43.5984
L48.9134 -43.3283
L48.8271 -43.0603
L48.7395 -42.7945
L48.6508 -42.5308
L48.5608 -42.2691
L48.4696 -42.0093
L48.3773 -41.7515
L48.2839 -41.4955
L48.1893 -41.2413
L48.0937 -40.9889
L47.9971 -40.7381
L47.8994 -40.4889
L47.8006 -40.2413
L47.7009 -39.9952
L47.6001 -39.7506
L47.4983 -39.5073
L47.3955 -39.2654
L47.2917 -39.0247
L47.1869 -38.7852
L47.0811 -38.5469
L46.9742 -38.3098
L46.8664 -38.0736
L46.7575 -37.8385
L46.6476 -37.6043
L46.5366 -37.3709
L46.4246 -37.1384
L46.3115 -36.9067
L46.1974 -36.6757
L46.0821 -36.4454
L45.9656 -36.2157
z
" id="C0_1_3a2798fd48"/>
    </defs>
    <g clip-path="url(#p1bffca34e9)">
     <use style="fill:#ffffff;stroke:#000000;stroke-width:2.0;" x="0.0" xlink:href="#C0_0_a811fe30f3" y="72.0"/>
    </g>
    <g clip-path="url(#p1bffca34e9)">
     <use style="fill:#ff0000;stroke:#000000;stroke-width:2.0;" x="0.0" xlink:href="#C0_1_3a2798fd48" y="72.0"/>
    </g>
   </g>
  </g>
 </g>
 <defs>
  <clipPath id="p1bffca34e9">
   <rect height="72.0" width="72.0" x="0.0" y="0.0"/>
  </clipPath>
 </defs>
</svg>
