<?xml version="1.0" encoding="utf-8" standalone="no"?>
<!DOCTYPE svg PUBLIC "-//W3C//DTD SVG 1.1//EN"
  "http://www.w3.org/Graphics/SVG/1.1/DTD/svg11.dtd">
<!-- Created with matplotlib (http://matplotlib.org/) -->
<svg height="72pt" version="1.1" viewBox="0 0 72 72" width="72pt" xmlns="http://www.w3.org/2000/svg" xmlns:xlink="http://www.w3.org/1999/xlink">
 <defs>
  <style type="text/css">
*{stroke-linecap:butt;stroke-linejoin:round;}
  </style>
 </defs>
 <g id="figure_1">
  <g id="patch_1">
   <path d="
M0 72
L72 72
L72 0
L0 0
z
" style="fill:none;"/>
  </g>
  <g id="axes_1">
   <g id="PatchCollection_1">
    <defs>
     <path d="
M36 -7.5
C43.5583 -7.5 50.808 -10.5029 56.1525 -15.8475
C61.4971 -21.192 64.5 -28.4417 64.5 -36
C64.5 -43.5583 61.4971 -50.808 56.1525 -56.1525
C50.808 -61.4971 43.5583 -64.5 36 -64.5
C28.4417 -64.5 21.192 -61.4971 15.8475 -56.1525
C10.5029 -50.808 7.5 -43.5583 7.5 -36
C7.5 -28.4417 10.5029 -21.192 15.8475 -15.8475
C21.192 -10.5029 28.4417 -7.5 36 -7.5
z
" id="C0_0_a811fe30f3"/>
     <path d="
M14.1019 -54.1274
L14.2445 -53.9568
L14.3844 -53.781
L14.5218 -53.6002
L14.6568 -53.4147
L14.7895 -53.2247
L14.9201 -53.0305
L15.0486 -52.8324
L15.1754 -52.6304
L15.3003 -52.4249
L15.4236 -52.2161
L15.5454 -52.0041
L15.6658 -51.7892
L15.7849 -51.5715
L15.9028 -51.3512
L16.0195 -51.1285
L16.1352 -50.9035
L16.25 -50.6764
L16.3639 -50.4474
L16.477 -50.2165
L16.5894 -49.9839
L16.7011 -49.7498
L16.8123 -49.5142
L16.9229 -49.2772
L17.033 -49.0391
L17.1428 -48.7997
L17.2521 -48.5594
L17.3612 -48.3181
L17.4699 -48.076
L17.5785 -47.833
L17.6868 -47.5893
L17.795 -47.345
L17.903 -47.1001
L18.011 -46.8547
L18.1189 -46.6088
L18.2268 -46.3625
L18.3347 -46.1159
L18.4426 -45.8689
L18.5505 -45.6216
L18.6586 -45.374
L18.7667 -45.1263
L18.8749 -44.8784
L18.9833 -44.6303
L19.0918 -44.382
L19.2005 -44.1337
L19.3094 -43.8853
L19.4185 -43.6368
L19.5278 -43.3882
L19.6373 -43.1396
L19.7471 -42.8909
L19.8572 -42.6423
L19.9675 -42.3935
L20.0782 -42.1448
L20.1891 -41.8961
L20.3004 -41.6473
L20.412 -41.3986
L20.5239 -41.1498
L20.6362 -40.901
L20.7489 -40.6521
L20.8619 -40.4033
L20.9753 -40.1544
L21.0891 -39.9055
L21.2034 -39.6565
L21.318 -39.4074
L21.4331 -39.1583
L21.5486 -38.9091
L21.6646 -38.6598
L21.781 -38.4104
L21.8979 -38.1609
L22.0152 -37.9113
L22.2514 -37.6615
L22.3702 -37.4115
L22.4896 -37.1614
L22.6094 -36.9111
L22.7298 -36.6606
L22.8508 -36.4098
L22.9722 -36.1588
L23.0942 -35.9076
L23.2168 -35.6561
L23.3399 -35.4043
L23.4635 -35.1522
L23.5878 -34.8998
L23.7126 -34.647
L23.838 -34.3939
L23.9639 -34.1404
L24.0905 -33.8866
L24.2176 -33.6323
L24.3453 -33.3776
L24.4736 -33.1225
L24.6024 -32.8669
L24.7318 -32.6109
L24.8618 -32.3544
L24.9924 -32.0974
L25.1236 -31.8399
L25.2553 -31.5819
L25.3875 -31.3233
L25.5203 -31.0642
L25.6536 -30.8046
L25.7875 -30.5444
L25.9218 -30.2836
L26.0566 -30.0223
L26.1919 -29.7604
L26.3276 -29.4979
L26.4638 -29.2347
L26.6004 -28.971
L26.7373 -28.7067
L26.8746 -28.4417
L27.0122 -28.1762
L27.1501 -27.91
L27.2882 -27.6432
L27.4265 -27.3758
L27.565 -27.1079
L27.7036 -26.8393
L27.8422 -26.5701
L27.9809 -26.3003
L28.1194 -26.03
L28.2579 -25.759
L28.3962 -25.4876
L28.5342 -25.2155
L28.6719 -24.943
L28.8091 -24.67
L28.9459 -24.3964
L29.0821 -24.1224
L29.2176 -23.8479
L29.3523 -23.573
L29.4861 -23.2977
L29.619 -23.0221
L29.7507 -22.7461
L29.8812 -22.4698
L30.0103 -22.1931
L30.1379 -21.9163
L30.2639 -21.6392
L30.3881 -21.362
L30.5104 -21.0846
L30.6306 -20.8071
L30.7486 -20.5296
L30.8642 -20.2521
L30.9772 -19.9746
L31.0875 -19.6972
L31.1949 -19.42
L31.2992 -19.1429
L31.4003 -18.8661
L31.4978 -18.5896
L31.5917 -18.3135
L31.6818 -18.0377
L31.7679 -17.7625
L31.8497 -17.4878
L31.9272 -17.2138
L32 -16.9404
L32.0681 -16.6678
L32.1311 -16.396
L32.1891 -16.1251
L32.2417 -15.8552
L32.2887 -15.5863
L32.3301 -15.3186
L32.3657 -15.0522
L32.3953 -14.787
L32.4187 -14.5233
L32.4358 -14.261
L32.4465 -14.0004
L32.4507 -13.7415
L32.4482 -13.4843
L32.439 -13.229
L32.4229 -12.9757
L32.3999 -12.7246
L32.3698 -12.4756
L32.3327 -12.2289
L32.2885 -11.9847
L32.2371 -11.743
L32.1786 -11.504
L32.1128 -11.2677
L32.0398 -11.0343
L31.9596 -10.8038
L31.8722 -10.5765
L31.7776 -10.3524
L31.6758 -10.1317
L31.5669 -9.91436
L31.4509 -9.70061
L31.3278 -9.49054
L31.1977 -9.28427
L31.0607 -9.08189
L30.9168 -8.88353
L30.7661 -8.68929
L30.6086 -8.49929
L30.4445 -8.31363
L29.9411 -8.13241
L29.456 -8.15148
L28.9729 -8.26147
L28.4919 -8.3799
L28.0133 -8.50675
L27.537 -8.64197
L27.0633 -8.78552
L26.5924 -8.93737
L26.1243 -9.09746
L25.6592 -9.26574
L25.1973 -9.44217
L24.7387 -9.62668
L24.2835 -9.81923
L23.8318 -10.0198
L23.3839 -10.2282
L22.9398 -10.4445
L22.4997 -10.6686
L22.0637 -10.9003
L21.632 -11.1398
L21.2046 -11.3868
L20.7817 -11.6413
L20.3635 -11.9032
L19.9501 -12.1725
L19.5415 -12.449
L19.1379 -12.7327
L18.7395 -13.0235
L18.3463 -13.3213
L17.9585 -13.626
L17.5762 -13.9375
L17.1995 -14.2557
L16.8286 -14.5805
L16.4635 -14.9119
L16.1043 -15.2497
L15.7512 -15.5938
L15.4043 -15.9442
L15.0636 -16.3006
L14.7293 -16.6631
L14.4015 -17.0314
L14.0803 -17.4055
L13.7657 -17.7853
L13.4579 -18.1706
L13.157 -18.5614
L12.8631 -18.9575
L12.5762 -19.3587
L12.2964 -19.765
L12.0238 -20.1763
L11.7586 -20.5924
L11.5007 -21.0132
L11.2503 -21.4386
L11.0075 -21.8683
L10.7722 -22.3024
L10.5447 -22.7407
L10.3248 -23.183
L10.1129 -23.6292
L9.90875 -24.0792
L9.71259 -24.5328
L9.52444 -24.9899
L9.34436 -25.4504
L9.17239 -25.914
L9.0086 -26.3808
L8.85303 -26.8504
L8.70573 -27.3229
L8.56674 -27.798
L8.43611 -28.2756
L8.31388 -28.7556
L8.20007 -29.2377
L8.09474 -29.7219
L7.99791 -30.2081
L7.9096 -30.696
L7.82986 -31.1855
L7.75869 -31.6764
L7.69613 -32.1687
L7.64219 -32.6622
L7.59688 -33.1567
L7.56023 -33.652
L7.53224 -34.1481
L7.51293 -34.6447
L7.50229 -35.1418
L7.50033 -35.6391
L7.50705 -36.1365
L7.52245 -36.6338
L7.54653 -37.131
L7.57927 -37.6278
L7.62067 -38.1242
L7.67071 -38.6199
L7.72939 -39.1147
L7.79668 -39.6087
L7.87255 -40.1015
L7.957 -40.5931
L8.04998 -41.0833
L8.15148 -41.5719
L8.26147 -42.0589
L8.3799 -42.544
L8.50675 -43.0271
L8.64197 -43.5081
L8.78552 -43.9867
L8.93737 -44.463
L9.09746 -44.9367
L9.26574 -45.4076
L9.44217 -45.8757
L9.62668 -46.3408
L9.81923 -46.8027
L10.0198 -47.2613
L10.2282 -47.7165
L10.4445 -48.1682
L10.6686 -48.6161
L10.9003 -49.0602
L11.1398 -49.5003
L11.3868 -49.9363
L11.6413 -50.368
L11.9032 -50.7954
L12.1725 -51.2183
L12.449 -51.6365
L12.7327 -52.0499
L13.0235 -52.4585
L13.3213 -52.8621
L13.626 -53.2605
z
" id="C0_1_ac4184e7f1"/>
     <path d="
M41.677 -63.8029
L41.7687 -63.572
L41.8633 -63.3394
L41.9605 -63.1053
L42.0601 -62.8698
L42.1619 -62.6328
L42.2657 -62.3945
L42.3712 -62.1549
L42.4784 -61.914
L42.587 -61.6719
L42.6968 -61.4287
L42.8078 -61.1844
L42.9197 -60.9391
L43.0325 -60.6928
L43.146 -60.4455
L43.26 -60.1973
L43.3745 -59.9483
L43.4893 -59.6985
L43.6044 -59.4478
L43.7196 -59.1965
L43.835 -58.9444
L43.9502 -58.6916
L44.0654 -58.4382
L44.1804 -58.1842
L44.2952 -57.9296
L44.4097 -57.6745
L44.5239 -57.4188
L44.6376 -57.1626
L44.7509 -56.906
L44.8637 -56.6488
L44.976 -56.3912
L45.0877 -56.1332
L45.1988 -55.8748
L45.3092 -55.616
L45.419 -55.3568
L45.5281 -55.0972
L45.6365 -54.8372
L45.7441 -54.5769
L45.851 -54.3162
L45.9572 -54.0552
L46.0625 -53.7938
L46.1671 -53.5321
L46.2709 -53.27
L46.3738 -53.0076
L46.476 -52.7448
L46.5773 -52.4817
L46.6778 -52.2182
L46.7774 -51.9543
L46.8762 -51.6901
L46.9742 -51.4255
L47.0713 -51.1606
L47.1676 -50.8952
L47.263 -50.6295
L47.3577 -50.3633
L47.4514 -50.0967
L47.5444 -49.8297
L47.6365 -49.5623
L47.7278 -49.2943
L47.8182 -49.026
L47.9079 -48.7571
L47.9967 -48.4877
L48.0847 -48.2178
L48.1719 -47.9474
L48.2583 -47.6764
L48.3439 -47.4049
L48.4288 -47.1328
L48.5128 -46.86
L48.5961 -46.5867
L48.6786 -46.3127
L48.7603 -46.0381
L48.8413 -45.7629
L48.9215 -45.4869
L49.001 -45.2103
L49.0797 -44.9329
L49.1577 -44.6548
L49.235 -44.3759
L49.3115 -44.0963
L49.3874 -43.8159
L49.4625 -43.5347
L49.537 -43.2527
L49.6108 -42.9698
L49.6838 -42.6862
L49.7562 -42.4016
L49.828 -42.1162
L49.8991 -41.8299
L49.9695 -41.5428
L50.0393 -41.2547
L50.1084 -40.9657
L50.177 -40.6758
L50.2449 -40.385
L50.3122 -40.0932
L50.3789 -39.8005
L50.445 -39.5069
L50.5106 -39.2124
L50.5756 -38.9169
L50.64 -38.6204
L50.7039 -38.3231
L50.7673 -38.0248
L50.8302 -37.7256
L50.8926 -37.4255
L50.9545 -37.1245
L51.016 -36.8227
L51.077 -36.52
L51.1376 -36.2164
L51.1978 -35.912
L51.2576 -35.6068
L51.3171 -35.3009
L51.3762 -34.9943
L51.4351 -34.6869
L51.4937 -34.3789
L51.552 -34.0703
L51.6102 -33.7611
L51.6682 -33.4514
L51.7261 -33.1412
L51.7838 -32.8306
L51.8416 -32.5197
L51.8993 -32.2085
L51.9571 -31.8971
L52.0151 -31.5855
L52.0731 -31.2739
L52.1314 -30.9623
L52.19 -30.6508
L52.2489 -30.3396
L52.3083 -30.0286
L52.3681 -29.718
L52.4285 -29.4079
L52.4895 -29.0985
L52.5513 -28.7897
L52.6139 -28.4819
L52.6774 -28.1749
L52.7418 -27.8691
L52.8074 -27.5646
L52.8742 -27.2614
L52.9422 -26.9597
L53.0116 -26.6596
L53.0826 -26.3614
L53.1552 -26.0651
L53.2294 -25.7709
L53.3056 -25.479
L53.3836 -25.1895
L53.4638 -24.9026
L53.5461 -24.6185
L53.6307 -24.3372
L53.7178 -24.059
L53.8073 -23.7841
L53.8995 -23.5125
L53.9944 -23.2446
L54.0921 -22.9803
L54.1928 -22.72
L54.2965 -22.4637
L54.4033 -22.2117
L54.5133 -21.964
L54.6267 -21.7208
L54.7433 -21.4824
L54.8634 -21.2487
L54.9869 -21.0201
L55.114 -20.7966
L55.2446 -20.5783
L55.3788 -20.3654
L55.5167 -20.158
L55.6581 -19.9563
L55.8032 -19.7603
L55.952 -19.5702
L56.1043 -19.386
L56.2603 -19.2079
L56.4198 -19.036
L56.5829 -18.8704
L56.7495 -18.7111
L56.9196 -18.5583
L57.0931 -18.4119
L57.2699 -18.2722
L57.45 -18.1391
L57.6334 -18.0127
L58.2463 -17.8932
L58.5538 -18.1856
L58.8545 -18.5766
L59.1482 -18.9729
L59.4348 -19.3743
L59.7143 -19.7809
L59.9866 -20.1923
L60.2515 -20.6086
L60.5091 -21.0296
L60.7592 -21.4551
L61.0018 -21.8851
L61.2367 -22.3193
L61.464 -22.7577
L61.6835 -23.2002
L61.8952 -23.6466
L62.099 -24.0967
L62.2948 -24.5504
L62.4827 -25.0077
L62.6624 -25.4682
L62.8341 -25.932
L62.9976 -26.3989
L63.1528 -26.8687
L63.2998 -27.3412
L63.4385 -27.8164
L63.5688 -28.2941
L63.6907 -28.7742
L63.8042 -29.2564
L63.9092 -29.7407
L64.0057 -30.2269
L64.0936 -30.7149
L64.1731 -31.2044
L64.2439 -31.6955
L64.3061 -32.1878
L64.3597 -32.6813
L64.4047 -33.1758
L64.441 -33.6712
L64.4687 -34.1673
L64.4876 -34.6639
L64.498 -35.161
L64.4996 -35.6583
L64.4925 -36.1557
L64.4768 -36.6531
L64.4524 -37.1502
L64.4193 -37.647
L64.3776 -38.1434
L64.3272 -38.639
L64.2682 -39.1339
L64.2005 -39.6278
L64.1243 -40.1206
L64.0396 -40.6121
L63.9462 -41.1022
L63.8444 -41.5908
L63.7341 -42.0777
L63.6153 -42.5627
L63.4882 -43.0457
L63.3526 -43.5266
L63.2088 -44.0052
L63.0566 -44.4814
L62.8962 -44.9549
L62.7276 -45.4258
L62.5508 -45.8937
L62.366 -46.3587
L62.1732 -46.8205
L61.9723 -47.279
L61.7636 -47.7341
L61.547 -48.1856
L61.3226 -48.6333
L61.0905 -49.0773
L60.8508 -49.5172
L60.6035 -49.953
L60.3487 -50.3846
L60.0865 -50.8118
L59.817 -51.2345
L59.5402 -51.6526
L59.2562 -52.0658
L58.9651 -52.4742
L58.6671 -52.8776
L58.3621 -53.2758
L58.0503 -53.6688
L57.7319 -54.0564
L57.4068 -54.4384
L57.0751 -54.8149
L56.7371 -55.1856
L56.3927 -55.5505
L56.0421 -55.9095
L55.6855 -56.2623
L55.3228 -56.609
L54.9542 -56.9495
L54.5799 -57.2835
L54.1999 -57.6111
L53.8144 -57.932
L53.4234 -58.2463
L53.0271 -58.5538
L52.6257 -58.8545
L52.2191 -59.1482
L51.8077 -59.4348
L51.3914 -59.7143
L50.9704 -59.9866
L50.5449 -60.2515
L50.1149 -60.5091
L49.6807 -60.7592
L49.2423 -61.0018
L48.7998 -61.2367
L48.3534 -61.464
L47.9033 -61.6835
L47.4496 -61.8952
L46.9923 -62.099
L46.5318 -62.2948
L46.068 -62.4827
L45.6011 -62.6624
L45.1313 -62.8341
L44.6588 -62.9976
L44.1836 -63.1528
L43.7059 -63.2998
L43.2258 -63.4385
L42.7436 -63.5688
L42.2593 -63.6907
z
" id="C0_2_d624d5e40e"/>
    </defs>
    <g clip-path="url(#p1bffca34e9)">
     <use style="fill:#ff0000;stroke:#000000;stroke-width:2.0;" x="0.0" xlink:href="#C0_0_a811fe30f3" y="72.0"/>
    </g>
    <g clip-path="url(#p1bffca34e9)">
     <use style="fill:#ffffff;stroke:#000000;stroke-width:2.0;" x="0.0" xlink:href="#C0_1_ac4184e7f1" y="72.0"/>
    </g>
    <g clip-path="url(#p1bffca34e9)">
     <use style="fill:#ffffff;stroke:#000000;stroke-width:2.0;" x="0.0" xlink:href="#C0_2_d624d5e40e" y="72.0"/>
    </g>
   </g>
  </g>
 </g>
 <defs>
  <clipPath id="p1bffca34e9">
   <rect height="72.0" width="72.0" x="0.0" y="0.0"/>
  </clipPath>
 </defs>
</svg>
