<?xml version="1.0" encoding="utf-8" standalone="no"?>
<!DOCTYPE svg PUBLIC "-//W3C//DTD SVG 1.1//EN"
  "http://www.w3.org/Graphics/SVG/1.1/DTD/svg11.dtd">
<!-- Created with matplotlib (http://matplotlib.org/) -->
<svg height="72pt" version="1.1" viewBox="0 0 72 72" width="72pt" xmlns="http://www.w3.org/2000/svg" xmlns:xlink="http://www.w3.org/1999/xlink">
 <defs>
  <style type="text/css">
*{stroke-linecap:butt;stroke-linejoin:round;}
  </style>
 </defs>
 <g id="figure_1">
  <g id="patch_1">
   <path d="
M0 72
L72 72
L72 0
L0 0
z
" style="fill:none;"/>
  </g>
  <g id="axes_1">
   <g id="PatchCollection_1">
    <defs>
     <path d="
M36 -7.5
C43.5583 -7.5 50.808 -10.5029 56.1525 -15.8475
C61.4971 -21.192 64.5 -28.4417 64.5 -36
C64.5 -43.5583 61.4971 -50.808 56.1525 -56.1525
C50.808 -61.4971 43.5583 -64.5 36 -64.5
C28.4417 -64.5 21.192 -61.4971 15.8475 -56.1525
C10.5029 -50.808 7.5 -43.5583 7.5 -36
C7.5 -28.4417 10.5029 -21.192 15.8475 -15.8475
C21.192 -10.5029 28.4417 -7.5 36 -7.5
z
" id="C0_0_a811fe30f3"/>
     <path d="
M37.4381 -30.5617
L37.6794 -30.6419
L37.9204 -30.7229
L38.1614 -30.8047
L38.4022 -30.8874
L38.6431 -30.9709
L38.884 -31.0554
L39.1249 -31.1407
L39.366 -31.2269
L39.6073 -31.3141
L39.8489 -31.4023
L40.0907 -31.4915
L40.3329 -31.5818
L40.5755 -31.6731
L40.8185 -31.7655
L41.0621 -31.859
L41.3062 -31.9538
L41.5509 -32.0497
L41.7962 -32.1468
L42.0423 -32.2452
L42.2891 -32.3449
L42.5367 -32.446
L42.7852 -32.5484
L43.0345 -32.6523
L43.2848 -32.7576
L43.5361 -32.8645
L43.7883 -32.9729
L44.0417 -33.0829
L44.2961 -33.1945
L44.5516 -33.3079
L44.8084 -33.423
L45.0663 -33.5399
L45.3255 -33.6586
L45.5859 -33.7793
L45.8477 -33.9019
L46.1107 -34.0265
L46.3751 -34.1532
L46.6408 -34.2821
L46.908 -34.4131
L47.1765 -34.5464
L47.4464 -34.682
L47.7176 -34.82
L47.9903 -34.9605
L48.2644 -35.1034
L48.5398 -35.249
L48.8166 -35.3972
L49.0947 -35.5482
L49.3741 -35.702
L49.6548 -35.8586
L49.9366 -36.0182
L50.2196 -36.1809
L50.5037 -36.3466
L50.7888 -36.5156
L51.0748 -36.6878
L51.3616 -36.8635
L51.6491 -37.0425
L51.9372 -37.2251
L52.2257 -37.4114
L52.5145 -37.6013
L52.8033 -37.7951
L53.0921 -37.9928
L53.3805 -38.1945
L53.6684 -38.4003
L53.9554 -38.6103
L54.2414 -38.8246
L54.5259 -39.0434
L54.8086 -39.2668
L55.0892 -39.4949
L55.3671 -39.7278
L55.642 -39.9656
L55.9134 -40.2087
L56.1806 -40.457
L56.4431 -40.7108
L56.7001 -40.9703
L56.951 -41.2358
L57.1949 -41.5074
L57.4308 -41.7855
L57.6577 -42.0702
L57.8746 -42.3621
L58.0802 -42.6613
L58.2732 -42.9683
L58.452 -43.2835
L58.6152 -43.6072
L58.7611 -43.9398
L58.8878 -44.2817
L58.9938 -44.6332
L59.0771 -44.9945
L59.1362 -45.3657
L59.1696 -45.7466
L59.176 -46.137
L59.1546 -46.5363
L59.1048 -46.9438
L59.0266 -47.3585
L58.9201 -47.7791
L58.7862 -48.2044
L58.6257 -48.6328
L58.4401 -49.0629
L58.2306 -49.4933
L57.9988 -49.9224
L57.7463 -50.3491
L57.4747 -50.7719
L57.1855 -51.1898
L56.8802 -51.6018
L56.5602 -52.007
L56.2269 -52.4046
L55.8816 -52.7939
L55.5253 -53.1745
L55.1593 -53.5457
L54.7845 -53.9073
L54.402 -54.2589
L54.0125 -54.6003
L53.617 -54.9313
L53.2161 -55.2518
L52.8107 -55.5616
L52.4014 -55.8607
L51.9888 -56.1493
L51.5735 -56.4272
L51.156 -56.6945
L50.7368 -56.9514
L50.3164 -57.198
L49.8952 -57.4343
L49.4736 -57.6606
L49.052 -57.8769
L48.6306 -58.0836
L48.2098 -58.2807
L47.7899 -58.4685
L47.3711 -58.6471
L46.9536 -58.8168
L46.5377 -58.9778
L46.1235 -59.1302
L45.7111 -59.2743
L45.3009 -59.4103
L44.8928 -59.5385
L44.487 -59.6589
L44.0836 -59.7719
L43.6826 -59.8775
L43.2842 -59.9761
L42.8885 -60.0678
L42.4954 -60.1528
L42.1049 -60.2313
L41.7173 -60.3034
L41.3323 -60.3694
L40.9502 -60.4294
L40.5708 -60.4835
L40.1942 -60.532
L39.8204 -60.5749
L39.4493 -60.6125
L39.0809 -60.6448
L38.7153 -60.672
L38.3523 -60.6942
L37.992 -60.7116
L37.6344 -60.7243
L37.2793 -60.7323
L36.9267 -60.7358
L36.5767 -60.7349
L36.2291 -60.7297
L35.8839 -60.7202
L35.5411 -60.7066
L35.2006 -60.689
L34.8624 -60.6673
L34.5263 -60.6418
L34.1925 -60.6124
L33.8607 -60.5792
L33.5309 -60.5422
L33.2032 -60.5016
L32.8773 -60.4573
L32.5534 -60.4095
L32.2313 -60.3581
L31.9109 -60.3032
L31.5922 -60.2448
L31.2752 -60.1829
L30.9598 -60.1176
L30.646 -60.0489
L30.3336 -59.9768
L30.0226 -59.9013
L29.7131 -59.8224
L29.4049 -59.7401
L29.0979 -59.6545
L28.7922 -59.5654
L28.4876 -59.473
L28.1842 -59.3772
L27.8819 -59.2779
L27.5806 -59.1753
L27.2803 -59.0691
L26.9809 -58.9595
L26.6825 -58.8464
L26.3849 -58.7297
L26.0881 -58.6095
L25.7921 -58.4856
L25.4968 -58.3581
L25.2023 -58.2269
L24.9084 -58.0919
L24.6152 -57.9531
L24.3226 -57.8105
L24.0306 -57.664
L23.7392 -57.5134
L23.4483 -57.3589
L23.1579 -57.2002
L22.8681 -57.0373
L22.5787 -56.8701
L22.2898 -56.6986
L22.0014 -56.5227
L21.7135 -56.3422
L21.4261 -56.1572
L21.1391 -55.9674
L20.8526 -55.7728
L20.5666 -55.5734
L20.2811 -55.3689
L19.9961 -55.1593
L19.7117 -54.9445
L19.4279 -54.7243
L19.1447 -54.4987
L18.8622 -54.2676
L18.5804 -54.0307
L18.2993 -53.788
L18.0191 -53.5394
L17.7398 -53.2847
L17.4615 -53.0239
L17.1842 -52.7567
L16.9081 -52.483
L16.6333 -52.2027
L16.3598 -51.9157
L16.0879 -51.6218
L15.8176 -51.321
L15.549 -51.013
L15.2824 -50.6978
L15.0179 -50.3752
L14.7557 -50.0451
L14.4959 -49.7074
L14.2389 -49.3619
L13.9847 -49.0087
L13.7337 -48.6475
L13.486 -48.2782
L13.242 -47.9009
L13.002 -47.5155
L12.7661 -47.1218
L12.5348 -46.7198
L12.3084 -46.3096
L12.0872 -45.8912
L11.8716 -45.4645
L11.6619 -45.0296
L11.4585 -44.5866
L11.262 -44.1356
L11.0726 -43.6767
L10.8909 -43.2101
L10.7173 -42.7361
L10.5523 -42.2548
L10.3964 -41.7667
L10.2501 -41.272
L10.1139 -40.7712
L9.98843 -40.2648
L9.87418 -39.7534
L9.77174 -39.2376
L9.68169 -38.7181
L9.60462 -38.1958
L9.54115 -37.6716
L9.49188 -37.1465
L9.45743 -36.6218
L9.43843 -36.0988
L9.43548 -35.5788
L9.44921 -35.0635
L9.48019 -34.5546
L9.529 -34.0539
L9.59614 -33.5635
L9.68208 -33.0854
L9.78715 -32.6216
L9.91161 -32.1743
L10.0555 -31.7454
L10.2189 -31.3367
L10.4013 -30.9498
L10.6023 -30.5858
L10.8212 -30.2454
L11.0571 -29.9291
L11.309 -29.6367
L11.5756 -29.3677
L11.8557 -29.1214
L12.1481 -28.8967
L12.4514 -28.6923
L12.7644 -28.5071
L13.086 -28.3396
L13.4149 -28.1885
L13.7504 -28.0526
L14.0913 -27.9308
L14.4368 -27.8218
L14.7862 -27.7246
L15.1388 -27.6384
L15.4939 -27.5623
L15.851 -27.4955
L16.2095 -27.4373
L16.569 -27.387
L16.9291 -27.3442
L17.2893 -27.3082
L17.6494 -27.2785
L18.009 -27.2548
L18.3678 -27.2367
L18.7257 -27.2237
L19.0822 -27.2156
L19.4373 -27.212
L19.7908 -27.2126
L20.1425 -27.2172
L20.4922 -27.2255
L20.8398 -27.2374
L21.1853 -27.2525
L21.5284 -27.2706
L21.8692 -27.2917
L22.2075 -27.3155
L22.5433 -27.3419
L22.8765 -27.3707
L23.2071 -27.4017
L23.5351 -27.4349
L23.8604 -27.4702
L24.183 -27.5073
L24.5029 -27.5462
L24.8202 -27.5869
L25.1348 -27.6292
L25.4467 -27.673
L25.756 -27.7182
L26.0626 -27.7648
L26.3666 -27.8127
L26.6681 -27.8618
L26.967 -27.9121
L27.2634 -27.9636
L27.5574 -28.016
L27.8489 -28.0696
L28.1381 -28.124
L28.4249 -28.1794
L28.7095 -28.2357
L28.9918 -28.2929
L29.272 -28.3509
L29.55 -28.4097
L29.826 -28.4692
L30.1 -28.5295
L30.372 -28.5905
L30.6421 -28.6523
L30.9104 -28.7147
L31.177 -28.7778
L31.4418 -28.8415
L31.7049 -28.9059
L31.9665 -28.9709
L32.2265 -29.0366
L32.4851 -29.1029
L32.7422 -29.1698
L32.998 -29.2373
L33.2524 -29.3054
L33.5057 -29.3742
L33.7578 -29.4435
L34.0087 -29.5135
L34.2586 -29.5841
L34.5075 -29.6553
L34.7555 -29.7272
L35.0026 -29.7996
L35.2489 -29.8728
L35.4944 -29.9465
L35.7392 -30.021
L35.9834 -30.0961
L36.2269 -30.1719
L36.47 -30.2484
L36.7126 -30.3256
L36.9548 -30.4035
z
" id="C0_1_18581174dd"/>
    </defs>
    <g clip-path="url(#p1bffca34e9)">
     <use style="fill:#ffffff;stroke:#000000;stroke-width:2.0;" x="0.0" xlink:href="#C0_0_a811fe30f3" y="72.0"/>
    </g>
    <g clip-path="url(#p1bffca34e9)">
     <use style="fill:#ff0000;stroke:#000000;stroke-width:2.0;" x="0.0" xlink:href="#C0_1_18581174dd" y="72.0"/>
    </g>
   </g>
  </g>
 </g>
 <defs>
  <clipPath id="p1bffca34e9">
   <rect height="72.0" width="72.0" x="0.0" y="0.0"/>
  </clipPath>
 </defs>
</svg>
