<?xml version="1.0" encoding="utf-8" standalone="no"?>
<!DOCTYPE svg PUBLIC "-//W3C//DTD SVG 1.1//EN"
  "http://www.w3.org/Graphics/SVG/1.1/DTD/svg11.dtd">
<!-- Created with matplotlib (http://matplotlib.org/) -->
<svg height="72pt" version="1.1" viewBox="0 0 72 72" width="72pt" xmlns="http://www.w3.org/2000/svg" xmlns:xlink="http://www.w3.org/1999/xlink">
 <defs>
  <style type="text/css">
*{stroke-linecap:butt;stroke-linejoin:round;}
  </style>
 </defs>
 <g id="figure_1">
  <g id="patch_1">
   <path d="
M0 72
L72 72
L72 0
L0 0
z
" style="fill:none;"/>
  </g>
  <g id="axes_1">
   <g id="PatchCollection_1">
    <defs>
     <path d="
M36 -7.5
C43.5583 -7.5 50.808 -10.5029 56.1525 -15.8475
C61.4971 -21.192 64.5 -28.4417 64.5 -36
C64.5 -43.5583 61.4971 -50.808 56.1525 -56.1525
C50.808 -61.4971 43.5583 -64.5 36 -64.5
C28.4417 -64.5 21.192 -61.4971 15.8475 -56.1525
C10.5029 -50.808 7.5 -43.5583 7.5 -36
C7.5 -28.4417 10.5029 -21.192 15.8475 -15.8475
C21.192 -10.5029 28.4417 -7.5 36 -7.5
z
" id="C0_0_a811fe30f3"/>
     <path d="
M61.0164 -49.3496
L60.8495 -49.2139
L60.6822 -49.0795
L60.5147 -48.9462
L60.3469 -48.8141
L60.1789 -48.683
L60.0107 -48.553
L59.8423 -48.4239
L59.6737 -48.2958
L59.5049 -48.1686
L59.3359 -48.0423
L59.1667 -47.9168
L58.9973 -47.7921
L58.8277 -47.6682
L58.6578 -47.5449
L58.4878 -47.4224
L58.3174 -47.3004
L58.1468 -47.1791
L57.976 -47.0583
L57.8048 -46.9381
L57.6333 -46.8183
L57.4615 -46.699
L57.2892 -46.5801
L57.1166 -46.4616
L56.9436 -46.3435
L56.7701 -46.2257
L56.5961 -46.1082
L56.4216 -45.9909
L56.2466 -45.8738
L56.071 -45.757
L55.8948 -45.6402
L55.7179 -45.5237
L55.5403 -45.4072
L55.362 -45.2907
L55.183 -45.1743
L54.8224 -45.0579
L54.6408 -44.9414
L54.4583 -44.8249
L54.2748 -44.7083
L54.0903 -44.5916
L53.9048 -44.4746
L53.7181 -44.3575
L53.5302 -44.2402
L53.3411 -44.1226
L53.1508 -44.0047
L52.9592 -43.8865
L52.7662 -43.7679
L52.5717 -43.649
L52.3758 -43.5296
L52.1784 -43.4098
L51.9794 -43.2895
L51.7787 -43.1687
L51.5763 -43.0473
L51.3722 -42.9254
L51.1662 -42.8028
L50.9583 -42.6796
L50.7485 -42.5558
L50.5366 -42.4312
L50.3227 -42.3059
L50.1066 -42.1798
L49.8883 -42.0529
L49.6677 -41.9252
L49.4448 -41.7966
L49.2194 -41.6671
L48.9915 -41.5367
L48.7611 -41.4053
L48.528 -41.273
L48.2921 -41.1396
L48.0535 -41.0052
L47.8121 -40.8697
L47.5676 -40.733
L47.3202 -40.5953
L47.0697 -40.4564
L46.816 -40.3163
L46.559 -40.175
L46.2988 -40.0325
L46.0351 -39.8887
L45.768 -39.7436
L45.4974 -39.5973
L45.2232 -39.4496
L44.9453 -39.3007
L44.6636 -39.1504
L44.3782 -38.9987
L44.0889 -38.8458
L43.7957 -38.6915
L43.4985 -38.5359
L43.1973 -38.3789
L42.892 -38.2207
L42.5827 -38.0612
L42.2691 -37.9004
L41.9515 -37.7384
L41.6296 -37.5752
L41.3036 -37.4109
L40.9733 -37.2455
L40.6389 -37.0791
L40.3003 -36.9118
L39.9576 -36.7437
L39.6107 -36.5749
L39.2598 -36.4055
L38.905 -36.2357
L38.5462 -36.0656
L38.1837 -35.8955
L37.8175 -35.7254
L37.4477 -35.5558
L37.0746 -35.3868
L36.6984 -35.2187
L36.3192 -35.052
L35.9372 -34.8871
L35.5529 -34.7244
L35.1664 -34.5644
L34.7781 -34.4079
L34.3886 -34.2554
L33.9981 -34.1079
L33.6072 -33.9663
L33.2164 -33.8317
L32.8266 -33.7053
L32.4382 -33.5888
L32.0523 -33.4837
L31.6697 -33.3921
L31.2913 -33.3162
L30.9184 -33.2583
L30.5519 -33.2211
L30.1931 -33.2073
L29.8431 -33.2196
L29.5027 -33.2604
L29.173 -33.3317
L28.8543 -33.4348
L28.547 -33.57
L28.2511 -33.737
L27.9665 -33.9344
L27.6927 -34.16
L27.4294 -34.4115
L27.176 -34.6861
L26.9321 -34.9809
L26.697 -35.2932
L26.4705 -35.6205
L26.252 -35.9604
L26.0413 -36.3108
L25.838 -36.67
L25.6418 -37.0363
L25.4525 -37.4082
L25.2698 -37.7847
L25.0937 -38.1645
L24.9239 -38.5467
L24.7602 -38.9307
L24.6026 -39.3155
L24.4508 -39.7006
L24.3048 -40.0855
L24.1644 -40.4696
L24.0295 -40.8525
L23.9 -41.2339
L23.7757 -41.6134
L23.6566 -41.9908
L23.5425 -42.3657
L23.4333 -42.738
L23.3289 -43.1075
L23.2292 -43.4739
L23.134 -43.8373
L23.0434 -44.1974
L22.9571 -44.5541
L22.8751 -44.9074
L22.7972 -45.2573
L22.7234 -45.6036
L22.6535 -45.9463
L22.5875 -46.2854
L22.5252 -46.6209
L22.4666 -46.9527
L22.4116 -47.281
L22.36 -47.6057
L22.3119 -47.9268
L22.267 -48.2443
L22.2254 -48.5583
L22.1869 -48.8688
L22.1515 -49.176
L22.1191 -49.4797
L22.0896 -49.7801
L22.0629 -50.0772
L22.0391 -50.3711
L22.018 -50.6618
L21.9995 -50.9494
L21.9837 -51.234
L21.9704 -51.5157
L21.9597 -51.7944
L21.9513 -52.0703
L21.9454 -52.3434
L21.9419 -52.6138
L21.9407 -52.8816
L21.9418 -53.1469
L21.9452 -53.4096
L21.9508 -53.67
L21.9586 -53.928
L21.9686 -54.1837
L21.9807 -54.4372
L21.9949 -54.6886
L22.0113 -54.9379
L22.0297 -55.1852
L22.0503 -55.4305
L22.0729 -55.674
L22.0975 -55.9157
L22.1242 -56.1557
L22.153 -56.3939
L22.1838 -56.6306
L22.2167 -56.8658
L22.2517 -57.0994
L22.2887 -57.3316
L22.3278 -57.5625
L22.3689 -57.7921
L22.4122 -58.0204
L22.4576 -58.2476
L22.5052 -58.4736
L22.5549 -58.6985
L22.6068 -58.9225
L22.661 -59.1455
L22.7174 -59.3675
L22.7761 -59.5888
L22.8371 -59.8092
L22.9005 -60.0289
L22.9663 -60.2478
L23.0346 -60.4661
L23.1055 -60.6838
L23.1789 -60.901
L23.2549 -61.1176
L23.6379 -61.3338
L24.0879 -61.6793
L24.5416 -61.8912
L24.9988 -62.0951
L25.4593 -62.2911
L25.923 -62.4791
L26.3898 -62.659
L26.8595 -62.8308
L27.332 -62.9945
L27.8072 -63.1499
L28.2848 -63.297
L28.7648 -63.4359
L29.247 -63.5663
L29.7313 -63.6884
L30.2175 -63.802
L30.7054 -63.9072
L31.1949 -64.0039
L31.6859 -64.092
L32.1783 -64.1716
L32.6717 -64.2426
L33.1662 -64.305
L33.6616 -64.3588
L34.1577 -64.4039
L34.6543 -64.4404
L35.1513 -64.4682
L35.6487 -64.4874
L36.1461 -64.4978
L36.6434 -64.4996
L37.1406 -64.4927
L37.6374 -64.4772
L38.1337 -64.4529
L38.6294 -64.42
L39.1243 -64.3784
L39.6182 -64.3282
L40.111 -64.2694
L40.6026 -64.2019
L41.0928 -64.1259
L41.5814 -64.0413
L42.0683 -63.9481
L42.5533 -63.8465
L43.0364 -63.7363
L43.5173 -63.6177
L43.996 -63.4907
L44.4722 -63.3553
L44.9458 -63.2116
L45.4167 -63.0596
L45.8847 -62.8994
L46.3497 -62.7309
L46.8116 -62.5543
L47.2701 -62.3697
L47.7253 -62.177
L48.1768 -61.9763
L48.6247 -61.7677
L49.0687 -61.5513
L49.5087 -61.327
L49.9446 -61.0951
L50.3763 -60.8555
L50.8036 -60.6084
L51.2264 -60.3537
L51.6445 -60.0917
L52.0579 -59.8222
L52.4664 -59.5456
L52.8698 -59.2617
L53.2682 -58.9708
L53.6612 -58.6729
L54.0489 -58.3681
L54.4311 -58.0564
L54.8077 -57.7381
L55.1785 -57.4131
L55.5435 -57.0816
L55.9026 -56.7437
L56.2556 -56.3995
L56.6024 -56.049
L56.9429 -55.6924
L57.2771 -55.3299
L57.6048 -54.9614
L57.9259 -54.5872
L58.2403 -54.2073
L58.5479 -53.8219
L58.8487 -53.431
L59.1425 -53.0349
L59.4293 -52.6335
L59.7089 -52.2271
L59.9813 -51.8157
L60.2465 -51.3995
L60.5042 -50.9786
L60.7544 -50.5532
z
" id="C0_1_120e3fe490"/>
     <path d="
M48.6513 -10.4808
L48.4315 -10.5491
L48.2119 -10.6198
L47.9925 -10.6932
L47.7732 -10.7691
L47.5539 -10.8475
L47.3346 -10.9285
L47.1153 -11.0122
L46.8958 -11.0984
L46.6761 -11.1873
L46.4561 -11.2789
L46.2359 -11.3732
L46.0153 -11.4703
L45.7942 -11.5701
L45.5727 -11.6727
L45.3506 -11.7782
L45.128 -11.8866
L44.9047 -11.9979
L44.6807 -12.1122
L44.4559 -12.2296
L44.2303 -12.3501
L44.0039 -12.4737
L43.7766 -12.6005
L43.5483 -12.7306
L43.3189 -12.8641
L43.0886 -13.0009
L42.8571 -13.1412
L42.6245 -13.2851
L42.3907 -13.4326
L42.1556 -13.5837
L41.9193 -13.7386
L41.6816 -13.8973
L41.4426 -14.0599
L41.2022 -14.2265
L40.9604 -14.3972
L40.7171 -14.572
L40.4723 -14.751
L40.226 -14.9343
L39.9781 -15.122
L39.7287 -15.3141
L39.4776 -15.5108
L39.225 -15.712
L38.9707 -15.9179
L38.7148 -16.1286
L38.4573 -16.3441
L38.1981 -16.5645
L37.9373 -16.7897
L37.6749 -17.02
L37.4108 -17.2553
L37.1451 -17.4956
L36.8779 -17.741
L36.6091 -17.9915
L36.3387 -18.247
L36.0668 -18.5077
L35.7935 -18.7734
L35.5188 -19.0441
L35.2426 -19.3197
L34.9652 -19.6002
L34.6864 -19.8854
L34.4065 -20.1751
L34.1254 -20.4693
L33.8431 -20.7676
L33.5598 -21.0698
L33.2755 -21.3756
L32.9902 -21.6846
L32.704 -21.9964
L32.4169 -22.3104
L32.129 -22.626
L31.8401 -22.9426
L31.5502 -23.2592
L31.2594 -23.5749
L30.9674 -23.8885
L30.6742 -24.1988
L30.3794 -24.5041
L30.0829 -24.8028
L29.7842 -25.0928
L29.4829 -25.3717
L29.1785 -25.6371
L28.8704 -25.8863
L28.558 -26.1163
L28.2405 -26.3244
L27.9174 -26.5081
L27.5882 -26.6651
L27.2526 -26.7941
L26.9105 -26.8945
L26.5619 -26.9665
L26.2075 -27.0114
L25.8477 -27.0309
L25.4833 -27.0274
L25.1153 -27.0034
L24.7444 -26.9616
L24.3716 -26.9045
L23.9977 -26.8345
L23.6235 -26.7536
L23.2496 -26.6637
L22.8767 -26.5665
L22.5052 -26.4634
L22.1358 -26.3556
L21.7689 -26.2442
L21.4047 -26.13
L21.0437 -26.0137
L20.6862 -25.8961
L20.3323 -25.7776
L19.9824 -25.6589
L19.6365 -25.5401
L19.2949 -25.4218
L18.9576 -25.3041
L18.6249 -25.1874
L18.2967 -25.0718
L17.9731 -24.9575
L17.6543 -24.8447
L17.3401 -24.7335
L17.0308 -24.624
L16.7262 -24.5163
L16.4263 -24.4104
L16.1312 -24.3064
L15.8408 -24.2044
L15.5551 -24.1044
L15.274 -24.0063
L14.9976 -23.9103
L14.7256 -23.8163
L14.4582 -23.7243
L14.1952 -23.6344
L13.9366 -23.5464
L13.6822 -23.4605
L13.4321 -23.3765
L13.186 -23.2945
L12.9441 -23.2144
L12.7061 -23.1363
L12.472 -23.06
L12.2417 -22.9857
L12.0152 -22.9131
L11.7922 -22.8424
L11.5729 -22.7734
L11.357 -22.7062
L11.1444 -22.6407
L11.1146 -22.5768
L11.3609 -22.1087
L11.6146 -21.6765
L11.8758 -21.2487
L12.1443 -20.8253
L12.42 -20.4066
L12.703 -19.9926
L12.993 -19.5836
L13.2901 -19.1795
L13.5941 -18.7805
L13.9049 -18.3868
L14.2224 -17.9984
L14.5466 -17.6156
L14.8773 -17.2383
L15.2144 -16.8667
L15.5579 -16.501
L15.9076 -16.1412
L16.2634 -15.7875
L16.6253 -15.4399
L16.993 -15.0986
L17.3665 -14.7636
L17.7457 -14.4351
L18.1305 -14.1132
L18.5207 -13.798
L18.9162 -13.4895
L19.3169 -13.1879
L19.7227 -12.8932
L20.1335 -12.6055
L20.5491 -12.325
L20.9694 -12.0517
L21.3943 -11.7857
L21.8236 -11.5271
L22.2573 -11.2759
L22.6951 -11.0323
L23.137 -10.7962
L23.5828 -10.5679
L24.0324 -10.3472
L24.4857 -10.1344
L24.9424 -9.92952
L25.4025 -9.73254
L25.8659 -9.54356
L26.3323 -9.36263
L26.8017 -9.18983
L27.2738 -9.02518
L27.7487 -8.86876
L28.226 -8.7206
L28.7057 -8.58075
L29.1877 -8.44925
L29.6717 -8.32614
L30.1576 -8.21147
L30.6454 -8.10526
L31.1347 -8.00754
L31.6255 -7.91835
L32.1177 -7.83772
L32.6111 -7.76566
L33.1054 -7.70221
L33.6007 -7.64737
L34.0967 -7.60117
L34.5933 -7.56363
L35.0903 -7.53474
L35.5875 -7.51452
L36.0849 -7.50298
L36.5823 -7.50013
L37.0795 -7.50595
L37.5764 -7.52045
L38.0728 -7.54363
L38.5686 -7.57548
L39.0635 -7.61598
L39.5576 -7.66513
L40.0505 -7.72291
L40.5423 -7.78931
L41.0326 -7.8643
L41.5214 -7.94785
L42.0085 -8.03996
L42.4938 -8.14058
L42.9772 -8.24969
L43.4584 -8.36725
L43.9373 -8.49322
L44.4138 -8.62758
L44.8877 -8.77027
L45.359 -8.92126
L45.8274 -9.0805
L46.2927 -9.24793
L46.755 -9.42352
L47.214 -9.6072
L47.6695 -9.79892
L48.1216 -9.99862
z
" id="C0_2_f5851a4588"/>
    </defs>
    <g clip-path="url(#p1bffca34e9)">
     <use style="fill:#ff0000;stroke:#000000;stroke-width:2.0;" x="0.0" xlink:href="#C0_0_a811fe30f3" y="72.0"/>
    </g>
    <g clip-path="url(#p1bffca34e9)">
     <use style="fill:#ffffff;stroke:#000000;stroke-width:2.0;" x="0.0" xlink:href="#C0_1_120e3fe490" y="72.0"/>
    </g>
    <g clip-path="url(#p1bffca34e9)">
     <use style="fill:#ffffff;stroke:#000000;stroke-width:2.0;" x="0.0" xlink:href="#C0_2_f5851a4588" y="72.0"/>
    </g>
   </g>
  </g>
 </g>
 <defs>
  <clipPath id="p1bffca34e9">
   <rect height="72.0" width="72.0" x="0.0" y="0.0"/>
  </clipPath>
 </defs>
</svg>
