<?xml version="1.0" encoding="utf-8" standalone="no"?>
<!DOCTYPE svg PUBLIC "-//W3C//DTD SVG 1.1//EN"
  "http://www.w3.org/Graphics/SVG/1.1/DTD/svg11.dtd">
<!-- Created with matplotlib (http://matplotlib.org/) -->
<svg height="72pt" version="1.1" viewBox="0 0 72 72" width="72pt" xmlns="http://www.w3.org/2000/svg" xmlns:xlink="http://www.w3.org/1999/xlink">
 <defs>
  <style type="text/css">
*{stroke-linecap:butt;stroke-linejoin:round;}
  </style>
 </defs>
 <g id="figure_1">
  <g id="patch_1">
   <path d="
M0 72
L72 72
L72 0
L0 0
z
" style="fill:none;"/>
  </g>
  <g id="axes_1">
   <g id="PatchCollection_1">
    <defs>
     <path d="
M36 -7.5
C43.5583 -7.5 50.808 -10.5029 56.1525 -15.8475
C61.4971 -21.192 64.5 -28.4417 64.5 -36
C64.5 -43.5583 61.4971 -50.808 56.1525 -56.1525
C50.808 -61.4971 43.5583 -64.5 36 -64.5
C28.4417 -64.5 21.192 -61.4971 15.8475 -56.1525
C10.5029 -50.808 7.5 -43.5583 7.5 -36
C7.5 -28.4417 10.5029 -21.192 15.8475 -15.8475
C21.192 -10.5029 28.4417 -7.5 36 -7.5
z
" id="C0_0_a811fe30f3"/>
     <path d="
M18.2497 -58.1051
L18.574 -58.0936
L18.8836 -58.0606
L19.1778 -58.0064
L19.4562 -57.9311
L19.7185 -57.8352
L19.9645 -57.7191
L20.1945 -57.5836
L20.4088 -57.4294
L20.6078 -57.2574
L20.7923 -57.0686
L20.9631 -56.8639
L21.121 -56.6445
L21.267 -56.4115
L21.4021 -56.1658
L21.5273 -55.9087
L21.6436 -55.6412
L21.7519 -55.3642
L21.8531 -55.0787
L21.948 -54.7857
L22.0376 -54.486
L22.1224 -54.1804
L22.2031 -53.8696
L22.2804 -53.5544
L22.3548 -53.2353
L22.4266 -52.9131
L22.4965 -52.5881
L22.5647 -52.261
L22.6316 -51.9322
L22.6974 -51.6021
L22.7625 -51.2711
L22.827 -50.9395
L22.8911 -50.6077
L22.9551 -50.276
L23.0189 -49.9446
L23.0828 -49.6137
L23.1469 -49.2836
L23.2112 -48.9545
L23.2758 -48.6266
L23.3408 -48.2999
L23.4062 -47.9747
L23.472 -47.6511
L23.5383 -47.3291
L23.6051 -47.0089
L23.6724 -46.6906
L23.7403 -46.3741
L23.8087 -46.0596
L23.8777 -45.7472
L23.9472 -45.4368
L24.0172 -45.1285
L24.0878 -44.8223
L24.159 -44.5183
L24.2307 -44.2164
L24.3029 -43.9166
L24.3756 -43.619
L24.4489 -43.3235
L24.5226 -43.0302
L24.5969 -42.7389
L24.6716 -42.4497
L24.7469 -42.1626
L24.8226 -41.8775
L24.8988 -41.5944
L24.9755 -41.3133
L25.0527 -41.0341
L25.1303 -40.7568
L25.2083 -40.4813
L25.2869 -40.2077
L25.3659 -39.9358
L25.4453 -39.6656
L25.5252 -39.3972
L25.6056 -39.1303
L25.6864 -38.865
L25.7677 -38.6013
L25.8494 -38.339
L25.9316 -38.0782
L26.0143 -37.8188
L26.0974 -37.5606
L26.1811 -37.3038
L26.2652 -37.0482
L26.3498 -36.7937
L26.435 -36.5404
L26.5206 -36.2882
L26.6068 -36.0369
L26.6935 -35.7866
L26.7807 -35.5373
L26.8686 -35.2888
L26.9569 -35.0411
L27.0459 -34.7941
L27.1355 -34.5479
L27.2257 -34.3023
L27.3165 -34.0573
L27.408 -33.8128
L27.5001 -33.5688
L27.5929 -33.3253
L27.7806 -33.0821
L27.8756 -32.8393
L27.9713 -32.5968
L28.0678 -32.3545
L28.1651 -32.1124
L28.2632 -31.8705
L28.3622 -31.6286
L28.462 -31.3867
L28.5628 -31.1449
L28.6644 -30.9029
L28.767 -30.6609
L28.8705 -30.4187
L28.9751 -30.1763
L29.0806 -29.9336
L29.1873 -29.6907
L29.2949 -29.4474
L29.4037 -29.2036
L29.5137 -28.9595
L29.6247 -28.7149
L29.737 -28.4697
L29.8505 -28.2239
L29.9652 -27.9776
L30.0813 -27.7306
L30.1986 -27.4829
L30.3173 -27.2344
L30.4374 -26.9852
L30.5588 -26.7351
L30.6818 -26.4842
L30.8061 -26.2324
L30.932 -25.9796
L31.0594 -25.7259
L31.1884 -25.4712
L31.319 -25.2155
L31.4512 -24.9587
L31.585 -24.7008
L31.7205 -24.4419
L31.8578 -24.1818
L31.9967 -23.9205
L32.1374 -23.6581
L32.2799 -23.3944
L32.4242 -23.1296
L32.5703 -22.8636
L32.7182 -22.5963
L32.868 -22.3278
L33.0196 -22.0581
L33.173 -21.7872
L33.3283 -21.515
L33.4854 -21.2417
L33.6444 -20.9671
L33.8051 -20.6914
L33.9676 -20.4145
L34.1319 -20.1365
L34.2978 -19.8574
L34.4654 -19.5772
L34.6345 -19.296
L34.8052 -19.0139
L34.9772 -18.7308
L35.1505 -18.4469
L35.3249 -18.1622
L35.5004 -17.8768
L35.6767 -17.5907
L35.8536 -17.3041
L36.031 -17.0169
L36.2085 -16.7294
L36.3859 -16.4416
L36.5629 -16.1536
L36.7391 -15.8656
L36.9141 -15.5775
L37.0875 -15.2896
L37.2588 -15.0019
L37.4274 -14.7146
L37.5926 -14.4277
L37.754 -14.1414
L37.9105 -13.8559
L38.0615 -13.5711
L38.2061 -13.2873
L38.3432 -13.0045
L38.4718 -12.7228
L38.5906 -12.4424
L38.6986 -12.1634
L38.7943 -11.8857
L38.8764 -11.6097
L38.9434 -11.3353
L38.994 -11.0626
L39.0265 -10.7918
L39.0397 -10.523
L39.0321 -10.2564
L39.0025 -9.99211
L38.9496 -9.73039
L38.8726 -9.47149
L38.7706 -9.2157
L38.6431 -8.96337
L38.4899 -8.71488
L38.3108 -8.47068
L38.106 -8.23124
L37.876 -7.99707
L37.6213 -7.76871
L37.1245 -7.54673
L36.6273 -7.52219
L36.1299 -7.5069
L35.6325 -7.5003
L35.1352 -7.50237
L34.6382 -7.51312
L34.1416 -7.53255
L33.6455 -7.56066
L33.1502 -7.59742
L32.6557 -7.64284
L32.1623 -7.69689
L31.67 -7.75957
L31.179 -7.83085
L30.6896 -7.91071
L30.2017 -7.99912
L29.7156 -8.09607
L29.2314 -8.20151
L28.7492 -8.31542
L28.2693 -8.43777
L27.7918 -8.56851
L27.3167 -8.70761
L26.8443 -8.85502
L26.3746 -9.0107
L25.9079 -9.1746
L25.4443 -9.34667
L24.9839 -9.52686
L24.5268 -9.71511
L24.0733 -9.91137
L23.6233 -10.1156
L23.1772 -10.3277
L22.7349 -10.5476
L22.2967 -10.7753
L21.8627 -11.0106
L21.4329 -11.2536
L21.0077 -11.5041
L20.5869 -11.762
L20.1709 -12.0274
L19.7597 -12.3
L19.3534 -12.5799
L18.9522 -12.8669
L18.5562 -13.1609
L18.1655 -13.4619
L17.7803 -13.7698
L17.4006 -14.0844
L17.0265 -14.4058
L16.6583 -14.7336
L16.2959 -15.068
L15.9395 -15.4088
L15.5893 -15.7558
L15.2453 -16.109
L14.9075 -16.4682
L14.5762 -16.8334
L14.2515 -17.2044
L13.9333 -17.5812
L13.6219 -17.9636
L13.3173 -18.3514
L13.0196 -18.7447
L12.7289 -19.1432
L12.4453 -19.5468
L12.1689 -19.9554
L11.8997 -20.369
L11.6379 -20.7873
L11.3835 -21.2102
L11.1366 -21.6376
L10.8973 -22.0694
L10.6656 -22.5055
L10.4416 -22.9456
L10.2254 -23.3898
L10.0171 -23.8377
L9.81666 -24.2894
L9.62421 -24.7447
L9.4398 -25.2033
L9.26348 -25.6653
L9.0953 -26.1304
L8.93532 -26.5985
L8.78359 -27.0695
L8.64014 -27.5432
L8.50503 -28.0195
L8.37829 -28.4982
L8.25997 -28.9792
L8.1501 -29.4624
L8.04871 -29.9475
L7.95583 -30.4344
L7.8715 -30.9231
L7.79574 -31.4133
L7.72856 -31.9049
L7.67 -32.3978
L7.62007 -32.8917
L7.57878 -33.3866
L7.54615 -33.8823
L7.52219 -34.3787
L7.5069 -34.8755
L7.5003 -35.3727
L7.50237 -35.8701
L7.51312 -36.3675
L7.53255 -36.8648
L7.56066 -37.3618
L7.59742 -37.8584
L7.64284 -38.3545
L7.69689 -38.8498
L7.75957 -39.3443
L7.83085 -39.8377
L7.91071 -40.33
L7.99912 -40.821
L8.09607 -41.3104
L8.20151 -41.7983
L8.31542 -42.2844
L8.43777 -42.7686
L8.56851 -43.2508
L8.70761 -43.7307
L8.85502 -44.2082
L9.0107 -44.6833
L9.1746 -45.1557
L9.34667 -45.6254
L9.52686 -46.0921
L9.71511 -46.5557
L9.91137 -47.0161
L10.1156 -47.4732
L10.3277 -47.9267
L10.5476 -48.3767
L10.7753 -48.8228
L11.0106 -49.2651
L11.2536 -49.7033
L11.5041 -50.1373
L11.762 -50.5671
L12.0274 -50.9923
L12.3 -51.4131
L12.5799 -51.8291
L12.8669 -52.2403
L13.1609 -52.6466
L13.4619 -53.0478
L13.7698 -53.4438
L14.0844 -53.8345
L14.4058 -54.2197
L14.7336 -54.5994
L15.068 -54.9735
L15.4088 -55.3417
L15.7558 -55.7041
L16.109 -56.0605
L16.4682 -56.4107
L16.8334 -56.7547
L17.2044 -57.0925
L17.5812 -57.4238
z
" id="C0_1_c78c0df634"/>
     <path d="
M34.676 -64.2679
L34.9873 -64.0816
L35.311 -63.8951
L35.6458 -63.7079
L35.99 -63.5195
L36.3424 -63.3295
L36.7016 -63.1376
L37.0662 -62.9433
L37.4352 -62.7466
L37.8075 -62.5471
L38.182 -62.3446
L38.5578 -62.1391
L38.9341 -61.9305
L39.31 -61.7187
L39.685 -61.5038
L40.0584 -61.2856
L40.4296 -61.0643
L40.7982 -60.84
L41.1637 -60.6126
L41.5257 -60.3824
L41.8839 -60.1494
L42.2381 -59.9137
L42.5878 -59.6754
L42.933 -59.4348
L43.2735 -59.1919
L43.609 -58.9468
L43.9396 -58.6997
L44.265 -58.4507
L44.5852 -58.2
L44.9001 -57.9477
L45.2098 -57.6938
L45.5142 -57.4386
L45.8132 -57.1821
L46.1069 -56.9245
L46.3953 -56.6658
L46.6785 -56.4062
L46.9564 -56.1457
L47.2291 -55.8845
L47.4967 -55.6226
L47.7592 -55.3601
L48.0167 -55.097
L48.2693 -54.8335
L48.517 -54.5696
L48.7598 -54.3053
L48.998 -54.0407
L49.2315 -53.7759
L49.4604 -53.5108
L49.6849 -53.2456
L49.9049 -52.9802
L50.1207 -52.7147
L50.3321 -52.449
L50.5395 -52.1833
L50.7427 -51.9175
L50.942 -51.6517
L51.1373 -51.3858
L51.3288 -51.1198
L51.5165 -50.8538
L51.7006 -50.5877
L51.881 -50.3215
L52.0579 -50.0553
L52.2313 -49.789
L52.4014 -49.5225
L52.5681 -49.256
L52.7315 -48.9893
L52.8918 -48.7225
L53.0489 -48.4554
L53.2029 -48.1882
L53.3539 -47.9207
L53.5019 -47.653
L53.6471 -47.385
L53.7893 -47.1166
L53.9288 -46.8479
L54.0655 -46.5788
L54.1995 -46.3092
L54.3308 -46.0392
L54.4594 -45.7686
L54.5855 -45.4975
L54.709 -45.2259
L54.8299 -44.9535
L54.9484 -44.6805
L55.0644 -44.4068
L55.178 -44.1322
L55.2892 -43.8569
L55.3979 -43.5807
L55.5043 -43.3035
L55.6084 -43.0254
L55.7101 -42.7463
L55.8095 -42.4661
L55.9066 -42.1847
L56.0013 -41.9022
L56.0938 -41.6185
L56.184 -41.3334
L56.2719 -41.047
L56.3575 -40.7592
L56.4408 -40.47
L56.5218 -40.1792
L56.6006 -39.8869
L56.677 -39.5929
L56.751 -39.2973
L56.8227 -38.9999
L56.8921 -38.7007
L56.9591 -38.3996
L57.0236 -38.0966
L57.0858 -37.7916
L57.1454 -37.4846
L57.2026 -37.1754
L57.2572 -36.8641
L57.3093 -36.5506
L57.3587 -36.2348
L57.4055 -35.9167
L57.4496 -35.5962
L57.4909 -35.2732
L57.5295 -34.9478
L57.5651 -34.6198
L57.5979 -34.2892
L57.6276 -33.9559
L57.6543 -33.62
L57.6779 -33.2813
L57.6983 -32.9398
L57.7154 -32.5955
L57.7291 -32.2484
L57.7395 -31.8983
L57.7463 -31.5453
L57.7496 -31.1894
L57.7491 -30.8305
L57.7449 -30.4686
L57.7368 -30.1037
L57.7248 -29.7359
L57.7087 -29.365
L57.6885 -28.9911
L57.6641 -28.6143
L57.6353 -28.2346
L57.6021 -27.8519
L57.5643 -27.4664
L57.522 -27.078
L57.475 -26.687
L57.4232 -26.2932
L57.3666 -25.8969
L57.3051 -25.4981
L57.2387 -25.097
L57.1672 -24.6936
L57.0907 -24.2882
L57.0092 -23.8808
L56.9226 -23.4717
L56.831 -23.0611
L56.7344 -22.6492
L56.6329 -22.2362
L56.5266 -21.8225
L56.4156 -21.4081
L56.3001 -20.9936
L56.1804 -20.5792
L56.0566 -20.1653
L55.9292 -19.7522
L55.7984 -19.3403
L55.6648 -18.9301
L55.5288 -18.5221
L55.3911 -18.1166
L55.2523 -17.7143
L55.1132 -17.3156
L54.9746 -16.9212
L54.8375 -16.5315
L54.703 -16.1473
L54.5721 -15.769
L54.4462 -15.3974
L54.3265 -15.033
L54.2143 -14.6766
L54.1112 -14.3287
L54.4357 -13.9901
L54.8122 -14.2658
L55.183 -14.5909
L55.5479 -14.9224
L55.9069 -15.2604
L56.2598 -15.6048
L56.6065 -15.9553
L56.947 -16.3119
L57.2811 -16.6746
L57.6087 -17.0431
L57.9297 -17.4174
L58.2441 -17.7973
L58.5516 -18.1828
L58.8523 -18.5738
L59.1461 -18.97
L59.4327 -19.3714
L59.7123 -19.7779
L59.9846 -20.1893
L60.2496 -20.6056
L60.5073 -21.0265
L60.7574 -21.452
L61 -21.8819
L61.2351 -22.3162
L61.4624 -22.7545
L61.6819 -23.197
L61.8937 -23.6433
L62.0975 -24.0934
L62.2934 -24.5471
L62.4813 -25.0043
L62.6612 -25.4649
L62.8329 -25.9287
L62.9964 -26.3955
L63.1517 -26.8653
L63.2988 -27.3378
L63.4375 -27.813
L63.5679 -28.2907
L63.6898 -28.7707
L63.8034 -29.2529
L63.9084 -29.7372
L64.005 -30.2234
L64.093 -30.7113
L64.1725 -31.2009
L64.2434 -31.6919
L64.3057 -32.1842
L64.3594 -32.6777
L64.4044 -33.1722
L64.4408 -33.6676
L64.4685 -34.1637
L64.4875 -34.6603
L64.4979 -35.1574
L64.4996 -35.6547
L64.4926 -36.1521
L64.4769 -36.6495
L64.4526 -37.1466
L64.4196 -37.6434
L64.3779 -38.1398
L64.3276 -38.6354
L64.2686 -39.1303
L64.2011 -39.6242
L64.1249 -40.117
L64.0402 -40.6085
L63.947 -41.0987
L63.8452 -41.5873
L63.7349 -42.0742
L63.6162 -42.5592
L63.4891 -43.0423
L63.3536 -43.5232
L63.2098 -44.0018
L63.0577 -44.4779
L62.8974 -44.9515
L62.7288 -45.4224
L62.5522 -45.8904
L62.3674 -46.3553
L62.1746 -46.8172
L61.9738 -47.2757
L61.7651 -47.7308
L61.5486 -48.1823
L61.3243 -48.6301
L61.0922 -49.0741
L60.8526 -49.514
L60.6053 -49.9499
L60.3506 -50.3815
L60.0884 -50.8088
L59.8189 -51.2315
L59.5422 -51.6496
L59.2583 -52.0629
L58.9673 -52.4713
L58.6693 -52.8747
L58.3643 -53.273
L58.0526 -53.666
L57.7342 -54.0536
L57.4091 -54.4357
L57.0776 -54.8122
L56.7396 -55.183
L56.3952 -55.5479
L56.0447 -55.9069
L55.6881 -56.2598
L55.3254 -56.6065
L54.9569 -56.947
L54.5826 -57.2811
L54.2027 -57.6087
L53.8172 -57.9297
L53.4262 -58.2441
L53.03 -58.5516
L52.6286 -58.8523
L52.2221 -59.1461
L51.8107 -59.4327
L51.3944 -59.7123
L50.9735 -59.9846
L50.548 -60.2496
L50.1181 -60.5073
L49.6838 -60.7574
L49.2455 -61
L48.803 -61.2351
L48.3567 -61.4624
L47.9066 -61.6819
L47.4529 -61.8937
L46.9957 -62.0975
L46.5351 -62.2934
L46.0713 -62.4813
L45.6045 -62.6612
L45.1347 -62.8329
L44.6622 -62.9964
L44.187 -63.1517
L43.7093 -63.2988
L43.2293 -63.4375
L42.7471 -63.5679
L42.2628 -63.6898
L41.7766 -63.8034
L41.2887 -63.9084
L40.7991 -64.005
L40.3081 -64.093
L39.8158 -64.1725
L39.3223 -64.2434
L38.8278 -64.3057
L38.3324 -64.3594
L37.8363 -64.4044
L37.3397 -64.4408
L36.8426 -64.4685
L36.3453 -64.4875
L35.8479 -64.4979
L35.3505 -64.4996
z
" id="C0_2_978fd17df0"/>
    </defs>
    <g clip-path="url(#p1bffca34e9)">
     <use style="fill:#ff0000;stroke:#000000;stroke-width:2.0;" x="0.0" xlink:href="#C0_0_a811fe30f3" y="72.0"/>
    </g>
    <g clip-path="url(#p1bffca34e9)">
     <use style="fill:#ffffff;stroke:#000000;stroke-width:2.0;" x="0.0" xlink:href="#C0_1_c78c0df634" y="72.0"/>
    </g>
    <g clip-path="url(#p1bffca34e9)">
     <use style="fill:#ffffff;stroke:#000000;stroke-width:2.0;" x="0.0" xlink:href="#C0_2_978fd17df0" y="72.0"/>
    </g>
   </g>
  </g>
 </g>
 <defs>
  <clipPath id="p1bffca34e9">
   <rect height="72.0" width="72.0" x="0.0" y="0.0"/>
  </clipPath>
 </defs>
</svg>
