<?xml version="1.0" encoding="utf-8" standalone="no"?>
<!DOCTYPE svg PUBLIC "-//W3C//DTD SVG 1.1//EN"
  "http://www.w3.org/Graphics/SVG/1.1/DTD/svg11.dtd">
<!-- Created with matplotlib (http://matplotlib.org/) -->
<svg height="72pt" version="1.1" viewBox="0 0 72 72" width="72pt" xmlns="http://www.w3.org/2000/svg" xmlns:xlink="http://www.w3.org/1999/xlink">
 <defs>
  <style type="text/css">
*{stroke-linecap:butt;stroke-linejoin:round;}
  </style>
 </defs>
 <g id="figure_1">
  <g id="patch_1">
   <path d="
M0 72
L72 72
L72 0
L0 0
z
" style="fill:none;"/>
  </g>
  <g id="axes_1">
   <g id="PatchCollection_1">
    <defs>
     <path d="
M36 -7.5
C43.5583 -7.5 50.808 -10.5029 56.1525 -15.8475
C61.4971 -21.192 64.5 -28.4417 64.5 -36
C64.5 -43.5583 61.4971 -50.808 56.1525 -56.1525
C50.808 -61.4971 43.5583 -64.5 36 -64.5
C28.4417 -64.5 21.192 -61.4971 15.8475 -56.1525
C10.5029 -50.808 7.5 -43.5583 7.5 -36
C7.5 -28.4417 10.5029 -21.192 15.8475 -15.8475
C21.192 -10.5029 28.4417 -7.5 36 -7.5
z
" id="C0_0_a811fe30f3"/>
     <path d="
M44.7656 -25.8876
L44.536 -25.7524
L44.3055 -25.6187
L44.0739 -25.4865
L43.8412 -25.3557
L43.6074 -25.2263
L43.3723 -25.0982
L43.136 -24.9716
L42.8984 -24.8462
L42.6594 -24.7222
L42.419 -24.5995
L42.1771 -24.4781
L41.9337 -24.358
L41.6886 -24.2391
L41.442 -24.1215
L41.1936 -24.0052
L40.9434 -23.8901
L40.6914 -23.7763
L40.4375 -23.6637
L40.1816 -23.5524
L39.9236 -23.4424
L39.6636 -23.3336
L39.4014 -23.2261
L39.137 -23.12
L38.8703 -23.0151
L38.6012 -22.9116
L38.3297 -22.8094
L38.0556 -22.7086
L37.779 -22.6092
L37.4998 -22.5113
L37.2179 -22.4148
L36.9332 -22.3199
L36.6456 -22.2265
L36.3551 -22.1347
L36.0617 -22.0446
L35.7652 -21.9562
L35.4656 -21.8695
L35.1628 -21.7847
L34.8568 -21.7018
L34.5475 -21.6209
L34.2349 -21.542
L33.9188 -21.4652
L33.5993 -21.3907
L33.2763 -21.3185
L32.9497 -21.2488
L32.6196 -21.1815
L32.2858 -21.1169
L31.9484 -21.0551
L31.6072 -20.9962
L31.2624 -20.9403
L30.9139 -20.8877
L30.5616 -20.8383
L30.2057 -20.7925
L29.846 -20.7503
L29.4827 -20.712
L29.1157 -20.6777
L28.7451 -20.6476
L28.371 -20.622
L27.9935 -20.6011
L27.6126 -20.585
L27.2284 -20.5741
L26.8412 -20.5686
L26.4509 -20.5687
L26.0579 -20.5748
L25.6622 -20.5871
L25.2642 -20.6059
L24.864 -20.6316
L24.462 -20.6645
L24.0585 -20.705
L23.6537 -20.7534
L23.2482 -20.8101
L22.8423 -20.8756
L22.4366 -20.9502
L22.0315 -21.0345
L21.6277 -21.1289
L21.2258 -21.234
L20.8265 -21.3503
L20.4307 -21.4782
L20.0392 -21.6186
L19.6529 -21.7718
L19.2729 -21.9387
L18.9003 -22.1197
L18.5363 -22.3156
L18.1821 -22.527
L17.839 -22.7544
L17.5083 -22.9983
L17.1915 -23.2591
L16.8896 -23.5371
L16.604 -23.8324
L16.3357 -24.1448
L16.0855 -24.4741
L15.8542 -24.8196
L15.6423 -25.1806
L15.4499 -25.556
L15.2771 -25.9449
L15.1237 -26.3458
L14.9893 -26.7575
L14.8735 -27.1786
L14.7756 -27.6076
L14.6949 -28.0433
L14.6309 -28.4843
L14.5826 -28.9295
L14.5494 -29.3777
L14.5306 -29.8279
L14.5253 -30.2791
L14.533 -30.7304
L14.5529 -31.1812
L14.5843 -31.6306
L14.6268 -32.078
L14.6796 -32.523
L14.7422 -32.9649
L14.8141 -33.4034
L14.8948 -33.838
L14.9838 -34.2684
L15.0805 -34.6944
L15.1846 -35.1157
L15.2957 -35.5319
L15.4133 -35.9431
L15.5371 -36.3489
L15.6667 -36.7494
L15.8018 -37.1442
L15.942 -37.5335
L16.087 -37.9171
L16.2365 -38.295
L16.3903 -38.6671
L16.548 -39.0335
L16.7095 -39.3942
L16.8745 -39.7491
L17.0428 -40.0983
L17.2141 -40.4419
L17.3883 -40.7798
L17.5652 -41.1122
L17.7446 -41.4391
L17.9263 -41.7605
L18.1103 -42.0766
L18.2963 -42.3874
L18.4842 -42.693
L18.674 -42.9934
L18.8654 -43.2888
L19.0584 -43.5793
L19.2529 -43.8649
L19.4488 -44.1458
L19.646 -44.422
L19.8445 -44.6936
L20.0441 -44.9607
L20.2449 -45.2235
L20.4467 -45.4819
L20.6495 -45.7362
L20.8533 -45.9863
L21.058 -46.2324
L21.2636 -46.4746
L21.4701 -46.7129
L21.6774 -46.9475
L21.8855 -47.1784
L22.0944 -47.4057
L22.3041 -47.6295
L22.5146 -47.8499
L22.7259 -48.0669
L22.9379 -48.2807
L23.1507 -48.4913
L23.3642 -48.6988
L23.5786 -48.9032
L23.7937 -49.1047
L24.0096 -49.3032
L24.2264 -49.499
L24.444 -49.6919
L24.6624 -49.8821
L24.8817 -50.0697
L25.1019 -50.2546
L25.323 -50.437
L25.5451 -50.6169
L25.7682 -50.7944
L25.9922 -50.9695
L26.2173 -51.1422
L26.4435 -51.3127
L26.6708 -51.4809
L26.8993 -51.6468
L27.129 -51.8106
L27.3599 -51.9722
L27.592 -52.1317
L27.8256 -52.2892
L28.0604 -52.4446
L28.2967 -52.5979
L28.5345 -52.7493
L28.7738 -52.8987
L29.0146 -53.0461
L29.2571 -53.1916
L29.5012 -53.3351
L29.7471 -53.4768
L29.9948 -53.6165
L30.2444 -53.7544
L30.4958 -53.8903
L30.7493 -54.0244
L31.0047 -54.1566
L31.2623 -54.2869
L31.522 -54.4152
L31.784 -54.5417
L32.0482 -54.6663
L32.3149 -54.7889
L32.584 -54.9095
L32.8555 -55.0282
L33.1297 -55.1448
L33.4065 -55.2594
L33.6861 -55.372
L33.9684 -55.4824
L34.2536 -55.5907
L34.5418 -55.6968
L34.833 -55.8006
L35.1273 -55.9021
L35.4248 -56.0012
L35.7255 -56.098
L36.0296 -56.1922
L36.3371 -56.2838
L36.6481 -56.3728
L36.9626 -56.459
L37.2807 -56.5424
L37.6026 -56.6228
L37.9282 -56.7002
L38.2576 -56.7744
L38.591 -56.8454
L38.9283 -56.9129
L39.2697 -56.9769
L39.6152 -57.0373
L39.9648 -57.0937
L40.3186 -57.1462
L40.6766 -57.1946
L41.0389 -57.2386
L41.4055 -57.2781
L41.7764 -57.3129
L42.1516 -57.3427
L42.5312 -57.3675
L42.9152 -57.3869
L43.3034 -57.4007
L43.696 -57.4087
L44.0928 -57.4107
L44.4939 -57.4063
L44.899 -57.3954
L45.3082 -57.3776
L45.7213 -57.3526
L46.1383 -57.3202
L46.5588 -57.28
L46.9829 -57.2318
L47.4103 -57.1751
L47.8406 -57.1098
L48.2738 -57.0354
L48.7095 -56.9516
L49.1473 -56.8581
L49.5869 -56.7545
L50.0278 -56.6405
L50.4696 -56.5157
L50.9119 -56.3798
L51.3539 -56.2323
L51.7951 -56.0731
L52.2347 -55.9017
L52.6721 -55.7178
L53.1063 -55.5211
L53.5364 -55.3113
L53.9615 -55.0882
L54.3803 -54.8515
L54.7918 -54.6011
L55.1946 -54.3366
L55.5874 -54.0582
L55.9687 -53.7657
L56.337 -53.4592
L56.6907 -53.1389
L57.0283 -52.805
L57.3483 -52.4578
L57.6492 -52.098
L57.9297 -51.7262
L58.1886 -51.3431
L58.4251 -50.9497
L58.6386 -50.5469
L58.8288 -50.136
L58.9956 -49.718
L59.1392 -49.2941
L59.2602 -48.8656
L59.3591 -48.4336
L59.437 -47.9991
L59.4946 -47.5632
L59.5331 -47.1269
L59.5534 -46.691
L59.5566 -46.2564
L59.5437 -45.8236
L59.5159 -45.3933
L59.4739 -44.9661
L59.4187 -44.5424
L59.3513 -44.1226
L59.2724 -43.7072
L59.1828 -43.2963
L59.0832 -42.8904
L58.9744 -42.4895
L58.8568 -42.0939
L58.7313 -41.7038
L58.5982 -41.3192
L58.4583 -40.9403
L58.3118 -40.5671
L58.1594 -40.1998
L58.0014 -39.8382
L57.8383 -39.4825
L57.6705 -39.1327
L57.4982 -38.7887
L57.3219 -38.4505
L57.1419 -38.1181
L56.9584 -37.7914
L56.7718 -37.4704
L56.5822 -37.155
L56.39 -36.8451
L56.1954 -36.5408
L55.9986 -36.2418
L55.7997 -35.9481
L55.599 -35.6597
L55.3966 -35.3764
L55.1926 -35.0981
L54.9873 -34.8248
L54.7808 -34.5563
L54.5731 -34.2926
L54.3644 -34.0335
L54.1548 -33.7789
L53.9444 -33.5288
L53.7333 -33.2831
L53.5214 -33.0416
L53.3091 -32.8042
L53.0961 -32.5709
L52.8828 -32.3416
L52.669 -32.116
L52.4548 -31.8943
L52.2403 -31.6762
L52.0255 -31.4617
L51.8104 -31.2507
L51.595 -31.0431
L51.3794 -30.8388
L51.1636 -30.6376
L50.9476 -30.4397
L50.7314 -30.2448
L50.515 -30.0528
L50.2983 -29.8638
L50.0815 -29.6775
L49.8644 -29.4941
L49.6472 -29.3132
L49.4297 -29.135
L49.2119 -28.9593
L48.9939 -28.7861
L48.7756 -28.6153
L48.557 -28.4468
L48.338 -28.2806
L48.1188 -28.1166
L47.8991 -27.9547
L47.679 -27.795
L47.4585 -27.6373
L47.2376 -27.4816
L47.0161 -27.3279
L46.7941 -27.176
L46.5715 -27.026
L46.3483 -26.8778
L46.1245 -26.7314
L45.9 -26.5867
L45.6747 -26.4436
L45.4487 -26.3023
L45.2219 -26.1625
z
" id="C0_1_f5271ca936"/>
    </defs>
    <g clip-path="url(#p1bffca34e9)">
     <use style="fill:#ffffff;stroke:#000000;stroke-width:2.0;" x="0.0" xlink:href="#C0_0_a811fe30f3" y="72.0"/>
    </g>
    <g clip-path="url(#p1bffca34e9)">
     <use style="fill:#ff0000;stroke:#000000;stroke-width:2.0;" x="0.0" xlink:href="#C0_1_f5271ca936" y="72.0"/>
    </g>
   </g>
  </g>
 </g>
 <defs>
  <clipPath id="p1bffca34e9">
   <rect height="72.0" width="72.0" x="0.0" y="0.0"/>
  </clipPath>
 </defs>
</svg>
