<?xml version="1.0" encoding="utf-8" standalone="no"?>
<!DOCTYPE svg PUBLIC "-//W3C//DTD SVG 1.1//EN"
  "http://www.w3.org/Graphics/SVG/1.1/DTD/svg11.dtd">
<!-- Created with matplotlib (http://matplotlib.org/) -->
<svg height="72pt" version="1.1" viewBox="0 0 72 72" width="72pt" xmlns="http://www.w3.org/2000/svg" xmlns:xlink="http://www.w3.org/1999/xlink">
 <defs>
  <style type="text/css">
*{stroke-linecap:butt;stroke-linejoin:round;}
  </style>
 </defs>
 <g id="figure_1">
  <g id="patch_1">
   <path d="
M0 72
L72 72
L72 0
L0 0
z
" style="fill:none;"/>
  </g>
  <g id="axes_1">
   <g id="PatchCollection_1">
    <defs>
     <path d="
M36 -7.5
C43.5583 -7.5 50.808 -10.5029 56.1525 -15.8475
C61.4971 -21.192 64.5 -28.4417 64.5 -36
C64.5 -43.5583 61.4971 -50.808 56.1525 -56.1525
C50.808 -61.4971 43.5583 -64.5 36 -64.5
C28.4417 -64.5 21.192 -61.4971 15.8475 -56.1525
C10.5029 -50.808 7.5 -43.5583 7.5 -36
C7.5 -28.4417 10.5029 -21.192 15.8475 -15.8475
C21.192 -10.5029 28.4417 -7.5 36 -7.5
z
" id="C0_0_a811fe30f3"/>
     <path d="
M41.6164 -8.07122
L41.6249 -8.25789
L41.6328 -8.44515
L41.6404 -8.63302
L41.6474 -8.82153
L41.654 -9.01073
L41.6601 -9.20065
L41.6658 -9.39132
L41.6711 -9.58278
L41.6759 -9.77507
L41.6802 -9.96824
L41.6877 -10.1623
L41.6908 -10.3574
L41.6935 -10.5534
L41.6958 -10.7505
L41.6977 -10.9486
L41.6991 -11.1479
L41.7002 -11.3484
L41.7009 -11.5501
L41.7011 -11.7531
L41.701 -11.9574
L41.7005 -12.1631
L41.6995 -12.3703
L41.6982 -12.5789
L41.6965 -12.789
L41.6944 -13.0008
L41.6919 -13.2142
L41.6889 -13.4293
L41.6856 -13.6462
L41.6819 -13.8649
L41.6778 -14.0855
L41.6733 -14.308
L41.6684 -14.5326
L41.663 -14.7592
L41.6573 -14.9879
L41.6512 -15.2189
L41.6446 -15.4521
L41.6376 -15.6876
L41.6302 -15.9256
L41.6224 -16.166
L41.6142 -16.4089
L41.6055 -16.6545
L41.5965 -16.9027
L41.587 -17.1536
L41.577 -17.4073
L41.5667 -17.6639
L41.5559 -17.9235
L41.5447 -18.186
L41.5331 -18.4516
L41.521 -18.7204
L41.5085 -18.9924
L41.4956 -19.2676
L41.4823 -19.5462
L41.4686 -19.8281
L41.4545 -20.1136
L41.44 -20.4025
L41.4251 -20.695
L41.4099 -20.9911
L41.3943 -21.2909
L41.3784 -21.5943
L41.3622 -21.9016
L41.3457 -22.2126
L41.329 -22.5274
L41.312 -22.846
L41.2949 -23.1685
L41.2777 -23.4948
L41.2604 -23.8249
L41.2431 -24.1589
L41.2258 -24.4967
L41.2087 -24.8383
L41.1919 -25.1836
L41.1753 -25.5326
L41.1592 -25.8852
L41.1437 -26.2414
L41.1289 -26.6009
L41.1149 -26.9637
L41.102 -27.3296
L41.0904 -27.6985
L41.0803 -28.0701
L41.0719 -28.4443
L41.0656 -28.8208
L41.0616 -29.1993
L41.0604 -29.5795
L41.0623 -29.9611
L41.0678 -30.3437
L41.0773 -30.7268
L41.0916 -31.11
L41.111 -31.4928
L41.1364 -31.8746
L41.1684 -32.2548
L41.2079 -32.6328
L41.2556 -33.0079
L41.3124 -33.3793
L41.3794 -33.7462
L41.4573 -34.1079
L41.5472 -34.4635
L41.6499 -34.8122
L41.7664 -35.1532
L41.8972 -35.4856
L42.0432 -35.8088
L42.2046 -36.1221
L42.3817 -36.4249
L42.5746 -36.717
L42.7831 -36.9979
L43.0067 -37.2675
L43.245 -37.5259
L43.497 -37.7731
L43.762 -38.0094
L44.0389 -38.2351
L44.3267 -38.4506
L44.6242 -38.6564
L44.9304 -38.8528
L45.2441 -39.0405
L45.5644 -39.2199
L45.8901 -39.3915
L46.2205 -39.5556
L46.5546 -39.7129
L46.8916 -39.8636
L47.2307 -40.0081
L47.5714 -40.1468
L47.9129 -40.28
L48.2547 -40.4079
L48.5963 -40.5309
L48.9372 -40.6492
L49.277 -40.7631
L49.6155 -40.8726
L49.9521 -40.9781
L50.2867 -41.0797
L50.6191 -41.1775
L50.9488 -41.2717
L51.2759 -41.3624
L51.6001 -41.4498
L51.9212 -41.5341
L52.2392 -41.6152
L52.554 -41.6933
L52.8654 -41.7685
L53.1733 -41.841
L53.4778 -41.9107
L53.7788 -41.9779
L54.0763 -42.0425
L54.3702 -42.1046
L54.6605 -42.1643
L54.9473 -42.2218
L55.2305 -42.277
L55.5102 -42.33
L55.7864 -42.3808
L56.0591 -42.4297
L56.3283 -42.4765
L56.5942 -42.5213
L56.8567 -42.5643
L57.1158 -42.6054
L57.3717 -42.6447
L57.6244 -42.6822
L57.8739 -42.718
L58.1204 -42.7521
L58.3637 -42.7846
L58.6041 -42.8155
L58.8416 -42.8448
L59.0762 -42.8725
L59.3081 -42.8988
L59.5371 -42.9236
L59.7636 -42.9469
L59.9874 -42.9688
L60.2086 -42.9893
L60.4274 -43.0084
L60.6438 -43.0262
L60.8578 -43.0426
L61.0695 -43.0578
L61.279 -43.0716
L61.4863 -43.0841
L61.6915 -43.0953
L61.8947 -43.1053
L62.0958 -43.1141
L62.295 -43.1215
L62.4924 -43.1278
L62.6879 -43.1328
L62.8817 -43.1366
L63.0738 -43.1392
L63.2642 -43.1405
L63.453 -43.1406
L63.7035 -43.1395
L63.8161 -42.6907
L63.9201 -42.2062
L64.0157 -41.7198
L64.1027 -41.2317
L64.1812 -40.7419
L64.2511 -40.2507
L64.3124 -39.7583
L64.3651 -39.2646
L64.4091 -38.77
L64.4445 -38.2746
L64.4712 -37.7784
L64.4892 -37.2817
L64.4986 -36.7846
L64.4992 -36.2873
L64.4912 -35.7899
L64.4745 -35.2925
L64.4492 -34.7954
L64.4151 -34.2986
L64.3725 -33.8024
L64.3211 -33.3068
L64.2612 -32.8121
L64.1926 -32.3183
L64.1155 -31.8256
L64.0298 -31.3342
L63.9355 -30.8442
L63.8328 -30.3558
L63.7215 -29.8692
L63.6018 -29.3843
L63.4738 -28.9015
L63.3373 -28.4209
L63.1925 -27.9426
L63.0394 -27.4667
L62.8781 -26.9934
L62.7086 -26.5229
L62.531 -26.0552
L62.3453 -25.5906
L62.1516 -25.1292
L61.9499 -24.6711
L61.7403 -24.2164
L61.5228 -23.7653
L61.2976 -23.3179
L61.0647 -22.8744
L60.8241 -22.4349
L60.576 -21.9995
L60.3204 -21.5684
L60.0574 -21.1417
L59.787 -20.7195
L59.5094 -20.302
L59.2247 -19.8892
L58.9329 -19.4814
L58.634 -19.0786
L58.3283 -18.6809
L58.0158 -18.2886
L57.6966 -17.9016
L57.3708 -17.5201
L57.0385 -17.1443
L56.6997 -16.7742
L56.3547 -16.4099
L56.0034 -16.0516
L55.6461 -15.6994
L55.2828 -15.3534
L54.9136 -15.0137
L54.5386 -14.6804
L54.158 -14.3535
L53.7719 -14.0333
L53.3803 -13.7197
L52.9835 -13.4129
L52.5814 -13.1131
L52.1744 -12.8201
L51.7624 -12.5343
L51.3456 -12.2556
L50.9241 -11.9841
L50.4981 -11.7199
L50.0677 -11.4632
L49.6329 -11.2139
L49.1941 -10.9722
L48.7512 -10.738
L48.3044 -10.5116
L47.8539 -10.293
L47.3997 -10.0821
L46.9421 -9.8792
L46.4812 -9.68423
L46.0171 -9.49727
L45.5499 -9.31838
L45.0798 -9.14763
L44.6069 -8.98505
L44.1314 -8.8307
L43.6535 -8.68462
L43.1732 -8.54687
L42.6907 -8.41748
L42.2062 -8.29649
z
" id="C0_1_74df48b9f8"/>
     <path d="
M8.4505 -28.8863
L8.61324 -28.979
L8.77677 -29.0716
L8.94113 -29.1639
L9.10633 -29.2561
L9.2724 -29.3481
L9.43938 -29.44
L9.60729 -29.5318
L9.77617 -29.6236
L9.94605 -29.7152
L10.117 -29.8069
L10.2889 -29.8985
L10.462 -29.9902
L10.6362 -30.0819
L10.8116 -30.1737
L10.9883 -30.2655
L11.1662 -30.3575
L11.3453 -30.4496
L11.5259 -30.5419
L11.7078 -30.6344
L11.8912 -30.7271
L12.076 -30.82
L12.2624 -30.9132
L12.4503 -31.0067
L12.6399 -31.1005
L12.8311 -31.1946
L13.0241 -31.2891
L13.2188 -31.384
L13.4154 -31.4793
L13.6139 -31.575
L13.8143 -31.6712
L14.0167 -31.7679
L14.2212 -31.8651
L14.4277 -31.9629
L14.6365 -32.0612
L14.8474 -32.1601
L15.0607 -32.2597
L15.2763 -32.3599
L15.4943 -32.4607
L15.7148 -32.5623
L15.9378 -32.6647
L16.1635 -32.7678
L16.3917 -32.8716
L16.6227 -32.9764
L16.8565 -33.0819
L17.0932 -33.1884
L17.3327 -33.2957
L17.5752 -33.404
L17.8207 -33.5133
L18.0693 -33.6235
L18.321 -33.7348
L18.576 -33.8471
L18.8342 -33.9606
L19.0957 -34.0751
L19.3605 -34.1908
L19.6287 -34.3077
L19.9004 -34.4259
L20.1755 -34.5452
L20.4541 -34.6659
L20.7363 -34.7878
L21.022 -34.9112
L21.3113 -35.0359
L21.6041 -35.162
L21.9005 -35.2896
L22.2005 -35.4187
L22.504 -35.5493
L22.811 -35.6815
L23.1214 -35.8153
L23.4353 -35.9508
L23.7525 -36.0881
L24.0729 -36.2271
L24.3964 -36.3679
L24.723 -36.5106
L25.0524 -36.6553
L25.3844 -36.802
L25.7189 -36.9508
L26.0557 -37.1018
L26.3944 -37.2551
L26.7348 -37.4109
L27.0765 -37.5691
L27.4192 -37.73
L27.7624 -37.8938
L28.1058 -38.0605
L28.4486 -38.2304
L28.7905 -38.4038
L29.1307 -38.5808
L29.4685 -38.7617
L29.8032 -38.9469
L30.134 -39.1366
L30.4598 -39.3312
L30.7799 -39.5312
L31.0931 -39.737
L31.3984 -39.949
L31.6945 -40.1677
L31.9805 -40.3935
L32.2551 -40.6271
L32.5171 -40.8687
L32.7656 -41.1189
L32.9995 -41.378
L33.218 -41.6463
L33.4205 -41.9238
L33.6064 -42.2108
L33.7755 -42.507
L33.9277 -42.8123
L34.0632 -43.1262
L34.1824 -43.4484
L34.2858 -43.7782
L34.3741 -44.115
L34.4481 -44.458
L34.5086 -44.8065
L34.5566 -45.1597
L34.5931 -45.5169
L34.6188 -45.8772
L34.6347 -46.2399
L34.6416 -46.6044
L34.6404 -46.9699
L34.6317 -47.3359
L34.6162 -47.7019
L34.5947 -48.0672
L34.5676 -48.4314
L34.5355 -48.7942
L34.4989 -49.155
L34.4581 -49.5136
L34.4138 -49.8696
L34.366 -50.2229
L34.3153 -50.573
L34.2619 -50.9198
L34.2061 -51.2632
L34.1481 -51.6029
L34.0881 -51.9389
L34.0263 -52.2709
L33.963 -52.599
L33.8982 -52.9229
L33.8322 -53.2427
L33.765 -53.5584
L33.6969 -53.8698
L33.6278 -54.1769
L33.5579 -54.4799
L33.4873 -54.7785
L33.416 -55.0729
L33.3442 -55.363
L33.2719 -55.649
L33.1991 -55.9307
L33.126 -56.2084
L33.0525 -56.4819
L32.9787 -56.7514
L32.9047 -57.0168
L32.8304 -57.2783
L32.7559 -57.536
L32.6812 -57.7898
L32.6064 -58.0398
L32.5314 -58.2861
L32.4563 -58.5288
L32.3811 -58.768
L32.3058 -59.0036
L32.2303 -59.2358
L32.1548 -59.4646
L32.0792 -59.6902
L32.0035 -59.9125
L31.9277 -60.1316
L31.8519 -60.3477
L31.7759 -60.5608
L31.6998 -60.7709
L31.6236 -60.9781
L31.5473 -61.1825
L31.4708 -61.3842
L31.3942 -61.5832
L31.3175 -61.7795
L31.2406 -61.9733
L31.1635 -62.1646
L31.0862 -62.3535
L31.0087 -62.54
L30.931 -62.7241
L30.8531 -62.906
L30.7748 -63.0856
L30.6963 -63.2631
L30.6174 -63.4385
L30.5383 -63.6119
L29.9386 -63.7832
L29.4535 -63.848
L28.9705 -63.738
L28.4895 -63.6195
L28.0108 -63.4926
L27.5346 -63.3573
L27.0609 -63.2137
L26.59 -63.0618
L26.1219 -62.9017
L25.6569 -62.7334
L25.195 -62.5569
L24.7364 -62.3724
L24.2812 -62.1798
L23.8296 -61.9792
L23.3817 -61.7707
L22.9376 -61.5544
L22.4975 -61.3303
L22.0615 -61.0985
L21.6298 -60.859
L21.2025 -60.6119
L20.7796 -60.3574
L20.3614 -60.0954
L19.948 -59.8261
L19.5394 -59.5496
L19.1359 -59.2658
L18.7375 -58.975
L18.3443 -58.6772
L17.9566 -58.3725
L17.5743 -58.0609
L17.1976 -57.7427
L16.8267 -57.4178
L16.4616 -57.0864
L16.1025 -56.7485
L15.7494 -56.4044
L15.4025 -56.054
L15.0619 -55.6976
L14.7276 -55.3351
L14.3999 -54.9667
L14.0787 -54.5926
L13.7641 -54.2128
L13.4564 -53.8274
L13.1555 -53.4366
L12.8616 -53.0405
L12.5747 -52.6392
L12.295 -52.2329
L12.0225 -51.8216
L11.7573 -51.4055
L11.4994 -50.9847
L11.2491 -50.5593
L11.0063 -50.1295
L10.771 -49.6954
L10.5435 -49.2571
L10.3237 -48.8147
L10.1118 -48.3685
L9.90773 -47.9185
L9.71162 -47.4649
L9.52351 -47.0078
L9.34347 -46.5473
L9.17154 -46.0836
L9.00779 -45.6169
L8.85226 -45.1472
L8.705 -44.6747
L8.56606 -44.1996
L8.43547 -43.722
L8.31328 -43.242
L8.19952 -42.7598
L8.09423 -42.2756
L7.99744 -41.7895
L7.90918 -41.3016
L7.82947 -40.812
L7.75835 -40.3211
L7.69583 -39.8288
L7.64194 -39.3353
L7.59668 -38.8408
L7.56007 -38.3455
L7.53212 -37.8494
L7.51285 -37.3528
L7.50225 -36.8557
L7.50034 -36.3584
L7.50711 -35.861
L7.52255 -35.3636
L7.54667 -34.8665
L7.57946 -34.3696
L7.6209 -33.8733
L7.67099 -33.3776
L7.72971 -32.8828
L7.79704 -32.3888
L7.87296 -31.896
L7.95745 -31.4044
L8.05048 -30.9142
L8.15202 -30.4256
L8.26205 -29.9386
z
" id="C0_2_38ccdff173"/>
    </defs>
    <g clip-path="url(#p1bffca34e9)">
     <use style="fill:#ffffff;stroke:#000000;stroke-width:2.0;" x="0.0" xlink:href="#C0_0_a811fe30f3" y="72.0"/>
    </g>
    <g clip-path="url(#p1bffca34e9)">
     <use style="fill:#ff0000;stroke:#000000;stroke-width:2.0;" x="0.0" xlink:href="#C0_1_74df48b9f8" y="72.0"/>
    </g>
    <g clip-path="url(#p1bffca34e9)">
     <use style="fill:#ff0000;stroke:#000000;stroke-width:2.0;" x="0.0" xlink:href="#C0_2_38ccdff173" y="72.0"/>
    </g>
   </g>
  </g>
 </g>
 <defs>
  <clipPath id="p1bffca34e9">
   <rect height="72.0" width="72.0" x="0.0" y="0.0"/>
  </clipPath>
 </defs>
</svg>
