<?xml version="1.0" encoding="utf-8" standalone="no"?>
<!DOCTYPE svg PUBLIC "-//W3C//DTD SVG 1.1//EN"
  "http://www.w3.org/Graphics/SVG/1.1/DTD/svg11.dtd">
<!-- Created with matplotlib (http://matplotlib.org/) -->
<svg height="72pt" version="1.1" viewBox="0 0 72 72" width="72pt" xmlns="http://www.w3.org/2000/svg" xmlns:xlink="http://www.w3.org/1999/xlink">
 <defs>
  <style type="text/css">
*{stroke-linecap:butt;stroke-linejoin:round;}
  </style>
 </defs>
 <g id="figure_1">
  <g id="patch_1">
   <path d="
M0 72
L72 72
L72 0
L0 0
z
" style="fill:none;"/>
  </g>
  <g id="axes_1">
   <g id="PatchCollection_1">
    <defs>
     <path d="
M36 -7.5
C43.5583 -7.5 50.808 -10.5029 56.1525 -15.8475
C61.4971 -21.192 64.5 -28.4417 64.5 -36
C64.5 -43.5583 61.4971 -50.808 56.1525 -56.1525
C50.808 -61.4971 43.5583 -64.5 36 -64.5
C28.4417 -64.5 21.192 -61.4971 15.8475 -56.1525
C10.5029 -50.808 7.5 -43.5583 7.5 -36
C7.5 -28.4417 10.5029 -21.192 15.8475 -15.8475
C21.192 -10.5029 28.4417 -7.5 36 -7.5
z
" id="C0_0_a811fe30f3"/>
     <path d="
M30.5315 -8.1671
L30.4246 -8.42451
L30.3523 -8.68358
L30.3129 -8.94395
L30.3047 -9.2054
L30.3255 -9.46781
L30.3728 -9.73114
L30.4442 -9.99541
L30.537 -10.2607
L30.6489 -10.527
L30.7775 -10.7944
L30.9206 -11.063
L31.0762 -11.3328
L31.2424 -11.6039
L31.4177 -11.8762
L31.6005 -12.1498
L31.7896 -12.4245
L31.9837 -12.7004
L32.1819 -12.9772
L32.3833 -13.2551
L32.5871 -13.5338
L32.7926 -13.8132
L32.9991 -14.0933
L33.2063 -14.3739
L33.4136 -14.6548
L33.6206 -14.936
L33.8269 -15.2174
L34.0324 -15.4988
L34.2366 -15.78
L34.4395 -16.0611
L34.6407 -16.3419
L34.8402 -16.6222
L35.0378 -16.902
L35.2334 -17.1812
L35.4268 -17.4598
L35.6181 -17.7375
L35.8072 -18.0145
L35.9939 -18.2905
L36.1783 -18.5656
L36.3604 -18.8396
L36.54 -19.1126
L36.7173 -19.3845
L36.8922 -19.6552
L37.0648 -19.9248
L37.2349 -20.1932
L37.4027 -20.4604
L37.5682 -20.7263
L37.7314 -20.991
L37.8923 -21.2545
L38.051 -21.5167
L38.2075 -21.7777
L38.3617 -22.0374
L38.5139 -22.2959
L38.6639 -22.5532
L38.8119 -22.8093
L38.9579 -23.0642
L39.1019 -23.3179
L39.244 -23.5705
L39.3842 -23.822
L39.5225 -24.0724
L39.659 -24.3217
L39.7938 -24.57
L39.9268 -24.8173
L40.0582 -25.0636
L40.1879 -25.3091
L40.3161 -25.5536
L40.4426 -25.7973
L40.5677 -26.0402
L40.6913 -26.2823
L40.8135 -26.5237
L40.9343 -26.7644
L41.0537 -27.0044
L41.1718 -27.2439
L41.2887 -27.4828
L41.4043 -27.7213
L41.5187 -27.9592
L41.6319 -28.1968
L41.744 -28.434
L41.8549 -28.6709
L41.9648 -28.9075
L42.0737 -29.1439
L42.1816 -29.3802
L42.2885 -29.6164
L42.3944 -29.8524
L42.4994 -30.0885
L42.6035 -30.3247
L42.7068 -30.5609
L42.8092 -30.7972
L42.9108 -31.0338
L43.1117 -31.2706
L43.2111 -31.5078
L43.3097 -31.7453
L43.4076 -31.9832
L43.5048 -32.2216
L43.6014 -32.4605
L43.6974 -32.7
L43.7928 -32.9401
L43.8875 -33.181
L43.9817 -33.4226
L44.0754 -33.665
L44.1684 -33.9083
L44.261 -34.1525
L44.3531 -34.3976
L44.4446 -34.6439
L44.5357 -34.8912
L44.6262 -35.1397
L44.7164 -35.3894
L44.806 -35.6404
L44.8952 -35.8927
L44.984 -36.1464
L45.0724 -36.4016
L45.1603 -36.6583
L45.2478 -36.9166
L45.3349 -37.1765
L45.4216 -37.4381
L45.5079 -37.7015
L45.5938 -37.9666
L45.6792 -38.2337
L45.7643 -38.5027
L45.849 -38.7737
L45.9332 -39.0467
L46.017 -39.3219
L46.1004 -39.5992
L46.1834 -39.8787
L46.2659 -40.1605
L46.348 -40.4446
L46.4296 -40.731
L46.5108 -41.0199
L46.5915 -41.3113
L46.6716 -41.6051
L46.7513 -41.9015
L46.8304 -42.2005
L46.909 -42.5021
L46.9871 -42.8063
L47.0645 -43.1132
L47.1413 -43.4228
L47.2176 -43.7351
L47.2931 -44.0501
L47.368 -44.3678
L47.4422 -44.6883
L47.5157 -45.0114
L47.5885 -45.3372
L47.6606 -45.6657
L47.7319 -45.9967
L47.8024 -46.3304
L47.8721 -46.6665
L47.9411 -47.005
L48.0093 -47.3459
L48.0767 -47.689
L48.1434 -48.0342
L48.2093 -48.3813
L48.2746 -48.7303
L48.3393 -49.0808
L48.4034 -49.4328
L48.467 -49.786
L48.5304 -50.14
L48.5935 -50.4947
L48.6566 -50.8497
L48.72 -51.2046
L48.7838 -51.5591
L48.8484 -51.9126
L48.9142 -52.2647
L48.9816 -52.6148
L49.0511 -52.9623
L49.1233 -53.3065
L49.199 -53.6466
L49.2789 -53.9817
L49.3639 -54.311
L49.4552 -54.6334
L49.5539 -54.9477
L49.6612 -55.2527
L49.7787 -55.5469
L49.9079 -55.829
L50.0504 -56.0973
L50.2078 -56.3502
L50.3817 -56.5859
L50.5736 -56.8029
L50.7847 -56.9993
L51.0162 -57.1737
L51.2686 -57.3247
L51.5423 -57.4511
L51.837 -57.552
L52.1522 -57.6269
L52.4868 -57.6755
L52.8395 -57.6978
L53.2089 -57.6942
L53.5931 -57.665
L53.9902 -57.6111
L54.3985 -57.5332
L54.816 -57.4322
L55.234 -57.309
L55.5982 -57.031
L55.9563 -56.6921
L56.3084 -56.3469
L56.6542 -55.9955
L56.9938 -55.638
L57.327 -55.2746
L57.6537 -54.9052
L57.9738 -54.5302
L58.2872 -54.1494
L58.5938 -53.7632
L58.8936 -53.3715
L59.1863 -52.9745
L59.472 -52.5724
L59.7506 -52.1652
L60.0219 -51.7531
L60.2859 -51.3362
L60.5425 -50.9146
L60.7916 -50.4885
L61.0332 -50.058
L61.2671 -49.6232
L61.4934 -49.1842
L61.7118 -48.7412
L61.9225 -48.2944
L62.1252 -47.8438
L62.32 -47.3896
L62.5068 -46.9319
L62.6855 -46.4709
L62.8561 -46.0067
L63.0185 -45.5394
L63.1727 -45.0692
L63.3185 -44.5963
L63.4561 -44.1208
L63.5853 -43.6428
L63.7061 -43.1624
L63.8185 -42.6799
L63.9224 -42.1954
L64.0177 -41.7089
L64.1046 -41.2207
L64.1829 -40.731
L64.2526 -40.2398
L64.3137 -39.7472
L64.3661 -39.2536
L64.41 -38.759
L64.4452 -38.2635
L64.4717 -37.7673
L64.4895 -37.2706
L64.4987 -36.7735
L64.4991 -36.2762
L64.4909 -35.7788
L64.4741 -35.2814
L64.4485 -34.7843
L64.4143 -34.2876
L64.3714 -33.7913
L64.3199 -33.2958
L64.2598 -32.801
L64.191 -32.3073
L64.1137 -31.8146
L64.0278 -31.3233
L63.9333 -30.8333
L63.8304 -30.345
L63.7189 -29.8583
L63.5991 -29.3735
L63.4708 -28.8908
L63.3342 -28.4102
L63.1892 -27.9319
L63.0359 -27.4561
L62.8744 -26.9829
L62.7048 -26.5124
L62.527 -26.0448
L62.3411 -25.5803
L62.1472 -25.1189
L61.9453 -24.6609
L61.7355 -24.2063
L61.5179 -23.7552
L61.2925 -23.308
L61.0594 -22.8646
L60.8187 -22.4251
L60.5704 -21.9899
L60.3146 -21.5588
L60.0514 -21.1322
L59.7809 -20.7102
L59.5032 -20.2927
L59.2182 -19.8801
L58.9263 -19.4724
L58.6273 -19.0697
L58.3214 -18.6721
L58.0088 -18.2799
L57.6894 -17.893
L57.3634 -17.5116
L57.031 -17.1359
L56.6921 -16.766
L56.3469 -16.4018
L55.9955 -16.0437
L55.638 -15.6916
L55.2746 -15.3458
L54.9052 -15.0062
L54.5302 -14.673
L54.1494 -14.3463
L53.7632 -14.0262
L53.3715 -13.7128
L52.9745 -13.4062
L52.5724 -13.1064
L52.1652 -12.8137
L51.7531 -12.528
L51.3362 -12.2494
L50.9146 -11.9781
L50.4885 -11.7141
L50.058 -11.4575
L49.6232 -11.2084
L49.1842 -10.9668
L48.7412 -10.7329
L48.2944 -10.5066
L47.8438 -10.2882
L47.3896 -10.0775
L46.9319 -9.87476
L46.4709 -9.67996
L46.0067 -9.49319
L45.5394 -9.31448
L45.0692 -9.14391
L44.5963 -8.98151
L44.1208 -8.82735
L43.6428 -8.68146
L43.1624 -8.54389
L42.6799 -8.41469
L42.1954 -8.29389
L41.7089 -8.18153
L41.2207 -8.07764
L40.731 -7.98226
L40.2398 -7.89541
L39.7472 -7.81712
L39.2536 -7.74742
L38.759 -7.68633
L38.2635 -7.63386
L37.7673 -7.59003
L37.2706 -7.55485
L36.7735 -7.52834
L36.2762 -7.5105
L35.7788 -7.50134
L35.2814 -7.50086
L34.7843 -7.50906
L34.2876 -7.52594
L33.7913 -7.55149
L33.2958 -7.58571
L32.801 -7.62859
L32.3073 -7.6801
L31.8146 -7.74025
L31.3233 -7.809
z
" id="C0_1_b8780ca74d"/>
     <path d="
M16.8984 -14.9888
L16.7055 -15.4028
L16.5109 -15.8235
L16.3162 -16.2499
L16.1226 -16.6814
L15.9314 -17.1171
L15.7435 -17.5563
L15.5597 -17.9983
L15.3807 -18.4426
L15.2072 -18.8885
L15.0394 -19.3355
L14.878 -19.7831
L14.723 -20.2308
L14.5748 -20.6782
L14.4335 -21.1249
L14.2992 -21.5706
L14.1719 -22.0148
L14.0518 -22.4573
L13.9387 -22.8979
L13.8327 -23.3361
L13.7336 -23.7719
L13.6414 -24.2051
L13.556 -24.6353
L13.4773 -25.0626
L13.405 -25.4866
L13.3392 -25.9074
L13.2796 -26.3248
L13.2262 -26.7387
L13.1786 -27.149
L13.1369 -27.5557
L13.1008 -27.9587
L13.0702 -28.358
L13.0449 -28.7536
L13.0248 -29.1454
L13.0097 -29.5334
L12.9995 -29.9177
L12.994 -30.2982
L12.9931 -30.675
L12.9967 -31.0481
L13.0046 -31.4175
L13.0167 -31.7832
L13.0328 -32.1454
L13.0529 -32.5039
L13.0769 -32.859
L13.1045 -33.2106
L13.1358 -33.5588
L13.1706 -33.9037
L13.2089 -34.2452
L13.2505 -34.5835
L13.2953 -34.9187
L13.3433 -35.2508
L13.3944 -35.5798
L13.4485 -35.9059
L13.5056 -36.2291
L13.5655 -36.5495
L13.6283 -36.8671
L13.6939 -37.182
L13.7622 -37.4943
L13.8332 -37.8041
L13.9068 -38.1114
L13.983 -38.4163
L14.0617 -38.7188
L14.143 -39.0191
L14.2268 -39.3172
L14.313 -39.6132
L14.4017 -39.9071
L14.4928 -40.199
L14.5863 -40.489
L14.6822 -40.7771
L14.7806 -41.0634
L14.8813 -41.348
L14.9843 -41.631
L15.0898 -41.9123
L15.1976 -42.1921
L15.3078 -42.4704
L15.4204 -42.7473
L15.5354 -43.0228
L15.6528 -43.297
L15.7727 -43.57
L15.895 -43.8417
L16.0198 -44.1123
L16.147 -44.3818
L16.2768 -44.6503
L16.4091 -44.9178
L16.544 -45.1844
L16.6815 -45.4501
L16.8217 -45.7149
L16.9645 -45.9789
L17.1101 -46.2422
L17.2585 -46.5047
L17.4096 -46.7666
L17.5637 -47.0279
L17.7206 -47.2885
L17.8805 -47.5486
L18.0435 -47.8082
L18.2095 -48.0672
L18.3787 -48.3258
L18.5511 -48.584
L18.7268 -48.8418
L18.9058 -49.0991
L19.0882 -49.3561
L19.2742 -49.6128
L19.4637 -49.8691
L19.6568 -50.1252
L19.8537 -50.3809
L20.0544 -50.6363
L20.259 -50.8915
L20.4675 -51.1463
L20.6802 -51.4009
L20.897 -51.6552
L21.118 -51.9092
L21.3434 -52.1629
L21.5733 -52.4162
L21.8077 -52.6692
L22.0468 -52.9219
L22.2906 -53.1741
L22.5392 -53.4259
L22.7928 -53.6772
L23.0514 -53.928
L23.3152 -54.1783
L23.5843 -54.4279
L23.8587 -54.6769
L24.1385 -54.9251
L24.4239 -55.1724
L24.715 -55.4189
L25.0117 -55.6643
L25.3143 -55.9087
L25.6228 -56.1519
L25.9373 -56.3938
L26.2578 -56.6342
L26.5844 -56.8732
L26.9172 -57.1104
L27.2562 -57.3459
L27.6014 -57.5794
L27.9529 -57.8109
L28.3107 -58.0401
L28.6747 -58.2669
L29.0449 -58.4911
L29.4212 -58.7126
L29.8037 -58.9312
L30.1921 -59.1467
L30.5864 -59.3589
L30.9864 -59.5678
L31.3918 -59.773
L31.8025 -59.9745
L32.2182 -60.1722
L32.6384 -60.3658
L33.063 -60.5554
L33.4912 -60.7407
L33.9228 -60.9217
L34.357 -61.0984
L34.7932 -61.2708
L35.2306 -61.439
L35.6683 -61.603
L36.1054 -61.7632
L36.5408 -61.9196
L36.9732 -62.0727
L37.4011 -62.2229
L37.8232 -62.3708
L38.2377 -62.517
L38.6428 -62.6622
L39.0365 -62.8074
L39.4167 -62.9536
L39.7812 -63.1018
L40.1278 -63.2532
L40.4543 -63.409
L40.7586 -63.5703
L41.0388 -63.7382
L40.8203 -63.9135
L40.3293 -64.0894
L39.837 -64.1693
L39.3436 -64.2405
L38.8491 -64.3032
L38.3538 -64.3572
L37.8577 -64.4026
L37.3611 -64.4394
L36.8641 -64.4675
L36.3668 -64.4869
L35.8694 -64.4976
L35.372 -64.4997
L34.8748 -64.4931
L34.378 -64.4778
L33.8817 -64.4538
L33.386 -64.4212
L32.8911 -64.3799
L32.3971 -64.3299
L31.9043 -64.2713
L31.4126 -64.2042
L30.9224 -64.1284
L30.4338 -64.044
L29.9468 -63.9512
L29.4617 -63.8498
L28.9786 -63.7399
L28.4976 -63.6215
L28.0189 -63.4948
L27.5426 -63.3597
L27.0689 -63.2162
L26.5979 -63.0645
L26.1298 -62.9045
L25.6647 -62.7363
L25.2027 -62.5599
L24.744 -62.3755
L24.2888 -62.1831
L23.8371 -61.9826
L23.3891 -61.7743
L22.945 -61.5581
L22.5049 -61.3341
L22.0688 -61.1024
L21.637 -60.8631
L21.2096 -60.6162
L20.7867 -60.3617
L20.3684 -60.0999
L19.9549 -59.8307
L19.5462 -59.5543
L19.1426 -59.2707
L18.7441 -58.98
L18.3509 -58.6823
L17.963 -58.3776
L17.5807 -58.0662
L17.2039 -57.7481
L16.8329 -57.4233
L16.4677 -57.092
L16.1085 -56.7543
L15.7553 -56.4102
L15.4083 -56.06
L15.0676 -55.7036
L14.7332 -55.3412
L14.4053 -54.9729
L14.084 -54.5989
L13.7694 -54.2192
L13.4615 -53.8339
L13.1605 -53.4432
L12.8665 -53.0472
L12.5795 -52.646
L12.2996 -52.2398
L12.027 -51.8285
L11.7617 -51.4125
L11.5037 -50.9918
L11.2532 -50.5665
L11.0103 -50.1367
L10.7749 -49.7027
L10.5473 -49.2645
L10.3274 -48.8222
L10.1153 -48.376
L9.9111 -47.9261
L9.71485 -47.4725
L9.5266 -47.0155
L9.34642 -46.5551
L9.17436 -46.0914
L9.01048 -45.6247
L8.85481 -45.1551
L8.70741 -44.6827
L8.56832 -44.2076
L8.43759 -43.73
L8.31526 -43.2501
L8.20136 -42.768
L8.09593 -42.2838
L7.99899 -41.7976
L7.91059 -41.3098
L7.83074 -40.8203
L7.75948 -40.3293
L7.69681 -39.837
L7.64277 -39.3436
L7.59736 -38.8491
L7.56061 -38.3538
L7.53252 -37.8577
L7.5131 -37.3611
L7.50236 -36.8641
L7.5003 -36.3668
L7.50692 -35.8694
L7.52222 -35.372
L7.54619 -34.8748
L7.57884 -34.378
L7.62013 -33.8817
L7.67008 -33.386
L7.72865 -32.8911
L7.79584 -32.3971
L7.87161 -31.9043
L7.95596 -31.4126
L8.04884 -30.9224
L8.15025 -30.4338
L8.26013 -29.9468
L8.37846 -29.4617
L8.50521 -28.9786
L8.64034 -28.4976
L8.78379 -28.0189
L8.93554 -27.5426
L9.09553 -27.0689
L9.26372 -26.5979
L9.44005 -26.1298
L9.62447 -25.6647
L9.81693 -25.2027
L10.0174 -24.744
L10.2257 -24.2888
L10.4419 -23.8371
L10.6659 -23.3891
L10.8976 -22.945
L11.1369 -22.5049
L11.3838 -22.0688
L11.6383 -21.637
L11.9001 -21.2096
L12.1693 -20.7867
L12.4457 -20.3684
L12.7293 -19.9549
L13.02 -19.5462
L13.3177 -19.1426
L13.6224 -18.7441
L13.9338 -18.3509
L14.2519 -17.963
L14.5767 -17.5807
L14.908 -17.2039
L15.2457 -16.8329
L15.5898 -16.4677
L15.94 -16.1085
L16.2964 -15.7553
z
" id="C0_2_413c0160e1"/>
    </defs>
    <g clip-path="url(#p1bffca34e9)">
     <use style="fill:#ff0000;stroke:#000000;stroke-width:2.0;" x="0.0" xlink:href="#C0_0_a811fe30f3" y="72.0"/>
    </g>
    <g clip-path="url(#p1bffca34e9)">
     <use style="fill:#ffffff;stroke:#000000;stroke-width:2.0;" x="0.0" xlink:href="#C0_1_b8780ca74d" y="72.0"/>
    </g>
    <g clip-path="url(#p1bffca34e9)">
     <use style="fill:#ffffff;stroke:#000000;stroke-width:2.0;" x="0.0" xlink:href="#C0_2_413c0160e1" y="72.0"/>
    </g>
   </g>
  </g>
 </g>
 <defs>
  <clipPath id="p1bffca34e9">
   <rect height="72.0" width="72.0" x="0.0" y="0.0"/>
  </clipPath>
 </defs>
</svg>
