<?xml version="1.0" encoding="utf-8" standalone="no"?>
<!DOCTYPE svg PUBLIC "-//W3C//DTD SVG 1.1//EN"
  "http://www.w3.org/Graphics/SVG/1.1/DTD/svg11.dtd">
<!-- Created with matplotlib (http://matplotlib.org/) -->
<svg height="72pt" version="1.1" viewBox="0 0 72 72" width="72pt" xmlns="http://www.w3.org/2000/svg" xmlns:xlink="http://www.w3.org/1999/xlink">
 <defs>
  <style type="text/css">
*{stroke-linecap:butt;stroke-linejoin:round;}
  </style>
 </defs>
 <g id="figure_1">
  <g id="patch_1">
   <path d="
M0 72
L72 72
L72 0
L0 0
z
" style="fill:none;"/>
  </g>
  <g id="axes_1">
   <g id="PatchCollection_1">
    <defs>
     <path d="
M36 -7.5
C43.5583 -7.5 50.808 -10.5029 56.1525 -15.8475
C61.4971 -21.192 64.5 -28.4417 64.5 -36
C64.5 -43.5583 61.4971 -50.808 56.1525 -56.1525
C50.808 -61.4971 43.5583 -64.5 36 -64.5
C28.4417 -64.5 21.192 -61.4971 15.8475 -56.1525
C10.5029 -50.808 7.5 -43.5583 7.5 -36
C7.5 -28.4417 10.5029 -21.192 15.8475 -15.8475
C21.192 -10.5029 28.4417 -7.5 36 -7.5
z
" id="C0_0_a811fe30f3"/>
     <path d="
M36.5913 -7.52029
L37.0239 -7.60402
L37.4512 -7.69962
L37.8726 -7.80673
L38.2878 -7.92495
L38.6965 -8.05389
L39.0982 -8.19312
L39.4928 -8.34222
L39.8801 -8.50076
L40.2597 -8.66829
L40.6315 -8.84439
L40.9955 -9.02863
L41.3514 -9.22056
L41.6992 -9.41978
L42.0389 -9.62586
L42.3703 -9.83841
L42.6935 -10.057
L43.0086 -10.2813
L43.3154 -10.5109
L43.6141 -10.7455
L43.9048 -10.9847
L44.1874 -11.2282
L44.4621 -11.4756
L44.7289 -11.7267
L44.9881 -11.9812
L45.2396 -12.2388
L45.4836 -12.4992
L45.7202 -12.7623
L45.9496 -13.0277
L46.1718 -13.2953
L46.3871 -13.5648
L46.5955 -13.8361
L46.7972 -14.1089
L46.9923 -14.3831
L47.181 -14.6586
L47.3633 -14.9351
L47.5396 -15.2126
L47.7097 -15.4909
L47.874 -15.7699
L48.0326 -16.0495
L48.1855 -16.3296
L48.3329 -16.6101
L48.475 -16.8908
L48.6118 -17.1718
L48.7435 -17.453
L48.8702 -17.7342
L48.992 -18.0154
L49.1091 -18.2966
L49.2215 -18.5778
L49.3293 -18.8588
L49.4327 -19.1396
L49.5318 -19.4203
L49.6266 -19.7007
L49.7172 -19.9809
L49.8038 -20.2608
L49.8864 -20.5404
L49.9651 -20.8197
L50.04 -21.0987
L50.1111 -21.3774
L50.1786 -21.6558
L50.2425 -21.9339
L50.3029 -22.2116
L50.3599 -22.489
L50.4134 -22.7661
L50.4637 -23.0429
L50.5106 -23.3193
L50.5544 -23.5955
L50.5949 -23.8714
L50.6324 -24.1471
L50.6667 -24.4225
L50.6981 -24.6976
L50.7264 -24.9726
L50.7518 -25.2473
L50.7743 -25.5219
L50.7939 -25.7963
L50.8106 -26.0706
L50.8245 -26.3448
L50.8356 -26.6188
L50.8439 -26.8928
L50.8494 -27.1668
L50.8523 -27.4407
L50.8496 -27.7147
L50.8443 -27.9886
L50.8362 -28.2626
L50.8255 -28.5367
L50.812 -28.8109
L50.7959 -29.0852
L50.777 -29.3597
L50.7555 -29.6343
L50.7313 -29.9091
L50.7044 -30.1841
L50.6748 -30.4594
L50.6424 -30.7349
L50.6073 -31.0107
L50.5695 -31.2868
L50.5289 -31.5632
L50.4855 -31.84
L50.4393 -32.1171
L50.3902 -32.3946
L50.3383 -32.6725
L50.2835 -32.9507
L50.2258 -33.2294
L50.1651 -33.5085
L50.1015 -33.7881
L50.0348 -34.068
L49.9651 -34.3485
L49.8923 -34.6293
L49.8164 -34.9106
L49.7373 -35.1924
L49.6549 -35.4746
L49.5693 -35.7572
L49.4804 -36.0402
L49.3881 -36.3237
L49.2924 -36.6076
L49.1933 -36.8918
L49.0906 -37.1763
L48.9843 -37.4612
L48.8744 -37.7464
L48.7608 -38.0318
L48.6434 -38.3174
L48.5223 -38.6032
L48.3972 -38.8891
L48.2683 -39.175
L48.1353 -39.4609
L47.9983 -39.7467
L47.8571 -40.0324
L47.7118 -40.3178
L47.5622 -40.6029
L47.4083 -40.8876
L47.25 -41.1717
L47.0873 -41.4551
L46.92 -41.7378
L46.7482 -42.0196
L46.5718 -42.3003
L46.3907 -42.5799
L46.2049 -42.858
L46.0143 -43.1347
L45.8188 -43.4096
L45.6185 -43.6827
L45.4133 -43.9536
L45.203 -44.2222
L44.9878 -44.4883
L44.7676 -44.7516
L44.5423 -45.012
L44.3119 -45.269
L44.0764 -45.5225
L43.8359 -45.7721
L43.5902 -46.0177
L43.3395 -46.2588
L43.0837 -46.4952
L42.8229 -46.7266
L42.5571 -46.9526
L42.2864 -47.1729
L42.0107 -47.3871
L41.7303 -47.5949
L41.4451 -47.796
L41.1553 -47.9899
L40.8609 -48.1764
L40.5622 -48.3551
L40.2591 -48.5256
L39.952 -48.6877
L39.6408 -48.8409
L39.3259 -48.9849
L39.0074 -49.1195
L38.6855 -49.2444
L38.3604 -49.3592
L38.0324 -49.4639
L37.7017 -49.558
L37.3685 -49.6415
L37.0331 -49.7142
L36.6958 -49.7759
L36.3569 -49.8266
L36.0166 -49.8662
L35.6752 -49.8946
L35.3331 -49.9119
L34.9905 -49.9181
L34.6477 -49.9133
L34.3049 -49.8975
L33.9626 -49.871
L33.6209 -49.8338
L33.2802 -49.7862
L32.9407 -49.7283
L32.6027 -49.6605
L32.2664 -49.5828
L31.9321 -49.4957
L31.6 -49.3994
L31.2703 -49.2942
L30.9433 -49.1804
L30.619 -49.0582
L30.2978 -48.9281
L29.9798 -48.7903
L29.6651 -48.6451
L29.3539 -48.4928
L29.0463 -48.3339
L28.7424 -48.1684
L28.4424 -47.9969
L28.1463 -47.8195
L27.8543 -47.6366
L27.5663 -47.4484
L27.2826 -47.2553
L27.0031 -47.0574
L26.7279 -46.855
L26.457 -46.6485
L26.1904 -46.438
L25.9283 -46.2237
L25.6705 -46.0059
L25.4172 -45.7848
L25.1682 -45.5606
L24.9237 -45.3335
L24.6836 -45.1036
L24.4478 -44.8712
L24.2164 -44.6364
L23.9894 -44.3993
L23.7667 -44.1602
L23.5483 -43.9191
L23.3342 -43.6762
L23.1243 -43.4316
L22.9186 -43.1854
L22.7171 -42.9378
L22.5197 -42.6888
L22.3264 -42.4385
L22.1371 -42.187
L21.9518 -41.9345
L21.7705 -41.6809
L21.5931 -41.4263
L21.4195 -41.1709
L21.2498 -40.9147
L21.0838 -40.6577
L20.9216 -40.3999
L20.763 -40.1415
L20.6081 -39.8824
L20.4568 -39.6228
L20.309 -39.3626
L20.1648 -39.1018
L20.024 -38.8405
L19.8867 -38.5788
L19.7527 -38.3166
L19.6222 -38.0539
L19.4949 -37.7908
L19.3709 -37.5272
L19.2502 -37.2632
L19.1327 -36.9988
L19.0184 -36.734
L18.9073 -36.4688
L18.7993 -36.2031
L18.6944 -35.937
L18.5926 -35.6705
L18.4939 -35.4035
L18.3982 -35.1361
L18.3055 -34.8682
L18.2159 -34.5999
L18.1293 -34.331
L18.0456 -34.0617
L17.9649 -33.7918
L17.8872 -33.5214
L17.8125 -33.2505
L17.7407 -32.979
L17.6719 -32.7068
L17.606 -32.4341
L17.5432 -32.1607
L17.4832 -31.8866
L17.4263 -31.6119
L17.3724 -31.3365
L17.3214 -31.0603
L17.2735 -30.7833
L17.2286 -30.5056
L17.1868 -30.227
L17.1481 -29.9477
L17.1124 -29.6674
L17.0799 -29.3863
L17.0506 -29.1042
L17.0245 -28.8213
L17.0016 -28.5373
L16.982 -28.2524
L16.9658 -27.9665
L16.9529 -27.6795
L16.9434 -27.3915
L16.9375 -27.1024
L16.935 -26.8122
L16.9362 -26.5209
L16.941 -26.2285
L16.9496 -25.9349
L16.9619 -25.6401
L16.9781 -25.3442
L16.9983 -25.0471
L17.0225 -24.7488
L17.0508 -24.4492
L17.0834 -24.1485
L17.1202 -23.8466
L17.1614 -23.5434
L17.2072 -23.2391
L17.2575 -22.9335
L17.3126 -22.6268
L17.3725 -22.3189
L17.4373 -22.0098
L17.5072 -21.6996
L17.5823 -21.3883
L17.6627 -21.0759
L17.7486 -20.7625
L17.8401 -20.4481
L17.9373 -20.1328
L18.0403 -19.8166
L18.1494 -19.4996
L18.2647 -19.1819
L18.3863 -18.8635
L18.5144 -18.5445
L18.6491 -18.2251
L18.7906 -17.9053
L18.9391 -17.5853
L19.0948 -17.2651
L19.2577 -16.945
L19.428 -16.625
L19.606 -16.3054
L19.7917 -15.9863
L19.9854 -15.6679
L20.1872 -15.3503
L20.3972 -15.0339
L20.6156 -14.7189
L20.8426 -14.4054
L21.0782 -14.0937
L21.3226 -13.7842
L21.5759 -13.4771
L21.8382 -13.1728
L22.1096 -12.8715
L22.3901 -12.5736
L22.6799 -12.2794
L22.979 -11.9893
L23.2873 -11.7038
L23.6049 -11.4232
L23.9318 -11.1479
L24.2679 -10.8784
L24.613 -10.6151
L24.9672 -10.3584
L25.3302 -10.1089
L25.7019 -9.86696
L26.0821 -9.63311
L26.4704 -9.40782
L26.9244 -9.19155
L27.3973 -8.98364
L27.8728 -8.82936
L28.3508 -8.68336
L28.8311 -8.54568
L29.3136 -8.41637
L29.7981 -8.29545
L30.2845 -8.18298
L30.7727 -8.07898
L31.2624 -7.98348
L31.7536 -7.89652
L32.2461 -7.81812
L32.7398 -7.7483
L33.2344 -7.68709
L33.7299 -7.6345
L34.226 -7.59056
L34.7227 -7.55526
L35.2198 -7.52864
L35.7171 -7.51068
z
" id="C0_1_d1cd8cfa6d"/>
     <path d="
M45.1222 -62.9823
L44.6818 -63.0634
L44.2407 -63.1427
L43.7991 -63.2201
L43.357 -63.2961
L42.9146 -63.3706
L42.472 -63.4439
L42.0292 -63.5161
L41.5862 -63.5873
L41.1433 -63.6577
L40.7005 -63.7272
L40.2577 -63.7961
L39.8152 -63.8643
L39.3729 -63.932
L38.9308 -63.999
L38.4891 -64.0654
L38.0477 -64.1312
L37.6066 -64.1962
L37.166 -64.2605
L36.7259 -64.324
L36.2861 -64.3865
L36.344 -64.4479
L36.8413 -64.4979
L37.3384 -64.4876
L37.835 -64.4686
L38.3311 -64.4409
L38.8265 -64.4045
L39.321 -64.3595
L39.8145 -64.3059
L40.3068 -64.2436
L40.7978 -64.1727
L41.2874 -64.0933
L41.7753 -64.0052
L42.2615 -63.9087
L42.7458 -63.8037
L43.2281 -63.6901
L43.7081 -63.5682
L44.1858 -63.4378
z
" id="C0_2_b42ad39d8a"/>
    </defs>
    <g clip-path="url(#p1bffca34e9)">
     <use style="fill:#ff0000;stroke:#000000;stroke-width:2.0;" x="0.0" xlink:href="#C0_0_a811fe30f3" y="72.0"/>
    </g>
    <g clip-path="url(#p1bffca34e9)">
     <use style="fill:#ffffff;stroke:#000000;stroke-width:2.0;" x="0.0" xlink:href="#C0_1_d1cd8cfa6d" y="72.0"/>
    </g>
    <g clip-path="url(#p1bffca34e9)">
     <use style="fill:#ffffff;stroke:#000000;stroke-width:2.0;" x="0.0" xlink:href="#C0_2_b42ad39d8a" y="72.0"/>
    </g>
   </g>
  </g>
 </g>
 <defs>
  <clipPath id="p1bffca34e9">
   <rect height="72.0" width="72.0" x="0.0" y="0.0"/>
  </clipPath>
 </defs>
</svg>
