<?xml version="1.0" encoding="utf-8" standalone="no"?>
<!DOCTYPE svg PUBLIC "-//W3C//DTD SVG 1.1//EN"
  "http://www.w3.org/Graphics/SVG/1.1/DTD/svg11.dtd">
<!-- Created with matplotlib (http://matplotlib.org/) -->
<svg height="72pt" version="1.1" viewBox="0 0 72 72" width="72pt" xmlns="http://www.w3.org/2000/svg" xmlns:xlink="http://www.w3.org/1999/xlink">
 <defs>
  <style type="text/css">
*{stroke-linecap:butt;stroke-linejoin:round;}
  </style>
 </defs>
 <g id="figure_1">
  <g id="patch_1">
   <path d="
M0 72
L72 72
L72 0
L0 0
z
" style="fill:none;"/>
  </g>
  <g id="axes_1">
   <g id="PatchCollection_1">
    <defs>
     <path d="
M36 -7.5
C43.5583 -7.5 50.808 -10.5029 56.1525 -15.8475
C61.4971 -21.192 64.5 -28.4417 64.5 -36
C64.5 -43.5583 61.4971 -50.808 56.1525 -56.1525
C50.808 -61.4971 43.5583 -64.5 36 -64.5
C28.4417 -64.5 21.192 -61.4971 15.8475 -56.1525
C10.5029 -50.808 7.5 -43.5583 7.5 -36
C7.5 -28.4417 10.5029 -21.192 15.8475 -15.8475
C21.192 -10.5029 28.4417 -7.5 36 -7.5
z
" id="C0_0_a811fe30f3"/>
     <path d="
M21.011 -60.0412
L21.1054 -59.8814
L21.1997 -59.7202
L21.2939 -59.5575
L21.3881 -59.3933
L21.4824 -59.2276
L21.5766 -59.0605
L21.6709 -58.8917
L21.7653 -58.7214
L21.8598 -58.5496
L21.9544 -58.3761
L22.0491 -58.2009
L22.144 -58.0241
L22.2391 -57.8457
L22.3344 -57.6655
L22.4298 -57.4835
L22.5255 -57.2997
L22.6215 -57.1142
L22.7177 -56.9268
L22.8142 -56.7375
L22.911 -56.5462
L23.0081 -56.353
L23.1055 -56.1579
L23.2033 -55.9607
L23.3013 -55.7614
L23.3998 -55.56
L23.4985 -55.3565
L23.5977 -55.1508
L23.6972 -54.9429
L23.797 -54.7327
L23.8973 -54.5202
L23.9979 -54.3054
L24.0989 -54.0881
L24.2002 -53.8685
L24.3019 -53.6464
L24.404 -53.4219
L24.5064 -53.1947
L24.6091 -52.9651
L24.7122 -52.7328
L24.8155 -52.4978
L24.9191 -52.2602
L25.023 -52.0199
L25.1271 -51.7768
L25.2314 -51.531
L25.3358 -51.2824
L25.4403 -51.0309
L25.5449 -50.7766
L25.6496 -50.5194
L25.7541 -50.2594
L25.8586 -49.9964
L25.9629 -49.7305
L26.0669 -49.4617
L26.1706 -49.19
L26.2739 -48.9153
L26.3767 -48.6377
L26.4789 -48.3572
L26.5803 -48.0738
L26.6808 -47.7875
L26.7804 -47.4983
L26.8788 -47.2063
L26.976 -46.9115
L27.0716 -46.6139
L27.1657 -46.3136
L27.258 -46.0107
L27.3482 -45.7052
L27.4362 -45.3972
L27.5218 -45.0867
L27.6047 -44.7739
L27.6846 -44.4588
L27.7614 -44.1415
L27.8348 -43.8223
L27.9044 -43.501
L27.97 -43.178
L28.0313 -42.8533
L28.0879 -42.5271
L28.1397 -42.1995
L28.1862 -41.8706
L28.2271 -41.5407
L28.2622 -41.2099
L28.291 -40.8784
L28.3135 -40.5463
L28.3291 -40.2138
L28.3377 -39.8812
L28.339 -39.5486
L28.3328 -39.2161
L28.3188 -38.8841
L28.2969 -38.5526
L28.2669 -38.2218
L28.2288 -37.892
L28.1823 -37.5632
L28.1276 -37.2357
L28.0646 -36.9097
L27.9934 -36.5852
L27.914 -36.2624
L27.8266 -35.9415
L27.7312 -35.6227
L27.6283 -35.3059
L27.5178 -34.9914
L27.4002 -34.6793
L27.2756 -34.3696
L27.1444 -34.0625
L27.0069 -33.758
L26.8635 -33.4562
L26.7144 -33.1571
L26.5601 -32.861
L26.4008 -32.5677
L26.2369 -32.2774
L26.0689 -31.99
L25.8969 -31.7057
L25.7214 -31.4245
L25.5426 -31.1464
L25.361 -30.8714
L25.1767 -30.5996
L24.9902 -30.331
L24.8015 -30.0655
L24.6112 -29.8033
L24.4193 -29.5442
L24.2261 -29.2883
L24.0319 -29.0357
L23.8368 -28.7862
L23.6411 -28.54
L23.4449 -28.297
L23.2484 -28.0571
L23.0518 -27.8204
L22.8551 -27.5868
L22.6587 -27.3564
L22.4625 -27.129
L22.2666 -26.9048
L22.0713 -26.6836
L21.8765 -26.4655
L21.6824 -26.2503
L21.4891 -26.0381
L21.2965 -25.8289
L21.1049 -25.6226
L20.9141 -25.4191
L20.7243 -25.2185
L20.5356 -25.0207
L20.3478 -24.8257
L20.1612 -24.6334
L19.9757 -24.4438
L19.7913 -24.2568
L19.608 -24.0724
L19.4259 -23.8907
L19.245 -23.7114
L19.0652 -23.5347
L18.8867 -23.3604
L18.7092 -23.1885
L18.533 -23.0191
L18.3579 -22.8519
L18.184 -22.6871
L18.0112 -22.5245
L17.8395 -22.3641
L17.669 -22.206
L17.4996 -22.05
L17.3312 -21.8961
L17.1639 -21.7443
L16.9977 -21.5946
L16.8324 -21.4468
L16.6682 -21.3011
L16.505 -21.1573
L16.3427 -21.0154
L16.1813 -20.8754
L16.0208 -20.7373
L15.8613 -20.601
L15.7025 -20.4665
L15.5446 -20.3338
L15.3875 -20.2029
L15.2311 -20.0736
L15.0755 -19.9462
L14.9206 -19.8203
L14.7663 -19.6962
L14.6127 -19.5737
L14.4597 -19.4529
L14.3073 -19.3337
L14.1555 -19.2161
L14.0042 -19.1001
L13.8533 -18.9856
L13.7029 -18.8728
L13.553 -18.7615
L13.149 -18.6518
L12.8552 -18.9682
L12.5685 -19.3696
L12.2889 -19.7761
L12.0166 -20.1875
L11.7515 -20.6037
L11.4939 -21.0246
L11.2437 -21.4501
L11.001 -21.88
L10.766 -22.3142
L10.5386 -22.7526
L10.319 -23.195
L10.1072 -23.6413
L9.90336 -24.0914
L9.70741 -24.5451
L9.51948 -25.0023
L9.33962 -25.4628
L9.16787 -25.9266
L9.0043 -26.3934
L8.84895 -26.8631
L8.70187 -27.3357
L8.56311 -27.8108
L8.4327 -28.2885
L8.3107 -28.7685
L8.19712 -29.2507
L8.09202 -29.735
L7.99541 -30.2212
L7.90734 -30.7091
L7.82783 -31.1987
L7.75689 -31.6897
L7.69456 -32.182
L7.64085 -32.6755
L7.59578 -33.17
L7.55936 -33.6654
L7.53161 -34.1615
L7.51252 -34.6581
L7.50212 -35.1552
L7.50039 -35.6525
L7.50735 -36.1499
L7.52299 -36.6472
L7.5473 -37.1444
L7.58027 -37.6412
L7.62191 -38.1375
L7.67218 -38.6332
L7.73109 -39.1281
L7.79861 -39.622
L7.87472 -40.1148
L7.95939 -40.6063
L8.05261 -41.0965
L8.15434 -41.5851
L8.26455 -42.072
L8.38321 -42.557
L8.51028 -43.0401
L8.64573 -43.521
L8.78951 -43.9996
L8.94158 -44.4758
L9.10189 -44.9494
L9.27039 -45.4203
L9.44704 -45.8883
L9.63177 -46.3533
L9.82453 -46.8151
L10.0253 -47.2736
L10.2339 -47.7288
L10.4504 -48.1803
L10.6747 -48.6281
L10.9067 -49.0721
L11.1463 -49.5121
L11.3936 -49.948
L11.6483 -50.3796
L11.9104 -50.8068
L12.1798 -51.2296
L12.4566 -51.6477
L12.7405 -52.061
L13.0314 -52.4695
L13.3294 -52.8729
L13.6343 -53.2712
L13.946 -53.6642
L14.2644 -54.0519
L14.5894 -54.434
L14.921 -54.8105
L15.2589 -55.1813
L15.6032 -55.5463
L15.9537 -55.9053
L16.3103 -56.2582
L16.6729 -56.605
L17.0414 -56.9455
L17.4157 -57.2796
L17.7956 -57.6073
L18.1811 -57.9283
L18.572 -58.2427
L18.9682 -58.5503
L19.3696 -58.851
L19.7761 -59.1448
L20.1875 -59.4315
z
" id="C0_1_b0593087f8"/>
     <path d="
M58.5111 -53.3903
L58.3687 -53.2718
L58.2259 -53.1519
L58.0826 -53.0306
L57.9389 -52.908
L57.7946 -52.7839
L57.6498 -52.6585
L57.5045 -52.5316
L57.3585 -52.4033
L57.2119 -52.2735
L57.0647 -52.1423
L56.9168 -52.0096
L56.7681 -51.8753
L56.6187 -51.7396
L56.4685 -51.6023
L56.3176 -51.4635
L56.1658 -51.323
L56.0131 -51.181
L55.8596 -51.0373
L55.7051 -50.8919
L55.5498 -50.7449
L55.3934 -50.5961
L55.2361 -50.4455
L55.0778 -50.2932
L54.9184 -50.1391
L54.758 -49.9831
L54.5965 -49.8252
L54.4339 -49.6654
L54.2702 -49.5036
L54.1054 -49.3399
L53.9394 -49.1741
L53.7723 -49.0063
L53.6039 -48.8364
L53.4344 -48.6644
L53.2637 -48.4902
L53.0917 -48.3137
L52.9186 -48.1351
L52.7442 -47.9541
L52.5686 -47.7708
L52.3918 -47.5852
L52.2138 -47.3971
L52.0346 -47.2066
L51.8542 -47.0137
L51.6726 -46.8182
L51.4898 -46.6202
L51.306 -46.4195
L51.121 -46.2163
L50.9349 -46.0104
L50.7479 -45.8018
L50.5599 -45.5904
L50.3709 -45.3763
L50.1811 -45.1594
L49.9905 -44.9397
L49.7991 -44.7171
L49.6072 -44.4917
L49.4147 -44.2633
L49.2218 -44.032
L49.0285 -43.7978
L48.835 -43.5605
L48.6415 -43.3203
L48.4481 -43.0771
L48.2549 -42.8308
L48.0621 -42.5816
L47.8699 -42.3292
L47.6785 -42.0739
L47.4881 -41.8155
L47.2989 -41.554
L47.1112 -41.2895
L46.9251 -41.022
L46.7411 -40.7515
L46.5593 -40.4779
L46.38 -40.2014
L46.2036 -39.9219
L46.0304 -39.6394
L45.8606 -39.354
L45.6947 -39.0658
L45.533 -38.7747
L45.3758 -38.4808
L45.2234 -38.1841
L45.0763 -37.8848
L44.9348 -37.5828
L44.7992 -37.2783
L44.6698 -36.9712
L44.5471 -36.6617
L44.4312 -36.3499
L44.3225 -36.0359
L44.2212 -35.7197
L44.1275 -35.4015
L44.0418 -35.0814
L43.964 -34.7594
L43.8944 -34.4358
L43.8331 -34.1107
L43.78 -33.7842
L43.7353 -33.4565
L43.6988 -33.1278
L43.6705 -32.7981
L43.6503 -32.4678
L43.638 -32.1369
L43.6336 -31.8056
L43.6367 -31.4741
L43.6471 -31.1427
L43.6647 -30.8114
L43.689 -30.4805
L43.7199 -30.1502
L43.757 -29.8205
L43.8 -29.4918
L43.8486 -29.1641
L43.9026 -28.8377
L43.9615 -28.5126
L44.0251 -28.1891
L44.0931 -27.8673
L44.1652 -27.5473
L44.241 -27.2292
L44.3204 -26.9132
L44.403 -26.5994
L44.4886 -26.2879
L44.577 -25.9788
L44.6678 -25.6722
L44.761 -25.3681
L44.8562 -25.0667
L44.9533 -24.768
L45.0521 -24.472
L45.1524 -24.1789
L45.254 -23.8886
L45.3569 -23.6012
L45.4608 -23.3167
L45.5656 -23.0353
L45.6712 -22.7568
L45.7775 -22.4812
L45.8844 -22.2087
L45.9917 -21.9393
L46.0995 -21.6728
L46.2075 -21.4093
L46.3158 -21.1489
L46.4242 -20.8914
L46.5328 -20.6369
L46.6413 -20.3854
L46.7499 -20.1368
L46.8584 -19.8912
L46.9668 -19.6484
L47.0751 -19.4085
L47.1832 -19.1715
L47.2911 -18.9372
L47.3988 -18.7058
L47.5062 -18.477
L47.6134 -18.251
L47.7203 -18.0276
L47.827 -17.8069
L47.9333 -17.5888
L48.0393 -17.3732
L48.145 -17.1602
L48.2504 -16.9496
L48.3554 -16.7415
L48.4602 -16.5357
L48.5646 -16.3324
L48.6688 -16.1313
L48.7726 -15.9326
L48.8761 -15.7361
L48.9794 -15.5418
L49.0823 -15.3496
L49.1851 -15.1596
L49.2875 -14.9717
L49.3897 -14.7859
L49.4917 -14.6021
L49.5935 -14.4203
L49.6951 -14.2404
L49.7965 -14.0625
L49.8978 -13.8864
L49.9989 -13.7123
L50.0999 -13.5399
L50.2008 -13.3694
L50.3016 -13.2006
L50.4024 -13.0336
L50.5031 -12.8683
L50.6038 -12.7048
L50.7046 -12.5429
L50.8054 -12.3826
L50.9062 -12.224
L51.0072 -12.067
L51.5622 -11.9117
L51.9766 -12.1239
L52.386 -12.3992
L52.7905 -12.6816
L53.1898 -12.9711
L53.584 -13.2677
L53.9727 -13.5711
L54.356 -13.8814
L54.7337 -14.1985
L55.1057 -14.5221
L55.4719 -14.8524
L55.8321 -15.189
L56.1863 -15.532
L56.5343 -15.8813
L56.8761 -16.2366
L57.2116 -16.598
L57.5405 -16.9653
L57.8629 -17.3384
L58.1787 -17.7172
L58.4877 -18.1015
L58.7898 -18.4913
L59.085 -18.8864
L59.3732 -19.2868
L59.6542 -19.6922
L59.9281 -20.1026
L60.1946 -20.5179
L60.4538 -20.9378
L60.7056 -21.3624
L60.9498 -21.7914
L61.1864 -22.2247
L61.4153 -22.6622
L61.6365 -23.1038
L61.8499 -23.5494
L62.0554 -23.9987
L62.253 -24.4517
L62.4426 -24.9081
L62.6241 -25.368
L62.7975 -25.8311
L62.9628 -26.2973
L63.1198 -26.7665
L63.2686 -27.2385
L63.4091 -27.7131
L63.5412 -28.1903
L63.6649 -28.6698
L63.7803 -29.1516
L63.8871 -29.6354
L63.9854 -30.1212
L64.0753 -30.6088
L64.1565 -31.0981
L64.2292 -31.5888
L64.2933 -32.0809
L64.3488 -32.5741
L64.3957 -33.0684
L64.4339 -33.5636
L64.4634 -34.0596
L64.4843 -34.5561
L64.4965 -35.0531
L64.5 -35.5504
L64.4948 -36.0478
L64.4809 -36.5451
L64.4584 -37.0424
L64.4272 -37.5393
L64.3873 -38.0357
L64.3388 -38.5315
L64.2817 -39.0266
L64.216 -39.5207
L64.1416 -40.0137
L64.0587 -40.5055
L63.9672 -40.996
L63.8672 -41.4849
L63.7588 -41.9722
L63.6418 -42.4576
L63.5165 -42.9411
L63.3828 -43.4225
L63.2407 -43.9016
L63.0903 -44.3783
L62.9317 -44.8524
L62.7649 -45.3238
L62.5899 -45.7924
L62.4068 -46.2581
L62.2157 -46.7206
L62.0166 -47.1798
L61.8096 -47.6356
L61.5947 -48.0879
L61.372 -48.5365
L61.1415 -48.9813
L60.9035 -49.4221
L60.6578 -49.8588
L60.4046 -50.2913
L60.144 -50.7195
L59.8761 -51.1432
L59.6008 -51.5622
L59.3184 -51.9766
L59.0289 -52.386
z
" id="C0_2_d213238b1c"/>
    </defs>
    <g clip-path="url(#p1bffca34e9)">
     <use style="fill:#ffffff;stroke:#000000;stroke-width:2.0;" x="0.0" xlink:href="#C0_0_a811fe30f3" y="72.0"/>
    </g>
    <g clip-path="url(#p1bffca34e9)">
     <use style="fill:#ff0000;stroke:#000000;stroke-width:2.0;" x="0.0" xlink:href="#C0_1_b0593087f8" y="72.0"/>
    </g>
    <g clip-path="url(#p1bffca34e9)">
     <use style="fill:#ff0000;stroke:#000000;stroke-width:2.0;" x="0.0" xlink:href="#C0_2_d213238b1c" y="72.0"/>
    </g>
   </g>
  </g>
 </g>
 <defs>
  <clipPath id="p1bffca34e9">
   <rect height="72.0" width="72.0" x="0.0" y="0.0"/>
  </clipPath>
 </defs>
</svg>
