<?xml version="1.0" encoding="utf-8" standalone="no"?>
<!DOCTYPE svg PUBLIC "-//W3C//DTD SVG 1.1//EN"
  "http://www.w3.org/Graphics/SVG/1.1/DTD/svg11.dtd">
<!-- Created with matplotlib (http://matplotlib.org/) -->
<svg height="72pt" version="1.1" viewBox="0 0 72 72" width="72pt" xmlns="http://www.w3.org/2000/svg" xmlns:xlink="http://www.w3.org/1999/xlink">
 <defs>
  <style type="text/css">
*{stroke-linecap:butt;stroke-linejoin:round;}
  </style>
 </defs>
 <g id="figure_1">
  <g id="patch_1">
   <path d="
M0 72
L72 72
L72 0
L0 0
z
" style="fill:none;"/>
  </g>
  <g id="axes_1">
   <g id="PatchCollection_1">
    <defs>
     <path d="
M36 -7.5
C43.5583 -7.5 50.808 -10.5029 56.1525 -15.8475
C61.4971 -21.192 64.5 -28.4417 64.5 -36
C64.5 -43.5583 61.4971 -50.808 56.1525 -56.1525
C50.808 -61.4971 43.5583 -64.5 36 -64.5
C28.4417 -64.5 21.192 -61.4971 15.8475 -56.1525
C10.5029 -50.808 7.5 -43.5583 7.5 -36
C7.5 -28.4417 10.5029 -21.192 15.8475 -15.8475
C21.192 -10.5029 28.4417 -7.5 36 -7.5
z
" id="C0_0_a811fe30f3"/>
     <path d="
M52.7604 -58.7395
L52.635 -58.4975
L52.537 -58.2241
L52.4605 -57.9248
L52.4001 -57.6045
L52.3516 -57.2675
L52.3114 -56.9171
L52.2767 -56.556
L52.2453 -56.1868
L52.2155 -55.8111
L52.186 -55.4306
L52.1558 -55.0465
L52.1242 -54.6599
L52.0905 -54.2716
L52.0545 -53.8826
L52.0157 -53.4933
L51.9741 -53.1044
L51.9294 -52.7163
L51.8817 -52.3296
L51.8308 -51.9444
L51.7768 -51.5612
L51.7198 -51.1802
L51.6598 -50.8017
L51.5968 -50.426
L51.531 -50.053
L51.4624 -49.6831
L51.3913 -49.3164
L51.3175 -48.953
L51.2414 -48.5929
L51.163 -48.2363
L51.0823 -47.8832
L50.9996 -47.5337
L50.9149 -47.1878
L50.8283 -46.8455
L50.7399 -46.5069
L50.6499 -46.1719
L50.5582 -45.8405
L50.4651 -45.5128
L50.3706 -45.1887
L50.2747 -44.8682
L50.1775 -44.5512
L50.0792 -44.2377
L49.9798 -43.9278
L49.8793 -43.6212
L49.7778 -43.318
L49.6754 -43.0181
L49.5721 -42.7215
L49.468 -42.428
L49.3631 -42.1377
L49.2574 -41.8505
L49.151 -41.5663
L49.0439 -41.285
L48.9361 -41.0066
L48.8277 -40.731
L48.7188 -40.458
L48.6092 -40.1878
L48.4991 -39.9201
L48.3884 -39.655
L48.2772 -39.3923
L48.1654 -39.1319
L48.0532 -38.8739
L47.9404 -38.618
L47.8271 -38.3644
L47.7133 -38.1128
L47.5991 -37.8632
L47.4843 -37.6155
L47.369 -37.3697
L47.2532 -37.1258
L47.1368 -36.8835
L47.02 -36.6429
L46.9026 -36.4039
L46.7846 -36.1665
L46.6661 -35.9305
L46.547 -35.6958
L46.4274 -35.4626
L46.3071 -35.2306
L46.1862 -34.9998
L46.0647 -34.7701
L45.9424 -34.5415
L45.8196 -34.3139
L45.696 -34.0873
L45.5716 -33.8616
L45.4465 -33.6367
L45.3207 -33.4126
L45.194 -33.1892
L45.0665 -32.9664
L44.8088 -32.7443
L44.6786 -32.5227
L44.5474 -32.3016
L44.4153 -32.081
L44.2821 -31.8607
L44.1478 -31.6407
L44.0124 -31.4211
L43.8759 -31.2016
L43.7383 -30.9823
L43.5994 -30.7631
L43.4592 -30.544
L43.3177 -30.3249
L43.1749 -30.1057
L43.0307 -29.8865
L42.885 -29.6671
L42.7379 -29.4475
L42.5892 -29.2277
L42.4389 -29.0077
L42.287 -28.7873
L42.1334 -28.5665
L41.978 -28.3453
L41.8209 -28.1236
L41.6619 -27.9015
L41.5009 -27.6787
L41.338 -27.4554
L41.1731 -27.2315
L41.0061 -27.0069
L40.8369 -26.7816
L40.6655 -26.5555
L40.4918 -26.3287
L40.3157 -26.101
L40.1372 -25.8725
L39.9562 -25.6432
L39.7727 -25.4129
L39.5865 -25.1817
L39.3976 -24.9495
L39.206 -24.7163
L39.0115 -24.4822
L38.814 -24.247
L38.6136 -24.0108
L38.4101 -23.7736
L38.2034 -23.5353
L37.9936 -23.2959
L37.7804 -23.0555
L37.5638 -22.814
L37.3438 -22.5715
L37.1203 -22.328
L36.8932 -22.0834
L36.6625 -21.8379
L36.428 -21.5914
L36.1898 -21.3439
L35.9477 -21.0956
L35.7017 -20.8464
L35.4518 -20.5964
L35.1978 -20.3457
L34.9398 -20.0943
L34.6778 -19.8423
L34.4117 -19.5898
L34.1414 -19.3369
L33.8671 -19.0836
L33.5886 -18.8302
L33.306 -18.5766
L33.0194 -18.323
L32.7288 -18.0696
L32.4343 -17.8164
L32.136 -17.5637
L31.8339 -17.3115
L31.5283 -17.0601
L31.2194 -16.8095
L30.9073 -16.56
L30.5923 -16.3117
L30.2749 -16.0647
L29.9553 -15.8193
L29.634 -15.5755
L29.3117 -15.3334
L28.989 -15.0933
L28.6668 -14.8551
L28.3461 -14.619
L28.0281 -14.3848
L27.7144 -14.1526
L27.4068 -13.9221
L27.1078 -13.693
L26.8203 -13.4649
L26.5479 -13.2371
L26.295 -13.0089
L26.0671 -12.7789
L25.8707 -12.5459
L25.7128 -12.3079
L25.6012 -12.0629
L25.5429 -11.809
L25.5433 -11.5442
L25.6053 -11.2674
L25.7288 -10.9785
L25.9106 -10.6784
L26.1458 -10.369
L26.4283 -10.053
L26.752 -9.73315
L27.1112 -9.41227
L27.5338 -9.0929
L28.01 -8.78652
L28.4887 -8.64291
L28.9697 -8.50763
L29.4527 -8.38073
L29.9378 -8.26224
L30.4248 -8.1522
L30.9134 -8.05064
L31.4036 -7.95759
L31.8952 -7.87309
L32.388 -7.79716
L32.8819 -7.72981
L33.3768 -7.67108
L33.8725 -7.62098
L34.3688 -7.57952
L34.8657 -7.54672
L35.3628 -7.52258
L35.8602 -7.50712
L36.3576 -7.50034
L36.8549 -7.50224
L37.3519 -7.51282
L37.8486 -7.53208
L38.3446 -7.56001
L38.84 -7.59661
L39.3345 -7.64185
L39.8279 -7.69574
L40.3202 -7.75824
L40.8112 -7.82935
L41.3007 -7.90904
L41.7887 -7.99728
L42.2748 -8.09406
L42.759 -8.19934
L43.2412 -8.31308
L43.7212 -8.43526
L44.1988 -8.56583
L44.6739 -8.70477
L45.1464 -8.85201
L45.6161 -9.00753
L46.0828 -9.17126
L46.5465 -9.34317
L47.007 -9.5232
L47.4641 -9.7113
L47.9178 -9.9074
L48.3678 -10.1115
L48.814 -10.3234
L49.2563 -10.5431
L49.6946 -10.7707
L50.1287 -11.0059
L50.5586 -11.2487
L50.984 -11.499
L51.4048 -11.7568
L51.8209 -12.022
L52.2322 -12.2945
L52.6386 -12.5743
L53.0399 -12.8611
L53.436 -13.155
L53.8268 -13.4559
L54.2121 -13.7636
L54.5919 -14.0781
L54.9661 -14.3993
L55.3345 -14.7271
L55.697 -15.0613
L56.0534 -15.4019
L56.4038 -15.7488
L56.748 -16.1019
L57.0858 -16.461
L57.4172 -16.8261
L57.7421 -17.197
L58.0604 -17.5737
L58.372 -17.9559
L58.6767 -18.3437
L58.9745 -18.7368
L59.2654 -19.1352
L59.5491 -19.5387
L59.8257 -19.9473
L60.095 -20.3607
L60.357 -20.7789
L60.6115 -21.2018
L60.8586 -21.6291
L61.0981 -22.0608
L61.3299 -22.4968
L61.554 -22.9369
L61.7704 -23.3809
L61.9789 -23.8288
L62.1794 -24.2804
L62.372 -24.7356
L62.5566 -25.1942
L62.7331 -25.6561
L62.9014 -26.1212
L63.0616 -26.5892
L63.2135 -27.0602
L63.3571 -27.5338
L63.4924 -28.01
L63.6193 -28.4887
L63.7378 -28.9697
L63.8478 -29.4527
L63.9494 -29.9378
L64.0424 -30.4248
L64.1269 -30.9134
L64.2028 -31.4036
L64.2702 -31.8952
L64.3289 -32.388
L64.379 -32.8819
L64.4205 -33.3768
L64.4533 -33.8725
L64.4774 -34.3688
L64.4929 -34.8657
L64.4997 -35.3628
L64.4978 -35.8602
L64.4872 -36.3576
L64.4679 -36.8549
L64.44 -37.3519
L64.4034 -37.8486
L64.3581 -38.3446
L64.3043 -38.84
L64.2418 -39.3345
L64.1707 -39.8279
L64.091 -40.3202
L64.0027 -40.8112
L63.9059 -41.3007
L63.8007 -41.7887
L63.6869 -42.2748
L63.5647 -42.759
L63.4342 -43.2412
L63.2952 -43.7212
L63.148 -44.1988
L62.9925 -44.6739
L62.8287 -45.1464
L62.6568 -45.6161
L62.4768 -46.0828
L62.2887 -46.5465
L62.0926 -47.007
L61.8885 -47.4641
L61.6766 -47.9178
L61.4569 -48.3678
L61.2293 -48.814
L60.9941 -49.2563
L60.7513 -49.6946
L60.501 -50.1287
L60.2432 -50.5586
L59.978 -50.984
L59.7055 -51.4048
L59.4257 -51.8209
L59.1389 -52.2322
L58.845 -52.6386
L58.5441 -53.0399
L58.2364 -53.436
L57.9219 -53.8268
L57.6007 -54.2121
L57.2729 -54.5919
L56.9387 -54.9661
L56.5981 -55.3345
L56.2512 -55.697
L55.8981 -56.0534
L55.539 -56.4038
L55.1739 -56.748
L54.803 -57.0858
L54.4263 -57.4172
L54.0441 -57.7421
L53.6563 -58.0604
z
" id="C0_1_d0cb2f665d"/>
     <path d="
M44.488 -63.1871
L43.973 -63.1576
L43.4492 -63.1245
L42.9195 -63.0862
L42.3865 -63.0415
L41.852 -62.9897
L41.3177 -62.9301
L40.785 -62.8624
L40.2551 -62.7864
L39.7288 -62.702
L39.2071 -62.6094
L38.6905 -62.5086
L38.1798 -62.3997
L37.6752 -62.283
L37.1774 -62.1588
L36.6865 -62.0273
L36.2029 -61.8889
L35.7268 -61.7438
L35.2584 -61.5923
L34.7978 -61.4348
L34.3451 -61.2715
L33.9004 -61.1029
L33.4637 -60.9291
L33.035 -60.7506
L32.6143 -60.5675
L32.2017 -60.3802
L31.797 -60.1889
L31.4002 -59.994
L31.0112 -59.7956
L30.6299 -59.594
L30.2562 -59.3894
L29.89 -59.182
L29.5313 -58.9721
L29.1798 -58.7598
L28.8354 -58.5453
L28.4981 -58.3288
L28.1676 -58.1104
L27.8439 -57.8902
L27.5268 -57.6685
L27.2162 -57.4453
L26.9118 -57.2208
L26.6137 -56.995
L26.3216 -56.7681
L26.0353 -56.5401
L25.7548 -56.3111
L25.48 -56.0813
L25.2106 -55.8506
L24.9465 -55.6192
L24.6877 -55.387
L24.4339 -55.1541
L24.1851 -54.9207
L23.9411 -54.6866
L23.7018 -54.4519
L23.467 -54.2168
L23.2368 -53.9811
L23.0108 -53.7448
L22.7892 -53.5081
L22.5716 -53.2709
L22.358 -53.0333
L22.1484 -52.7951
L21.9426 -52.5565
L21.7405 -52.3173
L21.5421 -52.0776
L21.3472 -51.8375
L21.1557 -51.5967
L20.9676 -51.3555
L20.7828 -51.1136
L20.6012 -50.8712
L20.4228 -50.6281
L20.2474 -50.3843
L20.075 -50.1399
L19.9055 -49.8947
L19.7389 -49.6488
L19.5751 -49.4021
L19.4141 -49.1546
L19.2557 -48.9062
L19.1 -48.6568
L18.9468 -48.4065
L18.7962 -48.1552
L18.6482 -47.9029
L18.5025 -47.6494
L18.3593 -47.3948
L18.2185 -47.139
L18.08 -46.8819
L17.9438 -46.6235
L17.8099 -46.3637
L17.6783 -46.1025
L17.5489 -45.8398
L17.4218 -45.5756
L17.2969 -45.3097
L17.1741 -45.0422
L17.0535 -44.7729
L16.9351 -44.5018
L16.8189 -44.2289
L16.7048 -43.954
L16.5929 -43.677
L16.4832 -43.398
L16.3757 -43.1169
L16.2703 -42.8335
L16.1671 -42.5478
L16.0661 -42.2597
L15.9674 -41.9691
L15.871 -41.676
L15.7768 -41.3803
L15.6849 -41.0819
L15.5954 -40.7807
L15.5083 -40.4766
L15.4236 -40.1696
L15.3414 -39.8596
L15.2617 -39.5464
L15.1846 -39.23
L15.1102 -38.9104
L15.0385 -38.5874
L14.9695 -38.2609
L14.9034 -37.9309
L14.8403 -37.5973
L14.7802 -37.26
L14.7232 -36.9188
L14.6694 -36.5738
L14.619 -36.2249
L14.5719 -35.8719
L14.5284 -35.5149
L14.4886 -35.1536
L14.4526 -34.7881
L14.4204 -34.4183
L14.3924 -34.0441
L14.3685 -33.6654
L14.3491 -33.2823
L14.3341 -32.8946
L14.3238 -32.5023
L14.3184 -32.1054
L14.3181 -31.7039
L14.3229 -31.2977
L14.3332 -30.8868
L14.3491 -30.4712
L14.3708 -30.0509
L14.3985 -29.626
L14.4325 -29.1965
L14.4729 -28.7624
L14.5199 -28.3239
L14.5739 -27.8809
L14.6349 -27.4336
L14.7032 -26.9821
L14.779 -26.5265
L14.8625 -26.067
L14.954 -25.6038
L15.0535 -25.1372
L15.1612 -24.6672
L15.2774 -24.1943
L15.4021 -23.7186
L15.5355 -23.2405
L15.6775 -22.7604
L15.8283 -22.2787
L15.9877 -21.7959
L16.1557 -21.3123
L16.332 -20.8285
L16.5165 -20.3452
L16.7087 -19.8629
L16.908 -19.3824
L17.1136 -18.9045
L17.3247 -18.4301
L17.5399 -17.9601
L17.7575 -17.4958
L17.9755 -17.0385
L18.191 -16.5897
L18.4008 -16.1511
L18.6003 -15.7249
L18.7844 -15.3134
L18.9468 -14.9193
L19.0803 -14.5455
L19.1774 -14.1951
L19.2311 -13.8706
L19.2359 -13.5742
L19.1889 -13.3069
L18.6877 -13.0685
L18.2953 -13.3608
L17.9082 -13.6663
L17.5266 -13.9787
L17.1507 -14.2978
L16.7805 -14.6235
L16.4161 -14.9558
L16.0577 -15.2944
L15.7054 -15.6393
L15.3593 -15.9905
L15.0195 -16.3477
L14.686 -16.7109
L14.3591 -17.08
L14.0387 -17.4549
L13.7251 -17.8354
L13.4182 -18.2215
L13.1182 -18.6129
L12.8251 -19.0097
L12.5391 -19.4116
L12.2603 -19.8186
L11.9887 -20.2305
L11.7244 -20.6472
L11.4675 -21.0686
L11.2181 -21.4945
L10.9762 -21.9249
L10.742 -22.3596
L10.5154 -22.7984
L10.2967 -23.2412
L10.0857 -23.6879
L9.88263 -24.1383
L9.68751 -24.5924
L9.50042 -25.05
L9.32139 -25.5109
L9.15049 -25.9749
L8.98778 -26.4421
L8.83328 -26.9121
L8.68707 -27.3849
L8.54917 -27.8604
L8.41964 -28.3383
L8.2985 -28.8185
L8.18581 -29.301
L8.08159 -29.7854
L7.98587 -30.2718
L7.89868 -30.7599
L7.82006 -31.2496
L7.75002 -31.7408
L7.68858 -32.2333
L7.63577 -32.7269
L7.59159 -33.2215
L7.55608 -33.7169
L7.52922 -34.2131
L7.51104 -34.7097
L7.50154 -35.2068
L7.50071 -35.7041
L7.50857 -36.2016
L7.52511 -36.6989
L7.55032 -37.196
L7.5842 -37.6928
L7.62673 -38.1891
L7.6779 -38.6847
L7.73771 -39.1794
L7.80612 -39.6732
L7.88312 -40.1659
L7.96868 -40.6573
L8.06278 -41.1473
L8.1654 -41.6358
L8.27649 -42.1225
L8.39602 -42.6073
L8.52397 -43.0902
L8.66028 -43.5708
L8.80492 -44.0492
L8.95785 -44.5251
L9.11901 -44.9985
L9.28837 -45.469
L9.46585 -45.9367
L9.65142 -46.4014
L9.84502 -46.8629
L10.0466 -47.3211
L10.2561 -47.7758
L10.4734 -48.227
L10.6985 -48.6744
L10.9312 -49.118
L11.1717 -49.5576
L11.4197 -49.993
L11.6752 -50.4242
L11.938 -50.851
L12.2083 -51.2732
L12.4857 -51.6909
L12.7704 -52.1037
L13.0621 -52.5116
L13.3608 -52.9145
L13.6663 -53.3123
L13.9787 -53.7047
L14.2978 -54.0918
L14.6235 -54.4734
L14.9558 -54.8493
L15.2944 -55.2195
L15.6393 -55.5839
L15.9905 -55.9423
L16.3477 -56.2946
L16.7109 -56.6407
L17.08 -56.9805
L17.4549 -57.314
L17.8354 -57.6409
L18.2215 -57.9613
L18.6129 -58.2749
L19.0097 -58.5818
L19.4116 -58.8818
L19.8186 -59.1749
L20.2305 -59.4609
L20.6472 -59.7397
L21.0686 -60.0113
L21.4945 -60.2756
L21.9249 -60.5325
L22.3596 -60.7819
L22.7984 -61.0238
L23.2412 -61.258
L23.6879 -61.4846
L24.1383 -61.7033
L24.5924 -61.9143
L25.05 -62.1174
L25.5109 -62.3125
L25.9749 -62.4996
L26.4421 -62.6786
L26.9121 -62.8495
L27.3849 -63.0122
L27.8604 -63.1667
L28.3383 -63.3129
L28.8185 -63.4508
L29.301 -63.5804
L29.7854 -63.7015
L30.2718 -63.8142
L30.7599 -63.9184
L31.2496 -64.0141
L31.7408 -64.1013
L32.2333 -64.1799
L32.7269 -64.25
L33.2215 -64.3114
L33.7169 -64.3642
L34.2131 -64.4084
L34.7097 -64.4439
L35.2068 -64.4708
L35.7041 -64.489
L36.2016 -64.4985
L36.6989 -64.4993
L37.196 -64.4914
L37.6928 -64.4749
L38.1891 -64.4497
L38.6847 -64.4158
L39.1794 -64.3733
L39.6732 -64.3221
L40.1659 -64.2623
L40.6573 -64.1939
L41.1473 -64.1169
L41.6358 -64.0313
L42.1225 -63.9372
L42.6073 -63.8346
L43.0902 -63.7235
L43.5708 -63.604
z
" id="C0_2_b803bee507"/>
    </defs>
    <g clip-path="url(#p1bffca34e9)">
     <use style="fill:#ff0000;stroke:#000000;stroke-width:2.0;" x="0.0" xlink:href="#C0_0_a811fe30f3" y="72.0"/>
    </g>
    <g clip-path="url(#p1bffca34e9)">
     <use style="fill:#ffffff;stroke:#000000;stroke-width:2.0;" x="0.0" xlink:href="#C0_1_d0cb2f665d" y="72.0"/>
    </g>
    <g clip-path="url(#p1bffca34e9)">
     <use style="fill:#ffffff;stroke:#000000;stroke-width:2.0;" x="0.0" xlink:href="#C0_2_b803bee507" y="72.0"/>
    </g>
   </g>
  </g>
 </g>
 <defs>
  <clipPath id="p1bffca34e9">
   <rect height="72.0" width="72.0" x="0.0" y="0.0"/>
  </clipPath>
 </defs>
</svg>
