<?xml version="1.0" encoding="utf-8" standalone="no"?>
<!DOCTYPE svg PUBLIC "-//W3C//DTD SVG 1.1//EN"
  "http://www.w3.org/Graphics/SVG/1.1/DTD/svg11.dtd">
<!-- Created with matplotlib (http://matplotlib.org/) -->
<svg height="72pt" version="1.1" viewBox="0 0 72 72" width="72pt" xmlns="http://www.w3.org/2000/svg" xmlns:xlink="http://www.w3.org/1999/xlink">
 <defs>
  <style type="text/css">
*{stroke-linecap:butt;stroke-linejoin:round;}
  </style>
 </defs>
 <g id="figure_1">
  <g id="patch_1">
   <path d="
M0 72
L72 72
L72 0
L0 0
z
" style="fill:none;"/>
  </g>
  <g id="axes_1">
   <g id="PatchCollection_1">
    <defs>
     <path d="
M36 -7.5
C43.5583 -7.5 50.808 -10.5029 56.1525 -15.8475
C61.4971 -21.192 64.5 -28.4417 64.5 -36
C64.5 -43.5583 61.4971 -50.808 56.1525 -56.1525
C50.808 -61.4971 43.5583 -64.5 36 -64.5
C28.4417 -64.5 21.192 -61.4971 15.8475 -56.1525
C10.5029 -50.808 7.5 -43.5583 7.5 -36
C7.5 -28.4417 10.5029 -21.192 15.8475 -15.8475
C21.192 -10.5029 28.4417 -7.5 36 -7.5
z
" id="C0_0_a811fe30f3"/>
     <path d="
M37.1249 -64.2395
L37.3962 -63.9775
L37.6613 -63.7136
L37.9202 -63.4479
L38.173 -63.1809
L38.4197 -62.9126
L38.6603 -62.6433
L38.8949 -62.3732
L39.1236 -62.1025
L39.3466 -61.8313
L39.5639 -61.5598
L39.7756 -61.2882
L39.9819 -61.0165
L40.1829 -60.745
L40.3787 -60.4736
L40.5695 -60.2026
L40.7553 -59.9321
L40.9364 -59.662
L41.1128 -59.3925
L41.2847 -59.1236
L41.4521 -58.8554
L41.6153 -58.588
L41.7743 -58.3214
L41.9293 -58.0556
L42.0804 -57.7907
L42.2277 -57.5266
L42.3713 -57.2634
L42.5113 -57.0012
L42.6479 -56.7398
L42.781 -56.4794
L42.911 -56.2199
L43.0377 -55.9613
L43.1614 -55.7036
L43.2821 -55.4468
L43.3999 -55.1908
L43.5149 -54.9357
L43.6272 -54.6815
L43.7369 -54.428
L43.844 -54.1753
L43.9486 -53.9234
L44.0508 -53.6721
L44.1507 -53.4216
L44.2483 -53.1716
L44.3436 -52.9223
L44.4368 -52.6736
L44.528 -52.4254
L44.6171 -52.1776
L44.7042 -51.9303
L44.7894 -51.6834
L44.8727 -51.4369
L44.9542 -51.1906
L45.0339 -50.9447
L45.1119 -50.6989
L45.1882 -50.4533
L45.2628 -50.2078
L45.3358 -49.9623
L45.4073 -49.7169
L45.4772 -49.4714
L45.5456 -49.2258
L45.6125 -48.98
L45.6779 -48.734
L45.7419 -48.4878
L45.8045 -48.2413
L45.8658 -47.9943
L45.9843 -47.747
L46.0415 -47.4991
L46.0975 -47.2507
L46.1522 -47.0016
L46.2056 -46.7519
L46.2578 -46.5015
L46.3088 -46.2502
L46.3585 -45.9981
L46.407 -45.7451
L46.4543 -45.4911
L46.5004 -45.236
L46.5453 -44.9798
L46.589 -44.7224
L46.6315 -44.4638
L46.6728 -44.2039
L46.7129 -43.9425
L46.7518 -43.6797
L46.7895 -43.4154
L46.826 -43.1495
L46.8613 -42.882
L46.8953 -42.6127
L46.9281 -42.3416
L46.9596 -42.0686
L46.9899 -41.7937
L47.0189 -41.5167
L47.0466 -41.2377
L47.0729 -40.9564
L47.0979 -40.673
L47.1216 -40.3872
L47.1438 -40.099
L47.1646 -39.8084
L47.1839 -39.5152
L47.2018 -39.2194
L47.2181 -38.9209
L47.2329 -38.6196
L47.2461 -38.3155
L47.2576 -38.0085
L47.2674 -37.6986
L47.2755 -37.3855
L47.2819 -37.0694
L47.2864 -36.7501
L47.289 -36.4275
L47.2898 -36.1016
L47.2885 -35.7723
L47.2852 -35.4397
L47.2798 -35.1035
L47.2722 -34.7638
L47.2624 -34.4206
L47.2503 -34.0737
L47.2358 -33.7232
L47.2189 -33.369
L47.1996 -33.011
L47.1777 -32.6494
L47.1531 -32.2841
L47.1259 -31.915
L47.0959 -31.5422
L47.0631 -31.1657
L47.0274 -30.7855
L46.9888 -30.4017
L46.9472 -30.0143
L46.9026 -29.6234
L46.8549 -29.2291
L46.8041 -28.8314
L46.7502 -28.4305
L46.6932 -28.0266
L46.6331 -27.6197
L46.5699 -27.21
L46.5037 -26.7978
L46.4346 -26.3832
L46.3627 -25.9665
L46.2882 -25.548
L46.2112 -25.1281
L46.1321 -24.7069
L46.0511 -24.285
L45.9689 -23.8627
L45.8857 -23.4406
L45.8024 -23.0192
L45.7198 -22.5991
L45.6389 -22.181
L45.561 -21.7657
L45.4876 -21.3541
L45.4205 -20.9472
L45.3622 -20.5463
L45.3153 -20.1527
L45.2831 -19.7679
L45.2692 -19.3939
L45.278 -19.0327
L45.3137 -18.6864
L45.3806 -18.3575
L45.4826 -18.0482
L45.6222 -17.7606
L45.8008 -17.4964
L46.018 -17.2565
L46.2718 -17.0412
L46.5593 -16.8501
L46.8765 -16.6821
L47.2196 -16.5361
L47.5844 -16.4105
L47.9673 -16.3039
L48.365 -16.2149
L48.7747 -16.1424
L49.1938 -16.0851
L49.6201 -16.0422
L50.052 -16.0129
L50.4879 -15.9965
L50.9264 -15.9924
L51.3663 -16.0002
L51.8068 -16.0192
L52.247 -16.0492
L52.6861 -16.0898
L53.1234 -16.1405
L53.5585 -16.2012
L53.9908 -16.2714
L54.42 -16.351
L54.8455 -16.4395
L55.2672 -16.5369
L55.6847 -16.6428
L56.0977 -16.757
L56.5061 -16.8792
L56.9096 -17.0092
L57.3081 -17.1469
L57.7417 -17.2919
L58.0599 -17.5731
L58.3715 -17.9554
L58.6763 -18.3431
L58.9741 -18.7362
L59.2649 -19.1346
L59.5487 -19.5381
L59.8253 -19.9467
L60.0946 -20.3601
L60.3566 -20.7783
L60.6112 -21.2011
L60.8582 -21.6285
L61.0977 -22.0602
L61.3296 -22.4961
L61.5537 -22.9362
L61.7701 -23.3803
L61.9786 -23.8282
L62.1792 -24.2798
L62.3718 -24.7349
L62.5564 -25.1935
L62.7328 -25.6554
L62.9012 -26.1205
L63.0614 -26.5885
L63.2133 -27.0595
L63.3569 -27.5331
L63.4922 -28.0093
L63.6191 -28.488
L63.7376 -28.9689
L63.8476 -29.452
L63.9492 -29.9371
L64.0423 -30.4241
L64.1268 -30.9127
L64.2027 -31.4029
L64.2701 -31.8944
L64.3288 -32.3873
L64.379 -32.8812
L64.4204 -33.3761
L64.4532 -33.8718
L64.4774 -34.3681
L64.4929 -34.8649
L64.4997 -35.3621
L64.4978 -35.8595
L64.4872 -36.3569
L64.468 -36.8542
L64.44 -37.3512
L64.4035 -37.8478
L64.3582 -38.3439
L64.3043 -38.8393
L64.2419 -39.3337
L64.1708 -39.8272
L64.0911 -40.3195
L64.0029 -40.8105
L63.9061 -41.3
L63.8008 -41.7879
L63.6871 -42.2741
L63.5649 -42.7583
L63.4344 -43.2405
L63.2954 -43.7205
L63.1482 -44.1981
L62.9927 -44.6732
L62.829 -45.1457
L62.6571 -45.6154
L62.4771 -46.0822
L62.289 -46.5459
L62.0929 -47.0063
L61.8889 -47.4635
L61.6769 -47.9171
L61.4572 -48.3671
L61.2297 -48.8133
L60.9945 -49.2557
L60.7517 -49.694
L60.5014 -50.1281
L60.2436 -50.5579
L59.9784 -50.9833
L59.7059 -51.4042
L59.4262 -51.8203
L59.1393 -52.2316
L58.8454 -52.638
L58.5446 -53.0393
L58.2368 -53.4354
L57.9223 -53.8262
L57.6012 -54.2116
L57.2734 -54.5914
L56.9392 -54.9655
L56.5986 -55.3339
L56.2517 -55.6964
L55.8986 -56.0529
L55.5395 -56.4033
L55.1744 -56.7475
L54.8035 -57.0853
L54.4269 -57.4168
L54.0446 -57.7417
L53.6569 -58.0599
L53.2638 -58.3715
L52.8654 -58.6763
L52.4619 -58.9741
L52.0533 -59.2649
L51.6399 -59.5487
L51.2217 -59.8253
L50.7989 -60.0946
L50.3715 -60.3566
L49.9398 -60.6112
L49.5039 -60.8582
L49.0638 -61.0977
L48.6197 -61.3296
L48.1718 -61.5537
L47.7202 -61.7701
L47.2651 -61.9786
L46.8065 -62.1792
L46.3446 -62.3718
L45.8795 -62.5564
L45.4115 -62.7328
L44.9405 -62.9012
L44.4669 -63.0614
L43.9907 -63.2133
L43.512 -63.3569
L43.0311 -63.4922
L42.548 -63.6191
L42.0629 -63.7376
L41.5759 -63.8476
L41.0873 -63.9492
L40.5971 -64.0423
L40.1056 -64.1268
L39.6127 -64.2027
L39.1188 -64.2701
L38.6239 -64.3288
L38.1282 -64.379
L37.6319 -64.4204
z
" id="C0_1_4b4df7141a"/>
     <path d="
M14.3792 -54.487
L14.2916 -54.0794
L14.2121 -53.6757
L14.1403 -53.2761
L14.076 -52.8806
L14.0188 -52.4893
L13.9686 -52.1022
L13.925 -51.7194
L13.8878 -51.3408
L13.8566 -50.9666
L13.8314 -50.5966
L13.8117 -50.2308
L13.7975 -49.8693
L13.7884 -49.5119
L13.7843 -49.1587
L13.7849 -48.8096
L13.7901 -48.4646
L13.7997 -48.1235
L13.8135 -47.7864
L13.8313 -47.4531
L13.8529 -47.1236
L13.8783 -46.7978
L13.9073 -46.4756
L13.9397 -46.1571
L13.9754 -45.842
L14.0143 -45.5303
L14.0563 -45.2219
L14.1012 -44.9168
L14.149 -44.6148
L14.1996 -44.3159
L14.2528 -44.02
L14.3087 -43.7271
L14.3671 -43.4369
L14.4279 -43.1495
L14.4911 -42.8647
L14.5566 -42.5826
L14.6244 -42.3029
L14.6943 -42.0256
L14.7665 -41.7507
L14.8407 -41.4781
L14.917 -41.2076
L14.9953 -40.9392
L15.0757 -40.6729
L15.158 -40.4084
L15.2422 -40.1459
L15.3284 -39.8852
L15.4164 -39.6261
L15.5064 -39.3688
L15.5982 -39.113
L15.6918 -38.8587
L15.7874 -38.6059
L15.8847 -38.3544
L15.9839 -38.1042
L16.085 -37.8553
L16.1879 -37.6075
L16.2927 -37.3609
L16.3993 -37.1152
L16.5078 -36.8706
L16.6182 -36.6269
L16.7304 -36.384
L16.8446 -36.1419
L16.9608 -35.9005
L17.0789 -35.6598
L17.199 -35.4197
L17.3211 -35.1802
L17.4452 -34.9412
L17.5714 -34.7026
L17.6997 -34.4645
L17.8302 -34.2266
L17.9628 -33.9891
L18.0977 -33.7517
L18.2348 -33.5146
L18.3742 -33.2776
L18.516 -33.0406
L18.6602 -32.8038
L18.8068 -32.5668
L18.956 -32.3299
L19.1077 -32.0928
L19.262 -31.8556
L19.419 -31.6182
L19.5787 -31.3806
L19.7413 -31.1427
L19.9067 -30.9045
L20.0751 -30.6659
L20.2465 -30.427
L20.421 -30.1876
L20.5986 -29.9478
L20.7795 -29.7075
L20.9636 -29.4668
L21.1512 -29.2254
L21.3423 -28.9836
L21.5369 -28.7411
L21.7352 -28.4981
L21.9373 -28.2544
L22.1432 -28.0101
L22.353 -27.7652
L22.5668 -27.5196
L22.7848 -27.2734
L23.0069 -27.0265
L23.2334 -26.779
L23.4643 -26.5309
L23.6996 -26.2821
L23.9396 -26.0327
L24.1843 -25.7827
L24.4338 -25.5321
L24.6881 -25.281
L24.9475 -25.0294
L25.2119 -24.7774
L25.4815 -24.5249
L25.7563 -24.2721
L26.0365 -24.019
L26.322 -23.7656
L26.6131 -23.5121
L26.9097 -23.2586
L27.2119 -23.005
L27.5197 -22.7516
L27.8332 -22.4983
L28.1524 -22.2454
L28.4773 -21.993
L28.8079 -21.7411
L29.1443 -21.4899
L29.4863 -21.2395
L29.8338 -20.9901
L30.1869 -20.7418
L30.5454 -20.4947
L30.9091 -20.2491
L31.2778 -20.005
L31.6514 -19.7626
L32.0296 -19.5221
L32.412 -19.2835
L32.7982 -19.0471
L33.1878 -18.8128
L33.5803 -18.5808
L33.975 -18.3511
L34.371 -18.1238
L34.7676 -17.8988
L35.1636 -17.6759
L35.5578 -17.455
L35.9486 -17.2359
L36.3342 -17.018
L36.7124 -16.8009
L37.0806 -16.5837
L37.4358 -16.3656
L37.7744 -16.1453
L38.0924 -15.9215
L38.3853 -15.6925
L38.6485 -15.4566
L38.8772 -15.2121
L39.0675 -14.9575
L39.2164 -14.6918
L39.3222 -14.4144
L39.3851 -14.1256
L39.4067 -13.8264
L39.3897 -13.5182
L39.3377 -13.2027
L39.2545 -12.8818
L39.1437 -12.5572
L39.0089 -12.2307
L38.8531 -11.9038
L38.679 -11.5778
L38.4889 -11.2538
L38.2847 -10.9329
L38.0681 -10.6159
L37.8405 -10.3034
L37.603 -9.99607
L37.3567 -9.69443
L37.1024 -9.39889
L36.841 -9.1098
L36.573 -8.82747
L36.2991 -8.55214
L36.0197 -8.28403
L35.7354 -8.0233
L35.4464 -7.77009
L34.6559 -7.52451
L34.1593 -7.53171
L33.6632 -7.55951
L33.1678 -7.59596
L32.6733 -7.64107
L32.1798 -7.69482
L31.6875 -7.75719
L31.1965 -7.82816
L30.7069 -7.90772
L30.219 -7.99583
L29.7328 -8.09247
L29.2486 -8.19761
L28.7664 -8.31122
L28.2864 -8.43327
L27.8087 -8.56371
L27.3336 -8.70251
L26.861 -8.84963
L26.3913 -9.00501
L25.9245 -9.16862
L25.4607 -9.3404
L25.0002 -9.52031
L24.543 -9.70827
L24.0894 -9.90425
L23.6393 -10.1082
L23.193 -10.32
L22.7506 -10.5396
L22.3122 -10.767
L21.8781 -11.0021
L21.4482 -11.2448
L21.0227 -11.495
L20.6018 -11.7527
L20.1856 -12.0178
L19.7742 -12.2902
L19.3678 -12.5698
L18.9664 -12.8565
L18.5702 -13.1503
L18.1794 -13.4511
L17.7939 -13.7587
L17.414 -14.0731
L17.0398 -14.3942
L16.6713 -14.7219
L16.3087 -15.056
L15.9521 -15.3965
L15.6017 -15.7433
L15.2574 -16.0963
L14.9195 -16.4553
L14.5879 -16.8203
L14.2629 -17.1911
L13.9446 -17.5677
L13.6329 -17.9499
L13.328 -18.3375
L13.0301 -18.7306
L12.7392 -19.1289
L12.4553 -19.5323
L12.1786 -19.9408
L11.9092 -20.3542
L11.6471 -20.7723
L11.3924 -21.1951
L11.1453 -21.6223
L10.9056 -22.054
L10.6737 -22.4899
L10.4494 -22.9299
L10.233 -23.3739
L10.0244 -23.8217
L9.82365 -24.2733
L9.63092 -24.7284
L9.44623 -25.187
L9.26962 -25.6488
L9.10115 -26.1138
L8.94088 -26.5818
L8.78885 -27.0527
L8.64511 -27.5263
L8.5097 -28.0025
L8.38266 -28.4811
L8.26404 -28.9621
L8.15386 -29.4451
L8.05217 -29.9302
L7.95899 -30.4171
L7.87436 -30.9057
L7.79829 -31.3958
L7.73081 -31.8874
L7.67194 -32.3802
L7.6217 -32.8741
L7.58011 -33.369
L7.54717 -33.8647
L7.5229 -34.361
L7.5073 -34.8578
L7.50038 -35.355
L7.50215 -35.8524
L7.51259 -36.3498
L7.53171 -36.8471
L7.55951 -37.3441
L7.59596 -37.8407
L7.64107 -38.3368
L7.69482 -38.8322
L7.75719 -39.3267
L7.82816 -39.8202
L7.90772 -40.3125
L7.99583 -40.8035
L8.09247 -41.2931
L8.19761 -41.781
L8.31122 -42.2672
L8.43327 -42.7514
L8.56371 -43.2336
L8.70251 -43.7136
L8.84963 -44.1913
L9.00501 -44.6664
L9.16862 -45.139
L9.3404 -45.6087
L9.52031 -46.0755
L9.70827 -46.5393
L9.90425 -46.9998
L10.1082 -47.457
L10.32 -47.9106
L10.5396 -48.3607
L10.767 -48.807
L11.0021 -49.2494
L11.2448 -49.6878
L11.495 -50.1219
L11.7527 -50.5518
L12.0178 -50.9773
L12.2902 -51.3982
L12.5698 -51.8144
L12.8565 -52.2258
L13.1503 -52.6322
L13.4511 -53.0336
L13.7587 -53.4298
z
" id="C0_2_999b814e07"/>
    </defs>
    <g clip-path="url(#p1bffca34e9)">
     <use style="fill:#ff0000;stroke:#000000;stroke-width:2.0;" x="0.0" xlink:href="#C0_0_a811fe30f3" y="72.0"/>
    </g>
    <g clip-path="url(#p1bffca34e9)">
     <use style="fill:#ffffff;stroke:#000000;stroke-width:2.0;" x="0.0" xlink:href="#C0_1_4b4df7141a" y="72.0"/>
    </g>
    <g clip-path="url(#p1bffca34e9)">
     <use style="fill:#ffffff;stroke:#000000;stroke-width:2.0;" x="0.0" xlink:href="#C0_2_999b814e07" y="72.0"/>
    </g>
   </g>
  </g>
 </g>
 <defs>
  <clipPath id="p1bffca34e9">
   <rect height="72.0" width="72.0" x="0.0" y="0.0"/>
  </clipPath>
 </defs>
</svg>
