<?xml version="1.0" encoding="utf-8" standalone="no"?>
<!DOCTYPE svg PUBLIC "-//W3C//DTD SVG 1.1//EN"
  "http://www.w3.org/Graphics/SVG/1.1/DTD/svg11.dtd">
<!-- Created with matplotlib (http://matplotlib.org/) -->
<svg height="72pt" version="1.1" viewBox="0 0 72 72" width="72pt" xmlns="http://www.w3.org/2000/svg" xmlns:xlink="http://www.w3.org/1999/xlink">
 <defs>
  <style type="text/css">
*{stroke-linecap:butt;stroke-linejoin:round;}
  </style>
 </defs>
 <g id="figure_1">
  <g id="patch_1">
   <path d="
M0 72
L72 72
L72 0
L0 0
z
" style="fill:none;"/>
  </g>
  <g id="axes_1">
   <g id="PatchCollection_1">
    <defs>
     <path d="
M36 -7.5
C43.5583 -7.5 50.808 -10.5029 56.1525 -15.8475
C61.4971 -21.192 64.5 -28.4417 64.5 -36
C64.5 -43.5583 61.4971 -50.808 56.1525 -56.1525
C50.808 -61.4971 43.5583 -64.5 36 -64.5
C28.4417 -64.5 21.192 -61.4971 15.8475 -56.1525
C10.5029 -50.808 7.5 -43.5583 7.5 -36
C7.5 -28.4417 10.5029 -21.192 15.8475 -15.8475
C21.192 -10.5029 28.4417 -7.5 36 -7.5
z
" id="C0_0_a811fe30f3"/>
     <path d="
M25.4897 -9.66423
L25.5001 -9.91627
L25.5368 -10.1627
L25.5988 -10.4037
L25.6849 -10.6393
L25.7936 -10.8699
L25.9236 -11.0957
L26.0732 -11.3173
L26.2408 -11.5351
L26.4249 -11.7495
L26.6237 -11.9611
L26.8358 -12.1704
L27.0597 -12.3777
L27.294 -12.5835
L27.5373 -12.7882
L27.7885 -12.9921
L28.0464 -13.1955
L28.31 -13.3986
L28.5783 -13.6017
L28.8506 -13.8049
L29.1259 -14.0084
L29.4036 -14.2123
L29.6831 -14.4166
L29.9638 -14.6215
L30.2452 -14.8269
L30.5268 -15.0329
L30.8082 -15.2395
L31.0891 -15.4467
L31.3691 -15.6545
L31.648 -15.8628
L31.9255 -16.0715
L32.2013 -16.2808
L32.4754 -16.4904
L32.7474 -16.7005
L33.0174 -16.9108
L33.285 -17.1215
L33.5504 -17.3323
L33.8132 -17.5434
L34.0736 -17.7545
L34.3313 -17.9658
L34.5865 -18.1771
L34.8389 -18.3884
L35.0887 -18.5997
L35.3358 -18.8109
L35.5801 -19.0219
L35.8218 -19.2329
L36.0607 -19.4437
L36.297 -19.6543
L36.5305 -19.8647
L36.7614 -20.0749
L36.9897 -20.2848
L37.2153 -20.4945
L37.4384 -20.7039
L37.659 -20.9131
L37.877 -21.122
L38.0926 -21.3306
L38.3058 -21.5389
L38.5166 -21.7469
L38.7251 -21.9547
L38.9313 -22.1622
L39.1353 -22.3695
L39.3371 -22.5765
L39.5367 -22.7833
L39.7343 -22.9898
L39.9298 -23.1962
L40.1234 -23.4024
L40.315 -23.6084
L40.5047 -23.8143
L40.6925 -24.0201
L40.8786 -24.2258
L41.0629 -24.4314
L41.2456 -24.637
L41.4265 -24.8426
L41.6059 -25.0482
L41.7837 -25.2538
L41.96 -25.4595
L42.1348 -25.6653
L42.3082 -25.8713
L42.4802 -26.0774
L42.6509 -26.2838
L42.8203 -26.4904
L42.9885 -26.6972
L43.1554 -26.9044
L43.3211 -27.112
L43.4858 -27.32
L43.6493 -27.5284
L43.8118 -27.7373
L43.9732 -27.9467
L44.1337 -28.1566
L44.4519 -28.3672
L44.6096 -28.5784
L44.7665 -28.7903
L44.9226 -29.003
L45.0779 -29.2164
L45.2324 -29.4307
L45.3863 -29.6458
L45.5394 -29.8618
L45.6919 -30.0789
L45.8437 -30.2969
L45.995 -30.516
L46.1456 -30.7362
L46.2957 -30.9576
L46.4453 -31.1802
L46.5943 -31.4041
L46.7428 -31.6293
L46.8909 -31.8559
L47.0385 -32.0839
L47.1857 -32.3133
L47.3325 -32.5443
L47.4788 -32.7769
L47.6248 -33.0111
L47.7704 -33.247
L47.9157 -33.4847
L48.0605 -33.7241
L48.2051 -33.9654
L48.3493 -34.2086
L48.4932 -34.4537
L48.6368 -34.7009
L48.78 -34.9501
L48.923 -35.2015
L49.0656 -35.455
L49.208 -35.7107
L49.35 -35.9687
L49.4917 -36.229
L49.6331 -36.4917
L49.7741 -36.7568
L49.9148 -37.0244
L50.0552 -37.2944
L50.1952 -37.567
L50.3348 -37.8421
L50.4741 -38.1199
L50.6129 -38.4003
L50.7514 -38.6833
L50.8894 -38.9691
L51.0269 -39.2575
L51.1639 -39.5486
L51.3004 -39.8425
L51.4364 -40.1391
L51.5718 -40.4384
L51.7067 -40.7403
L51.8409 -41.045
L51.9745 -41.3523
L52.1074 -41.6621
L52.2396 -41.9746
L52.3712 -42.2894
L52.502 -42.6067
L52.6321 -42.9263
L52.7614 -43.248
L52.89 -43.5718
L53.0179 -43.8975
L53.145 -44.2249
L53.2714 -44.5538
L53.3972 -44.884
L53.5223 -45.2153
L53.647 -45.5475
L53.7711 -45.88
L53.895 -46.2127
L54.0186 -46.5452
L54.1422 -46.877
L54.2661 -47.2077
L54.3903 -47.5366
L54.5153 -47.8634
L54.6413 -48.1873
L54.7687 -48.5076
L54.8981 -48.8236
L55.0298 -49.1345
L55.1644 -49.4393
L55.3026 -49.7371
L55.4451 -50.0269
L55.5925 -50.3075
L55.7457 -50.5777
L55.9054 -50.8363
L56.0727 -51.082
L56.2482 -51.3135
L56.4328 -51.5293
L56.6274 -51.7281
L56.8326 -51.9086
L57.049 -52.0696
L57.2771 -52.2098
L57.5171 -52.3283
L57.7693 -52.4241
L58.0334 -52.4966
L58.3092 -52.5451
L58.5963 -52.5695
L58.894 -52.5696
L59.2016 -52.5454
L59.5118 -52.4971
L59.7893 -52.1074
L60.0596 -51.6946
L60.3225 -51.277
L60.5781 -50.8548
L60.8261 -50.428
L61.0666 -49.9969
L61.2995 -49.5615
L61.5247 -49.1219
L61.742 -48.6784
L61.9516 -48.231
L62.1532 -47.7799
L62.3469 -47.3252
L62.5325 -46.867
L62.7101 -46.4055
L62.8795 -45.9409
L63.0407 -45.4732
L63.1937 -45.0027
L63.3385 -44.5294
L63.4748 -44.0535
L63.6029 -43.5751
L63.7225 -43.0945
L63.8336 -42.6117
L63.9363 -42.1268
L64.0305 -41.6401
L64.1162 -41.1517
L64.1932 -40.6617
L64.2617 -40.1703
L64.3216 -39.6777
L64.3729 -39.1839
L64.4155 -38.6891
L64.4494 -38.1935
L64.4747 -37.6973
L64.4913 -37.2005
L64.4993 -36.7034
L64.4985 -36.206
L64.4891 -35.7086
L64.471 -35.2113
L64.4442 -34.7142
L64.4088 -34.2175
L64.3647 -33.7213
L64.3119 -33.2259
L64.2506 -32.7313
L64.1806 -32.2377
L64.1021 -31.7452
L64.015 -31.254
L63.9193 -30.7643
L63.8152 -30.2762
L63.7025 -29.7898
L63.5815 -29.3053
L63.452 -28.8228
L63.3142 -28.3426
L63.1681 -27.8646
L63.0136 -27.3892
L62.851 -26.9163
L62.6802 -26.4463
L62.5012 -25.9791
L62.3142 -25.515
L62.1192 -25.0541
L61.9162 -24.5965
L61.7053 -24.1424
L61.4865 -23.6919
L61.2601 -23.2452
L61.0259 -22.8023
L60.7841 -22.3635
L60.5347 -21.9288
L60.2779 -21.4984
L60.0137 -21.0724
L59.7421 -20.651
L59.4634 -20.2342
L59.1775 -19.8222
L58.8845 -19.4152
L58.5845 -19.0132
L58.2777 -18.6164
L57.9641 -18.2249
L57.6438 -17.8388
L57.3169 -17.4583
L56.9835 -17.0834
L56.6437 -16.7142
L56.2977 -16.3509
L55.9454 -15.9936
L55.5871 -15.6425
L55.2228 -15.2975
L54.8527 -14.9588
L54.4768 -14.6265
L54.0953 -14.3007
L53.7082 -13.9816
L53.3158 -13.6691
L52.9181 -13.3635
L52.5152 -13.0647
L52.1074 -12.7729
L51.6946 -12.4882
L51.277 -12.2107
L50.8548 -11.9404
L50.428 -11.6775
L49.9969 -11.4219
L49.5615 -11.1739
L49.1219 -10.9334
L48.6784 -10.7005
L48.231 -10.4753
L47.7799 -10.258
L47.3252 -10.0484
L46.867 -9.84679
L46.4055 -9.65312
L45.9409 -9.46748
L45.4732 -9.28992
L45.0027 -9.12049
L44.5294 -8.95926
L44.0535 -8.80626
L43.5751 -8.66154
L43.0945 -8.52515
L42.6117 -8.39713
L42.1268 -8.27752
L41.6401 -8.16635
L41.1517 -8.06366
L40.6617 -7.96948
L40.1703 -7.88384
L39.6777 -7.80677
L39.1839 -7.73828
L38.6891 -7.6784
L38.1935 -7.62715
L37.6973 -7.58454
L37.2005 -7.55058
L36.7034 -7.52529
L36.206 -7.50868
L35.7086 -7.50074
L35.2113 -7.50149
L34.7142 -7.51092
L34.2175 -7.52902
L33.7213 -7.5558
L33.2259 -7.59124
L32.7313 -7.63533
L32.2377 -7.68807
L31.7452 -7.74943
L31.254 -7.81939
L30.7643 -7.89794
L30.2762 -7.98505
L29.7898 -8.08069
L29.3053 -8.18484
L28.8228 -8.29746
L28.3426 -8.41852
L27.8646 -8.54798
L27.3892 -8.6858
L26.9163 -8.83194
L26.4463 -8.98636
L25.9791 -9.149
z
" id="C0_1_88d5d0b42d"/>
     <path d="
M12.7879 -19.7885
L12.82 -20.1237
L12.8451 -20.4711
L12.8645 -20.8295
L12.8793 -21.1976
L12.8907 -21.5743
L12.8997 -21.9585
L12.9073 -22.3492
L12.9142 -22.7454
L12.9214 -23.1462
L12.9293 -23.5506
L12.9387 -23.958
L12.95 -24.3676
L12.9637 -24.7788
L12.98 -25.1908
L12.9994 -25.6032
L13.0219 -26.0154
L13.0479 -26.427
L13.0774 -26.8375
L13.1106 -27.2465
L13.1476 -27.6538
L13.1883 -28.059
L13.2328 -28.4619
L13.2812 -28.8621
L13.3333 -29.2595
L13.3891 -29.6538
L13.4486 -30.045
L13.5118 -30.4328
L13.5785 -30.8172
L13.6487 -31.198
L13.7222 -31.5751
L13.7991 -31.9486
L13.8792 -32.3182
L13.9624 -32.684
L14.0487 -33.046
L14.1379 -33.4041
L14.23 -33.7582
L14.3248 -34.1085
L14.4223 -34.4549
L14.5224 -34.7975
L14.625 -35.1362
L14.73 -35.4711
L14.8374 -35.8022
L14.947 -36.1295
L15.0588 -36.4532
L15.1728 -36.7732
L15.2888 -37.0895
L15.4069 -37.4024
L15.5268 -37.7117
L15.6487 -38.0176
L15.7724 -38.3202
L15.8979 -38.6194
L16.0252 -38.9154
L16.1541 -39.2082
L16.2847 -39.4979
L16.417 -39.7845
L16.5508 -40.0681
L16.6863 -40.3488
L16.8233 -40.6267
L16.9618 -40.9018
L17.1018 -41.1742
L17.2433 -41.4439
L17.3863 -41.711
L17.5307 -41.9757
L17.6766 -42.2378
L17.8239 -42.4976
L17.9727 -42.7551
L18.123 -43.0103
L18.2746 -43.2633
L18.4278 -43.5141
L18.5823 -43.7629
L18.7384 -44.0097
L18.8959 -44.2545
L19.0549 -44.4974
L19.2153 -44.7385
L19.3773 -44.9778
L19.5409 -45.2153
L19.7059 -45.4512
L19.8726 -45.6855
L20.0408 -45.9181
L20.2107 -46.1493
L20.3822 -46.3789
L20.5553 -46.6072
L20.7302 -46.834
L20.9068 -47.0595
L21.0852 -47.2837
L21.2654 -47.5067
L21.4474 -47.7284
L21.6314 -47.949
L21.8172 -48.1684
L22.005 -48.3867
L22.1948 -48.604
L22.3867 -48.8202
L22.5807 -49.0355
L22.7768 -49.2497
L22.9751 -49.463
L23.1757 -49.6754
L23.3786 -49.8869
L23.5839 -50.0976
L23.7915 -50.3074
L24.0017 -50.5164
L24.2143 -50.7246
L24.4296 -50.932
L24.6475 -51.1386
L24.8682 -51.3444
L25.0916 -51.5496
L25.3178 -51.7539
L25.547 -51.9575
L25.7791 -52.1604
L26.0143 -52.3626
L26.2527 -52.564
L26.4942 -52.7647
L26.7389 -52.9646
L26.987 -53.1638
L27.2385 -53.3622
L27.4934 -53.5598
L27.7519 -53.7566
L28.014 -53.9526
L28.2797 -54.1477
L28.5493 -54.342
L28.8226 -54.5353
L29.0998 -54.7276
L29.3809 -54.919
L29.6661 -55.1093
L29.9554 -55.2985
L30.2487 -55.4865
L30.5463 -55.6734
L30.848 -55.859
L31.1541 -56.0433
L31.4644 -56.2262
L31.7791 -56.4076
L32.0982 -56.5875
L32.4217 -56.7658
L32.7496 -56.9423
L33.0818 -57.1171
L33.4185 -57.29
L33.7596 -57.461
L34.1049 -57.6299
L34.4546 -57.7966
L34.8085 -57.9611
L35.1665 -58.1233
L35.5285 -58.2831
L35.8945 -58.4404
L36.2642 -58.5951
L36.6375 -58.7471
L37.0142 -58.8964
L37.3941 -59.043
L37.7768 -59.1867
L38.1621 -59.3276
L38.5496 -59.4657
L38.939 -59.6009
L39.3298 -59.7333
L39.7216 -59.863
L40.1137 -59.9901
L40.5056 -60.1147
L40.8967 -60.237
L41.2861 -60.3573
L41.6731 -60.4758
L42.0569 -60.5929
L42.4364 -60.709
L42.8107 -60.8246
L43.1785 -60.9402
L43.5388 -61.0564
L43.8902 -61.1741
L44.2315 -61.2938
L44.5612 -61.4164
L44.8779 -61.5428
L45.1803 -61.6738
L45.4668 -61.8103
L45.7361 -61.9532
L45.9869 -62.1033
L46.218 -62.2613
L45.9968 -62.4278
L45.5295 -62.6892
L45.0593 -62.8596
L44.5863 -63.0218
L44.1107 -63.1758
L43.6327 -63.3215
L43.1523 -63.4589
L42.6697 -63.5879
L42.1851 -63.7086
L41.6986 -63.8208
L41.2104 -63.9245
L40.7206 -64.0197
L40.2294 -64.1063
L39.7368 -64.1844
L39.2432 -64.254
L38.7485 -64.3149
L38.253 -64.3672
L37.7568 -64.4108
L37.2601 -64.4458
L36.763 -64.4721
L36.2657 -64.4898
L35.7683 -64.4988
L35.2709 -64.4991
L34.7738 -64.4907
L34.2771 -64.4736
L33.7809 -64.4479
L33.2853 -64.4135
L32.7906 -64.3704
L32.2968 -64.3187
L31.8042 -64.2584
L31.3129 -64.1895
L30.823 -64.1119
L30.3347 -64.0259
L29.8481 -63.9312
L29.3633 -63.8281
L28.8806 -63.7165
L28.4001 -63.5965
L27.9219 -63.468
L27.4461 -63.3312
L26.9729 -63.186
L26.5025 -63.0326
L26.035 -62.8709
L25.5705 -62.7011
L25.1092 -62.5231
L24.6512 -62.3371
L24.1967 -62.143
L23.7458 -61.9409
L23.2986 -61.731
L22.8552 -61.5132
L22.4159 -61.2876
L21.9807 -61.0544
L21.5498 -60.8135
L21.1233 -60.565
L20.7013 -60.3091
L20.284 -60.0458
L19.8714 -59.7751
L19.4638 -59.4972
L19.0612 -59.2122
L18.6638 -58.92
L18.2716 -58.6209
L17.8849 -58.3149
L17.5037 -58.0021
L17.1281 -57.6826
L16.7582 -57.3565
L16.3942 -57.0239
L16.0362 -56.6849
L15.6843 -56.3395
L15.3385 -55.988
L14.9991 -55.6304
L14.666 -55.2668
L14.3395 -54.8974
L14.0195 -54.5222
L13.7062 -54.1413
L13.3998 -53.755
L13.1002 -53.3632
L12.8076 -52.9661
L12.522 -52.5639
L12.2436 -52.1566
L11.9725 -51.7444
L11.7086 -51.3274
L11.4522 -50.9057
L11.2032 -50.4795
L10.9618 -50.0489
L10.728 -49.614
L10.502 -49.1749
L10.2836 -48.7318
L10.0732 -48.2849
L9.87057 -47.8342
L9.67594 -47.3799
L9.48933 -46.9222
L9.3108 -46.4611
L9.14039 -45.9968
L8.97817 -45.5295
L8.82418 -45.0593
L8.67847 -44.5863
L8.54108 -44.1107
L8.41205 -43.6327
L8.29143 -43.1523
L8.17925 -42.6697
L8.07554 -42.1851
L7.98034 -41.6986
L7.89367 -41.2104
L7.81556 -40.7206
L7.74604 -40.2294
L7.68513 -39.7368
L7.63284 -39.2432
L7.58919 -38.7485
L7.5542 -38.253
L7.52787 -37.7568
L7.51022 -37.2601
L7.50124 -36.763
L7.50094 -36.2657
L7.50933 -35.7683
L7.52639 -35.2709
L7.55213 -34.7738
L7.58653 -34.2771
L7.62959 -33.7809
L7.68128 -33.2853
L7.74161 -32.7906
L7.81054 -32.2968
L7.88806 -31.8042
L7.97414 -31.3129
L8.06876 -30.823
L8.17189 -30.3347
L8.2835 -29.8481
L8.40354 -29.3633
L8.532 -28.8806
L8.66882 -28.4001
L8.81396 -27.9219
L8.96739 -27.4461
L9.12905 -26.9729
L9.2989 -26.5025
L9.47688 -26.035
L9.66294 -25.5705
L9.85702 -25.1092
L10.0591 -24.6512
L10.269 -24.1967
L10.4868 -23.7458
L10.7124 -23.2986
L10.9456 -22.8552
L11.1865 -22.4159
L11.435 -21.9807
L11.6909 -21.5498
L11.9542 -21.1233
L12.2249 -20.7013
z
" id="C0_2_dd00f47339"/>
    </defs>
    <g clip-path="url(#p1bffca34e9)">
     <use style="fill:#ff0000;stroke:#000000;stroke-width:2.0;" x="0.0" xlink:href="#C0_0_a811fe30f3" y="72.0"/>
    </g>
    <g clip-path="url(#p1bffca34e9)">
     <use style="fill:#ffffff;stroke:#000000;stroke-width:2.0;" x="0.0" xlink:href="#C0_1_88d5d0b42d" y="72.0"/>
    </g>
    <g clip-path="url(#p1bffca34e9)">
     <use style="fill:#ffffff;stroke:#000000;stroke-width:2.0;" x="0.0" xlink:href="#C0_2_dd00f47339" y="72.0"/>
    </g>
   </g>
  </g>
 </g>
 <defs>
  <clipPath id="p1bffca34e9">
   <rect height="72.0" width="72.0" x="0.0" y="0.0"/>
  </clipPath>
 </defs>
</svg>
