<?xml version="1.0" encoding="utf-8" standalone="no"?>
<!DOCTYPE svg PUBLIC "-//W3C//DTD SVG 1.1//EN"
  "http://www.w3.org/Graphics/SVG/1.1/DTD/svg11.dtd">
<!-- Created with matplotlib (http://matplotlib.org/) -->
<svg height="72pt" version="1.1" viewBox="0 0 72 72" width="72pt" xmlns="http://www.w3.org/2000/svg" xmlns:xlink="http://www.w3.org/1999/xlink">
 <defs>
  <style type="text/css">
*{stroke-linecap:butt;stroke-linejoin:round;}
  </style>
 </defs>
 <g id="figure_1">
  <g id="patch_1">
   <path d="
M0 72
L72 72
L72 0
L0 0
z
" style="fill:none;"/>
  </g>
  <g id="axes_1">
   <g id="PatchCollection_1">
    <defs>
     <path d="
M36 -7.5
C43.5583 -7.5 50.808 -10.5029 56.1525 -15.8475
C61.4971 -21.192 64.5 -28.4417 64.5 -36
C64.5 -43.5583 61.4971 -50.808 56.1525 -56.1525
C50.808 -61.4971 43.5583 -64.5 36 -64.5
C28.4417 -64.5 21.192 -61.4971 15.8475 -56.1525
C10.5029 -50.808 7.5 -43.5583 7.5 -36
C7.5 -28.4417 10.5029 -21.192 15.8475 -15.8475
C21.192 -10.5029 28.4417 -7.5 36 -7.5
z
" id="C0_0_a811fe30f3"/>
     <path d="
M34.6089 -29.4816
L34.3883 -29.6071
L34.168 -29.7335
L33.948 -29.8607
L33.7282 -29.9888
L33.5085 -30.1178
L33.2889 -30.2477
L33.0694 -30.3786
L32.8499 -30.5105
L32.6303 -30.6435
L32.4106 -30.7775
L32.1908 -30.9127
L31.9708 -31.049
L31.7505 -31.1865
L31.53 -31.3253
L31.3091 -31.4654
L31.0878 -31.6067
L30.8661 -31.7495
L30.6439 -31.8937
L30.4213 -32.0394
L30.198 -32.1865
L29.9742 -32.3353
L29.7497 -32.4856
L29.5245 -32.6377
L29.2986 -32.7914
L29.0719 -32.9469
L28.8445 -33.1043
L28.6162 -33.2635
L28.387 -33.4247
L28.157 -33.5879
L27.926 -33.7531
L27.694 -33.9205
L27.4611 -34.09
L27.2271 -34.2618
L26.9922 -34.4359
L26.7561 -34.6123
L26.519 -34.7912
L26.2809 -34.9726
L26.0416 -35.1566
L25.8012 -35.3431
L25.5597 -35.5324
L25.3172 -35.7245
L25.0735 -35.9194
L24.8288 -36.1172
L24.583 -36.318
L24.3361 -36.5218
L24.0882 -36.7287
L23.8394 -36.9388
L23.5896 -37.1522
L23.339 -37.3689
L23.0875 -37.589
L22.8352 -37.8126
L22.5823 -38.0396
L22.3287 -38.2703
L22.0747 -38.5046
L21.8203 -38.7426
L21.5657 -38.9844
L21.3109 -39.23
L21.0561 -39.4795
L20.8016 -39.7329
L20.5475 -39.9903
L20.2939 -40.2518
L20.0412 -40.5173
L19.7896 -40.7869
L19.5394 -41.0607
L19.2908 -41.3387
L19.0442 -41.6209
L18.8 -41.9074
L18.5585 -42.1982
L18.3203 -42.4932
L18.0858 -42.7926
L17.8555 -43.0964
L17.6302 -43.4045
L17.4103 -43.7171
L17.1968 -44.0341
L16.9904 -44.3555
L16.7922 -44.6815
L16.603 -45.012
L16.4243 -45.3472
L16.2572 -45.6869
L16.1034 -46.0315
L15.9645 -46.3807
L15.8424 -46.7349
L15.7391 -47.0939
L15.657 -47.4579
L15.5984 -47.8268
L15.5656 -48.2005
L15.561 -48.5787
L15.5866 -48.9612
L15.6442 -49.3473
L15.7348 -49.7364
L15.859 -50.1274
L16.0166 -50.5193
L16.2065 -50.9109
L16.4274 -51.3008
L16.6773 -51.6878
L16.954 -52.0706
L17.255 -52.4479
L17.5781 -52.8188
L17.9208 -53.1822
L18.2811 -53.5374
L18.6568 -53.8837
L19.0462 -54.2204
L19.4475 -54.5471
L19.8592 -54.8635
L20.2798 -55.1692
L20.7081 -55.464
L21.143 -55.7478
L21.5834 -56.0204
L22.0283 -56.2819
L22.4769 -56.5323
L22.9285 -56.7715
L23.3822 -56.9997
L23.8374 -57.217
L24.2936 -57.4235
L24.7502 -57.6193
L25.2067 -57.8047
L25.6626 -57.9798
L26.1176 -58.1448
L26.5712 -58.3
L27.0231 -58.4455
L27.4731 -58.5817
L27.9208 -58.7086
L28.3661 -58.8267
L28.8086 -58.936
L29.2482 -59.0369
L29.6847 -59.1295
L30.118 -59.2142
L30.5479 -59.2911
L30.9743 -59.3606
L31.3972 -59.4227
L31.8164 -59.4778
L32.232 -59.526
L32.6437 -59.5676
L33.0517 -59.6028
L33.4558 -59.6318
L33.8561 -59.6547
L34.2526 -59.6718
L34.6452 -59.6833
L35.0339 -59.6892
L35.4189 -59.6899
L35.8 -59.6854
L36.1774 -59.676
L36.5511 -59.6617
L36.9211 -59.6427
L37.2874 -59.6192
L37.6502 -59.5912
L38.0094 -59.5589
L38.3651 -59.5224
L38.7174 -59.4819
L39.0663 -59.4374
L39.4119 -59.389
L39.7543 -59.3368
L40.0935 -59.2809
L40.4295 -59.2215
L40.7625 -59.1585
L41.0926 -59.092
L41.4197 -59.0222
L41.744 -58.949
L42.0655 -58.8725
L42.3843 -58.7928
L42.7005 -58.71
L43.0141 -58.624
L43.3251 -58.535
L43.6338 -58.4428
L43.94 -58.3477
L44.244 -58.2495
L44.5457 -58.1484
L44.8453 -58.0443
L45.1427 -57.9373
L45.4381 -57.8274
L45.7315 -57.7145
L46.0229 -57.5987
L46.3125 -57.48
L46.6003 -57.3583
L46.8863 -57.2337
L47.1706 -57.1062
L47.4532 -56.9757
L47.7343 -56.8423
L48.0138 -56.7059
L48.2918 -56.5664
L48.5683 -56.4239
L48.8435 -56.2783
L49.1173 -56.1296
L49.3897 -55.9778
L49.6609 -55.8228
L49.9309 -55.6646
L50.1996 -55.503
L50.4672 -55.3382
L50.7336 -55.17
L50.999 -54.9983
L51.2632 -54.8232
L51.5264 -54.6445
L51.7886 -54.4622
L52.0497 -54.2762
L52.3099 -54.0864
L52.5691 -53.8928
L52.8274 -53.6953
L53.0846 -53.4938
L53.341 -53.2882
L53.5963 -53.0785
L53.8508 -52.8644
L54.1043 -52.6461
L54.3568 -52.4232
L54.6083 -52.1958
L54.8589 -51.9638
L55.1084 -51.7269
L55.3569 -51.4852
L55.6043 -51.2385
L55.8506 -50.9867
L56.0957 -50.7297
L56.3396 -50.4672
L56.5823 -50.1994
L56.8236 -49.9259
L57.0636 -49.6466
L57.302 -49.3615
L57.5389 -49.0705
L57.7741 -48.7732
L58.0076 -48.4697
L58.2392 -48.1598
L58.4688 -47.8433
L58.6963 -47.5202
L58.9215 -47.1902
L59.1443 -46.8533
L59.3645 -46.5093
L59.582 -46.1581
L59.7965 -45.7995
L60.0079 -45.4334
L60.2159 -45.0598
L60.4203 -44.6784
L60.6209 -44.2892
L60.8175 -43.8922
L61.0096 -43.4871
L61.1972 -43.0739
L61.3798 -42.6526
L61.5572 -42.2231
L61.729 -41.7853
L61.8948 -41.3393
L62.0544 -40.8851
L62.2072 -40.4227
L62.3531 -39.9521
L62.4914 -39.4734
L62.6218 -38.9867
L62.7439 -38.4922
L62.8572 -37.99
L62.9612 -37.4805
L63.0555 -36.9638
L63.1396 -36.4403
L63.2129 -35.9103
L63.275 -35.3744
L63.3254 -34.8329
L63.3635 -34.2866
L63.3888 -33.7361
L63.4007 -33.1822
L63.3989 -32.6256
L63.3827 -32.0676
L63.3516 -31.5091
L63.3051 -30.9515
L63.2427 -30.3962
L63.1641 -29.8448
L63.0687 -29.2993
L62.956 -28.7616
L62.8259 -28.2339
L62.6779 -27.7189
L62.5119 -27.2191
L62.3278 -26.7374
L62.1256 -26.2766
L61.9055 -25.8395
L61.6679 -25.4287
L61.4135 -25.0464
L61.143 -24.6942
L60.8577 -24.3729
L60.5586 -24.0829
L60.2472 -23.8236
L59.9248 -23.5939
L59.5928 -23.3923
L59.2526 -23.2168
L58.9054 -23.0655
L58.5524 -22.9363
L58.1946 -22.8272
L57.8329 -22.7365
L57.4682 -22.6624
L57.1013 -22.6033
L56.7326 -22.5578
L56.3629 -22.5248
L55.9926 -22.5031
L55.6221 -22.4917
L55.252 -22.4898
L54.8824 -22.4965
L54.5139 -22.5112
L54.1465 -22.5332
L53.7806 -22.5619
L53.4165 -22.5969
L53.0543 -22.6377
L52.6943 -22.6837
L52.3365 -22.7347
L51.9812 -22.7903
L51.6284 -22.8501
L51.2783 -22.9139
L50.931 -22.9812
L50.5866 -23.052
L50.2451 -23.1259
L49.9066 -23.2027
L49.5712 -23.2822
L49.2388 -23.3642
L48.9096 -23.4486
L48.5835 -23.5351
L48.2606 -23.6235
L47.9408 -23.7139
L47.6242 -23.8059
L47.3107 -23.8996
L47.0004 -23.9947
L46.6932 -24.0912
L46.3891 -24.189
L46.088 -24.288
L45.7899 -24.388
L45.4949 -24.4891
L45.2028 -24.5911
L44.9136 -24.694
L44.6272 -24.7977
L44.3436 -24.9021
L44.0628 -25.0073
L43.7847 -25.1132
L43.5092 -25.2196
L43.2363 -25.3267
L42.9659 -25.4343
L42.698 -25.5424
L42.4325 -25.651
L42.1693 -25.7601
L41.9084 -25.8696
L41.6497 -25.9796
L41.3932 -26.09
L41.1387 -26.2008
L40.8863 -26.3121
L40.6359 -26.4237
L40.3873 -26.5357
L40.1406 -26.648
L39.8956 -26.7608
L39.6523 -26.874
L39.4107 -26.9875
L39.1707 -27.1014
L38.9322 -27.2158
L38.6951 -27.3305
L38.4595 -27.4456
L38.2251 -27.5612
L37.9921 -27.6772
L37.7602 -27.7937
L37.5295 -27.9106
L37.2999 -28.028
L37.0714 -28.1459
L36.8438 -28.2644
L36.6171 -28.3833
L36.3913 -28.5028
L36.1663 -28.6229
L35.942 -28.7436
L35.7184 -28.8649
L35.4955 -28.9868
L35.2731 -29.1094
L35.0513 -29.2327
z
" id="C0_1_b5e8605819"/>
    </defs>
    <g clip-path="url(#p1bffca34e9)">
     <use style="fill:#ffffff;stroke:#000000;stroke-width:2.0;" x="0.0" xlink:href="#C0_0_a811fe30f3" y="72.0"/>
    </g>
    <g clip-path="url(#p1bffca34e9)">
     <use style="fill:#ff0000;stroke:#000000;stroke-width:2.0;" x="0.0" xlink:href="#C0_1_b5e8605819" y="72.0"/>
    </g>
   </g>
  </g>
 </g>
 <defs>
  <clipPath id="p1bffca34e9">
   <rect height="72.0" width="72.0" x="0.0" y="0.0"/>
  </clipPath>
 </defs>
</svg>
