<?xml version="1.0" encoding="utf-8" standalone="no"?>
<!DOCTYPE svg PUBLIC "-//W3C//DTD SVG 1.1//EN"
  "http://www.w3.org/Graphics/SVG/1.1/DTD/svg11.dtd">
<!-- Created with matplotlib (http://matplotlib.org/) -->
<svg height="72pt" version="1.1" viewBox="0 0 72 72" width="72pt" xmlns="http://www.w3.org/2000/svg" xmlns:xlink="http://www.w3.org/1999/xlink">
 <defs>
  <style type="text/css">
*{stroke-linecap:butt;stroke-linejoin:round;}
  </style>
 </defs>
 <g id="figure_1">
  <g id="patch_1">
   <path d="
M0 72
L72 72
L72 0
L0 0
z
" style="fill:none;"/>
  </g>
  <g id="axes_1">
   <g id="PatchCollection_1">
    <defs>
     <path d="
M36 -7.5
C43.5583 -7.5 50.808 -10.5029 56.1525 -15.8475
C61.4971 -21.192 64.5 -28.4417 64.5 -36
C64.5 -43.5583 61.4971 -50.808 56.1525 -56.1525
C50.808 -61.4971 43.5583 -64.5 36 -64.5
C28.4417 -64.5 21.192 -61.4971 15.8475 -56.1525
C10.5029 -50.808 7.5 -43.5583 7.5 -36
C7.5 -28.4417 10.5029 -21.192 15.8475 -15.8475
C21.192 -10.5029 28.4417 -7.5 36 -7.5
z
" id="C0_0_a811fe30f3"/>
     <path d="
M27.2532 -63.0739
L27.5344 -62.8836
L27.8476 -62.6968
L28.1842 -62.5109
L28.5375 -62.324
L28.9023 -62.1348
L29.2747 -61.9422
L29.6517 -61.7456
L30.0309 -61.5448
L30.4107 -61.3394
L30.7895 -61.1295
L31.1663 -60.9151
L31.5402 -60.6964
L31.9106 -60.4734
L32.2768 -60.2464
L32.6384 -60.0156
L32.9951 -59.7812
L33.3466 -59.5436
L33.6927 -59.3029
L34.0332 -59.0595
L34.3679 -58.8135
L34.6969 -58.5652
L35.02 -58.3149
L35.3372 -58.0628
L35.6485 -57.8091
L35.954 -57.554
L36.2535 -57.2978
L36.5473 -57.0406
L36.8352 -56.7827
L37.1175 -56.5241
L37.3942 -56.265
L37.6653 -56.0057
L37.9309 -55.7461
L38.1912 -55.4865
L38.4462 -55.227
L38.696 -54.9677
L38.9408 -54.7086
L39.1806 -54.4499
L39.4156 -54.1916
L39.6458 -53.9339
L39.8714 -53.6767
L40.0924 -53.4201
L40.3091 -53.1642
L40.5215 -52.9089
L40.7296 -52.6545
L40.9337 -52.4008
L41.1338 -52.1478
L41.3301 -51.8957
L41.5225 -51.6444
L41.7113 -51.3939
L41.8965 -51.1443
L42.0783 -50.8955
L42.2567 -50.6474
L42.4318 -50.4002
L42.6037 -50.1538
L42.7725 -49.9082
L42.9383 -49.6633
L43.1011 -49.4191
L43.2612 -49.1757
L43.4184 -48.9329
L43.573 -48.6908
L43.725 -48.4494
L43.8744 -48.2085
L44.0214 -47.9681
L44.1659 -47.7283
L44.3082 -47.489
L44.4481 -47.2501
L44.5859 -47.0117
L44.7216 -46.7735
L44.8551 -46.5357
L44.9867 -46.2982
L45.1163 -46.0609
L45.2439 -45.8238
L45.3698 -45.5868
L45.4938 -45.3499
L45.616 -45.113
L45.7365 -44.8761
L45.8554 -44.6391
L45.9726 -44.4021
L46.0882 -44.1648
L46.2023 -43.9273
L46.3149 -43.6896
L46.426 -43.4515
L46.5356 -43.213
L46.6439 -42.9741
L46.8563 -42.7347
L46.9605 -42.4947
L47.0634 -42.2541
L47.165 -42.0128
L47.2654 -41.7707
L47.3645 -41.5279
L47.4625 -41.2842
L47.5592 -41.0395
L47.6548 -40.7939
L47.7492 -40.5472
L47.8425 -40.2994
L47.9346 -40.0504
L48.0256 -39.8002
L48.1155 -39.5486
L48.2043 -39.2957
L48.292 -39.0412
L48.3786 -38.7853
L48.4641 -38.5278
L48.5485 -38.2686
L48.6317 -38.0076
L48.7139 -37.7448
L48.7949 -37.4802
L48.8749 -37.2136
L48.9536 -36.9449
L49.0313 -36.6741
L49.1077 -36.4012
L49.183 -36.1259
L49.2571 -35.8483
L49.3299 -35.5683
L49.4015 -35.2858
L49.4717 -35.0007
L49.5407 -34.713
L49.6083 -34.4225
L49.6745 -34.1292
L49.7393 -33.833
L49.8026 -33.5338
L49.8644 -33.2316
L49.9246 -32.9262
L49.9831 -32.6176
L50.04 -32.3058
L50.0951 -31.9905
L50.1484 -31.6719
L50.1997 -31.3497
L50.2491 -31.024
L50.2965 -30.6947
L50.3417 -30.3616
L50.3846 -30.0248
L50.4253 -29.6842
L50.4635 -29.3397
L50.4992 -28.9912
L50.5322 -28.6389
L50.5625 -28.2825
L50.59 -27.9221
L50.6144 -27.5577
L50.6358 -27.1892
L50.6539 -26.8167
L50.6686 -26.4401
L50.6798 -26.0594
L50.6873 -25.6747
L50.6911 -25.286
L50.6909 -24.8934
L50.6867 -24.497
L50.6782 -24.0967
L50.6653 -23.6928
L50.648 -23.2852
L50.626 -22.8742
L50.5993 -22.46
L50.5678 -22.0426
L50.5313 -21.6223
L50.4897 -21.1993
L50.4431 -20.7738
L50.3915 -20.3463
L50.3347 -19.9169
L50.273 -19.4861
L50.2064 -19.0542
L50.1353 -18.6218
L50.0599 -18.1893
L49.9807 -17.7574
L49.8984 -17.3268
L49.814 -16.8983
L49.7286 -16.4728
L49.644 -16.0516
L49.5625 -15.636
L49.487 -15.2278
L49.4217 -14.8292
L49.372 -14.4429
L49.3448 -14.0726
L49.3488 -13.7225
L49.3938 -13.3982
L49.4899 -13.1056
L49.6449 -12.8511
L49.8626 -12.6397
L50.1415 -12.4742
L50.4755 -12.3547
L50.856 -12.2785
L51.2739 -12.2414
L51.721 -12.2389
L52.1511 -12.267
L52.5585 -12.5183
L52.9608 -12.8037
L53.3579 -13.0963
L53.7498 -13.3958
L54.1362 -13.7021
L54.5172 -14.0153
L54.8924 -14.3352
L55.262 -14.6616
L55.6256 -14.9946
L55.9833 -15.334
L56.3349 -15.6796
L56.6803 -16.0315
L57.0194 -16.3894
L57.3521 -16.7533
L57.6783 -17.1231
L57.9979 -17.4986
L58.3108 -17.8798
L58.6169 -18.2665
L58.9161 -18.6585
L59.2083 -19.0559
L59.4935 -19.4584
L59.7715 -19.866
L60.0422 -20.2785
L60.3057 -20.6957
L60.5617 -21.1176
L60.8103 -21.5441
L61.0512 -21.975
L61.2846 -22.4101
L61.5103 -22.8494
L61.7282 -23.2927
L61.9382 -23.7398
L62.1404 -24.1907
L62.3345 -24.6452
L62.5207 -25.1031
L62.6988 -25.5644
L62.8687 -26.0288
L63.0305 -26.4963
L63.1841 -26.9667
L63.3293 -27.4398
L63.4662 -27.9155
L63.5948 -28.3937
L63.715 -28.8742
L63.8267 -29.3569
L63.9299 -29.8416
L64.0247 -30.3282
L64.1109 -30.8165
L64.1885 -31.3064
L64.2575 -31.7977
L64.318 -32.2903
L64.3698 -32.784
L64.413 -33.2787
L64.4475 -33.7743
L64.4733 -34.2705
L64.4905 -34.7672
L64.499 -35.2643
L64.4988 -35.7617
L64.49 -36.2591
L64.4724 -36.7564
L64.4462 -37.2535
L64.4113 -37.7503
L64.3678 -38.2464
L64.3156 -38.7419
L64.2548 -39.2366
L64.1854 -39.7303
L64.1074 -40.2228
L64.0209 -40.7141
L63.9258 -41.2039
L63.8222 -41.6922
L63.7101 -42.1787
L63.5896 -42.6633
L63.4607 -43.1459
L63.3234 -43.6263
L63.1778 -44.1044
L63.0239 -44.58
L62.8618 -45.053
L62.6915 -45.5233
L62.5131 -45.9906
L62.3266 -46.4549
L62.1321 -46.9161
L61.9296 -47.3739
L61.7192 -47.8282
L61.501 -48.2789
L61.275 -48.7259
L61.0413 -49.169
L60.8 -49.6082
L60.5512 -50.0431
L60.2948 -50.4738
L60.0311 -50.9001
L59.76 -51.3218
L59.4817 -51.7389
L59.1963 -52.1511
L58.9037 -52.5585
L58.6042 -52.9608
L58.2979 -53.3579
L57.9847 -53.7498
L57.6648 -54.1362
L57.3384 -54.5172
L57.0054 -54.8924
L56.666 -55.262
L56.3204 -55.6256
L55.9685 -55.9833
L55.6106 -56.3349
L55.2467 -56.6803
L54.8769 -57.0194
L54.5014 -57.3521
L54.1202 -57.6783
L53.7335 -57.9979
L53.3415 -58.3108
L52.9441 -58.6169
L52.5416 -58.9161
L52.134 -59.2083
L51.7215 -59.4935
L51.3043 -59.7715
L50.8824 -60.0422
L50.4559 -60.3057
L50.025 -60.5617
L49.5899 -60.8103
L49.1506 -61.0512
L48.7073 -61.2846
L48.2602 -61.5103
L47.8093 -61.7282
L47.3548 -61.9382
L46.8969 -62.1404
L46.4356 -62.3345
L45.9712 -62.5207
L45.5037 -62.6988
L45.0333 -62.8687
L44.5602 -63.0305
L44.0845 -63.1841
L43.6063 -63.3293
L43.1258 -63.4662
L42.6431 -63.5948
L42.1584 -63.715
L41.6718 -63.8267
L41.1835 -63.9299
L40.6936 -64.0247
L40.2023 -64.1109
L39.7097 -64.1885
L39.216 -64.2575
L38.7213 -64.318
L38.2257 -64.3698
L37.7295 -64.413
L37.2328 -64.4475
L36.7357 -64.4733
L36.2383 -64.4905
L35.7409 -64.499
L35.2436 -64.4988
L34.7465 -64.49
L34.2497 -64.4724
L33.7536 -64.4462
L33.2581 -64.4113
L32.7634 -64.3678
L32.2697 -64.3156
L31.7772 -64.2548
L31.2859 -64.1854
L30.7961 -64.1074
L30.3078 -64.0209
L29.8213 -63.9258
L29.3367 -63.8222
L28.8541 -63.7101
L28.3737 -63.5896
L27.8956 -63.4607
z
" id="C0_1_bca7026028"/>
     <path d="
M20.018 -59.3733
L19.784 -58.9472
L19.5464 -58.5111
L19.3086 -58.067
L19.0735 -57.6164
L18.843 -57.1607
L18.6186 -56.7011
L18.4015 -56.2386
L18.1923 -55.774
L17.9916 -55.3081
L17.7999 -54.8416
L17.6174 -54.375
L17.4441 -53.909
L17.2802 -53.444
L17.1256 -52.9805
L16.9802 -52.5189
L16.8439 -52.0595
L16.7167 -51.6027
L16.5982 -51.1487
L16.4883 -50.6979
L16.3868 -50.2504
L16.2934 -49.8064
L16.2079 -49.3663
L16.1301 -48.93
L16.0597 -48.4978
L15.9966 -48.0697
L15.9403 -47.6459
L15.8908 -47.2264
L15.8477 -46.8113
L15.8108 -46.4007
L15.7799 -45.9946
L15.7548 -45.5929
L15.7352 -45.1958
L15.721 -44.8032
L15.7119 -44.4151
L15.7077 -44.0314
L15.7082 -43.6522
L15.7134 -43.2774
L15.7229 -42.907
L15.7366 -42.5409
L15.7543 -42.1791
L15.776 -41.8215
L15.8014 -41.468
L15.8304 -41.1185
L15.8629 -40.7731
L15.8987 -40.4316
L15.9378 -40.094
L15.98 -39.7601
L16.0251 -39.4299
L16.0732 -39.1033
L16.1241 -38.7803
L16.1778 -38.4606
L16.234 -38.1444
L16.2929 -37.8314
L16.3542 -37.5216
L16.4179 -37.2149
L16.484 -36.9112
L16.5524 -36.6104
L16.623 -36.3125
L16.6958 -36.0174
L16.7707 -35.7249
L16.8478 -35.435
L16.9269 -35.1477
L17.008 -34.8627
L17.0912 -34.5802
L17.1763 -34.2999
L17.2634 -34.0217
L17.3523 -33.7457
L17.4432 -33.4718
L17.536 -33.1998
L17.6307 -32.9296
L17.7272 -32.6613
L17.8256 -32.3948
L17.9259 -32.1299
L18.028 -31.8666
L18.132 -31.6048
L18.2379 -31.3445
L18.3457 -31.0856
L18.4553 -30.828
L18.5669 -30.5717
L18.6803 -30.3165
L18.7958 -30.0625
L18.9131 -29.8096
L19.0325 -29.5577
L19.1539 -29.3067
L19.2773 -29.0566
L19.4027 -28.8074
L19.5303 -28.5589
L19.66 -28.3112
L19.7919 -28.0641
L19.9259 -27.8177
L20.0623 -27.5718
L20.2009 -27.3265
L20.3418 -27.0816
L20.4852 -26.8371
L20.631 -26.593
L20.7793 -26.3492
L20.9301 -26.1057
L21.0836 -25.8624
L21.2397 -25.6194
L21.3986 -25.3765
L21.5603 -25.1337
L21.7248 -24.891
L21.8923 -24.6484
L22.0629 -24.4058
L22.2365 -24.1632
L22.4133 -23.9205
L22.5934 -23.6778
L22.7768 -23.435
L22.9637 -23.192
L23.1541 -22.949
L23.3481 -22.7058
L23.5458 -22.4624
L23.7474 -22.2189
L23.9529 -21.9752
L24.1624 -21.7314
L24.376 -21.4873
L24.594 -21.2431
L24.8162 -20.9987
L25.043 -20.7542
L25.2743 -20.5095
L25.5104 -20.2647
L25.7513 -20.0199
L25.9972 -19.775
L26.2481 -19.5301
L26.5043 -19.2852
L26.7658 -19.0404
L27.0328 -18.7958
L27.3054 -18.5514
L27.5838 -18.3073
L27.868 -18.0636
L28.1582 -17.8203
L28.4545 -17.5776
L28.7571 -17.3356
L29.0661 -17.0944
L29.3816 -16.8541
L29.7037 -16.6148
L30.0325 -16.3768
L30.3682 -16.1402
L30.7108 -15.9051
L31.0604 -15.6717
L31.4171 -15.4403
L31.781 -15.211
L32.1522 -14.984
L32.5306 -14.7596
L32.9163 -14.538
L33.3094 -14.3195
L33.7097 -14.1042
L34.1173 -13.8926
L34.5321 -13.6848
L34.9541 -13.4811
L35.383 -13.2818
L35.8187 -13.0872
L36.261 -12.8975
L36.7096 -12.713
L37.1643 -12.534
L37.6245 -12.3607
L38.0898 -12.1932
L38.5596 -12.0318
L39.0331 -11.8766
L39.5095 -11.7275
L39.9877 -11.5846
L40.4662 -11.4475
L40.9434 -11.3159
L41.4172 -11.1892
L41.8846 -11.0664
L42.3422 -10.946
L42.7854 -10.8261
L43.2082 -10.704
L43.6031 -10.5759
L43.961 -10.4372
L44.2714 -10.2826
L44.5238 -10.1065
L44.7097 -9.90459
L44.8249 -9.67453
L44.8703 -9.41708
L44.4449 -9.13547
L43.9686 -8.7799
L43.4898 -8.63666
L43.0087 -8.50176
L42.5255 -8.37523
L42.0404 -8.25712
L41.5534 -8.14746
L41.0647 -8.04628
L40.5744 -7.95362
L40.0828 -7.8695
L39.5899 -7.79395
L39.0959 -7.727
L38.601 -7.66865
L38.1053 -7.61893
L37.6089 -7.57786
L37.1121 -7.54545
L36.6149 -7.5217
L36.1175 -7.50663
L35.6201 -7.50024
L35.1228 -7.50253
L34.6258 -7.5135
L34.1292 -7.53315
L33.6331 -7.56147
L33.1378 -7.59845
L32.6434 -7.64408
L32.15 -7.69835
L31.6577 -7.76125
L31.1668 -7.83274
L30.6773 -7.91281
L30.1895 -8.00144
L29.7034 -8.0986
L29.2193 -8.20426
L28.7372 -8.31838
L28.2574 -8.44094
L27.7798 -8.57189
L27.3048 -8.71119
L26.8325 -8.85881
L26.3629 -9.01469
L25.8963 -9.1788
L25.4328 -9.35107
L24.9724 -9.53147
L24.5155 -9.71992
L24.062 -9.91638
L23.6121 -10.1208
L23.1661 -10.3331
L22.7239 -10.5532
L22.2858 -10.781
L21.8519 -11.0166
L21.4223 -11.2597
L20.9971 -11.5104
L20.5765 -11.7686
L20.1606 -12.0341
L19.7495 -12.3069
L19.3433 -12.587
L18.9423 -12.8741
L18.5464 -13.1684
L18.1558 -13.4695
L17.7707 -13.7776
L17.3912 -14.0924
L17.0173 -14.4139
L16.6492 -14.7419
L16.2869 -15.0765
L15.9307 -15.4174
L15.5806 -15.7645
L15.2367 -16.1179
L14.8992 -16.4773
L14.5681 -16.8426
L14.2435 -17.2138
L13.9255 -17.5907
L13.6142 -17.9732
L13.3098 -18.3612
L13.0123 -18.7546
L12.7218 -19.1532
L12.4383 -19.557
L12.1621 -19.9657
L11.8931 -20.3794
L11.6315 -20.7978
L11.3772 -21.2208
L11.1305 -21.6484
L10.8914 -22.0803
L10.6599 -22.5164
L10.4361 -22.9567
L10.2201 -23.4009
L10.012 -23.849
L9.81175 -24.3008
L9.6195 -24.7561
L9.43529 -25.2149
L9.25918 -25.6769
L9.09121 -26.1421
L8.93143 -26.6103
L8.7799 -27.0813
L8.63666 -27.5551
L8.50176 -28.0314
L8.37523 -28.5102
L8.25712 -28.9913
L8.14746 -29.4745
L8.04628 -29.9596
L7.95362 -30.4466
L7.8695 -30.9353
L7.79395 -31.4256
L7.727 -31.9172
L7.66865 -32.4101
L7.61893 -32.9041
L7.57786 -33.399
L7.54545 -33.8947
L7.5217 -34.3911
L7.50663 -34.8879
L7.50024 -35.3851
L7.50253 -35.8825
L7.5135 -36.3799
L7.53315 -36.8772
L7.56147 -37.3742
L7.59845 -37.8708
L7.64408 -38.3669
L7.69835 -38.8622
L7.76125 -39.3566
L7.83274 -39.85
L7.91281 -40.3423
L8.00144 -40.8332
L8.0986 -41.3227
L8.20426 -41.8105
L8.31838 -42.2966
L8.44094 -42.7807
L8.57189 -43.2628
L8.71119 -43.7426
L8.85881 -44.2202
L9.01469 -44.6952
L9.1788 -45.1675
L9.35107 -45.6371
L9.53147 -46.1037
L9.71992 -46.5672
L9.91638 -47.0276
L10.1208 -47.4845
L10.3331 -47.938
L10.5532 -48.3879
L10.781 -48.8339
L11.0166 -49.2761
L11.2597 -49.7142
L11.5104 -50.1481
L11.7686 -50.5777
L12.0341 -51.0029
L12.3069 -51.4235
L12.587 -51.8394
L12.8741 -52.2505
L13.1684 -52.6567
L13.4695 -53.0577
L13.7776 -53.4536
L14.0924 -53.8442
L14.4139 -54.2293
L14.7419 -54.6088
L15.0765 -54.9827
L15.4174 -55.3508
L15.7645 -55.7131
L16.1179 -56.0693
L16.4773 -56.4194
L16.8426 -56.7633
L17.2138 -57.1008
L17.5907 -57.4319
L17.9732 -57.7565
L18.3612 -58.0745
L18.7546 -58.3858
L19.1532 -58.6902
z
" id="C0_2_a627e89961"/>
    </defs>
    <g clip-path="url(#p1bffca34e9)">
     <use style="fill:#ff0000;stroke:#000000;stroke-width:2.0;" x="0.0" xlink:href="#C0_0_a811fe30f3" y="72.0"/>
    </g>
    <g clip-path="url(#p1bffca34e9)">
     <use style="fill:#ffffff;stroke:#000000;stroke-width:2.0;" x="0.0" xlink:href="#C0_1_bca7026028" y="72.0"/>
    </g>
    <g clip-path="url(#p1bffca34e9)">
     <use style="fill:#ffffff;stroke:#000000;stroke-width:2.0;" x="0.0" xlink:href="#C0_2_a627e89961" y="72.0"/>
    </g>
   </g>
  </g>
 </g>
 <defs>
  <clipPath id="p1bffca34e9">
   <rect height="72.0" width="72.0" x="0.0" y="0.0"/>
  </clipPath>
 </defs>
</svg>
