<?xml version="1.0" encoding="utf-8" standalone="no"?>
<!DOCTYPE svg PUBLIC "-//W3C//DTD SVG 1.1//EN"
  "http://www.w3.org/Graphics/SVG/1.1/DTD/svg11.dtd">
<!-- Created with matplotlib (http://matplotlib.org/) -->
<svg height="72pt" version="1.1" viewBox="0 0 72 72" width="72pt" xmlns="http://www.w3.org/2000/svg" xmlns:xlink="http://www.w3.org/1999/xlink">
 <defs>
  <style type="text/css">
*{stroke-linecap:butt;stroke-linejoin:round;}
  </style>
 </defs>
 <g id="figure_1">
  <g id="patch_1">
   <path d="
M0 72
L72 72
L72 0
L0 0
z
" style="fill:none;"/>
  </g>
  <g id="axes_1">
   <g id="PatchCollection_1">
    <defs>
     <path d="
M36 -7.5
C43.5583 -7.5 50.808 -10.5029 56.1525 -15.8475
C61.4971 -21.192 64.5 -28.4417 64.5 -36
C64.5 -43.5583 61.4971 -50.808 56.1525 -56.1525
C50.808 -61.4971 43.5583 -64.5 36 -64.5
C28.4417 -64.5 21.192 -61.4971 15.8475 -56.1525
C10.5029 -50.808 7.5 -43.5583 7.5 -36
C7.5 -28.4417 10.5029 -21.192 15.8475 -15.8475
C21.192 -10.5029 28.4417 -7.5 36 -7.5
z
" id="C0_0_a811fe30f3"/>
     <path d="
M30.404 -8.1049
L30.8622 -8.08346
L31.3187 -8.07715
L31.7727 -8.08563
L32.2235 -8.1085
L32.6707 -8.14535
L33.1136 -8.1957
L33.5517 -8.25908
L33.9846 -8.33497
L34.4119 -8.42287
L34.8333 -8.52224
L35.2483 -8.63256
L35.6568 -8.75331
L36.0585 -8.88394
L36.4532 -9.02396
L36.8408 -9.17284
L37.2211 -9.33011
L37.5941 -9.49527
L37.9596 -9.66786
L38.3177 -9.84742
L38.6683 -10.0335
L39.0114 -10.2257
L39.347 -10.4237
L39.6752 -10.627
L39.996 -10.8353
L40.3095 -11.0481
L40.6157 -11.2653
L40.9147 -11.4865
L41.2067 -11.7114
L41.4917 -11.9396
L41.7698 -12.171
L42.0412 -12.4053
L42.3059 -12.6423
L42.5642 -12.8817
L42.816 -13.1233
L43.0615 -13.367
L43.3009 -13.6125
L43.5343 -13.8597
L43.7618 -14.1084
L43.9835 -14.3586
L44.1995 -14.61
L44.4101 -14.8625
L44.6153 -15.116
L44.8152 -15.3705
L45.0099 -15.6257
L45.1997 -15.8817
L45.3845 -16.1383
L45.5645 -16.3955
L45.7399 -16.6531
L45.9106 -16.9113
L46.077 -17.1698
L46.2389 -17.4286
L46.3966 -17.6878
L46.5502 -17.9472
L46.6997 -18.2068
L46.8452 -18.4666
L46.9869 -18.7266
L47.1248 -18.9868
L47.259 -19.2471
L47.3895 -19.5075
L47.5166 -19.7681
L47.6401 -20.0288
L47.7603 -20.2896
L47.8772 -20.5505
L47.9908 -20.8116
L48.1013 -21.0728
L48.2086 -21.3341
L48.3129 -21.5956
L48.4142 -21.8572
L48.5125 -22.119
L48.6079 -22.381
L48.7005 -22.6433
L48.7903 -22.9058
L48.8774 -23.1685
L48.9617 -23.4316
L49.0434 -23.6949
L49.1224 -23.9586
L49.1989 -24.2227
L49.2727 -24.4871
L49.344 -24.752
L49.4129 -25.0173
L49.4792 -25.2831
L49.6045 -25.5495
L49.6635 -25.8164
L49.7201 -26.0839
L49.7743 -26.352
L49.8261 -26.6208
L49.8755 -26.8902
L49.9226 -27.1604
L49.9673 -27.4314
L50.0096 -27.7032
L50.0496 -27.9758
L50.0872 -28.2493
L50.1224 -28.5237
L50.1553 -28.7991
L50.1857 -29.0755
L50.2138 -29.3529
L50.2394 -29.6314
L50.2626 -29.9109
L50.2834 -30.1916
L50.3017 -30.4735
L50.3174 -30.7566
L50.3307 -31.041
L50.3414 -31.3266
L50.3495 -31.6136
L50.3549 -31.9019
L50.3577 -32.1916
L50.3578 -32.4827
L50.3552 -32.7752
L50.3498 -33.0692
L50.3415 -33.3647
L50.3303 -33.6617
L50.3162 -33.9602
L50.2991 -34.2603
L50.2789 -34.562
L50.2556 -34.8653
L50.2291 -35.1701
L50.1994 -35.4766
L50.1663 -35.7847
L50.1298 -36.0944
L50.0898 -36.4057
L50.0463 -36.7186
L49.9991 -37.033
L49.9482 -37.3491
L49.8934 -37.6667
L49.8348 -37.9858
L49.7721 -38.3064
L49.7053 -38.6285
L49.6344 -38.9519
L49.559 -39.2766
L49.4793 -39.6026
L49.3951 -39.9299
L49.3062 -40.2582
L49.2125 -40.5875
L49.114 -40.9177
L49.0105 -41.2487
L48.9019 -41.5804
L48.7881 -41.9126
L48.6689 -42.2451
L48.5443 -42.5779
L48.4141 -42.9106
L48.2781 -43.2432
L48.1364 -43.5754
L47.9886 -43.9069
L47.8348 -44.2375
L47.6748 -44.567
L47.5085 -44.895
L47.3358 -45.2213
L47.1565 -45.5454
L46.9706 -45.8672
L46.7779 -46.1861
L46.5784 -46.5018
L46.372 -46.8139
L46.1586 -47.1219
L45.9381 -47.4254
L45.7104 -47.724
L45.4756 -48.017
L45.2336 -48.304
L44.9843 -48.5844
L44.7278 -48.8577
L44.4642 -49.1234
L44.1933 -49.3808
L43.9153 -49.6295
L43.6303 -49.8687
L43.3384 -50.098
L43.0396 -50.3168
L42.7343 -50.5246
L42.4226 -50.7208
L42.1047 -50.9051
L41.7808 -51.0768
L41.4513 -51.2357
L41.1165 -51.3814
L40.7767 -51.5137
L40.4323 -51.6322
L40.0837 -51.7369
L39.7313 -51.8276
L39.3755 -51.9043
L39.0167 -51.9671
L38.6554 -52.016
L38.2921 -52.0513
L37.9272 -52.073
L37.5612 -52.0815
L37.1944 -52.0771
L36.8273 -52.0601
L36.4603 -52.0309
L36.0939 -51.9899
L35.7283 -51.9375
L35.364 -51.8741
L35.0014 -51.8003
L34.6406 -51.7163
L34.282 -51.6228
L33.926 -51.5201
L33.5727 -51.4087
L33.2224 -51.2889
L32.8753 -51.1614
L32.5316 -51.0263
L32.1915 -50.8843
L31.8551 -50.7356
L31.5226 -50.5806
L31.1941 -50.4197
L30.8698 -50.2533
L30.5496 -50.0816
L30.2337 -49.9051
L29.9221 -49.7239
L29.615 -49.5384
L29.3123 -49.3489
L29.0141 -49.1556
L28.7204 -48.9588
L28.4312 -48.7587
L28.1465 -48.5555
L27.8663 -48.3495
L27.5906 -48.1408
L27.3193 -47.9297
L27.0526 -47.7162
L26.7903 -47.5006
L26.5323 -47.2831
L26.2787 -47.0637
L26.0295 -46.8426
L25.7845 -46.6199
L25.5437 -46.3958
L25.3071 -46.1703
L25.0747 -45.9435
L24.8463 -45.7156
L24.6219 -45.4867
L24.4014 -45.2567
L24.1849 -45.0258
L23.9722 -44.794
L23.7633 -44.5615
L23.5581 -44.3282
L23.3566 -44.0942
L23.1587 -43.8595
L22.9643 -43.6242
L22.7735 -43.3884
L22.586 -43.1519
L22.402 -42.915
L22.2212 -42.6775
L22.0438 -42.4396
L21.8695 -42.2012
L21.6984 -41.9623
L21.5304 -41.7229
L21.3655 -41.4831
L21.2036 -41.2428
L21.0447 -41.0021
L20.8887 -40.7609
L20.7355 -40.5192
L20.5853 -40.2771
L20.4377 -40.0345
L20.293 -39.7913
L20.151 -39.5477
L20.0116 -39.3035
L19.8749 -39.0588
L19.7409 -38.8135
L19.6094 -38.5675
L19.4805 -38.321
L19.3541 -38.0738
L19.2302 -37.826
L19.1089 -37.5774
L18.99 -37.3281
L18.8735 -37.0781
L18.7595 -36.8272
L18.6479 -36.5755
L18.5387 -36.323
L18.4319 -36.0695
L18.3276 -35.8152
L18.2256 -35.5598
L18.126 -35.3034
L18.0288 -35.046
L17.934 -34.7875
L17.8416 -34.5279
L17.7516 -34.2671
L17.664 -34.0051
L17.5789 -33.7418
L17.4962 -33.4773
L17.4159 -33.2113
L17.3382 -32.9441
L17.2629 -32.6753
L17.1902 -32.4052
L17.1201 -32.1335
L17.0526 -31.8602
L16.9877 -31.5853
L16.9255 -31.3088
L16.8661 -31.0306
L16.8094 -30.7506
L16.7555 -30.4689
L16.7045 -30.1854
L16.6565 -29.8999
L16.6115 -29.6126
L16.5695 -29.3233
L16.5307 -29.032
L16.4951 -28.7387
L16.4628 -28.4434
L16.4339 -28.1459
L16.4085 -27.8462
L16.3867 -27.5444
L16.3685 -27.2404
L16.3541 -26.9342
L16.3436 -26.6257
L16.3372 -26.3149
L16.3348 -26.0018
L16.3367 -25.6863
L16.343 -25.3686
L16.3539 -25.0485
L16.3694 -24.726
L16.3897 -24.4012
L16.4151 -24.0741
L16.4456 -23.7446
L16.4814 -23.4128
L16.5228 -23.0787
L16.5698 -22.7423
L16.6227 -22.4038
L16.6817 -22.0631
L16.7469 -21.7202
L16.8187 -21.3754
L16.8971 -21.0285
L16.9825 -20.6798
L17.075 -20.3294
L17.1749 -19.9773
L17.2823 -19.6237
L17.3977 -19.2687
L17.5211 -18.9125
L17.6529 -18.5553
L17.7932 -18.1973
L17.9424 -17.8386
L18.1006 -17.4796
L18.2682 -17.1205
L18.4452 -16.7616
L18.6321 -16.4031
L18.829 -16.0454
L19.0361 -15.689
L19.2537 -15.334
L19.4819 -14.981
L19.7209 -14.6304
L19.9709 -14.2827
L20.232 -13.9382
L20.5044 -13.5977
L20.788 -13.2616
L21.083 -12.9305
L21.3894 -12.6049
L21.7072 -12.2856
L22.0362 -11.9731
L22.3764 -11.6682
L22.7275 -11.3715
L23.0895 -11.0837
L23.4619 -10.8055
L23.8445 -10.5376
L24.2735 -10.2807
L24.7286 -10.0243
L25.1871 -9.82357
L25.649 -9.63085
L26.114 -9.44615
L26.582 -9.26955
L27.0529 -9.10109
L27.5265 -8.94082
L28.0027 -8.78879
L28.4813 -8.64505
L28.9623 -8.50964
L29.4453 -8.38261
z
" id="C0_1_747f0363b2"/>
     <path d="
M47.7591 -61.9557
L47.3177 -62.0964
L46.8765 -62.2373
L46.4356 -62.3787
L45.9951 -62.5207
L45.555 -62.6636
L45.1154 -62.8074
L44.6764 -62.9522
L44.2378 -63.0981
L43.7998 -63.245
L43.3622 -63.393
L42.925 -63.5417
L42.4882 -63.6912
L42.5386 -63.8411
L43.0218 -63.7398
L43.5028 -63.6215
L43.9815 -63.4947
L44.4577 -63.3596
L44.9314 -63.2161
L45.4024 -63.0644
L45.8705 -62.9044
L46.3356 -62.7362
L46.7976 -62.5598
L47.2563 -62.3754
z
" id="C0_2_564ac7c127"/>
    </defs>
    <g clip-path="url(#p1bffca34e9)">
     <use style="fill:#ff0000;stroke:#000000;stroke-width:2.0;" x="0.0" xlink:href="#C0_0_a811fe30f3" y="72.0"/>
    </g>
    <g clip-path="url(#p1bffca34e9)">
     <use style="fill:#ffffff;stroke:#000000;stroke-width:2.0;" x="0.0" xlink:href="#C0_1_747f0363b2" y="72.0"/>
    </g>
    <g clip-path="url(#p1bffca34e9)">
     <use style="fill:#ffffff;stroke:#000000;stroke-width:2.0;" x="0.0" xlink:href="#C0_2_564ac7c127" y="72.0"/>
    </g>
   </g>
  </g>
 </g>
 <defs>
  <clipPath id="p1bffca34e9">
   <rect height="72.0" width="72.0" x="0.0" y="0.0"/>
  </clipPath>
 </defs>
</svg>
