<?xml version="1.0" encoding="utf-8" standalone="no"?>
<!DOCTYPE svg PUBLIC "-//W3C//DTD SVG 1.1//EN"
  "http://www.w3.org/Graphics/SVG/1.1/DTD/svg11.dtd">
<!-- Created with matplotlib (http://matplotlib.org/) -->
<svg height="72pt" version="1.1" viewBox="0 0 72 72" width="72pt" xmlns="http://www.w3.org/2000/svg" xmlns:xlink="http://www.w3.org/1999/xlink">
 <defs>
  <style type="text/css">
*{stroke-linecap:butt;stroke-linejoin:round;}
  </style>
 </defs>
 <g id="figure_1">
  <g id="patch_1">
   <path d="
M0 72
L72 72
L72 0
L0 0
z
" style="fill:none;"/>
  </g>
  <g id="axes_1">
   <g id="PatchCollection_1">
    <defs>
     <path d="
M36 -7.5
C43.5583 -7.5 50.808 -10.5029 56.1525 -15.8475
C61.4971 -21.192 64.5 -28.4417 64.5 -36
C64.5 -43.5583 61.4971 -50.808 56.1525 -56.1525
C50.808 -61.4971 43.5583 -64.5 36 -64.5
C28.4417 -64.5 21.192 -61.4971 15.8475 -56.1525
C10.5029 -50.808 7.5 -43.5583 7.5 -36
C7.5 -28.4417 10.5029 -21.192 15.8475 -15.8475
C21.192 -10.5029 28.4417 -7.5 36 -7.5
z
" id="C0_0_a811fe30f3"/>
     <path d="
M50.089 -11.2971
L50.1638 -11.6123
L50.242 -11.932
L50.3227 -12.2557
L50.4051 -12.583
L50.4886 -12.9133
L50.5724 -13.2463
L50.656 -13.5814
L50.739 -13.9184
L50.821 -14.2568
L50.9016 -14.5964
L50.9804 -14.9368
L51.0573 -15.2777
L51.132 -15.6188
L51.2043 -15.96
L51.2741 -16.301
L51.3412 -16.6415
L51.4056 -16.9815
L51.4671 -17.3207
L51.5258 -17.6589
L51.5816 -17.9961
L51.6344 -18.332
L51.6843 -18.6667
L51.7313 -18.9999
L51.7753 -19.3316
L51.8165 -19.6617
L51.8547 -19.9902
L51.8902 -20.3169
L51.9228 -20.6419
L51.9526 -20.965
L51.9798 -21.2863
L52.0042 -21.6058
L52.0261 -21.9233
L52.0454 -22.2389
L52.0621 -22.5527
L52.0764 -22.8644
L52.0883 -23.1743
L52.0978 -23.4823
L52.105 -23.7884
L52.1099 -24.0926
L52.1126 -24.3949
L52.1132 -24.6954
L52.1116 -24.9941
L52.108 -25.2911
L52.1023 -25.5862
L52.0947 -25.8797
L52.0851 -26.1715
L52.0736 -26.4616
L52.0602 -26.7501
L52.045 -27.0371
L52.028 -27.3226
L52.0092 -27.6066
L51.9887 -27.8892
L51.9665 -28.1704
L51.9426 -28.4502
L51.9171 -28.7288
L51.8899 -29.0062
L51.8611 -29.2823
L51.8307 -29.5574
L51.7988 -29.8313
L51.7653 -30.1043
L51.7302 -30.3762
L51.6937 -30.6473
L51.6556 -30.9174
L51.616 -31.1868
L51.5749 -31.4553
L51.5324 -31.7232
L51.4883 -31.9904
L51.4428 -32.257
L51.3958 -32.523
L51.3473 -32.7886
L51.2973 -33.0537
L51.2459 -33.3184
L51.193 -33.5827
L51.0827 -33.8468
L51.0253 -34.1106
L50.9664 -34.3743
L50.906 -34.6378
L50.844 -34.9012
L50.7805 -35.1646
L50.7154 -35.4281
L50.6488 -35.6916
L50.5806 -35.9553
L50.5107 -36.2191
L50.4392 -36.4832
L50.3661 -36.7476
L50.2913 -37.0123
L50.2148 -37.2773
L50.1366 -37.5429
L50.0566 -37.8089
L49.9748 -38.0754
L49.8913 -38.3425
L49.8059 -38.6103
L49.7186 -38.8787
L49.6294 -39.1478
L49.5383 -39.4177
L49.4452 -39.6885
L49.3501 -39.9601
L49.253 -40.2326
L49.1538 -40.506
L49.0525 -40.7804
L48.949 -41.0559
L48.8434 -41.3324
L48.7354 -41.61
L48.6253 -41.8887
L48.5128 -42.1687
L48.3979 -42.4498
L48.2806 -42.7321
L48.1609 -43.0158
L48.0387 -43.3007
L47.9139 -43.5869
L47.7866 -43.8745
L47.6567 -44.1634
L47.5242 -44.4537
L47.3889 -44.7454
L47.2509 -45.0385
L47.1102 -45.333
L46.9666 -45.6289
L46.8203 -45.9262
L46.6711 -46.2248
L46.519 -46.5249
L46.364 -46.8264
L46.2062 -47.1292
L46.0454 -47.4334
L45.8818 -47.7389
L45.7152 -48.0456
L45.5458 -48.3536
L45.3735 -48.6628
L45.1984 -48.9731
L45.0206 -49.2845
L44.84 -49.5969
L44.6569 -49.9102
L44.4712 -50.2244
L44.2831 -50.5394
L44.0927 -50.8551
L43.9003 -51.1713
L43.7059 -51.4881
L43.5097 -51.8052
L43.3121 -52.1226
L43.1133 -52.4401
L42.9137 -52.7576
L42.7135 -53.075
L42.5131 -53.3921
L42.3131 -53.7087
L42.1139 -54.0248
L41.916 -54.3402
L41.7202 -54.6547
L41.5269 -54.9682
L41.3371 -55.2804
L41.1515 -55.5913
L40.9709 -55.9007
L40.7964 -56.2085
L40.6289 -56.5144
L40.4695 -56.8184
L40.3194 -57.1203
L40.1797 -57.4199
L40.0517 -57.7172
L39.9365 -58.0119
L39.8355 -58.304
L39.7498 -58.5932
L39.6805 -58.8795
L39.6288 -59.1628
L39.5956 -59.4428
L39.5816 -59.7193
L39.5876 -59.9923
L39.6141 -60.2614
L39.6612 -60.5265
L39.7292 -60.7874
L39.8179 -61.0437
L39.9271 -61.2952
L40.0563 -61.5416
L40.2051 -61.7826
L40.3727 -62.0179
L40.5584 -62.2473
L40.7614 -62.4703
L40.9809 -62.6867
L41.2159 -62.8963
L41.4655 -63.0987
L41.7289 -63.2936
L42.0052 -63.4808
L42.5319 -63.6602
L43.015 -63.7414
L43.496 -63.6232
L43.9748 -63.4965
L44.4511 -63.3615
L44.9248 -63.2182
L45.3958 -63.0665
L45.864 -62.9067
L46.3291 -62.7386
L46.7912 -62.5624
L47.2499 -62.378
L47.7052 -62.1857
L48.1569 -61.9854
L48.6049 -61.7771
L49.0491 -61.561
L49.4893 -61.3372
L49.9254 -61.1056
L50.3572 -60.8663
L50.7847 -60.6195
L51.2077 -60.3652
L51.6261 -60.1034
L52.0396 -59.8344
L52.4483 -59.558
L52.852 -59.2745
L53.2506 -58.9839
L53.6439 -58.6863
L54.0318 -58.3818
L54.4143 -58.0704
L54.7911 -57.7524
L55.1622 -57.4277
L55.5275 -57.0965
L55.8868 -56.7588
L56.24 -56.4149
L56.5871 -56.0647
L56.9279 -55.7084
L57.2624 -55.3461
L57.5904 -54.9779
L57.9118 -54.6039
L58.2265 -54.2243
L58.5344 -53.8391
L58.8355 -53.4485
L59.1296 -53.0525
L59.4167 -52.6514
L59.6967 -52.2452
L59.9694 -51.8341
L60.2348 -51.4181
L60.4929 -50.9974
L60.7435 -50.5722
L60.9865 -50.1425
L61.222 -49.7085
L61.4497 -49.2703
L61.6697 -48.8281
L61.8819 -48.382
L62.0862 -47.9321
L62.2826 -47.4786
L62.4709 -47.0216
L62.6512 -46.5612
L62.8234 -46.0976
L62.9874 -45.631
L63.1432 -45.1614
L63.2907 -44.689
L63.4299 -44.2139
L63.5607 -43.7364
L63.6832 -43.2565
L63.7972 -42.7744
L63.9027 -42.2902
L63.9998 -41.8041
L64.0883 -41.3163
L64.1682 -40.8268
L64.2396 -40.3359
L64.3024 -39.8436
L64.3566 -39.3502
L64.4021 -38.8557
L64.439 -38.3604
L64.4672 -37.8643
L64.4867 -37.3677
L64.4976 -36.8707
L64.4997 -36.3734
L64.4932 -35.876
L64.478 -35.3786
L64.4542 -34.8815
L64.4217 -34.3846
L64.3805 -33.8883
L64.3306 -33.3926
L64.2722 -32.8977
L64.2051 -32.4037
L64.1295 -31.9108
L64.0452 -31.4192
L63.9525 -30.929
L63.8512 -30.4403
L63.7414 -29.9533
L63.6232 -29.4681
L63.4965 -28.985
L63.3615 -28.504
L63.2182 -28.0252
L63.0665 -27.5489
L62.9067 -27.0752
L62.7386 -26.6042
L62.5624 -26.136
L62.378 -25.6709
L62.1857 -25.2088
L61.9854 -24.7501
L61.7771 -24.2948
L61.561 -23.8431
L61.3372 -23.3951
L61.1056 -22.9509
L60.8663 -22.5107
L60.6195 -22.0746
L60.3652 -21.6428
L60.1034 -21.2153
L59.8344 -20.7923
L59.558 -20.3739
L59.2745 -19.9604
L58.9839 -19.5517
L58.6863 -19.148
L58.3818 -18.7494
L58.0704 -18.3561
L57.7524 -17.9682
L57.4277 -17.5857
L57.0965 -17.2089
L56.7588 -16.8378
L56.4149 -16.4725
L56.0647 -16.1132
L55.7084 -15.76
L55.3461 -15.4129
L54.9779 -15.0721
L54.6039 -14.7376
L54.2243 -14.4096
L53.8391 -14.0882
L53.4485 -13.7735
L53.0525 -13.4656
L52.6514 -13.1645
L52.2452 -12.8704
L51.8341 -12.5833
L51.4181 -12.3033
L50.9974 -12.0306
L50.5722 -11.7652
z
" id="C0_1_9263aedf9c"/>
     <path d="
M29.7214 -8.23517
L29.5266 -8.51456
L29.3287 -8.7971
L29.1285 -9.08257
L28.9269 -9.37074
L28.7246 -9.6614
L28.5223 -9.95433
L28.3204 -10.2493
L28.1197 -10.5461
L27.9204 -10.8446
L27.7229 -11.1445
L27.5276 -11.4456
L27.3349 -11.7478
L27.1448 -12.0509
L26.9577 -12.3546
L26.7736 -12.6589
L26.5928 -12.9636
L26.4154 -13.2685
L26.2414 -13.5735
L26.071 -13.8785
L25.9041 -14.1833
L25.7408 -14.4879
L25.5812 -14.7921
L25.4251 -15.0958
L25.2728 -15.399
L25.124 -15.7015
L24.9788 -16.0034
L24.8372 -16.3045
L24.6992 -16.6048
L24.5646 -16.9042
L24.4335 -17.2027
L24.3057 -17.5002
L24.1813 -17.7968
L24.0602 -18.0924
L23.9424 -18.3869
L23.8277 -18.6804
L23.7161 -18.9729
L23.6076 -19.2642
L23.5021 -19.5546
L23.3995 -19.8438
L23.2998 -20.132
L23.203 -20.4192
L23.1088 -20.7053
L23.0174 -20.9904
L22.9287 -21.2745
L22.8425 -21.5576
L22.7588 -21.8397
L22.6777 -22.1209
L22.599 -22.4012
L22.5226 -22.6807
L22.4486 -22.9592
L22.3769 -23.237
L22.3074 -23.514
L22.2401 -23.7903
L22.1749 -24.0658
L22.1119 -24.3407
L22.0509 -24.615
L21.992 -24.8886
L21.935 -25.1618
L21.88 -25.4344
L21.827 -25.7066
L21.7758 -25.9784
L21.7265 -26.2498
L21.679 -26.5209
L21.6334 -26.7917
L21.5895 -27.0623
L21.5474 -27.3328
L21.507 -27.6031
L21.4684 -27.8734
L21.4315 -28.1436
L21.3962 -28.4138
L21.3626 -28.6842
L21.3307 -28.9547
L21.3004 -29.2253
L21.2717 -29.4962
L21.2447 -29.7674
L21.2193 -30.0389
L21.1955 -30.3108
L21.1733 -30.5832
L21.1527 -30.8561
L21.1337 -31.1295
L21.1162 -31.4036
L21.1004 -31.6783
L21.0862 -31.9537
L21.0736 -32.2299
L21.0626 -32.5069
L21.0532 -32.7848
L21.0455 -33.0636
L21.0394 -33.3435
L21.0349 -33.6244
L21.0321 -33.9063
L21.031 -34.1895
L21.0315 -34.4738
L21.0338 -34.7594
L21.0378 -35.0464
L21.0436 -35.3346
L21.0511 -35.6244
L21.0604 -35.9155
L21.0715 -36.2083
L21.0845 -36.5025
L21.0993 -36.7985
L21.116 -37.096
L21.1347 -37.3953
L21.1553 -37.6964
L21.1779 -37.9993
L21.2025 -38.304
L21.2292 -38.6106
L21.258 -38.9192
L21.2889 -39.2298
L21.322 -39.5423
L21.3573 -39.8569
L21.3949 -40.1736
L21.4347 -40.4923
L21.4768 -40.8132
L21.5213 -41.1362
L21.5682 -41.4614
L21.6175 -41.7888
L21.6693 -42.1183
L21.7236 -42.45
L21.7804 -42.784
L21.8398 -43.12
L21.9017 -43.4583
L21.9663 -43.7987
L22.0336 -44.1412
L22.1034 -44.4857
L22.176 -44.8323
L22.2512 -45.1809
L22.329 -45.5315
L22.4095 -45.8838
L22.4926 -46.238
L22.5783 -46.5939
L22.6666 -46.9513
L22.7573 -47.3103
L22.8505 -47.6706
L22.9459 -48.0321
L23.0435 -48.3947
L23.1432 -48.7582
L23.2448 -49.1225
L23.3481 -49.4873
L23.4529 -49.8524
L23.5589 -50.2177
L23.6658 -50.5828
L23.7733 -50.9476
L23.881 -51.3117
L23.9885 -51.6749
L24.0953 -52.0368
L24.2009 -52.3972
L24.3046 -52.7556
L24.4059 -53.1118
L24.5039 -53.4653
L24.5979 -53.8157
L24.6869 -54.1627
L24.7702 -54.5058
L24.8466 -54.8445
L24.9152 -55.1784
L24.9748 -55.5071
L25.0242 -55.8301
L25.0624 -56.1468
L25.0882 -56.4569
L25.1005 -56.7598
L25.0981 -57.0551
L25.0802 -57.3424
L25.0458 -57.6212
L24.9942 -57.8911
L24.9248 -58.1518
L24.8372 -58.403
L24.7311 -58.6443
L24.6066 -58.8755
L24.4637 -59.0964
L24.3028 -59.3067
L24.1243 -59.5064
L23.9289 -59.6952
L23.7171 -59.8732
L23.4899 -60.0402
L23.2479 -60.1961
L22.9923 -60.3411
L22.7237 -60.4749
L22.4432 -60.5977
L21.6345 -60.7094
L21.2071 -60.6147
L20.7842 -60.3602
L20.366 -60.0984
L19.9525 -59.8291
L19.5439 -59.5527
L19.1403 -59.269
L18.7418 -58.9783
L18.3486 -58.6805
L17.9608 -58.3759
L17.5785 -58.0644
L17.2018 -57.7462
L16.8308 -57.4214
L16.4656 -57.0901
L16.1064 -56.7523
L15.7533 -56.4082
L15.4063 -56.0579
L15.0656 -55.7015
L14.7313 -55.3391
L14.4034 -54.9708
L14.0822 -54.5967
L13.7676 -54.217
L13.4597 -53.8317
L13.1588 -53.4409
L12.8648 -53.0449
L12.5778 -52.6437
L12.298 -52.2374
L12.0254 -51.8261
L11.7601 -51.4101
L11.5022 -50.9893
L11.2518 -50.564
L11.0089 -50.1342
L10.7736 -49.7001
L10.546 -49.2619
L10.3261 -48.8196
L10.1141 -48.3734
L9.90993 -47.9235
L9.71373 -47.4699
L9.52553 -47.0128
L9.3454 -46.5524
L9.17339 -46.0887
L9.00955 -45.622
L8.85393 -45.1523
L8.70658 -44.6799
L8.56754 -44.2048
L8.43686 -43.7272
L8.31457 -43.2473
L8.20072 -42.7651
L8.09534 -42.2809
L7.99846 -41.7948
L7.9101 -41.3069
L7.8303 -40.8174
L7.75909 -40.3265
L7.69647 -39.8342
L7.64248 -39.3407
L7.59713 -38.8462
L7.56042 -38.3509
L7.53238 -37.8548
L7.51301 -37.3582
L7.50232 -36.8612
L7.50031 -36.3639
L7.50698 -35.8665
L7.52233 -35.3691
L7.54636 -34.8719
L7.57905 -34.3751
L7.6204 -33.8788
L7.67039 -33.3831
L7.72902 -32.8882
L7.79625 -32.3942
L7.87208 -31.9014
L7.95647 -31.4098
L8.04941 -30.9196
L8.15086 -30.4309
L8.26079 -29.944
L8.37918 -29.4589
L8.50597 -28.9758
L8.64114 -28.4948
L8.78465 -28.0161
L8.93645 -27.5398
L9.09648 -27.0661
L9.26472 -26.5952
L9.4411 -26.1271
L9.62557 -25.662
L9.81807 -25.2
L10.0185 -24.7414
L10.2269 -24.2862
L10.4432 -23.8345
L10.6672 -23.3866
L10.899 -22.9424
L11.1383 -22.5023
L11.3853 -22.0663
L11.6398 -21.6345
L11.9016 -21.2071
L12.1709 -20.7842
L12.4473 -20.366
L12.731 -19.9525
L13.0217 -19.5439
L13.3195 -19.1403
L13.6241 -18.7418
L13.9356 -18.3486
L14.2538 -17.9608
L14.5786 -17.5785
L14.9099 -17.2018
L15.2477 -16.8308
L15.5918 -16.4656
L15.9421 -16.1064
L16.2985 -15.7533
L16.6609 -15.4063
L17.0292 -15.0656
L17.4033 -14.7313
L17.783 -14.4034
L18.1683 -14.0822
L18.5591 -13.7676
L18.9551 -13.4597
L19.3563 -13.1588
L19.7626 -12.8648
L20.1739 -12.5778
L20.5899 -12.298
L21.0107 -12.0254
L21.436 -11.7601
L21.8658 -11.5022
L22.2999 -11.2518
L22.7381 -11.0089
L23.1804 -10.7736
L23.6266 -10.546
L24.0765 -10.3261
L24.5301 -10.1141
L24.9872 -9.90993
L25.4476 -9.71373
L25.9113 -9.52553
L26.378 -9.3454
L26.8477 -9.17339
L27.3201 -9.00955
L27.7952 -8.85393
L28.2728 -8.70658
L28.7527 -8.56754
z
" id="C0_2_1fedcb0310"/>
    </defs>
    <g clip-path="url(#p1bffca34e9)">
     <use style="fill:#ffffff;stroke:#000000;stroke-width:2.0;" x="0.0" xlink:href="#C0_0_a811fe30f3" y="72.0"/>
    </g>
    <g clip-path="url(#p1bffca34e9)">
     <use style="fill:#ff0000;stroke:#000000;stroke-width:2.0;" x="0.0" xlink:href="#C0_1_9263aedf9c" y="72.0"/>
    </g>
    <g clip-path="url(#p1bffca34e9)">
     <use style="fill:#ff0000;stroke:#000000;stroke-width:2.0;" x="0.0" xlink:href="#C0_2_1fedcb0310" y="72.0"/>
    </g>
   </g>
  </g>
 </g>
 <defs>
  <clipPath id="p1bffca34e9">
   <rect height="72.0" width="72.0" x="0.0" y="0.0"/>
  </clipPath>
 </defs>
</svg>
