<?xml version="1.0" encoding="utf-8" standalone="no"?>
<!DOCTYPE svg PUBLIC "-//W3C//DTD SVG 1.1//EN"
  "http://www.w3.org/Graphics/SVG/1.1/DTD/svg11.dtd">
<!-- Created with matplotlib (http://matplotlib.org/) -->
<svg height="72pt" version="1.1" viewBox="0 0 72 72" width="72pt" xmlns="http://www.w3.org/2000/svg" xmlns:xlink="http://www.w3.org/1999/xlink">
 <defs>
  <style type="text/css">
*{stroke-linecap:butt;stroke-linejoin:round;}
  </style>
 </defs>
 <g id="figure_1">
  <g id="patch_1">
   <path d="
M0 72
L72 72
L72 0
L0 0
z
" style="fill:none;"/>
  </g>
  <g id="axes_1">
   <g id="PatchCollection_1">
    <defs>
     <path d="
M36 -7.5
C43.5583 -7.5 50.808 -10.5029 56.1525 -15.8475
C61.4971 -21.192 64.5 -28.4417 64.5 -36
C64.5 -43.5583 61.4971 -50.808 56.1525 -56.1525
C50.808 -61.4971 43.5583 -64.5 36 -64.5
C28.4417 -64.5 21.192 -61.4971 15.8475 -56.1525
C10.5029 -50.808 7.5 -43.5583 7.5 -36
C7.5 -28.4417 10.5029 -21.192 15.8475 -15.8475
C21.192 -10.5029 28.4417 -7.5 36 -7.5
z
" id="C0_0_a811fe30f3"/>
     <path d="
M36.2263 -7.51743
L36.4363 -7.73729
L36.6164 -7.9668
L36.7676 -8.20523
L36.8911 -8.45191
L36.9885 -8.70617
L37.0615 -8.96739
L37.112 -9.23497
L37.142 -9.50836
L37.1534 -9.78702
L37.1481 -10.0705
L37.1278 -10.3582
L37.0944 -10.6499
L37.0494 -10.9451
L36.9942 -11.2434
L36.9301 -11.5444
L36.8584 -11.8479
L36.7801 -12.1534
L36.6962 -12.4608
L36.6074 -12.7697
L36.5146 -13.0798
L36.4185 -13.391
L36.3196 -13.7029
L36.2184 -14.0154
L36.1154 -14.3282
L36.0111 -14.6412
L35.9058 -14.9541
L35.7997 -15.2668
L35.6933 -15.5792
L35.5866 -15.891
L35.48 -16.2021
L35.3736 -16.5125
L35.2675 -16.8219
L35.162 -17.1304
L35.0571 -17.4377
L34.953 -17.7439
L34.8497 -18.0487
L34.7473 -18.3523
L34.6458 -18.6544
L34.5454 -18.9551
L34.4461 -19.2543
L34.3478 -19.5519
L34.2507 -19.848
L34.1548 -20.1424
L34.06 -20.4353
L33.9663 -20.7265
L33.8739 -21.0161
L33.7827 -21.304
L33.6926 -21.5903
L33.6038 -21.875
L33.5161 -22.158
L33.4295 -22.4394
L33.3442 -22.7192
L33.2599 -22.9974
L33.1768 -23.2741
L33.0948 -23.5492
L33.014 -23.8228
L32.9341 -24.095
L32.8554 -24.3657
L32.7777 -24.635
L32.701 -24.9029
L32.6253 -25.1695
L32.5506 -25.4348
L32.4768 -25.6989
L32.404 -25.9617
L32.3321 -26.2234
L32.2611 -26.484
L32.1909 -26.7435
L32.1216 -27.002
L32.0532 -27.2595
L31.9855 -27.516
L31.9187 -27.7717
L31.8526 -28.0265
L31.7873 -28.2806
L31.7227 -28.5339
L31.6589 -28.7866
L31.5957 -29.0386
L31.5332 -29.2901
L31.4714 -29.541
L31.4102 -29.7915
L31.3496 -30.0416
L31.2896 -30.2913
L31.2303 -30.5407
L31.1715 -30.7898
L31.1132 -31.0388
L31.0555 -31.2876
L30.9984 -31.5363
L30.9417 -31.785
L30.8856 -32.0337
L30.7748 -32.2824
L30.72 -32.5314
L30.6658 -32.7805
L30.6119 -33.0298
L30.5585 -33.2795
L30.5055 -33.5295
L30.4529 -33.7799
L30.4007 -34.0308
L30.3489 -34.2823
L30.2974 -34.5343
L30.2463 -34.787
L30.1956 -35.0403
L30.1452 -35.2944
L30.0952 -35.5494
L30.0455 -35.8052
L29.9961 -36.062
L29.947 -36.3197
L29.8982 -36.5785
L29.8498 -36.8384
L29.8016 -37.0994
L29.7538 -37.3617
L29.7062 -37.6253
L29.6589 -37.8902
L29.6119 -38.1564
L29.5652 -38.4242
L29.5187 -38.6934
L29.4725 -38.9642
L29.4266 -39.2366
L29.381 -39.5107
L29.3356 -39.7865
L29.2905 -40.0641
L29.2457 -40.3435
L29.2011 -40.6248
L29.1568 -40.908
L29.1128 -41.1932
L29.069 -41.4804
L29.0255 -41.7696
L28.9823 -42.061
L28.9394 -42.3545
L28.8967 -42.6502
L28.8542 -42.9482
L28.8121 -43.2483
L28.7702 -43.5508
L28.7286 -43.8555
L28.6873 -44.1626
L28.6462 -44.472
L28.6054 -44.7837
L28.5648 -45.0978
L28.5245 -45.4142
L28.4845 -45.733
L28.4446 -46.054
L28.405 -46.3774
L28.3656 -46.703
L28.3264 -47.0309
L28.2873 -47.3609
L28.2483 -47.693
L28.2094 -48.0272
L28.1705 -48.3633
L28.1317 -48.7013
L28.0927 -49.041
L28.0535 -49.3823
L28.0141 -49.725
L27.9744 -50.0691
L27.9341 -50.4142
L27.8932 -50.7603
L27.8515 -51.107
L27.8089 -51.4541
L27.765 -51.8013
L27.7196 -52.1484
L27.6725 -52.4949
L27.6232 -52.8405
L27.5715 -53.1848
L27.5168 -53.5272
L27.4587 -53.8674
L27.3965 -54.2047
L27.3297 -54.5385
L27.2574 -54.8682
L27.1789 -55.193
L27.0932 -55.5121
L26.9994 -55.8247
L26.8964 -56.1297
L26.7829 -56.4263
L26.6576 -56.7133
L26.5194 -56.9895
L26.3669 -57.2538
L26.1987 -57.5049
L26.0135 -57.7416
L25.8104 -57.9626
L25.5882 -58.1666
L25.3463 -58.3525
L25.0843 -58.5194
L24.802 -58.6662
L24.4996 -58.7924
L24.1776 -58.8973
L23.837 -58.9807
L23.4786 -59.0424
L23.104 -59.0825
L22.7145 -59.1011
L22.3116 -59.0986
L21.8971 -59.0755
L21.4725 -59.0322
L21.0394 -58.9694
L20.5993 -58.8877
L20.1539 -58.7877
L19.7043 -58.6701
L19.252 -58.5355
L18.7982 -58.3847
L18.3439 -58.2182
L17.8903 -58.0366
L17.4285 -57.8407
L17.0541 -57.6183
L16.6854 -57.2909
L16.3226 -56.957
L15.9658 -56.6167
L15.6151 -56.2702
L15.2706 -55.9174
L14.9324 -55.5586
L14.6006 -55.1939
L14.2753 -54.8233
L13.9567 -54.4469
L13.6448 -54.065
L13.3397 -53.6775
L13.0415 -53.2847
L12.7503 -52.8866
L12.4661 -52.4833
L12.1892 -52.075
L11.9195 -51.6619
L11.6571 -51.2439
L11.4021 -50.8213
L11.1546 -50.3942
L10.9147 -49.9628
L10.6825 -49.527
L10.4579 -49.0872
L10.2412 -48.6433
L10.0323 -48.1956
L9.83125 -47.7442
L9.63821 -47.2892
L9.4532 -46.8308
L9.27628 -46.3691
L9.1075 -45.9042
L8.94691 -45.4363
L8.79456 -44.9655
L8.6505 -44.492
L8.51476 -44.0159
L8.38741 -43.5374
L8.26846 -43.0565
L8.15796 -42.5736
L8.05594 -42.0886
L7.96243 -41.6017
L7.87746 -41.1132
L7.80106 -40.6231
L7.73325 -40.1316
L7.67405 -39.6388
L7.62348 -39.1449
L7.58155 -38.6501
L7.54828 -38.1545
L7.52367 -37.6582
L7.50774 -37.1613
L7.50049 -36.6642
L7.50192 -36.1668
L7.51203 -35.6694
L7.53081 -35.1721
L7.55827 -34.6751
L7.5944 -34.1784
L7.63917 -33.6823
L7.69259 -33.1869
L7.75463 -32.6924
L7.82527 -32.1988
L7.90449 -31.7065
L7.99227 -31.2154
L8.08858 -30.7258
L8.1934 -30.2378
L8.30669 -29.7516
L8.42841 -29.2672
L8.55853 -28.7849
L8.697 -28.3048
L8.8438 -27.8271
L8.99887 -27.3518
L9.16216 -26.8792
L9.33363 -26.4094
L9.51322 -25.9424
L9.70088 -25.4786
L9.89654 -25.0179
L10.1002 -24.5606
L10.3117 -24.1068
L10.531 -23.6566
L10.7581 -23.2101
L10.9929 -22.7676
L11.2353 -22.3291
L11.4852 -21.8947
L11.7426 -21.4647
L12.0074 -21.039
L12.2795 -20.618
L12.5589 -20.2016
L12.8453 -19.79
L13.1389 -19.3834
L13.4394 -18.9818
L13.7467 -18.5854
L14.0609 -18.1943
L14.3817 -17.8087
L14.7091 -17.4285
L15.043 -17.0541
L15.3833 -16.6854
L15.7298 -16.3226
L16.0826 -15.9658
L16.4414 -15.6151
L16.8061 -15.2706
L17.1767 -14.9324
L17.5531 -14.6006
L17.935 -14.2753
L18.3225 -13.9567
L18.7153 -13.6448
L19.1134 -13.3397
L19.5167 -13.0415
L19.925 -12.7503
L20.3381 -12.4661
L20.7561 -12.1892
L21.1787 -11.9195
L21.6058 -11.6571
L22.0372 -11.4021
L22.473 -11.1546
L22.9128 -10.9147
L23.3567 -10.6825
L23.8044 -10.4579
L24.2558 -10.2412
L24.7108 -10.0323
L25.1692 -9.83125
L25.6309 -9.63821
L26.0958 -9.4532
L26.5637 -9.27628
L27.0345 -9.1075
L27.508 -8.94691
L27.9841 -8.79456
L28.4626 -8.6505
L28.9435 -8.51476
L29.4264 -8.38741
L29.9114 -8.26846
L30.3983 -8.15796
L30.8868 -8.05594
L31.3769 -7.96243
L31.8684 -7.87746
L32.3612 -7.80106
L32.8551 -7.73325
L33.3499 -7.67405
L33.8455 -7.62348
L34.3418 -7.58155
L34.8387 -7.54828
L35.3358 -7.52367
z
" id="C0_1_ea954feb8f"/>
     <path d="
M54.5575 -14.3741
L54.8369 -14.7885
L55.1104 -15.2056
L55.3774 -15.625
L55.6375 -16.0463
L55.8903 -16.4692
L56.1357 -16.8931
L56.3733 -17.3177
L56.6032 -17.7428
L56.8251 -18.1679
L57.0389 -18.5928
L57.2448 -19.0172
L57.4427 -19.4408
L57.6325 -19.8633
L57.8145 -20.2846
L57.9886 -20.7045
L58.155 -21.1227
L58.3137 -21.539
L58.465 -21.9534
L58.6088 -22.3657
L58.7454 -22.7757
L58.875 -23.1833
L58.9976 -23.5885
L59.1134 -23.9911
L59.2226 -24.3911
L59.3253 -24.7885
L59.4217 -25.183
L59.5119 -25.5748
L59.5962 -25.9638
L59.6745 -26.35
L59.7472 -26.7333
L59.8144 -27.1138
L59.8761 -27.4914
L59.9326 -27.8661
L59.984 -28.2381
L60.0303 -28.6072
L60.0718 -28.9735
L60.1086 -29.337
L60.1408 -29.6977
L60.1684 -30.0558
L60.1917 -30.4112
L60.2107 -30.764
L60.2255 -31.1142
L60.2362 -31.4618
L60.243 -31.807
L60.2459 -32.1497
L60.2449 -32.4901
L60.2402 -32.8281
L60.2319 -33.1638
L60.22 -33.4973
L60.2046 -33.8286
L60.1857 -34.1579
L60.1635 -34.4851
L60.1379 -34.8103
L60.109 -35.1336
L60.0769 -35.455
L60.0416 -35.7746
L60.0032 -36.0925
L59.9616 -36.4086
L59.917 -36.7232
L59.8693 -37.0362
L59.8186 -37.3477
L59.7649 -37.6578
L59.7082 -37.9664
L59.6485 -38.2738
L59.5859 -38.5799
L59.5204 -38.8848
L59.4519 -39.1885
L59.3805 -39.4911
L59.3061 -39.7927
L59.2289 -40.0934
L59.1486 -40.3931
L59.0655 -40.6919
L58.9793 -40.9899
L58.8902 -41.2872
L58.7981 -41.5837
L58.7029 -41.8796
L58.6048 -42.1749
L58.5035 -42.4696
L58.3992 -42.7638
L58.2917 -43.0576
L58.1811 -43.3509
L58.0673 -43.6438
L57.9502 -43.9365
L57.8299 -44.2288
L57.7062 -44.5208
L57.5791 -44.8127
L57.4486 -45.1044
L57.3145 -45.3959
L57.177 -45.6873
L57.0358 -45.9787
L56.891 -46.27
L56.7424 -46.5613
L56.59 -46.8526
L56.4337 -47.1439
L56.2734 -47.4353
L56.1092 -47.7267
L55.9408 -48.0182
L55.7682 -48.3098
L55.5913 -48.6015
L55.41 -48.8934
L55.2243 -49.1853
L55.0341 -49.4774
L54.8391 -49.7695
L54.6395 -50.0618
L54.435 -50.3541
L54.2255 -50.6465
L54.011 -50.939
L53.7914 -51.2314
L53.5665 -51.5239
L53.3363 -51.8163
L53.1007 -52.1086
L52.8594 -52.4007
L52.6126 -52.6927
L52.3599 -52.9844
L52.1014 -53.2757
L51.837 -53.5667
L51.5665 -53.8571
L51.2899 -54.147
L51.007 -54.4362
L50.7179 -54.7247
L50.4224 -55.0122
L50.1205 -55.2988
L49.8121 -55.5842
L49.4971 -55.8684
L49.1756 -56.1511
L48.8475 -56.4323
L48.5128 -56.7118
L48.1715 -56.9895
L47.8237 -57.2651
L47.4694 -57.5385
L47.1086 -57.8095
L46.7416 -58.0779
L46.3684 -58.3437
L45.9891 -58.6065
L45.6041 -58.8662
L45.2135 -59.1227
L44.8176 -59.3758
L44.4168 -59.6253
L44.0114 -59.871
L43.602 -60.1129
L43.189 -60.3509
L42.773 -60.5848
L42.3547 -60.8147
L41.9348 -61.0405
L41.5143 -61.2622
L41.0939 -61.4799
L40.6749 -61.6938
L40.2584 -61.904
L39.8456 -62.1108
L39.4379 -62.3146
L39.037 -62.5158
L38.6443 -62.7148
L38.2617 -62.9122
L37.8908 -63.1086
L37.5337 -63.3048
L37.192 -63.5014
L36.8675 -63.6992
L36.5621 -63.8989
L36.2771 -64.1012
L36.5113 -64.3066
L37.0086 -64.4954
L37.5055 -64.4821
L38.002 -64.4602
L38.4978 -64.4296
L38.9929 -64.3903
L39.4871 -64.3424
L39.9802 -64.2859
L40.4721 -64.2207
L40.9627 -64.1469
L41.4517 -64.0646
L41.9391 -63.9737
L42.4247 -63.8743
L42.9083 -63.7664
L43.3898 -63.6501
L43.8691 -63.5253
L44.3459 -63.3921
L44.8202 -63.2506
L45.2919 -63.1008
L45.7607 -62.9427
L46.2265 -62.7765
L46.6892 -62.602
L47.1487 -62.4195
L47.6047 -62.2289
L48.0572 -62.0304
L48.5061 -61.8239
L48.9511 -61.6095
L49.3922 -61.3874
L49.8293 -61.1575
L50.2621 -60.9199
L50.6905 -60.6748
L51.1145 -60.4221
L51.5339 -60.162
L51.9485 -59.8945
L52.3583 -59.6198
L52.7632 -59.3378
L53.1629 -59.0488
L53.5573 -58.7527
L53.9465 -58.4497
L54.3301 -58.1399
L54.7082 -57.8233
L55.0806 -57.5001
L55.4471 -57.1703
L55.8078 -56.8341
L56.1624 -56.4915
L56.5109 -56.1427
L56.8531 -55.7877
L57.1889 -55.4268
L57.5184 -55.0599
L57.8412 -54.6872
L58.1574 -54.3088
L58.4669 -53.9248
L58.7695 -53.5354
L59.0652 -53.1406
L59.3538 -52.7406
L59.6354 -52.3355
L59.9097 -51.9254
L60.1768 -51.5105
L60.4364 -51.0909
L60.6887 -50.6666
L60.9334 -50.2379
L61.1705 -49.8049
L61.4 -49.3676
L61.6217 -48.9263
L61.8357 -48.4811
L62.0417 -48.032
L62.2398 -47.5793
L62.43 -47.123
L62.612 -46.6634
L62.786 -46.2005
L62.9518 -45.7345
L63.1094 -45.2655
L63.2588 -44.7937
L63.3998 -44.3193
L63.5325 -43.8423
L63.6568 -43.3629
L63.7727 -42.8813
L63.8801 -42.3975
L63.979 -41.9119
L64.0694 -41.4244
L64.1513 -40.9353
L64.2246 -40.4446
L64.2893 -39.9526
L64.3453 -39.4594
L64.3928 -38.9652
L64.4315 -38.4701
L64.4617 -37.9742
L64.4831 -37.4777
L64.4959 -36.9807
L64.5 -36.4835
L64.4954 -35.9861
L64.4821 -35.4887
L64.4602 -34.9914
L64.4296 -34.4945
L64.3903 -33.998
L64.3424 -33.5022
L64.2859 -33.0071
L64.2207 -32.5129
L64.1469 -32.0198
L64.0646 -31.5279
L63.9737 -31.0373
L63.8743 -30.5483
L63.7664 -30.0609
L63.6501 -29.5753
L63.5253 -29.0917
L63.3921 -28.6102
L63.2506 -28.1309
L63.1008 -27.6541
L62.9427 -27.1798
L62.7765 -26.7081
L62.602 -26.2393
L62.4195 -25.7735
L62.2289 -25.3108
L62.0304 -24.8513
L61.8239 -24.3953
L61.6095 -23.9428
L61.3874 -23.4939
L61.1575 -23.0489
L60.9199 -22.6078
L60.6748 -22.1707
L60.4221 -21.7379
L60.162 -21.3095
L59.8945 -20.8855
L59.6198 -20.4661
L59.3378 -20.0515
L59.0488 -19.6417
L58.7527 -19.2368
L58.4497 -18.8371
L58.1399 -18.4427
L57.8233 -18.0535
L57.5001 -17.6699
L57.1703 -17.2918
L56.8341 -16.9194
L56.4915 -16.5529
L56.1427 -16.1922
L55.7877 -15.8376
L55.4268 -15.4891
L55.0599 -15.1469
z
" id="C0_2_410c574c29"/>
    </defs>
    <g clip-path="url(#p1bffca34e9)">
     <use style="fill:#ff0000;stroke:#000000;stroke-width:2.0;" x="0.0" xlink:href="#C0_0_a811fe30f3" y="72.0"/>
    </g>
    <g clip-path="url(#p1bffca34e9)">
     <use style="fill:#ffffff;stroke:#000000;stroke-width:2.0;" x="0.0" xlink:href="#C0_1_ea954feb8f" y="72.0"/>
    </g>
    <g clip-path="url(#p1bffca34e9)">
     <use style="fill:#ffffff;stroke:#000000;stroke-width:2.0;" x="0.0" xlink:href="#C0_2_410c574c29" y="72.0"/>
    </g>
   </g>
  </g>
 </g>
 <defs>
  <clipPath id="p1bffca34e9">
   <rect height="72.0" width="72.0" x="0.0" y="0.0"/>
  </clipPath>
 </defs>
</svg>
