<?xml version="1.0" encoding="utf-8" standalone="no"?>
<!DOCTYPE svg PUBLIC "-//W3C//DTD SVG 1.1//EN"
  "http://www.w3.org/Graphics/SVG/1.1/DTD/svg11.dtd">
<!-- Created with matplotlib (http://matplotlib.org/) -->
<svg height="72pt" version="1.1" viewBox="0 0 72 72" width="72pt" xmlns="http://www.w3.org/2000/svg" xmlns:xlink="http://www.w3.org/1999/xlink">
 <defs>
  <style type="text/css">
*{stroke-linecap:butt;stroke-linejoin:round;}
  </style>
 </defs>
 <g id="figure_1">
  <g id="patch_1">
   <path d="
M0 72
L72 72
L72 0
L0 0
z
" style="fill:none;"/>
  </g>
  <g id="axes_1">
   <g id="PatchCollection_1">
    <defs>
     <path d="
M36 -7.5
C43.5583 -7.5 50.808 -10.5029 56.1525 -15.8475
C61.4971 -21.192 64.5 -28.4417 64.5 -36
C64.5 -43.5583 61.4971 -50.808 56.1525 -56.1525
C50.808 -61.4971 43.5583 -64.5 36 -64.5
C28.4417 -64.5 21.192 -61.4971 15.8475 -56.1525
C10.5029 -50.808 7.5 -43.5583 7.5 -36
C7.5 -28.4417 10.5029 -21.192 15.8475 -15.8475
C21.192 -10.5029 28.4417 -7.5 36 -7.5
z
" id="C0_0_a811fe30f3"/>
     <path d="
M21.2374 -60.229
L21.2171 -59.9212
L21.1924 -59.6078
L21.1644 -59.2896
L21.134 -58.9672
L21.1018 -58.6411
L21.0686 -58.3121
L21.0349 -57.9805
L21.0013 -57.6468
L20.9681 -57.3115
L20.9358 -56.975
L20.9047 -56.6376
L20.875 -56.2998
L20.8469 -55.9617
L20.8206 -55.6236
L20.7964 -55.2859
L20.7742 -54.9488
L20.7542 -54.6124
L20.7364 -54.2769
L20.7209 -53.9426
L20.7078 -53.6095
L20.697 -53.2779
L20.6886 -52.9478
L20.6825 -52.6193
L20.6788 -52.2925
L20.6773 -51.9675
L20.6782 -51.6444
L20.6813 -51.3232
L20.6866 -51.0041
L20.6941 -50.6869
L20.7038 -50.3718
L20.7155 -50.0587
L20.7293 -49.7478
L20.7451 -49.4389
L20.7628 -49.1322
L20.7824 -48.8275
L20.8039 -48.525
L20.8273 -48.2245
L20.8524 -47.9261
L20.8792 -47.6297
L20.9077 -47.3353
L20.9379 -47.043
L20.9697 -46.7526
L21.003 -46.4641
L21.0379 -46.1775
L21.0743 -45.8928
L21.1122 -45.6098
L21.1515 -45.3287
L21.1922 -45.0492
L21.2343 -44.7715
L21.2778 -44.4954
L21.3225 -44.2208
L21.3686 -43.9478
L21.416 -43.6763
L21.4647 -43.4062
L21.5146 -43.1375
L21.5657 -42.8701
L21.6181 -42.604
L21.6716 -42.3392
L21.7264 -42.0755
L21.7823 -41.8129
L21.8395 -41.5514
L21.8978 -41.2909
L21.9573 -41.0313
L22.0179 -40.7727
L22.0797 -40.5149
L22.1427 -40.2578
L22.2068 -40.0016
L22.2721 -39.746
L22.3385 -39.491
L22.4061 -39.2366
L22.4749 -38.9827
L22.5449 -38.7293
L22.6161 -38.4763
L22.6884 -38.2237
L22.8368 -37.9713
L22.9128 -37.7192
L22.9901 -37.4673
L23.0687 -37.2155
L23.1485 -36.9638
L23.2296 -36.7122
L23.3121 -36.4605
L23.3959 -36.2088
L23.481 -35.9569
L23.5676 -35.7048
L23.6555 -35.4525
L23.7449 -35.2
L23.8357 -34.947
L23.928 -34.6938
L24.0219 -34.44
L24.1172 -34.1858
L24.2142 -33.931
L24.3127 -33.6757
L24.4129 -33.4197
L24.5147 -33.1631
L24.6183 -32.9057
L24.7236 -32.6475
L24.8306 -32.3885
L24.9395 -32.1286
L25.0502 -31.8678
L25.1628 -31.606
L25.2773 -31.3432
L25.3938 -31.0794
L25.5123 -30.8145
L25.6329 -30.5484
L25.7556 -30.2812
L25.8803 -30.0127
L26.0073 -29.743
L26.1365 -29.4721
L26.2679 -29.1998
L26.4017 -28.9262
L26.5377 -28.6512
L26.6762 -28.3748
L26.8171 -28.0969
L26.9605 -27.8177
L27.1064 -27.537
L27.2548 -27.2547
L27.4058 -26.971
L27.5594 -26.6858
L27.7156 -26.3991
L27.8745 -26.1109
L28.0361 -25.8212
L28.2004 -25.53
L28.3674 -25.2372
L28.5372 -24.9431
L28.7096 -24.6474
L28.8848 -24.3503
L29.0627 -24.0519
L29.2433 -23.7521
L29.4265 -23.4509
L29.6123 -23.1485
L29.8006 -22.8449
L29.9914 -22.5402
L30.1846 -22.2343
L30.3801 -21.9275
L30.5777 -21.6197
L30.7772 -21.3111
L30.9786 -21.0018
L31.1815 -20.6918
L31.3858 -20.3814
L31.5912 -20.0705
L31.7974 -19.7593
L32.004 -19.4479
L32.2106 -19.1366
L32.4168 -18.8253
L32.622 -18.5143
L32.8258 -18.2036
L33.0274 -17.8935
L33.2261 -17.5841
L33.4212 -17.2755
L33.6118 -16.9678
L33.797 -16.6613
L33.9757 -16.356
L34.1467 -16.0521
L34.3089 -15.7497
L34.4609 -15.449
L34.6014 -15.15
L34.729 -14.8529
L34.8421 -14.5579
L34.9392 -14.2649
L35.019 -13.9742
L35.08 -13.6859
L35.1209 -13.4001
L35.1405 -13.117
L35.1379 -12.8367
L35.1122 -12.5596
L35.063 -12.2857
L34.9899 -12.0154
L34.893 -11.749
L34.7726 -11.4867
L34.6289 -11.229
L34.4629 -10.9763
L34.2752 -10.7288
L34.0668 -10.4871
L33.8388 -10.2514
L33.5923 -10.0223
L33.3285 -9.79992
L33.0485 -9.58479
L32.7534 -9.37721
L32.4443 -9.17749
L32.1224 -8.98591
L31.7886 -8.80275
L31.4439 -8.62824
L31.0892 -8.46259
L30.7255 -8.30599
L30.2072 -8.15859
L29.7211 -8.09492
L29.2369 -8.20027
L28.7547 -8.31408
L28.2748 -8.43633
L27.7972 -8.56698
L27.3221 -8.70598
L26.8496 -8.8533
L26.3799 -9.00888
L25.9132 -9.17269
L25.4495 -9.34467
L24.9891 -9.52477
L24.532 -9.71293
L24.0784 -9.9091
L23.6284 -10.1132
L23.1822 -10.3252
L22.7399 -10.545
L22.3017 -10.7726
L21.8676 -11.0079
L21.4378 -11.2508
L21.0125 -11.5012
L20.5917 -11.7591
L20.1756 -12.0243
L19.7643 -12.2969
L19.358 -12.5767
L18.9567 -12.8636
L18.5607 -13.1575
L18.1699 -13.4585
L17.7846 -13.7663
L17.4049 -14.0808
L17.0308 -14.4021
L16.6624 -14.7299
L16.3 -15.0642
L15.9436 -15.4049
L15.5932 -15.7518
L15.2491 -16.1049
L14.9113 -16.4641
L14.58 -16.8292
L14.2551 -17.2002
L13.9369 -17.5769
L13.6254 -17.9592
L13.3207 -18.347
L13.023 -18.7402
L12.7322 -19.1386
L12.4485 -19.5422
L12.172 -19.9508
L11.9028 -20.3643
L11.6408 -20.7825
L11.3863 -21.2054
L11.1394 -21.6327
L10.8999 -22.0645
L10.6682 -22.5005
L10.4441 -22.9406
L10.2278 -23.3847
L10.0194 -23.8326
L9.81889 -24.2843
L9.62635 -24.7395
L9.44185 -25.1981
L9.26544 -25.66
L9.09717 -26.1251
L8.93709 -26.5932
L8.78526 -27.0642
L8.64172 -27.5378
L8.50652 -28.0141
L8.37969 -28.4928
L8.26127 -28.9737
L8.1513 -29.4569
L8.04981 -29.942
L7.95684 -30.4289
L7.87241 -30.9176
L7.79655 -31.4078
L7.72928 -31.8993
L7.67062 -32.3922
L7.62059 -32.8861
L7.5792 -33.381
L7.54648 -33.8767
L7.52242 -34.373
L7.50703 -34.8699
L7.50032 -35.367
L7.5023 -35.8644
L7.51295 -36.3618
L7.53228 -36.8591
L7.56029 -37.3562
L7.59696 -37.8528
L7.64227 -38.3488
L7.69623 -38.8442
L7.75881 -39.3387
L7.82999 -39.8321
L7.90975 -40.3244
L7.99807 -40.8154
L8.09492 -41.3049
L8.20027 -41.7928
L8.31408 -42.2789
L8.43633 -42.7631
L8.56698 -43.2453
L8.70598 -43.7252
L8.8533 -44.2028
L9.00888 -44.6779
L9.17269 -45.1504
L9.34467 -45.6201
L9.52477 -46.0868
L9.71293 -46.5505
L9.9091 -47.0109
L10.1132 -47.468
L10.3252 -47.9216
L10.545 -48.3716
L10.7726 -48.8178
L11.0079 -49.2601
L11.2508 -49.6983
L11.5012 -50.1324
L11.7591 -50.5622
L12.0243 -50.9875
L12.2969 -51.4083
L12.5767 -51.8244
L12.8636 -52.2357
L13.1575 -52.642
L13.4585 -53.0433
L13.7663 -53.4393
L14.0808 -53.8301
L14.4021 -54.2154
L14.7299 -54.5951
L15.0642 -54.9692
L15.4049 -55.3376
L15.7518 -55.7
L16.1049 -56.0564
L16.4641 -56.4068
L16.8292 -56.7509
L17.2002 -57.0887
L17.5769 -57.42
L17.9592 -57.7449
L18.347 -58.0631
L18.7402 -58.3746
L19.1386 -58.6793
L19.5422 -58.977
L19.9508 -59.2678
L20.3643 -59.5515
z
" id="C0_1_c6ff98b8ab"/>
     <path d="
M41.6293 -63.8941
L41.9221 -63.6234
L42.213 -63.3498
L42.5014 -63.0734
L42.7868 -62.7945
L43.0688 -62.5131
L43.3469 -62.2296
L43.6209 -61.9441
L43.8905 -61.6568
L44.1556 -61.3679
L44.4158 -61.0776
L44.6712 -60.7861
L44.9216 -60.4936
L45.1669 -60.2002
L45.407 -59.906
L45.642 -59.6113
L45.8719 -59.3162
L46.0965 -59.0208
L46.3161 -58.7252
L46.5305 -58.4295
L46.7398 -58.134
L46.9442 -57.8386
L47.1436 -57.5434
L47.3381 -57.2486
L47.5278 -56.9541
L47.7128 -56.6602
L47.8931 -56.3668
L48.0689 -56.074
L48.2402 -55.7818
L48.4071 -55.4903
L48.5698 -55.1995
L48.7282 -54.9095
L48.8825 -54.6202
L49.0328 -54.3318
L49.1791 -54.0441
L49.3216 -53.7572
L49.4604 -53.4712
L49.5955 -53.1859
L49.7269 -52.9015
L49.8549 -52.6179
L49.9795 -52.3351
L50.1007 -52.053
L50.2187 -51.7717
L50.3334 -51.4912
L50.4451 -51.2114
L50.5537 -50.9323
L50.6593 -50.6539
L50.762 -50.3761
L50.8619 -50.099
L50.9589 -49.8224
L51.0533 -49.5463
L51.145 -49.2708
L51.234 -48.9958
L51.3206 -48.7212
L51.4046 -48.447
L51.4861 -48.1732
L51.5652 -47.8997
L51.642 -47.6264
L51.7164 -47.3534
L51.7886 -47.0805
L51.8585 -46.8078
L51.9262 -46.5352
L51.9917 -46.2626
L52.055 -45.9901
L52.1162 -45.7174
L52.1754 -45.4447
L52.2324 -45.1718
L52.2875 -44.8987
L52.3405 -44.6253
L52.3915 -44.3516
L52.4405 -44.0775
L52.4875 -43.8031
L52.5326 -43.5281
L52.5757 -43.2526
L52.6169 -42.9765
L52.6561 -42.6998
L52.6934 -42.4224
L52.7289 -42.1443
L52.7623 -41.8653
L52.7939 -41.5855
L52.8235 -41.3048
L52.8512 -41.023
L52.877 -40.7403
L52.9009 -40.4564
L52.9227 -40.1714
L52.9427 -39.8852
L52.9606 -39.5977
L52.9765 -39.3089
L52.9905 -39.0188
L53.0024 -38.7271
L53.0122 -38.434
L53.02 -38.1394
L53.0257 -37.8431
L53.0292 -37.5452
L53.0306 -37.2455
L53.0298 -36.9441
L53.0267 -36.6408
L53.0214 -36.3357
L53.0138 -36.0286
L53.0038 -35.7195
L52.9915 -35.4084
L52.9767 -35.0952
L52.9595 -34.7799
L52.9397 -34.4624
L52.9174 -34.1427
L52.8924 -33.8207
L52.8648 -33.4964
L52.8345 -33.1698
L52.8013 -32.8408
L52.7654 -32.5094
L52.7265 -32.1756
L52.6847 -31.8394
L52.6399 -31.5007
L52.592 -31.1595
L52.541 -30.8158
L52.4868 -30.4697
L52.4294 -30.121
L52.3687 -29.7699
L52.3047 -29.4163
L52.2373 -29.0603
L52.1664 -28.7019
L52.0921 -28.3411
L52.0142 -27.978
L51.9329 -27.6127
L51.8479 -27.2451
L51.7594 -26.8755
L51.6673 -26.5038
L51.5716 -26.1302
L51.4724 -25.7548
L51.3697 -25.3777
L51.2635 -24.999
L51.154 -24.619
L51.0411 -24.2378
L50.9251 -23.8555
L50.8061 -23.4724
L50.6843 -23.0887
L50.5598 -22.7046
L50.433 -22.3203
L50.3042 -21.9363
L50.1737 -21.5526
L50.042 -21.1697
L49.9094 -20.7879
L49.7766 -20.4076
L49.6441 -20.029
L49.5127 -19.6526
L49.3831 -19.2789
L49.2562 -18.9082
L49.133 -18.541
L49.0144 -18.1777
L48.9016 -17.8189
L48.7959 -17.4651
L48.6985 -17.1167
L48.6108 -16.7744
L48.5342 -16.4385
L48.4702 -16.1097
L48.4202 -15.7884
L48.3855 -15.4751
L48.3673 -15.1704
L48.3669 -14.8746
L48.3852 -14.5881
L48.423 -14.3114
L48.4807 -14.0447
L48.5587 -13.7882
L48.6569 -13.5423
L48.7752 -13.307
L48.913 -13.0826
L49.0699 -12.869
L49.2449 -12.6663
L49.4372 -12.4746
L49.6457 -12.2938
L49.8695 -12.124
L50.1074 -11.965
L50.3584 -11.8169
L51.1087 -11.6797
L51.5281 -11.8344
L51.9429 -12.1017
L52.3527 -12.3764
L52.7576 -12.6582
L53.1574 -12.9472
L53.5519 -13.2431
L53.9411 -13.5461
L54.3249 -13.8558
L54.703 -14.1723
L55.0755 -14.4954
L55.4421 -14.8251
L55.8029 -15.1612
L56.1575 -15.5037
L56.5061 -15.8525
L56.8484 -16.2073
L57.1844 -16.5682
L57.5139 -16.935
L57.8368 -17.3077
L58.1531 -17.686
L58.4627 -18.0699
L58.7654 -18.4592
L59.0611 -18.8539
L59.3499 -19.2538
L59.6315 -19.6589
L59.906 -20.0689
L60.1731 -20.4837
L60.4329 -20.9033
L60.6853 -21.3275
L60.9301 -21.7561
L61.1673 -22.1891
L61.3969 -22.6263
L61.6187 -23.0676
L61.8328 -23.5128
L62.0389 -23.9618
L62.2372 -24.4145
L62.4274 -24.8707
L62.6096 -25.3303
L62.7837 -25.7931
L62.9496 -26.2591
L63.1073 -26.728
L63.2568 -27.1997
L63.3979 -27.6742
L63.5307 -28.1511
L63.6551 -28.6305
L63.7711 -29.1121
L63.8787 -29.5958
L63.9777 -30.0814
L64.0682 -30.5689
L64.1502 -31.058
L64.2236 -31.5486
L64.2884 -32.0406
L64.3446 -32.5337
L64.3922 -33.028
L64.4311 -33.5231
L64.4613 -34.019
L64.4829 -34.5155
L64.4958 -35.0124
L64.5 -35.5097
L64.4955 -36.0071
L64.4824 -36.5045
L64.4606 -37.0017
L64.4301 -37.4986
L64.3909 -37.9951
L64.3431 -38.491
L64.2867 -38.9861
L64.2217 -39.4803
L64.148 -39.9734
L64.0658 -40.4654
L63.975 -40.9559
L63.8757 -41.445
L63.768 -41.9324
L63.6517 -42.418
L63.5271 -42.9016
L63.394 -43.3832
L63.2526 -43.8625
L63.1029 -44.3394
L62.945 -44.8137
L62.7788 -45.2854
L62.6045 -45.7542
L62.4221 -46.2201
L62.2316 -46.6828
L62.0332 -47.1424
L61.8268 -47.5985
L61.6125 -48.051
L61.3905 -48.4999
L61.1607 -48.945
L60.9232 -49.3862
L60.6782 -49.8233
L60.4256 -50.2561
L60.1656 -50.6847
L59.8983 -51.1087
L59.6236 -51.5281
L59.3418 -51.9429
L59.0528 -52.3527
L58.7569 -52.7576
L58.4539 -53.1574
L58.1442 -53.5519
L57.8277 -53.9411
L57.5046 -54.3249
L57.1749 -54.703
L56.8388 -55.0755
L56.4963 -55.4421
L56.1475 -55.8029
L55.7927 -56.1575
L55.4318 -56.5061
L55.065 -56.8484
L54.6923 -57.1844
L54.314 -57.5139
L53.9301 -57.8368
L53.5408 -58.1531
L53.1461 -58.4627
L52.7462 -58.7654
L52.3411 -59.0611
L51.9311 -59.3499
L51.5163 -59.6315
L51.0967 -59.906
L50.6725 -60.1731
L50.2439 -60.4329
L49.8109 -60.6853
L49.3737 -60.9301
L48.9324 -61.1673
L48.4872 -61.3969
L48.0382 -61.6187
L47.5855 -61.8328
L47.1293 -62.0389
L46.6697 -62.2372
L46.2069 -62.4274
L45.7409 -62.6096
L45.272 -62.7837
L44.8003 -62.9496
L44.3258 -63.1073
L43.8489 -63.2568
L43.3695 -63.3979
L42.8879 -63.5307
L42.4042 -63.6551
z
" id="C0_2_5f84a81b53"/>
    </defs>
    <g clip-path="url(#p1bffca34e9)">
     <use style="fill:#ff0000;stroke:#000000;stroke-width:2.0;" x="0.0" xlink:href="#C0_0_a811fe30f3" y="72.0"/>
    </g>
    <g clip-path="url(#p1bffca34e9)">
     <use style="fill:#ffffff;stroke:#000000;stroke-width:2.0;" x="0.0" xlink:href="#C0_1_c6ff98b8ab" y="72.0"/>
    </g>
    <g clip-path="url(#p1bffca34e9)">
     <use style="fill:#ffffff;stroke:#000000;stroke-width:2.0;" x="0.0" xlink:href="#C0_2_5f84a81b53" y="72.0"/>
    </g>
   </g>
  </g>
 </g>
 <defs>
  <clipPath id="p1bffca34e9">
   <rect height="72.0" width="72.0" x="0.0" y="0.0"/>
  </clipPath>
 </defs>
</svg>
