<?xml version="1.0" encoding="utf-8" standalone="no"?>
<!DOCTYPE svg PUBLIC "-//W3C//DTD SVG 1.1//EN"
  "http://www.w3.org/Graphics/SVG/1.1/DTD/svg11.dtd">
<!-- Created with matplotlib (http://matplotlib.org/) -->
<svg height="72pt" version="1.1" viewBox="0 0 72 72" width="72pt" xmlns="http://www.w3.org/2000/svg" xmlns:xlink="http://www.w3.org/1999/xlink">
 <defs>
  <style type="text/css">
*{stroke-linecap:butt;stroke-linejoin:round;}
  </style>
 </defs>
 <g id="figure_1">
  <g id="patch_1">
   <path d="
M0 72
L72 72
L72 0
L0 0
z
" style="fill:none;"/>
  </g>
  <g id="axes_1">
   <g id="PatchCollection_1">
    <defs>
     <path d="
M36 -7.5
C43.5583 -7.5 50.808 -10.5029 56.1525 -15.8475
C61.4971 -21.192 64.5 -28.4417 64.5 -36
C64.5 -43.5583 61.4971 -50.808 56.1525 -56.1525
C50.808 -61.4971 43.5583 -64.5 36 -64.5
C28.4417 -64.5 21.192 -61.4971 15.8475 -56.1525
C10.5029 -50.808 7.5 -43.5583 7.5 -36
C7.5 -28.4417 10.5029 -21.192 15.8475 -15.8475
C21.192 -10.5029 28.4417 -7.5 36 -7.5
z
" id="C0_0_a811fe30f3"/>
     <path d="
M46.9324 -62.221
L46.7749 -62.0749
L46.6196 -61.927
L46.4666 -61.7776
L46.3156 -61.6266
L46.1667 -61.4742
L46.0197 -61.3203
L45.8746 -61.1651
L45.7313 -61.0084
L45.5897 -60.8505
L45.4498 -60.6912
L45.3114 -60.5307
L45.1747 -60.3689
L45.0394 -60.2058
L44.9055 -60.0416
L44.773 -59.8761
L44.6418 -59.7094
L44.5119 -59.5415
L44.3832 -59.3724
L44.2556 -59.2021
L44.1292 -59.0306
L44.0039 -58.8578
L43.8796 -58.6839
L43.7563 -58.5088
L43.6339 -58.3324
L43.5125 -58.1548
L43.3919 -57.9759
L43.2722 -57.7957
L43.1533 -57.6143
L42.9178 -57.4315
L42.8011 -57.2475
L42.6851 -57.062
L42.5697 -56.8752
L42.455 -56.687
L42.3408 -56.4974
L42.2273 -56.3063
L42.1142 -56.1137
L42.0017 -55.9196
L41.8897 -55.724
L41.7781 -55.5268
L41.667 -55.328
L41.5564 -55.1276
L41.4461 -54.9254
L41.3363 -54.7216
L41.2268 -54.516
L41.1177 -54.3086
L41.009 -54.0994
L40.9005 -53.8883
L40.7925 -53.6753
L40.6847 -53.4604
L40.5772 -53.2434
L40.4701 -53.0245
L40.3632 -52.8034
L40.2566 -52.5803
L40.1503 -52.355
L40.0443 -52.1274
L39.9385 -51.8977
L39.8331 -51.6656
L39.7279 -51.4312
L39.6231 -51.1944
L39.5185 -50.9552
L39.4142 -50.7135
L39.3103 -50.4693
L39.2067 -50.2226
L39.1035 -49.9733
L39.0007 -49.7214
L38.8982 -49.4667
L38.7962 -49.2094
L38.6947 -48.9493
L38.5936 -48.6865
L38.4931 -48.4209
L38.3932 -48.1524
L38.2939 -47.881
L38.1952 -47.6068
L38.0973 -47.3296
L38.0002 -47.0495
L37.9039 -46.7665
L37.8086 -46.4806
L37.7143 -46.1916
L37.6211 -45.8997
L37.529 -45.6049
L37.4383 -45.3071
L37.3489 -45.0064
L37.261 -44.7028
L37.1748 -44.3963
L37.0904 -44.087
L37.0078 -43.7749
L36.9274 -43.46
L36.8492 -43.1425
L36.7733 -42.8224
L36.7001 -42.4998
L36.6297 -42.1748
L36.5623 -41.8474
L36.4982 -41.5179
L36.4375 -41.1863
L36.3806 -40.8527
L36.3277 -40.5175
L36.2791 -40.1806
L36.2351 -39.8423
L36.196 -39.5027
L36.1621 -39.1622
L36.1339 -38.8209
L36.1115 -38.4791
L36.0955 -38.137
L36.0861 -37.7949
L36.0837 -37.4531
L36.0888 -37.1118
L36.1017 -36.7714
L36.1228 -36.4323
L36.1525 -36.0946
L36.1911 -35.7588
L36.239 -35.4251
L36.2965 -35.094
L36.3638 -34.7657
L36.4413 -34.4406
L36.5292 -34.1189
L36.6276 -33.8011
L36.7367 -33.4875
L36.8565 -33.1782
L36.9871 -32.8735
L37.1284 -32.5738
L37.2803 -32.2792
L37.4427 -31.99
L37.6153 -31.7062
L37.798 -31.4281
L37.9903 -31.1558
L38.192 -30.8893
L38.4026 -30.6288
L38.6217 -30.3743
L38.849 -30.1259
L39.0839 -29.8835
L39.3259 -29.6471
L39.5747 -29.4168
L39.8296 -29.1925
L40.0902 -28.9742
L40.356 -28.7617
L40.6266 -28.5551
L40.9016 -28.3543
L41.1803 -28.1592
L41.4625 -27.9697
L41.7478 -27.7858
L42.0356 -27.6073
L42.3258 -27.4342
L42.6178 -27.2664
L42.9115 -27.1038
L43.2064 -26.9462
L43.5023 -26.7937
L43.7988 -26.6461
L44.0959 -26.5033
L44.3932 -26.3652
L44.6904 -26.2318
L44.9875 -26.103
L45.2842 -25.9786
L45.5803 -25.8586
L45.8757 -25.7428
L46.1703 -25.6313
L46.4639 -25.5239
L46.7563 -25.4205
L47.0476 -25.3211
L47.3376 -25.2255
L47.6262 -25.1337
L47.9134 -25.0457
L48.199 -24.9613
L48.4831 -24.8804
L48.7655 -24.8031
L49.0463 -24.7292
L49.3254 -24.6586
L49.6028 -24.5914
L49.8784 -24.5274
L50.1523 -24.4665
L50.4244 -24.4088
L50.6948 -24.3541
L50.9633 -24.3024
L51.2301 -24.2536
L51.4952 -24.2078
L51.7585 -24.1648
L52.02 -24.1246
L52.2798 -24.0871
L52.538 -24.0524
L52.7944 -24.0204
L53.0492 -23.9909
L53.3023 -23.9641
L53.5538 -23.9399
L53.8038 -23.9182
L54.0522 -23.8989
L54.299 -23.8822
L54.5444 -23.868
L54.7883 -23.8561
L55.0308 -23.8467
L55.272 -23.8397
L55.5117 -23.8351
L55.7502 -23.8328
L55.9873 -23.8329
L56.2232 -23.8354
L56.4579 -23.8402
L56.6915 -23.8473
L56.9239 -23.8568
L57.1552 -23.8686
L57.3854 -23.8828
L57.6146 -23.8994
L57.8429 -23.9183
L58.0701 -23.9395
L58.2965 -23.9632
L58.522 -23.9892
L58.7466 -24.0177
L58.9704 -24.0486
L59.1935 -24.082
L59.4158 -24.1179
L59.6374 -24.1563
L59.8583 -24.1973
L60.0786 -24.2409
L60.2982 -24.2871
L60.5173 -24.336
L60.7358 -24.3876
L60.9538 -24.442
L61.1713 -24.4992
L61.3884 -24.5593
L61.605 -24.6224
L61.8211 -24.6884
L62.0369 -24.7576
L62.3836 -24.8298
L62.5676 -25.2224
L62.7436 -25.6845
L62.9115 -26.1497
L63.0711 -26.6179
L63.2225 -27.089
L63.3656 -27.5628
L63.5004 -28.0392
L63.6268 -28.518
L63.7447 -28.9991
L63.8543 -29.4823
L63.9553 -29.9675
L64.0478 -30.4546
L64.1318 -30.9433
L64.2072 -31.4336
L64.274 -31.9253
L64.3322 -32.4182
L64.3818 -32.9122
L64.4227 -33.4071
L64.455 -33.9028
L64.4786 -34.3992
L64.4935 -34.896
L64.4998 -35.3932
L64.4974 -35.8906
L64.4862 -36.388
L64.4665 -36.8853
L64.438 -37.3823
L64.4009 -37.8789
L64.3551 -38.3749
L64.3007 -38.8702
L64.2377 -39.3647
L64.166 -39.8581
L64.0858 -40.3503
L63.997 -40.8412
L63.8997 -41.3306
L63.794 -41.8184
L63.6797 -42.3045
L63.557 -42.7886
L63.4259 -43.2706
L63.2865 -43.7504
L63.1387 -44.2279
L62.9827 -44.7029
L62.8185 -45.1752
L62.6461 -45.6447
L62.4655 -46.1113
L62.2769 -46.5748
L62.0804 -47.035
L61.8758 -47.492
L61.6634 -47.9454
L61.4432 -48.3952
L61.2152 -48.8412
L60.9795 -49.2832
L60.7362 -49.7213
L60.4854 -50.1551
L60.2272 -50.5847
L59.9615 -51.0098
L59.6886 -51.4303
L59.4084 -51.8462
L59.1211 -52.2572
L58.8268 -52.6632
L58.5255 -53.0642
L58.2173 -53.46
L57.9024 -53.8505
L57.5808 -54.2355
L57.2527 -54.615
L56.918 -54.9888
L56.577 -55.3568
L56.2298 -55.7189
L55.8763 -56.075
L55.5168 -56.425
L55.1514 -56.7688
L54.7801 -57.1063
L54.4031 -57.4373
L54.0205 -57.7618
L53.6324 -58.0796
L53.239 -58.3908
L52.8403 -58.6951
L52.4364 -58.9925
L52.0276 -59.2829
L51.6139 -59.5662
L51.1954 -59.8423
L50.7723 -60.1112
L50.3446 -60.3727
L49.9127 -60.6268
L49.4764 -60.8734
L49.0361 -61.1125
L48.5918 -61.3438
L48.1437 -61.5675
L47.6919 -61.7833
z
" id="C0_1_b51454bd03"/>
     <path d="
M9.74848 -47.0943
L9.84422 -46.8861
L9.94215 -46.6778
L10.0423 -46.4693
L10.1446 -46.2605
L10.2492 -46.0514
L10.356 -45.842
L10.4651 -45.6322
L10.5765 -45.4219
L10.6902 -45.2112
L10.8061 -44.9999
L10.9245 -44.7881
L11.0452 -44.5757
L11.1683 -44.3626
L11.2938 -44.1489
L11.4217 -43.9343
L11.5522 -43.7191
L11.6851 -43.503
L11.8205 -43.286
L11.9584 -43.0681
L12.099 -42.8493
L12.2421 -42.6296
L12.3879 -42.4088
L12.5362 -42.1869
L12.6873 -41.964
L12.841 -41.7399
L12.9975 -41.5147
L13.1567 -41.2883
L13.3186 -41.0606
L13.4833 -40.8317
L13.6508 -40.6014
L13.8211 -40.3699
L13.9941 -40.137
L14.17 -39.9027
L14.3487 -39.6669
L14.5301 -39.4297
L14.7144 -39.1911
L14.9014 -38.951
L15.0912 -38.7093
L15.2837 -38.4661
L15.4789 -38.2213
L15.6767 -37.9749
L15.8772 -37.7269
L16.0801 -37.4773
L16.2856 -37.226
L16.4935 -36.973
L16.7037 -36.7184
L16.916 -36.4621
L17.1305 -36.204
L17.3469 -35.9442
L17.5651 -35.6826
L17.785 -35.4192
L18.0064 -35.1541
L18.229 -34.8872
L18.4528 -34.6184
L18.6773 -34.3477
L18.9025 -34.0752
L19.128 -33.8008
L19.3535 -33.5245
L19.5788 -33.2462
L19.8034 -32.9659
L20.0272 -32.6836
L20.2496 -32.3993
L20.4703 -32.1128
L20.6889 -31.8243
L20.905 -31.5335
L21.1182 -31.2406
L21.328 -30.9454
L21.5341 -30.6479
L21.7358 -30.3481
L21.9329 -30.0459
L22.1249 -29.7414
L22.3114 -29.4344
L22.4921 -29.1249
L22.6664 -28.8131
L22.8342 -28.4988
L22.9951 -28.182
L23.1489 -27.863
L23.2954 -27.5416
L23.4344 -27.2179
L23.5658 -26.8922
L23.6896 -26.5643
L23.8059 -26.2346
L23.9146 -25.9032
L24.0158 -25.5701
L24.1098 -25.2357
L24.1967 -24.9
L24.2768 -24.5634
L24.3502 -24.226
L24.4173 -23.888
L24.4785 -23.5498
L24.5339 -23.2115
L24.584 -22.8733
L24.629 -22.5355
L24.6693 -22.1984
L24.7052 -21.8621
L24.7371 -21.5268
L24.7653 -21.1929
L24.79 -20.8604
L24.8117 -20.5295
L24.8304 -20.2005
L24.8466 -19.8735
L24.8604 -19.5487
L24.8721 -19.2262
L24.882 -18.9061
L24.8902 -18.5885
L24.8969 -18.2737
L24.9023 -17.9616
L24.9066 -17.6524
L24.91 -17.3461
L24.9125 -17.0428
L24.9144 -16.7425
L24.9157 -16.4454
L24.9166 -16.1515
L24.9171 -15.8607
L24.9174 -15.5732
L24.9176 -15.2889
L24.9176 -15.0078
L24.9177 -14.73
L24.9178 -14.4554
L24.918 -14.1841
L24.9185 -13.9161
L24.9191 -13.6512
L24.9201 -13.3895
L24.9213 -13.1311
L24.9229 -12.8757
L24.9249 -12.6235
L24.9274 -12.3744
L24.9302 -12.1283
L24.9336 -11.8853
L24.9374 -11.6452
L24.9418 -11.408
L24.9467 -11.1738
L24.9522 -10.9423
L24.9582 -10.7137
L24.9649 -10.4878
L24.9721 -10.2647
L24.98 -10.0442
L24.4912 -9.82624
L24.0379 -9.92706
L23.5883 -10.1319
L23.1424 -10.3446
L22.7005 -10.5651
L22.2626 -10.7934
L21.8289 -11.0293
L21.3995 -11.2729
L20.9746 -11.524
L20.5542 -11.7825
L20.1386 -12.0484
L19.7277 -12.3216
L19.3219 -12.6021
L18.9211 -12.8896
L18.5255 -13.1842
L18.1352 -13.4858
L17.7504 -13.7942
L17.3711 -14.1093
L16.9975 -14.4312
L16.6297 -14.7596
L16.2678 -15.0944
L15.9119 -15.4357
L15.5622 -15.7832
L15.2186 -16.1369
L14.8814 -16.4966
L14.5506 -16.8622
L14.2264 -17.2337
L13.9087 -17.6109
L13.5979 -17.9937
L13.2938 -18.382
L12.9966 -18.7757
L12.7065 -19.1746
L12.4235 -19.5786
L12.1476 -19.9876
L11.879 -20.4015
L11.6177 -20.8202
L11.3639 -21.2435
L11.1176 -21.6712
L10.8789 -22.1034
L10.6478 -22.5398
L10.4244 -22.9802
L10.2088 -23.4247
L10.0011 -23.8729
L9.80131 -24.3249
L9.6095 -24.7804
L9.42572 -25.2394
L9.25003 -25.7016
L9.0825 -26.1669
L8.92316 -26.6353
L8.77207 -27.1065
L8.62927 -27.5804
L8.49482 -28.0569
L8.36874 -28.5358
L8.25107 -29.0169
L8.14186 -29.5002
L8.04114 -29.9855
L7.94893 -30.4726
L7.86527 -30.9614
L7.79017 -31.4517
L7.72367 -31.9434
L7.66579 -32.4364
L7.61653 -32.9304
L7.57592 -33.4254
L7.54397 -33.9211
L7.52068 -34.4175
L7.50607 -34.9144
L7.50015 -35.4116
L7.5029 -35.909
L7.51433 -36.4064
L7.53444 -36.9037
L7.56322 -37.4007
L7.60066 -37.8972
L7.64676 -38.3932
L7.70148 -38.8885
L7.76483 -39.3829
L7.83679 -39.8763
L7.91731 -40.3684
L8.0064 -40.8593
L8.10401 -41.3487
L8.21012 -41.8364
L8.32469 -42.3224
L8.44769 -42.8064
L8.57909 -43.2884
L8.71884 -43.7681
L8.8669 -44.2455
L9.02322 -44.7204
L9.18776 -45.1926
L9.36047 -45.662
L9.54129 -46.1284
z
" id="C0_2_277db85373"/>
    </defs>
    <g clip-path="url(#p1bffca34e9)">
     <use style="fill:#ffffff;stroke:#000000;stroke-width:2.0;" x="0.0" xlink:href="#C0_0_a811fe30f3" y="72.0"/>
    </g>
    <g clip-path="url(#p1bffca34e9)">
     <use style="fill:#ff0000;stroke:#000000;stroke-width:2.0;" x="0.0" xlink:href="#C0_1_b51454bd03" y="72.0"/>
    </g>
    <g clip-path="url(#p1bffca34e9)">
     <use style="fill:#ff0000;stroke:#000000;stroke-width:2.0;" x="0.0" xlink:href="#C0_2_277db85373" y="72.0"/>
    </g>
   </g>
  </g>
 </g>
 <defs>
  <clipPath id="p1bffca34e9">
   <rect height="72.0" width="72.0" x="0.0" y="0.0"/>
  </clipPath>
 </defs>
</svg>
