<?xml version="1.0" encoding="utf-8" standalone="no"?>
<!DOCTYPE svg PUBLIC "-//W3C//DTD SVG 1.1//EN"
  "http://www.w3.org/Graphics/SVG/1.1/DTD/svg11.dtd">
<!-- Created with matplotlib (http://matplotlib.org/) -->
<svg height="72pt" version="1.1" viewBox="0 0 72 72" width="72pt" xmlns="http://www.w3.org/2000/svg" xmlns:xlink="http://www.w3.org/1999/xlink">
 <defs>
  <style type="text/css">
*{stroke-linecap:butt;stroke-linejoin:round;}
  </style>
 </defs>
 <g id="figure_1">
  <g id="patch_1">
   <path d="
M0 72
L72 72
L72 0
L0 0
z
" style="fill:none;"/>
  </g>
  <g id="axes_1">
   <g id="PatchCollection_1">
    <defs>
     <path d="
M36 -7.5
C43.5583 -7.5 50.808 -10.5029 56.1525 -15.8475
C61.4971 -21.192 64.5 -28.4417 64.5 -36
C64.5 -43.5583 61.4971 -50.808 56.1525 -56.1525
C50.808 -61.4971 43.5583 -64.5 36 -64.5
C28.4417 -64.5 21.192 -61.4971 15.8475 -56.1525
C10.5029 -50.808 7.5 -43.5583 7.5 -36
C7.5 -28.4417 10.5029 -21.192 15.8475 -15.8475
C21.192 -10.5029 28.4417 -7.5 36 -7.5
z
" id="C0_0_a811fe30f3"/>
     <path d="
M37.6592 -7.64979
L37.7194 -7.89508
L37.7865 -8.14254
L37.8597 -8.39201
L37.9385 -8.64335
L38.0221 -8.89641
L38.1101 -9.15107
L38.202 -9.40718
L38.2972 -9.66462
L38.3954 -9.92327
L38.4961 -10.183
L38.599 -10.4437
L38.7037 -10.7053
L38.8099 -10.9676
L38.9173 -11.2305
L39.0256 -11.494
L39.1347 -11.758
L39.2443 -12.0223
L39.3542 -12.2869
L39.4643 -12.5517
L39.5744 -12.8166
L39.6843 -13.0816
L39.7939 -13.3466
L39.9031 -13.6115
L40.0118 -13.8763
L40.1199 -14.1409
L40.2274 -14.4053
L40.3341 -14.6694
L40.44 -14.9332
L40.5451 -15.1967
L40.6493 -15.4598
L40.7526 -15.7225
L40.8549 -15.9847
L40.9561 -16.2466
L41.0564 -16.5079
L41.1556 -16.7688
L41.2538 -17.0292
L41.3509 -17.2892
L41.447 -17.5486
L41.542 -17.8075
L41.6359 -18.066
L41.7287 -18.3239
L41.8204 -18.5814
L41.9111 -18.8384
L42.0007 -19.0949
L42.0893 -19.351
L42.1768 -19.6066
L42.2632 -19.8618
L42.3487 -20.1167
L42.4331 -20.3711
L42.5165 -20.6252
L42.5989 -20.8789
L42.6804 -21.1323
L42.7609 -21.3855
L42.8404 -21.6383
L42.919 -21.891
L42.9967 -22.1434
L43.0735 -22.3957
L43.1494 -22.6479
L43.2244 -22.8999
L43.2986 -23.1518
L43.3719 -23.4038
L43.4444 -23.6557
L43.5161 -23.9076
L43.5869 -24.1596
L43.657 -24.4118
L43.7263 -24.664
L43.7949 -24.9165
L43.8627 -25.1691
L43.9298 -25.4221
L43.9962 -25.6753
L44.0618 -25.9289
L44.1911 -26.1828
L44.2547 -26.4372
L44.3177 -26.692
L44.38 -26.9474
L44.4417 -27.2033
L44.5028 -27.4598
L44.5633 -27.7169
L44.6231 -27.9747
L44.6824 -28.2333
L44.7411 -28.4926
L44.7992 -28.7527
L44.8568 -29.0136
L44.9138 -29.2755
L44.9702 -29.5383
L45.0261 -29.8021
L45.0815 -30.0669
L45.1364 -30.3327
L45.1907 -30.5997
L45.2445 -30.8679
L45.2978 -31.1372
L45.3506 -31.4078
L45.403 -31.6797
L45.4548 -31.9529
L45.5061 -32.2275
L45.557 -32.5035
L45.6074 -32.7809
L45.6573 -33.0598
L45.7068 -33.3402
L45.7558 -33.6222
L45.8044 -33.9058
L45.8525 -34.191
L45.9002 -34.4778
L45.9474 -34.7663
L45.9943 -35.0566
L46.0407 -35.3486
L46.0867 -35.6423
L46.1323 -35.9378
L46.1775 -36.2351
L46.2223 -36.5343
L46.2668 -36.8352
L46.3109 -37.138
L46.3547 -37.4427
L46.3981 -37.7491
L46.4412 -38.0574
L46.4841 -38.3676
L46.5267 -38.6795
L46.5691 -38.9932
L46.6112 -39.3087
L46.6532 -39.626
L46.6951 -39.9449
L46.7368 -40.2655
L46.7786 -40.5877
L46.8203 -40.9114
L46.8621 -41.2366
L46.904 -41.5632
L46.9462 -41.8911
L46.9886 -42.2201
L47.0314 -42.5503
L47.0747 -42.8814
L47.1185 -43.2134
L47.163 -43.5461
L47.2084 -43.8792
L47.2548 -44.2128
L47.3023 -44.5465
L47.351 -44.8802
L47.4013 -45.2136
L47.4533 -45.5465
L47.5072 -45.8787
L47.5633 -46.2099
L47.6218 -46.5397
L47.683 -46.868
L47.7472 -47.1944
L47.8147 -47.5184
L47.8859 -47.8399
L47.9611 -48.1584
L48.0406 -48.4734
L48.1249 -48.7847
L48.2143 -49.0918
L48.3093 -49.3942
L48.4103 -49.6915
L48.5177 -49.9832
L48.6318 -50.2689
L48.7532 -50.5481
L48.8821 -50.8203
L49.019 -51.0851
L49.1642 -51.342
L49.318 -51.5905
L49.4807 -51.8303
L49.6524 -52.0608
L49.8334 -52.2818
L50.0238 -52.4928
L50.2236 -52.6936
L50.4329 -52.8837
L50.6515 -53.063
L50.8793 -53.2312
L51.1161 -53.3881
L51.3618 -53.5335
L51.6159 -53.6673
L51.8783 -53.7895
L52.1484 -53.9
L52.4259 -53.9987
L52.7103 -54.0857
L53.0012 -54.161
L53.2981 -54.2246
L53.6005 -54.2767
L53.908 -54.3172
L54.2199 -54.3465
L54.5359 -54.3645
L54.8554 -54.3714
L55.1779 -54.3674
L55.5031 -54.3526
L55.8304 -54.3272
L56.1595 -54.2913
L56.4898 -54.2452
L56.821 -54.189
L57.1528 -54.1229
L57.4847 -54.047
L57.8164 -53.9616
L58.1476 -53.8669
L58.5406 -53.7629
L58.8416 -53.4405
L59.1356 -53.0444
L59.4225 -52.6432
L59.7023 -52.2369
L59.9749 -51.8256
L60.2402 -51.4096
L60.4981 -50.9888
L60.7485 -50.5635
L60.9914 -50.1337
L61.2267 -49.6996
L61.4543 -49.2614
L61.6741 -48.8191
L61.8862 -48.3729
L62.0903 -47.9229
L62.2865 -47.4694
L62.4747 -47.0123
L62.6548 -46.5518
L62.8268 -46.0882
L62.9906 -45.6214
L63.1463 -45.1518
L63.2936 -44.6793
L63.4326 -44.2043
L63.5633 -43.7267
L63.6856 -43.2467
L63.7994 -42.7646
L63.9048 -42.2804
L64.0017 -41.7942
L64.09 -41.3064
L64.1698 -40.8168
L64.241 -40.3259
L64.3036 -39.8336
L64.3576 -39.3401
L64.4029 -38.8457
L64.4396 -38.3503
L64.4676 -37.8543
L64.487 -37.3576
L64.4977 -36.8606
L64.4997 -36.3633
L64.493 -35.8659
L64.4776 -35.3685
L64.4536 -34.8713
L64.4209 -34.3745
L64.3795 -33.8782
L64.3295 -33.3825
L64.2709 -32.8876
L64.2037 -32.3937
L64.1278 -31.9008
L64.0434 -31.4092
L63.9505 -30.919
L63.849 -30.4304
L63.7391 -29.9434
L63.6207 -29.4583
L63.4939 -28.9752
L63.3587 -28.4942
L63.2152 -28.0155
L63.0634 -27.5393
L62.9033 -27.0656
L62.7351 -26.5946
L62.5587 -26.1265
L62.3742 -25.6614
L62.1817 -25.1995
L61.9812 -24.7408
L61.7728 -24.2856
L61.5566 -23.834
L61.3325 -23.386
L61.1008 -22.9419
L60.8614 -22.5018
L60.6144 -22.0658
L60.3599 -21.634
L60.098 -21.2066
L59.8288 -20.7837
L59.5523 -20.3655
L59.2687 -19.952
L58.9779 -19.5434
L58.6802 -19.1398
L58.3755 -18.7414
L58.064 -18.3482
L57.7458 -17.9603
L57.421 -17.578
L57.0897 -17.2013
L56.7519 -16.8303
L56.4078 -16.4652
L56.0575 -16.106
L55.7011 -15.7529
L55.3387 -15.4059
L54.9703 -15.0652
L54.5963 -14.7309
L54.2165 -14.403
L53.8312 -14.0818
L53.4405 -13.7672
L53.0444 -13.4594
L52.6432 -13.1584
L52.2369 -12.8644
L51.8256 -12.5775
L51.4096 -12.2977
L50.9888 -12.0251
L50.5635 -11.7598
L50.1337 -11.5019
L49.6996 -11.2515
L49.2614 -11.0086
L48.8191 -10.7733
L48.3729 -10.5457
L47.9229 -10.3259
L47.4694 -10.1138
L47.0123 -9.9097
L46.5518 -9.7135
L46.0882 -9.52531
L45.6214 -9.34519
L45.1518 -9.17319
L44.6793 -9.00936
L44.2043 -8.85375
L43.7267 -8.70641
L43.2467 -8.56738
L42.7646 -8.43671
L42.2804 -8.31443
L41.7942 -8.20059
L41.3064 -8.09522
L40.8168 -7.99835
L40.3259 -7.91
L39.8336 -7.83021
L39.3401 -7.75901
L38.8457 -7.6964
L38.3503 -7.64242
z
" id="C0_1_4637e29915"/>
     <path d="
M13.647 -18.4483
L13.6144 -18.796
L13.5846 -19.1436
L13.5576 -19.491
L13.5337 -19.838
L13.5129 -20.1842
L13.4951 -20.5297
L13.4805 -20.8742
L13.469 -21.2175
L13.4606 -21.5596
L13.4554 -21.9003
L13.4534 -22.2395
L13.4544 -22.5772
L13.4586 -22.9132
L13.4658 -23.2475
L13.4761 -23.58
L13.4893 -23.9107
L13.5055 -24.2395
L13.5246 -24.5664
L13.5465 -24.8914
L13.5713 -25.2143
L13.5988 -25.5353
L13.629 -25.8543
L13.6618 -26.1712
L13.6973 -26.4862
L13.7353 -26.7991
L13.7759 -27.1101
L13.8189 -27.419
L13.8643 -27.726
L13.9121 -28.0311
L13.9622 -28.3342
L14.0146 -28.6353
L14.0692 -28.9346
L14.1261 -29.2321
L14.1851 -29.5277
L14.2462 -29.8215
L14.3095 -30.1136
L14.3748 -30.4039
L14.4421 -30.6926
L14.5115 -30.9796
L14.5828 -31.265
L14.6561 -31.5488
L14.7313 -31.8312
L14.8084 -32.112
L14.8875 -32.3914
L14.9684 -32.6694
L15.0511 -32.946
L15.1357 -33.2214
L15.2222 -33.4954
L15.3105 -33.7683
L15.4006 -34.04
L15.4925 -34.3105
L15.5862 -34.58
L15.6817 -34.8484
L15.779 -35.1159
L15.8781 -35.3824
L15.9791 -35.648
L16.0818 -35.9127
L16.1864 -36.1766
L16.2928 -36.4397
L16.401 -36.7021
L16.511 -36.9639
L16.6229 -37.2249
L16.7367 -37.4854
L16.8523 -37.7454
L16.9699 -38.0048
L17.0893 -38.2637
L17.2107 -38.5222
L17.334 -38.7804
L17.4593 -39.0381
L17.5865 -39.2956
L17.7158 -39.5527
L17.8471 -39.8097
L17.9805 -40.0664
L18.116 -40.323
L18.2536 -40.5794
L18.3933 -40.8357
L18.5352 -41.092
L18.6793 -41.3483
L18.8256 -41.6045
L18.9742 -41.8608
L19.1251 -42.1171
L19.2784 -42.3736
L19.4339 -42.6301
L19.5919 -42.8868
L19.7524 -43.1436
L19.9152 -43.4007
L20.0806 -43.6579
L20.2486 -43.9154
L20.4191 -44.1732
L20.5922 -44.4312
L20.7679 -44.6895
L20.9464 -44.9481
L21.1275 -45.207
L21.3114 -45.4663
L21.498 -45.7258
L21.6875 -45.9857
L21.8797 -46.246
L22.0748 -46.5065
L22.2728 -46.7675
L22.4737 -47.0287
L22.6775 -47.2903
L22.8843 -47.5523
L23.094 -47.8145
L23.3066 -48.0771
L23.5221 -48.3399
L23.7407 -48.6031
L23.9621 -48.8665
L24.1865 -49.1301
L24.4137 -49.3939
L24.6439 -49.6579
L24.8768 -49.9221
L25.1125 -50.1864
L25.351 -50.4507
L25.5921 -50.7152
L25.8358 -50.9796
L26.082 -51.244
L26.3306 -51.5084
L26.5814 -51.7727
L26.8343 -52.0368
L27.0892 -52.3007
L27.3459 -52.5644
L27.6043 -52.8278
L27.864 -53.0909
L28.1249 -53.3537
L28.3867 -53.6161
L28.6491 -53.8781
L28.9119 -54.1396
L29.1747 -54.4007
L29.4372 -54.6612
L29.699 -54.9213
L29.9596 -55.1808
L30.2186 -55.4398
L30.4757 -55.6983
L30.7302 -55.9564
L30.9817 -56.2139
L31.2296 -56.4709
L31.4734 -56.7276
L31.7124 -56.9839
L31.9462 -57.2398
L32.174 -57.4955
L32.3952 -57.751
L32.6093 -58.0063
L32.8155 -58.2615
L33.0133 -58.5167
L33.2021 -58.7719
L33.3812 -59.0272
L33.5503 -59.2826
L33.7086 -59.5381
L33.8559 -59.7938
L33.9916 -60.0496
L34.1154 -60.3055
L34.227 -60.5615
L34.3262 -60.8175
L34.4127 -61.0734
L34.4866 -61.3291
L34.5476 -61.5844
L34.5959 -61.8392
L34.6314 -62.0934
L34.6543 -62.3467
L34.6648 -62.599
L34.663 -62.85
L34.6492 -63.0995
L34.6236 -63.3472
L34.5865 -63.593
L34.5382 -63.8367
L34.4789 -64.0779
L33.905 -64.3164
L33.4092 -64.4229
L32.9143 -64.382
L32.4203 -64.3325
L31.9274 -64.2743
L31.4357 -64.2075
L30.9454 -64.1321
L30.4567 -64.0482
L29.9696 -63.9557
L29.4844 -63.8547
L29.0012 -63.7452
L28.5201 -63.6273
L28.0413 -63.5009
L27.5649 -63.3662
L27.0911 -63.2231
L26.62 -63.0718
L26.1517 -62.9122
L25.6864 -62.7444
L25.2243 -62.5684
L24.7655 -62.3844
L24.3101 -62.1923
L23.8582 -61.9922
L23.4101 -61.7843
L22.9658 -61.5684
L22.5254 -61.3448
L22.0892 -61.1135
L21.6572 -60.8745
L21.2296 -60.6279
L20.8064 -60.3738
L20.3879 -60.1124
L19.9742 -59.8435
L19.5653 -59.5674
L19.1615 -59.2841
L18.7627 -58.9938
L18.3692 -58.6964
L17.9811 -58.3921
L17.5985 -58.081
L17.2215 -57.7632
L16.8502 -57.4387
L16.4847 -57.1077
L16.1252 -56.7703
L15.7718 -56.4265
L15.4244 -56.0766
L15.0834 -55.7205
L14.7487 -55.3584
L14.4206 -54.9904
L14.0989 -54.6166
L13.784 -54.2371
L13.4758 -53.8521
L13.1745 -53.4617
L12.8801 -53.0659
L12.5928 -52.665
L12.3126 -52.2589
L12.0396 -51.848
L11.774 -51.4321
L11.5157 -51.0116
L11.2648 -50.5865
L11.0215 -50.157
L10.7858 -49.7232
L10.5578 -49.2851
L10.3375 -48.8431
L10.1251 -48.3971
L9.92051 -47.9473
L9.72389 -47.4939
L9.53527 -47.037
L9.35471 -46.5768
L9.18226 -46.1133
L9.01799 -45.6467
L8.86193 -45.1772
L8.71415 -44.7049
L8.57467 -44.23
L8.44355 -43.7525
L8.32082 -43.2727
L8.20652 -42.7906
L8.10069 -42.3065
L8.00336 -41.8205
L7.91455 -41.3327
L7.8343 -40.8433
L7.76263 -40.3524
L7.69956 -39.8602
L7.64511 -39.3668
L7.5993 -38.8724
L7.56214 -38.3771
L7.53365 -37.881
L7.51382 -37.3844
L7.50267 -36.8874
L7.5002 -36.3901
L7.50641 -35.8927
L7.52131 -35.3954
L7.54487 -34.8982
L7.57711 -34.4013
L7.618 -33.905
L7.66754 -33.4092
L7.72571 -32.9143
L7.79249 -32.4203
L7.86786 -31.9274
L7.9518 -31.4357
L8.04429 -30.9454
L8.14529 -30.4567
L8.25478 -29.9696
L8.37272 -29.4844
L8.49907 -29.0012
L8.6338 -28.5201
L8.77687 -28.0413
L8.92823 -27.5649
L9.08783 -27.0911
L9.25564 -26.62
L9.43159 -26.1517
L9.61563 -25.6864
L9.80771 -25.2243
L10.0078 -24.7655
L10.2157 -24.3101
L10.4316 -23.8582
L10.6552 -23.4101
L10.8865 -22.9658
L11.1255 -22.5254
L11.3721 -22.0892
L11.6262 -21.6572
L11.8876 -21.2296
L12.1565 -20.8064
L12.4326 -20.3879
L12.7159 -19.9742
L13.0062 -19.5653
z
" id="C0_2_6dc2d5ed28"/>
    </defs>
    <g clip-path="url(#p1bffca34e9)">
     <use style="fill:#ff0000;stroke:#000000;stroke-width:2.0;" x="0.0" xlink:href="#C0_0_a811fe30f3" y="72.0"/>
    </g>
    <g clip-path="url(#p1bffca34e9)">
     <use style="fill:#ffffff;stroke:#000000;stroke-width:2.0;" x="0.0" xlink:href="#C0_1_4637e29915" y="72.0"/>
    </g>
    <g clip-path="url(#p1bffca34e9)">
     <use style="fill:#ffffff;stroke:#000000;stroke-width:2.0;" x="0.0" xlink:href="#C0_2_6dc2d5ed28" y="72.0"/>
    </g>
   </g>
  </g>
 </g>
 <defs>
  <clipPath id="p1bffca34e9">
   <rect height="72.0" width="72.0" x="0.0" y="0.0"/>
  </clipPath>
 </defs>
</svg>
