<?xml version="1.0" encoding="utf-8" standalone="no"?>
<!DOCTYPE svg PUBLIC "-//W3C//DTD SVG 1.1//EN"
  "http://www.w3.org/Graphics/SVG/1.1/DTD/svg11.dtd">
<!-- Created with matplotlib (http://matplotlib.org/) -->
<svg height="72pt" version="1.1" viewBox="0 0 72 72" width="72pt" xmlns="http://www.w3.org/2000/svg" xmlns:xlink="http://www.w3.org/1999/xlink">
 <defs>
  <style type="text/css">
*{stroke-linecap:butt;stroke-linejoin:round;}
  </style>
 </defs>
 <g id="figure_1">
  <g id="patch_1">
   <path d="
M0 72
L72 72
L72 0
L0 0
z
" style="fill:none;"/>
  </g>
  <g id="axes_1">
   <g id="PatchCollection_1">
    <defs>
     <path d="
M36 -7.5
C43.5583 -7.5 50.808 -10.5029 56.1525 -15.8475
C61.4971 -21.192 64.5 -28.4417 64.5 -36
C64.5 -43.5583 61.4971 -50.808 56.1525 -56.1525
C50.808 -61.4971 43.5583 -64.5 36 -64.5
C28.4417 -64.5 21.192 -61.4971 15.8475 -56.1525
C10.5029 -50.808 7.5 -43.5583 7.5 -36
C7.5 -28.4417 10.5029 -21.192 15.8475 -15.8475
C21.192 -10.5029 28.4417 -7.5 36 -7.5
z
" id="C0_0_a811fe30f3"/>
     <path d="
M20.4253 -59.6988
L20.5627 -59.5685
L20.6994 -59.4366
L20.8356 -59.3032
L20.9712 -59.1682
L21.1064 -59.0317
L21.2411 -58.8936
L21.3754 -58.754
L21.6429 -58.6128
L21.7762 -58.47
L21.9092 -58.3257
L22.042 -58.1798
L22.1746 -58.0323
L22.307 -57.8831
L22.4394 -57.7324
L22.5716 -57.5799
L22.7037 -57.4258
L22.8358 -57.27
L22.968 -57.1124
L23.1001 -56.9532
L23.2323 -56.7921
L23.3646 -56.6292
L23.4969 -56.4645
L23.6294 -56.2979
L23.7621 -56.1295
L23.8949 -55.9591
L24.028 -55.7867
L24.1613 -55.6123
L24.2948 -55.4359
L24.4286 -55.2575
L24.5626 -55.0769
L24.697 -54.8941
L24.8317 -54.7092
L24.9667 -54.522
L25.1021 -54.3326
L25.2378 -54.1408
L25.3739 -53.9467
L25.5104 -53.7502
L25.6473 -53.5512
L25.7846 -53.3498
L25.9223 -53.1458
L26.0603 -52.9392
L26.1988 -52.73
L26.3377 -52.5182
L26.477 -52.3036
L26.6167 -52.0863
L26.7567 -51.8662
L26.8971 -51.6432
L27.0378 -51.4173
L27.1789 -51.1885
L27.3203 -50.9568
L27.4619 -50.722
L27.6037 -50.4842
L27.7457 -50.2434
L27.8879 -49.9994
L28.0301 -49.7523
L28.1724 -49.502
L28.3146 -49.2485
L28.4567 -48.9918
L28.5986 -48.7319
L28.7403 -48.4687
L28.8815 -48.2023
L29.0223 -47.9326
L29.1625 -47.6596
L29.3019 -47.3834
L29.4405 -47.1039
L29.5781 -46.8212
L29.7145 -46.5353
L29.8495 -46.2462
L29.983 -45.9539
L30.1148 -45.6585
L30.2446 -45.3601
L30.3722 -45.0587
L30.4973 -44.7543
L30.6197 -44.4472
L30.7391 -44.1372
L30.8552 -43.8246
L30.9677 -43.5094
L31.0762 -43.1918
L31.1804 -42.8719
L31.2799 -42.5498
L31.3743 -42.2257
L31.4632 -41.8998
L31.5462 -41.5721
L31.6229 -41.243
L31.6929 -40.9125
L31.7557 -40.5809
L31.8109 -40.2484
L31.858 -39.9151
L31.8966 -39.5814
L31.9265 -39.2475
L31.947 -38.9135
L31.958 -38.5797
L31.9591 -38.2464
L31.95 -37.9137
L31.9304 -37.5819
L31.9003 -37.2512
L31.8595 -36.9219
L31.808 -36.5941
L31.7456 -36.2681
L31.6725 -35.944
L31.5889 -35.6221
L31.4948 -35.3024
L31.3906 -34.9852
L31.2765 -34.6706
L31.1528 -34.3588
L31.02 -34.0498
L30.8783 -33.7438
L30.7283 -33.4409
L30.5704 -33.1411
L30.4051 -32.8446
L30.2328 -32.5514
L30.054 -32.2616
L29.8692 -31.9753
L29.6789 -31.6924
L29.4835 -31.4131
L29.2835 -31.1373
L29.0793 -30.8651
L28.8713 -30.5965
L28.6599 -30.3316
L28.4455 -30.0703
L28.2285 -29.8126
L28.0092 -29.5586
L27.7879 -29.3083
L27.5649 -29.0617
L27.3406 -28.8187
L27.1151 -28.5793
L26.8887 -28.3436
L26.6617 -28.1114
L26.4343 -27.8829
L26.2065 -27.6579
L25.9788 -27.4365
L25.7511 -27.2186
L25.5236 -27.0042
L25.2965 -26.7932
L25.07 -26.5857
L24.844 -26.3815
L24.6187 -26.1807
L24.3943 -25.9832
L24.1707 -25.7889
L23.9481 -25.5979
L23.7265 -25.4101
L23.5059 -25.2254
L23.2865 -25.0437
L23.0683 -24.8652
L22.8512 -24.6896
L22.6353 -24.517
L22.4207 -24.3473
L22.2073 -24.1804
L21.9952 -24.0164
L21.7844 -23.8552
L21.5749 -23.6966
L21.3666 -23.5408
L21.1597 -23.3876
L20.954 -23.2369
L20.7495 -23.0888
L20.5463 -22.9433
L20.3444 -22.8001
L20.1436 -22.6594
L19.9441 -22.5211
L19.7457 -22.3851
L19.5485 -22.2514
L19.3524 -22.12
L19.1575 -21.9907
L18.9636 -21.8637
L18.7707 -21.7388
L18.5789 -21.616
L18.3881 -21.4954
L18.1982 -21.3767
L18.0093 -21.2601
L17.8213 -21.1455
L17.6341 -21.0328
L17.4478 -20.9221
L17.2622 -20.8133
L17.0774 -20.7063
L16.8934 -20.6013
L16.71 -20.498
L16.5273 -20.3967
L16.3452 -20.2971
L16.1637 -20.1993
L15.9827 -20.1033
L15.8023 -20.0091
L15.6223 -19.9166
L15.4427 -19.8259
L15.2635 -19.7369
L15.0847 -19.6496
L14.9062 -19.5641
L14.728 -19.4803
L14.55 -19.3983
L14.3722 -19.318
L14.1946 -19.2394
L14.017 -19.1626
L13.8396 -19.0875
L13.6622 -19.0142
L13.4848 -18.9427
L13.3074 -18.873
L12.9876 -18.8051
L12.6977 -19.1869
L12.4149 -19.5911
L12.1392 -20.0002
L11.8709 -20.4143
L11.6098 -20.8331
L11.3563 -21.2565
L11.1102 -21.6844
L10.8717 -22.1167
L10.6408 -22.5532
L10.4177 -22.9938
L10.2023 -23.4384
L9.99487 -23.8867
L9.79531 -24.3388
L9.60374 -24.7944
L9.42021 -25.2535
L9.24477 -25.7158
L9.07749 -26.1813
L8.9184 -26.6497
L8.76757 -27.121
L8.62503 -27.595
L8.49082 -28.0715
L8.365 -28.5505
L8.2476 -29.0317
L8.13865 -29.5151
L8.03818 -30.0004
L7.94624 -30.4876
L7.86284 -30.9764
L7.78801 -31.4668
L7.72177 -31.9585
L7.66415 -32.4515
L7.61516 -32.9456
L7.57481 -33.4406
L7.54312 -33.9364
L7.52011 -34.4328
L7.50576 -34.9296
L7.5001 -35.4268
L7.50312 -35.9242
L7.51482 -36.4216
L7.53519 -36.9189
L7.56424 -37.4159
L7.60195 -37.9125
L7.64831 -38.4084
L7.7033 -38.9037
L7.76691 -39.398
L7.83913 -39.8914
L7.91992 -40.3835
L8.00926 -40.8743
L8.10714 -41.3637
L8.2135 -41.8513
L8.32834 -42.3372
L8.4516 -42.8212
L8.58325 -43.3031
L8.72326 -43.7828
L8.87157 -44.2601
L9.02814 -44.7349
L9.19294 -45.207
L9.3659 -45.6763
L9.54697 -46.1427
L9.7361 -46.606
L9.93322 -47.066
L10.1383 -47.5227
L10.3512 -47.9759
L10.572 -48.4254
L10.8005 -48.8712
L11.0367 -49.313
L11.2805 -49.7507
L11.5318 -50.1843
L11.7906 -50.6136
L12.0567 -51.0384
L12.3301 -51.4586
L12.6108 -51.8741
L12.8986 -52.2848
L13.1934 -52.6905
L13.4951 -53.0911
L13.8037 -53.4866
L14.1191 -53.8767
L14.4411 -54.2613
L14.7697 -54.6404
L15.1048 -55.0138
L15.4462 -55.3815
L15.7939 -55.7432
L16.1478 -56.0989
L16.5077 -56.4485
L16.8735 -56.7918
L17.2452 -57.1288
L17.6226 -57.4594
L18.0055 -57.7835
L18.394 -58.1009
L18.7878 -58.4116
L19.1869 -58.7154
L19.5911 -59.0124
z
" id="C0_1_f5e4e31aad"/>
     <path d="
M58.6255 -53.0763
L58.5118 -52.9222
L58.3969 -52.7669
L58.2808 -52.6106
L58.1636 -52.4531
L58.0452 -52.2945
L57.9255 -52.1347
L57.8046 -51.9736
L57.6825 -51.8112
L57.559 -51.6476
L57.4342 -51.4826
L57.3081 -51.3162
L57.1806 -51.1484
L57.0517 -50.9791
L56.9213 -50.8083
L56.7896 -50.636
L56.6563 -50.4622
L56.5216 -50.2866
L56.3853 -50.1095
L56.2475 -49.9306
L56.1081 -49.75
L55.9671 -49.5676
L55.8245 -49.3834
L55.6803 -49.1973
L55.5344 -49.0092
L55.3868 -48.8193
L55.2375 -48.6273
L55.0866 -48.4333
L54.9339 -48.2372
L54.7794 -48.0389
L54.6233 -47.8385
L54.4653 -47.6359
L54.3056 -47.431
L54.1442 -47.2238
L53.981 -47.0142
L53.816 -46.8023
L53.6493 -46.588
L53.4809 -46.3712
L53.3107 -46.1518
L53.1389 -45.93
L52.9654 -45.7056
L52.7903 -45.4785
L52.6137 -45.2489
L52.4355 -45.0165
L52.2558 -44.7814
L52.0748 -44.5437
L51.8925 -44.3031
L51.7089 -44.0598
L51.5242 -43.8136
L51.3384 -43.5647
L51.1518 -43.3128
L50.9644 -43.0582
L50.7764 -42.8006
L50.588 -42.5402
L50.3993 -42.2769
L50.2106 -42.0106
L50.022 -41.7415
L49.8337 -41.4695
L49.6461 -41.1946
L49.4595 -40.9168
L49.274 -40.6361
L49.09 -40.3525
L48.9078 -40.0661
L48.7278 -39.7769
L48.5504 -39.4848
L48.3759 -39.19
L48.2048 -38.8924
L48.0374 -38.592
L47.8742 -38.289
L47.7157 -37.9833
L47.5622 -37.6749
L47.4142 -37.364
L47.2723 -37.0506
L47.1368 -36.7347
L47.0081 -36.4164
L46.8867 -36.0957
L46.773 -35.7728
L46.6672 -35.4478
L46.5699 -35.1206
L46.4811 -34.7915
L46.4011 -34.4604
L46.3302 -34.1277
L46.2683 -33.7933
L46.2157 -33.4575
L46.1722 -33.1203
L46.1378 -32.782
L46.1125 -32.4427
L46.0959 -32.1026
L46.088 -31.7619
L46.0884 -31.4207
L46.0969 -31.0794
L46.1131 -30.7379
L46.1367 -30.3967
L46.1672 -30.0558
L46.2042 -29.7154
L46.2475 -29.3759
L46.2965 -29.0372
L46.3508 -28.6997
L46.4101 -28.3635
L46.474 -28.0288
L46.542 -27.6957
L46.6139 -27.3644
L46.6891 -27.035
L46.7675 -26.7077
L46.8486 -26.3827
L46.9322 -26.06
L47.018 -25.7397
L47.1057 -25.4219
L47.1951 -25.1068
L47.2859 -24.7944
L47.3779 -24.4848
L47.4708 -24.1781
L47.5646 -23.8742
L47.659 -23.5734
L47.7539 -23.2755
L47.8491 -22.9807
L47.9445 -22.6889
L48.04 -22.4002
L48.1354 -22.1147
L48.2306 -21.8322
L48.3256 -21.5528
L48.4203 -21.2766
L48.5146 -21.0035
L48.6084 -20.7334
L48.7017 -20.4665
L48.7945 -20.2026
L48.8865 -19.9417
L48.9779 -19.6839
L49.0686 -19.429
L49.1586 -19.1771
L49.2478 -18.9281
L49.3362 -18.682
L49.4238 -18.4387
L49.5105 -18.1983
L49.5965 -17.9606
L49.6815 -17.7256
L49.7657 -17.4933
L49.8491 -17.2637
L49.9316 -17.0366
L50.0132 -16.812
L50.0939 -16.59
L50.1738 -16.3704
L50.2529 -16.1532
L50.331 -15.9384
L50.4084 -15.7259
L50.4848 -15.5156
L50.5605 -15.3076
L50.6353 -15.1017
L50.7093 -14.8979
L50.7825 -14.6962
L50.8549 -14.4966
L50.9266 -14.2989
L50.9974 -14.1031
L51.0675 -13.9093
L51.1369 -13.7172
L51.2055 -13.527
L51.2734 -13.3386
L51.3406 -13.1519
L51.4071 -12.9668
L51.4729 -12.7834
L51.5381 -12.6016
L51.6026 -12.4213
L52.1025 -12.2426
L52.5104 -12.4849
L52.9133 -12.7695
L53.3111 -13.0612
L53.7036 -13.3599
L54.0907 -13.6654
L54.4723 -13.9778
L54.8482 -14.2969
L55.2184 -14.6226
L55.5828 -14.9548
L55.9412 -15.2934
L56.2935 -15.6383
L56.6397 -15.9894
L56.9795 -16.3467
L57.313 -16.7099
L57.64 -17.0789
L57.9603 -17.4538
L58.274 -17.8343
L58.5809 -18.2203
L58.881 -18.6118
L59.174 -19.0085
L59.46 -19.4104
L59.7389 -19.8174
L60.0105 -20.2293
L60.2748 -20.646
L60.5317 -21.0674
L60.7812 -21.4933
L61.0231 -21.9236
L61.2573 -22.3583
L61.4839 -22.7971
L61.7027 -23.2399
L61.9137 -23.6866
L62.1168 -24.137
L62.3119 -24.5911
L62.499 -25.0486
L62.6781 -25.5095
L62.849 -25.9736
L63.0118 -26.4407
L63.1663 -26.9107
L63.3125 -27.3835
L63.4504 -27.859
L63.58 -28.3369
L63.7012 -28.8171
L63.8139 -29.2995
L63.9181 -29.784
L64.0139 -30.2704
L64.1011 -30.7585
L64.1797 -31.2482
L64.2498 -31.7394
L64.3113 -32.2318
L64.3641 -32.7254
L64.4083 -33.22
L64.4438 -33.7154
L64.4707 -34.2116
L64.4889 -34.7083
L64.4984 -35.2054
L64.4993 -35.7027
L64.4915 -36.2001
L64.475 -36.6974
L64.4498 -37.1946
L64.4159 -37.6913
L64.3734 -38.1876
L64.3223 -38.6832
L64.2625 -39.178
L64.1941 -39.6718
L64.1171 -40.1645
L64.0316 -40.6559
L63.9375 -41.1459
L63.8349 -41.6343
L63.7239 -42.1211
L63.6043 -42.6059
L63.4764 -43.0887
L63.3401 -43.5694
L63.1955 -44.0478
L63.0426 -44.5237
L62.8815 -44.9971
L62.7121 -45.4676
L62.5347 -45.9354
L62.3491 -46.4
L62.1556 -46.8615
L61.954 -47.3197
L61.7446 -47.7745
L61.5273 -48.2257
L61.3022 -48.6731
L61.0695 -49.1167
L60.829 -49.5563
L60.5811 -49.9917
L60.3256 -50.4229
L60.0627 -50.8497
L59.7925 -51.272
L59.5151 -51.6896
L59.2305 -52.1025
z
" id="C0_2_0a524574a6"/>
    </defs>
    <g clip-path="url(#p1bffca34e9)">
     <use style="fill:#ffffff;stroke:#000000;stroke-width:2.0;" x="0.0" xlink:href="#C0_0_a811fe30f3" y="72.0"/>
    </g>
    <g clip-path="url(#p1bffca34e9)">
     <use style="fill:#ff0000;stroke:#000000;stroke-width:2.0;" x="0.0" xlink:href="#C0_1_f5e4e31aad" y="72.0"/>
    </g>
    <g clip-path="url(#p1bffca34e9)">
     <use style="fill:#ff0000;stroke:#000000;stroke-width:2.0;" x="0.0" xlink:href="#C0_2_0a524574a6" y="72.0"/>
    </g>
   </g>
  </g>
 </g>
 <defs>
  <clipPath id="p1bffca34e9">
   <rect height="72.0" width="72.0" x="0.0" y="0.0"/>
  </clipPath>
 </defs>
</svg>
