<?xml version="1.0" encoding="utf-8" standalone="no"?>
<!DOCTYPE svg PUBLIC "-//W3C//DTD SVG 1.1//EN"
  "http://www.w3.org/Graphics/SVG/1.1/DTD/svg11.dtd">
<!-- Created with matplotlib (http://matplotlib.org/) -->
<svg height="72pt" version="1.1" viewBox="0 0 72 72" width="72pt" xmlns="http://www.w3.org/2000/svg" xmlns:xlink="http://www.w3.org/1999/xlink">
 <defs>
  <style type="text/css">
*{stroke-linecap:butt;stroke-linejoin:round;}
  </style>
 </defs>
 <g id="figure_1">
  <g id="patch_1">
   <path d="
M0 72
L72 72
L72 0
L0 0
z
" style="fill:none;"/>
  </g>
  <g id="axes_1">
   <g id="PatchCollection_1">
    <defs>
     <path d="
M36 -7.5
C43.5583 -7.5 50.808 -10.5029 56.1525 -15.8475
C61.4971 -21.192 64.5 -28.4417 64.5 -36
C64.5 -43.5583 61.4971 -50.808 56.1525 -56.1525
C50.808 -61.4971 43.5583 -64.5 36 -64.5
C28.4417 -64.5 21.192 -61.4971 15.8475 -56.1525
C10.5029 -50.808 7.5 -43.5583 7.5 -36
C7.5 -28.4417 10.5029 -21.192 15.8475 -15.8475
C21.192 -10.5029 28.4417 -7.5 36 -7.5
z
" id="C0_0_a811fe30f3"/>
     <path d="
M19.8029 -12.6691
L19.8331 -12.881
L19.8644 -13.0925
L19.8968 -13.3038
L19.9302 -13.5148
L19.9648 -13.7256
L20.0004 -13.9361
L20.037 -14.1465
L20.0746 -14.3566
L20.1133 -14.5667
L20.153 -14.7766
L20.1936 -14.9865
L20.2352 -15.1963
L20.2779 -15.4061
L20.3214 -15.6159
L20.366 -15.8257
L20.4115 -16.0357
L20.4579 -16.2457
L20.5054 -16.456
L20.5537 -16.6664
L20.603 -16.877
L20.6533 -17.088
L20.7044 -17.2992
L20.7566 -17.5108
L20.8097 -17.7228
L20.8637 -17.9352
L20.9747 -18.1481
L21.0317 -18.3615
L21.0896 -18.5755
L21.1485 -18.79
L21.2084 -19.0053
L21.2693 -19.2212
L21.3312 -19.4378
L21.3941 -19.6553
L21.4581 -19.8736
L21.5231 -20.0927
L21.5892 -20.3128
L21.6563 -20.5339
L21.7246 -20.756
L21.7939 -20.9791
L21.8643 -21.2034
L21.9359 -21.4288
L22.0086 -21.6555
L22.0825 -21.8834
L22.1576 -22.1127
L22.2339 -22.3433
L22.3114 -22.5754
L22.3901 -22.8089
L22.4701 -23.044
L22.5514 -23.2806
L22.6339 -23.5188
L22.7178 -23.7588
L22.803 -24.0005
L22.8895 -24.2439
L22.9775 -24.4892
L23.0668 -24.7364
L23.1575 -24.9856
L23.2497 -25.2367
L23.3433 -25.4899
L23.4383 -25.7451
L23.5349 -26.0025
L23.6329 -26.2621
L23.7325 -26.5239
L23.8336 -26.7881
L23.9362 -27.0545
L24.0403 -27.3233
L24.146 -27.5946
L24.2533 -27.8683
L24.3621 -28.1444
L24.4725 -28.4232
L24.5844 -28.7044
L24.6978 -28.9883
L24.8128 -29.2748
L24.9293 -29.564
L25.0473 -29.8558
L25.1668 -30.1503
L25.2877 -30.4476
L25.4099 -30.7475
L25.5335 -31.0501
L25.6584 -31.3555
L25.7845 -31.6636
L25.9117 -31.9744
L26.04 -32.2879
L26.1692 -32.604
L26.2992 -32.9227
L26.4299 -33.2441
L26.5611 -33.5679
L26.6927 -33.8943
L26.8245 -34.2231
L26.9563 -34.5542
L27.0879 -34.8876
L27.2189 -35.2232
L27.3492 -35.5609
L27.4784 -35.9005
L27.6062 -36.242
L27.7322 -36.5851
L27.8561 -36.9298
L27.9774 -37.2759
L28.0956 -37.6233
L28.2102 -37.9717
L28.3207 -38.3209
L28.4266 -38.6709
L28.5272 -39.0212
L28.6219 -39.3718
L28.71 -39.7223
L28.7908 -40.0726
L28.8636 -40.4224
L28.9278 -40.7713
L28.9825 -41.1193
L29.0271 -41.4659
L29.061 -41.8109
L29.0835 -42.1541
L29.0939 -42.4951
L29.0919 -42.8337
L29.0769 -43.1696
L29.0487 -43.5026
L29.007 -43.8325
L28.9517 -44.159
L28.8829 -44.4818
L28.8005 -44.8008
L28.7049 -45.1159
L28.5963 -45.4268
L28.4753 -45.7334
L28.3422 -46.0355
L28.1977 -46.3331
L28.0423 -46.626
L27.8767 -46.9141
L27.7015 -47.1974
L27.5175 -47.4758
L27.3253 -47.7492
L27.1257 -48.0176
L26.9192 -48.2809
L26.7065 -48.5392
L26.4882 -48.7923
L26.2649 -49.0403
L26.0372 -49.2832
L25.8055 -49.5209
L25.5705 -49.7535
L25.3324 -49.9809
L25.0919 -50.2033
L24.8492 -50.4205
L24.6047 -50.6326
L24.3588 -50.8398
L24.1118 -51.0418
L23.8639 -51.239
L23.6155 -51.4311
L23.3668 -51.6184
L23.1179 -51.8009
L22.8691 -51.9785
L22.6206 -52.1514
L22.3725 -52.3196
L22.125 -52.4832
L21.8781 -52.6421
L21.6321 -52.7966
L21.3869 -52.9466
L21.1428 -53.0923
L20.8997 -53.2336
L20.6578 -53.3706
L20.417 -53.5034
L20.1775 -53.6321
L19.9393 -53.7568
L19.7024 -53.8774
L19.4669 -53.994
L19.2326 -54.1068
L18.9998 -54.2157
L18.7683 -54.3209
L18.5382 -54.4224
L18.3095 -54.5202
L18.0821 -54.6144
L17.8561 -54.705
L17.6314 -54.7922
L17.4081 -54.876
L17.186 -54.9563
L16.9652 -55.0333
L16.7457 -55.107
L16.5273 -55.1774
L16.3102 -55.2446
L16.0942 -55.3086
L15.8793 -55.3695
L15.6655 -55.4272
L15.4528 -55.4819
L15.0048 -55.5335
L14.6716 -55.2731
L14.3449 -54.9037
L14.0249 -54.5286
L13.7115 -54.1478
L13.4049 -53.7616
L13.1052 -53.3699
L12.8125 -52.9729
L12.5268 -52.5707
L12.2483 -52.1635
L11.977 -51.7514
L11.713 -51.3345
L11.4565 -50.9129
L11.2074 -50.4867
L10.9659 -50.0562
L10.7319 -49.6214
L10.5057 -49.1824
L10.2873 -48.7394
L10.0767 -48.2925
L9.87393 -47.8419
L9.67917 -47.3877
L9.49243 -46.93
L9.31376 -46.4689
L9.14321 -46.0047
L8.98085 -45.5375
L8.82672 -45.0673
L8.68087 -44.5944
L8.54334 -44.1188
L8.41417 -43.6408
L8.2934 -43.1604
L8.18108 -42.6779
L8.07722 -42.1933
L7.98188 -41.7069
L7.89507 -41.2187
L7.81682 -40.7289
L7.74715 -40.2377
L7.68609 -39.7452
L7.63366 -39.2515
L7.58986 -38.7569
L7.55472 -38.2614
L7.52825 -37.7653
L7.51044 -37.2685
L7.50132 -36.7715
L7.50087 -36.2741
L7.50911 -35.7767
L7.52603 -35.2794
L7.55162 -34.7822
L7.58587 -34.2855
L7.62878 -33.7893
L7.68034 -33.2937
L7.74051 -32.799
L7.8093 -32.3052
L7.88668 -31.8126
L7.97261 -31.3212
L8.06709 -30.8313
L8.17007 -30.3429
L8.28153 -29.8563
L8.40144 -29.3715
L8.52975 -28.8888
L8.66643 -28.4082
L8.81143 -27.9299
L8.96472 -27.4541
L9.12624 -26.9809
L9.29595 -26.5105
L9.47379 -26.0429
L9.65972 -25.5784
L9.85366 -25.117
L10.0556 -24.659
L10.2654 -24.2044
L10.483 -23.7534
L10.7085 -23.3061
L10.9416 -22.8627
L11.1824 -22.4233
L11.4307 -21.9881
L11.6865 -21.5571
L11.9497 -21.1305
L12.2202 -20.7084
L12.498 -20.291
L12.783 -19.8784
L13.075 -19.4707
L13.374 -19.068
L13.6799 -18.6705
L13.9925 -18.2782
L14.3119 -17.8914
L14.6379 -17.5101
L14.9704 -17.1344
L15.3093 -16.7644
L15.6546 -16.4003
L16.006 -16.0422
L16.3635 -15.6902
L16.7269 -15.3443
L17.0963 -15.0048
L17.4714 -14.6716
L17.8522 -14.3449
L18.2384 -14.0249
L18.6301 -13.7115
L19.0271 -13.4049
z
" id="C0_1_5e0d0e6279"/>
     <path d="
M56.7043 -16.4695
L56.6439 -16.6775
L56.5821 -16.8849
L56.519 -17.0916
L56.4547 -17.2979
L56.3892 -17.5036
L56.3225 -17.7089
L56.2546 -17.9137
L56.1854 -18.1181
L56.1151 -18.3221
L56.0437 -18.5257
L55.971 -18.7291
L55.8973 -18.9322
L55.8224 -19.135
L55.7463 -19.3377
L55.6691 -19.5402
L55.5908 -19.7426
L55.5113 -19.9449
L55.4306 -20.1471
L55.3489 -20.3494
L55.266 -20.5517
L55.1819 -20.7541
L55.0967 -20.9567
L55.0103 -21.1593
L54.9227 -21.3622
L54.834 -21.5654
L54.744 -21.7689
L54.6528 -21.9726
L54.5605 -22.1768
L54.4668 -22.3814
L54.372 -22.5865
L54.2758 -22.7921
L54.1784 -22.9982
L54.0797 -23.205
L53.9797 -23.4124
L53.8783 -23.6204
L53.7755 -23.8293
L53.6714 -24.0389
L53.5658 -24.2494
L53.4589 -24.4607
L53.3504 -24.6729
L53.2405 -24.8862
L53.1291 -25.1004
L53.0162 -25.3157
L52.9017 -25.5322
L52.7856 -25.7498
L52.6679 -25.9686
L52.5486 -26.1886
L52.4276 -26.41
L52.3049 -26.6327
L52.1805 -26.8568
L52.0543 -27.0824
L51.9263 -27.3094
L51.7965 -27.538
L51.6649 -27.7682
L51.5314 -28
L51.396 -28.2335
L51.2586 -28.4687
L51.1193 -28.7057
L50.978 -28.9444
L50.8347 -29.1851
L50.6894 -29.4276
L50.542 -29.6721
L50.3925 -29.9186
L50.2409 -30.1671
L50.0872 -30.4176
L49.9314 -30.6702
L49.7734 -30.925
L49.6133 -31.1819
L49.451 -31.441
L49.2866 -31.7023
L49.12 -31.9658
L48.9513 -32.2317
L48.7804 -32.4998
L48.6075 -32.7702
L48.4325 -33.0429
L48.2554 -33.318
L48.0763 -33.5954
L47.8953 -33.8752
L47.7125 -34.1573
L47.5278 -34.4417
L47.3414 -34.7285
L47.1534 -35.0176
L46.964 -35.309
L46.7732 -35.6027
L46.5812 -35.8986
L46.3881 -36.1968
L46.1942 -36.4972
L45.9997 -36.7997
L45.8048 -37.1043
L45.6098 -37.411
L45.4149 -37.7197
L45.2205 -38.0303
L45.0269 -38.3428
L44.8346 -38.6571
L44.6439 -38.9731
L44.4552 -39.2908
L44.2691 -39.6101
L44.0861 -39.9308
L43.9068 -40.2529
L43.7317 -40.5763
L43.5615 -40.9009
L43.3968 -41.2266
L43.2384 -41.5532
L43.087 -41.8808
L42.9433 -42.2092
L42.8081 -42.5382
L42.6821 -42.8678
L42.5661 -43.1978
L42.4607 -43.5281
L42.3668 -43.8585
L42.2847 -44.189
L42.2152 -44.5194
L42.1587 -44.8496
L42.1156 -45.1793
L42.0861 -45.5084
L42.0704 -45.8367
L42.0685 -46.1641
L42.0804 -46.4903
L42.1059 -46.8151
L42.1446 -47.1384
L42.1963 -47.4599
L42.2605 -47.7794
L42.3366 -48.0968
L42.4241 -48.4117
L42.5223 -48.724
L42.6307 -49.0335
L42.7486 -49.34
L42.8752 -49.6433
L43.0101 -49.9433
L43.1525 -50.2398
L43.3018 -50.5326
L43.4575 -50.8216
L43.6189 -51.1066
L43.7856 -51.3876
L43.957 -51.6645
L44.1327 -51.9371
L44.3121 -52.2054
L44.495 -52.4693
L44.6809 -52.7287
L44.8694 -52.9836
L45.0602 -53.234
L45.253 -53.4799
L45.4475 -53.7211
L45.6436 -53.9578
L45.8408 -54.1898
L46.039 -54.4173
L46.2381 -54.6401
L46.4378 -54.8584
L46.6379 -55.0722
L46.8384 -55.2814
L47.0391 -55.4861
L47.2398 -55.6864
L47.4405 -55.8823
L47.6411 -56.0737
L47.8415 -56.2609
L48.0415 -56.4438
L48.2412 -56.6224
L48.4405 -56.7969
L48.6394 -56.9673
L48.8377 -57.1336
L49.0355 -57.2958
L49.2327 -57.4541
L49.4294 -57.6085
L49.6255 -57.7591
L49.8209 -57.9058
L50.0157 -58.0488
L50.21 -58.1881
L50.4036 -58.3238
L50.5966 -58.4559
L50.7889 -58.5845
L50.9808 -58.7096
L51.172 -58.8313
L51.3627 -58.9495
L51.5528 -59.0645
L51.7425 -59.1761
L51.9316 -59.2845
L52.5804 -59.3896
L52.9824 -59.1806
L53.3793 -58.8877
L53.7708 -58.5878
L54.157 -58.2811
L54.5376 -57.9676
L54.9126 -57.6473
L55.2818 -57.3205
L55.6451 -56.9872
L56.0025 -56.6475
L56.3538 -56.3015
L56.6988 -55.9493
L57.0376 -55.591
L57.3699 -55.2268
L57.6958 -54.8567
L58.015 -54.4809
L58.3275 -54.0994
L58.6333 -53.7125
L58.9321 -53.3201
L59.2239 -52.9224
L59.5087 -52.5197
L59.7863 -52.1118
L60.0567 -51.6991
L60.3197 -51.2816
L60.5753 -50.8594
L60.8235 -50.4327
L61.0641 -50.0016
L61.297 -49.5662
L61.5223 -49.1267
L61.7397 -48.6832
L61.9493 -48.2359
L62.1511 -47.7848
L62.3448 -47.3301
L62.5305 -46.872
L62.7082 -46.4106
L62.8777 -45.946
L63.039 -45.4783
L63.1921 -45.0078
L63.3369 -44.5345
L63.4734 -44.0587
L63.6015 -43.5803
L63.7212 -43.0997
L63.8325 -42.6169
L63.9353 -42.1321
L64.0295 -41.6454
L64.1153 -41.157
L64.1924 -40.6671
L64.261 -40.1757
L64.321 -39.683
L64.3723 -39.1892
L64.415 -38.6945
L64.4491 -38.1989
L64.4745 -37.7026
L64.4912 -37.2059
L64.4992 -36.7088
L64.4986 -36.2114
L64.4892 -35.714
L64.4712 -35.2167
L64.4445 -34.7196
L64.4092 -34.2229
L64.3652 -33.7267
L64.3126 -33.2313
L64.2513 -32.7366
L64.1814 -32.243
L64.103 -31.7505
L64.0159 -31.2594
L63.9204 -30.7696
L63.8163 -30.2815
L63.7038 -29.7951
L63.5828 -29.3105
L63.4535 -28.8281
L63.3157 -28.3478
L63.1697 -27.8698
L63.0154 -27.3943
L62.8528 -26.9214
L62.6821 -26.4513
L62.5032 -25.9842
L62.3163 -25.52
L62.1213 -25.0591
L61.9184 -24.6015
L61.7076 -24.1473
L61.489 -23.6968
L61.2626 -23.25
L61.0285 -22.8071
L60.7867 -22.3682
L60.5375 -21.9335
L60.2807 -21.503
L60.0166 -21.077
L59.7451 -20.6555
L59.4664 -20.2387
L59.1806 -19.8267
L58.8877 -19.4196
L58.5878 -19.0176
L58.2811 -18.6207
L57.9676 -18.2292
L57.6473 -17.843
L57.3205 -17.4624
z
" id="C0_2_f0eeb1ea13"/>
    </defs>
    <g clip-path="url(#p1bffca34e9)">
     <use style="fill:#ffffff;stroke:#000000;stroke-width:2.0;" x="0.0" xlink:href="#C0_0_a811fe30f3" y="72.0"/>
    </g>
    <g clip-path="url(#p1bffca34e9)">
     <use style="fill:#ff0000;stroke:#000000;stroke-width:2.0;" x="0.0" xlink:href="#C0_1_5e0d0e6279" y="72.0"/>
    </g>
    <g clip-path="url(#p1bffca34e9)">
     <use style="fill:#ff0000;stroke:#000000;stroke-width:2.0;" x="0.0" xlink:href="#C0_2_f0eeb1ea13" y="72.0"/>
    </g>
   </g>
  </g>
 </g>
 <defs>
  <clipPath id="p1bffca34e9">
   <rect height="72.0" width="72.0" x="0.0" y="0.0"/>
  </clipPath>
 </defs>
</svg>
