<?xml version="1.0" encoding="utf-8" standalone="no"?>
<!DOCTYPE svg PUBLIC "-//W3C//DTD SVG 1.1//EN"
  "http://www.w3.org/Graphics/SVG/1.1/DTD/svg11.dtd">
<!-- Created with matplotlib (http://matplotlib.org/) -->
<svg height="72pt" version="1.1" viewBox="0 0 72 72" width="72pt" xmlns="http://www.w3.org/2000/svg" xmlns:xlink="http://www.w3.org/1999/xlink">
 <defs>
  <style type="text/css">
*{stroke-linecap:butt;stroke-linejoin:round;}
  </style>
 </defs>
 <g id="figure_1">
  <g id="patch_1">
   <path d="
M0 72
L72 72
L72 0
L0 0
z
" style="fill:none;"/>
  </g>
  <g id="axes_1">
   <g id="PatchCollection_1">
    <defs>
     <path d="
M36 -7.5
C43.5583 -7.5 50.808 -10.5029 56.1525 -15.8475
C61.4971 -21.192 64.5 -28.4417 64.5 -36
C64.5 -43.5583 61.4971 -50.808 56.1525 -56.1525
C50.808 -61.4971 43.5583 -64.5 36 -64.5
C28.4417 -64.5 21.192 -61.4971 15.8475 -56.1525
C10.5029 -50.808 7.5 -43.5583 7.5 -36
C7.5 -28.4417 10.5029 -21.192 15.8475 -15.8475
C21.192 -10.5029 28.4417 -7.5 36 -7.5
z
" id="C0_0_a811fe30f3"/>
     <path d="
M64.3913 -36.5904
L64.1969 -36.8988
L63.9935 -37.1852
L63.7815 -37.4488
L63.5614 -37.6893
L63.3339 -37.9063
L63.0994 -38.0998
L62.8584 -38.27
L62.6114 -38.4171
L62.3589 -38.5418
L62.1013 -38.6448
L61.8391 -38.7268
L61.5726 -38.789
L61.3022 -38.8323
L61.0283 -38.858
L60.7511 -38.8673
L60.4709 -38.8614
L60.1881 -38.8414
L59.9028 -38.8085
L59.6154 -38.764
L59.326 -38.7088
L59.0349 -38.644
L58.7422 -38.5706
L58.4483 -38.4895
L58.1532 -38.4015
L57.8572 -38.3074
L57.5603 -38.208
L57.2629 -38.1037
L56.9651 -37.9954
L56.667 -37.8835
L56.3687 -37.7685
L56.0704 -37.6508
L55.7723 -37.5309
L55.4744 -37.4092
L55.1768 -37.2859
L54.8798 -37.1614
L54.5834 -37.036
L54.2876 -36.9098
L53.9927 -36.7831
L53.6986 -36.6562
L53.4054 -36.5291
L53.1133 -36.402
L52.8222 -36.2751
L52.5323 -36.1485
L52.2435 -36.0223
L51.956 -35.8966
L51.6697 -35.7715
L51.3848 -35.6471
L51.1011 -35.5233
L50.8189 -35.4004
L50.538 -35.2782
L50.2585 -35.157
L49.9804 -35.0366
L49.7037 -34.9171
L49.4284 -34.7986
L49.1545 -34.6811
L48.882 -34.5645
L48.6109 -34.449
L48.3412 -34.3344
L48.0728 -34.2208
L47.8058 -34.1082
L47.5401 -33.9966
L47.2758 -33.886
L47.0127 -33.7764
L46.7508 -33.6678
L46.4902 -33.5601
L46.2308 -33.4534
L45.9726 -33.3476
L45.7154 -33.2427
L45.4594 -33.1387
L45.2044 -33.0357
L44.9505 -32.9335
L44.6975 -32.8321
L44.4455 -32.7316
L44.1944 -32.6319
L43.9442 -32.5331
L43.6947 -32.435
L43.4461 -32.3376
L43.1982 -32.241
L42.9509 -32.1452
L42.7044 -32.05
L42.4584 -31.9555
L42.213 -31.8617
L41.968 -31.7685
L41.7236 -31.676
L41.4795 -31.584
L41.2359 -31.4927
L40.9925 -31.4019
L40.7494 -31.3116
L40.5066 -31.2219
L40.2639 -31.1326
L40.0213 -31.0439
L39.7789 -30.9556
L39.5364 -30.8678
L39.2939 -30.7804
L38.8087 -30.6934
L38.5659 -30.6068
L38.3229 -30.5206
L38.0796 -30.4348
L37.8359 -30.3492
L37.5919 -30.264
L37.3475 -30.1792
L37.1026 -30.0946
L36.8572 -30.0102
L36.6112 -29.9262
L36.3646 -29.8423
L36.1174 -29.7587
L35.8694 -29.6753
L35.6206 -29.5921
L35.3711 -29.5091
L35.1206 -29.4263
L34.8693 -29.3436
L34.6169 -29.261
L34.3636 -29.1786
L34.1092 -29.0962
L33.8537 -29.014
L33.597 -28.9319
L33.3391 -28.8498
L33.08 -28.7678
L32.8196 -28.6858
L32.5578 -28.6038
L32.2946 -28.5219
L32.0301 -28.44
L31.764 -28.3581
L31.4964 -28.2762
L31.2273 -28.1942
L30.9567 -28.1122
L30.6843 -28.0302
L30.4104 -27.9481
L30.1347 -27.8659
L29.8574 -27.7837
L29.5783 -27.7014
L29.2974 -27.619
L29.0148 -27.5364
L28.7304 -27.4538
L28.4441 -27.371
L28.1561 -27.2881
L27.8662 -27.205
L27.5745 -27.1217
L27.281 -27.0383
L26.9857 -26.9546
L26.6887 -26.8707
L26.3898 -26.7866
L26.0893 -26.7023
L25.7871 -26.6176
L25.4833 -26.5327
L25.1778 -26.4474
L24.8709 -26.3618
L24.5626 -26.2757
L24.253 -26.1892
L23.9421 -26.1023
L23.6302 -26.0148
L23.3172 -25.9267
L23.0035 -25.8379
L22.6891 -25.7484
L22.3743 -25.6581
L22.0592 -25.5669
L21.744 -25.4747
L21.4291 -25.3813
L21.1147 -25.2867
L20.801 -25.1906
L20.4885 -25.093
L20.1775 -24.9935
L19.8683 -24.892
L19.5614 -24.7882
L19.2572 -24.6819
L18.9563 -24.5727
L18.6591 -24.4603
L18.3664 -24.3443
L18.0786 -24.2243
L17.7965 -24.0999
L17.5207 -23.9705
L17.2521 -23.8355
L16.9914 -23.6945
L16.7396 -23.5468
L16.4974 -23.3917
L16.2659 -23.2285
L16.0459 -23.0566
L15.8385 -22.8751
L15.6446 -22.6835
L15.4651 -22.481
L15.3011 -22.2669
L15.1534 -22.0408
L15.0229 -21.8021
L14.9102 -21.5504
L14.8162 -21.2855
L14.7412 -21.0072
L14.6859 -20.7157
L14.6504 -20.411
L14.6351 -20.0936
L14.6399 -19.764
L14.6649 -19.4228
L14.7099 -19.0708
L14.7748 -18.7088
L14.8591 -18.3379
L14.9625 -17.959
L15.0846 -17.5731
L15.2249 -17.1814
L15.3829 -16.785
L15.698 -16.3848
L16.0502 -15.998
L16.4084 -15.6467
L16.7727 -15.3017
L17.1427 -14.9629
L17.5186 -14.6305
L17.9 -14.3047
L18.287 -13.9855
L18.6793 -13.6729
L19.077 -13.3672
L19.4798 -13.0683
L19.8876 -12.7765
L20.3003 -12.4917
L20.7178 -12.2141
L21.14 -11.9437
L21.5667 -11.6807
L21.9978 -11.425
L22.4331 -11.1769
L22.8726 -10.9363
L23.3161 -10.7033
L23.7635 -10.4781
L24.2145 -10.2606
L24.6692 -10.051
L25.1273 -9.84923
L25.5888 -9.65546
L26.0534 -9.46972
L26.521 -9.29206
L26.9915 -9.12253
L27.4648 -8.96119
L27.9406 -8.80809
L28.419 -8.66327
L28.8996 -8.52678
L29.3824 -8.39866
L29.8672 -8.27894
L30.3539 -8.16767
L30.8423 -8.06488
L31.3322 -7.97059
L31.8236 -7.88485
L32.3163 -7.80767
L32.81 -7.73907
L33.3048 -7.67909
L33.8004 -7.62773
L34.2966 -7.58501
L34.7934 -7.55095
L35.2905 -7.52555
L35.7879 -7.50883
L36.2853 -7.50079
L36.7826 -7.50143
L37.2797 -7.51075
L37.7764 -7.52874
L38.2725 -7.55541
L38.768 -7.59075
L39.2626 -7.63474
L39.7563 -7.68737
L40.2487 -7.74862
L40.7399 -7.81848
L41.2297 -7.89692
L41.7178 -7.98392
L42.2042 -8.07946
L42.6887 -8.1835
L43.1712 -8.29602
L43.6515 -8.41697
L44.1295 -8.54633
L44.605 -8.68405
L45.0779 -8.83009
L45.548 -8.9844
L46.0152 -9.14695
L46.4793 -9.31767
L46.9403 -9.49652
L47.3979 -9.68345
L47.852 -9.87839
L48.3026 -10.0813
L48.7494 -10.2921
L49.1923 -10.5107
L49.6312 -10.7371
L50.0659 -10.9712
L50.4963 -11.2129
L50.9224 -11.4622
L51.3439 -11.7189
L51.7607 -11.983
L52.1727 -12.2545
L52.5798 -12.5331
L52.9818 -12.819
L53.3787 -13.1119
L53.7703 -13.4117
L54.1564 -13.7185
L54.5371 -14.032
L54.912 -14.3522
L55.2813 -14.679
L55.6446 -15.0123
L56.002 -15.352
L56.3533 -15.698
L56.6983 -16.0502
L57.0371 -16.4084
L57.3695 -16.7727
L57.6953 -17.1427
L58.0145 -17.5186
L58.3271 -17.9
L58.6328 -18.287
L58.9317 -18.6793
L59.2235 -19.077
L59.5083 -19.4798
L59.7859 -19.8876
L60.0563 -20.3003
L60.3193 -20.7178
L60.575 -21.14
L60.8231 -21.5667
L61.0637 -21.9978
L61.2967 -22.4331
L61.5219 -22.8726
L61.7394 -23.3161
L61.949 -23.7635
L62.1508 -24.2145
L62.3445 -24.6692
L62.5303 -25.1273
L62.7079 -25.5888
L62.8775 -26.0534
L63.0388 -26.521
L63.1919 -26.9915
L63.3367 -27.4648
L63.4732 -27.9406
L63.6013 -28.419
L63.7211 -28.8996
L63.8323 -29.3824
L63.9351 -29.8672
L64.0294 -30.3539
L64.1152 -30.8423
L64.1923 -31.3322
L64.2609 -31.8236
L64.3209 -32.3163
L64.3723 -32.81
L64.415 -33.3048
L64.4491 -33.8004
L64.4744 -34.2966
L64.4912 -34.7934
L64.4992 -35.2905
z
" id="C0_1_59d68fccd6"/>
     <path d="
M56.2829 -55.8623
L55.8821 -56.0513
L55.4769 -56.24
L55.0678 -56.4276
L54.6553 -56.6133
L54.2398 -56.7965
L53.8218 -56.9766
L53.4018 -57.153
L52.98 -57.3253
L52.5569 -57.4931
L52.1328 -57.656
L51.7082 -57.8138
L51.2833 -57.9662
L50.8584 -58.1131
L50.4339 -58.2543
L50.01 -58.3897
L49.587 -58.5192
L49.1651 -58.6427
L48.7445 -58.7602
L48.3254 -58.8718
L47.9081 -58.9774
L47.4926 -59.0771
L47.0792 -59.1709
L46.6679 -59.2588
L46.2589 -59.341
L45.8523 -59.4175
L45.4483 -59.4884
L45.0468 -59.5539
L44.6479 -59.6139
L44.2518 -59.6686
L43.8585 -59.7181
L43.468 -59.7625
L43.0803 -59.8019
L42.6956 -59.8365
L42.3137 -59.8663
L41.9347 -59.8914
L41.5587 -59.9119
L41.1855 -59.928
L40.8153 -59.9398
L40.4479 -59.9473
L40.0834 -59.9506
L39.7218 -59.9499
L39.363 -59.9452
L39.007 -59.9366
L38.6537 -59.9243
L38.3032 -59.9082
L37.9553 -59.8885
L37.6101 -59.8652
L37.2675 -59.8385
L36.9274 -59.8083
L36.5898 -59.7748
L36.2547 -59.738
L35.922 -59.6979
L35.5916 -59.6547
L35.2635 -59.6084
L34.9377 -59.559
L34.6141 -59.5066
L34.2925 -59.4512
L33.9731 -59.3929
L33.6557 -59.3316
L33.3402 -59.2675
L33.0267 -59.2005
L32.715 -59.1308
L32.4051 -59.0582
L32.097 -58.9828
L31.7905 -58.9047
L31.4857 -58.8238
L31.1824 -58.7403
L30.8806 -58.654
L30.5804 -58.5649
L30.2815 -58.4732
L29.984 -58.3788
L29.6878 -58.2816
L29.3928 -58.1817
L29.0991 -58.0791
L28.8065 -57.9738
L28.515 -57.8657
L28.2246 -57.7548
L27.9352 -57.6412
L27.6467 -57.5248
L27.3592 -57.4055
L27.0725 -57.2834
L26.7867 -57.1584
L26.5016 -57.0305
L26.2173 -56.8997
L25.9338 -56.7659
L25.6509 -56.6291
L25.3686 -56.4892
L25.0869 -56.3462
L24.8058 -56.2001
L24.5253 -56.0508
L24.2452 -55.8983
L23.9656 -55.7425
L23.6865 -55.5834
L23.4078 -55.4208
L23.1295 -55.2548
L22.8516 -55.0853
L22.5741 -54.9122
L22.2969 -54.7355
L22.02 -54.555
L21.7435 -54.3708
L21.4673 -54.1827
L21.1914 -53.9907
L20.9158 -53.7948
L20.6405 -53.5947
L20.3656 -53.3905
L20.0909 -53.1821
L19.8166 -52.9694
L19.5427 -52.7523
L19.2691 -52.5307
L18.9959 -52.3046
L18.7231 -52.0739
L18.4508 -51.8384
L18.179 -51.5982
L17.9076 -51.3531
L17.6369 -51.1031
L17.3667 -50.848
L17.0973 -50.5879
L16.8285 -50.3225
L16.5606 -50.0519
L16.2935 -49.776
L16.0274 -49.4948
L15.7623 -49.2081
L15.4983 -48.9159
L15.2356 -48.6182
L14.9741 -48.3149
L14.714 -48.006
L14.4555 -47.6916
L14.1985 -47.3715
L13.9434 -47.0458
L13.6901 -46.7144
L13.4388 -46.3776
L13.1896 -46.0352
L12.9426 -45.6873
L12.6981 -45.3342
L12.4561 -44.9757
L12.2167 -44.6122
L11.9802 -44.2437
L11.7465 -43.8705
L11.5159 -43.4927
L11.2884 -43.1107
L11.0642 -42.7247
L10.8434 -42.3351
L10.626 -41.9423
L10.4121 -41.5466
L10.2017 -41.1486
L9.9949 -40.7488
L9.79167 -40.3478
L9.59195 -39.9463
L9.3957 -39.5448
L9.20279 -39.1444
L9.01309 -38.7456
L8.8264 -38.3496
L8.64249 -37.9572
L8.46108 -37.5695
L8.28185 -37.1876
L8.10442 -36.8125
L7.92838 -36.4456
L7.75328 -36.0879
L7.50099 -35.7408
L7.50948 -36.2375
L7.52664 -36.7348
L7.55248 -37.232
L7.58698 -37.7287
L7.63014 -38.2249
L7.68194 -38.7204
L7.74236 -39.2152
L7.81139 -39.7089
L7.88901 -40.2015
L7.9752 -40.6928
L8.06991 -41.1827
L8.17314 -41.671
L8.28484 -42.1576
L8.40499 -42.6423
L8.53354 -43.125
L8.67046 -43.6055
L8.8157 -44.0837
L8.96922 -44.5594
L9.13098 -45.0326
L9.30092 -45.5029
L9.47899 -45.9704
L9.66515 -46.4349
L9.85932 -46.8961
L10.0615 -47.3541
L10.2715 -47.8086
L10.4894 -48.2595
L10.715 -48.7066
L10.9484 -49.1499
L11.1893 -49.5892
L11.4379 -50.0243
L11.6939 -50.4552
L11.9573 -50.8817
L12.2281 -51.3036
L12.5061 -51.7209
L12.7912 -52.1333
L13.0834 -52.5409
L13.3826 -52.9434
L13.6887 -53.3408
L14.0016 -53.7329
L14.3212 -54.1196
L14.6473 -54.5007
L14.98 -54.8763
L15.3191 -55.2461
L15.6645 -55.61
L16.0161 -55.9679
L16.3738 -56.3198
L16.7374 -56.6655
L17.1069 -57.0048
L17.4822 -57.3378
L17.8631 -57.6643
L18.2496 -57.9842
L18.6414 -58.2974
L19.0385 -58.6037
L19.4408 -58.9033
L19.8482 -59.1958
L20.2605 -59.4812
L20.6775 -59.7596
L21.0992 -60.0306
L21.5255 -60.2944
L21.9562 -60.5507
L22.3911 -60.7996
L22.8302 -61.0409
L23.2733 -61.2746
L23.7203 -61.5006
L24.171 -61.7189
L24.6254 -61.9292
L25.0832 -62.1317
L25.5443 -62.3263
L26.0086 -62.5128
L26.4759 -62.6912
L26.9462 -62.8615
L27.4192 -63.0237
L27.8948 -63.1776
L28.3729 -63.3232
L28.8533 -63.4605
L29.3359 -63.5894
L29.8205 -63.7099
L30.307 -63.822
L30.7953 -63.9256
L31.2851 -64.0207
L31.7763 -64.1073
L32.2689 -64.1853
L32.7626 -64.2547
L33.2572 -64.3155
L33.7527 -64.3677
L34.2489 -64.4113
L34.7457 -64.4462
L35.2428 -64.4724
L35.7401 -64.4899
L36.2375 -64.4988
L36.7348 -64.499
L37.232 -64.4905
L37.7287 -64.4734
L38.2249 -64.4475
L38.7204 -64.413
L39.2152 -64.3699
L39.7089 -64.3181
L40.2015 -64.2576
L40.6928 -64.1886
L41.1827 -64.111
L41.671 -64.0248
L42.1576 -63.9301
L42.6423 -63.8269
L43.125 -63.7152
L43.6055 -63.595
L44.0837 -63.4665
L44.5594 -63.3295
L45.0326 -63.1843
L45.5029 -63.0308
L45.9704 -62.869
L46.4349 -62.6991
L46.8961 -62.521
L47.3541 -62.3349
L47.8086 -62.1407
L48.2595 -61.9385
L48.7066 -61.7285
L49.1499 -61.5106
L49.5892 -61.285
L50.0243 -61.0516
L50.4552 -60.8107
L50.8817 -60.5621
L51.3036 -60.3061
L51.7209 -60.0427
L52.1333 -59.7719
L52.5409 -59.4939
L52.9434 -59.2088
L53.3408 -58.9166
L53.7329 -58.6174
L54.1196 -58.3113
L54.5007 -57.9984
L54.8763 -57.6788
L55.2461 -57.3527
L55.61 -57.02
L55.9679 -56.6809
z
" id="C0_2_4b42301a1f"/>
    </defs>
    <g clip-path="url(#p1bffca34e9)">
     <use style="fill:#ff0000;stroke:#000000;stroke-width:2.0;" x="0.0" xlink:href="#C0_0_a811fe30f3" y="72.0"/>
    </g>
    <g clip-path="url(#p1bffca34e9)">
     <use style="fill:#ffffff;stroke:#000000;stroke-width:2.0;" x="0.0" xlink:href="#C0_1_59d68fccd6" y="72.0"/>
    </g>
    <g clip-path="url(#p1bffca34e9)">
     <use style="fill:#ffffff;stroke:#000000;stroke-width:2.0;" x="0.0" xlink:href="#C0_2_4b42301a1f" y="72.0"/>
    </g>
   </g>
  </g>
 </g>
 <defs>
  <clipPath id="p1bffca34e9">
   <rect height="72.0" width="72.0" x="0.0" y="0.0"/>
  </clipPath>
 </defs>
</svg>
