<?xml version="1.0" encoding="utf-8" standalone="no"?>
<!DOCTYPE svg PUBLIC "-//W3C//DTD SVG 1.1//EN"
  "http://www.w3.org/Graphics/SVG/1.1/DTD/svg11.dtd">
<!-- Created with matplotlib (http://matplotlib.org/) -->
<svg height="72pt" version="1.1" viewBox="0 0 72 72" width="72pt" xmlns="http://www.w3.org/2000/svg" xmlns:xlink="http://www.w3.org/1999/xlink">
 <defs>
  <style type="text/css">
*{stroke-linecap:butt;stroke-linejoin:round;}
  </style>
 </defs>
 <g id="figure_1">
  <g id="patch_1">
   <path d="
M0 72
L72 72
L72 0
L0 0
z
" style="fill:none;"/>
  </g>
  <g id="axes_1">
   <g id="PatchCollection_1">
    <defs>
     <path d="
M36 -7.5
C43.5583 -7.5 50.808 -10.5029 56.1525 -15.8475
C61.4971 -21.192 64.5 -28.4417 64.5 -36
C64.5 -43.5583 61.4971 -50.808 56.1525 -56.1525
C50.808 -61.4971 43.5583 -64.5 36 -64.5
C28.4417 -64.5 21.192 -61.4971 15.8475 -56.1525
C10.5029 -50.808 7.5 -43.5583 7.5 -36
C7.5 -28.4417 10.5029 -21.192 15.8475 -15.8475
C21.192 -10.5029 28.4417 -7.5 36 -7.5
z
" id="C0_0_a811fe30f3"/>
     <path d="
M54.4391 -57.6194
L54.3064 -57.4135
L54.148 -57.225
L53.9652 -57.0532
L53.7593 -56.8971
L53.5319 -56.7554
L53.2846 -56.6269
L53.0193 -56.51
L52.7377 -56.4032
L52.4414 -56.3052
L52.1322 -56.2145
L51.8117 -56.1298
L51.4812 -56.0499
L51.1423 -55.9737
L50.7962 -55.9002
L50.444 -55.8286
L50.0867 -55.7582
L49.7255 -55.6883
L49.361 -55.6184
L48.9942 -55.548
L48.6256 -55.4767
L48.256 -55.4043
L47.8859 -55.3304
L47.5158 -55.2548
L47.1461 -55.1774
L46.7773 -55.0982
L46.4098 -55.0169
L46.0438 -54.9335
L45.6796 -54.8481
L45.3176 -54.7605
L44.9578 -54.6708
L44.6005 -54.579
L44.2459 -54.4852
L43.8941 -54.3893
L43.5452 -54.2914
L43.1994 -54.1916
L42.8567 -54.0899
L42.5172 -53.9864
L42.1809 -53.8812
L41.848 -53.7742
L41.5183 -53.6656
L41.192 -53.5555
L40.8691 -53.4438
L40.5495 -53.3306
L40.2333 -53.2161
L39.9204 -53.1003
L39.6108 -52.9831
L39.3045 -52.8647
L39.0015 -52.7452
L38.7016 -52.6244
L38.405 -52.5027
L38.1115 -52.3798
L37.8211 -52.2559
L37.5338 -52.1311
L37.2494 -52.0053
L36.968 -51.8786
L36.6895 -51.7511
L36.4137 -51.6226
L36.1407 -51.4933
L35.8705 -51.3632
L35.6028 -51.2324
L35.3378 -51.1007
L35.0752 -50.9682
L34.8151 -50.835
L34.5574 -50.7011
L34.302 -50.5664
L34.0489 -50.4309
L33.7979 -50.2947
L33.5491 -50.1578
L33.3024 -50.0201
L33.0576 -49.8817
L32.8148 -49.7425
L32.5739 -49.6026
L32.3348 -49.4619
L32.0975 -49.3205
L31.8618 -49.1782
L31.6278 -49.0352
L31.3954 -48.8913
L31.1645 -48.7466
L30.9351 -48.601
L30.707 -48.4546
L30.4804 -48.3073
L30.255 -48.1591
L30.0309 -48.0099
L29.8079 -47.8598
L29.5861 -47.7087
L29.3654 -47.5566
L29.1457 -47.4034
L28.927 -47.2491
L28.4923 -47.0938
L28.2763 -46.9373
L28.061 -46.7796
L27.8465 -46.6208
L27.6327 -46.4607
L27.4195 -46.2993
L27.2069 -46.1366
L26.995 -45.9726
L26.7835 -45.8071
L26.5725 -45.6402
L26.362 -45.4719
L26.1519 -45.302
L25.9422 -45.1305
L25.7328 -44.9574
L25.5237 -44.7827
L25.3148 -44.6062
L25.1062 -44.428
L24.8978 -44.248
L24.6896 -44.0661
L24.4815 -43.8822
L24.2735 -43.6964
L24.0656 -43.5086
L23.8578 -43.3187
L23.65 -43.1266
L23.4422 -42.9324
L23.2344 -42.7359
L23.0266 -42.537
L22.8187 -42.3358
L22.6108 -42.1321
L22.4028 -41.926
L22.1948 -41.7172
L21.9867 -41.5058
L21.7784 -41.2918
L21.5701 -41.0749
L21.3617 -40.8553
L21.1531 -40.6328
L20.9445 -40.4073
L20.7358 -40.1788
L20.527 -39.9472
L20.3182 -39.7125
L20.1093 -39.4745
L19.9004 -39.2334
L19.6915 -38.9889
L19.4826 -38.7411
L19.2738 -38.4898
L19.065 -38.2351
L18.8564 -37.9768
L18.648 -37.715
L18.4398 -37.4496
L18.2319 -37.1806
L18.0243 -36.908
L17.8171 -36.6317
L17.6103 -36.3517
L17.4041 -36.0681
L17.1984 -35.7808
L16.9934 -35.4899
L16.7891 -35.1954
L16.5857 -34.8974
L16.3831 -34.5958
L16.1815 -34.2909
L15.9809 -33.9827
L15.7814 -33.6713
L15.5832 -33.3569
L15.3862 -33.0396
L15.1905 -32.7197
L14.9962 -32.3974
L14.8033 -32.073
L14.6119 -31.7468
L14.4219 -31.4192
L14.2334 -31.0905
L14.0463 -30.7614
L13.8606 -30.4322
L13.6761 -30.1037
L13.4927 -29.7765
L13.3103 -29.4514
L13.1285 -29.1293
L12.9472 -28.8111
L12.7658 -28.498
L12.5841 -28.1911
L12.4014 -27.8919
L12.2173 -27.6018
L12.031 -27.3224
L11.8417 -27.0555
L11.6488 -26.803
L11.4514 -26.5668
L11.2487 -26.349
L11.0399 -26.1517
L10.8241 -25.977
L10.6009 -25.8268
L10.3696 -25.703
L10.13 -25.6071
L9.88197 -25.5404
L9.62569 -25.504
L9.34184 -25.4983
L9.16999 -25.9207
L9.00631 -26.3875
L8.85086 -26.8572
L8.70368 -27.3297
L8.56481 -27.8048
L8.4343 -28.2825
L8.31218 -28.7624
L8.1985 -29.2446
L8.09329 -29.7289
L7.99658 -30.215
L7.9084 -30.703
L7.82878 -31.1925
L7.75773 -31.6835
L7.69529 -32.1758
L7.64148 -32.6693
L7.5963 -33.1638
L7.55977 -33.6591
L7.5319 -34.1552
L7.51271 -34.6518
L7.5022 -35.1489
L7.50036 -35.6462
L7.50721 -36.1436
L7.52273 -36.641
L7.54693 -37.1381
L7.5798 -37.635
L7.62133 -38.1313
L7.6715 -38.627
L7.73029 -39.1218
L7.7977 -39.6158
L7.8737 -40.1086
L7.95827 -40.6001
L8.05138 -41.0903
L8.153 -41.5789
L8.26311 -42.0659
L8.38166 -42.5509
L8.50863 -43.034
L8.64397 -43.5149
L8.78764 -43.9936
L8.93961 -44.4698
L9.09981 -44.9434
L9.26821 -45.4143
L9.44475 -45.8824
L9.62939 -46.3474
L9.82205 -46.8093
L10.0227 -47.2679
L10.2312 -47.723
L10.4476 -48.1746
L10.6718 -48.6225
L10.9037 -49.0665
L11.1433 -49.5066
L11.3904 -49.9425
L11.645 -50.3742
L11.907 -50.8015
L12.1764 -51.2243
L12.453 -51.6424
L12.7368 -52.0558
L13.0277 -52.4643
L13.3256 -52.8678
L13.6304 -53.2662
L13.942 -53.6593
L14.2603 -54.047
L14.5853 -54.4292
L14.9167 -54.8058
L15.2546 -55.1767
L15.5988 -55.5417
L15.9492 -55.9008
L16.3058 -56.2538
L16.6683 -56.6007
L17.0367 -56.9412
L17.4109 -57.2754
L17.7908 -57.6032
L18.1762 -57.9243
L18.567 -58.2387
L18.9632 -58.5464
L19.3645 -58.8472
L19.7709 -59.1411
L20.1822 -59.4279
L20.5984 -59.7076
L21.0193 -59.98
L21.4447 -60.2452
L21.8745 -60.5029
L22.3087 -60.7532
L22.747 -60.996
L23.1894 -61.2311
L23.6356 -61.4586
L24.0857 -61.6783
L24.5393 -61.8901
L24.9965 -62.0941
L25.457 -62.2902
L25.9207 -62.4782
L26.3875 -62.6582
L26.8572 -62.83
L27.3297 -62.9937
L27.8048 -63.1491
L28.2825 -63.2963
L28.7624 -63.4352
L29.2446 -63.5657
L29.7289 -63.6878
L30.215 -63.8015
L30.703 -63.9067
L31.1925 -64.0034
L31.6835 -64.0916
L32.1758 -64.1712
L32.6693 -64.2423
L33.1638 -64.3047
L33.6591 -64.3585
L34.1552 -64.4037
L34.6518 -64.4402
L35.1489 -64.4681
L35.6462 -64.4873
L36.1436 -64.4978
L36.641 -64.4996
L37.1381 -64.4928
L37.635 -64.4773
L38.1313 -64.4531
L38.627 -64.4202
L39.1218 -64.3787
L39.6158 -64.3285
L40.1086 -64.2697
L40.6001 -64.2023
L41.0903 -64.1263
L41.5789 -64.0417
L42.0659 -63.9486
L42.5509 -63.847
L43.034 -63.7369
L43.5149 -63.6183
L43.9936 -63.4914
L44.4698 -63.356
L44.9434 -63.2124
L45.4143 -63.0604
L45.8824 -62.9002
L46.3474 -62.7318
L46.8093 -62.5552
L47.2679 -62.3706
L47.723 -62.1779
L48.1746 -61.9773
L48.6225 -61.7688
L49.0665 -61.5524
L49.5066 -61.3282
L49.9425 -61.0963
L50.3742 -60.8567
L50.8015 -60.6096
L51.2243 -60.355
L51.6424 -60.093
L52.0558 -59.8236
L52.4643 -59.547
L52.8678 -59.2632
L53.2662 -58.9723
L53.6593 -58.6744
L54.047 -58.3696
z
" id="C0_1_3f4c8377a0"/>
     <path d="
M62.4063 -46.3849
L62.24 -46.1606
L62.0819 -45.9129
L61.9309 -45.644
L61.7858 -45.3557
L61.6456 -45.0502
L61.5092 -44.7295
L61.3754 -44.3956
L61.2434 -44.0503
L61.1123 -43.6953
L60.9814 -43.3323
L60.8499 -42.9628
L60.7173 -42.5881
L60.5832 -42.2093
L60.4471 -41.8277
L60.3088 -41.4442
L60.168 -41.0596
L60.0245 -40.6748
L59.8782 -40.2905
L59.7291 -39.9072
L59.577 -39.5255
L59.422 -39.146
L59.2641 -38.7689
L59.1033 -38.3947
L58.9397 -38.0238
L58.7734 -37.6563
L58.6044 -37.2925
L58.4329 -36.9326
L58.2589 -36.5769
L58.0826 -36.2253
L57.904 -35.8781
L57.7234 -35.5353
L57.5407 -35.197
L57.3561 -34.8633
L57.1697 -34.5342
L56.9816 -34.2097
L56.792 -33.8898
L56.6009 -33.5745
L56.4084 -33.2638
L56.2145 -32.9577
L56.0195 -32.6561
L55.8234 -32.3591
L55.6262 -32.0665
L55.428 -31.7783
L55.2289 -31.4944
L55.029 -31.2149
L54.8283 -30.9395
L54.6268 -30.6683
L54.4247 -30.4012
L54.2219 -30.1381
L54.0185 -29.8789
L53.8146 -29.6236
L53.6101 -29.3721
L53.4051 -29.1242
L53.1996 -28.88
L52.9937 -28.6394
L52.7873 -28.4022
L52.5804 -28.1684
L52.3732 -27.9379
L52.1655 -27.7106
L51.9574 -27.4865
L51.749 -27.2655
L51.54 -27.0475
L51.3307 -26.8325
L51.121 -26.6203
L50.9108 -26.4109
L50.7001 -26.2043
L50.4891 -26.0003
L50.2775 -25.7989
L50.0654 -25.6
L49.8528 -25.4036
L49.6397 -25.2096
L49.4261 -25.018
L49.2118 -24.8286
L48.9969 -24.6415
L48.7814 -24.4566
L48.5652 -24.2737
L48.3483 -24.093
L48.1307 -23.9142
L47.9123 -23.7374
L47.6931 -23.5626
L47.4731 -23.3896
L47.2521 -23.2184
L47.0303 -23.049
L46.8075 -22.8814
L46.5836 -22.7154
L46.3587 -22.5512
L46.1327 -22.3885
L45.9056 -22.2275
L45.6773 -22.068
L45.4477 -21.9101
L45.2169 -21.7536
L44.9847 -21.5986
L44.7511 -21.4451
L44.516 -21.293
L44.2795 -21.1422
L44.0414 -20.9929
L43.8017 -20.8449
L43.5603 -20.6982
L43.3171 -20.5529
L43.0722 -20.4089
L42.8255 -20.2662
L42.5768 -20.1247
L42.3261 -19.9846
L42.0734 -19.8457
L41.8186 -19.7081
L41.5616 -19.5718
L41.3024 -19.4367
L41.0409 -19.3029
L40.777 -19.1704
L40.5106 -19.0392
L40.2418 -18.9092
L39.9703 -18.7806
L39.6963 -18.6533
L39.4195 -18.5273
L39.1399 -18.4028
L38.8575 -18.2795
L38.5721 -18.1578
L38.2837 -18.0374
L37.9923 -17.9185
L37.6977 -17.8012
L37.3999 -17.6854
L37.0989 -17.5711
L36.7945 -17.4586
L36.4867 -17.3477
L36.1755 -17.2385
L35.8607 -17.1312
L35.5423 -17.0257
L35.2203 -16.9221
L34.8947 -16.8206
L34.5653 -16.721
L34.2321 -16.6236
L33.8951 -16.5284
L33.5542 -16.4355
L33.2095 -16.345
L32.8609 -16.2569
L32.5084 -16.1714
L32.1519 -16.0884
L31.7916 -16.0082
L31.4274 -15.9308
L31.0594 -15.8564
L30.6875 -15.7849
L30.3118 -15.7164
L29.9325 -15.6512
L29.5495 -15.5892
L29.1631 -15.5306
L28.7733 -15.4753
L28.3802 -15.4235
L27.9841 -15.3753
L27.585 -15.3306
L27.1834 -15.2894
L26.7793 -15.2519
L26.373 -15.2179
L25.965 -15.1874
L25.5555 -15.1603
L25.145 -15.1366
L24.7339 -15.1159
L24.3226 -15.0983
L23.9118 -15.0832
L23.502 -15.0705
L23.094 -15.0596
L22.6884 -15.0502
L22.2862 -15.0415
L21.8881 -15.0329
L21.4952 -15.0236
L21.1086 -15.0126
L20.7294 -14.9988
L20.3589 -14.981
L19.9984 -14.9579
L19.6494 -14.928
L19.3134 -14.8897
L18.9919 -14.8414
L18.6864 -14.7814
L18.3985 -14.7079
L18.1297 -14.6195
L17.8813 -14.5147
L17.9364 -14.3922
L18.3239 -13.9556
L18.7167 -13.6437
L19.1149 -13.3386
L19.5181 -13.0404
L19.9264 -12.7492
L20.3396 -12.4651
L20.7576 -12.1882
L21.1802 -11.9185
L21.6073 -11.6562
L22.0388 -11.4012
L22.4745 -11.1538
L22.9144 -10.9139
L23.3583 -10.6817
L23.806 -10.4572
L24.2574 -10.2404
L24.7124 -10.0315
L25.1708 -9.83055
L25.6326 -9.63754
L26.0975 -9.45256
L26.5654 -9.27567
L27.0362 -9.10691
L27.5097 -8.94635
L27.9858 -8.79403
L28.4643 -8.65
L28.9452 -8.5143
L29.4282 -8.38697
L29.9132 -8.26805
L30.4 -8.15758
L30.8885 -8.05559
L31.3787 -7.96211
L31.8702 -7.87718
L32.3629 -7.80081
L32.8568 -7.73303
L33.3517 -7.67386
L33.8473 -7.62331
L34.3436 -7.58142
L34.8404 -7.54817
L35.3376 -7.5236
L35.8349 -7.5077
L36.3323 -7.50048
L36.8297 -7.50194
L37.3267 -7.51208
L37.8234 -7.5309
L38.3195 -7.55839
L38.8148 -7.59454
L39.3094 -7.63935
L39.8029 -7.69279
L40.2953 -7.75486
L40.7863 -7.82553
L41.2759 -7.90479
L41.7639 -7.9926
L42.2502 -8.08894
L42.7345 -8.19379
L43.2168 -8.3071
L43.6969 -8.42885
L44.1746 -8.559
L44.6498 -8.69751
L45.1225 -8.84434
L45.5923 -8.99943
L46.0592 -9.16275
L46.5231 -9.33425
L46.9837 -9.51387
L47.441 -9.70155
L47.8948 -9.89725
L48.345 -10.1009
L48.7914 -10.3124
L49.234 -10.5318
L49.6725 -10.7589
L50.1068 -10.9937
L50.5368 -11.2362
L50.9625 -11.4861
L51.3835 -11.7436
L51.7999 -12.0084
L52.2114 -12.2805
L52.6181 -12.5599
L53.0196 -12.8464
L53.416 -13.1399
L53.807 -13.4404
L54.1927 -13.7478
L54.5728 -14.062
L54.9472 -14.3828
L55.3159 -14.7103
L55.6787 -15.0442
L56.0355 -15.3845
L56.3862 -15.7311
L56.7307 -16.0838
L57.0688 -16.4426
L57.4006 -16.8074
L57.7258 -17.1781
L58.0444 -17.5544
L58.3563 -17.9364
L58.6614 -18.3239
L58.9596 -18.7167
L59.2508 -19.1149
L59.5349 -19.5181
L59.8118 -19.9264
L60.0815 -20.3396
L60.3438 -20.7576
L60.5988 -21.1802
L60.8462 -21.6073
L61.0861 -22.0388
L61.3183 -22.4745
L61.5428 -22.9144
L61.7596 -23.3583
L61.9685 -23.806
L62.1695 -24.2574
L62.3625 -24.7124
L62.5474 -25.1708
L62.7243 -25.6326
L62.8931 -26.0975
L63.0536 -26.5654
L63.206 -27.0362
L63.35 -27.5097
L63.4857 -27.9858
L63.613 -28.4643
L63.7319 -28.9452
L63.8424 -29.4282
L63.9444 -29.9132
L64.0379 -30.4
L64.1228 -30.8885
L64.1992 -31.3787
L64.267 -31.8702
L64.3261 -32.3629
L64.3767 -32.8568
L64.4186 -33.3517
L64.4518 -33.8473
L64.4764 -34.3436
L64.4923 -34.8404
L64.4995 -35.3376
L64.4981 -35.8349
L64.4879 -36.3323
L64.4691 -36.8297
L64.4416 -37.3267
L64.4055 -37.8234
L64.3607 -38.3195
L64.3072 -38.8148
L64.2451 -39.3094
L64.1745 -39.8029
L64.0952 -40.2953
L64.0074 -40.7863
L63.9111 -41.2759
L63.8062 -41.7639
L63.6929 -42.2502
L63.5711 -42.7345
L63.441 -43.2168
L63.3025 -43.6969
L63.1557 -44.1746
L63.0006 -44.6498
L62.8372 -45.1225
z
" id="C0_2_f666d07e87"/>
    </defs>
    <g clip-path="url(#p1bffca34e9)">
     <use style="fill:#ffffff;stroke:#000000;stroke-width:2.0;" x="0.0" xlink:href="#C0_0_a811fe30f3" y="72.0"/>
    </g>
    <g clip-path="url(#p1bffca34e9)">
     <use style="fill:#ff0000;stroke:#000000;stroke-width:2.0;" x="0.0" xlink:href="#C0_1_3f4c8377a0" y="72.0"/>
    </g>
    <g clip-path="url(#p1bffca34e9)">
     <use style="fill:#ff0000;stroke:#000000;stroke-width:2.0;" x="0.0" xlink:href="#C0_2_f666d07e87" y="72.0"/>
    </g>
   </g>
  </g>
 </g>
 <defs>
  <clipPath id="p1bffca34e9">
   <rect height="72.0" width="72.0" x="0.0" y="0.0"/>
  </clipPath>
 </defs>
</svg>
