<?xml version="1.0" encoding="utf-8" standalone="no"?>
<!DOCTYPE svg PUBLIC "-//W3C//DTD SVG 1.1//EN"
  "http://www.w3.org/Graphics/SVG/1.1/DTD/svg11.dtd">
<!-- Created with matplotlib (http://matplotlib.org/) -->
<svg height="72pt" version="1.1" viewBox="0 0 72 72" width="72pt" xmlns="http://www.w3.org/2000/svg" xmlns:xlink="http://www.w3.org/1999/xlink">
 <defs>
  <style type="text/css">
*{stroke-linecap:butt;stroke-linejoin:round;}
  </style>
 </defs>
 <g id="figure_1">
  <g id="patch_1">
   <path d="
M0 72
L72 72
L72 0
L0 0
z
" style="fill:none;"/>
  </g>
  <g id="axes_1">
   <g id="PatchCollection_1">
    <defs>
     <path d="
M36 -7.5
C43.5583 -7.5 50.808 -10.5029 56.1525 -15.8475
C61.4971 -21.192 64.5 -28.4417 64.5 -36
C64.5 -43.5583 61.4971 -50.808 56.1525 -56.1525
C50.808 -61.4971 43.5583 -64.5 36 -64.5
C28.4417 -64.5 21.192 -61.4971 15.8475 -56.1525
C10.5029 -50.808 7.5 -43.5583 7.5 -36
C7.5 -28.4417 10.5029 -21.192 15.8475 -15.8475
C21.192 -10.5029 28.4417 -7.5 36 -7.5
z
" id="C0_0_a811fe30f3"/>
     <path d="
M29.6564 -63.6595
L29.7579 -63.4621
L29.8575 -63.2642
L29.9551 -63.066
L30.0509 -62.8673
L30.1449 -62.6684
L30.2372 -62.4692
L30.3279 -62.2697
L30.417 -62.0699
L30.5047 -61.87
L30.5909 -61.6698
L30.6757 -61.4694
L30.7593 -61.2688
L30.8416 -61.0681
L30.9227 -60.8671
L31.0026 -60.6659
L31.0814 -60.4646
L31.1592 -60.263
L31.236 -60.0613
L31.3118 -59.8593
L31.3866 -59.657
L31.4606 -59.4545
L31.5337 -59.2518
L31.606 -59.0487
L31.6774 -58.8453
L31.7482 -58.6415
L31.8182 -58.4374
L31.8875 -58.2329
L31.9561 -58.028
L32.0241 -57.8227
L32.0915 -57.6168
L32.1583 -57.4104
L32.2245 -57.2035
L32.2903 -56.996
L32.3554 -56.7879
L32.4202 -56.5791
L32.4844 -56.3697
L32.5482 -56.1595
L32.6116 -55.9485
L32.7371 -55.7367
L32.7993 -55.5241
L32.8612 -55.3106
L32.9227 -55.0961
L32.984 -54.8806
L33.0449 -54.6642
L33.1055 -54.4466
L33.1659 -54.2279
L33.226 -54.0081
L33.2859 -53.787
L33.3456 -53.5646
L33.405 -53.3409
L33.4643 -53.1159
L33.5234 -52.8894
L33.5822 -52.6614
L33.6409 -52.4319
L33.6995 -52.2008
L33.7579 -51.9681
L33.8162 -51.7337
L33.8743 -51.4975
L33.9323 -51.2595
L33.9902 -51.0196
L34.048 -50.7778
L34.1057 -50.5339
L34.1632 -50.2881
L34.2207 -50.0401
L34.2781 -49.79
L34.3353 -49.5376
L34.3925 -49.2829
L34.4495 -49.0259
L34.5065 -48.7665
L34.5634 -48.5046
L34.6201 -48.2401
L34.6767 -47.9731
L34.7332 -47.7034
L34.7896 -47.431
L34.8458 -47.1558
L34.9018 -46.8779
L34.9577 -46.597
L35.0134 -46.3132
L35.0688 -46.0264
L35.124 -45.7366
L35.1789 -45.4437
L35.2336 -45.1477
L35.2879 -44.8485
L35.3418 -44.5461
L35.3954 -44.2405
L35.4484 -43.9316
L35.501 -43.6194
L35.553 -43.3039
L35.6044 -42.9851
L35.6551 -42.6629
L35.7051 -42.3374
L35.7542 -42.0086
L35.8024 -41.6765
L35.8495 -41.3411
L35.8956 -41.0024
L35.9404 -40.6605
L35.9838 -40.3155
L36.0258 -39.9674
L36.0661 -39.6164
L36.1046 -39.2624
L36.141 -38.9056
L36.1753 -38.5462
L36.2072 -38.1844
L36.2365 -37.8201
L36.2629 -37.4538
L36.2861 -37.0855
L36.3058 -36.7156
L36.3217 -36.3442
L36.3335 -35.9718
L36.3407 -35.5985
L36.3428 -35.2248
L36.3396 -34.851
L36.3304 -34.4777
L36.3147 -34.1051
L36.2919 -33.7339
L36.2614 -33.3645
L36.2226 -32.9975
L36.1747 -32.6335
L36.1171 -32.2733
L36.049 -31.9173
L35.9697 -31.5664
L35.8785 -31.2212
L35.7747 -30.8825
L35.6575 -30.5509
L35.5264 -30.2273
L35.381 -29.9122
L35.2207 -29.6063
L35.0454 -29.3103
L34.8549 -29.0245
L34.6493 -28.7495
L34.4287 -28.4856
L34.1936 -28.233
L33.9443 -27.9919
L33.6816 -27.7622
L33.4061 -27.5441
L33.1187 -27.3373
L32.8203 -27.1416
L32.5117 -26.9569
L32.1938 -26.7828
L31.8678 -26.6191
L31.5344 -26.4654
L31.1945 -26.3213
L30.8491 -26.1865
L30.4989 -26.0607
L30.1447 -25.9435
L29.7872 -25.8346
L29.4272 -25.7336
L29.0652 -25.6403
L28.7018 -25.5543
L28.3376 -25.4754
L27.973 -25.4033
L27.6085 -25.3378
L27.2446 -25.2785
L26.8815 -25.2253
L26.5196 -25.1779
L26.1592 -25.1361
L25.8006 -25.0997
L25.4441 -25.0686
L25.0898 -25.0425
L24.7379 -25.0212
L24.3886 -25.0047
L24.0421 -24.9926
L23.6984 -24.985
L23.3578 -24.9815
L23.0202 -24.9821
L22.6858 -24.9867
L22.3547 -24.9951
L22.0268 -25.0072
L21.7022 -25.0228
L21.381 -25.0419
L21.0632 -25.0644
L20.7488 -25.0901
L20.4377 -25.119
L20.1301 -25.1509
L19.8258 -25.1858
L19.5249 -25.2236
L19.2273 -25.2642
L18.9331 -25.3075
L18.6421 -25.3535
L18.3544 -25.4021
L18.0699 -25.4532
L17.7886 -25.5068
L17.5104 -25.5629
L17.2353 -25.6213
L16.9632 -25.682
L16.6941 -25.745
L16.428 -25.8103
L16.1647 -25.8777
L15.9043 -25.9473
L15.6466 -26.0191
L15.3917 -26.093
L15.1394 -26.169
L14.8898 -26.247
L14.6427 -26.3271
L14.3981 -26.4092
L14.156 -26.4934
L13.9163 -26.5796
L13.6789 -26.6677
L13.4439 -26.7579
L13.2111 -26.8501
L12.9804 -26.9443
L12.752 -27.0405
L12.5256 -27.1388
L12.3013 -27.2391
L12.0789 -27.3414
L11.8586 -27.4457
L11.6401 -27.5522
L11.4235 -27.6607
L11.2087 -27.7714
L10.9958 -27.8842
L10.7845 -27.9993
L10.575 -28.1165
L10.3672 -28.2359
L10.161 -28.3577
L9.95635 -28.4818
L9.75332 -28.6082
L9.55183 -28.7371
L9.35186 -28.8684
L9.15338 -29.0023
L8.95637 -29.1387
L8.76081 -29.2777
L8.56667 -29.4195
L8.37395 -29.564
L8.18262 -29.7114
L8.06659 -29.8616
L7.97216 -30.3454
L7.88626 -30.8338
L7.80893 -31.3237
L7.74019 -31.8151
L7.68005 -32.3077
L7.62854 -32.8015
L7.58568 -33.2962
L7.55147 -33.7918
L7.52592 -34.288
L7.50905 -34.7848
L7.50086 -35.2819
L7.50134 -35.7792
L7.51051 -36.2766
L7.52836 -36.774
L7.55488 -37.2711
L7.59006 -37.7678
L7.6339 -38.2639
L7.68638 -38.7594
L7.74748 -39.254
L7.81719 -39.7477
L7.89548 -40.2402
L7.98234 -40.7314
L8.07773 -41.2212
L8.18162 -41.7094
L8.29399 -42.1958
L8.4148 -42.6804
L8.54401 -43.1629
L8.68159 -43.6432
L8.82748 -44.1212
L8.98165 -44.5968
L9.14406 -45.0697
L9.31464 -45.5398
L9.49335 -46.0071
L9.68014 -46.4713
L9.87494 -46.9323
L10.0777 -47.39
L10.2884 -47.8442
L10.5068 -48.2948
L10.7331 -48.7416
L10.9671 -49.1846
L11.2086 -49.6236
L11.4578 -50.0584
L11.7144 -50.4889
L11.9784 -50.915
L12.2497 -51.3366
L12.5282 -51.7535
L12.8139 -52.1656
L13.1067 -52.5728
L13.4064 -52.9749
L13.7131 -53.3719
L14.0265 -53.7635
L14.3466 -54.1498
L14.6733 -54.5305
L15.0065 -54.9056
L15.3461 -55.2749
L15.692 -55.6384
L16.044 -55.9958
L16.4022 -56.3472
L16.7663 -56.6924
L17.1363 -57.0313
L17.512 -57.3637
L17.8933 -57.6897
L18.2802 -58.0091
L18.6725 -58.3217
L19.07 -58.6276
L19.4727 -58.9265
L19.8805 -59.2185
L20.2931 -59.5034
L20.7105 -59.7812
L21.1326 -60.0517
L21.5592 -60.3148
L21.9903 -60.5706
L22.4255 -60.8189
L22.865 -61.0596
L23.3084 -61.2927
L23.7557 -61.5181
L24.2067 -61.7357
L24.6613 -61.9455
L25.1193 -62.1473
L25.5807 -62.3412
L26.0453 -62.5271
L26.5128 -62.7049
L26.9833 -62.8746
L27.4565 -63.0361
L27.9324 -63.1893
L28.4106 -63.3343
L28.8912 -63.4709
z
" id="C0_1_0995a77549"/>
     <path d="
M63.7334 -41.9266
L63.6209 -41.7099
L63.5059 -41.4941
L63.3884 -41.2791
L63.2684 -41.0648
L63.146 -40.8511
L63.021 -40.6381
L62.8935 -40.4257
L62.7634 -40.2137
L62.6307 -40.0022
L62.4954 -39.7912
L62.3574 -39.5805
L62.2168 -39.3701
L62.0734 -39.16
L61.9273 -38.9501
L61.7783 -38.7404
L61.6265 -38.5308
L61.4719 -38.3214
L61.3143 -38.112
L61.1537 -37.9026
L60.9901 -37.6932
L60.8235 -37.4838
L60.6537 -37.2742
L60.4807 -37.0646
L60.3045 -36.8547
L60.1251 -36.6447
L59.9423 -36.4345
L59.7561 -36.224
L59.5665 -36.0133
L59.3734 -35.8022
L59.1768 -35.5908
L58.9765 -35.3791
L58.7726 -35.1669
L58.565 -34.9544
L58.3536 -34.7415
L58.1384 -34.5281
L57.9193 -34.3143
L57.6963 -34.1
L57.4694 -33.8853
L57.2384 -33.67
L57.0034 -33.4543
L56.7644 -33.238
L56.5212 -33.0213
L56.2739 -32.804
L56.0225 -32.5862
L55.7669 -32.3679
L55.5072 -32.149
L55.2433 -31.9297
L54.9753 -31.7098
L54.7032 -31.4893
L54.427 -31.2684
L54.1468 -31.0469
L53.8627 -30.8249
L53.5747 -30.6024
L53.2829 -30.3793
L52.9875 -30.1557
L52.6886 -29.9316
L52.3863 -29.7069
L52.0809 -29.4816
L51.7726 -29.2556
L51.4616 -29.0291
L51.1482 -28.8018
L50.8328 -28.5738
L50.5156 -28.3449
L50.197 -28.1152
L49.8776 -27.8844
L49.5577 -27.6525
L49.2379 -27.4194
L48.9188 -27.1848
L48.6011 -26.9486
L48.2853 -26.7106
L47.9722 -26.4706
L47.6626 -26.2282
L47.3574 -25.9832
L47.0573 -25.7353
L46.7632 -25.4842
L46.4762 -25.2295
L46.197 -24.9709
L45.9266 -24.7079
L45.6659 -24.4404
L45.4156 -24.168
L45.1765 -23.8904
L44.9492 -23.6074
L44.7342 -23.3189
L44.5319 -23.0248
L44.3425 -22.7251
L44.1659 -22.42
L44.0023 -22.1095
L43.8512 -21.794
L43.7124 -21.4739
L43.5853 -21.1494
L43.4695 -20.8212
L43.3642 -20.4896
L43.2688 -20.1552
L43.1827 -19.8185
L43.1052 -19.4801
L43.0355 -19.1405
L42.9729 -18.8001
L42.917 -18.4596
L42.8669 -18.1192
L42.8222 -17.7796
L42.7824 -17.4411
L42.7469 -17.104
L42.7153 -16.7687
L42.6871 -16.4356
L42.6621 -16.1049
L42.6398 -15.7768
L42.6199 -15.4517
L42.6022 -15.1297
L42.5864 -14.8109
L42.5723 -14.4956
L42.5596 -14.1839
L42.5481 -13.8759
L42.5378 -13.5717
L42.5284 -13.2714
L42.5198 -12.975
L42.5118 -12.6827
L42.5044 -12.3943
L42.4975 -12.1101
L42.491 -11.8299
L42.4847 -11.5538
L42.4787 -11.2818
L42.4728 -11.0138
L42.4671 -10.7499
L42.4613 -10.49
L42.4556 -10.2341
L42.4498 -9.98211
L42.444 -9.73405
L42.438 -9.48984
L42.4319 -9.24943
L42.4256 -9.01277
L42.4191 -8.77981
L42.4124 -8.55048
L42.91 -8.32472
L43.3915 -8.35038
L43.8708 -8.47519
L44.3476 -8.60838
L44.8219 -8.74992
L45.2936 -8.89976
L45.7624 -9.05785
L46.2282 -9.22415
L46.6909 -9.3986
L47.1503 -9.58116
L47.6064 -9.77176
L48.0589 -9.97036
L48.5077 -10.1769
L48.9527 -10.3913
L49.3938 -10.6135
L49.8308 -10.8434
L50.2636 -11.081
L50.6921 -11.3261
L51.116 -11.5788
L51.5354 -11.839
L51.95 -12.1065
L52.3598 -12.3812
L52.7646 -12.6632
L53.1643 -12.9523
L53.5587 -13.2484
L53.9479 -13.5514
L54.3315 -13.8612
L54.7096 -14.1779
L55.0819 -14.5011
L55.4485 -14.8309
L55.8091 -15.1672
L56.1637 -15.5097
L56.5121 -15.8586
L56.8543 -16.2136
L57.1902 -16.5746
L57.5195 -16.9415
L57.8424 -17.3142
L58.1586 -17.6926
L58.468 -18.0766
L58.7706 -18.466
L59.0662 -18.8608
L59.3549 -19.2609
L59.6364 -19.666
L59.9107 -20.076
L60.1777 -20.491
L60.4374 -20.9106
L60.6896 -21.3349
L60.9343 -21.7636
L61.1714 -22.1967
L61.4008 -22.634
L61.6225 -23.0753
L61.8364 -23.5206
L62.0424 -23.9696
L62.2405 -24.4224
L62.4306 -24.8786
L62.6127 -25.3383
L62.7866 -25.8012
L62.9524 -26.2672
L63.11 -26.7362
L63.2593 -27.208
L63.4003 -27.6825
L63.533 -28.1595
L63.6572 -28.6389
L63.7731 -29.1205
L63.8805 -29.6042
L63.9794 -30.0899
L64.0697 -30.5774
L64.1516 -31.0665
L64.2248 -31.5572
L64.2895 -32.0491
L64.3455 -32.5423
L64.3929 -33.0366
L64.4317 -33.5317
L64.4618 -34.0276
L64.4832 -34.5241
L64.4959 -35.0211
L64.5 -35.5183
L64.4954 -36.0157
L64.4821 -36.5131
L64.4601 -37.0104
L64.4295 -37.5073
L64.3902 -38.0038
L64.3422 -38.4996
L64.2856 -38.9947
L64.2204 -39.4889
L64.1467 -39.982
L64.0643 -40.4739
L63.9734 -40.9645
z
" id="C0_2_824a1f6ac0"/>
    </defs>
    <g clip-path="url(#p1bffca34e9)">
     <use style="fill:#ff0000;stroke:#000000;stroke-width:2.0;" x="0.0" xlink:href="#C0_0_a811fe30f3" y="72.0"/>
    </g>
    <g clip-path="url(#p1bffca34e9)">
     <use style="fill:#ffffff;stroke:#000000;stroke-width:2.0;" x="0.0" xlink:href="#C0_1_0995a77549" y="72.0"/>
    </g>
    <g clip-path="url(#p1bffca34e9)">
     <use style="fill:#ffffff;stroke:#000000;stroke-width:2.0;" x="0.0" xlink:href="#C0_2_824a1f6ac0" y="72.0"/>
    </g>
   </g>
  </g>
 </g>
 <defs>
  <clipPath id="p1bffca34e9">
   <rect height="72.0" width="72.0" x="0.0" y="0.0"/>
  </clipPath>
 </defs>
</svg>
