<?xml version="1.0" encoding="utf-8" standalone="no"?>
<!DOCTYPE svg PUBLIC "-//W3C//DTD SVG 1.1//EN"
  "http://www.w3.org/Graphics/SVG/1.1/DTD/svg11.dtd">
<!-- Created with matplotlib (http://matplotlib.org/) -->
<svg height="72pt" version="1.1" viewBox="0 0 72 72" width="72pt" xmlns="http://www.w3.org/2000/svg" xmlns:xlink="http://www.w3.org/1999/xlink">
 <defs>
  <style type="text/css">
*{stroke-linecap:butt;stroke-linejoin:round;}
  </style>
 </defs>
 <g id="figure_1">
  <g id="patch_1">
   <path d="
M0 72
L72 72
L72 0
L0 0
z
" style="fill:none;"/>
  </g>
  <g id="axes_1">
   <g id="PatchCollection_1">
    <defs>
     <path d="
M36 -7.5
C43.5583 -7.5 50.808 -10.5029 56.1525 -15.8475
C61.4971 -21.192 64.5 -28.4417 64.5 -36
C64.5 -43.5583 61.4971 -50.808 56.1525 -56.1525
C50.808 -61.4971 43.5583 -64.5 36 -64.5
C28.4417 -64.5 21.192 -61.4971 15.8475 -56.1525
C10.5029 -50.808 7.5 -43.5583 7.5 -36
C7.5 -28.4417 10.5029 -21.192 15.8475 -15.8475
C21.192 -10.5029 28.4417 -7.5 36 -7.5
z
" id="C0_0_a811fe30f3"/>
     <path d="
M63.63 -42.9543
L63.441 -43.334
L63.2439 -43.7058
L63.0393 -44.0696
L62.8274 -44.4253
L62.6086 -44.7726
L62.3834 -45.1115
L62.152 -45.442
L61.9149 -45.764
L61.6725 -46.0775
L61.425 -46.3825
L61.1727 -46.679
L60.9162 -46.9671
L60.6555 -47.2467
L60.3911 -47.518
L60.1233 -47.781
L59.8522 -48.0359
L59.5783 -48.2826
L59.3016 -48.5213
L59.0225 -48.7522
L58.7413 -48.9753
L58.458 -49.1907
L58.173 -49.3986
L57.8864 -49.5992
L57.5984 -49.7925
L57.3091 -49.9786
L57.0188 -50.1578
L56.7276 -50.3301
L56.4356 -50.4957
L56.1429 -50.6548
L55.8498 -50.8074
L55.5562 -50.9537
L55.2624 -51.0939
L54.9684 -51.228
L54.6742 -51.3562
L54.38 -51.4786
L54.0859 -51.5954
L53.7919 -51.7066
L53.4981 -51.8125
L53.2046 -51.9131
L52.9114 -52.0085
L52.6185 -52.0989
L52.326 -52.1843
L52.0339 -52.2648
L51.7423 -52.3407
L51.4512 -52.4119
L51.1607 -52.4786
L50.8706 -52.5408
L50.5812 -52.5986
L50.2923 -52.6522
L50.004 -52.7017
L49.7163 -52.747
L49.4292 -52.7882
L49.1428 -52.8256
L48.8569 -52.859
L48.5717 -52.8887
L48.2871 -52.9145
L48.0031 -52.9367
L47.7197 -52.9553
L47.4369 -52.9703
L47.1547 -52.9818
L46.8731 -52.9898
L46.5921 -52.9943
L46.3116 -52.9955
L46.0317 -52.9934
L45.7523 -52.9879
L45.4735 -52.9792
L45.1952 -52.9672
L44.9173 -52.952
L44.64 -52.9337
L44.3631 -52.9122
L44.0867 -52.8876
L43.5351 -52.8599
L43.2599 -52.8291
L42.9852 -52.7952
L42.7108 -52.7583
L42.4367 -52.7183
L42.1631 -52.6753
L41.8897 -52.6292
L41.6167 -52.5801
L41.3439 -52.528
L41.0715 -52.4729
L40.7994 -52.4147
L40.5275 -52.3536
L40.2559 -52.2894
L39.9845 -52.2221
L39.7134 -52.1518
L39.4425 -52.0784
L39.1719 -52.002
L38.9015 -51.9225
L38.6313 -51.8398
L38.3614 -51.7541
L38.0917 -51.6652
L37.8223 -51.5731
L37.553 -51.4778
L37.2841 -51.3794
L37.0154 -51.2777
L36.747 -51.1727
L36.4788 -51.0645
L36.211 -50.9529
L35.9435 -50.8379
L35.6764 -50.7196
L35.4096 -50.5978
L35.1433 -50.4726
L34.8774 -50.3439
L34.6119 -50.2117
L34.347 -50.0759
L34.0827 -49.9365
L33.8189 -49.7935
L33.5559 -49.6468
L33.2935 -49.4964
L33.032 -49.3422
L32.7712 -49.1842
L32.5115 -49.0224
L32.2527 -48.8568
L31.995 -48.6872
L31.7385 -48.5137
L31.4832 -48.3362
L31.2293 -48.1546
L30.9769 -47.9691
L30.7261 -47.7794
L30.477 -47.5856
L30.2297 -47.3877
L29.9844 -47.1856
L29.7412 -46.9793
L29.5002 -46.7688
L29.2617 -46.5541
L29.0257 -46.3351
L28.7925 -46.1119
L28.5622 -45.8843
L28.3349 -45.6525
L28.111 -45.4165
L27.8906 -45.1761
L27.6739 -44.9315
L27.461 -44.6827
L27.2523 -44.4297
L27.048 -44.1724
L26.8483 -43.911
L26.6533 -43.6455
L26.4635 -43.376
L26.2789 -43.1024
L26.1 -42.8249
L25.9268 -42.5435
L25.7597 -42.2584
L25.5989 -41.9695
L25.4448 -41.6771
L25.2974 -41.3812
L25.1571 -41.0819
L25.0242 -40.7793
L24.8989 -40.4737
L24.7813 -40.165
L24.6718 -39.8536
L24.5706 -39.5395
L24.4778 -39.223
L24.3937 -38.9041
L24.3183 -38.5832
L24.252 -38.2603
L24.1948 -37.9357
L24.1469 -37.6096
L24.1083 -37.2821
L24.0792 -36.9537
L24.0595 -36.6243
L24.0494 -36.2944
L24.0489 -35.964
L24.0579 -35.6334
L24.0764 -35.303
L24.1045 -34.9728
L24.1419 -34.6431
L24.1886 -34.3141
L24.2445 -33.9862
L24.3094 -33.6594
L24.3833 -33.334
L24.4659 -33.0102
L24.5571 -32.6882
L24.6566 -32.3682
L24.7643 -32.0504
L24.8799 -31.735
L25.0031 -31.4221
L25.1339 -31.112
L25.2719 -30.8047
L25.4169 -30.5004
L25.5685 -30.1993
L25.7267 -29.9014
L25.8911 -29.6069
L26.0615 -29.316
L26.2376 -29.0286
L26.4191 -28.745
L26.6059 -28.4651
L26.7977 -28.1891
L26.9943 -27.917
L27.1954 -27.6489
L27.4008 -27.3849
L27.6102 -27.1249
L27.8236 -26.869
L28.0406 -26.6173
L28.2611 -26.3698
L28.4848 -26.1265
L28.7116 -25.8874
L28.9414 -25.6525
L29.1739 -25.4218
L29.4089 -25.1954
L29.6464 -24.9732
L29.8862 -24.7551
L30.1281 -24.5413
L30.372 -24.3317
L30.6178 -24.1262
L30.8653 -23.9248
L31.1144 -23.7276
L31.3651 -23.5344
L31.6172 -23.3453
L31.8706 -23.1603
L32.1253 -22.9792
L32.3811 -22.8021
L32.638 -22.6289
L32.8958 -22.4596
L33.1547 -22.2942
L33.4143 -22.1326
L33.6748 -21.9748
L33.936 -21.8207
L34.198 -21.6704
L34.4605 -21.5237
L34.7237 -21.3806
L34.9875 -21.2412
L35.2518 -21.1053
L35.5166 -20.973
L35.7819 -20.8441
L36.0476 -20.7188
L36.3138 -20.5968
L36.5804 -20.4783
L36.8473 -20.3631
L37.1147 -20.2513
L37.3824 -20.1428
L37.6505 -20.0376
L37.9189 -19.9356
L38.1876 -19.8369
L38.4568 -19.7414
L38.7262 -19.649
L38.996 -19.5599
L39.2661 -19.4739
L39.5366 -19.3911
L39.8075 -19.3114
L40.0787 -19.2348
L40.3502 -19.1613
L40.6222 -19.0909
L40.8945 -19.0236
L41.1672 -18.9593
L41.4404 -18.8982
L41.7139 -18.8401
L41.9879 -18.7851
L42.2623 -18.7332
L42.5372 -18.6843
L42.8126 -18.6386
L43.0884 -18.596
L43.3648 -18.5564
L43.6417 -18.5201
L43.9191 -18.4868
L44.197 -18.4567
L44.4756 -18.4298
L44.7547 -18.4061
L45.0344 -18.3857
L45.3147 -18.3685
L45.5956 -18.3546
L45.8772 -18.344
L46.1594 -18.3368
L46.4423 -18.333
L46.7259 -18.3327
L47.0102 -18.3358
L47.2951 -18.3425
L47.5808 -18.3527
L47.8671 -18.3666
L48.1542 -18.3842
L48.442 -18.4056
L48.7305 -18.4307
L49.0198 -18.4598
L49.3097 -18.4928
L49.6004 -18.5299
L49.8918 -18.571
L50.1839 -18.6163
L50.4766 -18.6659
L50.7701 -18.7199
L51.0641 -18.7782
L51.3589 -18.8412
L51.6542 -18.9087
L51.9501 -18.9809
L52.2465 -19.058
L52.5435 -19.14
L52.8409 -19.227
L53.1387 -19.3192
L53.4369 -19.4167
L53.7354 -19.5195
L54.0341 -19.6279
L54.333 -19.7418
L54.632 -19.8615
L54.931 -19.9871
L55.2299 -20.1187
L55.5286 -20.2565
L55.827 -20.4005
L56.125 -20.551
L56.4225 -20.708
L56.7193 -20.8716
L57.0153 -21.0422
L57.3103 -21.2196
L57.6042 -21.4042
L57.8969 -21.5961
L58.188 -21.7953
L58.4774 -22.002
L58.765 -22.2164
L59.0504 -22.4386
L59.3335 -22.6686
L59.6141 -22.9066
L59.8917 -23.1528
L60.1663 -23.4072
L60.4375 -23.6699
L60.705 -23.9409
L60.9685 -24.2205
L61.2276 -24.5085
L61.4822 -24.8052
L61.7317 -25.1104
L61.976 -25.4242
L62.2145 -25.7466
L62.447 -26.0776
L62.673 -26.4172
L62.8922 -26.7652
L63.1041 -27.1215
L63.3085 -27.4861
L63.4501 -27.8587
L63.5797 -28.3356
L63.7008 -28.8158
L63.8136 -29.2982
L63.9179 -29.7827
L64.0136 -30.2691
L64.1009 -30.7572
L64.1795 -31.2469
L64.2496 -31.738
L64.3111 -32.2305
L64.364 -32.7241
L64.4082 -33.2187
L64.4437 -33.7141
L64.4707 -34.2103
L64.4889 -34.7069
L64.4984 -35.204
L64.4993 -35.7013
L64.4915 -36.1987
L64.475 -36.6961
L64.4498 -37.1932
L64.416 -37.69
L64.3735 -38.1863
L64.3224 -38.6819
L64.2627 -39.1766
L64.1943 -39.6705
L64.1173 -40.1631
L64.0318 -40.6546
L63.9378 -41.1446
L63.8352 -41.633
z
" id="C0_1_72527c93e6"/>
     <path d="
M8.64696 -43.7178
L8.61218 -43.2912
L8.57979 -42.8635
L8.54966 -42.435
L8.52167 -42.0056
L8.4957 -41.5754
L8.47163 -41.1444
L8.44934 -40.7129
L8.42872 -40.2808
L8.40967 -39.8481
L8.39209 -39.4151
L8.3759 -38.9816
L8.36101 -38.5478
L8.34736 -38.1138
L8.33488 -37.6796
L8.32354 -37.2452
L8.3133 -36.8108
L8.30413 -36.3763
L8.29604 -35.9419
L8.28903 -35.5076
L8.28312 -35.0734
L8.27834 -34.6394
L8.27474 -34.2057
L8.27237 -33.7723
L8.27131 -33.3392
L8.27164 -32.9066
L8.27344 -32.4744
L8.27682 -32.0428
L8.28187 -31.6118
L8.28871 -31.1814
L8.29746 -30.7518
L8.30823 -30.323
L8.32116 -29.8949
L8.1527 -29.4678
L8.0511 -29.9355
L7.95801 -30.4225
L7.87347 -30.9111
L7.7975 -31.4013
L7.73011 -31.8928
L7.67134 -32.3857
L7.62119 -32.8796
L7.57969 -33.3745
L7.54685 -33.8702
L7.52268 -34.3665
L7.50718 -34.8633
L7.50035 -35.3605
L7.50221 -35.8578
L7.51275 -36.3553
L7.53197 -36.8526
L7.55986 -37.3496
L7.59641 -37.8462
L7.64162 -38.3423
L7.69546 -38.8376
L7.75793 -39.3321
L7.82899 -39.8256
L7.90864 -40.3179
L7.99685 -40.8089
L8.09358 -41.2984
L8.19882 -41.7864
L8.31253 -42.2725
L8.43466 -42.7568
z
" id="C0_2_4793a03be8"/>
    </defs>
    <g clip-path="url(#p1bffca34e9)">
     <use style="fill:#ff0000;stroke:#000000;stroke-width:2.0;" x="0.0" xlink:href="#C0_0_a811fe30f3" y="72.0"/>
    </g>
    <g clip-path="url(#p1bffca34e9)">
     <use style="fill:#ffffff;stroke:#000000;stroke-width:2.0;" x="0.0" xlink:href="#C0_1_72527c93e6" y="72.0"/>
    </g>
    <g clip-path="url(#p1bffca34e9)">
     <use style="fill:#ffffff;stroke:#000000;stroke-width:2.0;" x="0.0" xlink:href="#C0_2_4793a03be8" y="72.0"/>
    </g>
   </g>
  </g>
 </g>
 <defs>
  <clipPath id="p1bffca34e9">
   <rect height="72.0" width="72.0" x="0.0" y="0.0"/>
  </clipPath>
 </defs>
</svg>
