<?xml version="1.0" encoding="utf-8" standalone="no"?>
<!DOCTYPE svg PUBLIC "-//W3C//DTD SVG 1.1//EN"
  "http://www.w3.org/Graphics/SVG/1.1/DTD/svg11.dtd">
<!-- Created with matplotlib (http://matplotlib.org/) -->
<svg height="72pt" version="1.1" viewBox="0 0 72 72" width="72pt" xmlns="http://www.w3.org/2000/svg" xmlns:xlink="http://www.w3.org/1999/xlink">
 <defs>
  <style type="text/css">
*{stroke-linecap:butt;stroke-linejoin:round;}
  </style>
 </defs>
 <g id="figure_1">
  <g id="patch_1">
   <path d="
M0 72
L72 72
L72 0
L0 0
z
" style="fill:none;"/>
  </g>
  <g id="axes_1">
   <g id="PatchCollection_1">
    <defs>
     <path d="
M36 -7.5
C43.5583 -7.5 50.808 -10.5029 56.1525 -15.8475
C61.4971 -21.192 64.5 -28.4417 64.5 -36
C64.5 -43.5583 61.4971 -50.808 56.1525 -56.1525
C50.808 -61.4971 43.5583 -64.5 36 -64.5
C28.4417 -64.5 21.192 -61.4971 15.8475 -56.1525
C10.5029 -50.808 7.5 -43.5583 7.5 -36
C7.5 -28.4417 10.5029 -21.192 15.8475 -15.8475
C21.192 -10.5029 28.4417 -7.5 36 -7.5
z
" id="C0_0_a811fe30f3"/>
     <path d="
M39.1186 -7.67284
L39.4574 -7.88634
L39.7696 -8.10887
L40.054 -8.33972
L40.3098 -8.57821
L40.5362 -8.82366
L40.7332 -9.07538
L40.9008 -9.33276
L41.0397 -9.59521
L41.1505 -9.86219
L41.2346 -10.1332
L41.2932 -10.4079
L41.3281 -10.6858
L41.3409 -10.9666
L41.3334 -11.2501
L41.3075 -11.5359
L41.2648 -11.8238
L41.2071 -12.1137
L41.136 -12.4053
L41.053 -12.6985
L40.9595 -12.993
L40.8567 -13.2887
L40.7458 -13.5855
L40.6279 -13.8831
L40.5039 -14.1814
L40.3746 -14.4803
L40.2409 -14.7795
L40.1033 -15.079
L39.9627 -15.3786
L39.8193 -15.6781
L39.6739 -15.9775
L39.5267 -16.2765
L39.3782 -16.5751
L39.2287 -16.8732
L39.0786 -17.1706
L38.928 -17.4672
L38.7773 -17.763
L38.6267 -18.0578
L38.4762 -18.3516
L38.3262 -18.6442
L38.1767 -18.9356
L38.0278 -19.2258
L37.8798 -19.5147
L37.7326 -19.8022
L37.5863 -20.0883
L37.4411 -20.373
L37.297 -20.6561
L37.1539 -20.9378
L37.0121 -21.2179
L36.8714 -21.4965
L36.732 -21.7735
L36.5939 -22.0489
L36.457 -22.3228
L36.3213 -22.5951
L36.187 -22.8658
L36.0539 -23.1349
L35.9221 -23.4025
L35.7916 -23.6686
L35.6624 -23.9332
L35.5344 -24.1962
L35.4076 -24.4578
L35.2821 -24.718
L35.1577 -24.9767
L35.0346 -25.234
L34.9126 -25.49
L34.7918 -25.7446
L34.6721 -25.998
L34.5535 -26.2501
L34.436 -26.501
L34.3196 -26.7507
L34.2042 -26.9993
L34.0898 -27.2468
L33.9763 -27.4933
L33.8639 -27.7387
L33.7523 -27.9832
L33.6417 -28.2268
L33.5319 -28.4695
L33.423 -28.7114
L33.3149 -28.9525
L33.2076 -29.1929
L33.1011 -29.4326
L32.9954 -29.6717
L32.8903 -29.9101
L32.786 -30.1481
L32.6823 -30.3856
L32.5793 -30.6226
L32.4769 -30.8593
L32.375 -31.0956
L32.2738 -31.3316
L32.1731 -31.5675
L32.0729 -31.8031
L31.9733 -32.0386
L31.8741 -32.274
L31.7753 -32.5095
L31.677 -32.7449
L31.4816 -32.9804
L31.3844 -33.2161
L31.2876 -33.4519
L31.1911 -33.688
L31.0949 -33.9243
L30.999 -34.1611
L30.9033 -34.3982
L30.8079 -34.6357
L30.7127 -34.8738
L30.6177 -35.1124
L30.5229 -35.3516
L30.4282 -35.5915
L30.3337 -35.8322
L30.2393 -36.0736
L30.145 -36.3158
L30.0508 -36.5589
L29.9566 -36.8029
L29.8626 -37.0479
L29.7685 -37.294
L29.6745 -37.5411
L29.5805 -37.7895
L29.4864 -38.039
L29.3924 -38.2897
L29.2983 -38.5418
L29.2041 -38.7952
L29.1099 -39.0501
L29.0156 -39.3064
L28.9212 -39.5642
L28.8267 -39.8236
L28.7321 -40.0846
L28.6373 -40.3473
L28.5424 -40.6117
L28.4473 -40.8778
L28.3521 -41.1457
L28.2567 -41.4155
L28.1611 -41.6872
L28.0654 -41.9607
L27.9694 -42.2363
L27.8732 -42.5138
L27.7768 -42.7933
L27.6801 -43.0749
L27.5832 -43.3586
L27.4861 -43.6444
L27.3887 -43.9323
L27.2911 -44.2223
L27.1932 -44.5144
L27.095 -44.8087
L26.9965 -45.1052
L26.8977 -45.4037
L26.7987 -45.7044
L26.6993 -46.0071
L26.5995 -46.3119
L26.4994 -46.6187
L26.399 -46.9275
L26.2981 -47.2381
L26.1969 -47.5506
L26.0951 -47.8648
L25.9929 -48.1807
L25.8902 -48.498
L25.7869 -48.8168
L25.6829 -49.1368
L25.5783 -49.4579
L25.4728 -49.7799
L25.3665 -50.1025
L25.2592 -50.4256
L25.1507 -50.7489
L25.041 -51.072
L24.9298 -51.3947
L24.817 -51.7167
L24.7023 -52.0374
L24.5854 -52.3565
L24.466 -52.6736
L24.3438 -52.988
L24.2183 -53.2991
L24.0892 -53.6064
L23.9557 -53.9092
L23.8175 -54.2065
L23.6737 -54.4977
L23.5237 -54.7818
L23.3667 -55.0577
L23.2017 -55.3244
L23.0279 -55.5807
L22.8443 -55.8254
L22.6498 -56.0571
L22.4433 -56.2744
L22.224 -56.4759
L21.9909 -56.6602
L21.7432 -56.8259
L21.4801 -56.9716
L21.2014 -57.0961
L20.9066 -57.1983
L20.596 -57.2771
L20.2698 -57.332
L19.9286 -57.3624
L19.5733 -57.368
L19.2049 -57.3488
L18.8247 -57.305
L18.4339 -57.237
L18.0342 -57.1452
L17.6268 -57.0304
L17.2134 -56.8933
L16.7954 -56.7348
L16.3742 -56.5556
L15.9512 -56.3567
L15.5433 -56.139
L15.2001 -55.8438
L14.8633 -55.4837
L14.5328 -55.1178
L14.2089 -54.746
L13.8917 -54.3684
L13.5812 -53.9853
L13.2775 -53.5968
L12.9807 -53.2028
L12.6909 -52.8036
L12.4083 -52.3993
L12.1328 -51.99
L11.8646 -51.5759
L11.6038 -51.157
L11.3504 -50.7334
L11.1044 -50.3054
L10.8661 -49.873
L10.6354 -49.4364
L10.4125 -48.9957
L10.1974 -48.5511
L9.99006 -48.1026
L9.7907 -47.6505
L9.59931 -47.1947
L9.41597 -46.7356
L9.24073 -46.2732
L9.07363 -45.8077
L8.91474 -45.3392
L8.7641 -44.8679
L8.62176 -44.3938
L8.48775 -43.9172
L8.36213 -43.4382
L8.24493 -42.9569
L8.13618 -42.4735
L8.03591 -41.9881
L7.94417 -41.5009
L7.86097 -41.012
L7.78634 -40.5216
L7.72031 -40.0298
L7.66289 -39.5368
L7.6141 -39.0427
L7.57396 -38.5477
L7.54248 -38.0519
L7.51967 -37.5555
L7.50553 -37.0586
L7.50007 -36.5614
L7.5033 -36.064
L7.5152 -35.5666
L7.53578 -35.0694
L7.56503 -34.5724
L7.60294 -34.0758
L7.6495 -33.5799
L7.7047 -33.0846
L7.76852 -32.5903
L7.84094 -32.097
L7.92193 -31.6049
L8.01148 -31.1141
L8.10955 -30.6248
L8.21612 -30.1372
L8.33115 -29.6513
L8.45461 -29.1674
L8.58646 -28.6855
L8.72666 -28.2059
L8.87517 -27.7287
L9.03194 -27.2539
L9.19693 -26.7819
L9.37008 -26.3126
L9.55134 -25.8463
L9.74066 -25.3831
L9.93798 -24.9231
L10.1432 -24.4665
L10.3564 -24.0134
L10.5773 -23.564
L10.806 -23.1184
L11.0424 -22.6766
L11.2863 -22.239
L11.5378 -21.8055
L11.7968 -21.3763
L12.0631 -20.9516
L12.3367 -20.5315
L12.6175 -20.1161
L12.9054 -19.7056
L13.2004 -19.3
L13.5023 -18.8994
L13.8111 -18.5041
L14.1266 -18.1142
L14.4488 -17.7296
L14.7776 -17.3507
L15.1128 -16.9774
L15.4544 -16.6099
L15.8022 -16.2483
L16.1562 -15.8928
L16.5163 -15.5433
L16.8822 -15.2001
L17.254 -14.8633
L17.6316 -14.5328
L18.0147 -14.2089
L18.4032 -13.8917
L18.7972 -13.5812
L19.1964 -13.2775
L19.6007 -12.9807
L20.01 -12.6909
L20.4241 -12.4083
L20.843 -12.1328
L21.2666 -11.8646
L21.6946 -11.6038
L22.127 -11.3504
L22.5636 -11.1044
L23.0043 -10.8661
L23.4489 -10.6354
L23.8974 -10.4125
L24.3495 -10.1974
L24.8053 -9.99006
L25.2644 -9.7907
L25.7268 -9.59931
L26.1923 -9.41597
L26.6608 -9.24073
L27.1321 -9.07363
L27.6062 -8.91474
L28.0828 -8.7641
L28.5618 -8.62176
L29.0431 -8.48775
L29.5265 -8.36213
L30.0119 -8.24493
L30.4991 -8.13618
L30.988 -8.03591
L31.4784 -7.94417
L31.9702 -7.86097
L32.4632 -7.78634
L32.9573 -7.72031
L33.4523 -7.66289
L33.9481 -7.6141
L34.4445 -7.57396
L34.9414 -7.54248
L35.4386 -7.51967
L35.936 -7.50553
L36.4334 -7.50007
L36.9306 -7.5033
L37.4276 -7.5152
L37.9242 -7.53578
L38.4201 -7.56503
z
" id="C0_1_d364bcfa59"/>
     <path d="
M56.3965 -16.1703
L56.6264 -16.602
L56.8541 -17.0383
L57.0787 -17.4785
L57.2993 -17.9222
L57.5152 -18.3687
L57.7258 -18.8175
L57.9305 -19.2682
L58.1291 -19.7202
L58.321 -20.1732
L58.506 -20.6266
L58.6839 -21.0802
L58.8545 -21.5335
L59.0177 -21.9861
L59.1735 -22.4379
L59.3217 -22.8884
L59.4624 -23.3374
L59.5957 -23.7846
L59.7215 -24.2298
L59.8399 -24.6728
L59.9511 -25.1134
L60.055 -25.5514
L60.1519 -25.9867
L60.2419 -26.419
L60.325 -26.8484
L60.4015 -27.2747
L60.4714 -27.6978
L60.535 -28.1176
L60.5923 -28.5341
L60.6435 -28.9472
L60.6888 -29.3568
L60.7284 -29.763
L60.7623 -30.1657
L60.7907 -30.5648
L60.8138 -30.9605
L60.8317 -31.3526
L60.8445 -31.7412
L60.8524 -32.1263
L60.8555 -32.508
L60.854 -32.8862
L60.8479 -33.261
L60.8373 -33.6325
L60.8225 -34.0006
L60.8035 -34.3654
L60.7803 -34.7269
L60.7532 -35.0853
L60.7222 -35.4405
L60.6874 -35.7927
L60.6488 -36.1418
L60.6067 -36.4879
L60.5609 -36.8311
L60.5117 -37.1715
L60.459 -37.5091
L60.403 -37.8439
L60.3437 -38.1761
L60.2812 -38.5056
L60.2155 -38.8327
L60.1467 -39.1572
L60.0747 -39.4794
L59.9997 -39.7992
L59.9217 -40.1167
L59.8408 -40.432
L59.7568 -40.7451
L59.67 -41.0561
L59.5802 -41.3652
L59.4876 -41.6722
L59.3921 -41.9773
L59.2937 -42.2806
L59.1925 -42.5821
L59.0885 -42.8819
L58.9816 -43.18
L58.8719 -43.4765
L58.7593 -43.7715
L58.6439 -44.0649
L58.5256 -44.3569
L58.4045 -44.6475
L58.2805 -44.9368
L58.1535 -45.2247
L58.0237 -45.5114
L57.8909 -45.797
L57.7551 -46.0814
L57.6163 -46.3646
L57.4745 -46.6468
L57.3296 -46.928
L57.1815 -47.2083
L57.0304 -47.4876
L56.876 -47.7659
L56.7184 -48.0435
L56.5575 -48.3202
L56.3932 -48.596
L56.2256 -48.8712
L56.0544 -49.1456
L55.8798 -49.4192
L55.7016 -49.6922
L55.5197 -49.9645
L55.3342 -50.2362
L55.1448 -50.5072
L54.9516 -50.7776
L54.7544 -51.0474
L54.5533 -51.3166
L54.348 -51.5852
L54.1386 -51.8533
L53.9249 -52.1207
L53.7069 -52.3875
L53.4844 -52.6537
L53.2574 -52.9193
L53.0258 -53.1842
L52.7895 -53.4485
L52.5483 -53.7121
L52.3023 -53.975
L52.0512 -54.2371
L51.7951 -54.4984
L51.5337 -54.7589
L51.2671 -55.0186
L50.995 -55.2773
L50.7174 -55.535
L50.4342 -55.7916
L50.1454 -56.0471
L49.8507 -56.3013
L49.5501 -56.5543
L49.2436 -56.8059
L48.931 -57.0559
L48.6122 -57.3044
L48.2872 -57.5511
L47.9559 -57.796
L47.6183 -58.039
L47.2742 -58.2798
L46.9237 -58.5184
L46.5667 -58.7547
L46.2031 -58.9883
L45.833 -59.2193
L45.4564 -59.4475
L45.0733 -59.6726
L44.6837 -59.8945
L44.2877 -60.1131
L43.8854 -60.3281
L43.4769 -60.5393
L43.0623 -60.7467
L42.6418 -60.95
L42.2156 -61.1491
L41.7839 -61.3439
L41.3471 -61.534
L40.9053 -61.7196
L40.4591 -61.9003
L40.0088 -62.0762
L39.555 -62.2472
L39.0981 -62.4132
L38.6388 -62.5743
L38.1778 -62.7304
L37.7158 -62.8818
L37.2538 -63.0285
L36.7925 -63.1709
L36.3331 -63.3091
L35.8767 -63.4436
L35.4246 -63.5748
L34.978 -63.7033
L34.5384 -63.8297
L34.1073 -63.9548
L33.6863 -64.0793
L33.7566 -64.2043
L34.2528 -64.4116
L34.7496 -64.4464
L35.2467 -64.4726
L35.744 -64.49
L36.2414 -64.4989
L36.7387 -64.499
L37.2359 -64.4904
L37.7326 -64.4732
L38.2288 -64.4473
L38.7243 -64.4127
L39.219 -64.3695
L39.7128 -64.3176
L40.2053 -64.2571
L40.6967 -64.188
L41.1865 -64.1103
L41.6748 -64.0241
L42.1614 -63.9293
L42.6461 -63.826
L43.1288 -63.7142
L43.6093 -63.594
L44.0874 -63.4654
L44.5632 -63.3284
L45.0363 -63.1831
L45.5066 -63.0295
L45.9741 -62.8677
L46.4385 -62.6977
L46.8997 -62.5196
L47.3577 -62.3334
L47.8121 -62.1391
L48.263 -61.9369
L48.7101 -61.7268
L49.1534 -61.5089
L49.5926 -61.2832
L50.0277 -61.0498
L50.4586 -60.8087
L50.885 -60.5601
L51.3069 -60.3041
L51.7241 -60.0406
L52.1366 -59.7698
L52.5441 -59.4917
L52.9466 -59.2065
L53.3439 -58.9143
L53.736 -58.615
L54.1226 -58.3089
L54.5037 -57.9959
L54.8792 -57.6763
L55.2489 -57.3501
L55.6128 -57.0173
L55.9707 -56.6782
L56.3225 -56.3328
L56.6681 -55.9811
L57.0075 -55.6234
L57.3404 -55.2597
L57.6668 -54.8901
L57.9867 -54.5148
L58.2998 -54.1339
L58.6061 -53.7474
L58.9056 -53.3555
L59.1981 -52.9583
L59.4835 -52.556
L59.7617 -52.1486
L60.0327 -51.7363
L60.2964 -51.3192
L60.5527 -50.8974
L60.8015 -50.4711
L61.0428 -50.0404
L61.2764 -49.6054
L61.5024 -49.1663
L61.7205 -48.7232
L61.9309 -48.2762
L62.1333 -47.8254
L62.3278 -47.371
L62.5142 -46.9132
L62.6926 -46.4521
L62.8628 -45.9877
L63.0249 -45.5204
L63.1787 -45.0501
L63.3243 -44.5771
L63.4615 -44.1014
L63.5904 -43.6233
L63.7108 -43.1429
L63.8229 -42.6603
L63.9264 -42.1757
L64.0214 -41.6891
L64.1079 -41.2009
L64.1859 -40.7111
L64.2552 -40.2198
L64.316 -39.7272
L64.3681 -39.2335
L64.4116 -38.7389
L64.4464 -38.2434
L64.4726 -37.7472
L64.49 -37.2504
L64.4989 -36.7533
L64.499 -36.256
L64.4904 -35.7586
L64.4732 -35.2613
L64.4473 -34.7641
L64.4127 -34.2674
L64.3695 -33.7712
L64.3176 -33.2757
L64.2571 -32.781
L64.188 -32.2872
L64.1103 -31.7947
L64.0241 -31.3033
L63.9293 -30.8135
L63.826 -30.3252
L63.7142 -29.8386
L63.594 -29.3539
L63.4654 -28.8712
L63.3284 -28.3907
L63.1831 -27.9126
L63.0295 -27.4368
L62.8677 -26.9637
L62.6977 -26.4934
L62.5196 -26.0259
L62.3334 -25.5615
L62.1391 -25.1003
L61.9369 -24.6423
L61.7268 -24.1879
L61.5089 -23.737
L61.2832 -23.2899
L61.0498 -22.8466
L60.8087 -22.4074
L60.5601 -21.9723
L60.3041 -21.5414
L60.0406 -21.115
L59.7698 -20.6931
L59.4917 -20.2759
L59.2065 -19.8634
L58.9143 -19.4559
L58.615 -19.0534
L58.3089 -18.6561
L57.9959 -18.264
L57.6763 -17.8774
L57.3501 -17.4963
L57.0173 -17.1208
z
" id="C0_2_af95569d72"/>
    </defs>
    <g clip-path="url(#p1bffca34e9)">
     <use style="fill:#ff0000;stroke:#000000;stroke-width:2.0;" x="0.0" xlink:href="#C0_0_a811fe30f3" y="72.0"/>
    </g>
    <g clip-path="url(#p1bffca34e9)">
     <use style="fill:#ffffff;stroke:#000000;stroke-width:2.0;" x="0.0" xlink:href="#C0_1_d364bcfa59" y="72.0"/>
    </g>
    <g clip-path="url(#p1bffca34e9)">
     <use style="fill:#ffffff;stroke:#000000;stroke-width:2.0;" x="0.0" xlink:href="#C0_2_af95569d72" y="72.0"/>
    </g>
   </g>
  </g>
 </g>
 <defs>
  <clipPath id="p1bffca34e9">
   <rect height="72.0" width="72.0" x="0.0" y="0.0"/>
  </clipPath>
 </defs>
</svg>
