<?xml version="1.0" encoding="utf-8" standalone="no"?>
<!DOCTYPE svg PUBLIC "-//W3C//DTD SVG 1.1//EN"
  "http://www.w3.org/Graphics/SVG/1.1/DTD/svg11.dtd">
<!-- Created with matplotlib (http://matplotlib.org/) -->
<svg height="72pt" version="1.1" viewBox="0 0 72 72" width="72pt" xmlns="http://www.w3.org/2000/svg" xmlns:xlink="http://www.w3.org/1999/xlink">
 <defs>
  <style type="text/css">
*{stroke-linecap:butt;stroke-linejoin:round;}
  </style>
 </defs>
 <g id="figure_1">
  <g id="patch_1">
   <path d="
M0 72
L72 72
L72 0
L0 0
z
" style="fill:none;"/>
  </g>
  <g id="axes_1">
   <g id="PatchCollection_1">
    <defs>
     <path d="
M36 -7.5
C43.5583 -7.5 50.808 -10.5029 56.1525 -15.8475
C61.4971 -21.192 64.5 -28.4417 64.5 -36
C64.5 -43.5583 61.4971 -50.808 56.1525 -56.1525
C50.808 -61.4971 43.5583 -64.5 36 -64.5
C28.4417 -64.5 21.192 -61.4971 15.8475 -56.1525
C10.5029 -50.808 7.5 -43.5583 7.5 -36
C7.5 -28.4417 10.5029 -21.192 15.8475 -15.8475
C21.192 -10.5029 28.4417 -7.5 36 -7.5
z
" id="C0_0_a811fe30f3"/>
     <path d="
M64.3314 -37.2108
L64.1419 -37.1803
L63.9518 -37.1509
L63.7612 -37.1226
L63.57 -37.0952
L63.3782 -37.0688
L63.1858 -37.0433
L62.9928 -37.0187
L62.7992 -36.9949
L62.6049 -36.972
L62.41 -36.9499
L62.2143 -36.9286
L62.0179 -36.908
L61.8207 -36.8882
L61.6228 -36.8691
L61.424 -36.8506
L61.2244 -36.8329
L61.0239 -36.8158
L60.8224 -36.7993
L60.4167 -36.7835
L60.2123 -36.7683
L60.0068 -36.7537
L59.8003 -36.7396
L59.5926 -36.7262
L59.3837 -36.7133
L59.1736 -36.701
L58.9623 -36.6892
L58.7497 -36.678
L58.5357 -36.6673
L58.3203 -36.6572
L58.1035 -36.6476
L57.8852 -36.6385
L57.6654 -36.63
L57.4441 -36.622
L57.2211 -36.6145
L56.9964 -36.6075
L56.7701 -36.601
L56.542 -36.5951
L56.3121 -36.5897
L56.0803 -36.5849
L55.8466 -36.5806
L55.611 -36.5768
L55.3733 -36.5736
L55.1336 -36.5709
L54.8918 -36.5688
L54.6478 -36.5673
L54.4017 -36.5664
L54.1532 -36.566
L53.9025 -36.5663
L53.6494 -36.5672
L53.3939 -36.5688
L53.136 -36.571
L52.8756 -36.5739
L52.6126 -36.5775
L52.3471 -36.5818
L52.0789 -36.5868
L51.8081 -36.5926
L51.5346 -36.5992
L51.2583 -36.6066
L50.9793 -36.6149
L50.6975 -36.624
L50.4129 -36.6341
L50.1254 -36.6451
L49.8351 -36.6571
L49.5419 -36.6702
L49.2458 -36.6843
L48.9468 -36.6996
L48.6449 -36.7161
L48.3402 -36.7338
L48.0326 -36.7528
L47.7222 -36.7731
L47.409 -36.7949
L47.093 -36.8183
L46.7743 -36.8432
L46.453 -36.8697
L46.129 -36.8981
L45.8026 -36.9283
L45.4738 -36.9605
L45.1428 -36.9947
L44.8095 -37.0312
L44.4743 -37.0699
L44.1372 -37.1112
L43.7984 -37.1551
L43.4581 -37.2017
L43.1166 -37.2513
L42.774 -37.304
L42.4307 -37.36
L42.0868 -37.4196
L41.7427 -37.4829
L41.3988 -37.5502
L41.0553 -37.6218
L40.7127 -37.6978
L40.3712 -37.7786
L40.0315 -37.8645
L39.6938 -37.9558
L39.3586 -38.0528
L39.0265 -38.1558
L38.6979 -38.2652
L38.3733 -38.3813
L38.0532 -38.5045
L37.7382 -38.6351
L37.4288 -38.7735
L37.1254 -38.9199
L36.8287 -39.0747
L36.5389 -39.2382
L36.2567 -39.4106
L35.9824 -39.592
L35.7163 -39.7828
L35.4588 -39.9829
L35.2101 -40.1924
L34.9705 -40.4113
L34.7401 -40.6394
L34.5189 -40.8767
L34.3071 -41.1229
L34.1046 -41.3778
L33.9112 -41.6409
L33.727 -41.9119
L33.5517 -42.1904
L33.3852 -42.4759
L33.2272 -42.7679
L33.0774 -43.0658
L32.9357 -43.3692
L32.8018 -43.6775
L32.6753 -43.9902
L32.5561 -44.3068
L32.4437 -44.6266
L32.338 -44.9493
L32.2387 -45.2744
L32.1455 -45.6013
L32.0581 -45.9296
L31.9764 -46.259
L31.9 -46.589
L31.8288 -46.9193
L31.7625 -47.2495
L31.7009 -47.5793
L31.6438 -47.9084
L31.5911 -48.2366
L31.5425 -48.5635
L31.4979 -48.8891
L31.4572 -49.2129
L31.4201 -49.535
L31.3866 -49.8551
L31.3565 -50.173
L31.3296 -50.4886
L31.3059 -50.8019
L31.2852 -51.1126
L31.2675 -51.4208
L31.2526 -51.7263
L31.2403 -52.029
L31.2308 -52.329
L31.2237 -52.6261
L31.2191 -52.9204
L31.2169 -53.2118
L31.217 -53.5002
L31.2193 -53.7858
L31.2238 -54.0683
L31.2304 -54.348
L31.239 -54.6247
L31.2497 -54.8986
L31.2622 -55.1695
L31.2767 -55.4375
L31.293 -55.7027
L31.3111 -55.9651
L31.331 -56.2246
L31.3526 -56.4814
L31.3759 -56.7355
L31.4008 -56.9868
L31.4274 -57.2356
L31.4556 -57.4817
L31.4854 -57.7252
L31.5167 -57.9662
L31.5496 -58.2047
L31.584 -58.4408
L31.6199 -58.6745
L31.6574 -58.9059
L31.6963 -59.1349
L31.7366 -59.3617
L31.7785 -59.5863
L31.8218 -59.8087
L31.8666 -60.029
L31.9129 -60.2472
L31.9606 -60.4634
L32.0098 -60.6776
L32.0605 -60.8899
L32.1127 -61.1003
L32.1664 -61.3088
L32.2216 -61.5155
L32.2783 -61.7205
L32.3365 -61.9237
L32.3963 -62.1253
L32.4577 -62.3252
L32.5207 -62.5235
L32.5854 -62.7202
L32.6516 -62.9154
L32.7196 -63.1091
L32.7893 -63.3013
L32.8607 -63.4921
L32.934 -63.6815
L33.009 -63.8695
L33.0859 -64.0562
L33.57 -64.2415
L34.0659 -64.3962
L34.5625 -64.4343
L35.0595 -64.4637
L35.5567 -64.4845
L36.0541 -64.4966
L36.5515 -64.4999
L37.0487 -64.4947
L37.5456 -64.4807
L38.0421 -64.4581
L38.5379 -64.4267
L39.0329 -64.3868
L39.527 -64.3382
L40.02 -64.2809
L40.5118 -64.2151
L41.0023 -64.1406
L41.4912 -64.0576
L41.9784 -63.966
L42.4638 -63.8659
L42.9473 -63.7573
L43.4286 -63.6403
L43.9077 -63.5148
L44.3843 -63.381
L44.8584 -63.2388
L45.3299 -63.0883
L45.7984 -62.9296
L46.264 -62.7627
L46.7265 -62.5876
L47.1856 -62.4044
L47.6414 -62.2132
L48.0937 -62.014
L48.5422 -61.8069
L48.9869 -61.5919
L49.4277 -61.3691
L49.8644 -61.1385
L50.2968 -60.9004
L50.725 -60.6546
L51.1486 -60.4013
L51.5676 -60.1406
L51.9818 -59.8726
L52.3912 -59.5973
L52.7956 -59.3147
L53.1949 -59.0251
L53.589 -58.7285
L53.9777 -58.4249
L54.3609 -58.1146
L54.7385 -57.7974
L55.1104 -57.4737
L55.4765 -57.1434
L55.8367 -56.8066
L56.1908 -56.4635
L56.5387 -56.1142
L56.8805 -55.7588
L57.2158 -55.3973
L57.5447 -55.03
L57.867 -54.6568
L58.1827 -54.278
L58.4916 -53.8935
L58.7936 -53.5037
L59.0888 -53.1085
L59.3768 -52.7081
L59.6578 -52.3026
L59.9315 -51.8921
L60.198 -51.4768
L60.4571 -51.0568
L60.7087 -50.6322
L60.9529 -50.2031
L61.1894 -49.7697
L61.4182 -49.3321
L61.6393 -48.8905
L61.8526 -48.4449
L62.058 -47.9955
L62.2555 -47.5425
L62.445 -47.086
L62.6264 -46.6261
L62.7997 -46.1629
L62.9649 -45.6967
L63.1218 -45.2275
L63.2705 -44.7555
L63.4108 -44.2808
L63.5428 -43.8036
L63.6665 -43.324
L63.7817 -42.8422
L63.8884 -42.3584
L63.9867 -41.8725
L64.0764 -41.3849
L64.1575 -40.8957
L64.2301 -40.4049
L64.2941 -39.9128
L64.3495 -39.4195
L64.3962 -38.9252
L64.4343 -38.43
z
" id="C0_1_5c64aa13f7"/>
     <path d="
M38.822 -7.70717
L38.7081 -7.87279
L38.5947 -8.03984
L38.4816 -8.20837
L38.3688 -8.37838
L38.2563 -8.54993
L38.1442 -8.72304
L38.0322 -8.89774
L37.9205 -9.07406
L37.809 -9.25205
L37.6977 -9.43174
L37.5865 -9.61316
L37.4754 -9.79637
L37.3644 -9.98138
L37.2535 -10.1683
L37.1425 -10.357
L37.0316 -10.5477
L36.9207 -10.7404
L36.8097 -10.9351
L36.6986 -11.1319
L36.5874 -11.3308
L36.4761 -11.5319
L36.3647 -11.7352
L36.253 -11.9407
L36.1412 -12.1485
L36.0291 -12.3587
L35.9168 -12.5712
L35.8042 -12.7862
L35.6913 -13.0037
L35.578 -13.2237
L35.4644 -13.4463
L35.3504 -13.6715
L35.236 -13.8994
L35.1212 -14.1301
L35.0059 -14.3634
L34.8901 -14.5996
L34.7738 -14.8386
L34.6569 -15.0805
L34.5395 -15.3253
L34.4215 -15.5731
L34.3029 -15.8238
L34.1836 -16.0776
L34.0637 -16.3344
L33.943 -16.5942
L33.8216 -16.8571
L33.6994 -17.1231
L33.5764 -17.3922
L33.4526 -17.6644
L33.3279 -17.9397
L33.2023 -18.2181
L33.0757 -18.4995
L32.9481 -18.7839
L32.8195 -19.0714
L32.6898 -19.3618
L32.5589 -19.655
L32.4268 -19.9511
L32.2935 -20.25
L32.1589 -20.5515
L32.0229 -20.8555
L31.8854 -21.1619
L31.7463 -21.4707
L31.6057 -21.7815
L31.4633 -22.0943
L31.319 -22.4088
L31.1729 -22.7249
L31.0246 -23.0423
L30.8742 -23.3607
L30.7215 -23.6799
L30.5662 -23.9996
L30.4083 -24.3193
L30.2476 -24.6389
L30.0838 -24.9578
L29.9168 -25.2757
L29.7463 -25.5922
L29.5722 -25.9068
L29.3942 -26.219
L29.212 -26.5284
L29.0254 -26.8344
L28.8341 -27.1365
L28.6379 -27.4342
L28.4364 -27.727
L28.2295 -28.0143
L28.017 -28.2956
L27.7985 -28.5705
L27.574 -28.8385
L27.3432 -29.099
L27.106 -29.3519
L26.8623 -29.5966
L26.6122 -29.833
L26.3555 -30.0608
L26.0925 -30.2798
L25.8232 -30.49
L25.5478 -30.6914
L25.2665 -30.884
L24.9796 -31.0678
L24.6874 -31.2431
L24.3904 -31.4099
L24.0887 -31.5687
L23.783 -31.7196
L23.4735 -31.8629
L23.1608 -31.999
L22.8453 -32.1281
L22.5274 -32.2507
L22.2075 -32.367
L21.8861 -32.4774
L21.5636 -32.5822
L21.2404 -32.6818
L20.9169 -32.7764
L20.5934 -32.8663
L20.2703 -32.9519
L19.9479 -33.0334
L19.6264 -33.111
L19.3062 -33.185
L18.9875 -33.2557
L18.6705 -33.3231
L18.3555 -33.3875
L18.0427 -33.4492
L17.7321 -33.5082
L17.424 -33.5648
L17.1185 -33.619
L16.8158 -33.6711
L16.5159 -33.721
L16.2189 -33.7691
L15.9249 -33.8153
L15.634 -33.8598
L15.3462 -33.9026
L15.0617 -33.944
L14.7803 -33.9838
L14.5022 -34.0223
L14.2273 -34.0594
L13.9557 -34.0953
L13.6873 -34.13
L13.4223 -34.1636
L13.1605 -34.1961
L12.9019 -34.2276
L12.6465 -34.2581
L12.3944 -34.2877
L12.1454 -34.3164
L11.8995 -34.3442
L11.6568 -34.3712
L11.4171 -34.3975
L11.1805 -34.4229
L10.9468 -34.4476
L10.7161 -34.4717
L10.4882 -34.495
L10.2632 -34.5177
L10.041 -34.5398
L9.82156 -34.5613
L9.6048 -34.5821
L9.3907 -34.6024
L9.17919 -34.6222
L8.97023 -34.6414
L8.76376 -34.6601
L8.55974 -34.6782
L8.35811 -34.6959
L8.15882 -34.7131
L7.96183 -34.7298
L7.76708 -34.746
L7.55299 -34.7617
L7.58763 -34.2629
L7.63094 -33.7667
L7.68288 -33.2712
L7.74345 -32.7765
L7.81263 -32.2828
L7.89039 -31.7902
L7.97672 -31.2989
L8.07158 -30.8091
L8.17495 -30.3208
L8.2868 -29.8342
L8.40709 -29.3496
L8.53578 -28.8669
L8.67284 -28.3864
L8.81822 -27.9083
L8.97188 -27.4326
L9.13377 -26.9595
L9.30385 -26.4892
L9.48206 -26.0217
L9.66835 -25.5573
L9.86266 -25.0961
L10.0649 -24.6382
L10.2751 -24.1838
L10.4931 -23.733
L10.7189 -23.2859
L10.9524 -22.8427
L11.1935 -22.4035
L11.4421 -21.9684
L11.6983 -21.5376
L11.9618 -21.1112
L12.2327 -20.6893
L12.5108 -20.2722
L12.7961 -19.8598
L13.0884 -19.4523
L13.3877 -19.0498
L13.6939 -18.6525
L14.0069 -18.2605
L14.3266 -17.874
L14.6529 -17.4929
L14.9857 -17.1174
L15.3249 -16.7478
L15.6704 -16.3839
L16.0221 -16.0261
L16.3798 -15.6743
L16.7436 -15.3288
L17.1132 -14.9895
L17.4886 -14.6566
L17.8696 -14.3303
L18.2561 -14.0105
L18.6481 -13.6974
L19.0453 -13.3911
L19.4477 -13.0918
L19.8551 -12.7993
L20.2674 -12.514
L20.6846 -12.2358
L21.1064 -11.9649
L21.5327 -11.7012
L21.9635 -11.445
L22.3985 -11.1963
L22.8377 -10.9551
L23.2808 -10.7215
L23.7279 -10.4956
L24.1787 -10.2775
L24.6331 -10.0673
L25.0909 -9.86491
L25.5521 -9.67051
L26.0164 -9.48413
L26.4838 -9.30583
L26.9541 -9.13566
L27.4272 -8.97367
L27.9029 -8.81992
L28.381 -8.67444
L28.8614 -8.53729
L29.3441 -8.4085
L29.8287 -8.28812
L30.3152 -8.17618
L30.8035 -8.07271
L31.2934 -7.97775
L31.7846 -7.89133
L32.2772 -7.81347
L32.7709 -7.74419
L33.2656 -7.68352
L33.7611 -7.63148
L34.2573 -7.58808
L34.754 -7.55333
L35.2511 -7.52725
L35.7485 -7.50984
L36.2459 -7.50111
L36.7432 -7.50106
L37.2403 -7.50969
L37.7371 -7.527
L38.2333 -7.55299
z
" id="C0_2_c234100d99"/>
    </defs>
    <g clip-path="url(#p1bffca34e9)">
     <use style="fill:#ffffff;stroke:#000000;stroke-width:2.0;" x="0.0" xlink:href="#C0_0_a811fe30f3" y="72.0"/>
    </g>
    <g clip-path="url(#p1bffca34e9)">
     <use style="fill:#ff0000;stroke:#000000;stroke-width:2.0;" x="0.0" xlink:href="#C0_1_5c64aa13f7" y="72.0"/>
    </g>
    <g clip-path="url(#p1bffca34e9)">
     <use style="fill:#ff0000;stroke:#000000;stroke-width:2.0;" x="0.0" xlink:href="#C0_2_c234100d99" y="72.0"/>
    </g>
   </g>
  </g>
 </g>
 <defs>
  <clipPath id="p1bffca34e9">
   <rect height="72.0" width="72.0" x="0.0" y="0.0"/>
  </clipPath>
 </defs>
</svg>
