<?xml version="1.0" encoding="utf-8" standalone="no"?>
<!DOCTYPE svg PUBLIC "-//W3C//DTD SVG 1.1//EN"
  "http://www.w3.org/Graphics/SVG/1.1/DTD/svg11.dtd">
<!-- Created with matplotlib (http://matplotlib.org/) -->
<svg height="72pt" version="1.1" viewBox="0 0 72 72" width="72pt" xmlns="http://www.w3.org/2000/svg" xmlns:xlink="http://www.w3.org/1999/xlink">
 <defs>
  <style type="text/css">
*{stroke-linecap:butt;stroke-linejoin:round;}
  </style>
 </defs>
 <g id="figure_1">
  <g id="patch_1">
   <path d="
M0 72
L72 72
L72 0
L0 0
z
" style="fill:none;"/>
  </g>
  <g id="axes_1">
   <g id="PatchCollection_1">
    <defs>
     <path d="
M36 -7.5
C43.5583 -7.5 50.808 -10.5029 56.1525 -15.8475
C61.4971 -21.192 64.5 -28.4417 64.5 -36
C64.5 -43.5583 61.4971 -50.808 56.1525 -56.1525
C50.808 -61.4971 43.5583 -64.5 36 -64.5
C28.4417 -64.5 21.192 -61.4971 15.8475 -56.1525
C10.5029 -50.808 7.5 -43.5583 7.5 -36
C7.5 -28.4417 10.5029 -21.192 15.8475 -15.8475
C21.192 -10.5029 28.4417 -7.5 36 -7.5
z
" id="C0_0_a811fe30f3"/>
     <path d="
M26.1487 -36.4338
L26.1675 -36.1703
L26.1879 -35.9067
L26.2099 -35.6431
L26.2336 -35.3795
L26.2589 -35.1158
L26.2858 -34.8519
L26.3144 -34.5879
L26.3446 -34.3236
L26.3766 -34.059
L26.4102 -33.7941
L26.4456 -33.5289
L26.4827 -33.2632
L26.5215 -32.9971
L26.5622 -32.7305
L26.6047 -32.4634
L26.649 -32.1957
L26.6952 -31.9274
L26.7433 -31.6584
L26.7933 -31.3888
L26.8453 -31.1184
L26.8994 -30.8473
L26.9554 -30.5755
L27.0136 -30.3027
L27.0739 -30.0292
L27.1364 -29.7548
L27.2011 -29.4794
L27.2681 -29.2032
L27.3374 -28.926
L27.4091 -28.6478
L27.4833 -28.3686
L27.56 -28.0884
L27.6392 -27.8072
L27.7211 -27.525
L27.8057 -27.2418
L27.893 -26.9575
L27.9832 -26.6722
L28.0764 -26.3858
L28.1725 -26.0985
L28.2717 -25.8101
L28.374 -25.5207
L28.4796 -25.2304
L28.5885 -24.9392
L28.7009 -24.6471
L28.8168 -24.3542
L28.9362 -24.0604
L29.0595 -23.766
L29.1865 -23.4708
L29.3174 -23.1751
L29.4524 -22.8789
L29.5916 -22.5824
L29.735 -22.2855
L29.8827 -21.9884
L30.035 -21.6913
L30.1919 -21.3943
L30.3535 -21.0976
L30.52 -20.8014
L30.6914 -20.5057
L30.868 -20.2109
L31.0499 -19.9171
L31.2372 -19.6246
L31.4299 -19.3337
L31.6284 -19.0446
L31.8326 -18.7576
L32.0428 -18.4731
L32.2591 -18.1914
L32.4816 -17.9128
L32.7104 -17.6378
L32.9458 -17.3668
L33.1877 -17.1002
L33.4365 -16.8385
L33.6921 -16.5822
L33.9547 -16.3319
L34.2245 -16.088
L34.5014 -15.8512
L34.7857 -15.6221
L35.0774 -15.4014
L35.3765 -15.1896
L35.6831 -14.9875
L35.9973 -14.7957
L36.3189 -14.6149
L36.648 -14.446
L36.9845 -14.2894
L37.3282 -14.146
L37.679 -14.0164
L38.0367 -13.9011
L38.401 -13.8009
L38.7716 -13.7162
L39.1481 -13.6474
L39.53 -13.5949
L39.917 -13.5591
L40.3085 -13.5402
L40.7038 -13.5382
L41.1024 -13.5531
L41.5037 -13.585
L41.9069 -13.6337
L42.3114 -13.6988
L42.7165 -13.7801
L43.1215 -13.8773
L43.5258 -13.9897
L43.9286 -14.117
L44.3294 -14.2586
L44.7275 -14.4139
L45.1225 -14.5823
L45.5137 -14.7633
L45.9006 -14.9561
L46.2828 -15.1601
L46.6599 -15.3749
L47.0316 -15.5996
L47.3974 -15.8337
L47.757 -16.0767
L48.1102 -16.3279
L48.4569 -16.5868
L48.7967 -16.8529
L49.1295 -17.1255
L49.4551 -17.4043
L49.7736 -17.6888
L50.0847 -17.9785
L50.3884 -18.2729
L50.6848 -18.5717
L50.9737 -18.8744
L51.2551 -19.1807
L51.5291 -19.4902
L51.7958 -19.8027
L52.0551 -20.1177
L52.3071 -20.435
L52.5519 -20.7544
L52.7895 -21.0755
L53.0201 -21.3982
L53.2437 -21.7221
L53.4604 -22.0471
L53.6703 -22.3731
L53.8735 -22.6997
L54.0702 -23.0269
L54.2604 -23.3545
L54.4442 -23.6823
L54.6219 -24.0103
L54.7934 -24.3383
L54.9589 -24.6661
L55.1185 -24.9938
L55.2723 -25.3212
L55.4205 -25.6482
L55.5631 -25.9748
L55.7003 -26.3008
L55.8321 -26.6263
L55.9588 -26.9512
L56.0803 -27.2755
L56.1968 -27.599
L56.3083 -27.9219
L56.4151 -28.244
L56.5171 -28.5653
L56.6145 -28.8859
L56.7073 -29.2056
L56.7957 -29.5246
L56.8797 -29.8428
L56.9594 -30.1602
L57.0349 -30.4768
L57.1062 -30.7926
L57.1735 -31.1076
L57.2367 -31.4219
L57.296 -31.7355
L57.3514 -32.0483
L57.403 -32.3604
L57.4507 -32.6718
L57.4948 -32.9825
L57.5351 -33.2927
L57.5718 -33.6022
L57.605 -33.9111
L57.6345 -34.2195
L57.6606 -34.5273
L57.6831 -34.8347
L57.7022 -35.1416
L57.7178 -35.4481
L57.73 -35.7542
L57.7388 -36.06
L57.7442 -36.3654
L57.7463 -36.6705
L57.745 -36.9754
L57.7403 -37.2801
L57.7323 -37.5846
L57.7209 -37.889
L57.7062 -38.1932
L57.6881 -38.4974
L57.6667 -38.8015
L57.6418 -39.1057
L57.6136 -39.4099
L57.582 -39.7141
L57.5469 -40.0185
L57.5084 -40.323
L57.4664 -40.6276
L57.4209 -40.9325
L57.3719 -41.2376
L57.3192 -41.5429
L57.263 -41.8486
L57.2031 -42.1545
L57.1395 -42.4608
L57.0721 -42.7675
L57.0009 -43.0745
L56.9259 -43.382
L56.8469 -43.6898
L56.764 -43.9982
L56.677 -44.3069
L56.5859 -44.6162
L56.4906 -44.9259
L56.3911 -45.2361
L56.2872 -45.5468
L56.1789 -45.858
L56.0661 -46.1697
L55.9487 -46.4818
L55.8266 -46.7944
L55.6998 -47.1075
L55.5681 -47.421
L55.4314 -47.7349
L55.2896 -48.0491
L55.1427 -48.3637
L54.9905 -48.6786
L54.8329 -48.9938
L54.6699 -49.3091
L54.5012 -49.6246
L54.3268 -49.9401
L54.1465 -50.2556
L53.9603 -50.571
L53.768 -50.8862
L53.5695 -51.2011
L53.3647 -51.5155
L53.1535 -51.8295
L52.9357 -52.1427
L52.7112 -52.4551
L52.48 -52.7666
L52.2419 -53.0768
L51.9968 -53.3858
L51.7447 -53.6931
L51.4853 -53.9988
L51.2186 -54.3024
L50.9446 -54.6038
L50.6632 -54.9028
L50.3743 -55.1989
L50.0778 -55.492
L49.7738 -55.7817
L49.4621 -56.0677
L49.1429 -56.3497
L48.816 -56.6272
L48.4816 -56.9
L48.1396 -57.1675
L47.7902 -57.4294
L47.4335 -57.6852
L47.0695 -57.9344
L46.6985 -58.1767
L46.3206 -58.4114
L45.9361 -58.638
L45.5452 -58.8561
L45.1482 -59.065
L44.7455 -59.2643
L44.3374 -59.4532
L43.9245 -59.6314
L43.507 -59.7981
L43.0857 -59.9528
L42.6609 -60.0949
L42.2334 -60.2239
L41.8038 -60.3391
L41.3728 -60.4401
L40.941 -60.5263
L40.5093 -60.5974
L40.0785 -60.6528
L39.6492 -60.6922
L39.2223 -60.7153
L38.7987 -60.7219
L38.379 -60.7118
L37.9641 -60.685
L37.5547 -60.6415
L37.1513 -60.5815
L36.7548 -60.505
L36.3656 -60.4124
L35.9842 -60.3041
L35.611 -60.1805
L35.2465 -60.0421
L34.8909 -59.8896
L34.5445 -59.7234
L34.2073 -59.5444
L33.8796 -59.3531
L33.5613 -59.1502
L33.2525 -58.9365
L32.9531 -58.7127
L32.6631 -58.4794
L32.3823 -58.2374
L32.1106 -57.9873
L31.8479 -57.7298
L31.594 -57.4654
L31.3487 -57.1948
L31.1118 -56.9186
L30.8832 -56.6373
L30.6625 -56.3514
L30.4497 -56.0614
L30.2445 -55.7677
L30.0467 -55.4707
L29.8561 -55.171
L29.6724 -54.8688
L29.4956 -54.5644
L29.3253 -54.2583
L29.1614 -53.9507
L29.0037 -53.6419
L28.8521 -53.3322
L28.7062 -53.0218
L28.566 -52.7108
L28.4313 -52.3997
L28.3018 -52.0884
L28.1775 -51.7772
L28.0582 -51.4662
L27.9437 -51.1557
L27.8339 -50.8456
L27.7285 -50.5362
L27.6276 -50.2275
L27.5309 -49.9197
L27.4383 -49.6127
L27.3497 -49.3068
L27.265 -49.0018
L27.184 -48.698
L27.1066 -48.3954
L27.0328 -48.094
L26.9623 -47.7938
L26.8952 -47.4948
L26.8312 -47.1972
L26.7704 -46.9008
L26.7126 -46.6057
L26.6577 -46.312
L26.6057 -46.0196
L26.5564 -45.7285
L26.5099 -45.4387
L26.4659 -45.1502
L26.4245 -44.863
L26.3856 -44.5771
L26.3491 -44.2924
L26.315 -44.009
L26.2831 -43.7267
L26.2535 -43.4456
L26.2261 -43.1657
L26.2008 -42.8869
L26.1777 -42.6093
L26.1565 -42.3326
L26.1374 -42.057
L26.1203 -41.7824
L26.1051 -41.5087
L26.0917 -41.2359
L26.0803 -40.964
L26.0707 -40.6929
L26.0628 -40.4227
L26.0568 -40.1531
L26.0525 -39.8843
L26.0499 -39.6161
L26.0491 -39.3486
L26.0499 -39.0816
L26.0524 -38.8152
L26.0566 -38.5493
L26.0624 -38.2838
L26.0699 -38.0187
L26.079 -37.7539
L26.0897 -37.4895
L26.1021 -37.2253
L26.116 -36.9613
z
" id="C0_1_725a00c0b9"/>
    </defs>
    <g clip-path="url(#p1bffca34e9)">
     <use style="fill:#ffffff;stroke:#000000;stroke-width:2.0;" x="0.0" xlink:href="#C0_0_a811fe30f3" y="72.0"/>
    </g>
    <g clip-path="url(#p1bffca34e9)">
     <use style="fill:#ff0000;stroke:#000000;stroke-width:2.0;" x="0.0" xlink:href="#C0_1_725a00c0b9" y="72.0"/>
    </g>
   </g>
  </g>
 </g>
 <defs>
  <clipPath id="p1bffca34e9">
   <rect height="72.0" width="72.0" x="0.0" y="0.0"/>
  </clipPath>
 </defs>
</svg>
