<?xml version="1.0" encoding="utf-8" standalone="no"?>
<!DOCTYPE svg PUBLIC "-//W3C//DTD SVG 1.1//EN"
  "http://www.w3.org/Graphics/SVG/1.1/DTD/svg11.dtd">
<!-- Created with matplotlib (http://matplotlib.org/) -->
<svg height="72pt" version="1.1" viewBox="0 0 72 72" width="72pt" xmlns="http://www.w3.org/2000/svg" xmlns:xlink="http://www.w3.org/1999/xlink">
 <defs>
  <style type="text/css">
*{stroke-linecap:butt;stroke-linejoin:round;}
  </style>
 </defs>
 <g id="figure_1">
  <g id="patch_1">
   <path d="
M0 72
L72 72
L72 0
L0 0
z
" style="fill:none;"/>
  </g>
  <g id="axes_1">
   <g id="PatchCollection_1">
    <defs>
     <path d="
M36 -7.5
C43.5583 -7.5 50.808 -10.5029 56.1525 -15.8475
C61.4971 -21.192 64.5 -28.4417 64.5 -36
C64.5 -43.5583 61.4971 -50.808 56.1525 -56.1525
C50.808 -61.4971 43.5583 -64.5 36 -64.5
C28.4417 -64.5 21.192 -61.4971 15.8475 -56.1525
C10.5029 -50.808 7.5 -43.5583 7.5 -36
C7.5 -28.4417 10.5029 -21.192 15.8475 -15.8475
C21.192 -10.5029 28.4417 -7.5 36 -7.5
z
" id="C0_0_a811fe30f3"/>
     <path d="
M18.3211 -13.8273
L18.2331 -14.1535
L18.165 -14.4734
L18.1171 -14.7863
L18.0893 -15.0917
L18.0814 -15.3891
L18.0934 -15.6781
L18.1249 -15.9585
L18.1754 -16.23
L18.2445 -16.4925
L18.3316 -16.7462
L18.4359 -16.991
L18.5569 -17.2273
L18.6936 -17.4552
L18.8452 -17.6751
L19.0108 -17.8873
L19.1896 -18.0924
L19.3806 -18.2906
L19.583 -18.4826
L19.7959 -18.6687
L20.0184 -18.8495
L20.2497 -19.0252
L20.489 -19.1965
L20.7355 -19.3636
L20.9885 -19.5271
L21.2474 -19.6871
L21.5114 -19.8441
L21.7801 -19.9984
L22.0527 -20.1503
L22.3289 -20.2999
L22.608 -20.4476
L22.8898 -20.5936
L23.1736 -20.7379
L23.4592 -20.8809
L23.7462 -21.0226
L24.0343 -21.1632
L24.3232 -21.3028
L24.6125 -21.4414
L24.9021 -21.5793
L25.1917 -21.7164
L25.4811 -21.8529
L25.7702 -21.9887
L26.0587 -22.124
L26.3464 -22.2588
L26.6334 -22.3931
L26.9194 -22.5269
L27.2043 -22.6604
L27.488 -22.7935
L27.7704 -22.9262
L28.0516 -23.0586
L28.3313 -23.1907
L28.6096 -23.3224
L28.8864 -23.4539
L29.1616 -23.5851
L29.4353 -23.7161
L29.7074 -23.8468
L29.9779 -23.9773
L30.2467 -24.1075
L30.5139 -24.2376
L30.7795 -24.3674
L31.0435 -24.497
L31.3058 -24.6264
L31.5665 -24.7557
L31.8256 -24.8848
L32.0831 -25.0138
L32.3391 -25.1426
L32.5935 -25.2712
L32.8464 -25.3998
L33.0978 -25.5282
L33.3478 -25.6566
L33.5963 -25.7849
L33.8434 -25.9131
L34.0891 -26.0413
L34.3335 -26.1694
L34.5767 -26.2975
L34.8185 -26.4257
L35.0592 -26.5538
L35.2986 -26.6819
L35.537 -26.8101
L35.7742 -26.9384
L36.0104 -27.0668
L36.2455 -27.1952
L36.4797 -27.3238
L36.7129 -27.4525
L36.9453 -27.5814
L37.1768 -27.7105
L37.4075 -27.8397
L37.6375 -27.9692
L37.8667 -28.099
L38.0953 -28.229
L38.3232 -28.3593
L38.5505 -28.4899
L38.7773 -28.6209
L39.0036 -28.7522
L39.2295 -28.8839
L39.4549 -29.016
L39.9047 -29.1485
L40.1291 -29.2815
L40.3533 -29.415
L40.5773 -29.549
L40.8012 -29.6835
L41.0249 -29.8186
L41.2486 -29.9543
L41.4722 -30.0906
L41.6959 -30.2275
L41.9196 -30.3651
L42.1434 -30.5034
L42.3673 -30.6424
L42.5914 -30.7822
L42.8157 -30.9227
L43.0403 -31.064
L43.2651 -31.2062
L43.4903 -31.3493
L43.7158 -31.4932
L43.9418 -31.6381
L44.1681 -31.7838
L44.395 -31.9306
L44.6224 -32.0784
L44.8503 -32.2272
L45.0788 -32.377
L45.3079 -32.5279
L45.5376 -32.68
L45.768 -32.8331
L45.9991 -32.9874
L46.231 -33.1429
L46.4636 -33.2996
L46.697 -33.4575
L46.9313 -33.6167
L47.1663 -33.7771
L47.4022 -33.9388
L47.639 -34.1018
L47.8767 -34.2661
L48.1154 -34.4317
L48.3549 -34.5986
L48.5954 -34.7669
L48.8369 -34.9366
L49.0794 -35.1076
L49.3228 -35.2799
L49.5672 -35.4535
L49.8126 -35.6285
L50.059 -35.8048
L50.3064 -35.9823
L50.5548 -36.1611
L50.8041 -36.3412
L51.0544 -36.5224
L51.3057 -36.7048
L51.5579 -36.8882
L51.8111 -37.0727
L52.0651 -37.2581
L52.3201 -37.4443
L52.5759 -37.6313
L52.8325 -37.819
L53.0899 -38.0072
L53.3481 -38.1957
L53.607 -38.3845
L53.8666 -38.5733
L54.1268 -38.762
L54.3877 -38.9503
L54.6491 -39.1381
L54.9111 -39.3249
L55.1735 -39.5107
L55.4364 -39.6949
L55.6997 -39.8774
L55.9633 -40.0576
L56.2273 -40.2352
L56.4915 -40.4098
L56.756 -40.5807
L57.0207 -40.7476
L57.2857 -40.9098
L57.5508 -41.0667
L57.8161 -41.2176
L58.0815 -41.3618
L58.3471 -41.4985
L58.6128 -41.6269
L58.8786 -41.7462
L59.1445 -41.8554
L59.4106 -41.9536
L59.6767 -42.0399
L59.9429 -42.1132
L60.2092 -42.1726
L60.4753 -42.217
L60.7414 -42.2455
L61.0072 -42.2571
L61.2726 -42.251
L61.5374 -42.2262
L61.8015 -42.1822
L62.0644 -42.1181
L62.326 -42.0336
L62.5859 -41.9281
L62.8436 -41.8014
L63.0987 -41.6535
L63.3508 -41.4842
L63.5994 -41.2938
L63.844 -41.0825
L64.084 -40.8506
L64.2015 -40.5988
L64.269 -40.114
L64.3279 -39.6212
L64.3782 -39.1273
L64.4198 -38.6324
L64.4528 -38.1367
L64.477 -37.6404
L64.4927 -37.1436
L64.4996 -36.6464
L64.4979 -36.1491
L64.4875 -35.6516
L64.4684 -35.1543
L64.4406 -34.6573
L64.4042 -34.1607
L64.3591 -33.6646
L64.3053 -33.1692
L64.243 -32.6747
L64.1721 -32.1812
L64.0925 -31.6889
L64.0044 -31.1979
L63.9078 -30.7083
L63.8027 -30.2204
L63.6891 -29.7342
L63.5671 -29.25
L63.4367 -28.7677
L63.2979 -28.2877
L63.1508 -27.8101
L62.9954 -27.3349
L62.8319 -26.8624
L62.6601 -26.3926
L62.4802 -25.9258
L62.2923 -25.4621
L62.0963 -25.0015
L61.8924 -24.5443
L61.6806 -24.0906
L61.461 -23.6406
L61.2336 -23.1943
L60.9986 -22.7519
L60.7559 -22.3135
L60.5057 -21.8793
L60.248 -21.4494
L59.983 -21.0239
L59.7106 -20.603
L59.431 -20.1868
L59.1443 -19.7754
L58.8505 -19.3689
L58.5498 -18.9676
L58.2422 -18.5713
L57.9278 -18.1805
L57.6067 -17.795
L57.2791 -17.4151
L56.945 -17.0408
L56.6044 -16.6723
L56.2577 -16.3097
L55.9047 -15.9531
L55.5457 -15.6026
L55.1807 -15.2584
L54.8099 -14.9204
L54.4334 -14.5889
L54.0512 -14.2638
L53.6636 -13.9454
L53.2705 -13.6338
L52.8722 -13.3289
L52.4688 -13.0309
L52.0604 -12.74
L51.647 -12.4561
L51.2289 -12.1794
L50.8062 -11.9099
L50.3789 -11.6478
L49.9473 -11.3931
L49.5114 -11.1459
L49.0714 -10.9063
L48.6274 -10.6743
L48.1795 -10.4501
L47.728 -10.2336
L47.2729 -10.0249
L46.8143 -9.82421
L46.3525 -9.63146
L45.8875 -9.44674
L45.4195 -9.27011
L44.9486 -9.10162
L44.475 -8.94132
L43.9988 -8.78927
L43.5202 -8.6455
L43.0393 -8.51007
L42.5563 -8.38301
L42.0712 -8.26436
L41.5843 -8.15417
L41.0957 -8.05245
L40.6055 -7.95925
L40.114 -7.87459
L39.6212 -7.79849
L39.1273 -7.73099
L38.6324 -7.67209
L38.1367 -7.62183
L37.6404 -7.58021
L37.1436 -7.54725
L36.6464 -7.52295
L36.1491 -7.50733
L35.6516 -7.50039
L35.1543 -7.50213
L34.6573 -7.51255
L34.1607 -7.53165
L33.6646 -7.55942
L33.1692 -7.59585
L32.6747 -7.64093
L32.1812 -7.69466
L31.6889 -7.757
L31.1979 -7.82795
L30.7083 -7.90748
L30.2204 -7.99557
L29.7342 -8.09218
L29.25 -8.1973
L28.7677 -8.31089
L28.2877 -8.43291
L27.8101 -8.56333
L27.3349 -8.70211
L26.8624 -8.8492
L26.3926 -9.00456
L25.9258 -9.16815
L25.4621 -9.3399
L25.0015 -9.51978
L24.5443 -9.70773
L24.0906 -9.90368
L23.6406 -10.1076
L23.1943 -10.3194
L22.7519 -10.539
L22.3135 -10.7664
L21.8793 -11.0014
L21.4494 -11.2441
L21.0239 -11.4943
L20.603 -11.752
L20.1868 -12.017
L19.7754 -12.2894
L19.3689 -12.569
L18.9676 -12.8557
z
" id="C0_1_5771d051aa"/>
     <path d="
M7.97369 -31.7173
L8.11359 -32.0563
L8.25334 -32.4038
L8.3934 -32.7587
L8.53417 -33.1201
L8.67604 -33.4872
L8.81934 -33.8589
L8.96439 -34.2346
L9.11145 -34.6134
L9.26075 -34.9945
L9.4125 -35.3772
L9.56684 -35.7609
L9.72392 -36.145
L9.88382 -36.529
L10.0466 -36.9122
L10.2124 -37.2943
L10.3811 -37.6748
L10.5527 -38.0533
L10.7274 -38.4294
L10.9049 -38.8029
L11.0853 -39.1734
L11.2686 -39.5408
L11.4546 -39.9047
L11.6432 -40.265
L11.8345 -40.6215
L12.0283 -40.974
L12.2246 -41.3225
L12.4231 -41.6668
L12.624 -42.0068
L12.827 -42.3425
L13.0321 -42.6738
L13.2391 -43.0006
L13.4481 -43.323
L13.6588 -43.6409
L13.8713 -43.9543
L14.0854 -44.2632
L14.3011 -44.5675
L14.5183 -44.8675
L14.7369 -45.1629
L14.9569 -45.454
L15.1781 -45.7407
L15.4006 -46.023
L15.6243 -46.3011
L15.849 -46.5749
L16.0749 -46.8445
L16.3018 -47.1099
L16.5296 -47.3713
L16.7584 -47.6287
L16.9882 -47.8821
L17.2188 -48.1317
L17.4503 -48.3773
L17.6826 -48.6193
L17.9157 -48.8575
L18.1496 -49.092
L18.3844 -49.323
L18.6199 -49.5505
L18.8561 -49.7745
L19.0932 -49.9951
L19.331 -50.2124
L19.5695 -50.4265
L19.8089 -50.6373
L20.049 -50.845
L20.2898 -51.0496
L20.5315 -51.2512
L20.774 -51.4497
L21.0172 -51.6454
L21.2614 -51.8382
L21.5063 -52.0282
L21.7522 -52.2155
L21.9989 -52.4
L22.2466 -52.5818
L22.4952 -52.7611
L22.7447 -52.9377
L22.9953 -53.1118
L23.2469 -53.2834
L23.4995 -53.4526
L23.7533 -53.6193
L24.0082 -53.7837
L24.2642 -53.9457
L24.5215 -54.1053
L24.78 -54.2627
L25.0397 -54.4178
L25.3008 -54.5707
L25.5633 -54.7214
L25.8272 -54.8698
L26.0925 -55.0161
L26.3593 -55.1603
L26.6277 -55.3023
L26.8977 -55.4421
L27.1693 -55.5799
L27.4426 -55.7155
L27.7176 -55.8491
L27.9945 -55.9806
L28.2731 -56.1099
L28.5537 -56.2372
L28.8362 -56.3624
L29.1207 -56.4855
L29.4073 -56.6065
L29.696 -56.7254
L29.9868 -56.8422
L30.2798 -56.9569
L30.5752 -57.0693
L30.8728 -57.1797
L31.1729 -57.2878
L31.4753 -57.3937
L31.7803 -57.4974
L32.0878 -57.5989
L32.3979 -57.698
L32.7107 -57.7948
L33.0261 -57.8892
L33.3443 -57.9812
L33.6654 -58.0708
L33.9892 -58.1579
L34.316 -58.2424
L34.6457 -58.3243
L34.9784 -58.4036
L35.3141 -58.4802
L35.6529 -58.554
L35.9948 -58.625
L36.3398 -58.6931
L36.6879 -58.7583
L37.0393 -58.8205
L37.3938 -58.8795
L37.7515 -58.9354
L38.1124 -58.9881
L38.4766 -59.0375
L38.8439 -59.0835
L39.2145 -59.126
L39.5882 -59.1651
L39.9651 -59.2005
L40.3451 -59.2323
L40.7281 -59.2604
L41.1142 -59.2846
L41.5032 -59.305
L41.895 -59.3215
L42.2896 -59.334
L42.6869 -59.3425
L43.0867 -59.347
L43.4889 -59.3474
L43.8933 -59.3437
L44.2998 -59.3359
L44.7082 -59.324
L45.1182 -59.3081
L45.5297 -59.2882
L45.9424 -59.2644
L46.356 -59.2368
L46.7703 -59.2055
L47.1849 -59.1707
L47.5995 -59.1325
L48.0136 -59.0912
L48.427 -59.0471
L48.8392 -59.0004
L49.2498 -58.9516
L49.6582 -58.9009
L50.0641 -58.849
L50.4668 -58.7962
L50.8659 -58.7432
L51.2608 -58.6905
L51.6508 -58.6389
L52.0354 -58.5891
L52.414 -58.5417
L52.786 -58.4977
L53.1506 -58.4579
L53.1445 -58.4231
L52.7445 -58.7666
L52.3395 -59.0623
L51.9295 -59.351
L51.5146 -59.6327
L51.095 -59.9071
L50.6708 -60.1742
L50.2421 -60.4339
L49.8091 -60.6863
L49.3719 -60.9311
L48.9306 -61.1683
L48.4854 -61.3978
L48.0364 -61.6196
L47.5837 -61.8336
L47.1275 -62.0397
L46.6679 -62.2379
L46.205 -62.4281
L45.739 -62.6103
L45.2701 -62.7843
L44.7983 -62.9502
L44.3239 -63.1079
L43.8469 -63.2573
L43.3676 -63.3985
L42.886 -63.5312
L42.4022 -63.6556
L41.9166 -63.7716
L41.4291 -63.8791
L40.94 -63.9781
L40.4494 -64.0686
L39.9574 -64.1505
L39.4643 -64.2239
L38.97 -64.2887
L38.4749 -64.3448
L37.979 -64.3923
L37.4825 -64.4312
L36.9856 -64.4614
L36.4883 -64.483
L35.9909 -64.4958
L35.4935 -64.5
L34.9963 -64.4955
L34.4993 -64.4823
L34.0029 -64.4605
L33.507 -64.4299
L33.0119 -64.3908
L32.5177 -64.3429
L32.0246 -64.2865
L31.5326 -64.2214
L31.0421 -64.1477
L30.553 -64.0654
L30.0656 -63.9746
L29.58 -63.8753
L29.0964 -63.7675
L28.6149 -63.6512
L28.1356 -63.5265
L27.6587 -63.3935
L27.1844 -63.252
L26.7127 -63.1023
L26.2439 -62.9443
L25.778 -62.7781
L25.3153 -62.6038
L24.8558 -62.4213
L24.3997 -62.2308
L23.9471 -62.0323
L23.4983 -61.8259
L23.0532 -61.6116
L22.612 -61.3896
L22.175 -61.1597
L21.7421 -60.9223
L21.3136 -60.6772
L20.8896 -60.4246
L20.4702 -60.1646
L20.0555 -59.8972
L19.6456 -59.6225
L19.2408 -59.3406
L18.841 -59.0516
L18.4465 -58.7556
L18.0573 -58.4527
L17.6736 -58.1429
L17.2955 -57.8264
L16.923 -57.5033
L16.5564 -57.1735
L16.1957 -56.8374
L15.841 -56.4949
L15.4925 -56.1461
L15.1502 -55.7912
L14.8143 -55.4303
L14.4848 -55.0635
L14.1619 -54.6908
L13.8456 -54.3125
L13.5361 -53.9286
L13.2334 -53.5392
L12.9377 -53.1445
L12.649 -52.7445
L12.3673 -52.3395
L12.0929 -51.9295
L11.8258 -51.5146
L11.5661 -51.095
L11.3137 -50.6708
L11.0689 -50.2421
L10.8317 -49.8091
L10.6022 -49.3719
L10.3804 -48.9306
L10.1664 -48.4854
L9.96026 -48.0364
L9.76206 -47.5837
L9.57186 -47.1275
L9.3897 -46.6679
L9.21565 -46.205
L9.04976 -45.739
L8.89208 -45.2701
L8.74266 -44.7983
L8.60154 -44.3239
L8.46876 -43.8469
L8.34437 -43.3676
L8.22841 -42.886
L8.1209 -42.4022
L8.02189 -41.9166
L7.9314 -41.4291
L7.84946 -40.94
L7.7761 -40.4494
L7.71133 -39.9574
L7.65518 -39.4643
L7.60766 -38.97
L7.56879 -38.4749
L7.53858 -37.979
L7.51705 -37.4825
L7.50418 -36.9856
L7.5 -36.4883
L7.5045 -35.9909
L7.51768 -35.4935
L7.53954 -34.9963
L7.57006 -34.4993
L7.60924 -34.0029
L7.65708 -33.507
L7.71354 -33.0119
z
" id="C0_2_08f6756b9a"/>
    </defs>
    <g clip-path="url(#p1bffca34e9)">
     <use style="fill:#ff0000;stroke:#000000;stroke-width:2.0;" x="0.0" xlink:href="#C0_0_a811fe30f3" y="72.0"/>
    </g>
    <g clip-path="url(#p1bffca34e9)">
     <use style="fill:#ffffff;stroke:#000000;stroke-width:2.0;" x="0.0" xlink:href="#C0_1_5771d051aa" y="72.0"/>
    </g>
    <g clip-path="url(#p1bffca34e9)">
     <use style="fill:#ffffff;stroke:#000000;stroke-width:2.0;" x="0.0" xlink:href="#C0_2_08f6756b9a" y="72.0"/>
    </g>
   </g>
  </g>
 </g>
 <defs>
  <clipPath id="p1bffca34e9">
   <rect height="72.0" width="72.0" x="0.0" y="0.0"/>
  </clipPath>
 </defs>
</svg>
