<?xml version="1.0" encoding="utf-8" standalone="no"?>
<!DOCTYPE svg PUBLIC "-//W3C//DTD SVG 1.1//EN"
  "http://www.w3.org/Graphics/SVG/1.1/DTD/svg11.dtd">
<!-- Created with matplotlib (http://matplotlib.org/) -->
<svg height="72pt" version="1.1" viewBox="0 0 72 72" width="72pt" xmlns="http://www.w3.org/2000/svg" xmlns:xlink="http://www.w3.org/1999/xlink">
 <defs>
  <style type="text/css">
*{stroke-linecap:butt;stroke-linejoin:round;}
  </style>
 </defs>
 <g id="figure_1">
  <g id="patch_1">
   <path d="
M0 72
L72 72
L72 0
L0 0
z
" style="fill:none;"/>
  </g>
  <g id="axes_1">
   <g id="PatchCollection_1">
    <defs>
     <path d="
M36 -7.5
C43.5583 -7.5 50.808 -10.5029 56.1525 -15.8475
C61.4971 -21.192 64.5 -28.4417 64.5 -36
C64.5 -43.5583 61.4971 -50.808 56.1525 -56.1525
C50.808 -61.4971 43.5583 -64.5 36 -64.5
C28.4417 -64.5 21.192 -61.4971 15.8475 -56.1525
C10.5029 -50.808 7.5 -43.5583 7.5 -36
C7.5 -28.4417 10.5029 -21.192 15.8475 -15.8475
C21.192 -10.5029 28.4417 -7.5 36 -7.5
z
" id="C0_0_a811fe30f3"/>
     <path d="
M36.4022 -64.3827
L36.4557 -64.1159
L36.4945 -63.8439
L36.5204 -63.5671
L36.5347 -63.2862
L36.5387 -63.0016
L36.5338 -62.7137
L36.5209 -62.4229
L36.5012 -62.1296
L36.4754 -61.8341
L36.4443 -61.5368
L36.4086 -61.2379
L36.3689 -60.9378
L36.3259 -60.6367
L36.2799 -60.3348
L36.2314 -60.0324
L36.1808 -59.7297
L36.1284 -59.4268
L36.0744 -59.124
L36.0193 -58.8213
L35.9631 -58.5191
L35.9062 -58.2173
L35.8486 -57.9162
L35.7906 -57.6158
L35.7322 -57.3163
L35.6737 -57.0177
L35.615 -56.7202
L35.5564 -56.4238
L35.4978 -56.1286
L35.4394 -55.8346
L35.3813 -55.5419
L35.3234 -55.2506
L35.2659 -54.9606
L35.2087 -54.672
L35.1519 -54.3849
L35.0955 -54.0993
L35.0396 -53.8151
L34.9842 -53.5324
L34.9293 -53.2512
L34.8748 -52.9714
L34.8209 -52.6932
L34.7675 -52.4164
L34.7147 -52.141
L34.6623 -51.8671
L34.6105 -51.5947
L34.5592 -51.3236
L34.5085 -51.0539
L34.4583 -50.7855
L34.4086 -50.5185
L34.3594 -50.2527
L34.3107 -49.9883
L34.2626 -49.725
L34.2149 -49.4629
L34.1677 -49.2019
L34.121 -48.9421
L34.0748 -48.6833
L34.029 -48.4255
L33.9837 -48.1687
L33.9388 -47.9128
L33.8943 -47.6578
L33.8503 -47.4036
L33.8067 -47.1502
L33.7634 -46.8976
L33.7206 -46.6456
L33.6782 -46.3943
L33.6361 -46.1436
L33.5944 -45.8934
L33.553 -45.6437
L33.5119 -45.3945
L33.4712 -45.1456
L33.4308 -44.8971
L33.3908 -44.6488
L33.351 -44.4008
L33.3115 -44.1529
L33.2723 -43.9052
L33.2333 -43.6575
L33.1946 -43.4099
L33.1562 -43.1621
L33.118 -42.9143
L33.0423 -42.6664
L33.0048 -42.4182
L32.9674 -42.1698
L32.9303 -41.921
L32.8934 -41.6719
L32.8566 -41.4223
L32.82 -41.1722
L32.7836 -40.9216
L32.7473 -40.6704
L32.7112 -40.4185
L32.6752 -40.1659
L32.6394 -39.9125
L32.6036 -39.6582
L32.568 -39.4031
L32.5325 -39.147
L32.4971 -38.8899
L32.4618 -38.6317
L32.4266 -38.3724
L32.3915 -38.1119
L32.3565 -37.8502
L32.3215 -37.5871
L32.2866 -37.3227
L32.2517 -37.0568
L32.2169 -36.7895
L32.1822 -36.5206
L32.1474 -36.2501
L32.1127 -35.9779
L32.0781 -35.7041
L32.0434 -35.4284
L32.0088 -35.1509
L31.9741 -34.8716
L31.9395 -34.5903
L31.9048 -34.307
L31.8702 -34.0216
L31.8355 -33.7342
L31.8008 -33.4446
L31.766 -33.1529
L31.7312 -32.8588
L31.6964 -32.5626
L31.6614 -32.2639
L31.6264 -31.963
L31.5914 -31.6596
L31.5562 -31.3538
L31.5209 -31.0456
L31.4854 -30.7348
L31.4499 -30.4216
L31.4142 -30.1059
L31.3782 -29.7876
L31.3421 -29.4668
L31.3058 -29.1435
L31.2692 -28.8177
L31.2323 -28.4894
L31.1951 -28.1587
L31.1576 -27.8255
L31.1196 -27.4899
L31.0812 -27.152
L31.0423 -26.8119
L31.0029 -26.4695
L30.9628 -26.1251
L30.9219 -25.7787
L30.8803 -25.4304
L30.8377 -25.0805
L30.7941 -24.7289
L30.7493 -24.3761
L30.7032 -24.022
L30.6556 -23.667
L30.6063 -23.3112
L30.555 -22.9551
L30.5016 -22.5988
L30.4458 -22.2428
L30.3871 -21.8874
L30.3253 -21.5329
L30.2599 -21.1799
L30.1905 -20.8289
L30.1165 -20.4804
L30.0374 -20.135
L29.9524 -19.7933
L29.8608 -19.4561
L29.7619 -19.1242
L29.6547 -18.7984
L29.5383 -18.4796
L29.4116 -18.1688
L29.2736 -17.8671
L29.1231 -17.5755
L28.9589 -17.2953
L28.7801 -17.0276
L28.5855 -16.7736
L28.3742 -16.5345
L28.1454 -16.3115
L27.8987 -16.1055
L27.6336 -15.9176
L27.3501 -15.7485
L27.0486 -15.5989
L26.7295 -15.4692
L26.3937 -15.3596
L26.0421 -15.2701
L25.6761 -15.2007
L25.2969 -15.151
L24.9059 -15.1207
L24.5047 -15.1092
L24.0946 -15.1161
L23.677 -15.1405
L23.2534 -15.182
L22.8251 -15.2399
L22.3932 -15.3134
L21.959 -15.402
L21.5234 -15.505
L21.0875 -15.6217
L20.6521 -15.7516
L20.2181 -15.894
L19.7862 -16.0485
L19.357 -16.2144
L18.9312 -16.3912
L18.5093 -16.5785
L18.0918 -16.7756
L17.6791 -16.9823
L17.2717 -17.1979
L16.8697 -17.4221
L16.4737 -17.6545
L16.0837 -17.8946
L15.7001 -18.142
L15.323 -18.3965
L14.9526 -18.6575
L14.589 -18.9248
L14.2325 -19.1981
L13.8829 -19.477
L13.5405 -19.7612
L13.2053 -20.0504
L12.8773 -20.3444
L12.5565 -20.6429
L12.2429 -20.9456
L11.9367 -21.2524
L11.6376 -21.5629
L11.3458 -21.8769
L11.0611 -22.1944
L10.7836 -22.5149
L10.5081 -22.8385
L10.2896 -23.2558
L10.0789 -23.7027
L9.87608 -24.1532
L9.68123 -24.6074
L9.4944 -25.0651
L9.31564 -25.5261
L9.14501 -25.9903
L8.98256 -26.4575
L8.82834 -26.9276
L8.6824 -27.4005
L8.54478 -27.876
L8.41552 -28.354
L8.29466 -28.8344
L8.18224 -29.3169
L8.0783 -29.8014
L7.98286 -30.2878
L7.89596 -30.776
L7.81762 -31.2658
L7.74786 -31.757
L7.6867 -32.2495
L7.63418 -32.7431
L7.59029 -33.2378
L7.55505 -33.7332
L7.52849 -34.2294
L7.51059 -34.7261
L7.50137 -35.2232
L7.50083 -35.7205
L7.50898 -36.2179
L7.5258 -36.7153
L7.5513 -37.2124
L7.58546 -37.7092
L7.62827 -38.2054
L7.67973 -38.701
L7.73982 -39.1957
L7.80851 -39.6895
L7.8858 -40.1821
L7.97164 -40.6735
L8.06602 -41.1634
L8.16892 -41.6518
L8.28029 -42.1385
L8.4001 -42.6233
L8.52832 -43.106
L8.66491 -43.5866
L8.80982 -44.0649
L8.96302 -44.5407
L9.12446 -45.014
L9.29408 -45.4845
L9.47183 -45.9521
L9.65767 -46.4166
L9.85153 -46.878
L10.0534 -47.3361
L10.2631 -47.7907
L10.4806 -48.2418
L10.706 -48.6891
L10.939 -49.1325
L11.1797 -49.572
L11.428 -50.0073
L11.6837 -50.4383
L11.9468 -50.8649
L12.2173 -51.2871
L12.495 -51.7045
L12.7798 -52.1172
L13.0718 -52.525
L13.3707 -52.9277
L13.6765 -53.3253
L13.9891 -53.7176
L14.3084 -54.1045
L14.6344 -54.4858
L14.9668 -54.8616
L15.3056 -55.2316
L15.6508 -55.5958
L16.0021 -55.9539
L16.3596 -56.306
L16.723 -56.652
L17.0923 -56.9916
L17.4673 -57.3248
L17.848 -57.6516
L18.2342 -57.9717
L18.6259 -58.2852
L19.0228 -58.5918
L19.4249 -58.8916
L19.8321 -59.1844
L20.2441 -59.4701
L20.661 -59.7487
L21.0825 -60.0201
L21.5086 -60.2841
L21.9391 -60.5408
L22.3739 -60.79
L22.8129 -61.0316
L23.2558 -61.2656
L23.7027 -61.4919
L24.1532 -61.7104
L24.6074 -61.9211
L25.0651 -62.1239
L25.5261 -62.3188
L25.9903 -62.5056
L26.4575 -62.6844
L26.9276 -62.855
L27.4005 -63.0174
L27.876 -63.1717
L28.354 -63.3176
L28.8344 -63.4552
L29.3169 -63.5845
L29.8014 -63.7053
L30.2878 -63.8178
L30.776 -63.9217
L31.2658 -64.0171
L31.757 -64.104
L32.2495 -64.1824
L32.7431 -64.2521
L33.2378 -64.3133
L33.7332 -64.3658
L34.2294 -64.4097
L34.7261 -64.4449
L35.2232 -64.4715
L35.7205 -64.4894
z
" id="C0_1_b4f678d177"/>
     <path d="
M61.422 -48.8024
L61.5221 -48.3953
L61.6152 -47.9913
L61.7015 -47.5905
L61.7812 -47.193
L61.8545 -46.7987
L61.9215 -46.4076
L61.9825 -46.0198
L62.0376 -45.6352
L62.087 -45.2537
L62.1308 -44.8755
L62.1692 -44.5003
L62.2024 -44.1283
L62.2305 -43.7593
L62.2536 -43.3934
L62.272 -43.0304
L62.2856 -42.6704
L62.2946 -42.3132
L62.2992 -41.9588
L62.2994 -41.6072
L62.2953 -41.2583
L62.2872 -40.9121
L62.2749 -40.5684
L62.2587 -40.2273
L62.2387 -39.8886
L62.2148 -39.5523
L62.1872 -39.2184
L62.1559 -38.8867
L62.121 -38.5573
L62.0826 -38.2299
L62.0407 -37.9047
L61.9954 -37.5815
L61.9467 -37.2602
L61.8947 -36.9408
L61.8393 -36.6233
L61.7807 -36.3075
L61.7188 -35.9933
L61.6537 -35.6809
L61.5854 -35.37
L61.514 -35.0606
L61.4394 -34.7526
L61.3617 -34.4461
L61.2808 -34.1409
L61.1968 -33.8369
L61.1096 -33.5342
L61.0194 -33.2326
L60.926 -32.9322
L60.8294 -32.6328
L60.7297 -32.3343
L60.6268 -32.0369
L60.5208 -31.7403
L60.4115 -31.4446
L60.299 -31.1497
L60.1833 -30.8555
L60.0643 -30.562
L59.9419 -30.2692
L59.8162 -29.977
L59.6871 -29.6853
L59.5546 -29.3942
L59.4186 -29.1036
L59.2791 -28.8135
L59.136 -28.5238
L58.9893 -28.2344
L58.8389 -27.9455
L58.6847 -27.6568
L58.5268 -27.3685
L58.365 -27.0804
L58.1993 -26.7926
L58.0296 -26.5051
L57.8558 -26.2177
L57.6779 -25.9306
L57.4957 -25.6436
L57.3093 -25.3568
L57.1185 -25.0702
L56.9233 -24.7838
L56.7235 -24.4976
L56.5191 -24.2115
L56.31 -23.9257
L56.0961 -23.64
L55.8773 -23.3545
L55.6535 -23.0693
L55.4247 -22.7844
L55.1907 -22.4997
L54.9514 -22.2154
L54.7068 -21.9314
L54.4568 -21.6479
L54.2013 -21.3648
L53.9402 -21.0823
L53.6733 -20.8003
L53.4007 -20.519
L53.1223 -20.2383
L52.8379 -19.9585
L52.5476 -19.6796
L52.2512 -19.4017
L51.9486 -19.1248
L51.6399 -18.8491
L51.3251 -18.5748
L51.0039 -18.3018
L50.6766 -18.0303
L50.343 -17.7605
L50.0031 -17.4925
L49.6571 -17.2264
L49.3049 -16.9624
L48.9465 -16.7005
L48.5822 -16.441
L48.2119 -16.184
L47.8359 -15.9296
L47.4544 -15.678
L47.0674 -15.4293
L46.6753 -15.1836
L46.2783 -14.941
L45.8768 -14.7018
L45.4711 -14.4658
L45.0617 -14.2333
L44.649 -14.0043
L44.2337 -13.7787
L43.8163 -13.5566
L43.3975 -13.338
L42.9781 -13.1227
L42.5589 -12.9106
L42.1409 -12.7016
L41.7252 -12.4953
L41.3129 -12.2914
L40.9052 -12.0896
L40.5035 -11.8893
L40.1092 -11.6902
L39.7238 -11.4915
L39.3488 -11.2925
L38.9858 -11.0927
L38.6364 -10.8913
L38.3021 -10.6875
L37.9844 -10.4806
L37.6844 -10.2699
L37.4032 -10.055
L37.1416 -9.83543
L36.9002 -9.6108
L36.6791 -9.38103
L36.4784 -9.14615
L36.2978 -8.90634
L36.1367 -8.66193
L35.9943 -8.41336
L35.8699 -8.16117
L35.7625 -7.90593
L36.1668 -7.6483
L36.6641 -7.50049
L37.1613 -7.50774
L37.6581 -7.52367
L38.1544 -7.54827
L38.65 -7.58154
L39.1449 -7.62347
L39.6387 -7.67404
L40.1315 -7.73324
L40.623 -7.80105
L41.1131 -7.87745
L41.6017 -7.96242
L42.0885 -8.05592
L42.5735 -8.15794
L43.0565 -8.26844
L43.5373 -8.38739
L44.0158 -8.51475
L44.4919 -8.65048
L44.9654 -8.79454
L45.4362 -8.94689
L45.9041 -9.10748
L46.369 -9.27626
L46.8307 -9.45318
L47.2892 -9.63818
L47.7441 -9.83122
L48.1956 -10.0322
L48.6433 -10.2411
L49.0871 -10.4579
L49.527 -10.6825
L49.9627 -10.9147
L50.3942 -11.1546
L50.8213 -11.4021
L51.2439 -11.657
L51.6618 -11.9194
L52.075 -12.1891
L52.4833 -12.4661
L52.8865 -12.7502
L53.2846 -13.0414
L53.6775 -13.3396
L54.0649 -13.6447
L54.4469 -13.9567
L54.8232 -14.2753
L55.1938 -14.6006
L55.5586 -14.9323
L55.9174 -15.2705
L56.2701 -15.615
L56.6167 -15.9657
L56.957 -16.3225
L57.2909 -16.6853
L57.6183 -17.054
L57.9391 -17.4285
L58.2532 -17.8086
L58.5606 -18.1943
L58.8611 -18.5854
L59.1546 -18.9818
L59.4411 -19.3833
L59.7204 -19.79
L59.9925 -20.2015
L60.2573 -20.6179
L60.5147 -21.039
L60.7647 -21.4646
L61.0071 -21.8947
L61.2419 -22.329
L61.469 -22.7675
L61.6883 -23.2101
L61.8998 -23.6565
L62.1034 -24.1067
L62.2991 -24.5606
L62.4868 -25.0179
L62.6664 -25.4785
L62.8378 -25.9424
L63.0011 -26.4093
L63.1562 -26.8791
L63.303 -27.3518
L63.4415 -27.827
L63.5716 -28.3048
L63.6933 -28.7849
L63.8066 -29.2672
L63.9114 -29.7515
L64.0077 -30.2377
L64.0955 -30.7257
L64.1747 -31.2153
L64.2454 -31.7064
L64.3074 -32.1988
L64.3608 -32.6923
L64.4056 -33.1868
L64.4417 -33.6822
L64.4692 -34.1783
L64.488 -34.675
L64.4981 -35.172
L64.4995 -35.6694
L64.4923 -36.1668
L64.4763 -36.6641
L64.4517 -37.1613
L64.4185 -37.6581
L64.3765 -38.1544
L64.326 -38.65
L64.2668 -39.1449
L64.1989 -39.6387
L64.1225 -40.1315
L64.0376 -40.623
L63.9441 -41.1131
L63.8421 -41.6017
L63.7316 -42.0885
L63.6126 -42.5735
L63.4853 -43.0565
L63.3495 -43.5373
L63.2055 -44.0158
L63.0531 -44.4919
L62.8925 -44.9654
L62.7237 -45.4362
L62.5468 -45.9041
L62.3618 -46.369
L62.1688 -46.8307
L61.9678 -47.2892
L61.7589 -47.7441
z
" id="C0_2_5716c8df90"/>
    </defs>
    <g clip-path="url(#p1bffca34e9)">
     <use style="fill:#ffffff;stroke:#000000;stroke-width:2.0;" x="0.0" xlink:href="#C0_0_a811fe30f3" y="72.0"/>
    </g>
    <g clip-path="url(#p1bffca34e9)">
     <use style="fill:#ff0000;stroke:#000000;stroke-width:2.0;" x="0.0" xlink:href="#C0_1_b4f678d177" y="72.0"/>
    </g>
    <g clip-path="url(#p1bffca34e9)">
     <use style="fill:#ff0000;stroke:#000000;stroke-width:2.0;" x="0.0" xlink:href="#C0_2_5716c8df90" y="72.0"/>
    </g>
   </g>
  </g>
 </g>
 <defs>
  <clipPath id="p1bffca34e9">
   <rect height="72.0" width="72.0" x="0.0" y="0.0"/>
  </clipPath>
 </defs>
</svg>
