<?xml version="1.0" encoding="utf-8" standalone="no"?>
<!DOCTYPE svg PUBLIC "-//W3C//DTD SVG 1.1//EN"
  "http://www.w3.org/Graphics/SVG/1.1/DTD/svg11.dtd">
<!-- Created with matplotlib (http://matplotlib.org/) -->
<svg height="72pt" version="1.1" viewBox="0 0 72 72" width="72pt" xmlns="http://www.w3.org/2000/svg" xmlns:xlink="http://www.w3.org/1999/xlink">
 <defs>
  <style type="text/css">
*{stroke-linecap:butt;stroke-linejoin:round;}
  </style>
 </defs>
 <g id="figure_1">
  <g id="patch_1">
   <path d="
M0 72
L72 72
L72 0
L0 0
z
" style="fill:none;"/>
  </g>
  <g id="axes_1">
   <g id="PatchCollection_1">
    <defs>
     <path d="
M36 -7.5
C43.5583 -7.5 50.808 -10.5029 56.1525 -15.8475
C61.4971 -21.192 64.5 -28.4417 64.5 -36
C64.5 -43.5583 61.4971 -50.808 56.1525 -56.1525
C50.808 -61.4971 43.5583 -64.5 36 -64.5
C28.4417 -64.5 21.192 -61.4971 15.8475 -56.1525
C10.5029 -50.808 7.5 -43.5583 7.5 -36
C7.5 -28.4417 10.5029 -21.192 15.8475 -15.8475
C21.192 -10.5029 28.4417 -7.5 36 -7.5
z
" id="C0_0_a811fe30f3"/>
     <path d="
M28.8006 -8.62771
L28.6964 -8.89099
L28.622 -9.15455
L28.5764 -9.41809
L28.5584 -9.6814
L28.5662 -9.94436
L28.5981 -10.2069
L28.6524 -10.4692
L28.727 -10.7311
L28.8201 -10.9929
L28.9299 -11.2545
L29.0544 -11.5162
L29.1922 -11.778
L29.3414 -12.04
L29.5008 -12.3023
L29.669 -12.5649
L29.8448 -12.8279
L30.027 -13.0913
L30.2147 -13.3551
L30.4069 -13.6192
L30.603 -13.8837
L30.8021 -14.1485
L31.0036 -14.4135
L31.2069 -14.6787
L31.4116 -14.944
L31.6172 -15.2094
L31.8233 -15.4747
L32.0296 -15.74
L32.2357 -16.005
L32.4413 -16.2698
L32.6463 -16.5342
L32.8504 -16.7982
L33.0534 -17.0618
L33.2552 -17.3248
L33.4556 -17.5872
L33.6545 -17.8489
L33.8518 -18.1098
L34.0474 -18.37
L34.2413 -18.6294
L34.4334 -18.8879
L34.6236 -19.1455
L34.8119 -19.4021
L34.9984 -19.6578
L35.1828 -19.9124
L35.3653 -20.1661
L35.5459 -20.4187
L35.7244 -20.6702
L35.901 -20.9207
L36.0757 -21.1702
L36.2484 -21.4185
L36.4192 -21.6658
L36.5881 -21.912
L36.7552 -22.1572
L36.9203 -22.4014
L37.0837 -22.6444
L37.2452 -22.8865
L37.405 -23.1276
L37.563 -23.3677
L37.7193 -23.6068
L37.874 -23.845
L38.027 -24.0823
L38.1785 -24.3188
L38.3283 -24.5543
L38.4767 -24.7891
L38.6235 -25.023
L38.7689 -25.2562
L38.9129 -25.4887
L39.0556 -25.7204
L39.1968 -25.9516
L39.3368 -26.1821
L39.4755 -26.412
L39.613 -26.6415
L39.7493 -26.8704
L39.8844 -27.0988
L40.0184 -27.3269
L40.1513 -27.5546
L40.2831 -27.7819
L40.414 -28.009
L40.5438 -28.2359
L40.6727 -28.4625
L40.8007 -28.689
L40.9278 -28.9154
L41.054 -29.1417
L41.1794 -29.3681
L41.3041 -29.5944
L41.4279 -29.8209
L41.551 -30.0475
L41.6735 -30.2743
L41.7952 -30.5013
L42.0368 -30.7286
L42.1567 -30.9562
L42.276 -31.1842
L42.3948 -31.4126
L42.5131 -31.6415
L42.6309 -31.871
L42.7482 -32.101
L42.8651 -32.3317
L42.9815 -32.5631
L43.0976 -32.7952
L43.2133 -33.0281
L43.3286 -33.2618
L43.4437 -33.4964
L43.5584 -33.732
L43.6728 -33.9686
L43.7869 -34.2063
L43.9008 -34.4451
L44.0145 -34.685
L44.1279 -34.9262
L44.2411 -35.1686
L44.3542 -35.4124
L44.4671 -35.6575
L44.5798 -35.9042
L44.6924 -36.1523
L44.8048 -36.4019
L44.9172 -36.6532
L45.0294 -36.9061
L45.1415 -37.1607
L45.2535 -37.4171
L45.3655 -37.6753
L45.4774 -37.9353
L45.5892 -38.1973
L45.701 -38.4613
L45.8127 -38.7272
L45.9244 -38.9953
L46.036 -39.2654
L46.1475 -39.5377
L46.2591 -39.8121
L46.3706 -40.0888
L46.482 -40.3678
L46.5934 -40.6491
L46.7048 -40.9327
L46.816 -41.2186
L46.9273 -41.507
L47.0385 -41.7977
L47.1496 -42.0908
L47.2607 -42.3864
L47.3716 -42.6844
L47.4825 -42.9848
L47.5933 -43.2876
L47.704 -43.5929
L47.8147 -43.9004
L47.9252 -44.2104
L48.0356 -44.5226
L48.146 -44.837
L48.2562 -45.1536
L48.3664 -45.4723
L48.4765 -45.793
L48.5865 -46.1156
L48.6965 -46.4399
L48.8065 -46.7658
L48.9166 -47.0932
L49.0268 -47.4218
L49.1372 -47.7515
L49.2478 -48.082
L49.3588 -48.4131
L49.4703 -48.7444
L49.5824 -49.0756
L49.6953 -49.4064
L49.8093 -49.7364
L49.9245 -50.0652
L50.0412 -50.3921
L50.1598 -50.7167
L50.2807 -51.0385
L50.4043 -51.3566
L50.531 -51.6705
L50.6616 -51.9792
L50.7965 -52.282
L50.9365 -52.5778
L51.0824 -52.8657
L51.2351 -53.1445
L51.3954 -53.413
L51.5643 -53.6699
L51.7428 -53.9139
L51.932 -54.1436
L52.1328 -54.3575
L52.3461 -54.5542
L52.5729 -54.7322
L52.8137 -54.8903
L53.0691 -55.027
L53.3393 -55.1415
L53.6245 -55.2326
L53.9243 -55.2997
L54.2383 -55.3423
L54.5658 -55.3601
L54.9059 -55.3531
L55.2575 -55.3214
L55.6194 -55.2655
L55.9902 -55.1858
L56.3687 -55.083
L56.7534 -54.9579
L57.1431 -54.8112
L57.5363 -54.6437
L57.9608 -54.4564
L58.2745 -54.1652
L58.5814 -53.7791
L58.8814 -53.3877
L59.1744 -52.9909
L59.4604 -52.589
L59.7393 -52.182
L60.0109 -51.7701
L60.2752 -51.3534
L60.5321 -50.932
L60.7815 -50.5061
L61.0234 -50.0757
L61.2577 -49.6411
L61.4842 -49.2023
L61.703 -48.7595
L61.914 -48.3128
L62.1171 -47.8623
L62.3122 -47.4083
L62.4993 -46.9507
L62.6783 -46.4898
L62.8493 -46.0258
L63.012 -45.5586
L63.1665 -45.0886
L63.3127 -44.6158
L63.4506 -44.1404
L63.5802 -43.6624
L63.7013 -43.1822
L63.814 -42.6998
L63.9183 -42.2153
L64.014 -41.7289
L64.1012 -41.2408
L64.1798 -40.7511
L64.2499 -40.2599
L64.3113 -39.7675
L64.3642 -39.2739
L64.4083 -38.7793
L64.4439 -38.2838
L64.4707 -37.7877
L64.4889 -37.291
L64.4985 -36.7939
L64.4993 -36.2966
L64.4914 -35.7992
L64.4749 -35.3018
L64.4497 -34.8047
L64.4159 -34.3079
L64.3733 -33.8117
L64.3222 -33.3161
L64.2624 -32.8213
L64.194 -32.3275
L64.117 -31.8348
L64.0315 -31.3434
L63.9374 -30.8534
L63.8348 -30.365
L63.7237 -29.8782
L63.6042 -29.3934
L63.4762 -28.9106
L63.3399 -28.4299
L63.1953 -27.9515
L63.0424 -27.4756
L62.8812 -27.0023
L62.7119 -26.5317
L62.5344 -26.064
L62.3489 -25.5993
L62.1553 -25.1378
L61.9537 -24.6796
L61.7443 -24.2248
L61.527 -23.7737
L61.3019 -23.3262
L61.0691 -22.8827
L60.8287 -22.4431
L60.5807 -22.0076
L60.3252 -21.5764
L60.0624 -21.1497
L59.7921 -20.7274
L59.5147 -20.3098
L59.2301 -19.8969
L58.9384 -19.489
L58.6397 -19.0861
L58.3341 -18.6883
L58.0217 -18.2958
L57.7026 -17.9088
L57.3769 -17.5272
L57.0447 -17.1512
L56.7061 -16.781
L56.3612 -16.4167
L56.0101 -16.0583
L55.6528 -15.706
L55.2896 -15.3598
L54.9205 -15.02
L54.5457 -14.6865
L54.1652 -14.3596
L53.7791 -14.0392
L53.3877 -13.7255
L52.9909 -13.4186
L52.589 -13.1186
L52.182 -12.8256
L51.7701 -12.5396
L51.3534 -12.2607
L50.932 -11.9891
L50.5061 -11.7248
L50.0757 -11.4679
L49.6411 -11.2185
L49.2023 -10.9766
L48.7595 -10.7423
L48.3128 -10.5158
L47.8623 -10.297
L47.4083 -10.086
L46.9507 -9.88292
L46.4898 -9.6878
L46.0258 -9.50069
L45.5586 -9.32166
L45.0886 -9.15074
L44.6158 -8.98801
L44.1404 -8.83351
L43.6624 -8.68728
L43.1822 -8.54937
L42.6998 -8.41982
L42.2153 -8.29868
L41.7289 -8.18597
L41.2408 -8.08173
L40.7511 -7.986
L40.2599 -7.89881
L39.7675 -7.82017
L39.2739 -7.75011
L38.7793 -7.68866
L38.2838 -7.63584
L37.7877 -7.59165
L37.291 -7.55612
L36.7939 -7.52926
L36.2966 -7.51106
L35.7992 -7.50154
L35.3018 -7.50071
L34.8047 -7.50855
L34.3079 -7.52508
L33.8117 -7.55027
L33.3161 -7.58414
L32.8213 -7.62666
L32.3275 -7.67782
L31.8348 -7.73761
L31.3434 -7.80601
L30.8534 -7.88299
L30.365 -7.96855
L29.8782 -8.06264
L29.3934 -8.16524
z
" id="C0_1_784f98c56b"/>
     <path d="
M14.1173 -17.7907
L13.9783 -18.2219
L13.84 -18.6581
L13.7036 -19.0987
L13.5697 -19.5428
L13.4393 -19.9898
L13.3129 -20.439
L13.191 -20.8898
L13.0743 -21.3416
L12.9629 -21.7939
L12.8572 -22.2462
L12.7575 -22.6981
L12.6639 -23.1491
L12.5765 -23.5989
L12.4954 -24.0471
L12.4207 -24.4933
L12.3523 -24.9374
L12.2903 -25.379
L12.2346 -25.8179
L12.1851 -26.2539
L12.1418 -26.6869
L12.1045 -27.1165
L12.0732 -27.5428
L12.0477 -27.9655
L12.0279 -28.3846
L12.0136 -28.8
L12.0048 -29.2116
L12.0013 -29.6193
L12.003 -30.0232
L12.0096 -30.423
L12.0212 -30.8189
L12.0374 -31.2108
L12.0583 -31.5988
L12.0837 -31.9827
L12.1134 -32.3627
L12.1472 -32.7387
L12.1852 -33.1107
L12.2272 -33.4789
L12.2729 -33.8432
L12.3224 -34.2037
L12.3756 -34.5604
L12.4322 -34.9134
L12.4923 -35.2627
L12.5557 -35.6084
L12.6224 -35.9505
L12.6922 -36.2892
L12.765 -36.6244
L12.8409 -36.9562
L12.9196 -37.2848
L13.0012 -37.6101
L13.0856 -37.9322
L13.1728 -38.2513
L13.2626 -38.5673
L13.355 -38.8803
L13.45 -39.1905
L13.5475 -39.4979
L13.6475 -39.8025
L13.7499 -40.1044
L13.8548 -40.4037
L13.962 -40.7005
L14.0716 -40.9949
L14.1836 -41.2868
L14.2978 -41.5763
L14.4144 -41.8637
L14.5332 -42.1488
L14.6543 -42.4317
L14.7777 -42.7126
L14.9034 -42.9915
L15.0313 -43.2684
L15.1614 -43.5435
L15.2939 -43.8167
L15.4286 -44.0881
L15.5655 -44.3579
L15.7048 -44.6259
L15.8464 -44.8924
L15.9903 -45.1573
L16.1366 -45.4207
L16.2852 -45.6827
L16.4362 -45.9433
L16.5896 -46.2026
L16.7454 -46.4605
L16.9038 -46.7172
L17.0646 -46.9727
L17.228 -47.227
L17.394 -47.4802
L17.5626 -47.7323
L17.7339 -47.9833
L17.9079 -48.2334
L18.0846 -48.4824
L18.2641 -48.7306
L18.4466 -48.9778
L18.6319 -49.2241
L18.8202 -49.4696
L19.0115 -49.7142
L19.2059 -49.958
L19.4035 -50.2011
L19.6043 -50.4434
L19.8084 -50.6849
L20.0158 -50.9257
L20.2267 -51.1657
L20.4411 -51.405
L20.659 -51.6437
L20.8806 -51.8816
L21.1059 -52.1188
L21.335 -52.3553
L21.568 -52.591
L21.805 -52.826
L22.046 -53.0603
L22.2911 -53.2939
L22.5405 -53.5266
L22.7942 -53.7585
L23.0523 -53.9897
L23.3149 -54.2199
L23.582 -54.4492
L23.8538 -54.6776
L24.1304 -54.905
L24.4117 -55.1313
L24.698 -55.3566
L24.9893 -55.5806
L25.2857 -55.8035
L25.5872 -56.025
L25.894 -56.2452
L26.206 -56.4638
L26.5234 -56.681
L26.8463 -56.8964
L27.1746 -57.1102
L27.5085 -57.322
L27.8479 -57.5319
L28.1929 -57.7398
L28.5435 -57.9454
L28.8998 -58.1487
L29.2616 -58.3495
L29.6291 -58.5478
L30.0021 -58.7433
L30.3806 -58.936
L30.7645 -59.1257
L31.1538 -59.3122
L31.5483 -59.4955
L31.9479 -59.6754
L32.3523 -59.8518
L32.7614 -60.0245
L33.175 -60.1935
L33.5927 -60.3586
L34.0142 -60.5199
L34.4392 -60.6771
L34.8672 -60.8304
L35.2978 -60.9796
L35.7303 -61.1248
L36.1643 -61.2662
L36.5991 -61.4037
L37.0338 -61.5376
L37.4677 -61.668
L37.8998 -61.7953
L38.3292 -61.9198
L38.7547 -62.042
L39.1751 -62.1624
L39.5893 -62.2815
L39.9957 -62.4001
L40.3929 -62.5189
L40.7794 -62.6388
L41.1535 -62.7608
L41.5138 -62.8857
L41.8585 -63.0147
L42.1862 -63.1486
L42.4953 -63.2884
L42.7846 -63.435
L42.5757 -63.5892
L42.0907 -63.731
L41.6039 -63.8416
L41.1153 -63.9436
L40.6252 -64.0372
L40.1337 -64.1222
L39.641 -64.1986
L39.1471 -64.2665
L38.6523 -64.3257
L38.1566 -64.3763
L37.6603 -64.4183
L37.1635 -64.4516
L36.6664 -64.4762
L36.169 -64.4922
L35.6716 -64.4995
L35.1743 -64.4981
L34.6772 -64.488
L34.1806 -64.4693
L33.6845 -64.4419
L33.1891 -64.4058
L32.6945 -64.361
L32.201 -64.3077
L31.7086 -64.2457
L31.2176 -64.1751
L30.7279 -64.0959
L30.2399 -64.0081
L29.7537 -63.9119
L29.2693 -63.8071
L28.787 -63.6938
L28.3069 -63.5721
L27.8292 -63.4421
L27.3539 -63.3036
L26.8813 -63.1569
L26.4114 -63.0018
L25.9445 -62.8386
L25.4806 -62.6671
L25.0199 -62.4876
L24.5626 -62.3
L24.1088 -62.1043
L23.6586 -61.9007
L23.2121 -61.6893
L22.7695 -61.47
L22.331 -61.2429
L21.8966 -61.0082
L21.4665 -60.7658
L21.0409 -60.5159
L20.6198 -60.2585
L20.2034 -59.9937
L19.7918 -59.7217
L19.3852 -59.4424
L18.9836 -59.1559
L18.5871 -58.8624
L18.196 -58.562
L17.8103 -58.2546
L17.4302 -57.9405
L17.0557 -57.6197
L16.687 -57.2923
L16.3242 -56.9585
L15.9673 -56.6182
L15.6166 -56.2717
L15.2721 -55.919
L14.9338 -55.5602
L14.602 -55.1955
L14.2768 -54.8249
L13.9581 -54.4486
L13.6461 -54.0667
L13.341 -53.6792
L13.0428 -53.2864
L12.7515 -52.8883
L12.4674 -52.4851
L12.1904 -52.0768
L11.9206 -51.6637
L11.6582 -51.2458
L11.4032 -50.8232
L11.1557 -50.3961
L10.9158 -49.9647
L10.6835 -49.5289
L10.4589 -49.0891
L10.2421 -48.6453
L10.0332 -48.1976
L9.83211 -47.7462
L9.63904 -47.2912
L9.454 -46.8328
L9.27704 -46.3711
L9.10822 -45.9062
L8.94759 -45.4383
L8.79521 -44.9676
L8.65111 -44.4941
L8.51534 -44.018
L8.38795 -43.5395
L8.26896 -43.0586
L8.15842 -42.5757
L8.05637 -42.0907
L7.96282 -41.6039
L7.87782 -41.1153
L7.80138 -40.6252
L7.73353 -40.1337
L7.67429 -39.641
L7.62368 -39.1471
L7.58171 -38.6523
L7.5484 -38.1566
L7.52376 -37.6603
L7.50779 -37.1635
L7.5005 -36.6664
L7.50189 -36.169
L7.51196 -35.6716
L7.53071 -35.1743
L7.55813 -34.6772
L7.59422 -34.1806
L7.63896 -33.6845
L7.69233 -33.1891
L7.75433 -32.6945
L7.82494 -32.201
L7.90412 -31.7086
L7.99187 -31.2176
L8.08814 -30.7279
L8.19292 -30.2399
L8.30617 -29.7537
L8.42785 -29.2693
L8.55794 -28.787
L8.69638 -28.3069
L8.84314 -27.8292
L8.99817 -27.3539
L9.16142 -26.8813
L9.33286 -26.4114
L9.51241 -25.9445
L9.70003 -25.4806
L9.89567 -25.0199
L10.0993 -24.5626
L10.3107 -24.1088
L10.53 -23.6586
L10.7571 -23.2121
L10.9918 -22.7695
L11.2342 -22.331
L11.4841 -21.8966
L11.7415 -21.4665
L12.0063 -21.0409
L12.2783 -20.6198
L12.5576 -20.2034
L12.8441 -19.7918
L13.1376 -19.3852
L13.438 -18.9836
L13.7454 -18.5871
z
" id="C0_2_57443f7743"/>
    </defs>
    <g clip-path="url(#p1bffca34e9)">
     <use style="fill:#ff0000;stroke:#000000;stroke-width:2.0;" x="0.0" xlink:href="#C0_0_a811fe30f3" y="72.0"/>
    </g>
    <g clip-path="url(#p1bffca34e9)">
     <use style="fill:#ffffff;stroke:#000000;stroke-width:2.0;" x="0.0" xlink:href="#C0_1_784f98c56b" y="72.0"/>
    </g>
    <g clip-path="url(#p1bffca34e9)">
     <use style="fill:#ffffff;stroke:#000000;stroke-width:2.0;" x="0.0" xlink:href="#C0_2_57443f7743" y="72.0"/>
    </g>
   </g>
  </g>
 </g>
 <defs>
  <clipPath id="p1bffca34e9">
   <rect height="72.0" width="72.0" x="0.0" y="0.0"/>
  </clipPath>
 </defs>
</svg>
