<?xml version="1.0" encoding="utf-8" standalone="no"?>
<!DOCTYPE svg PUBLIC "-//W3C//DTD SVG 1.1//EN"
  "http://www.w3.org/Graphics/SVG/1.1/DTD/svg11.dtd">
<!-- Created with matplotlib (http://matplotlib.org/) -->
<svg height="72pt" version="1.1" viewBox="0 0 72 72" width="72pt" xmlns="http://www.w3.org/2000/svg" xmlns:xlink="http://www.w3.org/1999/xlink">
 <defs>
  <style type="text/css">
*{stroke-linecap:butt;stroke-linejoin:round;}
  </style>
 </defs>
 <g id="figure_1">
  <g id="patch_1">
   <path d="
M0 72
L72 72
L72 0
L0 0
z
" style="fill:none;"/>
  </g>
  <g id="axes_1">
   <g id="PatchCollection_1">
    <defs>
     <path d="
M36 -7.5
C43.5583 -7.5 50.808 -10.5029 56.1525 -15.8475
C61.4971 -21.192 64.5 -28.4417 64.5 -36
C64.5 -43.5583 61.4971 -50.808 56.1525 -56.1525
C50.808 -61.4971 43.5583 -64.5 36 -64.5
C28.4417 -64.5 21.192 -61.4971 15.8475 -56.1525
C10.5029 -50.808 7.5 -43.5583 7.5 -36
C7.5 -28.4417 10.5029 -21.192 15.8475 -15.8475
C21.192 -10.5029 28.4417 -7.5 36 -7.5
z
" id="C0_0_a811fe30f3"/>
     <path d="
M45.8417 -62.6619
L45.8178 -62.4107
L45.7594 -62.1658
L45.6687 -61.9269
L45.5483 -61.6934
L45.401 -61.4645
L45.2297 -61.2396
L45.0371 -61.0177
L44.8261 -60.7983
L44.5991 -60.5805
L44.3586 -60.3638
L44.1066 -60.1475
L43.8452 -59.9314
L43.5758 -59.7149
L43.3002 -59.4978
L43.0196 -59.2799
L42.7353 -59.0609
L42.4481 -58.8408
L42.159 -58.6195
L41.8689 -58.3969
L41.5783 -58.1731
L41.2878 -57.948
L40.9981 -57.7218
L40.7094 -57.4944
L40.4223 -57.2659
L40.137 -57.0365
L39.8539 -56.8062
L39.5731 -56.575
L39.2949 -56.3432
L39.0194 -56.1107
L38.7469 -55.8778
L38.4773 -55.6444
L38.2109 -55.4107
L37.9477 -55.1768
L37.6877 -54.9427
L37.4311 -54.7085
L37.1777 -54.4744
L36.9277 -54.2403
L36.6811 -54.0064
L36.4378 -53.7727
L36.1979 -53.5393
L35.9613 -53.3061
L35.728 -53.0734
L35.498 -52.841
L35.2712 -52.6091
L35.0476 -52.3777
L34.8271 -52.1468
L34.6098 -51.9164
L34.3955 -51.6866
L34.1842 -51.4573
L33.9758 -51.2286
L33.7703 -51.0005
L33.5677 -50.773
L33.3678 -50.546
L33.1706 -50.3197
L32.9761 -50.0939
L32.7842 -49.8687
L32.5948 -49.6441
L32.4078 -49.42
L32.2233 -49.1965
L32.0411 -48.9735
L31.8612 -48.751
L31.6836 -48.5289
L31.5081 -48.3074
L31.3347 -48.0862
L31.1634 -47.8655
L30.9941 -47.6451
L30.8267 -47.4251
L30.6612 -47.2054
L30.4976 -46.986
L30.3358 -46.7668
L30.1756 -46.5478
L30.0172 -46.329
L29.8604 -46.1104
L29.7052 -45.8918
L29.5515 -45.6733
L29.3993 -45.4549
L29.2486 -45.2364
L29.0992 -45.0178
L28.9512 -44.7992
L28.8046 -44.5804
L28.6592 -44.3614
L28.515 -44.1421
L28.372 -43.9226
L28.2302 -43.7028
L28.0895 -43.4826
L27.9499 -43.2619
L27.8113 -43.0408
L27.5372 -42.8192
L27.4015 -42.5969
L27.2668 -42.3741
L27.1329 -42.1506
L27 -41.9263
L26.8678 -41.7013
L26.7364 -41.4755
L26.6059 -41.2487
L26.476 -41.021
L26.3469 -40.7924
L26.2185 -40.5626
L26.0908 -40.3318
L25.9637 -40.0998
L25.8373 -39.8665
L25.7114 -39.632
L25.5862 -39.3961
L25.4616 -39.1589
L25.3376 -38.9201
L25.2141 -38.6799
L25.0911 -38.438
L24.9687 -38.1945
L24.8468 -37.9493
L24.7254 -37.7024
L24.6046 -37.4536
L24.4842 -37.2029
L24.3643 -36.9502
L24.2449 -36.6955
L24.1261 -36.4387
L24.0077 -36.1798
L23.8898 -35.9186
L23.7724 -35.6552
L23.6555 -35.3894
L23.5392 -35.1212
L23.4234 -34.8505
L23.3081 -34.5773
L23.1933 -34.3015
L23.0791 -34.0231
L22.9656 -33.7419
L22.8526 -33.458
L22.7402 -33.1712
L22.6285 -32.8816
L22.5175 -32.589
L22.4072 -32.2934
L22.2976 -31.9948
L22.1888 -31.6932
L22.0809 -31.3884
L21.9737 -31.0805
L21.8675 -30.7694
L21.7622 -30.4552
L21.6579 -30.1377
L21.5546 -29.817
L21.4524 -29.4931
L21.3513 -29.1659
L21.2514 -28.8356
L21.1526 -28.5021
L21.0552 -28.1654
L20.9591 -27.8256
L20.8643 -27.4828
L20.7709 -27.137
L20.679 -26.7883
L20.5885 -26.4369
L20.4995 -26.0828
L20.412 -25.7263
L20.326 -25.3674
L20.2414 -25.0063
L20.1584 -24.6434
L20.0767 -24.2788
L19.9964 -23.9129
L19.9173 -23.5459
L19.8392 -23.1783
L19.7621 -22.8104
L19.6856 -22.4428
L19.6095 -22.0759
L19.5333 -21.7103
L19.4567 -21.3468
L19.3792 -20.986
L19.3 -20.6288
L19.2185 -20.2761
L19.1337 -19.929
L19.0447 -19.5887
L18.9502 -19.2564
L18.849 -18.9337
L18.7395 -18.6221
L18.6201 -18.3234
L18.4891 -18.0394
L18.3446 -17.7722
L18.185 -17.5239
L18.0083 -17.2965
L17.8133 -17.0921
L17.5985 -16.9126
L17.3632 -16.7598
L17.107 -16.6349
L16.8299 -16.5391
L16.5327 -16.4728
L16.2163 -16.4364
L15.8822 -16.4296
L15.532 -16.4518
L15.1676 -16.5022
L14.8172 -16.5799
L14.4877 -16.9333
L14.1647 -17.3059
L13.8484 -17.6841
L13.5388 -18.068
L13.2361 -18.4573
L12.9403 -18.852
L12.6515 -19.2519
L12.3698 -19.6569
L12.0953 -20.0669
L11.8281 -20.4817
L11.5683 -20.9013
L11.3159 -21.3254
L11.0711 -21.7541
L10.8338 -22.187
L10.6042 -22.6242
L10.3823 -23.0654
L10.1682 -23.5106
L9.96205 -23.9596
L9.76378 -24.4123
L9.57351 -24.8685
L9.39128 -25.3281
L9.21716 -25.7909
L9.0512 -26.2568
L8.89344 -26.7257
L8.74395 -27.1975
L8.60275 -27.6719
L8.4699 -28.1488
L8.34544 -28.6282
L8.2294 -29.1098
L8.12182 -29.5935
L8.02273 -30.0791
L7.93217 -30.5665
L7.85015 -31.0556
L7.77671 -31.5462
L7.71186 -32.0382
L7.65564 -32.5314
L7.60804 -33.0256
L7.5691 -33.5207
L7.53881 -34.0166
L7.5172 -34.5131
L7.50426 -35.01
L7.5 -35.5073
L7.50442 -36.0047
L7.51753 -36.5021
L7.5393 -36.9993
L7.56975 -37.4963
L7.60886 -37.9927
L7.65662 -38.4886
L7.71301 -38.9837
L7.77801 -39.4779
L7.85162 -39.9711
L7.93379 -40.463
L8.02452 -40.9536
L8.12377 -41.4427
L8.23151 -41.9301
L8.34771 -42.4157
L8.47233 -42.8993
L8.60533 -43.3809
L8.74668 -43.8602
L8.89634 -44.3371
L9.05425 -44.8114
L9.22036 -45.2831
L9.39464 -45.752
L9.57702 -46.2179
L9.76744 -46.6806
L9.96586 -47.1401
L10.1722 -47.5963
L10.3864 -48.0489
L10.6084 -48.4978
L10.8382 -48.9429
L11.0756 -49.3841
L11.3206 -49.8212
L11.5731 -50.2541
L11.8331 -50.6826
L12.1004 -51.1067
L12.375 -51.5261
L12.6569 -51.9409
L12.9458 -52.3508
L13.2417 -52.7557
L13.5446 -53.1555
L13.8543 -53.55
L14.1707 -53.9393
L14.4939 -54.323
L14.8235 -54.7012
L15.1596 -55.0737
L15.5021 -55.4404
L15.8508 -55.8011
L16.2056 -56.1559
L16.5665 -56.5044
L16.9333 -56.8468
L17.3059 -57.1828
L17.6841 -57.5123
L18.068 -57.8353
L18.4573 -58.1516
L18.852 -58.4612
L19.2519 -58.7639
L19.6569 -59.0597
L20.0669 -59.3485
L20.4817 -59.6302
L20.9013 -59.9047
L21.3254 -60.1719
L21.7541 -60.4317
L22.187 -60.6841
L22.6242 -60.9289
L23.0654 -61.1662
L23.5106 -61.3958
L23.9596 -61.6177
L24.4123 -61.8318
L24.8685 -62.038
L25.3281 -62.2362
L25.7909 -62.4265
L26.2568 -62.6087
L26.7257 -62.7828
L27.1975 -62.9488
L27.6719 -63.1066
L28.1488 -63.2561
L28.6282 -63.3972
L29.1098 -63.5301
L29.5935 -63.6546
L30.0791 -63.7706
L30.5665 -63.8782
L31.0556 -63.9773
L31.5462 -64.0678
L32.0382 -64.1499
L32.5314 -64.2233
L33.0256 -64.2881
L33.5207 -64.3444
L34.0166 -64.392
L34.5131 -64.4309
L35.01 -64.4612
L35.5073 -64.4828
L36.0047 -64.4957
L36.5021 -64.5
L36.9993 -64.4956
L37.4963 -64.4825
L37.9927 -64.4607
L38.4886 -64.4302
L38.9837 -64.3911
L39.4779 -64.3434
L39.9711 -64.287
L40.463 -64.222
L40.9536 -64.1484
L41.4427 -64.0662
L41.9301 -63.9755
L42.4157 -63.8762
L42.8993 -63.7685
L43.3809 -63.6523
L43.8602 -63.5277
L44.3371 -63.3947
L44.8114 -63.2533
L45.2831 -63.1037
z
" id="C0_1_1a1c18725a"/>
     <path d="
M56.9316 -55.0637
L57.011 -54.668
L57.0969 -54.2612
L57.1874 -53.845
L57.2806 -53.4206
L57.3749 -52.9894
L57.469 -52.5525
L57.5616 -52.1111
L57.6517 -51.6661
L57.7386 -51.2183
L57.8216 -50.7687
L57.9 -50.3179
L57.9735 -49.8666
L58.0417 -49.4154
L58.1044 -48.9648
L58.1613 -48.5154
L58.2123 -48.0675
L58.2574 -47.6217
L58.2965 -47.1781
L58.3297 -46.7373
L58.3569 -46.2993
L58.3782 -45.8645
L58.3938 -45.4331
L58.4036 -45.0053
L58.4079 -44.5813
L58.4067 -44.1611
L58.4002 -43.745
L58.3886 -43.333
L58.3719 -42.9252
L58.3504 -42.5217
L58.3241 -42.1225
L58.2932 -41.7276
L58.2579 -41.3371
L58.2183 -40.9511
L58.1746 -40.5694
L58.1269 -40.192
L58.0754 -39.8191
L58.0201 -39.4505
L57.9612 -39.0862
L57.8988 -38.7261
L57.8331 -38.3703
L57.7642 -38.0187
L57.6921 -37.6711
L57.617 -37.3277
L57.539 -36.9882
L57.4582 -36.6526
L57.3747 -36.3209
L57.2885 -35.993
L57.1998 -35.6688
L57.1086 -35.3482
L57.0149 -35.0312
L56.9189 -34.7177
L56.8207 -34.4076
L56.7202 -34.1008
L56.6175 -33.7973
L56.5128 -33.4969
L56.4059 -33.1997
L56.2971 -32.9055
L56.1862 -32.6142
L56.0734 -32.3258
L55.9586 -32.0401
L55.842 -31.7572
L55.7235 -31.4769
L55.6031 -31.1992
L55.4809 -30.9239
L55.3569 -30.6511
L55.2311 -30.3806
L55.1035 -30.1124
L54.9741 -29.8464
L54.8429 -29.5825
L54.7099 -29.3207
L54.5751 -29.0609
L54.4385 -28.803
L54.3002 -28.547
L54.16 -28.2927
L54.018 -28.0403
L53.8742 -27.7895
L53.7285 -27.5403
L53.5809 -27.2927
L53.4315 -27.0466
L53.2801 -26.8019
L53.1268 -26.5587
L52.9715 -26.3168
L52.8143 -26.0762
L52.655 -25.8368
L52.4936 -25.5986
L52.3301 -25.3616
L52.1645 -25.1257
L51.9967 -24.8908
L51.8267 -24.657
L51.6544 -24.4241
L51.4797 -24.1922
L51.3028 -23.9612
L51.1234 -23.731
L50.9415 -23.5016
L50.7571 -23.2731
L50.5701 -23.0453
L50.3805 -22.8182
L50.1882 -22.5919
L49.9931 -22.3662
L49.7951 -22.1412
L49.5943 -21.9168
L49.3905 -21.693
L49.1837 -21.4698
L48.9737 -21.2472
L48.7605 -21.0252
L48.5441 -20.8038
L48.3243 -20.5829
L48.1011 -20.3625
L47.8744 -20.1427
L47.6441 -19.9234
L47.4101 -19.7047
L47.1723 -19.4866
L46.9306 -19.2691
L46.6851 -19.0521
L46.4354 -18.8358
L46.1816 -18.6201
L45.9236 -18.405
L45.6613 -18.1907
L45.3946 -17.9771
L45.1233 -17.7642
L44.8474 -17.5522
L44.5669 -17.3411
L44.2815 -17.1309
L43.9913 -16.9216
L43.6961 -16.7135
L43.3958 -16.5065
L43.0904 -16.3007
L42.7798 -16.0961
L42.4639 -15.893
L42.1426 -15.6914
L41.8158 -15.4914
L41.4836 -15.293
L41.1458 -15.0965
L40.8025 -14.9019
L40.4535 -14.7094
L40.0989 -14.5191
L39.7386 -14.3312
L39.3727 -14.1457
L39.0012 -13.9628
L38.6241 -13.7827
L38.2414 -13.6056
L37.8533 -13.4315
L37.4599 -13.2607
L37.0613 -13.0932
L36.6577 -12.9293
L36.2492 -12.769
L35.8362 -12.6125
L35.4188 -12.4599
L34.9974 -12.3113
L34.5725 -12.1667
L34.1444 -12.0263
L33.7137 -11.89
L33.2808 -11.7578
L32.8466 -11.6296
L32.4117 -11.5053
L31.9771 -11.3847
L31.5436 -11.2675
L31.1123 -11.1534
L30.6846 -11.0418
L30.2618 -10.9322
L29.8455 -10.8238
L29.4373 -10.7158
L29.0392 -10.6072
L28.6532 -10.4967
L28.2816 -10.3832
L27.9267 -10.2651
L27.5909 -10.141
L27.2767 -10.0093
L26.9865 -9.86843
L26.7223 -9.71702
L26.4861 -9.55384
L26.6937 -9.37797
L27.1652 -9.06226
L27.6394 -8.90394
L28.1162 -8.75388
L28.5954 -8.61212
L29.0769 -8.4787
L29.5604 -8.35366
L30.0459 -8.23705
L30.5332 -8.12889
L31.0222 -8.02922
L31.5127 -7.93807
L32.0046 -7.85547
L32.4977 -7.78145
L32.9919 -7.71601
L33.4869 -7.6592
L33.9828 -7.61101
L34.4792 -7.57148
L34.9761 -7.5406
L35.4734 -7.5184
L35.9708 -7.50487
L36.4682 -7.50002
L36.9654 -7.50385
L37.4624 -7.51636
L37.9589 -7.53754
L38.4548 -7.5674
L38.95 -7.60592
L39.4442 -7.65308
L39.9375 -7.70889
L40.4295 -7.7733
L40.9202 -7.84632
L41.4093 -7.92792
L41.8969 -8.01806
L42.3826 -8.11673
L42.8664 -8.22389
L43.3481 -8.33951
L43.8275 -8.46356
L44.3046 -8.59599
L44.7792 -8.73678
L45.251 -8.88587
L45.7201 -9.04321
L46.1862 -9.20877
L46.6492 -9.38249
L47.1089 -9.56432
L47.5653 -9.7542
L48.0181 -9.95207
L48.4673 -10.1579
L48.9127 -10.3716
L49.3541 -10.5931
L49.7915 -10.8223
L50.2247 -11.0592
L50.6535 -11.3037
L51.0779 -11.5557
L51.4977 -11.8151
L51.9127 -12.082
L52.323 -12.3561
L52.7282 -12.6374
L53.1284 -12.9258
L53.5233 -13.2213
L53.9129 -13.5237
L54.297 -13.8329
L54.6756 -14.1489
L55.0485 -14.4716
L55.4156 -14.8008
L55.7767 -15.1365
L56.1319 -15.4785
L56.4809 -15.8268
L56.8236 -16.1812
L57.16 -16.5417
L57.49 -16.9081
L57.8135 -17.2803
L58.1302 -17.6582
L58.4403 -18.0417
L58.7435 -18.4306
L59.0398 -18.8249
L59.329 -19.2245
L59.6112 -19.6291
L59.8862 -20.0388
L60.1539 -20.4533
L60.4142 -20.8725
L60.6671 -21.2964
L60.9125 -21.7247
L61.1503 -22.1574
L61.3804 -22.5942
L61.6028 -23.0352
L61.8174 -23.4801
L62.0241 -23.9289
L62.2229 -24.3813
L62.4138 -24.8372
L62.5965 -25.2966
L62.7712 -25.7592
L62.9377 -26.2249
L63.0961 -26.6937
L63.2461 -27.1652
L63.3879 -27.6394
L63.5213 -28.1162
L63.6463 -28.5954
L63.763 -29.0769
L63.8711 -29.5604
L63.9708 -30.0459
L64.0619 -30.5332
L64.1445 -31.0222
L64.2186 -31.5127
L64.284 -32.0046
L64.3408 -32.4977
L64.389 -32.9919
L64.4285 -33.4869
L64.4594 -33.9828
L64.4816 -34.4792
L64.4951 -34.9761
L64.5 -35.4734
L64.4962 -35.9708
L64.4836 -36.4682
L64.4625 -36.9654
L64.4326 -37.4624
L64.3941 -37.9589
L64.3469 -38.4548
L64.2911 -38.95
L64.2267 -39.4442
L64.1537 -39.9375
L64.0721 -40.4295
L63.9819 -40.9202
L63.8833 -41.4093
L63.7761 -41.8969
L63.6605 -42.3826
L63.5364 -42.8664
L63.404 -43.3481
L63.2632 -43.8275
L63.1141 -44.3046
L62.9568 -44.7792
L62.7912 -45.251
L62.6175 -45.7201
L62.4357 -46.1862
L62.2458 -46.6492
L62.0479 -47.1089
L61.8421 -47.5653
L61.6284 -48.0181
L61.4069 -48.4673
L61.1777 -48.9127
L60.9408 -49.3541
L60.6963 -49.7915
L60.4443 -50.2247
L60.1849 -50.6535
L59.918 -51.0779
L59.6439 -51.4977
L59.3626 -51.9127
L59.0742 -52.323
L58.7787 -52.7282
L58.4763 -53.1284
L58.1671 -53.5233
L57.8511 -53.9129
L57.5284 -54.297
z
" id="C0_2_405fa56c11"/>
    </defs>
    <g clip-path="url(#p1bffca34e9)">
     <use style="fill:#ff0000;stroke:#000000;stroke-width:2.0;" x="0.0" xlink:href="#C0_0_a811fe30f3" y="72.0"/>
    </g>
    <g clip-path="url(#p1bffca34e9)">
     <use style="fill:#ffffff;stroke:#000000;stroke-width:2.0;" x="0.0" xlink:href="#C0_1_1a1c18725a" y="72.0"/>
    </g>
    <g clip-path="url(#p1bffca34e9)">
     <use style="fill:#ffffff;stroke:#000000;stroke-width:2.0;" x="0.0" xlink:href="#C0_2_405fa56c11" y="72.0"/>
    </g>
   </g>
  </g>
 </g>
 <defs>
  <clipPath id="p1bffca34e9">
   <rect height="72.0" width="72.0" x="0.0" y="0.0"/>
  </clipPath>
 </defs>
</svg>
