<?xml version="1.0" encoding="utf-8" standalone="no"?>
<!DOCTYPE svg PUBLIC "-//W3C//DTD SVG 1.1//EN"
  "http://www.w3.org/Graphics/SVG/1.1/DTD/svg11.dtd">
<!-- Created with matplotlib (http://matplotlib.org/) -->
<svg height="72pt" version="1.1" viewBox="0 0 72 72" width="72pt" xmlns="http://www.w3.org/2000/svg" xmlns:xlink="http://www.w3.org/1999/xlink">
 <defs>
  <style type="text/css">
*{stroke-linecap:butt;stroke-linejoin:round;}
  </style>
 </defs>
 <g id="figure_1">
  <g id="patch_1">
   <path d="
M0 72
L72 72
L72 0
L0 0
z
" style="fill:none;"/>
  </g>
  <g id="axes_1">
   <g id="PatchCollection_1">
    <defs>
     <path d="
M36 -7.5
C43.5583 -7.5 50.808 -10.5029 56.1525 -15.8475
C61.4971 -21.192 64.5 -28.4417 64.5 -36
C64.5 -43.5583 61.4971 -50.808 56.1525 -56.1525
C50.808 -61.4971 43.5583 -64.5 36 -64.5
C28.4417 -64.5 21.192 -61.4971 15.8475 -56.1525
C10.5029 -50.808 7.5 -43.5583 7.5 -36
C7.5 -28.4417 10.5029 -21.192 15.8475 -15.8475
C21.192 -10.5029 28.4417 -7.5 36 -7.5
z
" id="C0_0_a811fe30f3"/>
     <path d="
M52.3219 -59.2435
L51.9636 -59.2468
L51.6243 -59.225
L51.3052 -59.1779
L51.0071 -59.1057
L50.7306 -59.0087
L50.4759 -58.8876
L50.2427 -58.7432
L50.0303 -58.5766
L49.8379 -58.3891
L49.6641 -58.1821
L49.5076 -57.957
L49.3668 -57.7155
L49.2401 -57.4591
L49.1259 -57.1892
L49.0228 -56.9073
L48.9293 -56.6148
L48.844 -56.3129
L48.7657 -56.0028
L48.6934 -55.6857
L48.6261 -55.3624
L48.5628 -55.0338
L48.5029 -54.7009
L48.4457 -54.3644
L48.3906 -54.0248
L48.3372 -53.6829
L48.2849 -53.3392
L48.2335 -52.9941
L48.1826 -52.6482
L48.132 -52.3018
L48.0815 -51.9553
L48.0308 -51.609
L47.9799 -51.2633
L47.9286 -50.9184
L47.8768 -50.5744
L47.8244 -50.2318
L47.7714 -49.8906
L47.7177 -49.5509
L47.6633 -49.2131
L47.6081 -48.8771
L47.5522 -48.5431
L47.4955 -48.2112
L47.4381 -47.8815
L47.3798 -47.5541
L47.3208 -47.2289
L47.2611 -46.9062
L47.2006 -46.5858
L47.1393 -46.2679
L47.0774 -45.9524
L47.0147 -45.6393
L46.9513 -45.3288
L46.8873 -45.0207
L46.8226 -44.7151
L46.7573 -44.4119
L46.6914 -44.1111
L46.6249 -43.8128
L46.5578 -43.5168
L46.4901 -43.2232
L46.4218 -42.9319
L46.3531 -42.6429
L46.2837 -42.3561
L46.2139 -42.0715
L46.1436 -41.7891
L46.0727 -41.5087
L46.0014 -41.2305
L45.9296 -40.9542
L45.8572 -40.6799
L45.7845 -40.4075
L45.7112 -40.1369
L45.6375 -39.8682
L45.5633 -39.6012
L45.4887 -39.3358
L45.4136 -39.0721
L45.338 -38.81
L45.2619 -38.5494
L45.1854 -38.2903
L45.1084 -38.0325
L45.031 -37.7761
L44.953 -37.521
L44.8746 -37.2671
L44.7956 -37.0144
L44.7162 -36.7628
L44.6362 -36.5122
L44.5557 -36.2626
L44.4747 -36.014
L44.3931 -35.7663
L44.311 -35.5193
L44.2282 -35.2732
L44.1449 -35.0277
L44.061 -34.783
L43.9765 -34.5388
L43.8914 -34.2951
L43.8055 -34.0519
L43.7191 -33.8092
L43.544 -33.5668
L43.4555 -33.3247
L43.3661 -33.083
L43.276 -32.8414
L43.1851 -32.5999
L43.0934 -32.3586
L43.0009 -32.1173
L42.9075 -31.876
L42.8132 -31.6346
L42.718 -31.3931
L42.6219 -31.1515
L42.5249 -30.9096
L42.4268 -30.6674
L42.3277 -30.425
L42.2276 -30.1821
L42.1264 -29.9388
L42.0241 -29.6951
L41.9206 -29.4508
L41.816 -29.2059
L41.7102 -28.9604
L41.6032 -28.7142
L41.4949 -28.4673
L41.3852 -28.2196
L41.2743 -27.9711
L41.162 -27.7218
L41.0483 -27.4715
L40.9331 -27.2203
L40.8164 -26.9681
L40.6983 -26.7148
L40.5786 -26.4605
L40.4573 -26.205
L40.3343 -25.9484
L40.2097 -25.6905
L40.0834 -25.4315
L39.9554 -25.1712
L39.8256 -24.9095
L39.694 -24.6466
L39.5605 -24.3823
L39.4251 -24.1166
L39.2878 -23.8495
L39.1486 -23.581
L39.0074 -23.3111
L38.8642 -23.0397
L38.7189 -22.7668
L38.5716 -22.4925
L38.4222 -22.2166
L38.2706 -21.9394
L38.117 -21.6606
L37.9613 -21.3804
L37.8034 -21.0987
L37.6434 -20.8156
L37.4813 -20.5311
L37.317 -20.2453
L37.1507 -19.9581
L36.9824 -19.6696
L36.812 -19.3799
L36.6397 -19.089
L36.4656 -18.7969
L36.2896 -18.5038
L36.112 -18.2098
L35.9328 -17.9148
L35.7522 -17.619
L35.5704 -17.3226
L35.3875 -17.0255
L35.2038 -16.7279
L35.0196 -16.43
L34.8351 -16.1318
L34.6507 -15.8335
L34.4668 -15.5352
L34.2839 -15.237
L34.1025 -14.9392
L33.9232 -14.6418
L33.7466 -14.3451
L33.5736 -14.0491
L33.405 -13.7539
L33.2417 -13.4599
L33.0849 -13.167
L32.9359 -12.8755
L32.7959 -12.5855
L32.6666 -12.297
L32.5495 -12.0103
L32.4467 -11.7255
L32.3599 -11.4426
L32.2913 -11.1618
L32.2431 -10.8833
L32.2174 -10.6071
L32.2165 -10.3334
L32.2423 -10.0624
L32.2967 -9.79429
L32.3813 -9.52943
L32.4972 -9.26815
L32.6451 -9.01086
L32.8255 -8.75806
L33.038 -8.51031
L33.282 -8.26823
L33.5566 -8.0325
L33.8605 -7.8038
L34.3566 -7.58286
L34.8534 -7.54742
L35.3506 -7.52307
L35.848 -7.5074
L36.3454 -7.50041
L36.8427 -7.50209
L37.3397 -7.51246
L37.8364 -7.53151
L38.3324 -7.55922
L38.8278 -7.5956
L39.3223 -7.64064
L39.8158 -7.69431
L40.3081 -7.7566
L40.7992 -7.8275
L41.2887 -7.90698
L41.7767 -7.99501
L42.2629 -8.09158
L42.7471 -8.19665
L43.2294 -8.31018
L43.7094 -8.43215
L44.1871 -8.56252
L44.6623 -8.70125
L45.1348 -8.84829
L45.6046 -9.0036
L46.0714 -9.16714
L46.5352 -9.33885
L46.9957 -9.51868
L47.4529 -9.70658
L47.9066 -9.90248
L48.3567 -10.1063
L48.8031 -10.3181
L49.2455 -10.5376
L49.6839 -10.765
L50.1181 -11
L50.548 -11.2426
L50.9735 -11.4928
L51.3945 -11.7504
L51.8107 -12.0154
L52.2221 -12.2877
L52.6286 -12.5673
L53.0301 -12.854
L53.4263 -13.1477
L53.8172 -13.4484
L54.2027 -13.756
L54.5827 -14.0703
L54.957 -14.3913
L55.3255 -14.7189
L55.6881 -15.053
L56.0447 -15.3935
L56.3953 -15.7402
L56.7396 -16.0931
L57.0776 -16.4521
L57.4092 -16.8171
L57.7342 -17.1878
L58.0527 -17.5643
L58.3644 -17.9465
L58.6693 -18.3341
L58.9673 -18.7271
L59.2583 -19.1253
L59.5422 -19.5288
L59.819 -19.9372
L60.0885 -20.3505
L60.3506 -20.7686
L60.6053 -21.1913
L60.8526 -21.6185
L61.0923 -22.0501
L61.3243 -22.486
L61.5486 -22.926
L61.7651 -23.3699
L61.9738 -23.8177
L62.1746 -24.2693
L62.3674 -24.7244
L62.5522 -25.1829
L62.7289 -25.6447
L62.8974 -26.1097
L63.0577 -26.5777
L63.2098 -27.0485
L63.3537 -27.5221
L63.4891 -27.9983
L63.6163 -28.4769
L63.7349 -28.9578
L63.8452 -29.4408
L63.947 -29.9259
L64.0402 -30.4128
L64.1249 -30.9014
L64.2011 -31.3915
L64.2686 -31.8831
L64.3276 -32.3759
L64.3779 -32.8698
L64.4196 -33.3646
L64.4526 -33.8603
L64.4769 -34.3566
L64.4926 -34.8534
L64.4996 -35.3506
L64.4979 -35.848
L64.4875 -36.3454
L64.4685 -36.8427
L64.4408 -37.3397
L64.4044 -37.8364
L64.3594 -38.3324
L64.3057 -38.8278
L64.2434 -39.3223
L64.1725 -39.8158
L64.093 -40.3081
L64.005 -40.7992
L63.9084 -41.2887
L63.8034 -41.7767
L63.6898 -42.2629
L63.5678 -42.7471
L63.4375 -43.2294
L63.2988 -43.7094
L63.1517 -44.1871
L62.9964 -44.6623
L62.8329 -45.1348
L62.6612 -45.6046
L62.4813 -46.0714
L62.2934 -46.5352
L62.0975 -46.9957
L61.8937 -47.4529
L61.6819 -47.9066
L61.4624 -48.3567
L61.235 -48.8031
L61 -49.2455
L60.7574 -49.6839
L60.5072 -50.1181
L60.2496 -50.548
L59.9846 -50.9735
L59.7123 -51.3945
L59.4327 -51.8107
L59.146 -52.2221
L58.8523 -52.6286
L58.5516 -53.0301
L58.244 -53.4263
L57.9297 -53.8172
L57.6087 -54.2027
L57.2811 -54.5827
L56.947 -54.957
L56.6065 -55.3255
L56.2598 -55.6881
L55.9069 -56.0447
L55.5479 -56.3953
L55.1829 -56.7396
L54.8122 -57.0776
L54.4357 -57.4092
L54.0535 -57.7342
L53.6659 -58.0527
L53.2729 -58.3644
L52.8747 -58.6693
z
" id="C0_1_ab26556b23"/>
     <path d="
M37.7844 -64.2558
L37.4133 -64.0902
L37.0285 -63.9242
L36.6324 -63.757
L36.2267 -63.5879
L35.8134 -63.4163
L35.3942 -63.2417
L34.9707 -63.0635
L34.5441 -62.8816
L34.1159 -62.6956
L33.6872 -62.5054
L33.259 -62.3108
L32.8321 -62.1117
L32.4074 -61.9082
L31.9857 -61.7004
L31.5674 -61.4882
L31.1532 -61.2718
L30.7434 -61.0513
L30.3386 -60.8269
L29.939 -60.5986
L29.545 -60.3668
L29.1568 -60.1315
L28.7745 -59.893
L28.3984 -59.6514
L28.0286 -59.4069
L27.6652 -59.1598
L27.3082 -58.9101
L26.9577 -58.6581
L26.6137 -58.404
L26.2762 -58.1478
L25.9453 -57.8899
L25.6208 -57.6303
L25.3028 -57.3691
L24.9912 -57.1066
L24.6859 -56.8429
L24.3869 -56.578
L24.0941 -56.3121
L23.8074 -56.0454
L23.5266 -55.7778
L23.2518 -55.5096
L22.9829 -55.2407
L22.7196 -54.9713
L22.4619 -54.7015
L22.2098 -54.4313
L21.963 -54.1608
L21.7216 -53.89
L21.4853 -53.6189
L21.2541 -53.3477
L21.0279 -53.0764
L20.8066 -52.8049
L20.59 -52.5333
L20.3781 -52.2617
L20.1707 -51.9901
L19.9678 -51.7184
L19.7693 -51.4466
L19.575 -51.1749
L19.385 -50.9031
L19.1989 -50.6313
L19.0169 -50.3595
L18.8388 -50.0876
L18.6645 -49.8157
L18.494 -49.5437
L18.3271 -49.2716
L18.1638 -48.9995
L18.004 -48.7272
L17.8476 -48.4547
L17.6946 -48.1821
L17.5449 -47.9093
L17.3985 -47.6362
L17.2552 -47.3629
L17.1151 -47.0892
L16.978 -46.8153
L16.8439 -46.5409
L16.7128 -46.2661
L16.5846 -45.9909
L16.4593 -45.7151
L16.3369 -45.4389
L16.2172 -45.162
L16.1003 -44.8845
L15.986 -44.6063
L15.8745 -44.3273
L15.7657 -44.0476
L15.6594 -43.7671
L15.5558 -43.4856
L15.4548 -43.2033
L15.3563 -42.9199
L15.2604 -42.6355
L15.1671 -42.35
L15.0763 -42.0633
L14.988 -41.7754
L14.9022 -41.4862
L14.8189 -41.1957
L14.7382 -40.9038
L14.66 -40.6105
L14.5843 -40.3156
L14.5112 -40.0191
L14.4406 -39.7211
L14.3726 -39.4213
L14.3072 -39.1197
L14.2444 -38.8163
L14.1842 -38.511
L14.1267 -38.2038
L14.0719 -37.8945
L14.0198 -37.5832
L13.9704 -37.2697
L13.9239 -36.9539
L13.8803 -36.6359
L13.8395 -36.3156
L13.8018 -35.9928
L13.767 -35.6676
L13.7353 -35.3398
L13.7067 -35.0095
L13.6814 -34.6765
L13.6593 -34.3407
L13.6406 -34.0022
L13.6253 -33.6609
L13.6136 -33.3167
L13.6054 -32.9695
L13.601 -32.6194
L13.6003 -32.2662
L13.6036 -31.91
L13.6108 -31.5506
L13.6222 -31.1881
L13.6377 -30.8224
L13.6577 -30.4535
L13.682 -30.0813
L13.711 -29.7059
L13.7446 -29.3273
L13.7831 -28.9453
L13.8266 -28.5602
L13.8751 -28.1717
L13.9289 -27.7801
L13.9881 -27.3852
L14.0527 -26.9872
L14.123 -26.5861
L14.199 -26.182
L14.281 -25.7748
L14.3689 -25.3648
L14.463 -24.952
L14.5634 -24.5366
L14.6701 -24.1186
L14.7832 -23.6982
L14.9028 -23.2756
L15.0291 -22.851
L15.1619 -22.4246
L15.3014 -21.9965
L15.4476 -21.5671
L15.6003 -21.1366
L15.7596 -20.7054
L15.9253 -20.2736
L16.0973 -19.8418
L16.2753 -19.4101
L16.459 -18.9791
L16.6482 -18.5492
L16.8423 -18.1207
L17.041 -17.6942
L17.2435 -17.2702
L17.4492 -16.8493
L17.6571 -16.4318
L17.8663 -16.0186
L18.0757 -15.6102
L18.2839 -15.2071
L18.4895 -14.8102
L18.6909 -14.4201
L18.8862 -14.0375
L19.0735 -13.663
L19.2506 -13.2975
L18.9575 -12.9417
L18.5615 -13.157
L18.1707 -13.4579
L17.7854 -13.7656
L17.4056 -14.0802
L17.0315 -14.4014
L16.6632 -14.7292
L16.3007 -15.0635
L15.9443 -15.4042
L15.5939 -15.7511
L15.2498 -16.1042
L14.912 -16.4634
L14.5806 -16.8285
L14.2558 -17.1995
L13.9375 -17.5761
L13.626 -17.9584
L13.3213 -18.3462
L13.0236 -18.7394
L12.7328 -19.1378
L12.4491 -19.5414
L12.1725 -19.95
L11.9033 -20.3634
L11.6414 -20.7817
L11.3868 -21.2045
L11.1398 -21.6319
L10.9004 -22.0636
L10.6686 -22.4996
L10.4445 -22.9397
L10.2282 -23.3838
L10.0198 -23.8317
L9.81927 -24.2834
L9.62672 -24.7386
L9.44221 -25.1972
L9.26578 -25.6591
L9.09749 -26.1242
L8.9374 -26.5923
L8.78556 -27.0632
L8.642 -27.5369
L8.50678 -28.0131
L8.37993 -28.4918
L8.26149 -28.9728
L8.15151 -29.4559
L8.05001 -29.941
L7.95702 -30.4279
L7.87257 -30.9166
L7.79669 -31.4068
L7.7294 -31.8984
L7.67073 -32.3912
L7.62068 -32.8852
L7.57928 -33.38
L7.54653 -33.8757
L7.52245 -34.3721
L7.50705 -34.8689
L7.50033 -35.3661
L7.50228 -35.8634
L7.51292 -36.3608
L7.53224 -36.8581
L7.56022 -37.3552
L7.59687 -37.8518
L7.64218 -38.3479
L7.69612 -38.8432
L7.75868 -39.3377
L7.82984 -39.8311
L7.90959 -40.3234
L7.99789 -40.8144
L8.09472 -41.3039
L8.20005 -41.7918
L8.31385 -42.278
L8.43608 -42.7622
L8.56671 -43.2443
L8.7057 -43.7243
L8.853 -44.2019
L9.00857 -44.677
L9.17236 -45.1495
L9.34432 -45.6191
L9.5244 -46.0859
L9.71255 -46.5495
L9.90871 -47.01
L10.1128 -47.4671
L10.3248 -47.9207
L10.5446 -48.3707
L10.7722 -48.8169
L11.0074 -49.2592
L11.2503 -49.6975
L11.5007 -50.1316
L11.7585 -50.5614
L12.0238 -50.9867
L12.2963 -51.4075
L12.5761 -51.8236
L12.863 -52.2349
L13.157 -52.6412
L13.4579 -53.0425
L13.7656 -53.4385
L14.0802 -53.8293
L14.4014 -54.2146
L14.7292 -54.5944
L15.0635 -54.9685
L15.4042 -55.3368
L15.7511 -55.6993
L16.1042 -56.0557
L16.4634 -56.4061
L16.8285 -56.7502
L17.1995 -57.088
L17.5761 -57.4194
L17.9584 -57.7442
L18.3462 -58.0625
L18.7394 -58.374
L19.1378 -58.6787
L19.5414 -58.9764
L19.95 -59.2672
L20.3634 -59.5509
L20.7817 -59.8275
L21.2045 -60.0967
L21.6319 -60.3586
L22.0636 -60.6132
L22.4996 -60.8602
L22.9397 -61.0996
L23.3838 -61.3314
L23.8317 -61.5555
L24.2834 -61.7718
L24.7386 -61.9802
L25.1972 -62.1807
L25.6591 -62.3733
L26.1242 -62.5578
L26.5923 -62.7342
L27.0632 -62.9025
L27.5369 -63.0626
L28.0131 -63.2144
L28.4918 -63.358
L28.9728 -63.4932
L29.4559 -63.6201
L29.941 -63.7385
L30.4279 -63.8485
L30.9166 -63.95
L31.4068 -64.043
L31.8984 -64.1274
L32.3912 -64.2033
L32.8852 -64.2706
L33.38 -64.3293
L33.8757 -64.3793
L34.3721 -64.4207
L34.8689 -64.4535
L35.3661 -64.4775
L35.8634 -64.4929
L36.3608 -64.4997
L36.8581 -64.4977
z
" id="C0_2_282d350057"/>
    </defs>
    <g clip-path="url(#p1bffca34e9)">
     <use style="fill:#ff0000;stroke:#000000;stroke-width:2.0;" x="0.0" xlink:href="#C0_0_a811fe30f3" y="72.0"/>
    </g>
    <g clip-path="url(#p1bffca34e9)">
     <use style="fill:#ffffff;stroke:#000000;stroke-width:2.0;" x="0.0" xlink:href="#C0_1_ab26556b23" y="72.0"/>
    </g>
    <g clip-path="url(#p1bffca34e9)">
     <use style="fill:#ffffff;stroke:#000000;stroke-width:2.0;" x="0.0" xlink:href="#C0_2_282d350057" y="72.0"/>
    </g>
   </g>
  </g>
 </g>
 <defs>
  <clipPath id="p1bffca34e9">
   <rect height="72.0" width="72.0" x="0.0" y="0.0"/>
  </clipPath>
 </defs>
</svg>
