<?xml version="1.0" encoding="utf-8" standalone="no"?>
<!DOCTYPE svg PUBLIC "-//W3C//DTD SVG 1.1//EN"
  "http://www.w3.org/Graphics/SVG/1.1/DTD/svg11.dtd">
<!-- Created with matplotlib (http://matplotlib.org/) -->
<svg height="72pt" version="1.1" viewBox="0 0 72 72" width="72pt" xmlns="http://www.w3.org/2000/svg" xmlns:xlink="http://www.w3.org/1999/xlink">
 <defs>
  <style type="text/css">
*{stroke-linecap:butt;stroke-linejoin:round;}
  </style>
 </defs>
 <g id="figure_1">
  <g id="patch_1">
   <path d="
M0 72
L72 72
L72 0
L0 0
z
" style="fill:none;"/>
  </g>
  <g id="axes_1">
   <g id="PatchCollection_1">
    <defs>
     <path d="
M36 -7.5
C43.5583 -7.5 50.808 -10.5029 56.1525 -15.8475
C61.4971 -21.192 64.5 -28.4417 64.5 -36
C64.5 -43.5583 61.4971 -50.808 56.1525 -56.1525
C50.808 -61.4971 43.5583 -64.5 36 -64.5
C28.4417 -64.5 21.192 -61.4971 15.8475 -56.1525
C10.5029 -50.808 7.5 -43.5583 7.5 -36
C7.5 -28.4417 10.5029 -21.192 15.8475 -15.8475
C21.192 -10.5029 28.4417 -7.5 36 -7.5
z
" id="C0_0_a811fe30f3"/>
     <path d="
M64.146 -39.6403
L63.9177 -39.9269
L63.6831 -40.1913
L63.4427 -40.4328
L63.1971 -40.6508
L62.947 -40.8449
L62.6927 -41.015
L62.4349 -41.1612
L62.1739 -41.2836
L61.9101 -41.3827
L61.6441 -41.4592
L61.3759 -41.5137
L61.106 -41.5472
L60.8346 -41.5607
L60.5618 -41.5555
L60.2878 -41.5326
L60.0128 -41.4933
L59.7368 -41.4388
L59.4601 -41.3703
L59.1825 -41.2892
L58.9044 -41.1964
L58.6256 -41.0931
L58.3464 -40.9804
L58.0667 -40.8593
L57.7867 -40.7306
L57.5064 -40.5953
L57.2259 -40.454
L56.9452 -40.3076
L56.6645 -40.1567
L56.3839 -40.0019
L56.1034 -39.8438
L55.823 -39.6829
L55.543 -39.5196
L55.2633 -39.3543
L54.984 -39.1875
L54.7052 -39.0195
L54.4271 -38.8506
L54.1495 -38.681
L53.8727 -38.5111
L53.5967 -38.341
L53.3215 -38.1709
L53.0472 -38.0011
L52.7739 -37.8316
L52.5015 -37.6626
L52.2302 -37.4943
L51.9599 -37.3268
L51.6908 -37.1601
L51.4228 -36.9943
L51.1559 -36.8295
L50.8903 -36.6658
L50.6258 -36.5032
L50.3626 -36.3418
L50.1006 -36.1816
L49.8398 -36.0227
L49.5803 -35.8649
L49.322 -35.7085
L49.0649 -35.5534
L48.8091 -35.3996
L48.5545 -35.247
L48.3011 -35.0958
L48.0489 -34.9459
L47.7979 -34.7973
L47.548 -34.65
L47.2993 -34.5039
L47.0517 -34.3591
L46.8052 -34.2156
L46.5597 -34.0733
L46.3153 -33.9322
L46.0719 -33.7923
L45.8295 -33.6536
L45.5881 -33.5161
L45.3475 -33.3796
L45.1079 -33.2443
L44.8691 -33.1101
L44.6311 -32.9769
L44.3938 -32.8447
L44.1573 -32.7136
L43.9215 -32.5834
L43.6864 -32.4542
L43.4518 -32.3259
L43.2179 -32.1985
L42.9845 -32.072
L42.7515 -31.9463
L42.519 -31.8215
L42.287 -31.6974
L42.0552 -31.5741
L41.8238 -31.4516
L41.5927 -31.3298
L41.3618 -31.2086
L41.1311 -31.0881
L40.9005 -30.9682
L40.67 -30.849
L40.4396 -30.7303
L40.2092 -30.6122
L39.9787 -30.4946
L39.7481 -30.3776
L39.2865 -30.261
L39.0554 -30.1449
L38.824 -30.0292
L38.5922 -29.9139
L38.3601 -29.799
L38.1276 -29.6845
L37.8946 -29.5703
L37.6611 -29.4565
L37.427 -29.3429
L37.1923 -29.2296
L36.9569 -29.1166
L36.7208 -29.0038
L36.484 -28.8912
L36.2464 -28.7789
L36.0079 -28.6666
L35.7685 -28.5546
L35.5282 -28.4427
L35.2868 -28.3309
L35.0445 -28.2192
L34.801 -28.1076
L34.5564 -27.996
L34.3106 -27.8845
L34.0636 -27.773
L33.8153 -27.6616
L33.5657 -27.5501
L33.3148 -27.4386
L33.0624 -27.3271
L32.8086 -27.2156
L32.5534 -27.1039
L32.2966 -26.9922
L32.0382 -26.8804
L31.7782 -26.7685
L31.5167 -26.6565
L31.2534 -26.5444
L30.9885 -26.4321
L30.7219 -26.3197
L30.4535 -26.2071
L30.1833 -26.0944
L29.9114 -25.9814
L29.6376 -25.8683
L29.3621 -25.755
L29.0847 -25.6415
L28.8056 -25.5277
L28.5246 -25.4137
L28.2418 -25.2995
L27.9572 -25.185
L27.6708 -25.0702
L27.3827 -24.9552
L27.0929 -24.8399
L26.8014 -24.7243
L26.5083 -24.6084
L26.2137 -24.4921
L25.9175 -24.3755
L25.62 -24.2584
L25.3212 -24.141
L25.0212 -24.0232
L24.7201 -23.9048
L24.4181 -23.786
L24.1154 -23.6666
L23.812 -23.5466
L23.5083 -23.4259
L23.2043 -23.3045
L22.9004 -23.1822
L22.5969 -23.0591
L22.2939 -22.9349
L21.9919 -22.8095
L21.6912 -22.6829
L21.3921 -22.5548
L21.095 -22.425
L20.8005 -22.2934
L20.509 -22.1598
L20.2211 -22.0238
L19.9373 -21.8851
L19.6582 -21.7435
L19.3846 -21.5986
L19.1171 -21.45
L18.8565 -21.2971
L18.6038 -21.1397
L18.3596 -20.9771
L18.125 -20.8087
L17.9009 -20.6341
L17.6884 -20.4525
L17.4885 -20.2634
L17.3021 -20.0662
L17.1305 -19.8601
L16.9745 -19.6446
L16.8353 -19.4191
L16.7138 -19.1832
L16.6108 -18.9363
L16.5271 -18.6783
L16.4636 -18.4088
L16.4206 -18.1278
L16.3988 -17.8353
L16.3983 -17.5317
L16.4193 -17.2172
L16.462 -16.8924
L16.5261 -16.5579
L16.6115 -16.2145
L16.718 -15.863
L16.845 -15.5043
L16.9921 -15.1395
L17.363 -14.7695
L17.7422 -14.4381
L18.1269 -14.1162
L18.517 -13.8009
L18.9125 -13.4923
L19.3132 -13.1906
L19.719 -12.8959
L20.1297 -12.6082
L20.5452 -12.3276
L20.9655 -12.0542
L21.3904 -11.7881
L21.8197 -11.5294
L22.2533 -11.2782
L22.6911 -11.0345
L23.1329 -10.7984
L23.5787 -10.5699
L24.0283 -10.3492
L24.4815 -10.1364
L24.9382 -9.93137
L25.3983 -9.73431
L25.8616 -9.54526
L26.328 -9.36426
L26.7973 -9.19138
L27.2695 -9.02666
L27.7443 -8.87016
L28.2216 -8.72193
L28.7013 -8.582
L29.1832 -8.45042
L29.6672 -8.32724
L30.1532 -8.21249
L30.6409 -8.1062
L31.1302 -8.0084
L31.621 -7.91914
L32.1132 -7.83842
L32.6065 -7.76629
L33.1009 -7.70275
L33.5961 -7.64784
L34.0921 -7.60156
L34.5887 -7.56393
L35.0857 -7.53497
L35.583 -7.51467
L36.0804 -7.50305
L36.5777 -7.50011
L37.0749 -7.50586
L37.5718 -7.52028
L38.0682 -7.54338
L38.564 -7.57514
L39.059 -7.61557
L39.553 -7.66464
L40.046 -7.72234
L40.5377 -7.78866
L41.0281 -7.86357
L41.5169 -7.94705
L42.0041 -8.03907
L42.4894 -8.13961
L42.9727 -8.24864
L43.4539 -8.36612
L43.9329 -8.49202
L44.4094 -8.6263
L44.8834 -8.76892
L45.3546 -8.91983
L45.8231 -9.07899
L46.2885 -9.24635
L46.7508 -9.42186
L47.2098 -9.60547
L47.6654 -9.79712
L48.1174 -9.99675
L48.5658 -10.2043
L49.0103 -10.4197
L49.4508 -10.6429
L49.8873 -10.8738
L50.3195 -11.1124
L50.7474 -11.3586
L51.1708 -11.6122
L51.5896 -11.8733
L52.0036 -12.1418
L52.4127 -12.4175
L52.8168 -12.7004
L53.2158 -12.9903
L53.6096 -13.2873
L53.998 -13.5913
L54.3809 -13.902
L54.7583 -14.2195
L55.1299 -14.5436
L55.4957 -14.8742
L55.8555 -15.2113
L56.2093 -15.5547
L56.5569 -15.9044
L56.8983 -16.2601
L57.2333 -16.6219
L57.5619 -16.9896
L57.8838 -17.363
L58.1991 -17.7422
L58.5077 -18.1269
L58.8094 -18.517
L59.1041 -18.9125
L59.3918 -19.3132
L59.6724 -19.719
L59.9458 -20.1297
L60.2119 -20.5452
L60.4706 -20.9655
L60.7218 -21.3904
L60.9655 -21.8197
L61.2016 -22.2533
L61.4301 -22.6911
L61.6508 -23.1329
L61.8636 -23.5787
L62.0686 -24.0283
L62.2657 -24.4815
L62.4547 -24.9382
L62.6357 -25.3983
L62.8086 -25.8616
L62.9733 -26.328
L63.1298 -26.7973
L63.2781 -27.2695
L63.418 -27.7443
L63.5496 -28.2216
L63.6728 -28.7013
L63.7875 -29.1832
L63.8938 -29.6672
L63.9916 -30.1532
L64.0809 -30.6409
L64.1616 -31.1302
L64.2337 -31.621
L64.2972 -32.1132
L64.3522 -32.6065
L64.3984 -33.1009
L64.4361 -33.5961
L64.465 -34.0921
L64.4853 -34.5887
L64.4969 -35.0857
L64.4999 -35.583
L64.4941 -36.0804
L64.4797 -36.5777
L64.4566 -37.0749
L64.4249 -37.5718
L64.3844 -38.0682
L64.3354 -38.564
z
" id="C0_1_8cded13c05"/>
     <path d="
M54.6221 -57.3534
L54.2246 -57.4742
L53.821 -57.5974
L53.412 -57.7219
L52.9981 -57.847
L52.5801 -57.9717
L52.1584 -58.0952
L51.7335 -58.217
L51.3061 -58.3363
L50.8766 -58.4527
L50.4456 -58.5656
L50.0133 -58.6747
L49.5804 -58.7796
L49.1471 -58.8801
L48.7138 -58.9758
L48.281 -59.0666
L47.8488 -59.1524
L47.4177 -59.233
L46.9878 -59.3083
L46.5595 -59.3783
L46.133 -59.4429
L45.7085 -59.5021
L45.2862 -59.556
L44.8662 -59.6045
L44.4487 -59.6478
L44.0339 -59.6858
L43.6219 -59.7186
L43.2128 -59.7464
L42.8067 -59.7691
L42.4037 -59.7869
L42.0038 -59.7998
L41.6071 -59.8081
L41.2136 -59.8116
L40.8234 -59.8107
L40.4366 -59.8052
L40.0531 -59.7955
L39.6729 -59.7815
L39.2961 -59.7633
L38.9227 -59.7411
L38.5525 -59.715
L38.1857 -59.685
L37.8222 -59.6513
L37.462 -59.6139
L37.1051 -59.5729
L36.7513 -59.5285
L36.4007 -59.4806
L36.0533 -59.4294
L35.7089 -59.3749
L35.3676 -59.3172
L35.0293 -59.2564
L34.694 -59.1926
L34.3615 -59.1258
L34.0319 -59.056
L33.7051 -58.9834
L33.381 -58.9079
L33.0596 -58.8296
L32.7408 -58.7487
L32.4245 -58.665
L32.1108 -58.5787
L31.7995 -58.4897
L31.4906 -58.3982
L31.184 -58.3041
L30.8796 -58.2075
L30.5775 -58.1083
L30.2775 -58.0067
L29.9796 -57.9026
L29.6837 -57.7961
L29.3899 -57.6871
L29.0979 -57.5757
L28.8078 -57.4619
L28.5194 -57.3456
L28.2329 -57.2269
L27.948 -57.1058
L27.6648 -56.9822
L27.3831 -56.8562
L27.103 -56.7278
L26.8244 -56.5968
L26.5472 -56.4635
L26.2715 -56.3276
L25.997 -56.1892
L25.7239 -56.0483
L25.452 -55.9048
L25.1813 -55.7588
L24.9118 -55.6101
L24.6434 -55.4588
L24.376 -55.3049
L24.1098 -55.1482
L23.8445 -54.9887
L23.5802 -54.8265
L23.3169 -54.6615
L23.0545 -54.4936
L22.7929 -54.3227
L22.5322 -54.1489
L22.2723 -53.9721
L22.0132 -53.7923
L21.7549 -53.6093
L21.4973 -53.4231
L21.2405 -53.2336
L20.9844 -53.0409
L20.729 -52.8449
L20.4743 -52.6454
L20.2202 -52.4424
L19.9669 -52.2358
L19.7142 -52.0257
L19.4622 -51.8118
L19.2108 -51.5942
L18.9601 -51.3727
L18.7102 -51.1473
L18.4609 -50.9179
L18.2123 -50.6845
L17.9644 -50.4469
L17.7173 -50.2051
L17.4709 -49.959
L17.2254 -49.7085
L16.9807 -49.4536
L16.7368 -49.1941
L16.4939 -48.9301
L16.252 -48.6613
L16.011 -48.3878
L15.7711 -48.1095
L15.5324 -47.8262
L15.2948 -47.538
L15.0586 -47.2448
L14.8236 -46.9465
L14.5901 -46.6431
L14.3581 -46.3344
L14.1276 -46.0206
L13.8989 -45.7014
L13.672 -45.377
L13.4469 -45.0473
L13.2238 -44.7123
L13.0029 -44.3719
L12.7842 -44.0263
L12.5678 -43.6754
L12.3539 -43.3193
L12.1426 -42.958
L11.934 -42.5917
L11.7282 -42.2204
L11.5254 -41.8443
L11.3257 -41.4635
L11.1291 -41.0781
L10.9358 -40.6885
L10.7459 -40.2948
L10.5594 -39.8973
L10.3765 -39.4963
L10.1972 -39.0922
L10.0216 -38.6853
L9.84959 -38.2761
L9.68127 -37.8652
L9.51656 -37.4529
L9.35541 -37.04
L9.19772 -36.6271
L9.04335 -36.2148
L8.89211 -35.804
L8.74377 -35.3954
L8.59805 -34.9901
L8.45462 -34.5889
L8.3131 -34.1929
L8.17306 -33.8031
L8.03401 -33.4206
L7.89542 -33.0467
L7.64089 -32.6825
L7.59581 -33.1697
L7.55939 -33.665
L7.53162 -34.1611
L7.51254 -34.6578
L7.50212 -35.1548
L7.50039 -35.6521
L7.50734 -36.1495
L7.52297 -36.6469
L7.54728 -37.1441
L7.58025 -37.6409
L7.62187 -38.1372
L7.67215 -38.6329
L7.73105 -39.1277
L7.79856 -39.6216
L7.87466 -40.1144
L7.95933 -40.606
L8.05254 -41.0962
L8.15426 -41.5848
L8.26447 -42.0717
L8.38313 -42.5567
L8.51019 -43.0398
L8.64563 -43.5207
L8.78941 -43.9993
L8.94147 -44.4755
L9.10177 -44.9491
L9.27027 -45.4199
L9.44691 -45.8879
L9.63164 -46.3529
L9.8244 -46.8148
L10.0251 -47.2733
L10.2338 -47.7284
L10.4503 -48.18
L10.6745 -48.6278
L10.9065 -49.0718
L11.1462 -49.5118
L11.3934 -49.9477
L11.6481 -50.3793
L11.9102 -50.8065
L12.1797 -51.2293
L12.4564 -51.6474
L12.7403 -52.0607
L13.0312 -52.4692
L13.3292 -52.8726
L13.6341 -53.2709
L13.9457 -53.6639
L14.2641 -54.0516
L14.5892 -54.4337
L14.9207 -54.8103
L15.2587 -55.1811
L15.603 -55.546
L15.9535 -55.905
L16.3101 -56.258
L16.6727 -56.6048
L17.0412 -56.9453
L17.4154 -57.2794
L17.7953 -57.607
L18.1808 -57.9281
L18.5717 -58.2425
L18.9679 -58.5501
L19.3693 -58.8508
L19.7758 -59.1446
L20.1872 -59.4313
L20.6034 -59.7109
L21.0243 -59.9832
L21.4498 -60.2483
L21.8797 -60.5059
L22.3139 -60.7561
L22.7523 -60.9988
L23.1947 -61.2339
L23.641 -61.4612
L24.0911 -61.6808
L24.5448 -61.8926
L25.002 -62.0965
L25.4625 -62.2925
L25.9262 -62.4804
L26.3931 -62.6603
L26.8628 -62.832
L27.3353 -62.9956
L27.8105 -63.1509
L28.2882 -63.298
L28.7682 -63.4368
L29.2504 -63.5672
L29.7347 -63.6892
L30.2209 -63.8028
L30.7088 -63.9079
L31.1983 -64.0045
L31.6894 -64.0926
L32.1817 -64.1721
L32.6752 -64.2431
L33.1697 -64.3054
L33.665 -64.3591
L34.1611 -64.4042
L34.6578 -64.4406
L35.1548 -64.4684
L35.6521 -64.4875
L36.1495 -64.4979
L36.6469 -64.4996
L37.1441 -64.4927
L37.6409 -64.477
L38.1372 -64.4527
L38.6329 -64.4198
L39.1277 -64.3781
L39.6216 -64.3279
L40.1144 -64.269
L40.606 -64.2014
L41.0962 -64.1253
L41.5848 -64.0407
L42.0717 -63.9475
L42.5567 -63.8457
L43.0398 -63.7355
L43.5207 -63.6169
L43.9993 -63.4898
L44.4755 -63.3544
L44.9491 -63.2106
L45.4199 -63.0585
L45.8879 -62.8982
L46.3529 -62.7297
L46.8148 -62.5531
L47.2733 -62.3684
L47.7284 -62.1756
L48.18 -61.9749
L48.6278 -61.7662
L49.0718 -61.5497
L49.5118 -61.3255
L49.9477 -61.0935
L50.3793 -60.8538
L50.8065 -60.6066
L51.2293 -60.3519
L51.6474 -60.0898
L52.0607 -59.8203
L52.4692 -59.5436
L52.8726 -59.2597
L53.2709 -58.9688
L53.6639 -58.6708
L54.0516 -58.3659
z
" id="C0_2_3d34079722"/>
    </defs>
    <g clip-path="url(#p1bffca34e9)">
     <use style="fill:#ff0000;stroke:#000000;stroke-width:2.0;" x="0.0" xlink:href="#C0_0_a811fe30f3" y="72.0"/>
    </g>
    <g clip-path="url(#p1bffca34e9)">
     <use style="fill:#ffffff;stroke:#000000;stroke-width:2.0;" x="0.0" xlink:href="#C0_1_8cded13c05" y="72.0"/>
    </g>
    <g clip-path="url(#p1bffca34e9)">
     <use style="fill:#ffffff;stroke:#000000;stroke-width:2.0;" x="0.0" xlink:href="#C0_2_3d34079722" y="72.0"/>
    </g>
   </g>
  </g>
 </g>
 <defs>
  <clipPath id="p1bffca34e9">
   <rect height="72.0" width="72.0" x="0.0" y="0.0"/>
  </clipPath>
 </defs>
</svg>
