<?xml version="1.0" encoding="utf-8" standalone="no"?>
<!DOCTYPE svg PUBLIC "-//W3C//DTD SVG 1.1//EN"
  "http://www.w3.org/Graphics/SVG/1.1/DTD/svg11.dtd">
<!-- Created with matplotlib (http://matplotlib.org/) -->
<svg height="72pt" version="1.1" viewBox="0 0 72 72" width="72pt" xmlns="http://www.w3.org/2000/svg" xmlns:xlink="http://www.w3.org/1999/xlink">
 <defs>
  <style type="text/css">
*{stroke-linecap:butt;stroke-linejoin:round;}
  </style>
 </defs>
 <g id="figure_1">
  <g id="patch_1">
   <path d="
M0 72
L72 72
L72 0
L0 0
z
" style="fill:none;"/>
  </g>
  <g id="axes_1">
   <g id="PatchCollection_1">
    <defs>
     <path d="
M36 -7.5
C43.5583 -7.5 50.808 -10.5029 56.1525 -15.8475
C61.4971 -21.192 64.5 -28.4417 64.5 -36
C64.5 -43.5583 61.4971 -50.808 56.1525 -56.1525
C50.808 -61.4971 43.5583 -64.5 36 -64.5
C28.4417 -64.5 21.192 -61.4971 15.8475 -56.1525
C10.5029 -50.808 7.5 -43.5583 7.5 -36
C7.5 -28.4417 10.5029 -21.192 15.8475 -15.8475
C21.192 -10.5029 28.4417 -7.5 36 -7.5
z
" id="C0_0_a811fe30f3"/>
     <path d="
M47.8583 -61.8976
L47.9524 -61.566
L48.0535 -61.227
L48.1597 -60.8814
L48.2691 -60.5303
L48.3802 -60.1746
L48.492 -59.815
L48.6033 -59.4522
L48.7133 -59.0869
L48.8214 -58.7195
L48.9269 -58.3507
L49.0295 -57.9809
L49.1288 -57.6105
L49.2245 -57.2399
L49.3164 -56.8695
L49.4044 -56.4996
L49.4884 -56.1304
L49.5683 -55.7622
L49.644 -55.3954
L49.7156 -55.0299
L49.7831 -54.6662
L49.8465 -54.3042
L49.9058 -53.9443
L49.9612 -53.5864
L50.0126 -53.2308
L50.0602 -52.8775
L50.1041 -52.5267
L50.1444 -52.1783
L50.181 -51.8324
L50.2143 -51.4892
L50.2441 -51.1486
L50.2707 -50.8107
L50.2941 -50.4754
L50.3144 -50.1429
L50.3317 -49.8131
L50.3462 -49.4859
L50.3578 -49.1615
L50.3667 -48.8397
L50.373 -48.5207
L50.3768 -48.2042
L50.3781 -47.8903
L50.3769 -47.5791
L50.3735 -47.2703
L50.3679 -46.9641
L50.36 -46.6603
L50.3501 -46.3589
L50.3381 -46.0598
L50.3241 -45.7631
L50.3082 -45.4686
L50.2904 -45.1763
L50.2708 -44.8862
L50.2494 -44.5981
L50.2263 -44.3121
L50.2015 -44.0281
L50.175 -43.7459
L50.1469 -43.4656
L50.1173 -43.1871
L50.086 -42.9103
L50.0533 -42.6351
L50.0191 -42.3616
L49.9834 -42.0895
L49.9463 -41.819
L49.9078 -41.5499
L49.8679 -41.2821
L49.8265 -41.0155
L49.7839 -40.7502
L49.7398 -40.4861
L49.6944 -40.223
L49.6477 -39.961
L49.5997 -39.6999
L49.5503 -39.4398
L49.4996 -39.1805
L49.4476 -38.9219
L49.3943 -38.6641
L49.3397 -38.4069
L49.2838 -38.1503
L49.2265 -37.8942
L49.1679 -37.6387
L49.108 -37.3835
L48.9841 -37.1286
L48.9201 -36.8741
L48.8548 -36.6198
L48.788 -36.3656
L48.7198 -36.1115
L48.6502 -35.8575
L48.5792 -35.6035
L48.5066 -35.3494
L48.4326 -35.0952
L48.3571 -34.8408
L48.28 -34.5861
L48.2013 -34.3312
L48.1211 -34.0759
L48.0392 -33.8201
L47.9556 -33.5639
L47.8704 -33.3071
L47.7834 -33.0498
L47.6947 -32.7918
L47.6041 -32.5331
L47.5117 -32.2737
L47.4174 -32.0134
L47.3212 -31.7523
L47.223 -31.4902
L47.1227 -31.2272
L47.0204 -30.9632
L46.916 -30.6981
L46.8094 -30.4319
L46.7006 -30.1645
L46.5895 -29.8958
L46.476 -29.6259
L46.3602 -29.3547
L46.2419 -29.0822
L46.1211 -28.8082
L45.9977 -28.5328
L45.8717 -28.2559
L45.7429 -27.9775
L45.6114 -27.6976
L45.4771 -27.416
L45.3398 -27.1329
L45.1996 -26.8481
L45.0563 -26.5616
L44.9099 -26.2735
L44.7603 -25.9836
L44.6075 -25.692
L44.4513 -25.3987
L44.2918 -25.1037
L44.1287 -24.8069
L43.9622 -24.5084
L43.7921 -24.2082
L43.6183 -23.9063
L43.4408 -23.6027
L43.2595 -23.2975
L43.0745 -22.9906
L42.8856 -22.6822
L42.6927 -22.3722
L42.496 -22.0608
L42.2953 -21.748
L42.0906 -21.4338
L41.882 -21.1185
L41.6695 -20.8019
L41.453 -20.4844
L41.2327 -20.1659
L41.0086 -19.8465
L40.7808 -19.5265
L40.5495 -19.206
L40.3147 -18.8851
L40.0767 -18.564
L39.8357 -18.2428
L39.5919 -17.9217
L39.3458 -17.6009
L39.0977 -17.2807
L38.8481 -16.9611
L38.5975 -16.6425
L38.3467 -16.325
L38.0963 -16.0088
L37.8473 -15.6941
L37.6007 -15.3812
L37.3578 -15.0702
L37.1201 -14.7614
L36.8892 -14.4548
L36.667 -14.1507
L36.4558 -13.8491
L36.2582 -13.5503
L36.0768 -13.2543
L35.9149 -12.9611
L35.7757 -12.6708
L35.6627 -12.3834
L35.5793 -12.0989
L35.5287 -11.8173
L35.5136 -11.5388
L35.5359 -11.2634
L35.597 -10.9914
L35.697 -10.723
L35.8354 -10.4588
L36.0107 -10.1991
L36.2208 -9.9446
L36.4633 -9.69592
L36.7355 -9.45369
L37.0347 -9.21856
L37.3582 -8.99115
L37.7034 -8.77205
L38.0681 -8.56178
L38.4499 -8.36083
L38.8471 -8.16961
L39.2578 -7.98851
L39.7664 -7.81785
L40.2588 -7.74997
L40.75 -7.82
L41.2397 -7.89862
L41.7278 -7.9858
L42.2142 -8.08151
L42.6987 -8.18573
L43.1811 -8.29842
L43.6614 -8.41954
L44.1393 -8.54907
L44.6147 -8.68696
L45.0875 -8.83317
L45.5576 -8.98766
L46.0247 -9.15037
L46.4888 -9.32126
L46.9497 -9.50028
L47.4072 -9.68737
L47.8613 -9.88248
L48.3118 -10.0855
L48.7585 -10.2965
L49.2013 -10.5153
L49.6401 -10.7418
L50.0748 -10.9761
L50.5051 -11.2179
L50.9311 -11.4673
L51.3525 -11.7242
L51.7692 -11.9885
L52.1811 -12.2601
L52.5881 -12.5389
L52.99 -12.8249
L53.3868 -13.1179
L53.7783 -13.4179
L54.1643 -13.7248
L54.5448 -14.0385
L54.9197 -14.3588
L55.2888 -14.6858
L55.652 -15.0192
L56.0093 -15.3591
L56.3604 -15.7052
L56.7053 -16.0575
L57.044 -16.4159
L57.3762 -16.7802
L57.7019 -17.1504
L58.021 -17.5263
L58.3334 -17.9079
L58.639 -18.295
L58.9377 -18.6874
L59.2294 -19.0852
L59.5141 -19.4881
L59.7915 -19.896
L60.0618 -20.3088
L60.3247 -20.7264
L60.5801 -21.1487
L60.8281 -21.5755
L61.0686 -22.0067
L61.3014 -22.4421
L61.5265 -22.8817
L61.7438 -23.3252
L61.9533 -23.7727
L62.1548 -24.2238
L62.3484 -24.6786
L62.534 -25.1368
L62.7115 -25.5983
L62.8809 -26.0629
L63.042 -26.5306
L63.195 -27.0012
L63.3396 -27.4745
L63.4759 -27.9504
L63.6039 -28.4288
L63.7234 -28.9095
L63.8345 -29.3923
L63.9371 -29.8772
L64.0313 -30.3639
L64.1168 -30.8523
L64.1938 -31.3423
L64.2622 -31.8337
L64.3221 -32.3264
L64.3732 -32.8202
L64.4158 -33.315
L64.4497 -33.8106
L64.4749 -34.3068
L64.4914 -34.8036
L64.4993 -35.3007
L64.4985 -35.7981
L64.489 -36.2955
L64.4708 -36.7928
L64.4439 -37.2899
L64.4084 -37.7866
L64.3643 -38.2827
L64.3115 -38.7782
L64.25 -39.2728
L64.18 -39.7664
L64.1014 -40.2588
L64.0142 -40.75
L63.9185 -41.2397
L63.8143 -41.7278
L63.7016 -42.2142
L63.5805 -42.6987
L63.4509 -43.1811
L63.313 -43.6614
L63.1668 -44.1393
L63.0123 -44.6147
L62.8496 -45.0875
L62.6787 -45.5576
L62.4997 -46.0247
L62.3126 -46.4888
L62.1175 -46.9497
L61.9145 -47.4072
L61.7035 -47.8613
L61.4847 -48.3118
L61.2582 -48.7585
L61.0239 -49.2013
L60.7821 -49.6401
L60.5327 -50.0748
L60.2758 -50.5051
L60.0115 -50.9311
L59.7399 -51.3525
L59.4611 -51.7692
L59.1751 -52.1811
L58.8821 -52.5881
L58.5821 -52.99
L58.2752 -53.3868
L57.9615 -53.7783
L57.6412 -54.1643
L57.3142 -54.5448
L56.9808 -54.9197
L56.6409 -55.2888
L56.2948 -55.652
L55.9425 -56.0093
L55.5841 -56.3604
L55.2198 -56.7053
L54.8496 -57.044
L54.4737 -57.3762
L54.0921 -57.7019
L53.705 -58.021
L53.3126 -58.3334
L52.9148 -58.639
L52.5119 -58.9377
L52.104 -59.2294
L51.6912 -59.5141
L51.2736 -59.7915
L50.8513 -60.0618
L50.4245 -60.3247
L49.9933 -60.5801
L49.5579 -60.8281
L49.1183 -61.0686
L48.6748 -61.3014
z
" id="C0_1_126b88913c"/>
     <path d="
M32.3402 -64.1831
L31.9686 -63.921
L31.599 -63.6542
L31.2323 -63.3828
L30.8695 -63.1071
L30.5112 -62.8274
L30.1581 -62.5439
L29.8107 -62.2569
L29.4693 -61.9668
L29.1344 -61.6737
L28.806 -61.3779
L28.4845 -61.0799
L28.17 -60.7797
L27.8626 -60.4777
L27.5623 -60.1742
L27.2691 -59.8693
L26.983 -59.5633
L26.7041 -59.2565
L26.4322 -58.949
L26.1673 -58.6409
L25.9094 -58.3326
L25.6582 -58.0242
L25.4137 -57.7158
L25.1758 -57.4075
L24.9444 -57.0995
L24.7193 -56.7919
L24.5005 -56.4848
L24.2876 -56.1784
L24.0808 -55.8726
L23.8797 -55.5677
L23.6843 -55.2635
L23.4944 -54.9603
L23.3099 -54.6581
L23.1306 -54.3568
L22.9564 -54.0566
L22.7873 -53.7574
L22.6229 -53.4594
L22.4633 -53.1624
L22.3083 -52.8666
L22.1577 -52.5719
L22.0115 -52.2784
L21.8695 -51.986
L21.7317 -51.6946
L21.5978 -51.4045
L21.4679 -51.1154
L21.3417 -50.8273
L21.2193 -50.5404
L21.1004 -50.2544
L20.9851 -49.9695
L20.8732 -49.6855
L20.7646 -49.4025
L20.6593 -49.1204
L20.5571 -48.8391
L20.458 -48.5587
L20.3619 -48.279
L20.2688 -48.0001
L20.1786 -47.722
L20.0912 -47.4444
L20.0065 -47.1675
L19.9245 -46.8911
L19.8452 -46.6153
L19.7685 -46.3399
L19.6943 -46.065
L19.6225 -45.7904
L19.5533 -45.5161
L19.4864 -45.2421
L19.4219 -44.9683
L19.3597 -44.6946
L19.2998 -44.421
L19.2422 -44.1475
L19.1868 -43.8739
L19.1337 -43.6003
L19.0827 -43.3265
L19.0338 -43.0526
L18.9871 -42.7784
L18.9426 -42.5038
L18.9001 -42.229
L18.8597 -41.9537
L18.8215 -41.6779
L18.7853 -41.4015
L18.7512 -41.1245
L18.7191 -40.8469
L18.6891 -40.5685
L18.6612 -40.2894
L18.6354 -40.0093
L18.6117 -39.7284
L18.59 -39.4464
L18.5705 -39.1634
L18.5531 -38.8793
L18.5378 -38.594
L18.5247 -38.3075
L18.5137 -38.0197
L18.5049 -37.7305
L18.4984 -37.4398
L18.4941 -37.1477
L18.4921 -36.8539
L18.4925 -36.5586
L18.4952 -36.2615
L18.5003 -35.9627
L18.5078 -35.6621
L18.5178 -35.3596
L18.5304 -35.0551
L18.5455 -34.7487
L18.5633 -34.4401
L18.5838 -34.1294
L18.607 -33.8166
L18.6331 -33.5014
L18.662 -33.184
L18.6939 -32.8642
L18.7289 -32.542
L18.7669 -32.2173
L18.8082 -31.8901
L18.8527 -31.5604
L18.9006 -31.228
L18.9519 -30.893
L19.0067 -30.5554
L19.0652 -30.215
L19.1274 -29.8718
L19.1934 -29.5259
L19.2633 -29.1772
L19.3373 -28.8257
L19.4154 -28.4714
L19.4977 -28.1143
L19.5844 -27.7544
L19.6755 -27.3917
L19.7712 -27.0262
L19.8716 -26.658
L19.9767 -26.2871
L20.0867 -25.9136
L20.2016 -25.5374
L20.3216 -25.1588
L20.4468 -24.7777
L20.5772 -24.3943
L20.7129 -24.0086
L20.854 -23.6209
L21.0005 -23.2312
L21.1524 -22.8397
L21.3098 -22.4465
L21.4727 -22.0519
L21.641 -21.6561
L21.8147 -21.2592
L21.9936 -20.8616
L22.1777 -20.4635
L22.3667 -20.0652
L22.5605 -19.667
L22.7587 -19.2692
L22.9609 -18.8722
L23.1667 -18.4763
L23.3756 -18.0821
L23.5868 -17.6898
L23.7995 -17.3
L24.0127 -16.9131
L24.2254 -16.5298
L24.4361 -16.1504
L24.6432 -15.7757
L24.8448 -15.4062
L25.0389 -15.0426
L25.2229 -14.6855
L25.394 -14.3358
L25.5492 -13.9942
L25.6852 -13.6613
L25.7986 -13.338
L25.8859 -13.0251
L25.9441 -12.7231
L25.9704 -12.4327
L25.9628 -12.1544
L25.92 -11.8887
L25.8417 -11.6357
L25.7286 -11.3956
L25.582 -11.1685
L25.4038 -10.9542
L25.1965 -10.7528
L24.9626 -10.564
L24.7049 -10.3877
L23.8737 -10.2239
L23.4254 -10.2085
L22.981 -10.424
L22.5405 -10.6474
L22.1041 -10.8785
L21.672 -11.1172
L21.2442 -11.3635
L20.8209 -11.6173
L20.4022 -11.8785
L19.9883 -12.1471
L19.5793 -12.423
L19.1752 -12.706
L18.7763 -12.9961
L18.3827 -13.2933
L17.9944 -13.5973
L17.6116 -13.9082
L17.2343 -14.2258
L16.8629 -14.5501
L16.4972 -14.8808
L16.1375 -15.218
L15.7838 -15.5616
L15.4363 -15.9113
L15.095 -16.2672
L14.7601 -16.6291
L14.4317 -16.9969
L14.1099 -17.3705
L13.7947 -17.7497
L13.4863 -18.1345
L13.1847 -18.5248
L12.8901 -18.9204
L12.6026 -19.3212
L12.3221 -19.727
L12.0489 -20.1378
L11.783 -20.5535
L11.5244 -20.9739
L11.2733 -21.3988
L11.0297 -21.8282
L10.7938 -22.2619
L10.5655 -22.6998
L10.345 -23.1417
L10.1322 -23.5875
L9.9274 -24.0372
L9.73051 -24.4905
L9.54161 -24.9472
L9.36077 -25.4074
L9.18805 -25.8708
L9.02349 -26.3372
L8.86716 -26.8066
L8.71908 -27.2788
L8.57932 -27.7537
L8.44791 -28.2311
L8.32489 -28.7108
L8.21031 -29.1928
L8.10418 -29.6768
L8.00656 -30.1628
L7.91746 -30.6505
L7.83692 -31.1399
L7.76495 -31.6307
L7.70159 -32.1229
L7.64684 -32.6163
L7.60073 -33.1106
L7.56328 -33.6059
L7.53448 -34.1019
L7.51436 -34.5985
L7.50291 -35.0955
L7.50014 -35.5928
L7.50606 -36.0902
L7.52065 -36.5876
L7.54392 -37.0848
L7.57586 -37.5816
L7.61645 -38.078
L7.66569 -38.5738
L7.72357 -39.0687
L7.79005 -39.5628
L7.86513 -40.0557
L7.94878 -40.5474
L8.04097 -41.0378
L8.14168 -41.5266
L8.25088 -42.0137
L8.36853 -42.4989
L8.49459 -42.9822
L8.62904 -43.4634
L8.77182 -43.9423
L8.92289 -44.4188
L9.08222 -44.8927
L9.24974 -45.3639
L9.42541 -45.8323
L9.60918 -46.2976
L9.80098 -46.7599
L10.0008 -47.2188
L10.2085 -47.6743
L10.424 -48.1263
L10.6474 -48.5746
L10.8785 -49.019
L11.1172 -49.4595
L11.3635 -49.8959
L11.6173 -50.328
L11.8785 -50.7558
L12.1471 -51.1791
L12.423 -51.5978
L12.706 -52.0117
L12.9961 -52.4207
L13.2933 -52.8248
L13.5973 -53.2237
L13.9082 -53.6173
L14.2258 -54.0056
L14.5501 -54.3884
L14.8808 -54.7657
L15.218 -55.1371
L15.5616 -55.5028
L15.9113 -55.8625
L16.2672 -56.2162
L16.6291 -56.5637
L16.9969 -56.905
L17.3705 -57.2399
L17.7497 -57.5683
L18.1345 -57.8901
L18.5248 -58.2053
L18.9204 -58.5137
L19.3212 -58.8153
L19.727 -59.1099
L20.1378 -59.3974
L20.5535 -59.6779
L20.9739 -59.9511
L21.3988 -60.217
L21.8282 -60.4756
L22.2619 -60.7267
L22.6998 -60.9703
L23.1417 -61.2062
L23.5875 -61.4345
L24.0372 -61.655
L24.4905 -61.8678
L24.9472 -62.0726
L25.4074 -62.2695
L25.8708 -62.4584
L26.3372 -62.6392
L26.8066 -62.812
L27.2788 -62.9765
L27.7537 -63.1328
L28.2311 -63.2809
L28.7108 -63.4207
L29.1928 -63.5521
L29.6768 -63.6751
L30.1628 -63.7897
L30.6505 -63.8958
L31.1399 -63.9934
L31.6307 -64.0825
z
" id="C0_2_40b0a03a5a"/>
    </defs>
    <g clip-path="url(#p1bffca34e9)">
     <use style="fill:#ff0000;stroke:#000000;stroke-width:2.0;" x="0.0" xlink:href="#C0_0_a811fe30f3" y="72.0"/>
    </g>
    <g clip-path="url(#p1bffca34e9)">
     <use style="fill:#ffffff;stroke:#000000;stroke-width:2.0;" x="0.0" xlink:href="#C0_1_126b88913c" y="72.0"/>
    </g>
    <g clip-path="url(#p1bffca34e9)">
     <use style="fill:#ffffff;stroke:#000000;stroke-width:2.0;" x="0.0" xlink:href="#C0_2_40b0a03a5a" y="72.0"/>
    </g>
   </g>
  </g>
 </g>
 <defs>
  <clipPath id="p1bffca34e9">
   <rect height="72.0" width="72.0" x="0.0" y="0.0"/>
  </clipPath>
 </defs>
</svg>
