<?xml version="1.0" encoding="utf-8" standalone="no"?>
<!DOCTYPE svg PUBLIC "-//W3C//DTD SVG 1.1//EN"
  "http://www.w3.org/Graphics/SVG/1.1/DTD/svg11.dtd">
<!-- Created with matplotlib (http://matplotlib.org/) -->
<svg height="72pt" version="1.1" viewBox="0 0 72 72" width="72pt" xmlns="http://www.w3.org/2000/svg" xmlns:xlink="http://www.w3.org/1999/xlink">
 <defs>
  <style type="text/css">
*{stroke-linecap:butt;stroke-linejoin:round;}
  </style>
 </defs>
 <g id="figure_1">
  <g id="patch_1">
   <path d="
M0 72
L72 72
L72 0
L0 0
z
" style="fill:none;"/>
  </g>
  <g id="axes_1">
   <g id="PatchCollection_1">
    <defs>
     <path d="
M36 -7.5
C43.5583 -7.5 50.808 -10.5029 56.1525 -15.8475
C61.4971 -21.192 64.5 -28.4417 64.5 -36
C64.5 -43.5583 61.4971 -50.808 56.1525 -56.1525
C50.808 -61.4971 43.5583 -64.5 36 -64.5
C28.4417 -64.5 21.192 -61.4971 15.8475 -56.1525
C10.5029 -50.808 7.5 -43.5583 7.5 -36
C7.5 -28.4417 10.5029 -21.192 15.8475 -15.8475
C21.192 -10.5029 28.4417 -7.5 36 -7.5
z
" id="C0_0_a811fe30f3"/>
     <path d="
M24.1194 -10.2173
L24.0029 -10.5067
L23.9165 -10.7928
L23.8595 -11.0751
L23.8309 -11.3535
L23.8295 -11.6278
L23.8536 -11.8981
L23.9017 -12.1646
L23.9719 -12.4274
L24.0625 -12.6868
L24.1715 -12.9432
L24.2974 -13.1968
L24.4383 -13.448
L24.5926 -13.6971
L24.7589 -13.9443
L24.9356 -14.1901
L25.1216 -14.4344
L25.3156 -14.6777
L25.5166 -14.9199
L25.7236 -15.1614
L25.9358 -15.4021
L26.1522 -15.6421
L26.3723 -15.8816
L26.5954 -16.1206
L26.8208 -16.3591
L27.0482 -16.597
L27.277 -16.8345
L27.5068 -17.0715
L27.7372 -17.308
L27.968 -17.544
L28.1989 -17.7794
L28.4295 -18.0142
L28.6596 -18.2484
L28.8892 -18.482
L29.1178 -18.7149
L29.3455 -18.947
L29.5721 -19.1785
L29.7974 -19.4091
L30.0214 -19.639
L30.2439 -19.868
L30.465 -20.0961
L30.6844 -20.3234
L30.9022 -20.5498
L31.1184 -20.7753
L31.3328 -20.9999
L31.5455 -21.2235
L31.7565 -21.4462
L31.9656 -21.668
L32.1731 -21.8888
L32.3787 -22.1087
L32.5825 -22.3276
L32.7846 -22.5455
L32.985 -22.7626
L33.1836 -22.9787
L33.3805 -23.1939
L33.5757 -23.4082
L33.7692 -23.6216
L33.9611 -23.8342
L34.1514 -24.0459
L34.3401 -24.2567
L34.5272 -24.4668
L34.7128 -24.6761
L34.8969 -24.8847
L35.0796 -25.0925
L35.2608 -25.2996
L35.4407 -25.5061
L35.6192 -25.7119
L35.7964 -25.9171
L35.9723 -26.1217
L36.147 -26.3258
L36.3206 -26.5293
L36.4929 -26.7324
L36.6642 -26.9351
L36.8343 -27.1373
L37.0034 -27.3392
L37.1716 -27.5407
L37.3387 -27.742
L37.505 -27.943
L37.6704 -28.1437
L37.8349 -28.3443
L37.9986 -28.5448
L38.1616 -28.7452
L38.3238 -28.9455
L38.4853 -29.1458
L38.6462 -29.3461
L38.8065 -29.5465
L38.9662 -29.747
L39.1253 -29.9476
L39.284 -30.1485
L39.4421 -30.3495
L39.7572 -30.5509
L39.9142 -30.7526
L40.0708 -30.9547
L40.2272 -31.1572
L40.3833 -31.3601
L40.5391 -31.5636
L40.6948 -31.7676
L40.8503 -31.9722
L41.0057 -32.1774
L41.161 -32.3834
L41.3163 -32.59
L41.4715 -32.7975
L41.6267 -33.0058
L41.7819 -33.215
L41.9372 -33.4251
L42.0926 -33.6362
L42.2481 -33.8483
L42.4038 -34.0615
L42.5597 -34.2758
L42.7158 -34.4913
L42.8721 -34.708
L43.0287 -34.9259
L43.1855 -35.1452
L43.3427 -35.3659
L43.5003 -35.5879
L43.6582 -35.8115
L43.8165 -36.0365
L43.9753 -36.2631
L44.1344 -36.4913
L44.2941 -36.7211
L44.4542 -36.9527
L44.6149 -37.1859
L44.776 -37.421
L44.9378 -37.6579
L45.1001 -37.8966
L45.2629 -38.1373
L45.4264 -38.3799
L45.5905 -38.6245
L45.7552 -38.871
L45.9206 -39.1197
L46.0866 -39.3704
L46.2533 -39.6232
L46.4207 -39.8781
L46.5887 -40.1352
L46.7574 -40.3944
L46.9268 -40.6557
L47.0969 -40.9193
L47.2678 -41.1849
L47.4393 -41.4528
L47.6115 -41.7228
L47.7844 -41.9949
L47.958 -42.2691
L48.1323 -42.5453
L48.3074 -42.8235
L48.4831 -43.1037
L48.6595 -43.3857
L48.8366 -43.6695
L49.0144 -43.9549
L49.193 -44.2419
L49.3722 -44.5304
L49.5521 -44.8201
L49.7328 -45.1109
L49.9143 -45.4026
L50.0965 -45.6949
L50.2796 -45.9877
L50.4635 -46.2807
L50.6484 -46.5735
L50.8342 -46.8658
L51.0212 -47.1571
L51.2094 -47.4472
L51.399 -47.7354
L51.5901 -48.0213
L51.7829 -48.3043
L51.9776 -48.5837
L52.1746 -48.8588
L52.3741 -49.1288
L52.5764 -49.3929
L52.7821 -49.65
L52.9914 -49.8991
L53.205 -50.1391
L53.4234 -50.3687
L53.6471 -50.5867
L53.8768 -50.7916
L54.113 -50.9818
L54.3565 -51.156
L54.6077 -51.3124
L54.8673 -51.4495
L55.1357 -51.5658
L55.4132 -51.6598
L55.7 -51.7302
L55.996 -51.7759
L56.3012 -51.7959
L56.6152 -51.7895
L56.9373 -51.7564
L57.2668 -51.6965
L57.603 -51.6098
L57.9446 -51.4968
L58.2907 -51.3581
L58.6401 -51.1945
L58.9917 -51.0068
L59.3442 -50.7962
L59.6966 -50.5637
L60.0478 -50.3105
L60.3967 -50.0377
L60.7424 -49.7464
L61.0839 -49.4377
L61.4205 -49.1128
L61.6855 -48.7727
L61.8971 -48.3493
L62.1009 -47.8991
L62.2966 -47.4453
L62.4844 -46.9881
L62.6641 -46.5275
L62.8357 -46.0636
L62.9991 -45.5967
L63.1542 -45.1269
L63.3011 -44.6543
L63.4397 -44.1791
L63.57 -43.7014
L63.6918 -43.2213
L63.8052 -42.7391
L63.9101 -42.2548
L64.0065 -41.7685
L64.0944 -41.2806
L64.1738 -40.791
L64.2445 -40.2999
L64.3067 -39.8076
L64.3602 -39.3141
L64.4051 -38.8195
L64.4413 -38.3242
L64.4689 -37.8281
L64.4878 -37.3314
L64.498 -36.8344
L64.4995 -36.3371
L64.4924 -35.8397
L64.4766 -35.3423
L64.4521 -34.8451
L64.4189 -34.3483
L64.3771 -33.852
L64.3267 -33.3564
L64.2676 -32.8615
L64.1999 -32.3676
L64.1236 -31.8748
L64.0387 -31.3833
L63.9453 -30.8932
L63.8434 -30.4046
L63.733 -29.9178
L63.6142 -29.4328
L63.487 -28.9498
L63.3513 -28.4689
L63.2074 -27.9903
L63.0551 -27.5142
L62.8946 -27.0407
L62.726 -26.5698
L62.5492 -26.1019
L62.3643 -25.637
L62.1713 -25.1752
L61.9704 -24.7167
L61.7616 -24.2617
L61.5449 -23.8102
L61.3205 -23.3625
L61.0883 -22.9186
L60.8485 -22.4787
L60.6012 -22.0429
L60.3463 -21.6114
L60.084 -21.1842
L59.8144 -20.7616
L59.5375 -20.3436
L59.2535 -19.9303
L58.9624 -19.522
L58.6643 -19.1187
L58.3592 -18.7205
L58.0474 -18.3276
L57.7289 -17.94
L57.4037 -17.558
L57.072 -17.1816
L56.7339 -16.8109
L56.3895 -16.4461
L56.0388 -16.0872
L55.6821 -15.7344
L55.3194 -15.3878
L54.9508 -15.0474
L54.5764 -14.7134
L54.1963 -14.3859
L53.8107 -14.065
L53.4197 -13.7508
L53.0234 -13.4433
L52.6219 -13.1428
L52.2153 -12.8491
L51.8038 -12.5626
L51.3875 -12.2831
L50.9665 -12.0109
L50.5409 -11.746
L50.1109 -11.4885
L49.6766 -11.2385
L49.2382 -10.996
L48.7957 -10.7611
L48.3493 -10.5339
L47.8991 -10.3145
L47.4453 -10.1029
L46.9881 -9.89915
L46.5275 -9.70338
L46.0636 -9.51561
L45.5967 -9.33592
L45.1269 -9.16434
L44.6543 -9.00094
L44.1791 -8.84577
L43.7014 -8.69887
L43.2213 -8.56028
L42.7391 -8.43005
L42.2548 -8.30822
L41.7685 -8.19482
L41.2806 -8.0899
L40.791 -7.99347
L40.2999 -7.90558
L39.8076 -7.82624
L39.3141 -7.75549
L38.8195 -7.69334
L38.3242 -7.63981
L37.8281 -7.59493
L37.3314 -7.55869
L36.8344 -7.53112
L36.3371 -7.51222
L35.8397 -7.50199
L35.3423 -7.50045
L34.8451 -7.50759
L34.3483 -7.52341
L33.852 -7.5479
L33.3564 -7.58106
L32.8615 -7.62288
L32.3676 -7.67334
L31.8748 -7.73242
L31.3833 -7.80012
L30.8932 -7.87641
L30.4046 -7.96127
L29.9178 -8.05466
L29.4328 -8.15657
L28.9498 -8.26696
L28.4689 -8.3858
L27.9903 -8.51305
L27.5142 -8.64867
L27.0407 -8.79263
L26.5698 -8.94487
L26.1019 -9.10535
L25.637 -9.27403
L25.1752 -9.45084
L24.7167 -9.63574
z
" id="C0_1_624d8bddd4"/>
     <path d="
M10.4098 -23.6593
L10.3358 -24.1393
L10.2669 -24.6207
L10.2036 -25.103
L10.1461 -25.5853
L10.0947 -26.0672
L10.0498 -26.5481
L10.0113 -27.0274
L9.97944 -27.5049
L9.95425 -27.9799
L9.93573 -28.4522
L9.92385 -28.9215
L9.91857 -29.3874
L9.91982 -29.8497
L9.92748 -30.3081
L9.94146 -30.7625
L9.96161 -31.2126
L9.98781 -31.6583
L10.0199 -32.0995
L10.0578 -32.536
L10.1012 -32.9678
L10.15 -33.3948
L10.2042 -33.8169
L10.2634 -34.2341
L10.3276 -34.6463
L10.3965 -35.0536
L10.4701 -35.4559
L10.5481 -35.8532
L10.6305 -36.2456
L10.717 -36.6331
L10.8075 -37.0157
L10.902 -37.3935
L11.0002 -37.7664
L11.1021 -38.1346
L11.2074 -38.4981
L11.3162 -38.8569
L11.4282 -39.2112
L11.5434 -39.561
L11.6617 -39.9063
L11.783 -40.2473
L11.9072 -40.584
L12.0342 -40.9165
L12.1639 -41.2448
L12.2963 -41.5691
L12.4313 -41.8894
L12.5688 -42.2059
L12.7087 -42.5185
L12.8511 -42.8273
L12.9958 -43.1326
L13.1428 -43.4342
L13.2922 -43.7323
L13.4437 -44.0271
L13.5975 -44.3185
L13.7534 -44.6066
L13.9114 -44.8915
L14.0716 -45.1733
L14.2339 -45.4521
L14.3982 -45.7279
L14.5647 -46.0009
L14.7332 -46.271
L14.9037 -46.5383
L15.0763 -46.8029
L15.251 -47.065
L15.4277 -47.3244
L15.6065 -47.5814
L15.7874 -47.8359
L15.9704 -48.088
L16.1554 -48.3379
L16.3426 -48.5854
L16.5319 -48.8307
L16.7234 -49.0739
L16.917 -49.315
L17.1129 -49.554
L17.311 -49.791
L17.5114 -50.026
L17.714 -50.2591
L17.919 -50.4902
L18.1264 -50.7196
L18.3362 -50.9471
L18.5485 -51.1728
L18.7633 -51.3968
L18.9806 -51.6191
L19.2005 -51.8397
L19.4231 -52.0587
L19.6484 -52.2759
L19.8764 -52.4916
L20.1073 -52.7057
L20.341 -52.9182
L20.5777 -53.1291
L20.8174 -53.3385
L21.0601 -53.5463
L21.306 -53.7526
L21.5551 -53.9573
L21.8074 -54.1605
L22.0631 -54.3622
L22.3221 -54.5623
L22.5847 -54.7608
L22.8508 -54.9578
L23.1206 -55.1532
L23.3941 -55.347
L23.6713 -55.5392
L23.9524 -55.7297
L24.2375 -55.9185
L24.5266 -56.1056
L24.8199 -56.291
L25.1173 -56.4746
L25.419 -56.6563
L25.7251 -56.8361
L26.0356 -57.0139
L26.3506 -57.1898
L26.6702 -57.3636
L26.9944 -57.5352
L27.3235 -57.7046
L27.6573 -57.8717
L27.996 -58.0364
L28.3397 -58.1986
L28.6884 -58.3583
L29.0422 -58.5152
L29.4011 -58.6694
L29.7652 -58.8208
L30.1344 -58.9691
L30.509 -59.1143
L30.8888 -59.2562
L31.2739 -59.3948
L31.6642 -59.5299
L32.0599 -59.6614
L32.4608 -59.7891
L32.8669 -59.9129
L33.2783 -60.0327
L33.6947 -60.1484
L34.1162 -60.2597
L34.5425 -60.3666
L34.9737 -60.469
L35.4096 -60.5667
L35.8499 -60.6596
L36.2945 -60.7476
L36.7431 -60.8307
L37.1956 -60.9088
L37.6515 -60.9819
L38.1105 -61.0498
L38.5723 -61.1128
L39.0364 -61.1706
L39.5024 -61.2236
L39.9698 -61.2718
L40.4379 -61.3153
L40.9062 -61.3545
L41.374 -61.3896
L41.8404 -61.4211
L42.3047 -61.4493
L42.766 -61.4749
L43.2233 -61.4984
L43.6755 -61.5207
L44.1217 -61.5426
L44.5605 -61.565
L44.9909 -61.589
L45.4114 -61.6158
L45.8208 -61.6466
L46.2178 -61.6825
L46.6011 -61.7251
L46.9695 -61.7754
L47.3217 -61.8348
L47.2399 -61.9044
L46.7811 -62.19
L46.319 -62.3822
L45.8538 -62.5663
L45.3856 -62.7423
L44.9145 -62.9102
L44.4407 -63.0699
L43.9643 -63.2214
L43.4856 -63.3646
L43.0045 -63.4994
L42.5213 -63.6258
L42.0361 -63.7439
L41.5491 -63.8535
L41.0603 -63.9546
L40.5701 -64.0472
L40.0784 -64.1312
L39.5855 -64.2067
L39.0915 -64.2736
L38.5966 -64.3318
L38.1009 -64.3815
L37.6045 -64.4225
L37.1077 -64.4548
L36.6105 -64.4785
L36.1131 -64.4935
L35.6157 -64.4998
L35.1184 -64.4974
L34.6214 -64.4864
L34.1248 -64.4666
L33.6288 -64.4382
L33.1335 -64.4012
L32.639 -64.3555
L32.1456 -64.3011
L31.6534 -64.2382
L31.1625 -64.1666
L30.673 -64.0864
L30.1852 -63.9977
L29.6992 -63.9005
L29.215 -63.7948
L28.733 -63.6806
L28.2531 -63.5579
L27.7757 -63.4269
L27.3007 -63.2875
L26.8283 -63.1399
L26.3588 -62.9839
L25.8922 -62.8197
L25.4287 -62.6474
L24.9684 -62.4669
L24.5114 -62.2784
L24.058 -62.0819
L23.6082 -61.8774
L23.1622 -61.665
L22.7201 -61.4448
L22.282 -61.2169
L21.8481 -60.9813
L21.4185 -60.7381
L20.9934 -60.4873
L20.5728 -60.2291
L20.1569 -59.9635
L19.7459 -59.6906
L19.3398 -59.4105
L18.9388 -59.1233
L18.5429 -58.829
L18.1524 -58.5278
L17.7674 -58.2197
L17.3878 -57.9048
L17.014 -57.5833
L16.6459 -57.2552
L16.2838 -56.9206
L15.9276 -56.5796
L15.5776 -56.2324
L15.2337 -55.879
L14.8962 -55.5195
L14.5652 -55.1541
L14.2406 -54.7829
L13.9227 -54.406
L13.6115 -54.0234
L13.3072 -53.6354
L13.0097 -53.2419
L12.7192 -52.8433
L12.4359 -52.4395
L12.1597 -52.0307
L11.8908 -51.617
L11.6292 -51.1985
L11.375 -50.7754
L11.1284 -50.3479
L10.8893 -49.9159
L10.6579 -49.4797
L10.4342 -49.0394
L10.2182 -48.5952
L10.0102 -48.1471
L9.81002 -47.6953
L9.61785 -47.2399
L9.43371 -46.7811
L9.25766 -46.319
L9.08976 -45.8538
L8.93006 -45.3856
L8.77861 -44.9145
L8.63544 -44.4407
L8.50061 -43.9643
L8.37416 -43.4856
L8.25612 -43.0045
L8.14653 -42.5213
L8.04543 -42.0361
L7.95284 -41.5491
L7.8688 -41.0603
L7.79333 -40.5701
L7.72644 -40.0784
L7.66817 -39.5855
L7.61853 -39.0915
L7.57754 -38.5966
L7.5452 -38.1009
L7.52153 -37.6045
L7.50654 -37.1077
L7.50022 -36.6105
L7.50259 -36.1131
L7.51364 -35.6157
L7.53336 -35.1184
L7.56176 -34.6214
L7.59881 -34.1248
L7.64452 -33.6288
L7.69887 -33.1335
L7.76184 -32.639
L7.83341 -32.1456
L7.91356 -31.6534
L8.00226 -31.1625
L8.09949 -30.673
L8.20522 -30.1852
L8.31942 -29.6992
L8.44205 -29.215
L8.57307 -28.733
L8.71245 -28.2531
L8.86014 -27.7757
L9.0161 -27.3007
L9.18028 -26.8283
L9.35263 -26.3588
L9.53309 -25.8922
L9.72162 -25.4287
L9.91815 -24.9684
z
" id="C0_2_1e40b6dad4"/>
    </defs>
    <g clip-path="url(#p1bffca34e9)">
     <use style="fill:#ff0000;stroke:#000000;stroke-width:2.0;" x="0.0" xlink:href="#C0_0_a811fe30f3" y="72.0"/>
    </g>
    <g clip-path="url(#p1bffca34e9)">
     <use style="fill:#ffffff;stroke:#000000;stroke-width:2.0;" x="0.0" xlink:href="#C0_1_624d8bddd4" y="72.0"/>
    </g>
    <g clip-path="url(#p1bffca34e9)">
     <use style="fill:#ffffff;stroke:#000000;stroke-width:2.0;" x="0.0" xlink:href="#C0_2_1e40b6dad4" y="72.0"/>
    </g>
   </g>
  </g>
 </g>
 <defs>
  <clipPath id="p1bffca34e9">
   <rect height="72.0" width="72.0" x="0.0" y="0.0"/>
  </clipPath>
 </defs>
</svg>
