<?xml version="1.0" encoding="utf-8" standalone="no"?>
<!DOCTYPE svg PUBLIC "-//W3C//DTD SVG 1.1//EN"
  "http://www.w3.org/Graphics/SVG/1.1/DTD/svg11.dtd">
<!-- Created with matplotlib (http://matplotlib.org/) -->
<svg height="72pt" version="1.1" viewBox="0 0 72 72" width="72pt" xmlns="http://www.w3.org/2000/svg" xmlns:xlink="http://www.w3.org/1999/xlink">
 <defs>
  <style type="text/css">
*{stroke-linecap:butt;stroke-linejoin:round;}
  </style>
 </defs>
 <g id="figure_1">
  <g id="patch_1">
   <path d="
M0 72
L72 72
L72 0
L0 0
z
" style="fill:none;"/>
  </g>
  <g id="axes_1">
   <g id="PatchCollection_1">
    <defs>
     <path d="
M36 -7.5
C43.5583 -7.5 50.808 -10.5029 56.1525 -15.8475
C61.4971 -21.192 64.5 -28.4417 64.5 -36
C64.5 -43.5583 61.4971 -50.808 56.1525 -56.1525
C50.808 -61.4971 43.5583 -64.5 36 -64.5
C28.4417 -64.5 21.192 -61.4971 15.8475 -56.1525
C10.5029 -50.808 7.5 -43.5583 7.5 -36
C7.5 -28.4417 10.5029 -21.192 15.8475 -15.8475
C21.192 -10.5029 28.4417 -7.5 36 -7.5
z
" id="C0_0_a811fe30f3"/>
     <path d="
M47.488 -26.7009
L47.6246 -26.9417
L47.7592 -27.1838
L47.8917 -27.4271
L48.0222 -27.6718
L48.1508 -27.9177
L48.2773 -28.1651
L48.4018 -28.4139
L48.5243 -28.6641
L48.6449 -28.9159
L48.7635 -29.1691
L48.8801 -29.4239
L48.9948 -29.6803
L49.1074 -29.9383
L49.2181 -30.198
L49.3268 -30.4595
L49.4335 -30.7226
L49.5382 -30.9876
L49.6408 -31.2544
L49.7414 -31.5232
L49.8399 -31.7938
L49.9363 -32.0664
L50.0306 -32.341
L50.1227 -32.6176
L50.2127 -32.8963
L50.3004 -33.1771
L50.3858 -33.4601
L50.4689 -33.7453
L50.5497 -34.0328
L50.628 -34.3225
L50.7039 -34.6144
L50.7772 -34.9088
L50.848 -35.2055
L50.9161 -35.5046
L50.9815 -35.8061
L51.0441 -36.11
L51.1038 -36.4164
L51.1605 -36.7253
L51.2142 -37.0367
L51.2648 -37.3506
L51.3121 -37.667
L51.3561 -37.9859
L51.3966 -38.3073
L51.4336 -38.6313
L51.4669 -38.9577
L51.4964 -39.2866
L51.522 -39.618
L51.5435 -39.9517
L51.5608 -40.2878
L51.5738 -40.6263
L51.5823 -40.967
L51.5861 -41.3099
L51.5851 -41.655
L51.5791 -42.002
L51.568 -42.351
L51.5515 -42.7019
L51.5295 -43.0544
L51.5018 -43.4085
L51.4682 -43.764
L51.4284 -44.1207
L51.3824 -44.4785
L51.3298 -44.8371
L51.2705 -45.1964
L51.2043 -45.5561
L51.1309 -45.9159
L51.0501 -46.2756
L50.9617 -46.6348
L50.8654 -46.9934
L50.7611 -47.3508
L50.6484 -47.7068
L50.5273 -48.061
L50.3974 -48.4129
L50.2586 -48.7622
L50.1107 -49.1084
L49.9534 -49.4511
L49.7867 -49.7896
L49.6102 -50.1237
L49.4239 -50.4526
L49.2277 -50.7759
L49.0214 -51.0931
L48.805 -51.4035
L48.5783 -51.7067
L48.3415 -52.002
L48.0945 -52.289
L47.8373 -52.5671
L47.5701 -52.8357
L47.2931 -53.0945
L47.0063 -53.3428
L46.7101 -53.5804
L46.4046 -53.8067
L46.0903 -54.0215
L45.7675 -54.2244
L45.4366 -54.4151
L45.098 -54.5936
L44.7522 -54.7596
L44.3997 -54.913
L44.041 -55.0538
L43.6767 -55.182
L43.3072 -55.2977
L42.9333 -55.4008
L42.5553 -55.4917
L42.1739 -55.5704
L41.7897 -55.6371
L41.4031 -55.6922
L41.0146 -55.7357
L40.6248 -55.7681
L40.2342 -55.7896
L39.8432 -55.8006
L39.4522 -55.8012
L39.0617 -55.792
L38.6721 -55.7731
L38.2836 -55.745
L37.8967 -55.708
L37.5117 -55.6624
L37.1289 -55.6085
L36.7484 -55.5466
L36.3707 -55.4772
L35.9958 -55.4004
L35.6241 -55.3166
L35.2556 -55.2262
L34.8906 -55.1293
L34.5292 -55.0263
L34.1714 -54.9174
L33.8176 -54.803
L33.4676 -54.6832
L33.1217 -54.5583
L32.7798 -54.4286
L32.4421 -54.2942
L32.1085 -54.1555
L31.7792 -54.0125
L31.4542 -53.8655
L31.1333 -53.7148
L30.8168 -53.5604
L30.5045 -53.4025
L30.1965 -53.2413
L29.8927 -53.077
L29.5932 -52.9096
L29.2979 -52.7395
L29.0067 -52.5665
L28.7197 -52.391
L28.4368 -52.213
L28.158 -52.0326
L27.8832 -51.8499
L27.6124 -51.6651
L27.3455 -51.4781
L27.0825 -51.2892
L26.8234 -51.0983
L26.568 -50.9055
L26.3164 -50.711
L26.0684 -50.5147
L25.8241 -50.3167
L25.5834 -50.1171
L25.3461 -49.916
L25.1124 -49.7133
L24.882 -49.5091
L24.655 -49.3034
L24.4313 -49.0963
L24.2108 -48.8878
L23.9936 -48.678
L23.7794 -48.4667
L23.5684 -48.2541
L23.3605 -48.0402
L23.1555 -47.825
L22.9535 -47.6085
L22.7544 -47.3906
L22.5581 -47.1714
L22.3647 -46.951
L22.174 -46.7292
L21.9861 -46.5061
L21.8009 -46.2816
L21.6184 -46.0559
L21.4385 -45.8288
L21.2611 -45.6003
L21.0864 -45.3705
L20.9142 -45.1392
L20.7444 -44.9066
L20.5772 -44.6725
L20.4124 -44.4369
L20.2501 -44.1999
L20.0902 -43.9614
L19.9326 -43.7213
L19.7775 -43.4797
L19.6247 -43.2364
L19.4742 -42.9916
L19.3261 -42.7451
L19.1804 -42.4969
L19.037 -42.2469
L18.8959 -41.9952
L18.7571 -41.7417
L18.6207 -41.4863
L18.4866 -41.2291
L18.3548 -40.97
L18.2254 -40.7088
L18.0984 -40.4457
L17.9738 -40.1806
L17.8515 -39.9133
L17.7317 -39.6439
L17.6143 -39.3724
L17.4995 -39.0986
L17.3871 -38.8226
L17.2773 -38.5442
L17.17 -38.2635
L17.0654 -37.9804
L16.9635 -37.6949
L16.8643 -37.4069
L16.7678 -37.1164
L16.6742 -36.8233
L16.5835 -36.5276
L16.4957 -36.2293
L16.411 -35.9283
L16.3294 -35.6245
L16.251 -35.318
L16.1758 -35.0087
L16.104 -34.6966
L16.0356 -34.3816
L15.9708 -34.0638
L15.9097 -33.7431
L15.8523 -33.4194
L15.7987 -33.0928
L15.7492 -32.7633
L15.7038 -32.4308
L15.6627 -32.0954
L15.626 -31.757
L15.5938 -31.4156
L15.5662 -31.0714
L15.5436 -30.7242
L15.5259 -30.3742
L15.5134 -30.0213
L15.5062 -29.6657
L15.5045 -29.3073
L15.5086 -28.9462
L15.5185 -28.5826
L15.5345 -28.2165
L15.5569 -27.8481
L15.5857 -27.4773
L15.6211 -27.1044
L15.6636 -26.7296
L15.7131 -26.3529
L15.77 -25.9745
L15.8344 -25.5947
L15.9066 -25.2137
L15.9869 -24.8317
L16.0754 -24.449
L16.1723 -24.0658
L16.2779 -23.6824
L16.3924 -23.2992
L16.516 -22.9166
L16.6489 -22.5349
L16.7914 -22.1544
L16.9435 -21.7757
L17.1055 -21.3991
L17.2775 -21.0253
L17.4597 -20.6545
L17.6521 -20.2875
L17.855 -19.9246
L18.0684 -19.5666
L18.2922 -19.214
L18.5267 -18.8674
L18.7716 -18.5274
L19.0271 -18.1946
L19.293 -17.8697
L19.5691 -17.5534
L19.8554 -17.2461
L20.1516 -16.9487
L20.4575 -16.6616
L20.7727 -16.3855
L21.097 -16.1209
L21.43 -15.8682
L21.7711 -15.6281
L22.1201 -15.4008
L22.4763 -15.1867
L22.8393 -14.9862
L23.2084 -14.7995
L23.5833 -14.6268
L23.9631 -14.4681
L24.3474 -14.3236
L24.7356 -14.1931
L25.127 -14.0768
L25.521 -13.9744
L25.9172 -13.8857
L26.3148 -13.8107
L26.7135 -13.7489
L27.1126 -13.7001
L27.5116 -13.664
L27.9101 -13.6402
L28.3076 -13.6285
L28.7038 -13.6283
L29.0982 -13.6392
L29.4904 -13.661
L29.8802 -13.6932
L30.2672 -13.7353
L30.6511 -13.787
L31.0318 -13.8479
L31.4089 -13.9175
L31.7823 -13.9955
L32.1518 -14.0815
L32.5173 -14.1751
L32.8785 -14.276
L33.2354 -14.3837
L33.5879 -14.498
L33.9358 -14.6185
L34.2792 -14.7449
L34.618 -14.8769
L34.9521 -15.0142
L35.2815 -15.1565
L35.6061 -15.3036
L35.9261 -15.4551
L36.2413 -15.6109
L36.5517 -15.7708
L36.8575 -15.9344
L37.1586 -16.1016
L37.4551 -16.2721
L37.7469 -16.4459
L38.0342 -16.6227
L38.317 -16.8023
L38.5952 -16.9846
L38.8691 -17.1695
L39.1386 -17.3567
L39.4038 -17.5462
L39.6647 -17.7378
L39.9215 -17.9315
L40.1741 -18.127
L40.4227 -18.3244
L40.6673 -18.5235
L40.908 -18.7243
L41.1449 -18.9265
L41.3779 -19.1303
L41.6073 -19.3355
L41.833 -19.542
L42.0551 -19.7498
L42.2738 -19.9588
L42.4889 -20.169
L42.7007 -20.3804
L42.9092 -20.5929
L43.1144 -20.8064
L43.3165 -21.021
L43.5154 -21.2366
L43.7113 -21.4532
L43.9041 -21.6708
L44.094 -21.8893
L44.281 -22.1088
L44.4652 -22.3292
L44.6466 -22.5506
L44.8253 -22.7728
L45.0013 -22.996
L45.1746 -23.2202
L45.3454 -23.4452
L45.5137 -23.6712
L45.6794 -23.8982
L45.8427 -24.1261
L46.0036 -24.3549
L46.1622 -24.5848
L46.3184 -24.8156
L46.4723 -25.0475
L46.6239 -25.2804
L46.7733 -25.5144
L46.9206 -25.7494
L47.0656 -25.9855
L47.2085 -26.2228
z
" id="C0_1_37e4267bc9"/>
    </defs>
    <g clip-path="url(#p1bffca34e9)">
     <use style="fill:#ffffff;stroke:#000000;stroke-width:2.0;" x="0.0" xlink:href="#C0_0_a811fe30f3" y="72.0"/>
    </g>
    <g clip-path="url(#p1bffca34e9)">
     <use style="fill:#ff0000;stroke:#000000;stroke-width:2.0;" x="0.0" xlink:href="#C0_1_37e4267bc9" y="72.0"/>
    </g>
   </g>
  </g>
 </g>
 <defs>
  <clipPath id="p1bffca34e9">
   <rect height="72.0" width="72.0" x="0.0" y="0.0"/>
  </clipPath>
 </defs>
</svg>
