<?xml version="1.0" encoding="utf-8" standalone="no"?>
<!DOCTYPE svg PUBLIC "-//W3C//DTD SVG 1.1//EN"
  "http://www.w3.org/Graphics/SVG/1.1/DTD/svg11.dtd">
<!-- Created with matplotlib (http://matplotlib.org/) -->
<svg height="72pt" version="1.1" viewBox="0 0 72 72" width="72pt" xmlns="http://www.w3.org/2000/svg" xmlns:xlink="http://www.w3.org/1999/xlink">
 <defs>
  <style type="text/css">
*{stroke-linecap:butt;stroke-linejoin:round;}
  </style>
 </defs>
 <g id="figure_1">
  <g id="patch_1">
   <path d="
M0 72
L72 72
L72 0
L0 0
z
" style="fill:none;"/>
  </g>
  <g id="axes_1">
   <g id="PatchCollection_1">
    <defs>
     <path d="
M36 -7.5
C43.5583 -7.5 50.808 -10.5029 56.1525 -15.8475
C61.4971 -21.192 64.5 -28.4417 64.5 -36
C64.5 -43.5583 61.4971 -50.808 56.1525 -56.1525
C50.808 -61.4971 43.5583 -64.5 36 -64.5
C28.4417 -64.5 21.192 -61.4971 15.8475 -56.1525
C10.5029 -50.808 7.5 -43.5583 7.5 -36
C7.5 -28.4417 10.5029 -21.192 15.8475 -15.8475
C21.192 -10.5029 28.4417 -7.5 36 -7.5
z
" id="C0_0_a811fe30f3"/>
     <path d="
M25.0836 -62.0906
L24.8842 -61.7674
L24.6926 -61.445
L24.5085 -61.1236
L24.3319 -60.8033
L24.1623 -60.4843
L23.9996 -60.1667
L23.8435 -59.8505
L23.6938 -59.5358
L23.5503 -59.2228
L23.4128 -58.9114
L23.281 -58.6018
L23.1548 -58.2939
L23.0339 -57.9879
L22.9183 -57.6836
L22.8076 -57.3812
L22.7017 -57.0807
L22.6005 -56.782
L22.5037 -56.4851
L22.4113 -56.1901
L22.3231 -55.897
L22.2389 -55.6056
L22.1585 -55.3161
L22.082 -55.0283
L22.009 -54.7423
L21.9396 -54.4579
L21.8736 -54.1752
L21.8108 -53.8942
L21.7512 -53.6148
L21.6947 -53.3369
L21.6412 -53.0605
L21.5906 -52.7856
L21.5427 -52.5121
L21.4976 -52.2399
L21.4551 -51.9691
L21.4152 -51.6995
L21.3778 -51.4311
L21.3429 -51.1639
L21.3102 -50.8977
L21.2799 -50.6327
L21.2519 -50.3686
L21.226 -50.1054
L21.2023 -49.8431
L21.1807 -49.5816
L21.1612 -49.3209
L21.1437 -49.0608
L21.1282 -48.8014
L21.1146 -48.5426
L21.1029 -48.2842
L21.0931 -48.0264
L21.0852 -47.7689
L21.0791 -47.5118
L21.0748 -47.2549
L21.0723 -46.9983
L21.0716 -46.7417
L21.0727 -46.4853
L21.0755 -46.2289
L21.0863 -45.9725
L21.0942 -45.716
L21.1039 -45.4593
L21.1153 -45.2023
L21.1284 -44.9451
L21.1433 -44.6876
L21.1598 -44.4296
L21.1781 -44.1711
L21.1981 -43.9121
L21.2198 -43.6525
L21.2433 -43.3922
L21.2686 -43.1312
L21.2956 -42.8693
L21.3244 -42.6066
L21.3551 -42.343
L21.3876 -42.0783
L21.422 -41.8126
L21.4583 -41.5458
L21.4964 -41.2778
L21.5366 -41.0085
L21.5787 -40.7378
L21.6228 -40.4658
L21.669 -40.1923
L21.7173 -39.9172
L21.7677 -39.6406
L21.8203 -39.3623
L21.8751 -39.0822
L21.9322 -38.8004
L21.9916 -38.5167
L22.0534 -38.2311
L22.1176 -37.9434
L22.1843 -37.6538
L22.2536 -37.3619
L22.3255 -37.0679
L22.4 -36.7717
L22.4773 -36.4731
L22.5574 -36.1722
L22.6403 -35.8689
L22.7263 -35.5631
L22.8152 -35.2547
L22.9073 -34.9438
L23.0025 -34.6302
L23.1011 -34.3139
L23.203 -33.9949
L23.3083 -33.6732
L23.4171 -33.3486
L23.5296 -33.0213
L23.6458 -32.691
L23.7657 -32.3579
L23.8896 -32.0219
L24.0174 -31.683
L24.1493 -31.3412
L24.2853 -30.9965
L24.4255 -30.6489
L24.5701 -30.2984
L24.7191 -29.945
L24.8726 -29.5889
L25.0306 -29.2299
L25.1932 -28.8683
L25.3605 -28.504
L25.5325 -28.1371
L25.7093 -27.7678
L25.8909 -27.396
L26.0773 -27.0221
L26.2686 -26.646
L26.4646 -26.2679
L26.6654 -25.888
L26.8708 -25.5064
L27.0809 -25.1234
L27.2953 -24.7392
L27.5141 -24.3539
L27.7368 -23.9679
L27.9633 -23.5814
L28.1932 -23.1947
L28.4259 -22.808
L28.661 -22.4217
L28.8977 -22.0363
L29.1352 -21.6519
L29.3723 -21.2691
L29.6078 -20.8882
L29.8398 -20.5097
L30.0665 -20.1341
L30.285 -19.762
L30.4922 -19.394
L30.6841 -19.0307
L30.8558 -18.6729
L31.0017 -18.3213
L31.1155 -17.9769
L31.1905 -17.6407
L31.2209 -17.3135
L31.2021 -16.9964
L31.1319 -16.6901
L31.0111 -16.395
L30.8429 -16.1115
L30.6322 -15.8395
L30.3847 -15.5788
L30.1062 -15.329
L29.8019 -15.0899
L29.4764 -14.8612
L29.1337 -14.6425
L28.7769 -14.4337
L28.4088 -14.2347
L28.0314 -14.0453
L27.6466 -13.8654
L27.256 -13.695
L26.8607 -13.534
L26.4618 -13.3822
L26.0603 -13.2398
L25.6569 -13.1065
L25.2523 -12.9824
L24.847 -12.8673
L24.4416 -12.7612
L24.0364 -12.664
L23.632 -12.5756
L23.2286 -12.4959
L22.8265 -12.4249
L22.4261 -12.3623
L22.0274 -12.3082
L21.6309 -12.2623
L21.2365 -12.2246
L20.8446 -12.1949
L20.4552 -12.1731
L20.0196 -12.1591
L19.6102 -12.4018
L19.2058 -12.6842
L18.8065 -12.9738
L18.4124 -13.2704
L18.0237 -13.574
L17.6405 -13.8843
L17.2628 -14.2014
L16.8909 -14.5252
L16.5248 -14.8555
L16.1646 -15.1922
L15.8105 -15.5352
L15.4625 -15.8845
L15.1207 -16.2399
L14.7854 -16.6014
L14.4564 -16.9687
L14.1341 -17.3419
L13.8184 -17.7207
L13.5095 -18.1051
L13.2074 -18.495
L12.9123 -18.8901
L12.6242 -19.2905
L12.3432 -19.696
L12.0694 -20.1065
L11.8029 -20.5217
L11.5438 -20.9417
L11.2921 -21.3663
L11.048 -21.7954
L10.8114 -22.2288
L10.5826 -22.6663
L10.3615 -23.108
L10.1481 -23.5535
L9.94269 -24.0029
L9.74519 -24.4559
L9.55568 -24.9124
L9.37423 -25.3723
L9.20089 -25.8354
L9.03571 -26.3017
L8.87875 -26.7708
L8.73005 -27.2428
L8.58965 -27.7175
L8.4576 -28.1947
L8.33395 -28.6743
L8.21872 -29.1561
L8.11195 -29.6399
L8.01368 -30.1258
L7.92393 -30.6134
L7.84274 -31.1026
L7.77012 -31.5934
L7.7061 -32.0854
L7.6507 -32.5787
L7.60393 -33.073
L7.56582 -33.5682
L7.53637 -34.0642
L7.51558 -34.5607
L7.50347 -35.0577
L7.50005 -35.555
L7.5053 -36.0524
L7.51924 -36.5498
L7.54185 -37.047
L7.57313 -37.5439
L7.61306 -38.0403
L7.66165 -38.5361
L7.71887 -39.0311
L7.7847 -39.5253
L7.85912 -40.0183
L7.94212 -40.5101
L8.03367 -41.0005
L8.13373 -41.4895
L8.24228 -41.9767
L8.35929 -42.4621
L8.48472 -42.9456
L8.61853 -43.4269
L8.76067 -43.906
L8.91112 -44.3827
L9.06982 -44.8568
L9.23672 -45.3282
L9.41177 -45.7968
L9.59493 -46.2624
L9.78612 -46.7248
L9.9853 -47.184
L10.1924 -47.6398
L10.4074 -48.0921
L10.6301 -48.5406
L10.8606 -48.9854
L11.0988 -49.4262
L11.3445 -49.8629
L11.5978 -50.2953
L11.8584 -50.7235
L12.1265 -51.1471
L12.4018 -51.5661
L12.6842 -51.9804
L12.9738 -52.3898
L13.2704 -52.7942
L13.574 -53.1935
L13.8843 -53.5876
L14.2014 -53.9763
L14.5252 -54.3595
L14.8555 -54.7372
L15.1922 -55.1091
L15.5352 -55.4752
L15.8845 -55.8354
L16.2399 -56.1895
L16.6014 -56.5375
L16.9687 -56.8793
L17.3419 -57.2146
L17.7207 -57.5436
L18.1051 -57.8659
L18.495 -58.1816
L18.8901 -58.4905
L19.2905 -58.7926
L19.696 -59.0877
L20.1065 -59.3758
L20.5217 -59.6568
L20.9417 -59.9306
L21.3663 -60.1971
L21.7954 -60.4562
L22.2288 -60.7079
L22.6663 -60.952
L23.108 -61.1886
L23.5535 -61.4174
L24.0029 -61.6385
L24.4559 -61.8519
z
" id="C0_1_28dbf9716e"/>
     <path d="
M51.7317 -59.548
L51.8681 -59.1921
L51.997 -58.8384
L52.1185 -58.4872
L52.233 -58.1385
L52.3406 -57.7923
L52.4418 -57.4489
L52.5366 -57.1081
L52.6253 -56.77
L52.7083 -56.4347
L52.7856 -56.1022
L52.8575 -55.7725
L52.9243 -55.4456
L52.9861 -55.1215
L53.0431 -54.8002
L53.0956 -54.4816
L53.1435 -54.1658
L53.1873 -53.8527
L53.2269 -53.5422
L53.2627 -53.2344
L53.2946 -52.9292
L53.3229 -52.6266
L53.3476 -52.3265
L53.369 -52.0288
L53.3871 -51.7336
L53.4021 -51.4407
L53.414 -51.1501
L53.423 -50.8617
L53.4291 -50.5755
L53.4325 -50.2914
L53.4332 -50.0094
L53.4313 -49.7293
L53.4269 -49.4512
L53.42 -49.175
L53.4108 -48.9005
L53.3993 -48.6278
L53.3856 -48.3567
L53.3696 -48.0873
L53.3516 -47.8194
L53.3314 -47.5529
L53.3092 -47.2878
L53.285 -47.0241
L53.2588 -46.7617
L53.2307 -46.5004
L53.2007 -46.2403
L53.1688 -45.9813
L53.1351 -45.7233
L53.0995 -45.4662
L53.0622 -45.21
L53.0231 -44.9546
L52.9822 -44.6999
L52.9395 -44.446
L52.8951 -44.1926
L52.849 -43.9398
L52.8012 -43.6875
L52.7516 -43.4356
L52.7003 -43.1841
L52.6473 -42.9329
L52.5925 -42.6819
L52.536 -42.4311
L52.4778 -42.1804
L52.4178 -41.9297
L52.3561 -41.679
L52.2926 -41.4283
L52.2273 -41.1774
L52.1602 -40.9263
L52.0912 -40.6749
L52.0204 -40.4233
L51.9478 -40.1712
L51.8732 -39.9187
L51.7967 -39.6656
L51.7182 -39.412
L51.6378 -39.1578
L51.5553 -38.9029
L51.4708 -38.6472
L51.3841 -38.3907
L51.2953 -38.1334
L51.2044 -37.8751
L51.1112 -37.6158
L51.0157 -37.3555
L50.918 -37.094
L50.8178 -36.8314
L50.7152 -36.5676
L50.6101 -36.3025
L50.5025 -36.036
L50.3923 -35.7682
L50.2794 -35.4989
L50.1638 -35.2281
L50.0454 -34.9558
L49.9242 -34.6819
L49.8 -34.4063
L49.6728 -34.129
L49.5425 -33.8499
L49.4091 -33.5691
L49.2724 -33.2864
L49.1324 -33.0018
L48.989 -32.7154
L48.8421 -32.4269
L48.6916 -32.1365
L48.5375 -31.8441
L48.3796 -31.5497
L48.2179 -31.2531
L48.0522 -30.9545
L47.8825 -30.6538
L47.7087 -30.351
L47.5307 -30.0461
L47.3484 -29.7391
L47.1617 -29.43
L46.9705 -29.1187
L46.7748 -28.8055
L46.5744 -28.4902
L46.3693 -28.1728
L46.1594 -27.8536
L45.9445 -27.5324
L45.7248 -27.2093
L45.5 -26.8845
L45.2701 -26.558
L45.0351 -26.2299
L44.795 -25.9002
L44.5498 -25.5692
L44.2993 -25.2369
L44.0437 -24.9034
L43.7829 -24.5689
L43.5171 -24.2336
L43.2462 -23.8975
L42.9705 -23.561
L42.69 -23.2242
L42.4049 -22.8872
L42.1154 -22.5503
L41.8218 -22.2137
L41.5245 -21.8776
L41.2239 -21.5423
L40.9205 -21.2079
L40.6149 -20.8748
L40.3079 -20.5431
L40.0004 -20.213
L39.6936 -19.8849
L39.3888 -19.5588
L39.0879 -19.2349
L38.793 -18.9134
L38.5068 -18.5943
L38.2325 -18.2777
L37.9743 -17.9635
L37.7371 -17.6516
L37.5265 -17.3418
L37.349 -17.0338
L37.2112 -16.7273
L37.1192 -16.422
L37.0775 -16.1178
L37.0883 -15.8148
L37.151 -15.5133
L37.2624 -15.214
L37.4176 -14.9175
L37.611 -14.6246
L37.8369 -14.3363
L38.0901 -14.053
L38.366 -13.7756
L38.6607 -13.5045
L38.971 -13.2403
L39.2944 -12.9833
L39.6286 -12.7338
L39.9718 -12.4921
L40.3227 -12.2585
L40.6799 -12.0331
L41.0423 -11.8161
L41.4092 -11.6076
L41.7796 -11.4076
L42.1531 -11.2163
L42.5288 -11.0337
L42.9065 -10.8597
L43.2855 -10.6944
L43.6656 -10.5378
L44.0463 -10.3899
L44.4274 -10.2505
L44.8085 -10.1196
L45.1894 -9.99723
L45.5699 -9.88322
L45.9497 -9.77751
L46.3288 -9.68001
L47.1672 -9.59062
L47.6232 -9.77896
L48.0755 -9.97785
L48.5242 -10.1847
L48.9691 -10.3993
L49.4101 -10.6218
L49.8469 -10.852
L50.2795 -11.0899
L50.7078 -11.3354
L51.1316 -11.5883
L51.5508 -11.8487
L51.9653 -12.1165
L52.3749 -12.3915
L52.7795 -12.6738
L53.179 -12.9631
L53.5732 -13.2594
L53.9621 -13.5627
L54.3456 -13.8728
L54.7234 -14.1897
L55.0956 -14.5132
L55.4619 -14.8432
L55.8223 -15.1797
L56.1767 -15.5225
L56.5249 -15.8716
L56.8668 -16.2268
L57.2024 -16.588
L57.5316 -16.9551
L57.8542 -17.3281
L58.1701 -17.7067
L58.4793 -18.0909
L58.7816 -18.4805
L59.077 -18.8755
L59.3654 -19.2757
L59.6466 -19.681
L59.9207 -20.0913
L60.1874 -20.5064
L60.4468 -20.9262
L60.6988 -21.3507
L60.9432 -21.7796
L61.18 -22.2128
L61.4092 -22.6502
L61.6306 -23.0917
L61.8442 -23.5371
L62.0499 -23.9863
L62.2477 -24.4392
L62.4375 -24.8956
L62.6192 -25.3554
L62.7929 -25.8184
L62.9584 -26.2845
L63.1156 -26.7536
L63.2646 -27.2255
L63.4053 -27.7
L63.5377 -28.1771
L63.6617 -28.6566
L63.7772 -29.1383
L63.8843 -29.6221
L63.9829 -30.1079
L64.0729 -30.5954
L64.1544 -31.0846
L64.2274 -31.5753
L64.2917 -32.0674
L64.3474 -32.5606
L64.3945 -33.0549
L64.4329 -33.55
L64.4627 -34.046
L64.4838 -34.5425
L64.4962 -35.0395
L64.5 -35.5367
L64.495 -36.0341
L64.4814 -36.5315
L64.4591 -37.0287
L64.4282 -37.5256
L64.3886 -38.0221
L64.3403 -38.5179
L64.2834 -39.013
L64.2179 -39.5071
L64.1438 -40.0002
L64.0611 -40.4921
L63.9698 -40.9826
L63.8701 -41.4715
L63.7619 -41.9588
L63.6452 -42.4443
L63.52 -42.9279
L63.3865 -43.4093
L63.2447 -43.8885
L63.0945 -44.3652
L62.9362 -44.8394
L62.7696 -45.3109
L62.5948 -45.7796
L62.4119 -46.2453
L62.221 -46.7079
L62.0222 -47.1672
L61.8153 -47.6232
L61.6007 -48.0755
L61.3782 -48.5242
L61.148 -48.9691
L60.9101 -49.4101
L60.6646 -49.8469
L60.4117 -50.2795
L60.1513 -50.7078
L59.8835 -51.1316
L59.6085 -51.5508
L59.3262 -51.9653
L59.0369 -52.3749
L58.7406 -52.7795
L58.4373 -53.179
L58.1272 -53.5732
L57.8103 -53.9621
L57.4868 -54.3456
L57.1568 -54.7234
L56.8203 -55.0956
L56.4775 -55.4619
L56.1284 -55.8223
L55.7732 -56.1767
L55.412 -56.5249
L55.0449 -56.8668
L54.6719 -57.2024
L54.2933 -57.5316
L53.9091 -57.8542
L53.5195 -58.1701
L53.1245 -58.4793
L52.7243 -58.7816
L52.319 -59.077
z
" id="C0_2_54e56edb38"/>
    </defs>
    <g clip-path="url(#p1bffca34e9)">
     <use style="fill:#ffffff;stroke:#000000;stroke-width:2.0;" x="0.0" xlink:href="#C0_0_a811fe30f3" y="72.0"/>
    </g>
    <g clip-path="url(#p1bffca34e9)">
     <use style="fill:#ff0000;stroke:#000000;stroke-width:2.0;" x="0.0" xlink:href="#C0_1_28dbf9716e" y="72.0"/>
    </g>
    <g clip-path="url(#p1bffca34e9)">
     <use style="fill:#ff0000;stroke:#000000;stroke-width:2.0;" x="0.0" xlink:href="#C0_2_54e56edb38" y="72.0"/>
    </g>
   </g>
  </g>
 </g>
 <defs>
  <clipPath id="p1bffca34e9">
   <rect height="72.0" width="72.0" x="0.0" y="0.0"/>
  </clipPath>
 </defs>
</svg>
