<?xml version="1.0" encoding="utf-8" standalone="no"?>
<!DOCTYPE svg PUBLIC "-//W3C//DTD SVG 1.1//EN"
  "http://www.w3.org/Graphics/SVG/1.1/DTD/svg11.dtd">
<!-- Created with matplotlib (http://matplotlib.org/) -->
<svg height="72pt" version="1.1" viewBox="0 0 72 72" width="72pt" xmlns="http://www.w3.org/2000/svg" xmlns:xlink="http://www.w3.org/1999/xlink">
 <defs>
  <style type="text/css">
*{stroke-linecap:butt;stroke-linejoin:round;}
  </style>
 </defs>
 <g id="figure_1">
  <g id="patch_1">
   <path d="
M0 72
L72 72
L72 0
L0 0
z
" style="fill:none;"/>
  </g>
  <g id="axes_1">
   <g id="PatchCollection_1">
    <defs>
     <path d="
M36 -7.5
C43.5583 -7.5 50.808 -10.5029 56.1525 -15.8475
C61.4971 -21.192 64.5 -28.4417 64.5 -36
C64.5 -43.5583 61.4971 -50.808 56.1525 -56.1525
C50.808 -61.4971 43.5583 -64.5 36 -64.5
C28.4417 -64.5 21.192 -61.4971 15.8475 -56.1525
C10.5029 -50.808 7.5 -43.5583 7.5 -36
C7.5 -28.4417 10.5029 -21.192 15.8475 -15.8475
C21.192 -10.5029 28.4417 -7.5 36 -7.5
z
" id="C0_0_a811fe30f3"/>
     <path d="
M56.8375 -55.2817
L56.7802 -55.0502
L56.7201 -54.8209
L56.6574 -54.5937
L56.5921 -54.3685
L56.5245 -54.1453
L56.4545 -53.924
L56.3823 -53.7046
L56.308 -53.4869
L56.2315 -53.2709
L56.1531 -53.0566
L56.0728 -52.8438
L55.9906 -52.6326
L55.9066 -52.4228
L55.8208 -52.2145
L55.7333 -52.0075
L55.6442 -51.8017
L55.5534 -51.5972
L55.461 -51.3939
L55.367 -51.1917
L55.2715 -50.9905
L55.1745 -50.7904
L55.076 -50.5912
L54.976 -50.3929
L54.8746 -50.1954
L54.7717 -49.9988
L54.6673 -49.8028
L54.5615 -49.6076
L54.4543 -49.413
L54.3457 -49.219
L54.2357 -49.0256
L54.1242 -48.8327
L54.0113 -48.6401
L53.897 -48.448
L53.7812 -48.2563
L53.5452 -48.0648
L53.4251 -47.8736
L53.3034 -47.6827
L53.1802 -47.4919
L53.0554 -47.3012
L52.9292 -47.1106
L52.8013 -46.92
L52.6718 -46.7294
L52.5408 -46.5387
L52.408 -46.348
L52.2736 -46.1571
L52.1375 -45.9661
L51.9996 -45.7748
L51.86 -45.5832
L51.7185 -45.3914
L51.5752 -45.1992
L51.43 -45.0066
L51.2829 -44.8136
L51.1338 -44.6201
L50.9827 -44.4262
L50.8295 -44.2317
L50.6743 -44.0366
L50.5169 -43.8409
L50.3573 -43.6446
L50.1955 -43.4476
L50.0315 -43.2499
L49.865 -43.0514
L49.6962 -42.8522
L49.525 -42.6522
L49.3512 -42.4513
L49.1749 -42.2496
L48.996 -42.047
L48.8144 -41.8435
L48.6301 -41.6391
L48.4431 -41.4337
L48.2532 -41.2274
L48.0604 -41.0201
L47.8646 -40.8118
L47.6659 -40.6025
L47.464 -40.3923
L47.2591 -40.181
L47.0509 -39.9687
L46.8395 -39.7554
L46.6247 -39.5412
L46.4066 -39.326
L46.1851 -39.1098
L45.9601 -38.8927
L45.7316 -38.6748
L45.4995 -38.456
L45.2637 -38.2364
L45.0243 -38.016
L44.7811 -37.795
L44.5342 -37.5734
L44.2834 -37.3512
L44.0289 -37.1286
L43.7704 -36.9057
L43.5081 -36.6826
L43.2418 -36.4594
L42.9717 -36.2363
L42.6976 -36.0134
L42.4196 -35.7909
L42.1376 -35.5691
L41.8518 -35.348
L41.562 -35.1281
L41.2684 -34.9094
L40.9711 -34.6924
L40.6699 -34.4773
L40.3651 -34.2645
L40.0567 -34.0543
L39.7448 -33.8472
L39.4295 -33.6436
L39.1109 -33.4439
L38.7891 -33.2488
L38.4643 -33.0587
L38.1367 -32.8743
L37.8064 -32.6962
L37.4737 -32.5251
L37.1387 -32.3618
L36.8017 -32.2071
L36.4629 -32.0617
L36.1226 -31.9265
L35.7811 -31.8025
L35.4387 -31.6905
L35.0958 -31.5915
L34.7525 -31.5064
L34.4093 -31.436
L34.0665 -31.3813
L33.7245 -31.3428
L33.3836 -31.3214
L33.0441 -31.3176
L32.7065 -31.3317
L32.371 -31.364
L32.0379 -31.4145
L31.7076 -31.4833
L31.3803 -31.57
L31.0564 -31.6742
L30.7359 -31.7953
L30.4193 -31.9327
L30.1065 -32.0856
L29.798 -32.2531
L29.4937 -32.4343
L29.1938 -32.6283
L28.8985 -32.8341
L28.6079 -33.0508
L28.3221 -33.2775
L28.0411 -33.5133
L27.765 -33.7572
L27.4939 -34.0086
L27.2278 -34.2666
L26.9668 -34.5305
L26.7108 -34.7996
L26.4599 -35.0733
L26.2141 -35.351
L25.9735 -35.6321
L25.7379 -35.9162
L25.5073 -36.2028
L25.2819 -36.4914
L25.0614 -36.7817
L24.8459 -37.0733
L24.6353 -37.3659
L24.4297 -37.6592
L24.2289 -37.9528
L24.0328 -38.2467
L23.8415 -38.5404
L23.6549 -38.8339
L23.4728 -39.1269
L23.2953 -39.4193
L23.1223 -39.7109
L22.9537 -40.0016
L22.7894 -40.2913
L22.6293 -40.5798
L22.4734 -40.8671
L22.3217 -41.1532
L22.1739 -41.4378
L22.0301 -41.7211
L21.8902 -42.0028
L21.7541 -42.2831
L21.6218 -42.5618
L21.4931 -42.8389
L21.368 -43.1144
L21.2464 -43.3883
L21.1282 -43.6606
L21.0135 -43.9313
L20.9021 -44.2004
L20.7939 -44.4679
L20.6889 -44.7338
L20.5871 -44.9981
L20.4883 -45.2609
L20.3926 -45.5222
L20.2998 -45.7819
L20.2099 -46.0401
L20.1228 -46.2969
L20.0386 -46.5523
L19.9571 -46.8063
L19.8784 -47.059
L19.8023 -47.3104
L19.7288 -47.5604
L19.6579 -47.8093
L19.5896 -48.057
L19.5237 -48.3035
L19.4604 -48.5489
L19.3995 -48.7933
L19.341 -49.0366
L19.285 -49.279
L19.2312 -49.5205
L19.1799 -49.7611
L19.1309 -50.0009
L19.0842 -50.2398
L19.0398 -50.4781
L18.9977 -50.7157
L18.9578 -50.9526
L18.9203 -51.189
L18.885 -51.4248
L18.8519 -51.6602
L18.8211 -51.8951
L18.7926 -52.1296
L18.7664 -52.3638
L18.7424 -52.5978
L18.7207 -52.8314
L18.7014 -53.0649
L18.6843 -53.2983
L18.6696 -53.5315
L18.6572 -53.7648
L18.6472 -53.998
L18.6396 -54.2313
L18.6344 -54.4648
L18.6318 -54.6983
L18.6316 -54.9321
L18.634 -55.1662
L18.639 -55.4006
L18.6466 -55.6353
L18.6569 -55.8704
L18.67 -56.106
L18.6858 -56.3422
L18.7046 -56.5788
L18.7263 -56.8161
L18.7511 -57.054
L18.7789 -57.2926
L18.8099 -57.532
L18.8442 -57.7721
L18.8819 -58.0131
L18.923 -58.255
L18.9678 -58.4977
L19.3161 -58.7415
L19.7219 -59.1062
L20.1326 -59.3938
L20.5482 -59.6744
L20.9685 -59.9477
L21.3934 -60.2137
L21.8227 -60.4724
L22.2563 -60.7236
L22.6942 -60.9672
L23.1361 -61.2033
L23.5819 -61.4317
L24.0315 -61.6523
L24.4847 -61.8651
L24.9414 -62.07
L25.4015 -62.267
L25.8649 -62.456
L26.3313 -62.637
L26.8007 -62.8098
L27.2728 -62.9745
L27.7477 -63.1309
L28.225 -63.2791
L28.7047 -63.419
L29.1866 -63.5505
L29.6707 -63.6736
L30.1566 -63.7883
L30.6443 -63.8945
L31.1337 -63.9923
L31.6245 -64.0815
L32.1166 -64.1621
L32.61 -64.2342
L33.1044 -64.2977
L33.5996 -64.3525
L34.0956 -64.3987
L34.5922 -64.4363
L35.0892 -64.4652
L35.5865 -64.4854
L36.0839 -64.497
L36.5813 -64.4999
L37.0785 -64.4941
L37.5753 -64.4796
L38.0717 -64.4564
L38.5675 -64.4246
L39.0625 -64.3841
L39.5565 -64.335
L40.0495 -64.2772
L40.5412 -64.2108
L41.0316 -64.1359
L41.5204 -64.0523
L42.0075 -63.9602
L42.4928 -63.8596
L42.9761 -63.7506
L43.4573 -63.633
L43.9363 -63.5071
L44.4128 -63.3727
L44.8867 -63.23
L45.358 -63.0791
L45.8264 -62.9199
L46.2917 -62.7524
L46.754 -62.5769
L47.213 -62.3932
L47.6686 -62.2015
L48.1206 -62.0018
L48.5689 -61.7942
L49.0134 -61.5787
L49.4539 -61.3555
L49.8904 -61.1245
L50.3226 -60.8859
L50.7504 -60.6397
L51.1738 -60.386
L51.5925 -60.1248
L52.0065 -59.8563
L52.4156 -59.5806
L52.8197 -59.2976
L53.2186 -59.0076
L53.6124 -58.7105
L54.0007 -58.4066
L54.3836 -58.0958
L54.7609 -57.7783
L55.1325 -57.4541
L55.4982 -57.1234
L55.858 -56.7863
L56.2118 -56.4428
L56.5594 -56.0931
z
" id="C0_1_72b35e8911"/>
     <path d="
M52.8886 -13.1426
L52.639 -13.1694
L52.3882 -13.1989
L52.136 -13.2313
L51.8825 -13.2665
L51.6275 -13.3046
L51.371 -13.3456
L51.1129 -13.3895
L50.8532 -13.4364
L50.5919 -13.4862
L50.3288 -13.539
L50.064 -13.5948
L49.7973 -13.6537
L49.5287 -13.7157
L49.2582 -13.7807
L48.9858 -13.849
L48.7113 -13.9204
L48.4347 -13.995
L48.156 -14.0728
L47.8751 -14.154
L47.592 -14.2384
L47.3067 -14.3262
L47.0191 -14.4173
L46.7292 -14.5118
L46.4369 -14.6098
L46.1422 -14.7111
L45.8452 -14.8159
L45.5457 -14.9241
L45.2438 -15.0359
L44.9394 -15.151
L44.6326 -15.2696
L44.3233 -15.3917
L44.0115 -15.5171
L43.6972 -15.6459
L43.3805 -15.778
L43.0614 -15.9134
L42.7398 -16.052
L42.4158 -16.1937
L42.0895 -16.3384
L41.7608 -16.4859
L41.4298 -16.6362
L41.0966 -16.7889
L40.7612 -16.9441
L40.4236 -17.1013
L40.084 -17.2604
L39.7423 -17.421
L39.3988 -17.5829
L39.0533 -17.7457
L38.7062 -17.9089
L38.3573 -18.0721
L38.0068 -18.2347
L37.6548 -18.3964
L37.3014 -18.5563
L36.9467 -18.714
L36.5907 -18.8686
L36.2336 -19.0195
L35.8755 -19.1658
L35.5163 -19.3067
L35.1562 -19.4413
L34.7954 -19.5688
L34.4337 -19.6883
L34.0714 -19.7989
L33.7085 -19.8999
L33.345 -19.9904
L32.981 -20.0699
L32.6167 -20.1377
L32.2519 -20.1934
L31.887 -20.2367
L31.5218 -20.2676
L31.1566 -20.286
L30.7915 -20.2921
L30.4264 -20.2864
L30.0617 -20.2692
L29.6975 -20.2412
L29.3338 -20.203
L28.9709 -20.1555
L28.6089 -20.0992
L28.248 -20.0352
L27.8883 -19.9642
L27.5301 -19.887
L27.1735 -19.8044
L26.8187 -19.7171
L26.4658 -19.6259
L26.1149 -19.5315
L25.7664 -19.4344
L25.4202 -19.3352
L25.0764 -19.2345
L24.7354 -19.1327
L24.397 -19.0303
L24.0615 -18.9277
L23.7289 -18.8253
L23.3993 -18.7233
L23.0728 -18.622
L22.7495 -18.5218
L22.4293 -18.4228
L22.1124 -18.3252
L21.7988 -18.2292
L21.4885 -18.135
L21.1815 -18.0427
L20.8778 -17.9524
L20.5775 -17.8642
L20.2806 -17.7782
L19.9869 -17.6945
L19.6967 -17.6131
L19.4097 -17.5341
L19.126 -17.4575
L18.8456 -17.3833
L18.5684 -17.3116
L18.2944 -17.2424
L18.0235 -17.1757
L17.7558 -17.1115
L17.4911 -17.0498
L17.2294 -16.9906
L16.9707 -16.9339
L16.7149 -16.8797
L16.462 -16.828
L16.2119 -16.7788
L15.9645 -16.732
L15.7198 -16.6876
L15.4777 -16.6457
L15.5157 -16.6061
L15.8646 -16.1848
L16.2197 -15.8303
L16.5808 -15.4819
L16.9478 -15.1399
L17.3207 -14.8041
L17.6992 -14.4748
L18.0833 -14.1521
L18.4728 -13.8361
L18.8677 -13.5267
L19.2678 -13.2243
L19.673 -12.9287
L20.0832 -12.6402
L20.4982 -12.3588
L20.9179 -12.0847
L21.3423 -11.8178
L21.7711 -11.5582
L22.2042 -11.3061
L22.6415 -11.0616
L23.0829 -10.8246
L23.5283 -10.5953
L23.9774 -10.3737
L24.4302 -10.16
L24.8865 -9.95408
L25.3462 -9.75613
L25.8092 -9.56617
L26.2753 -9.38426
L26.7443 -9.21046
L27.2161 -9.04482
L27.6906 -8.88739
L28.1677 -8.73822
L28.6471 -8.59735
L29.1288 -8.46483
L29.6126 -8.3407
L30.0983 -8.225
L30.5858 -8.11775
L31.075 -8.019
L31.5656 -7.92877
L32.0576 -7.84709
L32.5508 -7.77399
L33.0451 -7.70948
L33.5403 -7.6536
L34.0362 -7.60634
L34.5327 -7.56774
L35.0297 -7.5378
L35.5269 -7.51652
L36.0243 -7.50393
L36.5217 -7.50001
L37.0189 -7.50478
L37.5158 -7.51822
L38.0123 -7.54034
L38.5081 -7.57113
L39.0032 -7.61058
L39.4974 -7.65868
L39.9905 -7.71541
L40.4824 -7.78075
L40.9729 -7.85469
L41.4619 -7.93721
L41.9493 -8.02827
L42.4348 -8.12786
L42.9184 -8.23593
L43.3998 -8.35246
L43.879 -8.47741
L44.3558 -8.61075
L44.8301 -8.75243
L45.3017 -8.90241
L45.7704 -9.06064
L46.2362 -9.22708
L46.6988 -9.40168
L47.1582 -9.58437
L47.6142 -9.77512
L48.0666 -9.97385
L48.5154 -10.1805
L48.9604 -10.395
L49.4014 -10.6174
L49.8383 -10.8474
L50.271 -11.0851
L50.6994 -11.3304
L51.1233 -11.5833
L51.5426 -11.8435
L51.9571 -12.1111
L52.3668 -12.386
z
" id="C0_2_e675742a8d"/>
    </defs>
    <g clip-path="url(#p1bffca34e9)">
     <use style="fill:#ffffff;stroke:#000000;stroke-width:2.0;" x="0.0" xlink:href="#C0_0_a811fe30f3" y="72.0"/>
    </g>
    <g clip-path="url(#p1bffca34e9)">
     <use style="fill:#ff0000;stroke:#000000;stroke-width:2.0;" x="0.0" xlink:href="#C0_1_72b35e8911" y="72.0"/>
    </g>
    <g clip-path="url(#p1bffca34e9)">
     <use style="fill:#ff0000;stroke:#000000;stroke-width:2.0;" x="0.0" xlink:href="#C0_2_e675742a8d" y="72.0"/>
    </g>
   </g>
  </g>
 </g>
 <defs>
  <clipPath id="p1bffca34e9">
   <rect height="72.0" width="72.0" x="0.0" y="0.0"/>
  </clipPath>
 </defs>
</svg>
