<?xml version="1.0" encoding="utf-8" standalone="no"?>
<!DOCTYPE svg PUBLIC "-//W3C//DTD SVG 1.1//EN"
  "http://www.w3.org/Graphics/SVG/1.1/DTD/svg11.dtd">
<!-- Created with matplotlib (http://matplotlib.org/) -->
<svg height="72pt" version="1.1" viewBox="0 0 72 72" width="72pt" xmlns="http://www.w3.org/2000/svg" xmlns:xlink="http://www.w3.org/1999/xlink">
 <defs>
  <style type="text/css">
*{stroke-linecap:butt;stroke-linejoin:round;}
  </style>
 </defs>
 <g id="figure_1">
  <g id="patch_1">
   <path d="
M0 72
L72 72
L72 0
L0 0
z
" style="fill:none;"/>
  </g>
  <g id="axes_1">
   <g id="PatchCollection_1">
    <defs>
     <path d="
M36 -7.5
C43.5583 -7.5 50.808 -10.5029 56.1525 -15.8475
C61.4971 -21.192 64.5 -28.4417 64.5 -36
C64.5 -43.5583 61.4971 -50.808 56.1525 -56.1525
C50.808 -61.4971 43.5583 -64.5 36 -64.5
C28.4417 -64.5 21.192 -61.4971 15.8475 -56.1525
C10.5029 -50.808 7.5 -43.5583 7.5 -36
C7.5 -28.4417 10.5029 -21.192 15.8475 -15.8475
C21.192 -10.5029 28.4417 -7.5 36 -7.5
z
" id="C0_0_a811fe30f3"/>
     <path d="
M12.5394 -51.9594
L12.6426 -51.5436
L12.7542 -51.1312
L12.8739 -50.7223
L13.0011 -50.3171
L13.1354 -49.9158
L13.2765 -49.5184
L13.4239 -49.1252
L13.5773 -48.7362
L13.7362 -48.3516
L13.9004 -47.9716
L14.0695 -47.5961
L14.2432 -47.2253
L14.4211 -46.8592
L14.6028 -46.498
L14.7882 -46.1416
L14.9769 -45.7901
L15.1686 -45.4435
L15.363 -45.1019
L15.5599 -44.7652
L15.7591 -44.4335
L15.9602 -44.1067
L16.1632 -43.7848
L16.3677 -43.4679
L16.5735 -43.1558
L16.7806 -42.8485
L16.9887 -42.546
L17.1976 -42.2482
L17.4073 -41.955
L17.6175 -41.6665
L17.8281 -41.3825
L18.0391 -41.103
L18.2502 -40.8279
L18.4615 -40.5571
L18.6728 -40.2905
L18.884 -40.0281
L19.0951 -39.7697
L19.3059 -39.5154
L19.5166 -39.2649
L19.7268 -39.0183
L19.9368 -38.7754
L20.1463 -38.5361
L20.3554 -38.3004
L20.564 -38.0681
L20.7722 -37.8393
L20.9798 -37.6137
L21.1869 -37.3913
L21.3935 -37.1721
L21.5995 -36.9559
L21.8051 -36.7426
L22.0101 -36.5322
L22.2145 -36.3246
L22.4185 -36.1197
L22.6219 -35.9175
L22.8248 -35.7177
L23.0273 -35.5205
L23.2293 -35.3257
L23.4308 -35.1331
L23.632 -34.9429
L23.8327 -34.7548
L24.0331 -34.5688
L24.2332 -34.3848
L24.4329 -34.2028
L24.6323 -34.0228
L24.8316 -33.8445
L25.0305 -33.6681
L25.2294 -33.4933
L25.428 -33.3202
L25.6266 -33.1487
L25.8251 -32.9787
L26.0236 -32.8103
L26.2221 -32.6432
L26.4207 -32.4775
L26.6193 -32.3131
L26.8181 -32.15
L27.0171 -31.988
L27.2163 -31.8273
L27.4157 -31.6676
L27.6155 -31.5091
L27.8157 -31.3515
L28.0163 -31.1949
L28.2173 -31.0392
L28.4189 -30.8844
L28.8237 -30.7304
L29.0271 -30.5773
L29.2313 -30.4249
L29.4362 -30.2732
L29.6419 -30.1221
L29.8485 -29.9718
L30.0561 -29.822
L30.2646 -29.6727
L30.4742 -29.5241
L30.685 -29.3758
L30.8969 -29.2281
L31.11 -29.0808
L31.3244 -28.9339
L31.5402 -28.7873
L31.7574 -28.6411
L31.9761 -28.4952
L32.1964 -28.3495
L32.4183 -28.2041
L32.6419 -28.059
L32.8672 -27.914
L33.0944 -27.7692
L33.3235 -27.6246
L33.5545 -27.4801
L33.7876 -27.3357
L34.0228 -27.1914
L34.2602 -27.0472
L34.4999 -26.9031
L34.7419 -26.759
L34.9864 -26.6149
L35.2334 -26.4709
L35.4829 -26.3268
L35.7351 -26.1828
L35.9901 -26.0388
L36.2479 -25.8948
L36.5086 -25.7508
L36.7723 -25.6068
L37.0391 -25.4628
L37.309 -25.3188
L37.5822 -25.1748
L37.8587 -25.0309
L38.1386 -24.887
L38.422 -24.7432
L38.709 -24.5995
L38.9997 -24.4559
L39.2941 -24.3125
L39.5923 -24.1692
L39.8943 -24.0262
L40.2004 -23.8834
L40.5105 -23.741
L40.8246 -23.5989
L41.143 -23.4573
L41.4656 -23.3162
L41.7925 -23.1756
L42.1237 -23.0357
L42.4593 -22.8965
L42.7993 -22.7582
L43.1438 -22.6208
L43.4928 -22.4844
L43.8462 -22.3491
L44.2043 -22.2151
L44.5668 -22.0825
L44.9339 -21.9514
L45.3054 -21.822
L45.6815 -21.6944
L46.062 -21.5688
L46.4469 -21.4453
L46.8361 -21.3242
L47.2296 -21.2056
L47.6272 -21.0896
L48.0289 -20.9766
L48.4346 -20.8667
L48.844 -20.7601
L49.2572 -20.6571
L49.6738 -20.5579
L50.0938 -20.4626
L50.5169 -20.3716
L50.9429 -20.2851
L51.3716 -20.2034
L51.8028 -20.1266
L52.2362 -20.0551
L52.6715 -19.9891
L53.1085 -19.9289
L53.5469 -19.8747
L53.9863 -19.8268
L54.4265 -19.7856
L54.867 -19.7513
L55.3073 -19.7244
L55.747 -19.7054
L56.1849 -19.6954
L56.617 -19.6969
L57.0128 -19.7204
L57.2924 -19.8517
L57.5238 -20.3023
L57.7364 -20.8564
L57.9335 -21.4274
L58.1161 -22.0042
L58.2846 -22.584
L58.4391 -23.1653
L58.5799 -23.7471
L58.7072 -24.3286
L58.8212 -24.9092
L58.9221 -25.4882
L59.0103 -26.0651
L59.086 -26.6394
L59.1494 -27.2104
L59.201 -27.7778
L59.2411 -28.3411
L59.2699 -28.8999
L59.2878 -29.4538
L59.2953 -30.0025
L59.2926 -30.5456
L59.2801 -31.0829
L59.2582 -31.614
L59.2273 -32.1389
L59.1877 -32.6572
L59.1398 -33.1688
L59.084 -33.6736
L59.0205 -34.1713
L58.9498 -34.662
L58.8722 -35.1455
L58.7879 -35.6217
L58.6974 -36.0907
L58.601 -36.5524
L58.4988 -37.0068
L58.3913 -37.4539
L58.2787 -37.8938
L58.1612 -38.3264
L58.0392 -38.7518
L57.9128 -39.1702
L57.7823 -39.5815
L57.6479 -39.9858
L57.5098 -40.3832
L57.3683 -40.7739
L57.2234 -41.1579
L57.0754 -41.5353
L56.9244 -41.9063
L56.7706 -42.2709
L56.6142 -42.6293
L56.4552 -42.9815
L56.2938 -43.3278
L56.1302 -43.6682
L55.9643 -44.0029
L55.7965 -44.3319
L55.6266 -44.6555
L55.4549 -44.9737
L55.2813 -45.2866
L55.106 -45.5944
L54.9291 -45.8972
L54.7505 -46.1952
L54.5704 -46.4883
L54.3888 -46.7768
L54.2058 -47.0608
L54.0213 -47.3404
L53.8354 -47.6157
L53.6482 -47.8868
L53.4597 -48.1537
L53.2698 -48.4168
L53.0786 -48.6759
L52.8862 -48.9312
L52.6925 -49.1829
L52.4975 -49.431
L52.3012 -49.6756
L52.1037 -49.9168
L51.9049 -50.1547
L51.7047 -50.3893
L51.5033 -50.6208
L51.3006 -50.8493
L51.0965 -51.0747
L50.8911 -51.2973
L50.6843 -51.517
L50.4761 -51.7339
L50.2665 -51.9481
L50.0554 -52.1597
L49.8428 -52.3688
L49.6287 -52.5753
L49.413 -52.7793
L49.1957 -52.981
L48.9768 -53.1803
L48.7561 -53.3773
L48.5337 -53.5721
L48.3096 -53.7646
L48.0836 -53.955
L47.8556 -54.1433
L47.6258 -54.3295
L47.3939 -54.5136
L47.16 -54.6958
L46.9239 -54.8759
L46.6856 -55.0541
L46.4451 -55.2303
L46.2023 -55.4047
L45.957 -55.5771
L45.7093 -55.7477
L45.4591 -55.9164
L45.2062 -56.0832
L44.9506 -56.2482
L44.6922 -56.4114
L44.431 -56.5727
L44.1668 -56.7321
L43.8996 -56.8897
L43.6292 -57.0454
L43.3556 -57.1993
L43.0787 -57.3512
L42.7984 -57.5012
L42.5146 -57.6493
L42.2272 -57.7954
L41.936 -57.9395
L41.6411 -58.0815
L41.3422 -58.2214
L41.0393 -58.3591
L40.7322 -58.4947
L40.4209 -58.628
L40.1052 -58.7589
L39.785 -58.8874
L39.4602 -59.0134
L39.1307 -59.1369
L38.7964 -59.2576
L38.4571 -59.3756
L38.1127 -59.4907
L37.7632 -59.6028
L37.4083 -59.7118
L37.048 -59.8174
L36.6821 -59.9197
L36.3106 -60.0184
L35.9333 -60.1134
L35.5501 -60.2045
L35.1609 -60.2914
L34.7656 -60.3741
L34.3641 -60.4524
L33.9562 -60.5259
L33.542 -60.5944
L33.1213 -60.6578
L32.6941 -60.7158
L32.2602 -60.768
L31.8196 -60.8143
L31.3723 -60.8543
L30.9182 -60.8877
L30.4573 -60.9143
L29.9896 -60.9336
L29.5152 -60.9453
L29.0339 -60.9491
L28.546 -60.9446
L28.0513 -60.9314
L27.5501 -60.9091
L27.0424 -60.8774
L26.5284 -60.8358
L26.0082 -60.7838
L25.482 -60.7212
L24.95 -60.6473
L24.4124 -60.5619
L23.8697 -60.4644
L23.3219 -60.3544
L22.7696 -60.2314
L22.213 -60.0951
L21.6526 -59.945
L21.0888 -59.7807
L20.5222 -59.6018
L19.9532 -59.4078
L19.3825 -59.1985
L18.8105 -58.9734
L18.4162 -58.7322
L18.0274 -58.429
L17.6441 -58.1187
L17.2664 -57.8017
L16.8945 -57.478
L16.5283 -57.1478
L16.1681 -56.8111
L15.8139 -56.4681
L15.4658 -56.1189
L15.124 -55.7635
L14.7886 -55.4021
L14.4596 -55.0349
L14.1372 -54.6618
L13.8214 -54.283
L13.5124 -53.8986
L13.2103 -53.5088
L12.9151 -53.1137
z
" id="C0_1_3e7ae97a9a"/>
     <path d="
M53.5804 -13.7552
L53.9599 -14.253
L54.3281 -14.7603
L54.6846 -15.2766
L55.029 -15.8012
L55.3611 -16.3336
L55.6806 -16.873
L55.9873 -17.4185
L56.2813 -17.9686
L56.5633 -18.5204
L56.8365 -19.0631
L57.1311 -19.5102
L57.5265 -19.65
L57.9545 -19.6976
L58.3853 -19.7394
L58.8151 -19.7855
L59.1119 -19.8386
L58.8173 -19.3239
L58.5158 -18.9231
L58.2074 -18.5275
L57.8923 -18.1372
L57.5705 -17.7523
L57.2421 -17.373
L56.9073 -16.9994
L56.5661 -16.6316
L56.2186 -16.2696
L55.865 -15.9137
L55.5053 -15.5639
L55.1396 -15.2203
L54.7682 -14.8831
L54.391 -14.5523
z
" id="C0_2_69ec096346"/>
    </defs>
    <g clip-path="url(#p1bffca34e9)">
     <use style="fill:#ffffff;stroke:#000000;stroke-width:2.0;" x="0.0" xlink:href="#C0_0_a811fe30f3" y="72.0"/>
    </g>
    <g clip-path="url(#p1bffca34e9)">
     <use style="fill:#ff0000;stroke:#000000;stroke-width:2.0;" x="0.0" xlink:href="#C0_1_3e7ae97a9a" y="72.0"/>
    </g>
    <g clip-path="url(#p1bffca34e9)">
     <use style="fill:#ff0000;stroke:#000000;stroke-width:2.0;" x="0.0" xlink:href="#C0_2_69ec096346" y="72.0"/>
    </g>
   </g>
  </g>
 </g>
 <defs>
  <clipPath id="p1bffca34e9">
   <rect height="72.0" width="72.0" x="0.0" y="0.0"/>
  </clipPath>
 </defs>
</svg>
