<?xml version="1.0" encoding="utf-8" standalone="no"?>
<!DOCTYPE svg PUBLIC "-//W3C//DTD SVG 1.1//EN"
  "http://www.w3.org/Graphics/SVG/1.1/DTD/svg11.dtd">
<!-- Created with matplotlib (http://matplotlib.org/) -->
<svg height="72pt" version="1.1" viewBox="0 0 72 72" width="72pt" xmlns="http://www.w3.org/2000/svg" xmlns:xlink="http://www.w3.org/1999/xlink">
 <defs>
  <style type="text/css">
*{stroke-linecap:butt;stroke-linejoin:round;}
  </style>
 </defs>
 <g id="figure_1">
  <g id="patch_1">
   <path d="
M0 72
L72 72
L72 0
L0 0
z
" style="fill:none;"/>
  </g>
  <g id="axes_1">
   <g id="PatchCollection_1">
    <defs>
     <path d="
M36 -7.5
C43.5583 -7.5 50.808 -10.5029 56.1525 -15.8475
C61.4971 -21.192 64.5 -28.4417 64.5 -36
C64.5 -43.5583 61.4971 -50.808 56.1525 -56.1525
C50.808 -61.4971 43.5583 -64.5 36 -64.5
C28.4417 -64.5 21.192 -61.4971 15.8475 -56.1525
C10.5029 -50.808 7.5 -43.5583 7.5 -36
C7.5 -28.4417 10.5029 -21.192 15.8475 -15.8475
C21.192 -10.5029 28.4417 -7.5 36 -7.5
z
" id="C0_0_a811fe30f3"/>
     <path d="
M29.0203 -63.6076
L28.6918 -63.3404
L28.3749 -63.0666
L28.0695 -62.7871
L27.7753 -62.5024
L27.492 -62.2131
L27.2194 -61.9197
L26.9573 -61.6227
L26.7053 -61.3227
L26.4632 -61.0199
L26.2307 -60.7149
L26.0075 -60.408
L25.7934 -60.0996
L25.588 -59.7899
L25.3911 -59.4792
L25.2025 -59.1679
L25.0218 -58.8561
L24.8488 -58.5441
L24.6833 -58.2321
L24.5249 -57.9202
L24.3736 -57.6088
L24.2289 -57.2978
L24.0908 -56.9874
L23.9589 -56.6778
L23.8332 -56.3691
L23.7132 -56.0613
L23.599 -55.7546
L23.4902 -55.449
L23.3866 -55.1446
L23.2882 -54.8415
L23.1947 -54.5397
L23.106 -54.2391
L23.0219 -53.94
L22.9422 -53.6423
L22.8668 -53.3459
L22.7955 -53.051
L22.7283 -52.7576
L22.665 -52.4656
L22.6055 -52.175
L22.5496 -51.8858
L22.4972 -51.5981
L22.4483 -51.3117
L22.4027 -51.0268
L22.3603 -50.7432
L22.321 -50.4609
L22.2848 -50.18
L22.2516 -49.9003
L22.2212 -49.6219
L22.1936 -49.3448
L22.1687 -49.0688
L22.1465 -48.794
L22.1269 -48.5203
L22.1099 -48.2476
L22.0953 -47.976
L22.0831 -47.7054
L22.0733 -47.4358
L22.0658 -47.167
L22.0606 -46.8992
L22.0576 -46.6321
L22.0568 -46.3658
L22.0581 -46.1002
L22.0616 -45.8354
L22.0672 -45.5711
L22.0748 -45.3074
L22.0845 -45.0443
L22.0962 -44.7817
L22.1099 -44.5195
L22.1255 -44.2577
L22.1432 -43.9962
L22.1627 -43.735
L22.1842 -43.4741
L22.2077 -43.2133
L22.2603 -42.9527
L22.2895 -42.6922
L22.3206 -42.4318
L22.3536 -42.1713
L22.3886 -41.9108
L22.4254 -41.6502
L22.4642 -41.3894
L22.5049 -41.1284
L22.5476 -40.8672
L22.5923 -40.6057
L22.6389 -40.3438
L22.6876 -40.0815
L22.7382 -39.8188
L22.7909 -39.5556
L22.8457 -39.2919
L22.9026 -39.0276
L22.9615 -38.7626
L23.0227 -38.497
L23.086 -38.2306
L23.1515 -37.9635
L23.2193 -37.6956
L23.2894 -37.4269
L23.3618 -37.1572
L23.4366 -36.8867
L23.5138 -36.6151
L23.5935 -36.3426
L23.6757 -36.069
L23.7605 -35.7943
L23.8479 -35.5186
L23.9379 -35.2416
L24.0307 -34.9636
L24.1263 -34.6843
L24.2247 -34.4038
L24.3261 -34.1221
L24.4305 -33.8391
L24.5379 -33.5549
L24.6484 -33.2694
L24.7621 -32.9825
L24.8791 -32.6944
L24.9995 -32.405
L25.1232 -32.1143
L25.2505 -31.8223
L25.3814 -31.529
L25.516 -31.2345
L25.6543 -30.9388
L25.7965 -30.6419
L25.9426 -30.3438
L26.0927 -30.0447
L26.247 -29.7445
L26.4054 -29.4433
L26.5682 -29.1412
L26.7354 -28.8384
L26.907 -28.5348
L27.0833 -28.2306
L27.2642 -27.926
L27.4499 -27.6209
L27.6405 -27.3157
L27.8361 -27.0105
L28.0366 -26.7054
L28.2424 -26.4007
L28.4533 -26.0966
L28.6696 -25.7932
L28.8912 -25.4909
L29.1183 -25.19
L29.351 -24.8908
L29.5892 -24.5935
L29.8331 -24.2986
L30.0828 -24.0064
L30.3382 -23.7174
L30.5995 -23.432
L30.8665 -23.1508
L31.1395 -22.8741
L31.4184 -22.6026
L31.7032 -22.3369
L31.9938 -22.0776
L32.2904 -21.8254
L32.5928 -21.581
L32.9009 -21.3452
L33.2148 -21.1187
L33.5342 -20.9024
L33.8592 -20.6971
L34.1895 -20.5037
L34.525 -20.3231
L34.8654 -20.1562
L35.2106 -20.0039
L35.5602 -19.8669
L35.9139 -19.7462
L36.2714 -19.6424
L36.6322 -19.5562
L36.9961 -19.4882
L37.3624 -19.4387
L37.7307 -19.4081
L38.1005 -19.3964
L38.4712 -19.4037
L38.8423 -19.4299
L39.2134 -19.4746
L39.5837 -19.5374
L39.9529 -19.6179
L40.3203 -19.7153
L40.6856 -19.8289
L41.0482 -19.9581
L41.4077 -20.1019
L41.7638 -20.2596
L42.1159 -20.4304
L42.4639 -20.6133
L42.8075 -20.8077
L43.1462 -21.0126
L43.48 -21.2274
L43.8085 -21.4512
L44.1317 -21.6834
L44.4493 -21.9232
L44.7612 -22.1702
L45.0673 -22.4235
L45.3676 -22.6828
L45.6619 -22.9473
L45.9501 -23.2167
L46.2324 -23.4904
L46.5086 -23.7681
L46.7788 -24.0492
L47.0429 -24.3335
L47.3011 -24.6204
L47.5532 -24.9098
L47.7994 -25.2013
L48.0397 -25.4946
L48.2741 -25.7895
L48.5028 -26.0856
L48.7258 -26.3828
L48.9432 -26.6809
L49.155 -26.9796
L49.3613 -27.2787
L49.5623 -27.5782
L49.758 -27.8779
L49.9485 -28.1776
L50.1339 -28.4772
L50.3142 -28.7766
L50.4897 -29.0756
L50.6603 -29.3743
L50.8262 -29.6725
L50.9874 -29.9702
L51.1441 -30.2672
L51.2964 -30.5636
L51.4443 -30.8593
L51.5879 -31.1542
L51.7273 -31.4483
L51.8626 -31.7416
L51.9939 -32.0341
L52.1213 -32.3257
L52.2448 -32.6165
L52.3645 -32.9064
L52.4805 -33.1954
L52.5929 -33.4836
L52.7018 -33.7709
L52.8071 -34.0573
L52.909 -34.3429
L53.0076 -34.6277
L53.1029 -34.9116
L53.1949 -35.1948
L53.2838 -35.4772
L53.3695 -35.7589
L53.4522 -36.0398
L53.5318 -36.3201
L53.6085 -36.5997
L53.6822 -36.8788
L53.753 -37.1572
L53.821 -37.4351
L53.8862 -37.7125
L53.9485 -37.9894
L54.0081 -38.2658
L54.065 -38.5419
L54.1192 -38.8177
L54.1707 -39.0931
L54.2196 -39.3683
L54.2658 -39.6432
L54.3094 -39.918
L54.3504 -40.1926
L54.3888 -40.4672
L54.4246 -40.7417
L54.4578 -41.0162
L54.4885 -41.2908
L54.5166 -41.5655
L54.542 -41.8403
L54.5649 -42.1153
L54.5852 -42.3906
L54.6029 -42.6662
L54.618 -42.9421
L54.6304 -43.2184
L54.6402 -43.4951
L54.6473 -43.7723
L54.6516 -44.0501
L54.6533 -44.3284
L54.6522 -44.6074
L54.6483 -44.887
L54.6415 -45.1674
L54.6319 -45.4486
L54.6193 -45.7305
L54.6038 -46.0134
L54.5852 -46.2971
L54.5636 -46.5818
L54.5388 -46.8675
L54.5108 -47.1542
L54.4796 -47.442
L54.445 -47.731
L54.4069 -48.0211
L54.3654 -48.3124
L54.3203 -48.605
L54.2716 -48.8988
L54.2191 -49.194
L54.1627 -49.4904
L54.1023 -49.7883
L54.0379 -50.0875
L53.9693 -50.3882
L53.8964 -50.6903
L53.8191 -50.9939
L53.7372 -51.2989
L53.6506 -51.6055
L53.5592 -51.9135
L53.4628 -52.223
L53.3613 -52.534
L53.2545 -52.8464
L53.1423 -53.1604
L53.0245 -53.4757
L52.9008 -53.7925
L52.7712 -54.1107
L52.6354 -54.4302
L52.4933 -54.751
L52.3446 -55.073
L52.1892 -55.3962
L52.0268 -55.7205
L51.8572 -56.0457
L51.6802 -56.3718
L51.4956 -56.6987
L51.3032 -57.0262
L51.1027 -57.3542
L50.8938 -57.6825
L50.6764 -58.011
L50.4503 -58.3394
L50.2151 -58.6675
L49.9706 -58.9951
L49.7166 -59.322
L49.453 -59.6478
L49.1793 -59.9722
L48.8956 -60.295
L48.6014 -60.6157
L48.2967 -60.9341
L47.9812 -61.2496
L47.6548 -61.5618
L47.2511 -61.8702
L46.7924 -62.1852
L46.3304 -62.3775
L45.8653 -62.5619
L45.3971 -62.7381
L44.9261 -62.9062
L44.4524 -63.0661
L43.9761 -63.2178
L43.4974 -63.3611
L43.0163 -63.4962
L42.5332 -63.6228
L42.048 -63.7411
L41.5611 -63.8509
L41.0724 -63.9522
L40.5821 -64.045
L40.0905 -64.1292
L39.5977 -64.2049
L39.1037 -64.272
L38.6088 -64.3305
L38.1131 -64.3803
L37.6167 -64.4216
L37.1199 -64.4541
L36.6227 -64.478
L36.1254 -64.4932
L35.6279 -64.4997
L35.1306 -64.4976
L34.6336 -64.4867
L34.137 -64.4672
L33.641 -64.439
L33.1456 -64.4022
L32.6512 -64.3567
L32.1577 -64.3026
L31.6655 -64.2398
L31.1745 -64.1685
L30.685 -64.0885
L30.1972 -64
L29.7111 -63.903
z
" id="C0_1_d532db5097"/>
     <path d="
M24.6957 -9.85563
L25.1512 -9.81555
L25.6086 -9.78072
L26.0677 -9.7509
L26.5282 -9.72587
L26.99 -9.70532
L27.4528 -9.68895
L27.9163 -9.67637
L28.3804 -9.66718
L28.8447 -9.66093
L29.3091 -9.65712
L29.7732 -9.65521
L30.2368 -9.6546
L30.6998 -9.65468
L31.1617 -9.65479
L31.6225 -9.65425
L32.0819 -9.65237
L32.5397 -9.64843
L32.9957 -9.64176
L33.4498 -9.63171
L33.902 -9.61766
L34.352 -9.59907
L34.7999 -9.57549
L35.2457 -9.54657
L35.6894 -9.51206
L36.131 -9.47187
L36.5705 -9.42599
L37.0082 -9.37458
L37.444 -9.3179
L37.8781 -9.25631
L38.3107 -9.19027
L38.7418 -9.12034
L39.1716 -9.0471
L39.6001 -8.97119
L40.0275 -8.89329
L40.4538 -8.81404
L40.8791 -8.73414
L41.3034 -8.65421
L41.7268 -8.57489
L42.1492 -8.49678
L42.1203 -8.42042
L41.6336 -8.16491
L41.1451 -8.06234
L40.6551 -7.96828
L40.1637 -7.88275
L39.671 -7.80579
L39.1772 -7.73742
L38.6824 -7.67765
L38.1868 -7.62652
L37.6906 -7.58402
L37.1938 -7.55019
L36.6967 -7.52501
L36.1993 -7.50852
L35.7019 -7.5007
L35.2046 -7.50156
L34.7075 -7.5111
L34.2108 -7.52932
L33.7147 -7.55622
L33.2192 -7.59177
L32.7246 -7.63599
L32.231 -7.68884
L31.7386 -7.75031
L31.2474 -7.82039
L30.7577 -7.89906
L30.2696 -7.98628
L29.7833 -8.08204
L29.2988 -8.1863
L28.8164 -8.29903
L28.3361 -8.4202
L27.8582 -8.54977
L27.3828 -8.68771
L26.91 -8.83396
L26.44 -8.98849
L25.9728 -9.15125
L25.5088 -9.32218
z
" id="C0_2_5747209935"/>
    </defs>
    <g clip-path="url(#p1bffca34e9)">
     <use style="fill:#ffffff;stroke:#000000;stroke-width:2.0;" x="0.0" xlink:href="#C0_0_a811fe30f3" y="72.0"/>
    </g>
    <g clip-path="url(#p1bffca34e9)">
     <use style="fill:#ff0000;stroke:#000000;stroke-width:2.0;" x="0.0" xlink:href="#C0_1_d532db5097" y="72.0"/>
    </g>
    <g clip-path="url(#p1bffca34e9)">
     <use style="fill:#ff0000;stroke:#000000;stroke-width:2.0;" x="0.0" xlink:href="#C0_2_5747209935" y="72.0"/>
    </g>
   </g>
  </g>
 </g>
 <defs>
  <clipPath id="p1bffca34e9">
   <rect height="72.0" width="72.0" x="0.0" y="0.0"/>
  </clipPath>
 </defs>
</svg>
