<?xml version="1.0" encoding="utf-8" standalone="no"?>
<!DOCTYPE svg PUBLIC "-//W3C//DTD SVG 1.1//EN"
  "http://www.w3.org/Graphics/SVG/1.1/DTD/svg11.dtd">
<!-- Created with matplotlib (http://matplotlib.org/) -->
<svg height="72pt" version="1.1" viewBox="0 0 72 72" width="72pt" xmlns="http://www.w3.org/2000/svg" xmlns:xlink="http://www.w3.org/1999/xlink">
 <defs>
  <style type="text/css">
*{stroke-linecap:butt;stroke-linejoin:round;}
  </style>
 </defs>
 <g id="figure_1">
  <g id="patch_1">
   <path d="
M0 72
L72 72
L72 0
L0 0
z
" style="fill:none;"/>
  </g>
  <g id="axes_1">
   <g id="PatchCollection_1">
    <defs>
     <path d="
M36 -7.5
C43.5583 -7.5 50.808 -10.5029 56.1525 -15.8475
C61.4971 -21.192 64.5 -28.4417 64.5 -36
C64.5 -43.5583 61.4971 -50.808 56.1525 -56.1525
C50.808 -61.4971 43.5583 -64.5 36 -64.5
C28.4417 -64.5 21.192 -61.4971 15.8475 -56.1525
C10.5029 -50.808 7.5 -43.5583 7.5 -36
C7.5 -28.4417 10.5029 -21.192 15.8475 -15.8475
C21.192 -10.5029 28.4417 -7.5 36 -7.5
z
" id="C0_0_a811fe30f3"/>
     <path d="
M32.6813 -22.1283
L32.9524 -22.0887
L33.2238 -22.0513
L33.4957 -22.016
L33.768 -21.9829
L34.0409 -21.952
L34.3143 -21.9232
L34.5883 -21.8965
L34.8629 -21.8721
L35.1383 -21.8498
L35.4144 -21.8297
L35.6912 -21.8118
L35.9689 -21.7961
L36.2475 -21.7827
L36.5269 -21.7715
L36.8073 -21.7626
L37.0887 -21.756
L37.3712 -21.7518
L37.6547 -21.7499
L37.9393 -21.7504
L38.2251 -21.7534
L38.512 -21.7588
L38.8002 -21.7667
L39.0897 -21.7773
L39.3805 -21.7904
L39.6726 -21.8061
L39.966 -21.8246
L40.2609 -21.8459
L40.5572 -21.8699
L40.8549 -21.8969
L41.1541 -21.9268
L41.4548 -21.9598
L41.7571 -21.9958
L42.0608 -22.035
L42.3661 -22.0774
L42.673 -22.1232
L42.9814 -22.1724
L43.2913 -22.2251
L43.6028 -22.2814
L43.9159 -22.3414
L44.2304 -22.4052
L44.5465 -22.4729
L44.8641 -22.5446
L45.1831 -22.6204
L45.5035 -22.7005
L45.8253 -22.7849
L46.1484 -22.8738
L46.4728 -22.9672
L46.7983 -23.0654
L47.1248 -23.1685
L47.4524 -23.2765
L47.7809 -23.3897
L48.1101 -23.5082
L48.44 -23.6321
L48.7704 -23.7615
L49.1011 -23.8967
L49.432 -24.0377
L49.7628 -24.1848
L50.0934 -24.338
L50.4236 -24.4976
L50.753 -24.6636
L51.0815 -24.8363
L51.4088 -25.0158
L51.7344 -25.2022
L52.0582 -25.3957
L52.3798 -25.5965
L52.6987 -25.8046
L53.0146 -26.0203
L53.3271 -26.2437
L53.6356 -26.4748
L53.9397 -26.7138
L54.2389 -26.9608
L54.5327 -27.216
L54.8204 -27.4793
L55.1015 -27.7509
L55.3754 -28.0307
L55.6413 -28.3189
L55.8987 -28.6153
L56.1469 -28.9201
L56.3851 -29.2331
L56.6127 -29.5542
L56.829 -29.8833
L57.0332 -30.2202
L57.2247 -30.5648
L57.4029 -30.9167
L57.5671 -31.2757
L57.7167 -31.6414
L57.8513 -32.0135
L57.9704 -32.3914
L58.0736 -32.7747
L58.1607 -33.1628
L58.2314 -33.5553
L58.2857 -33.9515
L58.3235 -34.3508
L58.3449 -34.7526
L58.35 -35.1562
L58.3392 -35.561
L58.3127 -35.9663
L58.2708 -36.3716
L58.2141 -36.7762
L58.143 -37.1795
L58.058 -37.581
L57.9596 -37.9802
L57.8485 -38.3766
L57.7252 -38.7697
L57.5904 -39.1592
L57.4445 -39.5445
L57.2881 -39.9254
L57.1219 -40.3016
L56.9464 -40.6727
L56.7622 -41.0386
L56.5698 -41.399
L56.3697 -41.7537
L56.1624 -42.1025
L55.9483 -42.4454
L55.7281 -42.7823
L55.502 -43.1129
L55.2705 -43.4373
L55.034 -43.7555
L54.7929 -44.0673
L54.5476 -44.3728
L54.2983 -44.6719
L54.0455 -44.9648
L53.7893 -45.2513
L53.5302 -45.5316
L53.2683 -45.8057
L53.004 -46.0736
L52.7374 -46.3355
L52.4688 -46.5913
L52.1984 -46.8412
L51.9264 -47.0851
L51.6529 -47.3234
L51.3782 -47.5558
L51.1023 -47.7827
L50.8255 -48.0041
L50.5478 -48.22
L50.2694 -48.4307
L49.9905 -48.636
L49.711 -48.8363
L49.4311 -49.0315
L49.1509 -49.2217
L48.8704 -49.4071
L48.5898 -49.5878
L48.309 -49.7638
L48.0282 -49.9352
L47.7474 -50.1022
L47.4666 -50.2647
L47.1859 -50.423
L46.9053 -50.5771
L46.6248 -50.7271
L46.3445 -50.873
L46.0643 -51.015
L45.7843 -51.1531
L45.5045 -51.2874
L45.2249 -51.418
L44.9455 -51.5449
L44.6663 -51.6682
L44.3872 -51.788
L44.1084 -51.9044
L43.8297 -52.0174
L43.5512 -52.127
L43.2728 -52.2334
L42.9946 -52.3366
L42.7164 -52.4365
L42.4383 -52.5334
L42.1603 -52.6272
L41.8824 -52.718
L41.6044 -52.8058
L41.3264 -52.8906
L41.0484 -52.9725
L40.7703 -53.0516
L40.4921 -53.1278
L40.2137 -53.2012
L39.9352 -53.2718
L39.6565 -53.3397
L39.3775 -53.4048
L39.0982 -53.4672
L38.8186 -53.5269
L38.5386 -53.5839
L38.2582 -53.6383
L37.9774 -53.6899
L37.6961 -53.7389
L37.4143 -53.7853
L37.1319 -53.829
L36.8489 -53.87
L36.5652 -53.9084
L36.2809 -53.9441
L35.9958 -53.9772
L35.71 -54.0075
L35.4234 -54.0352
L35.1359 -54.0601
L34.8475 -54.0823
L34.5581 -54.1018
L34.2678 -54.1184
L33.9765 -54.1323
L33.6841 -54.1433
L33.3905 -54.1514
L33.0959 -54.1566
L32.8001 -54.1588
L32.503 -54.1581
L32.2047 -54.1543
L31.9052 -54.1474
L31.6042 -54.1373
L31.302 -54.124
L30.9983 -54.1075
L30.6933 -54.0876
L30.3868 -54.0643
L30.0788 -54.0376
L29.7693 -54.0073
L29.4583 -53.9734
L29.1458 -53.9357
L28.8317 -53.8943
L28.5161 -53.849
L28.1989 -53.7997
L27.8802 -53.7464
L27.5598 -53.6888
L27.2379 -53.627
L26.9145 -53.5608
L26.5895 -53.49
L26.263 -53.4147
L25.935 -53.3346
L25.6055 -53.2496
L25.2747 -53.1597
L24.9424 -53.0646
L24.6089 -52.9642
L24.2741 -52.8584
L23.9381 -52.7471
L23.601 -52.6301
L23.263 -52.5072
L22.924 -52.3784
L22.5843 -52.2434
L22.244 -52.1021
L21.9031 -51.9543
L21.562 -51.7999
L21.2206 -51.6387
L20.8793 -51.4707
L20.5383 -51.2955
L20.1977 -51.1131
L19.8578 -50.9233
L19.5189 -50.7259
L19.1813 -50.5209
L18.8452 -50.308
L18.5111 -50.0872
L18.1791 -49.8583
L17.8498 -49.6212
L17.5236 -49.3759
L17.2008 -49.1221
L16.8819 -48.8599
L16.5674 -48.5892
L16.2578 -48.3099
L15.9536 -48.022
L15.6555 -47.7255
L15.3639 -47.4205
L15.0795 -47.107
L14.803 -46.7851
L14.535 -46.4549
L14.2761 -46.1166
L14.0271 -45.7704
L13.7887 -45.4164
L13.5616 -45.055
L13.3465 -44.6865
L13.1441 -44.3112
L12.955 -43.9296
L12.78 -43.5421
L12.6196 -43.1492
L12.4744 -42.7514
L12.3449 -42.3493
L12.2316 -41.9436
L12.1348 -41.5348
L12.0549 -41.1236
L11.9919 -40.7107
L11.946 -40.2968
L11.9173 -39.8824
L11.9055 -39.4684
L11.9105 -39.0553
L11.932 -38.6439
L11.9697 -38.2345
L12.0232 -37.828
L12.0919 -37.4247
L12.1754 -37.0252
L12.273 -36.6299
L12.3842 -36.2393
L12.5082 -35.8537
L12.6446 -35.4734
L12.7926 -35.0987
L12.9515 -34.73
L13.1209 -34.3673
L13.2999 -34.0109
L13.4881 -33.6609
L13.6848 -33.3174
L13.8894 -32.9806
L14.1014 -32.6505
L14.3203 -32.3271
L14.5456 -32.0105
L14.7767 -31.7008
L15.0132 -31.3978
L15.2547 -31.1015
L15.5007 -30.812
L15.751 -30.5291
L16.005 -30.2529
L16.2624 -29.9832
L16.523 -29.7199
L16.7864 -29.4631
L17.0523 -29.2125
L17.3205 -28.9681
L17.5907 -28.7299
L17.8627 -28.4976
L18.1362 -28.2712
L18.4111 -28.0505
L18.6871 -27.8356
L18.9641 -27.6262
L19.242 -27.4222
L19.5205 -27.2235
L19.7996 -27.0301
L20.079 -26.8418
L20.3588 -26.6584
L20.6388 -26.4799
L20.9189 -26.3062
L21.199 -26.1371
L21.479 -25.9726
L21.759 -25.8125
L22.0387 -25.6568
L22.3182 -25.5053
L22.5974 -25.3579
L22.8763 -25.2146
L23.1548 -25.0752
L23.4329 -24.9397
L23.7106 -24.8079
L23.9878 -24.6798
L24.2647 -24.5553
L24.541 -24.4342
L24.8169 -24.3166
L25.0923 -24.2024
L25.3672 -24.0914
L25.6417 -23.9837
L25.9157 -23.879
L26.1892 -23.7775
L26.4623 -23.6789
L26.735 -23.5833
L27.0073 -23.4905
L27.2792 -23.4006
L27.5507 -23.3134
L27.8219 -23.229
L28.0928 -23.1472
L28.3634 -23.068
L28.6338 -22.9915
L28.9039 -22.9174
L29.1738 -22.8458
L29.4436 -22.7767
L29.7132 -22.71
L29.9828 -22.6457
L30.2522 -22.5838
L30.5217 -22.5242
L30.7912 -22.4669
L31.0607 -22.4118
L31.3303 -22.359
L31.6001 -22.3085
L31.87 -22.2602
L32.1402 -22.214
z
" id="C0_1_33c9e86efa"/>
    </defs>
    <g clip-path="url(#p1bffca34e9)">
     <use style="fill:#ff0000;stroke:#000000;stroke-width:2.0;" x="0.0" xlink:href="#C0_0_a811fe30f3" y="72.0"/>
    </g>
    <g clip-path="url(#p1bffca34e9)">
     <use style="fill:#ffffff;stroke:#000000;stroke-width:2.0;" x="0.0" xlink:href="#C0_1_33c9e86efa" y="72.0"/>
    </g>
   </g>
  </g>
 </g>
 <defs>
  <clipPath id="p1bffca34e9">
   <rect height="72.0" width="72.0" x="0.0" y="0.0"/>
  </clipPath>
 </defs>
</svg>
