<?xml version="1.0" encoding="utf-8" standalone="no"?>
<!DOCTYPE svg PUBLIC "-//W3C//DTD SVG 1.1//EN"
  "http://www.w3.org/Graphics/SVG/1.1/DTD/svg11.dtd">
<!-- Created with matplotlib (http://matplotlib.org/) -->
<svg height="72pt" version="1.1" viewBox="0 0 72 72" width="72pt" xmlns="http://www.w3.org/2000/svg" xmlns:xlink="http://www.w3.org/1999/xlink">
 <defs>
  <style type="text/css">
*{stroke-linecap:butt;stroke-linejoin:round;}
  </style>
 </defs>
 <g id="figure_1">
  <g id="patch_1">
   <path d="
M0 72
L72 72
L72 0
L0 0
z
" style="fill:none;"/>
  </g>
  <g id="axes_1">
   <g id="PatchCollection_1">
    <defs>
     <path d="
M36 -7.5
C43.5583 -7.5 50.808 -10.5029 56.1525 -15.8475
C61.4971 -21.192 64.5 -28.4417 64.5 -36
C64.5 -43.5583 61.4971 -50.808 56.1525 -56.1525
C50.808 -61.4971 43.5583 -64.5 36 -64.5
C28.4417 -64.5 21.192 -61.4971 15.8475 -56.1525
C10.5029 -50.808 7.5 -43.5583 7.5 -36
C7.5 -28.4417 10.5029 -21.192 15.8475 -15.8475
C21.192 -10.5029 28.4417 -7.5 36 -7.5
z
" id="C0_0_a811fe30f3"/>
     <path d="
M12.8948 -52.4934
L13.0337 -52.3765
L13.1733 -52.2591
L13.3135 -52.141
L13.4543 -52.0224
L13.5959 -51.9031
L13.8813 -51.7831
L14.0252 -51.6625
L14.17 -51.5411
L14.3156 -51.4191
L14.4621 -51.2962
L14.6096 -51.1726
L14.758 -51.0481
L14.9074 -50.9228
L15.058 -50.7966
L15.2096 -50.6695
L15.3623 -50.5415
L15.5162 -50.4125
L15.6713 -50.2825
L15.8277 -50.1514
L15.9854 -50.0193
L16.1444 -49.886
L16.3048 -49.7516
L16.4666 -49.616
L16.6299 -49.4792
L16.7947 -49.3411
L16.961 -49.2017
L17.129 -49.061
L17.2987 -48.9189
L17.47 -48.7753
L17.6431 -48.6303
L17.818 -48.4838
L17.9947 -48.3357
L18.1734 -48.1859
L18.354 -48.0346
L18.5365 -47.8815
L18.7212 -47.7267
L18.9079 -47.57
L19.0968 -47.4116
L19.2878 -47.2512
L19.4811 -47.0889
L19.6767 -46.9246
L19.8746 -46.7583
L20.0749 -46.5898
L20.2776 -46.4192
L20.4827 -46.2464
L20.6904 -46.0713
L20.9006 -45.894
L21.1134 -45.7143
L21.3287 -45.5321
L21.5468 -45.3475
L21.7674 -45.1604
L21.9908 -44.9708
L22.2169 -44.7785
L22.4456 -44.5835
L22.6771 -44.3859
L22.9113 -44.1855
L23.1482 -43.9822
L23.3878 -43.7762
L23.6301 -43.5672
L23.875 -43.3553
L24.1224 -43.1404
L24.3724 -42.9225
L24.6248 -42.7016
L24.8795 -42.4775
L25.1365 -42.2504
L25.3956 -42.0201
L25.6567 -41.7867
L25.9196 -41.55
L26.1841 -41.3101
L26.4499 -41.067
L26.7169 -40.8207
L26.9848 -40.5711
L27.2532 -40.3182
L27.5217 -40.062
L27.7901 -39.8026
L28.0577 -39.5398
L28.3241 -39.2738
L28.5888 -39.0044
L28.8511 -38.7317
L29.1104 -38.4557
L29.3658 -38.1764
L29.6166 -37.8937
L29.8618 -37.6077
L30.1004 -37.3183
L30.3315 -37.0255
L30.5537 -36.7292
L30.766 -36.4295
L30.9671 -36.1262
L31.1557 -35.8194
L31.3306 -35.509
L31.4904 -35.195
L31.634 -34.8773
L31.7603 -34.556
L31.8685 -34.2311
L31.9578 -33.9026
L32.0278 -33.5707
L32.0783 -33.2354
L32.1093 -32.8971
L32.1212 -32.5558
L32.1145 -32.212
L32.0901 -31.866
L32.0488 -31.518
L31.9918 -31.1686
L31.9201 -30.8181
L31.835 -30.4669
L31.7377 -30.1155
L31.6293 -29.7642
L31.511 -29.4136
L31.3837 -29.0638
L31.2486 -28.7153
L31.1066 -28.3685
L30.9585 -28.0236
L30.805 -27.681
L30.647 -27.3408
L30.4851 -27.0034
L30.3198 -26.6689
L30.1518 -26.3376
L29.9815 -26.0096
L29.8092 -25.685
L29.6355 -25.3641
L29.4607 -25.0469
L29.2851 -24.7335
L29.1089 -24.4241
L28.9325 -24.1186
L28.756 -23.8171
L28.5797 -23.5198
L28.4037 -23.2266
L28.2282 -22.9375
L28.0533 -22.6525
L27.8791 -22.3718
L27.7058 -22.0951
L27.5335 -21.8226
L27.3622 -21.5543
L27.1919 -21.29
L27.0228 -21.0298
L26.8549 -20.7736
L26.6883 -20.5213
L26.5229 -20.2731
L26.3588 -20.0286
L26.1961 -19.7881
L26.0346 -19.5513
L25.8745 -19.3182
L25.7158 -19.0888
L25.5584 -18.8629
L25.4023 -18.6406
L25.2475 -18.4218
L25.0941 -18.2063
L24.942 -17.9942
L24.7911 -17.7854
L24.6415 -17.5797
L24.4932 -17.3772
L24.346 -17.1778
L24.2001 -16.9814
L24.0553 -16.7879
L23.9117 -16.5973
L23.7692 -16.4094
L23.6278 -16.2244
L23.4874 -16.042
L23.3481 -15.8622
L23.2097 -15.685
L23.0723 -15.5103
L22.9358 -15.338
L22.8003 -15.1681
L22.6655 -15.0005
L22.5316 -14.8352
L22.3985 -14.6722
L22.2662 -14.5112
L22.1345 -14.3525
L22.0036 -14.1957
L21.8733 -14.041
L21.7436 -13.8883
L21.6145 -13.7375
L21.4859 -13.5886
L21.3579 -13.4415
L21.2303 -13.2962
L21.1031 -13.1527
L20.9764 -13.0109
L20.85 -12.8708
L20.7239 -12.7324
L20.5981 -12.5956
L20.4726 -12.4604
L20.3473 -12.3267
L19.9288 -12.1946
L19.5205 -12.4635
L19.1172 -12.7476
L18.719 -13.0387
L18.3261 -13.3368
L17.9386 -13.6419
L17.5566 -13.9537
L17.1802 -14.2723
L16.8096 -14.5975
L16.4448 -14.9292
L16.0859 -15.2673
L15.7331 -15.6118
L15.3865 -15.9624
L15.0462 -16.3192
L14.7122 -16.682
L14.3847 -17.0506
L14.0639 -17.425
L13.7496 -17.8051
L13.4422 -18.1907
L13.1417 -18.5817
L12.8481 -18.9781
L12.5615 -19.3796
L12.2821 -19.7862
L12.01 -20.1977
L11.7451 -20.614
L11.4876 -21.0351
L11.2376 -21.4606
L10.9951 -21.8907
L10.7603 -22.325
L10.5331 -22.7635
L10.3137 -23.206
L10.1021 -23.6524
L9.89842 -24.1025
L9.70268 -24.5563
L9.51494 -25.0136
L9.33528 -25.4742
L9.16373 -25.9381
L9.00036 -26.405
L8.84522 -26.8748
L8.69835 -27.3474
L8.55979 -27.8226
L8.42959 -28.3003
L8.30779 -28.7804
L8.19442 -29.2627
L8.08953 -29.747
L7.99314 -30.2332
L7.90527 -30.7212
L7.82597 -31.2108
L7.75525 -31.7019
L7.69313 -32.1942
L7.63963 -32.6877
L7.59478 -33.1823
L7.55857 -33.6776
L7.53103 -34.1737
L7.51216 -34.6704
L7.50197 -35.1674
L7.50046 -35.6647
L7.50763 -36.1622
L7.52348 -36.6595
L7.54801 -37.1567
L7.5812 -37.6535
L7.62304 -38.1498
L7.67353 -38.6454
L7.73265 -39.1403
L7.80038 -39.6342
L7.87671 -40.1269
L7.96159 -40.6185
L8.05502 -41.1086
L8.15696 -41.5971
L8.26738 -42.084
L8.38625 -42.569
L8.51353 -43.052
L8.64918 -43.5329
L8.79317 -44.0114
L8.94544 -44.4875
L9.10595 -44.9611
L9.27466 -45.4319
L9.4515 -45.8998
L9.63643 -46.3647
L9.8294 -46.8265
L10.0303 -47.2849
L10.2392 -47.7399
L10.4559 -48.1914
L10.6803 -48.6391
L10.9125 -49.083
L11.1524 -49.5229
L11.3998 -49.9587
L11.6546 -50.3902
L11.917 -50.8173
L12.1866 -51.24
L12.4635 -51.658
z
" id="C0_1_10a8a9215c"/>
     <path d="
M51.592 -59.6541
L51.5201 -59.486
L51.4476 -59.3171
L51.3744 -59.1474
L51.3005 -58.9768
L51.2259 -58.8054
L51.1506 -58.6329
L51.0746 -58.4595
L50.9978 -58.285
L50.9202 -58.1095
L50.8418 -57.9328
L50.7627 -57.7549
L50.6827 -57.5759
L50.6018 -57.3956
L50.5201 -57.214
L50.4375 -57.031
L50.354 -56.8466
L50.2696 -56.6608
L50.1841 -56.4734
L50.0978 -56.2845
L50.0104 -56.094
L49.9219 -55.9018
L49.8325 -55.7079
L49.7419 -55.5122
L49.6502 -55.3147
L49.5574 -55.1153
L49.4635 -54.9139
L49.3683 -54.7105
L49.272 -54.5051
L49.1744 -54.2975
L49.0755 -54.0877
L48.9754 -53.8757
L48.8739 -53.6613
L48.7711 -53.4446
L48.6669 -53.2254
L48.5613 -53.0037
L48.4542 -52.7794
L48.3457 -52.5525
L48.2357 -52.3229
L48.1243 -52.0906
L48.0112 -51.8554
L47.8966 -51.6173
L47.7805 -51.3762
L47.6627 -51.1321
L47.5433 -50.885
L47.4223 -50.6346
L47.2997 -50.3811
L47.1753 -50.1243
L47.0494 -49.8642
L46.9217 -49.6007
L46.7924 -49.3338
L46.6614 -49.0635
L46.5287 -48.7896
L46.3944 -48.5121
L46.2584 -48.2311
L46.1209 -47.9464
L45.9818 -47.658
L45.8411 -47.366
L45.699 -47.0703
L45.5555 -46.7708
L45.4106 -46.4677
L45.2645 -46.1608
L45.1173 -45.8503
L44.969 -45.5361
L44.8199 -45.2182
L44.67 -44.8967
L44.5196 -44.5717
L44.3688 -44.2433
L44.2179 -43.9114
L44.0671 -43.5762
L43.9168 -43.2378
L43.7673 -42.8964
L43.6188 -42.5521
L43.472 -42.2049
L43.3271 -41.8552
L43.1848 -41.5031
L43.0456 -41.1488
L42.9101 -40.7926
L42.7791 -40.4348
L42.6533 -40.0755
L42.5335 -39.7152
L42.4208 -39.3541
L42.316 -38.9926
L42.2204 -38.6311
L42.1349 -38.27
L42.0607 -37.9097
L41.9992 -37.5505
L41.9514 -37.193
L41.9186 -36.8376
L41.9018 -36.4846
L41.902 -36.1345
L41.9201 -35.7876
L41.9566 -35.4443
L42.0119 -35.1048
L42.0863 -34.7694
L42.1794 -34.4383
L42.2909 -34.1116
L42.4202 -33.7894
L42.5664 -33.4717
L42.7285 -33.1587
L42.9053 -32.8501
L43.0956 -32.5461
L43.2983 -32.2465
L43.5119 -31.9513
L43.7354 -31.6605
L43.9676 -31.374
L44.2072 -31.0917
L44.4534 -30.8136
L44.705 -30.5396
L44.9612 -30.2698
L45.2212 -30.004
L45.4842 -29.7422
L45.7496 -29.4844
L46.0167 -29.2306
L46.285 -28.9807
L46.554 -28.7347
L46.8232 -28.4926
L47.0923 -28.2543
L47.3608 -28.0199
L47.6285 -27.7892
L47.895 -27.5624
L48.1602 -27.3392
L48.4238 -27.1198
L48.6856 -26.904
L48.9455 -26.6918
L49.2033 -26.4832
L49.4589 -26.2781
L49.7122 -26.0765
L49.9631 -25.8784
L50.2115 -25.6836
L50.4573 -25.4922
L50.7006 -25.3041
L50.9412 -25.1192
L51.1792 -24.9375
L51.4146 -24.7589
L51.6472 -24.5834
L51.8772 -24.4109
L52.1046 -24.2414
L52.3293 -24.0748
L52.5513 -23.911
L52.7707 -23.75
L52.9876 -23.5917
L53.2019 -23.4361
L53.4137 -23.2831
L53.623 -23.1327
L53.8298 -22.9848
L54.0342 -22.8393
L54.2363 -22.6962
L54.4361 -22.5555
L54.6335 -22.417
L54.8288 -22.2808
L55.0219 -22.1468
L55.2128 -22.0149
L55.4017 -21.885
L55.5886 -21.7573
L55.7734 -21.6315
L55.9564 -21.5076
L56.1374 -21.3856
L56.3167 -21.2655
L56.4942 -21.1472
L56.6699 -21.0306
L56.844 -20.9158
L57.0164 -20.8027
L57.1873 -20.6912
L57.3566 -20.5813
L57.5245 -20.473
L57.691 -20.3663
L57.856 -20.261
L58.0197 -20.1573
L58.1822 -20.0549
L58.3434 -19.954
L58.5034 -19.8545
L58.6622 -19.7563
L58.82 -19.6595
L58.9767 -19.564
L59.4737 -19.4698
L59.7522 -19.8372
L60.0235 -20.2493
L60.2874 -20.6663
L60.544 -21.0879
L60.793 -21.514
L61.0346 -21.9446
L61.2685 -22.3794
L61.4947 -22.8184
L61.7131 -23.2614
L61.9237 -23.7083
L62.1264 -24.1589
L62.3212 -24.6131
L62.5079 -25.0708
L62.6865 -25.5319
L62.8571 -25.9961
L63.0194 -26.4634
L63.1735 -26.9335
L63.3194 -27.4065
L63.4569 -27.882
L63.586 -28.36
L63.7068 -28.8404
L63.8191 -29.3229
L63.9229 -29.8075
L64.0183 -30.294
L64.1051 -30.7821
L64.1833 -31.2719
L64.253 -31.7631
L64.314 -32.2557
L64.3664 -32.7493
L64.4102 -33.244
L64.4453 -33.7394
L64.4718 -34.2356
L64.4896 -34.7323
L64.4987 -35.2294
L64.4991 -35.7267
L64.4909 -36.2242
L64.4739 -36.7215
L64.4483 -37.2186
L64.4141 -37.7154
L64.3711 -38.2116
L64.3196 -38.7072
L64.2594 -39.2019
L64.1906 -39.6957
L64.1132 -40.1883
L64.0272 -40.6796
L63.9327 -41.1696
L63.8297 -41.6579
L63.7183 -42.1446
L63.5983 -42.6293
L63.47 -43.1121
L63.3333 -43.5926
L63.1883 -44.0709
L63.035 -44.5467
L62.8735 -45.0199
L62.7037 -45.4903
L62.5259 -45.9579
L62.34 -46.4224
L62.146 -46.8838
L61.9441 -47.3418
L61.7342 -47.7964
L61.5166 -48.2474
L61.2911 -48.6947
L61.058 -49.1381
L60.8172 -49.5774
L60.5689 -50.0127
L60.3131 -50.4437
L60.0498 -50.8703
L59.7793 -51.2923
L59.5015 -51.7097
L59.2165 -52.1223
L58.9245 -52.53
L58.6255 -52.9327
L58.3196 -53.3302
L58.0069 -53.7224
L57.6875 -54.1093
L57.3615 -54.4906
L57.029 -54.8663
L56.6901 -55.2362
L56.3448 -55.6003
L55.9934 -55.9584
L55.6359 -56.3104
L55.2724 -56.6563
L54.9031 -56.9958
L54.5279 -57.329
L54.1472 -57.6556
L53.7609 -57.9757
L53.3692 -58.289
L52.9722 -58.5956
L52.57 -58.8953
L52.1628 -59.188
z
" id="C0_2_175c7d29b9"/>
    </defs>
    <g clip-path="url(#p1bffca34e9)">
     <use style="fill:#ffffff;stroke:#000000;stroke-width:2.0;" x="0.0" xlink:href="#C0_0_a811fe30f3" y="72.0"/>
    </g>
    <g clip-path="url(#p1bffca34e9)">
     <use style="fill:#ff0000;stroke:#000000;stroke-width:2.0;" x="0.0" xlink:href="#C0_1_10a8a9215c" y="72.0"/>
    </g>
    <g clip-path="url(#p1bffca34e9)">
     <use style="fill:#ff0000;stroke:#000000;stroke-width:2.0;" x="0.0" xlink:href="#C0_2_175c7d29b9" y="72.0"/>
    </g>
   </g>
  </g>
 </g>
 <defs>
  <clipPath id="p1bffca34e9">
   <rect height="72.0" width="72.0" x="0.0" y="0.0"/>
  </clipPath>
 </defs>
</svg>
