<?xml version="1.0" encoding="utf-8" standalone="no"?>
<!DOCTYPE svg PUBLIC "-//W3C//DTD SVG 1.1//EN"
  "http://www.w3.org/Graphics/SVG/1.1/DTD/svg11.dtd">
<!-- Created with matplotlib (http://matplotlib.org/) -->
<svg height="72pt" version="1.1" viewBox="0 0 72 72" width="72pt" xmlns="http://www.w3.org/2000/svg" xmlns:xlink="http://www.w3.org/1999/xlink">
 <defs>
  <style type="text/css">
*{stroke-linecap:butt;stroke-linejoin:round;}
  </style>
 </defs>
 <g id="figure_1">
  <g id="patch_1">
   <path d="
M0 72
L72 72
L72 0
L0 0
z
" style="fill:none;"/>
  </g>
  <g id="axes_1">
   <g id="PatchCollection_1">
    <defs>
     <path d="
M36 -7.5
C43.5583 -7.5 50.808 -10.5029 56.1525 -15.8475
C61.4971 -21.192 64.5 -28.4417 64.5 -36
C64.5 -43.5583 61.4971 -50.808 56.1525 -56.1525
C50.808 -61.4971 43.5583 -64.5 36 -64.5
C28.4417 -64.5 21.192 -61.4971 15.8475 -56.1525
C10.5029 -50.808 7.5 -43.5583 7.5 -36
C7.5 -28.4417 10.5029 -21.192 15.8475 -15.8475
C21.192 -10.5029 28.4417 -7.5 36 -7.5
z
" id="C0_0_a811fe30f3"/>
     <path d="
M23.9292 -27.5861
L24.1526 -27.428
L24.3774 -27.2718
L24.6037 -27.1174
L24.8315 -26.9648
L25.0608 -26.814
L25.2917 -26.6651
L25.5242 -26.5178
L25.7583 -26.3724
L25.994 -26.2287
L26.2314 -26.0867
L26.4706 -25.9465
L26.7115 -25.808
L26.9542 -25.6712
L27.1987 -25.5361
L27.4451 -25.4028
L27.6934 -25.2712
L27.9436 -25.1414
L28.1959 -25.0133
L28.4501 -24.887
L28.7064 -24.7624
L28.9648 -24.6397
L29.2254 -24.5187
L29.4881 -24.3996
L29.753 -24.2824
L30.0202 -24.167
L30.2897 -24.0536
L30.5615 -23.9421
L30.8357 -23.8326
L31.1122 -23.7251
L31.3912 -23.6198
L31.6727 -23.5165
L31.9567 -23.4155
L32.2432 -23.3166
L32.5323 -23.2201
L32.824 -23.1259
L33.1182 -23.0342
L33.4152 -22.945
L33.7147 -22.8583
L34.0169 -22.7743
L34.3218 -22.6931
L34.6294 -22.6147
L34.9397 -22.5392
L35.2527 -22.4668
L35.5684 -22.3975
L35.8867 -22.3315
L36.2077 -22.2688
L36.5313 -22.2097
L36.8576 -22.1542
L37.1864 -22.1025
L37.5177 -22.0547
L37.8515 -22.0109
L38.1878 -21.9714
L38.5263 -21.9362
L38.8672 -21.9056
L39.2102 -21.8798
L39.5552 -21.8588
L39.9022 -21.8429
L40.2511 -21.8323
L40.6016 -21.8272
L40.9536 -21.8278
L41.307 -21.8342
L41.6616 -21.8469
L42.0171 -21.8658
L42.3734 -21.8914
L42.7302 -21.9237
L43.0873 -21.9631
L43.4444 -22.0099
L43.8011 -22.0641
L44.1573 -22.1262
L44.5125 -22.1962
L44.8665 -22.2746
L45.2188 -22.3615
L45.569 -22.4572
L45.9168 -22.5618
L46.2618 -22.6757
L46.6035 -22.7991
L46.9415 -22.9321
L47.2752 -23.075
L47.6043 -23.2278
L47.9283 -23.3909
L48.2466 -23.5642
L48.5589 -23.748
L48.8645 -23.9422
L49.1631 -24.1469
L49.4542 -24.362
L49.7374 -24.5877
L50.0122 -24.8236
L50.2782 -25.0698
L50.5351 -25.3261
L50.7825 -25.5922
L51.0201 -25.8679
L51.2477 -26.1529
L51.465 -26.4469
L51.6719 -26.7494
L51.8681 -27.0602
L52.0536 -27.3786
L52.2284 -27.7043
L52.3924 -28.0369
L52.5455 -28.3758
L52.6879 -28.7204
L52.8197 -29.0704
L52.9408 -29.4252
L53.0515 -29.7843
L53.1519 -30.1472
L53.2422 -30.5134
L53.3225 -30.8824
L53.3931 -31.2537
L53.4541 -31.627
L53.5059 -32.0017
L53.5486 -32.3775
L53.5825 -32.754
L53.6078 -33.1308
L53.6248 -33.5075
L53.6337 -33.8839
L53.6348 -34.2595
L53.6283 -34.6342
L53.6145 -35.0077
L53.5936 -35.3796
L53.5658 -35.7498
L53.5314 -36.1181
L53.4907 -36.4842
L53.4437 -36.848
L53.3909 -37.2094
L53.3323 -37.5681
L53.2682 -37.9241
L53.1988 -38.2772
L53.1242 -38.6274
L53.0448 -38.9745
L52.9606 -39.3184
L52.8718 -39.6592
L52.7786 -39.9966
L52.6812 -40.3308
L52.5798 -40.6616
L52.4744 -40.989
L52.3652 -41.313
L52.2523 -41.6335
L52.1359 -41.9506
L52.0162 -42.2643
L51.8931 -42.5745
L51.7669 -42.8813
L51.6377 -43.1847
L51.5055 -43.4846
L51.3704 -43.7811
L51.2326 -44.0743
L51.0921 -44.3641
L50.9489 -44.6506
L50.8033 -44.9338
L50.6551 -45.2137
L50.5046 -45.4904
L50.3518 -45.7639
L50.1967 -46.0342
L50.0393 -46.3015
L49.8798 -46.5656
L49.7181 -46.8267
L49.5544 -47.0848
L49.3886 -47.34
L49.2208 -47.5922
L49.051 -47.8415
L48.8792 -48.088
L48.7055 -48.3317
L48.5298 -48.5726
L48.3523 -48.8108
L48.1728 -49.0464
L47.9915 -49.2792
L47.8083 -49.5095
L47.6232 -49.7372
L47.4363 -49.9624
L47.2475 -50.1851
L47.0568 -50.4053
L46.8643 -50.623
L46.6699 -50.8384
L46.4736 -51.0514
L46.2754 -51.262
L46.0753 -51.4704
L45.8733 -51.6764
L45.6693 -51.8801
L45.4633 -52.0817
L45.2554 -52.2809
L45.0454 -52.478
L44.8335 -52.6729
L44.6194 -52.8656
L44.4033 -53.0562
L44.1851 -53.2446
L43.9647 -53.4308
L43.7421 -53.6149
L43.5173 -53.7969
L43.2902 -53.9768
L43.0608 -54.1545
L42.8292 -54.3301
L42.5951 -54.5035
L42.3586 -54.6749
L42.1197 -54.844
L41.8783 -55.011
L41.6343 -55.1758
L41.3877 -55.3384
L41.1385 -55.4988
L40.8866 -55.6569
L40.6319 -55.8127
L40.3745 -55.9663
L40.1142 -56.1174
L39.851 -56.2662
L39.5849 -56.4126
L39.3159 -56.5565
L39.0437 -56.6978
L38.7685 -56.8366
L38.4901 -56.9727
L38.2085 -57.1061
L37.9237 -57.2367
L37.6356 -57.3645
L37.3441 -57.4893
L37.0492 -57.6112
L36.7509 -57.7299
L36.4491 -57.8454
L36.1437 -57.9576
L35.8348 -58.0664
L35.5223 -58.1716
L35.2061 -58.2733
L34.8862 -58.3711
L34.5626 -58.4651
L34.2353 -58.555
L33.9042 -58.6407
L33.5693 -58.7221
L33.2306 -58.799
L32.8881 -58.8713
L32.5418 -58.9387
L32.1918 -59.0011
L31.8379 -59.0583
L31.4803 -59.1101
L31.119 -59.1563
L30.754 -59.1967
L30.3854 -59.2311
L30.0133 -59.2593
L29.6377 -59.281
L29.2586 -59.296
L28.8764 -59.304
L28.4909 -59.3049
L28.1025 -59.2983
L27.7112 -59.284
L27.3172 -59.2618
L26.9207 -59.2313
L26.5219 -59.1924
L26.1211 -59.1448
L25.7186 -59.0881
L25.3145 -59.0222
L24.9093 -58.9468
L24.5032 -58.8616
L24.0966 -58.7663
L23.6899 -58.6609
L23.2835 -58.5449
L22.8778 -58.4182
L22.4734 -58.2807
L22.0707 -58.1321
L21.6703 -57.9722
L21.2726 -57.801
L20.8784 -57.6183
L20.4881 -57.424
L20.1023 -57.2182
L19.7218 -57.0007
L19.3472 -56.7717
L18.9791 -56.5312
L18.6182 -56.2792
L18.2651 -56.016
L17.9205 -55.7418
L17.585 -55.4568
L17.2593 -55.1613
L16.9439 -54.8557
L16.6395 -54.5403
L16.3465 -54.2156
L16.0654 -53.882
L15.7966 -53.5401
L15.5406 -53.1903
L15.2977 -52.8333
L15.0681 -52.4697
L14.852 -52.1
L14.6496 -51.7249
L14.461 -51.345
L14.2861 -50.9608
L14.1251 -50.5731
L13.9777 -50.1823
L13.8439 -49.7892
L13.7235 -49.3942
L13.6162 -48.9979
L13.5219 -48.6009
L13.4403 -48.2036
L13.3711 -47.8064
L13.3139 -47.41
L13.2684 -47.0145
L13.2342 -46.6205
L13.211 -46.2283
L13.1985 -45.8383
L13.1962 -45.4506
L13.2038 -45.0656
L13.2208 -44.6836
L13.247 -44.3047
L13.282 -43.9292
L13.3253 -43.5572
L13.3767 -43.1889
L13.4358 -42.8245
L13.5022 -42.464
L13.5756 -42.1075
L13.6558 -41.7552
L13.7423 -41.4071
L13.8349 -41.0633
L13.9334 -40.7238
L14.0374 -40.3886
L14.1466 -40.0579
L14.2609 -39.7315
L14.3799 -39.4094
L14.5035 -39.0918
L14.6314 -38.7785
L14.7634 -38.4696
L14.8993 -38.165
L15.0389 -37.8647
L15.1821 -37.5687
L15.3286 -37.2768
L15.4783 -36.9892
L15.631 -36.7056
L15.7867 -36.4262
L15.9451 -36.1507
L16.1061 -35.8792
L16.2696 -35.6117
L16.4355 -35.3479
L16.6037 -35.088
L16.7741 -34.8318
L16.9466 -34.5792
L17.121 -34.3303
L17.2974 -34.0848
L17.4757 -33.8429
L17.6557 -33.6043
L17.8374 -33.3691
L18.0208 -33.1372
L18.2057 -32.9085
L18.3922 -32.683
L18.5803 -32.4605
L18.7697 -32.2411
L18.9606 -32.0247
L19.1529 -31.8111
L19.3466 -31.6005
L19.5415 -31.3926
L19.7378 -31.1875
L19.9354 -30.985
L20.1343 -30.7852
L20.3344 -30.588
L20.5358 -30.3933
L20.7384 -30.2011
L20.9422 -30.0113
L21.1473 -29.8239
L21.3537 -29.6389
L21.5613 -29.4561
L21.7701 -29.2756
L21.9802 -29.0973
L22.1915 -28.9212
L22.4041 -28.7472
L22.618 -28.5753
L22.8332 -28.4055
L23.0497 -28.2377
L23.2675 -28.0719
L23.4867 -27.908
z
" id="C0_1_98be68f373"/>
    </defs>
    <g clip-path="url(#p1bffca34e9)">
     <use style="fill:#ff0000;stroke:#000000;stroke-width:2.0;" x="0.0" xlink:href="#C0_0_a811fe30f3" y="72.0"/>
    </g>
    <g clip-path="url(#p1bffca34e9)">
     <use style="fill:#ffffff;stroke:#000000;stroke-width:2.0;" x="0.0" xlink:href="#C0_1_98be68f373" y="72.0"/>
    </g>
   </g>
  </g>
 </g>
 <defs>
  <clipPath id="p1bffca34e9">
   <rect height="72.0" width="72.0" x="0.0" y="0.0"/>
  </clipPath>
 </defs>
</svg>
