<?xml version="1.0" encoding="utf-8" standalone="no"?>
<!DOCTYPE svg PUBLIC "-//W3C//DTD SVG 1.1//EN"
  "http://www.w3.org/Graphics/SVG/1.1/DTD/svg11.dtd">
<!-- Created with matplotlib (http://matplotlib.org/) -->
<svg height="72pt" version="1.1" viewBox="0 0 72 72" width="72pt" xmlns="http://www.w3.org/2000/svg" xmlns:xlink="http://www.w3.org/1999/xlink">
 <defs>
  <style type="text/css">
*{stroke-linecap:butt;stroke-linejoin:round;}
  </style>
 </defs>
 <g id="figure_1">
  <g id="patch_1">
   <path d="
M0 72
L72 72
L72 0
L0 0
z
" style="fill:none;"/>
  </g>
  <g id="axes_1">
   <g id="PatchCollection_1">
    <defs>
     <path d="
M36 -7.5
C43.5583 -7.5 50.808 -10.5029 56.1525 -15.8475
C61.4971 -21.192 64.5 -28.4417 64.5 -36
C64.5 -43.5583 61.4971 -50.808 56.1525 -56.1525
C50.808 -61.4971 43.5583 -64.5 36 -64.5
C28.4417 -64.5 21.192 -61.4971 15.8475 -56.1525
C10.5029 -50.808 7.5 -43.5583 7.5 -36
C7.5 -28.4417 10.5029 -21.192 15.8475 -15.8475
C21.192 -10.5029 28.4417 -7.5 36 -7.5
z
" id="C0_0_a811fe30f3"/>
     <path d="
M26.6842 -62.722
L26.7188 -62.425
L26.7589 -62.128
L26.8039 -61.831
L26.8533 -61.5342
L26.9065 -61.2378
L26.9632 -60.9419
L27.023 -60.6466
L27.0856 -60.3521
L27.1507 -60.0584
L27.218 -59.7658
L27.2873 -59.4742
L27.3584 -59.1837
L27.431 -58.8946
L27.5051 -58.6067
L27.5804 -58.3202
L27.6568 -58.0352
L27.7341 -57.7517
L27.8124 -57.4697
L27.8914 -57.1893
L27.9711 -56.9105
L28.0513 -56.6334
L28.132 -56.3579
L28.2132 -56.0841
L28.2947 -55.812
L28.3766 -55.5415
L28.4586 -55.2728
L28.5409 -55.0058
L28.6234 -54.7404
L28.706 -54.4767
L28.7887 -54.2146
L28.8715 -53.9542
L28.9543 -53.6954
L29.0371 -53.4382
L29.12 -53.1826
L29.2028 -52.9284
L29.2856 -52.6758
L29.3684 -52.4247
L29.4511 -52.1749
L29.5337 -51.9266
L29.6163 -51.6796
L29.6989 -51.434
L29.7814 -51.1896
L29.8638 -50.9464
L29.9462 -50.7044
L30.0285 -50.4636
L30.1107 -50.2239
L30.1929 -49.9852
L30.2751 -49.7475
L30.3572 -49.5107
L30.4393 -49.2749
L30.5213 -49.0399
L30.6034 -48.8057
L30.6854 -48.5723
L30.7675 -48.3395
L30.8496 -48.1074
L30.9317 -47.876
L31.0139 -47.645
L31.0961 -47.4146
L31.1784 -47.1846
L31.2608 -46.9549
L31.3433 -46.7256
L31.4259 -46.4966
L31.5087 -46.2679
L31.5916 -46.0392
L31.6746 -45.8108
L31.7579 -45.5823
L31.8414 -45.3539
L31.925 -45.1254
L32.009 -44.8969
L32.1776 -44.6681
L32.2624 -44.4392
L32.3475 -44.21
L32.4329 -43.9805
L32.5187 -43.7505
L32.6049 -43.5202
L32.6914 -43.2893
L32.7785 -43.0579
L32.8659 -42.8259
L32.9538 -42.5932
L33.0423 -42.3598
L33.1312 -42.1256
L33.2207 -41.8905
L33.3107 -41.6545
L33.4014 -41.4176
L33.4927 -41.1797
L33.5846 -40.9406
L33.6772 -40.7004
L33.7705 -40.459
L33.8645 -40.2164
L33.9592 -39.9724
L34.0548 -39.727
L34.1511 -39.4801
L34.2483 -39.2318
L34.3464 -38.9819
L34.4454 -38.7303
L34.5453 -38.4771
L34.6462 -38.222
L34.748 -37.9652
L34.8509 -37.7065
L34.9548 -37.4458
L35.0599 -37.1832
L35.166 -36.9184
L35.2733 -36.6516
L35.3818 -36.3826
L35.4915 -36.1113
L35.6025 -35.8378
L35.7148 -35.5619
L35.8284 -35.2836
L35.9434 -35.0029
L36.0597 -34.7197
L36.1775 -34.434
L36.2968 -34.1456
L36.4176 -33.8547
L36.5399 -33.5611
L36.6638 -33.2648
L36.7893 -32.9658
L36.9165 -32.6641
L37.0454 -32.3596
L37.176 -32.0523
L37.3083 -31.7423
L37.4425 -31.4295
L37.5784 -31.1139
L37.7163 -30.7956
L37.8561 -30.4746
L37.9978 -30.1509
L38.1415 -29.8245
L38.2873 -29.4956
L38.4351 -29.1642
L38.585 -28.8304
L38.7371 -28.4942
L38.8913 -28.1559
L39.0479 -27.8156
L39.2067 -27.4733
L39.3678 -27.1294
L39.5314 -26.784
L39.6975 -26.4373
L39.8662 -26.0896
L40.0375 -25.7413
L40.2116 -25.3926
L40.3885 -25.044
L40.5685 -24.6958
L40.7517 -24.3486
L40.9383 -24.0029
L41.1285 -23.6593
L41.3226 -23.3186
L41.521 -22.9814
L41.724 -22.6488
L41.9321 -22.3218
L42.1458 -22.0015
L42.3658 -21.6892
L42.5927 -21.3865
L42.8276 -21.0951
L43.0712 -20.8169
L43.3246 -20.554
L43.5889 -20.3088
L43.8652 -20.0838
L44.1544 -19.8815
L44.4575 -19.7045
L44.7749 -19.5551
L45.1069 -19.4354
L45.4533 -19.3469
L45.8132 -19.2904
L46.1857 -19.2661
L46.5692 -19.2733
L46.9622 -19.3109
L47.3627 -19.3773
L47.7691 -19.4707
L48.1796 -19.5889
L48.5926 -19.7299
L49.0065 -19.8916
L49.42 -20.0723
L49.832 -20.2702
L50.2414 -20.4836
L50.6473 -20.7111
L51.0489 -20.9514
L51.4455 -21.2033
L51.8366 -21.4659
L52.2215 -21.738
L52.6 -22.0188
L52.9715 -22.3076
L53.3359 -22.6036
L53.6929 -22.9061
L54.0422 -23.2145
L54.3838 -23.5283
L54.7174 -23.8469
L55.043 -24.1698
L55.3605 -24.4966
L55.6699 -24.8269
L55.9711 -25.1602
L56.2643 -25.4962
L56.5493 -25.8346
L56.8263 -26.175
L57.0953 -26.5171
L57.3563 -26.8608
L57.6095 -27.2057
L57.8549 -27.5516
L58.0927 -27.8983
L58.3229 -28.2456
L58.5456 -28.5932
L58.7611 -28.9412
L58.9693 -29.2892
L59.1704 -29.6372
L59.3645 -29.985
L59.5518 -30.3325
L59.7324 -30.6796
L59.9065 -31.0262
L60.074 -31.3723
L60.2352 -31.7178
L60.3902 -32.0625
L60.5391 -32.4066
L60.682 -32.7498
L60.8191 -33.0922
L60.9505 -33.4337
L61.0762 -33.7743
L61.1964 -34.114
L61.3112 -34.4528
L61.4207 -34.7907
L61.525 -35.1276
L61.6241 -35.4636
L61.7183 -35.7987
L61.8075 -36.1328
L61.8919 -36.4661
L61.9715 -36.7985
L62.0464 -37.13
L62.1167 -37.4606
L62.1824 -37.7905
L62.2437 -38.1196
L62.3006 -38.4479
L62.353 -38.7755
L62.4012 -39.1024
L62.4451 -39.4286
L62.4848 -39.7543
L62.5203 -40.0794
L62.5517 -40.4039
L62.579 -40.728
L62.6021 -41.0516
L62.6213 -41.3749
L62.6363 -41.6978
L62.6474 -42.0204
L62.6545 -42.3427
L62.6575 -42.6649
L62.6566 -42.9869
L62.6516 -43.3088
L62.6427 -43.6306
L62.6297 -43.9525
L62.6127 -44.2744
L62.5917 -44.5964
L62.5666 -44.9186
L62.5374 -45.2409
L62.5041 -45.5636
L62.4666 -45.8865
L62.4249 -46.2098
L62.2859 -46.5335
L62.0897 -47.0136
L61.8856 -47.4707
L61.6735 -47.9242
L61.4536 -48.3742
L61.226 -48.8204
L60.9907 -49.2627
L60.7478 -49.7009
L60.4973 -50.1349
L60.2394 -50.5647
L59.9741 -50.99
L59.7015 -51.4108
L59.4217 -51.8268
L59.1347 -52.2381
L58.8407 -52.6444
L58.5397 -53.0456
L58.2319 -53.4416
L57.9173 -53.8323
L57.596 -54.2176
L57.2682 -54.5974
L56.9338 -54.9714
L56.5931 -55.3397
L56.2461 -55.7021
L55.893 -56.0585
L55.5338 -56.4088
L55.1686 -56.7529
L54.7976 -57.0906
L54.4209 -57.4219
L54.0385 -57.7467
L53.6507 -58.0649
L53.2575 -58.3764
L52.859 -58.681
L52.4554 -58.9788
L52.0468 -59.2695
L51.6333 -59.5531
L51.215 -59.8296
L50.7921 -60.0988
L50.3647 -60.3607
L49.933 -60.6151
L49.4969 -60.8621
L49.0568 -61.1014
L48.6127 -61.3332
L48.1647 -61.5572
L47.7131 -61.7734
L47.2578 -61.9818
L46.7992 -62.1823
L46.3372 -62.3748
L45.8721 -62.5592
L45.404 -62.7356
L44.9331 -62.9038
L44.4594 -63.0638
L43.9831 -63.2156
L43.5044 -63.3591
L43.0234 -63.4942
L42.5403 -63.621
L42.0552 -63.7394
L41.5682 -63.8493
L41.0796 -63.9508
L40.5894 -64.0437
L40.0978 -64.1281
L39.6049 -64.2039
L39.111 -64.2711
L38.6161 -64.3297
L38.1204 -64.3797
L37.624 -64.421
L37.1272 -64.4537
L36.63 -64.4777
L36.1327 -64.493
L35.6353 -64.4997
L35.138 -64.4977
L34.6409 -64.487
L34.1443 -64.4676
L33.6483 -64.4395
L33.1529 -64.4028
L32.6584 -64.3574
L32.165 -64.3034
L31.6727 -64.2408
L31.1817 -64.1696
L30.6922 -64.0898
L30.2044 -64.0014
L29.7182 -63.9045
L29.234 -63.7991
L28.7519 -63.6852
L28.272 -63.5629
L27.7944 -63.4322
L27.3193 -63.2932
z
" id="C0_1_0cda1b72f7"/>
     <path d="
M9.66942 -25.1622
L9.86505 -24.8999
L10.0636 -24.6403
L10.2652 -24.3833
L10.4698 -24.1289
L10.6774 -23.8771
L10.888 -23.6277
L11.1018 -23.3808
L11.3187 -23.1363
L11.5387 -22.8942
L11.762 -22.6544
L11.9885 -22.4169
L12.2184 -22.1817
L12.4516 -21.9487
L12.6883 -21.718
L12.9284 -21.4895
L13.172 -21.2632
L13.4192 -21.0391
L13.6701 -20.8171
L13.9247 -20.5974
L14.1831 -20.3798
L14.4453 -20.1644
L14.7115 -19.9512
L14.9817 -19.7402
L15.2559 -19.5314
L15.5343 -19.3248
L15.817 -19.1205
L16.1039 -18.9185
L16.3952 -18.7188
L16.691 -18.5214
L16.9913 -18.3264
L17.2963 -18.1339
L17.6059 -17.9438
L17.9204 -17.7563
L18.2397 -17.5714
L18.564 -17.3892
L18.8933 -17.2097
L19.2278 -17.033
L19.5674 -16.8592
L19.9123 -16.6884
L20.2625 -16.5207
L20.6181 -16.3562
L20.9792 -16.1949
L21.3458 -16.037
L21.7181 -15.8826
L22.0959 -15.7318
L22.4794 -15.5847
L22.8687 -15.4415
L23.2636 -15.3023
L23.6644 -15.1673
L24.0709 -15.0365
L24.4831 -14.9101
L24.9012 -14.7882
L25.3249 -14.6711
L25.7544 -14.5588
L26.1894 -14.4515
L26.6301 -14.3493
L27.0762 -14.2523
L27.5276 -14.1608
L27.9843 -14.0747
L28.446 -13.9943
L28.9126 -13.9197
L29.3838 -13.8508
L29.8595 -13.7878
L30.3394 -13.7307
L30.823 -13.6796
L31.3102 -13.6343
L31.8005 -13.5949
L32.2934 -13.5612
L32.7885 -13.5331
L33.2853 -13.5103
L33.7831 -13.4925
L34.2812 -13.4793
L34.779 -13.4701
L35.2756 -13.4643
L35.7701 -13.4612
L36.2613 -13.4596
L36.7483 -13.4586
L37.2297 -13.4566
L37.7042 -13.4521
L38.1703 -13.4433
L38.6264 -13.4281
L39.0707 -13.4043
L39.5018 -13.3695
L39.918 -13.3214
L40.3178 -13.2579
L40.7001 -13.1771
L41.0642 -13.0776
L41.4098 -12.9587
L41.7369 -12.8204
L42.0462 -12.6632
L42.3385 -12.4884
L42.615 -12.2976
L42.8769 -12.0926
L43.1258 -11.8754
L43.3627 -11.648
L43.5889 -11.4122
L43.8055 -11.1699
L44.0135 -10.9226
L44.2137 -10.6717
L44.4069 -10.4184
L44.5936 -10.1638
L44.7745 -9.90893
L44.9499 -9.65448
L45.1204 -9.40117
L44.8438 -9.14961
L44.3696 -8.90687
L43.8929 -8.75665
L43.4137 -8.61473
L42.9323 -8.48115
L42.4488 -8.35596
L41.9633 -8.23918
L41.476 -8.13086
L40.9871 -8.03103
L40.4966 -7.93972
L40.0047 -7.85696
L39.5117 -7.78277
L39.0175 -7.71718
L38.5225 -7.6602
L38.0267 -7.61185
L37.5302 -7.57215
L37.0333 -7.54111
L36.5361 -7.51874
L36.0387 -7.50504
L35.5413 -7.50003
L35.044 -7.50369
L34.5471 -7.51604
L34.0505 -7.53706
L33.5546 -7.56675
L33.0594 -7.6051
L32.5651 -7.65211
L32.0719 -7.70775
L31.5798 -7.772
L31.0891 -7.84486
L30.5999 -7.92629
L30.1124 -8.01627
L29.6266 -8.11477
L29.1428 -8.22177
L28.661 -8.33724
L28.1815 -8.46112
L27.7044 -8.5934
L27.2298 -8.73403
L26.7579 -8.88296
L26.2888 -9.04015
L25.8226 -9.20555
L25.3596 -9.37912
L24.8998 -9.56079
L24.4434 -9.75052
L23.9905 -9.94824
L23.5412 -10.1539
L23.0958 -10.3674
L22.6542 -10.5888
L22.2168 -10.8179
L21.7835 -11.0546
L21.3546 -11.299
L20.9301 -11.5508
L20.5103 -11.8101
L20.0951 -12.0768
L19.6848 -12.3508
L19.2794 -12.632
L18.8792 -12.9203
L18.4842 -13.2156
L18.0945 -13.5179
L17.7102 -13.827
L17.3315 -14.1429
L16.9586 -14.4654
L16.5914 -14.7945
L16.2301 -15.13
L15.8748 -15.472
L15.5257 -15.8201
L15.1828 -16.1744
L14.8463 -16.5348
L14.5162 -16.901
L14.1926 -17.2731
L13.8757 -17.6509
L13.5655 -18.0343
L13.2622 -18.4232
L12.9658 -18.8174
L12.6764 -19.2168
L12.3941 -19.6214
L12.119 -20.0309
L11.8512 -20.4453
L11.5907 -20.8645
L11.3376 -21.2883
L11.0921 -21.7165
L10.8542 -22.1491
L10.6239 -22.5859
L10.4014 -23.0268
L10.1866 -23.4717
L9.97972 -23.9203
z
" id="C0_2_7a5047462d"/>
    </defs>
    <g clip-path="url(#p1bffca34e9)">
     <use style="fill:#ffffff;stroke:#000000;stroke-width:2.0;" x="0.0" xlink:href="#C0_0_a811fe30f3" y="72.0"/>
    </g>
    <g clip-path="url(#p1bffca34e9)">
     <use style="fill:#ff0000;stroke:#000000;stroke-width:2.0;" x="0.0" xlink:href="#C0_1_0cda1b72f7" y="72.0"/>
    </g>
    <g clip-path="url(#p1bffca34e9)">
     <use style="fill:#ff0000;stroke:#000000;stroke-width:2.0;" x="0.0" xlink:href="#C0_2_7a5047462d" y="72.0"/>
    </g>
   </g>
  </g>
 </g>
 <defs>
  <clipPath id="p1bffca34e9">
   <rect height="72.0" width="72.0" x="0.0" y="0.0"/>
  </clipPath>
 </defs>
</svg>
