<?xml version="1.0" encoding="utf-8" standalone="no"?>
<!DOCTYPE svg PUBLIC "-//W3C//DTD SVG 1.1//EN"
  "http://www.w3.org/Graphics/SVG/1.1/DTD/svg11.dtd">
<!-- Created with matplotlib (http://matplotlib.org/) -->
<svg height="72pt" version="1.1" viewBox="0 0 72 72" width="72pt" xmlns="http://www.w3.org/2000/svg" xmlns:xlink="http://www.w3.org/1999/xlink">
 <defs>
  <style type="text/css">
*{stroke-linecap:butt;stroke-linejoin:round;}
  </style>
 </defs>
 <g id="figure_1">
  <g id="patch_1">
   <path d="
M0 72
L72 72
L72 0
L0 0
z
" style="fill:none;"/>
  </g>
  <g id="axes_1">
   <g id="PatchCollection_1">
    <defs>
     <path d="
M36 -7.5
C43.5583 -7.5 50.808 -10.5029 56.1525 -15.8475
C61.4971 -21.192 64.5 -28.4417 64.5 -36
C64.5 -43.5583 61.4971 -50.808 56.1525 -56.1525
C50.808 -61.4971 43.5583 -64.5 36 -64.5
C28.4417 -64.5 21.192 -61.4971 15.8475 -56.1525
C10.5029 -50.808 7.5 -43.5583 7.5 -36
C7.5 -28.4417 10.5029 -21.192 15.8475 -15.8475
C21.192 -10.5029 28.4417 -7.5 36 -7.5
z
" id="C0_0_a811fe30f3"/>
     <path d="
M44.7246 -36.9592
L44.7131 -36.7044
L44.7007 -36.4496
L44.6871 -36.1946
L44.6726 -35.9395
L44.6569 -35.6841
L44.6403 -35.4284
L44.6225 -35.1723
L44.6037 -34.9157
L44.5838 -34.6586
L44.5627 -34.4009
L44.5406 -34.1426
L44.5173 -33.8835
L44.4929 -33.6237
L44.4672 -33.363
L44.4404 -33.1014
L44.4124 -32.8388
L44.3831 -32.5752
L44.3526 -32.3104
L44.3208 -32.0445
L44.2876 -31.7773
L44.2531 -31.5088
L44.2172 -31.239
L44.18 -30.9677
L44.1412 -30.6949
L44.101 -30.4205
L44.0592 -30.1445
L44.0159 -29.8668
L43.971 -29.5873
L43.9244 -29.306
L43.8761 -29.0228
L43.8261 -28.7377
L43.7742 -28.4506
L43.7205 -28.1613
L43.6649 -27.87
L43.6074 -27.5765
L43.5478 -27.2808
L43.4861 -26.9827
L43.4222 -26.6824
L43.3561 -26.3796
L43.2878 -26.0744
L43.217 -25.7668
L43.1438 -25.4566
L43.0681 -25.1439
L42.9898 -24.8287
L42.9087 -24.5108
L42.8249 -24.1903
L42.7383 -23.8672
L42.6486 -23.5414
L42.556 -23.213
L42.4601 -22.8819
L42.361 -22.5482
L42.2586 -22.2118
L42.1526 -21.8729
L42.0432 -21.5314
L41.93 -21.1874
L41.813 -20.841
L41.6921 -20.4921
L41.5672 -20.141
L41.4381 -19.7876
L41.3048 -19.4322
L41.167 -19.0747
L41.0248 -18.7154
L40.8778 -18.3544
L40.7262 -17.9919
L40.5696 -17.628
L40.4079 -17.263
L40.2411 -16.897
L40.069 -16.5304
L39.8914 -16.1635
L39.7082 -15.7964
L39.5193 -15.4296
L39.3245 -15.0634
L39.1236 -14.6983
L38.9165 -14.3346
L38.703 -13.9728
L38.4828 -13.6135
L38.2558 -13.2574
L38.0215 -12.9052
L37.7798 -12.5577
L37.53 -12.2159
L37.2717 -11.8812
L37.0041 -11.555
L36.7262 -11.2396
L36.4365 -10.9376
L36.1333 -10.6528
L35.8137 -10.3902
L35.4745 -10.1565
L35.1112 -9.96037
L34.7195 -9.81124
L34.2964 -9.71747
L33.8421 -9.68311
L33.3606 -9.70623
L32.8583 -9.78023
L32.3423 -9.89678
L31.8187 -10.0481
L31.2923 -10.2277
L30.7666 -10.4309
L30.2441 -10.6539
L29.7268 -10.894
L29.2162 -11.149
L28.7133 -11.4172
L28.2189 -11.6971
L27.7337 -11.9876
L27.2581 -12.2876
L26.7926 -12.5962
L26.3374 -12.9126
L25.8927 -13.2361
L25.4588 -13.5658
L25.0358 -13.9012
L24.6236 -14.2417
L24.2223 -14.5867
L23.832 -14.9357
L23.4525 -15.2881
L23.0838 -15.6436
L22.7258 -16.0016
L22.3783 -16.3618
L22.0414 -16.7238
L21.7147 -17.0871
L21.3982 -17.4516
L21.0916 -17.8167
L20.7948 -18.1824
L20.5076 -18.5482
L20.2298 -18.914
L19.9612 -19.2795
L19.7016 -19.6445
L19.4508 -20.0088
L19.2085 -20.3723
L18.9746 -20.7347
L18.7488 -21.096
L18.5309 -21.456
L18.3208 -21.8146
L18.1181 -22.1717
L17.9228 -22.5272
L17.7346 -22.8811
L17.5533 -23.2332
L17.3786 -23.5836
L17.2106 -23.9322
L17.0488 -24.2789
L16.8932 -24.6237
L16.7436 -24.9666
L16.5998 -25.3076
L16.4617 -25.6467
L16.3291 -25.9839
L16.2018 -26.3192
L16.0796 -26.6526
L15.9626 -26.9841
L15.8504 -27.3137
L15.743 -27.6416
L15.6402 -27.9676
L15.542 -28.2919
L15.4482 -28.6144
L15.3586 -28.9352
L15.2732 -29.2544
L15.192 -29.572
L15.1147 -29.8881
L15.0412 -30.2026
L14.9716 -30.5157
L14.9057 -30.8274
L14.8435 -31.1377
L14.7848 -31.4467
L14.7295 -31.7545
L14.6777 -32.0611
L14.6293 -32.3666
L14.5841 -32.671
L14.5422 -32.9744
L14.5035 -33.2768
L14.468 -33.5784
L14.4355 -33.8791
L14.4061 -34.179
L14.3797 -34.4783
L14.3563 -34.7769
L14.3359 -35.0749
L14.3184 -35.3724
L14.3038 -35.6695
L14.2921 -35.9661
L14.2833 -36.2624
L14.2773 -36.5585
L14.2742 -36.8544
L14.274 -37.1501
L14.2766 -37.4457
L14.2821 -37.7413
L14.2904 -38.037
L14.3016 -38.3328
L14.3156 -38.6288
L14.3326 -38.925
L14.3524 -39.2215
L14.3752 -39.5184
L14.401 -39.8157
L14.4297 -40.1135
L14.4614 -40.4118
L14.4962 -40.7108
L14.5341 -41.0104
L14.5751 -41.3108
L14.6193 -41.6119
L14.6668 -41.9139
L14.7175 -42.2168
L14.7716 -42.5207
L14.829 -42.8257
L14.89 -43.1317
L14.9545 -43.4388
L15.0226 -43.7471
L15.0944 -44.0567
L15.17 -44.3676
L15.2495 -44.6799
L15.3329 -44.9935
L15.4205 -45.3086
L15.5122 -45.6251
L15.6081 -45.9432
L15.7085 -46.2629
L15.8134 -46.5842
L15.9229 -46.9071
L16.0371 -47.2317
L16.1563 -47.558
L16.2806 -47.886
L16.41 -48.2158
L16.5447 -48.5473
L16.685 -48.8806
L16.8309 -49.2156
L16.9827 -49.5525
L17.1405 -49.891
L17.3044 -50.2314
L17.4748 -50.5734
L17.6517 -50.9172
L17.8354 -51.2626
L18.0261 -51.6096
L18.2239 -51.9582
L18.4292 -52.3082
L18.6421 -52.6597
L18.8628 -53.0124
L19.0916 -53.3664
L19.3287 -53.7214
L19.5743 -54.0773
L19.8287 -54.4341
L20.0921 -54.7915
L20.3648 -55.1493
L20.6469 -55.5074
L20.9387 -55.8655
L21.2405 -56.2234
L21.5525 -56.5808
L21.8748 -56.9375
L22.2078 -57.293
L22.5516 -57.6472
L22.9064 -57.9996
L23.2724 -58.3499
L23.6498 -58.6976
L24.0387 -59.0423
L24.4393 -59.3837
L24.8516 -59.721
L25.2758 -60.054
L25.7119 -60.3819
L26.1598 -60.7042
L26.6197 -61.0204
L27.0914 -61.3296
L27.5747 -61.6314
L28.0696 -61.9248
L28.5757 -62.2091
L29.0927 -62.4834
L29.6201 -62.7469
L30.1575 -62.9983
L30.704 -63.2366
L31.2587 -63.4604
L31.8202 -63.6679
L32.3871 -63.8572
L32.9569 -64.0258
L33.5266 -64.1702
L34.0922 -64.2861
L34.6479 -64.3678
L35.1865 -64.4085
L35.6999 -64.4011
L36.1804 -64.3399
L36.6233 -64.2237
L37.0285 -64.0566
L37.3997 -63.8463
L37.742 -63.6016
L38.0606 -63.3302
L38.3596 -63.0384
L38.6423 -62.7308
L38.911 -62.4106
L39.1673 -62.0805
L39.4126 -61.7423
L39.6479 -61.3976
L39.8738 -61.0474
L40.091 -60.6928
L40.2998 -60.3345
L40.5008 -59.9733
L40.6943 -59.6097
L40.8805 -59.2444
L41.0598 -58.8777
L41.2324 -58.5101
L41.3984 -58.142
L41.5582 -57.7737
L41.7119 -57.4056
L41.8598 -57.038
L42.0019 -56.6711
L42.1386 -56.3051
L42.2699 -55.9404
L42.3961 -55.577
L42.5173 -55.2152
L42.6336 -54.8552
L42.7453 -54.497
L42.8525 -54.1409
L42.9553 -53.787
L43.0539 -53.4352
L43.1485 -53.0859
L43.2391 -52.7389
L43.3259 -52.3944
L43.409 -52.0525
L43.4886 -51.7131
L43.5648 -51.3764
L43.6377 -51.0423
L43.7074 -50.7109
L43.774 -50.3821
L43.8377 -50.056
L43.8985 -49.7326
L43.9565 -49.4118
L44.0118 -49.0937
L44.0646 -48.7781
L44.1149 -48.4652
L44.1628 -48.1548
L44.2084 -47.847
L44.2517 -47.5416
L44.2929 -47.2386
L44.3319 -46.9381
L44.369 -46.6399
L44.404 -46.344
L44.4372 -46.0503
L44.4685 -45.7588
L44.4981 -45.4695
L44.5259 -45.1822
L44.552 -44.897
L44.5766 -44.6137
L44.5995 -44.3323
L44.6209 -44.0527
L44.6408 -43.7749
L44.6592 -43.4988
L44.6762 -43.2243
L44.6919 -42.9514
L44.7062 -42.6801
L44.7191 -42.4101
L44.7308 -42.1416
L44.7413 -41.8744
L44.7504 -41.6084
L44.7584 -41.3436
L44.7652 -41.0799
L44.7708 -40.8173
L44.7753 -40.5556
L44.7786 -40.2949
L44.7809 -40.035
L44.782 -39.7759
L44.782 -39.5176
L44.781 -39.2599
L44.7789 -39.0027
L44.7758 -38.7461
L44.7716 -38.49
L44.7663 -38.2343
L44.76 -37.9789
L44.7527 -37.7237
L44.7444 -37.4687
z
" id="C0_1_92ab6d9390"/>
    </defs>
    <g clip-path="url(#p1bffca34e9)">
     <use style="fill:#ffffff;stroke:#000000;stroke-width:2.0;" x="0.0" xlink:href="#C0_0_a811fe30f3" y="72.0"/>
    </g>
    <g clip-path="url(#p1bffca34e9)">
     <use style="fill:#ff0000;stroke:#000000;stroke-width:2.0;" x="0.0" xlink:href="#C0_1_92ab6d9390" y="72.0"/>
    </g>
   </g>
  </g>
 </g>
 <defs>
  <clipPath id="p1bffca34e9">
   <rect height="72.0" width="72.0" x="0.0" y="0.0"/>
  </clipPath>
 </defs>
</svg>
