<?xml version="1.0" encoding="utf-8" standalone="no"?>
<!DOCTYPE svg PUBLIC "-//W3C//DTD SVG 1.1//EN"
  "http://www.w3.org/Graphics/SVG/1.1/DTD/svg11.dtd">
<!-- Created with matplotlib (http://matplotlib.org/) -->
<svg height="72pt" version="1.1" viewBox="0 0 72 72" width="72pt" xmlns="http://www.w3.org/2000/svg" xmlns:xlink="http://www.w3.org/1999/xlink">
 <defs>
  <style type="text/css">
*{stroke-linecap:butt;stroke-linejoin:round;}
  </style>
 </defs>
 <g id="figure_1">
  <g id="patch_1">
   <path d="
M0 72
L72 72
L72 0
L0 0
z
" style="fill:none;"/>
  </g>
  <g id="axes_1">
   <g id="PatchCollection_1">
    <defs>
     <path d="
M36 -7.5
C43.5583 -7.5 50.808 -10.5029 56.1525 -15.8475
C61.4971 -21.192 64.5 -28.4417 64.5 -36
C64.5 -43.5583 61.4971 -50.808 56.1525 -56.1525
C50.808 -61.4971 43.5583 -64.5 36 -64.5
C28.4417 -64.5 21.192 -61.4971 15.8475 -56.1525
C10.5029 -50.808 7.5 -43.5583 7.5 -36
C7.5 -28.4417 10.5029 -21.192 15.8475 -15.8475
C21.192 -10.5029 28.4417 -7.5 36 -7.5
z
" id="C0_0_a811fe30f3"/>
     <path d="
M58.1406 -18.141
L58.0942 -18.4224
L58.0321 -18.6941
L57.9549 -18.956
L57.8631 -19.2081
L57.7571 -19.4506
L57.6378 -19.6838
L57.5055 -19.9077
L57.361 -20.1228
L57.205 -20.3294
L57.038 -20.5277
L56.8607 -20.7183
L56.6738 -20.9014
L56.4779 -21.0775
L56.2736 -21.2471
L56.0615 -21.4104
L55.8421 -21.5679
L55.6161 -21.72
L55.384 -21.867
L55.1462 -22.0093
L54.9033 -22.1473
L54.6558 -22.2813
L54.404 -22.4115
L54.1484 -22.5384
L53.8894 -22.662
L53.6273 -22.7827
L53.3625 -22.9008
L53.0953 -23.0163
L52.8261 -23.1296
L52.555 -23.2408
L52.2824 -23.3501
L52.0085 -23.4576
L51.7335 -23.5635
L51.4576 -23.6678
L51.1811 -23.7708
L50.9041 -23.8726
L50.6268 -23.9731
L50.3493 -24.0726
L50.0718 -24.171
L49.7943 -24.2686
L49.5171 -24.3653
L49.2402 -24.4612
L48.9637 -24.5564
L48.6877 -24.6509
L48.4122 -24.7447
L48.1374 -24.838
L47.8633 -24.9308
L47.5899 -25.023
L47.3173 -25.1148
L47.0456 -25.2062
L46.7747 -25.2971
L46.5048 -25.3877
L46.2357 -25.4779
L45.9676 -25.5679
L45.7005 -25.6575
L45.4343 -25.7468
L45.169 -25.8359
L44.9048 -25.9248
L44.6415 -26.0134
L44.3791 -26.1019
L44.1177 -26.1902
L43.8573 -26.2783
L43.5977 -26.3663
L43.3391 -26.4542
L43.0814 -26.5419
L42.8246 -26.6296
L42.5686 -26.7172
L42.3134 -26.8047
L42.059 -26.8922
L41.8054 -26.9797
L41.5526 -27.0671
L41.3005 -27.1546
L41.049 -27.242
L40.7982 -27.3295
L40.5481 -27.4171
L40.2985 -27.5047
L40.0495 -27.5924
L39.801 -27.6801
L39.5529 -27.768
L39.3053 -27.856
L39.0582 -27.9441
L38.8114 -28.0324
L38.5649 -28.1208
L38.3187 -28.2095
L38.0728 -28.2983
L37.8271 -28.3873
L37.5815 -28.4765
L37.3361 -28.566
L37.0908 -28.6557
L36.6003 -28.7457
L36.3551 -28.836
L36.1097 -28.9266
L35.8643 -29.0175
L35.6187 -29.1087
L35.3729 -29.2002
L35.1269 -29.2922
L34.8806 -29.3845
L34.634 -29.4771
L34.387 -29.5702
L34.1397 -29.6637
L33.8919 -29.7577
L33.6436 -29.852
L33.3948 -29.9469
L33.1454 -30.0422
L32.8955 -30.138
L32.6449 -30.2343
L32.3937 -30.3311
L32.1417 -30.4285
L31.889 -30.5263
L31.6354 -30.6248
L31.3811 -30.7238
L31.1259 -30.8234
L30.8698 -30.9235
L30.6128 -31.0243
L30.3548 -31.1256
L30.0958 -31.2276
L29.8357 -31.3301
L29.5746 -31.4333
L29.3124 -31.5371
L29.0491 -31.6416
L28.7847 -31.7466
L28.519 -31.8523
L28.2522 -31.9586
L27.9841 -32.0655
L27.7148 -32.1731
L27.4443 -32.2812
L27.1725 -32.3899
L26.8993 -32.4992
L26.6249 -32.6091
L26.3492 -32.7195
L26.0721 -32.8304
L25.7937 -32.9417
L25.514 -33.0536
L25.233 -33.1658
L24.9507 -33.2784
L24.667 -33.3913
L24.3821 -33.5045
L24.0958 -33.6179
L23.8084 -33.7314
L23.5197 -33.845
L23.2298 -33.9585
L22.9387 -34.0719
L22.6465 -34.1851
L22.3532 -34.298
L22.0588 -34.4103
L21.7635 -34.5221
L21.4673 -34.6332
L21.1702 -34.7433
L20.8723 -34.8523
L20.5738 -34.9601
L20.2746 -35.0663
L19.9748 -35.1709
L19.6747 -35.2734
L19.3742 -35.3738
L19.0734 -35.4716
L18.7726 -35.5666
L18.4718 -35.6585
L18.1711 -35.7468
L17.8707 -35.8313
L17.5707 -35.9114
L17.2713 -35.9869
L16.9727 -36.0572
L16.6749 -36.1218
L16.3783 -36.1803
L16.0829 -36.232
L15.7889 -36.2766
L15.4966 -36.3133
L15.2062 -36.3417
L14.9178 -36.3611
L14.6317 -36.3709
L14.3481 -36.3705
L14.0674 -36.3593
L13.7896 -36.3366
L13.5151 -36.302
L13.2442 -36.2549
L12.9772 -36.1946
L12.7142 -36.1208
L12.4557 -36.0331
L12.2019 -35.9309
L11.9531 -35.8141
L11.7097 -35.6823
L11.4719 -35.5355
L11.2401 -35.3734
L11.0146 -35.1962
L10.7956 -35.0037
L10.5836 -34.7963
L10.3788 -34.574
L10.1814 -34.3373
L9.9918 -34.0863
L9.81023 -33.8215
L9.63695 -33.5434
L9.47218 -33.2524
L9.31616 -32.949
L9.16908 -32.634
L9.03113 -32.3077
L8.90247 -31.9708
L8.78326 -31.624
L8.67363 -31.2677
L8.57368 -30.9028
L8.48352 -30.5296
L8.40321 -30.149
L8.33283 -29.7614
L8.40542 -29.3674
L8.534 -28.8733
L8.67095 -28.3928
L8.81622 -27.9146
L8.96977 -27.4389
L9.13156 -26.9658
L9.30153 -26.4954
L9.47963 -26.028
L9.66581 -25.5635
L9.86001 -25.1023
L10.0622 -24.6443
L10.2722 -24.1899
L10.4901 -23.739
L10.7158 -23.2918
L10.9492 -22.8486
L11.1902 -22.4093
L11.4388 -21.9742
L11.6948 -21.5433
L11.9583 -21.1169
L12.229 -20.695
L12.507 -20.2777
L12.7922 -19.8652
L13.0844 -19.4577
L13.3837 -19.0552
L13.6898 -18.6578
L14.0027 -18.2657
L14.3223 -17.8791
L14.6485 -17.4979
L14.9812 -17.1224
L15.3203 -16.7527
L15.6657 -16.3888
L16.0173 -16.0308
L16.375 -15.679
L16.7387 -15.3334
L17.1082 -14.994
L17.4835 -14.661
L17.8645 -14.3346
L18.2509 -14.0147
L18.6428 -13.7016
L19.0399 -13.3952
L19.4423 -13.0957
L19.8496 -12.8032
L20.2619 -12.5178
L20.679 -12.2395
L21.1007 -11.9684
L21.527 -11.7047
L21.9577 -11.4484
L22.3927 -11.1995
L22.8318 -10.9582
L23.2749 -10.7246
L23.7219 -10.4986
L24.1726 -10.2804
L24.627 -10.07
L25.0848 -9.86757
L25.5459 -9.67306
L26.0102 -9.48657
L26.4776 -9.30816
L26.9478 -9.13788
L27.4209 -8.97578
L27.8965 -8.82192
L28.3746 -8.67633
L28.855 -8.53906
L29.3376 -8.41017
L29.8222 -8.28967
L30.3087 -8.17762
L30.797 -8.07404
L31.2868 -7.97896
L31.7781 -7.89243
L32.2706 -7.81445
L32.7643 -7.74506
L33.259 -7.68428
L33.7545 -7.63212
L34.2507 -7.5886
L34.7474 -7.55374
L35.2445 -7.52754
L35.7418 -7.51002
L36.2392 -7.50117
L36.7366 -7.501
L37.2337 -7.50952
L37.7304 -7.52671
L38.2266 -7.55258
L38.7222 -7.58711
L39.2169 -7.6303
L39.7106 -7.68213
L40.2032 -7.74259
L40.6945 -7.81165
L41.1844 -7.8893
L41.6727 -7.97551
L42.1593 -8.07026
L42.644 -8.17352
L43.1267 -8.28525
L43.6072 -8.40542
L44.0854 -8.534
L44.5611 -8.67095
L45.0342 -8.81622
L45.5046 -8.96977
L45.972 -9.13156
L46.4365 -9.30153
L46.8977 -9.47963
L47.3557 -9.66581
L47.8101 -9.86001
L48.261 -10.0622
L48.7082 -10.2722
L49.1514 -10.4901
L49.5907 -10.7158
L50.0258 -10.9492
L50.4567 -11.1902
L50.8831 -11.4388
L51.305 -11.6948
L51.7223 -11.9583
L52.1348 -12.229
L52.5423 -12.507
L52.9448 -12.7922
L53.3422 -13.0844
L53.7343 -13.3837
L54.1209 -13.6898
L54.5021 -14.0027
L54.8776 -14.3223
L55.2473 -14.6485
L55.6112 -14.9812
L55.9692 -15.3203
L56.321 -15.6657
L56.6666 -16.0173
L57.006 -16.375
L57.339 -16.7387
L57.6654 -17.1082
z
" id="C0_1_9f4867d275"/>
     <path d="
M63.5227 -42.9804
L63.2804 -43.304
L63.0352 -43.626
L62.7873 -43.9458
L62.5368 -44.2633
L62.2837 -44.578
L62.0283 -44.8896
L61.7705 -45.1981
L61.5105 -45.503
L61.2484 -45.8043
L60.9843 -46.1018
L60.7183 -46.3952
L60.4506 -46.6846
L60.1812 -46.9697
L59.9103 -47.2506
L59.6379 -47.527
L59.3642 -47.7991
L59.0892 -48.0666
L58.8131 -48.3297
L58.5359 -48.5882
L58.2578 -48.8422
L57.9788 -49.0917
L57.699 -49.3366
L57.4184 -49.5771
L57.1372 -49.813
L56.8554 -50.0445
L56.573 -50.2716
L56.2902 -50.4943
L56.0069 -50.7126
L55.7233 -50.9267
L55.4393 -51.1365
L55.155 -51.3421
L54.8705 -51.5436
L54.5857 -51.741
L54.3007 -51.9343
L54.0155 -52.1237
L53.7301 -52.3092
L53.4446 -52.4908
L53.159 -52.6687
L52.8733 -52.8428
L52.5874 -53.0132
L52.3014 -53.18
L52.0153 -53.3433
L51.7291 -53.503
L51.4427 -53.6593
L51.1563 -53.8122
L50.8697 -53.9618
L50.5829 -54.1081
L50.296 -54.2511
L50.0089 -54.391
L49.7217 -54.5277
L49.4342 -54.6613
L49.1464 -54.7919
L48.8585 -54.9196
L48.5702 -55.0442
L48.2816 -55.1659
L47.9927 -55.2848
L47.7035 -55.4008
L47.4138 -55.514
L47.1238 -55.6245
L46.8332 -55.7322
L46.5422 -55.8372
L46.2507 -55.9396
L45.9586 -56.0392
L45.6659 -56.1363
L45.3725 -56.2307
L45.0786 -56.3226
L44.7839 -56.4119
L44.4884 -56.4987
L44.1922 -56.5829
L43.8951 -56.6646
L43.5972 -56.7438
L43.2984 -56.8205
L42.9986 -56.8947
L42.6978 -56.9664
L42.396 -57.0357
L42.0931 -57.1024
L41.7891 -57.1667
L41.4839 -57.2285
L41.1775 -57.2878
L40.8699 -57.3446
L40.5609 -57.3989
L40.2507 -57.4507
L39.939 -57.5
L39.6259 -57.5467
L39.3114 -57.5909
L38.9954 -57.6325
L38.6778 -57.6715
L38.3586 -57.7079
L38.0378 -57.7416
L37.7154 -57.7727
L37.3912 -57.8011
L37.0653 -57.8268
L36.7376 -57.8497
L36.4082 -57.8699
L36.0768 -57.8872
L35.7437 -57.9017
L35.4086 -57.9132
L35.0716 -57.9219
L34.7326 -57.9276
L34.3917 -57.9302
L34.0488 -57.9298
L33.7039 -57.9264
L33.357 -57.9198
L33.0081 -57.91
L32.6571 -57.8969
L32.3041 -57.8806
L31.9491 -57.861
L31.5921 -57.8381
L31.233 -57.8117
L30.872 -57.7819
L30.509 -57.7487
L30.1441 -57.7119
L29.7772 -57.6716
L29.4085 -57.6277
L29.038 -57.5802
L28.6657 -57.5291
L28.2917 -57.4743
L27.9161 -57.4159
L27.539 -57.3538
L27.1604 -57.2881
L26.7804 -57.2188
L26.3992 -57.1459
L26.0168 -57.0693
L25.6334 -56.9893
L25.2491 -56.9058
L24.864 -56.8189
L24.4784 -56.7287
L24.0924 -56.6353
L23.7061 -56.5389
L23.3197 -56.4396
L22.9335 -56.3375
L22.5476 -56.2329
L22.1623 -56.1259
L21.7778 -56.017
L21.3943 -55.9062
L21.0121 -55.7939
L20.6315 -55.6805
L20.2526 -55.5663
L19.8758 -55.4517
L19.5014 -55.3372
L19.1296 -55.2232
L18.7607 -55.1102
L18.3951 -54.9988
L18.033 -54.8894
L17.6747 -54.7827
L17.3205 -54.6792
L16.9707 -54.5796
L16.6257 -54.4845
L16.2856 -54.3944
L15.9507 -54.3101
L15.6214 -54.2321
L15.2979 -54.161
L14.9803 -54.0973
L14.669 -54.0417
L14.3642 -53.9945
L14.2657 -53.9563
L14.5908 -54.4356
L14.9224 -54.8121
L15.2604 -55.1829
L15.6047 -55.5478
L15.9552 -55.9068
L16.3119 -56.2597
L16.6745 -56.6065
L17.043 -56.9469
L17.4173 -57.281
L17.7973 -57.6086
L18.1828 -57.9297
L18.5737 -58.244
L18.9699 -58.5516
L19.3713 -58.8523
L19.7778 -59.146
L20.1892 -59.4327
L20.6055 -59.7122
L21.0264 -59.9846
L21.4519 -60.2496
L21.8818 -60.5072
L22.3161 -60.7574
L22.7545 -61
L23.1969 -61.235
L23.6432 -61.4623
L24.0933 -61.6819
L24.547 -61.8936
L25.0042 -62.0975
L25.4648 -62.2934
L25.9286 -62.4813
L26.3954 -62.6611
L26.8652 -62.8328
L27.3377 -62.9964
L27.8129 -63.1517
L28.2906 -63.2987
L28.7706 -63.4375
L29.2528 -63.5678
L29.7371 -63.6898
L30.2233 -63.8033
L30.7112 -63.9084
L31.2008 -64.005
L31.6918 -64.093
L32.1841 -64.1725
L32.6776 -64.2434
L33.1722 -64.3057
L33.6675 -64.3594
L34.1636 -64.4044
L34.6602 -64.4408
L35.1573 -64.4685
L35.6546 -64.4875
L36.152 -64.4979
L36.6494 -64.4996
L37.1465 -64.4926
L37.6433 -64.4769
L38.1397 -64.4526
L38.6353 -64.4196
L39.1302 -64.3779
L39.6241 -64.3276
L40.1169 -64.2686
L40.6084 -64.2011
L41.0986 -64.1249
L41.5872 -64.0402
L42.0741 -63.947
L42.5591 -63.8452
L43.0422 -63.735
L43.5231 -63.6163
L44.0017 -63.4892
L44.4778 -63.3537
L44.9514 -63.2099
L45.4223 -63.0578
L45.8903 -62.8974
L46.3552 -62.7289
L46.8171 -62.5522
L47.2756 -62.3674
L47.7307 -62.1746
L48.1822 -61.9739
L48.63 -61.7652
L49.074 -61.5486
L49.514 -61.3243
L49.9498 -61.0923
L50.3814 -60.8526
L50.8087 -60.6054
L51.2314 -60.3506
L51.6495 -60.0885
L52.0628 -59.819
L52.4712 -59.5422
L52.8746 -59.2583
L53.2729 -58.9673
L53.6659 -58.6693
L54.0535 -58.3644
L54.4356 -58.0527
L54.8121 -57.7343
L55.1829 -57.4092
L55.5478 -57.0776
L55.9068 -56.7396
L56.2597 -56.3953
L56.6065 -56.0448
L56.9469 -55.6881
L57.281 -55.3255
L57.6086 -54.957
L57.9297 -54.5827
L58.244 -54.2027
L58.5516 -53.8172
L58.8523 -53.4263
L59.146 -53.0301
L59.4327 -52.6287
L59.7122 -52.2222
L59.9846 -51.8108
L60.2496 -51.3945
L60.5072 -50.9736
L60.7574 -50.5481
L61 -50.1182
L61.235 -49.6839
L61.4623 -49.2455
L61.6819 -48.8031
L61.8936 -48.3568
L62.0975 -47.9067
L62.2934 -47.453
L62.4813 -46.9958
L62.6611 -46.5352
L62.8328 -46.0714
L62.9964 -45.6046
L63.1517 -45.1348
L63.2987 -44.6623
L63.4375 -44.1871
z
" id="C0_2_25a973b215"/>
    </defs>
    <g clip-path="url(#p1bffca34e9)">
     <use style="fill:#ff0000;stroke:#000000;stroke-width:2.0;" x="0.0" xlink:href="#C0_0_a811fe30f3" y="72.0"/>
    </g>
    <g clip-path="url(#p1bffca34e9)">
     <use style="fill:#ffffff;stroke:#000000;stroke-width:2.0;" x="0.0" xlink:href="#C0_1_9f4867d275" y="72.0"/>
    </g>
    <g clip-path="url(#p1bffca34e9)">
     <use style="fill:#ffffff;stroke:#000000;stroke-width:2.0;" x="0.0" xlink:href="#C0_2_25a973b215" y="72.0"/>
    </g>
   </g>
  </g>
 </g>
 <defs>
  <clipPath id="p1bffca34e9">
   <rect height="72.0" width="72.0" x="0.0" y="0.0"/>
  </clipPath>
 </defs>
</svg>
