<?xml version="1.0" encoding="utf-8" standalone="no"?>
<!DOCTYPE svg PUBLIC "-//W3C//DTD SVG 1.1//EN"
  "http://www.w3.org/Graphics/SVG/1.1/DTD/svg11.dtd">
<!-- Created with matplotlib (http://matplotlib.org/) -->
<svg height="72pt" version="1.1" viewBox="0 0 72 72" width="72pt" xmlns="http://www.w3.org/2000/svg" xmlns:xlink="http://www.w3.org/1999/xlink">
 <defs>
  <style type="text/css">
*{stroke-linecap:butt;stroke-linejoin:round;}
  </style>
 </defs>
 <g id="figure_1">
  <g id="patch_1">
   <path d="
M0 72
L72 72
L72 0
L0 0
z
" style="fill:none;"/>
  </g>
  <g id="axes_1">
   <g id="PatchCollection_1">
    <defs>
     <path d="
M36 -7.5
C43.5583 -7.5 50.808 -10.5029 56.1525 -15.8475
C61.4971 -21.192 64.5 -28.4417 64.5 -36
C64.5 -43.5583 61.4971 -50.808 56.1525 -56.1525
C50.808 -61.4971 43.5583 -64.5 36 -64.5
C28.4417 -64.5 21.192 -61.4971 15.8475 -56.1525
C10.5029 -50.808 7.5 -43.5583 7.5 -36
C7.5 -28.4417 10.5029 -21.192 15.8475 -15.8475
C21.192 -10.5029 28.4417 -7.5 36 -7.5
z
" id="C0_0_a811fe30f3"/>
     <path d="
M27.4956 -63.1521
L27.9671 -63.1883
L28.437 -63.2009
L28.9041 -63.191
L29.3676 -63.16
L29.8264 -63.1093
L30.2801 -63.0401
L30.7279 -62.9539
L31.1693 -62.8519
L31.6041 -62.7352
L32.0318 -62.6051
L32.4522 -62.4625
L32.865 -62.3085
L33.2702 -62.144
L33.6676 -61.9698
L34.0572 -61.7867
L34.4388 -61.5955
L34.8125 -61.3968
L35.1784 -61.1912
L35.5363 -60.9794
L35.8864 -60.762
L36.2288 -60.5394
L36.5635 -60.312
L36.8906 -60.0804
L37.2102 -59.845
L37.5225 -59.6062
L37.8275 -59.3642
L38.1253 -59.1195
L38.4162 -58.8723
L38.7003 -58.6229
L38.9776 -58.3717
L39.2483 -58.1188
L39.5127 -57.8644
L39.7707 -57.6089
L40.0226 -57.3523
L40.2685 -57.0948
L40.5085 -56.8367
L40.7429 -56.578
L40.9716 -56.319
L41.195 -56.0596
L41.4131 -55.8001
L41.626 -55.5404
L41.834 -55.2808
L42.0371 -55.0213
L42.2354 -54.762
L42.4291 -54.5029
L42.6184 -54.2441
L42.8033 -53.9856
L42.984 -53.7274
L43.1605 -53.4697
L43.3331 -53.2124
L43.5018 -52.9556
L43.6666 -52.6992
L43.8278 -52.4433
L43.9855 -52.1879
L44.1396 -51.933
L44.2904 -51.6786
L44.4379 -51.4246
L44.5822 -51.1712
L44.7234 -50.9182
L44.8616 -50.6656
L44.9968 -50.4135
L45.1292 -50.1618
L45.2588 -49.9105
L45.3857 -49.6595
L45.5099 -49.4089
L45.6316 -49.1586
L45.7507 -48.9086
L45.8674 -48.6588
L45.9818 -48.4092
L46.0938 -48.1598
L46.2035 -47.9105
L46.311 -47.6613
L46.4164 -47.4122
L46.5196 -47.1631
L46.6207 -46.9139
L46.7199 -46.6647
L46.817 -46.4154
L46.9122 -46.1659
L47.0055 -45.9161
L47.0969 -45.6661
L47.1864 -45.4158
L47.2742 -45.1652
L47.3601 -44.9141
L47.4444 -44.6626
L47.6076 -44.4105
L47.6868 -44.1579
L47.7642 -43.9047
L47.84 -43.6508
L47.9142 -43.3961
L47.9867 -43.1407
L48.0577 -42.8844
L48.127 -42.6272
L48.1948 -42.3691
L48.261 -42.1099
L48.3256 -41.8497
L48.3887 -41.5883
L48.4501 -41.3257
L48.51 -41.0619
L48.5683 -40.7967
L48.625 -40.5302
L48.6801 -40.2622
L48.7336 -39.9927
L48.7855 -39.7217
L48.8358 -39.449
L48.8844 -39.1746
L48.9313 -38.8984
L48.9765 -38.6204
L49.02 -38.3405
L49.0617 -38.0587
L49.1016 -37.7748
L49.1398 -37.4888
L49.176 -37.2007
L49.2104 -36.9104
L49.2428 -36.6178
L49.2732 -36.3228
L49.3016 -36.0255
L49.3279 -35.7256
L49.3521 -35.4233
L49.374 -35.1183
L49.3937 -34.8107
L49.411 -34.5004
L49.426 -34.1873
L49.4384 -33.8715
L49.4483 -33.5527
L49.4555 -33.2311
L49.4599 -32.9065
L49.4615 -32.5788
L49.4602 -32.2482
L49.4559 -31.9145
L49.4484 -31.5777
L49.4376 -31.2378
L49.4235 -30.8947
L49.4058 -30.5485
L49.3845 -30.1992
L49.3595 -29.8467
L49.3305 -29.491
L49.2974 -29.1323
L49.2602 -28.7705
L49.2186 -28.4056
L49.1724 -28.0378
L49.1215 -27.6671
L49.0658 -27.2935
L49.0049 -26.9172
L48.9389 -26.5382
L48.8673 -26.1568
L48.7901 -25.7731
L48.707 -25.3871
L48.6178 -24.9992
L48.5223 -24.6096
L48.4203 -24.2184
L48.3114 -23.826
L48.1955 -23.4327
L48.0724 -23.0388
L47.9416 -22.6446
L47.803 -22.2507
L47.6562 -21.8575
L47.501 -21.4655
L47.3371 -21.0753
L47.164 -20.6874
L46.9815 -20.3027
L46.7892 -19.9219
L46.5867 -19.5458
L46.3736 -19.1754
L46.1495 -18.8117
L45.9139 -18.456
L45.6665 -18.1093
L45.4068 -17.7732
L45.1343 -17.449
L44.8486 -17.1384
L44.5495 -16.843
L44.2368 -16.5644
L43.9102 -16.3042
L43.5699 -16.0642
L43.216 -15.8457
L42.8491 -15.6499
L42.4699 -15.4777
L42.0791 -15.3298
L41.678 -15.2064
L41.2676 -15.1073
L40.8493 -15.0321
L40.4243 -14.98
L39.9942 -14.95
L39.56 -14.9411
L39.1231 -14.952
L38.6845 -14.9816
L38.2454 -15.0285
L37.8067 -15.0916
L37.3691 -15.1698
L36.9336 -15.2619
L36.5007 -15.367
L36.071 -15.4841
L35.6451 -15.6124
L35.2234 -15.7509
L34.8064 -15.899
L34.3943 -16.0559
L33.9874 -16.221
L33.5861 -16.3937
L33.1904 -16.5733
L32.8007 -16.7594
L32.4169 -16.9515
L32.0393 -17.149
L31.668 -17.3516
L31.3029 -17.5588
L30.9441 -17.7704
L30.5917 -17.9858
L30.2457 -18.2048
L29.9059 -18.427
L29.5725 -18.6522
L29.2454 -18.8801
L28.9246 -19.1105
L28.6099 -19.343
L28.3013 -19.5776
L27.9987 -19.8139
L27.7021 -20.0518
L27.4114 -20.2911
L27.1265 -20.5316
L26.8473 -20.7733
L26.5736 -21.0159
L26.3055 -21.2594
L26.0427 -21.5035
L25.7852 -21.7483
L25.5329 -21.9936
L25.2857 -22.2393
L25.0435 -22.4854
L24.8061 -22.7317
L24.5735 -22.9783
L24.3455 -23.225
L24.1221 -23.4718
L23.9031 -23.7187
L23.6885 -23.9656
L23.4781 -24.2125
L23.2719 -24.4594
L23.0697 -24.7063
L22.8715 -24.9531
L22.6772 -25.1998
L22.4866 -25.4464
L22.2997 -25.693
L22.1165 -25.9395
L21.9367 -26.1859
L21.7604 -26.4322
L21.5874 -26.6785
L21.4177 -26.9247
L21.2513 -27.1709
L21.0879 -27.4171
L20.9276 -27.6633
L20.7704 -27.9096
L20.616 -28.1559
L20.4645 -28.4022
L20.3159 -28.6488
L20.17 -28.8954
L20.0268 -29.1422
L19.8862 -29.3893
L19.7482 -29.6366
L19.6128 -29.8842
L19.4799 -30.1322
L19.3495 -30.3805
L19.2214 -30.6292
L19.0958 -30.8784
L18.9725 -31.1281
L18.8515 -31.3783
L18.7328 -31.6292
L18.6163 -31.8807
L18.5021 -32.1328
L18.39 -32.3858
L18.2802 -32.6395
L18.1725 -32.8941
L18.0669 -33.1496
L17.9635 -33.406
L17.8622 -33.6635
L17.763 -33.922
L17.6659 -34.1817
L17.571 -34.4426
L17.4781 -34.7047
L17.3873 -34.9681
L17.2986 -35.2328
L17.212 -35.4991
L17.1276 -35.7668
L17.0452 -36.036
L16.9651 -36.3069
L16.8871 -36.5795
L16.8113 -36.8538
L16.7377 -37.1299
L16.6663 -37.4079
L16.5973 -37.6879
L16.5305 -37.9699
L16.4661 -38.254
L16.4042 -38.5403
L16.3446 -38.8287
L16.2876 -39.1195
L16.2331 -39.4126
L16.1813 -39.7082
L16.1321 -40.0063
L16.0857 -40.307
L16.0421 -40.6103
L16.0014 -40.9163
L15.9638 -41.2251
L15.9292 -41.5368
L15.8978 -41.8514
L15.8697 -42.1689
L15.845 -42.4895
L15.8238 -42.8133
L15.8062 -43.1401
L15.7925 -43.4703
L15.7826 -43.8037
L15.7767 -44.1404
L15.7751 -44.4805
L15.7778 -44.824
L15.785 -45.171
L15.7969 -45.5215
L15.8137 -45.8756
L15.8356 -46.2332
L15.8627 -46.5943
L15.8953 -46.9591
L15.9336 -47.3274
L15.9778 -47.6993
L16.0281 -48.0747
L16.0849 -48.4537
L16.1482 -48.8361
L16.2185 -49.222
L16.2959 -49.6113
L16.3808 -50.0038
L16.4734 -50.3995
L16.574 -50.7983
L16.6829 -51.1999
L16.8004 -51.6044
L16.9269 -52.0114
L17.0627 -52.4208
L17.208 -52.8323
L17.3632 -53.2456
L17.5286 -53.6606
L17.7046 -54.0768
L17.8914 -54.4938
L18.0895 -54.9113
L18.299 -55.3288
L18.5204 -55.7458
L18.7539 -56.1617
L18.9998 -56.576
L19.2584 -56.988
L19.5299 -57.3969
L19.8145 -57.8019
L20.1124 -58.2021
L20.4238 -58.5966
L20.7487 -58.9842
L21.0872 -59.3638
L21.4392 -59.7342
L21.8046 -60.0939
L22.1833 -60.4415
L22.5748 -60.7754
L22.9963 -61.0939
L23.4408 -61.3605
L23.8892 -61.5835
L24.3413 -61.7988
L24.797 -62.0063
L25.256 -62.2058
L25.7184 -62.3973
L26.1838 -62.5808
L26.6523 -62.7562
z
" id="C0_1_fd5c3dba30"/>
     <path d="
M48.9857 -10.6742
L48.5129 -10.5112
L48.0455 -10.3444
L47.5842 -10.1724
L47.1294 -9.99409
L46.6811 -9.8085
L46.2396 -9.61492
L45.8044 -9.41295
L45.3753 -9.20256
L45.4348 -8.98401
L45.9028 -9.10699
L46.3676 -9.27575
L46.8294 -9.45265
L47.2878 -9.63763
L47.7428 -9.83065
L48.1942 -10.0316
z
" id="C0_2_bed0038924"/>
    </defs>
    <g clip-path="url(#p1bffca34e9)">
     <use style="fill:#ff0000;stroke:#000000;stroke-width:2.0;" x="0.0" xlink:href="#C0_0_a811fe30f3" y="72.0"/>
    </g>
    <g clip-path="url(#p1bffca34e9)">
     <use style="fill:#ffffff;stroke:#000000;stroke-width:2.0;" x="0.0" xlink:href="#C0_1_fd5c3dba30" y="72.0"/>
    </g>
    <g clip-path="url(#p1bffca34e9)">
     <use style="fill:#ffffff;stroke:#000000;stroke-width:2.0;" x="0.0" xlink:href="#C0_2_bed0038924" y="72.0"/>
    </g>
   </g>
  </g>
 </g>
 <defs>
  <clipPath id="p1bffca34e9">
   <rect height="72.0" width="72.0" x="0.0" y="0.0"/>
  </clipPath>
 </defs>
</svg>
