<?xml version="1.0" encoding="utf-8" standalone="no"?>
<!DOCTYPE svg PUBLIC "-//W3C//DTD SVG 1.1//EN"
  "http://www.w3.org/Graphics/SVG/1.1/DTD/svg11.dtd">
<!-- Created with matplotlib (http://matplotlib.org/) -->
<svg height="72pt" version="1.1" viewBox="0 0 72 72" width="72pt" xmlns="http://www.w3.org/2000/svg" xmlns:xlink="http://www.w3.org/1999/xlink">
 <defs>
  <style type="text/css">
*{stroke-linecap:butt;stroke-linejoin:round;}
  </style>
 </defs>
 <g id="figure_1">
  <g id="patch_1">
   <path d="
M0 72
L72 72
L72 0
L0 0
z
" style="fill:none;"/>
  </g>
  <g id="axes_1">
   <g id="PatchCollection_1">
    <defs>
     <path d="
M36 -7.5
C43.5583 -7.5 50.808 -10.5029 56.1525 -15.8475
C61.4971 -21.192 64.5 -28.4417 64.5 -36
C64.5 -43.5583 61.4971 -50.808 56.1525 -56.1525
C50.808 -61.4971 43.5583 -64.5 36 -64.5
C28.4417 -64.5 21.192 -61.4971 15.8475 -56.1525
C10.5029 -50.808 7.5 -43.5583 7.5 -36
C7.5 -28.4417 10.5029 -21.192 15.8475 -15.8475
C21.192 -10.5029 28.4417 -7.5 36 -7.5
z
" id="C0_0_a811fe30f3"/>
     <path d="
M40.7476 -63.9012
L40.6094 -63.6721
L40.5078 -63.4262
L40.4391 -63.1651
L40.3989 -62.8905
L40.3832 -62.6039
L40.3881 -62.307
L40.4102 -62.0009
L40.4464 -61.6869
L40.4939 -61.3661
L40.5506 -61.0394
L40.6144 -60.7077
L40.6838 -60.3717
L40.7574 -60.0321
L40.834 -59.6895
L40.9128 -59.3444
L40.9928 -58.9974
L41.0736 -58.6488
L41.1544 -58.2991
L41.235 -57.9487
L41.3149 -57.5979
L41.3938 -57.2469
L41.4714 -56.8962
L41.5476 -56.5459
L41.6223 -56.1963
L41.6952 -55.8475
L41.7664 -55.4999
L41.8356 -55.1535
L41.9029 -54.8085
L41.9682 -54.4651
L42.0316 -54.1234
L42.0929 -53.7835
L42.1522 -53.4455
L42.2095 -53.1095
L42.2648 -52.7756
L42.3182 -52.4438
L42.3696 -52.1142
L42.4191 -51.7868
L42.4668 -51.4617
L42.5125 -51.1389
L42.5565 -50.8184
L42.5988 -50.5003
L42.6392 -50.1844
L42.6781 -49.8709
L42.7152 -49.5598
L42.7508 -49.2509
L42.7848 -48.9443
L42.8172 -48.6401
L42.8482 -48.338
L42.8778 -48.0382
L42.9059 -47.7406
L42.9326 -47.4451
L42.9581 -47.1517
L42.9822 -46.8604
L43.005 -46.5711
L43.0267 -46.2838
L43.0471 -45.9984
L43.0663 -45.715
L43.0844 -45.4333
L43.1014 -45.1534
L43.1174 -44.8752
L43.1322 -44.5987
L43.146 -44.3239
L43.1588 -44.0505
L43.1707 -43.7787
L43.1815 -43.5083
L43.1914 -43.2392
L43.2004 -42.9715
L43.2085 -42.7051
L43.2157 -42.4398
L43.222 -42.1757
L43.2275 -41.9127
L43.2321 -41.6506
L43.2359 -41.3895
L43.2389 -41.1294
L43.241 -40.87
L43.2424 -40.6114
L43.2429 -40.3535
L43.2427 -40.0963
L43.2418 -39.8396
L43.24 -39.5835
L43.2375 -39.3278
L43.2342 -39.0725
L43.2302 -38.8175
L43.2254 -38.5629
L43.2199 -38.3084
L43.2137 -38.0541
L43.1989 -37.7998
L43.1904 -37.5456
L43.1812 -37.2914
L43.1712 -37.037
L43.1604 -36.7825
L43.1489 -36.5277
L43.1367 -36.2727
L43.1236 -36.0173
L43.1098 -35.7615
L43.0952 -35.5052
L43.0798 -35.2484
L43.0636 -34.991
L43.0466 -34.7329
L43.0287 -34.4741
L43.01 -34.2144
L42.9905 -33.954
L42.9701 -33.6926
L42.9488 -33.4302
L42.9266 -33.1668
L42.9035 -32.9023
L42.8795 -32.6366
L42.8546 -32.3697
L42.8286 -32.1015
L42.8017 -31.832
L42.7737 -31.561
L42.7448 -31.2885
L42.7147 -31.0145
L42.6836 -30.7389
L42.6514 -30.4616
L42.618 -30.1826
L42.5835 -29.9018
L42.5478 -29.6192
L42.5108 -29.3347
L42.4726 -29.0482
L42.4332 -28.7597
L42.3924 -28.4691
L42.3502 -28.1765
L42.3067 -27.8816
L42.2618 -27.5846
L42.2154 -27.2853
L42.1675 -26.9836
L42.1181 -26.6797
L42.0671 -26.3733
L42.0145 -26.0645
L41.9603 -25.7533
L41.9044 -25.4396
L41.8468 -25.1234
L41.7875 -24.8047
L41.7263 -24.4834
L41.6634 -24.1597
L41.5986 -23.8333
L41.5319 -23.5045
L41.4633 -23.1731
L41.3927 -22.8392
L41.3202 -22.5029
L41.2458 -22.1641
L41.1693 -21.8229
L41.0909 -21.4794
L41.0104 -21.1337
L40.928 -20.7857
L40.8437 -20.4357
L40.7574 -20.0836
L40.6693 -19.7297
L40.5793 -19.3741
L40.4877 -19.0169
L40.3944 -18.6582
L40.2997 -18.2983
L40.2037 -17.9374
L40.1067 -17.5756
L40.0088 -17.2133
L39.9103 -16.8506
L39.8118 -16.488
L39.7135 -16.1256
L39.616 -15.7639
L39.5201 -15.4032
L39.4263 -15.0439
L39.3357 -14.6866
L39.2494 -14.3316
L39.1685 -13.9796
L39.0947 -13.6313
L39.0299 -13.2871
L38.976 -12.9481
L38.9357 -12.6149
L38.9119 -12.2886
L38.9077 -11.9702
L38.9267 -11.6609
L38.9728 -11.3621
L39.0498 -11.075
L39.1612 -10.8013
L39.3101 -10.5422
L39.4987 -10.2992
L39.728 -10.0734
L39.9979 -9.86602
L40.3069 -9.67762
L40.6527 -9.50866
L41.0323 -9.35931
L41.442 -9.22953
L41.8783 -9.11909
L42.3377 -9.02767
L42.8167 -8.9549
L43.3122 -8.90035
L43.8215 -8.86362
L44.3419 -8.84429
L44.8425 -8.84195
L45.314 -8.90644
L45.7826 -9.06489
L46.2483 -9.23154
L46.7109 -9.40635
L47.1702 -9.58926
L47.6261 -9.78021
L48.0784 -9.97915
L48.5271 -10.186
L48.972 -10.4007
L49.4129 -10.6233
L49.8497 -10.8535
L50.2823 -11.0914
L50.7105 -11.3369
L51.1343 -11.59
L51.5535 -11.8504
L51.9679 -12.1182
L52.3775 -12.3933
L52.782 -12.6756
L53.1815 -12.965
L53.5757 -13.2614
L53.9646 -13.5647
L54.348 -13.8748
L54.7258 -14.1917
L55.0979 -14.5153
L55.4642 -14.8454
L55.8246 -15.1819
L56.1789 -15.5247
L56.5271 -15.8739
L56.869 -16.2291
L57.2046 -16.5903
L57.5337 -16.9575
L57.8562 -17.3305
L58.1721 -17.7091
L58.4813 -18.0934
L58.7835 -18.4831
L59.0789 -18.8781
L59.3672 -19.2783
L59.6484 -19.6836
L59.9224 -20.0939
L60.1891 -20.5091
L60.4485 -20.929
L60.7004 -21.3534
L60.9447 -21.7823
L61.1815 -22.2156
L61.4106 -22.653
L61.632 -23.0945
L61.8455 -23.54
L62.0512 -23.9892
L62.2489 -24.4421
L62.4387 -24.8985
L62.6204 -25.3583
L62.794 -25.8213
L62.9594 -26.2875
L63.1166 -26.7566
L63.2656 -27.2285
L63.4062 -27.7031
L63.5385 -28.1802
L63.6624 -28.6597
L63.7779 -29.1414
L63.8849 -29.6252
L63.9835 -30.111
L64.0735 -30.5986
L64.1549 -31.0878
L64.2278 -31.5785
L64.2921 -32.0705
L64.3477 -32.5638
L64.3948 -33.058
L64.4332 -33.5532
L64.4629 -34.0492
L64.4839 -34.5457
L64.4963 -35.0426
L64.5 -35.5399
L64.495 -36.0373
L64.4813 -36.5347
L64.459 -37.0319
L64.4279 -37.5288
L64.3883 -38.0253
L64.34 -38.5211
L64.283 -39.0162
L64.2174 -39.5103
L64.1433 -40.0034
L64.0605 -40.4952
L63.9692 -40.9857
L63.8694 -41.4747
L63.7611 -41.962
L63.6444 -42.4474
L63.5192 -42.931
L63.3857 -43.4124
L63.2438 -43.8915
L63.0936 -44.3683
L62.9351 -44.8425
L62.7685 -45.314
L62.5937 -45.7826
L62.4107 -46.2483
L62.2198 -46.7109
L62.0208 -47.1702
L61.814 -47.6261
L61.5993 -48.0784
L61.3767 -48.5271
L61.1465 -48.972
L60.9086 -49.4129
L60.6631 -49.8497
L60.41 -50.2823
L60.1496 -50.7105
L59.8818 -51.1343
L59.6067 -51.5535
L59.3244 -51.9679
L59.035 -52.3775
L58.7386 -52.782
L58.4353 -53.1815
L58.1252 -53.5757
L57.8083 -53.9646
L57.4847 -54.348
L57.1546 -54.7258
L56.8181 -55.0979
L56.4753 -55.4642
L56.1261 -55.8246
L55.7709 -56.1789
L55.4097 -56.5271
L55.0425 -56.869
L54.6695 -57.2046
L54.2909 -57.5337
L53.9066 -57.8562
L53.5169 -58.1721
L53.1219 -58.4813
L52.7217 -58.7835
L52.3164 -59.0789
L51.9061 -59.3672
L51.4909 -59.6484
L51.071 -59.9224
L50.6466 -60.1891
L50.2177 -60.4485
L49.7844 -60.7004
L49.347 -60.9447
L48.9055 -61.1815
L48.46 -61.4106
L48.0108 -61.632
L47.5579 -61.8455
L47.1015 -62.0512
L46.6417 -62.2489
L46.1787 -62.4387
L45.7125 -62.6204
L45.2434 -62.794
L44.7715 -62.9594
L44.2969 -63.1166
L43.8198 -63.2656
L43.3403 -63.4062
L42.8586 -63.5385
L42.3748 -63.6624
L41.889 -63.7779
L41.4014 -63.8849
z
" id="C0_1_325caee67d"/>
     <path d="
M27.1639 -63.0359
L26.7233 -62.7358
L26.2851 -62.4293
L25.8509 -62.1166
L25.4217 -61.798
L24.9985 -61.4738
L24.5821 -61.1443
L24.1732 -60.8101
L23.7722 -60.4714
L23.3796 -60.1287
L22.9958 -59.7823
L22.6209 -59.4325
L22.2552 -59.0799
L21.8988 -58.7246
L21.5518 -58.3672
L21.2143 -58.0078
L20.8861 -57.6469
L20.5674 -57.2847
L20.258 -56.9215
L19.9579 -56.5577
L19.6669 -56.1933
L19.3849 -55.8287
L19.1118 -55.4641
L18.8474 -55.0998
L18.5917 -54.7358
L18.3443 -54.3723
L18.1052 -54.0096
L17.8742 -53.6478
L17.651 -53.2869
L17.4356 -52.9272
L17.2276 -52.5686
L17.027 -52.2114
L16.8336 -51.8556
L16.6471 -51.5012
L16.4675 -51.1484
L16.2944 -50.7971
L16.1278 -50.4474
L15.9674 -50.0994
L15.8132 -49.7531
L15.6649 -49.4085
L15.5224 -49.0655
L15.3855 -48.7243
L15.2541 -48.3848
L15.128 -48.0471
L15.0071 -47.711
L14.8913 -47.3766
L14.7803 -47.0439
L14.6742 -46.7128
L14.5728 -46.3833
L14.4759 -46.0555
L14.3834 -45.7292
L14.2953 -45.4044
L14.2115 -45.0811
L14.1317 -44.7592
L14.056 -44.4387
L13.9843 -44.1196
L13.9164 -43.8018
L13.8523 -43.4853
L13.7919 -43.1699
L13.7351 -42.8558
L13.6819 -42.5427
L13.6322 -42.2307
L13.5859 -41.9197
L13.5431 -41.6096
L13.5035 -41.3004
L13.4673 -40.9921
L13.4342 -40.6845
L13.4044 -40.3776
L13.3777 -40.0714
L13.3542 -39.7658
L13.3337 -39.4608
L13.3163 -39.1562
L13.3019 -38.8521
L13.2906 -38.5483
L13.2822 -38.2448
L13.2769 -37.9415
L13.2745 -37.6385
L13.2751 -37.3355
L13.2786 -37.0327
L13.2851 -36.7298
L13.2946 -36.4268
L13.307 -36.1238
L13.3224 -35.8206
L13.3408 -35.5171
L13.3623 -35.2133
L13.3867 -34.9092
L13.4142 -34.6047
L13.4448 -34.2996
L13.4784 -33.9941
L13.5152 -33.688
L13.5552 -33.3812
L13.5984 -33.0737
L13.6448 -32.7654
L13.6945 -32.4563
L13.7476 -32.1464
L13.804 -31.8355
L13.8639 -31.5237
L13.9274 -31.2108
L13.9944 -30.8969
L14.065 -30.5818
L14.1394 -30.2655
L14.2176 -29.948
L14.2996 -29.6292
L14.3856 -29.3092
L14.4757 -28.9877
L14.5698 -28.6649
L14.6682 -28.3406
L14.771 -28.0149
L14.8781 -27.6877
L14.9898 -27.359
L15.1062 -27.0287
L15.2273 -26.6968
L15.3533 -26.3634
L15.4843 -26.0284
L15.6205 -25.6917
L15.7619 -25.3535
L15.9088 -25.0136
L16.0611 -24.6721
L16.2192 -24.3291
L16.383 -23.9844
L16.5529 -23.6383
L16.7288 -23.2906
L16.9111 -22.9414
L17.0997 -22.5909
L17.2949 -22.2389
L17.4969 -21.8857
L17.7057 -21.5313
L17.9216 -21.1758
L18.1446 -20.8192
L18.375 -20.4617
L18.6129 -20.1034
L18.8583 -19.7445
L19.1115 -19.385
L19.3726 -19.0252
L19.6416 -18.6653
L19.9188 -18.3053
L20.204 -17.9456
L20.4976 -17.5863
L20.7994 -17.2276
L21.1095 -16.8699
L21.4279 -16.5133
L21.7546 -16.1581
L22.0895 -15.8047
L22.4326 -15.4533
L22.7836 -15.1041
L23.1424 -14.7576
L23.5086 -14.414
L23.8821 -14.0737
L24.2622 -13.737
L24.6486 -13.4041
L25.0406 -13.0754
L25.4375 -12.7513
L25.8383 -12.4319
L26.2421 -12.1175
L26.6474 -11.8084
L27.0529 -11.5046
L27.4568 -11.2064
L27.8569 -10.9137
L28.2509 -10.6264
L28.6359 -10.3445
L29.0087 -10.0676
L29.3657 -9.79531
L29.7029 -9.52716
L30.0162 -9.26248
L30.3013 -9.00059
L30.5541 -8.74074
L30.7711 -8.48224
L30.9496 -8.22454
L30.592 -7.96725
L30.1045 -8.01779
L29.6188 -8.11644
L29.135 -8.22357
L28.6533 -8.33917
L28.1738 -8.4632
L27.6967 -8.59561
L27.2222 -8.73637
L26.7503 -8.88543
L26.2812 -9.04276
L25.8151 -9.20829
L25.3521 -9.38199
L24.8924 -9.56379
L24.436 -9.75365
L23.9832 -9.9515
L23.534 -10.1573
L23.0886 -10.3709
L22.6471 -10.5924
L22.2097 -10.8216
L21.7766 -11.0585
L21.3477 -11.303
L20.9233 -11.555
L20.5035 -11.8144
L20.0884 -12.0812
L19.6782 -12.3553
L19.2729 -12.6366
L18.8728 -12.925
L18.4778 -13.2205
L18.0882 -13.5228
L17.704 -13.8321
L17.3255 -14.148
L16.9526 -14.4707
L16.5855 -14.7999
L16.2243 -15.1355
L15.8691 -15.4775
L15.5201 -15.8258
L15.1773 -16.1802
L14.8409 -16.5406
L14.5109 -16.907
L14.1874 -17.2792
L13.8706 -17.6571
L13.5606 -18.0406
L13.2573 -18.4295
L12.961 -18.8238
L12.6718 -19.2233
L12.3896 -19.628
L12.1146 -20.0376
L11.8469 -20.4521
L11.5865 -20.8713
L11.3336 -21.2951
L11.0882 -21.7235
L10.8504 -22.1561
L10.6202 -22.593
L10.3978 -23.034
L10.1832 -23.4789
L9.97644 -23.9276
L9.7776 -24.38
L9.58676 -24.836
L9.40396 -25.2953
L9.22926 -25.7579
L9.06272 -26.2236
L8.90438 -26.6923
L8.75429 -27.1639
L8.61251 -27.6381
L8.47906 -28.1149
L8.354 -28.5941
L8.23736 -29.0755
L8.12918 -29.559
L8.02949 -30.0445
L7.93832 -30.5319
L7.85569 -31.0208
L7.78164 -31.5113
L7.71619 -32.0032
L7.65935 -32.4963
L7.61114 -32.9905
L7.57158 -33.4855
L7.54068 -33.9814
L7.51845 -34.4778
L7.50489 -34.9747
L7.50002 -35.472
L7.50382 -35.9693
L7.51631 -36.4667
L7.53747 -36.964
L7.5673 -37.461
L7.6058 -37.9575
L7.65294 -38.4534
L7.70872 -38.9486
L7.77311 -39.4429
L7.8461 -39.9361
L7.92767 -40.4281
L8.01779 -40.9188
L8.11644 -41.408
L8.22357 -41.8955
L8.33917 -42.3812
L8.4632 -42.865
L8.59561 -43.3467
L8.73637 -43.8262
L8.88543 -44.3033
L9.04276 -44.7778
L9.20829 -45.2497
L9.38199 -45.7188
L9.56379 -46.1849
L9.75365 -46.6479
L9.9515 -47.1076
L10.1573 -47.564
L10.3709 -48.0168
L10.5924 -48.466
L10.8216 -48.9114
L11.0585 -49.3529
L11.303 -49.7903
L11.555 -50.2234
L11.8144 -50.6523
L12.0812 -51.0767
L12.3553 -51.4965
L12.6366 -51.9116
L12.925 -52.3218
L13.2205 -52.7271
L13.5228 -53.1272
L13.8321 -53.5222
L14.148 -53.9118
L14.4707 -54.296
L14.7999 -54.6745
L15.1355 -55.0474
L15.4775 -55.4145
L15.8258 -55.7757
L16.1802 -56.1309
L16.5406 -56.4799
L16.907 -56.8227
L17.2792 -57.1591
L17.6571 -57.4891
L18.0406 -57.8126
L18.4295 -58.1294
L18.8238 -58.4394
L19.2233 -58.7427
L19.628 -59.039
L20.0376 -59.3282
L20.4521 -59.6104
L20.8713 -59.8854
L21.2951 -60.1531
L21.7235 -60.4135
L22.1561 -60.6664
L22.593 -60.9118
L23.034 -61.1496
L23.4789 -61.3798
L23.9276 -61.6022
L24.38 -61.8168
L24.836 -62.0236
L25.2953 -62.2224
L25.7579 -62.4132
L26.2236 -62.596
z
" id="C0_2_811fb2de00"/>
    </defs>
    <g clip-path="url(#p1bffca34e9)">
     <use style="fill:#ff0000;stroke:#000000;stroke-width:2.0;" x="0.0" xlink:href="#C0_0_a811fe30f3" y="72.0"/>
    </g>
    <g clip-path="url(#p1bffca34e9)">
     <use style="fill:#ffffff;stroke:#000000;stroke-width:2.0;" x="0.0" xlink:href="#C0_1_325caee67d" y="72.0"/>
    </g>
    <g clip-path="url(#p1bffca34e9)">
     <use style="fill:#ffffff;stroke:#000000;stroke-width:2.0;" x="0.0" xlink:href="#C0_2_811fb2de00" y="72.0"/>
    </g>
   </g>
  </g>
 </g>
 <defs>
  <clipPath id="p1bffca34e9">
   <rect height="72.0" width="72.0" x="0.0" y="0.0"/>
  </clipPath>
 </defs>
</svg>
