<?xml version="1.0" encoding="utf-8" standalone="no"?>
<!DOCTYPE svg PUBLIC "-//W3C//DTD SVG 1.1//EN"
  "http://www.w3.org/Graphics/SVG/1.1/DTD/svg11.dtd">
<!-- Created with matplotlib (http://matplotlib.org/) -->
<svg height="72pt" version="1.1" viewBox="0 0 72 72" width="72pt" xmlns="http://www.w3.org/2000/svg" xmlns:xlink="http://www.w3.org/1999/xlink">
 <defs>
  <style type="text/css">
*{stroke-linecap:butt;stroke-linejoin:round;}
  </style>
 </defs>
 <g id="figure_1">
  <g id="patch_1">
   <path d="
M0 72
L72 72
L72 0
L0 0
z
" style="fill:none;"/>
  </g>
  <g id="axes_1">
   <g id="PatchCollection_1">
    <defs>
     <path d="
M36 -7.5
C43.5583 -7.5 50.808 -10.5029 56.1525 -15.8475
C61.4971 -21.192 64.5 -28.4417 64.5 -36
C64.5 -43.5583 61.4971 -50.808 56.1525 -56.1525
C50.808 -61.4971 43.5583 -64.5 36 -64.5
C28.4417 -64.5 21.192 -61.4971 15.8475 -56.1525
C10.5029 -50.808 7.5 -43.5583 7.5 -36
C7.5 -28.4417 10.5029 -21.192 15.8475 -15.8475
C21.192 -10.5029 28.4417 -7.5 36 -7.5
z
" id="C0_0_a811fe30f3"/>
     <path d="
M29.3008 -63.6537
L29.3246 -63.4585
L29.3501 -63.2631
L29.3772 -63.0676
L29.4058 -62.8718
L29.4359 -62.6759
L29.4675 -62.4798
L29.5004 -62.2834
L29.5347 -62.0867
L29.5703 -61.8898
L29.6072 -61.6926
L29.6454 -61.495
L29.6847 -61.2971
L29.7253 -61.0988
L29.767 -60.9001
L29.8098 -60.701
L29.8538 -60.5014
L29.8988 -60.3014
L29.9449 -60.1008
L29.9921 -59.8998
L30.0404 -59.6981
L30.0897 -59.4958
L30.14 -59.293
L30.1914 -59.0894
L30.2971 -58.8852
L30.3515 -58.6803
L30.4069 -58.4746
L30.4633 -58.2681
L30.5208 -58.0608
L30.5792 -57.8527
L30.6386 -57.6436
L30.699 -57.4337
L30.7605 -57.2228
L30.823 -57.0109
L30.8865 -56.798
L30.9511 -56.5841
L31.0167 -56.369
L31.0834 -56.1529
L31.1512 -55.9355
L31.22 -55.717
L31.29 -55.4973
L31.3611 -55.2763
L31.4333 -55.054
L31.5066 -54.8303
L31.5811 -54.6053
L31.6569 -54.3789
L31.7338 -54.151
L31.8119 -53.9217
L31.8913 -53.6909
L31.972 -53.4585
L32.054 -53.2246
L32.1373 -52.9891
L32.2219 -52.752
L32.3079 -52.5132
L32.3954 -52.2727
L32.4842 -52.0306
L32.5746 -51.7867
L32.6664 -51.5411
L32.7597 -51.2937
L32.8546 -51.0445
L32.9512 -50.7935
L33.0493 -50.5407
L33.1491 -50.2861
L33.2506 -50.0297
L33.3539 -49.7714
L33.4589 -49.5114
L33.5658 -49.2494
L33.6746 -48.9857
L33.7852 -48.7202
L33.8979 -48.4528
L34.0125 -48.1838
L34.1292 -47.9129
L34.248 -47.6404
L34.369 -47.3662
L34.4922 -47.0905
L34.6177 -46.8131
L34.7455 -46.5343
L34.8757 -46.2541
L35.0083 -45.9725
L35.1435 -45.6897
L35.2812 -45.4057
L35.4216 -45.1207
L35.5647 -44.8348
L35.7106 -44.5481
L35.8594 -44.2608
L36.0111 -43.973
L36.1658 -43.6849
L36.3237 -43.3966
L36.4848 -43.1085
L36.6491 -42.8206
L36.8168 -42.5332
L36.988 -42.2466
L37.1628 -41.961
L37.3412 -41.6767
L37.5234 -41.3939
L37.7094 -41.113
L37.8995 -40.8342
L38.0936 -40.558
L38.2918 -40.2845
L38.4943 -40.0143
L38.7012 -39.7476
L38.9126 -39.4848
L39.1285 -39.2262
L39.3491 -38.9723
L39.5743 -38.7234
L39.8043 -38.4799
L40.0392 -38.2421
L40.2788 -38.0104
L40.5234 -37.7852
L40.7729 -37.5667
L41.0272 -37.3554
L41.2863 -37.1514
L41.5502 -36.955
L41.8189 -36.7665
L42.0921 -36.5861
L42.3698 -36.4138
L42.6519 -36.25
L42.9381 -36.0946
L43.2282 -35.9478
L43.5222 -35.8095
L43.8197 -35.6798
L44.1204 -35.5586
L44.4243 -35.4459
L44.7309 -35.3415
L45.0399 -35.2453
L45.3512 -35.1572
L45.6645 -35.0771
L45.9793 -35.0046
L46.2956 -34.9397
L46.6129 -34.8821
L46.9309 -34.8316
L47.2495 -34.788
L47.5684 -34.7511
L47.8872 -34.7205
L48.2057 -34.6962
L48.5238 -34.6777
L48.8411 -34.665
L49.1575 -34.6578
L49.4728 -34.6559
L49.7867 -34.659
L50.0991 -34.667
L50.4098 -34.6796
L50.7187 -34.6966
L51.0256 -34.718
L51.3304 -34.7433
L51.633 -34.7726
L51.9332 -34.8057
L52.231 -34.8423
L52.5262 -34.8823
L52.8189 -34.9256
L53.1089 -34.9721
L53.3961 -35.0216
L53.6806 -35.0739
L53.9622 -35.129
L54.2409 -35.1868
L54.5167 -35.2472
L54.7896 -35.31
L55.0596 -35.3752
L55.3266 -35.4427
L55.5906 -35.5123
L55.8516 -35.5841
L56.1097 -35.6579
L56.3647 -35.7338
L56.6168 -35.8115
L56.866 -35.8911
L57.1122 -35.9725
L57.3555 -36.0557
L57.5959 -36.1406
L57.8334 -36.2272
L58.068 -36.3154
L58.2998 -36.4052
L58.5288 -36.4965
L58.755 -36.5895
L58.9784 -36.6839
L59.1991 -36.7799
L59.4172 -36.8773
L59.6325 -36.9762
L59.8452 -37.0765
L60.0554 -37.1783
L60.2629 -37.2815
L60.4679 -37.3862
L60.6704 -37.4922
L60.8704 -37.5998
L61.0679 -37.7087
L61.2631 -37.8191
L61.4558 -37.9309
L61.6462 -38.0442
L61.8342 -38.159
L62.0199 -38.2752
L62.2033 -38.393
L62.3844 -38.5122
L62.5633 -38.633
L62.74 -38.7554
L62.9145 -38.8794
L63.0868 -39.005
L63.2569 -39.1322
L63.4248 -39.2612
L63.5906 -39.3918
L63.7543 -39.5242
L63.9158 -39.6584
L64.0752 -39.7945
L64.1512 -39.9325
L64.0693 -40.4453
L63.9789 -40.936
L63.8799 -41.4251
L63.7725 -41.9126
L63.6566 -42.3982
L63.5323 -42.882
L63.3996 -43.3636
L63.2585 -43.843
L63.1092 -44.32
L62.9516 -44.7944
L62.7858 -45.2662
L62.6118 -45.7352
L62.4297 -46.2012
L62.2395 -46.664
L62.0414 -47.1237
L61.8354 -47.5799
L61.6214 -48.0326
L61.3997 -48.4817
L61.1702 -48.927
L60.9331 -49.3683
L60.6883 -49.8055
L60.4361 -50.2386
L60.1764 -50.6673
L59.9093 -51.0915
L59.635 -51.5111
L59.3534 -51.926
L59.0647 -52.3361
L58.7691 -52.7412
L58.4664 -53.1412
L58.157 -53.5359
L57.8408 -53.9254
L57.5179 -54.3093
L57.1885 -54.6877
L56.8526 -55.0604
L56.5104 -55.4273
L56.1619 -55.7883
L55.8073 -56.1432
L55.4466 -56.492
L55.08 -56.8346
L54.7076 -57.1708
L54.3296 -57.5006
L53.9459 -57.8238
L53.5568 -58.1403
L53.1623 -58.4502
L52.7626 -58.7532
L52.3577 -59.0492
L51.9479 -59.3383
L51.5333 -59.6202
L51.1139 -59.8949
L50.6899 -60.1624
L50.2614 -60.4225
L49.8286 -60.6751
L49.3916 -60.9203
L48.9505 -61.1578
L48.5054 -61.3877
L48.0566 -61.6098
L47.6041 -61.8242
L47.148 -62.0307
L46.6885 -62.2292
L46.2258 -62.4198
L45.76 -62.6023
L45.2912 -62.7767
L44.8195 -62.943
L44.3452 -63.101
L43.8684 -63.2508
L43.3891 -63.3923
L42.9076 -63.5255
L42.424 -63.6502
L41.9384 -63.7666
L41.451 -63.8745
L40.962 -63.9739
L40.4714 -64.0647
L39.9795 -64.147
L39.4864 -64.2208
L38.9922 -64.286
L38.4971 -64.3425
L38.0012 -64.3904
L37.5048 -64.4297
L37.0078 -64.4602
L36.5106 -64.4822
L36.0132 -64.4954
L35.5158 -64.5
L35.0186 -64.4959
L34.5216 -64.4831
L34.0251 -64.4616
L33.5292 -64.4315
L33.0341 -64.3927
L32.5398 -64.3453
L32.0466 -64.2892
L31.5547 -64.2245
L31.064 -64.1512
L30.5749 -64.0693
L30.0874 -63.9789
z
" id="C0_1_0aee62556c"/>
     <path d="
M7.81645 -31.9347
L8.00702 -31.8444
L8.19882 -31.7548
L8.39187 -31.666
L8.58619 -31.5779
L8.78183 -31.4905
L8.97879 -31.4037
L9.17712 -31.3176
L9.37684 -31.2322
L9.57798 -31.1473
L9.78058 -31.0631
L9.98467 -30.9794
L10.1903 -30.8962
L10.3974 -30.8136
L10.6062 -30.7315
L10.8166 -30.6499
L11.0286 -30.5688
L11.2423 -30.4881
L11.4578 -30.4079
L11.675 -30.3281
L11.8941 -30.2487
L12.115 -30.1697
L12.3377 -30.091
L12.5624 -30.0127
L12.7891 -29.9348
L13.0178 -29.8571
L13.2485 -29.7798
L13.4813 -29.7028
L13.7162 -29.626
L13.9532 -29.5494
L14.1925 -29.4732
L14.434 -29.3971
L14.6777 -29.3212
L14.9238 -29.2455
L15.1722 -29.17
L15.423 -29.0946
L15.6762 -29.0194
L15.9318 -28.9443
L16.19 -28.8692
L16.4506 -28.7942
L16.7137 -28.7193
L16.9794 -28.6444
L17.2477 -28.5695
L17.5185 -28.4946
L17.792 -28.4197
L18.0681 -28.3446
L18.3468 -28.2695
L18.6282 -28.1942
L18.9122 -28.1188
L19.1989 -28.0432
L19.4882 -27.9673
L19.7801 -27.8911
L20.0746 -27.8147
L20.3718 -27.7378
L20.6714 -27.6606
L20.9736 -27.5829
L21.2782 -27.5046
L21.5853 -27.4258
L21.8948 -27.3464
L22.2065 -27.2662
L22.5204 -27.1852
L22.8365 -27.1033
L23.1546 -27.0205
L23.4747 -26.9366
L23.7966 -26.8516
L24.1201 -26.7653
L24.4452 -26.6776
L24.7718 -26.5884
L25.0995 -26.4976
L25.4283 -26.405
L25.758 -26.3104
L26.0884 -26.2138
L26.4192 -26.115
L26.7503 -26.0138
L27.0814 -25.9099
L27.4123 -25.8033
L27.7427 -25.6937
L28.0724 -25.5809
L28.401 -25.4648
L28.7284 -25.3451
L29.0542 -25.2216
L29.3781 -25.0941
L29.6998 -24.9625
L30.0191 -24.8264
L30.3357 -24.6858
L30.6493 -24.5404
L30.9596 -24.3901
L31.2664 -24.2347
L31.5694 -24.0742
L31.8683 -23.9083
L32.1629 -23.737
L32.4532 -23.5603
L32.7387 -23.3782
L33.0195 -23.1905
L33.2953 -22.9975
L33.5661 -22.799
L33.8317 -22.5954
L34.0922 -22.3865
L34.3473 -22.1727
L34.5972 -21.9541
L34.8418 -21.7309
L35.0811 -21.5033
L35.3152 -21.2717
L35.5441 -21.0361
L35.7678 -20.797
L35.9865 -20.5547
L36.2003 -20.3093
L36.4091 -20.0612
L36.6132 -19.8108
L36.8126 -19.5583
L37.0074 -19.3039
L37.1977 -19.0481
L37.3837 -18.791
L37.5655 -18.533
L37.7431 -18.2743
L37.9166 -18.0151
L38.0863 -17.7558
L38.2522 -17.4965
L38.4143 -17.2374
L38.5729 -16.9788
L38.7279 -16.7209
L38.8795 -16.4637
L39.0278 -16.2076
L39.1728 -15.9525
L39.3147 -15.6988
L39.4536 -15.4464
L39.5894 -15.1956
L39.7223 -14.9464
L39.8525 -14.699
L39.9798 -14.4533
L40.1045 -14.2096
L40.2265 -13.9678
L40.346 -13.728
L40.463 -13.4903
L40.5775 -13.2547
L40.6897 -13.0212
L40.7996 -12.7899
L40.9072 -12.5608
L41.0125 -12.334
L41.1157 -12.1094
L41.2168 -11.887
L41.3159 -11.6668
L41.4129 -11.449
L41.5079 -11.2333
L41.601 -11.0199
L41.6922 -10.8087
L41.7816 -10.5997
L41.8691 -10.3929
L41.9548 -10.1883
L42.0388 -9.98583
L42.1211 -9.7855
L42.2017 -9.58726
L42.2806 -9.3911
L42.358 -9.19699
L42.4337 -9.0049
L42.5078 -8.8148
L42.5804 -8.62666
L42.2019 -8.44044
L41.7155 -8.18299
L41.2274 -8.07899
L40.7376 -7.98349
L40.2464 -7.89653
L39.7539 -7.81813
L39.2603 -7.74831
L38.7657 -7.6871
L38.2702 -7.63451
L37.774 -7.59056
L37.2773 -7.55527
L36.7802 -7.52864
L36.2829 -7.51068
L35.7855 -7.5014
L35.2882 -7.50081
L34.791 -7.50889
L34.2943 -7.52565
L33.798 -7.55109
L33.3025 -7.58519
L32.8077 -7.62795
L32.3139 -7.67935
L31.8213 -7.73938
L31.3299 -7.80801
L30.8399 -7.88523
L30.3515 -7.97102
L29.8649 -8.06534
L29.3801 -8.16818
L28.8973 -8.27949
L28.4167 -8.39925
L27.9384 -8.52741
L27.4625 -8.66394
L26.9893 -8.8088
L26.5188 -8.96194
L26.0511 -9.12332
L25.5866 -9.29288
L25.1251 -9.47058
L24.667 -9.65636
L24.2124 -9.85016
L23.7613 -10.0519
L23.314 -10.2616
L22.8705 -10.4791
L22.4311 -10.7044
L21.9957 -10.9374
L21.5646 -11.178
L21.138 -11.4262
L20.7158 -11.6819
L20.2983 -11.945
L19.8856 -12.2154
L19.4778 -12.493
L19.0751 -12.7779
L18.6775 -13.0697
L18.2851 -13.3686
L17.8982 -13.6744
L17.5168 -13.987
L17.141 -14.3062
L16.7709 -14.6321
L16.4067 -14.9645
L16.0485 -15.3033
L15.6964 -15.6484
L15.3504 -15.9997
L15.0107 -16.3571
L14.6774 -16.7205
L14.3507 -17.0897
L14.0305 -17.4647
L13.717 -17.8454
L13.4103 -18.2316
L13.1104 -18.6232
L12.8176 -19.0201
L12.5318 -19.4221
L12.2532 -19.8292
L11.9817 -20.2413
L11.7177 -20.6581
L11.461 -21.0796
L11.2117 -21.5057
L10.9701 -21.9362
L10.736 -22.3709
L10.5097 -22.8098
L10.2911 -23.2528
L10.0803 -23.6996
L9.87745 -24.1501
L9.68255 -24.6043
L9.49566 -25.0619
L9.31684 -25.5229
L9.14616 -25.987
L8.98365 -26.4543
L8.82938 -26.9244
L8.68337 -27.3973
L8.5457 -27.8728
L8.41638 -28.3507
L8.29546 -28.831
L8.18299 -29.3135
L8.07899 -29.7981
L7.98349 -30.2845
L7.89653 -30.7726
z
" id="C0_2_57e6cb319a"/>
    </defs>
    <g clip-path="url(#p1bffca34e9)">
     <use style="fill:#ffffff;stroke:#000000;stroke-width:2.0;" x="0.0" xlink:href="#C0_0_a811fe30f3" y="72.0"/>
    </g>
    <g clip-path="url(#p1bffca34e9)">
     <use style="fill:#ff0000;stroke:#000000;stroke-width:2.0;" x="0.0" xlink:href="#C0_1_0aee62556c" y="72.0"/>
    </g>
    <g clip-path="url(#p1bffca34e9)">
     <use style="fill:#ff0000;stroke:#000000;stroke-width:2.0;" x="0.0" xlink:href="#C0_2_57e6cb319a" y="72.0"/>
    </g>
   </g>
  </g>
 </g>
 <defs>
  <clipPath id="p1bffca34e9">
   <rect height="72.0" width="72.0" x="0.0" y="0.0"/>
  </clipPath>
 </defs>
</svg>
