<?xml version="1.0" encoding="utf-8" standalone="no"?>
<!DOCTYPE svg PUBLIC "-//W3C//DTD SVG 1.1//EN"
  "http://www.w3.org/Graphics/SVG/1.1/DTD/svg11.dtd">
<!-- Created with matplotlib (http://matplotlib.org/) -->
<svg height="72pt" version="1.1" viewBox="0 0 72 72" width="72pt" xmlns="http://www.w3.org/2000/svg" xmlns:xlink="http://www.w3.org/1999/xlink">
 <defs>
  <style type="text/css">
*{stroke-linecap:butt;stroke-linejoin:round;}
  </style>
 </defs>
 <g id="figure_1">
  <g id="patch_1">
   <path d="
M0 72
L72 72
L72 0
L0 0
z
" style="fill:none;"/>
  </g>
  <g id="axes_1">
   <g id="PatchCollection_1">
    <defs>
     <path d="
M36 -7.5
C43.5583 -7.5 50.808 -10.5029 56.1525 -15.8475
C61.4971 -21.192 64.5 -28.4417 64.5 -36
C64.5 -43.5583 61.4971 -50.808 56.1525 -56.1525
C50.808 -61.4971 43.5583 -64.5 36 -64.5
C28.4417 -64.5 21.192 -61.4971 15.8475 -56.1525
C10.5029 -50.808 7.5 -43.5583 7.5 -36
C7.5 -28.4417 10.5029 -21.192 15.8475 -15.8475
C21.192 -10.5029 28.4417 -7.5 36 -7.5
z
" id="C0_0_a811fe30f3"/>
     <path d="
M20.3269 -39.5327
L20.423 -39.8117
L20.5225 -40.0895
L20.6254 -40.3661
L20.7317 -40.6415
L20.8414 -40.9157
L20.9544 -41.1887
L21.0709 -41.4603
L21.1907 -41.7308
L21.3139 -41.9999
L21.4405 -42.2677
L21.5706 -42.5342
L21.704 -42.7994
L21.8409 -43.0632
L21.9811 -43.3256
L22.1249 -43.5866
L22.272 -43.8462
L22.4226 -44.1043
L22.5767 -44.3609
L22.7343 -44.6159
L22.8954 -44.8694
L23.06 -45.1213
L23.2282 -45.3716
L23.3998 -45.6201
L23.5751 -45.867
L23.7539 -46.112
L23.9363 -46.3553
L24.1224 -46.5966
L24.312 -46.8361
L24.5054 -47.0735
L24.7023 -47.309
L24.903 -47.5423
L25.1073 -47.7734
L25.3153 -48.0023
L25.5271 -48.2288
L25.7426 -48.453
L25.9618 -48.6747
L26.1848 -48.8939
L26.4116 -49.1104
L26.6421 -49.3241
L26.8763 -49.5351
L27.1144 -49.7431
L27.3562 -49.9481
L27.6018 -50.15
L27.8512 -50.3487
L28.1043 -50.544
L28.3612 -50.7358
L28.6218 -50.9241
L28.8861 -51.1086
L29.1542 -51.2893
L29.4259 -51.4661
L29.7013 -51.6388
L29.9802 -51.8072
L30.2628 -51.9713
L30.5488 -52.1309
L30.8384 -52.2858
L31.1314 -52.436
L31.4278 -52.5811
L31.7274 -52.7212
L32.0303 -52.856
L32.3364 -52.9854
L32.6456 -53.1093
L32.9577 -53.2274
L33.2727 -53.3397
L33.5905 -53.4459
L33.911 -53.5459
L34.2341 -53.6396
L34.5596 -53.7268
L34.8874 -53.8073
L35.2174 -53.881
L35.5494 -53.9478
L35.8833 -54.0075
L36.2188 -54.06
L36.556 -54.1051
L36.8945 -54.1427
L37.2342 -54.1727
L37.5749 -54.195
L37.9164 -54.2095
L38.2585 -54.216
L38.6011 -54.2145
L38.9439 -54.2049
L39.2866 -54.1872
L39.6292 -54.1612
L39.9714 -54.127
L40.3128 -54.0844
L40.6535 -54.0335
L40.993 -53.9743
L41.3312 -53.9067
L41.6679 -53.8308
L42.0028 -53.7465
L42.3357 -53.654
L42.6665 -53.5532
L42.9948 -53.4443
L43.3205 -53.3272
L43.6433 -53.2022
L43.9631 -53.0692
L44.2797 -52.9284
L44.5928 -52.7799
L44.9023 -52.6239
L45.208 -52.4604
L45.5097 -52.2896
L45.8073 -52.1118
L46.1006 -51.927
L46.3894 -51.7353
L46.6736 -51.5371
L46.9531 -51.3325
L47.2278 -51.1216
L47.4975 -50.9047
L47.7621 -50.6819
L48.0215 -50.4535
L48.2757 -50.2197
L48.5246 -49.9806
L48.768 -49.7364
L49.006 -49.4875
L49.2384 -49.2339
L49.4652 -48.9758
L49.6864 -48.7136
L49.902 -48.4473
L50.1119 -48.1772
L50.316 -47.9034
L50.5145 -47.6262
L50.7072 -47.3458
L50.8942 -47.0622
L51.0754 -46.7758
L51.251 -46.4866
L51.4208 -46.1949
L51.585 -45.9009
L51.7435 -45.6046
L51.8963 -45.3062
L52.0436 -45.0059
L52.1853 -44.7039
L52.3214 -44.4002
L52.4521 -44.0951
L52.5773 -43.7886
L52.697 -43.4808
L52.8114 -43.172
L52.9205 -42.8622
L53.0243 -42.5515
L53.1229 -42.24
L53.2162 -41.9278
L53.3045 -41.6151
L53.3877 -41.3019
L53.4658 -40.9884
L53.539 -40.6745
L53.6073 -40.3604
L53.6707 -40.0461
L53.7292 -39.7318
L53.783 -39.4174
L53.8321 -39.1032
L53.8765 -38.789
L53.9162 -38.475
L53.9514 -38.1613
L53.9821 -37.8478
L54.0083 -37.5347
L54.03 -37.2219
L54.0473 -36.9096
L54.0603 -36.5978
L54.069 -36.2864
L54.0734 -35.9756
L54.0735 -35.6654
L54.0695 -35.3557
L54.0613 -35.0468
L54.0489 -34.7384
L54.0324 -34.4308
L54.0119 -34.1239
L53.9873 -33.8178
L53.9587 -33.5124
L53.9261 -33.2078
L53.8895 -32.904
L53.849 -32.601
L53.8046 -32.2989
L53.7562 -31.9977
L53.7039 -31.6973
L53.6478 -31.3979
L53.5878 -31.0994
L53.5239 -30.8018
L53.4562 -30.5052
L53.3847 -30.2096
L53.3093 -29.915
L53.2301 -29.6214
L53.1471 -29.3288
L53.0602 -29.0372
L52.9695 -28.7468
L52.8751 -28.4574
L52.7767 -28.1691
L52.6746 -27.882
L52.5686 -27.596
L52.4588 -27.3112
L52.3451 -27.0276
L52.2276 -26.7452
L52.1062 -26.464
L51.9809 -26.1842
L51.8517 -25.9056
L51.7186 -25.6284
L51.5816 -25.3525
L51.4406 -25.0781
L51.2957 -24.8051
L51.1468 -24.5336
L50.9939 -24.2636
L50.837 -23.9952
L50.6761 -23.7284
L50.5111 -23.4632
L50.342 -23.1998
L50.1689 -22.9381
L49.9916 -22.6782
L49.8101 -22.4202
L49.6245 -22.1641
L49.4348 -21.9101
L49.2408 -21.6581
L49.0426 -21.4082
L48.8401 -21.1605
L48.6334 -20.9152
L48.4224 -20.6722
L48.2071 -20.4316
L47.9875 -20.1936
L47.7636 -19.9582
L47.5353 -19.7255
L47.3026 -19.4957
L47.0656 -19.2688
L46.8242 -19.0449
L46.5785 -18.8241
L46.3283 -18.6066
L46.0738 -18.3924
L45.8149 -18.1818
L45.5517 -17.9748
L45.2841 -17.7715
L45.0122 -17.5721
L44.7359 -17.3767
L44.4554 -17.1854
L44.1706 -16.9985
L43.8816 -16.816
L43.5884 -16.6381
L43.291 -16.465
L42.9896 -16.2967
L42.6841 -16.1335
L42.3747 -15.9756
L42.0614 -15.823
L41.7443 -15.676
L41.4234 -15.5347
L41.0989 -15.3993
L40.7709 -15.2699
L40.4395 -15.1468
L40.1048 -15.03
L39.7669 -14.9199
L39.426 -14.8164
L39.0822 -14.7198
L38.7356 -14.6303
L38.3865 -14.548
L38.035 -14.473
L37.6812 -14.4056
L37.3254 -14.3458
L36.9678 -14.2939
L36.6086 -14.2498
L36.2479 -14.2139
L35.886 -14.1861
L35.5231 -14.1666
L35.1595 -14.1555
L34.7954 -14.1529
L34.431 -14.1588
L34.0666 -14.1734
L33.7025 -14.1967
L33.3389 -14.2287
L32.976 -14.2696
L32.6142 -14.3192
L32.2537 -14.3776
L31.8947 -14.4448
L31.5375 -14.5209
L31.1825 -14.6057
L30.8298 -14.6991
L30.4797 -14.8013
L30.1324 -14.912
L29.7883 -15.0312
L29.4476 -15.1588
L29.1104 -15.2947
L28.777 -15.4387
L28.4477 -15.5908
L28.1227 -15.7507
L27.8021 -15.9183
L27.4862 -16.0935
L27.1752 -16.276
L26.8691 -16.4657
L26.5683 -16.6624
L26.2728 -16.8659
L25.9828 -17.0759
L25.6984 -17.2923
L25.4198 -17.5149
L25.147 -17.7434
L24.8801 -17.9776
L24.6193 -18.2173
L24.3646 -18.4622
L24.1161 -18.7122
L23.8739 -18.967
L23.6379 -19.2264
L23.4082 -19.4901
L23.1849 -19.7579
L22.968 -20.0297
L22.7574 -20.3052
L22.5532 -20.5842
L22.3554 -20.8664
L22.1639 -21.1518
L21.9788 -21.44
L21.8 -21.7309
L21.6275 -22.0244
L21.4613 -22.3201
L21.3012 -22.618
L21.1473 -22.9178
L20.9995 -23.2195
L20.8578 -23.5227
L20.7221 -23.8275
L20.5923 -24.1336
L20.4684 -24.4409
L20.3503 -24.7493
L20.238 -25.0585
L20.1313 -25.3686
L20.0302 -25.6794
L19.9347 -25.9907
L19.8446 -26.3025
L19.7599 -26.6146
L19.6806 -26.927
L19.6065 -27.2395
L19.5375 -27.5521
L19.4737 -27.8647
L19.4149 -28.1772
L19.361 -28.4895
L19.3121 -28.8015
L19.2679 -29.1133
L19.2285 -29.4247
L19.1938 -29.7357
L19.1637 -30.0462
L19.1381 -30.3561
L19.117 -30.6655
L19.1004 -30.9743
L19.0881 -31.2823
L19.0801 -31.5897
L19.0764 -31.8963
L19.0769 -32.2022
L19.0815 -32.5072
L19.0901 -32.8114
L19.1029 -33.1147
L19.1196 -33.4171
L19.1402 -33.7187
L19.1648 -34.0192
L19.1932 -34.3189
L19.2254 -34.6175
L19.2614 -34.9152
L19.3012 -35.2118
L19.3446 -35.5075
L19.3917 -35.8021
L19.4425 -36.0956
L19.4969 -36.3881
L19.5548 -36.6795
L19.6164 -36.9699
L19.6814 -37.2591
L19.75 -37.5473
L19.822 -37.8343
L19.8976 -38.1202
L19.9766 -38.405
L20.059 -38.6887
L20.1449 -38.9712
z
" id="C0_1_7a7a4d62a4"/>
    </defs>
    <g clip-path="url(#p1bffca34e9)">
     <use style="fill:#ffffff;stroke:#000000;stroke-width:2.0;" x="0.0" xlink:href="#C0_0_a811fe30f3" y="72.0"/>
    </g>
    <g clip-path="url(#p1bffca34e9)">
     <use style="fill:#ff0000;stroke:#000000;stroke-width:2.0;" x="0.0" xlink:href="#C0_1_7a7a4d62a4" y="72.0"/>
    </g>
   </g>
  </g>
 </g>
 <defs>
  <clipPath id="p1bffca34e9">
   <rect height="72.0" width="72.0" x="0.0" y="0.0"/>
  </clipPath>
 </defs>
</svg>
