<?xml version="1.0" encoding="utf-8" standalone="no"?>
<!DOCTYPE svg PUBLIC "-//W3C//DTD SVG 1.1//EN"
  "http://www.w3.org/Graphics/SVG/1.1/DTD/svg11.dtd">
<!-- Created with matplotlib (http://matplotlib.org/) -->
<svg height="72pt" version="1.1" viewBox="0 0 72 72" width="72pt" xmlns="http://www.w3.org/2000/svg" xmlns:xlink="http://www.w3.org/1999/xlink">
 <defs>
  <style type="text/css">
*{stroke-linecap:butt;stroke-linejoin:round;}
  </style>
 </defs>
 <g id="figure_1">
  <g id="patch_1">
   <path d="
M0 72
L72 72
L72 0
L0 0
z
" style="fill:none;"/>
  </g>
  <g id="axes_1">
   <g id="PatchCollection_1">
    <defs>
     <path d="
M36 -7.5
C43.5583 -7.5 50.808 -10.5029 56.1525 -15.8475
C61.4971 -21.192 64.5 -28.4417 64.5 -36
C64.5 -43.5583 61.4971 -50.808 56.1525 -56.1525
C50.808 -61.4971 43.5583 -64.5 36 -64.5
C28.4417 -64.5 21.192 -61.4971 15.8475 -56.1525
C10.5029 -50.808 7.5 -43.5583 7.5 -36
C7.5 -28.4417 10.5029 -21.192 15.8475 -15.8475
C21.192 -10.5029 28.4417 -7.5 36 -7.5
z
" id="C0_0_a811fe30f3"/>
     <path d="
M26.5847 -29.267
L26.4833 -29.5073
L26.3832 -29.7482
L26.2844 -29.99
L26.1868 -30.2325
L26.0904 -30.4759
L25.9953 -30.7202
L25.9013 -30.9654
L25.8085 -31.2117
L25.7169 -31.4592
L25.6264 -31.7077
L25.5371 -31.9575
L25.4489 -32.2086
L25.3618 -32.461
L25.2759 -32.7148
L25.1911 -32.9701
L25.1074 -33.227
L25.0248 -33.4854
L24.9433 -33.7455
L24.863 -34.0074
L24.7838 -34.2711
L24.7058 -34.5366
L24.6289 -34.8041
L24.5532 -35.0737
L24.4786 -35.3453
L24.4053 -35.619
L24.3332 -35.895
L24.2624 -36.1733
L24.1928 -36.4539
L24.1245 -36.737
L24.0576 -37.0226
L23.992 -37.3108
L23.9279 -37.6016
L23.8652 -37.8951
L23.804 -38.1914
L23.7443 -38.4906
L23.6862 -38.7927
L23.6298 -39.0978
L23.5751 -39.4059
L23.5222 -39.7171
L23.4712 -40.0315
L23.422 -40.3491
L23.3749 -40.67
L23.3298 -40.9942
L23.2869 -41.3218
L23.2463 -41.6529
L23.2081 -41.9873
L23.1723 -42.3253
L23.1391 -42.6668
L23.1087 -43.0119
L23.081 -43.3605
L23.0564 -43.7127
L23.0348 -44.0684
L23.0165 -44.4278
L23.0015 -44.7906
L22.9902 -45.157
L22.9826 -45.5268
L22.9789 -45.9001
L22.9793 -46.2768
L22.984 -46.6567
L22.9933 -47.0398
L23.0072 -47.4259
L23.0262 -47.815
L23.0503 -48.2068
L23.0799 -48.6013
L23.1153 -48.9981
L23.1566 -49.3972
L23.2043 -49.7981
L23.2586 -50.2006
L23.3198 -50.6045
L23.3884 -51.0093
L23.4648 -51.4146
L23.5492 -51.8199
L23.6422 -52.2248
L23.7443 -52.6287
L23.856 -53.0309
L23.9779 -53.4307
L24.1105 -53.8273
L24.2547 -54.2198
L24.4111 -54.607
L24.5806 -54.988
L24.7642 -55.3612
L24.9627 -55.7254
L25.1774 -56.0787
L25.4093 -56.4196
L25.6594 -56.746
L25.9289 -57.0561
L26.2186 -57.3477
L26.5292 -57.6191
L26.8609 -57.8686
L27.2138 -58.0947
L27.587 -58.2965
L27.9797 -58.4736
L28.3902 -58.6259
L28.8167 -58.7539
L29.2573 -58.8583
L29.7096 -58.9401
L30.1717 -59.0005
L30.6415 -59.0406
L31.1172 -59.0618
L31.5969 -59.0651
L32.0793 -59.0518
L32.5628 -59.023
L33.0464 -58.9795
L33.5289 -58.9224
L34.0095 -58.8525
L34.4872 -58.7706
L34.9615 -58.6775
L35.4318 -58.5738
L35.8974 -58.4603
L36.358 -58.3375
L36.8131 -58.2061
L37.2624 -58.0665
L37.7057 -57.9192
L38.1427 -57.7649
L38.5733 -57.6039
L38.9971 -57.4366
L39.4143 -57.2635
L39.8246 -57.085
L40.2279 -56.9014
L40.6243 -56.7131
L41.0137 -56.5205
L41.3961 -56.3237
L41.7716 -56.1233
L42.1401 -55.9193
L42.5017 -55.7121
L42.8564 -55.5019
L43.2044 -55.289
L43.5457 -55.0736
L43.8803 -54.8559
L44.2084 -54.636
L44.5301 -54.4142
L44.8454 -54.1906
L45.1545 -53.9653
L45.4575 -53.7386
L45.7545 -53.5105
L46.0456 -53.2811
L46.3309 -53.0507
L46.6106 -52.8192
L46.8847 -52.5868
L47.1534 -52.3535
L47.4168 -52.1195
L47.6749 -51.8847
L47.9281 -51.6494
L48.1762 -51.4134
L48.4196 -51.1769
L48.6581 -50.9399
L48.8921 -50.7024
L49.1216 -50.4646
L49.3466 -50.2263
L49.5674 -49.9876
L49.7839 -49.7486
L49.9964 -49.5093
L50.2048 -49.2695
L50.4094 -49.0295
L50.6101 -48.7891
L50.8071 -48.5484
L51.0005 -48.3074
L51.1903 -48.0659
L51.3766 -47.8242
L51.5596 -47.582
L51.7392 -47.3394
L51.9156 -47.0964
L52.0888 -46.853
L52.259 -46.6091
L52.426 -46.3647
L52.5902 -46.1198
L52.7514 -45.8744
L52.9097 -45.6283
L53.0653 -45.3816
L53.2181 -45.1343
L53.3682 -44.8863
L53.5157 -44.6375
L53.6606 -44.3879
L53.8029 -44.1375
L53.9427 -43.8863
L54.08 -43.6341
L54.2149 -43.381
L54.3474 -43.1268
L54.4774 -42.8716
L54.6052 -42.6152
L54.7305 -42.3577
L54.8536 -42.099
L54.9744 -41.839
L55.0929 -41.5776
L55.2091 -41.3149
L55.3231 -41.0507
L55.4348 -40.785
L55.5443 -40.5177
L55.6516 -40.2487
L55.7566 -39.9781
L55.8594 -39.7057
L55.9599 -39.4314
L56.0582 -39.1553
L56.1542 -38.8771
L56.2478 -38.5969
L56.3392 -38.3146
L56.4283 -38.0302
L56.5149 -37.7434
L56.5992 -37.4544
L56.6811 -37.1629
L56.7605 -36.8689
L56.8373 -36.5724
L56.9116 -36.2733
L56.9833 -35.9714
L57.0523 -35.6668
L57.1186 -35.3593
L57.1821 -35.0489
L57.2427 -34.7355
L57.3004 -34.4189
L57.3551 -34.0992
L57.4066 -33.7763
L57.4549 -33.45
L57.4999 -33.1204
L57.5415 -32.7873
L57.5796 -32.4506
L57.6141 -32.1104
L57.6447 -31.7665
L57.6715 -31.4188
L57.6942 -31.0673
L57.7128 -30.712
L57.727 -30.3528
L57.7367 -29.9896
L57.7417 -29.6224
L57.7419 -29.2512
L57.737 -28.8759
L57.7269 -28.4964
L57.7113 -28.1129
L57.6901 -27.7252
L57.6631 -27.3334
L57.6299 -26.9374
L57.5904 -26.5373
L57.5443 -26.1332
L57.4913 -25.725
L57.4313 -25.3129
L57.3638 -24.8969
L57.2887 -24.4771
L57.2057 -24.0536
L57.1144 -23.6265
L57.0146 -23.1961
L56.9059 -22.7625
L56.7881 -22.3258
L56.6608 -21.8864
L56.5237 -21.4445
L56.3766 -21.0004
L56.219 -20.5544
L56.0507 -20.107
L55.8714 -19.6585
L55.6808 -19.2093
L55.4785 -18.7601
L55.2643 -18.3114
L55.038 -17.8637
L54.7992 -17.4179
L54.5478 -16.9747
L54.2836 -16.5349
L54.0063 -16.0995
L53.716 -15.6695
L53.4124 -15.2461
L53.0956 -14.8307
L52.7656 -14.4246
L52.4226 -14.0294
L52.0667 -13.6469
L51.6983 -13.279
L51.3179 -12.9278
L50.9259 -12.5955
L50.5232 -12.2844
L50.1107 -11.9969
L49.6894 -11.7353
L49.2606 -11.5015
L48.8257 -11.2972
L48.3861 -11.1237
L47.9432 -10.9814
L47.4986 -10.8703
L47.0536 -10.7898
L46.6096 -10.7385
L46.1675 -10.7149
L45.7283 -10.7172
L45.2928 -10.7433
L44.8617 -10.7913
L44.4355 -10.8593
L44.0146 -10.9454
L43.5993 -11.048
L43.1899 -11.1656
L42.7867 -11.2968
L42.3898 -11.4404
L41.9992 -11.5951
L41.6152 -11.76
L41.2377 -11.9342
L40.8669 -12.1168
L40.5026 -12.307
L40.1451 -12.5041
L39.7941 -12.7076
L39.4498 -12.9167
L39.112 -13.131
L38.7808 -13.35
L38.456 -13.5732
L38.1376 -13.8001
L37.8256 -14.0304
L37.5198 -14.2638
L37.2202 -14.4998
L36.9266 -14.7382
L36.639 -14.9787
L36.3573 -15.2209
L36.0814 -15.4648
L35.8111 -15.7099
L35.5464 -15.9562
L35.2872 -16.2035
L35.0332 -16.4515
L34.7845 -16.7001
L34.5409 -16.9491
L34.3022 -17.1985
L34.0685 -17.448
L33.8394 -17.6976
L33.6151 -17.9473
L33.3952 -18.1968
L33.1798 -18.4461
L32.9686 -18.6952
L32.7617 -18.9439
L32.5588 -19.1923
L32.3599 -19.4403
L32.1649 -19.6878
L31.9736 -19.9348
L31.786 -20.1813
L31.602 -20.4272
L31.4214 -20.6726
L31.2442 -20.9175
L31.0703 -21.1617
L30.8995 -21.4054
L30.7319 -21.6485
L30.5673 -21.891
L30.4056 -22.133
L30.2467 -22.3744
L30.0906 -22.6153
L29.9372 -22.8557
L29.7864 -23.0955
L29.6382 -23.3349
L29.4924 -23.5739
L29.349 -23.8124
L29.208 -24.0505
L29.0692 -24.2882
L28.9326 -24.5257
L28.7982 -24.7628
L28.6658 -24.9997
L28.5355 -25.2363
L28.4072 -25.4728
L28.2808 -25.7091
L28.1562 -25.9453
L28.0335 -26.1814
L27.9125 -26.4176
L27.7933 -26.6537
L27.6758 -26.89
L27.5599 -27.1263
L27.4456 -27.3628
L27.3329 -27.5996
L27.2217 -27.8366
L27.112 -28.0739
L27.0037 -28.3116
L26.8969 -28.5496
L26.7915 -28.7882
z
" id="C0_1_755c56e75e"/>
    </defs>
    <g clip-path="url(#p1bffca34e9)">
     <use style="fill:#ff0000;stroke:#000000;stroke-width:2.0;" x="0.0" xlink:href="#C0_0_a811fe30f3" y="72.0"/>
    </g>
    <g clip-path="url(#p1bffca34e9)">
     <use style="fill:#ffffff;stroke:#000000;stroke-width:2.0;" x="0.0" xlink:href="#C0_1_755c56e75e" y="72.0"/>
    </g>
   </g>
  </g>
 </g>
 <defs>
  <clipPath id="p1bffca34e9">
   <rect height="72.0" width="72.0" x="0.0" y="0.0"/>
  </clipPath>
 </defs>
</svg>
