<?xml version="1.0" encoding="utf-8" standalone="no"?>
<!DOCTYPE svg PUBLIC "-//W3C//DTD SVG 1.1//EN"
  "http://www.w3.org/Graphics/SVG/1.1/DTD/svg11.dtd">
<!-- Created with matplotlib (http://matplotlib.org/) -->
<svg height="72pt" version="1.1" viewBox="0 0 72 72" width="72pt" xmlns="http://www.w3.org/2000/svg" xmlns:xlink="http://www.w3.org/1999/xlink">
 <defs>
  <style type="text/css">
*{stroke-linecap:butt;stroke-linejoin:round;}
  </style>
 </defs>
 <g id="figure_1">
  <g id="patch_1">
   <path d="
M0 72
L72 72
L72 0
L0 0
z
" style="fill:none;"/>
  </g>
  <g id="axes_1">
   <g id="PatchCollection_1">
    <defs>
     <path d="
M36 -7.5
C43.5583 -7.5 50.808 -10.5029 56.1525 -15.8475
C61.4971 -21.192 64.5 -28.4417 64.5 -36
C64.5 -43.5583 61.4971 -50.808 56.1525 -56.1525
C50.808 -61.4971 43.5583 -64.5 36 -64.5
C28.4417 -64.5 21.192 -61.4971 15.8475 -56.1525
C10.5029 -50.808 7.5 -43.5583 7.5 -36
C7.5 -28.4417 10.5029 -21.192 15.8475 -15.8475
C21.192 -10.5029 28.4417 -7.5 36 -7.5
z
" id="C0_0_a811fe30f3"/>
     <path d="
M21.6976 -60.3392
L21.674 -59.9954
L21.6427 -59.6411
L21.6066 -59.2784
L21.5678 -58.909
L21.5279 -58.5344
L21.4882 -58.1556
L21.4497 -57.7736
L21.4133 -57.3895
L21.3794 -57.0038
L21.3486 -56.6172
L21.3212 -56.2303
L21.2973 -55.8436
L21.2772 -55.4576
L21.2609 -55.0725
L21.2485 -54.6887
L21.24 -54.3066
L21.2353 -53.9263
L21.2345 -53.5482
L21.2373 -53.1725
L21.2439 -52.7992
L21.254 -52.4286
L21.2675 -52.0608
L21.2844 -51.696
L21.3046 -51.3341
L21.3279 -50.9754
L21.3542 -50.6199
L21.3834 -50.2675
L21.4154 -49.9185
L21.45 -49.5727
L21.4873 -49.2303
L21.5269 -48.8912
L21.569 -48.5555
L21.6133 -48.2231
L21.6597 -47.894
L21.7082 -47.5682
L21.7587 -47.2457
L21.811 -46.9264
L21.8652 -46.6104
L21.9211 -46.2975
L21.9787 -45.9877
L22.0378 -45.681
L22.0985 -45.3773
L22.1606 -45.0766
L22.2242 -44.7788
L22.2891 -44.4838
L22.3553 -44.1917
L22.4227 -43.9022
L22.4914 -43.6154
L22.5612 -43.3312
L22.6322 -43.0496
L22.7042 -42.7704
L22.7773 -42.4936
L22.8515 -42.2191
L22.9267 -41.9469
L23.0028 -41.6768
L23.0799 -41.4089
L23.158 -41.143
L23.237 -40.8791
L23.3169 -40.6171
L23.3977 -40.357
L23.4794 -40.0986
L23.562 -39.8419
L23.6455 -39.5868
L23.7299 -39.3334
L23.8151 -39.0814
L23.9012 -38.8308
L23.9882 -38.5816
L24.076 -38.3337
L24.1647 -38.087
L24.2543 -37.8415
L24.3448 -37.5971
L24.4362 -37.3538
L24.5285 -37.1114
L24.6218 -36.8699
L24.716 -36.6293
L24.8111 -36.3894
L24.9072 -36.1503
L25.0042 -35.9118
L25.1023 -35.6739
L25.2014 -35.4366
L25.4027 -35.1997
L25.505 -34.9633
L25.6084 -34.7272
L25.7129 -34.4914
L25.8186 -34.2558
L25.9255 -34.0205
L26.0336 -33.7852
L26.1429 -33.5501
L26.2536 -33.3149
L26.3656 -33.0797
L26.4789 -32.8444
L26.5936 -32.6089
L26.7097 -32.3732
L26.8274 -32.1373
L26.9465 -31.901
L27.0672 -31.6644
L27.1894 -31.4273
L27.3133 -31.1897
L27.4389 -30.9517
L27.5663 -30.713
L27.6954 -30.4737
L27.8263 -30.2336
L27.9591 -29.9929
L28.0939 -29.7514
L28.2307 -29.509
L28.3695 -29.2657
L28.5104 -29.0215
L28.6535 -28.7764
L28.7988 -28.5302
L28.9464 -28.2829
L29.0963 -28.0345
L29.2487 -27.785
L29.4036 -27.5343
L29.561 -27.2824
L29.721 -27.0292
L29.8837 -26.7747
L30.0492 -26.5189
L30.2175 -26.2617
L30.3887 -26.0032
L30.563 -25.7432
L30.7402 -25.4818
L30.9206 -25.219
L31.1042 -24.9547
L31.2911 -24.6889
L31.4814 -24.4216
L31.6751 -24.1529
L31.8722 -23.8827
L32.073 -23.611
L32.2774 -23.3378
L32.4856 -23.0633
L32.6975 -22.7872
L32.9133 -22.5098
L33.133 -22.2311
L33.3566 -21.951
L33.5843 -21.6696
L33.8161 -21.3871
L34.0519 -21.1034
L34.2919 -20.8187
L34.5361 -20.533
L34.7844 -20.2463
L35.0369 -19.9589
L35.2935 -19.6708
L35.5543 -19.3822
L35.8192 -19.0931
L36.088 -18.8037
L36.3608 -18.5142
L36.6374 -18.2246
L36.9177 -17.9352
L37.2014 -17.6462
L37.4883 -17.3576
L37.7782 -17.0698
L38.0707 -16.7828
L38.3653 -16.4968
L38.6617 -16.2121
L38.9592 -15.9287
L39.2571 -15.647
L39.5544 -15.3669
L39.8502 -15.0887
L40.1432 -14.8124
L40.4317 -14.5382
L40.7138 -14.2659
L40.9871 -13.9955
L41.2488 -13.727
L41.4952 -13.4599
L41.722 -13.1939
L41.9242 -12.9285
L42.0958 -12.663
L42.2304 -12.3965
L42.3213 -12.1281
L42.3627 -11.8568
L42.3499 -11.5819
L42.2806 -11.3031
L42.1549 -11.0205
L41.9755 -10.7347
L41.7465 -10.4472
L41.4732 -10.1594
L41.1611 -9.87301
L40.8155 -9.58984
L40.4409 -9.31143
L40.0416 -9.0392
L39.6209 -8.77435
L39.1819 -8.51791
L38.7271 -8.27076
L38.2587 -8.0336
L37.7785 -7.80703
L37.284 -7.59155
L36.787 -7.52894
L36.2896 -7.51087
L35.7922 -7.50147
L35.2949 -7.50076
L34.7977 -7.50872
L34.301 -7.52537
L33.8047 -7.55069
L33.3091 -7.58467
L32.8144 -7.62731
L32.3206 -7.6786
L31.8279 -7.73851
L31.3365 -7.80703
L30.8465 -7.88413
L30.3581 -7.96981
L29.8714 -8.06401
L29.3866 -8.16673
L28.9038 -8.27793
L28.4232 -8.39757
L27.9448 -8.52562
L27.4689 -8.66204
L26.9956 -8.80679
L26.5251 -8.95982
L26.0574 -9.12108
L25.5928 -9.29054
L25.1313 -9.46813
L24.6732 -9.6538
L24.2185 -9.84749
L23.7674 -10.0492
L23.32 -10.2587
L22.8765 -10.4761
L22.437 -10.7013
L22.0016 -10.9342
L21.5704 -11.1747
L21.1437 -11.4228
L20.7215 -11.6784
L20.3039 -11.9414
L19.8912 -12.2117
L19.4833 -12.4892
L19.0805 -12.774
L18.6828 -13.0658
L18.2904 -13.3645
L17.9034 -13.6702
L17.5219 -13.9827
L17.146 -14.3019
L16.7759 -14.6277
L16.4116 -14.96
L16.0533 -15.2987
L15.7011 -15.6437
L15.355 -15.9949
L15.0153 -16.3522
L14.6819 -16.7155
L14.355 -17.0847
L14.0348 -17.4596
L13.7212 -17.8402
L13.4144 -18.2263
L13.1144 -18.6178
L12.8215 -19.0147
L12.5356 -19.4167
L12.2569 -19.8237
L11.9854 -20.2357
L11.7212 -20.6525
L11.4644 -21.0739
L11.215 -21.4999
L10.9733 -21.9303
L10.7391 -22.365
L10.5127 -22.8039
L10.294 -23.2467
L10.0831 -23.6935
L9.88014 -24.144
L9.68512 -24.5981
L9.49813 -25.0557
L9.3192 -25.5166
L9.14841 -25.9808
L8.98579 -26.4479
L8.8314 -26.918
L8.68529 -27.3909
L8.5475 -27.8663
L8.41807 -28.3443
L8.29704 -28.8246
L8.18445 -29.307
L8.08033 -29.7915
L7.98472 -30.2779
L7.89764 -30.766
L7.81913 -31.2558
L7.74919 -31.747
L7.68786 -32.2394
L7.63516 -32.733
L7.5911 -33.2277
L7.55569 -33.7231
L7.52894 -34.2193
L7.51087 -34.716
L7.50147 -35.213
L7.50076 -35.7104
L7.50872 -36.2078
L7.52537 -36.7051
L7.55069 -37.2023
L7.58467 -37.699
L7.62731 -38.1953
L7.6786 -38.6909
L7.73851 -39.1856
L7.80703 -39.6794
L7.88413 -40.1721
L7.96981 -40.6635
L8.06401 -41.1535
L8.16673 -41.6419
L8.27793 -42.1286
L8.39757 -42.6134
L8.52562 -43.0962
L8.66204 -43.5768
L8.80679 -44.0552
L8.95982 -44.5311
L9.12108 -45.0044
L9.29054 -45.4749
L9.46813 -45.9426
L9.6538 -46.4072
L9.84749 -46.8687
L10.0492 -47.3268
L10.2587 -47.7815
L10.4761 -48.2326
L10.7013 -48.68
L10.9342 -49.1235
L11.1747 -49.563
L11.4228 -49.9984
L11.6784 -50.4296
L11.9414 -50.8563
L12.2117 -51.2785
L12.4892 -51.6961
L12.774 -52.1088
L13.0658 -52.5167
L13.3645 -52.9195
L13.6702 -53.3172
L13.9827 -53.7096
L14.3019 -54.0966
L14.6277 -54.4781
L14.96 -54.854
L15.2987 -55.2241
L15.6437 -55.5884
L15.9949 -55.9467
L16.3522 -56.2989
L16.7155 -56.645
L17.0847 -56.9847
L17.4596 -57.3181
L17.8402 -57.645
L18.2263 -57.9652
L18.6178 -58.2788
L19.0147 -58.5856
L19.4167 -58.8856
L19.8237 -59.1785
L20.2357 -59.4644
L20.6525 -59.7431
L21.0739 -60.0146
z
" id="C0_1_29a0b049ff"/>
     <path d="
M34.7247 -64.3292
L35.2286 -64.1705
L35.7277 -64.0041
L36.2211 -63.8302
L36.708 -63.649
L37.188 -63.4609
L37.6606 -63.2659
L38.1254 -63.0646
L38.582 -62.8573
L39.0302 -62.6442
L39.47 -62.4257
L39.9011 -62.2022
L40.3234 -61.974
L40.737 -61.7415
L41.1417 -61.5049
L41.5377 -61.2646
L41.925 -61.0209
L42.3036 -60.7741
L42.6736 -60.5244
L43.0351 -60.2721
L43.3882 -60.0176
L43.7331 -59.7609
L44.0699 -59.5023
L44.3986 -59.2421
L44.7196 -58.9805
L45.0329 -58.7175
L45.3387 -58.4534
L45.6371 -58.1884
L45.9283 -57.9225
L46.2125 -57.656
L46.4898 -57.3889
L46.7605 -57.1214
L47.0246 -56.8535
L47.2823 -56.5853
L47.5338 -56.317
L47.7793 -56.0486
L48.0189 -55.7801
L48.2527 -55.5117
L48.4809 -55.2433
L48.7038 -54.9751
L48.9213 -54.707
L49.1336 -54.439
L49.341 -54.1713
L49.5434 -53.9038
L49.7412 -53.6366
L49.9343 -53.3696
L50.1228 -53.1028
L50.3071 -52.8363
L50.487 -52.57
L50.6628 -52.304
L50.8346 -52.0382
L51.0024 -51.7726
L51.1664 -51.5073
L51.3266 -51.2421
L51.4832 -50.977
L51.6363 -50.7121
L51.7859 -50.4473
L51.9321 -50.1825
L52.075 -49.9178
L52.2146 -49.6531
L52.3512 -49.3883
L52.4846 -49.1235
L52.615 -48.8586
L52.7425 -48.5935
L52.867 -48.3282
L52.9888 -48.0627
L53.1077 -47.7969
L53.2239 -47.5307
L53.3375 -47.2642
L53.4484 -46.9972
L53.5567 -46.7297
L53.6625 -46.4617
L53.7658 -46.1932
L53.8665 -45.9239
L53.9649 -45.654
L54.0608 -45.3833
L54.1543 -45.1118
L54.2455 -44.8394
L54.3343 -44.5661
L54.4207 -44.2918
L54.5049 -44.0164
L54.5867 -43.7399
L54.6663 -43.4622
L54.7436 -43.1833
L54.8186 -42.9031
L54.8913 -42.6215
L54.9617 -42.3384
L55.0298 -42.0538
L55.0957 -41.7677
L55.1592 -41.4799
L55.2204 -41.1903
L55.2793 -40.899
L55.3358 -40.6059
L55.3899 -40.3107
L55.4417 -40.0136
L55.4909 -39.7144
L55.5378 -39.4131
L55.5821 -39.1095
L55.6239 -38.8036
L55.663 -38.4954
L55.6996 -38.1847
L55.7334 -37.8715
L55.7645 -37.5556
L55.7928 -37.2371
L55.8183 -36.9159
L55.8408 -36.5919
L55.8603 -36.2649
L55.8767 -35.935
L55.8899 -35.6021
L55.8999 -35.266
L55.9066 -34.9268
L55.9098 -34.5844
L55.9094 -34.2386
L55.9055 -33.8895
L55.8978 -33.537
L55.8862 -33.181
L55.8706 -32.8215
L55.851 -32.4584
L55.8271 -32.0917
L55.7988 -31.7213
L55.766 -31.3473
L55.7286 -30.9695
L55.6863 -30.588
L55.6391 -30.2027
L55.5868 -29.8137
L55.5292 -29.4209
L55.4662 -29.0244
L55.3975 -28.6241
L55.3231 -28.2202
L55.2428 -27.8126
L55.1563 -27.4014
L55.0635 -26.9868
L54.9643 -26.5687
L54.8585 -26.1472
L54.7458 -25.7226
L54.6263 -25.2948
L54.4996 -24.8642
L54.3657 -24.4307
L54.2245 -23.9948
L54.0757 -23.5564
L53.9194 -23.116
L53.7555 -22.6737
L53.5839 -22.2299
L53.4046 -21.7847
L53.2177 -21.3387
L53.0232 -20.8922
L52.8213 -20.4455
L52.6122 -19.9991
L52.3963 -19.5535
L52.1738 -19.1092
L51.9454 -18.6667
L51.7117 -18.2266
L51.4738 -17.7897
L51.2325 -17.3566
L50.9896 -16.9282
L50.7466 -16.5052
L50.5059 -16.0888
L50.2703 -15.68
L50.0432 -15.28
L49.8289 -14.8903
L49.6325 -14.5124
L49.4597 -14.148
L49.3171 -13.7989
L49.2111 -13.4668
L49.1478 -13.1534
L49.1318 -12.8597
L49.1655 -12.5863
L49.2488 -12.3334
L49.3793 -12.1003
L49.5528 -11.8862
L49.7642 -11.69
L50.0082 -11.5106
L50.7129 -11.3469
L51.1366 -11.5914
L51.5558 -11.8519
L51.9702 -12.1197
L52.3797 -12.3948
L52.7842 -12.6771
L53.1837 -12.9666
L53.5779 -13.263
L53.9667 -13.5664
L54.3501 -13.8766
L54.7279 -14.1935
L55.0999 -14.5171
L55.4662 -14.8472
L55.8265 -15.1837
L56.1808 -15.5266
L56.529 -15.8758
L56.8709 -16.231
L57.2064 -16.5923
L57.5355 -16.9595
L57.858 -17.3325
L58.1738 -17.7112
L58.4829 -18.0955
L58.7852 -18.4852
L59.0805 -18.8803
L59.3688 -19.2805
L59.6499 -19.6859
L59.9239 -20.0962
L60.1906 -20.5114
L60.4499 -20.9313
L60.7017 -21.3557
L60.946 -21.7847
L61.1828 -22.2179
L61.4118 -22.6554
L61.6332 -23.0969
L61.8467 -23.5424
L62.0523 -23.9917
L62.25 -24.4446
L62.4397 -24.901
L62.6214 -25.3608
L62.7949 -25.8239
L62.9603 -26.29
L63.1175 -26.7592
L63.2664 -27.2311
L63.407 -27.7057
L63.5392 -28.1828
L63.6631 -28.6623
L63.7785 -29.1441
L63.8855 -29.6279
L63.984 -30.1137
L64.0739 -30.6012
L64.1554 -31.0904
L64.2282 -31.5812
L64.2924 -32.0732
L64.348 -32.5665
L64.395 -33.0607
L64.4333 -33.5559
L64.463 -34.0519
L64.484 -34.5484
L64.4963 -35.0454
L64.5 -35.5426
L64.4949 -36.04
L64.4812 -36.5374
L64.4588 -37.0346
L64.4278 -37.5315
L64.388 -38.028
L64.3397 -38.5238
L64.2827 -39.0189
L64.217 -39.513
L64.1428 -40.0061
L64.06 -40.4979
L63.9687 -40.9884
L63.8689 -41.4773
L63.7605 -41.9646
L63.6437 -42.4501
L63.5185 -42.9336
L63.3849 -43.415
L63.243 -43.8941
L63.0927 -44.3709
L62.9342 -44.845
L62.7675 -45.3165
L62.5927 -45.7852
L62.4097 -46.2508
L62.2187 -46.7134
L62.0197 -47.1727
L61.8128 -47.6285
L61.5981 -48.0809
L61.3755 -48.5295
L61.1452 -48.9744
L60.9072 -49.4153
L60.6617 -49.8521
L60.4086 -50.2846
L60.1481 -50.7129
L59.8803 -51.1366
L59.6052 -51.5558
L59.3229 -51.9702
L59.0334 -52.3797
L58.737 -52.7842
L58.4336 -53.1837
L58.1234 -53.5779
L57.8065 -53.9667
L57.4829 -54.3501
L57.1528 -54.7279
L56.8163 -55.0999
L56.4734 -55.4662
L56.1242 -55.8265
L55.769 -56.1808
L55.4077 -56.529
L55.0405 -56.8709
L54.6675 -57.2064
L54.2888 -57.5355
L53.9045 -57.858
L53.5148 -58.1738
L53.1197 -58.4829
L52.7195 -58.7852
L52.3141 -59.0805
L51.9038 -59.3688
L51.4886 -59.6499
L51.0687 -59.9239
L50.6443 -60.1906
L50.2153 -60.4499
L49.7821 -60.7017
L49.3446 -60.946
L48.9031 -61.1828
L48.4576 -61.4118
L48.0083 -61.6332
L47.5554 -61.8467
L47.099 -62.0523
L46.6392 -62.25
L46.1761 -62.4397
L45.71 -62.6214
L45.2408 -62.7949
L44.7689 -62.9603
L44.2943 -63.1175
L43.8172 -63.2664
L43.3377 -63.407
L42.8559 -63.5392
L42.3721 -63.6631
L41.8863 -63.7785
L41.3988 -63.8855
L40.9096 -63.984
L40.4188 -64.0739
L39.9268 -64.1554
L39.4335 -64.2282
L38.9393 -64.2924
L38.4441 -64.348
L37.9481 -64.395
L37.4516 -64.4333
L36.9546 -64.463
L36.4574 -64.484
L35.96 -64.4963
L35.4626 -64.5
z
" id="C0_2_c0d619454a"/>
    </defs>
    <g clip-path="url(#p1bffca34e9)">
     <use style="fill:#ff0000;stroke:#000000;stroke-width:2.0;" x="0.0" xlink:href="#C0_0_a811fe30f3" y="72.0"/>
    </g>
    <g clip-path="url(#p1bffca34e9)">
     <use style="fill:#ffffff;stroke:#000000;stroke-width:2.0;" x="0.0" xlink:href="#C0_1_29a0b049ff" y="72.0"/>
    </g>
    <g clip-path="url(#p1bffca34e9)">
     <use style="fill:#ffffff;stroke:#000000;stroke-width:2.0;" x="0.0" xlink:href="#C0_2_c0d619454a" y="72.0"/>
    </g>
   </g>
  </g>
 </g>
 <defs>
  <clipPath id="p1bffca34e9">
   <rect height="72.0" width="72.0" x="0.0" y="0.0"/>
  </clipPath>
 </defs>
</svg>
