<?xml version="1.0" encoding="utf-8" standalone="no"?>
<!DOCTYPE svg PUBLIC "-//W3C//DTD SVG 1.1//EN"
  "http://www.w3.org/Graphics/SVG/1.1/DTD/svg11.dtd">
<!-- Created with matplotlib (http://matplotlib.org/) -->
<svg height="72pt" version="1.1" viewBox="0 0 72 72" width="72pt" xmlns="http://www.w3.org/2000/svg" xmlns:xlink="http://www.w3.org/1999/xlink">
 <defs>
  <style type="text/css">
*{stroke-linecap:butt;stroke-linejoin:round;}
  </style>
 </defs>
 <g id="figure_1">
  <g id="patch_1">
   <path d="
M0 72
L72 72
L72 0
L0 0
z
" style="fill:none;"/>
  </g>
  <g id="axes_1">
   <g id="PatchCollection_1">
    <defs>
     <path d="
M36 -7.5
C43.5583 -7.5 50.808 -10.5029 56.1525 -15.8475
C61.4971 -21.192 64.5 -28.4417 64.5 -36
C64.5 -43.5583 61.4971 -50.808 56.1525 -56.1525
C50.808 -61.4971 43.5583 -64.5 36 -64.5
C28.4417 -64.5 21.192 -61.4971 15.8475 -56.1525
C10.5029 -50.808 7.5 -43.5583 7.5 -36
C7.5 -28.4417 10.5029 -21.192 15.8475 -15.8475
C21.192 -10.5029 28.4417 -7.5 36 -7.5
z
" id="C0_0_a811fe30f3"/>
     <path d="
M21.3879 -60.3174
L21.5201 -60.1817
L21.6515 -60.0446
L21.7823 -59.906
L21.9125 -59.7659
L22.0422 -59.6244
L22.1713 -59.4813
L22.3 -59.3368
L22.4282 -59.1908
L22.6835 -59.0433
L22.8106 -58.8943
L22.9374 -58.7437
L23.064 -58.5917
L23.1904 -58.438
L23.3165 -58.2828
L23.4425 -58.126
L23.5684 -57.9675
L23.6941 -57.8074
L23.8198 -57.6457
L23.9455 -57.4822
L24.0711 -57.3171
L24.1968 -57.1501
L24.3225 -56.9814
L24.4482 -56.8109
L24.5741 -56.6385
L24.7001 -56.4643
L24.8262 -56.2881
L24.9524 -56.11
L25.0788 -55.9298
L25.2055 -55.7477
L25.3323 -55.5635
L25.4594 -55.3771
L25.5868 -55.1886
L25.7144 -54.9979
L25.8423 -54.805
L25.9706 -54.6098
L26.0991 -54.4123
L26.2279 -54.2124
L26.3571 -54.0101
L26.4866 -53.8053
L26.6165 -53.5981
L26.7467 -53.3882
L26.8773 -53.1758
L27.0082 -52.9607
L27.1394 -52.743
L27.271 -52.5225
L27.403 -52.2992
L27.5352 -52.0731
L27.6678 -51.8441
L27.8006 -51.6122
L27.9337 -51.3773
L28.0671 -51.1395
L28.2006 -50.8986
L28.3343 -50.6547
L28.4682 -50.4076
L28.6021 -50.1574
L28.7361 -49.904
L28.87 -49.6474
L29.0039 -49.3876
L29.1376 -49.1246
L29.271 -48.8583
L29.4041 -48.5887
L29.5368 -48.3158
L29.669 -48.0396
L29.8005 -47.7602
L29.9313 -47.4775
L30.0611 -47.1915
L30.1899 -46.9022
L30.3175 -46.6098
L30.4437 -46.3142
L30.5682 -46.0154
L30.691 -45.7135
L30.8118 -45.4086
L30.9304 -45.1008
L31.0464 -44.79
L31.1597 -44.4765
L31.2699 -44.1603
L31.3768 -43.8415
L31.4799 -43.5202
L31.579 -43.1966
L31.6737 -42.8709
L31.7637 -42.5431
L31.8484 -42.2135
L31.9275 -41.8822
L32.0007 -41.5494
L32.0673 -41.2154
L32.1271 -40.8803
L32.1794 -40.5444
L32.224 -40.2079
L32.2603 -39.871
L32.2878 -39.534
L32.3063 -39.1972
L32.3151 -38.8607
L32.3141 -38.525
L32.3028 -38.1901
L32.281 -37.8565
L32.2484 -37.5243
L32.2048 -37.1937
L32.1501 -36.8651
L32.0842 -36.5386
L32.0072 -36.2144
L31.9191 -35.8928
L31.8201 -35.574
L31.7102 -35.258
L31.59 -34.9451
L31.4595 -34.6354
L31.3192 -34.329
L31.1695 -34.026
L31.0109 -33.7266
L30.8438 -33.4308
L30.6686 -33.1386
L30.486 -32.8501
L30.2964 -32.5655
L30.1003 -32.2846
L29.8982 -32.0076
L29.6906 -31.7344
L29.4781 -31.4651
L29.261 -31.1997
L29.0399 -30.9382
L28.8152 -30.6806
L28.5873 -30.4269
L28.3565 -30.1771
L28.1233 -29.9311
L27.8881 -29.689
L27.6511 -29.4508
L27.4126 -29.2164
L27.173 -28.9857
L26.9325 -28.7588
L26.6914 -28.5357
L26.4498 -28.3163
L26.2081 -28.1006
L25.9664 -27.8885
L25.7248 -27.68
L25.4836 -27.4751
L25.2429 -27.2737
L25.0027 -27.0758
L24.7634 -26.8814
L24.5249 -26.6903
L24.2873 -26.5026
L24.0508 -26.3183
L23.8153 -26.1372
L23.5811 -25.9593
L23.3481 -25.7846
L23.1164 -25.613
L22.886 -25.4444
L22.657 -25.2789
L22.4293 -25.1164
L22.2031 -24.9568
L21.9784 -24.8001
L21.755 -24.6462
L21.5332 -24.495
L21.3128 -24.3467
L21.0938 -24.201
L20.8764 -24.0579
L20.6603 -23.9174
L20.4457 -23.7795
L20.2325 -23.6441
L20.0208 -23.5111
L19.8104 -23.3805
L19.6014 -23.2523
L19.3937 -23.1265
L19.1874 -23.0029
L18.9823 -22.8816
L18.7786 -22.7625
L18.576 -22.6456
L18.3747 -22.5308
L18.1746 -22.4181
L17.9755 -22.3075
L17.7777 -22.1989
L17.5808 -22.0924
L17.3851 -21.9878
L17.1903 -21.8852
L16.9965 -21.7845
L16.8037 -21.6857
L16.6117 -21.5888
L16.4206 -21.4937
L16.2304 -21.4005
L16.0409 -21.3091
L15.8522 -21.2195
L15.6641 -21.1317
L15.4768 -21.0457
L15.2901 -20.9614
L15.104 -20.8788
L14.9184 -20.7981
L14.7334 -20.719
L14.5488 -20.6417
L14.3647 -20.5661
L14.1809 -20.4922
L13.9976 -20.42
L13.8145 -20.3496
L13.6317 -20.2809
L13.4492 -20.2139
L13.2669 -20.1487
L13.0847 -20.0853
L12.9026 -20.0236
L12.7206 -19.9638
L12.5387 -19.9057
L12.2461 -19.8495
L11.9749 -20.2519
L11.711 -20.6689
L11.4545 -21.0905
L11.2054 -21.5167
L10.964 -21.9473
L10.7301 -22.3821
L10.504 -22.8211
L10.2856 -23.2642
L10.075 -23.7111
L9.87235 -24.1617
L9.67765 -24.616
L9.49097 -25.0737
L9.31236 -25.5348
L9.14189 -25.999
L8.97959 -26.4663
L8.82553 -26.9365
L8.67974 -27.4094
L8.54227 -27.885
L8.41317 -28.363
L8.29247 -28.8434
L8.18022 -29.3259
L8.07643 -29.8105
L7.98115 -30.297
L7.89441 -30.7852
L7.81623 -31.275
L7.74663 -31.7662
L7.68564 -32.2587
L7.63327 -32.7524
L7.58955 -33.247
L7.55448 -33.7425
L7.52807 -34.2387
L7.51034 -34.7354
L7.50128 -35.2325
L7.50091 -35.7298
L7.50921 -36.2273
L7.5262 -36.7246
L7.55186 -37.2217
L7.58618 -37.7185
L7.62916 -38.2147
L7.68078 -38.7102
L7.74103 -39.205
L7.80988 -39.6987
L7.88733 -40.1913
L7.97333 -40.6827
L8.06788 -41.1726
L8.17093 -41.661
L8.28246 -42.1476
L8.40243 -42.6323
L8.53081 -43.1151
L8.66755 -43.5956
L8.81262 -44.0739
L8.96598 -44.5497
L9.12756 -45.0228
L9.29734 -45.4933
L9.47524 -45.9608
L9.66123 -46.4253
L9.85524 -46.8867
L10.0572 -47.3447
L10.2671 -47.7992
L10.4848 -48.2502
L10.7103 -48.6974
L10.9435 -49.1408
L11.1843 -49.5802
L11.4327 -50.0154
L11.6886 -50.4464
L11.9518 -50.8729
L12.2224 -51.2949
L12.5003 -51.7123
L12.7853 -52.1249
L13.0773 -52.5326
L13.3764 -52.9352
L13.6823 -53.3327
L13.9951 -53.7249
L14.3145 -54.1117
L14.6406 -54.4929
L14.9731 -54.8686
L15.3121 -55.2385
L15.6573 -55.6025
L16.0088 -55.9606
L16.3663 -56.3126
L16.7299 -56.6584
L17.0993 -56.9979
L17.4744 -57.331
L17.8552 -57.6576
L18.2415 -57.9776
L18.6333 -58.291
L19.0303 -58.5975
L19.4325 -58.8972
L19.8397 -59.1898
L20.2519 -59.4754
L20.6689 -59.7539
z
" id="C0_1_46d0c45e57"/>
     <path d="
M59.3726 -52.0194
L59.2544 -51.8678
L59.135 -51.7153
L59.0143 -51.5618
L58.8924 -51.4073
L58.7692 -51.2517
L58.6446 -51.095
L58.5187 -50.9372
L58.3914 -50.7782
L58.2627 -50.618
L58.1326 -50.4566
L58.001 -50.2938
L57.8679 -50.1298
L57.7333 -49.9644
L57.5972 -49.7976
L57.4594 -49.6294
L57.3201 -49.4597
L57.1792 -49.2884
L57.0366 -49.1157
L56.8923 -48.9413
L56.7463 -48.7653
L56.5986 -48.5876
L56.4491 -48.4081
L56.2978 -48.2269
L56.1448 -48.0439
L55.9899 -47.859
L55.8331 -47.6723
L55.6744 -47.4836
L55.5139 -47.2929
L55.3515 -47.1001
L55.1871 -46.9053
L55.0208 -46.7084
L54.8526 -46.5094
L54.6824 -46.3081
L54.5102 -46.1046
L54.3361 -45.8988
L54.1601 -45.6907
L53.9821 -45.4802
L53.8022 -45.2673
L53.6204 -45.052
L53.4368 -44.8342
L53.2512 -44.6138
L53.0639 -44.3909
L52.8748 -44.1655
L52.6841 -43.9374
L52.4916 -43.7066
L52.2977 -43.4732
L52.1022 -43.2371
L51.9053 -42.9982
L51.7072 -42.7566
L51.5079 -42.5121
L51.3076 -42.2649
L51.1065 -42.0149
L50.9046 -41.762
L50.7022 -41.5062
L50.4995 -41.2476
L50.2966 -40.9861
L50.0939 -40.7217
L49.8916 -40.4544
L49.6899 -40.1841
L49.4891 -39.911
L49.2897 -39.635
L49.0919 -39.356
L48.896 -39.0742
L48.7025 -38.7894
L48.5118 -38.5017
L48.3242 -38.2111
L48.1403 -37.9177
L47.9605 -37.6213
L47.7853 -37.3221
L47.615 -37.0201
L47.4504 -36.7153
L47.2917 -36.4076
L47.1395 -36.0972
L46.9943 -35.7841
L46.8564 -35.4683
L46.7264 -35.1499
L46.6046 -34.8289
L46.4914 -34.5055
L46.387 -34.1797
L46.2918 -33.8516
L46.2059 -33.5213
L46.1294 -33.1889
L46.0625 -32.8547
L46.005 -32.5187
L45.9571 -32.1811
L45.9184 -31.8421
L45.889 -31.5019
L45.8684 -31.1607
L45.8565 -30.8187
L45.853 -30.4761
L45.8574 -30.1331
L45.8693 -29.79
L45.8885 -29.4469
L45.9144 -29.1042
L45.9467 -28.762
L45.9848 -28.4205
L46.0285 -28.0799
L46.0772 -27.7405
L46.1305 -27.4025
L46.1881 -27.0659
L46.2495 -26.7311
L46.3145 -26.3981
L46.3826 -26.0671
L46.4535 -25.7383
L46.527 -25.4118
L46.6026 -25.0877
L46.6802 -24.7662
L46.7595 -24.4473
L46.8402 -24.1311
L46.9221 -23.8177
L47.0051 -23.5072
L47.0889 -23.1997
L47.1733 -22.8952
L47.2583 -22.5938
L47.3436 -22.2954
L47.4291 -22.0002
L47.5147 -21.7081
L47.6003 -21.4192
L47.6858 -21.1334
L47.7711 -20.8509
L47.8561 -20.5715
L47.9407 -20.2953
L48.0249 -20.0223
L48.1086 -19.7524
L48.1918 -19.4857
L48.2744 -19.2221
L48.3564 -18.9615
L48.4377 -18.704
L48.5183 -18.4496
L48.5983 -18.1981
L48.6774 -17.9496
L48.7558 -17.704
L48.8335 -17.4612
L48.9103 -17.2213
L48.9864 -16.9842
L49.0616 -16.7498
L49.136 -16.5181
L49.2097 -16.289
L49.2825 -16.0625
L49.3545 -15.8386
L49.4256 -15.6172
L49.496 -15.3983
L49.5656 -15.1817
L49.6343 -14.9675
L49.7023 -14.7556
L49.7695 -14.546
L49.8359 -14.3385
L49.9016 -14.1333
L49.9664 -13.9301
L50.0306 -13.729
L50.094 -13.5299
L50.1566 -13.3328
L50.2186 -13.1376
L50.2798 -12.9442
L50.3404 -12.7528
L50.4003 -12.5631
L50.4595 -12.3751
L50.518 -12.1888
L50.5759 -12.0042
L50.6332 -11.8213
L51.1411 -11.6398
L51.5602 -11.8547
L51.9745 -12.1226
L52.384 -12.3978
L52.7885 -12.6802
L53.1879 -12.9697
L53.582 -13.2662
L53.9708 -13.5696
L54.3541 -13.8799
L54.7318 -14.1969
L55.1039 -14.5205
L55.4701 -14.8507
L55.8303 -15.1873
L56.1845 -15.5303
L56.5326 -15.8795
L56.8744 -16.2348
L57.2099 -16.5962
L57.5389 -16.9635
L57.8614 -17.3365
L58.1771 -17.7153
L58.4862 -18.0996
L58.7883 -18.4894
L59.0836 -18.8845
L59.3718 -19.2848
L59.6529 -19.6902
L59.9267 -20.1006
L60.1933 -20.5158
L60.4526 -20.9357
L60.7043 -21.3603
L60.9486 -21.7892
L61.1852 -22.2226
L61.4142 -22.6601
L61.6355 -23.1016
L61.8489 -23.5471
L62.0544 -23.9964
L62.2521 -24.4494
L62.4417 -24.9059
L62.6232 -25.3657
L62.7967 -25.8288
L62.962 -26.295
L63.1191 -26.7641
L63.2679 -27.2361
L63.4084 -27.7107
L63.5406 -28.1879
L63.6643 -28.6674
L63.7797 -29.1492
L63.8866 -29.633
L63.985 -30.1188
L64.0748 -30.6064
L64.1562 -31.0956
L64.2289 -31.5864
L64.293 -32.0784
L64.3486 -32.5717
L64.3955 -33.066
L64.4337 -33.5612
L64.4633 -34.0571
L64.4842 -34.5537
L64.4964 -35.0506
L64.5 -35.5479
L64.4948 -36.0453
L64.481 -36.5427
L64.4585 -37.0399
L64.4274 -37.5368
L64.3876 -38.0332
L64.3391 -38.5291
L64.282 -39.0241
L64.2163 -39.5182
L64.142 -40.0113
L64.0591 -40.5031
L63.9677 -40.9936
L63.8678 -41.4825
L63.7593 -41.9698
L63.6424 -42.4552
L63.5171 -42.9387
L63.3834 -43.4201
L63.2414 -43.8992
L63.0911 -44.3759
L62.9325 -44.85
L62.7657 -45.3215
L62.5908 -45.7901
L62.4077 -46.2558
L62.2167 -46.7183
L62.0176 -47.1775
L61.8106 -47.6334
L61.5957 -48.0857
L61.3731 -48.5343
L61.1427 -48.9791
L60.9047 -49.4199
L60.659 -49.8567
L60.4059 -50.2892
L60.1453 -50.7174
L59.8774 -51.1411
z
" id="C0_2_c92c55c23c"/>
    </defs>
    <g clip-path="url(#p1bffca34e9)">
     <use style="fill:#ffffff;stroke:#000000;stroke-width:2.0;" x="0.0" xlink:href="#C0_0_a811fe30f3" y="72.0"/>
    </g>
    <g clip-path="url(#p1bffca34e9)">
     <use style="fill:#ff0000;stroke:#000000;stroke-width:2.0;" x="0.0" xlink:href="#C0_1_46d0c45e57" y="72.0"/>
    </g>
    <g clip-path="url(#p1bffca34e9)">
     <use style="fill:#ff0000;stroke:#000000;stroke-width:2.0;" x="0.0" xlink:href="#C0_2_c92c55c23c" y="72.0"/>
    </g>
   </g>
  </g>
 </g>
 <defs>
  <clipPath id="p1bffca34e9">
   <rect height="72.0" width="72.0" x="0.0" y="0.0"/>
  </clipPath>
 </defs>
</svg>
