<?xml version="1.0" encoding="utf-8" standalone="no"?>
<!DOCTYPE svg PUBLIC "-//W3C//DTD SVG 1.1//EN"
  "http://www.w3.org/Graphics/SVG/1.1/DTD/svg11.dtd">
<!-- Created with matplotlib (http://matplotlib.org/) -->
<svg height="72pt" version="1.1" viewBox="0 0 72 72" width="72pt" xmlns="http://www.w3.org/2000/svg" xmlns:xlink="http://www.w3.org/1999/xlink">
 <defs>
  <style type="text/css">
*{stroke-linecap:butt;stroke-linejoin:round;}
  </style>
 </defs>
 <g id="figure_1">
  <g id="patch_1">
   <path d="
M0 72
L72 72
L72 0
L0 0
z
" style="fill:none;"/>
  </g>
  <g id="axes_1">
   <g id="PatchCollection_1">
    <defs>
     <path d="
M36 -7.5
C43.5583 -7.5 50.808 -10.5029 56.1525 -15.8475
C61.4971 -21.192 64.5 -28.4417 64.5 -36
C64.5 -43.5583 61.4971 -50.808 56.1525 -56.1525
C50.808 -61.4971 43.5583 -64.5 36 -64.5
C28.4417 -64.5 21.192 -61.4971 15.8475 -56.1525
C10.5029 -50.808 7.5 -43.5583 7.5 -36
C7.5 -28.4417 10.5029 -21.192 15.8475 -15.8475
C21.192 -10.5029 28.4417 -7.5 36 -7.5
z
" id="C0_0_a811fe30f3"/>
     <path d="
M59.1167 -19.4975
L58.9674 -19.6514
L58.8161 -19.8034
L58.6629 -19.9536
L58.5078 -20.102
L58.3509 -20.2487
L58.1924 -20.3939
L58.0324 -20.5376
L57.8708 -20.6798
L57.7078 -20.8207
L57.5435 -20.9602
L57.3778 -21.0984
L57.2109 -21.2355
L57.0428 -21.3714
L56.8736 -21.5062
L56.7032 -21.6399
L56.5317 -21.7727
L56.3592 -21.9045
L56.1856 -22.0354
L56.011 -22.1654
L55.8355 -22.2946
L55.659 -22.423
L55.4816 -22.5507
L55.3032 -22.6776
L55.1239 -22.8039
L54.9437 -22.9295
L54.7625 -23.0546
L54.5805 -23.1791
L54.3975 -23.303
L54.2137 -23.4264
L54.0289 -23.5494
L53.8432 -23.6719
L53.6566 -23.794
L53.4691 -23.9158
L53.2806 -24.0371
L53.0911 -24.1582
L52.9007 -24.2789
L52.7093 -24.3993
L52.5169 -24.5195
L52.3234 -24.6395
L51.9334 -24.7593
L51.7368 -24.8789
L51.5391 -24.9983
L51.3403 -25.1176
L51.1404 -25.2368
L50.9392 -25.3559
L50.7369 -25.4749
L50.5333 -25.5939
L50.3285 -25.7128
L50.1224 -25.8317
L49.915 -25.9506
L49.7062 -26.0696
L49.4961 -26.1885
L49.2846 -26.3076
L49.0717 -26.4266
L48.8573 -26.5458
L48.6413 -26.6651
L48.4239 -26.7845
L48.2049 -26.904
L47.9843 -27.0236
L47.7621 -27.1434
L47.5382 -27.2633
L47.3126 -27.3834
L47.0853 -27.5036
L46.8562 -27.624
L46.6253 -27.7446
L46.3926 -27.8653
L46.158 -27.9863
L45.9215 -28.1074
L45.6831 -28.2287
L45.4427 -28.3501
L45.2003 -28.4717
L44.9559 -28.5935
L44.7094 -28.7154
L44.4609 -28.8374
L44.2102 -28.9596
L43.9573 -29.0818
L43.7023 -29.2042
L43.4451 -29.3266
L43.1857 -29.449
L42.924 -29.5714
L42.6601 -29.6938
L42.3939 -29.8161
L42.1254 -29.9383
L41.8546 -30.0603
L41.5815 -30.1821
L41.3061 -30.3037
L41.0283 -30.4249
L40.7482 -30.5457
L40.4658 -30.666
L40.1811 -30.7859
L39.8941 -30.905
L39.6048 -31.0235
L39.3132 -31.1411
L39.0194 -31.2578
L38.7233 -31.3734
L38.4251 -31.4879
L38.1247 -31.6011
L37.8222 -31.7129
L37.5177 -31.8231
L37.2112 -31.9315
L36.9027 -32.038
L36.5924 -32.1424
L36.2803 -32.2446
L35.9665 -32.3442
L35.6511 -32.4412
L35.3342 -32.5353
L35.0158 -32.6262
L34.6962 -32.7138
L34.3754 -32.7977
L34.0535 -32.8777
L33.7308 -32.9535
L33.4072 -33.0249
L33.083 -33.0916
L32.7583 -33.1532
L32.4333 -33.2095
L32.1082 -33.2601
L31.7831 -33.3049
L31.4581 -33.3434
L31.1336 -33.3753
L30.8096 -33.4004
L30.4865 -33.4184
L30.1642 -33.429
L29.8431 -33.432
L29.5234 -33.427
L29.2052 -33.4139
L28.8888 -33.3924
L28.5744 -33.3624
L28.2621 -33.3237
L27.9521 -33.2762
L27.6447 -33.2198
L27.34 -33.1544
L27.0381 -33.08
L26.7394 -32.9967
L26.4439 -32.9044
L26.1518 -32.8032
L25.8633 -32.6933
L25.5785 -32.5747
L25.2975 -32.4477
L25.0206 -32.3125
L24.7477 -32.1692
L24.479 -32.0181
L24.2146 -31.8595
L23.9547 -31.6936
L23.6992 -31.5207
L23.4483 -31.3412
L23.2021 -31.1553
L22.9606 -30.9634
L22.7238 -30.7657
L22.4919 -30.5626
L22.2647 -30.3544
L22.0425 -30.1414
L21.8252 -29.924
L21.6128 -29.7023
L21.4053 -29.4767
L21.2027 -29.2475
L21.0051 -29.015
L20.8125 -28.7794
L20.6247 -28.5409
L20.4419 -28.2999
L20.264 -28.0565
L20.0909 -27.811
L19.9227 -27.5635
L19.7593 -27.3143
L19.6007 -27.0636
L19.4469 -26.8115
L19.2978 -26.5583
L19.1534 -26.304
L19.0136 -26.0487
L18.8784 -25.7928
L18.7478 -25.5362
L18.6217 -25.279
L18.5001 -25.0215
L18.3829 -24.7637
L18.2701 -24.5057
L18.1616 -24.2475
L18.0575 -23.9893
L17.9576 -23.7311
L17.8619 -23.473
L17.7704 -23.2151
L17.683 -22.9573
L17.5996 -22.6998
L17.5204 -22.4426
L17.4451 -22.1857
L17.3738 -21.9292
L17.3065 -21.673
L17.243 -21.4173
L17.1834 -21.162
L17.1277 -20.9071
L17.0757 -20.6527
L17.0275 -20.3988
L16.9831 -20.1453
L16.9424 -19.8923
L16.9055 -19.6397
L16.8722 -19.3877
L16.8426 -19.1361
L16.8167 -18.8849
L16.7944 -18.6343
L16.7758 -18.384
L16.7608 -18.1342
L16.7494 -17.8848
L16.7417 -17.6358
L16.7376 -17.3871
L16.7372 -17.1389
L16.7404 -16.8909
L16.7473 -16.6433
L16.7579 -16.396
L16.7722 -16.149
L16.7902 -15.9022
L16.812 -15.6557
L16.8375 -15.4093
L16.8669 -15.1632
L17.2182 -14.9172
L17.5952 -14.5642
L17.9777 -14.2397
L18.3658 -13.9218
L18.7592 -13.6106
L19.1579 -13.3063
L19.5617 -13.0088
L19.9706 -12.7184
L20.3843 -12.435
L20.8027 -12.1589
L21.2258 -11.89
L21.6534 -11.6284
L22.0854 -11.3743
L22.5216 -11.1277
L22.9619 -10.8886
L23.4062 -10.6572
L23.8543 -10.4335
L24.3061 -10.2176
L24.7615 -10.0096
L25.2203 -9.80944
L25.6824 -9.61729
L26.1476 -9.43317
L26.6158 -9.25715
L27.0869 -9.08928
L27.5607 -8.9296
L28.0371 -8.77817
L28.5159 -8.63503
L28.9969 -8.50022
L29.4802 -8.37379
L29.9654 -8.25578
L30.4524 -8.14622
L30.9411 -8.04514
L31.4314 -7.95258
L31.923 -7.86856
L32.4159 -7.79312
L32.9099 -7.72626
L33.4049 -7.66801
L33.9006 -7.6184
L34.3969 -7.57743
L34.8938 -7.54512
L35.391 -7.52148
L35.8883 -7.50651
L36.3858 -7.50022
L36.883 -7.50261
L37.3801 -7.51368
L37.8767 -7.53343
L38.3727 -7.56185
L38.868 -7.59894
L39.3624 -7.64467
L39.8558 -7.69904
L40.3481 -7.76204
L40.839 -7.83363
L41.3284 -7.91381
L41.8162 -8.00254
L42.3023 -8.09979
L42.7864 -8.20555
L43.2684 -8.31977
L43.7483 -8.44243
L44.2258 -8.57348
L44.7007 -8.71288
L45.1731 -8.8606
L45.6426 -9.01658
L46.1092 -9.18078
L46.5727 -9.35315
L47.033 -9.53364
L47.4899 -9.72219
L47.9433 -9.91874
L48.3931 -10.1232
L48.8391 -10.3356
L49.2813 -10.5558
L49.7193 -10.7838
L50.1532 -11.0194
L50.5828 -11.2626
L51.0079 -11.5134
L51.4285 -11.7716
L51.8443 -12.0373
L52.2553 -12.3102
L52.6614 -12.5903
L53.0624 -12.8776
L53.4582 -13.1719
L53.8487 -13.4731
L54.2338 -13.7812
L54.6133 -14.0961
L54.9871 -14.4177
L55.3551 -14.7458
L55.7173 -15.0804
L56.0734 -15.4214
L56.4235 -15.7687
L56.7673 -16.1221
L57.1048 -16.4815
L57.4358 -16.847
L57.7603 -17.2182
L58.0782 -17.5952
L58.3894 -17.9777
L58.6937 -18.3658
z
" id="C0_1_a52d9a8d63"/>
     <path d="
M54.9251 -57.1334
L54.6773 -57.138
L54.4293 -57.1404
L54.1813 -57.1407
L53.9332 -57.1389
L53.6849 -57.1349
L53.4365 -57.129
L53.1878 -57.121
L52.9388 -57.1109
L52.6896 -57.0989
L52.4399 -57.0848
L52.19 -57.0688
L51.9395 -57.0508
L51.6887 -57.0308
L51.4373 -57.0089
L51.1854 -56.9851
L50.933 -56.9593
L50.6799 -56.9316
L50.4261 -56.902
L50.1717 -56.8704
L49.9166 -56.837
L49.6606 -56.8016
L49.4039 -56.7643
L49.1463 -56.725
L48.8878 -56.6839
L48.6284 -56.6408
L48.368 -56.5958
L48.1066 -56.5489
L47.8441 -56.5001
L47.5806 -56.4492
L47.3159 -56.3965
L47.0501 -56.3418
L46.7831 -56.2851
L46.5148 -56.2265
L46.2453 -56.1659
L45.9744 -56.1033
L45.7022 -56.0388
L45.4287 -55.9722
L45.1537 -55.9036
L44.8773 -55.8331
L44.5994 -55.7605
L44.32 -55.6859
L44.0391 -55.6093
L43.7566 -55.5306
L43.4725 -55.45
L43.1869 -55.3673
L42.8995 -55.2826
L42.6106 -55.1958
L42.3199 -55.1071
L42.0276 -55.0163
L41.7335 -54.9236
L41.4378 -54.8289
L41.1403 -54.7322
L40.841 -54.6335
L40.5401 -54.533
L40.2373 -54.4306
L39.9328 -54.3263
L39.6266 -54.2202
L39.3186 -54.1123
L39.0089 -54.0027
L38.6975 -53.8915
L38.3843 -53.7787
L38.0695 -53.6643
L37.753 -53.5485
L37.4348 -53.4314
L37.115 -53.313
L36.7937 -53.1934
L36.4708 -53.0728
L36.1464 -52.9513
L35.8205 -52.8291
L35.4933 -52.7062
L35.1646 -52.5828
L34.8347 -52.4592
L34.5035 -52.3354
L34.1711 -52.2117
L33.8376 -52.0884
L33.503 -51.9655
L33.1675 -51.8434
L32.831 -51.7223
L32.4938 -51.6025
L32.1558 -51.4841
L31.8171 -51.3675
L31.4779 -51.2531
L31.1382 -51.1409
L30.7981 -51.0314
L30.4577 -50.9249
L30.1171 -50.8216
L29.7764 -50.7219
L29.4357 -50.626
L29.0951 -50.5343
L28.7547 -50.447
L28.4146 -50.3643
L28.0749 -50.2866
L27.7357 -50.214
L27.3971 -50.1469
L27.0593 -50.0853
L26.7222 -50.0294
L26.3861 -49.9794
L26.0511 -49.9354
L25.7172 -49.8974
L25.3846 -49.8656
L25.0534 -49.8399
L24.7237 -49.8203
L24.3956 -49.8068
L24.0692 -49.7993
L23.7446 -49.7977
L23.4219 -49.8018
L23.1013 -49.8117
L22.7829 -49.827
L22.4667 -49.8476
L22.1528 -49.8733
L21.8414 -49.9039
L21.5326 -49.9392
L21.2263 -49.9789
L20.9228 -50.0229
L20.6221 -50.0709
L20.3243 -50.1226
L20.0294 -50.1779
L19.7376 -50.2365
L19.4488 -50.2982
L19.1632 -50.3628
L18.8808 -50.43
L18.6017 -50.4997
L18.3258 -50.5716
L18.0533 -50.6457
L17.7841 -50.7216
L17.5183 -50.7992
L17.256 -50.8785
L16.997 -50.9591
L16.7415 -51.041
L16.4895 -51.124
L16.2409 -51.2081
L15.9958 -51.293
L15.7541 -51.3787
L15.5159 -51.4651
L15.2812 -51.5521
L15.0498 -51.6395
L14.8219 -51.7274
L14.5974 -51.8156
L14.3762 -51.9041
L14.1584 -51.9928
L13.9439 -52.0816
L13.7327 -52.1705
L13.5248 -52.2595
L13.3201 -52.3486
L13.1186 -52.4375
L13.1212 -52.5265
L13.4213 -52.9944
L13.7282 -53.3911
L14.042 -53.7825
L14.3624 -54.1685
L14.6894 -54.549
L15.0229 -54.9238
L15.3628 -55.2928
L15.709 -55.656
L16.0614 -56.0131
L16.4198 -56.3642
L16.7842 -56.7091
L17.1545 -57.0477
L17.5305 -57.3798
L17.9121 -57.7055
L18.2993 -58.0245
L18.6918 -58.3368
L19.0896 -58.6423
L19.4925 -58.941
L19.9005 -59.2326
L20.3134 -59.5172
L20.7311 -59.7945
L21.1534 -60.0647
L21.5802 -60.3275
L22.0114 -60.5829
L22.4469 -60.8308
L22.8865 -61.0712
L23.3301 -61.3039
L23.7776 -61.5289
L24.2288 -61.7461
L24.6836 -61.9555
L25.1418 -62.157
L25.6033 -62.3505
L26.068 -62.536
L26.5358 -62.7134
L27.0064 -62.8827
L27.4797 -63.0438
L27.9557 -63.1966
L28.4341 -63.3412
L28.9148 -63.4774
L29.3976 -63.6052
L29.8825 -63.7247
L30.3692 -63.8357
L30.8577 -63.9382
L31.3477 -64.0322
L31.8391 -64.1177
L32.3318 -64.1946
L32.8256 -64.263
L33.3204 -64.3227
L33.816 -64.3738
L34.3123 -64.4162
L34.809 -64.45
L35.3062 -64.4751
L35.8035 -64.4916
L36.301 -64.4993
L36.7983 -64.4984
L37.2954 -64.4888
L37.792 -64.4705
L38.2882 -64.4436
L38.7836 -64.408
L39.2782 -64.3637
L39.7718 -64.3108
L40.2642 -64.2493
L40.7554 -64.1792
L41.2451 -64.1005
L41.7332 -64.0132
L42.2195 -63.9174
L42.704 -63.8131
L43.1864 -63.7003
L43.6666 -63.5791
L44.1445 -63.4495
L44.6199 -63.3115
L45.0927 -63.1652
L45.5627 -63.0106
L46.0298 -62.8478
L46.4939 -62.6768
L46.9547 -62.4977
L47.4122 -62.3105
L47.8663 -62.1153
L48.3167 -61.9122
L48.7634 -61.7011
L49.2062 -61.4823
L49.6449 -61.2556
L50.0795 -61.0213
L50.5098 -60.7794
L50.9357 -60.5299
L51.3571 -60.2729
L51.7737 -60.0085
L52.1856 -59.7369
L52.5925 -59.458
L52.9944 -59.1719
L53.3911 -58.8788
L53.7825 -58.5787
L54.1685 -58.2718
L54.549 -57.958
z
" id="C0_2_8510b0ab2d"/>
    </defs>
    <g clip-path="url(#p1bffca34e9)">
     <use style="fill:#ff0000;stroke:#000000;stroke-width:2.0;" x="0.0" xlink:href="#C0_0_a811fe30f3" y="72.0"/>
    </g>
    <g clip-path="url(#p1bffca34e9)">
     <use style="fill:#ffffff;stroke:#000000;stroke-width:2.0;" x="0.0" xlink:href="#C0_1_a52d9a8d63" y="72.0"/>
    </g>
    <g clip-path="url(#p1bffca34e9)">
     <use style="fill:#ffffff;stroke:#000000;stroke-width:2.0;" x="0.0" xlink:href="#C0_2_8510b0ab2d" y="72.0"/>
    </g>
   </g>
  </g>
 </g>
 <defs>
  <clipPath id="p1bffca34e9">
   <rect height="72.0" width="72.0" x="0.0" y="0.0"/>
  </clipPath>
 </defs>
</svg>
