<?xml version="1.0" encoding="utf-8" standalone="no"?>
<!DOCTYPE svg PUBLIC "-//W3C//DTD SVG 1.1//EN"
  "http://www.w3.org/Graphics/SVG/1.1/DTD/svg11.dtd">
<!-- Created with matplotlib (http://matplotlib.org/) -->
<svg height="72pt" version="1.1" viewBox="0 0 72 72" width="72pt" xmlns="http://www.w3.org/2000/svg" xmlns:xlink="http://www.w3.org/1999/xlink">
 <defs>
  <style type="text/css">
*{stroke-linecap:butt;stroke-linejoin:round;}
  </style>
 </defs>
 <g id="figure_1">
  <g id="patch_1">
   <path d="
M0 72
L72 72
L72 0
L0 0
z
" style="fill:none;"/>
  </g>
  <g id="axes_1">
   <g id="PatchCollection_1">
    <defs>
     <path d="
M36 -7.5
C43.5583 -7.5 50.808 -10.5029 56.1525 -15.8475
C61.4971 -21.192 64.5 -28.4417 64.5 -36
C64.5 -43.5583 61.4971 -50.808 56.1525 -56.1525
C50.808 -61.4971 43.5583 -64.5 36 -64.5
C28.4417 -64.5 21.192 -61.4971 15.8475 -56.1525
C10.5029 -50.808 7.5 -43.5583 7.5 -36
C7.5 -28.4417 10.5029 -21.192 15.8475 -15.8475
C21.192 -10.5029 28.4417 -7.5 36 -7.5
z
" id="C0_0_a811fe30f3"/>
     <path d="
M33.4913 -64.3384
L33.4597 -64.0874
L33.4192 -63.8333
L33.3707 -63.5763
L33.315 -63.3167
L33.2528 -63.0546
L33.1849 -62.7902
L33.112 -62.5238
L33.0347 -62.2556
L32.9535 -61.9857
L32.869 -61.7143
L32.7817 -61.4416
L32.6919 -61.1677
L32.6001 -60.8929
L32.5067 -60.6171
L32.412 -60.3407
L32.3162 -60.0637
L32.2197 -59.7862
L32.1226 -59.5084
L32.0253 -59.2303
L31.9278 -58.9522
L31.8304 -58.674
L31.7332 -58.3958
L31.6363 -58.1179
L31.5399 -57.8401
L31.4441 -57.5627
L31.349 -57.2856
L31.2546 -57.009
L31.161 -56.7328
L31.0683 -56.4572
L30.9766 -56.1822
L30.8858 -55.9077
L30.7961 -55.634
L30.7073 -55.3609
L30.6197 -55.0885
L30.5332 -54.8168
L30.4477 -54.5459
L30.3634 -54.2757
L30.2803 -54.0063
L30.1982 -53.7377
L30.1173 -53.4698
L30.0376 -53.2027
L29.9589 -52.9364
L29.8814 -52.6708
L29.805 -52.406
L29.7297 -52.1419
L29.6556 -51.8785
L29.5825 -51.6159
L29.5105 -51.3539
L29.4395 -51.0926
L29.3696 -50.8319
L29.3008 -50.5719
L29.233 -50.3125
L29.1661 -50.0536
L29.1003 -49.7952
L29.0355 -49.5374
L28.9716 -49.28
L28.9086 -49.0231
L28.8466 -48.7666
L28.7855 -48.5104
L28.7254 -48.2546
L28.666 -47.9991
L28.6076 -47.7438
L28.55 -47.4888
L28.4933 -47.234
L28.4373 -46.9793
L28.3822 -46.7246
L28.3279 -46.4701
L28.2744 -46.2156
L28.2216 -45.961
L28.1696 -45.7064
L28.1184 -45.4517
L28.0678 -45.1968
L28.018 -44.9417
L27.9689 -44.6863
L27.8728 -44.4307
L27.8258 -44.1747
L27.7794 -43.9184
L27.7337 -43.6616
L27.6887 -43.4043
L27.6443 -43.1465
L27.6005 -42.8882
L27.5574 -42.6292
L27.5148 -42.3695
L27.4729 -42.1092
L27.4316 -41.848
L27.3909 -41.5861
L27.3508 -41.3233
L27.3113 -41.0596
L27.2724 -40.7949
L27.234 -40.5292
L27.1963 -40.2625
L27.1591 -39.9947
L27.1224 -39.7257
L27.0864 -39.4555
L27.0509 -39.1841
L27.016 -38.9114
L26.9816 -38.6373
L26.9478 -38.3619
L26.9146 -38.085
L26.8819 -37.8067
L26.8498 -37.5268
L26.8182 -37.2454
L26.7872 -36.9624
L26.7567 -36.6778
L26.7268 -36.3914
L26.6974 -36.1034
L26.6686 -35.8136
L26.6403 -35.522
L26.6126 -35.2286
L26.5854 -34.9333
L26.5587 -34.6362
L26.5326 -34.3371
L26.507 -34.0362
L26.4819 -33.7332
L26.4573 -33.4284
L26.4332 -33.1215
L26.4096 -32.8127
L26.3865 -32.5019
L26.3639 -32.1891
L26.3417 -31.8743
L26.3199 -31.5576
L26.2985 -31.2389
L26.2775 -30.9183
L26.2568 -30.5957
L26.2364 -30.2714
L26.2163 -29.9452
L26.1963 -29.6172
L26.1765 -29.2876
L26.1569 -28.9563
L26.1372 -28.6234
L26.1174 -28.2891
L26.0975 -27.9535
L26.0774 -27.6166
L26.0569 -27.2786
L26.0359 -26.9397
L26.0143 -26.5999
L25.9918 -26.2595
L25.9685 -25.9186
L25.9439 -25.5775
L25.9181 -25.2364
L25.8906 -24.8954
L25.8613 -24.5549
L25.8298 -24.2152
L25.7959 -23.8765
L25.7593 -23.5391
L25.7196 -23.2034
L25.6763 -22.8698
L25.6292 -22.5386
L25.5777 -22.2102
L25.5213 -21.8851
L25.4596 -21.5638
L25.3921 -21.2466
L25.3182 -20.9341
L25.2374 -20.6267
L25.1491 -20.3251
L25.0527 -20.0297
L24.9476 -19.741
L24.8334 -19.4597
L24.7094 -19.1863
L24.5752 -18.9213
L24.4303 -18.6652
L24.2743 -18.4186
L24.107 -18.182
L23.928 -17.9558
L23.7371 -17.7404
L23.5343 -17.5364
L23.3197 -17.3439
L23.0931 -17.1634
L22.855 -16.9951
L22.6055 -16.8392
L22.3449 -16.6959
L22.0738 -16.5653
L21.7925 -16.4475
L21.5017 -16.3425
L21.2018 -16.2503
L20.8936 -16.1708
L20.5776 -16.1041
L20.2545 -16.05
L19.925 -16.0083
L19.5896 -15.9791
L19.2491 -15.9619
L18.9041 -15.9568
L18.5551 -15.9635
L18.2029 -15.9819
L17.8479 -16.0117
L17.4908 -16.0526
L17.132 -16.1046
L16.7721 -16.1674
L16.4115 -16.2408
L16.0507 -16.3245
L15.6901 -16.4184
L15.3301 -16.5221
L14.8645 -16.6356
L14.534 -16.8809
L14.2101 -17.2527
L13.8928 -17.6302
L13.5823 -18.0133
L13.2785 -18.4019
L12.9817 -18.7958
L12.692 -19.1949
L12.4093 -19.5992
L12.1338 -20.0085
L11.8656 -20.4227
L11.6047 -20.8415
L11.3512 -21.2651
L11.1053 -21.6931
L10.8669 -22.1254
L10.6363 -22.562
L10.4133 -23.0027
L10.1981 -23.4473
L9.99078 -23.8958
L9.79139 -24.3479
L9.59998 -24.8036
L9.41661 -25.2627
L9.24133 -25.7251
L9.07421 -26.1906
L8.91529 -26.6591
L8.76462 -27.1305
L8.62225 -27.6045
L8.48822 -28.0811
L8.36256 -28.5601
L8.24533 -29.0414
L8.13655 -29.5248
L8.03625 -30.0102
L7.94448 -30.4974
L7.86125 -30.9862
L7.78659 -31.4766
L7.72053 -31.9684
L7.66308 -32.4614
L7.61426 -32.9555
L7.57409 -33.4505
L7.54258 -33.9463
L7.51973 -34.4427
L7.50556 -34.9396
L7.50008 -35.4368
L7.50327 -35.9342
L7.51514 -36.4316
L7.53569 -36.9289
L7.56491 -37.4259
L7.60279 -37.9224
L7.64932 -38.4184
L7.70449 -38.9136
L7.76828 -39.408
L7.84067 -39.9013
L7.92163 -40.3934
L8.01115 -40.8842
L8.10919 -41.3735
L8.21573 -41.8611
L8.33073 -42.347
L8.45416 -42.8309
L8.58598 -43.3128
L8.72615 -43.7924
L8.87463 -44.2697
L9.03137 -44.7444
L9.19633 -45.2165
L9.36945 -45.6857
L9.55068 -46.152
L9.73998 -46.6153
L9.93726 -47.0752
L10.1425 -47.5319
L10.3556 -47.985
L10.5765 -48.4344
L10.8052 -48.8801
L11.0415 -49.3218
L11.2854 -49.7595
L11.5369 -50.193
L11.7958 -50.6222
L12.0621 -51.0469
L12.3357 -51.467
L12.6165 -51.8824
L12.9044 -52.293
L13.1994 -52.6986
L13.5012 -53.0991
L13.81 -53.4945
L14.1255 -53.8845
L14.4477 -54.269
L14.7764 -54.648
L15.1116 -55.0213
L15.4532 -55.3888
L15.801 -55.7504
L16.155 -56.106
L16.515 -56.4554
L16.8809 -56.7987
L17.2527 -57.1355
L17.6302 -57.466
L18.0133 -57.7899
L18.4019 -58.1072
L18.7958 -58.4177
L19.1949 -58.7215
L19.5992 -59.0183
L20.0085 -59.308
L20.4227 -59.5907
L20.8415 -59.8662
L21.2651 -60.1344
L21.6931 -60.3953
L22.1254 -60.6488
L22.562 -60.8947
L23.0027 -61.1331
L23.4473 -61.3637
L23.8958 -61.5867
L24.3479 -61.8019
L24.8036 -62.0092
L25.2627 -62.2086
L25.7251 -62.4
L26.1906 -62.5834
L26.6591 -62.7587
L27.1305 -62.9258
L27.6045 -63.0847
L28.0811 -63.2354
L28.5601 -63.3778
L29.0414 -63.5118
L29.5248 -63.6374
L30.0102 -63.7547
L30.4974 -63.8635
L30.9862 -63.9637
L31.4766 -64.0555
L31.9684 -64.1388
L32.4614 -64.2134
L32.9555 -64.2795
z
" id="C0_1_8d3634836c"/>
     <path d="
M57.0238 -55.2367
L57.1172 -54.8684
L57.2066 -54.5002
L57.292 -54.1324
L57.3732 -53.765
L57.4503 -53.3985
L57.5231 -53.0328
L57.5916 -52.6683
L57.6559 -52.3051
L57.716 -51.9432
L57.7718 -51.5828
L57.8234 -51.2241
L57.8709 -50.8671
L57.9143 -50.512
L57.9536 -50.1587
L57.9889 -49.8074
L58.0202 -49.4581
L58.0478 -49.1109
L58.0715 -48.7658
L58.0914 -48.4229
L58.1078 -48.0821
L58.1205 -47.7435
L58.1298 -47.4071
L58.1356 -47.0729
L58.138 -46.741
L58.1372 -46.4112
L58.1332 -46.0837
L58.126 -45.7583
L58.1157 -45.4351
L58.1024 -45.114
L58.0862 -44.7951
L58.0671 -44.4782
L58.0451 -44.1634
L58.0204 -43.8507
L57.993 -43.54
L57.9629 -43.2312
L57.9302 -42.9243
L57.895 -42.6193
L57.8572 -42.3162
L57.817 -42.0149
L57.7743 -41.7153
L57.7293 -41.4174
L57.6818 -41.1212
L57.6321 -40.8266
L57.5801 -40.5336
L57.5258 -40.2421
L57.4693 -39.952
L57.4106 -39.6634
L57.3497 -39.3762
L57.2866 -39.0903
L57.2214 -38.8057
L57.1541 -38.5222
L57.0846 -38.24
L57.013 -37.9589
L56.9394 -37.6788
L56.8636 -37.3998
L56.7858 -37.1218
L56.7058 -36.8446
L56.6238 -36.5684
L56.5397 -36.293
L56.4535 -36.0183
L56.3653 -35.7444
L56.2749 -35.4712
L56.1824 -35.1986
L56.0879 -34.9266
L55.9912 -34.6551
L55.8923 -34.3841
L55.7913 -34.1136
L55.6882 -33.8435
L55.5828 -33.5737
L55.4753 -33.3043
L55.3655 -33.0351
L55.2534 -32.7662
L55.1391 -32.4974
L55.0224 -32.2288
L54.9035 -31.9603
L54.7821 -31.6919
L54.6584 -31.4235
L54.5323 -31.1551
L54.4037 -30.8867
L54.2725 -30.6182
L54.1389 -30.3496
L54.0027 -30.0808
L53.8639 -29.8119
L53.7224 -29.5427
L53.5783 -29.2734
L53.4314 -29.0037
L53.2818 -28.7338
L53.1293 -28.4636
L52.974 -28.193
L52.8158 -27.9221
L52.6546 -27.6508
L52.4904 -27.3792
L52.3232 -27.1071
L52.153 -26.8346
L51.9796 -26.5617
L51.803 -26.2884
L51.6232 -26.0146
L51.4402 -25.7403
L51.2539 -25.4657
L51.0642 -25.1906
L50.8712 -24.915
L50.6748 -24.639
L50.4749 -24.3627
L50.2716 -24.0859
L50.0648 -23.8087
L49.8545 -23.5312
L49.6406 -23.2533
L49.4232 -22.9751
L49.2023 -22.6967
L48.9778 -22.4179
L48.7498 -22.139
L48.5183 -21.86
L48.2832 -21.5808
L48.0448 -21.3015
L47.8029 -21.0222
L47.5576 -20.743
L47.3091 -20.4638
L47.0574 -20.1848
L46.8026 -19.906
L46.5448 -19.6275
L46.2842 -19.3493
L46.0209 -19.0715
L45.7552 -18.7942
L45.4871 -18.5175
L45.2169 -18.2413
L44.945 -17.9659
L44.6715 -17.6911
L44.3968 -17.4172
L44.1212 -17.1441
L43.8452 -16.8719
L43.569 -16.6006
L43.2933 -16.3303
L43.0183 -16.061
L42.7448 -15.7926
L42.4732 -15.5253
L42.2041 -15.259
L41.9383 -14.9937
L41.6763 -14.7294
L41.4189 -14.466
L41.1668 -14.2034
L40.9207 -13.9417
L40.6816 -13.6806
L40.4501 -13.4203
L40.227 -13.1604
L40.0132 -12.9011
L39.8095 -12.6421
L39.6165 -12.3835
L39.435 -12.125
L39.2657 -11.8668
L39.1092 -11.6087
L38.966 -11.3506
L38.8365 -11.0927
L38.7211 -10.835
L38.6201 -10.5774
L38.5336 -10.3201
L38.4618 -10.0633
L38.4047 -9.80696
L38.3622 -9.55139
L38.3341 -9.29677
L38.3203 -9.04329
L38.3204 -8.79121
L38.3341 -8.54076
L38.3611 -8.2922
L38.401 -8.04581
L38.9654 -7.80183
L39.4596 -7.65469
L39.9528 -7.71076
L40.4448 -7.77545
L40.9354 -7.84873
L41.4245 -7.93059
L41.912 -8.021
L42.3977 -8.11994
L42.8814 -8.22736
L43.3631 -8.34325
L43.8424 -8.46756
L44.3194 -8.60025
L44.7939 -8.74129
L45.2657 -8.89064
L45.7346 -9.04824
L46.2006 -9.21406
L46.6635 -9.38803
L47.1232 -9.57011
L47.5794 -9.76024
L48.0321 -9.95836
L48.4812 -10.1644
L48.9265 -10.3783
L49.3678 -10.6001
L49.805 -10.8295
L50.2381 -11.0667
L50.6668 -11.3114
L51.091 -11.5636
L51.5107 -11.8233
L51.9256 -12.0904
L52.3357 -12.3647
L52.7407 -12.6463
L53.1407 -12.9349
L53.5355 -13.2306
L53.9249 -13.5332
L54.3089 -13.8427
L54.6873 -14.1589
L55.06 -14.4818
L55.4269 -14.8112
L55.7879 -15.147
L56.1428 -15.4893
L56.4916 -15.8377
L56.8342 -16.1923
L57.1704 -16.553
L57.5002 -16.9196
L57.8234 -17.2919
L58.14 -17.67
L58.4498 -18.0537
L58.7528 -18.4428
L59.0489 -18.8373
L59.3379 -19.237
L59.6199 -19.6418
L59.8946 -20.0516
L60.1621 -20.4662
L60.4222 -20.8856
L60.6748 -21.3096
L60.92 -21.7381
L61.1575 -22.1709
L61.3874 -22.6079
L61.6096 -23.049
L61.824 -23.4941
L62.0304 -23.9429
L62.229 -24.3954
L62.4196 -24.8515
L62.6021 -25.311
L62.7765 -25.7737
L62.9428 -26.2395
L63.1009 -26.7083
L63.2507 -27.1799
L63.3922 -27.6542
L63.5253 -28.1311
L63.6501 -28.6104
L63.7664 -29.0919
L63.8743 -29.5755
L63.9737 -30.0611
L64.0646 -30.5484
L64.147 -31.0375
L64.2207 -31.528
L64.2859 -32.0199
L64.3424 -32.5131
L64.3903 -33.0073
L64.4296 -33.5024
L64.4602 -33.9982
L64.4822 -34.4947
L64.4954 -34.9916
L64.5 -35.4888
L64.4959 -35.9862
L64.4831 -36.4836
L64.4617 -36.9809
L64.4315 -37.4778
L64.3927 -37.9743
L64.3453 -38.4702
L64.2892 -38.9654
L64.2246 -39.4596
L64.1513 -39.9528
L64.0694 -40.4448
L63.979 -40.9354
L63.8801 -41.4245
L63.7726 -41.912
L63.6568 -42.3977
L63.5324 -42.8814
L63.3997 -43.3631
L63.2587 -43.8424
L63.1094 -44.3194
L62.9518 -44.7939
L62.7859 -45.2657
L62.612 -45.7346
L62.4299 -46.2006
L62.2398 -46.6635
L62.0416 -47.1232
L61.8356 -47.5794
L61.6217 -48.0321
L61.3999 -48.4812
L61.1705 -48.9265
L60.9333 -49.3678
L60.6886 -49.805
L60.4364 -50.2381
L60.1767 -50.6668
L59.9096 -51.091
L59.6353 -51.5107
L59.3537 -51.9256
L59.0651 -52.3357
L58.7694 -52.7407
L58.4668 -53.1407
L58.1573 -53.5355
L57.8411 -53.9249
L57.5182 -54.3089
z
" id="C0_2_c7557bcf0e"/>
    </defs>
    <g clip-path="url(#p1bffca34e9)">
     <use style="fill:#ff0000;stroke:#000000;stroke-width:2.0;" x="0.0" xlink:href="#C0_0_a811fe30f3" y="72.0"/>
    </g>
    <g clip-path="url(#p1bffca34e9)">
     <use style="fill:#ffffff;stroke:#000000;stroke-width:2.0;" x="0.0" xlink:href="#C0_1_8d3634836c" y="72.0"/>
    </g>
    <g clip-path="url(#p1bffca34e9)">
     <use style="fill:#ffffff;stroke:#000000;stroke-width:2.0;" x="0.0" xlink:href="#C0_2_c7557bcf0e" y="72.0"/>
    </g>
   </g>
  </g>
 </g>
 <defs>
  <clipPath id="p1bffca34e9">
   <rect height="72.0" width="72.0" x="0.0" y="0.0"/>
  </clipPath>
 </defs>
</svg>
