<?xml version="1.0" encoding="utf-8" standalone="no"?>
<!DOCTYPE svg PUBLIC "-//W3C//DTD SVG 1.1//EN"
  "http://www.w3.org/Graphics/SVG/1.1/DTD/svg11.dtd">
<!-- Created with matplotlib (http://matplotlib.org/) -->
<svg height="72pt" version="1.1" viewBox="0 0 72 72" width="72pt" xmlns="http://www.w3.org/2000/svg" xmlns:xlink="http://www.w3.org/1999/xlink">
 <defs>
  <style type="text/css">
*{stroke-linecap:butt;stroke-linejoin:round;}
  </style>
 </defs>
 <g id="figure_1">
  <g id="patch_1">
   <path d="
M0 72
L72 72
L72 0
L0 0
z
" style="fill:none;"/>
  </g>
  <g id="axes_1">
   <g id="PatchCollection_1">
    <defs>
     <path d="
M36 -7.5
C43.5583 -7.5 50.808 -10.5029 56.1525 -15.8475
C61.4971 -21.192 64.5 -28.4417 64.5 -36
C64.5 -43.5583 61.4971 -50.808 56.1525 -56.1525
C50.808 -61.4971 43.5583 -64.5 36 -64.5
C28.4417 -64.5 21.192 -61.4971 15.8475 -56.1525
C10.5029 -50.808 7.5 -43.5583 7.5 -36
C7.5 -28.4417 10.5029 -21.192 15.8475 -15.8475
C21.192 -10.5029 28.4417 -7.5 36 -7.5
z
" id="C0_0_a811fe30f3"/>
     <path d="
M33.9404 -33.9714
L34.1334 -33.8111
L34.3267 -33.6511
L34.5204 -33.4913
L34.7145 -33.3317
L34.9091 -33.1723
L35.1042 -33.013
L35.2998 -32.8537
L35.4961 -32.6945
L35.693 -32.5353
L35.8906 -32.376
L36.0891 -32.2167
L36.2883 -32.0572
L36.4884 -31.8976
L36.6895 -31.7378
L36.8915 -31.5779
L37.0945 -31.4176
L37.2987 -31.2571
L37.504 -31.0962
L37.7105 -30.935
L37.9182 -30.7735
L38.1273 -30.6115
L38.3377 -30.449
L38.5496 -30.2861
L38.7629 -30.1227
L38.9778 -29.9588
L39.1942 -29.7943
L39.4124 -29.6292
L39.6322 -29.4635
L39.8538 -29.2972
L40.0772 -29.1302
L40.3025 -28.9625
L40.5298 -28.7942
L40.759 -28.6251
L40.9904 -28.4553
L41.2238 -28.2847
L41.4594 -28.1134
L41.6972 -27.9413
L41.9373 -27.7684
L42.1798 -27.5948
L42.4246 -27.4203
L42.6719 -27.2451
L42.9216 -27.0691
L43.1739 -26.8923
L43.4288 -26.7148
L43.6864 -26.5366
L43.9466 -26.3576
L44.2095 -26.1779
L44.4752 -25.9976
L44.7437 -25.8166
L45.015 -25.6351
L45.2891 -25.453
L45.5661 -25.2705
L45.8461 -25.0876
L46.1289 -24.9043
L46.4146 -24.7208
L46.7033 -24.5372
L46.9949 -24.3536
L47.2894 -24.17
L47.5868 -23.9866
L47.8871 -23.8036
L48.1902 -23.6212
L48.4962 -23.4394
L48.8049 -23.2586
L49.1164 -23.0789
L49.4305 -22.9006
L49.7473 -22.7239
L50.0666 -22.5491
L50.3884 -22.3767
L50.7126 -22.2069
L51.039 -22.0402
L51.3676 -21.877
L51.6983 -21.7179
L52.031 -21.5635
L52.3655 -21.4145
L52.7018 -21.2717
L53.0396 -21.1359
L53.379 -21.0083
L53.7196 -20.89
L54.0615 -20.7826
L54.4045 -20.6877
L54.7485 -20.6073
L55.0932 -20.5437
L55.4387 -20.4997
L55.7846 -20.4784
L56.1308 -20.4832
L56.4769 -20.518
L56.8226 -20.5866
L57.1672 -20.6927
L57.51 -20.8394
L57.8501 -21.0288
L58.1863 -21.2618
L58.5173 -21.5378
L58.8417 -21.8547
L59.1582 -22.2095
L59.4655 -22.5985
L59.7625 -23.0177
L60.0481 -23.4631
L60.3216 -23.9311
L60.5823 -24.4181
L60.8297 -24.9211
L61.0636 -25.4374
L61.2835 -25.9646
L61.4894 -26.5006
L61.6811 -27.0436
L61.8587 -27.592
L62.0223 -28.1443
L62.1719 -28.6993
L62.3077 -29.2559
L62.4299 -29.813
L62.5387 -30.3697
L62.6344 -30.9253
L62.7173 -31.4789
L62.7877 -32.0301
L62.8459 -32.5781
L62.8922 -33.1225
L62.927 -33.6628
L62.9506 -34.1985
L62.9634 -34.7294
L62.9657 -35.2551
L62.9579 -35.7753
L62.9404 -36.2898
L62.9135 -36.7983
L62.8775 -37.3007
L62.8329 -37.7969
L62.7798 -38.2866
L62.7188 -38.7698
L62.6501 -39.2465
L62.5739 -39.7165
L62.4907 -40.1799
L62.4007 -40.6366
L62.3041 -41.0866
L62.2014 -41.5299
L62.0926 -41.9665
L61.9782 -42.3965
L61.8582 -42.8199
L61.733 -43.2368
L61.6028 -43.6472
L61.4678 -44.0512
L61.3282 -44.4489
L61.1841 -44.8403
L61.0357 -45.2256
L60.8833 -45.6048
L60.727 -45.9781
L60.5669 -46.3454
L60.4032 -46.707
L60.236 -47.0629
L60.0654 -47.4132
L59.8915 -47.758
L59.7145 -48.0974
L59.5345 -48.4316
L59.3515 -48.7605
L59.1656 -49.0844
L58.977 -49.4034
L58.7856 -49.7174
L58.5916 -50.0267
L58.395 -50.3313
L58.1959 -50.6314
L57.9943 -50.9269
L57.7902 -51.218
L57.5838 -51.5049
L57.3749 -51.7875
L57.1638 -52.066
L56.9503 -52.3404
L56.7345 -52.6109
L56.5164 -52.8775
L56.2961 -53.1403
L56.0735 -53.3994
L55.8486 -53.6548
L55.6214 -53.9066
L55.392 -54.1549
L55.1603 -54.3997
L54.9263 -54.6411
L54.69 -54.8792
L54.4514 -55.1139
L54.2104 -55.3455
L53.967 -55.5739
L53.7213 -55.7991
L53.4731 -56.0212
L53.2224 -56.2403
L52.9693 -56.4564
L52.7136 -56.6694
L52.4553 -56.8796
L52.1944 -57.0868
L51.9308 -57.2911
L51.6644 -57.4925
L51.3953 -57.6911
L51.1234 -57.8868
L50.8486 -58.0797
L50.5708 -58.2698
L50.2901 -58.4571
L50.0062 -58.6415
L49.7192 -58.8232
L49.429 -59.002
L49.1355 -59.1779
L48.8387 -59.351
L48.5385 -59.5212
L48.2348 -59.6885
L47.9274 -59.8529
L47.6165 -60.0143
L47.3018 -60.1727
L46.9833 -60.3281
L46.6609 -60.4803
L46.3345 -60.6294
L46.004 -60.7753
L45.6694 -60.9179
L45.3305 -61.0572
L44.9874 -61.193
L44.6398 -61.3253
L44.2876 -61.454
L43.931 -61.579
L43.5696 -61.7001
L43.2034 -61.8174
L42.8324 -61.9306
L42.4565 -62.0396
L42.0755 -62.1443
L41.6895 -62.2446
L41.2983 -62.3402
L40.9018 -62.4311
L40.5 -62.5171
L40.0928 -62.5979
L39.6801 -62.6735
L39.262 -62.7435
L38.8383 -62.8079
L38.409 -62.8663
L37.9741 -62.9186
L37.5335 -62.9645
L37.0873 -63.0037
L36.6354 -63.0361
L36.1778 -63.0614
L35.7146 -63.0793
L35.2458 -63.0894
L34.7715 -63.0916
L34.2916 -63.0856
L33.8064 -63.0709
L33.3159 -63.0474
L32.8203 -63.0147
L32.3197 -62.9724
L31.8143 -62.9203
L31.3043 -62.8581
L30.79 -62.7854
L30.2716 -62.7019
L29.7494 -62.6072
L29.2239 -62.5011
L28.6953 -62.3833
L28.1641 -62.2534
L27.6308 -62.1112
L27.0959 -61.9565
L26.56 -61.7888
L26.0237 -61.6082
L25.4877 -61.4142
L24.9529 -61.2069
L24.42 -60.9861
L23.89 -60.7516
L23.364 -60.5036
L22.843 -60.2419
L22.3285 -59.9669
L21.8218 -59.6786
L21.3245 -59.3774
L20.8384 -59.0637
L20.3657 -58.738
L19.9086 -58.401
L19.4697 -58.0537
L19.052 -57.6972
L18.6588 -57.3326
L18.2936 -56.9616
L17.9601 -56.586
L17.6622 -56.2075
L17.4032 -55.8283
L17.1859 -55.4503
L17.012 -55.0753
L16.8819 -54.7046
L16.7946 -54.3394
L16.7478 -53.9802
L16.7382 -53.6271
L16.7621 -53.2801
L16.8157 -52.9387
L16.8952 -52.6026
L16.997 -52.2713
L17.1181 -51.9444
L17.2557 -51.6216
L17.4076 -51.3024
L17.5716 -50.9867
L17.7463 -50.6743
L17.93 -50.365
L18.1216 -50.0586
L18.3199 -49.7552
L18.5242 -49.4546
L18.7334 -49.1569
L18.947 -48.8619
L19.1644 -48.5698
L19.385 -48.2804
L19.6082 -47.9938
L19.8337 -47.7101
L20.0612 -47.4292
L20.2901 -47.1511
L20.5203 -46.8759
L20.7514 -46.6036
L20.9832 -46.3341
L21.2155 -46.0675
L21.4481 -45.8038
L21.6807 -45.543
L21.9132 -45.2851
L22.1455 -45.03
L22.3774 -44.7778
L22.6087 -44.5284
L22.8395 -44.2819
L23.0696 -44.0381
L23.2989 -43.7972
L23.5273 -43.5589
L23.7548 -43.3234
L23.9814 -43.0906
L24.2068 -42.8604
L24.4313 -42.6328
L24.6546 -42.4078
L24.8768 -42.1853
L25.0978 -41.9653
L25.3177 -41.7477
L25.5364 -41.5325
L25.7539 -41.3197
L25.9703 -41.1091
L26.1854 -40.9007
L26.3994 -40.6946
L26.6123 -40.4906
L26.824 -40.2886
L27.0346 -40.0887
L27.244 -39.8908
L27.4524 -39.6948
L27.6597 -39.5006
L27.866 -39.3083
L28.0712 -39.1178
L28.2755 -38.9289
L28.4788 -38.7417
L28.6812 -38.5561
L28.8827 -38.3721
L29.0834 -38.1896
L29.2833 -38.0085
L29.4823 -37.8288
L29.6807 -37.6505
L29.8783 -37.4735
L30.0753 -37.2977
L30.2716 -37.1231
L30.4674 -36.9497
L30.6626 -36.7773
L30.8573 -36.606
L31.0516 -36.4358
L31.2454 -36.2665
L31.4389 -36.098
L31.632 -35.9305
L31.8249 -35.7638
L32.0175 -35.5978
L32.2099 -35.4326
L32.4022 -35.2681
L32.5943 -35.1042
L32.7864 -34.9409
L32.9785 -34.7782
L33.1707 -34.616
L33.3629 -34.4542
L33.5552 -34.2929
z
" id="C0_1_ecc6882bd0"/>
    </defs>
    <g clip-path="url(#p1bffca34e9)">
     <use style="fill:#ffffff;stroke:#000000;stroke-width:2.0;" x="0.0" xlink:href="#C0_0_a811fe30f3" y="72.0"/>
    </g>
    <g clip-path="url(#p1bffca34e9)">
     <use style="fill:#ff0000;stroke:#000000;stroke-width:2.0;" x="0.0" xlink:href="#C0_1_ecc6882bd0" y="72.0"/>
    </g>
   </g>
  </g>
 </g>
 <defs>
  <clipPath id="p1bffca34e9">
   <rect height="72.0" width="72.0" x="0.0" y="0.0"/>
  </clipPath>
 </defs>
</svg>
