<?xml version="1.0" encoding="utf-8" standalone="no"?>
<!DOCTYPE svg PUBLIC "-//W3C//DTD SVG 1.1//EN"
  "http://www.w3.org/Graphics/SVG/1.1/DTD/svg11.dtd">
<!-- Created with matplotlib (http://matplotlib.org/) -->
<svg height="72pt" version="1.1" viewBox="0 0 72 72" width="72pt" xmlns="http://www.w3.org/2000/svg" xmlns:xlink="http://www.w3.org/1999/xlink">
 <defs>
  <style type="text/css">
*{stroke-linecap:butt;stroke-linejoin:round;}
  </style>
 </defs>
 <g id="figure_1">
  <g id="patch_1">
   <path d="
M0 72
L72 72
L72 0
L0 0
z
" style="fill:none;"/>
  </g>
  <g id="axes_1">
   <g id="PatchCollection_1">
    <defs>
     <path d="
M36 -7.5
C43.5583 -7.5 50.808 -10.5029 56.1525 -15.8475
C61.4971 -21.192 64.5 -28.4417 64.5 -36
C64.5 -43.5583 61.4971 -50.808 56.1525 -56.1525
C50.808 -61.4971 43.5583 -64.5 36 -64.5
C28.4417 -64.5 21.192 -61.4971 15.8475 -56.1525
C10.5029 -50.808 7.5 -43.5583 7.5 -36
C7.5 -28.4417 10.5029 -21.192 15.8475 -15.8475
C21.192 -10.5029 28.4417 -7.5 36 -7.5
z
" id="C0_0_a811fe30f3"/>
     <path d="
M24.8039 -44.8405
L24.9926 -45.0299
L25.1827 -45.2181
L25.3742 -45.4051
L25.5671 -45.5911
L25.7616 -45.7759
L25.9575 -45.9597
L26.1551 -46.1425
L26.3542 -46.3243
L26.5551 -46.5051
L26.7577 -46.6851
L26.9622 -46.8642
L27.1685 -47.0424
L27.3767 -47.2198
L27.5869 -47.3963
L27.7991 -47.5721
L28.0135 -47.7472
L28.23 -47.9215
L28.4488 -48.0951
L28.6699 -48.2679
L28.8934 -48.4401
L29.1193 -48.6116
L29.3478 -48.7824
L29.5789 -48.9526
L29.8126 -49.122
L30.0492 -49.2909
L30.2885 -49.459
L30.5308 -49.6265
L30.7761 -49.7933
L31.0245 -49.9594
L31.2761 -50.1247
L31.5309 -50.2894
L31.7891 -50.4533
L32.0507 -50.6164
L32.3158 -50.7788
L32.5846 -50.9403
L32.857 -51.1009
L33.1333 -51.2606
L33.4134 -51.4193
L33.6975 -51.577
L33.9857 -51.7336
L34.2781 -51.8891
L34.5747 -52.0433
L34.8756 -52.1962
L35.181 -52.3478
L35.4908 -52.4979
L35.8053 -52.6463
L36.1244 -52.7931
L36.4483 -52.9381
L36.7771 -53.0812
L37.1107 -53.2221
L37.4493 -53.3609
L37.7929 -53.4973
L38.1415 -53.6312
L38.4953 -53.7623
L38.8543 -53.8906
L39.2184 -54.0157
L39.5878 -54.1376
L39.9624 -54.2559
L40.3422 -54.3704
L40.7272 -54.4809
L41.1173 -54.5871
L41.5126 -54.6887
L41.9129 -54.7854
L42.3182 -54.8769
L42.7284 -54.9629
L43.1433 -55.043
L43.5628 -55.1168
L43.9867 -55.1839
L44.4148 -55.2439
L44.8468 -55.2964
L45.2824 -55.3407
L45.7214 -55.3766
L46.1632 -55.4032
L46.6075 -55.4202
L47.0538 -55.4267
L47.5015 -55.4221
L47.9499 -55.4056
L48.3982 -55.3763
L48.8456 -55.3332
L49.291 -55.2754
L49.7333 -55.2016
L50.1711 -55.1105
L50.6029 -55.0007
L51.027 -54.8708
L51.4416 -54.7191
L51.8445 -54.5442
L52.2338 -54.3447
L52.6073 -54.1193
L52.963 -53.8675
L53.2993 -53.5889
L53.615 -53.2841
L53.9093 -52.9542
L54.1818 -52.601
L54.4328 -52.2266
L54.6629 -51.8334
L54.8726 -51.4239
L55.0631 -51.0006
L55.2352 -50.5657
L55.3899 -50.1215
L55.5282 -49.6697
L55.651 -49.2121
L55.7591 -48.7502
L55.8532 -48.2852
L55.9342 -47.8184
L56.0027 -47.3507
L56.0593 -46.8829
L56.1046 -46.4159
L56.1391 -45.9503
L56.1633 -45.4867
L56.1778 -45.0256
L56.1831 -44.5675
L56.1795 -44.1127
L56.1674 -43.6616
L56.1473 -43.2146
L56.1197 -42.7718
L56.0847 -42.3335
L56.0429 -41.8998
L55.9945 -41.4711
L55.9398 -41.0472
L55.8793 -40.6285
L55.8131 -40.215
L55.7416 -39.8067
L55.665 -39.4037
L55.5836 -39.0061
L55.4977 -38.6138
L55.4075 -38.2268
L55.3132 -37.8452
L55.215 -37.4689
L55.1132 -37.0979
L55.0079 -36.7322
L54.8992 -36.3716
L54.7875 -36.0162
L54.6728 -35.666
L54.5553 -35.3207
L54.4352 -34.9804
L54.3125 -34.645
L54.1875 -34.3144
L54.0601 -33.9885
L53.9306 -33.6672
L53.799 -33.3505
L53.6655 -33.0382
L53.5301 -32.7303
L53.3929 -32.4267
L53.2539 -32.1272
L53.1134 -31.8319
L52.9712 -31.5405
L52.8275 -31.2531
L52.6824 -30.9694
L52.5358 -30.6895
L52.3879 -30.4132
L52.2386 -30.1405
L52.088 -29.8712
L51.9361 -29.6053
L51.783 -29.3426
L51.6287 -29.0831
L51.4732 -28.8267
L51.3165 -28.5734
L51.1586 -28.323
L50.9996 -28.0754
L50.8393 -27.8306
L50.678 -27.5885
L50.5155 -27.349
L50.3518 -27.1121
L50.1869 -26.8776
L50.0209 -26.6456
L49.8537 -26.4159
L49.6854 -26.1884
L49.5158 -25.9632
L49.3449 -25.74
L49.1729 -25.519
L48.9995 -25.3
L48.8249 -25.0829
L48.649 -24.8677
L48.4717 -24.6543
L48.293 -24.4427
L48.1129 -24.2329
L47.9314 -24.0247
L47.7484 -23.8181
L47.5639 -23.6131
L47.3778 -23.4097
L47.1902 -23.2077
L47.0009 -23.0072
L46.8099 -22.8081
L46.6172 -22.6104
L46.4227 -22.414
L46.2263 -22.2189
L46.0281 -22.025
L45.828 -21.8324
L45.6258 -21.641
L45.4216 -21.4507
L45.2153 -21.2616
L45.0068 -21.0736
L44.7961 -20.8867
L44.5831 -20.7009
L44.3677 -20.5161
L44.1499 -20.3324
L43.9296 -20.1497
L43.7066 -19.9681
L43.481 -19.7875
L43.2527 -19.6079
L43.0216 -19.4293
L42.7876 -19.2517
L42.5506 -19.0751
L42.3105 -18.8996
L42.0673 -18.7251
L41.8208 -18.5517
L41.5711 -18.3793
L41.3179 -18.2081
L41.0612 -18.0379
L40.8008 -17.8689
L40.5368 -17.7011
L40.269 -17.5346
L39.9973 -17.3693
L39.7216 -17.2053
L39.4417 -17.0427
L39.1577 -16.8816
L38.8694 -16.7219
L38.5766 -16.5639
L38.2793 -16.4075
L37.9774 -16.2529
L37.6708 -16.1001
L37.3594 -15.9493
L37.043 -15.8005
L36.7216 -15.6539
L36.395 -15.5097
L36.0633 -15.3679
L35.7261 -15.2287
L35.3836 -15.0922
L35.0356 -14.9587
L34.682 -14.8283
L34.3227 -14.7012
L33.9577 -14.5776
L33.5869 -14.4577
L33.2102 -14.3418
L32.8277 -14.23
L32.4391 -14.1227
L32.0447 -14.0201
L31.6442 -13.9225
L31.2377 -13.8301
L30.8253 -13.7434
L30.407 -13.6626
L29.9827 -13.588
L29.5527 -13.5201
L29.117 -13.4592
L28.6756 -13.4057
L28.2289 -13.36
L27.7769 -13.3225
L27.3199 -13.2937
L26.8581 -13.2741
L26.3919 -13.2641
L25.9216 -13.2642
L25.4475 -13.275
L24.9703 -13.2971
L24.4904 -13.3309
L24.0084 -13.3772
L23.5251 -13.4366
L23.0413 -13.5098
L22.5579 -13.5974
L22.0761 -13.7003
L21.597 -13.8193
L21.1222 -13.9552
L20.6533 -14.109
L20.1921 -14.2816
L19.7407 -14.474
L19.3014 -14.687
L18.8767 -14.9214
L18.4691 -15.178
L18.081 -15.4572
L17.7148 -15.7588
L17.3722 -16.0824
L17.0548 -16.4272
L16.7631 -16.7916
L16.4973 -17.1738
L16.2571 -17.5719
L16.0415 -17.9835
L15.8493 -18.4066
L15.6793 -18.839
L15.5302 -19.2788
L15.4005 -19.7243
L15.289 -20.174
L15.1945 -20.6265
L15.1159 -21.0807
L15.0521 -21.5355
L15.0022 -21.9901
L14.9655 -22.4437
L14.941 -22.8956
L14.928 -23.3453
L14.9259 -23.7923
L14.9341 -24.2361
L14.9519 -24.6763
L14.9789 -25.1127
L15.0144 -25.5449
L15.0581 -25.9727
L15.1093 -26.3959
L15.1678 -26.8144
L15.2331 -27.2279
L15.3048 -27.6364
L15.3825 -28.0397
L15.4658 -28.4378
L15.5546 -28.8307
L15.6483 -29.2182
L15.7468 -29.6005
L15.8497 -29.9773
L15.9568 -30.3489
L16.0678 -30.7151
L16.1825 -31.076
L16.3007 -31.4317
L16.4221 -31.7822
L16.5465 -32.1275
L16.6738 -32.4678
L16.8038 -32.803
L16.9363 -33.1332
L17.0711 -33.4585
L17.2082 -33.7791
L17.3473 -34.0949
L17.4884 -34.4061
L17.6313 -34.7127
L17.776 -35.0149
L17.9222 -35.3127
L18.0701 -35.6062
L18.2193 -35.8956
L18.3699 -36.1808
L18.5218 -36.4621
L18.6749 -36.7395
L18.8292 -37.013
L18.9847 -37.2828
L19.1411 -37.5491
L19.2986 -37.8117
L19.4571 -38.071
L19.6165 -38.3269
L19.7768 -38.5795
L19.938 -38.829
L20.1001 -39.0754
L20.263 -39.3187
L20.4268 -39.5592
L20.5914 -39.7969
L20.7568 -40.0318
L20.923 -40.264
L21.09 -40.4936
L21.2578 -40.7207
L21.4264 -40.9454
L21.5958 -41.1678
L21.766 -41.3878
L21.9371 -41.6056
L22.109 -41.8213
L22.2818 -42.0348
L22.4554 -42.2464
L22.63 -42.456
L22.8055 -42.6637
L22.9819 -42.8696
L23.1592 -43.0737
L23.3376 -43.2762
L23.517 -43.4769
L23.6974 -43.6761
L23.8789 -43.8737
L24.0615 -44.0698
L24.2453 -44.2645
L24.4302 -44.4578
z
" id="C0_1_50b5ca90bf"/>
    </defs>
    <g clip-path="url(#p1bffca34e9)">
     <use style="fill:#ff0000;stroke:#000000;stroke-width:2.0;" x="0.0" xlink:href="#C0_0_a811fe30f3" y="72.0"/>
    </g>
    <g clip-path="url(#p1bffca34e9)">
     <use style="fill:#ffffff;stroke:#000000;stroke-width:2.0;" x="0.0" xlink:href="#C0_1_50b5ca90bf" y="72.0"/>
    </g>
   </g>
  </g>
 </g>
 <defs>
  <clipPath id="p1bffca34e9">
   <rect height="72.0" width="72.0" x="0.0" y="0.0"/>
  </clipPath>
 </defs>
</svg>
