<?xml version="1.0" encoding="utf-8" standalone="no"?>
<!DOCTYPE svg PUBLIC "-//W3C//DTD SVG 1.1//EN"
  "http://www.w3.org/Graphics/SVG/1.1/DTD/svg11.dtd">
<!-- Created with matplotlib (http://matplotlib.org/) -->
<svg height="72pt" version="1.1" viewBox="0 0 72 72" width="72pt" xmlns="http://www.w3.org/2000/svg" xmlns:xlink="http://www.w3.org/1999/xlink">
 <defs>
  <style type="text/css">
*{stroke-linecap:butt;stroke-linejoin:round;}
  </style>
 </defs>
 <g id="figure_1">
  <g id="patch_1">
   <path d="
M0 72
L72 72
L72 0
L0 0
z
" style="fill:none;"/>
  </g>
  <g id="axes_1">
   <g id="PatchCollection_1">
    <defs>
     <path d="
M36 -7.5
C43.5583 -7.5 50.808 -10.5029 56.1525 -15.8475
C61.4971 -21.192 64.5 -28.4417 64.5 -36
C64.5 -43.5583 61.4971 -50.808 56.1525 -56.1525
C50.808 -61.4971 43.5583 -64.5 36 -64.5
C28.4417 -64.5 21.192 -61.4971 15.8475 -56.1525
C10.5029 -50.808 7.5 -43.5583 7.5 -36
C7.5 -28.4417 10.5029 -21.192 15.8475 -15.8475
C21.192 -10.5029 28.4417 -7.5 36 -7.5
z
" id="C0_0_a811fe30f3"/>
     <path d="
M46.6469 -45.9738
L46.4457 -46.1776
L46.2422 -46.3794
L46.0366 -46.579
L45.8288 -46.7765
L45.6188 -46.9719
L45.4066 -47.1652
L45.1921 -47.3563
L44.9754 -47.5453
L44.7565 -47.7322
L44.5353 -47.917
L44.3119 -48.0996
L44.0861 -48.28
L43.8581 -48.4583
L43.6277 -48.6343
L43.395 -48.8082
L43.1599 -48.9798
L42.9224 -49.1491
L42.6826 -49.3162
L42.4403 -49.4809
L42.1956 -49.6433
L41.9485 -49.8033
L41.6989 -49.9609
L41.4468 -50.1161
L41.1922 -50.2687
L40.9351 -50.4188
L40.6755 -50.5663
L40.4133 -50.7111
L40.1486 -50.8533
L39.8813 -50.9926
L39.6114 -51.1292
L39.3389 -51.2629
L39.0638 -51.3936
L38.786 -51.5213
L38.5057 -51.6459
L38.2227 -51.7673
L37.9371 -51.8854
L37.6489 -52.0002
L37.3581 -52.1116
L37.0646 -52.2194
L36.7686 -52.3236
L36.4699 -52.424
L36.1687 -52.5206
L35.8649 -52.6132
L35.5586 -52.7017
L35.2499 -52.7861
L34.9386 -52.8661
L34.625 -52.9417
L34.3089 -53.0127
L33.9906 -53.0791
L33.6699 -53.1405
L33.3471 -53.197
L33.0221 -53.2483
L32.6951 -53.2944
L32.3661 -53.335
L32.0353 -53.3701
L31.7026 -53.3993
L31.3683 -53.4227
L31.0324 -53.44
L30.6951 -53.4511
L30.3565 -53.4558
L30.0168 -53.454
L29.676 -53.4454
L29.3344 -53.4299
L28.9922 -53.4074
L28.6494 -53.3777
L28.3063 -53.3407
L27.9632 -53.2961
L27.6202 -53.2438
L27.2775 -53.1837
L26.9354 -53.1157
L26.594 -53.0396
L26.2538 -52.9553
L25.9148 -52.8627
L25.5774 -52.7616
L25.2418 -52.652
L24.9084 -52.5338
L24.5773 -52.4069
L24.249 -52.2713
L23.9236 -52.1268
L23.6015 -51.9736
L23.283 -51.8116
L22.9683 -51.6408
L22.6579 -51.4611
L22.3518 -51.2728
L22.0505 -51.0757
L21.7543 -50.8701
L21.4634 -50.6559
L21.178 -50.4334
L20.8986 -50.2027
L20.6252 -49.9639
L20.3582 -49.7172
L20.0978 -49.4628
L19.8442 -49.2008
L19.5977 -48.9317
L19.3583 -48.6555
L19.1263 -48.3725
L18.9019 -48.083
L18.6852 -47.7873
L18.4763 -47.4857
L18.2753 -47.1784
L18.0824 -46.8658
L17.8975 -46.5481
L17.7209 -46.2258
L17.5524 -45.899
L17.3922 -45.5682
L17.2402 -45.2335
L17.0965 -44.8954
L16.9611 -44.5542
L16.8338 -44.2101
L16.7148 -43.8635
L16.6039 -43.5146
L16.501 -43.1638
L16.4061 -42.8112
L16.3192 -42.4573
L16.2401 -42.1022
L16.1687 -41.7463
L16.1049 -41.3897
L16.0487 -41.0326
L15.9998 -40.6754
L15.9582 -40.3183
L15.9238 -39.9614
L15.8964 -39.6049
L15.8759 -39.2491
L15.8622 -38.894
L15.8551 -38.5399
L15.8546 -38.187
L15.8603 -37.8353
L15.8724 -37.4851
L15.8905 -37.1364
L15.9145 -36.7893
L15.9444 -36.444
L15.98 -36.1006
L16.0212 -35.7592
L16.0678 -35.4199
L16.1197 -35.0827
L16.1767 -34.7477
L16.2389 -34.415
L16.306 -34.0846
L16.3779 -33.7567
L16.4546 -33.4312
L16.5358 -33.1083
L16.6216 -32.7878
L16.7117 -32.47
L16.8062 -32.1547
L16.9048 -31.8421
L17.0076 -31.5322
L17.1143 -31.2249
L17.225 -30.9203
L17.3395 -30.6184
L17.4578 -30.3193
L17.5798 -30.0228
L17.7054 -29.7291
L17.8346 -29.4381
L17.9672 -29.1499
L18.1032 -28.8644
L18.2426 -28.5816
L18.3853 -28.3015
L18.5312 -28.0242
L18.6803 -27.7496
L18.8325 -27.4776
L18.9878 -27.2084
L19.1462 -26.9419
L19.3076 -26.678
L19.4719 -26.4168
L19.6392 -26.1583
L19.8094 -25.9024
L19.9825 -25.6491
L20.1584 -25.3985
L20.3371 -25.1505
L20.5186 -24.9052
L20.703 -24.6624
L20.89 -24.4222
L21.0798 -24.1846
L21.2724 -23.9496
L21.4676 -23.7172
L21.6656 -23.4874
L21.8662 -23.2601
L22.0696 -23.0354
L22.2756 -22.8132
L22.4844 -22.5936
L22.6958 -22.3766
L22.9099 -22.1622
L23.1266 -21.9503
L23.3461 -21.741
L23.5682 -21.5343
L23.7931 -21.3302
L24.0206 -21.1287
L24.2509 -20.9298
L24.4838 -20.7336
L24.7195 -20.54
L24.9579 -20.3491
L25.1991 -20.1609
L25.443 -19.9754
L25.6897 -19.7926
L25.9391 -19.6126
L26.1914 -19.4354
L26.4464 -19.2611
L26.7043 -19.0896
L26.965 -18.921
L27.2285 -18.7554
L27.4948 -18.5927
L27.7641 -18.4331
L28.0362 -18.2766
L28.3111 -18.1233
L28.589 -17.9731
L28.8697 -17.8262
L29.1534 -17.6827
L29.4399 -17.5425
L29.7294 -17.4057
L30.0217 -17.2726
L30.317 -17.143
L30.6152 -17.0171
L30.9162 -16.8949
L31.2202 -16.7766
L31.527 -16.6623
L31.8367 -16.552
L32.1492 -16.4458
L32.4646 -16.3439
L32.7827 -16.2463
L33.1036 -16.1531
L33.4272 -16.0645
L33.7535 -15.9806
L34.0825 -15.9015
L34.414 -15.8272
L34.7481 -15.758
L35.0847 -15.694
L35.4236 -15.6352
L35.7649 -15.5819
L36.1084 -15.5341
L36.454 -15.492
L36.8017 -15.4558
L37.1514 -15.4255
L37.5028 -15.4013
L37.856 -15.3834
L38.2107 -15.3718
L38.5668 -15.3669
L38.9242 -15.3685
L39.2827 -15.3771
L39.6421 -15.3925
L40.0023 -15.4151
L40.363 -15.445
L40.7241 -15.4822
L41.0853 -15.5269
L41.4464 -15.5792
L41.8071 -15.6393
L42.1673 -15.7072
L42.5267 -15.7831
L42.8849 -15.8671
L43.2418 -15.9592
L43.597 -16.0596
L43.9503 -16.1683
L44.3014 -16.2853
L44.6498 -16.4108
L44.9955 -16.5447
L45.3379 -16.6871
L45.6769 -16.838
L46.012 -16.9974
L46.343 -17.1652
L46.6695 -17.3415
L46.9913 -17.5261
L47.308 -17.719
L47.6192 -17.9201
L47.9248 -18.1292
L48.2243 -18.3464
L48.5175 -18.5714
L48.8041 -18.8041
L49.0839 -19.0442
L49.3566 -19.2917
L49.6219 -19.5463
L49.8797 -19.8078
L50.1296 -20.0759
L50.3716 -20.3504
L50.6055 -20.6311
L50.8311 -20.9176
L51.0483 -21.2097
L51.2569 -21.5072
L51.4568 -21.8097
L51.6481 -22.1169
L51.8306 -22.4285
L52.0043 -22.7442
L52.1692 -23.0638
L52.3253 -23.3869
L52.4725 -23.7132
L52.611 -24.0425
L52.7408 -24.3743
L52.8619 -24.7086
L52.9744 -25.0448
L53.0784 -25.3828
L53.1741 -25.7224
L53.2614 -26.0632
L53.3406 -26.4049
L53.4117 -26.7474
L53.4749 -27.0905
L53.5303 -27.4338
L53.5781 -27.7771
L53.6185 -28.1204
L53.6515 -28.4633
L53.6774 -28.8056
L53.6963 -29.1473
L53.7083 -29.4881
L53.7137 -29.8278
L53.7125 -30.1664
L53.705 -30.5037
L53.6914 -30.8395
L53.6717 -31.1738
L53.6461 -31.5064
L53.6148 -31.8372
L53.5779 -32.1662
L53.5357 -32.4931
L53.4882 -32.8181
L53.4356 -33.1409
L53.378 -33.4615
L53.3156 -33.7799
L53.2485 -34.096
L53.1768 -34.4098
L53.1007 -34.7211
L53.0203 -35.0301
L52.9357 -35.3365
L52.847 -35.6405
L52.7544 -35.942
L52.658 -36.241
L52.5578 -36.5374
L52.4539 -36.8312
L52.3465 -37.1225
L52.2357 -37.4112
L52.1215 -37.6974
L52.004 -37.981
L51.8833 -38.262
L51.7595 -38.5404
L51.6326 -38.8163
L51.5028 -39.0896
L51.37 -39.3604
L51.2344 -39.6286
L51.0961 -39.8944
L50.955 -40.1576
L50.8112 -40.4184
L50.6648 -40.6767
L50.5158 -40.9325
L50.3643 -41.1859
L50.2102 -41.4368
L50.0538 -41.6854
L49.8949 -41.9315
L49.7336 -42.1753
L49.57 -42.4168
L49.404 -42.6559
L49.2357 -42.8927
L49.0652 -43.1272
L48.8924 -43.3594
L48.7173 -43.5894
L48.54 -43.8171
L48.3605 -44.0426
L48.1789 -44.2659
L47.995 -44.487
L47.8089 -44.7058
L47.6207 -44.9225
L47.4303 -45.1371
L47.2377 -45.3495
L47.0429 -45.5597
z
" id="C0_1_cd342e1cc6"/>
    </defs>
    <g clip-path="url(#p1bffca34e9)">
     <use style="fill:#ff0000;stroke:#000000;stroke-width:2.0;" x="0.0" xlink:href="#C0_0_a811fe30f3" y="72.0"/>
    </g>
    <g clip-path="url(#p1bffca34e9)">
     <use style="fill:#ffffff;stroke:#000000;stroke-width:2.0;" x="0.0" xlink:href="#C0_1_cd342e1cc6" y="72.0"/>
    </g>
   </g>
  </g>
 </g>
 <defs>
  <clipPath id="p1bffca34e9">
   <rect height="72.0" width="72.0" x="0.0" y="0.0"/>
  </clipPath>
 </defs>
</svg>
