<?xml version="1.0" encoding="utf-8" standalone="no"?>
<!DOCTYPE svg PUBLIC "-//W3C//DTD SVG 1.1//EN"
  "http://www.w3.org/Graphics/SVG/1.1/DTD/svg11.dtd">
<!-- Created with matplotlib (http://matplotlib.org/) -->
<svg height="72pt" version="1.1" viewBox="0 0 72 72" width="72pt" xmlns="http://www.w3.org/2000/svg" xmlns:xlink="http://www.w3.org/1999/xlink">
 <defs>
  <style type="text/css">
*{stroke-linecap:butt;stroke-linejoin:round;}
  </style>
 </defs>
 <g id="figure_1">
  <g id="patch_1">
   <path d="
M0 72
L72 72
L72 0
L0 0
z
" style="fill:none;"/>
  </g>
  <g id="axes_1">
   <g id="PatchCollection_1">
    <defs>
     <path d="
M36 -7.5
C43.5583 -7.5 50.808 -10.5029 56.1525 -15.8475
C61.4971 -21.192 64.5 -28.4417 64.5 -36
C64.5 -43.5583 61.4971 -50.808 56.1525 -56.1525
C50.808 -61.4971 43.5583 -64.5 36 -64.5
C28.4417 -64.5 21.192 -61.4971 15.8475 -56.1525
C10.5029 -50.808 7.5 -43.5583 7.5 -36
C7.5 -28.4417 10.5029 -21.192 15.8475 -15.8475
C21.192 -10.5029 28.4417 -7.5 36 -7.5
z
" id="C0_0_a811fe30f3"/>
     <path d="
M37.7019 -27.2234
L37.9519 -27.2774
L38.2018 -27.3325
L38.4516 -27.3886
L38.7014 -27.4459
L38.9512 -27.5042
L39.2011 -27.5637
L39.4512 -27.6244
L39.7014 -27.6863
L39.952 -27.7493
L40.2028 -27.8136
L40.4541 -27.8792
L40.7059 -27.946
L40.9581 -28.0142
L41.211 -28.0837
L41.4644 -28.1546
L41.7186 -28.2269
L41.9735 -28.3006
L42.2293 -28.3758
L42.4859 -28.4525
L42.7435 -28.5309
L43.002 -28.6108
L43.2616 -28.6923
L43.5223 -28.7756
L43.7842 -28.8605
L44.0472 -28.9473
L44.3116 -29.0359
L44.5772 -29.1264
L44.8442 -29.2189
L45.1127 -29.3134
L45.3826 -29.4099
L45.654 -29.5085
L45.927 -29.6094
L46.2016 -29.7124
L46.4779 -29.8178
L46.7558 -29.9256
L47.0355 -30.0359
L47.3169 -30.1486
L47.6002 -30.264
L47.8852 -30.3821
L48.1721 -30.503
L48.4609 -30.6267
L48.7516 -30.7533
L49.0442 -30.883
L49.3387 -31.0158
L49.6351 -31.1517
L49.9334 -31.291
L50.2337 -31.4337
L50.5358 -31.5799
L50.8398 -31.7297
L51.1457 -31.8832
L51.4533 -32.0404
L51.7627 -32.2016
L52.0738 -32.3669
L52.3865 -32.5362
L52.7008 -32.7098
L53.0166 -32.8877
L53.3337 -33.0701
L53.6521 -33.257
L53.9716 -33.4486
L54.292 -33.6451
L54.6133 -33.8464
L54.9353 -34.0528
L55.2577 -34.2643
L55.5803 -34.481
L55.9029 -34.7031
L56.2253 -34.9307
L56.5471 -35.1639
L56.8681 -35.4028
L57.1878 -35.6475
L57.5061 -35.8981
L57.8224 -36.1548
L58.1363 -36.4177
L58.4473 -36.6868
L58.7548 -36.9624
L59.0583 -37.2446
L59.357 -37.5336
L59.6502 -37.8295
L59.9369 -38.1325
L60.216 -38.4431
L60.4862 -38.7614
L60.746 -39.088
L60.9934 -39.4233
L61.2259 -39.7681
L61.4406 -40.1232
L61.6335 -40.4897
L61.8001 -40.869
L61.9346 -41.2624
L62.0308 -41.6715
L62.0828 -42.0971
L62.0857 -42.5392
L62.0376 -42.9967
L61.9395 -43.4669
L61.7951 -43.9461
L61.61 -44.4306
L61.3897 -44.9167
L61.1398 -45.4013
L60.8649 -45.8819
L60.5687 -46.3564
L60.2545 -46.8234
L59.9248 -47.2817
L59.5816 -47.7304
L59.2269 -48.1688
L58.862 -48.5963
L58.4883 -49.0126
L58.1068 -49.4174
L57.7187 -49.8105
L57.3248 -50.1918
L56.9259 -50.5613
L56.5228 -50.9188
L56.1161 -51.2645
L55.7065 -51.5984
L55.2946 -51.9206
L54.8808 -52.2312
L54.4657 -52.5305
L54.0497 -52.8185
L53.6333 -53.0955
L53.2169 -53.3617
L52.8007 -53.6172
L52.3852 -53.8624
L51.9705 -54.0975
L51.5571 -54.3226
L51.1451 -54.538
L50.7347 -54.7441
L50.3263 -54.941
L49.9198 -55.129
L49.5156 -55.3083
L49.1138 -55.4792
L48.7144 -55.642
L48.3176 -55.7968
L47.9234 -55.9439
L47.532 -56.0836
L47.1435 -56.2161
L46.7578 -56.3415
L46.375 -56.4602
L45.9952 -56.5723
L45.6184 -56.6781
L45.2445 -56.7777
L44.8736 -56.8713
L44.5057 -56.9591
L44.1408 -57.0414
L43.7788 -57.1182
L43.4198 -57.1897
L43.0636 -57.2561
L42.7104 -57.3176
L42.3599 -57.3743
L42.0122 -57.4264
L41.6673 -57.4739
L41.3251 -57.517
L40.9855 -57.5558
L40.6486 -57.5905
L40.3141 -57.6212
L39.9821 -57.6479
L39.6526 -57.6708
L39.3253 -57.69
L39.0004 -57.7055
L38.6777 -57.7175
L38.3572 -57.7259
L38.0387 -57.731
L37.7223 -57.7327
L37.4079 -57.7312
L37.0953 -57.7264
L36.7846 -57.7185
L36.4756 -57.7076
L36.1683 -57.6935
L35.8627 -57.6765
L35.5586 -57.6565
L35.2559 -57.6335
L34.9548 -57.6077
L34.6549 -57.579
L34.3564 -57.5475
L34.059 -57.5132
L33.7628 -57.476
L33.4678 -57.4361
L33.1737 -57.3934
L32.8806 -57.348
L32.5883 -57.2998
L32.297 -57.2488
L32.0063 -57.1951
L31.7164 -57.1387
L31.4271 -57.0794
L31.1384 -57.0174
L30.8503 -56.9526
L30.5625 -56.8849
L30.2752 -56.8145
L29.9882 -56.7412
L29.7015 -56.6649
L29.4151 -56.5858
L29.1288 -56.5037
L28.8426 -56.4187
L28.5565 -56.3306
L28.2704 -56.2394
L27.9842 -56.1451
L27.698 -56.0476
L27.4116 -55.9469
L27.125 -55.8429
L26.8382 -55.7356
L26.5511 -55.6249
L26.2637 -55.5106
L25.9759 -55.3929
L25.6877 -55.2715
L25.399 -55.1463
L25.1099 -55.0174
L24.8202 -54.8846
L24.53 -54.7478
L24.2392 -54.607
L23.9478 -54.4619
L23.6558 -54.3126
L23.3631 -54.1589
L23.0698 -54.0008
L22.7757 -53.8379
L22.481 -53.6704
L22.1855 -53.498
L21.8894 -53.3205
L21.5926 -53.138
L21.295 -52.9502
L20.9968 -52.7569
L20.6979 -52.5581
L20.3984 -52.3536
L20.0983 -52.1432
L19.7977 -51.9268
L19.4965 -51.7041
L19.1949 -51.4751
L18.8928 -51.2396
L18.5905 -50.9973
L18.2879 -50.7482
L17.9852 -50.492
L17.6824 -50.2285
L17.3797 -49.9576
L17.0772 -49.6791
L16.775 -49.3927
L16.4734 -49.0984
L16.1724 -48.7959
L15.8722 -48.485
L15.5731 -48.1656
L15.2753 -47.8374
L14.979 -47.5004
L14.6844 -47.1543
L14.3919 -46.7989
L14.1017 -46.4342
L13.814 -46.06
L13.5294 -45.6762
L13.248 -45.2825
L12.9703 -44.8791
L12.6967 -44.4656
L12.4276 -44.0422
L12.1634 -43.6088
L11.9046 -43.1653
L11.6517 -42.7118
L11.4053 -42.2483
L11.1657 -41.775
L10.9337 -41.2919
L10.7099 -40.7993
L10.4948 -40.2973
L10.2892 -39.7864
L10.0938 -39.2669
L9.90942 -38.7393
L9.73683 -38.2041
L9.57698 -37.6621
L9.4309 -37.1142
L9.29977 -36.5614
L9.18491 -36.0052
L9.08788 -35.4471
L9.01053 -34.8894
L8.9551 -34.3347
L8.92425 -33.7865
L8.92117 -33.2489
L8.94944 -32.727
L9.01281 -32.2266
L9.11457 -31.7533
L9.2567 -31.3121
L9.43906 -30.9059
L9.6592 -30.5349
L9.91286 -30.1973
L10.1949 -29.8898
L10.5004 -29.6084
L10.8246 -29.3496
L11.164 -29.1103
L11.5154 -28.8878
L11.8765 -28.6802
L12.2454 -28.4858
L12.6204 -28.3033
L13.0003 -28.1317
L13.3842 -27.9701
L13.7711 -27.8178
L14.1602 -27.6743
L14.5509 -27.5389
L14.9427 -27.4113
L15.335 -27.2911
L15.7274 -27.1779
L16.1196 -27.0715
L16.511 -26.9714
L16.9015 -26.8774
L17.2908 -26.7893
L17.6785 -26.7068
L18.0645 -26.6297
L18.4485 -26.5578
L18.8303 -26.4908
L19.2098 -26.4286
L19.5869 -26.3709
L19.9613 -26.3176
L20.333 -26.2685
L20.7019 -26.2234
L21.0679 -26.1821
L21.4309 -26.1446
L21.7908 -26.1106
L22.1477 -26.08
L22.5015 -26.0527
L22.8521 -26.0285
L23.1995 -26.0073
L23.5438 -25.989
L23.8849 -25.9735
L24.2228 -25.9606
L24.5576 -25.9502
L24.8893 -25.9423
L25.2178 -25.9368
L25.5433 -25.9334
L25.8657 -25.9323
L26.1852 -25.9332
L26.5016 -25.9361
L26.8152 -25.941
L27.1259 -25.9477
L27.4338 -25.9562
L27.739 -25.9664
L28.0415 -25.9783
L28.3414 -25.9917
L28.6386 -26.0068
L28.9334 -26.0233
L29.2258 -26.0413
L29.5158 -26.0607
L29.8034 -26.0814
L30.0889 -26.1035
L30.3721 -26.1269
L30.6533 -26.1515
L30.9324 -26.1774
L31.2096 -26.2044
L31.4849 -26.2326
L31.7583 -26.262
L32.03 -26.2925
L32.3 -26.324
L32.5684 -26.3567
L32.8353 -26.3904
L33.1006 -26.4252
L33.3646 -26.461
L33.6272 -26.4979
L33.8886 -26.5357
L34.1487 -26.5746
L34.4078 -26.6145
L34.6657 -26.6553
L34.9227 -26.6972
L35.1787 -26.74
L35.4338 -26.7839
L35.6882 -26.8287
L35.9418 -26.8745
L36.1947 -26.9213
L36.447 -26.9691
L36.6988 -27.0179
L36.9501 -27.0678
L37.2011 -27.1186
z
" id="C0_1_3d59c8148f"/>
    </defs>
    <g clip-path="url(#p1bffca34e9)">
     <use style="fill:#ffffff;stroke:#000000;stroke-width:2.0;" x="0.0" xlink:href="#C0_0_a811fe30f3" y="72.0"/>
    </g>
    <g clip-path="url(#p1bffca34e9)">
     <use style="fill:#ff0000;stroke:#000000;stroke-width:2.0;" x="0.0" xlink:href="#C0_1_3d59c8148f" y="72.0"/>
    </g>
   </g>
  </g>
 </g>
 <defs>
  <clipPath id="p1bffca34e9">
   <rect height="72.0" width="72.0" x="0.0" y="0.0"/>
  </clipPath>
 </defs>
</svg>
