<?xml version="1.0" encoding="utf-8" standalone="no"?>
<!DOCTYPE svg PUBLIC "-//W3C//DTD SVG 1.1//EN"
  "http://www.w3.org/Graphics/SVG/1.1/DTD/svg11.dtd">
<!-- Created with matplotlib (http://matplotlib.org/) -->
<svg height="72pt" version="1.1" viewBox="0 0 72 72" width="72pt" xmlns="http://www.w3.org/2000/svg" xmlns:xlink="http://www.w3.org/1999/xlink">
 <defs>
  <style type="text/css">
*{stroke-linecap:butt;stroke-linejoin:round;}
  </style>
 </defs>
 <g id="figure_1">
  <g id="patch_1">
   <path d="
M0 72
L72 72
L72 0
L0 0
z
" style="fill:none;"/>
  </g>
  <g id="axes_1">
   <g id="PatchCollection_1">
    <defs>
     <path d="
M36 -7.5
C43.5583 -7.5 50.808 -10.5029 56.1525 -15.8475
C61.4971 -21.192 64.5 -28.4417 64.5 -36
C64.5 -43.5583 61.4971 -50.808 56.1525 -56.1525
C50.808 -61.4971 43.5583 -64.5 36 -64.5
C28.4417 -64.5 21.192 -61.4971 15.8475 -56.1525
C10.5029 -50.808 7.5 -43.5583 7.5 -36
C7.5 -28.4417 10.5029 -21.192 15.8475 -15.8475
C21.192 -10.5029 28.4417 -7.5 36 -7.5
z
" id="C0_0_a811fe30f3"/>
     <path d="
M26.8878 -25.6616
L26.7857 -25.9083
L26.6854 -26.1559
L26.5869 -26.4045
L26.4901 -26.6541
L26.3951 -26.9047
L26.3018 -27.1564
L26.2103 -27.4092
L26.1205 -27.6631
L26.0324 -27.9183
L25.9461 -28.1747
L25.8614 -28.4324
L25.7784 -28.6914
L25.6972 -28.9518
L25.6177 -29.2136
L25.5399 -29.4768
L25.4638 -29.7416
L25.3895 -30.0079
L25.3169 -30.2757
L25.2461 -30.5453
L25.177 -30.8164
L25.1098 -31.0893
L25.0444 -31.364
L24.9808 -31.6405
L24.9191 -31.9188
L24.8593 -32.199
L24.8015 -32.4811
L24.7456 -32.7652
L24.6917 -33.0512
L24.6399 -33.3394
L24.5902 -33.6296
L24.5426 -33.9219
L24.4972 -34.2163
L24.454 -34.513
L24.4132 -34.8118
L24.3747 -35.1129
L24.3387 -35.4162
L24.3051 -35.7218
L24.2741 -36.0296
L24.2458 -36.3398
L24.2202 -36.6523
L24.1974 -36.9671
L24.1776 -37.2842
L24.1607 -37.6036
L24.1469 -37.9253
L24.1363 -38.2492
L24.1291 -38.5755
L24.1252 -38.904
L24.1249 -39.2346
L24.1283 -39.5674
L24.1354 -39.9023
L24.1465 -40.2392
L24.1617 -40.5781
L24.1811 -40.9188
L24.2048 -41.2613
L24.2331 -41.6055
L24.2661 -41.9512
L24.3039 -42.2983
L24.3468 -42.6467
L24.3949 -42.9961
L24.4483 -43.3465
L24.5074 -43.6976
L24.5723 -44.0491
L24.6432 -44.401
L24.7203 -44.7528
L24.8039 -45.1044
L24.8941 -45.4554
L24.9911 -45.8055
L25.0953 -46.1544
L25.2068 -46.5017
L25.326 -46.847
L25.4529 -47.1899
L25.5879 -47.5299
L25.7312 -47.8667
L25.883 -48.1997
L26.0436 -48.5283
L26.2131 -48.8522
L26.3919 -49.1706
L26.58 -49.4831
L26.7777 -49.7891
L26.9852 -50.088
L27.2025 -50.3792
L27.4298 -50.6621
L27.6671 -50.9361
L27.9145 -51.2006
L28.172 -51.4551
L28.4395 -51.6991
L28.7169 -51.9321
L29.0041 -52.1536
L29.3008 -52.3632
L29.6067 -52.5605
L29.9217 -52.7453
L30.2452 -52.9174
L30.5769 -53.0765
L30.9162 -53.2226
L31.2628 -53.3555
L31.6161 -53.4754
L31.9755 -53.5822
L32.3405 -53.6761
L32.7104 -53.7572
L33.0847 -53.8258
L33.4628 -53.8821
L33.8441 -53.9263
L34.228 -53.9588
L34.614 -53.9799
L35.0016 -53.9899
L35.3902 -53.9891
L35.7793 -53.978
L36.1685 -53.9569
L36.5573 -53.926
L36.9453 -53.886
L37.3321 -53.8369
L37.7174 -53.7794
L38.1009 -53.7135
L38.4821 -53.6399
L38.8609 -53.5587
L39.2369 -53.4703
L39.61 -53.375
L39.9799 -53.2732
L40.3465 -53.1651
L40.7095 -53.051
L41.0688 -52.9312
L41.4244 -52.806
L41.776 -52.6756
L42.1235 -52.5403
L42.467 -52.4004
L42.8062 -52.256
L43.1412 -52.1073
L43.472 -51.9547
L43.7983 -51.7982
L44.1204 -51.638
L44.438 -51.4745
L44.7513 -51.3076
L45.0602 -51.1376
L45.3648 -50.9646
L45.6649 -50.7888
L45.9608 -50.6103
L46.2523 -50.4293
L46.5395 -50.2458
L46.8225 -50.0599
L47.1013 -49.8719
L47.3759 -49.6817
L47.6464 -49.4894
L47.9128 -49.2952
L48.1751 -49.0992
L48.4335 -48.9013
L48.688 -48.7017
L48.9386 -48.5005
L49.1853 -48.2976
L49.4283 -48.0932
L49.6675 -47.8873
L49.9031 -47.6799
L50.1351 -47.471
L50.3635 -47.2608
L50.5885 -47.0492
L50.81 -46.8363
L51.0281 -46.622
L51.2428 -46.4065
L51.4543 -46.1896
L51.6625 -45.9715
L51.8676 -45.7522
L52.0695 -45.5316
L52.2683 -45.3097
L52.464 -45.0866
L52.6568 -44.8622
L52.8466 -44.6366
L53.0335 -44.4097
L53.2175 -44.1816
L53.3986 -43.9521
L53.577 -43.7213
L53.7525 -43.4893
L53.9254 -43.2559
L54.0955 -43.0211
L54.2629 -42.7849
L54.4277 -42.5474
L54.5899 -42.3084
L54.7494 -42.068
L54.9064 -41.8261
L55.0608 -41.5826
L55.2126 -41.3376
L55.3619 -41.091
L55.5087 -40.8428
L55.6529 -40.593
L55.7947 -40.3414
L55.9339 -40.0882
L56.0706 -39.8331
L56.2048 -39.5762
L56.3365 -39.3175
L56.4656 -39.0569
L56.5923 -38.7943
L56.7164 -38.5297
L56.8379 -38.263
L56.9568 -37.9943
L57.0732 -37.7235
L57.1869 -37.4504
L57.2979 -37.1751
L57.4063 -36.8975
L57.5119 -36.6176
L57.6148 -36.3353
L57.7148 -36.0506
L57.812 -35.7633
L57.9063 -35.4735
L57.9977 -35.1811
L58.086 -34.886
L58.1712 -34.5883
L58.2532 -34.2878
L58.332 -33.9845
L58.4075 -33.6783
L58.4796 -33.3692
L58.5483 -33.0572
L58.6133 -32.7422
L58.6747 -32.4241
L58.7322 -32.103
L58.7859 -31.7787
L58.8356 -31.4513
L58.8811 -31.1207
L58.9223 -30.7868
L58.9592 -30.4498
L58.9915 -30.1094
L59.0191 -29.7658
L59.0419 -29.4188
L59.0596 -29.0686
L59.0722 -28.7151
L59.0794 -28.3582
L59.081 -27.9981
L59.077 -27.6346
L59.067 -27.268
L59.0509 -26.8982
L59.0284 -26.5252
L58.9994 -26.1491
L58.9636 -25.77
L58.9209 -25.388
L58.8709 -25.0032
L58.8134 -24.6157
L58.7482 -24.2256
L58.675 -23.8331
L58.5937 -23.4383
L58.5039 -23.0415
L58.4053 -22.6428
L58.2978 -22.2425
L58.1811 -21.8409
L58.055 -21.4382
L57.9191 -21.0346
L57.7733 -20.6307
L57.6173 -20.2267
L57.4508 -19.823
L57.2738 -19.42
L57.086 -19.0182
L56.8872 -18.6181
L56.6772 -18.2202
L56.4559 -17.825
L56.2233 -17.4332
L55.9791 -17.0454
L55.7235 -16.6621
L55.4563 -16.2842
L55.1777 -15.9122
L54.8876 -15.547
L54.5861 -15.1892
L54.2736 -14.8397
L53.9502 -14.4993
L53.6161 -14.1686
L53.2717 -13.8486
L52.9175 -13.5399
L52.5538 -13.2434
L52.1812 -12.9597
L51.8002 -12.6896
L51.4114 -12.4337
L51.0156 -12.1925
L50.6134 -11.9666
L50.2055 -11.7564
L49.7927 -11.5624
L49.3757 -11.3847
L48.9554 -11.2235
L48.5325 -11.079
L48.1078 -10.9511
L47.682 -10.8398
L47.2559 -10.745
L46.8301 -10.6664
L46.4052 -10.6036
L45.982 -10.5565
L45.561 -10.5244
L45.1426 -10.5071
L44.7274 -10.5041
L44.3159 -10.5147
L43.9083 -10.5385
L43.5052 -10.575
L43.1066 -10.6236
L42.7131 -10.6837
L42.3247 -10.7549
L41.9416 -10.8365
L41.5641 -10.928
L41.1923 -11.0289
L40.8263 -11.1388
L40.4661 -11.257
L40.1119 -11.3832
L39.7636 -11.5169
L39.4214 -11.6576
L39.0852 -11.8049
L38.755 -11.9584
L38.4307 -12.1178
L38.1125 -12.2826
L37.8002 -12.4524
L37.4937 -12.6271
L37.1931 -12.8062
L36.8982 -12.9895
L36.6089 -13.1766
L36.3253 -13.3673
L36.0472 -13.5614
L35.7745 -13.7586
L35.5072 -13.9588
L35.2451 -14.1615
L34.9881 -14.3668
L34.7362 -14.5744
L34.4893 -14.7841
L34.2473 -14.9958
L34.01 -15.2094
L33.7773 -15.4246
L33.5493 -15.6413
L33.3257 -15.8595
L33.1064 -16.0791
L32.8915 -16.2998
L32.6807 -16.5217
L32.474 -16.7447
L32.2713 -16.9686
L32.0725 -17.1934
L31.8775 -17.419
L31.6862 -17.6454
L31.4986 -17.8725
L31.3145 -18.1003
L31.1339 -18.3287
L30.9566 -18.5577
L30.7827 -18.7872
L30.612 -19.0173
L30.4444 -19.2479
L30.2799 -19.479
L30.1184 -19.7105
L29.9598 -19.9425
L29.8041 -20.175
L29.6512 -20.4079
L29.5011 -20.6412
L29.3536 -20.8749
L29.2087 -21.1091
L29.0664 -21.3438
L28.9266 -21.5789
L28.7892 -21.8144
L28.6542 -22.0505
L28.5216 -22.287
L28.3913 -22.524
L28.2632 -22.7616
L28.1373 -22.9997
L28.0136 -23.2383
L27.8921 -23.4776
L27.7726 -23.7174
L27.6551 -23.9579
L27.5397 -24.1991
L27.4263 -24.4409
L27.3148 -24.6835
L27.2052 -24.9268
L27.0976 -25.1709
z
" id="C0_1_53ec619fc4"/>
    </defs>
    <g clip-path="url(#p1bffca34e9)">
     <use style="fill:#ff0000;stroke:#000000;stroke-width:2.0;" x="0.0" xlink:href="#C0_0_a811fe30f3" y="72.0"/>
    </g>
    <g clip-path="url(#p1bffca34e9)">
     <use style="fill:#ffffff;stroke:#000000;stroke-width:2.0;" x="0.0" xlink:href="#C0_1_53ec619fc4" y="72.0"/>
    </g>
   </g>
  </g>
 </g>
 <defs>
  <clipPath id="p1bffca34e9">
   <rect height="72.0" width="72.0" x="0.0" y="0.0"/>
  </clipPath>
 </defs>
</svg>
