<?xml version="1.0" encoding="utf-8" standalone="no"?>
<!DOCTYPE svg PUBLIC "-//W3C//DTD SVG 1.1//EN"
  "http://www.w3.org/Graphics/SVG/1.1/DTD/svg11.dtd">
<!-- Created with matplotlib (http://matplotlib.org/) -->
<svg height="72pt" version="1.1" viewBox="0 0 72 72" width="72pt" xmlns="http://www.w3.org/2000/svg" xmlns:xlink="http://www.w3.org/1999/xlink">
 <defs>
  <style type="text/css">
*{stroke-linecap:butt;stroke-linejoin:round;}
  </style>
 </defs>
 <g id="figure_1">
  <g id="patch_1">
   <path d="
M0 72
L72 72
L72 0
L0 0
z
" style="fill:none;"/>
  </g>
  <g id="axes_1">
   <g id="PatchCollection_1">
    <defs>
     <path d="
M36 -7.5
C43.5583 -7.5 50.808 -10.5029 56.1525 -15.8475
C61.4971 -21.192 64.5 -28.4417 64.5 -36
C64.5 -43.5583 61.4971 -50.808 56.1525 -56.1525
C50.808 -61.4971 43.5583 -64.5 36 -64.5
C28.4417 -64.5 21.192 -61.4971 15.8475 -56.1525
C10.5029 -50.808 7.5 -43.5583 7.5 -36
C7.5 -28.4417 10.5029 -21.192 15.8475 -15.8475
C21.192 -10.5029 28.4417 -7.5 36 -7.5
z
" id="C0_0_a811fe30f3"/>
     <path d="
M54.7125 -57.4134
L54.3818 -57.4642
L54.0564 -57.5005
L53.7367 -57.5224
L53.4228 -57.5303
L53.1151 -57.5243
L52.8137 -57.5048
L52.5187 -57.4721
L52.2304 -57.4266
L51.9486 -57.3686
L51.6736 -57.2986
L51.4052 -57.217
L51.1434 -57.1242
L50.8883 -57.0207
L50.6396 -56.9068
L50.3973 -56.7831
L50.1612 -56.6501
L49.9312 -56.5081
L49.7072 -56.3576
L49.4889 -56.1991
L49.2762 -56.033
L49.0689 -55.8597
L48.8668 -55.6797
L48.6697 -55.4934
L48.4774 -55.3012
L48.2898 -55.1034
L48.1066 -54.9004
L47.9276 -54.6926
L47.7528 -54.4803
L47.5818 -54.2638
L47.4146 -54.0435
L47.251 -53.8196
L47.0908 -53.5925
L46.9338 -53.3623
L46.78 -53.1294
L46.6292 -52.894
L46.4812 -52.6562
L46.3359 -52.4164
L46.1933 -52.1747
L46.0531 -51.9314
L45.9154 -51.6865
L45.7799 -51.4402
L45.6466 -51.1928
L45.5155 -50.9443
L45.3863 -50.6948
L45.2591 -50.4446
L45.1337 -50.1937
L45.0101 -49.9423
L44.8882 -49.6903
L44.7679 -49.438
L44.6493 -49.1854
L44.5321 -48.9326
L44.4164 -48.6796
L44.3021 -48.4265
L44.1891 -48.1734
L44.0774 -47.9203
L43.967 -47.6673
L43.8578 -47.4144
L43.7497 -47.1616
L43.6428 -46.9091
L43.5369 -46.6567
L43.4321 -46.4045
L43.3283 -46.1526
L43.2254 -45.901
L43.1235 -45.6497
L43.0224 -45.3986
L42.9223 -45.1478
L42.8229 -44.8973
L42.7244 -44.6472
L42.6266 -44.3973
L42.5296 -44.1477
L42.4333 -43.8984
L42.3377 -43.6494
L42.2427 -43.4006
L42.1484 -43.1522
L42.0547 -42.9039
L41.9617 -42.6559
L41.8691 -42.4081
L41.7772 -42.1605
L41.6857 -41.9131
L41.5948 -41.6658
L41.5044 -41.4186
L41.4144 -41.1716
L41.3249 -40.9246
L41.2358 -40.6777
L41.1472 -40.4309
L41.0589 -40.184
L40.971 -39.9372
L40.8835 -39.6902
L40.7963 -39.4432
L40.7095 -39.1961
L40.623 -38.9489
L40.5368 -38.7015
L40.3653 -38.4539
L40.28 -38.2061
L40.1949 -37.958
L40.11 -37.7096
L40.0254 -37.4609
L39.9411 -37.2119
L39.8569 -36.9624
L39.773 -36.7125
L39.6892 -36.4622
L39.6057 -36.2114
L39.5223 -35.9601
L39.4392 -35.7082
L39.3562 -35.4558
L39.2733 -35.2027
L39.1907 -34.9489
L39.1082 -34.6945
L39.0259 -34.4394
L38.9438 -34.1835
L38.8618 -33.9269
L38.78 -33.6694
L38.6984 -33.4111
L38.617 -33.152
L38.5357 -32.8919
L38.4546 -32.6309
L38.3738 -32.3689
L38.2931 -32.106
L38.2127 -31.8421
L38.1325 -31.5771
L38.0526 -31.3111
L37.973 -31.0439
L37.8936 -30.7757
L37.8145 -30.5064
L37.7358 -30.2359
L37.6575 -29.9643
L37.5796 -29.6914
L37.5021 -29.4174
L37.425 -29.1422
L37.3485 -28.8658
L37.2725 -28.5881
L37.1971 -28.3093
L37.1224 -28.0292
L37.0483 -27.7479
L36.9751 -27.4653
L36.9026 -27.1815
L36.8311 -26.8966
L36.7605 -26.6104
L36.6909 -26.323
L36.6225 -26.0345
L36.5554 -25.7448
L36.4895 -25.4541
L36.4251 -25.1622
L36.3622 -24.8693
L36.301 -24.5754
L36.2416 -24.2805
L36.1842 -23.9847
L36.1288 -23.6881
L36.0756 -23.3906
L36.0249 -23.0925
L35.9767 -22.7937
L35.9312 -22.4943
L35.8888 -22.1945
L35.8494 -21.8942
L35.8135 -21.5937
L35.7812 -21.293
L35.7527 -20.9922
L35.7283 -20.6914
L35.7083 -20.3908
L35.693 -20.0906
L35.6826 -19.7908
L35.6774 -19.4916
L35.6777 -19.1932
L35.6839 -18.8957
L35.6963 -18.5994
L35.7152 -18.3043
L35.7409 -18.0108
L35.7739 -17.7189
L35.8144 -17.429
L35.8628 -17.1412
L35.9194 -16.8557
L35.9846 -16.5729
L36.0587 -16.2928
L36.1421 -16.0158
L36.2349 -15.7422
L36.3376 -15.4721
L36.4504 -15.2059
L36.5735 -14.9439
L36.7072 -14.6862
L36.8516 -14.4332
L37.0069 -14.1851
L37.1732 -13.9423
L37.3505 -13.7049
L37.539 -13.4733
L37.7386 -13.2478
L37.9492 -13.0286
L38.1709 -12.816
L38.4034 -12.6101
L38.6466 -12.4114
L38.9003 -12.22
L39.1643 -12.0361
L39.4383 -11.8599
L39.7219 -11.6917
L40.0149 -11.5317
L40.3169 -11.38
L40.6276 -11.2367
L40.9465 -11.1021
L41.2733 -10.9763
L41.6075 -10.8594
L41.9487 -10.7514
L42.2964 -10.6526
L42.6503 -10.5629
L43.0099 -10.4824
L43.3747 -10.4112
L43.7444 -10.3492
L44.1185 -10.2966
L44.4965 -10.2534
L44.8781 -10.2194
L45.2629 -10.1947
L45.6505 -10.1793
L46.0404 -10.1732
L46.4323 -10.1762
L46.8259 -10.1884
L47.2208 -10.2096
L47.6166 -10.2399
L48.0131 -10.279
L48.4099 -10.327
L48.8713 -10.3837
L49.3131 -10.5721
L49.7509 -10.8006
L50.1845 -11.0368
L50.6137 -11.2806
L51.0385 -11.5319
L51.4587 -11.7906
L51.8743 -12.0568
L52.2849 -12.3302
L52.6907 -12.6109
L53.0913 -12.8987
L53.4867 -13.1935
L53.8768 -13.4952
L54.2615 -13.8038
L54.6406 -14.1192
L55.014 -14.4413
L55.3816 -14.7699
L55.7433 -15.1049
L56.099 -15.4464
L56.4486 -15.7941
L56.7919 -16.1479
L57.129 -16.5078
L57.4595 -16.8737
L57.7836 -17.2453
L58.101 -17.6227
L58.4117 -18.0057
L58.7155 -18.3941
L59.0125 -18.788
L59.3024 -19.187
L59.5852 -19.5912
L59.8608 -20.0004
L60.1292 -20.4144
L60.3902 -20.8332
L60.6438 -21.2567
L60.8899 -21.6846
L61.1284 -22.1168
L61.3593 -22.5534
L61.5824 -22.994
L61.7977 -23.4385
L62.0052 -23.8869
L62.2048 -24.339
L62.3963 -24.7946
L62.5799 -25.2536
L62.7553 -25.716
L62.9226 -26.1814
L63.0817 -26.6499
L63.2325 -27.1211
L63.375 -27.5951
L63.5092 -28.0717
L63.635 -28.5507
L63.7524 -29.0319
L63.8614 -29.5152
L63.9618 -30.0006
L64.0538 -30.4877
L64.1372 -30.9766
L64.212 -31.467
L64.2783 -31.9587
L64.3359 -32.4517
L64.3849 -32.9458
L64.4252 -33.4408
L64.4569 -33.9365
L64.4799 -34.4329
L64.4942 -34.9298
L64.4999 -35.427
L64.4969 -35.9244
L64.4852 -36.4218
L64.4648 -36.9191
L64.4357 -37.4161
L64.398 -37.9126
L64.3517 -38.4086
L64.2967 -38.9039
L64.2331 -39.3982
L64.1608 -39.8915
L64.0801 -40.3837
L63.9907 -40.8745
L63.8928 -41.3638
L63.7865 -41.8515
L63.6716 -42.3374
L63.5484 -42.8214
L63.4167 -43.3033
L63.2767 -43.783
L63.1284 -44.2603
L62.9718 -44.735
L62.807 -45.2072
L62.634 -45.6765
L62.453 -46.1429
L62.2638 -46.6061
L62.0667 -47.0662
L61.8616 -47.5229
L61.6487 -47.9761
L61.4279 -48.4256
L61.1994 -48.8713
L60.9632 -49.3131
L60.7194 -49.7509
L60.4681 -50.1845
L60.2094 -50.6137
L59.9432 -51.0385
L59.6698 -51.4587
L59.3891 -51.8743
L59.1013 -52.2849
L58.8065 -52.6907
L58.5048 -53.0913
L58.1962 -53.4867
L57.8808 -53.8768
L57.5587 -54.2615
L57.2301 -54.6406
L56.8951 -55.014
L56.5536 -55.3816
L56.2059 -55.7433
L55.8521 -56.099
L55.4922 -56.4486
L55.1263 -56.7919
z
" id="C0_1_8aa51eca9d"/>
     <path d="
M23.2658 -61.4062
L22.9769 -61.1293
L22.692 -60.8506
L22.4113 -60.5701
L22.1349 -60.2878
L21.8627 -60.0039
L21.5949 -59.7185
L21.3314 -59.4317
L21.0724 -59.1435
L20.8178 -58.8541
L20.5677 -58.5634
L20.322 -58.2717
L20.0807 -57.9789
L19.8439 -57.6851
L19.6115 -57.3905
L19.3835 -57.095
L19.1598 -56.7987
L18.9406 -56.5017
L18.7256 -56.204
L18.5149 -55.9057
L18.3085 -55.6067
L18.1062 -55.3073
L17.9082 -55.0073
L17.7142 -54.7069
L17.5243 -54.4059
L17.3385 -54.1046
L17.1566 -53.8029
L16.9787 -53.5008
L16.8046 -53.1983
L16.6344 -52.8954
L16.468 -52.5923
L16.3054 -52.2888
L16.1464 -51.9849
L15.9911 -51.6808
L15.8394 -51.3763
L15.6913 -51.0715
L15.5466 -50.7663
L15.4055 -50.4609
L15.2678 -50.1551
L15.1334 -49.8489
L15.0024 -49.5424
L14.8748 -49.2355
L14.7504 -48.9282
L14.6292 -48.6205
L14.5112 -48.3124
L14.3965 -48.0039
L14.2848 -47.6949
L14.1763 -47.3854
L14.0708 -47.0754
L13.9684 -46.7649
L13.869 -46.4538
L13.7727 -46.1421
L13.6793 -45.8299
L13.5889 -45.517
L13.5014 -45.2034
L13.4168 -44.8892
L13.3352 -44.5742
L13.2565 -44.2585
L13.1806 -43.9421
L13.1077 -43.6248
L13.0376 -43.3066
L12.9704 -42.9876
L12.906 -42.6677
L12.8445 -42.3469
L12.7859 -42.025
L12.7301 -41.7022
L12.6772 -41.3784
L12.6272 -41.0535
L12.58 -40.7275
L12.5357 -40.4003
L12.4943 -40.0721
L12.4558 -39.7426
L12.4203 -39.4119
L12.3876 -39.08
L12.3579 -38.7468
L12.3312 -38.4123
L12.3075 -38.0764
L12.2867 -37.7392
L12.269 -37.4007
L12.2544 -37.0607
L12.2428 -36.7193
L12.2343 -36.3765
L12.229 -36.0322
L12.2268 -35.6865
L12.2278 -35.3392
L12.232 -34.9905
L12.2395 -34.6402
L12.2503 -34.2884
L12.2643 -33.9351
L12.2817 -33.5803
L12.3025 -33.224
L12.3266 -32.8661
L12.3542 -32.5067
L12.3853 -32.1458
L12.4198 -31.7834
L12.4579 -31.4195
L12.4995 -31.0542
L12.5447 -30.6875
L12.5935 -30.3194
L12.6459 -29.9499
L12.7019 -29.5791
L12.7616 -29.207
L12.8249 -28.8337
L12.8919 -28.4592
L12.9625 -28.0837
L13.0367 -27.7071
L13.1146 -27.3295
L13.1961 -26.9511
L13.2812 -26.5718
L13.3699 -26.1919
L13.462 -25.8113
L13.5576 -25.4302
L13.6566 -25.0488
L13.7589 -24.667
L13.8644 -24.2852
L13.9731 -23.9032
L14.0847 -23.5214
L14.1993 -23.1399
L14.3165 -22.7587
L14.4364 -22.3781
L14.5587 -21.9982
L14.6832 -21.6192
L14.8097 -21.2412
L14.9379 -20.8645
L15.0678 -20.4891
L15.1989 -20.1153
L15.331 -19.7432
L15.4638 -19.373
L15.5971 -19.005
L15.7304 -18.6392
L15.8635 -18.2759
L15.9959 -17.9153
L16.1274 -17.5575
L16.2575 -17.2027
L16.386 -16.8511
L16.5123 -16.5029
L16.6362 -16.1581
L16.7572 -15.8171
L16.875 -15.4799
L16.9892 -15.1466
L16.6572 -14.8175
L16.2949 -15.069
L15.9385 -15.4098
L15.5883 -15.7568
L15.2443 -16.11
L14.9066 -16.4693
L14.5753 -16.8345
L14.2506 -17.2055
L13.9324 -17.5823
L13.621 -17.9647
L13.3165 -18.3526
L13.0188 -18.7458
L12.7281 -19.1443
L12.4445 -19.548
L12.1681 -19.9566
L11.899 -20.3702
L11.6372 -20.7885
L11.3828 -21.2114
L11.1359 -21.6389
L10.8966 -22.0707
L10.6649 -22.5067
L10.441 -22.9469
L10.2248 -23.391
L10.0165 -23.839
L9.81609 -24.2907
L9.62367 -24.746
L9.43928 -25.2047
L9.26298 -25.6666
L9.09483 -26.1318
L8.93488 -26.5999
L8.78316 -27.0709
L8.63974 -27.5446
L8.50465 -28.0209
L8.37794 -28.4996
L8.25964 -28.9806
L8.14979 -29.4637
L8.04843 -29.9489
L7.95558 -30.4359
L7.87127 -30.9245
L7.79553 -31.4147
L7.72838 -31.9064
L7.66985 -32.3992
L7.61994 -32.8932
L7.57868 -33.3881
L7.54607 -33.8838
L7.52214 -34.3801
L7.50687 -34.8769
L7.50029 -35.3741
L7.50239 -35.8715
L7.51317 -36.3689
L7.53262 -36.8662
L7.56075 -37.3632
L7.59754 -37.8598
L7.64298 -38.3559
L7.69706 -38.8512
L7.75976 -39.3457
L7.83107 -39.8391
L7.91095 -40.3314
L7.99939 -40.8224
L8.09636 -41.3119
L8.20183 -41.7997
L8.31576 -42.2858
L8.43813 -42.77
L8.5689 -43.2521
L8.70802 -43.7321
L8.85545 -44.2096
L9.01116 -44.6847
L9.17508 -45.1571
L9.34718 -45.6267
L9.52739 -46.0934
L9.71567 -46.557
L9.91195 -47.0174
L10.1162 -47.4745
L10.3283 -47.928
L10.5482 -48.378
L10.7759 -48.8241
L11.0113 -49.2663
L11.2543 -49.7045
L11.5048 -50.1386
L11.7628 -50.5683
L12.0281 -50.9936
L12.3008 -51.4143
L12.5807 -51.8303
L12.8677 -52.2415
L13.1618 -52.6477
L13.4628 -53.0489
L13.7707 -53.4449
L14.0854 -53.8356
L14.4067 -54.2208
L14.7346 -54.6005
L15.069 -54.9745
L15.4098 -55.3428
L15.7568 -55.7051
L16.11 -56.0615
L16.4693 -56.4117
L16.8345 -56.7557
L17.2055 -57.0934
L17.5823 -57.4247
L17.9647 -57.7494
L18.3526 -58.0676
L18.7458 -58.379
L19.1443 -58.6835
L19.548 -58.9812
L19.9566 -59.2719
L20.3702 -59.5555
L20.7885 -59.8319
L21.2114 -60.101
L21.6389 -60.3628
L22.0707 -60.6172
L22.5067 -60.8641
z
" id="C0_2_4167acb789"/>
    </defs>
    <g clip-path="url(#p1bffca34e9)">
     <use style="fill:#ff0000;stroke:#000000;stroke-width:2.0;" x="0.0" xlink:href="#C0_0_a811fe30f3" y="72.0"/>
    </g>
    <g clip-path="url(#p1bffca34e9)">
     <use style="fill:#ffffff;stroke:#000000;stroke-width:2.0;" x="0.0" xlink:href="#C0_1_8aa51eca9d" y="72.0"/>
    </g>
    <g clip-path="url(#p1bffca34e9)">
     <use style="fill:#ffffff;stroke:#000000;stroke-width:2.0;" x="0.0" xlink:href="#C0_2_4167acb789" y="72.0"/>
    </g>
   </g>
  </g>
 </g>
 <defs>
  <clipPath id="p1bffca34e9">
   <rect height="72.0" width="72.0" x="0.0" y="0.0"/>
  </clipPath>
 </defs>
</svg>
