<?xml version="1.0" encoding="utf-8" standalone="no"?>
<!DOCTYPE svg PUBLIC "-//W3C//DTD SVG 1.1//EN"
  "http://www.w3.org/Graphics/SVG/1.1/DTD/svg11.dtd">
<!-- Created with matplotlib (http://matplotlib.org/) -->
<svg height="72pt" version="1.1" viewBox="0 0 72 72" width="72pt" xmlns="http://www.w3.org/2000/svg" xmlns:xlink="http://www.w3.org/1999/xlink">
 <defs>
  <style type="text/css">
*{stroke-linecap:butt;stroke-linejoin:round;}
  </style>
 </defs>
 <g id="figure_1">
  <g id="patch_1">
   <path d="
M0 72
L72 72
L72 0
L0 0
z
" style="fill:none;"/>
  </g>
  <g id="axes_1">
   <g id="PatchCollection_1">
    <defs>
     <path d="
M36 -7.5
C43.5583 -7.5 50.808 -10.5029 56.1525 -15.8475
C61.4971 -21.192 64.5 -28.4417 64.5 -36
C64.5 -43.5583 61.4971 -50.808 56.1525 -56.1525
C50.808 -61.4971 43.5583 -64.5 36 -64.5
C28.4417 -64.5 21.192 -61.4971 15.8475 -56.1525
C10.5029 -50.808 7.5 -43.5583 7.5 -36
C7.5 -28.4417 10.5029 -21.192 15.8475 -15.8475
C21.192 -10.5029 28.4417 -7.5 36 -7.5
z
" id="C0_0_a811fe30f3"/>
     <path d="
M27.3212 -63.1434
L27.2934 -62.9401
L27.2676 -62.7369
L27.2437 -62.5338
L27.2217 -62.3308
L27.2015 -62.1278
L27.1831 -61.9248
L27.1663 -61.7217
L27.1512 -61.5186
L27.1377 -61.3154
L27.1258 -61.1121
L27.1154 -60.9085
L27.1065 -60.7048
L27.0991 -60.5007
L27.0931 -60.2964
L27.0885 -60.0917
L27.0852 -59.8866
L27.0833 -59.6811
L27.0828 -59.4751
L27.0835 -59.2686
L27.0856 -59.0616
L27.0934 -58.8539
L27.0993 -58.6455
L27.1063 -58.4365
L27.1146 -58.2267
L27.1241 -58.0161
L27.1348 -57.8046
L27.1468 -57.5922
L27.1599 -57.3789
L27.1743 -57.1645
L27.1898 -56.9491
L27.2066 -56.7326
L27.2245 -56.5149
L27.2437 -56.2959
L27.2641 -56.0757
L27.2858 -55.8542
L27.3087 -55.6313
L27.3328 -55.4069
L27.3582 -55.181
L27.3849 -54.9535
L27.4129 -54.7244
L27.4421 -54.4936
L27.4727 -54.2611
L27.5047 -54.0268
L27.538 -53.7906
L27.5727 -53.5525
L27.6088 -53.3123
L27.6463 -53.0702
L27.6853 -52.8259
L27.7258 -52.5794
L27.7678 -52.3307
L27.8113 -52.0797
L27.8565 -51.8263
L27.9032 -51.5705
L27.9516 -51.3122
L28.0017 -51.0514
L28.0535 -50.7879
L28.1071 -50.5218
L28.1625 -50.253
L28.2197 -49.9814
L28.2788 -49.7069
L28.3399 -49.4296
L28.403 -49.1493
L28.4681 -48.866
L28.5353 -48.5797
L28.6047 -48.2903
L28.6763 -47.9979
L28.7501 -47.7022
L28.8263 -47.4034
L28.9049 -47.1015
L28.9859 -46.7963
L29.0694 -46.4879
L29.1555 -46.1762
L29.2443 -45.8614
L29.3358 -45.5433
L29.4301 -45.2221
L29.5272 -44.8977
L29.6274 -44.5703
L29.7305 -44.2398
L29.8368 -43.9064
L29.9463 -43.5701
L30.0591 -43.231
L30.1753 -42.8894
L30.295 -42.5452
L30.4183 -42.1988
L30.5453 -41.8502
L30.6762 -41.4998
L30.811 -41.1478
L30.9499 -40.7944
L31.093 -40.44
L31.2406 -40.085
L31.3926 -39.7298
L31.5494 -39.3747
L31.7111 -39.0205
L31.878 -38.6675
L32.0502 -38.3165
L32.228 -37.9681
L32.4117 -37.6231
L32.6017 -37.2823
L32.7981 -36.9467
L33.0014 -36.6173
L33.212 -36.2952
L33.4303 -35.9816
L33.6566 -35.6776
L33.8915 -35.3847
L34.1352 -35.1042
L34.3882 -34.8374
L34.6509 -34.5858
L34.9235 -34.3507
L35.2061 -34.1331
L35.4989 -33.9342
L35.8017 -33.7549
L36.1144 -33.5955
L36.4366 -33.4565
L36.7678 -33.3379
L37.1074 -33.2394
L37.4547 -33.1604
L37.8089 -33.1003
L38.1692 -33.058
L38.5347 -33.0325
L38.9046 -33.0228
L39.2781 -33.0276
L39.6544 -33.0458
L40.0327 -33.0762
L40.4123 -33.1179
L40.7925 -33.1698
L41.1729 -33.2308
L41.5527 -33.3003
L41.9316 -33.3772
L42.309 -33.461
L42.6846 -33.5509
L43.058 -33.6464
L43.4288 -33.7467
L43.7969 -33.8516
L44.1618 -33.9604
L44.5234 -34.0728
L44.8815 -34.1884
L45.2359 -34.3068
L45.5865 -34.4278
L45.9331 -34.5511
L46.2756 -34.6763
L46.614 -34.8033
L46.9482 -34.9319
L47.2781 -35.0619
L47.6037 -35.193
L47.9249 -35.3251
L48.2417 -35.4582
L48.5542 -35.592
L48.8623 -35.7264
L49.1661 -35.8614
L49.4656 -35.9968
L49.7607 -36.1326
L50.0516 -36.2686
L50.3382 -36.4049
L50.6207 -36.5413
L50.899 -36.6777
L51.1733 -36.8143
L51.4435 -36.9508
L51.7098 -37.0872
L51.9722 -37.2236
L52.2307 -37.3599
L52.4855 -37.4961
L52.7366 -37.6321
L52.9841 -37.768
L53.228 -37.9037
L53.4684 -38.0392
L53.7054 -38.1746
L53.9391 -38.3098
L54.1695 -38.4447
L54.3967 -38.5796
L54.6208 -38.7142
L54.8418 -38.8487
L55.0598 -38.983
L55.2749 -39.1171
L55.4871 -39.2512
L55.6965 -39.3851
L55.9033 -39.5189
L56.1073 -39.6526
L56.3088 -39.7862
L56.5077 -39.9199
L56.7042 -40.0534
L56.8983 -40.187
L57.09 -40.3206
L57.2794 -40.4542
L57.4665 -40.5879
L57.6515 -40.7218
L57.8343 -40.8557
L58.0151 -40.9898
L58.1938 -41.1241
L58.3705 -41.2585
L58.5453 -41.3933
L58.7182 -41.5283
L58.8892 -41.6636
L59.0584 -41.7993
L59.2259 -41.9353
L59.3916 -42.0718
L59.5556 -42.2087
L59.718 -42.3462
L59.8787 -42.4841
L60.0378 -42.6227
L60.1953 -42.7618
L60.3513 -42.9016
L60.5058 -43.0421
L60.6588 -43.1834
L60.8103 -43.3254
L60.9604 -43.4683
L61.109 -43.6121
L61.2562 -43.7568
L61.402 -43.9025
L61.5464 -44.0492
L61.6894 -44.197
L61.831 -44.346
L61.9713 -44.4962
L62.1101 -44.6477
L62.2476 -44.8005
L62.3837 -44.9547
L62.5184 -45.1103
L62.6517 -45.2675
L62.7836 -45.4262
L62.6613 -45.5866
L62.4814 -46.0711
L62.2935 -46.5349
L62.0976 -46.9955
L61.8938 -47.4527
L61.682 -47.9064
L61.4625 -48.3565
L61.2352 -48.8028
L61.0002 -49.2452
L60.7575 -49.6836
L60.5074 -50.1179
L60.2497 -50.5478
L59.9847 -50.9733
L59.7124 -51.3942
L59.4329 -51.8105
L59.1462 -52.2219
L58.8525 -52.6284
L58.5518 -53.0298
L58.2442 -53.4261
L57.9299 -53.817
L57.6089 -54.2025
L57.2813 -54.5825
L56.9472 -54.9567
L56.6067 -55.3253
L56.26 -55.6879
L55.9071 -56.0445
L55.5481 -56.3951
L55.1832 -56.7394
L54.8124 -57.0774
L54.4359 -57.409
L54.0538 -57.734
L53.6661 -58.0525
L53.2731 -58.3642
L52.8749 -58.6691
L52.4715 -58.9671
L52.0631 -59.2581
L51.6497 -59.5421
L51.2317 -59.8188
L50.8089 -60.0883
L50.3817 -60.3505
L49.9501 -60.6052
L49.5142 -60.8525
L49.0743 -61.0921
L48.6303 -61.3242
L48.1825 -61.5485
L47.731 -61.765
L47.2759 -61.9737
L46.8174 -62.1745
L46.3556 -62.3673
L45.8906 -62.5521
L45.4226 -62.7288
L44.9517 -62.8973
L44.4781 -63.0577
L44.002 -63.2098
L43.5234 -63.3536
L43.0425 -63.4891
L42.5594 -63.6162
L42.0744 -63.7349
L41.5875 -63.8451
L41.0989 -63.9469
L40.6088 -64.0402
L40.1172 -64.1249
L39.6244 -64.201
L39.1305 -64.2686
L38.6357 -64.3275
L38.14 -64.3779
L37.6437 -64.4195
L37.1469 -64.4526
L36.6497 -64.4769
L36.1523 -64.4926
L35.6549 -64.4996
L35.1576 -64.4979
L34.6606 -64.4875
L34.1639 -64.4685
L33.6678 -64.4408
L33.1725 -64.4044
L32.678 -64.3594
L32.1845 -64.3057
L31.6921 -64.2434
L31.2011 -64.1725
L30.7116 -64.0931
L30.2236 -64.005
L29.7374 -63.9085
L29.2531 -63.8034
L28.7709 -63.6899
L28.2909 -63.5679
L27.8132 -63.4376
z
" id="C0_1_3a6349a937"/>
     <path d="
M9.32197 -26.3367
L9.52818 -26.2966
L9.73643 -26.2578
L9.94681 -26.2203
L10.1594 -26.184
L10.3742 -26.1489
L10.5913 -26.1151
L10.8108 -26.0825
L11.0327 -26.0512
L11.2572 -26.0211
L11.4842 -25.9922
L11.7139 -25.9646
L11.9464 -25.9382
L12.1816 -25.913
L12.4197 -25.8891
L12.6607 -25.8665
L12.9048 -25.8451
L13.1519 -25.825
L13.4022 -25.8061
L13.6557 -25.7885
L13.9125 -25.7722
L14.1727 -25.7572
L14.4364 -25.7435
L14.7036 -25.7311
L14.9743 -25.7201
L15.2487 -25.7104
L15.5269 -25.702
L15.8088 -25.6949
L16.0945 -25.6892
L16.3842 -25.6849
L16.6777 -25.6819
L16.9753 -25.6803
L17.277 -25.68
L17.5827 -25.6811
L17.8926 -25.6835
L18.2065 -25.6873
L18.5247 -25.6924
L18.847 -25.6987
L19.1735 -25.7063
L19.5042 -25.7152
L19.8391 -25.7252
L20.178 -25.7363
L20.5211 -25.7484
L20.8682 -25.7616
L21.2192 -25.7756
L21.5741 -25.7904
L21.9328 -25.8058
L22.2951 -25.8216
L22.6609 -25.8378
L23.03 -25.8541
L23.4023 -25.8702
L23.7774 -25.8859
L24.1552 -25.9009
L24.5354 -25.9148
L24.9176 -25.9273
L25.3015 -25.9378
L25.6867 -25.9459
L26.0728 -25.9509
L26.4593 -25.9523
L26.8456 -25.9493
L27.2313 -25.9412
L27.6156 -25.9269
L27.998 -25.9056
L28.3777 -25.8762
L28.7541 -25.8376
L29.1263 -25.7888
L29.4937 -25.7285
L29.8555 -25.6556
L30.2109 -25.569
L30.5594 -25.4678
L30.9004 -25.3511
L31.2334 -25.2183
L31.5581 -25.0691
L31.8744 -24.9034
L32.182 -24.7213
L32.4812 -24.5234
L32.7722 -24.3103
L33.0551 -24.0829
L33.3306 -23.8423
L33.5988 -23.5898
L33.8604 -23.3265
L34.1158 -23.0537
L34.3654 -22.7728
L34.6097 -22.4849
L34.8491 -22.1912
L35.084 -21.8928
L35.3147 -21.5907
L35.5415 -21.2858
L35.7647 -20.979
L35.9846 -20.671
L36.2013 -20.3625
L36.4151 -20.0542
L36.6261 -19.7466
L36.8344 -19.4401
L37.0401 -19.1353
L37.2434 -18.8324
L37.4444 -18.5319
L37.6432 -18.2341
L37.8397 -17.9391
L38.0341 -17.6472
L38.2265 -17.3587
L38.4169 -17.0736
L38.6053 -16.7921
L38.7917 -16.5143
L38.9763 -16.2403
L39.1591 -15.9702
L39.34 -15.7041
L39.5192 -15.4419
L39.6967 -15.1837
L39.8725 -14.9296
L40.0466 -14.6794
L40.2191 -14.4333
L40.39 -14.1913
L40.5594 -13.9531
L40.7272 -13.719
L40.8936 -13.4888
L41.0585 -13.2624
L41.222 -13.0399
L41.3841 -12.8212
L41.5449 -12.6063
L41.7044 -12.395
L41.8626 -12.1873
L42.0196 -11.9832
L42.1754 -11.7827
L42.33 -11.5856
L42.4836 -11.3918
L42.6361 -11.2014
L42.7875 -11.0143
L42.938 -10.8304
L43.0874 -10.6496
L43.236 -10.4719
L43.3837 -10.2972
L43.5306 -10.1255
L43.6767 -9.95665
L43.822 -9.79066
L43.9667 -9.62744
L44.1106 -9.46695
L44.2539 -9.30912
L44.3967 -9.15391
L44.1186 -9.00126
L43.6405 -8.6808
L43.1602 -8.54327
L42.6777 -8.4141
L42.1931 -8.29334
L41.7066 -8.18102
L41.2185 -8.07717
L40.7287 -7.98183
L40.2375 -7.89503
L39.7449 -7.81678
L39.2513 -7.74712
L38.7567 -7.68606
L38.2612 -7.63363
L37.765 -7.58984
L37.2683 -7.55471
L36.7712 -7.52823
L36.2739 -7.51044
L35.7765 -7.50132
L35.2791 -7.50088
L34.782 -7.50912
L34.2852 -7.52604
L33.789 -7.55163
L33.2934 -7.58589
L32.7987 -7.62881
L32.305 -7.68036
L31.8123 -7.74055
L31.321 -7.80934
L30.831 -7.88672
L30.3427 -7.97266
L29.856 -8.06714
L29.3713 -8.17013
L28.8885 -8.28159
L28.408 -8.4015
L27.9297 -8.52982
L27.4539 -8.6665
L26.9807 -8.81151
L26.5102 -8.9648
L26.0427 -9.12633
L25.5781 -9.29604
L25.1168 -9.47389
L24.6587 -9.65981
L24.2041 -9.85376
L23.7532 -10.0557
L23.3059 -10.2655
L22.8625 -10.4832
L22.4231 -10.7086
L21.9878 -10.9417
L21.5568 -11.1825
L21.1303 -11.4308
L20.7082 -11.6866
L20.2908 -11.9498
L19.8782 -12.2204
L19.4705 -12.4982
L19.0678 -12.7831
L18.6703 -13.0751
L18.278 -13.3741
L17.8912 -13.68
L17.5099 -13.9927
L17.1342 -14.3121
L16.7642 -14.6381
L16.4002 -14.9706
L16.042 -15.3095
L15.69 -15.6547
L15.3442 -16.0061
L15.0046 -16.3636
L14.6714 -16.7271
L14.3448 -17.0965
L14.0247 -17.4716
L13.7113 -17.8524
L13.4048 -18.2386
L13.1051 -18.6303
L12.8123 -19.0273
L12.5267 -19.4295
L12.2482 -19.8367
L11.9769 -20.2488
L11.7129 -20.6657
L11.4564 -21.0873
L11.2073 -21.5135
L10.9657 -21.944
L10.7318 -22.3789
L10.5056 -22.8178
L10.2872 -23.2608
L10.0766 -23.7077
L9.87383 -24.1583
L9.67908 -24.6126
L9.49233 -25.0703
z
" id="C0_2_d07157d18f"/>
    </defs>
    <g clip-path="url(#p1bffca34e9)">
     <use style="fill:#ffffff;stroke:#000000;stroke-width:2.0;" x="0.0" xlink:href="#C0_0_a811fe30f3" y="72.0"/>
    </g>
    <g clip-path="url(#p1bffca34e9)">
     <use style="fill:#ff0000;stroke:#000000;stroke-width:2.0;" x="0.0" xlink:href="#C0_1_3a6349a937" y="72.0"/>
    </g>
    <g clip-path="url(#p1bffca34e9)">
     <use style="fill:#ff0000;stroke:#000000;stroke-width:2.0;" x="0.0" xlink:href="#C0_2_d07157d18f" y="72.0"/>
    </g>
   </g>
  </g>
 </g>
 <defs>
  <clipPath id="p1bffca34e9">
   <rect height="72.0" width="72.0" x="0.0" y="0.0"/>
  </clipPath>
 </defs>
</svg>
