<?xml version="1.0" encoding="utf-8" standalone="no"?>
<!DOCTYPE svg PUBLIC "-//W3C//DTD SVG 1.1//EN"
  "http://www.w3.org/Graphics/SVG/1.1/DTD/svg11.dtd">
<!-- Created with matplotlib (http://matplotlib.org/) -->
<svg height="72pt" version="1.1" viewBox="0 0 72 72" width="72pt" xmlns="http://www.w3.org/2000/svg" xmlns:xlink="http://www.w3.org/1999/xlink">
 <defs>
  <style type="text/css">
*{stroke-linecap:butt;stroke-linejoin:round;}
  </style>
 </defs>
 <g id="figure_1">
  <g id="patch_1">
   <path d="
M0 72
L72 72
L72 0
L0 0
z
" style="fill:none;"/>
  </g>
  <g id="axes_1">
   <g id="PatchCollection_1">
    <defs>
     <path d="
M36 -7.5
C43.5583 -7.5 50.808 -10.5029 56.1525 -15.8475
C61.4971 -21.192 64.5 -28.4417 64.5 -36
C64.5 -43.5583 61.4971 -50.808 56.1525 -56.1525
C50.808 -61.4971 43.5583 -64.5 36 -64.5
C28.4417 -64.5 21.192 -61.4971 15.8475 -56.1525
C10.5029 -50.808 7.5 -43.5583 7.5 -36
C7.5 -28.4417 10.5029 -21.192 15.8475 -15.8475
C21.192 -10.5029 28.4417 -7.5 36 -7.5
z
" id="C0_0_a811fe30f3"/>
     <path d="
M34.2028 -19.0774
L33.9652 -19.2243
L33.7291 -19.3736
L33.4945 -19.5255
L33.2615 -19.6799
L33.0298 -19.8368
L32.7996 -19.9962
L32.5709 -20.1582
L32.3435 -20.3227
L32.1176 -20.4897
L31.8931 -20.6593
L31.67 -20.8315
L31.4482 -21.0062
L31.2279 -21.1836
L31.0089 -21.3636
L30.7913 -21.5463
L30.5751 -21.7316
L30.3602 -21.9197
L30.1468 -22.1104
L29.9347 -22.3039
L29.7241 -22.5002
L29.5149 -22.6992
L29.3071 -22.9011
L29.1008 -23.1058
L28.896 -23.3134
L28.6927 -23.5239
L28.4909 -23.7374
L28.2906 -23.9537
L28.092 -24.1731
L27.895 -24.3955
L27.6996 -24.6209
L27.506 -24.8493
L27.3141 -25.0809
L27.1241 -25.3156
L26.9359 -25.5534
L26.7496 -25.7944
L26.5653 -26.0385
L26.3831 -26.2859
L26.203 -26.5365
L26.0251 -26.7903
L25.8495 -27.0474
L25.6763 -27.3078
L25.5055 -27.5715
L25.3373 -27.8384
L25.1718 -28.1086
L25.009 -28.3822
L24.8491 -28.659
L24.6922 -28.9391
L24.5385 -29.2224
L24.388 -29.5091
L24.2409 -29.7989
L24.0973 -30.092
L23.9575 -30.3882
L23.8214 -30.6876
L23.6894 -30.99
L23.5615 -31.2955
L23.438 -31.604
L23.319 -31.9154
L23.2047 -32.2297
L23.0952 -32.5466
L22.9909 -32.8663
L22.8919 -33.1885
L22.7983 -33.5132
L22.7105 -33.8402
L22.6286 -34.1694
L22.5528 -34.5007
L22.4834 -34.8339
L22.4205 -35.1689
L22.3645 -35.5054
L22.3154 -35.8433
L22.2737 -36.1825
L22.2394 -36.5226
L22.2128 -36.8636
L22.1941 -37.2051
L22.1835 -37.547
L22.1813 -37.8889
L22.1876 -38.2307
L22.2026 -38.5721
L22.2265 -38.9128
L22.2594 -39.2526
L22.3016 -39.5911
L22.3531 -39.9281
L22.414 -40.2633
L22.4845 -40.5965
L22.5646 -40.9272
L22.6544 -41.2553
L22.7539 -41.5805
L22.8631 -41.9024
L22.982 -42.2209
L23.1106 -42.5356
L23.2487 -42.8463
L23.3964 -43.1527
L23.5534 -43.4546
L23.7196 -43.7517
L23.8949 -44.0439
L24.0791 -44.331
L24.272 -44.6127
L24.4733 -44.8889
L24.6828 -45.1594
L24.9002 -45.4241
L25.1252 -45.6828
L25.3577 -45.9355
L25.5971 -46.1821
L25.8434 -46.4224
L26.0961 -46.6564
L26.3548 -46.884
L26.6194 -47.1052
L26.8895 -47.32
L27.1647 -47.5284
L27.4448 -47.7303
L27.7294 -47.9257
L28.0182 -48.1148
L28.3109 -48.2974
L28.6072 -48.4736
L28.9069 -48.6435
L29.2095 -48.8071
L29.515 -48.9645
L29.8229 -49.1157
L30.1331 -49.2608
L30.4453 -49.3999
L30.7593 -49.533
L31.0748 -49.6602
L31.3916 -49.7816
L31.7096 -49.8973
L32.0285 -50.0074
L32.3482 -50.1119
L32.6684 -50.2109
L32.9891 -50.3046
L33.31 -50.393
L33.6311 -50.4763
L33.9521 -50.5544
L34.273 -50.6276
L34.5936 -50.6958
L34.9139 -50.7592
L35.2337 -50.8178
L35.553 -50.8718
L35.8715 -50.9213
L36.1894 -50.9662
L36.5065 -51.0068
L36.8226 -51.043
L37.1379 -51.0751
L37.4522 -51.1029
L37.7654 -51.1267
L38.0775 -51.1464
L38.3885 -51.1622
L38.6984 -51.1741
L39.0071 -51.1823
L39.3145 -51.1866
L39.6208 -51.1873
L39.9257 -51.1844
L40.2294 -51.1779
L40.5318 -51.1679
L40.8329 -51.1544
L41.1327 -51.1375
L41.4312 -51.1173
L41.7283 -51.0937
L42.0242 -51.0669
L42.3187 -51.0368
L42.6119 -51.0035
L42.9039 -50.967
L43.1945 -50.9274
L43.4838 -50.8847
L43.7719 -50.8388
L44.0586 -50.79
L44.3441 -50.7381
L44.6284 -50.6832
L44.9114 -50.6252
L45.1932 -50.5643
L45.4738 -50.5005
L45.7531 -50.4336
L46.0313 -50.3638
L46.3084 -50.2911
L46.5842 -50.2154
L46.8589 -50.1368
L47.1325 -50.0552
L47.405 -49.9707
L47.6763 -49.8832
L47.9466 -49.7928
L48.2158 -49.6994
L48.4839 -49.603
L48.751 -49.5036
L49.017 -49.4012
L49.2819 -49.2958
L49.5459 -49.1873
L49.8088 -49.0757
L50.0707 -48.961
L50.3316 -48.8432
L50.5914 -48.7222
L50.8503 -48.5981
L51.1081 -48.4707
L51.3649 -48.34
L51.6208 -48.2061
L51.8755 -48.0688
L52.1293 -47.9281
L52.382 -47.7841
L52.6337 -47.6365
L52.8842 -47.4854
L53.1337 -47.3308
L53.3821 -47.1725
L53.6294 -47.0106
L53.8755 -46.8449
L54.1204 -46.6755
L54.3641 -46.5022
L54.6066 -46.325
L54.8477 -46.1438
L55.0875 -45.9586
L55.326 -45.7693
L55.563 -45.5759
L55.7985 -45.3782
L56.0324 -45.1763
L56.2648 -44.97
L56.4954 -44.7592
L56.7243 -44.5439
L56.9514 -44.3241
L57.1765 -44.0996
L57.3996 -43.8704
L57.6206 -43.6364
L57.8394 -43.3976
L58.0558 -43.1538
L58.2698 -42.905
L58.4812 -42.6511
L58.6899 -42.3922
L58.8958 -42.128
L59.0987 -41.8585
L59.2984 -41.5837
L59.4948 -41.3036
L59.6878 -41.018
L59.8771 -40.7269
L60.0625 -40.4303
L60.244 -40.1282
L60.4211 -39.8204
L60.5939 -39.507
L60.762 -39.188
L60.9252 -38.8634
L61.0832 -38.5331
L61.2359 -38.1972
L61.3829 -37.8556
L61.5241 -37.5085
L61.6591 -37.1558
L61.7876 -36.7976
L61.9095 -36.4341
L62.0243 -36.0652
L62.1319 -35.6911
L62.2318 -35.3119
L62.3239 -34.9277
L62.4078 -34.5388
L62.4832 -34.1453
L62.5498 -33.7473
L62.6073 -33.3451
L62.6554 -32.9391
L62.6938 -32.5293
L62.7222 -32.1162
L62.7404 -31.7
L62.7481 -31.2811
L62.7451 -30.8598
L62.731 -30.4366
L62.7057 -30.0118
L62.669 -29.5859
L62.6207 -29.1593
L62.5607 -28.7326
L62.4888 -28.3061
L62.405 -27.8805
L62.3091 -27.4562
L62.2012 -27.0338
L62.0812 -26.6137
L61.9492 -26.1966
L61.8052 -25.783
L61.6495 -25.3734
L61.482 -24.9684
L61.303 -24.5684
L61.1127 -24.1741
L60.9113 -23.7858
L60.6992 -23.4041
L60.4766 -23.0295
L60.2439 -22.6623
L60.0014 -22.3029
L59.7496 -21.9518
L59.4888 -21.6093
L59.2194 -21.2756
L58.9419 -20.9511
L58.6567 -20.636
L58.3643 -20.3305
L58.0652 -20.0348
L57.7597 -19.749
L57.4483 -19.4732
L57.1316 -19.2075
L56.8099 -18.952
L56.4837 -18.7066
L56.1534 -18.4715
L55.8194 -18.2464
L55.4822 -18.0315
L55.1421 -17.8266
L54.7995 -17.6316
L54.4547 -17.4464
L54.1082 -17.2709
L53.7602 -17.1049
L53.4111 -16.9484
L53.0611 -16.801
L52.7105 -16.6628
L52.3596 -16.5334
L52.0087 -16.4128
L51.658 -16.3006
L51.3076 -16.1968
L50.9578 -16.1011
L50.6089 -16.0133
L50.2608 -15.9333
L49.9139 -15.8608
L49.5683 -15.7957
L49.224 -15.7376
L48.8813 -15.6866
L48.5402 -15.6423
L48.2009 -15.6046
L47.8634 -15.5733
L47.5278 -15.5482
L47.1942 -15.5291
L46.8626 -15.5159
L46.5332 -15.5083
L46.2059 -15.5063
L45.8808 -15.5097
L45.5579 -15.5183
L45.2373 -15.5319
L44.9191 -15.5505
L44.6031 -15.5738
L44.2894 -15.6018
L43.9781 -15.6343
L43.6691 -15.6712
L43.3625 -15.7124
L43.0582 -15.7577
L42.7563 -15.807
L42.4566 -15.8603
L42.1593 -15.9175
L41.8643 -15.9783
L41.5716 -16.0429
L41.2811 -16.1109
L40.9929 -16.1825
L40.7069 -16.2575
L40.4232 -16.3357
L40.1416 -16.4173
L39.8621 -16.502
L39.5848 -16.5898
L39.3096 -16.6807
L39.0365 -16.7746
L38.7654 -16.8714
L38.4963 -16.9711
L38.2292 -17.0737
L37.9641 -17.1791
L37.7009 -17.2873
L37.4396 -17.3982
L37.1801 -17.5118
L36.9226 -17.6281
L36.6668 -17.747
L36.4128 -17.8686
L36.1606 -17.9927
L35.9101 -18.1194
L35.6613 -18.2487
L35.4141 -18.3805
L35.1687 -18.5149
L34.9248 -18.6517
L34.6826 -18.7911
z
" id="C0_1_185c68ad56"/>
    </defs>
    <g clip-path="url(#p1bffca34e9)">
     <use style="fill:#ffffff;stroke:#000000;stroke-width:2.0;" x="0.0" xlink:href="#C0_0_a811fe30f3" y="72.0"/>
    </g>
    <g clip-path="url(#p1bffca34e9)">
     <use style="fill:#ff0000;stroke:#000000;stroke-width:2.0;" x="0.0" xlink:href="#C0_1_185c68ad56" y="72.0"/>
    </g>
   </g>
  </g>
 </g>
 <defs>
  <clipPath id="p1bffca34e9">
   <rect height="72.0" width="72.0" x="0.0" y="0.0"/>
  </clipPath>
 </defs>
</svg>
